<?xml version="1.0" encoding="iso-8859-1"?>
<!-- Generator: Adobe Illustrator 19.0.0, SVG Export Plug-In . SVG Version: 6.00 Build 0)  -->
<svg version="1.1" id="Layer_1" xmlns="http://www.w3.org/2000/svg" xmlns:xlink="http://www.w3.org/1999/xlink" x="0px" y="0px"
	 viewBox="0 0 505 505" style="enable-background:new 0 0 505 505;" xml:space="preserve">
<circle style="fill:#84DBFF;" cx="252.5" cy="252.5" r="252.5"/>
<path style="fill:#324A5E;" d="M116.3,107.4v290.2c0,10.9,8.8,19.7,19.7,19.7h230.9c12.1,0,21.9-9.8,21.9-21.9V109.6
	c0-12.1-9.8-21.9-21.9-21.9h-231C125.1,87.7,116.3,96.5,116.3,107.4z"/>
<g>
	<path style="fill:#2B3B4E;" d="M164.5,87.7h-28.6c-10.9,0-19.7,8.8-19.7,19.7v290.2c0,10.9,8.8,19.7,19.7,19.7h28.6V87.7z"/>
	<path style="fill:#2B3B4E;" d="M388.7,109.6v54.8l0,0c-13.5-7.2-22-21.2-22-36.6v-18.1h-18.2c-15.3,0-29.4-8.5-36.6-22l0,0h54.8
		C378.9,87.7,388.7,97.5,388.7,109.6z"/>
	<path style="fill:#2B3B4E;" d="M388.7,395.4v-54.8l0,0c-13.5,7.2-22,21.2-22,36.6v18.1h-18.2c-15.3,0-29.4,8.5-36.6,22l0,0h54.8
		C378.9,417.3,388.7,407.5,388.7,395.4z"/>
</g>
<g>
	<circle style="fill:#FFFFFF;" cx="262.4" cy="268.4" r="23.9"/>
	<path style="fill:#FFFFFF;" d="M316,340.1c-14.3,12.5-33,20.1-53.6,20.1c-20.5,0-39.3-7.6-53.6-20.1c6.8-23.1,28.2-40,53.6-40
		S309.1,317,316,340.1z"/>
</g>
<polygon style="fill:#FF7058;" points="248.8,87.7 248.8,190 221.7,162.9 193.1,191.5 193.1,87.7 "/>
<g>
</g>
<g>
</g>
<g>
</g>
<g>
</g>
<g>
</g>
<g>
</g>
<g>
</g>
<g>
</g>
<g>
</g>
<g>
</g>
<g>
</g>
<g>
</g>
<g>
</g>
<g>
</g>
<g>
</g>
</svg>
