<?xml version="1.0" encoding="iso-8859-1"?>
<!-- Generator: Adobe Illustrator 19.0.0, SVG Export Plug-In . SVG Version: 6.00 Build 0)  -->
<svg version="1.1" id="Layer_1" xmlns="http://www.w3.org/2000/svg" xmlns:xlink="http://www.w3.org/1999/xlink" x="0px" y="0px"
	 viewBox="0 0 505 505" style="enable-background:new 0 0 505 505;" xml:space="preserve">
<circle style="fill:#54C0EB;" cx="252.5" cy="252.5" r="252.5"/>
<g>
	<polygon style="fill:#E6E9EE;" points="371.7,336.6 358.3,336.6 358.3,326.6 361.7,326.6 361.7,323.2 371.7,323.2 	"/>
	<rect x="263" y="326.6" style="fill:#E6E9EE;" width="15.7" height="10"/>
	<rect x="231.7" y="326.6" style="fill:#E6E9EE;" width="15.7" height="10"/>
	<rect x="327" y="326.6" style="fill:#E6E9EE;" width="15.7" height="10"/>
	<rect x="295.6" y="326.6" style="fill:#E6E9EE;" width="15.7" height="10"/>
	<polygon style="fill:#E6E9EE;" points="216,336.6 202.7,336.6 202.7,323.2 212.7,323.2 212.7,326.6 216,326.6 	"/>
	<path style="fill:#E6E9EE;" d="M212.7,305h-10v-18.2h10V305z M212.7,268.6h-10v-18.2h10V268.6z M212.7,232.1h-10v-18.2h10V232.1z"
		/>
	<polygon style="fill:#E6E9EE;" points="212.7,195.6 202.7,195.6 202.7,182.3 216,182.3 216,192.3 212.7,192.3 	"/>
	<rect x="231.7" y="182.3" style="fill:#E6E9EE;" width="15.7" height="10"/>
	<rect x="263" y="182.3" style="fill:#E6E9EE;" width="15.7" height="10"/>
	<rect x="295.6" y="182.3" style="fill:#E6E9EE;" width="15.7" height="10"/>
	<rect x="327" y="182.3" style="fill:#E6E9EE;" width="15.7" height="10"/>
	<polygon style="fill:#E6E9EE;" points="371.7,195.6 361.7,195.6 361.7,192.3 358.3,192.3 358.3,182.3 371.7,182.3 	"/>
	<path style="fill:#E6E9EE;" d="M371.7,305h-10v-18.2h10V305z M371.7,268.6h-10v-18.2h10V268.6z M371.7,232.1h-10v-18.2h10V232.1z"
		/>
</g>
<path style="fill:#FFFFFF;" d="M103.8,117.6v164.9c0,1.2,1,2.1,2.1,2.1h223.2c1.2,0,2.1-1,2.1-2.1V117.6H103.8z"/>
<path style="fill:#FF7058;" d="M331.3,145.8v-30.6c0-7.4-6-13.4-13.4-13.4H117.2c-7.4,0-13.4,6-13.4,13.4v30.6H331.3z"/>
<g>
	<circle style="fill:#FFD05B;" cx="307" cy="123.8" r="9"/>
	<circle style="fill:#FFD05B;" cx="278.2" cy="123.8" r="9"/>
	<circle style="fill:#FFD05B;" cx="249.4" cy="123.8" r="9"/>
</g>
<path style="fill:#324A5E;" d="M394,426H268.6c-1,0-1.8-0.8-1.8-1.8V246.8c0-1,0.8-1.8,1.8-1.8H394c1,0,1.8,0.8,1.8,1.8v177.4
	C395.8,425.2,395,426,394,426z"/>
<rect x="278.4" y="267.8" style="fill:#E6E9EE;" width="105.8" height="130.3"/>
<g>
	<circle style="fill:#ACB3BA;" cx="331.3" cy="411.4" r="7.4"/>
	<path style="fill:#ACB3BA;" d="M349.6,259.4h-21.9c-1.3,0-2.4-1.1-2.4-2.4l0,0c0-1.3,1.1-2.4,2.4-2.4h21.9c1.3,0,2.4,1.1,2.4,2.4
		l0,0C352.1,258.4,351,259.4,349.6,259.4z"/>
	<path style="fill:#ACB3BA;" d="M318.8,259.4H313c-1.3,0-2.4-1.1-2.4-2.4l0,0c0-1.3,1.1-2.4,2.4-2.4h5.8c1.3,0,2.4,1.1,2.4,2.4l0,0
		C321.3,258.4,320.2,259.4,318.8,259.4z"/>
</g>
<g>
</g>
<g>
</g>
<g>
</g>
<g>
</g>
<g>
</g>
<g>
</g>
<g>
</g>
<g>
</g>
<g>
</g>
<g>
</g>
<g>
</g>
<g>
</g>
<g>
</g>
<g>
</g>
<g>
</g>
</svg>
