<?xml version="1.0" encoding="iso-8859-1"?>
<!-- Generator: Adobe Illustrator 19.0.0, SVG Export Plug-In . SVG Version: 6.00 Build 0)  -->
<svg version="1.1" id="Layer_1" xmlns="http://www.w3.org/2000/svg" xmlns:xlink="http://www.w3.org/1999/xlink" x="0px" y="0px"
	 viewBox="0 0 505 505" style="enable-background:new 0 0 505 505;" xml:space="preserve">
<circle style="fill:#FFD05B;" cx="252.5" cy="252.5" r="252.5"/>
<path style="fill:#54C0EB;" d="M222,351.6h203.9c2.1,0,3.8-1.7,3.8-3.8V193.1c0-2.1-1.7-3.8-3.8-3.8H222V351.6z"/>
<path style="fill:#324A5E;" d="M105,149.2v194.9c0,30.3,22.4,54.9,50.1,54.9h30.1c27.7,0,50.1-24.6,50.1-54.9V149.2H105z"/>
<circle style="fill:#FFFFFF;" cx="170.1" cy="200.9" r="94.8"/>
<circle style="fill:#324A5E;" cx="170.1" cy="200.9" r="68.6"/>
<circle style="fill:#2B3B4E;" cx="170.1" cy="200.9" r="29.1"/>
<g>
	<circle style="fill:#FFFFFF;" cx="149.4" cy="177.4" r="13.8"/>
	<circle style="fill:#FFFFFF;" cx="168.6" cy="196.7" r="7.4"/>
</g>
<circle style="fill:#FF7058;" cx="206.1" cy="311.7" r="7.7"/>
<g>
	<path style="fill:#FFFFFF;" d="M362.8,211.2h7.7v34.4h-7.7v-13.5h-13.7v13.5h-7.7v-34.4h7.7v14.4h13.7V211.2z"/>
	<path style="fill:#FFFFFF;" d="M405.2,215.7c3.3,3,4.9,7.2,4.9,12.5s-1.6,9.6-4.8,12.7c-3.2,3.1-8.1,4.7-14.6,4.7h-11.8v-34.4h12.2
		C397.2,211.2,401.9,212.7,405.2,215.7z M399.6,236.1c1.9-1.8,2.8-4.3,2.8-7.7s-0.9-6-2.8-7.8s-4.8-2.7-8.7-2.7h-4.3v20.9h4.9
		C395,238.8,397.7,237.9,399.6,236.1z"/>
</g>
<g>
</g>
<g>
</g>
<g>
</g>
<g>
</g>
<g>
</g>
<g>
</g>
<g>
</g>
<g>
</g>
<g>
</g>
<g>
</g>
<g>
</g>
<g>
</g>
<g>
</g>
<g>
</g>
<g>
</g>
</svg>
