<?xml version="1.0" encoding="iso-8859-1"?>
<!-- Generator: Adobe Illustrator 19.0.0, SVG Export Plug-In . SVG Version: 6.00 Build 0)  -->
<svg version="1.1" id="Layer_1" xmlns="http://www.w3.org/2000/svg" xmlns:xlink="http://www.w3.org/1999/xlink" x="0px" y="0px"
	 viewBox="0 0 505 505" style="enable-background:new 0 0 505 505;" xml:space="preserve">
<circle style="fill:#FFD05B;" cx="252.5" cy="252.5" r="252.5"/>
<path style="fill:#FFFFFF;" d="M381.7,133.4H115.5c-8.5,0-15.5,6.9-15.5,15.5v168.5c0,8.5,6.9,15.5,15.5,15.5h21.4v40.6l50.3-40.6
	h194.5c8.5,0,15.5-6.9,15.5-15.5V148.9C397.1,140.4,390.2,133.4,381.7,133.4z"/>
<g>
	<rect x="147.3" y="162.2" style="fill:#E6E9EE;" width="206.1" height="19.5"/>
	<rect x="147.3" y="203.2" style="fill:#E6E9EE;" width="206.1" height="19.5"/>
	<rect x="147.3" y="244.1" style="fill:#E6E9EE;" width="206.1" height="19.5"/>
	<rect x="147.3" y="285" style="fill:#E6E9EE;" width="111.8" height="19.5"/>
</g>
<path style="fill:#324A5E;" d="M373.8,396.9l-17.3-42.2c13.1-15.1,21.1-34.8,21.1-56.4c0-47.5-38.5-86.1-86.1-86.1
	c-47.5,0-86.1,38.5-86.1,86.1c0,47.5,38.5,86.1,86.1,86.1c10.4,0,20.3-1.8,29.5-5.2L373.8,396.9z"/>
<g>
	<circle style="fill:#FF7058;" cx="248" cy="298.5" r="14.5"/>
	<circle style="fill:#FF7058;" cx="291.6" cy="298.5" r="14.5"/>
	<circle style="fill:#FF7058;" cx="335.2" cy="298.5" r="14.5"/>
</g>
<g>
</g>
<g>
</g>
<g>
</g>
<g>
</g>
<g>
</g>
<g>
</g>
<g>
</g>
<g>
</g>
<g>
</g>
<g>
</g>
<g>
</g>
<g>
</g>
<g>
</g>
<g>
</g>
<g>
</g>
</svg>
