<?xml version="1.0" encoding="iso-8859-1"?>
<!-- Generator: Adobe Illustrator 19.0.0, SVG Export Plug-In . SVG Version: 6.00 Build 0)  -->
<svg version="1.1" id="Layer_1" xmlns="http://www.w3.org/2000/svg" xmlns:xlink="http://www.w3.org/1999/xlink" x="0px" y="0px"
	 viewBox="0 0 505 505" style="enable-background:new 0 0 505 505;" xml:space="preserve">
<circle style="fill:#FFD05B;" cx="252.5" cy="252.5" r="252.5"/>
<path style="fill:#FF7058;" d="M204,92.7c-69.7,0-126.2,43.6-126.2,97.3c0,20.7,8.4,39.9,22.7,55.7l-14.7,56.6l52.5-29.1
	c19.1,9,41.6,14.2,65.7,14.2c69.7,0,126.2-43.6,126.2-97.3C330.2,136.3,273.7,92.7,204,92.7z"/>
<g>
	<circle style="fill:#F1543F;" cx="135.7" cy="189.1" r="17"/>
	<circle style="fill:#F1543F;" cx="204" cy="189.1" r="17"/>
	<circle style="fill:#F1543F;" cx="272.3" cy="189.1" r="17"/>
</g>
<path style="fill:#FFFFFF;" d="M301,202.7c69.7,0,126.2,43.6,126.2,97.3c0,20.7-8.4,39.9-22.7,55.7l14.7,56.6l-52.5-29.1
	c-19.1,9-41.6,14.2-65.7,14.2c-69.7,0-126.2-43.6-126.2-97.3C174.8,246.3,231.3,202.7,301,202.7z"/>
<g>
	<circle style="fill:#E6E9EE;" cx="232.7" cy="299.9" r="17"/>
	<circle style="fill:#E6E9EE;" cx="301" cy="299.9" r="17"/>
	<circle style="fill:#E6E9EE;" cx="369.3" cy="299.9" r="17"/>
</g>
<g>
</g>
<g>
</g>
<g>
</g>
<g>
</g>
<g>
</g>
<g>
</g>
<g>
</g>
<g>
</g>
<g>
</g>
<g>
</g>
<g>
</g>
<g>
</g>
<g>
</g>
<g>
</g>
<g>
</g>
</svg>
