<?xml version="1.0" encoding="iso-8859-1"?>
<!-- Generator: Adobe Illustrator 19.0.0, SVG Export Plug-In . SVG Version: 6.00 Build 0)  -->
<svg version="1.1" id="Layer_1" xmlns="http://www.w3.org/2000/svg" xmlns:xlink="http://www.w3.org/1999/xlink" x="0px" y="0px"
	 viewBox="0 0 505 505" style="enable-background:new 0 0 505 505;" xml:space="preserve">
<circle style="fill:#84DBFF;" cx="252.5" cy="252.5" r="252.5"/>
<path style="fill:#FFFFFF;" d="M391.9,117.4H113.1c-9,0-16.4,7.3-16.4,16.4v184.6c0,9,7.3,16.4,16.4,16.4h37.8v52.9l72.2-52.9H392
	c9,0,16.4-7.3,16.4-16.4V133.8C408.3,124.7,401,117.4,391.9,117.4z"/>
<g>
	<rect x="130.1" y="154.4" style="fill:#FF7058;" width="160.2" height="19.6"/>
	<rect x="306.6" y="154.4" style="fill:#FF7058;" width="68.3" height="19.6"/>
	<rect x="130.1" y="195.6" style="fill:#FF7058;" width="75.7" height="19.6"/>
	<rect x="222.1" y="195.6" style="fill:#FF7058;" width="152.8" height="19.6"/>
	<rect x="130.1" y="236.9" style="fill:#FF7058;" width="114.8" height="19.6"/>
	<rect x="261.1" y="236.9" style="fill:#FF7058;" width="113.8" height="19.6"/>
	<rect x="130.1" y="278.1" style="fill:#FF7058;" width="67.6" height="19.6"/>
	<rect x="213.9" y="278.1" style="fill:#FF7058;" width="160.9" height="19.6"/>
</g>
<g>
</g>
<g>
</g>
<g>
</g>
<g>
</g>
<g>
</g>
<g>
</g>
<g>
</g>
<g>
</g>
<g>
</g>
<g>
</g>
<g>
</g>
<g>
</g>
<g>
</g>
<g>
</g>
<g>
</g>
</svg>
