<?xml version="1.0" encoding="iso-8859-1"?>
<!-- Generator: Adobe Illustrator 19.0.0, SVG Export Plug-In . SVG Version: 6.00 Build 0)  -->
<svg version="1.1" id="Layer_1" xmlns="http://www.w3.org/2000/svg" xmlns:xlink="http://www.w3.org/1999/xlink" x="0px" y="0px"
	 viewBox="0 0 505 505" style="enable-background:new 0 0 505 505;" xml:space="preserve">
<circle style="fill:#90DFAA;" cx="252.5" cy="252.5" r="252.5"/>
<path style="fill:#FFFFFF;" d="M112.5,239.5v162.7c0,10.9,8.8,19.7,19.7,19.7h249.6c10.9,0,19.7-8.8,19.7-19.7V239.5H112.5z"/>
<rect x="112.5" y="199.8" style="fill:#324A5E;" width="288.9" height="39.7"/>
<g>
	<polygon style="fill:#4CDBC4;" points="377.8,239.5 353.7,239.5 377.3,199.8 401.4,199.8 	"/>
	<polygon style="fill:#4CDBC4;" points="317.5,239.5 293.4,239.5 317,199.8 341.1,199.8 	"/>
	<polygon style="fill:#4CDBC4;" points="257.1,239.5 233.1,239.5 256.7,199.8 280.7,199.8 	"/>
	<polygon style="fill:#4CDBC4;" points="196.8,239.5 172.8,239.5 196.4,199.8 220.4,199.8 	"/>
	<polygon style="fill:#4CDBC4;" points="136.5,239.5 112.5,239.5 136.1,199.8 160.1,199.8 	"/>
</g>
<path style="fill:#324A5E;" d="M394.1,135.4l-235.2,53.8l-23.4,5.4l-23,5.2l-5.6-24.2c-0.8-3.4-0.3-6.9,1.2-9.8
	c1.9-3.9,5.4-6.9,10-8l9-2.1L370.9,100c8-1.9,15.9,3.2,17.8,11.1L394.1,135.4z"/>
<g>
	<path style="fill:#4CDBC4;" d="M158.9,189.2l-23.4,5.4l-27.4-28.8c1.9-3.9,5.4-6.9,10-8l9-2.1L158.9,189.2z"/>
	<polygon style="fill:#4CDBC4;" points="194.3,181.1 217.7,175.7 185.9,142.3 162.4,147.7 	"/>
	<polygon style="fill:#4CDBC4;" points="253.1,167.7 276.5,162.3 244.7,128.9 221.2,134.2 	"/>
	<polygon style="fill:#4CDBC4;" points="311.9,154.2 335.3,148.9 303.5,115.4 280,120.8 	"/>
	<polygon style="fill:#4CDBC4;" points="370.7,140.8 394.1,135.4 362.3,102 338.8,107.4 	"/>
</g>
<rect x="158.6" y="276.9" style="fill:#E6E9EE;" width="196.6" height="100.1"/>
<g>
	<rect x="189.1" y="297.6" style="fill:#ACB3BA;" width="135.7" height="16.8"/>
	<rect x="189.1" y="334.6" style="fill:#ACB3BA;" width="135.7" height="16.8"/>
</g>
<g>
</g>
<g>
</g>
<g>
</g>
<g>
</g>
<g>
</g>
<g>
</g>
<g>
</g>
<g>
</g>
<g>
</g>
<g>
</g>
<g>
</g>
<g>
</g>
<g>
</g>
<g>
</g>
<g>
</g>
</svg>
