<?xml version="1.0" encoding="iso-8859-1"?>
<!-- Generator: Adobe Illustrator 19.0.0, SVG Export Plug-In . SVG Version: 6.00 Build 0)  -->
<svg version="1.1" id="Layer_1" xmlns="http://www.w3.org/2000/svg" xmlns:xlink="http://www.w3.org/1999/xlink" x="0px" y="0px"
	 viewBox="0 0 505 505" style="enable-background:new 0 0 505 505;" xml:space="preserve">
<circle style="fill:#324A5E;" cx="252.5" cy="252.5" r="252.5"/>
<path style="fill:#54C0EB;" d="M372.3,407.7H132.7c-1.7,0-3-1.3-3-3V113c0-1.7,1.3-3,3-3h239.5c1.7,0,3,1.3,3,3v291.7
	C375.3,406.4,373.9,407.7,372.3,407.7z"/>
<polygon style="fill:#FFFFFF;" points="153.9,125.1 153.9,355.6 312.5,355.6 312.5,317 351.1,317 351.1,125.1 "/>
<polygon style="fill:#E6E9EE;" points="312.5,355.6 351.1,317 312.5,317 "/>
<polygon style="fill:#FFD05B;" points="293.2,94.1 279.4,72.5 225.6,72.5 211.8,94.1 171.7,94.1 171.7,135.9 333.3,135.9 
	333.3,94.1 "/>
<g>
	<rect x="177.1" y="160.3" style="fill:#E6E9EE;" width="150.7" height="16.1"/>
	<rect x="177.1" y="202.6" style="fill:#E6E9EE;" width="150.7" height="16.1"/>
	<rect x="177.1" y="244.9" style="fill:#E6E9EE;" width="150.7" height="16.1"/>
	<rect x="177.1" y="287.2" style="fill:#E6E9EE;" width="87.6" height="16.1"/>
</g>
<g>
</g>
<g>
</g>
<g>
</g>
<g>
</g>
<g>
</g>
<g>
</g>
<g>
</g>
<g>
</g>
<g>
</g>
<g>
</g>
<g>
</g>
<g>
</g>
<g>
</g>
<g>
</g>
<g>
</g>
</svg>
