<?xml version="1.0" encoding="iso-8859-1"?>
<!-- Generator: Adobe Illustrator 19.0.0, SVG Export Plug-In . SVG Version: 6.00 Build 0)  -->
<svg version="1.1" id="Layer_1" xmlns="http://www.w3.org/2000/svg" xmlns:xlink="http://www.w3.org/1999/xlink" x="0px" y="0px"
	 viewBox="0 0 505 505" style="enable-background:new 0 0 505 505;" xml:space="preserve">
<circle style="fill:#4CDBC4;" cx="252.5" cy="252.5" r="252.5"/>
<path style="fill:#324A5E;" d="M365.1,416.5H122.3c-1.6,0-2.9-1.3-2.9-2.9V126c0-1.6,1.3-2.9,2.9-2.9h242.8c1.6,0,2.9,1.3,2.9,2.9
	v287.6C368,415.2,366.7,416.5,365.1,416.5z"/>
<rect x="148.3" y="140.2" style="fill:#FFFFFF;" width="190.8" height="233.9"/>
<path style="fill:#FFD05B;" d="M279.5,110.2c-3.2,0-6.1-2.2-6.7-5.3c-2.5-13.8-14.6-24.3-29.1-24.3s-26.6,10.5-29.1,24.3
	c-0.6,3.1-3.5,5.3-6.7,5.3h-27.4c-3.7,0-6.7,3-6.7,6.7V150c0,3.7,3,6.7,6.7,6.7h126.2c3.7,0,6.7-3,6.7-6.7v-33.1
	c0-3.7-3-6.7-6.7-6.7C306.7,110.2,279.5,110.2,279.5,110.2z"/>
<g>
	<rect x="165.9" y="197" style="fill:#E6E9EE;" width="155.6" height="15.7"/>
	<rect x="165.9" y="234.7" style="fill:#E6E9EE;" width="155.6" height="15.7"/>
	<rect x="165.9" y="272.5" style="fill:#E6E9EE;" width="155.6" height="15.7"/>
	<rect x="165.9" y="310.2" style="fill:#E6E9EE;" width="86.6" height="15.7"/>
</g>
<rect x="297.876" y="294.203" transform="matrix(-0.7071 0.7071 -0.7071 -0.7071 756.3501 335.8153)" style="fill:#54C0EB;" width="21.5" height="60.699"/>
<path style="fill:#84DBFF;" d="M299.5,204.8c-30.6-30.6-80.1-30.6-110.7,0c-30.6,30.5-30.6,80.1,0,110.7
	c30.5,30.6,80.1,30.6,110.7,0S330.1,235.3,299.5,204.8z M283.4,299.3c-21.7,21.7-56.8,21.7-78.4,0s-21.7-56.8,0-78.4
	s56.8-21.7,78.4,0S305,277.6,283.4,299.3z"/>
<path style="fill:#FF7058;" d="M327.9,317.3l-26.5,26.5c-0.7,0.7-0.7,1.7,0,2.4l64.8,64.8c0.7,0.7,1.7,0.7,2.4,0l26.5-26.5
	c0.7-0.7,0.7-1.7,0-2.4l-64.8-64.8C329.6,316.6,328.5,316.6,327.9,317.3z"/>
<g>
</g>
<g>
</g>
<g>
</g>
<g>
</g>
<g>
</g>
<g>
</g>
<g>
</g>
<g>
</g>
<g>
</g>
<g>
</g>
<g>
</g>
<g>
</g>
<g>
</g>
<g>
</g>
<g>
</g>
</svg>
