<?xml version="1.0" encoding="iso-8859-1"?>
<!-- Generator: Adobe Illustrator 19.0.0, SVG Export Plug-In . SVG Version: 6.00 Build 0)  -->
<svg version="1.1" id="Layer_1" xmlns="http://www.w3.org/2000/svg" xmlns:xlink="http://www.w3.org/1999/xlink" x="0px" y="0px"
	 viewBox="0 0 505 505" style="enable-background:new 0 0 505 505;" xml:space="preserve">
<circle style="fill:#84DBFF;" cx="252.5" cy="252.5" r="252.5"/>
<path style="fill:#FFFFFF;" d="M385.1,187.4c1.9-5.6,3-11.6,3-17.9c0-30.6-24.8-55.4-55.4-55.4c-7.7,0-15.1,1.6-21.8,4.5
	c-14.2-25-41-41.8-71.8-41.8c-41,0-75.1,29.9-81.5,69.2c-0.4,0-0.7,0-1.1,0c-36.6,0-66.2,29.6-66.2,66.2s29.6,66.2,66.2,66.2h211
	c26,0,47.2-21.1,47.2-47.2C414.6,211.3,402.4,194.4,385.1,187.4z"/>
<g>
	<polygon style="fill:#FF7058;" points="320.2,362.7 320.2,387.2 184.8,387.2 184.8,362.7 161.4,362.7 161.4,412.5 184.8,412.5 
		320.2,412.5 343.6,412.5 343.6,362.7 	"/>
	<polygon style="fill:#FF7058;" points="263.9,332.8 263.9,293.6 241.1,293.6 241.1,332.8 209.3,332.8 252.5,376 295.7,332.8 	"/>
</g>
<g>
</g>
<g>
</g>
<g>
</g>
<g>
</g>
<g>
</g>
<g>
</g>
<g>
</g>
<g>
</g>
<g>
</g>
<g>
</g>
<g>
</g>
<g>
</g>
<g>
</g>
<g>
</g>
<g>
</g>
</svg>
