<?xml version="1.0" encoding="iso-8859-1"?>
<!-- Generator: Adobe Illustrator 19.0.0, SVG Export Plug-In . SVG Version: 6.00 Build 0)  -->
<svg version="1.1" id="Layer_1" xmlns="http://www.w3.org/2000/svg" xmlns:xlink="http://www.w3.org/1999/xlink" x="0px" y="0px"
	 viewBox="0 0 505 505" style="enable-background:new 0 0 505 505;" xml:space="preserve">
<circle style="fill:#84DBFF;" cx="252.5" cy="252.5" r="252.5"/>
<path style="fill:#FFFFFF;" d="M377.4,155.1c1.4-4.9,2.2-10.1,2.2-15.5c0-30.5-24.7-55.2-55.2-55.2c-6.8,0-13.2,1.3-19.2,3.5
	c-14.7-18.1-37-29.6-62.1-29.6c-37.3,0-68.5,25.6-77.4,60.1c-4-1.2-8.2-1.9-12.6-1.9c-24,0-43.4,19.4-43.4,43.4
	c0,6,1.2,11.7,3.4,16.9c-18.6,9.4-31.4,28.6-31.4,50.9c0,28.3,20.6,51.7,47.7,56.2l-0.1,0.8H357c36.7,0,66.4-29.7,66.4-66.4
	C423.4,188.7,404.1,163.7,377.4,155.1z"/>
<polygon style="fill:#FF7058;" points="374.8,351.2 326.2,302.7 277.7,351.2 298,351.2 298,408.2 354.5,408.2 354.5,351.2 "/>
<polygon style="fill:#324A5E;" points="149.8,359.6 198.3,408.2 246.9,359.6 226.6,359.6 226.6,302.7 170.1,302.7 170.1,359.6 "/>
<g>
</g>
<g>
</g>
<g>
</g>
<g>
</g>
<g>
</g>
<g>
</g>
<g>
</g>
<g>
</g>
<g>
</g>
<g>
</g>
<g>
</g>
<g>
</g>
<g>
</g>
<g>
</g>
<g>
</g>
</svg>
