<?xml version="1.0" encoding="iso-8859-1"?>
<!-- Generator: Adobe Illustrator 19.0.0, SVG Export Plug-In . SVG Version: 6.00 Build 0)  -->
<svg version="1.1" id="Layer_1" xmlns="http://www.w3.org/2000/svg" xmlns:xlink="http://www.w3.org/1999/xlink" x="0px" y="0px"
	 viewBox="0 0 505 505" style="enable-background:new 0 0 505 505;" xml:space="preserve">
<circle style="fill:#90DFAA;" cx="252.5" cy="252.5" r="252.5"/>
<path style="fill:#FFFFFF;" d="M430,252.5c0-98-79.5-177.6-177.6-177.6c-98,0-177.6,79.5-177.6,177.6S154.4,430,252.5,430
	C350.6,430.1,430.1,350.6,430,252.5z M239.2,265.8c-7.3-7.3-7.3-19.2,0-26.5s19.2-7.3,26.5,0c7.3,7.3,7.3,19.2,0,26.5
	C258.4,273.1,246.5,273.1,239.2,265.8z"/>
<g>
	<path style="fill:#E6E9EE;" d="M359.5,349c21.3-23.6,34.9-54.3,36.9-88.2l-77-0.3c-1.5,12.7-6.6,24.4-14.3,33.9L359.5,349z"/>
	<path style="fill:#E6E9EE;" d="M156.1,145.8l54.5,54.5c10.4-8.4,22.8-13.2,35.4-14.5l0.3-77C213.7,110.2,181.7,122.5,156.1,145.8z"
		/>
	<path style="fill:#E6E9EE;" d="M108.6,245.1l77,0.2c1.4-13.1,6.6-25.1,14.4-34.9l-54.5-54.5C124,179.8,110.3,210.9,108.6,245.1z"/>
	<path style="fill:#E6E9EE;" d="M260,396.6c32.1-1.6,63.7-13.9,89.2-36.9l-54.5-54.5c-10.1,8.2-22.1,12.9-34.4,14.3L260,396.6z"/>
</g>
<path style="fill:#324A5E;" d="M280.1,224.9c-15.2-15.2-40-15.2-55.2,0s-15.2,39.9,0,55.2c15.2,15.2,39.9,15.2,55.2,0
	C295.3,264.8,295.4,240.1,280.1,224.9z M239.2,265.8c-7.3-7.3-7.3-19.2,0-26.5s19.2-7.3,26.5,0c7.3,7.3,7.3,19.2,0,26.5
	C258.4,273.1,246.5,273.1,239.2,265.8z"/>
<g>
</g>
<g>
</g>
<g>
</g>
<g>
</g>
<g>
</g>
<g>
</g>
<g>
</g>
<g>
</g>
<g>
</g>
<g>
</g>
<g>
</g>
<g>
</g>
<g>
</g>
<g>
</g>
<g>
</g>
</svg>
