<?xml version="1.0" encoding="iso-8859-1"?>
<!-- Generator: Adobe Illustrator 19.0.0, SVG Export Plug-In . SVG Version: 6.00 Build 0)  -->
<svg version="1.1" id="Layer_1" xmlns="http://www.w3.org/2000/svg" xmlns:xlink="http://www.w3.org/1999/xlink" x="0px" y="0px"
	 viewBox="0 0 505 505" style="enable-background:new 0 0 505 505;" xml:space="preserve">
<circle style="fill:#324A5E;" cx="252.5" cy="252.5" r="252.5"/>
<path style="fill:#4CDBC4;" d="M363.8,105.3H115.3c-5.9,0-10.7,4.8-10.7,10.7v273c0,5.9,4.8,10.7,10.7,10.7h274.5
	c5.9,0,10.7-4.8,10.7-10.7V141.9c0-2.8-1.1-5.6-3.1-7.6l-25.9-25.9C369.4,106.4,366.6,105.3,363.8,105.3z"/>
<path style="fill:#FFFFFF;" d="M157.2,211.1h162.7c1.8,0,3.3-1.5,3.3-3.3V105.3H153.9v102.5C153.9,209.6,155.3,211.1,157.2,211.1z"
	/>
<rect x="262.5" y="125.9" style="fill:#4CDBC4;" width="32.4" height="59.5"/>
<path style="fill:#FFFFFF;" d="M332.5,248.7h-160c-14.1,0-25.5,11.4-25.5,25.5v104.1c0,11.8,9.6,21.4,21.4,21.4h168.1
	c11.8,0,21.4-9.6,21.4-21.4V274.2C358,260.1,346.6,248.7,332.5,248.7z"/>
<path style="fill:#FF7058;" d="M358,275.6v-10.8c0-8.9-7.2-16.1-16.1-16.1H163.2c-8.9,0-16.1,7.2-16.1,16.1v10.8H358z"/>
<g>
	<rect x="147" y="294" style="fill:#ACB3BA;" width="211" height="1.4"/>
	<rect x="147" y="314.5" style="fill:#ACB3BA;" width="211" height="1.4"/>
	<rect x="147" y="335" style="fill:#ACB3BA;" width="211" height="1.4"/>
	<rect x="147" y="355.5" style="fill:#ACB3BA;" width="211" height="1.4"/>
	<rect x="147" y="376" style="fill:#ACB3BA;" width="211" height="1.4"/>
</g>
<g>
</g>
<g>
</g>
<g>
</g>
<g>
</g>
<g>
</g>
<g>
</g>
<g>
</g>
<g>
</g>
<g>
</g>
<g>
</g>
<g>
</g>
<g>
</g>
<g>
</g>
<g>
</g>
<g>
</g>
</svg>
