<?xml version="1.0" encoding="iso-8859-1"?>
<!-- Generator: Adobe Illustrator 19.0.0, SVG Export Plug-In . SVG Version: 6.00 Build 0)  -->
<svg version="1.1" id="Layer_1" xmlns="http://www.w3.org/2000/svg" xmlns:xlink="http://www.w3.org/1999/xlink" x="0px" y="0px"
	 viewBox="0 0 505 505" style="enable-background:new 0 0 505 505;" xml:space="preserve">
<circle style="fill:#324A5E;" cx="252.5" cy="252.5" r="252.5"/>
<path style="fill:#4CDBC4;" d="M431.2,348.8C312.1,204.9,192.9,469.4,73.8,325.5c0-44.1,0-88.3,0-132.4
	c119.1,128.4,238.3-151.8,357.4-23.4C431.2,229.4,431.2,289.1,431.2,348.8z"/>
<g>
	<path style="fill:#2C9984;" d="M100.1,240.7c-5.3-3.4-10.7-7.5-16-12.4c0-5.2,0-10.4,0-15.6c5.3,4.8,10.7,8.8,16,12.1
		C100.1,230.1,100.1,235.4,100.1,240.7z"/>
	<path style="fill:#2C9984;" d="M135.6,253.7c-5.7-0.7-11.4-2-17.1-4c0-5.4,0-10.8,0-16.2c5.7,1.9,11.4,3.2,17.1,3.8
		C135.6,242.8,135.6,248.3,135.6,253.7z"/>
	<path style="fill:#2C9984;" d="M173.6,250.3c-6.1,1.7-12.2,2.9-18.4,3.6c0-5.6,0-11.1,0-16.7c6.1-0.7,12.2-2.1,18.4-3.9
		C173.6,238.9,173.6,244.6,173.6,250.3z"/>
	<path style="fill:#2C9984;" d="M214.5,233.1c-6.6,3.5-13.2,6.8-19.7,9.6c0-5.8,0-11.5,0-17.3c6.6-2.9,13.2-6.3,19.7-9.9
		C214.5,221.3,214.5,227.2,214.5,233.1z"/>
	<path style="fill:#2C9984;" d="M258.4,207.2c-7.1,4.3-14.2,8.7-21.2,12.9c0-6,0-12,0-18c7.1-4.4,14.2-8.8,21.2-13.3
		C258.4,195,258.4,201.1,258.4,207.2z"/>
	<path style="fill:#2C9984;" d="M305.8,180.8c-7.6,3.5-15.3,7.5-22.9,11.8c0-6.2,0-12.4,0-18.7c7.6-4.4,15.3-8.6,22.9-12.2
		C305.8,168.1,305.8,174.5,305.8,180.8z"/>
	<path style="fill:#2C9984;" d="M357.2,167.2c-8.3,0.2-16.6,1.6-24.9,3.8c0-6.5,0-12.9,0-19.4c8.3-2.4,16.6-3.8,24.9-4.2
		C357.2,154,357.2,160.6,357.2,167.2z"/>
	<path style="fill:#2C9984;" d="M412.9,186.4c-9-6.9-18-11.8-27-14.9c0-6.7,0-13.5,0-20.2c9,3,18,7.7,27,14.5
		C412.9,172.7,412.9,179.6,412.9,186.4z"/>
	<path style="fill:#2C9984;" d="M100.1,341.1c-5.3-3.9-10.7-8.5-16-13.9c0-5.2,0-10.4,0-15.6c5.3,5.3,10.7,9.8,16,13.7
		C100.1,330.5,100.1,335.8,100.1,341.1z"/>
	<path style="fill:#2C9984;" d="M135.6,357.6c-5.7-1.2-11.4-3.1-17.1-5.7c0-5.4,0-10.8,0-16.2c5.7,2.5,11.4,4.3,17.1,5.4
		C135.6,346.7,135.6,352.1,135.6,357.6z"/>
	<path style="fill:#2C9984;" d="M173.6,357.8c-6.1,1.1-12.2,1.7-18.4,1.8c0-5.6,0-11.1,0-16.7c6.1-0.1,12.2-0.9,18.4-2.1
		C173.6,346.5,173.6,352.1,173.6,357.8z"/>
	<path style="fill:#2C9984;" d="M214.5,344.6c-6.6,2.9-13.2,5.5-19.7,7.7c0-5.8,0-11.5,0-17.3c6.6-2.3,13.2-5,19.7-8
		C214.5,332.8,214.5,338.7,214.5,344.6z"/>
	<path style="fill:#2C9984;" d="M258.4,322.9c-7.1,3.6-14.2,7.3-21.2,10.9c0-6,0-12,0-18c7.1-3.7,14.2-7.5,21.2-11.2
		C258.4,310.7,258.4,316.8,258.4,322.9z"/>
	<path style="fill:#2C9984;" d="M305.8,301.1c-7.6,2.8-15.3,6.1-22.9,9.6c0-6.2,0-12.4,0-18.7c7.6-3.7,15.3-7.1,22.9-10
		C305.8,288.5,305.8,294.8,305.8,301.1z"/>
	<path style="fill:#2C9984;" d="M357.2,292.5c-8.3-0.6-16.6,0-24.9,1.4c0-6.5,0-12.9,0-19.4c8.3-1.6,16.6-2.2,24.9-1.8
		C357.2,279.3,357.2,285.9,357.2,292.5z"/>
	<path style="fill:#2C9984;" d="M412.9,317.1c-9-7.8-18-13.5-27-17.5c0-6.7,0-13.5,0-20.2c9,3.8,18,9.4,27,17.1
		C412.9,303.4,412.9,310.2,412.9,317.1z"/>
</g>
<g>
</g>
<g>
</g>
<g>
</g>
<g>
</g>
<g>
</g>
<g>
</g>
<g>
</g>
<g>
</g>
<g>
</g>
<g>
</g>
<g>
</g>
<g>
</g>
<g>
</g>
<g>
</g>
<g>
</g>
</svg>
