<?xml version="1.0" encoding="iso-8859-1"?>
<!-- Generator: Adobe Illustrator 19.0.0, SVG Export Plug-In . SVG Version: 6.00 Build 0)  -->
<svg version="1.1" id="Layer_1" xmlns="http://www.w3.org/2000/svg" xmlns:xlink="http://www.w3.org/1999/xlink" x="0px" y="0px"
	 viewBox="0 0 505 505" style="enable-background:new 0 0 505 505;" xml:space="preserve">
<circle style="fill:#FFD05B;" cx="252.5" cy="252.5" r="252.5"/>
<path style="fill:#324A5E;" d="M386.4,299.4H118.6c-1.9,0-3.4-1.5-3.4-3.4V112.4c0-1.9,1.5-3.4,3.4-3.4h267.9c1.9,0,3.4,1.5,3.4,3.4
	v183.5C389.9,297.8,388.3,299.4,386.4,299.4z"/>
<path style="fill:#FFFFFF;" d="M420.9,379.1H84.1c-6.3,0-8.8-5.1-5.6-11.1l33-61.7c2-3.8,7.6-6.9,12.4-6.9h257.2
	c4.8,0,10.4,3,12.4,6.9l33,61.7C429.7,374,427.3,379.1,420.9,379.1z"/>
<rect x="132" y="129" style="fill:#FF7058;" width="241" height="150.4"/>
<polygon style="fill:#E6E9EE;" points="400.9,352.7 379.5,309.3 125.5,309.3 104.1,352.7 "/>
<g>
	<circle style="fill:#FFFFFF;" cx="252.5" cy="233.4" r="19.1"/>
	<path style="fill:#FFFFFF;" d="M225,206c-1.6,1.6-1.6,4.3,0,6c1.6,1.6,4.3,1.6,6,0c11.9-11.9,31.2-11.9,43,0c1.6,1.6,4.3,1.6,6,0
		c0.8-0.8,1.2-1.9,1.2-3s-0.4-2.2-1.2-3c-7.3-7.3-17.1-11.4-27.5-11.4S232.4,198.6,225,206z"/>
	<path style="fill:#FFFFFF;" d="M210.7,191.7c-1.6,1.6-1.6,4.3,0,6c1.6,1.6,4.3,1.6,6,0c19.7-19.7,51.9-19.7,71.6,0
		c1.6,1.6,4.3,1.6,6,0c0.8-0.8,1.2-1.9,1.2-3s-0.4-2.2-1.2-3C271.2,168.7,233.8,168.7,210.7,191.7z"/>
	<path style="fill:#FFFFFF;" d="M196.7,177.6c-1.6,1.6-1.6,4.3,0,6c1.6,1.6,4.3,1.6,6,0c27.5-27.5,72.3-27.5,99.8,0
		c1.6,1.6,4.3,1.6,6,0c0.8-0.8,1.2-1.9,1.2-3s-0.4-2.2-1.2-3C277.6,146.8,227.4,146.8,196.7,177.6z"/>
</g>
<g>
</g>
<g>
</g>
<g>
</g>
<g>
</g>
<g>
</g>
<g>
</g>
<g>
</g>
<g>
</g>
<g>
</g>
<g>
</g>
<g>
</g>
<g>
</g>
<g>
</g>
<g>
</g>
<g>
</g>
</svg>
