<?xml version="1.0" encoding="iso-8859-1"?>
<!-- Generator: Adobe Illustrator 19.0.0, SVG Export Plug-In . SVG Version: 6.00 Build 0)  -->
<svg version="1.1" id="Layer_1" xmlns="http://www.w3.org/2000/svg" xmlns:xlink="http://www.w3.org/1999/xlink" x="0px" y="0px"
	 viewBox="0 0 505 505" style="enable-background:new 0 0 505 505;" xml:space="preserve">
<circle style="fill:#FFD05B;" cx="252.5" cy="252.5" r="252.5"/>
<path style="fill:#324A5E;" d="M383.4,402.6H121.6c-1.5,0-2.8-1.2-2.8-2.8V219.9c0-1.5,1.2-2.8,2.8-2.8h261.7c1.5,0,2.8,1.2,2.8,2.8
	v179.9C386.1,401.3,384.9,402.6,383.4,402.6z"/>
<g>
	<rect x="135.4" y="237.8" style="fill:#ACB3BA;" width="56.9" height="19.3"/>
	<rect x="206.3" y="237.8" style="fill:#ACB3BA;" width="21.4" height="19.3"/>
	<rect x="241.8" y="237.8" style="fill:#ACB3BA;" width="21.4" height="19.3"/>
	<rect x="277.3" y="237.8" style="fill:#ACB3BA;" width="21.4" height="19.3"/>
	<rect x="312.8" y="237.8" style="fill:#ACB3BA;" width="21.4" height="19.3"/>
	<rect x="348.3" y="237.8" style="fill:#ACB3BA;" width="21.4" height="19.3"/>
	<rect x="135.4" y="270" style="fill:#ACB3BA;" width="21.4" height="19.3"/>
	<rect x="170.9" y="270" style="fill:#ACB3BA;" width="21.4" height="19.3"/>
	<rect x="206.3" y="270" style="fill:#ACB3BA;" width="21.4" height="19.3"/>
	<rect x="241.8" y="270" style="fill:#ACB3BA;" width="21.4" height="19.3"/>
	<rect x="277.3" y="270" style="fill:#ACB3BA;" width="21.4" height="19.3"/>
	<rect x="312.8" y="270" style="fill:#ACB3BA;" width="21.4" height="19.3"/>
	<rect x="348.3" y="270" style="fill:#ACB3BA;" width="21.4" height="19.3"/>
	<rect x="135.4" y="302.2" style="fill:#ACB3BA;" width="21.4" height="19.3"/>
	<rect x="170.9" y="302.2" style="fill:#ACB3BA;" width="21.4" height="19.3"/>
	<rect x="206.3" y="302.2" style="fill:#ACB3BA;" width="21.4" height="19.3"/>
	<rect x="241.8" y="302.2" style="fill:#ACB3BA;" width="56.9" height="19.3"/>
	<rect x="312.8" y="302.2" style="fill:#ACB3BA;" width="21.4" height="19.3"/>
	<rect x="348.3" y="302.2" style="fill:#ACB3BA;" width="21.4" height="19.3"/>
	<rect x="135.4" y="334.4" style="fill:#ACB3BA;" width="21.4" height="19.3"/>
	<rect x="170.9" y="334.4" style="fill:#ACB3BA;" width="92.3" height="19.3"/>
	<rect x="277.3" y="334.4" style="fill:#ACB3BA;" width="21.4" height="19.3"/>
	<rect x="312.8" y="334.4" style="fill:#ACB3BA;" width="21.4" height="19.3"/>
	<rect x="348.3" y="334.4" style="fill:#ACB3BA;" width="21.4" height="19.3"/>
</g>
<path style="fill:#2B3B4E;" d="M381.6,210.3H123.4c-3.9,0-8-3.7-9.3-8.3l-23.6-87.7c-1.8-6.5,0.6-11.9,5.3-11.9h313.4
	c4.7,0,7.1,5.4,5.3,11.9l-23.7,87.6C389.6,206.6,385.5,210.3,381.6,210.3z"/>
<polygon style="fill:#84DBFF;" points="109.4,122.3 128.1,199.8 376.9,199.8 395.6,122.3 "/>
<polygon style="fill:#54C0EB;" points="395.6,122.3 299.5,122.3 195.2,199.8 376.9,199.8 "/>
<g>
</g>
<g>
</g>
<g>
</g>
<g>
</g>
<g>
</g>
<g>
</g>
<g>
</g>
<g>
</g>
<g>
</g>
<g>
</g>
<g>
</g>
<g>
</g>
<g>
</g>
<g>
</g>
<g>
</g>
</svg>
