<?xml version="1.0" encoding="iso-8859-1"?>
<!-- Generator: Adobe Illustrator 19.0.0, SVG Export Plug-In . SVG Version: 6.00 Build 0)  -->
<svg version="1.1" id="Layer_1" xmlns="http://www.w3.org/2000/svg" xmlns:xlink="http://www.w3.org/1999/xlink" x="0px" y="0px"
	 viewBox="0 0 505 505" style="enable-background:new 0 0 505 505;" xml:space="preserve">
<path style="fill:#FF7058;" d="M505,252.5C505,392,392,505,252.5,505S0,392,0,252.5C0,113.1,113,0,252.5,0
	c110.1,0,203.7,70.5,238.3,168.7c7.4,21,12.1,43.3,13.7,66.5C504.8,240.9,505,246.7,505,252.5z"/>
<path style="fill:#F1543F;" d="M37.5,384.9C82,457,161.6,505,252.5,505s170.6-48,215-120.1H37.5z"/>
<path style="fill:#324A5E;" d="M406.2,331.2H103.6c-1.2,0-2.3-1-2.3-2.3V123.4c0-1.2,1-2.3,2.3-2.3h302.6c1.2,0,2.3,1,2.3,2.3V329
	C408.5,330.2,407.5,331.2,406.2,331.2z"/>
<rect x="117.4" y="153.4" style="fill:#54C0EB;" width="274.9" height="156"/>
<circle style="fill:#ACB3BA;" cx="254.9" cy="136" r="7.1"/>
<path style="fill:#324A5E;" d="M432.9,385H72.5c-3.9,0-7-3.1-7-7v-29.2h374.3V378C439.9,381.9,436.8,385,432.9,385z"/>
<circle style="fill:#ACB3BA;" cx="110.8" cy="366.5" r="8.2"/>
<circle style="fill:#2B3B4E;" cx="110.8" cy="366.5" r="3.9"/>
<circle style="fill:#ACB3BA;" cx="134.5" cy="366.5" r="8.2"/>
<circle style="fill:#2B3B4E;" cx="134.5" cy="366.5" r="3.9"/>
<g>
</g>
<g>
</g>
<g>
</g>
<g>
</g>
<g>
</g>
<g>
</g>
<g>
</g>
<g>
</g>
<g>
</g>
<g>
</g>
<g>
</g>
<g>
</g>
<g>
</g>
<g>
</g>
<g>
</g>
</svg>
