<?xml version="1.0" encoding="iso-8859-1"?>
<!-- Generator: Adobe Illustrator 19.0.0, SVG Export Plug-In . SVG Version: 6.00 Build 0)  -->
<svg version="1.1" id="Layer_1" xmlns="http://www.w3.org/2000/svg" xmlns:xlink="http://www.w3.org/1999/xlink" x="0px" y="0px"
	 viewBox="0 0 505 505" style="enable-background:new 0 0 505 505;" xml:space="preserve">
<ellipse style="fill:#F1543F;" cx="252.5" cy="252.5" rx="246.9" ry="252.5"/>
<path style="fill:#E6E9EE;" d="M378.2,283.9H126.8c-1.4,0-2.6-1.2-2.6-2.6V97.6c0-1.4,1.1-2.6,2.6-2.6h251.4c1.4,0,2.6,1.2,2.6,2.6
	v183.7C380.8,282.7,379.6,283.9,378.2,283.9z"/>
<rect x="142.8" y="114" style="fill:#FFFFFF;" width="219.4" height="150.8"/>
<path style="fill:#E6E9EE;" d="M374.6,293.9H130.4c-3.4,0-6.8,1-7.6,2.1l-53.6,79.6c-1.6,2.4,1,4.4,6,4.4h354.6c4.9,0,7.6-2,6-4.4
	L382.2,296C381.4,294.9,378,293.9,374.6,293.9z"/>
<g>
	<polygon style="fill:#CED5E0;" points="386.7,336.1 366.1,300.5 138.9,300.5 118.3,336.1 	"/>
	<polygon style="fill:#CED5E0;" points="250.8,343.9 208.5,343.9 203.7,368.1 250.2,368.1 	"/>
	<polygon style="fill:#CED5E0;" points="296.5,343.9 254.2,343.9 254.8,368.1 301.3,368.1 	"/>
</g>
<polygon style="fill:#84DBFF;" points="199.4,205.3 197.8,207.6 200.3,212 205.1,212 207.7,207.6 206.1,205.3 "/>
<polygon style="fill:#54C0EB;" points="200.3,212 193.8,243.3 202.7,250.5 211.7,243.3 205.1,212 "/>
<g>
	<ellipse style="fill:#324A5E;" cx="202.7" cy="163.5" rx="27.5" ry="24"/>
	<path style="fill:#324A5E;" d="M254.7,264.9v-5.1c0-22.6-13.7-41.8-33.2-49.5l-18.8,37.1l-18.8-37.1c-6.8,2.7-12.9,6.8-17.9,11.9
		c-9.4,9.6-15.2,22.9-15.2,37.6v5.1H254.7z"/>
</g>
<path style="fill:#FFD05B;" d="M229.4,176.7c0,3.3-2.6,6-5.7,6c-3.4,10.4-11.5,17.7-21,17.7s-17.6-7.3-21-17.7
	c-3.2-0.1-5.7-2.8-5.7-6c0-2.6,1.7-4.9,4-5.7c0-1,0.1-2,0.2-3c6.3,1.1,18.5-4.2,28.1-12.2c5.8,5.7,12.6,10.3,16.9,11.2
	c0.2,1.3,0.3,2.6,0.3,4C227.8,171.8,229.4,174.1,229.4,176.7z"/>
<g>
	<rect x="266.1" y="138.3" style="fill:#E6E9EE;" width="80.3" height="13.1"/>
	<rect x="266.1" y="168.1" style="fill:#E6E9EE;" width="80.3" height="13.1"/>
	<rect x="266.1" y="197.8" style="fill:#E6E9EE;" width="80.3" height="13.1"/>
	<rect x="266.1" y="227.5" style="fill:#E6E9EE;" width="46.2" height="13.1"/>
</g>
<g>
</g>
<g>
</g>
<g>
</g>
<g>
</g>
<g>
</g>
<g>
</g>
<g>
</g>
<g>
</g>
<g>
</g>
<g>
</g>
<g>
</g>
<g>
</g>
<g>
</g>
<g>
</g>
<g>
</g>
</svg>
