<?xml version="1.0" encoding="iso-8859-1"?>
<!-- Generator: Adobe Illustrator 19.0.0, SVG Export Plug-In . SVG Version: 6.00 Build 0)  -->
<svg version="1.1" id="Layer_1" xmlns="http://www.w3.org/2000/svg" xmlns:xlink="http://www.w3.org/1999/xlink" x="0px" y="0px"
	 viewBox="0 0 505 505" style="enable-background:new 0 0 505 505;" xml:space="preserve">
<circle style="fill:#324A5E;" cx="252.5" cy="252.5" r="252.5"/>
<g>
	<path style="fill:#E6E9EE;" d="M333.2,412.9c-21.3,0-41.3-8.3-56.3-23.3l-16.7-16.7c-15-15-23.3-35.1-23.3-56.3
		c0-21.3,8.3-41.3,23.3-56.3s35.1-23.3,56.3-23.3c21.3,0,41.3,8.3,56.3,23.3l16.7,16.7c31.1,31.1,31.1,81.6,0,112.7
		C374.5,404.6,354.5,412.9,333.2,412.9z M316.6,272.2c-11.8,0-23,4.6-31.4,13s-13,19.5-13,31.4c0,11.8,4.6,23,13,31.4l16.7,16.7
		c8.4,8.4,19.5,13,31.4,13c11.8,0,23-4.6,31.4-13c17.3-17.3,17.3-45.4,0-62.7L348,285.3C339.5,276.8,328.4,272.2,316.6,272.2z"/>
	<path style="fill:#E6E9EE;" d="M188.4,268.1c-21.3,0-41.3-8.3-56.3-23.3l-16.7-16.7c-31.1-31.1-31.1-81.6,0-112.7
		c15-15,35.1-23.3,56.3-23.3c21.3,0,41.3,8.3,56.3,23.3l16.7,16.7c31.1,31.1,31.1,81.6,0,112.7C229.7,259.8,209.7,268.1,188.4,268.1
		z M171.8,127.4c-11.8,0-23,4.6-31.4,13c-17.3,17.3-17.3,45.4,0,62.7l16.7,16.7c8.4,8.4,19.5,13,31.4,13c11.8,0,23-4.6,31.4-13
		c17.3-17.3,17.3-45.4,0-62.7l-16.7-16.7C194.8,132,183.6,127.4,171.8,127.4z"/>
</g>
<path style="fill:#ACB3BA;" d="M306.7,324.3c-4.5,0-9-1.7-12.5-5.2L185.9,210.8c-6.9-6.9-6.9-18.1,0-25s18.1-6.9,25,0l108.3,108.3
	c6.9,6.9,6.9,18.1,0,25C315.7,322.6,311.2,324.3,306.7,324.3z"/>
<g>
</g>
<g>
</g>
<g>
</g>
<g>
</g>
<g>
</g>
<g>
</g>
<g>
</g>
<g>
</g>
<g>
</g>
<g>
</g>
<g>
</g>
<g>
</g>
<g>
</g>
<g>
</g>
<g>
</g>
</svg>
