<?xml version="1.0" encoding="iso-8859-1"?>
<!-- Generator: Adobe Illustrator 19.0.0, SVG Export Plug-In . SVG Version: 6.00 Build 0)  -->
<svg version="1.1" id="Layer_1" xmlns="http://www.w3.org/2000/svg" xmlns:xlink="http://www.w3.org/1999/xlink" x="0px" y="0px"
	 viewBox="0 0 505 505" style="enable-background:new 0 0 505 505;" xml:space="preserve">
<circle style="fill:#324A5E;" cx="252.5" cy="252.5" r="252.5"/>
<g>
	<polygon style="fill:#84DBFF;" points="273.3,229.3 352.9,248.7 441.5,416.4 295.2,358.7 	"/>
	<polygon style="fill:#84DBFF;" points="289.1,322.5 415.4,367.1 441.5,416.4 295.2,358.7 	"/>
	<path style="fill:#84DBFF;" d="M278.6,260.9l31.2,8.7l3.6,12.1c-6-1-10.9,0.1-10.3,5c0.6,5-10.3,6.9-14.5,9.3
		c-1.2,0.7-2.4,1.4-3.6,2.2L278.6,260.9z"/>
</g>
<g>
	<polygon style="fill:#FFFFFF;" points="285.7,302.4 282.3,282.7 304.2,274.8 279.8,267.7 278,256.9 321,268.7 356.7,255.9 
		364.9,271.4 350.8,277 370.8,282.5 377.9,296.1 334.2,283.4 	"/>
	<polygon style="fill:#FFFFFF;" points="287.7,314.6 409.9,356.6 422.2,380 290.7,332.1 	"/>
</g>
<g>
	<polygon style="fill:#54C0EB;" points="200.3,248.7 273.3,229.3 295.2,358.7 168.4,416.4 	"/>
	<polygon style="fill:#54C0EB;" points="289.1,322.5 295.2,358.7 246,381.1 245.4,340 	"/>
	<path style="fill:#54C0EB;" d="M192.9,287.4l85.8-26.6l6.3,37.4c-3.8,6.2-8.3,13.1-15.1,18c-5.7,4.1-8.9,9.5-9.6,14.3
		c-2.1,0.8-4.2,1.7-6.3,2.5c-4.2,1.7-11,5.5-15.2,6.3c-3.1,0.6-6.9-0.4-10.1-0.1c-2,0.1-3.9,0.6-5.7,1.3l-14.5-34
		c-0.7-0.5-1.4-0.9-2-1.4l1.8-14l-7,2.2c-1.6-2.3-4.7-3.5-9-3L192.9,287.4z"/>
	<path style="fill:#54C0EB;" d="M194.7,277.8c2.9,2.1,5.5,4.4,8.1,6.9l-10,3.1L194.7,277.8z"/>
</g>
<polygon style="fill:#E6E9EE;" points="175.3,380 179.8,356.6 218,341.7 193.8,295.3 191.3,296.1 197.8,261.7 209.8,277.6 
	278,256.9 279.8,267.7 216.3,288.1 242.6,330.2 282.3,282.7 285.7,302.4 271.7,320.8 287.7,314.6 290.7,332.1 253.4,347.6 
	268.1,371.1 239.9,383.9 233.3,371.2 215.1,395.2 172,414.8 214.7,363.7 "/>
<polygon style="fill:#84DBFF;" points="200.3,248.7 168.4,416.4 63.5,358.7 134.5,229.3 "/>
<g>
	<polygon style="fill:#FFFFFF;" points="175.3,380 78.1,332.1 87.7,314.6 179.8,356.6 	"/>
	<polygon style="fill:#FFFFFF;" points="187.2,280.2 176.3,241.6 192.4,246.3 197.8,261.7 191.3,296.1 113.5,267.7 119.4,256.9 	"/>
</g>
<path style="fill:#FF7058;" d="M281.3,170.8c0,98.8-92.8,151.7-92.8,151.7s-92.8-52.8-92.8-151.7c0-51.3,41.6-92.8,92.8-92.8
	S281.3,119.5,281.3,170.8z"/>
<circle style="fill:#FFFFFF;" cx="188.4" cy="170.8" r="52.2"/>
<g>
</g>
<g>
</g>
<g>
</g>
<g>
</g>
<g>
</g>
<g>
</g>
<g>
</g>
<g>
</g>
<g>
</g>
<g>
</g>
<g>
</g>
<g>
</g>
<g>
</g>
<g>
</g>
<g>
</g>
</svg>
