<?xml version="1.0" encoding="iso-8859-1"?>
<!-- Generator: Adobe Illustrator 19.0.0, SVG Export Plug-In . SVG Version: 6.00 Build 0)  -->
<svg version="1.1" id="Layer_1" xmlns="http://www.w3.org/2000/svg" xmlns:xlink="http://www.w3.org/1999/xlink" x="0px" y="0px"
	 viewBox="0 0 505 505" style="enable-background:new 0 0 505 505;" xml:space="preserve">
<circle style="fill:#324A5E;" cx="252.5" cy="252.5" r="252.5"/>
<path style="fill:#E6E9EE;" d="M276.9,392.8c24.9,0,47.1-19.3,54.3-47.7c4-15.6,6.2-32.7,6.2-50.5c0-74.5-38-134.9-84.9-134.9
	s-84.9,60.4-84.9,134.9c0,17.9,2.2,34.9,6.2,50.5c7.2,28.5,29.4,47.7,54.3,47.7H276.9z"/>
<path style="fill:#FF7058;" d="M358,79.1c0,17.9-14.6,32.5-32.5,32.5h-50.4c-7,0-12.7,5.8-12.7,12.8v51.4h-19.7v-51.4
	c0-17.9,14.6-32.5,32.5-32.5h50.3c7,0,12.7-5.7,12.7-12.7c0-7.1-5.7-12.8-12.7-12.8H194.7c-17.9,0-32.5-14.6-32.5-32.5V16.6
	c6.4-2.5,13-4.7,19.7-6.6v23.9c0,7.1,5.8,12.8,12.8,12.8h130.8C343.5,46.6,358,61.1,358,79.1z"/>
<path style="fill:#ACB3BA;" d="M283.5,455.4c31.6,0,59.7-24.4,68.9-60.5c5-19.8,7.8-41.4,7.8-64.1c0-94.5-48.2-171.1-107.7-171.1
	s-107.7,76.6-107.7,171.1c0,22.7,2.8,44.3,7.8,64.1c9.2,36.1,37.3,60.5,68.9,60.5H283.5z"/>
<path style="fill:#E6E9EE;" d="M347.2,310.1c0,19.9-2.4,39-6.9,56.4c-8.1,31.8-32.8,53.2-60.5,53.2h-54.5
	c-27.7,0-52.5-21.5-60.6-53.2c-4.4-17.4-6.8-36.4-6.8-56.4c0-80.3,39.6-146,89.5-150.3c1.7-0.1,3.4-0.2,5.2-0.2
	c1.8,0,3.5,0.1,5.2,0.2C307.6,164.1,347.2,229.8,347.2,310.1z"/>
<path style="fill:#CED5E0;" d="M252.5,296.2c2.9,0,5.2-2.3,5.2-5.2V159.9c-1.7-0.1-3.4-0.2-5.2-0.2c-1.8,0-3.5,0.1-5.2,0.2v131.2
	C247.3,293.9,249.6,296.2,252.5,296.2L252.5,296.2z"/>
<path style="fill:#324A5E;" d="M252.5,273.5L252.5,273.5c-8,0-14.6-6.5-14.6-14.6v-37.5c0-8,6.5-14.6,14.6-14.6l0,0
	c8,0,14.6,6.5,14.6,14.6v37.5C267.1,266.9,260.5,273.5,252.5,273.5z"/>
<g>
</g>
<g>
</g>
<g>
</g>
<g>
</g>
<g>
</g>
<g>
</g>
<g>
</g>
<g>
</g>
<g>
</g>
<g>
</g>
<g>
</g>
<g>
</g>
<g>
</g>
<g>
</g>
<g>
</g>
</svg>
