<?xml version="1.0" encoding="iso-8859-1"?>
<!-- Generator: Adobe Illustrator 19.0.0, SVG Export Plug-In . SVG Version: 6.00 Build 0)  -->
<svg version="1.1" id="Layer_1" xmlns="http://www.w3.org/2000/svg" xmlns:xlink="http://www.w3.org/1999/xlink" x="0px" y="0px"
	 viewBox="0 0 505 505" style="enable-background:new 0 0 505 505;" xml:space="preserve">
<circle style="fill:#54C0EB;" cx="252.5" cy="252.5" r="252.5"/>
<path style="fill:#E6E9EE;" d="M250.5,420c-87.9,0-159.4-71.5-159.4-159.4s71.5-159.4,159.4-159.4s159.4,71.5,159.4,159.4
	S338.4,420,250.5,420z M250.5,132.8c-70.5,0-127.8,57.4-127.8,127.8c0,70.5,57.4,127.8,127.8,127.8c70.5,0,127.8-57.4,127.8-127.8
	C378.4,190.1,321,132.8,250.5,132.8z"/>
<circle style="fill:#FFFFFF;" cx="250.5" cy="123.9" r="54.7"/>
<circle style="fill:#FF7058;" cx="250.5" cy="123.9" r="32.3"/>
<circle style="fill:#FFFFFF;" cx="376.1" cy="338.4" r="54.7"/>
<circle style="fill:#FF7058;" cx="376.1" cy="338.4" r="32.3"/>
<circle style="fill:#FFFFFF;" cx="128.9" cy="335.3" r="54.7"/>
<circle style="fill:#FF7058;" cx="128.9" cy="335.3" r="32.3"/>
<g>
</g>
<g>
</g>
<g>
</g>
<g>
</g>
<g>
</g>
<g>
</g>
<g>
</g>
<g>
</g>
<g>
</g>
<g>
</g>
<g>
</g>
<g>
</g>
<g>
</g>
<g>
</g>
<g>
</g>
</svg>
