<?xml version="1.0" encoding="iso-8859-1"?>
<!-- Generator: Adobe Illustrator 19.0.0, SVG Export Plug-In . SVG Version: 6.00 Build 0)  -->
<svg version="1.1" id="Layer_1" xmlns="http://www.w3.org/2000/svg" xmlns:xlink="http://www.w3.org/1999/xlink" x="0px" y="0px"
	 viewBox="0 0 505 505" style="enable-background:new 0 0 505 505;" xml:space="preserve">
<circle style="fill:#90DFAA;" cx="252.5" cy="252.5" r="252.5"/>
<rect x="98.1" y="105.4" style="fill:#FFFFFF;" width="308.9" height="294.2"/>
<g>
	<rect x="98.1" y="172.4" style="fill:#FF7058;" width="308.9" height="3"/>
	<rect x="98.1" y="178.2" style="fill:#FF7058;" width="308.9" height="3"/>
</g>
<g>
	<rect x="98.1" y="212.2" style="fill:#E6E9EE;" width="308.9" height="3"/>
	<rect x="98.1" y="243.2" style="fill:#E6E9EE;" width="308.9" height="3"/>
	<rect x="98.1" y="274.2" style="fill:#E6E9EE;" width="308.9" height="3"/>
	<rect x="98.1" y="305.2" style="fill:#E6E9EE;" width="308.9" height="3"/>
	<rect x="98.1" y="336.3" style="fill:#E6E9EE;" width="308.9" height="3"/>
	<rect x="98.1" y="367.3" style="fill:#E6E9EE;" width="308.9" height="3"/>
</g>
<g>
	<path style="fill:#54C0EB;" d="M208.3,128.3h5.7v25.6h-5.7l-12.2-16v16h-5.7v-25.6h5.4l12.6,16.5v-16.5H208.3z"/>
	<path style="fill:#54C0EB;" d="M241.9,150.4c-2.6,2.5-5.8,3.8-9.6,3.8s-7-1.3-9.6-3.8s-3.9-5.7-3.9-9.4s1.3-6.9,3.9-9.4
		c2.6-2.5,5.8-3.8,9.6-3.8s7,1.3,9.6,3.8s3.9,5.7,3.9,9.4S244.4,147.9,241.9,150.4z M239.9,141c0-2.3-0.7-4.2-2.2-5.8
		s-3.3-2.4-5.4-2.4c-2.1,0-3.9,0.8-5.4,2.4c-1.5,1.6-2.2,3.6-2.2,5.8c0,2.3,0.7,4.2,2.2,5.8s3.3,2.4,5.4,2.4c2.1,0,3.9-0.8,5.4-2.4
		C239.2,145.2,239.9,143.3,239.9,141z"/>
	<path style="fill:#54C0EB;" d="M260.7,133.3V154H255v-20.7h-7.3v-4.9h20.2v4.9H260.7z"/>
	<path style="fill:#54C0EB;" d="M290.6,128.3v5.1h-12.8v5.3h11.5v4.9h-11.5v5.3H291v5.1h-18.9v-25.6h18.5V128.3z"/>
	<path style="fill:#54C0EB;" d="M302.1,133.4c-0.5,0.5-0.8,1-0.8,1.8c0,0.7,0.3,1.3,1,1.8c0.7,0.4,2.2,1,4.7,1.6
		c2.4,0.6,4.3,1.5,5.7,2.7c1.3,1.2,2,2.9,2,5.2s-0.9,4.2-2.6,5.6c-1.7,1.4-4,2.1-6.8,2.1c-4.1,0-7.7-1.5-11-4.5l3.4-4.2
		c2.8,2.4,5.3,3.6,7.7,3.6c1,0,1.9-0.2,2.5-0.7s0.9-1.1,0.9-1.8s-0.3-1.4-1-1.8c-0.6-0.5-1.9-0.9-3.8-1.4c-3-0.7-5.2-1.6-6.5-2.8
		c-1.4-1.1-2.1-2.9-2.1-5.3s0.9-4.3,2.6-5.6s3.9-2,6.5-2c1.7,0,3.4,0.3,5.1,0.9c1.7,0.6,3.2,1.4,4.5,2.5l-2.9,4.2
		c-2.2-1.7-4.5-2.5-6.9-2.5C303.4,132.8,302.7,133,302.1,133.4z"/>
</g>
<g>
</g>
<g>
</g>
<g>
</g>
<g>
</g>
<g>
</g>
<g>
</g>
<g>
</g>
<g>
</g>
<g>
</g>
<g>
</g>
<g>
</g>
<g>
</g>
<g>
</g>
<g>
</g>
<g>
</g>
</svg>
