<?xml version="1.0" encoding="iso-8859-1"?>
<!-- Generator: Adobe Illustrator 19.0.0, SVG Export Plug-In . SVG Version: 6.00 Build 0)  -->
<svg version="1.1" id="Layer_1" xmlns="http://www.w3.org/2000/svg" xmlns:xlink="http://www.w3.org/1999/xlink" x="0px" y="0px"
	 viewBox="0 0 505 505" style="enable-background:new 0 0 505 505;" xml:space="preserve">
<circle style="fill:#90DFAA;" cx="252.5" cy="252.5" r="252.5"/>
<g>
	<polygon style="fill:#324A5E;" points="98,312.9 133.6,312.9 127.3,344.6 104.3,344.6 	"/>
	<polygon style="fill:#324A5E;" points="371.4,312.9 407,312.9 400.7,344.6 377.7,344.6 	"/>
</g>
<path style="fill:#E6E9EE;" d="M72.2,318.5h360.6c2,0,3.7-1.6,3.7-3.7V172.5c0-2-1.6-3.7-3.7-3.7H72.2c-2,0-3.7,1.6-3.7,3.7v142.4
	C68.5,316.9,70.2,318.5,72.2,318.5z"/>
<circle style="fill:#ACB3BA;" cx="324.5" cy="243.7" r="83.3"/>
<circle style="fill:#324A5E;" cx="324.5" cy="243.7" r="57.2"/>
<circle style="fill:#2B3B4E;" cx="324.5" cy="243.7" r="27"/>
<circle style="fill:#FFFFFF;" cx="343.2" cy="225.7" r="13.3"/>
<path style="fill:#4CDBC4;" d="M122.7,240.7L122.7,240.7c8.8,0,15.9-7.1,15.9-15.9l0,0c0-8.8-7.1-15.9-15.9-15.9l0,0
	c-8.8,0-15.9,7.1-15.9,15.9l0,0C106.9,233.6,114,240.7,122.7,240.7z"/>
<path style="fill:#FF7058;" d="M122.7,289.7L122.7,289.7c8.8,0,15.9-7.1,15.9-15.9l0,0c0-8.8-7.1-15.9-15.9-15.9l0,0
	c-8.8,0-15.9,7.1-15.9,15.9l0,0C106.9,282.6,114,289.7,122.7,289.7z"/>
<g>
</g>
<g>
</g>
<g>
</g>
<g>
</g>
<g>
</g>
<g>
</g>
<g>
</g>
<g>
</g>
<g>
</g>
<g>
</g>
<g>
</g>
<g>
</g>
<g>
</g>
<g>
</g>
<g>
</g>
</svg>
