<?xml version="1.0" encoding="iso-8859-1"?>
<!-- Generator: Adobe Illustrator 19.0.0, SVG Export Plug-In . SVG Version: 6.00 Build 0)  -->
<svg version="1.1" id="Layer_1" xmlns="http://www.w3.org/2000/svg" xmlns:xlink="http://www.w3.org/1999/xlink" x="0px" y="0px"
	 viewBox="0 0 505 505" style="enable-background:new 0 0 505 505;" xml:space="preserve">
<circle style="fill:#324A5E;" cx="252.5" cy="252.5" r="252.5"/>
<circle style="fill:#FFFFFF;" cx="252.5" cy="95.2" r="20.2"/>
<path style="fill:#CED5E0;" d="M289.8,430h-74.7c-17.7,0-32.3-13.6-33.7-31.2l-21.1-272.1c-1.8-22.9,16.3-42.5,39.3-42.5h105.6
	c23,0,41.1,19.6,39.3,42.5l-21,272.1C322.2,416.4,307.5,430,289.8,430z"/>
<g>
	<path style="fill:#54C0EB;" d="M230,340.4l-17-17c-7.1,8.7-11.3,19.8-11.3,31.9s4.2,23.2,11.3,31.9l17-17c-2.8-4.3-4.5-9.4-4.5-15
		S227.1,344.7,230,340.4z M252.5,304.6c-12.1,0-23.2,4.2-31.9,11.3l17,17c4.3-2.8,9.4-4.5,15-4.5c5.5,0,10.7,1.7,15,4.5l17-17
		C275.7,308.8,264.6,304.6,252.5,304.6z M292,323.4l-17,17c2.8,4.3,4.5,9.4,4.5,15s-1.7,10.7-4.5,15l17,17
		c7.1-8.7,11.3-19.8,11.3-31.9C303.3,343.2,299.1,332.1,292,323.4z M252.5,382.4c-5.5,0-10.7-1.7-15-4.5l-17,17
		c8.7,7.1,19.8,11.3,31.9,11.3c12.1,0,23.2-4.2,31.9-11.3l-17-17C263.2,380.7,258,382.4,252.5,382.4z"/>
	<circle style="fill:#54C0EB;" cx="252.5" cy="355.4" r="16.6"/>
</g>
<circle style="fill:#FF7058;" cx="198.2" cy="124.7" r="15.2"/>
<g>
	<circle style="fill:#ACB3BA;" cx="206.4" cy="175.2" r="14.8"/>
	<circle style="fill:#ACB3BA;" cx="252.5" cy="175.2" r="14.8"/>
	<circle style="fill:#ACB3BA;" cx="298.6" cy="175.2" r="14.8"/>
	<circle style="fill:#ACB3BA;" cx="206.4" cy="217.2" r="14.8"/>
	<circle style="fill:#ACB3BA;" cx="252.5" cy="217.2" r="14.8"/>
	<circle style="fill:#ACB3BA;" cx="298.6" cy="217.2" r="14.8"/>
	<circle style="fill:#ACB3BA;" cx="206.4" cy="259.2" r="14.8"/>
	<circle style="fill:#ACB3BA;" cx="252.5" cy="259.2" r="14.8"/>
	<circle style="fill:#ACB3BA;" cx="298.6" cy="259.2" r="14.8"/>
</g>
<g>
</g>
<g>
</g>
<g>
</g>
<g>
</g>
<g>
</g>
<g>
</g>
<g>
</g>
<g>
</g>
<g>
</g>
<g>
</g>
<g>
</g>
<g>
</g>
<g>
</g>
<g>
</g>
<g>
</g>
</svg>
