<?xml version="1.0" encoding="iso-8859-1"?>
<!-- Generator: Adobe Illustrator 19.0.0, SVG Export Plug-In . SVG Version: 6.00 Build 0)  -->
<svg version="1.1" id="Layer_1" xmlns="http://www.w3.org/2000/svg" xmlns:xlink="http://www.w3.org/1999/xlink" x="0px" y="0px"
	 viewBox="0 0 505 505" style="enable-background:new 0 0 505 505;" xml:space="preserve">
<circle style="fill:#FD8469;" cx="252.5" cy="252.5" r="252.5"/>
<path style="fill:#FFFFFF;" d="M259.3,435.8H129.8c-2.8,0-5.3-1.6-6.6-4.1c-1.3-2.5-1-5.5,0.6-7.7l64.7-89c1.4-1.9,3.6-3.1,6-3.1
	s4.6,1.1,6,3.1l64.7,89c1.6,2.3,1.9,5.2,0.6,7.7C264.6,434.2,262.1,435.8,259.3,435.8z M144.4,420.9h100.3l-50.2-69L144.4,420.9z"/>
<circle style="fill:#4CDBC4;" cx="204.1" cy="310.9" r="44.3"/>
<path style="fill:#FFFFFF;" d="M199,170.1l116.7,116.7l53.6-170.3L199,170.1z M331.8,143.6l-69.3,69.3l-36.1-36.1L331.8,143.6z
	 M308.9,259.4l-36.1-36.1l69.4-69.4L308.9,259.4z"/>
<g>
	<path style="fill:#324A5E;" d="M151.1,82.1c-37,70.6-25.9,159.8,33.4,219.1s148.5,70.4,219.1,33.4L151.1,82.1z"/>
	<circle style="fill:#324A5E;" cx="358.1" cy="127.6" r="24.8"/>
</g>
<g>
</g>
<g>
</g>
<g>
</g>
<g>
</g>
<g>
</g>
<g>
</g>
<g>
</g>
<g>
</g>
<g>
</g>
<g>
</g>
<g>
</g>
<g>
</g>
<g>
</g>
<g>
</g>
<g>
</g>
</svg>
