<?xml version="1.0" encoding="iso-8859-1"?>
<!-- Generator: Adobe Illustrator 19.0.0, SVG Export Plug-In . SVG Version: 6.00 Build 0)  -->
<svg version="1.1" id="Layer_1" xmlns="http://www.w3.org/2000/svg" xmlns:xlink="http://www.w3.org/1999/xlink" x="0px" y="0px"
	 viewBox="0 0 505 505" style="enable-background:new 0 0 505 505;" xml:space="preserve">
<circle style="fill:#FD8469;" cx="252.5" cy="252.5" r="252.5"/>
<path style="fill:#324A5E;" d="M377.2,432.5H127.8c-2,0-3.6-1.6-3.6-3.6V76.1c0-2,1.6-3.6,3.6-3.6h249.4c2,0,3.6,1.6,3.6,3.6v352.8
	C380.8,430.9,379.2,432.5,377.2,432.5z"/>
<rect x="147.3" y="117.9" style="fill:#84DBFF;" width="210.3" height="259.1"/>
<circle style="fill:#ACB3BA;" cx="252.5" cy="403.4" r="14.7"/>
<path style="fill:#FFFFFF;" d="M344.1,151.2c-58.7,0-106.3,36.7-106.3,82c0,17.4,7.1,33.6,19.1,46.9l-12.4,47.7l44.2-24.5
	c16.1,7.6,35.1,12,55.3,12c58.7,0,106.3-36.7,106.3-82C450.4,187.9,402.8,151.2,344.1,151.2z"/>
<g>
	<path style="fill:#ACB3BA;" d="M288.9,101.2h-43.4c-2.7,0-4.8-2.2-4.8-4.8l0,0c0-2.7,2.2-4.8,4.8-4.8h43.4c2.7,0,4.8,2.2,4.8,4.8
		l0,0C293.7,99.1,291.5,101.2,288.9,101.2z"/>
	<path style="fill:#ACB3BA;" d="M227.7,101.2h-11.6c-2.7,0-4.8-2.2-4.8-4.8l0,0c0-2.7,2.2-4.8,4.8-4.8h11.6c2.7,0,4.8,2.2,4.8,4.8
		l0,0C232.5,99.1,230.3,101.2,227.7,101.2z"/>
</g>
<g>
	<path style="fill:#2C9984;" d="M282.9,218.6c-1.1,0.9-1.6,2-1.6,3.5c0,1.4,0.7,2.6,2,3.4c1.3,0.9,4.3,1.9,9,3
		c4.7,1.2,8.4,2.9,11,5.2s3.9,5.7,3.9,10.2s-1.7,8.1-5,10.8c-3.3,2.8-7.7,4.2-13.2,4.2c-7.9,0-15-2.9-21.3-8.7l6.6-8.1
		c5.4,4.7,10.3,7,14.9,7c2,0,3.6-0.4,4.8-1.3c1.2-0.9,1.7-2.1,1.7-3.6s-0.6-2.7-1.8-3.6c-1.2-0.9-3.7-1.8-7.3-2.7
		c-5.8-1.4-10-3.2-12.7-5.4s-4-5.7-4-10.4s1.7-8.4,5.1-10.9c3.4-2.6,7.6-3.8,12.7-3.8c3.3,0,6.6,0.6,10,1.7c3.3,1.1,6.2,2.7,8.7,4.8
		l-5.6,8.1c-4.3-3.3-8.8-4.9-13.4-4.9C285.5,217.3,284,217.7,282.9,218.6z"/>
	<path style="fill:#2C9984;" d="M361.2,227.1l-13.4,27.2h-6.6l-13.4-27.2v31.3h-11.1v-49.7h15l12.8,27.3l12.9-27.3h14.9v49.7h-11.1
		L361.2,227.1L361.2,227.1z"/>
	<path style="fill:#2C9984;" d="M396.2,218.6c-1.1,0.9-1.6,2-1.6,3.5c0,1.4,0.7,2.6,2,3.4c1.3,0.9,4.3,1.9,9,3
		c4.7,1.2,8.4,2.9,11,5.2s3.9,5.7,3.9,10.2s-1.7,8.1-5,10.8c-3.3,2.8-7.7,4.2-13.2,4.2c-7.9,0-15-2.9-21.3-8.7l6.6-8.1
		c5.4,4.7,10.3,7,14.9,7c2,0,3.6-0.4,4.8-1.3c1.2-0.9,1.7-2.1,1.7-3.6s-0.6-2.7-1.8-3.6c-1.2-0.9-3.7-1.8-7.3-2.7
		c-5.8-1.4-10-3.2-12.7-5.4s-4-5.7-4-10.4s1.7-8.4,5.1-10.9c3.4-2.6,7.6-3.8,12.7-3.8c3.3,0,6.6,0.6,10,1.7c3.3,1.1,6.2,2.7,8.7,4.8
		l-5.6,8.1c-4.3-3.3-8.8-4.9-13.4-4.9C398.7,217.3,397.2,217.7,396.2,218.6z"/>
</g>
<g>
</g>
<g>
</g>
<g>
</g>
<g>
</g>
<g>
</g>
<g>
</g>
<g>
</g>
<g>
</g>
<g>
</g>
<g>
</g>
<g>
</g>
<g>
</g>
<g>
</g>
<g>
</g>
<g>
</g>
</svg>
