<?xml version="1.0" encoding="iso-8859-1"?>
<!-- Generator: Adobe Illustrator 19.0.0, SVG Export Plug-In . SVG Version: 6.00 Build 0)  -->
<svg version="1.1" id="Layer_1" xmlns="http://www.w3.org/2000/svg" xmlns:xlink="http://www.w3.org/1999/xlink" x="0px" y="0px"
	 viewBox="0 0 505 505" style="enable-background:new 0 0 505 505;" xml:space="preserve">
<circle style="fill:#90DFAA;" cx="252.5" cy="252.5" r="252.5"/>
<path style="fill:#324A5E;" d="M427.3,357H77.7c-2.3,0-4.2-1.9-4.2-4.2V152.2c0-2.3,1.9-4.2,4.2-4.2h349.5c2.3,0,4.2,1.9,4.2,4.2
	v200.6C431.4,355.1,429.6,357,427.3,357z"/>
<rect x="105.5" y="173.8" style="fill:#FFFFFF;" width="266.5" height="157.5"/>
<rect x="105.5" y="173.8" style="fill:#FF7058;" width="266.5" height="24.4"/>
<g>
	<path style="fill:#ACB3BA;" d="M91.3,262.4L91.3,262.4c-2.2,0-4-1.8-4-4v-35.9c0-2.2,1.8-4,4-4l0,0c2.2,0,4,1.8,4,4v35.9
		C95.3,260.6,93.5,262.4,91.3,262.4z"/>
	<path style="fill:#ACB3BA;" d="M91.3,286.5L91.3,286.5c-2.2,0-4-1.8-4-4v-8.7c0-2.2,1.8-4,4-4l0,0c2.2,0,4,1.8,4,4v8.7
		C95.3,284.7,93.5,286.5,91.3,286.5z"/>
	<circle style="fill:#ACB3BA;" cx="400.6" cy="252.5" r="16.5"/>
</g>
<path style="fill:#CED5E0;" d="M343.8,212.6H173.1c-3.7,0-6.8,3-6.8,6.8v19c0,3.7,3,6.8,6.8,6.8H189v13.3l21.5-13.3h133.3
	c3.7,0,6.8-3,6.8-6.8v-19C350.6,215.6,347.5,212.6,343.8,212.6z"/>
<circle style="fill:#84DBFF;" cx="137.4" cy="230.4" r="17.8"/>
<path style="fill:#CED5E0;" d="M126.3,272.6H297c3.7,0,6.8,3,6.8,6.8v19c0,3.7-3,6.8-6.8,6.8h-15.9v13.3l-21.5-13.3H126.3
	c-3.7,0-6.8-3-6.8-6.8v-19C119.5,275.6,122.5,272.6,126.3,272.6z"/>
<circle style="fill:#84DBFF;" cx="332.7" cy="290.4" r="17.8"/>
<g>
</g>
<g>
</g>
<g>
</g>
<g>
</g>
<g>
</g>
<g>
</g>
<g>
</g>
<g>
</g>
<g>
</g>
<g>
</g>
<g>
</g>
<g>
</g>
<g>
</g>
<g>
</g>
<g>
</g>
</svg>
