<?xml version="1.0" encoding="iso-8859-1"?>
<!-- Generator: Adobe Illustrator 19.0.0, SVG Export Plug-In . SVG Version: 6.00 Build 0)  -->
<svg version="1.1" id="Layer_1" xmlns="http://www.w3.org/2000/svg" xmlns:xlink="http://www.w3.org/1999/xlink" x="0px" y="0px"
	 viewBox="0 0 505 505" style="enable-background:new 0 0 505 505;" xml:space="preserve">
<circle style="fill:#FD8469;" cx="252.5" cy="252.5" r="252.5"/>
<g>
	<path style="fill:#2B3B4E;" d="M344.2,417.6h-31.3v23.1c0,1,0.8,1.8,1.8,1.8h27.6c1,0,1.8-0.8,1.8-1.8v-23.1H344.2z"/>
	<path style="fill:#2B3B4E;" d="M192.1,417.6h-31.3v23.1c0,1,0.8,1.8,1.8,1.8h27.6c1,0,1.8-0.8,1.8-1.8v-23.1H192.1z"/>
</g>
<path style="fill:#324A5E;" d="M360.2,426.9H144.8c-2.2,0-4.1-1.8-4.1-4.1V94.4c0-2.2,1.8-4.1,4.1-4.1h215.4c2.2,0,4.1,1.8,4.1,4.1
	v328.5C364.3,425.1,362.4,426.9,360.2,426.9z"/>
<g>
	<path style="fill:#FFFFFF;" d="M177.7,279.2L177.7,279.2c-4.4-4.4-4.4-11.5,0-15.8l133.8-133.7c4.4-4.4,11.5-4.4,15.8,0l0,0
		c4.4,4.4,4.4,11.5,0,15.8L193.5,279.2C189.2,283.6,182.1,283.6,177.7,279.2z"/>
	<path style="fill:#FFFFFF;" d="M177.7,129.7L177.7,129.7c-4.4,4.4-4.4,11.5,0,15.8l133.8,133.7c4.4,4.4,11.5,4.4,15.8,0l0,0
		c4.4-4.4,4.4-11.5,0-15.8L193.5,129.7C189.2,125.3,182.1,125.3,177.7,129.7z"/>
	<circle style="fill:#FFFFFF;" cx="252.5" cy="204.4" r="87.5"/>
</g>
<circle style="fill:#ACB3BA;" cx="252.5" cy="204.4" r="71.4"/>
<circle style="fill:#324A5E;" cx="252.5" cy="204.4" r="30.9"/>
<circle style="fill:#FFFFFF;" cx="252.5" cy="353.9" r="46.4"/>
<circle style="fill:#ACB3BA;" cx="252.5" cy="353.9" r="37.9"/>
<circle style="fill:#324A5E;" cx="252.5" cy="353.9" r="16.4"/>
<g>
</g>
<g>
</g>
<g>
</g>
<g>
</g>
<g>
</g>
<g>
</g>
<g>
</g>
<g>
</g>
<g>
</g>
<g>
</g>
<g>
</g>
<g>
</g>
<g>
</g>
<g>
</g>
<g>
</g>
</svg>
