<?xml version="1.0" encoding="iso-8859-1"?>
<!-- Generator: Adobe Illustrator 19.0.0, SVG Export Plug-In . SVG Version: 6.00 Build 0)  -->
<svg version="1.1" id="Layer_1" xmlns="http://www.w3.org/2000/svg" xmlns:xlink="http://www.w3.org/1999/xlink" x="0px" y="0px"
	 viewBox="0 0 505 505" style="enable-background:new 0 0 505 505;" xml:space="preserve">
<circle style="fill:#324A5E;" cx="252.5" cy="252.5" r="252.5"/>
<path style="fill:#FFFFFF;" d="M373,418H132c-3.1,0-5.5-2.5-5.5-5.5v-320c0-3.1,2.5-5.5,5.5-5.5h241.1c3.1,0,5.5,2.5,5.5,5.5v320
	C378.6,415.5,376.1,418,373,418z"/>
<rect x="152.4" y="134.3" style="fill:#54C0EB;" width="200.2" height="223.9"/>
<g>
	<circle style="fill:#CED5E0;" cx="257.5" cy="387.5" r="17.6"/>
	<path style="fill:#CED5E0;" d="M290.3,117.1h-47.6c-3.7,0-6.7-3-6.7-6.7l0,0c0-3.7,3-6.7,6.7-6.7h47.6c3.7,0,6.7,3,6.7,6.7l0,0
		C297,114.1,294,117.1,290.3,117.1z"/>
	<path style="fill:#CED5E0;" d="M219.8,117.1h-5.1c-3.7,0-6.7-3-6.7-6.7l0,0c0-3.7,3-6.7,6.7-6.7h5.1c3.7,0,6.7,3,6.7,6.7l0,0
		C226.5,114.1,223.5,117.1,219.8,117.1z"/>
</g>
<path style="fill:#F9B54C;" d="M271.2,291.6c0-0.6,0.1-1.3,0-1.9c-0.1-2.8,1.2-5.2,3.3-6.6c-6.5-10-11.9-25.4-11.9-25.4h-20.8
	c0,0-8.2,23.8-16.4,31.4l26.4,8.4v0.4l0.6-0.2l0.6,0.2v-0.4L271.2,291.6z"/>
<path style="fill:#E6E9EE;" d="M273.7,358.3l11.5-19l-7-51.4l-26,2.2l-24.1-2.4l-1.3,0.2c0,0-11.3,23.2-12.1,25.4
	c-0.8,2,7.2,36.7,8.6,45L273.7,358.3L273.7,358.3z"/>
<polygon style="fill:#F1543F;" points="256.5,304.4 247.9,304.4 242.2,290.1 262.1,290.1 "/>
<polygon style="fill:#FF7058;" points="256.5,304.4 247.9,304.4 242.2,341 252.2,354.2 262.1,341 "/>
<g>
	<path style="fill:#FFFFFF;" d="M271.6,278c0,0,14.7,12.4-7.2,26.2l-12.3-13.8L271.6,278z"/>
	<path style="fill:#FFFFFF;" d="M232.8,278c0,0-14.7,12.4,7.2,26.2l12.3-13.8L232.8,278z"/>
</g>
<path style="fill:#324A5E;" d="M200.5,358.3c0-0.2,0.1-0.4,0.1-0.5c1.6-6.8,2.9-11,2.9-11l-15.2-34.7c0-0.1-0.1-0.2-0.1-0.3l-5-11.3
	c0-0.1-0.1-0.1-0.1-0.1c-8.4,18.8-13.3,38.6-15.8,57.9H200.5z"/>
<path style="fill:#2B3B4E;" d="M188.2,311.8c0,0.1,0.1,0.2,0.1,0.3c3.8,9.7,8.8,25.3,12.3,45.7c0,0.2,0.1,0.4,0.1,0.5h41.7l-3-4
	L224,307.7l2.9-19.8l3.5-7l0,0c-0.6,0.6-6.1,6.1-16.3,11.2c-7.7,3.9-18.1,7.4-30.9,8.3c0,0,0,0,0.1,0.1
	C183.6,301.2,185.5,305.1,188.2,311.8z"/>
<path style="fill:#324A5E;" d="M238.1,358.3h8.8c-21.4-45.8-16.6-77.4-16.6-77.4l-16.9,11.6l10.5,2l-10.5,4.4
	C221,327.1,230.1,345.9,238.1,358.3z"/>
<path style="fill:#2B3B4E;" d="M304.5,358.3h33.2c-2.6-19.3-7.4-39.1-15.8-57.9c0,0,0,0-0.1,0.1l-4.9,11.2l-0.1,0.1l-15.3,35
	c0,0,1.2,4.1,2.9,11C304.5,357.9,304.5,358.1,304.5,358.3z"/>
<path style="fill:#324A5E;" d="M265.7,354.2l-3,4h41.7c0-0.2,0-0.3,0.1-0.5c3.5-20.6,8.7-36.2,12.4-46c0-0.1,0-0.1,0.1-0.1
	c2.6-6.7,4.5-10.5,4.9-11.2c0-0.1,0.1-0.1,0.1-0.1c-12.8-0.9-23.2-4.4-30.9-8.3c-10.1-5-15.7-10.6-16.2-11.2l0,0l3.5,7l2.9,19.8
	l-0.1,0.4L265.7,354.2z"/>
<path style="fill:#2B3B4E;" d="M258.1,358.3h8.8c8.1-12.4,17.2-31.1,24.7-59.4l-10.5-4.4l10.5-2l-16.9-11.7
	C274.7,280.8,279.5,312.4,258.1,358.3z"/>
<g>
	<path style="fill:#F9B54C;" d="M284.7,235.2c-0.4,5-2.2,9.1-4.1,9.1s-3-4.1-2.5-9.1c0.4-5,2.2-9.1,4.1-9.1S285.1,230.2,284.7,235.2
		z"/>
	<path style="fill:#F9B54C;" d="M220.3,235.2c0.4,5,2.2,9.1,4.1,9.1c1.8,0,3-4.1,2.5-9.1c-0.4-5-2.2-9.1-4.1-9.1
		C221,226.1,219.9,230.2,220.3,235.2z"/>
</g>
<path style="fill:#FFD05B;" d="M275,206.6c-1.7-3.7-5.5-6.1-9.7-6.1h-12.6h-12.6c-4.2,0-8,2.4-9.7,6.1c-4.1,8.9-4.9,24.4-4.9,34.9
	c0,7,2.7,13.7,7.6,18.9l3.9,4.2c3.6,3.9,8.3,6.7,13.5,8.2l2.2,0.6l2.2-0.6c5.2-1.5,9.9-4.3,13.5-8.2l3.9-4.2
	c4.9-5.2,7.6-11.9,7.6-18.9C279.9,230.9,279.1,215.5,275,206.6z"/>
<path style="fill:#11110F;" d="M283.1,197.8c-0.4-1.5-1.1-2.9-1.5-4.4c-0.3-1-0.5-2-1-2.9c-1.1-2-3.4-3-5.6-2.8s-4.2,1.5-5.7,3.1
	c0.4-2.1,0.4-4.4-0.6-6.2c-1.2-2.1-3.6-3.3-5.9-3.7s-4.8-0.3-7.1-0.5c-2.6-0.2-5.3-0.9-7.9-0.7c-2.2,0.2-4.1,1.4-6.3,1.9
	c-22.4,5.1-20.6,31.7-20.3,38.8c0.1,1.9,0.2,3.8,0.8,5.6c0.8,2.3,2.3,4.3,3.9,6.1c0.4-1.3,0.4-2.7,0.7-4c0.4-1.9,0.7-3.9,1.2-5.9
	c0.5-1.9,2.7-11.7,3.6-13.7c1.2-2.7,3.4-5.1,6.2-5.8c5.4-1.4,10.8,3.4,16.2,2.5c1-0.2,2-0.5,3-0.9c1.1-0.4,2.3-0.8,3.4-1.1
	c2.6-0.7,5.3-1.3,7.9-0.6c2.8,0.8,5.1,3.1,6.5,5.7c1.4,2.6,2.1,5.6,2.8,8.5c0.4,1.7,0.7,3.5,0.6,5.3c0,0.1,0,0.3,0,0.4
	c0.1,1.4,0,2.9,0.2,4.3c0.2,1.1,0.5,2.2,0.8,3.3c0.1,0.5,0.2,1,0.3,1.5c1.9-3.5,3.3-7.3,4-11.2c0.6-3.2,0.7-6.4,0.9-9.7
	C284.2,206.4,284.4,202,283.1,197.8z"/>
<g>
</g>
<g>
</g>
<g>
</g>
<g>
</g>
<g>
</g>
<g>
</g>
<g>
</g>
<g>
</g>
<g>
</g>
<g>
</g>
<g>
</g>
<g>
</g>
<g>
</g>
<g>
</g>
<g>
</g>
</svg>
