<?xml version="1.0" encoding="iso-8859-1"?>
<!-- Generator: Adobe Illustrator 19.0.0, SVG Export Plug-In . SVG Version: 6.00 Build 0)  -->
<svg version="1.1" id="Layer_1" xmlns="http://www.w3.org/2000/svg" xmlns:xlink="http://www.w3.org/1999/xlink" x="0px" y="0px"
	 viewBox="0 0 505 505" style="enable-background:new 0 0 505 505;" xml:space="preserve">
<circle style="fill:#90DFAA;" cx="252.5" cy="252.5" r="252.5"/>
<g>
	<path style="fill:#F9B54C;" d="M84.2,350.7c-3,5.9-5.8,12.2-5.9,18.9c-0.2,6.6,2.7,13.7,8.5,16.9c3.4,1.8,7.3,2.2,11.1,2
		c7.7-0.5,15.4-3.4,21.1-8.6c1.8-1.6,3.3-3.3,4.9-5.1c1.3-1.4,2.6-2.9,3.3-4.6s0.9-3.6,0.9-5.5c0.1-5.2-0.4-10.3-1.6-15.4
		c-0.7-3-1.8-6.2-4.1-8.3c-3.2-2.9-8-2.9-12.4-2.8c-5.2,0.1-10.5,0.2-15.4,2c-1.9,0.7-3.7,1.6-5.2,2.9
		C87.2,345.1,85.7,347.9,84.2,350.7z"/>
	<path style="fill:#F9B54C;" d="M420.8,350.7c3,5.9,5.8,12.2,5.9,18.9c0.2,6.6-2.7,13.7-8.5,16.9c-3.4,1.8-7.3,2.2-11.1,2
		c-7.7-0.5-15.4-3.4-21.1-8.6c-1.8-1.6-3.3-3.3-4.9-5.1c-1.3-1.4-2.6-2.9-3.3-4.6c-0.7-1.7-0.9-3.6-0.9-5.5
		c-0.1-5.2,0.4-10.3,1.6-15.4c0.7-3,1.8-6.2,4.1-8.3c3.2-2.9,8-2.9,12.4-2.8c5.2,0.1,10.5,0.2,15.4,2c1.9,0.7,3.7,1.6,5.2,2.9
		C417.8,345.1,419.3,347.9,420.8,350.7z"/>
</g>
<path style="fill:#324A5E;" d="M380.6,417h-256c-2.4,0-4.3-1.9-4.3-4.3V88.1c0-2.4,1.9-4.3,4.3-4.3h255.9c2.4,0,4.3,1.9,4.3,4.3
	v324.6C384.8,415.1,382.9,417,380.6,417z"/>
<rect x="147.4" y="110.9" style="fill:#FFFFFF;" width="210.5" height="267.6"/>
<g>
	<path style="fill:#FFD05B;" d="M440.6,421c-14.4,16-30.7,30.2-48.8,42.1l-10.3-51c-3.4-16.9-10.5-32.8-20.9-46.6L338.5,336
		c-2.9-3.9-1.7-9.5,2.6-11.8c3-1.6,6.8-1.1,9.3,1.3l20.1,19.5l32.1,33.3l18-14.9l-3.2-5.1L406.9,370c-1.2,1.3-3.4,1.1-4.2-0.5
		l-4.1-7.7c-0.6-1.1-0.2-2.6,0.8-3.3l9.7-6.6l-3.6-4.3l-8,8.2l-12.7-10v-21.9c14.6,7.9,36,20.2,48.3,31.6c2.7,2.5,4.3,5.9,4.4,9.5
		l2.8,55.5C440.6,420.8,440.6,420.8,440.6,421z"/>
	<path style="fill:#FFD05B;" d="M166.5,336l-22.2,29.6c-10.3,13.8-17.4,29.7-20.9,46.6l-10.3,51c-18-12-34.4-26.1-48.8-42.2
		c0-0.1,0-0.2,0-0.3l2.8-55.5c0.2-3.6,1.8-7,4.5-9.5c12.3-11.3,33.7-23.7,48.3-31.6V346l-12.7,10l-8-8.2l-3.5,4.3l9.6,6.6
		c1.1,0.7,1.5,2.2,0.8,3.3l-4,7.7c-0.9,1.5-3,1.8-4.2,0.5l-10.4-11.9l-3.1,5.1l18,14.9l32.1-33.3l20.2-19.5c2.5-2.4,6.2-2.9,9.2-1.3
		C168.2,326.5,169.4,332.1,166.5,336z"/>
</g>
<path style="fill:#54C0EB;" d="M194.5,155.8h-25.2c-0.6,0-1.1-0.5-1.1-1.1v-25.2c0-0.6,0.5-1.1,1.1-1.1h25.2c0.6,0,1.1,0.5,1.1,1.1
	v25.2C195.6,155.3,195.1,155.8,194.5,155.8z"/>
<path style="fill:#FF7058;" d="M241.7,155.8h-25.2c-0.6,0-1.1-0.5-1.1-1.1v-25.2c0-0.6,0.5-1.1,1.1-1.1h25.2c0.6,0,1.1,0.5,1.1,1.1
	v25.2C242.8,155.3,242.3,155.8,241.7,155.8z"/>
<path style="fill:#4CDBC4;" d="M289,155.8h-25.2c-0.6,0-1.1-0.5-1.1-1.1v-25.2c0-0.6,0.5-1.1,1.1-1.1H289c0.6,0,1.1,0.5,1.1,1.1
	v25.2C290.1,155.3,289.6,155.8,289,155.8z"/>
<path style="fill:#FFD05B;" d="M336.2,155.8H311c-0.6,0-1.1-0.5-1.1-1.1v-25.2c0-0.6,0.5-1.1,1.1-1.1h25.2c0.6,0,1.1,0.5,1.1,1.1
	v25.2C337.3,155.3,336.8,155.8,336.2,155.8z"/>
<path style="fill:#4CDBC4;" d="M194.5,197.3h-25.2c-0.6,0-1.1-0.5-1.1-1.1V171c0-0.6,0.5-1.1,1.1-1.1h25.2c0.6,0,1.1,0.5,1.1,1.1
	v25.2C195.6,196.8,195.1,197.3,194.5,197.3z"/>
<path style="fill:#FFD05B;" d="M241.7,197.3h-25.2c-0.6,0-1.1-0.5-1.1-1.1V171c0-0.6,0.5-1.1,1.1-1.1h25.2c0.6,0,1.1,0.5,1.1,1.1
	v25.2C242.8,196.8,242.3,197.3,241.7,197.3z"/>
<path style="fill:#54C0EB;" d="M289,197.3h-25.2c-0.6,0-1.1-0.5-1.1-1.1V171c0-0.6,0.5-1.1,1.1-1.1H289c0.6,0,1.1,0.5,1.1,1.1v25.2
	C290.1,196.8,289.6,197.3,289,197.3z"/>
<path style="fill:#2C9984;" d="M336.2,197.3H311c-0.6,0-1.1-0.5-1.1-1.1V171c0-0.6,0.5-1.1,1.1-1.1h25.2c0.6,0,1.1,0.5,1.1,1.1v25.2
	C337.3,196.8,336.8,197.3,336.2,197.3z"/>
<path style="fill:#ACB3BA;" d="M194.5,238.8h-25.2c-0.6,0-1.1-0.5-1.1-1.1v-25.2c0-0.6,0.5-1.1,1.1-1.1h25.2c0.6,0,1.1,0.5,1.1,1.1
	v25.2C195.6,238.3,195.1,238.8,194.5,238.8z"/>
<path style="fill:#54C0EB;" d="M241.7,238.8h-25.2c-0.6,0-1.1-0.5-1.1-1.1v-25.2c0-0.6,0.5-1.1,1.1-1.1h25.2c0.6,0,1.1,0.5,1.1,1.1
	v25.2C242.8,238.3,242.3,238.8,241.7,238.8z"/>
<path style="fill:#FF7058;" d="M289,238.8h-25.2c-0.6,0-1.1-0.5-1.1-1.1v-25.2c0-0.6,0.5-1.1,1.1-1.1H289c0.6,0,1.1,0.5,1.1,1.1
	v25.2C290.1,238.3,289.6,238.8,289,238.8z"/>
<path style="fill:#FFD05B;" d="M336.2,238.8H311c-0.6,0-1.1-0.5-1.1-1.1v-25.2c0-0.6,0.5-1.1,1.1-1.1h25.2c0.6,0,1.1,0.5,1.1,1.1
	v25.2C337.3,238.3,336.8,238.8,336.2,238.8z"/>
<g>
	<path style="fill:#FF7058;" d="M340,335.3c-0.7-0.6-1.4-1.1-1.9-1.9c-1.2-1.6-1.5-3.6-1.7-5.6c-0.1-1.1-0.3-2.3,0.1-3.4
		c0.5-1.2,1.5-2,2.7-2.3s2.5-0.1,3.7,0.4c1.4,0.6,2.5,1.6,3.6,2.6c0.7,0.6,1.3,1.2,2,1.8c1.2,1.1,2.5,2.2,3.7,3.3
		c0.3,0.3,0.7,0.6,0.9,1c0.4,0.6,0.4,1.4,0.3,2c-0.5,3.4-4.2,5.8-7.6,5.2C343.6,338,341.7,336.7,340,335.3z"/>
	<path style="fill:#FF7058;" d="M164.4,335.3c0.7-0.6,1.4-1.1,1.9-1.9c1.2-1.6,1.5-3.6,1.7-5.6c0.1-1.1,0.3-2.3-0.1-3.4
		c-0.5-1.2-1.5-2-2.7-2.3s-2.5-0.1-3.7,0.4c-1.4,0.6-2.5,1.6-3.6,2.6c-0.7,0.6-1.3,1.2-2,1.8c-1.2,1.1-2.5,2.2-3.7,3.3
		c-0.3,0.3-0.7,0.6-0.9,1c-0.4,0.6-0.4,1.4-0.3,2c0.5,3.4,4.2,5.8,7.6,5.2C160.7,338,162.6,336.7,164.4,335.3z"/>
</g>
<circle style="fill:#2B3B4E;" cx="252.6" cy="397" r="8.6"/>
<g>
</g>
<g>
</g>
<g>
</g>
<g>
</g>
<g>
</g>
<g>
</g>
<g>
</g>
<g>
</g>
<g>
</g>
<g>
</g>
<g>
</g>
<g>
</g>
<g>
</g>
<g>
</g>
<g>
</g>
</svg>
