<?xml version="1.0" encoding="iso-8859-1"?>
<!-- Generator: Adobe Illustrator 19.0.0, SVG Export Plug-In . SVG Version: 6.00 Build 0)  -->
<svg version="1.1" id="Layer_1" xmlns="http://www.w3.org/2000/svg" xmlns:xlink="http://www.w3.org/1999/xlink" x="0px" y="0px"
	 viewBox="0 0 505 505" style="enable-background:new 0 0 505 505;" xml:space="preserve">
<path style="fill:#FFD05B;" d="M505,252.5c0,70.2-28.6,133.7-74.9,179.4C384.5,477.1,321.7,505,252.5,505s-132-27.9-177.6-73
	C28.6,386.2,0,322.7,0,252.5C0,113.1,113,0,252.5,0C391.9,0,505,113.1,505,252.5z"/>
<path style="fill:#324A5E;" d="M83.6,363.2V141.8c0-2,1.7-3.7,3.7-3.7h330.4c2,0,3.7,1.7,3.7,3.7v221.4c0,2-1.7,3.7-3.7,3.7H87.3
	C85.2,366.9,83.6,365.2,83.6,363.2z"/>
<rect x="117" y="161.5" style="fill:#FFFFFF;" width="281.1" height="182"/>
<rect x="117" y="161.5" style="fill:#54C0EB;" width="281.1" height="64.1"/>
<circle style="fill:#ACB3BA;" cx="100.9" cy="252.5" r="7.4"/>
<rect x="135.4" y="203" style="fill:#FF7058;" width="64.5" height="64.5"/>
<g>
	<rect x="221.3" y="252.5" style="fill:#E6E9EE;" width="156.2" height="15"/>
	<rect x="135.4" y="291.3" style="fill:#E6E9EE;" width="242.1" height="52.2"/>
</g>
<rect x="227.7" y="197.5" style="fill:#84DBFF;" width="114" height="14.5"/>
<g>
</g>
<g>
</g>
<g>
</g>
<g>
</g>
<g>
</g>
<g>
</g>
<g>
</g>
<g>
</g>
<g>
</g>
<g>
</g>
<g>
</g>
<g>
</g>
<g>
</g>
<g>
</g>
<g>
</g>
</svg>
