<?xml version="1.0" encoding="iso-8859-1"?>
<!-- Generator: Adobe Illustrator 19.0.0, SVG Export Plug-In . SVG Version: 6.00 Build 0)  -->
<svg version="1.1" id="Layer_1" xmlns="http://www.w3.org/2000/svg" xmlns:xlink="http://www.w3.org/1999/xlink" x="0px" y="0px"
	 viewBox="0 0 505 505" style="enable-background:new 0 0 505 505;" xml:space="preserve">
<circle style="fill:#84DBFF;" cx="252.5" cy="252.5" r="252.5"/>
<rect x="276.494" y="102.386" transform="matrix(-0.7071 -0.7071 0.7071 -0.7071 470.7446 519.1592)" style="fill:#FFFFFF;" width="132.799" height="119.399"/>
<path style="fill:#324A5E;" d="M187,436.5L68.4,318c-1.9-1.9-1.9-4.9,0-6.8l177.4-177.4l125.3,125.3L193.8,436.5
	C191.9,438.4,188.8,438.4,187,436.5z"/>
<g>
	
		<rect x="367.289" y="154.896" transform="matrix(-0.7071 -0.7071 0.7071 -0.7071 537.6531 553.3955)" style="fill:#E6E9EE;" width="32.3" height="20.9"/>
	
		<rect x="323.509" y="111.084" transform="matrix(-0.7071 -0.7071 0.7071 -0.7071 493.8957 447.6467)" style="fill:#E6E9EE;" width="32.3" height="20.9"/>
</g>
<path style="fill:#ACB3BA;" d="M281.8,292.9l-10.7-10.7c-2.5-2.5-6.5-2.5-9,0l-10.7,10.7c-2.5,2.5-2.5,6.5,0,9l1.3,1.3l-7.8,7.8
	l-31.8-10.5l50.5-50.5l12.9,12.9l11-45.2l-45.2,11l12.9,12.9l-61.7,61.7l-10.6-31.8l14.7-14.7c4.9,1.9,10.7,0.8,14.7-3.1
	c5.4-5.4,5.4-14.2,0-19.6c-5.4-5.4-14.2-5.4-19.6,0c-4,4-5,9.8-3.1,14.7l-17.1,17.1c-1.5,1.5-2,3.7-1.4,5.8l13.5,40.5l-6.1,6.1
	c-8.1-4.4-18.4-3.2-25.3,3.7l0,0c-8.3,8.3-8.3,21.9,0,30.2l0,0c8.3,8.3,21.9,8.3,30.2,0l0,0c6.8-6.8,8.1-17.2,3.7-25.3l17.3-17.3
	l40.5,13.5c2,0.7,4.3,0.1,5.8-1.4l10.2-10.2l1.3,1.3c2.5,2.5,6.5,2.5,9,0l10.7-10.7C284.3,299.4,284.3,295.4,281.8,292.9z"/>
<g>
</g>
<g>
</g>
<g>
</g>
<g>
</g>
<g>
</g>
<g>
</g>
<g>
</g>
<g>
</g>
<g>
</g>
<g>
</g>
<g>
</g>
<g>
</g>
<g>
</g>
<g>
</g>
<g>
</g>
</svg>
