<?xml version="1.0" encoding="iso-8859-1"?>
<!-- Generator: Adobe Illustrator 19.0.0, SVG Export Plug-In . SVG Version: 6.00 Build 0)  -->
<svg version="1.1" id="Layer_1" xmlns="http://www.w3.org/2000/svg" xmlns:xlink="http://www.w3.org/1999/xlink" x="0px" y="0px"
	 viewBox="0 0 505 505" style="enable-background:new 0 0 505 505;" xml:space="preserve">
<circle style="fill:#90DFAA;" cx="252.5" cy="252.5" r="252.5"/>
<rect x="97.2" y="117.9" style="fill:#2B3B4E;" width="310.6" height="269.1"/>
<g>
	<rect x="161.6" y="140.3" style="fill:#E6E9EE;" width="41" height="24.4"/>
	<rect x="233.6" y="140.3" style="fill:#E6E9EE;" width="41" height="24.4"/>
	<rect x="305.7" y="140.3" style="fill:#E6E9EE;" width="41" height="24.4"/>
	<rect x="161.6" y="340.3" style="fill:#E6E9EE;" width="41" height="24.4"/>
	<rect x="233.6" y="340.3" style="fill:#E6E9EE;" width="41" height="24.4"/>
	<rect x="305.7" y="340.3" style="fill:#E6E9EE;" width="41" height="24.4"/>
	<rect x="97.2" y="140.3" style="fill:#E6E9EE;" width="33.3" height="24.4"/>
	<rect x="377.7" y="140.3" style="fill:#E6E9EE;" width="30.1" height="24.4"/>
	<rect x="97.2" y="340.3" style="fill:#E6E9EE;" width="33.3" height="24.4"/>
	<rect x="377.7" y="340.3" style="fill:#E6E9EE;" width="30.1" height="24.4"/>
</g>
<g>
	<rect x="368.4" y="186.1" style="fill:#324A5E;" width="39.4" height="131.2"/>
	<rect x="168.8" y="186.1" style="fill:#324A5E;" width="167.4" height="131.2"/>
	<rect x="97.2" y="186.1" style="fill:#324A5E;" width="39.4" height="131.2"/>
</g>
<path style="fill:#E6E9EE;" d="M225,218.3v67c0,5.3,6.1,8.3,10.3,5l42.2-33.5c3.2-2.5,3.2-7.4,0-10l-42.2-33.5
	C231.2,210,225,212.9,225,218.3z"/>
<g>
</g>
<g>
</g>
<g>
</g>
<g>
</g>
<g>
</g>
<g>
</g>
<g>
</g>
<g>
</g>
<g>
</g>
<g>
</g>
<g>
</g>
<g>
</g>
<g>
</g>
<g>
</g>
<g>
</g>
</svg>
