<?xml version="1.0" encoding="iso-8859-1"?>
<!-- Generator: Adobe Illustrator 19.0.0, SVG Export Plug-In . SVG Version: 6.00 Build 0)  -->
<svg version="1.1" id="Layer_1" xmlns="http://www.w3.org/2000/svg" xmlns:xlink="http://www.w3.org/1999/xlink" x="0px" y="0px"
	 viewBox="0 0 505 505" style="enable-background:new 0 0 505 505;" xml:space="preserve">
<circle style="fill:#84DBFF;" cx="252.5" cy="252.5" r="252.5"/>
<g>
	<rect x="391.2" y="225.7" style="fill:#2B3B4E;" width="45.1" height="53.3"/>
	<polygon style="fill:#2B3B4E;" points="301.3,147.6 358.7,147.6 332.7,67.3 301.3,67.3 	"/>
	<polygon style="fill:#2B3B4E;" points="201.7,147.6 144.3,147.6 170.3,67.3 201.7,67.3 	"/>
</g>
<path style="fill:#FF7058;" d="M312.2,79.9H190.8l1.2-12.6L197.7,6c17.6-3.9,35.9-6,54.8-6c18.1,0,35.7,1.9,52.8,5.6l5.8,61.7
	L312.2,79.9z"/>
<g>
	<polygon style="fill:#F1543F;" points="294.7,27.5 283.4,27.5 282.2,4.7 293.1,4.7 	"/>
	<polygon style="fill:#F1543F;" points="297.6,67 285.5,67 284.1,41.2 295.7,41.2 	"/>
	<polygon style="fill:#F1543F;" points="219.7,27.5 208.3,27.5 210,4.7 220.9,4.7 	"/>
	<polygon style="fill:#F1543F;" points="217.6,67 205.5,67 207.3,41.2 218.9,41.2 	"/>
</g>
<g>
	<polygon style="fill:#2B3B4E;" points="301.3,357.4 358.7,357.4 332.7,437.7 301.3,437.7 	"/>
	<polygon style="fill:#2B3B4E;" points="201.7,357.4 144.3,357.4 170.3,437.7 201.7,437.7 	"/>
</g>
<path style="fill:#FF7058;" d="M312.2,425.1l-1.2,12.6l-5.8,61.8c-17,3.6-34.7,5.5-52.8,5.5c-18.8,0-37.1-2.1-54.8-6l-5.7-61.4
	l-1.2-12.6h121.5V425.1z"/>
<g>
	<polygon style="fill:#F1543F;" points="294.7,477.5 283.4,477.5 282.2,500.2 293.1,500.2 	"/>
	<polygon style="fill:#F1543F;" points="297.6,438 285.5,438 284.1,463.8 295.7,463.8 	"/>
	<polygon style="fill:#F1543F;" points="219.7,477.5 208.3,477.5 210,500.2 220.9,500.2 	"/>
	<polygon style="fill:#F1543F;" points="217.6,438 205.5,438 207.3,463.8 218.9,463.8 	"/>
</g>
<circle style="fill:#324A5E;" cx="251.5" cy="252.5" r="162.2"/>
<circle style="fill:#FFFFFF;" cx="251.5" cy="252.5" r="129.4"/>
<g>
	<rect x="244" y="139.6" style="fill:#ACB3BA;" width="15.1" height="19.8"/>
	<rect x="244" y="345.7" style="fill:#ACB3BA;" width="15.1" height="19.8"/>
	<rect x="344.7" y="244.9" style="fill:#ACB3BA;" width="19.8" height="15.1"/>
	<rect x="138.6" y="245" style="fill:#ACB3BA;" width="19.8" height="15.1"/>
	
		<rect x="314.467" y="172.073" transform="matrix(0.7071 -0.7071 0.7071 0.7071 -32.0077 281.972)" style="fill:#ACB3BA;" width="19.8" height="15.1"/>
	
		<rect x="168.737" y="317.834" transform="matrix(0.7071 -0.7071 0.7071 0.7071 -177.7596 221.6178)" style="fill:#ACB3BA;" width="19.8" height="15.1"/>
	
		<rect x="314.502" y="317.802" transform="matrix(0.7071 0.7071 -0.7071 0.7071 325.0737 -134.0933)" style="fill:#ACB3BA;" width="19.8" height="15.1"/>
	
		<rect x="168.742" y="172.051" transform="matrix(0.7071 0.7071 -0.7071 0.7071 179.3201 -73.7149)" style="fill:#ACB3BA;" width="19.8" height="15.1"/>
</g>
<path style="fill:#54C0EB;" d="M313.5,305.9l-56-55.9v-64.9c0-3.3-2.7-6-6-6c-3.3,0-6,2.7-6,6v67.4c0,0.4,0,0.8,0.1,1.2
	c0,0.2,0.1,0.4,0.2,0.6c0,0.2,0.1,0.3,0.1,0.5c0.1,0.3,0.3,0.6,0.4,0.8c0,0.1,0.1,0.1,0.1,0.2c0.2,0.4,0.5,0.7,0.8,1l57.8,57.6
	c1.2,1.2,2.7,1.7,4.2,1.7s3.1-0.6,4.2-1.7C315.9,312,315.9,308.2,313.5,305.9z"/>
<path style="fill:#F1543F;" d="M253.9,249.3c-1.4-1.4-3.7-1.4-5.1,0l-57.9,58c-1.4,1.4-1.4,3.7,0,5.1c0.7,0.7,1.6,1,2.5,1
	s1.8-0.3,2.5-1l57.9-58C255.3,252.9,255.3,250.7,253.9,249.3z"/>
<circle style="fill:#324A5E;" cx="251.5" cy="252.5" r="18.6"/>
<g>
</g>
<g>
</g>
<g>
</g>
<g>
</g>
<g>
</g>
<g>
</g>
<g>
</g>
<g>
</g>
<g>
</g>
<g>
</g>
<g>
</g>
<g>
</g>
<g>
</g>
<g>
</g>
<g>
</g>
</svg>
