<?xml version="1.0" encoding="iso-8859-1"?>
<!-- Generator: Adobe Illustrator 19.0.0, SVG Export Plug-In . SVG Version: 6.00 Build 0)  -->
<svg version="1.1" id="Layer_1" xmlns="http://www.w3.org/2000/svg" xmlns:xlink="http://www.w3.org/1999/xlink" x="0px" y="0px"
	 viewBox="0 0 505 505" style="enable-background:new 0 0 505 505;" xml:space="preserve">
<circle style="fill:#324A5E;" cx="252.5" cy="252.5" r="252.5"/>
<path style="fill:#CED5E0;" d="M360,427.1c-5.4-25.2-34.6-52-85.8-69c-11.3-3.9-32.1-3.9-43.4,0c-51.2,17.1-80.4,43.8-85.8,69
	c-1.4,9.1,16.9,9.8,27.6,4.2c44.9-22.9,114.9-22.9,159.7,0C343.1,436.9,361.4,436.2,360,427.1z"/>
<circle style="fill:#E6E9EE;" cx="252.5" cy="224.4" r="154.3"/>
<circle style="fill:#CED5E0;" cx="252.5" cy="224.4" r="76.6"/>
<circle style="fill:#2C9984;" cx="252.5" cy="224.4" r="41.8"/>
<ellipse transform="matrix(-0.7071 -0.7071 0.7071 -0.7071 257.3329 526.5974)" style="fill:#FFFFFF;" cx="237.728" cy="210.003" rx="8" ry="15.4"/>
<circle style="fill:#FF7058;" cx="175.9" cy="153.2" r="12.2"/>
<g>
</g>
<g>
</g>
<g>
</g>
<g>
</g>
<g>
</g>
<g>
</g>
<g>
</g>
<g>
</g>
<g>
</g>
<g>
</g>
<g>
</g>
<g>
</g>
<g>
</g>
<g>
</g>
<g>
</g>
</svg>
