<?xml version="1.0" encoding="iso-8859-1"?>
<!-- Generator: Adobe Illustrator 19.0.0, SVG Export Plug-In . SVG Version: 6.00 Build 0)  -->
<svg version="1.1" id="Layer_1" xmlns="http://www.w3.org/2000/svg" xmlns:xlink="http://www.w3.org/1999/xlink" x="0px" y="0px"
	 viewBox="0 0 505 505" style="enable-background:new 0 0 505 505;" xml:space="preserve">
<circle style="fill:#FD8469;" cx="252.5" cy="252.5" r="252.5"/>
<g>
	<circle style="fill:#54C0EB;" cx="252.5" cy="252.5" r="177.5"/>
	<path style="fill:#54C0EB;" d="M430,252.5c0,98.1-79.5,177.5-177.5,177.5S75,350.5,75,252.5S154.5,75,252.5,75
		c40,0,76.8,13.2,106.5,35.5c36.2,27.2,61.7,68,68.9,114.8C429.3,234.1,430,243.2,430,252.5z"/>
</g>
<path style="fill:#E6E9EE;" d="M247.2,92.2c-1.7,14.7-16.1,24.1-29.5,30.4c-13.9,6.5-28.3,12-43,16.3c1.1-5.1,2.1-10.3,3.2-15.4
	c-4.3-3.4-10.3,1-14,5.1c-1.9,2.1-3.8,4.2-5.7,6.4c-4.7,5.2-9.7,11.6-8.3,18.5c1.1,5.3,6,11,2.8,15.4c-1,1.4-2.5,2.1-4,2.9
	c-11.4,5.9-22,13.5-31.3,22.4c-10,9.5-19.1,22.6-16.3,36.1c-3.2-0.1-6.4-2.2-7.7-5.2c-6.5,1.9-5.6,13.6,1.1,14.6
	c-2.5,6.5,2.4,13.9,8.6,17c6.2,3.1,13.5,3.2,20.4,4s14.3,2.7,18.6,8.2c2.4,3,3.6,6.9,6.5,9.5c3.1,2.9,7.5,3.8,11.3,5.7
	c10.7,5.1,16.3,17.8,15.8,29.7c-0.5,11.9-6.2,22.9-13.1,32.6c-3.6,5-7.7,10.4-7.5,16.5c0.1,2.6,1.1,5.1,1.2,7.7
	c0.4,5.1-2.5,10.4-7,12.9c-7.3-4.6-9.3-14.1-11.5-22.5c-5.9-23.2-18.1-44.3-30-65.1c-10.8-18.7-21.6-37.5-32.4-56.2
	c2.9-40.3,19.2-76.9,44.5-105.3c0.9,0.7,1.8,1.5,2.6,2.4c18.4-7,36.2-15.5,53.3-25.3c2.9-1.7,5.7-3.4,8.8-4.6
	c3.2-1.3,6.7-2.1,10.1-2.9C212.2,100.1,229.7,96.1,247.2,92.2z"/>
<rect x="162.686" y="271.996" transform="matrix(-0.7071 -0.7071 0.7071 -0.7071 93.2624 628.923)" style="fill:#2B3B4E;" width="28.4" height="46.3"/>
<circle style="fill:#84DBFF;" cx="257" cy="215" r="80.6"/>
<path style="fill:#F9B54C;" d="M186.9,317.8l-32.6-32.6c-1.2-1.2-3-1.2-4.2,0L61.3,374c-1.2,1.2-1.2,3,0,4.2l32.6,32.6
	c1.2,1.2,3,1.2,4.2,0l88.8-88.8C188,320.8,188,318.9,186.9,317.8z"/>
<path style="fill:#E6E9EE;" d="M428,225.3c-1,2.4-2.1,4.8-3.4,7c-1-5.8-6.1-10.7-11.9-11.4c0.1,9.9,0.1,19.8,0.2,29.7
	c-6.6-3.9-9.9-11.5-12-18.9c-2-7.4-3.3-15.2-7.6-21.5c-4.3-6.4-12.7-10.8-19.6-7.7c4.4,5.7,3.5,14.2-0.3,20.4s-9.8,10.5-15.7,14.7
	c7.2-1,17-0.4,18.7,6.7c1.3,5.4-3.6,10.3-8.4,13.2c-4.8,2.8-10.5,5.4-12.4,10.7c-2.1,5.6,1,11.8,0.9,17.8
	c-0.1,13.2-14.4,21.1-21.1,32.5c-7.3,12.2-7.2,30.4-20.1,36.4c-5.7,2.6-12.2,1.8-18.4,1c-1.4-0.2-3-0.4-4.1-1.3
	c-1.9-1.6-2.1-4.4-2-6.9c0.1-7.5-0.1-15.2-3.3-21.9c-3.7-7.6-10.9-13.1-14.2-20.9c-6-13.7,1.6-30.4-4-44.3c-0.7-1.7-1.6-3.4-3.1-4.4
	c-1.8-1.2-4.2-1.2-6.4-1.2c-10.4,0.2-20.7,0.3-31.1,0.5c-2,0-4.2,0-5.7-1.2c-1.1-0.8-1.7-2.1-2.3-3.3c-5.3-10.8-10.8-22.4-9.2-34.2
	c2.3-17.3,18.1-29,32.9-38.2c3.3-2.1,7.2-5,6.9-8.9c-3.3,4.1-10,5.1-14,1.6c-3.9-3.4-3.5-10.8,1-13.4c5.1-2.8,14.2-1.2,14.6-7
	c-2.8-4.9-3.5-11-1.9-16.4c-5.8-0.2-11.5-1.3-17-3.1c2.9-4,6-8.2,10.5-10.3c4.5-2.1,10.7-1.4,13.3,2.8c1.2,1.9,1.5,4.5,3.2,6
	c1.6,1.4,4,1.5,6.1,1.5c3.9,0,7.8,0,11.6,0c4.6,0,9.3,0,13.5-1.8s7.8-5.8,7.6-10.4c-0.2-4.6-5.4-8.6-9.5-6.5
	c2.8,3.1,0.1,8.4-3.7,10.3c-5.4,2.7-12.7,1.3-16.4-3.5c-3.7-4.8-3.3-12.3,1.1-16.5c3.8-3.6,9.4-4.3,14.7-4.5
	c24.6-0.8,48.8,6.2,72.8,12C395.3,137.7,420.7,178.4,428,225.3z"/>
<path style="fill:#FFFFFF;" d="M266.2,256.1c1.5,1,2.4,2.7,3.1,4.4c3.9,9.9,1.3,21.2,1.5,31.8c11.7-6.3,25.5-4.7,38.6-8.6
	c6.7-2.1,17.4-6.4,21-13.1c3.3-6.1,2-15.1,4.1-22.1c2.7-8.7,8.4-14.9,15.3-18.5c-13.1-34.5-29.5-79.2-66.8-90.5
	c-5.7-1.7-10.1-4.6-13.6-8.3c-0.8,0-1.6,0-2.3,0c-2.2,0-4.5-0.1-6.1-1.5c-1.7-1.5-2.1-4-3.2-6c-2.6-4.2-8.8-4.9-13.3-2.8
	s-7.6,6.3-10.5,10.3c5.5,1.9,11.2,2.9,17,3.1c-1.6,5.4-0.8,11.5,1.9,16.4c-0.5,5.8-9.6,4.2-14.6,7c-4.6,2.6-4.9,10-1,13.4
	c4,3.5,10.7,2.5,14-1.6c0.3,3.9-3.6,6.8-6.9,8.9c-14.8,9.2-30.6,21-32.9,38.2c-1.6,11.9,3.9,23.5,9.2,34.2c0.6,1.2,1.2,2.5,2.3,3.3
	c1.6,1.2,3.8,1.2,5.7,1.2c10.4-0.2,20.7-0.3,31.1-0.5C262,254.9,264.4,254.9,266.2,256.1z"/>
<path style="fill:#324A5E;" d="M324.9,147.1c-37.5-37.5-98.2-37.5-135.7,0s-37.5,98.2,0,135.7s98.2,37.5,135.7,0
	C362.4,245.4,362.4,184.6,324.9,147.1z M309,266.9c-28.7,28.7-75.2,28.7-103.8,0c-28.7-28.7-28.7-75.2,0-103.8
	c28.7-28.7,75.2-28.7,103.8,0C337.6,191.7,337.6,238.2,309,266.9z"/>
<g>
</g>
<g>
</g>
<g>
</g>
<g>
</g>
<g>
</g>
<g>
</g>
<g>
</g>
<g>
</g>
<g>
</g>
<g>
</g>
<g>
</g>
<g>
</g>
<g>
</g>
<g>
</g>
<g>
</g>
</svg>
