<?xml version="1.0" encoding="iso-8859-1"?>
<!-- Generator: Adobe Illustrator 19.0.0, SVG Export Plug-In . SVG Version: 6.00 Build 0)  -->
<svg version="1.1" id="Layer_1" xmlns="http://www.w3.org/2000/svg" xmlns:xlink="http://www.w3.org/1999/xlink" x="0px" y="0px"
	 viewBox="0 0 505 505" style="enable-background:new 0 0 505 505;" xml:space="preserve">
<circle style="fill:#FD8469;" cx="252.5" cy="252.5" r="252.5"/>
<circle style="fill:#324A5E;" cx="252.5" cy="252.5" r="186.5"/>
<path style="fill:#FFFFFF;" d="M252.5,58C145.2,58,58,145.2,58,252.5S145.3,447,252.5,447C359.8,447,447,359.7,447,252.5
	C447,145.2,359.8,58,252.5,58z M119.8,141.9c9.4,8.8,19.6,16.7,30.3,23.4c-6.6,23.1-10.7,48.9-11.6,76.4H80
	C82.4,203.9,96.9,169.3,119.8,141.9z M176.6,349.8c20.1-9.9,42.1-15.7,65-17.1v91.4C215,417.9,191.5,389.7,176.6,349.8z
	 M186.6,412.3c-19.3-8-36.9-19.4-52-33.5c7.1-6.6,14.6-12.6,22.6-17.8C165,381.1,175,398.5,186.6,412.3z M241.7,80.9v91.4
	c-22.9-1.4-44.9-7.2-65-17.1C191.5,115.3,215,87.1,241.7,80.9z M157.2,144c-7.9-5.3-15.5-11.2-22.6-17.8
	c15.1-14.1,32.6-25.5,52-33.5C175,106.5,165,123.9,157.2,144z M241.7,194v47.6h-81.4c0.8-23.3,4.2-45.5,9.7-65.6
	C192.2,186.5,216.5,192.7,241.7,194z M241.7,263.3v47.6c-25.2,1.4-49.4,7.5-71.7,18c-5.5-20.1-8.9-42.3-9.7-65.6H241.7z
	 M263.3,332.7c22.9,1.4,44.9,7.2,65,17.1c-14.9,39.9-38.4,68.1-65,74.3V332.7z M263.3,311v-47.6h81.4c-0.8,23.3-4.2,45.5-9.7,65.6
	C312.8,318.5,288.5,312.3,263.3,311z M263.3,241.7v-47.6c25.2-1.4,49.4-7.5,71.7-18c5.5,20.1,8.9,42.3,9.7,65.6L263.3,241.7
	L263.3,241.7z M263.3,172.3V80.9c26.6,6.1,50.2,34.3,65,74.3C308.2,165.1,286.3,170.9,263.3,172.3z M318.4,92.7
	c19.3,8,36.9,19.4,52,33.5c-7.1,6.6-14.6,12.6-22.6,17.8C340,123.9,330,106.5,318.4,92.7z M138.5,263.3c0.8,27.5,4.9,53.3,11.6,76.4
	c-10.7,6.7-20.9,14.5-30.3,23.4c-22.9-27.4-37.4-61.9-39.7-99.7h58.4V263.3z M318.4,412.3c11.6-13.8,21.6-31.2,29.4-51.3
	c7.9,5.3,15.5,11.2,22.6,17.8C355.3,392.9,337.7,404.3,318.4,412.3z M385.2,363.1c-9.4-8.8-19.6-16.7-30.3-23.4
	c6.6-23.1,10.7-48.9,11.6-76.4H425C422.6,301.1,408.1,335.7,385.2,363.1z M366.5,241.7c-0.8-27.5-4.9-53.3-11.6-76.4
	c10.7-6.7,20.9-14.5,30.3-23.3c22.9,27.4,37.4,61.9,39.7,99.7L366.5,241.7L366.5,241.7z"/>
<circle style="fill:#4CDBC4;" cx="342" cy="162.6" r="33.6"/>
<circle style="fill:#F9B54C;" cx="150" cy="252.5" r="33.6"/>
<circle style="fill:#F1543F;" cx="342" cy="346.3" r="33.6"/>
<g>
</g>
<g>
</g>
<g>
</g>
<g>
</g>
<g>
</g>
<g>
</g>
<g>
</g>
<g>
</g>
<g>
</g>
<g>
</g>
<g>
</g>
<g>
</g>
<g>
</g>
<g>
</g>
<g>
</g>
</svg>
