<?xml version="1.0" encoding="iso-8859-1"?>
<!-- Generator: Adobe Illustrator 19.0.0, SVG Export Plug-In . SVG Version: 6.00 Build 0)  -->
<svg version="1.1" id="Layer_1" xmlns="http://www.w3.org/2000/svg" xmlns:xlink="http://www.w3.org/1999/xlink" x="0px" y="0px"
	 viewBox="0 0 508 508" style="enable-background:new 0 0 508 508;" xml:space="preserve">
<circle style="fill:#90DFAA;" cx="254" cy="254" r="254"/>
<g>
	<path style="fill:#FFFFFF;" d="M352.8,153.2h-17.6c-3.6,0-6.4-2.8-6.4-6.4v-27.6c0-3.6,2.8-6.4,6.4-6.4h17.6c3.6,0,6.4,2.8,6.4,6.4
		v27.6C358.8,150.4,356,153.2,352.8,153.2z"/>
	<path style="fill:#FFFFFF;" d="M172.8,153.2h-17.6c-3.6,0-6.4-2.8-6.4-6.4v-27.6c0-3.6,2.8-6.4,6.4-6.4h17.6c3.6,0,6.4,2.8,6.4,6.4
		v27.6C179.2,150.4,176.4,153.2,172.8,153.2z"/>
</g>
<rect x="112" y="162.8" style="fill:#324A5E;" width="284.4" height="232"/>
<rect x="112" y="162.8" style="fill:#2B3B4E;" width="284.4" height="20.8"/>
<path style="fill:#324A5E;" d="M404.8,170.8H103.2c-3.2,0-6-2.8-6-6v-14c0-3.2,2.8-6,6-6h301.6c3.2,0,6,2.8,6,6v14
	C410.8,168,408,170.8,404.8,170.8z"/>
<path style="fill:#2B3B4E;" d="M404.8,394.8H103.2c-3.2,0-6-2.8-6-6v-14c0-3.2,2.8-6,6-6h301.6c3.2,0,6,2.8,6,6v14
	C410.8,392.4,408,394.8,404.8,394.8z"/>
<circle style="fill:#FF7058;" cx="344" cy="224.8" r="28.8"/>
<circle style="fill:#84DBFF;" cx="164" cy="224.8" r="28.8"/>
<g>
	<rect x="338.4" y="206" style="fill:#FFFFFF;" width="11.2" height="37.6"/>
	<rect x="325.2" y="219.2" style="fill:#FFFFFF;" width="37.6" height="11.2"/>
	<rect x="145.6" y="219.2" style="fill:#FFFFFF;" width="37.6" height="11.2"/>
	<rect x="164" y="276" style="fill:#FFFFFF;" width="174" height="68.8"/>
</g>
<g>
	<rect x="176.4" y="285.6" style="fill:#E6E9EE;" width="149.6" height="6.4"/>
	<rect x="176.4" y="300" style="fill:#E6E9EE;" width="149.6" height="6.4"/>
	<rect x="176.4" y="314.4" style="fill:#E6E9EE;" width="149.6" height="6.4"/>
	<rect x="176.4" y="328.8" style="fill:#E6E9EE;" width="123.6" height="6.4"/>
</g>
<g>
</g>
<g>
</g>
<g>
</g>
<g>
</g>
<g>
</g>
<g>
</g>
<g>
</g>
<g>
</g>
<g>
</g>
<g>
</g>
<g>
</g>
<g>
</g>
<g>
</g>
<g>
</g>
<g>
</g>
</svg>
