<?xml version="1.0" encoding="iso-8859-1"?>
<!-- Generator: Adobe Illustrator 19.0.0, SVG Export Plug-In . SVG Version: 6.00 Build 0)  -->
<svg version="1.1" id="Layer_1" xmlns="http://www.w3.org/2000/svg" xmlns:xlink="http://www.w3.org/1999/xlink" x="0px" y="0px"
	 viewBox="0 0 508 508" style="enable-background:new 0 0 508 508;" xml:space="preserve">
<circle style="fill:#FFD05B;" cx="254" cy="254" r="254"/>
<path style="fill:#FFFFFF;" d="M270,90.4h-32c-2.4,0-4.4-2-4.4-4.4V73.6c0-2.4,2-4.4,4.4-4.4h32c2.4,0,4.4,2,4.4,4.4V86
	C274,88.4,272,90.4,270,90.4z"/>
<path style="fill:#2B3B4E;" d="M318.4,108H189.6c-6.8,0-12.4-5.6-12.4-12.4l0,0c0-6.8,5.6-12.4,12.4-12.4h128.8
	c6.8,0,12.4,5.6,12.4,12.4l0,0C330.8,102.4,325.2,108,318.4,108z"/>
<path style="fill:#324A5E;" d="M343.2,438.8H164.8c-9.6,0-17.6-8-17.6-17.6V112.8c0-9.6,8-17.6,17.6-17.6h178.4
	c9.6,0,17.6,8,17.6,17.6v308.4C360.8,431.2,352.8,438.8,343.2,438.8z"/>
<rect x="163.6" y="126.4" style="fill:#FFFFFF;" width="180.4" height="285.2"/>
<g>
	<rect x="244.8" y="153.6" style="fill:#FF7058;" width="18" height="55.2"/>
	<rect x="226.4" y="172" style="fill:#FF7058;" width="55.2" height="18"/>
</g>
<rect x="226.4" y="366" style="fill:#54C0EB;" width="55.2" height="18"/>
<g>
</g>
<g>
</g>
<g>
</g>
<g>
</g>
<g>
</g>
<g>
</g>
<g>
</g>
<g>
</g>
<g>
</g>
<g>
</g>
<g>
</g>
<g>
</g>
<g>
</g>
<g>
</g>
<g>
</g>
</svg>
