<?xml version="1.0" encoding="iso-8859-1"?>
<!-- Generator: Adobe Illustrator 19.0.0, SVG Export Plug-In . SVG Version: 6.00 Build 0)  -->
<svg version="1.1" id="Layer_1" xmlns="http://www.w3.org/2000/svg" xmlns:xlink="http://www.w3.org/1999/xlink" x="0px" y="0px"
	 viewBox="0 0 508 508" style="enable-background:new 0 0 508 508;" xml:space="preserve">
<circle style="fill:#90DFAA;" cx="254" cy="254" r="254"/>
<path style="fill:#FFFFFF;" d="M270,90.4h-32c-2.4,0-4.4-2-4.4-4.4V73.6c0-2.4,2-4.4,4.4-4.4h32c2.4,0,4.4,2,4.4,4.4V86
	C274,88.4,272,90.4,270,90.4z"/>
<path style="fill:#2B3B4E;" d="M318.4,108H189.6c-6.8,0-12.4-5.6-12.4-12.4l0,0c0-6.8,5.6-12.4,12.4-12.4h128.8
	c6.8,0,12.4,5.6,12.4,12.4l0,0C330.8,102.4,325.2,108,318.4,108z"/>
<path style="fill:#324A5E;" d="M343.2,438.8H164.8c-9.6,0-17.6-8-17.6-17.6V112.8c0-9.6,8-17.6,17.6-17.6h178.4
	c9.6,0,17.6,8,17.6,17.6v308.4C360.8,431.2,352.8,438.8,343.2,438.8z"/>
<rect x="163.6" y="126.4" style="fill:#FFFFFF;" width="180.4" height="285.2"/>
<path style="fill:#4CDBC4;" d="M330,144.4v32.4c0,2-1.6,3.6-3.6,3.6H181.6c-2,0-3.6-1.6-3.6-3.6v-32.4c0-2,1.6-3.6,3.6-3.6h144.8
	C328.4,140.4,330,142,330,144.4z"/>
<path style="fill:#FFD05B;" d="M330,198.4v32.4c0,2-1.6,3.6-3.6,3.6H181.6c-2,0-3.6-1.6-3.6-3.6v-32.4c0-2,1.6-3.6,3.6-3.6h144.8
	C328.4,194.8,330,196.4,330,198.4z"/>
<path style="fill:#E6E9EE;" d="M330,252.4v32.4c0,2-1.6,3.6-3.6,3.6H181.6c-2,0-3.6-1.6-3.6-3.6v-32.4c0-2,1.6-3.6,3.6-3.6h144.8
	C328.4,248.8,330,250.4,330,252.4z"/>
<path style="fill:#54C0EB;" d="M330,306.8v32.4c0,2-1.6,3.6-3.6,3.6H181.6c-2,0-3.6-1.6-3.6-3.6v-32.4c0-2,1.6-3.6,3.6-3.6h144.8
	C328.4,303.2,330,304.8,330,306.8z"/>
<path style="fill:#FF7058;" d="M330,360.8v32.4c0,2-1.6,3.6-3.6,3.6H181.6c-2,0-3.6-1.6-3.6-3.6v-32.4c0-2,1.6-3.6,3.6-3.6h144.8
	C328.4,357.2,330,358.8,330,360.8z"/>
<g>
</g>
<g>
</g>
<g>
</g>
<g>
</g>
<g>
</g>
<g>
</g>
<g>
</g>
<g>
</g>
<g>
</g>
<g>
</g>
<g>
</g>
<g>
</g>
<g>
</g>
<g>
</g>
<g>
</g>
</svg>
