<?xml version="1.0" encoding="iso-8859-1"?>
<!-- Generator: Adobe Illustrator 19.0.0, SVG Export Plug-In . SVG Version: 6.00 Build 0)  -->
<svg version="1.1" id="Layer_1" xmlns="http://www.w3.org/2000/svg" xmlns:xlink="http://www.w3.org/1999/xlink" x="0px" y="0px"
	 viewBox="0 0 508 508" style="enable-background:new 0 0 508 508;" xml:space="preserve">
<circle style="fill:#FD8469;" cx="254" cy="254" r="254"/>
<path style="fill:#2B3B4E;" d="M324.4,180.8L324.4,180.8c-4.4,0-8-3.6-8-8V86.4c0-4.4,3.6-8,8-8l0,0c4.4,0,8,3.6,8,8v86.8
	C332.4,177.2,328.8,180.8,324.4,180.8z"/>
<g>
	<path style="fill:#FFFFFF;" d="M342,132h-35.2c-4.4,0-8-3.6-8-8l0,0c0-4.4,3.6-8,8-8H342c4.4,0,8,3.6,8,8l0,0
		C350,128.4,346.4,132,342,132z"/>
	<path style="fill:#FFFFFF;" d="M342,108h-35.2c-4.4,0-8-3.6-8-8l0,0c0-4.4,3.6-8,8-8H342c4.4,0,8,3.6,8,8l0,0
		C350,104.4,346.4,108,342,108z"/>
	<path style="fill:#FFFFFF;" d="M342,156h-35.2c-4.4,0-8-3.6-8-8l0,0c0-4.4,3.6-8,8-8H342c4.4,0,8,3.6,8,8l0,0
		C350,152.4,346.4,156,342,156z"/>
</g>
<path style="fill:#2B3B4E;" d="M254,180.8L254,180.8c-4.4,0-8-3.6-8-8V86.4c0-4.4,3.6-8,8-8l0,0c4.4,0,8,3.6,8,8v86.8
	C262,177.2,258.4,180.8,254,180.8z"/>
<g>
	<path style="fill:#FFFFFF;" d="M271.6,132h-35.2c-4.4,0-8-3.6-8-8l0,0c0-4.4,3.6-8,8-8h35.2c4.4,0,8,3.6,8,8l0,0
		C279.6,128.4,276,132,271.6,132z"/>
	<path style="fill:#FFFFFF;" d="M271.6,108h-35.2c-4.4,0-8-3.6-8-8l0,0c0-4.4,3.6-8,8-8h35.2c4.4,0,8,3.6,8,8l0,0
		C279.6,104.4,276,108,271.6,108z"/>
	<path style="fill:#FFFFFF;" d="M271.6,156h-35.2c-4.4,0-8-3.6-8-8l0,0c0-4.4,3.6-8,8-8h35.2c4.4,0,8,3.6,8,8l0,0
		C279.6,152.4,276,156,271.6,156z"/>
</g>
<path style="fill:#2B3B4E;" d="M183.6,180.8L183.6,180.8c-4.4,0-8-3.6-8-8V86.4c0-4.4,3.6-8,8-8l0,0c4.4,0,8,3.6,8,8v86.8
	C191.6,177.2,188,180.8,183.6,180.8z"/>
<g>
	<path style="fill:#FFFFFF;" d="M201.2,132H166c-4.4,0-8-3.6-8-8l0,0c0-4.4,3.6-8,8-8h35.2c4.4,0,8,3.6,8,8l0,0
		C209.2,128.4,205.6,132,201.2,132z"/>
	<path style="fill:#FFFFFF;" d="M201.2,108H166c-4.4,0-8-3.6-8-8l0,0c0-4.4,3.6-8,8-8h35.2c4.4,0,8,3.6,8,8l0,0
		C209.2,104.4,205.6,108,201.2,108z"/>
	<path style="fill:#FFFFFF;" d="M201.2,156H166c-4.4,0-8-3.6-8-8l0,0c0-4.4,3.6-8,8-8h35.2c4.4,0,8,3.6,8,8l0,0
		C209.2,152.4,205.6,156,201.2,156z"/>
</g>
<g>
	<path style="fill:#2B3B4E;" d="M389.2,356.4h-21.6V342h21.6c4.8,0,8.8-4,8.8-8.8v-90c0-4.8-4-8.8-8.8-8.8h-21.6V220h21.6
		c12.8,0,23.2,10.4,23.2,23.2v89.6C412.8,346,402,356.4,389.2,356.4z"/>
	<path style="fill:#2B3B4E;" d="M140,356.4h-21.6c-12.8,0-23.2-10.4-23.2-23.2v-90c0-12.8,10.4-23.2,23.2-23.2H140v14.4h-21.6
		c-4.8,0-8.8,4-8.8,8.8v89.6c0,4.8,4,8.8,8.8,8.8H140V356.4z"/>
</g>
<path style="fill:#324A5E;" d="M358.8,429.6H149.2c-8,0-14.8-6.4-14.8-14.8V194.4h238.4v220.4C373.2,423.2,366.8,429.6,358.8,429.6z
	"/>
<g>
	<path style="fill:#2B3B4E;" d="M183.6,356L183.6,356c-4.4,0-8-3.6-8-8V225.6c0-4.4,3.6-8,8-8l0,0c4.4,0,8,3.6,8,8V348
		C191.6,352.4,188,356,183.6,356z"/>
	<path style="fill:#2B3B4E;" d="M212,356L212,356c-4.4,0-8-3.6-8-8V225.6c0-4.4,3.6-8,8-8l0,0c4.4,0,8,3.6,8,8V348
		C220,352.4,216.4,356,212,356z"/>
	<path style="fill:#2B3B4E;" d="M240,356L240,356c-4.4,0-8-3.6-8-8V225.6c0-4.4,3.6-8,8-8l0,0c4.4,0,8,3.6,8,8V348
		C248,352.4,244.4,356,240,356z"/>
	<path style="fill:#2B3B4E;" d="M268,356L268,356c-4.4,0-8-3.6-8-8V225.6c0-4.4,3.6-8,8-8l0,0c4.4,0,8,3.6,8,8V348
		C276,352.4,272.4,356,268,356z"/>
	<path style="fill:#2B3B4E;" d="M296,356L296,356c-4.4,0-8-3.6-8-8V225.6c0-4.4,3.6-8,8-8l0,0c4.4,0,8,3.6,8,8V348
		C304.4,352.4,300.8,356,296,356z"/>
	<path style="fill:#2B3B4E;" d="M324.4,356L324.4,356c-4.4,0-8-3.6-8-8V225.6c0-4.4,3.6-8,8-8l0,0c4.4,0,8,3.6,8,8V348
		C332.4,352.4,328.8,356,324.4,356z"/>
</g>
<path style="fill:#E6E9EE;" d="M376.4,194.4H131.6c-7.6,0-13.6-6-13.6-13.6l0,0c0-7.6,6-13.6,13.6-13.6h244.8
	c7.6,0,13.6,6,13.6,13.6l0,0C390,188.4,384,194.4,376.4,194.4z"/>
<g>
	<circle style="fill:#2B3B4E;" cx="354.8" cy="226.4" r="7.6"/>
	<circle style="fill:#2B3B4E;" cx="354.8" cy="312" r="7.6"/>
	<circle style="fill:#2B3B4E;" cx="354.8" cy="397.6" r="7.6"/>
	<circle style="fill:#2B3B4E;" cx="154" cy="226.4" r="7.6"/>
	<circle style="fill:#2B3B4E;" cx="154" cy="312" r="7.6"/>
	<circle style="fill:#2B3B4E;" cx="154" cy="397.6" r="7.6"/>
</g>
<g>
</g>
<g>
</g>
<g>
</g>
<g>
</g>
<g>
</g>
<g>
</g>
<g>
</g>
<g>
</g>
<g>
</g>
<g>
</g>
<g>
</g>
<g>
</g>
<g>
</g>
<g>
</g>
<g>
</g>
</svg>
