<?xml version="1.0" encoding="iso-8859-1"?>
<!-- Generator: Adobe Illustrator 19.0.0, SVG Export Plug-In . SVG Version: 6.00 Build 0)  -->
<svg version="1.1" id="Layer_1" xmlns="http://www.w3.org/2000/svg" xmlns:xlink="http://www.w3.org/1999/xlink" x="0px" y="0px"
	 viewBox="0 0 508 508" style="enable-background:new 0 0 508 508;" xml:space="preserve">
<circle style="fill:#90DFAA;" cx="254" cy="254" r="254"/>
<g>
	<path style="fill:#324A5E;" d="M367.2,184.8h-23.6c-2,0-3.6-1.6-3.6-3.6v-28.4c0-2,1.6-3.6,3.6-3.6h23.6c2,0,3.6,1.6,3.6,3.6v28.4
		C370.8,183.2,369.2,184.8,367.2,184.8z"/>
	<path style="fill:#324A5E;" d="M164.4,184.8h-23.6c-2,0-3.6-1.6-3.6-3.6v-28.4c0-2,1.6-3.6,3.6-3.6h23.6c2,0,3.6,1.6,3.6,3.6v28.4
		C168,183.2,166.4,184.8,164.4,184.8z"/>
</g>
<path style="fill:#FFFFFF;" d="M402,390.4H106c-6,0-10.8-4.8-10.8-10.8V182.4c0-6,4.8-10.8,10.8-10.8h296c6,0,10.8,4.8,10.8,10.8
	v197.2C412.8,385.6,408,390.4,402,390.4z"/>
<g>
	<path style="fill:#FF7058;" d="M374.4,213.6h-13.2v-13.2c0-0.8-0.8-1.6-1.6-1.6h-8.4c-0.8,0-1.6,0.8-1.6,1.6v13.2h-13.2
		c-0.8,0-1.6,0.8-1.6,1.6v8.4c0,0.8,0.8,1.6,1.6,1.6h13.2v13.2c0,0.8,0.8,1.6,1.6,1.6h8.4c0.8,0,1.6-0.8,1.6-1.6v-13.2h13.2
		c0.8,0,1.6-0.8,1.6-1.6v-8.4C376,214.4,375.2,213.6,374.4,213.6z"/>
	<path style="fill:#FF7058;" d="M171.6,213.6h-38c-0.8,0-1.6,0.8-1.6,1.6v8.4c0,0.8,0.8,1.6,1.6,1.6h38c0.8,0,1.6-0.8,1.6-1.6v-8.4
		C173.2,214.4,172.4,213.6,171.6,213.6z"/>
</g>
<g>
</g>
<g>
</g>
<g>
</g>
<g>
</g>
<g>
</g>
<g>
</g>
<g>
</g>
<g>
</g>
<g>
</g>
<g>
</g>
<g>
</g>
<g>
</g>
<g>
</g>
<g>
</g>
<g>
</g>
</svg>
