<?xml version="1.0" encoding="iso-8859-1"?>
<!-- Generator: Adobe Illustrator 19.0.0, SVG Export Plug-In . SVG Version: 6.00 Build 0)  -->
<svg version="1.1" id="Layer_1" xmlns="http://www.w3.org/2000/svg" xmlns:xlink="http://www.w3.org/1999/xlink" x="0px" y="0px"
	 viewBox="0 0 508 508" style="enable-background:new 0 0 508 508;" xml:space="preserve">
<circle style="fill:#FD8469;" cx="254" cy="254" r="254"/>
<rect x="214.8" y="102" style="fill:#E6E9EE;" width="78.4" height="127.2"/>
<g>
	<circle style="fill:#FFFFFF;" cx="254" cy="306.8" r="119.2"/>
	<path style="fill:#FFFFFF;" d="M292.8,121.2h-77.6c-10.8,0-19.6-8.8-19.6-19.6l0,0c0-10.8,8.8-19.6,19.6-19.6h78
		c10.8,0,19.6,8.8,19.6,19.6l0,0C312.8,112.4,304,121.2,292.8,121.2z"/>
</g>
<path style="fill:#324A5E;" d="M323.2,320c-7.6,4.8-16.4,6.4-24.8,5.6c1.2-4,2-8.4,2-12.8c0-22.4-15.6-40.8-36.8-45.2
	c3.2-7.6,9.2-14.4,16.8-19.2c7.2-4.4,15.2-6.4,23.2-6c-10.8-2-22.4-0.4-32.8,6c-7.2,4.4-12.8,10-16.4,16.8
	c-4-6.8-9.6-12.4-16.4-16.8c-10.4-6-22-8-32.8-6c8-0.4,16,1.6,23.2,6c7.6,4.8,13.6,11.6,16.8,19.2c-20.8,4.4-36.8,22.8-36.8,45.2
	c0,4.4,0.8,8.8,2,12.8c-8.4,0.8-16.8-1.2-24.8-5.6c-7.2-4.4-12.8-10.4-16-17.6c3.2,10.4,10.4,20,20.8,26c7.6,4.4,16,6.8,24,6.8
	c-4,6.8-6.4,14.8-6.4,23.6c0,12,4.4,22.8,12,31.2c-4.4-6.4-6.8-14.4-6.8-22.8c0-8.8,2.8-16.8,7.6-23.6c8.4,9.6,20.8,15.2,34.4,15.2
	s26-6,34.4-15.2c4.8,6.8,7.6,14.8,7.6,23.6c0,8.4-2.4,16.4-6.8,22.8c7.2-8.4,12-19.2,12-31.2c0-8.4-2.4-16.8-6.4-23.6
	c8.4,0,16.4-2,24-6.8c10.4-6,17.2-15.6,20.8-26C335.6,309.6,330.4,315.6,323.2,320z M254,304c4.4,0,8,3.6,8,8s-3.6,8-8,8s-8-3.6-8-8
	S249.6,304,254,304z M217.6,324.4c-1.2-3.6-2-7.6-2-11.6c0-18.8,13.6-34.4,31.2-37.6c0.4,2.4,0.8,4.8,1.2,7.6
	c-0.4,2.4-0.4,4.8-0.4,7.2c-0.8,5.2-2.4,10.8-5.6,15.6c-3.2,5.6-7.6,10-12.4,13.2c-0.4,0.4-0.8,0.8-1.6,0.8
	C224.8,322,221.2,323.6,217.6,324.4z M254,351.2c-11.6,0-22-5.2-29.2-13.6c2.4-2.4,5.6-4.8,8.8-6.4c1.2-0.4,2-0.8,2.8-1.6
	c5.2-2.4,11.2-4,17.6-4s12.4,1.6,17.6,4c0.8,0.4,2,1.2,2.8,1.6c3.2,1.6,6,4,8.8,6.4C276,345.6,265.6,351.2,254,351.2z M290.4,324.4
	c-3.6-1.2-7.6-2.8-10.8-4.8c-0.4-0.4-0.8-0.4-1.2-0.8c-4.8-3.2-9.2-7.6-12.4-13.2c-2.8-4.8-4.8-10.4-5.6-15.6c0-2.4,0-4.8-0.4-7.2
	c0-2.4,0.4-5.2,1.2-7.6c17.6,3.2,31.2,18.8,31.2,37.6C292.4,316.8,291.6,320.8,290.4,324.4z"/>
<g>
</g>
<g>
</g>
<g>
</g>
<g>
</g>
<g>
</g>
<g>
</g>
<g>
</g>
<g>
</g>
<g>
</g>
<g>
</g>
<g>
</g>
<g>
</g>
<g>
</g>
<g>
</g>
<g>
</g>
</svg>
