<?xml version="1.0" encoding="iso-8859-1"?>
<!-- Generator: Adobe Illustrator 19.0.0, SVG Export Plug-In . SVG Version: 6.00 Build 0)  -->
<svg version="1.1" id="Layer_1" xmlns="http://www.w3.org/2000/svg" xmlns:xlink="http://www.w3.org/1999/xlink" x="0px" y="0px"
	 viewBox="0 0 508.4 508.4" style="enable-background:new 0 0 508.4 508.4;" xml:space="preserve">
<g>
	<circle style="fill:#54C0EB;" cx="254.2" cy="254" r="254"/>
	<path style="fill:#54C0EB;" d="M508.2,254c0,126-91.6,230.4-212,250.4c-13.6,2.4-27.6,3.6-42,3.6c-18,0-35.6-2-52.8-5.6
		C86.6,478.4,0.2,376.4,0.2,254c0-126,91.6-230.4,212-250.4c13.6-2.4,27.6-3.6,42-3.6c18,0,35.6,2,52.8,5.6
		C421.8,29.6,508.2,131.6,508.2,254z"/>
</g>
<g>
	<path style="fill:#FFD05B;" d="M219.8,264.8c-0.8,1.6-0.4,3.6-0.4,5.6c0,6.8-2.8,12.8-4.4,19.2c0.4-2.8,0.8-5.6,1.2-8
		c0.4-1.6,1.2-3.6,1.2-5.2c0.4-2,0.4-4,0-5.6c-0.4-2-0.4-4-1.2-6c-0.4,1.2,0,2.4,0,4c0.4,4.8-0.8,9.6-2,14.8c0-3.6,0-6.8,0-10.4
		c-0.4,2-0.4,4-0.8,6c0-4-0.4-8-0.8-12c0,2.4,0,4.8,0.4,7.2c0-1.2,0-2.4,0-3.6c0,1.6-0.4,3.2-0.4,4.8c0-3.2-0.4-6.4-0.8-9.2
		c0.4,5.6,0.8,12-0.4,19.2c-0.8-4.8-1.6-9.2-1.6-13.2c0-0.4,0-0.8,0-1.2v0.4c0-0.8,0-1.6,0-2.4c0,0.8,0,2-0.4,2.8c0-0.8,0-2-0.4-2.8
		c0,0.8,0,1.6,0,2.4v-0.4c0,0.4,0,0.8,0,1.2c0,4-0.8,8.4-1.6,13.2c-0.8-7.2-0.4-13.6-0.4-19.2c-0.4,2.8-0.4,6-0.8,9.2
		c0-1.6-0.4-3.2-0.4-4.8c0,1.2,0,2.4,0,3.6c0-2.4,0-4.8,0.4-7.2c-0.4,4-0.4,8-0.8,12c0-2-0.4-4-0.8-6c0,3.6,0,6.8,0,10.4
		c-1.2-5.6-2.4-10.4-2-14.8c0-1.2,0.4-2.8,0-4c-0.4,2-0.8,4-1.2,6c0,2-0.4,3.6,0,5.6c0.4,1.6,0.8,3.2,1.2,5.2c0.8,2.4,0.8,5.2,1.2,8
		c-2-6.4-4.8-12.8-4.4-19.2c0-2,0.4-3.6-0.4-5.6c-0.4,2.8-0.8,5.6-0.8,8.4c0,2.4,0,4.8,0.8,7.2c0.4,2,1.6,3.6,2,5.6
		c1.6,4,2.4,8,2.8,12c0,0.8-0.4,1.6-0.4,2c0.4,0,0.4,0.4,0.8,0.4c0,2.4,0.4,4.8,0.4,7.2c2-0.4,3.2-1.6,4.8-2.8
		c1.6,1.2,2.8,2.4,4.8,2.8c0-2.4,0.4-4.8,0.4-7.2c0.4,0,0.4-0.4,0.8-0.4c0-0.8-0.4-1.2-0.4-2c0.4-4,1.2-8.4,2.8-12
		c0.8-2,1.6-3.6,2-5.6c0.8-2.4,0.8-4.8,0.8-7.2C220.6,270.4,220.6,267.6,219.8,264.8z M209.8,291.6
		C209.8,291.2,209.8,291.2,209.8,291.6c0-0.4,0-0.8,0-1.6C209.8,290.4,209.8,290.8,209.8,291.6C209.8,291.2,209.8,291.2,209.8,291.6
		z"/>
	<path style="fill:#FFD05B;" d="M256.6,316.4c-2.8-1.2-5.6-2.8-8.8-4c0.4-3.6-0.8-7.6-1.2-11.2c-1.2-5.6-1.2-11.2-1.2-16.8
		c1.6,3.2,2.8,6.8,3.6,10.4c0.4,2,0.4,4,0.4,6c0,2.4,0,5.2,0.4,7.6c2-1.2,2.4-3.6,2.4-5.6c0.4-8.4-1.2-16.8-2.4-25.2
		c4.8,10,6.8,21.6,5.2,32.8c1.6-10,1.2-20,0.8-30c1.2,9.6,2.4,19.6,3.2,29.2c0.8-9.6,0.8-19.6,0-29.2c0.8,5.6,1.6,11.6,1.6,17.2
		c0,3.6-0.4,7.6-0.8,11.2c0,2-0.4,3.6-0.4,5.6c0,1.2-0.4,2.4-1.6,2.4C257.4,316.8,257,316.4,256.6,316.4z"/>
	<path style="fill:#FFD05B;" d="M305.8,280.8c-0.8,10.8,1.6,21.6-1.6,31.6c-0.4,1.6-1.6,3.6-3.2,4c-1.6,0.4-2.8-0.8-4-2
		c-0.8-1.2-1.6-2.4-2.8-3.6c-0.8-0.8-1.2-1.2-1.2-2.4c0-0.4,0.4-0.8,0.4-1.2c1.6-3.2,2-7.2,1.6-11.2c-0.4-3.6-1.2-7.6-1.2-11.2
		c2.4,6.4,2.8,14,1.2,20.8c-0.4,1.6-1.2,3.2-0.8,4.8c1.6-2,2-4.4,2.4-6.8c0.8-7.2,0.4-14-0.8-21.2c2,10,2.8,20,2,30.4
		c0.8-10.8-0.8-22,2-32.4c-1.6,11.2,4,22.8,0.8,33.6c-0.8-6.8-0.4-13.6,1.2-20c0.4-2.4,1.2-5.2,1.6-7.6c0.4-2.4,0-4.8,1.2-6.8
		c0,6.8,0,13.2,0,20c0,2,0,3.6,0,5.6c0,1.6-0.4,3.2-0.8,4.4c-0.4,1.6-0.8,3.6-1.2,5.2C305.4,303.6,306.2,292,305.8,280.8z"/>
	<path style="fill:#FFD05B;" d="M303.4,280.8c-0.8,10.8,1.6,21.6-1.6,31.6c-0.4,1.6-1.6,3.6-3.2,4c-1.6,0.4-2.8-0.8-4-2
		s-1.6-2.4-2.8-3.6c-0.8-0.8-1.2-1.2-1.2-2.4c0-0.4,0.4-0.8,0.4-1.2c1.6-3.2,2-7.2,1.6-11.2c-0.4-3.6-1.2-7.6-1.2-11.2
		c2.4,6.4,2.8,14,1.2,20.8c-0.4,1.6-1.2,3.2-0.8,4.8c1.6-2,2-4.4,2.4-6.8c0.8-7.2,0.4-14-0.8-21.2c2,10,2.8,20,2,30.4
		c0.8-10.8-0.8-22,2-32.4c-1.6,11.2,4,22.8,0.8,33.6c-0.8-6.8-0.4-13.6,1.2-20c0.4-2.4,1.2-5.2,1.6-7.6c0.4-2.4,0-4.8,1.2-6.8
		c0,6.8,0,13.2,0,20c0,2,0,3.6,0,5.6c0,1.6-0.4,3.2-0.8,4.4c-0.4,1.6-0.8,3.6-1.2,5.2C303,303.6,304.2,292,303.4,280.8z"/>
	<path style="fill:#FFD05B;" d="M291,280.8c0.8,10.8-1.6,21.6,1.6,31.6c0.4,1.6,1.6,3.6,3.2,4c1.6,0.4,2.8-0.8,4-2
		c0.8-1.2,1.6-2.4,2.8-3.6c0.8-0.8,1.2-1.2,1.2-2.4c0-0.4-0.4-0.8-0.4-1.2c-1.6-3.2-2-7.2-1.6-11.2c0.4-3.6,1.2-7.6,1.2-11.2
		c-2.4,6.4-2.8,14-1.2,20.8c0.4,1.6,1.2,3.2,0.8,4.8c-1.6-2-2-4.4-2.4-6.8c-0.8-7.2-0.4-14,0.8-21.2c-2,10-2.8,20-2,30.4
		c-0.8-10.8,0.8-22-2-32.4c1.6,11.2-4,22.8-0.8,33.6c0.8-6.8,0.4-13.6-1.2-20c-0.4-2.4-1.2-5.2-1.6-7.6c-0.4-2.4,0-4.8-1.2-6.8
		c0,6.8,0,13.2,0,20c0,2,0,3.6,0,5.6c0,1.6,0.4,3.2,0.8,4.4c0.4,1.6,0.8,3.6,1.2,5.2C291.4,303.6,290.6,292,291,280.8z"/>
</g>
<path style="fill:#FFFFFF;" d="M265.4,419.6c-1.2-12.4,0.4-24.8,5.6-36.4c1.6-3.6,3.6-7.2,5.6-10.8c2-3.6,3.6-6.8,5.2-10
	c4-9.2,5.2-19.6,6.4-29.6l3.2-26l16,2l-3.2,26c-1.2,10.8-2.8,22.8-7.6,34c-1.6,4-4,8-6,11.6c-1.6,3.2-3.6,6.4-4.8,9.2
	c-4,8.8-5.2,18.4-4.4,28L265.4,419.6z"/>
<path style="fill:#FF7058;" d="M250.6,423.6L235,420c4-18.4,8-37.2,10-55.6c2-18.8,1.2-38.4,0.8-57.2l16-0.4
	c0.4,19.2,1.2,39.6-0.8,59.2S255,405.2,250.6,423.6z"/>
<path style="fill:#E6E9EE;" d="M227.8,424l-16-0.8l4-69.6c0.4-5.2,0.4-10-0.4-14.4c-0.8-4.4-3.2-9.2-5.6-14
	c-4-7.6-8.4-16.4-7.6-26.4l16,1.2c-0.4,5.6,2.4,11.6,6,18.4c2.8,5.6,5.6,11.6,7.2,18c1.2,6.4,0.8,12.8,0.8,18.4L227.8,424z"/>
<path style="fill:#324A5E;" d="M296.2,404v100.8c-13.6,2.4-27.6,3.6-42,3.6c-18,0-35.6-2-52.8-5.6V404H296.2z"/>
<g>
	<path style="fill:#FFD05B;" d="M307,230.4c-0.4-1.6-0.8-3.6-1.6-5.2c-1.2-4.4-1.6-8.8-2-14c0-0.4,0-0.8,0.4-1.2c0,0,0,0-0.4,0
		c0-2.8,0-6,0-9.2c-2,0.4-3.6,2.4-5.2,4c-1.6-2-2.8-3.6-4.8-4c0,0.4,0,0.8,0,1.2c-0.8-0.4-1.6-1.2-2.4-1.2c0,9.2,0,17.6-2,24.8
		c-0.4,2-1.2,3.6-1.6,5.2c-0.4,2-0.4,4,0,6c0,2.4,0.4,4.4,1.2,6.8c0.4-1.2,0-2.8,0-4.4c-0.8-7.6,3.2-15.2,3.6-24.4c0,1.2,0,2,0,3.2
		c-0.4,2.4-0.8,4.8-1.2,7.2c-0.4,2-1.2,3.6-1.6,5.2c-0.4,2-0.4,4-0.4,6c0,2.4,0.4,4.4,1.2,6.8c0.4-1.2,0.4-2.8,0-4.4
		c-0.4-4.4,0.8-9.2,2.4-14c0.4,6,0.4,11.6,1.2,16.4c-0.4-6.4-0.8-13.6,0.4-21.6c0,1.2,0,2.4,0,3.6c0,4.8,0.4,9.2,0.4,13.2
		c0-1.2,0.4-2.4,0.4-3.6c0,2.8,0.4,5.6,0.4,8.4c-0.4-6.4-0.8-13.2,0.4-20.8c-0.4,6.4-0.4,12.4,0.4,18c0-4,0-8,0.8-12
		c0.4,1.6,0.4,3.2,0.4,4.8s0,3.2,0.4,4.8c0,0.8,0,1.6,0,2c0-0.4,0-0.8,0-1.2c0,0.4,0,0.8,0,1.2c0-0.8,0-1.6,0-2
		c0-1.6,0.4-3.2,0.4-4.8s0.4-3.2,0.8-4.4c0,3.6,0.4,6.8,0.8,9.6c0-4,0.4-8.4,0.4-13.2c0-0.8,0-2,0-2.8V220
		c1.2,7.6,0.8,14.8,0.4,21.2c0.4-2.8,0.4-5.6,0.8-8.4c0,1.2,0,2.4,0.4,3.6c0-4,0.4-8.4,0.4-13.2c0-1.6,0-3.2,0.4-4.8
		c1.2,7.6,4,14,3.2,20.4c0,1.6-0.4,2.8,0,4.4c0.4-2,0.8-4.4,1.2-6.8C307.4,234.4,307.4,232.4,307,230.4z"/>
	<path style="fill:#FFD05B;" d="M261.4,220c0.4,1.2,0.8,2.4,1.6,3.6c0-1.2,0-2,0-3.2c0.4,1.2,0.8,2,1.6,3.2c0-5.6,0-11.2-1.2-16.8
		c-0.8-3.6-1.6-7.6-1.2-11.2c-0.4,0-0.8-0.4-1.2-0.4c0-0.4,0-0.8,0-1.2c0-1.2-0.4-2.4-1.6-2.4c-0.4,0-0.8,0-1.2,0.4
		c-0.8,0.4-1.6,0.8-2.4,1.2c-0.8-0.4-1.6-0.8-2.4-1.2c-0.4,0-0.8-0.4-1.2-0.4c0,0-0.4,0-0.4,0.4c-0.4,0-0.8-0.4-0.8-0.4
		c-1.2,0-1.6,1.6-1.6,2.4c0,2-0.4,3.6-0.4,5.6c-0.4,2.4-0.4,5.2-0.8,7.6c-0.8,5.2-1.2,10.8-1.2,16.4c0.8-1.2,1.2-2.4,1.6-3.6
		c0.4,2.4,0.8,5.2,1.2,7.6c0-3.2-0.4-6.4-0.4-9.6c0-0.4,0.4-0.8,0.4-1.6c0.4,3.6,0.8,7.6,1.6,11.2c-0.4-6.4-0.4-12.8-0.4-18.8
		c0.4,4.4,0.8,8.8,1.6,13.2c-0.4,2.8-0.8,5.6-1.2,8.4c0.8-1.6,1.2-2.8,2-4.4c0,0.8,0,1.2,0.4,2c0-0.8,0-1.6,0-2
		c0.4-0.8,0.8-2,0.8-2.8c0.4,1.6,0.4,3.2,0.8,4.8c0-2,0-4-0.4-6c0.4-1.2,0.4-2,0.8-3.2c0.4,2.4,1.2,4.8,2,7.2c0,0.8,0,1.6,0,2
		c0-0.8,0-1.2,0.4-2c0.4,1.6,1.2,2.8,2,4.4c-0.4-2-0.8-4.4-1.2-6.4c0.8,2,1.6,4.4,2.4,6.4c-0.8-4.8-1.6-9.6-2-14.4
		c0.4-2.4,0.4-5.2,0.8-7.6c0,1.6,0,3.2,0.4,4.8c0.4,1.6,0.8,3.2,1.2,4.8c0,3.2,0,6.4-0.4,9.6C260.6,225.2,261,222.8,261.4,220z
		 M252.2,219.2c0-2.4,0-4.8,0-7.2c0,1.2,0.4,2.4,0.4,4C252.6,217.2,252.6,218.4,252.2,219.2z"/>
	<path style="fill:#FFD05B;" d="M202.6,227.2c0.4-4,0-8,0-12C202.6,219.2,202.6,223.2,202.6,227.2z"/>
	<path style="fill:#FFD05B;" d="M217.4,199.2c0-0.8-0.8-1.6-1.2-2.4c-1.2-1.2-1.6-2.4-2.8-3.6c-0.8-0.8-2-1.6-3.2-2l0,0h-0.4h-0.4
		l0,0c-0.4,0-0.4,0-0.8,0c-0.4,0-0.8-0.4-1.6,0c-0.8,0-1.6,0.8-2,1.6l0,0l0,0c-0.4,0.8-0.8,1.6-1.2,2.4c0,0.4-0.4,0.8-0.4,1.2l0,0
		c-0.8,0.8-1.2,1.2-1.2,2.4c0,0.4,0.4,0.8,0.4,1.2v0.4c-0.8,4.8-0.4,10-0.4,14.8c0-3.2,0.4-6.4,0.8-9.6c0,0.8,0,1.6,0,2.4
		c0,6.8,0,13.2,0,20c1.2-1.6,1.2-4,1.2-6c0,2,0,3.6,0,5.6c0-2.4,0-4.8,0-7.2c0-1.2,0.4-2.4,0.4-3.2c0,3.6,0,7.6,0,11.2
		c1.2-2,1.2-4.4,1.2-6.8c0-2,0.4-3.6,0.8-5.2c0,0.8,0,1.2,0.4,2c0,0.8,0,1.6,0,2c0,2.4,0.4,4.8,0,7.2c0.4-1.2,0.4-2,0.8-3.2
		c0,1.2,0.4,2.4,0.8,3.2c-0.4-2.4-0.4-4.8,0-7.2c0-0.8,0-1.6,0-2c0-1.2,0.4-2.4,0.4-3.6c0.4,4.4,1.2,8.8,0.4,13.2c0.4-2,0.8-4,0.8-6
		c0.4,1.2,0.4,2.8,0.8,4c-0.4-1.2-0.4-2.8-0.8-4c0.4-2,0.4-3.6,0.4-5.6c0.4,2,0.8,3.6,1.2,5.6c0.4,2.4,0,4.8,1.2,6.8
		c0-4.8,0-9.2,0-14c0,1.2,0.4,2.8,0.8,4c0,3.2,0,6,0,9.2c0-2.8,0-5.6,0-8.4c0.4,1.2,0.8,2.4,1.2,4c0-4-0.8-7.6-1.2-11.2
		c-0.4-4,0-7.6,1.6-11.2C217.4,200,217.4,199.6,217.4,199.2z M214.6,205.6c0,0.4,0,0.4,0,0.8v0.4C214.6,206.4,214.6,206,214.6,205.6
		z M215.4,202c0,0.4,0,0.8-0.4,1.2c0-0.8-0.4-1.6-0.4-2.8V200c0-0.4,0.4-0.8,0.4-1.2s0-0.4,0-0.8c0.4-0.4,0.4-0.8,0.8-1.2
		C216.2,198.8,215.8,200.4,215.4,202z"/>
</g>
<path style="fill:#FFFFFF;" d="M243,88.4c1.2,12.4-0.4,24.8-5.6,36.4c-1.6,3.6-3.6,7.2-5.6,10.8s-3.6,6.8-5.2,10
	c-4,9.2-5.2,19.6-6.4,29.6l-3.2,26l-16-2l3.2-26c1.2-10.8,2.8-22.8,7.6-34c1.6-4,4-8,6-11.6c1.6-3.2,3.6-6.4,4.8-9.2
	c4-8.8,5.2-18.4,4.4-28L243,88.4z"/>
<path style="fill:#FF7058;" d="M257.8,84.4l15.6,3.6c-4,18.4-8,37.2-10,55.6c-2,18.8-1.2,38.4-0.8,57.2l-16,0.4
	c-0.4-19.2-1.2-39.6,0.8-59.2S253.4,102.8,257.8,84.4z"/>
<path style="fill:#E6E9EE;" d="M280.6,84l16,0.8l-4,69.6c-0.4,5.2-0.4,10,0.4,14.4s3.2,9.2,5.6,14c4,7.6,8.4,16.4,7.6,26.4l-16-1.2
	c0.4-5.6-2.4-11.6-6-18.4c-2.8-5.6-5.6-11.6-7.2-18c-1.2-6.4-0.8-12.8-0.8-18.4L280.6,84z"/>
<path style="fill:#324A5E;" d="M307,5.6v98.8h-94.8V3.6c13.6-2.4,27.6-3.6,42-3.6C272.2,0,289.8,2,307,5.6z"/>
<g>
</g>
<g>
</g>
<g>
</g>
<g>
</g>
<g>
</g>
<g>
</g>
<g>
</g>
<g>
</g>
<g>
</g>
<g>
</g>
<g>
</g>
<g>
</g>
<g>
</g>
<g>
</g>
<g>
</g>
</svg>
