<?xml version="1.0" encoding="iso-8859-1"?>
<!-- Generator: Adobe Illustrator 19.0.0, SVG Export Plug-In . SVG Version: 6.00 Build 0)  -->
<svg version="1.1" id="Layer_1" xmlns="http://www.w3.org/2000/svg" xmlns:xlink="http://www.w3.org/1999/xlink" x="0px" y="0px"
	 viewBox="0 0 508 508" style="enable-background:new 0 0 508 508;" xml:space="preserve">
<circle style="fill:#324A5E;" cx="254" cy="254" r="254"/>
<path style="fill:#84DBFF;" d="M363.6,410.8H144.4c-8.4,0-15.2-6.8-15.2-15.2V126c0-8.4,6.8-15.2,15.2-15.2h218.8
	c8.4,0,15.2,6.8,15.2,15.2v269.6C378.8,404,372,410.8,363.6,410.8z"/>
<rect x="150.8" y="126.4" style="fill:#FFFFFF;" width="206.4" height="257.2"/>
<rect x="197.2" y="97.2" style="fill:#FF7058;" width="114" height="38"/>
<g>
	<rect x="179.2" y="274.8" style="fill:#E6E9EE;" width="149.2" height="9.6"/>
	<rect x="179.2" y="298.4" style="fill:#E6E9EE;" width="149.2" height="9.6"/>
	<rect x="179.2" y="322" style="fill:#E6E9EE;" width="149.2" height="9.6"/>
	<rect x="179.2" y="345.6" style="fill:#E6E9EE;" width="93.6" height="9.6"/>
</g>
<polygon style="fill:#FFD05B;" points="278.4,197.6 258.8,197.6 269.2,151.2 229.6,208.8 249.2,208.8 238.8,254.8 "/>
<g>
</g>
<g>
</g>
<g>
</g>
<g>
</g>
<g>
</g>
<g>
</g>
<g>
</g>
<g>
</g>
<g>
</g>
<g>
</g>
<g>
</g>
<g>
</g>
<g>
</g>
<g>
</g>
<g>
</g>
</svg>
