<?xml version="1.0" encoding="iso-8859-1"?>
<!-- Generator: Adobe Illustrator 19.0.0, SVG Export Plug-In . SVG Version: 6.00 Build 0)  -->
<svg version="1.1" id="Layer_1" xmlns="http://www.w3.org/2000/svg" xmlns:xlink="http://www.w3.org/1999/xlink" x="0px" y="0px"
	 viewBox="0 0 508 508" style="enable-background:new 0 0 508 508;" xml:space="preserve">
<circle style="fill:#90DFAA;" cx="254" cy="254" r="254"/>
<g>
	<rect x="96.8" y="216" style="fill:#324A5E;" width="314" height="193.6"/>
	<path style="fill:#324A5E;" d="M388,241.2h22.8c1.6,0,2.8-1.2,2.8-2.8v-22.8c0-1.6-1.2-2.8-2.8-2.8H388c-1.6,0-2.8,1.2-2.8,2.8V238
		C385.2,239.6,386.4,241.2,388,241.2z"/>
	<path style="fill:#324A5E;" d="M388,413.6h22.8c1.6,0,2.8-1.2,2.8-2.8V388c0-1.6-1.2-2.8-2.8-2.8H388c-1.6,0-2.8,1.2-2.8,2.8v22.8
		C385.2,412.4,386.4,413.6,388,413.6z"/>
	<path style="fill:#324A5E;" d="M96.4,241.2h22.8c1.6,0,2.8-1.2,2.8-2.8v-22.8c0-1.6-1.2-2.8-2.8-2.8H96.4c-1.6,0-2.8,1.2-2.8,2.8
		V238C93.6,239.6,94.8,241.2,96.4,241.2z"/>
	<path style="fill:#324A5E;" d="M96.4,413.6h22.8c1.6,0,2.8-1.2,2.8-2.8V388c0-1.6-1.2-2.8-2.8-2.8H96.4c-1.6,0-2.8,1.2-2.8,2.8
		v22.8C93.6,412.4,94.8,413.6,96.4,413.6z"/>
</g>
<g>
	<rect x="112.4" y="233.2" style="fill:#2B3B4E;" width="12.4" height="159.2"/>
	<rect x="135.2" y="233.2" style="fill:#2B3B4E;" width="12.4" height="159.2"/>
	<rect x="157.6" y="233.2" style="fill:#2B3B4E;" width="12.4" height="159.2"/>
	<rect x="180" y="233.2" style="fill:#2B3B4E;" width="12.4" height="159.2"/>
	<rect x="202.8" y="233.2" style="fill:#2B3B4E;" width="12.4" height="159.2"/>
	<rect x="225.2" y="233.2" style="fill:#2B3B4E;" width="12.4" height="159.2"/>
	<rect x="247.6" y="233.2" style="fill:#2B3B4E;" width="12.4" height="159.2"/>
	<rect x="270.4" y="233.2" style="fill:#2B3B4E;" width="12.4" height="159.2"/>
	<rect x="292.8" y="233.2" style="fill:#2B3B4E;" width="12.4" height="159.2"/>
	<rect x="315.2" y="233.2" style="fill:#2B3B4E;" width="12.4" height="159.2"/>
	<rect x="338" y="233.2" style="fill:#2B3B4E;" width="12.4" height="159.2"/>
	<rect x="360.4" y="233.2" style="fill:#2B3B4E;" width="12.4" height="159.2"/>
	<rect x="382.8" y="233.2" style="fill:#2B3B4E;" width="12.4" height="159.2"/>
</g>
<g>
	<circle style="fill:#FFFFFF;" cx="402.4" cy="222.4" r="5.2"/>
	<circle style="fill:#FFFFFF;" cx="402.4" cy="402.8" r="5.2"/>
	<circle style="fill:#FFFFFF;" cx="104.4" cy="222.4" r="5.2"/>
	<circle style="fill:#FFFFFF;" cx="104.4" cy="402.8" r="5.2"/>
	<path style="fill:#FFFFFF;" d="M268.4,162.4c-1.6,1.2-3.2,1.6-5.2,2c-1.2,0.4-2,0.4-3.2,0.4c-3.2,0-6-0.8-8.4-2.8
		c-0.4,0-0.4-0.4-0.8-0.4c-1.2-1.2-2.4-2.4-3.2-4c-1.2-2.4-2-4.8-2-7.6c0-1.6,1.2-2.8,2.8-2.8s2.8,1.2,2.8,2.8c0,2,0.4,3.6,1.6,5.2
		c0.4,0.8,1.2,1.2,1.6,2c1.2,0.8,2.8,1.6,4,2c0.8,0,2,0,3.2,0L268.4,162.4z"/>
	<path style="fill:#FFFFFF;" d="M274.4,153.2c-0.4,1.6-1.2,3.2-2,4.8c-1.2,1.6-2.4,3.2-4.4,4.4l-6.8-3.2h0.4c2-0.4,4-1.6,5.2-3.6
		c0.8-1.2,1.2-2.4,1.6-3.6c0.8-3.6-0.4-7.2-3.6-9.2c-5.2-4-8.4-10-8.4-16v-17.2c0-1.6,1.2-2.8,2.8-2.8c1.6,0,2.8,1.2,2.8,2.8v17.2
		c0,4.4,2.4,8.8,6,11.6C273.6,142,275.6,147.6,274.4,153.2z"/>
</g>
<path style="fill:#E6E9EE;" d="M286,96.8c0,14.4-11.6,26-26,26s-26-11.6-26-26s11.6-53.2,26-53.2C274.4,43.6,286,82.4,286,96.8z"/>
<circle style="fill:#ACB3BA;" cx="260" cy="97.2" r="17.2"/>
<circle style="fill:#CED5E0;" cx="260" cy="97.2" r="7.6"/>
<circle style="fill:#ACB3BA;" cx="260" cy="61.6" r="9.2"/>
<circle style="fill:#CED5E0;" cx="260" cy="61.6" r="4"/>
<g>
	<path style="fill:#E6E9EE;" d="M251.6,162l-146,62.8c-0.4,0-0.8,0.4-1.2,0.4c-1.2,0-2-0.8-2.8-1.6c-0.8-1.6,0-3.2,1.6-4l144-62
		c0.8,1.6,2,2.8,3.2,4C251.2,161.6,251.2,162,251.6,162z"/>
	<path style="fill:#E6E9EE;" d="M405.2,223.6c-0.8,1.6-2.4,2-4,1.2l-132.8-62.4l-6.8-3.2l-1.6-0.8l-1.6,0.8c-1.6-0.4-2.8-0.8-4-2
		c-0.8-0.4-1.2-1.2-1.6-2l7.6-3.2l7.2,3.6l5.2,2.4L404,219.6C405.2,220.4,405.6,222,405.2,223.6z"/>
</g>
<g>
</g>
<g>
</g>
<g>
</g>
<g>
</g>
<g>
</g>
<g>
</g>
<g>
</g>
<g>
</g>
<g>
</g>
<g>
</g>
<g>
</g>
<g>
</g>
<g>
</g>
<g>
</g>
<g>
</g>
</svg>
