<?xml version="1.0" encoding="iso-8859-1"?>
<!-- Generator: Adobe Illustrator 19.0.0, SVG Export Plug-In . SVG Version: 6.00 Build 0)  -->
<svg version="1.1" id="Layer_1" xmlns="http://www.w3.org/2000/svg" xmlns:xlink="http://www.w3.org/1999/xlink" x="0px" y="0px"
	 viewBox="0 0 508 508" style="enable-background:new 0 0 508 508;" xml:space="preserve">
<circle style="fill:#324A5E;" cx="254" cy="254" r="254"/>
<polygon style="fill:#ACB3BA;" points="88.8,168 254,402.8 419.2,168 "/>
<g>
	<polygon style="fill:#E6E9EE;" points="367.2,109.2 140.8,109.2 88.8,168 419.2,168 	"/>
	<polygon style="fill:#E6E9EE;" points="168,168 254,402.8 340,168 	"/>
</g>
<polygon style="fill:#CED5E0;" points="168,168 254,109.6 340,168 "/>
<g>
	<polygon style="fill:#CED5E0;" points="367.2,109.2 340,168 419.2,168 	"/>
	<polygon style="fill:#CED5E0;" points="88.8,168 140.8,109.2 168,168 	"/>
</g>
<g>
	<polygon style="fill:#FFFFFF;" points="352,173.2 401.2,166.4 352,159.2 366.4,140 347.2,154.4 340,105.2 333.2,154.4 313.6,140 
		328,159.2 279.2,166.4 328,173.2 313.6,192.8 333.2,178 340,227.2 347.2,178 366.4,192.8 	"/>
	<polygon style="fill:#FFFFFF;" points="173.2,169.6 195.2,166.4 173.2,163.2 179.6,154.4 171.2,160.8 168,138.8 164.8,160.8 
		156,154.4 162.8,163.2 140.8,166.4 162.8,169.6 156,178 164.8,171.6 168,193.6 171.2,171.6 179.6,178 	"/>
</g>
<g>
</g>
<g>
</g>
<g>
</g>
<g>
</g>
<g>
</g>
<g>
</g>
<g>
</g>
<g>
</g>
<g>
</g>
<g>
</g>
<g>
</g>
<g>
</g>
<g>
</g>
<g>
</g>
<g>
</g>
</svg>
