<?xml version="1.0" encoding="iso-8859-1"?>
<!-- Generator: Adobe Illustrator 19.0.0, SVG Export Plug-In . SVG Version: 6.00 Build 0)  -->
<svg version="1.1" id="Layer_1" xmlns="http://www.w3.org/2000/svg" xmlns:xlink="http://www.w3.org/1999/xlink" x="0px" y="0px"
	 viewBox="0 0 508 508" style="enable-background:new 0 0 508 508;" xml:space="preserve">
<circle style="fill:#FD8469;" cx="254" cy="254" r="254"/>
<path style="fill:#FFD05B;" d="M439.6,235.2L272,67.6c-10-10-26-10-35.6,0l-168,167.6c-10,10-10,26,0,35.6L236,438.4
	c10,10,26,10,35.6,0l167.6-167.6C449.2,260.8,449.2,244.8,439.6,235.2z"/>
<g>
	<path style="fill:#FFFFFF;" d="M254,428c-1.2,0-3.2-0.4-5.2-2L81.2,258.4c-2-2-2-4-2-5.2s0.4-3.2,2-5.2L248.8,80.4c2-2,4-2,5.2-2
		c1.2,0,3.2,0.4,5.2,2L426.8,248c1.2,1.2,2,3.2,2,5.2c0,1.2-0.4,3.2-2,5.2L259.2,426C258,427.2,256,428,254,428z M92.8,252.8
		L254,414l161.2-161.2L254,91.6L92.8,252.8z"/>
	<polygon style="fill:#FFFFFF;" points="302.4,246.4 263.6,246.4 275.2,173.6 205.6,259.6 244.4,259.6 232.8,332.4 	"/>
</g>
<g>
</g>
<g>
</g>
<g>
</g>
<g>
</g>
<g>
</g>
<g>
</g>
<g>
</g>
<g>
</g>
<g>
</g>
<g>
</g>
<g>
</g>
<g>
</g>
<g>
</g>
<g>
</g>
<g>
</g>
</svg>
