<?xml version="1.0" encoding="iso-8859-1"?>
<!-- Generator: Adobe Illustrator 19.0.0, SVG Export Plug-In . SVG Version: 6.00 Build 0)  -->
<svg version="1.1" id="Layer_1" xmlns="http://www.w3.org/2000/svg" xmlns:xlink="http://www.w3.org/1999/xlink" x="0px" y="0px"
	 viewBox="0 0 508 508" style="enable-background:new 0 0 508 508;" xml:space="preserve">
<circle style="fill:#90DFAA;" cx="254" cy="254" r="254"/>
<g>
	<rect x="338" y="138.8" style="fill:#2B3B4E;" width="11.2" height="5.2"/>
	<rect x="338" y="150.4" style="fill:#2B3B4E;" width="11.2" height="5.2"/>
	<path style="fill:#2B3B4E;" d="M338,162h11.2v0.8c0,3.2-5.6,9.2-5.6,9.2s-5.6-6.4-5.6-9.2V162z"/>
</g>
<g>
	<path style="fill:#324A5E;" d="M355.2,135.6c0,1.6-1.6,3.2-3.2,3.2h-16.4c-1.6,0-3.2-1.6-3.2-3.2c0-1.6,1.6-3.2,3.2-3.2H352
		C353.6,132,355.2,133.6,355.2,135.6z"/>
	<path style="fill:#324A5E;" d="M355.2,147.2c0,1.6-1.6,3.2-3.2,3.2h-16.4c-1.6,0-3.2-1.6-3.2-3.2c0-1.6,1.6-3.2,3.2-3.2H352
		C353.6,144,355.2,145.2,355.2,147.2z"/>
	<path style="fill:#324A5E;" d="M355.2,158.8c0,1.6-1.6,3.2-3.2,3.2h-16.4c-1.6,0-3.2-1.6-3.2-3.2c0-1.6,1.6-3.2,3.2-3.2H352
		C353.6,155.6,355.2,157.2,355.2,158.8z"/>
</g>
<g>
	<rect x="378.4" y="230.8" style="fill:#2B3B4E;" width="11.2" height="5.2"/>
	<rect x="378.4" y="242.4" style="fill:#2B3B4E;" width="11.2" height="5.2"/>
	<path style="fill:#2B3B4E;" d="M378.4,254h11.2v0.8c0,3.2-5.6,9.2-5.6,9.2s-5.6-6.4-5.6-9.2V254z"/>
</g>
<g>
	<path style="fill:#324A5E;" d="M395.2,227.6c0,1.6-1.6,3.2-3.2,3.2h-16.4c-1.6,0-3.2-1.6-3.2-3.2c0-1.6,1.6-3.2,3.2-3.2H392
		C394,224.4,395.2,225.6,395.2,227.6z"/>
	<path style="fill:#324A5E;" d="M395.2,239.2c0,1.6-1.6,3.2-3.2,3.2h-16.4c-1.6,0-3.2-1.6-3.2-3.2c0-1.6,1.6-3.2,3.2-3.2H392
		C394,236,395.2,237.6,395.2,239.2z"/>
	<path style="fill:#324A5E;" d="M395.2,250.8c0,1.6-1.6,3.2-3.2,3.2h-16.4c-1.6,0-3.2-1.6-3.2-3.2c0-1.6,1.6-3.2,3.2-3.2H392
		C394,247.6,395.2,249.2,395.2,250.8z"/>
</g>
<g>
	<rect x="317.2" y="230.8" style="fill:#2B3B4E;" width="11.2" height="5.2"/>
	<rect x="317.2" y="242.4" style="fill:#2B3B4E;" width="11.2" height="5.2"/>
	<path style="fill:#2B3B4E;" d="M317.2,254h11.2v0.8c0,3.2-5.6,9.2-5.6,9.2s-5.6-6.4-5.6-9.2V254z"/>
</g>
<g>
	<path style="fill:#324A5E;" d="M334,227.6c0,1.6-1.6,3.2-3.2,3.2h-16.4c-1.6,0-3.2-1.6-3.2-3.2c0-1.6,1.6-3.2,3.2-3.2h16.4
		C332.8,224.4,334,225.6,334,227.6z"/>
	<path style="fill:#324A5E;" d="M334,239.2c0,1.6-1.6,3.2-3.2,3.2h-16.4c-1.6,0-3.2-1.6-3.2-3.2c0-1.6,1.6-3.2,3.2-3.2h16.4
		C332.8,236,334,237.6,334,239.2z"/>
	<path style="fill:#324A5E;" d="M334,250.8c0,1.6-1.6,3.2-3.2,3.2h-16.4c-1.6,0-3.2-1.6-3.2-3.2c0-1.6,1.6-3.2,3.2-3.2h16.4
		C332.8,247.6,334,249.2,334,250.8z"/>
</g>
<g>
	<rect x="177.6" y="230.8" style="fill:#2B3B4E;" width="11.2" height="5.2"/>
	<rect x="177.6" y="242.4" style="fill:#2B3B4E;" width="11.2" height="5.2"/>
	<path style="fill:#2B3B4E;" d="M177.6,254h11.2v0.8c0,3.2-5.6,9.2-5.6,9.2s-5.6-6.4-5.6-9.2L177.6,254L177.6,254z"/>
</g>
<g>
	<path style="fill:#324A5E;" d="M194.4,227.6c0,1.6-1.6,3.2-3.2,3.2h-16.4c-1.6,0-3.2-1.6-3.2-3.2c0-1.6,1.6-3.2,3.2-3.2h16.4
		C193.2,224.4,194.4,225.6,194.4,227.6z"/>
	<path style="fill:#324A5E;" d="M194.4,239.2c0,1.6-1.6,3.2-3.2,3.2h-16.4c-1.6,0-3.2-1.6-3.2-3.2c0-1.6,1.6-3.2,3.2-3.2h16.4
		C193.2,236,194.4,237.6,194.4,239.2z"/>
	<path style="fill:#324A5E;" d="M194.4,250.8c0,1.6-1.6,3.2-3.2,3.2h-16.4c-1.6,0-3.2-1.6-3.2-3.2c0-1.6,1.6-3.2,3.2-3.2h16.4
		C193.2,247.6,194.4,249.2,194.4,250.8z"/>
</g>
<g>
	<rect x="116.4" y="230.8" style="fill:#2B3B4E;" width="11.2" height="5.2"/>
	<rect x="116.4" y="242.4" style="fill:#2B3B4E;" width="11.2" height="5.2"/>
	<path style="fill:#2B3B4E;" d="M116.4,254h11.2v0.8c0,3.2-5.6,9.2-5.6,9.2s-5.6-6.4-5.6-9.2C116.4,254.8,116.4,254,116.4,254z"/>
</g>
<g>
	<path style="fill:#324A5E;" d="M133.2,227.6c0,1.6-1.6,3.2-3.2,3.2h-16c-1.6,0-3.2-1.6-3.2-3.2c0-1.6,1.6-3.2,3.2-3.2h16
		C132,224.4,133.2,225.6,133.2,227.6z"/>
	<path style="fill:#324A5E;" d="M133.2,239.2c0,1.6-1.6,3.2-3.2,3.2h-16c-1.6,0-3.2-1.6-3.2-3.2c0-1.6,1.6-3.2,3.2-3.2h16
		C132,236,133.2,237.6,133.2,239.2z"/>
	<path style="fill:#324A5E;" d="M133.2,250.8c0,1.6-1.6,3.2-3.2,3.2h-16c-1.6,0-3.2-1.6-3.2-3.2c0-1.6,1.6-3.2,3.2-3.2h16
		C132,247.6,133.2,249.2,133.2,250.8z"/>
</g>
<g>
	<rect x="168" y="138.8" style="fill:#2B3B4E;" width="11.2" height="5.2"/>
	<rect x="168" y="150.4" style="fill:#2B3B4E;" width="11.2" height="5.2"/>
	<path style="fill:#2B3B4E;" d="M168,162h11.2v0.8c0,3.2-5.6,9.2-5.6,9.2s-5.6-6.4-5.6-9.2L168,162L168,162z"/>
</g>
<g>
	<path style="fill:#324A5E;" d="M184.8,135.6c0,1.6-1.6,3.2-3.2,3.2h-16.4c-1.6,0-3.2-1.6-3.2-3.2c0-1.6,1.6-3.2,3.2-3.2h16.4
		C183.6,132,184.8,133.6,184.8,135.6z"/>
	<path style="fill:#324A5E;" d="M184.8,147.2c0,1.6-1.6,3.2-3.2,3.2h-16.4c-1.6,0-3.2-1.6-3.2-3.2c0-1.6,1.6-3.2,3.2-3.2h16.4
		C183.6,144,184.8,145.2,184.8,147.2z"/>
	<path style="fill:#324A5E;" d="M184.8,158.8c0,1.6-1.6,3.2-3.2,3.2h-16.4c-1.6,0-3.2-1.6-3.2-3.2c0-1.6,1.6-3.2,3.2-3.2h16.4
		C183.6,155.6,184.8,157.2,184.8,158.8z"/>
</g>
<path style="fill:#E6E9EE;" d="M281.2,506.4c-8.8,0.8-18,1.6-27.2,1.6c-9.2,0-18.4-0.4-27.2-1.6l9.6-421.6c0.4-9.6,8-16.8,17.6-16.8
	c4.8,0,9.2,2,12,4.8c3.2,3.2,5.2,7.2,5.2,12L281.2,506.4z"/>
<g>
	<path style="fill:#FFFFFF;" d="M370,132H138l0,0c0-8.4,6.8-15.2,15.2-15.2h202C363.2,117.2,370,124,370,132L370,132z"/>
	<path style="fill:#FFFFFF;" d="M414.8,224.4H93.2l0,0c0-11.6,9.2-20.8,20.8-20.8h279.2C405.2,203.2,414.8,212.8,414.8,224.4
		L414.8,224.4z"/>
</g>
<g>
</g>
<g>
</g>
<g>
</g>
<g>
</g>
<g>
</g>
<g>
</g>
<g>
</g>
<g>
</g>
<g>
</g>
<g>
</g>
<g>
</g>
<g>
</g>
<g>
</g>
<g>
</g>
<g>
</g>
</svg>
