<?xml version="1.0" encoding="iso-8859-1"?>
<!-- Generator: Adobe Illustrator 19.0.0, SVG Export Plug-In . SVG Version: 6.00 Build 0)  -->
<svg version="1.1" id="Layer_1" xmlns="http://www.w3.org/2000/svg" xmlns:xlink="http://www.w3.org/1999/xlink" x="0px" y="0px"
	 viewBox="0 0 508 508" style="enable-background:new 0 0 508 508;" xml:space="preserve">
<circle style="fill:#54C0EB;" cx="254" cy="254" r="254"/>
<g>
	<line style="fill:none;stroke:#FFFFFF;stroke-width:0.5;stroke-miterlimit:10;" x1="284.4" y1="125.6" x2="425.2" y2="188.4"/>
	<line style="fill:none;stroke:#FFFFFF;stroke-width:0.5;stroke-miterlimit:10;" x1="261.2" y1="125.6" x2="402" y2="188.4"/>
	<line style="fill:none;stroke:#FFFFFF;stroke-width:0.5;stroke-miterlimit:10;" x1="128" y1="124.8" x2="290.4" y2="187.2"/>
	<line style="fill:none;stroke:#FFFFFF;stroke-width:0.5;stroke-miterlimit:10;" x1="104" y1="125.2" x2="271.6" y2="188.4"/>
</g>
<rect x="282" y="120" style="fill:#2B3B4E;" width="4.8" height="24.8"/>
<g>
	<path style="fill:#E6E9EE;" d="M289.6,128h-11.2c-1.2,0-2-0.8-2-2v-0.4c0-1.2,0.8-2,2-2h11.2c1.2,0,2,0.8,2,2v0.4
		C292,126.8,290.8,128,289.6,128z"/>
	<path style="fill:#E6E9EE;" d="M289.6,135.6h-11.2c-1.2,0-2-0.8-2-2v-0.4c0-1.2,0.8-2,2-2h11.2c1.2,0,2,0.8,2,2v0.4
		C292,134.8,290.8,135.6,289.6,135.6z"/>
</g>
<rect x="257.6" y="120" style="fill:#2B3B4E;" width="4.8" height="24.8"/>
<g>
	<path style="fill:#E6E9EE;" d="M265.6,128h-11.2c-1.2,0-2-0.8-2-2v-0.4c0-1.2,0.8-2,2-2h11.2c1.2,0,2,0.8,2,2v0.4
		C267.6,126.8,266.8,128,265.6,128z"/>
	<path style="fill:#E6E9EE;" d="M265.6,135.6h-11.2c-1.2,0-2-0.8-2-2v-0.4c0-1.2,0.8-2,2-2h11.2c1.2,0,2,0.8,2,2v0.4
		C267.6,134.8,266.8,135.6,265.6,135.6z"/>
</g>
<rect x="118" y="120" style="fill:#2B3B4E;" width="4.8" height="24.8"/>
<g>
	<path style="fill:#E6E9EE;" d="M126,128h-11.2c-1.2,0-2-0.8-2-2v-0.4c0-1.2,0.8-2,2-2H126c1.2,0,2,0.8,2,2v0.4
		C128,126.8,127.2,128,126,128z"/>
	<path style="fill:#E6E9EE;" d="M126,135.6h-11.2c-1.2,0-2-0.8-2-2v-0.4c0-1.2,0.8-2,2-2H126c1.2,0,2,0.8,2,2v0.4
		C128,134.8,127.2,135.6,126,135.6z"/>
</g>
<rect x="93.6" y="120" style="fill:#2B3B4E;" width="4.8" height="24.8"/>
<g>
	<path style="fill:#E6E9EE;" d="M101.6,128H90.4c-1.2,0-2-0.8-2-2v-0.4c0-1.2,0.8-2,2-2h11.2c1.2,0,2,0.8,2,2v0.4
		C104,126.8,102.8,128,101.6,128z"/>
	<path style="fill:#E6E9EE;" d="M101.6,135.6H90.4c-1.2,0-2-0.8-2-2v-0.4c0-1.2,0.8-2,2-2h11.2c1.2,0,2,0.8,2,2v0.4
		C104,134.8,102.8,135.6,101.6,135.6z"/>
</g>
<rect x="181.6" y="131.6" style="fill:#324A5E;" width="16.8" height="232.4"/>
<g>
	<path style="fill:#2B3B4E;" d="M306,159.2H74c-1.6,0-3.2-1.2-3.2-3.2v-10.4c0-1.6,1.2-3.2,3.2-3.2h232c1.6,0,3.2,1.2,3.2,3.2V156
		C309.2,158,308,159.2,306,159.2z"/>
	<path style="fill:#2B3B4E;" d="M206.8,321.6v182c-11.2-2-22.4-5.2-33.2-8.4V321.6c0-3.2,2.4-5.6,5.6-5.6h22
		C204.4,316,206.8,318.4,206.8,321.6z"/>
</g>
<rect x="423.2" y="184" style="fill:#324A5E;" width="3.6" height="19.6"/>
<g>
	<path style="fill:#E6E9EE;" d="M429.6,190.4h-8.8c-0.8,0-1.6-0.8-1.6-1.6v-0.4c0-0.8,0.8-1.6,1.6-1.6h8.8c0.8,0,1.6,0.8,1.6,1.6
		v0.4C431.2,189.6,430.4,190.4,429.6,190.4z"/>
	<path style="fill:#E6E9EE;" d="M429.6,196.4h-8.8c-0.8,0-1.6-0.8-1.6-1.6V194c0-0.8,0.8-1.6,1.6-1.6h8.8c0.8,0,1.6,0.8,1.6,1.6v0.4
		C431.2,195.6,430.4,196.4,429.6,196.4z"/>
</g>
<rect x="404.4" y="184" style="fill:#324A5E;" width="3.6" height="19.6"/>
<g>
	<path style="fill:#E6E9EE;" d="M410.4,190.4h-8.8c-0.8,0-1.6-0.8-1.6-1.6v-0.4c0-0.8,0.8-1.6,1.6-1.6h8.8c0.8,0,1.6,0.8,1.6,1.6
		v0.4C412,189.6,411.6,190.4,410.4,190.4z"/>
	<path style="fill:#E6E9EE;" d="M410.4,196.4h-8.8c-0.8,0-1.6-0.8-1.6-1.6V194c0-0.8,0.8-1.6,1.6-1.6h8.8c0.8,0,1.6,0.8,1.6,1.6v0.4
		C412,195.6,411.6,196.4,410.4,196.4z"/>
</g>
<rect x="294.8" y="184" style="fill:#324A5E;" width="3.6" height="19.6"/>
<g>
	<path style="fill:#E6E9EE;" d="M300.8,190.4H292c-0.8,0-1.6-0.8-1.6-1.6v-0.4c0-0.8,0.8-1.6,1.6-1.6h8.8c0.8,0,1.6,0.8,1.6,1.6v0.4
		C302.8,189.6,302,190.4,300.8,190.4z"/>
	<path style="fill:#E6E9EE;" d="M300.8,196.4H292c-0.8,0-1.6-0.8-1.6-1.6V194c0-0.8,0.8-1.6,1.6-1.6h8.8c0.8,0,1.6,0.8,1.6,1.6v0.4
		C302.8,195.6,302,196.4,300.8,196.4z"/>
</g>
<rect x="275.6" y="184" style="fill:#324A5E;" width="3.6" height="19.6"/>
<g>
	<path style="fill:#E6E9EE;" d="M282,190.4h-8.8c-0.8,0-1.6-0.8-1.6-1.6v-0.4c0-0.8,0.8-1.6,1.6-1.6h8.8c0.8,0,1.6,0.8,1.6,1.6v0.4
		C283.6,189.6,282.8,190.4,282,190.4z"/>
	<path style="fill:#E6E9EE;" d="M282,196.4h-8.8c-0.8,0-1.6-0.8-1.6-1.6V194c0-0.8,0.8-1.6,1.6-1.6h8.8c0.8,0,1.6,0.8,1.6,1.6v0.4
		C283.6,195.6,282.8,196.4,282,196.4z"/>
</g>
<rect x="344.8" y="193.2" style="fill:#324A5E;" width="13.2" height="182.4"/>
<g>
	<path style="fill:#2B3B4E;" d="M442.4,214.8h-182c-1.2,0-2.4-1.2-2.4-2.4V204c0-1.2,1.2-2.4,2.4-2.4h182c1.2,0,2.4,1.2,2.4,2.4v8.4
		C444.8,214,443.6,214.8,442.4,214.8z"/>
	<path style="fill:#2B3B4E;" d="M364.4,342.4v140.8c-8.4,4-17.2,7.6-26,10.8V342.4c0-2.4,2-4.4,4.4-4.4H360
		C362.4,338,364.4,339.6,364.4,342.4z"/>
</g>
<g>
</g>
<g>
</g>
<g>
</g>
<g>
</g>
<g>
</g>
<g>
</g>
<g>
</g>
<g>
</g>
<g>
</g>
<g>
</g>
<g>
</g>
<g>
</g>
<g>
</g>
<g>
</g>
<g>
</g>
</svg>
