<?xml version="1.0" encoding="iso-8859-1"?>
<!-- Generator: Adobe Illustrator 19.0.0, SVG Export Plug-In . SVG Version: 6.00 Build 0)  -->
<svg version="1.1" id="Layer_1" xmlns="http://www.w3.org/2000/svg" xmlns:xlink="http://www.w3.org/1999/xlink" x="0px" y="0px"
	 viewBox="0 0 508 508" style="enable-background:new 0 0 508 508;" xml:space="preserve">
<circle style="fill:#84DBFF;" cx="254" cy="254" r="254"/>
<path style="fill:#E6E9EE;" d="M346.4,183.6H254l0,0h-92.4c0,0,80.4,128.8,53.2,206.4H254l0,0h38.8
	C266,312.4,346.4,183.6,346.4,183.6z"/>
<path style="fill:#FFFFFF;" d="M414,214c-2,2.8-4.4,5.2-7.6,6.4c-10.4,6.4-25.6,8-42.4,5.2c-16-2.8-29.2-8.8-38.8-16.8
	c-9.6,6.4-22.8,10-36.4,9.6c-14-0.4-26-5.2-34.8-12.4c-8.8,7.2-20.8,12-34.8,12.4s-26.8-3.2-36.4-9.6c-9.2,8-22.8,14-38.8,16.8
	c-16.8,2.8-32,1.2-42.4-5.2c-2.8-1.2-5.2-3.6-7.6-6.4c-2-2.8-3.6-6-4.4-9.6c-3.6-13.2-0.8-33.6,13.2-54.8c13.2-20,32.8-32.8,48.8-36
	c6-13.6,21.6-29.2,44-37.2c22-8,44.4-5.6,58,1.6c13.6-7.2,36-9.6,58-1.6c22.4,8,38,23.6,44,37.2c16,3.2,35.6,16,48.8,36
	c14,21.2,16.8,41.6,13.2,54.8C417.6,208,416,211.2,414,214z"/>
<path style="fill:#E6E9EE;" d="M325.2,400c0,2-0.4,3.6-0.8,5.2c-1.6,6.4-6.4,12.8-13.6,17.2c-6.8,4-14.4,4.8-20,2.8
	c-3.6,5.2-9.6,9.2-17.2,10.8c-7.6,1.2-14.8-0.4-19.2-4.4c-4.8,3.6-11.6,5.6-19.2,4.4c-7.6-1.2-14-5.6-17.2-10.8
	c-5.6,2-12.8,1.2-20-2.8c-7.2-4.4-12-10.8-13.6-17.2c-0.4-1.6-0.8-3.6-0.8-5.2c0-2,0.4-3.6,0.8-5.2c1.6-6.4,6.4-12.8,13.6-17.2
	c6.8-4,14.4-4.8,20-2.8c3.6-5.2,9.6-9.2,17.2-10.8c7.6-1.2,14.8,0.4,19.2,4.4c4.8-3.6,11.6-5.6,19.2-4.4s14,5.6,17.2,10.8
	c5.6-2,12.8-1.2,20,2.8c7.2,4.4,12,10.8,13.6,17.2C324.8,396.4,325.2,398,325.2,400z"/>
<g>
	<path style="fill:#FFFFFF;" d="M347.2,262.8c-4.8,14.8-46,25.6-93.2,25.6s-88.4-10.8-93.2-25.6c-2.4-8,6.4-16,23.2-21.6
		c-7.6,4-11.2,9.2-9.6,14C178,268,213.2,278,254,278s76-9.6,79.6-22.8c1.2-5.2-2.4-10-9.6-14C340.8,246.8,349.6,254.4,347.2,262.8z"
		/>
	<path style="fill:#FFFFFF;" d="M330.4,315.2c-3.2,10-37.2,17.6-76.4,17.6s-73.6-7.6-76.4-17.6c-1.6-5.6,6-10.4,20-14.4
		c-6.4,2.8-9.2,6-8.4,9.2c2.4,8.8,31.2,15.6,65.2,15.6c33.6,0,62.8-6.8,65.2-15.6c0.8-3.2-2.4-6.4-8.4-9.2
		C324.8,304.4,332.4,309.6,330.4,315.2z"/>
</g>
<g>
</g>
<g>
</g>
<g>
</g>
<g>
</g>
<g>
</g>
<g>
</g>
<g>
</g>
<g>
</g>
<g>
</g>
<g>
</g>
<g>
</g>
<g>
</g>
<g>
</g>
<g>
</g>
<g>
</g>
</svg>
