<?xml version="1.0" encoding="iso-8859-1"?>
<!-- Generator: Adobe Illustrator 19.0.0, SVG Export Plug-In . SVG Version: 6.00 Build 0)  -->
<svg version="1.1" id="Layer_1" xmlns="http://www.w3.org/2000/svg" xmlns:xlink="http://www.w3.org/1999/xlink" x="0px" y="0px"
	 viewBox="0 0 508 508" style="enable-background:new 0 0 508 508;" xml:space="preserve">
<circle style="fill:#324A5E;" cx="254" cy="254" r="254"/>
<path style="fill:#FF7058;" d="M429.2,230.4c0-12.8-8-23.6-18.4-23.6c10,0,18.4-10.4,18.4-23.6c0-12.8-8-23.6-18.4-23.6H97.2
	c-10,0-18.4,10.4-18.4,23.6c0,12.8,8,23.6,18.4,23.6c-10,0-18.4,10.4-18.4,23.6c0,12.8,8,23.6,18.4,23.6c-10,0-18.4,10.4-18.4,23.6
	c0,12.8,8,23.6,18.4,23.6c-10,0-18.4,10.4-18.4,23.6c0,12.8,8,23.6,18.4,23.6h313.6c10,0,18.4-10.4,18.4-23.6
	c0-12.8-8-23.6-18.4-23.6c10,0,18.4-10.4,18.4-23.6c0-12.8-8-23.6-18.4-23.6C420.8,254,429.2,243.6,429.2,230.4z"/>
<g>
	<path style="fill:#F1543F;" d="M110.8,207.2c8.4,0,20.8,0.4,35.6,0.4c14.8,0,32,0.4,50.4,0.4s38,0,57.6,0s39.2,0,57.6,0
		s35.6-0.4,50.4-0.4s26.8-0.4,35.6-0.4c8.4,0,13.6-0.4,13.6-0.4s-4.8,0-13.6-0.4c-8.4,0-20.8-0.4-35.6-0.4c-14.8,0-32-0.4-50.4-0.4
		s-38,0-57.6,0s-39.2,0-57.6,0s-35.6,0.4-50.4,0.4c-14.8,0-26.8,0.4-35.6,0.4c-8.4,0-13.6,0.4-13.6,0.4S102,207.2,110.8,207.2z"/>
	<path style="fill:#F1543F;" d="M361.6,253.2c-14.8,0-32-0.4-50.4-0.4s-38,0-57.6,0s-39.2,0-57.6,0s-35.6,0.4-50.4,0.4
		c-14.8,0-26.8,0.4-35.6,0.4c-8,0.4-12.8,0.4-12.8,0.4s4.8,0,13.6,0.4c8.4,0,20.8,0.4,35.6,0.4s32,0.4,50.4,0.4s38,0,57.6,0
		s39.2,0,57.6,0s35.6-0.4,50.4-0.4s26.8-0.4,35.6-0.4c8.4,0,13.6-0.4,13.6-0.4s-4.8,0-13.6-0.4C388.8,253.6,376.4,253.6,361.6,253.2
		z"/>
	<path style="fill:#F1543F;" d="M361.6,300.4c-14.8,0-32-0.4-50.4-0.4s-38,0-57.6,0s-39.2,0-57.6,0s-35.6,0.4-50.4,0.4
		c-14.8,0-26.8,0.4-35.6,0.4c-8.4,0-13.6,0.4-13.6,0.4s4.8,0,13.6,0.4c8.4,0,20.8,0.4,35.6,0.4s32,0.4,50.4,0.4s38,0,57.6,0
		s39.2,0,57.6,0s35.6-0.4,50.4-0.4s26.8-0.4,35.6-0.4c8.4,0,13.6-0.4,13.6-0.4s-4.8,0-13.6-0.4C388.8,300.8,376.4,300.4,361.6,300.4
		z"/>
</g>
<g>
	<path style="fill:#FFD05B;" d="M389.2,151.6h-34c-1.6,0-3.2,1.2-3.2,2.8v198.8c0,1.6,1.6,2.8,3.2,2.8h34c1.6,0,3.2-1.2,3.2-2.8
		V154.4C392.4,152.8,390.8,151.6,389.2,151.6z"/>
	<path style="fill:#FFD05B;" d="M152.8,151.6h-34c-1.6,0-3.2,1.2-3.2,2.8v198.8c0,1.6,1.6,2.8,3.2,2.8h34c1.6,0,3.2-1.2,3.2-2.8
		V154.4C156,152.8,154.8,151.6,152.8,151.6z"/>
</g>
<circle style="fill:#324A5E;" cx="254" cy="254" r="65.2"/>
<g>
	<circle style="fill:#FFFFFF;" cx="254" cy="254" r="53.2"/>
	<circle style="fill:#FFFFFF;" cx="254" cy="254" r="53.2"/>
</g>
<circle style="fill:#54C0EB;" cx="254" cy="254" r="8.8"/>
<g>
	<path style="fill:#E6E9EE;" d="M255.2,219.2H252c-0.8,0-1.2-0.4-1.2-1.2v-9.6c0-0.8,0.4-1.2,1.2-1.2h3.2c0.8,0,1.2,0.4,1.2,1.2v9.6
		C256.4,218.8,256,219.2,255.2,219.2z"/>
	<path style="fill:#E6E9EE;" d="M255.2,299.6H252c-0.8,0-1.2-0.4-1.2-1.2v-9.6c0-0.8,0.4-1.2,1.2-1.2h3.2c0.8,0,1.2,0.4,1.2,1.2v9.6
		C256.4,299.2,256,299.6,255.2,299.6z"/>
	<path style="fill:#E6E9EE;" d="M287.6,255.2V252c0-0.8,0.4-1.2,1.2-1.2h9.6c0.8,0,1.2,0.4,1.2,1.2v3.2c0,0.8-0.4,1.2-1.2,1.2h-9.6
		C288.4,256.4,287.6,255.6,287.6,255.2z"/>
	<path style="fill:#E6E9EE;" d="M207.2,255.2V252c0-0.8,0.4-1.2,1.2-1.2h9.6c0.8,0,1.2,0.4,1.2,1.2v3.2c0,0.8-0.4,1.2-1.2,1.2h-9.6
		C207.6,256.4,207.2,255.6,207.2,255.2z"/>
	<path style="fill:#E6E9EE;" d="M278.8,230.4l-2.4-2.4c-0.4-0.4-0.4-1.2,0-1.6l6.8-6.8c0.4-0.4,1.2-0.4,1.6,0l2.4,2.4
		c0.4,0.4,0.4,1.2,0,1.6l-6.8,6.8C280,230.8,279.2,230.8,278.8,230.4z"/>
	<path style="fill:#E6E9EE;" d="M222,287.2l-2.4-2.4c-0.4-0.4-0.4-1.2,0-1.6l6.8-6.8c0.4-0.4,1.2-0.4,1.6,0l2.4,2.4
		c0.4,0.4,0.4,1.2,0,1.6l-6.8,6.8C223.2,288,222.4,288,222,287.2z"/>
	<path style="fill:#E6E9EE;" d="M276.4,278.8l2.4-2.4c0.4-0.4,1.2-0.4,1.6,0l6.8,6.8c0.4,0.4,0.4,1.2,0,1.6l-2.4,2.4
		c-0.4,0.4-1.2,0.4-1.6,0l-6.8-6.8C276,280,276,279.2,276.4,278.8z"/>
	<path style="fill:#E6E9EE;" d="M219.6,222l2.4-2.4c0.4-0.4,1.2-0.4,1.6,0l6.8,6.8c0.4,0.4,0.4,1.2,0,1.6l-2.4,2.4
		c-0.4,0.4-1.2,0.4-1.6,0l-6.8-6.8C219.2,223.2,219.2,222.4,219.6,222z"/>
</g>
<g>
</g>
<g>
</g>
<g>
</g>
<g>
</g>
<g>
</g>
<g>
</g>
<g>
</g>
<g>
</g>
<g>
</g>
<g>
</g>
<g>
</g>
<g>
</g>
<g>
</g>
<g>
</g>
<g>
</g>
</svg>
