<?xml version="1.0" encoding="iso-8859-1"?>
<!-- Generator: Adobe Illustrator 19.0.0, SVG Export Plug-In . SVG Version: 6.00 Build 0)  -->
<svg version="1.1" id="Layer_1" xmlns="http://www.w3.org/2000/svg" xmlns:xlink="http://www.w3.org/1999/xlink" x="0px" y="0px"
	 viewBox="0 0 508 508" style="enable-background:new 0 0 508 508;" xml:space="preserve">
<circle style="fill:#90DFAA;" cx="254" cy="254" r="254"/>
<g>
	<polygon style="fill:#2C9984;" points="218.4,357.6 137.6,357.6 154,126.8 202,126.8 	"/>
	<path style="fill:#2C9984;" d="M66.8,425.6C113.2,476.4,180,508,254,508s140.8-31.6,187.2-82.4H66.8z"/>
</g>
<polygon style="fill:#FFFFFF;" points="403.2,289.2 403.2,425.6 104.8,425.6 104.8,289.2 254,222.4 "/>
<polygon style="fill:#324A5E;" points="419.2,272.8 419.2,296.4 403.2,289.2 254,222.4 104.8,289.2 88.8,296.4 88.8,272.8 
	254,198.4 "/>
<g>
	<rect x="120.8" y="296" style="fill:#84DBFF;" width="28" height="27.2"/>
	<rect x="160.4" y="296" style="fill:#84DBFF;" width="28" height="27.2"/>
	<rect x="200" y="296" style="fill:#84DBFF;" width="28" height="27.2"/>
	<rect x="240" y="296" style="fill:#84DBFF;" width="28" height="27.2"/>
	<rect x="279.6" y="296" style="fill:#84DBFF;" width="28" height="27.2"/>
	<rect x="120.8" y="335.6" style="fill:#84DBFF;" width="28" height="27.2"/>
	<rect x="160.4" y="335.6" style="fill:#84DBFF;" width="28" height="27.2"/>
	<rect x="200" y="335.6" style="fill:#84DBFF;" width="28" height="27.2"/>
	<rect x="240" y="335.6" style="fill:#84DBFF;" width="28" height="27.2"/>
	<rect x="279.6" y="335.6" style="fill:#84DBFF;" width="28" height="27.2"/>
	<rect x="319.6" y="296" style="fill:#84DBFF;" width="28" height="27.2"/>
	<rect x="359.2" y="296" style="fill:#84DBFF;" width="28" height="27.2"/>
	<rect x="319.6" y="335.6" style="fill:#84DBFF;" width="28" height="27.2"/>
	<rect x="359.2" y="335.6" style="fill:#84DBFF;" width="28" height="27.2"/>
</g>
<rect x="233.2" y="379.2" style="fill:#E6E9EE;" width="41.2" height="46.4"/>
<path style="fill:#FFFFFF;" d="M267.2,66.8v-0.4c0-7.6-6-13.6-13.6-13.6c-4,0-7.2,1.6-10,4c-2.4-2.4-6-4-10-4
	c-5.2,0-10,3.2-12.4,7.6c-2.4-1.6-5.2-2.8-8.4-2.8c-7.6,0-13.6,6-13.6,13.6c0,0.8,0,1.6,0.4,2c-2-1.2-4.4-2-7.2-2
	c-7.6,0-13.6,6-13.6,13.6c0,1.2,0,2,0.4,2.8c-6.4,1.2-11.6,6.8-11.6,13.6c0,7.6,6,13.6,13.6,13.6c6,0,11.2-4,13.2-9.6
	c2.4,4,6.8,6.8,12,6.8c6,0,10.8-3.6,12.8-8.8c2.4,2.4,6,4,10,4c4.8,0,9.2-2.8,11.6-6.4c2.4,2.4,6,4,9.6,4c6.8,0,12.4-4.8,13.6-11.2
	c0,0,0,0,0.4,0c7.6,0,13.6-6,13.6-13.6C277.6,73.6,273.2,68.4,267.2,66.8z"/>
<g>
</g>
<g>
</g>
<g>
</g>
<g>
</g>
<g>
</g>
<g>
</g>
<g>
</g>
<g>
</g>
<g>
</g>
<g>
</g>
<g>
</g>
<g>
</g>
<g>
</g>
<g>
</g>
<g>
</g>
</svg>
