<?xml version="1.0" encoding="iso-8859-1"?>
<!-- Generator: Adobe Illustrator 19.0.0, SVG Export Plug-In . SVG Version: 6.00 Build 0)  -->
<svg version="1.1" id="Layer_1" xmlns="http://www.w3.org/2000/svg" xmlns:xlink="http://www.w3.org/1999/xlink" x="0px" y="0px"
	 viewBox="0 0 508 508" style="enable-background:new 0 0 508 508;" xml:space="preserve">
<circle style="fill:#324A5E;" cx="254" cy="254" r="254"/>
<rect x="97.6" y="280.4" style="fill:#E6E9EE;" width="312.4" height="128.8"/>
<g>
	<polygon style="fill:#CED5E0;" points="196.4,280.4 131.6,280.4 144,111.2 184,111.2 	"/>
	<polygon style="fill:#CED5E0;" points="283.2,280.4 218,280.4 230.8,156 270.4,156 	"/>
</g>
<g>
	<rect x="113.6" y="294.8" style="fill:#54C0EB;" width="32" height="30.4"/>
	<rect x="163.2" y="294.8" style="fill:#54C0EB;" width="32" height="30.4"/>
	<rect x="213.2" y="294.8" style="fill:#54C0EB;" width="32" height="30.4"/>
	<rect x="262.8" y="294.8" style="fill:#54C0EB;" width="32" height="30.4"/>
	<rect x="312.8" y="294.8" style="fill:#54C0EB;" width="32" height="30.4"/>
	<rect x="362.8" y="294.8" style="fill:#54C0EB;" width="32" height="30.4"/>
	<rect x="113.6" y="340" style="fill:#54C0EB;" width="32" height="30.4"/>
	<rect x="163.2" y="340" style="fill:#54C0EB;" width="32" height="30.4"/>
	<rect x="213.2" y="340" style="fill:#54C0EB;" width="32" height="30.4"/>
	<rect x="262.8" y="340" style="fill:#54C0EB;" width="32" height="30.4"/>
	<rect x="312.8" y="340" style="fill:#54C0EB;" width="32" height="30.4"/>
	<rect x="362.8" y="340" style="fill:#54C0EB;" width="32" height="30.4"/>
</g>
<g>
	<path style="fill:#E6E9EE;" d="M315.6,130c0,0.4,0,1.2-0.4,1.6c-0.4,0.4-0.8,0.4-1.6,0.8c-4.4,0.8-8.4,1.6-12.8,2
		c-1.6,0.4-3.2,0.8-4,2c-0.4,0.4-0.4,1.2-0.4,2c0,2.4,0,4.8,0.8,6.8c0.4,0.8,0.4,1.6,0.4,2.4c-0.4,1.2-2,2-3.2,2
		c-10,1.2-19.2-6.8-29.2-6.8c-0.8,0-1.2,0-2,0.4s-1.6,1.2-2,1.6c-4.8,4.4-13.2,4.4-18,0c-2,0.4-4-1.2-5.2-3.2
		c-0.8-2-0.8-4.4-1.2-6.4c0-2.4,0-5.2,2-7.2c1.2-0.8,2.4-1.2,3.6-1.6c3.2-0.8,6.4-1.2,9.6-0.8c5.2,0,11.2,1.2,15.6-1.6
		c3.2-2,5.2-5.6,6.8-9.2c1.2-3.6,2.4-7.6,6-9.2c1.2-0.4,2.4-0.8,4-0.8c7.6-0.4,15.2,1.6,21.2,6.4C310.8,115.2,314.8,122.4,315.6,130
		z"/>
	<path style="fill:#E6E9EE;" d="M232.8,83.6c0,0.8,0,1.2-0.4,1.6c-0.4,0.8-0.8,0.8-1.6,0.8c-4.4,0.8-9.2,1.6-13.6,2.4
		c-1.6,0.4-3.6,0.8-4.4,2c-0.4,0.8-0.4,1.2-0.4,2c0,2.4,0,4.8,0.8,7.2c0.4,0.8,0.4,1.6,0.4,2.4c-0.4,1.6-2,2-3.6,2
		c-10.8,1.2-20.8-7.2-31.6-7.2c-0.8,0-1.6,0-2,0.4c-0.8,0.4-1.6,1.2-2.4,2c-5.2,4.8-14,4.8-19.6,0c-2.4,0.4-4.4-1.6-5.6-3.6
		c-0.8-2-1.2-4.4-1.2-6.8c0-2.8,0-6,2-7.6c1.2-0.8,2.8-1.6,4-1.6c3.6-0.8,6.8-1.2,10.4-1.2c5.6,0,12,1.2,16.8-2c3.6-2,5.6-6,7.2-10
		c1.6-4,2.8-8.4,6.4-10c1.2-0.8,2.8-0.8,4-0.8c8-0.8,16.4,1.6,22.8,6.8C228,68,232,75.6,232.8,83.6z"/>
</g>
<g>
</g>
<g>
</g>
<g>
</g>
<g>
</g>
<g>
</g>
<g>
</g>
<g>
</g>
<g>
</g>
<g>
</g>
<g>
</g>
<g>
</g>
<g>
</g>
<g>
</g>
<g>
</g>
<g>
</g>
</svg>
