<?xml version="1.0" encoding="iso-8859-1"?>
<!-- Generator: Adobe Illustrator 19.0.0, SVG Export Plug-In . SVG Version: 6.00 Build 0)  -->
<svg version="1.1" id="Layer_1" xmlns="http://www.w3.org/2000/svg" xmlns:xlink="http://www.w3.org/1999/xlink" x="0px" y="0px"
	 viewBox="0 0 508 508" style="enable-background:new 0 0 508 508;" xml:space="preserve">
<circle style="fill:#FFD05B;" cx="254" cy="254" r="254"/>
<path style="fill:#FFFFFF;" d="M434.8,347.2l-166.4-280c-6.4-10.8-22-10.8-28.4,0l-166.8,280c-6.4,11.2,1.2,25.2,14.4,25.2h332.8
	C433.2,372,441.2,358,434.8,347.2z"/>
<polygon style="fill:#FF7058;" points="100.4,348.4 254,90 407.6,348.4 "/>
<path style="fill:#FFFFFF;" d="M293.2,216.8c0.4,7.2-3.2,14.4-8,21.6c4-24.4-4-51.6-36.4-64c2.8,10.4-4,22.8-10,36.4
	c-3.6-4.4-8.4-8.8-13.6-12.4c2.4,34-72,68-11.6,126c0,0,4,2.8,11.2,5.2l-0.4-0.4l0,0c-12.8-14-20-43.2,4.4-62.4
	c-0.4,4.8,2,9.2,5.2,14c-2.4-15.6,2.8-33.6,23.6-41.6c-2,6.8,2.4,14.8,6.8,23.6c2.4-2.8,5.2-5.6,8.8-8
	c-1.2,18.4,32.4,36.8,20.4,64.8c2.4-1.6,4.8-4,6.8-6.4l0,0C320,290.8,330.8,246,293.2,216.8z"/>
<g>
</g>
<g>
</g>
<g>
</g>
<g>
</g>
<g>
</g>
<g>
</g>
<g>
</g>
<g>
</g>
<g>
</g>
<g>
</g>
<g>
</g>
<g>
</g>
<g>
</g>
<g>
</g>
<g>
</g>
</svg>
