<?xml version="1.0" encoding="iso-8859-1"?>
<!-- Generator: Adobe Illustrator 19.0.0, SVG Export Plug-In . SVG Version: 6.00 Build 0)  -->
<svg version="1.1" id="Layer_1" xmlns="http://www.w3.org/2000/svg" xmlns:xlink="http://www.w3.org/1999/xlink" x="0px" y="0px"
	 viewBox="0 0 508 508" style="enable-background:new 0 0 508 508;" xml:space="preserve">
<circle style="fill:#FFD05B;" cx="254" cy="254" r="254"/>
<path style="fill:#FFFFFF;" d="M382,383.6l-88-151.2v-116h-80v116l-88,151.2c-11.2,19.2,2.8,43.6,25.2,43.6h206
	C379.2,427.2,393.2,403.2,382,383.6z"/>
<rect x="214" y="116.4" style="fill:#E6E9EE;" width="79.6" height="7.2"/>
<path style="fill:#FF7058;" d="M308,284H200l-62.4,106.8c-4,6.8-1.2,13.2,0,15.2c1.2,2.4,5.2,7.6,13.2,7.6h206c8,0,12-5.2,13.2-7.6
	s4-8.4,0-15.2L308,284z"/>
<path style="fill:#FFFFFF;" d="M294.4,116.4h-80.8c-10,0-18-8-18-18l0,0c0-10,8-18,18-18h80.8c10,0,18,8,18,18l0,0
	C312.4,108.4,304.4,116.4,294.4,116.4z"/>
<g>
	<rect x="214" y="142.8" style="fill:#E6E9EE;" width="17.6" height="7.6"/>
	<rect x="214" y="159.6" style="fill:#E6E9EE;" width="27.2" height="7.6"/>
	<rect x="214" y="176.8" style="fill:#E6E9EE;" width="17.6" height="7.6"/>
	<rect x="214" y="194" style="fill:#E6E9EE;" width="27.2" height="7.6"/>
	<rect x="214" y="211.2" style="fill:#E6E9EE;" width="17.6" height="7.6"/>
</g>
<g>
</g>
<g>
</g>
<g>
</g>
<g>
</g>
<g>
</g>
<g>
</g>
<g>
</g>
<g>
</g>
<g>
</g>
<g>
</g>
<g>
</g>
<g>
</g>
<g>
</g>
<g>
</g>
<g>
</g>
</svg>
