<?xml version="1.0" encoding="iso-8859-1"?>
<!-- Generator: Adobe Illustrator 19.0.0, SVG Export Plug-In . SVG Version: 6.00 Build 0)  -->
<svg version="1.1" id="Layer_1" xmlns="http://www.w3.org/2000/svg" xmlns:xlink="http://www.w3.org/1999/xlink" x="0px" y="0px"
	 viewBox="0 0 508 508" style="enable-background:new 0 0 508 508;" xml:space="preserve">
<circle style="fill:#90DFAA;" cx="254" cy="254" r="254"/>
<polygon style="fill:#E6E9EE;" points="378.4,290.4 359.6,326.8 319.2,305.6 338,269.6 "/>
<path style="fill:#FFFFFF;" d="M380,280l-27.2,52c-2,3.6-0.4,8,3.2,10l20.8,10.8c3.6,2,8,0.4,10-3.2l27.2-52c2-3.6,0.4-8-3.2-10
	L390,276.8C386.4,275.2,382,276.4,380,280z"/>
<polygon style="fill:#E6E9EE;" points="129.6,290.4 148.4,326.8 188.8,305.6 170,269.6 "/>
<path style="fill:#FFFFFF;" d="M128,280l27.2,52c2,3.6,0.4,8-3.2,10l-20.8,10.8c-3.6,2-8,0.4-10-3.2l-27.2-52c-2-3.6-0.4-8,3.2-10
	l20.8-10.8C121.6,275.2,126,276.4,128,280z"/>
<path style="fill:#324A5E;" d="M381.6,191.6c0,70.4-57.2,208-127.6,208S126.4,262,126.4,191.6S183.6,64,254,64
	S381.6,121.2,381.6,191.6z"/>
<g>
	
		<ellipse transform="matrix(0.7071 -0.7071 0.7071 0.7071 -100.4904 202.4043)" style="fill:#84DBFF;" cx="194.078" cy="222.505" rx="36.4" ry="32.4"/>
	
		<ellipse transform="matrix(0.7071 0.7071 -0.7071 0.7071 249.4583 -157.0648)" style="fill:#84DBFF;" cx="314.323" cy="222.59" rx="36.4" ry="32.4"/>
</g>
<circle style="fill:#E6E9EE;" cx="254" cy="370.4" r="73.2"/>
<g>
	<circle style="fill:#ACB3BA;" cx="254" cy="329.2" r="13.2"/>
	<circle style="fill:#ACB3BA;" cx="254" cy="411.6" r="13.2"/>
	<circle style="fill:#ACB3BA;" cx="295.2" cy="370.4" r="13.2"/>
	<circle style="fill:#ACB3BA;" cx="212.8" cy="370.4" r="13.2"/>
	<circle style="fill:#ACB3BA;" cx="254" cy="329.2" r="13.2"/>
	<circle style="fill:#ACB3BA;" cx="254" cy="411.6" r="13.2"/>
	<circle style="fill:#ACB3BA;" cx="295.2" cy="370.4" r="13.2"/>
	<circle style="fill:#ACB3BA;" cx="212.8" cy="370.4" r="13.2"/>
</g>
<g>
	
		<ellipse transform="matrix(-0.707 -0.7072 0.7072 -0.707 362.7993 567.125)" style="fill:#FFFFFF;" cx="298.879" cy="208.409" rx="6.4" ry="12"/>
	
		<ellipse transform="matrix(-0.707 -0.7072 0.7072 -0.707 167.5196 486.0629)" style="fill:#FFFFFF;" cx="184.447" cy="208.33" rx="6.4" ry="12"/>
</g>
<g>
</g>
<g>
</g>
<g>
</g>
<g>
</g>
<g>
</g>
<g>
</g>
<g>
</g>
<g>
</g>
<g>
</g>
<g>
</g>
<g>
</g>
<g>
</g>
<g>
</g>
<g>
</g>
<g>
</g>
</svg>
