<?xml version="1.0" encoding="iso-8859-1"?>
<!-- Generator: Adobe Illustrator 19.0.0, SVG Export Plug-In . SVG Version: 6.00 Build 0)  -->
<svg version="1.1" id="Layer_1" xmlns="http://www.w3.org/2000/svg" xmlns:xlink="http://www.w3.org/1999/xlink" x="0px" y="0px"
	 viewBox="0 0 508 508" style="enable-background:new 0 0 508 508;" xml:space="preserve">
<circle style="fill:#FD8469;" cx="254" cy="254" r="254"/>
<path style="fill:#324A5E;" d="M354.8,416.4H153.2c-9.6,0-17.2-7.6-17.2-17.2V108.8c0-9.6,7.6-17.2,17.2-17.2h201.6
	c9.6,0,17.2,7.6,17.2,17.2v290.4C372,408.8,364.4,416.4,354.8,416.4z"/>
<path style="fill:#FFFFFF;" d="M346.4,285.6c-1.2-10-6.8-22.4-13.6-30.4c-0.8-0.8-1.6-1.6-2.4-2.4c-1.2-1.2-2.4-2.4-3.2-3.6
	c-2-2.8-3.6-6-4.8-9.2l0,0c0.4,0,0.8-0.8,0.8-1.2l-0.8-2.4c0-0.4-0.8-0.8-1.2-0.8l0,0l-4-17.6l1.6-2c0.4-0.4,0.4-0.8,0-1.2l-4.8-9.6
	c-0.4-0.4-0.8-0.8-1.2-0.4l-1.2,0.4l-4.4-2.8h-0.4l0,0l-6.4-5.2c-0.8-0.4-1.6-0.8-2.4-1.2l-1.6-0.4V182c0-4-3.2-7.2-7.2-7.2H216
	c-4,0-7.2,3.2-7.2,7.2v132.8c-4.8,0.4-8.4,4.4-8.4,9.2l0,0c0,5.2,4,9.2,9.2,9.2h86c5.2,0,9.2-4,9.2-9.2l0,0c0-4.8-3.6-8.8-8.4-9.2
	v-65.2c2,0.8,4,2,5.2,3.6c3.6,3.6,5.2,8.4,5.2,14c0,3.2-0.8,6.4-2,10c-1.2,4.8-2.4,9.6-1.6,14.8c2,11.6,10,15.6,18,15.6
	c1.2,0,2.4,0,3.6-0.4C336,305.6,348,296.4,346.4,285.6z M309.2,218.4l4.8,0.4l2.8,10.4l-6.4,1.6l1.6-9.6c0-0.4,0-0.8-0.4-1.2l0,0
	L309.2,218.4L309.2,218.4z M306.8,220.8l2.8,1.2l-0.4,9.2c-0.4,0-0.8-0.4-0.8-0.8l-1.6-7.2C306,222.4,306.4,221.6,306.8,220.8z
	 M216.8,182.8H288v53.6h-71.2V182.8z M324,303.6c-3.6,0.4-15.6,1.2-17.6-12.4c-0.8-4.4,0.4-8.8,1.6-13.2c0.8-3.6,1.6-7.2,2-10.8
	c0.4-6.4-2-12.4-6-16.4c-2-2-4.8-3.6-7.6-4.8v-47.6c0.8,0.4,1.6,0.8,2.4,1.6l5.2,4.4l-0.4,0.4c-0.4,0-0.4,0.4,0,0.8l1.6,1.2
	c-0.4,0-0.8,0.4-0.8,0.8l-2,4.4c0,0.4,0,0.4,0,0.8l0.8,4c0,0.4,0.4,0.8,0.8,0.8l1.6,14.8c0,1.6,1.6,2.4,3.2,2.4l9.2-1.6l0.8,2.8
	h-0.4c-0.4,0-0.8,0.8-0.8,1.2l0.8,2.4c0,0.4,0.8,0.8,1.2,0.8h0.4c1.2,3.6,2.8,7.2,5.2,10.4c1.2,1.2,2.4,2.8,3.2,4
	c0.8,0.8,1.6,1.6,2,2.4c6.4,7.6,11.6,19.6,12.8,28.8C344.4,294.4,334,302.4,324,303.6z"/>
<g>
	<circle style="fill:#2B3B4E;" cx="254" cy="128.8" r="12.8"/>
	<circle style="fill:#2B3B4E;" cx="254" cy="379.2" r="12.8"/>
</g>
<g>
</g>
<g>
</g>
<g>
</g>
<g>
</g>
<g>
</g>
<g>
</g>
<g>
</g>
<g>
</g>
<g>
</g>
<g>
</g>
<g>
</g>
<g>
</g>
<g>
</g>
<g>
</g>
<g>
</g>
</svg>
