<?xml version="1.0" encoding="iso-8859-1"?>
<!-- Generator: Adobe Illustrator 19.0.0, SVG Export Plug-In . SVG Version: 6.00 Build 0)  -->
<svg version="1.1" id="Layer_1" xmlns="http://www.w3.org/2000/svg" xmlns:xlink="http://www.w3.org/1999/xlink" x="0px" y="0px"
	 viewBox="0 0 508 508" style="enable-background:new 0 0 508 508;" xml:space="preserve">
<path style="fill:#FFD05B;" d="M508,254c0,64-23.6,122-62.4,166.8c-15.2,17.2-32.4,32.4-51.2,45.2C354,492.4,306,508,254,508
	s-100-15.6-140.4-42c-19.2-12.8-36.4-28-51.2-45.2C23.6,376,0,318,0,254C0,113.6,113.6,0,254,0S508,113.6,508,254z"/>
<path style="fill:#F1543F;" d="M256,171.2L256,171.2c-3.6,0-6.4-2.8-6.4-6.4v-82c0-3.6,2.8-6.4,6.4-6.4l0,0c3.6,0,6.4,2.8,6.4,6.4
	v82C262,168.4,259.2,171.2,256,171.2z"/>
<path style="fill:#FFFFFF;" d="M338.4,183.6H169.6c-59.2,0-107.2,48-107.2,107.2v129.6c15.2,17.2,32.4,32.4,51.2,45.2V290.8
	c0-30.8,25.2-56,56-56h168.8c30.8,0,56,25.2,56,56V466c19.2-12.8,36.4-28,51.2-45.2v-130C445.6,231.6,397.6,183.6,338.4,183.6z"/>
<g>
	<path style="fill:#E6E9EE;" d="M349.6,248.4L349.6,248.4c-6,0-10.8-4.8-10.8-10.8v-53.2c0-6,4.8-10.8,10.8-10.8l0,0
		c6,0,10.8,4.8,10.8,10.8V238C360.4,243.6,355.6,248.4,349.6,248.4z"/>
	<path style="fill:#E6E9EE;" d="M382.4,289.6L382.4,289.6c0-6,4.8-10.8,10.8-10.8h53.6c6,0,10.8,4.8,10.8,10.8l0,0
		c0,6-4.8,10.8-10.8,10.8h-53.6C387.2,300.4,382.4,295.6,382.4,289.6z"/>
	<path style="fill:#E6E9EE;" d="M53.2,289.6L53.2,289.6c0-6,4.8-10.8,10.8-10.8h53.6c6,0,10.8,4.8,10.8,10.8l0,0
		c0,6-4.8,10.8-10.8,10.8h-54C58,300.4,53.2,295.6,53.2,289.6z"/>
	<path style="fill:#E6E9EE;" d="M166.8,248.4L166.8,248.4c-6,0-10.8-4.8-10.8-10.8v-53.2c0-6,4.8-10.8,10.8-10.8l0,0
		c6,0,10.8,4.8,10.8,10.8V238C177.2,243.6,172.8,248.4,166.8,248.4z"/>
</g>
<path style="fill:#324A5E;" d="M256,248.4L256,248.4c-16.4,0-30.4-12-32.4-28.4l-4.8-35.2C215.6,162,233.2,142,256,142l0,0
	c22.8,0,40.4,20,37.2,42.8l-4.8,35.2C286,236.4,272.4,248.4,256,248.4z"/>
<g>
	<polygon style="fill:#F1543F;" points="291.6,98.4 253.6,120 261.6,124 306,98.4 	"/>
	<polygon style="fill:#F1543F;" points="220.4,98.4 258,120 250,124 205.6,98.4 	"/>
</g>
<path style="fill:#FF7058;" d="M306.4,104.8H205.6c-5.2,0-9.6-4.4-9.6-9.6l0,0c0-5.2,4.4-9.6,9.6-9.6h100.8c5.2,0,9.6,4.4,9.6,9.6
	l0,0C316,100.4,311.6,104.8,306.4,104.8z"/>
<g>
</g>
<g>
</g>
<g>
</g>
<g>
</g>
<g>
</g>
<g>
</g>
<g>
</g>
<g>
</g>
<g>
</g>
<g>
</g>
<g>
</g>
<g>
</g>
<g>
</g>
<g>
</g>
<g>
</g>
</svg>
