<?xml version="1.0" encoding="iso-8859-1"?>
<!-- Generator: Adobe Illustrator 19.0.0, SVG Export Plug-In . SVG Version: 6.00 Build 0)  -->
<svg version="1.1" id="Layer_1" xmlns="http://www.w3.org/2000/svg" xmlns:xlink="http://www.w3.org/1999/xlink" x="0px" y="0px"
	 viewBox="0 0 508 508" style="enable-background:new 0 0 508 508;" xml:space="preserve">
<circle style="fill:#84DBFF;" cx="254" cy="254" r="254"/>
<g>
	<polygon style="fill:#2B3B4E;" points="354,386.8 290.4,386.8 300.4,407.6 344,407.6 	"/>
	<polygon style="fill:#2B3B4E;" points="224.8,386.8 160.8,386.8 170.8,407.6 214.4,407.6 	"/>
	<rect x="309.6" y="360.4" style="fill:#2B3B4E;" width="25.6" height="26.8"/>
	<rect x="180" y="360.4" style="fill:#2B3B4E;" width="25.6" height="26.8"/>
</g>
<path id="SVGCleanerId_0" style="fill:#F1543F;" d="M158.4,357.2l-31.2-7.2c-2.8-0.8-5.2-3.2-5.2-6v-38.4c0-2.8,2-5.6,5.2-6
	l31.2-7.2V357.2z"/>
<path id="SVGCleanerId_1" style="fill:#FF7058;" d="M170,366.8h193.6c8.8,0,15.6-7.2,15.6-15.6V298c0-8.8-7.2-15.6-15.6-15.6H170
	c-8.8,0-15.6,7.2-15.6,15.6v53.2C154,360,161.2,366.8,170,366.8z"/>
<g>
	<path id="SVGCleanerId_0_1_" style="fill:#F1543F;" d="M158.4,357.2l-31.2-7.2c-2.8-0.8-5.2-3.2-5.2-6v-38.4c0-2.8,2-5.6,5.2-6
		l31.2-7.2V357.2z"/>
</g>
<g>
	<path id="SVGCleanerId_1_1_" style="fill:#FF7058;" d="M170,366.8h193.6c8.8,0,15.6-7.2,15.6-15.6V298c0-8.8-7.2-15.6-15.6-15.6
		H170c-8.8,0-15.6,7.2-15.6,15.6v53.2C154,360,161.2,366.8,170,366.8z"/>
</g>
<path style="fill:#FF7058;" d="M377.2,196.4H130.8l22-43.6c2-4,6.4-6.8,10.8-6.8h180.8c4.4,0,8.8,2.4,10.8,6.8L377.2,196.4z"/>
<rect x="91.6" y="188.8" style="fill:#FFFFFF;" width="325.2" height="98.8"/>
<path style="fill:#324A5E;" d="M363.2,397.2H144.8c-33.6,0-61.2-27.6-61.2-61.2V146.4c0-4.4,3.6-8,8-8s8,3.6,8,8V336
	c0,24.8,20.4,45.2,45.2,45.2h218.8c24.8,0,45.2-20.4,45.2-45.2V146.4c0-4.4,3.6-8,8-8s8,3.6,8,8V336
	C424.4,370,397.2,397.2,363.2,397.2z"/>
<rect x="186.4" y="140.4" style="fill:#F1543F;" width="41.2" height="6"/>
<path style="fill:#FFFFFF;" d="M230,140.4h-45.6c-2,0-4-1.6-4-4l0,0c0-2,1.6-4,4-4H230c2,0,4,1.6,4,4l0,0
	C234,138.4,232,140.4,230,140.4z"/>
<rect x="128.8" y="206" style="fill:#E6E9EE;" width="250.4" height="63.6"/>
<path style="fill:#324A5E;" d="M353.6,257.2h-26.8c-3.6,0-6.4-2.8-6.4-6.4V222c0-3.6,2.8-6.4,6.4-6.4h26.8c3.6,0,6.4,2.8,6.4,6.4
	v28.8C360,254.4,357.2,257.2,353.6,257.2z"/>
<g>
	<rect x="347.6" y="231.6" style="fill:#2B3B4E;" width="4" height="9.6"/>
	<rect x="328.8" y="231.6" style="fill:#2B3B4E;" width="4" height="9.6"/>
</g>
<path style="fill:#FFFFFF;" d="M169.6,256.8h-20c-2,0-4-1.6-4-4v-29.6c0-2,1.6-4,4-4h20c2,0,4,1.6,4,4v29.6
	C173.6,254.8,171.6,256.8,169.6,256.8z"/>
<rect x="148.8" y="223.6" style="fill:#FF7058;" width="21.6" height="14.4"/>
<rect x="148.8" y="238" style="fill:#F1543F;" width="21.6" height="14.4"/>
<rect x="202" y="306.8" style="fill:#FFD05B;" width="124.4" height="36"/>
<g>
	<rect x="217.2" y="314" style="fill:#F9B54C;" width="95.6" height="5.6"/>
	<rect x="217.2" y="328.8" style="fill:#F9B54C;" width="53.2" height="5.6"/>
</g>
<g>
</g>
<g>
</g>
<g>
</g>
<g>
</g>
<g>
</g>
<g>
</g>
<g>
</g>
<g>
</g>
<g>
</g>
<g>
</g>
<g>
</g>
<g>
</g>
<g>
</g>
<g>
</g>
<g>
</g>
</svg>
