<?xml version="1.0" encoding="iso-8859-1"?>
<!-- Generator: Adobe Illustrator 19.0.0, SVG Export Plug-In . SVG Version: 6.00 Build 0)  -->
<svg version="1.1" id="Layer_1" xmlns="http://www.w3.org/2000/svg" xmlns:xlink="http://www.w3.org/1999/xlink" x="0px" y="0px"
	 viewBox="0 0 508 508" style="enable-background:new 0 0 508 508;" xml:space="preserve">
<circle style="fill:#324A5E;" cx="254" cy="254" r="254"/>
<path style="fill:#2B3B4E;" d="M1.2,278.8C13.6,407.2,122,508,254,508s240.4-100.8,252.8-229.2H1.2z"/>
<path style="fill:#324A5E;" d="M351.6,19.6C321.6,6.8,288.8,0,254,0s-67.6,6.8-97.6,19.6H351.6z"/>
<rect x="93.6" y="158" style="fill:#FFFFFF;" width="135.2" height="120.4"/>
<rect x="93.6" y="257.2" style="fill:#E6E9EE;" width="135.2" height="20.8"/>
<rect x="77.6" y="138.8" style="fill:#FFD05B;" width="352.4" height="19.2"/>
<rect x="105.2" y="171.2" style="fill:#84DBFF;" width="112" height="65.2"/>
<polygon style="fill:#54C0EB;" points="168,171.2 134.4,236.4 216.8,236.4 216.8,171.2 "/>
<rect x="407.2" y="158" style="fill:#E6E9EE;" width="12.8" height="120.4"/>
<path style="fill:none;stroke:#E6E9EE;stroke-width:0.415;stroke-miterlimit:10;" d="M346.4,266.4h-10v-30.8c0-4.4,3.6-8,8-8l0,0"/>
<path style="fill:#FF7058;" d="M343.2,278.4h44.4v-55.6c0-4.4-3.6-7.6-7.6-7.6h-29.2c-4.4,0-7.6,3.6-7.6,7.6L343.2,278.4
	L343.2,278.4z"/>
<rect x="348.4" y="223.2" style="fill:#E6E9EE;" width="33.6" height="23.6"/>
<polygon style="fill:#CED5E0;" points="348.4,223.2 382,246.8 348.4,246.8 "/>
<rect x="336.4" y="271.2" style="fill:#F1543F;" width="57.6" height="7.2"/>
<rect x="127.2" y="81.6" style="fill:#FF7058;" width="254" height="57.2"/>
<g>
	<path style="fill:#2C9984;" d="M344.4,406.8h-38V432c0,4.4,3.6,8,8,8h22.4c4.4,0,8-3.6,8-8v-25.2H344.4z"/>
	<path style="fill:#2C9984;" d="M201.6,406.8h-38V432c0,4.4,3.6,8,8,8H194c4.4,0,8-3.6,8-8v-25.2H201.6z"/>
</g>
<path style="fill:#4CDBC4;" d="M348.8,404.4l8-41.6c0.8-4.8-0.4-9.2-3.2-13.2l0,0c-6-7.6-10.4-16.4-13.2-25.6l-14-45.6
	c-2.4-7.2-9.2-12.4-16.8-12.4H198.4c-7.6,0-14.4,5.2-16.8,12.4l-14,45.6c-2.8,9.2-7.2,18-13.2,25.6l0,0c-2.8,3.6-4,8.4-3.2,13.2
	l8,41.6c1.2,8.8,8.8,15.2,17.2,15.2h154.8C340.4,419.6,347.6,413.2,348.8,404.4z"/>
<path style="fill:#FFFFFF;" d="M320,280.4H188v0.4l-13.6,43.6h158.8L320,280.4L320,280.4z"/>
<path style="fill:#2C9984;" d="M335.6,376.4c-11.2,4.4-29.6,6-32.4-0.8s11.2-19.2,22.4-24c11.2-4.4,14.8,0.4,17.6,7.2
	C345.6,365.6,346.4,371.6,335.6,376.4z"/>
<circle style="fill:#FFFFFF;" cx="329.6" cy="364" r="9.6"/>
<path style="fill:#2C9984;" d="M172.4,376.4c11.2,4.4,29.6,6,32.4-0.8c2.8-6.8-11.2-19.2-22.4-24c-11.2-4.4-14.8,0.4-17.6,7.2
	C162.4,365.6,161.6,371.6,172.4,376.4z"/>
<circle style="fill:#FFFFFF;" cx="178.4" cy="364" r="9.6"/>
<polygon style="fill:#2C9984;" points="286.4,389.2 222,389.2 213.2,354.8 295.2,354.8 "/>
<ellipse style="fill:#FFFFFF;" cx="261.6" cy="83.2" rx="56.4" ry="33.2"/>
<g>
	<path style="fill:#54C0EB;" d="M243.2,83.2h5.6V92c-2.4,2.8-6,4-10.4,4c-3.6,0-6.8-1.2-9.2-3.6s-3.6-5.6-3.6-9.2s1.2-6.8,3.6-9.2
		c2.4-2.4,5.6-3.6,9.2-3.6c3.6,0,6.8,1.2,9.2,3.6l-2.8,4c-1.2-0.8-2-1.6-3.2-2c-0.8-0.4-2-0.4-3.2-0.4c-2,0-4,0.8-5.2,2
		c-1.6,1.6-2,3.2-2,5.6s0.8,4.4,2,5.6c1.2,1.6,3.2,2,4.8,2c2,0,3.6-0.4,4.8-1.2v-6.4H243.2z"/>
	<path style="fill:#54C0EB;" d="M271.2,95.6l-2.4-5.2h-10.4l-2.4,5.2h-6l10.8-24.8h5.2l10.8,24.8C276.8,95.6,271.2,95.6,271.2,95.6z
		 M263.6,78.4l-3.2,7.2h6.4L263.6,78.4z"/>
	<path style="fill:#54C0EB;" d="M285.6,76c-0.4,0.4-0.8,1.2-0.8,1.6c0,0.8,0.4,1.2,0.8,1.6c0.8,0.4,2,0.8,4.4,1.6
		c2.4,0.4,4,1.6,5.6,2.8c1.2,1.2,2,2.8,2,5.2c0,2.4-0.8,4-2.4,5.6c-1.6,1.2-4,2-6.4,2c-4,0-7.6-1.6-10.8-4.4l3.2-4
		c2.8,2.4,5.2,3.6,7.6,3.6c1.2,0,2-0.4,2.4-0.8s0.8-1.2,0.8-1.6s-0.4-1.2-0.8-1.6c-0.8-0.4-2-0.8-3.6-1.2c-2.8-0.8-4.8-1.6-6.4-2.8
		c-1.2-1.2-2-2.8-2-5.2c0-2.4,0.8-4,2.4-5.6c1.6-1.2,4-2,6.4-2c1.6,0,3.2,0.4,4.8,0.8c1.6,0.4,3.2,1.2,4.4,2.4l-2.8,4
		c-2-1.6-4.4-2.4-6.8-2.4C286.8,75.2,286,75.6,285.6,76z"/>
</g>
<g>
</g>
<g>
</g>
<g>
</g>
<g>
</g>
<g>
</g>
<g>
</g>
<g>
</g>
<g>
</g>
<g>
</g>
<g>
</g>
<g>
</g>
<g>
</g>
<g>
</g>
<g>
</g>
<g>
</g>
</svg>
