<?xml version="1.0" encoding="iso-8859-1"?>
<!-- Generator: Adobe Illustrator 19.0.0, SVG Export Plug-In . SVG Version: 6.00 Build 0)  -->
<svg version="1.1" id="Layer_1" xmlns="http://www.w3.org/2000/svg" xmlns:xlink="http://www.w3.org/1999/xlink" x="0px" y="0px"
	 viewBox="0 0 508 508" style="enable-background:new 0 0 508 508;" xml:space="preserve">
<circle style="fill:#54C0EB;" cx="254" cy="254" r="254"/>
<path style="fill:#2B3B4E;" d="M401.6,159.6l-23.2,16.8l-32-47.2l22.8-16.4c2.4-1.6,5.6-1.2,7.2,1.2l26,38.8
	C404.4,154.8,404,158,401.6,159.6z"/>
<path style="fill:#324A5E;" d="M385.6,191.2l-9.6,6.4c-3.6,2.4-8.8,1.6-11.2-2l-40.8-60c-2.4-3.6-1.6-8.8,2-11.2l9.6-6.4
	c3.6-2.4,8.8-1.6,11.2,2l40.8,60C390.4,183.6,389.2,188.4,385.6,191.2z"/>
<path style="fill:#FFFFFF;" d="M305.2,108.8H152.4c-13.6,0-24.8,11.2-24.8,24.8v243.6c0,13.6,11.2,24.8,24.8,24.8h216
	c13.6,0,24.8-11.2,24.8-24.8V218.8c0-5.2-1.6-10.4-4.8-14.8l-63.2-85.2C320.4,112.4,313.2,108.8,305.2,108.8z"/>
<path style="fill:#54C0EB;" d="M244.4,157.6h-82c-8.4,0-15.6-6.8-15.6-15.6l0,0c0-8.4,6.8-15.6,15.6-15.6h82
	c8.4,0,15.6,6.8,15.6,15.6l0,0C260,150.4,252.8,157.6,244.4,157.6z"/>
<path style="fill:#4CDBC4;" d="M348.4,216l-1.2,2.4c-5.6,11.2-8.8,24-9.6,37.2c-4,56.8-72.8,60.4-72.8,60.4
	C248,218.8,348.4,216,348.4,216z"/>
<path style="fill:#2C9984;" d="M339.6,222c-5.6,4-13.2,9.6-22,16.8c-4.4,3.6-9.2,8-13.6,12.4c-4.8,4.8-9.6,9.6-14,15.2
	c-2.4,2.8-4.4,5.6-6.8,8.8c-2,3.2-4.4,6-6.4,9.2c-4,6.4-8,13.2-10.8,20.4c-2.8,7.2-5.2,14.8-6.4,22.4c-1.2,7.6-1.6,15.2-1.2,22.8
	c0,2,0.4,3.6,0.8,5.6c0.4,1.6,0.4,3.2,0.8,4.8h6c0-0.4,0-0.4-0.4-0.8c-0.4-1.6-0.8-3.2-1.2-4.8c-0.4-1.6-0.8-3.2-0.8-5.2
	c-0.8-6.8-0.8-14,0.4-21.6c0.8-7.2,2.8-14.4,5.6-21.6c2.4-7.2,6-14,9.6-20.4c2-3.2,4-6.4,6-9.2c2-2.8,4-6,6.4-8.8
	c4.4-5.6,8.8-10.8,13.6-15.6c4.4-4.8,8.8-9.2,13.2-12.8C326.8,232,334.4,226,339.6,222c5.6-3.6,8.8-5.6,8.8-5.6S345.2,218,339.6,222
	z"/>
<path style="fill:#4CDBC4;" d="M172.4,216l1.2,2.4c5.6,11.2,8.8,24,9.6,37.2c4,56.8,72.8,60.4,72.8,60.4
	C272.8,218.8,172.4,216,172.4,216z"/>
<path style="fill:#2C9984;" d="M241.2,286.4c3.6,6.4,7.2,13.2,9.6,20.4c2.4,7.2,4.4,14.4,5.6,21.6c0.8,7.2,1.2,14.4,0.4,21.6
	c0,1.6-0.4,3.6-0.8,5.2s-0.4,3.2-1.2,4.8c0,0.4,0,0.4-0.4,0.8h6.4c0.4-1.6,0.4-3.2,0.8-4.8c0.4-2,0.4-3.6,0.8-5.6
	c0.8-7.6,0-15.2-1.2-22.8c-1.2-7.6-3.6-15.2-6.4-22.4c-2.8-7.2-6.8-14-10.8-20.4c-2-3.2-4.4-6.4-6.4-9.2c-2.4-2.8-4.4-6-6.8-8.8
	c-4.8-5.6-9.2-10.8-14-15.2c-4.8-4.8-9.2-8.8-13.6-12.4c-8.8-7.6-16.4-13.2-22-16.8c-5.6-4-8.8-5.6-8.8-5.6s3.2,2,8.8,6
	c5.2,4,12.8,10,21.2,17.6c4.4,4,8.8,8.4,13.2,12.8c4.4,4.8,9.2,10,13.6,15.6c2.4,2.8,4.4,5.6,6.4,8.8
	C237.6,280,239.6,283.2,241.2,286.4z"/>
<g>
</g>
<g>
</g>
<g>
</g>
<g>
</g>
<g>
</g>
<g>
</g>
<g>
</g>
<g>
</g>
<g>
</g>
<g>
</g>
<g>
</g>
<g>
</g>
<g>
</g>
<g>
</g>
<g>
</g>
</svg>
