<?xml version="1.0" encoding="iso-8859-1"?>
<!-- Generator: Adobe Illustrator 19.0.0, SVG Export Plug-In . SVG Version: 6.00 Build 0)  -->
<svg version="1.1" id="Layer_1" xmlns="http://www.w3.org/2000/svg" xmlns:xlink="http://www.w3.org/1999/xlink" x="0px" y="0px"
	 viewBox="0 0 508 508" style="enable-background:new 0 0 508 508;" xml:space="preserve">
<circle style="fill:#FFD05B;" cx="254" cy="254" r="254"/>
<path style="fill:#324A5E;" d="M246.4,169.2H224V136c0-5.2-4-9.2-9.2-9.2h-53.2c-5.2,0-9.2,4-9.2,9.2v25.6H130V136
	c0-17.6,14.4-32,32-32h52.8c17.6,0,32,14.4,32,32v33.2H246.4z"/>
<path style="fill:#ACB3BA;" d="M162.4,104.4v22c0,2.8,2.4,5.2,5.2,5.2H208c2.8,0,5.2-2.4,5.2-5.2v-22c0-2.8-2.4-5.2-5.2-5.2h-40.4
	C164.8,99.2,162.4,101.6,162.4,104.4z"/>
<path style="fill:#FF7058;" d="M390.8,190H270l31.2-37.2c1.2-1.6,3.2-2.4,5.2-2.4h74.8c5.2,0,9.6,4.4,9.6,9.6L390.8,190L390.8,190z"
	/>
<polygon style="fill:#FFD05B;" points="365.6,161.6 308.4,161.6 294,178.4 365.6,178.4 "/>
<path style="fill:#FF7058;" d="M376.4,408.8H222c-8,0-14.4-6.4-14.4-14.4v-216h183.2v216C390.8,402.4,384.4,408.8,376.4,408.8z"/>
<g>
	<path style="fill:#F1543F;" d="M332.4,339.2H266V248h66.4V339.2z M277.2,328h43.6v-68.4h-43.6V328z"/>
	<path style="fill:#F1543F;" d="M354,374.8c-1.6,0-3.2-0.8-4.4-2L322,337.2c-2-2.4-1.6-6,0.8-8s6-1.6,8,0.8l27.6,35.2
		c2,2.4,1.6,6-0.8,8C356.4,374.4,355.2,374.8,354,374.8z"/>
	<path style="fill:#F1543F;" d="M244,374.8c-1.2,0-2.4-0.4-3.6-1.2c-2.4-2-2.8-5.6-0.8-8l27.6-35.2c2-2.4,5.6-2.8,8-0.8
		s2.8,5.6,0.8,8l-27.6,35.2C247.6,374,245.6,374.8,244,374.8z"/>
	<path style="fill:#F1543F;" d="M326.8,259.6c-1.2,0-2.4-0.4-3.6-1.2c-2.4-2-2.8-5.6-0.8-8l27.6-35.2c2-2.4,5.6-2.8,8-0.8
		s2.8,5.6,0.8,8l-27.6,35.2C330,258.8,328.4,259.6,326.8,259.6z"/>
	<path style="fill:#F1543F;" d="M271.6,259.6c-1.6,0-3.2-0.8-4.4-2L239.6,222c-2-2.4-1.6-6,0.8-8c2.4-2,6-1.6,8,0.8L276,250
		c2,2.4,1.6,6-0.8,8C274,259.2,272.8,259.6,271.6,259.6z"/>
</g>
<g>
	<path style="fill:#2B3B4E;" d="M262.4,178.4h-54.8v-9.2c0-5.2,4.4-9.6,9.6-9.6h35.6c5.2,0,9.6,4.4,9.6,9.6L262.4,178.4L262.4,178.4
		z"/>
	<path style="fill:#2B3B4E;" d="M153.2,160h-25.6c-1.6,0-2.4,1.2-2.4,2.4v6.8c0,1.6,1.2,2.4,2.4,2.4h25.6c1.6,0,2.4-1.2,2.4-2.4
		v-6.8C155.6,161.2,154.8,160,153.2,160z"/>
</g>
<path style="fill:#FFFFFF;" d="M163.6,245.6c0,12.8-10.4,23.2-23.2,23.2s-23.2-10.4-23.2-23.2s23.2-55.6,23.2-55.6
	S163.6,232.8,163.6,245.6z"/>
<g>
</g>
<g>
</g>
<g>
</g>
<g>
</g>
<g>
</g>
<g>
</g>
<g>
</g>
<g>
</g>
<g>
</g>
<g>
</g>
<g>
</g>
<g>
</g>
<g>
</g>
<g>
</g>
<g>
</g>
</svg>
