<?xml version="1.0" encoding="iso-8859-1"?>
<!-- Generator: Adobe Illustrator 19.0.0, SVG Export Plug-In . SVG Version: 6.00 Build 0)  -->
<svg version="1.1" id="Layer_1" xmlns="http://www.w3.org/2000/svg" xmlns:xlink="http://www.w3.org/1999/xlink" x="0px" y="0px"
	 viewBox="0 0 508 508" style="enable-background:new 0 0 508 508;" xml:space="preserve">
<circle style="fill:#84DBFF;" cx="254" cy="254" r="254"/>
<path style="fill:#FFFFFF;" d="M161.6,307.2L161.6,307.2c17.6,23.2,48,33.2,76,24.4c11.6-3.6,24-8,36.8-14
	c44-19.6,71.6-54,89.2-103.6c6.8-20,24.8-43.6,67.6-51.6c-8-3.6-76.4-48-152.8-31.2c-57.2,8-118.4,53.6-130,122
	C144.8,272.4,149.6,292,161.6,307.2z"/>
<path style="fill:#E6E9EE;" d="M398.4,160.4c0,0-1.6,0-4.4,0s-6.8,0-12,0.4c-2.8,0-5.6,0.4-8.8,0.8c-3.2,0.4-6.4,0.8-10,1.2
	c-7.2,1.2-15.2,2.8-24,5.2s-18,5.2-27.2,8.8c-9.6,3.6-19.2,8.4-28.8,13.6c-9.6,5.2-19.2,11.6-28.8,18.4c-9.2,6.8-18,14.4-26.4,22.8
	c-8.4,8-16,17.2-22.8,26c-3.2,4.8-6.8,9.2-9.6,14c-1.6,2.4-3.2,4.8-4.4,7.2c-1.2,2.4-2.8,4.8-4,7.2c-2.8,4.8-4.8,9.6-7.2,14
	c-2,4.8-4.4,9.2-6,14s-3.6,9.2-4.8,13.6s-2.8,8.8-4,12.8s-2,8-3.2,12c-0.8,4-1.6,7.6-2,10.8c-1.2,6.8-2,12.8-2.8,18
	c-0.8,10-1.6,15.6-1.6,15.6l-30-3.2c0,0,1.2-6,2.8-17.2c1.2-5.2,2.4-12,4.4-19.2c1.2-3.6,2-7.6,3.2-11.6s2.8-8.4,4.4-12.8
	c1.6-4.4,3.6-8.8,5.2-13.6c2-4.8,4.4-9.6,6.4-14.4c2.4-4.8,5.2-9.6,7.6-14.8c3.2-4.8,6-10,9.2-14.8c1.6-2.4,3.2-4.8,5.2-7.2
	c1.6-2.4,3.6-4.8,5.2-7.2c3.6-4.8,7.6-9.6,11.6-14c8.4-9.2,17.2-18,26.8-25.6c9.6-8,19.6-15.2,30-21.6c10.4-6.4,20.8-12,31.2-16.8
	c10.4-4.8,20.8-8.8,30.8-11.6c10-3.2,19.6-5.6,28.8-6.8c8.8-1.6,17.2-2.4,24.4-3.2c3.6,0,7.2-0.4,10.4-0.4c3.2,0,6,0,8.8,0
	c5.2,0,9.6,0.4,12.4,0.8C397.2,160.4,398.4,160.4,398.4,160.4z"/>
<g>
</g>
<g>
</g>
<g>
</g>
<g>
</g>
<g>
</g>
<g>
</g>
<g>
</g>
<g>
</g>
<g>
</g>
<g>
</g>
<g>
</g>
<g>
</g>
<g>
</g>
<g>
</g>
<g>
</g>
</svg>
