<?xml version="1.0" encoding="iso-8859-1"?>
<!-- Generator: Adobe Illustrator 19.0.0, SVG Export Plug-In . SVG Version: 6.00 Build 0)  -->
<svg version="1.1" id="Layer_1" xmlns="http://www.w3.org/2000/svg" xmlns:xlink="http://www.w3.org/1999/xlink" x="0px" y="0px"
	 viewBox="0 0 508 508" style="enable-background:new 0 0 508 508;" xml:space="preserve">
<circle style="fill:#324A5E;" cx="254" cy="254" r="254"/>
<path style="fill:#ACB3BA;" d="M297.6,399.6h-87.2c-3.2,0-5.6-2.4-5.6-5.6l0,0c0-3.2,2.4-5.6,5.6-5.6h86.8c3.2,0,5.6,2.4,5.6,5.6
	l0,0C303.2,397.2,300.4,399.6,297.6,399.6z"/>
<g>
	<path style="fill:#CED5E0;" d="M284.4,319.6c-1.2,0-2.4-0.4-4-0.8c-5.2-2-7.6-8-5.6-13.2l24-58.8c2-5.2,8-7.6,13.2-5.6
		s7.6,8,5.6,13.2l-24,58.8C292.4,317.2,288.4,319.6,284.4,319.6z"/>
	<path style="fill:#CED5E0;" d="M223.6,319.6c-4,0-8-2.4-9.6-6.4l-24-58.8c-2-5.2,0.4-11.2,5.6-13.2c5.2-2,11.2,0.4,13.2,5.6
		l24,58.8c2,5.2-0.4,11.2-5.6,13.2C226.4,319.2,224.8,319.6,223.6,319.6z"/>
</g>
<g>
	<path style="fill:#FFFFFF;" d="M303.6,114.8H200c-9.2,0-16.4-7.6-16.4-16.4l0,0c0-9.2,7.6-16.4,16.4-16.4h103.6
		c9.2,0,16.4,7.6,16.4,16.4l0,0C320,107.2,312.8,114.8,303.6,114.8z"/>
	<path style="fill:#FFFFFF;" d="M324.8,164H183.2c-9.2,0-16.4-7.6-16.4-16.4l0,0c0-9.2,7.6-16.4,16.4-16.4h142
		c9.2,0,16.4,7.6,16.4,16.4l0,0C341.6,156.8,334,164,324.8,164z"/>
	<path style="fill:#FFFFFF;" d="M324.8,263.2H183.2c-9.2,0-16.4-7.6-16.4-16.4l0,0c0-9.2,7.6-16.4,16.4-16.4h142
		c9.2,0,16.4,7.6,16.4,16.4l0,0C341.6,255.6,334,263.2,324.8,263.2z"/>
	<path style="fill:#FFFFFF;" d="M324.8,213.6H183.2c-9.2,0-16.4-7.6-16.4-16.4l0,0c0-9.2,7.6-16.4,16.4-16.4h142
		c9.2,0,16.4,7.6,16.4,16.4l0,0C341.6,206,334,213.6,324.8,213.6z"/>
</g>
<path style="fill:#E6E9EE;" d="M254,426.4L254,426.4c-21.2,0-38.4-17.2-38.4-38.4v-34h76.8v34C292.4,409.2,275.2,426.4,254,426.4z"
	/>
<path style="fill:#FFFFFF;" d="M190.8,302v45.2c0,12.8,10.4,23.2,23.2,23.2h80c12.8,0,23.2-10.4,23.2-23.2V302H190.8z"/>
<g>
</g>
<g>
</g>
<g>
</g>
<g>
</g>
<g>
</g>
<g>
</g>
<g>
</g>
<g>
</g>
<g>
</g>
<g>
</g>
<g>
</g>
<g>
</g>
<g>
</g>
<g>
</g>
<g>
</g>
</svg>
