<?xml version="1.0" encoding="iso-8859-1"?>
<!-- Generator: Adobe Illustrator 19.0.0, SVG Export Plug-In . SVG Version: 6.00 Build 0)  -->
<svg version="1.1" id="Layer_1" xmlns="http://www.w3.org/2000/svg" xmlns:xlink="http://www.w3.org/1999/xlink" x="0px" y="0px"
	 viewBox="0 0 508 508" style="enable-background:new 0 0 508 508;" xml:space="preserve">
<circle style="fill:#FD8469;" cx="254" cy="254" r="254"/>
<path style="fill:#E6E9EE;" d="M276.8,314.4H260V84c0-3.2-2.8-6-6-6c-3.2,0-6,2.8-6,6v230.4h-16.8V84c0-12.4,10.4-22.8,22.8-22.8
	c12.4,0,22.8,10.4,22.8,22.8V314.4z"/>
<g>
	<path style="fill:#FFFFFF;" d="M248.4,314.4h-16.8V84c0-3.2-2.8-6-6-6s-6,2.8-6,6v230.4h-16.8V84c0-12.4,10.4-22.8,22.8-22.8
		c12.4,0,22.8,10.4,22.8,22.8V314.4z"/>
	<path style="fill:#FFFFFF;" d="M305.6,314.4h-16.8V84c0-3.2-2.8-6-6-6s-6,2.8-6,6v230.4H260V84c0-12.4,10.4-22.8,22.8-22.8
		s22.8,10.4,22.8,22.8V314.4z"/>
</g>
<path style="fill:#E6E9EE;" d="M193.6,305.6V366c0,13.6,10.8,24.4,24.4,24.4h72c13.6,0,24.4-10.8,24.4-24.4v-60.4H193.6z"/>
<path style="fill:#324A5E;" d="M276.8,446.8c6.4,0,12-4,14-10c1.2-3.6,2-7.6,2-11.6v-34.8H218v34.8c0,4,0.8,8,2,11.6
	c2,6,7.6,10,14,10H276.8z"/>
<g>
	<path style="fill:#2B3B4E;" d="M294.8,408h-79.2c-2.4,0-4-2-4-4l0,0c0-2.4,2-4,4-4h79.2c2.4,0,4,2,4,4l0,0
		C298.8,406.4,297.2,408,294.8,408z"/>
	<path style="fill:#2B3B4E;" d="M294.8,422.8h-79.2c-2.4,0-4-2-4-4l0,0c0-2.4,2-4,4-4h79.2c2.4,0,4,2,4,4l0,0
		C298.8,420.8,297.2,422.8,294.8,422.8z"/>
	<path style="fill:#2B3B4E;" d="M294.8,437.2h-79.2c-2.4,0-4-2-4-4l0,0c0-2.4,2-4,4-4h79.2c2.4,0,4,2,4,4l0,0
		C298.8,435.2,297.2,437.2,294.8,437.2z"/>
</g>
<g>
</g>
<g>
</g>
<g>
</g>
<g>
</g>
<g>
</g>
<g>
</g>
<g>
</g>
<g>
</g>
<g>
</g>
<g>
</g>
<g>
</g>
<g>
</g>
<g>
</g>
<g>
</g>
<g>
</g>
</svg>
