<?xml version="1.0" encoding="iso-8859-1"?>
<!-- Generator: Adobe Illustrator 19.0.0, SVG Export Plug-In . SVG Version: 6.00 Build 0)  -->
<svg version="1.1" id="Layer_1" xmlns="http://www.w3.org/2000/svg" xmlns:xlink="http://www.w3.org/1999/xlink" x="0px" y="0px"
	 viewBox="0 0 508 508" style="enable-background:new 0 0 508 508;" xml:space="preserve">
<circle style="fill:#FFD05B;" cx="254" cy="254" r="254"/>
<path style="fill:#FF7058;" d="M251.2,438c-76-1.6-136.4-65.2-136.4-141.6V161.2c0-6,4.8-11.2,11.2-11.2h58.4
	c6,0,11.2,4.8,11.2,11.2v136.4c0,31.6,24.8,58.8,56.4,60c33.2,1.2,60.8-25.6,60.8-58.4v-138c0-6,4.8-11.2,11.2-11.2h58
	c6,0,11.2,4.8,11.2,11.2v137.6C393.2,376.4,329.2,439.2,251.2,438z"/>
<g>
	<path style="fill:#FFFFFF;" d="M393.2,220.8v-60c0-6-4.8-11.2-11.2-11.2h-58.4c-6,0-11.2,4.8-11.2,11.2v60H393.2z"/>
	<path style="fill:#FFFFFF;" d="M195.6,220.8v-60c0-6-4.8-11.2-11.2-11.2H126c-6,0-11.2,4.8-11.2,11.2v60H195.6z"/>
</g>
<polygon style="fill:#324A5E;" points="299.6,132 266.8,132 276.8,70 217.6,143.2 250.4,143.2 240.4,205.2 "/>
<g>
</g>
<g>
</g>
<g>
</g>
<g>
</g>
<g>
</g>
<g>
</g>
<g>
</g>
<g>
</g>
<g>
</g>
<g>
</g>
<g>
</g>
<g>
</g>
<g>
</g>
<g>
</g>
<g>
</g>
</svg>
