<?xml version="1.0" encoding="iso-8859-1"?>
<!-- Generator: Adobe Illustrator 19.0.0, SVG Export Plug-In . SVG Version: 6.00 Build 0)  -->
<svg version="1.1" id="Layer_1" xmlns="http://www.w3.org/2000/svg" xmlns:xlink="http://www.w3.org/1999/xlink" x="0px" y="0px"
	 viewBox="0 0 508 508" style="enable-background:new 0 0 508 508;" xml:space="preserve">
<circle style="fill:#FD8469;" cx="254" cy="254" r="254"/>
<g>
	<path style="fill:#FFFFFF;" d="M171.6,192.8c0,0-1.6-2-4.4-5.2c-1.2-2-2.8-4-4-6.8s-2.8-6.4-3.2-10c-0.8-4-0.8-8.4,0-13.2
		c0.8-4.4,2.4-9.2,4.8-13.6c2.4-4.4,5.2-8.4,8.4-12.4s6.4-7.6,10-11.2c3.2-3.6,6.8-6.8,10-10.4c3.2-3.2,6.4-6.8,8.8-10
		c2.4-3.2,4.8-6.8,6.4-10c1.6-3.2,2.4-6.8,2.8-10c0-0.8,0-1.6,0.4-2.4c0-0.8,0-1.6,0-2.4s0-1.6,0-2.4s0-1.6-0.4-2
		c-0.4-2.8-1.2-5.2-1.6-7.2c-1.2-4-2-6.4-2-6.4s0.4,0.4,1.2,1.2s2,2,3.2,4c1.2,2,2.8,4,4,7.2c0.4,0.8,0.8,1.6,0.8,2.4
		c0.4,0.8,0.4,1.6,0.8,2.4c0.4,1.6,0.8,3.6,0.8,5.6c0.4,2,0,4,0,6.4c-0.4,2-0.4,4.4-1.2,6.8c-1.2,4.4-3.2,8.8-6,13.2
		c-2.4,4.4-5.6,8-8.8,12c-3.2,3.6-6.8,7.2-10,10.8s-6.4,6.8-9.6,10.4c-3.2,3.2-5.6,6.8-8,10.4c-2.4,3.6-4,6.8-5.2,10.4
		c-0.4,1.6-1.2,3.6-1.2,5.2c-0.4,1.6-0.4,3.2-0.8,5.2c0,3.2,0,6.4,0.8,9.2c0.4,2.8,1.2,5.2,1.6,7.2
		C170.8,190.4,171.6,192.8,171.6,192.8z"/>
	<path style="fill:#FFFFFF;" d="M198,199.2c0,0-1.6-2-4.4-5.2c-1.2-2-2.8-4-4-6.8s-2.8-6.4-3.2-10c-0.8-4-0.8-8.4,0-13.2
		c0.8-4.4,2.4-9.2,4.8-13.6c2.4-4.4,5.2-8.4,8.4-12.4s6.4-7.6,10-11.2c3.2-3.6,6.8-6.8,10-10.4c3.2-3.2,6.4-6.8,8.8-10
		c2.4-3.2,4.8-6.8,6.4-10c1.6-3.2,2.4-6.8,2.8-10c0-0.8,0-1.6,0.4-2.4c0-0.8,0-1.6,0-2.4s0-1.6,0-2.4s0-1.6-0.4-2
		c-0.4-2.8-1.2-5.2-1.6-7.2c-1.2-4-2-6.4-2-6.4s0.4,0.4,1.2,1.2c0.8,0.8,2,2,3.2,4s2.8,4,4,7.2c0.4,0.8,0.8,1.6,0.8,2.4
		c0.4,0.8,0.4,1.6,0.8,2.4c0.4,1.6,0.8,3.6,0.8,5.6c0.4,2,0,4,0,6.4c-0.4,2-0.4,4.4-1.2,6.8c-1.2,4.4-3.2,8.8-6,13.2
		c-2.4,4.4-5.6,8-8.8,12c-3.2,3.6-6.8,7.2-10,10.8c-3.2,3.6-6.4,6.8-9.6,10.4c-3.2,3.2-5.6,6.8-8,10.4c-2.4,3.6-4,6.8-5.2,10.4
		c-0.4,1.6-1.2,3.6-1.2,5.2c-0.4,1.6-0.4,3.2-0.8,5.2c0,3.2,0,6.4,0.8,9.2c0.4,2.8,1.2,5.2,1.6,7.2C197.2,196.8,198,199.2,198,199.2
		z"/>
	<path style="fill:#FFFFFF;" d="M224.4,205.2c0,0-1.6-2-4.4-5.2c-1.2-2-2.8-4-4-6.8s-2.8-6.4-3.2-10c-0.8-4-0.8-8.4,0-13.2
		c0.8-4.4,2.4-9.2,4.8-13.6c2.4-4.4,5.2-8.4,8.4-12.4s6.4-7.6,10-11.2c3.2-3.6,6.8-6.8,10-10.4c3.2-3.2,6.4-6.8,8.8-10
		s4.8-6.8,6.4-10s2.4-6.8,2.8-10c0-0.8,0-1.6,0.4-2.4c0-0.8,0-1.6,0-2.4s0-1.6,0-2.4s0-1.6-0.4-2c-0.4-2.8-1.2-5.2-1.6-7.2
		c-1.2-4-2-6.4-2-6.4s0.4,0.4,1.2,1.2c0.8,0.8,2,2,3.2,4s2.8,4,4,7.2c0.4,0.8,0.8,1.6,0.8,2.4c0.4,0.8,0.4,1.6,0.8,2.4
		c0.4,1.6,0.8,3.6,0.8,5.6c0.4,2,0,4,0,6.4c-0.4,2-0.4,4.4-1.2,6.8c-1.2,4.4-3.2,8.8-6,13.2c-2.4,4.4-5.6,8-8.8,12
		c-3.2,3.6-6.8,7.2-10,10.8s-6.4,6.8-9.6,10.4c-3.2,3.2-5.6,6.8-8,10.4c-2.4,3.6-4,6.8-5.2,10.4c-0.4,1.6-1.2,3.6-1.2,5.2
		c-0.4,1.6-0.4,3.2-0.8,5.2c0,3.2,0,6.4,0.8,9.2c0.4,2.8,1.2,5.2,1.6,7.2C223.6,202.8,224.4,205.2,224.4,205.2z"/>
	<path style="fill:#FFFFFF;" d="M313.2,238c0,0-1.2-1.2-3.2-4c-0.8-1.2-2-2.8-2.8-5.2c-0.8-2-2-4.4-2.4-7.6
		c-1.2-5.6,0-13.2,3.6-19.6c1.6-3.2,3.6-6.4,6-9.2s4.8-5.6,7.2-8c2.4-2.4,4.8-5.2,7.2-7.6c2.4-2.4,4.4-4.8,6.4-7.2
		c1.6-2.4,3.6-4.8,4.4-7.2c1.2-2.4,2-4.8,2-7.2c0-1.2,0.4-2.4,0-3.6c0-1.2,0-2-0.4-3.2c0-2-0.8-3.6-1.2-5.2
		c-0.8-2.8-1.6-4.8-1.6-4.8s0.4,0.4,0.8,0.8c0.4,0.8,1.6,1.6,2.4,2.8s2,2.8,2.8,5.2c0.4,1.2,0.8,2.4,1.2,3.6c0.4,1.2,0.4,2.8,0.8,4
		c0.4,1.6,0,3.2,0,4.8c-0.4,1.6-0.4,3.2-0.8,4.8c-0.8,3.2-2.4,6.4-4.4,9.6c-2,3.2-4,6-6.4,8.8s-4.8,5.2-7.2,8
		c-4.8,4.8-9.6,10-12.8,14.8c-1.6,2.4-2.8,5.2-4,7.6c-0.8,2.4-1.2,5.2-1.6,7.6c0,2.4,0,4.8,0.4,6.8s0.8,3.6,1.2,5.2
		C312.4,236.4,313.2,238,313.2,238z"/>
	<path style="fill:#FFFFFF;" d="M332.4,242.8c0,0-1.2-1.2-3.2-4c-0.8-1.2-2-2.8-2.8-5.2c-0.8-2-2-4.4-2.4-7.6
		c-1.2-5.6,0-13.2,3.6-19.6c1.6-3.2,3.6-6.4,6-9.2s4.8-5.6,7.2-8c2.4-2.4,4.8-4.8,7.2-7.6c2.4-2.4,4.4-4.8,6.4-7.2
		c1.6-2.4,3.6-4.8,4.4-7.2c1.2-2.4,2-4.8,2-7.2c0-1.2,0.4-2.4,0-3.6c0-1.2,0-2-0.4-3.2c0-2-0.8-3.6-1.2-5.2
		c-0.8-2.8-1.6-4.8-1.6-4.8s0.4,0.4,0.8,0.8c0.4,0.8,1.6,1.6,2.4,2.8s2,2.8,2.8,5.2c0.4,1.2,0.8,2.4,1.2,3.6c0.4,1.2,0.4,2.8,0.8,4
		c0.4,1.6,0,3.2,0,4.8c0.4,2.4,0.4,4-0.4,5.6c-0.8,3.2-2.4,6.4-4.4,9.6c-2,3.2-4,6-6.4,8.8s-4.8,5.2-7.2,8
		c-4.8,4.8-9.6,10-12.8,14.8c-1.6,2.4-2.8,5.2-4,7.6c-0.8,2.4-1.2,5.2-1.6,7.6c0,2.4,0,4.8,0.4,6.8s0.8,3.6,1.2,5.2
		C331.6,240.8,332.4,242.8,332.4,242.8z"/>
	<path style="fill:#FFFFFF;" d="M351.6,247.2c0,0-1.2-1.2-3.2-4c-0.8-1.2-2-2.8-2.8-5.2c-0.8-2-2-4.4-2.4-7.6
		c-1.2-5.6,0-13.2,3.6-19.6c1.6-3.2,3.6-6.4,6-9.2s4.8-5.6,7.2-8c2.4-2.4,4.8-5.2,7.2-7.6c2.4-2.4,4.4-4.8,6.4-7.2
		c1.6-2.4,3.6-4.8,4.4-7.2c1.2-2.4,2-4.8,2-7.2c0-1.2,0.4-2.4,0-3.6c0-1.2,0-2-0.4-3.2c0-2-0.8-3.6-1.2-5.2
		c-0.8-2.8-1.6-4.8-1.6-4.8s0.4,0.4,0.8,0.8c0.4,0.8,1.6,1.6,2.4,2.8s2,2.8,2.8,5.2c0.4,1.2,0.8,2.4,1.2,3.6c0.4,1.2,0.4,2.8,0.8,4
		c0.4,1.6,0,3.2,0,4.8c-0.4,1.6-0.4,3.2-0.8,4.8c-0.8,3.2-2.4,6.4-4.4,9.6c-2,3.2-4,6-6.4,8.8s-4.8,5.2-7.2,8
		c-4.8,4.8-9.6,10-12.8,14.8c-1.6,2.4-2.8,5.2-4,7.6c-0.8,2.4-1.2,5.2-1.6,7.6c0,2.4,0,4.8,0.4,6.8s0.8,3.6,1.2,5.2
		C350.8,245.6,351.6,247.2,351.6,247.2z"/>
</g>
<path style="fill:#2B3B4E;" d="M403.2,425.2c-47.2,0-94.4,0-141.2,0c-30-36.4-9.6-72.4,6.8-108.8C286,280,300,244,275.6,207.6
	c38,0,76,0,113.6,0C364.8,244,378.8,280,396,316.4C412.8,352.8,432.8,389.2,403.2,425.2z"/>
<path style="fill:#324A5E;" d="M289.2,425.2c-58,0-116,0-173.6,0c-36.8-42.4-12-84.4,8.4-126.8c21.2-42,38-84.4,8.4-126.4
	c46.4,0,93.2,0,139.6,0c-29.6,42.4-12.8,84.4,8.4,126.8C301.2,340.8,325.6,383.2,289.2,425.2z"/>
<path style="fill:#F1543F;" d="M66.4,425.2C112.8,476,179.6,508,254,508s140.8-32,187.6-82.8H66.4z"/>
<g>
</g>
<g>
</g>
<g>
</g>
<g>
</g>
<g>
</g>
<g>
</g>
<g>
</g>
<g>
</g>
<g>
</g>
<g>
</g>
<g>
</g>
<g>
</g>
<g>
</g>
<g>
</g>
<g>
</g>
</svg>
