<?xml version="1.0" encoding="iso-8859-1"?>
<!-- Generator: Adobe Illustrator 19.0.0, SVG Export Plug-In . SVG Version: 6.00 Build 0)  -->
<svg version="1.1" id="Layer_1" xmlns="http://www.w3.org/2000/svg" xmlns:xlink="http://www.w3.org/1999/xlink" x="0px" y="0px"
	 viewBox="0 0 508 508" style="enable-background:new 0 0 508 508;" xml:space="preserve">
<circle style="fill:#84DBFF;" cx="254" cy="254" r="254"/>
<path style="fill:#2B3B4E;" d="M443.6,254c0,13.2-0.8,26-2,38.8H66.4c-1.6-12.8-2-25.6-2-38.8s0.8-26,2-38.8h374.8
	C442.8,228,443.6,240.8,443.6,254z"/>
<circle style="fill:#324A5E;" cx="254" cy="254" r="155.2"/>
<circle style="fill:#FFFFFF;" cx="254" cy="254" r="141.6"/>
<path style="fill:#324A5E;" d="M339.6,220.8h-14c-3.2,0-5.6-2.4-5.6-5.6v-28.4c0-3.2,2.4-5.6,5.6-5.6h14c3.2,0,5.6,2.4,5.6,5.6v28.4
	C344.8,218.4,342.4,220.8,339.6,220.8z"/>
<path style="fill:#E6E9EE;" d="M332.4,211.2c-2.8,0-4.8-0.8-6-2.8s-2-4.4-2-7.2c0-3.2,0.8-5.6,2-7.2c1.2-2,3.2-2.8,6-2.8
	s4.8,0.8,6,2.8s2,4.4,2,7.2c0,3.2-0.8,5.6-2,7.2C337.2,210.4,335.2,211.2,332.4,211.2z M329.6,196.4c-0.8,1.2-0.8,2.8-0.8,4.8
	s0.4,3.6,0.8,4.8c0.8,1.2,1.6,1.6,2.8,1.6c1.2,0,2.4-0.4,2.8-1.6c0.8-1.2,0.8-2.8,0.8-4.8s-0.4-3.6-0.8-4.8
	c-0.8-1.2-1.6-1.6-2.8-1.6C331.2,194.4,330,195.2,329.6,196.4z"/>
<path style="fill:#324A5E;" d="M308,220.8h-14c-3.2,0-5.6-2.4-5.6-5.6v-28.4c0-3.2,2.4-5.6,5.6-5.6h14c3.2,0,5.6,2.4,5.6,5.6v28.4
	C313.6,218.4,311.2,220.8,308,220.8z"/>
<path style="fill:#E6E9EE;" d="M300.8,211.2c-2.8,0-4.8-0.8-6-2.8s-2-4.4-2-7.2c0-3.2,0.8-5.6,2-7.2c1.2-2,3.2-2.8,6-2.8
	s4.8,0.8,6,2.8s2,4.4,2,7.2c0,3.2-0.8,5.6-2,7.2C305.6,210.4,303.6,211.2,300.8,211.2z M298,196.4c-0.8,1.2-0.8,2.8-0.8,4.8
	s0.4,3.6,0.8,4.8c0.8,1.2,1.6,1.6,2.8,1.6c1.2,0,2.4-0.4,2.8-1.6c0.8-1.2,0.8-2.8,0.8-4.8s-0.4-3.6-0.8-4.8
	c-0.8-1.2-1.6-1.6-2.8-1.6C299.6,194.4,298.8,195.2,298,196.4z"/>
<path style="fill:#324A5E;" d="M276.8,220.8h-14c-3.2,0-5.6-2.4-5.6-5.6v-28.4c0-3.2,2.4-5.6,5.6-5.6h14c3.2,0,5.6,2.4,5.6,5.6v28.4
	C282,218.4,279.6,220.8,276.8,220.8z"/>
<path style="fill:#E6E9EE;" d="M269.6,211.2c-2.8,0-4.8-0.8-6-2.8s-2-4.4-2-7.2c0-3.2,0.8-5.6,2-7.2c1.2-2,3.2-2.8,6-2.8
	s4.8,0.8,6,2.8s2,4.4,2,7.2c0,3.2-0.8,5.6-2,7.2C274.4,210.4,272.4,211.2,269.6,211.2z M266.8,196.4c-0.8,1.2-0.8,2.8-0.8,4.8
	s0.4,3.6,0.8,4.8c0.8,1.2,1.6,1.6,2.8,1.6c1.2,0,2.4-0.4,2.8-1.6c0.8-1.2,0.8-2.8,0.8-4.8s-0.4-3.6-0.8-4.8
	c-0.8-1.2-1.6-1.6-2.8-1.6C268.4,194.4,267.2,195.2,266.8,196.4z"/>
<path style="fill:#324A5E;" d="M245.6,220.8h-14c-3.2,0-5.6-2.4-5.6-5.6v-28.4c0-3.2,2.4-5.6,5.6-5.6h14c3.2,0,5.6,2.4,5.6,5.6v28.4
	C250.8,218.4,248.4,220.8,245.6,220.8z"/>
<path style="fill:#E6E9EE;" d="M238.4,211.2c-2.8,0-4.8-0.8-6-2.8s-2-4.4-2-7.2c0-3.2,0.8-5.6,2-7.2c1.2-2,3.2-2.8,6-2.8
	s4.8,0.8,6,2.8s2,4.4,2,7.2c0,3.2-0.8,5.6-2,7.2C243.2,210.4,241.2,211.2,238.4,211.2z M235.6,196.4c-0.8,1.2-0.8,2.8-0.8,4.8
	s0.4,3.6,0.8,4.8c0.8,1.2,1.6,1.6,2.8,1.6s2.4-0.4,2.8-1.6c0.8-1.2,0.8-2.8,0.8-4.8s-0.4-3.6-0.8-4.8c-0.8-1.2-1.6-1.6-2.8-1.6
	C237.2,194.4,236,195.2,235.6,196.4z"/>
<path style="fill:#324A5E;" d="M214,220.8h-14c-3.2,0-5.6-2.4-5.6-5.6v-28.4c0-3.2,2.4-5.6,5.6-5.6h14c3.2,0,5.6,2.4,5.6,5.6v28.4
	C219.6,218.4,217.2,220.8,214,220.8z"/>
<path style="fill:#E6E9EE;" d="M207.2,211.2c-2.8,0-4.8-0.8-6-2.8s-2-4.4-2-7.2c0-3.2,0.8-5.6,2-7.2c1.2-2,3.2-2.8,6-2.8
	s4.8,0.8,6,2.8s2,4.4,2,7.2c0,3.2-0.8,5.6-2,7.2C211.6,210.4,209.6,211.2,207.2,211.2z M204,196.4c-0.8,1.2-0.8,2.8-0.8,4.8
	s0.4,3.6,0.8,4.8c0.8,1.2,1.6,1.6,2.8,1.6s2.4-0.4,2.8-1.6c0.8-1.2,0.8-2.8,0.8-4.8s-0.4-3.6-0.8-4.8c-0.8-1.2-1.6-1.6-2.8-1.6
	C205.6,194.4,204.8,195.2,204,196.4z"/>
<path style="fill:#324A5E;" d="M182.8,220.8h-14c-3.2,0-5.6-2.4-5.6-5.6v-28.4c0-3.2,2.4-5.6,5.6-5.6h14c3.2,0,5.6,2.4,5.6,5.6v28.4
	C188,218.4,185.6,220.8,182.8,220.8z"/>
<g>
	<path style="fill:#E6E9EE;" d="M175.6,211.2c-2.8,0-4.8-0.8-6-2.8s-2-4.4-2-7.2c0-3.2,0.8-5.6,2-7.2c1.2-2,3.2-2.8,6-2.8
		s4.8,0.8,6,2.8s2,4.4,2,7.2c0,3.2-0.8,5.6-2,7.2C180.4,210.4,178.4,211.2,175.6,211.2z M172.8,196.4c-0.8,1.2-0.8,2.8-0.8,4.8
		s0.4,3.6,0.8,4.8c0.8,1.2,1.6,1.6,2.8,1.6s2.4-0.4,2.8-1.6c0.8-1.2,0.8-2.8,0.8-4.8s-0.4-3.6-0.8-4.8c-0.8-1.2-1.6-1.6-2.8-1.6
		C174.4,194.4,173.2,195.2,172.8,196.4z"/>
	<path style="fill:#E6E9EE;" d="M64.4,313.6L64.4,313.6c-9.6,0-17.6-7.6-17.6-17.6v-84.4c0-9.6,7.6-17.6,17.6-17.6l0,0
		c9.6,0,17.6,7.6,17.6,17.6V296C82,306,74,313.6,64.4,313.6z"/>
	<path style="fill:#E6E9EE;" d="M443.6,313.6L443.6,313.6c-9.6,0-17.6-7.6-17.6-17.6v-84.4c0-9.6,7.6-17.6,17.6-17.6l0,0
		c9.6,0,17.6,7.6,17.6,17.6V296C460.8,306,453.2,313.6,443.6,313.6z"/>
</g>
<path style="fill:#FFD05B;" d="M254,248.8c-2.8,27.6-39.2,43.6-39.2,74c0,21.6,17.6,39.2,39.2,39.2s39.2-17.6,39.2-39.2
	C293.2,292.4,256.8,276.4,254,248.8z"/>
<path style="fill:#F9B54C;" d="M269.2,287.2c0,0,1.2,1.2,2.8,2.8c1.6,2,4.4,4.4,7.2,8c2.8,3.6,6,7.6,8,13.2c0.8,2.8,2,5.6,2,8.8
	c0,0.8,0,1.6,0,2.4v0.4v0.4v0.4v1.2c0,1.6,0,2.8-0.4,4.4c-0.4,3.2-1.6,6-2.8,8.8c-1.2,2.8-3.2,5.2-4.8,7.6c-2,2-4,4-6,5.6
	s-4.4,2.8-6.4,3.6c-2,0.8-4,1.6-6,1.6c-1.6,0.4-3.2,0.4-4.8,0.4c-1.2,0-2.4,0-3.2,0c-0.8,0-1.2,0-1.2,0s1.6,0,4-0.8
	c1.2-0.4,2.8-0.4,4.4-1.2c0.8-0.4,1.6-0.4,2.4-1.2c0.8-0.4,2-0.8,2.8-1.2c0.8-0.4,2-1.2,2.8-1.6c0.8-0.8,2-1.2,2.8-2
	c2-1.6,3.6-3.2,5.2-5.2s3.2-4.4,4-6.8c1.2-2.4,2-5.2,2.4-8c0.4-1.2,0.4-2.8,0.4-4v-1.2v-0.4l0,0l0,0l0,0v-0.4c0-0.8,0-1.2,0-2
	c-0.4-2.8-0.8-5.2-1.6-8c-1.6-4.8-4-9.2-6.4-13.2c-2.4-3.6-4.4-6.8-6-8.8C270,288.4,269.2,287.2,269.2,287.2z"/>
<path style="fill:#E6E9EE;" d="M171.6,301.2L171.6,301.2c-16,0-29.2-13.2-29.2-29.2l0,0c0-16,13.2-29.2,29.2-29.2l0,0
	c16,0,29.2,13.2,29.2,29.2l0,0C200.8,288.4,187.6,301.2,171.6,301.2z"/>
<path style="fill:#ACB3BA;" d="M171.6,297.2c-0.8,0-1.2-0.4-1.2-1.2v-6c0-0.8,0.4-1.2,1.2-1.2s1.2,0.4,1.2,1.2v6
	C172.8,296.8,172.4,297.2,171.6,297.2z"/>
<path style="fill:#ACB3BA;" d="M171.6,255.6c-0.8,0-1.2-0.4-1.2-1.2v-6c0-0.8,0.4-1.2,1.2-1.2s1.2,0.4,1.2,1.2v5.6
	C172.8,254.8,172.4,255.6,171.6,255.6z"/>
<path style="fill:#ACB3BA;" d="M153.6,273.6h-6c-0.8,0-1.2-0.4-1.2-1.2c0-0.8,0.4-1.2,1.2-1.2h6c0.8,0,1.2,0.4,1.2,1.2
	C154.8,272.8,154.4,273.6,153.6,273.6z"/>
<path style="fill:#ACB3BA;" d="M195.6,273.6h-6c-0.8,0-1.2-0.4-1.2-1.2c0-0.8,0.4-1.2,1.2-1.2h6c0.8,0,1.2,0.4,1.2,1.2
	C196.8,272.8,196,273.6,195.6,273.6z"/>
<path style="fill:#ACB3BA;" d="M154.8,290.4c-0.4,0-0.8,0-0.8-0.4c-0.4-0.4-0.4-1.2,0-1.6l4-4c0.4-0.4,1.2-0.4,1.6,0
	c0.4,0.4,0.4,1.2,0,1.6l-4,4C155.2,290,155.2,290.4,154.8,290.4z"/>
<path style="fill:#ACB3BA;" d="M184.4,260.8c-0.4,0-0.8,0-0.8-0.4c-0.4-0.4-0.4-1.2,0-1.6l4-4c0.4-0.4,1.2-0.4,1.6,0
	c0.4,0.4,0.4,1.2,0,1.6l-4,4C184.8,260.4,184.8,260.8,184.4,260.8z"/>
<path style="fill:#ACB3BA;" d="M158.8,260.8c-0.4,0-0.8,0-0.8-0.4l-4-4c-0.4-0.4-0.4-1.2,0-1.6s1.2-0.4,1.6,0l4,4
	c0.4,0.4,0.4,1.2,0,1.6C159.6,260.4,159.2,260.8,158.8,260.8z"/>
<path style="fill:#ACB3BA;" d="M188.4,290.4c-0.4,0-0.8,0-0.8-0.4l-4-4c-0.4-0.4-0.4-1.2,0-1.6s1.2-0.4,1.6,0l4,4
	c0.4,0.4,0.4,1.2,0,1.6C189.2,290,188.8,290.4,188.4,290.4z"/>
<path style="fill:#ACB3BA;" d="M180.8,295.6c-0.4,0-0.8-0.4-1.2-0.8l-2.4-5.6c-0.4-0.8,0-1.2,0.8-1.6s1.2,0,1.6,0.8l2.4,5.6
	c0.4,0.8,0,1.2-0.8,1.6C181.2,295.6,180.8,295.6,180.8,295.6z"/>
<path style="fill:#ACB3BA;" d="M164.8,256.8c-0.4,0-0.8-0.4-1.2-0.8l-2.4-5.6c-0.4-0.8,0-1.2,0.8-1.6c0.8-0.4,1.2,0,1.6,0.8l2.4,5.6
	c0.4,0.8,0,1.2-0.8,1.6C165.2,256.8,164.8,256.8,164.8,256.8z"/>
<path style="fill:#ACB3BA;" d="M149.6,282.4c-0.4,0-0.8-0.4-1.2-0.8c-0.4-0.8,0-1.2,0.8-1.6l5.6-2.4c0.8-0.4,1.2,0,1.6,0.8
	c0.4,0.8,0,1.2-0.8,1.6l-5.6,2.4H149.6z"/>
<path style="fill:#ACB3BA;" d="M188.4,266.4c-0.4,0-0.8-0.4-1.2-0.8c-0.4-0.8,0-1.2,0.8-1.6l5.6-2.4c0.8-0.4,1.2,0,1.6,0.8
	c0.4,0.8,0,1.2-0.8,1.6l-5.6,2.4C188.4,266.4,188.4,266.4,188.4,266.4z"/>
<path style="fill:#ACB3BA;" d="M162.4,295.6H162c-0.8-0.4-0.8-1.2-0.8-1.6l2.4-5.6c0.4-0.8,1.2-0.8,1.6-0.8c0.8,0.4,0.8,1.2,0.8,1.6
	l-2.4,5.6C163.6,295.2,162.8,295.6,162.4,295.6z"/>
<path style="fill:#ACB3BA;" d="M178.4,256.8H178c-0.8-0.4-0.8-1.2-0.8-1.6l2.4-5.6c0.4-0.8,1.2-0.8,1.6-0.8c0.8,0.4,0.8,1.2,0.8,1.6
	l-2.4,5.6C179.6,256.4,178.8,256.8,178.4,256.8z"/>
<path style="fill:#ACB3BA;" d="M154.8,266.4h-0.4l-5.6-2.4c-0.8-0.4-0.8-1.2-0.8-1.6c0.4-0.8,1.2-0.8,1.6-0.8l5.6,2.4
	c0.8,0.4,0.8,1.2,0.8,1.6C156,266.4,155.6,266.4,154.8,266.4z"/>
<path style="fill:#ACB3BA;" d="M193.6,282.4h-0.4l-5.6-2.4c-0.8-0.4-0.8-1.2-0.8-1.6c0.4-0.8,1.2-0.8,1.6-0.8l5.6,2.4
	c0.8,0.4,0.8,1.2,0.8,1.6C194.8,282.4,194,282.4,193.6,282.4z"/>
<path style="fill:#324A5E;" d="M171.6,279.2L171.6,279.2c-4,0-6.8-3.2-6.8-6.8l0,0c0-4,3.2-6.8,6.8-6.8l0,0c4,0,6.8,3.2,6.8,6.8l0,0
	C178.4,276,175.6,279.2,171.6,279.2z"/>
<path style="fill:#E6E9EE;" d="M336.4,301.2L336.4,301.2c-16,0-29.2-13.2-29.2-29.2l0,0c0-16,13.2-29.2,29.2-29.2l0,0
	c16,0,29.2,13.2,29.2,29.2l0,0C365.6,288.4,352.4,301.2,336.4,301.2z"/>
<path style="fill:#ACB3BA;" d="M336.4,297.2c-0.8,0-1.2-0.4-1.2-1.2v-6c0-0.8,0.4-1.2,1.2-1.2c0.8,0,1.2,0.4,1.2,1.2v6
	C337.6,296.8,337.2,297.2,336.4,297.2z"/>
<path style="fill:#ACB3BA;" d="M336.4,255.6c-0.8,0-1.2-0.4-1.2-1.2v-6c0-0.8,0.4-1.2,1.2-1.2c0.8,0,1.2,0.4,1.2,1.2v5.6
	C337.6,254.8,337.2,255.6,336.4,255.6z"/>
<path style="fill:#ACB3BA;" d="M318.4,273.6h-6c-0.8,0-1.2-0.4-1.2-1.2c0-0.8,0.4-1.2,1.2-1.2h6c0.8,0,1.2,0.4,1.2,1.2
	C319.6,272.8,319.2,273.6,318.4,273.6z"/>
<path style="fill:#ACB3BA;" d="M360.4,273.6h-6c-0.8,0-1.2-0.4-1.2-1.2c0-0.8,0.4-1.2,1.2-1.2h6c0.8,0,1.2,0.4,1.2,1.2
	C361.6,272.8,360.8,273.6,360.4,273.6z"/>
<path style="fill:#ACB3BA;" d="M319.6,290.4c-0.4,0-0.8,0-0.8-0.4c-0.4-0.4-0.4-1.2,0-1.6l4-4c0.4-0.4,1.2-0.4,1.6,0s0.4,1.2,0,1.6
	l-4,4C320,290,320,290.4,319.6,290.4z"/>
<path style="fill:#ACB3BA;" d="M349.2,260.8c-0.4,0-0.8,0-0.8-0.4c-0.4-0.4-0.4-1.2,0-1.6l4-4c0.4-0.4,1.2-0.4,1.6,0s0.4,1.2,0,1.6
	l-4,4C349.6,260.4,349.6,260.8,349.2,260.8z"/>
<path style="fill:#ACB3BA;" d="M323.6,260.8c-0.4,0-0.8,0-0.8-0.4l-4-4c-0.4-0.4-0.4-1.2,0-1.6s1.2-0.4,1.6,0l4,4
	c0.4,0.4,0.4,1.2,0,1.6C324.4,260.4,324,260.8,323.6,260.8z"/>
<path style="fill:#ACB3BA;" d="M353.2,290.4c-0.4,0-0.8,0-0.8-0.4l-4-4c-0.4-0.4-0.4-1.2,0-1.6s1.2-0.4,1.6,0l4,4
	c0.4,0.4,0.4,1.2,0,1.6C354,290,353.6,290.4,353.2,290.4z"/>
<path style="fill:#ACB3BA;" d="M345.6,295.6c-0.4,0-0.8-0.4-1.2-0.8l-2.4-5.6c-0.4-0.8,0-1.2,0.8-1.6s1.2,0,1.6,0.8l2.4,5.6
	c0.4,0.8,0,1.2-0.8,1.6H345.6z"/>
<path style="fill:#ACB3BA;" d="M329.6,256.8c-0.4,0-0.8-0.4-1.2-0.8l-2.4-5.6c-0.4-0.8,0-1.2,0.8-1.6c0.8-0.4,1.2,0,1.6,0.8l2.4,5.6
	c0.4,0.8,0,1.2-0.8,1.6H329.6z"/>
<path style="fill:#ACB3BA;" d="M314.4,282.4c-0.4,0-0.8-0.4-1.2-0.8c-0.4-0.8,0-1.2,0.8-1.6l5.6-2.4c0.8-0.4,1.2,0,1.6,0.8
	s0,1.2-0.8,1.6l-5.6,2.4H314.4z"/>
<path style="fill:#ACB3BA;" d="M353.2,266.4c-0.4,0-0.8-0.4-1.2-0.8c-0.4-0.8,0-1.2,0.8-1.6l5.2-2c0.8-0.4,1.2,0,1.6,0.8
	s0,1.2-0.8,1.6l-5.6,2.4C353.2,266.4,353.2,266.4,353.2,266.4z"/>
<path style="fill:#ACB3BA;" d="M327.2,295.6h-0.4c-0.8-0.4-0.8-1.2-0.8-2l2.4-5.6c0.4-0.8,1.2-0.8,1.6-0.8c0.8,0.4,0.8,1.2,0.8,1.6
	l-2.4,5.6C328.4,295.2,327.6,295.6,327.2,295.6z"/>
<path style="fill:#ACB3BA;" d="M343.2,256.8h-0.4c-0.8-0.4-0.8-1.2-0.8-1.6l2.4-5.6c0.4-0.8,1.2-0.8,1.6-0.8
	c0.8,0.4,0.8,1.2,0.8,1.6l-2.4,5.6C344.4,256.4,343.6,256.8,343.2,256.8z"/>
<path style="fill:#ACB3BA;" d="M319.6,266.4h-0.4L314,264c-0.8-0.4-0.8-1.2-0.8-1.6c0.4-0.8,1.2-0.8,1.6-0.8l5.6,2.4
	c0.8,0.4,0.8,1.2,0.8,1.6C320.8,266.4,320.4,266.4,319.6,266.4z"/>
<path style="fill:#ACB3BA;" d="M358.4,282.4H358l-5.6-2.4c-0.8-0.4-0.8-1.2-0.8-1.6c0.4-0.8,1.2-0.8,1.6-0.8l5.6,2.4
	c0.8,0.4,0.8,1.2,0.8,1.6C359.6,282.4,358.8,282.4,358.4,282.4z"/>
<path style="fill:#324A5E;" d="M336.4,279.2L336.4,279.2c-4,0-6.8-3.2-6.8-6.8l0,0c0-4,3.2-6.8,6.8-6.8l0,0c4,0,6.8,3.2,6.8,6.8l0,0
	C343.2,276,340,279.2,336.4,279.2z"/>
<g>
</g>
<g>
</g>
<g>
</g>
<g>
</g>
<g>
</g>
<g>
</g>
<g>
</g>
<g>
</g>
<g>
</g>
<g>
</g>
<g>
</g>
<g>
</g>
<g>
</g>
<g>
</g>
<g>
</g>
</svg>
