<?xml version="1.0" encoding="iso-8859-1"?>
<!-- Generator: Adobe Illustrator 19.0.0, SVG Export Plug-In . SVG Version: 6.00 Build 0)  -->
<svg version="1.1" id="Layer_1" xmlns="http://www.w3.org/2000/svg" xmlns:xlink="http://www.w3.org/1999/xlink" x="0px" y="0px"
	 viewBox="0 0 508 508" style="enable-background:new 0 0 508 508;" xml:space="preserve">
<circle style="fill:#54C0EB;" cx="254" cy="254" r="254"/>
<rect x="246.8" y="116" style="fill:#2B3B4E;" width="15.2" height="38.8"/>
<path style="fill:#324A5E;" d="M271.6,142.4h-35.2c-4.4,0-8.4,3.6-8.4,8.4V162c0,4.4,3.6,8.4,8.4,8.4h35.2c4.4,0,8.4-3.6,8.4-8.4
	v-11.2C280,146,276.4,142.4,271.6,142.4z"/>
<path style="fill:#FF7058;" d="M283.6,154.8h-59.2c-25.2,0-45.6,20.4-45.6,45.6v210.8c0,25.2,20.4,45.6,45.6,45.6h59.2
	c25.2,0,45.6-20.4,45.6-45.6V200.4C329.2,175.2,308.8,154.8,283.6,154.8z"/>
<g>
	<path style="fill:#FFFFFF;" d="M330,220.8H178c-4.4,0-8.4-3.6-8.4-8.4l0,0c0-4.4,3.6-8.4,8.4-8.4h152c4.4,0,8.4,3.6,8.4,8.4l0,0
		C338,216.8,334.4,220.8,330,220.8z"/>
	<path style="fill:#FFFFFF;" d="M330,250.8H178c-4.4,0-8.4-3.6-8.4-8.4l0,0c0-4.4,3.6-8.4,8.4-8.4h152c4.4,0,8.4,3.6,8.4,8.4l0,0
		C338,246.8,334.4,250.8,330,250.8z"/>
	<path style="fill:#FFFFFF;" d="M330,378H178c-4.4,0-8-4-8-8.4l0,0c0-4.4,3.6-8.4,8.4-8.4H330c4.4,0,8.4,3.6,8.4,8.4l0,0
		C338,374,334.4,378,330,378z"/>
	<path style="fill:#FFFFFF;" d="M330,408H178c-4.4,0-8.4-3.6-8.4-8.4l0,0c0-4.4,3.6-8.4,8.4-8.4h152c4.4,0,8.4,3.6,8.4,8.4l0,0
		C338,404,334.4,408,330,408z"/>
</g>
<circle style="fill:#324A5E;" cx="254" cy="88" r="36.8"/>
<circle style="fill:#FFFFFF;" cx="254" cy="88" r="26.8"/>
<g>
	<rect x="252.4" y="65.6" style="fill:#E6E9EE;" width="3.2" height="7.6"/>
	<rect x="252.4" y="102.4" style="fill:#E6E9EE;" width="3.2" height="7.6"/>
	<rect x="268.4" y="86.4" style="fill:#E6E9EE;" width="7.6" height="3.2"/>
	<rect x="231.6" y="86.4" style="fill:#E6E9EE;" width="7.6" height="3.2"/>
	
		<rect x="265.465" y="71.274" transform="matrix(-0.7071 -0.7071 0.7071 -0.7071 402.8225 317.0026)" style="fill:#E6E9EE;" width="3.2" height="7.6"/>
	
		<rect x="239.495" y="97.354" transform="matrix(-0.7071 -0.7071 0.7071 -0.7071 340.049 343.1609)" style="fill:#E6E9EE;" width="3.2" height="7.6"/>
	
		<rect x="265.297" y="97.228" transform="matrix(0.7071 -0.7071 0.7071 0.7071 6.7348 218.3154)" style="fill:#E6E9EE;" width="3.2" height="7.6"/>
	
		<rect x="239.123" y="71.164" transform="matrix(0.707 -0.7072 0.7072 0.707 17.5152 192.205)" style="fill:#E6E9EE;" width="3.2" height="7.6"/>
</g>
<circle style="fill:#FF7058;" cx="254" cy="88" r="5.2"/>
<g>
</g>
<g>
</g>
<g>
</g>
<g>
</g>
<g>
</g>
<g>
</g>
<g>
</g>
<g>
</g>
<g>
</g>
<g>
</g>
<g>
</g>
<g>
</g>
<g>
</g>
<g>
</g>
<g>
</g>
</svg>
