<?xml version="1.0" encoding="iso-8859-1"?>
<!-- Generator: Adobe Illustrator 19.0.0, SVG Export Plug-In . SVG Version: 6.00 Build 0)  -->
<svg version="1.1" id="Layer_1" xmlns="http://www.w3.org/2000/svg" xmlns:xlink="http://www.w3.org/1999/xlink" x="0px" y="0px"
	 viewBox="0 0 508 508" style="enable-background:new 0 0 508 508;" xml:space="preserve">
<circle style="fill:#FFD05B;" cx="254" cy="254" r="254"/>
<g>
	<path style="fill:#324A5E;" d="M345.6,279.2l-26-26l76.4-76.4c3.6-3.6,9.2-3.6,12.8,0L422,190c3.6,3.6,3.6,9.2,0,12.8L345.6,279.2z
		"/>
	<path style="fill:#324A5E;" d="M254.8,188.4l-26-26L305.2,86c3.6-3.6,9.2-3.6,12.8,0l13.2,13.2c3.6,3.6,3.6,9.2,0,12.8L254.8,188.4
		z"/>
</g>
<path style="fill:#FFFFFF;" d="M375.2,290.4L217.6,132.8c-7.6-7.6-20-7.6-27.6,0l-88.8,88.8c-7.6,7.6-7.6,20,0,27.6L112,260
	l-20.8,20.8c-4,4-4,10.8,0,15.2l0,0c4,4,4,10.8,0,15.2l-4.8,4.8c-4,4-4,10.8,0,15.2l90.4,90.4c4,4,10.8,4,15.2,0l4.8-4.8
	c4-4,10.8-4,15.2,0l0,0c4,4,10.8,4,15.2,0L248,396l10.8,10.8c7.6,7.6,20,7.6,27.6,0l88.8-88.8C382.8,310.4,382.8,298,375.2,290.4z"
	/>
<g>
</g>
<g>
</g>
<g>
</g>
<g>
</g>
<g>
</g>
<g>
</g>
<g>
</g>
<g>
</g>
<g>
</g>
<g>
</g>
<g>
</g>
<g>
</g>
<g>
</g>
<g>
</g>
<g>
</g>
</svg>
