<?xml version="1.0" encoding="iso-8859-1"?>
<!-- Generator: Adobe Illustrator 19.0.0, SVG Export Plug-In . SVG Version: 6.00 Build 0)  -->
<svg version="1.1" id="Layer_1" xmlns="http://www.w3.org/2000/svg" xmlns:xlink="http://www.w3.org/1999/xlink" x="0px" y="0px"
	 viewBox="0 0 508 508" style="enable-background:new 0 0 508 508;" xml:space="preserve">
<circle style="fill:#324A5E;" cx="254" cy="254" r="254"/>
<path style="fill:#2C9984;" d="M227.2,424.4c-33.2,0-60-26.8-60-60v-56.8h8.4v56.8c0,28.4,23.2,51.6,51.6,51.6s51.6-23.2,51.6-51.6
	V140.8c0-27.2,22-49.2,49.2-49.2s49.2,22,49.2,49.2v152h-8.4v-152c0-22.4-18-40.4-40.4-40.4s-40.4,18-40.4,40.4v223.6
	C287.2,397.6,260.4,424.4,227.2,424.4z"/>
<polygon style="fill:#FF7058;" points="385.6,280 359.6,280 363.6,256.4 381.6,256.4 "/>
<polygon style="fill:#CED5E0;" points="182.8,342.8 160.4,342.8 156.8,313.6 186.4,313.6 "/>
<path style="fill:#E6E9EE;" d="M221.2,318.8H122c-4.8,0-8.8-4-8.8-8.8V101.6c0-4.8,4-8.8,8.8-8.8h99.2c4.8,0,8.8,4,8.8,8.8V310
	C230,314.8,226,318.8,221.2,318.8z"/>
<g>
	<circle style="fill:#CED5E0;" cx="171.6" cy="158.4" r="40"/>
	<circle style="fill:#CED5E0;" cx="171.6" cy="253.2" r="40"/>
</g>
<g>
	<circle style="fill:#324A5E;" cx="184" cy="158.4" r="6"/>
	<circle style="fill:#324A5E;" cx="158.8" cy="158.4" r="6"/>
	<circle style="fill:#324A5E;" cx="184" cy="253.2" r="6"/>
	<circle style="fill:#324A5E;" cx="158.8" cy="253.2" r="6"/>
</g>
<g>
	<path style="fill:#FFFFFF;" d="M348.4,340h10.8v40.4c0,2.8-2.4,5.2-5.2,5.2l0,0c-2.8,0-5.2-2.4-5.2-5.2V340H348.4z"/>
	<path style="fill:#FFFFFF;" d="M388.4,340h10.8v40.4c0,2.8-2.4,5.2-5.2,5.2l0,0c-2.8,0-5.2-2.4-5.2-5.2V340H388.4z"/>
</g>
<path style="fill:#E6E9EE;" d="M408.8,332.8v-42.4c0-10.8-8.8-19.2-19.2-19.2H356c-10.8,0-19.2,8.8-19.2,19.2v42.4H408.8z"/>
<g>
	<path style="fill:#ACB3BA;" d="M332.8,327.2h79.6c3.6,0,6.4,2.8,6.4,6.4v7.2c0,3.6-2.8,6.4-6.4,6.4h-79.6c-3.6,0-6.4-2.8-6.4-6.4
		v-7.2C326.8,330,329.6,327.2,332.8,327.2z"/>
	<circle style="fill:#ACB3BA;" cx="372.4" cy="299.6" r="7.2"/>
</g>
<g>
</g>
<g>
</g>
<g>
</g>
<g>
</g>
<g>
</g>
<g>
</g>
<g>
</g>
<g>
</g>
<g>
</g>
<g>
</g>
<g>
</g>
<g>
</g>
<g>
</g>
<g>
</g>
<g>
</g>
</svg>
