<?xml version="1.0" encoding="iso-8859-1"?>
<!-- Generator: Adobe Illustrator 19.0.0, SVG Export Plug-In . SVG Version: 6.00 Build 0)  -->
<svg version="1.1" id="Layer_1" xmlns="http://www.w3.org/2000/svg" xmlns:xlink="http://www.w3.org/1999/xlink" x="0px" y="0px"
	 viewBox="0 0 508 508" style="enable-background:new 0 0 508 508;" xml:space="preserve">
<circle style="fill:#FD8469;" cx="254" cy="254" r="254"/>
<path style="fill:#FFFFFF;" d="M218.8,443.2c-0.4,0-0.8,0-1.2,0c-93.2-17.6-160-102.8-156-198C66,146,147.2,65.6,246.4,61.6
	c52.8-2,102.8,17.2,140.8,53.6c38,36.8,58.8,86,58.8,138.8c0,62.8-30.8,122-82.4,158c-23.2,16-51.6,18-76.4,4.8
	c-24.8-12.8-39.6-37.2-39.6-65.2c0-3.2,2.8-6,6-6c3.2,0,6,2.8,6,6c0,23.2,12.4,43.6,33.2,54.4c20.8,10.8,44.8,9.2,64-4
	c48.4-34,77.6-89.2,77.6-148.4c0-49.6-19.6-95.6-55.2-130s-82.8-52.4-132.4-50.4c-93.2,3.6-169.2,79.2-173.2,172
	c-4,89.2,58.8,168.8,146.4,185.6c3.2,0.8,5.2,3.6,4.8,6.8C224,441.2,221.6,443.2,218.8,443.2z"/>
<path style="fill:#324A5E;" d="M307.6,218h-16v-76.4c0-4.4,3.6-8,8-8l0,0c4.4,0,8,3.6,8,8V218z"/>
<path style="fill:#E6E9EE;" d="M310,228.4v-45.6c0-6-4.8-10.4-10.4-10.4c-6,0-10.4,4.8-10.4,10.4v45.6H310z"/>
<path style="fill:#324A5E;" d="M216.4,218h-16v-76.4c0-4.4,3.6-8,8-8l0,0c4.4,0,8,3.6,8,8V218z"/>
<path style="fill:#E6E9EE;" d="M219.2,228.4v-45.6c0-6-4.8-10.4-10.4-10.4s-10.8,4.8-10.8,10.4v45.6H219.2z"/>
<path style="fill:#2B3B4E;" d="M184.4,244.4v97.2c0,17.6,14.4,32,32,32h75.2c17.6,0,32-14.4,32-32v-97.2H184.4z"/>
<g>
	<path style="fill:#324A5E;" d="M326.4,244.4H181.6c-5.6,0-10.4-4.8-10.4-10.4l0,0c0-5.6,4.8-10.4,10.4-10.4h145.2
		c5.6,0,10.4,4.8,10.4,10.4l0,0C336.8,240,332.4,244.4,326.4,244.4z"/>
	<circle style="fill:#324A5E;" cx="255.6" cy="316.4" r="22.8"/>
</g>
<rect x="250.598" y="281.981" transform="matrix(-0.7071 0.7071 -0.7071 -0.7071 659.9059 359.0197)" style="fill:#2B3B4E;" width="10" height="68.399"/>
<g>
</g>
<g>
</g>
<g>
</g>
<g>
</g>
<g>
</g>
<g>
</g>
<g>
</g>
<g>
</g>
<g>
</g>
<g>
</g>
<g>
</g>
<g>
</g>
<g>
</g>
<g>
</g>
<g>
</g>
</svg>
