<?xml version="1.0" encoding="iso-8859-1"?>
<!-- Generator: Adobe Illustrator 19.0.0, SVG Export Plug-In . SVG Version: 6.00 Build 0)  -->
<svg version="1.1" id="Layer_1" xmlns="http://www.w3.org/2000/svg" xmlns:xlink="http://www.w3.org/1999/xlink" x="0px" y="0px"
	 viewBox="0 0 508 508" style="enable-background:new 0 0 508 508;" xml:space="preserve">
<circle style="fill:#FD8469;" cx="254" cy="254" r="254"/>
<rect x="249.6" y="201.6" style="fill:#324A5E;" width="8.8" height="100.4"/>
<g>
	<path style="fill:#FFFFFF;" d="M337.6,321.2H170.4c-8,0-14.4-6.4-14.4-14.4l0,0c0-8,6.4-14.4,14.4-14.4h166.8
		c8,0,14.4,6.4,14.4,14.4l0,0C352,314.8,345.6,321.2,337.6,321.2z"/>
	<path style="fill:#FFFFFF;" d="M332.8,321.2H175.2l6.4,120.8c0.4,6.4,5.6,11.2,12,11.2h120.8c6.4,0,11.6-4.8,12-11.2L332.8,321.2z"
		/>
</g>
<polygon style="fill:#E6E9EE;" points="332.4,330.4 332.8,321.2 175.2,321.2 175.6,330.4 "/>
<path style="fill:#FFD05B;" d="M334,174.8c-10.4,4.4-22,3.6-31.6-0.8c8,7.2,12.8,17.2,12.8,28.8c-11.6,0-21.6-4.8-28.8-12.8
	c2.4,5.2,3.6,10.8,3.6,16.8c0,4.8-0.8,10-2.8,14.8c-10.4-4.4-18-12.8-21.6-22.8c0,0.8,0,1.2,0,2c0,10-3.6,20-11.2,27.6
	c-8-8-12-18.8-11.2-29.6c-1.6,4.8-4.4,9.6-8.4,13.6c-3.6,4-8,7.2-13.6,9.2c-4.4-10.4-3.6-22,0.8-31.6c-3.6,4-8,7.2-12.8,9.2
	c-4.8,2.4-10.4,3.6-16,3.6c0-11.6,4.8-21.6,12.8-28.8c-5.2,2.4-10.8,3.6-16.8,3.6c-4.8,0-10-0.8-14.8-2.8
	c4.4-10.4,12.8-18,22.8-21.6c-0.8,0-1.2,0-2,0c-10,0-20-3.6-27.6-11.2c8-8,18.8-12,29.6-11.2c-4.8-1.6-9.6-4.4-13.6-8.4
	c-4-3.6-7.2-8.4-9.2-13.6c10.4-4.4,22-3.6,31.6,0.8c-4-3.6-7.2-8-9.2-12.8c-2.4-4.8-3.6-10.4-3.6-16c11.6,0,21.6,4.8,28.8,12.8
	c-2.4-5.2-3.6-10.8-3.6-16.8c0-4.8,0.8-10,2.8-14.8c10.4,4.4,18,12.8,21.6,22.8C242,74.4,246,63.6,254,55.6c8,8,12,18.8,11.2,29.6
	c1.6-4.8,4.4-9.6,8.4-13.6c3.6-4,8.4-7.2,13.6-9.2c4.4,10.4,3.6,22-0.8,31.6c3.6-4,8-7.2,12.8-9.2c4.8-2.4,10.4-3.6,16-3.6
	c0,11.6-4.8,21.6-12.8,28.8c5.2-2.4,10.8-3.6,16.8-3.6c4.8,0,10,0.8,14.8,2.8c-4.4,10.4-12.8,18-22.8,21.6
	c10.4-0.4,21.2,3.2,29.6,11.2c-8,8-18.8,12-29.6,11.2C320.8,156.8,329.6,164.4,334,174.8z"/>
<g>
	<circle style="fill:#324A5E;" cx="254" cy="142" r="44.8"/>
	<path style="fill:#324A5E;" d="M336.4,232.8c0,0-56.8-15.6-74.8,40C262,273.2,314.8,295.6,336.4,232.8z"/>
	<path style="fill:#324A5E;" d="M171.6,232.8c0,0,56.8-15.6,74.8,40C246,273.2,193.2,295.6,171.6,232.8z"/>
</g>
<g>
</g>
<g>
</g>
<g>
</g>
<g>
</g>
<g>
</g>
<g>
</g>
<g>
</g>
<g>
</g>
<g>
</g>
<g>
</g>
<g>
</g>
<g>
</g>
<g>
</g>
<g>
</g>
<g>
</g>
</svg>
