<?xml version="1.0" encoding="iso-8859-1"?>
<!-- Generator: Adobe Illustrator 19.0.0, SVG Export Plug-In . SVG Version: 6.00 Build 0)  -->
<svg version="1.1" id="Layer_1" xmlns="http://www.w3.org/2000/svg" xmlns:xlink="http://www.w3.org/1999/xlink" x="0px" y="0px"
	 viewBox="0 0 508 508" style="enable-background:new 0 0 508 508;" xml:space="preserve">
<circle style="fill:#90DFAA;" cx="254" cy="254" r="254"/>
<path style="fill:#324A5E;" d="M383.6,407.2H124.4c-7.6,0-13.6-6-13.6-13.6V114.4c0-7.6,6-13.6,13.6-13.6h258.8
	c7.6,0,13.6,6,13.6,13.6V394C396.8,401.2,390.8,407.2,383.6,407.2z"/>
<g>
	<circle style="fill:#2B3B4E;" cx="368.8" cy="128.4" r="14.4"/>
	<circle style="fill:#2B3B4E;" cx="139.2" cy="128.4" r="14.4"/>
	<circle style="fill:#2B3B4E;" cx="368.8" cy="379.6" r="14.4"/>
	<circle style="fill:#2B3B4E;" cx="139.2" cy="379.6" r="14.4"/>
</g>
<path style="fill:#FF7058;" d="M283.6,254h-59.2v-60.4c0-3.6,2.8-6,6-6h46.8c3.6,0,6,2.8,6,6V254H283.6z"/>
<path style="fill:#F1543F;" d="M277.6,320.8h-47.2c-3.6,0-6-2.8-6-6V254h59.2v60.4C283.6,318,280.8,320.8,277.6,320.8z"/>
<path style="fill:#FFFFFF;" d="M254,225.6c-7.2,0-13.2-6-13.2-13.2s6-13.2,13.2-13.2c7.2,0,13.2,6,13.2,13.2S261.2,225.6,254,225.6z
	 M254,203.6c-4.8,0-8.8,4-8.8,8.8s4,8.8,8.8,8.8c4.8,0,8.8-4,8.8-8.8S258.8,203.6,254,203.6z"/>
<rect x="250.4" y="290" style="fill:#CED5E0;" width="6.8" height="19.6"/>
<g>
</g>
<g>
</g>
<g>
</g>
<g>
</g>
<g>
</g>
<g>
</g>
<g>
</g>
<g>
</g>
<g>
</g>
<g>
</g>
<g>
</g>
<g>
</g>
<g>
</g>
<g>
</g>
<g>
</g>
</svg>
