<?xml version="1.0" encoding="iso-8859-1"?>
<!-- Generator: Adobe Illustrator 19.0.0, SVG Export Plug-In . SVG Version: 6.00 Build 0)  -->
<svg version="1.1" id="Layer_1" xmlns="http://www.w3.org/2000/svg" xmlns:xlink="http://www.w3.org/1999/xlink" x="0px" y="0px"
	 viewBox="0 0 508 508" style="enable-background:new 0 0 508 508;" xml:space="preserve">
<circle style="fill:#324A5E;" cx="254" cy="254" r="254"/>
<rect x="358.8" y="230" style="fill:#CED5E0;" width="18" height="27.6"/>
<rect x="311.71" y="192.365" transform="matrix(-0.8147 -0.5799 0.5799 -0.8147 446.8781 568.732)" style="fill:#324A5E;" width="5.2" height="41.2"/>
<g>
	<rect x="406.4" y="123.6" style="fill:#FFFFFF;" width="8.8" height="159.2"/>
	
		<rect x="285.193" y="120.747" transform="matrix(-0.965 -0.2622 0.2622 -0.965 516.5221 469.6137)" style="fill:#FFFFFF;" width="8.8" height="159.198"/>
</g>
<circle style="fill:#F9B54C;" cx="138.8" cy="340" r="57.2"/>
<circle style="fill:#FFD05B;" cx="138.8" cy="340" r="50"/>
<circle style="fill:#F9B54C;" cx="138.8" cy="340" r="16.8"/>
<rect x="132" y="255.6" style="fill:#E6E9EE;" width="13.2" height="87.6"/>
<path style="fill:#F9B54C;" d="M147.2,278.4H130c-1.6,0-2.4-1.2-2.4-2.4v-8.4H150v8.4C150,277.2,148.8,278.4,147.2,278.4z"/>
<path style="fill:#FFD05B;" d="M119.6,271.6H182c3.2,0,6,1.6,7.2,4.8l35.2,76.4c1.2,2.8,4,4.8,7.2,4.8h82c4.4,0,8-4,8-8.4
	l-6.8-116.8c-0.4-4.4-4-7.6-8-7.6l-184.4,4.8c-4,0-7.2,3.2-7.6,7.2l-2.8,26.8C111.2,267.6,114.8,271.6,119.6,271.6z"/>
<circle style="fill:#F9B54C;" cx="356" cy="321.6" r="75.6"/>
<circle style="fill:#FFD05B;" cx="356" cy="321.6" r="66"/>
<circle style="fill:#F9B54C;" cx="356" cy="321.6" r="22"/>
<path style="fill:#FFFFFF;" d="M198,347.6H79.2c-1.6,0-2.8-1.2-2.8-2.8v-10.4c0-1.6,1.2-2.8,2.8-2.8H198c1.6,0,2.8,1.2,2.8,2.8v10.4
	C200.8,346.4,199.6,347.6,198,347.6z"/>
<g>
	<path style="fill:#F9B54C;" d="M210,276.8L210,276.8c-1.6,0-3.2-1.2-3.2-3.2v-28.8c0-1.6,1.2-3.2,3.2-3.2l0,0
		c1.6,0,3.2,1.2,3.2,3.2v28.8C213.2,275.2,212,276.8,210,276.8z"/>
	<path style="fill:#F9B54C;" d="M220.4,276.8L220.4,276.8c-1.6,0-3.2-1.2-3.2-3.2v-28.8c0-1.6,1.2-3.2,3.2-3.2l0,0
		c1.6,0,3.2,1.2,3.2,3.2v28.8C223.2,275.2,222,276.8,220.4,276.8z"/>
	<path style="fill:#F9B54C;" d="M230.4,276.8L230.4,276.8c-1.6,0-3.2-1.2-3.2-3.2v-28.8c0-1.6,1.2-3.2,3.2-3.2l0,0
		c1.6,0,3.2,1.2,3.2,3.2v28.8C233.6,275.2,232,276.8,230.4,276.8z"/>
	<path style="fill:#F9B54C;" d="M240.4,276.8L240.4,276.8c-1.6,0-3.2-1.2-3.2-3.2v-28.8c0-1.6,1.2-3.2,3.2-3.2l0,0
		c1.6,0,3.2,1.2,3.2,3.2v28.8C243.6,275.2,242.4,276.8,240.4,276.8z"/>
	<path style="fill:#F9B54C;" d="M250.8,276.8L250.8,276.8c-1.6,0-3.2-1.2-3.2-3.2v-28.8c0-1.6,1.2-3.2,3.2-3.2l0,0
		c1.6,0,3.2,1.2,3.2,3.2v28.8C254,275.2,252.4,276.8,250.8,276.8z"/>
</g>
<path style="fill:#FF7058;" d="M291.6,110.8c-3.6,0-6.8,3.2-6.8,6.8v7.6c0,6.4,5.6,11.2,12.4,11.2c3.6,0,7.2-1.6,9.2-3.6
	c2.4,2.4,5.6,3.6,9.2,3.6s7.2-1.6,9.2-3.6c2.4,2.4,5.6,3.6,9.2,3.6s7.2-1.6,9.2-3.6c2.4,2.4,5.6,3.6,9.2,3.6s7.2-1.6,9.2-3.6
	c2.4,2.4,5.6,3.6,9.2,3.6s7.2-1.6,9.2-3.6c2.4,2.4,5.6,3.6,9.2,3.6s7.2-1.6,9.2-3.6c2.4,2.4,5.6,3.6,9.2,3.6
	c6.8,0,12.4-5.2,12.4-11.2v-7.6c0-3.6-3.2-6.8-6.8-6.8C413.2,110.8,291.6,110.8,291.6,110.8z"/>
<g>
	<path style="fill:#E6E9EE;" d="M395.2,174.8V214c0,11.2-8.8,20-20,20h-24.8c-5.6,0-10-4.4-10.4-9.6c10.8,3.2,25.6-2.4,36.8-15.2
		c8-8.8,12-19.2,12.4-28C388.8,177.6,391.6,174.8,395.2,174.8L395.2,174.8z"/>
</g>
<path style="fill:#324A5E;" d="M334,205.6c-0.4,0-1.2,0-1.6-0.4l-17.2-12.4c-1.2-0.8-1.2-2.4-0.4-3.6c0.8-1.2,2.4-1.2,3.6-0.4
	l17.2,12.4c1.2,0.8,1.2,2.4,0.4,3.6C335.6,205.2,334.8,205.6,334,205.6z"/>
<circle style="fill:#F9B54C;" cx="327.2" cy="292" r="9.2"/>
<g>
</g>
<g>
</g>
<g>
</g>
<g>
</g>
<g>
</g>
<g>
</g>
<g>
</g>
<g>
</g>
<g>
</g>
<g>
</g>
<g>
</g>
<g>
</g>
<g>
</g>
<g>
</g>
<g>
</g>
</svg>
