<?xml version="1.0" encoding="iso-8859-1"?>
<!-- Generator: Adobe Illustrator 19.0.0, SVG Export Plug-In . SVG Version: 6.00 Build 0)  -->
<svg version="1.1" id="Layer_1" xmlns="http://www.w3.org/2000/svg" xmlns:xlink="http://www.w3.org/1999/xlink" x="0px" y="0px"
	 viewBox="0 0 508 508" style="enable-background:new 0 0 508 508;" xml:space="preserve">
<circle style="fill:#FD8469;" cx="254" cy="254" r="254"/>
<path style="fill:#F1543F;" d="M51.2,407.2C97.6,468.4,171.2,508,254,508s156.4-39.6,202.8-100.8H51.2z"/>
<g>
	<polygon style="fill:#2B3B4E;" points="252.8,250.4 156.8,219.2 159.2,210.8 257.6,234 	"/>
	<polygon style="fill:#2B3B4E;" points="112.8,260 254,237.2 256,247.6 117.6,282.4 	"/>
	<polygon style="fill:#2B3B4E;" points="244.8,306.8 120,263.6 112.8,278.8 228,344 	"/>
</g>
<g>
	<circle style="fill:#324A5E;" cx="130.8" cy="271.2" r="24.8"/>
	<circle style="fill:#324A5E;" cx="249.6" cy="242.4" r="22.8"/>
</g>
<path style="fill:#E6E9EE;" d="M174.8,190.4h-33.6v22.4c0,9.2,7.6,16.8,16.8,16.8l0,0c9.2,0,16.8-7.6,16.8-16.8L174.8,190.4
	L174.8,190.4z"/>
<path style="fill:#FFFFFF;" d="M103.2,101.6c-2.4,0-4,2-4,4v77.6c0,7.6,6.4,14,14,14h90c7.6,0,14-6.4,14-14v-77.6c0-2.4-2-4-4-4
	H103.2z M160.4,106.8h24.4v57.6h-24.4V106.8z M155.6,164h-24.4v-57.2h24.4V164z M103.6,164v-57.2H126v57.6h-22.4V164z M212,164h-22
	v-57.2h22.4V164H212z"/>
<g>
	<path style="fill:#E6E9EE;" d="M297.2,338.8H94v-21.6c0-5.6,4.4-10.4,10.4-10.4h182.8c5.6,0,10.4,4.4,10.4,10.4v21.6H297.2z"/>
	<path style="fill:#E6E9EE;" d="M374,209.6h-54c-7.2,0-13.2,6-13.2,13.2V330h125.6v-62c0-3.6-1.2-6.8-4-9.2l-45.2-45.2
		C380.8,211.2,377.6,209.6,374,209.6z"/>
</g>
<path style="fill:#84DBFF;" d="M424.8,264l-45.6-45.2c-1.6-1.2-3.2-2-5.2-2h-30V286h82.8v-16.8C426.8,267.6,426,265.6,424.8,264z"/>
<path style="fill:#54C0EB;" d="M424.8,264l-34-34L368,286h58.8v-16.8C426.8,267.6,426,265.6,424.8,264z"/>
<path style="fill:#2B3B4E;" d="M432,357.6H90c-5.6,0-10-4.4-10-10v-12.8c0-5.6,4.4-10,10-10h342c5.6,0,10,4.4,10,10v12.8
	C442,353.6,437.6,357.6,432,357.6z"/>
<path style="fill:#ACB3BA;" d="M362.8,294.8h-16.4c-1.2,0-2.4-1.2-2.4-2.4l0,0c0-1.2,1.2-2.4,2.4-2.4h16.4c1.2,0,2.4,1.2,2.4,2.4
	l0,0C365.6,293.6,364.4,294.8,362.8,294.8z"/>
<circle style="fill:#FFFFFF;" cx="158" cy="214.8" r="7.2"/>
<circle style="fill:#324A5E;" cx="141.2" cy="372.8" r="34"/>
<circle style="fill:#E6E9EE;" cx="141.2" cy="372.8" r="19.6"/>
<circle style="fill:#324A5E;" cx="378" cy="372.8" r="34"/>
<circle style="fill:#E6E9EE;" cx="378" cy="372.8" r="19.6"/>
<g>
</g>
<g>
</g>
<g>
</g>
<g>
</g>
<g>
</g>
<g>
</g>
<g>
</g>
<g>
</g>
<g>
</g>
<g>
</g>
<g>
</g>
<g>
</g>
<g>
</g>
<g>
</g>
<g>
</g>
</svg>
