<?xml version="1.0" encoding="iso-8859-1"?>
<!-- Generator: Adobe Illustrator 19.0.0, SVG Export Plug-In . SVG Version: 6.00 Build 0)  -->
<svg version="1.1" id="Layer_1" xmlns="http://www.w3.org/2000/svg" xmlns:xlink="http://www.w3.org/1999/xlink" x="0px" y="0px"
	 viewBox="0 0 508 508" style="enable-background:new 0 0 508 508;" xml:space="preserve">
<circle style="fill:#FFD05B;" cx="254" cy="254" r="254"/>
<path style="fill:#E6E9EE;" d="M55.6,308.8V224c0-4.4,1.6-8.4,4.8-11.2l37.2-37.2c3.2-3.2,7.2-4.8,11.2-4.8h64.4
	c2.8,0,5.2,2.4,5.2,5.2v132.8H55.6z"/>
<polygon style="fill:#84DBFF;" points="63.2,245.6 63.2,220.4 105.2,178.4 129.2,178.4 129.2,245.6 "/>
<polygon style="fill:#54C0EB;" points="108.8,178.4 129.2,178.4 129.2,245.6 85.6,245.6 "/>
<polygon style="fill:#2B3B4E;" points="80.4,308.8 153.6,308.8 148,287.6 86,287.6 "/>
<rect x="55.6" y="287.6" style="fill:#324A5E;" width="368.4" height="21.6"/>
<g>
	<polygon style="fill:#2B3B4E;" points="155.6,308.8 78.4,308.8 80.4,303.6 86,287.6 148,287.6 153.6,303.6 	"/>
	<polygon style="fill:#2B3B4E;" points="318.4,308.8 241.2,308.8 248.8,287.6 310.8,287.6 	"/>
	<polygon style="fill:#2B3B4E;" points="408.4,308.8 331.6,308.8 338.8,287.6 400.8,287.6 	"/>
</g>
<path style="fill:#FF7058;" d="M257.6,273.6H394c32.4,0,58.8-26.4,58.8-58.8l0,0c0-32.4-26.4-58.8-58.8-58.8H257.6
	c-32.4,0-58.8,26.4-58.8,58.8l0,0C198.8,247.2,225.2,273.6,257.6,273.6z"/>
<rect x="259.6" y="273.2" style="fill:#2B3B4E;" width="132" height="14.4"/>
<polygon style="fill:#E6E9EE;" points="408.4,308.8 404,308.8 397.6,292.4 342.4,292.4 335.6,308.8 331.6,308.8 338.8,287.6 
	400.8,287.6 "/>
<circle style="fill:#324A5E;" cx="370" cy="335.6" r="38.4"/>
<g>
	<circle style="fill:#E6E9EE;" cx="370" cy="335.6" r="20"/>
	<polygon style="fill:#E6E9EE;" points="318.4,308.8 314,308.8 307.2,292.4 252.4,292.4 245.6,308.8 241.2,308.8 248.8,287.6 
		310.8,287.6 	"/>
</g>
<circle style="fill:#324A5E;" cx="280" cy="335.6" r="38.4"/>
<circle style="fill:#E6E9EE;" cx="280" cy="335.6" r="20"/>
<polygon style="fill:#FFFFFF;" points="155.6,308.8 151.2,308.8 149.2,303.6 144.4,292.4 89.6,292.4 84.8,303.6 82.8,308.8 
	78.4,308.8 80.4,303.6 86,287.6 148,287.6 153.6,303.6 "/>
<circle style="fill:#324A5E;" cx="117.2" cy="335.6" r="38.4"/>
<circle style="fill:#E6E9EE;" cx="117.2" cy="335.6" r="20"/>
<rect x="266.8" y="144.8" style="fill:#F1543F;" width="42.4" height="11.2"/>
<rect x="259.2" y="133.6" style="fill:#FF7058;" width="57.6" height="11.2"/>
<g>
	<rect x="350" y="156" style="fill:#E6E9EE;" width="6.8" height="117.2"/>
	<rect x="380.4" y="156" style="fill:#E6E9EE;" width="6.8" height="117.2"/>
	<rect x="353.6" y="170.4" style="fill:#E6E9EE;" width="30.4" height="6.4"/>
	<rect x="353.6" y="190.8" style="fill:#E6E9EE;" width="30.4" height="6.4"/>
	<rect x="353.6" y="211.6" style="fill:#E6E9EE;" width="30.4" height="6.4"/>
	<rect x="353.6" y="232" style="fill:#E6E9EE;" width="30.4" height="6.4"/>
	<rect x="353.6" y="252.4" style="fill:#E6E9EE;" width="30.4" height="6.4"/>
</g>
<g>
</g>
<g>
</g>
<g>
</g>
<g>
</g>
<g>
</g>
<g>
</g>
<g>
</g>
<g>
</g>
<g>
</g>
<g>
</g>
<g>
</g>
<g>
</g>
<g>
</g>
<g>
</g>
<g>
</g>
</svg>
