<?xml version="1.0" encoding="iso-8859-1"?>
<!-- Generator: Adobe Illustrator 19.0.0, SVG Export Plug-In . SVG Version: 6.00 Build 0)  -->
<svg version="1.1" id="Layer_1" xmlns="http://www.w3.org/2000/svg" xmlns:xlink="http://www.w3.org/1999/xlink" x="0px" y="0px"
	 viewBox="0 0 508 508" style="enable-background:new 0 0 508 508;" xml:space="preserve">
<circle style="fill:#54C0EB;" cx="254" cy="254" r="254"/>
<path style="fill:#324A5E;" d="M375.6,105.2H132.4c-14.8,0-26.8,12-26.8,26.8v243.6c0,14.8,12,26.8,26.8,26.8H376
	c14.8,0,26.8-12,26.8-26.8V132.4C402.8,117.6,390.4,105.2,375.6,105.2z"/>
<path style="fill:#FFFFFF;" d="M386.8,314.4v-182c0-6-4.8-11.2-11.2-11.2H132.4c-6,0-11.2,4.8-11.2,11.2v182.4h265.6V314.4z"/>
<g>
	<path style="fill:#324A5E;" d="M358.4,191.6c-32.8-14.4-68-22-104.4-22s-71.6,7.2-104.4,22c-0.8,0.4-1.2,1.6-0.8,2.4
		c0.4,0.8,1.6,1.2,2.4,0.8c32.4-14.4,66.8-21.6,102.8-21.6s70.4,7.2,102.8,21.6c0.4,0,0.4,0,0.8,0c0.8,0,1.2-0.4,1.6-1.2
		C359.6,193.2,359.2,192,358.4,191.6z"/>
	<path style="fill:#324A5E;" d="M155.2,180c0.4,0.8,0.8,1.2,1.6,1.2h0.4c0.8-0.4,1.6-1.2,1.2-2l-4.4-13.6c-0.4-0.8-1.2-1.6-2-1.2
		c-0.8,0.4-1.6,1.2-1.2,2L155.2,180z"/>
	<path style="fill:#324A5E;" d="M174,174.8c0,0.8,0.8,1.2,1.6,1.2h0.4c0.8-0.4,1.6-1.2,1.2-2l-3.2-14c-0.4-0.8-1.2-1.6-2-1.2
		c-0.8,0.4-1.6,1.2-1.2,2L174,174.8z"/>
	<path style="fill:#324A5E;" d="M195.2,171.6C195.2,171.6,195.6,171.6,195.2,171.6c1.2-0.4,2-1.2,1.6-2l-2.8-14c0-0.8-1.2-1.6-2-1.2
		c-0.8,0-1.6,1.2-1.2,2l2.8,14C193.6,171.2,194.4,171.6,195.2,171.6z"/>
	<path style="fill:#324A5E;" d="M214.8,168.8L214.8,168.8c1.2,0,2-1.2,1.6-2l-1.6-14c0-0.8-1.2-1.6-2-1.6s-1.6,0.8-1.6,2l1.6,14
		C213.2,168,214,168.8,214.8,168.8z"/>
	<path style="fill:#324A5E;" d="M234.4,166.8L234.4,166.8c1.2,0,1.6-0.8,1.6-2l-0.8-14c0-0.8-0.8-1.6-2-1.6c-0.8,0-1.6,0.8-1.6,2
		l0.8,14C232.8,166,233.6,166.8,234.4,166.8z"/>
	<path style="fill:#324A5E;" d="M254,166.4c0.8,0,1.6-0.8,1.6-1.6v-14.4c0-0.8-0.8-1.6-1.6-1.6c-0.8,0-1.6,0.8-1.6,1.6v14.4
		C252.4,165.6,253.2,166.4,254,166.4z"/>
	<path style="fill:#324A5E;" d="M273.6,166.8L273.6,166.8c1.2,0,1.6-0.8,2-1.6l0.8-14c0-0.8-0.8-1.6-1.6-2c-1.2,0-1.6,0.8-2,1.6
		l-0.8,14C272,166,272.8,166.8,273.6,166.8z"/>
	<path style="fill:#324A5E;" d="M293.2,168.8L293.2,168.8c1.2,0,2-0.8,2-1.6l1.6-14c0-0.8-0.4-2-1.6-2c-0.8,0-2,0.4-2,1.6l-1.6,14
		C291.6,167.6,292,168.4,293.2,168.8z"/>
	<path style="fill:#324A5E;" d="M312.4,171.6C312.4,171.6,312.8,171.6,312.4,171.6c1.2,0,2-0.4,2-1.2l2.8-14c0-0.8-0.4-2-1.2-2
		c-0.8,0-2,0.4-2,1.2l-2.8,14C310.8,170.8,311.6,171.6,312.4,171.6z"/>
	<path style="fill:#324A5E;" d="M331.6,176h0.4c0.8,0,1.6-0.4,1.6-1.2l3.6-13.6c0.4-0.8-0.4-2-1.2-2c-0.8-0.4-2,0.4-2,1.2l-3.6,13.6
		C330,174.8,330.8,175.6,331.6,176z"/>
	<path style="fill:#324A5E;" d="M350.8,181.2h0.4c0.8,0,1.6-0.4,1.6-1.2l4.4-13.6c0.4-0.8-0.4-2-1.2-2c-0.8-0.4-2,0.4-2,1.2
		l-4.4,13.6C349.2,180,349.6,181.2,350.8,181.2z"/>
</g>
<polygon style="fill:#FF7058;" points="195.2,199.6 245.6,313.2 256.4,308 "/>
<path style="fill:#2B3B4E;" d="M251.2,291.2c-12.8,0-23.6,10.4-23.6,23.6h46.8C274.4,301.6,264,291.2,251.2,291.2z"/>
<path style="fill:#324A5E;" d="M261.2,211.6l-2.4-5.2h-10l-2.4,5.2h-5.6l10.4-23.6h5.2l10.4,23.6H261.2z M254,194.8l-2.8,7.2h6
	L254,194.8z"/>
<g>
</g>
<g>
</g>
<g>
</g>
<g>
</g>
<g>
</g>
<g>
</g>
<g>
</g>
<g>
</g>
<g>
</g>
<g>
</g>
<g>
</g>
<g>
</g>
<g>
</g>
<g>
</g>
<g>
</g>
</svg>
