<?xml version="1.0" encoding="iso-8859-1"?>
<!-- Generator: Adobe Illustrator 19.0.0, SVG Export Plug-In . SVG Version: 6.00 Build 0)  -->
<svg version="1.1" id="Layer_1" xmlns="http://www.w3.org/2000/svg" xmlns:xlink="http://www.w3.org/1999/xlink" x="0px" y="0px"
	 viewBox="0 0 508 508" style="enable-background:new 0 0 508 508;" xml:space="preserve">
<circle style="fill:#F1543F;" cx="254" cy="254" r="254"/>
<path style="fill:#FF7058;" d="M55.2,412c46.4,58.4,118.4,96,198.8,96s152.4-37.6,198.8-96H55.2z"/>
<path style="fill:#F9B54C;" d="M349.6,163.6c-23.6-18.4-47.6-36.8-78-49.6c-7.2-2.8-14.4-5.6-22.4-8c-9.6-2.8-20.4-5.2-30.8-3.2
	c-7.2,1.2-13.2,4.8-19.2,7.6c-22.4,11.6-46,21.6-70.4,31.2c-11.6,4.4-24.4,10.4-24.8,19.2c0,1.2,0,2.8,1.2,4c0.8,0.8,2,1.2,3.6,1.6
	c3.6,0.8,7.6,1.2,11.2,0.8c43.6,0,87.6,0,131.2,0c15.6,0,31.2,0,46.8-1.2C315.2,165.2,332.4,162,349.6,163.6z"/>
<path style="fill:#FFD05B;" d="M408.4,163.6c-23.6-18-48-36.8-78-49.2c-7.2-2.8-14.4-5.6-22.4-8c-9.6-2.8-20.4-5.2-30.8-3.2
	c-7.2,1.2-13.2,4.8-19.2,7.6c-22.4,11.6-46,21.6-70.4,31.2c-11.6,4.4-24.4,10.4-24.8,19.2c0,1.2,0,2.8,1.2,4c0.8,0.8,2,1.2,3.6,1.6
	c3.6,0.8,7.6,1.2,11.2,0.8c43.6,0,87.6,0,131.2,0c15.6,0,31.2,0,46.8-1.2C374,165.2,391.2,162,408.4,163.6z"/>
<rect x="81.2" y="156" style="fill:#E6E9EE;" width="345.6" height="168"/>
<rect x="126" y="340.8" style="fill:#2B3B4E;" width="257.6" height="42.4"/>
<g>
	<path style="fill:#324A5E;" d="M125.2,411.2L125.2,411.2c-15.6,0-28-12.4-28-28l0,0c0-15.6,12.4-28,28-28l0,0c15.6,0,28,12.4,28,28
		l0,0C153.2,398.8,140.8,411.2,125.2,411.2z"/>
	<path style="fill:#324A5E;" d="M180.8,411.2L180.8,411.2c-15.6,0-28-12.4-28-28l0,0c0-15.6,12.4-28,28-28l0,0c15.6,0,28,12.4,28,28
		l0,0C209.2,398.8,196.4,411.2,180.8,411.2z"/>
	<path style="fill:#324A5E;" d="M327.2,411.2L327.2,411.2c-15.6,0-28-12.4-28-28l0,0c0-15.6,12.4-28,28-28l0,0c15.6,0,28,12.4,28,28
		l0,0C355.2,398.8,342.8,411.2,327.2,411.2z"/>
	<path style="fill:#324A5E;" d="M382.8,411.2L382.8,411.2c-15.6,0-28-12.4-28-28l0,0c0-15.6,12.4-28,28-28l0,0c15.6,0,28,12.4,28,28
		l0,0C411.2,398.8,398.4,411.2,382.8,411.2z"/>
</g>
<g>
	<path style="fill:#E6E9EE;" d="M382.8,398.4L382.8,398.4c-8.4,0-15.2-6.8-15.2-15.2l0,0c0-8.4,6.8-15.2,15.2-15.2l0,0
		c8.4,0,15.2,6.8,15.2,15.2l0,0C398,391.6,391.2,398.4,382.8,398.4z"/>
	<path style="fill:#E6E9EE;" d="M327.2,398.4L327.2,398.4c-8.4,0-15.2-6.8-15.2-15.2l0,0c0-8.4,6.8-15.2,15.2-15.2l0,0
		c8.4,0,15.2,6.8,15.2,15.2l0,0C342.4,391.6,335.6,398.4,327.2,398.4z"/>
	<path style="fill:#E6E9EE;" d="M180.8,398.4L180.8,398.4c-8.4,0-15.2-6.8-15.2-15.2l0,0c0-8.4,6.8-15.2,15.2-15.2l0,0
		c8.4,0,15.2,6.8,15.2,15.2l0,0C196,391.6,189.2,398.4,180.8,398.4z"/>
	<path style="fill:#E6E9EE;" d="M125.2,398.4L125.2,398.4c-8.4,0-15.2-6.8-15.2-15.2l0,0c0-8.4,6.8-15.2,15.2-15.2l0,0
		c8.4,0,15.2,6.8,15.2,15.2l0,0C140.4,391.6,133.6,398.4,125.2,398.4z"/>
</g>
<rect x="70.4" y="324.4" style="fill:#324A5E;" width="366.8" height="19.6"/>
<g>
	<rect x="104.4" y="175.6" style="fill:#CED5E0;" width="26" height="134.4"/>
	<rect x="159.2" y="175.6" style="fill:#CED5E0;" width="26" height="134.4"/>
	<rect x="213.6" y="175.6" style="fill:#CED5E0;" width="26" height="134.4"/>
	<rect x="268.4" y="175.6" style="fill:#CED5E0;" width="26" height="134.4"/>
	<rect x="322.8" y="175.6" style="fill:#CED5E0;" width="26" height="134.4"/>
	<rect x="377.6" y="175.6" style="fill:#CED5E0;" width="26" height="134.4"/>
</g>
<g>
	<rect x="437.6" y="320.8" style="fill:#FFFFFF;" width="4.8" height="26.8"/>
	<rect x="65.6" y="320.8" style="fill:#FFFFFF;" width="4.8" height="26.8"/>
</g>
<g>
</g>
<g>
</g>
<g>
</g>
<g>
</g>
<g>
</g>
<g>
</g>
<g>
</g>
<g>
</g>
<g>
</g>
<g>
</g>
<g>
</g>
<g>
</g>
<g>
</g>
<g>
</g>
<g>
</g>
</svg>
