<?xml version="1.0" encoding="iso-8859-1"?>
<!-- Generator: Adobe Illustrator 19.0.0, SVG Export Plug-In . SVG Version: 6.00 Build 0)  -->
<svg xmlns="http://www.w3.org/2000/svg" xmlns:xlink="http://www.w3.org/1999/xlink" version="1.1" id="Layer_1" x="0px" y="0px" viewBox="0 0 504 504" style="enable-background:new 0 0 504 504;" xml:space="preserve">
<circle style="fill:#FFD05B;" cx="252" cy="252" r="252"/>
<rect x="94.5" y="94.5" style="fill:#324A5E;" width="315" height="256.6"/>
<rect x="122.1" y="122.1" style="fill:#FFFFFF;" width="259.9" height="201.4"/>
<polygon style="fill:#2B3B4E;" points="323.9,386.8 180.1,386.8 192.9,351.1 311.1,351.1 "/>
<polygon style="fill:#324A5E;" points="354.2,409.5 149.8,409.5 168.1,386.8 335.9,386.8 "/>
<path style="fill:#FF7058;" d="M250.9,265.7v-25.2H240c-1.1-4.3-2.8-8.4-5-12.2l7.7-7.7l-17.8-17.8l-7.7,7.7  c-3.8-2.2-7.9-3.9-12.2-5v-10.9h-25.2v10.9c-4.3,1.1-8.4,2.8-12.2,5l-7.7-7.7l-17.8,17.8l7.7,7.7c-2.2,3.8-3.9,7.9-5,12.2h-10.9  v25.2h10.9c1.1,4.3,2.8,8.4,5,12.2l-7.7,7.7l17.8,17.8l7.7-7.7c3.8,2.2,7.9,3.9,12.2,5v10.9H205v-10.9c4.3-1.1,8.4-2.8,12.2-5  l7.7,7.7l17.8-17.8l-7.7-7.7c2.2-3.8,3.9-7.9,5-12.2H250.9z M192.4,284.4c-17.2,0-31.2-14-31.2-31.2s14-31.2,31.2-31.2  s31.2,14,31.2,31.2S209.6,284.4,192.4,284.4z"/>
<path style="fill:#84DBFF;" d="M347.5,169.5c0.2-1.4,0.3-2.8,0.3-4.2c0-17.4-14.1-31.4-31.4-31.4s-31.4,14-31.4,31.4  c0,1.4,0.1,2.8,0.3,4.2c-13.1,3.8-22.6,15.9-22.6,30.1c0,17.4,14.1,31.4,31.4,31.4h44.6c17.4,0,31.4-14.1,31.4-31.4  C370.1,185.4,360.6,173.3,347.5,169.5z"/>
<g>
	<polygon style="fill:#324A5E;" points="196.3,184.1 188.5,184.1 188.5,149.7 269.4,149.7 269.4,157.6 196.3,157.6  "/>
	<polygon style="fill:#324A5E;" points="331.9,277.1 257.6,277.1 257.6,269.2 324,269.2 324,242.7 331.9,242.7  "/>
</g>
<g>
</g>
<g>
</g>
<g>
</g>
<g>
</g>
<g>
</g>
<g>
</g>
<g>
</g>
<g>
</g>
<g>
</g>
<g>
</g>
<g>
</g>
<g>
</g>
<g>
</g>
<g>
</g>
<g>
</g>
</svg>
