<?xml version="1.0" encoding="iso-8859-1"?>
<!-- Generator: Adobe Illustrator 19.0.0, SVG Export Plug-In . SVG Version: 6.00 Build 0)  -->
<svg xmlns="http://www.w3.org/2000/svg" xmlns:xlink="http://www.w3.org/1999/xlink" version="1.1" id="Layer_1" x="0px" y="0px" viewBox="0 0 504 504" style="enable-background:new 0 0 504 504;" xml:space="preserve">
<circle style="fill:#FD8469;" cx="252" cy="252" r="252"/>
<rect x="110.6" y="114" style="fill:#324A5E;" width="282.8" height="217.6"/>
<rect x="126.3" y="129.8" style="fill:#E6E9EE;" width="251.3" height="186"/>
<path style="fill:#324A5E;" d="M407,390H97c-1.4,0-2.5-1.1-2.5-2.5v-30h315v30C409.5,388.9,408.4,390,407,390z"/>
<rect x="224.4" y="366.6" style="fill:#FFD05B;" width="55.1" height="6.4"/>
<rect x="148.4" y="149.8" style="fill:#ACB3BA;" width="94" height="22.5"/>
<rect x="261.6" y="149.8" style="fill:#54C0EB;" width="94" height="22.5"/>
<rect x="148.4" y="180.7" style="fill:#FF7058;" width="207.2" height="22.5"/>
<rect x="293.7" y="211.5" style="fill:#F9B54C;" width="61.9" height="22.5"/>
<rect x="148.4" y="211.5" style="fill:#CED5E0;" width="61.9" height="22.5"/>
<rect x="221" y="211.5" style="fill:#4CDBC4;" width="61.9" height="22.5"/>
<rect x="148.4" y="242.4" style="fill:#FF7058;" width="94" height="22.5"/>
<rect x="261.6" y="242.4" style="fill:#84DBFF;" width="94" height="22.5"/>
<rect x="148.4" y="273.3" style="fill:#2C9984;" width="207.2" height="22.5"/>
<g>
</g>
<g>
</g>
<g>
</g>
<g>
</g>
<g>
</g>
<g>
</g>
<g>
</g>
<g>
</g>
<g>
</g>
<g>
</g>
<g>
</g>
<g>
</g>
<g>
</g>
<g>
</g>
<g>
</g>
</svg>
