<?xml version="1.0" encoding="iso-8859-1"?>
<!-- Generator: Adobe Illustrator 19.0.0, SVG Export Plug-In . SVG Version: 6.00 Build 0)  -->
<svg xmlns="http://www.w3.org/2000/svg" xmlns:xlink="http://www.w3.org/1999/xlink" version="1.1" id="Layer_1" x="0px" y="0px" viewBox="0 0 504 504" style="enable-background:new 0 0 504 504;" xml:space="preserve">
<circle style="fill:#324A5E;" cx="252" cy="252" r="252"/>
<rect x="182.601" y="94.6" transform="matrix(-1 0.0023 -0.0023 -1 505.0934 503.6082)" style="fill:#FFFFFF;" width="139.3" height="315.001"/>
<circle style="fill:#FF7058;" cx="252" cy="148.4" r="45"/>
<path style="fill:#F1543F;" d="M252,169.8c-11.8,0-21.4-9.6-21.4-21.4c0-11.8,9.6-21.4,21.4-21.5c11.8,0,21.4,9.6,21.5,21.4  C273.4,160.2,263.9,169.8,252,169.8L252,169.8z"/>
<circle style="fill:#FFD05B;" cx="252.2" cy="252.1" r="45"/>
<path style="fill:#F9B54C;" d="M252.2,273.5c-11.8,0-21.4-9.6-21.4-21.4c0-11.8,9.6-21.4,21.4-21.5c11.8,0,21.4,9.6,21.5,21.4  C273.7,263.8,264.1,273.5,252.2,273.5L252.2,273.5z"/>
<circle style="fill:#4CDBC4;" cx="252.5" cy="355.7" r="45"/>
<path style="fill:#2C9984;" d="M252.5,377.1c-11.8,0-21.4-9.6-21.4-21.4s9.6-21.4,21.4-21.5c11.8,0,21.4,9.6,21.5,21.4  c0,5.7-2.2,11.1-6.2,15.2C263.6,374.9,258.3,377.1,252.5,377.1L252.5,377.1z"/>
<polygon style="fill:#FF7058;" points="321.3,94.4 321.4,164.9 372.6,94.3 "/>
<polygon style="fill:#F9B54C;" points="321.5,199.4 321.7,269.9 372.9,199.3 "/>
<polygon style="fill:#4CDBC4;" points="321.8,304.4 321.9,374.9 373.1,304.3 "/>
<polygon style="fill:#FF7058;" points="182.2,94.7 182.4,165.2 130.9,94.8 "/>
<polygon style="fill:#F9B54C;" points="182.5,199.7 182.7,270.2 131.1,199.8 "/>
<polygon style="fill:#4CDBC4;" points="182.7,304.7 182.9,375.2 131.4,304.8 "/>
<g>
</g>
<g>
</g>
<g>
</g>
<g>
</g>
<g>
</g>
<g>
</g>
<g>
</g>
<g>
</g>
<g>
</g>
<g>
</g>
<g>
</g>
<g>
</g>
<g>
</g>
<g>
</g>
<g>
</g>
</svg>
