<?xml version="1.0" encoding="iso-8859-1"?>
<!-- Generator: Adobe Illustrator 19.0.0, SVG Export Plug-In . SVG Version: 6.00 Build 0)  -->
<svg xmlns="http://www.w3.org/2000/svg" xmlns:xlink="http://www.w3.org/1999/xlink" version="1.1" id="Layer_1" x="0px" y="0px" viewBox="0 0 504 504" style="enable-background:new 0 0 504 504;" xml:space="preserve">
<circle style="fill:#84DBFF;" cx="252" cy="252" r="252"/>
<rect x="94.5" y="94.5" style="fill:#324A5E;" width="315" height="315"/>
<rect x="122.1" y="175.1" style="fill:#FFFFFF;" width="259.9" height="206.8"/>
<rect x="122.1" y="123.7" style="fill:#FF7058;" width="27.4" height="23.5"/>
<rect x="167.2" y="123.7" style="fill:#FFFFFF;" width="27.4" height="23.5"/>
<rect x="212.4" y="123.7" style="fill:#FFD05B;" width="27.4" height="23.5"/>
<rect x="278.8" y="123.7" style="fill:#FFFFFF;" width="103.2" height="23.5"/>
<rect x="139" y="200.8" style="fill:#2C9984;" width="226" height="38.9"/>
<rect x="139" y="252" style="fill:#324A5E;" width="93.4" height="38.9"/>
<rect x="271.6" y="252" style="fill:#ACB3BA;" width="93.4" height="38.9"/>
<g>
	<polygon style="fill:#F9B54C;" points="159.4,326.7 165.7,339.5 179.8,341.5 169.6,351.4 172,365.5 159.4,358.8 146.8,365.5    149.2,351.4 139,341.5 153.1,339.5  "/>
	<polygon style="fill:#F9B54C;" points="205.1,326.7 211.4,339.5 225.4,341.5 215.2,351.4 217.7,365.5 205.1,358.8 192.5,365.5    194.9,351.4 184.7,341.5 198.8,339.5  "/>
	<polygon style="fill:#F9B54C;" points="250.7,326.7 257,339.5 271.1,341.5 260.9,351.4 263.3,365.5 250.7,358.8 238.1,365.5    240.6,351.4 230.4,341.5 244.4,339.5  "/>
</g>
<g>
	<polygon style="fill:#CED5E0;" points="296.4,326.7 302.7,339.5 316.8,341.5 306.6,351.4 309,365.5 296.4,358.8 283.8,365.5    286.2,351.4 276,341.5 290.1,339.5  "/>
	<polygon style="fill:#CED5E0;" points="344.8,326.7 351.1,339.5 365.2,341.5 355,351.4 357.4,365.5 344.8,358.8 332.2,365.5    334.7,351.4 324.5,341.5 338.5,339.5  "/>
</g>
<g>
</g>
<g>
</g>
<g>
</g>
<g>
</g>
<g>
</g>
<g>
</g>
<g>
</g>
<g>
</g>
<g>
</g>
<g>
</g>
<g>
</g>
<g>
</g>
<g>
</g>
<g>
</g>
<g>
</g>
</svg>
