<?xml version="1.0" encoding="iso-8859-1"?>
<!-- Generator: Adobe Illustrator 19.0.0, SVG Export Plug-In . SVG Version: 6.00 Build 0)  -->
<svg xmlns="http://www.w3.org/2000/svg" xmlns:xlink="http://www.w3.org/1999/xlink" version="1.1" id="Layer_1" x="0px" y="0px" viewBox="0 0 504 504" style="enable-background:new 0 0 504 504;" xml:space="preserve">
<circle style="fill:#90DFAA;" cx="252" cy="252" r="252"/>
<path style="fill:#F1543F;" d="M294.8,94.5H130.7c-10,0-18.1,8.1-18.1,18.1v49.3c0,10,8.1,18.1,18.1,18.1h164.1  c10,0,18.1-8.1,18.1-18.1v-49.3C313,102.6,304.9,94.5,294.8,94.5z"/>
<path style="fill:#324A5E;" d="M240.1,274.4h-19.2l0,0c0-27.5,22.3-49.8,49.8-49.8h62.7c21.5,0,38.9-17.4,38.9-38.9l0,0  c0-21.5-17.4-38.9-38.9-38.9H313v-19.2h20.4c32.1,0,58.1,26,58.1,58.1l0,0c0,32.1-26,58.1-58.1,58.1h-62.7  C253.8,243.8,240.1,257.5,240.1,274.4L240.1,274.4z"/>
<path style="fill:#2B3B4E;" d="M253.1,409.5H208c-3.3,0-5.9-2.7-5.9-5.9V274.4h57v129.2C259,406.8,256.3,409.5,253.1,409.5z"/>
<g>
	<path style="fill:#F1543F;" d="M140.4,204.6c0,4.3,3.5,7.8,7.8,7.8s7.8-3.5,7.8-7.8V180h-15.7v24.6H140.4z"/>
	<path style="fill:#F1543F;" d="M170.4,180v21.1c0,3.8,3.1,7,7,7c3.8,0,7-3.1,7-7V180H170.4z"/>
</g>
<path style="fill:#324A5E;" d="M220.9,293.7c-3.8,0-7,3.1-7,7v82.6c0,3.8,3.1,7,7,7c3.8,0,7-3.1,7-7v-82.6  C227.9,296.8,224.7,293.7,220.9,293.7z"/>
<g>
</g>
<g>
</g>
<g>
</g>
<g>
</g>
<g>
</g>
<g>
</g>
<g>
</g>
<g>
</g>
<g>
</g>
<g>
</g>
<g>
</g>
<g>
</g>
<g>
</g>
<g>
</g>
<g>
</g>
</svg>
