<?xml version="1.0" encoding="iso-8859-1"?>
<!-- Generator: Adobe Illustrator 19.0.0, SVG Export Plug-In . SVG Version: 6.00 Build 0)  -->
<svg xmlns="http://www.w3.org/2000/svg" xmlns:xlink="http://www.w3.org/1999/xlink" version="1.1" id="Layer_1" x="0px" y="0px" viewBox="0 0 504 504" style="enable-background:new 0 0 504 504;" xml:space="preserve">
<circle style="fill:#324A5E;" cx="252" cy="252" r="252"/>
<rect x="207.731" y="73.587" transform="matrix(-0.7071 0.7071 -0.7071 -0.7071 608.4589 252.0388)" style="fill:#FFD05B;" width="88.599" height="356.897"/>
<g>
	
		<rect x="108.573" y="155.363" transform="matrix(-0.7071 0.7071 -0.7071 -0.7071 330.546 191.2086)" style="fill:#F9B54C;" width="34.2" height="17.4"/>
	
		<rect x="133.174" y="177" transform="matrix(-0.7071 0.7071 -0.7071 -0.7071 400.3054 205.5871)" style="fill:#F9B54C;" width="48.8" height="17.4"/>
	
		<rect x="162.115" y="208.993" transform="matrix(-0.7071 0.7071 -0.7071 -0.7071 459.8712 244.9018)" style="fill:#F9B54C;" width="34.2" height="17.4"/>
	
		<rect x="186.786" y="230.56" transform="matrix(-0.7071 0.7071 -0.7071 -0.7071 529.6979 259.1109)" style="fill:#F9B54C;" width="48.8" height="17.4"/>
	
		<rect x="215.665" y="262.483" transform="matrix(-0.7071 0.7071 -0.7071 -0.7071 589.1101 298.3479)" style="fill:#F9B54C;" width="34.2" height="17.4"/>
	
		<rect x="240.336" y="284.19" transform="matrix(-0.7071 0.7071 -0.7071 -0.7071 659.0369 312.7985)" style="fill:#F9B54C;" width="48.8" height="17.4"/>
	
		<rect x="269.206" y="316.113" transform="matrix(-0.7071 0.7071 -0.7071 -0.7071 718.4319 352.0424)" style="fill:#F9B54C;" width="34.2" height="17.4"/>
	
		<rect x="293.876" y="337.68" transform="matrix(-0.7071 0.7071 -0.7071 -0.7071 788.2587 366.2516)" style="fill:#F9B54C;" width="48.8" height="17.4"/>
	
		<rect x="322.827" y="369.673" transform="matrix(-0.7071 0.7071 -0.7071 -0.7071 847.8416 405.5592)" style="fill:#F9B54C;" width="34.2" height="17.4"/>
</g>
<path style="fill:#54C0EB;" d="M309.3,197c-16-16-42.2-14.8-56.6,2.6l-142,171c-5.9,7.1-5.4,17.4,1.1,23.9s16.8,7,23.9,1.1l171-142  C324,239.2,325.2,212.9,309.3,197z"/>
<path style="fill:#F1543F;" d="M366.8,197c-15.9,15.9-41.6,15.9-57.5,0s-15.9-41.6,0-57.5s99.2-48.4,87-29.5  C370.5,149.8,382.6,181.1,366.8,197z"/>
<g>
</g>
<g>
</g>
<g>
</g>
<g>
</g>
<g>
</g>
<g>
</g>
<g>
</g>
<g>
</g>
<g>
</g>
<g>
</g>
<g>
</g>
<g>
</g>
<g>
</g>
<g>
</g>
<g>
</g>
</svg>
