<?xml version="1.0" encoding="iso-8859-1"?>
<!-- Generator: Adobe Illustrator 19.0.0, SVG Export Plug-In . SVG Version: 6.00 Build 0)  -->
<svg xmlns="http://www.w3.org/2000/svg" xmlns:xlink="http://www.w3.org/1999/xlink" version="1.1" id="Layer_1" x="0px" y="0px" viewBox="0 0 504 504" style="enable-background:new 0 0 504 504;" xml:space="preserve">
<circle style="fill:#84DBFF;" cx="252" cy="252" r="252"/>
<path style="fill:#324A5E;" d="M142,106.3v291.5c0,6.5,5.3,11.8,11.8,11.8h196.5c6.5,0,11.8-5.3,11.8-11.8V106.3  c0-6.5-5.3-11.8-11.8-11.8H153.7C147.2,94.5,142,99.8,142,106.3z"/>
<rect x="162.8" y="118.1" style="fill:#E6E9EE;" width="178.4" height="230"/>
<circle style="fill:#2B3B4E;" cx="252" cy="378.8" r="20.8"/>
<rect x="162.8" y="369.8" style="fill:#4CDBC4;" width="48.5" height="18"/>
<rect x="292.7" y="369.8" style="fill:#FF7058;" width="48.5" height="18"/>
<rect x="289" y="188.3" style="fill:#54C0EB;" width="35.1" height="35.1"/>
<rect x="179.9" y="133.9" style="fill:#FF7058;" width="35.1" height="35.1"/>
<rect x="234.4" y="133.9" style="fill:#54C0EB;" width="35.1" height="35.1"/>
<g>
	<rect x="289" y="133.9" style="fill:#F9B54C;" width="35.1" height="35.1"/>
	<rect x="179.9" y="188.3" style="fill:#F9B54C;" width="35.1" height="35.1"/>
</g>
<rect x="234.4" y="188.3" style="fill:#324A5E;" width="35.1" height="35.1"/>
<rect x="179.9" y="242.8" style="fill:#ACB3BA;" width="35.1" height="35.1"/>
<rect x="234.4" y="242.8" style="fill:#FF7058;" width="35.1" height="35.1"/>
<rect x="289" y="242.8" style="fill:#ACB3BA;" width="35.1" height="35.1"/>
<rect x="289" y="297.3" style="fill:#324A5E;" width="35.1" height="35.1"/>
<g>
</g>
<g>
</g>
<g>
</g>
<g>
</g>
<g>
</g>
<g>
</g>
<g>
</g>
<g>
</g>
<g>
</g>
<g>
</g>
<g>
</g>
<g>
</g>
<g>
</g>
<g>
</g>
<g>
</g>
</svg>
