<?xml version="1.0" encoding="iso-8859-1"?>
<!-- Generator: Adobe Illustrator 19.0.0, SVG Export Plug-In . SVG Version: 6.00 Build 0)  -->
<svg xmlns="http://www.w3.org/2000/svg" xmlns:xlink="http://www.w3.org/1999/xlink" version="1.1" id="Layer_1" x="0px" y="0px" viewBox="0 0 504 504" style="enable-background:new 0 0 504 504;" xml:space="preserve">
<circle style="fill:#324A5E;" cx="252" cy="252" r="252"/>
<polygon style="fill:#2C9984;" points="366,160.5 366,370.1 409.6,370.1 409.6,135 "/>
<polygon style="fill:#F9B54C;" points="310.3,179.3 308.1,181.9 308.1,370.1 351.7,370.1 351.7,166 "/>
<polygon style="fill:#54C0EB;" points="250.3,248.9 250.3,370.1 293.8,370.1 293.8,198.4 "/>
<rect x="192.4" y="250.2" style="fill:#ACB3BA;" width="43.6" height="120"/>
<polygon style="fill:#84DBFF;" points="134.5,271.2 134.5,370.1 178.1,370.1 178.1,252.6 "/>
<g>
	<polygon style="fill:#FFFFFF;" points="138.3,248.8 130.8,231.2 176.2,211.9 231.6,211.9 288.4,146.1 347.8,127.1 404.7,93.5    414.4,110 354.6,145 299.3,162.7 240.4,231 180.1,231  "/>
	<polygon style="fill:#FFFFFF;" points="414.4,414.4 89.6,414.4 89.6,89.6 109.3,89.6 109.3,394.7 414.4,394.7  "/>
</g>
<g>
</g>
<g>
</g>
<g>
</g>
<g>
</g>
<g>
</g>
<g>
</g>
<g>
</g>
<g>
</g>
<g>
</g>
<g>
</g>
<g>
</g>
<g>
</g>
<g>
</g>
<g>
</g>
<g>
</g>
</svg>
