<?xml version="1.0" encoding="iso-8859-1"?>
<!-- Generator: Adobe Illustrator 19.0.0, SVG Export Plug-In . SVG Version: 6.00 Build 0)  -->
<svg xmlns="http://www.w3.org/2000/svg" xmlns:xlink="http://www.w3.org/1999/xlink" version="1.1" id="Layer_1" x="0px" y="0px" viewBox="0 0 504 504" style="enable-background:new 0 0 504 504;" xml:space="preserve">
<circle style="fill:#84DBFF;" cx="252" cy="252" r="252"/>
<path style="fill:#324A5E;" d="M194.7,239.2l4.1,4.1c10.1,10.1,9.8,26.3-0.4,36.4c-0.1,0.1-0.1,0.1-0.2,0.2  c-1.7,1.7-3.4,3.5-4.9,5.3c-7.3,8.6-15.6,16.2-25.4,21.8c-11.3,6.5-23.9,16.2-36,28.3c-29,29-44.3,60.8-34.2,71s42-5.1,71-34.2  c12.1-12.1,21.9-24.7,28.3-36c5.6-9.8,13.2-18.2,21.8-25.4c1.8-1.5,3.6-3.1,5.3-4.9c0.1-0.1,0.1-0.1,0.2-0.2  c10.1-10.1,26.3-10.4,36.4-0.4l4.1,4.1c9.2,9.2,23.8,9.9,33.8,2L192.7,205.4C184.8,215.4,185.4,230,194.7,239.2z"/>
<path style="fill:#ACB3BA;" d="M192.6,205.3l0.1,0.1c0.6-0.8,1.3-1.5,2-2.2L192.6,205.3z"/>
<g>
	
		<rect x="204.284" y="220.721" transform="matrix(-0.7071 -0.7071 0.7071 -0.7071 318.0718 581.0908)" style="fill:#2C9984;" width="150.199" height="7.9"/>
	<path style="fill:#2C9984;" d="M194.7,203.2c-0.7,0.7-1.4,1.5-2,2.2l105.9,105.9l0.1,0.1l2.1-2.1l3.5-3.5L198.1,199.7L194.7,203.2z   "/>
	<polygon style="fill:#2C9984;" points="325.3,284.9 219.1,178.7 213.1,184.7 213,184.8 319.2,291 319.3,290.9  "/>
	
		<rect x="183.481" y="240.989" transform="matrix(0.7071 0.7071 -0.7071 0.7071 249.2176 -110.9856)" style="fill:#2C9984;" width="150.199" height="8.7"/>
</g>
<g>
	
		<rect x="199.299" y="226.485" transform="matrix(-0.7071 -0.7071 0.7071 -0.7071 306.0856 585.9552)" style="fill:#FFFFFF;" width="150.199" height="6.2"/>
	
		<rect x="188.782" y="237.015" transform="matrix(0.7071 0.7071 -0.7071 0.7071 247.0758 -116.264)" style="fill:#FFFFFF;" width="150.199" height="6.2"/>
	
		<rect x="178.251" y="247.535" transform="matrix(0.7071 0.7071 -0.7071 0.7071 251.4301 -105.7364)" style="fill:#FFFFFF;" width="150.199" height="6.2"/>
</g>
<path style="fill:#FFD05B;" d="M409.3,194.4c-5.7,5.7-11.6,11.2-17.6,16.6c-3,2.6-6.1,5.3-9.9,6.6s-8.4,1-11.2-1.9  c-1.6-1.6-2.9-4.1-5.2-4.2c-1,0-1.9,0.4-2.7,0.9c-9.4,5-17.5,13.9-28.2,14c-0.6,0-1.3,0-1.8-0.5s-0.6-1.3-0.6-2  c0-4.7,1.6-9.4,4.3-13.3c1.4-2,3.1-3.7,4.2-5.9c1.1-2.1,1.5-4.5,1.9-6.8c0.9-5.6,1.5-11.3,1.9-16.9c0.3-4.4,0.4-9-1.4-13  s-6.1-7.2-10.5-6.3c-2.3,0.5-4.3,2-6.5,2.5c-3.5,0.9-7.3-0.8-9.9-3.3s-4.3-5.9-5.9-9.1c-0.4-0.9-0.9-1.9-0.7-2.9  c0.2-0.8,0.8-1.4,1.3-1.9c2.3-2.2,4.6-4.5,6.8-6.7c0.7-0.7,1.5-1.5,1.9-2.5c0.7-1.9-0.2-4.1-1.5-5.6c-5.7-6.9-17.4-6.7-22.2-14.2  c2.9-9.2,16.1-10.2,21.8-17.9l-2.6-2.6c-4.1-4.1-10.8-4.1-14.9,0l-71.2,71.2L335.2,275l71.2-71.2C409,201.2,409.9,197.7,409.3,194.4  z"/>
<path style="fill:#FF7058;" d="M296,118.1c4.9,7.5,16.5,7.4,22.2,14.2c1.3,1.6,2.2,3.7,1.5,5.6c-0.4,1-1.1,1.7-1.9,2.5  c-2.3,2.2-4.6,4.5-6.8,6.7c-0.6,0.6-1.1,1.1-1.3,1.9c-0.2,1,0.2,2,0.7,2.9c1.6,3.3,3.3,6.6,5.9,9.1s6.4,4.2,9.9,3.3  c2.3-0.6,4.2-2.1,6.5-2.5c4.3-0.9,8.6,2.3,10.5,6.3c1.8,4,1.7,8.6,1.4,13c-0.4,5.7-1,11.3-1.9,16.9c-0.4,2.3-0.8,4.7-1.9,6.8  c-1.1,2.2-2.8,3.9-4.2,5.9c-2.8,3.8-4.3,8.5-4.3,13.3c0,0.7,0.1,1.5,0.6,2c0.5,0.4,1.2,0.5,1.8,0.5c10.6-0.1,18.8-9,28.2-14  c0.8-0.5,1.7-0.9,2.7-0.9c2.3,0.1,3.5,2.6,5.2,4.2c2.8,2.8,7.4,3.2,11.2,1.9c3.8-1.3,6.9-4,9.9-6.6c6-5.4,11.9-10.9,17.6-16.6  c-0.4-2-1.3-4-2.9-5.6L318,100.3C312.1,107.9,298.9,108.9,296,118.1z"/>
<g>
</g>
<g>
</g>
<g>
</g>
<g>
</g>
<g>
</g>
<g>
</g>
<g>
</g>
<g>
</g>
<g>
</g>
<g>
</g>
<g>
</g>
<g>
</g>
<g>
</g>
<g>
</g>
<g>
</g>
</svg>
