<?xml version="1.0" encoding="iso-8859-1"?>
<!-- Generator: Adobe Illustrator 19.0.0, SVG Export Plug-In . SVG Version: 6.00 Build 0)  -->
<svg xmlns="http://www.w3.org/2000/svg" xmlns:xlink="http://www.w3.org/1999/xlink" version="1.1" id="Layer_1" x="0px" y="0px" viewBox="0 0 504 504" style="enable-background:new 0 0 504 504;" xml:space="preserve">
<circle style="fill:#324A5E;" cx="252" cy="252" r="252"/>
<path style="fill:#E6E9EE;" d="M409.5,283v-62h-31.4c-3.2-13-8.3-25.1-15-36.2l22.2-22.2l-43.9-43.9l-22.2,22.2  c-11.1-6.7-23.3-11.8-36.2-15V94.5h-62v31.4c-12.9,3.2-25.1,8.3-36.2,15l-22.2-22.2l-43.9,43.9l22.2,22.2  c-6.7,11.1-11.8,23.3-15,36.2H94.5v62h31.4c3.2,12.9,8.3,25.1,15,36.2l-22.2,22.2l43.9,43.9l22.2-22.2c11.1,6.7,23.3,11.8,36.2,15  v31.4h62v-31.4c13-3.2,25.1-8.3,36.2-15l22.2,22.2l43.9-43.9l-22.2-22.2c6.7-11.1,11.8-23.3,15-36.2H409.5z M252,348.9  c-12.9,0-25.2-2.5-36.4-7.1c-22.6-9.2-40.9-26.6-51.2-48.5c-5.9-12.5-9.2-26.5-9.2-41.3c0-53.5,43.4-96.9,96.9-96.9  S349,198.5,349,252C348.9,305.5,305.5,348.9,252,348.9z"/>
<path style="fill:#4CDBC4;" d="M245.6,245.6v-72.2c-38.5,3.1-69.1,33.7-72.2,72.2H245.6z"/>
<path style="fill:#FF7058;" d="M258.4,245.6h72.2c-3.1-38.5-33.7-69.1-72.2-72.2L258.4,245.6L258.4,245.6z"/>
<path style="fill:#FFD05B;" d="M245.6,258.4h-72.2c3.1,38.5,33.7,69.1,72.2,72.2V258.4z"/>
<path style="fill:#54C0EB;" d="M258.4,258.4v72.2c38.5-3.1,69.1-33.7,72.2-72.2L258.4,258.4L258.4,258.4z"/>
<g>
</g>
<g>
</g>
<g>
</g>
<g>
</g>
<g>
</g>
<g>
</g>
<g>
</g>
<g>
</g>
<g>
</g>
<g>
</g>
<g>
</g>
<g>
</g>
<g>
</g>
<g>
</g>
<g>
</g>
</svg>
