<?xml version="1.0" encoding="iso-8859-1"?>
<!-- Generator: Adobe Illustrator 19.0.0, SVG Export Plug-In . SVG Version: 6.00 Build 0)  -->
<svg xmlns="http://www.w3.org/2000/svg" xmlns:xlink="http://www.w3.org/1999/xlink" version="1.1" id="Layer_1" x="0px" y="0px" viewBox="0 0 504 504" style="enable-background:new 0 0 504 504;" xml:space="preserve">
<circle style="fill:#90DFAA;" cx="252" cy="252" r="252"/>
<path style="fill:#2B3B4E;" d="M252,94.5C165,94.5,94.5,165,94.5,252H252V94.5z"/>
<path style="fill:#324A5E;" d="M94.5,252c0,43.5,17.6,82.9,46.1,111.4L252,252H94.5z"/>
<path style="fill:#F9B54C;" d="M140.6,363.4c28.5,28.5,67.9,46.1,111.4,46.1s82.9-17.6,111.4-46.1L252,252L140.6,363.4z"/>
<path style="fill:#FF7058;" d="M252,94.5V252l111.4-111.4C334.9,112.1,295.5,94.5,252,94.5z"/>
<path style="fill:#F1543F;" d="M363.4,140.6L252,252l111.4,111.4c28.5-28.5,46.1-67.9,46.1-111.4S391.9,169.1,363.4,140.6z"/>
<g>
</g>
<g>
</g>
<g>
</g>
<g>
</g>
<g>
</g>
<g>
</g>
<g>
</g>
<g>
</g>
<g>
</g>
<g>
</g>
<g>
</g>
<g>
</g>
<g>
</g>
<g>
</g>
<g>
</g>
</svg>
