<?xml version="1.0" encoding="iso-8859-1"?>
<!-- Generator: Adobe Illustrator 19.0.0, SVG Export Plug-In . SVG Version: 6.00 Build 0)  -->
<svg xmlns="http://www.w3.org/2000/svg" xmlns:xlink="http://www.w3.org/1999/xlink" version="1.1" id="Layer_1" x="0px" y="0px" viewBox="0 0 504 504" style="enable-background:new 0 0 504 504;" xml:space="preserve">
<circle style="fill:#FFD05B;" cx="252" cy="252" r="252"/>
<polygon style="fill:#FFFFFF;" points="303.6,94.5 145.2,94.5 145.2,409.5 381,409.5 381,171.9 "/>
<polygon style="fill:#E6E9EE;" points="303.6,171.9 381,171.9 303.6,94.5 "/>
<rect x="123" y="144.9" style="fill:#324A5E;" width="144.1" height="80.2"/>
<g>
	<path style="fill:#FFFFFF;" d="M163.2,167.3c3,2.6,4.5,6.5,4.5,11.8s-1.5,9.2-4.7,11.7c-3.1,2.5-7.8,3.7-14.2,3.7h-5.7v12h-9.6   v-43.1h15.2C155.4,163.4,160.2,164.7,163.2,167.3z M156.1,184.2c1.2-1.3,1.7-3.2,1.7-5.7s-0.8-4.3-2.3-5.3s-3.8-1.6-7-1.6H143v14.5   h6.5C152.8,186.2,155,185.5,156.1,184.2z"/>
	<path style="fill:#FFFFFF;" d="M202,163.4h9.6v43.1H202v-17h-17.1v17h-9.6v-43.1h9.6v18H202V163.4z"/>
	<path style="fill:#FFFFFF;" d="M252,167.3c3,2.6,4.5,6.5,4.5,11.8s-1.5,9.2-4.7,11.7c-3.1,2.5-7.8,3.7-14.2,3.7h-5.7v12h-9.6v-43.1   h15.2C244.1,163.4,249,164.7,252,167.3z M244.9,184.2c1.2-1.3,1.7-3.2,1.7-5.7s-0.8-4.3-2.3-5.3s-3.8-1.6-7-1.6h-5.5v14.5h6.5   C241.6,186.2,243.8,185.5,244.9,184.2z"/>
</g>
<rect x="223.2" y="249.7" style="fill:#F1543F;" width="135.8" height="21.3"/>
<rect x="167.2" y="249.7" style="fill:#2C9984;" width="36.3" height="21.3"/>
<rect x="167.2" y="290.1" style="fill:#F9B54C;" width="135.8" height="21.3"/>
<rect x="322.8" y="290.1" style="fill:#2C9984;" width="36.3" height="21.3"/>
<rect x="223.2" y="330.4" style="fill:#2B3B4E;" width="135.8" height="21.3"/>
<rect x="167.2" y="330.4" style="fill:#2C9984;" width="36.3" height="21.3"/>
<rect x="167.2" y="370.8" style="fill:#84DBFF;" width="135.8" height="21.3"/>
<rect x="322.8" y="370.8" style="fill:#2C9984;" width="36.3" height="21.3"/>
<g>
</g>
<g>
</g>
<g>
</g>
<g>
</g>
<g>
</g>
<g>
</g>
<g>
</g>
<g>
</g>
<g>
</g>
<g>
</g>
<g>
</g>
<g>
</g>
<g>
</g>
<g>
</g>
<g>
</g>
</svg>
