<?xml version="1.0" encoding="iso-8859-1"?>
<!-- Generator: Adobe Illustrator 19.0.0, SVG Export Plug-In . SVG Version: 6.00 Build 0)  -->
<svg xmlns="http://www.w3.org/2000/svg" xmlns:xlink="http://www.w3.org/1999/xlink" version="1.1" id="Layer_1" x="0px" y="0px" viewBox="0 0 504 504" style="enable-background:new 0 0 504 504;" xml:space="preserve">
<circle style="fill:#FD8469;" cx="252" cy="252" r="252"/>
<rect x="184.2" y="380.7" style="fill:#F1543F;" width="128.1" height="28.8"/>
<path style="fill:#E6E9EE;" d="M312.3,368.7c0-23.9,5.6-47.3,16-68.4C337,282.8,346,260.4,346,243c0-70.3-57-126.3-124.5-118.5  C164.2,131.1,122,185,122,246.4l0,0c0,12.7-12.8,24.9-21.3,33.9l-5.1,5.5c-2.4,2.6-0.7,7,2.7,7H122v18.3l11.5,4.2l-11.5,4.2v8.8  c0,9.3,7,16.8,15.7,16.8h30.7c8.7,0,15.7,7.5,15.7,16.8v18.8h128.1v-12H312.3z"/>
<path style="fill:#324A5E;" d="M323.8,94.5c-47.3,0-85.7,31.5-85.7,70.3c0,19.6,9.8,37.3,25.5,50.1l-9.7,40l54.3-20.9  c5.1,0.8,10.3,1.2,15.6,1.2c47.3,0,85.7-31.5,85.7-70.3C409.5,126,371.1,94.5,323.8,94.5z"/>
<g>
	<path style="fill:#FFFFFF;" d="M249,165.8V160l18.1-9.7v6.2l-12,6.3l12,6.4v6.3L249,165.8z"/>
	<path style="fill:#FFFFFF;" d="M289.2,150h5.8v29.6h-5.8V168h-10.4v11.6H273V150h5.8v12.4h10.4L289.2,150L289.2,150z"/>
	<path style="fill:#FFFFFF;" d="M312.5,155.8v23.9h-5.8v-23.9h-7.4V150h20.6v5.7h-7.4V155.8z"/>
	<path style="fill:#FFFFFF;" d="M347.5,161l-7,16.2H337l-7-16.2v18.6h-5.8V150h7.9l6.7,16.3l6.8-16.3h7.8v29.6h-5.8V161H347.5z"/>
	<path style="fill:#FFFFFF;" d="M359.7,179.6V150h5.8v23.7h11.1v5.9L359.7,179.6L359.7,179.6z"/>
	<path style="fill:#FFFFFF;" d="M398.6,160v5.8l-18.1,9.7v-6.3l12-6.4l-12-6.3v-6.2L398.6,160z"/>
</g>
<g>
</g>
<g>
</g>
<g>
</g>
<g>
</g>
<g>
</g>
<g>
</g>
<g>
</g>
<g>
</g>
<g>
</g>
<g>
</g>
<g>
</g>
<g>
</g>
<g>
</g>
<g>
</g>
<g>
</g>
</svg>
