<?xml version="1.0" encoding="iso-8859-1"?>
<!-- Generator: Adobe Illustrator 19.0.0, SVG Export Plug-In . SVG Version: 6.00 Build 0)  -->
<svg xmlns="http://www.w3.org/2000/svg" xmlns:xlink="http://www.w3.org/1999/xlink" version="1.1" id="Layer_1" x="0px" y="0px" viewBox="0 0 504 504" style="enable-background:new 0 0 504 504;" xml:space="preserve">
<circle style="fill:#FD8469;" cx="252" cy="252" r="252"/>
<path style="fill:#324A5E;" d="M360.1,409.5H143.9c-1.5,0-2.8-1.2-2.8-2.8V97.3c0-1.5,1.2-2.8,2.8-2.8h216.2c1.5,0,2.8,1.2,2.8,2.8  v309.4C362.9,408.3,361.6,409.5,360.1,409.5z"/>
<rect x="141.1" y="129.9" style="fill:#E6E9EE;" width="221.8" height="222"/>
<g>
	<path style="fill:#2B3B4E;" d="M275.1,118.1h-46.2c-0.8,0-1.5-0.7-1.5-1.5v-8.7c0-0.8,0.7-1.5,1.5-1.5h46.2c0.8,0,1.5,0.7,1.5,1.5   v8.7C276.6,117.4,275.9,118.1,275.1,118.1z"/>
	<circle style="fill:#2B3B4E;" cx="252" cy="380.7" r="20.8"/>
</g>
<rect x="174.1" y="155.6" style="fill:#F1543F;" width="29.9" height="170.6"/>
<rect x="216.1" y="195" style="fill:#2C9984;" width="29.9" height="131.3"/>
<rect x="258" y="234.4" style="fill:#F9B54C;" width="29.9" height="91.9"/>
<rect x="300" y="273.7" style="fill:#ACB3BA;" width="29.9" height="52.5"/>
<g>
</g>
<g>
</g>
<g>
</g>
<g>
</g>
<g>
</g>
<g>
</g>
<g>
</g>
<g>
</g>
<g>
</g>
<g>
</g>
<g>
</g>
<g>
</g>
<g>
</g>
<g>
</g>
<g>
</g>
</svg>
