<?xml version="1.0" encoding="iso-8859-1"?>
<!-- Generator: Adobe Illustrator 19.0.0, SVG Export Plug-In . SVG Version: 6.00 Build 0)  -->
<svg xmlns="http://www.w3.org/2000/svg" xmlns:xlink="http://www.w3.org/1999/xlink" version="1.1" id="Layer_1" x="0px" y="0px" viewBox="0 0 504 504" style="enable-background:new 0 0 504 504;" xml:space="preserve">
<circle style="fill:#90DFAA;" cx="252" cy="252" r="252"/>
<polygon style="fill:#FFFFFF;" points="303.2,94.5 127.5,94.5 127.5,409.5 376.5,409.5 376.5,167.9 "/>
<g>
	<polygon style="fill:#CED5E0;" points="303.2,167.9 376.5,167.9 303.2,94.5  "/>
	<path style="fill:#CED5E0;" d="M145.4,228.3L145.4,228.3L145.4,228.3z"/>
	<path style="fill:#CED5E0;" d="M240.3,268.8c0.6-0.6,1.2-1.1,1.7-1.7L240.3,268.8z"/>
</g>
<path style="fill:#ACB3BA;" d="M205.5,237.8v46.4c12.5-0.9,23.9-5.8,32.8-13.6L205.5,237.8z"/>
<path style="fill:#54C0EB;" d="M205.5,226.7l38.4,38.4c8.6-9.9,13.8-22.7,13.8-36.8c0-29.7-23-53.9-52.2-55.9L205.5,226.7  L205.5,226.7z"/>
<path style="fill:#324A5E;" d="M197.6,224.4v-52c-27.8,1.9-50,24.1-52,52H197.6z"/>
<path style="fill:#4CDBC4;" d="M197.6,232.3h-52c1.9,27.8,24.1,50,52,52V232.3z"/>
<rect x="287.4" y="187.6" style="fill:#F1543F;" width="60.3" height="9.4"/>
<rect x="276.4" y="211.6" style="fill:#ACB3BA;" width="82.1" height="9.4"/>
<rect x="276.4" y="235.7" style="fill:#4CDBC4;" width="82.1" height="9.4"/>
<rect x="276.4" y="259.7" style="fill:#2C9984;" width="82.1" height="9.4"/>
<rect x="156.6" y="309.9" style="fill:#324A5E;" width="60.3" height="9.4"/>
<rect x="145.6" y="333.9" style="fill:#2C9984;" width="82.1" height="9.4"/>
<rect x="145.6" y="358" style="fill:#54C0EB;" width="82.1" height="9.4"/>
<rect x="145.6" y="382" style="fill:#FF7058;" width="82.1" height="9.4"/>
<rect x="337.5" y="314.6" style="fill:#F1543F;" width="21.1" height="76.7"/>
<rect x="306.9" y="346.1" style="fill:#324A5E;" width="21.1" height="45.2"/>
<rect x="276.4" y="369.7" style="fill:#F9B54C;" width="21.1" height="21.6"/>
<rect x="165.1" y="115.4" style="fill:#F1543F;" width="100.4" height="20.3"/>
<g>
</g>
<g>
</g>
<g>
</g>
<g>
</g>
<g>
</g>
<g>
</g>
<g>
</g>
<g>
</g>
<g>
</g>
<g>
</g>
<g>
</g>
<g>
</g>
<g>
</g>
<g>
</g>
<g>
</g>
</svg>
