<?xml version="1.0" encoding="iso-8859-1"?>
<!-- Generator: Adobe Illustrator 19.0.0, SVG Export Plug-In . SVG Version: 6.00 Build 0)  -->
<svg xmlns="http://www.w3.org/2000/svg" xmlns:xlink="http://www.w3.org/1999/xlink" version="1.1" id="Layer_1" x="0px" y="0px" viewBox="0 0 504 504" style="enable-background:new 0 0 504 504;" xml:space="preserve">
<circle style="fill:#324A5E;" cx="252" cy="252" r="252"/>
<path style="fill:#F1543F;" d="M377.2,126.8l-27.8,27.8c25,25,40.4,59.4,40.4,97.4h39.4C429.2,203.1,409.3,158.9,377.2,126.8z"/>
<path style="fill:#54C0EB;" d="M252,389.8v39.4c97.7,0,177.2-79.5,177.2-177.2h-39.4C389.8,328,328,389.8,252,389.8z"/>
<path style="fill:#2C9984;" d="M114.2,252H74.8c0,48.9,19.9,93.1,52,125.2l27.8-27.8C129.6,324.4,114.2,290,114.2,252z"/>
<path style="fill:#F1543F;" d="M252,114.2V74.8c-97.7,0-177.2,79.5-177.2,177.2h39.4C114.2,176,176,114.2,252,114.2z"/>
<path style="fill:#F9B54C;" d="M154.6,349.4l-27.8,27.8c32.1,32.1,76.4,52,125.2,52v-39.4C214,389.8,179.6,374.4,154.6,349.4z"/>
<path style="fill:#ACB3BA;" d="M349.4,154.6l27.8-27.8c-32.1-32.1-76.4-52-125.2-52v39.4C290,114.2,324.4,129.6,349.4,154.6z"/>
<rect x="157.5" y="180.5" style="fill:#FFFFFF;" width="38.9" height="143.1"/>
<rect x="207.6" y="204.1" style="fill:#54C0EB;" width="38.9" height="119.4"/>
<rect x="257.6" y="227.7" style="fill:#FFD05B;" width="38.9" height="95.8"/>
<rect x="307.6" y="251.3" style="fill:#4CDBC4;" width="38.9" height="72.2"/>
<g>
</g>
<g>
</g>
<g>
</g>
<g>
</g>
<g>
</g>
<g>
</g>
<g>
</g>
<g>
</g>
<g>
</g>
<g>
</g>
<g>
</g>
<g>
</g>
<g>
</g>
<g>
</g>
<g>
</g>
</svg>
