<?xml version="1.0" encoding="iso-8859-1"?>
<!-- Generator: Adobe Illustrator 19.0.0, SVG Export Plug-In . SVG Version: 6.00 Build 0)  -->
<svg xmlns="http://www.w3.org/2000/svg" xmlns:xlink="http://www.w3.org/1999/xlink" version="1.1" id="Layer_1" x="0px" y="0px" viewBox="0 0 504 504" style="enable-background:new 0 0 504 504;" xml:space="preserve">
<circle style="fill:#84DBFF;" cx="252" cy="252" r="252"/>
<rect x="94.5" y="94.5" style="fill:#324A5E;" width="273.9" height="267.1"/>
<rect x="118.5" y="152.1" style="fill:#FFFFFF;" width="226" height="185.5"/>
<rect x="118.5" y="113.1" style="fill:#FF7058;" width="23.8" height="20.4"/>
<rect x="157.8" y="113.1" style="fill:#FFFFFF;" width="23.8" height="20.4"/>
<rect x="197.1" y="113.1" style="fill:#FFD05B;" width="23.8" height="20.4"/>
<rect x="254.7" y="113.1" style="fill:#FFFFFF;" width="89.7" height="20.4"/>
<rect x="135.2" y="199.8" style="fill:#2C9984;" width="192.6" height="35.1"/>
<rect x="243.6" y="246.8" style="fill:#ACB3BA;" width="84.2" height="35.1"/>
<rect x="135.2" y="246.8" style="fill:#324A5E;" width="84.2" height="35.1"/>
<rect x="135.2" y="293.7" style="fill:#54C0EB;" width="192.6" height="35.1"/>
<rect x="135.2" y="160.9" style="fill:#324A5E;" width="84.2" height="10.2"/>
<rect x="243.6" y="160.9" style="fill:#ACB3BA;" width="84.2" height="10.2"/>
<rect x="135.2" y="180.3" style="fill:#F1543F;" width="84.2" height="10.2"/>
<rect x="243.6" y="180.3" style="fill:#54C0EB;" width="84.2" height="10.2"/>
<polygon style="fill:#FF7058;" points="378.2,409.5 345,383.9 311.7,409.5 311.7,316.8 378.2,316.8 "/>
<circle style="fill:#F9B54C;" cx="345" cy="283.5" r="64.5"/>
<circle style="fill:#FFD05B;" cx="345" cy="283.5" r="51.2"/>
<polygon style="fill:#F9B54C;" points="345,243.3 356.5,267.8 382.3,271.7 363.6,290.8 368,317.8 345,305.1 321.9,317.8   326.3,290.8 307.7,271.7 333.5,267.8 "/>
<g>
</g>
<g>
</g>
<g>
</g>
<g>
</g>
<g>
</g>
<g>
</g>
<g>
</g>
<g>
</g>
<g>
</g>
<g>
</g>
<g>
</g>
<g>
</g>
<g>
</g>
<g>
</g>
<g>
</g>
</svg>
