<?xml version="1.0" encoding="iso-8859-1"?>
<!-- Generator: Adobe Illustrator 19.0.0, SVG Export Plug-In . SVG Version: 6.00 Build 0)  -->
<svg xmlns="http://www.w3.org/2000/svg" xmlns:xlink="http://www.w3.org/1999/xlink" version="1.1" id="Layer_1" x="0px" y="0px" viewBox="0 0 504 504" style="enable-background:new 0 0 504 504;" xml:space="preserve">
<circle style="fill:#FFD05B;" cx="252" cy="252" r="252"/>
<path style="fill:#FF7058;" d="M368.4,112.4l32.8,32.8c7,7,7.2,18.2,0.6,25.5L216.4,376c-7.1,7.9-19.3,8.2-26.8,0.7L136.8,324  c-7.5-7.5-7.2-19.7,0.7-26.8l205.4-185.4C350.2,105.1,361.4,105.4,368.4,112.4z"/>
<path style="fill:#324A5E;" d="M126.2,351.1l36.2,36.2c0.9,0.9,2.5,0.9,3.4,0l17.2-17.2l-39.6-39.6l-17.2,17.2  C125.3,348.6,125.3,350.1,126.2,351.1z"/>
<path style="fill:#4CDBC4;" d="M138.5,395.9l16.2-16.2l-20.8-20.8l-31.3,31.3c-2.6,2.6-0.7,6.9,2.9,6.9h30.2  C136.7,397.1,137.7,396.6,138.5,395.9z"/>
<g>
</g>
<g>
</g>
<g>
</g>
<g>
</g>
<g>
</g>
<g>
</g>
<g>
</g>
<g>
</g>
<g>
</g>
<g>
</g>
<g>
</g>
<g>
</g>
<g>
</g>
<g>
</g>
<g>
</g>
</svg>
