<?xml version="1.0" encoding="iso-8859-1"?>
<!-- Generator: Adobe Illustrator 19.0.0, SVG Export Plug-In . SVG Version: 6.00 Build 0)  -->
<svg xmlns="http://www.w3.org/2000/svg" xmlns:xlink="http://www.w3.org/1999/xlink" version="1.1" id="Layer_1" x="0px" y="0px" viewBox="0 0 504 504" style="enable-background:new 0 0 504 504;" xml:space="preserve">
<circle style="fill:#84DBFF;" cx="252" cy="252" r="252"/>
<rect x="94.5" y="94.5" style="fill:#F1543F;" width="280" height="255.5"/>
<g>
	<rect x="119" y="153.4" style="fill:#FFFFFF;" width="231" height="172.1"/>
	<rect x="119" y="113.5" style="fill:#FFFFFF;" width="24.3" height="20.9"/>
	<rect x="159.2" y="113.5" style="fill:#FFFFFF;" width="24.3" height="20.9"/>
</g>
<rect x="199.3" y="113.5" style="fill:#2B3B4E;" width="24.3" height="20.9"/>
<rect x="258.3" y="113.5" style="fill:#FFFFFF;" width="91.7" height="20.9"/>
<rect x="184.6" y="173.7" style="fill:#ACB3BA;" width="145.5" height="16.3"/>
<g>
	<rect x="138.8" y="173.7" style="fill:#324A5E;" width="29.6" height="16.3"/>
	<rect x="184.6" y="212.1" style="fill:#324A5E;" width="145.5" height="16.3"/>
</g>
<rect x="138.8" y="212.1" style="fill:#4CDBC4;" width="29.6" height="16.3"/>
<rect x="184.6" y="250.5" style="fill:#F9B54C;" width="145.5" height="16.3"/>
<g>
	<rect x="138.8" y="250.5" style="fill:#54C0EB;" width="29.6" height="16.3"/>
	<rect x="184.6" y="288.9" style="fill:#54C0EB;" width="145.5" height="16.3"/>
</g>
<rect x="138.8" y="288.9" style="fill:#F1543F;" width="29.6" height="16.3"/>
<path style="fill:#324A5E;" d="M409.4,332.8v-61.9c-42.5-1.5-61.3-26-61.3-26s-18.8,24.5-61.3,26v61.9c0,0-4.5,53.7,61.3,76.7  C414,386.5,409.4,332.8,409.4,332.8z"/>
<path style="fill:#FFD05B;" d="M355.7,322h39.7v-38.3c-17.2-2.5-30.3-8.4-39.7-14.4V322z"/>
<path style="fill:#E6E9EE;" d="M340.5,322v-52.7c-9.4,5.9-22.6,11.8-39.7,14.4V322L340.5,322L340.5,322z"/>
<path style="fill:#FFD05B;" d="M340.5,337.1h-39.8c0.5,9.5,5,37,39.8,54V337.1z"/>
<path style="fill:#E6E9EE;" d="M355.7,337.1v54c34.9-17.1,39.3-44.7,39.8-54H355.7z"/>
<g>
</g>
<g>
</g>
<g>
</g>
<g>
</g>
<g>
</g>
<g>
</g>
<g>
</g>
<g>
</g>
<g>
</g>
<g>
</g>
<g>
</g>
<g>
</g>
<g>
</g>
<g>
</g>
<g>
</g>
</svg>
