<?xml version="1.0" encoding="iso-8859-1"?>
<!-- Generator: Adobe Illustrator 19.0.0, SVG Export Plug-In . SVG Version: 6.00 Build 0)  -->
<svg xmlns="http://www.w3.org/2000/svg" xmlns:xlink="http://www.w3.org/1999/xlink" version="1.1" id="Layer_1" x="0px" y="0px" viewBox="0 0 504 504" style="enable-background:new 0 0 504 504;" xml:space="preserve">
<circle style="fill:#FD8469;" cx="252" cy="252" r="252"/>
<rect x="94.5" y="88.7" style="fill:#324A5E;" width="315" height="315"/>
<g>
	<rect x="123.5" y="160.2" style="fill:#FFFFFF;" width="257" height="214.4"/>
	<path style="fill:#FFFFFF;" d="M155.6,133.6h-30c-1.2,0-2.1-0.9-2.1-2.1v-16c0-1.2,0.9-2.1,2.1-2.1h30c1.2,0,2.1,0.9,2.1,2.1v16   C157.7,132.6,156.8,133.6,155.6,133.6z"/>
</g>
<path style="fill:#F9B54C;" d="M212.1,133.6h-30c-1.2,0-2.1-0.9-2.1-2.1v-16c0-1.2,0.9-2.1,2.1-2.1h30c1.2,0,2.1,0.9,2.1,2.1v16  C214.2,132.6,213.2,133.6,212.1,133.6z"/>
<g>
	<path style="fill:#54C0EB;" d="M268.5,133.6h-30c-1.2,0-2.1-0.9-2.1-2.1v-16c0-1.2,0.9-2.1,2.1-2.1h30c1.2,0,2.1,0.9,2.1,2.1v16   C270.7,132.6,269.7,133.6,268.5,133.6z"/>
	<polygon style="fill:#54C0EB;" points="216.4,198.5 239.5,284.7 334.2,284.7 357.4,198.5  "/>
</g>
<ellipse style="fill:#FFD05B;" cx="241.5" cy="341.1" rx="22.4" ry="22.4"/>
<path style="fill:#F9B54C;" d="M241.5,347.8c-3.6,0-6.6-3-6.6-6.6c0-3.7,3-6.6,6.6-6.6s6.6,3,6.6,6.6  C248.2,344.8,245.2,347.8,241.5,347.8z"/>
<ellipse style="fill:#FFD05B;" cx="306.6" cy="341.1" rx="22.4" ry="22.4"/>
<path style="fill:#F9B54C;" d="M306.6,347.8c-3.6,0-6.6-3-6.6-6.6c0-3.7,3-6.6,6.6-6.6s6.6,3,6.6,6.6S310.3,347.8,306.6,347.8z"/>
<path style="fill:#F1543F;" d="M228.5,294.4l-27-88.8c-5.3-17.4-21.1-29.1-39.3-29.1h-10.6c-5.4,0-9.8,4.4-9.8,9.8l0,0  c0,5.4,4.4,9.8,9.8,9.8h10.6c9.4,0,17.8,6.2,20.5,15.2L214,314h115.7c5.4,0,9.8-4.4,9.8-9.8l0,0c0-5.4-4.4-9.8-9.8-9.8L228.5,294.4  L228.5,294.4z"/>
<g>
	<rect x="248" y="213.1" style="fill:#FFFFFF;" width="9.6" height="56.9"/>
	<rect x="270.7" y="213.1" style="fill:#FFFFFF;" width="9.6" height="56.9"/>
	<rect x="293.5" y="213.1" style="fill:#FFFFFF;" width="9.6" height="56.9"/>
	<rect x="316.2" y="213.1" style="fill:#FFFFFF;" width="9.6" height="56.9"/>
</g>
<g>
</g>
<g>
</g>
<g>
</g>
<g>
</g>
<g>
</g>
<g>
</g>
<g>
</g>
<g>
</g>
<g>
</g>
<g>
</g>
<g>
</g>
<g>
</g>
<g>
</g>
<g>
</g>
<g>
</g>
</svg>
