<?xml version="1.0" encoding="iso-8859-1"?>
<!-- Generator: Adobe Illustrator 19.0.0, SVG Export Plug-In . SVG Version: 6.00 Build 0)  -->
<svg xmlns="http://www.w3.org/2000/svg" xmlns:xlink="http://www.w3.org/1999/xlink" version="1.1" id="Layer_1" x="0px" y="0px" viewBox="0 0 504 504" style="enable-background:new 0 0 504 504;" xml:space="preserve">
<circle style="fill:#FFD05B;" cx="252" cy="252" r="252"/>
<path style="fill:#324A5E;" d="M209.6,387h-85.7c-1.7,0-3.1-1.4-3.1-3.1V96.6c0-1.7,1.4-3.1,3.1-3.1h85.7c1.7,0,3.1,1.4,3.1,3.1  v287.3C212.7,385.6,211.3,387,209.6,387z"/>
<path style="fill:#84DBFF;" d="M198.4,137.2H135c-0.6,0-1-0.5-1-1v-27.5c0-0.6,0.5-1,1-1h63.4c0.6,0,1,0.5,1,1v27.5  C199.4,136.7,199,137.2,198.4,137.2z"/>
<path style="fill:#FFD05B;" d="M198.4,187.4H135c-0.6,0-1-0.5-1-1v-27.5c0-0.6,0.5-1,1-1h63.4c0.6,0,1,0.5,1,1v27.5  C199.4,187,199,187.4,198.4,187.4z"/>
<path style="fill:#FF7058;" d="M198.4,237.7H135c-0.6,0-1-0.5-1-1v-27.5c0-0.6,0.5-1,1-1h63.4c0.6,0,1,0.5,1,1v27.5  C199.4,237.2,199,237.7,198.4,237.7z"/>
<path style="fill:#4CDBC4;" d="M198.4,287.9H135c-0.6,0-1-0.5-1-1v-27.5c0-0.6,0.5-1,1-1h63.4c0.6,0,1,0.5,1,1v27.5  C199.4,287.5,199,287.9,198.4,287.9z"/>
<path style="fill:#2C9984;" d="M198.4,338.2H135c-0.6,0-1-0.5-1-1v-27.5c0-0.6,0.5-1,1-1h63.4c0.6,0,1,0.5,1,1v27.5  C199.4,337.7,199,338.2,198.4,338.2z"/>
<circle style="fill:#324A5E;" cx="166.7" cy="362.7" r="12.9"/>
<path style="fill:#2B3B4E;" d="M183.3,407.8l-68.4-51.7c-1.4-1-1.6-3-0.6-4.3l173.3-229.2c1-1.4,3-1.6,4.3-0.6l68.4,51.7  c1.4,1,1.6,3,0.6,4.3L187.6,407.2C186.6,408.6,184.7,408.9,183.3,407.8z"/>
<path style="fill:#F9B54C;" d="M325.1,201.8l-50.6-38.2c-0.4-0.3-0.5-1-0.2-1.4l16.6-21.9c0.3-0.4,1-0.5,1.4-0.2l50.6,38.2  c0.4,0.3,0.5,1,0.2,1.4l-16.6,21.9C326.2,202.1,325.5,202.2,325.1,201.8z"/>
<path style="fill:#84DBFF;" d="M294.8,241.9l-50.6-38.2c-0.4-0.3-0.5-1-0.2-1.4l16.6-21.9c0.3-0.4,1-0.5,1.4-0.2l50.6,38.2  c0.4,0.3,0.5,1,0.2,1.4l-16.6,21.9C295.9,242.2,295.2,242.2,294.8,241.9z"/>
<path style="fill:#4CDBC4;" d="M264.5,282l-50.6-38.2c-0.4-0.3-0.5-1-0.2-1.4l16.6-21.9c0.3-0.4,1-0.5,1.4-0.2l50.6,38.2  c0.4,0.3,0.5,1,0.2,1.4l-16.6,21.9C265.5,282.2,264.9,282.3,264.5,282z"/>
<path style="fill:#FF7058;" d="M234.2,322.1l-50.6-38.2c-0.4-0.3-0.5-1-0.2-1.4l16.6-21.9c0.3-0.4,1-0.5,1.4-0.2l50.6,38.2  c0.4,0.3,0.5,1,0.2,1.4l-16.6,21.9C235.2,322.3,234.6,322.4,234.2,322.1z"/>
<path style="fill:#CED5E0;" d="M203.8,362.2L153.2,324c-0.4-0.3-0.5-1-0.2-1.4l16.6-21.9c0.3-0.4,1-0.5,1.4-0.2l50.6,38.2  c0.4,0.3,0.5,1,0.2,1.4L205.3,362C204.9,362.4,204.3,362.5,203.8,362.2z"/>
<circle style="fill:#324A5E;" cx="163.8" cy="362.6" r="12.9"/>
<path style="fill:#FFFFFF;" d="M153.8,410.4L130.2,328c-0.5-1.6,0.5-3.4,2.1-3.8L408.5,245c1.6-0.5,3.4,0.5,3.8,2.1l23.6,82.4  c0.5,1.6-0.5,3.4-2.1,3.8l-276.2,79.1C156,413,154.3,412,153.8,410.4z"/>
<path style="fill:#4CDBC4;" d="M390.9,330.8l-17.5-60.9c-0.2-0.5,0.2-1.1,0.7-1.3l26.4-7.6c0.5-0.2,1.1,0.2,1.3,0.7l17.5,60.9  c0.2,0.5-0.2,1.1-0.7,1.3l-26.4,7.6C391.6,331.7,391,331.4,390.9,330.8z"/>
<path style="fill:#324A5E;" d="M342.6,344.7l-17.5-60.9c-0.2-0.5,0.2-1.1,0.7-1.3l26.4-7.6c0.5-0.2,1.1,0.2,1.3,0.7l17.5,60.9  c0.2,0.5-0.2,1.1-0.7,1.3l-26.4,7.6C343.3,345.5,342.7,345.2,342.6,344.7z"/>
<path style="fill:#54C0EB;" d="M294.3,358.5l-17.5-60.9c-0.2-0.5,0.2-1.1,0.7-1.3l26.4-7.6c0.5-0.2,1.1,0.2,1.3,0.7l17.5,60.9  c0.2,0.5-0.2,1.1-0.7,1.3l-26.4,7.6C295,359.4,294.4,359.1,294.3,358.5z"/>
<path style="fill:#F9B54C;" d="M246,372.4l-17.5-60.9c-0.2-0.5,0.2-1.1,0.7-1.3l26.4-7.6c0.5-0.2,1.1,0.2,1.3,0.7l17.5,60.9  c0.2,0.5-0.2,1.1-0.7,1.3l-26.4,7.6C246.7,373.2,246.1,372.9,246,372.4z"/>
<path style="fill:#FF7058;" d="M197.6,386.2l-17.5-60.9c-0.2-0.5,0.2-1.1,0.7-1.3l26.4-7.6c0.5-0.2,1.1,0.2,1.3,0.7L226,378  c0.2,0.5-0.2,1.1-0.7,1.3l-26.4,7.6C198.4,387.1,197.8,386.7,197.6,386.2z"/>
<circle style="fill:#324A5E;" cx="165.4" cy="362.5" r="12.9"/>
<g>
</g>
<g>
</g>
<g>
</g>
<g>
</g>
<g>
</g>
<g>
</g>
<g>
</g>
<g>
</g>
<g>
</g>
<g>
</g>
<g>
</g>
<g>
</g>
<g>
</g>
<g>
</g>
<g>
</g>
</svg>
