<?xml version="1.0" encoding="iso-8859-1"?>
<!-- Generator: Adobe Illustrator 19.0.0, SVG Export Plug-In . SVG Version: 6.00 Build 0)  -->
<svg xmlns="http://www.w3.org/2000/svg" xmlns:xlink="http://www.w3.org/1999/xlink" version="1.1" id="Layer_1" x="0px" y="0px" viewBox="0 0 504 504" style="enable-background:new 0 0 504 504;" xml:space="preserve">
<circle style="fill:#324A5E;" cx="252" cy="252" r="252"/>
<polygon style="fill:#FFFFFF;" points="294.5,94.5 125.9,94.5 125.9,409.5 378.1,409.5 378.1,176.6 "/>
<polygon style="fill:#ACB3BA;" points="294.5,176.6 378.1,176.6 294.5,94.5 "/>
<rect x="148.4" y="188.8" style="fill:#F1543F;" width="207.3" height="39.4"/>
<rect x="148.4" y="242.9" style="fill:#84DBFF;" width="94.6" height="39.4"/>
<rect x="261.1" y="242.9" style="fill:#ACB3BA;" width="94.6" height="39.4"/>
<rect x="148.4" y="113" style="fill:#2C9984;" width="51.7" height="51.7"/>
<rect x="214.6" y="113" style="fill:#4CDBC4;" width="65.7" height="10"/>
<rect x="214.6" y="133.8" style="fill:#54C0EB;" width="65.7" height="10"/>
<rect x="214.6" y="154.6" style="fill:#FFD05B;" width="65.7" height="10"/>
<g>
	<rect x="148.4" y="293.3" style="fill:#ACB3BA;" width="94.6" height="12.9"/>
	<rect x="261.1" y="293.3" style="fill:#ACB3BA;" width="94.6" height="12.9"/>
</g>
<rect x="148.4" y="343.1" style="fill:#84DBFF;" width="67.1" height="14"/>
<rect x="229.8" y="343.1" style="fill:#54C0EB;" width="13.2" height="14"/>
<rect x="290" y="343.1" style="fill:#FFD05B;" width="65.6" height="14"/>
<rect x="261.1" y="343.1" style="fill:#F9B54C;" width="13.2" height="14"/>
<rect x="290" y="317.7" style="fill:#84DBFF;" width="65.6" height="14"/>
<rect x="261.1" y="317.7" style="fill:#54C0EB;" width="13.2" height="14"/>
<rect x="148.4" y="317.7" style="fill:#FFD05B;" width="67.1" height="14"/>
<rect x="229.8" y="317.7" style="fill:#F9B54C;" width="13.2" height="14"/>
<rect x="148.4" y="367.9" style="fill:#324A5E;" width="207.3" height="23.1"/>
<g>
</g>
<g>
</g>
<g>
</g>
<g>
</g>
<g>
</g>
<g>
</g>
<g>
</g>
<g>
</g>
<g>
</g>
<g>
</g>
<g>
</g>
<g>
</g>
<g>
</g>
<g>
</g>
<g>
</g>
</svg>
