<?xml version="1.0" encoding="iso-8859-1"?>
<!-- Generator: Adobe Illustrator 19.0.0, SVG Export Plug-In . SVG Version: 6.00 Build 0)  -->
<svg xmlns="http://www.w3.org/2000/svg" xmlns:xlink="http://www.w3.org/1999/xlink" version="1.1" id="Layer_1" x="0px" y="0px" viewBox="0 0 504 504" style="enable-background:new 0 0 504 504;" xml:space="preserve">
<circle style="fill:#FD8469;" cx="252" cy="252" r="252"/>
<path style="fill:#324A5E;" d="M347.3,191.2h-47.7v47.7h14.6v31.9l-54.9,37.7v-164h20.4l-29.7-50l-29.6,49.9h20.4V273l-50.9-37.7  v-25.9c8.6-3.6,14.6-12.1,14.6-22c0-13.2-10.7-23.8-23.8-23.8c-13.2,0-23.8,10.7-23.8,23.8c0,9.9,6,18.3,14.6,22v33.7l69.5,55.6  v58.4c-10.3,3.8-17.8,13.6-17.8,25.3c0,14.9,12.1,27,27,27c14.9,0,27-12.1,27-27c0-11.7-7.4-21.5-17.8-25.3v-22.9l73.4-55.6v-39.8  h14.6v-47.6H347.3z"/>
<g>
</g>
<g>
</g>
<g>
</g>
<g>
</g>
<g>
</g>
<g>
</g>
<g>
</g>
<g>
</g>
<g>
</g>
<g>
</g>
<g>
</g>
<g>
</g>
<g>
</g>
<g>
</g>
<g>
</g>
</svg>
