<?xml version="1.0" encoding="iso-8859-1"?>
<!-- Generator: Adobe Illustrator 19.0.0, SVG Export Plug-In . SVG Version: 6.00 Build 0)  -->
<svg xmlns="http://www.w3.org/2000/svg" xmlns:xlink="http://www.w3.org/1999/xlink" version="1.1" id="Layer_1" x="0px" y="0px" viewBox="0 0 504 504" style="enable-background:new 0 0 504 504;" xml:space="preserve">
<circle style="fill:#324A5E;" cx="252" cy="252" r="252"/>
<path style="fill:#2C9984;" d="M286.5,338.5l60.2,60.2c14.4,14.4,37.7,14.4,52.1,0s14.4-37.7,0-52.1l-60.2-60.2L286.5,338.5z"/>
<path style="fill:#4CDBC4;" d="M297.2,261.6c26.1-42.2,20.9-98.4-15.7-135c-42.8-42.8-112.1-42.8-154.9,0s-42.8,112.1,0,154.9  c36.6,36.6,92.8,41.9,135,15.7l33.1,33.1l35.6-35.6L297.2,261.6z"/>
<g>
	<circle style="fill:#FFFFFF;" cx="204" cy="204" r="86.1"/>
	<circle style="fill:#FFFFFF;" cx="204" cy="204" r="86.1"/>
</g>
<polygon style="fill:#FF7058;" points="157.5,254.9 146,251.9 157.9,206.1 193.6,223.4 202.1,179.5 246.6,193.6 250.3,153.9   262,155.1 256.9,209.3 211.1,194.8 202.3,240.7 165.7,223 "/>
<g>
	<circle style="fill:#F1543F;" cx="161.6" cy="214.2" r="14"/>
	<circle style="fill:#F1543F;" cx="205" cy="186.1" r="14"/>
	<circle style="fill:#F1543F;" cx="197.9" cy="232" r="14"/>
	<circle style="fill:#F1543F;" cx="251.2" cy="200.1" r="14"/>
</g>
<rect x="333.6" y="323.878" transform="matrix(-0.7071 0.7071 -0.7071 -0.7071 835.9116 380.5085)" style="fill:#FFFFFF;" width="11.1" height="78.999"/>
<g>
</g>
<g>
</g>
<g>
</g>
<g>
</g>
<g>
</g>
<g>
</g>
<g>
</g>
<g>
</g>
<g>
</g>
<g>
</g>
<g>
</g>
<g>
</g>
<g>
</g>
<g>
</g>
<g>
</g>
</svg>
