<?xml version="1.0" encoding="iso-8859-1"?>
<!-- Generator: Adobe Illustrator 19.0.0, SVG Export Plug-In . SVG Version: 6.00 Build 0)  -->
<svg xmlns="http://www.w3.org/2000/svg" xmlns:xlink="http://www.w3.org/1999/xlink" version="1.1" id="Layer_1" x="0px" y="0px" viewBox="0 0 504 504" style="enable-background:new 0 0 504 504;" xml:space="preserve">
<circle style="fill:#90DFAA;" cx="252" cy="252" r="252"/>
<path style="fill:#324A5E;" d="M429.2,286.9v-69.8h-35.3c-3.6-14.6-9.3-28.3-16.9-40.8l25-25L352.6,102l-25,25  c-12.5-7.6-26.2-13.3-40.8-16.9V74.8H217v35.3c-14.6,3.6-28.3,9.3-40.8,16.9l-25-25L102,151.4l25,25c-7.6,12.5-13.3,26.2-16.9,40.8  H74.8V287h35.3c3.6,14.6,9.3,28.3,16.9,40.8l-25,25l49.3,49.3l25-25c12.5,7.6,26.2,13.3,40.8,16.9v35.3h69.8V394  c14.6-3.6,28.3-9.3,40.8-16.9l25,25l49.3-49.3l-25-25c7.6-12.5,13.3-26.2,16.9-40.8h35.3V286.9z"/>
<path style="fill:#FFFFFF;" d="M252,361c-14.5,0-28.3-2.9-41-8c-25.4-10.3-46-29.9-57.7-54.6c-6.6-14.1-10.4-29.8-10.4-46.4  c0-60.2,48.8-109,109-109s109,48.8,109,109C361,312.2,312.2,361,252,361z"/>
<path style="fill:#E6E9EE;" d="M252,323.1c-9.5,0-18.5-1.9-26.7-5.2c-16.6-6.7-30-19.5-37.6-35.6c-4.3-9.2-6.8-19.5-6.8-30.3  c0-39.3,31.8-71.1,71.1-71.1s71.1,31.8,71.1,71.1S291.3,323.1,252,323.1z"/>
<g>
	<path style="fill:#FFFFFF;" d="M321,321L321,321L321,321z"/>
	<path style="fill:#FFFFFF;" d="M321,183L321,183L321,183z"/>
</g>
<g>
	<path style="fill:#324A5E;" d="M253.8,173v-18.1c-0.6-0.2-1.2-0.4-1.8-0.4c-0.6,0-1.2,0.2-1.8,0.4V173H253.8z"/>
	<path style="fill:#324A5E;" d="M250.2,331v18.1c0.6,0.2,1.2,0.4,1.8,0.4s1.2-0.2,1.8-0.4V331H250.2z"/>
	<path style="fill:#324A5E;" d="M331,253.8h18.1c0.2-0.6,0.4-1.2,0.4-1.8c0-0.6-0.2-1.2-0.4-1.8H331V253.8z"/>
	<path style="fill:#324A5E;" d="M173,250.2h-18.1c-0.2,0.6-0.4,1.2-0.4,1.8s0.2,1.2,0.4,1.8H173V250.2z"/>
	<path style="fill:#324A5E;" d="M309.1,197.4l12.8-12.8c-0.3-0.5-0.6-1.1-1-1.5s-1-0.7-1.5-1l-12.8,12.8L309.1,197.4z"/>
	<path style="fill:#324A5E;" d="M194.9,306.6L182,319.5c0.3,0.5,0.6,1.1,1,1.5s1,0.7,1.5,1l12.8-12.8L194.9,306.6z"/>
	<path style="fill:#324A5E;" d="M306.6,309.1l12.8,12.8c0.5-0.3,1.1-0.6,1.5-1s0.7-1,1-1.5l-12.8-12.8L306.6,309.1z"/>
	<path style="fill:#324A5E;" d="M197.4,194.9L184.5,182c-0.5,0.3-1.1,0.6-1.5,1s-0.7,1-1,1.5l12.8,12.8L197.4,194.9z"/>
	<path style="fill:#324A5E;" d="M285.4,180.3l7.3-16.6c-0.5-0.4-0.9-0.8-1.5-1c-0.5-0.2-1.2-0.3-1.8-0.4l-7.3,16.6L285.4,180.3z"/>
	<path style="fill:#324A5E;" d="M218.6,323.7l-7.3,16.6c0.5,0.4,0.9,0.8,1.5,1c0.5,0.2,1.2,0.3,1.8,0.4l7.3-16.6L218.6,323.7z"/>
	<path style="fill:#324A5E;" d="M323.7,285.4l16.6,7.3c0.4-0.5,0.8-0.9,1-1.5c0.2-0.5,0.3-1.2,0.4-1.8l-16.6-7.3L323.7,285.4z"/>
	<path style="fill:#324A5E;" d="M180.3,218.6l-16.6-7.3c-0.4,0.5-0.8,0.9-1,1.5c-0.2,0.5-0.3,1.2-0.4,1.8l16.6,7.3L180.3,218.6z"/>
	<path style="fill:#324A5E;" d="M326.3,225l16.9-6.6c-0.1-0.6-0.1-1.2-0.3-1.8c-0.2-0.6-0.6-1-1-1.5l-16.9,6.6L326.3,225z"/>
	<path style="fill:#324A5E;" d="M177.7,279l-16.9,6.6c0.1,0.6,0.1,1.2,0.3,1.8c0.2,0.6,0.6,1,1,1.5l16.9-6.6L177.7,279z"/>
	<path style="fill:#324A5E;" d="M279,326.3l6.6,16.9c0.6-0.1,1.2-0.1,1.8-0.3c0.6-0.2,1-0.6,1.5-1l-6.6-16.9L279,326.3z"/>
	<path style="fill:#324A5E;" d="M225,177.7l-6.6-16.9c-0.6,0.1-1.2,0.1-1.8,0.3s-1,0.6-1.5,1l6.6,16.9L225,177.7z"/>
</g>
<path style="fill:#F1543F;" d="M260.7,235.4l-4.4-47.1c-0.2-2.2-2.1-4-4.3-4c-2.3,0-4.1,1.7-4.3,4l-4.4,47.1  c-6,3.2-10.1,9.3-10.1,16.6c0,10.4,8.4,18.8,18.8,18.8c10.4,0,18.8-8.4,18.8-18.8C270.8,244.8,266.7,238.6,260.7,235.4z"/>
<g>
</g>
<g>
</g>
<g>
</g>
<g>
</g>
<g>
</g>
<g>
</g>
<g>
</g>
<g>
</g>
<g>
</g>
<g>
</g>
<g>
</g>
<g>
</g>
<g>
</g>
<g>
</g>
<g>
</g>
</svg>
