<?xml version="1.0" encoding="iso-8859-1"?>
<!-- Generator: Adobe Illustrator 19.0.0, SVG Export Plug-In . SVG Version: 6.00 Build 0)  -->
<svg xmlns="http://www.w3.org/2000/svg" xmlns:xlink="http://www.w3.org/1999/xlink" version="1.1" id="Layer_1" x="0px" y="0px" viewBox="0 0 504 504" style="enable-background:new 0 0 504 504;" xml:space="preserve">
<circle style="fill:#FD8469;" cx="252" cy="252" r="252"/>
<path style="fill:#FFFFFF;" d="M108.6,389.8h286.8c11.9,0,18.4-13.5,10.8-22.5L284.4,225V99.9h5.2V74.8h-75.2v25.1h5.2V225  L97.8,367.4C90.2,376.3,96.7,389.8,108.6,389.8z"/>
<path style="fill:#2C9984;" d="M296.9,270.8H207L128.1,363c-1.2,1.4-1.4,2.9-0.6,4.5c0.8,1.6,2.1,2.4,3.9,2.4h241.1  c1.8,0,3.1-0.8,3.9-2.4s0.6-3.1-0.6-4.5L296.9,270.8z"/>
<g>
	<rect x="219.6" y="107.4" style="fill:#CED5E0;" width="26.5" height="6.1"/>
	<rect x="219.6" y="127.4" style="fill:#CED5E0;" width="17.8" height="6.1"/>
	<rect x="219.6" y="147.4" style="fill:#CED5E0;" width="26.5" height="6.1"/>
	<rect x="219.6" y="167.4" style="fill:#CED5E0;" width="17.8" height="6.1"/>
	<rect x="219.6" y="187.4" style="fill:#CED5E0;" width="26.5" height="6.1"/>
	<rect x="219.6" y="207.4" style="fill:#CED5E0;" width="17.8" height="6.1"/>
</g>
<circle style="fill:#FFFFFF;" cx="201.6" cy="323.6" r="13.1"/>
<circle style="fill:#2C9984;" cx="266.9" cy="165.1" r="11.8"/>
<circle style="fill:#F1543F;" cx="261.2" cy="219.3" r="6.1"/>
<g>
	<circle style="fill:#FFFFFF;" cx="296.5" cy="336.7" r="9.3"/>
	<circle style="fill:#FFFFFF;" cx="261.3" cy="295.4" r="9.3"/>
</g>
<circle style="fill:#FFD05B;" cx="233.1" cy="243.9" r="8.9"/>
<g>
</g>
<g>
</g>
<g>
</g>
<g>
</g>
<g>
</g>
<g>
</g>
<g>
</g>
<g>
</g>
<g>
</g>
<g>
</g>
<g>
</g>
<g>
</g>
<g>
</g>
<g>
</g>
<g>
</g>
</svg>
