<?xml version="1.0" encoding="iso-8859-1"?>
<!-- Generator: Adobe Illustrator 19.0.0, SVG Export Plug-In . SVG Version: 6.00 Build 0)  -->
<svg xmlns="http://www.w3.org/2000/svg" xmlns:xlink="http://www.w3.org/1999/xlink" version="1.1" id="Layer_1" x="0px" y="0px" viewBox="0 0 504 504" style="enable-background:new 0 0 504 504;" xml:space="preserve">
<circle style="fill:#84DBFF;" cx="252" cy="252" r="252"/>
<rect x="111.3" y="128.6" style="fill:#FFFFFF;" width="281.5" height="182.6"/>
<g>
	<rect x="94.5" y="102.4" style="fill:#324A5E;" width="315" height="26.2"/>
	<rect x="94.5" y="311.2" style="fill:#324A5E;" width="315" height="26.2"/>
</g>
<g>
	<polygon style="fill:#2B3B4E;" points="168.3,397.4 168.3,337.3 141.7,337.3 141.7,397.4 125.4,397.4 125.4,417.4 184.5,417.4    184.5,397.4  "/>
	<polygon style="fill:#2B3B4E;" points="362.4,397.4 362.4,337.3 335.8,337.3 335.8,397.4 319.5,397.4 319.5,417.4 378.6,417.4    378.6,397.4  "/>
</g>
<rect x="353.8" y="143.4" style="fill:#F1543F;" width="29.7" height="152.8"/>
<rect x="317.7" y="174.9" style="fill:#54C0EB;" width="29.7" height="121.3"/>
<rect x="281.6" y="206.4" style="fill:#F9B54C;" width="29.7" height="89.8"/>
<rect x="245.5" y="237.9" style="fill:#2C9984;" width="29.7" height="58.3"/>
<path style="fill:#ACB3BA;" d="M179.6,237.2h46.9c-2.7-24.6-22.3-44.2-46.9-46.9V237.2z"/>
<path style="fill:#FFD05B;" d="M179.6,249v46.9c24.6-2.7,44.2-22.3,46.9-46.9H179.6z"/>
<g>
	<path style="fill:#FF7058;" d="M167.8,190.3c-26.6,2.9-47.3,25.5-47.3,52.8s20.7,49.9,47.3,52.8V190.3z"/>
	<rect x="187.5" y="140.5" style="fill:#FF7058;" width="129" height="13.6"/>
</g>
<rect x="218.9" y="164.5" style="fill:#324A5E;" width="66.1" height="13.6"/>
<g>
</g>
<g>
</g>
<g>
</g>
<g>
</g>
<g>
</g>
<g>
</g>
<g>
</g>
<g>
</g>
<g>
</g>
<g>
</g>
<g>
</g>
<g>
</g>
<g>
</g>
<g>
</g>
<g>
</g>
</svg>
