<?xml version="1.0" encoding="iso-8859-1"?>
<!-- Generator: Adobe Illustrator 19.0.0, SVG Export Plug-In . SVG Version: 6.00 Build 0)  -->
<svg xmlns="http://www.w3.org/2000/svg" xmlns:xlink="http://www.w3.org/1999/xlink" version="1.1" id="Layer_1" x="0px" y="0px" viewBox="0 0 504 504" style="enable-background:new 0 0 504 504;" xml:space="preserve">
<circle style="fill:#FFD05B;" cx="252" cy="252" r="252"/>
<rect x="98.4" y="106.3" style="fill:#324A5E;" width="259" height="249.4"/>
<g>
	<rect x="122.3" y="163.8" style="fill:#FFFFFF;" width="211.3" height="168"/>
	<rect x="122.3" y="126.7" style="fill:#FFFFFF;" width="28.1" height="16.7"/>
</g>
<rect x="191.2" y="178.9" style="fill:#54C0EB;" width="123.4" height="16.7"/>
<g>
	<rect x="141.3" y="178.9" style="fill:#FFD05B;" width="28.8" height="16.7"/>
	<rect x="191.2" y="219.3" style="fill:#FFD05B;" width="123.4" height="16.7"/>
</g>
<rect x="141.3" y="219.3" style="fill:#FF7058;" width="28.8" height="16.7"/>
<rect x="191.2" y="259.6" style="fill:#ACB3BA;" width="123.4" height="16.7"/>
<rect x="141.3" y="259.6" style="fill:#2B3B4E;" width="28.8" height="16.7"/>
<rect x="191.2" y="300" style="fill:#2C9984;" width="123.4" height="16.7"/>
<rect x="141.3" y="300" style="fill:#4CDBC4;" width="28.8" height="16.7"/>
<rect x="168.7" y="126.7" style="fill:#F9B54C;" width="28.1" height="16.7"/>
<rect x="215.2" y="126.7" style="fill:#54C0EB;" width="28.1" height="16.7"/>
<path style="fill:#FF7058;" d="M413.4,335v-69.6c-47.9-1.7-69-29.3-69-29.3s-21.1,27.6-69,29.3V335c0,0-5.1,60.4,69,86.3  C418.5,395.4,413.4,335,413.4,335z"/>
<path style="fill:#F1543F;" d="M352.9,322.8h44.7v-43.1c-19.3-2.9-34.1-9.5-44.7-16.2V322.8z"/>
<path style="fill:#E6E9EE;" d="M335.9,322.8v-59.2c-10.6,6.7-25.4,13.3-44.7,16.2v43.1h44.7V322.8z"/>
<path style="fill:#F1543F;" d="M335.9,339.9h-44.7c0.5,10.7,5.6,41.6,44.7,60.8V339.9z"/>
<path style="fill:#E6E9EE;" d="M352.9,339.9v60.8c39.2-19.3,44.2-50.3,44.7-60.8H352.9z"/>
<g>
</g>
<g>
</g>
<g>
</g>
<g>
</g>
<g>
</g>
<g>
</g>
<g>
</g>
<g>
</g>
<g>
</g>
<g>
</g>
<g>
</g>
<g>
</g>
<g>
</g>
<g>
</g>
<g>
</g>
</svg>
