<?xml version="1.0" encoding="iso-8859-1"?>
<!-- Generator: Adobe Illustrator 19.0.0, SVG Export Plug-In . SVG Version: 6.00 Build 0)  -->
<svg version="1.1" id="Layer_1" xmlns="http://www.w3.org/2000/svg" xmlns:xlink="http://www.w3.org/1999/xlink" x="0px" y="0px"
	 viewBox="0 0 508 508" style="enable-background:new 0 0 508 508;" xml:space="preserve">
<circle style="fill:#FFD05B;" cx="254" cy="254" r="254"/>
<g>
	<path style="fill:#4CDBC4;" d="M146.4,104.8c-10.4,0-18.4,8.4-18.4,18.4V348h37.2V123.2C165.2,112.8,156.8,104.8,146.4,104.8z"/>
	<path style="fill:#4CDBC4;" d="M361.6,104.8c-10.4,0-18.4,8.4-18.4,18.4V348h37.2V123.2C380,112.8,371.6,104.8,361.6,104.8z"/>
</g>
<g>
	<rect x="103.2" y="348" style="fill:#324A5E;" width="301.6" height="31.6"/>
	<rect x="165.2" y="147.6" style="fill:#324A5E;" width="178" height="10"/>
	<rect x="165.2" y="218.4" style="fill:#324A5E;" width="178" height="10"/>
	<rect x="165.2" y="289.6" style="fill:#324A5E;" width="178" height="10"/>
</g>
<path style="fill:#FFFFFF;" d="M212.8,123.2c-8,0-14.4,6.4-14.4,14.4v30c0,8,6.4,14.4,14.4,14.4s14.4-6.4,14.4-14.4v-30
	C227.2,129.6,220.8,123.2,212.8,123.2z"/>
<path style="fill:#FF7058;" d="M260.8,123.2c-8,0-14.4,6.4-14.4,14.4v30c0,8,6.4,14.4,14.4,14.4s14.4-6.4,14.4-14.4v-30
	C275.2,129.6,268.8,123.2,260.8,123.2z"/>
<g>
	<path style="fill:#324A5E;" d="M309.2,123.2c-8,0-14.4,6.4-14.4,14.4v30c0,8,6.4,14.4,14.4,14.4s14.4-6.4,14.4-14.4v-30
		C323.2,129.6,316.8,123.2,309.2,123.2z"/>
	<path style="fill:#324A5E;" d="M232.4,194c-8,0-14.4,6.4-14.4,14.4v30c0,8,6.4,14.4,14.4,14.4s14.4-6.4,14.4-14.4v-30
		C246.8,200.4,240.4,194,232.4,194z"/>
</g>
<path style="fill:#FF7058;" d="M313.6,265.2c-8,0-14.4,6.4-14.4,14.4v30c0,8,6.4,14.4,14.4,14.4s14.4-6.4,14.4-14.4v-30
	C327.6,271.6,321.2,265.2,313.6,265.2z"/>
<path style="fill:#FFFFFF;" d="M266,265.2c-8,0-14.4,6.4-14.4,14.4v30c0,8,6.4,14.4,14.4,14.4s14.4-6.4,14.4-14.4v-30
	C280,271.6,273.6,265.2,266,265.2z"/>
<g>
</g>
<g>
</g>
<g>
</g>
<g>
</g>
<g>
</g>
<g>
</g>
<g>
</g>
<g>
</g>
<g>
</g>
<g>
</g>
<g>
</g>
<g>
</g>
<g>
</g>
<g>
</g>
<g>
</g>
</svg>
