<?xml version="1.0" encoding="iso-8859-1"?>
<!-- Generator: Adobe Illustrator 19.0.0, SVG Export Plug-In . SVG Version: 6.00 Build 0)  -->
<svg version="1.1" id="Layer_1" xmlns="http://www.w3.org/2000/svg" xmlns:xlink="http://www.w3.org/1999/xlink" x="0px" y="0px"
	 viewBox="0 0 508 508" style="enable-background:new 0 0 508 508;" xml:space="preserve">
<circle style="fill:#90DFAA;" cx="254" cy="254" r="254"/>
<path style="fill:#FF7058;" d="M376.4,335.2l-245.2,31.6l10-225.2c0.8-22.4,19.6-40,42-40h181.6L376.4,335.2z"/>
<path style="fill:#F1543F;" d="M376.4,398.4H162.8c-17.6,0-31.6-14-31.6-31.6l0,0c0-17.6,14-31.6,31.6-31.6h213.6L376.4,398.4
	L376.4,398.4z"/>
<path style="fill:#E6E9EE;" d="M162.8,382.4c-8.8,0-15.6-7.2-15.6-15.6c0-8.8,7.2-15.6,15.6-15.6h213.6v31.2H162.8z"/>
<polygon style="fill:#324A5E;" points="316.4,197.2 292,173.6 268,197.2 268.8,101.6 313.6,101.6 "/>
<g>
</g>
<g>
</g>
<g>
</g>
<g>
</g>
<g>
</g>
<g>
</g>
<g>
</g>
<g>
</g>
<g>
</g>
<g>
</g>
<g>
</g>
<g>
</g>
<g>
</g>
<g>
</g>
<g>
</g>
</svg>
