<?xml version="1.0" encoding="iso-8859-1"?>
<!-- Generator: Adobe Illustrator 19.0.0, SVG Export Plug-In . SVG Version: 6.00 Build 0)  -->
<svg version="1.1" id="Layer_1" xmlns="http://www.w3.org/2000/svg" xmlns:xlink="http://www.w3.org/1999/xlink" x="0px" y="0px"
	 viewBox="0 0 508 508" style="enable-background:new 0 0 508 508;" xml:space="preserve">
<circle style="fill:#FFD05B;" cx="254" cy="254" r="254"/>
<path style="fill:#FF7058;" d="M366.4,104.8H139.2c-2.8,0-5.2,2.4-5.2,5.2v288c0,2.8,2.4,5.2,5.2,5.2h227.2c2.8,0,5.2-2.4,5.2-5.2
	V110C371.6,106.8,369.2,104.8,366.4,104.8z"/>
<rect x="371.6" y="121.6" style="fill:#E6E9EE;" width="26.8" height="49.2"/>
<rect x="371.6" y="170.8" style="fill:#324A5E;" width="26.8" height="49.2"/>
<rect x="371.6" y="219.6" style="fill:#4CDBC4;" width="26.8" height="49.2"/>
<rect x="371.6" y="268.8" style="fill:#2B3B4E;" width="26.8" height="49.2"/>
<g>
	<path style="fill:#324A5E;" d="M149.6,152.8H118c-4.8,0-8.8,4-8.8,8.8v0.4c0,4.8,4,8.8,8.8,8.8h31.6c4.8,0,8.8-4,8.8-8.8v-0.8
		C158.4,156.4,154.4,152.8,149.6,152.8z"/>
	<path style="fill:#324A5E;" d="M149.6,244H118c-4.8,0-8.8,4-8.8,8.8v0.8c0,4.8,4,8.8,8.8,8.8h31.6c4.8,0,8.8-4,8.8-8.8v-0.8
		C158.4,247.6,154.4,244,149.6,244z"/>
	<path style="fill:#324A5E;" d="M149.6,335.2H118c-4.8,0-8.8,4-8.8,8.8v0.8c0,4.8,4,8.8,8.8,8.8h31.6c4.8,0,8.8-4,8.8-8.8V344
		C158.4,339.2,154.4,335.2,149.6,335.2z"/>
</g>
<g>
</g>
<g>
</g>
<g>
</g>
<g>
</g>
<g>
</g>
<g>
</g>
<g>
</g>
<g>
</g>
<g>
</g>
<g>
</g>
<g>
</g>
<g>
</g>
<g>
</g>
<g>
</g>
<g>
</g>
</svg>
