<?xml version="1.0" encoding="iso-8859-1"?>
<!-- Generator: Adobe Illustrator 19.0.0, SVG Export Plug-In . SVG Version: 6.00 Build 0)  -->
<svg version="1.1" id="Layer_1" xmlns="http://www.w3.org/2000/svg" xmlns:xlink="http://www.w3.org/1999/xlink" x="0px" y="0px"
	 viewBox="0 0 508 508" style="enable-background:new 0 0 508 508;" xml:space="preserve">
<circle style="fill:#FD8469;" cx="254" cy="254" r="254"/>
<path style="fill:#FFFFFF;" d="M372,110.4H136c-5.6,0-10,4.4-10,10v266.4c0,5.6,4.4,10,10,10h236c5.6,0,10-4.4,10-10v-266
	C382.4,115.2,377.6,110.4,372,110.4z"/>
<rect x="143.6" y="128.8" style="fill:#84DBFF;" width="128.4" height="107.6"/>
<g>
	<rect x="287.6" y="128.8" style="fill:#ACB3BA;" width="18" height="18"/>
	<rect x="316.8" y="128.8" style="fill:#ACB3BA;" width="18" height="18"/>
	<rect x="346.4" y="128.8" style="fill:#ACB3BA;" width="18" height="18"/>
	<rect x="287.6" y="158.8" style="fill:#ACB3BA;" width="18" height="18"/>
	<rect x="316.8" y="158.8" style="fill:#ACB3BA;" width="18" height="18"/>
	<rect x="346.4" y="158.8" style="fill:#ACB3BA;" width="18" height="18"/>
	<rect x="287.6" y="188.8" style="fill:#ACB3BA;" width="18" height="18"/>
	<rect x="316.8" y="188.8" style="fill:#ACB3BA;" width="18" height="18"/>
	<rect x="346.4" y="188.8" style="fill:#ACB3BA;" width="18" height="18"/>
	<rect x="287.6" y="218.8" style="fill:#ACB3BA;" width="18" height="18"/>
	<rect x="316.8" y="218.8" style="fill:#ACB3BA;" width="18" height="18"/>
	<rect x="346.4" y="218.8" style="fill:#ACB3BA;" width="18" height="18"/>
</g>
<circle style="fill:#2B3B4E;" cx="207.6" cy="275.2" r="13.2"/>
<path style="fill:#324A5E;" d="M244,279.6h-72.4c-2.4,0-4.8-2-4.8-4.8l0,0c0-2.4,2-4.8,4.8-4.8h72.8c2.4,0,4.8,2,4.8,4.8l0,0
	C248.8,277.6,246.8,279.6,244,279.6z"/>
<rect x="144" y="304.4" style="fill:#4CDBC4;" width="219.6" height="72"/>
<g>
	<path style="fill:#324A5E;" d="M223.6,357.2h-8l-2.4-7.6h-12l-2.4,7.6h-8l12-33.2h8.8L223.6,357.2z M211.2,344l-3.6-11.2
		c-0.4-0.8-0.4-2-0.4-2.8l0,0c0,0.8-0.4,2-0.4,2.8l-3.6,11.2H211.2z"/>
	<path style="fill:#324A5E;" d="M262.8,330h-9.6v27.2H246V330h-9.6v-6h26.4V330z"/>
	<path style="fill:#324A5E;" d="M317.2,357.2H310v-20c0-2,0-4.4,0.4-7.2l0,0c-0.4,2-0.8,3.6-1.2,4.4l-8,22.8h-6l-8-22.4
		c-0.4-0.8-0.8-2.4-1.2-4.8l0,0c0.4,3.2,0.4,6,0.4,8.8v18.4h-6.8V324h10.8l6.8,19.6c0.4,1.6,0.8,3.2,1.2,4.8l0,0
		c0.4-2,0.8-3.6,1.2-4.8l6.8-19.6h10.8L317.2,357.2L317.2,357.2z"/>
</g>
<g>
</g>
<g>
</g>
<g>
</g>
<g>
</g>
<g>
</g>
<g>
</g>
<g>
</g>
<g>
</g>
<g>
</g>
<g>
</g>
<g>
</g>
<g>
</g>
<g>
</g>
<g>
</g>
<g>
</g>
</svg>
