<?xml version="1.0" encoding="iso-8859-1"?>
<!-- Generator: Adobe Illustrator 19.0.0, SVG Export Plug-In . SVG Version: 6.00 Build 0)  -->
<svg version="1.1" id="Layer_1" xmlns="http://www.w3.org/2000/svg" xmlns:xlink="http://www.w3.org/1999/xlink" x="0px" y="0px"
	 viewBox="0 0 508 508" style="enable-background:new 0 0 508 508;" xml:space="preserve">
<circle style="fill:#324A5E;" cx="254" cy="254" r="254"/>
<path style="fill:#FF7058;" d="M398.4,134.4H109.6c-3.6,0-6.8,3.2-6.8,6.8v107.2c0,3.6,3.2,6.8,6.8,6.8h288.8c3.6,0,6.8-3.2,6.8-6.8
	V140.8C405.2,137.2,402,134.4,398.4,134.4z"/>
<rect x="136.4" y="175.6" style="fill:#F1543F;" width="235.2" height="37.6"/>
<rect x="169.6" y="175.6" style="fill:#FFFFFF;" width="168.4" height="206"/>
<path style="fill:#4CDBC4;" d="M193.6,175.6V334c13.2,0,24,10.8,24,24h73.2c0-13.2,10.8-24,24-24V175.6H193.6z"/>
<g>
	<ellipse style="fill:#2C9984;" cx="254" cy="227.6" rx="38.8" ry="23.6"/>
	<ellipse style="fill:#2C9984;" cx="254" cy="307.6" rx="16" ry="11.2"/>
</g>
<g>
</g>
<g>
</g>
<g>
</g>
<g>
</g>
<g>
</g>
<g>
</g>
<g>
</g>
<g>
</g>
<g>
</g>
<g>
</g>
<g>
</g>
<g>
</g>
<g>
</g>
<g>
</g>
<g>
</g>
</svg>
