<?xml version="1.0" encoding="iso-8859-1"?>
<!-- Generator: Adobe Illustrator 19.0.0, SVG Export Plug-In . SVG Version: 6.00 Build 0)  -->
<svg version="1.1" id="Layer_1" xmlns="http://www.w3.org/2000/svg" xmlns:xlink="http://www.w3.org/1999/xlink" x="0px" y="0px"
	 viewBox="0 0 508 508" style="enable-background:new 0 0 508 508;" xml:space="preserve">
<circle style="fill:#84DBFF;" cx="254" cy="254" r="254"/>
<g>
	<path style="fill:#324A5E;" d="M430.8,265.6l-68-138.4l-68.4,138.4c-0.8,2,0,4,1.6,5.2c2,0.8,4,0,5.2-1.6l57.6-116.8v114.8
		c0,2,1.6,4,4,4s4-1.6,4-4V152.4l57.6,116.8c0.8,1.2,2,2,3.6,2c0.4,0,1.2,0,1.6-0.4C431.2,269.6,432,267.6,430.8,265.6z"/>
	<path style="fill:#324A5E;" d="M213.6,265.6l-68.4-138.4l-68,138.4c-0.8,2,0,4,1.6,5.2c2,0.8,4,0,5.2-1.6l57.6-116.8v114.8
		c0,2,1.6,4,4,4s4-1.6,4-4V152.4l57.6,116.8c0.8,1.2,2,2,3.6,2c0.4,0,1.2,0,1.6-0.4C214,269.6,214.4,267.6,213.6,265.6z"/>
</g>
<path style="fill:#FF7058;" d="M76.4,266.8c0.8,37.2,31.2,67.2,68.8,67.2s68-30,68.8-67.2H76.4z"/>
<rect x="112.4" y="121.2" style="fill:#FFD05B;" width="280.4" height="20.4"/>
<path style="fill:#FF7058;" d="M293.6,266.8c0.8,37.2,31.6,67.2,69.2,67.2s68-30,68.8-67.2H293.6z"/>
<path style="fill:#FFD05B;" d="M264,416.4h-22.8v-304c0-9.2,2-18.4,6.4-26.4l5.2-10.4L258,86c4,8.4,6.4,17.2,6.4,26.4v304H264z"/>
<g>
	<rect x="189.6" y="391.6" style="fill:#324A5E;" width="126" height="24.8"/>
	<circle style="fill:#324A5E;" cx="252.4" cy="131.2" r="20"/>
</g>
<g>
</g>
<g>
</g>
<g>
</g>
<g>
</g>
<g>
</g>
<g>
</g>
<g>
</g>
<g>
</g>
<g>
</g>
<g>
</g>
<g>
</g>
<g>
</g>
<g>
</g>
<g>
</g>
<g>
</g>
</svg>
