<?xml version="1.0" encoding="iso-8859-1"?>
<!-- Generator: Adobe Illustrator 19.0.0, SVG Export Plug-In . SVG Version: 6.00 Build 0)  -->
<svg version="1.1" id="Layer_1" xmlns="http://www.w3.org/2000/svg" xmlns:xlink="http://www.w3.org/1999/xlink" x="0px" y="0px"
	 viewBox="0 0 508 508" style="enable-background:new 0 0 508 508;" xml:space="preserve">
<circle style="fill:#324A5E;" cx="254" cy="254" r="254"/>
<path style="fill:#FF7058;" d="M290.4,170.8c-7.6,0-15.2,1.6-22,4l9.2,18.8c4-1.2,8.4-2,12.8-2c22.8,0,41.6,18.4,41.6,41.6v43.2
	h20.8v-43.6C352.8,198.8,324.8,170.8,290.4,170.8z"/>
<circle style="fill:#E6E9EE;" cx="225.2" cy="157.2" r="87.6"/>
<circle style="fill:#FFFFFF;" cx="225.2" cy="157.2" r="68"/>
<path style="fill:#324A5E;" d="M228.4,188.8v9.6H222v-9.6c-6,0-11.6-1.6-17.2-4v-12.4c1.6,1.6,4.4,2.8,8,4s6.4,2,9.2,2V162
	c-7.2-2.8-12-5.6-14.4-8.4c-2.4-3.2-4-6.8-4-11.2c0-4.8,1.6-8.8,5.2-12c3.2-3.2,7.6-5.2,13.2-6V116h6.4v8.4
	c6.4,0.4,11.2,1.2,14.4,3.2v12c-4.4-2.4-8.8-4-14.4-4.8V152c6.4,2.4,11.2,5.2,14,8c2.8,3.2,4.4,6.8,4.4,11.2c0,4.8-1.6,9.2-4.8,12
	C238.8,186.4,234,188,228.4,188.8z M221.6,149.2v-14.4c-4,0.8-6.4,2.8-6.4,6.4C215.2,144.8,217.6,147.2,221.6,149.2z M228.4,164.8
	v13.6c4.4-0.8,6.4-2.8,6.4-6.4C234.8,168.8,232.4,166.4,228.4,164.8z"/>
<path style="fill:#4CDBC4;" d="M364.4,276H216.8c-3.2,0-6,2.8-6,6v118c0,3.2,2.8,6,6,6h147.6c3.2,0,6-2.8,6-6V282
	C370.4,278.8,368,276,364.4,276z"/>
<circle style="fill:#324A5E;" cx="266.8" cy="186.4" r="15.6"/>
<path style="fill:#FF7058;" d="M228.4,232.8V276h20.8v-43.2c0-14.8,8-28,19.6-35.2c4.8-2.8,6.4-8.4,4-13.6l0,0
	c-2.8-5.2-9.2-7.6-14.4-4.4C240.8,190.4,228.4,210.4,228.4,232.8z"/>
<path style="fill:#324A5E;" d="M304.8,330.8c0-8-6.4-14.4-14.4-14.4s-14.4,6.4-14.4,14.4c0,4.8,2.4,9.2,6,11.6l-3.6,23.6h24
	l-3.6-23.2C302.4,340,304.8,335.6,304.8,330.8z"/>
<g>
</g>
<g>
</g>
<g>
</g>
<g>
</g>
<g>
</g>
<g>
</g>
<g>
</g>
<g>
</g>
<g>
</g>
<g>
</g>
<g>
</g>
<g>
</g>
<g>
</g>
<g>
</g>
<g>
</g>
</svg>
