<?xml version="1.0" encoding="iso-8859-1"?>
<!-- Generator: Adobe Illustrator 19.0.0, SVG Export Plug-In . SVG Version: 6.00 Build 0)  -->
<svg version="1.1" id="Layer_1" xmlns="http://www.w3.org/2000/svg" xmlns:xlink="http://www.w3.org/1999/xlink" x="0px" y="0px"
	 viewBox="0 0 508 508" style="enable-background:new 0 0 508 508;" xml:space="preserve">
<circle style="fill:#FFD05B;" cx="254" cy="254" r="254"/>
<polygon style="fill:#FFFFFF;" points="412.4,249.2 95.6,249.2 126,140.4 382,140.4 "/>
<polygon style="fill:#324A5E;" points="332.4,209.2 175.6,209.2 180,180.4 328,180.4 "/>
<rect x="95.6" y="249.2" style="fill:#E6E9EE;" width="316.8" height="109.2"/>
<circle style="fill:#4CDBC4;" cx="254" cy="136.4" r="66"/>
<path style="fill:#2C9984;" d="M254,186c-27.6,0-50-22.4-50-50s22.4-49.6,50-49.6s50,22.4,50,50S281.6,186,254,186z"/>
<path style="fill:#4CDBC4;" d="M256.4,161.2v7.6h-5.2v-7.6c-4.8,0-9.2-1.2-13.6-3.2v-10c1.2,1.2,3.6,2,6,3.2s5.2,1.6,7.2,1.6V140
	c-5.6-2-9.2-4.4-11.2-6.8c-2-2.4-3.2-5.2-3.2-8.8c0-3.6,1.2-6.8,4-9.6c2.8-2.8,6-4,10.4-4.4v-6.8h5.2v6.4c5.2,0.4,8.8,1.2,11.2,2.4
	v9.6c-3.2-2-7.2-3.2-11.2-3.6V132c5.2,2,8.8,4,11.2,6.4c2.4,2.4,3.2,5.2,3.2,8.8c0,4-1.2,7.2-3.6,9.6
	C264.8,159.2,261.2,160.4,256.4,161.2z M251.2,130v-11.2c-3.2,0.4-4.8,2.4-4.8,5.2C246.4,126.4,248,128.4,251.2,130z M256.4,142
	v10.8c3.2-0.4,5.2-2.4,5.2-5.2C261.6,145.2,260,143.6,256.4,142z"/>
<g>
</g>
<g>
</g>
<g>
</g>
<g>
</g>
<g>
</g>
<g>
</g>
<g>
</g>
<g>
</g>
<g>
</g>
<g>
</g>
<g>
</g>
<g>
</g>
<g>
</g>
<g>
</g>
<g>
</g>
</svg>
