<?xml version="1.0" encoding="iso-8859-1"?>
<!-- Generator: Adobe Illustrator 19.0.0, SVG Export Plug-In . SVG Version: 6.00 Build 0)  -->
<svg version="1.1" id="Layer_1" xmlns="http://www.w3.org/2000/svg" xmlns:xlink="http://www.w3.org/1999/xlink" x="0px" y="0px"
	 viewBox="0 0 508 508" style="enable-background:new 0 0 508 508;" xml:space="preserve">
<circle style="fill:#84DBFF;" cx="254" cy="254" r="254"/>
<polygon style="fill:#324A5E;" points="140.8,363.2 140.8,318.8 164,318.8 164,303.6 140.8,303.6 140.8,271.2 164,271.2 164,256 
	140.8,256 140.8,223.2 164,223.2 164,208 140.8,208 140.8,175.6 164,175.6 164,160.4 140.8,160.4 140.8,122.8 126.8,122.8 
	126.8,377.2 381.2,377.2 381.2,363.2 "/>
<rect x="184.4" y="256" style="fill:#FF7058;" width="39.6" height="107.2"/>
<rect x="250.4" y="207.6" style="fill:#FFD05B;" width="39.6" height="155.6"/>
<rect x="316" y="161.2" style="fill:#324A5E;" width="39.6" height="202"/>
<g>
</g>
<g>
</g>
<g>
</g>
<g>
</g>
<g>
</g>
<g>
</g>
<g>
</g>
<g>
</g>
<g>
</g>
<g>
</g>
<g>
</g>
<g>
</g>
<g>
</g>
<g>
</g>
<g>
</g>
</svg>
