<?xml version="1.0" encoding="iso-8859-1"?>
<!-- Generator: Adobe Illustrator 19.0.0, SVG Export Plug-In . SVG Version: 6.00 Build 0)  -->
<svg version="1.1" id="Layer_1" xmlns="http://www.w3.org/2000/svg" xmlns:xlink="http://www.w3.org/1999/xlink" x="0px" y="0px"
	 viewBox="0 0 508 508" style="enable-background:new 0 0 508 508;" xml:space="preserve">
<circle style="fill:#FD8469;" cx="254" cy="254" r="254"/>
<rect x="150" y="174.4" style="fill:#84DBFF;" width="62.4" height="209.2"/>
<rect x="244" y="100.8" style="fill:#E6E9EE;" width="62.4" height="282.8"/>
<rect x="338.4" y="238.8" style="fill:#4CDBC4;" width="62.4" height="144.4"/>
<circle style="fill:#FFD05B;" cx="150" cy="316.8" r="66.8"/>
<path style="fill:#FFFFFF;" d="M150,367.6c-28,0-50.8-22.8-50.8-50.8c0-28,22.8-50.8,50.8-50.8s50.8,22.8,50.8,50.8
	S178,367.6,150,367.6z"/>
<path style="fill:#324A5E;" d="M152.8,343.2v8.4h-5.6v-8c-5.2,0-10-1.2-14.4-3.6v-10.4c1.6,1.2,3.6,2.4,6.4,3.2
	c2.8,1.2,5.6,1.6,7.6,1.6v-13.6c-6-2-10-4.4-12-7.2c-2-2.4-3.2-5.6-3.2-9.2c0-4,1.2-7.2,4-10s6.4-4.4,11.2-4.8v-7.2h5.6v6.8
	c5.2,0.4,9.2,1.2,12,2.4V302c-3.6-2-7.6-3.6-12-4v14.4c5.6,2,9.6,4.4,12,6.8s3.6,5.6,3.6,9.2c0,4-1.2,7.6-4,10
	C161.6,341.2,157.6,342.8,152.8,343.2z M147.2,310v-12c-3.6,0.8-5.2,2.4-5.2,5.6C142,306.4,143.6,308.4,147.2,310z M152.8,322.8
	v11.6c3.6-0.4,5.6-2.4,5.6-5.6C158,326.4,156.4,324.4,152.8,322.8z"/>
<g>
</g>
<g>
</g>
<g>
</g>
<g>
</g>
<g>
</g>
<g>
</g>
<g>
</g>
<g>
</g>
<g>
</g>
<g>
</g>
<g>
</g>
<g>
</g>
<g>
</g>
<g>
</g>
<g>
</g>
</svg>
