<?xml version="1.0" encoding="iso-8859-1"?>
<!-- Generator: Adobe Illustrator 19.0.0, SVG Export Plug-In . SVG Version: 6.00 Build 0)  -->
<svg version="1.1" id="Layer_1" xmlns="http://www.w3.org/2000/svg" xmlns:xlink="http://www.w3.org/1999/xlink" x="0px" y="0px"
	 viewBox="0 0 508 508" style="enable-background:new 0 0 508 508;" xml:space="preserve">
<circle style="fill:#FF7058;" cx="254" cy="254" r="254"/>
<path style="fill:#E6E9EE;" d="M358.8,100.4H149.2c-7.6,0-14,6.4-14,14v279.2c0,7.6,6.4,14,14,14h210c7.6,0,14-6.4,14-14V114.4
	C372.8,106.8,366.8,100.4,358.8,100.4z"/>
<rect x="161.2" y="126.8" style="fill:#324A5E;" width="182.8" height="61.2"/>
<rect x="304.8" y="211.2" style="fill:#FF7058;" width="39.6" height="39.6"/>
<g>
	<rect x="161.2" y="211.2" style="fill:#4CDBC4;" width="39.6" height="39.6"/>
	<rect x="233.2" y="211.2" style="fill:#4CDBC4;" width="39.6" height="39.6"/>
	<rect x="161.2" y="277.2" style="fill:#4CDBC4;" width="39.6" height="39.6"/>
	<rect x="233.2" y="277.2" style="fill:#4CDBC4;" width="39.6" height="39.6"/>
	<rect x="304.8" y="277.2" style="fill:#4CDBC4;" width="39.6" height="39.6"/>
	<rect x="161.2" y="343.2" style="fill:#4CDBC4;" width="39.6" height="39.6"/>
	<rect x="233.2" y="343.2" style="fill:#4CDBC4;" width="39.6" height="39.6"/>
	<rect x="304.8" y="343.2" style="fill:#4CDBC4;" width="39.6" height="39.6"/>
</g>
<g>
</g>
<g>
</g>
<g>
</g>
<g>
</g>
<g>
</g>
<g>
</g>
<g>
</g>
<g>
</g>
<g>
</g>
<g>
</g>
<g>
</g>
<g>
</g>
<g>
</g>
<g>
</g>
<g>
</g>
</svg>
