<?xml version="1.0" encoding="iso-8859-1"?>
<!-- Generator: Adobe Illustrator 19.0.0, SVG Export Plug-In . SVG Version: 6.00 Build 0)  -->
<svg version="1.1" id="Layer_1" xmlns="http://www.w3.org/2000/svg" xmlns:xlink="http://www.w3.org/1999/xlink" x="0px" y="0px"
	 viewBox="0 0 508 508" style="enable-background:new 0 0 508 508;" xml:space="preserve">
<circle style="fill:#FD8469;" cx="254" cy="254" r="254"/>
<path style="fill:#4CDBC4;" d="M385.2,121.6c0-6.8-5.6-12.4-12.4-12.4H135.2c-6.8,0-12.4,5.6-12.4,12.4v93.2h262.8v-93.2
	C385.6,121.6,385.2,121.6,385.2,121.6z"/>
<path style="fill:#FFFFFF;" d="M122.8,214.8v171.6c0,6.8,5.6,12.4,12.4,12.4h238c6.8,0,12.4-5.6,12.4-12.4V214.8H122.8z"/>
<rect x="150" y="134.8" style="fill:#324A5E;" width="208" height="54.4"/>
<g>
	<path style="fill:#FFD05B;" d="M238.4,316.8h-77.6c-3.6,0-6.8,3.2-6.8,6.8v42.8c0,3.6,3.2,6.8,6.8,6.8H238c3.6,0,6.8-3.2,6.8-6.8
		v-42.8C245.2,320,242,316.8,238.4,316.8z"/>
	<path style="fill:#FFD05B;" d="M347.2,242.8h-77.6c-3.6,0-6.8,3.2-6.8,6.8v42.8c0,3.6,3.2,6.8,6.8,6.8h77.2c3.6,0,6.8-3.2,6.8-6.8
		v-42.8C353.6,246,350.8,242.8,347.2,242.8z"/>
	<path style="fill:#FFD05B;" d="M238.4,242.8h-77.6c-3.6,0-6.8,3.2-6.8,6.8v42.8c0,3.6,3.2,6.8,6.8,6.8H238c3.6,0,6.8-3.2,6.8-6.8
		v-42.8C245.2,246,242,242.8,238.4,242.8z"/>
	<path style="fill:#FFD05B;" d="M347.2,316.8h-77.6c-3.6,0-6.8,3.2-6.8,6.8v42.8c0,3.6,3.2,6.8,6.8,6.8h77.2c3.6,0,6.8-3.2,6.8-6.8
		v-42.8C353.6,320,350.8,316.8,347.2,316.8z"/>
</g>
<g>
	<polygon style="fill:#324A5E;" points="216.4,265.6 205.2,265.6 205.2,254 194.4,254 194.4,265.6 182.8,265.6 182.8,276.4 
		194.4,276.4 194.4,287.6 205.2,287.6 205.2,276.4 216.4,276.4 	"/>
	<polygon style="fill:#324A5E;" points="215.531,336.857 207.894,329.221 199.669,337.446 191.59,329.366 183.953,337.003 
		192.032,345.083 184.136,352.979 191.772,360.616 199.669,352.719 207.711,360.762 215.348,353.125 207.306,345.083 	"/>
	<rect x="291.6" y="265.6" style="fill:#324A5E;" width="33.6" height="10.8"/>
	<rect x="291.6" y="331.2" style="fill:#324A5E;" width="33.6" height="10.8"/>
	<rect x="291.6" y="348" style="fill:#324A5E;" width="33.6" height="10.8"/>
</g>
<g>
</g>
<g>
</g>
<g>
</g>
<g>
</g>
<g>
</g>
<g>
</g>
<g>
</g>
<g>
</g>
<g>
</g>
<g>
</g>
<g>
</g>
<g>
</g>
<g>
</g>
<g>
</g>
<g>
</g>
</svg>
