<?xml version="1.0" encoding="iso-8859-1"?>
<!-- Generator: Adobe Illustrator 19.0.0, SVG Export Plug-In . SVG Version: 6.00 Build 0)  -->
<svg version="1.1" id="Layer_1" xmlns="http://www.w3.org/2000/svg" xmlns:xlink="http://www.w3.org/1999/xlink" x="0px" y="0px"
	 viewBox="0 0 508 508" style="enable-background:new 0 0 508 508;" xml:space="preserve">
<circle style="fill:#84DBFF;" cx="254" cy="254" r="254"/>
<path style="fill:#FF7058;" d="M388.8,125.2H119.2c-7.2,0-13.2,6-13.2,13.2V322c0,7.2,6,13.2,13.2,13.2H142l16,71.6l44.4-71.6h186.4
	c7.2,0,13.2-6,13.2-13.2V138.4C402,131.2,396,125.2,388.8,125.2z"/>
<circle style="fill:#E6E9EE;" cx="254" cy="230" r="62.8"/>
<path style="fill:#324A5E;" d="M256.8,256v8h-5.6v-8c-5.2,0-9.6-1.2-14-3.6V242c1.6,1.2,3.6,2.4,6.4,3.2c2.8,0.8,5.6,1.6,7.6,1.6
	V234c-6-2-9.6-4.4-12-7.2c-2-2.4-3.2-5.6-3.2-9.2c0-4,1.2-7.2,4-10s6.4-4.4,10.8-4.8V196h5.6v6.8c5.2,0.4,9.2,1.2,11.6,2.4v10
	c-3.6-2-7.6-3.6-11.6-4v14c5.6,2,9.2,4.4,11.6,6.8c2.4,2.4,3.6,5.6,3.6,9.2c0,4-1.2,7.6-4,10C265.2,254,261.6,255.6,256.8,256z
	 M251.2,223.6v-12c-3.6,0.8-5.2,2.4-5.2,5.6C246,219.6,247.6,221.6,251.2,223.6z M256.8,236v11.2c3.6-0.4,5.2-2.4,5.2-5.2
	C262,239.6,260.4,237.6,256.8,236z"/>
<g>
</g>
<g>
</g>
<g>
</g>
<g>
</g>
<g>
</g>
<g>
</g>
<g>
</g>
<g>
</g>
<g>
</g>
<g>
</g>
<g>
</g>
<g>
</g>
<g>
</g>
<g>
</g>
<g>
</g>
</svg>
