<?xml version="1.0" encoding="iso-8859-1"?>
<!-- Generator: Adobe Illustrator 19.0.0, SVG Export Plug-In . SVG Version: 6.00 Build 0)  -->
<svg version="1.1" id="Layer_1" xmlns="http://www.w3.org/2000/svg" xmlns:xlink="http://www.w3.org/1999/xlink" x="0px" y="0px"
	 viewBox="0 0 508 508" style="enable-background:new 0 0 508 508;" xml:space="preserve">
<circle style="fill:#324A5E;" cx="254" cy="254" r="254"/>
<path style="fill:#FFFFFF;" d="M114,238c7.6,0,13.6,6,13.6,13.6s-6,13.6-13.6,13.6v6.8c7.6,0,13.6,6,13.6,13.6s-6,13.6-13.6,13.6
	v6.8c7.6,0,13.6,6,13.6,13.6s-6,13.6-13.6,13.6v6.8c7.6,0,13.6,6,13.6,13.6s-6,13.6-13.6,13.6v8h271.2V230H114V238z"/>
<g>
	<rect x="171.2" y="260" style="fill:#CED5E0;" width="182.4" height="14.4"/>
	<rect x="171.2" y="296" style="fill:#CED5E0;" width="182.4" height="14.4"/>
	<rect x="171.2" y="332" style="fill:#CED5E0;" width="96" height="14.4"/>
</g>
<path style="fill:#FFD05B;" d="M220,343.6c1.6-0.8,11.6-6,22-6c-0.8-5.6,2.8-14,6-18.4l10-13.6l-6.4-4.8l-6.4-4.8l-10,13.6
	c-3.2,4.4-10.4,10.4-15.6,11.2C222,330.8,220,342,220,343.6z"/>
<path style="fill:#4CDBC4;" d="M263.2,308c8.4-9.2,27.2-33.2,36.4-46c26.8-36.8,93.2-140.8,85.6-146c-7.2-5.2-85.6,90-112.4,126.8
	c-9.2,12.8-26.4,38-32.4,48.8L263.2,308z"/>
<g>
	<polygon style="fill:#324A5E;" points="232.8,303.2 254.4,318.8 263.2,308 240.4,291.2 	"/>
	<circle style="fill:#324A5E;" cx="230" cy="329.6" r="2.4"/>
	
		<rect x="224.705" y="328.262" transform="matrix(0.8088 0.588 -0.588 0.8088 241.1157 -67.9737)" style="fill:#324A5E;" width="0.8" height="17.199"/>
	<circle style="fill:#324A5E;" cx="220.4" cy="342.8" r="1.2"/>
</g>
<g>
</g>
<g>
</g>
<g>
</g>
<g>
</g>
<g>
</g>
<g>
</g>
<g>
</g>
<g>
</g>
<g>
</g>
<g>
</g>
<g>
</g>
<g>
</g>
<g>
</g>
<g>
</g>
<g>
</g>
</svg>
