<?xml version="1.0" encoding="iso-8859-1"?>
<!-- Generator: Adobe Illustrator 19.0.0, SVG Export Plug-In . SVG Version: 6.00 Build 0)  -->
<svg version="1.1" id="Layer_1" xmlns="http://www.w3.org/2000/svg" xmlns:xlink="http://www.w3.org/1999/xlink" x="0px" y="0px"
	 viewBox="0 0 508 508" style="enable-background:new 0 0 508 508;" xml:space="preserve">
<circle style="fill:#FD8469;" cx="254" cy="254" r="254"/>
<rect x="122.8" y="223.6" style="fill:#324A5E;" width="262.4" height="160.8"/>
<path style="fill:#FFFFFF;" d="M358.4,381.6l-67.2-216.8c22-5.2,38-24.4,38-48c0-27.2-22-49.2-49.2-49.2h-52.8
	c-27.2,0-49.2,22-49.2,49.2c0,23.6,16.4,43.2,38.8,48l-67.2,216.8c-1.2,4.4,1.2,9.2,5.6,10.4c0.8,0.4,1.6,0.4,2.4,0.4
	c3.6,0,6.8-2.4,8-6l70-226.4c1.2-4.4-1.2-9.2-5.6-10.4c-0.8-0.4-1.6-0.4-2.4-0.4h-0.4c-18,0-32.4-14.4-32.4-32.4
	s14.4-32.4,32.4-32.4H280c18,0,32.4,14.4,32.4,32.4S298,149.2,280,149.2h-0.4c-0.4,0-0.4,0-0.8,0s-0.8,0-0.8,0s0,0-0.4,0
	c0,0,0,0-0.4,0s-0.8,0.4-1.2,0.4c0,0-0.4,0-0.4,0.4c-0.4,0-0.8,0.4-0.8,0.8c0,0-0.4,0-0.4,0.4c-0.4,0.4-0.4,0.4-0.8,0.8
	c0,0,0,0-0.4,0.4s-0.4,0.8-0.8,1.2c0,0,0,0,0,0.4c-0.4,0.4-0.4,0.8-0.4,1.2c0,0,0,0,0,0.4s-0.4,0.8-0.4,1.2v0.4c0,0.4,0,0.4,0,0.8
	c0,0.4,0,0.4,0,0.8c0,0,0,0,0,0.4s0,0.8,0.4,1.6l0,0l70,225.6c1.2,3.6,4.4,6,8,6c0.8,0,1.6,0,2.4-0.4
	C357.2,390.8,359.6,386,358.4,381.6z"/>
<polygon style="fill:#2B3B4E;" points="122.8,358.8 122.8,400.8 169.6,400.8 169.6,384.4 186.8,384.4 186.8,400.8 321.2,400.8 
	321.2,384.4 338.4,384.4 338.4,400.8 385.2,400.8 385.2,358.8 "/>
<g>
</g>
<g>
</g>
<g>
</g>
<g>
</g>
<g>
</g>
<g>
</g>
<g>
</g>
<g>
</g>
<g>
</g>
<g>
</g>
<g>
</g>
<g>
</g>
<g>
</g>
<g>
</g>
<g>
</g>
</svg>
