<?xml version="1.0" encoding="iso-8859-1"?>
<!-- Generator: Adobe Illustrator 19.0.0, SVG Export Plug-In . SVG Version: 6.00 Build 0)  -->
<svg version="1.1" id="Layer_1" xmlns="http://www.w3.org/2000/svg" xmlns:xlink="http://www.w3.org/1999/xlink" x="0px" y="0px"
	 viewBox="0 0 508 508" style="enable-background:new 0 0 508 508;" xml:space="preserve">
<circle style="fill:#324A5E;" cx="254" cy="254" r="254"/>
<path style="fill:#4CDBC4;" d="M268.8,118.4h-29.6V83.6c0-8,6.4-14.8,14.8-14.8l0,0c8,0,14.8,6.4,14.8,14.8V118.4z"/>
<g>
	<path style="fill:#FFFFFF;" d="M372,399.6c-2,0-4-1.2-5.2-3.2l-17.2-35.2c-1.6-2.8-0.4-6.4,2.8-7.6c2.8-1.6,6.4-0.4,7.6,2.8
		l17.2,35.2c1.6,2.8,0.4,6.4-2.8,7.6C373.6,399.6,372.8,399.6,372,399.6z"/>
	<path style="fill:#FFFFFF;" d="M136,399.6c2,0,4-1.2,5.2-3.2l17.2-35.2c1.6-2.8,0.4-6.4-2.8-7.6c-2.8-1.6-6.4-0.4-7.6,2.8
		l-17.2,35.2c-1.6,2.8-0.4,6.4,2.8,7.6C134.4,399.6,135.2,399.6,136,399.6z"/>
</g>
<g>
	
		<rect x="226.031" y="269.093" transform="matrix(-0.4232 -0.906 0.906 -0.4232 199.5159 692.0067)" style="fill:#FFD05B;" width="188.011" height="26.802"/>
	
		<rect x="94.193" y="269.005" transform="matrix(0.4232 -0.906 0.906 0.4232 -147.3155 333.4151)" style="fill:#FFD05B;" width="188.011" height="26.802"/>
</g>
<path style="fill:#FF7058;" d="M254,221.6c-32,0-58.4-26-58.4-58.4c0-32,26-58.4,58.4-58.4s58.4,26,58.4,58.4
	C312,195.2,286,221.6,254,221.6z M254,128c-19.2,0-35.2,15.6-35.2,35.2c0,19.2,15.6,35.2,35.2,35.2c19.2,0,35.2-15.6,35.2-35.2
	C289.2,144,273.2,128,254,128z"/>
<path style="fill:#4CDBC4;" d="M254,312.4c-42.4,0-82.4-16.4-112.4-46.4l16.4-16.4c25.6,25.6,59.6,40,96,40s70.4-14,96-40l16.4,16.4
	C336.4,296,296.4,312.4,254,312.4z"/>
<g>
</g>
<g>
</g>
<g>
</g>
<g>
</g>
<g>
</g>
<g>
</g>
<g>
</g>
<g>
</g>
<g>
</g>
<g>
</g>
<g>
</g>
<g>
</g>
<g>
</g>
<g>
</g>
<g>
</g>
</svg>
