<?xml version="1.0" encoding="iso-8859-1"?>
<!-- Generator: Adobe Illustrator 19.0.0, SVG Export Plug-In . SVG Version: 6.00 Build 0)  -->
<svg version="1.1" id="Layer_1" xmlns="http://www.w3.org/2000/svg" xmlns:xlink="http://www.w3.org/1999/xlink" x="0px" y="0px"
	 viewBox="0 0 508 508" style="enable-background:new 0 0 508 508;" xml:space="preserve">
<circle style="fill:#84DBFF;" cx="254" cy="254" r="254"/>
<polygon style="fill:#FFFFFF;" points="298,98.8 142,98.8 142,393.2 375.6,393.2 375.6,176.4 "/>
<polygon style="fill:#E6E9EE;" points="298,176.4 375.6,176.4 298,98.8 "/>
<g>
	<rect x="173.6" y="192.4" style="fill:#4CDBC4;" width="170.8" height="12.4"/>
	<rect x="173.6" y="237.6" style="fill:#4CDBC4;" width="170.8" height="12.4"/>
	<rect x="173.6" y="283.2" style="fill:#4CDBC4;" width="170.8" height="12.4"/>
	<rect x="173.6" y="328.4" style="fill:#4CDBC4;" width="170.8" height="12.4"/>
</g>
<path style="fill:#FFD05B;" d="M238.8,350c1.6-0.4,13.2-4.4,24-2.8c0-6,5.2-14.4,9.2-18.4l12.8-12.8l-6-6l-6-6L260,316.8
	c-4,4-12.4,9.2-18.4,9.2C243.2,336.8,239.2,348.4,238.8,350z"/>
<path style="fill:#FF7058;" d="M290.8,319.6c10.4-8.4,34.4-30.8,46-42.4c34.4-34.4,99.2-110.4,92-117.2c-6.8-6.8-82.8,58-117.2,92
	c-11.6,11.6-34.4,35.6-42.4,46L290.8,319.6z"/>
<g>
	<polygon style="fill:#324A5E;" points="259.2,309.6 279.2,329.6 290.8,319.6 269.2,298.4 	"/>
	<circle style="fill:#324A5E;" cx="252" cy="337.2" r="2.4"/>
	
		<rect x="245.059" y="334.591" transform="matrix(0.7071 0.7071 -0.7071 0.7071 314.9902 -72.8714)" style="fill:#324A5E;" width="0.8" height="18.4"/>
	<circle style="fill:#324A5E;" cx="239.6" cy="349.6" r="1.6"/>
</g>
<g>
</g>
<g>
</g>
<g>
</g>
<g>
</g>
<g>
</g>
<g>
</g>
<g>
</g>
<g>
</g>
<g>
</g>
<g>
</g>
<g>
</g>
<g>
</g>
<g>
</g>
<g>
</g>
<g>
</g>
</svg>
