<?xml version="1.0" encoding="iso-8859-1"?>
<!-- Generator: Adobe Illustrator 19.0.0, SVG Export Plug-In . SVG Version: 6.00 Build 0)  -->
<svg version="1.1" id="Layer_1" xmlns="http://www.w3.org/2000/svg" xmlns:xlink="http://www.w3.org/1999/xlink" x="0px" y="0px"
	 viewBox="0 0 508 508" style="enable-background:new 0 0 508 508;" xml:space="preserve">
<circle style="fill:#FFD05B;" cx="254" cy="254" r="254"/>
<path style="fill:#4CDBC4;" d="M350.8,132.4h-242c-7.2,0-13.2,6-13.2,13.2v154c0,7.2,6,13.2,13.2,13.2h242.4c7.2,0,13.2-6,13.2-13.2
	v-154C364,138.4,358,132.4,350.8,132.4z"/>
<rect x="95.6" y="176" style="fill:#324A5E;" width="268.4" height="38.8"/>
<path style="fill:#FF7058;" d="M409.2,293.6h-92c-1.6,0-3.2,1.6-3.2,3.2v75.6c0,1.6,1.6,3.2,3.2,3.2h92.4c1.6,0,3.2-1.6,3.2-3.2
	v-75.6C412.4,294.8,411.2,293.6,409.2,293.6z"/>
<path style="fill:#324A5E;" d="M400.4,293.6h-13.2v-28.4c0-13.2-10.8-24-24-24s-24,10.8-24,24v28.4H326v-28.4
	c0-20.4,16.8-37.2,37.2-37.2c20.4,0,37.2,16.8,37.2,37.2L400.4,293.6L400.4,293.6z"/>
<path style="fill:#2B3B4E;" d="M371.6,334.8c0-4.4-3.6-8.4-8.4-8.4s-8.4,3.6-8.4,8.4c0,2.8,1.6,5.6,4,7.2l-2,14h12.8l-2-14
	C370,340,371.6,337.6,371.6,334.8z"/>
<g>
</g>
<g>
</g>
<g>
</g>
<g>
</g>
<g>
</g>
<g>
</g>
<g>
</g>
<g>
</g>
<g>
</g>
<g>
</g>
<g>
</g>
<g>
</g>
<g>
</g>
<g>
</g>
<g>
</g>
</svg>
