<?xml version="1.0" encoding="iso-8859-1"?>
<!-- Generator: Adobe Illustrator 19.0.0, SVG Export Plug-In . SVG Version: 6.00 Build 0)  -->
<svg version="1.1" id="Layer_1" xmlns="http://www.w3.org/2000/svg" xmlns:xlink="http://www.w3.org/1999/xlink" x="0px" y="0px"
	 viewBox="0 0 508 508" style="enable-background:new 0 0 508 508;" xml:space="preserve">
<circle style="fill:#84DBFF;" cx="254" cy="254" r="254"/>
<path style="fill:#324A5E;" d="M432.8,196l-251.6-82c-6.8-2-14,1.6-16,8l-52,159.6c-2,6.8,1.6,14,8,16l252,82c6.8,2,14-1.6,16-8
	l52-159.6C443.2,205.2,439.6,198,432.8,196z"/>
<path style="fill:#FFFFFF;" d="M376.4,188.4H111.6c-7.2,0-12.8,5.6-12.8,12.8v168c0,7.2,5.6,12.8,12.8,12.8h264.8
	c7.2,0,12.8-5.6,12.8-12.8v-168C389.2,194,383.6,188.4,376.4,188.4z"/>
<path style="fill:#E6E9EE;" d="M292.4,212c-40,0-72.8,32.8-72.8,72.8s32.8,72.8,72.8,72.8s72.8-32.8,72.8-72.8S332.8,212,292.4,212z
	 M349.6,254.8H328c-2.8-12.4-7.6-23.2-13.6-30.8C329.6,229.6,342,240.8,349.6,254.8z M323.2,284.8c0,7.6-0.8,14.8-2,21.6h-24.4
	v-43.2h24.4C322.4,270,323.2,277.2,323.2,284.8z M262,284.8c0-7.6,0.8-14.8,2-21.6h24.4v43.2H264C262.4,299.6,262,292.4,262,284.8z
	 M288.4,221.2v34h-22.8C270,237.2,278.4,224,288.4,221.2z M288.4,314.8v34c-9.6-2.8-18-16-22.8-34H288.4z M296.8,348.8v-34h22.8
	C314.8,332.8,306.4,345.6,296.8,348.8z M296.8,254.8v-34c9.6,2.8,18,16,22.8,34H296.8z M270.8,224.4c-6,7.6-10.8,18-13.6,30.8h-21.6
	C242.8,240.8,255.2,229.6,270.8,224.4z M231.6,263.2h23.6c-1.2,6.8-1.6,14-1.6,21.6s0.4,14.8,1.6,21.6h-23.6c-2.4-6.8-4-14-4-21.6
	C228,277.2,229.2,270,231.6,263.2z M235.2,314.8h21.6c2.8,12.4,7.6,23.2,13.6,30.8C255.2,340,242.8,329.2,235.2,314.8z M314.4,345.6
	c6-7.6,10.8-18,13.6-30.8h21.6C342,329.2,329.6,340,314.4,345.6z M353.2,306.4h-23.6c1.2-6.8,1.6-14,1.6-21.6s-0.4-14.8-1.6-21.6
	h23.6c2.4,6.8,4,14,4,21.6S355.6,299.6,353.2,306.4z"/>
<path style="fill:#FF7058;" d="M156.8,212h-34.4c-1.2,0-2.4,1.2-2.4,2.4v34.4c0,1.2,1.2,2.4,2.4,2.4h34.4c1.2,0,2.4-1.2,2.4-2.4
	v-34.4C159.2,213.2,158,212,156.8,212z"/>
<g>
</g>
<g>
</g>
<g>
</g>
<g>
</g>
<g>
</g>
<g>
</g>
<g>
</g>
<g>
</g>
<g>
</g>
<g>
</g>
<g>
</g>
<g>
</g>
<g>
</g>
<g>
</g>
<g>
</g>
</svg>
