<?xml version="1.0" encoding="iso-8859-1"?>
<!-- Generator: Adobe Illustrator 19.0.0, SVG Export Plug-In . SVG Version: 6.00 Build 0)  -->
<svg version="1.1" id="Layer_1" xmlns="http://www.w3.org/2000/svg" xmlns:xlink="http://www.w3.org/1999/xlink" x="0px" y="0px"
	 viewBox="0 0 508 508" style="enable-background:new 0 0 508 508;" xml:space="preserve">
<circle style="fill:#324A5E;" cx="254" cy="254" r="254"/>
<path style="fill:#FFFFFF;" d="M261.2,84c-4.4-3.2-10.4-3.2-14.4,0L101.6,198l0,0L254,288.4L406.4,198l0,0L261.2,84z"/>
<rect x="148.8" y="140" style="fill:#4CDBC4;" width="210.4" height="111.6"/>
<path style="fill:#E6E9EE;" d="M332.4,242H175.6c0-8.8-7.2-16-16-16v-60.4c8.8,0,16-7.2,16-16h157.2c0,8.8,7.2,16,16,16V226
	C339.6,226,332.4,233.2,332.4,242z"/>
<g>
	<ellipse style="fill:#2C9984;" cx="256" cy="195.6" rx="22.8" ry="31.2"/>
	<ellipse style="fill:#2C9984;" cx="190" cy="195.6" rx="10.4" ry="13.6"/>
	<ellipse style="fill:#2C9984;" cx="318" cy="195.6" rx="10.4" ry="13.6"/>
</g>
<g>
	<polygon style="fill:#FFD05B;" points="254,288.4 406.4,379.2 406.4,198 	"/>
	<polygon style="fill:#FFD05B;" points="101.6,198 101.6,379.2 101.6,379.2 254,288.4 	"/>
</g>
<path style="fill:#F9B54C;" d="M262,274c-4.8-3.6-11.2-3.6-16,0L101.6,379.2h304.8l0,0L262,274z"/>
<g>
</g>
<g>
</g>
<g>
</g>
<g>
</g>
<g>
</g>
<g>
</g>
<g>
</g>
<g>
</g>
<g>
</g>
<g>
</g>
<g>
</g>
<g>
</g>
<g>
</g>
<g>
</g>
<g>
</g>
</svg>
