<?xml version="1.0" encoding="iso-8859-1"?>
<!-- Generator: Adobe Illustrator 19.0.0, SVG Export Plug-In . SVG Version: 6.00 Build 0)  -->
<svg version="1.1" id="Layer_1" xmlns="http://www.w3.org/2000/svg" xmlns:xlink="http://www.w3.org/1999/xlink" x="0px" y="0px"
	 viewBox="0 0 508 508" style="enable-background:new 0 0 508 508;" xml:space="preserve">
<circle style="fill:#90DFAA;" cx="254" cy="254" r="254"/>
<path style="fill:#FFFFFF;" d="M264,76.4c-4.4-4.8-12-4.8-16.8,0l-135.6,126V380h2H396l0,0V203.2v-0.8L264,76.4z"/>
<g>
	<polygon style="fill:#FF7058;" points="396.4,203.2 396.4,202.4 385.6,202.4 396.4,212.8 	"/>
	<polygon style="fill:#FF7058;" points="128.4,259.6 111.6,243.2 111.6,264.8 128.4,281.6 	"/>
	<polygon style="fill:#FF7058;" points="111.6,380 113.6,380 122.4,380 111.6,369.2 	"/>
	<polygon style="fill:#FF7058;" points="396.4,254.8 396.4,233.2 380.8,218 380.8,239.6 	"/>
	<polygon style="fill:#FF7058;" points="396.4,296.8 396.4,275.2 380.8,260 380.8,281.6 	"/>
	<polygon style="fill:#FF7058;" points="396.4,339.2 396.4,317.2 380.8,302 380.8,323.6 	"/>
	<polygon style="fill:#FF7058;" points="395.2,380 396.4,380 396.4,380 396.4,359.2 380.8,344 380.8,365.6 	"/>
	<polygon style="fill:#FF7058;" points="352.8,380 374.8,380 361.2,366.4 339.6,366.4 	"/>
	<polygon style="fill:#FF7058;" points="310.8,380 332.8,380 319.2,366.4 297.6,366.4 	"/>
	<polygon style="fill:#FF7058;" points="112.8,202.4 112.4,202.4 111.6,202.4 111.6,222.8 127.2,238 127.2,216.4 	"/>
	<polygon style="fill:#FF7058;" points="268.8,380 290.4,380 277.2,366.4 255.6,366.4 	"/>
	<polygon style="fill:#FF7058;" points="226.8,380 248.4,380 235.2,366.4 213.6,366.4 	"/>
	<polygon style="fill:#FF7058;" points="111.6,285.2 111.6,306.8 127.2,322 127.2,300.4 	"/>
	<polygon style="fill:#FF7058;" points="184.8,380 206.4,380 193.2,366.4 171.2,366.4 	"/>
	<polygon style="fill:#FF7058;" points="142.8,380 164.4,380 151.2,366.4 129.2,366.4 	"/>
	<polygon style="fill:#FF7058;" points="111.6,327.2 111.6,348.8 127.2,364.4 127.2,342.4 	"/>
</g>
<rect x="163.2" y="226.4" style="fill:#FFD05B;" width="45.6" height="42.4"/>
<g>
	<rect x="163.2" y="290" style="fill:#324A5E;" width="182" height="12"/>
	<rect x="163.2" y="327.2" style="fill:#324A5E;" width="182" height="12"/>
</g>
<g>
</g>
<g>
</g>
<g>
</g>
<g>
</g>
<g>
</g>
<g>
</g>
<g>
</g>
<g>
</g>
<g>
</g>
<g>
</g>
<g>
</g>
<g>
</g>
<g>
</g>
<g>
</g>
<g>
</g>
</svg>
