<?xml version="1.0" encoding="iso-8859-1"?>
<!-- Generator: Adobe Illustrator 19.0.0, SVG Export Plug-In . SVG Version: 6.00 Build 0)  -->
<svg version="1.1" id="Layer_1" xmlns="http://www.w3.org/2000/svg" xmlns:xlink="http://www.w3.org/1999/xlink" x="0px" y="0px"
	 viewBox="0 0 508 508" style="enable-background:new 0 0 508 508;" xml:space="preserve">
<circle style="fill:#FFD05B;" cx="254" cy="254" r="254"/>
<polygon style="fill:#FF7058;" points="224.8,263.6 171.6,263.6 180.4,153.2 216.4,153.2 "/>
<polygon style="fill:#E6E9EE;" points="198.8,378.4 104,378.4 104,255.6 198.8,221.6 "/>
<polygon style="fill:#FFFFFF;" points="293.2,378.4 198.8,378.4 198.8,255.6 293.2,221.6 "/>
<polygon style="fill:#E6E9EE;" points="388,378.4 293.2,378.4 293.2,255.6 388,221.6 "/>
<g>
	<rect x="126" y="274" style="fill:#4CDBC4;" width="15.6" height="21.2"/>
	<rect x="161.2" y="274" style="fill:#4CDBC4;" width="15.6" height="21.2"/>
	<rect x="220.8" y="274" style="fill:#4CDBC4;" width="15.6" height="21.2"/>
	<rect x="256" y="274" style="fill:#4CDBC4;" width="15.6" height="21.2"/>
	<rect x="315.2" y="274" style="fill:#4CDBC4;" width="15.6" height="21.2"/>
	<rect x="350.4" y="274" style="fill:#4CDBC4;" width="15.6" height="21.2"/>
</g>
<path style="fill:#324A5E;" d="M287.6,98.8c1.6-0.8,2.8-1.6,4.4-2c3.6-1.2,7.6,0,11.2-0.8c3.2-0.8,5.6-2.8,8.8-4
	c5.2-2.4,10.8-2.4,16.4-2.4c6.8,0,14,0.4,19.2,4.8c3.6,3.2,5.2,8,6.4,12.8c0.8,3.2,1.2,6.4,1.2,9.6c-0.8,6.8-5.6,13.2-12,16.4
	c-6,3.2-13.2,4.4-20.4,4.4c-2.4,0-4.8,0-7.2,0.8c-1.6,0.4-3.6,1.6-5.2,2c-8,2.8-17.2-2-25.6-1.6c-4.4,0.4-8.4,2-12.8,1.6
	c-3.2-0.4-6.4-1.6-10-2.4c-8.4-2-17.2,0.8-25.6,0.4c-8-0.4-16.4-3.6-23.6,0c-3.6,1.6-7.2,5.2-10.8,3.6c-0.8-6.4,0.4-13.2,3.2-18.8
	c2-4,4.8-7.6,8.4-9.6c6.4-2.8,13.6-0.8,20.4-2c9.2-1.6,16-9.2,24.8-10.8C268,98,278.4,102.8,287.6,98.8z"/>
<g>
</g>
<g>
</g>
<g>
</g>
<g>
</g>
<g>
</g>
<g>
</g>
<g>
</g>
<g>
</g>
<g>
</g>
<g>
</g>
<g>
</g>
<g>
</g>
<g>
</g>
<g>
</g>
<g>
</g>
</svg>
