<?xml version="1.0" encoding="iso-8859-1"?>
<!-- Generator: Adobe Illustrator 19.0.0, SVG Export Plug-In . SVG Version: 6.00 Build 0)  -->
<svg version="1.1" id="Layer_1" xmlns="http://www.w3.org/2000/svg" xmlns:xlink="http://www.w3.org/1999/xlink" x="0px" y="0px"
	 viewBox="0 0 508 508" style="enable-background:new 0 0 508 508;" xml:space="preserve">
<circle style="fill:#90DFAA;" cx="254" cy="254" r="254"/>
<path style="fill:#FFFFFF;" d="M284.4,270.4c-6.8-2.4-11.2-9.2-11.2-16.4c0-7.2,4.4-14,11.2-16.4c44-16.4,76-67.2,76.4-115.2H147.2
	c0.4,48,32.4,98.4,76.4,115.2c6.8,2.4,11.2,9.2,11.2,16.4c0,7.2-4.4,14-11.2,16.4c-44,16.4-76,67.2-76.4,115.2h213.6
	C360.4,337.6,328.4,287.2,284.4,270.4z"/>
<path style="fill:#FFD05B;" d="M230.8,218.8c11.6,4.4,18.4,13.6,21.6,25.2c0,0,0.4,10,0.8,21.6c-3.6,10.4-11.6,19.2-22.4,23.2
	c-25.6,9.6-47.6,34.8-57.6,63.6h161.6c-10-28.8-32-54-57.6-63.6c-11.2-4.4-19.6-13.6-22.8-24.8c0-10.8,0.4-20,0.4-20
	c3.2-11.6,10.8-21.2,22.4-25.2c19.6-7.2,36.8-23.6,48.4-43.6H182.4C194,195.2,211.2,211.6,230.8,218.8z"/>
<g>
	<path style="fill:#FF7058;" d="M366.4,139.2H141.6c-8.4,0-15.6-6.8-15.6-15.6l0,0c0-8.4,6.8-15.6,15.6-15.6H366
		c8.4,0,15.6,6.8,15.6,15.6l0,0C381.6,132.4,374.8,139.2,366.4,139.2z"/>
	<path style="fill:#FF7058;" d="M366.4,399.6H141.6c-8.4,0-15.6-6.8-15.6-15.6l0,0c0-8.4,6.8-15.6,15.6-15.6H366
		c8.4,0,15.6,6.8,15.6,15.6l0,0C381.6,392.8,374.8,399.6,366.4,399.6z"/>
</g>
<g>
</g>
<g>
</g>
<g>
</g>
<g>
</g>
<g>
</g>
<g>
</g>
<g>
</g>
<g>
</g>
<g>
</g>
<g>
</g>
<g>
</g>
<g>
</g>
<g>
</g>
<g>
</g>
<g>
</g>
</svg>
