<?xml version="1.0" encoding="iso-8859-1"?>
<!-- Generator: Adobe Illustrator 19.0.0, SVG Export Plug-In . SVG Version: 6.00 Build 0)  -->
<svg version="1.1" id="Layer_1" xmlns="http://www.w3.org/2000/svg" xmlns:xlink="http://www.w3.org/1999/xlink" x="0px" y="0px"
	 viewBox="0 0 508 508" style="enable-background:new 0 0 508 508;" xml:space="preserve">
<circle style="fill:#84DBFF;" cx="254" cy="254" r="254"/>
<path style="fill:#FFFFFF;" d="M242,266.4c-5.2-2.4-8.8-8.8-8.8-16c0-7.2,3.6-13.6,8.8-16c34.8-16,60-65.2,60.4-112H134
	c0.4,46.8,25.6,95.6,60.4,112c5.2,2.4,8.8,8.8,8.8,16c0,7.2-3.6,13.6-8.8,16c-34.8,16-60,65.2-60.4,112h168.4
	C302,331.6,276.8,282.8,242,266.4z"/>
<g>
	<path style="fill:#324A5E;" d="M306.4,139.2H130c-6.8,0-12-6.8-12-15.2l0,0c0-8.4,5.6-15.2,12-15.2h176.8c6.8,0,12,6.8,12,15.2l0,0
		C318.8,132.4,313.2,139.2,306.4,139.2z"/>
	<path style="fill:#324A5E;" d="M306.4,392H130c-6.8,0-12-6.8-12-15.2l0,0c0-8.4,5.6-15.2,12-15.2h176.8c6.8,0,12,6.8,12,15.2l0,0
		C318.8,385.2,313.2,392,306.4,392z"/>
</g>
<path style="fill:#FF7058;" d="M200,216.8c8.8,4,14.4,13.2,17.2,24.4c0,0,0.4,9.6,0.4,20.8c-2.8,10-9.2,18.8-17.6,22.4
	c-20.4,9.6-37.6,34-45.2,61.6H282c-8-28-25.2-52.4-45.2-61.6c-8.8-4-15.2-13.2-18-24c0-10.4,0.4-19.2,0.4-19.6
	c2.4-11.2,8.4-20.4,17.6-24.4c15.2-7.2,28.8-22.8,38-42.4H162C170.8,193.6,184.4,209.6,200,216.8z"/>
<circle style="fill:#FFD05B;" cx="344.4" cy="329.2" r="70"/>
<path style="fill:#FFFFFF;" d="M344.4,382c-29.2,0-53.2-24-53.2-53.2s24-53.2,53.2-53.2s53.2,24,53.2,53.2
	C397.2,358.4,373.6,382,344.4,382z"/>
<path style="fill:#324A5E;" d="M346.8,354v7.6h-5.2V354c-4.8,0-9.2-1.2-13.6-3.2v-10c1.2,1.2,3.6,2,6,3.2c2.8,0.8,5.2,1.6,7.2,1.6
	v-12.8c-5.6-2-9.2-4.4-11.2-6.8s-3.2-5.2-3.2-8.8c0-3.6,1.2-6.8,4-9.6c2.8-2.8,6-4,10.4-4.4v-6.8h5.2v6.4c5.2,0.4,8.8,1.2,11.2,2.4
	v9.6c-3.2-2-7.2-3.2-11.2-3.6v13.6c5.2,2,8.8,4,11.2,6.4c2.4,2.4,3.2,5.2,3.2,8.8c0,4-1.2,7.2-3.6,9.6
	C355.2,352,351.6,353.2,346.8,354z M341.6,322.8v-11.2c-3.2,0.4-4.8,2.4-4.8,5.2C336.8,319.2,338.4,321.2,341.6,322.8z M346.8,334.8
	v10.8c3.2-0.4,5.2-2.4,5.2-5.2C352,338,350.4,336.4,346.8,334.8z"/>
<g>
</g>
<g>
</g>
<g>
</g>
<g>
</g>
<g>
</g>
<g>
</g>
<g>
</g>
<g>
</g>
<g>
</g>
<g>
</g>
<g>
</g>
<g>
</g>
<g>
</g>
<g>
</g>
<g>
</g>
</svg>
