<?xml version="1.0" encoding="iso-8859-1"?>
<!-- Generator: Adobe Illustrator 19.0.0, SVG Export Plug-In . SVG Version: 6.00 Build 0)  -->
<svg version="1.1" id="Layer_1" xmlns="http://www.w3.org/2000/svg" xmlns:xlink="http://www.w3.org/1999/xlink" x="0px" y="0px"
	 viewBox="0 0 508 508" style="enable-background:new 0 0 508 508;" xml:space="preserve">
<circle style="fill:#324A5E;" cx="254" cy="254" r="254"/>
<path style="fill:#FF7058;" d="M338.8,370.8c-60,50.8-150,43.2-200.8-16.8s-43.2-150,16.8-200.8c59.6-50.8,150-43.2,200.8,16.8
	L330,191.2l76.8,12l0.8-78l-25.2,21.2C318.8,71.2,206,62,131.2,125.2c-74.8,64-84.4,176.8-20.8,252s176.4,84.4,251.2,21.2
	L338.8,370.8z"/>
<path style="fill:#E6E9EE;" d="M254,340.8v24.4h-16.4v-24c-15.2,0-29.6-3.6-42.8-10.4v-31.2c4.4,3.6,10.8,6.8,19.6,10
	s16.4,4.8,23.2,5.2v-41.2c-17.6-6.4-29.6-13.6-36-21.2c-6.4-7.6-9.6-16.8-9.6-28c0-12,4-22,12.4-30.4s19.6-13.2,33.2-14.4v-21.2H254
	v20.4c16,0.8,28,3.2,35.6,7.6v30.4c-10.4-6.4-22.4-10.4-35.6-11.6V248c16.4,6,28.4,12.8,35.6,20.4s10.8,16.8,10.8,27.6
	c0,12.4-4,22.8-12,30.4C280.4,334.4,268.8,339.2,254,340.8z M237.6,242v-36c-10.4,2-15.6,7.2-15.6,16.4
	C222,230,227.2,236.8,237.6,242z M254,280v34.4c10.8-1.6,16-7.2,16-16C270.4,290.8,264.8,284.8,254,280z"/>
<g>
</g>
<g>
</g>
<g>
</g>
<g>
</g>
<g>
</g>
<g>
</g>
<g>
</g>
<g>
</g>
<g>
</g>
<g>
</g>
<g>
</g>
<g>
</g>
<g>
</g>
<g>
</g>
<g>
</g>
</svg>
