<?xml version="1.0" encoding="iso-8859-1"?>
<!-- Generator: Adobe Illustrator 19.0.0, SVG Export Plug-In . SVG Version: 6.00 Build 0)  -->
<svg version="1.1" id="Layer_1" xmlns="http://www.w3.org/2000/svg" xmlns:xlink="http://www.w3.org/1999/xlink" x="0px" y="0px"
	 viewBox="0 0 508 508" style="enable-background:new 0 0 508 508;" xml:space="preserve">
<circle style="fill:#FF7058;" cx="254" cy="254" r="254"/>
<polygon style="fill:#FFFFFF;" points="254,71.2 139.2,186 174.8,186 174.8,413.2 333.2,413.2 333.2,186 368.8,186 "/>
<path style="fill:#4CDBC4;" d="M198,371.6V227.2c12,0,21.6-9.6,21.6-21.6H288c0,12,9.6,21.6,21.6,21.6v144.4
	c-12,0-21.6,9.6-21.6,21.6h-68C220,381.6,210,371.6,198,371.6z"/>
<g>
	<ellipse style="fill:#2C9984;" cx="254" cy="242.4" rx="19.6" ry="13.2"/>
	<ellipse style="fill:#2C9984;" cx="254" cy="356.4" rx="19.6" ry="13.2"/>
	<ellipse style="fill:#2C9984;" cx="254" cy="301.6" rx="35.6" ry="22.4"/>
</g>
<path style="fill:#E6E9EE;" d="M268,300h4.4v2.8H268c0,2.8-0.8,5.2-2,7.6h-5.6c0.8-0.8,1.2-2,1.6-3.6s0.8-2.8,0.8-4h-7.2
	c-1.2,3.2-2.4,5.2-4,6.4c-1.2,1.2-3.2,1.6-5.2,1.6s-4-0.8-5.6-2.4s-2.4-3.6-2.4-6h-3.6v-2.8h3.6c0-2.8,0.4-4.8,1.2-6.4h6.4
	c-1.2,2-2,4-2,6.4h7.6c1.2-2.8,2.4-5.2,3.6-6.4c1.2-1.2,3.2-2,4.8-2c2.4,0,4,0.8,5.6,2C266.8,295.6,268,297.6,268,300z M250.4,303.2
	H244c0.4,2,1.2,2.8,2.8,2.8C248.4,306,249.6,304.8,250.4,303.2z M257.2,300h6c-0.4-2-1.2-2.8-2.8-2.8C259.2,297.2,258,298,257.2,300
	z"/>
<g>
</g>
<g>
</g>
<g>
</g>
<g>
</g>
<g>
</g>
<g>
</g>
<g>
</g>
<g>
</g>
<g>
</g>
<g>
</g>
<g>
</g>
<g>
</g>
<g>
</g>
<g>
</g>
<g>
</g>
</svg>
