<?xml version="1.0" encoding="iso-8859-1"?>
<!-- Generator: Adobe Illustrator 19.0.0, SVG Export Plug-In . SVG Version: 6.00 Build 0)  -->
<svg version="1.1" id="Layer_1" xmlns="http://www.w3.org/2000/svg" xmlns:xlink="http://www.w3.org/1999/xlink" x="0px" y="0px"
	 viewBox="0 0 508 508" style="enable-background:new 0 0 508 508;" xml:space="preserve">
<circle style="fill:#84DBFF;" cx="254" cy="254" r="254"/>
<polygon style="fill:#FFD05B;" points="160.8,130.4 77.6,213.6 103.6,213.6 103.6,377.6 218,377.6 218,213.6 243.6,213.6 "/>
<path style="fill:#FFFFFF;" d="M120.4,347.6v-104c8.8,0,15.6-7.2,15.6-15.6h49.2c0,8.8,7.2,15.6,15.6,15.6v104
	c-8.8,0-15.6,7.2-15.6,15.6H136C136,354.4,129.2,347.6,120.4,347.6z"/>
<g>
	<ellipse style="fill:#4CDBC4;" cx="160.8" cy="254.4" rx="14" ry="9.2"/>
	<ellipse style="fill:#4CDBC4;" cx="160.8" cy="336.4" rx="14" ry="9.2"/>
</g>
<path style="fill:#324A5E;" d="M181.2,293.2h6.4v4.4h-6.4c0,4-0.8,7.6-2.8,11.2H170c0.8-1.2,1.6-2.8,2.4-5.2c0.8-2.4,1.2-4.4,1.2-6
	h-10.8c-1.6,4.8-3.6,7.6-5.6,9.6c-2,1.6-4.4,2.4-7.2,2.4c-3.2,0-5.6-1.2-8-3.2c-2-2-3.6-5.2-4-8.8h-5.6v-4.4h5.2c0-4,0.8-7.2,2-9.2
	h8c-1.6,2.8-2.8,6-3.2,9.2h11.2c1.6-4.4,3.2-7.6,5.2-9.2c2-2,4.4-2.8,7.2-2.8c3.2,0,6,1.2,8,3.2
	C179.6,286.4,180.8,289.6,181.2,293.2z M155.2,297.6H146c0.4,2.8,2,4,4.4,4C152.4,301.6,154,300.4,155.2,297.6z M165.2,293.2h8.8
	c-0.4-2.8-2-4.4-4.4-4.4C168,289.2,166.8,290.4,165.2,293.2z"/>
<polygon style="fill:#FF7058;" points="347.2,377.6 264.4,294.4 290,294.4 290,130.4 404.4,130.4 404.4,294.4 430.4,294.4 "/>
<path style="fill:#FFFFFF;" d="M307.2,160.4v104c8.8,0,15.6,7.2,15.6,15.6H372c0-8.8,7.2-15.6,15.6-15.6v-104
	c-8.8,0-15.6-7.2-15.6-15.6h-49.2C322.8,153.6,315.6,160.4,307.2,160.4z"/>
<g>
	<ellipse style="fill:#4CDBC4;" cx="347.2" cy="253.6" rx="14" ry="9.2"/>
	<ellipse style="fill:#4CDBC4;" cx="347.2" cy="171.6" rx="14" ry="9.2"/>
</g>
<path style="fill:#324A5E;" d="M322,228.4v-31.2h8c1.2,4,4.4,6.4,9.6,6.4h4V198h7.6v5.6h6.4c4.8,0,8.4,1.2,11.2,4
	c2.8,2.8,4.4,6,4.4,10.8c0,2.8-0.4,5.2-1.6,7.6H362c1.6-2,2.4-4.4,2.4-6.8c0-4-2.8-6-8-6h-5.6v8.8h-7.6v-8.8H340
	c-4.4,0-7.6-1.6-10-4.8v20.4h-8V228.4z"/>
<g>
</g>
<g>
</g>
<g>
</g>
<g>
</g>
<g>
</g>
<g>
</g>
<g>
</g>
<g>
</g>
<g>
</g>
<g>
</g>
<g>
</g>
<g>
</g>
<g>
</g>
<g>
</g>
<g>
</g>
</svg>
