<?xml version="1.0" encoding="iso-8859-1"?>
<!-- Generator: Adobe Illustrator 19.0.0, SVG Export Plug-In . SVG Version: 6.00 Build 0)  -->
<svg version="1.1" id="Layer_1" xmlns="http://www.w3.org/2000/svg" xmlns:xlink="http://www.w3.org/1999/xlink" x="0px" y="0px"
	 viewBox="0 0 508 508" style="enable-background:new 0 0 508 508;" xml:space="preserve">
<circle style="fill:#324A5E;" cx="254" cy="254" r="254"/>
<polygon style="fill:#FFD05B;" points="370.4,305.6 348.8,284 328.4,304.4 245.6,221.6 221.6,245.6 363.2,387.2 387.2,363.2 
	407.6,343.2 386,321.2 365.6,341.6 350,326 "/>
<circle style="fill:#F9B54C;" cx="193.6" cy="193.6" r="86"/>
<path style="fill:#FFD05B;" d="M240,240c-25.6,25.6-67.2,25.6-92.4,0c-25.6-25.6-25.6-67.2,0-92.4s67.2-25.6,92.4,0
	C265.2,172.8,265.2,214.4,240,240z"/>
<path style="fill:#FF7058;" d="M217.2,212.8l6.8,6.8l-4.4,4.4l-6.4-6.4c-4.4,4-9.2,7.2-14.4,8.8L190,218c2-0.4,4.8-1.2,8-2.8
	s5.6-3.2,7.6-4.8l-11.2-11.2c-6.8,3.2-12,4.4-15.6,4c-4-0.4-7.2-2-10.4-5.2s-4.8-7.2-4.8-11.6c0-4.4,1.6-8.8,5.2-13.2l-5.6-5.6
	l4.4-4.4l5.6,5.6c4.4-4,8.4-6.8,12-7.6l8.4,8.4c-4.8,1.2-8.8,3.2-12.8,6.4l11.6,11.6c6-2.8,11.2-4.4,15.2-4c4,0,7.6,1.6,10.4,4.8
	c3.6,3.6,5.2,7.2,5.2,11.6C222.8,204,220.8,208.4,217.2,212.8z M185.6,190.4l-10-10c-2.4,3.2-2.4,6.4,0,8.8
	C178.4,191.6,181.6,192,185.6,190.4z M200.8,196.4l9.2,9.2c2.4-3.6,2.4-6.4,0-8.8C208,194.8,204.8,194.8,200.8,196.4z"/>
<g>
</g>
<g>
</g>
<g>
</g>
<g>
</g>
<g>
</g>
<g>
</g>
<g>
</g>
<g>
</g>
<g>
</g>
<g>
</g>
<g>
</g>
<g>
</g>
<g>
</g>
<g>
</g>
<g>
</g>
</svg>
