<?xml version="1.0" encoding="iso-8859-1"?>
<!-- Generator: Adobe Illustrator 19.0.0, SVG Export Plug-In . SVG Version: 6.00 Build 0)  -->
<svg version="1.1" id="Layer_1" xmlns="http://www.w3.org/2000/svg" xmlns:xlink="http://www.w3.org/1999/xlink" x="0px" y="0px"
	 viewBox="0 0 508 508" style="enable-background:new 0 0 508 508;" xml:space="preserve">
<circle style="fill:#FD8469;" cx="254" cy="254" r="254"/>
<path style="fill:#E6E9EE;" d="M372,152.8H125.2c-2.8,0-5.2,2.4-5.2,5.2v176.8c0,2.8,2.4,5.2,5.2,5.2H372c2.8,0,5.2-2.4,5.2-5.2V158
	C377.2,155.2,375.2,152.8,372,152.8z"/>
<rect x="136" y="168.4" style="fill:#324A5E;" width="225.6" height="155.2"/>
<path style="fill:#E6E9EE;" d="M279.2,357.6v11.6h-60.8v-11.6H102c0,14.8,12,26.8,26.8,26.8h239.6c14.8,0,26.8-12,26.8-26.8H279.2z"
	/>
<rect x="248.8" y="123.6" style="fill:#FFFFFF;" width="157.2" height="95.6"/>
<path style="fill:#4CDBC4;" d="M260.8,191.2v-39.6c8.8,0,16-7.2,16-16H378c0,8.8,7.2,16,16,16v39.6c-8.8,0-16,7.2-16,16H276.8
	C276.8,198.4,269.6,191.2,260.8,191.2z"/>
<ellipse style="fill:#FFFFFF;" cx="327.2" cy="171.2" rx="16" ry="24.8"/>
<g>
	<circle style="fill:#2C9984;" cx="284" cy="171.2" r="7.6"/>
	<circle style="fill:#2C9984;" cx="370.4" cy="171.2" r="7.6"/>
</g>
<path style="fill:#324A5E;" d="M328.4,181.2v3.2h-2v-2.8c-2,0-3.6-0.4-5.2-1.2v-4c0.4,0.4,1.2,0.8,2.4,1.2c1.2,0.4,2,0.4,2.8,0.8
	v-5.2c-2.4-0.8-3.6-1.6-4.4-2.8c-0.8-0.8-1.2-2-1.2-3.6s0.4-2.8,1.6-4s2.4-1.6,4-2V158h2v2.4c2,0,3.6,0.4,4.4,0.8v4
	c-1.2-0.8-2.8-1.2-4.4-1.6v5.2c2,0.8,3.6,1.6,4.4,2.4c0.8,0.8,1.2,2,1.2,3.6s-0.4,2.8-1.6,4C331.6,180.4,330,181.2,328.4,181.2z
	 M326.4,168.8v-4.4c-1.2,0.4-2,0.8-2,2C324.4,167.2,324.8,168,326.4,168.8z M328.4,173.6v4.4c1.2-0.4,2-0.8,2-2
	S329.6,174,328.4,173.6z"/>
<g>
</g>
<g>
</g>
<g>
</g>
<g>
</g>
<g>
</g>
<g>
</g>
<g>
</g>
<g>
</g>
<g>
</g>
<g>
</g>
<g>
</g>
<g>
</g>
<g>
</g>
<g>
</g>
<g>
</g>
</svg>
