<?xml version="1.0" encoding="iso-8859-1"?>
<!-- Generator: Adobe Illustrator 19.0.0, SVG Export Plug-In . SVG Version: 6.00 Build 0)  -->
<svg version="1.1" id="Layer_1" xmlns="http://www.w3.org/2000/svg" xmlns:xlink="http://www.w3.org/1999/xlink" x="0px" y="0px"
	 viewBox="0 0 508 508" style="enable-background:new 0 0 508 508;" xml:space="preserve">
<circle style="fill:#324A5E;" cx="254" cy="254" r="254"/>
<path style="fill:#FFD05B;" d="M247.2,75.6c-53.2,3.2-96,47.2-98.4,100.4c-1.2,26.8,7.6,51.2,23.2,70.4
	c24,29.6,35.6,67.2,35.6,105.2v0.8h93.2v-3.2c0-38,13.6-74.4,36.8-104.4c13.6-17.6,22-40,22-64C359.2,120.4,308.4,71.6,247.2,75.6z"
	/>
<g>
	<path style="fill:#4CDBC4;" d="M295.6,363.6h-83.2c-5.6,0-10.4,4.8-10.4,10.4v0.8c0,5.6,4.8,10.4,10.4,10.4H296
		c5.6,0,10.4-4.8,10.4-10.4V374C306,368,301.6,363.6,295.6,363.6z"/>
	<path style="fill:#4CDBC4;" d="M295.6,392.4h-83.2c-5.6,0-10.4,4.8-10.4,10.4v0.8c0,5.6,4.8,10.4,10.4,10.4H296
		c5.6,0,10.4-4.8,10.4-10.4v-0.8C306,397.2,301.6,392.4,295.6,392.4z"/>
	<path style="fill:#4CDBC4;" d="M224,423.6c0,9.2,7.6,16.8,16.8,16.8h26c9.2,0,16.8-7.6,16.8-16.8H224z"/>
</g>
<polygon style="fill:#FFFFFF;" points="254,98.4 270.8,145.2 315.6,124 294.4,168.8 341.2,185.6 294.4,202.4 315.6,247.2 
	270.8,225.6 254,272.8 237.2,225.6 192.4,247.2 213.6,202.4 166.8,185.6 213.6,168.8 192.4,124 237.2,145.2 "/>
<path style="fill:#324A5E;" d="M256.4,210.8v8h-5.2v-7.6c-4.8,0-9.6-1.2-13.6-3.2v-10c1.2,1.2,3.6,2,6.4,3.2
	c2.8,0.8,5.2,1.6,7.2,1.6v-13.2c-5.6-2-9.6-4.4-11.6-6.8c-2-2.4-3.2-5.6-3.2-8.8c0-3.6,1.2-6.8,4-9.6s6-4,10.4-4.8v-6.8h5.2v6.4
	c5.2,0.4,8.8,1.2,11.2,2.4v9.6c-3.2-2-7.2-3.2-11.2-3.6v13.6c5.2,2,9.2,4,11.2,6.4c2.4,2.4,3.6,5.2,3.6,8.8c0,4-1.2,7.2-4,9.6
	C264.8,208.8,261.2,210,256.4,210.8z M251.2,179.2v-11.6c-3.2,0.8-5.2,2.4-5.2,5.2C246.4,175.6,248,177.6,251.2,179.2z M256.4,191.2
	V202c3.6-0.4,5.2-2.4,5.2-5.2C261.6,194.8,260,192.8,256.4,191.2z"/>
<g>
</g>
<g>
</g>
<g>
</g>
<g>
</g>
<g>
</g>
<g>
</g>
<g>
</g>
<g>
</g>
<g>
</g>
<g>
</g>
<g>
</g>
<g>
</g>
<g>
</g>
<g>
</g>
<g>
</g>
</svg>
