<?xml version="1.0" encoding="iso-8859-1"?>
<!-- Generator: Adobe Illustrator 19.0.0, SVG Export Plug-In . SVG Version: 6.00 Build 0)  -->
<svg version="1.1" id="Layer_1" xmlns="http://www.w3.org/2000/svg" xmlns:xlink="http://www.w3.org/1999/xlink" x="0px" y="0px"
	 viewBox="0 0 508 508" style="enable-background:new 0 0 508 508;" xml:space="preserve">
<circle style="fill:#324A5E;" cx="254" cy="254" r="254"/>
<path style="fill:#E6E9EE;" d="M389.6,178v-7.6h-48.4v-52h-7.6v52h-60.4v-52h-7.6v52h-60.8v-52h-7.6v52h-55.6v7.6h55.6v60.4h-55.6
	v7.6h55.6v60.4h-55.6v7.6h55.6v52h7.6v-52h60.4v52h7.6v-52h60.4v52h7.6v-52h48.4v-7.6h-48V246h48.4v-7.6h-48.4V178H389.6z
	 M204.8,178h60.4v60.4h-60.4V178z M204.8,306.8V246h60.4v60.4L204.8,306.8L204.8,306.8z M333.6,306.8h-60.4V246h60.4V306.8z
	 M333.6,238.4h-60.4V178h60.4V238.4z"/>
<path style="fill:#FF7058;" d="M141.6,372.4c-0.8,0-1.6,0-2.8-0.4c-3.2-1.6-4.4-5.2-2.8-8.4l59.6-126.8c0.8-2,2.8-3.2,4.8-3.6
	c2-0.4,4,0.4,5.6,2l58,65.2l66.8-129.6c1.6-3.2,5.2-4.4,8.4-2.8c3.2,1.6,4.4,5.2,2.8,8.4l-70.8,138c-0.8,2-2.8,3.2-4.8,3.2
	c-2,0.4-4-0.4-5.6-2l-57.6-64.8l-55.6,118C146.4,371.2,144,372.4,141.6,372.4z"/>
<polygon style="fill:#4CDBC4;" points="141.6,366.4 141.6,118.4 118.4,118.4 118.4,389.6 389.6,389.6 389.6,366.4 "/>
<g>
	<circle style="fill:#FFD05B;" cx="202.4" cy="242.4" r="21.2"/>
	<circle style="fill:#FFD05B;" cx="265.6" cy="308" r="21.2"/>
	<circle style="fill:#FFD05B;" cx="336.4" cy="174" r="21.2"/>
</g>
<g>
</g>
<g>
</g>
<g>
</g>
<g>
</g>
<g>
</g>
<g>
</g>
<g>
</g>
<g>
</g>
<g>
</g>
<g>
</g>
<g>
</g>
<g>
</g>
<g>
</g>
<g>
</g>
<g>
</g>
</svg>
