<?xml version="1.0" encoding="iso-8859-1"?>
<!-- Generator: Adobe Illustrator 19.0.0, SVG Export Plug-In . SVG Version: 6.00 Build 0)  -->
<svg version="1.1" id="Layer_1" xmlns="http://www.w3.org/2000/svg" xmlns:xlink="http://www.w3.org/1999/xlink" x="0px" y="0px"
	 viewBox="0 0 508 508" style="enable-background:new 0 0 508 508;" xml:space="preserve">
<circle style="fill:#324A5E;" cx="254" cy="254" r="254"/>
<path style="fill:#E6E9EE;" d="M168,201.6c-15.6-18-30-36.8-43.6-56c-4.4-6-8.8-14-5.2-20.4c3.2-5.6,10.4-6.8,16.8-6.8
	c6.4,0.4,12.8,1.2,18.8-1.2c7.2-3.2,10.8-11.6,17.2-15.6c11.2-7.2,26-0.8,38.8,2.4c17.6,4.4,36.4,2.8,52.8-4.8
	c5.2-2.4,10.4-5.2,16-5.2s10.8,3.6,14.4,8.4c3.2,4.8,5.2,10.4,6.4,16c0.8,3.2,1.2,6.8,0.4,10c-0.8,3.2-3.6,6-5.2,9.2
	c-6,9.2-6.8,21.2-12,30.8c-8.4,15.6-27.6,24-32,41.2"/>
<g>
	<path style="fill:#CED5E0;" d="M154.4,117.2c0,0,1.6,1.6,4,4.8c2.4,3.2,6,7.6,10,13.2c2,2.8,4,6,6,9.2s4.4,6.8,6.4,10.4
		c4.4,7.2,8.8,15.2,13.2,23.2s8,16.4,11.6,24c3.2,8,6.4,15.2,8.4,22c2.4,6.4,4,12,4.8,16s1.6,6.4,1.6,6.4s-1.2-2-3.6-5.2
		c-2-3.2-5.2-8-8.8-14c-2-2.8-3.6-6-5.6-9.6c-2-3.2-4-6.8-6-10.8c-4-7.6-8.4-15.2-12.8-23.6c-4-8-8-16-12-24
		c-3.6-7.6-6.8-14.8-9.6-21.2s-4.8-11.6-6-15.6C155.2,119.2,154.4,117.2,154.4,117.2z"/>
	<path style="fill:#CED5E0;" d="M243.6,105.2c0,0,0,2.4-0.4,6.4s-1.2,10-2.4,16.8c-0.4,3.6-1.2,7.2-2,11.2s-1.6,8-2.8,12.4
		c-2,8.4-4.4,17.6-7.2,26.4c-1.2,4.4-2.8,8.8-4.4,13.2c-1.6,4.4-3.2,8.4-4.8,12.8c-3.2,8-6.4,15.6-9.6,22c-3.2,6.4-6,11.6-8,14.8
		c-2,3.6-3.6,5.6-3.6,5.6s0.4-2.4,1.2-6.4s2-9.6,4-16.4c0.8-3.2,1.6-7.2,2.8-10.8c0.8-4,2-8,3.2-12c2.4-8.4,4.8-17.2,7.6-26
		s5.6-17.6,8.4-26c2.8-8,5.6-16,8.4-22.4c2.4-6.4,4.8-12,6.4-15.6C242.4,107.2,243.6,105.2,243.6,105.2z"/>
</g>
<path style="fill:#4CDBC4;" d="M304.8,347.2c0,54-43.6,67.2-97.6,67.2s-97.6-13.2-97.6-67.2s43.6-165.6,97.6-165.6
	C261.2,181.2,304.8,293.2,304.8,347.2z"/>
<path style="fill:#F9B54C;" d="M406.4,339.2c0,37.6-30.4,68-68,68s-68-30.4-68-68s30.4-68,68-68
	C375.6,271.2,406.4,301.6,406.4,339.2z"/>
<path style="fill:#FFD05B;" d="M338,392c-29.2,0-52.8-23.6-52.8-52.8s24-52.8,52.8-52.8c29.2,0,52.8,23.6,52.8,52.8
	S367.2,392,338,392z"/>
<path style="fill:#F9B54C;" d="M340.4,362.8v7.2h-4.8v-7.2c-4.4,0-8.8-1.2-12.8-3.2V350c1.2,1.2,3.2,2,6,2.8s4.8,1.6,6.8,1.6V342
	c-5.2-2-8.8-4-10.8-6.4c-2-1.6-2.8-4.4-2.8-7.6c0-3.6,1.2-6.4,3.6-9.2c2.4-2.4,6-4,10-4.4V308h4.8v6c4.8,0.4,8.4,0.8,10.8,2.4v9.6
	c-3.2-2-6.8-3.2-10.8-3.6v12.8c4.8,1.6,8.4,4,10.8,6c2,2.4,3.2,5.2,3.2,8.4c0,3.6-1.2,6.8-3.6,9.2S344.8,362.4,340.4,362.8z
	 M335.6,333.2v-10.8c-3.2,0.4-4.8,2.4-4.8,4.8C330.8,329.6,332.4,331.6,335.6,333.2z M340.4,344.8v10.4c3.2-0.4,4.8-2,4.8-4.8
	C345.2,348,343.6,346,340.4,344.8z"/>
<g>
</g>
<g>
</g>
<g>
</g>
<g>
</g>
<g>
</g>
<g>
</g>
<g>
</g>
<g>
</g>
<g>
</g>
<g>
</g>
<g>
</g>
<g>
</g>
<g>
</g>
<g>
</g>
<g>
</g>
</svg>
