<?xml version="1.0" encoding="iso-8859-1"?>
<!-- Generator: Adobe Illustrator 19.0.0, SVG Export Plug-In . SVG Version: 6.00 Build 0)  -->
<svg version="1.1" id="Layer_1" xmlns="http://www.w3.org/2000/svg" xmlns:xlink="http://www.w3.org/1999/xlink" x="0px" y="0px"
	 viewBox="0 0 508 508" style="enable-background:new 0 0 508 508;" xml:space="preserve">
<circle style="fill:#90DFAA;" cx="254" cy="254" r="254"/>
<path style="fill:#FF7058;" d="M351.6,128.8H156.4l67.2,194.8L419.2,302V196C419.2,158.8,388.8,128.8,351.6,128.8z"/>
<path style="fill:#F1543F;" d="M156.4,128.8c-37.2,0-67.2,30-67.2,67.2v110.4l134.4,17.2V196C223.6,158.8,193.2,128.8,156.4,128.8z"
	/>
<polygon style="fill:#324A5E;" points="419.2,222.8 223.6,239.6 223.6,252.8 419.2,236 "/>
<polygon style="fill:#2B3B4E;" points="223.6,239.6 88.8,226.4 88.8,239.6 222.8,252.8 223.6,252.8 223.6,252.8 "/>
<path style="fill:#FFD05B;" d="M350,199.2l-38,2.8c-1.2,0-2,1.2-2,2v16.4c0,1.2,1.2,2.4,2.4,2l8.4-0.8v43.2c0,2,1.6,3.6,3.6,3.6
	l14.4-0.8c2,0,3.2-1.6,3.2-3.6v-44l8-0.8c1.2,0,2-1.2,2-2v-16.4C352,200,351.2,199.2,350,199.2z"/>
<path style="fill:#324A5E;" d="M332.4,240c-1.6,0-2.8,1.2-2.8,2.8v14.4c0,1.6,1.2,2.8,2.8,2.8c1.6,0,2.8-1.2,2.8-2.8v-14.4
	C335.2,241.2,333.6,240,332.4,240z"/>
<circle style="fill:#FFD05B;" cx="192.4" cy="340.4" r="70.4"/>
<path style="fill:#FFFFFF;" d="M192.4,394c-29.6,0-53.6-24-53.6-53.6s24-53.6,53.6-53.6s53.6,24,53.6,53.6
	C246.4,370,222,394,192.4,394z"/>
<path style="fill:#324A5E;" d="M195.6,368.4v8.8h-6v-8.4c-5.6,0-10.4-1.2-15.2-3.6V354c1.6,1.2,4,2.4,6.8,3.6c3.2,1.2,5.6,1.6,8,2
	v-14.4c-6.4-2.4-10.4-4.8-12.8-7.6c-2.4-2.8-3.6-6-3.6-10s1.6-7.6,4.4-10.8c2.8-2.8,6.8-4.8,11.6-5.2V304h6v7.2
	c5.6,0.4,10,1.2,12.4,2.8v10.8c-3.6-2.4-8-3.6-12.4-4V336c6,2,10,4.4,12.4,7.2c2.4,2.8,3.6,6,3.6,10c0,4.4-1.6,8-4.4,10.8
	C204.8,366,200.8,367.6,195.6,368.4z M189.6,333.6v-12.8c-3.6,0.8-5.6,2.4-5.6,5.6C184,329.2,186,331.6,189.6,333.6z M195.6,346.8
	v12c4-0.4,5.6-2.4,5.6-5.6C201.2,350.8,199.2,348.4,195.6,346.8z"/>
<g>
</g>
<g>
</g>
<g>
</g>
<g>
</g>
<g>
</g>
<g>
</g>
<g>
</g>
<g>
</g>
<g>
</g>
<g>
</g>
<g>
</g>
<g>
</g>
<g>
</g>
<g>
</g>
<g>
</g>
</svg>
