<?xml version="1.0" encoding="iso-8859-1"?>
<!-- Generator: Adobe Illustrator 19.0.0, SVG Export Plug-In . SVG Version: 6.00 Build 0)  -->
<svg version="1.1" id="Layer_1" xmlns="http://www.w3.org/2000/svg" xmlns:xlink="http://www.w3.org/1999/xlink" x="0px" y="0px"
	 viewBox="0 0 508 508" style="enable-background:new 0 0 508 508;" xml:space="preserve">
<circle style="fill:#84DBFF;" cx="254" cy="254" r="254"/>
<path style="fill:#FF7058;" d="M152.8,254.8c-4.4,15.6-6.8,32.8-6.8,50.4c0,78,46.4,141.6,104,141.6s104-63.2,104-141.6
	c0-18-2.4-34.8-6.8-50.4H152.8z"/>
<path style="fill:#FFFFFF;" d="M250,164c-44.4,0-82.4,38-97.2,91.2h194.4C332.4,201.6,294.4,164,250,164z"/>
<path style="fill:#324A5E;" d="M250,185.6c-6,0-10.8,5.2-10.8,12v29.6c0,6.4,4.8,12,10.8,12s10.8-5.2,10.8-12v-29.6
	C260.8,190.8,256,185.6,250,185.6z"/>
<path style="fill:#334A5E;" d="M257.6,164H242v-21.2c0-14.4,11.6-26,26-26h56.4c5.6,0,10.4-4.8,10.4-10.4S330,96,324.4,96h-140V80.4
	h140c14.4,0,26,11.6,26,26s-11.6,26-26,26h-56c-5.6,0-10.4,4.8-10.4,10.4V164H257.6z"/>
<g>
</g>
<g>
</g>
<g>
</g>
<g>
</g>
<g>
</g>
<g>
</g>
<g>
</g>
<g>
</g>
<g>
</g>
<g>
</g>
<g>
</g>
<g>
</g>
<g>
</g>
<g>
</g>
<g>
</g>
</svg>
