<?xml version="1.0" encoding="iso-8859-1"?>
<!-- Generator: Adobe Illustrator 19.0.0, SVG Export Plug-In . SVG Version: 6.00 Build 0)  -->
<svg version="1.1" id="Layer_1" xmlns="http://www.w3.org/2000/svg" xmlns:xlink="http://www.w3.org/1999/xlink" x="0px" y="0px"
	 viewBox="0 0 508 508" style="enable-background:new 0 0 508 508;" xml:space="preserve">
<circle style="fill:#FD8469;" cx="254" cy="254" r="254"/>
<path style="fill:#4CDBC4;" d="M363.2,106H144.8c-7.2,0-12.8,5.6-12.8,12.8v276.4c0,7.2,5.6,12.8,12.8,12.8h218.4
	c7.2,0,12.8-5.6,12.8-12.8V118.4C376,111.6,370.4,106,363.2,106z"/>
<rect x="160" y="134" style="fill:#FFFFFF;" width="187.6" height="245.6"/>
<rect x="203.2" y="117.6" style="fill:#2B3B4E;" width="101.6" height="32.4"/>
<g>
	<path style="fill:#324A5E;" d="M304.8,98c0-6.4-5.2-11.6-11.6-11.6h-20.8V71.2c0-10-8-18-18-18s-18,8-18,18v15.2h-20.8
		c-6.4,0-11.6,5.2-11.6,11.6v19.6h101.6V98H304.8z M254,76c-3.6,0-6.4-2.8-6.4-6.4s2.8-6.4,6.4-6.4c3.6,0,6.4,2.8,6.4,6.4
		S257.6,76,254,76z"/>
	<path style="fill:#324A5E;" d="M259.6,310.8v16.8h-11.2v-16.4c-10.4,0-20-2.4-29.2-7.2v-21.6c2.8,2.4,7.6,4.8,13.2,6.8
		c6,2,11.2,3.2,16,3.6v-28c-12-4.4-20.4-9.2-24.8-14.4c-4.4-5.2-6.8-11.6-6.8-19.2c0-8,2.8-14.8,8.4-20.8c5.6-5.6,13.2-9.2,22.8-10
		V186h11.2v14c10.8,0.4,18.8,2.4,24.4,5.2V226c-7.2-4.4-15.2-7.2-24.4-8v29.2c11.2,4,19.2,8.8,24.4,14c4.8,5.2,7.2,11.6,7.2,18.8
		c0,8.4-2.8,15.6-8,20.8C277.6,306.4,269.6,309.6,259.6,310.8z M248.4,242.8v-24.4c-7.2,1.2-10.8,5.2-10.8,11.2
		C237.6,235.2,241.2,239.6,248.4,242.8z M259.6,269.2v23.6c7.2-1.2,11.2-4.8,11.2-11.2C270.4,276.4,266.8,272.4,259.6,269.2z"/>
</g>
<g>
</g>
<g>
</g>
<g>
</g>
<g>
</g>
<g>
</g>
<g>
</g>
<g>
</g>
<g>
</g>
<g>
</g>
<g>
</g>
<g>
</g>
<g>
</g>
<g>
</g>
<g>
</g>
<g>
</g>
</svg>
