<?xml version="1.0" encoding="iso-8859-1"?>
<!-- Generator: Adobe Illustrator 19.0.0, SVG Export Plug-In . SVG Version: 6.00 Build 0)  -->
<svg version="1.1" id="Layer_1" xmlns="http://www.w3.org/2000/svg" xmlns:xlink="http://www.w3.org/1999/xlink" x="0px" y="0px"
	 viewBox="0 0 508 508" style="enable-background:new 0 0 508 508;" xml:space="preserve">
<circle style="fill:#90DFAA;" cx="254" cy="254" r="254"/>
<polygon style="fill:#FFFFFF;" points="285.2,119.6 222.8,119.6 187.6,181.2 154.8,238 353.2,236.8 320.4,181.2 "/>
<polygon style="fill:#324A5E;" points="254,64.4 222.8,119.6 285.2,119.6 "/>
<rect x="154.8" y="238" style="fill:#FF7058;" width="66.4" height="174"/>
<polygon style="fill:#F1543F;" points="220.8,236.8 187.6,181.2 154.8,236.8 154.8,238 220.8,238 "/>
<rect x="220.8" y="238" style="fill:#FFD05B;" width="66.4" height="174"/>
<polygon style="fill:#F9B54C;" points="287.2,238 287.2,236.8 254,181.2 220.8,236.8 220.8,238 "/>
<polygon style="fill:#F1543F;" points="353.2,238 353.2,236.8 320.4,181.2 287.2,236.8 287.2,238 "/>
<rect x="287.2" y="238" style="fill:#FF7058;" width="66.4" height="174"/>
<g>
</g>
<g>
</g>
<g>
</g>
<g>
</g>
<g>
</g>
<g>
</g>
<g>
</g>
<g>
</g>
<g>
</g>
<g>
</g>
<g>
</g>
<g>
</g>
<g>
</g>
<g>
</g>
<g>
</g>
</svg>
