<?xml version="1.0" encoding="iso-8859-1"?>
<!-- Generator: Adobe Illustrator 19.0.0, SVG Export Plug-In . SVG Version: 6.00 Build 0)  -->
<svg version="1.1" id="Layer_1" xmlns="http://www.w3.org/2000/svg" xmlns:xlink="http://www.w3.org/1999/xlink" x="0px" y="0px"
	 viewBox="0 0 508 508" style="enable-background:new 0 0 508 508;" xml:space="preserve">
<circle style="fill:#90DFAA;" cx="254" cy="254" r="254"/>
<path style="fill:#FFFFFF;" d="M121.2,388.8c34,33.6,80.8,54.4,132.8,54.4c51.6,0,98.4-20.8,132.8-54.4L254,256L121.2,388.8z"/>
<path style="fill:#E6E9EE;" d="M386.8,388.8c34.8-34.4,56.4-82,56.4-134.8c0-51.6-20.8-98.4-54.4-132.8
	c-34.4-34.8-82-56.4-134.8-56.4V256L386.8,388.8z"/>
<path style="fill:#324A5E;" d="M121.2,388.8L254,256V64.8c-52.8,0-100.4,21.6-134.8,56.4C85.6,155.6,64.8,202.4,64.8,254
	C64.8,306.8,86.4,354.4,121.2,388.8z"/>
<g>
</g>
<g>
</g>
<g>
</g>
<g>
</g>
<g>
</g>
<g>
</g>
<g>
</g>
<g>
</g>
<g>
</g>
<g>
</g>
<g>
</g>
<g>
</g>
<g>
</g>
<g>
</g>
<g>
</g>
</svg>
