<?xml version="1.0" encoding="iso-8859-1"?>
<!-- Generator: Adobe Illustrator 19.0.0, SVG Export Plug-In . SVG Version: 6.00 Build 0)  -->
<svg version="1.1" id="Layer_1" xmlns="http://www.w3.org/2000/svg" xmlns:xlink="http://www.w3.org/1999/xlink" x="0px" y="0px"
	 viewBox="0 0 508.256 508.256" style="enable-background:new 0 0 508.256 508.256;" xml:space="preserve">
<path style="fill:#FD8469;" d="M0.117,262.717c-4.4-146.8,115.6-266.8,262.4-262.4c132.8,4.4,241.2,112.4,245.6,245.6
	c4.8,146.8-115.2,266.8-262,262C112.917,503.917,4.517,395.517,0.117,262.717z"/>
<path style="fill:#4CDBC4;" d="M390.517,208.717c0,75.6-136.4,227.6-136.4,227.6s-136.4-152-136.4-227.6s61.2-136.4,136.4-136.4
	S390.517,133.517,390.517,208.717z"/>
<circle style="fill:#FFFFFF;" cx="254.117" cy="201.917" r="82.8"/>
<path style="fill:#324A5E;" d="M257.717,237.917v11.2h-7.6v-10.8c-7.2,0-13.6-1.6-19.6-4.8v-14.4c2,1.6,4.8,3.2,8.8,4.4
	s7.6,2,10.8,2.4v-18.8c-8-3.2-13.6-6.4-16.4-9.6c-2.8-3.6-4.4-7.6-4.4-12.8c0-5.6,2-10,5.6-14c4-4,8.8-6,15.2-6.8v-9.6h7.6v9.6
	c7.2,0.4,12.8,1.6,16.4,3.6v14c-4.8-2.8-10.4-4.8-16.4-5.2v19.6c7.6,2.8,12.8,6,16.4,9.2c3.2,3.6,4.8,7.6,4.8,12.8
	c0,5.6-2,10.4-5.6,14C269.717,235.117,264.517,237.117,257.717,237.917z M250.117,192.717v-16.4c-4.8,0.8-7.2,3.2-7.2,7.6
	C242.917,187.117,245.317,190.317,250.117,192.717z M257.717,209.917v15.6c4.8-0.8,7.6-3.2,7.6-7.6
	C265.317,215.117,262.917,212.317,257.717,209.917z"/>
<g>
</g>
<g>
</g>
<g>
</g>
<g>
</g>
<g>
</g>
<g>
</g>
<g>
</g>
<g>
</g>
<g>
</g>
<g>
</g>
<g>
</g>
<g>
</g>
<g>
</g>
<g>
</g>
<g>
</g>
</svg>
