<?xml version="1.0" encoding="iso-8859-1"?>
<!-- Generator: Adobe Illustrator 19.0.0, SVG Export Plug-In . SVG Version: 6.00 Build 0)  -->
<svg version="1.1" id="Layer_1" xmlns="http://www.w3.org/2000/svg" xmlns:xlink="http://www.w3.org/1999/xlink" x="0px" y="0px"
	 viewBox="0 0 508 508" style="enable-background:new 0 0 508 508;" xml:space="preserve">
<circle style="fill:#84DBFF;" cx="254" cy="254" r="254"/>
<path style="fill:#324A5E;" d="M264.4,354.8v-31.2h-21.2v31.2c-12.4,4.4-20.8,16-20.8,29.6c0,17.6,14,31.6,31.6,31.6
	s31.6-14,31.6-31.6C285.6,370.8,276.8,359.2,264.4,354.8z M254,400.4c-8.8,0-15.6-7.2-15.6-15.6c0-8.8,7.2-15.6,15.6-15.6
	c8.4,0,15.6,7.2,15.6,15.6C269.6,393.2,262.8,400.4,254,400.4z"/>
<rect x="114.8" y="123.6" style="fill:#FFFFFF;" width="278.4" height="214.8"/>
<rect x="101.6" y="123.6" style="fill:#FF7058;" width="304.4" height="26"/>
<polygon style="fill:#4CDBC4;" points="333.6,204 294.4,204 307.2,216.8 276.4,247.6 239.2,210.8 174.4,275.6 188.4,289.6 
	239.2,238.8 276.4,275.6 321.2,230.8 333.6,243.2 "/>
<g>
</g>
<g>
</g>
<g>
</g>
<g>
</g>
<g>
</g>
<g>
</g>
<g>
</g>
<g>
</g>
<g>
</g>
<g>
</g>
<g>
</g>
<g>
</g>
<g>
</g>
<g>
</g>
<g>
</g>
</svg>
