<?xml version="1.0" encoding="iso-8859-1"?>
<!-- Generator: Adobe Illustrator 19.0.0, SVG Export Plug-In . SVG Version: 6.00 Build 0)  -->
<svg version="1.1" id="Layer_1" xmlns="http://www.w3.org/2000/svg" xmlns:xlink="http://www.w3.org/1999/xlink" x="0px" y="0px"
	 viewBox="0 0 508 508" style="enable-background:new 0 0 508 508;" xml:space="preserve">
<circle style="fill:#FD8469;" cx="254" cy="254" r="254"/>
<g>
	<rect x="149.2" y="378" style="fill:#324A5E;" width="29.2" height="18.4"/>
	<rect x="329.2" y="378" style="fill:#324A5E;" width="29.2" height="18.4"/>
</g>
<path style="fill:#E6E9EE;" d="M386.8,111.6H121.2c-5.2,0-9.2,4-9.2,9.2v248c0,5.2,4,9.2,9.2,9.2h266c5.2,0,9.2-4,9.2-9.2v-248
	C396,116,392,111.6,386.8,111.6z"/>
<rect x="135.6" y="135.6" style="fill:#4CDBC4;" width="236.4" height="218.4"/>
<g>
	<path style="fill:#324A5E;" d="M312.4,233.2l-20,1.6c-3.6-14-14.8-25.2-28.8-28.8l1.6-20c0.4-6.8-4.8-12.8-11.6-12.8
		c-6.8,0-12,6-11.6,12.8l1.6,20c-14,3.6-25.2,14.8-28.8,28.8l-20-1.6c-6.8-0.4-12.8,4.8-12.8,11.6s6,12,12.8,11.6l20-1.6
		c3.6,14,14.8,25.2,28.8,28.8l-1.6,20c0,6.4,5.2,12.4,12,12.4c6.8,0,12-6,11.6-12.8l-1.6-20c14-3.6,25.2-14.8,28.8-28.8l20,1.6
		c6.8,0.4,12.8-4.8,12.8-11.6C325.2,238,319.2,232.4,312.4,233.2z M254,266.4c-12,0-21.6-9.6-21.6-21.6s9.6-21.6,21.6-21.6
		s21.6,9.6,21.6,21.6S266,266.4,254,266.4z"/>
	<circle style="fill:#324A5E;" cx="254" cy="244.8" r="9.6"/>
</g>
<g>
</g>
<g>
</g>
<g>
</g>
<g>
</g>
<g>
</g>
<g>
</g>
<g>
</g>
<g>
</g>
<g>
</g>
<g>
</g>
<g>
</g>
<g>
</g>
<g>
</g>
<g>
</g>
<g>
</g>
</svg>
