<?xml version="1.0" encoding="iso-8859-1"?>
<!-- Generator: Adobe Illustrator 19.0.0, SVG Export Plug-In . SVG Version: 6.00 Build 0)  -->
<svg version="1.1" id="Layer_1" xmlns="http://www.w3.org/2000/svg" xmlns:xlink="http://www.w3.org/1999/xlink" x="0px" y="0px"
	 viewBox="0 0 508 508" style="enable-background:new 0 0 508 508;" xml:space="preserve">
<circle style="fill:#324A5E;" cx="254" cy="254" r="254"/>
<path style="fill:#FFFFFF;" d="M380.4,112.4H127.6c-6.8,0-12,5.2-12,12v242.4c0,6.8,5.2,12,12,12h253.2c6.8,0,12-5.2,12-12V124
	C392.4,117.6,387.2,112.4,380.4,112.4z"/>
<rect x="141.2" y="138" style="fill:#E6E9EE;" width="216.4" height="214.8"/>
<g>
	<rect x="344.8" y="162" style="fill:#324A5E;" width="26.4" height="62.4"/>
	<rect x="344.8" y="266.4" style="fill:#324A5E;" width="26.4" height="62.4"/>
</g>
<g>
	<rect x="145.6" y="378.4" style="fill:#84DBFF;" width="31.2" height="17.6"/>
	<rect x="331.2" y="378.4" style="fill:#84DBFF;" width="31.2" height="17.6"/>
</g>
<path style="fill:#FF7058;" d="M312.8,254.8v-19.2l-16-2.8c-1.2-4.4-2.8-8.8-5.2-12.4l9.6-13.2l-13.6-13.6l-13.6,9.6
	c-4-2.4-8-4-12.4-5.2l-0.4-2.4l-2-13.6H240l-2,13.6l-0.8,2.4c-4.4,1.2-8.8,2.8-12.4,5.2l-13.2-9.6L198,207.2l9.6,13.2
	c-2.4,4-4,8-5.2,12.4l-16,2.8v19.2l16,2.8c1.2,4.4,2.8,8.8,5.2,12.4l-9.6,13.2l13.6,13.6l13.2-9.6c4,2.4,8,4,12.4,5.2l2.8,16h19.2
	l2.8-16c4.4-1.2,8.8-2.8,12.4-5.2l13.2,9.6l13.6-13.6l-9.6-13.2c2.4-4,4-8,5.2-12.4L312.8,254.8z M249.6,273.2
	c-15.6,0-28-12.4-28-28s12.4-28,28-28s28,12.4,28,28C277.6,260.8,264.8,273.2,249.6,273.2z"/>
<g>
</g>
<g>
</g>
<g>
</g>
<g>
</g>
<g>
</g>
<g>
</g>
<g>
</g>
<g>
</g>
<g>
</g>
<g>
</g>
<g>
</g>
<g>
</g>
<g>
</g>
<g>
</g>
<g>
</g>
</svg>
