<?xml version="1.0" encoding="iso-8859-1"?>
<!-- Generator: Adobe Illustrator 19.0.0, SVG Export Plug-In . SVG Version: 6.00 Build 0)  -->
<svg version="1.1" id="Layer_1" xmlns="http://www.w3.org/2000/svg" xmlns:xlink="http://www.w3.org/1999/xlink" x="0px" y="0px"
	 viewBox="0 0 508 508" style="enable-background:new 0 0 508 508;" xml:space="preserve">
<circle style="fill:#FD8469;" cx="254" cy="254" r="254"/>
<rect x="249.875" y="234.275" transform="matrix(-0.7071 0.7071 -0.7071 -0.7071 650.429 269.1326)" style="fill:#2B3B4E;" width="39.2" height="69.999"/>
<circle style="fill:#324A5E;" cx="197.2" cy="197.2" r="108.8"/>
<circle style="fill:#E6E9EE;" cx="197.2" cy="197.2" r="71.6"/>
<path style="fill:#4CDBC4;" d="M390.4,337.6l-78-66.4c-1.6-1.2-3.6-1.2-4.8,0l-36.4,36.4c-1.2,1.2-1.2,3.6,0,4.8l66.4,78
	c14.4,16.4,39.6,17.2,54.8,2l0,0C408,377.2,406.8,352,390.4,337.6z"/>
<path style="fill:#F9B54C;" d="M200.4,227.2v9.2H194v-9.2c-6,0-11.2-1.2-16.4-4v-12c1.6,1.2,4,2.8,7.6,3.6c3.2,1.2,6.4,2,8.8,2
	v-15.6c-6.8-2.4-11.2-5.2-14-8c-2.4-2.8-3.6-6.4-3.6-10.8c0-4.4,1.6-8.4,4.8-11.6c3.2-3.2,7.6-5.2,12.8-5.6v-8h6.4v8
	c6,0.4,10.8,1.2,13.6,2.8v11.6c-4-2.4-8.4-4-13.6-4.4v16.4c6.4,2.4,10.8,4.8,13.6,8c2.8,2.8,4,6.4,4,10.8c0,4.8-1.6,8.8-4.4,11.6
	C210.4,224.8,206,226.8,200.4,227.2z M194,189.6V176c-4,0.8-6,2.8-6,6.4C188,185.2,190,187.6,194,189.6z M200.4,204v13.2
	c4-0.8,6-2.8,6-6C206.4,208.4,204.4,206,200.4,204z"/>
<g>
</g>
<g>
</g>
<g>
</g>
<g>
</g>
<g>
</g>
<g>
</g>
<g>
</g>
<g>
</g>
<g>
</g>
<g>
</g>
<g>
</g>
<g>
</g>
<g>
</g>
<g>
</g>
<g>
</g>
</svg>
