<?xml version="1.0" encoding="iso-8859-1"?>
<!-- Generator: Adobe Illustrator 19.0.0, SVG Export Plug-In . SVG Version: 6.00 Build 0)  -->
<svg version="1.1" id="Layer_1" xmlns="http://www.w3.org/2000/svg" xmlns:xlink="http://www.w3.org/1999/xlink" x="0px" y="0px"
	 viewBox="0 0 508 508" style="enable-background:new 0 0 508 508;" xml:space="preserve">
<circle style="fill:#90DFAA;" cx="254" cy="254" r="254"/>
<path style="fill:#324A5E;" d="M264,264V57.2c0-5.6-4.4-10-10-10s-10,4.4-10,10V264H264z"/>
<rect x="139.6" y="257.6" style="fill:#FFFFFF;" width="228.8" height="139.2"/>
<path style="fill:#CED5E0;" d="M156.8,356.4v-58c12.8,0,23.2-10.4,23.2-23.2h147.6c0,12.8,10.4,23.2,23.2,23.2v58
	c-12.8,0-23.2,10.4-23.2,23.2H180C180,366.8,169.6,356.4,156.8,356.4z"/>
<ellipse style="fill:#FFFFFF;" cx="254" cy="327.6" rx="23.2" ry="36.4"/>
<g>
	<circle style="fill:#324A5E;" cx="191.2" cy="327.6" r="11.2"/>
	<circle style="fill:#324A5E;" cx="316.8" cy="327.6" r="11.2"/>
	<path style="fill:#324A5E;" d="M255.6,342v4.4h-3.2V342c-2.8,0-5.6-0.8-8-2v-5.6c0.8,0.8,2,1.2,3.6,2c1.6,0.4,3.2,0.8,4.4,0.8v-7.6
		c-3.2-1.2-5.6-2.4-6.8-4s-1.6-3.2-1.6-5.2s0.8-4,2.4-5.6c1.6-1.6,3.6-2.4,6-2.8v-4h3.2v3.6c2.8,0,5.2,0.8,6.4,1.6v5.6
		c-2-1.2-4-2-6.4-2v8c3.2,1.2,5.2,2.4,6.4,3.6c1.2,1.6,2,3.2,2,5.2c0,2.4-0.8,4-2,5.6C260.4,340.8,258,341.6,255.6,342z
		 M252.4,323.6v-6.4c-2,0.4-2.8,1.2-2.8,3.2C249.6,321.6,250.4,322.8,252.4,323.6z M255.6,330.8v6.4c2-0.4,2.8-1.2,2.8-2.8
		C258.4,332.8,257.6,331.6,255.6,330.8z"/>
</g>
<path style="fill:#FFFFFF;" d="M158,229.6c10.8-15.6,28.8-25.6,48.8-25.6c19.2,0,36.4,9.2,47.2,23.2V71.6
	C158.4,115.2,158,229.6,158,229.6z"/>
<g>
	<path style="fill:#FF7058;" d="M254,71.6c-82.4,0-151.2,58.8-166.8,136.4c6.8-2.8,14.4-4.4,22-4.4c20.4,0,38,10,48.8,25.6
		C158,229.6,158.4,115.2,254,71.6z"/>
	<path style="fill:#FF7058;" d="M254,71.6c95.6,43.6,96,158,96,158l0,0c10.8-15.6,28.8-25.6,48.8-25.6c8,0,15.2,1.6,22,4.4
		C405.2,130.4,336.4,71.6,254,71.6z"/>
</g>
<path style="fill:#FFD05B;" d="M254,71.6v155.6l0,0c10.8-14,28-23.2,47.2-23.2c20.4,0,38,10,48.8,25.6
	C350,229.6,349.6,115.2,254,71.6z"/>
<g>
</g>
<g>
</g>
<g>
</g>
<g>
</g>
<g>
</g>
<g>
</g>
<g>
</g>
<g>
</g>
<g>
</g>
<g>
</g>
<g>
</g>
<g>
</g>
<g>
</g>
<g>
</g>
<g>
</g>
</svg>
