<?xml version="1.0" encoding="iso-8859-1"?>
<!-- Generator: Adobe Illustrator 19.0.0, SVG Export Plug-In . SVG Version: 6.00 Build 0)  -->
<svg version="1.1" id="Layer_1" xmlns="http://www.w3.org/2000/svg" xmlns:xlink="http://www.w3.org/1999/xlink" x="0px" y="0px"
	 viewBox="0 0 508 508" style="enable-background:new 0 0 508 508;" xml:space="preserve">
<circle style="fill:#90DFAA;" cx="254" cy="254" r="254"/>
<path style="fill:#324A5E;" d="M254,54.8c-4.8,0-8.4,3.2-8.4,7.6v188.8h16.8V62C262.4,58,258.8,54.8,254,54.8z"/>
<path style="fill:#FF7058;" d="M256.4,76.8c-0.8,0-1.6,0-2.4,0c-0.8,0-1.6,0-2.4,0C167.6,78,98,140.4,86,221.2
	c10.8-8,24.4-12.8,39.2-12.8c16.4,0,31.2,6,42.8,15.6c3.6-19.2,24-108,86-146c62,38,82,126.4,86,146c11.6-9.6,26.4-15.6,42.8-15.6
	c14.8,0,28,4.8,39.2,12.8C409.6,140.4,340.4,78,256.4,76.8z"/>
<path style="fill:#FFFFFF;" d="M168.4,224.4L168.4,224.4c11.6-10,26.4-15.6,42.8-15.6s31.2,6,42.8,16l0,0V78.4
	C192,116.4,172,205.2,168.4,224.4z"/>
<g>
	<path style="fill:#FFD05B;" d="M254,78.4L254,78.4v146c11.6-10,26.4-16,42.8-16s31.2,6,42.8,16l0,0C336,204.8,316,116.4,254,78.4z"
		/>
	<circle style="fill:#FFD05B;" cx="254" cy="364" r="89.2"/>
</g>
<circle style="fill:#F9B54C;" cx="254" cy="364" r="68"/>
<path style="fill:#324A5E;" d="M257.2,394.4v9.2h-6.4v-9.2c-6,0-11.2-1.2-16.4-4v-12c1.6,1.2,4,2.8,7.6,3.6c3.2,1.2,6.4,2,8.8,2
	v-15.6c-6.8-2.4-11.2-5.2-13.6-8c-2.4-2.8-3.6-6.4-3.6-10.8s1.6-8.4,4.8-11.6s7.6-5.2,12.8-5.6v-8h6.4v8c6,0.4,10.8,1.2,13.6,2.8
	v11.6c-4-2.4-8.4-4-13.6-4.4v16.4c6.4,2.4,10.8,4.8,13.6,7.6c2.8,2.8,4,6.4,4,10.4c0,4.8-1.6,8.8-4.4,11.6
	C267.2,392,262.8,393.6,257.2,394.4z M250.8,356.4v-13.6c-4,0.8-6,2.8-6,6.4C244.8,352,246.8,354.4,250.8,356.4z M257.2,371.2v13.2
	c4-0.8,6-2.8,6-6S261.2,372.8,257.2,371.2z"/>
<g>
</g>
<g>
</g>
<g>
</g>
<g>
</g>
<g>
</g>
<g>
</g>
<g>
</g>
<g>
</g>
<g>
</g>
<g>
</g>
<g>
</g>
<g>
</g>
<g>
</g>
<g>
</g>
<g>
</g>
</svg>
