<?xml version="1.0" encoding="iso-8859-1"?>
<!-- Generator: Adobe Illustrator 19.0.0, SVG Export Plug-In . SVG Version: 6.00 Build 0)  -->
<svg version="1.1" id="Layer_1" xmlns="http://www.w3.org/2000/svg" xmlns:xlink="http://www.w3.org/1999/xlink" x="0px" y="0px"
	 viewBox="0 0 508 508" style="enable-background:new 0 0 508 508;" xml:space="preserve">
<circle style="fill:#90DFAA;" cx="254" cy="254" r="254"/>
<path style="fill:#FFFFFF;" d="M293.2,238v-32.8l-26.4-4c-2-7.2-4.8-14.4-8.8-20.8l16-21.6l-23.2-23.2l-21.6,16
	c-6.4-4-13.6-6.8-20.8-8.8l-4-26.4h-32.8l-4,26.4c-7.2,2-14.4,4.8-20.8,8.8l-21.6-16L102,158.8l16,21.6c-4,6.4-6.8,13.6-8.8,20.8
	l-26.4,4V238l26.4,4c2,7.2,4.8,14.4,8.8,20.8l-16,21.6l23.2,23.2l21.6-16c6.4,4,13.6,6.8,20.8,8.8l4,26.4h32.8l4-26.4
	c7.2-2,14.4-4.8,20.8-8.8l21.6,16l23.2-23.2l-16-21.6c4-6.4,6.8-13.6,8.8-20.8L293.2,238z M187.6,272c-27.6,0-50.4-22.4-50.4-50.4
	c0-27.6,22.4-50.4,50.4-50.4S238,194,238,221.6C238,249.6,215.2,272,187.6,272z"/>
<path style="fill:#324A5E;" d="M426,326.8v-24l-19.2-2.8c-1.2-5.2-3.6-10.4-6.4-15.2l11.6-15.6l-16.8-16.8L379.6,264
	c-4.8-2.8-10-4.8-15.2-6.4l-3.6-19.6h-24l-2.8,19.2c-5.2,1.2-10.4,3.6-15.2,6.4L303.2,252L286,268.8l11.6,15.6
	c-2.8,4.8-4.8,10-6.4,15.2l-19.2,2.8v24l19.2,2.8c1.2,5.2,3.6,10.4,6.4,15.2L286,360.8l16.8,16.8l15.6-11.6c4.8,2.8,10,4.8,15.2,6.4
	l2.8,19.2h24l2.8-19.2c5.2-1.2,10.4-3.6,15.2-6.4l15.6,11.6l16.8-16.8l-11.6-15.6c2.8-4.8,4.8-10,6.4-15.2L426,326.8z M348.8,351.6
	c-20.4,0-36.8-16.4-36.8-36.8s16.4-36.8,36.8-36.8s36.8,16.4,36.8,36.8C385.6,335.2,369.2,351.6,348.8,351.6z"/>
<path style="fill:#FFFFFF;" d="M190.4,250v8.8h-6v-8.4c-5.6,0-10.8-1.2-15.2-3.6v-11.2c1.6,1.2,4,2.4,7.2,3.6c3.2,1.2,6,1.6,8.4,2
	V226c-6.4-2.4-10.8-4.8-12.8-7.6c-2.4-2.8-3.6-6-3.6-10c0-4.4,1.6-8,4.4-10.8c3.2-2.8,6.8-4.8,12-5.2v-7.6h6v7.2
	c5.6,0.4,10,1.2,12.8,2.8v10.8c-3.6-2.4-8-3.6-12.8-4.4v15.6c6,2,10,4.4,12.8,7.2c2.4,2.8,4,6,4,10c0,4.4-1.6,8-4.4,10.8
	C200,248,196,249.6,190.4,250z M184.4,214.4v-12.8c-3.6,0.8-5.6,2.8-5.6,6C178.8,210.4,180.8,212.8,184.4,214.4z M190.4,228.4v12.4
	c4-0.4,6-2.4,6-6C196.4,232,194.4,230,190.4,228.4z"/>
<g>
</g>
<g>
</g>
<g>
</g>
<g>
</g>
<g>
</g>
<g>
</g>
<g>
</g>
<g>
</g>
<g>
</g>
<g>
</g>
<g>
</g>
<g>
</g>
<g>
</g>
<g>
</g>
<g>
</g>
</svg>
