<?xml version="1.0" encoding="iso-8859-1"?>
<!-- Generator: Adobe Illustrator 19.0.0, SVG Export Plug-In . SVG Version: 6.00 Build 0)  -->
<svg version="1.1" id="Layer_1" xmlns="http://www.w3.org/2000/svg" xmlns:xlink="http://www.w3.org/1999/xlink" x="0px" y="0px"
	 viewBox="0 0 508 508" style="enable-background:new 0 0 508 508;" xml:space="preserve">
<circle style="fill:#90DFAA;" cx="254" cy="254" r="254"/>
<rect x="118.4" y="342.8" style="fill:#324A5E;" width="271.6" height="36"/>
<path style="fill:#FF7058;" d="M278,201.6c3.2-22.4,8.8-44,15.6-65.6c1.2-4,2-8,2-12.4c0-24.4-21.2-44-46.4-41.6
	c-19.2,2-34.8,18-36.8,37.2c-0.8,6.4,0,12.4,2,18c7.6,21.2,13.2,42.4,16,64.4c1.2,8,1.2,16.4,0.4,24.4h46.4
	C276.8,218,276.8,209.6,278,201.6z"/>
<path style="fill:#FFFFFF;" d="M287.6,262.4c-5.6-11.2-8.8-23.6-10-36h-46.4c-1.2,11.6-4.4,23.2-9.6,34c-12.8,26.4-38,63.2-84,81.2
	c-0.8,0.4-1.6,0.8-2.4,0.8h238c-0.8-0.4-1.6-0.8-2.4-0.8C325.6,324,300.4,288.8,287.6,262.4z"/>
<g>
</g>
<g>
</g>
<g>
</g>
<g>
</g>
<g>
</g>
<g>
</g>
<g>
</g>
<g>
</g>
<g>
</g>
<g>
</g>
<g>
</g>
<g>
</g>
<g>
</g>
<g>
</g>
<g>
</g>
</svg>
