<?xml version="1.0" encoding="iso-8859-1"?>
<!-- Generator: Adobe Illustrator 19.0.0, SVG Export Plug-In . SVG Version: 6.00 Build 0)  -->
<svg version="1.1" id="Layer_1" xmlns="http://www.w3.org/2000/svg" xmlns:xlink="http://www.w3.org/1999/xlink" x="0px" y="0px"
	 viewBox="0 0 508 508" style="enable-background:new 0 0 508 508;" xml:space="preserve">
<circle style="fill:#FFD05B;" cx="254" cy="254" r="254"/>
<path style="fill:#FF7058;" d="M216.4,84c-1.2-2.4-5.2-2.4-6.4,0c-21.6,40.4-33.2,72.4-33.2,118.4v138.4h72.8V202.4
	C249.6,156.4,238,124.4,216.4,84z"/>
<g>
	<path style="fill:#4CDBC4;" d="M327.2,334c-51.2-36-77.6-115.6-77.6-115.6v122.4h75.6C328.8,340.8,330.4,336,327.2,334z"/>
	<path style="fill:#4CDBC4;" d="M98.8,334c-3.2,2-1.6,6.8,2,6.8h75.6V218.4C176.8,218.4,150,297.6,98.8,334z"/>
</g>
<g>
	<path style="fill:#FFFFFF;" d="M182.4,286c-11.2,0-20.4,42.8-22,75.6c0,2.8,2,4.8,4.8,4.8h34c2.8,0,4.8-2.4,4.8-4.8
		C202.8,329.2,193.6,286,182.4,286z"/>
	<path style="fill:#FFFFFF;" d="M244,286c-11.2,0-20.8,43.2-22,76c0,2.8,2,4.8,4.8,4.8h34c2.8,0,4.8-2.4,4.8-4.8
		C264.4,329.2,255.2,286,244,286z"/>
</g>
<polygon style="fill:#324A5E;" points="178,381.6 178,418 196.4,399.6 211.6,418 229.6,399.6 248,418 248,381.6 "/>
<ellipse style="fill:#FFFFFF;" cx="213.2" cy="173.6" rx="12.8" ry="27.2"/>
<circle style="fill:#4CDBC4;" cx="354" cy="211.2" r="64.8"/>
<path style="fill:#FFFFFF;" d="M354,261.6c-27.6,0-50-22.4-50-50s22.4-50,50-50s50,22.4,50,50C404,238.8,381.6,261.6,354,261.6z"/>
<path style="fill:#324A5E;" d="M356.4,234.8v7.2h-4.8v-7.2c-4.4,0-8.8-1.2-12.8-3.2v-9.2c1.2,1.2,3.2,2,6,2.8
	c2.4,0.8,4.8,1.6,6.8,1.6v-12.4c-5.2-2-8.8-4-10.8-6.4s-2.8-5.2-2.8-8.4c0-3.6,1.2-6.4,3.6-9.2c2.4-2.4,6-4,10-4.4v-6.4h4.8v6
	c4.8,0.4,8.4,0.8,10.8,2.4v10c-3.2-2-6.8-3.2-10.8-3.6v12.8c4.8,1.6,8.4,4,10.8,6c2,2.4,3.2,5.2,3.2,8.4c0,3.6-1.2,6.8-3.6,9.2
	C364.4,233.2,360.8,234.4,356.4,234.8z M351.6,205.2v-10.8c-3.2,0.4-4.8,2.4-4.8,4.8C346.8,201.6,348.4,203.6,351.6,205.2z
	 M356.4,216.8v10.4c3.2-0.4,4.8-2,4.8-4.8C361.2,220,359.6,218,356.4,216.8z"/>
<g>
</g>
<g>
</g>
<g>
</g>
<g>
</g>
<g>
</g>
<g>
</g>
<g>
</g>
<g>
</g>
<g>
</g>
<g>
</g>
<g>
</g>
<g>
</g>
<g>
</g>
<g>
</g>
<g>
</g>
</svg>
