<?xml version="1.0" encoding="iso-8859-1"?>
<!-- Generator: Adobe Illustrator 19.0.0, SVG Export Plug-In . SVG Version: 6.00 Build 0)  -->
<svg version="1.1" id="Layer_1" xmlns="http://www.w3.org/2000/svg" xmlns:xlink="http://www.w3.org/1999/xlink" x="0px" y="0px"
	 viewBox="0 0 508 508" style="enable-background:new 0 0 508 508;" xml:space="preserve">
<circle style="fill:#90DFAA;" cx="254" cy="254" r="254"/>
<rect x="355.94" y="133.612" transform="matrix(-0.7071 -0.7071 0.7071 -0.7071 521.2297 537.5229)" style="fill:#FF7058;" width="32" height="54.399"/>
<rect x="230.8" y="72.8" style="fill:#F1543F;" width="46" height="57.6"/>
<circle style="fill:#FF7058;" cx="254" cy="281.2" r="163.6"/>
<path style="fill:#E6E9EE;" d="M254,414.4c-73.6,0-133.2-59.6-133.2-133.2S180.4,148,254,148s133.2,59.6,133.2,133.2
	S327.6,414.4,254,414.4z"/>
<rect x="206.8" y="63.2" style="fill:#FF7058;" width="94.4" height="38.4"/>
<path style="fill:#324A5E;" d="M260.8,349.2v21.2h-14.4V350c-13.2,0-25.6-3.2-36.8-8.8V314c3.6,3.2,9.2,6,16.8,8.4
	c7.6,2.8,14,4,20,4.4v-35.6c-15.2-5.6-25.6-11.6-31.2-18.4c-5.6-6.4-8.4-14.8-8.4-24c0-10.4,3.6-18.8,10.8-26s16.8-11.2,28.8-12.4
	v-18h14.4V210c13.6,0.8,24,2.8,30.8,6.8v26.4c-9.2-5.6-19.2-8.8-30.8-10V270c14.4,5.2,24.4,11.2,30.8,17.6s9.2,14.4,9.2,24
	c0,10.8-3.6,19.6-10.4,26C283.6,344,273.6,348,260.8,349.2z M246.8,264v-30.8c-9.2,1.6-13.6,6.4-13.6,14
	C233.2,254,237.6,259.6,246.8,264z M260.8,296.8v29.6c9.2-1.6,14-6,14-14C274.8,306,270.4,300.8,260.8,296.8z"/>
<g>
</g>
<g>
</g>
<g>
</g>
<g>
</g>
<g>
</g>
<g>
</g>
<g>
</g>
<g>
</g>
<g>
</g>
<g>
</g>
<g>
</g>
<g>
</g>
<g>
</g>
<g>
</g>
<g>
</g>
</svg>
