<?xml version="1.0" encoding="iso-8859-1"?>
<!-- Generator: Adobe Illustrator 19.0.0, SVG Export Plug-In . SVG Version: 6.00 Build 0)  -->
<svg version="1.1" id="Layer_1" xmlns="http://www.w3.org/2000/svg" xmlns:xlink="http://www.w3.org/1999/xlink" x="0px" y="0px"
	 viewBox="0 0 508 508" style="enable-background:new 0 0 508 508;" xml:space="preserve">
<circle style="fill:#4CDBC4;" cx="254" cy="254" r="254"/>
<path style="fill:#FF7058;" d="M238.8,128.8l-24.4,24.4c0,0,0,0-0.4-0.4c-16.8-16.8-44.4-16.8-61.6,0s-16.8,44.4,0,61.6
	c0,0,0,0,0.4,0.4l-24.4,24.4c-3.2,3.2-3.2,8,0,11.2l168.8,168.8c3.2,3.2,8,3.2,11.2,0l110-110c3.2-3.2,3.2-8,0-11.2L250,128.8
	C246.8,125.6,241.6,125.6,238.8,128.8z M200.4,166.8L200.4,166.8c8.8,9.2,8.8,24-0.4,33.2s-24,9.2-33.2,0.4l0,0c0,0,0,0-0.4-0.4
	c-9.2-9.2-9.2-24.4,0-33.6C176,157.6,190.8,157.6,200.4,166.8L200.4,166.8z"/>
<path style="fill:#FFFFFF;" d="M316,308.4l12,12l-8,8l-11.6-11.6c-7.6,7.6-16,12.8-26,16l-15.2-15.2c4-0.4,8.8-2,14.4-4.8
	s10.4-5.6,14-8.8l-20-20c-12,5.6-21.2,8-28,7.2c-6.8-0.4-13.2-3.6-18.4-8.8c-5.6-5.6-8.8-12.8-8.8-20.8s3.2-16,9.2-23.2L219.2,228
	l8-8l10,10c8-7.6,15.2-12,21.2-13.6l14.8,14.8c-8.4,2-16,6-23.2,11.6l20.8,20.8c10.8-5.2,20-7.6,27.2-7.2s13.6,3.2,18.8,8.4
	c6,6,9.2,13.2,8.8,20.8C326,292.4,322.4,300,316,308.4z M259.6,268L242,250.4c-4.4,6-4,11.2,0.4,15.6C246.4,270,252,270.4,259.6,268
	z M286.4,278.4l16.8,16.8c4.4-6,4.4-11.2,0-16C299.6,276,294,275.6,286.4,278.4z"/>
<rect x="135.064" y="103.475" transform="matrix(0.7071 -0.7071 0.7071 0.7071 -61.3862 148.7502)" style="fill:#324A5E;" width="27.6" height="89.999"/>
<g>
</g>
<g>
</g>
<g>
</g>
<g>
</g>
<g>
</g>
<g>
</g>
<g>
</g>
<g>
</g>
<g>
</g>
<g>
</g>
<g>
</g>
<g>
</g>
<g>
</g>
<g>
</g>
<g>
</g>
</svg>
