<?xml version="1.0" encoding="iso-8859-1"?>
<!-- Generator: Adobe Illustrator 19.0.0, SVG Export Plug-In . SVG Version: 6.00 Build 0)  -->
<svg version="1.1" id="Layer_1" xmlns="http://www.w3.org/2000/svg" xmlns:xlink="http://www.w3.org/1999/xlink" x="0px" y="0px"
	 viewBox="0 0 508 508" style="enable-background:new 0 0 508 508;" xml:space="preserve">
<circle style="fill:#324A5E;" cx="254" cy="254" r="254"/>
<circle style="fill:#E6E9EE;" cx="224.4" cy="266.4" r="143.2"/>
<circle style="fill:#4CDBC4;" cx="224.4" cy="266.4" r="107.2"/>
<circle style="fill:#FFFFFF;" cx="224.4" cy="266.4" r="70.8"/>
<path style="fill:#324A5E;" d="M227.6,299.2v10.4h-6.8v-10c-6.4,0-12.4-1.6-18-4.4V282c2,1.6,4.4,2.8,8,4s6.8,2,9.6,2v-17.2
	c-7.2-2.8-12.4-5.6-15.2-8.8s-4-7.2-4-11.6c0-4.8,1.6-9.2,5.2-12.8c3.6-3.6,8-5.6,14-6v-8.8h6.8v8.4c6.8,0.4,11.6,1.2,14.8,3.2v12.8
	c-4.4-2.8-9.2-4.4-14.8-4.8v18c6.8,2.4,12,5.2,14.8,8.4c2.8,3.2,4.4,7.2,4.4,11.6c0,5.2-1.6,9.6-5.2,12.8
	C238.4,296.8,234,298.8,227.6,299.2z M220.8,258v-14.8c-4.4,0.8-6.8,2.8-6.8,6.8C214,253.2,216.4,256,220.8,258z M227.6,274v14.4
	c4.4-0.8,6.8-2.8,6.8-6.8C234.4,278.4,232,276,227.6,274z"/>
<polygon style="fill:#FF7058;" points="289.2,239.2 342,186 363.2,184.8 411.2,136.8 381.2,128 372.8,98.4 324.8,146.4 323.6,167.2 
	270.4,220.4 260.4,199.2 252,257.6 310.4,249.2 "/>
<g>
</g>
<g>
</g>
<g>
</g>
<g>
</g>
<g>
</g>
<g>
</g>
<g>
</g>
<g>
</g>
<g>
</g>
<g>
</g>
<g>
</g>
<g>
</g>
<g>
</g>
<g>
</g>
<g>
</g>
</svg>
