<?xml version="1.0" encoding="iso-8859-1"?>
<!-- Generator: Adobe Illustrator 19.0.0, SVG Export Plug-In . SVG Version: 6.00 Build 0)  -->
<svg version="1.1" id="Layer_1" xmlns="http://www.w3.org/2000/svg" xmlns:xlink="http://www.w3.org/1999/xlink" x="0px" y="0px"
	 viewBox="0 0 508 508" style="enable-background:new 0 0 508 508;" xml:space="preserve">
<circle style="fill:#324A5E;" cx="254" cy="254" r="254"/>
<g>
	<rect x="242" y="57.2" style="fill:#4CDBC4;" width="24" height="98"/>
	<rect x="242" y="352.8" style="fill:#4CDBC4;" width="24" height="98"/>
	<rect x="352.8" y="242" style="fill:#4CDBC4;" width="98" height="24"/>
	<rect x="57.2" y="242" style="fill:#4CDBC4;" width="98" height="24"/>
</g>
<path style="fill:#FFD05C;" d="M254,416.4c-89.6,0-162.4-72.8-162.4-162.4S164.4,91.6,254,91.6S416.4,164.4,416.4,254
	S343.6,416.4,254,416.4z M254,115.6c-76.4,0-138.4,62-138.4,138.4s62,138.4,138.4,138.4s138.4-62,138.4-138.4S330.4,115.6,254,115.6
	z"/>
<path style="fill:#FF7058;" d="M254,322.4c-37.6,0-68.4-30.8-68.4-68.4s30.8-68.4,68.4-68.4s68.4,30.8,68.4,68.4
	S291.6,322.4,254,322.4z M254,209.6c-24.4,0-44.4,20-44.4,44.4s20,44.4,44.4,44.4s44.4-20,44.4-44.4S278.4,209.6,254,209.6z"/>
<g>
</g>
<g>
</g>
<g>
</g>
<g>
</g>
<g>
</g>
<g>
</g>
<g>
</g>
<g>
</g>
<g>
</g>
<g>
</g>
<g>
</g>
<g>
</g>
<g>
</g>
<g>
</g>
<g>
</g>
</svg>
