<?xml version="1.0" encoding="iso-8859-1"?>
<!-- Generator: Adobe Illustrator 19.0.0, SVG Export Plug-In . SVG Version: 6.00 Build 0)  -->
<svg version="1.1" id="Layer_1" xmlns="http://www.w3.org/2000/svg" xmlns:xlink="http://www.w3.org/1999/xlink" x="0px" y="0px"
	 viewBox="0 0 508 508" style="enable-background:new 0 0 508 508;" xml:space="preserve">
<circle style="fill:#FF7058;" cx="254" cy="254" r="254"/>
<path style="fill:#CED5E0;" d="M400,273.6c24.4-12,38.8-38.8,33.6-66.8c-6.4-35.2-40.8-58-75.6-49.6c-4.4,1.2-8.8,2.8-12.8,4.8v25.6
	c4.8-4,10-7.2,16.4-9.2c23.6-6.4,47.2,8.8,51.2,32.4c3.2,18.4-6.4,36.4-23.2,44.4c-2.8,1.2-5.6,2.8-8,4.8
	c-6.8,4.4-9.6,12.8-7.6,20.8v0.8c0.8,3.2,2,6.4,3.2,9.2c2.4,5.2,2.8,11.2,1.2,17.2c-2,8-8,14.8-16,18c-6,2.4-12.4,2-17.6,0.4v22
	c3.6,0.8,7.6,0.8,11.6,0.8c28.8-2,48.8-28,44-55.6c-0.8-4-2-7.6-3.6-11.2C395.6,278.4,397.2,274.8,400,273.6z"/>
<path style="fill:#E6E9EE;" d="M120.8,133.2v231.2c0,10.4,8.4,18.4,18.4,18.4H328c10.4,0,18.4-8.4,18.4-18.4V133.2H120.8z"/>
<rect x="171.2" y="230.4" style="fill:#4CDBC4;" width="85.6" height="83.2"/>
<rect x="203.6" y="133.2" style="fill:#324A5E;" width="20.8" height="100.8"/>
<rect x="171.2" y="230.4" style="fill:#FF7058;" width="85.6" height="20.4"/>
<g>
</g>
<g>
</g>
<g>
</g>
<g>
</g>
<g>
</g>
<g>
</g>
<g>
</g>
<g>
</g>
<g>
</g>
<g>
</g>
<g>
</g>
<g>
</g>
<g>
</g>
<g>
</g>
<g>
</g>
</svg>
