<?xml version="1.0" encoding="iso-8859-1"?>
<!-- Generator: Adobe Illustrator 19.0.0, SVG Export Plug-In . SVG Version: 6.00 Build 0)  -->
<svg version="1.1" id="Layer_1" xmlns="http://www.w3.org/2000/svg" xmlns:xlink="http://www.w3.org/1999/xlink" x="0px" y="0px"
	 viewBox="0 0 508 508" style="enable-background:new 0 0 508 508;" xml:space="preserve">
<circle style="fill:#84DBFF;" cx="254" cy="254" r="254"/>
<rect x="179.6" y="86.8" style="fill:#FFFFFF;" width="148.8" height="241.2"/>
<path style="fill:#4CDBC4;" d="M193.6,292.8V122c11.2,0,20-8.8,20-20h81.2c0,11.2,8.8,20,20,20v170.8c-11.2,0-20,8.8-20,20h-81.2
	C213.6,301.6,204.4,292.8,193.6,292.8z"/>
<g>
	<ellipse style="fill:#2C9984;" cx="254" cy="137.6" rx="12" ry="8.8"/>
	<ellipse style="fill:#2C9984;" cx="254" cy="277.2" rx="12" ry="8.8"/>
	<ellipse style="fill:#2C9984;" cx="254" cy="207.2" rx="37.6" ry="29.2"/>
</g>
<path style="fill:#FFD05B;" d="M372.8,201.2H135.2c-4.4,0-8,3.6-8,8v180c0,4.4,3.6,8,8,8h238c4.4,0,8-3.6,8-8v-180
	C381.2,204.8,377.6,201.2,372.8,201.2z"/>
<g>
	<path style="fill:#F9B54C;" d="M151.2,382.8h-6.8c-1.6,0-2.8-1.2-2.8-2.8v-6.8c0-1.6,1.2-2.8,2.8-2.8s2.8,1.2,2.8,2.8v4.4h4.4
		c1.6,0,2.8,1.2,2.8,2.8C154,381.6,152.8,382.8,151.2,382.8z"/>
	<path style="fill:#F9B54C;" d="M144.4,362.4c-1.6,0-2.8-1.2-2.8-2.8V346c0-1.6,1.2-2.8,2.8-2.8s2.8,1.2,2.8,2.8v13.6
		C146.8,361.2,146,362.4,144.4,362.4z M144.4,335.6c-1.6,0-2.8-1.2-2.8-2.8v-13.6c0-1.6,1.2-2.8,2.8-2.8s2.8,1.2,2.8,2.8v13.6
		C146.8,334.4,146,335.6,144.4,335.6z M144.4,308.8c-1.6,0-2.8-1.2-2.8-2.8v-13.6c0-1.6,1.2-2.8,2.8-2.8s2.8,1.2,2.8,2.8V306
		C146.8,307.6,146,308.8,144.4,308.8z M144.4,281.6c-1.6,0-2.8-1.2-2.8-2.8v-13.6c0-1.6,1.2-2.8,2.8-2.8s2.8,1.2,2.8,2.8v13.6
		C146.8,280.8,146,281.6,144.4,281.6z M144.4,254.8c-1.6,0-2.8-1.2-2.8-2.8v-13.6c0-1.6,1.2-2.8,2.8-2.8s2.8,1.2,2.8,2.8V252
		C146.8,253.6,146,254.8,144.4,254.8z"/>
	<path style="fill:#F9B54C;" d="M144.4,228c-1.6,0-2.8-1.2-2.8-2.8v-6.8c0-1.6,1.2-2.8,2.8-2.8h6.8c1.6,0,2.8,1.2,2.8,2.8
		s-1.2,2.8-2.8,2.8h-4.4v4.4C146.8,226.8,146,228,144.4,228z"/>
	<path style="fill:#F9B54C;" d="M342.8,221.2h-13.6c-1.6,0-2.8-1.2-2.8-2.8s1.2-2.8,2.8-2.8h13.6c1.6,0,2.8,1.2,2.8,2.8
		S344.4,221.2,342.8,221.2z M315.6,221.2H302c-1.6,0-2.8-1.2-2.8-2.8s1.2-2.8,2.8-2.8h13.6c1.6,0,2.8,1.2,2.8,2.8
		S317.2,221.2,315.6,221.2z M288.4,221.2h-13.6c-1.6,0-2.8-1.2-2.8-2.8s1.2-2.8,2.8-2.8h13.6c1.6,0,2.8,1.2,2.8,2.8
		S289.6,221.2,288.4,221.2z M260.8,221.2h-13.6c-1.6,0-2.8-1.2-2.8-2.8s1.2-2.8,2.8-2.8h13.6c1.6,0,2.8,1.2,2.8,2.8
		S262.4,221.2,260.8,221.2z M233.6,221.2H220c-1.6,0-2.8-1.2-2.8-2.8s1.2-2.8,2.8-2.8h13.6c1.6,0,2.8,1.2,2.8,2.8
		S234.8,221.2,233.6,221.2z M206,221.2h-13.6c-1.6,0-2.8-1.2-2.8-2.8s1.2-2.8,2.8-2.8H206c1.6,0,2.8,1.2,2.8,2.8
		S207.6,221.2,206,221.2z M178.8,221.2h-13.6c-1.6,0-2.8-1.2-2.8-2.8s1.2-2.8,2.8-2.8h13.6c1.6,0,2.8,1.2,2.8,2.8
		S180,221.2,178.8,221.2z"/>
	<path style="fill:#F9B54C;" d="M363.6,228c-1.6,0-2.8-1.2-2.8-2.8v-4.4h-4.4c-1.6,0-2.8-1.2-2.8-2.8s1.2-2.8,2.8-2.8h6.8
		c1.6,0,2.8,1.2,2.8,2.8v6.8C366.4,226.8,365.2,228,363.6,228z"/>
	<path style="fill:#F9B54C;" d="M363.6,362.4c-1.6,0-2.8-1.2-2.8-2.8V346c0-1.6,1.2-2.8,2.8-2.8c1.6,0,2.8,1.2,2.8,2.8v13.6
		C366.4,361.2,365.2,362.4,363.6,362.4z M363.6,335.6c-1.6,0-2.8-1.2-2.8-2.8v-13.6c0-1.6,1.2-2.8,2.8-2.8c1.6,0,2.8,1.2,2.8,2.8
		v13.6C366.4,334.4,365.2,335.6,363.6,335.6z M363.6,308.8c-1.6,0-2.8-1.2-2.8-2.8v-13.6c0-1.6,1.2-2.8,2.8-2.8
		c1.6,0,2.8,1.2,2.8,2.8V306C366.4,307.6,365.2,308.8,363.6,308.8z M363.6,281.6c-1.6,0-2.8-1.2-2.8-2.8v-13.6
		c0-1.6,1.2-2.8,2.8-2.8c1.6,0,2.8,1.2,2.8,2.8v13.6C366.4,280.8,365.2,281.6,363.6,281.6z M363.6,254.8c-1.6,0-2.8-1.2-2.8-2.8
		v-13.6c0-1.6,1.2-2.8,2.8-2.8c1.6,0,2.8,1.2,2.8,2.8V252C366.4,253.6,365.2,254.8,363.6,254.8z"/>
	<path style="fill:#F9B54C;" d="M363.6,382.8h-6.8c-1.6,0-2.8-1.2-2.8-2.8c0-1.6,1.2-2.8,2.8-2.8h4.4v-4.4c0-1.6,1.2-2.8,2.8-2.8
		c1.6,0,2.8,1.2,2.8,2.8v6.8C366.4,381.6,365.2,382.8,363.6,382.8z"/>
	<path style="fill:#F9B54C;" d="M342.8,382.8h-13.6c-1.6,0-2.8-1.2-2.8-2.8c0-1.6,1.2-2.8,2.8-2.8h13.6c1.6,0,2.8,1.2,2.8,2.8
		C345.6,381.6,344.4,382.8,342.8,382.8z M315.6,382.8H302c-1.6,0-2.8-1.2-2.8-2.8c0-1.6,1.2-2.8,2.8-2.8h13.6c1.6,0,2.8,1.2,2.8,2.8
		C318.4,381.6,317.2,382.8,315.6,382.8z M288.4,382.8h-13.6c-1.6,0-2.8-1.2-2.8-2.8c0-1.6,1.2-2.8,2.8-2.8h13.6
		c1.6,0,2.8,1.2,2.8,2.8C290.8,381.6,289.6,382.8,288.4,382.8z M260.8,382.8h-13.6c-1.6,0-2.8-1.2-2.8-2.8c0-1.6,1.2-2.8,2.8-2.8
		h13.6c1.6,0,2.8,1.2,2.8,2.8C263.6,381.6,262.4,382.8,260.8,382.8z M233.6,382.8H220c-1.6,0-2.8-1.2-2.8-2.8c0-1.6,1.2-2.8,2.8-2.8
		h13.6c1.6,0,2.8,1.2,2.8,2.8C236,381.6,234.8,382.8,233.6,382.8z M206,382.8h-13.6c-1.6,0-2.8-1.2-2.8-2.8c0-1.6,1.2-2.8,2.8-2.8
		H206c1.6,0,2.8,1.2,2.8,2.8C208.8,381.6,207.6,382.8,206,382.8z M178.8,382.8h-13.6c-1.6,0-2.8-1.2-2.8-2.8c0-1.6,1.2-2.8,2.8-2.8
		h13.6c1.6,0,2.8,1.2,2.8,2.8C181.2,381.6,180,382.8,178.8,382.8z"/>
</g>
<path style="fill:#FF7058;" d="M294.4,323.6h86.8v-48.8h-86.8c-13.6,0-24.4,10.8-24.4,24.4l0,0C270,312.8,280.8,323.6,294.4,323.6z"
	/>
<circle style="fill:#F1543F;" cx="295.2" cy="299.2" r="9.2"/>
<g>
</g>
<g>
</g>
<g>
</g>
<g>
</g>
<g>
</g>
<g>
</g>
<g>
</g>
<g>
</g>
<g>
</g>
<g>
</g>
<g>
</g>
<g>
</g>
<g>
</g>
<g>
</g>
<g>
</g>
</svg>
