<?xml version="1.0" encoding="iso-8859-1"?>
<!-- Generator: Adobe Illustrator 19.0.0, SVG Export Plug-In . SVG Version: 6.00 Build 0)  -->
<svg version="1.1" id="Layer_1" xmlns="http://www.w3.org/2000/svg" xmlns:xlink="http://www.w3.org/1999/xlink" x="0px" y="0px"
	 viewBox="0 0 508 508" style="enable-background:new 0 0 508 508;" xml:space="preserve">
<circle style="fill:#FD8469;" cx="254" cy="254" r="254"/>
<path style="fill:#FFD05B;" d="M290,179.6L128,328.8c-6.8,6.4-10.8,15.2-10.8,24.8c0,9.6,3.6,18.4,10,24.8
	c6.8,6.8,15.6,10.4,24.8,10c9.6,0,18.4-4,24.8-10.8l150.4-160.8L290,179.6z M142,363.2c-4.4-4.4-4.4-12,0-16.4s12-4.4,16.4,0
	s4.4,12,0,16.4C154,368,146.8,368,142,363.2z"/>
<path style="fill:#E6E9EE;" d="M403.2,150.8l-1.6-6.8l-32.8,32.8l-32.4-6l-6-32.4l32.8-32.8l-6.8-1.6c-21.2-4.8-43.2,1.2-58.4,16.8
	c-24.4,24.4-24.4,64,0,88.4s64,24.4,88.4,0C401.6,194,408,172,403.2,150.8z"/>
<path style="fill:#84DBFF;" d="M260.4,224l-48,48c-3.6,3.6-3.6,9.6,0,13.6l117.2,117.2c3.6,3.6,9.6,3.6,13.6,0l48-48
	c3.6-3.6,3.6-9.6,0-13.6L274,224C270,220.4,264,220.4,260.4,224z"/>
<polygon style="fill:#E6E9EE;" points="121.6,115.2 103.2,133.2 126,167.2 151.6,179.6 228,256.4 244.8,240 168,163.2 155.2,137.6 
	"/>
<g>
	<path style="fill:#54C0EB;" d="M243.6,277.6c-3.2,3.2-3.2,8,0,10.8l82.8,82.8c3.2,3.2,8,3.2,10.8,0c3.2-3.2,3.2-8,0-10.8
		l-82.8-82.8C251.6,274.8,246.8,274.8,243.6,277.6z"/>
	<path style="fill:#54C0EB;" d="M266,255.2c-3.2,3.2-3.2,8,0,10.8l82.8,82.8c3.2,3.2,8,3.2,10.8,0c3.2-3.2,3.2-8,0-10.8l-82.8-82.8
		C274,252.4,268.8,252.4,266,255.2z"/>
</g>
<g>
</g>
<g>
</g>
<g>
</g>
<g>
</g>
<g>
</g>
<g>
</g>
<g>
</g>
<g>
</g>
<g>
</g>
<g>
</g>
<g>
</g>
<g>
</g>
<g>
</g>
<g>
</g>
<g>
</g>
</svg>
