<?xml version="1.0" encoding="iso-8859-1"?>
<!-- Generator: Adobe Illustrator 19.0.0, SVG Export Plug-In . SVG Version: 6.00 Build 0)  -->
<svg version="1.1" id="Layer_1" xmlns="http://www.w3.org/2000/svg" xmlns:xlink="http://www.w3.org/1999/xlink" x="0px" y="0px"
	 viewBox="0 0 512 512" style="enable-background:new 0 0 512 512;" xml:space="preserve">
<circle style="fill:#90DFAA;" cx="256" cy="256" r="256"/>
<circle style="fill:#FF7058;" cx="256" cy="256" r="193.85"/>
<circle style="fill:#FFFFFF;" cx="256" cy="256" r="160.596"/>
<g>
	<path style="fill:#E6E9EE;" d="M256,130.991L256,130.991c-5.88,0-10.544-4.765-10.544-10.544l0,0
		c0-5.88,4.765-10.544,10.544-10.544l0,0c5.88,0,10.544,4.765,10.544,10.544l0,0C266.544,126.226,261.88,130.991,256,130.991z"/>
	<path style="fill:#E6E9EE;" d="M256,402.199L256,402.199c-5.88,0-10.544-4.765-10.544-10.544l0,0
		c0-5.88,4.765-10.544,10.544-10.544l0,0c5.88,0,10.544,4.765,10.544,10.544l0,0C266.544,397.434,261.88,402.199,256,402.199z"/>
	<path style="fill:#E6E9EE;" d="M381.009,256L381.009,256c0-5.88,4.765-10.544,10.544-10.544l0,0c5.88,0,10.544,4.765,10.544,10.544
		l0,0c0,5.88-4.765,10.544-10.544,10.544l0,0C385.774,266.544,381.009,261.88,381.009,256z"/>
	<path style="fill:#E6E9EE;" d="M109.801,256L109.801,256c0-5.88,4.765-10.544,10.544-10.544l0,0c5.88,0,10.544,4.765,10.544,10.544
		l0,0c0,5.88-4.765,10.544-10.544,10.544l0,0C114.566,266.544,109.801,261.88,109.801,256z"/>
</g>
<g>
	<path style="fill:#2B3B4E;" d="M310.749,311.762c-0.203,0-0.507-0.101-0.71-0.304l-55.053-55.053V155.222
		c0-0.507,0.406-0.912,0.912-0.912c0.507,0,0.912,0.406,0.912,0.912v100.372l54.546,54.546c0.406,0.406,0.406,1.014,0,1.318
		C311.255,311.661,311.053,311.762,310.749,311.762z"/>
	<path style="fill:#2B3B4E;" d="M310.749,321.901c-2.927,0-5.799-1.193-7.879-3.274l-58.022-58.022V155.222
		c0-6.093,4.958-11.051,11.051-11.051c6.093,0,11.051,4.958,11.051,11.051v96.173l51.576,51.576
		c2.287,2.282,3.473,5.434,3.246,8.642c-0.171,2.421-1.139,4.688-2.72,6.47C317.039,320.484,314.032,321.901,310.749,321.901z"/>
</g>
<circle style="fill:#FF7058;" cx="256" cy="256" r="21.392"/>
<g>
	<path style="fill:#84DBFF;" d="M308.924,202.57c1.419-2.028,2.129-3.954,2.129-5.88c0-1.926-0.608-3.447-1.825-4.765
		c-1.217-1.217-2.839-1.926-4.765-1.926c-3.549,0-6.894,2.535-10.037,7.604l-10.037-5.982c2.636-4.055,5.576-7.198,8.719-9.226
		c3.143-2.129,7.198-3.143,12.065-3.143c4.867,0,9.125,1.521,12.876,4.664c3.65,3.042,5.475,7.3,5.475,12.673
		c0,2.94-0.71,5.678-2.231,8.314c-1.521,2.636-4.258,6.083-8.212,10.24l-10.139,10.544h22.305v11.254h-39.743v-9.328l16.526-16.931
		C305.172,207.335,307.504,204.597,308.924,202.57z"/>
	<path style="fill:#84DBFF;" d="M354.953,212.607v-9.834h12.065v9.834h6.387v10.95h-6.387v13.484h-12.065v-13.484h-22.71v-9.632
		l20.074-33.356h13.687l-19.162,32.038L354.953,212.607L354.953,212.607z"/>
	<path style="fill:#84DBFF;" d="M152.282,219.4c1.115-0.912,2.332-1.825,3.549-2.535c3.042-1.926,6.286-3.346,9.53-4.157
		c1.318-0.304,2.737,0.101,3.549,1.217l32.545,44.914c0.811,1.115,0.811,2.535,0.101,3.751c-1.724,2.737-3.954,5.272-6.59,7.503
		c-0.608,0.507-1.217,1.014-1.926,1.521c-3.751,2.737-7.908,4.562-12.065,5.475c13.282,20.176,30.517,37.411,50.693,50.693
		c0.912-4.258,2.839-8.314,5.475-12.065c2.535-3.447,5.576-6.286,9.023-8.516c1.115-0.71,2.636-0.71,3.751,0.101l44.914,32.545
		c1.115,0.811,1.521,2.23,1.217,3.447c-2.332,9.226-8.821,17.844-19.973,23.015c-4.36,2.028-9.328,2.839-14.093,2.231
		c-5.779-0.71-10.747-2.535-15.005-5.069c-0.101-0.101-0.203-0.101-0.304-0.101c-45.218-20.176-81.21-56.168-101.386-101.386
		c-0.101-0.101-0.101-0.203-0.101-0.304C136.973,247.788,139.913,229.741,152.282,219.4z"/>
	<path style="fill:#84DBFF;" d="M155.83,216.865c3.042-1.926,6.286-3.346,9.53-4.157c1.318-0.304,2.737,0.101,3.549,1.217
		l32.545,44.914c0.811,1.115,0.811,2.535,0.101,3.751c-1.724,2.737-3.954,5.272-6.59,7.503c-6.185-6.387-12.977-14.498-19.77-23.522
		C167.186,235.824,160.494,225.483,155.83,216.865z"/>
	<path style="fill:#84DBFF;" d="M291.789,352.824c1.926-3.042,3.346-6.286,4.157-9.53c0.304-1.318-0.101-2.737-1.217-3.549
		L249.815,307.2c-1.115-0.811-2.535-0.811-3.751-0.101c-2.737,1.724-5.272,3.954-7.503,6.59c6.387,6.185,14.498,12.977,23.522,19.77
		C272.932,341.469,283.273,348.16,291.789,352.824z"/>
</g>
<g>
</g>
<g>
</g>
<g>
</g>
<g>
</g>
<g>
</g>
<g>
</g>
<g>
</g>
<g>
</g>
<g>
</g>
<g>
</g>
<g>
</g>
<g>
</g>
<g>
</g>
<g>
</g>
<g>
</g>
</svg>
