<?xml version="1.0" encoding="iso-8859-1"?>
<!-- Generator: Adobe Illustrator 19.0.0, SVG Export Plug-In . SVG Version: 6.00 Build 0)  -->
<svg version="1.1" id="Layer_1" xmlns="http://www.w3.org/2000/svg" xmlns:xlink="http://www.w3.org/1999/xlink" x="0px" y="0px"
	 viewBox="0 0 505 505" style="enable-background:new 0 0 505 505;" xml:space="preserve">
<circle style="fill:#90DFAA;" cx="252.5" cy="252.5" r="252.5"/>
<g>
	<path style="fill:#FFFFFF;" d="M135,135c55.8-55.8,141.8-63.4,205.9-23l-23.4,23.5l69,4l-4-69l-21,21
		C285.9,40.3,181.9,47.9,115,114.9c-67.3,67.3-74.8,171.8-22.8,247.6l20.5-20.5C71.5,277.7,78.9,191.2,135,135z"/>
	<path style="fill:#FFFFFF;" d="M390,390.1c67.2-67.2,74.7-171.8,22.8-247.5l-20.5,20.5c41.1,64.3,33.7,150.8-22.4,207
		C314,426,228,433.5,163.8,393l21.1-21.1l-69-4l4,69l23.4-23.4C219,464.7,323.1,457,390,390.1z"/>
</g>
<g>
	<path style="fill:#324A5E;" d="M175,275.6v0.4h39.9v18h-64.8v-16.9l28.2-27c5.7-5.4,9.7-10,12-13.7s3.5-7.6,3.5-11.6
		c0-9.1-4.9-13.6-14.6-13.6c-8.5,0-16.6,3.4-24.3,10.1v-19.1c8.6-5.5,18.2-8.3,29-8.3c10.1,0,17.9,2.5,23.6,7.6
		c5.7,5.1,8.5,11.9,8.5,20.5c0,11.5-6.9,23.4-20.7,35.6L175,275.6z"/>
	<path style="fill:#324A5E;" d="M300.7,273.1h-11.8V294h-19.8v-20.9h-42.9v-13.8l41.3-63.7h21.3v62.1h11.8v15.4H300.7z M269.4,217.3
		H269c-0.6,1.6-1.9,4.2-3.7,7.7l-21.1,32.7h24.9v-31C269.1,223.9,269.2,220.8,269.4,217.3z"/>
	<path style="fill:#324A5E;" d="M352.5,294H340v-23.1c0-5.9-2.2-8.9-6.5-8.9c-2.2,0-4,0.8-5.4,2.5s-2.1,3.8-2.1,6.3V294h-12.5v-60.1
		H326v25.5h0.2c3.1-4.7,7.2-7,12.5-7c9.2,0,13.8,5.6,13.8,16.7V294z"/>
</g>
<g>
</g>
<g>
</g>
<g>
</g>
<g>
</g>
<g>
</g>
<g>
</g>
<g>
</g>
<g>
</g>
<g>
</g>
<g>
</g>
<g>
</g>
<g>
</g>
<g>
</g>
<g>
</g>
<g>
</g>
</svg>
