<?xml version="1.0" encoding="iso-8859-1"?>
<!-- Generator: Adobe Illustrator 19.0.0, SVG Export Plug-In . SVG Version: 6.00 Build 0)  -->
<svg version="1.1" id="Layer_1" xmlns="http://www.w3.org/2000/svg" xmlns:xlink="http://www.w3.org/1999/xlink" x="0px" y="0px"
	 viewBox="0 0 505 505" style="enable-background:new 0 0 505 505;" xml:space="preserve">
<circle style="fill:#FFD05B;" cx="252.5" cy="252.5" r="252.5"/>
<g>
	<circle style="fill:#324A5E;" cx="371.6" cy="252.5" r="14"/>
	<circle style="fill:#324A5E;" cx="133.4" cy="252.5" r="14"/>
	<circle style="fill:#324A5E;" cx="252.5" cy="252.5" r="193.6"/>
</g>
<circle style="fill:#FFFFFF;" cx="252.5" cy="252.5" r="153.5"/>
<g>
	<circle style="fill:#4CDBC4;" cx="371.6" cy="252.5" r="14"/>
	<circle style="fill:#4CDBC4;" cx="133.4" cy="252.5" r="14"/>
	<circle style="fill:#4CDBC4;" cx="252.5" cy="371.6" r="14"/>
	<circle style="fill:#4CDBC4;" cx="252.5" cy="133.4" r="14"/>
</g>
<g>
	<path style="fill:#FF7058;" d="M215.2,242.1c2.7-3.8,4-7.4,4-10.9s-1.2-6.5-3.5-8.8c-2.3-2.4-5.3-3.5-8.9-3.5
		c-6.6,0-12.9,4.7-18.9,14.2L169,221.9c4.9-7.6,10.3-13.4,16.2-17.4c5.9-3.9,13.4-5.9,22.5-5.9s17.1,2.9,24,8.7S242,221,242,230.9
		c0,5.4-1.4,10.6-4.2,15.6s-7.9,11.3-15.3,19.1l-19,19.8h41.7v21.1h-74.4V289l31-31.7C208.1,250.9,212.5,245.9,215.2,242.1z"/>
	<path style="fill:#FF7058;" d="M301.4,260.9v-18.4H324v18.4h11.9v20.4H324v25.2h-22.6v-25.2H259v-18l37.6-62.4h25.7l-35.8,59.9
		h14.9V260.9z"/>
</g>
<g>
</g>
<g>
</g>
<g>
</g>
<g>
</g>
<g>
</g>
<g>
</g>
<g>
</g>
<g>
</g>
<g>
</g>
<g>
</g>
<g>
</g>
<g>
</g>
<g>
</g>
<g>
</g>
<g>
</g>
</svg>
