<?xml version="1.0" encoding="iso-8859-1"?>
<!-- Generator: Adobe Illustrator 19.0.0, SVG Export Plug-In . SVG Version: 6.00 Build 0)  -->
<svg version="1.1" id="Layer_1" xmlns="http://www.w3.org/2000/svg" xmlns:xlink="http://www.w3.org/1999/xlink" x="0px" y="0px"
	 viewBox="0 0 505 505" style="enable-background:new 0 0 505 505;" xml:space="preserve">
<circle style="fill:#90DFAA;" cx="252.5" cy="252.5" r="252.5"/>
<path style="fill:#FFFFFF;" d="M376.2,93.6H155.7c-7.8,0-14.1,6.3-14.1,14.1v289.6c0,7.8,6.3,14.1,14.1,14.1h220.6
	c7.8,0,14.1-6.3,14.1-14.1V107.7C390.4,99.9,384.1,93.6,376.2,93.6z"/>
<g>
	<path style="fill:#324A5E;" d="M161.3,141.3h-39.5c-4,0-7.2,3.2-7.2,7.2s3.2,7.2,7.2,7.2h39.5c4,0,7.2-3.2,7.2-7.2
		C168.4,144.5,165.2,141.3,161.3,141.3z"/>
	<path style="fill:#324A5E;" d="M161.3,245.3h-39.5c-4,0-7.2,3.2-7.2,7.2s3.2,7.2,7.2,7.2h39.5c4,0,7.2-3.2,7.2-7.2
		S165.2,245.3,161.3,245.3z"/>
	<path style="fill:#324A5E;" d="M161.3,349.3h-39.5c-4,0-7.2,3.2-7.2,7.2s3.2,7.2,7.2,7.2h39.5c4,0,7.2-3.2,7.2-7.2
		S165.2,349.3,161.3,349.3z"/>
</g>
<polygon style="fill:#FF7058;" points="336.3,233 312.2,214.9 289.6,233 289.6,93.6 336.3,93.6 "/>
<g>
</g>
<g>
</g>
<g>
</g>
<g>
</g>
<g>
</g>
<g>
</g>
<g>
</g>
<g>
</g>
<g>
</g>
<g>
</g>
<g>
</g>
<g>
</g>
<g>
</g>
<g>
</g>
<g>
</g>
</svg>
