<?xml version="1.0" encoding="iso-8859-1"?>
<!-- Generator: Adobe Illustrator 19.0.0, SVG Export Plug-In . SVG Version: 6.00 Build 0)  -->
<svg version="1.1" id="Layer_1" xmlns="http://www.w3.org/2000/svg" xmlns:xlink="http://www.w3.org/1999/xlink" x="0px" y="0px"
	 viewBox="0 0 505 505" style="enable-background:new 0 0 505 505;" xml:space="preserve">
<circle style="fill:#FD8469;" cx="252.5" cy="252.5" r="252.5"/>
<path style="fill:#E6E9EE;" d="M425.9,243.5H79.1c-1.1,0-2.1-0.9-2.1-2.1v-75.5c0-1.1,0.9-2.1,2.1-2.1h346.8c1.1,0,2.1,0.9,2.1,2.1
	v75.5C428,242.6,427,243.5,425.9,243.5z"/>
<rect x="95.8" y="182.8" style="fill:#324A5E;" width="313.4" height="41.8"/>
<rect x="95.8" y="205.2" style="fill:#2B3B4E;" width="313.4" height="19.3"/>
<polygon style="fill:#4CDBC4;" points="404.2,363.3 100.8,363.3 152.9,205.3 352.1,205.3 "/>
<path style="fill:#FFFFFF;" d="M146,320.2l23.7-92.9c9.7,0,18.9-6.7,20.5-14.7h124.5c1.6,7.9,10.8,14.7,20.5,14.7l23.7,92.9
	c-12.4,0-20.2,11.7-17.1,27.1H163.1C166.2,331.9,158.5,320.2,146,320.2z"/>
<g>
	<path style="fill:#4CDBC4;" d="M331.9,267.9c2.6,11.9-32.9,22.1-79.4,22.1s-82-10.2-79.4-22.1c2.4-11.2,37.9-19.7,79.4-19.7
		S329.5,256.8,331.9,267.9z"/>
	<path style="fill:#4CDBC4;" d="M274.8,232.7c0.3,4.3-9.7,7.9-22.3,7.9c-12.6,0-22.6-3.6-22.3-7.9c0.3-4.2,10.2-7.5,22.3-7.5
		C264.5,225.2,274.5,228.5,274.8,232.7z"/>
	<path style="fill:#4CDBC4;" d="M280.1,311.6c0.4,6.6-11.9,12.1-27.6,12.1s-28-5.5-27.6-12.1c0.4-6.4,12.8-11.5,27.6-11.5
		C267.3,300.1,279.7,305.2,280.1,311.6z"/>
</g>
<path style="fill:#FFFFFF;" d="M207.7,267h7.9c1.4-3.7,5.5-7,12.5-9.8l9,2.9c-5.3,2.2-8.5,4.6-9.7,7h21c2-3.1,4.5-5.3,7.6-6.7
	c3.1-1.4,7.7-2.1,13.7-2.1c6.1,0,11.1,0.8,15.1,2.4c4.1,1.6,6.4,3.7,7.1,6.4h5.4l0.3,2.7H292c-0.2,3.1-2.7,6.1-7.4,8.9l-10.4-2.8
	c3.3-1.9,5.3-3.9,6-6.1h-20.5v0.1c-1.9,3.2-4.6,5.6-8,7.2s-8.4,2.4-14.9,2.4s-11.8-0.9-15.7-2.7c-3.9-1.8-5.9-4.1-5.9-7h-7.8
	L207.7,267z M277.3,264.1c-1.6-0.7-3.7-1-6.1-1s-4.3,0.3-5.6,0.8c-1.4,0.5-2.7,1.6-3.9,3.1h18.7
	C279.9,265.8,278.9,264.8,277.3,264.1z M229.7,272.9c1.6,0.8,3.7,1.2,6.3,1.2s4.6-0.3,6.1-0.9s2.9-1.8,4.3-3.5h-19.6
	C227.1,271,228.1,272.1,229.7,272.9z"/>
<g>
</g>
<g>
</g>
<g>
</g>
<g>
</g>
<g>
</g>
<g>
</g>
<g>
</g>
<g>
</g>
<g>
</g>
<g>
</g>
<g>
</g>
<g>
</g>
<g>
</g>
<g>
</g>
<g>
</g>
</svg>
