<?xml version="1.0" encoding="iso-8859-1"?>
<!-- Generator: Adobe Illustrator 19.0.0, SVG Export Plug-In . SVG Version: 6.00 Build 0)  -->
<svg version="1.1" id="Layer_1" xmlns="http://www.w3.org/2000/svg" xmlns:xlink="http://www.w3.org/1999/xlink" x="0px" y="0px"
	 viewBox="0 0 505 505" style="enable-background:new 0 0 505 505;" xml:space="preserve">
<circle style="fill:#54C0EB;" cx="252.5" cy="252.5" r="252.5"/>
<path style="fill:#2B3B4E;" d="M392.2,415.3H112.8c-2,0-3.6-1.6-3.6-3.6V93.3c0-2,1.6-3.6,3.6-3.6h279.5c2,0,3.6,1.6,3.6,3.6v318.3
	C395.9,413.7,394.3,415.3,392.2,415.3z"/>
<path style="fill:#FFFFFF;" d="M328.7,298.5H176.3c-1,0-1.8-0.8-1.8-1.8V166.2c0-1,0.8-1.8,1.8-1.8h152.5c1,0,1.8,0.8,1.8,1.8v130.4
	C330.6,297.6,329.8,298.5,328.7,298.5z"/>
<g>
	<polygon style="fill:#E6E9EE;" points="292.6,164.4 230.9,298.5 236.9,298.5 298.5,164.4 	"/>
	<polygon style="fill:#E6E9EE;" points="268.1,164.4 206.5,298.5 218.2,298.5 279.8,164.4 	"/>
</g>
<g>
	<path style="fill:#ACB3BA;" d="M378.9,188.3h-27.1c-0.3,0-0.6-0.3-0.6-0.6v-17.1c0-0.3,0.3-0.6,0.6-0.6h27.1c0.3,0,0.6,0.3,0.6,0.6
		v17.1C379.5,188,379.2,188.3,378.9,188.3z"/>
	<path style="fill:#ACB3BA;" d="M378.9,223.1h-27.1c-0.3,0-0.6-0.3-0.6-0.6v-17c0-0.3,0.3-0.6,0.6-0.6h27.1c0.3,0,0.6,0.3,0.6,0.6
		v17C379.5,222.9,379.2,223.1,378.9,223.1z"/>
	<path style="fill:#ACB3BA;" d="M378.9,258h-27.1c-0.3,0-0.6-0.3-0.6-0.6v-17.1c0-0.3,0.3-0.6,0.6-0.6h27.1c0.3,0,0.6,0.3,0.6,0.6
		v17.1C379.5,257.7,379.2,258,378.9,258z"/>
	<path style="fill:#ACB3BA;" d="M378.9,292.8h-27.1c-0.3,0-0.6-0.3-0.6-0.6v-17.1c0-0.3,0.3-0.6,0.6-0.6h27.1c0.3,0,0.6,0.3,0.6,0.6
		v17.1C379.5,292.6,379.2,292.8,378.9,292.8z"/>
	<path style="fill:#ACB3BA;" d="M153.2,188.3h-27.1c-0.3,0-0.6-0.3-0.6-0.6v-17.1c0-0.3,0.3-0.6,0.6-0.6h27.1c0.3,0,0.6,0.3,0.6,0.6
		v17.1C153.8,188,153.6,188.3,153.2,188.3z"/>
	<path style="fill:#ACB3BA;" d="M153.2,223.1h-27.1c-0.3,0-0.6-0.3-0.6-0.6v-17c0-0.3,0.3-0.6,0.6-0.6h27.1c0.3,0,0.6,0.3,0.6,0.6
		v17C153.8,222.9,153.6,223.1,153.2,223.1z"/>
	<path style="fill:#ACB3BA;" d="M153.2,258h-27.1c-0.3,0-0.6-0.3-0.6-0.6v-17.1c0-0.3,0.3-0.6,0.6-0.6h27.1c0.3,0,0.6,0.3,0.6,0.6
		v17.1C153.8,257.7,153.6,258,153.2,258z"/>
	<path style="fill:#ACB3BA;" d="M153.2,292.8h-27.1c-0.3,0-0.6-0.3-0.6-0.6v-17.1c0-0.3,0.3-0.6,0.6-0.6h27.1c0.3,0,0.6,0.3,0.6,0.6
		v17.1C153.8,292.6,153.6,292.8,153.2,292.8z"/>
</g>
<path style="fill:#E6E9EE;" d="M353.3,350H151.7c-0.7,0-1.3-0.6-1.3-1.3v-26.2c0-0.7,0.6-1.3,1.3-1.3h201.7c0.7,0,1.3,0.6,1.3,1.3
	v26.2C354.6,349.4,354,350,353.3,350z"/>
<rect x="159.2" y="331.5" style="fill:#2B3B4E;" width="186.6" height="8.2"/>
<polygon style="fill:#4CDBC4;" points="359.3,387.7 145.7,387.7 172.4,335.6 332.6,335.6 "/>
<path style="fill:#FFFFFF;" d="M165.4,370l10.4-22.7c6.6,0,13.3-3.5,14.9-7.7h123.6c1.6,4.1,8.3,7.7,14.9,7.7l10.4,22.7
	c-7.5,0-11.7,4.7-9.3,10.9H174.7C177.1,374.8,172.9,370,165.4,370z"/>
<g>
	<path style="fill:#4CDBC4;" d="M281.7,357.9c1.4,8.7-11.6,16.4-29.2,16.4s-30.6-7.7-29.2-16.4c1.3-7.9,14.3-13.9,29.2-13.9
		C267.4,344.1,280.4,350,281.7,357.9z"/>
	<path style="fill:#4CDBC4;" d="M318.3,357.9c1.3,3.6-3.3,6.6-10.4,6.6s-13.5-3-14.3-6.6c-0.8-3.4,3.9-6.1,10.5-6.1
		S317,354.5,318.3,357.9z"/>
	<path style="fill:#4CDBC4;" d="M211.4,357.9c-0.8,3.6-7.3,6.6-14.3,6.6s-11.7-3-10.4-6.6c1.3-3.4,7.6-6.1,14.2-6.1
		C207.5,351.8,212.2,354.5,211.4,357.9z"/>
</g>
<path style="fill:#FFFFFF;" d="M251.3,369.9v-2.2c-5-0.3-9.5-1.4-13.3-3.2l4.1-2.5c2.9,1.4,6,2.2,9.2,2.5V359
	c-4-0.5-6.8-1.1-8.6-1.9s-2.6-1.9-2.5-3.4s1.2-2.6,3.3-3.6c2.1-0.9,4.7-1.4,7.9-1.5v-1.2h3.2v1.2c3.6,0.1,7.1,0.7,10.5,1.8l-3.1,2.3
	c-2.3-0.8-4.7-1.3-7.3-1.5l0.1,4.8h0.2c4,0.5,7,1.1,8.9,1.9s3,2.1,3.1,3.7c0.1,1.7-0.9,3-3.1,4.1s-5.2,1.7-8.9,1.8v2.2h-3.7V369.9z
	 M247.8,351.9c-0.9,0.4-1.3,0.9-1.3,1.4c0,0.6,0.3,1,1,1.4c0.7,0.3,2,0.7,3.9,1v-4.4C249.9,351.3,248.7,351.5,247.8,351.9z
	 M258.9,363.7c1-0.4,1.5-1,1.4-1.7c0-0.7-0.4-1.2-1.2-1.6c-0.8-0.4-2.2-0.7-4.4-1.1l0.1,5.1C256.5,364.4,257.9,364.2,258.9,363.7z"
	/>
<g>
	<path style="fill:#FFD05B;" d="M227.8,143.6l-3.2-7.5h-14.5l-3.2,7.5h-8.2l14.9-34.6h7.5l14.9,34.6H227.8z M217.4,119.3l-4.4,10
		h8.7L217.4,119.3z"/>
	<path style="fill:#FFD05B;" d="M252.2,115.7v27.9h-7.7v-27.9h-9.8V109H262v6.7C262,115.7,252.2,115.7,252.2,115.7z"/>
	<path style="fill:#FFD05B;" d="M298.6,121.8l-9.4,18.9h-4.6l-9.3-18.9v21.8h-7.7V109H278l8.9,19l9-19h10.4v34.6h-7.7L298.6,121.8
		L298.6,121.8z"/>
</g>
<g>
</g>
<g>
</g>
<g>
</g>
<g>
</g>
<g>
</g>
<g>
</g>
<g>
</g>
<g>
</g>
<g>
</g>
<g>
</g>
<g>
</g>
<g>
</g>
<g>
</g>
<g>
</g>
<g>
</g>
</svg>
