<?xml version="1.0" encoding="iso-8859-1"?>
<!-- Generator: Adobe Illustrator 19.0.0, SVG Export Plug-In . SVG Version: 6.00 Build 0)  -->
<svg version="1.1" id="Layer_1" xmlns="http://www.w3.org/2000/svg" xmlns:xlink="http://www.w3.org/1999/xlink" x="0px" y="0px"
	 viewBox="0 0 505 505" style="enable-background:new 0 0 505 505;" xml:space="preserve">
<circle style="fill:#84DBFF;" cx="252.5" cy="252.5" r="252.5"/>
<rect x="123.1" y="95.5" style="fill:#FFFFFF;" width="258.8" height="186.6"/>
<g>
	<rect x="142.4" y="111.8" style="fill:#2B3B4E;" width="3.4" height="154"/>
	<rect x="171.9" y="111.8" style="fill:#2B3B4E;" width="3.4" height="154"/>
	<rect x="205.5" y="111.8" style="fill:#2B3B4E;" width="3.4" height="154"/>
	<rect x="254.2" y="111.8" style="fill:#2B3B4E;" width="3.4" height="154"/>
	<rect x="217.2" y="111.8" style="fill:#2B3B4E;" width="3.4" height="154"/>
	<rect x="155.8" y="111.8" style="fill:#2B3B4E;" width="5.1" height="154"/>
	<rect x="187.2" y="111.8" style="fill:#2B3B4E;" width="8.7" height="154"/>
	<rect x="267.2" y="111.8" style="fill:#2B3B4E;" width="8.7" height="154"/>
	<rect x="230.7" y="111.8" style="fill:#2B3B4E;" width="14" height="154"/>
	<rect x="284.4" y="111.8" style="fill:#2B3B4E;" width="3.4" height="154"/>
	<rect x="313.9" y="111.8" style="fill:#2B3B4E;" width="3.4" height="154"/>
	<rect x="347.5" y="111.8" style="fill:#2B3B4E;" width="3.4" height="154"/>
	<rect x="359.2" y="111.8" style="fill:#2B3B4E;" width="3.4" height="154"/>
	<rect x="297.8" y="111.8" style="fill:#2B3B4E;" width="5.1" height="154"/>
	<rect x="329.2" y="111.8" style="fill:#2B3B4E;" width="8.7" height="154"/>
</g>
<path style="fill:#FF7058;" d="M316.3,226.6H179.6c-7.7,0-13.5,7-12,14.6l7.9,41.6c1.1,5.8,6.8,9.8,12.8,10
	c17.4,0.4,31.3,14.6,31.3,32v105.9c0,5.7,4.6,10.3,10.3,10.3h36.2c5.7,0,10.3-4.6,10.3-10.3V324.8c0-17.7,14.3-32,32-32l0,0
	c5.9,0,10.9-4.2,12-10l7.9-41.6C329.8,233.6,324,226.6,316.3,226.6z"/>
<path style="fill:#324A5E;" d="M219.7,329.6v101.1c0,5.7,4.6,10.3,10.3,10.3h36.2c5.7,0,10.3-4.6,10.3-10.3V329.6H219.7z"/>
<path style="fill:#EDF2F2;" d="M185,226.5v15.3c0,4.5,3.7,8.2,8.2,8.2h109.6c4.5,0,8.2-3.7,8.2-8.2v-15.3H185z"/>
<g>
</g>
<g>
</g>
<g>
</g>
<g>
</g>
<g>
</g>
<g>
</g>
<g>
</g>
<g>
</g>
<g>
</g>
<g>
</g>
<g>
</g>
<g>
</g>
<g>
</g>
<g>
</g>
<g>
</g>
</svg>
