<?xml version="1.0" encoding="iso-8859-1"?>
<!-- Generator: Adobe Illustrator 19.0.0, SVG Export Plug-In . SVG Version: 6.00 Build 0)  -->
<svg version="1.1" id="Layer_1" xmlns="http://www.w3.org/2000/svg" xmlns:xlink="http://www.w3.org/1999/xlink" x="0px" y="0px"
	 viewBox="0 0 505 505" style="enable-background:new 0 0 505 505;" xml:space="preserve">
<path style="fill:#FD8469;" d="M505,252.5C505,392,392,505,252.5,505S0,392,0,252.5C0,113.1,113,0,252.5,0
	c110.1,0,203.7,70.5,238.3,168.7c7.4,21,12.1,43.3,13.7,66.5C504.8,240.9,505,246.7,505,252.5z"/>
<path style="fill:#EDF2F2;" d="M398.3,391.8H106.7V222.9c0-1.5,1.3-2.8,2.8-2.8h286c1.5,0,2.8,1.3,2.8,2.8V391.8z"/>
<rect x="106.7" y="246.4" style="fill:#FFD05B;" width="291.6" height="145.3"/>
<path style="fill:#324A5E;" d="M411.8,382.2H93.2c-1.7,0-3,1.3-3,3v13.1c0,1.7,1.3,3,3,3h318.5c1.7,0,3-1.3,3-3v-13.1
	C414.8,383.6,413.4,382.2,411.8,382.2z"/>
<path style="fill:#F9B54C;" d="M139.2,296.2l8.5,8.2c7.6,7.4,20,7.4,27.7,0l9.3-9.1c4.2-4.1,10.9-4.1,15.1,0l8,7.8
	c7.6,7.4,20,7.4,27.7,0l7.6-7.4c4.2-4.1,11-4,15.1,0l9,8.7c7.6,7.4,20,7.4,27.7,0l9-8.7c4.2-4.1,10.9-4.1,15.1,0l9.3,9.1
	c7.6,7.4,20,7.4,27.7,0l9.3-9.1c4.2-4,10.9-4.1,15.1,0l18.1,17.6v-12.6l-12-11.4c-7.6-7.4-20-7.4-27.7,0l-9.3,9.1
	c-4.2,4.1-11,4.1-15.1,0l-9.3-9.1c-7.6-7.4-20-7.4-27.7,0l-9,8.7c-4.2,4.1-10.9,4.1-15.1,0l-9-8.7c-7.6-7.4-20-7.4-27.7,0l-7.6,7.4
	c-4.2,4.1-10.9,4.1-15.1,0l-8-7.8c-7.6-7.4-20-7.4-27.7,0l-9.3,9.1c-4.2,4.1-11,4.1-15.1,0l-8.5-8.2c-7.6-7.4-20-7.4-27.7,0
	l-10.9,10.7v12.6l17.4-16.9C128.2,292.1,135,292.1,139.2,296.2z"/>
<path style="fill:#FFFFFF;" d="M398.3,231.2c0-6.1-4.9-11-11-11H117.7c-6.1,0-11,4.9-11,11v27.7v12.6l17.4-16.9
	c4.2-4.1,10.9-4.1,15.1,0l8.5,8.2c7.6,7.4,20,7.4,27.7,0l9.3-9.1c4.2-4.1,10.9-4.1,15.1,0l8,7.8c7.6,7.4,20,7.4,27.7,0l7.6-7.4
	c4.2-4.1,11-4,15.1,0l9,8.7c7.6,7.4,20,7.4,27.7,0l9-8.7c4.2-4.1,10.9-4.1,15.1,0l9.3,9.1c7.6,7.4,20,7.4,27.7,0l9.3-9.1
	c4.2-4,10.9-4.1,15.1,0l18.1,17.6v-12.6l-12-11.5l11.8,11.5V231.2z"/>
<path style="fill:#F9B54C;" d="M386.5,336.8c-7.6-7.4-20-7.4-27.7,0l-9.3,9.1c-4.2,4-11,4.1-15.1,0l-9.3-9.1c-7.6-7.4-20-7.4-27.7,0
	l-9,8.7c-4.2,4.1-10.9,4.1-15.1,0l-9-8.7c-7.6-7.4-20-7.4-27.7,0l-7.6,7.4c-4.2,4.1-10.9,4.1-15.1,0l-8-7.8c-7.6-7.4-20-7.4-27.7,0
	l-9.3,9.1c-4.2,4-11,4.1-15.1,0l-8.5-8.2c-7.6-7.4-20-7.4-27.7,0l-11.1,10.8v12.6l17.4-16.9c4.2-4.1,10.9-4.1,15.1,0l8.5,8.2
	c7.6,7.4,20,7.4,27.7,0l9.3-9.1c4.2-4.1,10.9-4.1,15.1,0l8,7.8c7.6,7.4,20,7.4,27.7,0l7.6-7.4c4.2-4.1,11-4.1,15.1,0l9,8.7
	c7.6,7.4,20,7.4,27.7,0l9-8.7c4.2-4.1,10.9-4.1,15.1,0l9.3,9.1c7.6,7.4,20,7.4,27.7,0l9.3-9.1c4.2-4,10.9-4.1,15.1,0l18.1,17.6
	v-12.6L386.5,336.8z"/>
<rect x="334.9" y="132.6" style="fill:#EDF2F2;" width="3.6" height="15.5"/>
<path style="fill:#324A5E;" d="M347.9,141.5h-22.5c-0.8,0-1.4,0.6-1.4,1.4v77.2h25.2v-77.2C349.3,142.2,348.7,141.5,347.9,141.5z"/>
<path style="fill:#FFD05B;" d="M336.7,104.9c-5.3,14.7-9.4,13.1-10.3,19.2c-1,6.6,4.6,12.1,10.3,12.1c5.7,0,10.3-5.4,10.3-12.1
	S338.9,98.8,336.7,104.9z"/>
<rect x="250.7" y="132.6" style="fill:#EDF2F2;" width="3.6" height="15.5"/>
<path style="fill:#324A5E;" d="M263.7,141.5h-22.5c-0.8,0-1.4,0.6-1.4,1.4v77.2H265v-77.2C265.1,142.2,264.5,141.5,263.7,141.5z"/>
<path style="fill:#FFD05B;" d="M252.6,104.9c-5.3,14.7-9.4,13.1-10.3,19.2c-1,6.6,4.6,12.1,10.3,12.1c5.7,0,10.3-5.4,10.3-12.1
	S254.8,98.8,252.6,104.9z"/>
<rect x="166.5" y="132.6" style="fill:#EDF2F2;" width="3.6" height="15.5"/>
<path style="fill:#324A5E;" d="M179.6,141.5h-22.5c-0.8,0-1.4,0.6-1.4,1.4v77.2h25.2v-77.2C180.9,142.2,180.3,141.5,179.6,141.5z"/>
<path style="fill:#FFD05B;" d="M168.4,104.9c-5.3,14.7-9.4,13.1-10.3,19.2c-1,6.6,4.6,12.1,10.3,12.1s10.3-5.4,10.3-12.1
	S170.6,98.8,168.4,104.9z"/>
<g>
</g>
<g>
</g>
<g>
</g>
<g>
</g>
<g>
</g>
<g>
</g>
<g>
</g>
<g>
</g>
<g>
</g>
<g>
</g>
<g>
</g>
<g>
</g>
<g>
</g>
<g>
</g>
<g>
</g>
</svg>
