<?xml version="1.0" encoding="iso-8859-1"?>
<!-- Generator: Adobe Illustrator 19.0.0, SVG Export Plug-In . SVG Version: 6.00 Build 0)  -->
<svg version="1.1" id="Layer_1" xmlns="http://www.w3.org/2000/svg" xmlns:xlink="http://www.w3.org/1999/xlink" x="0px" y="0px"
	 viewBox="0 0 505 505" style="enable-background:new 0 0 505 505;" xml:space="preserve">
<circle style="fill:#324A5E;" cx="252.5" cy="252.5" r="252.5"/>
<polygon style="fill:#FF7058;" points="148.8,103.7 148.8,411.7 252.5,341.7 356.2,411.7 356.2,103.7 "/>
<g>
	<path style="fill:#FFD05B;" d="M253.8,310.7c-0.8-0.5-1.9-0.5-2.7,0l-4,2.7c-1.1,0.7-1.4,2.2-0.7,3.3c0.7,1.1,2.2,1.4,3.3,0.7
		l2.6-1.8l2.6,1.8c0.4,0.3,0.9,0.4,1.3,0.4c0.8,0,1.5-0.4,2-1.1c0.7-1.1,0.5-2.6-0.7-3.3L253.8,310.7z"/>
	<path style="fill:#FFD05B;" d="M239.2,318.7l-8,5.4c-1.1,0.7-1.4,2.2-0.6,3.3c0.5,0.7,1.2,1.1,2,1.1c0.5,0,0.9-0.1,1.3-0.4l8-5.4
		c1.1-0.7,1.4-2.2,0.6-3.3C241.8,318.3,240.3,318,239.2,318.7z"/>
	<path style="fill:#FFD05B;" d="M191.5,350.9l-8,5.4c-1.1,0.7-1.4,2.2-0.6,3.3c0.5,0.7,1.2,1.1,2,1.1c0.5,0,0.9-0.1,1.3-0.4l8-5.4
		c1.1-0.7,1.4-2.2,0.6-3.3C194.1,350.5,192.6,350.2,191.5,350.9z"/>
	<path style="fill:#FFD05B;" d="M207.4,340.2l-8,5.4c-1.1,0.7-1.4,2.2-0.6,3.3c0.5,0.7,1.2,1.1,2,1.1c0.5,0,0.9-0.1,1.3-0.4l8-5.4
		c1.1-0.7,1.4-2.2,0.6-3.3C210,339.8,208.5,339.5,207.4,340.2z"/>
	<path style="fill:#FFD05B;" d="M223.3,329.5l-8,5.4c-1.1,0.7-1.4,2.2-0.6,3.3c0.5,0.7,1.2,1.1,2,1.1c0.5,0,0.9-0.1,1.3-0.4l8-5.4
		c1.1-0.7,1.4-2.2,0.6-3.3C225.9,329,224.4,328.7,223.3,329.5z"/>
	<path style="fill:#FFD05B;" d="M175.6,361.7l-0.2,0.2v-0.3c0-1.3-1.1-2.4-2.4-2.4s-2.4,1.1-2.4,2.4v4.8c0,0.9,0.5,1.7,1.3,2.1
		c0.4,0.2,0.7,0.3,1.1,0.3c0.5,0,0.9-0.1,1.3-0.4l4-2.7c1.1-0.7,1.4-2.2,0.7-3.3C178.2,361.2,176.7,360.9,175.6,361.7z"/>
	<path style="fill:#FFD05B;" d="M172.9,125.9c1.3,0,2.4-1.1,2.4-2.4V114c0-1.3-1.1-2.4-2.4-2.4s-2.4,1.1-2.4,2.4v9.5
		C170.5,124.8,171.6,125.9,172.9,125.9z"/>
	<path style="fill:#FFD05B;" d="M172.9,354.4c1.3,0,2.4-1.1,2.4-2.4v-9.5c0-1.3-1.1-2.4-2.4-2.4s-2.4,1.1-2.4,2.4v9.5
		C170.5,353.4,171.6,354.4,172.9,354.4z"/>
	<path style="fill:#FFD05B;" d="M172.9,335.4c1.3,0,2.4-1.1,2.4-2.4v-9.5c0-1.3-1.1-2.4-2.4-2.4s-2.4,1.1-2.4,2.4v9.5
		C170.5,334.3,171.6,335.4,172.9,335.4z"/>
	<path style="fill:#FFD05B;" d="M172.9,316.4c1.3,0,2.4-1.1,2.4-2.4v-9.5c0-1.3-1.1-2.4-2.4-2.4s-2.4,1.1-2.4,2.4v9.5
		C170.5,315.3,171.6,316.4,172.9,316.4z"/>
	<path style="fill:#FFD05B;" d="M172.9,297.3c1.3,0,2.4-1.1,2.4-2.4v-9.5c0-1.3-1.1-2.4-2.4-2.4s-2.4,1.1-2.4,2.4v9.5
		C170.5,296.2,171.6,297.3,172.9,297.3z"/>
	<path style="fill:#FFD05B;" d="M172.9,278.3c1.3,0,2.4-1.1,2.4-2.4v-9.5c0-1.3-1.1-2.4-2.4-2.4s-2.4,1.1-2.4,2.4v9.5
		C170.5,277.2,171.6,278.3,172.9,278.3z"/>
	<path style="fill:#FFD05B;" d="M172.9,145c1.3,0,2.4-1.1,2.4-2.4v-9.5c0-1.3-1.1-2.4-2.4-2.4s-2.4,1.1-2.4,2.4v9.5
		C170.5,143.9,171.6,145,172.9,145z"/>
	<path style="fill:#FFD05B;" d="M172.9,164c1.3,0,2.4-1.1,2.4-2.4v-9.5c0-1.3-1.1-2.4-2.4-2.4s-2.4,1.1-2.4,2.4v9.5
		C170.5,162.9,171.6,164,172.9,164z"/>
	<path style="fill:#FFD05B;" d="M172.9,202.1c1.3,0,2.4-1.1,2.4-2.4v-9.5c0-1.3-1.1-2.4-2.4-2.4s-2.4,1.1-2.4,2.4v9.5
		C170.5,201,171.6,202.1,172.9,202.1z"/>
	<path style="fill:#FFD05B;" d="M172.9,183c1.3,0,2.4-1.1,2.4-2.4v-9.5c0-1.3-1.1-2.4-2.4-2.4s-2.4,1.1-2.4,2.4v9.5
		C170.5,182,171.6,183,172.9,183z"/>
	<path style="fill:#FFD05B;" d="M172.9,240.2c1.3,0,2.4-1.1,2.4-2.4v-9.5c0-1.3-1.1-2.4-2.4-2.4s-2.4,1.1-2.4,2.4v9.5
		C170.5,239.1,171.6,240.2,172.9,240.2z"/>
	<path style="fill:#FFD05B;" d="M172.9,259.2c1.3,0,2.4-1.1,2.4-2.4v-9.5c0-1.3-1.1-2.4-2.4-2.4s-2.4,1.1-2.4,2.4v9.5
		C170.5,258.1,171.6,259.2,172.9,259.2z"/>
	<path style="fill:#FFD05B;" d="M172.9,221.1c1.3,0,2.4-1.1,2.4-2.4v-9.5c0-1.3-1.1-2.4-2.4-2.4s-2.4,1.1-2.4,2.4v9.5
		C170.5,220.1,171.6,221.1,172.9,221.1z"/>
	<path style="fill:#FFD05B;" d="M332.1,168.7c-1.3,0-2.4,1.1-2.4,2.4v9.5c0,1.3,1.1,2.4,2.4,2.4s2.4-1.1,2.4-2.4v-9.5
		C334.5,169.8,333.4,168.7,332.1,168.7z"/>
	<path style="fill:#FFD05B;" d="M332.1,130.6c-1.3,0-2.4,1.1-2.4,2.4v9.5c0,1.3,1.1,2.4,2.4,2.4s2.4-1.1,2.4-2.4V133
		C334.5,131.7,333.4,130.6,332.1,130.6z"/>
	<path style="fill:#FFD05B;" d="M332.1,149.7c-1.3,0-2.4,1.1-2.4,2.4v9.5c0,1.3,1.1,2.4,2.4,2.4s2.4-1.1,2.4-2.4v-9.5
		C334.5,150.7,333.4,149.7,332.1,149.7z"/>
	<path style="fill:#FFD05B;" d="M332.1,187.7c-1.3,0-2.4,1.1-2.4,2.4v9.5c0,1.3,1.1,2.4,2.4,2.4s2.4-1.1,2.4-2.4v-9.5
		C334.5,188.8,333.4,187.7,332.1,187.7z"/>
	<path style="fill:#FFD05B;" d="M332.1,206.8c-1.3,0-2.4,1.1-2.4,2.4v9.5c0,1.3,1.1,2.4,2.4,2.4s2.4-1.1,2.4-2.4v-9.5
		C334.5,207.9,333.4,206.8,332.1,206.8z"/>
	<path style="fill:#FFD05B;" d="M332.1,111.6c-1.3,0-2.4,1.1-2.4,2.4v9.5c0,1.3,1.1,2.4,2.4,2.4s2.4-1.1,2.4-2.4V114
		C334.5,112.7,333.4,111.6,332.1,111.6z"/>
	<path style="fill:#FFD05B;" d="M332.1,225.8c-1.3,0-2.4,1.1-2.4,2.4v9.5c0,1.3,1.1,2.4,2.4,2.4s2.4-1.1,2.4-2.4v-9.5
		C334.5,226.9,333.4,225.8,332.1,225.8z"/>
	<path style="fill:#FFD05B;" d="M332.1,340.1c-1.3,0-2.4,1.1-2.4,2.4v9.5c0,1.3,1.1,2.4,2.4,2.4s2.4-1.1,2.4-2.4v-9.5
		C334.5,341.2,333.4,340.1,332.1,340.1z"/>
	<path style="fill:#FFD05B;" d="M332.1,321.1c-1.3,0-2.4,1.1-2.4,2.4v9.5c0,1.3,1.1,2.4,2.4,2.4s2.4-1.1,2.4-2.4v-9.5
		C334.5,322.1,333.4,321.1,332.1,321.1z"/>
	<path style="fill:#FFD05B;" d="M332.1,302c-1.3,0-2.4,1.1-2.4,2.4v9.5c0,1.3,1.1,2.4,2.4,2.4s2.4-1.1,2.4-2.4v-9.5
		C334.5,303.1,333.4,302,332.1,302z"/>
	<path style="fill:#FFD05B;" d="M332.1,244.9c-1.3,0-2.4,1.1-2.4,2.4v9.5c0,1.3,1.1,2.4,2.4,2.4s2.4-1.1,2.4-2.4v-9.5
		C334.5,246,333.4,244.9,332.1,244.9z"/>
	<path style="fill:#FFD05B;" d="M332.1,263.9c-1.3,0-2.4,1.1-2.4,2.4v9.5c0,1.3,1.1,2.4,2.4,2.4s2.4-1.1,2.4-2.4v-9.5
		C334.5,265,333.4,263.9,332.1,263.9z"/>
	<path style="fill:#FFD05B;" d="M332.1,283c-1.3,0-2.4,1.1-2.4,2.4v9.5c0,1.3,1.1,2.4,2.4,2.4s2.4-1.1,2.4-2.4v-9.5
		C334.5,284,333.4,283,332.1,283z"/>
	<path style="fill:#FFD05B;" d="M332.1,359.1c-1.3,0-2.4,1.1-2.4,2.4v0.3l-0.2-0.2c-1.1-0.7-2.6-0.5-3.3,0.7
		c-0.7,1.1-0.5,2.6,0.7,3.3l4,2.7c0.4,0.3,0.9,0.4,1.3,0.4s0.8-0.1,1.1-0.3c0.8-0.4,1.3-1.2,1.3-2.1v-4.8
		C334.5,360.2,333.4,359.1,332.1,359.1z"/>
	<path style="fill:#FFD05B;" d="M265.8,318.7c-1.1-0.8-2.6-0.5-3.3,0.6c-0.7,1.1-0.5,2.6,0.6,3.3l8,5.4c0.4,0.3,0.9,0.4,1.3,0.4
		c0.8,0,1.5-0.4,2-1.1c0.7-1.1,0.5-2.6-0.6-3.3L265.8,318.7z"/>
	<path style="fill:#FFD05B;" d="M297.6,340.2c-1.1-0.8-2.6-0.5-3.3,0.6c-0.7,1.1-0.5,2.6,0.6,3.3l8,5.4c0.4,0.3,0.9,0.4,1.3,0.4
		c0.8,0,1.5-0.4,2-1.1c0.7-1.1,0.5-2.6-0.6-3.3L297.6,340.2z"/>
	<path style="fill:#FFD05B;" d="M313.5,350.9c-1.1-0.8-2.6-0.5-3.3,0.6c-0.7,1.1-0.5,2.6,0.6,3.3l8,5.4c0.4,0.3,0.9,0.4,1.3,0.4
		c0.8,0,1.5-0.4,2-1.1c0.7-1.1,0.5-2.6-0.6-3.3L313.5,350.9z"/>
	<path style="fill:#FFD05B;" d="M281.7,329.5c-1.1-0.7-2.6-0.4-3.3,0.7c-0.7,1.1-0.5,2.6,0.7,3.3l8,5.4c0.4,0.3,0.9,0.4,1.3,0.4
		c0.8,0,1.5-0.4,2-1.1c0.7-1.1,0.5-2.6-0.7-3.3L281.7,329.5z"/>
</g>
<rect x="109.3" y="93.3" style="fill:#E6E9EE;" width="286.5" height="20.7"/>
<polygon style="fill:#F1543F;" points="252.5,179.5 269.9,214.7 308.7,220.4 280.6,247.8 287.2,286.5 252.5,268.2 217.8,286.5 
	224.4,247.8 196.3,220.4 235.1,214.7 "/>
<g>
</g>
<g>
</g>
<g>
</g>
<g>
</g>
<g>
</g>
<g>
</g>
<g>
</g>
<g>
</g>
<g>
</g>
<g>
</g>
<g>
</g>
<g>
</g>
<g>
</g>
<g>
</g>
<g>
</g>
</svg>
