<?xml version="1.0" encoding="iso-8859-1"?>
<!-- Generator: Adobe Illustrator 19.0.0, SVG Export Plug-In . SVG Version: 6.00 Build 0)  -->
<svg version="1.1" id="Layer_1" xmlns="http://www.w3.org/2000/svg" xmlns:xlink="http://www.w3.org/1999/xlink" x="0px" y="0px"
	 viewBox="0 0 505 505" style="enable-background:new 0 0 505 505;" xml:space="preserve">
<circle style="fill:#FFD05B;" cx="252.5" cy="252.5" r="252.5"/>
<path style="fill:#FFFFFF;" d="M305.1,232.1H199.9c-38.6,34.3-69.2,79-87,131.1c19-16.9,39.2-30.4,59.8-40.5l0,0
	c5.5,22.3,13.7,42.8,24,61.1c5.4-45.4,24.4-89.8,55.8-126.7c31.3,36.9,50.3,81.2,55.8,126.7c10.3-18.3,18.6-38.8,24-61.1l0,0
	c20.6,10.1,40.9,23.6,59.8,40.5C374.3,311.1,343.8,266.5,305.1,232.1z"/>
<path style="fill:#F1543F;" d="M418.5,140.4c0,0-19.4-76.9-148.5,77.3L422.5,171L418.5,140.4z"/>
<path style="fill:#FF7058;" d="M261.5,212.7c0,0,94.6-76.9,150-77.5c9.9-0.1,18.7,6.3,21.5,15.8c8,26.2,23.4,86.5,7.1,114.7
	c-4.7,8.2-15,12.7-25.4,11.7C381.4,274,283,262.9,260.9,249L261.5,212.7z"/>
<path id="SVGCleanerId_0" style="fill:#F1543F;" d="M442.1,262c-0.6,1.3-1.2,2.6-1.9,3.7c-4.7,8.2-15,12.7-25.4,11.7
	c-23.6-2.4-79.9-8.7-118.6-17.1C336.7,246.5,408.4,228.3,442.1,262z"/>
<g>
	<path id="SVGCleanerId_0_1_" style="fill:#F1543F;" d="M442.1,262c-0.6,1.3-1.2,2.6-1.9,3.7c-4.7,8.2-15,12.7-25.4,11.7
		c-23.6-2.4-79.9-8.7-118.6-17.1C336.7,246.5,408.4,228.3,442.1,262z"/>
</g>
<path style="fill:#F1543F;" d="M86.5,140.4c0,0,19.4-76.9,148.5,77.3L82.5,171L86.5,140.4z"/>
<path style="fill:#FF7058;" d="M243.5,212.7c0,0-94.6-76.9-150-77.5c-9.9-0.1-18.7,6.3-21.5,15.8c-8,26.2-23.4,86.5-7.1,114.7
	c4.7,8.2,15,12.7,25.4,11.7C123.6,274,222,262.9,244.1,249L243.5,212.7z"/>
<path id="SVGCleanerId_1" style="fill:#F1543F;" d="M62.9,262c0.6,1.3,1.2,2.6,1.9,3.7c4.7,8.2,15,12.7,25.4,11.7
	c23.6-2.4,79.9-8.7,118.6-17.1C168.3,246.5,96.6,228.3,62.9,262z"/>
<g>
	<path id="SVGCleanerId_1_1_" style="fill:#F1543F;" d="M62.9,262c0.6,1.3,1.2,2.6,1.9,3.7c4.7,8.2,15,12.7,25.4,11.7
		c23.6-2.4,79.9-8.7,118.6-17.1C168.3,246.5,96.6,228.3,62.9,262z"/>
</g>
<path style="fill:#F1543F;" d="M279.2,267.4h-53.4c-2.1,0-3.8-1.7-3.8-3.8v-73.1c0-2.1,1.7-3.8,3.8-3.8h53.4c2.1,0,3.8,1.7,3.8,3.8
	v73.2C283.1,265.7,281.3,267.4,279.2,267.4z"/>
<g>
</g>
<g>
</g>
<g>
</g>
<g>
</g>
<g>
</g>
<g>
</g>
<g>
</g>
<g>
</g>
<g>
</g>
<g>
</g>
<g>
</g>
<g>
</g>
<g>
</g>
<g>
</g>
<g>
</g>
</svg>
