<?xml version="1.0" encoding="iso-8859-1"?>
<!-- Generator: Adobe Illustrator 19.0.0, SVG Export Plug-In . SVG Version: 6.00 Build 0)  -->
<svg version="1.1" id="Layer_1" xmlns="http://www.w3.org/2000/svg" xmlns:xlink="http://www.w3.org/1999/xlink" x="0px" y="0px"
	 viewBox="0 0 505 505" style="enable-background:new 0 0 505 505;" xml:space="preserve">
<circle style="fill:#90DFAA;" cx="252.5" cy="252.5" r="252.5"/>
<path style="fill:#324A5E;" d="M210.4,186.9h-17v-51.8c0-12.2,10-22.2,22.2-22.2h73.9c12.2,0,22.2,10,22.2,22.2V186h-17v-50.9
	c0-2.8-2.3-5.2-5.2-5.2h-74c-2.8,0-5.2,2.3-5.2,5.2v51.8H210.4z"/>
<path style="fill:#E6E9EE;" d="M388.3,172.9H116.7c-12.4,0-22.4,10-22.4,22.4V359c0,12.4,10,22.4,22.4,22.4h271.6
	c12.4,0,22.4-10,22.4-22.4V195.3C410.7,182.9,400.7,172.9,388.3,172.9z"/>
<g>
	<path style="fill:#324A5E;" d="M388.7,172.9h-26.2v208.5h26.2c12.2,0,22-9.8,22-22V194.9C410.7,182.8,400.8,172.9,388.7,172.9z"/>
	<path style="fill:#324A5E;" d="M116.3,172.9h26.2v208.5h-26.2c-12.2,0-22-9.8-22-22V194.9C94.3,182.8,104.2,172.9,116.3,172.9z"/>
</g>
<path style="fill:#FF7058;" d="M249.2,338.6v-10.8c-13.5-1.4-25.7-6.8-36.5-16.2l10.8-12.9c8.3,7.2,16.8,11.5,25.6,12.9v-28.7
	c-11.2-2.7-19.3-6.2-24.5-10.5s-7.8-10.8-7.8-19.3s3-15.5,9-21c6-5.4,13.8-8.4,23.3-8.9v-7.4h9.5v7.6c10.9,0.8,21.1,4.5,30.8,11.1
	l-9.6,13.6c-6.5-4.6-13.6-7.5-21.2-8.6v27.9h0.4c11.4,2.7,19.7,6.3,25,10.8s8,11.1,8,19.8c0,8.6-3.1,15.7-9.2,21.1
	s-14.2,8.4-24.3,8.9v10.7h-9.3V338.6z M238.8,242.9c-2.5,2.2-3.8,5-3.8,8.3s1,5.9,3,7.9c2,1.9,5.7,3.8,11.3,5.6v-25.6
	C244.8,239.4,241.3,240.7,238.8,242.9z M270,307.9c2.8-2.3,4.2-5.1,4.2-8.6s-1.1-6.2-3.3-8.2c-2.2-2-6.2-3.9-12.2-5.7v26.7
	C263.5,311.6,267.2,310.2,270,307.9z"/>
<g>
</g>
<g>
</g>
<g>
</g>
<g>
</g>
<g>
</g>
<g>
</g>
<g>
</g>
<g>
</g>
<g>
</g>
<g>
</g>
<g>
</g>
<g>
</g>
<g>
</g>
<g>
</g>
<g>
</g>
</svg>
