<?xml version="1.0" encoding="iso-8859-1"?>
<!-- Generator: Adobe Illustrator 19.0.0, SVG Export Plug-In . SVG Version: 6.00 Build 0)  -->
<svg version="1.1" id="Layer_1" xmlns="http://www.w3.org/2000/svg" xmlns:xlink="http://www.w3.org/1999/xlink" x="0px" y="0px"
	 viewBox="0 0 505 505" style="enable-background:new 0 0 505 505;" xml:space="preserve">
<circle style="fill:#324A5E;" cx="252.5" cy="252.5" r="252.5"/>
<path style="fill:#FF7058;" d="M418.8,300.6H86.2c-1.6,0-2.8-1.3-2.8-2.8v-90.6c0-1.6,1.3-2.8,2.8-2.8h332.5c1.6,0,2.8,1.3,2.8,2.8
	v90.6C421.6,299.4,420.3,300.6,418.8,300.6z"/>
<g>
	<path style="fill:#FFFFFF;" d="M130.5,272.7H113v-39.9h15.5c2.7,0,5,0.3,7,1c2,0.6,3.4,1.5,4.4,2.6c1.8,2.1,2.7,4.4,2.7,7
		c0,3.1-1,5.4-3,7c-0.7,0.5-1.2,0.9-1.4,1c-0.3,0.1-0.7,0.4-1.4,0.7c2.5,0.5,4.4,1.6,5.9,3.3s2.2,3.8,2.2,6.3c0,2.8-1,5.2-2.9,7.4
		C139.8,271.5,135.9,272.7,130.5,272.7z M121.9,249h4.2c2.5,0,4.3-0.3,5.5-0.8s1.8-1.7,1.8-3.5s-0.6-2.9-1.7-3.5
		c-1.1-0.6-3-0.9-5.6-0.9h-4.3v8.7H121.9z M121.9,265.2h6.1c2.5,0,4.5-0.3,5.7-0.9c1.3-0.6,1.9-1.9,1.9-3.7c0-1.8-0.7-3.1-2-3.6
		c-1.4-0.6-3.5-0.9-6.5-0.9h-5.2C121.9,256.1,121.9,265.2,121.9,265.2z"/>
	<path style="fill:#FFFFFF;" d="M162.9,262.4c1.5,1.8,3.5,2.8,6,2.8s4.5-0.9,6-2.8c1.5-1.8,2.2-4.4,2.2-7.6v-22h8.9v22.3
		c0,5.8-1.6,10.2-4.8,13.3c-3.2,3.1-7.3,4.6-12.3,4.6s-9.1-1.6-12.3-4.7s-4.8-7.6-4.8-13.3v-22.3h8.9v22
		C160.6,258,161.4,260.6,162.9,262.4z"/>
	<path style="fill:#FFFFFF;" d="M212.3,272.7h-8.9V257l-13.8-24.1h9.6l8.6,14.8l8.6-14.8h9.6L212.2,257v15.7H212.3z"/>
	<path style="fill:#FFFFFF;" d="M273.4,232.8h8.9v39.9h-8.9l-19-25v25h-8.9v-39.9h8.3l19.6,25.7V232.8z"/>
	<path style="fill:#FFFFFF;" d="M325.6,267.2c-4,3.9-9,5.9-14.9,5.9s-10.9-2-14.9-5.9s-6-8.8-6-14.7c0-5.9,2-10.8,6-14.7
		s9-5.9,14.9-5.9s10.9,2,14.9,5.9s6,8.8,6,14.7C331.7,258.4,329.7,263.3,325.6,267.2z M322.6,252.5c0-3.6-1.1-6.6-3.4-9.1
		s-5.1-3.8-8.4-3.8s-6.1,1.3-8.4,3.8s-3.4,5.5-3.4,9.1s1.1,6.6,3.4,9.1s5.1,3.7,8.4,3.7s6.1-1.2,8.4-3.7S322.6,256.1,322.6,252.5z"
		/>
	<path style="fill:#FFFFFF;" d="M351,255.8l7.1-22.9h9.3l7,22.9l7.9-22.9h9.6L378,272.8h-6.6l-8.7-27.7l-8.7,27.7h-6.6l-13.9-40h9.6
		L351,255.8z"/>
</g>
<g>
	<path style="fill:#FFD05B;" d="M257.7,418.3h-10.3c-0.5,0-1-0.4-1-1v-48.9c0-0.5,0.4-1,1-1h10.3c0.5,0,1,0.4,1,1v48.9
		C258.6,417.8,258.2,418.3,257.7,418.3z"/>
	<path style="fill:#FFD05B;" d="M257.7,137.6h-10.3c-0.5,0-1-0.4-1-1V87.7c0-0.5,0.4-1,1-1h10.3c0.5,0,1,0.4,1,1v48.9
		C258.6,137.2,258.2,137.6,257.7,137.6z"/>
	<path style="fill:#FFD05B;" d="M131.6,138.9l7.3-7.3c0.4-0.4,1-0.4,1.4,0l34.6,34.6c0.4,0.4,0.4,1,0,1.4l-7.3,7.3
		c-0.4,0.4-1,0.4-1.4,0l-34.6-34.6C131.3,139.9,131.3,139.3,131.6,138.9z"/>
	<path style="fill:#FFD05B;" d="M366.1,131.6l7.3,7.3c0.4,0.4,0.4,1,0,1.4l-34.6,34.6c-0.4,0.4-1,0.4-1.4,0l-7.3-7.3
		c-0.4-0.4-0.4-1,0-1.4l34.6-34.6C365.1,131.3,365.7,131.3,366.1,131.6z"/>
	<path style="fill:#FFD05B;" d="M167.6,330.1l7.3,7.3c0.4,0.4,0.4,1,0,1.4l-34.6,34.6c-0.4,0.4-1,0.4-1.4,0l-7.3-7.3
		c-0.4-0.4-0.4-1,0-1.4l34.6-34.6C166.6,329.7,167.2,329.7,167.6,330.1z"/>
</g>
<polygon style="fill:#FFFFFF;" points="394.4,324.8 280.1,291.3 306.2,407.4 332.3,370.6 370.5,411.3 394.1,389.2 355.9,348.5 "/>
<g>
</g>
<g>
</g>
<g>
</g>
<g>
</g>
<g>
</g>
<g>
</g>
<g>
</g>
<g>
</g>
<g>
</g>
<g>
</g>
<g>
</g>
<g>
</g>
<g>
</g>
<g>
</g>
<g>
</g>
</svg>
