<?xml version="1.0" encoding="iso-8859-1"?>
<!-- Generator: Adobe Illustrator 19.0.0, SVG Export Plug-In . SVG Version: 6.00 Build 0)  -->
<svg version="1.1" id="Layer_1" xmlns="http://www.w3.org/2000/svg" xmlns:xlink="http://www.w3.org/1999/xlink" x="0px" y="0px"
	 viewBox="0 0 505 505" style="enable-background:new 0 0 505 505;" xml:space="preserve">
<circle style="fill:#90DFAA;" cx="252.5" cy="252.5" r="252.5"/>
<path style="fill:#FFFFFF;" d="M382.3,296.1l26.3-26.3c9.6-9.6,9.6-25,0-34.6l-26.3-26.3c-4.6-4.6-7.2-10.8-7.2-17.3v-37.2
	c0-13.5-11-24.5-24.5-24.5h-37.2c-6.5,0-12.7-2.6-17.3-7.2l-26.3-26.3c-9.6-9.6-25-9.6-34.6,0l-26.3,26.3
	c-4.6,4.6-10.8,7.2-17.3,7.2h-37.2c-13.5,0-24.5,11-24.5,24.5v37.2c0,6.5-2.6,12.7-7.2,17.3l-26.3,26.3c-9.6,9.6-9.6,25,0,34.6
	l26.3,26.3c4.6,4.6,7.2,10.8,7.2,17.3v37.2c0,13.5,11,24.5,24.5,24.5h37.2c6.5,0,12.7,2.6,17.3,7.2l26.3,26.3c9.6,9.6,25,9.6,34.6,0
	l26.3-26.3c4.6-4.6,10.8-7.2,17.3-7.2h37.2c13.5,0,24.5-11,24.5-24.5v-37.2C375.1,306.9,377.7,300.7,382.3,296.1z"/>
<g>
	<path style="fill:#FF7058;" d="M201.4,257.3l-18.6,10.5l-24-42.3l16.5-9.4c2.9-1.6,5.5-2.7,8-3.2s4.6-0.5,6.3,0.1
		c3.1,1.1,5.5,3,7.1,5.8c1.9,3.3,2.2,6.4,1,9.2c-0.4,1-0.7,1.6-0.9,1.9c-0.2,0.3-0.6,0.8-1.1,1.6c2.9-0.9,5.7-0.9,8.3,0
		s4.6,2.7,6.1,5.4c1.7,3,2.1,6.1,1.4,9.5C210.6,250.4,207.2,254,201.4,257.3z M178,237.3l4.5-2.5c2.6-1.5,4.4-2.9,5.4-4.2
		s0.9-2.9-0.2-4.8c-1.1-1.9-2.4-2.8-3.9-2.7s-3.7,0.9-6.5,2.5l-4.5,2.6L178,237.3z M187.8,254.5l6.5-3.7c2.7-1.5,4.5-3,5.5-4.5
		c1-1.4,0.9-3.1-0.2-5.1c-1.1-2-2.6-2.8-4.4-2.7c-1.8,0.2-4.3,1.2-7.4,3l-5.6,3.2L187.8,254.5z"/>
	<path style="fill:#FF7058;" d="M229.6,226.8c2.7,1.1,5.4,0.8,8-0.7c2.7-1.5,4.2-3.7,4.7-6.5c0.4-2.8-0.3-6-2.2-9.4l-13.3-23.4
		l9.5-5.4l13.5,23.7c3.5,6.1,4.5,11.8,3,17.1c-1.5,5.2-4.9,9.3-10.2,12.3s-10.6,3.8-15.9,2.5c-5.3-1.4-9.7-5.1-13.1-11.2l-13.5-23.7
		l9.5-5.4l13.3,23.4C224.6,223.5,227,225.8,229.6,226.8z"/>
	<path style="fill:#FF7058;" d="M288.4,207.9l-9.5,5.4l-9.5-16.7l-29.2-17.3l10.2-5.8l18.1,10.6l0.2-21l10.2-5.8l-0.1,34
		L288.4,207.9z"/>
	<path style="fill:#FF7058;" d="M211.8,291.6l9.5-5.4l24.1,42.4l-9.5,5.4l-35.3-15.1l15.1,26.6l-9.5,5.4l-24-42.4l8.9-5l36.3,15.5
		L211.8,291.6z"/>
	<path style="fill:#FF7058;" d="M288.1,296.6c-1.9,6.6-6,11.7-12.3,15.3c-6.3,3.6-12.7,4.5-19.4,2.7c-6.7-1.7-11.8-5.7-15.3-12
		c-3.5-6.2-4.3-12.6-2.4-19.3c1.9-6.6,6-11.7,12.3-15.3c6.3-3.6,12.7-4.5,19.4-2.7c6.7,1.7,11.8,5.7,15.3,12S290,290,288.1,296.6z
		 M276,282.8c-2.1-3.8-5.2-6.3-9.1-7.6c-3.9-1.3-7.7-0.9-11.2,1.1s-5.8,5-6.7,9.1c-0.9,4-0.3,8,1.9,11.7c2.1,3.8,5.2,6.3,9.1,7.6
		c3.9,1.3,7.7,0.9,11.2-1.1s5.8-5,6.7-9.1C278.8,290.5,278.2,286.6,276,282.8z"/>
	<path style="fill:#FF7058;" d="M308.2,269.1l-6.3-28.6l9.9-5.6l21.3,20.1l-5.4-29.2l10.2-5.8l9.3,50.8l-7,4l-26-24.2l7.5,34.7l-7,4
		l-38.9-34l10.2-5.8L308.2,269.1z"/>
</g>
<g>
</g>
<g>
</g>
<g>
</g>
<g>
</g>
<g>
</g>
<g>
</g>
<g>
</g>
<g>
</g>
<g>
</g>
<g>
</g>
<g>
</g>
<g>
</g>
<g>
</g>
<g>
</g>
<g>
</g>
</svg>
