<?xml version="1.0" encoding="iso-8859-1"?>
<!-- Generator: Adobe Illustrator 19.0.0, SVG Export Plug-In . SVG Version: 6.00 Build 0)  -->
<svg version="1.1" id="Layer_1" xmlns="http://www.w3.org/2000/svg" xmlns:xlink="http://www.w3.org/1999/xlink" x="0px" y="0px"
	 viewBox="0 0 505 505" style="enable-background:new 0 0 505 505;" xml:space="preserve">
<circle style="fill:#324A5E;" cx="252.5" cy="252.5" r="252.5"/>
<path style="fill:#FFFFFF;" d="M371.9,424.1H133.1c-3.2,0-5.7-2.6-5.7-5.7V86.6c0-3.2,2.6-5.7,5.7-5.7h238.7c3.2,0,5.7,2.6,5.7,5.7
	v331.7C377.6,421.5,375,424.1,371.9,424.1z"/>
<rect x="155.9" y="127.7" style="fill:#54C0EB;" width="193.3" height="141.6"/>
<g>
	<path style="fill:#CED5E0;" d="M210.1,316.1h-53.3c-0.5,0-0.9-0.4-0.9-0.9v-20.8c0-0.5,0.4-0.9,0.9-0.9h53.3c0.5,0,0.9,0.4,0.9,0.9
		v20.8C211,315.6,210.6,316.1,210.1,316.1z"/>
	<path style="fill:#CED5E0;" d="M210.1,355.6h-53.3c-0.5,0-0.9-0.4-0.9-0.9v-20.8c0-0.5,0.4-0.9,0.9-0.9h53.3c0.5,0,0.9,0.4,0.9,0.9
		v20.8C211,355.2,210.6,355.6,210.1,355.6z"/>
	<path style="fill:#CED5E0;" d="M210.1,395.1h-53.3c-0.5,0-0.9-0.4-0.9-0.9v-20.8c0-0.5,0.4-0.9,0.9-0.9h53.3c0.5,0,0.9,0.4,0.9,0.9
		v20.8C211,394.7,210.6,395.1,210.1,395.1z"/>
	<path style="fill:#CED5E0;" d="M279.1,316.1h-53.3c-0.5,0-0.9-0.4-0.9-0.9v-20.8c0-0.5,0.4-0.9,0.9-0.9h53.3c0.5,0,0.9,0.4,0.9,0.9
		v20.8C280.1,315.6,279.6,316.1,279.1,316.1z"/>
	<path style="fill:#CED5E0;" d="M279.1,355.6h-53.3c-0.5,0-0.9-0.4-0.9-0.9v-20.8c0-0.5,0.4-0.9,0.9-0.9h53.3c0.5,0,0.9,0.4,0.9,0.9
		v20.8C280.1,355.2,279.6,355.6,279.1,355.6z"/>
	<path style="fill:#CED5E0;" d="M279.1,395.1h-53.3c-0.5,0-0.9-0.4-0.9-0.9v-20.8c0-0.5,0.4-0.9,0.9-0.9h53.3c0.5,0,0.9,0.4,0.9,0.9
		v20.8C280.1,394.7,279.6,395.1,279.1,395.1z"/>
	<path style="fill:#CED5E0;" d="M348.2,316.1h-53.3c-0.5,0-0.9-0.4-0.9-0.9v-20.8c0-0.5,0.4-0.9,0.9-0.9h53.3c0.5,0,0.9,0.4,0.9,0.9
		v20.8C349.1,315.6,348.7,316.1,348.2,316.1z"/>
	<path style="fill:#CED5E0;" d="M348.2,355.6h-53.3c-0.5,0-0.9-0.4-0.9-0.9v-20.8c0-0.5,0.4-0.9,0.9-0.9h53.3c0.5,0,0.9,0.4,0.9,0.9
		v20.8C349.1,355.2,348.7,355.6,348.2,355.6z"/>
	<path style="fill:#CED5E0;" d="M348.2,395.1h-53.3c-0.5,0-0.9-0.4-0.9-0.9v-20.8c0-0.5,0.4-0.9,0.9-0.9h53.3c0.5,0,0.9,0.4,0.9,0.9
		v20.8C349.1,394.7,348.7,395.1,348.2,395.1z"/>
</g>
<path style="fill:#E6E9EE;" d="M286.7,109.1h-68.4c-3.1,0-5.6-2.5-5.6-5.6l0,0c0-3.1,2.5-5.6,5.6-5.6h68.4c3.1,0,5.6,2.5,5.6,5.6
	l0,0C292.3,106.5,289.8,109.1,286.7,109.1z"/>
<g>
	<path style="fill:#FFFFFF;" d="M226.7,191.3c1.8-2.6,2.8-5.1,2.8-7.6c0-2.4-0.8-4.5-2.4-6.1c-1.6-1.6-3.7-2.4-6.2-2.4
		c-4.6,0-8.9,3.3-13.1,9.8l-13.1-7.7c3.4-5.3,7.2-9.3,11.2-12c4.1-2.7,9.3-4.1,15.6-4.1s11.8,2,16.6,6s7.2,9.4,7.2,16.3
		c0,3.8-1,7.4-2.9,10.8c-1.9,3.4-5.4,7.8-10.6,13.2l-13.2,13.7h28.9v14.6H196v-12.1l21.4-21.9C221.8,197.4,224.9,193.9,226.7,191.3z
		"/>
	<path style="fill:#FFFFFF;" d="M286.3,204.3v-12.7H302v12.7h8.2v14.1H302v17.4h-15.7v-17.4H257V206l26-43.1h17.7L276,204.3
		L286.3,204.3L286.3,204.3z"/>
</g>
<g>
</g>
<g>
</g>
<g>
</g>
<g>
</g>
<g>
</g>
<g>
</g>
<g>
</g>
<g>
</g>
<g>
</g>
<g>
</g>
<g>
</g>
<g>
</g>
<g>
</g>
<g>
</g>
<g>
</g>
</svg>
