<?xml version="1.0" encoding="iso-8859-1"?>
<!-- Generator: Adobe Illustrator 19.0.0, SVG Export Plug-In . SVG Version: 6.00 Build 0)  -->
<svg version="1.1" id="Layer_1" xmlns="http://www.w3.org/2000/svg" xmlns:xlink="http://www.w3.org/1999/xlink" x="0px" y="0px"
	 viewBox="0 0 505 505" style="enable-background:new 0 0 505 505;" xml:space="preserve">
<circle style="fill:#FD8469;" cx="252.5" cy="252.5" r="252.5"/>
<path style="fill:#FFFFFF;" d="M388,421.2H117c-4.1,0-7.5-3.4-7.5-7.5V91.3c0-4.1,3.4-7.5,7.5-7.5h270.9c4.1,0,7.5,3.4,7.5,7.5
	v322.5C395.5,417.9,392.1,421.2,388,421.2z"/>
<path style="fill:#54C0EB;" d="M369.4,178.5v-58.7c0-4.9-4-8.9-8.9-8.9h-216c-4.9,0-8.9,4-8.9,8.9v58.7c0,4.9,4,8.9,8.9,8.9h216
	C365.4,187.4,369.4,183.4,369.4,178.5z"/>
<path style="fill:#CED5E0;" d="M232,284.9h-94c-1.2,0-2.3-1-2.3-2.3v-67.4c0-1.2,1-2.3,2.3-2.3h94c1.2,0,2.3,1,2.3,2.3v67.4
	C234.2,283.9,233.2,284.9,232,284.9z"/>
<path style="fill:#4CDBC4;" d="M364.7,284.9h-94c-1.2,0-2.3-1-2.3-2.3v-67.4c0-1.2,1-2.3,2.3-2.3h94c1.2,0,2.3,1,2.3,2.3v67.4
	C367,283.9,366,284.9,364.7,284.9z"/>
<g>
	<path style="fill:#CED5E0;" d="M364.7,389.6h-94c-1.2,0-2.3-1-2.3-2.3v-67.4c0-1.2,1-2.3,2.3-2.3h94c1.2,0,2.3,1,2.3,2.3v67.4
		C367,388.6,366,389.6,364.7,389.6z"/>
	<path style="fill:#CED5E0;" d="M232,389.6h-94c-1.2,0-2.3-1-2.3-2.3v-67.4c0-1.2,1-2.3,2.3-2.3h94c1.2,0,2.3,1,2.3,2.3v67.4
		C234.2,388.6,233.2,389.6,232,389.6z"/>
</g>
<g>
	<polygon style="fill:#FFFFFF;" points="200.8,244.4 189.5,244.4 189.5,233.1 180.5,233.1 180.5,244.4 169.2,244.4 169.2,253.4 
		180.5,253.4 180.5,264.7 189.5,264.7 189.5,253.4 200.8,253.4 	"/>
	<path style="fill:#FFFFFF;" d="M169.2,358.1v-9h31.6v9H169.2z"/>
	<polygon style="fill:#FFFFFF;" points="333.5,240.1 326.6,233.1 317.7,241.9 308.9,233.1 302,240.1 310.8,248.9 302,257.7 
		308.9,264.7 317.7,255.9 326.5,264.7 333.5,257.7 324.7,248.9 	"/>
	<rect x="302" y="342" style="fill:#FFFFFF;" width="31.6" height="9"/>
	<rect x="302" y="356.3" style="fill:#FFFFFF;" width="31.6" height="9"/>
</g>
<g>
</g>
<g>
</g>
<g>
</g>
<g>
</g>
<g>
</g>
<g>
</g>
<g>
</g>
<g>
</g>
<g>
</g>
<g>
</g>
<g>
</g>
<g>
</g>
<g>
</g>
<g>
</g>
<g>
</g>
</svg>
