<?xml version="1.0" encoding="iso-8859-1"?>
<!-- Generator: Adobe Illustrator 19.0.0, SVG Export Plug-In . SVG Version: 6.00 Build 0)  -->
<svg version="1.1" id="Layer_1" xmlns="http://www.w3.org/2000/svg" xmlns:xlink="http://www.w3.org/1999/xlink" x="0px" y="0px"
	 viewBox="0 0 505 505" style="enable-background:new 0 0 505 505;" xml:space="preserve">
<circle style="fill:#F1543F;" cx="252.5" cy="252.5" r="252.5"/>
<path style="fill:#324A5E;" d="M321.8,418.9h-212c-2.8,0-5.1-2.3-5.1-5.1V119.2c0-2.8,2.3-5.1,5.1-5.1h212c2.8,0,5.1,2.3,5.1,5.1
	v294.6C326.9,416.6,324.6,418.9,321.8,418.9z"/>
<rect x="130" y="155.7" style="fill:#84DBFF;" width="171.7" height="133"/>
<g>
	<path style="fill:#ACB3BA;" d="M178.2,326h-47.4c-0.4,0-0.8-0.4-0.8-0.8v-17.6c0-0.4,0.4-0.8,0.8-0.8h47.4c0.4,0,0.8,0.4,0.8,0.8
		v17.6C179,325.7,178.6,326,178.2,326z"/>
	<path style="fill:#ACB3BA;" d="M178.2,359.6h-47.4c-0.4,0-0.8-0.4-0.8-0.8v-17.6c0-0.4,0.4-0.8,0.8-0.8h47.4c0.4,0,0.8,0.4,0.8,0.8
		v17.6C179,359.2,178.6,359.6,178.2,359.6z"/>
	<path style="fill:#ACB3BA;" d="M178.2,393.1h-47.4c-0.4,0-0.8-0.4-0.8-0.8v-17.6c0-0.4,0.4-0.8,0.8-0.8h47.4c0.4,0,0.8,0.4,0.8,0.8
		v17.6C179,392.8,178.6,393.1,178.2,393.1z"/>
	<path style="fill:#ACB3BA;" d="M239.5,326h-47.4c-0.4,0-0.8-0.4-0.8-0.8v-17.6c0-0.4,0.4-0.8,0.8-0.8h47.4c0.4,0,0.8,0.4,0.8,0.8
		v17.6C240.3,325.7,239.9,326,239.5,326z"/>
	<path style="fill:#ACB3BA;" d="M239.5,359.6h-47.4c-0.4,0-0.8-0.4-0.8-0.8v-17.6c0-0.4,0.4-0.8,0.8-0.8h47.4c0.4,0,0.8,0.4,0.8,0.8
		v17.6C240.3,359.2,239.9,359.6,239.5,359.6z"/>
	<path style="fill:#ACB3BA;" d="M239.5,393.1h-47.4c-0.4,0-0.8-0.4-0.8-0.8v-17.6c0-0.4,0.4-0.8,0.8-0.8h47.4c0.4,0,0.8,0.4,0.8,0.8
		v17.6C240.3,392.8,239.9,393.1,239.5,393.1z"/>
	<path style="fill:#ACB3BA;" d="M300.8,326h-47.3c-0.4,0-0.8-0.4-0.8-0.8v-17.6c0-0.4,0.4-0.8,0.8-0.8h47.4c0.4,0,0.8,0.4,0.8,0.8
		v17.6C301.6,325.7,301.3,326,300.8,326z"/>
	<path style="fill:#ACB3BA;" d="M300.8,359.6h-47.3c-0.4,0-0.8-0.4-0.8-0.8v-17.6c0-0.4,0.4-0.8,0.8-0.8h47.4c0.4,0,0.8,0.4,0.8,0.8
		v17.6C301.6,359.2,301.3,359.6,300.8,359.6z"/>
	<path style="fill:#ACB3BA;" d="M300.8,393.1h-47.3c-0.4,0-0.8-0.4-0.8-0.8v-17.6c0-0.4,0.4-0.8,0.8-0.8h47.4c0.4,0,0.8,0.4,0.8,0.8
		v17.6C301.6,392.8,301.3,393.1,300.8,393.1z"/>
</g>
<path style="fill:#2B3B4E;" d="M246.2,139.1h-60.7c-2.8,0-5-2.2-5-5l0,0c0-2.8,2.2-5,5-5h60.7c2.8,0,5,2.2,5,5l0,0
	C251.2,136.9,248.9,139.1,246.2,139.1z"/>
<path style="fill:#FFFFFF;" d="M344.3,89.8c-44.1,0-79.8,35.7-79.8,79.8c0,7.8,1.2,15.4,3.3,22.6l-41.6,42.2l57.3-13.1
	c14.6,17.2,36.4,28.2,60.8,28.2c44.1,0,79.8-35.7,79.8-79.8C424.1,125.5,388.4,89.8,344.3,89.8z"/>
<path style="fill:#2C9984;" d="M336.6,140.2c2.6,2.8,3.9,6.3,3.9,10.3s-1.3,7.5-4,10.3c-2.6,2.9-5.9,4.3-9.9,4.3
	c-3.9,0-7.2-1.4-9.8-4.2c-2.6-2.8-3.9-6.3-3.9-10.3s1.3-7.5,4-10.3s5.9-4.3,9.9-4.3C330.7,135.9,333.9,137.4,336.6,140.2z
	 M373.7,137.5L327,201.3h-11.8l46.7-63.8H373.7z M330.4,155.2c1-1.2,1.5-2.8,1.5-4.6s-0.5-3.4-1.6-4.6c-1-1.2-2.3-1.9-3.8-1.9
	s-2.7,0.6-3.7,1.9c-1,1.2-1.5,2.8-1.5,4.6s0.5,3.4,1.6,4.6c1,1.2,2.3,1.9,3.8,1.9C328.2,157.1,329.5,156.5,330.4,155.2z
	 M372.8,177.1c2.6,2.8,3.9,6.2,3.9,10.3c0,4-1.3,7.5-4,10.3c-2.6,2.9-5.9,4.3-9.9,4.3c-3.9,0-7.2-1.4-9.8-4.2
	c-2.6-2.8-3.9-6.3-3.9-10.3s1.3-7.5,4-10.3c2.6-2.9,5.9-4.3,9.9-4.3C366.9,172.9,370.2,174.3,372.8,177.1z M366.9,192.4
	c1-1.2,1.5-2.8,1.5-4.6s-0.5-3.4-1.6-4.6c-1-1.2-2.3-1.9-3.8-1.9s-2.7,0.6-3.7,1.9c-1,1.2-1.5,2.8-1.5,4.6s0.5,3.4,1.6,4.6
	c1,1.2,2.3,1.9,3.8,1.9C364.7,194.3,365.9,193.6,366.9,192.4z"/>
<g>
</g>
<g>
</g>
<g>
</g>
<g>
</g>
<g>
</g>
<g>
</g>
<g>
</g>
<g>
</g>
<g>
</g>
<g>
</g>
<g>
</g>
<g>
</g>
<g>
</g>
<g>
</g>
<g>
</g>
</svg>
