<?xml version="1.0" encoding="iso-8859-1"?>
<!-- Generator: Adobe Illustrator 19.0.0, SVG Export Plug-In . SVG Version: 6.00 Build 0)  -->
<svg version="1.1" id="Layer_1" xmlns="http://www.w3.org/2000/svg" xmlns:xlink="http://www.w3.org/1999/xlink" x="0px" y="0px"
	 viewBox="0 0 505 505" style="enable-background:new 0 0 505 505;" xml:space="preserve">
<circle style="fill:#324A5E;" cx="252.5" cy="252.5" r="252.5"/>
<path style="fill:#FFFFFF;" d="M376.5,410.9h-248c-2.2,0-4-1.8-4-4V98.1c0-2.2,1.8-4,4-4h248c2.2,0,4,1.8,4,4v308.8
	C380.5,409.1,378.7,410.9,376.5,410.9z"/>
<path style="fill:#E6E9EE;" d="M362.5,175.7v-60.9c0-1.5-1.2-2.8-2.8-2.8H145.3c-1.5,0-2.8,1.2-2.8,2.8v60.9c0,1.5,1.2,2.8,2.8,2.8
	h214.5C361.3,178.5,362.5,177.3,362.5,175.7z"/>
<rect x="149.7" y="119.3" style="fill:#ACB3BA;" width="205.7" height="52"/>
<path style="fill:#FF7058;" d="M182.8,232.4h-38.9c-0.8,0-1.5-0.7-1.5-1.5V203c0-0.8,0.7-1.5,1.5-1.5h38.9c0.8,0,1.5,0.7,1.5,1.5
	v27.9C184.3,231.7,183.6,232.4,182.8,232.4z"/>
<g>
	<path style="fill:#E6E9EE;" d="M241.5,232.4h-38.9c-0.8,0-1.5-0.7-1.5-1.5V203c0-0.8,0.7-1.5,1.5-1.5h38.9c0.8,0,1.5,0.7,1.5,1.5
		v27.9C243,231.7,242.3,232.4,241.5,232.4z"/>
	<path style="fill:#E6E9EE;" d="M300.9,232.4H262c-0.8,0-1.5-0.7-1.5-1.5V203c0-0.8,0.7-1.5,1.5-1.5h38.9c0.8,0,1.5,0.7,1.5,1.5
		v27.9C302.4,231.7,301.7,232.4,300.9,232.4z"/>
	<path style="fill:#E6E9EE;" d="M361.1,232.4h-38.9c-0.8,0-1.5-0.7-1.5-1.5V203c0-0.8,0.7-1.5,1.5-1.5h38.9c0.8,0,1.5,0.7,1.5,1.5
		v27.9C362.5,231.7,361.9,232.4,361.1,232.4z"/>
	<path style="fill:#E6E9EE;" d="M182.8,284.3h-38.9c-0.8,0-1.5-0.7-1.5-1.5v-27.9c0-0.8,0.7-1.5,1.5-1.5h38.9c0.8,0,1.5,0.7,1.5,1.5
		v27.9C184.3,283.6,183.6,284.3,182.8,284.3z"/>
	<path style="fill:#E6E9EE;" d="M241.5,284.3h-38.9c-0.8,0-1.5-0.7-1.5-1.5v-27.9c0-0.8,0.7-1.5,1.5-1.5h38.9c0.8,0,1.5,0.7,1.5,1.5
		v27.9C243,283.6,242.3,284.3,241.5,284.3z"/>
	<path style="fill:#E6E9EE;" d="M300.9,284.3H262c-0.8,0-1.5-0.7-1.5-1.5v-27.9c0-0.8,0.7-1.5,1.5-1.5h38.9c0.8,0,1.5,0.7,1.5,1.5
		v27.9C302.4,283.6,301.7,284.3,300.9,284.3z"/>
	<path style="fill:#E6E9EE;" d="M361.1,284.3h-38.9c-0.8,0-1.5-0.7-1.5-1.5v-27.9c0-0.8,0.7-1.5,1.5-1.5h38.9c0.8,0,1.5,0.7,1.5,1.5
		v27.9C362.5,283.6,361.9,284.3,361.1,284.3z"/>
	<path style="fill:#E6E9EE;" d="M182.8,336.1h-38.9c-0.8,0-1.5-0.7-1.5-1.5v-27.9c0-0.8,0.7-1.5,1.5-1.5h38.9c0.8,0,1.5,0.7,1.5,1.5
		v27.9C184.3,335.5,183.6,336.1,182.8,336.1z"/>
	<path style="fill:#E6E9EE;" d="M241.5,336.1h-38.9c-0.8,0-1.5-0.7-1.5-1.5v-27.9c0-0.8,0.7-1.5,1.5-1.5h38.9c0.8,0,1.5,0.7,1.5,1.5
		v27.9C243,335.5,242.3,336.1,241.5,336.1z"/>
	<path style="fill:#E6E9EE;" d="M300.9,336.1H262c-0.8,0-1.5-0.7-1.5-1.5v-27.9c0-0.8,0.7-1.5,1.5-1.5h38.9c0.8,0,1.5,0.7,1.5,1.5
		v27.9C302.4,335.5,301.7,336.1,300.9,336.1z"/>
	<path style="fill:#E6E9EE;" d="M182.8,388h-38.9c-0.8,0-1.5-0.7-1.5-1.5v-27.9c0-0.8,0.7-1.5,1.5-1.5h38.9c0.8,0,1.5,0.7,1.5,1.5
		v27.9C184.3,387.4,183.6,388,182.8,388z"/>
	<path style="fill:#E6E9EE;" d="M241.5,388h-38.9c-0.8,0-1.5-0.7-1.5-1.5v-27.9c0-0.8,0.7-1.5,1.5-1.5h38.9c0.8,0,1.5,0.7,1.5,1.5
		v27.9C243,387.4,242.3,388,241.5,388z"/>
	<path style="fill:#E6E9EE;" d="M300.9,388H262c-0.8,0-1.5-0.7-1.5-1.5v-27.9c0-0.8,0.7-1.5,1.5-1.5h38.9c0.8,0,1.5,0.7,1.5,1.5
		v27.9C302.4,387.4,301.7,388,300.9,388z"/>
</g>
<path style="fill:#54C0EB;" d="M361.1,388h-38.9c-0.8,0-1.5-0.7-1.5-1.5v-79.7c0-0.8,0.7-1.5,1.5-1.5h38.9c0.8,0,1.5,0.7,1.5,1.5
	v79.7C362.5,387.4,361.9,388,361.1,388z"/>
<g>
</g>
<g>
</g>
<g>
</g>
<g>
</g>
<g>
</g>
<g>
</g>
<g>
</g>
<g>
</g>
<g>
</g>
<g>
</g>
<g>
</g>
<g>
</g>
<g>
</g>
<g>
</g>
<g>
</g>
</svg>
