<?xml version="1.0" encoding="iso-8859-1"?>
<!-- Generator: Adobe Illustrator 19.0.0, SVG Export Plug-In . SVG Version: 6.00 Build 0)  -->
<svg version="1.1" id="Layer_1" xmlns="http://www.w3.org/2000/svg" xmlns:xlink="http://www.w3.org/1999/xlink" x="0px" y="0px"
	 viewBox="0 0 505 505" style="enable-background:new 0 0 505 505;" xml:space="preserve">
<circle style="fill:#FFD05B;" cx="252.5" cy="252.5" r="252.5"/>
<g>
	<path style="fill:#F1543F;" d="M125.6,314.8c6.2,8.9,5.3,21.2-2.7,29.2c-9,9-23.5,9-32.4,0c-3.2-3.2-5.2-7-6.1-11.1
		c-1.9,1.9-3.6,4.1-4.8,6.5c-2.6,5.4-2.8,12.2,0.8,17c6.9,9.3,23,4.9,30.7,12.4c1.2,1.2,1.8,2.9,1.5,4.6c-0.8,5.5,1,12.6,4,16.7
		c3.5,4.6,8.7,7.8,14.3,9.6c3.3,1,7,1.9,8.8,4.8c1.3,2,1.3,4.6,1.8,6.9c1.6,8,9.4,14.3,17.6,14.2c7-0.1,13.5-4.5,17.8-10
		c4.3-5.6,6.9-12.2,9.4-18.8c4.1-10.7,8.1-21.4,12.2-32c1.9-5.1,3.9-10.4,3.7-15.9l-38.7-40.6C150.6,308.4,138,311.6,125.6,314.8z"
		/>
	<path style="fill:#F1543F;" d="M393.9,136.3c-1.2-1.2-1.8-2.9-1.5-4.6c0.8-5.5-1-12.6-4-16.7c-3.5-4.6-8.7-7.8-14.3-9.6
		c-3.3-1-7-1.9-8.8-4.8c-1.3-2-1.3-4.6-1.8-6.9c-1.6-8-9.4-14.3-17.6-14.2c-7,0.1-13.5,4.5-17.8,10c-2.1,2.7-3.7,5.6-5.2,8.6
		c2.7,0.6,5.2,1.9,7.3,3.9c5.7,5.7,5.7,14.9,0,20.6c-4.8,4.8-12.1,5.5-17.7,2.2c-2,5.2-4,10.4-5.9,15.6c-1.9,5.1-3.9,10.4-3.7,15.9
		l38.8,40.5c5.8-0.1,11.6-0.8,17.4-1.8c-1.7-4.8-0.7-10.3,3.2-14.1c5.3-5.3,13.9-5.3,19.2,0c2.2,2.2,3.5,5,3.8,7.9
		c0.9-0.2,1.8-0.5,2.6-0.7c5.9-1.5,11.8-3.4,17.4-5.9c7.5-3.4,16.3-8.4,20.3-16.5c2.6-5.4,2.1-11.8-0.8-17
		C414.6,130.9,401.6,143.7,393.9,136.3z"/>
	<path style="fill:#F1543F;" d="M202.2,348.8c0.3,5.5-1.7,10.8-3.7,15.9c-4.1,10.7-8.1,21.4-12.2,32c-2.5,6.6-5.1,13.3-9.4,18.8
		c-4.3,5.6-10.7,9.9-17.8,10c-8.2,0.1-16-6.2-17.6-14.2c-0.5-2.4-0.5-4.9-1.8-6.9c-1.9-2.9-5.6-3.7-8.8-4.8
		c-5.5-1.8-10.8-4.9-14.3-9.6c-3.1-4.1-4.8-11.3-4-16.7c0.3-1.7-0.3-3.4-1.5-4.6c-7.7-7.4-23.8-3.1-30.7-12.4
		c-3.6-4.8-3.4-11.6-0.8-17c4-8.1,12.7-13.2,20.3-16.5c5.6-2.5,11.5-4.4,17.4-5.9c15.1-3.9,30.5-8.5,46.2-8.7"/>
</g>
<path style="fill:#FF7058;" d="M364.7,223.4L224.1,364.1c-4.1,4.1-10.7,4.1-14.7,0l-68.3-68.3c-4.1-4.1-4.1-10.7,0-14.7l140.6-140.6
	c4.1-4.1,10.7-4.1,14.7,0l68.3,68.3C368.8,212.8,368.8,219.4,364.7,223.4z"/>
<circle style="fill:#FFFFFF;" cx="252.4" cy="259.1" r="22.9"/>
<circle style="fill:#4CDBC4;" cx="252.4" cy="259.1" r="14.3"/>
<path style="fill:#E6E9EE;" d="M122.9,344c7.9-7.9,8.8-20.2,2.7-29.2c-2.8,0.7-5.5,1.4-8.3,2.1c-0.3,0.1-0.6,0.2-0.9,0.3
	c0.2,0.1,0.3,0.3,0.5,0.4c5.6,5.6,5.6,14.7,0,20.3c-5.6,5.6-14.7,5.6-20.3,0c-3.1-3.1-4.4-7.2-4.1-11.2c-2.9,1.7-5.7,3.8-8.1,6.2
	c0.9,4.1,2.9,7.9,6.1,11.1C99.5,352.9,114,352.9,122.9,344z"/>
<path style="fill:#4CDBC4;" d="M92.5,326.7c-0.3,4,1,8.1,4.1,11.2c5.6,5.6,14.7,5.6,20.3,0s5.6-14.7,0-20.3
	c-0.2-0.2-0.3-0.3-0.5-0.4c-5.6,1.5-11.2,3.3-16.5,5.6C97.5,323.9,95,325.2,92.5,326.7z"/>
<circle style="fill:#EDF2F2;" cx="278" cy="186.3" r="14.5"/>
<circle style="fill:#4CDBC4;" cx="278" cy="186.3" r="9.1"/>
<path style="fill:#E6E9EE;" d="M330.2,122.6c5.7-5.7,5.7-14.9,0-20.6c-2.1-2.1-4.6-3.4-7.3-3.9c-0.8,1.7-1.6,3.4-2.3,5.2
	c2.1,0.2,4.1,1,5.7,2.6c3.5,3.5,3.5,9.3,0,12.9c-3.3,3.3-8.3,3.5-11.9,0.8c-0.7,1.7-1.3,3.5-2,5.2
	C318,128.1,325.4,127.4,330.2,122.6z"/>
<path style="fill:#4CDBC4;" d="M314.4,119.5c3.6,2.7,8.6,2.5,11.9-0.8c3.5-3.5,3.5-9.3,0-12.9c-1.6-1.6-3.6-2.4-5.7-2.6
	c-0.7,1.7-1.3,3.4-2,5C317.3,112,315.9,115.8,314.4,119.5z"/>
<path style="fill:#E6E9EE;" d="M362.2,180.9c-3.8,3.8-4.8,9.3-3.2,14.1c1.7-0.3,3.4-0.6,5.1-1c-1.4-3.1-0.9-6.9,1.7-9.5
	c3.3-3.3,8.7-3.3,12,0c1.6,1.6,2.4,3.6,2.4,5.6c1.7-0.4,3.3-0.9,5-1.3c-0.4-2.9-1.6-5.7-3.8-7.9
	C376.1,175.6,367.5,175.6,362.2,180.9z"/>
<path style="fill:#4CDBC4;" d="M377.8,184.5c-3.3-3.3-8.7-3.3-12,0c-2.6,2.6-3.1,6.4-1.7,9.5c5.4-1.1,10.8-2.5,16.1-3.9
	C380.1,188.1,379.3,186,377.8,184.5z"/>
<circle style="fill:#E6E9EE;" cx="366.6" cy="138.5" r="10.2"/>
<circle style="fill:#4CDBC4;" cx="366.6" cy="138.5" r="6.4"/>
<path style="fill:#EDF2F2;" d="M321.5,234.2c-9,9-9,23.5,0,32.4l6.1-6.1c-5.6-5.6-5.6-14.7,0-20.3c5.4-5.4,14.2-5.6,19.8-0.4
	c1.7-2.4,3.1-4.9,4.3-7.6C342.7,225.4,329.8,225.9,321.5,234.2z"/>
<path style="fill:#4CDBC4;" d="M347.4,239.8c-5.6-5.2-14.3-5.1-19.8,0.4c-5.6,5.6-5.6,14.7,0,20.3l15.4-15.4
	C344.6,243.5,346.1,241.7,347.4,239.8z"/>
<path style="fill:#FFFFFF;" d="M222.7,231.8c9-9,9-23.5,0-32.4l-6.1,6.1c5.6,5.6,5.6,14.7,0,20.3s-14.7,5.6-20.3,0l-6.1,6.1
	C199.2,240.8,213.7,240.8,222.7,231.8z"/>
<path style="fill:#4CDBC4;" d="M216.6,225.7c5.6-5.6,5.6-14.7,0-20.3l-20.3,20.3C201.9,231.3,211,231.3,216.6,225.7z"/>
<path style="fill:#FFFFFF;" d="M234.9,327.3c-5.7,5.7-5.7,14.9,0,20.6c0.5,0.5,1.1,0.9,1.6,1.3c1.7-1,3.4-2.1,5-3.3
	c-1-0.4-2-1.1-2.8-1.9c-3.5-3.5-3.6-9.3,0-12.9c3.5-3.5,9.3-3.5,12.9,0c1,0.9,1.6,2.1,2.1,3.2l4-4c-0.6-1.1-1.3-2.1-2.3-3
	C249.8,321.7,240.6,321.7,234.9,327.3z"/>
<path style="fill:#4CDBC4;" d="M253.7,334.4c-0.4-1.2-1.1-2.3-2.1-3.2c-3.5-3.5-9.3-3.6-12.9,0c-3.5,3.5-3.5,9.3,0,12.9
	c0.8,0.8,1.8,1.5,2.8,1.9c1.5-1.1,2.9-2.3,4.2-3.6L253.7,334.4z"/>
<circle style="fill:#FFFFFF;" cx="187.6" cy="284.3" r="14.5"/>
<circle style="fill:#4CDBC4;" cx="187.6" cy="284.3" r="9.1"/>
<circle style="fill:#E6E9EE;" cx="168" cy="363.8" r="14.5"/>
<circle style="fill:#4CDBC4;" cx="168" cy="363.8" r="9.1"/>
<g>
</g>
<g>
</g>
<g>
</g>
<g>
</g>
<g>
</g>
<g>
</g>
<g>
</g>
<g>
</g>
<g>
</g>
<g>
</g>
<g>
</g>
<g>
</g>
<g>
</g>
<g>
</g>
<g>
</g>
</svg>
