<?xml version="1.0" encoding="iso-8859-1"?>
<!-- Generator: Adobe Illustrator 19.0.0, SVG Export Plug-In . SVG Version: 6.00 Build 0)  -->
<svg version="1.1" id="Layer_1" xmlns="http://www.w3.org/2000/svg" xmlns:xlink="http://www.w3.org/1999/xlink" x="0px" y="0px"
	 viewBox="0 0 505 505" style="enable-background:new 0 0 505 505;" xml:space="preserve">
<circle style="fill:#324A5E;" cx="252.5" cy="252.5" r="252.5"/>
<ellipse style="fill:#FF7058;" cx="252.5" cy="285.5" rx="156.9" ry="130.3"/>
<path style="fill:#E6E9EE;" d="M410.3,268.4c0,87.2-315.6,87.2-315.6,0S165.4,95.3,252.5,95.3C339.7,95.3,410.3,181.3,410.3,268.4z"
	/>
<path style="fill:#4CDBC4;" d="M258,95.3c-39,0-70.6,114.6-70.6,230.8c0,0.5,0,0.9,0,1.4c44,8.3,97.1,8.3,141.1,0c0-0.5,0-0.9,0-1.4
	C328.6,209.9,297,95.3,258,95.3z"/>
<ellipse style="fill:#FF7058;" cx="252.5" cy="100" rx="18.7" ry="10.8"/>
<g>
</g>
<g>
</g>
<g>
</g>
<g>
</g>
<g>
</g>
<g>
</g>
<g>
</g>
<g>
</g>
<g>
</g>
<g>
</g>
<g>
</g>
<g>
</g>
<g>
</g>
<g>
</g>
<g>
</g>
</svg>
