<?xml version="1.0" encoding="iso-8859-1"?>
<!-- Generator: Adobe Illustrator 19.0.0, SVG Export Plug-In . SVG Version: 6.00 Build 0)  -->
<svg version="1.1" id="Layer_1" xmlns="http://www.w3.org/2000/svg" xmlns:xlink="http://www.w3.org/1999/xlink" x="0px" y="0px"
	 viewBox="0 0 505 505" style="enable-background:new 0 0 505 505;" xml:space="preserve">
<circle style="fill:#324A5E;" cx="252.5" cy="252.5" r="252.5"/>
<path style="fill:#FFD05B;" d="M159.6,361.9c-10.4,0.6-30.4,0.2-43.8-13.5c-10.9-11.1-15.2-28.4-12.8-51.5c0.5-5,0-10-0.5-15.4
	l4.8-0.7l4.8-0.5l-4.8,0.5l4.9-0.3c0.6,5.6,1.1,11.4,0.5,17.4c-2.1,20,1.3,34.7,10,43.6c12.4,12.6,32.7,11,40.3,10.3
	c1-0.1,1.8-0.1,2.3-0.2c2.7-0.1,6.1-0.4,8.7-1.9c1.9-1.1,3.5-2.9,5.3-4.8c5.2-5.6,10.6-11.4,15-17.6c5.5-7.6,7.5-14.2,6-19.4
	l9.4-2.7c2.3,8.2-0.2,17.5-7.4,27.7c-4.8,6.7-10.4,12.8-15.8,18.6c-2.1,2.2-4.4,4.8-7.5,6.6c-4.4,2.6-9.4,3.1-13.2,3.3
	c-0.4,0-1.1,0.1-1.9,0.1C162.7,361.7,161.3,361.9,159.6,361.9z"/>
<path style="fill:#ACB3BA;" d="M415.3,385.8H162c-2.1,0-3.8-1.7-3.8-3.8V253.7h260.9V382C419.1,384.1,417.4,385.8,415.3,385.8z"/>
<path style="fill:#E6E9EE;" d="M419.1,227.7H158.2l14.3-91.9c1.5-9.6,9.7-16.6,19.4-16.6h193.6c9.7,0,17.9,7.1,19.4,16.6
	L419.1,227.7z"/>
<path style="fill:#CED5E0;" d="M415.3,359.8H162c-2.1,0-3.8-1.7-3.8-3.8V227.7h260.9V356C419.1,358.1,417.4,359.8,415.3,359.8z"/>
<g>
	<path style="fill:#ACB3BA;" d="M205.3,270.4h-23.1c-0.3,0-0.5-0.2-0.5-0.5v-23.1c0-0.3,0.2-0.5,0.5-0.5h23.1c0.3,0,0.5,0.2,0.5,0.5
		v23.1C205.7,270.2,205.5,270.4,205.3,270.4z"/>
	<path style="fill:#ACB3BA;" d="M243.3,270.4h-23.1c-0.3,0-0.5-0.2-0.5-0.5v-23.1c0-0.3,0.2-0.5,0.5-0.5h23.1c0.3,0,0.5,0.2,0.5,0.5
		v23.1C243.7,270.2,243.5,270.4,243.3,270.4z"/>
	<path style="fill:#ACB3BA;" d="M281.2,270.4h-23.1c-0.3,0-0.5-0.2-0.5-0.5v-23.1c0-0.3,0.2-0.5,0.5-0.5h23.1c0.3,0,0.5,0.2,0.5,0.5
		v23.1C281.7,270.2,281.5,270.4,281.2,270.4z"/>
	<path style="fill:#ACB3BA;" d="M319.2,270.4h-23.1c-0.3,0-0.5-0.2-0.5-0.5v-23.1c0-0.3,0.2-0.5,0.5-0.5h23.1c0.3,0,0.5,0.2,0.5,0.5
		v23.1C319.7,270.2,319.4,270.4,319.2,270.4z"/>
	<path style="fill:#ACB3BA;" d="M357.2,270.4h-23.1c-0.3,0-0.5-0.2-0.5-0.5v-23.1c0-0.3,0.2-0.5,0.5-0.5h23.1c0.3,0,0.5,0.2,0.5,0.5
		v23.1C357.6,270.2,357.4,270.4,357.2,270.4z"/>
	<path style="fill:#ACB3BA;" d="M395.1,270.4H372c-0.3,0-0.5-0.2-0.5-0.5v-23.1c0-0.3,0.2-0.5,0.5-0.5h23.1c0.3,0,0.5,0.2,0.5,0.5
		v23.1C395.6,270.2,395.4,270.4,395.1,270.4z"/>
	<path style="fill:#ACB3BA;" d="M205.3,305.8h-23.1c-0.3,0-0.5-0.2-0.5-0.5v-23.1c0-0.3,0.2-0.5,0.5-0.5h23.1c0.3,0,0.5,0.2,0.5,0.5
		v23.1C205.7,305.6,205.5,305.8,205.3,305.8z"/>
	<path style="fill:#ACB3BA;" d="M243.3,305.8h-23.1c-0.3,0-0.5-0.2-0.5-0.5v-23.1c0-0.3,0.2-0.5,0.5-0.5h23.1c0.3,0,0.5,0.2,0.5,0.5
		v23.1C243.7,305.6,243.5,305.8,243.3,305.8z"/>
	<path style="fill:#ACB3BA;" d="M281.2,305.8h-23.1c-0.3,0-0.5-0.2-0.5-0.5v-23.1c0-0.3,0.2-0.5,0.5-0.5h23.1c0.3,0,0.5,0.2,0.5,0.5
		v23.1C281.7,305.6,281.5,305.8,281.2,305.8z"/>
	<path style="fill:#ACB3BA;" d="M319.2,305.8h-23.1c-0.3,0-0.5-0.2-0.5-0.5v-23.1c0-0.3,0.2-0.5,0.5-0.5h23.1c0.3,0,0.5,0.2,0.5,0.5
		v23.1C319.7,305.6,319.4,305.8,319.2,305.8z"/>
	<path style="fill:#ACB3BA;" d="M357.2,305.8h-23.1c-0.3,0-0.5-0.2-0.5-0.5v-23.1c0-0.3,0.2-0.5,0.5-0.5h23.1c0.3,0,0.5,0.2,0.5,0.5
		v23.1C357.6,305.6,357.4,305.8,357.2,305.8z"/>
	<path style="fill:#ACB3BA;" d="M395.1,305.8H372c-0.3,0-0.5-0.2-0.5-0.5v-23.1c0-0.3,0.2-0.5,0.5-0.5h23.1c0.3,0,0.5,0.2,0.5,0.5
		v23.1C395.6,305.6,395.4,305.8,395.1,305.8z"/>
	<path style="fill:#ACB3BA;" d="M205.3,341.1h-23.1c-0.3,0-0.5-0.2-0.5-0.5v-23.1c0-0.3,0.2-0.5,0.5-0.5h23.1c0.3,0,0.5,0.2,0.5,0.5
		v23.1C205.7,340.9,205.5,341.1,205.3,341.1z"/>
	<path style="fill:#ACB3BA;" d="M243.3,341.1h-23.1c-0.3,0-0.5-0.2-0.5-0.5v-23.1c0-0.3,0.2-0.5,0.5-0.5h23.1c0.3,0,0.5,0.2,0.5,0.5
		v23.1C243.7,340.9,243.5,341.1,243.3,341.1z"/>
	<path style="fill:#ACB3BA;" d="M281.2,341.1h-23.1c-0.3,0-0.5-0.2-0.5-0.5v-23.1c0-0.3,0.2-0.5,0.5-0.5h23.1c0.3,0,0.5,0.2,0.5,0.5
		v23.1C281.7,340.9,281.5,341.1,281.2,341.1z"/>
	<path style="fill:#ACB3BA;" d="M319.2,341.1h-23.1c-0.3,0-0.5-0.2-0.5-0.5v-23.1c0-0.3,0.2-0.5,0.5-0.5h23.1c0.3,0,0.5,0.2,0.5,0.5
		v23.1C319.7,340.9,319.4,341.1,319.2,341.1z"/>
	<path style="fill:#ACB3BA;" d="M357.2,341.1h-23.1c-0.3,0-0.5-0.2-0.5-0.5v-23.1c0-0.3,0.2-0.5,0.5-0.5h23.1c0.3,0,0.5,0.2,0.5,0.5
		v23.1C357.6,340.9,357.4,341.1,357.2,341.1z"/>
	<path style="fill:#ACB3BA;" d="M395.1,341.1H372c-0.3,0-0.5-0.2-0.5-0.5v-23.1c0-0.3,0.2-0.5,0.5-0.5h23.1c0.3,0,0.5,0.2,0.5,0.5
		v23.1C395.6,340.9,395.4,341.1,395.1,341.1z"/>
</g>
<rect x="191.6" y="137.7" style="fill:#54C0EB;" width="98" height="32"/>
<rect x="301.2" y="137.7" style="fill:#CED5E0;" width="84.5" height="18.8"/>
<rect x="310.1" y="144.4" style="fill:#324A5E;" width="66.7" height="5.4"/>
<polygon style="fill:#FFFFFF;" points="317.7,147.1 317.7,205.7 357.1,205.7 357.1,193.6 369.2,193.6 369.2,147.1 "/>
<g>
	<polygon style="fill:#ACB3BA;" points="357.1,205.7 369.2,193.6 357.1,193.6 	"/>
	<path style="fill:#ACB3BA;" d="M108.1,305.8L108.1,305.8c-6.9,0-12.7-5.4-13.1-12.3l-8-126h42.2l-8,126
		C120.8,300.4,115,305.8,108.1,305.8z"/>
</g>
<path style="fill:#E6E9EE;" d="M146.3,199.6H69.9c-0.7,0-1.2-0.5-1.2-1.2v-52.8c0-0.7,0.5-1.2,1.2-1.2h76.5c0.7,0,1.2,0.5,1.2,1.2
	v52.8C147.5,199.1,147,199.6,146.3,199.6z"/>
<rect x="79" y="155.7" style="fill:#FF7058;" width="58.1" height="32.7"/>
<g>
</g>
<g>
</g>
<g>
</g>
<g>
</g>
<g>
</g>
<g>
</g>
<g>
</g>
<g>
</g>
<g>
</g>
<g>
</g>
<g>
</g>
<g>
</g>
<g>
</g>
<g>
</g>
<g>
</g>
</svg>
