<?xml version="1.0" encoding="iso-8859-1"?>
<!-- Generator: Adobe Illustrator 19.0.0, SVG Export Plug-In . SVG Version: 6.00 Build 0)  -->
<svg version="1.1" id="Layer_1" xmlns="http://www.w3.org/2000/svg" xmlns:xlink="http://www.w3.org/1999/xlink" x="0px" y="0px"
	 viewBox="0 0 505 505" style="enable-background:new 0 0 505 505;" xml:space="preserve">
<g>
	<circle style="fill:#84DBFF;" cx="252.5" cy="252.5" r="252.5"/>
	<path style="fill:#84DBFF;" d="M505,252.5C505,391.9,392,505,252.5,505C166.7,505,91,462.2,45.4,396.9c-7-10-13.3-20.6-18.8-31.6
		C9.6,331.3,0,293,0,252.5C0,113,113,0,252.5,0S505,113,505,252.5z"/>
</g>
<path style="fill:#2B3B4E;" d="M239.4,211.4L162,396.9H45.4c-7-10-13.3-20.6-18.8-31.6h114.3l69.4-166.1L239.4,211.4z"/>
<path style="fill:#324A5E;" d="M384.9,297l-123.3-40.3c-1.1-0.4-1.8-1.6-1.4-2.8l30.9-94.5c0.4-1.1,1.6-1.8,2.8-1.4l123.3,40.3
	c1.1,0.4,1.8,1.6,1.4,2.8l-30.9,94.5C387.3,296.8,386.1,297.4,384.9,297z"/>
<g>
	<path style="fill:#FFFFFF;" d="M449.6,194.1L142.3,93.7c-8-2.6-16.6,1.8-19.2,9.8l-31.3,95.9c-2.6,8,1.8,16.6,9.8,19.2l213.3,69.7
		c6.9,2.3,14.6-0.2,18.7-6.2c25.8-37.3,67.8-60.3,112.7-62.5c5.4-0.3,10.1-3.9,11.8-9l0,0C460.3,203.7,456.5,196.3,449.6,194.1z"/>
	<circle style="fill:#FFFFFF;" cx="151.4" cy="374.4" r="35.1"/>
</g>
<g>
</g>
<g>
</g>
<g>
</g>
<g>
</g>
<g>
</g>
<g>
</g>
<g>
</g>
<g>
</g>
<g>
</g>
<g>
</g>
<g>
</g>
<g>
</g>
<g>
</g>
<g>
</g>
<g>
</g>
</svg>
