<?xml version="1.0" encoding="iso-8859-1"?>
<!-- Generator: Adobe Illustrator 19.0.0, SVG Export Plug-In . SVG Version: 6.00 Build 0)  -->
<svg version="1.1" id="Layer_1" xmlns="http://www.w3.org/2000/svg" xmlns:xlink="http://www.w3.org/1999/xlink" x="0px" y="0px"
	 viewBox="0 0 505 505" style="enable-background:new 0 0 505 505;" xml:space="preserve">
<path style="fill:#84DBFF;" d="M0,252.5C0,113,113,0,252.5,0C391.9,0,505,113,505,252.5S391.9,505,252.5,505C113,505,0,392,0,252.5z
	"/>
<path style="fill:#2B3B4E;" d="M295,86c0,10-16.5,154.2-39.9,154.2S210.5,95.9,210.5,86c0-10,18.9-18,42.3-18S295,76,295,86z"/>
<g>
	<path style="fill:#324A5E;" d="M295,86c0,1.8-0.5,8.1-1.6,17.2c-5-7.6-21.3-13.1-40.6-13.1c-18.9,0-35,5.3-40.3,12.6
		c-1.2-8.8-1.9-14.9-1.9-16.7c0-10,18.9-18,42.3-18C276.1,68,295,76,295,86z"/>
	<path style="fill:#324A5E;" d="M146.2,129c0,0-19.6,16.6-19.6,286.7h31.8c0,0-2.3-189,18.9-199.6L146.2,129z"/>
</g>
<path style="fill:#2B3B4E;" d="M216.5,109c0,0-66.7,14.5-70.3,19.9c0,0,28.8,122.3,27.6,136.4c0,0,10.4,54.5-23.7,113.9
	c0,0-24.9,49.9,33.3,52.8c0,0,45.7,2.5,74.8,3.4c12.2,0.4,22.4-9.5,22.4-21.7v-69.2c0-19.7-3.1-39.3-9.1-58
	C254.2,233.1,218.4,121.1,216.5,109z"/>
<path style="fill:#ACB3BA;" d="M210.5,84.6c0,0-13.6,40.3-25.3,42c0,0,14.5,8.5,20.4,8.8c0,0-26.1,2.3-31.8-2.8
	s63.3,150.6,101.6,166.7C275.5,299.3,208.2,87.7,210.5,84.6z"/>
<path style="fill:#2B3B4E;" d="M358.8,129c0,0,19.6,16.6,19.6,286.7h-31.8c0,0,2.3-189-18.9-199.6L358.8,129z"/>
<path style="fill:#324A5E;" d="M288.5,109c0,0,66.7,14.5,70.3,19.9c0,0-28.8,122.3-27.6,136.4c0,0-10.4,54.5,23.7,113.9
	c0,0,24.9,49.9-33.3,52.8c0,0-48.7,2.7-77.5,3.5c-10.8,0.3-19.7-8.3-19.7-19.1v-71.9c0-19.7,3.1-39.3,9.1-58
	C250.8,233.1,286.6,121.1,288.5,109z"/>
<path style="fill:#CED5E0;" d="M294.5,84.6c0,0,13.6,40.3,25.3,42c0,0-14.5,8.5-20.4,8.8c0,0,26.1,2.3,31.8-2.8
	c5.7-5.1-63.3,150.6-101.6,166.7C229.5,299.3,296.8,87.7,294.5,84.6z"/>
<g>
	<circle style="fill:#2B3B4E;" cx="288.9" cy="319.7" r="8.4"/>
	<circle style="fill:#2B3B4E;" cx="249.6" cy="319.7" r="8.4"/>
	<circle style="fill:#2B3B4E;" cx="288.9" cy="366.8" r="8.4"/>
	<circle style="fill:#2B3B4E;" cx="249.6" cy="366.8" r="8.4"/>
</g>
<path style="fill:#E6E9EE;" d="M269.7,127.2h-33.9c-0.4,0-0.6-0.3-0.6-0.6V111c0-0.4,0.3-0.6,0.6-0.6h33.9c0.4,0,0.6,0.3,0.6,0.6
	v15.5C270.3,126.9,270,127.2,269.7,127.2z"/>
<g>
</g>
<g>
</g>
<g>
</g>
<g>
</g>
<g>
</g>
<g>
</g>
<g>
</g>
<g>
</g>
<g>
</g>
<g>
</g>
<g>
</g>
<g>
</g>
<g>
</g>
<g>
</g>
<g>
</g>
</svg>
