<?xml version="1.0" encoding="iso-8859-1"?>
<!-- Generator: Adobe Illustrator 19.0.0, SVG Export Plug-In . SVG Version: 6.00 Build 0)  -->
<svg version="1.1" id="Layer_1" xmlns="http://www.w3.org/2000/svg" xmlns:xlink="http://www.w3.org/1999/xlink" x="0px" y="0px"
	 viewBox="0 0 505 505" style="enable-background:new 0 0 505 505;" xml:space="preserve">
<circle style="fill:#324A5E;" cx="252.5" cy="252.5" r="252.5"/>
<path style="fill:#FFFFFF;" d="M392.5,117.5h-280c-10.7,0-19.5,8.7-19.5,19.5v168c0,10.7,8.7,19.5,19.5,19.5H143l-13.9,71.2
	l93.5-71.2h169.9c10.7,0,19.5-8.7,19.5-19.5V137C412,126.2,403.3,117.5,392.5,117.5z"/>
<g>
	<path style="fill:#FF7058;" d="M189.2,196.3c5.4,0,9.8-2.1,13.2-6.4l7,7.2c-5.6,6.3-12.1,9.4-19.7,9.4c-7.5,0-13.8-2.4-18.7-7.2
		s-7.3-10.8-7.3-18.1s2.5-13.3,7.5-18.2s11.1-7.3,18.3-7.3c8,0,14.8,3.1,20.2,9.2l-6.8,7.7c-3.5-4.3-7.8-6.4-12.9-6.4
		c-4.1,0-7.6,1.3-10.6,4c-2.9,2.7-4.4,6.3-4.4,10.9c0,4.6,1.4,8.2,4.1,11C182,194.9,185.3,196.3,189.2,196.3z"/>
	<path style="fill:#FF7058;" d="M252.6,206l-4.6-10.6h-20.5l-4.6,10.6h-11.6l21.2-49h10.6l21.2,49H252.6z M237.8,171.5l-6.2,14.2
		h12.3L237.8,171.5z"/>
	<path style="fill:#FF7058;" d="M269.9,206v-49h10.9v39.3h20.9v9.7H269.9z"/>
	<path style="fill:#FF7058;" d="M309.8,206v-49h10.9v39.3h20.9v9.7H309.8z"/>
	<path style="fill:#FF7058;" d="M201,241.1h10.9v49H201l-23.3-30.7v30.7h-10.9v-49H177l24.1,31.6v-31.6H201z"/>
	<path style="fill:#FF7058;" d="M265.2,283.3c-5,4.8-11.1,7.3-18.3,7.3s-13.3-2.4-18.3-7.3c-5-4.8-7.4-10.9-7.4-18.1
		s2.5-13.2,7.4-18.1c5-4.8,11.1-7.3,18.3-7.3s13.3,2.4,18.3,7.3c5,4.8,7.4,10.9,7.4,18.1C272.7,272.5,270.2,278.5,265.2,283.3z
		 M261.5,265.3c0-4.4-1.4-8.1-4.2-11.2c-2.8-3.1-6.3-4.6-10.3-4.6c-4.1,0-7.5,1.5-10.3,4.6s-4.2,6.8-4.2,11.2
		c0,4.4,1.4,8.1,4.2,11.2s6.3,4.6,10.3,4.6c4.1,0,7.5-1.5,10.3-4.6C260.1,273.4,261.5,269.7,261.5,265.3z"/>
	<path style="fill:#FF7058;" d="M296.4,269.3l8.7-28.2h11.4l8.6,28.2l9.7-28.2h11.8l-17.1,49h-8L310.8,256l-10.7,34.1H292l-17.1-49
		h11.9L296.4,269.3z"/>
</g>
<g>
</g>
<g>
</g>
<g>
</g>
<g>
</g>
<g>
</g>
<g>
</g>
<g>
</g>
<g>
</g>
<g>
</g>
<g>
</g>
<g>
</g>
<g>
</g>
<g>
</g>
<g>
</g>
<g>
</g>
</svg>
