<?xml version="1.0" encoding="iso-8859-1"?>
<!-- Generator: Adobe Illustrator 19.0.0, SVG Export Plug-In . SVG Version: 6.00 Build 0)  -->
<svg version="1.1" id="Layer_1" xmlns="http://www.w3.org/2000/svg" xmlns:xlink="http://www.w3.org/1999/xlink" x="0px" y="0px"
	 viewBox="0 0 505 505" style="enable-background:new 0 0 505 505;" xml:space="preserve">
<circle style="fill:#54C0EB;" cx="252.5" cy="252.5" r="252.5"/>
<g>
	<polygon style="fill:#324A5E;" points="373.9,391.2 357,391.2 357,383.4 366.1,383.4 366.1,374.3 373.9,374.3 	"/>
	<path style="fill:#324A5E;" d="M333.8,391.2h-23.2v-7.8h23.2V391.2z M287.3,391.2h-23.2v-7.8h23.2V391.2z M240.9,391.2h-23.2v-7.8
		h23.2V391.2z M194.4,391.2h-23.2v-7.8h23.2V391.2z"/>
	<polygon style="fill:#324A5E;" points="148,391.2 131.1,391.2 131.1,374.3 138.9,374.3 138.9,383.4 148,383.4 	"/>
	<path style="fill:#324A5E;" d="M138.9,351.1h-7.8v-23.2h7.8V351.1z M138.9,304.7h-7.8v-23.2h7.8V304.7z M138.9,258.4h-7.8v-23.2
		h7.8V258.4z"/>
	<polygon style="fill:#324A5E;" points="138.9,212.1 131.1,212.1 131.1,195.1 148,195.1 148,202.9 138.9,202.9 	"/>
	<path style="fill:#324A5E;" d="M333.8,202.9h-23.2v-7.8h23.2V202.9z M287.3,202.9h-23.2v-7.8h23.2V202.9z M240.9,202.9h-23.2v-7.8
		h23.2V202.9z M194.4,202.9h-23.2v-7.8h23.2V202.9z"/>
	<polygon style="fill:#324A5E;" points="373.9,212.1 366.1,212.1 366.1,202.9 357,202.9 357,195.1 373.9,195.1 	"/>
	<path style="fill:#324A5E;" d="M373.9,351.1h-7.8v-23.2h7.8V351.1z M373.9,304.7h-7.8v-23.2h7.8V304.7z M373.9,258.4h-7.8v-23.2
		h7.8V258.4z"/>
</g>
<path style="fill:#EDF2F2;" d="M307.3,151.6c3.4,6.8,9,11.3,15.4,13.4l-17.5,13c-3.8,2.8-9.1,2-11.9-1.8l-0.9-1.2l-108.5,80.5
	c9.8,13.1,28.3,15.9,41.5,6.1l84.7-62.9l0,0c-2.8-3.8-2-9.1,1.8-11.9l33.9-25.2c11.3-8.4,14.8-24.4,7-36.2
	c-9.4-14.1-29.7-16.1-41.6-3C304.2,130.4,302.6,142.2,307.3,151.6z M343.9,130.5c5.3,7.2,3.8,17.3-3.3,22.6
	c-7.2,5.3-17.3,3.8-22.6-3.3c-5.3-7.2-3.8-17.3,3.3-22.6C328.5,121.8,338.6,123.3,343.9,130.5z"/>
<path style="fill:#FFFFFF;" d="M311.4,275.3c11.9,13,32.3,11,41.6-3.2c7.5-11.5,3.9-28-7.2-36.1l-34.1-25c-3.8-2.8-4.6-8.1-1.8-11.9
	l0,0l-85-62.4c-13.2-9.7-31.7-6.8-41.4,6.4l108.9,80l0.9-1.2c2.8-3.8,8.1-4.6,11.9-1.8l17.6,12.9c-6.4,2.1-12,6.7-15.3,13.5
	C302.7,255.8,304.3,267.5,311.4,275.3z M321.4,270.8c-7.2-5.3-8.7-15.4-3.4-22.6c5.3-7.2,15.4-8.7,22.6-3.5
	c7.2,5.3,8.7,15.4,3.4,22.6C338.7,274.5,328.6,276,321.4,270.8z"/>
<circle style="fill:#324A5E;" cx="284.4" cy="199" r="5.4"/>
<g>
</g>
<g>
</g>
<g>
</g>
<g>
</g>
<g>
</g>
<g>
</g>
<g>
</g>
<g>
</g>
<g>
</g>
<g>
</g>
<g>
</g>
<g>
</g>
<g>
</g>
<g>
</g>
<g>
</g>
</svg>
