<?xml version="1.0" encoding="iso-8859-1"?>
<!-- Generator: Adobe Illustrator 19.0.0, SVG Export Plug-In . SVG Version: 6.00 Build 0)  -->
<svg version="1.1" id="Layer_1" xmlns="http://www.w3.org/2000/svg" xmlns:xlink="http://www.w3.org/1999/xlink" x="0px" y="0px"
	 viewBox="0 0 505 505" style="enable-background:new 0 0 505 505;" xml:space="preserve">
<circle style="fill:#90DFAA;" cx="252.5" cy="252.5" r="252.5"/>
<path style="fill:#2C9984;" d="M31.9,375.2C75,452.6,157.6,505,252.5,505S430,452.6,473.1,375.2H31.9z"/>
<path style="fill:#324A5E;" d="M438,312.7H49.3c-0.5,0-1-0.4-1-1v-32.4c0-0.5,0.4-1,1-1H438c0.5,0,1,0.4,1,1v32.4
	C439,312.3,438.6,312.7,438,312.7z"/>
<path style="fill:#FFD05B;" d="M429,278.4H185.6V117c0-1.5,1.2-2.8,2.8-2.8h237.9c1.5,0,2.8,1.2,2.8,2.8v161.4H429z"/>
<g>
	<rect x="387" y="138.4" style="fill:#F9B54C;" width="16.6" height="115.9"/>
	<rect x="351.8" y="138.4" style="fill:#F9B54C;" width="16.6" height="115.9"/>
	<rect x="316.6" y="138.4" style="fill:#F9B54C;" width="16.6" height="115.9"/>
	<rect x="281.4" y="138.4" style="fill:#F9B54C;" width="16.6" height="115.9"/>
	<rect x="246.2" y="138.4" style="fill:#F9B54C;" width="16.6" height="115.9"/>
	<rect x="211.1" y="138.4" style="fill:#F9B54C;" width="16.6" height="115.9"/>
</g>
<path style="fill:#E6E9EE;" d="M95.1,145.4l-32,51.3c-0.8,1.3-1.3,2.8-1.3,4.4v77.4h107.4V149.7c0-4.6-3.7-8.3-8.3-8.3h-58.8
	C99.3,141.5,96.7,142.9,95.1,145.4z"/>
<polygon style="fill:#54C0EB;" points="159.5,217.4 159.5,150.8 102.3,150.8 70.7,201.3 70.7,217.4 "/>
<g>
	<path style="fill:#2B3B4E;" d="M360.1,291.4L360.1,291.4c-23.2,0-41.9,18.8-41.9,41.9l0,0c0,23.2,18.8,41.9,41.9,41.9l0,0
		c23.2,0,41.9-18.8,41.9-41.9l0,0C402.1,310.1,383.3,291.4,360.1,291.4z"/>
	<path style="fill:#2B3B4E;" d="M115.6,291.4L115.6,291.4c-23.2,0-41.9,18.8-41.9,41.9l0,0c0,23.2,18.8,41.9,41.9,41.9l0,0
		c23.2,0,41.9-18.8,41.9-41.9l0,0C157.5,310.1,138.7,291.4,115.6,291.4z"/>
</g>
<g>
	<path style="fill:#FFFFFF;" d="M115.6,307.8L115.6,307.8c-14.1,0-25.5,11.4-25.5,25.5l0,0c0,14.1,11.4,25.5,25.5,25.5l0,0
		c14.1,0,25.5-11.4,25.5-25.5l0,0C141,319.2,129.6,307.8,115.6,307.8z"/>
	<path style="fill:#FFFFFF;" d="M360.1,307.8L360.1,307.8c-14.1,0-25.5,11.4-25.5,25.5l0,0c0,14.1,11.4,25.5,25.5,25.5l0,0
		c14.1,0,25.5-11.4,25.5-25.5l0,0C385.6,319.2,374.2,307.8,360.1,307.8z"/>
</g>
<rect x="56.9" y="234.3" style="fill:#FF7058;" width="11.4" height="21.6"/>
<rect x="129.7" y="226.7" style="fill:#ACB3BA;" width="29.8" height="5.9"/>
<path style="fill:#E6E9EE;" d="M302.1,344.6H170c-0.4,0-0.7-0.3-0.7-0.7v-47.6c0-0.4,0.3-0.7,0.7-0.7h132.1c0.4,0,0.7,0.3,0.7,0.7
	v47.6C302.8,344.3,302.5,344.6,302.1,344.6z"/>
<g>
</g>
<g>
</g>
<g>
</g>
<g>
</g>
<g>
</g>
<g>
</g>
<g>
</g>
<g>
</g>
<g>
</g>
<g>
</g>
<g>
</g>
<g>
</g>
<g>
</g>
<g>
</g>
<g>
</g>
</svg>
