<?xml version="1.0" encoding="iso-8859-1"?>
<!-- Generator: Adobe Illustrator 19.0.0, SVG Export Plug-In . SVG Version: 6.00 Build 0)  -->
<svg version="1.1" id="Layer_1" xmlns="http://www.w3.org/2000/svg" xmlns:xlink="http://www.w3.org/1999/xlink" x="0px" y="0px"
	 viewBox="0 0 505.1 505.1" style="enable-background:new 0 0 505.1 505.1;" xml:space="preserve">
<g>
	<path style="fill:#F1543F;" d="M210.15,3.5v498c-119.3-20.2-210.1-124-210.1-249S90.85,23.7,210.15,3.5z"/>
	<path style="fill:#F1543F;" d="M505.05,252.5c0,125-90.8,228.8-210.1,249V3.5C414.25,23.7,505.05,127.5,505.05,252.5z"/>
</g>
<path style="fill:#FFFFFF;" d="M294.95,3.6v497.9c-13.8,2.3-28,3.6-42.4,3.6c-14.4,0-28.6-1.2-42.4-3.6V3.6
	c13.8-2.3,27.9-3.6,42.4-3.6C266.95,0,281.15,1.2,294.95,3.6z"/>
<polygon style="fill:#F9B54C;" points="252.55,252.6 252.55,412.5 391.15,332.5 252.65,252.6 "/>
<g>
	<polygon style="fill:#FFD05B;" points="391.15,332.5 391.15,332.5 391.15,172.5 252.65,252.6 	"/>
	<polygon style="fill:#FFD05B;" points="252.55,252.6 114.05,332.6 252.55,412.5 	"/>
	<polygon style="fill:#FFD05B;" points="252.55,252.5 113.95,172.5 113.95,172.5 113.95,332.5 114.05,332.6 252.55,252.6 	"/>
</g>
<polygon style="fill:#F9B54C;" points="252.55,92.5 113.95,172.5 252.55,252.5 "/>
<polygon style="fill:#FFD05B;" points="252.65,252.6 391.15,172.5 391.15,172.5 252.55,92.5 252.55,252.5 "/>
<polygon style="fill:#E6E9EE;" points="180.35,210.8 252.55,169.1 324.75,210.8 324.75,294.2 252.55,335.9 180.35,294.2 "/>
<g>
	<polygon style="fill:#FFFFFF;" points="252.55,252.5 252.55,252.6 252.65,252.6 	"/>
	<path style="fill:#FFFFFF;" d="M381.25,210.6c-47.3,0-53.2,3.2-36.5,20c-16.7-16.7-20-10.8-20,36.5c0-47.3-3.2-53.2-20-36.5
		c16.7-16.7,10.8-20-36.5-20c47.3,0,53.2-3.2,36.5-20c16.7,16.7,20,10.8,20-36.5c0,47.3,3.2,53.2,20,36.5
		C328.05,207.3,333.95,210.6,381.25,210.6z"/>
	<path style="fill:#FFFFFF;" d="M236.75,294.5c-47.3,0-53.2,3.2-36.5,20c-16.7-16.7-20-10.8-20,36.5c0-47.3-3.2-53.2-20-36.5
		c16.7-16.7,10.8-20-36.5-20c47.3,0,53.2-3.2,36.5-20c16.7,16.7,20,10.8,20-36.5c0,47.3,3.2,53.2,20,36.5
		C183.55,291.3,189.55,294.5,236.75,294.5z"/>
</g>
<g>
</g>
<g>
</g>
<g>
</g>
<g>
</g>
<g>
</g>
<g>
</g>
<g>
</g>
<g>
</g>
<g>
</g>
<g>
</g>
<g>
</g>
<g>
</g>
<g>
</g>
<g>
</g>
<g>
</g>
</svg>
