<?xml version="1.0" encoding="iso-8859-1"?>
<!-- Generator: Adobe Illustrator 19.0.0, SVG Export Plug-In . SVG Version: 6.00 Build 0)  -->
<svg version="1.1" id="Layer_1" xmlns="http://www.w3.org/2000/svg" xmlns:xlink="http://www.w3.org/1999/xlink" x="0px" y="0px"
	 viewBox="0 0 505 505" style="enable-background:new 0 0 505 505;" xml:space="preserve">
<circle style="fill:#324A5E;" cx="252.5" cy="252.5" r="252.5"/>
<g>
	<polygon style="fill:#F1C835;" points="285.2,79.1 285.2,79.1 219.8,79.1 219.8,79.1 187.1,124.2 252.5,124.2 252.5,124.2 
		252.5,124.2 317.9,124.2 	"/>
	<polygon style="fill:#F1C835;" points="252.5,124.2 317.9,124.2 285.2,79.1 	"/>
</g>
<polygon style="fill:#FFD05B;" points="288.2,186.2 317.9,124.2 187.1,124.2 216.8,186.2 "/>
<polygon style="fill:#F1C835;" points="252.5,124.2 219.8,79.1 219.8,79.1 187.1,124.2 "/>
<path style="fill:#FFFFFF;" d="M252.5,124.2L252.5,124.2L252.5,124.2z"/>
<polygon style="fill:#FFD05B;" points="285.2,79.1 285.2,79.1 219.8,79.1 252.5,124.2 "/>
<g>
	<path style="fill:#EDF2F2;" d="M296.6,182.4v-13.8h-88.1v13.8c-47.7,17.9-81.7,63.9-81.7,117.8c0,69.3,56.4,125.7,125.7,125.7
		s125.7-56.4,125.7-125.7C378.2,246.3,344.2,200.3,296.6,182.4z M252.5,407.3c-59.1,0-107.1-48.1-107.1-107.1S193.4,193,252.5,193
		s107.1,48.1,107.1,107.1S311.6,407.3,252.5,407.3z"/>
	<path style="fill:#EDF2F2;" d="M273.5,124.2c-21.6,0-21.9-0.9,8.7,29.7c-30.6-30.6-29.7-30.3-29.7-8.7c0-21.6,0.9-21.9-29.7,8.7
		c30.6-30.6,30.3-29.7,8.7-29.7c21.6,0,21.9,0.9-8.7-29.7c30.6,30.6,29.7,30.3,29.7,8.7c0,21.6-0.9,21.9,29.7-8.7
		C251.6,125.1,251.9,124.2,273.5,124.2z"/>
</g>
<g>
</g>
<g>
</g>
<g>
</g>
<g>
</g>
<g>
</g>
<g>
</g>
<g>
</g>
<g>
</g>
<g>
</g>
<g>
</g>
<g>
</g>
<g>
</g>
<g>
</g>
<g>
</g>
<g>
</g>
</svg>
