<?xml version="1.0" encoding="iso-8859-1"?>
<!-- Generator: Adobe Illustrator 19.0.0, SVG Export Plug-In . SVG Version: 6.00 Build 0)  -->
<svg version="1.1" id="Layer_1" xmlns="http://www.w3.org/2000/svg" xmlns:xlink="http://www.w3.org/1999/xlink" x="0px" y="0px"
	 viewBox="0 0 505 505" style="enable-background:new 0 0 505 505;" xml:space="preserve">
<circle style="fill:#84DBFF;" cx="252.5" cy="252.5" r="252.5"/>
<path style="fill:#FF7058;" d="M376.8,135.1H128.2c-22.4,0-40.6,18.2-40.6,40.6v153.7c0,22.4,18.2,40.6,40.6,40.6h248.6
	c22.4,0,40.6-18.2,40.6-40.6V175.6C417.4,153.2,399.2,135.1,376.8,135.1z"/>
<path style="fill:#F1543F;" d="M404.8,359.3c-7.1,6.6-16.5,10.7-27,10.7H127.2c-10.4,0-19.9-4-27-10.7L252.5,230L404.8,359.3z"/>
<path style="fill:#FFFFFF;" d="M405.1,146L275.2,260.7c-13,11.5-32.5,11.5-45.4,0L99.9,146c7.1-6.7,16.7-10.9,27.2-10.9h250.6
	C388.4,135.1,398,139.2,405.1,146z"/>
<g>
</g>
<g>
</g>
<g>
</g>
<g>
</g>
<g>
</g>
<g>
</g>
<g>
</g>
<g>
</g>
<g>
</g>
<g>
</g>
<g>
</g>
<g>
</g>
<g>
</g>
<g>
</g>
<g>
</g>
</svg>
