<?xml version="1.0" encoding="iso-8859-1"?>
<!-- Generator: Adobe Illustrator 19.0.0, SVG Export Plug-In . SVG Version: 6.00 Build 0)  -->
<svg version="1.1" id="Layer_1" xmlns="http://www.w3.org/2000/svg" xmlns:xlink="http://www.w3.org/1999/xlink" x="0px" y="0px"
	 viewBox="0 0 505 505" style="enable-background:new 0 0 505 505;" xml:space="preserve">
<circle style="fill:#FFD05B;" cx="252.5" cy="252.5" r="252.5"/>
<path style="fill:#324A5E;" d="M252.5,407.9c-85.7,0-155.4-69.7-155.4-155.4S166.8,97.1,252.5,97.1s155.4,69.7,155.4,155.4
	S338.2,407.9,252.5,407.9z M252.5,112.9c-77,0-139.6,62.6-139.6,139.6s62.6,139.6,139.6,139.6s139.6-62.6,139.6-139.6
	S329.5,112.9,252.5,112.9z"/>
<g>
	<circle style="fill:#FFFFFF;" cx="252.5" cy="397.3" r="68.3"/>
	<circle style="fill:#FFFFFF;" cx="397.3" cy="252.5" r="68.3"/>
	<circle style="fill:#FFFFFF;" cx="107.7" cy="252.5" r="68.3"/>
</g>
<g>
	<circle style="fill:#4CDBC4;" cx="397.3" cy="252.5" r="47.9"/>
	<circle style="fill:#4CDBC4;" cx="107.7" cy="252.5" r="47.9"/>
</g>
<circle style="fill:#FF7058;" cx="252.5" cy="397.3" r="47.9"/>
<g>
	<path style="fill:#FFFFFF;" d="M73.6,249.6v-7.5h9.1c1.9-6.2,5.3-11.2,10.2-15c4.9-3.8,10.4-5.7,16.7-5.7c9.2,0,16.6,3.3,22,10
		l-6.2,7.9c-2.6-2.7-5-4.7-7.3-5.8s-5.1-1.7-8.5-1.7s-6.4,0.9-9.1,2.7s-4.7,4.3-6.1,7.5h20.8v7.5H92.5c-0.1,0.7-0.1,1.8-0.1,3.2
		c0,1.4,0.1,2.8,0.3,4.1h22.4v7.5h-20c3.1,6.1,7.9,9.1,14.2,9.1c3.1,0,5.8-0.6,8.1-1.8c2.2-1.2,4.6-3.1,7.1-5.6l6.2,7.5
		c-5.4,6.7-12.5,10-21.4,10c-6.1,0-11.4-1.7-16.1-5.2s-8-8.1-10.1-14h-9.5v-7.5h7.9c-0.2-1.4-0.3-2.8-0.3-4.2s0-2.4,0.1-3.1h-7.7
		V249.6z"/>
	<path style="fill:#FFFFFF;" d="M248.4,384.9v11.2h14.3v8.4h-14.3V420h25.4v9h-42.5v-9h7v-15.5H231v-8.4h7.3v-10.7
		c0-6.9,1.7-11.9,5.2-15.1s8-4.7,13.7-4.7c7.5,0,13.1,3.2,16.8,9.6l-7.1,5.6c-2.3-3.9-5.4-5.8-9.1-5.8c-2.7,0-5,0.8-6.8,2.3
		C249.3,378.9,248.4,381.4,248.4,384.9z"/>
	<path style="fill:#FFFFFF;" d="M377.8,262.9h14.4v-4.1l-0.3-0.5h-14.1v-6.7H388l-15.3-25.8h9.8l14.4,24.4h0.5l14.9-24.4h9.6
		l-15.8,25.8h10v6.7H402l-0.2,0.5v4.1h14.3v6.7h-14.4v9.4h-9.5v-9.4h-14.4V262.9z"/>
	<circle style="fill:#FFFFFF;" cx="252.5" cy="107.7" r="68.3"/>
</g>
<circle style="fill:#FF7058;" cx="252.5" cy="107.7" r="47.9"/>
<path style="fill:#FFFFFF;" d="M250.8,140.1v-5.7c-7.1-0.7-13.6-3.6-19.3-8.5l5.7-6.8c4.4,3.8,8.9,6.1,13.5,6.8v-15.2
	c-5.9-1.4-10.2-3.3-13-5.6c-2.7-2.3-4.1-5.7-4.1-10.2s1.6-8.2,4.7-11.1c3.2-2.9,7.3-4.4,12.3-4.7v-3.9h5v4
	c5.7,0.4,11.2,2.4,16.3,5.9l-5.1,7.2c-3.4-2.5-7.2-4-11.2-4.5v14.7h0.2c6,1.4,10.4,3.3,13.2,5.7c2.8,2.4,4.2,5.9,4.2,10.5
	s-1.6,8.3-4.9,11.2c-3.2,2.9-7.5,4.4-12.8,4.7v5.6h-4.7V140.1z M245.3,89.6c-1.3,1.2-2,2.6-2,4.4s0.5,3.1,1.6,4.1c1,1,3,2,5.9,2.9
	V87.6C248.4,87.8,246.6,88.5,245.3,89.6z M261.7,123.9c1.5-1.2,2.2-2.7,2.2-4.5s-0.6-3.3-1.7-4.3c-1.1-1.1-3.3-2.1-6.4-3v14.1
	C258.3,125.9,260.3,125.1,261.7,123.9z"/>
<g>
</g>
<g>
</g>
<g>
</g>
<g>
</g>
<g>
</g>
<g>
</g>
<g>
</g>
<g>
</g>
<g>
</g>
<g>
</g>
<g>
</g>
<g>
</g>
<g>
</g>
<g>
</g>
<g>
</g>
</svg>
