<?xml version="1.0" encoding="iso-8859-1"?>
<!-- Generator: Adobe Illustrator 19.0.0, SVG Export Plug-In . SVG Version: 6.00 Build 0)  -->
<svg version="1.1" id="Layer_1" xmlns="http://www.w3.org/2000/svg" xmlns:xlink="http://www.w3.org/1999/xlink" x="0px" y="0px"
	 viewBox="0 0 505 505" style="enable-background:new 0 0 505 505;" xml:space="preserve">
<circle style="fill:#4CDBC4;" cx="252.5" cy="252.5" r="252.5"/>
<path style="fill:#FF7058;" d="M435.6,325.9l-42-127.6c-2.3-6.9-8.7-11.5-16-11.5H127.3c-7.3,0-13.7,4.7-16,11.5l-42,127.6
	c-10.2,30.9,12.9,62.8,45.4,62.8h275.4C422.8,388.6,445.8,356.8,435.6,325.9z"/>
<g>
	<circle style="fill:#334D5D;" cx="339.3" cy="233.9" r="17.6"/>
	<circle style="fill:#334D5D;" cx="165.3" cy="233.9" r="17.6"/>
</g>
<g>
	<path style="fill:#FFFFFF;" d="M339.6,240.5c-5.7,0-10.3-4.6-10.3-10.3c0-42-35.9-111.5-76.8-111.5s-76.8,69.5-76.8,111.5
		c0,5.7-4.6,10.3-10.3,10.3s-10.3-4.6-10.3-10.3c0-52,41.8-132.2,97.4-132.2s97.4,80.2,97.4,132.2
		C349.9,235.9,345.3,240.5,339.6,240.5z"/>
	<path style="fill:#FFFFFF;" d="M229,186.7V245c0,13,10.5,23.5,23.5,23.5S276,258,276,245v-58.3H229z"/>
</g>
<circle style="fill:#F9B54C;" cx="252.5" cy="244.1" r="14"/>
<g>
</g>
<g>
</g>
<g>
</g>
<g>
</g>
<g>
</g>
<g>
</g>
<g>
</g>
<g>
</g>
<g>
</g>
<g>
</g>
<g>
</g>
<g>
</g>
<g>
</g>
<g>
</g>
<g>
</g>
</svg>
