<?xml version="1.0" encoding="iso-8859-1"?>
<!-- Generator: Adobe Illustrator 19.0.0, SVG Export Plug-In . SVG Version: 6.00 Build 0)  -->
<svg version="1.1" id="Layer_1" xmlns="http://www.w3.org/2000/svg" xmlns:xlink="http://www.w3.org/1999/xlink" x="0px" y="0px"
	 viewBox="0 0 512 512" style="enable-background:new 0 0 512 512;" xml:space="preserve">
<circle style="fill:#FF7058;" cx="256" cy="256" r="256"/>
<g>
	<path style="fill:#F9B54C;" d="M425.72,369.147l8.415-22.204c8.618-22.913,8.314-48.26-1.115-70.97l-39.541-95.506l25.245,188.68
		H425.72L425.72,369.147z"/>
	<path style="fill:#F9B54C;" d="M86.28,369.147h6.996l25.245-188.68L78.98,275.973c-9.328,22.609-9.733,48.057-1.115,70.97
		L86.28,369.147z"/>
</g>
<path style="fill:#FFD05B;" d="M410.918,381.922H101.082c-10.848,0-18.959-9.834-16.931-20.48l34.37-180.974h275.061l34.269,180.974
	C429.877,372.087,421.766,381.922,410.918,381.922z"/>
<path style="fill:#2B3B4E;" d="M340.455,206.118h-10.341c0-69.551-33.255-126.124-74.113-126.124s-74.113,56.573-74.113,126.124
	h-10.341c0-35.992,8.516-69.956,23.927-95.506c15.918-26.36,37.411-40.96,60.426-40.96c23.015,0,44.509,14.498,60.426,40.96
	C331.938,136.162,340.455,170.126,340.455,206.118z"/>
<path style="fill:#FFFFFF;" d="M354.852,254.862h-37.918c-1.385,0-2.512-1.127-2.512-2.513v-32.444c0-1.385,1.126-2.512,2.512-2.512
	h37.918c1.385,0,2.512,1.127,2.512,2.512v32.444C357.224,253.789,356.122,254.862,354.852,254.862z M316.933,218.769
	c-0.638,0-1.138,0.5-1.138,1.138v32.444c0,0.638,0.5,1.138,1.138,1.138h37.918c0.554,0,1.076-0.552,1.141-1.205l-0.003-32.376
	c0-0.638-0.5-1.138-1.138-1.138H316.933z"/>
<path style="fill:#324A5E;" d="M343.192,230.349h-14.701c-4.765,0-8.415-4.36-7.604-9.023l3.65-21.697
	c0.608-3.751,3.853-6.489,7.604-6.489h7.3c3.751,0,6.996,2.737,7.604,6.489l3.65,21.697
	C351.607,225.99,347.957,230.349,343.192,230.349z"/>
<path style="fill:#FFFFFF;" d="M195.067,254.862h-37.918c-1.385,0-2.512-1.127-2.512-2.513v-32.444c0-1.385,1.127-2.512,2.512-2.512
	h37.918c1.386,0,2.513,1.127,2.513,2.512v32.444C197.579,253.736,196.453,254.862,195.067,254.862z M157.149,218.769
	c-0.638,0-1.138,0.5-1.138,1.138v32.444c0,0.638,0.5,1.138,1.138,1.138h37.918c0.638,0,1.138-0.5,1.138-1.138v-32.444
	c0-0.638-0.5-1.138-1.138-1.138H157.149z"/>
<path style="fill:#324A5E;" d="M183.509,230.349h-14.701c-4.765,0-8.415-4.36-7.604-9.023l3.65-21.697
	c0.608-3.751,3.853-6.489,7.604-6.489h7.3c3.751,0,6.996,2.737,7.604,6.489l3.65,21.697
	C191.924,225.99,188.274,230.349,183.509,230.349z"/>
<rect x="158.264" y="291.181" style="fill:#F9B54C;" width="195.574" height="8.821"/>
<g>
</g>
<g>
</g>
<g>
</g>
<g>
</g>
<g>
</g>
<g>
</g>
<g>
</g>
<g>
</g>
<g>
</g>
<g>
</g>
<g>
</g>
<g>
</g>
<g>
</g>
<g>
</g>
<g>
</g>
</svg>
