<?xml version="1.0" encoding="iso-8859-1"?>
<!-- Generator: Adobe Illustrator 19.0.0, SVG Export Plug-In . SVG Version: 6.00 Build 0)  -->
<svg version="1.1" id="Layer_1" xmlns="http://www.w3.org/2000/svg" xmlns:xlink="http://www.w3.org/1999/xlink" x="0px" y="0px"
	 viewBox="0 0 505 505" style="enable-background:new 0 0 505 505;" xml:space="preserve">
<circle style="fill:#324A5E;" cx="252.5" cy="252.5" r="252.5"/>
<path style="fill:#EDF2F2;" d="M305.6,126.8c-2.4,0-4.4-1.8-4.6-4.2c-0.6-7-7.9-7.4-8.2-7.4h-40.3c-2.6,0-4.7-2.1-4.7-4.7
	s2.1-4.7,4.7-4.7H293c5.6,0.2,16.2,3.8,17.3,15.9c0.2,2.6-1.7,4.8-4.2,5C305.9,126.8,305.8,126.8,305.6,126.8z"/>
<path style="fill:#ACB3BA;" d="M259.2,146.2h-13.4c-0.3,0-0.5-0.2-0.5-0.5V94.4c0-0.3,0.2-0.5,0.5-0.5h13.4c0.3,0,0.5,0.2,0.5,0.5
	v51.3C259.7,145.9,259.5,146.2,259.2,146.2z"/>
<path style="fill:#4CDBC4;" d="M276.2,138h-47.4c-2,0-3.6,1.6-3.6,3.6v62.2h54.5v-62.3C279.7,139.5,278.1,138,276.2,138z"/>
<path style="fill:#FFFFFF;" d="M252.5,163.3L252.5,163.3c-50.1,0-90.6,40.6-90.6,90.6v146.7c0,5.8,4.7,10.5,10.5,10.5h160.3
	c5.8,0,10.5-4.7,10.5-10.5V254C343.1,203.9,302.6,163.3,252.5,163.3z"/>
<path style="fill:#FF7058;" d="M173.1,257.7V392c0,3,2.4,5.4,5.4,5.4h148c3,0,5.4-2.4,5.4-5.4V257.7H173.1z"/>
<g>
</g>
<g>
</g>
<g>
</g>
<g>
</g>
<g>
</g>
<g>
</g>
<g>
</g>
<g>
</g>
<g>
</g>
<g>
</g>
<g>
</g>
<g>
</g>
<g>
</g>
<g>
</g>
<g>
</g>
</svg>
