<?xml version="1.0" encoding="iso-8859-1"?>
<!-- Generator: Adobe Illustrator 19.0.0, SVG Export Plug-In . SVG Version: 6.00 Build 0)  -->
<svg version="1.1" id="Layer_1" xmlns="http://www.w3.org/2000/svg" xmlns:xlink="http://www.w3.org/1999/xlink" x="0px" y="0px"
	 viewBox="0 0 505 505" style="enable-background:new 0 0 505 505;" xml:space="preserve">
<circle style="fill:#90DFAA;" cx="252.5" cy="252.5" r="252.5"/>
<g>
	<rect x="85.2" y="251.3" style="fill:#2B3B4E;" width="342.6" height="10.5"/>
	<path style="fill:#2B3B4E;" d="M237.1,251.3c-0.9,0.5-1.8,1-2.8,1.6c-1.8,1.1-3.9,2.7-4.6,4.7c-0.4,1.2-0.4,2.6-0.2,4.2H85.2v-10.5
		L237.1,251.3L237.1,251.3z"/>
</g>
<path style="fill:#FFFFFF;" d="M252.5,163.2c-3.3,0-5.9-2.7-5.9-5.9v-22.7c0-12.5,5.1-24.3,14.1-32.4c2.7-2.4,4.1-5.9,4-9.5
	c-0.2-6.3-5.4-11.5-11.7-11.7c-3.4-0.1-6.5,1.1-8.9,3.4s-3.7,5.4-3.7,8.8c0,3.3-2.6,5.9-5.9,5.9s-5.9-2.7-5.9-5.9
	c0-6.6,2.6-12.7,7.4-17.3c4.7-4.6,10.9-7,17.6-6.7c12.5,0.5,22.6,10.6,23.1,23.1c0.3,7.1-2.6,14-7.9,18.8
	c-6.5,5.9-10.2,14.5-10.2,23.6v22.7C258.4,160.6,255.8,163.2,252.5,163.2z"/>
<path style="fill:#324A5E;" d="M445.9,265.6c-0.9,2.1-2.1,3.9-3.7,5.5l-189.7-78.8L62.8,271.1c-1.5-1.6-2.8-3.5-3.7-5.5
	c-5-11.6,2.8-26.1,17.4-32.4c8.2-3.5,62.5-23.4,109.7-38.1c0.1,0,0.2-0.1,0.3-0.1c14.3-4.5,25.9-15.1,32-28.8c7-15.6,19.6-26,34-26
	s27.1,10.4,34,26c6.1,13.7,17.7,24.2,32,28.8c0.1,0,0.2,0.1,0.3,0.1c47.2,14.8,101.5,34.6,109.7,38.1
	C443.1,239.4,450.9,253.9,445.9,265.6z"/>
<path style="fill:#FF7058;" d="M297.2,328.1l-38.7-36.6c-3.4-3.2-8.6-3.2-12,0l-38.7,36.7c-1.7,1.6-2.7,3.9-2.7,6.3v92.8
	c0,4.8,3.9,8.7,8.7,8.7h77.3c4.8,0,8.7-3.9,8.7-8.7v-92.8C299.9,332,298.9,329.7,297.2,328.1z M252.5,321.1c-4.7,0-8.6-3.8-8.6-8.6
	c0-4.7,3.9-8.6,8.6-8.6s8.6,3.9,8.6,8.6C261.1,317.3,257.2,321.1,252.5,321.1z"/>
<rect x="216" y="373.2" style="fill:#FFFFFF;" width="72.9" height="38"/>
<path style="fill:#FF7058;" d="M243.3,294.5l-5.8,5.5c2.1,3.3,4.5,6.4,6.9,9.5c1-2.6,3.2-4.6,5.9-5.3
	C247.8,301.1,245.4,297.9,243.3,294.5z"/>
<path style="fill:#FFFFFF;" d="M266,273.4l-0.6-11.6h-7.9l0.6,12c0.3,5.8,0.6,11.6-0.2,17.2c0.2,0.1,0.5,0.3,0.7,0.5l6.1,5.8
	c0.4-1.4,0.7-2.8,0.9-4.1C266.6,286.4,266.3,279.8,266,273.4z M254.1,304.1c-0.4,0.9-0.7,1.9-1.1,2.8c-0.5-0.3-1.1-0.8-1.7-1.5
	c-0.3-0.4-0.7-0.8-1-1.2c-2.5-3.1-4.9-6.3-7-9.7c-5.9-9.2-10.4-19.4-13.1-29.9c-0.3-1-0.5-1.9-0.6-2.8c-0.3-1.7-0.3-3,0.2-4.2
	c0.7-2,2.8-3.6,4.6-4.7c0.9-0.6,1.9-1.1,2.8-1.6c3.4-1.9,6.6-2.8,9.6-2.8s5.8,1,7.7,2.8h9.4c-0.2-0.5-0.4-1-0.7-1.5
	c-2.9-5.6-9.3-9.1-16.5-9.1c-5.3,0-10.7,1.9-16.5,5.6c-1.9,1.3-4,2.8-5.7,5c-0.8,1-1.5,2.2-2,3.6c-0.9,2.3-0.9,4.7-0.7,7
	c0.2,1.6,0.6,3.2,0.9,4.8c3.1,11.8,8.2,23.2,15,33.5c2.1,3.3,4.5,6.4,6.9,9.5c0.3,0.4,0.6,0.7,0.8,1c0.9,1.1,4.2,4.6,8.4,4.6
	c1.9,0,3.6-0.7,4.9-2.2c0.9-1,1.4-2.1,1.7-2.8c0.1-0.2,0.2-0.5,0.3-0.7C259.4,306.7,257,304.7,254.1,304.1z"/>
<g>
</g>
<g>
</g>
<g>
</g>
<g>
</g>
<g>
</g>
<g>
</g>
<g>
</g>
<g>
</g>
<g>
</g>
<g>
</g>
<g>
</g>
<g>
</g>
<g>
</g>
<g>
</g>
<g>
</g>
</svg>
