<?xml version="1.0" encoding="iso-8859-1"?>
<!-- Generator: Adobe Illustrator 19.0.0, SVG Export Plug-In . SVG Version: 6.00 Build 0)  -->
<svg version="1.1" id="Layer_1" xmlns="http://www.w3.org/2000/svg" xmlns:xlink="http://www.w3.org/1999/xlink" x="0px" y="0px"
	 viewBox="0 0 505 505" style="enable-background:new 0 0 505 505;" xml:space="preserve">
<circle style="fill:#F1543F;" cx="252.5" cy="252.5" r="252.5"/>
<polygon style="fill:#324A5E;" points="397.6,254.8 387.6,362.3 376,362.3 366,254.8 "/>
<path style="fill:#FFD05B;" d="M399.3,251.1c9-27.5,8.5-58.1-1.5-85.3c-3.9-10.6-11.1-22-22.3-23c-12.8-1.1-22,11.5-28.4,22.6
	c-12.8,22.1-25.5,44.3-38.3,66.4c-9.5,16.5-19.1,33.1-31.9,47.2s-29.3,25.6-48,29c-10.5,1.9-22.3,1-30.2-6.1
	c-5.4-4.8-9.4-12.5-16.6-13.2c-3.7-0.4-7.2,1.2-10.6,2.8c-16.2,7.7-32.2,15.8-48,24.3C112,322,99.1,331,99.2,344.1
	c0.1,10,10.2,18.2,20,17.8c1.6-0.1,114.2,0.3,138.8,0.4c3.1,0,6-1.1,8.3-3.2c14.4-13.2,27.8-27.5,39.9-42.8
	c3.4-4.3,6.7-8.6,8.9-13.6c2.8-6.2,3.9-13.1,6.2-19.5c5.6-15.6,22.1-29.1,38-24.4c5.4,1.6,10.2,5.1,15.8,6.3
	C385,267.2,396.2,260.6,399.3,251.1z"/>
<g>
</g>
<g>
</g>
<g>
</g>
<g>
</g>
<g>
</g>
<g>
</g>
<g>
</g>
<g>
</g>
<g>
</g>
<g>
</g>
<g>
</g>
<g>
</g>
<g>
</g>
<g>
</g>
<g>
</g>
</svg>
