<?xml version="1.0" encoding="iso-8859-1"?>
<!-- Generator: Adobe Illustrator 19.0.0, SVG Export Plug-In . SVG Version: 6.00 Build 0)  -->
<svg version="1.1" id="Layer_1" xmlns="http://www.w3.org/2000/svg" xmlns:xlink="http://www.w3.org/1999/xlink" x="0px" y="0px"
	 viewBox="0 0 505 505" style="enable-background:new 0 0 505 505;" xml:space="preserve">
<circle style="fill:#FD8469;" cx="252.5" cy="252.5" r="252.5"/>
<path style="fill:#324A5E;" d="M390.5,294.9h-276c-1.5,0-2.8-1.2-2.8-2.8v-175c0-1.5,1.2-2.8,2.8-2.8h276c1.5,0,2.8,1.2,2.8,2.8v175
	C393.2,293.6,392,294.9,390.5,294.9z"/>
<rect x="126.3" y="132.9" style="fill:#54C0EB;" width="252.3" height="143.4"/>
<path style="fill:#2B3B4E;" d="M435.9,373.2H69.1c-7.7,0-11.2-3.7-7.8-8.1l47.2-61.5c1.8-2.4,7.8-4.3,13.3-4.3h261.6
	c5.5,0,11.4,1.9,13.3,4.3l47.2,61.5C447.1,369.5,443.6,373.2,435.9,373.2z"/>
<g>
	<polygon style="fill:#ACB3BA;" points="412.9,338.1 388.5,306.2 116.5,306.2 92.1,338.1 	"/>
	<path style="fill:#ACB3BA;" d="M285.5,366.2h-66c-2.1,0-3.6-2.2-2.7-4.1l6.6-15.2c0.5-1.1,1.5-1.8,2.7-1.8H279
		c1.2,0,2.3,0.7,2.7,1.8l6.6,15.2C289.1,364,287.7,366.2,285.5,366.2z"/>
</g>
<circle style="fill:#2B3B4E;" cx="252.5" cy="123.7" r="4"/>
<path style="fill:#FFFFFF;" d="M249.8,248.9V240c-11.2-1.1-21.2-5.6-30-13.3l8.9-10.6c6.8,5.9,13.9,9.5,21.1,10.6V203
	c-9.2-2.2-15.9-5.1-20.2-8.7c-4.3-3.6-6.4-8.9-6.4-15.9s2.5-12.8,7.4-17.3s11.3-6.9,19.2-7.3v-6.1h7.8v6.2c9,0.6,17.4,3.7,25.4,9.2
	l-7.9,11.2c-5.4-3.8-11.2-6.2-17.5-7.1v23h0.4c9.4,2.2,16.2,5.2,20.6,8.9s6.6,9.2,6.6,16.3s-2.5,12.9-7.6,17.4
	c-5,4.5-11.7,6.9-20,7.3v8.8L249.8,248.9L249.8,248.9z M241.2,170.1c-2.1,1.8-3.1,4.1-3.1,6.8s0.8,4.9,2.4,6.5
	c1.6,1.6,4.7,3.1,9.3,4.6v-21.1C246.2,167.1,243.3,168.2,241.2,170.1z M266.9,223.6c2.3-1.9,3.4-4.2,3.4-7.1c0-2.8-0.9-5.1-2.7-6.8
	c-1.8-1.7-5.1-3.2-10-4.7v22C261.5,226.6,264.6,225.5,266.9,223.6z"/>
<g>
</g>
<g>
</g>
<g>
</g>
<g>
</g>
<g>
</g>
<g>
</g>
<g>
</g>
<g>
</g>
<g>
</g>
<g>
</g>
<g>
</g>
<g>
</g>
<g>
</g>
<g>
</g>
<g>
</g>
</svg>
