<?xml version="1.0" encoding="iso-8859-1"?>
<!-- Generator: Adobe Illustrator 19.0.0, SVG Export Plug-In . SVG Version: 6.00 Build 0)  -->
<svg version="1.1" id="Layer_1" xmlns="http://www.w3.org/2000/svg" xmlns:xlink="http://www.w3.org/1999/xlink" x="0px" y="0px"
	 viewBox="0 0 505 505" style="enable-background:new 0 0 505 505;" xml:space="preserve">
<circle style="fill:#4CDBC4;" cx="252.5" cy="252.5" r="252.5"/>
<path style="fill:#324A5E;" d="M405.4,344.3H99.6c-1,0-1.8-0.8-1.8-1.8V130c0-1,0.8-1.8,1.8-1.8h305.8c1,0,1.8,0.8,1.8,1.8v212.5
	C407.2,343.5,406.4,344.3,405.4,344.3z"/>
<rect x="117.6" y="148" style="fill:#FFFFFF;" width="269.7" height="176.5"/>
<path style="fill:#E6E9EE;" d="M414.2,376.8H90.8c-11.9,0-22.6-7.3-26.9-18.4l-2.1-5.5c-1.6-4.1,1.4-8.6,5.9-8.6h369.9
	c4.4,0,7.5,4.5,5.9,8.6l-2.1,5.5C436.8,369.5,426.1,376.8,414.2,376.8z"/>
<path style="fill:#CED5E0;" d="M67.1,364.4c5.3,7.6,14.1,12.4,23.6,12.4h323.4c9.6,0,18.3-4.8,23.6-12.4H67.1z"/>
<g>
</g>
<g>
</g>
<g>
</g>
<g>
</g>
<g>
</g>
<g>
</g>
<g>
</g>
<g>
</g>
<g>
</g>
<g>
</g>
<g>
</g>
<g>
</g>
<g>
</g>
<g>
</g>
<g>
</g>
</svg>
