<?xml version="1.0" encoding="iso-8859-1"?>
<!-- Generator: Adobe Illustrator 19.0.0, SVG Export Plug-In . SVG Version: 6.00 Build 0)  -->
<svg version="1.1" id="Layer_1" xmlns="http://www.w3.org/2000/svg" xmlns:xlink="http://www.w3.org/1999/xlink" x="0px" y="0px"
	 viewBox="0 0 505 505" style="enable-background:new 0 0 505 505;" xml:space="preserve">
<circle style="fill:#4CDBC4;" cx="252.5" cy="252.5" r="252.5"/>
<path style="fill:#FFFFFF;" d="M430.1,373.8c-112,41.6-231.5-34.2-355.1,0c33.3-72.6,56.1-122.2,72.7-158.3
	c71.8-12.4,141.9,13.9,209.7,0C373.9,251.6,396.7,301.2,430.1,373.8z"/>
<path style="fill:#ACB3BA;" d="M397.5,360.4c-94.4,17.8-189.8-27.4-285.2-12.2c21.6-55.7,37.5-96.6,49.6-127.8
	c61.3-6.4,122.4,12.2,183.2,5C357.8,258.1,374.5,301.1,397.5,360.4z"/>
<g>
	<path style="fill:#2B3B4E;" d="M366,279.4c1.6,4,3.2,8.2,4.8,12.4c-54.3-9.8-97.3-33.9-126.3-49.9c-21.6,10-53.7,18.2-105.7,37.8
		c1.5-4,3.1-7.9,4.5-11.6c43.6-16.4,71.1-24.2,89.9-32.7c-10.4-6.2-18.9-11.5-25.8-15.9c6.4,0.3,12.8,0.7,19.2,1.2
		c4.9,3,10.5,6.4,16.8,10c5.1-2.5,9.3-5,12.9-7.3c5.8,0.6,11.7,1.1,17.5,1.6c-4.5,3.7-10.7,7.8-19,12.1
		C281.2,251.1,319.1,270.9,366,279.4z"/>
	<path style="fill:#2B3B4E;" d="M299.7,360.8c-11.9-1.4-23.8-3.1-35.6-4.8c-20.8-15.8-39.9-30.6-57.5-43.3
		c-27.4,2.3-55.7,6.6-86.9,16.2c1.9-4.9,3.7-9.6,5.5-14.2c31.6-9.4,60.3-13.2,88.1-15.3C238.9,316.9,267.5,338.4,299.7,360.8z"/>
</g>
<path style="fill:#FF7058;" d="M303.3,142.6c0,93.3-77.7,129.9-77.7,129.9s-77.7-36.7-77.7-129.9c0-42.9,34.8-77.7,77.7-77.7
	S303.3,99.7,303.3,142.6z"/>
<circle style="fill:#FFFFFF;" cx="225.7" cy="142.6" r="54.1"/>
<path style="fill:#2B3B4E;" d="M223.8,177.7v-6.2c-7.7-0.8-14.7-3.9-20.9-9.2l6.2-7.4c4.7,4.1,9.6,6.6,14.7,7.4v-16.4
	c-6.4-1.5-11.1-3.5-14-6c-3-2.5-4.5-6.2-4.5-11.1c0-4.9,1.7-8.9,5.1-12c3.4-3.1,7.9-4.8,13.4-5.1v-4.2h5.4v4.3
	c6.2,0.4,12.1,2.6,17.6,6.4l-5.5,7.8c-3.7-2.7-7.8-4.3-12.1-4.9V137h0.3c6.5,1.5,11.3,3.6,14.3,6.2c3.1,2.6,4.6,6.4,4.6,11.3
	c0,4.9-1.8,9-5.3,12.1s-8.1,4.8-13.9,5.1v6.1h-5.4V177.7z M217.8,123c-1.4,1.3-2.2,2.9-2.2,4.7c0,1.9,0.6,3.4,1.7,4.5
	c1.1,1.1,3.3,2.2,6.4,3.2v-14.7C221.2,121,219.3,121.7,217.8,123z M235.7,160.2c1.6-1.3,2.4-2.9,2.4-4.9s-0.6-3.5-1.9-4.7
	c-1.2-1.2-3.6-2.2-7-3.3v15.3C231.9,162.3,234.1,161.5,235.7,160.2z"/>
<g>
</g>
<g>
</g>
<g>
</g>
<g>
</g>
<g>
</g>
<g>
</g>
<g>
</g>
<g>
</g>
<g>
</g>
<g>
</g>
<g>
</g>
<g>
</g>
<g>
</g>
<g>
</g>
<g>
</g>
</svg>
