<?xml version="1.0" encoding="iso-8859-1"?>
<!-- Generator: Adobe Illustrator 19.0.0, SVG Export Plug-In . SVG Version: 6.00 Build 0)  -->
<svg version="1.1" id="Layer_1" xmlns="http://www.w3.org/2000/svg" xmlns:xlink="http://www.w3.org/1999/xlink" x="0px" y="0px"
	 viewBox="0 0 505 505" style="enable-background:new 0 0 505 505;" xml:space="preserve">
<circle style="fill:#84DBFF;" cx="252.5" cy="252.5" r="252.5"/>
<path style="fill:#324A5E;" d="M439.7,361.4H65.3c-1.1,0-1.9-0.9-1.9-1.9V145.6c0-1.1,0.9-1.9,1.9-1.9h374.4c1.1,0,1.9,0.9,1.9,1.9
	v213.9C441.6,360.5,440.7,361.4,439.7,361.4z"/>
<path style="fill:#FFFFFF;" d="M88.7,328.9V176.1c4,0,7.2-3.2,7.2-7.2h313.2c0,4,3.2,7.2,7.2,7.2v152.8c-4,0-7.2,3.2-7.2,7.2H95.9
	C95.9,332.1,92.7,328.9,88.7,328.9z"/>
<circle style="fill:#324A5E;" cx="252.5" cy="252.5" r="59.8"/>
<path style="fill:#FFFFFF;" d="M250.3,294.1v-7.3c-9.2-0.9-17.4-4.6-24.7-10.9l7.3-8.7c5.6,4.9,11.4,7.8,17.4,8.7v-19.5
	c-7.6-1.8-13.1-4.2-16.6-7.1c-3.5-2.9-5.3-7.3-5.3-13.1s2-10.5,6.1-14.2c4-3.7,9.3-5.7,15.8-6v-5h6.4v5.1c7.4,0.5,14.3,3,20.9,7.5
	l-6.5,9.2c-4.4-3.1-9.2-5.1-14.4-5.8v18.9h0.3c7.7,1.8,13.4,4.2,17,7.3s5.4,7.5,5.4,13.4s-2.1,10.6-6.2,14.3
	c-4.2,3.7-9.6,5.7-16.5,6v7.2H250.3z M243.2,229.3c-1.7,1.5-2.6,3.4-2.6,5.6c0,2.2,0.7,4,2,5.3s3.9,2.6,7.6,3.8v-17.4
	C247.3,226.9,244.9,227.8,243.2,229.3z M264.3,273.3c1.9-1.5,2.8-3.5,2.8-5.8s-0.7-4.2-2.2-5.6s-4.2-2.7-8.2-3.9v18.1
	C259.9,275.8,262.5,274.9,264.3,273.3z"/>
<g>
	<circle style="fill:#324A5E;" cx="349.9" cy="252.5" r="22.7"/>
	<circle style="fill:#324A5E;" cx="155.1" cy="252.5" r="22.7"/>
</g>
<g>
</g>
<g>
</g>
<g>
</g>
<g>
</g>
<g>
</g>
<g>
</g>
<g>
</g>
<g>
</g>
<g>
</g>
<g>
</g>
<g>
</g>
<g>
</g>
<g>
</g>
<g>
</g>
<g>
</g>
</svg>
