<?xml version="1.0" encoding="iso-8859-1"?>
<!-- Generator: Adobe Illustrator 19.0.0, SVG Export Plug-In . SVG Version: 6.00 Build 0)  -->
<svg version="1.1" id="Layer_1" xmlns="http://www.w3.org/2000/svg" xmlns:xlink="http://www.w3.org/1999/xlink" x="0px" y="0px"
	 viewBox="0 0 505 505" style="enable-background:new 0 0 505 505;" xml:space="preserve">
<circle style="fill:#84DBFF;" cx="252.5" cy="252.5" r="252.5"/>
<path style="fill:#FFFFFF;" d="M432.7,272.4L432.7,272.4c11-11,11-28.8,0-39.8l0,0c-8.1-8.1-10.5-20.2-6.1-30.7l0,0
	c5.9-14.4-0.9-30.8-15.2-36.8l0,0c-10.5-4.4-17.4-14.6-17.4-26l0,0c0-15.5-12.6-28.1-28.1-28.1l0,0c-11.4,0-21.6-6.9-26-17.4l0,0
	c-5.9-14.4-22.4-21.2-36.8-15.2l0,0c-10.5,4.4-22.6,1.9-30.7-6.1l0,0c-11-11-28.8-11-39.8,0l0,0c-8.1,8.1-20.2,10.5-30.7,6.1l0,0
	c-14.4-5.9-30.8,0.9-36.8,15.2l0,0c-4.4,10.5-14.6,17.4-26,17.4l0,0c-15.5,0-28.1,12.6-28.1,28.1l0,0c0,11.4-6.9,21.6-17.4,26l0,0
	c-14.4,5.9-21.2,22.4-15.2,36.8l0,0c4.4,10.5,1.9,22.6-6.1,30.7l0,0c-11,11-11,28.8,0,39.8l0,0c8.1,8.1,10.5,20.2,6.1,30.7l0,0
	c-5.9,14.4,0.9,30.8,15.2,36.8l0,0c10.5,4.4,17.4,14.6,17.4,26l0,0c0,15.5,12.6,28.1,28.1,28.1l0,0c11.4,0,21.6,6.9,26,17.4l0,0
	c5.9,14.4,22.4,21.2,36.8,15.2l0,0c10.5-4.4,22.6-1.9,30.7,6.1l0,0c11,11,28.8,11,39.8,0l0,0c8.1-8.1,20.2-10.5,30.7-6.1l0,0
	c14.4,5.9,30.8-0.9,36.8-15.2l0,0c4.4-10.5,14.6-17.4,26-17.4l0,0c15.5,0,28.1-12.6,28.1-28.1l0,0c0-11.4,6.9-21.6,17.4-26l0,0
	c14.4-5.9,21.2-22.4,15.2-36.8l0,0C422.3,292.6,424.7,280.5,432.7,272.4z"/>
<path style="fill:#FF7058;" d="M398.3,268.6L398.3,268.6c8.9-8.9,8.9-23.3,0-32.2l0,0c-6.5-6.5-8.5-16.3-4.9-24.8l0,0
	c4.8-11.6-0.7-24.9-12.3-29.8l0,0c-8.5-3.5-14.1-11.8-14.1-21l0,0c0-12.6-10.2-22.8-22.8-22.8l0,0c-9.2,0-17.5-5.5-21-14.1l0,0
	c-4.8-11.6-18.1-17.1-29.8-12.3l0,0c-8.5,3.5-18.3,1.6-24.8-4.9l0,0c-8.9-8.9-23.3-8.9-32.2,0l0,0c-6.5,6.5-16.3,8.5-24.8,4.9l0,0
	c-11.6-4.8-24.9,0.7-29.8,12.3l0,0c-3.5,8.5-11.8,14.1-21,14.1l0,0c-12.6,0-22.8,10.2-22.8,22.8l0,0c0,9.2-5.5,17.5-14.1,21l0,0
	c-11.6,4.8-17.1,18.1-12.3,29.8l0,0c3.5,8.5,1.6,18.3-4.9,24.8l0,0c-8.9,8.9-8.9,23.3,0,32.2l0,0c6.5,6.5,8.5,16.3,4.9,24.8l0,0
	c-4.8,11.6,0.7,24.9,12.3,29.8l0,0c8.5,3.5,14.1,11.8,14.1,21l0,0c0,12.6,10.2,22.8,22.8,22.8l0,0c9.2,0,17.5,5.5,21,14.1l0,0
	c4.8,11.6,18.1,17.1,29.8,12.3l0,0c8.5-3.5,18.3-1.6,24.8,4.9l0,0c8.9,8.9,23.3,8.9,32.2,0l0,0c6.5-6.5,16.3-8.5,24.8-4.9l0,0
	c11.6,4.8,24.9-0.7,29.8-12.3l0,0c3.5-8.5,11.8-14.1,21-14.1l0,0c12.6,0,22.8-10.2,22.8-22.8l0,0c0-9.2,5.5-17.5,14.1-21l0,0
	c11.6-4.8,17.1-18.1,12.3-29.8l0,0C389.9,284.9,391.8,275.1,398.3,268.6z"/>
<g>
	<path style="fill:#FFFFFF;" d="M186.3,220.1h14.4v64.7h-14.4l-30.8-40.5v40.6h-14.4v-64.7h13.5l31.8,41.7v-41.8H186.3z"/>
	<path style="fill:#FFFFFF;" d="M263.4,220.1V233h-32.2v13.3h29v12.3h-29V272h33.2v12.8h-47.7v-64.7L263.4,220.1L263.4,220.1z"/>
	<path style="fill:#FFFFFF;" d="M297.5,257.4l11.5-37.2h15.1l11.4,37.2l12.9-37.2h15.7l-22.6,64.7h-10.7l-14.2-45l-14.1,45h-10.7
		l-22.6-64.7h15.7L297.5,257.4z"/>
</g>
<g>
</g>
<g>
</g>
<g>
</g>
<g>
</g>
<g>
</g>
<g>
</g>
<g>
</g>
<g>
</g>
<g>
</g>
<g>
</g>
<g>
</g>
<g>
</g>
<g>
</g>
<g>
</g>
<g>
</g>
</svg>
