<?xml version="1.0" encoding="iso-8859-1"?>
<!-- Generator: Adobe Illustrator 19.0.0, SVG Export Plug-In . SVG Version: 6.00 Build 0)  -->
<svg version="1.1" id="Layer_1" xmlns="http://www.w3.org/2000/svg" xmlns:xlink="http://www.w3.org/1999/xlink" x="0px" y="0px"
	 viewBox="0 0 505 505" style="enable-background:new 0 0 505 505;" xml:space="preserve">
<circle style="fill:#FD8469;" cx="252.5" cy="252.5" r="252.5"/>
<path style="fill:#FFFFFF;" d="M382.3,296.1l26.3-26.3c9.6-9.6,9.6-25,0-34.6l-26.3-26.3c-4.6-4.6-7.2-10.8-7.2-17.3v-37.2
	c0-13.5-11-24.5-24.5-24.5h-37.2c-6.5,0-12.7-2.6-17.3-7.2l-26.3-26.3c-9.6-9.6-25-9.6-34.6,0l-26.3,26.3
	c-4.6,4.6-10.8,7.2-17.3,7.2h-37.2c-13.5,0-24.5,11-24.5,24.5v37.2c0,6.5-2.6,12.7-7.2,17.3l-26.3,26.3c-9.6,9.6-9.6,25,0,34.6
	l26.3,26.3c4.6,4.6,7.2,10.8,7.2,17.3v37.2c0,13.5,11,24.5,24.5,24.5h37.2c6.5,0,12.7,2.6,17.3,7.2l26.3,26.3c9.6,9.6,25,9.6,34.6,0
	l26.3-26.3c4.6-4.6,10.8-7.2,17.3-7.2h37.2c13.5,0,24.5-11,24.5-24.5v-37.2C375.1,306.9,377.7,300.7,382.3,296.1z"/>
<g>
	<path style="fill:#324A5E;" d="M190.9,240.6l11.8-4.3l19.1,52.8l-11.8,4.3l-37.2-24l12,33.1l-11.8,4.3L153.9,254l11-4l38.2,24.6
		L190.9,240.6z"/>
	<path style="fill:#324A5E;" d="M253.8,217.9l3.8,10.5l-26.3,9.5l3.9,10.9l23.7-8.6l3.6,10.1l-23.7,8.6l4,11l27.1-9.8l3.8,10.4
		l-38.9,14l-19.1-52.8L253.8,217.9z"/>
	<path style="fill:#324A5E;" d="M292.6,238.2l-1.6-33.8l12.3-4.5l20.3,27l-0.5-34.2l12.8-4.6l0.7,59.5l-8.8,3.2l-24.9-32.6l1.8,40.9
		l-8.8,3.2l-37.6-46.2l12.8-4.6L292.6,238.2z"/>
</g>
<g>
</g>
<g>
</g>
<g>
</g>
<g>
</g>
<g>
</g>
<g>
</g>
<g>
</g>
<g>
</g>
<g>
</g>
<g>
</g>
<g>
</g>
<g>
</g>
<g>
</g>
<g>
</g>
<g>
</g>
</svg>
