<?xml version="1.0" encoding="iso-8859-1"?>
<!-- Generator: Adobe Illustrator 19.0.0, SVG Export Plug-In . SVG Version: 6.00 Build 0)  -->
<svg version="1.1" id="Layer_1" xmlns="http://www.w3.org/2000/svg" xmlns:xlink="http://www.w3.org/1999/xlink" x="0px" y="0px"
	 viewBox="0 0 505 505" style="enable-background:new 0 0 505 505;" xml:space="preserve">
<circle style="fill:#90DFAA;" cx="252.5" cy="252.5" r="252.5"/>
<path style="fill:#324A5E;" d="M374,431H131c-1.4,0-2.6-1.1-2.6-2.6V113.7c0-1.4,1.1-2.6,2.6-2.6h243c1.4,0,2.6,1.1,2.6,2.6v314.8
	C376.5,429.9,375.4,431,374,431z"/>
<polygon style="fill:#FFFFFF;" points="148.2,130.9 148.2,383.8 311.2,383.8 311.2,338.2 356.8,338.2 356.8,130.9 "/>
<polygon style="fill:#E6E9EE;" points="311.2,383.8 356.8,338.2 311.2,338.2 "/>
<g>
	<path style="fill:#FF7058;" d="M326.5,139.1h-148v-35.9c0-2.4,1.9-4.3,4.3-4.3h139.4c2.4,0,4.3,1.9,4.3,4.3V139.1z"/>
	<circle style="fill:#FF7058;" cx="252.5" cy="98.9" r="25"/>
</g>
<rect x="171.8" y="173" style="fill:#4CDBC4;" width="32.2" height="32.2"/>
<rect x="171.8" y="228.3" style="fill:#84DBFF;" width="32.2" height="32.2"/>
<g>
	<rect x="171.8" y="283.5" style="fill:#E6E9EE;" width="32.2" height="32.2"/>
	<rect x="218.9" y="173" style="fill:#E6E9EE;" width="107.6" height="7.2"/>
	<rect x="218.9" y="189.1" style="fill:#E6E9EE;" width="43.4" height="7.2"/>
	<rect x="218.9" y="228.3" style="fill:#E6E9EE;" width="107.6" height="7.2"/>
	<rect x="218.9" y="244.4" style="fill:#E6E9EE;" width="43.4" height="7.2"/>
	<rect x="218.9" y="283.5" style="fill:#E6E9EE;" width="107.6" height="7.2"/>
	<rect x="218.9" y="299.6" style="fill:#E6E9EE;" width="43.4" height="7.2"/>
</g>
<g>
</g>
<g>
</g>
<g>
</g>
<g>
</g>
<g>
</g>
<g>
</g>
<g>
</g>
<g>
</g>
<g>
</g>
<g>
</g>
<g>
</g>
<g>
</g>
<g>
</g>
<g>
</g>
<g>
</g>
</svg>
