<?xml version="1.0" encoding="iso-8859-1"?>
<!-- Generator: Adobe Illustrator 19.0.0, SVG Export Plug-In . SVG Version: 6.00 Build 0)  -->
<svg version="1.1" id="Layer_1" xmlns="http://www.w3.org/2000/svg" xmlns:xlink="http://www.w3.org/1999/xlink" x="0px" y="0px"
	 viewBox="0 0 505 505" style="enable-background:new 0 0 505 505;" xml:space="preserve">
<circle style="fill:#54C0EB;" cx="252.5" cy="252.5" r="252.5"/>
<path style="fill:#324A5E;" d="M359.8,426.9H145.2c-4.3,0-7.8-3.5-7.8-7.8v-333c0-4.3,3.5-7.8,7.8-7.8h214.6c4.3,0,7.8,3.5,7.8,7.8
	v333C367.6,423.3,364.1,426.9,359.8,426.9z"/>
<rect x="155" y="117.9" style="fill:#FFFFFF;" width="194.9" height="262.5"/>
<g>
	<path style="fill:#2B3B4E;" d="M282.3,105.1h-59.6c-3.2,0-5.8-2.6-5.8-5.8l0,0c0-3.2,2.6-5.8,5.8-5.8h59.6c3.2,0,5.8,2.6,5.8,5.8
		l0,0C288.1,102.5,285.5,105.1,282.3,105.1z"/>
	<circle style="fill:#2B3B4E;" cx="177.8" cy="97.9" r="7.2"/>
	<circle style="fill:#2B3B4E;" cx="252.5" cy="403.3" r="13.1"/>
</g>
<g>
	<path style="fill:#4CDBC4;" d="M315,274.4h-23.5l12.9-19.6c1-1.5,0.6-3.5-0.9-4.5s-3.5-0.6-4.5,0.9l-15.3,23.2h-61.2l-15.3-23.2
		c-1-1.5-3-1.9-4.5-0.9s-1.9,3-0.9,4.5l12.9,19.6h-24.6c-3.6,0-6.5,2.9-6.5,6.5v1.5c0,3.6,2.9,6.5,6.5,6.5h4.2l7.5,52.4
		c0.7,5.1,5.1,8.9,10.3,8.9h81.1c5.1,0,9.5-3.8,10.3-8.9l7.5-52.4h4.2c3.6,0,6.5-2.9,6.5-6.5v-1.5
		C321.5,277.3,318.6,274.4,315,274.4z M295.5,340.2c-0.2,1.2-1.3,2.2-2.5,2.2h-81.1c-1.3,0-2.3-0.9-2.5-2.2l-7.3-51.3h100.7
		L295.5,340.2z"/>
	<path style="fill:#4CDBC4;" d="M218.8,310.6c2.2,0,3.9-1.7,3.9-3.9v-6c0-2.2-1.8-3.9-3.9-3.9c-2.2,0-3.9,1.7-3.9,3.9v6
		C214.8,308.8,216.6,310.6,218.8,310.6z"/>
	<path style="fill:#4CDBC4;" d="M218.8,331.9c2.2,0,3.9-1.7,3.9-3.9v-6c0-2.2-1.8-3.9-3.9-3.9c-2.2,0-3.9,1.7-3.9,3.9v6
		C214.8,330.1,216.6,331.9,218.8,331.9z"/>
	<path style="fill:#4CDBC4;" d="M235.9,310.6c2.2,0,3.9-1.7,3.9-3.9v-6c0-2.2-1.8-3.9-3.9-3.9c-2.2,0-3.9,1.7-3.9,3.9v6
		C232,308.8,233.7,310.6,235.9,310.6z"/>
	<path style="fill:#4CDBC4;" d="M235.9,331.9c2.2,0,3.9-1.7,3.9-3.9v-6c0-2.2-1.8-3.9-3.9-3.9c-2.2,0-3.9,1.7-3.9,3.9v6
		C232,330.1,233.7,331.9,235.9,331.9z"/>
	<path style="fill:#4CDBC4;" d="M253,310.6c2.2,0,3.9-1.7,3.9-3.9v-6c0-2.2-1.8-3.9-3.9-3.9c-2.2,0-3.9,1.7-3.9,3.9v6
		C249.1,308.8,250.9,310.6,253,310.6z"/>
	<path style="fill:#4CDBC4;" d="M253,331.9c2.2,0,3.9-1.7,3.9-3.9v-6c0-2.2-1.8-3.9-3.9-3.9c-2.2,0-3.9,1.7-3.9,3.9v6
		C249.1,330.1,250.9,331.9,253,331.9z"/>
	<path style="fill:#4CDBC4;" d="M270.2,310.6c2.2,0,3.9-1.7,3.9-3.9v-6c0-2.2-1.8-3.9-3.9-3.9c-2.2,0-3.9,1.7-3.9,3.9v6
		C266.2,308.8,268,310.6,270.2,310.6z"/>
	<path style="fill:#4CDBC4;" d="M270.2,331.9c2.2,0,3.9-1.7,3.9-3.9v-6c0-2.2-1.8-3.9-3.9-3.9c-2.2,0-3.9,1.7-3.9,3.9v6
		C266.2,330.1,268,331.9,270.2,331.9z"/>
	<path style="fill:#4CDBC4;" d="M287.3,310.6c2.2,0,3.9-1.7,3.9-3.9v-6c0-2.2-1.8-3.9-3.9-3.9c-2.2,0-3.9,1.7-3.9,3.9v6
		C283.4,308.8,285.1,310.6,287.3,310.6z"/>
	<path style="fill:#4CDBC4;" d="M287.3,331.9c2.2,0,3.9-1.7,3.9-3.9v-6c0-2.2-1.8-3.9-3.9-3.9c-2.2,0-3.9,1.7-3.9,3.9v6
		C283.4,330.1,285.1,331.9,287.3,331.9z"/>
</g>
<polygon style="fill:#FF7058;" points="286.1,196.5 269.8,196.5 269.8,157.4 235.2,157.4 235.2,196.5 218.9,196.5 252.5,238 "/>
<g>
</g>
<g>
</g>
<g>
</g>
<g>
</g>
<g>
</g>
<g>
</g>
<g>
</g>
<g>
</g>
<g>
</g>
<g>
</g>
<g>
</g>
<g>
</g>
<g>
</g>
<g>
</g>
<g>
</g>
</svg>
