<?xml version="1.0" encoding="iso-8859-1"?>
<!-- Generator: Adobe Illustrator 19.0.0, SVG Export Plug-In . SVG Version: 6.00 Build 0)  -->
<svg version="1.1" id="Layer_1" xmlns="http://www.w3.org/2000/svg" xmlns:xlink="http://www.w3.org/1999/xlink" x="0px" y="0px"
	 viewBox="0 0 505 505" style="enable-background:new 0 0 505 505;" xml:space="preserve">
<circle style="fill:#324A5E;" cx="252.5" cy="252.5" r="252.5"/>
<path style="fill:#E6E9EE;" d="M415.3,381.6H89.7c-1,0-1.8-0.8-1.8-1.8V125.2c0-1,0.8-1.8,1.8-1.8h325.6c1,0,1.8,0.8,1.8,1.8v254.5
	C417.1,380.8,416.3,381.6,415.3,381.6z"/>
<rect x="102.8" y="171.6" style="fill:#FFFFFF;" width="299.4" height="195"/>
<circle style="fill:#FF7058;" cx="381.1" cy="146.8" r="8.1"/>
<circle style="fill:#4CDBC4;" cx="353.6" cy="146.8" r="8.1"/>
<circle style="fill:#FFD05B;" cx="327.3" cy="146.8" r="8.1"/>
<rect x="263.7" y="243.2" style="fill:#84DBFF;" width="112" height="49.8"/>
<g>
	<rect x="263.7" y="303.2" style="fill:#E6E9EE;" width="112" height="8.1"/>
	<rect x="263.7" y="319.5" style="fill:#E6E9EE;" width="112" height="8.1"/>
	<rect x="263.7" y="335.7" style="fill:#E6E9EE;" width="35.9" height="8.1"/>
</g>
<path style="fill:#4CDBC4;" d="M264.8,190.8v4.5c0,0.5-0.4,0.9-0.9,0.9h-20.1c-0.5,0-0.9-0.4-0.9-0.9v-0.1h-1
	c-0.1,0.1-0.3,0.2-0.4,0.3l-23.3,75.9l6.7,14.4c0.3,0.7,0.2,1.4-0.1,2c-0.4,0.6-1,1-1.8,1h-11.8c-1,5.1-5.5,9-10.9,9
	s-9.9-3.9-10.9-9h-14.2c-1,5.1-5.5,9-10.9,9s-9.9-3.9-10.9-9h-4.2c-1.2,0-2.1-0.9-2.1-2.1s1-2.1,2.1-2.1h4.3c1-5.1,5.5-9,10.9-9
	s9.9,3.8,10.9,9h14.3c1-5.1,5.5-9,10.9-9s9.9,3.8,10.9,9h8.5l-5.4-11.6h-70.8l-5.2-17.3l-2.2-7.2l-10.4-34.7c-0.2-0.7,0.3-1.3,1-1.3
	h105.3l6.3-20.7c0.1-0.4,0.5-0.7,1-0.7h3.8V191c0-0.5,0.4-0.9,0.9-0.9h20.1C264.4,189.9,264.8,190.3,264.8,190.8z"/>
<g>
</g>
<g>
</g>
<g>
</g>
<g>
</g>
<g>
</g>
<g>
</g>
<g>
</g>
<g>
</g>
<g>
</g>
<g>
</g>
<g>
</g>
<g>
</g>
<g>
</g>
<g>
</g>
<g>
</g>
</svg>
