<?xml version="1.0" encoding="iso-8859-1"?>
<!-- Generator: Adobe Illustrator 19.0.0, SVG Export Plug-In . SVG Version: 6.00 Build 0)  -->
<svg version="1.1" id="Layer_1" xmlns="http://www.w3.org/2000/svg" xmlns:xlink="http://www.w3.org/1999/xlink" x="0px" y="0px"
	 viewBox="0 0 505 505" style="enable-background:new 0 0 505 505;" xml:space="preserve">
<circle style="fill:#FFD05B;" cx="252.5" cy="252.5" r="252.5"/>
<path style="fill:#F9B54C;" d="M61.1,417.1c46.3,53.8,114.8,87.9,191.4,87.9c76.5,0,145.1-34.1,191.4-87.9H61.1z"/>
<rect x="186.6" y="344.3" style="fill:#324A5E;" width="131.8" height="44.8"/>
<g>
	<rect x="186.6" y="344.3" style="fill:#2B3B4E;" width="131.8" height="23"/>
	<path style="fill:#2B3B4E;" d="M337.6,388.5H169.2c-0.5,0-1,0.4-1,1V416c0,0.5,0.4,1,1,1h168.4c0.5,0,1-0.4,1-1v-26.5
		C338.6,389,338.1,388.5,337.6,388.5z"/>
</g>
<path style="fill:#FFFFFF;" d="M426,322.2V121c0-6-4.9-10.9-10.9-10.9H89.8c-6,0-10.9,4.9-10.9,10.9v201.3H426V322.2z"/>
<path style="fill:#324A5E;" d="M79,315.1V341c0,6,4.9,10.8,10.9,10.8h325.4c6,0,10.9-4.9,10.9-10.8v-25.9H79z"/>
<rect x="100.1" y="131.3" style="fill:#54C0EB;" width="304.8" height="163"/>
<path style="fill:#FFFFFF;" d="M278.3,210.4H135.7c-0.7,0-1.2-0.5-1.2-1.2v-49.3c0-0.7,0.5-1.2,1.2-1.2h142.6c0.7,0,1.2,0.5,1.2,1.2
	v49.3C279.4,209.9,278.9,210.4,278.3,210.4z"/>
<g>
	<path style="fill:#FF7058;" d="M162.5,200.6h-14.1v-32.3H161c2.2,0,4.1,0.3,5.7,0.8c1.6,0.5,2.8,1.2,3.6,2.1
		c1.4,1.7,2.2,3.5,2.2,5.6c0,2.5-0.8,4.4-2.4,5.6c-0.6,0.4-0.9,0.7-1.2,0.8c-0.2,0.1-0.6,0.3-1.2,0.5c2,0.4,3.6,1.3,4.8,2.7
		s1.8,3.1,1.8,5.1c0,2.2-0.8,4.2-2.3,6C170.1,199.6,167,200.6,162.5,200.6z M155.6,181.4h3.4c2,0,3.5-0.2,4.5-0.6
		c1-0.4,1.5-1.4,1.5-2.8s-0.4-2.4-1.3-2.8c-0.9-0.5-2.4-0.7-4.5-0.7h-3.5v6.9H155.6z M155.6,194.5h4.9c2.1,0,3.6-0.3,4.6-0.8
		s1.5-1.5,1.5-3s-0.5-2.5-1.6-3s-2.8-0.7-5.2-0.7h-4.2V194.5z"/>
	<path style="fill:#FF7058;" d="M188.8,192.3c1.2,1.5,2.8,2.2,4.9,2.2c2,0,3.6-0.7,4.8-2.2s1.8-3.5,1.8-6.1v-17.8h7.2v18.1
		c0,4.7-1.3,8.3-3.9,10.8c-2.6,2.5-5.9,3.8-9.9,3.8s-7.4-1.3-10-3.8s-3.9-6.1-3.9-10.8v-18.1h7.2v17.8
		C187,188.7,187.6,190.8,188.8,192.3z"/>
	<path style="fill:#FF7058;" d="M228.8,200.6h-7.2v-12.8l-11.2-19.5h7.8l7,12l7-12h7.8l-11.2,19.5L228.8,200.6L228.8,200.6z"/>
</g>
<path style="fill:#FFFFFF;" d="M341.9,210.4h-42.8c-1.4,0-2.5,1.1-2.5,2.5v42.8c0,2.3,2.7,3.4,4.3,1.8l11-11l21.2,21.2
	c1,1,2.6,1,3.6,0l17.2-17.2c1-1,1-2.6,0-3.6l-21.2-21.2l11-11C345.3,213.2,344.2,210.4,341.9,210.4z"/>
<g>
</g>
<g>
</g>
<g>
</g>
<g>
</g>
<g>
</g>
<g>
</g>
<g>
</g>
<g>
</g>
<g>
</g>
<g>
</g>
<g>
</g>
<g>
</g>
<g>
</g>
<g>
</g>
<g>
</g>
</svg>
