<?xml version="1.0" encoding="iso-8859-1"?>
<!-- Generator: Adobe Illustrator 19.0.0, SVG Export Plug-In . SVG Version: 6.00 Build 0)  -->
<svg version="1.1" id="Layer_1" xmlns="http://www.w3.org/2000/svg" xmlns:xlink="http://www.w3.org/1999/xlink" x="0px" y="0px"
	 viewBox="0 0 505 505" style="enable-background:new 0 0 505 505;" xml:space="preserve">
<circle style="fill:#90DFAA;" cx="252.5" cy="252.5" r="252.5"/>
<path style="fill:#324A5E;" d="M369.4,224.2c-2.4,0-4.8-0.9-6.7-2.8L252.5,111.2L142.3,221.4c-3.7,3.7-9.7,3.7-13.4,0
	s-3.7-9.7,0-13.4L245.8,91.1c1.8-1.8,4.2-2.8,6.7-2.8l0,0c2.5,0,4.9,1,6.7,2.8L376.1,208c3.7,3.7,3.7,9.7,0,13.4
	C374.3,223.3,371.8,224.2,369.4,224.2z"/>
<path style="fill:#FFFFFF;" d="M399.7,397.3H105.3c-1.3,0-2.3-1-2.3-2.3V193.2c0-1.3,1-2.3,2.3-2.3h294.4c1.3,0,2.3,1,2.3,2.3V395
	C402,396.3,401,397.3,399.7,397.3z"/>
<rect x="121.9" y="209.8" style="fill:#E6E9EE;" width="261.1" height="168.6"/>
<circle style="fill:#FFFFFF;" cx="252.5" cy="104" r="31.1"/>
<circle style="fill:#FF7058;" cx="252.5" cy="104" r="18"/>
<g>
	<path style="fill:#324A5E;" d="M191.4,313.9c-5.4,5.3-12.2,8-20.1,8c-8,0-14.7-2.7-20.1-8c-5.4-5.3-8.2-11.9-8.2-19.8
		s2.7-14.5,8.2-19.8c5.4-5.3,12.1-8,20.1-8s14.7,2.7,20.1,8c5.4,5.3,8.2,11.9,8.2,19.8C199.5,302,196.8,308.6,191.4,313.9z
		 M187.3,294.1c0-4.8-1.5-8.9-4.6-12.3s-6.9-5.1-11.4-5.1s-8.3,1.7-11.4,5.1c-3.1,3.4-4.6,7.5-4.6,12.3s1.5,8.9,4.6,12.3
		s6.9,5,11.4,5s8.3-1.7,11.4-5C185.8,303,187.3,298.9,187.3,294.1z"/>
	<path style="fill:#324A5E;" d="M246.8,272.3c3.8,3.2,5.7,8.1,5.7,14.8c0,6.7-1.9,11.5-5.8,14.6c-3.9,3.1-9.8,4.6-17.8,4.6h-7.2v15
		h-12v-53.8h19C237,267.5,243.1,269.1,246.8,272.3z M238,293.5c1.4-1.6,2.2-4,2.2-7.1s-0.9-5.3-2.8-6.6c-1.9-1.3-4.8-2-8.7-2h-6.9
		v18.1h8.1C233.9,295.9,236.6,295.1,238,293.5z"/>
	<path style="fill:#324A5E;" d="M300.7,267.5v10.7h-26.8v11.1H298v10.2h-24.1v11.2h27.7v10.6h-39.7v-53.8H300.7z"/>
	<path style="fill:#324A5E;" d="M350,267.5h12v53.9h-12l-25.7-33.8v33.8h-12v-53.9h11.3l26.4,34.7L350,267.5L350,267.5z"/>
</g>
<g>
</g>
<g>
</g>
<g>
</g>
<g>
</g>
<g>
</g>
<g>
</g>
<g>
</g>
<g>
</g>
<g>
</g>
<g>
</g>
<g>
</g>
<g>
</g>
<g>
</g>
<g>
</g>
<g>
</g>
</svg>
