<?xml version="1.0" encoding="iso-8859-1"?>
<!-- Generator: Adobe Illustrator 19.0.0, SVG Export Plug-In . SVG Version: 6.00 Build 0)  -->
<svg version="1.1" id="Layer_1" xmlns="http://www.w3.org/2000/svg" xmlns:xlink="http://www.w3.org/1999/xlink" x="0px" y="0px"
	 viewBox="0 0 505 505" style="enable-background:new 0 0 505 505;" xml:space="preserve">
<circle style="fill:#84DBFF;" cx="252.5" cy="252.5" r="252.5"/>
<path style="fill:#54C0EB;" d="M49.3,402.4C95.3,464.7,169.2,505,252.5,505s157.2-40.4,203.2-102.6H49.3z"/>
<g>
	<rect x="92.1" y="155.3" style="fill:#E6E9EE;" width="312.9" height="247.1"/>
	<rect x="92.1" y="155.2" style="fill:#E6E9EE;" width="312.9" height="247.1"/>
</g>
<polygon style="fill:#FFFFFF;" points="405,155.3 92.1,155.3 139.2,132.2 358,132.2 "/>
<polygon style="fill:#FFD05B;" points="276.6,155.3 220.6,155.3 225.7,132.2 271.4,132.2 "/>
<rect x="246.7" y="132.2" style="fill:#F9B54C;" width="3.8" height="23"/>
<path style="fill:#CED5E0;" d="M298.7,244.3H198.4c-9,0-16.3-7.3-16.3-16.3l0,0c0-9,7.3-16.3,16.3-16.3h100.3
	c9,0,16.3,7.3,16.3,16.3l0,0C315,237,307.7,244.3,298.7,244.3z"/>
<rect x="220.6" y="155.3" style="fill:#F9B54C;" width="56" height="18.4"/>
<rect x="246.7" y="155.3" style="fill:#F2A949;" width="3.8" height="18.4"/>
<path style="fill:#CED5E0;" d="M298.4,250.5l-6.5,6.5c-9.5,9.4-9.5,24.8,0,34.2l8.9,9v12.6c0,13.4,10.9,24.2,24.2,24.2h12.6l9,8.9
	c9.4,9.5,24.8,9.5,34.2,0l8.9-8.9h12.8c0.9,0,1.7,0,2.6-0.1v-86.4H298.4z"/>
<path style="fill:#FF7058;" d="M445.6,239.7l-9.5-9.5v-13.5c0-14.3-11.6-25.9-25.9-25.9h-13.5l-9.5-9.5c-10.1-10.1-26.5-10.1-36.6,0
	l-9.5,9.5h-13.6c-14.3,0-25.9,11.6-25.9,25.9v13.5l-9.5,9.5c-10.1,10.1-10.1,26.5,0,36.6l9.5,9.5v13.5c0,14.3,11.6,25.9,25.9,25.9
	H341l9.5,9.5c10.1,10.1,26.5,10.1,36.6,0l9.5-9.5h13.5c14.3,0,25.9-11.6,25.9-25.9v-13.5l9.5-9.5
	C455.7,266.2,455.7,249.8,445.6,239.7z"/>
<g>
	<path style="fill:#FFFFFF;" d="M335.4,268.2l5.1-5.1l23,23l-5.1,5.1l-25.3-3.4l14.4,14.4l-5.1,5.1l-23-23l4.8-4.8l26,3.5
		L335.4,268.2z"/>
	<path style="fill:#FFFFFF;" d="M362.7,240.9l4.6,4.6l-11.4,11.4l4.7,4.7l10.3-10.3l4.4,4.4L365,266l4.8,4.8l11.8-11.8l4.5,4.5
		l-16.9,16.9l-23-23L362.7,240.9z"/>
	<path style="fill:#FFFFFF;" d="M388,242l-9.1-17.3l5.4-5.4l17.2,9.2l-8.6-17.8l5.5-5.5l14.9,31l-3.8,3.8l-21-10.9l11,20.9l-3.8,3.8
		l-31-14.9l5.5-5.5L388,242z"/>
</g>
<g>
</g>
<g>
</g>
<g>
</g>
<g>
</g>
<g>
</g>
<g>
</g>
<g>
</g>
<g>
</g>
<g>
</g>
<g>
</g>
<g>
</g>
<g>
</g>
<g>
</g>
<g>
</g>
<g>
</g>
</svg>
