<?xml version="1.0" encoding="iso-8859-1"?>
<!-- Generator: Adobe Illustrator 19.0.0, SVG Export Plug-In . SVG Version: 6.00 Build 0)  -->
<svg version="1.1" id="Layer_1" xmlns="http://www.w3.org/2000/svg" xmlns:xlink="http://www.w3.org/1999/xlink" x="0px" y="0px"
	 viewBox="0 0 505 505" style="enable-background:new 0 0 505 505;" xml:space="preserve">
<circle style="fill:#FFD05B;" cx="252.5" cy="252.5" r="252.5"/>
<path style="fill:#FFFFFF;" d="M393.9,383H111.1c-1.6,0-2.9-1.3-2.9-2.9V124.9c0-1.6,1.3-2.9,2.9-2.9h282.8c1.6,0,2.9,1.3,2.9,2.9
	v255.3C396.8,381.7,395.5,383,393.9,383z"/>
<rect x="209.5" y="122" style="fill:#FF7058;" width="85.9" height="39.4"/>
<g>
	<path style="fill:#324A5E;" d="M297.6,324.7v30.2h-6.7v3h6.7l0,0h4.1l0,0h6.7v-3h-6.7v-30.2c10.9-1,19.6-9.7,20.5-20.7h-45.1
		C278,314.9,286.7,323.7,297.6,324.7z"/>
	<path style="fill:#324A5E;" d="M373.7,328.1c-0.9-11-9.8-19.8-20.8-20.7v-1.7c0-1-0.8-1.8-1.8-1.8s-1.8,0.8-1.8,1.8v1.7
		c-11.1,0.8-19.9,9.6-20.8,20.7h20.8v25.6c0,0.9-0.8,1.7-1.7,1.7c-0.9,0-1.7-0.8-1.7-1.7c0-1-0.8-1.8-1.8-1.8s-1.7,0.8-1.7,1.8
		c0,2.9,2.3,5.2,5.2,5.2c2.9,0,5.2-2.3,5.2-5.2v-25.6H373.7z"/>
</g>
<g>
</g>
<g>
</g>
<g>
</g>
<g>
</g>
<g>
</g>
<g>
</g>
<g>
</g>
<g>
</g>
<g>
</g>
<g>
</g>
<g>
</g>
<g>
</g>
<g>
</g>
<g>
</g>
<g>
</g>
</svg>
