<?xml version="1.0" encoding="iso-8859-1"?>
<!-- Generator: Adobe Illustrator 19.0.0, SVG Export Plug-In . SVG Version: 6.00 Build 0)  -->
<svg version="1.1" id="Layer_1" xmlns="http://www.w3.org/2000/svg" xmlns:xlink="http://www.w3.org/1999/xlink" x="0px" y="0px"
	 viewBox="0 0 505 505" style="enable-background:new 0 0 505 505;" xml:space="preserve">
<circle style="fill:#324A5E;" cx="252.5" cy="252.5" r="252.5"/>
<path style="fill:#FFFFFF;" d="M440.9,252.5L440.9,252.5c0-14.1-7.2-26.6-18.1-33.9c7.3-10.9,9.1-25.2,3.7-38.2
	s-16.8-21.8-29.7-24.4c2.5-12.9-1.2-26.8-11.2-36.7c-10-10-23.9-13.7-36.7-11.2c-2.6-12.9-11.3-24.3-24.4-29.7s-27.3-3.5-38.2,3.7
	C279,71.2,266.5,64,252.4,64s-26.6,7.2-33.9,18.1c-10.9-7.3-25.2-9.1-38.2-3.7s-21.8,16.8-24.4,29.7c-12.9-2.5-26.8,1.2-36.7,11.2
	l0,0c-10,10-13.7,23.9-11.2,36.7c-12.9,2.6-24.3,11.3-29.7,24.4c-5.4,13-3.5,27.3,3.7,38.2c-10.9,7.3-18.1,19.8-18.1,33.9l0,0
	c0,14.1,7.2,26.6,18.1,33.9c-7.3,10.9-9.1,25.2-3.7,38.2S95.1,346.4,108,349c-2.5,12.9,1.2,26.8,11.2,36.7
	c10,10,23.9,13.7,36.7,11.2c2.6,12.9,11.3,24.3,24.4,29.7c13,5.4,27.3,3.5,38.2-3.7c7.3,10.9,19.8,18.1,33.9,18.1
	c14.1,0,26.6-7.2,33.9-18.1c10.9,7.3,25.2,9.1,38.2,3.7s21.8-16.8,24.4-29.7c12.9,2.5,26.8-1.2,36.7-11.2c10-10,13.7-23.9,11.2-36.7
	c12.9-2.6,24.3-11.3,29.7-24.4l0,0c5.4-13,3.5-27.3-3.7-38.2C433.7,279.1,440.9,266.6,440.9,252.5z"/>
<path style="fill:#FF7058;" d="M394.7,252.5c0,78.4-63.8,142.2-142.2,142.2s-142.2-63.8-142.2-142.2s63.8-142.2,142.2-142.2
	S394.7,174.1,394.7,252.5z"/>
<path style="fill:#FFFFFF;" d="M245.5,187.7c0,5.6-2,10.2-5.9,14.1c-4,3.8-8.9,5.7-14.9,5.7s-11-1.9-14.9-5.8
	c-4-3.9-5.9-8.6-5.9-14.1s2-10.2,5.9-14.1c4-3.9,8.9-5.8,14.9-5.8s10.9,1.9,14.9,5.8C243.5,177.4,245.5,182.1,245.5,187.7z
	 M299.8,165.4L229,264.1h-24.3l70.9-98.7L299.8,165.4L299.8,165.4z M220.4,192.7c1.1,1.3,2.5,1.9,4.2,1.9s3.1-0.6,4.2-1.9
	c1.1-1.3,1.7-2.9,1.7-5s-0.6-3.8-1.7-5.2c-1.1-1.4-2.5-2-4.2-2c-1.6,0-3,0.7-4.2,2c-1.1,1.4-1.7,3.1-1.7,5.2
	C218.8,189.8,219.3,191.4,220.4,192.7z M301.2,245.5c0,5.6-2,10.2-5.9,14.1c-4,3.8-8.9,5.7-14.9,5.7s-11-1.9-14.9-5.8
	c-4-3.9-5.9-8.5-5.9-14s2-10.2,5.9-14.1c4-3.9,8.9-5.8,14.9-5.8s10.9,1.9,14.9,5.8C299.2,235.2,301.2,239.9,301.2,245.5z
	 M276.1,250.5c1.1,1.3,2.5,1.9,4.2,1.9s3.1-0.6,4.2-1.9c1.1-1.3,1.7-2.9,1.7-5s-0.6-3.8-1.7-5.2s-2.5-2-4.2-2c-1.6,0-3,0.7-4.2,2
	c-1.1,1.4-1.7,3.1-1.7,5.2C274.5,247.6,275,249.2,276.1,250.5z"/>
<g>
	<polygon style="fill:#FFD05B;" points="252.5,314 260,329.1 276.7,331.5 264.6,343.3 267.4,360 252.5,352.1 237.6,360 240.4,343.3 
		228.3,331.5 245,329.1 	"/>
	<polygon style="fill:#FFD05B;" points="305,291 312.5,306.1 329.2,308.6 317.1,320.3 320,337 305,329.1 290.1,337 292.9,320.3 
		280.8,308.6 297.5,306.1 	"/>
	<polygon style="fill:#FFD05B;" points="200,291 207.5,306.1 224.2,308.6 212.1,320.3 214.9,337 200,329.1 185,337 187.9,320.3 
		175.8,308.6 192.5,306.1 	"/>
</g>
<g>
</g>
<g>
</g>
<g>
</g>
<g>
</g>
<g>
</g>
<g>
</g>
<g>
</g>
<g>
</g>
<g>
</g>
<g>
</g>
<g>
</g>
<g>
</g>
<g>
</g>
<g>
</g>
<g>
</g>
</svg>
