<?xml version="1.0" encoding="iso-8859-1"?>
<!-- Generator: Adobe Illustrator 19.0.0, SVG Export Plug-In . SVG Version: 6.00 Build 0)  -->
<svg version="1.1" id="Layer_1" xmlns="http://www.w3.org/2000/svg" xmlns:xlink="http://www.w3.org/1999/xlink" x="0px" y="0px"
	 viewBox="0 0 505 505" style="enable-background:new 0 0 505 505;" xml:space="preserve">
<circle style="fill:#90DFAA;" cx="252.5" cy="252.5" r="252.5"/>
<path style="fill:#FFFFFF;" d="M354.9,377.3c-24,19.7-53.9,32.7-86.6,35.8v27.4c40.2-3.3,76.9-19.3,105.9-43.9L354.9,377.3z
	 M413.1,268.3c-3.2,32.7-16.1,62.5-35.8,86.6l19.4,19.4c24.6-29.1,40.5-65.7,43.9-105.9h-27.5V268.3z M150.1,377.3l-19.3,19.4
	c29.1,24.6,65.7,40.5,105.9,43.9v-27.4C204,409.9,174.1,397,150.1,377.3z M64.5,268.3c3.3,40.2,19.3,76.9,43.9,105.9l19.3-19.4
	c-19.7-24-32.6-53.9-35.8-86.6H64.5V268.3z M268.3,64.5v27.4c32.7,3.2,62.5,16.1,86.6,35.8l19.4-19.4
	C345.2,83.8,308.5,67.8,268.3,64.5z M108.4,130.8c-24.6,29.1-40.6,65.7-43.9,105.9h27.4c3.2-32.7,16.1-62.5,35.8-86.6L108.4,130.8z
	 M130.8,108.4l19.3,19.3c24-19.7,53.9-32.7,86.6-35.8V64.5C196.5,67.8,159.9,83.8,130.8,108.4z M396.6,130.8l-19.4,19.3
	c19.7,24,32.7,53.9,35.8,86.6h27.5C437.2,196.5,421.2,159.9,396.6,130.8z"/>
<circle style="fill:#324A5E;" cx="252.5" cy="252.5" r="132.3"/>
<path style="fill:#FFFFFF;" d="M243.1,215.4c0,7.5-2.7,13.8-8,18.9c-5.3,5.1-12,7.7-20,7.7s-14.7-2.6-20-7.8s-8-11.5-8-18.9
	s2.7-13.7,8-18.9s12-7.8,20-7.8s14.7,2.6,20,7.8C240.4,201.6,243.1,207.9,243.1,215.4z M316,185.4l-95.1,132.7h-32.7l95.3-132.7H316
	z M209.4,222.1c1.5,1.7,3.3,2.6,5.6,2.6s4.2-0.8,5.7-2.6c1.5-1.7,2.3-4,2.3-6.7c0-2.8-0.8-5.1-2.3-6.9c-1.5-1.8-3.4-2.8-5.6-2.8
	c-2.2,0-4.1,0.9-5.6,2.8c-1.5,1.8-2.3,4.1-2.3,6.9C207.2,218.2,207.9,220.4,209.4,222.1z M317.9,293c0,7.5-2.7,13.8-8,18.9
	s-12,7.7-20,7.7s-14.7-2.6-20-7.8c-5.3-5.2-8-11.5-8-18.9s2.7-13.7,8-18.9c5.3-5.2,12-7.8,20-7.8s14.7,2.6,20,7.8
	C315.3,279.2,317.9,285.6,317.9,293z M284.2,299.8c1.5,1.7,3.3,2.6,5.6,2.6c2.3,0,4.2-0.8,5.7-2.6c1.5-1.7,2.3-4,2.3-6.7
	c0-2.8-0.8-5.1-2.3-6.9s-3.4-2.8-5.6-2.8s-4.1,0.9-5.6,2.8c-1.5,1.8-2.3,4.2-2.3,6.9C282,295.8,282.8,298.1,284.2,299.8z"/>
<g>
</g>
<g>
</g>
<g>
</g>
<g>
</g>
<g>
</g>
<g>
</g>
<g>
</g>
<g>
</g>
<g>
</g>
<g>
</g>
<g>
</g>
<g>
</g>
<g>
</g>
<g>
</g>
<g>
</g>
</svg>
