<?xml version="1.0" encoding="iso-8859-1"?>
<!-- Generator: Adobe Illustrator 19.0.0, SVG Export Plug-In . SVG Version: 6.00 Build 0)  -->
<svg version="1.1" id="Layer_1" xmlns="http://www.w3.org/2000/svg" xmlns:xlink="http://www.w3.org/1999/xlink" x="0px" y="0px"
	 viewBox="0 0 505 505" style="enable-background:new 0 0 505 505;" xml:space="preserve">
<circle style="fill:#FFD05B;" cx="252.5" cy="252.5" r="252.5"/>
<path style="fill:#FFFFFF;" d="M410.1,151.2h-71c-3.9,0-7.7-1.7-10.3-4.7l-28.1-58.7c-2.6-3-6.3-4.7-10.3-4.7h-76
	c-3.9,0-7.7,1.7-10.3,4.7L176,146.5c-2.6,3-6.3,4.7-10.3,4.7h-71c-7.5,0-13.5,6.1-13.5,13.5v198.8c0,7.5,6.1,13.5,13.5,13.5h315.2
	c7.5,0,13.5-6.1,13.5-13.5V164.7C423.6,157.2,417.6,151.2,410.1,151.2z"/>
<path style="fill:#E6E9EE;" d="M423.6,164.7v198.8c0,7.5-6,13.5-13.5,13.5H94.9c-7.5,0-13.5-6.1-13.5-13.5V164.7
	c0-7.5,6.1-13.5,13.5-13.5h71c3.9,0,7.7-1.7,10.3-4.7l28.1-58.7c2.6-3,6.3-4.7,10.3-4.7h75.9c3.9,0,7.7,1.7,10.3,4.7l28.1,58.7
	c2.6,3,6.3,4.7,10.3,4.7h71C417.6,151.2,423.6,157.2,423.6,164.7z"/>
<rect x="81.4" y="200.1" style="fill:#54C0EB;" width="342.3" height="132.4"/>
<circle style="fill:#324A5E;" cx="252.5" cy="263.9" r="86.3"/>
<circle style="fill:#4CDBC4;" cx="252.5" cy="263.9" r="67.6"/>
<circle style="fill:#2C9984;" cx="252.5" cy="263.9" r="41.5"/>
<path style="fill:#FFFFFF;" d="M287.7,98.7h-70.4c-1.1,0-2,0.9-2,2v38.6c0,1.1,0.9,2,2,2h70.4c1.1,0,2-0.9,2-2v-38.6
	C289.7,99.6,288.8,98.7,287.7,98.7z"/>
<circle style="fill:#FF7058;" cx="382.5" cy="179.4" r="7"/>
<g>
	<rect x="362.2" y="139.5" style="fill:#4CDBC4;" width="25.6" height="11.6"/>
	<rect x="117.2" y="139.5" style="fill:#4CDBC4;" width="25.6" height="11.6"/>
</g>
<g>
	<circle style="fill:#FFFFFF;" cx="224.2" cy="236.7" r="12.2"/>
	<circle style="fill:#FFFFFF;" cx="241.9" cy="254.4" r="6.6"/>
</g>
<g>
</g>
<g>
</g>
<g>
</g>
<g>
</g>
<g>
</g>
<g>
</g>
<g>
</g>
<g>
</g>
<g>
</g>
<g>
</g>
<g>
</g>
<g>
</g>
<g>
</g>
<g>
</g>
<g>
</g>
</svg>
