<?xml version="1.0" encoding="iso-8859-1"?>
<!-- Generator: Adobe Illustrator 19.0.0, SVG Export Plug-In . SVG Version: 6.00 Build 0)  -->
<svg version="1.1" id="Layer_1" xmlns="http://www.w3.org/2000/svg" xmlns:xlink="http://www.w3.org/1999/xlink" x="0px" y="0px"
	 viewBox="0 0 505 505" style="enable-background:new 0 0 505 505;" xml:space="preserve">
<circle style="fill:#90DFAA;" cx="252.5" cy="252.5" r="252.5"/>
<rect x="102.8" y="117.1" style="fill:#324A5E;" width="58.3" height="26.4"/>
<path style="fill:#FFFFFF;" d="M432.7,368.7H72.3c-1.5,0-2.6-1.2-2.6-2.6V139c0-1.5,1.2-2.6,2.6-2.6h360.3c1.5,0,2.6,1.2,2.6,2.6
	v227.1C435.3,367.5,434.1,368.7,432.7,368.7z"/>
<rect x="69.7" y="196.8" style="fill:#FF7058;" width="365.6" height="133.5"/>
<circle style="fill:#324A5E;" cx="252.5" cy="252.5" r="91.4"/>
<circle style="fill:#84DBFF;" cx="252.5" cy="252.5" r="74.9"/>
<circle style="fill:#54C0EB;" cx="252.5" cy="252.5" r="52.9"/>
<g>
	<circle style="fill:#FFFFFF;" cx="226.5" cy="223.3" r="19.3"/>
	<circle style="fill:#FFFFFF;" cx="253.4" cy="250.2" r="10.1"/>
</g>
<rect x="343.9" y="152.3" style="fill:#E6E9EE;" width="71.3" height="28.8"/>
<g>
</g>
<g>
</g>
<g>
</g>
<g>
</g>
<g>
</g>
<g>
</g>
<g>
</g>
<g>
</g>
<g>
</g>
<g>
</g>
<g>
</g>
<g>
</g>
<g>
</g>
<g>
</g>
<g>
</g>
</svg>
