<?xml version="1.0" encoding="iso-8859-1"?>
<!-- Generator: Adobe Illustrator 19.0.0, SVG Export Plug-In . SVG Version: 6.00 Build 0)  -->
<svg version="1.1" id="Layer_1" xmlns="http://www.w3.org/2000/svg" xmlns:xlink="http://www.w3.org/1999/xlink" x="0px" y="0px"
	 viewBox="0 0 505 505" style="enable-background:new 0 0 505 505;" xml:space="preserve">
<circle style="fill:#84DBFF;" cx="252.5" cy="252.5" r="252.5"/>
<path style="fill:#FFFFFF;" d="M302.7,384.6l-99.9-97.7c-1.7-1.6-1.7-4.3-0.1-6l141.4-144.5c1.6-1.7,4.3-1.7,6-0.1L450,234
	c1.7,1.6,1.7,4.3,0.1,6L308.7,384.6C307.1,386.2,304.4,386.3,302.7,384.6z"/>
<rect x="243.975" y="266.597" transform="matrix(-0.6994 0.7147 -0.7147 -0.6994 795.7145 231.044)" style="fill:#2B3B4E;" width="210.595" height="32.499"/>
<path style="fill:#324A5E;" d="M295.1,395H100.6c-1.8,0-3.2-1.4-3.2-3.2V113.2c0-1.8,1.4-3.2,3.2-3.2h194.5c1.8,0,3.2,1.4,3.2,3.2
	v278.7C298.3,393.6,296.8,395,295.1,395z"/>
<path style="fill:#FFFFFF;" d="M277.6,209.3H118c-0.7,0-1.3-0.6-1.3-1.3v-70.9c0-0.7,0.6-1.3,1.3-1.3h159.6c0.7,0,1.3,0.6,1.3,1.3
	V208C278.9,208.8,278.4,209.3,277.6,209.3z"/>
<g>
	<path style="fill:#CED5E0;" d="M149.3,253.3h-20.2c-6.8,0-12.3-5.5-12.3-12.3l0,0c0-6.8,5.5-12.3,12.3-12.3h20.2
		c6.8,0,12.3,5.5,12.3,12.3l0,0C161.6,247.8,156,253.3,149.3,253.3z"/>
	<path style="fill:#CED5E0;" d="M207.9,253.3h-20.2c-6.8,0-12.3-5.5-12.3-12.3l0,0c0-6.8,5.5-12.3,12.3-12.3h20.2
		c6.8,0,12.3,5.5,12.3,12.3l0,0C220.2,247.8,214.7,253.3,207.9,253.3z"/>
	<path style="fill:#CED5E0;" d="M266.6,253.3h-20.2c-6.8,0-12.3-5.5-12.3-12.3l0,0c0-6.8,5.5-12.3,12.3-12.3h20.2
		c6.8,0,12.3,5.5,12.3,12.3l0,0C278.9,247.8,273.4,253.3,266.6,253.3z"/>
	<path style="fill:#CED5E0;" d="M149.3,293.1h-20.2c-6.8,0-12.3-5.5-12.3-12.3l0,0c0-6.8,5.5-12.3,12.3-12.3h20.2
		c6.8,0,12.3,5.5,12.3,12.3l0,0C161.6,287.6,156,293.1,149.3,293.1z"/>
	<path style="fill:#CED5E0;" d="M207.9,293.1h-20.2c-6.8,0-12.3-5.5-12.3-12.3l0,0c0-6.8,5.5-12.3,12.3-12.3h20.2
		c6.8,0,12.3,5.5,12.3,12.3l0,0C220.2,287.6,214.7,293.1,207.9,293.1z"/>
	<path style="fill:#CED5E0;" d="M266.6,293.1h-20.2c-6.8,0-12.3-5.5-12.3-12.3l0,0c0-6.8,5.5-12.3,12.3-12.3h20.2
		c6.8,0,12.3,5.5,12.3,12.3l0,0C278.9,287.6,273.4,293.1,266.6,293.1z"/>
	<path style="fill:#CED5E0;" d="M149.3,332.9h-20.2c-6.8,0-12.3-5.5-12.3-12.3l0,0c0-6.8,5.5-12.3,12.3-12.3h20.2
		c6.8,0,12.3,5.5,12.3,12.3l0,0C161.6,327.4,156,332.9,149.3,332.9z"/>
	<path style="fill:#CED5E0;" d="M207.9,332.9h-20.2c-6.8,0-12.3-5.5-12.3-12.3l0,0c0-6.8,5.5-12.3,12.3-12.3h20.2
		c6.8,0,12.3,5.5,12.3,12.3l0,0C220.2,327.4,214.7,332.9,207.9,332.9z"/>
	<path style="fill:#CED5E0;" d="M266.6,332.9h-20.2c-6.8,0-12.3-5.5-12.3-12.3l0,0c0-6.8,5.5-12.3,12.3-12.3h20.2
		c6.8,0,12.3,5.5,12.3,12.3l0,0C278.9,327.4,273.4,332.9,266.6,332.9z"/>
</g>
<path style="fill:#FF7058;" d="M149.3,372.7h-20.2c-6.8,0-12.3-5.5-12.3-12.3l0,0c0-6.8,5.5-12.3,12.3-12.3h20.2
	c6.8,0,12.3,5.5,12.3,12.3l0,0C161.6,367.2,156,372.7,149.3,372.7z"/>
<path style="fill:#84DBFF;" d="M207.9,372.7h-20.2c-6.8,0-12.3-5.5-12.3-12.3l0,0c0-6.8,5.5-12.3,12.3-12.3h20.2
	c6.8,0,12.3,5.5,12.3,12.3l0,0C220.2,367.2,214.7,372.7,207.9,372.7z"/>
<path style="fill:#FFD05B;" d="M266.6,372.7h-20.2c-6.8,0-12.3-5.5-12.3-12.3l0,0c0-6.8,5.5-12.3,12.3-12.3h20.2
	c6.8,0,12.3,5.5,12.3,12.3l0,0C278.9,367.2,273.4,372.7,266.6,372.7z"/>
<g>
	<path style="fill:#4CDBC4;" d="M161.2,184.8c-3.3,3.3-7.5,4.9-12.4,4.9s-9-1.6-12.4-4.9c-3.3-3.3-5-7.3-5-12.2s1.7-8.9,5-12.2
		s7.5-4.9,12.4-4.9s9,1.6,12.4,4.9c3.3,3.3,5,7.3,5,12.2C166.3,177.5,164.6,181.5,161.2,184.8z M158.7,172.6c0-3-0.9-5.5-2.8-7.6
		c-1.9-2.1-4.2-3.1-7-3.1s-5.1,1-7,3.1s-2.8,4.6-2.8,7.6s0.9,5.5,2.8,7.5c1.9,2.1,4.2,3.1,7,3.1s5.1-1,7-3.1
		C157.8,178.1,158.7,175.6,158.7,172.6z"/>
	<path style="fill:#4CDBC4;" d="M172.5,156.3h7.4v13.6l12.5-13.6h9.1l-13.2,14.6c1.1,1.6,3.2,4.5,6.3,8.8s5.3,7.5,6.9,9.6h-8.6
		l-9.7-13.1l-3.3,3.7v9.4h-7.4V156.3z"/>
</g>
<g>
</g>
<g>
</g>
<g>
</g>
<g>
</g>
<g>
</g>
<g>
</g>
<g>
</g>
<g>
</g>
<g>
</g>
<g>
</g>
<g>
</g>
<g>
</g>
<g>
</g>
<g>
</g>
<g>
</g>
</svg>
