<?xml version="1.0" encoding="iso-8859-1"?>
<!-- Generator: Adobe Illustrator 19.0.0, SVG Export Plug-In . SVG Version: 6.00 Build 0)  -->
<svg version="1.1" id="Layer_1" xmlns="http://www.w3.org/2000/svg" xmlns:xlink="http://www.w3.org/1999/xlink" x="0px" y="0px"
	 viewBox="0 0 505 505" style="enable-background:new 0 0 505 505;" xml:space="preserve">
<circle style="fill:#FFD05B;" cx="252.5" cy="252.5" r="252.5"/>
<path style="fill:#324A5E;" d="M354,427.7H151c-2.1,0-3.8-1.7-3.8-3.8V154c0-2.1,1.7-3.8,3.8-3.8h202.9c2.1,0,3.8,1.7,3.8,3.8v269.9
	C357.7,426,356.1,427.7,354,427.7z"/>
<path style="fill:#84DBFF;" d="M299.6,258.9H169.9c-0.8,0-1.4-0.6-1.4-1.4v-46c0-0.8,0.6-1.4,1.4-1.4h129.7c0.8,0,1.4,0.6,1.4,1.4
	v46C301,258.3,300.4,258.9,299.6,258.9z"/>
<g>
	<path style="fill:#ACB3BA;" d="M197.6,310.9h-27.3c-1,0-1.8-0.8-1.8-1.8v-27.3c0-1,0.8-1.8,1.8-1.8h27.3c1,0,1.8,0.8,1.8,1.8v27.3
		C199.4,310.1,198.6,310.9,197.6,310.9z"/>
	<path style="fill:#ACB3BA;" d="M248.4,310.9h-27.3c-1,0-1.8-0.8-1.8-1.8v-27.3c0-1,0.8-1.8,1.8-1.8h27.3c1,0,1.8,0.8,1.8,1.8v27.3
		C250.2,310.1,249.4,310.9,248.4,310.9z"/>
	<path style="fill:#ACB3BA;" d="M299.2,310.9h-27.3c-1,0-1.8-0.8-1.8-1.8v-27.3c0-1,0.8-1.8,1.8-1.8h27.3c1,0,1.8,0.8,1.8,1.8v27.3
		C301,310.1,300.2,310.9,299.2,310.9z"/>
	<path style="fill:#ACB3BA;" d="M197.6,357.7h-27.3c-1,0-1.8-0.8-1.8-1.8v-27.3c0-1,0.8-1.8,1.8-1.8h27.3c1,0,1.8,0.8,1.8,1.8v27.3
		C199.4,356.9,198.6,357.7,197.6,357.7z"/>
	<path style="fill:#ACB3BA;" d="M248.4,357.7h-27.3c-1,0-1.8-0.8-1.8-1.8v-27.3c0-1,0.8-1.8,1.8-1.8h27.3c1,0,1.8,0.8,1.8,1.8v27.3
		C250.2,356.9,249.4,357.7,248.4,357.7z"/>
	<path style="fill:#ACB3BA;" d="M299.2,357.7h-27.3c-1,0-1.8-0.8-1.8-1.8v-27.3c0-1,0.8-1.8,1.8-1.8h27.3c1,0,1.8,0.8,1.8,1.8v27.3
		C301,356.9,300.2,357.7,299.2,357.7z"/>
	<path style="fill:#ACB3BA;" d="M197.6,404.4h-27.3c-1,0-1.8-0.8-1.8-1.8v-27.3c0-1,0.8-1.8,1.8-1.8h27.3c1,0,1.8,0.8,1.8,1.8v27.3
		C199.4,403.6,198.6,404.4,197.6,404.4z"/>
	<path style="fill:#ACB3BA;" d="M248.4,404.4h-27.3c-1,0-1.8-0.8-1.8-1.8v-27.3c0-1,0.8-1.8,1.8-1.8h27.3c1,0,1.8,0.8,1.8,1.8v27.3
		C250.2,403.6,249.4,404.4,248.4,404.4z"/>
	<path style="fill:#ACB3BA;" d="M299.2,404.4h-27.3c-1,0-1.8-0.8-1.8-1.8v-27.3c0-1,0.8-1.8,1.8-1.8h27.3c1,0,1.8,0.8,1.8,1.8v27.3
		C301,403.6,300.2,404.4,299.2,404.4z"/>
</g>
<rect x="175.2" y="173.1" style="fill:#2B3B4E;" width="119" height="10.6"/>
<rect x="183.4" y="77.3" style="fill:#E6E9EE;" width="102.8" height="101"/>
<g>
	<rect x="194.9" y="93" style="fill:#CED5E0;" width="79.6" height="5.7"/>
	<rect x="194.9" y="110.9" style="fill:#CED5E0;" width="79.6" height="5.7"/>
	<rect x="194.9" y="128.9" style="fill:#CED5E0;" width="79.6" height="5.7"/>
	<rect x="194.9" y="146.9" style="fill:#CED5E0;" width="41.7" height="5.7"/>
</g>
<rect x="328.4" y="150.3" style="fill:#2B3B4E;" width="7" height="277.4"/>
<g>
</g>
<g>
</g>
<g>
</g>
<g>
</g>
<g>
</g>
<g>
</g>
<g>
</g>
<g>
</g>
<g>
</g>
<g>
</g>
<g>
</g>
<g>
</g>
<g>
</g>
<g>
</g>
<g>
</g>
</svg>
