<?xml version="1.0" encoding="iso-8859-1"?>
<!-- Generator: Adobe Illustrator 19.0.0, SVG Export Plug-In . SVG Version: 6.00 Build 0)  -->
<svg version="1.1" id="Layer_1" xmlns="http://www.w3.org/2000/svg" xmlns:xlink="http://www.w3.org/1999/xlink" x="0px" y="0px"
	 viewBox="0 0 505 505" style="enable-background:new 0 0 505 505;" xml:space="preserve">
<circle style="fill:#324A5E;" cx="252.5" cy="252.5" r="252.5"/>
<circle style="fill:#FFFFFF;" cx="252.5" cy="252.5" r="198.3"/>
<g>
	<path style="fill:#F1543F;" d="M396.4,327.7c0.3-18.9-2.6-37.7-8.3-55.6c-4.2,44.7-25,77.2-53.4,97.6c8.8,11.9,17.7,23.7,26.5,35.6
		c37.5-27,65-70,70.6-129.1C422.4,298.3,410,315.1,396.4,327.7L396.4,327.7z"/>
	<path style="fill:#F1543F;" d="M108.6,327.7c-0.3-18.9,2.6-37.7,8.3-55.6c4.2,44.7,25,77.2,53.4,97.6
		c-8.8,11.9-17.7,23.7-26.5,35.6c-37.5-27-65-70-70.6-129.1C82.6,298.3,95,315.1,108.6,327.7L108.6,327.7z"/>
</g>
<path style="fill:#FF7058;" d="M380.8,362.4c-62.6,79.3-194,79.3-256.6,0c14.9-12,29.9-24,44.8-36c40.7,51.6,126.3,51.6,167,0
	C350.9,338.4,365.9,350.4,380.8,362.4z"/>
<g>
	<path style="fill:#4CDBC4;" d="M183.5,182.6h-18.1v-41.3h16.1c2.8,0,5.2,0.3,7.2,1s3.5,1.6,4.6,2.7c1.8,2.1,2.8,4.5,2.8,7.2
		c0,3.2-1,5.6-3.1,7.2c-0.7,0.6-1.2,0.9-1.5,1s-0.8,0.4-1.5,0.7c2.6,0.6,4.6,1.7,6.1,3.5s2.3,3.9,2.3,6.5c0,2.9-1,5.4-3,7.6
		C193.1,181.3,189.2,182.6,183.5,182.6z M174.7,158h4.4c2.6,0,4.5-0.3,5.7-0.8c1.2-0.6,1.9-1.7,1.9-3.6c0-1.8-0.6-3-1.7-3.6
		c-1.1-0.6-3.1-0.9-5.8-0.9h-4.4v8.9H174.7z M174.7,174.8h6.3c2.6,0,4.6-0.3,5.9-1c1.3-0.6,2-1.9,2-3.8c0-1.9-0.7-3.2-2.1-3.8
		c-1.4-0.6-3.6-0.9-6.7-0.9h-5.4V174.8z"/>
	<path style="fill:#4CDBC4;" d="M247.7,141.3v8.2h-20.5v8.5h18.5v7.9h-18.5v8.6h21.2v8.1H218v-41.3H247.7z"/>
	<path style="fill:#4CDBC4;" d="M278,149.6c-0.9,0.7-1.3,1.7-1.3,2.9s0.5,2.2,1.6,2.9s3.6,1.5,7.5,2.5s7,2.4,9.1,4.3
		c2.2,1.9,3.2,4.7,3.2,8.4s-1.4,6.7-4.2,9c-2.8,2.3-6.4,3.5-10.9,3.5c-6.5,0-12.4-2.4-17.6-7.3l5.5-6.7c4.4,3.9,8.6,5.8,12.3,5.8
		c1.7,0,3-0.4,4-1.1c1-0.7,1.4-1.7,1.4-3c0-1.2-0.5-2.2-1.5-3c-1-0.7-3-1.5-6.1-2.2c-4.8-1.1-8.3-2.6-10.5-4.5
		c-2.2-1.8-3.3-4.7-3.3-8.6c0-3.9,1.4-6.9,4.2-9.1c2.8-2.1,6.3-3.2,10.5-3.2c2.8,0,5.5,0.5,8.3,1.4s5.2,2.3,7.2,4l-4.7,6.7
		c-3.6-2.7-7.3-4.1-11.1-4.1C280.1,148.5,278.8,148.8,278,149.6z"/>
	<path style="fill:#4CDBC4;" d="M334.9,149.3v33.3h-9.2v-33.3H314v-8h32.6v8H334.9z"/>
	<path style="fill:#4CDBC4;" d="M172.2,215.8c2.9,2.5,4.3,6.2,4.3,11.3s-1.5,8.8-4.5,11.2s-7.5,3.5-13.6,3.5h-5.5v11.5h-9.2V212
		h14.6C164.7,212.1,169.3,213.4,172.2,215.8z M165.4,232.1c1.1-1.2,1.7-3,1.7-5.4s-0.7-4.1-2.2-5.1c-1.4-1-3.7-1.5-6.7-1.5h-5.3V234
		h6.2C162.2,233.9,164.3,233.3,165.4,232.1z"/>
	<path style="fill:#4CDBC4;" d="M229,225.8c0,6.6-2.6,10.9-7.8,12.8l10.4,14.8h-11.3l-9.1-13.2h-6.4v13.2h-9.3v-41.3h15.6
		c6.4,0,11,1.1,13.7,3.2C227.6,217.5,229,221,229,225.8z M217.9,230.7c1.1-1,1.7-2.6,1.7-4.9c0-2.2-0.6-3.7-1.8-4.6
		c-1.2-0.8-3.2-1.2-6.2-1.2h-6.9v12.2h6.7C214.6,232.3,216.7,231.8,217.9,230.7z"/>
	<path style="fill:#4CDBC4;" d="M250.2,212.1h9.2v41.3h-9.2V212.1z"/>
	<path style="fill:#4CDBC4;" d="M300.3,245.2c4.5,0,8.2-1.8,11.1-5.4l5.9,6.1c-4.7,5.3-10.2,7.9-16.6,7.9s-11.6-2-15.7-6
		s-6.2-9.1-6.2-15.2s2.1-11.2,6.3-15.3c4.2-4.1,9.3-6.1,15.4-6.1c6.8,0,12.4,2.6,17,7.7l-5.7,6.5c-2.9-3.6-6.5-5.4-10.9-5.4
		c-3.5,0-6.4,1.1-8.9,3.4c-2.5,2.3-3.7,5.3-3.7,9.1s1.2,6.9,3.5,9.2C294.2,244.1,297,245.2,300.3,245.2z"/>
	<path style="fill:#4CDBC4;" d="M366.1,212.1v8.2h-20.5v8.5h18.5v7.9h-18.5v8.6h21.2v8.1h-30.4v-41.3L366.1,212.1L366.1,212.1z"/>
</g>
<g>
</g>
<g>
</g>
<g>
</g>
<g>
</g>
<g>
</g>
<g>
</g>
<g>
</g>
<g>
</g>
<g>
</g>
<g>
</g>
<g>
</g>
<g>
</g>
<g>
</g>
<g>
</g>
<g>
</g>
</svg>
