<?xml version="1.0" encoding="iso-8859-1"?>
<!-- Generator: Adobe Illustrator 19.0.0, SVG Export Plug-In . SVG Version: 6.00 Build 0)  -->
<svg version="1.1" id="Layer_1" xmlns="http://www.w3.org/2000/svg" xmlns:xlink="http://www.w3.org/1999/xlink" x="0px" y="0px"
	 viewBox="0 0 505 505" style="enable-background:new 0 0 505 505;" xml:space="preserve">
<circle style="fill:#FD8469;" cx="252.5" cy="252.5" r="252.5"/>
<path style="fill:#FFD05B;" d="M203.1,237.7c0.2-28,15.9-56.2,15.9-56.2c-7,32.2,19.1,51.3,19.1,51.3c-38-52.1,16-83.1,16-83.1
	s-16,17.3,6.7,42.5c0,0,18.6,18.9,25.3,45.5h8c61.5-45.4,2.7-136.5,2.7-136.5c11,45.9-33.6,73.9-33.6,73.9
	c64.1-74-21-116.9-24.6-118.6c1.7,1.7,25,25.7-12.7,61c0,0-65.5,56.7-43.9,120.1h21.1V237.7z"/>
<path style="fill:#FFFFFF;" d="M395.8,410.7H109.2c-0.6,0-1.1-0.5-1.1-1.1V237.7c0-0.6,0.5-1.1,1.1-1.1h286.5c0.6,0,1.1,0.5,1.1,1.1
	v171.9C396.9,410.2,396.4,410.7,395.8,410.7z"/>
<path style="fill:#54C0EB;" d="M108.1,327.1v79.1c0,2.5,2,4.5,4.5,4.5h279.8c2.5,0,4.5-2,4.5-4.5v-79.1H108.1z"/>
<g>
	<path style="fill:#324A5E;" d="M197.1,257.1H208V306h-10.9v-19.2h-19.4V306h-10.9v-48.9h10.9v20.4h19.4V257.1z"/>
	<path style="fill:#324A5E;" d="M275.1,299.2c-4.9,4.8-11,7.2-18.3,7.2c-7.2,0-13.3-2.4-18.3-7.2s-7.4-10.8-7.4-18s2.5-13.2,7.4-18
		s11-7.2,18.3-7.2c7.2,0,13.3,2.4,18.3,7.2c4.9,4.8,7.4,10.8,7.4,18C282.5,288.4,280.1,294.4,275.1,299.2z M271.4,281.3
		c0-4.4-1.4-8.1-4.2-11.2c-2.8-3.1-6.2-4.6-10.3-4.6c-4.1,0-7.5,1.5-10.3,4.6s-4.2,6.8-4.2,11.2s1.4,8.1,4.2,11.1
		c2.8,3.1,6.2,4.6,10.3,4.6s7.5-1.5,10.3-4.6C270,289.3,271.4,285.6,271.4,281.3z"/>
	<path style="fill:#324A5E;" d="M325.1,266.5v39.4h-10.9v-39.4h-13.8v-9.4H339v9.4H325.1z"/>
</g>
<g>
	<path style="fill:#FFFFFF;" d="M167.9,349.1c2.8,2.4,4.3,6.1,4.3,11.1s-1.5,8.6-4.4,11s-7.4,3.5-13.3,3.5h-5.4V386h-9v-40.5h14.3
		C160.6,345.5,165.1,346.7,167.9,349.1z M161.3,365c1.1-1.2,1.6-3,1.6-5.3s-0.7-4-2.1-5c-1.4-1-3.6-1.5-6.6-1.5h-5.1v13.6h6.1
		C158.2,366.9,160.2,366.3,161.3,365z"/>
	<path style="fill:#FFFFFF;" d="M223.6,358.9c0,6.5-2.6,10.7-7.7,12.6l10.2,14.5H215l-9-12.9h-6.2V386h-9v-40.5h15.3
		c6.3,0,10.8,1.1,13.5,3.2C222.2,350.8,223.6,354.2,223.6,358.9z M212.7,363.7c1.1-1,1.7-2.6,1.7-4.8c0-2.2-0.6-3.7-1.7-4.5
		c-1.2-0.8-3.2-1.2-6.1-1.2h-6.8v12h6.6C209.5,365.2,211.6,364.7,212.7,363.7z"/>
	<path style="fill:#FFFFFF;" d="M244.4,345.5h9v40.4h-9V345.5z"/>
	<path style="fill:#FFFFFF;" d="M293.5,378c4.4,0,8.1-1.8,10.9-5.3l5.8,6c-4.6,5.2-10,7.8-16.2,7.8s-11.4-2-15.4-5.9s-6-8.9-6-14.9
		s2.1-11,6.2-15s9.1-6,15.1-6c6.6,0,12.2,2.5,16.7,7.6l-5.6,6.4c-2.9-3.5-6.4-5.3-10.6-5.3c-3.4,0-6.3,1.1-8.7,3.3
		c-2.4,2.2-3.6,5.2-3.6,9s1.1,6.8,3.4,9.1C287.5,376.8,290.3,378,293.5,378z"/>
	<path style="fill:#FFFFFF;" d="M358,345.5v8h-20.1v8.3H356v7.7h-18.1v8.4h20.8v8h-29.8v-40.4H358z"/>
</g>
<g>
</g>
<g>
</g>
<g>
</g>
<g>
</g>
<g>
</g>
<g>
</g>
<g>
</g>
<g>
</g>
<g>
</g>
<g>
</g>
<g>
</g>
<g>
</g>
<g>
</g>
<g>
</g>
<g>
</g>
</svg>
