<?xml version="1.0" encoding="iso-8859-1"?>
<!-- Generator: Adobe Illustrator 19.0.0, SVG Export Plug-In . SVG Version: 6.00 Build 0)  -->
<svg version="1.1" id="Layer_1" xmlns="http://www.w3.org/2000/svg" xmlns:xlink="http://www.w3.org/1999/xlink" x="0px" y="0px"
	 viewBox="0 0 505 505" style="enable-background:new 0 0 505 505;" xml:space="preserve">
<circle style="fill:#84DBFF;" cx="252.5" cy="252.5" r="252.5"/>
<path style="fill:#FFFFFF;" d="M391.4,391.1c-33.2,33.2-75.4,52-118.7,56.4L57.5,232.3c4.4-43.3,23.2-85.5,56.4-118.7
	c76.6-76.6,200.8-76.6,277.4,0S468,314.5,391.4,391.1z"/>
<path style="fill:#FF7058;" d="M85.5,260.4l159.1,159.1c45.5,2.2,91.6-14.1,126.3-48.8c65.3-65.3,65.3-171.3,0-236.6
	s-171.3-65.3-236.6,0C99.6,168.8,83.3,214.9,85.5,260.4z"/>
<path style="fill:#E6E9EE;" d="M272.2,447L57.9,232.8c56.3-5.4,114.6,13.4,157.7,56.5C258.8,332.5,277.6,390.7,272.2,447z"/>
<g>
	<path style="fill:#FFFFFF;" d="M204.9,155.9c-1.8-0.2-3.3,0.4-4.6,1.7s-1.8,3-1.4,4.9c0.4,2,2.2,5.6,5.5,11
		c3.2,5.3,5,10.3,5.2,14.7c0.3,4.5-1.6,8.8-5.7,12.8c-4.1,4-8.9,5.8-14.4,5.3c-5.6-0.5-10.8-3.3-15.8-8.2
		c-7.2-7.2-10.9-16.3-11.4-27.3l13.4-1.4c0.6,9.1,3,15.8,7.1,19.9c1.9,1.9,3.7,2.9,5.6,3.2c1.9,0.3,3.5-0.3,4.8-1.6
		c1.4-1.4,1.9-3,1.6-4.9c-0.3-1.9-1.7-4.9-4.2-9.1c-4-6.5-6.2-12-6.7-16.4c-0.4-4.4,1.5-8.8,5.8-13.1s9.1-6.1,14.5-5.3
		s10.4,3.4,15,8.1c3,3,5.5,6.5,7.5,10.6s3.1,8.1,3.5,12.3l-12.5,2.3c-0.9-6.9-3.5-12.4-7.7-16.6C208.4,157,206.6,156.1,204.9,155.9z
		"/>
	<path style="fill:#FFFFFF;" d="M231,254.4l5.6-14l-18.9-18.9l-14,5.6L193,216.4l64.7-25.7l9.8,9.8l-25.7,64.7L231,254.4z
		 M249.2,209.1l-18.8,7.4l11.3,11.3L249.2,209.1z"/>
	<path style="fill:#FFFFFF;" d="M247,270.4l45.2-45.2l10.1,10.1l-36.2,36.2l19.3,19.3l-9,9L247,270.4z"/>
	<path style="fill:#FFFFFF;" d="M361.5,294.5l-9,9L330,281l-9.3,9.3l20.2,20.2l-8.6,8.6l-20.2-20.2l-9.4,9.4l23.2,23.2l-8.9,8.9
		l-33.3-33.3l45.2-45.2L361.5,294.5z"/>
</g>
<g>
</g>
<g>
</g>
<g>
</g>
<g>
</g>
<g>
</g>
<g>
</g>
<g>
</g>
<g>
</g>
<g>
</g>
<g>
</g>
<g>
</g>
<g>
</g>
<g>
</g>
<g>
</g>
<g>
</g>
</svg>
