<?xml version="1.0" encoding="iso-8859-1"?>
<!-- Generator: Adobe Illustrator 19.0.0, SVG Export Plug-In . SVG Version: 6.00 Build 0)  -->
<svg version="1.1" id="Layer_1" xmlns="http://www.w3.org/2000/svg" xmlns:xlink="http://www.w3.org/1999/xlink" x="0px" y="0px"
	 viewBox="0 0 505 505" style="enable-background:new 0 0 505 505;" xml:space="preserve">
<circle style="fill:#84DBFF;" cx="252.5" cy="252.5" r="252.5"/>
<path style="fill:#FFFFFF;" d="M382.3,296.1l26.3-26.3c9.6-9.6,9.6-25,0-34.6l-26.3-26.3c-4.6-4.6-7.2-10.8-7.2-17.3v-37.2
	c0-13.5-11-24.5-24.5-24.5h-37.2c-6.5,0-12.7-2.6-17.3-7.2l-26.3-26.3c-9.6-9.6-25-9.6-34.6,0l-26.3,26.3
	c-4.6,4.6-10.8,7.2-17.3,7.2h-37.2c-13.5,0-24.5,11-24.5,24.5v37.2c0,6.5-2.6,12.7-7.2,17.3l-26.3,26.3c-9.6,9.6-9.6,25,0,34.6
	l26.3,26.3c4.6,4.6,7.2,10.8,7.2,17.3v37.2c0,13.5,11,24.5,24.5,24.5h37.2c6.5,0,12.7,2.6,17.3,7.2l26.3,26.3c9.6,9.6,25,9.6,34.6,0
	l26.3-26.3c4.6-4.6,10.8-7.2,17.3-7.2h37.2c13.5,0,24.5-11,24.5-24.5v-37.2C375.1,306.9,377.7,300.7,382.3,296.1z"/>
<g>
	<path style="fill:#FF7058;" d="M189.2,199.4l3.7,10.2l-20.9,7.6l3.2,8.8c1.4-1,3.1-1.9,5.1-2.6c5.1-1.8,10-1.9,14.8-0.1
		c4.8,1.7,8.1,5.2,10,10.4s1.5,10.2-1,15c-2.6,4.8-6.7,8.2-12.3,10.2c-7.2,2.6-14.1,2.1-20.8-1.5l3.1-10.9c0.6,0.3,1.4,0.6,2.4,1
		s2.7,0.8,5.1,1.1c2.4,0.4,4.6,0.2,6.6-0.6c2-0.7,3.6-2,4.7-3.8c1.1-1.8,1.3-3.8,0.4-6.2c-0.9-2.4-2.4-3.9-4.5-4.6
		c-2.2-0.7-4.6-0.5-7.2,0.4c-2.7,1-5.4,3-8.3,6.2l-6.8-3.5l-9.3-25.8L189.2,199.4z"/>
	<path style="fill:#FF7058;" d="M241.4,241c-7.3,2.6-13.7,2.1-19.1-1.5c-5.4-3.7-9.6-9.6-12.6-17.9c-3-8.3-3.6-15.6-1.8-21.9
		c1.8-6.3,6.4-10.7,13.7-13.4c7.3-2.6,13.7-2.1,19.1,1.5c5.4,3.7,9.6,9.6,12.6,17.9c3,8.3,3.6,15.6,1.8,21.9
		C253.3,233.9,248.7,238.3,241.4,241z M219.1,203.7c-0.5,3.8,0.2,8.4,2.1,13.7c1.9,5.3,4.3,9.3,7.1,11.9c2.8,2.6,6,3.3,9.5,2
		s5.5-3.8,6-7.7c0.5-3.8-0.2-8.4-2.1-13.7c-1.9-5.3-4.3-9.2-7.1-11.9c-2.8-2.6-6-3.3-9.5-2S219.6,199.9,219.1,203.7z"/>
	<path style="fill:#FF7058;" d="M279.6,180.2c1.1,3,0.9,5.9-0.5,8.7s-3.7,4.8-6.9,5.9c-3.2,1.2-6.2,1.1-9.1-0.2s-4.8-3.4-5.9-6.4
		c-1.1-2.9-0.9-5.8,0.5-8.7c1.4-2.8,3.7-4.8,6.9-6c3.2-1.2,6.2-1.1,9.1,0.2C276.6,175.1,278.5,177.2,279.6,180.2z M267.1,187.7
		c0.8,0.5,1.7,0.5,2.6,0.2s1.5-0.9,1.9-1.8c0.4-0.9,0.3-1.9-0.1-3s-1-1.9-1.9-2.4s-1.7-0.6-2.6-0.3s-1.5,1-1.8,1.9
		c-0.3,1-0.3,2,0.1,3.1S266.3,187.3,267.1,187.7z M304.3,157.7l-18.8,66.6l-13,4.7l18.8-66.6L304.3,157.7z M320.6,200.3
		c1.1,3,0.9,5.9-0.5,8.7s-3.7,4.8-6.9,5.9c-3.2,1.2-6.2,1.1-9.1-0.2s-4.8-3.4-5.9-6.4s-0.9-5.8,0.5-8.7c1.4-2.8,3.7-4.8,6.9-6
		c3.2-1.2,6.2-1.1,9.1,0.2C317.5,195.2,319.5,197.4,320.6,200.3z M308.1,207.9c0.8,0.5,1.7,0.5,2.6,0.2s1.5-0.9,1.9-1.8
		c0.4-0.9,0.3-1.9-0.1-3s-1-1.9-1.9-2.4s-1.7-0.6-2.6-0.3s-1.5,1-1.8,1.9s-0.3,2,0.1,3.1C306.7,206.6,307.3,207.4,308.1,207.9z"/>
	<path style="fill:#FF7058;" d="M253.3,330.3c-3.5,7.2-9.1,12.1-16.9,15c-7.8,2.8-15.3,2.6-22.6-0.7c-7.2-3.3-12.3-8.8-15.1-16.6
		c-2.8-7.8-2.5-15.2,1-22.4c3.5-7.2,9.1-12.1,16.9-15c7.8-2.8,15.3-2.6,22.6,0.7c7.2,3.3,12.3,8.8,15.1,16.6
		C257,315.7,256.7,323.2,253.3,330.3z M242.2,312.4c-1.7-4.7-4.7-8.2-8.9-10.4c-4.2-2.2-8.5-2.5-13-1c-4.4,1.6-7.5,4.6-9.3,9
		s-1.9,9-0.2,13.7s4.7,8.2,8.9,10.4c4.2,2.2,8.5,2.5,12.9,0.9s7.5-4.6,9.4-9C243.9,321.6,243.9,317.1,242.2,312.4z"/>
	<path style="fill:#FF7058;" d="M291.1,265.1l3.7,10.4l-24.5,8.9l4.1,11.4l23.3-8.4l3.7,10.4l-23.3,8.4l7.5,20.7l-11.8,4.3
		l-19.1-52.8L291.1,265.1z"/>
	<path style="fill:#FF7058;" d="M337.3,248.4l3.7,10.4l-24.5,8.9l4.1,11.4l23.3-8.4l3.7,10.4l-23.3,8.4l7.5,20.7l-11.8,4.3l-19-53
		L337.3,248.4z"/>
</g>
<g>
</g>
<g>
</g>
<g>
</g>
<g>
</g>
<g>
</g>
<g>
</g>
<g>
</g>
<g>
</g>
<g>
</g>
<g>
</g>
<g>
</g>
<g>
</g>
<g>
</g>
<g>
</g>
<g>
</g>
</svg>
