<?xml version="1.0" encoding="iso-8859-1"?>
<!-- Generator: Adobe Illustrator 19.0.0, SVG Export Plug-In . SVG Version: 6.00 Build 0)  -->
<svg version="1.1" id="Layer_1" xmlns="http://www.w3.org/2000/svg" xmlns:xlink="http://www.w3.org/1999/xlink" x="0px" y="0px"
	 viewBox="0 0 505 505" style="enable-background:new 0 0 505 505;" xml:space="preserve">
<circle style="fill:#90DFAA;" cx="252.5" cy="252.5" r="252.5"/>
<path style="fill:#FFFFFF;" d="M382.3,296l26.3-26.3c9.6-9.6,9.6-25,0-34.6l-26.3-26.3c-4.6-4.6-7.2-10.8-7.2-17.3v-37.2
	c0-13.5-11-24.5-24.5-24.5h-37.2c-6.5,0-12.7-2.6-17.3-7.2l-26.3-26.3c-9.6-9.6-25-9.6-34.6,0l-26.3,26.3
	c-4.6,4.6-10.8,7.2-17.3,7.2h-37.2c-13.5,0-24.5,11-24.5,24.5v37.2c0,6.5-2.6,12.7-7.2,17.3l-26.3,26.3c-9.6,9.6-9.6,25,0,34.6
	l26.3,26.3c4.6,4.6,7.2,10.8,7.2,17.3v37.2c0,13.5,11,24.5,24.5,24.5h37.2c6.5,0,12.7,2.6,17.3,7.2l26.3,26.3c9.6,9.6,25,9.6,34.6,0
	l26.3-26.3c4.6-4.6,10.8-7.2,17.3-7.2h37.2c13.5,0,24.5-11,24.5-24.5v-37.2C375.1,306.8,377.7,300.6,382.3,296z"/>
<g>
	<path style="fill:#FF7058;" d="M166.1,261.4c-0.8,1.3-0.9,2.8-0.4,4.3c0.6,1.5,1.7,2.5,3.4,2.9s5.3,0.3,10.8-0.3
		c5.5-0.6,10-0.1,13.7,1.3c3.7,1.5,6.4,4.6,8.1,9.3c1.7,4.7,1.3,9.2-1.2,13.5c-2.5,4.2-6.6,7.4-12.4,9.5c-8.4,3-17,2.7-26-1.1
		l3.9-11.2c7.5,2.9,13.7,3.5,18.5,1.8c2.2-0.8,3.7-1.9,4.6-3.2c0.9-1.4,1.1-2.9,0.5-4.5s-1.7-2.6-3.3-3.1s-4.6-0.5-8.8,0
		c-6.7,0.8-11.9,0.5-15.6-0.8c-3.7-1.3-6.5-4.5-8.3-9.5s-1.4-9.5,1.2-13.6c2.6-4,6.6-7,12-9c3.5-1.3,7.3-1.9,11.2-2
		c4-0.1,7.7,0.5,11.1,1.8l-2.9,10.8c-5.8-1.8-11.2-1.8-16.1-0.1C168.3,259,166.9,260.1,166.1,261.4z"/>
	<path style="fill:#FF7058;" d="M254.3,277.3l-9-9.6l-22.2,8l-0.8,13.2l-12.6,4.5l3.7-61.1l11.4-4.1l42,44.6L254.3,277.3z
		 M224.9,246l-1.1,17.8L237,259L224.9,246z"/>
	<path style="fill:#FF7058;" d="M273,270.6l-19.1-52.8l11.8-4.3l15.3,42.3l22.5-8.2l3.8,10.5L273,270.6z"/>
	<path style="fill:#FF7058;" d="M334.9,188.4l3.8,10.5l-26.3,9.5l3.9,10.9l23.7-8.6l3.6,10.1l-23.7,8.6l4,11l27.1-9.8l3.8,10.4
		l-38.9,14.1l-19.1-52.8L334.9,188.4z"/>
</g>
<g>
</g>
<g>
</g>
<g>
</g>
<g>
</g>
<g>
</g>
<g>
</g>
<g>
</g>
<g>
</g>
<g>
</g>
<g>
</g>
<g>
</g>
<g>
</g>
<g>
</g>
<g>
</g>
<g>
</g>
</svg>
