<?xml version="1.0" encoding="iso-8859-1"?>
<!-- Generator: Adobe Illustrator 19.0.0, SVG Export Plug-In . SVG Version: 6.00 Build 0)  -->
<svg version="1.1" id="Layer_1" xmlns="http://www.w3.org/2000/svg" xmlns:xlink="http://www.w3.org/1999/xlink" x="0px" y="0px"
	 viewBox="0 0 505 505" style="enable-background:new 0 0 505 505;" xml:space="preserve">
<circle style="fill:#90DFAA;" cx="252.5" cy="252.5" r="252.5"/>
<path style="fill:#324A5E;" d="M385.9,216.6c-32.2,0-58.3,36-58.3,80.3c0,44.4,26.1,80.3,58.3,80.3s58.3-36,58.3-80.3
	C444.2,252.5,418.1,216.6,385.9,216.6z M385.9,246.5c-4.2,0-7.7-3.4-7.7-7.7c0-4.2,3.4-7.7,7.7-7.7c4.2,0,7.7,3.4,7.7,7.7
	C393.5,243.1,390.1,246.5,385.9,246.5z"/>
<g>
	<path style="fill:#FF7058;" d="M292.2,253.5c-32.2,0-58.3,36-58.3,80.3c0,44.4,26.1,80.3,58.3,80.3s58.3-36,58.3-80.3
		C350.5,289.4,324.4,253.5,292.2,253.5z M292.2,283.4c-4.2,0-7.7-3.4-7.7-7.7c0-4.2,3.4-7.7,7.7-7.7c4.2,0,7.7,3.4,7.7,7.7
		C299.8,280,296.4,283.4,292.2,283.4z"/>
	<path style="fill:#FF7058;" d="M119.2,192.2c-32.2,0-58.3,36-58.3,80.3c0,44.4,26.1,80.3,58.3,80.3s58.3-36,58.3-80.3
		C177.5,228.1,151.4,192.2,119.2,192.2z M119.2,222.1c-4.2,0-7.7-3.4-7.7-7.7c0-4.2,3.4-7.7,7.7-7.7c4.2,0,7.7,3.4,7.7,7.7
		C126.8,218.7,123.4,222.1,119.2,222.1z"/>
</g>
<path style="fill:#E6E9EE;" d="M216.7,159.5c-32.2,0-58.3,36-58.3,80.3c0,44.4,26.1,80.3,58.3,80.3s58.3-36,58.3-80.3
	S248.9,159.5,216.7,159.5z M216.7,189.5c-4.2,0-7.7-3.4-7.7-7.7c0-4.2,3.4-7.7,7.7-7.7c4.2,0,7.7,3.4,7.7,7.7
	C224.4,186,220.9,189.5,216.7,189.5z"/>
<path style="fill:#FFFFFF;" d="M112.7,258.8c-1.5,1.2-2.3,2.9-2.3,4.9s0.9,3.7,2.8,4.9c1.8,1.2,6.1,2.6,12.8,4.3
	c6.7,1.6,11.9,4.1,15.5,7.4c3.7,3.3,5.5,8.1,5.5,14.4s-2.4,11.4-7.1,15.3c-4.7,3.9-11,5.9-18.7,5.9c-11.1,0-21.2-4.1-30.1-12.4
	l9.4-11.5c7.6,6.6,14.6,10,21,10c2.9,0,5.1-0.6,6.8-1.9c1.6-1.2,2.5-2.9,2.5-5s-0.9-3.8-2.6-5c-1.7-1.2-5.2-2.5-10.4-3.8
	c-8.2-1.9-14.2-4.5-18-7.6s-5.7-8-5.7-14.7s2.4-11.8,7.2-15.4c4.8-3.6,10.8-5.4,18-5.4c4.7,0,9.4,0.8,14.1,2.4
	c4.7,1.6,8.8,3.9,12.3,6.8l-7.9,11.5c-6.1-4.6-12.4-6.9-18.9-6.9C116.3,256.9,114.2,257.5,112.7,258.8z"/>
<path style="fill:#84DBFF;" d="M235.7,271.2l-5.8-13.5h-26.3l-5.8,13.5h-14.9l27.1-62.7h13.5l27.1,62.7H235.7z M216.8,227.1
	l-7.9,18.2h15.7L216.8,227.1z"/>
<g>
	<path style="fill:#FFFFFF;" d="M270,367.9v-68.2h15.2v54.6h29.1v13.6L270,367.9L270,367.9z"/>
	<path style="fill:#FFFFFF;" d="M409.7,263.1v13.4h-33.6v13.9h30.2v12.8h-30.2v14h34.7v13.3h-49.7V263h48.6V263.1z"/>
	<path style="fill:#FFFFFF;" d="M388.8,39.9v199.9c0,1.6-1.4,3-3,3s-3-1.3-3-3V36.2C384.9,37.4,386.9,38.7,388.8,39.9z"/>
	<path style="fill:#FFFFFF;" d="M295.1,3.6v272.3c0,1.6-1.3,3-3,3c-1.6,0-3-1.3-3-3V2.7C291.2,2.9,293.2,3.3,295.1,3.6z"/>
	<path style="fill:#FFFFFF;" d="M219.7,2.1v179c0,1.7-1.3,3-3,3s-3-1.3-3-3V3C215.7,2.6,217.7,2.4,219.7,2.1z"/>
	<path style="fill:#FFFFFF;" d="M122.1,36.2v176c0,1.6-1.3,3-3,3s-3-1.3-3-3V39.9C118.1,38.7,120.1,37.4,122.1,36.2z"/>
</g>
<g>
</g>
<g>
</g>
<g>
</g>
<g>
</g>
<g>
</g>
<g>
</g>
<g>
</g>
<g>
</g>
<g>
</g>
<g>
</g>
<g>
</g>
<g>
</g>
<g>
</g>
<g>
</g>
<g>
</g>
</svg>
