<?xml version="1.0" encoding="iso-8859-1"?>
<!-- Generator: Adobe Illustrator 19.0.0, SVG Export Plug-In . SVG Version: 6.00 Build 0)  -->
<svg version="1.1" id="Layer_1" xmlns="http://www.w3.org/2000/svg" xmlns:xlink="http://www.w3.org/1999/xlink" x="0px" y="0px"
	 viewBox="0 0 505 505" style="enable-background:new 0 0 505 505;" xml:space="preserve">
<circle style="fill:#54C0EB;" cx="252.5" cy="252.5" r="252.5"/>
<path style="fill:#FFFFFF;" d="M213.1,98.8l-31.2,31.1c-14.4-14.4-37.7-14.4-52,0c-14.4,14.4-14.4,37.7,0,52l-31.2,31.2
	c-1.1,1.1-1.1,3,0,4.1l189,189c1.1,1.1,3,1.1,4.1,0l114.3-114.3c1.1-1.1,1.1-3,0-4.1l-189-189C216.1,97.6,214.2,97.6,213.1,98.8z
	 M168.6,168.6c-7,7-18.4,7-25.4,0s-7-18.4,0-25.4s18.4-7,25.4,0C175.6,150.2,175.6,161.6,168.6,168.6z"/>
<rect x="121.903" y="97.69" transform="matrix(-0.7071 0.7071 -0.7071 -0.7071 320.244 132.6306)" style="fill:#324A5E;" width="21.5" height="69.899"/>
<g>
	<path style="fill:#FF7058;" d="M179.3,213.8l8.3-8.3c0.2,2.8,0.9,5.4,2.1,7.8c1.1,2.4,2.6,4.5,4.4,6.3c1.1,1.1,2.1,1.9,3.1,2.5
		s1.9,1,2.8,1.2c0.9,0.2,1.7,0.2,2.4,0s1.4-0.6,1.9-1.1c0.7-0.7,1.2-1.6,1.3-2.6c0.2-1,0.1-2.1-0.1-3.3c-0.2-1.2-0.6-2.5-1.2-4
		c-0.5-1.4-1.1-3-1.8-4.6c-1.7-4.1-2.4-7.8-2.1-11s1.7-6,4.2-8.5c1.9-1.9,4-3.2,6.2-3.8s4.4-0.7,6.6-0.3c2.3,0.4,4.5,1.3,6.7,2.7
		c2.2,1.3,4.3,3,6.3,5c1.9,1.9,3.6,3.8,4.8,5.5c1.3,1.7,2.3,3.5,3.1,5.2l-7.8,7.8c-0.2-1.1-0.5-2.1-0.9-3.2s-0.9-2.1-1.5-3.1
		s-1.2-1.9-1.9-2.8c-0.7-0.9-1.4-1.7-2-2.4c-1-1-1.9-1.7-2.9-2.3s-1.9-1-2.8-1.2c-0.9-0.2-1.7-0.2-2.4-0.1c-0.8,0.2-1.4,0.5-2,1.1
		s-1,1.4-1.2,2.2s-0.2,1.8,0,2.8c0.2,1.1,0.5,2.2,0.9,3.5s1,2.7,1.6,4.3c0.9,2.1,1.5,4.1,2,6s0.7,3.7,0.7,5.4s-0.4,3.4-1.1,5
		c-0.7,1.6-1.8,3.1-3.3,4.7c-2.1,2.1-4.2,3.4-6.4,4.1c-2.2,0.6-4.4,0.7-6.7,0.2c-2.2-0.5-4.4-1.4-6.6-2.8c-2.2-1.4-4.3-3.1-6.3-5.1
		c-2.1-2.1-3.8-4.2-5.3-6.4C181,218,180,215.8,179.3,213.8z"/>
	<path style="fill:#FF7058;" d="M242.4,279.7l-9.2-9.2l5.7-11l-13.3-13.3l-10.9,5.7l-9.1-9.1l51-23.8l10,10L242.4,279.7z
		 M243.4,251.2l8.6-16.6c0.6-1.2,1.6-2.6,2.7-4l-0.2-0.2c-1.2,1-2.5,1.9-3.9,2.6l-16.7,8.6L243.4,251.2z"/>
	<path style="fill:#FF7058;" d="M269.3,306.7L247,284.4l37.4-37.4l8.4,8.4L262.2,286l13.8,13.8L269.3,306.7z"/>
	<path style="fill:#FF7058;" d="M296.8,334.1l-22.4-22.4l37.4-37.4l21.6,21.6l-6.9,6.9l-13.1-13.1l-8.3,8.3l12.2,12.2l-6.8,6.8
		l-12.2-12.2l-8.6,8.6l14,14L296.8,334.1z"/>
</g>
<g>
</g>
<g>
</g>
<g>
</g>
<g>
</g>
<g>
</g>
<g>
</g>
<g>
</g>
<g>
</g>
<g>
</g>
<g>
</g>
<g>
</g>
<g>
</g>
<g>
</g>
<g>
</g>
<g>
</g>
</svg>
