<?xml version="1.0" encoding="iso-8859-1"?>
<!-- Generator: Adobe Illustrator 19.0.0, SVG Export Plug-In . SVG Version: 6.00 Build 0)  -->
<svg version="1.1" id="Layer_1" xmlns="http://www.w3.org/2000/svg" xmlns:xlink="http://www.w3.org/1999/xlink" x="0px" y="0px"
	 viewBox="0 0 505 505" style="enable-background:new 0 0 505 505;" xml:space="preserve">
<circle style="fill:#324A5E;" cx="252.5" cy="252.5" r="252.5"/>
<path style="fill:#4CDBC4;" d="M338.6,320c-12.4,6.2-20.6,16.5-24.4,28.1l-23.6-31.8c-5.1-6.9-3.7-16.6,3.2-21.7l2.2-1.6L149.4,95.5
	c-23.9,17.8-28.9,51.6-11.2,75.5l114.5,154.2l0,0c6.9-5.1,16.6-3.7,21.7,3.2l45.8,61.8c15.3,20.6,44.4,27,65.8,12.7
	c25.7-17.1,29.3-54.1,5.4-75.7C377.1,314.3,355.8,311.5,338.6,320z M377.1,386.6c-13,9.7-31.4,7-41.1-6s-6.9-31.4,6.1-41.1
	s31.4-7,41.1,6C392.9,358.5,390.1,376.9,377.1,386.6z"/>
<path style="fill:#E6E9EE;" d="M113.4,327.5c-23.8,21.7-20,58.7,5.8,75.7c20.9,13.7,51,7.1,65.8-13.1l45.5-62
	c5.1-6.9,14.8-8.4,21.7-3.3l0,0L365.9,170c17.6-24,12.4-57.8-11.6-75.4L208.7,292.7l2.2,1.6c6.9,5.1,8.4,14.8,3.3,21.6l-23.5,32
	c-3.9-11.6-12.1-21.8-24.5-27.9C148.9,311.5,127.6,314.5,113.4,327.5z M121.7,345.7c9.6-13.1,28-15.9,41.1-6.3
	c13.1,9.6,15.9,28,6.3,41.1c-9.6,13.1-28,15.9-41.1,6.3S112.1,358.8,121.7,345.7z"/>
<circle style="fill:#324A5E;" cx="252.3" cy="278.3" r="9.8"/>
<g>
</g>
<g>
</g>
<g>
</g>
<g>
</g>
<g>
</g>
<g>
</g>
<g>
</g>
<g>
</g>
<g>
</g>
<g>
</g>
<g>
</g>
<g>
</g>
<g>
</g>
<g>
</g>
<g>
</g>
</svg>
