<?xml version="1.0" encoding="iso-8859-1"?>
<!-- Generator: Adobe Illustrator 19.0.0, SVG Export Plug-In . SVG Version: 6.00 Build 0)  -->
<svg version="1.1" id="Layer_1" xmlns="http://www.w3.org/2000/svg" xmlns:xlink="http://www.w3.org/1999/xlink" x="0px" y="0px"
	 viewBox="0 0 505 505" style="enable-background:new 0 0 505 505;" xml:space="preserve">
<circle style="fill:#84DBFF;" cx="252.5" cy="252.5" r="252.5"/>
<g>
	<polygon style="fill:#E6E9EE;" points="306.8,107.3 427.3,156 373.1,201.8 252.5,153.2 	"/>
	<polygon style="fill:#E6E9EE;" points="198.2,107.3 77.7,156 131.9,201.8 252.5,153.2 	"/>
</g>
<polygon style="fill:#324A5E;" points="373.1,201.9 252.5,244.6 131.9,201.9 252.5,153.2 "/>
<circle style="fill:#FFFFFF;" cx="252.5" cy="198.9" r="93.8"/>
<g>
	<path style="fill:#54C0EB;" d="M346.3,198.9c0,4.4-0.3,8.7-0.9,13c-1.4,0.8-3.3,0.5-5,0.5c-3.8,0.2-7.1,3.1-8.9,6.4
		c-1.8,3.3-2.6,7.2-3.6,10.9c-3,11.1-8.5,21.6-16,30.4c-4.3,5-11.3,10-17.3,3.1c-1.7-2-2.5-4.6-2.4-7.2c0-2.8-0.8-5.9-0.1-8.7
		c0.4-1.5,1.2-2.8,1.9-4.3c2.4-5.2,2.4-11.1,2.3-16.8c0-1.2-0.1-2.4-0.7-3.4c-0.9-1.5-2.9-2-4.7-2.2c-5.6-0.6-11.3,0.2-17,0.3
		s-11.6-0.5-16.3-3.7c-4.7-3.2-7.6-9.5-5.4-14.7c1.9-4.5,7.2-7.7,6.9-12.6c5.3,0.9,10.8,1.9,16.1,0.9c5.3-1,10.5-4.5,12-9.6
		c0.3-0.9,0.4-1.9,1.1-2.6c0.6-0.6,1.4-0.7,2.3-0.8c5.4-0.5,10.6,2.1,15.6,4.3c5,2.1,10.8,3.8,15.8,1.6c2-5.2-1.2-11.3-6-14
		c-4.8-2.8-10.7-2.9-16.2-2.3c-5.5,0.6-11,1.8-16.5,1.5c-1.5,4.6-3.5,9-5.9,13.2c-0.5,0.8-1,1.6-1.8,2.1c-0.9,0.5-1.9,0.4-2.9,0.3
		c-3.6-0.3-7.5-1.1-9.6-4c-2.4-3.3-2.3-9.1-6.2-10.2c6.5,1,13.3,0.5,19.7-1.4c-2.2-0.9-4.3-1.9-6.5-2.8c-1.3-0.5-2.6-1.1-3.4-2.3
		s-0.9-2.7-0.9-4.1l-0.1-6.9c0-1.2,1.7-1.6,2.2-0.5c1.1,2.3,2.3,4.6,3.8,6.7c2.1,0.5,4.3,1,6.3,0.4c2.1-0.6,3.9-2.6,3.4-4.7
		c2.8,0.4,5.6,0.7,8.3-0.1c2.6-0.9,5-3.3,4.7-6.1c-0.1-0.7-0.3-1.4-0.1-2.1c0.5-2,3.3-1.9,5-3c2.8-1.9,1.2-6.8-1.9-8.1
		s-6.7-0.2-9.9,0.9c0,2.4-0.2,4.9-0.5,7.3c-0.1,0.8-0.3,1.6-1,2c-0.6,0.3-1.2,0.1-1.8-0.2c-6.2-2.8-9-11.3-5.6-17.2
		c0.5-0.9,1.2-1.8,2.2-2.4c1.2-0.7,2.7-0.7,4.2-0.7c5.3,0.1,10.6,0.1,15.9,0.2c2.3,0,4.8-0.1,6-2.4c0,0,0-0.1,0.1-0.1
		C330.7,139.4,346.3,167.3,346.3,198.9z"/>
	<path style="fill:#54C0EB;" d="M250.8,125.8c-1.3,1.1-3.1,1.5-4.6,2.3c-3.6,1.7-6.3,5.1-7.3,9c-0.6,2.6-0.7,5.6-2.8,7.2
		c-1.3,1-3.1,1.2-4.8,1.2c-3.9,0.2-9-0.5-9.9-4.3c-0.6-2.7,1.4-5.3,2.8-7.7c2.3-3.9,3.2-8.5,2.4-13c-4.5-0.7-10.2-0.9-12.6,3
		c-2.9,4.8,1.8,11.4-0.7,16.3c-1.2,2.5-4.3,3.9-7.1,3.3c-2.7-0.7-4.8-3.4-4.8-6.2c1.7-1.2,2.7-3.2,2.8-5.2c-1.8-0.4-3.8-0.5-5.6-0.2
		c-0.2,1.2-0.4,2.4-0.5,3.5c-1.1,0.4-2.3,0.5-3.4,0.3c0,2.1-0.1,4.2-0.1,6.3c-3.1-1.1-6.8-0.2-9.1,2.3c-2.2,2.4-2.8,6.2-1.5,9.2
		c0.9-1.2,2.8,0.5,2.8,2s-0.7,3.1,0.1,4.3c2.2-4.1,4.4-8.2,6.7-12.4c1-1.9,2.1-3.9,4-5c1.8-1.1,4.7-1,5.8,0.9
		c1.1,1.8,0.2,4.4,1.8,5.9c2.1,1.9,6.1-0.6,8,1.5c1.8,2-1,5.1-0.6,7.8c0.4,2.6,3.7,4.1,3.9,6.8c0.2,2.5-2.9,4.3-5.3,3.7
		c-2.5-0.6-4.2-2.7-5.5-4.9c-2-1-4.7-0.7-6.4,0.8c-1.2,1.4,0.8,3.3,2.5,4s3.8,2.4,2.8,3.9c-0.7,1-2.1,0.9-3.2,0.7
		c-5.2-0.8-11.5-0.7-14.7,3.5c-2.9,3.8-2.3,9.8-6,12.9c-0.5,0.4-1.1,0.8-1.4,1.3c-0.4,0.7-0.3,1.5-0.2,2.3c0.2,1.3,0.4,2.7,0,4
		s-1.7,2.4-3,2.2c-1.1-0.2-1.8-1.3-2.5-2.1c-1.8-2-4.7-2.9-7.4-2.3c0.5,2.4-0.1,4.9-0.3,7.3c-0.2,2.5,0,5.2,1.7,7s5.2,1.9,6.2-0.3
		c0.5-1.1,0.4-2.4,1.1-3.4c0.6-0.8,1.7-1,2.7-1.1c5.3-0.7,10.8,0.4,15.4,3.2c0.5,2-0.9,4.1-2.7,5c-1.8,1-3.9,1.1-6,1.3
		c-3.9,0.3-7.7,0.5-11.6,0.8c-2.7,0.2-5.4,0.4-8-0.2c-1.8-0.4-3.4-1-4.9-2c-0.7-4.5-1-9.1-1-13.8c0-37.6,22.1-69.9,53.9-84.9
		c3.5,0.8,7.2,1.3,10.7,0.7c4.6-0.8,8.7-3.5,13.3-4.6c4.5-1.2,10.4-0.1,12.2,4.2c0.8,1.8,0.7,4,2,5.5c0.5,0.6,1.1,1,1.4,1.6
		C253,122.8,252.1,124.7,250.8,125.8z"/>
	<path style="fill:#54C0EB;" d="M232.8,251.2c-2.5,3.5,1.6,8.3,0.9,12.6c-0.5,3.1-3.5,5.1-6,6.9c-5.4,4-10,9.6-12.1,15.9
		c-4.4-1.6-8.7-3.5-12.8-5.7c-0.3-2-0.3-4.1,0-6.1c0.3-1.9,0.9-4.1-0.2-5.8c-0.7-1-1.8-1.6-3-2.1c-4.3-1.8-8.8-3-12.8-5.3
		c-4-2.2-7.7-5.7-8.7-10.3c-0.6-3-0.3-6.6-2.8-8.4c-2.6-1.9-6.6-0.4-9.2-2.3c-1-0.7-1.7-1.9-2.2-3c-2.4-5.2-2.9-11.1-1.6-16.7
		c0.2-1,0.6-2.1,1.4-2.8c0.8-0.8,1.9-1.1,3-1.3c9.8-1.9,20.6,3,25.7,11.6c1,1.8,1.9,3.7,3.5,5.1c1.6,1.4,3.6,1.9,5.6,2.5
		c11.5,3.1,23,6.2,34.4,9.3c0.8,0.9,0.3,2.4-0.6,3.3C234.6,249.6,233.5,250.2,232.8,251.2z"/>
</g>
<polygon style="fill:#FF7058;" points="252.5,435.5 131.9,392.9 131.9,201.9 252.5,244.6 "/>
<polygon style="fill:#F1543F;" points="252.5,435.5 373.1,392.9 373.1,201.9 252.5,244.6 "/>
<g>
	<polygon style="fill:#E6E9EE;" points="306.8,290.4 427.3,247.8 373.1,201.9 252.5,244.6 	"/>
	<polygon style="fill:#E6E9EE;" points="198.2,290.4 77.7,247.8 131.9,201.9 252.5,244.6 	"/>
</g>
<g>
</g>
<g>
</g>
<g>
</g>
<g>
</g>
<g>
</g>
<g>
</g>
<g>
</g>
<g>
</g>
<g>
</g>
<g>
</g>
<g>
</g>
<g>
</g>
<g>
</g>
<g>
</g>
<g>
</g>
</svg>
