<?xml version="1.0" encoding="iso-8859-1"?>
<!-- Generator: Adobe Illustrator 19.0.0, SVG Export Plug-In . SVG Version: 6.00 Build 0)  -->
<svg version="1.1" id="Layer_1" xmlns="http://www.w3.org/2000/svg" xmlns:xlink="http://www.w3.org/1999/xlink" x="0px" y="0px"
	 viewBox="0 0 505 505" style="enable-background:new 0 0 505 505;" xml:space="preserve">
<circle style="fill:#FFD05B;" cx="252.5" cy="252.5" r="252.5"/>
<g>
	<path style="fill:#FFFFFF;" d="M162.5,432.6h177.9c-4.2-64-0.5-178.8-0.5-178.8l61-25.9l-35.8-88.4c-2.3-3.8-65.5-26.7-65.5-26.7
		h-0.1c2.6,3.3,4.1,6.9,4.1,10.7c0,15.2-23.3,27.6-52.1,27.6s-52.1-12.4-52.1-27.6c0-3.8,1.5-7.4,4.1-10.7h-0.1
		c0,0-63.3,22.9-65.5,26.7l-35.8,88.4l61,25.9C163,253.8,166.7,368.6,162.5,432.6z"/>
	<path style="fill:#FFFFFF;" d="M340.4,432.6H162.5c4.2-64,0.5-178.8,0.5-178.8l-61-26l35.8-88.4c1.8-2.9,40-17.3,57.2-23.6
		c5.1-1.9,8.3-3.1,8.3-3.1h0.1c-2.6,3.3-4.1,6.9-4.1,10.7c0,15.3,23.3,27.6,52.1,27.6s52.1-12.4,52.1-27.6c0-3.8-1.5-7.4-4.1-10.7
		l0,0c0,0,3.3,1.2,8.3,3.1c17.2,6.3,55.4,20.7,57.2,23.6l35.8,88.4l-61,26C340,253.8,336.3,368.6,340.4,432.6z"/>
</g>
<path style="fill:#FF7058;" d="M163.5,412.1c-0.3,7.2-0.6,14.1-1,20.5h177.9c-0.4-6.4-0.7-13.3-1-20.5H163.5z"/>
<g>
	<path style="fill:#E6E9EE;" d="M303.6,123.5c0,15.2-23.3,27.6-52.1,27.6s-52.1-12.4-52.1-27.6c0-3.8,1.5-7.4,4.1-10.7l0,0
		c14.4,2,30.7,3.1,48,3.1s33.7-1.1,48-3.1l0,0C302.1,116.1,303.6,119.7,303.6,123.5z"/>
	<path style="fill:#E6E9EE;" d="M303.6,123.5c0,1.7-0.3,3.4-0.9,5.1c-4.5,12.8-25.7,22.6-51.3,22.6s-46.7-9.7-51.2-22.6
		c-0.6-1.6-0.9-3.4-0.9-5.1c0-3.6,1.3-7,3.6-10.1c0.1-0.2,0.3-0.4,0.4-0.6l0,0c0.1,0,0.3,0,0.4,0.1c8.2,1.1,17,2,26.3,2.5
		c6.9,0.4,14,0.6,21.3,0.6c7.3,0,14.4-0.2,21.3-0.6c9.3-0.5,18.1-1.3,26.3-2.5c0.1,0,0.3,0,0.4-0.1l0,0c0.1,0.2,0.3,0.4,0.4,0.6
		C302.3,116.5,303.6,119.9,303.6,123.5z"/>
</g>
<g>
	<rect x="243.6" y="120.2" style="fill:#FFFFFF;" width="15.8" height="18"/>
	<path style="fill:#FFFFFF;" d="M251.4,97c-1.1,0-2-0.9-2-2v-9.6c0-6.5,2.8-12.8,7.6-17.1c1.9-1.7,2.9-4.1,2.8-6.6
		c-0.2-4.3-3.8-7.9-8.1-8.1c-2.3-0.1-4.5,0.7-6.2,2.3s-2.6,3.7-2.6,6.1c0,1.1-0.9,2-2,2s-2-0.9-2-2c0-3.4,1.3-6.6,3.8-8.9
		c2.4-2.4,5.7-3.6,9.1-3.5c6.4,0.2,11.7,5.5,11.9,11.9c0.1,3.7-1.4,7.3-4.1,9.7c-4,3.6-6.3,8.7-6.3,14.1v9.6
		C253.4,96.1,252.5,97,251.4,97z"/>
</g>
<path style="fill:#324A5E;" d="M303.6,123.5c0,1.7-0.3,3.4-0.9,5.1l-30-13.3l-4.6-2c-10.6-4.7-22.8-4.7-33.4,0l-4.6,2l-29.9,13.3
	c-0.6-1.6-0.9-3.4-0.9-5.1c0-3.6,1.3-7,3.6-10.1l0.9-0.6l35.3-22.1c7.5-4.7,17-4.7,24.5,0l35.3,22.1l0.9,0.6
	C302.3,116.5,303.6,119.9,303.6,123.5z"/>
<g>
	<path style="fill:#FF7058;" d="M310.5,125.9c0,18.9-26.4,34.2-59,34.2s-59-15.3-59-34.2c0-3.5,0.9-6.9,2.6-10.1
		c5.1-1.9,8.3-3.1,8.3-3.1h0.1c-2.6,3.3-4.1,6.9-4.1,10.7c0,15.3,23.3,27.6,52.1,27.6s52.1-12.4,52.1-27.6c0-3.8-1.5-7.4-4.1-10.7
		l0,0c0,0,3.3,1.2,8.3,3.1C309.6,119,310.5,122.4,310.5,125.9z"/>
	<polygon style="fill:#FF7058;" points="400.9,227.8 365.1,139.4 353.9,162.9 343.1,209.8 340,253.8 	"/>
	<path style="fill:#FF7058;" d="M365.1,139.4c0,0-23.7,30.8-25.2,114.3l4.6-1.9C344.5,251.8,340.9,196.2,365.1,139.4z"/>
	<polygon style="fill:#FF7058;" points="102.1,227.8 137.9,139.4 149.1,162.9 159.8,209.8 163,253.8 	"/>
	<path style="fill:#FF7058;" d="M137.9,139.4c0,0,23.7,30.8,25.2,114.3l-4.6-1.9C158.4,251.8,162.1,196.2,137.9,139.4z"/>
</g>
<g>
</g>
<g>
</g>
<g>
</g>
<g>
</g>
<g>
</g>
<g>
</g>
<g>
</g>
<g>
</g>
<g>
</g>
<g>
</g>
<g>
</g>
<g>
</g>
<g>
</g>
<g>
</g>
<g>
</g>
</svg>
