<?xml version="1.0" encoding="iso-8859-1"?>
<!-- Generator: Adobe Illustrator 19.0.0, SVG Export Plug-In . SVG Version: 6.00 Build 0)  -->
<svg version="1.1" id="Layer_1" xmlns="http://www.w3.org/2000/svg" xmlns:xlink="http://www.w3.org/1999/xlink" x="0px" y="0px"
	 viewBox="0 0 505 505" style="enable-background:new 0 0 505 505;" xml:space="preserve">
<path style="fill:#FFFFFF;" d="M281.2,245v12.4c-9.3,1.7-18.9,2.6-28.7,2.6c-9.8,0-19.4-0.9-28.7-2.6V245c9.3,1.6,18.9,2.4,28.7,2.4
	C262.3,247.4,271.9,246.6,281.2,245z"/>
<circle style="fill:#FD8469;" cx="252.5" cy="252.5" r="252.5"/>
<path style="fill:#FFFFFF;" d="M350.4,100.7H234.5l0,0l-33.4,33.4c17.9,17.9,17.9,46.9,0,64.7c-17.9,17.9-46.9,17.9-64.7,0
	L103,232.2l2.2,2.2l-2.3-2.1v115.9h61.9V294l105.8,105.8l131.6-131.6L296.4,162.6h54V100.7z"/>
<rect x="218.81" y="270.084" transform="matrix(-0.7071 0.7071 -0.7071 -0.7071 594.9292 318.9407)" style="fill:#FFD05B;" width="25.2" height="25.2"/>
<rect x="254.413" y="270.102" transform="matrix(-0.7071 0.7071 -0.7071 -0.7071 655.7191 293.7952)" style="fill:#4CDBC4;" width="25.2" height="25.2"/>
<rect x="254.44" y="234.489" transform="matrix(-0.7071 0.7071 -0.7071 -0.7071 630.5836 232.9812)" style="fill:#FF7058;" width="25.2" height="25.2"/>
<rect x="290.043" y="234.506" transform="matrix(-0.7071 0.7071 -0.7071 -0.7071 691.3735 207.8356)" style="fill:#324A5E;" width="25.2" height="25.2"/>
<g>
</g>
<g>
</g>
<g>
</g>
<g>
</g>
<g>
</g>
<g>
</g>
<g>
</g>
<g>
</g>
<g>
</g>
<g>
</g>
<g>
</g>
<g>
</g>
<g>
</g>
<g>
</g>
<g>
</g>
</svg>
