<?xml version="1.0" encoding="iso-8859-1"?>
<!-- Generator: Adobe Illustrator 19.0.0, SVG Export Plug-In . SVG Version: 6.00 Build 0)  -->
<svg version="1.1" id="Layer_1" xmlns="http://www.w3.org/2000/svg" xmlns:xlink="http://www.w3.org/1999/xlink" x="0px" y="0px"
	 viewBox="0 0 505 505" style="enable-background:new 0 0 505 505;" xml:space="preserve">
<circle style="fill:#90DFAA;" cx="252.5" cy="252.5" r="252.5"/>
<path style="fill:#54C0EB;" d="M425.4,260.4c10.5,3.5,13.2,11.3,13.5,17.7c0.2,5.7-3.1,11-8.4,12.9c-59.9,22.5-135.8,21.3-147.4,21
	c-1,0-1.9-0.2-2.9-0.5c-62.2-18.1-163.6-25.3-188.5-26.9c-4.1-0.3-7.9-2.4-10.2-5.8C61.4,249,85,195.5,94.9,175.9
	c1.7-3.4,6.4-3.9,8.7-0.8c10,13.2,34.5,41.5,59.7,42c0,0,24.7,3.4,55.4-24.7c6.4-5.9,15.6-7.4,23.3-3.4
	c25.3,13.1,79.7,40.4,97.5,42.2c1.8,0.2,3.4,0.9,4.9,1.9c6.4,4.4,24.7,15.2,48.3,16.5c1.1,0.1,2.1,0.2,3.1,0.6L425.4,260.4z"/>
<path style="fill:#4CDBC4;" d="M438.8,278.1c0.3,5.7-3.1,11-8.4,13c-59.8,22.5-135.6,21.3-147.3,20.9c-1,0-2-0.2-2.9-0.4
	c-3.9-1.1-8.1-2.3-12.3-3.2c-62.4-15.7-152.9-22.2-176.2-23.6c-4-0.3-7.8-2.4-10.1-5.7c-15-21.9-6-56.8,3.7-81.6
	c3.5-8.8,6.9-16.3,9.6-21.5c1.8-3.4,6.5-3.9,8.8-0.8c10.1,13.2,34.5,41.5,59.7,42c0,0,24.7,3.4,55.3-24.7c6.4-5.9,15.6-7.4,23.3-3.4
	c5.5,2.8,12.3,6.3,19.8,10.1c27.4,13.6,64,30.8,77.8,32.1c1.7,0.2,3.2,0.8,4.6,1.8c6.3,4.4,24.6,15.3,48.3,16.5c1,0,2.2,0.3,3.1,0.6
	c0,0,0.8,0.2,2.1,0.8l27.6,9.5C435.9,263.9,438.6,271.7,438.8,278.1z"/>
<path style="fill:#2B3B4E;" d="M261.8,199.2c-13.3,18.2-65,35.5-65,35.5c-79.3,0.1-104.4-20.3-111.5-37.2c3.5-8.8,6.9-16.3,9.6-21.5
	c1.8-3.4,6.5-3.9,8.8-0.8c10.1,13.2,34.5,41.5,59.7,42c0,0,24.7,3.4,55.3-24.7c6.4-5.9,15.6-7.4,23.3-3.4
	C247.5,191.9,254.3,195.4,261.8,199.2z"/>
<path style="fill:#324A5E;" d="M426.5,303.1c-32.4,26.5-118,28.6-134.6,28.8c-1.8,0-3.5-0.1-5.3-0.4c-29.9-4.5-121.9-6.3-121.9-6.3
	c-47.1,0.9-73.8-4.8-88.1-10.1c-4.9-1.7-8.3-5.6-9.7-10.2c-1.2-3.6-1.1-7.7,0.5-11.4l10.5-24.6c0,0,102.4,11.6,106.5,11.8
	c4.1,0.2,143.7,11.6,145.1,11.6c1.2,0.1,86.1-18,104.3-22c1.9-0.4,4,0.8,4.3,2.8C440.8,285.7,435.9,295.5,426.5,303.1z"/>
<path style="fill:#E6E9EE;" d="M327.6,306.5c-37.9,12.6-134.2,4-134.2,4C107.3,313.4,78.2,302,67.8,293l10.1-23.9
	c0,0,102.4,11.6,106.5,11.8c1.5,0.1,23.8,1.9,50.5,4h0.1l65.7,13.5L327.6,306.5z"/>
<path style="fill:#324A5E;" d="M137.3,207.8c-4.2,7.1-14.8,12.3-37.6,10.8c0,0-20.3,4.4-3.9,21.2L74,244.3c0.2-5,0.9-10.2,1.9-15.3
	c4.2-21.6,13.7-42.5,19.1-53.2c1.7-3.4,6.4-3.9,8.7-0.8C110.1,183.6,122.5,198.3,137.3,207.8z"/>
<path style="fill:#E6E9EE;" d="M286,234.3l10.2,5.9l-45.4,34.6l-10.2-5.9l6.7-34.2l-28.4,21.7l-10.2-5.9l45.4-34.6l9.5,5.5
	l-6.8,35.2L286,234.3z"/>
<path style="fill:#324A5E;" d="M365.7,244l-10.3,13.6c-3.1,4.1-8,6.2-13.1,5.6l-28.6-3.4c-5.4-0.6-10.7,1.9-13.6,6.3l-28.4,43.1
	c-9.3-2.4-19.2-4.6-29.5-6.6c-14.3-2.8-29.4-5.3-44.1-7.3l-8.2-10.2c-4.4-5.3-4.1-13,0.5-18.4c19.9-23.4,19.1-46.6,14-63.1
	c4.5-3,9.3-6.8,14.3-11.3c6.4-5.8,15.5-7.3,23.2-3.4c25.2,13,79.8,40.3,97.5,42.1c1.8,0.2,3.4,0.9,4.9,1.9
	C348,235.5,355.5,240.2,365.7,244z"/>
<g>
	<path style="fill:#2B3B4E;" d="M242.2,302.6C182.9,291,112,285.9,91.7,284.7c-4.2-0.2-8-2.5-10.3-5.9c-9.1-13.5-9.2-31.7-5.6-49.7
		C104.2,231.3,208.8,243.3,242.2,302.6z"/>
	<path style="fill:#2B3B4E;" d="M426.5,303.1c-32.4,26.5-118,28.6-134.6,28.8c-1.8,0-3.5-0.1-5.3-0.4c-29.9-4.5-121.9-6.3-121.9-6.3
		c-47.1,0.9-73.8-4.8-88.1-10.1c-4.9-1.7-8.3-5.6-9.7-10.2c12.4,7.3,45.8,18.7,142.5,15.6c0,0,58.5-3.2,89.7,2.9
		c8.4,1.7,17.1,1.7,25.6,0.6C348.1,321,392.5,314.1,426.5,303.1z"/>
	<path style="fill:#2B3B4E;" d="M438.8,278.1c0.3,5.7-3.1,11-8.4,13c-59.8,22.5-135.6,21.3-147.3,20.9c-1,0-2-0.2-2.9-0.4
		c-3.9-1.1-8.1-2.3-12.3-3.2l8.7-11.4c3.3-4.3,8.4-7,13.9-7.4c24.7-1.6,95.3-6.8,117.4-15.6c23-9.1-2.4-20.2-10-23.1l27.6,9.5
		C435.9,263.9,438.6,271.7,438.8,278.1z"/>
</g>
<circle style="fill:#E6E9EE;" cx="346.7" cy="247.8" r="7.2"/>
<circle style="fill:#ACB3BA;" cx="346.7" cy="247.8" r="4.5"/>
<circle style="fill:#E6E9EE;" cx="320.9" cy="239.4" r="7.2"/>
<circle style="fill:#ACB3BA;" cx="320.9" cy="239.4" r="4.5"/>
<circle style="fill:#E6E9EE;" cx="293" cy="228.8" r="7.2"/>
<circle style="fill:#ACB3BA;" cx="293" cy="228.8" r="4.5"/>
<circle style="fill:#E6E9EE;" cx="265.5" cy="216.5" r="7.2"/>
<circle style="fill:#ACB3BA;" cx="265.5" cy="216.5" r="4.5"/>
<circle style="fill:#E6E9EE;" cx="238.5" cy="203.5" r="7.2"/>
<circle style="fill:#ACB3BA;" cx="238.5" cy="203.5" r="4.5"/>
<g>
</g>
<g>
</g>
<g>
</g>
<g>
</g>
<g>
</g>
<g>
</g>
<g>
</g>
<g>
</g>
<g>
</g>
<g>
</g>
<g>
</g>
<g>
</g>
<g>
</g>
<g>
</g>
<g>
</g>
</svg>
