<?xml version="1.0" encoding="iso-8859-1"?>
<!-- Generator: Adobe Illustrator 19.0.0, SVG Export Plug-In . SVG Version: 6.00 Build 0)  -->
<svg version="1.1" id="Layer_1" xmlns="http://www.w3.org/2000/svg" xmlns:xlink="http://www.w3.org/1999/xlink" x="0px" y="0px"
	 viewBox="0 0 505 505" style="enable-background:new 0 0 505 505;" xml:space="preserve">
<circle style="fill:#FFD05B;" cx="252.5" cy="252.5" r="252.5"/>
<path style="fill:#FFFFFF;" d="M409.3,131.1h-49.1c-2.7,0-5,1.8-5.7,4.4l-13.2,49H92.9c-1.8,0-3.5,0.9-4.7,2.3
	c-1.1,1.4-1.5,3.3-1,5.1l37.9,143c0.7,2.6,3,4.4,5.7,4.4h177.1c2.7,0,5-1.8,5.7-4.4l37.9-143l0,0l13.2-49h44.6
	c3.2,0,5.9-2.6,5.9-5.9C415.2,133.7,412.6,131.1,409.3,131.1z"/>
<g>
	<path style="fill:#324A5E;" d="M173.1,358.8c-16.5,0-29.9,13.4-29.9,29.9s13.4,29.9,29.9,29.9s29.9-13.4,29.9-29.9
		S189.6,358.8,173.1,358.8z"/>
	<path style="fill:#324A5E;" d="M265.6,358.8c-16.5,0-29.9,13.4-29.9,29.9s13.4,29.9,29.9,29.9s29.9-13.4,29.9-29.9
		S282.1,358.8,265.6,358.8z"/>
</g>
<g>
	<path style="fill:#EDF2F2;" d="M265.6,369.5c-10.6,0-19.2,8.6-19.2,19.2s8.6,19.2,19.2,19.2s19.2-8.6,19.2-19.2
		C284.8,378.1,276.2,369.5,265.6,369.5z"/>
	<path style="fill:#EDF2F2;" d="M173.1,369.5c-10.6,0-19.2,8.6-19.2,19.2s8.6,19.2,19.2,19.2c10.6,0,19.2-8.6,19.2-19.2
		C192.4,378.1,183.7,369.5,173.1,369.5z"/>
</g>
<path style="fill:#324A5E;" d="M418.1,128.4h-46.2c-1.1,0-2,0.9-2,2v12.9c0,1.1,0.9,2,2,2h46.2c1.1,0,2-0.9,2-2v-12.9
	C420.1,129.3,419.2,128.4,418.1,128.4z"/>
<polygon style="fill:#4CDBC4;" points="258.3,254.2 219.4,293.2 180.4,254.2 198.9,254.2 198.9,217.4 239.8,217.4 239.8,254.2 "/>
<g>
</g>
<g>
</g>
<g>
</g>
<g>
</g>
<g>
</g>
<g>
</g>
<g>
</g>
<g>
</g>
<g>
</g>
<g>
</g>
<g>
</g>
<g>
</g>
<g>
</g>
<g>
</g>
<g>
</g>
</svg>
