<?xml version="1.0" encoding="iso-8859-1"?>
<!-- Generator: Adobe Illustrator 19.0.0, SVG Export Plug-In . SVG Version: 6.00 Build 0)  -->
<svg version="1.1" id="Layer_1" xmlns="http://www.w3.org/2000/svg" xmlns:xlink="http://www.w3.org/1999/xlink" x="0px" y="0px"
	 viewBox="0 0 505 505" style="enable-background:new 0 0 505 505;" xml:space="preserve">
<circle style="fill:#324A5E;" cx="252.5" cy="252.5" r="252.5"/>
<path style="fill:#E6E9EE;" d="M394,378l16.2-157.5H94.8L111,378c0.9,8.7,8.2,15.3,17,15.3h249.1C385.8,393.3,393.1,386.7,394,378z"
	/>
<path style="fill:#FFFFFF;" d="M412.7,170.2H92.3c-7.6,0-13.8,6.2-13.8,13.8v51c0,0.6,0.5,1.1,1.1,1.1h345.8c0.6,0,1.1-0.5,1.1-1.1
	v-51C426.5,176.4,420.3,170.2,412.7,170.2z"/>
<g>
	<circle style="fill:#324A5E;" cx="328.6" cy="203.2" r="17.8"/>
	<path style="fill:#324A5E;" d="M355.9,297.9h-24.7c-0.9,0-1.7-0.8-1.7-1.7v-38.5c0-0.9,0.8-1.7,1.7-1.7h24.7c0.9,0,1.7,0.8,1.7,1.7
		v38.5C357.5,297.1,356.8,297.9,355.9,297.9z"/>
	<path style="fill:#324A5E;" d="M295.2,297.9h-24.7c-0.9,0-1.7-0.8-1.7-1.7v-38.5c0-0.9,0.8-1.7,1.7-1.7h24.7c0.9,0,1.7,0.8,1.7,1.7
		v38.5C296.9,297.1,296.1,297.9,295.2,297.9z"/>
	<path style="fill:#324A5E;" d="M234.5,297.9h-24.7c-0.9,0-1.7-0.8-1.7-1.7v-38.5c0-0.9,0.8-1.7,1.7-1.7h24.7c0.9,0,1.7,0.8,1.7,1.7
		v38.5C236.2,297.1,235.5,297.9,234.5,297.9z"/>
	<path style="fill:#324A5E;" d="M173.9,297.9h-24.7c-0.9,0-1.7-0.8-1.7-1.7v-38.5c0-0.9,0.8-1.7,1.7-1.7h24.7c0.9,0,1.7,0.8,1.7,1.7
		v38.5C175.6,297.1,174.8,297.9,173.9,297.9z"/>
	<path style="fill:#324A5E;" d="M355.9,364.9h-24.7c-0.9,0-1.7-0.8-1.7-1.7v-38.5c0-0.9,0.8-1.7,1.7-1.7h24.7c0.9,0,1.7,0.8,1.7,1.7
		v38.5C357.5,364.2,356.8,364.9,355.9,364.9z"/>
	<path style="fill:#324A5E;" d="M295.2,364.9h-24.7c-0.9,0-1.7-0.8-1.7-1.7v-38.5c0-0.9,0.8-1.7,1.7-1.7h24.7c0.9,0,1.7,0.8,1.7,1.7
		v38.5C296.9,364.2,296.1,364.9,295.2,364.9z"/>
	<path style="fill:#324A5E;" d="M234.5,364.9h-24.7c-0.9,0-1.7-0.8-1.7-1.7v-38.5c0-0.9,0.8-1.7,1.7-1.7h24.7c0.9,0,1.7,0.8,1.7,1.7
		v38.5C236.2,364.2,235.5,364.9,234.5,364.9z"/>
	<path style="fill:#324A5E;" d="M173.9,364.9h-24.7c-0.9,0-1.7-0.8-1.7-1.7v-38.5c0-0.9,0.8-1.7,1.7-1.7h24.7c0.9,0,1.7,0.8,1.7,1.7
		v38.5C175.6,364.2,174.8,364.9,173.9,364.9z"/>
	<circle style="fill:#324A5E;" cx="176.4" cy="203.2" r="17.8"/>
</g>
<g>
	<path style="fill:#4CDBC4;" d="M454.3,285.1l-119.8-89.8c-4.4-3.3-10.5-2.4-13.8,2s-2.4,10.5,2,13.8l119.7,89.8
		c1.8,1.3,3.8,2,5.9,2c3,0,6-1.4,7.9-3.9C459.5,294.5,458.6,288.3,454.3,285.1z"/>
	<path style="fill:#4CDBC4;" d="M170.5,195.3L50.7,285.1c-4.4,3.3-5.2,9.4-2,13.8c1.9,2.6,4.9,3.9,7.9,3.9c2.1,0,4.1-0.6,5.9-2
		L182.2,211c4.4-3.3,5.2-9.4,2-13.8C181,192.9,174.8,192,170.5,195.3z"/>
</g>
<g>
</g>
<g>
</g>
<g>
</g>
<g>
</g>
<g>
</g>
<g>
</g>
<g>
</g>
<g>
</g>
<g>
</g>
<g>
</g>
<g>
</g>
<g>
</g>
<g>
</g>
<g>
</g>
<g>
</g>
</svg>
