<?xml version="1.0" encoding="iso-8859-1"?>
<!-- Generator: Adobe Illustrator 19.0.0, SVG Export Plug-In . SVG Version: 6.00 Build 0)  -->
<svg version="1.1" id="Layer_1" xmlns="http://www.w3.org/2000/svg" xmlns:xlink="http://www.w3.org/1999/xlink" x="0px" y="0px"
	 viewBox="0 0 505 505" style="enable-background:new 0 0 505 505;" xml:space="preserve">
<circle style="fill:#FFD05B;" cx="252.5" cy="252.5" r="252.5"/>
<path style="fill:#FF7058;" d="M395.7,376.7l-36.9-249.8c-0.4-2.5-2.5-4.3-5-4.3H151.2c-2.5,0-4.6,1.8-5,4.3l-36.9,249.8
	c-0.5,3.1,1.9,5.8,5,5.8h276.4C393.8,382.5,396.2,379.7,395.7,376.7z"/>
<g>
	<circle style="fill:#334D5D;" cx="308.2" cy="178" r="13"/>
	<circle style="fill:#334D5D;" cx="196" cy="178" r="13"/>
</g>
<path style="fill:#EDF2F2;" d="M252.5,306.4c-36.2,0-60.8-95.1-60.8-126.7c0-2.8,2.3-5.1,5.1-5.1s5.1,2.3,5.1,5.1
	c0,35.7,25.9,116.5,50.6,116.5s50.6-80.8,50.6-116.5c0-2.8,2.3-5.1,5.1-5.1s5.1,2.3,5.1,5.1C313.3,211.3,288.7,306.4,252.5,306.4z"
	/>
<g>
</g>
<g>
</g>
<g>
</g>
<g>
</g>
<g>
</g>
<g>
</g>
<g>
</g>
<g>
</g>
<g>
</g>
<g>
</g>
<g>
</g>
<g>
</g>
<g>
</g>
<g>
</g>
<g>
</g>
</svg>
