<?xml version="1.0" encoding="iso-8859-1"?>
<!-- Generator: Adobe Illustrator 19.0.0, SVG Export Plug-In . SVG Version: 6.00 Build 0)  -->
<svg version="1.1" id="Layer_1" xmlns="http://www.w3.org/2000/svg" xmlns:xlink="http://www.w3.org/1999/xlink" x="0px" y="0px"
	 viewBox="0 0 505 505" style="enable-background:new 0 0 505 505;" xml:space="preserve">
<circle style="fill:#FFD05B;" cx="252.5" cy="252.5" r="252.5"/>
<path style="fill:#FF7058;" d="M374,383.8l-31.3-212c-0.3-2.1-2.1-3.7-4.2-3.7h-172c-2.1,0-3.9,1.6-4.2,3.7l-31.3,212
	c-0.4,2.6,1.6,4.9,4.2,4.9h234.6C372.4,388.8,374.4,386.4,374,383.8z"/>
<path style="fill:#334D5D;" d="M299.8,217.6c-2.3,0-4.2-1.9-4.2-4.2v-78.3c0-23.8-19.3-43.1-43.1-43.1s-43.1,19.3-43.1,43.1v78.4
	c0,2.3-1.9,4.2-4.2,4.2s-4.2-1.9-4.2-4.2v-78.3c0-28.4,23.1-51.5,51.5-51.5s51.5,23.1,51.5,51.5v78.3
	C304,215.8,302.1,217.6,299.8,217.6z"/>
<g>
	<path style="fill:#EDF2F2;" d="M227.4,295.9c-5.6,0-10.1-1.8-13.5-5.3c-3.4-3.6-5.1-8.3-5.1-14.3c0-6.6,1.8-11.8,5.5-15.6
		c3.6-3.8,8.5-5.8,14.6-5.8c5.8,0,10.4,1.7,13.6,5.2c3.3,3.5,4.9,8.4,4.9,14.7c0,6.5-1.8,11.6-5.4,15.4
		C238.2,294,233.4,295.9,227.4,295.9z M284.8,256l-51.3,78.7h-13.4l51.2-78.7H284.8z M228.4,264.6c-5.3,0-8,3.7-8,11.1
		c0,7,2.5,10.5,7.6,10.5c5.2,0,7.8-3.7,7.8-11C235.8,268.2,233.3,264.6,228.4,264.6z M276.4,335.9c-5.6,0-10.1-1.8-13.5-5.3
		c-3.4-3.6-5.1-8.3-5.1-14.3c0-6.6,1.8-11.8,5.5-15.6c3.6-3.8,8.5-5.8,14.6-5.8c5.9,0,10.4,1.7,13.7,5.2s4.9,8.3,4.9,14.6
		c0,6.5-1.8,11.6-5.4,15.5C287.3,333.9,282.4,335.9,276.4,335.9z M277.3,304.5c-5.3,0-8,3.7-8,11.1c0,7,2.6,10.5,7.7,10.5
		c5.2,0,7.8-3.7,7.8-11c0-3.4-0.7-6-2.1-7.9C281.4,305.4,279.5,304.5,277.3,304.5z"/>
	<circle style="fill:#EDF2F2;" cx="205.2" cy="215.3" r="13"/>
	<circle style="fill:#EDF2F2;" cx="300.3" cy="215.3" r="13"/>
</g>
<g>
</g>
<g>
</g>
<g>
</g>
<g>
</g>
<g>
</g>
<g>
</g>
<g>
</g>
<g>
</g>
<g>
</g>
<g>
</g>
<g>
</g>
<g>
</g>
<g>
</g>
<g>
</g>
<g>
</g>
</svg>
