<?xml version="1.0" encoding="iso-8859-1"?>
<!-- Generator: Adobe Illustrator 19.0.0, SVG Export Plug-In . SVG Version: 6.00 Build 0)  -->
<svg version="1.1" id="Layer_1" xmlns="http://www.w3.org/2000/svg" xmlns:xlink="http://www.w3.org/1999/xlink" x="0px" y="0px"
	 viewBox="0 0 505 505" style="enable-background:new 0 0 505 505;" xml:space="preserve">
<circle style="fill:#90DFAA;" cx="252.5" cy="252.5" r="252.5"/>
<path style="fill:#FFFFFF;" d="M401.9,132.8h-47.4c-2.6,0-4.8,1.7-5.5,4.2l-12.7,47.3H96.8c-1.8,0-3.4,0.8-4.5,2.2s-1.4,3.2-1,4.9
	l36.5,137.8c0.7,2.5,2.9,4.2,5.5,4.2h170.8c2.6,0,4.8-1.7,5.5-4.2l36.5-137.8l0,0l12.7-47.2h43c3.1,0,5.7-2.5,5.7-5.7
	C407.6,135.4,405,132.8,401.9,132.8z"/>
<g>
	<path style="fill:#324A5E;" d="M174.2,352.4c-15.9,0-28.8,12.9-28.8,28.8s12.9,28.8,28.8,28.8s28.8-12.9,28.8-28.8
		S190.1,352.4,174.2,352.4z"/>
	<path style="fill:#324A5E;" d="M263.3,352.4c-15.9,0-28.8,12.9-28.8,28.8s12.9,28.8,28.8,28.8s28.8-12.9,28.8-28.8
		S279.2,352.4,263.3,352.4z"/>
</g>
<g>
	<path style="fill:#EDF2F2;" d="M263.3,362.7c-10.2,0-18.5,8.3-18.5,18.5s8.3,18.5,18.5,18.5s18.5-8.3,18.5-18.5
		S273.6,362.7,263.3,362.7z"/>
	<path style="fill:#EDF2F2;" d="M174.2,362.7c-10.2,0-18.5,8.3-18.5,18.5s8.3,18.5,18.5,18.5s18.5-8.3,18.5-18.5
		S184.4,362.7,174.2,362.7z"/>
</g>
<path style="fill:#324A5E;" d="M410.4,130.2h-44.5c-1.1,0-2,0.9-2,2v12.4c0,1.1,0.9,2,2,2h44.5c1.1,0,2-0.9,2-2v-12.4
	C412.3,131.1,411.5,130.2,410.4,130.2z"/>
<polygon style="fill:#FF7058;" points="256.3,253.6 218.8,216 181.2,253.6 199.1,253.6 199.1,289.1 238.5,289.1 238.5,253.6 "/>
<g>
</g>
<g>
</g>
<g>
</g>
<g>
</g>
<g>
</g>
<g>
</g>
<g>
</g>
<g>
</g>
<g>
</g>
<g>
</g>
<g>
</g>
<g>
</g>
<g>
</g>
<g>
</g>
<g>
</g>
</svg>
