<?xml version="1.0" encoding="iso-8859-1"?>
<!-- Generator: Adobe Illustrator 19.0.0, SVG Export Plug-In . SVG Version: 6.00 Build 0)  -->
<svg version="1.1" id="Layer_1" xmlns="http://www.w3.org/2000/svg" xmlns:xlink="http://www.w3.org/1999/xlink" x="0px" y="0px"
	 viewBox="0 0 505 505" style="enable-background:new 0 0 505 505;" xml:space="preserve">
<circle style="fill:#84DBFF;" cx="252.5" cy="252.5" r="252.5"/>
<rect x="138.4" y="112.7" style="fill:#EDF2F2;" width="228.2" height="96"/>
<rect x="138.4" y="148.2" style="fill:#FF7058;" width="228.2" height="244.1"/>
<g>
	<polygon style="fill:#F1543F;" points="366.6,148.2 366.6,112.7 319.4,126.9 	"/>
	<polygon style="fill:#F1543F;" points="138.4,148.2 138.4,112.7 185.6,126.9 	"/>
</g>
<g>
	<circle style="fill:#EDF2F2;" cx="301.6" cy="191.6" r="10"/>
	<circle style="fill:#EDF2F2;" cx="203.4" cy="191.6" r="10"/>
</g>
<path style="fill:#2B3B4E;" d="M301.6,191.6L301.6,191.6c-2.8,0-5,2.3-5,5v80.7c0,24.6-20.2,45.6-44.8,45.2
	c-23.9-0.4-43.3-20-43.3-44v-81.9c0-2.8-2.3-5-5-5c-2.8,0-5,2.3-5,5v80.6c0,29.3,22.7,54.3,52,55.4c30.8,1.2,56.2-23.5,56.2-54.1
	v-81.9C306.6,193.8,304.4,191.6,301.6,191.6z"/>
<g>
</g>
<g>
</g>
<g>
</g>
<g>
</g>
<g>
</g>
<g>
</g>
<g>
</g>
<g>
</g>
<g>
</g>
<g>
</g>
<g>
</g>
<g>
</g>
<g>
</g>
<g>
</g>
<g>
</g>
</svg>
