<?xml version="1.0" encoding="iso-8859-1"?>
<!-- Generator: Adobe Illustrator 19.0.0, SVG Export Plug-In . SVG Version: 6.00 Build 0)  -->
<svg version="1.1" id="Layer_1" xmlns="http://www.w3.org/2000/svg" xmlns:xlink="http://www.w3.org/1999/xlink" x="0px" y="0px"
	 viewBox="0 0 505 505" style="enable-background:new 0 0 505 505;" xml:space="preserve">
<circle style="fill:#324A5E;" cx="252.5" cy="252.5" r="252.5"/>
<path style="fill:#FFD05B;" d="M374.1,379.9H127.6c-1.7,0-3-1.3-3-3V123.5c0-1.7,1.3-3,3-3h246.5c1.7,0,3,1.3,3,3v253.4
	C377.2,378.5,375.8,379.9,374.1,379.9z"/>
<path style="fill:#F9B54C;" d="M282.8,120.5V151c-0.7-0.7-1.3-1.7-2-2.4c-0.9-0.9-2.2-1.5-3.1-0.8c-0.5,0.4-0.8,0.9-1.3,1.1
	c-1.4,0.5-2-2.7-3.5-3.1c-0.7-0.2-1.3,0.3-1.8,0.8c-1.7,1.3-3.4,2.7-5.1,4.1c-1.6-2.1-4-4.3-6.2-3.2c0.4,1.1,0.8,2.1,1.2,3.2
	c-1.5-2.4-4.8-1.3-7.2-2.6c-0.7-0.4-1.4-0.9-2.1-1c-0.8-0.1-1.6,0.8-1.3,1.7c-1.6-1.6-3.7-2.5-5.8-2.4c0.3,1.2,0.7,2.4,1,3.7
	c-1.8-2.5-4.6-3.8-7.4-3.4c0.3,0.5,0.2,1.2-0.2,1.7c-0.6-1.3-1.5-2.5-2.5-3.4c0.3,1.1,0.5,2.3,0.8,3.5c-0.9-0.7-1.9-1.3-2.9-1.2
	c-1.1,0.1-2.1,1.3-1.7,2.5c-1-0.9-2-1.8-2.9-2.8c0.2,0.8-0.8,1.2-1.4,1.2c-2.8,0-5.6,0-8.5,0v-27.7H282.8z"/>
<path style="fill:#E6E9EE;" d="M394,384.5L410.2,227H94.8L111,384.5c0.9,8.7,8.2,15.3,17,15.3h249.1
	C385.8,399.7,393.1,393.1,394,384.5z"/>
<path style="fill:#FFFFFF;" d="M424.7,242.6H80.3c-1,0-1.8-0.8-1.8-1.8v-62.4c0-1,0.8-1.8,1.8-1.8h344.5c1,0,1.8,0.8,1.8,1.8v62.4
	C426.5,241.8,425.7,242.6,424.7,242.6z"/>
<circle style="fill:#324A5E;" cx="328.6" cy="209.6" r="17.8"/>
<g>
	<path style="fill:#F9B54C;" d="M355.9,304.3h-24.7c-0.9,0-1.7-0.8-1.7-1.7v-38.5c0-0.9,0.8-1.7,1.7-1.7h24.7c0.9,0,1.7,0.8,1.7,1.7
		v38.5C357.5,303.5,356.8,304.3,355.9,304.3z"/>
	<path style="fill:#F9B54C;" d="M295.2,304.3h-24.7c-0.9,0-1.7-0.8-1.7-1.7v-38.5c0-0.9,0.8-1.7,1.7-1.7h24.7c0.9,0,1.7,0.8,1.7,1.7
		v38.5C296.9,303.5,296.1,304.3,295.2,304.3z"/>
	<path style="fill:#F9B54C;" d="M234.5,304.3h-24.7c-0.9,0-1.7-0.8-1.7-1.7v-38.5c0-0.9,0.8-1.7,1.7-1.7h24.7c0.9,0,1.7,0.8,1.7,1.7
		v38.5C236.2,303.5,235.5,304.3,234.5,304.3z"/>
	<path style="fill:#F9B54C;" d="M173.9,304.3h-24.7c-0.9,0-1.7-0.8-1.7-1.7v-38.5c0-0.9,0.8-1.7,1.7-1.7h24.7c0.9,0,1.7,0.8,1.7,1.7
		v38.5C175.6,303.5,174.8,304.3,173.9,304.3z"/>
	<path style="fill:#F9B54C;" d="M355.9,371.4h-24.7c-0.9,0-1.7-0.8-1.7-1.7v-38.5c0-0.9,0.8-1.7,1.7-1.7h24.7c0.9,0,1.7,0.8,1.7,1.7
		v38.5C357.5,370.6,356.8,371.4,355.9,371.4z"/>
	<path style="fill:#F9B54C;" d="M295.2,371.4h-24.7c-0.9,0-1.7-0.8-1.7-1.7v-38.5c0-0.9,0.8-1.7,1.7-1.7h24.7c0.9,0,1.7,0.8,1.7,1.7
		v38.5C296.9,370.6,296.1,371.4,295.2,371.4z"/>
	<path style="fill:#F9B54C;" d="M234.5,371.4h-24.7c-0.9,0-1.7-0.8-1.7-1.7v-38.5c0-0.9,0.8-1.7,1.7-1.7h24.7c0.9,0,1.7,0.8,1.7,1.7
		v38.5C236.2,370.6,235.5,371.4,234.5,371.4z"/>
	<path style="fill:#F9B54C;" d="M173.9,371.4h-24.7c-0.9,0-1.7-0.8-1.7-1.7v-38.5c0-0.9,0.8-1.7,1.7-1.7h24.7c0.9,0,1.7,0.8,1.7,1.7
		v38.5C175.6,370.6,174.8,371.4,173.9,371.4z"/>
</g>
<circle style="fill:#324A5E;" cx="176.4" cy="209.6" r="17.8"/>
<g>
	<path style="fill:#4CDBC4;" d="M454.3,291.5l-119.8-89.8c-4.4-3.3-10.5-2.4-13.8,2s-2.4,10.5,2,13.8l119.7,89.8
		c1.8,1.3,3.8,2,5.9,2c3,0,6-1.4,7.9-3.9C459.5,300.9,458.6,294.7,454.3,291.5z"/>
	<path style="fill:#4CDBC4;" d="M170.5,201.7L50.7,291.5c-4.4,3.3-5.2,9.4-2,13.8c1.9,2.6,4.9,3.9,7.9,3.9c2.1,0,4.1-0.6,5.9-2
		l119.8-89.7c4.4-3.3,5.2-9.4,2-13.8C181,199.3,174.8,198.5,170.5,201.7z"/>
</g>
<g>
</g>
<g>
</g>
<g>
</g>
<g>
</g>
<g>
</g>
<g>
</g>
<g>
</g>
<g>
</g>
<g>
</g>
<g>
</g>
<g>
</g>
<g>
</g>
<g>
</g>
<g>
</g>
<g>
</g>
</svg>
