<?xml version="1.0" encoding="iso-8859-1"?>
<!-- Generator: Adobe Illustrator 19.0.0, SVG Export Plug-In . SVG Version: 6.00 Build 0)  -->
<svg version="1.1" id="Layer_1" xmlns="http://www.w3.org/2000/svg" xmlns:xlink="http://www.w3.org/1999/xlink" x="0px" y="0px"
	 viewBox="0 0 505 505" style="enable-background:new 0 0 505 505;" xml:space="preserve">
<circle style="fill:#FD8469;" cx="252.5" cy="252.5" r="252.5"/>
<path style="fill:#FFFFFF;" d="M380.2,408.2H124.8c-10.5,0-18.8-9-17.9-19.5l20.2-236.4c0.8-9.3,8.6-16.4,17.9-16.4h215.1
	c9.3,0,17.1,7.1,17.9,16.4l20.2,236.4C399,399.2,390.7,408.2,380.2,408.2z"/>
<path style="fill:#324A5E;" d="M317.7,200.1c-3.6,0-6.6-2.9-6.6-6.6v-63.3c0-32.3-26.3-58.6-58.6-58.6s-58.6,26.3-58.6,58.6v63.3
	c0,3.6-2.9,6.6-6.6,6.6s-6.6-2.9-6.6-6.6v-63.3c0-39.6,32.2-71.8,71.8-71.8s71.8,32.2,71.8,71.8v63.3
	C324.3,197.2,321.3,200.1,317.7,200.1z"/>
<g>
	<path style="fill:#4CDBC4;" d="M160.2,314.4c-1,1.3-1.2,2.8-0.8,4.5s1.5,2.8,3.3,3.3c1.8,0.6,5.5,0.8,11.3,0.7
		c5.8-0.1,10.5,0.7,14.2,2.6s6.2,5.3,7.6,10.4c1.4,5.1,0.6,9.8-2.4,14s-7.6,7.2-13.8,8.9c-9,2.4-18,1.3-27.1-3.4l5.1-11.3
		c7.6,3.7,14,4.9,19.2,3.5c2.3-0.6,4-1.6,5.1-3s1.4-2.9,0.9-4.6s-1.5-2.9-3.2-3.5s-4.8-0.9-9.2-0.8c-7.1,0.2-12.4-0.5-16.2-2.2
		s-6.4-5.2-7.8-10.6c-1.5-5.4-0.6-10.1,2.4-14.1c3.1-4,7.5-6.8,13.3-8.3c3.8-1,7.8-1.4,11.9-1.1c4.2,0.3,8,1.2,11.4,2.9l-3.9,11
		c-6-2.4-11.6-2.9-16.8-1.5C162.6,312.1,161.1,313,160.2,314.4z"/>
	<path style="fill:#4CDBC4;" d="M251,338.7l-8.6-10.9l-23.9,6.5l-2,13.7l-13.5,3.7l9.2-63.6l12.3-3.3l40,50.3L251,338.7z M223,303.3
		l-2.7,18.5l14.3-3.9L223,303.3z"/>
	<path style="fill:#4CDBC4;" d="M271.2,333.2l-15.4-56.9l12.7-3.4l12.3,45.6l24.3-6.6l3.1,11.3L271.2,333.2z"/>
	<path style="fill:#4CDBC4;" d="M343,252.7l3.1,11.3l-28.3,7.7l3.2,11.7l25.5-6.9l2.9,10.8l-25.5,6.9l3.2,11.8l29.2-7.9l3,11.2
		l-41.9,11.4L302,263.8L343,252.7z"/>
</g>
<g>
	<circle style="fill:#54C0EB;" cx="317.7" cy="193.5" r="17.2"/>
	<circle style="fill:#54C0EB;" cx="185.8" cy="193.5" r="17.2"/>
</g>
<g>
</g>
<g>
</g>
<g>
</g>
<g>
</g>
<g>
</g>
<g>
</g>
<g>
</g>
<g>
</g>
<g>
</g>
<g>
</g>
<g>
</g>
<g>
</g>
<g>
</g>
<g>
</g>
<g>
</g>
</svg>
