<?xml version="1.0" encoding="iso-8859-1"?>
<!-- Generator: Adobe Illustrator 19.0.0, SVG Export Plug-In . SVG Version: 6.00 Build 0)  -->
<svg version="1.1" id="Layer_1" xmlns="http://www.w3.org/2000/svg" xmlns:xlink="http://www.w3.org/1999/xlink" x="0px" y="0px"
	 viewBox="0 0 505 505" style="enable-background:new 0 0 505 505;" xml:space="preserve">
<circle style="fill:#90DFAA;" cx="252.5" cy="252.5" r="252.5"/>
<path style="fill:#2C9984;" d="M48.8,401.6C94.7,464.3,168.8,505,252.5,505s157.7-40.7,203.7-103.4H48.8z"/>
<rect x="90.2" y="373" style="fill:#324A5E;" width="324.6" height="28.6"/>
<rect x="116.1" y="165.9" style="fill:#FFFFFF;" width="272.9" height="207.1"/>
<polygon style="fill:#FF7058;" points="415.3,171.7 368.8,171.7 333.5,115.2 365.8,115.2 "/>
<polygon style="fill:#E6E9EE;" points="368.8,171.7 322.3,171.7 301.1,115.2 333.5,115.2 "/>
<polygon style="fill:#FF7058;" points="322.3,171.7 275.8,171.7 268.7,115.2 301.1,115.2 "/>
<polygon style="fill:#E6E9EE;" points="275.8,171.7 229.2,171.7 236.3,115.2 268.7,115.2 "/>
<g>
	<polygon style="fill:#FF7058;" points="229.2,171.7 182.7,171.7 203.9,115.2 236.3,115.2 	"/>
	<polygon style="fill:#FF7058;" points="136.2,171.7 89.7,171.7 139.2,115.2 171.5,115.2 	"/>
</g>
<polygon style="fill:#E6E9EE;" points="182.7,171.7 136.2,171.7 171.5,115.2 203.9,115.2 "/>
<path style="fill:#F1543F;" d="M411.8,202.2h-39.5c-1.9,0-3.5-1.6-3.5-3.5v-26.9h46.5v26.9C415.3,200.6,413.7,202.2,411.8,202.2z"/>
<path style="fill:#E6E9EE;" d="M365.3,202.2h-39.5c-1.9,0-3.5-1.6-3.5-3.5v-26.9h46.5v26.9C368.8,200.6,367.2,202.2,365.3,202.2z"/>
<path style="fill:#F1543F;" d="M318.8,202.2h-39.5c-1.9,0-3.5-1.6-3.5-3.5v-26.9h46.5v26.9C322.3,200.6,320.7,202.2,318.8,202.2z"/>
<path style="fill:#E6E9EE;" d="M272.2,202.2h-39.5c-1.9,0-3.5-1.6-3.5-3.5v-26.9h46.5v26.9C275.8,200.6,274.2,202.2,272.2,202.2z"/>
<g>
	<path style="fill:#F1543F;" d="M225.7,202.2h-39.5c-1.9,0-3.5-1.6-3.5-3.5v-26.9h46.5v26.9C229.2,200.6,227.7,202.2,225.7,202.2z"
		/>
	<path style="fill:#F1543F;" d="M132.7,202.2H93.2c-1.9,0-3.5-1.6-3.5-3.5v-26.9h46.5v26.9C136.2,200.6,134.6,202.2,132.7,202.2z"/>
</g>
<g>
	<path style="fill:#E6E9EE;" d="M179.2,202.2h-39.5c-1.9,0-3.5-1.6-3.5-3.5v-26.9h46.5v26.9C182.7,200.6,181.1,202.2,179.2,202.2z"
		/>
	<rect x="140.6" y="218.3" style="fill:#E6E9EE;" width="223.8" height="134.8"/>
</g>
<rect x="149.1" y="226.8" style="fill:#54C0EB;" width="206.9" height="117.9"/>
<polygon style="fill:#84DBFF;" points="149.1,226.8 149.1,344.7 223.6,344.7 268.7,226.8 "/>
<g>
</g>
<g>
</g>
<g>
</g>
<g>
</g>
<g>
</g>
<g>
</g>
<g>
</g>
<g>
</g>
<g>
</g>
<g>
</g>
<g>
</g>
<g>
</g>
<g>
</g>
<g>
</g>
<g>
</g>
</svg>
