<?xml version="1.0" encoding="iso-8859-1"?>
<!-- Generator: Adobe Illustrator 19.0.0, SVG Export Plug-In . SVG Version: 6.00 Build 0)  -->
<svg version="1.1" id="Layer_1" xmlns="http://www.w3.org/2000/svg" xmlns:xlink="http://www.w3.org/1999/xlink" x="0px" y="0px"
	 viewBox="0 0 505 505" style="enable-background:new 0 0 505 505;" xml:space="preserve">
<circle style="fill:#324A5E;" cx="252.5" cy="252.5" r="252.5"/>
<g>
	<path style="fill:#F9B54C;" d="M425.1,236.3c1.7,3,4.5,5.3,6.5,8.1c2,2.7,3.3,5.8,5.6,8.3c3.1,3.5,8,5.2,12.6,4.7
		c0-0.7,0.1-1.5,0.1-2.2c1.4-0.2,2.4-1.4,3.1-2.5c2-3.1,3.1-6.6,3.3-10.3c0.2-4.1-0.7-8.3-1.8-12.2c-2.8-9.8-6.7-19.3-11.2-28.4
		c-2.1-4.2-4.3-8.3-7.4-11.8c-1.4-1.6-3.1-3.3-3.5-5.4c-0.1-0.7-0.2-1.6-0.8-2c-0.3-0.2-0.6-0.2-0.9-0.2c-4-0.4-8-0.3-11.9,0.5
		c-1.1,0.2-2.2,0.5-2.9,1.3c-0.7,0.8-0.9,1.8-1,2.8c-0.9,5.6-1.6,11.3-2.1,17c-0.4,4.6-0.6,9.5,1.3,13.8s5.6,7.4,7.8,11.6
		C423.2,231.5,423.8,234.1,425.1,236.3z"/>
	<path style="fill:#F9B54C;" d="M79.8,236.3c-1.7,3-4.5,5.3-6.5,8.1c-2,2.7-3.3,5.8-5.6,8.3c-3.1,3.5-8,5.2-12.6,4.7
		c0-0.7-0.1-1.5-0.1-2.2c-1.4-0.2-2.4-1.4-3.1-2.5c-2-3.1-3.1-6.6-3.3-10.3c-0.2-4.1,0.7-8.3,1.8-12.2c2.8-9.8,6.7-19.3,11.2-28.4
		c2.1-4.2,4.3-8.3,7.4-11.8c1.4-1.6,3.1-3.3,3.5-5.4c0.1-0.7,0.2-1.6,0.8-2c0.3-0.2,0.6-0.2,0.9-0.2c4-0.4,8-0.3,11.9,0.5
		c1.1,0.2,2.2,0.5,2.9,1.3c0.7,0.8,0.9,1.8,1,2.8c0.9,5.6,1.6,11.3,2.1,17c0.4,4.6,0.6,9.5-1.3,13.8s-5.6,7.4-7.8,11.6
		C81.8,231.5,81.1,234.1,79.8,236.3z"/>
</g>
<path style="fill:#FFFFFF;" d="M415.5,356H89.6c-2.8,0-5-2.2-5-5V122.4c0-2.8,2.2-5,5-5h325.9c2.8,0,5,2.2,5,5V351
	C420.5,353.7,418.2,356,415.5,356z"/>
<rect x="110" y="142.8" style="fill:#54C0EB;" width="267.3" height="187.7"/>
<g>
	<path style="fill:#E6E9EE;" d="M97.2,265.1L97.2,265.1c-1.5,0-2.7-1.2-2.7-2.7v-51.6c0-1.5,1.2-2.7,2.7-2.7l0,0
		c1.5,0,2.7,1.2,2.7,2.7v51.7C99.8,263.9,98.7,265.1,97.2,265.1z"/>
	<circle style="fill:#E6E9EE;" cx="397.2" cy="236.7" r="11.4"/>
</g>
<path style="fill:#FFD05B;" d="M495.5,321.5c-6.3,22.3-15.6,43.3-27.4,62.6c-11.2-16.3-28.9-38.9-47.5-50.9v-21.7
	c0,0-21.1-14.8-4.9-63.4l2.1-3.9v-0.1c-0.1-0.2-0.6-1-1.2-2.3c-4.1-8.1-16.5-35-8.2-47.8c0,0,10.1-14.1,17.4,11.9
	c0,0,17.2,39.3,26.2,43.3c-0.8-1.1-14.6-18.7-13.9-22.7c0,0,7.5,0.2,9.3-1.8c0,0-6,0.2-9.4-1.1c0,0-6.5-4.9-6-10.7
	c0,0,7.5-2.6,8-9.5c0,0-1.3,3.9-8.3,6.2c0,0-6.7-10.4-5.4-16.1c0,0,6.3-3.2,6.7-7.1c0,0-0.4,1.3-5.1,2.2l-7.3-0.7V169l13,10.8
	c3.1,2.6,5.7,5.8,7.7,9.4l16.6,31.1c1.9,3.6,3.2,7.6,3.6,11.8c1.4,13.7,4.4,46,2.9,53.1C462.7,291.6,476.7,310,495.5,321.5z"/>
<path style="fill:#FFFFFF;" d="M410.9,205.9h9.1c2.1,0,3.7-2.1,2.9-4.1c-2.4-6.6-5.3-10.3-8.3-10.3c-2.9,0-5.2,3.2-5.2,3.2l0,0
	c-1.3,1.9-2,4.2-2.4,6.8C406.8,203.9,408.6,205.9,410.9,205.9z"/>
<path style="fill:#FFD05B;" d="M89.3,248.1c16.2,48.7-4.9,63.4-4.9,63.4v21.7c-18.6,12-36.3,34.5-47.5,50.8
	c-11.8-19.2-21-40.2-27.4-62.5C28.2,310,42.2,291.6,40.8,285c-1.5-7.1,1.5-39.3,2.9-53.1c0.4-4.1,1.6-8.1,3.6-11.8L63.8,189
	c1.9-3.6,4.5-6.8,7.7-9.4l13-10.8v18.9l-7.3,0.7c-4.7-0.9-5-2.2-5-2.2c0.3,3.9,6.6,7.1,6.6,7.1c1.3,5.7-5.3,16.1-5.3,16.1
	c-7-2.3-8.3-6.2-8.3-6.2c0.5,7,7.9,9.5,7.9,9.5c0.5,5.9-6,10.7-6,10.7c-3.4,1.3-9.4,1.1-9.4,1.1c1.8,1.9,9.2,1.8,9.2,1.8
	c0.6,3.9-13.1,21.6-13.9,22.7c9.1-4,26.3-43.3,26.3-43.3c7.3-26,17.4-11.9,17.4-11.9c9.9,15.1-9.4,50.1-9.4,50.1L89.3,248.1z"/>
<path style="fill:#FFFFFF;" d="M94,205.9h-9.1c-2.1,0-3.7-2.1-2.9-4.1c2.4-6.6,5.3-10.3,8.3-10.3c2.9,0,5.2,3.2,5.2,3.2l0,0
	c1.3,1.9,2,4.2,2.4,6.8C98.2,203.9,96.3,205.9,94,205.9z"/>
<g>
	<path style="fill:#F9B54C;" d="M420.6,246.3c1.2,1.7,2.2,3.5,3,5.3c-2.2-1.3-4.1-3.4-5.2-5.7c-0.3-0.5-0.4-1-0.8-1.4v-0.1
		c-0.1-0.2-0.5-1.2-1.1-2.6c0.5,0.7,1.1,1.3,1.8,1.9c0.7,0.6,1.5,1,2.3,1.4c2.9,1.6,5.7,3.2,8.6,5
		C426.3,249.5,423.4,247.9,420.6,246.3z"/>
	<path style="fill:#F9B54C;" d="M84.1,246.3c-1.2,1.7-2.2,3.5-3,5.3c2.2-1.3,4.1-3.4,5.2-5.7c0.3-0.5,0.4-1,0.8-1.4v-0.1
		c0.1-0.2,0.5-1.2,1.1-2.6c-0.5,0.7-1.1,1.3-1.8,1.9c-0.7,0.6-1.5,1-2.3,1.4c-2.9,1.6-5.7,3.2-8.6,5
		C78.5,249.5,81.3,247.9,84.1,246.3z"/>
</g>
<g>
</g>
<g>
</g>
<g>
</g>
<g>
</g>
<g>
</g>
<g>
</g>
<g>
</g>
<g>
</g>
<g>
</g>
<g>
</g>
<g>
</g>
<g>
</g>
<g>
</g>
<g>
</g>
<g>
</g>
</svg>
