<?xml version="1.0" encoding="iso-8859-1"?>
<!-- Generator: Adobe Illustrator 19.0.0, SVG Export Plug-In . SVG Version: 6.00 Build 0)  -->
<svg version="1.1" id="Layer_1" xmlns="http://www.w3.org/2000/svg" xmlns:xlink="http://www.w3.org/1999/xlink" x="0px" y="0px"
	 viewBox="0 0 505 505" style="enable-background:new 0 0 505 505;" xml:space="preserve">
<circle style="fill:#FD8469;" cx="252.5" cy="252.5" r="252.5"/>
<g>
	<path style="fill:#324A5E;" d="M342.1,115.9H162.8c-16.6,0-30.1,13.5-30.1,30.1v250c0,14.9,12.1,27,27,27h185.5c15,0,27-12.1,27-27
		V146C372.3,129.4,358.8,115.9,342.1,115.9z M252.5,184.3c-14.1,0-24.4-16.4-12.9-31.1c14.7-11,30.7-0.7,30.7,13.3
		C270.3,176.3,262.4,184.3,252.5,184.3z"/>
	<path style="fill:#324A5E;" d="M330.6,120.2c-1.7,2.1-3.8,4.3-6.1,6.6c-16.1,16.1-38.8,31.1-54.4,36.7c0.2,0.9,0.3,1.9,0.3,3
		c0,3.8-1.2,7.3-3.2,10.2c19.3-4.5,47.8-23.6,65.7-41.5c3.3-3.3,6.2-6.5,8.6-9.6C338,123.5,334.4,121.7,330.6,120.2z"/>
</g>
<rect x="165.9" y="277.2" style="fill:#FFFFFF;" width="173.1" height="110.4"/>
<g>
	<rect x="184.6" y="294.9" style="fill:#324A5E;" width="12.5" height="75.1"/>
	<rect x="205.2" y="294.9" style="fill:#324A5E;" width="12.5" height="68.1"/>
	<rect x="225.8" y="294.9" style="fill:#324A5E;" width="12.5" height="68.1"/>
	<rect x="246.4" y="294.9" style="fill:#324A5E;" width="12.5" height="68.1"/>
	<rect x="266.5" y="294.9" style="fill:#324A5E;" width="10.2" height="68.1"/>
	<rect x="283.2" y="294.9" style="fill:#324A5E;" width="10.2" height="68.1"/>
	<rect x="299.8" y="294.9" style="fill:#324A5E;" width="7.8" height="68.1"/>
	<rect x="312.6" y="294.9" style="fill:#324A5E;" width="7.8" height="75.1"/>
</g>
<path style="fill:#E6E9EE;" d="M252.5,141c-14.1,0-25.5,11.4-25.5,25.5c0,14,11.4,25.4,25.5,25.4s25.5-11.4,25.5-25.4
	C278,152.4,266.6,141,252.5,141z M252.5,184.3c-9.9,0-17.8-8-17.8-17.8c0-9.9,8-17.9,17.8-17.9c9.8,0,17.8,8,17.8,17.9
	C270.3,176.3,262.4,184.3,252.5,184.3z"/>
<path style="fill:#FFD05B;" d="M342.7,78.4c-16-15.9-34-12.9-56.9,9.9c-7.8,7.8-15.8,17.6-22.7,27.7h14.5c5.2-7,10.9-13.7,16.5-19.3
	c10.8-10.8,20-16.3,27.2-16.3c4.4,0,8.5,2.1,12.9,6.4c4.8,4.8,13.3,13.3-3.7,33.5c-1.7,2.1-3.8,4.3-6.1,6.6
	C308.3,143,285.6,158,270,163.6c-4.2,1.5-7.9,2.3-10.7,2.3c-1.6,0-2.8-0.3-3.4-0.8c-1.3-1.3-1.4-6.4,2.1-15.5
	c-1.8-0.6-3.6-0.9-5.6-0.9c-2.6,0-5,0.6-7.2,1.5c-3.3,10.7-2.5,18.5,2.3,23.3c2.8,2.8,6.7,4.3,11.7,4.3c2.4,0,5-0.4,7.8-1
	c19.3-4.5,47.8-23.6,65.7-41.5c3.3-3.3,6.2-6.5,8.6-9.6C355.8,107.4,356.1,91.9,342.7,78.4z"/>
<g>
</g>
<g>
</g>
<g>
</g>
<g>
</g>
<g>
</g>
<g>
</g>
<g>
</g>
<g>
</g>
<g>
</g>
<g>
</g>
<g>
</g>
<g>
</g>
<g>
</g>
<g>
</g>
<g>
</g>
</svg>
