<?xml version="1.0" encoding="iso-8859-1"?>
<!-- Generator: Adobe Illustrator 19.0.0, SVG Export Plug-In . SVG Version: 6.00 Build 0)  -->
<svg version="1.1" id="Layer_1" xmlns="http://www.w3.org/2000/svg" xmlns:xlink="http://www.w3.org/1999/xlink" x="0px" y="0px"
	 viewBox="0 0 505 505" style="enable-background:new 0 0 505 505;" xml:space="preserve">
<circle style="fill:#90DFAA;" cx="252.5" cy="252.5" r="252.5"/>
<g>
	<path style="fill:#FF7058;" d="M354.5,124.5c-19-19-43.8-28.4-68.7-28.4c-24.8,0-49.7,9.5-68.7,28.4L65.8,275.9
		c-7.2,7.2-7.2,18.9,0,26.1L177,413.2c7.2,7.2,18.9,7.2,26.1,0l151.4-151.3C392.4,224,392.4,162.5,354.5,124.5z M330.8,148.2
		c7.8,7.8,7.8,20.4,0,28.2s-20.4,7.8-28.2,0c-7.8-7.8-7.8-20.4,0-28.2C310.4,140.4,323.1,140.4,330.8,148.2z"/>
	<path style="fill:#FF7058;" d="M329.6,147.1c0.4,0.3,0.9,0.7,1.3,1.1c2.7,2.7,4.5,6,5.3,9.5c9.5-2.6,22.9-5.1,37.3-6.5
		c-1.9-4-4-7.8-6.5-11.5C353.4,141.4,339.8,143.8,329.6,147.1z"/>
</g>
<rect x="110.101" y="205.825" transform="matrix(-0.7071 0.7071 -0.7071 -0.7071 534.2722 345.6454)" style="fill:#FFFFFF;" width="170.898" height="155.299"/>
<g>
	<path style="fill:#324A5E;" d="M399.7,137.8c-9.5,0-21.1,0.7-32.8,2c-13.5,1.6-27.1,4-37.4,7.3c-7,2.2-12.6,4.8-15.5,7.8
		c-2.8,2.8-3.4,5.6-3.4,7.5c0,6.8,7.8,11.7,18.8,15.3c0.5-0.4,0.9-0.8,1.3-1.2c2.7-2.7,4.5-6,5.3-9.5c-5.6-1.5-9.8-3.1-12.1-4.6
		c2.4-1.5,6.6-3.1,12.1-4.6c9.5-2.6,22.9-5.1,37.3-6.5c8.6-0.9,17.6-1.4,26.3-1.4c32.5,0,32.5,7.8,32.5,12.4c0,3.2-0.6,5.1-2.1,6.6
		c-2.7,2.7-10.1,5.9-30.4,5.9c-6.3,0-12.5-0.3-18.7-0.7c0.8,4,1.3,8,1.6,12c9.9,0.7,16.8,0.8,17.1,0.8c20.5,0,32.5-2.9,39-9.4
		c5-5,5.6-11,5.6-15.2C444.3,144.8,431.4,137.8,399.7,137.8z"/>
	<path style="fill:#324A5E;" d="M164.1,295.7l5.2-5.2l23.4,23.4l-5.2,5.2l-25.8-3.5l14.7,14.7l-5.2,5.2l-23.4-23.4l4.9-4.9l26.5,3.6
		L164.1,295.7z"/>
	<path style="fill:#324A5E;" d="M191.9,267.8l4.7,4.7l-11.7,11.7l4.8,4.8l10.5-10.5l4.5,4.5l-10.5,10.5l4.9,4.9l12-12l4.6,4.6
		l-17.2,17.2l-23.4-23.4L191.9,267.8z"/>
	<path style="fill:#324A5E;" d="M217.7,269l-9.3-17.6l5.5-5.5l17.6,9.3l-8.8-18.1l5.7-5.7l15.2,31.6l-3.9,3.9l-21.4-11.1l11.2,21.4
		l-3.9,3.9L194,265.9l5.7-5.7L217.7,269z"/>
</g>
<g>
</g>
<g>
</g>
<g>
</g>
<g>
</g>
<g>
</g>
<g>
</g>
<g>
</g>
<g>
</g>
<g>
</g>
<g>
</g>
<g>
</g>
<g>
</g>
<g>
</g>
<g>
</g>
<g>
</g>
</svg>
