<?xml version="1.0" encoding="iso-8859-1"?>
<!-- Generator: Adobe Illustrator 19.0.0, SVG Export Plug-In . SVG Version: 6.00 Build 0)  -->
<svg version="1.1" id="Layer_1" xmlns="http://www.w3.org/2000/svg" xmlns:xlink="http://www.w3.org/1999/xlink" x="0px" y="0px"
	 viewBox="0 0 505 505" style="enable-background:new 0 0 505 505;" xml:space="preserve">
<circle style="fill:#90DFAA;" cx="252.5" cy="252.5" r="252.5"/>
<g>
	<path style="fill:#EDF2F2;" d="M109.8,131.8c5-1.2,10.3,0.5,14,4.2l18.6,18.6l0,0l33.2,33.2c3.7,3.7,5.4,8.9,4.2,14
		c-1,4.4-3.1,9.8-7.3,14.2l-76.7-76.7C100.1,134.9,105.4,132.8,109.8,131.8z"/>
	<path style="fill:#EDF2F2;" d="M290.8,334.3c4.4-4.2,9.8-6.3,14.2-7.3c5-1.2,10.3,0.5,14,4.2l33.2,33.2l0,0l18.6,18.6
		c3.7,3.7,5.4,8.9,4.2,14c-1,4.4-3.1,9.8-7.3,14.2L290.8,334.3z"/>
</g>
<path style="fill:#324A5E;" d="M344.3,419.6c-29,0-44.5,64.2-163.4-38.3c0,0-20.6-17.6-29.1-26.5c-8.8-8.4-26.5-29.1-26.5-29.1
	C22.9,206.9,87,191.4,87,162.4c0-11.4,3.7-18.6,8.6-23.3l76.7,76.7c-4.7,4.9-11.9,8.6-23.3,8.6c-1.5,0-3.1,0.3-4.7,0.7
	c-12.8,3.7-18.8,18.7-13.2,30.8c4.7,10,12,21.6,20.2,33.3c18,25.7,40.3,48,66,66c11.7,8.2,23.4,15.5,33.3,20.2
	c12.1,5.7,27.1-0.3,30.8-13.2c0.5-1.6,0.7-3.2,0.7-4.7c0-11.4,3.7-18.6,8.6-23.3l76.7,76.7C362.9,415.9,355.6,419.6,344.3,419.6z"/>
<path style="fill:#FFFFFF;" d="M225.9,283.4l18.4-48.5c-8.4-12.4-13.4-27.3-13.4-43.4c0-42.5,34.5-77,77-77s77,34.5,77,77
	s-34.5,77-77,77c-13.4,0-26-3.4-37-9.5L225.9,283.4z"/>
<path style="fill:#FF7058;" d="M311.8,229.9v11.9h-8v-11.6c-7.4,0-14.4-1.7-20.8-5.1v-15.2c2.1,1.7,5.3,3.3,9.5,4.8s8,2.3,11.3,2.5
	v-20c-8.6-3.2-14.4-6.6-17.6-10.4c-3.1-3.7-4.7-8.3-4.7-13.6c0-5.8,2-10.7,6.1-14.7s9.5-6.4,16.2-7.1v-10.2h8v10
	c7.7,0.4,13.5,1.6,17.3,3.7v14.8c-5.1-3.1-10.9-5-17.3-5.7v20.8c8,2.9,13.8,6.2,17.3,9.9s5.2,8.2,5.2,13.5c0,6.1-1.9,11-5.8,14.7
	S319.1,229.1,311.8,229.9z M303.8,181.8v-17.4c-5.1,0.9-7.6,3.6-7.6,8C296.2,176.2,298.7,179.3,303.8,181.8z M311.8,200.4v16.7
	c5.2-0.8,7.9-3.4,7.9-7.9C319.7,205.6,317.1,202.7,311.8,200.4z"/>
<g>
</g>
<g>
</g>
<g>
</g>
<g>
</g>
<g>
</g>
<g>
</g>
<g>
</g>
<g>
</g>
<g>
</g>
<g>
</g>
<g>
</g>
<g>
</g>
<g>
</g>
<g>
</g>
<g>
</g>
</svg>
