<?xml version="1.0" encoding="iso-8859-1"?>
<!-- Generator: Adobe Illustrator 19.0.0, SVG Export Plug-In . SVG Version: 6.00 Build 0)  -->
<svg version="1.1" id="Layer_1" xmlns="http://www.w3.org/2000/svg" xmlns:xlink="http://www.w3.org/1999/xlink" x="0px" y="0px"
	 viewBox="0 0 505 505" style="enable-background:new 0 0 505 505;" xml:space="preserve">
<circle style="fill:#324A5E;" cx="252.5" cy="252.5" r="252.5"/>
<path style="fill:#FFFFFF;" d="M394.7,239l-135.2-82.6v-17.1c0-3.7-3-6.7-6.7-6.7c-7.8,0-14.2-6.4-14.2-14.2s6.4-14.2,14.2-14.2
	c6.7,0,12.6,4.8,13.9,11.4c0.7,3.6,4.2,6,7.9,5.3c3.6-0.7,6-4.3,5.3-7.9c-2.6-12.8-14-22.1-27.1-22.1c-15.2,0-27.6,12.4-27.6,27.6
	c0,12.9,8.9,23.8,20.9,26.8v10.9l-135.6,82.9c-4.7,2.9-6.9,8.4-5.4,13.8c1.5,5.3,6.3,8.9,11.8,8.9h271.5c5.6,0,10.3-3.6,11.8-8.9
	C401.6,247.4,399.4,241.9,394.7,239z M120.9,248.3l131.6-80.4l131.6,80.4L120.9,248.3L120.9,248.3z"/>
<path style="fill:#4CDBC4;" d="M154.7,414.3c15.7-55.4-15.7-110.7,0-166.1c65.2,0,130.5,0,195.7,0c-15.7,55.4,15.7,110.7,0,166.1
	C285.1,414.3,219.9,414.3,154.7,414.3z"/>
<g>
</g>
<g>
</g>
<g>
</g>
<g>
</g>
<g>
</g>
<g>
</g>
<g>
</g>
<g>
</g>
<g>
</g>
<g>
</g>
<g>
</g>
<g>
</g>
<g>
</g>
<g>
</g>
<g>
</g>
</svg>
