<?xml version="1.0" encoding="iso-8859-1"?>
<!-- Generator: Adobe Illustrator 19.0.0, SVG Export Plug-In . SVG Version: 6.00 Build 0)  -->
<svg version="1.1" id="Layer_1" xmlns="http://www.w3.org/2000/svg" xmlns:xlink="http://www.w3.org/1999/xlink" x="0px" y="0px"
	 viewBox="0 0 505 505" style="enable-background:new 0 0 505 505;" xml:space="preserve">
<circle style="fill:#FFD05B;" cx="252.5" cy="252.5" r="252.5"/>
<path style="fill:#FFFFFF;" d="M235.7,389.1l158.1-38.5c1.3-0.3,2.1-1.6,1.8-2.9l-34.8-142.8c-0.3-1.3-1.6-2.1-2.9-1.8l-158.1,38.5
	c-1.3,0.3-2.1,1.6-1.8,2.9l34.8,142.8C233.1,388.6,234.4,389.4,235.7,389.1z"/>
<g>
	<path style="fill:#FF7058;" d="M226.5,418.8c-7,1.7-14.1-2.6-15.8-9.6l-59.1-242.8l-52-30.1c-6.3-3.6-8.4-11.6-4.8-17.9
		c3.6-6.3,11.6-8.4,17.9-4.8l56.8,32.9c3.1,1.8,5.3,4.8,6.2,8.2L236.1,403C237.8,410,233.5,417.1,226.5,418.8z"/>
	<path style="fill:#FF7058;" d="M402,376.1l-175.5,42.7c-7,1.7-14.1-2.6-15.8-9.6s2.6-14.1,9.6-15.8l175.5-42.7
		c7-1.7,14.1,2.6,15.8,9.6C413.3,367.3,409,374.4,402,376.1z"/>
</g>
<circle style="fill:#324A5E;" cx="223.4" cy="406.1" r="43.1"/>
<circle style="fill:#E6E9EE;" cx="223.4" cy="406.1" r="23.3"/>
<rect x="257.793" y="221.61" transform="matrix(-0.9716 0.2365 -0.2365 -0.9716 607.8914 387.6998)" style="fill:#84DBFF;" width="45.799" height="17.399"/>
<g>
	<polygon style="fill:#4CDBC4;" points="291.7,291.3 272.7,274.6 263.6,298.2 	"/>
	
		<rect x="262.421" y="305.2" transform="matrix(-0.2365 -0.9716 0.9716 -0.2365 45.4225 659.4915)" style="fill:#4CDBC4;" width="38.799" height="13.4"/>
	<polygon style="fill:#4CDBC4;" points="327.2,282.6 308.3,265.9 299.1,289.5 	"/>
	
		<rect x="297.937" y="296.585" transform="matrix(-0.2365 -0.9716 0.9716 -0.2365 97.7079 683.3467)" style="fill:#4CDBC4;" width="38.799" height="13.4"/>
	
		<rect x="274.631" y="334.498" transform="matrix(0.9716 -0.2365 0.2365 0.9716 -71.3558 82.2431)" style="fill:#4CDBC4;" width="64.998" height="8.1"/>
</g>
<g>
</g>
<g>
</g>
<g>
</g>
<g>
</g>
<g>
</g>
<g>
</g>
<g>
</g>
<g>
</g>
<g>
</g>
<g>
</g>
<g>
</g>
<g>
</g>
<g>
</g>
<g>
</g>
<g>
</g>
</svg>
