<?xml version="1.0" encoding="iso-8859-1"?>
<!-- Generator: Adobe Illustrator 19.0.0, SVG Export Plug-In . SVG Version: 6.00 Build 0)  -->
<svg version="1.1" id="Layer_1" xmlns="http://www.w3.org/2000/svg" xmlns:xlink="http://www.w3.org/1999/xlink" x="0px" y="0px"
	 viewBox="0 0 505 505" style="enable-background:new 0 0 505 505;" xml:space="preserve">
<circle style="fill:#90DFAA;" cx="252.5" cy="252.5" r="252.5"/>
<path style="fill:#FFFFFF;" d="M388,137.2c-2.7-2.7-7.1-2.7-9.9,0L129.3,386.1c-8.4,8.4-22.1,8.4-30.5,0s-8.4-22.1,0-30.5
	c2.7-2.7,2.7-7.1,0-9.9c-2.7-2.7-7.1-2.7-9.9,0c-13.8,13.8-13.8,36.4,0,50.2c13.5,13.5,35.1,13.7,49,1c0.2-0.2,0.5-0.2,0.7-0.4
	L388,147.1C390.7,144.3,390.7,139.9,388,137.2z"/>
<path style="fill:#324A5E;" d="M189.5,199.3c17.8-1.3,36.1,4.9,49.7,18.5s19.8,31.9,18.5,49.7c17.8-1.3,36.1,4.9,49.7,18.5
	s19.8,31.9,18.5,49.7c17.8-1.3,36.1,4.9,49.7,18.5c9.8,9.8,15.7,22,17.8,34.8c50.2-72,43.3-171.9-21-236.1
	c-64.3-64.3-164.1-71.2-236.1-21c12.7,2.1,24.9,8,34.8,17.8C184.7,163.2,190.8,181.5,189.5,199.3z"/>
<g>
</g>
<g>
</g>
<g>
</g>
<g>
</g>
<g>
</g>
<g>
</g>
<g>
</g>
<g>
</g>
<g>
</g>
<g>
</g>
<g>
</g>
<g>
</g>
<g>
</g>
<g>
</g>
<g>
</g>
</svg>
