<?xml version="1.0" encoding="iso-8859-1"?>
<!-- Generator: Adobe Illustrator 19.0.0, SVG Export Plug-In . SVG Version: 6.00 Build 0)  -->
<svg version="1.1" id="Layer_1" xmlns="http://www.w3.org/2000/svg" xmlns:xlink="http://www.w3.org/1999/xlink" x="0px" y="0px"
	 viewBox="0 0 505 505" style="enable-background:new 0 0 505 505;" xml:space="preserve">
<circle style="fill:#FD8469;" cx="252.5" cy="252.5" r="252.5"/>
<path style="fill:#F1543F;" d="M34.9,380.6C78.9,455,159.8,505,252.5,505s173.6-50,217.6-124.4H34.9z"/>
<path style="fill:#FFFFFF;" d="M365.1,147.9H87.7c-6.4,0-11.7,5.2-11.7,11.7v173.6c0,6.4,5.2,11.7,11.7,11.7h341.6
	c6.4,0,11.7-5.2,11.7-11.7v-86.3c0-6.1-1.8-12.2-5.2-17.3l-44.5-67.5C385.5,153.2,375.7,147.9,365.1,147.9z"/>
<g>
	<path style="fill:#ACB3BA;" d="M408,344.7c-0.1-23.5-19.1-42.5-42.6-42.5s-42.5,19-42.6,42.5H408z"/>
	<path style="fill:#ACB3BA;" d="M179.3,344.7c-0.1-23.5-19.1-42.5-42.6-42.5s-42.5,19-42.6,42.5H179.3z"/>
</g>
<g>
	<path style="fill:#54C0EB;" d="M318.7,237.1h105l-44.3-67.2c-3.2-4.8-8.5-7.7-14.3-7.7h-46.4L318.7,237.1L318.7,237.1z"/>
	<rect x="92.7" y="162.2" style="fill:#54C0EB;" width="211.4" height="74.9"/>
</g>
<circle style="fill:#324A5E;" cx="365.4" cy="344.8" r="35.7"/>
<circle style="fill:#CED5E0;" cx="365.4" cy="344.8" r="21.9"/>
<circle style="fill:#324A5E;" cx="136.7" cy="344.8" r="35.7"/>
<circle style="fill:#CED5E0;" cx="136.7" cy="344.8" r="21.9"/>
<rect x="318.7" y="246.4" style="fill:#ACB3BA;" width="29.9" height="8.7"/>
<g>
</g>
<g>
</g>
<g>
</g>
<g>
</g>
<g>
</g>
<g>
</g>
<g>
</g>
<g>
</g>
<g>
</g>
<g>
</g>
<g>
</g>
<g>
</g>
<g>
</g>
<g>
</g>
<g>
</g>
</svg>
