<?xml version="1.0" encoding="iso-8859-1"?>
<!-- Generator: Adobe Illustrator 19.0.0, SVG Export Plug-In . SVG Version: 6.00 Build 0)  -->
<svg version="1.1" id="Layer_1" xmlns="http://www.w3.org/2000/svg" xmlns:xlink="http://www.w3.org/1999/xlink" x="0px" y="0px"
	 viewBox="0 0 505 505" style="enable-background:new 0 0 505 505;" xml:space="preserve">
<circle style="fill:#FD8469;" cx="252.5" cy="252.5" r="252.5"/>
<path style="fill:#2B3B4E;" d="M383.2,372.9H108.9c-1.8,0-3.3-1.5-3.3-3.3V172.4c0-1.8,1.5-3.3,3.3-3.3h274.3c1.8,0,3.3,1.5,3.3,3.3
	v197.2C386.5,371.5,385,372.9,383.2,372.9z"/>
<rect x="198.275" y="95.602" transform="matrix(-0.8196 -0.573 0.573 -0.8196 376.9664 490.9161)" style="fill:#CED5E0;" width="135.005" height="181.007"/>
<path style="fill:#FFFFFF;" d="M178.5,214l83.6-119.5c2.5,1.8,6,1.1,7.8-1.4l81.8,57.2c-1.8,2.5-1.1,6,1.4,7.8l-83.6,119.5
	c-2.5-1.8-6-1.1-7.8,1.4l-81.8-57.2C181.7,219.2,181.1,215.8,178.5,214z"/>
<g>
	<circle style="fill:#E6E9EE;" cx="265.8" cy="186" r="32.8"/>
	
		<rect x="158.821" y="109.327" transform="matrix(-0.8196 -0.573 0.573 -0.8196 297.3124 493.2832)" style="fill:#E6E9EE;" width="135.005" height="181.007"/>
</g>
<path style="fill:#FFFFFF;" d="M139,227.8l83.6-119.5c2.5,1.8,6,1.1,7.8-1.4l81.8,57.2c-1.8,2.5-1.1,6,1.4,7.8L230,291.4
	c-2.5-1.8-6-1.1-7.8,1.4l-81.8-57.3C142.2,233,141.6,229.5,139,227.8z"/>
<circle style="fill:#E6E9EE;" cx="226.3" cy="199.8" r="32.8"/>
<g>
	<path style="fill:#324A5E;" d="M383.2,398.2H108.9c-1.8,0-3.3-1.5-3.3-3.3V194.3h277.7c1.8,0,3.3,1.5,3.3,3.3v197.2
		C386.5,396.7,385,398.2,383.2,398.2z"/>
	<rect x="105.5" y="181.6" style="fill:#324A5E;" width="12.7" height="12.7"/>
</g>
<g>
	<path style="fill:#2B3B4E;" d="M118.2,194.4L118.2,194.4c-7,0-12.7-5.7-12.7-12.7l0,0c0-7,5.7-12.7,12.7-12.7l0,0
		c7,0,12.7,5.7,12.7,12.7l0,0C130.9,188.7,125.2,194.4,118.2,194.4z"/>
	<path style="fill:#2B3B4E;" d="M386.5,256.1v0.7C386.5,256.5,386.5,256.3,386.5,256.1L386.5,256.1z"/>
</g>
<path style="fill:#4CDBC4;" d="M399.4,252.1v46.3c0,2.4-1,4.6-2.5,6.1c-1.6,1.6-3.8,2.5-6.1,2.5h-64.6c-12.8,0-23.2-10.4-23.2-23.2
	c0-6.4,2.6-12.2,6.8-16.4c4.2-4.2,10-6.8,16.4-6.8h64.6v-8.7h8.6V252.1z"/>
<path style="fill:#2B3B4E;" d="M396.9,246c-1.6-1.6-3.7-2.6-6.1-2.6h-4.5v17.4h4.5c2.4,0,4.6-1,6.1-2.6c1.6-1.6,2.6-3.7,2.6-6.1
	C399.5,249.7,398.5,247.6,396.9,246z"/>
<circle style="fill:#2C9984;" cx="326.6" cy="284" r="15.6"/>
<ellipse transform="matrix(-0.707 -0.7072 0.7072 -0.707 348.9445 700.4351)" style="fill:#FFFFFF;" cx="319.566" cy="277.934" rx="2" ry="5.2"/>
<g>
</g>
<g>
</g>
<g>
</g>
<g>
</g>
<g>
</g>
<g>
</g>
<g>
</g>
<g>
</g>
<g>
</g>
<g>
</g>
<g>
</g>
<g>
</g>
<g>
</g>
<g>
</g>
<g>
</g>
</svg>
