<?xml version="1.0" encoding="iso-8859-1"?>
<!-- Generator: Adobe Illustrator 19.0.0, SVG Export Plug-In . SVG Version: 6.00 Build 0)  -->
<svg version="1.1" id="Layer_1" xmlns="http://www.w3.org/2000/svg" xmlns:xlink="http://www.w3.org/1999/xlink" x="0px" y="0px"
	 viewBox="0 0 505 505" style="enable-background:new 0 0 505 505;" xml:space="preserve">
<circle style="fill:#84DBFF;" cx="252.5" cy="252.5" r="252.5"/>
<path style="fill:#54C0EB;" d="M79.5,436.3c45.2,42.6,106.1,68.7,173,68.7s127.8-26.1,173-68.7H79.5z"/>
<path style="fill:#2B3B4E;" d="M220.5,183l-2-31.9h-50.1l-2,31.9c-0.8,12.3-5.9,23.8-14.2,32.9c-16.5,18.3-27.1,48.9-27.1,89.4
	c0,31.2,6.3,91.5,16.7,122.4c1.8,5.3,6.7,8.8,12.3,8.8h78.7c5.5,0,10.5-3.5,12.3-8.8c10.4-30.8,16.7-91.2,16.7-122.4
	c0-40.5-10.6-71.1-27.1-89.4C226.5,206.7,221.3,195.2,220.5,183z"/>
<path style="fill:#FFFFFF;" d="M258.2,359.3c2.3-20.4,3.6-40.1,3.6-54.1c0-15.5-1.6-29.5-4.4-41.9H129.6
	c-2.8,12.4-4.4,26.4-4.4,41.9c0,13.9,1.3,33.7,3.6,54.1H258.2z"/>
<g>
	<polygon style="fill:#324A5E;" points="172.1,93.5 168,158.3 219,158.3 214.9,93.5 	"/>
	<path style="fill:#324A5E;" d="M213.9,77.6l-0.4-5.6c-0.1-1.9-1.7-3.4-3.6-3.4H177c-1.9,0-3.5,1.5-3.6,3.4l-0.4,5.6
		c-0.3,4.7-1.9,9.2-4.7,12.9c-0.7,0.9-1.1,2.1-1,3.4c0.2,2.8,2.6,4.9,5.4,4.9h41.6c2.8,0,5.3-2.1,5.4-4.9c0.1-1.3-0.3-2.5-1-3.4
		C215.8,86.8,214.2,82.3,213.9,77.6z"/>
</g>
<path style="fill:#E6E9EE;" d="M359.3,428.4L359.3,428.4c-9.1,0-17-6.5-18.5-15.5c-4.6-27.1-5.1-95.5-5.1-95.5h-6.8
	c0,0-0.5,68.4-5.1,95.5c-1.5,9-9.4,15.5-18.5,15.5l0,0c-2.2,0-4.1,1.6-4.2,3.8c-0.1,2.3,1.7,4.2,4,4.2h54.4c2.3,0,4.1-1.9,4-4.2
	C363.4,430,361.5,428.4,359.3,428.4z"/>
<path style="fill:#FFFFFF;" d="M294,220.3c-5.7,17.7-9,37.9-9,56.2c0,46.1,21.2,62.9,47.4,62.9c26.2,0,47.4-16.8,47.4-62.9
	c0-18.3-3.4-38.5-9-56.2H294z"/>
<g>
</g>
<g>
</g>
<g>
</g>
<g>
</g>
<g>
</g>
<g>
</g>
<g>
</g>
<g>
</g>
<g>
</g>
<g>
</g>
<g>
</g>
<g>
</g>
<g>
</g>
<g>
</g>
<g>
</g>
</svg>
