<?xml version="1.0" encoding="iso-8859-1"?>
<!-- Generator: Adobe Illustrator 19.0.0, SVG Export Plug-In . SVG Version: 6.00 Build 0)  -->
<svg version="1.1" id="Layer_1" xmlns="http://www.w3.org/2000/svg" xmlns:xlink="http://www.w3.org/1999/xlink" x="0px" y="0px"
	 viewBox="0 0 505 505" style="enable-background:new 0 0 505 505;" xml:space="preserve">
<circle style="fill:#FFD05B;" cx="252.5" cy="252.5" r="252.5"/>
<rect x="349.7" y="246" style="fill:#FFFFFF;" width="16" height="13"/>
<g>
	<polygon style="fill:#324A5E;" points="314.8,195.9 173.5,195.9 190.7,82.8 297.6,82.8 	"/>
	<polygon style="fill:#324A5E;" points="314.8,309.1 173.5,309.1 190.7,422.2 297.6,422.2 	"/>
</g>
<circle style="fill:#FF7058;" cx="244.2" cy="252.5" r="111.7"/>
<g>
	<circle style="fill:#FFFFFF;" cx="244.2" cy="252.5" r="92.5"/>
	<circle style="fill:#FFFFFF;" cx="244.2" cy="176.9" r="4.6"/>
	<circle style="fill:#FFFFFF;" cx="244.2" cy="328.1" r="4.6"/>
	<circle style="fill:#FFFFFF;" cx="319.8" cy="252.5" r="4.6"/>
	<circle style="fill:#FFFFFF;" cx="168.5" cy="252.5" r="4.6"/>
	<circle style="fill:#FFFFFF;" cx="297.6" cy="199" r="4.6"/>
	<circle style="fill:#FFFFFF;" cx="190.7" cy="306" r="4.6"/>
	<circle style="fill:#FFFFFF;" cx="297.6" cy="306" r="4.6"/>
	<circle style="fill:#FFFFFF;" cx="190.7" cy="199" r="4.6"/>
</g>
<g>
	<polygon style="fill:#324A5E;" points="248.8,247.9 248.8,194.4 239.5,194.4 239.5,247.9 239.5,251.3 239.5,257.1 290.7,257.1 
		290.7,247.9 	"/>
	<rect x="363" y="239.5" style="fill:#324A5E;" width="9.5" height="25.9"/>
</g>
<g>
</g>
<g>
</g>
<g>
</g>
<g>
</g>
<g>
</g>
<g>
</g>
<g>
</g>
<g>
</g>
<g>
</g>
<g>
</g>
<g>
</g>
<g>
</g>
<g>
</g>
<g>
</g>
<g>
</g>
</svg>
