<?xml version="1.0" encoding="iso-8859-1"?>
<!-- Generator: Adobe Illustrator 19.0.0, SVG Export Plug-In . SVG Version: 6.00 Build 0)  -->
<svg version="1.1" id="Layer_1" xmlns="http://www.w3.org/2000/svg" xmlns:xlink="http://www.w3.org/1999/xlink" x="0px" y="0px"
	 viewBox="0 0 505 505" style="enable-background:new 0 0 505 505;" xml:space="preserve">
<circle style="fill:#324A5E;" cx="252.5" cy="252.5" r="252.5"/>
<rect x="384.8" y="245.5" style="fill:#ACB3BA;" width="34.5" height="13.9"/>
<rect x="407.4" y="238.9" style="fill:#CED5E0;" width="15.4" height="27.3"/>
<g>
	<polygon style="fill:#4CDBC4;" points="317.7,431.6 192.5,431.6 183,368.6 327.3,368.6 	"/>
	<polygon style="fill:#4CDBC4;" points="192.5,73.4 317.7,73.4 327.3,136.4 183,136.4 	"/>
</g>
<circle style="fill:#2C9984;" cx="255.1" cy="252.5" r="141.3"/>
<circle style="fill:#FFFFFF;" cx="255.1" cy="252.5" r="112.1"/>
<path style="fill:#2B3B4E;" d="M267.6,253.1c0,6.7-5.4,12.1-12.1,12.1c-6.7,0-12.1-5.4-12.1-12.1c0-6.7,12.1-85.8,12.1-85.8
	S267.6,246.4,267.6,253.1z"/>
<path style="fill:#324A5E;" d="M255.5,265.2c-6.7,0-12.1-5.4-12.1-12.1s5.4-12.1,12.1-12.1s61.6,12.1,61.6,12.1
	S262.2,265.2,255.5,265.2z"/>
<circle style="fill:#FF7058;" cx="255.1" cy="252.5" r="17.9"/>
<g>
</g>
<g>
</g>
<g>
</g>
<g>
</g>
<g>
</g>
<g>
</g>
<g>
</g>
<g>
</g>
<g>
</g>
<g>
</g>
<g>
</g>
<g>
</g>
<g>
</g>
<g>
</g>
<g>
</g>
</svg>
