<?xml version="1.0" encoding="iso-8859-1"?>
<!-- Generator: Adobe Illustrator 19.0.0, SVG Export Plug-In . SVG Version: 6.00 Build 0)  -->
<svg version="1.1" id="Layer_1" xmlns="http://www.w3.org/2000/svg" xmlns:xlink="http://www.w3.org/1999/xlink" x="0px" y="0px"
	 viewBox="0 0 504 504" style="enable-background:new 0 0 504 504;" xml:space="preserve">
<circle style="fill:#84DBFF;" cx="252" cy="252" r="252"/>
<path style="fill:#FF7058;" d="M292.7,210.1c-2.5-2.9-5.4-5.7-8.7-8.1c-22.8-17.3-55.6-15.5-76.2,4.4c-23.6,22.8-23.8,60.4-0.7,83.5
	c0.8,0.8,1.6,1.5,2.4,2.3c7.5,6.7,12.1,15.9,12.5,25.9c1,25.1,12.1,49.9,33.5,67.7c33.4,27.8,82.7,28.3,116.6,1.2
	c43.8-35.1,46.5-99.3,7.9-137.9c-17.2-17.2-39.5-26.2-62-27C308.2,221.6,299.1,217.5,292.7,210.1z"/>
<rect x="184.774" y="93.996" transform="matrix(-0.7071 0.7071 -0.7071 -0.7071 474.6714 196.574)" style="fill:#FFD05B;" width="23.7" height="205.198"/>
<circle style="fill:#324A5E;" cx="314.5" cy="314.5" r="38.3"/>
<path style="fill:#F9B54C;" d="M134,114.2L114.2,134c-1.2,1.2-1.1,3.2,0.3,4.6l26.8,26.8c1.3,1.3,3.4,1.4,4.6,0.3l19.8-19.8
	c1.2-1.2,1.1-3.2-0.3-4.6l-26.8-26.8C137.2,113.1,135.2,113,134,114.2z"/>
<g>
</g>
<g>
</g>
<g>
</g>
<g>
</g>
<g>
</g>
<g>
</g>
<g>
</g>
<g>
</g>
<g>
</g>
<g>
</g>
<g>
</g>
<g>
</g>
<g>
</g>
<g>
</g>
<g>
</g>
</svg>
