<?xml version="1.0" encoding="iso-8859-1"?>
<!-- Generator: Adobe Illustrator 19.0.0, SVG Export Plug-In . SVG Version: 6.00 Build 0)  -->
<svg version="1.1" id="Layer_1" xmlns="http://www.w3.org/2000/svg" xmlns:xlink="http://www.w3.org/1999/xlink" x="0px" y="0px"
	 viewBox="0 0 504 504" style="enable-background:new 0 0 504 504;" xml:space="preserve">
<circle style="fill:#324A5E;" cx="252" cy="252" r="252"/>
<g>
	<path style="fill:#84DBFF;" d="M317.9,95.4l-67.8,5.5v11.3l67.8,5.5c6.5,0.5,12.1-4.6,12.1-11.1C330,100,324.4,94.9,317.9,95.4z"/>
	<path style="fill:#84DBFF;" d="M178.5,95.4l67.8,5.5v11.3l-67.8,5.5c-6.5,0.5-12.1-4.6-12.1-11.1C166.5,100,172,94.9,178.5,95.4z"
		/>
	<path style="fill:#84DBFF;" d="M276,131c0-0.2,0-0.4,0-0.6c0-19.9-12.4-36.1-27.8-36.1c-15.3,0-27.8,16.2-27.8,36.1
		c0,0.2,0,0.4,0,0.6H276z"/>
</g>
<g>
	<path style="fill:#FF7058;" d="M409.1,192.9H303.2l-8.7,72.5L416.7,235c10.8-2.8,18.1-11.1,18.1-20.6
		C434.8,202.5,423.3,192.9,409.1,192.9z"/>
	<path style="fill:#FF7058;" d="M89.1,192.9H195l8.7,72.5L81.5,235c-10.8-2.8-18.1-11.1-18.1-20.6C63.4,202.5,74.9,192.9,89.1,192.9
		z"/>
	<path style="fill:#FF7058;" d="M318.2,391.3h-48.3l-4-49.9l55.7,20.9c4.9,1.9,8.3,7.6,8.3,14.1
		C329.9,384.6,324.6,391.3,318.2,391.3z"/>
	<path style="fill:#FF7058;" d="M180,391.3h48.3l4-49.9l-55.7,20.9c-4.9,1.9-8.3,7.6-8.3,14.1C168.3,384.6,173.5,391.3,180,391.3z"
		/>
</g>
<path style="fill:#FFD05B;" d="M203.5,130.5c-5.4,0-9.8,4.4-9.8,9.8c1,154.1,25.4,277.4,55.3,277.4s54.3-123.3,55.3-277.4
	c0-5.4-4.4-9.8-9.8-9.8L203.5,130.5L203.5,130.5z"/>
<ellipse style="fill:#E6E9EE;" cx="249.1" cy="196.4" rx="22.8" ry="36.9"/>
<g>
</g>
<g>
</g>
<g>
</g>
<g>
</g>
<g>
</g>
<g>
</g>
<g>
</g>
<g>
</g>
<g>
</g>
<g>
</g>
<g>
</g>
<g>
</g>
<g>
</g>
<g>
</g>
<g>
</g>
</svg>
