<?xml version="1.0" encoding="iso-8859-1"?>
<!-- Generator: Adobe Illustrator 19.0.0, SVG Export Plug-In . SVG Version: 6.00 Build 0)  -->
<svg version="1.1" id="Layer_1" xmlns="http://www.w3.org/2000/svg" xmlns:xlink="http://www.w3.org/1999/xlink" x="0px" y="0px"
	 viewBox="0 0 504 504" style="enable-background:new 0 0 504 504;" xml:space="preserve">
<circle style="fill:#FD8469;" cx="252" cy="252" r="252"/>
<polygon style="fill:#E6E9EE;" points="262.8,171.6 256.7,103.7 247.3,103.7 241.2,171.6 184.9,171.6 184.9,185.3 319.1,185.3 
	319.1,171.6 "/>
<g>
	<path style="fill:#FFFFFF;" d="M417.8,294.7H86.2c-13.2,0-23.9-10.7-23.9-23.9l0,0h379.4l0,0C441.7,284,431,294.7,417.8,294.7z"/>
	<path style="fill:#FFFFFF;" d="M342.8,280.4c0,56.6-40.7,96.2-90.8,96.2s-90.8-39.6-90.8-96.2S212,171.7,252,171.7
		S342.8,223.8,342.8,280.4z"/>
</g>
<path style="fill:#84DBFF;" d="M300.8,250.6c0,27-97.7,27-97.7,0s27.6-52.3,48.8-52.3C271.3,198.3,300.8,223.6,300.8,250.6z"/>
<rect x="246.9" y="194.9" style="fill:#FFFFFF;" width="10.3" height="88.4"/>
<g>
	<path style="fill:#E6E9EE;" d="M252,337c-43.8,0-80.4-30.2-88.9-75.6c-1.2,6.2-1.9,12.6-1.9,19c0,56.6,40.7,96.2,90.8,96.2
		s90.8-39.6,90.8-96.2c0-6.4-0.7-12.8-1.9-19C332.4,306.8,295.8,337,252,337z"/>
	<circle style="fill:#E6E9EE;" cx="391.1" cy="299.4" r="23.7"/>
	<circle style="fill:#E6E9EE;" cx="115.5" cy="299.4" r="23.7"/>
</g>
<g>
	<circle style="fill:#324A5E;" cx="391.1" cy="299.4" r="9.5"/>
	<circle style="fill:#324A5E;" cx="115.5" cy="299.4" r="9.5"/>
</g>
<g>
</g>
<g>
</g>
<g>
</g>
<g>
</g>
<g>
</g>
<g>
</g>
<g>
</g>
<g>
</g>
<g>
</g>
<g>
</g>
<g>
</g>
<g>
</g>
<g>
</g>
<g>
</g>
<g>
</g>
</svg>
