<?xml version="1.0" encoding="iso-8859-1"?>
<!-- Generator: Adobe Illustrator 19.0.0, SVG Export Plug-In . SVG Version: 6.00 Build 0)  -->
<svg version="1.1" id="Layer_1" xmlns="http://www.w3.org/2000/svg" xmlns:xlink="http://www.w3.org/1999/xlink" x="0px" y="0px"
	 viewBox="0 0 504 504" style="enable-background:new 0 0 504 504;" xml:space="preserve">
<circle style="fill:#324A5E;" cx="252" cy="252" r="252"/>
<g>
	
		<rect x="310.82" y="336.093" transform="matrix(-0.798 0.6027 -0.6027 -0.798 809.128 480.8684)" style="fill:#E6E9EE;" width="26.301" height="79.902"/>
	
		<rect x="166.904" y="336.072" transform="matrix(0.798 0.6027 -0.6027 0.798 262.998 -32.5515)" style="fill:#E6E9EE;" width="26.301" height="79.902"/>
</g>
<circle style="fill:#84DBFF;" cx="252" cy="256.7" r="126.9"/>
<circle style="fill:#E6E9EE;" cx="252" cy="256.7" r="98.9"/>
<g>
	<path style="fill:#FFD05B;" d="M399.1,190.8c17.9-20.2,17.2-51-2.1-70.3c-19.3-19.3-50.1-20-70.3-2.1L399.1,190.8z"/>
	<path style="fill:#FFD05B;" d="M104.9,190.8c-17.9-20.2-17.2-51,2.1-70.3s50.1-20,70.3-2.1L104.9,190.8z"/>
</g>
<polygon style="fill:#324A5E;" points="259.6,245.7 259.6,195 244.4,195 244.4,260.9 303.5,260.9 303.5,245.7 "/>
<g>
	<circle style="fill:#FF7058;" cx="252" cy="176" r="8.2"/>
	<circle style="fill:#FF7058;" cx="252" cy="337.4" r="8.2"/>
	<circle style="fill:#FF7058;" cx="332.7" cy="256.7" r="8.2"/>
	<circle style="fill:#FF7058;" cx="171.3" cy="256.7" r="8.2"/>
</g>
<g>
</g>
<g>
</g>
<g>
</g>
<g>
</g>
<g>
</g>
<g>
</g>
<g>
</g>
<g>
</g>
<g>
</g>
<g>
</g>
<g>
</g>
<g>
</g>
<g>
</g>
<g>
</g>
<g>
</g>
</svg>
