<?xml version="1.0" encoding="iso-8859-1"?>
<!-- Generator: Adobe Illustrator 19.0.0, SVG Export Plug-In . SVG Version: 6.00 Build 0)  -->
<svg version="1.1" id="Layer_1" xmlns="http://www.w3.org/2000/svg" xmlns:xlink="http://www.w3.org/1999/xlink" x="0px" y="0px"
	 viewBox="0 0 504 504" style="enable-background:new 0 0 504 504;" xml:space="preserve">
<circle style="fill:#FD8469;" cx="252" cy="252" r="252"/>
<path style="fill:#84DBFF;" d="M375.7,285.9c0,62.6-46.7,114.4-107,122.6V217.3h35.1v-32.2h-35.1v-50h-33.4v50h-35.1v32.2h35.1
	v191.2c-60.4-8.2-107-60-107-122.6H94.9C94.9,372.6,165.3,443,252,443c86.6,0,157.1-70.5,157.1-157.1H375.7z"/>
<g>
	<path style="fill:#324A5E;" d="M252,61c-26.2,0-47.4,21.2-47.4,47.4s21.2,47.4,47.4,47.4s47.4-21.2,47.4-47.4
		C299.3,82.2,278.1,61,252,61z M252,131c-12.5,0-22.7-10.2-22.7-22.7s10.2-22.7,22.7-22.7s22.7,10.2,22.7,22.7
		C274.7,120.9,264.5,131,252,131z"/>
	<polygon style="fill:#324A5E;" points="393.4,234.2 348.1,299.6 392.3,287.2 437.3,299.6 	"/>
	<polygon style="fill:#324A5E;" points="112.1,234.2 66.7,299.6 111,287.2 155.9,299.6 	"/>
</g>
<g>
</g>
<g>
</g>
<g>
</g>
<g>
</g>
<g>
</g>
<g>
</g>
<g>
</g>
<g>
</g>
<g>
</g>
<g>
</g>
<g>
</g>
<g>
</g>
<g>
</g>
<g>
</g>
<g>
</g>
</svg>
