<?xml version="1.0" encoding="iso-8859-1"?>
<!-- Generator: Adobe Illustrator 19.0.0, SVG Export Plug-In . SVG Version: 6.00 Build 0)  -->
<svg version="1.1" id="Layer_1" xmlns="http://www.w3.org/2000/svg" xmlns:xlink="http://www.w3.org/1999/xlink" x="0px" y="0px"
	 viewBox="0 0 504 504" style="enable-background:new 0 0 504 504;" xml:space="preserve">
<circle style="fill:#324A5E;" cx="252" cy="252" r="252"/>
<path style="fill:#FFD05B;" d="M232.6,293.2c-6.9,5-10.2,17.2-10.2,23.3c0,17.1,12.7,36.8,29.7,36.8s30.9-19.7,30.9-36.8
	c0-6.1-1.8-17.8-7.2-24.5c0,0-9.1,18.4-9.2,13.3c-0.7-22.4-14.5-29.8-14.5-29.8c1.4,28.7-8.8,16.9-11.7,36.4
	C239.7,316.8,232.6,293.2,232.6,293.2z"/>
<path style="fill:#FF7058;" d="M241.7,321.2c-3.7,2.7-5.5,9.2-5.5,12.5c0,9.1,6.9,19.6,16.2,19.6c9.3,0,16.8-10.5,16.8-19.6
	c0-3.3-1-9.5-3.9-13.1c0,0-4.9,9.8-5,7.1c-0.4-12-7.9-15.9-7.9-15.9c0.7,15.3-4.8,9-6.4,19.4C245.6,333.8,241.7,321.2,241.7,321.2z"
	/>
<path style="fill:#CED5E0;" d="M291.9,347.4l-1.6-4.8c-0.2-0.7-1-1.2-1.8-0.9L213,365.9c-0.7,0.2-1.2,1-0.9,1.8l1.6,4.8
	c0.2,0.7,1,1.2,1.8,0.9l75.6-24.3C291.8,349,292.2,348.2,291.9,347.4z"/>
<g>
	<path style="fill:#E6E9EE;" d="M291,365.9l-75.6-24.3c-0.7-0.2-1.5,0.2-1.8,0.9l-1.6,4.8c-0.2,0.7,0.2,1.5,0.9,1.8l75.6,24.3
		c0.7,0.2,1.5-0.2,1.8-0.9l1.6-4.8C292.2,367,291.8,366.2,291,365.9z"/>
	<path style="fill:#E6E9EE;" d="M402.6,180.5h-28.9l16.7-26c2.8-4.4,1.5-10.2-2.9-13.1c-4.4-2.8-10.2-1.5-13.1,2.9l-18.9,29.5
		l-17.1-29.2c-2.6-4.5-8.4-6-12.9-3.4s-6,8.4-3.4,12.9l15.4,26.3H165l16.7-26c2.8-4.4,1.5-10.2-2.9-13.1c-4.4-2.8-10.2-1.5-13.1,2.9
		l-18.9,29.5l-17.1-29.2c-2.6-4.5-8.4-6-12.9-3.4s-6,8.4-3.4,12.9l15.4,26.3h-27.5c-4.2,0-7.6,3.4-7.6,7.6c0,4.2,3.4,7.6,7.6,7.6
		h35.6v177.9c0,5.2,4.2,9.5,9.5,9.5c5.2,0,9.5-4.2,9.5-9.5V195.7h189.7v177.9c0,5.2,4.2,9.5,9.5,9.5c5.2,0,9.5-4.2,9.5-9.5V195.7h38
		c4.2,0,7.6-3.4,7.6-7.6C410.1,183.9,406.7,180.5,402.6,180.5z"/>
</g>
<path style="fill:#FFD05B;" d="M180.2,180.5c0.7,45.9,32.5,82.9,71.8,82.9s71.1-37,71.8-82.9H180.2z"/>
<g>
	<path style="fill:#E6E9ED;" d="M226.9,159.9c-1.3,0-2.6-0.7-3.3-1.9c-8.6-14.5-5-22.5-1.9-29.5c2.4-5.3,4.5-10,1.6-18.2
		c-0.7-2,0.3-4.1,2.3-4.8c2-0.7,4.1,0.3,4.8,2.3c3.9,11.1,0.9,17.9-1.8,23.8c-2.9,6.4-5.1,11.4,1.5,22.5c1.1,1.8,0.5,4.1-1.3,5.2
		C228.2,159.7,227.6,159.9,226.9,159.9z"/>
	<path style="fill:#E6E9ED;" d="M253.6,159.9c-1.3,0-2.6-0.7-3.3-1.9c-8.6-14.5-5-22.5-1.9-29.5c2.4-5.3,4.5-10,1.6-18.2
		c-0.7-2,0.3-4.1,2.3-4.8c2-0.7,4.1,0.3,4.8,2.3c3.9,11.1,0.9,17.9-1.8,23.8c-2.9,6.4-5.1,11.4,1.5,22.5c1.1,1.8,0.5,4.1-1.3,5.2
		C254.9,159.7,254.2,159.9,253.6,159.9z"/>
	<path style="fill:#E6E9ED;" d="M280.3,159.9c-1.3,0-2.6-0.7-3.3-1.9c-8.6-14.5-5-22.5-1.9-29.5c2.4-5.3,4.5-10,1.6-18.2
		c-0.7-2,0.3-4.1,2.3-4.8c2-0.7,4.1,0.3,4.8,2.3c3.9,11.1,0.9,17.9-1.8,23.8c-2.9,6.4-5.1,11.4,1.5,22.5c1.1,1.8,0.5,4.1-1.3,5.2
		C281.6,159.7,280.9,159.9,280.3,159.9z"/>
</g>
<g>
</g>
<g>
</g>
<g>
</g>
<g>
</g>
<g>
</g>
<g>
</g>
<g>
</g>
<g>
</g>
<g>
</g>
<g>
</g>
<g>
</g>
<g>
</g>
<g>
</g>
<g>
</g>
<g>
</g>
</svg>
