<?xml version="1.0" encoding="iso-8859-1"?>
<!-- Generator: Adobe Illustrator 19.0.0, SVG Export Plug-In . SVG Version: 6.00 Build 0)  -->
<svg version="1.1" id="Layer_1" xmlns="http://www.w3.org/2000/svg" xmlns:xlink="http://www.w3.org/1999/xlink" x="0px" y="0px"
	 viewBox="0 0 504 504" style="enable-background:new 0 0 504 504;" xml:space="preserve">
<circle style="fill:#324A5E;" cx="252" cy="252" r="252"/>
<g>
	<path style="fill:#E6E9EE;" d="M345.6,382.3c-39.1,0-71-31.8-71-71s31.8-71,71-71s71,31.8,71,71S384.8,382.3,345.6,382.3z
		 M345.6,260.2c-28.2,0-51.2,23-51.2,51.2s23,51.2,51.2,51.2s51.2-23,51.2-51.2C396.8,283.1,373.8,260.2,345.6,260.2z"/>
	<path style="fill:#E6E9EE;" d="M160.3,382.3c-39.1,0-71-31.8-71-71s31.8-71,71-71s71,31.8,71,71S199.4,382.3,160.3,382.3z
		 M160.3,260.2c-28.2,0-51.2,23-51.2,51.2s23,51.2,51.2,51.2s51.2-23,51.2-51.2C211.4,283.1,188.5,260.2,160.3,260.2z"/>
</g>
<path style="fill:#4CDBC4;" d="M360.9,308.3l-43.3-105.6l23-36.3c2.9-4.6,1.6-10.7-3.1-13.7c-4.6-2.9-10.7-1.6-13.7,3.1l-24.9,39.3
	c-0.2,0.3-0.3,0.6-0.4,0.9h-94.1c1.7-22.9-0.2-47.4-8.3-71.8h38.8c5.5,0,9.9-4.4,9.9-9.9s-4.4-9.9-9.9-9.9H132
	c-5.5,0-9.9,4.4-9.9,9.9s4.4,9.9,9.9,9.9h42.9c32.4,84.6-24.8,176.8-25.6,178.1c-2.9,4.6-1.6,10.7,3,13.7c1.6,1,3.5,1.5,5.3,1.5
	c3.3,0,6.5-1.6,8.4-4.6c1.7-2.7,27.1-43.4,35.9-97.1h99.5l41,100c1.6,3.8,5.3,6.1,9.2,6.1c1.3,0,2.5-0.2,3.8-0.7
	C360.5,319.1,362.9,313.3,360.9,308.3z"/>
<path style="fill:#FF7058;" d="M366.7,164.9h-69.9c-5.5,0-9.9-4.4-9.9-9.9s4.4-9.9,9.9-9.9h69.9c5.5,0,9.9,4.4,9.9,9.9
	S372.1,164.9,366.7,164.9z"/>
<g>
</g>
<g>
</g>
<g>
</g>
<g>
</g>
<g>
</g>
<g>
</g>
<g>
</g>
<g>
</g>
<g>
</g>
<g>
</g>
<g>
</g>
<g>
</g>
<g>
</g>
<g>
</g>
<g>
</g>
</svg>
