<?xml version="1.0" encoding="iso-8859-1"?>
<!-- Generator: Adobe Illustrator 19.0.0, SVG Export Plug-In . SVG Version: 6.00 Build 0)  -->
<svg version="1.1" id="Layer_1" xmlns="http://www.w3.org/2000/svg" xmlns:xlink="http://www.w3.org/1999/xlink" x="0px" y="0px"
	 viewBox="0 0 504 504" style="enable-background:new 0 0 504 504;" xml:space="preserve">
<circle style="fill:#FFD05B;" cx="252" cy="252" r="252"/>
<g>
	<path style="fill:#FF7058;" d="M129.1,302.8v32.6c0,0,69.3,24,94.8,101.1h56.3c25.5-77.1,94.8-101.1,94.8-101.1v-32.6H129.1z"/>
	<path style="fill:#FF7058;" d="M354.3,144.5c-0.1-0.1-0.2-0.2-0.3-0.3v-61h-21.4v82L252,245.9l-80.7-80.7V83.3h-21.4v61
		c-0.1,0.1-0.2,0.1-0.2,0.2c-29,29-29,75.9,0,104.9c28.1,28.1,73.2,28.9,102.3,2.3c29.1,26.5,74.2,25.8,102.3-2.3
		C383.3,220.4,383.3,173.5,354.3,144.5z"/>
</g>
<g>
	<circle style="fill:#FFFFFF;" cx="350.4" cy="178.6" r="6.9"/>
	<circle style="fill:#FFFFFF;" cx="355.6" cy="212.2" r="6.9"/>
	<circle style="fill:#FFFFFF;" cx="306.4" cy="219.2" r="6.9"/>
	<circle style="fill:#FFFFFF;" cx="327.6" cy="240.6" r="6.9"/>
	<circle style="fill:#FFFFFF;" cx="331.3" cy="207.8" r="6.9"/>
	<circle style="fill:#FFFFFF;" cx="292.5" cy="247.6" r="6.9"/>
	<circle style="fill:#FFFFFF;" cx="153.6" cy="178.6" r="6.9"/>
	<circle style="fill:#FFFFFF;" cx="148.4" cy="212.2" r="6.9"/>
	<circle style="fill:#FFFFFF;" cx="197.6" cy="219.2" r="6.9"/>
	<circle style="fill:#FFFFFF;" cx="176.4" cy="240.6" r="6.9"/>
	<circle style="fill:#FFFFFF;" cx="172.7" cy="207.8" r="6.9"/>
	<circle style="fill:#FFFFFF;" cx="211.5" cy="247.6" r="6.9"/>
</g>
<g>
</g>
<g>
</g>
<g>
</g>
<g>
</g>
<g>
</g>
<g>
</g>
<g>
</g>
<g>
</g>
<g>
</g>
<g>
</g>
<g>
</g>
<g>
</g>
<g>
</g>
<g>
</g>
<g>
</g>
</svg>
