<?xml version="1.0" encoding="iso-8859-1"?>
<!-- Generator: Adobe Illustrator 19.0.0, SVG Export Plug-In . SVG Version: 6.00 Build 0)  -->
<svg version="1.1" id="Layer_1" xmlns="http://www.w3.org/2000/svg" xmlns:xlink="http://www.w3.org/1999/xlink" x="0px" y="0px"
	 viewBox="0 0 504 504" style="enable-background:new 0 0 504 504;" xml:space="preserve">
<circle style="fill:#84DBFF;" cx="252" cy="252" r="252"/>
<path style="fill:#324A5E;" d="M208.2,140.8V119h87.5v21.8h16.5v-26c0-6.8-5.6-12.4-12.4-12.4H204c-6.8,0-12.4,5.6-12.4,12.4v26
	H208.2z"/>
<path style="fill:#FF7058;" d="M395.2,140.4H108.8c-6.5,0-11.8,5.3-11.8,11.8v209.6c0,6.5,5.3,11.8,11.8,11.8h286.5
	c6.5,0,11.8-5.3,11.8-11.8V152.2C407.1,145.6,401.8,140.4,395.2,140.4z"/>
<polygon style="fill:#FFD05B;" points="337,270.7 283.5,324.3 202.4,243.2 207.6,194.9 256,189.7 "/>
<circle style="fill:#324A5E;" cx="227.5" cy="214.7" r="7.3"/>
<g>
</g>
<g>
</g>
<g>
</g>
<g>
</g>
<g>
</g>
<g>
</g>
<g>
</g>
<g>
</g>
<g>
</g>
<g>
</g>
<g>
</g>
<g>
</g>
<g>
</g>
<g>
</g>
<g>
</g>
</svg>
