<?xml version="1.0" encoding="iso-8859-1"?>
<!-- Generator: Adobe Illustrator 19.0.0, SVG Export Plug-In . SVG Version: 6.00 Build 0)  -->
<svg version="1.1" id="Layer_1" xmlns="http://www.w3.org/2000/svg" xmlns:xlink="http://www.w3.org/1999/xlink" x="0px" y="0px"
	 viewBox="0 0 504 504" style="enable-background:new 0 0 504 504;" xml:space="preserve">
<circle style="fill:#90DFAA;" cx="252" cy="252" r="252"/>
<g>
	<path style="fill:#FF7058;" d="M208.2,150.9V129h87.5v21.8h16.5v-26c0-6.8-5.6-12.4-12.4-12.4H204c-6.8,0-12.4,5.6-12.4,12.4v26
		h16.6V150.9z"/>
	<path style="fill:#FF7058;" d="M395.2,150.4H108.8c-6.5,0-11.8,5.3-11.8,11.8v209.6c0,6.5,5.3,11.8,11.8,11.8h286.5
		c6.5,0,11.8-5.3,11.8-11.8V162.2C407.1,155.7,401.8,150.4,395.2,150.4z"/>
</g>
<path style="fill:#324A5E;" d="M208.2,129h87.5v21.3h16.5v-25.5c0-6.8-5.6-12.4-12.4-12.4H204c-6.8,0-12.4,5.6-12.4,12.4v25.5h16.5
	V129H208.2z"/>
<g>
	<rect x="191.7" y="150.4" style="fill:#FF7058;" width="16.5" height="0.5"/>
	<rect x="295.8" y="150.4" style="fill:#FF7058;" width="16.5" height="0.5"/>
</g>
<g>
	<path style="fill:#FFD05B;" d="M403.1,199.1c1.3,0,2.6-0.1,3.9-0.2v-36.7c0-6.5-5.3-11.8-11.8-11.8h-36.9c-0.1,1.2-0.2,2.5-0.2,3.8
		C358.2,179,378.3,199.1,403.1,199.1z"/>
	<path style="fill:#FFD05B;" d="M146.1,154.1c0-1.3-0.1-2.5-0.2-3.8h-37.2c-6.5,0-11.8,5.3-11.8,11.8v36.7c1.4,0.1,2.8,0.2,4.2,0.2
		C126,199.1,146.1,179,146.1,154.1z"/>
	<path style="fill:#FFD05B;" d="M407.1,371.8v-36.7c-1.3-0.1-2.6-0.2-3.9-0.2c-24.8,0-45,20.1-45,45c0,1.3,0.1,2.5,0.2,3.8h36.9
		C401.8,383.6,407.1,378.3,407.1,371.8z"/>
	<path style="fill:#FFD05B;" d="M101.2,334.9c-1.4,0-2.8,0.1-4.2,0.2v36.7c0,6.5,5.3,11.8,11.8,11.8H146c0.1-1.2,0.2-2.5,0.2-3.8
		C146.1,355,126,334.9,101.2,334.9z"/>
</g>
<g>
	<rect x="163.9" y="150.4" style="fill:#324A5E;" width="22.2" height="233.2"/>
	<rect x="317.9" y="150.4" style="fill:#324A5E;" width="22.2" height="233.2"/>
</g>
<g>
</g>
<g>
</g>
<g>
</g>
<g>
</g>
<g>
</g>
<g>
</g>
<g>
</g>
<g>
</g>
<g>
</g>
<g>
</g>
<g>
</g>
<g>
</g>
<g>
</g>
<g>
</g>
<g>
</g>
</svg>
