<?xml version="1.0" encoding="iso-8859-1"?>
<!-- Generator: Adobe Illustrator 19.0.0, SVG Export Plug-In . SVG Version: 6.00 Build 0)  -->
<svg version="1.1" id="Layer_1" xmlns="http://www.w3.org/2000/svg" xmlns:xlink="http://www.w3.org/1999/xlink" x="0px" y="0px"
	 viewBox="0 0 504 504" style="enable-background:new 0 0 504 504;" xml:space="preserve">
<circle style="fill:#324A5E;" cx="252" cy="252" r="252"/>
<polygon style="fill:#E6E9ED;" points="303.3,78.9 297.1,64.6 191.7,110.2 197.8,124.5 242.7,105.1 242.7,159.2 261.3,159.2 
	261.3,97.1 "/>
<path style="fill:#FF7058;" d="M304.4,184.3H199.6v-32.7c0,0,52.4-12.9,104.8,0L304.4,184.3L304.4,184.3z"/>
<path style="fill:#FFFFFF;" d="M373.9,394.6c-81.2,26.4-162.5,26.4-243.7,0c-31.7-67.6-31.7-135.1,0-202.7
	c81.2-26.4,162.5-26.4,243.7,0C405.5,259.4,405.5,327,373.9,394.6z"/>
<path style="fill:#84DBFF;" d="M374.2,296c0.4-28.2-5.4-56.4-17.4-84.9c-34.9-10.3-70.1-15.6-104.8-15.6s-69.9,5.2-104.8,15.6
	c-12.1,28.5-17.8,56.7-17.4,84.9H374.2z"/>
<rect x="241.6" y="184.3" style="fill:#FFFFFF;" width="20.8" height="131.3"/>
<rect x="150.5" y="327.8" style="fill:#E6E9ED;" width="203" height="15.4"/>
<g>
</g>
<g>
</g>
<g>
</g>
<g>
</g>
<g>
</g>
<g>
</g>
<g>
</g>
<g>
</g>
<g>
</g>
<g>
</g>
<g>
</g>
<g>
</g>
<g>
</g>
<g>
</g>
<g>
</g>
</svg>
