<?xml version="1.0" encoding="iso-8859-1"?>
<!-- Generator: Adobe Illustrator 19.0.0, SVG Export Plug-In . SVG Version: 6.00 Build 0)  -->
<svg version="1.1" id="Layer_1" xmlns="http://www.w3.org/2000/svg" xmlns:xlink="http://www.w3.org/1999/xlink" x="0px" y="0px"
	 viewBox="0 0 504 504" style="enable-background:new 0 0 504 504;" xml:space="preserve">
<circle style="fill:#84DBFF;" cx="252" cy="252" r="252"/>
<rect x="114.7" y="138.6" style="fill:#FFD05B;" width="274.7" height="235.3"/>
<rect x="114.7" y="138.6" style="fill:#324A5E;" width="274.7" height="67.5"/>
<g>
	<path style="fill:#FFFFFF;" d="M171.6,167.6L171.6,167.6c-5.7,0-10.3-4.6-10.3-10.3v-36.9c0-5.7,4.6-10.3,10.3-10.3l0,0
		c5.7,0,10.3,4.6,10.3,10.3v36.9C182,163,177.3,167.6,171.6,167.6z"/>
	<path style="fill:#FFFFFF;" d="M329.7,167.6L329.7,167.6c-5.7,0-10.3-4.6-10.3-10.3v-36.9c0-5.7,4.6-10.3,10.3-10.3l0,0
		c5.7,0,10.3,4.6,10.3,10.3v36.9C340,163,335.4,167.6,329.7,167.6z"/>
</g>
<path style="fill:#FF7058;" d="M307.6,265.5c-4.8-26-36.9-35.7-55.6-17.1l0,0l0,0c-18.7-18.7-50.8-8.9-55.6,17.1
	c-0.6,3.3-0.9,4.3-0.9,7.8c0,31.2,55.6,68.7,55.6,68.7s57.4-37.5,57.4-68.7C308.5,269.7,308.2,268.8,307.6,265.5z"/>
<g>
</g>
<g>
</g>
<g>
</g>
<g>
</g>
<g>
</g>
<g>
</g>
<g>
</g>
<g>
</g>
<g>
</g>
<g>
</g>
<g>
</g>
<g>
</g>
<g>
</g>
<g>
</g>
<g>
</g>
</svg>
