<?xml version="1.0" encoding="iso-8859-1"?>
<!-- Generator: Adobe Illustrator 19.0.0, SVG Export Plug-In . SVG Version: 6.00 Build 0)  -->
<svg version="1.1" id="Layer_1" xmlns="http://www.w3.org/2000/svg" xmlns:xlink="http://www.w3.org/1999/xlink" x="0px" y="0px"
	 viewBox="0 0 504 504" style="enable-background:new 0 0 504 504;" xml:space="preserve">
<circle style="fill:#FD8469;" cx="252" cy="252" r="252"/>
<path style="fill:#84DBFF;" d="M111.3,151.5v219.8c0,8.3,6.7,15,15,15h251.4c8.3,0,15-6.7,15-15V151.5H111.3z"/>
<path style="fill:#FFD05B;" d="M377.7,127.7H126.3c-8.3,0-15,6.7-15,15v61.5h281.4v-61.5C392.7,134.5,386,127.7,377.7,127.7z"/>
<g>
	<path style="fill:#324A5E;" d="M347,162.8h-15.6c-1.4,0-2.5-1.1-2.5-2.5v-55.8c0-1.4,1.1-2.5,2.5-2.5H347c1.4,0,2.5,1.1,2.5,2.5
		v55.8C349.5,161.7,348.4,162.8,347,162.8z"/>
	<path style="fill:#324A5E;" d="M172.6,162.8H157c-1.4,0-2.5-1.1-2.5-2.5v-55.8c0-1.4,1.1-2.5,2.5-2.5h15.6c1.4,0,2.5,1.1,2.5,2.5
		v55.8C175.1,161.7,174,162.8,172.6,162.8z"/>
	<path style="fill:#324A5E;" d="M234.5,362.9h18.1l27.3-52c25.5-2.3,43.7-8.1,43.7-14.9s-18.2-12.6-43.7-14.9l-27.3-52h-18.1
		l11.6,51.1c-11.5,0.4-22,1.5-30.8,3L203.1,270l-9.2-0.8l6.4,17.9c-7.4,2.6-11.8,5.6-11.8,9c0,3.3,4.4,6.4,11.8,9l-6.4,17.9l9.2-0.8
		l12.2-13.4c8.8,1.6,19.3,2.6,30.8,3L234.5,362.9z"/>
</g>
<g>
</g>
<g>
</g>
<g>
</g>
<g>
</g>
<g>
</g>
<g>
</g>
<g>
</g>
<g>
</g>
<g>
</g>
<g>
</g>
<g>
</g>
<g>
</g>
<g>
</g>
<g>
</g>
<g>
</g>
</svg>
