<?xml version="1.0" encoding="iso-8859-1"?>
<!-- Generator: Adobe Illustrator 19.0.0, SVG Export Plug-In . SVG Version: 6.00 Build 0)  -->
<svg version="1.1" id="Layer_1" xmlns="http://www.w3.org/2000/svg" xmlns:xlink="http://www.w3.org/1999/xlink" x="0px" y="0px"
	 viewBox="0 0 504 504" style="enable-background:new 0 0 504 504;" xml:space="preserve">
<circle style="fill:#FFD05B;" cx="252" cy="252" r="252"/>
<path style="fill:#FF7058;" d="M417.4,197.2H302c-4.7,0-8.6,3.8-8.6,8.6v35.1h-35.7v-118c0-10.3-8.3-18.6-18.6-18.6h-92.3
	c-10.3,0-18.6,8.3-18.6,18.6v258.4c0,10.3,8.3,18.6,18.6,18.6h92.3c10.3,0,18.6-8.3,18.6-18.6V271.4h35.7v35.1
	c0,4.7,3.8,8.6,8.6,8.6h115.4c4.7,0,8.6-3.8,8.6-8.6V205.7C426,201,422.1,197.2,417.4,197.2z"/>
<circle style="fill:#324A5E;" cx="191.1" cy="225.5" r="83"/>
<circle style="fill:#ACB3BA;" cx="191.1" cy="225.5" r="59.7"/>
<rect x="311.7" y="215.4" style="fill:#4CDBC4;" width="95.2" height="81.5"/>
<ellipse transform="matrix(0.7071 -0.7071 0.7071 0.7071 -91.7893 175.1221)" style="fill:#E6E9EE;" cx="165.496" cy="198.36" rx="20.4" ry="9.1"/>
<g>
</g>
<g>
</g>
<g>
</g>
<g>
</g>
<g>
</g>
<g>
</g>
<g>
</g>
<g>
</g>
<g>
</g>
<g>
</g>
<g>
</g>
<g>
</g>
<g>
</g>
<g>
</g>
<g>
</g>
</svg>
