<?xml version="1.0" encoding="iso-8859-1"?>
<!-- Generator: Adobe Illustrator 19.0.0, SVG Export Plug-In . SVG Version: 6.00 Build 0)  -->
<svg version="1.1" id="Layer_1" xmlns="http://www.w3.org/2000/svg" xmlns:xlink="http://www.w3.org/1999/xlink" x="0px" y="0px"
	 viewBox="0 0 504 504" style="enable-background:new 0 0 504 504;" xml:space="preserve">
<circle style="fill:#90DFAA;" cx="252" cy="252" r="252"/>
<circle style="fill:#324A5E;" cx="252" cy="252" r="187.1"/>
<circle style="fill:#E6E9EE;" cx="252" cy="252" r="154.1"/>
<polygon style="fill:#CED5E0;" points="228.7,275.3 252,347.6 275.3,275.3 347.6,252 275.3,228.7 252,156.4 228.7,228.7 156.4,252 
	"/>
<polygon style="fill:#FF7058;" points="223.9,223.9 164.8,339.2 280.1,280.1 339.2,164.8 "/>
<g>
	<path style="fill:#ACB3BA;" d="M259.9,129.7h-4.4l-8-12.2c-0.5-0.7-0.8-1.3-1-1.6h-0.1c0.1,0.7,0.1,1.7,0.1,3.1v10.7h-4.1v-19.4
		h4.7l7.7,11.8c0.4,0.5,0.7,1.1,1,1.6h0.1c-0.1-0.5-0.1-1.3-0.1-2.7v-10.7h4.1V129.7z"/>
	<path style="fill:#ACB3BA;" d="M248.3,392.7v-4.3c0.8,0.7,1.6,1.2,2.6,1.5c0.9,0.3,1.9,0.5,2.8,0.5c0.6,0,1,0,1.4-0.1
		s0.8-0.2,1-0.4c0.3-0.2,0.5-0.4,0.6-0.6s0.2-0.5,0.2-0.8c0-0.4-0.1-0.7-0.3-1c-0.2-0.3-0.5-0.6-0.9-0.8c-0.4-0.3-0.8-0.5-1.3-0.7
		s-1.1-0.5-1.7-0.7c-1.5-0.6-2.6-1.4-3.4-2.3c-0.7-0.9-1.1-2-1.1-3.3c0-1,0.2-1.9,0.6-2.6c0.4-0.7,1-1.3,1.7-1.8s1.5-0.8,2.4-1
		s1.9-0.3,2.9-0.3s1.9,0.1,2.7,0.2c0.8,0.1,1.5,0.3,2.2,0.6v4.1c-0.3-0.2-0.7-0.4-1.1-0.6s-0.8-0.3-1.2-0.4
		c-0.4-0.1-0.8-0.2-1.2-0.3c-0.4-0.1-0.8-0.1-1.1-0.1c-0.5,0-0.9,0-1.4,0.1c-0.4,0.1-0.7,0.2-1,0.4c-0.3,0.2-0.5,0.4-0.7,0.6
		s-0.2,0.5-0.2,0.8s0.1,0.6,0.3,0.9c0.2,0.3,0.4,0.5,0.7,0.7c0.3,0.2,0.7,0.5,1.2,0.7s1,0.4,1.5,0.7c0.8,0.3,1.5,0.7,2.1,1
		c0.6,0.4,1.1,0.8,1.6,1.2c0.4,0.5,0.8,1,1,1.6s0.4,1.3,0.4,2.1c0,1.1-0.2,2-0.6,2.7s-1,1.3-1.7,1.8s-1.5,0.8-2.5,1
		c-0.9,0.2-1.9,0.3-3,0.3s-2.1-0.1-3-0.3C249.9,393.3,249,393,248.3,392.7z"/>
	<path style="fill:#ACB3BA;" d="M393.8,261.7h-11.7v-19.4h11.2v3.6h-6.8v4.3h6.4v3.5h-6.4v4.4h7.3V261.7z"/>
	<path style="fill:#ACB3BA;" d="M137.6,242.3l-5.1,19.4h-4.8l-3.2-12.5c-0.2-0.7-0.3-1.4-0.3-2.2H124c-0.1,0.9-0.2,1.6-0.4,2.2
		l-3.3,12.5h-5.1l-5.1-19.4h4.8l2.7,12.9c0.1,0.6,0.2,1.3,0.3,2.2h0.1c0-0.7,0.2-1.5,0.4-2.3l3.5-12.9h4.7l3.2,13
		c0.1,0.5,0.2,1.2,0.3,2.1h0.1c0-0.7,0.1-1.4,0.3-2.2l2.7-13h4.4V242.3z"/>
</g>
<circle style="fill:#324A5E;" cx="252" cy="252" r="15.6"/>
<g>
</g>
<g>
</g>
<g>
</g>
<g>
</g>
<g>
</g>
<g>
</g>
<g>
</g>
<g>
</g>
<g>
</g>
<g>
</g>
<g>
</g>
<g>
</g>
<g>
</g>
<g>
</g>
<g>
</g>
</svg>
