<?xml version="1.0" encoding="iso-8859-1"?>
<!-- Generator: Adobe Illustrator 19.0.0, SVG Export Plug-In . SVG Version: 6.00 Build 0)  -->
<svg version="1.1" id="Layer_1" xmlns="http://www.w3.org/2000/svg" xmlns:xlink="http://www.w3.org/1999/xlink" x="0px" y="0px"
	 viewBox="0 0 504 504" style="enable-background:new 0 0 504 504;" xml:space="preserve">
<circle style="fill:#324A5E;" cx="252" cy="252" r="252"/>
<path style="fill:#4CDBC4;" d="M394.3,150.7H109.7c-7.7,0-14,6.3-14,14v174.7c0,7.7,6.3,14,14,14h284.6c7.7,0,14-6.3,14-14V164.6
	C408.3,156.9,402,150.7,394.3,150.7z"/>
<g>
	<path style="fill:#2C9984;" d="M359.5,172c-2.7,0.4-5.1,2-7.8,2.2c-1.5,0.1-3-0.4-4.5-0.8c-6.2-1.6-12.6-2.4-19-2.5
		c-1.7,0-3.5,0-5,0.9c-1.3,0.7-2.4,1.9-3.7,2.4c-2.7,1.1-5.7-0.6-8.6-0.5c-5.4,0.1-9.9,6.3-15.2,5.1c-0.7-3.7-4.6-6.2-8.1-5.4
		c-1,0.2-2,0.7-3,1.2c-1.2,0.6-2.4,1.2-3.6,1.8c-2.2,1.1-4.5,2.2-5.6,4.7c-0.6,1.3-0.7,2.9,0.1,4.1c1.5,2.5,4.6,1.9,6.8,0.5
		c2-1.3,3.8-3.1,6-3.3c0.8,3.4-1.8,6.8-4.9,7.9c-3.1,1.1-6.4,0.5-9.6-0.2c0.9,1.9-0.4,4.4-2.2,5.2c-1.8,0.8-3.9,0.5-5.9,0.2
		l-0.4,4.7c-3.6,0.2-6.5,4.6-5.5,8.4c2.5,1.4,5.5,1.7,8.2,0.8c-1.2-2.1-0.3-5.3,1.8-6.4c1.1-0.5,2.4-0.5,3.6-0.6
		c3.2-0.1,6.5-0.9,9.4-2.4l1,4.2c2.8,1.1,5.8,1.6,8.8,1.4v2.8l6.5,1.9c0.1,0.8,0.2,1,0.3,1.8c-6.1,5.3-15-0.5-22.4,1.5
		c-3,0.8-5.9,2.9-8.9,2.3c-1.3-0.3-2.4-1-3.7-1.1c-3.6-0.4-6.2,3.8-7.4,7.5c-0.9,2.9-1.6,6-1.2,9s1.9,6,4.5,7.3
		c4.6,2.4,11.5-0.9,14.6,3.6c2.9,10.1,4.7,20.6,5.2,31.1c0.1,2.8,0.3,5.7,1.6,8c1.4,2.4,4,3.8,6.7,4c2.1,0.1,4.3-0.6,5.6-2.3
		c0.7-0.9,1.1-2.1,1.5-3.2c1-3,2-6,3.1-9c0.4-1.1,0.8-2.3,1.5-3.2c0.7-1,1.8-1.7,2.5-2.7c3-4.1-0.8-10.4,1-15.3
		c1-2.6,3.3-4.2,5.1-6.2c1.8-2,3.2-5.1,1.8-7.5c-0.5-0.9-1.4-1.5-2.2-2.2c-5.1-4-8.7-10.1-9.8-16.8c1.6-1,3.7,0.2,4.7,1.9
		c1.1,1.6,1.5,3.7,2.7,5.2c0.8,1,1.9,1.8,2.9,2.5c2.2,1.5,4.7,3.1,7.4,2.2c1.7-0.5,2.9-2.2,2.6-4.1c-0.3-2.3-2.7-3.3-4.6-4.3
		c-1.8-1-3.7-3.2-2.7-5.1c5.4,1.4,10.7,3.3,15.8,5.6c3.4,3.6,6.8,7.3,8.7,12.1c0.5,1.1,0.8,2.4,1.6,3.2c0.8,0.9,2.2,1.3,3.1,0.5
		c0-2,0.1-4,0.1-6c3.5-0.3,6.4-4,6.2-7.7c3.6,0.2,7,3.1,7.9,6.9c0.1,0.1,0.2,0.2,0.3,0.3c4.8,5.3,12.3-2.1,8-7.8l-0.1-0.1
		c2.7,0.2,5.5,0.4,7.8-1.4c0.9-0.7,1.6-1.7,1.9-2.9c0.6-2.9-1.4-4.6-2.7-6.6c-1.5-2.3-2.1-5.4-1.5-8.1c3.2-0.3,6.5-0.3,9.7,0
		c-2.3-3.2,0.5-8.3-1.4-11.8c-0.7-1.4-2-2.2-3-3.4s-1.5-3.1-0.6-4.3l12.2-2c0.1,1.7,0.1,3.4,0.9,4.9s2.3,2.7,3.8,2.3
		c-2-3.6,3.6-8.2,0.3-12c-0.8-0.9-2-1.4-3.2-1.5c-4.4-0.4-8.9,0.7-13.3-0.2C369.1,174.5,364.4,171.2,359.5,172z"/>
	<path style="fill:#2C9984;" d="M193.1,174.1c-3.1-0.1-6.1,0.9-9,1.9c-2.5,0.8-4.9,1.7-7.4,2.5c-1.3,0.4-2.6,0.9-3.6,1.9
		s-1.4,2.7-0.6,3.9c4.1,1.2,8.5,1.6,12.8,1.1c1.4,2.5,0.7,5.7-0.4,8.3c-1.1,2.6-2.6,5.2-2.8,8.1c-0.1,1.7,0.2,3.4,0.7,5
		c0.7,2.9,1.7,5.8,2.8,8.6c1.6,3.9,3.6,7.8,6.5,10.7c0.9,0.9,2,1.8,2.7,2.9c0.5,0.8,0.8,1.7,1.6,2.2c0.8,0.6,1.9,0.4,2.8,0.5
		c2.9,0.4,4.8,3.3,6.7,5.6c2,2.3,5.1,4.3,7.6,2.6c1.4,4.2-1.8,8.6-1.4,13c0.5,5.2,5.8,8.2,8,12.8c0.8,1.7,1.2,3.6,1.5,5.5
		c2,11.9,2.1,24.9,8.7,34.7c1.8-0.7,2.5-3.1,2.4-5.1c-0.1-2.1-0.9-4-0.9-6.1c-0.1-4.5,2.9-8.3,5.8-11.6c1.3-1.4,2.5-2.9,3.8-4.3
		c-0.6-2.4,1.4-4.6,3-6.4c3.6-3.9,6.4-8.6,8.1-13.8c0.3-0.9,0.5-1.8,0.4-2.7c-0.2-1.9-1.9-3.2-3.4-4.3c-7.4-5-15-9.7-22.8-14
		c-0.5-3.5-4.8-5.5-7.5-3.6c-1.8,1.4-3,4.1-5.2,4.2c-2.4,0-3.5-3-4.2-5.5c-0.7-2.4-2.6-5.3-4.8-4.4c1.5-1.4,0.6-4.5-1.2-5.1
		c-1.9-0.7-4,0.7-4.8,2.6c-1.4-2.6-1.8-5.8-1.2-8.7c4-1.8,8.4-2.6,12.7-2.2c0,1.7,0,3.5,0,5.2c3.7,0.1,2.3-7.7,5.7-9.3
		c1.1-0.5,2.4-0.2,3.5-0.8c1.8-1.1,1.8-4.3,3.7-5.3c0.7-0.4,1.5-0.4,2.3-0.6c1.9-0.6,3-2.6,4.3-4.2c2.2-2.8,5.2-4.8,6.7-8
		s0.1-8.4-3.2-8.4c-3,0-4.7,4.1-7.7,4.6c-2.8,0.5-5.4-3.2-4.2-6c0.4-0.9,1.2-1.7,1.5-2.7c1-3.2-2.9-5.6-6-5.5
		c-3.1,0.2-6.4,1.4-9.1-0.3c-1.1-0.7-1.9-1.8-3.1-2.2c-2-0.5-3.7,1.3-5.6,2C197,174.6,195,174.2,193.1,174.1z"/>
	<path style="fill:#2C9984;" d="M367.5,251.9c0,1.5,0.4,3,1.1,4.3c2-0.5,1.9-0.5,4-1.1c0-0.2,0-0.3,0.1-0.5c0.2-1,1-2,2-2
		s1.8,1.1,2.1,2.1c0.3,1.1,0.3,2.2,0.5,3.2c0.7,2.7,3.2,5.1,2.3,7.7c-0.2,0.6-0.6,1.1-0.7,1.8c-0.2,0.9,0.4,1.8,0.7,2.7
		c1.2,2.8,0.3,6.9-2.5,7.6c-0.5,0.1-1,0.1-1.4,0.5c-0.8,0.7-0.3,2-0.3,3.1c0.1,3-3.7,4.7-6.2,3.5s-4-4.1-5.1-6.9
		c-0.3-0.7-0.6-1.4-1.2-1.8c-0.8-0.5-1.7-0.4-2.6-0.2c-2,0.4-4,0.8-6,1.1c-2.3,0.4-4.9,0.7-6.5-1c-0.8-0.9-1.2-2.1-1.5-3.2
		c-0.5-1.5-0.9-3.1-0.6-4.6c0.3-1.4,1.3-2.6,2.4-3.5c1.9-1.6,4.2-2.6,5.6-4.7c0.5-0.7,0.9-1.6,1.7-1.8c0.6-0.2,1.2,0.1,1.8-0.1
		c0.7-0.3,1-1.1,1.5-1.6c0.8-0.8,1.9-0.9,2.9-1.2c0.9-0.3,1.8-1.2,1.7-2.1c0-0.2,0.1-0.4,0.3-0.5c1.2-0.4,2.4-0.9,3.6-1.3
		C367.2,251.4,367.5,251.6,367.5,251.9z"/>
</g>
<path style="fill:#F9B54C;" d="M174.6,259.1h-42.3c-2.8,0-5.1,2.3-5.1,5.1v42.3c0,2.8,2.3,5.1,5.1,5.1h42.3c2.8,0,5.1-2.3,5.1-5.1
	v-42.3C179.7,261.4,177.5,259.1,174.6,259.1z"/>
<g>
</g>
<g>
</g>
<g>
</g>
<g>
</g>
<g>
</g>
<g>
</g>
<g>
</g>
<g>
</g>
<g>
</g>
<g>
</g>
<g>
</g>
<g>
</g>
<g>
</g>
<g>
</g>
<g>
</g>
</svg>
