<?xml version="1.0" encoding="iso-8859-1"?>
<!-- Generator: Adobe Illustrator 19.0.0, SVG Export Plug-In . SVG Version: 6.00 Build 0)  -->
<svg version="1.1" id="Layer_1" xmlns="http://www.w3.org/2000/svg" xmlns:xlink="http://www.w3.org/1999/xlink" x="0px" y="0px"
	 viewBox="0 0 504 504" style="enable-background:new 0 0 504 504;" xml:space="preserve">
<circle style="fill:#FD8469;" cx="252" cy="252" r="252"/>
<path style="fill:#E6E9EE;" d="M404.9,173h-165v158.1h109.3c6.4,0,11.5-5.2,11.5-11.5V252h55.8v-67.5
	C416.4,178.1,411.2,173,404.9,173z"/>
<g>
	<rect x="118.1" y="134.9" style="fill:#324A5E;" width="124.4" height="234.2"/>
	<rect x="147.2" y="109.6" style="fill:#324A5E;" width="66.2" height="25.4"/>
</g>
<g>
	<rect x="108.8" y="134.9" style="fill:#2B3B4E;" width="142.9" height="25.8"/>
	<rect x="108.8" y="343.3" style="fill:#2B3B4E;" width="142.9" height="25.8"/>
</g>
<g>
	<rect x="257" y="186.2" style="fill:#4CDBC4;" width="13.8" height="19.7"/>
	<rect x="289.1" y="186.2" style="fill:#4CDBC4;" width="13.8" height="19.7"/>
	<rect x="321.1" y="186.2" style="fill:#4CDBC4;" width="13.8" height="19.7"/>
	<rect x="353.2" y="186.2" style="fill:#4CDBC4;" width="13.8" height="19.7"/>
	<rect x="385.2" y="186.2" style="fill:#4CDBC4;" width="13.8" height="19.7"/>
	<rect x="257" y="298.1" style="fill:#4CDBC4;" width="13.8" height="19.7"/>
	<rect x="289.1" y="298.1" style="fill:#4CDBC4;" width="13.8" height="19.7"/>
	<rect x="321.1" y="298.1" style="fill:#4CDBC4;" width="13.8" height="19.7"/>
	<rect x="257" y="219.2" style="fill:#4CDBC4;" width="77.9" height="65.7"/>
</g>
<g>
</g>
<g>
</g>
<g>
</g>
<g>
</g>
<g>
</g>
<g>
</g>
<g>
</g>
<g>
</g>
<g>
</g>
<g>
</g>
<g>
</g>
<g>
</g>
<g>
</g>
<g>
</g>
<g>
</g>
</svg>
