<?xml version="1.0" encoding="iso-8859-1"?>
<!-- Generator: Adobe Illustrator 19.0.0, SVG Export Plug-In . SVG Version: 6.00 Build 0)  -->
<svg version="1.1" id="Layer_1" xmlns="http://www.w3.org/2000/svg" xmlns:xlink="http://www.w3.org/1999/xlink" x="0px" y="0px"
	 viewBox="0 0 504 504" style="enable-background:new 0 0 504 504;" xml:space="preserve">
<circle style="fill:#90DFAA;" cx="252" cy="252" r="252"/>
<path style="fill:#FF7058;" d="M228.7,258c0-54.1-12.6-98-47.6-98S102,203.8,102,258c0,18.5,3.3,35.8,9.1,50.6
	c7.1,18.2,10.2,37.8,9.3,57.6c-0.1,1.3-0.1,2.7,0,4.1c0.7,27,20.7,49.4,45.1,50.6c27,1.3,49.3-22.5,49.3-52.1c0-1.5-0.1-2.9-0.2-4.3
	c-1.6-21.2,0.8-42.5,7.3-62.5C226.3,288.7,228.7,273.8,228.7,258z"/>
<path style="fill:#334A5E;" d="M185.8,219.8l2-19.8c0.3-3-1.9-5.4-4.9-5.4s-5.7,2.4-6,5.4l-2,19.8c-10.5,9.6-58.7,57.6-50.9,127.9
	c0.3,2.5,2.4,4.3,4.9,4.3c0.4,0,0.7,0,1.1-0.1c3-0.6,5.1-3.4,4.8-6.3c-6.6-59.6,31.7-103,44.5-115.7c10.3,12.6,39.9,55.9,21.3,115.7
	c-0.9,2.9,0.7,5.7,3.6,6.3c0.4,0.1,0.7,0.1,1.1,0.1c2.5,0,4.9-1.7,5.7-4.3C232.9,277.4,194.3,229.3,185.8,219.8z"/>
<path style="fill:#FF7058;" d="M394.1,189.1c0-54.1-40.2-98-75.2-98s-51.6,43.9-51.6,98c0,18.5,3.3,35.8,9.1,50.6
	c7.1,18.2,10.2,37.8,9.3,57.6c-0.1,1.3-0.1,2.7,0,4.1c0.7,27,20.7,49.4,45.1,50.6c27,1.3,49.3-22.5,49.3-52.1c0-1.5-0.1-2.9-0.2-4.3
	c-1.6-21.2,0.8-42.5,7.3-62.5C391.7,219.8,394.1,204.9,394.1,189.1z"/>
<path style="fill:#334A5E;" d="M326.6,149.7l-1.7-20c-0.3-3-2.9-5.4-5.9-5.4s-5.2,2.4-5,5.4l1.7,20c-8.7,9.6-48,58.1-27.1,129.1
	c0.8,2.6,3.2,4.3,5.7,4.3c0.4,0,0.7,0,1.1-0.1c2.9-0.6,4.5-3.5,3.6-6.4c-17.7-60.2,12.6-104,23-116.8
	c12.6,12.7,50.3,56.4,42.8,116.8c-0.4,2.9,1.8,5.8,4.7,6.4c0.4,0.1,0.8,0.1,1.1,0.1c2.5,0,4.6-1.8,4.9-4.3
	C384.5,207.8,337,159.3,326.6,149.7z"/>
<g>
</g>
<g>
</g>
<g>
</g>
<g>
</g>
<g>
</g>
<g>
</g>
<g>
</g>
<g>
</g>
<g>
</g>
<g>
</g>
<g>
</g>
<g>
</g>
<g>
</g>
<g>
</g>
<g>
</g>
</svg>
