<?xml version="1.0" encoding="iso-8859-1"?>
<!-- Generator: Adobe Illustrator 19.0.0, SVG Export Plug-In . SVG Version: 6.00 Build 0)  -->
<svg version="1.1" id="Layer_1" xmlns="http://www.w3.org/2000/svg" xmlns:xlink="http://www.w3.org/1999/xlink" x="0px" y="0px"
	 viewBox="0 0 504 504" style="enable-background:new 0 0 504 504;" xml:space="preserve">
<circle style="fill:#90DFAA;" cx="252" cy="252" r="252"/>
<g>
	<path style="fill:#324A5E;" d="M246.4,265.3l-33.8-33.8c-2.3-2.3-6-2.3-8.4,0c-2.3,2.3-2.3,6,0,8.4l12.7,12.7l-27.1,27.1l8.4,8.4
		l27.1-27.1l12.7,12.7c1.2,1.2,2.7,1.7,4.2,1.7s3-0.6,4.2-1.7C248.7,271.3,248.7,267.6,246.4,265.3z"/>
	<circle style="fill:#324A5E;" cx="355.8" cy="352.8" r="40.4"/>
</g>
<circle style="fill:#FFD05B;" cx="355.8" cy="352.8" r="19.7"/>
<circle style="fill:#324A5E;" cx="129" cy="352.8" r="40.4"/>
<path style="fill:#FF7058;" d="M414.7,299.4c-3.9-28.4-25.3-51.4-52.5-58.2V114.7c0-6.5-5.3-11.8-11.8-11.8h-209
	c-6.5,0-11.8,5.3-11.8,11.8s5.3,11.8,11.8,11.8h32l-31.7,134.4c-22.6,4.4-40.7,21.5-46.4,43.6c9.6-6.6,21.2-10.4,33.7-10.4
	c1.4,0,2.8,0,4.1,0.1c30.5,2.1,53.6,28.8,53.6,59.4v15.1h88.6h12h8.6v-8.5c0-32.4,25.7-59.5,58.1-59.8c0.2,0,0.5,0,0.7,0
	c23.8,0,44.7,11.9,57.4,30C415.2,320.8,416.2,310.3,414.7,299.4z M338.6,239.5c-17.9,1.7-33.9,10.2-45.3,22.9h-23.4v75.7h-57.2
	l-0.2-22.5c-1.7-26.8-21.1-48.8-46.6-54.4l31.8-134.7h140.9L338.6,239.5L338.6,239.5z"/>
<polygon style="fill:#324A5E;" points="321.5,266.8 269.9,266.8 269.9,251.1 305.7,251.1 305.7,195.7 321.5,195.7 "/>
<circle style="fill:#FFD05B;" cx="129" cy="352.8" r="19.7"/>
<g>
</g>
<g>
</g>
<g>
</g>
<g>
</g>
<g>
</g>
<g>
</g>
<g>
</g>
<g>
</g>
<g>
</g>
<g>
</g>
<g>
</g>
<g>
</g>
<g>
</g>
<g>
</g>
<g>
</g>
</svg>
