<?xml version="1.0" encoding="iso-8859-1"?>
<!-- Generator: Adobe Illustrator 19.0.0, SVG Export Plug-In . SVG Version: 6.00 Build 0)  -->
<svg version="1.1" id="Layer_1" xmlns="http://www.w3.org/2000/svg" xmlns:xlink="http://www.w3.org/1999/xlink" x="0px" y="0px"
	 viewBox="0 0 504 504" style="enable-background:new 0 0 504 504;" xml:space="preserve">
<circle style="fill:#84DBFF;" cx="252" cy="252" r="252"/>
<path style="fill:#FF7058;" d="M321.9,113.7l-166.7,23.4c-5.9,0.7-10.4,5.8-10.4,11.7V222c0,6,4.4,11,10.4,11.7l107.3,15.1
	c4.3,10.8,16.4,51.2-1.4,133.8h-3.9c-2.6,0-5.2,1.1-6.8,3.2c-7.5,9.8-0.7,20.7,8.7,20.7h71.7c6.7,0,12.1-5.4,12.1-12.1v-11.8V256.1
	c32.9-6.4,58.3-35.3,58.3-70.7l0,0C401.2,142.8,364.4,109.4,321.9,113.7z"/>
<circle style="fill:#FFD05B;" cx="305.4" cy="279.5" r="10.7"/>
<g>
	<rect x="89.6" y="147.5" style="fill:#324A5E;" width="39.3" height="14.5"/>
	<rect x="89.6" y="212.2" style="fill:#324A5E;" width="39.3" height="14.5"/>
	<rect x="89.6" y="179.8" style="fill:#324A5E;" width="39.3" height="14.5"/>
</g>
<g>
</g>
<g>
</g>
<g>
</g>
<g>
</g>
<g>
</g>
<g>
</g>
<g>
</g>
<g>
</g>
<g>
</g>
<g>
</g>
<g>
</g>
<g>
</g>
<g>
</g>
<g>
</g>
<g>
</g>
</svg>
