<?xml version="1.0" encoding="iso-8859-1"?>
<!-- Generator: Adobe Illustrator 19.0.0, SVG Export Plug-In . SVG Version: 6.00 Build 0)  -->
<svg version="1.1" id="Layer_1" xmlns="http://www.w3.org/2000/svg" xmlns:xlink="http://www.w3.org/1999/xlink" x="0px" y="0px"
	 viewBox="0 0 504 504" style="enable-background:new 0 0 504 504;" xml:space="preserve">
<circle style="fill:#FD8469;" cx="252" cy="252" r="252"/>
<path style="fill:#FFD05B;" d="M411.7,381.5H92.3c-9.6,0-17.5-7.8-17.5-17.5v-61.2h354.3V364C429.1,373.7,421.3,381.5,411.7,381.5z"
	/>
<path style="fill:#4CDBC4;" d="M422.4,290.9c-1.3,0-2.6-0.3-3.9-0.8l-40.4-17.5c-12.4-5.4-26.5-5.2-38.8,0.6l-10.9,5.1
	c-18.1,8.5-39.7,8.4-57.7-0.4l-9-4.4c-12.2-6-26.3-6.4-38.9-1.1l-11.4,4.8c-17.1,7.2-36.5,6.9-53.4-0.8l-5-2.4
	c-13.5-6.1-29.3-5.5-42.2,1.7l-25.1,13.9c-4.8,2.6-10.7,0.9-13.4-3.8c-2.6-4.8-0.9-10.7,3.8-13.4l25.1-13.9
	c18.3-10.2,40.7-11,59.8-2.4l5.1,2.3c11.9,5.4,25.6,5.6,37.6,0.5l11.4-4.8c17.8-7.4,37.9-6.9,55.1,1.6l9,4.4
	c12.7,6.2,27.9,6.3,40.7,0.3l10.9-5.1c17.3-8.2,37.4-8.5,55-0.9l40.4,17.5c5,2.2,7.3,8,5.1,12.9
	C429.9,288.6,426.2,290.9,422.4,290.9z"/>
<path style="fill:#FFD05B;" d="M428.9,235c-4-94.2-81.6-169.4-176.9-169.4l0,0c-95.3,0-172.9,75.2-176.9,169.4H428.9z"/>
<g>
	<circle style="fill:#F9B54C;" cx="252" cy="117.2" r="16.8"/>
	<circle style="fill:#F9B54C;" cx="167.8" cy="170.8" r="16.8"/>
	<circle style="fill:#F9B54C;" cx="336.2" cy="170.8" r="16.8"/>
</g>
<g>
</g>
<g>
</g>
<g>
</g>
<g>
</g>
<g>
</g>
<g>
</g>
<g>
</g>
<g>
</g>
<g>
</g>
<g>
</g>
<g>
</g>
<g>
</g>
<g>
</g>
<g>
</g>
<g>
</g>
</svg>
