<?xml version="1.0" encoding="iso-8859-1"?>
<!-- Generator: Adobe Illustrator 19.0.0, SVG Export Plug-In . SVG Version: 6.00 Build 0)  -->
<svg version="1.1" id="Layer_1" xmlns="http://www.w3.org/2000/svg" xmlns:xlink="http://www.w3.org/1999/xlink" x="0px" y="0px"
	 viewBox="0 0 504 504" style="enable-background:new 0 0 504 504;" xml:space="preserve">
<circle style="fill:#324A5E;" cx="252" cy="252" r="252"/>
<path style="fill:#4CDBC4;" d="M263,153.2h-22v-40.9c0-6.1,4.9-11,11-11l0,0c6.1,0,11,4.9,11,11V153.2z"/>
<g>
	
		<rect x="283.225" y="349.137" transform="matrix(-0.5351 -0.8448 0.8448 -0.5351 204.0045 829.2414)" style="fill:#CED5E0;" width="93.901" height="18.7"/>
	
		<rect x="167.171" y="311.63" transform="matrix(-0.8447 -0.5352 0.5352 -0.8447 133.7368 755.9626)" style="fill:#CED5E0;" width="18.701" height="93.906"/>
</g>
<ellipse style="fill:#E6E9EE;" cx="252" cy="259.1" rx="96.8" ry="106.3"/>
<path style="fill:#54C0EB;" d="M316.9,249.6c0,35.8-129.7,35.8-129.7,0s29-64.8,64.8-64.8C287.9,184.8,316.9,213.8,316.9,249.6z"/>
<rect x="243.2" y="172.7" style="fill:#E6E9EE;" width="16.1" height="115.2"/>
<g>
	<circle style="fill:#FF7058;" cx="295" cy="320.9" r="13.8"/>
	<circle style="fill:#FF7058;" cx="209" cy="320.9" r="13.8"/>
	<path style="fill:#FF7058;" d="M382.5,139.1l-131.2-6.6l-129.8,6.6c-9.3,0.5-17.1-6.9-17.1-16.2l0,0c0-9.3,7.8-16.7,17.1-16.2
		l129.8,6.6l131.2-6.6c9.3-0.5,17.1,6.9,17.1,16.2l0,0C399.6,132.2,391.8,139.5,382.5,139.1z"/>
</g>
<g>
	<circle style="fill:#4CDBC4;" cx="352.8" cy="393.7" r="16.9"/>
	<circle style="fill:#4CDBC4;" cx="155.3" cy="393.7" r="16.9"/>
</g>
<g>
</g>
<g>
</g>
<g>
</g>
<g>
</g>
<g>
</g>
<g>
</g>
<g>
</g>
<g>
</g>
<g>
</g>
<g>
</g>
<g>
</g>
<g>
</g>
<g>
</g>
<g>
</g>
<g>
</g>
</svg>
