<?xml version="1.0" encoding="iso-8859-1"?>
<!-- Generator: Adobe Illustrator 19.0.0, SVG Export Plug-In . SVG Version: 6.00 Build 0)  -->
<svg version="1.1" id="Layer_1" xmlns="http://www.w3.org/2000/svg" xmlns:xlink="http://www.w3.org/1999/xlink" x="0px" y="0px"
	 viewBox="0 0 504 504" style="enable-background:new 0 0 504 504;" xml:space="preserve">
<circle style="fill:#90DFAA;" cx="252" cy="252" r="252"/>
<path style="fill:#324A5E;" d="M258.5,345.4c-1.5-3.5-5.9-5.2-9.7-3.8c-4.3,1.5-8.5,2.9-12.7,4.1l-22.4-59.9l-14.1,4.4l22.2,59.1
	c-30.4,6.5-56.6,4.8-75.3,1.4l20.9-61.5l-14.3-4l-21.2,62.3c-10-2.7-15.7-5.4-16-5.5c-3.7-1.7-8.2-0.5-10.1,2.9
	c-1.9,3.3-0.5,7.5,3.1,9.2c1.7,0.8,29,13.5,71,13.5c21.4,0,46.7-3.3,74.3-13.2C258.1,352.9,260,348.9,258.5,345.4z"/>
<path style="fill:#FF7058;" d="M388.7,160.9l-15.4,37.5h-81.5c-1.2-11.9-11.3-21.2-23.5-21.2h-89.7c-6.9,0-13.4,3-17.9,8.2
	l-49.3,57.3c-7.2,8.3-11.1,18.9-11.1,29.9c0,25.3,20.5,45.8,45.8,45.8h90.6c6.9,0,13.5-3,18-8.3l31.7-37.3c3.6-4.3,5.6-9.7,5.6-15.3
	V243h127.7v-44.5V161h-31V160.9z"/>
<path style="fill:#E6E9EE;" d="M181.5,195.3H152l-40.8,47.3c-1.4,1.6-2.6,3.3-3.8,5.1h30.8c25.6,0,47-18.4,51.5-42.7
	C190.7,200,186.7,195.3,181.5,195.3z"/>
<path style="fill:#324A5E;" d="M326.3,136.5H110.1c-3.6,0-6.5,2.9-6.5,6.5s2.9,6.5,6.5,6.5h99.2v27.7h17.9v-27.7h99.2
	c3.6,0,6.5-2.9,6.5-6.5C332.8,139.4,329.9,136.5,326.3,136.5z"/>
<path style="fill:#E6E9EE;" d="M242.7,195.3h-25.3c-3.4,0-6.2,2.8-6.2,6.2v40c0,3.4,2.8,6.2,6.2,6.2h25.3c3.4,0,6.2-2.8,6.2-6.2v-40
	C249,198.1,246.2,195.3,242.7,195.3z"/>
<g>
</g>
<g>
</g>
<g>
</g>
<g>
</g>
<g>
</g>
<g>
</g>
<g>
</g>
<g>
</g>
<g>
</g>
<g>
</g>
<g>
</g>
<g>
</g>
<g>
</g>
<g>
</g>
<g>
</g>
</svg>
