<?xml version="1.0" encoding="iso-8859-1"?>
<!-- Generator: Adobe Illustrator 19.0.0, SVG Export Plug-In . SVG Version: 6.00 Build 0)  -->
<svg version="1.1" id="Layer_1" xmlns="http://www.w3.org/2000/svg" xmlns:xlink="http://www.w3.org/1999/xlink" x="0px" y="0px"
	 viewBox="0 0 504 504" style="enable-background:new 0 0 504 504;" xml:space="preserve">
<circle style="fill:#84DBFF;" cx="252" cy="252" r="252"/>
<polygon style="fill:#FFD05B;" points="374.3,135 162.8,135 162.8,116 121.9,116 121.9,388 162.8,388 162.8,197.5 374.3,197.5 
	405.8,166.3 "/>
<path style="fill:#FF7058;" d="M358.4,216.4H189.5c-3.4,0-6.2,2.8-6.2,6.2v133.5c0,3.4,2.8,6.2,6.2,6.2h168.9c3.4,0,6.2-2.8,6.2-6.2
	V222.6C364.6,219.2,361.8,216.4,358.4,216.4z"/>
<g>
	<path style="fill:#324A5E;" d="M215.1,235.6L215.1,235.6c-3.3,0-6-2.7-6-6v-43.4c0-3.3,2.7-6,6-6l0,0c3.3,0,6,2.7,6,6v43.4
		C221.1,232.9,218.4,235.6,215.1,235.6z"/>
	<path style="fill:#324A5E;" d="M332.8,235.6L332.8,235.6c-3.3,0-6-2.7-6-6v-43.4c0-3.3,2.7-6,6-6l0,0c3.3,0,6,2.7,6,6v43.4
		C338.8,232.9,336.1,235.6,332.8,235.6z"/>
	<path style="fill:#324A5E;" d="M309.6,330.6H291V297h-34.2v33.6h-18.6v-82.5h18.6V281H291v-32.9h18.6V330.6z"/>
</g>
<g>
</g>
<g>
</g>
<g>
</g>
<g>
</g>
<g>
</g>
<g>
</g>
<g>
</g>
<g>
</g>
<g>
</g>
<g>
</g>
<g>
</g>
<g>
</g>
<g>
</g>
<g>
</g>
<g>
</g>
</svg>
