<?xml version="1.0" encoding="iso-8859-1"?>
<!-- Generator: Adobe Illustrator 19.0.0, SVG Export Plug-In . SVG Version: 6.00 Build 0)  -->
<svg version="1.1" id="Layer_1" xmlns="http://www.w3.org/2000/svg" xmlns:xlink="http://www.w3.org/1999/xlink" x="0px" y="0px"
	 viewBox="0 0 504 504" style="enable-background:new 0 0 504 504;" xml:space="preserve">
<circle style="fill:#84DBFF;" cx="252" cy="252" r="252"/>
<path style="fill:#F9B54C;" d="M250.3,110.5c12.1-10.8,27.9-17.4,45.3-17.4c1.8,0,3.5,0.1,5.2,0.3c-8.7-19.3-28-32.7-50.5-32.7
	s-41.8,13.4-50.5,32.7c1.7-0.1,3.5-0.3,5.2-0.3C222.4,93.1,238.2,99.7,250.3,110.5z"/>
<path style="fill:#2C9984;" d="M227.4,161.3c0-15.6,5.4-30,14.3-41.5c-9.8-8.6-22.6-13.9-36.7-13.9c-30.6,0-55.4,24.8-55.4,55.4
	s24.8,55.4,55.4,55.4c14.1,0,26.9-5.3,36.6-13.9c-7.9-10.2-12.9-22.6-14-36.1C227.5,164.9,227.4,163.1,227.4,161.3z"/>
<circle style="fill:#FFFFFF;" cx="295.6" cy="161.3" r="55.4"/>
<polygon style="fill:#FF7058;" points="250.3,432.4 152,177.3 348.6,177.3 "/>
<g>
</g>
<g>
</g>
<g>
</g>
<g>
</g>
<g>
</g>
<g>
</g>
<g>
</g>
<g>
</g>
<g>
</g>
<g>
</g>
<g>
</g>
<g>
</g>
<g>
</g>
<g>
</g>
<g>
</g>
</svg>
