<?xml version="1.0" encoding="iso-8859-1"?>
<!-- Generator: Adobe Illustrator 19.0.0, SVG Export Plug-In . SVG Version: 6.00 Build 0)  -->
<svg version="1.1" id="Layer_1" xmlns="http://www.w3.org/2000/svg" xmlns:xlink="http://www.w3.org/1999/xlink" x="0px" y="0px"
	 viewBox="0 0 504 504" style="enable-background:new 0 0 504 504;" xml:space="preserve">
<circle style="fill:#84DBFF;" cx="252" cy="252" r="252"/>
<g>
	<path style="fill:#324A5E;" d="M400.9,176.3h-29.4c-1.8,0-3.3,1.5-3.3,3.3v21.7l-24.3,24.3l6.1,6.1l24.1-24.1h26.7
		c1.8,0,3.3-1.5,3.3-3.3v-24.6C404.2,177.8,402.7,176.3,400.9,176.3z"/>
	<path style="fill:#324A5E;" d="M103.1,176.3h29.4c1.8,0,3.3,1.5,3.3,3.3v21.7l24.3,24.3l-6.1,6.1l-24.1-24.1h-26.7
		c-1.8,0-3.3-1.5-3.3-3.3v-24.6C99.7,177.8,101.2,176.3,103.1,176.3z"/>
</g>
<path style="fill:#FF7058;" d="M366,247.2V234c0-6.5-3.5-12.2-8.6-15.5l-10-96.6c-0.7-7.1-6.7-12.5-13.9-12.5H170.4
	c-7.1,0-13.1,5.4-13.9,12.5l-10,96.7c-5.1,3.2-8.6,8.9-8.6,15.4v13.3c-18.6,0.9-33.4,16.2-33.4,35v51.4h296.6v-51.4
	C401.2,262.9,385.4,247.2,366,247.2z"/>
<polygon style="fill:#E6E9EE;" points="172.2,200.2 179.1,133 324.8,133 331.8,200.2 "/>
<g>
	<path style="fill:#324A5E;" d="M216.6,232.7c-2,0-3.6,1.6-3.6,3.6v50.2c0,2,1.6,3.6,3.6,3.6s3.6-1.6,3.6-3.6v-50.2
		C220.1,234.2,218.5,232.7,216.6,232.7z"/>
	<path style="fill:#324A5E;" d="M235.1,232.7c-2,0-3.6,1.6-3.6,3.6v50.2c0,2,1.6,3.6,3.6,3.6s3.6-1.6,3.6-3.6v-50.2
		C238.7,234.2,237.1,232.7,235.1,232.7z"/>
	<path style="fill:#324A5E;" d="M253.7,232.7c-2,0-3.6,1.6-3.6,3.6v50.2c0,2,1.6,3.6,3.6,3.6s3.6-1.6,3.6-3.6v-50.2
		C257.2,234.2,255.6,232.7,253.7,232.7z"/>
	<path style="fill:#324A5E;" d="M272.2,232.7c-2,0-3.6,1.6-3.6,3.6v50.2c0,2,1.6,3.6,3.6,3.6s3.6-1.6,3.6-3.6v-50.2
		C275.8,234.2,274.2,232.7,272.2,232.7z"/>
	<path style="fill:#324A5E;" d="M290.8,232.7c-2,0-3.6,1.6-3.6,3.6v50.2c0,2,1.6,3.6,3.6,3.6s3.6-1.6,3.6-3.6v-50.2
		C294.3,234.2,292.7,232.7,290.8,232.7z"/>
</g>
<g>
	<circle style="fill:#FFD05B;" cx="329" cy="261.3" r="19.3"/>
	<circle style="fill:#FFD05B;" cx="175" cy="261.3" r="19.3"/>
</g>
<g>
	<path style="fill:#2B3B4E;" d="M341.2,327v45.2c0,3.7,3,6.7,6.7,6.7h27.6c3.7,0,6.7-3,6.7-6.7V327H341.2z"/>
	<path style="fill:#2B3B4E;" d="M121.8,372.2c0,3.7,3,6.7,6.7,6.7h27.6c3.7,0,6.7-3,6.7-6.7V327h-41V372.2z"/>
</g>
<rect x="91.8" y="306.8" style="fill:#324A5E;" width="320.5" height="26.9"/>
<rect x="229.4" y="144.9" style="fill:#CED5E0;" width="45.1" height="14.9"/>
<g>
</g>
<g>
</g>
<g>
</g>
<g>
</g>
<g>
</g>
<g>
</g>
<g>
</g>
<g>
</g>
<g>
</g>
<g>
</g>
<g>
</g>
<g>
</g>
<g>
</g>
<g>
</g>
<g>
</g>
</svg>
