<?xml version="1.0" encoding="iso-8859-1"?>
<!-- Generator: Adobe Illustrator 19.0.0, SVG Export Plug-In . SVG Version: 6.00 Build 0)  -->
<svg version="1.1" id="Layer_1" xmlns="http://www.w3.org/2000/svg" xmlns:xlink="http://www.w3.org/1999/xlink" x="0px" y="0px"
	 viewBox="0 0 504 504" style="enable-background:new 0 0 504 504;" xml:space="preserve">
<circle style="fill:#324A5E;" cx="252" cy="252" r="252"/>
<path id="SVGCleanerId_0" style="fill:#4CDBC4;" d="M318.5,252c0-91.4-41-173.2-67.4-173.2c-29.1,0-67.4,81.8-67.4,173.2
	c0,0.1,0,0.3,0,0.4s0,0.3,0,0.4c0,91.4,38.3,173.2,67.4,173.2c26.4,0,67.4-81.8,67.4-173.2c0-0.1,0-0.3,0-0.4S318.5,252.1,318.5,252
	z"/>
<g>
	<path id="SVGCleanerId_0_1_" style="fill:#4CDBC4;" d="M318.5,252c0-91.4-41-173.2-67.4-173.2c-29.1,0-67.4,81.8-67.4,173.2
		c0,0.1,0,0.3,0,0.4s0,0.3,0,0.4c0,91.4,38.3,173.2,67.4,173.2c26.4,0,67.4-81.8,67.4-173.2c0-0.1,0-0.3,0-0.4
		S318.5,252.1,318.5,252z"/>
</g>
<ellipse style="fill:#2C9984;" cx="251" cy="252.4" rx="45.2" ry="62.3"/>
<polygon style="fill:#E6E9EE;" points="348.6,182.1 397.1,133.7 369.8,106.3 321.3,154.8 329.6,163 161.7,330.9 153.4,322.7 
	105,371.1 132.3,398.5 180.7,350 172.5,341.7 340.4,173.8 "/>
<g>
</g>
<g>
</g>
<g>
</g>
<g>
</g>
<g>
</g>
<g>
</g>
<g>
</g>
<g>
</g>
<g>
</g>
<g>
</g>
<g>
</g>
<g>
</g>
<g>
</g>
<g>
</g>
<g>
</g>
</svg>
