<?xml version="1.0" encoding="iso-8859-1"?>
<!-- Generator: Adobe Illustrator 19.0.0, SVG Export Plug-In . SVG Version: 6.00 Build 0)  -->
<svg version="1.1" id="Layer_1" xmlns="http://www.w3.org/2000/svg" xmlns:xlink="http://www.w3.org/1999/xlink" x="0px" y="0px"
	 viewBox="0 0 504 504" style="enable-background:new 0 0 504 504;" xml:space="preserve">
<circle style="fill:#84DBFF;" cx="252" cy="252" r="252"/>
<rect x="189.8" y="168.4" style="fill:#FFFFFF;" width="124.5" height="148.7"/>
<path style="fill:#FFD05B;" d="M230.5,253c-7.3,5.3-10.8,18.4-10.8,24.9c0,18.2,13.5,39.2,31.7,39.2s33-21,33-39.2
	c0-6.5-2-19.1-7.7-26.1c0,0-9.7,19.6-9.9,14.2c-0.7-23.9-15.5-31.8-15.5-31.8c1.4,30.6-9.4,18-12.5,38.8
	C238.1,278.3,230.5,253,230.5,253z"/>
<g>
	<path style="fill:#FF7058;" d="M240.3,282.9c-4,2.8-5.9,9.8-5.9,13.3c0,9.7,7.4,21,17.3,21c9.9,0,18-11.2,18-21
		c0-3.5-1.1-10.2-4.2-14c0,0-5.3,10.5-5.4,7.6c-0.4-12.8-8.4-17-8.4-17c0.8,16.4-5.1,9.6-6.8,20.7
		C244.4,296.4,240.3,282.9,240.3,282.9z"/>
	<path style="fill:#FF7058;" d="M314.4,316.5H189.6c-19.8,17.1-32.5,42.3-32.9,70.4h190.6C346.8,358.8,334.2,333.6,314.4,316.5z"/>
</g>
<path style="fill:#324A5E;" d="M355.1,386.9H148.9c-5.4,0-9.7,4.3-9.7,9.7c0,5.4,4.3,9.7,9.7,9.7h206.2c5.4,0,9.7-4.3,9.7-9.7
	C364.8,391.2,360.5,386.9,355.1,386.9z"/>
<path style="fill:#FF7058;" d="M271,106.6c3.5-4.3,5.6-9.7,5.6-15.7c0-13.6-11-24.7-24.7-24.7c-13.6,0-24.7,11-24.7,24.7
	c0,6,2.1,11.4,5.6,15.7c-33.9,7.2-61,32.9-69.9,66.2h177.8C332,139.5,305,113.7,271,106.6z"/>
<circle style="fill:#324A5E;" cx="252" cy="90.9" r="12"/>
<g>
</g>
<g>
</g>
<g>
</g>
<g>
</g>
<g>
</g>
<g>
</g>
<g>
</g>
<g>
</g>
<g>
</g>
<g>
</g>
<g>
</g>
<g>
</g>
<g>
</g>
<g>
</g>
<g>
</g>
</svg>
