<?xml version="1.0" encoding="iso-8859-1"?>
<!-- Generator: Adobe Illustrator 19.0.0, SVG Export Plug-In . SVG Version: 6.00 Build 0)  -->
<svg version="1.1" id="Layer_1" xmlns="http://www.w3.org/2000/svg" xmlns:xlink="http://www.w3.org/1999/xlink" x="0px" y="0px"
	 viewBox="0 0 504 504" style="enable-background:new 0 0 504 504;" xml:space="preserve">
<circle style="fill:#FD8469;" cx="252" cy="252" r="252"/>
<path style="fill:#E6E9EE;" d="M321.1,195.4c-20.4-27-31.4-59.9-31.4-93.7l0,0l-0.1-21.4H211v21.4c0,34.1-11.5,66.9-31.8,94.3
	c-13.1,17.6-19.8,40.2-16.8,64.3c5,40.1,37.6,72.2,77.8,76.6c53.5,5.9,98.8-35.8,98.8-88.1C339,228.7,332.3,210.3,321.1,195.4z"/>
<path style="fill:#2B3B4E;" d="M338.2,373.3H162.5c-3.7,0-6.8,3-6.8,6.8v21.2c0,3.7,3,6.8,6.8,6.8h175.7c3.7,0,6.8-3,6.8-6.8v-21.2
	C345,376.3,342,373.3,338.2,373.3z"/>
<polygon style="fill:#324A5E;" points="319.9,373.3 180.8,373.3 212.3,328.5 288.4,328.5 "/>
<path style="fill:#F9B54C;" d="M274.7,309.5c9.6-6.8,15.9-18,15.9-30.7c0-20.8-37.6-69.1-37.6-69.1s-37.6,48.3-37.6,69.1
	c0,12.7,6.3,23.9,15.9,30.7c7.7-17.3,21.6-34.4,21.6-34.4S267,292.2,274.7,309.5z"/>
<g>
	<rect x="294.7" y="337.5" style="fill:#324A5E;" width="50.3" height="13.5"/>
	<path style="fill:#324A5E;" d="M341.3,360.5L341.3,360.5c-3.9,0-7-3.1-7-7v-18.6c0-3.9,3.1-7,7-7l0,0c3.9,0,7,3.1,7,7v18.6
		C348.3,357.4,345.2,360.5,341.3,360.5z"/>
</g>
<path style="fill:#FFFFFF;" d="M202.6,199.8c0,0-2.7,3.4-5.8,8.6c-0.8,1.3-1.5,2.8-2.4,4.2c-0.8,1.5-1.6,3.1-2.4,4.8
	c-0.4,0.8-0.8,1.7-1.2,2.5c-0.3,0.9-0.7,1.8-1,2.7c-0.8,1.7-1.3,3.6-2,5.4c-0.6,1.8-1,3.7-1.6,5.6c-0.3,1.9-0.9,3.7-1.3,5.5
	c-0.2,1.8-0.6,3.6-0.9,5.3c-0.3,1.7-0.4,3.3-0.6,4.8c-0.2,1.5-0.5,2.9-0.5,4.2c-0.1,1.3-0.2,2.4-0.3,3.3c-0.2,1.8-0.4,2.9-0.4,2.9
	s-0.5-1-1.1-2.7c-0.6-1.8-1.7-4.3-2.1-7.5c-0.3-1.6-0.7-3.3-0.7-5.2c-0.1-1.9-0.2-3.9-0.1-5.9c0.2-2,0.4-4.2,0.7-6.3
	c0.5-2.1,1-4.3,1.6-6.4c0.8-2.1,1.4-4.2,2.5-6.1c0.9-2,2-3.8,3.2-5.5c1-1.8,2.4-3.3,3.6-4.7c1.3-1.4,2.5-2.7,3.8-3.7
	c2.4-2.2,4.8-3.6,6.5-4.5C201.5,200.1,202.6,199.8,202.6,199.8z"/>
<g>
</g>
<g>
</g>
<g>
</g>
<g>
</g>
<g>
</g>
<g>
</g>
<g>
</g>
<g>
</g>
<g>
</g>
<g>
</g>
<g>
</g>
<g>
</g>
<g>
</g>
<g>
</g>
<g>
</g>
</svg>
