<?xml version="1.0" encoding="iso-8859-1"?>
<!-- Generator: Adobe Illustrator 19.0.0, SVG Export Plug-In . SVG Version: 6.00 Build 0)  -->
<svg version="1.1" id="Layer_1" xmlns="http://www.w3.org/2000/svg" xmlns:xlink="http://www.w3.org/1999/xlink" x="0px" y="0px"
	 viewBox="0 0 504 504" style="enable-background:new 0 0 504 504;" xml:space="preserve">
<circle style="fill:#90DFAA;" cx="252" cy="252" r="252"/>
<path style="fill:#FF7058;" d="M252,72c-99.4,0-180,80.6-180,180s80.6,180,180,180s180-80.6,180-180S351.4,72,252,72z M252,346
	c-51.9,0-94-42.1-94-94s42.1-94,94-94s94,42.1,94,94S303.9,346,252,346z"/>
<g>
	<path style="fill:#FFFFFF;" d="M399.2,355.5L336.6,293c-9.2,19-24.7,34.4-43.7,43.7l62.6,62.6C372.5,387.3,387.3,372.5,399.2,355.5
		z"/>
	<path style="fill:#FFFFFF;" d="M211,167.4l-62.6-62.6c-16.9,11.9-31.7,26.7-43.7,43.7l62.6,62.6C176.6,192,192,176.6,211,167.4z"/>
	<path style="fill:#FFFFFF;" d="M336.6,211l62.6-62.6c-11.9-16.9-26.7-31.7-43.7-43.7L293,167.4C312,176.6,327.4,192,336.6,211z"/>
	<path style="fill:#FFFFFF;" d="M167.4,293l-62.6,62.6c11.9,16.9,26.7,31.7,43.7,43.7l62.6-62.6C192,327.4,176.6,312,167.4,293z"/>
</g>
<g>
</g>
<g>
</g>
<g>
</g>
<g>
</g>
<g>
</g>
<g>
</g>
<g>
</g>
<g>
</g>
<g>
</g>
<g>
</g>
<g>
</g>
<g>
</g>
<g>
</g>
<g>
</g>
<g>
</g>
</svg>
