<?xml version="1.0" encoding="iso-8859-1"?>
<!-- Generator: Adobe Illustrator 19.0.0, SVG Export Plug-In . SVG Version: 6.00 Build 0)  -->
<svg version="1.1" id="Layer_1" xmlns="http://www.w3.org/2000/svg" xmlns:xlink="http://www.w3.org/1999/xlink" x="0px" y="0px"
	 viewBox="0 0 504 504" style="enable-background:new 0 0 504 504;" xml:space="preserve">
<circle style="fill:#324A5E;" cx="252" cy="252" r="252"/>
<polyline style="fill:#FFFFFF;" points="177.7,393.3 401.1,393.8 382.4,142.3 177.7,141.8 177.7,393.8 "/>
<path style="fill:#E6E9EE;" d="M371.4,333.1c-0.4-2.6-2-5-2.1-7.6c-0.1-1.5,0.4-2.9,0.7-4.4c1.5-6,2.4-12.2,2.4-18.4
	c0-1.7,0-3.4-0.8-4.9c-0.7-1.3-1.8-2.3-2.3-3.6c-1.1-2.6,0.6-5.5,0.5-8.4c-0.1-5.2-6.1-9.6-5-14.7c3.6-0.7,6-4.5,5.2-7.8
	c-0.2-1-0.7-1.9-1.1-2.9c-0.6-1.2-1.1-2.3-1.7-3.5c-1-2.1-2.2-4.3-4.5-5.4c-1.3-0.6-2.8-0.6-4,0.1c-2.5,1.4-1.8,4.5-0.5,6.6
	c1.2,1.9,3,3.6,3.2,5.8c-3.3,0.8-6.6-1.7-7.7-4.7s-0.4-6.2,0.2-9.3c-1.8,0.9-4.2-0.4-5.1-2.2c-0.8-1.8-0.5-3.8-0.2-5.7l-4.5-0.3
	c-0.2-3.5-4.5-6.3-8.1-5.3c-1.4,2.4-1.7,5.3-0.8,7.9c2.1-1.2,5.2-0.3,6.2,1.7c0.5,1.1,0.5,2.3,0.5,3.5c0.1,3.1,0.9,6.3,2.3,9.1
	l-4,0.9c-1.1,2.7-1.6,5.6-1.4,8.5h-2.7l-1.9,6.2c-0.8,0.1-0.9,0.2-1.7,0.3c-5.2-5.9,0.5-14.5-1.5-21.7c-0.8-2.9-2.8-5.7-2.2-8.6
	c0.3-1.2,1-2.4,1.1-3.6c0.4-3.5-3.6-6-7.3-7.1c-2.8-0.9-5.8-1.5-8.7-1.2c-2.9,0.4-5.8,1.9-7.1,4.3c-2.3,4.5,0.9,11.2-3.5,14.1
	c-9.8,2.8-19.9,4.5-30.2,5.1c-2.7,0.1-5.5,0.2-7.8,1.6s-3.7,3.9-3.9,6.5c-0.1,2,0.5,4.2,2.2,5.4c0.9,0.7,2,1.1,3.1,1.4
	c2.9,1,5.8,2,8.7,3c1.1,0.4,2.2,0.8,3.1,1.4c1,0.7,1.6,1.7,2.6,2.4c4,2.9,10.1-0.7,14.8,1c2.5,0.9,4.1,3.2,6,5s5,3.1,7.3,1.8
	c0.9-0.5,1.5-1.4,2.1-2.2c3.8-4.9,9.8-8.4,16.3-9.5c1,1.5-0.2,3.5-1.8,4.6c-1.6,1-3.6,1.5-5.1,2.6c-1,0.8-1.7,1.8-2.4,2.8
	c-1.5,2.1-3,4.5-2.1,7.1c0.5,1.6,2.1,2.8,3.9,2.5c2.3-0.3,3.2-2.6,4.1-4.5c0.9-1.8,3.1-3.6,5-2.6c-1.4,5.2-3.2,10.3-5.4,15.3
	c-3.5,3.3-7.1,6.6-11.7,8.5c-1.1,0.4-2.3,0.8-3.1,1.6c-0.8,0.8-1.2,2.1-0.4,3c1.9,0,3.9,0.1,5.8,0.1c0.3,3.4,3.8,6.2,7.5,6
	c-0.1,3.5-3,6.8-6.7,7.6c-0.1,0.1-0.2,0.2-0.3,0.3c-5.1,4.6,2.1,11.9,7.6,7.7l0.1-0.1c-0.2,2.6-0.3,5.3,1.3,7.5
	c0.7,0.9,1.7,1.6,2.8,1.9c2.8,0.6,4.4-1.4,6.4-2.7c2.2-1.5,5.2-2,7.9-1.5c0.3,3.1,0.3,6.3,0,9.4c3.1-2.2,8,0.5,11.4-1.3
	c1.3-0.7,2.2-2,3.3-2.9c1.1-0.9,3-1.5,4.1-0.5l1.9,11.8c-1.6,0.1-3.3,0.1-4.8,0.8c-1.5,0.7-2.6,2.2-2.2,3.7c3.4-1.9,8,3.5,11.6,0.3
	c0.9-0.8,1.4-1.9,1.5-3.1c0.4-4.3-0.6-8.6,0.2-12.8C369,342.3,372.2,337.8,371.4,333.1z"/>
<path style="fill:#FFD05B;" d="M369.3,171.9c0.1-3-0.9-5.9-1.9-8.8c-0.8-2.4-1.6-4.8-2.4-7.2c-0.4-1.2-0.9-2.5-1.9-3.4
	s-2.7-1.4-3.8-0.6c-1.2,4-1.5,8.2-1.1,12.3c-2.4,1.4-5.5,0.7-8.1-0.4c-2.5-1.1-5-2.6-7.8-2.8c-1.6-0.1-3.3,0.2-4.9,0.6
	c-2.9,0.7-5.7,1.6-8.4,2.7c-3.8,1.5-7.5,3.4-10.4,6.2c-0.9,0.9-1.7,1.9-2.8,2.6c-0.8,0.5-1.7,0.8-2.2,1.5c-0.5,0.8-0.4,1.8-0.5,2.7
	c-0.4,2.8-3.2,4.6-5.4,6.5c-2.2,1.9-4.2,5-2.6,7.3c-4,1.3-8.3-1.8-12.6-1.3c-5,0.5-7.9,5.6-12.4,7.7c-1.6,0.8-3.5,1.2-5.3,1.5
	c-11.5,2-24.1,2.1-33.6,8.4c0.6,1.7,3,2.4,4.9,2.3c2-0.1,3.9-0.9,5.9-0.9c4.4-0.1,8,2.9,11.2,5.6c1.4,1.2,2.8,2.4,4.2,3.7
	c2.3-0.6,4.5,1.3,6.2,2.9c3.7,3.5,8.3,6.2,13.4,7.9c0.8,0.3,1.7,0.5,2.6,0.4c1.9-0.2,3.1-1.8,4.1-3.3c4.9-7.2,9.4-14.5,13.5-22.1
	c3.4-0.5,5.4-4.7,3.4-7.3c-1.3-1.8-4-2.9-4-5.1c0-2.3,3-3.4,5.3-4.1c2.4-0.7,5.1-2.5,4.2-4.7c1.4,1.4,4.3,0.6,5-1.2
	s-0.7-3.9-2.6-4.7c2.5-1.3,5.6-1.8,8.4-1.2c1.8,3.9,2.5,8.1,2.1,12.3c-1.7,0-3.4,0-5,0c-0.1,3.6,7.4,2.3,9,5.5
	c0.5,1.1,0.2,2.3,0.8,3.4c1,1.8,4.2,1.8,5.2,3.6c0.4,0.7,0.4,1.5,0.6,2.2c0.6,1.8,2.5,2.9,4.1,4.2c2.7,2.1,4.6,5.1,7.8,6.5
	c3.1,1.5,8.1,0.1,8.1-3.1c0-2.9-3.9-4.6-4.5-7.4c-0.5-2.7,3.1-5.2,5.8-4c0.9,0.4,1.6,1.1,2.6,1.4c3.1,1,5.4-2.8,5.3-5.8
	c-0.2-3-1.3-6.2,0.3-8.8c0.7-1,1.8-1.9,2.1-3c0.5-1.9-1.3-3.6-1.9-5.5C368.8,175.7,369.3,173.8,369.3,171.9z"/>
<path style="fill:#4CDBC4;" d="M294,340.8c-1.5,0-2.9,0.4-4.2,1.1c0.5,2,0.5,1.9,1,3.8c0.2,0,0.3,0,0.5,0.1c1,0.2,1.9,1,1.9,1.9
	c0,1-1,1.7-2,2s-2.1,0.3-3.1,0.5c-2.6,0.7-5,3.1-7.5,2.2c-0.6-0.2-1.1-0.6-1.7-0.7c-0.9-0.2-1.8,0.3-2.6,0.7
	c-2.7,1.1-6.7,0.3-7.4-2.4c-0.1-0.5-0.1-1-0.5-1.4c-0.7-0.7-1.9-0.3-3-0.3c-2.9,0.1-4.5-3.5-3.4-6c1.2-2.5,4-3.8,6.6-5
	c0.7-0.3,1.4-0.6,1.8-1.2c0.5-0.7,0.4-1.7,0.2-2.5c-0.4-2-0.7-3.9-1.1-5.9c-0.4-2.2-0.7-4.7,1-6.3c0.8-0.8,2-1.1,3.1-1.5
	c1.4-0.4,3-0.9,4.5-0.6c1.4,0.3,2.5,1.2,3.4,2.3c1.5,1.8,2.5,4.1,4.6,5.4c0.7,0.5,1.6,0.9,1.8,1.6c0.2,0.6-0.1,1.2,0.1,1.8
	c0.2,0.7,1,1,1.5,1.5c0.7,0.7,0.8,1.8,1.2,2.8c0.3,0.8,1.2,1.7,2.1,1.6c0.2,0,0.4,0.1,0.5,0.3c0.4,1.1,0.8,2.3,1.3,3.4
	C294.5,340.5,294.3,340.8,294,340.8z"/>
<path style="fill:#E6E9EE;" d="M177.7,390.9L177.7,390.9c-26.4,0-47.7-8.5-47.7-34.8V129.3c0-26.4,21.4-37.4,47.7-37.4l0,0
	c26.4,0,47.7,11,47.7,37.4V356C225.4,382.4,204.1,390.9,177.7,390.9z"/>
<ellipse style="fill:#CED5E0;" cx="177.7" cy="356" rx="47.8" ry="37.8"/>
<ellipse style="fill:#ACB3BA;" cx="177.7" cy="356" rx="27.7" ry="18.8"/>
<g>
</g>
<g>
</g>
<g>
</g>
<g>
</g>
<g>
</g>
<g>
</g>
<g>
</g>
<g>
</g>
<g>
</g>
<g>
</g>
<g>
</g>
<g>
</g>
<g>
</g>
<g>
</g>
<g>
</g>
</svg>
