<?xml version="1.0" encoding="iso-8859-1"?>
<!-- Generator: Adobe Illustrator 19.0.0, SVG Export Plug-In . SVG Version: 6.00 Build 0)  -->
<svg version="1.1" id="Layer_1" xmlns="http://www.w3.org/2000/svg" xmlns:xlink="http://www.w3.org/1999/xlink" x="0px" y="0px"
	 viewBox="0 0 504 504" style="enable-background:new 0 0 504 504;" xml:space="preserve">
<circle style="fill:#90DFAA;" cx="252" cy="252" r="252"/>
<path style="fill:#324A5E;" d="M355.6,102.1H147.4c-8.3,0-15,6.7-15,15v259.4c0,8.3,6.7,15,15,15h208.2c8.3,0,15-6.7,15-15V117.1
	C370.7,108.8,363.9,102.1,355.6,102.1z"/>
<path style="fill:#F9B54C;" d="M251.5,133.1c-44.8,0-81.3,36.5-81.3,81.3s36.5,81.3,81.3,81.3s81.3-36.5,81.3-81.3
	C332.9,169.6,296.4,133.1,251.5,133.1z M321,208.6h-26c-0.9-24-7.1-44.9-16.5-58.5C301.9,159.9,318.8,182.2,321,208.6z M245.7,146
	v62.7h-26C221,175.2,233,151.6,245.7,146z M245.7,220.2v62.7c-12.8-5.6-24.8-29.2-26-62.7H245.7z M257.3,282.9v-62.7h26
	C282.1,253.6,270.1,277.2,257.3,282.9z M257.3,208.6V146c12.8,5.6,24.8,29.2,26,62.7h-26V208.6z M224.6,150.1
	c-9.4,13.7-15.7,34.5-16.5,58.5h-26C184.3,182.2,201.2,159.9,224.6,150.1z M182.1,220.2h26c0.9,24,7.1,44.9,16.5,58.5
	C201.2,268.9,184.3,246.6,182.1,220.2z M278.4,278.7c9.4-13.7,15.6-34.5,16.5-58.5h26C318.8,246.6,301.9,268.9,278.4,278.7z"/>
<g>
	<path style="fill:#FFFFFF;" d="M196.1,347v13.3h-8.7v-38.7H201c9.7,0,14.6,4.1,14.6,12.3c0,3.9-1.4,7-4.2,9.4s-6.5,3.6-11.2,3.6
		h-4.1V347z M196.1,328.3v12.1h3.4c4.6,0,7-2,7-6.1c0-4-2.3-6-7-6H196.1z"/>
	<path style="fill:#FFFFFF;" d="M255.3,360.3h-9.5l-2.8-8.6h-13.8l-2.7,8.6h-9.4l14.1-38.7h10.3L255.3,360.3z M241.1,345l-4.2-13
		c-0.3-1-0.5-2.1-0.6-3.5H236c-0.1,1.1-0.3,2.3-0.7,3.4l-4.2,13.1H241.1z"/>
	<path style="fill:#FFFFFF;" d="M258.4,358.8v-8.6c1.6,1.3,3.3,2.3,5.1,3c1.8,0.7,3.7,1,5.6,1c1.1,0,2.1-0.1,2.9-0.3
		c0.8-0.2,1.5-0.5,2.1-0.8c0.5-0.4,1-0.8,1.2-1.2c0.3-0.5,0.4-1,0.4-1.6c0-0.8-0.2-1.4-0.6-2s-1-1.1-1.8-1.6c-0.7-0.5-1.6-1-2.7-1.5
		c-1-0.5-2.1-0.9-3.3-1.4c-3-1.3-5.3-2.8-6.8-4.6c-1.5-1.8-2.2-4-2.2-6.6c0-2,0.4-3.7,1.2-5.2c0.8-1.4,1.9-2.6,3.3-3.6
		c1.4-0.9,3-1.6,4.8-2.1c1.8-0.4,3.8-0.7,5.8-0.7s3.8,0.1,5.4,0.4c1.6,0.2,3,0.6,4.3,1.1v8.1c-0.6-0.4-1.4-0.8-2.1-1.2
		c-0.8-0.3-1.6-0.6-2.4-0.8c-0.8-0.2-1.6-0.4-2.4-0.5s-1.6-0.2-2.3-0.2c-1,0-1.9,0.1-2.7,0.3c-0.8,0.2-1.5,0.5-2,0.8
		c-0.6,0.3-1,0.8-1.3,1.2c-0.3,0.5-0.5,1-0.5,1.6s0.2,1.2,0.5,1.7s0.8,1,1.5,1.5c0.6,0.5,1.4,0.9,2.3,1.3s1.9,0.9,3,1.4
		c1.5,0.6,2.9,1.3,4.2,2.1c1.2,0.7,2.3,1.6,3.2,2.5c0.9,0.9,1.6,2,2,3.1c0.5,1.2,0.7,2.5,0.7,4.1c0,2.2-0.4,4-1.2,5.4
		s-1.9,2.7-3.3,3.6s-3,1.6-4.9,2s-3.8,0.6-5.9,0.6s-4.1-0.2-6.1-0.5C261.4,360.1,259.8,359.6,258.4,358.8z"/>
	<path style="fill:#FFFFFF;" d="M289.3,358.8v-8.6c1.6,1.3,3.3,2.3,5.1,3c1.8,0.7,3.7,1,5.6,1c1.1,0,2.1-0.1,2.9-0.3
		c0.8-0.2,1.5-0.5,2-0.8c0.5-0.4,1-0.8,1.2-1.2c0.3-0.5,0.4-1,0.4-1.6c0-0.8-0.2-1.4-0.6-2s-1-1.1-1.8-1.6c-0.7-0.5-1.6-1-2.7-1.5
		c-1-0.5-2.1-0.9-3.3-1.4c-3-1.3-5.3-2.8-6.8-4.6c-1.5-1.8-2.2-4-2.2-6.6c0-2,0.4-3.7,1.2-5.2c0.8-1.4,1.9-2.6,3.3-3.6
		c1.4-0.9,3-1.6,4.8-2.1c1.8-0.4,3.8-0.7,5.8-0.7s3.8,0.1,5.4,0.4c1.6,0.2,3,0.6,4.3,1.1v8.1c-0.6-0.4-1.4-0.8-2.1-1.2
		c-0.8-0.3-1.6-0.6-2.4-0.8c-0.8-0.2-1.6-0.4-2.4-0.5s-1.6-0.2-2.3-0.2c-1,0-1.9,0.1-2.7,0.3c-0.8,0.2-1.5,0.5-2,0.8
		c-0.6,0.3-1,0.8-1.3,1.2c-0.3,0.5-0.5,1-0.5,1.6s0.2,1.2,0.5,1.7s0.8,1,1.5,1.5c0.6,0.5,1.4,0.9,2.3,1.3s1.9,0.9,3,1.4
		c1.5,0.6,2.9,1.3,4.2,2.1c1.2,0.7,2.3,1.6,3.2,2.5c0.9,0.9,1.6,2,2,3.1c0.5,1.2,0.7,2.5,0.7,4.1c0,2.2-0.4,4-1.2,5.4
		c-0.8,1.5-1.9,2.7-3.3,3.6s-3,1.6-4.9,2s-3.8,0.6-5.9,0.6s-4.1-0.2-6.1-0.5C292.4,360.1,290.7,359.6,289.3,358.8z"/>
</g>
<g>
</g>
<g>
</g>
<g>
</g>
<g>
</g>
<g>
</g>
<g>
</g>
<g>
</g>
<g>
</g>
<g>
</g>
<g>
</g>
<g>
</g>
<g>
</g>
<g>
</g>
<g>
</g>
<g>
</g>
</svg>
