<?xml version="1.0" encoding="iso-8859-1"?>
<!-- Generator: Adobe Illustrator 19.0.0, SVG Export Plug-In . SVG Version: 6.00 Build 0)  -->
<svg version="1.1" id="Layer_1" xmlns="http://www.w3.org/2000/svg" xmlns:xlink="http://www.w3.org/1999/xlink" x="0px" y="0px"
	 viewBox="0 0 504 504" style="enable-background:new 0 0 504 504;" xml:space="preserve">
<circle style="fill:#84DBFF;" cx="252" cy="252" r="252"/>
<path style="fill:#324A5E;" d="M389.9,162.1h-79.8l-14.2-58.6c-1.1-4.6-5.3-7.9-10-7.9H212c-4.8,0-8.9,3.3-10,7.9l-14.2,58.6h-37.3
	v-9.4h-25.1v9.4h-17.5c-6.1,0-11,4.9-11,11v182c0,6.1,4.9,11,11,11h281.9c6.1,0,11-4.9,11-11v-182
	C400.9,167,395.9,162.1,389.9,162.1z"/>
<g>
	<rect x="217.2" y="114.3" style="fill:#E6E9EE;" width="63.3" height="33.8"/>
	<circle style="fill:#E6E9EE;" cx="248.9" cy="264.1" r="69.5"/>
</g>
<circle style="fill:#ACB3BA;" cx="248.9" cy="264.1" r="54.2"/>
<ellipse transform="matrix(0.7071 -0.7071 0.7071 0.7071 -104.8484 230.3855)" style="fill:#FFFFFF;" cx="225.676" cy="241.756" rx="16.5" ry="8.3"/>
<path style="fill:#FFD05B;" d="M134.5,189H97v150.2h37.6c7,0,12.6-5.7,12.6-12.6v-125C147.2,194.6,141.5,189,134.5,189z"/>
<circle style="fill:#FF7058;" cx="362.5" cy="191.3" r="9.3"/>
<g>
</g>
<g>
</g>
<g>
</g>
<g>
</g>
<g>
</g>
<g>
</g>
<g>
</g>
<g>
</g>
<g>
</g>
<g>
</g>
<g>
</g>
<g>
</g>
<g>
</g>
<g>
</g>
<g>
</g>
</svg>
