<?xml version="1.0" encoding="iso-8859-1"?>
<!-- Generator: Adobe Illustrator 19.0.0, SVG Export Plug-In . SVG Version: 6.00 Build 0)  -->
<svg version="1.1" id="Layer_1" xmlns="http://www.w3.org/2000/svg" xmlns:xlink="http://www.w3.org/1999/xlink" x="0px" y="0px"
	 viewBox="0 0 504 504" style="enable-background:new 0 0 504 504;" xml:space="preserve">
<circle style="fill:#324A5E;" cx="252" cy="252" r="252"/>
<path style="fill:#FFFFFF;" d="M423.9,304.1l-64.4-124.8c-1.5-2.9-5.1-4.1-8-2.6l-19.4,10c-8.1-15.6-27.2-21.7-42.9-13.7
	c-15.6,8.1-21.7,27.2-13.7,42.9l-19.4,10c-2.9,1.5-4.1,5.1-2.6,8l64.4,124.8c1.5,2.9,5.1,4.1,8,2.6l95.3-49.2
	C424.2,310.6,425.4,307.1,423.9,304.1z M311.1,215.6c-7.9,4.1-17.6,1-21.6-6.9c-4.1-7.9-1-17.6,6.9-21.6c7.9-4.1,17.6-1,21.6,6.9
	C322.1,201.9,319,211.6,311.1,215.6z"/>
<rect x="299.982" y="223.908" transform="matrix(-0.8888 0.4583 -0.4583 -0.8888 772.6924 364.0302)" style="fill:#FF7058;" width="84.4" height="103.7"/>
<path style="fill:#324A5E;" d="M349,248.2l5.3,51.5l-11.1,5.7l-3.2-47.9L317.8,269l-4.4-8.6l33.2-17.1L349,248.2z"/>
<path style="fill:#FFD05B;" d="M252.9,173.2c0-41.4-33.5-74.9-74.9-74.9s-74.9,33.5-74.9,74.9c0,34.3,23.1,63.2,54.7,72.1l0.5,160.5
	h40v-12.2h30.4v-19.1H213v-21.7h15.7v-19.1h-30.4v-88.3C229.8,236.3,252.9,207.5,252.9,173.2z M178,166.7
	c-12.4,0-22.5-10.1-22.5-22.5s10.1-22.5,22.5-22.5s22.5,10.1,22.5,22.5C200.5,156.6,190.4,166.7,178,166.7z"/>
<path style="fill:#54C0EB;" d="M302.1,208.3c-1.2,0-2.4-0.3-3.5-0.8l-124.2-61.7c-3.9-1.9-5.5-6.7-3.5-10.6
	c1.9-3.9,6.7-5.5,10.6-3.5l124.2,61.7c3.9,1.9,5.5,6.7,3.5,10.6C307.8,206.7,305,208.3,302.1,208.3z"/>
<g>
</g>
<g>
</g>
<g>
</g>
<g>
</g>
<g>
</g>
<g>
</g>
<g>
</g>
<g>
</g>
<g>
</g>
<g>
</g>
<g>
</g>
<g>
</g>
<g>
</g>
<g>
</g>
<g>
</g>
</svg>
