<?xml version="1.0" encoding="iso-8859-1"?>
<!-- Generator: Adobe Illustrator 19.0.0, SVG Export Plug-In . SVG Version: 6.00 Build 0)  -->
<svg version="1.1" id="Layer_1" xmlns="http://www.w3.org/2000/svg" xmlns:xlink="http://www.w3.org/1999/xlink" x="0px" y="0px"
	 viewBox="0 0 504 504" style="enable-background:new 0 0 504 504;" xml:space="preserve">
<circle style="fill:#FD8469;" cx="252" cy="252" r="252"/>
<path style="fill:#54C0EB;" d="M329.1,218.1H86.3c-4.4,0-8.1,3.6-8.1,8.1V312c0,4.4,3.6,8.1,8.1,8.1H171c2.1,0,4.2-0.8,5.7-2.4
	l25.3-25.3c3.1-3.1,8.2-3.1,11.4,0l25.3,25.3c1.5,1.5,3.6,2.4,5.7,2.4h84.7c4.4,0,8.1-3.6,8.1-8.1v-85.8
	C337.2,221.7,333.6,218.1,329.1,218.1z"/>
<path style="fill:#E6E9EE;" d="M98,237.8v62.5h68.3l35.3-35.3c3.4-3.4,9-3.4,12.4,0l35.3,35.3h68.3v-62.5L98,237.8L98,237.8z"/>
<path style="fill:#324A5E;" d="M325.7,401.9h-59.1c-37.5,0-67.9-30.5-67.9-67.9h23.6c0,24.4,19.9,44.3,44.3,44.3h59.1
	c24.4,0,44.3-19.9,44.3-44.3V192.2h23.6v141.7C393.6,371.4,363.1,401.9,325.7,401.9z"/>
<g>
	<circle style="fill:#E6E9EE;" cx="383" cy="129.5" r="10.1"/>
	<circle style="fill:#E6E9EE;" cx="383" cy="163.4" r="12.6"/>
</g>
<g>
</g>
<g>
</g>
<g>
</g>
<g>
</g>
<g>
</g>
<g>
</g>
<g>
</g>
<g>
</g>
<g>
</g>
<g>
</g>
<g>
</g>
<g>
</g>
<g>
</g>
<g>
</g>
<g>
</g>
</svg>
