<?xml version="1.0" encoding="iso-8859-1"?>
<!-- Generator: Adobe Illustrator 19.0.0, SVG Export Plug-In . SVG Version: 6.00 Build 0)  -->
<svg version="1.1" id="Layer_1" xmlns="http://www.w3.org/2000/svg" xmlns:xlink="http://www.w3.org/1999/xlink" x="0px" y="0px"
	 viewBox="0 0 504 504" style="enable-background:new 0 0 504 504;" xml:space="preserve">
<circle style="fill:#FD8469;" cx="252" cy="252" r="252"/>
<path style="fill:#FFFFFF;" d="M365.7,182.3h-10.5c0-32.3-26.2-58.6-58.6-58.6c-8.4,0-16.4,1.8-23.6,5
	c-11.8-27.2-38.8-46.2-70.3-46.2c-42.3,0-76.6,34.3-76.6,76.6c0,9.8,1.9,19.2,5.3,27.8c-16.3,7.8-27.7,24.4-27.7,43.6
	c0,26.7,21.6,48.3,48.3,48.3h213.6c26.7,0,48.3-21.6,48.3-48.3C414.1,204,392.4,182.3,365.7,182.3z"/>
<polygon style="fill:#FFD05B;" points="326.5,294.3 258.9,294.1 290.8,218.1 226.4,217.9 173.2,337.8 244.5,339.4 217.6,437.2 "/>
<g>
</g>
<g>
</g>
<g>
</g>
<g>
</g>
<g>
</g>
<g>
</g>
<g>
</g>
<g>
</g>
<g>
</g>
<g>
</g>
<g>
</g>
<g>
</g>
<g>
</g>
<g>
</g>
<g>
</g>
</svg>
