<?xml version="1.0" encoding="iso-8859-1"?>
<!-- Generator: Adobe Illustrator 19.0.0, SVG Export Plug-In . SVG Version: 6.00 Build 0)  -->
<svg version="1.1" id="Layer_1" xmlns="http://www.w3.org/2000/svg" xmlns:xlink="http://www.w3.org/1999/xlink" x="0px" y="0px"
	 viewBox="0 0 504 504" style="enable-background:new 0 0 504 504;" xml:space="preserve">
<circle style="fill:#324A5E;" cx="252" cy="252" r="252"/>
<path style="fill:#CED5E0;" d="M344,188H160c-6.7,0-12.1,5.4-12.1,12.1v185.6c0,6.7,5.4,12.1,12.1,12.1h184
	c6.7,0,12.1-5.4,12.1-12.1V200.1C356.1,193.4,350.7,188,344,188z"/>
<g>
	<rect x="202.4" y="87.5" style="fill:#E6E9EE;" width="15.9" height="99.9"/>
	<rect x="285.7" y="87.5" style="fill:#E6E9EE;" width="15.9" height="99.9"/>
	<rect x="193.6" y="76.9" style="fill:#E6E9EE;" width="116.9" height="20.4"/>
	<rect x="308.3" y="397.7" style="fill:#E6E9EE;" width="24.2" height="20.3"/>
	<rect x="171.5" y="397.7" style="fill:#E6E9EE;" width="24.2" height="20.3"/>
</g>
<path style="fill:#4CDBC4;" d="M280,74.2h-56c-0.8,0-1.5,0.7-1.5,1.5v22.9c0,0.8,0.7,1.5,1.5,1.5h56c0.8,0,1.5-0.7,1.5-1.5V75.7
	C281.5,74.9,280.9,74.2,280,74.2z"/>
<path style="fill:#FF7058;" d="M323.4,333.3H180.6c-2.2,0-3.9-1.7-3.9-3.9V187.8h150.5v141.6C327.3,331.5,325.5,333.3,323.4,333.3z"
	/>
<rect x="238.7" y="301.3" style="fill:#324A5E;" width="26.6" height="17.1"/>
<g>
</g>
<g>
</g>
<g>
</g>
<g>
</g>
<g>
</g>
<g>
</g>
<g>
</g>
<g>
</g>
<g>
</g>
<g>
</g>
<g>
</g>
<g>
</g>
<g>
</g>
<g>
</g>
<g>
</g>
</svg>
