<?xml version="1.0" encoding="iso-8859-1"?>
<!-- Generator: Adobe Illustrator 19.0.0, SVG Export Plug-In . SVG Version: 6.00 Build 0)  -->
<svg version="1.1" id="Layer_1" xmlns="http://www.w3.org/2000/svg" xmlns:xlink="http://www.w3.org/1999/xlink" x="0px" y="0px"
	 viewBox="0 0 504 504" style="enable-background:new 0 0 504 504;" xml:space="preserve">
<circle style="fill:#90DFAA;" cx="252" cy="252" r="252"/>
<path style="fill:#FFFFFF;" d="M341.6,198.9l-48.3-56.2h0.1v-31.6h-82.8v31.6h0.1l-48.3,56.2c-5.3,6.1-8.1,13.9-8.1,22v178.4
	c0,13.2,10.7,23.8,23.8,23.8h147.8c13.2,0,23.8-10.7,23.8-23.8V220.8C349.7,212.8,346.9,205,341.6,198.9z"/>
<path style="fill:#324A5E;" d="M298.1,73h-92.2c-3.1,0-5.7,2.5-5.7,5.7v26.7c0,3.1,2.5,5.7,5.7,5.7h92.2c3.1,0,5.7-2.5,5.7-5.7V78.7
	C303.7,75.6,301.2,73,298.1,73z"/>
<rect x="180.5" y="229.6" style="fill:#FF7058;" width="142.6" height="161.9"/>
<g>
	<circle style="fill:#FFD05B;" cx="251.8" cy="310.6" r="34.9"/>
	<polygon style="fill:#FFD05B;" points="251.8,252.3 242.8,269.6 260.7,269.6 	"/>
	<polygon style="fill:#FFD05B;" points="251.8,368.9 242.8,351.6 260.7,351.6 	"/>
	<polygon style="fill:#FFD05B;" points="310.1,310.6 292.8,301.6 292.8,319.5 	"/>
	<polygon style="fill:#FFD05B;" points="193.5,310.6 210.8,301.6 210.8,319.5 	"/>
	<polygon style="fill:#FFD05B;" points="293,269.4 274.4,275.3 287.1,287.9 	"/>
	<polygon style="fill:#FFD05B;" points="210.6,351.8 216.5,333.2 229.1,345.9 	"/>
	<polygon style="fill:#FFD05B;" points="293,351.8 287.1,333.2 274.4,345.9 	"/>
	<polygon style="fill:#FFD05B;" points="210.6,269.4 229.1,275.3 216.5,287.9 	"/>
</g>
<g>
</g>
<g>
</g>
<g>
</g>
<g>
</g>
<g>
</g>
<g>
</g>
<g>
</g>
<g>
</g>
<g>
</g>
<g>
</g>
<g>
</g>
<g>
</g>
<g>
</g>
<g>
</g>
<g>
</g>
</svg>
