<?xml version="1.0" encoding="iso-8859-1"?>
<!-- Generator: Adobe Illustrator 19.0.0, SVG Export Plug-In . SVG Version: 6.00 Build 0)  -->
<svg version="1.1" id="Layer_1" xmlns="http://www.w3.org/2000/svg" xmlns:xlink="http://www.w3.org/1999/xlink" x="0px" y="0px"
	 viewBox="0 0 504 504" style="enable-background:new 0 0 504 504;" xml:space="preserve">
<circle style="fill:#84DBFF;" cx="252" cy="252" r="252"/>
<path style="fill:#2B3B4E;" d="M252,57.3c-5.7,0-10.4,4.7-10.4,10.4v341.4c0,5.7,4.7,10.4,10.4,10.4c5.7,0,10.4-4.7,10.4-10.4V67.7
	C262.4,62,257.7,57.3,252,57.3z"/>
<path style="fill:#324A5E;" d="M399.9,209.3c-3-72.1-68.1-129.7-147.9-129.7s-144.9,57.6-147.9,129.7L399.9,209.3L399.9,209.3z"/>
<path style="fill:#FFFFFF;" d="M342.8,209.3C341,137.2,301,79.6,252,79.6s-89,57.6-90.8,129.7L342.8,209.3L342.8,209.3z"/>
<path style="fill:#FF7058;" d="M285.7,209.3C285,137.2,270.2,79.6,252,79.6s-33,57.6-33.7,129.7L285.7,209.3L285.7,209.3z"/>
<g>
	<path style="fill:#2B3B4E;" d="M132.6,245.4L132.6,245.4c-15.8,0-28.6-12.8-28.6-28.6v-7.5h57.1v7.5
		C161.2,232.6,148.4,245.4,132.6,245.4z"/>
	<path style="fill:#2B3B4E;" d="M371.4,245.4L371.4,245.4c-15.8,0-28.6-12.8-28.6-28.6v-7.5h57.1v7.5
		C399.9,232.6,387.2,245.4,371.4,245.4z"/>
</g>
<g>
	<path style="fill:#E6E9EE;" d="M189.7,245.4L189.7,245.4c-15.8,0-28.6-12.8-28.6-28.6v-7.5h57.1v7.5
		C218.3,232.6,205.5,245.4,189.7,245.4z"/>
	<path style="fill:#E6E9EE;" d="M335.5,245.4h-42.6c-4,0-7.3-3.2-7.3-7.3v-28.8h57.1v28.8C342.8,242.2,339.5,245.4,335.5,245.4z"/>
</g>
<path style="fill:#F1543F;" d="M252,245.4L252,245.4c-18.6,0-33.7-15.1-33.7-33.7v-2.4h67.4v2.4C285.7,230.3,270.6,245.4,252,245.4z
	"/>
<path style="fill:#FFD05B;" d="M337.9,423.1c-18.8-27.3-50.3-45.3-85.9-45.3s-67.2,17.9-85.9,45.3H337.9z"/>
<g>
</g>
<g>
</g>
<g>
</g>
<g>
</g>
<g>
</g>
<g>
</g>
<g>
</g>
<g>
</g>
<g>
</g>
<g>
</g>
<g>
</g>
<g>
</g>
<g>
</g>
<g>
</g>
<g>
</g>
</svg>
