<?xml version="1.0" encoding="iso-8859-1"?>
<!-- Generator: Adobe Illustrator 19.0.0, SVG Export Plug-In . SVG Version: 6.00 Build 0)  -->
<svg version="1.1" id="Layer_1" xmlns="http://www.w3.org/2000/svg" xmlns:xlink="http://www.w3.org/1999/xlink" x="0px" y="0px"
	 viewBox="0 0 504 504" style="enable-background:new 0 0 504 504;" xml:space="preserve">
<circle style="fill:#90DFAA;" cx="252" cy="252" r="252"/>
<path style="fill:#FF7058;" d="M380.6,148.7H123.4c-22.5,79.5-22.5,159,0.2,238.5h98.7L252,271l29.7,116.3h98.7
	C403.1,307.8,403.1,228.3,380.6,148.7z"/>
<rect x="123.4" y="116.7" style="fill:#FFD05B;" width="257.2" height="32"/>
<g>
	<path style="fill:#F1543F;" d="M324.1,148.7c-1,4.5,17.3,65.9,71.2,76c-2.6-25.3-7.5-50.7-14.6-76H324.1z"/>
	<path style="fill:#F1543F;" d="M180.1,148.7c1,4.5-17.3,65.9-71.2,76c2.6-25.3,7.5-50.7,14.6-76H180.1z"/>
</g>
<g>
</g>
<g>
</g>
<g>
</g>
<g>
</g>
<g>
</g>
<g>
</g>
<g>
</g>
<g>
</g>
<g>
</g>
<g>
</g>
<g>
</g>
<g>
</g>
<g>
</g>
<g>
</g>
<g>
</g>
</svg>
