<?xml version="1.0" encoding="iso-8859-1"?>
<!-- Generator: Adobe Illustrator 19.0.0, SVG Export Plug-In . SVG Version: 6.00 Build 0)  -->
<svg version="1.1" id="Layer_1" xmlns="http://www.w3.org/2000/svg" xmlns:xlink="http://www.w3.org/1999/xlink" x="0px" y="0px"
	 viewBox="0 0 504 504" style="enable-background:new 0 0 504 504;" xml:space="preserve">
<circle style="fill:#FFD05B;" cx="252" cy="252" r="252"/>
<path style="fill:#334A5E;" d="M431.4,227.5h-8.6c-8.6-28.7-34.7-49.8-65.9-51v-0.2H150.1c-32.5,0-60,21.6-68.9,51.2h-8.6
	c-5.8,0-10.5,4.7-10.5,10.5v16.2c0,5.8,4.7,10.5,10.5,10.5H80c7.3,33.6,35.9,63.1,70.1,63.1c37.9,0,83.9-36.4,87.9-74.2
	c2.2-2.1,6.6-5.5,12.2-6c4.9-0.4,10.2,1.5,15.7,5.5c3.7,38,49.9,74.7,88,74.7c34.2,0,62.8-29.5,70.1-63.1h7.4
	c5.8,0,10.5-4.7,10.5-10.5V238C441.9,232.2,437.2,227.5,431.4,227.5z M269.6,228.7c-7-3.2-14.1-4.6-21.3-4c-5.3,0.5-10,2-14,3.9
	c-5-12.2-14.3-23-25.8-31.6h86.9C283.9,205.6,274.6,216.5,269.6,228.7z"/>
<g>
	<path style="fill:#84DBFF;" d="M353.9,304.8c-29.3,0-65.3-31.2-65.3-56.6c0-25.2,36.8-49,65.3-49c27,0,49,22,49,49
		C402.9,277.3,379.1,304.8,353.9,304.8z"/>
	<path style="fill:#84DBFF;" d="M150.1,304.8c29.3,0,65.3-31.2,65.3-56.6c0-25.2-36.8-49-65.3-49c-27,0-49,22-49,49
		C101.1,277.3,124.9,304.8,150.1,304.8z"/>
</g>
<g>
</g>
<g>
</g>
<g>
</g>
<g>
</g>
<g>
</g>
<g>
</g>
<g>
</g>
<g>
</g>
<g>
</g>
<g>
</g>
<g>
</g>
<g>
</g>
<g>
</g>
<g>
</g>
<g>
</g>
</svg>
