<?xml version="1.0" encoding="iso-8859-1"?>
<!-- Generator: Adobe Illustrator 19.0.0, SVG Export Plug-In . SVG Version: 6.00 Build 0)  -->
<svg version="1.1" id="Layer_1" xmlns="http://www.w3.org/2000/svg" xmlns:xlink="http://www.w3.org/1999/xlink" x="0px" y="0px"
	 viewBox="0 0 504 504" style="enable-background:new 0 0 504 504;" xml:space="preserve">
<circle style="fill:#90DFAA;" cx="252" cy="252" r="252"/>
<g>
	<path style="fill:#324A5E;" d="M411.7,203.7h-25.6c-2.1,0-3.7,1.7-3.7,3.7v18l-20.8,18.3l5.5,6.2l20.8-18.3h23.9
		c2.1,0,3.7-1.7,3.7-3.7v-20.5C415.5,205.3,413.8,203.7,411.7,203.7z"/>
	<path style="fill:#324A5E;" d="M92.3,203.7h25.6c2.1,0,3.7,1.7,3.7,3.7v18l20.8,18.3L137,250l-20.8-18.3H92.3
		c-2.1,0-3.7-1.7-3.7-3.7v-20.5C88.5,205.3,90.2,203.7,92.3,203.7z"/>
</g>
<path style="fill:#FFD05B;" d="M391.9,277.8l-19.4-36.3h-25.4H152.7h-25.4L108,277.8c-5.8,8.9-8.8,19.3-8.8,30v26
	c0,7,1.5,12.6,8.5,12.6h280.5c7,0,12.6-5.6,12.6-12.6v-26C400.7,297.2,397.6,286.8,391.9,277.8z"/>
<g>
	<path style="fill:#324A5E;" d="M323.6,346.4v32.4c0,3.8,3.1,6.9,6.9,6.9h33.3c3.8,0,6.9-3.1,6.9-6.9v-32.4H323.6z"/>
	<path style="fill:#324A5E;" d="M129.2,378.8c0,3.8,3.1,6.9,6.9,6.9h33.3c3.8,0,6.9-3.1,6.9-6.9v-32.4h-47.1L129.2,378.8
		L129.2,378.8z"/>
</g>
<g>
	<circle style="fill:#FF7058;" cx="347.1" cy="306.7" r="17.5"/>
	<circle style="fill:#FF7058;" cx="152.7" cy="306.7" r="17.5"/>
</g>
<path style="fill:#324A5E;" d="M352.3,159.1c-2.6-10.7-12.3-18.3-23.3-18.3H168c-11.4,0-21.2,8-23.5,19.2l-16.7,81.5h244.8
	L352.3,159.1z"/>
<polygon style="fill:#FFFFFF;" points="154.6,223.1 165.5,159.3 331.4,159.3 344.5,223.1 "/>
<rect x="230.6" y="171.7" style="fill:#CED5E0;" width="37.9" height="14"/>
<path style="fill:#FF7058;" d="M291.8,140.8h-83.2l6.3-30.5c0.9-4.5,4.9-7.8,9.5-7.8H276c4.6,0,8.6,3.2,9.5,7.8L291.8,140.8z"/>
<g>
	<path style="fill:#FFD05B;" d="M236.3,116.4h-4.7v13.5h-3.7v-13.5h-4.7v-3h13.2v3H236.3z"/>
	<path style="fill:#FFD05B;" d="M250,129.9h-4.1l-1.2-3.7h-5.9l-1.2,3.7h-4l6-16.5h4.4L250,129.9z M243.9,123.4l-1.8-5.6
		c-0.1-0.4-0.2-0.9-0.3-1.5h-0.1c0,0.5-0.1,1-0.3,1.4l-1.8,5.6h4.3V123.4z"/>
	<path style="fill:#FFD05B;" d="M266.9,129.9h-4.4l-2.8-5.4c-0.1-0.2-0.2-0.6-0.3-1.1l0,0c-0.1,0.3-0.2,0.6-0.4,1.2l-2.9,5.3h-4.4
		l5.3-8.3l-4.8-8.3h4.5l2.4,5c0.2,0.4,0.4,0.9,0.5,1.4l0,0c0.1-0.3,0.3-0.8,0.5-1.4l2.6-4.9h4.2l-5,8.2L266.9,129.9z"/>
	<path style="fill:#FFD05B;" d="M275.4,113.4v2.9H274v10.8h1.4v2.9h-6.5v-2.9h1.4v-10.8h-1.4v-2.9H275.4z"/>
</g>
<g>
</g>
<g>
</g>
<g>
</g>
<g>
</g>
<g>
</g>
<g>
</g>
<g>
</g>
<g>
</g>
<g>
</g>
<g>
</g>
<g>
</g>
<g>
</g>
<g>
</g>
<g>
</g>
<g>
</g>
</svg>
