<?xml version="1.0" encoding="iso-8859-1"?>
<!-- Generator: Adobe Illustrator 19.0.0, SVG Export Plug-In . SVG Version: 6.00 Build 0)  -->
<svg version="1.1" id="Layer_1" xmlns="http://www.w3.org/2000/svg" xmlns:xlink="http://www.w3.org/1999/xlink" x="0px" y="0px"
	 viewBox="0 0 504 504" style="enable-background:new 0 0 504 504;" xml:space="preserve">
<circle style="fill:#FFD05B;" cx="252" cy="252" r="252"/>
<polygon style="fill:#FF7058;" points="191,410.5 246.9,311.9 246.9,410.5 262.6,410.5 262.6,311.9 318.5,410.5 336.6,410.5 
	262.6,280 262.6,277.2 246.9,277.2 246.9,280 172.8,410.5 "/>
<g>
	<path style="fill:#324A5E;" d="M279,280.8h-48.6c-1,0-1.8-0.8-1.8-1.8v-50.2h52.1V279C280.8,280,280,280.8,279,280.8z"/>
	
		<rect x="347.186" y="207.013" transform="matrix(-0.9789 -0.2043 0.2043 -0.9789 714.0588 521.2444)" style="fill:#324A5E;" width="73.499" height="33.5"/>
</g>
<rect x="406.781" y="207.719" transform="matrix(-0.9789 -0.2043 0.2043 -0.9789 780.8491 542.5527)" style="fill:#2B3B4E;" width="23.3" height="46.5"/>
<rect x="247.204" y="176.913" transform="matrix(-0.9789 -0.2043 0.2043 -0.9789 564.6316 473.4174)" style="fill:#54C0EB;" width="119.099" height="61.3"/>
<rect x="135.093" y="148.1" transform="matrix(-0.9789 -0.2043 0.2043 -0.9789 392.1693 418.5873)" style="fill:#84DBFF;" width="165.199" height="81.899"/>
<rect x="102.699" y="120.416" transform="matrix(-0.9789 -0.2043 0.2043 -0.9789 210.2757 360.5399)" style="fill:#324A5E;" width="42.1" height="97.999"/>
<g>
</g>
<g>
</g>
<g>
</g>
<g>
</g>
<g>
</g>
<g>
</g>
<g>
</g>
<g>
</g>
<g>
</g>
<g>
</g>
<g>
</g>
<g>
</g>
<g>
</g>
<g>
</g>
<g>
</g>
</svg>
