<?xml version="1.0" encoding="iso-8859-1"?>
<!-- Generator: Adobe Illustrator 19.0.0, SVG Export Plug-In . SVG Version: 6.00 Build 0)  -->
<svg version="1.1" id="Layer_1" xmlns="http://www.w3.org/2000/svg" xmlns:xlink="http://www.w3.org/1999/xlink" x="0px" y="0px"
	 viewBox="0 0 504 504" style="enable-background:new 0 0 504 504;" xml:space="preserve">
<circle style="fill:#FFD05B;" cx="252" cy="252" r="252"/>
<path style="fill:#FFFFFF;" d="M426.4,209.4c-7.7,7.7-20.3,7.7-28,0s-7.7-20.3,0-28l-6.6-6.6c-7.7,7.7-20.3,7.7-28,0s-7.7-20.3,0-28
	l-6.6-6.6c-7.7,7.7-20.3,7.7-28,0s-7.7-20.3,0-28l-6.6-6.6c-7.7,7.7-20.3,7.7-28,0s-7.7-20.3,0-28l-7.1-7.1l-217,217l7.1,7.1
	c7.7-7.7,20.3-7.7,28,0s7.7,20.3,0,28l6.6,6.6c7.7-7.7,20.3-7.7,28,0s7.7,20.3,0,28l6.6,6.6c7.7-7.7,20.3-7.7,28,0s7.7,20.3,0,28
	l6.6,6.6c7.7-7.7,20.3-7.7,28,0s7.7,20.3,0,28l7.1,7.1l217-217L426.4,209.4z"/>
<rect x="198.699" y="151.086" transform="matrix(-0.7071 -0.7071 0.7071 -0.7071 321.4161 579.6053)" style="fill:#84DBFF;" width="164.098" height="144.299"/>
<path style="fill:#324A5E;" d="M304,268.7l9.3-9.3l-3-9.7c1.5-0.9,3.1-2.2,4.7-3.8c0.5-0.5,0.5-1.2,0.1-1.6l-3.2-3.2
	c-0.4-0.4-1.2-0.4-1.6,0.1c-0.7,0.8-1.4,1.5-2,2.3l-3.2-10.3c1.4-0.9,3-2.2,4.5-3.6c0.5-0.5,0.5-1.2,0.1-1.6l-3.2-3.2
	c-0.4-0.4-1.2-0.4-1.6,0.1c-0.6,0.7-1.2,1.3-1.8,2l-2.5-8.2c12-14.3,18.3-26.6,14.8-30.1s-15.8,2.9-30.1,14.8l-8.2-2.5
	c0.7-0.5,1.3-1.1,2-1.8c0.5-0.5,0.5-1.2,0.1-1.6l-3.2-3.2c-0.4-0.4-1.2-0.4-1.6,0.1c-1.5,1.6-2.7,3.1-3.6,4.5l-10.3-3.2
	c0.7-0.6,1.5-1.3,2.3-2c0.5-0.5,0.5-1.2,0.1-1.6l-3.2-3.2c-0.4-0.4-1.2-0.4-1.6,0.1c-1.6,1.6-2.8,3.3-3.8,4.7l-9.7-3l-9.3,9.3
	l32.2,20.3c-5.7,6.1-10.5,12-14.3,17.4l-13.2-0.6l-5.2,4.3l12.5,5.9c-2.5,5.1-3.2,9-1.4,10.7c1.7,1.7,5.5,1.1,10.7-1.4l5.9,12.5
	l4.3-5.2l-0.6-13.2c5.3-3.7,11.3-8.6,17.4-14.3L304,268.7z"/>
<g>
	
		<rect x="134.693" y="221.245" transform="matrix(-0.7071 -0.7071 0.7071 -0.7071 57.4576 534.0899)" style="fill:#ACB3BA;" width="9.3" height="67.799"/>
	
		<rect x="171.233" y="257.683" transform="matrix(-0.7071 -0.7071 0.7071 -0.7071 94.0713 622.131)" style="fill:#ACB3BA;" width="9.3" height="67.799"/>
	
		<rect x="186.683" y="273.201" transform="matrix(-0.7071 -0.7071 0.7071 -0.7071 109.4731 659.5468)" style="fill:#ACB3BA;" width="9.3" height="67.799"/>
	
		<rect x="244.193" y="330.7" transform="matrix(-0.7071 -0.7071 0.7071 -0.7071 166.9912 798.3686)" style="fill:#ACB3BA;" width="9.3" height="67.799"/>
	
		<rect x="227.543" y="315.178" transform="matrix(-0.7071 -0.7071 0.7071 -0.7071 151.5922 760.9459)" style="fill:#ACB3BA;" width="11.7" height="67.799"/>
	
		<rect x="149.493" y="239.503" transform="matrix(-0.7071 -0.7071 0.7071 -0.7071 75.7892 578.1974)" style="fill:#ACB3BA;" width="16.3" height="67.799"/>
	
		<rect x="198.513" y="294.191" transform="matrix(-0.7071 -0.7071 0.7071 -0.7071 130.5312 710.2498)" style="fill:#ACB3BA;" width="27.7" height="67.799"/>
</g>
<g>
</g>
<g>
</g>
<g>
</g>
<g>
</g>
<g>
</g>
<g>
</g>
<g>
</g>
<g>
</g>
<g>
</g>
<g>
</g>
<g>
</g>
<g>
</g>
<g>
</g>
<g>
</g>
<g>
</g>
</svg>
