<?xml version="1.0" encoding="iso-8859-1"?>
<!-- Generator: Adobe Illustrator 19.0.0, SVG Export Plug-In . SVG Version: 6.00 Build 0)  -->
<svg version="1.1" id="Layer_1" xmlns="http://www.w3.org/2000/svg" xmlns:xlink="http://www.w3.org/1999/xlink" x="0px" y="0px"
	 viewBox="0 0 504 504" style="enable-background:new 0 0 504 504;" xml:space="preserve">
<circle style="fill:#90DFAA;" cx="252" cy="252" r="252"/>
<rect x="83.2" y="196.2" style="fill:#FFFFFF;" width="293.2" height="155.9"/>
<rect x="102.9" y="215.9" style="fill:#CED5E0;" width="253.9" height="116.5"/>
<rect x="127.5" y="151.9" style="fill:#FF7058;" width="293.2" height="155.9"/>
<rect x="147.2" y="171.6" style="fill:#FFD05B;" width="253.9" height="116.5"/>
<path style="fill:#324A5E;" d="M255.8,200.7l-7.7,18.1l-53.5-3.5c-4.8-0.2-9.4,1-13.4,3.6l0,0c-2.1,1.1-8.9,7.3-8.9,7.3l-1.4,1.2
	c-1.8,1.5-2.8,3.7-2.8,6c0,4.4,3.7,8,8.1,7.9l32.7-2.3l27.1,20l12-0.3l-17.8-21.6l34.5-6.8v-10.5v-19.2h-8.9V200.7z"/>
<g>
	<rect x="301.2" y="192.2" style="fill:#2C9984;" width="80.6" height="13.4"/>
	<rect x="301.2" y="223.1" style="fill:#2C9984;" width="80.6" height="13.4"/>
	<rect x="336.6" y="254" style="fill:#2C9984;" width="45.1" height="13.4"/>
</g>
<g>
</g>
<g>
</g>
<g>
</g>
<g>
</g>
<g>
</g>
<g>
</g>
<g>
</g>
<g>
</g>
<g>
</g>
<g>
</g>
<g>
</g>
<g>
</g>
<g>
</g>
<g>
</g>
<g>
</g>
</svg>
