<?xml version="1.0" encoding="iso-8859-1"?>
<!-- Generator: Adobe Illustrator 19.0.0, SVG Export Plug-In . SVG Version: 6.00 Build 0)  -->
<svg version="1.1" id="Layer_1" xmlns="http://www.w3.org/2000/svg" xmlns:xlink="http://www.w3.org/1999/xlink" x="0px" y="0px"
	 viewBox="0 0 504 504" style="enable-background:new 0 0 504 504;" xml:space="preserve">
<circle style="fill:#FD8469;" cx="252" cy="252" r="252"/>
<path style="fill:#FFFFFF;" d="M428.8,200.8c-7.7,7.7-20.3,7.7-28,0s-7.7-20.3,0-28l-6.6-6.6c-7.7,7.7-20.3,7.7-28,0s-7.7-20.3,0-28
	l-6.6-6.6c-7.7,7.7-20.3,7.7-28,0s-7.7-20.3,0-28L325,97c-7.7,7.7-20.3,7.7-28,0s-7.7-20.3,0-28l-7.1-7.1l-217,217L80,286
	c7.7-7.7,20.3-7.7,28,0s7.7,20.3,0,28l6.6,6.6c7.7-7.7,20.3-7.7,28,0s7.7,20.3,0,28l6.6,6.6c7.7-7.7,20.3-7.7,28,0s7.7,20.3,0,28
	l6.6,6.6c7.7-7.7,20.3-7.7,28,0s7.7,20.3,0,28l7.1,7.1l217-217L428.8,200.8z"/>
<rect x="201.676" y="143.161" transform="matrix(-0.7071 -0.7071 0.7071 -0.7071 332.1025 568.1821)" style="fill:#84DBFF;" width="164.098" height="144.299"/>
<g>
	
		<rect x="137.811" y="213.323" transform="matrix(-0.7071 -0.7071 0.7071 -0.7071 68.384 522.7702)" style="fill:#ACB3BA;" width="9.3" height="67.799"/>
	
		<rect x="174.221" y="249.756" transform="matrix(-0.7071 -0.7071 0.7071 -0.7071 104.7762 610.7115)" style="fill:#ACB3BA;" width="9.3" height="67.799"/>
	
		<rect x="189.661" y="265.276" transform="matrix(-0.7071 -0.7071 0.7071 -0.7071 120.1596 648.1237)" style="fill:#ACB3BA;" width="9.3" height="67.799"/>
	
		<rect x="247.181" y="322.773" transform="matrix(-0.7071 -0.7071 0.7071 -0.7071 177.6962 786.9491)" style="fill:#ACB3BA;" width="9.3" height="67.799"/>
	
		<rect x="230.591" y="307.329" transform="matrix(-0.7071 -0.7071 0.7071 -0.7071 162.3452 749.7037)" style="fill:#ACB3BA;" width="11.7" height="67.799"/>
	
		<rect x="152.481" y="231.577" transform="matrix(-0.7071 -0.7071 0.7071 -0.7071 86.4933 566.7796)" style="fill:#ACB3BA;" width="16.3" height="67.799"/>
	
		<rect x="201.501" y="286.264" transform="matrix(-0.7071 -0.7071 0.7071 -0.7071 141.2362 698.8303)" style="fill:#ACB3BA;" width="27.7" height="67.799"/>
</g>
<path style="fill:#FF7058;" d="M335.7,223.6l-60.2-60.2c-2-2-5.1-2-7.1,0l-30.7,30.7c-2,2-2,5.1,0,7.1l60.2,60.2c2,2,5.1,2,7.1,0
	l30.7-30.7C337.6,228.7,337.6,225.5,335.7,223.6z"/>
<g>
	<circle style="fill:#324A5E;" cx="285.6" cy="249.1" r="8.2"/>
	<circle style="fill:#324A5E;" cx="250" cy="213.5" r="8.2"/>
</g>
<path style="fill:#4CDBC4;" d="M326.4,226.4l-51.3-51.3c-2.6-2.6-6.9-2.6-9.5,0l-11.8,11.8l16.4,6.5l44.6,44.6
	c0.7,0.7,1.7,0.7,2.4,0l9.3-9.3C327,228.1,327,227,326.4,226.4z"/>
<g>
	
		<rect x="275.245" y="179.589" transform="matrix(-0.7071 -0.7071 0.7071 -0.7071 339.5597 519.1282)" style="fill:#FF7058;" width="4.1" height="19.3"/>
	
		<rect x="290.695" y="195.109" transform="matrix(-0.7071 -0.7071 0.7071 -0.7071 354.9601 556.5474)" style="fill:#FF7058;" width="4.1" height="19.3"/>
	
		<rect x="305.645" y="209.991" transform="matrix(-0.7071 -0.7071 0.7071 -0.7071 369.9585 592.5231)" style="fill:#FF7058;" width="4.1" height="19.3"/>
</g>
<g>
</g>
<g>
</g>
<g>
</g>
<g>
</g>
<g>
</g>
<g>
</g>
<g>
</g>
<g>
</g>
<g>
</g>
<g>
</g>
<g>
</g>
<g>
</g>
<g>
</g>
<g>
</g>
<g>
</g>
</svg>
