<?xml version="1.0" encoding="iso-8859-1"?>
<!-- Generator: Adobe Illustrator 19.0.0, SVG Export Plug-In . SVG Version: 6.00 Build 0)  -->
<svg version="1.1" id="Layer_1" xmlns="http://www.w3.org/2000/svg" xmlns:xlink="http://www.w3.org/1999/xlink" x="0px" y="0px"
	 viewBox="0 0 504 504" style="enable-background:new 0 0 504 504;" xml:space="preserve">
<circle style="fill:#324A5E;" cx="252" cy="252" r="252"/>
<g>
	<path style="fill:#E6E9EE;" d="M103.1,326.7c-5.1,0-9.3-4.2-9.3-9.3v-80c0-5.1,4.2-9.3,9.3-9.3c5.1,0,9.3,4.2,9.3,9.3v80
		C112.4,322.5,108.2,326.7,103.1,326.7z"/>
	<path style="fill:#E6E9EE;" d="M137,326.7c-5.1,0-9.3-4.2-9.3-9.3v-76.2c0-5.1,4.2-9.3,9.3-9.3s9.3,4.2,9.3,9.3v76.2
		C146.2,322.5,142.1,326.7,137,326.7z"/>
	<path style="fill:#E6E9EE;" d="M170.8,326.7c-5.1,0-9.3-4.2-9.3-9.3v-72.5c0-5.1,4.2-9.3,9.3-9.3s9.3,4.2,9.3,9.3v72.5
		C180.1,322.5,175.9,326.7,170.8,326.7z"/>
	<path style="fill:#E6E9EE;" d="M204.7,326.7c-5.1,0-9.3-4.2-9.3-9.3v-76.2c0-5.1,4.2-9.3,9.3-9.3s9.3,4.2,9.3,9.3v76.2
		C214,322.5,209.8,326.7,204.7,326.7z"/>
	<path style="fill:#E6E9EE;" d="M238.5,326.7c-5.1,0-9.3-4.2-9.3-9.3v-80c0-5.1,4.2-9.3,9.3-9.3s9.3,4.2,9.3,9.3v80
		C247.8,322.5,243.7,326.7,238.5,326.7z"/>
</g>
<path style="fill:#8AD7F8;" d="M268.2,334.1H92.8c-9.2,0-16.7-7.5-16.7-16.7s7.5-16.7,16.7-16.7h168.7l43.7-42.5
	c3.1-3,7.3-4.7,11.7-4.7h102.3c9.2,0,16.7,7.5,16.7,16.7s-7.5,16.7-16.7,16.7h-95.5L280,329.4C276.8,332.4,272.6,334.1,268.2,334.1z
	"/>
<path style="fill:#FF7058;" d="M185.4,208.7H93.8l0,0c0-34.5,28-62.5,62.5-62.5h91.6l0,0C247.8,180.7,219.9,208.7,185.4,208.7z"/>
<g>
</g>
<g>
</g>
<g>
</g>
<g>
</g>
<g>
</g>
<g>
</g>
<g>
</g>
<g>
</g>
<g>
</g>
<g>
</g>
<g>
</g>
<g>
</g>
<g>
</g>
<g>
</g>
<g>
</g>
</svg>
