<?xml version="1.0" encoding="iso-8859-1"?>
<!-- Generator: Adobe Illustrator 19.0.0, SVG Export Plug-In . SVG Version: 6.00 Build 0)  -->
<svg version="1.1" id="Layer_1" xmlns="http://www.w3.org/2000/svg" xmlns:xlink="http://www.w3.org/1999/xlink" x="0px" y="0px"
	 viewBox="0 0 504 504" style="enable-background:new 0 0 504 504;" xml:space="preserve">
<circle style="fill:#FFD05B;" cx="252" cy="252" r="252"/>
<path style="fill:#324A5E;" d="M320.1,379.9H183.9c-1.5,0-2.8-1.2-2.8-2.8V97c0-1.5,1.2-2.8,2.8-2.8h136.2c1.5,0,2.8,1.2,2.8,2.8
	v280.1C322.9,378.6,321.6,379.9,320.1,379.9z"/>
<circle style="fill:#FF7058;" cx="252" cy="149.9" r="32.4"/>
<circle style="fill:#F9B54C;" cx="252" cy="237.1" r="32.4"/>
<circle style="fill:#4CDBC4;" cx="252" cy="324.2" r="32.4"/>
<g>
	<polygon style="fill:#2B3B4E;" points="322.9,113.3 322.9,178.1 363.4,113.3 	"/>
	<polygon style="fill:#2B3B4E;" points="322.9,269.5 363.4,204.7 322.9,204.7 	"/>
	<polygon style="fill:#2B3B4E;" points="322.9,360.9 363.4,296 322.9,296 	"/>
	<polygon style="fill:#2B3B4E;" points="140.6,113.3 181.1,178.1 181.1,113.3 	"/>
	<polygon style="fill:#2B3B4E;" points="181.1,269.5 181.1,204.7 140.6,204.7 	"/>
	<polygon style="fill:#2B3B4E;" points="181.1,360.9 181.1,296 140.6,296 	"/>
	<rect x="229.5" y="379.9" style="fill:#2B3B4E;" width="45.1" height="58.6"/>
</g>
<g>
</g>
<g>
</g>
<g>
</g>
<g>
</g>
<g>
</g>
<g>
</g>
<g>
</g>
<g>
</g>
<g>
</g>
<g>
</g>
<g>
</g>
<g>
</g>
<g>
</g>
<g>
</g>
<g>
</g>
</svg>
