<?xml version="1.0" encoding="iso-8859-1"?>
<!-- Generator: Adobe Illustrator 19.0.0, SVG Export Plug-In . SVG Version: 6.00 Build 0)  -->
<svg version="1.1" id="Layer_1" xmlns="http://www.w3.org/2000/svg" xmlns:xlink="http://www.w3.org/1999/xlink" x="0px" y="0px"
	 viewBox="0 0 504 504" style="enable-background:new 0 0 504 504;" xml:space="preserve">
<circle style="fill:#FFD05B;" cx="252" cy="252" r="252"/>
<polygon style="fill:#324A5E;" points="164.9,408.9 173.9,393.4 330.1,393.4 339,408.9 364.4,408.9 320,331.7 300.9,342.6 
	317.4,371.4 186.6,371.4 203.1,342.6 184,331.7 139.5,408.9 "/>
<path style="fill:#FF7058;" d="M366.6,347.4l-48-70.5l-133.1,0.8l-48.2,69.7c-1,1.5,0,3.4,1.8,3.4h225.7
	C366.6,350.9,367.6,348.9,366.6,347.4z"/>
<path style="fill:#324A5E;" d="M276.6,125.2v-23.5h17.8V71.5h-84.8v30.1h17.8v23.5c-40.2,10.8-69.8,47.5-69.8,91.2
	c0,52.2,42.3,94.4,94.4,94.4s94.4-42.3,94.4-94.4C346.4,172.7,316.8,136,276.6,125.2z"/>
<circle style="fill:#84DBFF;" cx="252" cy="216.4" r="54.3"/>
<g>
	<circle style="fill:#E6E9EE;" cx="317.2" cy="324.9" r="11"/>
	<circle style="fill:#E6E9EE;" cx="186.8" cy="324.9" r="11"/>
</g>
<g>
</g>
<g>
</g>
<g>
</g>
<g>
</g>
<g>
</g>
<g>
</g>
<g>
</g>
<g>
</g>
<g>
</g>
<g>
</g>
<g>
</g>
<g>
</g>
<g>
</g>
<g>
</g>
<g>
</g>
</svg>
