<?xml version="1.0" encoding="iso-8859-1"?>
<!-- Generator: Adobe Illustrator 19.0.0, SVG Export Plug-In . SVG Version: 6.00 Build 0)  -->
<svg version="1.1" id="Layer_1" xmlns="http://www.w3.org/2000/svg" xmlns:xlink="http://www.w3.org/1999/xlink" x="0px" y="0px"
	 viewBox="0 0 504 504" style="enable-background:new 0 0 504 504;" xml:space="preserve">
<circle style="fill:#FD8469;" cx="252" cy="252" r="252"/>
<polygon style="fill:#324A5E;" points="335.3,432 356.5,421.7 316.3,338.1 295,348.3 311.5,382.6 190.4,382.6 206.9,348.3 
	185.6,338.1 145.4,421.7 166.7,432 179.1,406.2 322.9,406.2 "/>
<path style="fill:#FFFFFF;" d="M349.9,98.1H152.1c-9.7,0-17.5,7.8-17.5,17.5v222.6c0,9.7,7.8,17.5,17.5,17.5h197.8
	c9.7,0,17.5-7.8,17.5-17.5V115.6C367.4,105.9,359.5,98.1,349.9,98.1z"/>
<rect x="163.5" y="128.7" style="fill:#84DBFF;" width="174" height="94"/>
<circle style="fill:#324A5E;" cx="251" cy="88.3" r="34.3"/>
<path style="fill:#FFD05B;" d="M251,105.3c-9.4,0-17-7.6-17-17s7.6-17,17-17s17,7.6,17,17S260.3,105.3,251,105.3z"/>
<g>
	<circle style="fill:#FF7058;" cx="323.2" cy="309.8" r="18.9"/>
	<circle style="fill:#FF7058;" cx="178.8" cy="309.8" r="18.9"/>
</g>
<g>
</g>
<g>
</g>
<g>
</g>
<g>
</g>
<g>
</g>
<g>
</g>
<g>
</g>
<g>
</g>
<g>
</g>
<g>
</g>
<g>
</g>
<g>
</g>
<g>
</g>
<g>
</g>
<g>
</g>
</svg>
