<?xml version="1.0" encoding="iso-8859-1"?>
<!-- Generator: Adobe Illustrator 19.0.0, SVG Export Plug-In . SVG Version: 6.00 Build 0)  -->
<svg version="1.1" id="Layer_1" xmlns="http://www.w3.org/2000/svg" xmlns:xlink="http://www.w3.org/1999/xlink" x="0px" y="0px"
	 viewBox="0 0 504 504" style="enable-background:new 0 0 504 504;" xml:space="preserve">
<circle style="fill:#84DBFF;" cx="252" cy="252" r="252"/>
<g>
	<path style="fill:#F1543F;" d="M202.4,251.7c0-7.3-6-13.3-13.3-13.3s-13.3,6-13.3,13.3c0,0.1,0,0.2,0,0.3h26.5
		C202.4,251.9,202.4,251.8,202.4,251.7z"/>
	<path style="fill:#F1543F;" d="M242.3,251.7c0-7.3-6-13.3-13.3-13.3s-13.3,6-13.3,13.3c0,0.1,0,0.2,0,0.3h26.5
		C242.2,251.9,242.3,251.8,242.3,251.7z"/>
</g>
<rect x="139.9" y="198.7" style="fill:#324A5E;" width="18.6" height="49.7"/>
<path style="fill:#FF7058;" d="M245.3,165.8v21.4h15.3v61.2h-18.3h-26.5h-13.3H176h-17.4H140h-26c-32,47.2,0,94.4,0,94.4h274.8
	v-94.4v-82.7H245.3V165.8z M282,248.4v-61.2h1.6h83.7v61.2H282z"/>
<g>
	<circle style="fill:#324A5E;" cx="164.8" cy="382.3" r="23.8"/>
	<circle style="fill:#324A5E;" cx="242.3" cy="382.3" r="23.8"/>
	<circle style="fill:#324A5E;" cx="330.3" cy="382.3" r="23.8"/>
	<path style="fill:#324A5E;" d="M265.8,109.3c0-13-10.5-23.5-23.5-23.5c-3.5,0-6.9,0.8-9.9,2.2c-3.5-3.5-8.3-5.8-13.6-5.8
		c-9.8,0-17.8,7.5-18.9,17.1c-0.4,0-0.8-0.1-1.3-0.1c-13,0-23.5,10.5-23.5,23.5c0,0.3,0,0.6,0,0.9c-9.4,1.5-16.6,9.6-16.6,19.4
		c0,3.4,0.9,6.6,2.4,9.4c-2.9,2.5-4.7,6.2-4.7,10.3c0,1.4,0.3,2.7,0.7,4c-3.6,1.6-6.1,5.1-6.1,9.3c0,5.6,4.5,10.2,10.2,10.2
		c5.5,0,10-4.4,10.1-9.9c3.9-0.3,7.2-2.3,9.5-5.2c3.5,3,8,4.9,13,4.9c10.9,0,19.7-8.8,19.7-19.7c0-1.4-0.1-2.7-0.4-4
		c2.9,1.3,6.1,2,9.4,2c12.3,0,22.4-9.5,23.5-21.6C257,131,265.8,121.2,265.8,109.3z"/>
</g>
<g>
</g>
<g>
</g>
<g>
</g>
<g>
</g>
<g>
</g>
<g>
</g>
<g>
</g>
<g>
</g>
<g>
</g>
<g>
</g>
<g>
</g>
<g>
</g>
<g>
</g>
<g>
</g>
<g>
</g>
</svg>
