<?xml version="1.0" encoding="iso-8859-1"?>
<!-- Generator: Adobe Illustrator 19.0.0, SVG Export Plug-In . SVG Version: 6.00 Build 0)  -->
<svg version="1.1" id="Layer_1" xmlns="http://www.w3.org/2000/svg" xmlns:xlink="http://www.w3.org/1999/xlink" x="0px" y="0px"
	 viewBox="0 0 504 504" style="enable-background:new 0 0 504 504;" xml:space="preserve">
<circle style="fill:#84DBFF;" cx="252" cy="252" r="252"/>
<polygon style="fill:#FF7058;" points="249.7,232.9 249.7,135.8 154,135.8 77.6,230.9 77.6,313.2 426.4,313.2 426.4,232.9 "/>
<polygon style="fill:#FFFFFF;" points="224.3,229.4 224.3,161.3 166.2,161.3 111.5,229.4 "/>
<circle style="fill:#324A5E;" cx="165.1" cy="316.2" r="36.3"/>
<path style="fill:#E6E9EE;" d="M165.1,335.5c-10.7,0-19.3-8.7-19.3-19.3s8.7-19.3,19.3-19.3c10.7,0,19.3,8.7,19.3,19.3
	S175.8,335.5,165.1,335.5z"/>
<circle style="fill:#324A5E;" cx="351.1" cy="316.2" r="36.3"/>
<path style="fill:#E6E9EE;" d="M351.1,335.5c-10.7,0-19.3-8.7-19.3-19.3s8.7-19.3,19.3-19.3c10.7,0,19.3,8.7,19.3,19.3
	S361.7,335.5,351.1,335.5z"/>
<g>
	<rect x="77.6" y="271.4" style="fill:#FFD05B;" width="14.2" height="21.8"/>
	<rect x="412.3" y="271.4" style="fill:#FFD05B;" width="14.2" height="21.8"/>
</g>
<g>
</g>
<g>
</g>
<g>
</g>
<g>
</g>
<g>
</g>
<g>
</g>
<g>
</g>
<g>
</g>
<g>
</g>
<g>
</g>
<g>
</g>
<g>
</g>
<g>
</g>
<g>
</g>
<g>
</g>
</svg>
