<?xml version="1.0" encoding="iso-8859-1"?>
<!-- Generator: Adobe Illustrator 19.0.0, SVG Export Plug-In . SVG Version: 6.00 Build 0)  -->
<svg version="1.1" id="Layer_1" xmlns="http://www.w3.org/2000/svg" xmlns:xlink="http://www.w3.org/1999/xlink" x="0px" y="0px"
	 viewBox="0 0 504 504" style="enable-background:new 0 0 504 504;" xml:space="preserve">
<circle style="fill:#324A5E;" cx="252" cy="252" r="252"/>
<path style="fill:#4CDBC4;" d="M158.1,167.3l13.3,107.3h68.2l-4.4-107.3l-0.9-22.6c-0.9-21-18.2-37.6-39.2-37.6
	c-23.6,0-41.8,20.6-38.9,44L158.1,167.3z"/>
<path style="fill:#FF7058;" d="M239.6,274.6h68.2l4.4-107.3L313,148c0.9-22.3-16.9-40.8-39.2-40.8h-0.3c-22.3,0-40.1,18.6-39.2,40.8
	l0.8,19.3L239.6,274.6z"/>
<path style="fill:#FFFFFF;" d="M376,274.6l13.3-107.3l2-16.1c2.9-23.4-15.4-44-38.9-44l0,0c-21,0-38.3,16.6-39.2,37.6l-0.9,22.6
	l-4.4,107.3H376V274.6z"/>
<path style="fill:#FFD05B;" d="M383.3,274.6H80.9v20.2H158v31.5c0,3.4,2.7,6.1,6.1,6.1h219.2c3.4,0,6.1-2.7,6.1-6.1v-45.7
	C389.4,277.3,386.7,274.6,383.3,274.6z"/>
<circle style="fill:#F9B54C;" cx="273.7" cy="350.7" r="46.2"/>
<circle style="fill:#324A5E;" cx="273.7" cy="350.7" r="23.3"/>
<g>
</g>
<g>
</g>
<g>
</g>
<g>
</g>
<g>
</g>
<g>
</g>
<g>
</g>
<g>
</g>
<g>
</g>
<g>
</g>
<g>
</g>
<g>
</g>
<g>
</g>
<g>
</g>
<g>
</g>
</svg>
