<?xml version="1.0" encoding="iso-8859-1"?>
<!-- Generator: Adobe Illustrator 19.0.0, SVG Export Plug-In . SVG Version: 6.00 Build 0)  -->
<svg version="1.1" id="Layer_1" xmlns="http://www.w3.org/2000/svg" xmlns:xlink="http://www.w3.org/1999/xlink" x="0px" y="0px"
	 viewBox="0 0 504 504" style="enable-background:new 0 0 504 504;" xml:space="preserve">
<circle style="fill:#84DBFF;" cx="252" cy="252" r="252"/>
<path style="fill:#FFD05B;" d="M385.3,134.8H118.7c-5.7,0-10.4,4.6-10.4,10.4v213.6c0,5.7,4.6,10.4,10.4,10.4h266.6
	c5.7,0,10.4-4.6,10.4-10.4V145.2C395.7,139.5,391,134.8,385.3,134.8z"/>
<g>
	<path style="fill:#324A5E;" d="M146.3,346h-12.7c-1.2,0-2.1-0.9-2.1-2.1v-12.7c0-1.2,0.9-2.1,2.1-2.1c1.2,0,2.1,0.9,2.1,2.1v10.6
		h10.6c1.2,0,2.1,0.9,2.1,2.1S147.5,346,146.3,346z"/>
	<path style="fill:#324A5E;" d="M133.7,310.7c-1.2,0-2.1-0.9-2.1-2.1V286c0-1.2,0.9-2.1,2.1-2.1c1.2,0,2.1,0.9,2.1,2.1v22.6
		C135.8,309.7,134.8,310.7,133.7,310.7z M133.7,265.4c-1.2,0-2.1-0.9-2.1-2.1v-22.6c0-1.2,0.9-2.1,2.1-2.1c1.2,0,2.1,0.9,2.1,2.1
		v22.6C135.8,264.5,134.8,265.4,133.7,265.4z M133.7,220.2c-1.2,0-2.1-0.9-2.1-2.1v-22.6c0-1.2,0.9-2.1,2.1-2.1
		c1.2,0,2.1,0.9,2.1,2.1v22.6C135.8,219.2,134.8,220.2,133.7,220.2z"/>
	<path style="fill:#324A5E;" d="M133.7,174.9c-1.2,0-2.1-0.9-2.1-2.1v-12.7c0-1.2,0.9-2.1,2.1-2.1h12.7c1.2,0,2.1,0.9,2.1,2.1
		s-0.9,2.1-2.1,2.1h-10.6v10.6C135.8,174,134.8,174.9,133.7,174.9z"/>
	<path style="fill:#324A5E;" d="M334.2,162.3h-23.5c-1.2,0-2.1-0.9-2.1-2.1s0.9-2.1,2.1-2.1h23.5c1.2,0,2.1,0.9,2.1,2.1
		S335.4,162.3,334.2,162.3z M287.2,162.3h-23.5c-1.2,0-2.1-0.9-2.1-2.1s0.9-2.1,2.1-2.1h23.5c1.2,0,2.1,0.9,2.1,2.1
		S288.4,162.3,287.2,162.3z M240.3,162.3h-23.5c-1.2,0-2.1-0.9-2.1-2.1s0.9-2.1,2.1-2.1h23.5c1.2,0,2.1,0.9,2.1,2.1
		S241.4,162.3,240.3,162.3z M193.3,162.3h-23.5c-1.2,0-2.1-0.9-2.1-2.1s0.9-2.1,2.1-2.1h23.5c1.2,0,2.1,0.9,2.1,2.1
		S194.5,162.3,193.3,162.3z"/>
	<path style="fill:#324A5E;" d="M370.3,174.9c-1.2,0-2.1-0.9-2.1-2.1v-10.6h-10.6c-1.2,0-2.1-0.9-2.1-2.1s0.9-2.1,2.1-2.1h12.7
		c1.2,0,2.1,0.9,2.1,2.1v12.7C372.5,174,371.5,174.9,370.3,174.9z"/>
	<path style="fill:#324A5E;" d="M370.3,310.7c-1.2,0-2.1-0.9-2.1-2.1V286c0-1.2,0.9-2.1,2.1-2.1s2.1,0.9,2.1,2.1v22.6
		C372.5,309.7,371.5,310.7,370.3,310.7z M370.3,265.4c-1.2,0-2.1-0.9-2.1-2.1v-22.6c0-1.2,0.9-2.1,2.1-2.1s2.1,0.9,2.1,2.1v22.6
		C372.5,264.5,371.5,265.4,370.3,265.4z M370.3,220.2c-1.2,0-2.1-0.9-2.1-2.1v-22.6c0-1.2,0.9-2.1,2.1-2.1s2.1,0.9,2.1,2.1v22.6
		C372.5,219.2,371.5,220.2,370.3,220.2z"/>
	<path style="fill:#324A5E;" d="M370.3,346h-12.7c-1.2,0-2.1-0.9-2.1-2.1s0.9-2.1,2.1-2.1h10.6v-10.6c0-1.2,0.9-2.1,2.1-2.1
		s2.1,0.9,2.1,2.1v12.7C372.5,345,371.5,346,370.3,346z"/>
	<path style="fill:#324A5E;" d="M334.2,346h-23.5c-1.2,0-2.1-0.9-2.1-2.1s0.9-2.1,2.1-2.1h23.5c1.2,0,2.1,0.9,2.1,2.1
		S335.4,346,334.2,346z M287.2,346h-23.5c-1.2,0-2.1-0.9-2.1-2.1s0.9-2.1,2.1-2.1h23.5c1.2,0,2.1,0.9,2.1,2.1S288.4,346,287.2,346z
		 M240.3,346h-23.5c-1.2,0-2.1-0.9-2.1-2.1s0.9-2.1,2.1-2.1h23.5c1.2,0,2.1,0.9,2.1,2.1S241.4,346,240.3,346z M193.3,346h-23.5
		c-1.2,0-2.1-0.9-2.1-2.1s0.9-2.1,2.1-2.1h23.5c1.2,0,2.1,0.9,2.1,2.1S194.5,346,193.3,346z"/>
</g>
<path style="fill:#FF7058;" d="M281.8,280.3h113.9v-56.6H281.8c-3.7,0-6.7,3-6.7,6.7v43.2C275.1,277.3,278.1,280.3,281.8,280.3z"/>
<circle style="fill:#324A5E;" cx="305.6" cy="252.3" r="11.7"/>
<path style="fill:#F9B54C;" d="M210.8,303.7v16.1H200v-15.6c-10,0-19.4-2.3-28-6.8v-20.5c2.9,2.3,7.1,4.5,12.8,6.4
	c5.7,2,10.7,3.1,15.2,3.4v-27c-11.6-4.3-19.4-9-23.7-14c-4.2-5-6.3-11.1-6.3-18.3c0-7.8,2.7-14.4,8.2-19.8
	c5.5-5.5,12.7-8.6,21.8-9.5v-13.8h10.8v13.5c10.4,0.5,18.2,2.2,23.3,5v20c-6.9-4.2-14.7-6.8-23.3-7.7v28.1
	c10.8,3.9,18.6,8.4,23.3,13.4s7,11.1,7,18.2c0,8.2-2.6,14.8-7.9,19.8C228,299.5,220.5,302.6,210.8,303.7z M200,238.9v-23.5
	c-6.9,1.2-10.3,4.8-10.3,10.7C189.7,231.2,193.1,235.4,200,238.9z M210.8,263.9v22.4c7.1-1.1,10.6-4.6,10.6-10.6
	C221.4,270.9,217.9,267,210.8,263.9z"/>
<g>
</g>
<g>
</g>
<g>
</g>
<g>
</g>
<g>
</g>
<g>
</g>
<g>
</g>
<g>
</g>
<g>
</g>
<g>
</g>
<g>
</g>
<g>
</g>
<g>
</g>
<g>
</g>
<g>
</g>
</svg>
