<?xml version="1.0" encoding="iso-8859-1"?>
<!-- Generator: Adobe Illustrator 19.0.0, SVG Export Plug-In . SVG Version: 6.00 Build 0)  -->
<svg version="1.1" id="Layer_1" xmlns="http://www.w3.org/2000/svg" xmlns:xlink="http://www.w3.org/1999/xlink" x="0px" y="0px"
	 viewBox="0 0 504 504" style="enable-background:new 0 0 504 504;" xml:space="preserve">
<circle style="fill:#324A5E;" cx="252" cy="252" r="252"/>
<path style="fill:#FFFFFF;" d="M160.4,97.5v112.7c0,46.1,34.1,84.2,78.4,90.6v89.7c0,8.2-11.1,14.9-19.3,14.9
	c-13.6,0-24.6,11-24.6,24.6H309c0-13.6-11-24.6-24.6-24.6c-8.2,0-19.3-6.7-19.3-14.9v-89.7c44.3-6.4,78.4-44.4,78.4-90.6V97.5H160.4
	z"/>
<path style="fill:#FF7058;" d="M186.8,155.9v54.3c0,35.9,29.2,65.2,65.2,65.2s65.2-29.2,65.2-65.2v-54.3H186.8z"/>
<g>
</g>
<g>
</g>
<g>
</g>
<g>
</g>
<g>
</g>
<g>
</g>
<g>
</g>
<g>
</g>
<g>
</g>
<g>
</g>
<g>
</g>
<g>
</g>
<g>
</g>
<g>
</g>
<g>
</g>
</svg>
