<?xml version="1.0" encoding="iso-8859-1"?>
<!-- Generator: Adobe Illustrator 19.0.0, SVG Export Plug-In . SVG Version: 6.00 Build 0)  -->
<svg version="1.1" id="Layer_1" xmlns="http://www.w3.org/2000/svg" xmlns:xlink="http://www.w3.org/1999/xlink" x="0px" y="0px"
	 viewBox="0 0 504 504" style="enable-background:new 0 0 504 504;" xml:space="preserve">
<circle style="fill:#324A5E;" cx="252" cy="252" r="252"/>
<path style="fill:#FF7058;" d="M252,66C149.4,66,66,149.4,66,252s83.5,186,186,186s186-83.5,186-186S354.6,66,252,66z M409.8,238.2
	h-56c-2-53.1-15.8-99.5-36.8-130.7C368.1,130.6,404.8,180,409.8,238.2z M238.2,96.5v141.7h-60.5C180.7,162.7,208.6,109.4,238.2,96.5
	z M238.2,265.8v141.7c-29.7-12.9-57.5-66.2-60.5-141.7H238.2z M265.8,407.5V265.8h60.5C323.3,341.3,295.4,394.6,265.8,407.5z
	 M265.8,238.2V96.5c29.7,12.9,57.5,66.2,60.5,141.7H265.8z M186.9,107.6c-21,31.2-34.7,77.5-36.8,130.7h-56
	C99.2,180,135.9,130.6,186.9,107.6z M94.2,265.8h56c2,53.1,15.8,99.5,36.8,130.7C135.9,373.4,99.2,324,94.2,265.8z M317.1,396.4
	c21-31.2,34.7-77.5,36.8-130.7h56C404.8,324,368.1,373.4,317.1,396.4z"/>
<g>
</g>
<g>
</g>
<g>
</g>
<g>
</g>
<g>
</g>
<g>
</g>
<g>
</g>
<g>
</g>
<g>
</g>
<g>
</g>
<g>
</g>
<g>
</g>
<g>
</g>
<g>
</g>
<g>
</g>
</svg>
