<?xml version="1.0" encoding="iso-8859-1"?>
<!-- Generator: Adobe Illustrator 19.0.0, SVG Export Plug-In . SVG Version: 6.00 Build 0)  -->
<svg xmlns="http://www.w3.org/2000/svg" xmlns:xlink="http://www.w3.org/1999/xlink" version="1.1" id="Layer_1" x="0px" y="0px" viewBox="0 0 508 508" style="enable-background:new 0 0 508 508;" xml:space="preserve">
<circle style="fill:#324A5E;" cx="254" cy="254" r="254"/>
<path style="fill:#4CDBC4;" d="M306,329.2C305.2,265.6,253.6,214,189.6,214s-116,51.6-116.4,115.6H306V329.2z"/>
<g>
	
		<ellipse transform="matrix(0.0689 -0.9976 0.9976 0.0689 81.4536 370.4706)" style="fill:#FFFFFF;" cx="239.189" cy="141.6" rx="17.6" ry="7.6"/>
	
		<ellipse transform="matrix(0.0689 0.9976 -0.9976 0.0689 271.1827 -7.581)" style="fill:#FFFFFF;" cx="139.653" cy="141.483" rx="17.6" ry="7.6"/>
</g>
<path style="fill:#E6E9EE;" d="M219.6,218c-3.2-2.8-4.8-7.2-4.8-11.6V180h-50v26.4c0,3.6-1.2,8-3.2,10.4c5.6,8,15.2,20.4,27.6,21.2  C198,238.4,208.4,231.2,219.6,218z"/>
<polygon style="fill:#2B3B4E;" points="184,257.2 178.4,248 184,238.4 194.8,238.4 200.4,248 194.8,257.2 "/>
<g>
	<polygon style="fill:#FF7058;" points="161.6,217.2 173.6,261.6 190.8,238.4  "/>
	<polygon style="fill:#FF7058;" points="190.4,238.4 207.2,261.6 219.6,218  "/>
</g>
<polygon style="fill:#324A5E;" points="202,302.8 190,326 176.4,302.8 183.6,257.2 194.8,257.2 "/>
<path style="fill:#FFFFFF;" d="M238.8,124c0-27.2-22-49.2-49.2-49.2l0,0l0,0c0,0,0,0-0.4,0c-27.2,0-49.2,22-49.2,49.2  c0,0.8,0,12.8,0,18.4c0,37.2,28,67.6,49.6,67.6c18.8,0,49.2-30.4,49.2-67.6C238.8,136.8,238.8,124.8,238.8,124z"/>
<path style="fill:#CED5E0;" d="M237.2,146.4c2,0.8,3.2-2,3.6-4c1.2-11.6,2.4-22.8,3.2-34.4c0.4-2.8,0.4-6,0-8.8  c-0.8-3.2-2.8-6.4-4.8-9.2c-3.6-5.6-8-11.2-14.4-13.6c-2-0.8-4.4-0.8-6.4-1.6c-4.8-1.2-8.8-4-13.2-6.4c-17.6-8.8-39.6-4-56.8,5.6  c-2,1.2-4,2.4-6,4c-2.4,2.4-4,5.2-5.2,8c-3.6,8.8-3.2,18.4-2.4,28c0.8,11.6,2,23.2,3.6,34.8c1.6,0.4,2.4-2,2.4-3.6  c0.8-10,1.2-20,2-29.6c0-2,0.4-4.4,2-5.6c2-2,5.2-1.6,8-1.2c6.8,0.8,13.6-0.4,19.2-4.4c-2,6.4-5.6,12-10.4,16.8c6-2,12-4,17.6-6  s10.8-3.6,15.6-6.8c4.8-3.2,9.2-7.6,10.8-12.8c0,8.8-2.8,18-8,25.6c4.8-2.8,9.6-6,13.2-10c4-4,6.8-9.2,6.8-14.8  c3.6,4.8,7.2,9.6,10.8,14c2.4,3.2,5.2,6.4,6.4,10.4C238.8,129.2,236,138,237.2,146.4z"/>
<path style="fill:#F9B54C;" d="M312.4,264.8c-0.8-2-2-4-3.6-5.6c-13.2-18.8-29.6-37.6-31.2-60.4c0-1.2,0-2.8,0.4-4s1.6-2,2.4-2.8  c4.8-3.6,11.2-5.2,17.2-4.4c8,0.8,15.2,6,23.2,6s15.2-5.2,23.2-6c5.6-0.4,11.6,1.2,17.2,2.4s12,1.2,16.8-2c1.6-1.2,2.8-2.8,4.4-3.6  c3.6-2,8.4,0.4,11.2,3.6c2.4,3.2,3.2,7.6,3.6,12c0.4,4.8,0.8,9.6-0.8,14c-2.8,8.8-10.8,14.4-15.6,22c-3.2,5.2-4.8,11.6-7.2,17.6  c-2.4,6-6,11.6-12,14"/>
<path style="fill:#FFD05B;" d="M335.2,255.2c-37.6,0-68,72-68,109.6s30.4,46.8,68,46.8s68-9.6,68-46.8S372.8,255.2,335.2,255.2z"/>
<path style="fill:#FFFFFF;" d="M339.2,371.2v11.6h-8v-11.2c-7.2,0-14-1.6-20.4-4.8V352c2,1.6,5.2,3.2,9.2,4.8c4,1.6,8,2.4,11.2,2.4  v-19.6c-8.4-3.2-14-6.4-17.2-10s-4.8-8-4.8-13.2c0-5.6,2-10.4,6-14.4s9.2-6.4,16-6.8v-10h8v8.8c7.6,0.4,13.2,1.6,16.8,3.6V312  c-5.2-3.2-10.8-4.8-16.8-5.6v20.4c8,2.8,13.6,6,16.8,9.6c3.6,3.6,5.2,8,5.2,13.2c0,6-2,10.8-5.6,14.4  C351.6,368,346,370.4,339.2,371.2z M331.2,324v-17.2c-4.8,0.8-7.6,3.6-7.6,8C323.6,318.4,326.4,321.6,331.2,324z M339.2,342v16.4  c5.2-0.8,7.6-3.2,7.6-7.6C346.8,347.2,344.4,344.4,339.2,342z"/>
<g>
</g>
<g>
</g>
<g>
</g>
<g>
</g>
<g>
</g>
<g>
</g>
<g>
</g>
<g>
</g>
<g>
</g>
<g>
</g>
<g>
</g>
<g>
</g>
<g>
</g>
<g>
</g>
<g>
</g>
</svg>
