<?xml version="1.0" encoding="iso-8859-1"?>
<!-- Generator: Adobe Illustrator 19.0.0, SVG Export Plug-In . SVG Version: 6.00 Build 0)  -->
<svg xmlns="http://www.w3.org/2000/svg" xmlns:xlink="http://www.w3.org/1999/xlink" version="1.1" id="Layer_1" x="0px" y="0px" viewBox="0 0 508 508" style="enable-background:new 0 0 508 508;" xml:space="preserve">
<circle style="fill:#90DFAA;" cx="254" cy="254" r="254"/>
<path style="fill:#FF7058;" d="M396,152.8H112c-6,0-10.8,4.8-10.8,10.8v181.2c0,6,4.8,10.8,10.8,10.8h284c6,0,10.8-4.8,10.8-10.8  V163.6C406.8,157.6,402,152.8,396,152.8z"/>
<rect x="117.2" y="168.8" style="fill:#FFFFFF;" width="274" height="170.8"/>
<path style="fill:#4CDBC4;" d="M225.6,280.8c-0.4-6.4-5.2-12-11.6-13.2l-14.8-2.4c-0.4,8.8-7.6,16-16.4,16c-8.8,0-16-7.2-16.4-16  l-14.8,2.4c-6.4,1.2-11.2,6.4-11.6,13.2l-2,28.8h89.2L225.6,280.8z"/>
<path style="fill:#324A5E;" d="M208,227.2c0-0.8,0-4.8,0-5.6c-0.8-13.2-12-23.2-25.2-23.2h-0.4H182c-13.2,0-24,10.4-25.2,23.2  c0,0.8,0,4.8,0,5.6c0,24.8-26.4,25.2,12.8,25.2c3.6,0,25.2,0,29.6,0C232.8,252.4,208,251.2,208,227.2z"/>
<ellipse style="fill:#E6E9EE;" cx="182.4" cy="234.4" rx="17.6" ry="24.4"/>
<path style="fill:#324A5E;" d="M195.2,213.2c0,0.4,0,0.4-0.4,0.8c-2,2.8-4.8,4.4-7.6,5.2c0.8-1.2,1.2-2.8,1.2-4  c-2,2.8-5.2,4.8-8.8,5.6c0.8-1.6,0.8-3.6,0.4-5.2c-3.2,4.4-8,8.4-13.2,10.4c-1.6,0.4-2.8,1.2-4.4,0.8c-0.4-6,2.8-12.4,8-16  s11.6-4.8,17.6-3.6c0.8,0,1.6,0.4,2.4,0.8c0.4,0.4,1.2,0.8,1.6,1.2c1.2,1.2,2,2,3.2,3.2C194.8,212.8,195.2,213.2,195.2,213.2z"/>
<g>
	<rect x="254" y="189.6" style="fill:#CED5E0;" width="115.6" height="12.4"/>
	<rect x="254" y="227.6" style="fill:#CED5E0;" width="115.6" height="12.4"/>
	<rect x="254" y="265.6" style="fill:#CED5E0;" width="115.6" height="12.4"/>
	<rect x="254" y="303.6" style="fill:#CED5E0;" width="61.6" height="12.4"/>
</g>
<g>
</g>
<g>
</g>
<g>
</g>
<g>
</g>
<g>
</g>
<g>
</g>
<g>
</g>
<g>
</g>
<g>
</g>
<g>
</g>
<g>
</g>
<g>
</g>
<g>
</g>
<g>
</g>
<g>
</g>
</svg>
