<?xml version="1.0" encoding="iso-8859-1"?>
<!-- Generator: Adobe Illustrator 19.0.0, SVG Export Plug-In . SVG Version: 6.00 Build 0)  -->
<svg xmlns="http://www.w3.org/2000/svg" xmlns:xlink="http://www.w3.org/1999/xlink" version="1.1" id="Layer_1" x="0px" y="0px" viewBox="0 0 508.256 508.256" style="enable-background:new 0 0 508.256 508.256;" xml:space="preserve">
<path style="fill:#324A5E;" d="M508.117,245.917c4.8,146.8-115.2,266.8-262,262c-133.2-4-241.6-112.4-246-245.2  c-4.4-146.8,115.6-266.8,262.4-262.4C395.317,4.717,503.717,113.117,508.117,245.917z"/>
<g>
	<ellipse style="fill:#FFFFFF;" cx="252.517" cy="97.517" rx="30.8" ry="41.2"/>
	<path style="fill:#FFFFFF;" d="M257.317,51.917c-5.2-2-10.8-1.2-16,0.4c-1.2,0.4-2,0.4-2.8,1.2c-0.8,0.4-1.2,1.2-1.6,2   c-0.8,0.8-1.6,1.2-2,1.6c-3.6,2-6,6-6.8,10c0,0.4-0.4,1.2-0.8,1.6c-0.4,0.4-0.8,0.4-1.2,0.4c-4,0.8-6.4,5.6-6.8,10   c-0.4,4.4,2,22.4,3.6,26.8c1.6-2.8,3.6-0.4,4-10c0-3.2-1.6-6-2-9.2c0-2.8,0.4-5.2,1.6-7.6c1.2-2.8,3.6-5.2,6-4.8   c1.2,0.4,2,1.2,3.2,2c5.6,4,13.2,4,20,2.4s12.8-5.6,20-5.6c3.6,0,5.2,7.2,5.6,9.2c0.8,2.8,0.8,5.6,0.8,8.4s-0.4,8.4-0.4,11.2   c0,1.6,2,2,2.8,0.8c1.2-2,1.6-7.2,1.6-9.6c0-3.2,0.4-6.4,0.4-10c0-4,0-8.4-1.2-12c-1.6-4-4-6.8-6.8-10c-2.4-2.8-5.2-6-8.8-6.8   c-2-0.4-4.4,0-6.4-0.4C260.517,53.117,258.917,52.317,257.317,51.917z"/>
	<path style="fill:#FFFFFF;" d="M277.317,144.717l-25.2,39.2l-25.2-39.2c-29.2,10.4-50,38-50.4,70.8h151.2   C327.717,182.717,306.517,155.117,277.317,144.717z"/>
</g>
<polygon style="fill:#E6E9ED;" points="260.117,261.517 260.117,237.117 244.517,237.117 244.517,261.517 102.917,261.517   102.917,300.717 118.117,300.717 118.117,276.717 244.517,276.717 244.517,300.717 260.117,300.717 260.117,276.717   390.517,276.717 390.517,300.717 405.717,300.717 405.717,261.517 "/>
<g>
	<rect x="82.517" y="315.917" style="fill:#FF7058;" width="54.8" height="54.8"/>
	<rect x="224.917" y="315.917" style="fill:#FF7058;" width="54.8" height="54.8"/>
	<rect x="370.517" y="315.917" style="fill:#FF7058;" width="54.8" height="54.8"/>
</g>
<g>
</g>
<g>
</g>
<g>
</g>
<g>
</g>
<g>
</g>
<g>
</g>
<g>
</g>
<g>
</g>
<g>
</g>
<g>
</g>
<g>
</g>
<g>
</g>
<g>
</g>
<g>
</g>
<g>
</g>
</svg>
