<?xml version="1.0" encoding="iso-8859-1"?>
<!-- Generator: Adobe Illustrator 19.0.0, SVG Export Plug-In . SVG Version: 6.00 Build 0)  -->
<svg xmlns="http://www.w3.org/2000/svg" xmlns:xlink="http://www.w3.org/1999/xlink" version="1.1" id="Layer_1" x="0px" y="0px" viewBox="0 0 508 508" style="enable-background:new 0 0 508 508;" xml:space="preserve">
<circle style="fill:#84DBFF;" cx="254" cy="254" r="254"/>
<path style="fill:#FFFFFF;" d="M294.4,237.6l-42.8-12c-4-0.8-11.2-1.6-14-4c-32.4,38.4-57.2,14.4-68.4-2c-2.8,4-9.6,4.4-14.4,5.6  l-44,13.2c-17.6,2.8-30.8,18-30.8,36V356h244.4v-82.4C324.8,255.6,311.6,240.4,294.4,237.6z"/>
<polygon style="fill:#E6E9EE;" points="177.2,238.8 202.4,335.2 226.4,238.8 "/>
<polygon style="fill:#2B3B4E;" points="195.6,259.6 189.6,249.2 195.6,238.8 208,238.8 214,249.2 208,259.6 "/>
<g>
	<polygon style="fill:#324A5E;" points="171.6,214.8 184,264 202.4,238.4  "/>
	<polygon style="fill:#324A5E;" points="202,238.4 220,264 232.8,214.8  "/>
	<polygon style="fill:#324A5E;" points="216,309.6 202.4,335.2 187.6,309.6 195.6,259.6 208,259.6  "/>
</g>
<g>
	<polygon style="fill:#CED5E0;" points="267.2,230 232.8,214.8 202.4,335.2 255.2,266 242.8,257.2  "/>
	<polygon style="fill:#CED5E0;" points="136.8,230 171.6,214.8 202.4,335.2 149.2,266 161.6,257.2  "/>
</g>
<g>
	<ellipse style="fill:#FFFFFF;" cx="204" cy="139.2" rx="52" ry="67.6"/>
	
		<ellipse transform="matrix(0.0647 -0.9979 0.9979 0.0647 94.9181 390.8969)" style="fill:#FFFFFF;" cx="255.998" cy="144.811" rx="14.8" ry="8.8"/>
	
		<ellipse transform="matrix(0.0647 0.9979 -0.9979 0.0647 286.3959 -16.0858)" style="fill:#FFFFFF;" cx="151.78" cy="144.746" rx="14.8" ry="8.8"/>
</g>
<g>
	<path style="fill:#324A5E;" d="M186.4,120c-2-0.8-3.6-2-5.6-2.8c-8-3.2-18,1.6-21.2,10.4c-2,5.2-2.4,12.4-6.8,14.8   c-1.2-5.6-1.2-11.2-1.2-16.8c0-8,0-16,1.2-24s4-15.6,8.8-22s12-10.4,19.2-12.8s14.8-2.8,22.4-3.2c4,0,8.8,0,12,2.8   c2,1.6,3.6,4,4.4,6.8c0.8,2.4,3.2-3.6,4-4.4c4-3.2,13.2,0,17.6,2.8c5.2,3.6,8.4,9.6,10.8,15.6c2.8,6.4,2,16.8,2.8,23.6   c0.4,4.4,0,7.2,0.4,17.2c0,3.6-1.6,14.8-3.2,18c-1.2,2-6-9.6-7.2-12c-3.6-7.6-7.2-14.8-9.2-22.8c-2.4-9.2-15.2-13.2-23.2-2.8   C208.8,112.8,204,125.2,186.4,120z"/>
	<rect x="358.8" y="204.8" style="fill:#324A5E;" width="13.2" height="200"/>
</g>
<g>
	<polygon style="fill:#FF7058;" points="438,264 372,264 372,226.4 438,226.4 451.6,245.2  "/>
	<polygon style="fill:#FF7058;" points="292.4,310 358.8,310 358.8,272.8 292.4,272.8 278.8,291.2  "/>
</g>
<g>
</g>
<g>
</g>
<g>
</g>
<g>
</g>
<g>
</g>
<g>
</g>
<g>
</g>
<g>
</g>
<g>
</g>
<g>
</g>
<g>
</g>
<g>
</g>
<g>
</g>
<g>
</g>
<g>
</g>
</svg>
