<?xml version="1.0" encoding="iso-8859-1"?>
<!-- Generator: Adobe Illustrator 19.0.0, SVG Export Plug-In . SVG Version: 6.00 Build 0)  -->
<svg xmlns="http://www.w3.org/2000/svg" xmlns:xlink="http://www.w3.org/1999/xlink" version="1.1" id="Layer_1" x="0px" y="0px" viewBox="0 0 508 508" style="enable-background:new 0 0 508 508;" xml:space="preserve">
<circle style="fill:#FFD05B;" cx="254" cy="254" r="254"/>
<g>
	<circle style="fill:#324A5E;" cx="150" cy="109.2" r="20.8"/>
	<path style="fill:#324A5E;" d="M167.6,136h-35.2c-5.6,0-10,4.4-10,10v68h16v52.8h22.8v-52.4h16V146   C177.6,140.8,172.8,136,167.6,136z"/>
	<circle style="fill:#324A5E;" cx="358" cy="109.2" r="20.8"/>
	<path style="fill:#324A5E;" d="M375.6,136h-35.2c-5.6,0-10,4.4-10,10v68h16v52.8h22.8v-52.4h16V146   C385.6,140.8,381.2,136,375.6,136z"/>
</g>
<rect x="78" y="280" style="fill:#FFFFFF;" width="352" height="29.6"/>
<path style="fill:#4CDBC4;" d="M287.6,292.4c-2-16.8-16.4-29.6-33.6-29.6l0,0c-16.8,0-31.2,12.8-33.6,29.6L206,402.8h95.6  L287.6,292.4z"/>
<g>
	<circle style="fill:#324A5E;" cx="254" cy="294.8" r="11.6"/>
	<rect x="196.8" y="402.8" style="fill:#324A5E;" width="114.8" height="17.2"/>
</g>
<g>
</g>
<g>
</g>
<g>
</g>
<g>
</g>
<g>
</g>
<g>
</g>
<g>
</g>
<g>
</g>
<g>
</g>
<g>
</g>
<g>
</g>
<g>
</g>
<g>
</g>
<g>
</g>
<g>
</g>
</svg>
