<?xml version="1.0" encoding="iso-8859-1"?>
<!-- Generator: Adobe Illustrator 19.0.0, SVG Export Plug-In . SVG Version: 6.00 Build 0)  -->
<svg xmlns="http://www.w3.org/2000/svg" xmlns:xlink="http://www.w3.org/1999/xlink" version="1.1" id="Layer_1" x="0px" y="0px" viewBox="0 0 508 508" style="enable-background:new 0 0 508 508;" xml:space="preserve">
<circle style="fill:#90DFAA;" cx="254" cy="254" r="254"/>
<g>
	<circle style="fill:#FFFFFF;" cx="153.2" cy="130" r="20.8"/>
	<path style="fill:#FFFFFF;" d="M170.8,157.2h-35.2c-5.6,0-10,4.4-10,10v68h16V288h22.8v-52.8h16v-68   C180.8,161.6,176.4,157.2,170.8,157.2z"/>
</g>
<rect x="78" y="303.2" style="fill:#324A5E;" width="352" height="29.6"/>
<path style="fill:#FF7058;" d="M287.6,315.6c-2-16.8-16.4-29.6-33.6-29.6l0,0c-16.8,0-31.2,12.8-33.6,29.6L206,406h95.6L287.6,315.6  z"/>
<circle style="fill:#E6E9EE;" cx="254" cy="318" r="11.6"/>
<g>
	<rect x="188.4" y="406.8" style="fill:#FFFFFF;" width="130.8" height="22.4"/>
	<path style="fill:#FFFFFF;" d="M379.2,226c-1.6-0.8-2.8-2-2.8-4v-0.4c0-2,1.2-3.6,2.8-4c18.8-6.8,32.8-28.8,33.6-48.8h-89.6   c0.8,20,14.8,42.4,33.6,48.8c1.6,0.8,3.2,2,3.2,4v0.4c0,2-1.2,3.6-3.2,4c-18.8,6.8-32.8,28.8-33.6,48.8h89.6   C412,254.8,398,232.4,379.2,226z"/>
</g>
<g>
	<path style="fill:#FFD05B;" d="M360.8,206c2.8,1.2,5.6,2.8,7.2,5.2c2-2.4,4.4-4,7.2-5.2c7.6-2.8,14.8-9.6,19.6-18.4h-53.6   C346,196.4,353.2,203.2,360.8,206z"/>
	<path style="fill:#FFD05B;" d="M375.2,237.2c-2.8-1.2-5.2-2.8-7.2-5.2c-2,2.4-4.4,4-7.2,5.2c-10,3.6-18.8,14-23.2,26h60.8   C394,251.2,385.2,240.4,375.2,237.2z"/>
</g>
<g>
	<path style="fill:#324A5E;" d="M320.4,168.4h94.8c3.6,0,6.8-3.2,6.8-6.8s-3.2-6.8-6.8-6.8h-94.8c-3.6,0-6.8,3.2-6.8,6.8   S316.8,168.4,320.4,168.4z"/>
	<path style="fill:#324A5E;" d="M415.2,274.4h-94.8c-3.6,0-6.8,3.2-6.8,6.8c0,3.6,3.2,6.8,6.8,6.8h94.8c3.6,0,6.8-3.2,6.8-6.8   S419.2,274.4,415.2,274.4z"/>
</g>
<g>
</g>
<g>
</g>
<g>
</g>
<g>
</g>
<g>
</g>
<g>
</g>
<g>
</g>
<g>
</g>
<g>
</g>
<g>
</g>
<g>
</g>
<g>
</g>
<g>
</g>
<g>
</g>
<g>
</g>
</svg>
