<?xml version="1.0" encoding="iso-8859-1"?>
<!-- Generator: Adobe Illustrator 19.0.0, SVG Export Plug-In . SVG Version: 6.00 Build 0)  -->
<svg xmlns="http://www.w3.org/2000/svg" xmlns:xlink="http://www.w3.org/1999/xlink" version="1.1" id="Layer_1" x="0px" y="0px" viewBox="0 0 508 508" style="enable-background:new 0 0 508 508;" xml:space="preserve">
<circle style="fill:#84DBFF;" cx="254" cy="254" r="254"/>
<path style="fill:#FF7058;" d="M320.4,173.2h-216c-7.6,0-13.6,6-13.6,13.6v146.4c0,7.6,6,13.6,13.6,13.6h24.4l-10,55.2l63.2-55.2  h138.4c7.6,0,13.6-6,13.6-13.6V186.8C334.4,179.2,328.4,173.2,320.4,173.2z"/>
<path style="fill:#FFFFFF;" d="M179.6,122h216c7.6,0,13.6,6,13.6,13.6V282c0,7.6-6,13.6-13.6,13.6h-24.4l10,55.2L318,295.6H179.6  c-7.6,0-13.6-6-13.6-13.6V135.6C165.6,128,172,122,179.6,122z"/>
<path style="fill:#324A5E;" d="M335.6,258.8v-21.6c0-6.8-4.4-12.4-10.8-14c-0.8,0-1.2-0.4-2-0.4l-22.4-8.4c-1.2-1.2-2-2.8-2-4.8  v-0.8c3.2-3.2,5.6-7.6,7.2-12.4c0.4,0,0.4,0.4,0.8,0.4c2,0.4,4-2,4.4-5.6c0.8-3.6-0.4-6.4-2-6.8c-0.4,0-0.8,0-0.8,0  c0-0.4,0-0.8,0-1.6c0-0.4,0-0.4,0-0.8l0,0c0-2.4,0.4-4.4,0-6.8c-0.4-3.2-1.6-6.4-2.8-9.6c-0.4-0.8-0.8-1.6-1.2-2.4  c-1.2-2-3.6-3.2-5.6-3.6c-0.8,0-2,0-2.4,0.8c0,0,0,0.4-0.4,0.4c-0.4-0.8-0.8-1.2-1.6-1.6c-0.8-0.4-2-0.8-2.8-0.8  c-5.2-0.4-9.2,0.4-14,1.2c-2.4,0.4-6,2.4-7.2,6c-1.2,3.2-2.4,6-3.2,9.6c-0.4,1.6,0,5.2,0.4,8.4c0,0.4,0,0.4,0,0.8  c-0.4,0-0.8,0-0.8,0c-2,0.4-2.8,3.6-2,6.8c0.8,3.6,2.8,6,4.4,5.6c0.4,0,0.4,0,0.8-0.4c1.6,5.2,4.4,9.6,8,12.8v0.8  c0,1.6-0.4,2.8-1.2,4c0,0-18,7.2-22.8,8.8c-0.8,0.4-1.6,0.4-2.4,0.8c-6.4,1.6-10.8,7.2-10.8,14v21.2L335.6,258.8L335.6,258.8z"/>
<g>
</g>
<g>
</g>
<g>
</g>
<g>
</g>
<g>
</g>
<g>
</g>
<g>
</g>
<g>
</g>
<g>
</g>
<g>
</g>
<g>
</g>
<g>
</g>
<g>
</g>
<g>
</g>
<g>
</g>
</svg>
