<?xml version="1.0" encoding="iso-8859-1"?>
<!-- Generator: Adobe Illustrator 19.0.0, SVG Export Plug-In . SVG Version: 6.00 Build 0)  -->
<svg xmlns="http://www.w3.org/2000/svg" xmlns:xlink="http://www.w3.org/1999/xlink" version="1.1" id="Layer_1" x="0px" y="0px" viewBox="0 0 508 508" style="enable-background:new 0 0 508 508;" xml:space="preserve">
<circle style="fill:#FFD05B;" cx="254" cy="254" r="254"/>
<g>
	<polygon style="fill:#FFFFFF;" points="292.4,189.6 303.6,174.8 303.6,170.8 206.4,197.2 206.4,212.8  "/>
	<polygon style="fill:#FFFFFF;" points="206.4,373.2 206.4,388.8 303.6,362.4 303.6,346.8  "/>
</g>
<polygon style="fill:#2C9984;" points="237.2,296.4 206.4,337.2 206.4,373.2 303.6,346.8 303.6,278.4 "/>
<g>
	<polygon style="fill:#CED5E0;" points="292.4,189.6 206.4,212.8 206.4,302.4  "/>
	<polygon style="fill:#CED5E0;" points="303.6,254.4 303.6,209.6 260.4,266.4  "/>
</g>
<g>
	<polygon style="fill:#FFFFFF;" points="206.4,326 239.2,284 303.6,266.8 303.6,254.4 260.4,266.4 303.6,209.6 303.6,191.2    206.4,314  "/>
	<polygon style="fill:#FFFFFF;" points="206.4,314 303.6,191.2 303.6,186.8 292.4,189.6 206.4,302.4  "/>
	<polygon style="fill:#FFFFFF;" points="206.4,326 206.4,337.2 237.2,296.4 303.6,278.4 303.6,266.8 239.2,284  "/>
	<polygon style="fill:#FFFFFF;" points="303.6,174.8 292.4,189.6 303.6,186.8  "/>
	<polygon style="fill:#FFFFFF;" points="339.6,184.8 324.8,194.8 378.4,215.2 378.4,283.2 394,289.2 394,205.6  "/>
	<polygon style="fill:#FFFFFF;" points="307.2,172.4 303.6,170.8 303.6,174.8  "/>
	<polygon style="fill:#FFFFFF;" points="378.4,375.6 303.6,346.8 303.6,362.4 394,397.2 394,313.2 378.4,307.2  "/>
</g>
<polygon style="fill:#4CDBC4;" points="303.6,346.8 378.4,375.6 378.4,307.2 303.6,278.4 "/>
<polygon style="fill:#E6E9EE;" points="303.6,254.4 378.4,283.2 378.4,215.2 324.8,194.8 303.6,209.6 "/>
<g>
	<polygon style="fill:#FFFFFF;" points="303.6,266.8 378.4,295.2 378.4,283.2 303.6,254.4  "/>
	<polygon style="fill:#FFFFFF;" points="303.6,191.2 303.6,209.6 324.8,194.8 308,188.4  "/>
	<polygon style="fill:#FFFFFF;" points="308,188.4 303.6,186.8 303.6,191.2  "/>
	<polygon style="fill:#FFFFFF;" points="303.6,278.4 378.4,307.2 378.4,295.2 303.6,266.8  "/>
	<polygon style="fill:#FFFFFF;" points="378.4,295.2 394,301.2 394,289.2 378.4,283.2  "/>
	<polygon style="fill:#FFFFFF;" points="378.4,307.2 394,313.2 394,301.2 378.4,295.2  "/>
	<polygon style="fill:#FFFFFF;" points="324.8,194.8 339.6,184.8 323.6,178.4 308,188.4  "/>
	<polygon style="fill:#FFFFFF;" points="303.6,186.8 308,188.4 323.6,178.4 307.2,172.4 303.6,174.8  "/>
	<polygon style="fill:#FFFFFF;" points="130,190.4 206.4,212.8 206.4,197.2 114,169.6 114,203.6 130,226.4  "/>
	<polygon style="fill:#FFFFFF;" points="172.4,362.8 157.2,374.4 206.4,388.8 206.4,373.2  "/>
	<polygon style="fill:#FFFFFF;" points="130,350.4 130,262.4 114,239.6 114,361.6 124.4,364.4 139.2,353.2  "/>
</g>
<polygon style="fill:#E6E9EE;" points="130,262.4 130,350.4 139.2,353.2 174.4,326.4 "/>
<polygon style="fill:#4CDBC4;" points="172.4,362.8 206.4,373.2 206.4,337.2 "/>
<polygon style="fill:#E6E9EE;" points="206.4,302.4 206.4,212.8 130,190.4 130,226.4 191.2,314 "/>
<g>
	<polygon style="fill:#FFFFFF;" points="187.2,327.2 193.2,335.6 206.4,326 206.4,314  "/>
	<polygon style="fill:#FFFFFF;" points="206.4,314 206.4,302.4 191.2,314 130,226.4 130,246 187.2,327.2  "/>
	<polygon style="fill:#FFFFFF;" points="206.4,326 193.2,335.6 187.2,327.2 147.6,355.6 172.4,362.8 206.4,337.2  "/>
	<polygon style="fill:#FFFFFF;" points="130,246 130,262.4 174.4,326.4 139.2,353.2 147.6,355.6 187.2,327.2  "/>
	<polygon style="fill:#FFFFFF;" points="147.6,355.6 131.6,366.8 157.2,374.4 172.4,362.8  "/>
	<polygon style="fill:#FFFFFF;" points="139.2,353.2 124.4,364.4 131.6,366.8 147.6,355.6  "/>
	<polygon style="fill:#FFFFFF;" points="130,226.4 114,203.6 114,223.6 130,246  "/>
	<polygon style="fill:#FFFFFF;" points="130,246 114,223.6 114,239.6 130,262.4  "/>
</g>
<path style="fill:#FF7058;" d="M328.8,138c0,41.2-74.8,138.4-74.8,138.4s-74.8-97.2-74.8-138.4s33.6-74.8,74.8-74.8  S328.8,96.8,328.8,138z"/>
<circle style="fill:#FFD05B;" cx="254" cy="134.8" r="50.4"/>
<g>
	<circle style="fill:#324A5E;" cx="254" cy="117.2" r="12.4"/>
	<path style="fill:#324A5E;" d="M277.6,156.4c-0.4-12.8-10.8-23.2-23.6-23.2c-12.8,0-23.2,10.4-23.6,23.2H277.6z"/>
</g>
<g>
</g>
<g>
</g>
<g>
</g>
<g>
</g>
<g>
</g>
<g>
</g>
<g>
</g>
<g>
</g>
<g>
</g>
<g>
</g>
<g>
</g>
<g>
</g>
<g>
</g>
<g>
</g>
<g>
</g>
</svg>
