<?xml version="1.0" encoding="iso-8859-1"?>
<!-- Generator: Adobe Illustrator 19.0.0, SVG Export Plug-In . SVG Version: 6.00 Build 0)  -->
<svg xmlns="http://www.w3.org/2000/svg" xmlns:xlink="http://www.w3.org/1999/xlink" version="1.1" id="Layer_1" x="0px" y="0px" viewBox="0 0 508 508" style="enable-background:new 0 0 508 508;" xml:space="preserve">
<circle style="fill:#90DFAA;" cx="254" cy="254" r="254"/>
<path style="fill:#FFFFFF;" d="M416.4,214.8c-3.2-77.6-64.8-141.6-142-147.6c-72-5.2-134,38.8-156.8,101.6l0,0l-40.8,78  c-3.2,6.4,1.2,14,8.4,14h23.2V332c0,8.4,6.8,15.2,15.2,15.2h50.8v70h157.2l0.4-58.8C384,332,418.8,277.6,416.4,214.8z"/>
<g>
	<path style="fill:#324A5E;" d="M266,300.8c-50.4,0-91.2-40.8-91.2-91.2S215.6,118,266,118s91.2,40.8,91.2,91.2   S316.4,300.8,266,300.8z M266,130c-44,0-79.6,35.6-79.6,79.6c0,43.6,35.6,79.2,79.2,79.2s79.2-35.6,79.2-79.2   C345.2,165.6,309.6,130,266,130z"/>
	<path style="fill:#324A5E;" d="M266,265.6c-30.8,0-56-25.2-56-56s25.2-56,56-56s56,25.2,56,56S296.8,265.6,266,265.6z M266,165.2   c-24.4,0-44,19.6-44,44s19.6,44,44,44s44-19.6,44-44C310,185.2,290.4,165.2,266,165.2z"/>
</g>
<g>
	<rect x="299.2" y="203.6" style="fill:#FF7058;" width="70" height="12"/>
	<rect x="162.4" y="203.6" style="fill:#FF7058;" width="70" height="12"/>
	<rect x="260" y="106" style="fill:#FF7058;" width="12" height="70"/>
	<rect x="260" y="242.8" style="fill:#FF7058;" width="12" height="70"/>
</g>
<g>
</g>
<g>
</g>
<g>
</g>
<g>
</g>
<g>
</g>
<g>
</g>
<g>
</g>
<g>
</g>
<g>
</g>
<g>
</g>
<g>
</g>
<g>
</g>
<g>
</g>
<g>
</g>
<g>
</g>
</svg>
