<?xml version="1.0" encoding="iso-8859-1"?>
<!-- Generator: Adobe Illustrator 19.0.0, SVG Export Plug-In . SVG Version: 6.00 Build 0)  -->
<svg xmlns="http://www.w3.org/2000/svg" xmlns:xlink="http://www.w3.org/1999/xlink" version="1.1" id="Layer_1" x="0px" y="0px" viewBox="0 0 508 508" style="enable-background:new 0 0 508 508;" xml:space="preserve">
<circle style="fill:#FFD05B;" cx="254" cy="254" r="254"/>
<g>
	<path style="fill:#324A5E;" d="M318.4,114.8c-4.4-4.8-12-4.8-16.8-0.4L274.8,140l-34-30.8c0,0-0.4,0-0.4-0.4   c-0.4-0.4-0.8-0.8-1.6-1.2c-0.4,0-0.4-0.4-0.8-0.4c-0.8-0.4-1.6-0.8-2.4-0.8c-0.4,0-0.4,0-0.8,0c-0.8,0-1.2-0.4-2-0.4   c-0.4,0-0.8,0-0.8,0c-0.4,0-0.8,0-0.8,0l-57.6,8.8c-3.6,0.4-6.8,2.8-8.8,6l-15.2,27.6c-3.2,5.6-1.2,13.2,4.8,16   c2,0.8,3.6,1.6,5.6,1.6c4.4,0,8.4-2.4,10.4-6l12.4-22.4l33.6-5.2l-16,58.4L186,237.6l-36.4,32.8c-4.8,4.4-5.2,12-0.8,16.8   c2.4,2.8,5.6,4,8.8,4c2.8,0,5.6-1.2,8-3.2l38.8-34.8c1.6-1.6,2.8-3.2,3.2-5.2l11.6-37.6l30,11.6L232,264.8   c-2.4,6,0.4,13.2,6.4,15.6c1.6,0.4,2.8,0.8,4.4,0.8c4.8,0,9.2-2.8,11.2-7.6l21.6-54c1.2-2.8,1.2-6.4,0-9.2s-3.6-5.2-6.4-6.4   L226,187.6l12.8-47.2l28,25.2c4.8,4.4,11.6,4,16.4-0.4l34.8-33.6C322.8,127.2,322.8,119.6,318.4,114.8z"/>
	<circle style="fill:#324A5E;" cx="246" cy="70.8" r="27.2"/>
</g>
<polygon style="fill:#FF7058;" points="296.4,254 296.4,294 211.6,294 211.6,335.6 126.8,335.6 126.8,408.8 381.2,408.8 381.2,254   "/>
<g>
</g>
<g>
</g>
<g>
</g>
<g>
</g>
<g>
</g>
<g>
</g>
<g>
</g>
<g>
</g>
<g>
</g>
<g>
</g>
<g>
</g>
<g>
</g>
<g>
</g>
<g>
</g>
<g>
</g>
</svg>
