<?xml version="1.0" encoding="iso-8859-1"?>
<!-- Generator: Adobe Illustrator 19.0.0, SVG Export Plug-In . SVG Version: 6.00 Build 0)  -->
<svg xmlns="http://www.w3.org/2000/svg" xmlns:xlink="http://www.w3.org/1999/xlink" version="1.1" id="Layer_1" x="0px" y="0px" viewBox="0 0 508 508" style="enable-background:new 0 0 508 508;" xml:space="preserve">
<circle style="fill:#FD8469;" cx="254" cy="254" r="254"/>
<path style="fill:#FFFFFF;" d="M260.4,94v0.8V94z"/>
<path style="fill:#E6E9EE;" d="M324.4,108c-0.8,0-1.2,0-2,0.4c0-0.4,0-0.4,0-0.4c0-38-30.8-68.4-68.4-68.4l0,0l0,0c0,0,0,0-0.4,0  c-37.6,0.4-68,30.8-68,68.4v0.4c-0.8-0.4-1.6-0.4-2-0.4c-6,0.4-10,11.6-9.2,24.8s6.4,24,12.4,23.6c0.4,0,0.8-0.4,1.2-0.4  c9.2,40.8,40.8,71.2,66,71.2c22,0,56-30.4,65.6-71.2c0.4,0.4,1.2,0.4,1.6,0.4c6,0.4,11.6-10,12.4-23.6  C334.4,119.6,330.4,108.4,324.4,108z"/>
<path style="fill:#324A5E;" d="M319.6,120.8c0-4.8,1.2-9.2,2.8-13.6c-0.4-37.6-30.8-68-68.4-68l0,0l0,0c0,0,0,0-0.4,0  c-37.6,0.4-68,30.8-68,68.4c1.6,4,2.8,8.4,2.8,12.4c0,0.4,0,6,0,6.4c0,2.4-0.8,4.4-0.4,6.8c0.4,2.4,1.6,4.4,3.6,5.2  c2.4,0.8,4.8-0.8,6.4-2.8c1.2-2,1.6-4.8,2-7.2c0-0.8,0.4-6.4,0.4-7.2c2.4-12.4,7.6-24,16.4-32.8l0,0c2.8-3.2,8.4-2.4,10.4,1.2  c4.8,8,15.2,14,27.2,14c15.6,0,28.4-9.2,30-21.2c2.8,2,5.6,4,7.6,6c8.8,9.2,14,21.6,16.4,34c0,0.4,0,5.6,0,6c0.4,2.4,0.8,4.8,2,7.2  c1.2,2,4,3.6,6.4,2.8c2-0.8,3.2-2.8,3.6-5.2s-0.4-4.4-0.4-6.8C319.6,126.8,319.6,121.2,319.6,120.8z"/>
<path style="fill:#FFD05B;" d="M382.4,236.8c-38.8,13.2-89.6,13.2-128.4,0c0,60.8,0,121.6,0,182c38.8,13.2,89.6,13.2,128.4,0  C382.4,358,382.4,297.2,382.4,236.8z"/>
<path style="fill:#F9B54C;" d="M254,236.8c-38.8,13.2-89.6,13.2-128.4,0c0,60.8,0,121.6,0,182c38.8,13.2,89.6,13.2,128.4,0  C254,358,254,297.2,254,236.8z"/>
<g>
	<path style="fill:#324A5E;" d="M389.6,336h-16.4c-4.4,0-8.4,3.6-8.4,8.4c0,4.4,3.6,8.4,8.4,8.4h16.4c4.4,0,8.4-3.6,8.4-8.4   C397.6,340,394,336,389.6,336z"/>
	<path style="fill:#324A5E;" d="M389.6,352.8h-16.4c-4.4,0-8.4,3.6-8.4,8.4c0,4.4,3.6,8.4,8.4,8.4h16.4c4.4,0,8.4-3.6,8.4-8.4   C397.6,356.4,394,352.8,389.6,352.8z"/>
	<path style="fill:#324A5E;" d="M390,369.2h-15.2c-4.4,0-7.6,3.6-7.6,8.4c0,4.4,3.6,8.4,7.6,8.4H390c4.4,0,7.6-3.6,7.6-8.4   C397.6,373.2,394.4,369.2,390,369.2z"/>
	<path style="fill:#324A5E;" d="M390.8,386h-14c-4,0-7.2,3.6-7.2,8.4c0,4.4,3.2,8.4,7.2,8.4h14c4,0,7.2-3.6,7.2-8.4   C397.6,389.6,394.8,386,390.8,386z"/>
	<path style="fill:#324A5E;" d="M118.4,336h16.4c4.4,0,8.4,3.6,8.4,8.4c0,4.4-3.6,8.4-8.4,8.4h-16.4c-4.4,0-8.4-3.6-8.4-8.4   C110.4,340,114,336,118.4,336z"/>
	<path style="fill:#324A5E;" d="M118.4,352.8h16.4c4.4,0,8.4,3.6,8.4,8.4c0,4.4-3.6,8.4-8.4,8.4h-16.4c-4.4,0-8.4-3.6-8.4-8.4   C110.4,356.4,114,352.8,118.4,352.8z"/>
	<path style="fill:#324A5E;" d="M118,369.2h15.2c4.4,0,7.6,3.6,7.6,8.4c0,4.4-3.6,8.4-7.6,8.4H118c-4.4,0-7.6-3.6-7.6-8.4   C110.4,373.2,113.6,369.2,118,369.2z"/>
	<path style="fill:#324A5E;" d="M117.2,386h14c4,0,7.2,3.6,7.2,8.4c0,4.4-3.2,8.4-7.2,8.4h-14c-4,0-7.2-3.6-7.2-8.4   C110.4,389.6,113.2,386,117.2,386z"/>
</g>
<g>
</g>
<g>
</g>
<g>
</g>
<g>
</g>
<g>
</g>
<g>
</g>
<g>
</g>
<g>
</g>
<g>
</g>
<g>
</g>
<g>
</g>
<g>
</g>
<g>
</g>
<g>
</g>
<g>
</g>
</svg>
