<?xml version="1.0" encoding="iso-8859-1"?>
<!-- Generator: Adobe Illustrator 19.0.0, SVG Export Plug-In . SVG Version: 6.00 Build 0)  -->
<svg xmlns="http://www.w3.org/2000/svg" xmlns:xlink="http://www.w3.org/1999/xlink" version="1.1" id="Layer_1" x="0px" y="0px" viewBox="0 0 508 508" style="enable-background:new 0 0 508 508;" xml:space="preserve">
<circle style="fill:#FD8469;" cx="254" cy="254" r="254"/>
<rect x="136" y="118.4" style="fill:#FFFFFF;" width="235.6" height="287.2"/>
<g>
	<rect x="188" y="99.6" style="fill:#324A5E;" width="7.6" height="18.8"/>
	<path style="fill:#324A5E;" d="M221.6,99.6V154c0,11.2-9.2,20.4-20.4,20.4s-20.4-9.2-20.4-20.4V82c0-6.4,5.2-12,12-12   c6.4,0,12,5.2,12,12v36.4h7.6V82c0-10.8-8.8-19.6-19.6-19.6s-19.6,8.8-19.6,19.6v71.6c0,15.2,12.4,28,28,28s28-12.4,28-28v-54   H221.6z"/>
	<path style="fill:#324A5E;" d="M323.2,338c-0.4-38-31.2-68.8-69.2-68.8S185.2,300,184.8,338H323.2z"/>
</g>
<path style="fill:#E6E9EE;" d="M272,271.6c-2-1.6-2.8-4-2.8-6.8v-15.6h-29.6v15.6c0,2-0.8,4.8-2,6.4c3.2,4.8,8.8,12.4,16.4,12.4  C259.2,284,265.2,279.6,272,271.6z"/>
<g>
	
		<ellipse transform="matrix(0.0689 -0.9976 0.9976 0.0689 38.1976 493.7278)" style="fill:#FFD05B;" cx="283.593" cy="226.401" rx="10.4" ry="4.8"/>
	
		<ellipse transform="matrix(0.0689 0.9976 -0.9976 0.0689 434.989 -13.2933)" style="fill:#FFD05B;" cx="224.616" cy="226.378" rx="10.4" ry="4.8"/>
	<path style="fill:#FFD05B;" d="M283.2,216c0-16-13.2-29.2-29.2-29.2l0,0l0,0l0,0c-16,0-29.2,13.2-29.2,29.2c0,0.4,0,7.6,0,10.8   c0,22,16.4,40,29.2,40c11.2,0,29.2-18,29.2-40C283.2,223.6,283.2,216.4,283.2,216z"/>
</g>
<path style="fill:#324A5E;" d="M254,186.4L254,186.4L254,186.4c-16.4,0-29.2,7.2-29.2,29.6c0,0.4,0,7.6,0,10.8c0,2,0,4,0.4,6h2v-0.4  c0-2.8,0-9.2,0-9.6c0-8,3.6-15.2,9.6-20c0.8-0.8,2-0.8,2.8,0c2.8,2,8.4,3.2,14.8,3.2s11.6-1.2,14.8-3.2c0.8-0.8,2-0.4,2.8,0  c6,4.8,9.6,12,9.6,20c0,0.4,0,10,0,10.4h1.6c0.4-2,0.4-4,0.4-6c0-3.2,0-10.4,0-10.8C283.2,193.6,270.4,186.4,254,186.4z"/>
<polygon style="fill:#E6E9EE;" points="240.8,284 254.4,336 268.8,284 "/>
<g>
	<polygon style="fill:#FF7058;" points="250.8,295.2 247.2,289.6 250.8,284 257.2,284 260.4,289.6 257.2,295.2  "/>
	<polygon style="fill:#FF7058;" points="254.4,336 248.4,314 250.8,295.2 257.2,295.2 260.4,314  "/>
</g>
<g>
	<polygon style="fill:#4CDBC4;" points="237.6,271.2 244.4,297.6 254.8,284  "/>
	<polygon style="fill:#4CDBC4;" points="254.4,284 264.8,297.6 272,271.6  "/>
</g>
<g>
</g>
<g>
</g>
<g>
</g>
<g>
</g>
<g>
</g>
<g>
</g>
<g>
</g>
<g>
</g>
<g>
</g>
<g>
</g>
<g>
</g>
<g>
</g>
<g>
</g>
<g>
</g>
<g>
</g>
</svg>
