<?xml version="1.0" encoding="iso-8859-1"?>
<!-- Generator: Adobe Illustrator 19.0.0, SVG Export Plug-In . SVG Version: 6.00 Build 0)  -->
<svg xmlns="http://www.w3.org/2000/svg" xmlns:xlink="http://www.w3.org/1999/xlink" version="1.1" id="Layer_1" x="0px" y="0px" viewBox="0 0 508 508" style="enable-background:new 0 0 508 508;" xml:space="preserve">
<circle style="fill:#FFD05B;" cx="254" cy="254" r="254"/>
<path style="fill:#FFFFFF;" d="M294.8,223.2l-42.8-12c-4-0.8-11.2-1.6-14-4c-12.8,15.2-25.2,24.4-35.2,24  c-15.2-0.4-26.4-16.4-33.2-26c-2.8,4-9.6,4.4-14.4,5.6l-44,13.2c-17.6,2.8-30.8,18-30.8,36v81.6h244.4v-82.4  C325.2,241.2,312.4,226,294.8,223.2z"/>
<polygon style="fill:#2B3B4E;" points="196.4,252 190.4,241.6 196.4,230.8 208.4,230.8 214.8,241.6 208.4,252 "/>
<polygon style="fill:#324A5E;" points="216.4,302 203.2,319.2 188.4,302 196.4,252 208.4,252 "/>
<g>
	<ellipse style="fill:#FFFFFF;" cx="204.4" cy="132.8" rx="50.8" ry="66"/>
	
		<ellipse transform="matrix(-0.9979 -0.0648 0.0648 -0.9979 500.9315 292.2502)" style="fill:#FFFFFF;" cx="255.202" cy="138.007" rx="8.4" ry="14.4"/>
	
		<ellipse transform="matrix(0.9979 -0.0648 0.0648 0.9979 -8.6117 10.2426)" style="fill:#FFFFFF;" cx="153.691" cy="137.96" rx="8.4" ry="14.4"/>
</g>
<g>
	<path style="fill:#324A5E;" d="M187.6,113.6c-2-0.8-3.6-2-5.6-2.4c-8-3.2-17.6,1.6-20.8,10c-2,5.2-2.4,12-6.8,14.4   c-0.8-5.6-1.2-11.2-1.2-16.4c0-8,0-15.6,1.2-23.6c1.2-7.6,3.6-15.2,8.4-21.2c4.8-6,11.6-10,18.8-12.4s14.8-2.8,22-2.8   c4,0,8.4,0,11.6,2.4c2,1.6,3.6,4,4.4,6.8c0.8,2.4,3.2-3.6,4-4.4c4-3.2,12.8,0,17.2,2.8c5.2,3.6,8.4,9.6,10.8,15.2   c2.8,6,2,16.4,2.8,23.2c0.4,4.4,0,6.8,0.4,16.8c0,3.6-1.6,14.4-3.2,17.6c-1.2,2-6-9.6-7.2-11.6c-3.2-7.2-7.2-14.4-9.2-22.4   c-2.4-9.2-14.8-13.2-22.4-2.8C209.6,106.8,204.4,118.8,187.6,113.6z"/>
	<polygon style="fill:#324A5E;" points="170,204.8 180.8,256.4 203.2,230.8  "/>
	<polygon style="fill:#324A5E;" points="202.8,230.8 225.2,256.4 238.4,206.8  "/>
</g>
<rect x="268.8" y="241.6" style="fill:#FF7058;" width="134.4" height="160.4"/>
<rect x="280.4" y="252.4" style="fill:#FFFFFF;" width="111.2" height="138"/>
<g>
	<path style="fill:#324A5E;" d="M328.4,304.8c-2.4,1.2-5.6,1.6-9.6,1.6c-5.2,0-9.2-1.6-12-4.4c-2.8-3.2-4.4-7.2-4.4-12   c0-5.2,1.6-9.6,4.8-12.8s7.6-4.8,12.8-4.8c3.2,0,6,0.4,8.4,1.2v7.2c-2.4-1.2-4.8-2-7.6-2c-3.2,0-5.6,0.8-7.6,2.8s-2.8,4.8-2.8,8   s0.8,5.6,2.8,7.6s4.4,2.8,7.2,2.8c2.8,0,5.6-0.8,8-2C328.4,298,328.4,304.8,328.4,304.8z"/>
	<path style="fill:#324A5E;" d="M370,272.4L358.4,306H350l-11.2-33.2h8l6.8,23.2c0.4,1.2,0.4,2.4,0.8,3.2l0,0c0-1.2,0.4-2,0.8-3.6   l6.8-23.2H370z"/>
	<rect x="291.6" y="324.8" style="fill:#324A5E;" width="88.8" height="7.6"/>
	<rect x="291.6" y="344.8" style="fill:#324A5E;" width="88.8" height="7.6"/>
	<rect x="291.6" y="365.2" style="fill:#324A5E;" width="45.2" height="7.6"/>
</g>
<g>
</g>
<g>
</g>
<g>
</g>
<g>
</g>
<g>
</g>
<g>
</g>
<g>
</g>
<g>
</g>
<g>
</g>
<g>
</g>
<g>
</g>
<g>
</g>
<g>
</g>
<g>
</g>
<g>
</g>
</svg>
