<?xml version="1.0" encoding="iso-8859-1"?>
<!-- Generator: Adobe Illustrator 19.0.0, SVG Export Plug-In . SVG Version: 6.00 Build 0)  -->
<svg xmlns="http://www.w3.org/2000/svg" xmlns:xlink="http://www.w3.org/1999/xlink" version="1.1" id="Layer_1" x="0px" y="0px" viewBox="0 0 508 508" style="enable-background:new 0 0 508 508;" xml:space="preserve">
<circle style="fill:#84DBFF;" cx="254" cy="254" r="254"/>
<path style="fill:#FFFFFF;" d="M358,140.8v0.4V140.8z"/>
<polygon style="fill:#F1543F;" points="128.8,284 124,276 128.8,267.6 138.4,267.6 143.2,276 138.4,284 "/>
<path style="fill:#FFFFFF;" d="M165.2,210.4c-0.4,0-0.4,0-0.8,0l0,0c0-16.4-13.2-30-30-30l0,0l0,0l0,0c-16.4,0-29.6,13.6-29.6,30  c0,0,0,0,0,0.4c-0.4,0-0.8,0-0.8,0c-2.4,0-4.4,5.2-4,10.8c0.4,6,2.8,10.4,5.6,10.4h0.4c4,17.6,17.6,30.8,28.8,30.8  c9.6,0,24.4-13.2,28.4-30.8c0.4,0,0.4,0,0.8,0.4c2.4,0,5.2-4.4,5.6-10.4C169.6,215.6,167.6,210.8,165.2,210.4z"/>
<polygon style="fill:#FF7058;" points="143.6,316.4 123.6,316.4 128.8,284 138.4,284 "/>
<g>
	<path style="fill:#324A5E;" d="M133.6,316c0,0-24-48.4-26.8-47.2c-22.4,10-38,32.4-38.8,58h131.2c-0.8-26-16.4-48.4-38.8-58.4   C157.6,267.6,133.6,316,133.6,316z"/>
	<path style="fill:#324A5E;" d="M162.8,216c0-2,0.4-4,1.2-6c0-16.4-13.6-29.6-30-29.6l0,0l0,0l0,0c-16.4,0-29.6,13.2-29.6,30   c0.8,1.6,1.2,3.6,1.2,5.6c0,0.4,0,2.8,0,2.8c0,0.8-0.4,2,0,2.8c0,0.8,0.8,2,1.6,2.4c1.2,0.4,2-0.4,2.8-1.2c0.4-0.8,0.8-2,0.8-3.2   c0-0.4,0-2.8,0-3.2c1.2-5.2,3.2-10.4,7.2-14.4l0,0c1.2-1.2,3.6-1.2,4.4,0.4c2,3.6,6.4,6,12,6c6.8,0,12.4-4,12.8-9.2   c1.2,0.8,2.4,1.6,3.2,2.8c4,4,6,9.2,7.2,14.8c0,0,0,2.4,0,2.8c0,1.2,0.4,2,0.8,3.2c0.4,0.8,1.6,1.6,2.8,1.2   c0.8-0.4,1.6-1.2,1.6-2.4c0-0.8,0-2,0-2.8C162.8,218.8,162.8,216.4,162.8,216z"/>
</g>
<polygon style="fill:#F1543F;" points="369.6,284 364.8,276 369.6,267.6 379.2,267.6 384,276 379.2,284 "/>
<path style="fill:#FFFFFF;" d="M406,210.4c-0.4,0-0.4,0-0.8,0l0,0c0-16.4-13.2-30-30-30l0,0l0,0l0,0c-16.4,0-29.6,13.6-29.6,30  c0,0,0,0,0,0.4c-0.4,0-0.8,0-0.8,0c-2.4,0-4.4,5.2-4,10.8c0.4,6,2.8,10.4,5.6,10.4h0.4c4,17.6,17.6,30.8,28.8,30.8  c9.6,0,24.4-13.2,28.4-30.8c0.4,0,0.4,0,0.8,0.4c2.4,0,5.2-4.4,5.6-10.4C410.4,215.6,408.4,210.8,406,210.4z"/>
<polygon style="fill:#FF7058;" points="384.4,316.4 364.4,316.4 369.6,284 379.2,284 "/>
<g>
	<path style="fill:#324A5E;" d="M374.4,316c0,0-24-48.4-26.8-47.2c-22.4,10-38,32.4-38.8,58H440c-0.8-26-16.4-48.4-38.8-58.4   C398.4,267.6,374.4,316,374.4,316z"/>
	<path style="fill:#324A5E;" d="M403.6,216c0-2,0.4-4,1.2-6c0-16.4-13.6-29.6-30-29.6l0,0l0,0l0,0c-16.4,0-29.6,13.2-29.6,30   c0.8,1.6,1.2,3.6,1.2,5.6c0,0.4,0,2.8,0,2.8c0,0.8-0.4,2,0,2.8c0,0.8,0.8,2,1.6,2.4c1.2,0.4,2-0.4,2.8-1.2c0.4-0.8,0.8-2,0.8-3.2   c0-0.4,0-2.8,0-3.2c1.2-5.2,3.2-10.4,7.2-14.4l0,0c1.2-1.2,3.6-1.2,4.4,0.4c2,3.6,6.4,6,12,6c6.8,0,12.4-4,12.8-9.2   c1.2,0.8,2.4,1.6,3.2,2.8c4,4,6,9.2,7.2,14.8c0,0,0,2.4,0,2.8c0,1.2,0.4,2,0.8,3.2c0.4,0.8,1.6,1.6,2.8,1.2   c0.8-0.4,1.6-1.2,1.6-2.4c0-0.8,0-2,0-2.8C404,218.8,403.6,216.4,403.6,216z"/>
</g>
<g>
	<polygon style="fill:#FFFFFF;" points="300.8,221.6 268,188.8 268,206 207.2,206 207.2,236.8 268,236.8 268,254  "/>
	<polygon style="fill:#FFFFFF;" points="207.2,286.4 240,319.2 240,302 300.8,302 300.8,271.2 240,271.2 240,254  "/>
</g>
<g>
</g>
<g>
</g>
<g>
</g>
<g>
</g>
<g>
</g>
<g>
</g>
<g>
</g>
<g>
</g>
<g>
</g>
<g>
</g>
<g>
</g>
<g>
</g>
<g>
</g>
<g>
</g>
<g>
</g>
</svg>
