<?xml version="1.0" encoding="iso-8859-1"?>
<!-- Generator: Adobe Illustrator 19.0.0, SVG Export Plug-In . SVG Version: 6.00 Build 0)  -->
<svg xmlns="http://www.w3.org/2000/svg" xmlns:xlink="http://www.w3.org/1999/xlink" version="1.1" id="Layer_1" x="0px" y="0px" viewBox="0 0 508 508" style="enable-background:new 0 0 508 508;" xml:space="preserve">
<circle style="fill:#324A5E;" cx="254" cy="254" r="254"/>
<path style="fill:#E6E9EE;" d="M292.8,133.2H114c-4,0-6.8,3.2-6.8,6.8v248.8c0,4,3.2,6.8,6.8,6.8h178.8c4,0,6.8-3.2,6.8-6.8V140  C299.6,136,296.8,133.2,292.8,133.2z"/>
<rect x="121.6" y="170" style="fill:#54C0EB;" width="163.2" height="189.2"/>
<g>
	<rect x="177.2" y="146.4" style="fill:#CED5E0;" width="52.4" height="10"/>
	<circle style="fill:#CED5E0;" cx="203.2" cy="377.6" r="8.8"/>
</g>
<path style="fill:#FFFFFF;" d="M256,319.6V296c0-7.2-5.2-13.6-12-15.2c-0.8,0-1.6-0.4-2-0.4l-24.4-9.2c-1.2-1.2-2-3.2-2-5.2v-0.8  c3.6-3.6,6.4-8.4,8-13.6c0.4,0,0.4,0.4,0.8,0.4c2,0.4,4.4-2.4,4.8-6c0.8-3.6-0.4-7.2-2.4-7.6c-0.4,0-0.8,0-1.2,0c0-0.4,0-1.2,0-1.6  c0-0.4,0-0.4,0-0.8l0,0c0.4-2.4,0.4-4.8,0-7.6c-0.4-3.6-1.6-7.2-3.2-10.4c-0.4-0.8-0.8-2-1.2-2.8c-1.2-2-3.6-3.6-6.4-4  c-0.8,0-2,0-2.8,0.8l-0.4,0.4c-0.4-0.8-1.2-1.2-2-1.6c-0.8-0.4-2-0.8-3.2-0.8c-5.6-0.4-10,0.8-15.6,1.6c-2.8,0.4-6.4,2.8-8,6.8  c-1.6,3.6-2.4,6.4-3.2,10.4c-0.4,2,0,5.6,0.4,9.2c0,0.4,0,0.4,0,0.8c-0.4,0-0.8,0-1.2,0c-2,0.4-3.2,3.6-2.4,7.6  c0.8,3.6,2.8,6.4,4.8,6c0.4,0,0.4-0.4,0.8-0.4c2,5.6,4.8,10.8,8.4,14.4V266c0,1.6-0.4,3.2-1.6,4.4c0,0-20,7.6-24.8,9.6  c-0.8,0.4-1.6,0.4-2.4,0.8c-6.8,1.6-12,8-12,15.2v23.2H256V319.6z"/>
<path style="fill:#FF7058;" d="M396,112H248.4c-2.8,0-4.8,2-4.8,4.8V222c0,2.8,2,4.8,4.8,4.8h16.4L254,266.4l49.6-39.6h92.8  c2.8,0,4.8-2,4.8-4.8V116.8C400.8,114.4,398.8,112,396,112z"/>
<g>
	<circle style="fill:#E6E9EE;" cx="282.8" cy="169.6" r="12.4"/>
	<circle style="fill:#E6E9EE;" cx="322.4" cy="169.6" r="12.4"/>
	<circle style="fill:#E6E9EE;" cx="362" cy="169.6" r="12.4"/>
</g>
<g>
</g>
<g>
</g>
<g>
</g>
<g>
</g>
<g>
</g>
<g>
</g>
<g>
</g>
<g>
</g>
<g>
</g>
<g>
</g>
<g>
</g>
<g>
</g>
<g>
</g>
<g>
</g>
<g>
</g>
</svg>
