<?xml version="1.0" encoding="iso-8859-1"?>
<!-- Generator: Adobe Illustrator 19.0.0, SVG Export Plug-In . SVG Version: 6.00 Build 0)  -->
<svg xmlns="http://www.w3.org/2000/svg" xmlns:xlink="http://www.w3.org/1999/xlink" version="1.1" id="Layer_1" x="0px" y="0px" viewBox="0 0 508 508" style="enable-background:new 0 0 508 508;" xml:space="preserve">
<circle style="fill:#90DFAA;" cx="254" cy="254" r="254"/>
<path style="fill:#FFFFFF;" d="M297.2,226l-42.8-12c-4-0.8-11.2-1.6-14-4c-32.4,38.4-57.2,14.4-68.4-2c-2.8,4-9.6,4.4-14.4,5.6  l-44,13.2c-17.6,2.8-30.8,18-30.8,36v81.6h244.4V262C327.6,244.4,314.8,229.2,297.2,226z"/>
<polygon style="fill:#E6E9EE;" points="180.4,227.2 205.2,323.6 229.2,227.2 "/>
<polygon style="fill:#2B3B4E;" points="198.8,248 192.8,237.6 198.8,227.2 210.8,227.2 216.8,237.6 210.8,248 "/>
<g>
	<polygon style="fill:#324A5E;" points="174.4,203.2 187.2,252.4 205.2,227.2  "/>
	<polygon style="fill:#324A5E;" points="204.8,227.2 223.2,252.4 235.6,203.2  "/>
	<polygon style="fill:#324A5E;" points="218.8,298 205.2,323.6 190.8,298 198.8,248 210.8,248  "/>
</g>
<g>
	<polygon style="fill:#E6E9EE;" points="270.4,218.4 235.6,203.2 205.2,323.6 258,254.4 245.6,245.6  "/>
	<polygon style="fill:#E6E9EE;" points="139.6,218.4 174.4,203.2 205.2,323.6 152,254.4 164.4,245.6  "/>
</g>
<g>
	<ellipse style="fill:#FFFFFF;" cx="206.8" cy="127.6" rx="52" ry="67.6"/>
	
		<ellipse transform="matrix(0.0647 -0.9979 0.9979 0.0647 109.1314 382.8414)" style="fill:#FFFFFF;" cx="258.807" cy="133.2" rx="14.8" ry="8.8"/>
	
		<ellipse transform="matrix(0.0647 0.9979 -0.9979 0.0647 277.9089 -29.7325)" style="fill:#FFFFFF;" cx="154.816" cy="133.395" rx="14.8" ry="8.8"/>
</g>
<g>
	<path style="fill:#324A5E;" d="M189.6,108.4c-2-0.8-3.6-2-5.6-2.8c-8-3.2-18,1.6-21.2,10.4c-2,5.2-2.4,12.4-6.8,14.8   c-1.2-5.6-1.2-11.2-1.2-16.8c0-8,0-16,1.2-24s4-15.6,8.8-22s12-10.4,19.2-12.8c7.2-2.4,14.8-2.8,22.4-3.2c4,0,8.8,0,12,2.8   c2,1.6,3.6,4,4.4,6.8c0.8,2.4,3.2-3.6,4-4.4c4-3.2,13.2,0,17.6,2.8c5.2,3.6,8.4,9.6,10.8,15.6c2.8,6.4,2,16.8,2.8,23.6   c0.4,4.4,0,7.2,0.4,17.2c0,3.6-1.6,14.8-3.2,18c-1.2,2-6-9.6-7.2-12c-3.6-7.6-7.2-14.8-9.2-22.8c-2.4-9.2-15.2-13.2-23.2-2.8   C211.6,101.6,206.8,113.6,189.6,108.4z"/>
	<path style="fill:#324A5E;" d="M294,224c-28.8,12-42.4,45.6-30.4,74.4c10.4,24.4,36,38.4,61.6,34l10,23.6l24-10l-10-23.6   c21.2-15.2,29.2-43.6,18.8-68C356.4,225.6,322.8,212,294,224z M349.6,262.4c7.6,18.4-0.8,40-19.6,47.6c-18.4,7.6-40-0.8-47.6-19.6   c-7.6-18.4,0.8-40,19.6-47.6C320.4,235.2,341.6,244,349.6,262.4z"/>
</g>
<path style="fill:#FF7058;" d="M356.4,332.8l-28.8,12c-2.8,1.2-4,4.4-2.8,7.2l28.8,68.8c1.2,2.8,4.4,4,7.2,2.8l28.8-12  c2.8-1.2,4-4.4,2.8-7.2l-28.8-68.8C362.8,332.8,359.6,331.6,356.4,332.8z"/>
<g>
</g>
<g>
</g>
<g>
</g>
<g>
</g>
<g>
</g>
<g>
</g>
<g>
</g>
<g>
</g>
<g>
</g>
<g>
</g>
<g>
</g>
<g>
</g>
<g>
</g>
<g>
</g>
<g>
</g>
</svg>
