<?xml version="1.0" encoding="iso-8859-1"?>
<!-- Generator: Adobe Illustrator 19.0.0, SVG Export Plug-In . SVG Version: 6.00 Build 0)  -->
<svg xmlns="http://www.w3.org/2000/svg" xmlns:xlink="http://www.w3.org/1999/xlink" version="1.1" id="Layer_1" x="0px" y="0px" viewBox="0 0 508 508" style="enable-background:new 0 0 508 508;" xml:space="preserve">
<circle style="fill:#84DBFF;" cx="254" cy="254" r="254"/>
<path style="fill:#FFFFFF;" d="M392,161.6h-92.8v-29.2c0-3.6-2.8-6.8-6.8-6.8h-76.8c-3.6,0-6.8,2.8-6.8,6.8v29.2H116  c-5.6,0-10.4,4.8-10.4,10.4v210.8c0,5.6,4.8,10.4,10.4,10.4h276.4c5.6,0,10.4-4.8,10.4-10.4V172C402.4,166.4,398,161.6,392,161.6z"/>
<rect x="130.8" y="186.8" style="fill:#E6E9EE;" width="246.8" height="181.2"/>
<rect x="224" y="139.2" style="fill:#84DBFF;" width="60.4" height="12.8"/>
<g>
	<rect x="228.8" y="67.2" style="fill:#324A5E;" width="50" height="78"/>
	<circle style="fill:#324A5E;" cx="195.2" cy="251.2" r="22.4"/>
	<path style="fill:#324A5E;" d="M236.8,326v-24c0-11.2-8.8-20-20-20h-43.2c-11.2,0-20,8.8-20,20v24H236.8z"/>
</g>
<g>
	<rect x="261.6" y="216" style="fill:#CED5E0;" width="100.4" height="15.6"/>
	<rect x="261.6" y="251.6" style="fill:#CED5E0;" width="100.4" height="15.6"/>
	<rect x="261.6" y="287.2" style="fill:#CED5E0;" width="100.4" height="15.6"/>
</g>
<rect x="261.6" y="323.2" style="fill:#E6E9EE;" width="49.6" height="15.6"/>
<circle style="fill:#FFD05B;" cx="254" cy="90" r="10.4"/>
<g>
</g>
<g>
</g>
<g>
</g>
<g>
</g>
<g>
</g>
<g>
</g>
<g>
</g>
<g>
</g>
<g>
</g>
<g>
</g>
<g>
</g>
<g>
</g>
<g>
</g>
<g>
</g>
<g>
</g>
</svg>
