<?xml version="1.0" encoding="iso-8859-1"?>
<!-- Generator: Adobe Illustrator 19.0.0, SVG Export Plug-In . SVG Version: 6.00 Build 0)  -->
<svg xmlns="http://www.w3.org/2000/svg" xmlns:xlink="http://www.w3.org/1999/xlink" version="1.1" id="Layer_1" x="0px" y="0px" viewBox="0 0 508 508" style="enable-background:new 0 0 508 508;" xml:space="preserve">
<circle style="fill:#90DFAA;" cx="254" cy="254" r="254"/>
<path style="fill:#FFFFFF;" d="M377.2,258.8c-1.2,0-2.4,0-3.6,0.4c-8-78.4-58.8-139.2-120.8-139.2S140,180.8,132,259.2  c-1.2-0.4-2.4-0.4-3.6-0.4c-11.2,0.8-19.6,16.8-18.4,36s11.6,34,22.8,33.2c1.2,0,2.4-0.4,3.2-0.8c15.2,65.6,61.6,113.2,116.4,113.2  s101.2-47.6,116.4-113.2c1.2,0.4,2,0.8,3.2,0.8c11.2,0.8,21.6-14,22.8-33.2C396.8,275.6,388.8,259.6,377.2,258.8z"/>
<path style="fill:#324A5E;" d="M434.8,272H412c0-84-69.2-181.6-158.8-181.6S94.4,188,94.4,272H71.6c0-96.4,77.6-204.4,181.6-204.4  C357.2,67.2,434.8,175.2,434.8,272z"/>
<path style="fill:#FF7058;" d="M432.4,259.6h-25.2V326h25.2c5.2,0,9.2-4,9.2-9.2v-48C441.6,263.6,437.6,259.6,432.4,259.6z"/>
<path style="fill:#324A5E;" d="M394.8,243.2c-8,0-14.4,6.4-14.4,14.4V328c0,8,6.4,14.4,14.4,14.4s14.4-6.4,14.4-14.4v-70.4  C409.2,249.6,402.8,243.2,394.8,243.2z"/>
<path style="fill:#FF7058;" d="M75.6,259.6h25.2V326H75.6c-5.2,0-9.2-4-9.2-9.2v-48C66.4,263.6,70.4,259.6,75.6,259.6z"/>
<g>
	<path style="fill:#324A5E;" d="M113.2,243.2c8,0,14.4,6.4,14.4,14.4V328c0,8-6.4,14.4-14.4,14.4S98.8,336,98.8,328v-70.4   C98.8,249.6,105.2,243.2,113.2,243.2z"/>
	<path style="fill:#324A5E;" d="M272.4,384.8c-4.4,0-8.4,0-12.8-0.4l0.8-16.8c96.8,5.6,127.6-58.4,127.6-58.8l15.2,7.2   C402,318.4,370,384.8,272.4,384.8z"/>
</g>
<path style="fill:#FF7058;" d="M285.2,357.2h-44.4c-2.4,0-4.4,2-4.4,4.4v27.6c0,2.4,2,4.4,4.4,4.4h44.4c2.4,0,4.4-2,4.4-4.4v-27.6  C289.6,358.8,287.6,357.2,285.2,357.2z"/>
<g>
</g>
<g>
</g>
<g>
</g>
<g>
</g>
<g>
</g>
<g>
</g>
<g>
</g>
<g>
</g>
<g>
</g>
<g>
</g>
<g>
</g>
<g>
</g>
<g>
</g>
<g>
</g>
<g>
</g>
</svg>
