<?xml version="1.0" encoding="iso-8859-1"?>
<!-- Generator: Adobe Illustrator 19.0.0, SVG Export Plug-In . SVG Version: 6.00 Build 0)  -->
<svg xmlns="http://www.w3.org/2000/svg" xmlns:xlink="http://www.w3.org/1999/xlink" version="1.1" id="Layer_1" x="0px" y="0px" viewBox="0 0 508 508" style="enable-background:new 0 0 508 508;" xml:space="preserve">
<circle style="fill:#FFD05B;" cx="254" cy="254" r="254"/>
<g>
	<circle style="fill:#324A5E;" cx="147.6" cy="113.2" r="20.8"/>
	<path style="fill:#324A5E;" d="M165.2,140H130c-5.6,0-10,4.4-10,10v68h16v52.8h22.8V218h16v-68C175.2,144.8,170.8,140,165.2,140z"/>
</g>
<rect x="75.6" y="283.6" style="fill:#FFFFFF;" width="352" height="29.6"/>
<path style="fill:#FF7058;" d="M285.2,296.4c-2-16.8-16.4-29.6-33.6-29.6l0,0c-16.8,0-31.2,12.8-33.6,29.6l-14.4,110.4h95.6  L285.2,296.4z"/>
<g>
	<circle style="fill:#324A5E;" cx="251.6" cy="298.4" r="11.6"/>
	<rect x="194.4" y="406.4" style="fill:#324A5E;" width="114.8" height="17.2"/>
	<path style="fill:#324A5E;" d="M352.4,101.6c-44,0-80,36-80,80s36,80,80,80s80-36,80-80S396.4,101.6,352.4,101.6z M392.4,176.8   c-0.4-6.8-0.8-13.6-2-20c16.4,4.8,27.2,12.4,30.8,20H392.4z M382.4,176.8h-25.2v-25.2c8,0.4,15.6,1.2,22.8,2.4   C381.2,161.2,382,168.8,382.4,176.8z M357.2,141.6v-28.8c7.6,3.6,15.2,14.4,20,30.8C371.2,142.4,364.4,142,357.2,141.6z    M347.2,112.8v28.8c-6.8,0.4-13.6,0.8-20,2C332,127.2,339.6,116.4,347.2,112.8z M347.2,151.6v25.2H322c0.4-8,1.2-15.6,2.4-22.8   C331.6,152.8,339.2,152,347.2,151.6z M312.4,176.8h-28.8c3.6-7.6,14.4-15.2,30.8-20C313.2,163.2,312.4,169.6,312.4,176.8z    M312.4,186.8c0.4,6.8,0.8,13.6,2,20c-16.4-4.8-27.2-12.4-30.8-20H312.4z M322.4,186.8h25.2V212c-8-0.4-15.6-1.2-22.8-2.4   C323.6,202.4,322.4,194.8,322.4,186.8z M347.2,221.6v28.8c-7.6-3.6-15.2-14.4-20-30.8C333.6,220.8,340.4,221.6,347.2,221.6z    M357.2,250.4v-28.8c6.8-0.4,13.6-0.8,20-2C372.4,236,365.2,247.2,357.2,250.4z M357.2,211.6v-25.2h25.2c-0.4,8-1.2,15.6-2.4,22.8   C373.2,210.8,365.6,211.6,357.2,211.6z M392.4,186.8h28.8c-3.6,7.6-14.4,15.2-30.8,20C391.6,200.4,392,193.6,392.4,186.8z    M418.4,158.8c-7.6-5.6-18-10-30.4-13.2c-3.2-12.4-7.6-22.8-13.2-30.4C395.6,122.4,411.6,138.4,418.4,158.8z M329.6,115.6   c-5.6,7.6-10,18-13.2,30.4c-12.4,3.2-22.8,7.6-30.4,13.2C293.2,138.4,309.2,122.4,329.6,115.6z M286,204.4c7.6,5.6,18,10,30.4,13.2   c3.2,12.4,7.6,22.8,13.2,30.4C309.2,240.8,293.2,224.8,286,204.4z M375.2,248c5.6-7.6,10-18,13.2-30.4c12.4-3.2,22.8-7.6,30.4-13.2   C411.6,224.8,395.6,240.8,375.2,248z"/>
</g>
<g>
</g>
<g>
</g>
<g>
</g>
<g>
</g>
<g>
</g>
<g>
</g>
<g>
</g>
<g>
</g>
<g>
</g>
<g>
</g>
<g>
</g>
<g>
</g>
<g>
</g>
<g>
</g>
<g>
</g>
</svg>
