<?xml version="1.0" encoding="iso-8859-1"?>
<!-- Generator: Adobe Illustrator 19.0.0, SVG Export Plug-In . SVG Version: 6.00 Build 0)  -->
<svg xmlns="http://www.w3.org/2000/svg" xmlns:xlink="http://www.w3.org/1999/xlink" version="1.1" id="Layer_1" x="0px" y="0px" viewBox="0 0 508 508" style="enable-background:new 0 0 508 508;" xml:space="preserve">
<circle style="fill:#324A5E;" cx="254" cy="254" r="254"/>
<path style="fill:#4CDBC4;" d="M294.4,364.8c22,0,37.6-22,30.4-42.8c-18-52-67.6-89.2-125.6-89.2c-58.4,0-107.6,37.2-126,89.2  c-7.2,20.8,8,42.8,30.4,42.8H294.4z"/>
<g>
	
		<ellipse transform="matrix(0.0688 -0.9976 0.9976 0.0688 88.7168 395.0674)" style="fill:#FFFFFF;" cx="255.991" cy="150.009" rx="19.999" ry="8.8"/>
	
		<ellipse transform="matrix(0.0688 0.9976 -0.9976 0.0688 281.89 -2.2017)" style="fill:#FFFFFF;" cx="142.124" cy="149.904" rx="19.999" ry="8.8"/>
</g>
<g>
	<path style="fill:#E6E9EE;" d="M233.6,237.2c-3.6-3.2-5.6-8-5.6-13.2v-30h-57.2v30.4c0,4-1.2,9.2-3.6,12c6.4,9.2,17.2,23.6,31.6,24   C208.8,260.8,220.8,252.4,233.6,237.2z"/>
	<polygon style="fill:#E6E9EE;" points="192.4,282.4 186.4,271.6 192.4,260.4 205.2,260.4 211.6,271.6 205.2,282.4  "/>
	<polygon style="fill:#E6E9EE;" points="213.6,334.4 199.6,360.8 184.4,334.4 192.4,282.4 205.2,282.4  "/>
</g>
<path style="fill:#FFFFFF;" d="M255.6,130c0-31.2-25.2-56.4-56.4-56.4l0,0l0,0c0,0,0,0-0.4,0c-31.2,0-56,25.2-56,56.4  c0,0.8,0,14.4,0,20.8c0,42.8,32,77.2,56.4,77.2c21.6,0,56.4-34.8,56.4-77.2C255.2,144.8,255.6,130.8,255.6,130z"/>
<path style="fill:#CED5E0;" d="M146.4,155.6c-2-14.8-2.8-29.6-3.2-44.4c0-5.2,0-10.4,1.2-15.2c3.2-11.6,13.2-20,24.4-24.4  s23.2-2,35.2-2.4c8-0.4,16.4-0.4,24,1.2c8,2,15.6,6,19.6,13.2c3.2,5.2,4,8.4,4.8,14c0.8,6.4,2,12.4,2.4,18.8  c1.2,15.2,0,30.4-3.6,45.2c0,0.8-0.4,1.6-0.8,2c-1.2,1.6-4,0.8-4.8-0.8c-1.2-1.6-0.8-3.6-0.8-5.6c0.4-9.6,0-19.6-1.2-29.2  c-0.8-6.8-2-14-6.8-19.2c-6.8-7.6-18-2-30.4,3.2c-3.2,1.2-11.2,1.2-14.8,0c-4-1.6-16.8-10.8-20.8-9.2c-9.6,3.6-14.4,14.8-15.6,25.2  c-1.2,10.4,0.4,20.8-1.2,31.2c0,0.8-0.4,1.6-0.8,2.4c-1.2,1.2-3.6,0.8-4.4-0.4C146.8,159.2,146.4,157.6,146.4,155.6z"/>
<g>
	<polygon style="fill:#FF7058;" points="167.2,236.4 180.8,287.2 200.4,260.4  "/>
	<polygon style="fill:#FF7058;" points="200,260.4 219.6,287.2 233.6,237.2  "/>
</g>
<polygon style="fill:#F9B54C;" points="398.8,391.6 371.2,366 343.6,391.6 343.6,271.2 398.8,271.2 "/>
<polygon style="fill:#FFD05B;" points="419.2,267.2 428.4,257.6 419.2,248.4 424,235.6 411.6,230.8 411.6,217.2 398.4,217.2   393.2,204.8 380.8,210 371.2,200.4 361.6,210 349.2,204.8 344,217.2 330.4,217.2 330.4,230.8 318,235.6 323.2,248.4 313.6,257.6   323.2,267.2 318,279.6 330.4,284.8 330.4,298.4 344,298.4 349.2,310.8 361.6,305.6 371.2,315.2 380.8,305.6 393.2,310.8   398.4,298.4 411.6,298.4 411.6,284.8 424,279.6 "/>
<polygon style="fill:#FFFFFF;" points="371.2,223.2 381.6,244 404.8,247.6 388,264 392,287.2 371.2,276 350.4,287.2 354.4,264   337.6,247.6 360.8,244 "/>
<g>
</g>
<g>
</g>
<g>
</g>
<g>
</g>
<g>
</g>
<g>
</g>
<g>
</g>
<g>
</g>
<g>
</g>
<g>
</g>
<g>
</g>
<g>
</g>
<g>
</g>
<g>
</g>
<g>
</g>
</svg>
