<?xml version="1.0" encoding="iso-8859-1"?>
<!-- Generator: Adobe Illustrator 19.0.0, SVG Export Plug-In . SVG Version: 6.00 Build 0)  -->
<svg xmlns="http://www.w3.org/2000/svg" xmlns:xlink="http://www.w3.org/1999/xlink" version="1.1" id="Layer_1" x="0px" y="0px" viewBox="0 0 508 508" style="enable-background:new 0 0 508 508;" xml:space="preserve">
<circle style="fill:#84DBFF;" cx="254" cy="254" r="254"/>
<g>
	<path style="fill:#324A5E;" d="M442.4,322.8v-35.2c0-10.8-7.6-20.4-18-22.8c-1.2-0.4-2-0.4-3.2-0.8l-36.8-13.6c-2-2-3.2-4.8-3.2-8   v-1.2c5.6-5.2,9.6-12.8,12-20.4c0.4,0.4,0.8,0.4,1.2,0.8c3.2,0.4,6.4-3.6,7.6-9.2c1.2-5.6-0.4-10.8-3.6-11.2c-0.4,0-1.2,0-1.6,0   c0-0.8,0-1.6,0-2.4c0-0.4,0-0.8,0-1.2l0,0c0.4-3.6,0.4-7.6,0-11.2c-0.8-5.6-2.4-10.4-4.4-15.6c-0.4-1.6-1.2-2.8-2-4.4   c-2-3.2-5.6-5.6-9.6-6c-1.6,0-3.2,0-4,1.2c0,0.4-0.4,0.4-0.4,0.8c-0.8-1.2-1.6-2-2.8-2.4c-1.6-0.8-3.2-1.2-4.8-1.2   c-8.4-0.8-14.8,0.8-23.2,2c-4,0.4-9.6,4-12,10c-2.4,5.2-4,9.6-4.8,15.6c-0.4,2.8-0.4,8.8,0.4,13.6c0,0.4,0,0.8,0,1.2   c-0.4,0-1.2-0.4-1.6,0c-3.2,0.4-4.8,5.6-3.6,11.2c1.2,5.6,4.4,10,7.6,9.2c0.4,0,0.8-0.4,1.2-0.4c2.8,8.4,6.8,16,12.8,21.2v0.4   c0,2.4-0.8,4.8-2.4,6.8c0,0.4-29.6,11.6-37.2,14.4c-1.2,0.4-2.4,0.8-3.6,1.2c-10.4,2.4-18,12-18,22.8v35.2h158V322.8z"/>
	<path style="fill:#324A5E;" d="M230,322.8v-35.2c0-10.8-7.6-20.4-18-22.8c-1.2-0.4-2-0.4-3.2-0.8L172,250.4c-2-2-3.2-4.8-3.2-8   v-1.2c5.6-5.2,9.6-12.8,12-20.4c0.4,0.4,0.8,0.4,1.2,0.8c3.2,0.4,6.4-3.6,7.6-9.2c1.2-5.6-0.4-10.8-3.6-11.2c-0.4,0-1.2,0-1.6,0   c0-0.8,0-1.6,0-2.4c0-0.4,0-0.8,0-1.2l0,0c0.4-3.6,0.4-7.6,0-11.2c-0.8-5.6-2.4-10.4-4.4-15.6c-0.4-1.6-1.2-2.8-2-4.4   c-2-3.2-5.6-5.6-9.6-6c-1.6,0-3.2,0-4,1.2c0,0.4-0.4,0.4-0.4,0.8c-0.8-1.2-1.6-2-2.8-2.4c-1.6-0.8-3.2-1.2-4.8-1.2   c-8.4-0.8-14.8,0.8-23.2,2c-4,0.4-9.6,4-12,10c-2.4,5.2-4,9.6-4.8,15.6c-0.4,2.8-0.4,8.8,0.4,13.6c0,0.4,0,0.8,0,1.2   c-0.4,0-1.2-0.4-1.6,0c-3.2,0.4-4.8,5.6-3.6,11.2c1.2,5.6,4.4,10,7.6,9.2c0.4,0,0.8-0.4,1.2-0.4c2.8,8.4,6.8,16,12.8,21.2v0.4   c0,2.4-0.8,4.8-2.4,6.8c0,0.4-29.6,11.6-37.2,14.4c-1.2,0.4-2.4,0.8-3.6,1.2c-10.4,2.4-18,12-18,22.8v35.2h158V322.8z"/>
</g>
<path style="fill:#FFFFFF;" d="M351.6,352.4v-42c0-13.2-8.8-24.4-21.6-27.2c-1.2-0.4-2.4-0.8-3.6-1.2l-44-16c-2.4-2.4-4-5.6-4-9.2  v-1.2c6.4-6.4,11.2-15.2,14.4-24.4c0.4,0.4,0.8,0.8,1.6,0.8c3.6,0.8,7.6-4.4,8.8-11.2c1.2-6.8-0.4-12.8-4.4-13.6c-0.8,0-1.2,0-2,0  c0-0.8,0-2,0-2.8c0-0.4,0-1.2,0-1.6l0,0c0.4-4.4,0.4-8.8,0-13.2c-0.8-6.4-3.2-12.8-5.6-18.8c-0.8-1.6-1.2-3.6-2.4-5.2  c-2.4-4-6.8-6.8-11.2-7.2c-1.6,0-3.6,0-4.8,1.2c-0.4,0.4-0.4,0.4-0.4,0.8c-0.8-1.2-2-2.4-3.2-3.2c-1.6-0.8-4-1.2-6-1.6  c-10-1.2-17.6,1.2-27.6,2.4c-4.8,0.8-11.6,4.8-14.4,12c-2.8,6.4-4.8,11.6-6,18.4c-0.8,3.6-0.4,10.4,0.8,16.4c0,0.4,0,1.2,0,1.6  c-0.8,0-1.2-0.4-2,0c-3.6,0.8-5.6,6.8-4.4,13.6c1.2,6.8,5.2,11.6,8.8,11.2c0.4,0,1.2-0.4,1.6-0.8c3.2,10,8.4,19.2,15.2,25.6v0.8  c0,2.8-1.2,5.6-2.8,8c0,0.4-35.6,13.6-44.4,17.2c-1.6,0.4-2.8,0.8-4.4,1.2c-12.4,3.2-21.2,14.4-21.2,27.2v42L351.6,352.4  L351.6,352.4z"/>
<g>
</g>
<g>
</g>
<g>
</g>
<g>
</g>
<g>
</g>
<g>
</g>
<g>
</g>
<g>
</g>
<g>
</g>
<g>
</g>
<g>
</g>
<g>
</g>
<g>
</g>
<g>
</g>
<g>
</g>
</svg>
