<?xml version="1.0" encoding="iso-8859-1"?>
<!-- Generator: Adobe Illustrator 19.0.0, SVG Export Plug-In . SVG Version: 6.00 Build 0)  -->
<svg xmlns="http://www.w3.org/2000/svg" xmlns:xlink="http://www.w3.org/1999/xlink" version="1.1" id="Layer_1" x="0px" y="0px" viewBox="0 0 508 508" style="enable-background:new 0 0 508 508;" xml:space="preserve">
<circle style="fill:#324A5E;" cx="254" cy="254" r="254"/>
<path style="fill:#4CDBC4;" d="M366.4,107.6H156c-6.4,0-11.6,5.2-11.6,11.6v269.6c0,6.4,5.2,11.6,11.6,11.6h210  c6.4,0,11.6-5.2,11.6-11.6V119.2C378,112.8,372.8,107.6,366.4,107.6z"/>
<g>
	<circle style="fill:#FF7058;" cx="261.2" cy="222" r="22.8"/>
	<path style="fill:#FF7058;" d="M313.2,308.8c-1.2-28-24-50-52-50s-50.8,22.4-52,50H313.2z"/>
</g>
<g>
	<circle style="fill:#324A5E;" cx="170.4" cy="164.8" r="14"/>
	<circle style="fill:#324A5E;" cx="170.4" cy="254" r="14"/>
	<circle style="fill:#324A5E;" cx="170.4" cy="343.2" r="14"/>
</g>
<g>
	<path style="fill:#FFFFFF;" d="M168.8,155.2h-45.2c-5.2,0-9.2,4-9.2,9.2s4,9.2,9.2,9.2h45.2c5.2,0,9.2-4,9.2-9.2   C178.4,159.6,174,155.2,168.8,155.2z"/>
	<path style="fill:#FFFFFF;" d="M168.8,244.8h-45.2c-5.2,0-9.2,4-9.2,9.2c0,5.2,4,9.2,9.2,9.2h45.2c5.2,0,9.2-4,9.2-9.2   C178.4,248.8,174,244.8,168.8,244.8z"/>
	<path style="fill:#FFFFFF;" d="M168.8,334h-45.2c-5.2,0-9.2,4-9.2,9.2s4,9.2,9.2,9.2h45.2c5.2,0,9.2-4,9.2-9.2S174,334,168.8,334z"/>
</g>
<g>
</g>
<g>
</g>
<g>
</g>
<g>
</g>
<g>
</g>
<g>
</g>
<g>
</g>
<g>
</g>
<g>
</g>
<g>
</g>
<g>
</g>
<g>
</g>
<g>
</g>
<g>
</g>
<g>
</g>
</svg>
