<?xml version="1.0" encoding="iso-8859-1"?>
<!-- Generator: Adobe Illustrator 19.0.0, SVG Export Plug-In . SVG Version: 6.00 Build 0)  -->
<svg xmlns="http://www.w3.org/2000/svg" xmlns:xlink="http://www.w3.org/1999/xlink" version="1.1" id="Layer_1" x="0px" y="0px" viewBox="0 0 508 508" style="enable-background:new 0 0 508 508;" xml:space="preserve">
<circle style="fill:#90DFAA;" cx="254" cy="254" r="254"/>
<path style="fill:#324A5E;" d="M390.4,126H117.6c-3.6,0-6.8,3.2-6.8,6.8v190.8c0,3.6,3.2,6.8,6.8,6.8H390c3.6,0,6.8-3.2,6.8-6.8  V132.8C397.2,128.8,394,126,390.4,126z"/>
<rect x="134.8" y="149.6" style="fill:#E6E9EE;" width="238.4" height="156.8"/>
<path style="fill:#324A5E;" d="M90.8,348.4v2.4c0,17.2,14,31.2,31.2,31.2h263.2c17.2,0,31.2-14,31.2-31.2v-2.4H90.8z"/>
<rect x="202.4" y="358.8" style="fill:#2B3B4E;" width="102.8" height="12"/>
<polygon style="fill:#F1543F;" points="251.6,214 249.6,210 251.6,206.4 256.4,206.4 258.4,210 256.4,214 "/>
<path style="fill:#FFFFFF;" d="M268.8,179.6C268.4,179.6,268.4,179.6,268.8,179.6C268.4,179.6,268.4,179.6,268.8,179.6  c-0.4-7.6-6.8-14-14.4-14l0,0l0,0l0,0c-7.6,0-14,6.4-14,14l0,0H240c-1.2,0-2,2.4-2,5.2s1.2,4.8,2.4,4.8c0,0,0,0,0.4,0  c2,8.4,8.4,14.4,13.2,14.4c4.4,0,11.2-6,13.2-14.4h0.4c1.2,0,2.4-2,2.4-4.8C270.8,182,270,179.6,268.8,179.6z"/>
<polygon style="fill:#FF7058;" points="258.8,229.2 249.2,229.2 251.6,214 256.4,214 "/>
<g>
	<path style="fill:#324A5E;" d="M254,228.8c0,0-11.2-22.4-12.4-22c-10.4,4.8-17.6,15.2-18,27.2h61.2c-0.4-12-7.6-22.4-18-27.2   C265.2,206.4,254,228.8,254,228.8z"/>
	<path style="fill:#324A5E;" d="M267.6,182.4c0-0.8,0.4-2,0.4-2.8c0-7.6-6.4-13.6-14-13.6l0,0l0,0l0,0c-7.6,0-14,6.4-14,14   c0.4,0.8,0.4,1.6,0.4,2.4v1.2c0,0.4,0,0.8,0,1.2s0.4,0.8,0.8,1.2c0.4,0,1.2,0,1.2-0.4c0.4-0.4,0.4-0.8,0.4-1.6c0,0,0-1.2,0-1.6   c0.4-2.4,1.6-4.8,3.2-6.8l0,0c0.4-0.8,1.6-0.4,2,0.4c0.8,1.6,3.2,2.8,5.6,2.8c3.2,0,5.6-2,6-4.4c0.4,0.4,1.2,0.8,1.6,1.2   c2,2,2.8,4.4,3.2,6.8v1.2c0,0.4,0,1.2,0.4,1.6c0.4,0.4,0.8,0.8,1.2,0.4c0.4,0,0.8-0.8,0.8-1.2s0-0.8,0-1.2   C267.6,183.6,267.6,182.4,267.6,182.4z"/>
</g>
<g>
	<path style="fill:#FF7058;" d="M224.8,270c0,5.2-1.2,8.8-3.6,11.6c-2.4,2.8-5.6,4-10.4,4c-2,0-4-0.4-5.6-1.2v-8   c1.6,1.2,3.2,1.6,4.8,1.6c4,0,6-2.8,6-8.8v-22.8h8.4V270H224.8z"/>
	<path style="fill:#FF7058;" d="M249.2,286c-5.6,0-10-1.6-13.2-5.2c-3.6-3.6-5.2-8-5.2-14s1.6-10.8,5.2-14.4c3.6-3.6,8-5.6,14-5.6   c5.6,0,10,1.6,13.2,5.2s5.2,8.4,5.2,14c0,6-1.6,10.8-5.2,14.4C259.2,284,254.8,286,249.2,286z M249.2,254c-3.2,0-5.2,1.2-7.2,3.2   c-1.6,2.4-2.8,5.2-2.8,8.8c0,3.6,0.8,6.8,2.8,8.8c1.6,2,4,3.2,6.8,3.2s5.2-1.2,7.2-3.2c1.6-2,2.8-5.2,2.8-8.8c0-4-0.8-7.2-2.4-9.2   C254.8,255.2,252.4,254,249.2,254z"/>
	<path style="fill:#FF7058;" d="M274,285.2v-38h14c4.4,0,7.6,0.8,9.6,2.4c2.4,1.6,3.6,3.6,3.6,6.4c0,2-0.8,4-2,5.2   c-1.2,1.6-3.2,2.8-5.2,3.2l0,0c2.8,0.4,4.8,1.2,6.4,2.8c1.6,1.6,2.4,3.6,2.4,6c0,3.6-1.2,6.4-3.6,8.4s-6,3.2-10.4,3.2H274V285.2z    M282.8,253.6v9.2h3.6c1.6,0,3.2-0.4,4-1.2c1.2-0.8,1.6-2,1.6-3.6c0-2.8-2-4-6.4-4h-2.8V253.6z M282.8,268.8v10h4.8   c2,0,3.6-0.4,4.8-1.2c1.2-0.8,1.6-2,1.6-3.6s-0.4-2.8-1.6-3.6c-1.2-0.8-2.8-1.2-4.8-1.2h-4.8V268.8z"/>
</g>
<g>
</g>
<g>
</g>
<g>
</g>
<g>
</g>
<g>
</g>
<g>
</g>
<g>
</g>
<g>
</g>
<g>
</g>
<g>
</g>
<g>
</g>
<g>
</g>
<g>
</g>
<g>
</g>
<g>
</g>
</svg>
