<?xml version="1.0" encoding="iso-8859-1"?>
<!-- Generator: Adobe Illustrator 19.0.0, SVG Export Plug-In . SVG Version: 6.00 Build 0)  -->
<svg xmlns="http://www.w3.org/2000/svg" xmlns:xlink="http://www.w3.org/1999/xlink" version="1.1" id="Layer_1" x="0px" y="0px" viewBox="0 0 508 508" style="enable-background:new 0 0 508 508;" xml:space="preserve">
<circle style="fill:#FFD05B;" cx="254" cy="254" r="254"/>
<path style="fill:#324A5E;" d="M282.4,226.4l-39.6-11.2c-3.6-0.8-10.4-1.6-12.8-4c-30,35.6-52.8,13.2-63.6-2  c-2.8,3.6-8.8,4.4-13.6,5.2l-40.8,12c-16.4,2.8-28.4,16.8-28.4,33.6v75.6h226.8v-76C310.4,243.6,298.4,229.2,282.4,226.4z"/>
<polygon style="fill:#E6E9EE;" points="174,227.6 197.2,316.8 219.2,227.6 "/>
<polygon style="fill:#2B3B4E;" points="190.8,247.2 185.2,237.2 190.8,227.6 202,227.6 208,237.2 202,247.2 "/>
<g>
	<polygon style="fill:#FFFFFF;" points="168.4,205.6 180,251.2 197.2,227.6  "/>
	<polygon style="fill:#FFFFFF;" points="196.4,227.6 213.6,251.2 225.2,205.6  "/>
</g>
<polygon style="fill:#324A5E;" points="209.6,293.2 197.2,316.8 183.6,293.2 190.8,247.2 202.4,247.2 "/>
<g>
	<polygon style="fill:#2B3B4E;" points="257.2,219.6 225.2,205.6 197.2,316.8 246,252.8 234.4,244.8  "/>
	<polygon style="fill:#2B3B4E;" points="136.4,219.6 168.4,205.6 197.2,316.8 147.6,252.8 159.2,244.8  "/>
</g>
<g>
	<ellipse style="fill:#FFFFFF;" cx="198.4" cy="135.6" rx="48" ry="62.8"/>
	
		<ellipse transform="matrix(0.0648 -0.9979 0.9979 0.0648 90.7068 377.6045)" style="fill:#FFFFFF;" cx="246.811" cy="140.409" rx="13.6" ry="8"/>
	
		<ellipse transform="matrix(0.0648 0.9979 -0.9979 0.0648 280.8441 -18.2036)" style="fill:#FFFFFF;" cx="150.134" cy="140.733" rx="13.6" ry="8"/>
</g>
<path style="fill:#324A5E;" d="M182.4,117.6c-2-0.4-3.6-1.6-5.2-2.4c-7.6-2.8-16.8,1.6-19.6,9.6c-2,4.8-2,11.2-6.4,13.6  c-1.2-5.2-1.2-10.8-1.2-16c0-7.6,0-14.8,0.8-22.4c1.2-7.2,3.6-14.8,8-20.4c4.4-6,11.2-9.6,18-11.6s14-2.8,20.8-2.8c4,0,8,0,11.2,2.4  c2,1.6,3.2,4,4,6.4c0.8,2,2.8-3.2,3.6-4c4-3.2,12,0,16.4,2.8c4.8,3.2,8,8.8,10,14.4c2.4,5.6,2,15.6,2.4,22c0.4,4,0,6.8,0.4,16  c0,3.2-1.2,13.6-2.8,16.8c-1.2,2-5.6-9.2-6.8-11.2c-3.2-6.8-6.8-14-8.8-21.2c-2.4-8.8-14-12.4-21.6-2.8  C203.2,111.2,198.4,122.4,182.4,117.6z"/>
<circle style="fill:#FFFFFF;" cx="341.6" cy="336" r="74.8"/>
<circle style="fill:#E6E9EE;" cx="341.6" cy="336" r="57.2"/>
<path style="fill:#324A5E;" d="M344.4,366.4v9.6H338v-9.2c-6,0-11.2-1.2-16.4-4v-12c1.6,1.2,4,2.8,7.6,3.6c3.2,1.2,6.4,2,8.8,2v-16  c-6.8-2.4-11.6-5.2-14-8.4c-2.4-2.8-3.6-6.4-3.6-10.8s1.6-8.4,4.8-11.6c3.2-3.2,7.6-5.2,12.8-5.6v-8h6.4v8c6,0.4,10.8,1.2,13.6,2.8  v11.6c-4-2.4-8.8-4-13.6-4.4v16.4c6.4,2.4,10.8,4.8,13.6,8c2.8,2.8,4,6.4,4,10.8c0,4.8-1.6,8.8-4.8,11.6  C354.8,364,350.4,366,344.4,366.4z M338,328.4v-13.6c-4,0.8-6,2.8-6,6.4C332,324,334,326.4,338,328.4z M344.4,343.2v13.2  c4-0.8,6.4-2.8,6.4-6.4C350.8,347.2,348.8,344.8,344.4,343.2z"/>
<g>
</g>
<g>
</g>
<g>
</g>
<g>
</g>
<g>
</g>
<g>
</g>
<g>
</g>
<g>
</g>
<g>
</g>
<g>
</g>
<g>
</g>
<g>
</g>
<g>
</g>
<g>
</g>
<g>
</g>
</svg>
