<?xml version="1.0" encoding="iso-8859-1"?>
<!-- Generator: Adobe Illustrator 19.0.0, SVG Export Plug-In . SVG Version: 6.00 Build 0)  -->
<svg xmlns="http://www.w3.org/2000/svg" xmlns:xlink="http://www.w3.org/1999/xlink" version="1.1" id="Layer_1" x="0px" y="0px" viewBox="0 0 508 508" style="enable-background:new 0 0 508 508;" xml:space="preserve">
<circle style="fill:#FD8469;" cx="254" cy="254" r="254"/>
<path style="fill:#324A5E;" d="M311.2,158.4l-24.4-8c-2.4-0.4-10.8-5.2-12.4-7.2c-20.4,30.4-33.2,10.8-40.8,0c-2,2.4-8,6-11.2,6.4  l-25.2,8.8c-11.6,2-20.4,12-20.4,24v160h154.4v-160C331.2,170.4,322.8,160.4,311.2,158.4z"/>
<polygon style="fill:#E6E9EE;" points="236,159.2 254,257.2 271.6,159.2 "/>
<polygon style="fill:#2B3B4E;" points="249.6,173.2 245.6,166 249.6,159.2 257.6,159.2 261.6,166 257.6,173.2 "/>
<g>
	<polygon style="fill:#FFFFFF;" points="233.6,143.2 238.4,176 254,159.2  "/>
	<polygon style="fill:#FFFFFF;" points="253.6,159.2 269.2,176.4 274,143.2  "/>
</g>
<polygon style="fill:#324A5E;" points="262.8,236.4 254,257.2 245.2,236 249.6,173.2 257.6,173.2 "/>
<g>
	<polygon style="fill:#2B3B4E;" points="297.2,153.2 274,143.2 254,257.2 288.8,177.2 280.8,171.6  "/>
	<polygon style="fill:#2B3B4E;" points="210.4,153.2 233.6,143.2 254,257.2 218.8,177.2 226.8,171.6  "/>
	<rect x="198" y="342.4" style="fill:#2B3B4E;" width="48.8" height="104.8"/>
	<rect x="261.2" y="342.4" style="fill:#2B3B4E;" width="48.8" height="104.8"/>
</g>
<g>
	<circle style="fill:#FFFFFF;" cx="254" cy="91.6" r="38.8"/>
	<polygon style="fill:#FFFFFF;" points="455.6,242.8 393.2,180.4 393.2,208.8 351.6,208.8 351.6,277.2 393.2,277.2 393.2,305.6  "/>
	<polygon style="fill:#FFFFFF;" points="52.4,242.8 114.8,180.4 114.8,208.8 156.4,208.8 156.4,277.2 114.8,277.2 114.8,305.6  "/>
</g>
<g>
</g>
<g>
</g>
<g>
</g>
<g>
</g>
<g>
</g>
<g>
</g>
<g>
</g>
<g>
</g>
<g>
</g>
<g>
</g>
<g>
</g>
<g>
</g>
<g>
</g>
<g>
</g>
<g>
</g>
</svg>
