<?xml version="1.0" encoding="iso-8859-1"?>
<!-- Generator: Adobe Illustrator 19.0.0, SVG Export Plug-In . SVG Version: 6.00 Build 0)  -->
<svg xmlns="http://www.w3.org/2000/svg" xmlns:xlink="http://www.w3.org/1999/xlink" version="1.1" id="Layer_1" x="0px" y="0px" viewBox="0 0 508 508" style="enable-background:new 0 0 508 508;" xml:space="preserve">
<circle style="fill:#FFD05B;" cx="254" cy="254" r="254"/>
<path style="fill:#FF7058;" d="M80.4,153.6v205.2h140c0,6,15.2,11.2,33.6,11.2s33.6-4.8,33.6-11.2h140V153.6H80.4z"/>
<path style="fill:#E6E9EE;" d="M403.6,348c-49.2-11.6-100.4-11.6-149.6,0c0-69.6,0-139.2,0-208.8c49.2-11.6,100.4-11.6,149.6,0  C403.6,208.4,403.6,278,403.6,348z"/>
<path style="fill:#FFFFFF;" d="M254,348c-49.2-11.6-100.4-11.6-149.6,0c0-69.6,0-139.2,0-208.8c49.2-11.6,100.4-11.6,149.6,0  C254,208.4,254,278,254,348z"/>
<path style="fill:#4CDBC4;" d="M222,257.6c-0.4-6.4-5.2-12-11.6-13.2l-14.8-2.4c-0.4,8.8-7.6,16-16.4,16c-8.8,0-16-7.2-16.4-16  l-14.8,2.4c-6.4,1.2-11.2,6.4-11.6,13.2l-1.6,29.2H224L222,257.6z"/>
<path style="fill:#324A5E;" d="M204.8,204.4c0-0.8,0-4.8,0-5.6c-0.8-13.2-12-23.2-25.2-23.2h-0.4h-0.4c-13.2,0-24,10.4-25.2,23.2  c0,0.8,0,4.8,0,5.6c0,24.8-26.4,25.2,12.8,25.2c3.6,0,25.2,0,29.6,0C229.6,229.6,204.8,228.4,204.8,204.4z"/>
<ellipse style="fill:#E6E9EE;" cx="179.2" cy="211.6" rx="17.6" ry="24.4"/>
<path style="fill:#324A5E;" d="M192,190.4c0,0.4,0,0.4-0.4,0.8c-2,2.8-4.8,4.4-7.6,5.2c0.8-1.2,1.2-2.8,1.2-4  c-2,2.8-5.2,4.8-8.8,5.6c0.8-1.6,0.8-3.6,0.4-5.2c-3.2,4.4-8,8.4-13.2,10.4c-1.6,0.4-2.8,1.2-4.4,0.8c-0.4-6,2.8-12.4,8-16  s11.6-4.8,17.6-3.6c0.8,0,1.6,0.4,2.4,0.8c0.4,0.4,1.2,0.8,1.6,1.2c1.2,1.2,2,2,3.2,3.2C191.6,190,192,190.4,192,190.4z"/>
<polygon style="fill:#F1543F;" points="325.2,254.4 321.6,248 325.2,241.6 332.4,241.6 336,248 332.4,254.4 "/>
<path style="fill:#FFFFFF;" d="M352.8,197.6c-0.4,0-0.4,0-0.8,0l0,0c0-12.8-10.4-22.8-22.8-22.8l0,0l0,0l0,0  c-12.8,0-22.8,10.4-22.8,22.8l0,0c-0.4,0-0.4,0-0.8,0c-2,0-3.2,4-3.2,8.4c0.4,4.4,2,8,4,8h0.4c3.2,13.6,13.6,23.6,22,23.6  c7.2,0,18.8-10,22-23.6h0.4c2,0,4-3.2,4-8C356.4,201.6,354.8,198,352.8,197.6z"/>
<polygon style="fill:#FF7058;" points="336.4,279.2 321.2,279.2 325.2,254.4 332.4,254.4 "/>
<g>
	<path style="fill:#324A5E;" d="M328.8,278.8c0,0-18.4-37.2-20.8-36c-17.2,7.6-29.2,24.8-29.6,44.8h100.8c-0.4-20-12.8-37.2-30-44.8   C347.2,241.6,328.8,278.8,328.8,278.8z"/>
	<path style="fill:#324A5E;" d="M351.2,202c0-1.6,0.4-3.2,0.8-4.4c0-12.4-10.4-22.8-22.8-22.8l0,0l0,0l0,0   c-12.8,0-22.8,10.4-22.8,22.8c0.4,1.2,0.8,2.8,0.8,4c0,0,0,2,0,2.4c0,0.8-0.4,1.6,0,2.4c0,0.8,0.4,1.6,1.2,1.6   c0.8,0.4,1.6-0.4,2-0.8c0.4-0.8,0.4-1.6,0.8-2.4c0-0.4,0-2,0-2.4c0.8-4,2.4-8,5.6-11.2l0,0c0.8-1.2,2.8-0.8,3.6,0.4   c1.6,2.8,5.2,4.8,9.2,4.8c5.2,0,9.6-3.2,10-7.2c0.8,0.8,2,1.2,2.4,2c2.8,3.2,4.8,7.2,5.6,11.2v2c0,0.8,0.4,1.6,0.8,2.4   s1.2,1.2,2,0.8s1.2-0.8,1.2-1.6s0-1.6,0-2.4C351.2,204,351.2,202,351.2,202z"/>
</g>
<g>
</g>
<g>
</g>
<g>
</g>
<g>
</g>
<g>
</g>
<g>
</g>
<g>
</g>
<g>
</g>
<g>
</g>
<g>
</g>
<g>
</g>
<g>
</g>
<g>
</g>
<g>
</g>
<g>
</g>
</svg>
