<?xml version="1.0" encoding="iso-8859-1"?>
<!-- Generator: Adobe Illustrator 19.0.0, SVG Export Plug-In . SVG Version: 6.00 Build 0)  -->
<svg xmlns="http://www.w3.org/2000/svg" xmlns:xlink="http://www.w3.org/1999/xlink" version="1.1" id="Layer_1" x="0px" y="0px" viewBox="0 0 508 508" style="enable-background:new 0 0 508 508;" xml:space="preserve">
<circle style="fill:#324A5E;" cx="254" cy="254" r="254"/>
<g>
	<path style="fill:#FFFFFF;" d="M180.8,217.6v-22c0-6.8-4.8-12.8-11.2-14.4c-0.8,0-1.2-0.4-2-0.4l-23.2-8.4c-1.2-1.2-2-3.2-2-4.8   V166c3.6-3.2,6-8,7.6-12.8c0.4,0,0.4,0.4,0.8,0.4c2,0.4,4-2.4,4.8-6s-0.4-6.8-2.4-7.2c-0.4,0-0.8,0-0.8,0c0-0.4,0-1.2,0-1.6   c0-0.4,0-0.4,0-0.8l0,0c0-2.4,0.4-4.8,0-7.2c-0.4-3.6-1.6-6.8-2.8-10c-0.4-0.8-0.8-2-1.2-2.8c-1.2-2-3.6-3.6-6-3.6   c-0.8,0-2,0-2.4,0.8c0,0,0,0.4-0.4,0.4c-0.4-0.8-1.2-1.2-1.6-1.6c-0.8-0.4-2-0.8-3.2-0.8c-5.2-0.4-9.2,0.8-14.4,1.2   c-2.4,0.4-6,2.4-7.6,6.4c-1.6,3.2-2.4,6-3.2,9.6c-0.4,2,0,5.6,0.4,8.8c0,0.4,0,0.4,0,0.8c-0.4,0-0.8,0-0.8,0   c-2,0.4-2.8,3.6-2.4,7.2c0.8,3.6,2.8,6,4.8,6c0.4,0,0.4,0,0.8-0.4c1.6,5.2,4.4,10,8,13.6v0.4c0,1.6-0.4,3.2-1.6,4.4   c0,0-18.8,7.2-23.6,9.2c-0.8,0.4-1.6,0.4-2.4,0.8c-6.4,1.6-11.2,7.6-11.2,14.4v22L180.8,217.6L180.8,217.6z"/>
	<path style="fill:#FFFFFF;" d="M303.6,217.6v-22c0-6.8-4.8-12.8-11.2-14.4c-0.8,0-1.2-0.4-2-0.4l-23.2-8.4c-1.2-1.2-2-3.2-2-4.8   V166c3.6-3.2,6-8,7.6-12.8c0.4,0,0.4,0.4,0.8,0.4c2,0.4,4-2.4,4.8-6s-0.4-6.8-2.4-7.2c-0.4,0-0.8,0-0.8,0c0-0.4,0-1.2,0-1.6   c0-0.4,0-0.4,0-0.8l0,0c0-2.4,0.4-4.8,0-7.2c-0.4-3.6-1.6-6.8-2.8-10c-0.4-0.8-0.8-2-1.2-2.8c-1.2-2-3.6-3.6-6-3.6   c-0.8,0-2,0-2.4,0.8c0,0,0,0.4-0.4,0.4c-0.4-0.8-1.2-1.2-1.6-1.6c-0.8-0.4-2-0.8-3.2-0.8c-5.2-0.4-9.2,0.8-14.4,1.2   c-2.4,0.4-6,2.4-7.6,6.4c-1.6,3.2-2.4,6-3.2,9.6c-0.4,2,0,5.6,0.4,8.8c0,0.4,0,0.4,0,0.8c-0.4,0-0.8,0-0.8,0   c-2,0.4-2.8,3.6-2.4,7.2c0.8,3.6,2.8,6,4.8,6c0.4,0,0.4,0,0.8-0.4c1.6,5.2,4.4,10,8,13.6v0.4c0,1.6-0.4,3.2-1.6,4.4   c0,0-18.8,7.2-23.6,9.2c-0.8,0.4-1.6,0.4-2.4,0.8c-6.4,1.6-11.2,7.6-11.2,14.4v22L303.6,217.6L303.6,217.6z"/>
	<path style="fill:#FFFFFF;" d="M426.4,217.6v-22c0-6.8-4.8-12.8-11.2-14.4c-0.8,0-1.2-0.4-2-0.4l-23.2-9.2c-1.2-1.2-2-3.2-2-4.8   V166c3.6-3.2,6-8,7.6-12.8c0.4,0,0.4,0.4,0.8,0.4c2,0.4,4-2.4,4.8-6s-0.4-6.8-2.4-7.2c-0.4,0-0.8,0-0.8,0c0-0.4,0-1.2,0-1.6   c0-0.4,0-0.4,0-0.8l0,0c0-2.4,0.4-4.8,0-7.2c-0.4-3.6-1.6-6.8-2.8-10c-0.4-0.8-0.8-2-1.2-2.8c-1.2-2-3.6-3.6-6-3.6   c-0.8,0-2,0-2.4,0.8c0,0,0,0.4-0.4,0.4c-0.4-0.8-1.2-1.2-1.6-1.6c-0.8-0.4-2-0.8-3.2-0.8c-5.2-0.4-9.2,0.8-14.4,1.2   c-2.4,0.4-6,2.4-7.6,6.4c-1.6,3.2-2.4,6-3.2,9.6c-0.4,2,0,5.6,0.4,8.8c0,0.4,0,0.4,0,0.8c-0.4,0-0.8,0-0.8,0   c-2,0.4-2.8,3.6-2.4,7.2c0.8,3.6,2.8,6,4.8,6c0.4,0,0.4,0,0.8-0.4c1.6,5.2,4.4,10,8,13.6v0.4c0,1.6-0.4,3.2-1.6,4.4   c0,0-18.8,7.2-23.6,9.2c-0.8,0.4-1.6,0.4-2.4,0.8c-6.4,1.6-11.2,7.6-11.2,14.4v22L426.4,217.6L426.4,217.6z"/>
</g>
<polygon style="fill:#4CDBC4;" points="384.8,235.2 368.8,235.2 368.8,270.8 261.6,270.8 261.6,235.2 245.6,235.2 245.6,270.8   139.2,270.8 139.2,235.2 123.2,235.2 123.2,287.2 245.6,287.2 245.6,319.6 261.6,319.6 261.6,287.2 384.8,287.2 "/>
<circle style="fill:#FF7058;" cx="254" cy="372" r="62"/>
<circle style="fill:#FFFFFF;" cx="254" cy="372" r="44.4"/>
<polygon style="fill:#324A5E;" points="249.2,394.4 227.6,372.4 236,364 249.2,377.2 272,354.4 280.4,362.8 "/>
<g>
</g>
<g>
</g>
<g>
</g>
<g>
</g>
<g>
</g>
<g>
</g>
<g>
</g>
<g>
</g>
<g>
</g>
<g>
</g>
<g>
</g>
<g>
</g>
<g>
</g>
<g>
</g>
<g>
</g>
</svg>
