<?xml version="1.0" encoding="iso-8859-1"?>
<!-- Generator: Adobe Illustrator 19.0.0, SVG Export Plug-In . SVG Version: 6.00 Build 0)  -->
<svg xmlns="http://www.w3.org/2000/svg" xmlns:xlink="http://www.w3.org/1999/xlink" version="1.1" id="Layer_1" x="0px" y="0px" viewBox="0 0 508 508" style="enable-background:new 0 0 508 508;" xml:space="preserve">
<circle style="fill:#84DBFF;" cx="254" cy="254" r="254"/>
<circle style="fill:#324A5E;" cx="120.8" cy="310" r="19.6"/>
<path style="fill:#FFFFFF;" d="M161.6,380c-2-23.6-19.2-42-40.8-42C99.6,338,82,356.4,80,380H161.6z"/>
<circle style="fill:#324A5E;" cx="234" cy="287.2" r="26.8"/>
<path style="fill:#FFFFFF;" d="M289.2,381.2c-2.4-32-26-57.2-55.2-57.2c-28.8,0-52.4,25.2-55.2,57.2H289.2z"/>
<circle style="fill:#324A5E;" cx="370.8" cy="268.4" r="32"/>
<path style="fill:#FFFFFF;" d="M437.2,381.2c-2.8-38.4-31.6-68.4-66-68.4s-63.2,30-66,68.4H437.2z"/>
<polygon style="fill:#FF7058;" points="378.4,95.6 330,95.6 344,109.2 274.8,178.4 231.6,135.6 138.8,228.4 159.6,249.2   231.6,176.8 274.8,220 364.4,130 378.4,144 "/>
<g>
</g>
<g>
</g>
<g>
</g>
<g>
</g>
<g>
</g>
<g>
</g>
<g>
</g>
<g>
</g>
<g>
</g>
<g>
</g>
<g>
</g>
<g>
</g>
<g>
</g>
<g>
</g>
<g>
</g>
</svg>
