<?xml version="1.0" encoding="iso-8859-1"?>
<!-- Generator: Adobe Illustrator 19.0.0, SVG Export Plug-In . SVG Version: 6.00 Build 0)  -->
<svg xmlns="http://www.w3.org/2000/svg" xmlns:xlink="http://www.w3.org/1999/xlink" version="1.1" id="Layer_1" x="0px" y="0px" viewBox="0 0 508 508" style="enable-background:new 0 0 508 508;" xml:space="preserve">
<circle style="fill:#FD8469;" cx="254" cy="254" r="254"/>
<polygon style="fill:#CED5E0;" points="178.8,98.8 122.4,155.2 122.4,360.4 337.6,360.4 337.6,98.8 "/>
<polygon style="fill:#FFFFFF;" points="220.8,139.6 163.2,197.2 163.2,401.2 378.4,401.2 378.4,139.6 "/>
<polygon style="fill:#ACB3BA;" points="178.8,155.2 178.8,98.8 122.4,155.2 "/>
<polygon style="fill:#E6E9EE;" points="220.8,197.2 220.8,139.6 163.2,197.2 "/>
<path style="fill:#FFFFFF;" d="M480.8,262.8v0.8V262.8z"/>
<polygon style="fill:#F1543F;" points="266,317.2 261.6,309.2 266,300.8 275.6,300.8 280.4,309.2 275.6,317.2 "/>
<path style="fill:#E6E9EE;" d="M302.4,243.6c-0.4,0-0.4,0-0.8,0l0,0c0-16.4-13.2-30-30-30l0,0l0,0l0,0c-16.4,0-29.6,13.6-29.6,30  c0,0,0,0,0,0.4c-0.4,0-0.8,0-0.8,0c-2.4,0-4.4,5.2-4,10.8c0.4,6,2.8,10.4,5.6,10.4h0.4c4,17.6,17.6,30.8,28.8,30.8  c9.6,0,24.4-13.2,28.4-30.8c0.4,0,0.4,0,0.8,0.4c2.4,0,5.2-4.4,5.6-10.4C306.8,248.8,305.2,244,302.4,243.6z"/>
<polygon style="fill:#FF7058;" points="280.8,349.6 260.8,349.6 266,317.2 275.6,317.2 "/>
<g>
	<path style="fill:#324A5E;" d="M270.8,349.2c0,0-24-48.4-26.8-47.2c-22.4,10-38,32.4-38.8,58h131.2c-0.8-26-16.4-48.4-38.8-58.4   C294.8,300.8,270.8,349.2,270.8,349.2z"/>
	<path style="fill:#324A5E;" d="M300.4,249.2c0-2,0.4-4,1.2-6c0-16.4-13.6-29.6-30-29.6l0,0l0,0l0,0c-16.4,0-29.6,13.2-29.6,30   c0.8,1.6,1.2,3.6,1.2,5.6c0,0.4,0,2.8,0,2.8c0,0.8-0.4,2,0,2.8c0,0.8,0.8,2,1.6,2.4c1.2,0.4,2-0.4,2.8-1.2c0.4-0.8,0.8-2,0.8-3.2   c0-0.4,0-2.8,0-3.2c1.2-5.2,3.2-10.4,7.2-14.4l0,0c1.2-1.2,3.6-1.2,4.4,0.4c2,3.6,6.4,6,12,6c6.8,0,12.4-4,12.8-9.2   c1.2,0.8,2.4,1.6,3.2,2.8c4,4,6,9.2,7.2,14.8c0,0,0,2.4,0,2.8c0,1.2,0.4,2,0.8,3.2c0.4,0.8,1.6,1.6,2.8,1.2   c0.8-0.4,1.6-1.2,1.6-2.4c0-0.8,0-2,0-2.8C300.4,251.6,300.4,249.2,300.4,249.2z"/>
</g>
<g>
</g>
<g>
</g>
<g>
</g>
<g>
</g>
<g>
</g>
<g>
</g>
<g>
</g>
<g>
</g>
<g>
</g>
<g>
</g>
<g>
</g>
<g>
</g>
<g>
</g>
<g>
</g>
<g>
</g>
</svg>
