<?xml version="1.0" encoding="iso-8859-1"?>
<!-- Generator: Adobe Illustrator 19.0.0, SVG Export Plug-In . SVG Version: 6.00 Build 0)  -->
<svg xmlns="http://www.w3.org/2000/svg" xmlns:xlink="http://www.w3.org/1999/xlink" version="1.1" id="Layer_1" x="0px" y="0px" viewBox="0 0 508 508" style="enable-background:new 0 0 508 508;" xml:space="preserve">
<circle style="fill:#90DFAA;" cx="254" cy="254" r="254"/>
<path style="fill:#324A5E;" d="M355.6,260.8l-47.2-13.2c-4.4-0.8-12.4-1.6-15.6-4.4c-35.6,42.4-63.2,15.6-75.6-2.4  c-3.2,4.4-10.8,5.2-16,6l-48.4,14.4c-19.6,3.2-34,20-34,40v90.4h270.8v-91.2C389.2,280.8,375.2,264,355.6,260.8z"/>
<polygon style="fill:#E6E9EE;" points="226.4,262 254,368.8 280.8,262 "/>
<polygon style="fill:#2B3B4E;" points="246.8,285.2 240,273.6 246.8,262 260,262 266.8,273.6 260,285.2 "/>
<g>
	<polygon style="fill:#FFFFFF;" points="219.6,235.6 233.6,290 254,262  "/>
	<polygon style="fill:#FFFFFF;" points="253.6,262 273.6,290 287.6,235.6  "/>
</g>
<polygon style="fill:#324A5E;" points="268.8,340.4 254,368.8 238,340.4 246.8,285.2 260,285.2 "/>
<g>
	<polygon style="fill:#2B3B4E;" points="326,252.4 287.6,235.6 254,368.8 312.4,292.4 298.8,282.4  "/>
	<polygon style="fill:#2B3B4E;" points="181.6,252.4 219.6,235.6 254,368.8 194.8,292.4 208.8,282.4  "/>
</g>
<path style="fill:#324A5E;" d="M332,160.4V134l-16-3.6c-1.6-5.2-3.6-10.4-6-15.2l8.8-14l-18.4-18.4L286,91.6  c-4.8-2.8-9.6-4.8-15.2-6l-3.6-16h-26.4l-3.6,16c-5.2,1.6-10.4,3.6-15.2,6l-14-8.8l-18.4,18.4l8.8,14c-2.8,4.8-4.8,9.6-6,15.2  l-16,3.6v26.4l16,3.6c1.6,5.2,3.6,10.4,6,15.2l-8.8,14l18.4,18.4l14-8.8c4.8,2.8,9.6,4.8,15.2,6l3.6,16h26.4l3.6-16  c5.2-1.6,10.4-3.6,15.2-6l14,8.8l18.4-18.4l-8.8-14c2.8-4.8,4.8-9.6,6-15.2L332,160.4z"/>
<circle style="fill:#FFFFFF;" cx="254" cy="147.2" r="36"/>
<g>
</g>
<g>
</g>
<g>
</g>
<g>
</g>
<g>
</g>
<g>
</g>
<g>
</g>
<g>
</g>
<g>
</g>
<g>
</g>
<g>
</g>
<g>
</g>
<g>
</g>
<g>
</g>
<g>
</g>
</svg>
