<?xml version="1.0" encoding="iso-8859-1"?>
<!-- Generator: Adobe Illustrator 19.0.0, SVG Export Plug-In . SVG Version: 6.00 Build 0)  -->
<svg xmlns="http://www.w3.org/2000/svg" xmlns:xlink="http://www.w3.org/1999/xlink" version="1.1" id="Layer_1" x="0px" y="0px" viewBox="0 0 508 508" style="enable-background:new 0 0 508 508;" xml:space="preserve">
<circle style="fill:#324A5E;" cx="254" cy="254" r="254"/>
<g>
	<path style="fill:#FFD05B;" d="M319.2,261.6c-2,0-3.6-0.4-5.2-2c-4-2.8-4.8-8.4-1.6-12.4c9.6-12.8,14.8-28,14.8-44   c0-40.4-32.8-72.8-72.8-72.8s-72.8,32.8-72.8,72.8c0,15.6,4.8,30.4,14,42.8c2.8,4,2,9.6-2,12.4c-4,2.8-9.6,2-12.4-2   c-11.2-15.6-17.6-34-17.6-53.6c0-50,40.8-90.8,90.8-90.8s90.8,40.8,90.8,90.8c0,20-6.4,38.8-18.4,54.8   C324.8,260.4,322,261.6,319.2,261.6z"/>
	<path style="fill:#FFD05B;" d="M319.6,332c-3.2,0-6.4-1.6-8-4.8c-2.4-4.4-0.8-9.6,3.6-12c40.8-22.4,66.4-65.2,66.4-112   c0-70.4-57.2-127.6-127.6-127.6s-127.6,57.6-127.6,127.6c0,46.4,25.2,89.2,65.6,111.6c4.4,2.4,6,8,3.6,12c-2.4,4.4-8,6-12,3.6   c-46-25.6-74.8-74.4-74.8-127.2C108.8,123.2,174,58,254,58s145.2,65.2,145.2,145.2c0,53.2-28.8,102-75.6,127.6   C322.4,331.6,320.8,332,319.6,332z"/>
</g>
<polygon style="fill:#4CDBC4;" points="278.4,246 254,282.4 229.6,246 208.8,246 208.8,376.8 231.2,376.8 231.2,454 276.8,454   276.8,376.8 299.2,376.8 299.2,246 "/>
<circle style="fill:#E6E9EE;" cx="254" cy="199.2" r="31.6"/>
<g>
</g>
<g>
</g>
<g>
</g>
<g>
</g>
<g>
</g>
<g>
</g>
<g>
</g>
<g>
</g>
<g>
</g>
<g>
</g>
<g>
</g>
<g>
</g>
<g>
</g>
<g>
</g>
<g>
</g>
</svg>
