<?xml version="1.0" encoding="iso-8859-1"?>
<!-- Generator: Adobe Illustrator 19.0.0, SVG Export Plug-In . SVG Version: 6.00 Build 0)  -->
<svg xmlns="http://www.w3.org/2000/svg" xmlns:xlink="http://www.w3.org/1999/xlink" version="1.1" id="Layer_1" x="0px" y="0px" viewBox="0 0 508 508" style="enable-background:new 0 0 508 508;" xml:space="preserve">
<circle style="fill:#90DFAA;" cx="254" cy="254" r="254"/>
<path style="fill:#324A5E;" d="M424,191.2c-12,12-44.8,25.6-56.8,13.6s2-44.8,13.6-56.8c26.8-26.8,31.2-12,43.2,0  C436,160,451.6,163.6,424,191.2z"/>
<path style="fill:#2B3B4E;" d="M367.2,205.2c0,0,1.2-2.8,3.6-6.8s6.4-8.4,10.4-12.8c4.4-4.4,8.8-8,12.8-10.4  c3.6-2.4,6.8-3.6,6.8-3.6s-1.2,2.8-3.6,6.8s-6.4,8.4-10.4,12.8c-4.4,4.4-8.8,8-12.8,10.4C370,203.6,367.2,205.2,367.2,205.2z"/>
<path style="fill:#324A5E;" d="M424,220.8c-12-12-44.8-25.6-56.8-13.6s2,44.8,13.6,56.8c26.8,26.8,31.2,12,43.2,0  C436,252,451.6,248.4,424,220.8z"/>
<path style="fill:#2B3B4E;" d="M367.2,206.8c0,0,1.2,2.8,3.6,6.8s6.4,8.4,10.4,12.8c4.4,4.4,8.8,8,12.8,10.4  c3.6,2.4,6.8,3.6,6.8,3.6s-1.2-2.8-3.6-6.8s-6.4-8.4-10.4-12.8c-4.4-4.4-8.8-8-12.8-10.4C370,208,367.2,206.8,367.2,206.8z"/>
<path style="fill:#FFFFFF;" d="M364.8,239.6c0-98.4-56-147.2-123.6-147.6c-91.2-0.4-136.4,47.6-136.4,118.4l0,0l-35.6,57.2  c-2.8,5.6,1.2,12.4,7.6,12.4h20v62c0,7.2,6,13.2,13.2,13.2h44.4V416h136.8l0.4-51.2C336.8,341.6,364.8,294,364.8,239.6z"/>
<path style="fill:#324A5E;" d="M355.2,175.6h-246c-2.8,10.8-4,22.4-4,34.8l0,0l-16,26h276h10.4v-60.8H355.2z"/>
<g>
</g>
<g>
</g>
<g>
</g>
<g>
</g>
<g>
</g>
<g>
</g>
<g>
</g>
<g>
</g>
<g>
</g>
<g>
</g>
<g>
</g>
<g>
</g>
<g>
</g>
<g>
</g>
<g>
</g>
</svg>
