<?xml version="1.0" encoding="iso-8859-1"?>
<!-- Generator: Adobe Illustrator 19.0.0, SVG Export Plug-In . SVG Version: 6.00 Build 0)  -->
<svg xmlns="http://www.w3.org/2000/svg" xmlns:xlink="http://www.w3.org/1999/xlink" version="1.1" id="Layer_1" x="0px" y="0px" viewBox="0 0 508 508" style="enable-background:new 0 0 508 508;" xml:space="preserve">
<circle style="fill:#324A5E;" cx="254" cy="254" r="254"/>
<polygon style="fill:#FFFFFF;" points="272,338.8 235.6,338.8 246,269.6 262,269.6 "/>
<circle style="fill:#E6E9EE;" cx="254" cy="145.6" r="82.4"/>
<circle style="fill:#FF7058;" cx="254" cy="145.6" r="57.6"/>
<circle style="fill:#FFD05B;" cx="254" cy="145.6" r="31.2"/>
<path style="fill:#FFFFFF;" d="M315.6,75.6L253.2,138c-2.4,2.4-2.4,6,0,8.4c2.4,2.4,6,2.4,8.4,0l62-62L315.6,75.6z"/>
<g>
	<polygon style="fill:#4CDBC4;" points="305.2,116.4 293.6,114.4 324,84 335.6,86  "/>
	<polygon style="fill:#4CDBC4;" points="283.2,94.4 285.2,106 315.6,75.6 313.6,64  "/>
</g>
<path style="fill:#FF7058;" d="M394,389.6v-78.4c0-30.8-25.2-56-56-56h-32.4L254,336.4l-51.6-80.8H170c-30.8,0-56,25.2-56,56V390  h280V389.6z"/>
<polygon style="fill:#E6E9EE;" points="246,269.6 237.6,255.6 246,241.2 262,241.2 270.4,255.6 262,269.6 "/>
<g>
</g>
<g>
</g>
<g>
</g>
<g>
</g>
<g>
</g>
<g>
</g>
<g>
</g>
<g>
</g>
<g>
</g>
<g>
</g>
<g>
</g>
<g>
</g>
<g>
</g>
<g>
</g>
<g>
</g>
</svg>
