<?xml version="1.0" encoding="iso-8859-1"?>
<!-- Generator: Adobe Illustrator 19.0.0, SVG Export Plug-In . SVG Version: 6.00 Build 0)  -->
<svg xmlns="http://www.w3.org/2000/svg" xmlns:xlink="http://www.w3.org/1999/xlink" version="1.1" id="Layer_1" x="0px" y="0px" viewBox="0 0 508 508" style="enable-background:new 0 0 508 508;" xml:space="preserve">
<circle style="fill:#90DFAA;" cx="254" cy="254" r="254"/>
<g>
	<circle style="fill:#324A5E;" cx="254" cy="156.8" r="38.8"/>
	<path style="fill:#324A5E;" d="M286.4,206.4h-64.8c-10.4,0-18.4,8.4-18.4,18.4v125.6h30v98h42v-97.6h30v-126   C304.8,214.8,296.4,206.4,286.4,206.4z"/>
</g>
<g>
	<polygon style="fill:#FFFFFF;" points="254,52.8 236.8,70 244.8,70 244.8,104.8 263.2,104.8 263.2,70 271.2,70  "/>
	<polygon style="fill:#FFFFFF;" points="358.8,156.4 341.2,139.2 341.2,147.2 306.4,147.2 306.4,166 341.2,166 341.2,174  "/>
	<polygon style="fill:#FFFFFF;" points="149.2,156.4 166.8,139.2 166.8,147.2 201.6,147.2 201.6,166 166.8,166 166.8,174  "/>
	<polygon style="fill:#FFFFFF;" points="331.6,83.2 307.2,83.2 312.8,88.8 288,113.6 301.2,126.8 326,102 331.6,107.6  "/>
	<polygon style="fill:#FFFFFF;" points="179.6,83.2 204,83.2 198.4,88.8 223.2,113.6 210,126.8 185.2,102 179.6,107.6  "/>
</g>
<g>
</g>
<g>
</g>
<g>
</g>
<g>
</g>
<g>
</g>
<g>
</g>
<g>
</g>
<g>
</g>
<g>
</g>
<g>
</g>
<g>
</g>
<g>
</g>
<g>
</g>
<g>
</g>
<g>
</g>
</svg>
