<?xml version="1.0" encoding="iso-8859-1"?>
<!-- Generator: Adobe Illustrator 19.0.0, SVG Export Plug-In . SVG Version: 6.00 Build 0)  -->
<svg xmlns="http://www.w3.org/2000/svg" xmlns:xlink="http://www.w3.org/1999/xlink" version="1.1" id="Layer_1" x="0px" y="0px" viewBox="0 0 508 508" style="enable-background:new 0 0 508 508;" xml:space="preserve">
<circle style="fill:#FFD05B;" cx="254" cy="254" r="254"/>
<g>
	<path style="fill:#FFFFFF;" d="M126.8,122.8v0.4V122.8z"/>
	<path style="fill:#FFFFFF;" d="M246,58c-59.6,4-108.8,51.6-113.6,111.6c-3.2,37.6,10.8,71.6,34.8,96C190,288.4,202,320,202,352.4   v2.8h104v-2.8c0-33.2,13.6-64.4,36.4-88.8c20.8-22,33.6-51.6,33.6-84C376,109.6,317.2,53.2,246,58z"/>
</g>
<path style="fill:#CED5E0;" d="M316,158.8c-1.2-29.2-24.4-53.2-53.2-55.2c-26.8-2-50.4,14.4-58.8,38l0,0l-15.2,29.2  c-1.2,2.4,0.4,5.2,3.2,5.2h8.8v26.8c0,3.2,2.4,5.6,5.6,5.6h19.2v26h58.8v-22C303.6,202.8,316.8,182.4,316,158.8z"/>
<g>
	<path style="fill:#324A5E;" d="M301.2,391.2h-94.4c-6,0-10.8-4.8-10.8-10.8l0,0c0-6,4.8-10.8,10.8-10.8h94.4   c6,0,10.8,4.8,10.8,10.8l0,0C312.4,386,307.2,391.2,301.2,391.2z"/>
	<path style="fill:#324A5E;" d="M301.2,428h-94.4c-6,0-10.8-4.8-10.8-10.8l0,0c0-6,4.8-10.8,10.8-10.8h94.4c6,0,10.8,4.8,10.8,10.8   l0,0C312.4,423.2,307.2,428,301.2,428z"/>
	<path style="fill:#324A5E;" d="M217.6,428l4.8,14.4c1.6,4.8,5.6,7.6,10.4,7.6H276c4.4,0,8.8-3.2,10.4-7.6l4.8-14.4H217.6z"/>
</g>
<g>
</g>
<g>
</g>
<g>
</g>
<g>
</g>
<g>
</g>
<g>
</g>
<g>
</g>
<g>
</g>
<g>
</g>
<g>
</g>
<g>
</g>
<g>
</g>
<g>
</g>
<g>
</g>
<g>
</g>
</svg>
