<?xml version="1.0" encoding="iso-8859-1"?>
<!-- Generator: Adobe Illustrator 19.0.0, SVG Export Plug-In . SVG Version: 6.00 Build 0)  -->
<svg xmlns="http://www.w3.org/2000/svg" xmlns:xlink="http://www.w3.org/1999/xlink" version="1.1" id="Layer_1" x="0px" y="0px" viewBox="0 0 508 508" style="enable-background:new 0 0 508 508;" xml:space="preserve">
<circle style="fill:#FD8469;" cx="254" cy="254" r="254"/>
<rect x="189.6" y="229.2" style="fill:#FFD05B;" width="58.4" height="127.2"/>
<rect x="274.4" y="184.4" style="fill:#4CDBC4;" width="58.4" height="172"/>
<rect x="359.6" y="140.4" style="fill:#324A5E;" width="58.4" height="215.6"/>
<polygon style="fill:#FFFFFF;" points="366,84.4 329.2,82.8 340,94 303.6,126.4 278,96.4 195.2,164.8 208,180 275.6,124   301.6,154.8 353.2,108.8 364.4,120.8 "/>
<path style="fill:#E6E9EE;" d="M166,310.4c-1.6-1.6-2.8-4-2.8-6.8V288h-29.6v15.6c0,2-0.8,4-2,5.6c3.2,4.8,8.8,12.8,16.4,13.2  C153.2,322.8,159.2,318.4,166,310.4z"/>
<path style="fill:#324A5E;" d="M197.6,322l-22.8-6.4c-2-0.4-6-0.8-7.6-2.4c-17.2,20.8-30.8,7.6-36.8-1.2c-1.6,2-5.2,2.4-8,2.8  L98.8,322c-9.6,1.6-16.4,10-16.4,19.6v44h132v-44C214,331.6,207.2,323.6,197.6,322z"/>
<polygon style="fill:#E6E9EE;" points="134.4,322.4 148,374.4 161.2,322.4 "/>
<g>
	<polygon style="fill:#4CDBC4;" points="144.4,334 141.2,328.4 144.4,322.4 151.2,322.4 154.4,328.4 151.2,334  "/>
	<polygon style="fill:#4CDBC4;" points="155.6,360.8 148,374.4 140.4,360.8 144.4,334 151.2,334  "/>
</g>
<path style="fill:#FFFFFF;" d="M177.6,268.8c-0.4,0-0.8,0-1.2,0c0-0.8,0-1.2,0-2c0-0.4,0-0.8,0-1.2v-0.4  c-0.8-16-13.2-28.8-28.4-28.8s-27.6,12.8-28.4,28.8v0.4c0,0.4,0,0.8,0,1.2c0,0.8,0,1.2,0,2c-0.4,0-0.8-0.4-1.2,0  c-2.4,0.4-4,4.8-2.8,9.6c0.8,4.8,3.6,8.4,6.4,7.6c0.4,0,0.8-0.4,1.2-0.4c4,12.4,12.4,23.6,25.2,23.6s21.2-11.2,25.2-23.6  c0.4,0.4,0.8,0.4,1.2,0.4c2.4,0.4,5.2-2.8,6.4-7.6C181.2,273.6,180,269.2,177.6,268.8z"/>
<path style="fill:#324A5E;" d="M176,256.4c-0.4-4.4-2-8.8-4-13.2c-0.4-1.2-0.8-2.4-1.6-3.6c-1.6-2.8-4.8-4.8-8-4.8  c-1.2,0-2.4,0-3.2,0.8l-0.4,0.4c-0.8-0.8-1.2-1.6-2.4-2c-1.2-0.8-2.8-0.8-4-1.2c-6.8-0.8-12.4,0.8-19.2,2c-3.2,0.4-8,3.6-10,8.4  c-2,4.4-3.2,8-4,12.8c-0.8,3.6,0,11.6,1.6,16.4c0.4,1.2,1.6,1.2,2.4,0.4c2.4-3.6,3.2-11.6,4.8-15.2c0.4-1.2,0.8-2,1.2-3.2  c0.4-1.2,0.8-2.4,1.6-3.2s2-1.2,3.2-0.8c1.6,0.8,1.6,2.8,2.8,4.4c1.2,1.2,3.2,1.6,5.2,1.6c3.2,0,6.8,0,10,0c1.2,0,2.8,0,4-0.4  c1.6-0.8,2.4-2,3.2-3.6c0.4-0.8,0.4-1.2,0.4-2c0,0.4,0.4,0.8,0.4,0.8c1.2,2.8,3.2,5.2,5.6,7.2c1.2,1.2,2.8,2,4,3.2  c2.8,2.8,3.6,6.8,3.6,10.8c0,0.8,0,1.2,0.8,1.6c0.4,0,0.8,0,1.2-0.4s0.4-0.8,0.4-1.2C176,266.4,176.8,261.6,176,256.4z"/>
<g>
	<polygon style="fill:#FFFFFF;" points="131.6,309.6 138.4,336.4 148,322.4  "/>
	<polygon style="fill:#FFFFFF;" points="148,322.4 157.6,336.4 164.4,309.6  "/>
</g>
<g>
	<polygon style="fill:#2B3B4E;" points="183.2,318 164.4,309.6 148,374.4 176.4,337.2 170,332.4  "/>
	<polygon style="fill:#2B3B4E;" points="112.8,318 131.6,309.6 148,374.4 119.2,337.2 126,332.4  "/>
</g>
<g>
</g>
<g>
</g>
<g>
</g>
<g>
</g>
<g>
</g>
<g>
</g>
<g>
</g>
<g>
</g>
<g>
</g>
<g>
</g>
<g>
</g>
<g>
</g>
<g>
</g>
<g>
</g>
<g>
</g>
</svg>
