<?xml version="1.0" encoding="iso-8859-1"?>
<!-- Generator: Adobe Illustrator 19.0.0, SVG Export Plug-In . SVG Version: 6.00 Build 0)  -->
<svg xmlns="http://www.w3.org/2000/svg" xmlns:xlink="http://www.w3.org/1999/xlink" version="1.1" id="Layer_1" x="0px" y="0px" viewBox="0 0 508 508" style="enable-background:new 0 0 508 508;" xml:space="preserve">
<circle style="fill:#90DFAA;" cx="254" cy="254" r="254"/>
<path style="fill:#E6E9EE;" d="M207.6,314c-2-2-3.6-4.8-3.6-8v-18.4h-34.4V306c0,2.4-0.8,4.8-2.4,6.4c4,5.6,10.4,14.8,19.2,15.2  C192.8,328.4,200,323.2,207.6,314z"/>
<g>
	
		<ellipse transform="matrix(0.0688 -0.9976 0.9976 0.0688 -54.2042 463.5239)" style="fill:#FFFFFF;" cx="221.189" cy="260.797" rx="12" ry="5.2"/>
	
		<ellipse transform="matrix(0.0688 0.9976 -0.9976 0.0688 402.1165 90.5855)" style="fill:#FFFFFF;" cx="152.535" cy="260.69" rx="12" ry="5.2"/>
	<path style="fill:#FFFFFF;" d="M220.8,248.8c0-18.8-15.2-34-34-34l0,0l0,0l0,0c-18.8,0-34,15.2-34,34c0,0.4,0,8.8,0,12.8   c0,26,19.2,46.8,34,46.8c12.8,0,34-20.8,34-46.8C220.8,257.6,220.8,249.2,220.8,248.8z"/>
</g>
<path style="fill:#324A5E;" d="M244.8,324.8l-29.6-4.4c-2.4-0.4-4.4-1.6-6.4-3.2c-20.4,24-36,8.8-43.2-1.2c-1.6,2.4-4.4,4-7.6,4.8  l-29.2,4.4c-11.2,2-19.2,11.6-19.2,22.8v54h154v-54.4C264,336.4,256,326.8,244.8,324.8z"/>
<polygon style="fill:#E6E9EE;" points="171.2,328 187.2,388.8 202,328 "/>
<polygon style="fill:#2B3B4E;" points="182.8,341.2 179.2,334.8 182.8,328 190.4,328 194.4,334.8 190.4,341.2 "/>
<g>
	<polygon style="fill:#FFFFFF;" points="167.6,313.2 175.6,344 187.2,328  "/>
	<polygon style="fill:#FFFFFF;" points="186.8,328 198.4,344 206,313.2  "/>
</g>
<polygon style="fill:#324A5E;" points="195.6,372.8 187.2,388.8 178,372.8 182.8,341.2 190.4,341.2 "/>
<g>
	<polygon style="fill:#2B3B4E;" points="228,322.4 206,313.2 187.2,388.8 220.4,345.2 212.4,339.6  "/>
	<polygon style="fill:#2B3B4E;" points="146,322.4 167.6,313.2 187.2,388.8 153.6,345.2 161.2,339.6  "/>
</g>
<path style="fill:#FF7058;" d="M388,106.4H244c-5.6,0-10,4.4-10,10v94.4c0,5.6,4.4,10,10,10h13.6l-0.4,34.8l44.4-34.8h86.8  c5.6,0,10-4.4,10-10v-94.4C398,110.8,393.6,106.4,388,106.4z"/>
<g>
	<circle style="fill:#E6E9EE;" cx="272" cy="163.2" r="11.6"/>
	<circle style="fill:#E6E9EE;" cx="316" cy="163.2" r="11.6"/>
	<circle style="fill:#E6E9EE;" cx="360.4" cy="163.2" r="11.6"/>
</g>
<g>
</g>
<g>
</g>
<g>
</g>
<g>
</g>
<g>
</g>
<g>
</g>
<g>
</g>
<g>
</g>
<g>
</g>
<g>
</g>
<g>
</g>
<g>
</g>
<g>
</g>
<g>
</g>
<g>
</g>
</svg>
