<?xml version="1.0" encoding="iso-8859-1"?>
<!-- Generator: Adobe Illustrator 19.0.0, SVG Export Plug-In . SVG Version: 6.00 Build 0)  -->
<svg xmlns="http://www.w3.org/2000/svg" xmlns:xlink="http://www.w3.org/1999/xlink" version="1.1" id="Layer_1" x="0px" y="0px" viewBox="0 0 508 508" style="enable-background:new 0 0 508 508;" xml:space="preserve">
<circle style="fill:#FFD05B;" cx="254" cy="254" r="254"/>
<polygon style="fill:#FF7058;" points="200,197.2 181.2,197.2 185.6,157.2 195.2,157.2 "/>
<polygon style="fill:#FFFFFF;" points="396,395.2 304,395.2 289.2,265.6 410.4,265.6 "/>
<g>
	<circle style="fill:#324A5E;" cx="190.4" cy="99.2" r="32.8"/>
	<path style="fill:#324A5E;" d="M358,148.4c-4.4-5.2-12-6-17.6-2.8l-43.6,24l-52-21.6c-1.2-0.4-2.8-0.8-4.4-0.8h-25.6l-24.4,50.4   l-24-50.4h-23.6c-2.8,0-5.6,0.8-7.6,2.8l-50.8,43.2c-3.6,3.2-4,8.8-0.8,12.4l54.4,59.2v-39.2l-21.2-22.8l21.2-18.4V226v151.2   c0,10,8,18.4,18.4,18.4c10,0,18.4-8,18.4-18.4V284H206v92.8c0,10,8,18.4,18.4,18.4c10,0,18.4-8,18.4-18.4v-196l46.8,20.4   c2.4,1.2,5.2,0.8,7.6-0.4L354,170C361.6,166,364,155.6,358,148.4z"/>
</g>
<polygon style="fill:#F1543F;" points="185.6,157.2 181.2,149.2 185.6,140.8 195.2,140.8 200,149.2 195.2,157.2 "/>
<path style="fill:#324A5E;" d="M350,259.6c-1.2-21.6-33.2-12.8-34.4-34.4c11.6-11.6,22.8-22.8,34.4-34.4  c1.2,21.6,33.2,12.8,34.4,34.4C372.8,236.8,361.2,248.4,350,259.6z"/>
<g>
</g>
<g>
</g>
<g>
</g>
<g>
</g>
<g>
</g>
<g>
</g>
<g>
</g>
<g>
</g>
<g>
</g>
<g>
</g>
<g>
</g>
<g>
</g>
<g>
</g>
<g>
</g>
<g>
</g>
</svg>
