<?xml version="1.0" encoding="iso-8859-1"?>
<!-- Generator: Adobe Illustrator 19.0.0, SVG Export Plug-In . SVG Version: 6.00 Build 0)  -->
<svg xmlns="http://www.w3.org/2000/svg" xmlns:xlink="http://www.w3.org/1999/xlink" version="1.1" id="Layer_1" x="0px" y="0px" viewBox="0 0 508 508" style="enable-background:new 0 0 508 508;" xml:space="preserve">
<circle style="fill:#84DBFF;" cx="254" cy="254" r="254"/>
<path style="fill:#E6E9EE;" d="M224.8,226c-6-2-10-7.6-10-14v-22H160v21.6c0,6-3.6,11.2-9.2,13.6C165.6,234,194.4,245.6,224.8,226z"/>
<path style="fill:#324A5E;" d="M304,278c0-20.8-14.8-39.2-35.2-43.2l-42-8.4c-0.4,0-1.2-0.4-1.6-0.4c-30.4,19.6-59.2,8-74-0.8  c-1.2,0.4-2,0.8-2.8,0.8l-42.4,8.8c-20.4,4.4-35.2,22.4-35.2,43.2L68,338.8h238.8L304,278z"/>
<g>
	
		<ellipse transform="matrix(0.1936 -0.9811 0.9811 0.1936 53.0903 365.4113)" style="fill:#FFFFFF;" cx="248.827" cy="150.411" rx="13.2" ry="7.2"/>
	
		<ellipse transform="matrix(0.1936 0.9811 -0.9811 0.1936 249.3026 -2.1425)" style="fill:#FFFFFF;" cx="125.955" cy="150.581" rx="13.2" ry="7.2"/>
	<ellipse style="fill:#FFFFFF;" cx="187.2" cy="140.4" rx="62.4" ry="66.4"/>
</g>
<path style="fill:#324A5E;" d="M187.6,64.8L187.6,64.8L187.6,64.8C187.2,64.8,187.2,64.8,187.6,64.8c-34.4,0.4-62,30-62,66.4  c0,0.4-0.4,3.2-0.4,7.6c0,10,2,22.8,4.4,21.6c4.8-13.6,13.2-20,24-26.4c-1.2,4.8-4,9.2-8,12c5.2-0.8,10.8-2,15.2-5.2  c1.6-1.2,3.2-3.2,4.8-4.8c4.4-4.8,9.2-10,13.6-14.8c0.8-0.4,1.2-0.4,2-0.8c-0.4,4.4-0.8,8.8-2.4,12.8c9.2-5.2,21.2-14,26-24  c2-2.8,3.6-3.6,4.8-3.6c4.4,6.4,8,10,12.8,13.6c10,7.6,8.8,9.6,20.8,16c2,1.2,4,2,6,3.2l0.8,0.8c0,0,0.4,0,0.4-0.4l0,0  c0-3.6,0-6.8,0-7.2C249.6,94.4,222,64.8,187.6,64.8z"/>
<polygon style="fill:#FFFFFF;" points="373.6,228 283.6,228 283.6,388 410.8,388 410.8,265.6 "/>
<polygon style="fill:#E6E9EE;" points="373.6,265.6 410.8,265.6 373.6,228 "/>
<path style="fill:#FF7058;" d="M351.2,345.2v11.6h-7.6v-11.2c-7.2,0-14-1.6-20-4.8V326c2,1.6,5.2,3.2,9.2,4.4  c4,1.6,7.6,2.4,10.8,2.4v-19.2c-8.4-3.2-14-6.4-16.8-10c-3.2-3.6-4.4-8-4.4-13.2c0-5.6,2-10.4,6-14c4-4,9.2-6,15.6-6.8v-10h7.6v9.6  c7.6,0.4,12.8,1.6,16.8,3.6v14.4c-4.8-2.8-10.4-4.8-16.8-5.6v20c7.6,2.8,13.2,6,16.4,9.6c3.2,3.6,5.2,8,5.2,12.8c0,6-2,10.4-5.6,14  C363.2,342,358,344.4,351.2,345.2z M343.2,298.8V282c-4.8,0.8-7.2,3.6-7.2,7.6C336,293.2,338.4,296.4,343.2,298.8z M351.2,316.8v16  c5.2-0.8,7.6-3.2,7.6-7.6C358.8,321.6,356,318.8,351.2,316.8z"/>
<g>
</g>
<g>
</g>
<g>
</g>
<g>
</g>
<g>
</g>
<g>
</g>
<g>
</g>
<g>
</g>
<g>
</g>
<g>
</g>
<g>
</g>
<g>
</g>
<g>
</g>
<g>
</g>
<g>
</g>
</svg>
