<?xml version="1.0" encoding="iso-8859-1"?>
<!-- Generator: Adobe Illustrator 19.0.0, SVG Export Plug-In . SVG Version: 6.00 Build 0)  -->
<svg xmlns="http://www.w3.org/2000/svg" xmlns:xlink="http://www.w3.org/1999/xlink" version="1.1" id="Layer_1" x="0px" y="0px" viewBox="0 0 508 508" style="enable-background:new 0 0 508 508;" xml:space="preserve">
<circle style="fill:#324A5E;" cx="254" cy="254" r="254"/>
<path style="fill:#E6E9EE;" d="M210,206c-3.2-2.8-5.2-6.8-5.2-11.2v-25.6h-52v25.6c0,3.6-1.2,6.4-3.2,9.2c6,8,15.6,20.8,28.8,21.2  C187.6,226,198.4,218.8,210,206z"/>
<path style="fill:#FFFFFF;" d="M224.8,118.4c-0.4,0-0.8,0-1.2,0V118c0-24.8-20-44.8-44.8-44.8l0,0l0,0l0,0  c-24.4,0-44.4,20-44.4,44.8c0,0,0,0,0,0.4c-0.4,0-0.8-0.4-1.6-0.4c-4,0.4-6.4,7.6-6,16.4c0.8,8.8,4.4,15.6,8,15.2  c0.4,0,0.4,0,0.8-0.4c6,26.4,26.4,46.4,43.2,46.4c14.4,0,36.4-19.6,42.8-46.4c0.4,0,0.8,0.4,1.2,0.4c4,0.4,7.6-6.4,8-15.2  C231.2,126,228.8,118.4,224.8,118.4z"/>
<path style="fill:#E6E9EE;" d="M254.8,218l-38.4-5.6c-3.2-0.4-6-2-8-4C182,240,161.2,220,152,206.8c-2.4,3.2-5.6,5.6-10,6l-38.4,5.2  c-14.4,2.4-25.2,14.8-25.2,29.6v70.8h201.2v-70.8C279.6,232.8,269.2,220.4,254.8,218z"/>
<polygon style="fill:#FFFFFF;" points="156.4,222.4 179.2,301.6 201.2,222.4 "/>
<g>
	<polygon style="fill:#324A5E;" points="173.6,239.6 168.8,230.8 173.6,222.4 183.6,222.4 188.8,230.8 183.6,239.6  "/>
	<polygon style="fill:#324A5E;" points="151.2,202 162.8,243.2 180,222.4  "/>
	<polygon style="fill:#324A5E;" points="180,222.4 196,242 206.4,201.2  "/>
	<polygon style="fill:#324A5E;" points="190.4,280.8 179.2,301.6 167.2,280.8 173.6,239.6 183.6,239.6  "/>
</g>
<g>
	<polygon style="fill:#FFFFFF;" points="232.4,215.2 206.4,201.2 179.2,301.6 222.4,244.8 212.4,237.6  "/>
	<polygon style="fill:#FFFFFF;" points="125.2,215.2 151.2,202 179.2,301.6 135.2,244.8 145.2,237.6  "/>
</g>
<path style="fill:#E6E9EE;" d="M224.8,83.6c-2-4.4-4.4-8-8-10.8c-1.2-1.2-3.2-1.2-4.8-0.8c-0.8-0.8-1.6-1.2-2-1.2  c-4.8-2.8-10.4-4.8-16-6c-3.2-0.4-6.4-0.8-10-0.8c-6.4,0-12.4,0.8-18.4,1.6c-2.8,0.4-16.8,5.6-22.8,11.2c-4.8,4.8-7.6,10.4-8,16.4  c0,1.2-0.4,3.2-0.8,5.6c-1.2,7.6-3.2,20.4,0,36.8l0.4,1.6h1.6c2.8,0,6-3.6,6.4-10.8s2.4-11.2,5.2-13.6c3.6-2.8,8-5.2,11.2-6.4  c1.6-0.4,3.6-1.2,5.6-2c3.2-1.2,6.8-3.2,9.6-6c0,1.6-0.4,3.2-1.2,4.8l-1.6,2.8l3.6-0.8c5.2-1.2,10.4-4,14.4-7.6c0,1.6-0.4,2.8-1.2,4  l-1.2,2.8l3.2-0.4c5.6-1.2,9.6-5.2,13.2-10c0.4-0.4,0.4-0.4,0.8-0.8c0,1.6,0,3.6,0.8,5.6c0.4,1.2,1.2,2.4,1.6,3.6v0.4  c4.4,8,8,16.8,9.6,25.6c0.4,2.4,2,8.4,3.6,8.4h2c0.8-1.6,0.8-8.8,1.2-10.4c0-0.4,0-1.2,0-1.6c0.4-2.4,1.2-4.8,2-7.2  c0.4-1.6,1.2-2.8,1.6-4.4c0.8-3.6,1.6-7.6,1.2-12.4C227.6,93.6,226.8,88.4,224.8,83.6z"/>
<g>
	<path style="fill:#FF7058;" d="M337.6,390v-20.8h-16V390c-7.2,3.2-12,10-12,18.4c0,11.2,8.8,20,20,20s20-8.8,20-20   C349.2,400,344.4,393.2,337.6,390z M329.6,416.4c-4.4,0-8.4-3.6-8.4-8.4c0-4.4,3.6-8.4,8.4-8.4s8.4,3.6,8.4,8.4   C337.6,412.8,334,416.4,329.6,416.4z"/>
	<rect x="229.2" y="246" style="fill:#FF7058;" width="200.4" height="14.8"/>
</g>
<rect x="242.4" y="260.8" style="fill:#FFFFFF;" width="174" height="116.8"/>
<rect x="280" y="303.2" style="fill:#FFD05B;" width="21.2" height="58.4"/>
<rect x="318.8" y="321.6" style="fill:#4CDBC4;" width="21.2" height="40.4"/>
<rect x="357.6" y="280" style="fill:#324A5E;" width="21.2" height="82"/>
<g>
</g>
<g>
</g>
<g>
</g>
<g>
</g>
<g>
</g>
<g>
</g>
<g>
</g>
<g>
</g>
<g>
</g>
<g>
</g>
<g>
</g>
<g>
</g>
<g>
</g>
<g>
</g>
<g>
</g>
</svg>
