<?xml version="1.0" encoding="iso-8859-1"?>
<!-- Generator: Adobe Illustrator 19.0.0, SVG Export Plug-In . SVG Version: 6.00 Build 0)  -->
<svg xmlns="http://www.w3.org/2000/svg" xmlns:xlink="http://www.w3.org/1999/xlink" version="1.1" id="Layer_1" x="0px" y="0px" viewBox="0 0 508 508" style="enable-background:new 0 0 508 508;" xml:space="preserve">
<circle style="fill:#90DFAA;" cx="254" cy="254" r="254"/>
<path style="fill:#E6E9EE;" d="M222.8,203.2c-3.2-2.8-4.8-7.2-4.8-11.6v-26.8h-50.4v26.8c0,3.6-1.2,6.8-3.2,9.6  c5.6,8.4,15.2,22,28,22.4C201.2,224,211.6,216.4,222.8,203.2z"/>
<path style="fill:#324A5E;" d="M277.2,222.8L238,211.6c-3.6-0.8-10.4-1.6-12.8-4c-29.6,35.2-52.4,13.2-62.8-2  c-2.4,3.6-8.8,4-13.2,4.8l-40.4,12c-16.4,2.8-28,16.8-28,33.2v74.8h224.4V256C305.2,239.6,293.2,225.6,277.2,222.8z"/>
<polygon style="fill:#E6E9EE;" points="169.6,223.6 192.8,312.4 214.8,223.6 "/>
<polygon style="fill:#2B3B4E;" points="186.8,243.2 181.2,233.6 186.8,223.6 198,223.6 203.6,233.6 198,243.2 "/>
<g>
	<polygon style="fill:#FFFFFF;" points="164.4,202 176,247.2 192.8,223.6  "/>
	<polygon style="fill:#FFFFFF;" points="192.4,223.6 209.2,247.2 220.8,202  "/>
</g>
<polygon style="fill:#324A5E;" points="205.2,288.8 192.8,312.4 179.2,288.8 186.8,243.2 198,243.2 "/>
<g>
	<polygon style="fill:#2B3B4E;" points="252.4,215.6 220.8,202 192.8,312.4 241.2,248.8 230,240.8  "/>
	<polygon style="fill:#2B3B4E;" points="132.8,215.6 164.4,202 192.8,312.4 143.6,248.8 155.2,240.8  "/>
</g>
<path style="fill:#FFFFFF;" d="M242.8,132c-0.8,0-1.6,0-2.4,0.4c0-1.2,0-2.4,0-3.6c0-0.8,0-1.2,0-2c0-0.4,0-0.8,0-0.8  c-1.2-27.2-22.4-49.2-48-49.2s-46.8,21.6-48,49.2c0,0.4,0,0.8,0,0.8c0,0.8,0,1.2,0,2c0,1.2,0,2.4,0,3.6c-0.8-0.4-1.6-0.4-2.4-0.4  c-4.4,0.8-6.4,8-5.2,16c1.6,8,6.4,14,10.8,13.2c0.8,0,1.2-0.4,1.6-0.8c6.8,21.2,20.8,40,42.8,40s36-18.8,42.8-40  c0.4,0.4,1.2,0.8,2,0.8c4.4,0.8,9.2-5.2,10.8-13.2C249.2,140.4,246.8,132.8,242.8,132z"/>
<path style="fill:#324A5E;" d="M240.4,111.2c-0.8-7.6-3.6-15.2-6.4-22.4c-0.8-2-1.6-4-2.8-6c-2.8-4.8-8-8-13.6-8.4  c-2-0.4-4.4,0-5.6,1.6c-0.4,0.4-0.4,0.8-0.8,0.8c-1.2-1.6-2.4-2.8-4-3.6c-2-1.2-4.4-1.6-6.8-1.6c-11.6-1.2-21.2,1.2-32.8,3.2  c-5.6,0.8-13.6,5.6-17.2,14.4c-3.2,7.6-5.6,14-7.2,22c-1.2,6,0,20,2.8,27.6c0.8,1.6,2.8,2,4,0.4c4.4-6.4,5.6-20,8-26  c0.8-2,1.6-3.6,2.4-5.6c0.8-2,1.6-3.6,2.8-5.2c1.6-1.6,3.6-2,5.6-1.2c2.8,1.2,2.8,5.2,4.8,7.2c2,2.4,5.6,2.4,8.8,2.4  c5.6,0,11.2,0,16.8,0c2.4,0,4.8,0,6.8-0.8c2.4-1.2,4.4-3.6,5.2-6.4c0.4-1.2,0.8-2.4,0.8-3.6c0.4,0.4,0.4,1.2,0.8,1.6  c2.4,4.8,5.6,8.8,9.6,12c2.4,2,4.8,3.2,6.8,5.6c4.4,4.8,6,11.6,6.4,18.4c0,1.2,0.4,2.4,1.2,2.8c0.8,0.4,1.6,0,2-0.8s0.4-1.6,0.8-2.4  C240.4,128.4,241.6,119.6,240.4,111.2z"/>
<path style="fill:#FF7058;" d="M427.6,320H410c-4-34.8-31.6-62.4-66.4-66.4V236h-17.2v17.6c-34.8,4-62.4,31.6-66.4,66.4h-17.6v17.2  H260c4,34.8,31.6,62.4,66.4,66.4v17.6h17.2v-17.6c34.8-4,62.4-31.6,66.4-66.4h17.6V320z M343.6,386v-18h-17.2v18  c-25.2-3.6-45.2-23.6-48.8-48.8h18V320h-18c3.6-25.2,23.6-45.2,48.8-48.8v18h17.2v-18c25.2,3.6,45.2,23.6,48.8,48.8h-18v17.2h18  C388.8,362.4,368.8,382.4,343.6,386z"/>
<g>
</g>
<g>
</g>
<g>
</g>
<g>
</g>
<g>
</g>
<g>
</g>
<g>
</g>
<g>
</g>
<g>
</g>
<g>
</g>
<g>
</g>
<g>
</g>
<g>
</g>
<g>
</g>
<g>
</g>
</svg>
