<?xml version="1.0" encoding="iso-8859-1"?>
<!-- Generator: Adobe Illustrator 19.0.0, SVG Export Plug-In . SVG Version: 6.00 Build 0)  -->
<svg xmlns="http://www.w3.org/2000/svg" xmlns:xlink="http://www.w3.org/1999/xlink" version="1.1" id="Layer_1" x="0px" y="0px" viewBox="0 0 508 508" style="enable-background:new 0 0 508 508;" xml:space="preserve">
<circle style="fill:#84DBFF;" cx="254" cy="254" r="254"/>
<path style="fill:#324A5E;" d="M280,106.4H114.4c-5.6,0-10.4,4.8-10.4,10.4v243.6c0,5.6,4.8,10.4,10.4,10.4h165.2  c5.6,0,10.4-4.8,10.4-10.4V116.8C290,110.8,285.6,106.4,280,106.4z"/>
<rect x="120.4" y="142.4" style="fill:#E6E9EE;" width="153.6" height="191.6"/>
<g>
	<rect x="176.4" y="120.8" style="fill:#2B3B4E;" width="41.2" height="7.2"/>
	<circle style="fill:#2B3B4E;" cx="197.2" cy="352.4" r="8.4"/>
</g>
<path style="fill:#FF7058;" d="M322.4,192.8c-8,6.4-8.8,17.6-2.8,25.2l-1.2-1.2c-6.4-6.4-16.8-7.6-24-2c-8,6.4-8.8,17.6-2.8,25.2  l-1.2-1.2c-6.4-6.4-17.2-7.6-24.4-1.6c-8,6.8-8.8,18.8-1.2,26l-56.4-56.8c-6.4-6.4-17.2-7.6-24.4-1.6c-8,6.8-8.8,18.8-1.2,26  l113.6,113.6l-16-0.4l-22-22c-14-14-36.8-14-50.8,0l54.4,54.4l84,9.2c8.4,0.8,16.8-2,22.8-8l70-70c5.6-5.6,5.6-14.4,0-19.6  L346,194.4C339.6,188,329.6,187.2,322.4,192.8z"/>
<g>
</g>
<g>
</g>
<g>
</g>
<g>
</g>
<g>
</g>
<g>
</g>
<g>
</g>
<g>
</g>
<g>
</g>
<g>
</g>
<g>
</g>
<g>
</g>
<g>
</g>
<g>
</g>
<g>
</g>
</svg>
