<?xml version="1.0" encoding="iso-8859-1"?>
<!-- Generator: Adobe Illustrator 19.0.0, SVG Export Plug-In . SVG Version: 6.00 Build 0)  -->
<svg xmlns="http://www.w3.org/2000/svg" xmlns:xlink="http://www.w3.org/1999/xlink" version="1.1" id="Layer_1" x="0px" y="0px" viewBox="0 0 508 508" style="enable-background:new 0 0 508 508;" xml:space="preserve">
<circle style="fill:#84DBFF;" cx="254" cy="254" r="254"/>
<polygon style="fill:#2B3B4E;" points="161.6,320 154.8,308.8 161.6,297.6 174.4,297.6 180.8,308.8 174.4,320 "/>
<polygon style="fill:#324A5E;" points="181.6,364.4 154.4,364.4 161.6,320 174.4,320 "/>
<path style="fill:#FF7058;" d="M168,364c0,0-32.8-66-36.8-64.4c-30.4,13.6-52,44-52.8,79.6H258c-0.8-35.6-22.4-66-53.2-79.6  C200.8,298,168,364,168,364z"/>
<path style="fill:#FFFFFF;" d="M206,228.8c-0.4,0-0.8,0-1.2,0c0,0,0,0,0-0.4c0-19.6-16-36-36-36l0,0l0,0l0,0  c-19.6,0-35.6,16-35.6,36c0,0,0,0,0,0.4c-0.4,0-0.8-0.4-1.2,0c-3.2,0.4-5.2,6-4.8,13.2c0.4,6.8,3.2,12.4,6.4,12.4c0.4,0,0.4,0,0.8,0  c4.8,21.2,21.2,37.2,34.4,37.2c11.6,0,29.2-16,34.4-37.2c0.4,0,0.4,0.4,0.8,0.4c3.2,0.4,6-5.2,6.4-12.4  C211.2,235.2,208.8,229.2,206,228.8z"/>
<path style="fill:#324A5E;" d="M206.4,210.4c-0.4-3.2-1.2-6-2.4-8.8c-0.8-2-2.4-5.2-5.2-6.8c-1.2-0.8-2.4-0.8-3.6-0.8  c-1.6-0.4-3.6-0.4-5.2-0.8c-0.4-1.6-2.4-4.4-5.2-4.8c-1.6-0.4-2.8-0.8-4-0.8c-2-0.4-3.6-1.2-6.8-1.2c-4.4-0.4-8.4,1.2-12.4,2.4  c-2.8,0.8-6,2-9.2,2.4h-1.6c-3.2,0-6.4,0.4-9.2,2c-2.8,2-4.4,5.2-5.2,8c-0.8,1.6-1.2,3.2-2,4.8c-1.6,3.2-2.8,6-3.2,10  c0,0.4,1.6,26,3.2,27.6l0.4,0.4h0.4c1.6,0,2-1.2,4-12.4c0.8-3.6,1.6-8.4,1.6-9.2c5.2-6,9.6-8.8,16-10c1.6-0.4,3.6-0.4,6-0.4  c1.2,0,2.4,0,3.6,0c1.2,0,2.4,0,4,0h0.8c5.2,0,9.6-1.2,12.4-3.6l0,0c1.2,4,4.4,7.2,7.6,10c1.2,1.2,2.8,2.4,4,4  c2.4,2.8,4.4,6.4,4.8,10.4v0.4c0,1.2,1.2,7.6,2,9.2c0.8,1.6,2.8,1.2,3.2-0.4l1.2-16.8C206.8,220,207.2,215.2,206.4,210.4z"/>
<path style="fill:#FFFFFF;" d="M410,114.4H246.8c-5.2,0-9.6,4.4-9.6,9.6v106.8c0,5.2,4.4,9.6,9.6,9.6h12l-18,46.4l63.6-46.4H410  c5.2,0,9.6-4.4,9.6-9.6V124C420,118.4,415.6,114.4,410,114.4z"/>
<g>
</g>
<g>
</g>
<g>
</g>
<g>
</g>
<g>
</g>
<g>
</g>
<g>
</g>
<g>
</g>
<g>
</g>
<g>
</g>
<g>
</g>
<g>
</g>
<g>
</g>
<g>
</g>
<g>
</g>
</svg>
