<?xml version="1.0" encoding="iso-8859-1"?>
<!-- Generator: Adobe Illustrator 19.0.0, SVG Export Plug-In . SVG Version: 6.00 Build 0)  -->
<svg xmlns="http://www.w3.org/2000/svg" xmlns:xlink="http://www.w3.org/1999/xlink" version="1.1" id="Layer_1" x="0px" y="0px" viewBox="0 0 508 508" style="enable-background:new 0 0 508 508;" xml:space="preserve">
<circle style="fill:#FFD05B;" cx="254" cy="254" r="254"/>
<polygon style="fill:#F1543F;" points="242,271.6 230.4,250.8 242,230.4 266,230.4 277.6,250.8 266,271.6 "/>
<polygon style="fill:#FF7058;" points="278.8,352.4 229.2,352.4 242,271.6 266,271.6 "/>
<path style="fill:#324A5E;" d="M254,351.2c0,0-60.4-120.8-67.6-117.6c-55.6,25.6-94.8,80.8-96.4,145.6h328  c-1.6-64.8-41.2-120.4-97.2-145.6C314,230.4,254,351.2,254,351.2z"/>
<path style="fill:#FFFFFF;" d="M249.6,138.8v0.8V138.8z"/>
<circle style="fill:#FF7058;" cx="258" cy="136.8" r="79.2"/>
<path style="fill:#E6E9EE;" d="M258,197.6c-33.6,0-60.8-27.2-60.8-60.8S224.4,76,258,76s60.8,27.2,60.8,60.8S291.6,197.6,258,197.6z  "/>
<path style="fill:#324A5E;" d="M261.6,171.2V182H254v-10.4c-6.8,0-12.8-1.6-18.8-4.4v-13.6c2,1.6,4.8,2.8,8.4,4.4  c4,1.2,7.2,2,10,2.4V142c-7.6-2.8-13.2-6-16-9.2s-4.4-7.6-4.4-12.4c0-5.2,2-9.6,5.6-13.2s8.4-5.6,14.4-6.4v-9.2h7.2v9.2  c6.8,0.4,12,1.6,15.6,3.2v13.2c-4.8-2.8-10-4.4-15.6-5.2v18.8c7.2,2.8,12.4,5.6,15.6,8.8s4.8,7.6,4.8,12c0,5.6-1.6,10-5.2,13.2  C272.8,168.4,268,170.4,261.6,171.2z M254,128v-15.6c-4.4,0.8-6.8,3.2-6.8,7.2C247.2,122.8,249.6,125.6,254,128z M261.6,144.8V160  c4.8-0.8,7.2-3.2,7.2-7.2C268.4,149.2,266,146.8,261.6,144.8z"/>
<g>
</g>
<g>
</g>
<g>
</g>
<g>
</g>
<g>
</g>
<g>
</g>
<g>
</g>
<g>
</g>
<g>
</g>
<g>
</g>
<g>
</g>
<g>
</g>
<g>
</g>
<g>
</g>
<g>
</g>
</svg>
