<?xml version="1.0" encoding="iso-8859-1"?>
<!-- Generator: Adobe Illustrator 19.0.0, SVG Export Plug-In . SVG Version: 6.00 Build 0)  -->
<svg xmlns="http://www.w3.org/2000/svg" xmlns:xlink="http://www.w3.org/1999/xlink" version="1.1" id="Layer_1" x="0px" y="0px" viewBox="0 0 508 508" style="enable-background:new 0 0 508 508;" xml:space="preserve">
<circle style="fill:#84DBFF;" cx="254" cy="254" r="254"/>
<path style="fill:#FFFFFF;" d="M426.4,251.6c0-12.4-10-22.4-22.4-22.4h-4.4c12.4,0,22.4-10,22.4-22.4s-10-22.4-22.4-22.4h-78h2.4  c-4,0.4-8.4-1.6-10.4-4.8c-2.8-4.4-2.8-11.2,0-16c2.4-4.8,6.8-8.4,10.4-12.4c5.2-5.6,10.4-11.6,13.6-18.8c6-13.2,5.2-29.2-2-41.6  c-4.4-7.6-11.2-14-19.2-18c-6.8-3.6-15.2,1.2-16,8.8c-2.8,22-13.6,43.6-31.2,57.2c-6.4,5.2-14,9.2-20.8,13.6  c-15.2,9.2-47.6,32-62.4,42.8l-1.2,167.2h206c12.4,0,22.4-10,22.4-22.4s-10-22.4-22.4-22.4h4.4c12.4,0,22.4-10,22.4-22.4  s-10-22.4-22.4-22.4h8.8C416.4,273.6,426.4,263.6,426.4,251.6z"/>
<path style="fill:#FF7058;" d="M194.8,174.8H81.6V372h113.6c3.2,0,5.6-2.4,5.6-5.6v-186C200.4,177.6,198,174.8,194.8,174.8z"/>
<circle style="fill:#324A5E;" cx="141.2" cy="342.4" r="10"/>
<g>
</g>
<g>
</g>
<g>
</g>
<g>
</g>
<g>
</g>
<g>
</g>
<g>
</g>
<g>
</g>
<g>
</g>
<g>
</g>
<g>
</g>
<g>
</g>
<g>
</g>
<g>
</g>
<g>
</g>
</svg>
