<?xml version="1.0" encoding="iso-8859-1"?>
<!-- Generator: Adobe Illustrator 19.0.0, SVG Export Plug-In . SVG Version: 6.00 Build 0)  -->
<svg xmlns="http://www.w3.org/2000/svg" xmlns:xlink="http://www.w3.org/1999/xlink" version="1.1" id="Layer_1" x="0px" y="0px" viewBox="0 0 508 508" style="enable-background:new 0 0 508 508;" xml:space="preserve">
<circle style="fill:#324A5E;" cx="254" cy="254" r="254"/>
<path style="fill:#4CDBC4;" d="M328.8,261.2l-36.8-5.6c-3.2-0.4-5.6-2-7.6-4c-25.2,30-44.8,11.2-53.6-1.6c-2.4,2.8-5.6,5.2-9.2,6  l-36.4,5.2c-14,2.4-24,14.4-24,28.4v67.6h192v-67.6C352.8,275.6,342.8,263.6,328.8,261.2z"/>
<g>
	<polygon style="fill:#E6E9EE;" points="237.2,265.2 256.8,341.2 275.6,265.2  "/>
	<path style="fill:#E6E9EE;" d="M284.4,251.6c-2.8-2.8-4.4-6.4-4.4-10.8v-24.4h-46.4v24.4c0,3.2-1.2,6.4-2.8,8.8   C239.6,262.8,259.2,281.6,284.4,251.6z"/>
</g>
<g>
	
		<ellipse transform="matrix(0.0688 -0.9976 0.9976 0.0688 101.6098 469.667)" style="fill:#FFFFFF;" cx="302.397" cy="180.403" rx="16" ry="7.2"/>
	
		<ellipse transform="matrix(0.0688 0.9976 -0.9976 0.0688 376.2202 -41.758)" style="fill:#FFFFFF;" cx="210.479" cy="180.653" rx="16" ry="7.2"/>
	<path style="fill:#FFFFFF;" d="M302,164.4c0-25.2-20.4-45.6-45.6-45.6l0,0l0,0l0,0c-25.2,0-45.6,20.4-45.6,45.6   c0,0.8,0,11.6,0,16.8c0,34.4,25.6,62.4,45.6,62.4c17.2,0,45.6-28,45.6-62.4C302,176.4,302,165.2,302,164.4z"/>
</g>
<path style="fill:#CED5E0;" d="M256.4,118.8L256.4,118.8L256.4,118.8L256.4,118.8c-25.2,0-45.6,20.4-45.6,45.6c0,0.4,0,2.8,0,6  c0,6.8-0.8,17.2,0.8,16c3.6-9.2,12-15.6,19.6-20c-0.8,3.2-2.8,6.4-6,8.4c4-0.4,8-1.2,11.2-3.6c1.2-0.8,2.4-2,3.6-3.2  c3.2-3.6,6.8-6.8,10-10.4c0.4,0,0.8-0.4,1.6-0.4c0,3.2-0.8,6-1.6,8.8c6.8-3.6,15.6-9.6,18.8-16.8c1.6-2,2.8-2.4,3.6-2.4  c3.2,4.4,5.6,6.8,9.2,9.6c7.2,5.2,6.4,6.8,15.2,10.8c1.6,0.8,2.8,1.6,4.4,2l0.8,0.4h0.4l0,0c0-2.8,0-4.8,0-4.8  C302,139.2,281.6,118.8,256.4,118.8z"/>
<polygon style="fill:#2B3B4E;" points="251.6,282 246.8,273.6 251.6,265.2 261.2,265.2 265.6,273.6 261.2,282 "/>
<g>
	<polygon style="fill:#FFFFFF;" points="232.4,246.8 242.4,285.2 256.8,265.2  "/>
	<polygon style="fill:#FFFFFF;" points="256.4,265.2 270.8,285.2 280.4,246.8  "/>
</g>
<polygon style="fill:#324A5E;" points="267.2,321.2 256.8,341.2 245.2,321.2 251.6,282 261.2,282 "/>
<g>
	<polygon style="fill:#2C9984;" points="307.6,258.4 280.4,246.8 256.8,341.2 298,286.8 288.4,280  "/>
	<polygon style="fill:#2C9984;" points="205.2,258.4 232.4,246.8 256.8,341.2 214.8,286.8 224.4,280  "/>
</g>
<g>
	<path style="fill:#FFD05B;" d="M386.4,375.2h-41.2l13.6,13.6c-66.8,52-164,47.6-225.6-14s-66-158.8-14-225.6l-14-14   c-60,74.8-55.2,184.4,14,253.6s179.2,74,254,14l13.2,13.2L386.4,375.2z"/>
	<path style="fill:#FFD05B;" d="M388.8,119.2c-69.2-69.2-179.2-74-254-14.4l-13.6-13.6v41.2h41.2l-13.6-13.6   c66.8-52,164-47.6,225.6,14s66,158.8,14,225.6l14,14C462.8,298.4,458,188.4,388.8,119.2z"/>
</g>
<g>
</g>
<g>
</g>
<g>
</g>
<g>
</g>
<g>
</g>
<g>
</g>
<g>
</g>
<g>
</g>
<g>
</g>
<g>
</g>
<g>
</g>
<g>
</g>
<g>
</g>
<g>
</g>
<g>
</g>
</svg>
