<?xml version="1.0" encoding="iso-8859-1"?>
<!-- Generator: Adobe Illustrator 19.0.0, SVG Export Plug-In . SVG Version: 6.00 Build 0)  -->
<svg xmlns="http://www.w3.org/2000/svg" xmlns:xlink="http://www.w3.org/1999/xlink" version="1.1" id="Layer_1" x="0px" y="0px" viewBox="0 0 508 508" style="enable-background:new 0 0 508 508;" xml:space="preserve">
<circle style="fill:#324A5E;" cx="254" cy="254" r="254"/>
<g>
	<polygon style="fill:#E6E9EE;" points="332.8,306 326.4,294.8 332.8,283.6 345.6,283.6 352,294.8 345.6,306  "/>
	<polygon style="fill:#E6E9EE;" points="352.8,350.4 325.6,350.4 332.8,306 345.6,306  "/>
</g>
<path style="fill:#FF7058;" d="M339.2,349.6c0,0-32.8-66-36.8-64.4c-30.4,13.6-52,44-52.8,79.6h179.6c-0.8-35.6-22.4-66-53.2-79.6  C372,283.6,339.2,349.6,339.2,349.6z"/>
<path style="fill:#FFFFFF;" d="M382.4,205.6c-0.4,0-0.8,0-1.2,0v-0.4c0-22.4-18.4-40.8-40.8-40.8l0,0l0,0l0,0  c-22.4,0-40.4,18.4-40.4,40.8c0,0,0,0,0,0.4c-0.4,0-0.8-0.4-1.2-0.4c-3.6,0.4-6,6.8-5.2,14.8c0.4,8,4,14,7.2,14c0.4,0,0.4,0,0.8-0.4  c5.2,24.4,24,42,39.2,42c13.2,0,33.2-18,38.8-42.4c0.4,0,0.8,0.4,0.8,0.4c3.6,0.4,6.8-6,7.2-14C388,212.4,385.6,205.6,382.4,205.6z"/>
<g>
	<path style="fill:#E6E9EE;" d="M382.8,184.4c-0.4-3.6-1.6-6.8-2.8-10c-0.8-2.4-2.8-6-6-7.6c-1.6-0.8-2.8-0.8-4.4-1.2   c-2-0.4-4-0.8-6-0.8c-0.4-2-2.8-4.8-6-5.6c-2-0.4-3.6-0.8-4.8-1.2c-2-0.4-4.4-1.2-7.6-1.2c-5.2-0.4-9.6,1.2-14,2.8   c-3.2,1.2-6.8,2.4-10.8,2.4h-1.6c-3.6,0-7.2,0.4-10.4,2.4c-3.2,2-4.8,6-6,9.2c-0.8,2-1.6,3.6-2.4,5.2c-1.6,3.6-3.2,6.8-3.6,11.6   c0,0.4,1.6,29.6,3.6,31.6l0.4,0.4h1.6c2,0,2.4-1.6,4.4-14c0.8-4,1.6-9.6,2-10.4c6-6.8,10.8-10,18.4-11.6c2-0.4,4-0.8,6.8-0.8   c1.6,0,2.8,0,4.4,0s2.8,0,4.4,0h1.2c6,0,10.8-1.6,14-4l0,0c1.6,4.8,4.8,8,8.4,11.2c1.6,1.6,3.2,2.8,4.4,4.4c2.8,3.2,4.8,7.6,5.6,12   v0.4c0.4,1.2,1.2,8.4,2.4,10.4c0.8,1.6,3.2,1.2,3.6-0.8l1.6-19.2C383.2,195.2,383.6,189.6,382.8,184.4z"/>
	<polygon style="fill:#E6E9EE;" points="240.4,353.2 234.8,318 234.8,318 240,309.2 234.8,300.4 224.4,300.4 219.2,309.2 224.4,318    224.4,318 218.8,353.2  "/>
</g>
<path style="fill:#4CDBC4;" d="M229.6,352.8c0,0-26.4-52.4-29.2-51.2c-24.4,10.8-41.2,35.2-42,63.2h142.8  c-0.8-28.4-18-52.4-42.4-63.2C255.6,300.4,229.6,352.8,229.6,352.8z"/>
<path style="fill:#FFFFFF;" d="M263.6,238c-0.4,0-0.8,0-0.8,0s0,0,0-0.4c0-18-14.4-32.4-32.4-32.4l0,0l0,0l0,0  c-18,0-32.4,14.4-32.4,32.4c0,0,0,0,0,0.4c-0.4,0-0.8,0-1.2,0c-2.8,0-4.8,5.6-4.4,12c0.4,6.4,3.2,11.2,6,11.2c0.4,0,0.4,0,0.4,0  c4.4,19.2,19.2,33.6,31.2,33.6c10.4,0,26.4-14.4,31.2-33.6c0.4,0,0.4,0.4,0.8,0.4c2.8,0,5.6-4.8,6-11.2  C268.4,243.6,266.4,238.4,263.6,238z"/>
<path style="fill:#E6E9EE;" d="M264.4,221.2c-0.4-2.8-1.2-5.6-2-8c-0.8-2-2-4.8-4.8-6c-1.2-0.4-2.4-0.8-3.2-0.8  c-1.6-0.4-3.2-0.4-4.8-0.8c-0.4-1.6-2-4-4.8-4.4c-1.6-0.4-2.8-0.4-3.6-0.8c-1.6-0.4-3.2-0.8-6-1.2c-4-0.4-7.6,0.8-11.2,2  c-2.8,0.8-5.6,2-8.4,2h-1.2c-2.8,0-5.6,0.4-8,2c-2.8,1.6-4,4.8-4.8,7.2c-0.4,1.6-1.2,2.8-2,4.4c-1.2,2.8-2.8,5.6-2.8,9.2  c0,0.4,1.2,23.6,2.8,24.8l0.4,0.4h0.4c1.6,0,2-1.2,3.6-11.2c0.4-3.2,1.2-7.6,1.6-8c4.8-5.6,8.8-8,14.4-9.2c1.6-0.4,3.2-0.4,5.6-0.4  c1.2,0,2.4,0,3.2,0c1.2,0,2.4,0,3.6,0h0.8c4.8,0,8.4-1.2,11.2-3.2l0,0c1.2,3.6,4,6.4,6.8,8.8c1.2,1.2,2.4,2.4,3.6,3.6  c2.4,2.8,4,6,4.4,9.6v0.4c0,0.8,0.8,6.8,1.6,8.4c0.8,1.2,2.8,0.8,2.8-0.4l1.2-15.2C264.8,230,264.8,225.6,264.4,221.2z"/>
<polygon style="fill:#F1543F;" points="121.2,329.6 117.2,322.8 121.2,316 129.2,316 132.8,322.8 129.2,329.6 "/>
<path style="fill:#FFFFFF;" d="M151.2,268.8c-0.4,0-0.4,0-0.8,0l0,0c0-13.6-10.8-24.4-24.4-24.4l0,0l0,0l0,0  c-13.6,0-24.4,11.2-24.4,24.4l0,0c-0.4,0-0.4,0-0.8,0c-2,0-3.6,4-3.2,8.8s2.4,8.4,4.4,8.4h0.4c3.2,14.4,14.4,25.2,23.6,25.2  c8,0,20-10.8,23.6-25.6h0.4c2,0,4-3.6,4.4-8.4C154.8,273.2,153.2,269.2,151.2,268.8z"/>
<polygon style="fill:#FF7058;" points="133.2,356 116.8,356 121.2,329.6 129.2,329.6 "/>
<g>
	<path style="fill:#E6E9EE;" d="M125.2,355.6c0,0-20-39.6-22-38.8c-18.4,8.4-31.2,26.4-32,47.6h108c-0.4-21.2-13.6-39.6-32-48   C144.8,316,125.2,355.6,125.2,355.6z"/>
	<path style="fill:#E6E9EE;" d="M151.6,256c-0.4-2-0.8-4-1.6-6c-0.4-1.6-1.6-3.6-3.6-4.4c-0.8-0.4-1.6-0.4-2.4-0.8   c-1.2,0-2.4-0.4-3.6-0.4c-0.4-1.2-1.6-2.8-3.6-3.2c-1.2-0.4-2-0.4-2.8-0.8c-1.2-0.4-2.4-0.8-4.4-0.8c-3.2,0-5.6,0.8-8.4,1.6   c-2,0.8-4,1.2-6.4,1.6H114c-2,0-4.4,0.4-6,1.6c-2,1.2-2.8,3.6-3.6,5.6c-0.4,1.2-0.8,2.4-1.6,3.2c-1.2,2-2,4-2,6.8   c0,0,1.2,17.6,2,18.8l0.4,0.4h0.4c1.2,0,1.6-0.8,2.8-8.4c0.4-2.4,0.8-5.6,1.2-6c3.6-4,6.4-6,11.2-6.8c1.2-0.4,2.4-0.4,4-0.4   c0.8,0,1.6,0,2.4,0s1.6,0,2.8,0h0.8c3.6,0,6.4-0.8,8.4-2.4l0,0c0.8,2.8,2.8,4.8,5.2,6.8c0.8,0.8,2,1.6,2.8,2.8   c1.6,2,2.8,4.4,3.2,7.2v0.4c0,0.8,0.8,5.2,1.2,6.4c0.4,0.8,2,0.8,2-0.4l0.8-11.6C151.6,262.8,152,259.6,151.6,256z"/>
	<polygon style="fill:#E6E9EE;" points="301.6,142.8 318.8,92.4 267.2,79.6 275.2,94.4 109.6,197.2 111.6,200.4 293.6,128  "/>
</g>
<g>
</g>
<g>
</g>
<g>
</g>
<g>
</g>
<g>
</g>
<g>
</g>
<g>
</g>
<g>
</g>
<g>
</g>
<g>
</g>
<g>
</g>
<g>
</g>
<g>
</g>
<g>
</g>
<g>
</g>
</svg>
