<?xml version="1.0" encoding="iso-8859-1"?>
<!-- Generator: Adobe Illustrator 19.0.0, SVG Export Plug-In . SVG Version: 6.00 Build 0)  -->
<svg xmlns="http://www.w3.org/2000/svg" xmlns:xlink="http://www.w3.org/1999/xlink" version="1.1" id="Layer_1" x="0px" y="0px" viewBox="0 0 508 508" style="enable-background:new 0 0 508 508;" xml:space="preserve">
<circle style="fill:#FFD05B;" cx="254" cy="254" r="254"/>
<ellipse style="fill:#FFFFFF;" cx="212.4" cy="140.8" rx="56" ry="74.8"/>
<path style="fill:#324A5E;" d="M220.8,57.2c-9.6-3.6-19.6-2-29.6,0.4c-2,0.4-3.6,1.2-5.2,2.4c-1.2,1.2-2,2.4-2.8,3.6  c-1.2,1.2-2.8,2-4,2.8c-6.4,4-10.8,10.8-12.4,18.4c-0.4,1.2-0.4,2.4-1.2,2.8c-0.4,0.4-1.2,0.8-2,0.8c-7.2,1.6-12,10-12.4,18  s3.6,40.8,6.4,48.8c2.8-4.8,6.8-0.8,7.6-18.4c0.4-5.6-3.2-10.8-3.6-16.4c0-4.8,0.8-9.6,2.8-14c2-4.8,6.4-9.6,11.2-8.4  c2,0.4,4,2,5.6,3.2c10.4,7.2,24,7.2,36,4c12-2.8,23.6-10.4,36-10c6.8,0,9.6,13.2,10.4,16.8c1.2,4.8,1.2,10,1.2,15.2  c0,4.8-0.8,15.2-1.2,20.4c-0.4,2.8,3.6,4,4.8,1.2c2-4,3.2-13.2,3.2-17.2c0.4-6,0.4-12,0.4-18c0-7.6,0-15.2-2.4-22s-7.6-12.4-12.4-18  c-4.8-5.2-9.6-10.8-16.4-12c-3.6-0.8-7.6,0-11.6-0.8C226.8,60,224,58.4,220.8,57.2z"/>
<path style="fill:#FF7058;" d="M257.6,226.8l-46,70.8L166,226.8c-53.2,18.8-91.2,69.2-91.6,128.4h274.8  C348.8,295.6,310.8,245.2,257.6,226.8z"/>
<g>
	<path style="fill:#324A5E;" d="M426,306.8c0,36.8-30,67.2-67.2,67.2s-67.2-30-67.2-67.2c0-36.8,30-66.8,66.8-67.2v12L378,232   l-19.6-19.6v12c-45.6,0-82.8,37.2-82.8,82.8s37.2,82.8,82.8,82.8s82.8-37.2,82.8-82.8H426V306.8z"/>
	<path style="fill:#324A5E;" d="M332.8,320L332.8,320l20,0.4v8.8h-32.4v-8.4l14-13.6c2.8-2.8,4.8-4.8,6-6.8s1.6-3.6,1.6-5.6   c0-4.4-2.4-6.8-7.2-6.8c-4.4,0-8.4,1.6-12,5.2v-9.6c4.4-2.8,9.2-4,14.4-4c5.2,0,8.8,1.2,11.6,3.6c2.8,2.4,4.4,6,4.4,10   c0,5.6-3.6,11.6-10.4,17.6L332.8,320z"/>
	<path style="fill:#324A5E;" d="M395.2,318.8h-6v10.4h-10v-10.4H358V312l20.4-31.6h10.8v30.8h6L395.2,318.8L395.2,318.8z    M379.6,291.2L379.6,291.2c-0.4,0.8-1.2,2-2,4l-10.4,16.4h12.4V296C379.6,294.4,379.6,292.8,379.6,291.2z"/>
</g>
<g>
</g>
<g>
</g>
<g>
</g>
<g>
</g>
<g>
</g>
<g>
</g>
<g>
</g>
<g>
</g>
<g>
</g>
<g>
</g>
<g>
</g>
<g>
</g>
<g>
</g>
<g>
</g>
<g>
</g>
</svg>
