<?xml version="1.0" encoding="iso-8859-1"?>
<!-- Generator: Adobe Illustrator 19.0.0, SVG Export Plug-In . SVG Version: 6.00 Build 0)  -->
<svg xmlns="http://www.w3.org/2000/svg" xmlns:xlink="http://www.w3.org/1999/xlink" version="1.1" id="Layer_1" x="0px" y="0px" viewBox="0 0 508 508" style="enable-background:new 0 0 508 508;" xml:space="preserve">
<circle style="fill:#FD8469;" cx="254" cy="254" r="254"/>
<path style="fill:#FFFFFF;" d="M288.8,237.6l-42.8-12c-4-0.8-11.2-1.6-14-4c-32.4,38.4-57.2,14.4-68.4-2c-2.8,4-9.6,4.4-14.4,5.6  l-44,13.2c-17.6,2.8-30.8,18-30.8,36V356h244.4v-82C319.2,256,306.4,240.8,288.8,237.6z"/>
<polygon style="fill:#E6E9EE;" points="172,238.8 197.2,335.2 221.2,238.8 "/>
<polygon style="fill:#2B3B4E;" points="190.4,260 184.4,249.2 190.4,238.8 202.4,238.8 208.8,249.2 202.4,260 "/>
<g>
	<polygon style="fill:#324A5E;" points="166,215.2 178.8,264.4 197.2,238.8  "/>
	<polygon style="fill:#324A5E;" points="196.4,238.8 214.8,264.4 227.6,215.2  "/>
	<polygon style="fill:#324A5E;" points="210.8,309.6 197.2,335.2 182.4,309.6 190.4,260 202.8,260  "/>
</g>
<g>
	<polygon style="fill:#CED5E0;" points="262,230 227.6,215.2 197.2,335.2 250,266.4 237.6,257.6  "/>
	<polygon style="fill:#CED5E0;" points="131.6,230 166,215.2 197.2,335.2 143.6,266.4 156,257.6  "/>
</g>
<g>
	<ellipse style="fill:#FFFFFF;" cx="198.4" cy="139.6" rx="52" ry="67.6"/>
	
		<ellipse transform="matrix(0.0648 -0.9979 0.9979 0.0648 89.2825 385.6571)" style="fill:#FFFFFF;" cx="250.389" cy="145.196" rx="14.8" ry="8.8"/>
	
		<ellipse transform="matrix(0.0648 0.9979 -0.9979 0.0648 281.809 -11.0112)" style="fill:#FFFFFF;" cx="146.779" cy="144.839" rx="14.8" ry="8.8"/>
</g>
<g>
	<path style="fill:#324A5E;" d="M181.2,120c-2-0.8-3.6-2-5.6-2.8c-8-3.2-18,1.6-21.2,10.4c-2,5.2-2.4,12.4-6.8,14.8   c-1.2-5.6-1.2-11.2-1.2-16.8c0-8,0-16,1.2-24s4-15.6,8.8-22s12-10.4,19.2-12.8s14.8-2.8,22.4-3.2c4,0,8.8,0,12,2.8   c2,1.6,3.6,4,4.4,6.8c0.8,2.4,3.2-3.6,4-4.4c4-3.2,13.2,0,17.6,2.8c5.2,3.6,8.4,9.6,10.8,15.6c2.8,6.4,2,16.8,2.8,23.6   c0.4,4.4,0,7.2,0.4,17.2c0,3.6-1.6,14.8-3.2,18c-1.2,2-6-9.6-7.2-12c-3.6-7.6-7.2-14.8-9.2-22.8c-2.4-9.2-15.2-13.2-23.2-2.8   C203.6,113.2,198.4,125.2,181.2,120z"/>
	<polygon style="fill:#324A5E;" points="340,260.8 270.4,287.2 340,313.6 409.2,287.2  "/>
</g>
<polygon style="fill:#FFD05B;" points="340,313.6 340,404.4 409.2,378 409.2,287.2 "/>
<g>
	<polygon style="fill:#F9B54C;" points="340,313.6 340,404.4 270.4,378 270.4,287.2  "/>
	<polygon style="fill:#F9B54C;" points="409.2,287.2 340,313.6 366.4,338.4 433.2,308.4  "/>
</g>
<polygon style="fill:#FFD05B;" points="270.4,287.2 246.8,308.4 313.6,338.4 340,313.6 "/>
<g>
</g>
<g>
</g>
<g>
</g>
<g>
</g>
<g>
</g>
<g>
</g>
<g>
</g>
<g>
</g>
<g>
</g>
<g>
</g>
<g>
</g>
<g>
</g>
<g>
</g>
<g>
</g>
<g>
</g>
</svg>
