<?xml version="1.0" encoding="iso-8859-1"?>
<!-- Generator: Adobe Illustrator 19.0.0, SVG Export Plug-In . SVG Version: 6.00 Build 0)  -->
<svg xmlns="http://www.w3.org/2000/svg" xmlns:xlink="http://www.w3.org/1999/xlink" version="1.1" id="Layer_1" x="0px" y="0px" viewBox="0 0 508 508" style="enable-background:new 0 0 508 508;" xml:space="preserve">
<circle style="fill:#FFD05B;" cx="254" cy="254" r="254"/>
<g>
	<path style="fill:#FFFFFF;" d="M184.4,102.4v0.8V102.4z"/>
	<path style="fill:#FFFFFF;" d="M249.6,77.2c-32.4,2-58.8,28-61.6,60.4c-1.6,20.4,6,38.8,18.8,52c12.4,12.4,18.8,29.6,18.8,47.2v1.6   H282v-1.6c0-18,7.6-35.2,20-48c11.2-12,18-28,18-45.6C320.4,105.2,288.4,74.8,249.6,77.2z"/>
</g>
<g>
	<rect x="249.2" y="48.8" style="fill:#324A5E;" width="9.2" height="18.4"/>
	<rect x="330" y="138.8" style="fill:#324A5E;" width="18.4" height="9.2"/>
	<rect x="159.6" y="138.8" style="fill:#324A5E;" width="18.4" height="9.2"/>
	
		<rect x="305.202" y="78.337" transform="matrix(-0.7071 0.7071 -0.7071 -0.7071 595.363 -80.7333)" style="fill:#324A5E;" width="18.4" height="9.2"/>
	
		<rect x="184.389" y="78.34" transform="matrix(-0.7071 -0.7071 0.7071 -0.7071 271.8299 278.4761)" style="fill:#324A5E;" width="18.4" height="9.2"/>
	
		<rect x="212.329" y="59.938" transform="matrix(0.3827 0.9239 -0.9239 0.3827 196.3769 -164.8258)" style="fill:#324A5E;" width="18.4" height="9.2"/>
	
		<rect x="323.594" y="105.983" transform="matrix(-0.9239 0.3827 -0.3827 -0.9239 682.5732 85.3914)" style="fill:#324A5E;" width="18.4" height="9.2"/>
	
		<rect x="165.951" y="171.203" transform="matrix(-0.9239 0.3827 -0.3827 -0.9239 404.2473 271.1946)" style="fill:#324A5E;" width="18.4" height="9.2"/>
	
		<rect x="277.615" y="59.773" transform="matrix(-0.3827 0.9239 -0.9239 -0.3827 456.0502 -175.9735)" style="fill:#324A5E;" width="18.4" height="9.2"/>
	
		<rect x="323.661" y="171.209" transform="matrix(-0.9239 -0.3827 0.3827 -0.9239 573.1042 465.6185)" style="fill:#324A5E;" width="18.4" height="9.2"/>
	
		<rect x="166.023" y="106.021" transform="matrix(-0.9239 -0.3827 0.3827 -0.9239 294.7737 279.8784)" style="fill:#324A5E;" width="18.4" height="9.2"/>
	<path style="fill:#324A5E;" d="M352.8,276.8l-46-12.8c-4-0.8-12-1.6-15.2-4.4c-34.8,41.2-61.6,15.2-73.6-2.4   c-3.2,4-10.4,4.8-15.6,6l-47.2,14c-19.2,3.2-32.8,19.6-32.8,38.8v88h263.2v-88C385.6,296.4,371.6,280,352.8,276.8z"/>
</g>
<polygon style="fill:#E6E9EE;" points="227.2,278 254,381.6 280,278 "/>
<polygon style="fill:#F1543F;" points="246.8,300.4 240.4,289.2 246.8,278 260,278 266.4,289.2 260,300.4 "/>
<g>
	<polygon style="fill:#FFFFFF;" points="220.8,252.4 234.4,305.2 254,278  "/>
	<polygon style="fill:#FFFFFF;" points="253.6,278 273.2,305.2 286.8,252.4  "/>
</g>
<polygon style="fill:#FF7058;" points="268.4,354.4 254,381.6 238.4,354.4 246.8,300.4 260,300.4 "/>
<g>
	<polygon style="fill:#2B3B4E;" points="324,268.4 286.8,252.4 254,381.6 310.8,307.6 297.6,298  "/>
	<polygon style="fill:#2B3B4E;" points="183.6,268.4 220.8,252.4 254,381.6 196.4,307.6 210,298  "/>
</g>
<g>
</g>
<g>
</g>
<g>
</g>
<g>
</g>
<g>
</g>
<g>
</g>
<g>
</g>
<g>
</g>
<g>
</g>
<g>
</g>
<g>
</g>
<g>
</g>
<g>
</g>
<g>
</g>
<g>
</g>
</svg>
