<?xml version="1.0" encoding="iso-8859-1"?>
<!-- Generator: Adobe Illustrator 19.0.0, SVG Export Plug-In . SVG Version: 6.00 Build 0)  -->
<svg xmlns="http://www.w3.org/2000/svg" xmlns:xlink="http://www.w3.org/1999/xlink" version="1.1" id="Layer_1" x="0px" y="0px" viewBox="0 0 508 508" style="enable-background:new 0 0 508 508;" xml:space="preserve">
<circle style="fill:#FD8469;" cx="254" cy="254" r="254"/>
<path style="fill:#FFD05B;" d="M318.4,99.6c-0.4-7.2-6.4-12.4-13.6-12.4H203.2c-7.2,0-12.8,5.6-13.6,12.4l-10.8,161.2h150.4  L318.4,99.6z"/>
<path style="fill:#FFFFFF;" d="M241.6,193.2c-0.4-1.2-0.8-2.4-0.8-3.6c-0.4-1.2-0.4-2.8-0.4-4c0-2,0-3.6,0.4-5.2  c0.4-1.6,0.8-3.2,1.6-4.4c0.8-1.6,1.6-2.8,2.8-4s2.4-2.4,4-4c1.6-1.2,3.2-2.8,4.4-3.6c1.2-1.2,2.4-2.4,3.2-3.6  c0.8-1.2,1.6-2.4,2-3.6c0.4-1.2,0.8-2.8,0.8-4s-0.4-2.4-0.8-3.6c-0.4-1.2-1.2-2-2-2.8s-2-1.6-3.2-2s-2.8-0.8-4-0.8  c-3.2,0-6.8,0.8-10.4,2c-3.6,1.2-6.8,3.6-10,6.4v-19.2c3.2-2,6.8-3.6,10.8-4.4c4-0.8,8-1.6,12-1.6s7.6,0.4,11.2,1.2s6.4,2.4,8.8,4  c2.4,2,4.4,4.4,6,7.2s2,6.4,2,10.4c0,2.4-0.4,4.8-0.8,7.2c-0.4,2-1.6,4-2.8,6c-1.2,2-2.4,3.6-4.4,5.2c-1.6,1.6-3.6,3.6-6,5.2  c-1.6,1.2-2.8,2.4-4,3.6c-1.2,1.2-2,2-2.8,3.2s-1.2,2-1.6,3.2s-0.4,2.4-0.4,4c0,1.2,0,2,0.4,3.2s0.8,2,1.2,2.8h-17.2V193.2z   M250.8,221.2c-3.6,0-6.4-1.2-8.4-3.2c-2.4-2-3.2-4.8-3.2-7.6s1.2-5.6,3.2-7.6c2.4-2,5.2-3.2,8.4-3.2s6,1.2,8.4,3.2  c2.4,2,3.2,4.4,3.2,7.6c0,3.2-1.2,5.6-3.2,7.6C256.8,220,254,221.2,250.8,221.2z"/>
<path style="fill:#2B3B4E;" d="M270,297.6h72.4c0.4,0,0.4,0,0.8,0H164.8c0.4,0,0.4,0,0.8,0H238v93.2h32V297.6z"/>
<g>
	<path style="fill:#324A5E;" d="M363.2,278l5.2-67.2c0.8-8.8-6.4-16.8-15.6-16.8c-8,0-14.8,6.4-15.6,14.4l-3.2,44.8   c-28-6.4-55.6-8-80-7.6c-24.4-0.4-52,1.2-80,7.6l-3.2-44.4c-0.4-8-7.2-14.4-15.6-14.4c-9.2,0-16.4,7.6-15.6,16.8l5.2,66.8   c0.8,10.8,9.6,18.8,20,19.2h178.4C353.6,296.8,362.4,288.8,363.2,278z"/>
	<path style="fill:#324A5E;" d="M238,390.4L238,390.4h-23.6c-16.8,0-30.4,13.6-30.4,30.4h140c0-16.8-13.6-30.4-30.4-30.4H270l0,0   H238z"/>
</g>
<g>
</g>
<g>
</g>
<g>
</g>
<g>
</g>
<g>
</g>
<g>
</g>
<g>
</g>
<g>
</g>
<g>
</g>
<g>
</g>
<g>
</g>
<g>
</g>
<g>
</g>
<g>
</g>
<g>
</g>
</svg>
