<?xml version="1.0" encoding="iso-8859-1"?>
<!-- Generator: Adobe Illustrator 19.0.0, SVG Export Plug-In . SVG Version: 6.00 Build 0)  -->
<svg xmlns="http://www.w3.org/2000/svg" xmlns:xlink="http://www.w3.org/1999/xlink" version="1.1" id="Layer_1" x="0px" y="0px" viewBox="0 0 508 508" style="enable-background:new 0 0 508 508;" xml:space="preserve">
<circle style="fill:#84DBFF;" cx="254" cy="254" r="254"/>
<rect x="230.4" y="182.8" style="fill:#324A5E;" width="47.6" height="65.6"/>
<polygon style="fill:#E6E9EE;" points="154.8,77.6 220.8,204.8 287.6,204.8 221.2,77.6 "/>
<polygon style="fill:#FFFFFF;" points="286.8,77.6 220.4,204.8 287.2,204.8 353.2,77.6 "/>
<path style="fill:#FF7058;" d="M361.2,336.8c3.2-3.2,3.2-8.4,0-11.2l-8.8-8.8c-2.4-2.4-3.2-6-1.6-8.8l4.8-11.6c1.6-4,0-8.8-4.4-10.4  l-12.4-5.2c-2.8-1.2-4.8-4-4.8-7.6v-13.6c0-4.4-3.6-8-8-8h-12.4c-3.2,0-6.4-2-7.6-5.2l-4.8-11.6c-1.6-4-6.4-6-10.4-4.4l-12.8,5.2  c-2.8,1.2-6.4,0.4-8.8-1.6l-9.6-9.6c-3.2-3.2-8.4-3.2-11.2,0l-8.8,8.8c-2.4,2.4-6,3.2-8.8,1.6l-11.6-4.8c-4-1.6-8.8,0-10.4,4.4  l-5.2,12.4c-1.2,2.8-4,4.8-7.6,4.8h-14c-4.4,0-8,3.6-8,8V272c0,3.2-2,6.4-5.2,7.6l-11.6,4.8c-4,1.6-6,6.4-4.4,10.4l5.2,12.8  c1.2,2.8,0.4,6.4-1.6,8.8l-9.6,9.6c-3.2,3.2-3.2,8.4,0,11.2l8.8,8.8c2.4,2.4,3.2,6,1.6,8.8l-4.8,11.2c-1.6,4,0,8.8,4.4,10.4  l12.4,5.2c2.8,1.2,4.8,4,4.8,7.6v13.6c0,4.4,3.6,8,8,8h12.4c3.2,0,6.4,2,7.6,5.2l4.8,11.6c1.6,4,6.4,6,10.4,4.4l12.8-5.2  c2.8-1.2,6.4-0.4,8.8,1.6l9.6,9.6c3.2,3.2,8.4,3.2,11.2,0l8.8-8.8c2.4-2.4,6-3.2,8.8-1.6l11.6,4.8c4,1.6,8.8,0,10.4-4.4l5.2-12.4  c1.2-2.8,4-4.8,7.6-4.8h14c4.4,0,8-3.6,8-8v-12.4c0-3.2,2-6.4,5.2-7.6l11.6-4.8c4-1.6,6-6.4,4.4-10.4l-5.2-12.4  c-1.2-2.8-0.4-6.4,1.6-8.8L361.2,336.8z"/>
<circle style="fill:#E6E9EE;" cx="254" cy="331.2" r="68"/>
<path style="fill:#324A5E;" d="M277.2,368.4h-46v-12.8h15.2V310l-15.6,3.2V300l31.6-6.4v61.6h15.2v13.2H277.2z"/>
<g>
</g>
<g>
</g>
<g>
</g>
<g>
</g>
<g>
</g>
<g>
</g>
<g>
</g>
<g>
</g>
<g>
</g>
<g>
</g>
<g>
</g>
<g>
</g>
<g>
</g>
<g>
</g>
<g>
</g>
</svg>
