<?xml version="1.0" encoding="iso-8859-1"?>
<!-- Generator: Adobe Illustrator 19.0.0, SVG Export Plug-In . SVG Version: 6.00 Build 0)  -->
<svg xmlns="http://www.w3.org/2000/svg" xmlns:xlink="http://www.w3.org/1999/xlink" version="1.1" id="Layer_1" x="0px" y="0px" viewBox="0 0 508 508" style="enable-background:new 0 0 508 508;" xml:space="preserve">
<circle style="fill:#90DFAA;" cx="254" cy="254" r="254"/>
<path style="fill:#324A5E;" d="M328.4,316.4c-8.4-24.4-28.8-43.2-54-50l0,0c-2-2-3.2-4.8-3.2-7.6v-6.4c6.4-6.4,12.4-15.2,14.8-26  c0.4,0,0.4,0.4,0.8,0.4c2.8,0,5.6-4.8,6-11.6c0.4-6.4-1.6-12-4.4-12c-0.4,0-0.8,0-0.8,0s0,0,0-0.4c0-1.6,0-2.8-0.4-4.4  c0-1.2,0-2.4-0.4-3.6c-0.4-3.6-0.8-7.6-1.6-11.2c-0.4-3.6-1.2-5.2-2.8-8.4c-2.4-4-6.8-6.8-11.6-7.6s-9.6-0.8-14.4-0.8  c-7.2,0.4-14.4-1.2-20.8,1.6c-6.4,2.4-12.4,7.6-14.4,14.4c-0.8,2.8-0.8,6-0.8,9.2c0,2,0,4,0.4,6c-0.4,1.6-0.4,3.2-0.4,4.8  c0,0,0,0,0,0.4c-0.4,0-0.8,0-1.2,0c-2.8,0-4.8,5.6-4.4,12c0.4,6.4,3.2,11.6,6,11.6c0.4,0,0.4,0,0.8,0c2.4,11.2,8.4,20.8,15.6,27.2  v5.2c0,2.4-0.8,5.2-2,7.2l0,0c-26,6.4-46.8,25.6-55.6,50.8c-4.4,12.4,4.8,25.2,18,25.2h113.2C323.6,341.6,332.8,328.8,328.4,316.4z"/>
<path style="fill:#FFFFFF;" d="M254,436.4c-100.8,0-182.4-82-182.4-182.4S153.2,71.6,254,71.6s182.4,82,182.4,182.4  S354.8,436.4,254,436.4z M254,95.2c-87.6,0-158.8,71.2-158.8,158.8S166.4,412.8,254,412.8S412.8,341.6,412.8,254  S341.6,95.2,254,95.2z"/>
<g>
	<rect x="242" y="34.8" style="fill:#FF7058;" width="24" height="104.4"/>
	<rect x="242" y="368.8" style="fill:#FF7058;" width="24" height="104.4"/>
	<rect x="368.8" y="242" style="fill:#FF7058;" width="104.4" height="24"/>
	<rect x="34.8" y="242" style="fill:#FF7058;" width="104.4" height="24"/>
</g>
<g>
</g>
<g>
</g>
<g>
</g>
<g>
</g>
<g>
</g>
<g>
</g>
<g>
</g>
<g>
</g>
<g>
</g>
<g>
</g>
<g>
</g>
<g>
</g>
<g>
</g>
<g>
</g>
<g>
</g>
</svg>
