<?xml version="1.0" encoding="iso-8859-1"?>
<!-- Generator: Adobe Illustrator 19.0.0, SVG Export Plug-In . SVG Version: 6.00 Build 0)  -->
<svg xmlns="http://www.w3.org/2000/svg" xmlns:xlink="http://www.w3.org/1999/xlink" version="1.1" id="Layer_1" x="0px" y="0px" viewBox="0 0 508 508" style="enable-background:new 0 0 508 508;" xml:space="preserve">
<circle style="fill:#324A5E;" cx="254" cy="254" r="254"/>
<path style="fill:#E6E9EE;" d="M380,106.8H128c-5.2,0-9.6,4.4-9.6,9.6v254.4c0,5.2,4.4,9.6,9.6,9.6h252.4c5.2,0,9.6-4.4,9.6-9.6  V116.4C389.6,111.2,385.6,106.8,380,106.8z"/>
<rect x="143.2" y="132" style="fill:#FFFFFF;" width="221.6" height="223.6"/>
<circle style="fill:#324A5E;" cx="254" cy="243.6" r="50"/>
<g>
	<rect x="326" y="380.4" style="fill:#CED5E0;" width="34.4" height="20.8"/>
	<rect x="147.6" y="380.4" style="fill:#CED5E0;" width="34.4" height="20.8"/>
</g>
<g>
	<rect x="353.6" y="157.6" style="fill:#324A5E;" width="22.4" height="52.8"/>
	<rect x="353.6" y="276.8" style="fill:#324A5E;" width="22.4" height="52.8"/>
</g>
<g>
	<circle style="fill:#E6E9EE;" cx="254" cy="243.6" r="26"/>
	<rect x="251.2" y="200.4" style="fill:#E6E9EE;" width="5.6" height="11.6"/>
	<rect x="251.2" y="275.2" style="fill:#E6E9EE;" width="5.6" height="11.6"/>
	<rect x="285.6" y="240.8" style="fill:#E6E9EE;" width="11.6" height="5.6"/>
	<rect x="210.8" y="240.8" style="fill:#E6E9EE;" width="11.6" height="5.6"/>
	
		<rect x="277.71" y="211.156" transform="matrix(-0.7071 -0.7071 0.7071 -0.7071 325.4497 568.7176)" style="fill:#E6E9EE;" width="5.6" height="11.6"/>
	
		<rect x="224.738" y="264.463" transform="matrix(-0.7071 -0.7071 0.7071 -0.7071 197.3263 622.2607)" style="fill:#E6E9EE;" width="5.6" height="11.6"/>
	
		<rect x="277.762" y="264.252" transform="matrix(0.7071 -0.7071 0.7071 0.7071 -108.7811 277.484)" style="fill:#E6E9EE;" width="5.6" height="11.6"/>
	
		<rect x="224.715" y="211.499" transform="matrix(0.7071 -0.7071 0.7071 0.7071 -87.0162 224.5228)" style="fill:#E6E9EE;" width="5.6" height="11.6"/>
</g>
<rect x="250.8" y="217.6" style="fill:#FF7058;" width="6.4" height="14.4"/>
<g>
</g>
<g>
</g>
<g>
</g>
<g>
</g>
<g>
</g>
<g>
</g>
<g>
</g>
<g>
</g>
<g>
</g>
<g>
</g>
<g>
</g>
<g>
</g>
<g>
</g>
<g>
</g>
<g>
</g>
</svg>
