<?xml version="1.0" encoding="iso-8859-1"?>
<!-- Generator: Adobe Illustrator 19.0.0, SVG Export Plug-In . SVG Version: 6.00 Build 0)  -->
<svg xmlns="http://www.w3.org/2000/svg" xmlns:xlink="http://www.w3.org/1999/xlink" version="1.1" id="Layer_1" x="0px" y="0px" viewBox="0 0 508 508" style="enable-background:new 0 0 508 508;" xml:space="preserve">
<circle style="fill:#84DBFF;" cx="254" cy="254" r="254"/>
<path style="fill:#FFFFFF;" d="M323.6,241.6c-0.8,0-1.2,0-2-0.4c-2-1.2-2.8-3.6-1.6-5.2l55.2-105.2c0.8-1.2,2-2,3.6-2l0,0  c1.6,0,2.8,0.8,3.6,2L437.6,236c1.2,2,0.4,4.4-1.6,5.2c-2,1.2-4.4,0.4-5.2-1.6l-52.4-98.8l-51.2,98.4  C326.4,240.8,324.8,241.6,323.6,241.6z"/>
<path style="fill:#324A5E;" d="M319.2,236.8c0.4,32.4,26.8,58.8,59.2,58.8s58.8-26,59.2-58.8H319.2z"/>
<path style="fill:#FFFFFF;" d="M74.4,241.6c-0.8,0-1.2,0-2-0.4c-2-1.2-2.8-3.6-1.6-5.2L126,130.4c0.8-1.2,2-2,3.6-2l0,0  c1.6,0,2.8,0.8,3.6,2l55.2,105.2c1.2,2,0.4,4.4-1.6,5.2c-2,1.2-4.4,0.4-5.2-1.6l-52-98.4L78,239.2C77.2,240.8,76,241.6,74.4,241.6z"/>
<g>
	<path style="fill:#324A5E;" d="M70.4,236.8c0.4,32.4,26.8,58.8,59.2,58.8s58.8-26,59.2-58.8H70.4z"/>
	<rect x="98.4" y="120.8" style="fill:#324A5E;" width="311.2" height="19.6"/>
	<rect x="242.8" y="91.6" style="fill:#324A5E;" width="22.4" height="303.2"/>
</g>
<circle style="fill:#FFFFFF;" cx="254" cy="130.4" r="22.8"/>
<circle style="fill:#FF7058;" cx="254" cy="130.4" r="11.6"/>
<path style="fill:#324A5E;" d="M294,390.8h-80c-14.4,0-26,11.6-26,26l0,0h132l0,0C320,402.4,308.4,390.8,294,390.8z"/>
<g>
</g>
<g>
</g>
<g>
</g>
<g>
</g>
<g>
</g>
<g>
</g>
<g>
</g>
<g>
</g>
<g>
</g>
<g>
</g>
<g>
</g>
<g>
</g>
<g>
</g>
<g>
</g>
<g>
</g>
</svg>
