<?xml version="1.0" encoding="iso-8859-1"?>
<!-- Generator: Adobe Illustrator 19.0.0, SVG Export Plug-In . SVG Version: 6.00 Build 0)  -->
<svg xmlns="http://www.w3.org/2000/svg" xmlns:xlink="http://www.w3.org/1999/xlink" version="1.1" id="Layer_1" x="0px" y="0px" viewBox="0 0 508 508" style="enable-background:new 0 0 508 508;" xml:space="preserve">
<circle style="fill:#90DFAA;" cx="254" cy="254" r="254"/>
<path style="fill:#FFFFFF;" d="M345.6,79.2c-43.6,0-78.8,35.2-78.8,78.8c0,11.2,2.4,21.6,6.4,31.2l0,0l-19.6,58.4l58-18.4l0,0  c10.4,4.8,21.6,7.6,34,7.6c43.6,0,78.8-35.2,78.8-78.8C424.4,114.4,389.2,79.2,345.6,79.2z"/>
<path style="fill:#324A5E;" d="M290.4,397.2c-0.4-54.8-44.8-98.8-99.6-98.8s-99.2,44-99.6,98.8H290.4z"/>
<g>
	
		<ellipse transform="matrix(0.0688 -0.9976 0.9976 0.0688 -18.3317 453.1728)" style="fill:#FFFFFF;" cx="233.595" cy="236.407" rx="14.8" ry="6.8"/>
	
		<ellipse transform="matrix(0.0688 0.9976 -0.9976 0.0688 374.2155 72.124)" style="fill:#FFFFFF;" cx="148.472" cy="236.524" rx="14.8" ry="6.8"/>
</g>
<g>
	<path style="fill:#E6E9EE;" d="M216.8,301.6c-2.4-2.4-4.4-6-4.4-10v-22.4H170V292c0,3.2-1.2,6.8-2.8,9.2c4.8,6.8,12.8,17.6,23.6,18   C198.4,319.6,207.2,313.2,216.8,301.6z"/>
	<polygon style="fill:#E6E9EE;" points="186,335.6 181.2,327.6 186,319.2 195.6,319.2 200.4,327.6 195.6,335.6  "/>
	<polygon style="fill:#E6E9EE;" points="201.6,374.4 191.2,394.4 180,374.4 186,335.6 195.6,335.6  "/>
</g>
<path style="fill:#FFFFFF;" d="M233.2,221.6c0-23.2-18.8-42.4-42.4-42.4l0,0l0,0l0,0c-23.2,0-42,18.8-42,42.4c0,0.8,0,10.8,0,15.6  c0,32,24,58,42.4,58c16,0,42-26,42-58C233.2,232.4,233.2,222.4,233.2,221.6z"/>
<path style="fill:#324A5E;" d="M151.6,240.8c-1.2-10.8-2.4-22-2.4-33.2c0-4,0-7.6,0.8-11.6c2.4-8.8,10-15.2,18-18.4  c8.4-3.2,17.2-1.6,26.4-2c6-0.4,12-0.4,18,0.8s11.6,4.8,14.8,9.6c2.4,4,3.2,6,3.6,10.4c0.8,4.8,1.6,9.2,1.6,14  c0.8,11.2,0,22.8-2.8,34c0,0.4-0.4,1.2-0.8,1.6c-0.8,1.2-2.8,0.4-3.6-0.8s-0.8-2.8-0.8-4.4c0.4-7.2,0-14.8-0.8-22  c-0.4-5.2-1.6-10.4-5.2-14.4c-5.2-5.6-13.6-1.6-22.8,2.4c-2.4,1.2-8.4,0.8-11.2,0c-3.2-1.2-12.4-8-15.6-6.8  c-7.2,2.8-10.8,11.2-11.6,18.8s0.4,15.6-0.8,23.2c0,0.8-0.4,1.2-0.8,1.6c-0.8,0.8-2.4,0.4-3.2-0.4C152,243.6,151.6,242,151.6,240.8z  "/>
<g>
	<polygon style="fill:#FF7058;" points="167.2,301.2 177.2,339.2 192,319.2  "/>
	<polygon style="fill:#FF7058;" points="191.6,319.2 206.4,339.2 216.8,301.6  "/>
	<path style="fill:#FF7058;" d="M400,165.6v-18.4l-11.2-2c-0.8-3.6-2.4-7.2-4.4-10.4l6.4-9.6L378,112.4l-9.6,6.4   c-3.2-2-6.8-3.2-10.4-4.4l-2-11.2h-18.4l-2,11.2c-3.6,0.8-7.2,2.4-10.4,4.4l-9.6-6.4l-12.8,12.8l6.4,9.6c-2,3.2-3.2,6.8-4.4,10.4   l-11.2,2v18.4l11.2,2c0.8,3.6,2.4,7.2,4.4,10.4l-6.4,9.6l12.8,12.8l9.6-6.4c3.2,2,6.8,3.2,10.4,4.4l2,11.2H356l2-11.2   c3.6-0.8,7.2-2.4,10.4-4.4l9.6,6.4l12.8-12.8L384,178c2-3.2,3.2-6.8,4.4-10.4L400,165.6z M346.8,182.4c-14,0-25.6-11.6-25.6-25.6   s11.6-25.6,25.6-25.6s25.6,11.6,25.6,25.6C372.4,170.8,360.8,182.4,346.8,182.4z"/>
</g>
<g>
</g>
<g>
</g>
<g>
</g>
<g>
</g>
<g>
</g>
<g>
</g>
<g>
</g>
<g>
</g>
<g>
</g>
<g>
</g>
<g>
</g>
<g>
</g>
<g>
</g>
<g>
</g>
<g>
</g>
</svg>
