<?xml version="1.0" encoding="iso-8859-1"?>
<!-- Generator: Adobe Illustrator 19.0.0, SVG Export Plug-In . SVG Version: 6.00 Build 0)  -->
<svg xmlns="http://www.w3.org/2000/svg" xmlns:xlink="http://www.w3.org/1999/xlink" version="1.1" id="Layer_1" x="0px" y="0px" viewBox="0 0 508 508" style="enable-background:new 0 0 508 508;" xml:space="preserve">
<circle style="fill:#324A5E;" cx="254" cy="254" r="254"/>
<path style="fill:#E6E9EE;" d="M227.2,200c-2.8-2.8-4.8-6.8-4.8-11.2v-26h-48.8v26c0,3.6-1.2,6.8-3.2,9.2c5.6,8,14.8,21.2,27.2,21.6  C206,220.4,216.4,213.2,227.2,200z"/>
<path style="fill:#4CDBC4;" d="M280,219.2l-38-10.8c-3.6-0.4-10-1.6-12.4-3.6c-28.8,34-51.2,12.8-61.2-2c-2.4,3.2-8.4,4-13.2,4.8  L116,219.2c-15.6,2.8-27.2,16.4-27.2,32.4v72.8h218.4v-73.2C307.2,235.6,295.6,222,280,219.2z"/>
<polygon style="fill:#E6E9EE;" points="175.6,220 198,306.4 219.6,220 "/>
<polygon style="fill:#2B3B4E;" points="192,238.8 186.8,229.6 192,220 202.8,220 208.4,229.6 202.8,238.8 "/>
<g>
	<polygon style="fill:#FFFFFF;" points="170.4,198.8 181.6,242.8 198,220  "/>
	<polygon style="fill:#FFFFFF;" points="197.6,220 213.6,242.8 225.2,198.8  "/>
</g>
<polygon style="fill:#324A5E;" points="210,283.6 198,306.4 184.8,283.6 192,238.8 202.8,238.8 "/>
<g>
	<polygon style="fill:#2C9984;" points="256,212.4 225.2,198.8 198,306.4 245.2,244.8 234,236.8  "/>
	<polygon style="fill:#2C9984;" points="139.6,212.4 170.4,198.8 198,306.4 150.4,244.8 161.2,236.8  "/>
</g>
<path style="fill:#FFFFFF;" d="M246.4,131.2c-0.8,0-1.6,0-2,0.4c0-1.2,0-2.4,0-3.2s0-1.2,0-2c0-0.4,0-0.8,0-0.8  C243.2,98.8,222.8,78,197.6,78s-45.6,21.2-46.8,47.6c0,0.4,0,0.8,0,0.8c0,0.8,0,1.2,0,2c0,1.2,0,2.4,0,3.2c-0.8-0.4-1.6-0.4-2-0.4  c-4.4,0.8-6.4,8-4.8,15.6c1.6,8,6,13.6,10.4,12.8c0.8,0,1.2-0.4,1.6-0.8c6.8,20.4,20.4,38.8,42,38.8c21.2,0,35.2-18.4,41.6-38.8  c0.4,0.4,1.2,0.8,1.6,0.8c4.4,0.8,8.8-4.8,10.4-12.8C252.8,138.8,250.8,132,246.4,131.2z"/>
<g>
	<path style="fill:#E6E9EE;" d="M244.4,110.8c-0.8-7.6-3.6-14.8-6.4-21.6c-0.8-2-1.6-4-2.8-6c-2.8-4.4-7.6-7.6-13.2-8.4   c-2-0.4-4.4,0-5.6,1.6c-0.4,0.4-0.4,0.8-0.4,0.8c-1.2-1.6-2.4-2.8-4-3.6c-2-1.2-4.4-1.6-6.8-1.6c-11.6-1.2-20.8,1.2-32,3.2   c-5.6,0.8-13.2,5.6-16.8,14c-3.2,7.6-5.2,13.6-6.8,21.6c-1.2,5.6,0,19.2,2.8,26.8c0.4,1.6,2.8,2,4,0.4c4-6.4,5.2-19.2,7.6-25.2   c0.8-2,1.6-3.6,2-5.6c0.8-2,1.6-3.6,2.8-5.2c1.2-1.2,3.6-2,5.2-1.2c2.4,1.2,2.8,4.8,4.4,7.2c2,2.4,5.6,2.4,8.4,2.4   c5.6,0,10.8,0,16.4,0c2.4,0,4.4,0,6.4-0.8c2.4-1.2,4-3.6,5.2-6c0.4-1.2,0.8-2.4,0.8-3.2c0.4,0.4,0.4,1.2,0.8,1.6   c2.4,4.4,5.6,8.4,9.6,11.6c2.4,1.6,4.8,3.2,6.8,5.2c4.4,4.8,5.6,11.2,6,17.6c0,1.2,0.4,2.4,1.2,2.8c0.8,0.4,1.6,0,2-0.8   s0.4-1.6,0.8-2.4C244.4,127.6,245.2,119.2,244.4,110.8z"/>
	<path style="fill:#E6E9EE;" d="M334,241.2c0,0-38,34.4-85.2,27.2v27.2c0,21.6,3.6,42.8,11.6,62.8c11.2,28,32.4,59.6,73.2,70l0,0   c0,0,0,0,0.4,0c0,0,0,0,0.4,0l0,0c40.8-10.4,62-42.4,73.2-70.4c8-20,11.6-41.2,11.6-62.8V268C372,275.2,334,241.2,334,241.2z"/>
</g>
<g>
	<path style="fill:#FFFFFF;" d="M334,261.2c-13.6,9.2-38.4,23.2-68.8,24v10c0,14.4,1.6,28,5.2,41.2H334V261.2z"/>
	<path style="fill:#FFFFFF;" d="M334,336.4v75.2l0,0c26.4-8,46-27.6,58.4-59.2c2-5.2,3.6-10.4,5.2-16L334,336.4L334,336.4z"/>
</g>
<g>
	<path style="fill:#FFD05B;" d="M397.6,336.4c3.6-12.8,5.2-26.8,5.2-41.2v-10c-30.4-0.8-55.6-14.8-68.8-24l0,0v75.2L397.6,336.4   L397.6,336.4z"/>
	<path style="fill:#FFD05B;" d="M270.4,336.4c1.6,5.6,3.2,10.8,5.2,16C288,384,308,403.6,334,411.6v-75.2H270.4z"/>
</g>
<g>
</g>
<g>
</g>
<g>
</g>
<g>
</g>
<g>
</g>
<g>
</g>
<g>
</g>
<g>
</g>
<g>
</g>
<g>
</g>
<g>
</g>
<g>
</g>
<g>
</g>
<g>
</g>
<g>
</g>
</svg>
