<?xml version="1.0" encoding="iso-8859-1"?>
<!-- Generator: Adobe Illustrator 19.0.0, SVG Export Plug-In . SVG Version: 6.00 Build 0)  -->
<svg xmlns="http://www.w3.org/2000/svg" xmlns:xlink="http://www.w3.org/1999/xlink" version="1.1" id="Layer_1" x="0px" y="0px" viewBox="0 0 508 508" style="enable-background:new 0 0 508 508;" xml:space="preserve">
<circle style="fill:#90DFAA;" cx="254" cy="254" r="254"/>
<path style="fill:#324A5E;" d="M380,283.2L228,190c-4-2.4-8.8-4-13.2-4.4l-25.6-2l-63.6,98.8l31.6,40L276,397.6  c8.8,5.6,20.8,4,26.8-4.4c5.2-7.2,4.4-16.4-0.4-22.8l1.6,1.2c8.8,5.6,20.8,3.6,26.8-4.8c5.6-8.4,4-19.2-3.2-25.6l3.6,2  c8.4,5.2,19.2,4,25.6-3.6c7.2-8.4,5.6-20.8-2.4-27.2l4.8,2.8c8.4,5.2,20,4,26-4C391.6,302,389.2,289.2,380,283.2z"/>
<path style="fill:#FFFFFF;" d="M292.8,171.6L224.4,206v61.6h9.2c13.2,0,24-10.8,24-24v-16.8l22-6l87.2,54.4l25.2-46.8L292.8,171.6z"/>
<polygon style="fill:#FFD05B;" points="319.2,109.2 284.4,166.8 399.6,234 432.8,174.8 "/>
<polygon style="fill:#FF7058;" points="136.8,140 194,175.2 122,287.6 65.2,250 "/>
<g>
	<path style="fill:#FFFFFF;" d="M282.4,358c7.6,5.6,8.8,16.4,3.2,23.6l-13.6,18c-5.6,7.6-16.4,8.8-23.6,3.2   c-7.6-5.6-8.8-16.4-3.2-23.6l13.6-18C264.4,354,274.8,352.4,282.4,358z"/>
	<path style="fill:#FFFFFF;" d="M253.6,341.2c7.6,5.6,8.8,16.4,3.2,23.6l-13.6,18c-5.6,7.6-16.4,8.8-23.6,3.2   c-7.6-5.6-8.8-16.4-3.2-23.6l13.6-18C235.2,337.2,246,335.6,253.6,341.2z"/>
	<path style="fill:#FFFFFF;" d="M224.4,324.4c7.6,5.6,8.8,16.4,3.2,23.6L214,366.4c-5.6,7.6-16.4,8.8-23.6,3.2   c-7.6-5.6-8.8-16.4-3.2-23.6l13.6-18C206.4,320.4,216.8,318.8,224.4,324.4z"/>
	<path style="fill:#FFFFFF;" d="M195.6,307.6c7.6,5.6,8.8,16.4,3.2,23.6l-13.6,18c-5.6,7.6-16.4,8.8-23.6,3.2   c-7.6-5.6-8.8-16.4-3.2-23.6l13.6-18C177.2,303.6,188,302,195.6,307.6z"/>
</g>
<g>
	<circle style="fill:#324A5E;" cx="394" cy="191.6" r="8"/>
	<circle style="fill:#324A5E;" cx="104.4" cy="247.6" r="8"/>
</g>
<g>
</g>
<g>
</g>
<g>
</g>
<g>
</g>
<g>
</g>
<g>
</g>
<g>
</g>
<g>
</g>
<g>
</g>
<g>
</g>
<g>
</g>
<g>
</g>
<g>
</g>
<g>
</g>
<g>
</g>
</svg>
