<?xml version="1.0" encoding="iso-8859-1"?>
<!-- Generator: Adobe Illustrator 19.0.0, SVG Export Plug-In . SVG Version: 6.00 Build 0)  -->
<svg xmlns="http://www.w3.org/2000/svg" xmlns:xlink="http://www.w3.org/1999/xlink" version="1.1" id="Layer_1" x="0px" y="0px" viewBox="0 0 508 508" style="enable-background:new 0 0 508 508;" xml:space="preserve">
<circle style="fill:#84DBFF;" cx="254" cy="254" r="254"/>
<path style="fill:#324A5E;" d="M322.8,82.4H185.2c-2.8,0-4.8,2-4.8,4.8v146c0,2.8,2,4.8,4.8,4.8h137.6c2.8,0,4.8-2,4.8-4.8v-146  C327.6,84.4,325.2,82.4,322.8,82.4z"/>
<g>
	<rect x="196.8" y="98.8" style="fill:#E6E9EE;" width="114.4" height="29.6"/>
	<rect x="196.8" y="147.6" style="fill:#E6E9EE;" width="17.6" height="17.6"/>
	<rect x="245.2" y="147.6" style="fill:#E6E9EE;" width="17.6" height="17.6"/>
	<rect x="293.2" y="147.6" style="fill:#E6E9EE;" width="17.6" height="17.6"/>
</g>
<path style="fill:#FFFFFF;" d="M132,179.2c-3.6,12.4-5.6,25.6-5.6,40l0,0l-35.6,57.2c-2.8,5.6,1.2,12.4,7.6,12.4h20v62  c0,7.2,6,13.2,13.2,13.2H176v60.8h136.8l0.4-51.2c44.8-22.8,73.2-70.4,73.2-124.8c0-26.8-4-50-11.6-69.6L132,179.2L132,179.2z"/>
<g>
</g>
<g>
</g>
<g>
</g>
<g>
</g>
<g>
</g>
<g>
</g>
<g>
</g>
<g>
</g>
<g>
</g>
<g>
</g>
<g>
</g>
<g>
</g>
<g>
</g>
<g>
</g>
<g>
</g>
</svg>
