<?xml version="1.0" encoding="iso-8859-1"?>
<!-- Generator: Adobe Illustrator 19.0.0, SVG Export Plug-In . SVG Version: 6.00 Build 0)  -->
<svg xmlns="http://www.w3.org/2000/svg" xmlns:xlink="http://www.w3.org/1999/xlink" version="1.1" id="Layer_1" x="0px" y="0px" viewBox="0 0 508 508" style="enable-background:new 0 0 508 508;" xml:space="preserve">
<circle style="fill:#FD8469;" cx="254" cy="254" r="254"/>
<path style="fill:#FFD05B;" d="M298.8,348.8h-220v-88c0-14.4,10.4-26.4,24.4-28.8c1.6-0.4,54.4-13.2,54.4-13.2l29.6,0.8h32.4  c0,0,53.2,12,54.8,12.4c13.6,2.4,24,14.4,24,28.8L298.8,348.8L298.8,348.8z"/>
<path style="fill:#E6E9EE;" d="M219.6,219.6c-3.2-3.2-5.2-7.6-5.2-12.4v-28.4h-53.2v28.4c0,3.6-1.2,8.4-3.6,11.2  c6,8.8,16,22,29.6,22.4C196.8,241.6,207.6,233.6,219.6,219.6z"/>
<g>
	<polygon style="fill:#324A5E;" points="181.2,261.6 175.6,251.6 181.2,241.2 193.2,241.2 199.2,251.6 193.2,261.6  "/>
	<polygon style="fill:#324A5E;" points="200.8,310.4 187.6,335.2 173.6,310.4 181.2,261.6 193.2,261.6  "/>
</g>
<g>
	
		<ellipse transform="matrix(-0.9976 -0.0689 0.0689 -0.9976 462.9779 306.333)" style="fill:#FFFFFF;" cx="236.768" cy="145.188" rx="7.6" ry="16.8"/>
	
		<ellipse transform="matrix(0.9976 -0.0688 0.0688 0.9976 -9.6377 10.0395)" style="fill:#FFFFFF;" cx="140.843" cy="144.851" rx="7.6" ry="16.8"/>
	<path style="fill:#FFFFFF;" d="M236.4,128c0-26.4-21.2-47.6-47.6-47.6l0,0l0,0l0,0c-26,0-47.2,21.6-47.2,47.6c0,0.8,0,12.4,0,17.6   c0,36,26.8,65.2,47.6,65.2c18,0,47.6-29.2,47.6-65.2C236.4,140.4,236.4,128.8,236.4,128z"/>
</g>
<g>
	<path style="fill:#324A5E;" d="M144.4,150c-1.6-12.4-2.4-24.8-2.8-37.2c0-4.4,0-8.8,0.8-12.8c2.8-9.6,11.2-16.8,20.4-20.4   s19.6-1.6,29.6-2c6.8-0.4,13.6-0.4,20.4,1.2c6.8,1.6,13.2,5.2,16.4,11.2c2.4,4.4,3.6,6.8,4,12c0.8,5.2,1.6,10.4,2,16   c1.2,12.8,0,25.6-3.2,38.4c0,0.8-0.4,1.2-0.8,1.6c-1.2,1.2-3.2,0.4-4-0.8s-0.8-3.2-0.8-4.8c0.4-8.4,0-16.4-0.8-24.8   c-0.8-6-1.6-12-5.6-16.4c-5.6-6.4-15.2-1.6-25.6,2.8c-2.8,1.2-9.6,1.2-12.8,0c-3.6-1.2-14-8.8-17.6-7.6c-8,3.2-12.4,12.4-13.2,21.2   s0.4,17.6-1.2,26c0,0.8-0.4,1.6-0.8,2c-0.8,1.2-2.8,0.8-4-0.4C144.8,152.8,144.4,151.2,144.4,150z"/>
	<polygon style="fill:#324A5E;" points="157.6,218.8 170.4,266 188.8,241.2  "/>
	<polygon style="fill:#324A5E;" points="188,241.2 206.4,266 219.6,219.6  "/>
</g>
<rect x="251.2" y="257.6" style="fill:#FFFFFF;" width="138.4" height="134"/>
<rect x="251.2" y="257.6" style="fill:#4CDBC4;" width="138.4" height="40"/>
<g>
	<rect x="297.6" y="314.4" style="fill:#CED5E0;" width="15.2" height="15.2"/>
	<rect x="328" y="314.4" style="fill:#CED5E0;" width="15.2" height="15.2"/>
	<rect x="358" y="314.4" style="fill:#CED5E0;" width="15.2" height="15.2"/>
	<rect x="267.2" y="338.4" style="fill:#CED5E0;" width="15.2" height="15.2"/>
	<rect x="297.6" y="338.4" style="fill:#CED5E0;" width="15.2" height="15.2"/>
	<rect x="328" y="338.4" style="fill:#CED5E0;" width="15.2" height="15.2"/>
</g>
<rect x="358" y="338.4" style="fill:#FF7058;" width="15.2" height="15.2"/>
<g>
	<rect x="267.2" y="362" style="fill:#CED5E0;" width="15.2" height="15.2"/>
	<rect x="297.6" y="362" style="fill:#CED5E0;" width="15.2" height="15.2"/>
	<rect x="328" y="362" style="fill:#CED5E0;" width="15.2" height="15.2"/>
</g>
<g>
	<path style="fill:#324A5E;" d="M284.8,242c-2.8,0-4.8,2-4.8,4.8v21.6c0,2.8,2,4.8,4.8,4.8s4.8-2,4.8-4.8v-21.6   C290,244.4,287.6,242,284.8,242z"/>
	<path style="fill:#324A5E;" d="M355.6,242c-2.8,0-4.8,2-4.8,4.8v21.6c0,2.8,2,4.8,4.8,4.8s4.8-2,4.8-4.8v-21.6   C360.4,244.4,358.4,242,355.6,242z"/>
</g>
<g>
</g>
<g>
</g>
<g>
</g>
<g>
</g>
<g>
</g>
<g>
</g>
<g>
</g>
<g>
</g>
<g>
</g>
<g>
</g>
<g>
</g>
<g>
</g>
<g>
</g>
<g>
</g>
<g>
</g>
</svg>
