<?xml version="1.0" encoding="iso-8859-1"?>
<!-- Generator: Adobe Illustrator 19.0.0, SVG Export Plug-In . SVG Version: 6.00 Build 0)  -->
<svg xmlns="http://www.w3.org/2000/svg" xmlns:xlink="http://www.w3.org/1999/xlink" version="1.1" id="Layer_1" x="0px" y="0px" viewBox="0 0 508 508" style="enable-background:new 0 0 508 508;" xml:space="preserve">
<circle style="fill:#FD8469;" cx="254" cy="254" r="254"/>
<path style="fill:#FFFFFF;" d="M306,188c-0.8,0-1.6,0-2.4,0.4c0-1.2,0-2.4,0-3.6c0-0.8,0-1.2,0-2c0-0.4,0-0.8,0-0.8  c-1.2-28.4-23.2-50.8-49.6-50.8s-48.4,22.4-49.6,50.8c0,0.4,0,0.8,0,0.8c0,0.8,0,1.2,0,2c0,1.2,0,2.4,0,3.6  c-0.8-0.4-1.6-0.4-2.4-0.4c-4.4,0.8-6.8,8.4-5.2,16.8c1.6,8.4,6.4,14.4,10.8,13.6c0.8,0,1.2-0.4,2-0.8c7.2,21.6,21.6,41.2,44.4,41.2  s37.2-19.6,44.4-41.2c0.4,0.4,1.2,0.8,2,0.8c4.4,0.8,9.2-5.2,10.8-13.6C312.8,196.4,310.4,189.2,306,188z"/>
<g>
	<path style="fill:#324A5E;" d="M303.6,166.4c-1.2-8-4-15.6-6.8-23.2c-0.8-2-1.6-4.4-2.8-6c-2.8-4.8-8.4-8-14-8.8   c-2-0.4-4.4,0-6,1.6c-0.4,0.4-0.4,0.8-0.8,1.2c-1.2-1.6-2.4-2.8-4-3.6c-2-1.2-4.8-1.6-7.2-1.6c-12-1.2-22,1.6-34,3.2   c-6,0.8-14,6-17.6,14.8c-3.2,8-5.6,14.4-7.2,22.8c-1.2,6,0,20.4,2.8,28.4c0.8,2,3.2,2.4,4,0.8c4.4-6.8,5.6-20.4,8-26.8   c0.8-2,1.6-4,2.4-5.6c0.8-2,1.6-4,3.2-5.2c1.6-1.6,3.6-2.4,5.6-1.2c2.8,1.2,2.8,5.2,4.8,7.6c2,2.4,5.6,2.8,9.2,2.8   c6,0,11.6,0,17.6,0c2.4,0,4.8,0,6.8-0.8c2.8-1.2,4.4-3.6,5.6-6.4c0.4-1.2,0.8-2.4,0.8-3.6c0.4,0.4,0.4,1.2,0.8,1.6   c2.4,4.8,6,8.8,10,12.4c2.4,2,4.8,3.6,7.2,5.6c4.8,4.8,6,12,6.4,18.8c0,1.2,0.4,2.4,1.2,2.8c0.8,0.4,1.6,0,2-0.8s0.4-1.6,0.8-2.4   C303.6,184.4,304.8,175.2,303.6,166.4z"/>
	<path style="fill:#324A5E;" d="M355.2,351.2c-10-41.6-51.2-72.8-101.2-72.8s-91.2,31.2-101.2,72.4h202.4V351.2z"/>
</g>
<g>
	<path style="fill:#E6E9EE;" d="M442.4,228.4C430,135.6,350.4,64,254,64S78,136,65.6,228.8h28C106,151.2,173.2,91.6,254,91.6   s148,59.6,160.4,136.8h-20.8l34,38l34-38H442.4z"/>
	<path style="fill:#E6E9EE;" d="M414.4,279.6C402,356.8,334.8,416.4,254,416.4S106,356.8,93.6,279.6h20l-34-38l-34,38h20   c12.4,92.8,92,164.8,188.4,164.8s176-72,188.4-164.8L414.4,279.6L414.4,279.6z"/>
</g>
<g>
</g>
<g>
</g>
<g>
</g>
<g>
</g>
<g>
</g>
<g>
</g>
<g>
</g>
<g>
</g>
<g>
</g>
<g>
</g>
<g>
</g>
<g>
</g>
<g>
</g>
<g>
</g>
<g>
</g>
</svg>
