<?xml version="1.0" encoding="iso-8859-1"?>
<!-- Generator: Adobe Illustrator 19.0.0, SVG Export Plug-In . SVG Version: 6.00 Build 0)  -->
<svg xmlns="http://www.w3.org/2000/svg" xmlns:xlink="http://www.w3.org/1999/xlink" version="1.1" id="Layer_1" x="0px" y="0px" viewBox="0 0 508 508" style="enable-background:new 0 0 508 508;" xml:space="preserve">
<circle style="fill:#FFD05B;" cx="254" cy="254" r="254"/>
<rect x="124.8" y="101.2" style="fill:#FFFFFF;" width="258" height="305.6"/>
<g>
	<path style="fill:#324A5E;" d="M196.8,141.2c-0.4,0-0.4,0-0.8,0c0-0.4,0-0.8,0-1.2v-0.4c0,0,0,0,0-0.4c-0.4-8.4-6.8-14.8-14.4-14.8   c-7.6,0-14,6.4-14.4,14.8c0,0,0,0,0,0.4v0.4c0,0.4,0,0.8,0,1.2c-0.4,0-0.4,0-0.8,0c-1.2,0.4-2,2.4-1.6,4.8c0.4,2.4,2,4.4,3.2,4   c0,0,0.4,0,0.4-0.4c2,6.4,6.4,12,12.8,12c6.8,0,10.8-5.6,12.8-12l0.4,0.4c1.2,0.4,2.8-1.6,3.2-4   C198.8,143.6,198.4,141.6,196.8,141.2z"/>
	<path style="fill:#324A5E;" d="M196.4,134.8c-0.4-2.4-1.2-4.4-2-6.8c-0.4-0.8-0.4-1.2-0.8-2c-0.8-1.6-2.4-2.4-4-2.4   c-0.8,0-1.2,0-1.6,0.4c0,0,0,0,0,0.4c-0.4-0.4-0.8-0.8-1.2-1.2c-0.8-0.4-1.2-0.4-2-0.4c-3.6-0.4-6.4,0.4-10,0.8   c-1.6,0.4-4,1.6-5.2,4.4c-0.8,2.4-1.6,4-2,6.8c-0.4,1.6,0,6,0.8,8.4c0,0.4,0.8,0.8,1.2,0c1.2-2,1.6-6,2.4-8   c0.4-0.4,0.4-1.2,0.8-1.6c0.4-0.4,0.4-1.2,0.8-1.6c0.4-0.4,1.2-0.8,1.6-0.4c0.8,0.4,0.8,1.6,1.6,2c0.8,0.8,1.6,0.8,2.8,0.8   c1.6,0,3.2,0,5.2,0c0.8,0,1.2,0,2-0.4s1.2-1.2,1.6-2c0-0.4,0.4-0.8,0.4-1.2c0,0,0,0.4,0.4,0.4c0.8,1.2,1.6,2.8,2.8,3.6   c0.8,0.4,1.6,1.2,2,1.6c1.2,1.6,1.6,3.6,2,5.6c0,0.4,0,0.8,0.4,0.8s0.4,0,0.8-0.4c0-0.4,0-0.4,0-0.8   C196.4,140,196.4,137.6,196.4,134.8z"/>
	<path style="fill:#324A5E;" d="M211.2,188.8c-2.8-12-15.2-21.2-29.6-21.2c-14.4,0-26.8,9.2-29.6,21.2H211.2z"/>
	<path style="fill:#324A5E;" d="M196.8,238c-0.4,0-0.4,0-0.8,0c0-0.4,0-0.8,0-1.2v-0.4c0,0,0,0,0-0.4c-0.4-8.4-6.8-14.8-14.4-14.8   c-7.6,0-14,6.4-14.4,14.8c0,0,0,0,0,0.4v0.4c0,0.4,0,0.8,0,1.2c-0.4,0-0.4,0-0.8,0c-1.2,0.4-2,2.4-1.6,4.8c0.4,2.4,2,4.4,3.2,4   c0,0,0.4,0,0.4-0.4c2,6.4,6.4,12,12.8,12c6.8,0,10.8-5.6,12.8-12l0.4,0.4c1.2,0.4,2.8-1.6,3.2-4C198.8,240.4,198.4,238,196.8,238z"/>
	<path style="fill:#324A5E;" d="M196.4,231.6c-0.4-2.4-1.2-4.4-2-6.8c-0.4-0.8-0.4-1.2-0.8-2c-0.8-1.6-2.4-2.4-4-2.4   c-0.8,0-1.2,0-1.6,0.4c0,0,0,0,0,0.4c-0.4-0.4-0.8-0.8-1.2-1.2c-0.8-0.4-1.2-0.4-2-0.4c-3.6-0.4-6.4,0.4-10,0.8   c-1.6,0.4-4,1.6-5.2,4.4c-0.8,2.4-1.6,4-2,6.8c-0.4,1.6,0,6,0.8,8.4c0,0.4,0.8,0.8,1.2,0c1.2-2,1.6-6,2.4-8   c0.4-0.4,0.4-1.2,0.8-1.6c0.4-0.4,0.4-1.2,0.8-1.6c0.4-0.4,1.2-0.8,1.6-0.4c0.8,0.4,0.8,1.6,1.6,2c0.8,0.8,1.6,0.8,2.8,0.8   c1.6,0,3.2,0,5.2,0c0.8,0,1.2,0,2-0.4s1.2-1.2,1.6-2c0-0.4,0.4-0.8,0.4-1.2c0,0,0,0.4,0.4,0.4c0.8,1.2,1.6,2.8,2.8,3.6   c0.8,0.4,1.6,1.2,2,1.6c1.2,1.6,1.6,3.6,2,5.6c0,0.4,0,0.8,0.4,0.8s0.4,0,0.8-0.4c0-0.4,0-0.4,0-0.8   C196.4,236.8,196.4,234,196.4,231.6z"/>
	<path style="fill:#324A5E;" d="M211.2,285.6c-2.8-12-15.2-21.2-29.6-21.2c-14.4,0-26.8,9.2-29.6,21.2H211.2z"/>
	<path style="fill:#324A5E;" d="M196.8,334.8c-0.4,0-0.4,0-0.8,0c0-0.4,0-0.8,0-1.2v-0.4c0,0,0,0,0-0.4c-0.4-8.4-6.8-14.8-14.4-14.8   c-7.6,0-14,6.4-14.4,14.8c0,0,0,0,0,0.4v0.4c0,0.4,0,0.8,0,1.2c-0.4,0-0.4,0-0.8,0c-1.2,0.4-2,2.4-1.6,4.8s2,4.4,3.2,4   c0,0,0.4,0,0.4-0.4c2,6.4,6.4,12,12.8,12c6.8,0,10.8-5.6,12.8-12l0.4,0.4c1.2,0.4,2.8-1.6,3.2-4   C198.8,337.2,198.4,334.8,196.8,334.8z"/>
	<path style="fill:#324A5E;" d="M196.4,328.4c-0.4-2.4-1.2-4.4-2-6.8c-0.4-0.8-0.4-1.2-0.8-2c-0.8-1.6-2.4-2.4-4-2.4   c-0.8,0-1.2,0-1.6,0.4c0,0,0,0,0,0.4c-0.4-0.4-0.8-0.8-1.2-1.2c-0.8-0.4-1.2-0.4-2-0.4c-3.6-0.4-6.4,0.4-10,0.8   c-1.6,0.4-4,1.6-5.2,4.4c-0.8,2.4-1.6,4-2,6.8c-0.4,1.6,0,6,0.8,8.4c0,0.4,0.8,0.8,1.2,0c1.2-2,1.6-6,2.4-8   c0.4-0.4,0.4-1.2,0.8-1.6c0.4-0.4,0.4-1.2,0.8-1.6c0.4-0.4,1.2-0.8,1.6-0.4c0.8,0.4,0.8,1.6,1.6,2c0.8,0.8,1.6,0.8,2.8,0.8   c1.6,0,3.2,0,5.2,0c0.8,0,1.2,0,2-0.4s1.2-1.2,1.6-2c0-0.4,0.4-0.8,0.4-1.2c0,0,0,0.4,0.4,0.4c0.8,1.2,1.6,2.8,2.8,3.6   c0.8,0.4,1.6,1.2,2,1.6c1.2,1.6,1.6,3.6,2,5.6c0,0.4,0,0.8,0.4,0.8s0.4,0,0.8-0.4c0-0.4,0-0.4,0-0.8   C196.4,333.6,196.4,330.8,196.4,328.4z"/>
	<path style="fill:#324A5E;" d="M211.2,382.4c-2.8-12-15.2-21.2-29.6-21.2c-14.4,0-26.8,9.2-29.6,21.2H211.2z"/>
	<rect x="229.6" y="142.4" style="fill:#324A5E;" width="124.8" height="26.8"/>
	<rect x="229.6" y="239.2" style="fill:#324A5E;" width="124.8" height="26.8"/>
	<rect x="229.6" y="335.6" style="fill:#324A5E;" width="124.8" height="26.8"/>
</g>
<g>
	<rect x="236" y="147.6" style="fill:#4CDBC4;" width="94.4" height="16.4"/>
	<rect x="236" y="244.4" style="fill:#4CDBC4;" width="55.6" height="16.4"/>
	<rect x="236" y="341.2" style="fill:#4CDBC4;" width="82" height="16.4"/>
</g>
<g>
</g>
<g>
</g>
<g>
</g>
<g>
</g>
<g>
</g>
<g>
</g>
<g>
</g>
<g>
</g>
<g>
</g>
<g>
</g>
<g>
</g>
<g>
</g>
<g>
</g>
<g>
</g>
<g>
</g>
</svg>
