<?xml version="1.0" encoding="iso-8859-1"?>
<!-- Generator: Adobe Illustrator 19.0.0, SVG Export Plug-In . SVG Version: 6.00 Build 0)  -->
<svg xmlns="http://www.w3.org/2000/svg" xmlns:xlink="http://www.w3.org/1999/xlink" version="1.1" id="Layer_1" x="0px" y="0px" viewBox="0 0 508 508" style="enable-background:new 0 0 508 508;" xml:space="preserve">
<circle style="fill:#84DBFF;" cx="254" cy="254" r="254"/>
<path style="fill:#324A5E;" d="M420.4,222.8c-3.2-77.6-64.8-141.6-142-147.6c-72-5.6-134,38.4-156.8,101.2l0,0l-40.8,78.4  c-3.2,6.4,1.2,14,8.4,14h23.2V340c0,8.4,6.8,15.2,15.2,15.2h50.8v70h157.2l0.4-58.8C388,340,422.8,285.2,420.4,222.8z"/>
<path style="fill:#FFFFFF;" d="M240.8,295.2c-0.8-2.4-1.6-5.6-2.4-8.8c-0.4-3.2-0.8-6.4-0.8-9.2c0-4.4,0.4-8.8,1.2-12.4  s2.4-7.2,4-10.4c1.6-3.2,4-6.4,6.8-9.6c2.8-3.2,5.6-6,9.2-8.8c3.6-3.2,7.2-6,10-8.8s5.2-5.6,7.2-8c2-2.8,3.6-5.6,4.4-8.4  c0.8-2.8,1.6-6,1.6-9.6c0-3.2-0.4-6-1.6-8.4c-1.2-2.8-2.8-4.8-4.8-6.8s-4.4-3.2-7.6-4.4c-2.8-1.2-6-1.6-9.6-1.6  c-7.6,0-15.6,1.6-24,4.8s-16,8-23.6,14.4v-44.8c7.6-4.4,16-8,24.8-10.4s18.4-3.6,28-3.6c9.2,0,17.6,1.2,25.6,3.2s14.8,5.2,20.8,9.6  c6,4.4,10.4,10,13.6,16.8s4.8,14.8,4.8,24.4c0,6-0.8,11.6-2,16.4c-1.2,4.8-3.6,9.6-6,14c-2.8,4.4-6,8.4-10,12.4s-8.4,8-13.6,12.4  c-3.6,2.8-6.4,5.6-9.2,8c-2.8,2.4-4.8,4.8-6.4,7.2c-1.6,2.4-3.2,4.8-4,7.6c-0.8,2.8-1.2,5.6-1.2,9.2c0,2.4,0.4,4.8,0.8,7.2  c0.8,2.4,1.6,4.4,2.4,6.4H240.8z M262.4,360c-8,0-14.4-2.4-19.6-7.2c-5.2-4.8-8-10.8-8-17.6c0-6.8,2.8-12.8,8-17.2  c5.2-4.8,11.6-6.8,19.6-6.8c7.6,0,14.4,2.4,19.2,6.8c5.2,4.4,7.6,10.4,7.6,17.2c0,7.2-2.4,12.8-7.6,17.6  C276.8,357.6,270,360,262.4,360z"/>
<g>
</g>
<g>
</g>
<g>
</g>
<g>
</g>
<g>
</g>
<g>
</g>
<g>
</g>
<g>
</g>
<g>
</g>
<g>
</g>
<g>
</g>
<g>
</g>
<g>
</g>
<g>
</g>
<g>
</g>
</svg>
