<?xml version="1.0" encoding="iso-8859-1"?>
<!-- Generator: Adobe Illustrator 19.0.0, SVG Export Plug-In . SVG Version: 6.00 Build 0)  -->
<svg xmlns="http://www.w3.org/2000/svg" xmlns:xlink="http://www.w3.org/1999/xlink" version="1.1" id="Layer_1" x="0px" y="0px" viewBox="0 0 508 508" style="enable-background:new 0 0 508 508;" xml:space="preserve">
<circle style="fill:#324A5E;" cx="254" cy="254" r="254"/>
<path style="fill:#FFFFFF;" d="M182.4,217.2c-0.4,0-1.2,0-1.6,0c0-0.8,0-1.6,0-2.8c0-0.4,0-0.8,0-1.6c0-0.4,0-0.4,0-0.8  c-1.2-20.8-17.2-37.6-36.8-37.6s-35.6,16.4-36.8,37.6c0,0.4,0,0.4,0,0.8c0,0.4,0,0.8,0,1.6s0,1.6,0,2.8c-0.4,0-1.2-0.4-1.6,0  c-3.2,0.8-5.2,6-4,12.4c1.2,6,4.8,10.8,8,10c0.4,0,0.8-0.4,1.2-0.8c5.2,16,16,30.4,32.8,30.4s27.6-14.4,32.8-30.4  c0.4,0.4,0.8,0.4,1.2,0.8c3.2,0.8,6.8-4,8-10C187.6,223.2,186,217.6,182.4,217.2z"/>
<g>
	<path style="fill:#CED5E0;" d="M180.8,201.2c-0.8-6-2.8-11.6-4.8-17.2c-0.8-1.6-1.2-3.2-2-4.4c-2.4-3.6-6-6-10.4-6.4   c-1.6,0-3.2,0-4.4,1.2c0,0.4-0.4,0.4-0.4,0.8c-0.8-1.2-1.6-2-3.2-2.8c-1.6-0.8-3.6-1.2-5.2-1.2c-8.8-0.8-16,1.2-25.2,2.4   c-4.4,0.8-10.4,4.4-13.2,10.8c-2.4,6-4,10.4-5.2,16.8c-0.8,4.4,0,15.2,2,21.2c0.4,1.2,2.4,1.6,3.2,0.4c3.2-4.8,4.4-15.2,6-19.6   c0.4-1.6,1.2-2.8,1.6-4.4c0.4-1.6,1.2-2.8,2.4-4c1.2-1.2,2.8-1.6,4-0.8c2,0.8,2,4,3.6,5.6c1.6,2,4.4,2,6.8,2c4.4,0,8.4,0,12.8,0   c1.6,0,3.6,0,5.2-0.8c2-0.8,3.2-2.8,4-4.8c0.4-0.8,0.4-1.6,0.8-2.8c0,0.4,0.4,0.8,0.4,1.2c1.6,3.6,4.4,6.8,7.6,9.2   c1.6,1.2,3.6,2.4,5.2,4c3.6,3.6,4.4,8.8,4.8,14c0,0.8,0.4,1.6,0.8,2c0.4,0.4,1.2,0,1.6-0.8c0.4-0.4,0.4-1.2,0.4-2   C180.8,214.4,181.6,207.6,180.8,201.2z"/>
	<path style="fill:#CED5E0;" d="M218.8,337.6c-7.2-30.8-38-53.6-74.8-53.6s-67.6,23.2-74.8,53.6H218.8z"/>
</g>
<path style="fill:#FFFFFF;" d="M402.4,217.2c-0.4,0-1.2,0-1.6,0c0-0.8,0-1.6,0-2.8c0-0.4,0-0.8,0-1.6c0-0.4,0-0.4,0-0.8  c-1.2-20.8-17.2-37.6-36.8-37.6c-19.6,0-35.6,16.4-36.8,37.6c0,0.4,0,0.4,0,0.8c0,0.4,0,0.8,0,1.6s0,1.6,0,2.8c-0.4,0-1.2-0.4-1.6,0  c-3.2,0.8-5.2,6-4,12.4c1.2,6,4.8,10.8,8,10c0.4,0,0.8-0.4,1.2-0.8c5.2,16,16,30.4,32.8,30.4s27.6-14.4,32.8-30.4  c0.4,0.4,0.8,0.4,1.2,0.8c3.2,0.8,6.8-4,8-10C407.2,223.2,405.6,217.6,402.4,217.2z"/>
<g>
	<path style="fill:#CED5E0;" d="M400.4,201.2c-0.8-6-2.8-11.6-4.8-17.2c-0.8-1.6-1.2-3.2-2-4.4c-2.4-3.6-6-6-10.4-6.4   c-1.6,0-3.2,0-4.4,1.2c0,0.4-0.4,0.4-0.4,0.8c-0.8-1.2-1.6-2-3.2-2.8s-3.6-1.2-5.2-1.2c-8.8-0.8-16,1.2-25.2,2.4   c-4.4,0.8-10.4,4.4-13.2,10.8c-2.4,6-4,10.4-5.2,16.8c-0.8,4.4,0,15.2,2,21.2c0.4,1.2,2.4,1.6,3.2,0.4c3.2-4.8,4.4-15.2,6-19.6   c0.4-1.6,1.2-2.8,1.6-4.4c0.4-1.6,1.2-2.8,2.4-4c1.2-1.2,2.8-1.6,4-0.8c2,0.8,2,4,3.6,5.6c1.6,2,4.4,2,6.8,2c4.4,0,8.4,0,12.8,0   c1.6,0,3.6,0,5.2-0.8c2-0.8,3.2-2.8,4-4.8c0.4-0.8,0.4-1.6,0.8-2.8c0,0.4,0.4,0.8,0.4,1.2c1.6,3.6,4.4,6.8,7.6,9.2   c1.6,1.2,3.6,2.4,5.2,4c3.6,3.6,4.4,8.8,4.8,14c0,0.8,0.4,1.6,0.8,2s1.2,0,1.6-0.8c0.4-0.4,0.4-1.2,0.4-2   C400.4,214.4,401.2,207.6,400.4,201.2z"/>
	<path style="fill:#CED5E0;" d="M438.8,337.6c-7.2-30.8-38-53.6-74.8-53.6s-67.6,23.2-74.8,53.6H438.8z"/>
</g>
<g>
	<path style="fill:#4CDBC4;" d="M343.2,135.6c-2.4-4-6-9.6-11.2-16c-5.2-6.4-11.6-13.6-20-20.4S293.6,86,282.4,81.6   c-2.8-1.2-5.6-2-8.8-2.8c-2.8-0.8-6-1.6-9.2-2s-6-1.2-9.2-1.2c-1.6,0-3.2-0.4-4.4-0.4c-1.6,0-3.2,0-4.4,0c-3.2,0-6,0-8.8,0.4   c-1.6,0-2.8,0.4-4.4,0.4c-1.2,0.4-2.8,0.4-4,0.8c-5.6,0.8-10.4,2-15.2,3.2c-4.4,1.6-8.8,2.8-12,4c-3.6,1.6-6.8,2.4-9.2,4   c-4,2-6.8,3.6-8,4l-12-17.6l-12,63.2l63.2,12l-10-16c1.2-0.8,2.8-2.4,4.8-4c1.2-1.2,3.2-2.8,5.2-4.4s4.4-3.2,7.2-5.2   c2.8-1.6,5.6-3.6,8.8-4.8c0.8-0.4,1.6-0.8,2.4-1.2c0.8-0.4,1.6-0.8,2.4-0.8c1.6-0.8,3.6-1.2,5.6-2c0.8-0.4,2-0.4,2.8-0.8l2.8-0.8   c2-0.4,4-0.8,6-0.8c2-0.4,4.4-0.4,6.4-0.4s4.4,0,6.8,0.4c18,1.2,36.4,10.4,48.4,19.2c6.4,4.4,11.2,8.8,14.4,11.6   c3.2,3.2,4.8,4.8,4.8,4.8l3.2-2.4C346.8,142,345.6,139.6,343.2,135.6z"/>
	<path style="fill:#4CDBC4;" d="M164.8,372.4c2.4,4,6,9.6,11.2,16s11.6,13.6,20,20.4s18.4,13.2,29.6,17.6c2.8,1.2,5.6,2,8.8,2.8   c2.8,0.8,6,1.6,9.2,2s6,1.2,9.2,1.2c1.6,0,3.2,0.4,4.4,0.4c1.6,0,3.2,0,4.4,0c3.2,0,6,0,8.8-0.4c1.6,0,2.8-0.4,4.4-0.4   c1.2-0.4,2.8-0.4,4-0.8c5.6-0.8,10.4-2,15.2-3.2c4.4-1.6,8.8-2.8,12-4c3.6-1.6,6.8-2.4,9.2-4c4-2,6.8-3.6,8-4l12,17.6l12-63.2   l-63.2-12l10.4,15.2c-1.2,0.8-2.8,2.4-4.8,4c-1.2,1.2-3.2,2.8-5.2,4.4s-4.4,3.2-7.2,5.2c-2.8,1.6-5.6,3.6-8.8,4.8   c-0.8,0.4-1.6,0.8-2.4,1.2c-0.8,0.4-1.6,0.8-2.4,0.8c-1.6,0.8-3.6,1.2-5.6,2c-0.8,0.4-2,0.4-2.8,0.8l-2.8,0.8c-2,0.4-4,0.8-6,0.8   c-2,0.4-4.4,0.4-6.4,0.4s-4.4,0-6.8-0.4c-18-1.2-36.4-10.4-48.4-19.2c-6.4-4.4-11.2-8.8-14.4-11.6c-3.2-3.2-4.8-4.8-4.8-4.8   l-4.4,3.2C161.2,366,162.4,368.4,164.8,372.4z"/>
</g>
<g>
</g>
<g>
</g>
<g>
</g>
<g>
</g>
<g>
</g>
<g>
</g>
<g>
</g>
<g>
</g>
<g>
</g>
<g>
</g>
<g>
</g>
<g>
</g>
<g>
</g>
<g>
</g>
<g>
</g>
</svg>
