<?xml version="1.0" encoding="iso-8859-1"?>
<!-- Generator: Adobe Illustrator 19.0.0, SVG Export Plug-In . SVG Version: 6.00 Build 0)  -->
<svg xmlns="http://www.w3.org/2000/svg" xmlns:xlink="http://www.w3.org/1999/xlink" version="1.1" id="Layer_1" x="0px" y="0px" viewBox="0 0 508 508" style="enable-background:new 0 0 508 508;" xml:space="preserve">
<circle style="fill:#90DFAA;" cx="254" cy="254" r="254"/>
<rect x="84.8" y="160.4" style="fill:#FFFFFF;" width="338.4" height="30"/>
<polygon style="fill:#E6E9EE;" points="108,190.4 108,349.2 134.8,349.2 134.8,216.4 373.2,216.4 373.2,349.2 400,349.2 400,190.4   "/>
<path style="fill:#FF7058;" d="M308,116.4c0-4-3.6-7.2-7.6-7.2h-92.8c-4,0-7.2,3.2-7.6,7.2L194,242h120L308,116.4z"/>
<g>
	<rect x="288" y="264.8" style="fill:#324A5E;" width="21.2" height="87.6"/>
	<rect x="198.8" y="264.8" style="fill:#324A5E;" width="21.2" height="87.6"/>
	<path style="fill:#324A5E;" d="M321.6,238H186.4c-1.6,0-2.8,1.2-2.8,2.8V262c0,1.6,1.2,2.8,2.8,2.8h135.2c1.6,0,2.8-1.2,2.8-2.8   v-21.2C324.4,239.2,323.2,238,321.6,238z"/>
</g>
<g>
</g>
<g>
</g>
<g>
</g>
<g>
</g>
<g>
</g>
<g>
</g>
<g>
</g>
<g>
</g>
<g>
</g>
<g>
</g>
<g>
</g>
<g>
</g>
<g>
</g>
<g>
</g>
<g>
</g>
</svg>
