<?xml version="1.0" encoding="iso-8859-1"?>
<!-- Generator: Adobe Illustrator 19.0.0, SVG Export Plug-In . SVG Version: 6.00 Build 0)  -->
<svg xmlns="http://www.w3.org/2000/svg" xmlns:xlink="http://www.w3.org/1999/xlink" version="1.1" id="Layer_1" x="0px" y="0px" viewBox="0 0 508 508" style="enable-background:new 0 0 508 508;" xml:space="preserve">
<circle style="fill:#324A5E;" cx="254" cy="254" r="254"/>
<path style="fill:#FF7058;" d="M308.8,281.2c-1.2-17.6-14-32.4-31.6-35.2l-40.4-6.8c-0.4,24-20,43.2-44,43.2s-43.6-19.2-44-43.2  l-40,6.8c-17.6,3.2-30.4,17.6-31.6,35.2l-4.8,78.4h241.2L308.8,281.2z"/>
<path style="fill:#CED5E0;" d="M262,136.4c0-1.6,0-13.2,0-14.8c-2.4-35.2-32-62.8-67.6-62.8c-0.4,0-0.8,0-1.2,0s-0.8,0-1.2,0  c-36,0-65.2,27.6-67.6,62.8c0,1.6,0,13.2,0,14.8c0,67.2-71.2,68.4,34.4,68c9.6,0,68.4,0,80.4,0C328.4,204.8,262,201.6,262,136.4z"/>
<ellipse style="fill:#FFFFFF;" cx="192.8" cy="156.4" rx="47.6" ry="66.4"/>
<path style="fill:#CED5E0;" d="M241.2,103.2c0,0.8-0.4,1.6-0.8,2c-5.6,7.6-14,13.2-22.8,15.6c2-3.6,3.2-7.6,3.2-12  c-6,8.4-15.6,14-25.6,16c2-4.8,2.4-10.4,1.6-15.6c-10,13.6-23.6,24.4-39.2,30.4c-4.4,1.6-8.8,3.2-13.6,2.8  c-1.6-18.4,8-36.4,23.2-46.8C182,85.2,201.6,82,219.6,84.8c2.4,0.4,4.8,0.8,7.2,2.4c1.6,1.2,3.2,2.4,4.4,4c3.2,3.2,6,6.4,9.2,9.6  C240.8,101.6,241.2,102.4,241.2,103.2z"/>
<rect x="257.2" y="294.8" style="fill:#FFFFFF;" width="154.8" height="98.8"/>
<path style="fill:#4CDBC4;" d="M269.2,369.2v-50c6.8,0,12.4-5.6,12.4-12.4h105.6c0,6.8,5.6,12.4,12.4,12.4v50  c-6.8,0-12.4,5.6-12.4,12.4H281.6C281.6,374.8,276,369.2,269.2,369.2z"/>
<g>
	<circle style="fill:#2C9984;" cx="379.2" cy="344" r="9.6"/>
	<circle style="fill:#2C9984;" cx="290" cy="344" r="9.6"/>
	<ellipse style="fill:#2C9984;" cx="334.4" cy="344" rx="15.6" ry="22.4"/>
</g>
<g>
</g>
<g>
</g>
<g>
</g>
<g>
</g>
<g>
</g>
<g>
</g>
<g>
</g>
<g>
</g>
<g>
</g>
<g>
</g>
<g>
</g>
<g>
</g>
<g>
</g>
<g>
</g>
<g>
</g>
</svg>
