<?xml version="1.0" encoding="iso-8859-1"?>
<!-- Generator: Adobe Illustrator 19.0.0, SVG Export Plug-In . SVG Version: 6.00 Build 0)  -->
<svg xmlns="http://www.w3.org/2000/svg" xmlns:xlink="http://www.w3.org/1999/xlink" version="1.1" id="Layer_1" x="0px" y="0px" viewBox="0 0 508 508" style="enable-background:new 0 0 508 508;" xml:space="preserve">
<circle style="fill:#FF7058;" cx="254" cy="254" r="254"/>
<rect x="99.2" y="135.6" style="fill:#4CDBC4;" width="302" height="210.8"/>
<rect x="114.8" y="151.6" style="fill:#FFFFFF;" width="270" height="179.2"/>
<g>
	<rect x="178.4" y="178.4" style="fill:#324A5E;" width="143.2" height="16.8"/>
	<rect x="178.4" y="215.6" style="fill:#324A5E;" width="70" height="16.8"/>
	<polygon style="fill:#324A5E;" points="294,372.4 286.8,358.4 272,363.2 296.8,303.6 319.2,312.8  "/>
	<polygon style="fill:#324A5E;" points="340.8,372.4 348,358.4 362.8,363.2 338,303.6 316,312.8  "/>
</g>
<path style="fill:#FFD05B;" d="M356.8,294c1.2-1.2,1.2-3.6,0-5.2L354,286c-1.2-1.2-1.2-2.4-0.8-4l1.6-3.6c0.8-2,0-4-2-4.8l-4-1.6  c-1.2-0.4-2-2-2-3.2v-4.4c0-2-1.6-3.6-3.6-3.6h-4c-1.6,0-2.8-0.8-3.2-2.4l-1.6-3.6c-0.8-2-2.8-2.8-4.8-2l-4,1.6  c-1.2,0.4-2.8,0.4-4-0.8l-3.2-3.2c-1.2-1.2-3.6-1.2-5.2,0l-2,3.6c-1.2,1.2-2.4,1.2-4,0.8l-3.6-1.6c-2-0.8-4,0-4.8,2l-1.6,4  c-0.4,1.2-2,2-3.2,2h-4c-2,0-3.6,1.6-3.6,3.6v4c0,1.6-0.8,2.8-2.4,3.2l-3.6,1.6c-2,0.8-2.8,2.8-2,4.8l1.6,4c0.4,1.2,0.4,2.8-0.8,4  l-3.2,3.2c-1.2,1.2-1.2,3.6,0,5.2l2.8,2.8c1.2,1.2,1.2,2.4,0.8,4l-1.6,3.6c-0.8,2,0,4,2,4.8l4,1.6c1.2,0.4,2,2,2,3.2v3.2  c0,2,1.6,3.6,3.6,3.6h4c1.6,0,2.8,0.8,3.2,2.4l1.6,3.6c0.8,2,2.8,2.8,4.8,2l4-1.6c1.2-0.4,2.8-0.4,4,0.8l3.2,3.2  c1.2,1.2,3.6,1.2,5.2,0l2.8-2.8c1.2-1.2,2.4-1.2,4-0.8l3.6,1.6c2,0.8,4,0,4.8-2l1.6-4c0.4-1.2,2-2,3.2-2h4.4c2,0,3.6-1.6,3.6-3.6v-4  c0-1.6,0.8-2.8,2.4-3.2l3.6-1.6c2-0.8,2.8-2.8,2-4.8l-1.6-4c-0.4-1.2-0.4-2.8,0.8-4L356.8,294z"/>
<circle style="fill:#FF7058;" cx="316.4" cy="291.2" r="23.2"/>
<polygon style="fill:#FFFFFF;" points="316.4,278 320.8,286.4 330,288 323.2,294.4 324.8,303.6 316.4,299.2 308.4,303.6 310,294.4   303.2,288 312.4,286.4 "/>
<g>
</g>
<g>
</g>
<g>
</g>
<g>
</g>
<g>
</g>
<g>
</g>
<g>
</g>
<g>
</g>
<g>
</g>
<g>
</g>
<g>
</g>
<g>
</g>
<g>
</g>
<g>
</g>
<g>
</g>
</svg>
