<?xml version="1.0" encoding="iso-8859-1"?>
<!-- Generator: Adobe Illustrator 19.0.0, SVG Export Plug-In . SVG Version: 6.00 Build 0)  -->
<svg xmlns="http://www.w3.org/2000/svg" xmlns:xlink="http://www.w3.org/1999/xlink" version="1.1" id="Layer_1" x="0px" y="0px" viewBox="0 0 508 508" style="enable-background:new 0 0 508 508;" xml:space="preserve">
<circle style="fill:#90DFAA;" cx="254" cy="254" r="254"/>
<path style="fill:#FFFFFF;" d="M416.4,208.8c-3.2-77.6-64.8-141.6-142-147.6c-72-5.6-134,38.4-156.8,101.2l0,0l-40.8,78.4  c-3.2,6.4,1.2,14,8.4,14h23.2V326c0,8.4,6.8,15.2,15.2,15.2h50.8v89.6h157.2L332,352C384,326,418.8,271.6,416.4,208.8z"/>
<g>
	<polygon style="fill:#E6E9EE;" points="354.8,180.8 166.4,180.8 187.6,138 333.6,138  "/>
	<polygon style="fill:#E6E9EE;" points="166.4,180.8 260.8,307.6 354.8,180.8  "/>
</g>
<g>
	<polygon style="fill:#CED5E0;" points="166.4,180.8 187.6,138 222.8,180.8  "/>
	<polygon style="fill:#CED5E0;" points="297.2,180.8 333.6,138 354.8,180.8  "/>
</g>
<polygon style="fill:#ACB3BA;" points="260.8,307.6 222.8,180.8 297.2,180.8 "/>
<polygon style="fill:#CED5E0;" points="260.8,138 222.8,180.8 297.2,180.8 "/>
<g>
</g>
<g>
</g>
<g>
</g>
<g>
</g>
<g>
</g>
<g>
</g>
<g>
</g>
<g>
</g>
<g>
</g>
<g>
</g>
<g>
</g>
<g>
</g>
<g>
</g>
<g>
</g>
<g>
</g>
</svg>
