<?xml version="1.0" encoding="iso-8859-1"?>
<!-- Generator: Adobe Illustrator 19.0.0, SVG Export Plug-In . SVG Version: 6.00 Build 0)  -->
<svg xmlns="http://www.w3.org/2000/svg" xmlns:xlink="http://www.w3.org/1999/xlink" version="1.1" id="Layer_1" x="0px" y="0px" viewBox="0 0 508 508" style="enable-background:new 0 0 508 508;" xml:space="preserve">
<circle style="fill:#FD8469;" cx="254" cy="254" r="254"/>
<path style="fill:#E6E9EE;" d="M380.4,115.2H102.8c-4.4,0-8.4,3.6-8.4,8.4v217.2c0,4.4,3.6,8.4,8.4,8.4h277.6c4.4,0,8.4-3.6,8.4-8.4  V123.6C388.8,118.8,385.2,115.2,380.4,115.2z"/>
<rect x="116" y="136.4" style="fill:#54C0EB;" width="251.6" height="166"/>
<rect x="202.4" y="348.8" style="fill:#CED5E0;" width="78.4" height="33.2"/>
<rect x="165.6" y="382.4" style="fill:#E6E9EE;" width="152" height="27.2"/>
<circle style="fill:#324A5E;" cx="241.6" cy="325.6" r="9.6"/>
<polygon style="fill:#F1543F;" points="237.6,266.4 234,259.6 237.6,252.8 245.6,252.8 249.6,259.6 245.6,266.4 "/>
<path style="fill:#FFFFFF;" d="M268,205.2c-0.4,0-0.4,0-0.8,0l0,0c0-13.6-11.2-24.8-24.8-24.8l0,0l0,0l0,0  c-13.6,0-24.8,11.2-24.8,24.8l0,0c-0.4,0-0.4,0-0.8,0c-2,0-3.6,4-3.2,9.2c0.4,4.8,2.4,8.8,4.4,8.4h0.4c3.2,14.8,14.8,25.6,24,25.6  c8,0,20.4-10.8,23.6-25.6h0.4c2,0,4-3.6,4.4-8.4C271.6,209.6,270,205.6,268,205.2z"/>
<polygon style="fill:#FF7058;" points="250,293.6 233.2,293.6 237.6,266.4 245.6,266.4 "/>
<path style="fill:#324A5E;" d="M241.6,293.2c0,0-20-40.4-22.4-39.2c-18.4,8.4-31.6,26.8-32.4,48.4H296c-0.4-21.6-13.6-40-32.4-48.4  C261.6,252.8,241.6,293.2,241.6,293.2z"/>
<path style="fill:#FFFFFF;" d="M242.4,193.2L242.4,193.2L242.4,193.2z"/>
<path style="fill:#324A5E;" d="M266,210c0-1.6,0.4-3.2,1.2-4.8c0-13.6-11.2-24.4-24.8-24.4l0,0l0,0l0,0c-13.6,0-24.8,11.2-24.8,24.8  c0.4,1.6,0.8,2.8,0.8,4.4v2.4c0,0.8-0.4,1.6,0,2.4c0,0.8,0.4,1.6,1.2,2s1.6-0.4,2.4-1.2c0.4-0.8,0.8-1.6,0.8-2.4c0-0.4,0-2.4,0-2.4  c0.8-4.4,2.8-8.8,6-12l0,0c1.2-1.2,2.8-0.8,3.6,0.4c1.6,2.8,5.6,5.2,10,5.2c5.6,0,10.4-3.2,10.8-7.6c1.2,0.8,2,1.6,2.8,2.4  c3.2,3.2,5.2,7.6,6,12.4v2c0,0.8,0.4,1.6,0.8,2.4c0.4,0.8,1.6,1.2,2.4,1.2c0.8-0.4,1.2-1.2,1.2-2s0-1.6,0-2.4  C266,212,266,210,266,210z"/>
<path style="fill:#FFFFFF;" d="M413.6,145.2H300c-4.4,0-8,3.6-8,8V228c0,4.4,3.6,8,8,8h8.8l-2.4,26l33.6-26h73.2c4.4,0,8-3.6,8-8  v-75.2C421.6,148.8,418,145.2,413.6,145.2z"/>
<g>
	<rect x="310.4" y="165.2" style="fill:#324A5E;" width="92.8" height="7.6"/>
	<rect x="310.4" y="186.4" style="fill:#324A5E;" width="92.8" height="7.6"/>
	<rect x="310.4" y="208" style="fill:#324A5E;" width="44" height="7.6"/>
</g>
<g>
</g>
<g>
</g>
<g>
</g>
<g>
</g>
<g>
</g>
<g>
</g>
<g>
</g>
<g>
</g>
<g>
</g>
<g>
</g>
<g>
</g>
<g>
</g>
<g>
</g>
<g>
</g>
<g>
</g>
</svg>
