<?xml version="1.0" encoding="iso-8859-1"?>
<!-- Generator: Adobe Illustrator 19.0.0, SVG Export Plug-In . SVG Version: 6.00 Build 0)  -->
<svg xmlns="http://www.w3.org/2000/svg" xmlns:xlink="http://www.w3.org/1999/xlink" version="1.1" id="Layer_1" x="0px" y="0px" viewBox="0 0 508 508" style="enable-background:new 0 0 508 508;" xml:space="preserve">
<circle style="fill:#84DBFF;" cx="254" cy="254" r="254"/>
<path style="fill:#E6E9EE;" d="M233.6,212.8c-3.2-3.2-5.2-7.2-5.2-12v-27.2h-51.6v27.2c0,3.6-1.2,7.2-3.2,10  c6,8.4,15.6,22.4,28.4,22.8C211.2,234,222,226.4,233.6,212.8z"/>
<g>
	
		<ellipse transform="matrix(0.0688 -0.9976 0.9976 0.0688 102.9058 376.6185)" style="fill:#FFFFFF;" cx="253.204" cy="133.183" rx="18" ry="8"/>
	
		<ellipse transform="matrix(0.0688 0.9976 -0.9976 0.0688 273.7328 -26.3474)" style="fill:#FFFFFF;" cx="150.981" cy="133.463" rx="18" ry="8"/>
	<path style="fill:#FFFFFF;" d="M253.2,115.2c0-28-22.8-50.8-50.8-50.8l0,0l0,0c0,0,0,0-0.4,0c-28,0-50.4,22.8-50.4,50.8   c0,0.8,0,13.2,0,18.8c0,38.4,28.8,69.6,50.8,69.6c19.2,0,50.8-31.2,50.8-69.6C252.8,128.4,253.2,116.4,253.2,115.2z"/>
</g>
<path style="fill:#324A5E;" d="M288.8,228.8l-44-6.4c-3.6-0.8-6.8-2.4-9.2-4.8c-30.4,36-53.6,13.2-64-2c-2.8,3.6-6.4,6-11.2,6.8  l-43.6,6.4c-16.4,2.8-28.8,17.2-28.8,34v80.4h229.2v-80.8C317.2,245.6,305.2,231.6,288.8,228.8z"/>
<polygon style="fill:#E6E9EE;" points="179.2,233.6 202.4,324 225.2,233.6 "/>
<polygon style="fill:#2B3B4E;" points="196.4,253.2 190.8,243.6 196.4,233.6 207.6,233.6 213.6,243.6 207.6,253.2 "/>
<g>
	<polygon style="fill:#FFFFFF;" points="173.6,211.2 185.6,257.6 202.4,233.6  "/>
	<polygon style="fill:#FFFFFF;" points="202,233.6 219.2,257.6 231.2,211.2  "/>
</g>
<polygon style="fill:#324A5E;" points="215.2,300 202.4,324 188.8,300 196.4,253.2 208,253.2 "/>
<g>
	<polygon style="fill:#2B3B4E;" points="263.6,225.6 231.2,211.2 202.4,324 252,259.2 240.4,251.2  "/>
	<polygon style="fill:#2B3B4E;" points="141.2,225.6 173.6,211.2 202.4,324 152.4,259.2 164,251.2  "/>
</g>
<circle style="fill:#FF7058;" cx="333.2" cy="340.8" r="71.2"/>
<path style="fill:#FFFFFF;" d="M333.2,390.4c-27.6,0-49.6-22.4-49.6-49.6c0-27.6,22.4-49.6,49.6-49.6c27.6,0,49.6,22.4,49.6,49.6  C382.8,368.4,360.4,390.4,333.2,390.4z"/>
<polygon style="fill:#324A5E;" points="328.8,367.2 302.8,341.2 314.8,329.2 328.8,343.2 351.6,320.4 363.6,332.4 "/>
<g>
</g>
<g>
</g>
<g>
</g>
<g>
</g>
<g>
</g>
<g>
</g>
<g>
</g>
<g>
</g>
<g>
</g>
<g>
</g>
<g>
</g>
<g>
</g>
<g>
</g>
<g>
</g>
<g>
</g>
</svg>
