<?xml version="1.0" encoding="iso-8859-1"?>
<!-- Generator: Adobe Illustrator 19.0.0, SVG Export Plug-In . SVG Version: 6.00 Build 0)  -->
<svg xmlns="http://www.w3.org/2000/svg" xmlns:xlink="http://www.w3.org/1999/xlink" version="1.1" id="Layer_1" x="0px" y="0px" viewBox="0 0 508 508" style="enable-background:new 0 0 508 508;" xml:space="preserve">
<circle style="fill:#324A5E;" cx="254" cy="254" r="254"/>
<path style="fill:#4CDBC4;" d="M396,382.8v-85.2c0-20.8-14.8-38.4-35.2-42L298,233.2c-5.2-2-8.4-7.2-8.4-12.8v-35.2H218v35.2  c0,5.6-3.2,10.4-8.4,12.8l-62,22.8c-20.4,3.2-35.6,21.2-35.6,42v84.8H396z"/>
<g>
	<ellipse style="fill:#FFFFFF;" cx="254" cy="141.6" rx="60.4" ry="78.4"/>
	
		<ellipse transform="matrix(0.0648 -0.9979 0.9979 0.0648 146.3326 452.1827)" style="fill:#FFFFFF;" cx="314.411" cy="148.021" rx="16.8" ry="10"/>
	
		<ellipse transform="matrix(0.0648 0.9979 -0.9979 0.0648 329.2261 -54.5832)" style="fill:#FFFFFF;" cx="193.734" cy="148.354" rx="16.8" ry="10"/>
</g>
<path style="fill:#E6E9EE;" d="M234,119.2c-2.4-0.8-4.4-2-6.4-3.2c-9.2-3.6-20.8,2-24.4,12c-2.4,6-2.8,14.4-8,17.2  c-1.2-6.4-1.2-13.2-1.2-19.6c0-9.2,0-18.8,1.2-28s4.4-18.4,10-25.2c5.6-7.2,14-12,22.4-14.8s17.2-3.2,26-3.6c4.8,0,10,0,14,3.2  c2.4,2,4,4.8,5.2,8c0.8,2.8,3.6-4.4,4.8-5.2c4.8-4,15.2,0,20.4,3.2c6,4,9.6,11.2,12.8,18c3.2,7.2,2.4,19.6,3.2,27.6  c0.4,5.2,0,8.4,0.4,20c0,4.4-1.6,17.2-3.6,20.8c-1.2,2.4-7.2-11.2-8.4-14c-4-8.8-8.4-17.2-10.8-26.4c-2.8-10.8-17.6-15.6-26.8-3.2  C260,111.2,254,125.2,234,119.2z"/>
<g>
	<polygon style="fill:#FF7058;" points="217.2,224.8 183.6,242.8 231.2,317.6 263.6,293.2  "/>
	<polygon style="fill:#FF7058;" points="290.4,224.8 324.4,242.8 276.4,317.6 244,293.2  "/>
</g>
<circle style="fill:#FFFFFF;" cx="252.8" cy="316.4" r="40.8"/>
<polygon style="fill:#FFD05B;" points="252.8,286.4 261.6,304 281.6,306.8 267.2,320.8 270.4,340.4 252.8,331.2 235.2,340.4   238.8,320.8 224.4,306.8 244,304 "/>
<g>
</g>
<g>
</g>
<g>
</g>
<g>
</g>
<g>
</g>
<g>
</g>
<g>
</g>
<g>
</g>
<g>
</g>
<g>
</g>
<g>
</g>
<g>
</g>
<g>
</g>
<g>
</g>
<g>
</g>
</svg>
