<?xml version="1.0" encoding="iso-8859-1"?>
<!-- Generator: Adobe Illustrator 19.0.0, SVG Export Plug-In . SVG Version: 6.00 Build 0)  -->
<svg xmlns="http://www.w3.org/2000/svg" xmlns:xlink="http://www.w3.org/1999/xlink" version="1.1" id="Layer_1" x="0px" y="0px" viewBox="0 0 508 508" style="enable-background:new 0 0 508 508;" xml:space="preserve">
<circle style="fill:#84DBFF;" cx="254" cy="254" r="254"/>
<path style="fill:#324A5E;" d="M445.6,285.2v-62.4l-47.6-6c-3.6-13.6-8.8-26.8-16-38.4l29.6-37.6l-44.4-44.4L329.6,126  c-12-7.2-24.8-12.4-38.4-16l-5.6-47.6h-62.8l-6,47.6c-13.6,3.6-26.8,8.8-38.4,16l-37.6-29.6l-44.4,44.4l29.6,37.6  c-7.2,12-12.4,24.8-16,38.4l-47.6,5.6v62.8l47.6,6c3.6,13.6,8.8,26.8,16,38.4l-29.6,37.6l44.4,44.4l37.6-29.6  c12,7.2,24.8,12.4,38.4,16l5.6,47.6h62.8l5.6-47.6c13.6-3.6,26.8-8.8,38.4-16l37.6,29.6l44.4-44.4L382,329.6  c7.2-12,12.4-24.8,16-38.4L445.6,285.2z M254,349.2c-52.4,0-95.2-42.4-95.2-95.2c0-52.4,42.4-95.2,95.2-95.2  c52.4,0,95.2,42.4,95.2,95.2C349.2,306.4,306.4,349.2,254,349.2z"/>
<circle style="fill:#FFFFFF;" cx="254" cy="210.8" r="28"/>
<path style="fill:#FF7058;" d="M312.4,301.6c-5.2-30-29.2-52.4-58.4-52.4s-52.8,22.4-58.4,52.4H312.4z"/>
<g>
</g>
<g>
</g>
<g>
</g>
<g>
</g>
<g>
</g>
<g>
</g>
<g>
</g>
<g>
</g>
<g>
</g>
<g>
</g>
<g>
</g>
<g>
</g>
<g>
</g>
<g>
</g>
<g>
</g>
</svg>
