<?xml version="1.0" encoding="iso-8859-1"?>
<!-- Generator: Adobe Illustrator 19.0.0, SVG Export Plug-In . SVG Version: 6.00 Build 0)  -->
<svg xmlns="http://www.w3.org/2000/svg" xmlns:xlink="http://www.w3.org/1999/xlink" version="1.1" id="Layer_1" x="0px" y="0px" viewBox="0 0 508 508" style="enable-background:new 0 0 508 508;" xml:space="preserve">
<circle style="fill:#324A5E;" cx="254" cy="254" r="254"/>
<path style="fill:#FFFFFF;" d="M187.2,154.8v0.4V154.8z"/>
<path style="fill:#FFD05B;" d="M246.8,109.6c-53.6,3.6-98,46.4-102.4,100.4c-2.8,33.6,9.6,64.8,31.2,86.4  c20.4,20.8,31.2,49.2,31.2,78v2.4h94v-2.4c0-30,12.4-58,32.8-79.6c18.8-19.6,30-46.4,30-75.6C364,156,310.8,105.2,246.8,109.6z"/>
<g>
	<path style="fill:#4CDBC4;" d="M294.8,388.4h-81.6c-4.4,0-8,3.6-8,8s3.6,8,8,8h82c4.4,0,8-3.6,8-8   C302.8,392,299.2,388.4,294.8,388.4z"/>
	<path style="fill:#4CDBC4;" d="M294.8,414.4h-81.6c-4.4,0-8,3.6-8,8s3.6,8,8,8h82c4.4,0,8-3.6,8-8   C302.8,418,299.2,414.4,294.8,414.4z"/>
</g>
<g>
	<path style="fill:#E6E9EE;" d="M220.4,430.4c0,8.4,6.8,15.2,15.2,15.2h36.8c8.4,0,15.2-6.8,15.2-15.2H220.4z"/>
	<rect x="246.4" y="62.4" style="fill:#E6E9EE;" width="15.2" height="30.4"/>
	<rect x="380.4" y="211.2" style="fill:#E6E9EE;" width="30.4" height="15.2"/>
	<rect x="97.2" y="211.2" style="fill:#E6E9EE;" width="30.4" height="15.2"/>
	
		<rect x="338.657" y="111.302" transform="matrix(-0.7071 0.7071 -0.7071 -0.7071 688.1486 -47.2363)" style="fill:#E6E9EE;" width="30.4" height="15.2"/>
	
		<rect x="138.942" y="111.301" transform="matrix(-0.7071 -0.7071 0.7071 -0.7071 179.0608 311.972)" style="fill:#E6E9EE;" width="30.4" height="15.2"/>
	
		<rect x="184.643" y="80.58" transform="matrix(0.3827 0.9239 -0.9239 0.3827 204.8327 -130.196)" style="fill:#E6E9EE;" width="30.401" height="15.2"/>
	
		<rect x="369.559" y="157.158" transform="matrix(-0.9239 0.3827 -0.3827 -0.9239 803.28 169.7309)" style="fill:#E6E9EE;" width="30.401" height="15.2"/>
	
		<rect x="108.003" y="265.635" transform="matrix(-0.9239 0.3827 -0.3827 -0.9239 341.5925 478.5222)" style="fill:#E6E9EE;" width="30.401" height="15.2"/>
	
		<rect x="292.949" y="80.907" transform="matrix(-0.3827 0.9239 -0.9239 -0.3827 507.8451 -162.3143)" style="fill:#E6E9EE;" width="30.401" height="15.2"/>
	
		<rect x="369.609" y="265.641" transform="matrix(-0.9239 -0.3827 0.3827 -0.9239 635.759 672.9461)" style="fill:#E6E9EE;" width="30.401" height="15.2"/>
	
		<rect x="108.05" y="157.188" transform="matrix(-0.9239 -0.3827 0.3827 -0.9239 174.0547 364.1994)" style="fill:#E6E9EE;" width="30.401" height="15.2"/>
</g>
<path style="fill:#FFFFFF;" d="M283.2,164.4c-0.4,0-0.4,0-0.8,0l0,0c0-15.2-12.4-27.6-27.6-27.6l0,0l0,0l0,0  c-15.2,0-27.6,12.4-27.6,27.6l0,0c-0.4,0-0.4,0-0.8,0c-2.4,0-4,4.8-3.6,10s2.8,9.6,5.2,9.6h0.4c3.6,16.4,16.4,28.4,26.8,28.4  c8.8,0,22.4-12.4,26.4-28.8c0.4,0,0.4,0,0.8,0.4c2.4,0,4.8-4,5.2-9.6C287.2,168.8,285.6,164.4,283.2,164.4z"/>
<path style="fill:#FF7058;" d="M254,260c0,0-22.4-44.8-24.8-43.6c-20.8,9.2-35.2,30-36,54h121.6c-0.8-24-15.2-44.8-36-54  C276.4,215.2,254,260,254,260z"/>
<path style="fill:#324A5E;" d="M281.2,169.2c0-2,0.4-3.6,1.2-5.6c0-15.2-12.4-27.2-27.6-27.2l0,0l0,0l0,0  c-15.2,0-27.6,12.4-27.6,27.6c0.8,1.6,1.2,3.2,1.2,5.2c0,0,0,2.4,0,2.8c0,0.8-0.4,1.6,0,2.8c0,0.8,0.8,2,1.6,2  c0.8,0.4,2-0.4,2.4-1.2s0.8-2,0.8-2.8c0-0.4,0-2.4,0-2.8c0.8-4.8,3.2-9.6,6.4-13.2l0,0c1.2-1.2,3.2-0.8,4,0.4c2,3.2,6,5.6,11.2,5.6  c6.4,0,11.6-3.6,12-8.4c1.2,0.8,2,1.6,3.2,2.4c3.6,3.6,5.6,8.8,6.8,13.6v2.4c0,0.8,0.4,2,0.8,2.8s1.6,1.6,2.4,1.2  c0.8-0.4,1.2-1.2,1.6-2c0-0.8,0-1.6,0-2.8C281.2,171.6,281.2,169.6,281.2,169.2z"/>
<g>
</g>
<g>
</g>
<g>
</g>
<g>
</g>
<g>
</g>
<g>
</g>
<g>
</g>
<g>
</g>
<g>
</g>
<g>
</g>
<g>
</g>
<g>
</g>
<g>
</g>
<g>
</g>
<g>
</g>
</svg>
