<?xml version="1.0" encoding="iso-8859-1"?>
<!-- Generator: Adobe Illustrator 19.0.0, SVG Export Plug-In . SVG Version: 6.00 Build 0)  -->
<svg xmlns="http://www.w3.org/2000/svg" xmlns:xlink="http://www.w3.org/1999/xlink" version="1.1" id="Layer_1" x="0px" y="0px" viewBox="0 0 508 508" style="enable-background:new 0 0 508 508;" xml:space="preserve">
<circle style="fill:#90DFAA;" cx="254" cy="254" r="254"/>
<polygon style="fill:#FFFFFF;" points="303.2,96 125.2,96 125.2,412 381.2,412 381.2,174 "/>
<polygon style="fill:#E6E9EE;" points="303.2,174 381.2,174 303.2,96 "/>
<g>
	<rect x="154.8" y="278.4" style="fill:#CED5E0;" width="196.4" height="15.2"/>
	<rect x="154.8" y="323.2" style="fill:#CED5E0;" width="196.4" height="15.2"/>
	<rect x="154.8" y="368" style="fill:#CED5E0;" width="196.4" height="15.2"/>
</g>
<polygon style="fill:#F1543F;" points="202.8,214 198.8,207.6 202.8,200.8 210.4,200.8 214.4,207.6 210.4,214 "/>
<path style="fill:#E6E9EE;" d="M232,154.8c-0.4,0-0.4,0-0.8,0l0,0c0-13.2-10.8-24-24-24l0,0l0,0l0,0c-13.2,0-24,10.8-24,24l0,0  c-0.4,0-0.4,0-0.8,0c-2,0-3.6,4-3.2,8.8c0.4,4.8,2.4,8.4,4.4,8.4h0.4c3.2,14.4,14.4,24.8,23.2,24.8c7.6,0,19.6-10.8,22.8-24.8h0.4  c2,0,4-3.6,4.4-8.4C235.6,159.2,234,155.2,232,154.8z"/>
<polygon style="fill:#FF7058;" points="214.8,240.4 198.4,240.4 202.8,214 210.4,214 "/>
<path style="fill:#324A5E;" d="M206.8,240c0,0-19.6-38.8-21.6-38c-18,8-30.4,26-31.2,46.8h105.6c-0.4-20.8-13.2-38.8-31.2-46.8  C226,201.2,206.8,240,206.8,240z"/>
<path style="fill:#FFFFFF;" d="M207.2,143.2L207.2,143.2L207.2,143.2z"/>
<path style="fill:#324A5E;" d="M230.4,159.6c0-1.6,0.4-3.2,1.2-4.8c0-13.2-10.8-23.6-24-23.6l0,0l0,0l0,0c-13.2,0-24,10.8-24,24  c0.4,1.6,0.8,2.8,0.8,4.4c0,0,0,2,0,2.4c0,0.8-0.4,1.6,0,2.4c0,0.8,0.4,1.6,1.2,2s1.6-0.4,2-1.2s0.4-1.6,0.8-2.4c0-0.4,0-2.4,0-2.4  c0.8-4.4,2.8-8.4,5.6-11.6l0,0c1.2-1.2,2.8-0.8,3.6,0.4c1.6,2.8,5.2,4.8,9.6,4.8c5.6,0,10-3.2,10.4-7.6c0.8,0.8,2,1.2,2.8,2  c3.2,3.2,4.8,7.6,5.6,12v2c0,0.8,0.4,1.6,0.8,2.4c0.4,0.8,1.2,1.2,2,1.2c0.8-0.4,1.2-1.2,1.2-2s0-1.6,0-2.4  C230.4,161.6,230.4,159.6,230.4,159.6z"/>
<polygon style="fill:#E6E9EE;" points="332,347.6 323.6,327.2 307.6,311.2 287.2,302 277.2,339.6 295.2,357.6 "/>
<path style="fill:#FF7058;" d="M397.2,221.6l-16-16L290,296.8c0,0,0,0,0,0.4l16,16c0,0,0,0,0.4,0L397.2,221.6z"/>
<path style="fill:#F1543F;" d="M290,312.8c4.4,4.4,11.2,4.4,15.6,0l-16-16C285.6,301.6,285.6,308.4,290,312.8z"/>
<path style="fill:#54C0EB;" d="M306,328.8c4.4,4.4,11.2,4.4,15.6,0l-16-16C301.6,317.6,301.6,324.4,306,328.8z"/>
<path style="fill:#84DBFF;" d="M413.2,237.6l-16-16L306,312.8c0,0,0,0,0,0.4l16,16c0,0,0,0,0.4,0L413.2,237.6z"/>
<path style="fill:#FF7058;" d="M337.6,344.8l91.2-91.2l-16-16L322,328.8c0,0,0,0,0,0.4L337.6,344.8L337.6,344.8z"/>
<path style="fill:#F1543F;" d="M321.6,329.2c-4,4.4-4,11.2,0,15.6c4.4,4.4,11.2,4.4,15.6,0L321.6,329.2z"/>
<g>
	<polygon style="fill:#324A5E;" points="295.2,357.6 277.2,339.6 270.4,364.4  "/>
	<path style="fill:#324A5E;" d="M451.6,218.4l-35.2-35.2c-3.6-3.6-8.8-3.6-12.4,0L381.2,206l47.6,47.6l22.8-22.8   C455.2,227.2,455.2,222,451.6,218.4z"/>
</g>
<g>
</g>
<g>
</g>
<g>
</g>
<g>
</g>
<g>
</g>
<g>
</g>
<g>
</g>
<g>
</g>
<g>
</g>
<g>
</g>
<g>
</g>
<g>
</g>
<g>
</g>
<g>
</g>
<g>
</g>
</svg>
