<?xml version="1.0" encoding="iso-8859-1"?>
<!-- Generator: Adobe Illustrator 19.0.0, SVG Export Plug-In . SVG Version: 6.00 Build 0)  -->
<svg xmlns="http://www.w3.org/2000/svg" xmlns:xlink="http://www.w3.org/1999/xlink" version="1.1" id="Layer_1" x="0px" y="0px" viewBox="0 0 508 508" style="enable-background:new 0 0 508 508;" xml:space="preserve">
<circle style="fill:#FFD05B;" cx="254" cy="254" r="254"/>
<polygon style="fill:#FF7058;" points="180.8,95.6 229.6,189.2 278.8,189.2 230,95.6 "/>
<path style="fill:#FFFFFF;" d="M353.6,173.6H154.4c-4.4,0-8,3.6-8,8V408c0,4.4,3.6,8,8,8h199.2c4.4,0,8-3.6,8-8V181.6  C361.6,177.2,358,173.6,353.6,173.6z M288,201.2h-67.6v-12.4h67.2v12.4H288z"/>
<rect x="169.6" y="220.4" style="fill:#54C0EB;" width="169.2" height="172.4"/>
<polygon style="fill:#F1543F;" points="278,95.6 229.2,189.2 278.4,189.2 327.2,95.6 "/>
<g>
	<circle style="fill:#324A5E;" cx="254" cy="277.2" r="24"/>
	<path style="fill:#324A5E;" d="M309.6,360.8c-2.8-28.4-26.4-50.8-55.6-50.8s-52.8,22-55.6,50.4h111.2V360.8z"/>
</g>
<g>
</g>
<g>
</g>
<g>
</g>
<g>
</g>
<g>
</g>
<g>
</g>
<g>
</g>
<g>
</g>
<g>
</g>
<g>
</g>
<g>
</g>
<g>
</g>
<g>
</g>
<g>
</g>
<g>
</g>
</svg>
