<?xml version="1.0" encoding="iso-8859-1"?>
<!-- Generator: Adobe Illustrator 19.0.0, SVG Export Plug-In . SVG Version: 6.00 Build 0)  -->
<svg xmlns="http://www.w3.org/2000/svg" xmlns:xlink="http://www.w3.org/1999/xlink" version="1.1" id="Layer_1" x="0px" y="0px" viewBox="0 0 508 508" style="enable-background:new 0 0 508 508;" xml:space="preserve">
<circle style="fill:#FD8469;" cx="254" cy="254" r="254"/>
<rect x="108.4" y="332" style="fill:#FFD05B;" width="49.6" height="61.2"/>
<rect x="188.8" y="306.8" style="fill:#FFFFFF;" width="49.6" height="86.4"/>
<rect x="269.6" y="242.8" style="fill:#4CDBC4;" width="49.6" height="150.4"/>
<rect x="350" y="184.8" style="fill:#FFD05B;" width="49.6" height="208.4"/>
<g>
	<path style="fill:#324A5E;" d="M293.6,122.8c-4.4-4.8-12-4.8-16.8-0.4l-26.8,26l-34-30.8c0,0-0.4,0-0.4-0.4   c-0.4-0.4-0.8-0.8-1.6-1.2c-0.4,0-0.4-0.4-0.8-0.4c-0.8-0.4-1.6-0.8-2.4-0.8c-0.4,0-0.4,0-0.8,0c-0.8,0-1.2-0.4-2-0.4   c-0.4,0-0.8,0-0.8,0c-0.4,0-0.8,0-0.8,0l-57.6,8.8c-3.6,0.4-6.8,2.8-8.8,6l-15.2,27.6c-3.2,5.6-1.2,13.2,4.8,16   c2,0.8,3.6,1.6,5.6,1.6c4.4,0,8.4-2.4,10.4-6L158,146l33.6-5.2l-16,58.4l-14.4,46.4l-36,32.4c-4.8,4.4-5.2,12-0.8,16.8   c2.4,2.8,5.6,4,8.8,4c2.8,0,5.6-1.2,8-3.2l38.8-34.8c1.6-1.6,2.8-3.2,3.2-5.2l11.6-37.6l30,11.6l-17.2,42.8   c-2.4,6,0.4,13.2,6.4,15.6c1.6,0.4,2.8,0.8,4.4,0.8c4.8,0,9.2-2.8,11.2-7.6l21.6-54c1.2-2.8,1.2-6.4,0-9.2s-3.6-5.2-6.4-6.4   L202,194.8l12.8-47.2l28,25.2c4.8,4.4,11.6,4,16.4-0.4l34.8-33.6C298.4,135.2,298.4,127.6,293.6,122.8z"/>
	<circle style="fill:#324A5E;" cx="221.6" cy="78.8" r="27.2"/>
</g>
<g>
</g>
<g>
</g>
<g>
</g>
<g>
</g>
<g>
</g>
<g>
</g>
<g>
</g>
<g>
</g>
<g>
</g>
<g>
</g>
<g>
</g>
<g>
</g>
<g>
</g>
<g>
</g>
<g>
</g>
</svg>
