<?xml version="1.0" encoding="iso-8859-1"?>
<!-- Generator: Adobe Illustrator 19.0.0, SVG Export Plug-In . SVG Version: 6.00 Build 0)  -->
<svg xmlns="http://www.w3.org/2000/svg" xmlns:xlink="http://www.w3.org/1999/xlink" version="1.1" id="Layer_1" x="0px" y="0px" viewBox="0 0 508 508" style="enable-background:new 0 0 508 508;" xml:space="preserve">
<circle style="fill:#FFD05B;" cx="254" cy="254" r="254"/>
<polygon style="fill:#FFFFFF;" points="356.4,99.6 204.8,99.6 204.8,368.8 422.8,368.8 422.8,166 "/>
<polygon style="fill:#E6E9EE;" points="356.4,166 422.8,166 356.4,99.6 "/>
<g>
	<rect x="230" y="189.2" style="fill:#CED5E0;" width="167.2" height="12.8"/>
	<rect x="230" y="232.4" style="fill:#CED5E0;" width="167.2" height="12.8"/>
	<rect x="230" y="275.6" style="fill:#CED5E0;" width="167.2" height="12.8"/>
	<rect x="230" y="318.4" style="fill:#CED5E0;" width="167.2" height="12.8"/>
</g>
<path style="fill:#334A5E;" d="M253.2,271.6L197.6,220c-3.6-3.2-8.8-4.8-14-4c-4.8,0.8-8.8,3.6-10.4,7.2c-1.6,3.2-2,7.2-1.2,11.6  c0.4,2.8,3.2,4.4,6.4,4s5.2-2.8,4.8-5.6c-0.8-3.6,0-5.6,0.4-6.8c0.4-0.8,1.2-1.2,2-1.2s2.4,0,3.2,0.8l45.2,42h-55.2  c-5.2,0-9.2,4.4-8.8,9.6l0.4,3.2c-8.8-3.2-17.2-2.4-24.4,0l0.4-3.2c0.4-5.2-3.6-9.6-8.8-9.6H82.4l44.8-41.6c0.8-0.8,2.4-1.2,3.2-0.8  c0.8,0,1.6,0.4,2,1.2c0.4,1.2,0.8,3.2,0.4,6.8c-0.4,2.8,1.6,5.2,4.8,5.6c3.2,0.4,6-1.6,6.4-4c0.8-4.8,0.4-8.4-1.2-11.6  c-1.6-3.6-5.6-6.4-10.8-7.2s-10.4,0.8-14,4l-52.4,49.2c-1.2,0.8-2,1.6-2.8,3.2c-0.4,0.4-0.4,0.8-0.4,1.2c-0.4,1.2-0.8,2.4-0.8,4  l4,53.6c0.4,4.4,4,8,8.8,8h59.2c4.4,0,8.4-3.6,8.8-8l2.8-34.8c5.6-3.2,15.6-6.8,26.8,0l2.8,34.8c0.4,4.4,4,8,8.8,8h59.2  c4.4,0,8.4-3.6,8.8-8l4-53.6c0-0.8,0-1.6,0-2C254.8,274,254.4,272.4,253.2,271.6z"/>
<g>
	<polygon style="fill:#E6E9EE;" points="76.8,327.6 73.2,279.6 134.4,279.6 130.8,327.6 95.6,327.6  "/>
	<polygon style="fill:#E6E9EE;" points="185.2,327.6 181.6,279.6 242.8,279.6 239.2,327.6  "/>
</g>
<g>
	<polygon style="fill:#CED5E0;" points="77.6,327.6 130.8,327.6 134.4,279.6  "/>
	<polygon style="fill:#CED5E0;" points="186,327.6 239.2,327.6 242.8,279.6  "/>
</g>
<g>
</g>
<g>
</g>
<g>
</g>
<g>
</g>
<g>
</g>
<g>
</g>
<g>
</g>
<g>
</g>
<g>
</g>
<g>
</g>
<g>
</g>
<g>
</g>
<g>
</g>
<g>
</g>
<g>
</g>
</svg>
