<?xml version="1.0" encoding="iso-8859-1"?>
<!-- Generator: Adobe Illustrator 19.0.0, SVG Export Plug-In . SVG Version: 6.00 Build 0)  -->
<svg xmlns="http://www.w3.org/2000/svg" xmlns:xlink="http://www.w3.org/1999/xlink" version="1.1" id="Layer_1" x="0px" y="0px" viewBox="0 0 508 508" style="enable-background:new 0 0 508 508;" xml:space="preserve">
<circle style="fill:#84DBFF;" cx="254" cy="254" r="254"/>
<g>
	<polygon style="fill:#324A5E;" points="342.8,248.8 330.8,248.8 330.8,226.4 177.2,226.4 177.2,248.8 165.2,248.8 165.2,214.4    342.8,214.4  "/>
	<rect x="248" y="200.8" style="fill:#324A5E;" width="12" height="19.6"/>
</g>
<g>
	<circle style="fill:#FFFFFF;" cx="254" cy="86.4" r="26.4"/>
	<path style="fill:#FFFFFF;" d="M308.4,178.4c-0.8-29.2-24.8-52.8-54.4-52.8l0,0c-29.6,0-53.6,23.6-54.4,52.8H308.4z"/>
	<circle style="fill:#FFFFFF;" cx="336.8" cy="298.8" r="26.4"/>
	<path style="fill:#FFFFFF;" d="M391.2,391.2c-0.8-29.6-24.8-53.2-54.4-53.2l0,0c-29.6,0-53.6,23.6-54.4,52.8h108.8V391.2z"/>
	<circle style="fill:#FFFFFF;" cx="171.2" cy="298.8" r="26.4"/>
	<path style="fill:#FFFFFF;" d="M225.6,391.2c-0.8-29.6-24.8-53.2-54.4-53.2l0,0c-29.6,0-53.6,23.6-54.4,52.8h108.8V391.2z"/>
</g>
<g>
</g>
<g>
</g>
<g>
</g>
<g>
</g>
<g>
</g>
<g>
</g>
<g>
</g>
<g>
</g>
<g>
</g>
<g>
</g>
<g>
</g>
<g>
</g>
<g>
</g>
<g>
</g>
<g>
</g>
</svg>
