<?xml version="1.0" encoding="iso-8859-1"?>
<!-- Generator: Adobe Illustrator 19.0.0, SVG Export Plug-In . SVG Version: 6.00 Build 0)  -->
<svg xmlns="http://www.w3.org/2000/svg" xmlns:xlink="http://www.w3.org/1999/xlink" version="1.1" id="Layer_1" x="0px" y="0px" viewBox="0 0 508 508" style="enable-background:new 0 0 508 508;" xml:space="preserve">
<circle style="fill:#84DBFF;" cx="254" cy="254" r="254"/>
<rect x="124.104" y="99.534" transform="matrix(-0.906 -0.4232 0.4232 -0.906 376.5596 591.0698)" style="fill:#E6E9EE;" width="259.591" height="308.39"/>
<rect x="124" y="99.6" style="fill:#FFFFFF;" width="259.6" height="308.4"/>
<rect x="144.8" y="118.8" style="fill:#E6E9EE;" width="218.4" height="88.4"/>
<g>
	<path style="fill:#324A5E;" d="M189.2,168.8c0,7.6-1.6,13.2-5.2,17.2s-8.4,6-14.8,6c-2.8,0-5.6-0.4-8-1.6v-11.6   c2,1.6,4.4,2.4,7.2,2.4c5.6,0,8.4-4.4,8.4-12.8v-32.8h12.4L189.2,168.8L189.2,168.8z"/>
	<path style="fill:#324A5E;" d="M224.4,191.6c-8,0-14.4-2.4-19.2-7.6c-4.8-5.2-7.6-12-7.6-20c0-8.8,2.4-16,7.6-21.2   c5.2-5.6,11.6-8,20-8c8,0,14.4,2.4,19.2,7.6c4.8,5.2,7.2,12,7.2,20.4c0,8.8-2.4,15.6-7.6,21.2C239.2,188.8,232.8,191.6,224.4,191.6   z M225.2,145.2c-4.4,0-8,1.6-10.4,4.8s-4,7.6-4,13.2c0,5.6,1.2,10,4,13.2c2.4,3.2,6,4.8,10,4.8c4.4,0,7.6-1.6,10.4-4.8   c2.4-3.2,3.6-7.6,3.6-12.8c0-5.6-1.2-10.4-3.6-13.2C232.8,146.8,229.2,145.2,225.2,145.2z"/>
	<path style="fill:#324A5E;" d="M261.2,190.8v-55.6h20c6,0,10.8,1.2,14.4,3.2c3.2,2.4,4.8,5.6,4.8,9.6c0,2.8-1.2,5.6-3.2,8   s-4.8,3.6-7.6,4.8l0,0c4,0.4,7.2,2,9.6,4.4s3.6,5.2,3.6,8.8c0,5.2-2,9.2-5.6,12s-8.4,4.4-14.8,4.4h-21.2V190.8z M273.6,144.4v13.2   h5.6c2.4,0,4.8-0.8,6-2c1.6-1.2,2.4-2.8,2.4-5.2c0-4-3.2-6-9.2-6H273.6z M273.6,166.8v14.4h6.8c2.8,0,5.2-0.8,6.8-2   c1.6-1.2,2.4-3.2,2.4-5.6c0-2.4-0.8-4-2.4-5.2s-4-2-6.8-2h-6.8V166.8z"/>
	<path style="fill:#324A5E;" d="M309.2,188.4V176c2.4,2,4.8,3.2,7.2,4.4c2.8,0.8,5.2,1.6,8,1.6c1.6,0,2.8,0,4-0.4s2-0.8,2.8-1.2   s1.2-1.2,1.6-1.6c0.4-0.8,0.4-1.6,0.4-2.4c0-1.2-0.4-2-0.8-2.8c-0.8-0.8-1.6-1.6-2.4-2.4c-1.2-0.8-2.4-1.6-4-2   c-1.6-0.8-3.2-1.2-4.8-2c-4.4-2-7.6-4-9.6-6.8c-2-2.4-3.2-5.6-3.2-9.6c0-2.8,0.4-5.2,1.6-7.6c1.2-2,2.8-3.6,4.8-5.2   c2-1.2,4.4-2.4,6.8-2.8c2.8-0.8,5.6-0.8,8.4-0.8s5.6,0,7.6,0.4c2.4,0.4,4.4,0.8,6,1.6V148c-0.8-0.8-2-1.2-3.2-1.6   c-1.2-0.4-2.4-0.8-3.2-1.2c-1.2-0.4-2.4-0.4-3.6-0.8c-1.2,0-2.4-0.4-3.2-0.4c-1.6,0-2.8,0-4,0.4s-2,0.8-2.8,1.2s-1.6,1.2-2,1.6   c-0.4,0.8-0.8,1.6-0.8,2.4c0,0.8,0.4,1.6,0.8,2.4c0.4,0.8,1.2,1.6,2,2c0.8,0.8,2,1.2,3.2,2s2.8,1.2,4.4,2c2.4,0.8,4.4,2,6,2.8   c1.6,1.2,3.2,2.4,4.4,3.6c1.2,1.2,2.4,2.8,2.8,4.4c0.8,1.6,1.2,3.6,1.2,6c0,3.2-0.4,5.6-1.6,7.6s-2.8,3.6-4.8,5.2   c-2,1.2-4.4,2.4-7.2,2.8c-2.8,0.4-5.6,0.8-8.4,0.8c-3.2,0-6-0.4-8.8-0.8C313.6,190.4,311.2,189.6,309.2,188.4z"/>
</g>
<g>
	<rect x="144.8" y="228" style="fill:#E6E9EE;" width="218.4" height="10.8"/>
	<rect x="144.8" y="272.8" style="fill:#E6E9EE;" width="218.4" height="10.8"/>
	<rect x="144.8" y="317.2" style="fill:#E6E9EE;" width="117.2" height="10.8"/>
	<rect x="144.8" y="362" style="fill:#E6E9EE;" width="117.2" height="10.8"/>
</g>
<rect x="282.8" y="317.2" style="fill:#FF7058;" width="80.4" height="55.6"/>
<g>
</g>
<g>
</g>
<g>
</g>
<g>
</g>
<g>
</g>
<g>
</g>
<g>
</g>
<g>
</g>
<g>
</g>
<g>
</g>
<g>
</g>
<g>
</g>
<g>
</g>
<g>
</g>
<g>
</g>
</svg>
