<?xml version="1.0" encoding="iso-8859-1"?>
<!-- Generator: Adobe Illustrator 19.0.0, SVG Export Plug-In . SVG Version: 6.00 Build 0)  -->
<svg xmlns="http://www.w3.org/2000/svg" xmlns:xlink="http://www.w3.org/1999/xlink" version="1.1" id="Layer_1" x="0px" y="0px" viewBox="0 0 508 508" style="enable-background:new 0 0 508 508;" xml:space="preserve">
<circle style="fill:#FD8469;" cx="254" cy="254" r="254"/>
<path style="fill:#FF7058;" d="M14.8,339.6C50,437.6,143.6,508,254,508s204-70.4,239.2-168.4H14.8z"/>
<g>
	<circle style="fill:#324A5E;" cx="364.4" cy="124.4" r="27.2"/>
	<path style="fill:#324A5E;" d="M387.2,159.6h-45.6c-7.2,0-13.2,6-13.2,13.2v108.4h21.2v58.4h29.6v-58.4h21.2V172.8   C400.4,165.6,394.4,159.6,387.2,159.6z"/>
</g>
<polygon style="fill:#FFFFFF;" points="294,186.4 247.2,132.4 200.4,186.4 222.4,186.4 222.4,339.6 272,339.6 272,186.4 "/>
<polygon style="fill:#FFD05B;" points="177.6,243.6 130.8,190 83.6,243.6 106,243.6 106,339.6 155.6,339.6 155.6,243.6 "/>
<g>
</g>
<g>
</g>
<g>
</g>
<g>
</g>
<g>
</g>
<g>
</g>
<g>
</g>
<g>
</g>
<g>
</g>
<g>
</g>
<g>
</g>
<g>
</g>
<g>
</g>
<g>
</g>
<g>
</g>
</svg>
