<?xml version="1.0" encoding="iso-8859-1"?>
<!-- Generator: Adobe Illustrator 19.0.0, SVG Export Plug-In . SVG Version: 6.00 Build 0)  -->
<svg xmlns="http://www.w3.org/2000/svg" xmlns:xlink="http://www.w3.org/1999/xlink" version="1.1" id="Layer_1" x="0px" y="0px" viewBox="0 0 508 508" style="enable-background:new 0 0 508 508;" xml:space="preserve">
<circle style="fill:#90DFAA;" cx="254" cy="254" r="254"/>
<path style="fill:#FF7058;" d="M442.4,257.6c-0.8-13.2-10.8-24.4-23.6-26.4l-30.4-5.2c-0.4,18-15.2,32.4-32.8,32.4  S323.2,244,322.8,226l-30.4,5.2c-13.2,2.4-22.8,13.2-23.6,26.4l-3.6,58.8H446L442.4,257.6z"/>
<path style="fill:#324A5E;" d="M407.2,149.2c0-1.2,0-10,0-11.2c-2-26.4-24-47.2-50.8-47.2c-0.4,0-0.8,0-0.8,0c-0.4,0-0.8,0-0.8,0  C328,90.8,306,111.6,304,138c0,1.2,0,9.6,0,11.2c0,50.4-53.6,51.2,25.6,51.2c7.2,0,51.2,0,60.4,0C456.8,200.4,407.2,198,407.2,149.2  z"/>
<ellipse style="fill:#FFFFFF;" cx="355.2" cy="164" rx="35.6" ry="50"/>
<path style="fill:#324A5E;" d="M380.8,121.2c0,0.4-0.4,1.2-0.8,1.6c-3.6,5.2-9.6,9.2-15.6,10.8c1.6-2.4,2.4-5.2,2-8  c-4.4,5.6-10.8,9.6-17.6,11.2c1.2-3.6,1.6-7.2,1.2-10.8c-6.8,9.2-16.4,16.8-26.8,20.8c-2.8,1.2-6,2-9.2,2  c-1.2-12.4,5.6-25.2,16-32.4c10.4-7.2,23.6-9.2,36-7.2c1.6,0.4,3.2,0.8,4.8,1.6c1.2,0.8,2,1.6,3.2,2.8c2,2.4,4,4.4,6.4,6.8  C380.4,120,380.8,120.8,380.8,121.2z"/>
<g>
	<path style="fill:#FFFFFF;" d="M293.2,312c0-20-14-36.8-33.6-40.8l-39.6-8c-6.4-1.2-11.2-6.8-11.2-13.6c0,0-23.6,52.4-52-0.4   c0,0-4.4,12-10.8,13.6l-40,8.4c-19.2,4-33.2,21.2-33.2,40.8L70,369.6h225.6L293.2,312z"/>
	<circle style="fill:#FFFFFF;" cx="182.8" cy="185.6" r="58.8"/>
</g>
<path style="fill:#324A5E;" d="M183.2,118.8L183.2,118.8L183.2,118.8C183.2,118.8,182.8,118.8,183.2,118.8  c-32.8,0-58.8,26.4-58.8,58.8c0,0.4-0.4,2.8-0.4,6.8c0,8.8,1.6,20,4,19.2c4.4-12,12.4-17.6,22.4-23.2c-1.2,4.4-4,8.4-7.6,10.8  c5.2-0.4,10-1.6,14.4-4.8c1.6-1.2,3.2-2.8,4.4-4c4.4-4.4,8.4-8.8,12.8-13.2c0.8-0.4,1.2-0.4,2-0.8c-0.4,4-0.8,7.6-2,11.6  c8.8-4.4,20-12.4,24.4-21.6c2-2.4,3.6-3.2,4.4-3.2c4,5.6,7.2,8.8,12,12c9.2,6.8,8.4,8.8,19.6,14c2,1.2,4,2,5.6,2.8l0.8,0.8  c0,0,0.4,0,0.4-0.4l0,0c0-3.2,0-6,0-6.4C242,145.2,215.6,118.8,183.2,118.8z"/>
<rect x="172.4" y="272.4" style="fill:#2B3B4E;" width="20.4" height="97.2"/>
<g>
	<polygon style="fill:#324A5E;" points="157.2,249.6 138.8,264.4 165.6,305.6 183.2,272.4  "/>
	<polygon style="fill:#324A5E;" points="208.8,249.6 226.4,264.4 200,305.6 182.4,272.4  "/>
</g>
<g>
	<circle style="fill:#CED5E0;" cx="182.4" cy="296" r="3.2"/>
	<circle style="fill:#CED5E0;" cx="182.4" cy="324.4" r="3.2"/>
	<circle style="fill:#CED5E0;" cx="182.4" cy="352.8" r="3.2"/>
</g>
<g>
</g>
<g>
</g>
<g>
</g>
<g>
</g>
<g>
</g>
<g>
</g>
<g>
</g>
<g>
</g>
<g>
</g>
<g>
</g>
<g>
</g>
<g>
</g>
<g>
</g>
<g>
</g>
<g>
</g>
</svg>
