<?xml version="1.0" encoding="iso-8859-1"?>
<!-- Generator: Adobe Illustrator 19.0.0, SVG Export Plug-In . SVG Version: 6.00 Build 0)  -->
<svg xmlns="http://www.w3.org/2000/svg" xmlns:xlink="http://www.w3.org/1999/xlink" version="1.1" id="Layer_1" x="0px" y="0px" viewBox="0 0 508 508" style="enable-background:new 0 0 508 508;" xml:space="preserve">
<circle style="fill:#324A5E;" cx="254" cy="254" r="254"/>
<path style="fill:#4CDBC4;" d="M301.6,268.4c-0.8-16-12.8-29.6-28.8-32.4l-36.8-6.4c-0.4,22-18.4,39.2-40.4,39.2  s-39.6-17.6-40.4-39.2l-36.8,6.4c-16,2.8-28,16-28.8,32.4L85.2,340H306L301.6,268.4z"/>
<path style="fill:#FFD05B;" d="M258.8,136c0-1.6,0-12,0-13.6c-2.4-32-29.2-57.6-62-57.6c-0.4,0-0.8,0-1.2,0s-0.8,0-1.2,0  c-32.8,0-59.6,25.2-62,57.6c0,1.6,0,12,0,13.6c0,61.6-65.2,62.4,31.2,62c8.8,0,62.8,0,73.6,0C319.6,198.4,258.8,195.2,258.8,136z"/>
<ellipse style="fill:#FFFFFF;" cx="195.6" cy="154" rx="43.6" ry="60.8"/>
<path style="fill:#FFD05B;" d="M226.8,102c0,0.8-0.4,1.2-0.8,2c-4.8,6.4-11.6,11.2-19.2,13.2c2-2.8,2.8-6.4,2.8-10  c-5.2,6.8-13.2,12-21.6,13.6c1.6-4,2-8.8,1.2-13.2c-8.4,11.2-19.6,20.4-32.8,25.6c-3.6,1.6-7.2,2.8-11.2,2.4  c-1.2-15.2,6.8-30.4,19.2-39.2s28.8-11.6,44-8.8c2,0.4,4,0.8,6,2c1.6,0.8,2.4,2,3.6,3.2c2.4,2.8,5.2,5.6,7.6,8  C226.4,100.8,226.8,101.2,226.8,102z"/>
<circle style="fill:#FF7058;" cx="340.8" cy="329.6" r="82"/>
<path style="fill:#FFFFFF;" d="M340.8,393.2c-35.2,0-63.6-28.4-63.6-63.6s28.4-63.6,63.6-63.6s63.6,28.4,63.6,63.6  C404.4,364.4,376,393.2,340.8,393.2z"/>
<path style="fill:#324A5E;" d="M344,361.6v10h-6.8V362c-6.4,0-12-1.6-17.6-4.4v-12.8c1.6,1.6,4.4,2.8,8,4s6.8,2,9.6,2V334  c-7.2-2.8-12-5.6-14.8-8.8c-2.8-3.2-4-6.8-4-11.6c0-4.8,1.6-8.8,5.2-12.4s8-5.6,13.6-6v-8.8h6.8v8.4c6.4,0.4,11.6,1.2,14.8,3.2v12.4  c-4.4-2.8-9.2-4.4-14.8-4.8v17.6c6.8,2.4,11.6,5.2,14.4,8.4c2.8,3.2,4.4,6.8,4.4,11.2c0,5.2-1.6,9.2-4.8,12.4  C354.8,359.2,350,361.2,344,361.6z M337.2,321.2v-14.8c-4.4,0.8-6.4,3.2-6.4,6.8C330.8,316.4,332.8,319.2,337.2,321.2z M344,336.8  v14c4.4-0.8,6.8-2.8,6.8-6.8C350.8,341.2,348.4,338.8,344,336.8z"/>
<g>
</g>
<g>
</g>
<g>
</g>
<g>
</g>
<g>
</g>
<g>
</g>
<g>
</g>
<g>
</g>
<g>
</g>
<g>
</g>
<g>
</g>
<g>
</g>
<g>
</g>
<g>
</g>
<g>
</g>
</svg>
