<?xml version="1.0" encoding="iso-8859-1"?>
<!-- Generator: Adobe Illustrator 19.0.0, SVG Export Plug-In . SVG Version: 6.00 Build 0)  -->
<svg xmlns="http://www.w3.org/2000/svg" xmlns:xlink="http://www.w3.org/1999/xlink" version="1.1" id="Layer_1" x="0px" y="0px" viewBox="0 0 508 508" style="enable-background:new 0 0 508 508;" xml:space="preserve">
<circle style="fill:#324A5E;" cx="254" cy="254" r="254"/>
<g>
	<path style="fill:#FFFFFF;" d="M294,384.4l-2.4-49.2c0-16.8-12-31.6-28.4-34.8l-34-6.4c-5.6-1.2-9.6-6-9.6-11.6v-18h-44.4V282   c0,5.6-4,10.4-9.2,11.6l-34.4,7.2c-16.4,3.6-28.4,18-28.4,34.8l-2.4,49.2H294V384.4z"/>
	<circle style="fill:#FFFFFF;" cx="197.6" cy="227.2" r="50.4"/>
</g>
<path style="fill:#FFD05B;" d="M197.6,170.4L197.6,170.4L197.6,170.4L197.6,170.4c-28,0-50.4,22.4-50.4,50.4c0,0.4-0.4,2.4-0.4,6  c0,7.6,1.6,17.2,3.6,16.4c3.6-10,10.8-15.2,19.2-20c-0.8,3.6-3.2,7.2-6.4,9.2c4.4-0.4,8.8-1.6,12-4c1.6-1.2,2.8-2.4,4-3.6  c3.6-3.6,7.2-7.6,10.8-11.2c0.4-0.4,1.2-0.4,1.6-0.8c0,3.2-0.8,6.8-2,9.6c7.2-4,16.8-10.8,20.8-18.4c1.6-2,2.8-2.8,4-2.8  c3.6,4.8,6.4,7.6,10.4,10.4c8,5.6,7.2,7.2,16.8,12c1.6,0.8,3.2,1.6,4.8,2.4l0.8,0.8h0.4l0,0c0-2.8,0-5.2,0-5.6  C248,192.8,225.6,170.4,197.6,170.4z"/>
<rect x="190.4" y="301.2" style="fill:#E6E9EE;" width="14" height="83.2"/>
<g>
	<polygon style="fill:#CED5E0;" points="175.6,282 160,294.8 182.8,329.6 198,301.2  "/>
	<polygon style="fill:#CED5E0;" points="219.6,282 234.8,294.4 212.4,329.6 197.2,301.2  "/>
	<circle style="fill:#CED5E0;" cx="197.2" cy="321.6" r="2.8"/>
	<circle style="fill:#CED5E0;" cx="197.2" cy="346" r="2.8"/>
	<circle style="fill:#CED5E0;" cx="197.2" cy="370" r="2.8"/>
	<path style="fill:#CED5E0;" d="M414.8,163.2c0-7.2-3.2-13.6-8.4-17.6c0.4-1.6,0.4-3.2,0.4-4.8c0-12.4-10-22.8-22.8-22.8   c-4.8,0-9.2,1.6-12.8,4c-4-4-9.6-6.4-15.6-6.4c-8.4,0-16,4.8-20,11.6c-2-0.8-4.4-1.2-6.8-1.2c-11.2,0-20.4,8-22.4,18.8   c-8.4,2.8-14.4,10.8-14.4,20.4c0,7.6,4,14.4,10,18c1.2,11.6,10.8,20.4,22.8,20.4c4.4,0,8.4-1.2,11.6-3.2c4,4,9.6,6,15.6,6   s11.2-2.4,15.2-6c3.2,2,7.2,3.2,11.2,3.2c11.2,0,20.8-8.4,22.4-19.2C408.8,181.2,414.8,172.8,414.8,163.2z"/>
	<circle style="fill:#CED5E0;" cx="299.2" cy="224.4" r="16.4"/>
	<circle style="fill:#CED5E0;" cx="273.2" cy="254.8" r="9.6"/>
</g>
<g>
	<circle style="fill:#FF7058;" cx="326.4" cy="160.8" r="8.8"/>
	<circle style="fill:#FF7058;" cx="353.2" cy="160.8" r="8.8"/>
	<circle style="fill:#FF7058;" cx="380" cy="160.8" r="8.8"/>
</g>
<g>
</g>
<g>
</g>
<g>
</g>
<g>
</g>
<g>
</g>
<g>
</g>
<g>
</g>
<g>
</g>
<g>
</g>
<g>
</g>
<g>
</g>
<g>
</g>
<g>
</g>
<g>
</g>
<g>
</g>
</svg>
