<?xml version="1.0" encoding="iso-8859-1"?>
<!-- Generator: Adobe Illustrator 19.0.0, SVG Export Plug-In . SVG Version: 6.00 Build 0)  -->
<svg xmlns="http://www.w3.org/2000/svg" xmlns:xlink="http://www.w3.org/1999/xlink" version="1.1" id="Layer_1" x="0px" y="0px" viewBox="0 0 508 508" style="enable-background:new 0 0 508 508;" xml:space="preserve">
<circle style="fill:#84DBFF;" cx="254" cy="254" r="254"/>
<polygon style="fill:#F1543F;" points="192.8,276.8 183.6,261.2 192.8,245.6 210.8,245.6 219.6,261.2 210.8,276.8 "/>
<path style="fill:#FFFFFF;" d="M261.6,136.4c-0.4,0-1.2,0-1.6,0.4v-0.4c0-31.6-25.6-56.8-56.8-56.8l0,0l0,0c0,0,0,0-0.4,0  c-31.2,0-56.4,25.6-56.4,56.8v0.4c-0.4-0.4-1.2-0.4-1.6-0.4c-4.8,0.4-8.4,9.6-7.6,20.8c0.8,11.2,5.2,20,10.4,19.6  c0.4,0,0.8,0,1.2-0.4c7.2,33.6,33.2,58.8,54.4,58.8c18.4,0,46.4-25.2,54.4-59.2c0.4,0,0.8,0.4,1.2,0.4c4.8,0.4,9.6-8.4,10.4-19.6  C270,146,266.8,136.8,261.6,136.4z"/>
<polygon style="fill:#FF7058;" points="220.8,338.4 182.8,338.4 192.8,276.8 210.8,276.8 "/>
<path style="fill:#324A5E;" d="M201.6,337.6c0,0-46-92-51.6-89.6c-42.4,19.2-72.4,61.6-73.6,110.8h250.4c-1.2-49.6-31.6-92-74-111.2  C247.6,245.6,201.6,337.6,201.6,337.6z"/>
<path style="fill:#FFFFFF;" d="M203.2,108.4v0.4V108.4z"/>
<path style="fill:#324A5E;" d="M257.6,147.2c0-4,0.8-7.6,2.4-11.2c-0.4-31.2-25.6-56.4-56.8-56.4l0,0l0,0c0,0,0,0-0.4,0  c-31.2,0-56.4,25.6-56.4,56.8c1.2,3.2,2.4,6.8,2.4,10.4c0,0.4,0,5.2,0,5.6c0,2-0.4,3.6-0.4,5.6c0.4,2,1.2,3.6,2.8,4.4  c2,0.8,4-0.8,5.2-2.4c1.2-1.6,1.2-4,1.6-6c0-0.4,0-5.2,0.4-6c2-10,6.4-20,13.6-27.2l0,0c2.4-2.4,6.8-2,8.4,1.2  c4,6.8,12.4,11.6,22.8,11.6c12.8,0,23.6-7.6,24.8-17.6c2.4,1.6,4.4,3.2,6.4,5.2c7.2,7.6,11.6,18,13.6,28.4c0,0.4,0,4.8,0,5.2  c0.4,2,0.8,4,1.6,6c1.2,1.6,3.2,3.2,5.2,2.4c1.6-0.4,2.8-2.4,2.8-4.4c0.4-2,0-3.6-0.4-5.6C257.6,152,257.6,147.2,257.6,147.2z"/>
<path style="fill:#FFFFFF;" d="M363.6,299.6c-2-0.8-3.2-2.4-3.2-4.4s1.2-3.6,3.2-4.4c24.8-9.2,43.2-40.8,43.6-65.2h-116  c0,24.4,18.4,56,43.6,65.2c2,0.8,3.2,2.4,3.2,4.4s-1.2,3.6-3.2,4.4c-24.8,9.2-43.2,40.8-43.6,65.2h116  C406.8,340,388.4,308.8,363.6,299.6z"/>
<path style="fill:#FFD05B;" d="M360,308.8c-6-2-9.6-7.6-9.6-13.6s3.6-11.6,9.6-13.6c13.2-4.8,24-17.6,30.8-31.2h-83.6  c6.4,13.6,17.6,26.4,30.8,31.2c6,2,9.6,7.6,9.6,13.6s-3.6,11.6-9.6,13.6c-17.6,6.4-31.6,27.2-35.6,45.6h93.2  C391.2,336.4,377.6,315.6,360,308.8z"/>
<g>
	<path style="fill:#324A5E;" d="M407.6,209.6H290c-4.4,0-8,3.6-8,8s3.6,8,8,8h117.2c4.4,0,8-3.6,8-8   C415.6,213.2,412,209.6,407.6,209.6z"/>
	<path style="fill:#324A5E;" d="M407.6,364.4H290c-4.4,0-8,3.6-8,8s3.6,8,8,8h117.2c4.4,0,8-3.6,8-8   C415.6,368.4,412,364.4,407.6,364.4z"/>
</g>
<g>
</g>
<g>
</g>
<g>
</g>
<g>
</g>
<g>
</g>
<g>
</g>
<g>
</g>
<g>
</g>
<g>
</g>
<g>
</g>
<g>
</g>
<g>
</g>
<g>
</g>
<g>
</g>
<g>
</g>
</svg>
