<?xml version="1.0" encoding="iso-8859-1"?>
<!-- Generator: Adobe Illustrator 19.0.0, SVG Export Plug-In . SVG Version: 6.00 Build 0)  -->
<svg xmlns="http://www.w3.org/2000/svg" xmlns:xlink="http://www.w3.org/1999/xlink" version="1.1" id="Layer_1" x="0px" y="0px" viewBox="0 0 508 508" style="enable-background:new 0 0 508 508;" xml:space="preserve">
<circle style="fill:#90DFAA;" cx="254" cy="254" r="254"/>
<rect x="246.72" y="239.4" transform="matrix(-0.7071 0.7071 -0.7071 -0.7071 637.8401 264.598)" style="fill:#2B3B4E;" width="34.8" height="50"/>
<circle style="fill:#324A5E;" cx="185.2" cy="185.2" r="102.4"/>
<path style="fill:#E6E9EE;" d="M236.8,236.8c-28.4,28.4-74.8,28.4-103.2,0s-28.4-74.8,0-103.2s74.8-28.4,103.2,0  S265.2,208.4,236.8,236.8z"/>
<path style="fill:#FF7058;" d="M297.2,255.6c-2.4-2.4-6-2-8.4,0l-33.2,33.2c-2.4,2.4-2.4,6,0,8.4l90,96.8  c13.2,14.4,35.6,14.8,49.6,0.8c13.6-13.6,13.2-36.4-0.8-49.6L297.2,255.6z"/>
<g>
	<circle style="fill:#324A5E;" cx="185.2" cy="157.6" r="18.8"/>
	<path style="fill:#324A5E;" d="M222.8,216c-0.8-20-17.2-36-37.2-36s-36.4,16-37.2,36H222.8z"/>
</g>
<g>
</g>
<g>
</g>
<g>
</g>
<g>
</g>
<g>
</g>
<g>
</g>
<g>
</g>
<g>
</g>
<g>
</g>
<g>
</g>
<g>
</g>
<g>
</g>
<g>
</g>
<g>
</g>
<g>
</g>
</svg>
