<?xml version="1.0" encoding="iso-8859-1"?>
<!-- Generator: Adobe Illustrator 19.0.0, SVG Export Plug-In . SVG Version: 6.00 Build 0)  -->
<svg xmlns="http://www.w3.org/2000/svg" xmlns:xlink="http://www.w3.org/1999/xlink" version="1.1" id="Layer_1" x="0px" y="0px" viewBox="0 0 508 508" style="enable-background:new 0 0 508 508;" xml:space="preserve">
<circle style="fill:#FFD05B;" cx="254" cy="254" r="254"/>
<polygon style="fill:#F1543F;" points="182.4,241.6 174,226.8 182.4,212.4 199.2,212.4 207.6,226.8 199.2,241.6 "/>
<path style="fill:#FFFFFF;" d="M246.8,110.4c-0.4,0-1.2,0-1.6,0.4v-0.4c0-29.2-23.6-53.2-53.2-53.2l0,0l0,0c0,0,0,0-0.4,0  c-29.2,0-52.8,24-52.8,53.2c0,0,0,0,0,0.4c-0.4-0.4-1.2-0.4-1.6-0.4c-4.4,0.4-7.6,8.8-7.2,19.2c0.8,10.4,5.2,18.4,9.6,18  c0.4,0,0.8,0,0.8-0.4c7.2,31.6,31.6,54.8,51.2,54.8c17.2,0,43.2-23.6,50.8-55.2c0.4,0,0.8,0.4,1.2,0.4c4.4,0.4,8.8-8,9.6-18  C254.4,119.6,251.2,110.8,246.8,110.4z"/>
<polygon style="fill:#FF7058;" points="208.4,299.2 172.8,299.2 182.4,241.6 199.2,241.6 "/>
<path style="fill:#324A5E;" d="M190.8,298.4c0,0-42.8-86-48-83.6C103.2,232.4,75.2,272,74,318h233.6c-1.2-46.4-29.2-86-69.2-103.6  C233.6,212.4,190.8,298.4,190.8,298.4z"/>
<circle style="fill:#FFFFFF;" cx="346.4" cy="315.6" r="87.6"/>
<path style="fill:#4CDBC4;" d="M346.4,386.4c-39.2,0-70.8-32-70.8-70.8c0-39.2,32-70.8,70.8-70.8c39.2,0,70.8,32,70.8,70.8  C417.6,354.4,385.6,386.4,346.4,386.4z"/>
<g>
	<rect x="342.8" y="252" style="fill:#324A5E;" width="7.2" height="10.4"/>
	<rect x="342.8" y="368.4" style="fill:#324A5E;" width="7.2" height="10.4"/>
	<rect x="399.6" y="312" style="fill:#324A5E;" width="10.4" height="7.2"/>
	<rect x="283.2" y="312" style="fill:#324A5E;" width="10.4" height="7.2"/>
	<polygon style="fill:#324A5E;" points="351.2,310.8 351.2,273.2 341.6,273.2 341.6,320.4 379.6,320.4 379.6,310.8  "/>
</g>
<g>
</g>
<g>
</g>
<g>
</g>
<g>
</g>
<g>
</g>
<g>
</g>
<g>
</g>
<g>
</g>
<g>
</g>
<g>
</g>
<g>
</g>
<g>
</g>
<g>
</g>
<g>
</g>
<g>
</g>
</svg>
