<?xml version="1.0" encoding="iso-8859-1"?>
<!-- Generator: Adobe Illustrator 19.0.0, SVG Export Plug-In . SVG Version: 6.00 Build 0)  -->
<svg xmlns="http://www.w3.org/2000/svg" xmlns:xlink="http://www.w3.org/1999/xlink" version="1.1" id="Layer_1" x="0px" y="0px" viewBox="0 0 508 508" style="enable-background:new 0 0 508 508;" xml:space="preserve">
<circle style="fill:#FFD05B;" cx="254" cy="254" r="254"/>
<path style="fill:#E6E9EE;" d="M414,182.8H172.8c-3.2,0-6,2.8-6,6V356c0,3.2,2.8,6,6,6H414c3.2,0,6-2.8,6-6V188.8  C420,185.2,417.2,182.8,414,182.8z"/>
<rect x="185.2" y="201.2" style="fill:#54C0EB;" width="216.4" height="142"/>
<rect x="259.2" y="362" style="fill:#CED5E0;" width="68" height="42.8"/>
<path style="fill:#E6E9EE;" d="M331.6,390.4h-76.4c-15.6,0-28.4,12-28.4,26.8l0,0h133.6l0,0C360,402.4,347.2,390.4,331.6,390.4z"/>
<rect x="104" y="114.4" style="fill:#324A5E;" width="196.8" height="170.8"/>
<g>
	<rect x="119.6" y="158.8" style="fill:#FFFFFF;" width="164.8" height="110.8"/>
	<rect x="271.6" y="130" style="fill:#FFFFFF;" width="13.2" height="13.2"/>
	<rect x="249.2" y="130" style="fill:#FFFFFF;" width="13.2" height="13.2"/>
	<rect x="226.4" y="130" style="fill:#FFFFFF;" width="13.2" height="13.2"/>
</g>
<path style="fill:#4CDBC4;" d="M194.8,245.6V232c0-4.4-2.8-8-6.8-8.8c-0.4,0-0.8,0-1.2-0.4l-14.4-4.8c-0.8-0.8-1.2-2-1.2-3.2v-0.4  c2-2,3.6-4.8,4.8-8c0,0,0.4,0,0.4,0.4c1.2,0.4,2.4-1.2,2.8-3.6c0.4-2,0-4-1.2-4.4c-0.4,0-0.4,0-0.8,0c0-0.4,0-0.8,0-0.8v-0.4l0,0  c0-1.6,0-2.8,0-4.4c-0.4-2-0.8-4-1.6-6c-0.4-0.4-0.4-1.2-0.8-1.6c-0.8-1.2-2-2-3.6-2.4c-0.4,0-1.2,0-1.6,0.4c0,0,0,0,0,0.4  c-0.4-0.4-0.8-0.8-1.2-0.8c-0.4-0.4-1.2-0.4-2-0.4c-3.2-0.4-5.6,0.4-8.8,0.8c-1.6,0.4-3.6,1.6-4.8,4c-0.8,2-1.6,3.6-2,6  c-0.4,1.2,0,3.2,0.4,5.2v0.4c-0.4,0-0.4,0-0.8,0c-1.2,0.4-1.6,2-1.2,4.4c0.4,2,1.6,3.6,2.8,3.6c0,0,0.4,0,0.4-0.4  c1.2,3.2,2.8,6,4.8,8v0.4c0,0.8-0.4,2-0.8,2.4c0,0-11.6,4.4-14.4,5.6c-0.4,0-0.8,0.4-1.6,0.4c-4,0.8-6.8,4.8-6.8,8.8V246h61.2V245.6  z"/>
<g>
	<rect x="208.8" y="184" style="fill:#CED5E0;" width="61.2" height="10"/>
	<rect x="208.8" y="209.2" style="fill:#CED5E0;" width="61.2" height="10"/>
	<rect x="208.8" y="234" style="fill:#CED5E0;" width="31.2" height="10"/>
</g>
<g>
</g>
<g>
</g>
<g>
</g>
<g>
</g>
<g>
</g>
<g>
</g>
<g>
</g>
<g>
</g>
<g>
</g>
<g>
</g>
<g>
</g>
<g>
</g>
<g>
</g>
<g>
</g>
<g>
</g>
</svg>
