<?xml version="1.0" encoding="iso-8859-1"?>
<!-- Generator: Adobe Illustrator 19.0.0, SVG Export Plug-In . SVG Version: 6.00 Build 0)  -->
<svg xmlns="http://www.w3.org/2000/svg" xmlns:xlink="http://www.w3.org/1999/xlink" version="1.1" id="Layer_1" x="0px" y="0px" viewBox="0 0 508 508" style="enable-background:new 0 0 508 508;" xml:space="preserve">
<circle style="fill:#FD8469;" cx="254" cy="254" r="254"/>
<path style="fill:#FFD05B;" d="M393.2,185.2H114.8c-10.8,0-19.6,8.8-19.6,19.6v153.6h317.6V204.8C412.8,194,404,185.2,393.2,185.2z"/>
<path style="fill:#324A5E;" d="M336.4,284.4H171.6c-6.8,0-12.4,5.6-12.4,12.4v62h189.6v-62C348.8,290,343.2,284.4,336.4,284.4z"/>
<g>
	<rect x="181.2" y="308.8" style="fill:#FFFFFF;" width="145.6" height="122.4"/>
	<rect x="181.2" y="77.2" style="fill:#FFFFFF;" width="145.6" height="108"/>
</g>
<g>
	<circle style="fill:#324A5E;" cx="378.8" cy="214.4" r="10"/>
	<path style="fill:#324A5E;" d="M263.2,374.8L263.2,374.8c-0.8-0.8-1.6-2-1.6-3.6v-2.8c2.8-2.8,5.6-6.8,6.8-11.6h0.4   c1.2,0,2.4-2.4,2.8-5.2c0.4-2.8-0.8-5.6-2-5.6h-0.4l0,0c0-11.6-6.8-15.2-15.2-15.2l0,0l0,0c-8.4,0-15.2,3.6-15.2,15.2l0,0h-0.4   c-1.2,0-2.4,2.4-2,5.6c0.4,2.8,1.6,5.2,2.8,5.2c0,0,0,0,0.4,0c1.2,5.2,4,9.6,7.2,12.4v2.4c0,1.2-0.4,2.4-0.8,3.2l0,0   c-15.6,4-27.2,17.6-27.2,34.4h71.6C289.6,392.8,278.4,378.8,263.2,374.8z"/>
</g>
<g>
</g>
<g>
</g>
<g>
</g>
<g>
</g>
<g>
</g>
<g>
</g>
<g>
</g>
<g>
</g>
<g>
</g>
<g>
</g>
<g>
</g>
<g>
</g>
<g>
</g>
<g>
</g>
<g>
</g>
</svg>
