<?xml version="1.0" encoding="iso-8859-1"?>
<!-- Generator: Adobe Illustrator 19.0.0, SVG Export Plug-In . SVG Version: 6.00 Build 0)  -->
<svg xmlns="http://www.w3.org/2000/svg" xmlns:xlink="http://www.w3.org/1999/xlink" version="1.1" id="Layer_1" x="0px" y="0px" viewBox="0 0 508 508" style="enable-background:new 0 0 508 508;" xml:space="preserve">
<circle style="fill:#84DBFF;" cx="254" cy="254" r="254"/>
<path style="fill:#FF7058;" d="M254,97.2c0,0-70,63.2-157.2,50v50c0,39.6,6.8,79.2,21.6,116c20.4,51.2,60,110,135.2,129.2v0.4h0.4  h0.4v-0.4c75.2-18.8,114.8-77.6,135.2-129.2c14.8-36.8,21.6-76.4,21.6-116v-50C324,160.4,254,97.2,254,97.2z"/>
<path style="fill:#FFFFFF;" d="M254,134.4L254,134.4c-24.8,17.2-71.2,42.4-127.2,44v18.8c0,26.4,3.2,52,9.6,75.6  c2.8,10,6,19.6,9.6,29.2c23.2,58,59.6,94.8,108,109.2l0,0c48.4-14.4,84.8-51.2,108-109.2c3.6-9.6,6.8-19.2,9.6-29.2  c6.4-24,9.6-49.2,9.6-75.6v-18.8C325.2,176.8,278.8,151.6,254,134.4z"/>
<ellipse style="fill:#FFD05B;" cx="254.4" cy="227.2" rx="23.2" ry="31.2"/>
<g>
	<path style="fill:#324A5E;" d="M257.6,192.4c-4-1.6-8.4-0.8-12.4,0c-0.8,0-1.6,0.4-2,0.8c-0.4,0.4-0.8,1.2-1.2,1.6   c-0.4,0.4-1.2,0.8-1.6,1.2c-2.8,1.6-4.4,4.4-5.2,7.6c0,0.4,0,0.8-0.4,1.2s-0.4,0.4-0.8,0.4c-3.2,0.8-4.8,4-5.2,7.6   s1.6,16.8,2.8,20.4c1.2-2,2.8-0.4,3.2-7.6c0-2.4-1.2-4.4-1.6-6.8c0-2,0.4-4,1.2-6s2.4-4,4.4-3.6c0.8,0,1.6,0.8,2.4,1.2   c4.4,3.2,10,2.8,15.2,1.6c5.2-1.2,10-4.4,14.8-4c2.8,0,4,5.6,4.4,6.8c0.4,2,0.4,4,0.4,6.4c0,2-0.4,6.4-0.4,8.4c0,1.2,1.6,1.6,2,0.4   c0.8-1.6,1.2-5.6,1.2-7.2c0-2.4,0.4-4.8,0.4-7.6c0-3.2,0-6.4-1.2-9.2s-3.2-5.2-5.2-7.6c-2-2-4-4.4-6.8-5.2c-1.6-0.4-3.2,0-4.8-0.4   C260.4,193.6,259.2,192.8,257.6,192.4z"/>
	<path style="fill:#324A5E;" d="M273.2,262.8L254,292.4l-19.2-29.6c-22,7.6-38,28.8-38,53.6h114.4   C310.8,291.6,295.2,270.8,273.2,262.8z"/>
</g>
<g>
</g>
<g>
</g>
<g>
</g>
<g>
</g>
<g>
</g>
<g>
</g>
<g>
</g>
<g>
</g>
<g>
</g>
<g>
</g>
<g>
</g>
<g>
</g>
<g>
</g>
<g>
</g>
<g>
</g>
</svg>
