<?xml version="1.0" encoding="iso-8859-1"?>
<!-- Generator: Adobe Illustrator 19.0.0, SVG Export Plug-In . SVG Version: 6.00 Build 0)  -->
<svg xmlns="http://www.w3.org/2000/svg" xmlns:xlink="http://www.w3.org/1999/xlink" version="1.1" id="Layer_1" x="0px" y="0px" viewBox="0 0 508 508" style="enable-background:new 0 0 508 508;" xml:space="preserve">
<circle style="fill:#324A5E;" cx="254" cy="254" r="254"/>
<polygon style="fill:#FF7058;" points="296.4,444 254,399.6 211.6,444 211.6,270 296.4,270 "/>
<polygon style="fill:#FFD05B;" points="357.2,208 377.6,187.6 357.2,167.2 368.4,140.4 341.6,129.2 341.6,100 312.4,100 301.2,73.2   274.4,84.4 254,64 233.6,84.4 206.8,73.2 195.6,100 166.4,100 166.4,129.2 139.6,140.4 150.8,167.2 130.4,187.6 150.8,208   139.6,234.8 166.4,246 166.4,275.2 195.6,275.2 206.8,302 233.6,290.8 254,311.2 274.4,290.8 301.2,302 312.4,275.2 341.6,275.2   341.6,246 368.4,234.8 "/>
<circle style="fill:#FFFFFF;" cx="254" cy="187.6" r="75.6"/>
<path style="fill:#4CDBC4;" d="M294,225.2v-17.6c0-5.6-3.6-10.4-9.2-11.6c-0.4,0-1.2-0.4-1.6-0.4l-18.8-6.8c-0.8-1.2-1.6-2.4-1.6-4  v-0.4c2.8-2.8,4.8-6.4,6-10.4c0,0,0.4,0.4,0.8,0.4c1.6,0.4,3.2-2,3.6-4.8s-0.4-5.6-1.6-5.6c-0.4,0-0.4,0-0.8,0c0-0.4,0-0.8,0-1.2  s0-0.4,0-0.8l0,0c0-2,0.4-3.6,0-5.6c-0.4-2.8-1.2-5.2-2.4-8c-0.4-0.8-0.4-1.6-0.8-2c-1.2-1.6-2.8-2.8-4.8-3.2c-0.8,0-1.6,0-2,0.4  c0,0,0,0.4-0.4,0.4c-0.4-0.4-0.8-0.8-1.6-1.2c-0.4-0.8-1.2-0.8-2-0.8c-4-0.4-7.6,0.4-11.6,1.2c-2,0.4-4.8,2-6,5.2  c-1.2,2.8-2,4.8-2.4,8c-0.4,1.6,0,4.4,0.4,6.8c0,0.4,0,0.4,0,0.8c-0.4,0-0.4,0-0.8,0c-1.6,0.4-2.4,2.8-1.6,5.6  c0.4,2.8,2.4,4.8,3.6,4.8c0.4,0,0.4,0,0.8-0.4c1.2,4,3.6,8,6.4,10.8v0.4c0,1.2-0.4,2.4-1.2,3.6c0,0-15.2,6-18.8,7.2  c-0.8,0.4-1.2,0.4-2,0.4c-5.6,0.8-9.6,5.6-9.6,11.2v17.6L294,225.2L294,225.2z"/>
<g>
</g>
<g>
</g>
<g>
</g>
<g>
</g>
<g>
</g>
<g>
</g>
<g>
</g>
<g>
</g>
<g>
</g>
<g>
</g>
<g>
</g>
<g>
</g>
<g>
</g>
<g>
</g>
<g>
</g>
</svg>
