<?xml version="1.0" encoding="iso-8859-1"?>
<!-- Generator: Adobe Illustrator 19.0.0, SVG Export Plug-In . SVG Version: 6.00 Build 0)  -->
<svg xmlns="http://www.w3.org/2000/svg" xmlns:xlink="http://www.w3.org/1999/xlink" version="1.1" id="Layer_1" x="0px" y="0px" viewBox="0 0 508 508" style="enable-background:new 0 0 508 508;" xml:space="preserve">
<circle style="fill:#FFD05B;" cx="254" cy="254" r="254"/>
<ellipse style="fill:#324A5E;" cx="369.2" cy="238.4" rx="38.8" ry="38"/>
<polygon style="fill:#FFFFFF;" points="346,342.4 191.6,298 191.6,178.8 346,134.4 "/>
<g>
	<path style="fill:#FF7058;" d="M362,116.8h-0.8c-8.4,0-15.2,6.8-15.2,15.2v212.4c0,8.4,6.8,15.2,15.2,15.2h0.8   c8.4,0,15.2-6.8,15.2-15.2V132C377.2,123.6,370.4,116.8,362,116.8z"/>
	<path style="fill:#FF7058;" d="M114,178.8c-12.8,0-22.8,10.4-22.8,22.8v73.6c0,12.8,10.4,22.8,22.8,22.8h77.6V178.8H114z"/>
</g>
<path style="fill:#324A5E;" d="M165.2,297.6H126l22,105.6c0.4,2,2,3.6,4.4,3.6h30.4c2.8,0,4.8-2.4,4.4-5.2L165.2,297.6z"/>
<g>
</g>
<g>
</g>
<g>
</g>
<g>
</g>
<g>
</g>
<g>
</g>
<g>
</g>
<g>
</g>
<g>
</g>
<g>
</g>
<g>
</g>
<g>
</g>
<g>
</g>
<g>
</g>
<g>
</g>
</svg>
