<?xml version="1.0" encoding="iso-8859-1"?>
<!-- Generator: Adobe Illustrator 19.0.0, SVG Export Plug-In . SVG Version: 6.00 Build 0)  -->
<svg xmlns="http://www.w3.org/2000/svg" xmlns:xlink="http://www.w3.org/1999/xlink" version="1.1" id="Layer_1" x="0px" y="0px" viewBox="0 0 508 508" style="enable-background:new 0 0 508 508;" xml:space="preserve">
<circle style="fill:#84DBFF;" cx="254" cy="254" r="254"/>
<path style="fill:#324A5E;" d="M180.8,194.8c-65.2,0-118.4,53.2-118.4,118.4s53.2,118.4,118.4,118.4s118.4-53.2,118.4-118.4  C298.8,248,246,194.8,180.8,194.8z M244,307.2c-0.4-12.8-1.6-25.2-4-36.8c25.2,8.4,42.8,21.6,46.4,36.8H244z M232.4,307.2h-46v-45.6  c14.4,0.4,28,2.4,40.4,5.2C230,279.2,232,292.8,232.4,307.2z M186.4,249.6v-42.4c15.2,3.6,28.4,21.6,36.8,46.4  C212,251.6,199.6,250,186.4,249.6z M174.8,207.2v42.4c-12.8,0.4-25.2,2-36.8,4.4C146.4,228.8,159.6,210.8,174.8,207.2z M174.8,261.6  v45.6h-45.6c0.4-14.4,2.4-28,5.2-40.4C146.8,263.6,160.4,262,174.8,261.6z M117.2,307.2H74.8c3.6-15.2,21.6-28.4,46.4-36.8  C119.2,282,117.6,294.4,117.2,307.2z M117.2,318.8c0.4,12.8,1.6,25.2,4,36.8C96,347.2,78.4,334,74.8,318.8H117.2z M129.2,318.8h45.6  v45.6c-14.4-0.4-28-2.4-40.4-5.2C131.2,347.2,129.6,333.2,129.2,318.8z M174.8,376.4v42.4c-15.2-3.6-28.4-21.6-36.8-46.4  C149.6,374.8,162,376,174.8,376.4z M186.4,418.8v-42.4c12.8-0.4,25.2-1.6,36.8-4C215.2,397.6,201.6,415.2,186.4,418.8z M186.4,364.8  v-46H232c-0.4,14.4-2.4,28-5.2,40.4C214.8,362.4,200.8,364.4,186.4,364.8z M244,318.8h42.4c-3.6,15.2-21.6,28.4-46.4,36.8  C242.4,344.4,243.6,332,244,318.8z M282,280c-10.8-9.6-26.4-17.6-45.2-22.8c-5.2-18.8-13.2-34.4-22.8-45.2  C246,222.4,271.2,248,282,280z M147.6,212c-9.6,10.8-17.6,26.4-22.8,45.2c-18.8,5.2-34.4,13.2-45.2,22.8  C90,248,115.2,222.4,147.6,212z M79.6,346.4c10.8,9.6,26.4,17.6,45.2,22.8c5.2,18.8,13.2,34.4,22.8,45.2  C115.2,403.6,90,378.4,79.6,346.4z M214,414.4c9.6-10.8,17.6-26.4,22.8-45.2c18.8-5.2,34.4-13.2,45.2-22.8  C271.2,378.4,246,403.6,214,414.4z"/>
<path style="fill:#FFFFFF;" d="M408,116.4H252.8c-3.2,0-5.6,2.4-5.6,5.6v107.2c0,3.2,2.4,5.6,5.6,5.6H266L252.8,276l57.2-41.2h98  c3.2,0,5.6-2.4,5.6-5.6V122C413.6,118.8,411.2,116.4,408,116.4z"/>
<path style="fill:#FF7058;" d="M366,212.8v-16c0-4.8-3.2-9.2-8-10.4c-0.4,0-0.8-0.4-1.6-0.4l-16.8-6c-0.8-0.8-1.6-2-1.6-3.6V176  c2.4-2.4,4.4-5.6,5.6-9.2l0.4,0.4c1.2,0.4,2.8-1.6,3.2-4c0.4-2.4-0.4-4.8-1.6-5.2c-0.4,0-0.4,0-0.8,0c0-0.4,0-0.8,0-1.2v-0.4l0,0  c0-1.6,0-3.2,0-5.2c-0.4-2.4-1.2-4.8-2-7.2c-0.4-0.8-0.4-1.2-0.8-2c-0.8-1.6-2.4-2.4-4.4-2.8c-0.8,0-1.2,0-2,0.4c0,0,0,0,0,0.4  c-0.4-0.4-0.8-0.8-1.2-1.2c-0.8-0.4-1.6-0.4-2-0.4c-3.6-0.4-6.8,0.4-10.4,0.8c-2,0.4-4.4,2-5.6,4.4s-1.6,4.4-2.4,6.8  c-0.4,1.2,0,4,0.4,6v0.4c-0.4,0-0.4,0-0.8,0c-1.2,0.4-2,2.4-1.6,5.2c0.4,2.4,2,4.4,3.2,4c0.4,0,0.4,0,0.4-0.4  c1.2,3.6,3.2,7.2,5.6,9.6v0.4c0,1.2-0.4,2-1.2,3.2c0,0-13.6,5.2-16.8,6.4c-0.4,0.4-1.2,0.4-1.6,0.4c-4.8,1.2-8,5.6-8,10.4v16H366  V212.8z"/>
<g>
</g>
<g>
</g>
<g>
</g>
<g>
</g>
<g>
</g>
<g>
</g>
<g>
</g>
<g>
</g>
<g>
</g>
<g>
</g>
<g>
</g>
<g>
</g>
<g>
</g>
<g>
</g>
<g>
</g>
</svg>
