<?xml version="1.0" encoding="iso-8859-1"?>
<!-- Generator: Adobe Illustrator 19.0.0, SVG Export Plug-In . SVG Version: 6.00 Build 0)  -->
<svg xmlns="http://www.w3.org/2000/svg" xmlns:xlink="http://www.w3.org/1999/xlink" version="1.1" id="Layer_1" x="0px" y="0px" viewBox="0 0 508 508" style="enable-background:new 0 0 508 508;" xml:space="preserve">
<circle style="fill:#FD8469;" cx="254" cy="254" r="254"/>
<path style="fill:#2B3B4E;" d="M298.4,236l-46-6.8c-4-0.8-7.2-2.4-9.6-5.2c-31.6,37.6-56,14-67.2-2c-2.8,3.6-6.8,6.4-11.6,7.2  l-45.6,6.8c-17.2,2.8-30,18-30,35.6V356h240.4v-84.8C328,253.6,315.6,238.8,298.4,236z"/>
<g>
	<polygon style="fill:#E6E9EE;" points="183.2,241.2 207.2,336 231.6,241.2  "/>
	<path style="fill:#E6E9EE;" d="M242.4,224c-3.6-3.6-5.6-8-5.6-13.2v-30.4h-58v30.8c0,4-1.2,8-3.6,11.2   C186.4,238,210.8,261.6,242.4,224z"/>
</g>
<g>
	
		<ellipse transform="matrix(0.0688 -0.9976 0.9976 0.0688 112.4508 390.0974)" style="fill:#FFFFFF;" cx="265.197" cy="134.81" rx="20.399" ry="8.8"/>
	
		<ellipse transform="matrix(0.0688 0.9976 -0.9976 0.0688 274.391 -23.954)" style="fill:#FFFFFF;" cx="150.027" cy="135.012" rx="20.399" ry="8.8"/>
	<path style="fill:#FFFFFF;" d="M264.8,114.4c0-31.6-25.6-57.2-57.2-57.2l0,0l0,0c0,0,0,0-0.4,0c-31.6,0-56.8,25.6-56.8,57.2   c0,0.8,0,14.8,0,21.2c0,43.2,32.4,78.4,57.2,78.4c21.6,0,57.2-35.2,57.2-78.4C264.4,129.6,264.8,115.6,264.8,114.4z"/>
</g>
<path style="fill:#324A5E;" d="M207.6,57.6L207.6,57.6L207.6,57.6C207.6,57.6,207.2,57.6,207.6,57.6c-31.6,0-57.2,25.6-57.2,57.2  c0,0.4,0,3.6,0,7.2c0,8.8-1.2,21.2,0.8,20.4c4.4-11.6,14.8-19.6,24.4-25.2c-1.2,4.4-3.6,8-7.2,10.4c4.8-0.4,10-1.6,14-4.8  c1.6-1.2,3.2-2.8,4.4-4c4-4.4,8.4-8.4,12.4-12.8c0.4-0.4,1.2-0.4,2-0.8c-0.4,3.6-0.8,7.6-2,11.2c8.4-4.4,19.2-12,23.6-20.8  c2-2.4,3.2-3.2,4.4-3.2c4,5.2,7.2,8.4,11.6,11.6c9.2,6.4,8,8.4,18.8,13.6c2,0.8,3.6,2,5.6,2.8l0.8,0.8c0,0,0.4,0,0.4-0.4l0,0  c0-3.2,0-6,0-6.4C264.8,83.2,239.2,57.6,207.6,57.6z"/>
<polygon style="fill:#2C9984;" points="201.6,261.6 195.6,251.6 201.6,241.2 213.2,241.2 219.2,251.6 213.2,261.6 "/>
<g>
	<polygon style="fill:#FFFFFF;" points="177.6,217.6 190,266 208,241.2  "/>
	<polygon style="fill:#FFFFFF;" points="207.2,241.2 225.2,266 238,217.6  "/>
</g>
<polygon style="fill:#4CDBC4;" points="221.2,310.8 207.2,336 193.6,310.8 201.6,261.6 213.2,261.6 "/>
<g>
	<polygon style="fill:#324A5E;" points="272,232.4 238,217.6 207.2,336 260,268 247.6,259.2  "/>
	<polygon style="fill:#324A5E;" points="143.6,232.4 177.6,217.6 208,336 155.6,268 167.6,259.2  "/>
</g>
<g>
	<path style="fill:#E6E9EE;" d="M420.4,351.2v-22.8l-16.8-1.6c-1.2-4.8-3.2-9.6-5.6-14l10.8-13.2l-16-16L379.2,294   c-4.4-2.4-8.8-4.4-14-5.6l-1.6-16.8h-22.8l-1.6,16.8c-4.8,1.2-9.6,3.2-14,5.6L312,283.2l-16,16l10.8,13.2c-2.4,4.4-4.4,8.8-5.6,14   l-16.8,1.6v22.8l16.8,1.6c1.2,4.8,3.2,9.6,5.6,14L296,379.6l16,16l13.2-10.8c4.4,2.4,8.8,4.4,14,5.6l1.6,16.8h22.8l1.6-16.8   c4.8-1.2,9.6-3.2,14-5.6l13.2,10.8l16-16l-10.8-13.2c2.4-4.4,4.4-8.8,5.6-14L420.4,351.2z M352,371.2c-17.2,0-31.2-14-31.2-31.2   s14-31.2,31.2-31.2s31.2,14,31.2,31.2S369.6,371.2,352,371.2z"/>
	<circle style="fill:#E6E9EE;" cx="352" cy="339.6" r="15.2"/>
</g>
<g>
</g>
<g>
</g>
<g>
</g>
<g>
</g>
<g>
</g>
<g>
</g>
<g>
</g>
<g>
</g>
<g>
</g>
<g>
</g>
<g>
</g>
<g>
</g>
<g>
</g>
<g>
</g>
<g>
</g>
</svg>
