<?xml version="1.0" encoding="iso-8859-1"?>
<!-- Generator: Adobe Illustrator 19.0.0, SVG Export Plug-In . SVG Version: 6.00 Build 0)  -->
<svg xmlns="http://www.w3.org/2000/svg" xmlns:xlink="http://www.w3.org/1999/xlink" version="1.1" id="Layer_1" x="0px" y="0px" viewBox="0 0 508 508" style="enable-background:new 0 0 508 508;" xml:space="preserve">
<circle style="fill:#FFD05B;" cx="254" cy="254" r="254"/>
<path style="fill:#FF7058;" d="M368.8,105.6H139.2c-2.8,0-5.2,2.4-5.2,5.2v283.6c0,2.8,2.4,5.2,5.2,5.2h230c2.8,0,5.2-2.4,5.2-5.2  V110.8C374,108,372,105.6,368.8,105.6z"/>
<rect x="157.6" y="129.2" style="fill:#FFFFFF;" width="192.8" height="246.4"/>
<g>
	<path style="fill:#324A5E;" d="M300,87.6h-22.4V66.4c0-3.2-2.4-5.6-5.6-5.6h-35.6c-3.2,0-5.6,2.4-5.6,5.6v21.2h-22.4   c-4.8,0-8.4,4-8.4,8.4v48h109.2V96C308.4,91.6,304.8,87.6,300,87.6z"/>
	<circle style="fill:#324A5E;" cx="254" cy="177.2" r="13.6"/>
	<path style="fill:#324A5E;" d="M265.6,195.2h-22.8c-3.6,0-6.4,2.8-6.4,6.4V246h10.4v34.8h14.8V246H272v-44.4   C272,198,269.2,195.2,265.6,195.2z"/>
</g>
<g>
	<rect x="182.4" y="308.8" style="fill:#CED5E0;" width="143.6" height="12"/>
	<rect x="182.4" y="340.4" style="fill:#CED5E0;" width="77.6" height="12"/>
</g>
<g>
</g>
<g>
</g>
<g>
</g>
<g>
</g>
<g>
</g>
<g>
</g>
<g>
</g>
<g>
</g>
<g>
</g>
<g>
</g>
<g>
</g>
<g>
</g>
<g>
</g>
<g>
</g>
<g>
</g>
</svg>
