<?xml version="1.0" encoding="iso-8859-1"?>
<!-- Generator: Adobe Illustrator 19.0.0, SVG Export Plug-In . SVG Version: 6.00 Build 0)  -->
<svg xmlns="http://www.w3.org/2000/svg" xmlns:xlink="http://www.w3.org/1999/xlink" version="1.1" id="Layer_1" x="0px" y="0px" viewBox="0 0 508 508" style="enable-background:new 0 0 508 508;" xml:space="preserve">
<circle style="fill:#324A5E;" cx="254" cy="254" r="254"/>
<path style="fill:#E6E9EE;" d="M288.4,222.4L288.4,222.4c-3.6-3.2-5.6-8-5.6-13.2v-30H226v30.4c0,4-1.2,8.8-3.6,12l0,0  c-57.6,14-100.4,66-100.8,128h265.2C386,288.4,344.8,237.6,288.4,222.4z"/>
<path style="fill:#FFFFFF;" d="M312,115.6c-0.4,0-1.2,0-1.6,0.4v-0.4c0-31.2-25.2-56.4-56.4-56.4l0,0l0,0c0,0,0,0-0.4,0  c-30.8,0-56,25.2-56,56.4v0.4c-0.4-0.4-1.2-0.4-1.6-0.4c-4.8,0.4-8.4,9.6-7.6,20.4c0.8,10.8,5.2,19.6,10,19.2c0.4,0,0.8,0,1.2-0.4  c7.6,33.6,33.2,58.4,54.4,58.4c18,0,46-24.8,54-58.4c0.4,0,0.8,0.4,1.2,0.4c4.8,0.4,9.6-8.4,10-19.2C320,125.2,316.8,116,312,115.6z  "/>
<g>
	<path style="fill:#FF7058;" d="M254,422c-40.4,0-73.2-32.8-73.2-73.2s32.8-73.2,73.2-73.2s73.2,32.8,73.2,73.2   C327.2,388.8,294.4,422,254,422z M254,290c-32,0-58.4,26-58.4,58.4c0,32,26,58.4,58.4,58.4c32,0,58.4-26,58.4-58.4   C312.4,316.4,286,290,254,290z"/>
	<path style="fill:#FF7058;" d="M348.8,342.8h-63.6c-0.8-4.4-2.8-8.8-5.2-12.4l52-52c2.4-2.4,2.4-5.6,0-8s-5.6-2.4-8,0l-52,52   c-3.6-2.4-8-4.4-12.4-5.2v-63.6c0-3.2-2.4-5.6-5.6-5.6c-3.2,0-5.6,2.4-5.6,5.6v63.6c-4.4,0.8-8.8,2.8-12.4,5.2l-52-52   c-2.4-2.4-5.6-2.4-8,0s-2.4,5.6,0,8l52,52c-2.4,3.6-4.4,8-5.2,12.4h-63.6c-3.2,0-5.6,2.4-5.6,5.6s2.4,5.6,5.6,5.6h63.6   c0.8,4.4,2.8,8.8,5.2,12.4l-52,52c-2.4,2.4-2.4,5.6,0,8c1.2,1.2,2.4,1.6,4,1.6s2.8-0.4,4-1.6l52-52c3.6,2.4,8,4.4,12.4,5.2v63.6   c0,3.2,2.4,5.6,5.6,5.6c3.2,0,5.6-2.4,5.6-5.6v-63.6c4.4-0.8,8.8-2.4,12.4-5.2l52,52c1.2,1.2,2.4,1.6,4,1.6s2.8-0.4,4-1.6   c2.4-2.4,2.4-5.6,0-8l-52-52c2.4-3.6,4.4-8,5.2-12.4h63.6c3.2,0,5.6-2.4,5.6-5.6C354.4,345.2,352,342.8,348.8,342.8z M254,368.8   c-11.2,0-20.4-9.2-20.4-20.4c0-11.2,9.2-20.4,20.4-20.4c11.2,0,20.4,9.2,20.4,20.4C274.4,359.6,265.2,368.8,254,368.8z"/>
</g>
<g>
</g>
<g>
</g>
<g>
</g>
<g>
</g>
<g>
</g>
<g>
</g>
<g>
</g>
<g>
</g>
<g>
</g>
<g>
</g>
<g>
</g>
<g>
</g>
<g>
</g>
<g>
</g>
<g>
</g>
</svg>
