<?xml version="1.0" encoding="iso-8859-1"?>
<!-- Generator: Adobe Illustrator 19.0.0, SVG Export Plug-In . SVG Version: 6.00 Build 0)  -->
<svg xmlns="http://www.w3.org/2000/svg" xmlns:xlink="http://www.w3.org/1999/xlink" version="1.1" id="Layer_1" x="0px" y="0px" viewBox="0 0 508 508" style="enable-background:new 0 0 508 508;" xml:space="preserve">
<circle style="fill:#FFD05B;" cx="254" cy="254" r="254"/>
<ellipse style="fill:#FFFFFF;" cx="224" cy="148" rx="56.8" ry="76"/>
<path style="fill:#324A5E;" d="M232.4,63.2c-9.6-3.6-20-2-30,0.4c-2,0.4-4,1.2-5.2,2.4c-1.2,1.2-2,2.4-2.8,3.6c-1.2,1.2-2.8,2-4,2.8  c-6.4,4-11.2,10.8-12.8,18.4c-0.4,1.2-0.4,2.4-1.2,2.8s-1.6,0.8-2,0.8c-7.2,1.6-12,10-12.8,18c-0.4,8,3.6,41.2,6.4,49.6  c2.8-4.8,6.8-0.8,7.6-18.4c0.4-5.6-3.2-11.2-3.6-16.8c0-4.8,0.8-10,2.8-14.4c2-4.8,6.4-9.6,11.2-8.8c2,0.4,4,2,6,3.2  c10.4,7.6,24.4,7.2,36.4,4.4c12.4-2.8,24-10.4,36.4-10c6.8,0,10,13.2,10.8,16.8c1.2,4.8,1.2,10,1.2,15.2c0,4.8-0.8,15.2-1.2,20.8  c-0.4,2.8,3.6,4,4.8,1.2c2-4,3.2-13.6,3.2-17.2c0.4-6,0.4-12,0.8-18c0-7.6,0-15.2-2.4-22.4c-2.8-7.2-7.6-12.8-12.4-18  s-9.6-10.8-16.4-12c-4-0.8-8,0-11.6-0.8C238.4,66,235.6,64.4,232.4,63.2z"/>
<path style="fill:#FF7058;" d="M269.6,234.8l-46.4,72l-46.4-72c-53.6,19.2-92,70-92.8,130.4h278C362,304.8,323.2,254,269.6,234.8z"/>
<path style="fill:#FFFFFF;" d="M439.2,283.6c10-16,10.8-35.2,3.6-51.2l-20,31.2h-34L374,232.8l20-31.2c-17.6,0-34.8,8.8-44.8,24.8  c-11.6,18.4-10.8,40.8,0.4,58L282,379.6c-9.2,12.8-5.6,30.8,7.6,39.2c13.2,8.4,30.8,4,38.8-9.6L386.8,308  C406.8,310.4,427.6,301.6,439.2,283.6z M299.2,404c-4.8-2.8-6-9.2-3.2-13.6c2.8-4.8,9.2-6,13.6-3.2c4.8,2.8,6,9.2,3.2,13.6  C310,405.6,304,406.8,299.2,404z"/>
<g>
</g>
<g>
</g>
<g>
</g>
<g>
</g>
<g>
</g>
<g>
</g>
<g>
</g>
<g>
</g>
<g>
</g>
<g>
</g>
<g>
</g>
<g>
</g>
<g>
</g>
<g>
</g>
<g>
</g>
</svg>
