<?xml version="1.0" encoding="iso-8859-1"?>
<!-- Generator: Adobe Illustrator 19.0.0, SVG Export Plug-In . SVG Version: 6.00 Build 0)  -->
<svg xmlns="http://www.w3.org/2000/svg" xmlns:xlink="http://www.w3.org/1999/xlink" version="1.1" id="Layer_1" x="0px" y="0px" viewBox="0 0 508 508" style="enable-background:new 0 0 508 508;" xml:space="preserve">
<circle style="fill:#FD8469;" cx="254" cy="254" r="254"/>
<ellipse style="fill:#FFFFFF;" cx="254" cy="362.4" rx="132.8" ry="77.2"/>
<ellipse style="fill:#FFD05B;" cx="254" cy="362.4" rx="94" ry="54.8"/>
<ellipse style="fill:#4CDBC4;" cx="254" cy="362.4" rx="49.6" ry="28.8"/>
<g>
	<circle style="fill:#324A5E;" cx="254" cy="96" r="27.6"/>
	<path style="fill:#324A5E;" d="M350.4,74.4c-4.8-4-12-3.2-16,1.2l-55.6,58.8l-12.8,4.8l-12,17.2l-12-17.2l-12.8-4.8L173.6,76   c-4.4-4.4-11.6-5.2-16-1.2c-5.2,4.4-5.6,11.6-1.2,16.4l59.6,64.4v108.8h20v77.2l0,0c0,10,8,17.6,17.6,17.6l0,0   c10,0,17.6-8,17.6-17.6v-2.8v-74.4h20V155.6l59.6-64.4C356,86.4,355.6,78.8,350.4,74.4z"/>
</g>
<g>
</g>
<g>
</g>
<g>
</g>
<g>
</g>
<g>
</g>
<g>
</g>
<g>
</g>
<g>
</g>
<g>
</g>
<g>
</g>
<g>
</g>
<g>
</g>
<g>
</g>
<g>
</g>
<g>
</g>
</svg>
