<?xml version="1.0" encoding="iso-8859-1"?>
<!-- Generator: Adobe Illustrator 19.0.0, SVG Export Plug-In . SVG Version: 6.00 Build 0)  -->
<svg xmlns="http://www.w3.org/2000/svg" xmlns:xlink="http://www.w3.org/1999/xlink" version="1.1" id="Layer_1" x="0px" y="0px" viewBox="0 0 508 508" style="enable-background:new 0 0 508 508;" xml:space="preserve">
<circle style="fill:#FFD05B;" cx="254" cy="254" r="254"/>
<path style="fill:#E6E9EE;" d="M431.2,189.6l-256.4-84.8c-7.2-2.4-14.8,1.6-17.2,8.8L104.8,274c-2.4,7.2,1.6,14.8,8.8,17.2  L370,375.6c7.2,2.4,14.8-1.6,17.2-8.8L440,206.4C442.4,199.6,438.4,192,431.2,189.6z"/>
<path style="fill:#FF7058;" d="M374.8,184h-270c-7.6,0-13.6,6-13.6,13.6v168.8c0,7.6,6,13.6,13.6,13.6h270c7.6,0,13.6-6,13.6-13.6  V197.6C388.4,190,382.4,184,374.8,184z"/>
<ellipse style="fill:#E6E9EE;" cx="173.6" cy="255.2" rx="23.2" ry="31.2"/>
<g>
	<path style="fill:#324A5E;" d="M177.2,220.4c-4-1.6-8.4-0.8-12.4,0c-0.8,0-1.6,0.4-2,0.8c-0.4,0.4-0.8,1.2-1.2,1.6   c-0.4,0.4-1.2,0.8-1.6,1.2c-2.8,1.6-4.4,4.4-5.2,7.6c0,0.4,0,0.8-0.4,1.2s-0.4,0.4-0.8,0.4c-3.2,0.8-4.8,4-5.2,7.6   c-0.4,3.2,1.6,16.8,2.8,20.4c1.2-2,2.8-0.4,3.2-7.6c0-2.4-1.2-4.4-1.6-6.8c0-2,0.4-4,1.2-6s2.4-4,4.4-3.6c0.8,0,1.6,0.8,2.4,1.2   c4.4,3.2,10,2.8,15.2,1.6s10-4.4,14.8-4c2.8,0,4,5.6,4.4,6.8c0.4,2,0.4,4,0.4,6.4c0,2-0.4,6.4-0.4,8.4c0,1.2,1.6,1.6,2,0.4   c0.8-1.6,1.2-5.6,1.2-7.2c0-2.4,0.4-4.8,0.4-7.6c0-3.2,0-6.4-1.2-9.2s-3.2-5.2-5.2-7.6c-2-2-4-4.4-6.8-5.2c-1.6-0.4-3.2,0-4.8-0.4   C179.6,221.6,178.4,220.8,177.2,220.4z"/>
	<path style="fill:#324A5E;" d="M192.4,290.8l-19.2,29.6L154,290.8c-22,7.6-38,28.8-38,53.6h114.4   C230.4,319.6,214.4,298.8,192.4,290.8z"/>
</g>
<g>
	<rect x="250" y="227.2" style="fill:#E6E9EE;" width="109.6" height="18.8"/>
	<rect x="250" y="272.4" style="fill:#E6E9EE;" width="109.6" height="18.8"/>
	<rect x="250" y="318" style="fill:#E6E9EE;" width="57.6" height="18.8"/>
</g>
<g>
</g>
<g>
</g>
<g>
</g>
<g>
</g>
<g>
</g>
<g>
</g>
<g>
</g>
<g>
</g>
<g>
</g>
<g>
</g>
<g>
</g>
<g>
</g>
<g>
</g>
<g>
</g>
<g>
</g>
</svg>
