<?xml version="1.0" encoding="iso-8859-1"?>
<!-- Generator: Adobe Illustrator 19.0.0, SVG Export Plug-In . SVG Version: 6.00 Build 0)  -->
<svg xmlns="http://www.w3.org/2000/svg" xmlns:xlink="http://www.w3.org/1999/xlink" version="1.1" id="Layer_1" x="0px" y="0px" viewBox="0 0 508 508" style="enable-background:new 0 0 508 508;" xml:space="preserve">
<circle style="fill:#90DFAA;" cx="254" cy="254" r="254"/>
<ellipse style="fill:#FFFFFF;" cx="254.4" cy="290.8" rx="38" ry="50.4"/>
<path style="fill:#324A5E;" d="M260,234.8c-6.4-2.4-13.2-1.6-20,0.4c-1.2,0.4-2.4,0.8-3.6,1.6c-0.8,0.8-1.2,1.6-2,2.4  c-0.8,0.8-1.6,1.2-2.8,2c-4.4,2.8-7.2,7.2-8.4,12.4c0,0.8-0.4,1.6-0.8,2c-0.4,0.4-0.8,0.4-1.6,0.4c-4.8,1.2-8,6.8-8.4,12  s2.4,27.6,4.4,32.8c2-3.2,4.4-0.4,5.2-12.4c0-4-2-7.2-2.4-11.2c0-3.2,0.8-6.4,2-9.6s4-6.4,7.6-5.6c1.6,0.4,2.8,1.2,4,2.4  c6.8,4.8,16,4.8,24.4,2.8c8-2,16-6.8,24.4-6.8c4.4,0,6.4,8.8,7.2,11.2c0.8,3.2,0.8,6.4,0.8,10c0,3.2-0.4,10-0.8,13.6  c0,2,2.4,2.4,3.2,0.8c1.2-2.8,2-8.8,2-11.6c0-4,0.4-8,0.4-12c0-5.2,0-10-1.6-14.8c-1.6-4.8-5.2-8.4-8.4-12c-3.2-3.6-6.4-7.2-10.8-8  c-2.4-0.4-5.2,0-7.6-0.8C264,236.4,262,235.6,260,234.8z"/>
<path style="fill:#FF7058;" d="M284.8,349.2l-30.8,48l-30.8-48c-35.6,12.8-61.6,46.8-62,86.8h185.6  C346.4,395.6,320.8,361.6,284.8,349.2z"/>
<path style="fill:#FFFFFF;" d="M263.2,211.2V50c0-5.2-4-9.2-9.2-9.2c-5.2,0-9.2,4-9.2,9.2v161.2H263.2z"/>
<path style="fill:#324A5E;" d="M174.4,184c9.2-10.8,23.6-18,39.6-18c16.4,0,30.8,7.2,39.6,18c9.2-10.8,23.6-18,39.6-18  c16.4,0,30.8,7.2,39.6,18c9.2-10.8,23.6-18,39.6-18c12.4,0,23.6,4,32.4,10.8c-18-66.8-79.2-116-151.6-116s-132.8,49.2-150.8,116  c8.8-6.8,20-10.8,32.4-10.8C150.8,166,165.2,173.2,174.4,184z"/>
<g>
</g>
<g>
</g>
<g>
</g>
<g>
</g>
<g>
</g>
<g>
</g>
<g>
</g>
<g>
</g>
<g>
</g>
<g>
</g>
<g>
</g>
<g>
</g>
<g>
</g>
<g>
</g>
<g>
</g>
</svg>
