<?xml version="1.0" encoding="iso-8859-1"?>
<!-- Generator: Adobe Illustrator 19.0.0, SVG Export Plug-In . SVG Version: 6.00 Build 0)  -->
<svg xmlns="http://www.w3.org/2000/svg" xmlns:xlink="http://www.w3.org/1999/xlink" version="1.1" id="Layer_1" x="0px" y="0px" viewBox="0 0 508 508" style="enable-background:new 0 0 508 508;" xml:space="preserve">
<circle style="fill:#FD8469;" cx="254" cy="254" r="254"/>
<path style="fill:#FFFFFF;" d="M294.4,226.8l-42.8-12c-4-0.8-11.2-1.6-14-4c-32.4,38.4-57.2,14.4-68.4-2c-2.8,4-9.6,4.4-14.4,5.6  l-44,13.2c-17.6,2.8-30.8,18-30.8,36v81.6h244.4v-82.4C324.8,244.8,312,229.6,294.4,226.8z"/>
<polygon style="fill:#E6E9EE;" points="177.6,228 202.4,324.4 226.8,228 "/>
<polygon style="fill:#2B3B4E;" points="196,248.8 190,238.4 196,228 208,228 214,238.4 208,248.8 "/>
<g>
	<polygon style="fill:#324A5E;" points="171.6,204 184.4,253.2 202.4,228  "/>
	<polygon style="fill:#324A5E;" points="202,228 220.4,253.2 232.8,204  "/>
	<polygon style="fill:#324A5E;" points="216,298.8 202.4,324.4 188,298.8 196,248.8 208,248.8  "/>
</g>
<g>
	<polygon style="fill:#E6E9EE;" points="267.6,219.2 232.8,204 202.4,324.4 255.2,255.2 243.2,246.4  "/>
	<polygon style="fill:#E6E9EE;" points="137.2,219.2 171.6,204 202.4,324.4 149.2,255.2 161.6,246.4  "/>
</g>
<g>
	
		<ellipse transform="matrix(0.0689 -0.9976 0.9976 0.0689 91.6366 378.1614)" style="fill:#FFFFFF;" cx="248.398" cy="139.991" rx="16" ry="7.2"/>
	
		<ellipse transform="matrix(0.0689 0.9976 -0.9976 0.0689 285.6435 -25.7285)" style="fill:#FFFFFF;" cx="156.604" cy="140.154" rx="16" ry="7.2"/>
	<path style="fill:#FFFFFF;" d="M248.4,124c0-25.2-20.4-45.6-45.6-45.6l0,0l0,0l0,0c-25.2,0-45.2,20.4-45.2,45.6   c0,0.8,0,11.6,0,16.8c0,34.4,25.6,62.4,45.6,62.4c17.2,0,45.6-28,45.6-62.4C248,135.6,248.4,124.8,248.4,124z"/>
</g>
<path style="fill:#CED5E0;" d="M246.4,144.8c1.6,0.8,3.2-2,3.2-3.6c1.2-10.4,2-21.2,3.2-31.6c0.4-2.8,0.4-5.6,0-8  c-0.8-3.2-2.4-5.6-4.4-8.4c-3.6-5.2-7.2-10.4-13.2-12.4c-2-0.8-4-0.8-6-1.2c-4.4-1.2-8-4-12-5.6c-16.4-8-36.4-4-52.4,5.2  c-2,1.2-4,2.4-5.6,3.6c-2,2-3.6,4.8-4.8,7.6c-3.2,8-2.8,17.2-2.4,25.6c0.8,10.8,2,21.6,3.6,32.4c1.6,0.4,2.4-2,2.4-3.6  c0.8-9.2,1.2-18.4,2-27.6c0-2,0.4-4,1.6-5.2c2-2,4.8-1.6,7.6-1.2c6,0.8,12.8-0.4,17.6-4c-2,6-5.2,11.2-9.6,15.6  c5.6-2,10.8-3.6,16.4-5.6c5.2-1.6,10-3.6,14.4-6.4s8.4-6.8,10-12c0,8.4-2.8,16.4-7.2,23.6c4.4-2.8,8.8-5.6,12.4-9.2  c3.6-3.6,6-8.4,6.4-13.6c3.2,4.4,6.8,8.8,10,13.2c2.4,3.2,4.8,6,6,9.6C248,128.8,245.6,136.8,246.4,144.8z"/>
<path style="fill:#FFD05B;" d="M201.6,435.2h0.4H201.6c0.4,0.4,20.8-9.2,46.8-7.6c0-14.4,5.6-28.4,16-38.8l2-2l-8-8l-8-8l-2,2  c-10.4,10.4-24.4,16-38.8,16C211.2,414.8,201.6,435.2,201.6,435.2z"/>
<g>
	<circle style="fill:#324A5E;" cx="201.6" cy="435.6" r="3.6"/>
	<circle style="fill:#324A5E;" cx="228" cy="409.6" r="4.4"/>
	
		<rect x="215.98" y="401.805" transform="matrix(0.7071 0.7071 -0.7071 0.7071 360.9059 -30.0946)" style="fill:#324A5E;" width="1.6" height="37.6"/>
</g>
<rect x="239.423" y="370.549" transform="matrix(0.7071 0.7071 -0.7071 0.7071 342.3563 -75.4234)" style="fill:#4CDBC4;" width="45.6" height="10"/>
<path style="fill:#324A5E;" d="M282,388c19.2-15.2,41.2-34.8,63.6-57.2C406.4,270,460.8,198,450,187.2s-82.8,44-143.6,104.4  c-22,22.4-41.6,44.4-56.8,64L282,388z"/>
<g>
</g>
<g>
</g>
<g>
</g>
<g>
</g>
<g>
</g>
<g>
</g>
<g>
</g>
<g>
</g>
<g>
</g>
<g>
</g>
<g>
</g>
<g>
</g>
<g>
</g>
<g>
</g>
<g>
</g>
</svg>
