<?xml version="1.0" encoding="iso-8859-1"?>
<!-- Generator: Adobe Illustrator 19.0.0, SVG Export Plug-In . SVG Version: 6.00 Build 0)  -->
<svg xmlns="http://www.w3.org/2000/svg" xmlns:xlink="http://www.w3.org/1999/xlink" version="1.1" id="Layer_1" x="0px" y="0px" viewBox="0 0 508 508" style="enable-background:new 0 0 508 508;" xml:space="preserve">
<circle style="fill:#84DBFF;" cx="254" cy="254" r="254"/>
<circle style="fill:#324A5E;" cx="254" cy="74.4" r="22.8"/>
<polygon style="fill:#FFFFFF;" points="311.6,332.8 311.6,279.6 196.4,279.6 196.4,332.8 108,332.8 108,400.8 400,400.8 400,332.8   "/>
<path style="fill:#FF7058;" d="M276.4,373.2H232v-12.4h14.4v-44l-14.8,3.2v-12.4l30.4-6v59.2h14.4V373.2z"/>
<path style="fill:#324A5E;" d="M327.6,61.6L327.6,61.6c-3.6-3.2-9.2-3.2-12.4,0.4l-42.4,44.8l-9.6,3.6l-9.2,13.2l-9.2-13.2l-9.6-3.6  L192.4,62c-3.2-3.6-8.8-3.6-12.4-0.4l0,0c-3.6,3.2-3.6,8.8-0.4,12.4l45.2,49.2V200H240v63.2h27.2v-63.6h15.2v-76.8L328,74  C331.6,70.4,331.2,64.8,327.6,61.6z"/>
<g>
</g>
<g>
</g>
<g>
</g>
<g>
</g>
<g>
</g>
<g>
</g>
<g>
</g>
<g>
</g>
<g>
</g>
<g>
</g>
<g>
</g>
<g>
</g>
<g>
</g>
<g>
</g>
<g>
</g>
</svg>
