<?xml version="1.0" encoding="iso-8859-1"?>
<!-- Generator: Adobe Illustrator 19.0.0, SVG Export Plug-In . SVG Version: 6.00 Build 0)  -->
<svg xmlns="http://www.w3.org/2000/svg" xmlns:xlink="http://www.w3.org/1999/xlink" version="1.1" id="Layer_1" x="0px" y="0px" viewBox="0 0 508 508" style="enable-background:new 0 0 508 508;" xml:space="preserve">
<circle style="fill:#FFD05B;" cx="254" cy="254" r="254"/>
<path style="fill:#FFFFFF;" d="M325.6,160.4H182.4c-2,0-3.6,1.6-3.6,3.6v178.8c0,2,1.6,3.6,3.6,3.6h18c2,0,3.6,1.6,3.6,3.6v94.4  c0,2,1.6,3.6,3.6,3.6h92.8c2,0,3.6-1.6,3.6-3.6V350c0-2,1.6-3.6,3.6-3.6h18c2,0,3.6-1.6,3.6-3.6V164  C329.2,162,327.6,160.4,325.6,160.4z"/>
<polygon style="fill:#E6E9EE;" points="220,432 220,330.4 194.4,330.4 194.4,176.4 313.6,176.4 313.6,330.4 288,330.4 288,432 "/>
<polygon style="fill:#FF7058;" points="194.4,285.6 194.4,330.4 220,330.4 220,432 288,432 288,330.4 313.6,330.4 313.6,285.6 "/>
<circle style="fill:#FFFFFF;" cx="254" cy="103.2" r="43.2"/>
<polygon style="fill:#324A5E;" points="288,256.8 254,257.2 257.6,206 220,278.4 250.4,278 244.4,328.8 "/>
<g>
</g>
<g>
</g>
<g>
</g>
<g>
</g>
<g>
</g>
<g>
</g>
<g>
</g>
<g>
</g>
<g>
</g>
<g>
</g>
<g>
</g>
<g>
</g>
<g>
</g>
<g>
</g>
<g>
</g>
</svg>
