<?xml version="1.0" encoding="iso-8859-1"?>
<!-- Generator: Adobe Illustrator 19.0.0, SVG Export Plug-In . SVG Version: 6.00 Build 0)  -->
<svg xmlns="http://www.w3.org/2000/svg" xmlns:xlink="http://www.w3.org/1999/xlink" version="1.1" id="Layer_1" x="0px" y="0px" viewBox="0 0 508 508" style="enable-background:new 0 0 508 508;" xml:space="preserve">
<circle style="fill:#84DBFF;" cx="254" cy="254" r="254"/>
<path style="fill:#FF7058;" d="M317.2,352.8c-0.4-66.4-54.4-120-121.2-120s-120.4,53.6-121.2,120H317.2z"/>
<g>
	
		<ellipse transform="matrix(0.0688 -0.9976 0.9976 0.0688 73.7448 393.3777)" style="fill:#FFFFFF;" cx="247.602" cy="157.184" rx="18" ry="8"/>
	
		<ellipse transform="matrix(0.0688 0.9976 -0.9976 0.0688 291.6987 2.3993)" style="fill:#FFFFFF;" cx="144.564" cy="157.46" rx="18" ry="8"/>
</g>
<path style="fill:#324A5E;" d="M227.6,236.8c-3.2-3.2-5.2-7.2-5.2-12v-27.6h-52v27.6c0,3.6-1.2,8.4-3.2,11.2  c6,8.4,15.6,21.6,28.8,22C205.2,258.4,216,250.4,227.6,236.8z"/>
<polygon style="fill:#2B3B4E;" points="190.4,278 184.4,268 190.4,258 201.6,258 207.6,268 201.6,278 "/>
<g>
	<polygon style="fill:#FFFFFF;" points="167.2,236 179.6,282 197.6,258  "/>
	<polygon style="fill:#FFFFFF;" points="196.8,258 214.8,282 227.6,236.8  "/>
</g>
<polygon style="fill:#324A5E;" points="209.2,325.2 196.4,349.2 182.8,325.2 190.4,278 201.6,278 "/>
<path style="fill:#FFFFFF;" d="M247.6,139.2c0-28.4-22.8-51.2-51.2-51.2l0,0l0,0c0,0,0,0-0.4,0c-28.4,0-51.2,23.2-51.2,51.2  c0,0.8,0,13.2,0,18.8c0,38.8,28.8,70.4,51.6,70.4c19.6,0,51.2-31.6,51.2-70.4C247.6,152.4,247.6,140,247.6,139.2z"/>
<g>
	<path style="fill:#324A5E;" d="M245.6,162.4c2,0.8,3.2-2,3.6-4.4c1.2-12,2.4-23.6,3.6-35.6c0.4-3.2,0.4-6,0-9.2   c-0.8-3.6-2.8-6.4-4.8-9.6c-4-5.6-8.4-12-14.8-14c-2-0.8-4.4-0.8-6.4-1.6c-4.8-1.2-9.2-4.4-13.6-6.4c-18.4-8.8-41.2-4.4-58.8,5.6   c-2,1.2-4.4,2.4-6,4.4c-2.4,2.4-4,5.2-5.6,8.4c-3.6,9.2-3.2,19.2-2.4,29.2c0.8,12,2,24.4,4,36.4c1.6,0.4,2.4-2,2.8-4   c0.8-10.4,1.2-20.8,2-30.8c0-2,0.4-4.4,2-6c2-2,5.6-1.6,8.4-1.2c6.8,0.8,14.4-0.4,20-4.8c-2.4,6.4-6,12.8-10.8,17.6   c6-2,12.4-4,18.4-6.4c5.6-2,11.2-4,16.4-7.2s9.6-7.6,11.2-13.6c0,9.2-3.2,18.8-8.4,26.4c4.8-3.2,10-6,13.6-10.4   c4-4,6.8-9.6,7.2-15.2c3.6,4.8,7.6,10,11.2,14.8c2.8,3.2,5.2,6.8,6.8,10.8C247.2,144.4,244.4,153.6,245.6,162.4z"/>
	<path style="fill:#324A5E;" d="M398,320.4c-4.4,0-8.8-2.4-11.2-6l-0.4-0.8l6.8-4.4l0.4,0.8c1.2,2,3.6,2.8,6,2.4   c1.6-0.4,2.8-1.6,3.6-2.8l21.2-44.8c1.2-2.4,0.8-4.8-0.4-7.2c-1.2-2-3.6-3.6-6-3.6c-2,0-4,0.8-5.2,2.4l-10,10.8l-5.6-5.6l10-10.8   c2.8-3.2,6.8-4.8,11.2-4.8c5.2,0,10,2.8,12.8,7.2c2.8,4.4,3.2,10,0.8,14.8l-21.2,44.8c-1.6,3.6-4.8,6.4-8.8,7.2   C400.4,320,399.2,320.4,398,320.4z"/>
	<path style="fill:#324A5E;" d="M294,320.4c4.4,0,8.8-2.4,11.2-6l0.4-0.8l-6.8-4.4l0,0.8c-1.2,2-3.6,2.8-6,2.4   c-1.6-0.4-2.8-1.6-3.6-2.8L268,264.8c-1.2-2.4-0.8-4.8,0.4-7.2c1.2-2,3.6-3.6,6-3.6c2,0,4,0.8,5.2,2.4l10,10.8l5.6-5.6l-9.2-10.8   c-2.8-3.2-6.8-4.8-11.2-4.8c-5.2,0-10,2.8-12.8,7.2c-2.8,4.4-3.2,10-0.8,14.8l20.8,44.8c1.6,3.6,4.8,6.4,8.8,7.2   C292,320,293.2,320.4,294,320.4z"/>
</g>
<path style="fill:#FFFFFF;" d="M404,242.8h-58h-57.6c0,0-2.4,57.6,19.2,87.6c7.6,10.4,17.2,17.2,27.6,20v36.8h22v-36.8  c10.4-2.8,20-9.6,27.6-20C406.4,300.4,404,242.8,404,242.8z"/>
<path style="fill:#324A5E;" d="M391.6,372.8h-90.8c-1.6,0-2.8,1.2-2.8,2.8v52.8c0,1.6,1.2,2.8,2.8,2.8h90.8c1.6,0,2.8-1.2,2.8-2.8  v-52.8C394,374,392.8,372.8,391.6,372.8z"/>
<rect x="314" y="388.8" style="fill:#FFFFFF;" width="64" height="26.4"/>
<g>
</g>
<g>
</g>
<g>
</g>
<g>
</g>
<g>
</g>
<g>
</g>
<g>
</g>
<g>
</g>
<g>
</g>
<g>
</g>
<g>
</g>
<g>
</g>
<g>
</g>
<g>
</g>
<g>
</g>
</svg>
