<?xml version="1.0" encoding="iso-8859-1"?>
<!-- Generator: Adobe Illustrator 19.0.0, SVG Export Plug-In . SVG Version: 6.00 Build 0)  -->
<svg xmlns="http://www.w3.org/2000/svg" xmlns:xlink="http://www.w3.org/1999/xlink" version="1.1" id="Layer_1" x="0px" y="0px" viewBox="0 0 508 508" style="enable-background:new 0 0 508 508;" xml:space="preserve">
<circle style="fill:#FD8469;" cx="254" cy="254" r="254"/>
<path style="fill:#E6E9EE;" d="M357.6,166.4H124.8c-4,0-7.2,3.2-7.2,7.2v171.6c0,4,3.2,7.2,7.2,7.2h232.8c4,0,7.2-3.2,7.2-7.2V173.6  C364.8,169.6,361.6,166.4,357.6,166.4z"/>
<rect x="136.4" y="185.2" style="fill:#54C0EB;" width="209.6" height="148"/>
<path style="fill:#E6E9EE;" d="M98,366.4v13.2c0,10.8,8.8,19.6,19.6,19.6h247.2c10.8,0,19.6-8.8,19.6-19.6v-13.2H98z"/>
<g>
	<rect x="131.2" y="376" style="fill:#324A5E;" width="105.2" height="13.2"/>
	<rect x="274.4" y="376" style="fill:#324A5E;" width="15.2" height="13.2"/>
	<rect x="305.2" y="376" style="fill:#324A5E;" width="15.2" height="13.2"/>
	<rect x="336" y="376" style="fill:#324A5E;" width="15.2" height="13.2"/>
	<circle style="fill:#324A5E;" cx="241.2" cy="234" r="20.4"/>
	<path style="fill:#324A5E;" d="M282.8,304c-0.8-22.4-18.8-40.4-41.6-40.4l0,0c-22.4,0-40.8,18-41.6,40.4H282.8z"/>
</g>
<path style="fill:#FFFFFF;" d="M402.8,108.8H283.2c-4,0-7.2,3.2-7.2,7.2v76.4c0,4,3.2,7.2,7.2,7.2h11.2l-12,32.4l44.4-32.4h75.6  c4,0,7.2-3.2,7.2-7.2V116C410,112,406.8,108.8,402.8,108.8z"/>
<g>
	<circle style="fill:#FFD05B;" cx="309.2" cy="154.4" r="9.6"/>
	<circle style="fill:#FFD05B;" cx="343.2" cy="154.4" r="9.6"/>
	<circle style="fill:#FFD05B;" cx="377.2" cy="154.4" r="9.6"/>
</g>
<g>
</g>
<g>
</g>
<g>
</g>
<g>
</g>
<g>
</g>
<g>
</g>
<g>
</g>
<g>
</g>
<g>
</g>
<g>
</g>
<g>
</g>
<g>
</g>
<g>
</g>
<g>
</g>
<g>
</g>
</svg>
