<?xml version="1.0" encoding="iso-8859-1"?>
<!-- Generator: Adobe Illustrator 19.0.0, SVG Export Plug-In . SVG Version: 6.00 Build 0)  -->
<svg xmlns="http://www.w3.org/2000/svg" xmlns:xlink="http://www.w3.org/1999/xlink" version="1.1" id="Layer_1" x="0px" y="0px" viewBox="0 0 505 505" style="enable-background:new 0 0 505 505;" xml:space="preserve">
<circle style="fill:#FD8469;" cx="252.5" cy="252.5" r="252.5"/>
<polygon style="fill:#FFD05B;" points="252.5,156.2 283.8,219.6 353.7,229.8 303.1,279.1 315.1,348.8 252.5,315.9 189.9,348.8   201.9,279.1 151.3,229.8 221.2,219.6 "/>
<path style="fill:#FFFFFF;" d="M307.3,110.1v17.7h69.8v69.9h17.7v-87.6L307.3,110.1L307.3,110.1z M110.1,197.7h17.7v-69.9h69.9  v-17.7h-87.6L110.1,197.7L110.1,197.7z M377.1,307.3v69.9h-69.8v17.7h87.6v-87.6H377.1z M127.8,307.3h-17.7v87.6h87.6v-17.7h-69.9  L127.8,307.3L127.8,307.3z"/>
<g>
</g>
<g>
</g>
<g>
</g>
<g>
</g>
<g>
</g>
<g>
</g>
<g>
</g>
<g>
</g>
<g>
</g>
<g>
</g>
<g>
</g>
<g>
</g>
<g>
</g>
<g>
</g>
<g>
</g>
</svg>
