<?xml version="1.0" encoding="iso-8859-1"?>
<!-- Generator: Adobe Illustrator 19.0.0, SVG Export Plug-In . SVG Version: 6.00 Build 0)  -->
<svg xmlns="http://www.w3.org/2000/svg" xmlns:xlink="http://www.w3.org/1999/xlink" version="1.1" id="Layer_1" x="0px" y="0px" viewBox="0 0 505 505" style="enable-background:new 0 0 505 505;" xml:space="preserve">
<circle style="fill:#90DFAA;" cx="252.5" cy="252.5" r="252.5"/>
<path style="fill:#FFFFFF;" d="M400.8,408.7H104.2c-0.9,0-1.6-0.7-1.6-1.6V97.2c0-0.9,0.7-1.6,1.6-1.6h296.7c0.9,0,1.6,0.7,1.6,1.6  V407C402.4,408,401.7,408.7,400.8,408.7z"/>
<g>
	<rect x="344.6" y="111.4" style="fill:#84DBFF;" width="42" height="42"/>
	<rect x="344.6" y="191.2" style="fill:#84DBFF;" width="42" height="42"/>
	<rect x="344.6" y="271.1" style="fill:#84DBFF;" width="42" height="42"/>
	<rect x="344.6" y="350.9" style="fill:#84DBFF;" width="42" height="42"/>
	<rect x="118.3" y="111.4" style="fill:#84DBFF;" width="42" height="42"/>
	<rect x="118.3" y="191.2" style="fill:#84DBFF;" width="42" height="42"/>
	<rect x="118.3" y="271.1" style="fill:#84DBFF;" width="42" height="42"/>
	<rect x="118.3" y="350.9" style="fill:#84DBFF;" width="42" height="42"/>
</g>
<g>
	<rect x="176.1" y="342.2" style="fill:#324A5E;" width="152.7" height="67.8"/>
	<rect x="176.1" y="95.6" style="fill:#324A5E;" width="152.7" height="67.8"/>
	<rect x="176.1" y="185.7" style="fill:#324A5E;" width="152.7" height="132.8"/>
</g>
<path style="fill:#FFFFFF;" d="M229.1,219.4v65.4c0,2.8,3.3,4.4,5.4,2.6l40.2-32.7c1.6-1.3,1.6-3.8,0-5.2l-40.2-32.6  C232.3,215.1,229.1,216.6,229.1,219.4z"/>
<g>
</g>
<g>
</g>
<g>
</g>
<g>
</g>
<g>
</g>
<g>
</g>
<g>
</g>
<g>
</g>
<g>
</g>
<g>
</g>
<g>
</g>
<g>
</g>
<g>
</g>
<g>
</g>
<g>
</g>
</svg>
