<?xml version="1.0" encoding="iso-8859-1"?>
<!-- Generator: Adobe Illustrator 19.0.0, SVG Export Plug-In . SVG Version: 6.00 Build 0)  -->
<svg xmlns="http://www.w3.org/2000/svg" xmlns:xlink="http://www.w3.org/1999/xlink" version="1.1" id="Layer_1" x="0px" y="0px" viewBox="0 0 505 505" style="enable-background:new 0 0 505 505;" xml:space="preserve">
<circle style="fill:#FFD05B;" cx="252.5" cy="252.5" r="252.5"/>
<polygon style="fill:#324A5E;" points="301.7,283.4 226,279 211.4,208.9 200.6,215 216.2,290.3 301,295.2 "/>
<circle style="fill:#FFFFFF;" cx="301.3" cy="289" r="26"/>
<circle style="fill:#FF7058;" cx="301.3" cy="289" r="15.9"/>
<circle style="fill:#FFFFFF;" cx="223.6" cy="284.2" r="26"/>
<circle style="fill:#FF7058;" cx="223.6" cy="284.2" r="15.9"/>
<circle style="fill:#FFFFFF;" cx="203.7" cy="209.5" r="26"/>
<circle style="fill:#FF7058;" cx="203.7" cy="209.5" r="15.9"/>
<path style="fill:#324A5E;" d="M382.3,383.2H124V124.9h258.3V383.2z M143.5,363.7h219.3V144.4H143.5V363.7z"/>
<g>
	<path style="fill:#FFFFFF;" d="M404.4,170.1h-66.3c-0.6,0-1.1-0.5-1.1-1.1v-66.3c0-0.6,0.5-1.1,1.1-1.1h66.3c0.6,0,1.1,0.5,1.1,1.1   V169C405.5,169.6,405,170.1,404.4,170.1z"/>
	<path style="fill:#FFFFFF;" d="M166.9,170.1h-66.3c-0.6,0-1.1-0.5-1.1-1.1v-66.3c0-0.6,0.5-1.1,1.1-1.1h66.3c0.6,0,1.1,0.5,1.1,1.1   V169C168,169.6,167.5,170.1,166.9,170.1z"/>
	<path style="fill:#FFFFFF;" d="M404.4,403.3h-66.3c-0.6,0-1.1-0.5-1.1-1.1v-66.3c0-0.6,0.5-1.1,1.1-1.1h66.3c0.6,0,1.1,0.5,1.1,1.1   v66.3C405.5,402.8,405,403.3,404.4,403.3z"/>
	<path style="fill:#FFFFFF;" d="M166.9,403.3h-66.3c-0.6,0-1.1-0.5-1.1-1.1v-66.3c0-0.6,0.5-1.1,1.1-1.1h66.3c0.6,0,1.1,0.5,1.1,1.1   v66.3C168,402.8,167.5,403.3,166.9,403.3z"/>
</g>
<g>
</g>
<g>
</g>
<g>
</g>
<g>
</g>
<g>
</g>
<g>
</g>
<g>
</g>
<g>
</g>
<g>
</g>
<g>
</g>
<g>
</g>
<g>
</g>
<g>
</g>
<g>
</g>
<g>
</g>
</svg>
