<?xml version="1.0" encoding="iso-8859-1"?>
<!-- Generator: Adobe Illustrator 19.0.0, SVG Export Plug-In . SVG Version: 6.00 Build 0)  -->
<svg xmlns="http://www.w3.org/2000/svg" xmlns:xlink="http://www.w3.org/1999/xlink" version="1.1" id="Layer_1" x="0px" y="0px" viewBox="0 0 505 505" style="enable-background:new 0 0 505 505;" xml:space="preserve">
<circle style="fill:#FD8469;" cx="252.5" cy="252.5" r="252.5"/>
<path style="fill:#324A5E;" d="M421.1,386.6H83.9c-0.9,0-1.6-0.7-1.6-1.6V120.1c0-0.9,0.7-1.6,1.6-1.6h337.3c0.9,0,1.6,0.7,1.6,1.6  V385C422.8,385.8,422,386.6,421.1,386.6z"/>
<rect x="102" y="161.2" style="fill:#FFFFFF;" width="301.1" height="208.1"/>
<g>
	<path style="fill:#E6E9EE;" d="M394.4,149L394.4,149c4.7,0,8.6-3.8,8.6-8.6l0,0c0-4.7-3.8-8.6-8.6-8.6l0,0c-4.7,0-8.6,3.8-8.6,8.6   l0,0C385.9,145.2,389.7,149,394.4,149z"/>
	<path style="fill:#E6E9EE;" d="M365.9,149L365.9,149c4.7,0,8.6-3.8,8.6-8.6l0,0c0-4.7-3.8-8.6-8.6-8.6l0,0c-4.7,0-8.6,3.8-8.6,8.6   l0,0C357.3,145.2,361.2,149,365.9,149z"/>
	<path style="fill:#E6E9EE;" d="M337.3,149L337.3,149c4.7,0,8.6-3.8,8.6-8.6l0,0c0-4.7-3.8-8.6-8.6-8.6l0,0c-4.7,0-8.6,3.8-8.6,8.6   l0,0C328.8,145.2,332.6,149,337.3,149z"/>
</g>
<rect x="119.8" y="178.8" style="fill:#84DBFF;" width="265.4" height="41.5"/>
<g>
	<rect x="119.8" y="239.8" style="fill:#E6E9EE;" width="132.5" height="14.2"/>
	<rect x="119.8" y="272.4" style="fill:#E6E9EE;" width="132.5" height="14.2"/>
	<rect x="119.8" y="305" style="fill:#E6E9EE;" width="132.5" height="14.2"/>
	<rect x="119.8" y="337.6" style="fill:#E6E9EE;" width="74.4" height="14.2"/>
</g>
<rect x="269" y="239.8" style="fill:#FFD05B;" width="116.2" height="111.9"/>
<g>
</g>
<g>
</g>
<g>
</g>
<g>
</g>
<g>
</g>
<g>
</g>
<g>
</g>
<g>
</g>
<g>
</g>
<g>
</g>
<g>
</g>
<g>
</g>
<g>
</g>
<g>
</g>
<g>
</g>
</svg>
