<?xml version="1.0" encoding="iso-8859-1"?>
<!-- Generator: Adobe Illustrator 19.0.0, SVG Export Plug-In . SVG Version: 6.00 Build 0)  -->
<svg xmlns="http://www.w3.org/2000/svg" xmlns:xlink="http://www.w3.org/1999/xlink" version="1.1" id="Layer_1" x="0px" y="0px" viewBox="0 0 505 505" style="enable-background:new 0 0 505 505;" xml:space="preserve">
<circle style="fill:#4CDBC4;" cx="252.5" cy="252.5" r="252.5"/>
<g>
	<path style="fill:#FFFFFF;" d="M293.3,343.2c-2.4,0.7-4.7,1.3-7.2,1.9c-5.7,1.4-11.6,2.4-17.6,3.1c-1.7,0.2-3.4,0.4-5.1,0.5   c-3.6,0.3-7.3,0.4-11,0.4c-3.7,0-7.3-0.1-11-0.4c-1.7-0.1-3.4-0.3-5.1-0.5c-4.6-0.5-9.2-1.2-13.6-2.2c0-11.6,0.1-23.2,0.1-34.9   c0-2.9,0-5.8,0.8-8.5c0.2-0.6,0.3-1.1,0.6-1.7l0,0c1-2.5,2.5-4.7,4.5-6.6l0,0c0.7-0.7,1.5-1.3,2.3-2c0.9-0.7,1.9-1.3,2.9-1.9   c1.7-0.9,3.4-1.7,5.3-2.2c1.3-0.5,2.7-0.8,4-1c3.5-0.7,7-0.8,10.5-0.1c3.2,0.7,6.2,2.2,9,3.9c0.2,0.1,0.4,0.3,0.7,0.4   c1.7,1,3.4,2.2,5,3.4c1.5,1.1,3,2.3,4.4,3.6c1.1,0.9,2,1.9,3,2.9c1.4,1.5,2.8,3.1,4,4.8l0,0c1.6,2.1,2.9,4.4,4,6.8   c0.3,0.7,0.6,1.3,0.9,2c0.1,0.2,0.1,0.3,0.2,0.5c1.2,3.1,2.2,6.3,3.1,9.6c0.7,2.5,1.4,5,2.1,7.5c0.7,2.4,1.3,4.7,2,7.1   C292.6,340.8,293,342,293.3,343.2z"/>
	<path style="fill:#FFFFFF;" d="M252.5,238.5c-11.8,0-21.4,23.2-21.4,38.2c0,8.8,3.3,16.6,8.4,21.6c0.6-0.1,1.6-0.2,1.8-0.2   c1,0,2,0.1,3,0.4c0.9,0.3,1.9,0.6,2.7,1.1c0.2,0.1,0.7,0.4,1.1,0.7c0.2,0.1,0.4,0.2,0.6,0.3c0.6,0.3,1.1,0.6,1.7,1   c0.4,0.3,0.9,0.6,1.3,0.9c0.3,0.1,0.5,0.3,0.7,0.5h0.1c0.5-0.5,1.4-1,2-1.4c0.4-0.2,0.8-0.4,1.2-0.6c0.5-0.3,0.9-0.4,1.2-0.6   c0.3-0.4,2.8-1.3,3-1.4c1.6-0.5,3-0.4,4.6-0.1c0.1,0,0.1,0,0.2,0c5.6-4.9,9.3-13.1,9.3-22.4C273.9,261.7,264.3,238.5,252.5,238.5z"/>
	<path style="fill:#FFFFFF;" d="M190.9,335.2c-3.4-1.6-6.7-3.4-10-5.2c-4.2-2.4-8.3-5.1-12.3-7.9c3.1-10.4,5.4-14.2,5.4-14.2   s0,0,0,0.1L190.9,335.2z"/>
	<path style="fill:#FFFFFF;" d="M222.8,346c-1.3-0.3-2.7-0.6-4-0.9c-9.8-2.3-19.1-5.6-28-9.9c-3.4-1.6-6.7-3.4-10-5.2   c-3.2-12.8-6.5-21.1-6.8-22c0-0.1,0-0.1,0-0.1c4.5-5.2,25.6-10.4,39-13.2l0,0c6.6-1.4,11.4-2.2,11.4-2.2l-0.3,7.3l0.2,1.2l0,0   l4.5,28.6c0,0,3.3,7.9,7.7,18.6C231.9,347.6,227.3,346.9,222.8,346z"/>
	<path style="fill:#FFFFFF;" d="M241.5,348.6c-1.7-0.1-3.4-0.3-5.1-0.5c-4.6-0.5-9.2-1.2-13.6-2.2c-1.3-0.3-2.7-0.6-4-0.9   c-2.9-7.8-5.5-16.6-7.6-26.6l9.3-3.2L207,304c0,0,2-4.2,6-9.4l0,0c3.6-4.7,9-10.2,16.1-14.2c0,0,0,0,0,0.1c0.1,0.6,0.8,5,1.9,11.9   c0.6,3.8,1.4,8.3,2.3,13.3l0,0C235.6,318.2,238.4,333.8,241.5,348.6z"/>
	<path style="fill:#FFFFFF;" d="M252.5,303.1c0,0-15.5-10.6-22.6,9.3c0,0-3.5-33.7,1.5-39.9C231.5,272.5,236.5,289.6,252.5,303.1z"/>
	<path style="fill:#FFFFFF;" d="M336.4,322.1c-3.9,2.9-8,5.5-12.3,7.9c-3.3,1.9-6.6,3.6-10,5.2l16.8-27.2c0-0.1,0-0.1,0-0.1   S333.4,311.7,336.4,322.1z"/>
	<path style="fill:#FFFFFF;" d="M331,307.9L331,307.9c-0.4,1.1-3.7,9.3-6.9,22.1c-3.3,1.9-6.6,3.6-10,5.2l0,0   c-6.7,3.2-13.7,5.8-20.9,8c-2.4,0.7-4.7,1.3-7.2,1.9c-5.7,1.4-11.6,2.4-17.6,3.1c4.4-10.8,7.7-18.6,7.7-18.6l3.7-23.4l0,0l1-6.4   l-0.4-7.3c0,0,4.8,0.8,11.4,2.2l0,0C305.5,297.5,326.5,302.7,331,307.9z"/>
	<path style="fill:#FFFFFF;" d="M285.1,315.5l8.7,3c-1,5-2.2,9.6-3.5,14c-1.3,4.5-2.7,8.7-4.2,12.6c-5.7,1.4-11.6,2.4-17.6,3.1   c-1.7,0.2-3.4,0.4-5.1,0.5c3.1-14.8,6-30.4,8.2-42.9l0,0c0.5-2.6,0.9-5,1.3-7.2c1.7-9.7,2.7-16.4,2.9-17.7v-0.1c0-0.1,0-0.2,0-0.2   c7.2,4,12.5,9.5,16.2,14.2c4,5.2,6,9.4,6,9.4l-13.1,10.9l-0.4,0.3L285.1,315.5z"/>
	<path style="fill:#FFFFFF;" d="M252.5,303.1c0,0,15.5-10.6,22.6,9.3c0,0,3.5-33.7-1.5-39.9C273.5,272.5,268.5,289.6,252.5,303.1z"/>
	<path style="fill:#FFFFFF;" d="M295,230.3c-2.9,7.2-10,14.7-14.5,13.5c-4.4-1.3-4.5-10.9-1.5-18.1s7.7-9.1,12.2-7.9   C295.6,219.1,297.9,223.2,295,230.3z"/>
	<path style="fill:#FFFFFF;" d="M210,230.3c2.9,7.2,10,14.7,14.5,13.5c4.4-1.3,4.5-10.9,1.5-18.1c-2.9-7.2-7.7-9.1-12.2-7.9   C209.4,219.1,207.1,223.2,210,230.3z"/>
	<ellipse style="fill:#FFFFFF;" cx="252.5" cy="230.7" rx="34.5" ry="44.7"/>
	<path style="fill:#FFFFFF;" d="M270.3,217l-6.6-26.9c0,0,8.8-10.5,11.2-10.1c2.4,0.4,15.7,14.5,15.7,14.5v20v8.3l-3.7,7.4   l-14.3-6.3L270.3,217z"/>
	<polygon style="fill:#FFFFFF;" points="244.4,193.1 222.7,189 215.4,196.3 214.1,212.2 218.3,229.6 246.1,222.1  "/>
	<path style="fill:#FFFFFF;" d="M246.9,167.1c0,0,11-18.5,31.7,0c0,0-5.7-0.9-8.5,0c0,0,34.5,2.3,25.5,42c0,0,0.3,10.9-9,21.1   c0,0,10.7-45.5-17.4-34.5c0,0-18.3,10.3-31.4-0.4c0,0-25.2-7.3-19.7,34.3c0,0-29.3-52.7,3.1-59.3c0,0,8.5-18.3,39.3-13.5   C260.7,156.8,249.9,156.8,246.9,167.1z"/>
	<path style="fill:#FFFFFF;" d="M252.5,437.7c-49.5,0-96-19.3-131-54.2c-72.2-72.2-72.2-189.7,0-261.9c35-35,81.5-54.2,131-54.2   s96,19.3,131,54.2c72.2,72.2,72.2,189.7,0,261.9C348.5,418.4,302,437.7,252.5,437.7z M252.5,83.1c-45.3,0-87.8,17.6-119.8,49.6   s-49.6,74.5-49.6,119.8s17.6,87.8,49.6,119.8s74.5,49.6,119.8,49.6s87.8-17.6,119.8-49.6s49.6-74.5,49.6-119.8   s-17.6-87.8-49.6-119.8S297.8,83.1,252.5,83.1z"/>
</g>
<g>
	<path style="fill:#324A5E;" d="M400.9,353.7L400.9,353.7c-13-13-34.2-13-47.2,0l0,0c-13,13-13,34.2,0,47.2l0,0   c13,13,34.2,13,47.2,0l0,0C414,387.9,414,366.7,400.9,353.7z"/>
	<path style="fill:#324A5E;" d="M151.3,104.1L151.3,104.1c-13-13-34.2-13-47.2,0l0,0c-13,13-13,34.2,0,47.2l0,0   c13,13,34.2,13,47.2,0l0,0C164.3,138.3,164.3,117.1,151.3,104.1z"/>
	<path style="fill:#324A5E;" d="M151.3,400.9L151.3,400.9c13-13,13-34.2,0-47.2l0,0c-13-13-34.2-13-47.2,0l0,0   c-13,13-13,34.2,0,47.2l0,0C117.1,414,138.3,414,151.3,400.9z"/>
	<path style="fill:#324A5E;" d="M400.9,151.3L400.9,151.3c13-13,13-34.2,0-47.2l0,0c-13-13-34.2-13-47.2,0l0,0   c-13,13-13,34.2,0,47.2l0,0C366.7,164.3,387.9,164.3,400.9,151.3z"/>
</g>
<g>
</g>
<g>
</g>
<g>
</g>
<g>
</g>
<g>
</g>
<g>
</g>
<g>
</g>
<g>
</g>
<g>
</g>
<g>
</g>
<g>
</g>
<g>
</g>
<g>
</g>
<g>
</g>
<g>
</g>
</svg>
