<?xml version="1.0" encoding="iso-8859-1"?>
<!-- Generator: Adobe Illustrator 19.0.0, SVG Export Plug-In . SVG Version: 6.00 Build 0)  -->
<svg xmlns="http://www.w3.org/2000/svg" xmlns:xlink="http://www.w3.org/1999/xlink" version="1.1" id="Layer_1" x="0px" y="0px" viewBox="0 0 505 505" style="enable-background:new 0 0 505 505;" xml:space="preserve">
<circle style="fill:#84DBFF;" cx="252.5" cy="252.5" r="252.5"/>
<polygon style="fill:#324A5E;" points="210.8,341.5 184.7,206.3 166.4,245.3 120.2,245.3 120.2,233.4 158.9,233.4 189.4,168.3   215.2,302 250.1,222.5 276,270.7 311.9,176.3 336.5,248.6 384.8,248.6 384.8,260.5 328.1,260.5 311.3,211.2 277.9,299.1   251.2,249.5 "/>
<path style="fill:#FFFFFF;" d="M444.8,291.2v-77.3l-36.2-11.7c-2.7-8.4-6.1-16.6-10.1-24.3l17.4-33.9l-54.7-54.7l-34,17.2  c-7.8-4-15.9-7.4-24.3-10.1l-11.7-36.3h-77.3l-11.7,36.2c-8.4,2.7-16.6,6.1-24.3,10.1L144,89l-54.7,54.7l17.4,33.9  c-4,7.8-7.4,15.9-10.1,24.3l-36.2,11.7v77.3l36.2,11.7c2.7,8.4,6.1,16.6,10.1,24.3l-17.4,33.9l54.7,54.7l33.9-17.4  c7.8,4,15.9,7.4,24.3,10.1l11.7,36.3h77.3l11.7-36.3c8.4-2.7,16.6-6.1,24.3-10.1l33.9,17.4l54.7-54.7l-17.3-33.6  c4-7.8,7.4-15.9,10.1-24.3L444.8,291.2z M377.6,252.5c0,69-56,125.1-125.1,125.1c-69,0-125.1-56-125.1-125.1s56-125.1,125.1-125.1  S377.6,183.4,377.6,252.5z"/>
<g>
</g>
<g>
</g>
<g>
</g>
<g>
</g>
<g>
</g>
<g>
</g>
<g>
</g>
<g>
</g>
<g>
</g>
<g>
</g>
<g>
</g>
<g>
</g>
<g>
</g>
<g>
</g>
<g>
</g>
</svg>
