<?xml version="1.0" encoding="iso-8859-1"?>
<!-- Generator: Adobe Illustrator 19.0.0, SVG Export Plug-In . SVG Version: 6.00 Build 0)  -->
<svg xmlns="http://www.w3.org/2000/svg" xmlns:xlink="http://www.w3.org/1999/xlink" version="1.1" id="Layer_1" x="0px" y="0px" viewBox="0 0 505 505" style="enable-background:new 0 0 505 505;" xml:space="preserve">
<circle style="fill:#90DFAA;" cx="252.5" cy="252.5" r="252.5"/>
<g>
	
		<rect x="208.284" y="201.331" transform="matrix(-0.7071 -0.7071 0.7071 -0.7071 163.9352 646.3653)" style="fill:#324A5E;" width="15.1" height="175.798"/>
	<polygon style="fill:#324A5E;" points="320.2,358.9 146.1,358.9 146.1,184.8 161.2,184.8 161.2,343.8 320.2,343.8  "/>
</g>
<g>
	<path style="fill:#FFFFFF;" d="M153.6,295L153.6,295c-31.2,0-56.4,25.3-56.4,56.4s25.3,56.4,56.4,56.4l0,0   c31.2,0,56.4-25.3,56.4-56.4S184.8,295,153.6,295z"/>
	<path style="fill:#FFFFFF;" d="M320.2,304.1L320.2,304.1c-26.1,0-47.3,21.2-47.3,47.3c0,26.1,21.2,47.3,47.3,47.3l0,0   c26.1,0,47.3-21.2,47.3-47.3C367.5,325.2,346.4,304.1,320.2,304.1z"/>
	<path style="fill:#FFFFFF;" d="M153.6,137.5L153.6,137.5c-26.1,0-47.3,21.2-47.3,47.3s21.2,47.3,47.3,47.3l0,0   c26.1,0,47.3-21.2,47.3-47.3C200.9,158.6,179.8,137.5,153.6,137.5z"/>
</g>
<polygon style="fill:#324A5E;" points="405,234.6 270.4,234.6 270.4,100 285.5,100 285.5,219.5 405,219.5 "/>
<g>
	<path style="fill:#FFFFFF;" d="M278,184L278,184c-23.8,0-43,19.3-43,43c0,23.8,19.3,43,43,43l0,0c23.8,0,43-19.3,43-43   S301.7,184,278,184z"/>
	<path style="fill:#FFFFFF;" d="M405,191L405,191c-19.9,0-36.1,16.2-36.1,36.1s16.2,36.1,36.1,36.1l0,0c19.9,0,36.1-16.2,36.1-36.1   S424.9,191,405,191z"/>
	<path style="fill:#FFFFFF;" d="M278,63.9L278,63.9c-19.9,0-36.1,16.2-36.1,36.1s16.2,36.1,36.1,36.1l0,0   c19.9,0,36.1-16.2,36.1-36.1S297.9,63.9,278,63.9z"/>
</g>
<g>
</g>
<g>
</g>
<g>
</g>
<g>
</g>
<g>
</g>
<g>
</g>
<g>
</g>
<g>
</g>
<g>
</g>
<g>
</g>
<g>
</g>
<g>
</g>
<g>
</g>
<g>
</g>
<g>
</g>
</svg>
