<?xml version="1.0" encoding="iso-8859-1"?>
<!-- Generator: Adobe Illustrator 19.0.0, SVG Export Plug-In . SVG Version: 6.00 Build 0)  -->
<svg xmlns="http://www.w3.org/2000/svg" xmlns:xlink="http://www.w3.org/1999/xlink" version="1.1" id="Layer_1" x="0px" y="0px" viewBox="0 0 505 505" style="enable-background:new 0 0 505 505;" xml:space="preserve">
<circle style="fill:#324A5E;" cx="252.5" cy="252.5" r="252.5"/>
<path style="fill:#E6E9EE;" d="M326.3,114.4H92.1c-4.3,0-7.9,3.5-7.9,7.9v187.5c0,4.3,3.5,7.9,7.9,7.9h234.2c4.3,0,7.9-3.5,7.9-7.9  V122.2C334.1,117.9,330.6,114.4,326.3,114.4z"/>
<path style="fill:#FF7058;" d="M334.1,153.5v-31.3c0-4.3-3.5-7.8-7.8-7.8H92c-4.3,0-7.8,3.5-7.8,7.8v31.3H334.1z"/>
<path style="fill:#FFFFFF;" d="M413.1,187.4H178.6c-4.3,0-7.8,3.5-7.8,7.8v187.7c0,4.3,3.5,7.8,7.8,7.8H413c4.3,0,7.8-3.5,7.8-7.8  V195.1C420.8,190.8,417.3,187.4,413.1,187.4z"/>
<path style="fill:#84DBFF;" d="M420.8,226.5v-31.3c0-4.3-3.5-7.8-7.8-7.8H178.7c-4.3,0-7.8,3.5-7.8,7.8v31.3H420.8z"/>
<g>
	<circle style="fill:#FFD05B;" cx="311.1" cy="133.9" r="10.6"/>
	<circle style="fill:#FFD05B;" cx="280.5" cy="133.9" r="10.6"/>
	<circle style="fill:#FFD05B;" cx="250" cy="133.9" r="10.6"/>
</g>
<g>
	<circle style="fill:#FFFFFF;" cx="393.4" cy="206.9" r="10.6"/>
	<circle style="fill:#FFFFFF;" cx="362.8" cy="206.9" r="10.6"/>
	<circle style="fill:#FFFFFF;" cx="332.2" cy="206.9" r="10.6"/>
</g>
<g>
</g>
<g>
</g>
<g>
</g>
<g>
</g>
<g>
</g>
<g>
</g>
<g>
</g>
<g>
</g>
<g>
</g>
<g>
</g>
<g>
</g>
<g>
</g>
<g>
</g>
<g>
</g>
<g>
</g>
</svg>
