<?xml version="1.0" encoding="iso-8859-1"?>
<!-- Generator: Adobe Illustrator 19.0.0, SVG Export Plug-In . SVG Version: 6.00 Build 0)  -->
<svg xmlns="http://www.w3.org/2000/svg" xmlns:xlink="http://www.w3.org/1999/xlink" version="1.1" id="Layer_1" x="0px" y="0px" viewBox="0 0 505 505" style="enable-background:new 0 0 505 505;" xml:space="preserve">
<circle style="fill:#84DBFF;" cx="252.5" cy="252.5" r="252.5"/>
<path style="fill:#324A5E;" d="M363.7,442.5H141.3c-3.9,0-7-3.1-7-7V69.6c0-3.9,3.1-7,7-7h222.5c3.9,0,7,3.1,7,7v365.9  C370.8,439.3,367.6,442.5,363.7,442.5z"/>
<rect x="146.7" y="98.7" style="fill:#FFFFFF;" width="211.7" height="300.2"/>
<g>
	<circle style="fill:#2B3B4E;" cx="328.4" cy="81.3" r="8.5"/>
	<circle style="fill:#2B3B4E;" cx="252.5" cy="419.2" r="13.3"/>
	<path style="fill:#2B3B4E;" d="M293.2,85.8h-59.8c-2.5,0-4.4-2-4.4-4.4l0,0c0-2.5,2-4.4,4.4-4.4h59.8c2.5,0,4.4,2,4.4,4.4l0,0   C297.6,83.8,295.6,85.8,293.2,85.8z"/>
	<path style="fill:#2B3B4E;" d="M217.2,85.8h-5.3c-2.5,0-4.4-2-4.4-4.4l0,0c0-2.5,2-4.4,4.4-4.4h5.3c2.5,0,4.4,2,4.4,4.4l0,0   C221.6,83.8,219.6,85.8,217.2,85.8z"/>
</g>
<polygon style="fill:#324A5E;" points="193.4,266.6 187.7,261.1 230.9,216.1 272.7,247.6 312.4,216.6 317.3,222.8 272.8,257.5   231.8,226.6 "/>
<rect x="300.6" y="262.2" style="fill:#4CDBC4;" width="28.5" height="101.9"/>
<rect x="259" y="291.4" style="fill:#FFD05B;" width="28.5" height="72.8"/>
<rect x="217.4" y="259.9" style="fill:#E6E9EE;" width="28.5" height="104.3"/>
<rect x="175.8" y="302.6" style="fill:#54C0EB;" width="28.5" height="61.5"/>
<g>
	<circle style="fill:#FF7058;" cx="190.5" cy="262.2" r="14.7"/>
	<circle style="fill:#FF7058;" cx="231.3" cy="221.4" r="14.7"/>
	<circle style="fill:#FF7058;" cx="272.7" cy="252.5" r="14.7"/>
	<circle style="fill:#FF7058;" cx="314.5" cy="221" r="14.7"/>
</g>
<g>
</g>
<g>
</g>
<g>
</g>
<g>
</g>
<g>
</g>
<g>
</g>
<g>
</g>
<g>
</g>
<g>
</g>
<g>
</g>
<g>
</g>
<g>
</g>
<g>
</g>
<g>
</g>
<g>
</g>
</svg>
