<?xml version="1.0" encoding="iso-8859-1"?>
<!-- Generator: Adobe Illustrator 19.0.0, SVG Export Plug-In . SVG Version: 6.00 Build 0)  -->
<svg xmlns="http://www.w3.org/2000/svg" xmlns:xlink="http://www.w3.org/1999/xlink" version="1.1" id="Layer_1" x="0px" y="0px" viewBox="0 0 505 505" style="enable-background:new 0 0 505 505;" xml:space="preserve">
<circle style="fill:#324A5E;" cx="252.5" cy="252.5" r="252.5"/>
<path style="fill:#E6E9EE;" d="M275.8,173c-2.2-12.2-7-23.4-13.7-33.1l10.5-13.5l-18.2-18.2l-13.5,10.5c-9.8-6.8-21-11.5-33.1-13.7  l-2.3-17.1h-25.8l-2.1,16.9c-12.2,2.2-23.4,7-33.1,13.7L131,108l-18.2,18.2l10.5,13.5c-6.8,9.7-11.5,21-13.7,33.1l-17,2.1v25.8  l17,2.2c2.2,12.2,6.9,23.4,13.7,33.1l-10.5,13.5l18.2,18.2l13.5-10.5c9.7,6.8,21,11.5,33.1,13.7l2.1,17h25.8l2.2-17  c12.2-2.2,23.4-7,33.1-13.7l13.5,10.5l18.2-18.2L262,236c6.8-9.8,11.5-21,13.7-33.1l17-2.2v-25.8L275.8,173z M192.7,231.2  c-23.9,0-43.2-19.3-43.2-43.2s19.3-43.2,43.2-43.2s43.2,19.3,43.2,43.2S216.5,231.2,192.7,231.2z"/>
<path style="fill:#FFFFFF;" d="M390.4,295.4c-4.3-7.5-9.9-14.1-16.3-19.5l5-12.9L354,249.9l-7.8,11.4c-8.1-2.2-16.7-3-25.3-2.3  l-5.6-12.6l-27.1,8.5l2.6,13.6c-7.5,4.3-14.1,9.9-19.5,16.3l-12.9-5l-13.1,25.1l11.4,7.8c-2.2,8.1-3,16.7-2.3,25.3l-12.6,5.6  l8.5,27.1l13.6-2.6c4.3,7.5,9.9,14.1,16.3,19.5l-5,12.9l25.1,13.1l7.8-11.4c8.1,2.2,16.7,3,25.3,2.3l5.6,12.6l27.1-8.5l-2.6-13.6  c7.5-4.3,14.1-9.9,19.5-16.3l12.9,5l13.1-25.1l-11.4-7.8c2.2-8.1,3-16.7,2.3-25.3l12.6-5.6l-8.5-27.1L390.4,295.4z M341.8,378.9  c-26,8.1-53.8-6.4-61.9-32.4s6.4-53.8,32.4-61.9s53.8,6.4,61.9,32.4C382.4,343,367.9,370.7,341.8,378.9z"/>
<g>
</g>
<g>
</g>
<g>
</g>
<g>
</g>
<g>
</g>
<g>
</g>
<g>
</g>
<g>
</g>
<g>
</g>
<g>
</g>
<g>
</g>
<g>
</g>
<g>
</g>
<g>
</g>
<g>
</g>
</svg>
