<?xml version="1.0" encoding="iso-8859-1"?>
<!-- Generator: Adobe Illustrator 19.0.0, SVG Export Plug-In . SVG Version: 6.00 Build 0)  -->
<svg xmlns="http://www.w3.org/2000/svg" xmlns:xlink="http://www.w3.org/1999/xlink" version="1.1" id="Layer_1" x="0px" y="0px" viewBox="0 0 505 505" style="enable-background:new 0 0 505 505;" xml:space="preserve">
<circle style="fill:#90DFAA;" cx="252.5" cy="252.5" r="252.5"/>
<g>
	<polygon style="fill:#FF7058;" points="299.8,197.9 264.7,151.1 229.5,197.9 250.3,197.9 250.3,389.5 279,389.5 279,197.9  "/>
	<polygon style="fill:#FF7058;" points="173.1,395.3 201.8,395.3 201.8,274.4 222.6,274.4 187.4,227.6 152.2,274.4 173.1,274.4  "/>
</g>
<path style="fill:#2B3B4E;" d="M363.8,385.7h21c-1.6-10.9-0.5-36.7,0.3-51.4c0.3-5.6,0.9-11.2,2.2-16.7c6.8-29.6-1.7-53.7-4-59.2  h-24.6v40.3C361.8,297.2,363.4,366.5,363.8,385.7z"/>
<path style="fill:#324A5E;" d="M332.3,334.3c0.8,14.7,1.9,40.4,0.3,51.4h21c0.4-19.2,2.1-88.5,5.1-87v-40.3h-24.6  c-2.2,5.5-10.7,29.6-4,59.2C331.4,323.1,332,328.7,332.3,334.3z"/>
<path style="fill:#E6E9EE;" d="M371.1,188.1c0.8,1.6,1.3,3.3,1.7,5.1c0.6,2,1.2,4.1,1.7,6.1c1,3.5,2,7.2,0.6,10.6  c-0.8,1.9-2.3,3.4-3.8,4.8c-1.7,1.5-3.4,3-5.3,4.3c-1.6,1.1-3.3,2.2-5.3,2.8c-2.1,0.6-4.2,0.6-6.4,0.5c-1.4,0-2.8-0.1-4.1-0.7  c-1-0.5-1.8-1.4-2.5-2.3c-2.4-3.5-2.4-8.1-2.4-12.3c0-6.5,0-13,0.1-19.5c0-1.2,0-2.4,0.3-3.6c1-3.5,4.6-5.8,8.2-6.4  c1.4-0.3,2.9-0.3,4.4,0c1.3,0.3,2.6,0.9,3.8,1.6C365.9,181.2,369.3,184.2,371.1,188.1z"/>
<path style="fill:#F9B54C;" d="M357.9,157c-5,0-9,9.7-9,16c0,3.7,1.4,7,3.5,9c0.3,0,0.7-0.1,0.8-0.1c0.4,0,0.8,0.1,1.2,0.2  c0.4,0.1,0.8,0.3,1.1,0.5c0.1,0,0.3,0.2,0.5,0.3c0.1,0,0.2,0.1,0.2,0.1c0.3,0.1,0.5,0.3,0.7,0.4c0.2,0.1,0.4,0.3,0.5,0.4  c0.1,0.1,0.2,0.1,0.3,0.2l0,0c0.2-0.2,0.6-0.4,0.8-0.6c0.2-0.1,0.3-0.2,0.5-0.3s0.4-0.2,0.5-0.2c0.1-0.2,1.2-0.5,1.2-0.6  c0.7-0.2,1.2-0.2,1.9-0.1c0,0,0,0,0.1,0c2.4-2,3.9-5.5,3.9-9.4C366.9,166.7,362.9,157,357.9,157z"/>
<path style="fill:#324A5E;" d="M325.1,186c0,0-11,17.9-7.5,96.8h14.8l-2.9-25.5c0,0,5-26.9,0.9-34.2l3.7-22.4L325.1,186z"/>
<path style="fill:#2B3B4E;" d="M346.2,179.5c0,0-18.3,3.2-21.1,6.5c0,0,7.1,17.5,5.3,37c0,0,6.8,17.4-0.7,31.2c0,0-7,26.4,7.3,37  c0,0,16.8,6.2,21.4-22.7c0,0,3.9-36.1,0.7-45.5c-3.2-9.4-11-27.9-11-27.9l-2-12.5L346.2,179.5z"/>
<path style="fill:#324A5E;" d="M348.2,174.5c0,0,6.3,40.6,10.9,48.4c0,0-13.2-7.7-18.4-32.5l3.9-1.3l-5.7-4.7  C338.9,184.4,341.9,178.1,348.2,174.5z"/>
<path style="fill:#FFFFFF;" d="M357.9,184c0,0-6.5-4.4-9.4,3.9c0,0-1.5-14.1,0.6-16.7C349.1,171.2,351.2,178.4,357.9,184z"/>
<path style="fill:#2B3B4E;" d="M390.8,186c0,0,11,17.9,7.5,96.8h-14.8l2.9-25.5c0,0-5-26.9-0.9-34.2l-3.7-22.4L390.8,186z"/>
<path style="fill:#324A5E;" d="M369.7,179.5c0,0,18.3,3.2,21.1,6.5c0,0-7.1,17.5-5.3,37c0,0-6.8,17.4,0.7,31.2c0,0,7,26.4-7.3,37  c0,0-16.8,6.2-21.4-22.7c0,0-3.9-36.1-0.7-45.5c3.2-9.4,11-27.9,11-27.9l2-12.5L369.7,179.5z"/>
<path style="fill:#2B3B4E;" d="M367.7,174.5c0,0-6.3,40.6-10.9,48.4c0,0,13.2-7.7,18.4-32.5l-3.9-1.3l5.7-4.7  C377,184.4,374,178.1,367.7,174.5z"/>
<path style="fill:#FFFFFF;" d="M357.9,184c0,0,6.5-4.4,9.4,3.9c0,0,1.5-14.1-0.6-16.7C366.7,171.2,364.6,178.4,357.9,184z"/>
<g>
	<circle style="fill:#2B3B4E;" cx="361" cy="229.9" r="2.3"/>
	<circle style="fill:#2B3B4E;" cx="361" cy="247.1" r="2.3"/>
</g>
<g>
	<path style="fill:#F9B54C;" d="M375.7,153.6c-1.2,3-4.2,6.2-6.1,5.6c-1.8-0.5-1.9-4.6-0.6-7.6c1.2-3,3.2-3.8,5.1-3.3   C375.9,148.9,376.9,150.6,375.7,153.6z"/>
	<path style="fill:#F9B54C;" d="M340.1,153.6c1.2,3,4.2,6.2,6.1,5.6c1.9-0.5,1.9-4.6,0.6-7.6c-1.2-3-3.2-3.8-5.1-3.3   C339.9,148.9,338.9,150.6,340.1,153.6z"/>
</g>
<g>
	<ellipse style="fill:#FFD05B;" cx="357.9" cy="153.7" rx="14.4" ry="18.7"/>
	<path style="fill:#FFD05B;" d="M365.4,148l-2.8-11.3c0,0,3.7-4.4,4.7-4.2s6.5,6.1,6.5,6.1v8.4v3.5l-1.5,3.1l-6-2.6L365.4,148z"/>
	<polygon style="fill:#FFD05B;" points="354.5,138 345.5,136.3 342.4,139.3 341.9,146 343.6,153.3 355.2,150.1  "/>
</g>
<path style="fill:#324A5E;" d="M355.6,127.1c0,0,4.6-7.7,13.3,0c0,0-2.4-0.4-3.5,0c0,0,14.4,1,10.7,17.6c0,0,0.1,4.6-3.8,8.8  c0,0,4.5-19-7.3-14.4c0,0-7.7,4.3-13.1-0.2c0,0-10.5-3-8.2,14.4c0,0-12.3-22,1.3-24.8c0,0,3.5-7.7,16.5-5.7  C361.4,122.8,356.8,122.8,355.6,127.1z"/>
<polygon style="fill:#FFFFFF;" points="398.9,403.9 106.1,403.9 106.1,111 125.8,111 125.8,384.1 398.9,384.1 "/>
<g>
</g>
<g>
</g>
<g>
</g>
<g>
</g>
<g>
</g>
<g>
</g>
<g>
</g>
<g>
</g>
<g>
</g>
<g>
</g>
<g>
</g>
<g>
</g>
<g>
</g>
<g>
</g>
<g>
</g>
</svg>
