<?xml version="1.0" encoding="iso-8859-1"?>
<!-- Generator: Adobe Illustrator 19.0.0, SVG Export Plug-In . SVG Version: 6.00 Build 0)  -->
<svg xmlns="http://www.w3.org/2000/svg" xmlns:xlink="http://www.w3.org/1999/xlink" version="1.1" id="Layer_1" x="0px" y="0px" viewBox="0 0 505 505" style="enable-background:new 0 0 505 505;" xml:space="preserve">
<circle style="fill:#FD8469;" cx="252.5" cy="252.5" r="252.5"/>
<g>
	<polygon style="fill:#FFFFFF;" points="398.9,398.9 106.1,398.9 106.1,106.1 125.8,106.1 125.8,379.2 398.9,379.2  "/>
	<rect x="329.1" y="211.6" style="fill:#FFFFFF;" width="39.9" height="142.8"/>
	<rect x="270.8" y="252.5" style="fill:#FFFFFF;" width="39.9" height="102"/>
	<rect x="212.6" y="208.4" style="fill:#FFFFFF;" width="39.9" height="146.1"/>
	<rect x="154.3" y="268.3" style="fill:#FFFFFF;" width="39.9" height="86.2"/>
</g>
<polygon style="fill:#E6E9EE;" points="178,218.6 169.5,211.2 228.4,143.6 290.5,185.9 345.5,138.7 352.9,147.3 291.3,200.1   230.4,158.6 "/>
<circle style="fill:#FFFFFF;" cx="349" cy="142.8" r="24.9"/>
<circle style="fill:#84DBFF;" cx="349" cy="142.8" r="15.2"/>
<circle style="fill:#FFFFFF;" cx="292.3" cy="191" r="24.9"/>
<circle style="fill:#84DBFF;" cx="292.3" cy="191" r="15.2"/>
<circle style="fill:#FFFFFF;" cx="229.1" cy="152.9" r="24.9"/>
<circle style="fill:#84DBFF;" cx="229.1" cy="152.9" r="15.2"/>
<circle style="fill:#FFFFFF;" cx="173.2" cy="213.4" r="24.9"/>
<circle style="fill:#84DBFF;" cx="173.2" cy="213.4" r="15.2"/>
<g>
</g>
<g>
</g>
<g>
</g>
<g>
</g>
<g>
</g>
<g>
</g>
<g>
</g>
<g>
</g>
<g>
</g>
<g>
</g>
<g>
</g>
<g>
</g>
<g>
</g>
<g>
</g>
<g>
</g>
</svg>
