<?xml version="1.0" encoding="iso-8859-1"?>
<!-- Generator: Adobe Illustrator 19.0.0, SVG Export Plug-In . SVG Version: 6.00 Build 0)  -->
<svg xmlns="http://www.w3.org/2000/svg" xmlns:xlink="http://www.w3.org/1999/xlink" version="1.1" id="Layer_1" x="0px" y="0px" viewBox="0 0 505 505" style="enable-background:new 0 0 505 505;" xml:space="preserve">
<circle style="fill:#FD8469;" cx="252.5" cy="252.5" r="252.5"/>
<path style="fill:#FFD05B;" d="M217.7,381.8l64.6-64.6c4.7-4.7,4.7-12.3,0-17l-64.6-64.6c-7.6-7.6-20.5-2.2-20.5,8.5v14H95.4  c-6.6,0-12,5.4-12,12v77.1c0,6.6,5.4,12,12,12h101.8v14C197.2,384,210.1,389.4,217.7,381.8z"/>
<path style="fill:#E6E9EE;" d="M287.3,123.2l-64.6,64.6c-4.7,4.7-4.7,12.3,0,17l64.6,64.6c7.6,7.6,20.5,2.2,20.5-8.5v-14h101.8  c6.6,0,12-5.4,12-12v-77.1c0-6.6-5.4-12-12-12H307.8v-14C307.8,121,294.9,115.6,287.3,123.2z"/>
<g>
</g>
<g>
</g>
<g>
</g>
<g>
</g>
<g>
</g>
<g>
</g>
<g>
</g>
<g>
</g>
<g>
</g>
<g>
</g>
<g>
</g>
<g>
</g>
<g>
</g>
<g>
</g>
<g>
</g>
</svg>
