<?xml version="1.0" encoding="iso-8859-1"?>
<!-- Generator: Adobe Illustrator 19.0.0, SVG Export Plug-In . SVG Version: 6.00 Build 0)  -->
<svg xmlns="http://www.w3.org/2000/svg" xmlns:xlink="http://www.w3.org/1999/xlink" version="1.1" id="Layer_1" x="0px" y="0px" viewBox="0 0 505 505" style="enable-background:new 0 0 505 505;" xml:space="preserve">
<circle style="fill:#FFD05B;" cx="252.5" cy="252.5" r="252.5"/>
<path style="fill:#324A5E;" d="M425.4,390H79.6c-0.9,0-1.7-0.7-1.7-1.7V116.7c0-0.9,0.7-1.7,1.7-1.7h345.9c0.9,0,1.7,0.7,1.7,1.7  v271.7C427.1,389.2,426.4,390,425.4,390z"/>
<rect x="98.1" y="158.9" style="fill:#FFFFFF;" width="308.7" height="213.4"/>
<g>
	<path style="fill:#E6E9EE;" d="M396.3,145.6L396.3,145.6c5.9,0,10.6-4.8,10.6-10.6l0,0c0-5.9-4.8-10.6-10.6-10.6l0,0   c-5.9,0-10.6,4.8-10.6,10.6l0,0C385.6,140.8,390.4,145.6,396.3,145.6z"/>
	<path style="fill:#E6E9EE;" d="M368.1,145.6L368.1,145.6c5.9,0,10.6-4.8,10.6-10.6l0,0c0-5.9-4.8-10.6-10.6-10.6l0,0   c-5.9,0-10.6,4.8-10.6,10.6l0,0C357.5,140.8,362.2,145.6,368.1,145.6z"/>
	<path style="fill:#E6E9EE;" d="M340,145.6L340,145.6c5.9,0,10.6-4.8,10.6-10.6l0,0c0-5.9-4.8-10.6-10.6-10.6l0,0   c-5.9,0-10.6,4.8-10.6,10.6l0,0C329.4,140.8,334.1,145.6,340,145.6z"/>
</g>
<path style="fill:#4CDBC4;" d="M138,201.1h229.1c0.6,0,1.1,0.5,1.1,1.1v126.9c0,0.6-0.5,1.1-1.1,1.1H138c-0.6,0-1.1-0.5-1.1-1.1  V202.2C136.9,201.6,137.4,201.1,138,201.1z"/>
<path style="fill:#FFFFFF;" d="M356.2,216.7v97.8c-2.1,0-3.8,1.7-3.8,3.8h-200c0-2.1-1.7-3.8-3.8-3.8v-97.8c2.1,0,3.8-1.7,3.8-3.8  h200C352.5,215,354.2,216.7,356.2,216.7z"/>
<g>
	<circle style="fill:#4CDBC4;" cx="252.5" cy="265.6" r="43.1"/>
	<circle style="fill:#4CDBC4;" cx="183.1" cy="265.6" r="15.2"/>
	<circle style="fill:#4CDBC4;" cx="321.9" cy="265.6" r="15.2"/>
</g>
<path style="fill:#FFFFFF;" d="M254.1,235.5v5.3c6.6,0.7,12.6,3.3,17.9,7.9l-5.3,6.3c-4.1-3.5-8.2-5.6-12.6-6.3v14.1  c5.5,1.3,9.5,3,12,5.2c2.5,2.1,3.8,5.3,3.8,9.5s-1.5,7.6-4.4,10.3c-2.9,2.7-6.7,4.1-11.4,4.4v3.6h-4.6v-3.7  c-5.3-0.4-10.4-2.2-15.1-5.4l4.7-6.7c3.2,2.3,6.7,3.7,10.4,4.2v-13.7h-0.2c-5.6-1.3-9.7-3.1-12.3-5.3c-2.6-2.2-3.9-5.5-3.9-9.7  c0-4.2,1.5-7.7,4.5-10.3c3-2.7,7-4.1,11.9-4.4v-5.3H254.1z M259.2,282.4c1.2-1.1,1.8-2.4,1.8-4.1s-0.5-2.9-1.5-3.8s-2.8-1.9-5.5-2.7  v12.6C256.3,284.1,258,283.5,259.2,282.4z M243.9,250.6c-1.4,1.1-2,2.5-2,4.2s0.5,3,1.6,4s3.1,1.9,6,2.8v-13.1  C247.1,248.8,245.3,249.5,243.9,250.6z"/>
<g>
</g>
<g>
</g>
<g>
</g>
<g>
</g>
<g>
</g>
<g>
</g>
<g>
</g>
<g>
</g>
<g>
</g>
<g>
</g>
<g>
</g>
<g>
</g>
<g>
</g>
<g>
</g>
<g>
</g>
</svg>
