<?xml version="1.0" encoding="iso-8859-1"?>
<!-- Generator: Adobe Illustrator 19.0.0, SVG Export Plug-In . SVG Version: 6.00 Build 0)  -->
<svg xmlns="http://www.w3.org/2000/svg" xmlns:xlink="http://www.w3.org/1999/xlink" version="1.1" id="Layer_1" x="0px" y="0px" viewBox="0 0 505 505" style="enable-background:new 0 0 505 505;" xml:space="preserve">
<circle style="fill:#84DBFF;" cx="252.5" cy="252.5" r="252.5"/>
<g>
	<path style="fill:#324A5E;" d="M346.9,418.6c-3.1,0.9-6.3,1.8-9.5,2.5c-7.6,1.8-15.4,3.2-23.4,4.1c-2.2,0.3-4.5,0.5-6.7,0.6   c-4.8,0.4-9.7,0.6-14.6,0.6s-9.8-0.2-14.6-0.6c-2.3-0.1-4.5-0.4-6.8-0.6c-6.1-0.7-12.2-1.6-18.1-2.9c0.1-15.5,0.1-30.9,0.1-46.4   c0-3.8,0-7.7,1-11.3c0.2-0.8,0.4-1.5,0.7-2.2l0,0c1.3-3.4,3.4-6.3,6-8.7l0,0c1-0.9,2-1.8,3.1-2.6c1.2-0.9,2.5-1.7,3.9-2.5   c2.2-1.2,4.6-2.2,7-3c1.8-0.6,3.6-1,5.4-1.4c4.6-0.9,9.3-1.1,13.9-0.1c4.2,0.9,8.2,2.9,11.9,5.2c0.3,0.2,0.6,0.4,0.9,0.5   c2.3,1.4,4.5,2.9,6.7,4.5c2,1.5,4,3.1,5.9,4.8c1.4,1.3,2.7,2.6,4,3.9c1.9,2,3.7,4.1,5.4,6.4l0,0c2.1,2.8,3.9,5.8,5.4,9   c0.4,0.9,0.8,1.8,1.2,2.7c0.1,0.2,0.2,0.4,0.3,0.7c1.6,4.1,2.9,8.4,4.1,12.7c0.9,3.3,1.9,6.6,2.8,9.9c0.9,3.1,1.8,6.3,2.7,9.4   C346,415.4,346.5,417,346.9,418.6z"/>
	<path style="fill:#324A5E;" d="M292.6,279.3c-15.8,0-28.5,30.9-28.5,50.9c0,11.7,4.4,22.1,11.2,28.7c0.8-0.1,2.1-0.2,2.4-0.2   c1.3,0,2.7,0.2,4,0.5c1.2,0.3,2.5,0.9,3.6,1.5c0.3,0.1,1,0.6,1.5,1c0.2,0.1,0.5,0.2,0.8,0.4c0.8,0.4,1.5,0.8,2.3,1.3   c0.6,0.4,1.2,0.8,1.7,1.2c0.4,0.2,0.7,0.4,1,0.7h0.1c0.7-0.6,1.9-1.3,2.7-1.8c0.5-0.3,1-0.6,1.6-0.8c0.7-0.3,1.2-0.6,1.6-0.7   c0.3-0.6,3.7-1.7,4-1.8c2.1-0.7,4-0.5,6.1-0.2c0.1,0,0.1,0,0.2,0.1c7.5-6.5,12.4-17.4,12.4-29.8   C321.2,310.2,308.4,279.3,292.6,279.3z"/>
	<path style="fill:#324A5E;" d="M210.7,408c-4.5-2.1-9-4.5-13.3-6.9c-5.6-3.2-11.1-6.8-16.3-10.5c4.1-13.8,7.2-18.9,7.2-18.9   s0,0,0.1,0.1L210.7,408z"/>
	<path style="fill:#324A5E;" d="M253.2,422.3c-1.8-0.4-3.5-0.8-5.3-1.2c-13-3.1-25.4-7.5-37.2-13.1c-4.5-2.1-9-4.5-13.3-6.9   c-4.2-17-8.6-28-9.1-29.3c0-0.1-0.1-0.1-0.1-0.1c6-6.9,34-13.8,51.9-17.6l0,0c8.8-1.9,15.1-3,15.1-3l-0.4,9.7l0.3,1.6l0,0l6,38.1   c0,0,4.4,10.4,10.2,24.7C265.2,424.6,259.1,423.6,253.2,422.3z"/>
	<path style="fill:#324A5E;" d="M278.1,425.8c-2.3-0.1-4.5-0.4-6.8-0.6c-6.1-0.7-12.2-1.6-18.1-2.9c-1.8-0.4-3.5-0.8-5.3-1.2   c-3.9-10.4-7.4-22.1-10.1-35.4l12.3-4.2l-18-14.9c0,0,2.6-5.6,8-12.5l0,0c4.8-6.3,11.9-13.6,21.5-18.9c0,0,0,0,0,0.1   c0.1,0.8,1,6.7,2.5,15.8c0.8,5.1,1.9,11,3,17.7l0,0C270.1,385.4,273.9,406.1,278.1,425.8z"/>
	<path style="fill:#324A5E;" d="M292.6,365.3c0,0-20.6-14.1-30,12.3c0,0-4.6-44.8,2.1-53.1C264.6,324.5,271.3,347.4,292.6,365.3z"/>
	<path style="fill:#324A5E;" d="M404.3,390.5c-5.2,3.8-10.7,7.3-16.3,10.5c-4.3,2.5-8.8,4.8-13.3,6.9l22.4-36.2   c0-0.1,0.1-0.1,0.1-0.1S400.2,376.7,404.3,390.5z"/>
	<path style="fill:#324A5E;" d="M397.1,371.6c0,0,0,0-0.1,0.1c-0.5,1.3-4.8,12.3-9.1,29.3c-4.3,2.5-8.8,4.8-13.3,6.9l0,0   c-8.9,4.2-18.2,7.8-27.7,10.6c-3.1,0.9-6.3,1.8-9.5,2.5c-7.6,1.8-15.4,3.2-23.4,4.1c5.9-14.3,10.3-24.7,10.3-24.7l4.9-31.1l0,0   l1.3-8.6L330,351c0,0,6.3,1.1,15.2,3c0,0,0,0,0.1,0C363.1,357.8,391.1,364.7,397.1,371.6z"/>
	<path style="fill:#324A5E;" d="M336,381.8l11.6,4c-1.4,6.6-2.9,12.8-4.6,18.7c-1.7,6-3.6,11.5-5.5,16.7c-7.6,1.8-15.4,3.2-23.4,4.1   c-2.2,0.3-4.5,0.5-6.7,0.6c4.2-19.8,8-40.5,10.9-57.1l0,0c0.6-3.4,1.2-6.6,1.7-9.6c2.2-12.9,3.6-21.9,3.9-23.6v-0.1   c0-0.1,0-0.2,0-0.2c9.5,5.3,16.6,12.7,21.5,18.9c5.4,6.9,8,12.5,8,12.5l-17.5,14.5l-0.5,0.4L336,381.8z"/>
	<path style="fill:#324A5E;" d="M292.7,365.3c0,0,20.6-14.1,30,12.3c0,0,4.6-44.8-2.1-53.1C320.6,324.5,313.9,347.4,292.7,365.3z"/>
	<path style="fill:#324A5E;" d="M349.2,268.5c-3.9,9.5-13.4,19.6-19.2,17.9c-5.9-1.7-6-14.6-2.1-24.1s10.3-12.2,16.2-10.5   C349.9,253.5,353.1,258.9,349.2,268.5z"/>
	<path style="fill:#324A5E;" d="M236.1,268.5c3.9,9.5,13.4,19.6,19.2,17.9c5.9-1.7,6-14.6,2.1-24.1s-10.3-12.2-16.2-10.5   C235.3,253.5,232.2,258.9,236.1,268.5z"/>
	<ellipse style="fill:#324A5E;" cx="292.6" cy="269" rx="45.9" ry="59.5"/>
	<path style="fill:#324A5E;" d="M316.3,250.8l-8.8-35.8c0,0,11.7-14,14.8-13.5c3.1,0.5,20.8,19.2,20.8,19.2v26.7v11.1l-4.9,9.8   l-19.1-8.4L316.3,250.8z"/>
	<polygon style="fill:#324A5E;" points="281.8,218.9 253,213.5 243.3,223.1 241.6,244.3 247.1,267.5 284.1,257.5  "/>
	<path style="fill:#324A5E;" d="M285.2,184.3c0,0,14.7-24.6,42.2,0c0,0-7.6-1.2-11.2,0c0,0,45.9,3.1,34,55.9c0,0,0.5,14.5-11.9,28.1   c0,0,14.2-60.6-23.2-45.9c0,0-24.3,13.7-41.8-0.6c0,0-33.5-9.7-26.2,45.7c0,0-39-70.1,4.1-79c0,0,11.2-24.4,52.3-18   C303.6,170.6,289.1,170.6,285.2,184.3z"/>
</g>
<g>
	<path style="fill:#FFFFFF;" d="M210.1,87c-10-4.5-20.9-4.7-30.5-1.3c-1.9-1.3-3.9-2.4-6.1-3.4c-21.1-9.5-45.8-0.1-55.3,21   c-2.1,4.6-3.2,9.3-3.5,14c-4.2,3.8-7.8,8.5-10.2,14c-9.5,21.1-0.1,45.8,21,55.3c10,4.5,20.9,4.7,30.5,1.4c1.7,1.1,3.5,2.1,5.4,3   c21.1,9.5,45.8,0.1,55.3-21c2.1-4.7,3.2-9.6,3.6-14.5c4.3-3.8,7.9-8.5,10.5-14.1C240.1,120.7,230.8,96.3,210.1,87z"/>
	<circle style="fill:#FFFFFF;" cx="184.1" cy="222.1" r="19.5"/>
	<circle style="fill:#FFFFFF;" cx="194.6" cy="261.9" r="10.6"/>
</g>
<g>
</g>
<g>
</g>
<g>
</g>
<g>
</g>
<g>
</g>
<g>
</g>
<g>
</g>
<g>
</g>
<g>
</g>
<g>
</g>
<g>
</g>
<g>
</g>
<g>
</g>
<g>
</g>
<g>
</g>
</svg>
