<?xml version="1.0" encoding="iso-8859-1"?>
<!-- Generator: Adobe Illustrator 19.0.0, SVG Export Plug-In . SVG Version: 6.00 Build 0)  -->
<svg xmlns="http://www.w3.org/2000/svg" xmlns:xlink="http://www.w3.org/1999/xlink" version="1.1" id="Layer_1" x="0px" y="0px" viewBox="0 0 505 505" style="enable-background:new 0 0 505 505;" xml:space="preserve">
<circle style="fill:#90DFAA;" cx="252.5" cy="252.5" r="252.5"/>
<path style="fill:#FFFFFF;" d="M379.9,343.4H147.2c-12.3,0-19.5-10-16-22.4l39.2-137c3.5-12.3,16.4-22.4,28.8-22.4h232.7  c12.3,0,19.5,10,16,22.4l-39.2,137C405.1,333.4,392.3,343.4,379.9,343.4z"/>
<path style="fill:#54C0EB;" d="M445.4,167l-159,96.4L182.6,167c4.7-3.4,10.3-5.4,15.7-5.4h234.4C438.2,161.6,442.6,163.6,445.4,167z  "/>
<g>
	<polygon style="fill:#324A5E;" points="145.6,204.1 69.9,204.1 73.4,192.1 149.1,192.1  "/>
	<polygon style="fill:#324A5E;" points="137.8,231 91.7,231 95.2,218.9 141.3,218.9  "/>
	<polygon style="fill:#324A5E;" points="131.9,255.9 56.2,255.9 59.7,243.8 135.4,243.8  "/>
	<polygon style="fill:#324A5E;" points="124.1,282.7 78,282.7 81.5,270.7 127.6,270.7  "/>
</g>
<g>
</g>
<g>
</g>
<g>
</g>
<g>
</g>
<g>
</g>
<g>
</g>
<g>
</g>
<g>
</g>
<g>
</g>
<g>
</g>
<g>
</g>
<g>
</g>
<g>
</g>
<g>
</g>
<g>
</g>
</svg>
