<?xml version="1.0" encoding="iso-8859-1"?>
<!-- Generator: Adobe Illustrator 19.0.0, SVG Export Plug-In . SVG Version: 6.00 Build 0)  -->
<svg xmlns="http://www.w3.org/2000/svg" xmlns:xlink="http://www.w3.org/1999/xlink" version="1.1" id="Layer_1" x="0px" y="0px" viewBox="0 0 505 505" style="enable-background:new 0 0 505 505;" xml:space="preserve">
<circle style="fill:#54C0EB;" cx="252.5" cy="252.5" r="252.5"/>
<path style="fill:#84DBFF;" d="M40.1,389C85,458.8,163.3,505,252.5,505c89.1,0,167.4-46.2,212.4-116H40.1z"/>
<rect x="110.7" y="107.9" style="fill:#FFFFFF;" width="283.6" height="281.1"/>
<rect x="110.7" y="107.9" style="fill:#FFD05B;" width="283.6" height="34.5"/>
<rect x="84.2" y="370.8" style="fill:#324A5E;" width="336.7" height="18.2"/>
<polygon style="fill:#FF7058;" points="383.7,170.4 436.2,170.4 394.3,134.2 353.8,134.2 "/>
<polygon style="fill:#E6E9EE;" points="331.2,170.4 383.7,170.4 353.8,134.2 313.3,134.2 "/>
<polygon style="fill:#FF7058;" points="278.7,170.4 331.2,170.4 313.3,134.2 272.8,134.2 "/>
<polygon style="fill:#E6E9EE;" points="226.3,170.4 278.7,170.4 272.8,134.2 232.2,134.2 "/>
<g>
	<polygon style="fill:#FF7058;" points="173.8,170.4 226.3,170.4 232.2,134.2 191.7,134.2  "/>
	<polygon style="fill:#FF7058;" points="68.8,170.4 121.3,170.4 151.2,134.2 110.7,134.2  "/>
</g>
<polygon style="fill:#E6E9EE;" points="121.3,170.4 173.8,170.4 191.7,134.2 151.2,134.2 "/>
<path style="fill:#F1543F;" d="M388.9,203.3H431c2.9,0,5.2-2.3,5.2-5.2v-27.7h-52.5v27.7C383.7,201,386,203.3,388.9,203.3z"/>
<path style="fill:#CED5E0;" d="M336.4,203.3h42.1c2.9,0,5.2-2.3,5.2-5.2v-27.7h-52.5v27.7C331.2,201,333.5,203.3,336.4,203.3z"/>
<path style="fill:#F1543F;" d="M283.9,203.3H326c2.9,0,5.2-2.3,5.2-5.2v-27.7h-52.5v27.7C278.7,201,281.1,203.3,283.9,203.3z"/>
<path style="fill:#CED5E0;" d="M231.4,203.3h42.1c2.9,0,5.2-2.3,5.2-5.2v-27.7h-52.5v27.7C226.3,201,228.6,203.3,231.4,203.3z"/>
<g>
	<path style="fill:#F1543F;" d="M179,203.3h42.1c2.9,0,5.2-2.3,5.2-5.2v-27.7h-52.5v27.7C173.8,201,176.1,203.3,179,203.3z"/>
	<path style="fill:#F1543F;" d="M74,203.3h42.1c2.9,0,5.2-2.3,5.2-5.2v-27.7H68.8v27.7C68.8,201,71.2,203.3,74,203.3z"/>
</g>
<path style="fill:#CED5E0;" d="M126.5,203.3h42.1c2.9,0,5.2-2.3,5.2-5.2v-27.7h-52.5v27.7C121.3,201,123.6,203.3,126.5,203.3z"/>
<rect x="218.1" y="270.6" style="fill:#FFD05B;" width="68.7" height="100.2"/>
<rect x="226" y="278.5" style="fill:#F9B54C;" width="52.9" height="54.9"/>
<g>
	<rect x="303.5" y="270.6" style="fill:#84DBFF;" width="72.5" height="62.8"/>
	<rect x="129" y="270.6" style="fill:#84DBFF;" width="72.5" height="62.8"/>
</g>
<g>
</g>
<g>
</g>
<g>
</g>
<g>
</g>
<g>
</g>
<g>
</g>
<g>
</g>
<g>
</g>
<g>
</g>
<g>
</g>
<g>
</g>
<g>
</g>
<g>
</g>
<g>
</g>
<g>
</g>
</svg>
