<?xml version="1.0" encoding="iso-8859-1"?>
<!-- Generator: Adobe Illustrator 19.0.0, SVG Export Plug-In . SVG Version: 6.00 Build 0)  -->
<svg xmlns="http://www.w3.org/2000/svg" xmlns:xlink="http://www.w3.org/1999/xlink" version="1.1" id="Layer_1" x="0px" y="0px" viewBox="0 0 505 505" style="enable-background:new 0 0 505 505;" xml:space="preserve">
<circle style="fill:#FD8469;" cx="252.5" cy="252.5" r="252.5"/>
<circle style="fill:#E6E9EE;" cx="355.4" cy="328.2" r="60.9"/>
<path style="fill:#324A5E;" d="M149.6,344.9c-5,0-9-4-9-9V147.6c0-5,4-9,9-9h205.7c5,0,9,4,9,9v180.6c0,5-4,9-9,9s-9-4-9-9V156.6  H158.6v179.3C158.6,340.8,154.6,344.9,149.6,344.9z"/>
<g>
	<circle style="fill:#FFFFFF;" cx="252.5" cy="147.6" r="60.9"/>
	<circle style="fill:#FFFFFF;" cx="355.4" cy="328.2" r="60.9"/>
</g>
<circle style="fill:#FFD05B;" cx="355.4" cy="328.2" r="33.3"/>
<circle style="fill:#FFFFFF;" cx="149.6" cy="328.2" r="60.9"/>
<circle style="fill:#FFD05B;" cx="149.6" cy="328.2" r="33.3"/>
<circle style="fill:#54C0EB;" cx="252.5" cy="147.6" r="33.3"/>
<g>
</g>
<g>
</g>
<g>
</g>
<g>
</g>
<g>
</g>
<g>
</g>
<g>
</g>
<g>
</g>
<g>
</g>
<g>
</g>
<g>
</g>
<g>
</g>
<g>
</g>
<g>
</g>
<g>
</g>
</svg>
