<?xml version="1.0" encoding="iso-8859-1"?>
<!-- Generator: Adobe Illustrator 19.0.0, SVG Export Plug-In . SVG Version: 6.00 Build 0)  -->
<svg xmlns="http://www.w3.org/2000/svg" xmlns:xlink="http://www.w3.org/1999/xlink" version="1.1" id="Layer_1" x="0px" y="0px" viewBox="0 0 505 505" style="enable-background:new 0 0 505 505;" xml:space="preserve">
<circle style="fill:#84DBFF;" cx="252.5" cy="252.5" r="252.5"/>
<path style="fill:#54C0EB;" d="M57.3,412.5c46.3,56.4,116.5,92.5,195.2,92.5s148.9-36,195.2-92.5H57.3z"/>
<path style="fill:#2B3B4E;" d="M424.7,412.5H80.3c-2.9,0-5.3-2.4-5.3-5.3v-35.7h355v35.7C430,410.2,427.6,412.5,424.7,412.5z"/>
<path style="fill:#324A5E;" d="M409.9,371.6H95.1c-1.8,0-3.3-1.5-3.3-3.3V138.4c0-1.8,1.5-3.3,3.3-3.3h314.8c1.8,0,3.3,1.5,3.3,3.3  v229.9C413.2,370.1,411.7,371.6,409.9,371.6z"/>
<rect x="112.4" y="155.7" style="fill:#FFFFFF;" width="280.2" height="195.3"/>
<polygon style="fill:#FF7058;" points="252.5,299.3 184.4,231.2 190,225.6 252.5,288.1 315,225.6 320.6,231.2 "/>
<g>
	<circle style="fill:#FFD05B;" cx="318" cy="228.4" r="20.4"/>
	<circle style="fill:#FFD05B;" cx="187.2" cy="228.4" r="20.4"/>
	<circle style="fill:#FFD05B;" cx="252.5" cy="291.9" r="28.9"/>
	<circle style="fill:#FFD05B;" cx="252.5" cy="291.9" r="17.2"/>
</g>
<polygon style="fill:#ACB3BA;" points="288.7,380.3 295.9,371.6 209.1,371.6 216.3,380.3 "/>
<g>
</g>
<g>
</g>
<g>
</g>
<g>
</g>
<g>
</g>
<g>
</g>
<g>
</g>
<g>
</g>
<g>
</g>
<g>
</g>
<g>
</g>
<g>
</g>
<g>
</g>
<g>
</g>
<g>
</g>
</svg>
