<?xml version="1.0" encoding="iso-8859-1"?>
<!-- Generator: Adobe Illustrator 19.0.0, SVG Export Plug-In . SVG Version: 6.00 Build 0)  -->
<svg xmlns="http://www.w3.org/2000/svg" xmlns:xlink="http://www.w3.org/1999/xlink" version="1.1" id="Layer_1" x="0px" y="0px" viewBox="0 0 505 505" style="enable-background:new 0 0 505 505;" xml:space="preserve">
<circle style="fill:#FFD05B;" cx="252.5" cy="252.5" r="252.5"/>
<g>
	<path style="fill:#324A5E;" d="M390.2,162.8h-45.7c-0.3,0-0.6-0.2-0.6-0.6V119c0-0.3,0.2-0.6,0.6-0.6h45.7c0.3,0,0.6,0.2,0.6,0.6   v43.2C390.7,162.5,390.5,162.8,390.2,162.8z"/>
	<path style="fill:#324A5E;" d="M390.2,220.6h-45.7c-0.3,0-0.6-0.2-0.6-0.6v-43.2c0-0.3,0.2-0.6,0.6-0.6h45.7c0.3,0,0.6,0.2,0.6,0.6   V220C390.7,220.4,390.5,220.6,390.2,220.6z"/>
	<path style="fill:#324A5E;" d="M390.2,278.4h-45.7c-0.3,0-0.6-0.2-0.6-0.6v-43.2c0-0.3,0.2-0.6,0.6-0.6h45.7c0.3,0,0.6,0.2,0.6,0.6   v43.2C390.7,278.2,390.5,278.4,390.2,278.4z"/>
	<path style="fill:#324A5E;" d="M390.2,336.3h-45.7c-0.3,0-0.6-0.2-0.6-0.6v-43.2c0-0.3,0.2-0.6,0.6-0.6h45.7c0.3,0,0.6,0.2,0.6,0.6   v43.2C390.7,336,390.5,336.3,390.2,336.3z"/>
</g>
<path style="fill:#FFFFFF;" d="M373.4,96.8H167.7v311.4h205.7c0.5,0,0.9-0.4,0.9-0.9V97.7C374.3,97.2,373.9,96.8,373.4,96.8z"/>
<path style="fill:#84DBFF;" d="M171.5,96.8h-39.7c-3,0-5.5,2.5-5.5,5.5v300.3c0,3,2.5,5.5,5.5,5.5h39.7V96.8z"/>
<g>
	<rect x="114.3" y="127.8" style="fill:#324A5E;" width="22.7" height="13.6"/>
	<rect x="114.3" y="175" style="fill:#324A5E;" width="22.7" height="13.6"/>
	<rect x="114.3" y="222.1" style="fill:#324A5E;" width="22.7" height="13.6"/>
	<rect x="114.3" y="269.3" style="fill:#324A5E;" width="22.7" height="13.6"/>
	<rect x="114.3" y="316.4" style="fill:#324A5E;" width="22.7" height="13.6"/>
	<rect x="114.3" y="363.6" style="fill:#324A5E;" width="22.7" height="13.6"/>
</g>
<g>
</g>
<g>
</g>
<g>
</g>
<g>
</g>
<g>
</g>
<g>
</g>
<g>
</g>
<g>
</g>
<g>
</g>
<g>
</g>
<g>
</g>
<g>
</g>
<g>
</g>
<g>
</g>
<g>
</g>
</svg>
