<?xml version="1.0" encoding="iso-8859-1"?>
<!-- Generator: Adobe Illustrator 19.0.0, SVG Export Plug-In . SVG Version: 6.00 Build 0)  -->
<svg xmlns="http://www.w3.org/2000/svg" xmlns:xlink="http://www.w3.org/1999/xlink" version="1.1" id="Layer_1" x="0px" y="0px" viewBox="0 0 505 505" style="enable-background:new 0 0 505 505;" xml:space="preserve">
<path style="fill:#324A5E;" d="M0,252.5C0,113,113,0,252.5,0S505,113,505,252.5S392,505,252.5,505S0,392,0,252.5z"/>
<g>
	<path style="fill:#FFFFFF;" d="M252.5,416.7c-90.5,0-164.2-73.6-164.2-164.2h16.5l-24.1-37l-24.1,37h16.5   c0,98.9,80.5,179.4,179.4,179.4c72.8,0,135.7-43.7,163.7-106.1l-14.1-5.8C376.3,376.9,318.9,416.7,252.5,416.7z"/>
	<path style="fill:#FFFFFF;" d="M431.9,252.5L431.9,252.5c0-99-80.5-179.4-179.4-179.4c-72.8,0-135.6,43.6-163.7,106.1l14.1,5.8   c25.9-56.9,83.2-96.6,149.7-96.6c90.5,0,164.2,73.6,164.2,164.1l0,0h-16.5l24.1,37l24.1-37L431.9,252.5L431.9,252.5z"/>
</g>
<circle style="fill:#54C0EB;" cx="252.5" cy="252.5" r="132"/>
<path style="fill:#FFFFFF;" d="M319.2,285.7c-3.8-4.5-21.7-8.8-33.1-11.2c-3.1-4-7.7-8.7-13.8-12.1c0,0,0,0,0,0.1  c-0.3-2.9-0.9-5.3-1.8-6.6c-0.2-1.6-0.4-3.3-0.8-5.1c5.3-5,9.3-12.4,11.1-20.9c3-2.1,6.2-6.2,7.8-10.1c1.9-4.8,1.1-7.9-1.1-9.5  c1.9-4.8,1.7-8.5,1.7-8.5c7.6-33.7-21.7-35.7-21.7-35.7c2.3-0.7,7.2,0,7.2,0c-17.6-15.7-27,0-27,0c2.5-8.8,11.7-8.8,11.7-8.8  c-26.2-4.1-33.4,11.5-33.4,11.5c-19.4,4-12.8,27.2-7.2,40.7c-3.2,1.3-4.7,4.7-2.4,10.3c1.6,4,4.8,8.1,7.8,10.1  c1.8,8.5,5.7,15.8,11.1,20.9c-0.4,1.7-0.6,3.4-0.8,5.1c-0.9,1.3-1.5,3.8-1.8,6.8v-0.1l0,0v-0.1c-6.1,3.4-10.7,8.1-13.8,12.1  c-11.4,2.4-29.3,6.8-33.1,11.2c0,0-4.7,7.6-9.1,31.4c6.1,6.1,12.7,11.2,19.8,15.5c1.5,0.9,2.9,1.7,4.4,2.5  c8.9,4.9,18.3,8.4,28.1,10.6c4,0.9,8,1.6,12,2c3,0.3,6,0.5,9.1,0.6h0.2c1.5,0,3.1,0,4.6,0h0.2c3,0,6.1-0.2,9.1-0.6  c4.8-0.5,9.6-1.4,14.3-2.6c8.9-2.2,17.5-5.5,25.7-10c1.5-0.8,2.9-1.6,4.4-2.5c7.1-4.3,13.7-9.4,19.8-15.5  C323.9,293.4,319.2,285.7,319.2,285.7z"/>
<g>
</g>
<g>
</g>
<g>
</g>
<g>
</g>
<g>
</g>
<g>
</g>
<g>
</g>
<g>
</g>
<g>
</g>
<g>
</g>
<g>
</g>
<g>
</g>
<g>
</g>
<g>
</g>
<g>
</g>
</svg>
