<?xml version="1.0" encoding="iso-8859-1"?>
<!-- Generator: Adobe Illustrator 19.0.0, SVG Export Plug-In . SVG Version: 6.00 Build 0)  -->
<svg xmlns="http://www.w3.org/2000/svg" xmlns:xlink="http://www.w3.org/1999/xlink" version="1.1" id="Layer_1" x="0px" y="0px" viewBox="0 0 505 505" style="enable-background:new 0 0 505 505;" xml:space="preserve">
<path style="fill:#54C0EB;" d="M0,252.5C0,113,113,0,252.5,0C391.9,0,505,113,505,252.5S391.9,505,252.5,505C113,505,0,392,0,252.5z  "/>
<g>
	<path style="fill:#FFFFFF;" d="M262.3,368.7c-7.2,7.2-15.1,13.3-23.4,18.3c-1.7,1.1-3.4,2.1-5.1,3l-3.8-23.5l21.5-34.5   c0.1-0.1,0.1-0.2,0.1-0.2c0.1-0.1,0.1-0.1,0.1-0.1S257.1,340.7,262.3,368.7z"/>
	<path style="fill:#FFFFFF;" d="M214.2,388.7c-1.9,4.6-5.4,8.3-9,11.6c-0.6,0.5-1.1,1-1.7,1.5c-5.5,1.4-11.2,2.4-16.9,3   c-3.5,0.4-7.1,0.6-10.7,0.7h-0.2c-1.8,0.1-3.7,0.1-5.5,0H170c-3.6-0.1-7.2-0.3-10.7-0.7c-4.7-0.5-9.5-1.3-14.2-2.4   c-1.9-6.6-1.9-13.8-1.9-20.7v-3.1c0-14.6,0.1-29.1,0.1-43.7c0-2.9,0-5.8,0.7-8.6c0.2-0.6,0.3-1.1,0.6-1.6c1-2.6,2.6-4.8,4.6-6.7   c0.7-0.7,1.5-1.3,2.3-1.9c1-0.7,1.9-1.4,3-1.9c1.7-1,3.5-1.7,5.3-2.3c1.3-0.5,2.7-0.8,4.1-1c3.4-0.6,7-0.8,10.4-0.1   c3.2,0.7,6.2,2.2,9,3.9c0.2,0.1,0.4,0.2,0.6,0.4c1.7,1,3.4,2.2,5,3.4c1.5,1.1,3,2.3,4.5,3.6c1.1,1,2.1,1.9,3,3   c1.5,1.5,2.8,3.1,4.1,4.9c1.5,2.1,2.9,4.4,4.1,6.8c0.3,0.7,0.6,1.4,0.9,2.1c0.1,0.1,0.2,0.3,0.2,0.5c1.3,3.1,2.1,6.3,3.1,9.6   c0.7,2.5,1.4,5,2.1,7.5c0.7,2.3,1.4,4.7,2.1,7.1C215.1,371.7,217.4,380.7,214.2,388.7z"/>
	<path style="fill:#FFFFFF;" d="M172.9,262.1c-11.9,0-21.5,23.3-21.5,38.3c0,8.8,3.3,16.7,8.4,21.6c0.6-0.1,1.6-0.2,1.8-0.2   c1,0,2,0.1,3,0.4c0.9,0.3,1.9,0.6,2.7,1.1c0.2,0.1,0.7,0.4,1.1,0.7c0.2,0.1,0.4,0.2,0.6,0.3c0.6,0.3,1.1,0.6,1.7,1   c0.4,0.3,0.9,0.6,1.3,0.9c0.3,0.1,0.5,0.3,0.7,0.5h0.1c0.6-0.5,1.4-1,2-1.4c0.4-0.2,0.8-0.4,1.2-0.6c0.6-0.3,0.9-0.4,1.2-0.6   c0.3-0.4,2.8-1.3,3-1.4c1.6-0.5,3-0.4,4.6-0.1c0.1,0,0.1,0,0.2,0c5.6-4.9,9.3-13.1,9.3-22.4C194.4,285.3,184.7,262.1,172.9,262.1z"/>
	<path style="fill:#FFFFFF;" d="M115.8,366.5L112,390c-1.7-0.9-3.4-1.9-5.1-3c-8.3-5.1-16.1-11.2-23.3-18.3c5.2-28,10.7-37,10.7-37   s0,0.1,0.1,0.1c0,0.1,0.1,0.1,0.1,0.2L115.8,366.5z"/>
	<path style="fill:#FFFFFF;" d="M169.2,403.2c0.3,0.7,0.6,1.5,0.9,2.3h-0.2c-3.6-0.1-7.2-0.3-10.7-0.7c-4.7-0.5-9.5-1.3-14.2-2.4   c-11.5-2.5-22.6-6.7-33.1-12.4c-1.7-0.9-3.4-1.9-5.1-3c-2.7-29.5-11.4-52.2-12.4-55c-0.1-0.1-0.1-0.2-0.1-0.2   c-0.1-0.1-0.1-0.1-0.1-0.1c4.5-5.3,25.6-10.4,39-13.2c6.7-1.4,11.5-2.3,11.5-2.3l-0.4,7.3l0.2,1.3l4.5,28.6c0,0,11.4,27,20.1,49.6   C169.2,403,169.2,403.1,169.2,403.2z"/>
	<path style="fill:#FFFFFF;" d="M169.2,403.2c0.2,0.8,0.5,1.6,0.7,2.3c-3.6-0.1-7.2-0.3-10.7-0.7c-5.1-6.3-10.8-15-16-26.2   c-4.5-9.9-8.6-21.9-11.6-36.3l9.2-3.2l-13.5-11.3c0,0,1.9-4.2,5.9-9.4c3.7-4.7,9.1-10.2,16.3-14.3v0.1v0.1   c0.2,0.9,0.9,5.3,1.9,11.8c0.6,3.8,1.4,8.3,2.2,13.3c0,0,0,0,0,0.1c3.9,21.9,9.8,53.2,15.5,73.5C169.2,403,169.2,403.1,169.2,403.2   z"/>
	<path style="fill:#FFFFFF;" d="M172.9,326.9c0,0-15.5-10.6-22.6,9.3c0,0-3.5-33.7,1.6-40C151.8,296.1,156.8,313.4,172.9,326.9z"/>
	<path style="fill:#FFFFFF;" d="M251.6,331.7c0,0,0,0.1-0.1,0.1c0,0.1-0.1,0.1-0.1,0.2c-1.1,2.9-9.8,25.5-12.5,55   c-1.7,1.1-3.4,2.1-5.1,3c-9.6,5.3-19.8,9.2-30.3,11.8c-5.5,1.4-11.2,2.4-16.9,3c-3.5,0.4-7.1,0.6-10.7,0.7h-0.2   c0.3-0.8,0.6-1.6,0.9-2.3c0-0.1,0.1-0.1,0.1-0.2c8.7-22.6,20.1-49.6,20.1-49.6l3.7-23.4l1-6.5l-0.4-7.3c0,0,4.9,0.9,11.5,2.3   C226,321.3,247.1,326.4,251.6,331.7z"/>
	<path style="fill:#FFFFFF;" d="M205.5,339.2l8.7,3c-1,5-2.2,9.6-3.5,14c-6.6,23-16,38.5-24.1,48.5c-3.5,0.4-7.1,0.6-10.7,0.7   c0.2-0.7,0.5-1.5,0.7-2.3c0-0.1,0.1-0.1,0.1-0.2c5.8-20.3,11.6-51.6,15.5-73.4c0.4-2.6,0.9-5.1,1.2-7.4c1.7-9.8,2.7-16.6,2.9-17.8   v-0.1c0.1-0.1,0.1-0.1,0.1-0.1c7.2,4.1,12.6,9.6,16.3,14.3c4,5.2,5.9,9.4,5.9,9.4l-13.2,11l-0.3,0.3L205.5,339.2z"/>
	<path style="fill:#FFFFFF;" d="M172.9,326.9c0,0,15.5-10.6,22.6,9.3c0,0,3.5-33.7-1.6-40C193.9,296.1,188.9,313.4,172.9,326.9z"/>
	<path style="fill:#FFFFFF;" d="M215.4,253.9c-2.9,7.2-10.1,14.8-14.5,13.5s-4.5-11-1.6-18.2s7.8-9.2,12.2-7.9   C216,242.7,218.4,246.7,215.4,253.9z"/>
	<path style="fill:#FFFFFF;" d="M130.3,253.9c2.9,7.2,10.1,14.8,14.5,13.5s4.5-11,1.6-18.2s-7.8-9.2-12.2-7.9   C129.7,242.7,127.4,246.7,130.3,253.9z"/>
	<ellipse style="fill:#FFFFFF;" cx="172.9" cy="254.3" rx="34.6" ry="44.8"/>
	<path style="fill:#FFFFFF;" d="M190.7,240.6l-6.7-27c0,0,8.8-10.5,11.2-10.1s15.7,14.5,15.7,14.5v20.1v8.3l-3.7,7.4l-14.4-6.3   L190.7,240.6z"/>
	<polygon style="fill:#FFFFFF;" points="164.7,216.6 143,212.5 135.7,219.8 134.4,235.7 138.6,253.2 166.4,245.7  "/>
	<path style="fill:#FFFFFF;" d="M167.3,190.6c0,0,11.1-18.5,31.8,0c0,0-5.7-0.9-8.5,0c0,0,34.6,2.3,25.6,42.1c0,0,0.3,10.9-9,21.1   c0,0,10.7-45.6-17.5-34.5c0,0-18.3,10.3-31.5-0.4c0,0-25.2-7.3-19.7,34.4c0,0-29.4-52.8,3.1-59.5c0,0,8.5-18.4,39.4-13.6   C181.1,180.2,170.2,180.2,167.3,190.6z"/>
	<path style="fill:#FFFFFF;" d="M421.5,267.3c-7.2,7.2-15.1,13.3-23.4,18.3c-1.7,1.1-3.4,2.1-5.1,3l-3.8-23.5l21.5-34.5   c0.1-0.1,0.1-0.2,0.1-0.2c0.1-0.1,0.1-0.1,0.1-0.1S416.4,239.3,421.5,267.3z"/>
	<path style="fill:#FFFFFF;" d="M373.4,287.3c-1.9,4.6-5.4,8.3-9,11.6c-0.6,0.5-1.1,1-1.7,1.5c-5.5,1.4-11.2,2.4-16.9,3   c-3.5,0.4-7.1,0.6-10.7,0.7h-0.2c-1.8,0.1-3.7,0.1-5.5,0h-0.2c-3.6-0.1-7.2-0.3-10.7-0.7c-4.7-0.5-9.5-1.3-14.2-2.4   c-1.9-6.6-1.9-13.8-1.9-20.7v-3.1c0-14.6,0.1-29.1,0.1-43.7c0-2.9,0-5.8,0.7-8.6c0.2-0.6,0.3-1.1,0.6-1.6c1-2.6,2.6-4.9,4.6-6.7   c0.7-0.7,1.5-1.3,2.3-1.9c1-0.7,1.9-1.4,3-1.9c1.7-1,3.5-1.7,5.3-2.3c1.3-0.5,2.7-0.8,4.1-1c3.4-0.6,7-0.8,10.4-0.1   c3.2,0.7,6.2,2.2,9,3.9c0.2,0.1,0.4,0.2,0.6,0.4c1.7,1,3.4,2.2,5,3.4c1.5,1.1,3,2.3,4.5,3.6c1.1,1,2.1,1.9,3,3   c1.5,1.5,2.8,3.1,4.1,4.9c1.5,2.1,2.9,4.4,4.1,6.8c0.3,0.7,0.6,1.4,0.9,2.1c0.1,0.1,0.2,0.3,0.2,0.5c1.3,3.1,2.1,6.3,3.1,9.6   c0.7,2.5,1.4,5,2.1,7.5c0.7,2.3,1.4,4.7,2.1,7.1C374.4,270.3,376.7,279.3,373.4,287.3z"/>
	<path style="fill:#FFFFFF;" d="M332.1,160.7c-11.9,0-21.5,23.3-21.5,38.3c0,8.8,3.3,16.7,8.4,21.6c0.6-0.1,1.6-0.2,1.8-0.2   c1,0,2,0.1,3,0.4c0.9,0.3,1.9,0.6,2.7,1.1c0.2,0.1,0.7,0.4,1.1,0.7c0.2,0.1,0.4,0.2,0.6,0.3c0.6,0.3,1.1,0.6,1.7,1   c0.4,0.3,0.9,0.6,1.3,0.9c0.3,0.1,0.5,0.3,0.7,0.5h0.1c0.6-0.5,1.4-1,2-1.4c0.4-0.2,0.8-0.4,1.2-0.6c0.6-0.3,0.9-0.4,1.2-0.6   c0.3-0.4,2.8-1.3,3-1.4c1.6-0.5,3-0.4,4.6-0.1c0.1,0,0.1,0,0.2,0c5.6-4.9,9.3-13.1,9.3-22.4C353.6,184,344,160.7,332.1,160.7z"/>
	<path style="fill:#FFFFFF;" d="M275,265.1l-3.8,23.5c-1.7-0.9-3.4-1.9-5.1-3c-8.3-5.1-16.1-11.2-23.3-18.3c5.2-28,10.7-37,10.7-37   s0,0.1,0.1,0.1c0,0.1,0.1,0.1,0.1,0.2L275,265.1z"/>
	<path style="fill:#FFFFFF;" d="M328.5,301.8c0.3,0.7,0.6,1.5,0.9,2.3h-0.2c-3.6-0.1-7.2-0.3-10.7-0.7c-4.7-0.5-9.5-1.3-14.2-2.4   c-11.5-2.5-22.6-6.7-33.1-12.4c-1.7-0.9-3.4-1.9-5.1-3c-2.7-29.5-11.4-52.2-12.4-55c-0.1-0.1-0.1-0.2-0.1-0.2   c-0.1-0.1-0.1-0.1-0.1-0.1c4.5-5.3,25.6-10.4,39-13.2c6.7-1.4,11.5-2.3,11.5-2.3l-0.4,7.3l0.2,1.3l4.5,28.6c0,0,11.4,27,20.1,49.6   C328.4,301.7,328.5,301.7,328.5,301.8z"/>
	<path style="fill:#FFFFFF;" d="M328.5,301.8c0.2,0.8,0.5,1.6,0.7,2.3c-3.6-0.1-7.2-0.3-10.7-0.7c-5.1-6.3-10.8-15-16-26.2   c-4.5-9.9-8.6-21.9-11.6-36.3l9.2-3.2l-13.6-11.3c0,0,1.9-4.2,5.9-9.4c3.7-4.7,9.1-10.2,16.3-14.3v0.1v0.1   c0.2,0.9,0.9,5.3,1.9,11.8c0.6,3.8,1.4,8.3,2.2,13.3c0,0,0,0,0,0.1c3.9,21.9,9.8,53.2,15.5,73.5   C328.4,301.7,328.5,301.7,328.5,301.8z"/>
	<path style="fill:#FFFFFF;" d="M332.1,225.5c0,0-15.5-10.6-22.6,9.3c0,0-3.5-33.7,1.6-40C311,194.8,316.1,212,332.1,225.5z"/>
	<path style="fill:#FFFFFF;" d="M410.8,230.3c0,0,0,0.1-0.1,0.1c0,0.1-0.1,0.1-0.1,0.2c-1.1,2.9-9.8,25.5-12.5,55   c-1.7,1.1-3.4,2.1-5.1,3c-9.6,5.3-19.8,9.2-30.3,11.8c-5.5,1.4-11.2,2.4-16.9,3c-3.5,0.4-7.1,0.6-10.7,0.7h-0.2   c0.3-0.8,0.6-1.6,0.9-2.3c0-0.1,0.1-0.1,0.1-0.2C344.6,279,356,252,356,252l3.7-23.4l1-6.5l-0.4-7.3c0,0,4.8,0.9,11.5,2.3   C385.3,219.9,406.3,225,410.8,230.3z"/>
	<path style="fill:#FFFFFF;" d="M364.8,237.9l8.7,3c-1,5-2.2,9.6-3.5,14c-6.6,23-16,38.5-24.1,48.5c-3.5,0.4-7.1,0.6-10.7,0.7   c0.2-0.7,0.5-1.5,0.7-2.3c0-0.1,0.1-0.1,0.1-0.2c5.8-20.3,11.6-51.6,15.5-73.4c0.4-2.6,0.9-5.1,1.2-7.4c1.7-9.8,2.7-16.6,2.9-17.8   v-0.1c0.1-0.1,0.1-0.1,0.1-0.1c7.2,4.1,12.6,9.6,16.3,14.3c4,5.2,5.9,9.4,5.9,9.4l-13.2,11l-0.3,0.3L364.8,237.9z"/>
	<path style="fill:#FFFFFF;" d="M332.1,225.5c0,0,15.5-10.6,22.6,9.3c0,0,3.5-33.7-1.6-40C353.2,194.8,348.2,212,332.1,225.5z"/>
	<path style="fill:#FFFFFF;" d="M374.7,152.5c-2.9,7.2-10.1,14.8-14.5,13.5s-4.5-11-1.6-18.2s7.8-9.2,12.2-7.9   C375.3,141.3,377.6,145.4,374.7,152.5z"/>
	<path style="fill:#FFFFFF;" d="M289.5,152.5c2.9,7.2,10.1,14.8,14.5,13.5s4.5-11,1.6-18.2s-7.8-9.2-12.2-7.9   C289,141.3,286.6,145.4,289.5,152.5z"/>
	<ellipse style="fill:#FFFFFF;" cx="332.1" cy="152.9" rx="34.6" ry="44.8"/>
	<path style="fill:#FFFFFF;" d="M350,139.2l-6.7-27c0,0,8.8-10.5,11.2-10.1c2.4,0.4,15.7,14.5,15.7,14.5v20.1v8.3l-3.7,7.4   l-14.4-6.3L350,139.2z"/>
	<polygon style="fill:#FFFFFF;" points="324,115.2 302.3,111.2 294.9,118.4 293.7,134.3 297.8,151.8 325.7,144.3  "/>
	<path style="fill:#FFFFFF;" d="M326.5,89.2c0,0,11.1-18.5,31.8,0c0,0-5.7-0.9-8.5,0c0,0,34.6,2.3,25.6,42.1c0,0,0.3,10.9-9,21.1   c0,0,10.7-45.6-17.5-34.5c0,0-18.3,10.3-31.5-0.4c0,0-25.2-7.3-19.7,34.4c0,0-29.4-52.8,3.1-59.5c0,0,8.5-18.4,39.4-13.6   C340.4,78.8,329.5,78.8,326.5,89.2z"/>
</g>
<g>
	<path style="fill:#324A5E;" d="M253.1,418.6l51.3,26.8c0,0-4.6-40.3-6.9-60.5L253.1,418.6z"/>
	<path style="fill:#324A5E;" d="M404.2,323.4c-18.9,52.8-67.7,78.1-111,74.7c0.7,11.7,1.3,23.5,2,35.2   C353.3,423.9,397.4,378.7,404.2,323.4z"/>
	<path style="fill:#324A5E;" d="M242,105.5l-51.3-26.8c0,0,4.6,40.3,6.9,60.5L242,105.5z"/>
	<path style="fill:#324A5E;" d="M90.9,200.6c18.9-52.8,67.7-78.1,111-74.7c-0.7-11.7-1.3-23.5-2-35.2   C141.7,100.2,97.6,145.4,90.9,200.6z"/>
</g>
<g>
</g>
<g>
</g>
<g>
</g>
<g>
</g>
<g>
</g>
<g>
</g>
<g>
</g>
<g>
</g>
<g>
</g>
<g>
</g>
<g>
</g>
<g>
</g>
<g>
</g>
<g>
</g>
<g>
</g>
</svg>
