<?xml version="1.0" encoding="iso-8859-1"?>
<!-- Generator: Adobe Illustrator 19.0.0, SVG Export Plug-In . SVG Version: 6.00 Build 0)  -->
<svg xmlns="http://www.w3.org/2000/svg" xmlns:xlink="http://www.w3.org/1999/xlink" version="1.1" id="Layer_1" x="0px" y="0px" viewBox="0 0 505 505" style="enable-background:new 0 0 505 505;" xml:space="preserve">
<circle style="fill:#FFD05B;" cx="252.5" cy="252.5" r="252.5"/>
<g>
	<polygon style="fill:#324A5E;" points="263.8,412.2 283.3,412.2 252.5,443 221.7,412.2 240.1,412.2 240.1,275.8 263.8,275.8  "/>
	<path style="fill:#324A5E;" d="M351.2,398.7v-18.4h-48.6c-6.5,0-11.8-5.3-11.8-11.8v-92.6h23.7v80.8h36.8v-19.6l30.8,30.9   L351.2,398.7z"/>
	<path style="fill:#324A5E;" d="M202.4,380.3h-48.6v18.4L123,367.9l30.8-30.9v19.6h36.8v-80.8h23.7v92.6   C214.2,375,208.9,380.3,202.4,380.3z"/>
</g>
<path style="fill:#FFFFFF;" d="M360.7,151.8c0.3-2.4,0.6-4.8,0.6-7.3c0-27.7-22.4-50.1-50.1-50.1c-7.8,0-15.1,1.8-21.7,5  C275.6,76.9,250.7,62,222.3,62c-43.7,0-79.1,35.4-79.1,79.1c0,3.7,0.3,7.3,0.8,10.8c-33.6,9.1-58.2,39.8-58.2,76.3  c0,43.7,35.4,79.1,79.1,79.1h175.4c43.7,0,79.1-35.4,79.1-79.1C419.3,191.6,394.5,160.9,360.7,151.8z"/>
<g>
</g>
<g>
</g>
<g>
</g>
<g>
</g>
<g>
</g>
<g>
</g>
<g>
</g>
<g>
</g>
<g>
</g>
<g>
</g>
<g>
</g>
<g>
</g>
<g>
</g>
<g>
</g>
<g>
</g>
</svg>
