<?xml version="1.0" encoding="iso-8859-1"?>
<!-- Generator: Adobe Illustrator 19.0.0, SVG Export Plug-In . SVG Version: 6.00 Build 0)  -->
<svg xmlns="http://www.w3.org/2000/svg" xmlns:xlink="http://www.w3.org/1999/xlink" version="1.1" id="Layer_1" x="0px" y="0px" viewBox="0 0 505 505" style="enable-background:new 0 0 505 505;" xml:space="preserve">
<circle style="fill:#324A5E;" cx="252.5" cy="252.5" r="252.5"/>
<path style="fill:#FFFFFF;" d="M385.1,89.6H161.4c-9.3,0-16.9,7.6-16.9,16.9v292c0,9.3,7.6,16.9,16.9,16.9h174.8v-65.9h65.9v-243  C402,97.2,394.5,89.6,385.1,89.6z"/>
<polygon style="fill:#ACB3BA;" points="336.2,415.4 402,349.5 336.2,349.5 "/>
<rect x="196.085" y="255.885" transform="matrix(-0.7071 -0.7071 0.7071 -0.7071 140.6498 652.1278)" style="fill:#2C9984;" width="18.6" height="82.099"/>
<circle style="fill:#4CDBC4;" cx="275.3" cy="227.1" r="103"/>
<circle style="fill:#FFFFFF;" cx="275.3" cy="227.1" r="80.9"/>
<path style="fill:#FF7058;" d="M127.5,401.5l-26.7-26.7c-0.9-0.9-0.9-2.4,0-3.3l74.3-74.3c0.9-0.9,2.4-0.9,3.3,0l26.7,26.7  c0.9,0.9,0.9,2.4,0,3.3l-74.3,74.3C129.9,402.4,128.4,402.4,127.5,401.5z"/>
<path style="fill:#E6E9EE;" d="M301.6,297.2c-1.2,2.9-3.4,5.3-5.7,7.4c-0.4,0.3-0.7,0.7-1.1,1c-3.5,0.9-7.1,1.5-10.8,1.9  c-2.3,0.3-4.5,0.4-6.8,0.4h-0.1c-1.2,0-2.3,0-3.5,0h-0.1c-2.3,0-4.6-0.2-6.8-0.4c-3-0.3-6-0.8-9-1.5c-1.2-4.2-1.2-8.8-1.2-13.2v-2  c0-9.3,0-18.6,0.1-27.8c0-1.9,0-3.7,0.5-5.5c0.1-0.4,0.2-0.7,0.4-1c0.6-1.7,1.6-3.1,2.9-4.3c0.5-0.4,0.9-0.8,1.5-1.2  c0.6-0.5,1.2-0.9,1.9-1.2c1.1-0.6,2.2-1.1,3.4-1.5c0.8-0.3,1.7-0.5,2.6-0.7c2.2-0.4,4.5-0.5,6.7,0c2,0.4,3.9,1.4,5.7,2.5  c0.1,0.1,0.3,0.1,0.4,0.3c1.1,0.7,2.2,1.4,3.2,2.1c1,0.7,1.9,1.5,2.8,2.3c0.7,0.6,1.3,1.2,1.9,1.9c0.9,1,1.8,2,2.6,3.1  c1,1.3,1.9,2.8,2.6,4.3c0.2,0.4,0.4,0.9,0.5,1.3c0.1,0.1,0.1,0.2,0.1,0.3c0.8,2,1.3,4,2,6.1c0.4,1.6,0.9,3.2,1.3,4.8  c0.4,1.5,0.9,3,1.3,4.5C302.2,286.4,303.7,292.1,301.6,297.2z"/>
<path style="fill:#F9B54C;" d="M275.3,216.5c-7.6,0-13.7,14.8-13.7,24.4c0,5.6,2.1,10.6,5.4,13.8c0.4,0,1-0.1,1.2-0.1  c0.6,0,1.3,0.1,1.9,0.3c0.6,0.2,1.2,0.4,1.7,0.7c0.1,0.1,0.5,0.3,0.7,0.5c0.1,0,0.2,0.1,0.4,0.2c0.4,0.2,0.7,0.4,1.1,0.6  c0.3,0.2,0.6,0.4,0.8,0.6c0.2,0.1,0.3,0.2,0.5,0.3l0,0c0.4-0.3,0.9-0.6,1.3-0.9c0.2-0.2,0.5-0.3,0.7-0.4c0.4-0.2,0.6-0.3,0.8-0.4  c0.2-0.3,1.8-0.8,1.9-0.9c1-0.3,1.9-0.3,2.9-0.1h0.1c3.6-3.1,6-8.4,6-14.3C289,231.3,282.8,216.5,275.3,216.5z"/>
<path style="fill:#324A5E;" d="M238.8,283.1l-2.4,15c-1.1-0.6-2.2-1.2-3.3-1.9c-5.3-3.2-10.3-7.1-14.9-11.7  c3.3-17.9,6.8-23.6,6.8-23.6s0,0,0,0.1c0,0,0,0.1,0.1,0.1L238.8,283.1z"/>
<path style="fill:#2B3B4E;" d="M272.9,306.4c0.2,0.5,0.4,1,0.6,1.5h-0.1c-2.3,0-4.6-0.2-6.8-0.4c-3-0.3-6-0.8-9-1.5  c-7.3-1.6-14.4-4.3-21.1-7.9c-1.1-0.6-2.2-1.2-3.3-1.9c-1.7-18.8-7.2-33.3-7.9-35.1c0-0.1-0.1-0.1-0.1-0.1v-0.1  c2.9-3.3,16.3-6.6,24.9-8.4c4.3-0.9,7.3-1.5,7.3-1.5l-0.3,4.7l0.1,0.8l2.9,18.2C260.1,274.7,267.4,291.9,272.9,306.4  C272.9,306.4,272.9,306.4,272.9,306.4z"/>
<path style="fill:#324A5E;" d="M272.9,306.4c0.1,0.5,0.3,1,0.4,1.5c-2.3,0-4.6-0.2-6.8-0.4c-3.3-4-6.9-9.5-10.2-16.7  c-2.9-6.3-5.5-14-7.4-23.1l5.9-2l-8.6-7.2c0,0,1.2-2.7,3.8-6c2.3-3,5.8-6.5,10.4-9.1c0,0,0,0,0,0.1l0,0c0.1,0.6,0.5,3.4,1.2,7.5  c0.4,2.4,0.9,5.3,1.4,8.5l0,0C265.5,273.5,269.2,293.4,272.9,306.4C272.9,306.4,272.9,306.4,272.9,306.4z"/>
<path style="fill:#FFFFFF;" d="M275.3,257.8c0,0-9.9-6.8-14.4,5.9c0,0-2.2-21.5,1-25.5C261.8,238.2,265,249.2,275.3,257.8z"/>
<path style="fill:#2B3B4E;" d="M332.3,284.5c-4.6,4.6-9.6,8.5-14.9,11.7c-1.1,0.7-2.2,1.3-3.3,1.9l-2.4-15l13.7-22  c0-0.1,0.1-0.1,0.1-0.1v-0.1C325.5,260.9,329,266.6,332.3,284.5z"/>
<path style="fill:#324A5E;" d="M325.4,260.9L325.4,260.9c0,0.1-0.1,0.1-0.1,0.2c-0.7,1.8-6.2,16.3-8,35.1c-1.1,0.7-2.2,1.3-3.3,1.9  c-6.1,3.4-12.6,5.9-19.3,7.5c-3.5,0.9-7.1,1.5-10.8,1.9c-2.3,0.3-4.5,0.4-6.8,0.4H277c0.2-0.5,0.4-1,0.6-1.5v-0.1  c5.5-14.4,12.8-31.7,12.8-31.7l2.4-14.9l0.7-4.1l-0.3-4.7c0,0,3.1,0.5,7.3,1.5C309.1,254.2,322.6,257.5,325.4,260.9z"/>
<path style="fill:#2B3B4E;" d="M296.1,265.7l5.5,1.9c-0.7,3.2-1.4,6.1-2.2,8.9c-4.2,14.7-10.2,24.6-15.4,30.9  c-2.3,0.3-4.5,0.4-6.8,0.4c0.1-0.5,0.3-1,0.4-1.5v-0.1c3.7-13,7.4-32.9,9.9-46.8c0.3-1.7,0.5-3.3,0.8-4.7c1.1-6.3,1.7-10.6,1.9-11.4  l0,0v-0.1c4.6,2.6,8,6.1,10.4,9.1c2.5,3.3,3.8,6,3.8,6l-8.4,7l-0.2,0.2L296.1,265.7z"/>
<path style="fill:#FFFFFF;" d="M275.3,257.8c0,0,9.9-6.8,14.4,5.9c0,0,2.2-21.5-1-25.5C288.7,238.2,285.5,249.2,275.3,257.8z"/>
<g>
	<path style="fill:#F9B54C;" d="M302.4,211.3c-1.9,4.6-6.4,9.4-9.2,8.6c-2.8-0.8-2.9-7-1-11.6s5-5.8,7.8-5   C302.8,204.1,304.3,206.7,302.4,211.3z"/>
	<path style="fill:#F9B54C;" d="M248.1,211.3c1.9,4.6,6.4,9.4,9.2,8.6c2.8-0.8,2.9-7,1-11.6s-5-5.8-7.8-5   C247.7,204.1,246.2,206.7,248.1,211.3z"/>
</g>
<g>
	<ellipse style="fill:#FFD05B;" cx="275.3" cy="211.5" rx="22.1" ry="28.6"/>
	<path style="fill:#FFD05B;" d="M286.6,202.8l-4.2-17.2c0,0,5.6-6.7,7.1-6.5s10,9.2,10,9.2v12.8v5.3l-2.3,4.7l-9.2-4L286.6,202.8z"/>
	<polygon style="fill:#FFD05B;" points="270.1,187.5 256.2,184.9 251.6,189.5 250.7,199.7 253.4,210.8 271.2,206  "/>
</g>
<path style="fill:#324A5E;" d="M271.7,170.9c0,0,7.1-11.8,20.3,0c0,0-3.6-0.6-5.4,0c0,0,22,1.5,16.3,26.9c0,0,0.2,7-5.7,13.5  c0,0,6.8-29.1-11.1-22c0,0-11.7,6.6-20.1-0.3c0,0-16.1-4.6-12.6,21.9c0,0-18.7-33.6,2-37.9c0,0,5.4-11.7,25.1-8.6  C280.5,164.3,273.6,164.3,271.7,170.9z"/>
<g>
</g>
<g>
</g>
<g>
</g>
<g>
</g>
<g>
</g>
<g>
</g>
<g>
</g>
<g>
</g>
<g>
</g>
<g>
</g>
<g>
</g>
<g>
</g>
<g>
</g>
<g>
</g>
<g>
</g>
</svg>
