<?xml version="1.0" encoding="iso-8859-1"?>
<!-- Generator: Adobe Illustrator 19.0.0, SVG Export Plug-In . SVG Version: 6.00 Build 0)  -->
<svg xmlns="http://www.w3.org/2000/svg" xmlns:xlink="http://www.w3.org/1999/xlink" version="1.1" id="Layer_1" x="0px" y="0px" viewBox="0 0 505 505" style="enable-background:new 0 0 505 505;" xml:space="preserve">
<circle style="fill:#84DBFF;" cx="252.5" cy="252.5" r="252.5"/>
<path style="fill:#324A5E;" d="M425.4,390H79.6c-0.9,0-1.7-0.7-1.7-1.7V116.7c0-0.9,0.7-1.7,1.7-1.7h345.9c0.9,0,1.7,0.7,1.7,1.7  v271.7C427.1,389.2,426.4,390,425.4,390z"/>
<rect x="98.1" y="158.9" style="fill:#FFFFFF;" width="308.7" height="213.4"/>
<rect x="98.1" y="158.9" style="fill:#4CDBC4;" width="308.7" height="37.7"/>
<g>
	<path style="fill:#E6E9EE;" d="M396.3,145.6L396.3,145.6c5.9,0,10.6-4.8,10.6-10.6l0,0c0-5.9-4.8-10.6-10.6-10.6l0,0   c-5.9,0-10.6,4.8-10.6,10.6l0,0C385.6,140.8,390.4,145.6,396.3,145.6z"/>
	<path style="fill:#E6E9EE;" d="M368.1,145.6L368.1,145.6c5.9,0,10.6-4.8,10.6-10.6l0,0c0-5.9-4.8-10.6-10.6-10.6l0,0   c-5.9,0-10.6,4.8-10.6,10.6l0,0C357.5,140.8,362.2,145.6,368.1,145.6z"/>
	<path style="fill:#E6E9EE;" d="M340,145.6L340,145.6c5.9,0,10.6-4.8,10.6-10.6l0,0c0-5.9-4.8-10.6-10.6-10.6l0,0   c-5.9,0-10.6,4.8-10.6,10.6l0,0C329.4,140.8,334.1,145.6,340,145.6z"/>
</g>
<path style="fill:#FFFFFF;" d="M298.8,188.3h-181c-5.8,0-10.6-4.7-10.6-10.6l0,0c0-5.8,4.7-10.6,10.6-10.6h181  c5.8,0,10.6,4.7,10.6,10.6l0,0C309.4,183.6,304.7,188.3,298.8,188.3z"/>
<g>
	<path style="fill:#324A5E;" d="M209.6,262c-0.8-0.8-1.2-1.8-1.2-3s0.4-2.2,1.2-3s1.8-1.2,3-1.2s2.2,0.4,3,1.2   c0.8,0.8,1.2,1.8,1.2,3s-0.4,2.2-1.2,3s-1.8,1.2-3,1.2S210.4,262.8,209.6,262z"/>
	<path style="fill:#324A5E;" d="M234.9,256.9c2.4,0,4.5-1.2,6.4-3.6l4.2,4.7c-3.3,3.4-6.8,5.1-10.7,5.1c-3.8,0-7-1.2-9.7-3.6   c-2.6-2.4-4-5.6-4-9.5s1.3-7.1,4-9.5s5.8-3.7,9.5-3.7c1.8,0,3.7,0.4,5.6,1.1c1.9,0.8,3.5,1.9,4.9,3.4l-3.7,4.8   c-0.8-1-1.8-1.7-3-2.3c-1.2-0.5-2.4-0.8-3.5-0.8c-1.9,0-3.5,0.6-4.8,1.8s-2,2.9-2,5.1c0,2.2,0.7,3.8,2,5   C231.6,256.3,233.1,256.9,234.9,256.9z"/>
	<path style="fill:#324A5E;" d="M275.3,250.1c0,3.7-1.3,6.8-3.8,9.3c-2.6,2.5-5.8,3.8-9.6,3.8s-7.1-1.3-9.6-3.8   c-2.6-2.5-3.8-5.6-3.8-9.3s1.3-6.8,3.8-9.4c2.6-2.5,5.8-3.8,9.6-3.8s7.1,1.3,9.6,3.8C274,243.3,275.3,246.4,275.3,250.1z    M255.5,250.1c0,2.1,0.6,3.8,1.8,5.1c1.2,1.3,2.7,2,4.5,2s3.4-0.7,4.5-2c1.2-1.3,1.8-3,1.8-5.1s-0.6-3.8-1.8-5.1   c-1.2-1.3-2.7-2-4.5-2s-3.4,0.7-4.5,2C256.1,246.3,255.5,248,255.5,250.1z"/>
	<path style="fill:#324A5E;" d="M304,249.1v13.7h-7.1v-13.9c0-2-0.3-3.5-0.9-4.4s-1.6-1.4-3-1.4s-2.6,0.5-3.6,1.5   c-1.1,1-1.6,2.5-1.6,4.5v13.7h-7.1v-25.5h7.1v2.9c2-2.2,4.2-3.3,6.7-3.3c1.6,0,3.1,0.5,4.4,1.4s2.3,2.1,3,3.5c1-1.5,2.3-2.7,4-3.6   c1.7-0.9,3.3-1.3,5-1.3c3,0,5.4,0.9,7.2,2.7c1.8,1.8,2.7,4.4,2.7,7.7v15.5h-7.3v-13.9c0-3.9-1.4-5.9-4.3-5.9   c-1.4,0-2.7,0.5-3.7,1.5C304.5,245.6,304,247.1,304,249.1z"/>
	<path style="fill:#324A5E;" d="M209.6,318.8c-0.8-0.8-1.2-1.8-1.2-3s0.4-2.2,1.2-3s1.8-1.2,3-1.2s2.2,0.4,3,1.2s1.2,1.8,1.2,3   s-0.4,2.2-1.2,3s-1.8,1.2-3,1.2S210.4,319.6,209.6,318.8z"/>
	<path style="fill:#324A5E;" d="M229.8,305.4v14.2h-7.1v-25.5h7.1v2.8c2.1-2.2,4.6-3.3,7.2-3.3c2.7,0,4.9,0.9,6.7,2.8   s2.7,4.4,2.7,7.6v15.5h-7.1v-14.4c0-3.9-1.4-5.9-4.3-5.9c-1.4,0-2.7,0.5-3.7,1.5C230.3,301.9,229.8,303.4,229.8,305.4z"/>
	<path style="fill:#324A5E;" d="M275,315.9c-2.9,2.7-6.2,4.1-10.1,4.1s-7.1-1.2-9.6-3.6s-3.8-5.6-3.8-9.6s1.3-7.2,3.9-9.6   s5.6-3.6,9.1-3.6s6.5,1.1,8.9,3.2s3.7,5,3.7,8.7v3.8h-18.6c0.2,1.4,0.9,2.5,2.2,3.4c1.2,0.9,2.6,1.3,4.2,1.3c2.5,0,4.5-0.8,6.2-2.5   L275,315.9z M268.2,300.8c-1-0.8-2.2-1.2-3.6-1.2s-2.7,0.4-3.9,1.3c-1.2,0.9-1.8,2-2,3.5h11.2C269.8,302.8,269.2,301.6,268.2,300.8   z"/>
	<path style="fill:#324A5E;" d="M290.4,299.3v11.4c0,1,0.3,1.7,0.8,2.3c0.5,0.6,1.1,0.8,1.8,0.8c1.3,0,2.4-0.6,3.4-1.8l2.7,5   c-2.2,2-4.5,3-7,3c-2.4,0-4.5-0.8-6.2-2.4s-2.5-3.8-2.5-6.6v-11.7h-3v-5.1h3v-7.7h7.1v7.6h6.2v5.1h-6.3V299.3z"/>
</g>
<rect x="157.3" y="233.9" style="fill:#54C0EB;" width="33.6" height="33.6"/>
<rect x="157.3" y="293.7" style="fill:#FFD05B;" width="33.6" height="33.6"/>
<g>
</g>
<g>
</g>
<g>
</g>
<g>
</g>
<g>
</g>
<g>
</g>
<g>
</g>
<g>
</g>
<g>
</g>
<g>
</g>
<g>
</g>
<g>
</g>
<g>
</g>
<g>
</g>
<g>
</g>
</svg>
