<?xml version="1.0" encoding="iso-8859-1"?>
<!-- Generator: Adobe Illustrator 19.0.0, SVG Export Plug-In . SVG Version: 6.00 Build 0)  -->
<svg xmlns="http://www.w3.org/2000/svg" xmlns:xlink="http://www.w3.org/1999/xlink" version="1.1" id="Layer_1" x="0px" y="0px" viewBox="0 0 505 505" style="enable-background:new 0 0 505 505;" xml:space="preserve">
<circle style="fill:#FD8469;" cx="252.5" cy="252.5" r="252.5"/>
<path style="fill:#FFFFFF;" d="M360.6,102.9H170.8v299.2h189.8c1.1,0,2-0.9,2-2V104.9C362.6,103.8,361.7,102.9,360.6,102.9z"/>
<path style="fill:#324A5E;" d="M174.1,102.9h-38c-7,0-12.6,5.7-12.6,12.6v274c0,7,5.7,12.6,12.6,12.6h38V102.9z"/>
<polygon style="fill:#FFD05B;" points="229.3,102.9 206.3,102.9 206.3,226.7 229.3,203.7 252.4,226.7 252.4,102.9 "/>
<circle style="fill:#54C0EB;" cx="321" cy="313" r="60.5"/>
<path style="fill:#FFFFFF;" d="M309.4,339.9c-2,0-4-0.8-5.6-2.3L289,322.8c-3.1-3.1-3.1-8.1,0-11.2s8.1-3.1,11.2,0l9.3,9.3  l32.4-32.4c3.1-3.1,8.1-3.1,11.2,0s3.1,8.1,0,11.2l-38,38C313.4,339.1,311.4,339.9,309.4,339.9z"/>
<g>
</g>
<g>
</g>
<g>
</g>
<g>
</g>
<g>
</g>
<g>
</g>
<g>
</g>
<g>
</g>
<g>
</g>
<g>
</g>
<g>
</g>
<g>
</g>
<g>
</g>
<g>
</g>
<g>
</g>
</svg>
