<?xml version="1.0" encoding="iso-8859-1"?>
<!-- Generator: Adobe Illustrator 19.0.0, SVG Export Plug-In . SVG Version: 6.00 Build 0)  -->
<svg xmlns="http://www.w3.org/2000/svg" xmlns:xlink="http://www.w3.org/1999/xlink" version="1.1" id="Layer_1" x="0px" y="0px" viewBox="0 0 505 505" style="enable-background:new 0 0 505 505;" xml:space="preserve">
<circle style="fill:#84DBFF;" cx="252.5" cy="252.5" r="252.5"/>
<path style="fill:#FFFFFF;" d="M252.5,437.7c-49.5,0-96-19.3-131-54.2c-72.2-72.2-72.2-189.7,0-261.9c35-35,81.5-54.2,131-54.2  s96,19.3,131,54.2c72.2,72.2,72.2,189.7,0,261.9C348.5,418.4,302,437.7,252.5,437.7z M252.5,83.1c-45.3,0-87.8,17.6-119.8,49.6  s-49.6,74.5-49.6,119.8s17.6,87.8,49.6,119.8s74.5,49.6,119.8,49.6s87.8-17.6,119.8-49.6s49.6-74.5,49.6-119.8  s-17.6-87.8-49.6-119.8S297.8,83.1,252.5,83.1z"/>
<g>
	<path style="fill:#324A5E;" d="M400.9,353.7L400.9,353.7c-13-13-34.2-13-47.2,0l0,0c-13,13-13,34.2,0,47.2l0,0   c13,13,34.2,13,47.2,0l0,0C414,387.9,414,366.7,400.9,353.7z"/>
	<path style="fill:#324A5E;" d="M151.3,104.1L151.3,104.1c-13-13-34.2-13-47.2,0l0,0c-13,13-13,34.2,0,47.2l0,0   c13,13,34.2,13,47.2,0l0,0C164.3,138.3,164.3,117.1,151.3,104.1z"/>
	<path style="fill:#324A5E;" d="M151.3,400.9L151.3,400.9c13-13,13-34.2,0-47.2l0,0c-13-13-34.2-13-47.2,0l0,0   c-13,13-13,34.2,0,47.2l0,0C117.1,414,138.3,414,151.3,400.9z"/>
	<path style="fill:#324A5E;" d="M400.9,151.3L400.9,151.3c13-13,13-34.2,0-47.2l0,0c-13-13-34.2-13-47.2,0l0,0   c-13,13-13,34.2,0,47.2l0,0C366.7,164.3,387.9,164.3,400.9,151.3z"/>
</g>
<circle style="fill:#FFFFFF;" cx="252.5" cy="252.5" r="85.1"/>
<g>
</g>
<g>
</g>
<g>
</g>
<g>
</g>
<g>
</g>
<g>
</g>
<g>
</g>
<g>
</g>
<g>
</g>
<g>
</g>
<g>
</g>
<g>
</g>
<g>
</g>
<g>
</g>
<g>
</g>
</svg>
