<?xml version="1.0" encoding="iso-8859-1"?>
<!-- Generator: Adobe Illustrator 19.0.0, SVG Export Plug-In . SVG Version: 6.00 Build 0)  -->
<svg xmlns="http://www.w3.org/2000/svg" xmlns:xlink="http://www.w3.org/1999/xlink" version="1.1" id="Layer_1" x="0px" y="0px" viewBox="0 0 505 505" style="enable-background:new 0 0 505 505;" xml:space="preserve">
<circle style="fill:#FFD05B;" cx="252.5" cy="252.5" r="252.5"/>
<path style="fill:#FFFFFF;" d="M388.1,122.5H116.9c-11.7,0-21.1,9.5-21.1,21.1v170.6c0,11.7,9.5,21.1,21.1,21.1h12.5v47.2l59.9-47.1  h198.9c11.7,0,21.1-9.5,21.1-21.1V143.6C409.3,132,399.8,122.5,388.1,122.5z"/>
<path style="fill:#4CDBC4;" d="M224.2,170v106.9c0,3.4,4,5.3,6.6,3.1l63.8-53.5c1.9-1.6,1.9-4.5,0-6.2l-63.8-53.5  C228.2,164.7,224.2,166.6,224.2,170z"/>
<g>
</g>
<g>
</g>
<g>
</g>
<g>
</g>
<g>
</g>
<g>
</g>
<g>
</g>
<g>
</g>
<g>
</g>
<g>
</g>
<g>
</g>
<g>
</g>
<g>
</g>
<g>
</g>
<g>
</g>
</svg>
