<?xml version="1.0" encoding="iso-8859-1"?>
<!-- Generator: Adobe Illustrator 19.0.0, SVG Export Plug-In . SVG Version: 6.00 Build 0)  -->
<svg xmlns="http://www.w3.org/2000/svg" xmlns:xlink="http://www.w3.org/1999/xlink" version="1.1" id="Layer_1" x="0px" y="0px" viewBox="0 0 505 505" style="enable-background:new 0 0 505 505;" xml:space="preserve">
<circle style="fill:#84DBFF;" cx="252.5" cy="252.5" r="252.5"/>
<path style="fill:#324A5E;" d="M363.7,442.5H141.3c-3.9,0-7-3.1-7-7V69.6c0-3.9,3.1-7,7-7h222.5c3.9,0,7,3.1,7,7v365.9  C370.8,439.3,367.6,442.5,363.7,442.5z"/>
<rect x="146.7" y="98.7" style="fill:#FFFFFF;" width="211.7" height="300.2"/>
<g>
	<circle style="fill:#2B3B4E;" cx="328.4" cy="81.3" r="8.5"/>
	<circle style="fill:#2B3B4E;" cx="252.5" cy="419.2" r="13.3"/>
	<path style="fill:#2B3B4E;" d="M293.2,85.8h-59.8c-2.5,0-4.4-2-4.4-4.4l0,0c0-2.5,2-4.4,4.4-4.4h59.8c2.5,0,4.4,2,4.4,4.4l0,0   C297.6,83.8,295.6,85.8,293.2,85.8z"/>
	<path style="fill:#2B3B4E;" d="M217.2,85.8h-5.3c-2.5,0-4.4-2-4.4-4.4l0,0c0-2.5,2-4.4,4.4-4.4h5.3c2.5,0,4.4,2,4.4,4.4l0,0   C221.6,83.8,219.6,85.8,217.2,85.8z"/>
</g>
<circle style="fill:#54C0EB;" cx="252.5" cy="252.5" r="85.6"/>
<g>
	<path style="fill:#E6E9EE;" d="M338.1,252.5c0,6.5-0.7,12.9-2.1,19c-2.6-2.8-2.6-7.1-3.1-10.9c-0.8-5-3.6-10.4-8.5-11.6   c-2-0.5-4.1-0.2-5.9-1c-2.1-0.9-3.5-3-5.3-4.5c-1.8-1.4-4.9-2-6.1,0c0.7,5.9,12.5,4.7,12.9,10.6c0.1,2-1.3,3.8-3.2,4.7   c-1.8,0.8-3.9,0.9-5.9,0.9c-3.8,0-8.3-0.5-10.4-3.7c-2.3-3.4-1.7-9.3-5.7-10.3c-2.6,3.1-0.5,7.6,1.5,11c1.1,1.8,2.3,3.7,3.4,5.5   c0.4,0.7,0.9,1.4,1.6,1.7c0.7,0.3,1.5,0.1,2.3,0c3.1-0.7,7.2-0.8,8.3,2.1c0.8,2.1-0.7,4.5-2.6,5.9c-1.8,1.4-4,2.5-5.2,4.5   c-1.7,2.8-0.8,6.4-1,9.7c-0.2,4.1-2,7.9-3.8,11.5c-1.8,3.7-3.6,7.4-5.4,11.1c-1.2,2.4-2.4,4.9-4.5,6.4c-2.2,1.5-5.5,1.7-7.2-0.2   c-0.6-0.7-0.9-1.6-1.2-2.4c-0.9-2.3-1.8-4.6-2.6-6.9c-2.5-6.4-4.9-13.5-2.5-19.8c0.5-1.2,1.1-2.6,0.7-3.8c-0.4-1.1-1.6-1.7-2.3-2.7   c-1.5-2.2-0.2-5.5-1.7-7.6c-1.3-1.8-4-1.9-6.2-1.2c-2.2,0.7-4.2,1.9-6.4,2.1c-3.9,0.3-7.4-2.6-9.2-6c-3.1-5.9-2.5-13.3,0.7-19.1   c3.3-5.8,8.9-10,15.1-12.4c2-0.8,4.8-1.2,6.1,0.5c0.5,0.7,0.7,1.7,1.1,2.5c0.7,1.3,2.1,2.2,3.4,2.8c6.5,3.1,14.7,2.6,20.8-1.4   c-1.6-2.6-4.5-4.4-7.5-4.7c-1.5-2.4,1.8-5.1,4.7-5.4c2.8-0.2,6.2,0.2,8-2.1c0.3-0.4,0.5-0.9,0.5-1.4c0-1.1-1.1-1.9-2.2-2.3   c-5.6-2-12.6,2.1-13.6,8c-1.6,0.7-3.5-0.4-4.5-1.8c-1.1-1.4-1.7-3.1-3-4.3s-3.7-1.5-4.6,0c1.7,1.6,3.2,3.5,4.2,5.6   c-3.3,0.2-4.8-5.3-8.1-4.9c-3.4,0.4-2.9,6.1-5.9,7.8c-0.9,0.5-1.9,0.6-2.9,0.6c-2.1,0.1-4.3,0.2-6.3-0.6c-1.9-0.8-3.6-2.8-3.2-4.9   c0.6-3.4,5.2-4,8.7-3.7c-0.6-3.6,0.9-7.4,3.7-9.6c3.8-2.9,9.1-2.6,13.9-3.6c5.4-1.1,10.3-4.1,13.8-8.3c-1.4-0.6-2.9,0.4-4.3,1.1   c-1.4,0.7-3.5,0.9-4.1-0.5c0.9-2.5,1.8-5,2.8-7.5c-0.7,0.1-1.5,0.1-2.2,0.2c-2.7,1.7-4.6,4.7-5.1,7.8c-0.2,1.5-0.2,3.1-1,4.4   c-0.8,1.3-3,1.8-3.8,0.5c-0.4-0.7-0.2-1.5-0.6-2.2c-0.8-1.2-2.7-0.5-4-0.9c-2.7-0.8-1.9-5.1,0.2-6.9c2.2-1.8,5.2-2.8,6.4-5.3   c0.9-2,0.7-4.7,2.6-5.8c0.9-0.5,1.9-0.5,2.9-0.5c4.4,0.1,8.8,0.2,13.2,0.3c1.5,0,3.1,0.1,4.3,1c1.2,0.9,1.7,2.9,0.5,3.8   c-1.5,1.2-4.1-0.2-5.4,1.1c-1,1.1,0,3.1,1.4,3.4c1.5,0.4,2.9-0.3,4.2-1.2c1.2-0.9,2.3-1.9,3.7-2.4c1-0.4,2.2-0.4,3.2-0.5   c1.7-0.3,3.2-1.1,4.4-2.3C328.4,207.2,338.1,228.7,338.1,252.5z"/>
	<path style="fill:#E6E9EE;" d="M242.2,178.8c-0.6,2.3,1.2,5.4,3.6,4.8c-3.6,1.3-7.5,1.7-11.2,1.1c2.3,1.8,4.5,3.6,6.8,5.4   c-2,1.4-4.5,1.8-6.7,2.7s-4.4,2.8-4.3,5.3c0.1,1.2,0.6,2.5,0,3.5c-0.4,0.6-1.2,0.9-2,1.1c-2.5,0.7-5.1,1.3-7.6,0.9   c-2.6-0.4-5-2.1-5.7-4.6c-0.6-2.1,0.2-4.4,0.7-6.5c0.5-2.2,0.4-4.8-1.4-6.1c-0.9-0.7-2.1-0.9-3.2-1.2c-2.4-0.6-4.7-1.9-6.1-3.9   c13.1-8.7,28.7-13.9,45.6-14.3c-1,2.3-2.5,4.3-4.1,6.1C244.9,174.8,242.8,176.5,242.2,178.8z"/>
	<path style="fill:#E6E9EE;" d="M211.2,219.1c-2,0.6-4-0.1-6.1,0.1c-2.6,0.2-5,2.1-6,4.5c1.8,0.3,3.6,0.6,5.3,0.9   c-3.9,1.9-7.7,3.8-11.5,5.8c-0.4,0.1-0.7,0.3-0.9,0.6c-1.4,1.8,3.2,4.4,1.6,6.1c-0.4,0.4-0.9,0.5-1.4,0.7c-2.8,1.3-2.4,5.4-1.5,8.4   c-2,0.8-4.2,0.1-6.1-0.8c-1.9-0.9-3.8-2.1-5.9-2.2c-2.1-0.2-4.5,1.1-4.8,3.2c-0.1,1.6,0.9,2.9,1.8,4.2c1.6,2,3.4,4.2,5.9,4.9   c1.8,0.5,3.8,0.2,5.6,1c1.7,0.7,2.9,3.3,1.5,4.4c-3.1,2.5-7.5,2.6-11.2,1.2c-3.7-1.3-6.8-3.9-9.8-6.5l-0.9-0.7   c-0.1-0.8-0.1-1.6-0.1-2.5c0-16.2,4.5-31.3,12.3-44.2c1.5,1.6,2.9,3.6,5,3.9c0.9,0.2,2,0,2.8,0.5c1.1,0.7,1.2,2.1,1.8,3.2   c0.5,1.1,2.3,1.9,2.9,0.8c0.1-3.1,0.3-6.2,0.4-9.3c0.1-2.1,0.4-4.5,2.2-5.5c1.5-0.9,3.5-0.4,4.7,0.9c1.2,1.2,1.7,3,1.9,4.7   c1.6-0.2,3.2-0.5,4.7-0.2c1.5,0.4,3,1.4,3.3,3c0.2,1,0,2.2,0.7,2.9c0.8,0.9,2.3,0.6,3.3,1.3C214.6,215.8,213.2,218.6,211.2,219.1z"/>
	<path style="fill:#E6E9EE;" d="M231.7,286.7c-0.9,2.2-2.7,3.9-3.3,6.2c-0.7,2.7,0,5.9-1.9,7.9c-1.6,1.6-4.4,1.5-5.7,3.3   c-0.8,1.1-0.7,2.7-1.3,3.9c-0.5,1.2-1.5,2.1-2.5,3c-1.7,1.5-3.4,3-5.2,4.5c-1.6,1.4-3.3,2.8-5,4c-0.9,0.6-1.9,1.2-2.4,2.2   c-0.2,0.4-0.3,0.9-0.3,1.4c-2.2-1.5-4.3-3-6.3-4.7c0.5-4.4-0.3-9.3,0.1-13.7c0.2-2,0.7-3.9,0.5-5.9s-1.1-4-2.9-4.9   c-1-0.5-2.3-0.5-3.2-1.1c-1.1-0.8-1.4-2.4-1.6-3.8c-0.7-7.2-0.2-14.6,1.6-21.6c0.2-0.8,0.5-1.7,1.1-2.2c0.6-0.6,1.4-0.9,2.2-1.1   c4.4-1.1,9.2-1.4,13.3,0.6c4.1,1.9,7.2,6.5,6.3,10.9c-0.3,1.5-0.6,3.8,1,4c0.7,0.1,1.4-0.5,2-0.9c1.9-1.3,4.6-1.2,6.4,0.2   c0.7,0.6,1.3,1.4,2.3,1.7c0.9,0.3,1.8,0,2.7,0.2C232.1,281.4,232.6,284.5,231.7,286.7z"/>
</g>
<g>
</g>
<g>
</g>
<g>
</g>
<g>
</g>
<g>
</g>
<g>
</g>
<g>
</g>
<g>
</g>
<g>
</g>
<g>
</g>
<g>
</g>
<g>
</g>
<g>
</g>
<g>
</g>
<g>
</g>
</svg>
