<?xml version="1.0" encoding="iso-8859-1"?>
<!-- Generator: Adobe Illustrator 19.0.0, SVG Export Plug-In . SVG Version: 6.00 Build 0)  -->
<svg xmlns="http://www.w3.org/2000/svg" xmlns:xlink="http://www.w3.org/1999/xlink" version="1.1" id="Layer_1" x="0px" y="0px" viewBox="0 0 505 505" style="enable-background:new 0 0 505 505;" xml:space="preserve">
<circle style="fill:#324A5E;" cx="252.5" cy="252.5" r="252.5"/>
<path style="fill:#FFFFFF;" d="M118.7,126.4v292.5c0,1.3,1,2.3,2.3,2.3h263c1.3,0,2.3-1,2.3-2.3V126.4H118.7z"/>
<path style="fill:#FF7058;" d="M386.3,129.1V98.3c0-8.1-6.5-14.6-14.6-14.6H133.3c-8.1,0-14.6,6.5-14.6,14.6v30.8H386.3z"/>
<g>
	<circle style="fill:#FFFFFF;" cx="350.1" cy="106.4" r="9.6"/>
	<circle style="fill:#FFFFFF;" cx="309.9" cy="106.4" r="9.6"/>
	<circle style="fill:#FFFFFF;" cx="269.7" cy="106.4" r="9.6"/>
</g>
<g>
	<rect x="139.9" y="166.3" style="fill:#E6E9EE;" width="116.3" height="9.1"/>
	<rect x="139.9" y="187.9" style="fill:#E6E9EE;" width="116.3" height="9.1"/>
	<rect x="139.9" y="209.5" style="fill:#E6E9EE;" width="68.2" height="9.1"/>
</g>
<path style="fill:#84DBFF;" d="M268.8,246.6l21.5,21.5L252.4,306l-9.2-9.2c-2.1-2.1-5.5-2.1-7.6,0l-20.3,20.3l-8.3-8.3  c-2.1-2.1-5.5-2.1-7.6,0l-29.8,29.7l-14.1-14.1c-2.1-2.1-5.5-2.1-7.6,0l-29.2,29.2v15.1l33-33l14.1,14.1c2.1,2.1,5.5,2.1,7.6,0  l29.8-29.8l8.3,8.3c2.1,2.1,5.5,2.1,7.6,0l20.3-20.3l9.2,9.2c2.1,2.1,5.5,2.1,7.6,0l41.7-41.7l22.2,22.2l6.2-57.4L268.8,246.6z"/>
<g>
</g>
<g>
</g>
<g>
</g>
<g>
</g>
<g>
</g>
<g>
</g>
<g>
</g>
<g>
</g>
<g>
</g>
<g>
</g>
<g>
</g>
<g>
</g>
<g>
</g>
<g>
</g>
<g>
</g>
</svg>
