<?xml version="1.0" encoding="iso-8859-1"?>
<!-- Generator: Adobe Illustrator 19.0.0, SVG Export Plug-In . SVG Version: 6.00 Build 0)  -->
<svg xmlns="http://www.w3.org/2000/svg" xmlns:xlink="http://www.w3.org/1999/xlink" version="1.1" id="Layer_1" x="0px" y="0px" viewBox="0 0 505 505" style="enable-background:new 0 0 505 505;" xml:space="preserve">
<circle style="fill:#90DFAA;" cx="252.5" cy="252.5" r="252.5"/>
<path style="fill:#FFFFFF;" d="M128.4,89.6h223.8c9.3,0,16.9,7.6,16.9,16.9v292c0,9.3-7.6,16.9-16.9,16.9H177.4v-65.9h-65.9v-243  C111.5,97.2,119.1,89.6,128.4,89.6z"/>
<polygon style="fill:#324A5E;" points="177.4,415.4 111.5,349.5 177.4,349.5 "/>
<g>
	<rect x="135.6" y="137.7" style="fill:#E6E9EE;" width="209.4" height="12.6"/>
	<rect x="135.6" y="166.5" style="fill:#E6E9EE;" width="209.4" height="12.6"/>
	<rect x="135.6" y="195.2" style="fill:#E6E9EE;" width="118.5" height="12.6"/>
</g>
<path style="fill:#54C0EB;" d="M349.6,216.9l-97.3,97.3l41.8,41.8l97.3-97.3c2.8-2.8,2.8-7.3,0-10.1l-31.7-31.7  C356.9,214.1,352.4,214.1,349.6,216.9z"/>
<path style="fill:#FF7058;" d="M372.9,277.1l18.4-18.4c2.8-2.8,2.8-7.3,0-10.1l-31.7-31.7c-2.8-2.8-7.3-2.8-10.1,0l-18.4,18.4  L372.9,277.1z"/>
<rect x="345.628" y="226.031" transform="matrix(-0.7071 0.7071 -0.7071 -0.7071 782.7816 186.9224)" style="fill:#E6E9EE;" width="14.1" height="59.099"/>
<polygon style="fill:#FFD05B;" points="252.3,314.2 240.3,367.9 294.1,355.9 "/>
<polygon style="fill:#324A5E;" points="245.1,346.2 240.3,367.9 262,363.1 "/>
<g>
</g>
<g>
</g>
<g>
</g>
<g>
</g>
<g>
</g>
<g>
</g>
<g>
</g>
<g>
</g>
<g>
</g>
<g>
</g>
<g>
</g>
<g>
</g>
<g>
</g>
<g>
</g>
<g>
</g>
</svg>
