<?xml version="1.0" encoding="iso-8859-1"?>
<!-- Generator: Adobe Illustrator 19.0.0, SVG Export Plug-In . SVG Version: 6.00 Build 0)  -->
<svg xmlns="http://www.w3.org/2000/svg" xmlns:xlink="http://www.w3.org/1999/xlink" version="1.1" id="Layer_1" x="0px" y="0px" viewBox="0 0 505 505" style="enable-background:new 0 0 505 505;" xml:space="preserve">
<circle style="fill:#FD8469;" cx="252.5" cy="252.5" r="252.5"/>
<path style="fill:#FFFFFF;" d="M140.6,89.6h223.8c9.3,0,16.9,7.6,16.9,16.9v292c0,9.3-7.6,16.9-16.9,16.9H189.6v-65.9h-65.9v-243  C123.7,97.2,131.3,89.6,140.6,89.6z"/>
<polygon style="fill:#ACB3BA;" points="189.6,415.4 123.7,349.5 189.6,349.5 "/>
<g>
	<path style="fill:#4CDBC4;" d="M240.5,170.8c0,25.6-20.8,46.4-46.4,46.4s-46.4-20.8-46.4-46.4s20.8-46.4,46.4-46.4v46.4   L240.5,170.8L240.5,170.8z"/>
	<path style="fill:#4CDBC4;" d="M247.5,163.9h-46.4v-46.4C226.7,117.5,247.5,138.3,247.5,163.9z"/>
</g>
<g>
	<rect x="147.8" y="247.5" style="fill:#E6E9EE;" width="209.4" height="12.6"/>
	<rect x="147.8" y="276.2" style="fill:#E6E9EE;" width="209.4" height="12.6"/>
	<rect x="147.8" y="304.9" style="fill:#E6E9EE;" width="118.5" height="12.6"/>
</g>
<g>
</g>
<g>
</g>
<g>
</g>
<g>
</g>
<g>
</g>
<g>
</g>
<g>
</g>
<g>
</g>
<g>
</g>
<g>
</g>
<g>
</g>
<g>
</g>
<g>
</g>
<g>
</g>
<g>
</g>
</svg>
