<?xml version="1.0" encoding="iso-8859-1"?>
<!-- Generator: Adobe Illustrator 19.0.0, SVG Export Plug-In . SVG Version: 6.00 Build 0)  -->
<svg xmlns="http://www.w3.org/2000/svg" xmlns:xlink="http://www.w3.org/1999/xlink" version="1.1" id="Layer_1" x="0px" y="0px" viewBox="0 0 505 505" style="enable-background:new 0 0 505 505;" xml:space="preserve">
<circle style="fill:#84DBFF;" cx="252.5" cy="252.5" r="252.5"/>
<path style="fill:#FFFFFF;" d="M363.7,442.5H141.3c-3.9,0-7-3.1-7-7V69.6c0-3.9,3.1-7,7-7h222.5c3.9,0,7,3.1,7,7v365.9  C370.8,439.3,367.6,442.5,363.7,442.5z"/>
<rect x="146.7" y="98.7" style="fill:#54C0EB;" width="211.7" height="300.2"/>
<g>
	<circle style="fill:#E6E9EE;" cx="328.4" cy="81.3" r="8.5"/>
	<circle style="fill:#E6E9EE;" cx="252.5" cy="419.2" r="13.3"/>
	<path style="fill:#E6E9EE;" d="M293.2,85.8h-59.8c-2.5,0-4.4-2-4.4-4.4l0,0c0-2.5,2-4.4,4.4-4.4h59.8c2.5,0,4.4,2,4.4,4.4l0,0   C297.6,83.8,295.6,85.8,293.2,85.8z"/>
	<path style="fill:#E6E9EE;" d="M217.2,85.8h-5.3c-2.5,0-4.4-2-4.4-4.4l0,0c0-2.5,2-4.4,4.4-4.4h5.3c2.5,0,4.4,2,4.4,4.4l0,0   C221.6,83.8,219.6,85.8,217.2,85.8z"/>
	<path style="fill:#E6E9EE;" d="M283.4,284.8c1.8,3.8,2.9,7.8,4.1,11.9c1.4,4.8,2.7,9.5,4.1,14.3c2.3,8.1,4.6,17,1.4,24.8   c-1.8,4.5-5.3,8.1-8.9,11.4c-3.9,3.6-8.1,7-12.5,10c-3.8,2.7-7.9,5.2-12.3,6.5c-4.8,1.4-9.9,1.4-15,1.3c-3.3-0.1-6.6-0.2-9.5-1.6   c-2.4-1.2-4.3-3.2-5.8-5.5c-5.6-8.3-5.7-18.9-5.7-28.9c0-15.3,0.1-30.6,0.1-45.9c0-2.8,0-5.7,0.8-8.4c2.3-8.3,10.8-13.5,19.3-15.1   c3.4-0.6,6.9-0.8,10.3-0.1c3.1,0.7,6.1,2.2,8.8,3.8C271.3,268.4,279.1,275.6,283.4,284.8z"/>
</g>
<path style="fill:#F9B54C;" d="M252.5,211.6c-11.6,0-21.1,22.8-21.1,37.6c0,8.7,3.2,16.3,8.3,21.2c0.6-0.1,1.6-0.2,1.8-0.2  c1,0,2,0.1,2.9,0.4s1.9,0.6,2.7,1.1c0.2,0.1,0.7,0.4,1.1,0.7c0.2,0.1,0.4,0.2,0.6,0.3c0.6,0.3,1.1,0.6,1.7,1  c0.4,0.3,0.9,0.6,1.3,0.9c0.3,0.1,0.5,0.3,0.7,0.5h0.1c0.5-0.5,1.4-1,2-1.3c0.4-0.2,0.8-0.4,1.2-0.6c0.5-0.3,0.9-0.4,1.2-0.5  c0.2-0.4,2.7-1.3,2.9-1.3c1.5-0.5,2.9-0.4,4.5-0.1c0.1,0,0.1,0,0.2,0c5.5-4.8,9.2-12.9,9.2-22C273.6,234.4,264.1,211.6,252.5,211.6z  "/>
<path style="fill:#324A5E;" d="M191.6,398.9c0.6-13.4-0.1-25.9-3.7-32.3l8.6-52.6l-21.2-34.2c0,0-15.1,24.6-18.5,119.1H191.6z"/>
<path style="fill:#2B3B4E;" d="M187.9,366.6c0,0,5.5,14.1,6.5,32.3h63.7c0-13.7-0.8-25.8-3-32.3c-7.6-22.1-25.9-65.5-25.9-65.5  l-4.6-29.3l0.3-7.2c0,0-42.9,7.5-49.6,15.2C175.3,279.8,192.1,320.8,187.9,366.6z"/>
<path style="fill:#324A5E;" d="M229.6,252.8c0,0,14.8,95.3,25.5,113.8c0,0-31-18.1-43.1-76.4l9.1-3.1l-13.3-11  C207.8,276,214.7,261.1,229.6,252.8z"/>
<path style="fill:#FFFFFF;" d="M252.5,275.1c0,0-15.2-10.4-22.2,9.1c0,0-3.4-33.1,1.5-39.2C231.8,245,236.8,261.9,252.5,275.1z"/>
<path style="fill:#2B3B4E;" d="M313.4,398.9h34.7c-3.4-94.5-18.5-119.1-18.5-119.1L308.5,314l8.6,52.6  C313.5,373,312.8,385.6,313.4,398.9z"/>
<path style="fill:#324A5E;" d="M310.6,398.9c1-18.2,6.5-32.3,6.5-32.3c-4.2-45.8,12.6-86.8,12.6-86.8c-6.6-7.7-49.6-15.2-49.6-15.2  l0.3,7.2l-4.6,29.3c0,0-18.3,43.5-25.9,65.5c-2.3,6.5-3,18.6-3,32.3L310.6,398.9L310.6,398.9z"/>
<path style="fill:#2B3B4E;" d="M275.4,252.8c0,0-14.8,95.3-25.5,113.8c0,0,31-18.1,43.1-76.4l-9.1-3.1l13.3-11  C297.2,276,290.3,261.1,275.4,252.8z"/>
<path style="fill:#FFFFFF;" d="M252.5,275.1c0,0,15.2-10.4,22.2,9.1c0,0,3.4-33.1-1.5-39.2C273.2,245,268.2,261.9,252.5,275.1z"/>
<circle style="fill:#2B3B4E;" cx="259.8" cy="382.9" r="5.5"/>
<g>
	<path style="fill:#F9B54C;" d="M294.3,203.6c-2.9,7-9.9,14.5-14.2,13.2c-4.3-1.3-4.4-10.8-1.5-17.8s7.6-9,12-7.7   C294.8,192.5,297.1,196.5,294.3,203.6z"/>
	<path style="fill:#F9B54C;" d="M210.7,203.6c2.9,7,9.9,14.5,14.2,13.2s4.4-10.8,1.5-17.8s-7.6-9-12-7.7   C210.2,192.5,207.9,196.5,210.7,203.6z"/>
</g>
<g>
	<ellipse style="fill:#FFD05B;" cx="252.5" cy="203.9" rx="33.9" ry="44"/>
	<path style="fill:#FFD05B;" d="M270,190.5l-6.5-26.5c0,0,8.6-10.3,11-9.9c2.3,0.4,15.4,14.2,15.4,14.2V188v8.2l-3.6,7.3l-14.1-6.2   L270,190.5z"/>
	<polygon style="fill:#FFD05B;" points="244.5,167 223.2,163 216,170.1 214.8,185.7 218.9,202.9 246.2,195.5  "/>
</g>
<path style="fill:#324A5E;" d="M247,141.4c0,0,10.9-18.2,31.2,0c0,0-5.6-0.9-8.3,0c0,0,33.9,2.3,25.1,41.3c0,0,0.3,10.7-8.8,20.7  c0,0,10.5-44.7-17.1-33.9c0,0-18,10.1-30.9-0.4c0,0-24.8-7.1-19.3,33.7c0,0-28.8-51.7,3.1-58.3c0,0,8.3-18,38.7-13.3  C260.6,131.3,249.9,131.3,247,141.4z"/>
<g>
</g>
<g>
</g>
<g>
</g>
<g>
</g>
<g>
</g>
<g>
</g>
<g>
</g>
<g>
</g>
<g>
</g>
<g>
</g>
<g>
</g>
<g>
</g>
<g>
</g>
<g>
</g>
<g>
</g>
</svg>
