<?xml version="1.0" encoding="iso-8859-1"?>
<!-- Generator: Adobe Illustrator 19.0.0, SVG Export Plug-In . SVG Version: 6.00 Build 0)  -->
<svg xmlns="http://www.w3.org/2000/svg" xmlns:xlink="http://www.w3.org/1999/xlink" version="1.1" id="Layer_1" x="0px" y="0px" viewBox="0 0 505 505" style="enable-background:new 0 0 505 505;" xml:space="preserve">
<circle style="fill:#FFD05B;" cx="252.5" cy="252.5" r="252.5"/>
<path style="fill:#2B3B4E;" d="M350.9,314.6c-3.2-10.7-8.1-20.7-14.3-29.4c-57.9-81.5-59.3-142.1-59.3-142.1h-24.8h-24.8  c0,0-1.4,60.6-59.3,142.1c-6.2,8.7-11.1,18.7-14.3,29.4c-3.7,12.4-7.2,30-6.9,52.2h105.3h105.3C358.1,344.6,354.6,327,350.9,314.6z"/>
<g>
	<circle style="fill:#324A5E;" cx="252.5" cy="119.7" r="49.4"/>
	<path style="fill:#324A5E;" d="M380.9,407H124.1v-36.2c0-2.2,1.8-4.1,4.1-4.1h248.6c2.2,0,4.1,1.8,4.1,4.1V407z"/>
	<path style="fill:#324A5E;" d="M293.2,198.5h-81.4c-3.5,0-6.1-2.7-5.9-6.1l0.1-1.4c0.2-3.3,3.1-6,6.5-6h80c3.4,0,6.3,2.7,6.5,6   l0.1,1.4C299.3,195.8,296.6,198.5,293.2,198.5z"/>
	<path style="fill:#324A5E;" d="M358,324.1H147c-4.9,0-8.3-3.8-7.7-8.4l0.1-0.5c0.6-4.5,5-8.2,9.8-8.2H356c4.8,0,9.2,3.7,9.8,8.2   l0.1,0.5C366.4,320.3,362.9,324.1,358,324.1z"/>
</g>
<g>
</g>
<g>
</g>
<g>
</g>
<g>
</g>
<g>
</g>
<g>
</g>
<g>
</g>
<g>
</g>
<g>
</g>
<g>
</g>
<g>
</g>
<g>
</g>
<g>
</g>
<g>
</g>
<g>
</g>
</svg>
