<?xml version="1.0" encoding="iso-8859-1"?>
<!-- Generator: Adobe Illustrator 19.0.0, SVG Export Plug-In . SVG Version: 6.00 Build 0)  -->
<svg xmlns="http://www.w3.org/2000/svg" xmlns:xlink="http://www.w3.org/1999/xlink" version="1.1" id="Layer_1" x="0px" y="0px" viewBox="0 0 505 505" style="enable-background:new 0 0 505 505;" xml:space="preserve">
<circle style="fill:#FD8469;" cx="252.5" cy="252.5" r="252.5"/>
<path style="fill:#FFFFFF;" d="M362.2,415.9H142.8c-16.7,0-29.7-14.4-27.9-31l24.7-235.3h225.7L390,384.9  C391.8,401.5,378.8,415.9,362.2,415.9z"/>
<path style="fill:#324A5E;" d="M319.6,199.3H305v-58.9c0-28.9-23.5-52.5-52.5-52.5S200,111.4,200,140.4v58h-14.6v-58  c0-37,30.1-67.1,67.1-67.1s67.1,30.1,67.1,67.1V199.3z"/>
<g>
	<circle style="fill:#84DBFF;" cx="312.3" cy="199.3" r="19.8"/>
	<circle style="fill:#84DBFF;" cx="192.7" cy="199.3" r="19.8"/>
</g>
<path style="fill:#4CDBC4;" d="M252.6,370.9v-10.4c-12.9-1.3-24.6-6.5-34.9-15.4l10.3-12.3c7.9,6.9,16.1,11,24.5,12.3v-27.5  c-10.7-2.6-18.5-5.9-23.4-10.1c-5-4.2-7.4-10.3-7.4-18.5s2.9-14.9,8.6-20c5.7-5.2,13.2-8,22.3-8.5v-7.1h9.1v7.2  c10.4,0.8,20.2,4.3,29.5,10.6l-9.2,13c-6.2-4.4-13-7.2-20.3-8.2v26.6h0.4c10.9,2.6,18.8,6,23.9,10.3s7.6,10.6,7.6,18.9  s-2.9,15-8.8,20.2s-13.6,8-23.2,8.5v10.2h-9V370.9z M242.6,279.4c-2.4,2.1-3.6,4.8-3.6,7.9c0,3.2,0.9,5.7,2.8,7.5  c1.9,1.8,5.5,3.6,10.8,5.3v-24.5C248.4,276,245.1,277.3,242.6,279.4z M272.5,341.5c2.6-2.2,4-4.9,4-8.2c0-3.3-1-5.9-3.1-7.9  c-2.1-1.9-6-3.8-11.6-5.5v25.6C266.2,345,269.8,343.7,272.5,341.5z"/>
<g>
</g>
<g>
</g>
<g>
</g>
<g>
</g>
<g>
</g>
<g>
</g>
<g>
</g>
<g>
</g>
<g>
</g>
<g>
</g>
<g>
</g>
<g>
</g>
<g>
</g>
<g>
</g>
<g>
</g>
</svg>
