<?xml version="1.0" encoding="iso-8859-1"?>
<!-- Generator: Adobe Illustrator 19.0.0, SVG Export Plug-In . SVG Version: 6.00 Build 0)  -->
<svg xmlns="http://www.w3.org/2000/svg" xmlns:xlink="http://www.w3.org/1999/xlink" version="1.1" id="Layer_1" x="0px" y="0px" viewBox="0 0 505 505" style="enable-background:new 0 0 505 505;" xml:space="preserve">
<circle style="fill:#90DFAA;" cx="252.5" cy="252.5" r="252.5"/>
<rect x="111.6" y="153.9" style="fill:#324A5E;" width="281.8" height="184"/>
<g>
	<path style="fill:#FFFFFF;" d="M421.5,194.5h-338c-2.1,0-3.8-1.7-3.8-3.8v-65.8c0-2.1,1.7-3.8,3.8-3.8h338c2.1,0,3.8,1.7,3.8,3.8   v65.8C425.2,192.8,423.6,194.5,421.5,194.5z"/>
	<path style="fill:#FFFFFF;" d="M421.5,289.2h-338c-2.1,0-3.8-1.7-3.8-3.8v-65.8c0-2.1,1.7-3.8,3.8-3.8h338c2.1,0,3.8,1.7,3.8,3.8   v65.8C425.2,287.5,423.6,289.2,421.5,289.2z"/>
	<path style="fill:#FFFFFF;" d="M421.5,383.9h-338c-2.1,0-3.8-1.7-3.8-3.8v-65.8c0-2.1,1.7-3.8,3.8-3.8h338c2.1,0,3.8,1.7,3.8,3.8   v65.8C425.2,382.2,423.6,383.9,421.5,383.9z"/>
</g>
<path style="fill:#FF7058;" d="M127.7,169h-23.1c-0.8,0-1.5-0.7-1.5-1.5v-23.1c0-0.8,0.7-1.5,1.5-1.5h23.1c0.8,0,1.5,0.7,1.5,1.5  v23.1C129.2,168.4,128.5,169,127.7,169z"/>
<path style="fill:#FFD05B;" d="M169.6,169h-23.1c-0.8,0-1.5-0.7-1.5-1.5v-23.1c0-0.8,0.7-1.5,1.5-1.5h23.1c0.8,0,1.5,0.7,1.5,1.5  v23.1C171.1,168.4,170.5,169,169.6,169z"/>
<path style="fill:#84DBFF;" d="M211.6,169h-23.1c-0.8,0-1.5-0.7-1.5-1.5v-23.1c0-0.8,0.7-1.5,1.5-1.5h23.1c0.8,0,1.5,0.7,1.5,1.5  v23.1C213,168.4,212.4,169,211.6,169z"/>
<path style="fill:#FF7058;" d="M127.7,265.5h-23.1c-0.8,0-1.5-0.7-1.5-1.5v-23.1c0-0.8,0.7-1.5,1.5-1.5h23.1c0.8,0,1.5,0.7,1.5,1.5  V264C129.2,264.9,128.5,265.5,127.7,265.5z"/>
<path style="fill:#FFD05B;" d="M169.6,265.5h-23.1c-0.8,0-1.5-0.7-1.5-1.5v-23.1c0-0.8,0.7-1.5,1.5-1.5h23.1c0.8,0,1.5,0.7,1.5,1.5  V264C171.1,264.9,170.5,265.5,169.6,265.5z"/>
<path style="fill:#84DBFF;" d="M211.6,265.5h-23.1c-0.8,0-1.5-0.7-1.5-1.5v-23.1c0-0.8,0.7-1.5,1.5-1.5h23.1c0.8,0,1.5,0.7,1.5,1.5  V264C213,264.9,212.4,265.5,211.6,265.5z"/>
<path style="fill:#FF7058;" d="M127.7,362.1h-23.1c-0.8,0-1.5-0.7-1.5-1.5v-23.1c0-0.8,0.7-1.5,1.5-1.5h23.1c0.8,0,1.5,0.7,1.5,1.5  v23.1C129.2,361.4,128.5,362.1,127.7,362.1z"/>
<path style="fill:#FFD05B;" d="M169.6,362.1h-23.1c-0.8,0-1.5-0.7-1.5-1.5v-23.1c0-0.8,0.7-1.5,1.5-1.5h23.1c0.8,0,1.5,0.7,1.5,1.5  v23.1C171.1,361.4,170.5,362.1,169.6,362.1z"/>
<path style="fill:#84DBFF;" d="M211.6,362.1h-23.1c-0.8,0-1.5-0.7-1.5-1.5v-23.1c0-0.8,0.7-1.5,1.5-1.5h23.1c0.8,0,1.5,0.7,1.5,1.5  v23.1C213,361.4,212.4,362.1,211.6,362.1z"/>
<g>
	<path style="fill:#E6E9EE;" d="M399.4,180.4h-17c-0.3,0-0.5-0.2-0.5-0.5v-44.2c0-0.3,0.2-0.5,0.5-0.5h17c0.3,0,0.5,0.2,0.5,0.5   v44.2C400,180.2,399.7,180.4,399.4,180.4z"/>
	<path style="fill:#E6E9EE;" d="M372.8,180.4h-17c-0.3,0-0.5-0.2-0.5-0.5v-44.2c0-0.3,0.2-0.5,0.5-0.5h17c0.3,0,0.5,0.2,0.5,0.5   v44.2C373.3,180.2,373.1,180.4,372.8,180.4z"/>
	<path style="fill:#E6E9EE;" d="M346.1,180.4h-17c-0.3,0-0.5-0.2-0.5-0.5v-44.2c0-0.3,0.2-0.5,0.5-0.5h17c0.3,0,0.5,0.2,0.5,0.5   v44.2C346.6,180.2,346.4,180.4,346.1,180.4z"/>
	<path style="fill:#E6E9EE;" d="M399.4,275.1h-17c-0.3,0-0.5-0.2-0.5-0.5v-44.2c0-0.3,0.2-0.5,0.5-0.5h17c0.3,0,0.5,0.2,0.5,0.5   v44.2C400,274.9,399.7,275.1,399.4,275.1z"/>
	<path style="fill:#E6E9EE;" d="M372.8,275.1h-17c-0.3,0-0.5-0.2-0.5-0.5v-44.2c0-0.3,0.2-0.5,0.5-0.5h17c0.3,0,0.5,0.2,0.5,0.5   v44.2C373.3,274.9,373.1,275.1,372.8,275.1z"/>
	<path style="fill:#E6E9EE;" d="M346.1,275.1h-17c-0.3,0-0.5-0.2-0.5-0.5v-44.2c0-0.3,0.2-0.5,0.5-0.5h17c0.3,0,0.5,0.2,0.5,0.5   v44.2C346.6,274.9,346.4,275.1,346.1,275.1z"/>
	<path style="fill:#E6E9EE;" d="M399.4,369.9h-17c-0.3,0-0.5-0.2-0.5-0.5v-44.2c0-0.3,0.2-0.5,0.5-0.5h17c0.3,0,0.5,0.2,0.5,0.5   v44.2C400,369.6,399.7,369.9,399.4,369.9z"/>
	<path style="fill:#E6E9EE;" d="M372.8,369.9h-17c-0.3,0-0.5-0.2-0.5-0.5v-44.2c0-0.3,0.2-0.5,0.5-0.5h17c0.3,0,0.5,0.2,0.5,0.5   v44.2C373.3,369.6,373.1,369.9,372.8,369.9z"/>
	<path style="fill:#E6E9EE;" d="M346.1,369.9h-17c-0.3,0-0.5-0.2-0.5-0.5v-44.2c0-0.3,0.2-0.5,0.5-0.5h17c0.3,0,0.5,0.2,0.5,0.5   v44.2C346.6,369.6,346.4,369.9,346.1,369.9z"/>
</g>
<g>
</g>
<g>
</g>
<g>
</g>
<g>
</g>
<g>
</g>
<g>
</g>
<g>
</g>
<g>
</g>
<g>
</g>
<g>
</g>
<g>
</g>
<g>
</g>
<g>
</g>
<g>
</g>
<g>
</g>
</svg>
