<?xml version="1.0" encoding="iso-8859-1"?>
<!-- Generator: Adobe Illustrator 19.0.0, SVG Export Plug-In . SVG Version: 6.00 Build 0)  -->
<svg xmlns="http://www.w3.org/2000/svg" xmlns:xlink="http://www.w3.org/1999/xlink" version="1.1" id="Layer_1" x="0px" y="0px" viewBox="0 0 505 505" style="enable-background:new 0 0 505 505;" xml:space="preserve">
<circle style="fill:#FFD05B;" cx="252.5" cy="252.5" r="252.5"/>
<path style="fill:#F9B54C;" d="M53.4,407.7C99.6,466.9,171.6,505,252.5,505s152.9-38.1,199.1-97.3H53.4z"/>
<path style="fill:#FFFFFF;" d="M317.6,396.6c-3.3-33-31.2-58.8-65.1-58.8s-61.7,25.8-65.1,58.8H317.6z"/>
<g>
	<path style="fill:#E6E9EE;" d="M304.8,364.1c-11.9-15.9-30.9-26.2-52.3-26.2s-40.4,10.3-52.3,26.2H304.8z"/>
	<path style="fill:#E6E9EE;" d="M320.7,408.6H184.3c-5.3,0-9.6-4.3-9.6-9.6l0,0c0-5.3,4.3-9.6,9.6-9.6h136.4c5.3,0,9.6,4.3,9.6,9.6   l0,0C330.3,404.3,326,408.6,320.7,408.6z"/>
</g>
<path style="fill:#FFFFFF;" d="M417.8,351.1H87.2c-2.2,0-4-1.8-4-4V111.7c0-2.2,1.8-4,4-4h330.6c2.2,0,4,1.8,4,4V347  C421.8,349.3,420,351.1,417.8,351.1z"/>
<rect x="102.9" y="127.4" style="fill:#324A5E;" width="299.2" height="188.2"/>
<circle style="fill:#FF7058;" cx="395.4" cy="331.1" r="6.7"/>
<g>
	<circle style="fill:#E6E9EE;" cx="373" cy="331.1" r="6.7"/>
	<circle style="fill:#E6E9EE;" cx="350.6" cy="331.1" r="6.7"/>
</g>
<path style="fill:#FFFFFF;" d="M355.8,217.6H149.2c-0.7,0-1.2-0.6-1.2-1.2v-40.7c0-0.7,0.6-1.2,1.2-1.2h206.5c0.7,0,1.2,0.6,1.2,1.2  v40.7C357,217,356.5,217.6,355.8,217.6z"/>
<g>
	<path style="fill:#84DBFF;" d="M352.1,174.4h-44.3v43.2h44.3c2.7,0,4.9-2.2,4.9-4.9v-33.3C357,176.6,354.8,174.4,352.1,174.4z"/>
	<path style="fill:#84DBFF;" d="M164.5,189.5c-0.4,0.4-0.7,0.8-0.7,1.4c0,0.6,0.3,1.1,0.8,1.4c0.5,0.4,1.8,0.8,3.7,1.3   c2,0.5,3.5,1.2,4.6,2.2s1.6,2.4,1.6,4.2s-0.7,3.3-2.1,4.5c-1.4,1.1-3.2,1.7-5.5,1.7c-3.3,0-6.2-1.2-8.8-3.6l2.7-3.4   c2.2,1.9,4.3,2.9,6.2,2.9c0.8,0,1.5-0.2,2-0.5c0.5-0.4,0.7-0.9,0.7-1.5s-0.3-1.1-0.8-1.5s-1.5-0.7-3-1.1c-2.4-0.6-4.1-1.3-5.3-2.2   c-1.1-0.9-1.7-2.3-1.7-4.3s0.7-3.5,2.1-4.5c1.4-1.1,3.2-1.6,5.3-1.6c1.4,0,2.7,0.2,4.1,0.7c1.4,0.5,2.6,1.1,3.6,2l-2.3,3.4   c-1.8-1.4-3.6-2-5.5-2C165.5,188.9,164.9,189.1,164.5,189.5z"/>
	<path style="fill:#84DBFF;" d="M193.3,185.4v4.1H183v4.2h9.2v3.9H183v4.3h10.6v4.1h-15.1v-20.6H193.3z"/>
	<path style="fill:#84DBFF;" d="M212.4,206l-1.9-4.5h-8.6l-1.9,4.4h-4.9l8.9-20.6h4.4l8.9,20.6h-4.9V206z M206.2,191.5l-2.6,6h5.2   L206.2,191.5z"/>
	<path style="fill:#84DBFF;" d="M236.4,192.2c0,3.3-1.3,5.4-3.9,6.4l5.2,7.4H232l-4.6-6.6h-3.2v6.6h-4.6v-20.6h7.8   c3.2,0,5.5,0.5,6.9,1.6C235.7,188.1,236.4,189.8,236.4,192.2z M230.8,194.6c0.6-0.5,0.9-1.3,0.9-2.4c0-1.1-0.3-1.9-0.9-2.3   c-0.6-0.4-1.6-0.6-3.1-0.6h-3.4v6.1h3.4C229.2,195.4,230.3,195.2,230.8,194.6z"/>
	<path style="fill:#84DBFF;" d="M250.6,201.9c2.3,0,4.1-0.9,5.5-2.7l2.9,3c-2.3,2.6-5.1,3.9-8.3,3.9s-5.8-1-7.8-3   c-2.1-2-3.1-4.5-3.1-7.6s1-5.6,3.1-7.6s4.6-3.1,7.7-3.1c3.4,0,6.2,1.3,8.5,3.9l-2.9,3.2c-1.5-1.8-3.3-2.7-5.4-2.7   c-1.7,0-3.2,0.6-4.4,1.7c-1.2,1.1-1.8,2.7-1.8,4.6c0,1.9,0.6,3.5,1.7,4.6C247.5,201.3,248.9,201.9,250.6,201.9z"/>
	<path style="fill:#84DBFF;" d="M275.5,185.4h4.6V206h-4.6v-8.1h-8.2v8.1h-4.6v-20.6h4.6v8.6h8.2V185.4z"/>
</g>
<path style="fill:#FFFFFF;" d="M337,184c-4.6-4.6-12.1-4.6-16.6,0c-4.6,4.6-4.6,12.1,0,16.6c4.1,4.1,10.5,4.5,15.1,1.3l9,9  c0.8,0.8,2,0.8,2.8,0s0.8-2,0-2.8l-9-9C341.6,194.5,341.1,188.1,337,184z M334.2,197.8c-3,3-8,3-11,0s-3-8,0-11s8-3,11,0  C337.2,189.9,337.2,194.8,334.2,197.8z"/>
<g>
</g>
<g>
</g>
<g>
</g>
<g>
</g>
<g>
</g>
<g>
</g>
<g>
</g>
<g>
</g>
<g>
</g>
<g>
</g>
<g>
</g>
<g>
</g>
<g>
</g>
<g>
</g>
<g>
</g>
</svg>
