<?xml version="1.0" encoding="iso-8859-1"?>
<!-- Generator: Adobe Illustrator 19.0.0, SVG Export Plug-In . SVG Version: 6.00 Build 0)  -->
<svg xmlns="http://www.w3.org/2000/svg" xmlns:xlink="http://www.w3.org/1999/xlink" version="1.1" id="Layer_1" x="0px" y="0px" viewBox="0 0 505 505" style="enable-background:new 0 0 505 505;" xml:space="preserve">
<circle style="fill:#FD8469;" cx="252.5" cy="252.5" r="252.5"/>
<path style="fill:#324A5E;" d="M345.3,216.2h-34.5v-70c0-32.2-26.2-58.4-58.4-58.4S194,114,194,146.2v70h-34.5v-70  c0-51.2,41.6-92.8,92.8-92.8s92.8,41.6,92.8,92.8v70H345.3z"/>
<rect x="118.4" y="238.8" style="fill:#E6E9EE;" width="268.1" height="133.3"/>
<g>
	<path style="fill:#FFFFFF;" d="M386.6,239.4v-23c0-7.2-5.8-13-13-13H131.4c-7.2,0-13,5.8-13,13v23H386.6z"/>
	<path style="fill:#FFFFFF;" d="M118.4,371.2v23c0,7.2,5.8,13,13,13h242.2c7.2,0,13-5.8,13-13v-23H118.4z"/>
</g>
<g>
</g>
<g>
</g>
<g>
</g>
<g>
</g>
<g>
</g>
<g>
</g>
<g>
</g>
<g>
</g>
<g>
</g>
<g>
</g>
<g>
</g>
<g>
</g>
<g>
</g>
<g>
</g>
<g>
</g>
</svg>
