<?xml version="1.0" encoding="iso-8859-1"?>
<!-- Generator: Adobe Illustrator 19.0.0, SVG Export Plug-In . SVG Version: 6.00 Build 0)  -->
<svg xmlns="http://www.w3.org/2000/svg" xmlns:xlink="http://www.w3.org/1999/xlink" version="1.1" id="Layer_1" x="0px" y="0px" viewBox="0 0 505 505" style="enable-background:new 0 0 505 505;" xml:space="preserve">
<circle style="fill:#90DFAA;" cx="252.5" cy="252.5" r="252.5"/>
<path style="fill:#324A5E;" d="M368.9,113.6H136.1c-6.9,0-12.6-5.6-12.6-12.6l0,0c0-6.9,5.6-12.6,12.6-12.6h232.8  c6.9,0,12.6,5.6,12.6,12.6l0,0C381.5,108,375.8,113.6,368.9,113.6z"/>
<path style="fill:#FFFFFF;" d="M144.7,113.5c-6.4,13-10,27.5-10,42.6c0,58.4,117.8,105.8,117.8,105.8s117.8-47.4,117.8-105.8  c0-15.2-3.6-29.6-10-42.6L144.7,113.5L144.7,113.5z"/>
<path style="fill:#FF7058;" d="M168.4,174.6c15.4,24.1,55.9,48.1,84.1,61.2c28.2-13.1,68.7-37.2,84.1-61.2H168.4z"/>
<path style="fill:#324A5E;" d="M136.1,391.4h232.8c6.9,0,12.6,5.6,12.6,12.6l0,0c0,6.9-5.6,12.6-12.6,12.6H136.1  c-6.9,0-12.6-5.6-12.6-12.6l0,0C123.5,397,129.2,391.4,136.1,391.4z"/>
<path style="fill:#FFFFFF;" d="M360.3,391.5c6.4-13,10-27.5,10-42.6c0-58.4-117.8-105.8-117.8-105.8s-117.8,47.4-117.8,105.8  c0,15.2,3.6,29.6,10,42.6H360.3z"/>
<path style="fill:#FF7058;" d="M173.1,325.3c-6.8,8.3-11,16.8-11,24.9c0,6.6,0.8,13.1,2.5,19.4h175.8c1.7-6.3,2.5-12.8,2.5-19.4  c0-8.1-4.2-16.6-11-24.9H173.1z"/>
<g>
</g>
<g>
</g>
<g>
</g>
<g>
</g>
<g>
</g>
<g>
</g>
<g>
</g>
<g>
</g>
<g>
</g>
<g>
</g>
<g>
</g>
<g>
</g>
<g>
</g>
<g>
</g>
<g>
</g>
</svg>
