<?xml version="1.0" encoding="iso-8859-1"?>
<!-- Generator: Adobe Illustrator 19.0.0, SVG Export Plug-In . SVG Version: 6.00 Build 0)  -->
<svg xmlns="http://www.w3.org/2000/svg" xmlns:xlink="http://www.w3.org/1999/xlink" version="1.1" id="Layer_1" x="0px" y="0px" viewBox="0 0 505 505" style="enable-background:new 0 0 505 505;" xml:space="preserve">
<circle style="fill:#84DBFF;" cx="252.5" cy="252.5" r="252.5"/>
<path style="fill:#FFFFFF;" d="M368.6,163.3c0.3-2.4,0.6-4.8,0.6-7.3c0-27.7-22.4-50.1-50.1-50.1c-7.8,0-15.1,1.8-21.7,5  c-13.9-22.5-38.8-37.4-67.2-37.4c-43.7,0-79.1,35.4-79.1,79.1c0,3.7,0.3,7.3,0.8,10.8c-33.6,9.1-58.2,39.8-58.2,76.3  c0,43.7,35.4,79.1,79.1,79.1h175.4c43.7,0,79.1-35.4,79.1-79.1C427.2,203.1,402.3,172.3,368.6,163.3z"/>
<polygon style="fill:#324A5E;" points="262.2,277.9 200.7,216.4 139.1,277.9 172.3,277.9 172.3,370.3 229,370.3 229,277.9 "/>
<polygon style="fill:#FF7058;" points="258.6,370 320.1,431.5 381.7,370 348.5,370 348.5,277.6 291.8,277.6 291.8,370 "/>
<g>
</g>
<g>
</g>
<g>
</g>
<g>
</g>
<g>
</g>
<g>
</g>
<g>
</g>
<g>
</g>
<g>
</g>
<g>
</g>
<g>
</g>
<g>
</g>
<g>
</g>
<g>
</g>
<g>
</g>
</svg>
