<?xml version="1.0" encoding="iso-8859-1"?>
<!-- Generator: Adobe Illustrator 19.0.0, SVG Export Plug-In . SVG Version: 6.00 Build 0)  -->
<svg xmlns="http://www.w3.org/2000/svg" xmlns:xlink="http://www.w3.org/1999/xlink" version="1.1" id="Layer_1" x="0px" y="0px" viewBox="0 0 505 505" style="enable-background:new 0 0 505 505;" xml:space="preserve">
<circle style="fill:#90DFAA;" cx="252.5" cy="252.5" r="252.5"/>
<path style="fill:#324A5E;" d="M363.7,442.5H141.3c-3.9,0-7-3.1-7-7V69.6c0-3.9,3.1-7,7-7h222.5c3.9,0,7,3.1,7,7v365.9  C370.8,439.3,367.6,442.5,363.7,442.5z"/>
<rect x="146.7" y="98.7" style="fill:#FFFFFF;" width="211.7" height="300.2"/>
<g>
	<circle style="fill:#2B3B4E;" cx="328.4" cy="81.3" r="8.5"/>
	<circle style="fill:#2B3B4E;" cx="252.5" cy="419.2" r="13.3"/>
	<path style="fill:#2B3B4E;" d="M293.2,85.8h-59.8c-2.5,0-4.4-2-4.4-4.4l0,0c0-2.5,2-4.4,4.4-4.4h59.8c2.5,0,4.4,2,4.4,4.4l0,0   C297.6,83.8,295.6,85.8,293.2,85.8z"/>
	<path style="fill:#2B3B4E;" d="M217.2,85.8h-5.3c-2.5,0-4.4-2-4.4-4.4l0,0c0-2.5,2-4.4,4.4-4.4h5.3c2.5,0,4.4,2,4.4,4.4l0,0   C221.6,83.8,219.6,85.8,217.2,85.8z"/>
</g>
<circle style="fill:#54C0EB;" cx="252.5" cy="257.1" r="78.9"/>
<g>
	<path style="fill:#FFFFFF;" d="M313.5,232.3c-33.7-33.7-88.4-33.7-122.1,0c-2.4,2.4-2.4,6.2,0,8.6c1.2,1.2,2.7,1.8,4.3,1.8   s3.1-0.6,4.3-1.8c28.9-28.9,76-28.9,104.9,0c2.4,2.4,6.2,2.4,8.6,0C315.9,238.5,315.9,234.6,313.5,232.3z"/>
	<path style="fill:#FFFFFF;" d="M208.4,249.2c-2.4,2.4-2.4,6.2,0,8.6s6.2,2.4,8.6,0c19.6-19.6,51.4-19.6,71,0   c1.2,1.2,2.7,1.8,4.3,1.8c1.6,0,3.1-0.6,4.3-1.8c2.4-2.4,2.4-6.2,0-8.6C272.3,224.9,232.7,224.9,208.4,249.2z"/>
	<path style="fill:#FFFFFF;" d="M226.3,267.1c-2.4,2.4-2.4,6.2,0,8.6c1.2,1.2,2.7,1.8,4.3,1.8s3.1-0.6,4.3-1.8   c9.7-9.7,25.6-9.7,35.3,0c2.4,2.4,6.2,2.4,8.6,0s2.4-6.2,0-8.6C264.3,252.6,240.7,252.6,226.3,267.1z"/>
	<circle style="fill:#FFFFFF;" cx="252.5" cy="293.3" r="13.9"/>
</g>
<g>
</g>
<g>
</g>
<g>
</g>
<g>
</g>
<g>
</g>
<g>
</g>
<g>
</g>
<g>
</g>
<g>
</g>
<g>
</g>
<g>
</g>
<g>
</g>
<g>
</g>
<g>
</g>
<g>
</g>
</svg>
