<?xml version="1.0" encoding="iso-8859-1"?>
<!-- Generator: Adobe Illustrator 19.0.0, SVG Export Plug-In . SVG Version: 6.00 Build 0)  -->
<svg xmlns="http://www.w3.org/2000/svg" xmlns:xlink="http://www.w3.org/1999/xlink" version="1.1" id="Layer_1" x="0px" y="0px" viewBox="0 0 505 505" style="enable-background:new 0 0 505 505;" xml:space="preserve">
<circle style="fill:#FFD05B;" cx="252.5" cy="252.5" r="252.5"/>
<path style="fill:#324A5E;" d="M421.1,386.6H83.9c-0.9,0-1.6-0.7-1.6-1.6V120.1c0-0.9,0.7-1.6,1.6-1.6h337.3c0.9,0,1.6,0.7,1.6,1.6  V385C422.8,385.8,422,386.6,421.1,386.6z"/>
<rect x="102" y="161.2" style="fill:#FFFFFF;" width="301.1" height="208.1"/>
<g>
	<path style="fill:#E6E9EE;" d="M394.4,149L394.4,149c4.7,0,8.6-3.8,8.6-8.6l0,0c0-4.7-3.8-8.6-8.6-8.6l0,0c-4.7,0-8.6,3.8-8.6,8.6   l0,0C385.9,145.2,389.7,149,394.4,149z"/>
	<path style="fill:#E6E9EE;" d="M365.9,149L365.9,149c4.7,0,8.6-3.8,8.6-8.6l0,0c0-4.7-3.8-8.6-8.6-8.6l0,0c-4.7,0-8.6,3.8-8.6,8.6   l0,0C357.3,145.2,361.2,149,365.9,149z"/>
	<path style="fill:#E6E9EE;" d="M337.3,149L337.3,149c4.7,0,8.6-3.8,8.6-8.6l0,0c0-4.7-3.8-8.6-8.6-8.6l0,0c-4.7,0-8.6,3.8-8.6,8.6   l0,0C328.8,145.2,332.6,149,337.3,149z"/>
	<rect x="245.2" y="197.3" style="fill:#E6E9EE;" width="14.7" height="29.4"/>
	<rect x="331.5" y="298.4" style="fill:#E6E9EE;" width="29.4" height="14.7"/>
	<rect x="144.1" y="298.4" style="fill:#E6E9EE;" width="29.4" height="14.7"/>
	
		<rect x="304.083" y="232.078" transform="matrix(0.7071 -0.7071 0.7071 0.7071 -75.9317 295.54)" style="fill:#E6E9EE;" width="29.4" height="14.7"/>
	
		<rect x="171.593" y="232.153" transform="matrix(0.7071 0.7071 -0.7071 0.7071 223.9183 -61.5802)" style="fill:#E6E9EE;" width="29.4" height="14.7"/>
</g>
<g>
	
		<rect x="201.926" y="211.76" transform="matrix(-0.3827 -0.9239 0.9239 -0.3827 97.0955 503.0977)" style="fill:#FF7058;" width="29.401" height="14.7"/>
	
		<rect x="324.383" y="262.476" transform="matrix(0.9239 -0.3827 0.3827 0.9239 -77.4479 150.304)" style="fill:#FF7058;" width="29.401" height="14.7"/>
	
		<rect x="273.651" y="211.746" transform="matrix(0.3827 -0.9239 0.9239 0.3827 -24.4152 401.6515)" style="fill:#FF7058;" width="29.401" height="14.7"/>
	
		<rect x="151.292" y="262.502" transform="matrix(0.9239 0.3827 -0.3827 0.9239 115.9058 -42.9816)" style="fill:#FF7058;" width="29.401" height="14.7"/>
</g>
<path style="fill:#4CDBC4;" d="M273.9,311.9c0,11.8-9.6,21.4-21.4,21.4s-21.4-9.6-21.4-21.4s21.4-69.1,21.4-69.1  S273.9,300.1,273.9,311.9z"/>
<circle style="fill:#FFFFFF;" cx="252.5" cy="313" r="12.5"/>
<g>
</g>
<g>
</g>
<g>
</g>
<g>
</g>
<g>
</g>
<g>
</g>
<g>
</g>
<g>
</g>
<g>
</g>
<g>
</g>
<g>
</g>
<g>
</g>
<g>
</g>
<g>
</g>
<g>
</g>
</svg>
