<?xml version="1.0" encoding="iso-8859-1"?>
<!-- Generator: Adobe Illustrator 19.0.0, SVG Export Plug-In . SVG Version: 6.00 Build 0)  -->
<svg xmlns="http://www.w3.org/2000/svg" xmlns:xlink="http://www.w3.org/1999/xlink" version="1.1" id="Layer_1" x="0px" y="0px" viewBox="0 0 505 505" style="enable-background:new 0 0 505 505;" xml:space="preserve">
<circle style="fill:#90DFAA;" cx="252.5" cy="252.5" r="252.5"/>
<polygon style="fill:#324A5E;" points="409.4,248.5 267.7,248.5 367.9,148.4 359,139.4 258.8,239.6 258.8,97.9 246.2,97.9   246.2,239.6 146,139.4 137.1,148.4 237.3,248.5 95.6,248.5 95.6,261.2 237.3,261.2 137.1,361.3 146,370.3 246.2,270.1 246.2,411.8   258.8,411.8 258.8,270.1 359,370.3 367.9,361.3 267.7,261.2 409.4,261.2 "/>
<g>
	<circle style="fill:#FFFFFF;" cx="252.5" cy="252.5" r="55.1"/>
	<circle style="fill:#FFFFFF;" cx="252.5" cy="97.9" r="36.3"/>
	<circle style="fill:#FFFFFF;" cx="252.5" cy="407.1" r="36.3"/>
	<circle style="fill:#FFFFFF;" cx="407.1" cy="252.5" r="36.3"/>
	<circle style="fill:#FFFFFF;" cx="97.9" cy="252.5" r="36.3"/>
	<circle style="fill:#FFFFFF;" cx="361.8" cy="143.2" r="36.3"/>
	<circle style="fill:#FFFFFF;" cx="143.2" cy="361.8" r="36.3"/>
	<circle style="fill:#FFFFFF;" cx="361.8" cy="361.8" r="36.3"/>
	<circle style="fill:#FFFFFF;" cx="143.2" cy="143.2" r="36.3"/>
</g>
<circle style="fill:#FF7058;" cx="252.5" cy="252.5" r="32.7"/>
<g>
</g>
<g>
</g>
<g>
</g>
<g>
</g>
<g>
</g>
<g>
</g>
<g>
</g>
<g>
</g>
<g>
</g>
<g>
</g>
<g>
</g>
<g>
</g>
<g>
</g>
<g>
</g>
<g>
</g>
</svg>
