<?xml version="1.0" encoding="iso-8859-1"?>
<!-- Generator: Adobe Illustrator 19.0.0, SVG Export Plug-In . SVG Version: 6.00 Build 0)  -->
<svg xmlns="http://www.w3.org/2000/svg" xmlns:xlink="http://www.w3.org/1999/xlink" version="1.1" id="Layer_1" x="0px" y="0px" viewBox="0 0 505 505" style="enable-background:new 0 0 505 505;" xml:space="preserve">
<circle style="fill:#84DBFF;" cx="252.5" cy="252.5" r="252.5"/>
<path style="fill:#54C0EB;" d="M42.1,392.1C87.3,460.1,164.7,505,252.5,505s165.2-44.9,210.4-112.9H42.1z"/>
<rect x="115.4" y="173.4" style="fill:#324A5E;" width="268.4" height="190.3"/>
<path style="fill:#FFFFFF;" d="M409.1,164.8L254.9,71.2c-1.5-0.9-3.3-0.9-4.8,0L95.9,164.8c-4,2.4-2.3,8.6,2.4,8.6h308.3  C411.3,173.4,413.1,167.2,409.1,164.8z"/>
<polygon style="fill:#E6E9EE;" points="152.3,153.7 252.5,92.9 352.7,153.7 "/>
<path style="fill:#FFFFFF;" d="M423.2,391.9H81.8v-26.1c0-1.1,0.9-2.1,2.1-2.1h337.3c1.1,0,2.1,0.9,2.1,2.1v26.1H423.2z"/>
<g>
	<path style="fill:#E6E9EE;" d="M406.4,363.7h-45.1v-13c0-0.6,0.5-1.1,1.1-1.1h43c0.6,0,1.1,0.5,1.1,1.1v13H406.4z"/>
	<path style="fill:#E6E9EE;" d="M397.5,187.5h-27.3c-0.6,0-1-0.4-1-1v-13.1h29.3v13.1C398.5,187,398.1,187.5,397.5,187.5z"/>
</g>
<polygon style="fill:#FFFFFF;" points="401.6,349.7 366.2,349.7 372.9,187.5 394.8,187.5 "/>
<g>
	<path style="fill:#E6E9EE;" d="M345.3,363.7h-45.1v-13c0-0.6,0.5-1.1,1.1-1.1h43c0.6,0,1.1,0.5,1.1,1.1v13H345.3z"/>
	<path style="fill:#E6E9EE;" d="M336.4,187.5h-27.3c-0.6,0-1-0.4-1-1v-13.1h29.3v13.1C337.4,187,336.9,187.5,336.4,187.5z"/>
</g>
<polygon style="fill:#FFFFFF;" points="340.5,349.7 305.1,349.7 311.8,187.5 333.7,187.5 "/>
<g>
	<path style="fill:#E6E9EE;" d="M204.8,363.7h-45.1v-13c0-0.6,0.5-1.1,1.1-1.1h43c0.6,0,1.1,0.5,1.1,1.1v13H204.8z"/>
	<path style="fill:#E6E9EE;" d="M195.9,187.5h-27.3c-0.6,0-1-0.4-1-1v-13.1h29.3v13.1C196.9,187,196.4,187.5,195.9,187.5z"/>
</g>
<polygon style="fill:#FFFFFF;" points="199.9,349.7 164.5,349.7 171.3,187.5 193.2,187.5 "/>
<g>
	<path style="fill:#E6E9EE;" d="M143.7,363.7H98.6v-13c0-0.6,0.5-1.1,1.1-1.1h43c0.6,0,1.1,0.5,1.1,1.1v13H143.7z"/>
	<path style="fill:#E6E9EE;" d="M134.7,187.5h-27.2c-0.6,0-1-0.4-1-1v-13.1h29.3v13.1C135.8,187,135.3,187.5,134.7,187.5z"/>
</g>
<polygon style="fill:#FFFFFF;" points="138.8,349.7 103.4,349.7 110.2,187.5 132.1,187.5 "/>
<rect x="222.9" y="296.5" style="fill:#FFD05B;" width="53.6" height="67.2"/>
<circle style="fill:#F9B54C;" cx="233.4" cy="330.1" r="4.5"/>
<rect x="194.3" y="377.8" style="fill:#CED5E0;" width="110.8" height="14.1"/>
<rect x="211.8" y="363.7" style="fill:#E6E9EE;" width="75.8" height="14.1"/>
<g>
</g>
<g>
</g>
<g>
</g>
<g>
</g>
<g>
</g>
<g>
</g>
<g>
</g>
<g>
</g>
<g>
</g>
<g>
</g>
<g>
</g>
<g>
</g>
<g>
</g>
<g>
</g>
<g>
</g>
</svg>
