<?xml version="1.0" encoding="iso-8859-1"?>
<!-- Generator: Adobe Illustrator 19.0.0, SVG Export Plug-In . SVG Version: 6.00 Build 0)  -->
<svg xmlns="http://www.w3.org/2000/svg" xmlns:xlink="http://www.w3.org/1999/xlink" version="1.1" id="Layer_1" x="0px" y="0px" viewBox="0 0 505 505" style="enable-background:new 0 0 505 505;" xml:space="preserve">
<circle style="fill:#FD8469;" cx="252.5" cy="252.5" r="252.5"/>
<g>
	<path style="fill:#FFFFFF;" d="M436.4,285.7l-19.4-3.6c1.9-10.2,2.9-20.5,2.9-30.7c0-92.3-75.1-167.3-167.3-167.3   S85.2,159.2,85.2,251.5c0,10.1,1,20.4,2.9,30.7l-19.4,3.6c-2.1-11.4-3.2-22.9-3.2-34.2c0-103.1,83.9-187.1,187.1-187.1   s187,83.8,187,187C439.6,262.8,438.5,274.3,436.4,285.7z"/>
	<path style="fill:#FFFFFF;" d="M436.4,217.1l-19.4,3.6c1.9,10.2,2.9,20.5,2.9,30.7c0,69.5-42.6,129.2-103.1,154.5v21.2   c71.6-26.3,122.8-95.1,122.8-175.7C439.6,240,438.5,228.5,436.4,217.1z"/>
	<polygon style="fill:#FFFFFF;" points="436.4,285.7 373.5,274.1 373.5,209.9 425.7,204.3  "/>
	<polygon style="fill:#FFFFFF;" points="68.4,285.7 131.3,274.1 131.3,209.9 79.1,204.3  "/>
</g>
<circle style="fill:#FFD05B;" cx="252.5" cy="251.5" r="135.3"/>
<g>
	<circle style="fill:#FFFFFF;" cx="298.5" cy="266.6" r="21"/>
	<circle style="fill:#FFFFFF;" cx="204.9" cy="266.6" r="21"/>
</g>
<g>
	<path style="fill:#324A5E;" d="M279.3,118.9c-73.2-14.8-144.6,32.5-159.4,105.8c-4.2,20.6-3.4,41.1,1.5,60.3   c55.8-4.8,122.6-57.7,135.3-106.4c0,0,31.8,92.7,128.4,100v-0.2C399.9,205.1,352.6,133.7,279.3,118.9z"/>
	<path style="fill:#324A5E;" d="M214.4,315c6.1,15,20.9,25.6,38.1,25.6s32-10.6,38.1-25.6H214.4z"/>
	<circle style="fill:#324A5E;" cx="318.1" cy="413.8" r="27.6"/>
</g>
<g>
</g>
<g>
</g>
<g>
</g>
<g>
</g>
<g>
</g>
<g>
</g>
<g>
</g>
<g>
</g>
<g>
</g>
<g>
</g>
<g>
</g>
<g>
</g>
<g>
</g>
<g>
</g>
<g>
</g>
</svg>
