<?xml version="1.0" encoding="iso-8859-1"?>
<!-- Generator: Adobe Illustrator 19.0.0, SVG Export Plug-In . SVG Version: 6.00 Build 0)  -->
<svg xmlns="http://www.w3.org/2000/svg" xmlns:xlink="http://www.w3.org/1999/xlink" version="1.1" id="Layer_1" x="0px" y="0px" viewBox="0 0 505 505" style="enable-background:new 0 0 505 505;" xml:space="preserve">
<circle style="fill:#84DBFF;" cx="252.5" cy="252.5" r="252.5"/>
<path style="fill:#54C0EB;" d="M67.2,423.9c46.1,49.8,112.1,81.1,185.3,81.1s139.2-31.2,185.3-81.1H67.2z"/>
<g>
	<path style="fill:#324A5E;" d="M374.8,400.3h-53.7c-2,0-3.4,1.9-3,3.8l4.5,18.4c0.3,1.4,1.6,2.3,3,2.3h44.6c1.4,0,2.6-1,3-2.3   l4.5-18.4C378.3,402.1,376.8,400.3,374.8,400.3z"/>
	<path style="fill:#324A5E;" d="M183.9,400.3h-53.7c-2,0-3.4,1.9-3,3.8l4.5,18.4c0.3,1.4,1.6,2.3,3,2.3h44.6c1.4,0,2.6-1,3-2.3   l4.5-18.4C187.3,402.1,185.8,400.3,183.9,400.3z"/>
</g>
<path style="fill:#2B3B4E;" d="M405.7,407.1H99.3c-2.7,0-4.9-2.2-4.9-4.9V103.3c0-2.7,2.2-4.9,4.9-4.9h306.4c2.7,0,4.9,2.2,4.9,4.9  v298.9C410.6,404.9,408.4,407.1,405.7,407.1z"/>
<rect x="122.2" y="121.4" style="fill:#CED5E0;" width="260.6" height="262.7"/>
<circle style="fill:#2B3B4E;" cx="276.1" cy="252.8" r="48.4"/>
<circle style="fill:#ACB3BA;" cx="276.1" cy="252.8" r="34.4"/>
<path style="fill:#2B3B4E;" d="M354.2,304.1L354.2,304.1c-5.5,0-9.9-4.4-9.9-9.9v-82.8c0-5.5,4.4-9.9,9.9-9.9l0,0  c5.5,0,9.9,4.4,9.9,9.9v82.8C364.1,299.6,359.7,304.1,354.2,304.1z"/>
<g>
</g>
<g>
</g>
<g>
</g>
<g>
</g>
<g>
</g>
<g>
</g>
<g>
</g>
<g>
</g>
<g>
</g>
<g>
</g>
<g>
</g>
<g>
</g>
<g>
</g>
<g>
</g>
<g>
</g>
</svg>
