<?xml version="1.0" encoding="iso-8859-1"?>
<!-- Generator: Adobe Illustrator 19.0.0, SVG Export Plug-In . SVG Version: 6.00 Build 0)  -->
<svg xmlns="http://www.w3.org/2000/svg" xmlns:xlink="http://www.w3.org/1999/xlink" version="1.1" id="Layer_1" x="0px" y="0px" viewBox="0 0 505 505" style="enable-background:new 0 0 505 505;" xml:space="preserve">
<g>
	<circle style="fill:#FFD05B;" cx="252.5" cy="252.5" r="252.5"/>
	<path style="fill:#FFD05B;" d="M505,252.5c0,135.5-106.7,246.1-240.7,252.2c-3.9,0.2-7.8,0.3-11.8,0.3c-3.9,0-7.9-0.1-11.7-0.3   C106.8,498.6,0,388,0,252.5C0,113.1,113.1,0,252.5,0C392,0,505,113.1,505,252.5z"/>
</g>
<path style="fill:#324A5E;" d="M264.2,94.5v410.2c-3.9,0.2-7.8,0.3-11.8,0.3c-3.9,0-7.9-0.1-11.7-0.3V94.5H264.2z"/>
<g>
	<path style="fill:#FFFFFF;" d="M132.9,137.7c-1.8,0.2-3.2,1.7-3.2,3.5v23.3v23.3c0,1.8,1.4,3.3,3.2,3.5L379,213   c1,0.1,1.9-0.2,2.7-0.9l49.7-45c1.5-1.4,1.5-3.8,0-5.2l-49.7-45c-0.7-0.7-1.7-1-2.7-0.9L132.9,137.7z"/>
	<path style="fill:#FFFFFF;" d="M358,249.2c1.8,0.2,3.2,1.7,3.2,3.5V276v23.3c0,1.8-1.4,3.3-3.2,3.5l-246.1,21.7   c-1,0.1-1.9-0.2-2.7-0.9l-49.7-45c-1.5-1.4-1.5-3.8,0-5.2l49.7-45c0.7-0.7,1.7-1,2.7-0.9L358,249.2z"/>
</g>
<g>
</g>
<g>
</g>
<g>
</g>
<g>
</g>
<g>
</g>
<g>
</g>
<g>
</g>
<g>
</g>
<g>
</g>
<g>
</g>
<g>
</g>
<g>
</g>
<g>
</g>
<g>
</g>
<g>
</g>
</svg>
