<?xml version="1.0" encoding="iso-8859-1"?>
<!-- Generator: Adobe Illustrator 19.0.0, SVG Export Plug-In . SVG Version: 6.00 Build 0)  -->
<svg xmlns="http://www.w3.org/2000/svg" xmlns:xlink="http://www.w3.org/1999/xlink" version="1.1" id="Layer_1" x="0px" y="0px" viewBox="0 0 505 505" style="enable-background:new 0 0 505 505;" xml:space="preserve">
<circle style="fill:#FD8469;" cx="252.5" cy="252.5" r="252.5"/>
<polygon style="fill:#FFFFFF;" points="394.5,76.3 394.5,376.5 342.3,376.5 342.3,428.7 110.5,428.7 110.5,76.3 "/>
<g>
	<polygon style="fill:#E6E9EE;" points="394.5,376.5 342.3,428.7 342.3,376.5  "/>
	<path style="fill:#E6E9EE;" d="M240.9,254.5c0.8,0.4,1.6,0.6,2.4,0.7h11.3c0.8-0.1,1.6-0.3,2.4-0.5c2.9-0.9,5.6-2.5,8.1-4.3   c2.9-2,5.6-4.2,8.2-6.6c2.3-2.2,4.6-4.5,5.8-7.5c2.1-5.1,0.6-11-0.9-16.3c-0.9-3.1-1.8-6.3-2.7-9.4c-0.8-2.7-1.5-5.3-2.7-7.8   c-2.8-6-8-10.8-13.7-14.2c-1.8-1.1-3.7-2.1-5.8-2.5c-2.2-0.5-4.5-0.4-6.7,0c-5.6,1-11.2,4.5-12.7,9.9c-0.5,1.8-0.5,3.7-0.5,5.5   c0,10.1-0.1,20.1-0.1,30.2c0,6.6,0.1,13.6,3.7,19C238,252.4,239.3,253.7,240.9,254.5z"/>
</g>
<path style="fill:#F9B54C;" d="M252.5,154.7c-7.7,0-13.9,15-13.9,24.7c0,5.7,2.1,10.7,5.4,14c0.4,0,1-0.1,1.2-0.1  c0.6,0,1.3,0.1,1.9,0.3c0.6,0.2,1.2,0.4,1.8,0.7c0.1,0.1,0.5,0.3,0.7,0.5c0.1,0,0.2,0.1,0.4,0.2c0.4,0.2,0.7,0.4,1.1,0.7  c0.3,0.2,0.6,0.4,0.8,0.6c0.2,0.1,0.3,0.2,0.5,0.3l0,0c0.4-0.3,0.9-0.6,1.3-0.9c0.2-0.2,0.5-0.3,0.8-0.4c0.4-0.2,0.6-0.3,0.8-0.4  c0.2-0.3,1.8-0.8,1.9-0.9c1-0.3,1.9-0.3,2.9-0.1h0.1c3.6-3.2,6-8.5,6-14.5C266.4,169.7,260.2,154.7,252.5,154.7z"/>
<path style="fill:#4CDBC4;" d="M210.2,255.3l5.4-33.1l-13.9-22.5c0,0-7.4,12.1-10.9,55.6H210.2z"/>
<path style="fill:#2C9984;" d="M210.1,255.3h43.6c-5.3-14.9-16.5-41.6-16.5-41.6l-3-19.3l0.2-4.7c0,0-28.2,4.9-32.6,10  C201.7,199.6,212.4,225.7,210.1,255.3z"/>
<path style="fill:#4CDBC4;" d="M225.8,206.5c6.4,31,20.9,44.7,26.3,48.8h1.3c-7-15-16-73.4-16-73.4c-9.7,5.4-14.3,15.3-14.3,15.3  l8.7,7.3L225.8,206.5z"/>
<path style="fill:#FFFFFF;" d="M252.5,196.5c0,0-10-6.9-14.6,6c0,0-2.2-21.8,1-25.8C238.9,176.7,242.1,187.8,252.5,196.5z"/>
<path style="fill:#2C9984;" d="M314.1,255.3c-3.4-43.5-10.9-55.6-10.9-55.6l-13.9,22.5l5.4,33.1H314.1z"/>
<path style="fill:#4CDBC4;" d="M251.3,255.3h43.6c-2.3-29.5,8.4-55.6,8.4-55.6c-4.4-5-32.6-10-32.6-10l0.2,4.7l-3,19.3  C267.9,213.6,256.6,240.4,251.3,255.3z"/>
<path style="fill:#2C9984;" d="M252.9,255.3c5.4-4.1,19.9-17.8,26.3-48.8l-6-2.1l8.7-7.3c0,0-4.6-9.8-14.3-15.3  c0,0-9.1,58.4-16,73.4h1.3V255.3z"/>
<path style="fill:#FFFFFF;" d="M252.5,196.5c0,0,10-6.9,14.6,6c0,0,2.2-21.8-1-25.8C266.1,176.7,262.8,187.8,252.5,196.5z"/>
<g>
	<path style="fill:#F9B54C;" d="M280,149.5c-1.9,4.6-6.5,9.5-9.3,8.7c-2.9-0.8-2.9-7.1-1-11.7c1.9-4.6,5-5.9,7.9-5.1   C280.3,142.2,281.9,144.9,280,149.5z"/>
	<path style="fill:#F9B54C;" d="M225,149.5c1.9,4.6,6.5,9.5,9.3,8.7c2.9-0.8,2.9-7.1,1-11.7s-5-5.9-7.9-5.1   C224.7,142.2,223.1,144.9,225,149.5z"/>
</g>
<g>
	<ellipse style="fill:#FFD05B;" cx="252.5" cy="149.7" rx="22.3" ry="28.9"/>
	<path style="fill:#FFD05B;" d="M264,140.9l-4.3-17.4c0,0,5.7-6.8,7.2-6.5c1.5,0.2,10.1,9.3,10.1,9.3v13v5.4l-2.4,4.8l-9.3-4.1   L264,140.9z"/>
	<polygon style="fill:#FFD05B;" points="247.2,125.4 233.2,122.8 228.5,127.5 227.7,137.7 230.4,149 248.3,144.2  "/>
</g>
<path style="fill:#324A5E;" d="M248.9,108.6c0,0,7.1-11.9,20.5,0c0,0-3.7-0.6-5.5,0c0,0,22.3,1.5,16.5,27.2c0,0,0.2,7.1-5.8,13.6  c0,0,6.9-29.4-11.3-22.3c0,0-11.8,6.7-20.3-0.3c0,0-16.3-4.7-12.7,22.2c0,0-19-34,2-38.4c0,0,5.5-11.8,25.4-8.7  C257.8,101.9,250.8,101.9,248.9,108.6z"/>
<g>
	<rect x="142" y="317.7" style="fill:#E6E9EE;" width="209.9" height="11.8"/>
	<rect x="142" y="285.8" style="fill:#E6E9EE;" width="209.9" height="11.8"/>
	<rect x="142" y="349.6" style="fill:#E6E9EE;" width="145" height="11.8"/>
</g>
<g>
</g>
<g>
</g>
<g>
</g>
<g>
</g>
<g>
</g>
<g>
</g>
<g>
</g>
<g>
</g>
<g>
</g>
<g>
</g>
<g>
</g>
<g>
</g>
<g>
</g>
<g>
</g>
<g>
</g>
</svg>
