<?xml version="1.0" encoding="iso-8859-1"?>
<!-- Generator: Adobe Illustrator 19.0.0, SVG Export Plug-In . SVG Version: 6.00 Build 0)  -->
<svg xmlns="http://www.w3.org/2000/svg" xmlns:xlink="http://www.w3.org/1999/xlink" version="1.1" id="Layer_1" x="0px" y="0px" viewBox="0 0 505 505" style="enable-background:new 0 0 505 505;" xml:space="preserve">
<path style="fill:#90DFAA;" d="M505,252.5C505,392,392,505,252.5,505C113.1,505,0,392,0,252.5C0,113.1,113.1,0,252.5,0  C392,0,505,113.1,505,252.5z"/>
<path style="fill:#FFFFFF;" d="M381,418.2H124c-0.8,0-1.4-0.6-1.4-1.4V88.2c0-0.8,0.6-1.4,1.4-1.4h257c0.8,0,1.4,0.6,1.4,1.4v328.6  C382.4,417.6,381.8,418.2,381,418.2z"/>
<path style="fill:#324A5E;" d="M156.4,86.8h-28.3c-3,0-5.5,2.5-5.5,5.5v320.5c0,3,2.5,5.5,5.5,5.5h28.3V86.8z"/>
<g>
	<path style="fill:#84DBFF;" d="M297,255.9c-1.7,0.5-3.3,0.9-5,1.3c-4,1-8.1,1.7-12.3,2.1c-1.2,0.1-2.4,0.3-3.6,0.3   c-2.5,0.2-5.1,0.3-7.7,0.3s-5.1-0.1-7.7-0.3c-1.2-0.1-2.4-0.2-3.6-0.3c-3.2-0.3-6.4-0.9-9.6-1.5c0-8.2,0-16.3,0.1-24.5   c0-2,0-4.1,0.5-6c0.1-0.4,0.2-0.8,0.4-1.2l0,0c0.7-1.8,1.8-3.3,3.2-4.6l0,0c0.5-0.5,1-0.9,1.6-1.4s1.3-0.9,2.1-1.3   c1.2-0.6,2.4-1.2,3.7-1.6c0.9-0.3,1.9-0.6,2.8-0.7c2.4-0.5,4.9-0.6,7.3,0c2.2,0.5,4.3,1.5,6.3,2.7c0.2,0.1,0.3,0.2,0.5,0.3   c1.2,0.7,2.4,1.5,3.5,2.4c1.1,0.8,2.1,1.6,3.1,2.5c0.7,0.7,1.4,1.4,2.1,2.1c1,1.1,2,2.2,2.8,3.4l0,0c1.1,1.5,2.1,3.1,2.8,4.8   c0.2,0.5,0.4,0.9,0.6,1.4c0,0.1,0.1,0.2,0.1,0.4c0.9,2.2,1.5,4.4,2.2,6.7c0.5,1.7,1,3.5,1.5,5.2s0.9,3.3,1.4,5   C296.5,254.2,296.8,255,297,255.9z"/>
	<path style="fill:#84DBFF;" d="M268.4,182.4c-8.3,0-15,16.3-15,26.8c0,6.2,2.3,11.7,5.9,15.1c0.4,0,1.1-0.1,1.3-0.1   c0.7,0,1.4,0.1,2.1,0.3c0.6,0.2,1.3,0.5,1.9,0.8c0.1,0.1,0.5,0.3,0.8,0.5c0.1,0,0.3,0.1,0.4,0.2c0.4,0.2,0.8,0.4,1.2,0.7   c0.3,0.2,0.6,0.4,0.9,0.7c0.2,0.1,0.4,0.2,0.5,0.4l0,0c0.4-0.3,1-0.7,1.4-1c0.3-0.2,0.5-0.3,0.8-0.4c0.4-0.2,0.7-0.3,0.8-0.4   c0.2-0.3,2-0.9,2.1-1c1.1-0.4,2.1-0.3,3.2-0.1h0.1c3.9-3.4,6.5-9.2,6.5-15.7C283.4,198.7,276.7,182.4,268.4,182.4z"/>
	<path style="fill:#84DBFF;" d="M225.2,250.3c-2.4-1.1-4.7-2.4-7-3.7c-3-1.7-5.9-3.6-8.6-5.6c2.1-7.3,3.8-10,3.8-10s0,0,0,0.1   L225.2,250.3z"/>
	<path style="fill:#84DBFF;" d="M247.6,257.8c-0.9-0.2-1.9-0.4-2.8-0.6c-6.8-1.6-13.4-4-19.6-6.9c-2.4-1.1-4.7-2.4-7-3.7   c-2.2-9-4.5-14.8-4.8-15.4v-0.1c3.2-3.7,17.9-7.3,27.4-9.3l0,0c4.6-1,8-1.6,8-1.6l-0.2,5.1l0.1,0.8l0,0l3.2,20.1   c0,0,2.3,5.5,5.4,13C253.9,259,250.7,258.5,247.6,257.8z"/>
	<path style="fill:#84DBFF;" d="M260.7,259.7c-1.2-0.1-2.4-0.2-3.6-0.3c-3.2-0.3-6.4-0.9-9.6-1.5c-0.9-0.2-1.9-0.4-2.8-0.6   c-2.1-5.5-3.9-11.7-5.3-18.7l6.5-2.2l-9.5-7.9c0,0,1.4-3,4.2-6.6l0,0c2.6-3.3,6.3-7.2,11.3-10l0,0c0.1,0.4,0.5,3.5,1.3,8.3   c0.4,2.7,1,5.8,1.6,9.3l0,0C256.5,238.4,258.5,249.3,260.7,259.7z"/>
	<path style="fill:#84DBFF;" d="M268.4,227.8c0,0-10.9-7.4-15.8,6.5c0,0-2.4-23.6,1.1-28C253.6,206.3,257.2,218.3,268.4,227.8z"/>
	<path style="fill:#84DBFF;" d="M327.2,241.1c-2.8,2-5.6,3.9-8.6,5.6c-2.3,1.3-4.6,2.5-7,3.7l11.8-19.1v-0.1   C323.4,231.2,325.1,233.8,327.2,241.1z"/>
	<path style="fill:#84DBFF;" d="M323.5,231.1L323.5,231.1c-0.3,0.7-2.6,6.5-4.8,15.5c-2.3,1.3-4.6,2.5-7,3.7l0,0   c-4.7,2.2-9.6,4.1-14.6,5.6c-1.7,0.5-3.3,0.9-5,1.3c-4,1-8.1,1.7-12.3,2.1c3.1-7.5,5.4-13,5.4-13l2.6-16.4l0,0l0.7-4.5l-0.3-5.1   c0,0,3.3,0.6,8,1.6l0,0C305.5,223.8,320.3,227.5,323.5,231.1z"/>
	<path style="fill:#84DBFF;" d="M291.2,236.4l6.1,2.1c-0.7,3.5-1.5,6.8-2.4,9.8c-0.9,3.1-1.9,6.1-2.9,8.8c-4,1-8.1,1.7-12.3,2.1   c-1.2,0.1-2.4,0.3-3.6,0.3c2.2-10.4,4.2-21.3,5.7-30.1l0,0c0.3-1.8,0.6-3.5,0.9-5.1c1.2-6.8,1.9-11.5,2.1-12.4l0,0   c0-0.1,0-0.1,0-0.1c5,2.8,8.8,6.7,11.3,10c2.8,3.6,4.2,6.6,4.2,6.6l-9.2,7.7l-0.3,0.2L291.2,236.4z"/>
	<path style="fill:#84DBFF;" d="M268.4,227.8c0,0,10.9-7.4,15.8,6.5c0,0,2.4-23.6-1.1-28C283.1,206.3,279.6,218.3,268.4,227.8z"/>
	<path style="fill:#84DBFF;" d="M298.2,176.7c-2.1,5-7,10.3-10.1,9.4s-3.1-7.7-1.1-12.7c2.1-5,5.4-6.4,8.5-5.5   C298.6,168.8,300.3,171.7,298.2,176.7z"/>
	<path style="fill:#84DBFF;" d="M238.6,176.7c2.1,5,7,10.3,10.1,9.4s3.1-7.7,1.1-12.7c-2.1-5-5.4-6.4-8.5-5.5   C238.2,168.8,236.5,171.7,238.6,176.7z"/>
	<ellipse style="fill:#84DBFF;" cx="268.4" cy="177" rx="24.2" ry="31.4"/>
	<path style="fill:#84DBFF;" d="M280.9,167.4l-4.7-18.9c0,0,6.2-7.4,7.8-7.1c1.7,0.3,11,10.1,11,10.1v14.1v5.8l-2.6,5.2l-10.1-4.4   L280.9,167.4z"/>
	<polygon style="fill:#84DBFF;" points="262.7,150.6 247.5,147.7 242.4,152.8 241.5,164 244.4,176.2 263.9,170.9  "/>
	<path style="fill:#84DBFF;" d="M264.5,132.3c0,0,7.7-13,22.3,0c0,0-4-0.6-5.9,0c0,0,24.2,1.6,17.9,29.5c0,0,0.2,7.7-6.3,14.8   c0,0,7.5-31.9-12.2-24.2c0,0-12.8,7.2-22-0.3c0,0-17.7-5.1-13.8,24.1c0,0-20.6-36.9,2.2-41.6c0,0,5.9-12.9,27.6-9.5   C274.2,125.1,266.5,125.1,264.5,132.3z"/>
</g>
<g>
	<rect x="178.8" y="286.3" style="fill:#E6E9EE;" width="172.6" height="12.7"/>
	<rect x="178.8" y="315" style="fill:#E6E9EE;" width="172.6" height="12.7"/>
	<rect x="178.8" y="343.8" style="fill:#E6E9EE;" width="172.6" height="12.7"/>
	<rect x="178.8" y="372.6" style="fill:#E6E9EE;" width="87.6" height="12.7"/>
</g>
<g>
</g>
<g>
</g>
<g>
</g>
<g>
</g>
<g>
</g>
<g>
</g>
<g>
</g>
<g>
</g>
<g>
</g>
<g>
</g>
<g>
</g>
<g>
</g>
<g>
</g>
<g>
</g>
<g>
</g>
</svg>
