<?xml version="1.0" encoding="iso-8859-1"?>
<!-- Generator: Adobe Illustrator 19.0.0, SVG Export Plug-In . SVG Version: 6.00 Build 0)  -->
<svg xmlns="http://www.w3.org/2000/svg" xmlns:xlink="http://www.w3.org/1999/xlink" version="1.1" id="Layer_1" x="0px" y="0px" viewBox="0 0 508 508" style="enable-background:new 0 0 508 508;" xml:space="preserve">
<circle style="fill:#FFD05B;" cx="254" cy="254" r="254"/>
<path style="fill:#324A5E;" d="M202.4,194.8l-0.4,16.4h-16.4l-0.4-16.4c2.8,0.8,5.6,1.2,8.4,1.2S199.6,196,202.4,194.8z"/>
<path style="fill:#F9B54C;" d="M61.6,419.6C108,473.6,177.2,508,254,508c77.2,0,146-34.4,192.4-88.4H61.6z"/>
<path style="fill:#324A5E;" d="M270,167.2c0,5.6,1.6,10.4,4.8,14.8h-55.6c2.4-4.4,4-9.2,4-14.8c0-5.2-1.6-10.4-4-14.8h55.6  C272,156.4,270,161.6,270,167.2z"/>
<path style="fill:#2B3B4E;" d="M337.2,167.2c0,9.6,3.2,18.8,9.2,25.6H296c-14,0-25.6-11.6-25.6-25.6s11.6-25.6,25.6-25.6h50.4  C340.8,148.4,337.2,157.2,337.2,167.2z"/>
<circle style="fill:#FFFFFF;" cx="378.4" cy="167.2" r="40.8"/>
<circle style="fill:#E6E9EE;" cx="378.4" cy="167.2" r="26.4"/>
<circle style="fill:#ACB3BA;" cx="378.4" cy="167.2" r="13.2"/>
<circle style="fill:#FFFFFF;" cx="194" cy="167.2" r="29.2"/>
<circle style="fill:#E6E9EE;" cx="194" cy="167.2" r="21.2"/>
<circle style="fill:#ACB3BA;" cx="194" cy="167.2" r="10.8"/>
<path style="fill:#324A5E;" d="M387.6,419.6H120.4c-25.6,0-46.4-20.8-46.4-46.4l0,0c0-25.6,20.8-46.4,46.4-46.4h266.8  c25.6,0,46.4,20.8,46.4,46.4l0,0C434,398.8,413.2,419.6,387.6,419.6z"/>
<path style="fill:#2B3B4E;" d="M120.4,407.6c-19.2,0-34.8-15.6-34.8-34.8c0-19.2,15.6-34.8,34.8-34.8h266.8  c19.2,0,34.8,15.6,34.8,34.8c0,19.2-15.6,34.8-34.8,34.8H120.4z"/>
<g>
	<circle style="fill:#324A5E;" cx="120.4" cy="372.8" r="22.8"/>
	<circle style="fill:#324A5E;" cx="387.6" cy="372.8" r="22.8"/>
	<circle style="fill:#324A5E;" cx="320.8" cy="372.8" r="22.8"/>
	<circle style="fill:#324A5E;" cx="254" cy="372.8" r="22.8"/>
	<circle style="fill:#324A5E;" cx="187.2" cy="372.8" r="22.8"/>
</g>
<polygon style="fill:#2B3B4E;" points="185.6,211.2 168.4,249.6 181.2,266.8 206.4,266.8 219.6,249.6 202,211.2 "/>
<g>
	<path style="fill:#324A5E;" d="M230.4,268.8c0,0-17.6-21.6-18-21.6c-2.8-2.8-7.6-2.4-10.4,0.4c-2.8,2.8-2.4,7.6,0.4,10.4l17.2,15.2   l-15.2,34.4c-0.4,1.2,0,2.8,1.2,3.2c1.2,0.8,2.8,0.4,3.6-0.8l21.6-35.6C231.6,272.8,231.6,270.4,230.4,268.8z"/>
	<path style="fill:#324A5E;" d="M157.6,268.8c0,0,17.6-21.6,18-21.6c2.8-2.8,7.6-2.4,10.4,0.4c2.8,2.8,2.4,7.6-0.4,10.4l-17.2,15.2   l15.2,34.4c0.4,1.2,0,2.8-1.2,3.2c-1.2,0.8-2.8,0.4-3.6-0.8l-21.6-35.6C156,272.8,156.4,270.4,157.6,268.8z"/>
</g>
<g>
	<circle style="fill:#ACB3BA;" cx="207.6" cy="252.8" r="3.6"/>
	<circle style="fill:#ACB3BA;" cx="180.4" cy="252.8" r="3.6"/>
</g>
<g>
</g>
<g>
</g>
<g>
</g>
<g>
</g>
<g>
</g>
<g>
</g>
<g>
</g>
<g>
</g>
<g>
</g>
<g>
</g>
<g>
</g>
<g>
</g>
<g>
</g>
<g>
</g>
<g>
</g>
</svg>
