<?xml version="1.0" encoding="iso-8859-1"?>
<!-- Generator: Adobe Illustrator 19.0.0, SVG Export Plug-In . SVG Version: 6.00 Build 0)  -->
<svg xmlns="http://www.w3.org/2000/svg" xmlns:xlink="http://www.w3.org/1999/xlink" version="1.1" id="Layer_1" x="0px" y="0px" viewBox="0 0 508 508" style="enable-background:new 0 0 508 508;" xml:space="preserve">
<circle style="fill:#84DBFF;" cx="254" cy="254" r="254"/>
<path style="fill:#54C0EB;" d="M31.2,376C74.4,454.8,158,508,254,508s179.6-53.6,222.8-132H31.2z"/>
<path style="fill:#324A5E;" d="M63.6,254L63.6,254c0,67.2,54.4,121.6,121.6,121.6h291.6C496.4,339.6,508,298,508,254  s-11.2-85.6-31.2-121.6H185.2C118,132.4,63.6,186.8,63.6,254z"/>
<path style="fill:#2B3B4E;" d="M98.4,254c0,48,38.8,86.8,86.8,86.8h307.6c10-27.2,15.2-56.4,15.2-86.8c0-30.4-5.2-59.6-15.2-86.8  H185.2C137.6,167.2,98.4,206,98.4,254z"/>
<circle style="fill:#324A5E;" cx="185.2" cy="254" r="72"/>
<circle style="fill:#2B3B4E;" cx="185.2" cy="254" r="24.4"/>
<g>
	<path style="fill:#324A5E;" d="M279.2,275.2h228c0.4-6.8,0.8-14,0.8-21.2s-0.4-14-0.8-21.2h-228V275.2z"/>
	<path style="fill:#324A5E;" d="M286,216L286,216c-9.2,0-16.4-7.2-16.4-16.4l0,0c0-9.2,7.2-16.4,16.4-16.4l0,0   c9.2,0,16.4,7.2,16.4,16.4l0,0C302.4,208.8,295.2,216,286,216z"/>
	<path style="fill:#324A5E;" d="M286,324.8L286,324.8c-9.2,0-16.4-7.2-16.4-16.4l0,0c0-9.2,7.2-16.4,16.4-16.4l0,0   c9.2,0,16.4,7.2,16.4,16.4l0,0C302.4,317.2,295.2,324.8,286,324.8z"/>
	<path style="fill:#324A5E;" d="M341.2,216L341.2,216c-9.2,0-16.4-7.2-16.4-16.4l0,0c0-9.2,7.2-16.4,16.4-16.4l0,0   c9.2,0,16.4,7.2,16.4,16.4l0,0C357.6,208.8,350,216,341.2,216z"/>
	<path style="fill:#324A5E;" d="M341.2,324.8L341.2,324.8c-9.2,0-16.4-7.2-16.4-16.4l0,0c0-9.2,7.2-16.4,16.4-16.4l0,0   c9.2,0,16.4,7.2,16.4,16.4l0,0C357.6,317.2,350,324.8,341.2,324.8z"/>
	<path style="fill:#324A5E;" d="M396.4,216L396.4,216c-9.2,0-16.4-7.2-16.4-16.4l0,0c0-9.2,7.2-16.4,16.4-16.4l0,0   c9.2,0,16.4,7.2,16.4,16.4l0,0C412.4,208.8,405.2,216,396.4,216z"/>
	<path style="fill:#324A5E;" d="M396.4,324.8L396.4,324.8c-9.2,0-16.4-7.2-16.4-16.4l0,0c0-9.2,7.2-16.4,16.4-16.4l0,0   c9.2,0,16.4,7.2,16.4,16.4l0,0C412.4,317.2,405.2,324.8,396.4,324.8z"/>
	<path style="fill:#324A5E;" d="M451.2,216L451.2,216c-9.2,0-16.4-7.2-16.4-16.4l0,0c0-9.2,7.2-16.4,16.4-16.4l0,0   c9.2,0,16.4,7.2,16.4,16.4l0,0C467.6,208.8,460.4,216,451.2,216z"/>
	<path style="fill:#324A5E;" d="M451.2,324.8L451.2,324.8c-9.2,0-16.4-7.2-16.4-16.4l0,0c0-9.2,7.2-16.4,16.4-16.4l0,0   c9.2,0,16.4,7.2,16.4,16.4l0,0C467.6,317.2,460.4,324.8,451.2,324.8z"/>
</g>
<g>
</g>
<g>
</g>
<g>
</g>
<g>
</g>
<g>
</g>
<g>
</g>
<g>
</g>
<g>
</g>
<g>
</g>
<g>
</g>
<g>
</g>
<g>
</g>
<g>
</g>
<g>
</g>
<g>
</g>
</svg>
