<?xml version="1.0" encoding="iso-8859-1"?>
<!-- Generator: Adobe Illustrator 19.0.0, SVG Export Plug-In . SVG Version: 6.00 Build 0)  -->
<svg xmlns="http://www.w3.org/2000/svg" xmlns:xlink="http://www.w3.org/1999/xlink" version="1.1" id="Layer_1" x="0px" y="0px" viewBox="0 0 508 508" style="enable-background:new 0 0 508 508;" xml:space="preserve">
<circle style="fill:#FD8469;" cx="254" cy="254" r="254"/>
<g>
	<path style="fill:#E6E9EE;" d="M47.2,106.8H204v72.4H11.2C19.2,153.2,31.6,128.8,47.2,106.8z"/>
	<path style="fill:#E6E9EE;" d="M496.8,179.6H304v-72.8h156.8C476.4,128.8,488.8,153.2,496.8,179.6z"/>
</g>
<g>
	<path style="fill:#CED5E0;" d="M37.2,122H204v14.8H28.8C31.6,131.6,34,126.8,37.2,122z"/>
	<path style="fill:#CED5E0;" d="M479.2,136.4H304V122h166.8C474,126.8,476.4,131.6,479.2,136.4z"/>
	<path style="fill:#CED5E0;" d="M22.4,149.6H204v14.8H16.4C18,159.6,20.4,154.4,22.4,149.6z"/>
	<path style="fill:#CED5E0;" d="M491.6,164.4H304v-14.8h181.6C488,154.4,489.6,159.6,491.6,164.4z"/>
</g>
<path style="fill:#E6E9EE;" d="M242.4,507.6c4,0,8,0.4,11.6,0.4c4,0,8,0,11.6-0.4H242.4z"/>
<polygon style="fill:#324A5E;" points="218.8,199.6 186,272 220.4,318 287.6,318 322,272 289.2,199.6 "/>
<g>
	<path style="fill:#FFFFFF;" d="M350.8,323.6c0,0-47.2-57.2-48-58c-8-7.2-20-6.4-27.2,1.6s-6.4,20,1.6,27.2l45.6,40.8l-40.8,92   c-1.6,3.2-0.4,6.8,2.8,8.8c3.2,2,7.6,0.8,9.6-2.4L352,338C354.8,333.6,354.4,328,350.8,323.6z"/>
	<path style="fill:#FFFFFF;" d="M157.2,323.6c0,0,47.2-57.2,48-58c8-7.2,20-6.4,27.2,1.6s6.4,20-1.6,27.2l-45.6,40.8l40.8,92   c1.6,3.2,0.4,6.8-2.8,8.8s-7.6,0.8-9.6-2.4L156,338C153.2,333.6,153.6,328,157.2,323.6z"/>
</g>
<g>
	<circle style="fill:#324A5E;" cx="290.8" cy="280.4" r="9.2"/>
	<circle style="fill:#324A5E;" cx="217.6" cy="280.4" r="9.2"/>
</g>
<path style="fill:#FFFFFF;" d="M292,199.6h-76c-6.8,0-12-5.2-12-12v-87.2c0-6.8,5.2-12,12-12h76.4c6.8,0,12,5.2,12,12V188  C304,194.4,298.8,199.6,292,199.6z"/>
<g>
</g>
<g>
</g>
<g>
</g>
<g>
</g>
<g>
</g>
<g>
</g>
<g>
</g>
<g>
</g>
<g>
</g>
<g>
</g>
<g>
</g>
<g>
</g>
<g>
</g>
<g>
</g>
<g>
</g>
</svg>
