<?xml version="1.0" encoding="iso-8859-1"?>
<!-- Generator: Adobe Illustrator 19.0.0, SVG Export Plug-In . SVG Version: 6.00 Build 0)  -->
<svg xmlns="http://www.w3.org/2000/svg" xmlns:xlink="http://www.w3.org/1999/xlink" version="1.1" id="Layer_1" x="0px" y="0px" viewBox="0 0 508 508" style="enable-background:new 0 0 508 508;" xml:space="preserve">
<circle style="fill:#4CDBC4;" cx="254" cy="254" r="254"/>
<rect x="390.8" y="243.2" style="fill:#2B3B4E;" width="36.4" height="21.2"/>
<path style="fill:#324A5E;" d="M434.4,280.4L434.4,280.4c4,0,7.6-3.2,7.6-7.6v-37.6c0-4-3.2-7.6-7.6-7.6l0,0c-4,0-7.6,3.2-7.6,7.6  v37.6C427.2,276.8,430.4,280.4,434.4,280.4z"/>
<circle style="fill:#FF7058;" cx="254.4" cy="254" r="150.8"/>
<circle style="fill:#4CDBC4;" cx="254.4" cy="254" r="117.6"/>
<g>
	<path style="fill:#2B3B4E;" d="M146.4,267.6l14.8-2c0,1.6,0.4,3.2,0.8,4.8l-14.8,2.8C146.8,271.2,146.4,269.6,146.4,267.6z    M146.8,235.2c0.4-1.6,0.8-3.6,1.2-5.2l14.8,3.2c-0.4,1.6-0.8,3.2-0.8,4.4L146.8,235.2z M157.2,304l13.2-6.8c0.8,1.2,1.6,2.8,2.4,4   l-13.2,7.6C159.2,307.2,158.4,305.6,157.2,304z M160,199.6c0.8-1.6,2-3.2,2.8-4.8l12.8,8c-0.8,1.2-1.6,2.8-2.4,4L160,199.6z    M180.4,334l10.4-11.2c1.2,1.2,2.4,2,3.6,3.2l-9.6,11.6C182.8,336.4,181.6,335.2,180.4,334z M184.4,170.4c1.2-1.2,2.8-2.4,4.4-3.2   l9.2,12c-1.2,0.8-2.4,2-3.6,2.8L184.4,170.4z M212,354.8l6-14c1.6,0.8,2.8,1.2,4.4,1.6l-5.2,14C215.6,356,214,355.2,212,354.8z    M217.2,151.6c1.6-0.8,3.6-1.2,5.2-1.6l4.4,14.4c-1.6,0.4-2.8,0.8-4.4,1.6L217.2,151.6z M249.2,363.2L250,348c1.6,0,3.2,0,4.8,0   l0.4,15.2h-0.4C252.8,363.2,250.8,363.2,249.2,363.2z M254.4,144.8L254.4,144.8c2,0,3.6,0,5.6,0l-0.8,15.2c-1.6,0-2.8,0-4.4,0   L254.4,144.8z M282.8,344c1.6-0.4,2.8-0.8,4.4-1.6l5.2,14c-1.6,0.8-3.6,1.2-5.2,1.6L282.8,344z M286.4,165.6l5.2-14   c1.6,0.8,3.6,1.2,5.2,2l-6,14C289.6,166.4,288,166,286.4,165.6z M311.6,328.8c1.2-0.8,2.4-2,3.6-2.8l9.6,11.6   c-1.2,1.2-2.8,2.4-4.4,3.6L311.6,328.8z M314.8,181.6l9.6-11.6c1.2,1.2,2.8,2.4,4,3.6L318,184.8C317.2,183.6,316,182.8,314.8,181.6   z M333.6,304.8c0.8-1.2,1.6-2.8,2.4-4l13.2,7.6c-0.8,1.6-2,3.2-2.8,4.8L333.6,304.8z M336,206.8l13.2-7.6c0.8,1.6,1.6,3.2,2.8,4.8   l-14,6.8C337.6,209.6,336.8,208,336,206.8z M346.4,274.8c0.4-1.6,0.8-3.2,0.8-4.4l14.8,2.4c-0.4,1.6-0.8,3.6-1.2,5.2L346.4,274.8z    M347.2,237.2l14.8-2.8c0.4,1.6,0.4,3.6,0.8,5.2L348,242C347.6,240.4,347.6,238.8,347.2,237.2z"/>
	<polygon style="fill:#2B3B4E;" points="263.2,254 254.4,171.6 246,254  "/>
	<polygon style="fill:#2B3B4E;" points="247.6,259.2 296,307.6 261.2,248.8  "/>
</g>
<circle style="fill:#324A5E;" cx="254.4" cy="254" r="14"/>
<circle style="fill:#2B3B4E;" cx="254.4" cy="254" r="8.4"/>
<path style="fill:#FFFFFF;" d="M256.4,371.6c-0.8,0-1.2,0-2,0c-64.8,0-117.6-52.8-117.6-117.6s52.8-117.6,117.6-117.6  c0.8,0,1.2,0,2,0V65.6h-22.8l-7.2,30c-23.6,4-45.6,13.6-64.4,26.8l-26-16L106.4,136l16,26c-13.2,18.8-22.4,40.8-26.8,64.4L66,233.2  v41.6l30,7.2c4,23.6,13.6,45.6,26.8,64.4l-16,26l29.6,29.6l26-16c18.8,13.2,40.8,22.4,64.4,26.8l7.2,30h22.8v-71.2H256.4z"/>
<g>
</g>
<g>
</g>
<g>
</g>
<g>
</g>
<g>
</g>
<g>
</g>
<g>
</g>
<g>
</g>
<g>
</g>
<g>
</g>
<g>
</g>
<g>
</g>
<g>
</g>
<g>
</g>
<g>
</g>
</svg>
