<?xml version="1.0" encoding="iso-8859-1"?>
<!-- Generator: Adobe Illustrator 19.0.0, SVG Export Plug-In . SVG Version: 6.00 Build 0)  -->
<svg xmlns="http://www.w3.org/2000/svg" xmlns:xlink="http://www.w3.org/1999/xlink" version="1.1" id="Layer_1" x="0px" y="0px" viewBox="0 0 508 508" style="enable-background:new 0 0 508 508;" xml:space="preserve">
<circle style="fill:#324A5E;" cx="254" cy="254" r="254"/>
<rect x="234.8" y="245.6" style="fill:#54C0EB;" width="38.4" height="104.4"/>
<circle style="fill:#FF7058;" cx="254" cy="164.4" r="119.2"/>
<circle style="fill:#FFFFFF;" cx="254" cy="164.4" r="93.2"/>
<path style="fill:#E6E9EE;" d="M168.4,175.6l12-1.6c0,1.2,0.4,2.4,0.4,3.6l-11.6,2C168.8,178.4,168.4,176.8,168.4,175.6z   M168.8,149.6c0.4-1.6,0.4-2.8,0.8-4.4l11.6,2.8c-0.4,1.2-0.4,2.4-0.8,3.6L168.8,149.6z M177.2,204l10.4-5.6c0.4,1.2,1.2,2,1.6,3.2  l-10.4,6C178.4,206.4,178,205.2,177.2,204z M179.2,121.6c0.8-1.2,1.6-2.4,2.4-3.6l10,6.4c-0.8,1.2-1.2,2-2,3.2L179.2,121.6z   M195.2,228l8-8.8c0.8,0.8,2,1.6,2.8,2.4l-7.6,9.2C197.2,230,196.4,228.8,195.2,228z M198.4,98.4c1.2-0.8,2.4-2,3.2-2.8l7.2,9.6  c-0.8,0.8-2,1.6-2.8,2.4L198.4,98.4z M220.4,244.4l4.8-10.8c1.2,0.4,2.4,0.8,3.6,1.2l-4,11.2C223.2,245.2,221.6,244.8,220.4,244.4z   M224.4,83.6c1.2-0.4,2.8-0.8,4-1.2l3.6,11.2c-1.2,0.4-2.4,0.8-3.6,1.2L224.4,83.6z M249.6,250.8l0.4-12c1.2,0,2.4,0,3.6,0l0.4,12  l0,0C252.4,250.8,251.2,250.8,249.6,250.8z M254,78.4L254,78.4c1.6,0,2.8,0,4.4,0l-0.4,12c-1.2,0-2.4,0-3.6,0L254,78.4z   M276.4,235.6c1.2-0.4,2.4-0.8,3.6-1.2l4,11.2c-1.2,0.4-2.8,0.8-4,1.2L276.4,235.6z M279.2,94.4l4-11.2c1.2,0.4,2.8,1.2,4,1.6  l-4.8,10.8C281.6,95.6,280.4,94.8,279.2,94.4z M299.2,224c0.8-0.8,2-1.6,2.8-2.4l7.6,9.2c-1.2,0.8-2.4,2-3.2,2.8L299.2,224z   M301.6,107.6l7.6-9.2c1.2,0.8,2,2,3.2,2.8l-8,8.8C303.6,109.2,302.8,108.4,301.6,107.6z M316.8,204.8c0.8-1.2,1.2-2,2-3.2l10.4,6  c-0.8,1.2-1.6,2.4-2.4,3.6L316.8,204.8z M318.4,127.2l10.4-6c0.8,1.2,1.6,2.4,2,3.6l-10.4,5.6C319.6,129.2,319.2,128.4,318.4,127.2z   M326.8,180.8c0.4-1.2,0.4-2.4,0.8-3.6l11.6,2c-0.4,1.6-0.4,2.8-0.8,4.4L326.8,180.8z M327.2,151.6l11.6-2c0.4,1.6,0.4,2.8,0.8,4.4  l-12,1.6C327.6,154,327.6,152.8,327.2,151.6z"/>
<polygon style="fill:#2B3B4E;" points="260.8,164.4 254,99.6 247.2,164.4 "/>
<circle style="fill:#324A5E;" cx="254" cy="164.4" r="11.2"/>
<circle style="fill:#2B3B4E;" cx="254" cy="164.4" r="6.4"/>
<path style="fill:#84DBFF;" d="M16,342.8c13.2,35.2,33.6,66.4,59.6,92.4H432c26-25.6,46.8-57.2,59.6-92.4H16z"/>
<g>
	<path style="fill:#54C0EB;" d="M359.2,455.6L359.2,455.6c-12.4,0-22.4-10-22.4-22.4v-88.4c0-12.4,10-22.4,22.4-22.4l0,0   c12.4,0,22.4,10,22.4,22.4v88.4C381.6,445.6,371.6,455.6,359.2,455.6z"/>
	<path style="fill:#54C0EB;" d="M148.8,455.6L148.8,455.6c-12.4,0-22.4-10-22.4-22.4v-88.4c0-12.4,10-22.4,22.4-22.4l0,0   c12.4,0,22.4,10,22.4,22.4v88.4C171.2,445.6,161.2,455.6,148.8,455.6z"/>
</g>
<g>
</g>
<g>
</g>
<g>
</g>
<g>
</g>
<g>
</g>
<g>
</g>
<g>
</g>
<g>
</g>
<g>
</g>
<g>
</g>
<g>
</g>
<g>
</g>
<g>
</g>
<g>
</g>
<g>
</g>
</svg>
