<?xml version="1.0" encoding="iso-8859-1"?>
<!-- Generator: Adobe Illustrator 19.0.0, SVG Export Plug-In . SVG Version: 6.00 Build 0)  -->
<svg xmlns="http://www.w3.org/2000/svg" xmlns:xlink="http://www.w3.org/1999/xlink" version="1.1" id="Layer_1" x="0px" y="0px" viewBox="0 0 508 508" style="enable-background:new 0 0 508 508;" xml:space="preserve">
<circle style="fill:#54C0EB;" cx="254" cy="254" r="254"/>
<path style="fill:#84DBFF;" d="M61.2,419.2C107.6,473.6,176.8,508,254,508s146.4-34.4,192.8-88.8H61.2z"/>
<path style="fill:#FFFFFF;" d="M417.2,364.8H90.8c-10,0-18.4-8-18.4-18.4V133.2c0-10,8-18.4,18.4-18.4h326c10,0,18.4,8,18.4,18.4  v213.2C435.6,356.4,427.2,364.8,417.2,364.8z"/>
<path style="fill:#324A5E;" d="M435.6,320.4V133.2c0-10-8-18-18-18H90.8c-10,0-18,8-18,18v187.2H435.6z"/>
<g>
	<rect x="88" y="132.8" style="fill:#FFFFFF;" width="332.4" height="170.8"/>
	<rect x="206.4" y="364.8" style="fill:#FFFFFF;" width="95.2" height="34.4"/>
</g>
<g>
	<rect x="206.4" y="364.8" style="fill:#E6E9EE;" width="95.2" height="11.2"/>
	<path style="fill:#E6E9EE;" d="M321.6,399.2H186.4c-6.4,0-11.6,5.2-11.6,11.6v8.4h158v-8.4C333.2,404.4,328,399.2,321.6,399.2z"/>
</g>
<path style="fill:#FF7058;" d="M220,203.2c0,24.8-45.2,92-45.2,92s-45.2-67.2-45.2-92S150,158,174.8,158S220,178.4,220,203.2z"/>
<circle style="fill:#FFFFFF;" cx="174.8" cy="203.2" r="25.6"/>
<circle style="fill:#E6E9EE;" cx="254" cy="342.4" r="12"/>
<path style="fill:#4CDBC4;" d="M420,304V168.8c-18.4-18.4-44-30-72-30c-56.4,0.4-102,46-102,102.4c0,23.6,8,45.6,21.6,62.8H420z"/>
<path style="fill:#EDEDED;" d="M277.6,270.8c2.4,1.6,5.2,2.4,8,2.8c4.8,0.8,9.6,1.2,14.4,1.2c3.2,0,6.8-0.4,10,0.4s6.4,2.8,7.2,6  c0.4,2.4,0,4.8,0.8,6.8c0.8,2.4,2.8,4,4,6c1.6,2.8,1.2,6.4,1.6,9.6H392c0-0.4,0-1.2,0-1.6c0.4-10.8,8.4-19.6,16-27.2  c2.8-2.8,5.2-5.6,6.8-9.2c1.6-3.6,2-8-0.4-11.2c-0.4,1.6-2,2.4-3.2,2.8c-11.2,3.2-22.4-5.2-28.8-14.8c-4.8-7.2-8.4-17.2-2.8-24  c9.2,5.6,16,14.8,18,25.2c0.8,2.8,1.6,6.4,4.4,6.8c4.4,0.4,4.4-6.8,8-9.6c2-1.6,5.2-1.2,7.6-2.4c1.2-0.4,2-1.6,2.4-2.4v-67.2  c-12-12-27.2-21.2-44.4-26c-0.8,0.4-1.6,0.4-2.4,0.8c-2,1.2-4.4,2.4-6.8,2.8c-2.8,0.4-5.6-0.8-8.8-1.2c-6.4-0.8-12,2.8-18,4.8  c-4,1.6-8.4,2.8-12.8,3.6c-1.6,2,0.4,5.2,2.8,6.4c2.4,0.8,5.2,0.4,8,1.2s5.2,3.2,4,5.6c-11.6-0.4-24.8,0.4-31.6,9.2  c-1.2,1.2-2,2.8-3.2,3.6c-4.8,3.6-14,0.4-16.4,6c-1.2,2.8,1.2,6.4,4,7.6c2.8,1.2,6.4,0.4,9.2-0.8c3.2-1.2,6.4-2.8,9.2-4.8  c1.2-0.8,2.4-2,4-2c6.4-0.8,8.4,11.6,14.8,10c0.8-2-1.2-3.6-2.8-5.2c-2.4-2.8-2.4-8,1.2-8.8c4-0.8,6.4,3.6,8.4,7.2  c1.6,2.8,4,5.6,7.2,6.4c3.2,0.8,7.2-0.4,8.4-3.6c3.6,0.4,5.6,4.4,8.4,6c2.4,1.2,5.2,1.2,8,1.6c2.8,0.4,5.6,2,6,4.8  c-0.8,6-8.4,8.4-14.4,8.8c-8.8,0.4-18-0.8-26.4-3.2c-1.2-0.4-2-0.8-2.8-1.6c-0.4-0.8-0.4-2-0.8-3.2c-0.8-1.6-2.4-2-4-2  c-4.8-0.8-9.6-2-14.8-2.8c-6-1.2-12.4-2.4-18-0.8C286,201.6,280,210,274.4,218c-3.6,5.2-7.2,10.4-8,16.4c-1.2,6.4,0.4,12.8,2,18.8  C270,260,272,267.2,277.6,270.8z"/>
<g>
</g>
<g>
</g>
<g>
</g>
<g>
</g>
<g>
</g>
<g>
</g>
<g>
</g>
<g>
</g>
<g>
</g>
<g>
</g>
<g>
</g>
<g>
</g>
<g>
</g>
<g>
</g>
<g>
</g>
</svg>
