<?xml version="1.0" encoding="iso-8859-1"?>
<!-- Generator: Adobe Illustrator 19.0.0, SVG Export Plug-In . SVG Version: 6.00 Build 0)  -->
<svg xmlns="http://www.w3.org/2000/svg" xmlns:xlink="http://www.w3.org/1999/xlink" version="1.1" id="Layer_1" x="0px" y="0px" viewBox="0 0 508 508" style="enable-background:new 0 0 508 508;" xml:space="preserve">
<circle style="fill:#324A5E;" cx="254" cy="254" r="254"/>
<path style="fill:#84DBFF;" d="M219.2,284.4l65.2-65.2L396.8,320c12.8,11.6,13.6,31.6,1.2,44l-34,34c-12.4,12.4-32.4,11.6-44-1.2  L219.2,284.4z"/>
<g>
	<path style="fill:#54C0EB;" d="M221.2,285.2l64-64c3.2-3.2,3.2-8.8,0-12l-4-4c-3.2-3.2-8.8-3.2-12,0l-64,64c-3.2,3.2-3.2,8.8,0,12   l4,4C212.4,288.4,217.6,288.4,221.2,285.2z"/>
	<path style="fill:#54C0EB;" d="M242.4,281.6L242.4,281.6c2.8-2.8,7.2-2.8,10,0l88.8,88.8c2.8,2.8,2.8,7.2,0,10l0,0   c-2.8,2.8-7.2,2.8-10,0l-88.8-88.8C239.6,288.8,239.6,284.4,242.4,281.6z"/>
	<path style="fill:#54C0EB;" d="M262,262L262,262c2.8-2.8,7.2-2.8,10,0l88.8,88.8c2.8,2.8,2.8,7.2,0,10l0,0c-2.8,2.8-7.2,2.8-10,0   L262,272C259.2,269.2,259.2,264.8,262,262z"/>
	<path style="fill:#54C0EB;" d="M281.6,242.4L281.6,242.4c2.8-2.8,7.2-2.8,10,0l88.8,88.8c2.8,2.8,2.8,7.2,0,10l0,0   c-2.8,2.8-7.2,2.8-10,0l-88.8-88.8C278.8,249.6,278.8,244.8,281.6,242.4z"/>
</g>
<polygon style="fill:#E6E9EE;" points="244,230 174.8,160.4 174.8,128 124,101.2 101.2,124 128,174.8 160.4,174.8 230,244 "/>
<g>
</g>
<g>
</g>
<g>
</g>
<g>
</g>
<g>
</g>
<g>
</g>
<g>
</g>
<g>
</g>
<g>
</g>
<g>
</g>
<g>
</g>
<g>
</g>
<g>
</g>
<g>
</g>
<g>
</g>
</svg>
