<?xml version="1.0" encoding="iso-8859-1"?>
<!-- Generator: Adobe Illustrator 19.0.0, SVG Export Plug-In . SVG Version: 6.00 Build 0)  -->
<svg xmlns="http://www.w3.org/2000/svg" xmlns:xlink="http://www.w3.org/1999/xlink" version="1.1" id="Layer_1" x="0px" y="0px" viewBox="0 0 508 508" style="enable-background:new 0 0 508 508;" xml:space="preserve">
<circle style="fill:#90DFAA;" cx="254" cy="254" r="254"/>
<path style="fill:#FFFFFF;" d="M126,255.6h-14v94c0,4,3.2,7.2,7.2,7.2l0,0c4,0,7.2-3.2,7.2-7.2v-94H126z"/>
<g>
	<path style="fill:#2B3B4E;" d="M142.8,174.8H95.6V264c0,13.2,10.4,23.6,23.6,23.6l0,0c13.2,0,23.6-10.4,23.6-23.6V174.8z"/>
	<polygon style="fill:#2B3B4E;" points="324.4,209.6 142.8,198.4 142.8,151.6 324.4,140.4  "/>
	<path style="fill:#2B3B4E;" d="M367.6,164l-42,21.6L414,451.2c36-29.2,63.6-68,79.6-112.8L367.6,164z"/>
</g>
<circle style="fill:#FFFFFF;" cx="343.2" cy="174.8" r="62.4"/>
<circle style="fill:#E6E9EE;" cx="343.2" cy="174.8" r="34.8"/>
<g>
	<circle style="fill:#FFFFFF;" cx="343.2" cy="174.8" r="17.6"/>
	<circle style="fill:#FFFFFF;" cx="119.2" cy="174.8" r="46.8"/>
</g>
<circle style="fill:#E6E9EE;" cx="119.2" cy="174.8" r="26"/>
<circle style="fill:#FFFFFF;" cx="119.2" cy="174.8" r="12.4"/>
<g>
</g>
<g>
</g>
<g>
</g>
<g>
</g>
<g>
</g>
<g>
</g>
<g>
</g>
<g>
</g>
<g>
</g>
<g>
</g>
<g>
</g>
<g>
</g>
<g>
</g>
<g>
</g>
<g>
</g>
</svg>
