<?xml version="1.0" encoding="iso-8859-1"?>
<!-- Generator: Adobe Illustrator 19.0.0, SVG Export Plug-In . SVG Version: 6.00 Build 0)  -->
<svg xmlns="http://www.w3.org/2000/svg" xmlns:xlink="http://www.w3.org/1999/xlink" version="1.1" id="Layer_1" x="0px" y="0px" viewBox="0 0 508.011 508.011" style="enable-background:new 0 0 508.011 508.011;" xml:space="preserve">
<circle style="fill:#FD8469;" cx="254.005" cy="254" r="254"/>
<path style="fill:#F1543F;" d="M43.605,396c46,68.4,124.8,112.8,213.2,112c86.8-0.8,162.8-45.2,208-112H43.605z"/>
<rect x="128.405" y="367.2" style="fill:#324A5E;" width="251.2" height="28.8"/>
<polygon style="fill:#2B3B4E;" points="307.205,367.2 200.805,367.2 222.805,263.2 285.205,263.2 "/>
<path style="fill:#FFFFFF;" d="M455.205,244.4c-0.8-2.8-1.2-6-1.2-8.8c0-19.6-14.8-38.8-26.8-51.6c-9.2-9.6-22-15.2-35.2-15.2h-120  c-18.4,0-36.4,5.2-52.4,14.8l-54,32.8c-44-96.4-70-84-71.2-83.6c0.8-0.4,18-3.6,56.8,86.4c-134,8.8-102.4,80.8-102.4,80.8h43.6  c-0.4-2.4-0.8-4.8-0.8-7.2c0-18,15.2-32.4,33.2-31.6c16.4,0.8,29.6,14,30.4,30.4c0,2.8,0,5.6-0.8,8.4h229.2  c-0.4-2.4-0.8-4.8-0.8-7.2c0-18,15.2-32.8,33.2-31.6c16.4,0.8,29.6,14.4,30.4,30.4c0,2.8,0,5.6-0.8,8.4h11.2  C468.405,290.4,459.205,256.4,455.205,244.4z M284.805,214.8l-88.8,12.4c-28.8,5.6-19.6-12.4-19.6-12.4l45.6-28  c15.2-9.2,32.4-14,50-14h20L284.805,214.8z M302.805,214.8l1.2-42h65.2l14.4,42H302.805z M396.405,214.8l-16-42h12  c12,0,24,5.2,32,14c7.2,7.6,15.2,17.2,20,28H396.405z"/>
<g>
</g>
<g>
</g>
<g>
</g>
<g>
</g>
<g>
</g>
<g>
</g>
<g>
</g>
<g>
</g>
<g>
</g>
<g>
</g>
<g>
</g>
<g>
</g>
<g>
</g>
<g>
</g>
<g>
</g>
</svg>
