<?xml version="1.0" encoding="iso-8859-1"?>
<!-- Generator: Adobe Illustrator 19.0.0, SVG Export Plug-In . SVG Version: 6.00 Build 0)  -->
<svg xmlns="http://www.w3.org/2000/svg" xmlns:xlink="http://www.w3.org/1999/xlink" version="1.1" id="Layer_1" x="0px" y="0px" viewBox="0 0 508 508" style="enable-background:new 0 0 508 508;" xml:space="preserve">
<circle style="fill:#FD8469;" cx="254" cy="254" r="254"/>
<path style="fill:#FFFFFF;" d="M338.8,415.2H118c-14,0-25.2-11.2-25.2-25.2V118c0-14,11.2-25.2,25.2-25.2h272  c14,0,25.2,11.2,25.2,25.2v220.8C415.2,380.8,380.8,415.2,338.8,415.2z"/>
<path style="fill:#E6E9EE;" d="M362,362.4c-1.6,44.8-22.8,52.8-22.8,52.8l0,0c42,0,76-34,76-76l0,0C415.2,339.2,420.8,362,362,362.4  z"/>
<path style="fill:#324A5E;" d="M156.8,171.2c-9.2,0-16.4-7.2-16.4-16.4s7.2-16.4,16.4-16.4s16.4,7.2,16.4,16.4  c0,2.8,2.4,5.2,5.2,5.2s5.2-2.4,5.2-5.2c0-13.2-9.2-24-21.6-26.8v-5.6c0-2.8-2.4-5.2-5.2-5.2s-5.2,2.4-5.2,5.2v5.6  c-12.4,2.4-21.6,13.6-21.6,26.8c0,14.8,12,27.2,27.2,27.2c9.2,0,16.4,7.2,16.4,16.4s-7.2,16.4-16.4,16.4s-16.4-7.2-16.4-16.4  c0-2.8-2.4-5.2-5.2-5.2s-5.2,2.4-5.2,5.2c0,13.2,9.2,24,21.6,26.8v6.8c0,2.8,2.4,5.2,5.2,5.2s5.2-2.4,5.2-5.2v-6.8  c12.4-2.4,21.6-13.6,21.6-26.8C184,183.2,172,171.2,156.8,171.2z"/>
<g>
	<rect x="210.8" y="132" style="fill:#E6E9EE;" width="180" height="12.4"/>
	<rect x="210.8" y="164.4" style="fill:#E6E9EE;" width="180" height="12.4"/>
	<rect x="210.8" y="196.8" style="fill:#E6E9EE;" width="180" height="12.4"/>
	<rect x="210.8" y="229.6" style="fill:#E6E9EE;" width="180" height="12.4"/>
	<rect x="117.6" y="262" style="fill:#E6E9EE;" width="273.2" height="12.4"/>
	<rect x="117.6" y="294.4" style="fill:#E6E9EE;" width="273.2" height="12.4"/>
</g>
<g>
</g>
<g>
</g>
<g>
</g>
<g>
</g>
<g>
</g>
<g>
</g>
<g>
</g>
<g>
</g>
<g>
</g>
<g>
</g>
<g>
</g>
<g>
</g>
<g>
</g>
<g>
</g>
<g>
</g>
</svg>
