<?xml version="1.0" encoding="iso-8859-1"?>
<!-- Generator: Adobe Illustrator 19.0.0, SVG Export Plug-In . SVG Version: 6.00 Build 0)  -->
<svg xmlns="http://www.w3.org/2000/svg" xmlns:xlink="http://www.w3.org/1999/xlink" version="1.1" id="Layer_1" x="0px" y="0px" viewBox="0 0 508 508" style="enable-background:new 0 0 508 508;" xml:space="preserve">
<circle style="fill:#FFD05B;" cx="254" cy="254" r="254"/>
<path style="fill:#FFFFFF;" d="M410.4,412H97.6c-11.2,0-20.4-9.2-20.4-20.4v-208c0-11.2,9.2-20.4,20.4-20.4H410  c11.2,0,20.4,9.2,20.4,20.4V392C430.8,402.8,421.6,412,410.4,412z"/>
<rect x="88.8" y="217.2" style="fill:#E6E9EE;" width="330.8" height="174"/>
<rect x="218" y="175.6" style="fill:#324A5E;" width="72" height="15.2"/>
<rect x="224.8" y="96" style="fill:#FF7058;" width="58.8" height="87.2"/>
<g>
	<rect x="236.8" y="240.8" style="fill:#CED5E0;" width="164.8" height="12"/>
	<rect x="236.8" y="277.6" style="fill:#CED5E0;" width="164.8" height="12"/>
	<rect x="236.8" y="314.4" style="fill:#CED5E0;" width="164.8" height="12"/>
	<rect x="236.8" y="351.2" style="fill:#CED5E0;" width="64.8" height="12"/>
</g>
<rect x="105.6" y="240.8" style="fill:#54C0EB;" width="109.2" height="117.2"/>
<path style="fill:#FFFFFF;" d="M174,318.4L174,318.4c-2.8,15.6-12.4,16.4-13.6,16.4c-1.2,0-10.8-0.8-13.6-16.4l0,0l1.2-3.6  c3.6,4.4,8,7.6,12.4,7.6c4.8,0,9.2-3.2,12.4-7.6L174,318.4z"/>
<path style="fill:#E6E9EE;" d="M173.2,316c-3.6,4.8-8,8-13.2,8c-4.8,0-9.6-3.2-13.2-8l0.4-1.6c3.6,4.4,8,7.6,12.4,7.6  c4.8,0,9.2-3.2,12.4-7.6L173.2,316z"/>
<path style="fill:#324A5E;" d="M209.6,358c-3.2-16.8-9.2-22.4-9.2-22.4c-25.2-8.8-26.8-17.2-26.8-17.2  c-2.8,15.6-12.4,16.4-13.6,16.4c-1.2,0-10.8-0.8-13.6-16.4c0,0-0.4,8-26.8,17.2c0,0-6,5.6-9.2,22.4H209.6z"/>
<g>
	<path style="fill:#FFD05B;" d="M188.8,358c-1.2-9.6-2-20.8-1.2-27.6c-2.4-1.2-4.4-2.4-6-3.2l-2,30.8H188.8z"/>
	<path style="fill:#FFD05B;" d="M132,358h9.2l-2-31.2c-1.6,1.2-3.6,2-6,3.2C134,337.2,132.8,348.4,132,358z"/>
</g>
<path style="fill:#FFFFFF;" d="M178.4,296.8c0.8,3.6-0.8,9.2-0.8,10l0,0c-3.6,8-10,15.2-17.2,15.2s-13.6-7.2-17.2-15.6l0,0  c0-0.4-1.6-6.4-0.8-10L178.4,296.8L178.4,296.8z"/>
<g>
	<path style="fill:#324A5E;" d="M177.6,306.8c0,0,1.6-6,0.8-10h3.2C181.6,296.8,180.8,303.2,177.6,306.8z"/>
	<path style="fill:#324A5E;" d="M143.2,306.8c-3.2-3.2-4.4-10-4.4-10h3.2C141.6,300.4,143.2,306.8,143.2,306.8z"/>
</g>
<g>
	<path style="fill:#F1543F;" d="M147.6,263.6l4,26h-14.4c-0.4-2-0.8-4-0.8-6C136.4,275.2,140.8,267.6,147.6,263.6z"/>
	<path style="fill:#F1543F;" d="M184.4,283.6c0,2-0.4,4-0.8,6h-14.4l4-26C180,267.6,184.4,275.2,184.4,283.6z"/>
</g>
<path style="fill:#FF7058;" d="M183.6,289.6h-14.4l4-26c0.4-2.8-1.6-5.2-4.4-5.2H152c-2.8,0-4.8,2.4-4.4,5.2l4,26h-14.4  c-2,0-3.6,1.6-3.6,3.6s1.6,3.6,3.6,3.6H184c2,0,3.6-1.6,3.6-3.6C187.2,291.2,185.6,289.6,183.6,289.6z"/>
<g>
</g>
<g>
</g>
<g>
</g>
<g>
</g>
<g>
</g>
<g>
</g>
<g>
</g>
<g>
</g>
<g>
</g>
<g>
</g>
<g>
</g>
<g>
</g>
<g>
</g>
<g>
</g>
<g>
</g>
</svg>
