<?xml version="1.0" encoding="iso-8859-1"?>
<!-- Generator: Adobe Illustrator 19.0.0, SVG Export Plug-In . SVG Version: 6.00 Build 0)  -->
<svg xmlns="http://www.w3.org/2000/svg" xmlns:xlink="http://www.w3.org/1999/xlink" version="1.1" id="Layer_1" x="0px" y="0px" viewBox="0 0 508 508" style="enable-background:new 0 0 508 508;" xml:space="preserve">
<circle style="fill:#84DBFF;" cx="254" cy="254" r="254"/>
<path style="fill:#E6E9EE;" d="M206,101.2l5.2,68l38-2.8c0-1.2,0-2.4,0-3.6C246.8,134.8,229.6,111.6,206,101.2z"/>
<path style="fill:#FFFFFF;" d="M390,330.4L253.2,215.2l-0.4-63.2l-90.4,18.4l-6-76.8c-30.4,10.4-58,47.2-55.2,81.2  c3.2,40.4,38.4,70.4,78.4,67.6c5.2-0.4,10.4-1.6,15.6-3.2L326,394.4c17.2,20.4,48,21.6,66.8,2.8l0,0  C411.6,378.4,410.4,347.6,390,330.4z"/>
<rect x="184.035" y="173.955" transform="matrix(-0.9764 0.216 -0.216 -0.9764 457.0695 327.5583)" style="fill:#E6E9EE;" width="53.2" height="29.6"/>
<rect x="184.035" y="183.559" transform="matrix(-0.9764 0.216 -0.216 -0.9764 457.0703 327.5662)" style="fill:#CED5E0;" width="53.2" height="10.4"/>
<g>
	<path style="fill:#FFFFFF;" d="M195.6,202.4L195.6,202.4c-1.6,0.4-3.2-0.8-3.6-2.4l-3.2-14c-0.4-1.6,0.8-3.2,2.4-3.6l0,0   c1.6-0.4,3.2,0.8,3.6,2.4l3.2,14.4C198.4,200.4,197.2,202.4,195.6,202.4z"/>
	<path style="fill:#FFFFFF;" d="M206.8,200L206.8,200c-1.6,0.4-3.2-0.8-3.6-2.4l-3.2-14.4c-0.4-1.6,0.8-3.2,2.4-3.6l0,0   c1.6-0.4,3.2,0.8,3.6,2.4l3.2,14.4C209.6,198,208.8,199.6,206.8,200z"/>
	<path style="fill:#FFFFFF;" d="M218.4,197.6L218.4,197.6c-1.6,0.4-3.2-0.8-3.6-2.4l-3.2-14.4c-0.4-1.6,0.8-3.2,2.4-3.6l0,0   c1.6-0.4,3.2,0.8,3.6,2.4l3.2,14.4C221.2,195.6,220,197.2,218.4,197.6z"/>
	<path style="fill:#FFFFFF;" d="M229.6,195.2L229.6,195.2c-1.6,0.4-3.2-0.8-3.6-2.4l-3.2-14.4c-0.4-1.6,0.8-3.2,2.4-3.6l0,0   c1.6-0.4,3.2,0.8,3.6,2.4l3.2,14.4C232.4,192.8,231.2,194.8,229.6,195.2z"/>
</g>
<circle style="fill:#84DBFF;" cx="356.4" cy="360.8" r="26"/>
<g>
</g>
<g>
</g>
<g>
</g>
<g>
</g>
<g>
</g>
<g>
</g>
<g>
</g>
<g>
</g>
<g>
</g>
<g>
</g>
<g>
</g>
<g>
</g>
<g>
</g>
<g>
</g>
<g>
</g>
</svg>
