<?xml version="1.0" encoding="iso-8859-1"?>
<!-- Generator: Adobe Illustrator 19.0.0, SVG Export Plug-In . SVG Version: 6.00 Build 0)  -->
<svg xmlns="http://www.w3.org/2000/svg" xmlns:xlink="http://www.w3.org/1999/xlink" version="1.1" id="Layer_1" x="0px" y="0px" viewBox="0 0 508 508" style="enable-background:new 0 0 508 508;" xml:space="preserve">
<circle style="fill:#324A5E;" cx="254" cy="254" r="254"/>
<path style="fill:#2B3B4E;" d="M71.6,430.4C117.6,478,182.4,508,254,508s136.4-29.6,182.4-77.6H71.6z"/>
<g>
	<rect x="378.4" y="409.2" style="fill:#E6E9EE;" width="21.6" height="12"/>
	<rect x="243.2" y="409.2" style="fill:#E6E9EE;" width="21.6" height="12"/>
	<rect x="107.6" y="409.2" style="fill:#E6E9EE;" width="21.6" height="12"/>
</g>
<g>
	<rect x="86.4" y="421.6" style="fill:#FFFFFF;" width="334.8" height="9.2"/>
	<rect x="86.4" y="400.4" style="fill:#FFFFFF;" width="334.8" height="9.2"/>
</g>
<path style="fill:#FFD05B;" d="M392.8,400.4H270.4c-4,0-7.2-3.2-7.2-7.2V288.4c0-4,3.2-7.2,7.2-7.2h122.4c4,0,7.2,3.2,7.2,7.2v104.4  C400,397.2,396.8,400.4,392.8,400.4z"/>
<rect x="312" y="281.2" style="fill:#F9B54C;" width="38.8" height="14.8"/>
<path style="fill:#FFD05B;" d="M237.6,400.4H115.2c-4,0-7.2-3.2-7.2-7.2V288.4c0-4,3.2-7.2,7.2-7.2h122.4c4,0,7.2,3.2,7.2,7.2v104.4  C244.8,397.2,241.6,400.4,237.6,400.4z"/>
<rect x="157.2" y="281.2" style="fill:#F9B54C;" width="38.8" height="14.8"/>
<g>
	<rect x="378.4" y="260" style="fill:#E6E9EE;" width="21.6" height="12"/>
	<rect x="243.2" y="260" style="fill:#E6E9EE;" width="21.6" height="12"/>
	<rect x="107.6" y="260" style="fill:#E6E9EE;" width="21.6" height="12"/>
</g>
<g>
	<rect x="86.4" y="272" style="fill:#FFFFFF;" width="334.8" height="9.2"/>
	<rect x="86.4" y="251.2" style="fill:#FFFFFF;" width="334.8" height="9.2"/>
</g>
<path style="fill:#FFD05B;" d="M392.8,251.2H270.4c-4,0-7.2-3.2-7.2-7.2V139.2c0-4,3.2-7.2,7.2-7.2h122.4c4,0,7.2,3.2,7.2,7.2v104.4  C400,247.6,396.8,251.2,392.8,251.2z"/>
<rect x="312" y="132" style="fill:#F9B54C;" width="38.8" height="14.8"/>
<path style="fill:#FFD05B;" d="M237.6,251.2H115.2c-4,0-7.2-3.2-7.2-7.2V139.2c0-4,3.2-7.2,7.2-7.2h122.4c4,0,7.2,3.2,7.2,7.2v104.4  C244.8,247.6,241.6,251.2,237.6,251.2z"/>
<rect x="157.2" y="132" style="fill:#F9B54C;" width="38.8" height="14.8"/>
<g>
</g>
<g>
</g>
<g>
</g>
<g>
</g>
<g>
</g>
<g>
</g>
<g>
</g>
<g>
</g>
<g>
</g>
<g>
</g>
<g>
</g>
<g>
</g>
<g>
</g>
<g>
</g>
<g>
</g>
</svg>
