<?xml version="1.0" encoding="iso-8859-1"?>
<!-- Generator: Adobe Illustrator 19.0.0, SVG Export Plug-In . SVG Version: 6.00 Build 0)  -->
<svg xmlns="http://www.w3.org/2000/svg" xmlns:xlink="http://www.w3.org/1999/xlink" version="1.1" id="Layer_1" x="0px" y="0px" viewBox="0 0 508 508" style="enable-background:new 0 0 508 508;" xml:space="preserve">
<circle style="fill:#90DFAA;" cx="254" cy="254" r="254"/>
<path style="fill:#FFFFFF;" d="M380,279.2c-4,45.2-24.4,84.4-54,108.8c-13.2-13.2-40.4-22-72-22s-58.8,9.2-72,22.4  c-29.6-24.4-50-63.6-54-108.8h252V279.2z"/>
<path style="fill:#FFD05B;" d="M394.8,212.4c0,11.6-1.6,22.8-4,34H117.2c-2.8-10.8-4-22-4-34c0-77.6,63.2-140.8,140.8-140.8  C331.6,71.6,394.8,134.4,394.8,212.4z"/>
<g>
	<path style="fill:#F9B54C;" d="M327.2,122.4L308.4,182c-8.8-21.6-29.6-36.4-54.4-36.4c-24.4,0-45.6,15.2-54.4,36.4l-18.8-59.6   c-2.8-9.2-4-18.8-3.2-28C199.6,80,226,71.6,254,71.6c28.4,0,54.4,8.4,76.4,22.8C331.2,103.6,330,113.2,327.2,122.4z"/>
	<path style="fill:#F9B54C;" d="M395.2,279.2H112.8c-9.2,0-16.8-7.6-16.8-16.8l0,0c0-9.2,7.6-16.8,16.8-16.8h282.4   c9.2,0,16.8,7.6,16.8,16.8l0,0C412,272,404.4,279.2,395.2,279.2z"/>
</g>
<path style="fill:#FFD05B;" d="M312.8,106.8c0,3.6-0.4,7.2-0.8,10.8l-10,52.8c-10.4-15.2-28-25.2-48-25.2s-37.2,10-48,24.8  l-9.6-52.8C189.6,81.2,217.6,48,254,48C286.8,48,312.8,75.2,312.8,106.8z"/>
<circle style="fill:#FFFFFF;" cx="254" cy="204" r="58.8"/>
<circle style="fill:#54C0EB;" cx="254" cy="204" r="42.8"/>
<ellipse transform="matrix(0.7071 -0.7071 0.7071 0.7071 -62.971 225.342)" style="fill:#FFFFFF;" cx="240.526" cy="188.684" rx="19.6" ry="8.8"/>
<path style="fill:#324A5E;" d="M387.2,279.2H380c-4,45.2-24.4,84.4-54,108.8c-13.2-13.2-40.4-22-72-22s-58.8,9.2-72,22.4  c-29.6-24.4-50-63.6-54-108.8h-7.2c0,2,0,4,0,6C120.8,382,180.4,460,254,460s133.2-78,133.2-174.4  C387.2,283.2,387.2,281.2,387.2,279.2z"/>
<path style="fill:#FFFFFF;" d="M216.4,390.4c7.6,12.8,21.6,21.2,37.6,21.2s29.6-8.4,37.6-21.2H216.4z"/>
<g>
	<circle style="fill:#324A5E;" cx="303.2" cy="310.8" r="13.6"/>
	<circle style="fill:#324A5E;" cx="204.8" cy="310.8" r="13.6"/>
</g>
<g>
</g>
<g>
</g>
<g>
</g>
<g>
</g>
<g>
</g>
<g>
</g>
<g>
</g>
<g>
</g>
<g>
</g>
<g>
</g>
<g>
</g>
<g>
</g>
<g>
</g>
<g>
</g>
<g>
</g>
</svg>
