<?xml version="1.0" encoding="iso-8859-1"?>
<!-- Generator: Adobe Illustrator 19.0.0, SVG Export Plug-In . SVG Version: 6.00 Build 0)  -->
<svg xmlns="http://www.w3.org/2000/svg" xmlns:xlink="http://www.w3.org/1999/xlink" version="1.1" id="Layer_1" x="0px" y="0px" viewBox="0 0 508 508" style="enable-background:new 0 0 508 508;" xml:space="preserve">
<circle style="fill:#324A5E;" cx="254" cy="254" r="254"/>
<g>
	<polygon style="fill:#FFD05B;" points="84.4,187.2 123.6,170.4 123.2,127.2 166.4,126.8 182.4,87.2 222,103.2 252,72.4    282.8,102.4 322,85.6 338.8,125.2 382,124.4 382.4,167.6 422,183.6 412.4,207.2 94.4,210.8  "/>
	<polygon style="fill:#FFD05B;" points="384.4,340.4 384.8,383.2 341.6,383.6 325.6,423.2 286,407.6 256,438 225.2,408 186,424.8    169.2,385.6 126,386 125.6,343.2 86,327.2 95.6,303.2 413.6,299.6 423.6,323.2  "/>
</g>
<path style="fill:#F9B54C;" d="M252.4,125.2C180.8,126,123.2,184.8,124,256.8c0.8,71.6,59.6,129.2,131.2,128.4  c72-0.8,129.6-59.6,128.8-131.2C383.2,182,324.4,124.4,252.4,125.2z M255.2,368c-62.4,0.8-113.2-49.2-114-111.6  s49.2-113.2,111.6-114c62.4-0.4,113.2,49.2,114,111.6C367.2,316.4,317.6,367.2,255.2,368z"/>
<path style="fill:#FFFFFF;" d="M422.8,299.6l-338,3.6c-25.6,0.4-46.4-20-46.8-45.6l0,0c-0.4-25.6,20-46.4,45.6-46.8l338-3.6  c25.6-0.4,46.4,20,46.8,45.6l0,0C468.8,278.4,448.4,299.2,422.8,299.6z"/>
<g>
	<path style="fill:#FF7058;" d="M354.8,278.8c0,2.4-2,4.8-4.8,4.8h-25.6c-2.8,0-4.8-2-4.8-4.8V232c0-2.4,2-4.8,4.8-4.8H350   c2.8,0,4.8,2,4.8,4.8s-2,4.8-4.8,4.8h-20.8v14h16.4c2.4,0,4.8,2,4.8,4.8c0,2.4-2,4.8-4.8,4.8h-16.4V274H350   C352.8,274,354.8,276,354.8,278.8z"/>
	<path style="fill:#FF7058;" d="M106,227.2H93.2c-2.4,0-4.8,2-4.8,4.8v46.8c0,2.4,2,4.8,4.8,4.8s4.8-2,4.8-4.8v-14h8l0,0   c10.4,0,18.8-8.4,18.8-18.8l0,0C124.8,235.6,116.4,227.2,106,227.2L106,227.2z M106,255.2h-8v-18.8h8c5.2,0,9.2,4,9.2,9.2   C115.2,251.2,111.2,255.2,106,255.2z"/>
	<path style="fill:#FF7058;" d="M184.4,276.8L165.6,230c-0.8-1.6-2.4-2.8-4-2.8s-3.6,1.2-4,2.8l-18.8,46.8c-1.2,3.2,1.2,6.4,4.4,6.4   c2,0,3.6-1.2,4.4-2.8l3.6-8.8h21.2l3.6,8.8c0.8,1.6,2.4,2.8,4.4,2.8C183.6,283.2,185.6,280,184.4,276.8z M154.8,262.4l6.8-17.6   l6.8,17.6H154.8z"/>
	<path style="fill:#FF7058;" d="M222.4,250.8c-4,0-6.8-3.2-6.8-6.8c0-4,3.2-6.8,6.8-6.8c2,0,3.6,0.8,5.2,2.4c1.6,2,4.8,2,6.4,0.4   c2-1.6,2-4.8,0.4-6.4c-3.2-3.2-7.6-5.2-12-5.2c-9.2,0-16.4,7.2-16.4,16.4s7.2,16.4,16.4,16.4c4,0,6.8,3.2,6.8,6.8   c0,4-3.2,6.8-6.8,6.8c-2,0-3.6-0.8-5.2-2.4c-1.6-2-4.8-2-6.4-0.4c-2,1.6-2,4.8-0.4,6.4c3.2,3.2,7.6,5.2,12,5.2   c9.2,0,16.4-7.2,16.4-16.4C238.8,258,231.2,250.8,222.4,250.8z"/>
	<path style="fill:#FF7058;" d="M280,250.8c-4,0-6.8-3.2-6.8-6.8c0-4,3.2-6.8,6.8-6.8c2,0,3.6,0.8,5.2,2.4c1.6,2,4.8,2,6.4,0.4   c2-1.6,2-4.8,0.4-6.4c-3.2-3.2-7.6-5.2-12-5.2c-9.2,0-16.4,7.2-16.4,16.4s7.2,16.4,16.4,16.4c4,0,6.8,3.2,6.8,6.8   c0,4-3.2,6.8-6.8,6.8c-2,0-3.6-0.8-5.2-2.4c-1.6-2-4.8-2-6.4-0.4c-2,1.6-2,4.8-0.4,6.4c3.2,3.2,7.6,5.2,12,5.2   c9.2,0,16.4-7.2,16.4-16.4S288.8,250.8,280,250.8z"/>
	<path style="fill:#FF7058;" d="M394.4,283.2H382c-2.4,0-4.8-2-4.8-4.8V232c0-2.4,2-4.8,4.8-4.8h12.4c15.6,0,28,12.4,28,28   C422.4,270.8,409.6,283.2,394.4,283.2z M386.8,274h7.6c10.4,0,18.8-8.4,18.8-18.8s-8.4-18.8-18.8-18.8h-7.6V274z"/>
</g>
<g>
</g>
<g>
</g>
<g>
</g>
<g>
</g>
<g>
</g>
<g>
</g>
<g>
</g>
<g>
</g>
<g>
</g>
<g>
</g>
<g>
</g>
<g>
</g>
<g>
</g>
<g>
</g>
<g>
</g>
</svg>
