<?xml version="1.0" encoding="iso-8859-1"?>
<!-- Generator: Adobe Illustrator 19.0.0, SVG Export Plug-In . SVG Version: 6.00 Build 0)  -->
<svg xmlns="http://www.w3.org/2000/svg" xmlns:xlink="http://www.w3.org/1999/xlink" version="1.1" id="Layer_1" x="0px" y="0px" viewBox="0 0 508 508" style="enable-background:new 0 0 508 508;" xml:space="preserve">
<circle style="fill:#90DFAA;" cx="254" cy="254" r="254"/>
<rect x="242.4" y="64.8" style="fill:#2B3B4E;" width="23.2" height="98.8"/>
<g>
	<path style="fill:#324A5E;" d="M286.8,255c-0.9,0-1.9-0.3-2.7-0.8c-2.3-1.5-3-4.6-1.5-6.9l24.1-37.3L288,168.6h-38.4   c-2.8,0-5-2.2-5-5s2.2-5,5-5h41.6c2,0,3.7,1.1,4.6,2.9l21.2,46.8c0.7,1.5,0.6,3.3-0.4,4.8L291,252.7C290,254.2,288.4,255,286.8,255   z"/>
	<path style="fill:#324A5E;" d="M221.2,255c-1.6,0-3.2-0.8-4.2-2.3l-25.6-39.6c-0.9-1.4-1.1-3.2-0.4-4.8l21.2-46.8   c0.8-1.8,2.6-2.9,4.6-2.9h41.6c2.8,0,5,2.2,5,5s-2.2,5-5,5H220L201.3,210l24.1,37.3c1.5,2.3,0.8,5.4-1.5,6.9   C223.1,254.7,222.1,255,221.2,255z"/>
</g>
<path style="fill:#2C9984;" d="M82,440.8c45.2,41.6,105.6,67.2,172,67.2s126.8-25.6,172-67.2H82z"/>
<path style="fill:#324A5E;" d="M64,85.6h380C430,70,414.4,56,396.8,44H111.2C94,55.6,78,69.6,64,85.6z"/>
<circle style="fill:#FFFFFF;" cx="254" cy="163.6" r="30.4"/>
<circle style="fill:#E6E9EE;" cx="254" cy="163.6" r="18"/>
<path style="fill:#324A5E;" d="M382.4,440.8H125.6c-20,0-36-16-36-36v-3.2c0-20,16.4-36,36-36h256.8c20,0,36,16,36,36v3.2  C418.8,424.8,402.4,440.8,382.4,440.8z"/>
<g>
	<circle style="fill:#2B3B4E;" cx="381.6" cy="403.2" r="18"/>
	<circle style="fill:#2B3B4E;" cx="317.6" cy="403.2" r="18"/>
	<circle style="fill:#2B3B4E;" cx="254" cy="403.2" r="18"/>
	<circle style="fill:#2B3B4E;" cx="190.4" cy="403.2" r="18"/>
	<circle style="fill:#2B3B4E;" cx="126.4" cy="403.2" r="18"/>
</g>
<path style="fill:#FFFFFF;" d="M300,365.2h-92c-4,0-7.2-3.2-7.2-7.2v-76c0-4,3.2-7.2,7.2-7.2h92c4,0,7.2,3.2,7.2,7.2v76  C307.2,362,304,365.2,300,365.2z"/>
<rect x="240" y="274.8" style="fill:#E6E9EE;" width="28" height="10.8"/>
<g>
</g>
<g>
</g>
<g>
</g>
<g>
</g>
<g>
</g>
<g>
</g>
<g>
</g>
<g>
</g>
<g>
</g>
<g>
</g>
<g>
</g>
<g>
</g>
<g>
</g>
<g>
</g>
<g>
</g>
</svg>
