<?xml version="1.0" encoding="iso-8859-1"?>
<!-- Generator: Adobe Illustrator 19.0.0, SVG Export Plug-In . SVG Version: 6.00 Build 0)  -->
<svg xmlns="http://www.w3.org/2000/svg" xmlns:xlink="http://www.w3.org/1999/xlink" version="1.1" id="Layer_1" x="0px" y="0px" viewBox="0 0 508 508" style="enable-background:new 0 0 508 508;" xml:space="preserve">
<circle style="fill:#54C0EB;" cx="254" cy="254" r="254"/>
<g>
	<path style="fill:#324A5E;" d="M355.6,192.4h-6v-60c0-1.6,1.2-3.2,3.2-3.2l0,0c1.6,0,3.2,1.2,3.2,3.2v60H355.6z"/>
	<path style="fill:#324A5E;" d="M388.4,178h-6v-59.6c0-1.6,1.2-3.2,3.2-3.2l0,0c1.6,0,3.2,1.2,3.2,3.2V178H388.4z"/>
	<path style="fill:#324A5E;" d="M370,404.8H196.8c-10.8,0-19.6-8.8-19.6-19.6v-26.8h8v26.8c0,6.4,5.2,11.6,11.6,11.6H370   c6.4,0,11.6-5.2,11.6-11.6V190.4h8v194.8C389.2,396,380.8,404.8,370,404.8z"/>
	<path style="fill:#324A5E;" d="M336.8,430.4H170.4c-10.8,0-19.6-8.8-19.6-19.6V352h8v58.8c0,6.4,5.2,11.6,11.6,11.6h166.4   c6.4,0,11.6-5.2,11.6-11.6V184h8v226.8C356.4,421.6,347.6,430.4,336.8,430.4z"/>
</g>
<rect x="147.2" y="347.6" style="fill:#FFFFFF;" width="15.2" height="21.6"/>
<rect x="174" y="347.6" style="fill:#FF7058;" width="15.2" height="21.6"/>
<path style="fill:#324A5E;" d="M310.8,353.2h-190c-6.4,0-12-5.2-12-12V89.6c0-6.4,5.2-12,12-12h190c6.4,0,12,5.2,12,12v251.6  C322.4,347.6,317.2,353.2,310.8,353.2z"/>
<rect x="122.8" y="96.4" style="fill:#FFFFFF;" width="185.6" height="136.8"/>
<circle style="fill:#CED5E0;" cx="215.6" cy="291.6" r="34.4"/>
<circle style="fill:#ACB3BA;" cx="215.6" cy="291.6" r="26.8"/>
<polygon style="fill:#CED5E0;" points="200,317.2 190,307.2 234.8,267.2 240,272.4 "/>
<rect x="375.6" y="162" style="fill:#FF7058;" width="20" height="64"/>
<rect x="342.4" y="172.4" style="fill:#FFFFFF;" width="20" height="64"/>
<path style="fill:#F1543F;" d="M395.6,177.2h-20.4c-2,0-3.6-1.6-3.6-3.6l0,0c0-2,1.6-3.6,3.6-3.6h20.4c2,0,3.6,1.6,3.6,3.6l0,0  C399.2,175.6,397.6,177.2,395.6,177.2z"/>
<path style="fill:#CED5E0;" d="M362.8,189.6h-20.4c-2,0-3.6-1.6-3.6-3.6l0,0c0-2,1.6-3.6,3.6-3.6h20.4c2,0,3.6,1.6,3.6,3.6l0,0  C366,188,364.4,189.6,362.8,189.6z"/>
<g>
	<path style="fill:#E6E9EE;" d="M215.6,133.2L215.6,133.2c-1.6,0-2.8-1.2-2.8-2.8v-19.2c0-1.6,1.2-2.8,2.8-2.8l0,0   c1.6,0,2.8,1.2,2.8,2.8v19.2C218.4,131.6,217.2,133.2,215.6,133.2z"/>
	<path style="fill:#E6E9EE;" d="M256.8,150L256.8,150c-1.2-1.2-1.2-2.8,0-4l13.6-13.6c1.2-1.2,2.8-1.2,4,0l0,0c1.2,1.2,1.2,2.8,0,4   L260.8,150C260,151.2,258,151.2,256.8,150z"/>
	<path style="fill:#E6E9EE;" d="M156.8,132.4L156.8,132.4c1.2-1.2,2.8-1.2,4,0l13.6,13.6c1.2,1.2,1.2,2.8,0,4l0,0   c-1.2,1.2-2.8,1.2-4,0l-13.6-13.6C155.6,135.2,155.6,133.6,156.8,132.4z"/>
	<path style="fill:#E6E9EE;" d="M193.2,137.6L193.2,137.6c-1.6,0.4-3.2,0-3.6-1.6l-7.2-18c-0.4-1.6,0-3.2,1.6-3.6l0,0   c1.6-0.4,3.2,0,3.6,1.6l7.6,18C195.6,135.2,194.8,136.8,193.2,137.6z"/>
	<path style="fill:#E6E9EE;" d="M269.6,169.2L269.6,169.2c-0.4-1.6,0-3.2,1.6-3.6l18-7.6c1.6-0.4,3.2,0,3.6,1.6l0,0   c0.4,1.6,0,3.2-1.6,3.6l-18,7.6C272,171.2,270,170.4,269.6,169.2z"/>
	<path style="fill:#E6E9EE;" d="M238,137.6L238,137.6c-1.6-0.4-2-2.4-1.6-3.6l7.6-18c0.4-1.6,2.4-2,3.6-1.6l0,0   c1.6,0.4,2,2.4,1.6,3.6l-7.6,18C241.2,137.2,239.6,138,238,137.6z"/>
	<path style="fill:#E6E9EE;" d="M138.8,159.6L138.8,159.6c0.4-1.6,2.4-2,3.6-1.6l18,7.6c1.6,0.4,2,2.4,1.6,3.6l0,0   c-0.4,1.6-2.4,2-3.6,1.6l-18-7.6C138.8,162.4,138,160.8,138.8,159.6z"/>
</g>
<g>
</g>
<g>
</g>
<g>
</g>
<g>
</g>
<g>
</g>
<g>
</g>
<g>
</g>
<g>
</g>
<g>
</g>
<g>
</g>
<g>
</g>
<g>
</g>
<g>
</g>
<g>
</g>
<g>
</g>
</svg>
