<?xml version="1.0" encoding="iso-8859-1"?>
<!-- Generator: Adobe Illustrator 19.0.0, SVG Export Plug-In . SVG Version: 6.00 Build 0)  -->
<svg xmlns="http://www.w3.org/2000/svg" xmlns:xlink="http://www.w3.org/1999/xlink" version="1.1" id="Layer_1" x="0px" y="0px" viewBox="0 0 508 508" style="enable-background:new 0 0 508 508;" xml:space="preserve">
<circle style="fill:#84DBFF;" cx="254" cy="254" r="254"/>
<path style="fill:#54C0EB;" d="M74.4,433.2c46,46,109.6,74.8,179.6,74.8s133.6-28.8,179.6-74.8H74.4z"/>
<rect x="147.6" y="81.2" style="fill:#FFFFFF;" width="212.8" height="352"/>
<rect x="239.2" y="400.8" style="fill:#324A5E;" width="29.6" height="32.4"/>
<g>
	<rect x="159.2" y="92.4" style="fill:#E6E9EE;" width="25.2" height="25.2"/>
	<rect x="200.4" y="92.4" style="fill:#E6E9EE;" width="25.2" height="25.2"/>
	<rect x="241.6" y="92.4" style="fill:#E6E9EE;" width="25.2" height="25.2"/>
	<rect x="282.4" y="92.4" style="fill:#E6E9EE;" width="25.2" height="25.2"/>
	<rect x="323.6" y="92.4" style="fill:#E6E9EE;" width="25.2" height="25.2"/>
	<rect x="159.2" y="128.8" style="fill:#E6E9EE;" width="25.2" height="25.2"/>
	<rect x="200.4" y="128.8" style="fill:#E6E9EE;" width="25.2" height="25.2"/>
	<rect x="241.6" y="128.8" style="fill:#E6E9EE;" width="25.2" height="25.2"/>
	<rect x="282.4" y="128.8" style="fill:#E6E9EE;" width="25.2" height="25.2"/>
	<rect x="323.6" y="128.8" style="fill:#E6E9EE;" width="25.2" height="25.2"/>
	<rect x="159.2" y="164.8" style="fill:#E6E9EE;" width="25.2" height="25.2"/>
	<rect x="200.4" y="164.8" style="fill:#E6E9EE;" width="25.2" height="25.2"/>
	<rect x="241.6" y="164.8" style="fill:#E6E9EE;" width="25.2" height="25.2"/>
	<rect x="282.4" y="164.8" style="fill:#E6E9EE;" width="25.2" height="25.2"/>
	<rect x="323.6" y="164.8" style="fill:#E6E9EE;" width="25.2" height="25.2"/>
	<rect x="159.2" y="200.8" style="fill:#E6E9EE;" width="25.2" height="25.2"/>
	<rect x="200.4" y="200.8" style="fill:#E6E9EE;" width="25.2" height="25.2"/>
	<rect x="241.6" y="200.8" style="fill:#E6E9EE;" width="25.2" height="25.2"/>
	<rect x="282.4" y="200.8" style="fill:#E6E9EE;" width="25.2" height="25.2"/>
	<rect x="323.6" y="200.8" style="fill:#E6E9EE;" width="25.2" height="25.2"/>
	<rect x="159.2" y="237.2" style="fill:#E6E9EE;" width="25.2" height="25.2"/>
	<rect x="200.4" y="237.2" style="fill:#E6E9EE;" width="25.2" height="25.2"/>
	<rect x="241.6" y="237.2" style="fill:#E6E9EE;" width="25.2" height="25.2"/>
	<rect x="282.4" y="237.2" style="fill:#E6E9EE;" width="25.2" height="25.2"/>
	<rect x="323.6" y="237.2" style="fill:#E6E9EE;" width="25.2" height="25.2"/>
	<rect x="159.2" y="273.2" style="fill:#E6E9EE;" width="25.2" height="25.2"/>
	<rect x="200.4" y="273.2" style="fill:#E6E9EE;" width="25.2" height="25.2"/>
	<rect x="241.6" y="273.2" style="fill:#E6E9EE;" width="25.2" height="25.2"/>
	<rect x="282.4" y="273.2" style="fill:#E6E9EE;" width="25.2" height="25.2"/>
	<rect x="323.6" y="273.2" style="fill:#E6E9EE;" width="25.2" height="25.2"/>
	<rect x="159.2" y="309.2" style="fill:#E6E9EE;" width="25.2" height="25.2"/>
	<rect x="200.4" y="309.2" style="fill:#E6E9EE;" width="25.2" height="25.2"/>
	<rect x="241.6" y="309.2" style="fill:#E6E9EE;" width="25.2" height="25.2"/>
	<rect x="282.4" y="309.2" style="fill:#E6E9EE;" width="25.2" height="25.2"/>
	<rect x="323.6" y="309.2" style="fill:#E6E9EE;" width="25.2" height="25.2"/>
	<rect x="159.2" y="345.6" style="fill:#E6E9EE;" width="25.2" height="25.2"/>
	<rect x="200.4" y="345.6" style="fill:#E6E9EE;" width="25.2" height="25.2"/>
	<rect x="241.6" y="345.6" style="fill:#E6E9EE;" width="25.2" height="25.2"/>
	<rect x="282.4" y="345.6" style="fill:#E6E9EE;" width="25.2" height="25.2"/>
	<rect x="323.6" y="345.6" style="fill:#E6E9EE;" width="25.2" height="25.2"/>
</g>
<g>
</g>
<g>
</g>
<g>
</g>
<g>
</g>
<g>
</g>
<g>
</g>
<g>
</g>
<g>
</g>
<g>
</g>
<g>
</g>
<g>
</g>
<g>
</g>
<g>
</g>
<g>
</g>
<g>
</g>
</svg>
