<?xml version="1.0" encoding="iso-8859-1"?>
<!-- Generator: Adobe Illustrator 19.0.0, SVG Export Plug-In . SVG Version: 6.00 Build 0)  -->
<svg xmlns="http://www.w3.org/2000/svg" xmlns:xlink="http://www.w3.org/1999/xlink" version="1.1" id="Layer_1" x="0px" y="0px" viewBox="0 0 508 508" style="enable-background:new 0 0 508 508;" xml:space="preserve">
<circle style="fill:#324A5E;" cx="254" cy="254" r="254"/>
<polygon style="fill:#FFFFFF;" points="167.2,89.6 167.2,138.4 118.4,138.4 118.4,418.4 389.6,418.4 389.6,89.6 "/>
<polygon style="fill:#E6E9EE;" points="167.2,89.6 118.4,138.4 167.2,138.4 "/>
<rect x="159.2" y="194" style="fill:none;stroke:#FFD05B;stroke-width:2;stroke-linejoin:round;stroke-miterlimit:10;" width="41.6" height="41.6"/>
<path style="fill:#324A5E;" d="M185.2,224.7c-0.9,0-1.8-0.4-2.5-1.1l-14-14.4c-1.3-1.4-1.3-3.6,0.1-4.9c1.4-1.3,3.6-1.3,4.9,0.1  l11.2,11.5l35.9-45.3c1.2-1.5,3.4-1.8,4.9-0.6s1.8,3.4,0.6,4.9l-38.4,48.4c-0.6,0.8-1.6,1.3-2.6,1.3  C185.3,224.7,185.3,224.7,185.2,224.7z"/>
<rect x="159.2" y="288.8" style="fill:none;stroke:#4CDBC4;stroke-width:2;stroke-linejoin:round;stroke-miterlimit:10;" width="41.6" height="41.6"/>
<path style="fill:#324A5E;" d="M185.2,319.5c-0.9,0-1.8-0.4-2.5-1l-14-14c-1.4-1.4-1.4-3.6,0-4.9c1.4-1.4,3.6-1.4,5,0l11.2,11.2  l36-45.3c1.2-1.5,3.4-1.8,4.9-0.6c1.5,1.2,1.8,3.4,0.6,4.9L188,318.2c-0.6,0.8-1.5,1.3-2.5,1.3C185.3,319.5,185.3,319.5,185.2,319.5  z"/>
<g>
	<rect x="236" y="195.2" style="fill:#E6E9EE;" width="125.2" height="10.8"/>
	<rect x="236" y="223.6" style="fill:#E6E9EE;" width="125.2" height="10.8"/>
	<rect x="236" y="290.4" style="fill:#E6E9EE;" width="125.2" height="10.8"/>
	<rect x="236" y="318.4" style="fill:#E6E9EE;" width="125.2" height="10.8"/>
</g>
<g>
</g>
<g>
</g>
<g>
</g>
<g>
</g>
<g>
</g>
<g>
</g>
<g>
</g>
<g>
</g>
<g>
</g>
<g>
</g>
<g>
</g>
<g>
</g>
<g>
</g>
<g>
</g>
<g>
</g>
</svg>
