<?xml version="1.0" encoding="iso-8859-1"?>
<!-- Generator: Adobe Illustrator 19.0.0, SVG Export Plug-In . SVG Version: 6.00 Build 0)  -->
<svg xmlns="http://www.w3.org/2000/svg" xmlns:xlink="http://www.w3.org/1999/xlink" version="1.1" id="Layer_1" x="0px" y="0px" viewBox="0 0 508 508" style="enable-background:new 0 0 508 508;" xml:space="preserve">
<circle style="fill:#90DFAA;" cx="254" cy="254" r="254"/>
<path style="fill:#2C9984;" d="M65.2,423.6c46.4,51.6,114,84.4,188.8,84.4c75.2,0,142.4-32.4,188.8-84.4H65.2z"/>
<path style="fill:#FFFFFF;" d="M354.8,423.6H153.2c-6,0-10.8-4.8-10.8-10.8V235.2c0-6,4.8-10.8,10.8-10.8h201.6  c6,0,10.8,4.8,10.8,10.8v177.6C365.6,418.8,360.8,423.6,354.8,423.6z"/>
<g>
	<path style="fill:#324A5E;" d="M318,167.6l-42.8,44c-1.2-1.6-1.2-4,0-5.6l30.4-43.6L290.4,124l-12.8-2.4c2-4.8,2.4-10,1.2-15.2   l25.6,8.8L318,167.6z"/>
	<path style="fill:#324A5E;" d="M230,211.2l-42.8-44l13.2-52l25.6-8.8c-1.2,5.2-0.8,10.4,1.2,15.2l-12.8,2.4l-15.2,38.4L230,206   C231.2,207.6,231.2,209.6,230,211.2z"/>
	<path style="fill:#324A5E;" d="M292.8,2.8v64L274,95.6c-4.8-6.4-12.8-10.8-21.6-10.8c-8.8,0-16.4,4.4-21.6,10.8l-18.4-28.8V3.6   C226,1.2,240,0,254,0C267.2,0,280,1.2,292.8,2.8z"/>
</g>
<circle style="fill:#FFFFFF;" cx="252.8" cy="112" r="26.8"/>
<circle style="fill:#E6E9EE;" cx="252.8" cy="112" r="15.6"/>
<g>
	<path style="fill:#ACB3BA;" d="M282.8,26h-60.4c-1.6,0-3.2-1.2-3.2-3.2l0,0c0-1.6,1.2-3.2,3.2-3.2h60.8c1.6,0,3.2,1.2,3.2,3.2l0,0   C286,24.8,284.4,26,282.8,26z"/>
	<path style="fill:#ACB3BA;" d="M282.8,36.4h-60.4c-1.6,0-3.2-1.2-3.2-3.2l0,0c0-1.6,1.2-3.2,3.2-3.2h60.8c1.6,0,3.2,1.2,3.2,3.2   l0,0C286,35.2,284.4,36.4,282.8,36.4z"/>
	<path style="fill:#ACB3BA;" d="M282.8,46.8h-60.4c-1.6,0-3.2-1.2-3.2-3.2l0,0c0-1.6,1.2-3.2,3.2-3.2h60.8c1.6,0,3.2,1.2,3.2,3.2   l0,0C286,45.6,284.4,46.8,282.8,46.8z"/>
	<path style="fill:#ACB3BA;" d="M282.8,57.2h-60.4c-1.6,0-3.2-1.2-3.2-3.2l0,0c0-1.6,1.2-3.2,3.2-3.2h60.8c1.6,0,3.2,1.2,3.2,3.2   l0,0C286,55.6,284.4,57.2,282.8,57.2z"/>
</g>
<rect x="219.6" y="224.4" style="fill:#FF7058;" width="68.8" height="20.8"/>
<g>
</g>
<g>
</g>
<g>
</g>
<g>
</g>
<g>
</g>
<g>
</g>
<g>
</g>
<g>
</g>
<g>
</g>
<g>
</g>
<g>
</g>
<g>
</g>
<g>
</g>
<g>
</g>
<g>
</g>
</svg>
