<?xml version="1.0" encoding="iso-8859-1"?>
<!-- Generator: Adobe Illustrator 19.0.0, SVG Export Plug-In . SVG Version: 6.00 Build 0)  -->
<svg xmlns="http://www.w3.org/2000/svg" xmlns:xlink="http://www.w3.org/1999/xlink" version="1.1" id="Layer_1" x="0px" y="0px" viewBox="0 0 508 508" style="enable-background:new 0 0 508 508;" xml:space="preserve">
<circle style="fill:#FFD05B;" cx="254" cy="254" r="254"/>
<path style="fill:#F9B54C;" d="M37.2,386.4C82,459.2,162.4,508,254,508s172-48.8,216.8-121.6H37.2z"/>
<path style="fill:#233A4A;" d="M413.6,348.4H94.4c-8.8,0-16-7.2-16-16V139.2c0-8.8,7.2-16,16-16h318.8c8.8,0,16,7.2,16,16V332  C429.6,341.2,422.4,348.4,413.6,348.4z"/>
<rect x="91.2" y="144" style="fill:#84DBFF;" width="325.6" height="183.6"/>
<path style="fill:#FFFFFF;" d="M421.2,384.8H86.8c-13.2,0-24-10.8-24-24v-1.2h382.4v1.2C445.2,374,434.4,384.8,421.2,384.8z"/>
<polygon style="fill:#E6E9EE;" points="294.8,360 213.2,360 221.2,369.6 286.8,369.6 "/>
<g>
	<path style="fill:#54C0EB;" d="M152.8,163.2c-6.8,0-12,6.4-12,15.2v6c0,8.8,5.2,15.2,12,15.2c7.2,0,12-6.4,12-15.2v-6   C164.8,169.6,159.6,163.2,152.8,163.2z M158.8,184.8c0,5.2-2.4,9.2-6,9.2s-6-4-6-9.2v-6c0-4.4,2-9.2,6-9.2s6,4.8,6,9.2V184.8z"/>
	<path style="fill:#54C0EB;" d="M180.8,196.8v-27.6c-1.6,0-3.2-1.2-3.2-3.2c0-1.6,1.2-3.2,3.2-3.2h3.2c1.6,0,3.2,1.2,3.2,3.2v30.8   c0,1.6-1.2,3.2-3.2,3.2C182.4,200,180.8,198.8,180.8,196.8z"/>
	<path style="fill:#54C0EB;" d="M212.8,163.2c-6.8,0-12,6.4-12,15.2v6c0,8.8,5.2,15.2,12,15.2c7.2,0,12-6.4,12-15.2v-6   C225.2,169.6,219.6,163.2,212.8,163.2z M218.8,184.8c0,5.2-2.4,9.2-6,9.2s-6-4-6-9.2v-6c0-4.4,2-9.2,6-9.2s6,4.8,6,9.2V184.8z"/>
	<path style="fill:#54C0EB;" d="M241.2,196.8v-27.6c-1.6,0-3.2-1.2-3.2-3.2c0-1.6,1.2-3.2,3.2-3.2h3.2c1.6,0,3.2,1.2,3.2,3.2v30.8   c0,1.6-1.2,3.2-3.2,3.2S241.2,198.8,241.2,196.8z"/>
	<path style="fill:#54C0EB;" d="M272.8,163.2c-6.8,0-12,6.4-12,15.2v6c0,8.8,5.2,15.2,12,15.2c7.2,0,12-6.4,12-15.2v-6   C285.2,169.6,279.6,163.2,272.8,163.2z M279.2,184.8c0,5.2-2.4,9.2-6,9.2s-6-4-6-9.2v-6c0-4.4,2-9.2,6-9.2s6,4.8,6,9.2V184.8z"/>
	<path style="fill:#54C0EB;" d="M301.2,196.8v-27.6c-1.6,0-3.2-1.2-3.2-3.2c0-1.6,1.2-3.2,3.2-3.2h3.2c1.6,0,3.2,1.2,3.2,3.2v30.8   c0,1.6-1.2,3.2-3.2,3.2C302.4,200,301.2,198.8,301.2,196.8z"/>
	<path style="fill:#54C0EB;" d="M333.2,163.2c-6.8,0-12,6.4-12,15.2v6c0,8.8,5.2,15.2,12,15.2c7.2,0,12-6.4,12-15.2v-6   C345.2,169.6,340,163.2,333.2,163.2z M339.2,184.8c0,5.2-2.4,9.2-6,9.2s-6-4-6-9.2v-6c0-4.4,2-9.2,6-9.2s6,4.8,6,9.2V184.8z"/>
	<path style="fill:#54C0EB;" d="M361.2,196.8v-27.6c-1.6,0-3.2-1.2-3.2-3.2c0-1.6,1.2-3.2,3.2-3.2h3.2c1.6,0,3.2,1.2,3.2,3.2v30.8   c0,1.6-1.2,3.2-3.2,3.2C362.4,200,361.2,198.8,361.2,196.8z"/>
	<path style="fill:#54C0EB;" d="M180.8,251.2v-27.6c-1.6,0-3.2-1.2-3.2-3.2c0-1.6,1.2-3.2,3.2-3.2h3.2c1.6,0,3.2,1.2,3.2,3.2v30.8   c0,1.6-1.2,3.2-3.2,3.2C182.4,254.4,180.8,252.8,180.8,251.2z"/>
	<path style="fill:#54C0EB;" d="M212.8,217.2c-6.8,0-12,6.4-12,15.2v6c0,8.8,5.2,15.2,12,15.2c7.2,0,12-6.4,12-15.2v-6   C225.2,224,219.6,217.6,212.8,217.2z M218.8,238.8c0,5.2-2.4,9.2-6,9.2s-6-4-6-9.2v-6c0-4.4,2-9.2,6-9.2s6,4.8,6,9.2V238.8z"/>
	<path style="fill:#54C0EB;" d="M241.2,251.2v-27.6c-1.6,0-3.2-1.2-3.2-3.2c0-1.6,1.2-3.2,3.2-3.2h3.2c1.6,0,3.2,1.2,3.2,3.2v30.8   c0,1.6-1.2,3.2-3.2,3.2S241.2,252.8,241.2,251.2z"/>
	<path style="fill:#54C0EB;" d="M272.8,217.2c-6.8,0-12,6.4-12,15.2v6c0,8.8,5.2,15.2,12,15.2c7.2,0,12-6.4,12-15.2v-6   C285.2,224,279.6,217.6,272.8,217.2z M279.2,238.8c0,5.2-2.4,9.2-6,9.2s-6-4-6-9.2v-6c0-4.4,2-9.2,6-9.2s6,4.8,6,9.2V238.8z"/>
	<path style="fill:#54C0EB;" d="M301.2,251.2v-27.6c-1.6,0-3.2-1.2-3.2-3.2c0-1.6,1.2-3.2,3.2-3.2h3.2c1.6,0,3.2,1.2,3.2,3.2v30.8   c0,1.6-1.2,3.2-3.2,3.2C302.4,254.4,301.2,252.8,301.2,251.2z"/>
	<path style="fill:#54C0EB;" d="M333.2,217.2c-6.8,0-12,6.4-12,15.2v6c0,8.8,5.2,15.2,12,15.2c7.2,0,12-6.4,12-15.2v-6   C345.2,224,340,217.6,333.2,217.2z M339.2,238.8c0,5.2-2.4,9.2-6,9.2s-6-4-6-9.2v-6c0-4.4,2-9.2,6-9.2s6,4.8,6,9.2V238.8z"/>
	<path style="fill:#54C0EB;" d="M361.2,251.2v-27.6c-1.6,0-3.2-1.2-3.2-3.2c0-1.6,1.2-3.2,3.2-3.2h3.2c1.6,0,3.2,1.2,3.2,3.2v30.8   c0,1.6-1.2,3.2-3.2,3.2C362.4,254.4,361.2,252.8,361.2,251.2z"/>
	<path style="fill:#54C0EB;" d="M152.8,271.6c-6.8,0-12,6.4-12,15.2v6c0,8.8,5.2,15.2,12,15.2c7.2,0,12-6.4,12-15.2v-6   C164.8,278,159.6,271.6,152.8,271.6z M158.8,293.2c0,5.2-2.4,9.2-6,9.2s-6-4-6-9.2v-6c0-4.4,2-9.2,6-9.2s6,4.8,6,9.2V293.2z"/>
	<path style="fill:#54C0EB;" d="M180.8,305.6V278c-1.6,0-3.2-1.2-3.2-3.2c0-1.6,1.2-3.2,3.2-3.2h3.2c1.6,0,3.2,1.2,3.2,3.2v30.8   c0,1.6-1.2,3.2-3.2,3.2C182.4,308.4,180.8,307.2,180.8,305.6z"/>
	<path style="fill:#54C0EB;" d="M212.8,271.6c-6.8,0-12,6.4-12,15.2v6c0,8.8,5.2,15.2,12,15.2c7.2,0,12-6.4,12-15.2v-6   C225.2,278,219.6,271.6,212.8,271.6z M218.8,293.2c0,5.2-2.4,9.2-6,9.2s-6-4-6-9.2v-6c0-4.4,2-9.2,6-9.2s6,4.8,6,9.2V293.2z"/>
	<path style="fill:#54C0EB;" d="M241.2,305.6V278c-1.6,0-3.2-1.2-3.2-3.2c0-1.6,1.2-3.2,3.2-3.2h3.2c1.6,0,3.2,1.2,3.2,3.2v30.8   c0,1.6-1.2,3.2-3.2,3.2C242.4,308.4,241.2,307.2,241.2,305.6z"/>
	<path style="fill:#54C0EB;" d="M272.8,271.6c-6.8,0-12,6.4-12,15.2v6c0,8.8,5.2,15.2,12,15.2c7.2,0,12-6.4,12-15.2v-6   C285.2,278,279.6,271.6,272.8,271.6z M279.2,293.2c0,5.2-2.4,9.2-6,9.2s-6-4-6-9.2v-6c0-4.4,2-9.2,6-9.2s6,4.8,6,9.2V293.2z"/>
	<path style="fill:#54C0EB;" d="M301.2,305.6V278c-1.6,0-3.2-1.2-3.2-3.2c0-1.6,1.2-3.2,3.2-3.2h3.2c1.6,0,3.2,1.2,3.2,3.2v30.8   c0,1.6-1.2,3.2-3.2,3.2C302.4,308.4,301.2,307.2,301.2,305.6z"/>
	<path style="fill:#54C0EB;" d="M333.2,271.6c-6.8,0-12,6.4-12,15.2v6c0,8.8,5.2,15.2,12,15.2c7.2,0,12-6.4,12-15.2v-6   C345.2,278,340,271.6,333.2,271.6z M339.2,293.2c0,5.2-2.4,9.2-6,9.2s-6-4-6-9.2v-6c0-4.4,2-9.2,6-9.2s6,4.8,6,9.2V293.2z"/>
</g>
<g>
</g>
<g>
</g>
<g>
</g>
<g>
</g>
<g>
</g>
<g>
</g>
<g>
</g>
<g>
</g>
<g>
</g>
<g>
</g>
<g>
</g>
<g>
</g>
<g>
</g>
<g>
</g>
<g>
</g>
</svg>
