<?xml version="1.0" encoding="iso-8859-1"?>
<!-- Generator: Adobe Illustrator 19.0.0, SVG Export Plug-In . SVG Version: 6.00 Build 0)  -->
<svg xmlns="http://www.w3.org/2000/svg" xmlns:xlink="http://www.w3.org/1999/xlink" version="1.1" id="Layer_1" x="0px" y="0px" viewBox="0 0 508 508" style="enable-background:new 0 0 508 508;" xml:space="preserve">
<circle style="fill:#84DBFF;" cx="254" cy="254" r="254"/>
<g>
	<path style="fill:#54C0EB;" d="M508,254c0,0.4,0,1.2,0,1.6H385.6v-4H508C508,252.4,508,253.2,508,254z"/>
	<path style="fill:#54C0EB;" d="M502.8,202.8H438l-16.4,22.8H380v-4h39.6l16.4-22.8h66C502.4,200,502.4,201.6,502.8,202.8z"/>
	<path style="fill:#54C0EB;" d="M494.8,172.8H438l-16.4,22.8H380v-4h39.6l16.4-22.8h57.2C493.6,170,494.4,171.2,494.8,172.8z"/>
	<path style="fill:#54C0EB;" d="M482.4,142.4h-44L422,165.2h-42v-4h39.6l16.4-22.8h44.4C481.2,140,481.6,141.2,482.4,142.4z"/>
	<path style="fill:#54C0EB;" d="M502.8,305.2c-0.4,1.2-0.4,2.8-0.8,4h-66l-16.4-22.8H380v-4h42l16.4,22.8H502.8z"/>
	<path style="fill:#54C0EB;" d="M494.8,335.2c-0.4,1.2-0.8,2.8-1.2,4h-57.2L420,316.4h-39.6v-4h42l16.4,22.8H494.8z"/>
	<path style="fill:#54C0EB;" d="M482.4,365.6c-0.8,1.2-1.2,2.8-2,4H436l-16.4-22.8H380v-4h42l16.4,22.8H482.4z"/>
	<path style="fill:#54C0EB;" d="M130.4,252.4v4H0c0-0.8,0-1.6,0-2s0-1.2,0-1.6h130.4V252.4z"/>
	<path style="fill:#54C0EB;" d="M128,282.4v4H88.4L72,309.2H6c-0.4-1.2-0.4-2.8-0.8-4H70l16.4-22.8H128z"/>
	<path style="fill:#54C0EB;" d="M128,312.4v4H88.4L72,339.2H14.8c-0.4-1.2-0.8-2.8-1.2-4H70l16.4-22.8H128z"/>
	<path style="fill:#54C0EB;" d="M128,342.4v4H88.4L72,369.2H27.6c-0.8-1.2-1.2-2.8-2-4h44L86,342.4H128z"/>
	<path style="fill:#54C0EB;" d="M128,221.6v4H86.4L70,202.8H5.2c0.4-1.2,0.4-2.8,0.8-4h66l16.4,22.8H128z"/>
	<path style="fill:#54C0EB;" d="M128,191.6v4H86.4L70,172.8H13.2c0.4-1.2,0.8-2.8,1.6-4H72l16.4,22.8H128z"/>
	<path style="fill:#54C0EB;" d="M128,161.6v4H86.4L70,142.4H25.6c0.8-1.2,1.2-2.8,2-4H72l16.4,22.8H128V161.6z"/>
	<path style="fill:#54C0EB;" d="M256.4,378.4V508c-0.8,0-1.6,0-2.4,0c-0.4,0-1.2,0-1.6,0V378.4H256.4z"/>
	<path style="fill:#54C0EB;" d="M309.2,436v66c-1.2,0.4-2.8,0.4-4,0.8V438l-22.8-16.4V380h4v39.6L309.2,436z"/>
	<path style="fill:#54C0EB;" d="M339.2,436v57.2c-1.2,0.4-2.8,0.8-4,1.6V438l-22.8-16.4V380h4v39.6L339.2,436z"/>
	<path style="fill:#54C0EB;" d="M369.2,436v44.4c-1.2,0.8-2.8,1.2-4,2V438l-22.8-16.4V380h4v39.6L369.2,436z"/>
	<path style="fill:#54C0EB;" d="M225.6,380v41.6L202.8,438v64.8c-1.2-0.4-2.8-0.4-4-0.8v-66l22.8-16.4V380H225.6z"/>
	<path style="fill:#54C0EB;" d="M195.6,380v41.6L172.8,438v56.4c-1.2-0.4-2.8-0.8-4-1.2V436l22.8-16.4V380L195.6,380L195.6,380z"/>
	<path style="fill:#54C0EB;" d="M165.6,380v41.6L142.8,438v44c-1.2-0.8-2.8-1.2-4-2v-44.4l22.8-16.4v-39.6h4V380z"/>
	<path style="fill:#54C0EB;" d="M255.6,0v129.6h-4V0c0.8,0,1.6,0,2,0C254.4,0,255.2,0,255.6,0z"/>
	<path style="fill:#54C0EB;" d="M225.6,86.4V128h-4V88.4L198.8,72V6c1.2-0.4,2.8-0.4,4-0.8V70L225.6,86.4z"/>
	<path style="fill:#54C0EB;" d="M195.6,86.4V128h-4V88.4L168.8,72V14.8c1.2-0.4,2.8-0.8,4-1.2V70L195.6,86.4z"/>
	<path style="fill:#54C0EB;" d="M165.6,86.4V128h-4V88.4L138.8,72V27.6c1.2-0.8,2.8-1.2,4-2v44L165.6,86.4z"/>
	<path style="fill:#54C0EB;" d="M309.2,6v66l-22.8,16.4V128h-4V86.4L305.2,70V5.2C306.4,5.6,308,5.6,309.2,6z"/>
	<path style="fill:#54C0EB;" d="M339.2,14.8V72l-22.8,16.4V128h-4V86.4L335.2,70V13.2C336.8,13.6,338,14.4,339.2,14.8z"/>
	<path style="fill:#54C0EB;" d="M369.2,27.6V72l-22.8,16.4V128h-4V86.4L365.2,70V26C366.8,26.4,368,26.8,369.2,27.6z"/>
</g>
<g>
	<rect x="368.4" y="155.6" style="fill:#E6E9EE;" width="17.2" height="16"/>
	<rect x="368.4" y="186" style="fill:#E6E9EE;" width="17.2" height="16"/>
	<rect x="368.4" y="216" style="fill:#E6E9EE;" width="17.2" height="16"/>
	<rect x="368.4" y="246" style="fill:#E6E9EE;" width="17.2" height="16"/>
	<rect x="368.4" y="276" style="fill:#E6E9EE;" width="17.2" height="16"/>
	<rect x="368.4" y="306.4" style="fill:#E6E9EE;" width="17.2" height="16"/>
	<rect x="368.4" y="336.4" style="fill:#E6E9EE;" width="17.2" height="16"/>
	<rect x="123.6" y="155.6" style="fill:#E6E9EE;" width="17.2" height="16"/>
	<rect x="123.6" y="186" style="fill:#E6E9EE;" width="17.2" height="16"/>
	<rect x="123.6" y="216" style="fill:#E6E9EE;" width="17.2" height="16"/>
	<rect x="126" y="243.6" style="fill:#E6E9EE;" width="17.2" height="16"/>
	<rect x="126" y="273.6" style="fill:#E6E9EE;" width="17.2" height="16"/>
	<rect x="126" y="303.6" style="fill:#E6E9EE;" width="17.2" height="16"/>
	<rect x="126" y="334" style="fill:#E6E9EE;" width="17.2" height="16"/>
	<rect x="336.8" y="367.6" style="fill:#E6E9EE;" width="16" height="17.2"/>
	<rect x="306.8" y="367.6" style="fill:#E6E9EE;" width="16" height="17.2"/>
	<rect x="276.8" y="367.6" style="fill:#E6E9EE;" width="16" height="17.2"/>
	<rect x="246.8" y="367.6" style="fill:#E6E9EE;" width="16" height="17.2"/>
	<rect x="216.4" y="367.6" style="fill:#E6E9EE;" width="16" height="17.2"/>
	<rect x="186.4" y="367.6" style="fill:#E6E9EE;" width="16" height="17.2"/>
	<rect x="156.4" y="367.6" style="fill:#E6E9EE;" width="16" height="17.2"/>
	<rect x="336.8" y="123.2" style="fill:#E6E9EE;" width="16" height="17.2"/>
	<rect x="306.8" y="123.2" style="fill:#E6E9EE;" width="16" height="17.2"/>
	<rect x="276.8" y="123.2" style="fill:#E6E9EE;" width="16" height="17.2"/>
	<rect x="246.8" y="123.2" style="fill:#E6E9EE;" width="16" height="17.2"/>
	<rect x="216.4" y="123.2" style="fill:#E6E9EE;" width="16" height="17.2"/>
	<rect x="186.4" y="123.2" style="fill:#E6E9EE;" width="16" height="17.2"/>
	<rect x="156.4" y="123.2" style="fill:#E6E9EE;" width="16" height="17.2"/>
</g>
<rect x="136.8" y="136.8" style="fill:#324A5E;" width="234" height="234"/>
<path style="fill:#FFFFFF;" d="M154.4,342.4V165.6c0-6,4.8-10.8,10.8-10.8h177.2c6,0,10.8,4.8,10.8,10.8v177.2  c0,6-4.8,10.8-10.8,10.8H165.6C159.6,353.2,154.4,348.4,154.4,342.4z"/>
<g>
	<path style="fill:#54C0EB;" d="M228.8,274c1.2,2.4,0.4,5.6-2,6.8c-4.4,2.4-9.6,3.6-14.4,3.6c-16.8,0-30.4-13.6-30.4-30.4   s13.6-30.4,30.4-30.4c5.2,0,10,1.2,14.4,3.6c2.4,1.2,3.6,4.4,2,6.8c-1.2,2.4-4.4,3.6-6.8,2c-2.8-1.6-6.4-2.4-9.6-2.4   c-11.2,0-20.4,9.2-20.4,20.4s9.2,20.4,20.4,20.4c3.6,0,6.8-0.8,9.6-2.4C224.4,270.4,227.6,271.6,228.8,274z"/>
	<path style="fill:#54C0EB;" d="M236.8,279.6v-51.2c0-2.8,2.4-5.2,5.2-5.2h14c0.4,0,5.2,0,10,2.4c6.8,3.6,10.4,9.6,10.4,18   c0,0.4,0,5.2-2.4,10c-3.6,6.8-10,10.4-18,10.4h-8.8v15.2c0,2.8-2.4,5.2-5.2,5.2C238.8,284.4,236.8,282.4,236.8,279.6z M246.8,254   h8.8c4.4,0,7.2-1.6,8.8-4.8c1.2-2.8,1.6-5.6,1.6-5.6c0-4.4-1.6-7.2-4.8-8.8c-2.8-1.2-5.6-1.2-5.6-1.2h-8.8V254z"/>
	<path style="fill:#54C0EB;" d="M285.6,272.8c-2.4-5.2-2.4-10.4-2.4-11.2v-33.2c0-2.8,2.4-5.2,5.2-5.2c2.8,0,5.2,2.4,5.2,5.2v33.2   c0,1.2,1.2,12.8,11.6,12.8c10,0,11.6-10.8,11.6-12.8v-33.2c0-2.8,2.4-5.2,5.2-5.2s5.2,2.4,5.2,5.2v33.2c0,0.8,0,5.6-2.4,11.2   c-3.6,7.6-10.4,12-19.2,12C296,284.4,289.2,280.4,285.6,272.8z"/>
</g>
<g>
</g>
<g>
</g>
<g>
</g>
<g>
</g>
<g>
</g>
<g>
</g>
<g>
</g>
<g>
</g>
<g>
</g>
<g>
</g>
<g>
</g>
<g>
</g>
<g>
</g>
<g>
</g>
<g>
</g>
</svg>
