<?xml version="1.0" encoding="iso-8859-1"?>
<!-- Generator: Adobe Illustrator 19.0.0, SVG Export Plug-In . SVG Version: 6.00 Build 0)  -->
<svg xmlns="http://www.w3.org/2000/svg" xmlns:xlink="http://www.w3.org/1999/xlink" version="1.1" id="Layer_1" x="0px" y="0px" viewBox="0 0 508 508" style="enable-background:new 0 0 508 508;" xml:space="preserve">
<circle style="fill:#FFD05B;" cx="254" cy="254" r="254"/>
<path style="fill:#324A5E;" d="M370,420.8H142.8c-9.6,0-17.2-7.6-17.2-17.2V104.4c0-9.6,7.6-17.2,17.2-17.2H370  c9.6,0,17.2,7.6,17.2,17.2v298.8C387.2,412.8,379.6,420.8,370,420.8z"/>
<path style="fill:#FFFFFF;" d="M371.6,117.2V190c-6-1.2-12-1.6-18.4-1.6c-55.6,0-100.8,45.2-100.8,100.8c0,40,23.2,74.8,57.2,90.8  H141.2V117.2H371.6z"/>
<rect x="196" y="87.2" style="fill:#E6E9EE;" width="120.4" height="29.6"/>
<path style="fill:#84DBFF;" d="M324,98h-67.2h-67.6c-3.6,0-6.8,3.2-6.8,6.8v22.4c0,3.6,3.2,6.8,6.8,6.8h31.2c10.8,0,15.6,1.6,20,2.8  c4,1.2,8,2.4,16.4,2.4s12.4-1.2,16.4-2.4c4.4-1.2,9.2-2.8,20-2.8h31.2c3.6,0,6.8-3.2,6.8-6.8v-22.4C330.8,101.2,328,98,324,98z   M327.2,127.2c0,1.6-1.2,3.2-3.2,3.2h-31.2c-11.6,0-16.4,1.6-21.2,2.8c-4,1.2-7.6,2.4-15.6,2.4c-7.6,0-11.6-1.2-15.6-2.4  c-4.8-1.6-9.6-2.8-21.2-2.8H188c-1.6,0-3.2-1.2-3.2-3.2v-22.4c0-1.6,1.2-3.2,3.2-3.2h67.6h67.6c1.6,0,3.2,1.2,3.2,3.2v22.4H327.2z"/>
<rect x="207.2" y="93.6" style="fill:#FFFFFF;" width="98.4" height="12.4"/>
<circle style="fill:#84DBFF;" cx="353.2" cy="288.8" r="100.8"/>
<circle style="fill:#FFFFFF;" cx="353.2" cy="288.8" r="86"/>
<g>
	<circle style="fill:#E6E9EE;" cx="353.2" cy="214.8" r="6.8"/>
	<circle style="fill:#E6E9EE;" cx="353.2" cy="363.2" r="6.8"/>
	<circle style="fill:#E6E9EE;" cx="427.6" cy="288.8" r="6.8"/>
	<circle style="fill:#E6E9EE;" cx="278.8" cy="288.8" r="6.8"/>
</g>
<polygon style="fill:#324A5E;" points="393.6,330 361.2,286 353.2,232 344.8,289.2 353.2,289.2 347.2,295.2 "/>
<circle style="fill:#E6E9EE;" cx="353.2" cy="288.8" r="10.4"/>
<g>
</g>
<g>
</g>
<g>
</g>
<g>
</g>
<g>
</g>
<g>
</g>
<g>
</g>
<g>
</g>
<g>
</g>
<g>
</g>
<g>
</g>
<g>
</g>
<g>
</g>
<g>
</g>
<g>
</g>
</svg>
