<?xml version="1.0" encoding="iso-8859-1"?>
<!-- Generator: Adobe Illustrator 19.0.0, SVG Export Plug-In . SVG Version: 6.00 Build 0)  -->
<svg xmlns="http://www.w3.org/2000/svg" xmlns:xlink="http://www.w3.org/1999/xlink" version="1.1" id="Layer_1" x="0px" y="0px" viewBox="0 0 508 508" style="enable-background:new 0 0 508 508;" xml:space="preserve">
<circle style="fill:#84DBFF;" cx="254" cy="254" r="254"/>
<path style="fill:#54C0EB;" d="M45.6,398.8c46,66,122,109.2,208.4,109.2s162.8-43.2,208.4-109.2H45.6z"/>
<path style="fill:#324A5E;" d="M198.4,152v-24.8c0-6,4.8-10.8,10.8-10.8h89.6c6,0,10.8,4.8,10.8,10.8V152h17.2v-24.8  c0-15.6-12.4-28-28-28h-89.6c-15.6,0-28,12.4-28,28V152H198.4z"/>
<path style="fill:#FFFFFF;" d="M415.6,384.8H92.4c-10,0-18-8-18-18V170.4c0-10,8-18,18-18h323.2c10,0,18,8,18,18v196.4  C433.6,376.8,425.6,384.8,415.6,384.8z"/>
<g>
	<path style="fill:#324A5E;" d="M401.6,384.8H352v7.6c0,3.6,2.8,6.8,6.8,6.8h36c3.6,0,6.8-2.8,6.8-6.8L401.6,384.8L401.6,384.8z"/>
	<path style="fill:#324A5E;" d="M156,384.8h-49.6v7.6c0,3.6,2.8,6.8,6.8,6.8h36c3.6,0,6.8-2.8,6.8-6.8L156,384.8L156,384.8z"/>
</g>
<g>
	<path style="fill:#E6E9EE;" d="M418.4,190.8L418.4,190.8c0-3.2-2.8-6-6-6H95.6c-3.2,0-6,2.8-6,6l0,0c0,3.2,2.8,6,6,6h316.8   C415.6,196.8,418.4,194,418.4,190.8z"/>
	<path style="fill:#E6E9EE;" d="M418.4,229.6L418.4,229.6c0-3.2-2.8-6-6-6H95.6c-3.2,0-6,2.8-6,6l0,0c0,3.2,2.8,6,6,6h316.8   C415.6,235.6,418.4,232.8,418.4,229.6z"/>
	<path style="fill:#E6E9EE;" d="M418.4,268.4L418.4,268.4c0-3.2-2.8-6-6-6H95.6c-3.2,0-6,2.8-6,6l0,0c0,3.2,2.8,6,6,6h316.8   C415.6,274.4,418.4,272,418.4,268.4z"/>
	<path style="fill:#E6E9EE;" d="M418.4,307.2L418.4,307.2c0-3.2-2.8-6-6-6H95.6c-3.2,0-6,2.8-6,6l0,0c0,3.2,2.8,6,6,6h316.8   C415.6,313.6,418.4,310.8,418.4,307.2z"/>
	<path style="fill:#E6E9EE;" d="M418.4,346L418.4,346c0-3.2-2.8-6-6-6H95.6c-3.2,0-6,2.8-6,6l0,0c0,3.2,2.8,6,6,6h316.8   C415.6,352.4,418.4,349.6,418.4,346z"/>
</g>
<g>
</g>
<g>
</g>
<g>
</g>
<g>
</g>
<g>
</g>
<g>
</g>
<g>
</g>
<g>
</g>
<g>
</g>
<g>
</g>
<g>
</g>
<g>
</g>
<g>
</g>
<g>
</g>
<g>
</g>
</svg>
