<?xml version="1.0" encoding="iso-8859-1"?>
<!-- Generator: Adobe Illustrator 19.0.0, SVG Export Plug-In . SVG Version: 6.00 Build 0)  -->
<svg xmlns="http://www.w3.org/2000/svg" xmlns:xlink="http://www.w3.org/1999/xlink" version="1.1" id="Layer_1" x="0px" y="0px" viewBox="0 0 508 508" style="enable-background:new 0 0 508 508;" xml:space="preserve">
<circle style="fill:#90DFAA;" cx="254" cy="254" r="254"/>
<path style="fill:#2C9984;" d="M61.2,419.2C107.6,473.6,176.8,508,254,508s146.4-34.4,192.8-88.8H61.2z"/>
<path style="fill:#FFFFFF;" d="M417.2,364.8H90.8c-10,0-18.4-8-18.4-18.4V133.2c0-10,8-18.4,18.4-18.4h326c10,0,18.4,8,18.4,18.4  v213.2C435.6,356.4,427.2,364.8,417.2,364.8z"/>
<path style="fill:#324A5E;" d="M435.6,320.4V133.2c0-10-8-18-18-18H90.8c-10,0-18,8-18,18v187.2H435.6z"/>
<g>
	<rect x="88" y="132.8" style="fill:#FFFFFF;" width="332.4" height="170.8"/>
	<rect x="206.4" y="364.8" style="fill:#FFFFFF;" width="95.2" height="34.4"/>
</g>
<g>
	<rect x="206.4" y="364.8" style="fill:#E6E9EE;" width="95.2" height="11.2"/>
	<path style="fill:#E6E9EE;" d="M321.6,399.2H186.4c-6.4,0-11.6,5.2-11.6,11.6v8.4h158v-8.4C333.2,404.4,328,399.2,321.6,399.2z"/>
	<circle style="fill:#E6E9EE;" cx="254" cy="342.4" r="12"/>
</g>
<path style="fill:#84DBFF;" d="M244.8,223.6v-10l-10.4-2.4c-1.2-8-4.4-15.2-8.8-21.6l5.6-8.8l-7.2-7.2l-8.8,5.6  c-6.4-4.8-13.6-7.6-21.6-8.8l-2.4-10.4h-10l-2.4,10.4c-8,1.2-15.2,4.4-21.6,8.8l-8.8-5.6l-7.2,7.2l5.6,8.8  c-4.8,6.4-7.6,13.6-8.8,21.6l-10.4,2.4v10L138,226c1.2,8,4.4,15.2,8.8,21.6l-5.6,8.8l7.2,7.2l8.8-5.6c6.4,4.8,13.6,7.6,21.6,8.8  l2.4,10.4h10l2.4-10.4c8-1.2,15.2-4.4,21.6-8.8l8.8,5.6l7.2-7.2l-5.6-8.8c4.8-6.4,7.6-13.6,8.8-21.6L244.8,223.6z"/>
<circle style="fill:#FFFFFF;" cx="186.4" cy="218.4" r="30.8"/>
<g>
	<rect x="266" y="174.4" style="fill:#E6E9EE;" width="114" height="8.8"/>
	<rect x="266" y="194" style="fill:#E6E9EE;" width="114" height="8.8"/>
	<rect x="266" y="214" style="fill:#E6E9EE;" width="114" height="8.8"/>
	<rect x="266" y="233.6" style="fill:#E6E9EE;" width="114" height="8.8"/>
	<rect x="266" y="253.6" style="fill:#E6E9EE;" width="73.2" height="8.8"/>
</g>
<g>
</g>
<g>
</g>
<g>
</g>
<g>
</g>
<g>
</g>
<g>
</g>
<g>
</g>
<g>
</g>
<g>
</g>
<g>
</g>
<g>
</g>
<g>
</g>
<g>
</g>
<g>
</g>
<g>
</g>
</svg>
