<?xml version="1.0" encoding="iso-8859-1"?>
<!-- Generator: Adobe Illustrator 19.0.0, SVG Export Plug-In . SVG Version: 6.00 Build 0)  -->
<svg xmlns="http://www.w3.org/2000/svg" xmlns:xlink="http://www.w3.org/1999/xlink" version="1.1" id="Layer_1" x="0px" y="0px" viewBox="0 0 508 508" style="enable-background:new 0 0 508 508;" xml:space="preserve">
<circle style="fill:#324A5E;" cx="254" cy="254" r="254"/>
<path style="fill:#2B3B4E;" d="M26,366c41.6,84,128,142,228,142s186.4-58,228-142H26z"/>
<polygon style="fill:#E6E9EE;" points="431.6,192.4 431.6,366.8 76.4,366.8 76.4,192.4 254,150 "/>
<polygon style="fill:#4CDBC4;" points="254,129.6 61.6,175.2 61.6,195.6 254,150 446.4,195.6 446.4,175.2 "/>
<rect x="118.4" y="257.2" style="fill:#CED5E0;" width="80.8" height="109.6"/>
<g>
	<rect x="118.4" y="265.2" style="fill:#E6E9EE;" width="80.8" height="4.4"/>
	<rect x="118.4" y="276.4" style="fill:#E6E9EE;" width="80.8" height="4.4"/>
	<rect x="118.4" y="287.6" style="fill:#E6E9EE;" width="80.8" height="4.4"/>
	<rect x="118.4" y="298.8" style="fill:#E6E9EE;" width="80.8" height="4.4"/>
	<rect x="118.4" y="310" style="fill:#E6E9EE;" width="80.8" height="4.4"/>
	<rect x="118.4" y="321.2" style="fill:#E6E9EE;" width="80.8" height="4.4"/>
	<rect x="118.4" y="332.4" style="fill:#E6E9EE;" width="80.8" height="4.4"/>
	<rect x="118.4" y="343.6" style="fill:#E6E9EE;" width="80.8" height="4.4"/>
	<rect x="118.4" y="354.8" style="fill:#E6E9EE;" width="80.8" height="4.4"/>
</g>
<rect x="213.6" y="257.2" style="fill:#CED5E0;" width="80.8" height="109.6"/>
<g>
	<rect x="213.6" y="265.2" style="fill:#E6E9EE;" width="80.8" height="4.4"/>
	<rect x="213.6" y="276.4" style="fill:#E6E9EE;" width="80.8" height="4.4"/>
	<rect x="213.6" y="287.6" style="fill:#E6E9EE;" width="80.8" height="4.4"/>
	<rect x="213.6" y="298.8" style="fill:#E6E9EE;" width="80.8" height="4.4"/>
	<rect x="213.6" y="310" style="fill:#E6E9EE;" width="80.8" height="4.4"/>
	<rect x="213.6" y="321.2" style="fill:#E6E9EE;" width="80.8" height="4.4"/>
	<rect x="213.6" y="332.4" style="fill:#E6E9EE;" width="80.8" height="4.4"/>
	<rect x="213.6" y="343.6" style="fill:#E6E9EE;" width="80.8" height="4.4"/>
	<rect x="213.6" y="354.8" style="fill:#E6E9EE;" width="80.8" height="4.4"/>
</g>
<rect x="308.8" y="257.2" style="fill:#CED5E0;" width="80.8" height="109.6"/>
<g>
	<rect x="308.8" y="265.2" style="fill:#E6E9EE;" width="80.8" height="4.4"/>
	<rect x="308.8" y="276.4" style="fill:#E6E9EE;" width="80.8" height="4.4"/>
	<rect x="308.8" y="287.6" style="fill:#E6E9EE;" width="80.8" height="4.4"/>
	<rect x="308.8" y="298.8" style="fill:#E6E9EE;" width="80.8" height="4.4"/>
	<rect x="308.8" y="310" style="fill:#E6E9EE;" width="80.8" height="4.4"/>
	<rect x="308.8" y="321.2" style="fill:#E6E9EE;" width="80.8" height="4.4"/>
	<rect x="308.8" y="332.4" style="fill:#E6E9EE;" width="80.8" height="4.4"/>
	<rect x="308.8" y="343.6" style="fill:#E6E9EE;" width="80.8" height="4.4"/>
	<rect x="308.8" y="354.8" style="fill:#E6E9EE;" width="80.8" height="4.4"/>
</g>
<circle style="fill:#CED5E0;" cx="254" cy="188.8" r="15.2"/>
<g>
</g>
<g>
</g>
<g>
</g>
<g>
</g>
<g>
</g>
<g>
</g>
<g>
</g>
<g>
</g>
<g>
</g>
<g>
</g>
<g>
</g>
<g>
</g>
<g>
</g>
<g>
</g>
<g>
</g>
</svg>
