<?xml version="1.0" encoding="iso-8859-1"?>
<!-- Generator: Adobe Illustrator 19.0.0, SVG Export Plug-In . SVG Version: 6.00 Build 0)  -->
<svg xmlns="http://www.w3.org/2000/svg" xmlns:xlink="http://www.w3.org/1999/xlink" version="1.1" id="Layer_1" x="0px" y="0px" viewBox="0 0 508 508" style="enable-background:new 0 0 508 508;" xml:space="preserve">
<circle style="fill:#324A5E;" cx="254" cy="254" r="254"/>
<path style="fill:#2B3B4E;" d="M69.2,428.4c46.4,49.2,112,79.6,184.8,79.6s138.4-30.8,184.8-79.6H69.2z"/>
<rect x="127.2" y="68.4" style="fill:#FFD05B;" width="46" height="359.6"/>
<rect x="158.4" y="81.2" style="fill:#F9B54C;" width="14.4" height="334.4"/>
<g>
	<path style="fill:#FFFFFF;" d="M431.6,206.8c0,0.8-0.4,1.2-0.8,1.6c-0.8,0.8-2.4,1.2-3.6,0L416.4,198l3.6-3.6l10.8,10.4   C431.6,205.6,431.6,206.4,431.6,206.8z"/>
	
		<rect x="379.645" y="163.699" transform="matrix(-0.7161 -0.698 0.698 -0.7161 553.1694 564.7922)" style="fill:#FFFFFF;" width="23.6" height="12.4"/>
</g>
<path style="fill:#F9B54C;" d="M390.8,153.6l-15.6,16L350,144.8l0.4-2c6.4-2.8,11.6-8.4,14-15.6L390.8,153.6z"/>
<path style="fill:#FFD05B;" d="M172.8,272.4L172.8,272.4v-110l0,0c11.6,0,20.8,9.2,20.8,20.8v68.4  C194,263.2,184.4,272.4,172.8,272.4z"/>
<path style="fill:#F9B54C;" d="M300,234.4l-106,9.2v-52l104,8.8c-2.4,2.8-4.4,6.4-5.2,10C290.4,219.6,293.6,228.4,300,234.4z"/>
<path style="fill:#FFD05B;" d="M336,200.8l14-58c6.8-2.8,12.4-8.8,14.4-16.8c3.2-13.2-4.8-26.4-18-30c-13.2-3.2-26.4,4.8-30,18  c-2,7.6,0,15.6,4.8,21.6l-14.4,58c-6.8,2.8-12.4,8.8-14.4,16.8c-3.2,13.2,4.8,26.4,18,30c13.2,3.2,26.4-4.8,30-18  C342.4,214.4,340.4,206.8,336,200.8z"/>
<g>
	<circle style="fill:#F9B54C;" cx="340.4" cy="120.4" r="11.2"/>
	<circle style="fill:#F9B54C;" cx="316.8" cy="216.4" r="11.2"/>
	
		<rect x="395.956" y="177.867" transform="matrix(-0.7161 -0.698 0.698 -0.7161 571.0963 606.82)" style="fill:#F9B54C;" width="26" height="18.8"/>
</g>
<g>
</g>
<g>
</g>
<g>
</g>
<g>
</g>
<g>
</g>
<g>
</g>
<g>
</g>
<g>
</g>
<g>
</g>
<g>
</g>
<g>
</g>
<g>
</g>
<g>
</g>
<g>
</g>
<g>
</g>
</svg>
