<?xml version="1.0" encoding="iso-8859-1"?>
<!-- Generator: Adobe Illustrator 19.0.0, SVG Export Plug-In . SVG Version: 6.00 Build 0)  -->
<svg xmlns="http://www.w3.org/2000/svg" xmlns:xlink="http://www.w3.org/1999/xlink" version="1.1" id="Layer_1" x="0px" y="0px" viewBox="0 0 508 508" style="enable-background:new 0 0 508 508;" xml:space="preserve">
<circle style="fill:#F1543F;" cx="254" cy="254" r="254"/>
<path style="fill:#FF7058;" d="M57.6,415.2C104,472,174.8,508,254,508s149.6-36,196.4-92.8H57.6z"/>
<path style="fill:#E6E9EE;" d="M363.6,376.4H144.4c-6.4,0-11.6-5.2-11.6-11.6v-234c0-6.4,5.2-11.6,11.6-11.6h218.8  c6.4,0,11.6,5.2,11.6,11.6v234C375.2,371.2,370,376.4,363.6,376.4z"/>
<g>
	<rect x="145.2" y="131.2" style="fill:#324A5E;" width="218" height="193.6"/>
	<path style="fill:#324A5E;" d="M362.8,376.4H318v34.4c0,2.8,2,4.8,4.8,4.8H358c2.8,0,4.8-2,4.8-4.8V376.4z"/>
	<path style="fill:#324A5E;" d="M190,376.4h-44.8v34.4c0,2.8,2,4.8,4.8,4.8h35.2c2.8,0,4.8-2,4.8-4.8V376.4z"/>
</g>
<path style="fill:#FFD05B;" d="M213.2,316h-56c-1.6,0-2.4-1.2-2.4-2.4v-52.8c0-1.6,1.2-2.4,2.4-2.4h55.6c1.6,0,2.4,1.2,2.4,2.4v52.8  C215.6,314.8,214.4,316,213.2,316z"/>
<rect x="177.6" y="258" style="fill:#F9B54C;" width="14.8" height="7.2"/>
<path style="fill:#FFD05B;" d="M282,316h-56c-1.6,0-2.4-1.2-2.4-2.4v-52.8c0-1.6,1.2-2.4,2.4-2.4h56c1.6,0,2.4,1.2,2.4,2.4v52.8  C284.4,314.8,283.2,316,282,316z"/>
<rect x="246.4" y="258" style="fill:#F9B54C;" width="14.8" height="7.2"/>
<path style="fill:#FFD05B;" d="M350.8,316h-56c-1.6,0-2.4-1.2-2.4-2.4v-52.8c0-1.6,1.2-2.4,2.4-2.4h55.6c1.6,0,2.4,1.2,2.4,2.4v52.8  C353.2,314.8,352,316,350.8,316z"/>
<rect x="315.2" y="258" style="fill:#F9B54C;" width="14.8" height="7.2"/>
<path style="fill:#FFD05B;" d="M213.2,250.4h-56c-1.6,0-2.4-1.2-2.4-2.4v-52.8c0-1.6,1.2-2.4,2.4-2.4h55.6c1.6,0,2.4,1.2,2.4,2.4  V248C215.6,249.2,214.4,250.4,213.2,250.4z"/>
<rect x="177.6" y="192.8" style="fill:#F9B54C;" width="14.8" height="7.2"/>
<path style="fill:#FFD05B;" d="M282,250.4h-56c-1.6,0-2.4-1.2-2.4-2.4v-52.8c0-1.6,1.2-2.4,2.4-2.4h56c1.6,0,2.4,1.2,2.4,2.4V248  C284.4,249.2,283.2,250.4,282,250.4z"/>
<rect x="246.4" y="192.8" style="fill:#F9B54C;" width="14.8" height="7.2"/>
<path style="fill:#FFD05B;" d="M350.8,250.4h-56c-1.6,0-2.4-1.2-2.4-2.4v-52.8c0-1.6,1.2-2.4,2.4-2.4h55.6c1.6,0,2.4,1.2,2.4,2.4  V248C353.2,249.2,352,250.4,350.8,250.4z"/>
<rect x="315.2" y="192.8" style="fill:#F9B54C;" width="14.8" height="7.2"/>
<g>
	<rect x="362.8" y="131.2" style="fill:#FFFFFF;" width="75.6" height="193.6"/>
	<rect x="69.2" y="131.2" style="fill:#FFFFFF;" width="75.6" height="193.6"/>
</g>
<polygon style="fill:#FFD05B;" points="289.6,324.8 218.4,324.8 174.8,466.8 333.2,466.8 "/>
<g>
	<polygon style="fill:#F9B54C;" points="282.8,337.6 225.2,337.6 226.8,331.2 281.2,331.2  "/>
	<polygon style="fill:#F9B54C;" points="286.4,354 221.6,354 223.6,345.2 284.4,345.2  "/>
	<polygon style="fill:#F9B54C;" points="291.2,374.4 216.8,374.4 219.6,363.6 288.4,363.6  "/>
	<polygon style="fill:#F9B54C;" points="297.2,402.4 210.8,402.4 214,387.2 294,387.2  "/>
	<polygon style="fill:#F9B54C;" points="306,440.8 202,440.8 206.8,420 301.2,420  "/>
</g>
<g>
</g>
<g>
</g>
<g>
</g>
<g>
</g>
<g>
</g>
<g>
</g>
<g>
</g>
<g>
</g>
<g>
</g>
<g>
</g>
<g>
</g>
<g>
</g>
<g>
</g>
<g>
</g>
<g>
</g>
</svg>
