<?xml version="1.0" encoding="iso-8859-1"?>
<!-- Generator: Adobe Illustrator 19.0.0, SVG Export Plug-In . SVG Version: 6.00 Build 0)  -->
<svg xmlns="http://www.w3.org/2000/svg" xmlns:xlink="http://www.w3.org/1999/xlink" version="1.1" id="Layer_1" x="0px" y="0px" viewBox="0 0 508 508" style="enable-background:new 0 0 508 508;" xml:space="preserve">
<circle style="fill:#90DFAA;" cx="254" cy="254" r="254"/>
<path style="fill:#2C9984;" d="M52.8,408.8C99.2,469.2,172,508,254,508s154.8-38.8,201.2-99.2H52.8z"/>
<g>
	<polygon style="fill:#2B3B4E;" points="223.2,364 248,388.4 223.6,388.4 199.2,364  "/>
	<polygon style="fill:#2B3B4E;" points="308.8,364 284.4,388.4 260,388.4 284.8,364  "/>
</g>
<path style="fill:#324A5E;" d="M424,363.6H84c-8.8,0-15.6-7.2-15.6-15.6V129.6c0-8.8,7.2-15.6,15.6-15.6h340  c8.8,0,15.6,7.2,15.6,15.6V348C439.6,356.8,432.8,363.6,424,363.6z"/>
<rect x="83.6" y="130.8" style="fill:#FFFFFF;" width="341.2" height="196"/>
<g>
	<circle style="fill:#2B3B4E;" cx="254" cy="122.8" r="3.6"/>
	<circle style="fill:#2B3B4E;" cx="254" cy="344.4" r="8"/>
</g>
<path style="fill:#324A5E;" d="M332,408.8v-6c0-8-6.4-14.8-14.8-14.8H190.8c-8,0-14.8,6.4-14.8,14.8v6H332z"/>
<path style="fill:#FFD05B;" d="M278.4,255.6L278.4,255.6c-5.2,27.6-22,29.6-24.4,29.6s-19.2-1.6-24.4-29.6l0,0l2-6.8  c6,8,14,13.6,22.4,13.6s16.4-5.6,22.8-13.6L278.4,255.6z"/>
<path style="fill:#F9B54C;" d="M277.2,251.6c-6.4,8.4-14.4,14.8-23.2,14.8c-8.8,0-17.2-6-23.2-14.8l0.8-2.8c6,8,14,13.6,22.4,13.6  s16.4-5.6,22.8-13.6L277.2,251.6z"/>
<path style="fill:#84DBFF;" d="M342.4,326.8c-5.6-30-16-40-16-40c-45.6-15.6-48-31.2-48-31.2c-5.2,27.6-22,29.6-24.4,29.6  s-19.2-1.6-24.4-29.6c0,0-0.4,14.8-48,31.2c0,0-10.8,10-16,40H342.4z"/>
<g>
	<path style="fill:#2B3B4E;" d="M304.8,326.8c-2-17.2-3.6-37.2-2-49.6c-4-2-7.6-4-10.4-6l-4,55.6H304.8z"/>
	<path style="fill:#2B3B4E;" d="M202.8,326.8h16l-4-55.6c-2.8,2-6.4,4-10.4,6C206.4,289.6,204.8,309.6,202.8,326.8z"/>
</g>
<path style="fill:#FFD05B;" d="M286.4,217.2c1.2,6.4-1.2,16.4-1.6,17.6l0,0c-6.4,14.8-17.6,27.6-30.8,27.6s-24.4-12.8-30.8-27.6l0,0  c0-0.8-2.8-11.2-1.6-17.6L286.4,217.2L286.4,217.2z"/>
<g>
	<path style="fill:#324A5E;" d="M284.8,234.8c0,0,3.2-11.2,1.6-17.6h6C292.4,217.2,290.8,228.8,284.8,234.8z"/>
	<path style="fill:#324A5E;" d="M223.2,234.8c-6-6-7.6-17.6-7.6-17.6h6C220,223.6,223.2,234.8,223.2,234.8z"/>
</g>
<g>
	<path style="fill:#F1543F;" d="M230.8,157.6l7.2,46.8h-26c-0.8-3.6-1.6-7.2-1.6-10.8C210.8,178.4,218.8,165.2,230.8,157.6z"/>
	<path style="fill:#F1543F;" d="M297.2,193.2c0,3.6-0.4,7.2-1.6,10.8h-26l7.2-46.8C289.2,165.2,297.2,178.4,297.2,193.2z"/>
</g>
<path style="fill:#FF7058;" d="M296,204.4h-26l7.2-46.8c0.8-4.8-3.2-9.2-8-9.2h-30.4c-4.8,0-8.8,4.4-8,9.2l7.2,46.8h-26  c-3.6,0-6.4,2.8-6.4,6.4c0,3.6,2.8,6.4,6.4,6.4h83.6c3.6,0,6.4-2.8,6.4-6.4C302.4,207.2,299.6,204.4,296,204.4z"/>
<g>
</g>
<g>
</g>
<g>
</g>
<g>
</g>
<g>
</g>
<g>
</g>
<g>
</g>
<g>
</g>
<g>
</g>
<g>
</g>
<g>
</g>
<g>
</g>
<g>
</g>
<g>
</g>
<g>
</g>
</svg>
