<?xml version="1.0" encoding="iso-8859-1"?>
<!-- Generator: Adobe Illustrator 19.0.0, SVG Export Plug-In . SVG Version: 6.00 Build 0)  -->
<svg xmlns="http://www.w3.org/2000/svg" xmlns:xlink="http://www.w3.org/1999/xlink" version="1.1" id="Layer_1" x="0px" y="0px" viewBox="0 0 508 508" style="enable-background:new 0 0 508 508;" xml:space="preserve">
<circle style="fill:#84DBFF;" cx="254" cy="254" r="254"/>
<path style="fill:#324A5E;" d="M422,388H86c-7.2,0-13.2-6-13.2-13.2V133.6c0-7.2,6-13.2,13.2-13.2h336c7.2,0,13.2,6,13.2,13.2v241.2  C435.2,382,429.6,388,422,388z"/>
<polygon style="fill:#FFFFFF;" points="416.4,174 416.4,368 91.6,368 91.6,174 106.8,174 114.4,160.8 181.2,160.8 188.8,174 "/>
<polygon style="fill:#E6E9EE;" points="270.4,174 188.4,174 196,160.8 262.8,160.8 "/>
<circle style="fill:#2C9984;" cx="404.8" cy="147.2" r="12"/>
<circle style="fill:#FFD05B;" cx="366.4" cy="147.2" r="12"/>
<circle style="fill:#FF7058;" cx="328.4" cy="147.2" r="12"/>
<g>
	<path style="fill:#E6E9EE;" d="M231.6,365.2l59.6-59.6c15.2,5.2,32.8,2,44.8-10c10.4-10.4,14.4-25.2,11.6-38.8l-22.8,22.8l-26-8   l-8-26l22.8-22.8c-13.6-2.8-28,1.2-38.8,11.6c-12,12-15.6,29.6-10,44.8l-59.6,59.6c-15.2-5.2-32.8-2-44.8,10   C150,359.6,146,374,148.8,387.6l22.8-22.8l26,8l8,26l-22.8,22.8c13.6,2.8,28-1.2,38.8-11.6C233.6,397.6,236.8,380,231.6,365.2z"/>
	<polygon style="fill:#E6E9EE;" points="160.4,222 148,234.4 155.6,248.8 174.8,257.6 230,312.8 239.2,303.6 184,248.8 175.2,229.6     "/>
</g>
<path style="fill:#FF7058;" d="M345.6,398.4l-21.2,21.2c-3.6,3.6-10,3.6-13.6,0l-69.2-69.2c-3.6-3.6-3.6-10,0-13.6l21.2-21.2  c3.6-3.6,10-3.6,13.6,0l69.2,69.2C349.6,388.4,349.6,394.4,345.6,398.4z"/>
<g>
	
		<rect x="229.647" y="313.384" transform="matrix(-0.7071 0.7071 -0.7071 -0.7071 648.9049 372.7827)" style="fill:#F1543F;" width="35.2" height="14.8"/>
	<path style="fill:#F1543F;" d="M242,350.4c0.4,0.4,0.8,1.2,1.6,1.6l65.6,65.6c0.4,0.4,1.2,1.2,1.6,1.6c1.2-1.2,0.4-4-1.6-6.4   L248.4,352C246,350,243.2,349.2,242,350.4z"/>
	<path style="fill:#F1543F;" d="M317.2,407.6L253.6,344c-1.2-1.2-1.2-3.6,0-4.8l0,0c1.2-1.2,3.6-1.2,4.8,0l63.6,63.6   c1.2,1.2,1.2,3.6,0,4.8l0,0C320.8,408.8,318.4,408.8,317.2,407.6z"/>
	<path style="fill:#F1543F;" d="M328.8,396l-63.6-64c-1.2-1.2-1.2-3.6,0-4.8l0,0c1.2-1.2,3.6-1.2,4.8,0l63.6,63.6   c1.2,1.2,1.2,3.6,0,4.8l0,0C332.4,397.2,330.4,397.2,328.8,396z"/>
	<path style="fill:#F1543F;" d="M278.4,322l60.8,60.8c2,2,4.8,2.8,6.4,1.6c-0.4-0.4-0.8-1.2-1.6-1.6l-65.6-65.6   c-0.4-0.4-1.2-1.2-1.6-1.6C275.6,317.2,276.4,320,278.4,322z"/>
</g>
<path style="fill:#FF7058;" d="M255.6,302L228,329.6c-2,2-5.2,2-7.2,0l-2-2c-2-2-2-5.2,0-7.2l27.6-27.6c2-2,5.2-2,7.2,0l2,2  C257.6,296.4,257.6,299.6,255.6,302z"/>
<g>
</g>
<g>
</g>
<g>
</g>
<g>
</g>
<g>
</g>
<g>
</g>
<g>
</g>
<g>
</g>
<g>
</g>
<g>
</g>
<g>
</g>
<g>
</g>
<g>
</g>
<g>
</g>
<g>
</g>
</svg>
