<?xml version="1.0" encoding="iso-8859-1"?>
<!-- Generator: Adobe Illustrator 19.0.0, SVG Export Plug-In . SVG Version: 6.00 Build 0)  -->
<svg xmlns="http://www.w3.org/2000/svg" xmlns:xlink="http://www.w3.org/1999/xlink" version="1.1" id="Layer_1" x="0px" y="0px" viewBox="0 0 508 508" style="enable-background:new 0 0 508 508;" xml:space="preserve">
<circle style="fill:#FD8469;" cx="254" cy="254" r="254"/>
<g>
	<path style="fill:#FFFFFF;" d="M432,270v-32l-20.4-2.8c-0.8-8-2.4-16-4.8-24l18-10.4l-12.4-30l-20,5.2c-4-7.2-8.4-14-13.6-20.4   l12.4-16.4l-22.8-22.8L352,128.8c-6.4-5.2-13.2-9.6-20.4-13.6l5.2-20l-30-12.4l-10.4,18c-7.6-2-15.6-3.6-24-4.8L270,76h-32   l-2.8,20.4c-8,0.8-16,2.4-24,4.8l-10.4-18l-30,12.4l5.2,20c-7.2,4-14,8.4-20.4,13.6l-16.4-12.4l-22.8,22.8l12.4,16.4   c-5.2,6.4-9.6,13.2-13.6,20.4l-20-5.2l-12.4,30l18,10.4c-2,7.6-3.6,15.6-4.8,24L76,238v32l20.4,2.8c0.8,8,2.4,16,4.8,24l-18,10.4   l12.4,30l20-5.2c4,7.2,8.4,14,13.6,20.4l-12.4,16.4l22.8,22.8l16.4-12.4c6.4,5.2,13.2,9.6,20.4,13.6l-5.2,20l30,12.4l10.4-18   c7.6,2,15.6,3.6,24,4.8l2.8,20.4H270l2.8-20.4c8-0.8,16-2.4,24-4.8l10.4,18l30-12.4l-5.2-20c7.2-4,14-8.4,20.4-13.6l16.4,12.4   l22.8-22.8l-12.4-16.4c5.2-6.4,9.6-13.2,13.6-20.4l20,5.2l12.4-30l-18-10.4c2-7.6,3.6-15.6,4.8-24L432,270z M254,366.8   c-62.4,0-112.8-50.4-112.8-112.8S191.6,141.2,254,141.2S366.8,191.6,366.8,254S316.4,366.8,254,366.8z"/>
	<path style="fill:#FFFFFF;" d="M334,261.2v-14.4l-9.2-1.2c-0.4-3.6-1.2-7.2-2-10.8l8-4.8l-5.6-13.2l-9.2,2.4c-1.6-3.2-4-6.4-6-9.2   l5.6-7.6L305.2,192l-7.2,6c-2.8-2.4-6-4.4-9.2-6l2.4-9.2l-13.2-5.2l-4.8,8c-3.6-0.8-7.2-1.6-10.8-2l-1.2-9.6h-14.4l-1.2,9.2   c-3.6,0.4-7.2,1.2-10.8,2l-4.8-8l-13.2,5.6l2.4,9.2c-3.2,1.6-6.4,4-9.2,6l-7.6-5.6L192,202.8l6,7.2c-2.4,2.8-4.4,6-6,9.2l-9.2-2.4   l-5.2,13.2l8,4.8c-0.8,3.6-1.6,7.2-2,10.8l-9.6,1.2v14.4l9.2,1.2c0.4,3.6,1.2,7.2,2,10.8l-8,4.8l5.6,13.2l9.2-2.4   c1.6,3.2,4,6,6,9.2l-5.6,7.6l10.4,10.4l7.2-6c2.8,2.4,6,4.4,9.2,6l-2.4,9.2l13.2,5.6l4.8-8c3.6,0.8,7.2,1.6,10.8,2l1.2,9.2h14.4   l1.2-9.2c3.6-0.4,7.2-1.2,10.8-2l4.8,8l13.2-5.6l-2.4-9.2c3.2-1.6,6-4,9.2-6l7.6,5.6l10.4-10.4l-6-7.2c2.4-2.8,4.4-6,6-9.2l9.2,2.4   l5.6-13.2l-8-4.8c0.8-3.6,1.6-7.2,2-10.8L334,261.2z M254,304.8c-28,0-50.8-22.8-50.8-50.8s22.8-50.8,50.8-50.8   s50.8,22.8,50.8,50.8S282,304.8,254,304.8z"/>
</g>
<g>
</g>
<g>
</g>
<g>
</g>
<g>
</g>
<g>
</g>
<g>
</g>
<g>
</g>
<g>
</g>
<g>
</g>
<g>
</g>
<g>
</g>
<g>
</g>
<g>
</g>
<g>
</g>
<g>
</g>
</svg>
