<?xml version="1.0" encoding="iso-8859-1"?>
<!-- Generator: Adobe Illustrator 19.0.0, SVG Export Plug-In . SVG Version: 6.00 Build 0)  -->
<svg xmlns="http://www.w3.org/2000/svg" xmlns:xlink="http://www.w3.org/1999/xlink" version="1.1" id="Layer_1" x="0px" y="0px" viewBox="0 0 508 508" style="enable-background:new 0 0 508 508;" xml:space="preserve">
<circle style="fill:#FD8469;" cx="254" cy="254" r="254"/>
<path style="fill:#324A5E;" d="M364.4,440H143.6c-7.6,0-13.6-6-13.6-13.6V81.6c0-7.6,6-13.6,13.6-13.6H364c7.6,0,13.6,6,13.6,13.6  v344.8C378,434,371.6,440,364.4,440z"/>
<rect x="143.2" y="100" style="fill:#FFFFFF;" width="221.2" height="297.6"/>
<g>
	<path style="fill:#2B3B4E;" d="M292.8,88.4h-57.6c-2,0-4-1.6-4-4l0,0c0-2,1.6-4,4-4h57.6c2,0,4,1.6,4,4l0,0   C296.8,86.4,294.8,88.4,292.8,88.4z"/>
	<path style="fill:#2B3B4E;" d="M220.8,88.4h-5.6c-2,0-4-1.6-4-4l0,0c0-2,1.6-4,4-4h5.6c2,0,4,1.6,4,4l0,0   C224.8,86.4,223.2,88.4,220.8,88.4z"/>
	<circle style="fill:#2B3B4E;" cx="254" cy="417.6" r="14"/>
</g>
<g>
	<rect x="158" y="271.2" style="fill:#84DBFF;" width="20" height="106"/>
	<rect x="192.4" y="240.4" style="fill:#84DBFF;" width="20" height="136.8"/>
	<rect x="226.8" y="268.8" style="fill:#84DBFF;" width="20" height="108.4"/>
	<rect x="261.2" y="184.4" style="fill:#84DBFF;" width="20" height="192.8"/>
	<rect x="295.6" y="224.4" style="fill:#84DBFF;" width="20" height="152.8"/>
	<rect x="330" y="276" style="fill:#84DBFF;" width="20" height="100.8"/>
</g>
<g>
</g>
<g>
</g>
<g>
</g>
<g>
</g>
<g>
</g>
<g>
</g>
<g>
</g>
<g>
</g>
<g>
</g>
<g>
</g>
<g>
</g>
<g>
</g>
<g>
</g>
<g>
</g>
<g>
</g>
</svg>
