<?xml version="1.0" encoding="iso-8859-1"?>
<!-- Generator: Adobe Illustrator 19.0.0, SVG Export Plug-In . SVG Version: 6.00 Build 0)  -->
<svg xmlns="http://www.w3.org/2000/svg" xmlns:xlink="http://www.w3.org/1999/xlink" version="1.1" id="Layer_1" x="0px" y="0px" viewBox="0 0 508 508" style="enable-background:new 0 0 508 508;" xml:space="preserve">
<circle style="fill:#FFD05B;" cx="254" cy="254" r="254"/>
<path style="fill:#324A5E;" d="M332.8,145.2v89.6c-8.4-7.6-17.6-13.6-27.6-18.4v-71.2c0-28.4-22.8-51.2-51.2-51.2  s-51.2,22.8-51.2,51.2v71.2c-10,4.8-19.6,11.2-27.6,18.4v-89.6c0-43.6,35.6-78.8,78.8-78.8S332.8,101.6,332.8,145.2z"/>
<path id="SVGCleanerId_0" style="fill:#FFFFFF;" d="M254,204.8L254,204.8c-65.6,0-118.4,53.2-118.4,118.4l0,0  c0,65.6,53.2,118.4,118.4,118.4l0,0c65.6,0,118.4-53.2,118.4-118.4l0,0C372.4,257.6,319.6,204.8,254,204.8z"/>
<g>
	<path id="SVGCleanerId_0_1_" style="fill:#FFFFFF;" d="M254,204.8L254,204.8c-65.6,0-118.4,53.2-118.4,118.4l0,0   c0,65.6,53.2,118.4,118.4,118.4l0,0c65.6,0,118.4-53.2,118.4-118.4l0,0C372.4,257.6,319.6,204.8,254,204.8z"/>
</g>
<path style="fill:#E6E9EE;" d="M254,230L254,230c-51.6,0-93.2,41.6-93.2,93.2l0,0c0,51.6,41.6,93.2,93.2,93.2l0,0  c51.6,0,93.2-41.6,93.2-93.2l0,0C347.2,271.6,305.6,230,254,230z"/>
<path style="fill:#FFFFFF;" d="M254,237.6L254,237.6c-51.6,0-93.2,38.4-93.2,85.6l0,0c0,47.2,41.6,85.6,93.2,85.6l0,0  c51.6,0,93.2-38.4,93.2-85.6l0,0C347.2,276,305.6,237.6,254,237.6z"/>
<path style="fill:#324A5E;" d="M268,310.8c0-8-6.4-14-14-14c-8,0-14,6.4-14,14c0,5.6,3.2,10,7.6,12.4v20c0,3.6,2.8,6.4,6.4,6.4l0,0  c3.6,0,6.4-2.8,6.4-6.4v-20C265.2,320.8,268,316,268,310.8z"/>
<g>
</g>
<g>
</g>
<g>
</g>
<g>
</g>
<g>
</g>
<g>
</g>
<g>
</g>
<g>
</g>
<g>
</g>
<g>
</g>
<g>
</g>
<g>
</g>
<g>
</g>
<g>
</g>
<g>
</g>
</svg>
