<?xml version="1.0" encoding="iso-8859-1"?>
<!-- Generator: Adobe Illustrator 19.0.0, SVG Export Plug-In . SVG Version: 6.00 Build 0)  -->
<svg xmlns="http://www.w3.org/2000/svg" xmlns:xlink="http://www.w3.org/1999/xlink" version="1.1" id="Layer_1" x="0px" y="0px" viewBox="0 0 508 508" style="enable-background:new 0 0 508 508;" xml:space="preserve">
<circle style="fill:#84DBFF;" cx="254" cy="254" r="254"/>
<path style="fill:#324A5E;" d="M354.8,437.2H153.2c-15.6,0-28-12.4-28-28V98.4c0-15.6,12.4-28,28-28h201.6c15.6,0,28,12.4,28,28  v310.8C382.8,424.8,370,437.2,354.8,437.2z"/>
<rect x="142.4" y="109.2" style="fill:#FFFFFF;" width="222.8" height="273.2"/>
<g>
	<circle style="fill:#2B3B4E;" cx="254" cy="408.4" r="16.4"/>
	<path style="fill:#2B3B4E;" d="M286.4,94.4H240c-2.4,0-4.4-2-4.4-4.4l0,0c0-2.4,2-4.4,4.4-4.4h46.4c2.4,0,4.4,2,4.4,4.4l0,0   C290.8,92.4,288.8,94.4,286.4,94.4z"/>
	<path style="fill:#2B3B4E;" d="M226,94.4h-4.4c-2.4,0-4.4-2-4.4-4.4l0,0c0-2.4,2-4.4,4.4-4.4h4.4c2.4,0,4.4,2,4.4,4.4l0,0   C230.4,92.4,228.4,94.4,226,94.4z"/>
</g>
<g>
	<path style="fill:#FF7058;" d="M330,232.4c-2-11.6-6.4-22-12.8-31.2l8.8-12L310.8,174l-12,8.8c-9.2-6.4-19.6-10.8-31.2-12.8   l-2.4-14.8h-21.6l-2.4,14.8c-11.6,2-22,6.4-31.2,12.8l-12-8.8l-16,14.8l8.8,12C184.4,210,180,220.4,178,232l-14.8,2.4V256l14.8,2.4   c2,11.6,6.4,22,12.8,31.2L182,302l15.2,15.2l12-8.8c9.2,6.4,19.6,10.8,31.2,12.8l2.4,14.8h21.6l2.4-14.8c11.6-2,22-6.4,31.2-12.8   l12,8.8l16-15.2l-8.8-12c6.4-9.2,10.8-19.6,12.8-31.2l14.8-2.4v-21.6L330,232.4z M254,296.4c-28,0-50.8-22.8-50.8-50.8   s22.8-50.8,50.8-50.8s50.8,22.8,50.8,50.8S282,296.4,254,296.4z"/>
	<circle style="fill:#FF7058;" cx="254" cy="245.6" r="33.6"/>
</g>
<g>
</g>
<g>
</g>
<g>
</g>
<g>
</g>
<g>
</g>
<g>
</g>
<g>
</g>
<g>
</g>
<g>
</g>
<g>
</g>
<g>
</g>
<g>
</g>
<g>
</g>
<g>
</g>
<g>
</g>
</svg>
