<?xml version="1.0" encoding="iso-8859-1"?>
<!-- Generator: Adobe Illustrator 19.0.0, SVG Export Plug-In . SVG Version: 6.00 Build 0)  -->
<svg xmlns="http://www.w3.org/2000/svg" xmlns:xlink="http://www.w3.org/1999/xlink" version="1.1" id="Layer_1" x="0px" y="0px" viewBox="0 0 508 508" style="enable-background:new 0 0 508 508;" xml:space="preserve">
<circle style="fill:#90DFAA;" cx="254" cy="254" r="254"/>
<path style="fill:#2C9984;" d="M72.4,431.6c46,47.2,110.4,76.4,181.6,76.4s135.6-29.2,181.6-76.4H72.4z"/>
<g>
	<rect x="405.2" y="108" style="fill:#324A5E;" width="17.2" height="323.6"/>
	<rect x="85.2" y="108" style="fill:#324A5E;" width="17.2" height="323.6"/>
</g>
<g>
	<rect x="102.8" y="393.6" style="fill:#2B3B4E;" width="302.8" height="10"/>
	<rect x="102.8" y="285.2" style="fill:#2B3B4E;" width="302.8" height="10"/>
	<rect x="102.8" y="176.4" style="fill:#2B3B4E;" width="302.8" height="10"/>
</g>
<path style="fill:#FFFFFF;" d="M202.4,393.6H128c-3.2,0-6-2.8-6-6v-68.4c0-3.2,2.8-6,6-6h74.8c3.2,0,6,2.8,6,6v68.4  C208.4,390.8,205.6,393.6,202.4,393.6z"/>
<rect x="154.4" y="313.6" style="fill:#FFD05B;" width="21.2" height="10.8"/>
<path style="fill:#FFFFFF;" d="M312.8,393.6h-74.4c-3.2,0-6-2.8-6-6v-68.4c0-3.2,2.8-6,6-6h74.8c3.2,0,6,2.8,6,6v68.4  C318.8,390.8,316,393.6,312.8,393.6z"/>
<rect x="264.8" y="313.6" style="fill:#FFD05B;" width="21.2" height="10.8"/>
<path style="fill:#FFFFFF;" d="M268.4,285.2h-74.8c-3.2,0-6-2.8-6-6v-68.4c0-3.2,2.8-6,6-6h74.8c3.2,0,6,2.8,6,6v68.4  C274.4,282.4,271.6,285.2,268.4,285.2z"/>
<rect x="220.4" y="205.2" style="fill:#FFD05B;" width="21.2" height="10.8"/>
<path style="fill:#FFFFFF;" d="M378.8,285.2h-74.4c-3.2,0-6-2.8-6-6v-68.4c0-3.2,2.8-6,6-6h74.8c3.2,0,6,2.8,6,6v68.4  C384.8,282.4,382,285.2,378.8,285.2z"/>
<rect x="330.8" y="205.2" style="fill:#FFD05B;" width="21.2" height="10.8"/>
<path style="fill:#FFFFFF;" d="M202.4,176.4H128c-3.2,0-6-2.8-6-6v-68c0-3.2,2.8-6,6-6h74.8c3.2,0,6,2.8,6,6v68.4  C208.4,174,205.6,176.4,202.4,176.4z"/>
<rect x="154.4" y="96.4" style="fill:#FFD05B;" width="21.2" height="10.8"/>
<path style="fill:#FFFFFF;" d="M312.8,176.4h-74.4c-3.2,0-6-2.8-6-6v-68c0-3.2,2.8-6,6-6h74.8c3.2,0,6,2.8,6,6v68.4  C318.8,174,316,176.4,312.8,176.4z"/>
<rect x="264.8" y="96.4" style="fill:#FFD05B;" width="21.2" height="10.8"/>
<g>
</g>
<g>
</g>
<g>
</g>
<g>
</g>
<g>
</g>
<g>
</g>
<g>
</g>
<g>
</g>
<g>
</g>
<g>
</g>
<g>
</g>
<g>
</g>
<g>
</g>
<g>
</g>
<g>
</g>
</svg>
