<?xml version="1.0" encoding="iso-8859-1"?>
<!-- Generator: Adobe Illustrator 19.0.0, SVG Export Plug-In . SVG Version: 6.00 Build 0)  -->
<svg xmlns="http://www.w3.org/2000/svg" xmlns:xlink="http://www.w3.org/1999/xlink" version="1.1" id="Layer_1" x="0px" y="0px" viewBox="0 0 508 508" style="enable-background:new 0 0 508 508;" xml:space="preserve">
<circle style="fill:#324A5E;" cx="254" cy="254" r="254"/>
<path style="fill:#E6E9EE;" d="M321.6,302L302,321.6l-16-16c7.2-5.6,14-12.4,19.6-19.6L321.6,302z"/>
<circle style="fill:#FFFFFF;" cx="210.4" cy="210.4" r="121.6"/>
<circle style="fill:#54C0EB;" cx="210.4" cy="210.4" r="96"/>
<path style="fill:#FFFFFF;" d="M325.6,297.6l-28,28c-3.2,3.2-3.2,8.4,0,11.6l79.6,79.6c3.2,3.2,8.4,3.2,11.6,0l28-28  c3.2-3.2,3.2-8.4,0-11.6l-79.6-79.6C334,294.4,328.8,294.4,325.6,297.6z"/>
<ellipse transform="matrix(0.7071 -0.7071 0.7071 0.7071 -68.0128 164.646)" style="fill:#84DBFF;" cx="164.739" cy="164.422" rx="28.4" ry="14"/>
<g>
</g>
<g>
</g>
<g>
</g>
<g>
</g>
<g>
</g>
<g>
</g>
<g>
</g>
<g>
</g>
<g>
</g>
<g>
</g>
<g>
</g>
<g>
</g>
<g>
</g>
<g>
</g>
<g>
</g>
</svg>
