<?xml version="1.0" encoding="iso-8859-1"?>
<!-- Generator: Adobe Illustrator 19.0.0, SVG Export Plug-In . SVG Version: 6.00 Build 0)  -->
<svg xmlns="http://www.w3.org/2000/svg" xmlns:xlink="http://www.w3.org/1999/xlink" version="1.1" id="Layer_1" x="0px" y="0px" viewBox="0 0 508 508" style="enable-background:new 0 0 508 508;" xml:space="preserve">
<circle style="fill:#324A5E;" cx="254" cy="254" r="254"/>
<path style="fill:#2B3B4E;" d="M61.6,419.6C108,473.6,177.2,508,254,508s146-34.4,192.4-88.4H61.6z"/>
<g>
	<path style="fill:#CED5E0;" d="M340.8,230.8l-145.6-8c12-12.8,14.4-32.4,4.8-47.6l144,23.6C336.4,207.6,335.2,220.4,340.8,230.8z"/>
	<path style="fill:#CED5E0;" d="M378,242l-3.6,52.4l-14.4,0.4l-7.2-52.8C361.2,246.4,370.4,246,378,242z"/>
	<path style="fill:#CED5E0;" d="M206,376.8h-92l29.6-148.4c12,8.4,28,9.6,41.6,2.4L206,376.8z"/>
</g>
<path style="fill:#E6E9EE;" d="M197.6,171.2c13.2,17.2,10,42.4-7.2,55.6c-17.2,13.6-42.4,10.4-55.6-7.2c-13.2-17.2-10-42.4,7.2-55.6  C159.2,150.8,184.4,154,197.6,171.2z"/>
<circle style="fill:#CED5E0;" cx="166" cy="195.6" r="22.8"/>
<g>
	<circle style="fill:#E6E9EE;" cx="166" cy="195.6" r="7.6"/>
	<circle style="fill:#E6E9EE;" cx="365.2" cy="217.2" r="28"/>
</g>
<circle style="fill:#CED5E0;" cx="365.2" cy="217.2" r="16"/>
<g>
	<circle style="fill:#E6E9EE;" cx="365.2" cy="217.2" r="5.2"/>
	<path style="fill:#E6E9EE;" d="M279.2,419.6V398c0-11.6-9.6-21.2-21.2-21.2H100.4c-11.6,0-21.2,9.6-21.2,21.2v21.6H279.2z"/>
</g>
<path style="fill:#CED5E0;" d="M405.2,419.6V342c0-1.6-1.6-3.2-3.2-3.2h-66c-1.6,0-3.2,1.6-3.2,3.2v77.6H405.2z"/>
<g>
</g>
<g>
</g>
<g>
</g>
<g>
</g>
<g>
</g>
<g>
</g>
<g>
</g>
<g>
</g>
<g>
</g>
<g>
</g>
<g>
</g>
<g>
</g>
<g>
</g>
<g>
</g>
<g>
</g>
</svg>
