<?xml version="1.0" encoding="iso-8859-1"?>
<!-- Generator: Adobe Illustrator 19.0.0, SVG Export Plug-In . SVG Version: 6.00 Build 0)  -->
<svg xmlns="http://www.w3.org/2000/svg" xmlns:xlink="http://www.w3.org/1999/xlink" version="1.1" id="Layer_1" x="0px" y="0px" viewBox="0 0 508 508" style="enable-background:new 0 0 508 508;" xml:space="preserve">
<path style="fill:#FF7058;" d="M508,254c0,140.4-113.6,254-254,254S0,394.4,0,254S113.6,0,254,0c110.8,0,204.8,70.8,239.6,169.6  c7.6,21.2,12,43.6,13.6,66.8C508,242.4,508,248,508,254z"/>
<path style="fill:#F1543F;" d="M72.4,431.6c46,47.2,110.4,76.4,181.6,76.4s135.6-29.2,181.6-76.4H72.4z"/>
<rect x="103.6" y="92.8" style="fill:#FFFFFF;" width="300.8" height="338.8"/>
<rect x="139.2" y="134.4" style="fill:#CED5E0;" width="230" height="296.8"/>
<rect x="139.2" y="134.4" style="fill:#E6E9EE;" width="114.8" height="296.8"/>
<rect x="254" y="134.4" style="fill:#CED5E0;" width="114.8" height="296.8"/>
<rect x="292" y="182.4" style="fill:#324A5E;" width="34.8" height="105.6"/>
<polygon style="fill:#2B3B4E;" points="292,288 326.8,288 326.8,182.4 "/>
<rect x="181.2" y="182.4" style="fill:#324A5E;" width="34.8" height="105.6"/>
<polygon style="fill:#2B3B4E;" points="181.2,288 216,288 216,182.4 "/>
<path style="fill:#E6E9EE;" d="M277.6,122h-47.2c-1.6,0-2.8-1.2-2.8-2.8v-10.8c0-1.6,1.2-2.8,2.8-2.8h47.2c1.6,0,2.8,1.2,2.8,2.8  v10.8C280.4,120.8,279.2,122,277.6,122z"/>
<rect x="236.8" y="109.2" style="fill:#54C0EB;" width="34.4" height="8.8"/>
<path style="fill:#FFFFFF;" d="M442,272h-23.2c-2.4,0-4.4-2-4.4-4.4v-66c0-2.4,2-4.4,4.4-4.4H442c2.4,0,4.4,2,4.4,4.4V268  C446.4,270.4,444.4,272,442,272z"/>
<path style="fill:#FFD05B;" d="M439.2,265.6h-17.6c-1.2,0-2-0.8-2-2v-16.8c0-1.2,0.8-2,2-2h17.6c1.2,0,2,0.8,2,2v16.8  C441.2,264.8,440,265.6,439.2,265.6z"/>
<g>
	<circle style="fill:#84DBFF;" cx="430.4" cy="208" r="4"/>
	<circle style="fill:#84DBFF;" cx="430.4" cy="220.4" r="4"/>
	<circle style="fill:#84DBFF;" cx="430.4" cy="232.4" r="4"/>
</g>
<g>
</g>
<g>
</g>
<g>
</g>
<g>
</g>
<g>
</g>
<g>
</g>
<g>
</g>
<g>
</g>
<g>
</g>
<g>
</g>
<g>
</g>
<g>
</g>
<g>
</g>
<g>
</g>
<g>
</g>
</svg>
