<?xml version="1.0" encoding="iso-8859-1"?>
<!-- Generator: Adobe Illustrator 19.0.0, SVG Export Plug-In . SVG Version: 6.00 Build 0)  -->
<svg xmlns="http://www.w3.org/2000/svg" xmlns:xlink="http://www.w3.org/1999/xlink" version="1.1" id="Layer_1" x="0px" y="0px" viewBox="0 0 505 505" style="enable-background:new 0 0 505 505;" xml:space="preserve">
<circle style="fill:#FD8469;" cx="252.5" cy="252.5" r="252.5"/>
<path style="fill:#CED5E0;" d="M289.8,366.9h-63c-30,0-54.3-24.4-54.3-54.3c0-30,24.4-54.3,54.3-54.3h90.5c21,0,38-17.1,38-38v-13.1  c0-21-17.1-38-38-38h-13.5v-16h13.5c29.8,0,54,24.2,54,54v13.1c0,29.8-24.2,54-54,54h-90.5c-21.1,0-38.4,17.2-38.4,38.4  c0,21.1,17.2,38.4,38.4,38.4h63V366.9z"/>
<path style="fill:#2B3B4E;" d="M314.9,189.4h-50.2c-1.3,0-2.3-1-2.3-2.3v-52c0-1.3,1-2.3,2.3-2.3h50.2c1.3,0,2.3,1,2.3,2.3v52  C317.2,188.3,316.2,189.4,314.9,189.4z"/>
<rect x="100.8" y="115" style="fill:#FFFFFF;" width="86.5" height="93.8"/>
<path style="fill:#324A5E;" d="M281.9,218.7H161.8c-1.6,0-2.8-1.3-2.8-2.8V106.2c0-1.6,1.3-2.8,2.8-2.8h120.1c1.6,0,2.8,1.3,2.8,2.8  v109.7C284.7,217.5,283.5,218.7,281.9,218.7z"/>
<g>
	<rect x="112.9" y="128.5" style="fill:#CED5E0;" width="18.9" height="18.9"/>
	<rect x="112.9" y="176.3" style="fill:#CED5E0;" width="18.9" height="18.9"/>
</g>
<rect x="335" y="337.6" style="fill:#FFFFFF;" width="69.2" height="40.9"/>
<path style="fill:#324A5E;" d="M240,316.1h120.9c1.4,0,2.5,1.1,2.5,2.5v80.6c0,1.4-1.1,2.5-2.5,2.5H240c-1.4,0-2.5-1.1-2.5-2.5  v-80.6C237.5,317.2,238.6,316.1,240,316.1z"/>
<g>
</g>
<g>
</g>
<g>
</g>
<g>
</g>
<g>
</g>
<g>
</g>
<g>
</g>
<g>
</g>
<g>
</g>
<g>
</g>
<g>
</g>
<g>
</g>
<g>
</g>
<g>
</g>
<g>
</g>
</svg>
