<?xml version="1.0" encoding="iso-8859-1"?>
<!-- Generator: Adobe Illustrator 19.0.0, SVG Export Plug-In . SVG Version: 6.00 Build 0)  -->
<svg xmlns="http://www.w3.org/2000/svg" xmlns:xlink="http://www.w3.org/1999/xlink" version="1.1" id="Layer_1" x="0px" y="0px" viewBox="0 0 505 505" style="enable-background:new 0 0 505 505;" xml:space="preserve">
<ellipse style="fill:#FFD05B;" cx="252.5" cy="252.5" rx="246.9" ry="252.5"/>
<g>
	<polygon style="fill:#FFFFFF;" points="249.2,104 247.5,106.3 250.1,110.7 254.9,110.7 257.4,106.3 255.8,104  "/>
	<polygon style="fill:#FFFFFF;" points="250.1,110.7 243.6,141.9 252.5,149.2 261.4,141.9 254.9,110.7  "/>
</g>
<ellipse style="fill:#324A5E;" cx="252.5" cy="62.2" rx="27.5" ry="24"/>
<g>
	<path style="fill:#FFFFFF;" d="M304.4,163.5v-5c0-22.6-13.7-41.8-33.2-49.5l-18.7,37.1L233.7,109c-6.8,2.7-12.9,6.8-17.9,11.9   c-9.4,9.6-15.2,22.9-15.2,37.6v5.1h103.8V163.5z"/>
	<path style="fill:#FFFFFF;" d="M279.2,75.4c0,3.3-2.6,6-5.7,6c-3.4,10.4-11.5,17.7-21,17.7c-9.4,0-17.6-7.3-21-17.7   c-3.2-0.1-5.7-2.8-5.7-6c0-2.6,1.7-4.9,4-5.7c0-1,0.1-2,0.2-3c6.3,1.1,18.5-4.2,28.1-12.2c5.8,5.7,12.6,10.3,16.9,11.2   c0.2,1.3,0.3,2.6,0.3,4C277.5,70.5,279.2,72.7,279.2,75.4z"/>
	<polygon style="fill:#FFFFFF;" points="368.2,346.6 366.8,348.5 369,352.4 373.1,352.4 375.3,348.5 373.9,346.6  "/>
	<polygon style="fill:#FFFFFF;" points="369,352.4 363.4,379.2 371,385.5 378.7,379.2 373.1,352.4  "/>
</g>
<ellipse style="fill:#324A5E;" cx="371" cy="310.6" rx="23.6" ry="20.6"/>
<g>
	<path style="fill:#FFFFFF;" d="M415.7,397.8v-4.3c0-19.4-11.8-36-28.5-42.6l-16.1,31.9L355,350.9c-5.8,2.3-11.1,5.8-15.4,10.3   c-8.1,8.3-13.1,19.7-13.1,32.3v4.4h89.2V397.8z"/>
	<path style="fill:#FFFFFF;" d="M394,321.9c0,2.8-2.2,5.1-4.9,5.2c-2.9,9-9.9,15.3-18,15.3s-15.1-6.3-18-15.3   c-2.7-0.1-4.9-2.4-4.9-5.2c0-2.3,1.5-4.2,3.4-4.9c0-0.9,0-1.7,0.1-2.6c5.4,1,16-3.6,24.2-10.5c5,4.9,10.8,8.8,14.6,9.7   c0.1,1.1,0.2,2.2,0.2,3.4C392.6,317.7,394,319.7,394,321.9z"/>
	<polygon style="fill:#FFFFFF;" points="249.6,346.6 248.2,348.5 250.4,352.4 254.6,352.4 256.8,348.5 255.4,346.6  "/>
	<polygon style="fill:#FFFFFF;" points="250.4,352.4 244.8,379.2 252.5,385.5 260.2,379.2 254.6,352.4  "/>
</g>
<ellipse style="fill:#324A5E;" cx="252.5" cy="310.6" rx="23.6" ry="20.6"/>
<g>
	<path style="fill:#FFFFFF;" d="M297.2,397.8v-4.3c0-19.4-11.8-36-28.5-42.6l-16.2,31.9l-16.1-31.9c-5.8,2.3-11.1,5.8-15.4,10.3   c-8.1,8.3-13.1,19.7-13.1,32.3v4.4h89.3V397.8z"/>
	<path style="fill:#FFFFFF;" d="M275.5,321.9c0,2.8-2.2,5.1-4.9,5.2c-2.9,9-9.9,15.3-18,15.3s-15.1-6.3-18-15.3   c-2.7-0.1-4.9-2.4-4.9-5.2c0-2.3,1.5-4.2,3.4-4.9c0-0.9,0-1.7,0.1-2.6c5.4,1,16-3.6,24.2-10.5c5,4.9,10.8,8.8,14.6,9.7   c0.1,1.1,0.2,2.2,0.2,3.4C274,317.7,275.5,319.7,275.5,321.9z"/>
	<polygon style="fill:#FFFFFF;" points="131.1,346.6 129.7,348.5 131.9,352.4 136,352.4 138.2,348.5 136.8,346.6  "/>
	<polygon style="fill:#FFFFFF;" points="131.9,352.4 126.3,379.2 134,385.5 141.6,379.2 136,352.4  "/>
</g>
<ellipse style="fill:#324A5E;" cx="134" cy="310.6" rx="23.6" ry="20.6"/>
<g>
	<path style="fill:#FFFFFF;" d="M178.6,397.8v-4.3c0-19.4-11.8-36-28.5-42.6L134,382.8l-16.1-31.9c-5.8,2.3-11.1,5.8-15.4,10.3   c-8.1,8.3-13.1,19.7-13.1,32.3v4.4h89.2V397.8z"/>
	<path style="fill:#FFFFFF;" d="M156.9,321.9c0,2.8-2.2,5.1-4.9,5.2c-2.9,9-9.9,15.3-18,15.3s-15.1-6.3-18-15.3   c-2.7-0.1-4.9-2.4-4.9-5.2c0-2.3,1.5-4.2,3.4-4.9c0-0.9,0-1.7,0.1-2.6c5.4,1,16-3.6,24.2-10.5c5,4.9,10.8,8.8,14.6,9.7   c0.1,1.1,0.2,2.2,0.2,3.4C155.5,317.7,156.9,319.7,156.9,321.9z"/>
</g>
<path style="fill:#FF7058;" d="M373.2,212.8h-111V190c0-5.3-4.3-9.6-9.6-9.6c-5.3,0-9.6,4.3-9.6,9.6v22.8H132  c-5.3,0-9.6,4.3-9.6,9.6v31.5c0,5.3,4.3,9.6,9.6,9.6s9.6-4.3,9.6-9.6v-21.8H243v21.8c0,5.3,4.3,9.6,9.6,9.6c5.3,0,9.6-4.3,9.6-9.6  v-21.8h101.3v21.8c0,5.3,4.3,9.6,9.6,9.6c5.3,0,9.6-4.3,9.6-9.6v-31.5C382.8,217.1,378.5,212.8,373.2,212.8z"/>
<g>
</g>
<g>
</g>
<g>
</g>
<g>
</g>
<g>
</g>
<g>
</g>
<g>
</g>
<g>
</g>
<g>
</g>
<g>
</g>
<g>
</g>
<g>
</g>
<g>
</g>
<g>
</g>
<g>
</g>
</svg>
