<?xml version="1.0" encoding="iso-8859-1"?>
<!-- Generator: Adobe Illustrator 19.0.0, SVG Export Plug-In . SVG Version: 6.00 Build 0)  -->
<svg xmlns="http://www.w3.org/2000/svg" xmlns:xlink="http://www.w3.org/1999/xlink" version="1.1" id="Layer_1" x="0px" y="0px" viewBox="0 0 505 505" style="enable-background:new 0 0 505 505;" xml:space="preserve">
<circle style="fill:#84DBFF;" cx="252.5" cy="252.5" r="252.5"/>
<rect x="134.7" y="334.9" style="fill:#FFFFFF;" width="144.1" height="91.6"/>
<path style="fill:#324A5E;" d="M302,96.3v237c0,0.9-0.7,1.7-1.7,1.7H113c-0.9,0-1.7-0.7-1.7-1.7v-237c0-9.8,8-17.8,17.8-17.8h155  C294,78.5,302,86.5,302,96.3z"/>
<g>
	<rect x="161.6" y="377.6" style="fill:#E6E9EE;" width="28.2" height="28.2"/>
	<rect x="223.6" y="377.6" style="fill:#E6E9EE;" width="28.2" height="28.2"/>
</g>
<g>
	<path style="fill:#FFFFFF;" d="M383.6,278.9c-2.5,0-5-1-7-2.9c-3.9-3.9-3.9-10.1,0-13.9c24.5-24.5,24.5-64.4,0-88.8   c-3.9-3.9-3.9-10.1,0-13.9c3.8-3.9,10.1-3.9,13.9,0c32.2,32.2,32.2,84.6,0,116.7C388.7,278,386.1,278.9,383.6,278.9z"/>
	<path style="fill:#FFFFFF;" d="M354,249.3c-2.5,0-5-1-7-2.9c-3.9-3.9-3.9-10.1,0-13.9c4-4,6.1-9.2,6.1-14.8s-2.2-10.9-6.1-14.8   c-3.9-3.9-3.9-10.1,0-13.9c3.9-3.9,10.1-3.9,13.9,0c7.7,7.7,11.9,17.9,11.9,28.8c0,10.9-4.2,21.1-11.9,28.8   C359.1,248.4,356.5,249.3,354,249.3z"/>
</g>
<g>
</g>
<g>
</g>
<g>
</g>
<g>
</g>
<g>
</g>
<g>
</g>
<g>
</g>
<g>
</g>
<g>
</g>
<g>
</g>
<g>
</g>
<g>
</g>
<g>
</g>
<g>
</g>
<g>
</g>
</svg>
