<?xml version="1.0" encoding="iso-8859-1"?>
<!-- Generator: Adobe Illustrator 19.0.0, SVG Export Plug-In . SVG Version: 6.00 Build 0)  -->
<svg xmlns="http://www.w3.org/2000/svg" xmlns:xlink="http://www.w3.org/1999/xlink" version="1.1" id="Layer_1" x="0px" y="0px" viewBox="0 0 505 505" style="enable-background:new 0 0 505 505;" xml:space="preserve">
<circle style="fill:#324A5E;" cx="252.5" cy="252.5" r="252.5"/>
<rect x="105.9" y="105.8" style="fill:#FFFFFF;" width="293.1" height="293.7"/>
<g>
	<rect x="347.2" y="123.4" style="fill:#FF7058;" width="37.1" height="33.3"/>
	<rect x="347.2" y="179.7" style="fill:#FF7058;" width="37.1" height="33.3"/>
	<rect x="347.2" y="236" style="fill:#FF7058;" width="37.1" height="33.3"/>
	<rect x="347.2" y="292.3" style="fill:#FF7058;" width="37.1" height="33.3"/>
	<rect x="347.2" y="348.5" style="fill:#FF7058;" width="37.1" height="33.3"/>
	<rect x="120.7" y="123.4" style="fill:#FF7058;" width="37.1" height="33.3"/>
	<rect x="120.7" y="179.7" style="fill:#FF7058;" width="37.1" height="33.3"/>
	<rect x="120.7" y="236" style="fill:#FF7058;" width="37.1" height="33.3"/>
	<rect x="120.7" y="292.3" style="fill:#FF7058;" width="37.1" height="33.3"/>
	<rect x="120.7" y="348.5" style="fill:#FF7058;" width="37.1" height="33.3"/>
	<rect x="176.1" y="188" style="fill:#FF7058;" width="152.8" height="129.2"/>
	<rect x="176.1" y="105.5" style="fill:#FF7058;" width="152.8" height="57"/>
	<rect x="176.1" y="342.5" style="fill:#FF7058;" width="152.8" height="57"/>
</g>
<path style="fill:#FFD05B;" d="M228.2,227.3V278c0,6.7,7.7,10.4,13,6.3l32.6-25.4c4.1-3.2,4.1-9.5,0-12.7l-32.6-25.4  C235.9,216.8,228.2,220.6,228.2,227.3z"/>
<g>
</g>
<g>
</g>
<g>
</g>
<g>
</g>
<g>
</g>
<g>
</g>
<g>
</g>
<g>
</g>
<g>
</g>
<g>
</g>
<g>
</g>
<g>
</g>
<g>
</g>
<g>
</g>
<g>
</g>
</svg>
