<?xml version="1.0" encoding="iso-8859-1"?>
<!-- Generator: Adobe Illustrator 19.0.0, SVG Export Plug-In . SVG Version: 6.00 Build 0)  -->
<svg xmlns="http://www.w3.org/2000/svg" xmlns:xlink="http://www.w3.org/1999/xlink" version="1.1" id="Layer_1" x="0px" y="0px" viewBox="0 0 505 505" style="enable-background:new 0 0 505 505;" xml:space="preserve">
<circle style="fill:#90DFAA;" cx="252.5" cy="252.5" r="252.5"/>
<path style="fill:#324A5E;" d="M366.3,431.7H138.7c-2.3,0-4.2-1.9-4.2-4.2V77.4c0-2.3,1.9-4.2,4.2-4.2h227.7c2.3,0,4.2,1.9,4.2,4.2  v350.2C370.5,429.9,368.6,431.7,366.3,431.7z"/>
<rect x="166.9" y="112.1" style="fill:#E6E9EE;" width="171.3" height="255.9"/>
<path style="fill:#FF7058;" d="M292.3,265.4c3,0,5.5-2.3,7.8-7.1c2.2-4.7,3.4-10.6,3.4-17.7c0-15.4-4.4-28.2-13.3-38.3  s-20.7-15.2-35.6-15.2s-27.4,5.3-37.5,15.9c-10.2,10.6-15.2,23.3-15.2,38.1s4.8,27.1,14.3,37c9.6,9.8,21.4,14.7,35.5,14.7  c11,0,20.8-4,29.2-12.1l6.7,11.6c-4.4,3.8-9.9,6.9-16.7,9.3c-6.8,2.3-13.2,3.5-19.2,3.5c-18.3,0-33.5-6.1-45.8-18.3  c-12.3-12.2-18.4-27.4-18.4-45.7s6.5-33.9,19.4-46.9c12.9-12.9,28.6-19.4,46.8-19.4c18.3,0,33.5,6.2,45.7,18.7s18.4,28,18.4,46.6  c0,12-2.5,21.7-7.5,28.9c-5,7.3-11.5,10.9-19.6,10.9c-4.2,0-8-1.3-11.4-3.8s-5.8-5.7-7.1-9.5c-6,7.8-13.6,11.6-22.9,11.6  c-9.2,0-17.3-3.5-24.1-10.5S215,251.8,215,241.1c0-10.8,3.1-19.8,9.3-27.2s14.3-11.1,24.3-11.1c3.4,0,6.6,0.7,9.7,2.2  s5.3,2.9,6.6,4.3l2.1,2.1v-6.7h20.5V257C287.3,262.6,289,265.4,292.3,265.4z M267,240.6c0-5.5-1.5-10-4.3-13.6s-6.7-5.4-11.4-5.4  c-4.7,0-8.4,1.8-11.2,5.4c-2.8,3.6-4.2,8.1-4.2,13.4c0,5.3,1.4,9.9,4.2,13.9c2.8,3.9,6.6,5.9,11.4,5.9c4.8,0,8.6-1.9,11.4-5.7  C265.6,250.7,267,246.1,267,240.6z"/>
<g>
	<path style="fill:#2B3B4E;" d="M285.9,100h-33.6c-3.6,0-6.5-2.9-6.5-6.5l0,0c0-3.6,2.9-6.5,6.5-6.5h33.6c3.6,0,6.5,2.9,6.5,6.5l0,0   C292.4,97.1,289.5,100,285.9,100z"/>
	<path style="fill:#2B3B4E;" d="M227.3,100h-8.2c-3.6,0-6.5-2.9-6.5-6.5l0,0c0-3.6,2.9-6.5,6.5-6.5h8.2c3.6,0,6.5,2.9,6.5,6.5l0,0   C233.7,97.1,230.8,100,227.3,100z"/>
	<circle style="fill:#2B3B4E;" cx="252.5" cy="400.5" r="16.8"/>
</g>
<g>
</g>
<g>
</g>
<g>
</g>
<g>
</g>
<g>
</g>
<g>
</g>
<g>
</g>
<g>
</g>
<g>
</g>
<g>
</g>
<g>
</g>
<g>
</g>
<g>
</g>
<g>
</g>
<g>
</g>
</svg>
