<?xml version="1.0" encoding="iso-8859-1"?>
<!-- Generator: Adobe Illustrator 19.0.0, SVG Export Plug-In . SVG Version: 6.00 Build 0)  -->
<svg xmlns="http://www.w3.org/2000/svg" xmlns:xlink="http://www.w3.org/1999/xlink" version="1.1" id="Layer_1" x="0px" y="0px" viewBox="0 0 505 505" style="enable-background:new 0 0 505 505;" xml:space="preserve">
<circle style="fill:#FFD05B;" cx="252.5" cy="252.5" r="252.5"/>
<path style="fill:#FF7058;" d="M375.1,414.7H129.9c-20,0-36.2-16.2-36.2-36.2V226.8c0-20,16.2-36.2,36.2-36.2H375  c20,0,36.2,16.2,36.2,36.2v151.7C411.3,398.5,395.1,414.7,375.1,414.7z"/>
<path style="fill:#F1543F;" d="M400.8,403.9c-6.5,6.6-15.7,10.8-25.8,10.8H130c-10.1,0-19.2-4.1-25.8-10.8l101.3-101.2l47-47l47,47  L400.8,403.9z"/>
<path style="fill:#E6E9EE;" d="M400.8,201.4L299.5,302.7L278.2,324c-14.2,14.2-37.2,14.2-51.3,0l-21.4-21.3L104.2,201.4  c6.5-6.6,15.7-10.8,25.8-10.8h245.1C385.1,190.6,394.3,194.7,400.8,201.4z"/>
<polygon style="fill:#324A5E;" points="231.6,171.8 234.9,233.1 270.1,233.1 273.4,171.8 305.1,171.8 252.5,90.3 199.9,171.8 "/>
<g>
</g>
<g>
</g>
<g>
</g>
<g>
</g>
<g>
</g>
<g>
</g>
<g>
</g>
<g>
</g>
<g>
</g>
<g>
</g>
<g>
</g>
<g>
</g>
<g>
</g>
<g>
</g>
<g>
</g>
</svg>
