<?xml version="1.0" encoding="iso-8859-1"?>
<!-- Generator: Adobe Illustrator 19.0.0, SVG Export Plug-In . SVG Version: 6.00 Build 0)  -->
<svg xmlns="http://www.w3.org/2000/svg" xmlns:xlink="http://www.w3.org/1999/xlink" version="1.1" id="Layer_1" x="0px" y="0px" viewBox="0 0 505 505" style="enable-background:new 0 0 505 505;" xml:space="preserve">
<circle style="fill:#FD8469;" cx="252.5" cy="252.5" r="252.5"/>
<path style="fill:#324A5E;" d="M377.2,432.5H127.8c-2,0-3.6-1.6-3.6-3.6V76.1c0-2,1.6-3.6,3.6-3.6h249.4c2,0,3.6,1.6,3.6,3.6v352.8  C380.8,430.9,379.2,432.5,377.2,432.5z"/>
<rect x="147.3" y="117.9" style="fill:#FFFFFF;" width="210.3" height="259.1"/>
<g>
	<circle style="fill:#ACB3BA;" cx="252.5" cy="403.4" r="14.7"/>
	<path style="fill:#ACB3BA;" d="M288.9,101.2h-43.4c-2.7,0-4.8-2.2-4.8-4.8l0,0c0-2.7,2.2-4.8,4.8-4.8h43.4c2.7,0,4.8,2.2,4.8,4.8   l0,0C293.7,99.1,291.5,101.2,288.9,101.2z"/>
	<path style="fill:#ACB3BA;" d="M227.7,101.2h-11.6c-2.7,0-4.8-2.2-4.8-4.8l0,0c0-2.7,2.2-4.8,4.8-4.8h11.6c2.7,0,4.8,2.2,4.8,4.8   l0,0C232.5,99.1,230.3,101.2,227.7,101.2z"/>
</g>
<path style="fill:#84DBFF;" d="M334.8,247.5c0,1.8-0.1,3.7-0.2,5.5c-2.8,42.9-38.5,76.9-82.2,76.9c-17.2,0-33.1-5.3-46.3-14.2  c-1.4-1-2.8-2-4.2-3.1c-19.4-15.1-31.8-38.6-31.8-65c0-0.1,0-0.2,0-0.4l0,0c0.1-21.3,8.2-40.6,21.6-55.2  c15-16.5,36.7-26.8,60.8-26.8c22,0,42,8.6,56.8,22.7C325,202.9,334.8,224,334.8,247.5z"/>
<g>
	<path style="fill:#2C9984;" d="M330,243c-0.6,2.7,0.2,5.6,0.2,8.4s-1.2,6.1-3.9,6.8c-1.6-5.5-3.1-10.9-4.6-16.4   c-0.4-1.3-1.1-2.9-2.5-2.9c-2.1,0-2,3.1-2.5,5.1c-1.2,4.9-8.2,5.4-11.5,9.2c-0.5,0.6-1,1.5-0.6,2.2c0.6,0.9,2,0.6,2.9,0   s1.9-1.4,2.9-1.2c-1.5,8.3-12.4,12.6-13.4,21c-0.3,2.8,0.6,5.6,0.8,8.4c0.2,2.8-0.8,6.1-3.4,7.2c-0.6,0.2-1.2,0.4-1.7,0.8   c-0.8,0.7-0.9,1.8-1.1,2.8c-1,6-5.2,11.3-10.9,13.5c-1.9,0.8-4,1.2-5.9,0.5c-3.8-1.3-5.2-5.8-6.1-9.7c-0.6-2.7-1.2-5.4-1.1-8.2   c0.2-4.6,2.2-9.5,0.1-13.7c-1.3-2.6-4.2-4.8-3.8-7.6c0.1-0.9,0.6-2,0.1-2.7c-0.3-0.5-0.9-0.6-1.5-0.8c-6.9-1.4-14.6,2.1-21.1-0.7   c-5.2-2.2-8.1-7.9-9.1-13.4c-1.1-6.5-0.1-13.6,3.5-19.1c3.6-5.6,9.9-9.5,16.5-9.6c2.3-0.1,4.7,0.3,6.9-0.2c1.8-0.4,3.4-1.4,5.2-1.6   c1.8-0.3,4,0.6,4.3,2.3c0.3,1.4-0.7,3.2,0.4,4.2c0.5,0.5,1.2,0.5,1.9,0.6c8.2,0.4,16.5,0.3,24.7-0.2c0.1-1.2,0.3-2.3,0.4-3.5   c-3.5-3.4-9.5-1.5-13.9-3.6c-1.8-0.9-3.3-2.4-4.8-3.7c-2.7-2.4-5.7-4.4-9.2-5.2s-7.4-0.3-10.1,2c-1.4,1.1-2.4,2.6-3.8,3.7   c-2.9,2.3-7,2.6-10.7,2.4c-0.6,0-1.3-0.1-1.8-0.4c-1.8-1.2-0.1-4.1,2-4.8c2-0.7,4.5-0.7,5.9-2.4c0.8-1,0.9-2.4,1.3-3.6   c1-3.1,3.9-5.3,6.9-6.6c3-1.2,6.3-1.7,9.6-2.4c3-0.7,6.3-2,7-5c-3.6,0.7-7.2,1.1-10.8,1.3c-1.1-3.3,1-7.1,4.1-8.7   c3.1-1.6,6.9-1.4,10.3-0.6c3.4,0.8,6.6,2.3,10,3.1c4.4,1.1,9.1,1.1,13.6,0.1c2.5-0.6,5-1.5,7.5-2.2c15.7,15,25.5,36.2,25.5,59.6   c0,1.8-0.1,3.7-0.2,5.5C333.1,249.6,331.5,246.3,330,243z"/>
	<path style="fill:#2C9984;" d="M215.2,281.7c-1.9,3.5-0.6,7.7-0.8,11.6c0,0.7-0.1,1.4-0.6,1.9c-0.8,0.8-2.1,0.4-3.2,0.6   c-2.3,0.4-3.3,3-3.7,5.2c-0.5,2.5-1.4,5.8-4,5.8c1.9,2.5,3,5.6,3.3,8.7c-1.4-1-2.8-2-4.2-3.1c-1.3-2.3-2.4-4.7-3.1-7.2   c-0.3-1.1-0.5-2.3-1-3.4c-1.6-3.5-6.1-5.4-7-9.2c-0.4-1.7,0-3.4,0-5.1s-0.5-3.6-2.1-4.4c-0.7-0.4-1.6-0.4-2.4-0.6   c-1.9-0.7-3-2.8-3.1-4.9c-0.1-2,0.7-4,1.4-5.9c-1.4,0.9-3.3,1.2-4.9,0.7c2-4.8,1.6-10.5-1-15c-0.8-1.3-1.6-3.3-0.4-4.2   c0.4-0.3,1-0.3,1.5-0.3c4.2,0.1,8.1,2.2,11.8,4.3c3.1,1.7,6.3,3.6,7.8,6.7c1.3,2.7,1.5,6.5,4.2,7.8c1.5,0.7,3.2,0.4,4.8,0.8   c2.6,0.6,4.5,2.8,6.2,4.9c0.6,0.7,1.2,1.5,1.1,2.4C215.9,280.5,215.5,281.1,215.2,281.7z"/>
	<path style="fill:#2C9984;" d="M249.2,178.5c-2.3,6-8.4,9.6-14.4,11.8s-12.5,3.6-17.8,7.2c0-2.3-0.2-4.5-0.6-6.7   c-0.3-2-1.5-4.5-3.5-4.2c-0.9,0.1-1.5,0.8-2.1,1.4c-1.1,1.1-2.3,2.3-3,3.8s-0.7,3.3,0.3,4.6s2.9,1.7,3.7,3.1c1,1.6-0.1,4-1.9,4.3   c-1.2,0.2-2.5-0.3-3.6,0.1c-2.5,0.9-1.5,4.9-3,7.1c-0.5,0.7-1.2,1.3-1.9,1.8c-4.3,3.1-8.6,6.3-12.8,9.4c-2.2,1.6-4.6,3.5-5.1,6.3   c-0.3,1.5,0.1,3.1-0.3,4.5c-0.3,1.2-1.1,2.2-1,3.4c0.1,1.3,1.3,2.2,2.2,3.2c1.9,1.9,3.1,4.5,3.2,7.3c-3.9,0.4-7.5-2-10.7-4.2   c1.3,2-0.4,4.9-2.8,5.4c-1.3,0.2-2.7-0.1-3.8-0.9l0,0c0.1-21.3,8.2-40.6,21.6-55.2c6.9-2,13.6-4.6,20-7.9c2.7-1.4,5.4-2.9,8.3-3.7   c2.2-0.6,4.4-0.9,6.6-1.2c7-0.9,14-1.7,21-2.6c0.5-0.1,1.1-0.1,1.4,0.3C249.6,177.3,249.4,178,249.2,178.5z"/>
</g>
<g>
</g>
<g>
</g>
<g>
</g>
<g>
</g>
<g>
</g>
<g>
</g>
<g>
</g>
<g>
</g>
<g>
</g>
<g>
</g>
<g>
</g>
<g>
</g>
<g>
</g>
<g>
</g>
<g>
</g>
</svg>
