<?xml version="1.0" encoding="iso-8859-1"?>
<!-- Generator: Adobe Illustrator 19.0.0, SVG Export Plug-In . SVG Version: 6.00 Build 0)  -->
<svg xmlns="http://www.w3.org/2000/svg" xmlns:xlink="http://www.w3.org/1999/xlink" version="1.1" id="Layer_1" x="0px" y="0px" viewBox="0 0 505 505" style="enable-background:new 0 0 505 505;" xml:space="preserve">
<circle style="fill:#90DFAA;" cx="252.5" cy="252.5" r="252.5"/>
<path style="fill:#324A5E;" d="M357,416.4H129.8c-1.8,0-3.3-1.5-3.3-3.3V91.8c0-1.8,1.5-3.3,3.3-3.3h227.1c1.8,0,3.3,1.5,3.3,3.3  v321.3C360.2,415,358.8,416.4,357,416.4z"/>
<rect x="147.6" y="129.9" style="fill:#84DBFF;" width="191.6" height="236"/>
<g>
	<circle style="fill:#ACB3BA;" cx="243.4" cy="390" r="13.4"/>
	<path style="fill:#ACB3BA;" d="M276.5,114.7h-39.6c-2.4,0-4.4-2-4.4-4.4l0,0c0-2.4,2-4.4,4.4-4.4h39.6c2.4,0,4.4,2,4.4,4.4l0,0   C280.9,112.8,278.9,114.7,276.5,114.7z"/>
	<path style="fill:#ACB3BA;" d="M220.8,114.7h-10.5c-2.4,0-4.4-2-4.4-4.4l0,0c0-2.4,2-4.4,4.4-4.4h10.5c2.4,0,4.4,2,4.4,4.4l0,0   C225.1,112.8,223.2,114.7,220.8,114.7z"/>
</g>
<path style="fill:#FFFFFF;" d="M434,331.4H196c-1.5,0-2.7-1.2-2.7-2.7V167.2c0-1.5,1.2-2.7,2.7-2.7h237.9c1.5,0,2.7,1.2,2.7,2.7  v161.5C436.6,330.2,435.5,331.4,434,331.4z"/>
<rect x="193.4" y="197.5" style="fill:#FF7058;" width="243.3" height="100.9"/>
<circle style="fill:#2B3B4E;" cx="315" cy="247.9" r="66.1"/>
<circle style="fill:#84DBFF;" cx="315" cy="247.9" r="50.4"/>
<circle style="fill:#54C0EB;" cx="315" cy="247.9" r="31.7"/>
<g>
	<circle style="fill:#FFFFFF;" cx="302.9" cy="229" r="14.9"/>
	<circle style="fill:#FFFFFF;" cx="319.4" cy="245.5" r="5"/>
</g>
<g>
</g>
<g>
</g>
<g>
</g>
<g>
</g>
<g>
</g>
<g>
</g>
<g>
</g>
<g>
</g>
<g>
</g>
<g>
</g>
<g>
</g>
<g>
</g>
<g>
</g>
<g>
</g>
<g>
</g>
</svg>
