<?xml version="1.0" encoding="iso-8859-1"?>
<!-- Generator: Adobe Illustrator 19.0.0, SVG Export Plug-In . SVG Version: 6.00 Build 0)  -->
<svg xmlns="http://www.w3.org/2000/svg" xmlns:xlink="http://www.w3.org/1999/xlink" version="1.1" id="Layer_1" x="0px" y="0px" viewBox="0 0 505 505" style="enable-background:new 0 0 505 505;" xml:space="preserve">
<circle style="fill:#FFD05B;" cx="252.5" cy="252.5" r="252.5"/>
<path style="fill:#FF7058;" d="M336.4,110c-36.5,0-68.1,20.6-83.9,50.8C236.7,130.6,205,110,168.6,110c-52.3,0-94.7,42.4-94.7,94.7  c0,150,178.7,232.6,178.7,232.6s178.7-82.6,178.7-232.6C431.2,152.4,388.8,110,336.4,110z"/>
<path style="fill:#FFFFFF;" d="M153.3,140.8c4.8,6-2.2,19.6-15.7,30.4c-13.5,10.9-28.3,14.8-33.1,8.9c-4.8-6,2.2-19.6,15.7-30.4  C133.6,138.8,148.5,134.8,153.3,140.8z"/>
<g>
</g>
<g>
</g>
<g>
</g>
<g>
</g>
<g>
</g>
<g>
</g>
<g>
</g>
<g>
</g>
<g>
</g>
<g>
</g>
<g>
</g>
<g>
</g>
<g>
</g>
<g>
</g>
<g>
</g>
</svg>
