<?xml version="1.0" encoding="iso-8859-1"?>
<!-- Generator: Adobe Illustrator 19.0.0, SVG Export Plug-In . SVG Version: 6.00 Build 0)  -->
<svg xmlns="http://www.w3.org/2000/svg" xmlns:xlink="http://www.w3.org/1999/xlink" version="1.1" id="Layer_1" x="0px" y="0px" viewBox="0 0 505 505" style="enable-background:new 0 0 505 505;" xml:space="preserve">
<circle style="fill:#FD8469;" cx="252.5" cy="252.5" r="252.5"/>
<g>
	<path style="fill:#2B3B4E;" d="M375.4,206h22.2c1.1,0,2-0.9,2-2v-29.3c0-1.1-0.9-2-2-2h-22.2c-1.1,0-2,0.9-2,2V204   C373.4,205.1,374.3,206,375.4,206z"/>
	<path style="fill:#2B3B4E;" d="M375.4,332.3h22.2c1.1,0,2-0.9,2-2V301c0-1.1-0.9-2-2-2h-22.2c-1.1,0-2,0.9-2,2v29.3   C373.4,331.4,374.3,332.3,375.4,332.3z"/>
	<path style="fill:#2B3B4E;" d="M107.4,206h22.2c1.1,0,2-0.9,2-2v-29.3c0-1.1-0.9-2-2-2h-22.2c-1.1,0-2,0.9-2,2V204   C105.4,205.1,106.3,206,107.4,206z"/>
	<path style="fill:#2B3B4E;" d="M107.4,332.3h22.2c1.1,0,2-0.9,2-2V301c0-1.1-0.9-2-2-2h-22.2c-1.1,0-2,0.9-2,2v29.3   C105.4,331.4,106.3,332.3,107.4,332.3z"/>
	<path style="fill:#2B3B4E;" d="M338,385.1l-10.3,108.5c-23.8,7.4-49,11.4-75.2,11.4s-51.4-4-75.2-11.4L167,385.1H338z"/>
	<path style="fill:#2B3B4E;" d="M338,119.9H167l10.3-108.5C201.1,4,226.3,0,252.5,0s51.4,4,75.2,11.4L338,119.9z"/>
</g>
<path style="fill:#324A5E;" d="M381.1,399.5H123.9c-2.3,0-4.1-1.9-4.1-4.1V109.6c0-2.3,1.9-4.1,4.1-4.1H381c2.3,0,4.1,1.9,4.1,4.1  v285.7C385.2,397.6,383.4,399.5,381.1,399.5z"/>
<rect x="151.4" y="137.1" style="fill:#FFFFFF;" width="202.3" height="230.9"/>
<circle style="fill:#4CDBC4;" cx="190.6" cy="173.8" r="21.3"/>
<circle style="fill:#FFD05B;" cx="252.5" cy="173.8" r="21.3"/>
<circle style="fill:#FF7058;" cx="314.4" cy="173.8" r="21.3"/>
<circle style="fill:#CED5E0;" cx="314.4" cy="247.6" r="21.3"/>
<circle style="fill:#4CDBC4;" cx="252.5" cy="247.6" r="21.3"/>
<circle style="fill:#54C0EB;" cx="190.6" cy="247.6" r="21.3"/>
<circle style="fill:#4CDBC4;" cx="190.6" cy="321.3" r="21.3"/>
<circle style="fill:#FFD05B;" cx="252.5" cy="321.3" r="21.3"/>
<circle style="fill:#FF7058;" cx="314.4" cy="321.3" r="21.3"/>
<g>
</g>
<g>
</g>
<g>
</g>
<g>
</g>
<g>
</g>
<g>
</g>
<g>
</g>
<g>
</g>
<g>
</g>
<g>
</g>
<g>
</g>
<g>
</g>
<g>
</g>
<g>
</g>
<g>
</g>
</svg>
