<?xml version="1.0" encoding="iso-8859-1"?>
<!-- Generator: Adobe Illustrator 19.0.0, SVG Export Plug-In . SVG Version: 6.00 Build 0)  -->
<svg xmlns="http://www.w3.org/2000/svg" xmlns:xlink="http://www.w3.org/1999/xlink" version="1.1" id="Layer_1" x="0px" y="0px" viewBox="0 0 505 505" style="enable-background:new 0 0 505 505;" xml:space="preserve">
<circle style="fill:#324A5E;" cx="252.5" cy="252.5" r="252.5"/>
<polygon style="fill:#E6E9EE;" points="178.7,77.5 178.7,140 116.1,140 116.1,409.8 370.8,409.8 370.8,77.5 "/>
<g>
	<polygon style="fill:#CED5E0;" points="178.7,77.5 116.1,140 178.7,140  "/>
	<rect x="148.9" y="176.9" style="fill:#CED5E0;" width="189.2" height="20.6"/>
	<rect x="148.9" y="224.6" style="fill:#CED5E0;" width="189.2" height="20.6"/>
	<rect x="148.9" y="272.2" style="fill:#CED5E0;" width="189.2" height="20.6"/>
	<rect x="148.9" y="319.8" style="fill:#CED5E0;" width="83.3" height="20.6"/>
</g>
<polygon style="fill:#FFFFFF;" points="309.5,349.7 243.5,367.7 261.4,301.7 "/>
<polygon style="fill:#324A5E;" points="249.7,344.9 243.5,367.7 266.3,361.5 "/>
<rect x="266.147" y="244.963" transform="matrix(0.7071 -0.7071 0.7071 0.7071 -99.9582 316.6043)" style="fill:#54C0EB;" width="132.099" height="67.999"/>
<rect x="370.741" y="194.052" transform="matrix(0.7071 -0.7071 0.7071 0.7071 -49.0377 337.7163)" style="fill:#FFD05B;" width="24.8" height="67.999"/>
<path style="fill:#FF7058;" d="M411.4,247.9l-48.1-48.1l24.6-24.6c0.6-0.6,1.6-0.6,2.2,0l45.9,45.9c0.6,0.6,0.6,1.6,0,2.2  L411.4,247.9z"/>
<g>
</g>
<g>
</g>
<g>
</g>
<g>
</g>
<g>
</g>
<g>
</g>
<g>
</g>
<g>
</g>
<g>
</g>
<g>
</g>
<g>
</g>
<g>
</g>
<g>
</g>
<g>
</g>
<g>
</g>
</svg>
