<?xml version="1.0" encoding="iso-8859-1"?>
<!-- Generator: Adobe Illustrator 19.0.0, SVG Export Plug-In . SVG Version: 6.00 Build 0)  -->
<svg xmlns="http://www.w3.org/2000/svg" xmlns:xlink="http://www.w3.org/1999/xlink" version="1.1" id="Layer_1" x="0px" y="0px" viewBox="0 0 505 505" style="enable-background:new 0 0 505 505;" xml:space="preserve">
<circle style="fill:#FFD05B;" cx="252.5" cy="252.5" r="252.5"/>
<path style="fill:#324A5E;" d="M365.4,432.5H116c-2,0-3.6-1.6-3.6-3.6V76.1c0-2,1.6-3.6,3.6-3.6h249.4c2,0,3.6,1.6,3.6,3.6v352.8  C368.9,430.9,367.3,432.5,365.4,432.5z"/>
<rect x="135.5" y="117.9" style="fill:#84DBFF;" width="210.3" height="259.1"/>
<g>
	<circle style="fill:#ACB3BA;" cx="240.7" cy="403.4" r="14.7"/>
	<path style="fill:#ACB3BA;" d="M277.1,101.2h-43.4c-2.7,0-4.8-2.2-4.8-4.8l0,0c0-2.7,2.2-4.8,4.8-4.8h43.4c2.7,0,4.8,2.2,4.8,4.8   l0,0C281.9,99.1,279.7,101.2,277.1,101.2z"/>
	<path style="fill:#ACB3BA;" d="M215.8,101.2h-11.6c-2.7,0-4.8-2.2-4.8-4.8l0,0c0-2.7,2.2-4.8,4.8-4.8h11.6c2.7,0,4.8,2.2,4.8,4.8   l0,0C220.6,99.1,218.5,101.2,215.8,101.2z"/>
</g>
<path style="fill:#FF7058;" d="M407.8,331.3h-183c-15,0-27.2-12.2-27.2-27.2V190.9c0-15,12.2-27.2,27.2-27.2h183.1  c15,0,27.2,12.2,27.2,27.2v113.2C435,319.1,422.9,331.3,407.8,331.3z"/>
<path style="fill:#F1543F;" d="M427.2,323.2c-4.9,5-11.7,8.1-19.3,8.1H224.7c-7.5,0-14.4-3.1-19.3-8.1l75.7-75.7l35.1-35.1  l35.3,35.1L427.2,323.2z"/>
<path style="fill:#E6E9EE;" d="M427.2,171.8l-75.7,75.7l-16,16c-10.6,10.6-27.8,10.6-38.4,0l-16-16l-75.7-75.7  c4.9-5,11.7-8.1,19.3-8.1h183.2C415.5,163.7,422.3,166.8,427.2,171.8z"/>
<g>
</g>
<g>
</g>
<g>
</g>
<g>
</g>
<g>
</g>
<g>
</g>
<g>
</g>
<g>
</g>
<g>
</g>
<g>
</g>
<g>
</g>
<g>
</g>
<g>
</g>
<g>
</g>
<g>
</g>
</svg>
