<?xml version="1.0" encoding="iso-8859-1"?>
<!-- Generator: Adobe Illustrator 19.0.0, SVG Export Plug-In . SVG Version: 6.00 Build 0)  -->
<svg xmlns="http://www.w3.org/2000/svg" xmlns:xlink="http://www.w3.org/1999/xlink" version="1.1" id="Layer_1" x="0px" y="0px" viewBox="0 0 505 505" style="enable-background:new 0 0 505 505;" xml:space="preserve">
<circle style="fill:#84DBFF;" cx="252.5" cy="252.5" r="252.5"/>
<circle style="fill:#324A5E;" cx="252.5" cy="252.5" r="197.8"/>
<g>
	<path style="fill:#E6E9EE;" d="M443,305.9c-11.9,42.6-37.7,79.3-72.1,105.1c0,0.2,0,0.5-0.1,0.7h-56.6c-7.9-12.8-12.4-27.9-12.4-44   c0-24.8,10.7-47.1,27.8-62.5c14.9-13.4,34.6-21.6,56.3-21.6C407.9,283.5,428,292,443,305.9z"/>
	<circle style="fill:#E6E9EE;" cx="385.8" cy="232.1" r="34.7"/>
	<path style="fill:#E6E9EE;" d="M203.3,367.6c0,16.2-4.6,31.2-12.5,44h-56.6c-0.1-0.2-0.1-0.4-0.1-0.6   C99.6,385.2,73.8,348.5,62,305.9c15-13.9,35.1-22.4,57.1-22.4c21.7,0,41.4,8.2,56.3,21.6C192.5,320.5,203.3,342.8,203.3,367.6z"/>
	<circle style="fill:#E6E9EE;" cx="119.1" cy="232.1" r="34.7"/>
</g>
<g>
	<path style="fill:#FFFFFF;" d="M371.8,396.2c0,5-0.3,9.9-0.9,14.8c0,0.2,0,0.5-0.1,0.7H370c-32.8,24.3-73.5,38.7-117.4,38.7   c-44,0-84.6-14.4-117.5-38.7h-0.8c-0.1-0.2-0.1-0.4-0.1-0.6c-0.6-4.9-0.9-9.8-0.9-14.8c0-36.5,16.4-69.2,42.2-91.1   c20.8-17.6,47.7-28.2,77-28.2c29.4,0,56.2,10.6,77,28.2C355.4,326.9,371.8,359.6,371.8,396.2z"/>
	<circle style="fill:#FFFFFF;" cx="252.5" cy="204.2" r="49.2"/>
</g>
<g>
</g>
<g>
</g>
<g>
</g>
<g>
</g>
<g>
</g>
<g>
</g>
<g>
</g>
<g>
</g>
<g>
</g>
<g>
</g>
<g>
</g>
<g>
</g>
<g>
</g>
<g>
</g>
<g>
</g>
</svg>
