<?xml version="1.0" encoding="iso-8859-1"?>
<!-- Generator: Adobe Illustrator 19.0.0, SVG Export Plug-In . SVG Version: 6.00 Build 0)  -->
<svg xmlns="http://www.w3.org/2000/svg" xmlns:xlink="http://www.w3.org/1999/xlink" version="1.1" id="Layer_1" x="0px" y="0px" viewBox="0 0 505 505" style="enable-background:new 0 0 505 505;" xml:space="preserve">
<circle style="fill:#90DFAA;" cx="252.5" cy="252.5" r="252.5"/>
<rect x="198.6" y="376.2" style="fill:#2B3B4E;" width="107.8" height="37.2"/>
<g>
	<path style="fill:#324A5E;" d="M312.8,402.9H192.2c-6.1,0-11.1,5-11.1,11.1l0,0c0,6.1,5,11.1,11.1,11.1h120.6   c6.1,0,11.1-5,11.1-11.1l0,0C323.9,407.9,318.9,402.9,312.8,402.9z"/>
	<path style="fill:#324A5E;" d="M425.9,380.1H79.1c-1.1,0-2.1-0.9-2.1-2.1V124.2c0-1.1,0.9-2.1,2.1-2.1h346.8c1.1,0,2.1,0.9,2.1,2.1   v253.9C428,379.2,427,380.1,425.9,380.1z"/>
</g>
<rect x="98.1" y="143.2" style="fill:#FFFFFF;" width="308.8" height="189.3"/>
<g>
	<polygon style="fill:#FF7058;" points="346.5,272.1 360.3,258.2 339.9,237.9 362.6,226.3 301.9,213.7 314.5,274.4 326.1,251.7  "/>
	<circle style="fill:#FF7058;" cx="391.4" cy="357.7" r="9.8"/>
</g>
<circle style="fill:#E6E9EE;" cx="363.9" cy="357.7" r="9.8"/>
<g>
</g>
<g>
</g>
<g>
</g>
<g>
</g>
<g>
</g>
<g>
</g>
<g>
</g>
<g>
</g>
<g>
</g>
<g>
</g>
<g>
</g>
<g>
</g>
<g>
</g>
<g>
</g>
<g>
</g>
</svg>
