<?xml version="1.0" encoding="iso-8859-1"?>
<!-- Generator: Adobe Illustrator 19.0.0, SVG Export Plug-In . SVG Version: 6.00 Build 0)  -->
<svg xmlns="http://www.w3.org/2000/svg" xmlns:xlink="http://www.w3.org/1999/xlink" version="1.1" id="Layer_1" x="0px" y="0px" viewBox="0 0 505 505" style="enable-background:new 0 0 505 505;" xml:space="preserve">
<circle style="fill:#324A5E;" cx="252.5" cy="252.5" r="252.5"/>
<path style="fill:#E6E9EE;" d="M104.4,374.2h296.1c1.5,0,2.6-1.2,2.6-2.6V133.4c0-1.5-1.2-2.6-2.6-2.6H104.4c-1.5,0-2.6,1.2-2.6,2.6  v238.1C101.8,373,103,374.2,104.4,374.2z"/>
<rect x="131.8" y="190.1" style="fill:#FFFFFF;" width="241.4" height="155.1"/>
<circle style="fill:#FF7058;" cx="147" cy="158.6" r="11.4"/>
<circle style="fill:#4CDBC4;" cx="186.2" cy="158.6" r="11.4"/>
<path style="fill:#84DBFF;" d="M351.9,95.7c-48.6,0-88,28.1-88,62.9c0,18.1,10.7,34.4,27.8,45.8L273,257.8l51.1-39.6  c8.7,2.1,18.1,3.2,27.8,3.2c48.6,0,88-28.1,88-62.9C439.9,123.9,400.5,95.7,351.9,95.7z"/>
<g>
</g>
<g>
</g>
<g>
</g>
<g>
</g>
<g>
</g>
<g>
</g>
<g>
</g>
<g>
</g>
<g>
</g>
<g>
</g>
<g>
</g>
<g>
</g>
<g>
</g>
<g>
</g>
<g>
</g>
</svg>
