<?xml version="1.0" encoding="iso-8859-1"?>
<!-- Generator: Adobe Illustrator 19.0.0, SVG Export Plug-In . SVG Version: 6.00 Build 0)  -->
<svg xmlns="http://www.w3.org/2000/svg" xmlns:xlink="http://www.w3.org/1999/xlink" version="1.1" id="Layer_1" x="0px" y="0px" viewBox="0 0 505 505" style="enable-background:new 0 0 505 505;" xml:space="preserve">
<circle style="fill:#84DBFF;" cx="252.5" cy="252.5" r="252.5"/>
<path style="fill:#FFD05B;" d="M252.5,296h72.1v36.2c0,5.1-1.7,10.1-4.9,14.1L252.5,432l-67.2-85.8c-3.2-4-4.9-9-4.9-14.1v-36.2  h72.1V296z"/>
<g>
	<polygon style="fill:#2B3B4E;" points="275.4,402.8 252.5,432 229.6,402.8  "/>
	<path style="fill:#2B3B4E;" d="M303.4,352.9L303.4,352.9c11.7,0,21.2-9.5,21.2-21.2V138h-42.4v193.6   C282.2,343.4,291.7,352.9,303.4,352.9z"/>
	<path style="fill:#2B3B4E;" d="M201.6,352.9L201.6,352.9c11.7,0,21.2-9.5,21.2-21.2V138h-42.4v193.6   C180.4,343.4,189.9,352.9,201.6,352.9z"/>
</g>
<path style="fill:#324A5E;" d="M247.8,352.9h9.5c13.8,0,24.9-11.2,24.9-24.9V160.1c0-12.2-9.9-22.1-22.1-22.1h-15.2  c-12.2,0-22.1,9.9-22.1,22.1v167.8C222.8,341.7,234,352.9,247.8,352.9z"/>
<path style="fill:#FF7058;" d="M183.9,73h137.3c1.9,0,3.4,1.5,3.4,3.4V138H180.4V76.4C180.4,74.5,182,73,183.9,73z"/>
<rect x="180.4" y="138" style="fill:#FFFFFF;" width="144.1" height="37.6"/>
<g>
</g>
<g>
</g>
<g>
</g>
<g>
</g>
<g>
</g>
<g>
</g>
<g>
</g>
<g>
</g>
<g>
</g>
<g>
</g>
<g>
</g>
<g>
</g>
<g>
</g>
<g>
</g>
<g>
</g>
</svg>
