<?xml version="1.0" encoding="iso-8859-1"?>
<!-- Generator: Adobe Illustrator 19.0.0, SVG Export Plug-In . SVG Version: 6.00 Build 0)  -->
<svg xmlns="http://www.w3.org/2000/svg" xmlns:xlink="http://www.w3.org/1999/xlink" version="1.1" id="Layer_1" x="0px" y="0px" viewBox="0 0 505 505" style="enable-background:new 0 0 505 505;" xml:space="preserve">
<circle style="fill:#324A5E;" cx="252.5" cy="252.5" r="252.5"/>
<g>
	<path style="fill:#FFFFFF;" d="M302.7,308.3c0-5.3-1.9-9.9-4.8-12.3c-1-29.1-20.9-41.9-45.4-41.9S208,266.9,207.1,296   c-2.8,2.4-4.8,7-4.8,12.3c0,7.4,3.7,13.4,8.5,13.9c7,22.9,23,42.9,41.7,42.9s34.7-20.1,41.7-42.9   C299,321.6,302.7,315.6,302.7,308.3z"/>
	<path style="fill:#FFFFFF;" d="M335.1,425.5c-22.6,18.2-51.3,29.1-82.6,29.1s-60-10.9-82.6-29.1c15.2-25.9,43.4-43.3,75.6-43.3h14   c24.2,0,46.1,9.8,62,25.7C326.7,413.1,331.3,419.1,335.1,425.5z"/>
	<path style="fill:#FFFFFF;" d="M427.6,266.3c0-3.9-1.4-7.4-3.6-9.2c-0.7-21.8-15.7-31.3-34-31.3s-33.3,9.6-34,31.3   c-2.1,1.8-3.6,5.2-3.6,9.2c0,5.5,2.8,10,6.3,10.4c5.2,17.1,17.2,32.1,31.2,32.1s26-15,31.2-32.1   C424.8,276.3,427.6,271.8,427.6,266.3z"/>
	<path style="fill:#FFFFFF;" d="M451.8,356c-16.9,13.6-38.4,21.8-61.8,21.8s-44.9-8.2-61.8-21.8c11.4-19.4,32.5-32.4,56.6-32.4h10.5   c18.1,0,34.5,7.3,46.4,19.2C445.6,346.8,449,351.2,451.8,356z"/>
	<path style="fill:#FFFFFF;" d="M152.6,266.3c0-3.9-1.4-7.4-3.6-9.2c-0.7-21.8-15.7-31.3-34-31.3s-33.3,9.6-34,31.3   c-2.1,1.8-3.6,5.2-3.6,9.2c0,5.5,2.8,10,6.3,10.4c5.2,17.1,17.2,32.1,31.2,32.1s26-15,31.2-32.1   C149.8,276.3,152.6,271.8,152.6,266.3z"/>
	<path style="fill:#FFFFFF;" d="M176.8,356c-16.9,13.6-38.4,21.8-61.8,21.8s-44.9-8.2-61.8-21.8c11.4-19.4,32.5-32.4,56.6-32.4h10.5   c18.1,0,34.5,7.3,46.4,19.2C170.6,346.8,174,351.2,176.8,356z"/>
	<path style="fill:#FFFFFF;" d="M334.3,101.1c-4.8-29.3-41.2-50.7-81.8-50.7s-77,21.4-81.8,50.8c-3.2,19.2,7.6,37.4,27,49.4   c-12.3,19.8-27.3,40-27.3,40c21-4.5,39.9-17.1,53.8-29.1c5,1.2,10.2,2.2,15.6,2.7c2,14.6,6.2,28.4,12.7,39.8l0,0l0,0   c6.5-11.4,10.7-25.3,12.7-39.9c5.4-0.6,10.6-1.5,15.5-2.7c13.9,12,32.9,24.6,53.9,29.2c0,0-15.1-20.3-27.4-40.2   C326.9,138.2,337.4,120.1,334.3,101.1z"/>
</g>
<g>
</g>
<g>
</g>
<g>
</g>
<g>
</g>
<g>
</g>
<g>
</g>
<g>
</g>
<g>
</g>
<g>
</g>
<g>
</g>
<g>
</g>
<g>
</g>
<g>
</g>
<g>
</g>
<g>
</g>
</svg>
