<?xml version="1.0" encoding="iso-8859-1"?>
<!-- Generator: Adobe Illustrator 19.0.0, SVG Export Plug-In . SVG Version: 6.00 Build 0)  -->
<svg xmlns="http://www.w3.org/2000/svg" xmlns:xlink="http://www.w3.org/1999/xlink" version="1.1" id="Layer_1" x="0px" y="0px" viewBox="0 0 505 505" style="enable-background:new 0 0 505 505;" xml:space="preserve">
<circle style="fill:#90DFAA;" cx="252.5" cy="252.5" r="252.5"/>
<circle style="fill:#FFFFFF;" cx="252.5" cy="252.5" r="179"/>
<g>
	<path style="fill:#E6E9EE;" d="M295.8,209.2c-3.8-3.8-8-7-12.4-9.6l44-75.3c10.7,6.3,20.8,14,30,23.2s16.9,19.3,23.2,30l-75.3,44   C302.8,217.2,299.6,213,295.8,209.2z"/>
	<path style="fill:#E6E9EE;" d="M209.2,295.8c3.8,3.8,8,7,12.4,9.6l-44,75.3c-10.7-6.3-20.8-14-30-23.2s-16.9-19.3-23.2-30l75.3-44   C202.2,287.8,205.4,292,209.2,295.8z"/>
</g>
<circle style="fill:#ACB3BA;" cx="252.5" cy="252.5" r="40.5"/>
<circle style="fill:#FFFFFF;" cx="252.5" cy="252.5" r="18.3"/>
<g>
</g>
<g>
</g>
<g>
</g>
<g>
</g>
<g>
</g>
<g>
</g>
<g>
</g>
<g>
</g>
<g>
</g>
<g>
</g>
<g>
</g>
<g>
</g>
<g>
</g>
<g>
</g>
<g>
</g>
</svg>
