<?xml version="1.0" encoding="iso-8859-1"?>
<!-- Generator: Adobe Illustrator 19.0.0, SVG Export Plug-In . SVG Version: 6.00 Build 0)  -->
<svg xmlns="http://www.w3.org/2000/svg" xmlns:xlink="http://www.w3.org/1999/xlink" version="1.1" id="Layer_1" x="0px" y="0px" viewBox="0 0 505 505" style="enable-background:new 0 0 505 505;" xml:space="preserve">
<circle style="fill:#84DBFF;" cx="252.5" cy="252.5" r="252.5"/>
<path style="fill:#324A5E;" d="M362.9,424.4H142.1c-1.4,0-2.6-1.1-2.6-2.6V83.1c0-1.4,1.1-2.6,2.6-2.6h220.7c1.4,0,2.6,1.1,2.6,2.6  v338.8C365.4,423.3,364.3,424.4,362.9,424.4z"/>
<rect x="161.9" y="116.2" style="fill:#FFFFFF;" width="181.1" height="131.4"/>
<path style="fill:#E6E9EE;" d="M267.7,289.9h-30.4c-0.5,0-0.8-0.4-0.8-0.8v-30.4c0-0.5,0.4-0.8,0.8-0.8h30.4c0.5,0,0.8,0.4,0.8,0.8  v30.4C268.6,289.5,268.2,289.9,267.7,289.9z"/>
<g>
	<path style="fill:#ACB3BA;" d="M210.2,327.6h-44.8c-1,0-1.8-0.8-1.8-1.8v-21.7c0-1,0.8-1.8,1.8-1.8h44.8c1,0,1.8,0.8,1.8,1.8v21.7   C212,326.8,211.2,327.6,210.2,327.6z"/>
	<path style="fill:#ACB3BA;" d="M274.9,327.6h-44.8c-1,0-1.8-0.8-1.8-1.8v-21.7c0-1,0.8-1.8,1.8-1.8h44.8c1,0,1.8,0.8,1.8,1.8v21.7   C276.7,326.8,275.9,327.6,274.9,327.6z"/>
	<path style="fill:#ACB3BA;" d="M339.6,327.6h-44.8c-1,0-1.8-0.8-1.8-1.8v-21.7c0-1,0.8-1.8,1.8-1.8h44.8c1,0,1.8,0.8,1.8,1.8v21.7   C341.4,326.8,340.6,327.6,339.6,327.6z"/>
</g>
<path style="fill:#4CDBC4;" d="M218.1,286.5h-44.8c-1,0-1.8-0.8-1.8-1.8V263c0-1,0.8-1.8,1.8-1.8h44.8c1,0,1.8,0.8,1.8,1.8v21.7  C219.9,285.7,219.1,286.5,218.1,286.5z"/>
<path style="fill:#FF7058;" d="M331.7,286.5h-44.8c-1,0-1.8-0.8-1.8-1.8V263c0-1,0.8-1.8,1.8-1.8h44.8c1,0,1.8,0.8,1.8,1.8v21.7  C333.5,285.7,332.7,286.5,331.7,286.5z"/>
<g>
	<path style="fill:#ACB3BA;" d="M210.2,364.9h-44.8c-1,0-1.8-0.8-1.8-1.8v-21.6c0-1,0.8-1.8,1.8-1.8h44.8c1,0,1.8,0.8,1.8,1.8v21.7   C212,364.1,211.2,364.9,210.2,364.9z"/>
	<path style="fill:#ACB3BA;" d="M274.9,364.9h-44.8c-1,0-1.8-0.8-1.8-1.8v-21.6c0-1,0.8-1.8,1.8-1.8h44.8c1,0,1.8,0.8,1.8,1.8v21.7   C276.7,364.1,275.9,364.9,274.9,364.9z"/>
	<path style="fill:#ACB3BA;" d="M339.6,364.9h-44.8c-1,0-1.8-0.8-1.8-1.8v-21.6c0-1,0.8-1.8,1.8-1.8h44.8c1,0,1.8,0.8,1.8,1.8v21.7   C341.4,364.1,340.6,364.9,339.6,364.9z"/>
	<path style="fill:#ACB3BA;" d="M210.2,402.2h-44.8c-1,0-1.8-0.8-1.8-1.8v-21.7c0-1,0.8-1.8,1.8-1.8h44.8c1,0,1.8,0.8,1.8,1.8v21.8   C212,401.4,211.2,402.2,210.2,402.2z"/>
	<path style="fill:#ACB3BA;" d="M274.9,402.2h-44.8c-1,0-1.8-0.8-1.8-1.8v-21.7c0-1,0.8-1.8,1.8-1.8h44.8c1,0,1.8,0.8,1.8,1.8v21.8   C276.7,401.4,275.9,402.2,274.9,402.2z"/>
	<path style="fill:#ACB3BA;" d="M339.6,402.2h-44.8c-1,0-1.8-0.8-1.8-1.8v-21.7c0-1,0.8-1.8,1.8-1.8h44.8c1,0,1.8,0.8,1.8,1.8v21.8   C341.4,401.4,340.6,402.2,339.6,402.2z"/>
</g>
<path style="fill:#2B3B4E;" d="M281.1,105.1H224c-3.4,0-6.2-2.8-6.2-6.2l0,0c0-3.4,2.8-6.2,6.2-6.2h57.1c3.4,0,6.2,2.8,6.2,6.2l0,0  C287.3,102.3,284.5,105.1,281.1,105.1z"/>
<g>
</g>
<g>
</g>
<g>
</g>
<g>
</g>
<g>
</g>
<g>
</g>
<g>
</g>
<g>
</g>
<g>
</g>
<g>
</g>
<g>
</g>
<g>
</g>
<g>
</g>
<g>
</g>
<g>
</g>
</svg>
