<?xml version="1.0" encoding="iso-8859-1"?>
<!-- Generator: Adobe Illustrator 19.0.0, SVG Export Plug-In . SVG Version: 6.00 Build 0)  -->
<svg xmlns="http://www.w3.org/2000/svg" xmlns:xlink="http://www.w3.org/1999/xlink" version="1.1" id="Layer_1" x="0px" y="0px" viewBox="0 0 505 505" style="enable-background:new 0 0 505 505;" xml:space="preserve">
<circle style="fill:#FD8469;" cx="252.5" cy="252.5" r="252.5"/>
<rect x="163.6" y="241.378" transform="matrix(-0.7071 -0.7071 0.7071 -0.7071 116.0447 575.9224)" style="fill:#2B3B4E;" width="27.4" height="45.1"/>
<path style="fill:#E6E9EE;" d="M185.9,289.5l-34.2-34.2c-0.6-0.6-1.5-0.6-2,0L62,343c-0.6,0.6-0.6,1.5,0,2l34.2,34.2  c0.6,0.6,1.5,0.6,2,0l87.7-87.7C186.4,291,186.4,290.1,185.9,289.5z"/>
<rect x="80.523" y="291.692" transform="matrix(0.7071 -0.7071 0.7071 0.7071 -188.0488 180.5945)" style="fill:#FFD05B;" width="86.899" height="51.2"/>
<path id="SVGCleanerId_0" style="fill:#FFFFFF;" d="M242,162.4h12.5v55.8H242l-26.6-35v35h-12.5v-55.8h11.7l27.4,35.9L242,162.4  L242,162.4z"/>
<path id="SVGCleanerId_1" style="fill:#FFFFFF;" d="M308.4,162.4v11.1h-27.8V185h25v10.6h-25v11.6h28.7v11h-41.1v-55.8L308.4,162.4  L308.4,162.4z"/>
<g>
	<path style="fill:#FFFFFF;" d="M337.8,194.5l9.9-32.1h13l9.8,32.1l11.1-32.1h13.5l-19.5,55.8h-9.3l-12.2-38.8L342,218.2h-9.3   l-19.5-55.8h13.5L337.8,194.5z"/>
	<path style="fill:#FFFFFF;" d="M414.4,173.5c-1.2,1-1.8,2.3-1.8,3.9c0,1.6,0.7,2.9,2.2,3.9s4.8,2.1,10.1,3.4   c5.3,1.3,9.4,3.3,12.3,5.9c2.9,2.6,4.4,6.4,4.4,11.4s-1.9,9.1-5.6,12.2c-3.8,3.1-8.7,4.7-14.8,4.7c-8.8,0-16.8-3.3-23.9-9.8   l7.4-9.1c6,5.3,11.6,7.9,16.7,7.9c2.3,0,4.1-0.5,5.4-1.5s2-2.3,2-4s-0.7-3-2.1-4s-4.1-2-8.2-3c-6.5-1.5-11.2-3.6-14.2-6   c-3-2.5-4.5-6.4-4.5-11.7s1.9-9.4,5.7-12.3c3.8-2.9,8.6-4.3,14.3-4.3c3.7,0,7.5,0.6,11.2,1.9c3.7,1.3,7,3.1,9.7,5.4l-6.3,9.1   c-4.8-3.7-9.8-5.5-15-5.5C417.2,172,415.6,172.5,414.4,173.5z"/>
</g>
<g>
	<path id="SVGCleanerId_0_1_" style="fill:#FFFFFF;" d="M242,162.4h12.5v55.8H242l-26.6-35v35h-12.5v-55.8h11.7l27.4,35.9L242,162.4   L242,162.4z"/>
</g>
<g>
	<path id="SVGCleanerId_1_1_" style="fill:#FFFFFF;" d="M308.4,162.4v11.1h-27.8V185h25v10.6h-25v11.6h28.7v11h-41.1v-55.8   L308.4,162.4L308.4,162.4z"/>
</g>
<polygon style="fill:#FFFFFF;" points="322.4,162.4 313.3,162.4 322.4,188.5 "/>
<path style="fill:#324A5E;" d="M311.7,129.6c-34.9-34.9-91.5-34.9-126.4,0s-34.9,91.5,0,126.4s91.5,34.9,126.4,0  C346.5,221.1,346.5,164.5,311.7,129.6z M296,240.3c-26.3,26.2-68.8,26.2-95.1,0s-26.3-68.8,0-95.1c26.2-26.2,68.8-26.2,95.1,0  C322.2,171.5,322.2,214.1,296,240.3z"/>
<g>
</g>
<g>
</g>
<g>
</g>
<g>
</g>
<g>
</g>
<g>
</g>
<g>
</g>
<g>
</g>
<g>
</g>
<g>
</g>
<g>
</g>
<g>
</g>
<g>
</g>
<g>
</g>
<g>
</g>
</svg>
