<?xml version="1.0" encoding="iso-8859-1"?>
<!-- Generator: Adobe Illustrator 19.0.0, SVG Export Plug-In . SVG Version: 6.00 Build 0)  -->
<svg xmlns="http://www.w3.org/2000/svg" xmlns:xlink="http://www.w3.org/1999/xlink" version="1.1" id="Layer_1" x="0px" y="0px" viewBox="0 0 505 505" style="enable-background:new 0 0 505 505;" xml:space="preserve">
<circle style="fill:#FD8469;" cx="252.5" cy="252.5" r="252.5"/>
<path style="fill:#E6E9EE;" d="M262.4,364h-19.7c-26.6,0-48.1,21.5-48.1,48.1l0,0h116l0,0C310.5,385.6,288.9,364,262.4,364z"/>
<path style="fill:#2B3B4E;" d="M422.9,321.9V119.5c0-1.6-1.3-2.9-2.9-2.9H85.1c-1.6,0-2.9,1.3-2.9,2.9v202.4H422.9z"/>
<path style="fill:#FFFFFF;" d="M82.1,320.2v37.1c0,6.4,5.2,11.6,11.6,11.6h317.5c6.4,0,11.6-5.2,11.6-11.6v-37.1H82.1z"/>
<rect x="108.7" y="143.1" style="fill:#E6E9EE;" width="287.6" height="148"/>
<rect x="108.7" y="143.1" style="fill:#2C9984;" width="287.6" height="59.7"/>
<g>
	<path style="fill:#FFFFFF;" d="M146.1,189.1h-13.9v-31.9h12.4c2.2,0,4,0.3,5.6,0.8s2.7,1.2,3.5,2.1c1.4,1.6,2.1,3.5,2.1,5.6   c0,2.5-0.8,4.3-2.4,5.6c-0.5,0.4-0.9,0.7-1.1,0.8c-0.2,0.1-0.6,0.3-1.1,0.5c2,0.4,3.5,1.3,4.7,2.7s1.8,3,1.8,5   c0,2.2-0.8,4.2-2.3,5.9C153.6,188.1,150.5,189.1,146.1,189.1z M139.3,170.1h3.4c2,0,3.4-0.2,4.4-0.6c1-0.4,1.4-1.3,1.4-2.8   c0-1.4-0.4-2.3-1.3-2.8c-0.9-0.5-2.4-0.7-4.5-0.7h-3.4L139.3,170.1L139.3,170.1z M139.3,183h4.9c2,0,3.6-0.3,4.6-0.8s1.5-1.5,1.5-3   s-0.5-2.4-1.6-2.9s-2.8-0.7-5.2-0.7h-4.2V183z"/>
	<path style="fill:#FFFFFF;" d="M189.4,167.8c0,5.1-2,8.4-6.1,9.9l8.1,11.4h-8.8l-7.1-10.2h-4.9v10.2h-7.1v-31.9h12.1   c5,0,8.5,0.8,10.6,2.5S189.4,164.1,189.4,167.8z M180.8,171.6c0.9-0.8,1.3-2,1.3-3.8c0-1.7-0.5-2.9-1.4-3.5s-2.5-1-4.8-1h-5.3v9.4   h5.2C178.3,172.7,180,172.4,180.8,171.6z"/>
	<path style="fill:#FFFFFF;" d="M219.7,157.2v6.3h-15.9v6.6h14.3v6.1h-14.3v6.6h16.4v6.3h-23.5v-31.9L219.7,157.2L219.7,157.2z"/>
	<path style="fill:#FFFFFF;" d="M249.2,189.1l-3-6.9h-13.4l-3,6.9h-7.6l13.8-31.9h6.9l13.8,31.9H249.2z M239.6,166.7l-4,9.3h8   L239.6,166.7z"/>
	<path style="fill:#FFFFFF;" d="M260.5,157.2h7.1v13.1l12-13.1h8.8l-12.7,14.1c1.1,1.5,3.1,4.4,6.1,8.5c2.9,4.1,5.1,7.2,6.6,9.3   h-8.3l-9.3-12.6l-3.2,3.6v9h-7.1V157.2z"/>
	<path style="fill:#FFFFFF;" d="M292.8,157.2h7.1v31.9h-7.1V157.2z"/>
	<path style="fill:#FFFFFF;" d="M330,157.2h7.1v31.9H330l-15.2-20v20h-7.1v-31.9h6.7l15.6,20.5V157.2z"/>
	<path style="fill:#FFFFFF;" d="M365.7,172.8h7.2v11.3c-3.2,3.5-7.5,5.3-13.1,5.3c-4.7,0-8.6-1.6-11.8-4.6c-3.2-3.1-4.8-7-4.8-11.7   s1.6-8.7,4.9-11.8c3.2-3.2,7.1-4.7,11.7-4.7s8.5,1.5,11.9,4.5l-3.7,5.3c-1.4-1.2-2.7-2.1-3.9-2.6c-1.2-0.5-2.5-0.7-3.9-0.7   c-2.7,0-5,0.9-6.8,2.8c-1.9,1.8-2.8,4.3-2.8,7.3s0.9,5.4,2.7,7.2c1.8,1.8,3.9,2.7,6.4,2.7s4.5-0.5,6.2-1.4v-8.9H365.7z"/>
</g>
<g>
	<path style="fill:#FF7058;" d="M173.6,220.1h12.2v54.8h-12.2l-26.1-34.3v34.3h-12.2v-54.8h11.4l26.9,35.3L173.6,220.1L173.6,220.1z   "/>
	<path style="fill:#FF7058;" d="M238.9,220.1V231h-27.3v11.3h24.5v10.4h-24.5v11.4h28.1v10.8h-40.4v-54.8L238.9,220.1L238.9,220.1z"/>
	<path style="fill:#FF7058;" d="M267.7,251.7l9.7-31.5h12.8l9.6,31.5l10.9-31.5h13.2L304.8,275h-9.1l-12-38.1L271.8,275h-9.1   l-19.1-54.8h13.2L267.7,251.7z"/>
	<path style="fill:#FF7058;" d="M342.9,231.1c-1.2,1-1.8,2.2-1.8,3.8s0.7,2.9,2.2,3.8c1.4,0.9,4.8,2.1,10,3.3   c5.2,1.3,9.2,3.2,12.1,5.8s4.3,6.3,4.3,11.2c0,4.9-1.8,8.9-5.5,12s-8.5,4.6-14.5,4.6c-8.7,0-16.5-3.2-23.4-9.6l7.3-8.9   c5.9,5.2,11.4,7.8,16.4,7.8c2.2,0,4-0.5,5.3-1.5s1.9-2.3,1.9-3.9s-0.7-3-2-3.9c-1.4-1-4.1-1.9-8.1-2.9c-6.4-1.5-11-3.5-14-5.9   s-4.4-6.2-4.4-11.4s1.9-9.2,5.6-12s8.4-4.2,14-4.2c3.7,0,7.3,0.6,11,1.9c3.7,1.3,6.8,3,9.6,5.3l-6.2,8.9c-4.8-3.6-9.7-5.4-14.7-5.4   C345.7,229.6,344.1,230.1,342.9,231.1z"/>
</g>
<circle style="fill:#E6E9EE;" cx="252.5" cy="344.5" r="10.8"/>
<g>
</g>
<g>
</g>
<g>
</g>
<g>
</g>
<g>
</g>
<g>
</g>
<g>
</g>
<g>
</g>
<g>
</g>
<g>
</g>
<g>
</g>
<g>
</g>
<g>
</g>
<g>
</g>
<g>
</g>
</svg>
