<?xml version="1.0" encoding="iso-8859-1"?>
<!-- Generator: Adobe Illustrator 19.0.0, SVG Export Plug-In . SVG Version: 6.00 Build 0)  -->
<svg xmlns="http://www.w3.org/2000/svg" xmlns:xlink="http://www.w3.org/1999/xlink" version="1.1" id="Layer_1" x="0px" y="0px" viewBox="0 0 505 505" style="enable-background:new 0 0 505 505;" xml:space="preserve">
<g>
	<circle style="fill:#FFD05B;" cx="252.5" cy="252.5" r="252.5"/>
	<path style="fill:#FFD05B;" d="M505,252.5c0,89.8-46.9,168.7-117.5,213.4c-13.1,8.4-27.1,15.5-41.8,21.3   c-28.8,11.5-60.3,17.8-93.2,17.8s-64.3-6.3-93.2-17.8c-14.6-5.8-28.6-12.9-41.8-21.3C46.9,421.2,0,342.3,0,252.5   C0,113,113,0,252.5,0C391.9,0,505,113,505,252.5z"/>
</g>
<path style="fill:#F1543F;" d="M387.5,164.2v301.7c-39,24.8-85.3,39.1-135,39.1c-49.6,0-95.9-14.3-135-39.1V164.2H387.5z"/>
<path style="fill:#FF7058;" d="M405.6,152.5L257.2,60.6c-2.9-1.8-6.6-1.8-9.5,0L99.4,152.5c-7.7,4.8-4.3,16.7,4.8,16.7h296.7  C409.9,169.2,413.3,157.3,405.6,152.5z"/>
<rect x="168.3" y="213.4" style="fill:#2B3B4E;" width="168.3" height="33.4"/>
<path style="fill:#FF7058;" d="M159.3,357.4v129.8c28.8,11.5,60.3,17.8,93.2,17.8s64.3-6.3,93.2-17.8V357.4H159.3z"/>
<circle style="fill:#F1543F;" cx="186.9" cy="428.4" r="10.7"/>
<g>
	<path style="fill:#FFFFFF;" d="M213.2,287.3c2.3,2,3.5,5,3.5,9.1s-1.2,7.1-3.6,9c-2.4,1.9-6,2.8-10.9,2.8h-4.4v9.2h-7.4v-33.1h11.7   C207.2,284.4,210.9,285.4,213.2,287.3z M207.8,300.3c0.9-1,1.3-2.4,1.3-4.4c0-1.9-0.6-3.3-1.7-4.1c-1.2-0.8-2.9-1.2-5.4-1.2h-4.2   v11.1h5C205.2,301.8,206.9,301.3,207.8,300.3z"/>
	<path style="fill:#FFFFFF;" d="M250.3,312.9c-3.3,3.3-7.5,4.9-12.4,4.9s-9-1.6-12.4-4.9c-3.3-3.3-5-7.3-5-12.2   c0-4.9,1.7-8.9,5-12.2c3.3-3.3,7.5-4.9,12.4-4.9s9,1.6,12.4,4.9c3.3,3.3,5,7.3,5,12.2S253.6,309.6,250.3,312.9z M247.8,300.7   c0-2.9-0.9-5.5-2.8-7.5c-1.9-2.1-4.2-3.1-7-3.1s-5.1,1-7,3.1s-2.8,4.6-2.8,7.5c0,3,0.9,5.5,2.8,7.5c1.9,2.1,4.2,3.1,7,3.1   s5.1-1,7-3.1C246.8,306.2,247.8,303.7,247.8,300.7z"/>
	<path style="fill:#FFFFFF;" d="M269,291c-0.7,0.6-1.1,1.4-1.1,2.3s0.4,1.7,1.3,2.3c0.9,0.6,2.9,1.2,6,2c3.1,0.8,5.6,1.9,7.3,3.5   c1.7,1.5,2.6,3.8,2.6,6.8s-1.1,5.4-3.3,7.2c-2.2,1.8-5.2,2.8-8.8,2.8c-5.2,0-10-1.9-14.2-5.8l4.4-5.4c3.6,3.1,6.9,4.7,9.9,4.7   c1.4,0,2.4-0.3,3.2-0.9s1.2-1.4,1.2-2.4s-0.4-1.8-1.2-2.4c-0.8-0.6-2.4-1.2-4.9-1.8c-3.9-0.9-6.7-2.1-8.5-3.6s-2.7-3.8-2.7-6.9   s1.1-5.6,3.4-7.3c2.3-1.7,5.1-2.6,8.4-2.6c2.2,0,4.4,0.4,6.6,1.1c2.2,0.8,4.1,1.8,5.8,3.2l-3.7,5.4c-2.9-2.2-5.8-3.3-8.9-3.3   C270.7,290.1,269.7,290.4,269,291z"/>
	<path style="fill:#FFFFFF;" d="M305.2,290.8v26.7h-7.4v-26.7h-9.3v-6.4h26.1v6.4H305.2z"/>
</g>
<g>
</g>
<g>
</g>
<g>
</g>
<g>
</g>
<g>
</g>
<g>
</g>
<g>
</g>
<g>
</g>
<g>
</g>
<g>
</g>
<g>
</g>
<g>
</g>
<g>
</g>
<g>
</g>
<g>
</g>
</svg>
