<?xml version="1.0" encoding="iso-8859-1"?>
<!-- Generator: Adobe Illustrator 19.0.0, SVG Export Plug-In . SVG Version: 6.00 Build 0)  -->
<svg xmlns="http://www.w3.org/2000/svg" xmlns:xlink="http://www.w3.org/1999/xlink" version="1.1" id="Layer_1" x="0px" y="0px" viewBox="0 0 505 505" style="enable-background:new 0 0 505 505;" xml:space="preserve">
<circle style="fill:#84DBFF;" cx="252.5" cy="252.5" r="252.5"/>
<path style="fill:#324A5E;" d="M265.6,387.2v117.5c-4.3,0.2-8.7,0.3-13.1,0.3s-8.8-0.1-13.1-0.3V387.2H265.6z"/>
<path style="fill:#2B3B4E;" d="M287.6,409.2h-70.3c-1.6,0-2.9-1.3-2.9-2.9v-54.4h76.2v54.4C290.6,407.9,289.3,409.2,287.6,409.2z"/>
<rect x="157.5" y="64.5" style="fill:#FFFFFF;" width="189.9" height="120.7"/>
<path style="fill:#324A5E;" d="M126.9,370.1V187.4c0-1.2,1-2.2,2.2-2.2H376c1.2,0,2.2,1,2.2,2.2v182.7c0,3-2.4,5.5-5.5,5.5H132.4  C129.3,375.5,126.9,373.1,126.9,370.1z"/>
<g>
	<rect x="274.8" y="91.7" style="fill:#E6E9EE;" width="37.2" height="37.2"/>
	<rect x="193" y="91.7" style="fill:#E6E9EE;" width="37.2" height="37.2"/>
</g>
<path style="fill:#ACB3BA;" d="M305,283.7l-8.6-8.6c-2-2-5.2-2-7.2,0l-8.6,8.6c-2,2-2,5.2,0,7.2l1.1,1.1l-6.2,6.2l-25.5-8.5  l40.4-40.4l10.3,10.3l8.8-36.2l-36.2,8.8l10.2,10.3l-49.4,49.4l-8.5-25.5l11.7-11.7c4,1.5,8.6,0.7,11.8-2.5c4.3-4.3,4.3-11.3,0-15.7  c-4.3-4.3-11.3-4.3-15.7,0c-3.2,3.2-4,7.8-2.5,11.8L217.2,262c-1.2,1.2-1.6,3-1.1,4.6l10.8,32.5L222,304c-6.5-3.5-14.8-2.5-20.2,2.9  l0,0c-6.7,6.7-6.7,17.5,0,24.2l0,0c6.7,6.7,17.5,6.7,24.2,0l0,0c5.5-5.5,6.5-13.8,2.9-20.2l13.9-13.9l32.5,10.8  c1.6,0.5,3.4,0.1,4.6-1.1l8.2-8.2l1.1,1.1c2,2,5.2,2,7.2,0l8.6-8.6C307,289,307,285.7,305,283.7z"/>
<g>
</g>
<g>
</g>
<g>
</g>
<g>
</g>
<g>
</g>
<g>
</g>
<g>
</g>
<g>
</g>
<g>
</g>
<g>
</g>
<g>
</g>
<g>
</g>
<g>
</g>
<g>
</g>
<g>
</g>
</svg>
