<?xml version="1.0" encoding="iso-8859-1"?>
<!-- Generator: Adobe Illustrator 19.0.0, SVG Export Plug-In . SVG Version: 6.00 Build 0)  -->
<svg xmlns="http://www.w3.org/2000/svg" xmlns:xlink="http://www.w3.org/1999/xlink" version="1.1" id="Layer_1" x="0px" y="0px" viewBox="0 0 505 505" style="enable-background:new 0 0 505 505;" xml:space="preserve">
<circle style="fill:#324A5E;" cx="252.5" cy="252.5" r="252.5"/>
<path style="fill:#2B3B4E;" d="M264.3,306.3l-0.2,7l-0.6,22.9l-4.7,168.7c-2.1,0-4.1,0.1-6.2,0.1s-4.2,0-6.3-0.1l-4.8-168.8  l-0.6-22.8l-0.2-7L264.3,306.3L264.3,306.3z"/>
<g>
	<path style="fill:#ACB3BA;" d="M318.4,496.3c-5.2,1.4-10.5,2.6-15.8,3.7l-39.1-163.8l-5.5-22.9h29.1L318.4,496.3z"/>
	<path style="fill:#ACB3BA;" d="M247,313.3l-5.4,22.8L202.4,500c-5.3-1.1-10.6-2.3-15.7-3.7l31.3-183L247,313.3L247,313.3z"/>
</g>
<path style="fill:#CED5E0;" d="M298.7,289.5h-92.4v30.7c0,1.6,1.3,3,3,3h86.4c1.6,0,3-1.3,3-3V289.5z"/>
<path style="fill:#FFFFFF;" d="M295.1,119.3h-85.2c-4.1,0-7.1-4-5.9-8l8.3-26.6c0.8-2.6,3.2-4.3,5.9-4.3h68.7c2.7,0,5.1,1.8,5.9,4.3  l8.3,26.6C302.2,115.3,299.2,119.3,295.1,119.3z"/>
<path style="fill:#E6E9EE;" d="M383.1,294.6H121.9c-1.6,0-2.9-1.3-2.9-2.9V114.3c0-1.6,1.3-2.9,2.9-2.9h261.2c1.6,0,2.9,1.3,2.9,2.9  v177.3C386.1,293.3,384.7,294.6,383.1,294.6z"/>
<rect x="118.9" y="147.6" style="fill:#FF7058;" width="267.1" height="110.7"/>
<circle style="fill:#2B3B4E;" cx="252.5" cy="203" r="72.5"/>
<circle style="fill:#84DBFF;" cx="252.5" cy="203" r="55.4"/>
<circle style="fill:#54C0EB;" cx="252.5" cy="203" r="34.8"/>
<g>
	<circle style="fill:#FFFFFF;" cx="239.2" cy="182.2" r="16.4"/>
	<circle style="fill:#FFFFFF;" cx="257.3" cy="200.3" r="5.5"/>
</g>
<rect x="224.9" y="91.3" style="fill:#E6E9EE;" width="55.2" height="11.3"/>
<g>
</g>
<g>
</g>
<g>
</g>
<g>
</g>
<g>
</g>
<g>
</g>
<g>
</g>
<g>
</g>
<g>
</g>
<g>
</g>
<g>
</g>
<g>
</g>
<g>
</g>
<g>
</g>
<g>
</g>
</svg>
