<?xml version="1.0" encoding="iso-8859-1"?>
<!-- Generator: Adobe Illustrator 19.0.0, SVG Export Plug-In . SVG Version: 6.00 Build 0)  -->
<svg xmlns="http://www.w3.org/2000/svg" xmlns:xlink="http://www.w3.org/1999/xlink" version="1.1" id="Layer_1" x="0px" y="0px" viewBox="0 0 505 505" style="enable-background:new 0 0 505 505;" xml:space="preserve">
<circle style="fill:#90DFAA;" cx="252.5" cy="252.5" r="252.5"/>
<path style="fill:#FFFFFF;" d="M348.7,239.5c0-10.1-3.7-18.9-9.1-23.5c-1.8-55.8-40.1-80.3-87.1-80.3s-85.3,24.5-87.1,80.3  c-5.4,4.6-9.1,13.4-9.1,23.5c0,14.1,7.2,25.6,16.3,26.7c13.4,43.9,44.2,82.3,80,82.3s66.6-38.5,80-82.3  C341.6,265.1,348.7,253.6,348.7,239.5z"/>
<g>
	<path style="fill:#FF7058;" d="M391.6,277h-40.5c-5.8,0-10.1-4.7-9.6-10.6l4.8-58.6c0.5-6.6,6.1-12,12.3-12h43.5L391.6,277z"/>
	<path style="fill:#FF7058;" d="M113.4,277h40.5c5.8,0,10.1-4.7,9.6-10.6l-4.8-58.6c-0.5-6.6-6.1-12-12.3-12h-43.5L113.4,277z"/>
</g>
<path style="fill:#324A5E;" d="M391.6,284.1c-0.3,0-0.6,0-0.9-0.1c-3.9-0.5-6.7-4.1-6.1-8c1.3-9.9,2.8-20,4.3-30  c2-13.7,4.1-27.9,5.7-41.8c3.5-30.9-6.4-61.9-27.2-85.1c-20.9-23.4-50.8-36.8-82.1-36.8h-65.5c-31.3,0-61.3,13.4-82.1,36.8  c-20.7,23.2-30.7,54.2-27.2,85.1c1.6,13.9,3.7,28.1,5.7,41.7c1.5,10.1,3,20.1,4.3,30.1c0.5,3.9-2.2,7.5-6.1,8s-7.5-2.2-8-6.1  c-1.3-9.9-2.8-19.8-4.2-29.8c-2.1-13.8-4.2-28.1-5.8-42.2c-3.9-34.9,7.3-69.9,30.7-96.2c23.6-26.4,57.4-41.5,92.8-41.5h65.5  c35.4,0,69.2,15.1,92.7,41.5c23.5,26.2,34.6,61.3,30.7,96.2c-1.6,14.2-3.7,28.5-5.8,42.3c-1.5,10-3,19.9-4.2,29.8  C398.2,281.5,395.2,284.1,391.6,284.1z"/>
<path style="fill:#2C9984;" d="M410.9,449.1c-43.3,35-98.4,55.9-158.4,55.9s-115.1-20.9-158.4-55.9c29.2-49.7,83.2-83,145-83H266  c46.4,0,88.5,18.8,118.9,49.2C394.9,425.4,403.7,436.8,410.9,449.1z"/>
<g>
</g>
<g>
</g>
<g>
</g>
<g>
</g>
<g>
</g>
<g>
</g>
<g>
</g>
<g>
</g>
<g>
</g>
<g>
</g>
<g>
</g>
<g>
</g>
<g>
</g>
<g>
</g>
<g>
</g>
</svg>
