<?xml version="1.0" encoding="iso-8859-1"?>
<!-- Generator: Adobe Illustrator 19.0.0, SVG Export Plug-In . SVG Version: 6.00 Build 0)  -->
<svg xmlns="http://www.w3.org/2000/svg" xmlns:xlink="http://www.w3.org/1999/xlink" version="1.1" id="Layer_1" x="0px" y="0px" viewBox="0 0 505 505" style="enable-background:new 0 0 505 505;" xml:space="preserve">
<circle style="fill:#90DFAA;" cx="252.5" cy="252.5" r="252.5"/>
<path style="fill:#324A5E;" d="M153.4,428.4L153.4,428.4c-7.2-3.6-10.6-12.1-7.8-19.7l76.2-208.1l72.7,36.3L173.9,422.8  C169.5,429.6,160.7,432,153.4,428.4z"/>
<circle style="fill:#E6E9EE;" cx="299.4" cy="136" r="61"/>
<path style="fill:#FF7058;" d="M294.2,287.2L181.6,231c-0.9-0.5-1.3-1.6-0.8-2.5l38.7-77.5c0.5-0.9,1.6-1.3,2.5-0.8l112.5,56.2  c0.9,0.5,1.3,1.6,0.8,2.5l-38.7,77.5C296.2,287.3,295.1,287.7,294.2,287.2z"/>
<path style="fill:#FFFFFF;" d="M244.9,236.9c3.8,1.9,7.3,2.1,10.7,0.6c3.3-1.5,6.3-4.3,9-8.4c-5,0.6-9.6-0.1-13.9-2.3  c-5.7-2.8-9.5-7.1-11.5-12.8c-1.9-5.7-1.4-11.6,1.7-17.7c3.1-6.2,7.6-10.1,13.6-11.8c6-1.7,12.1-1,18.3,2.1c4.3,2.1,7.6,4.8,10,8.1  c2.3,3.2,3.7,6.8,4,10.7c0.6,7.5-1.3,15.5-5.7,24.2c-2.8,5.6-5.9,10.1-9.4,13.7c-3.5,3.5-7,5.9-10.5,7.2c-7.2,2.5-14.2,2.1-21-1.3  c-2.9-1.4-5.4-3.2-7.6-5.4c-2.2-2.1-3.8-4-4.7-5.5s-1.9-3.4-3-5.6l11.6-6.2c0.2,0.6,0.5,1.3,0.9,2.2s1.3,2.3,2.8,4.2  C241.6,234.7,243.2,236.1,244.9,236.9z M257.8,215.9c2.7,1.4,5.3,1.7,7.9,1s4.5-2.3,5.8-4.8c1.3-2.6,1.5-5.2,0.7-7.9  s-2.5-4.8-5.2-6.1c-2.6-1.3-5.2-1.5-7.7-0.7s-4.4,2.5-5.6,5.1c-1.3,2.6-1.6,5.1-1,7.6C253.4,212.6,255,214.5,257.8,215.9z"/>
<g>
</g>
<g>
</g>
<g>
</g>
<g>
</g>
<g>
</g>
<g>
</g>
<g>
</g>
<g>
</g>
<g>
</g>
<g>
</g>
<g>
</g>
<g>
</g>
<g>
</g>
<g>
</g>
<g>
</g>
</svg>
