<?xml version="1.0" encoding="iso-8859-1"?>
<!-- Generator: Adobe Illustrator 19.0.0, SVG Export Plug-In . SVG Version: 6.00 Build 0)  -->
<svg xmlns="http://www.w3.org/2000/svg" xmlns:xlink="http://www.w3.org/1999/xlink" version="1.1" id="Layer_1" x="0px" y="0px" viewBox="0 0 505 505" style="enable-background:new 0 0 505 505;" xml:space="preserve">
<circle style="fill:#FD8469;" cx="252.5" cy="252.5" r="252.5"/>
<g>
	<path style="fill:#FFD05B;" d="M225.6,251.5c-47.6,0-86.3-38.7-86.3-86.3s38.7-86.3,86.3-86.3s86.3,38.7,86.3,86.3   S273.2,251.5,225.6,251.5z M225.6,94.7c-38.9,0-70.5,31.6-70.5,70.5s31.6,70.5,70.5,70.5s70.5-31.6,70.5-70.5   S264.5,94.7,225.6,94.7z"/>
	<path style="fill:#FFD05B;" d="M225.6,216c-28,0-50.7-22.7-50.7-50.7s22.7-50.7,50.7-50.7s50.7,22.7,50.7,50.7S253.6,216,225.6,216   z M225.6,130.3c-19.3,0-34.9,15.7-34.9,34.9c0,19.3,15.7,34.9,34.9,34.9c19.3,0,34.9-15.7,34.9-34.9   C260.6,146,244.9,130.3,225.6,130.3z"/>
</g>
<path style="fill:#FFFFFF;" d="M340.8,276.6c-11.2-1.1-20.7,7.7-20.7,18.7v-9.9c0-9.8-7.2-18.6-17-19.5  c-11.2-1.1-20.7,7.7-20.7,18.7v-9.9c0-9.8-7.2-18.6-17-19.5c-11.2-1.1-20.7,7.7-20.7,18.7v-89.1c0-9.8-7.2-18.6-17-19.6  c-11.2-1.1-20.7,7.7-20.7,18.7V307c-9.8-11.6-14.6-16-26-26.2c-8.5-7.6-20.9-8.1-27.7-1c-7.7,8.3-6.2,21.2,2,28.5  c12.4,11,17.9,16.4,28.1,29.3c11.7,14.7,19.9,31.8,26.1,49.6c6.2,17.9,23.3,30.8,43.4,30.8h58.8c25.3,0,45.9-20.5,45.9-45.9V296  C357.8,286.3,350.6,277.5,340.8,276.6z"/>
<g>
</g>
<g>
</g>
<g>
</g>
<g>
</g>
<g>
</g>
<g>
</g>
<g>
</g>
<g>
</g>
<g>
</g>
<g>
</g>
<g>
</g>
<g>
</g>
<g>
</g>
<g>
</g>
<g>
</g>
</svg>
