<?xml version="1.0" encoding="iso-8859-1"?>
<!-- Generator: Adobe Illustrator 19.0.0, SVG Export Plug-In . SVG Version: 6.00 Build 0)  -->
<svg xmlns="http://www.w3.org/2000/svg" xmlns:xlink="http://www.w3.org/1999/xlink" version="1.1" id="Layer_1" x="0px" y="0px" viewBox="0 0 505 505" style="enable-background:new 0 0 505 505;" xml:space="preserve">
<circle style="fill:#84DBFF;" cx="252.5" cy="252.5" r="252.5"/>
<path style="fill:#324A5E;" d="M228.7,366.7c-5.3,0-10.5-1-15.6-2.8L186,353.7c-17.2-6.4-28.7-23.1-28.7-41.4v-25.8  c0-3.2,1.6-6.3,4.2-8.1c2.7-1.8,6.1-2.3,9.1-1.1l95.8,35.9c3.8,1.4,6.4,5.1,6.4,9.2C272.8,346.9,253,366.7,228.7,366.7z M177,300.8  v11.5c0,10.1,6.4,19.4,15.9,22.9l27.1,10.2c2.8,1.1,5.7,1.6,8.6,1.6c11.2,0,20.7-7.6,23.6-18L177,300.8z"/>
<g>
	<path style="fill:#FFFFFF;" d="M367.6,220.6v63.7l36.7-5.5c7.6-1.1,13.3-7.7,13.3-15.4v-22c0-7.7-5.7-14.3-13.3-15.4L367.6,220.6z"/>
	<polygon style="fill:#FFFFFF;" points="375.7,374.3 114.6,282.7 114.6,222.3 375.7,130.7  "/>
</g>
<g>
	<polygon style="fill:#324A5E;" points="114.6,222.2 87.4,214.9 87.4,290.1 114.6,282.8  "/>
	<path style="fill:#324A5E;" d="M377.8,382L377.8,382c-10.3,0-18.7-8.4-18.7-18.7V141.7c0-10.3,8.4-18.7,18.7-18.7l0,0   c10.3,0,18.7,8.4,18.7,18.7v221.6C396.5,373.6,388.1,382,377.8,382z"/>
</g>
<g>
</g>
<g>
</g>
<g>
</g>
<g>
</g>
<g>
</g>
<g>
</g>
<g>
</g>
<g>
</g>
<g>
</g>
<g>
</g>
<g>
</g>
<g>
</g>
<g>
</g>
<g>
</g>
<g>
</g>
</svg>
