<?xml version="1.0" encoding="iso-8859-1"?>
<!-- Generator: Adobe Illustrator 19.0.0, SVG Export Plug-In . SVG Version: 6.00 Build 0)  -->
<svg xmlns="http://www.w3.org/2000/svg" xmlns:xlink="http://www.w3.org/1999/xlink" version="1.1" id="Layer_1" x="0px" y="0px" viewBox="0 0 505 505" style="enable-background:new 0 0 505 505;" xml:space="preserve">
<g>
	<circle style="fill:#FFD05B;" cx="252.5" cy="252.5" r="252.5"/>
	<path style="fill:#FFD05B;" d="M505,252.5c0,103-61.6,191.5-150,230.8c-8.4,3.8-17.2,7.1-26.1,9.9c-24.1,7.7-49.7,11.8-76.4,11.8   s-52.3-4.1-76.4-11.8c-8.9-2.8-17.6-6.1-26.1-9.9C61.6,444,0,355.5,0,252.5C0,113.1,113,0,252.5,0S505,113.1,505,252.5z"/>
</g>
<path style="fill:#FF7058;" d="M450.9,408.7c-10.2,12.9-21.6,24.9-34.1,35.6L357.7,358c-7.2,36.5-14.7,84.1-16.8,131.1  c-27.5,10.3-57.2,15.9-88.3,15.9s-60.8-5.6-88.3-15.9c-2.1-47.1-9.6-94.7-16.8-131.1l-59.1,86.3c-12.5-10.7-23.9-22.6-34.1-35.6  l64.1-99.1c9.2-10.3,22.6-16.4,36.9-16.9l30.4-1.1c12.9-0.4,24.3-7.9,28.8-19.1c6.8-16.8,6.7-34.2,6-43.6H285  c-0.7,9.3-0.9,26.7,6,43.6c4.5,11.1,15.9,18.6,28.8,19.1l30.4,1.1c14.4,0.5,27.8,6.6,36.9,16.9L450.9,408.7z"/>
<path style="fill:#E6E9EE;" d="M342.8,292.4l-23.3-0.8c-12.9-0.4-24.3-7.9-28.8-19.1c-6.8-16.8-6.7-34.2-5.9-43.5H253h-1h-31.8  c0.7,9.3,0.9,26.7-5.9,43.5c-4.5,11.1-15.9,18.6-28.8,19.1l-23.3,0.8c14.2,33.2,49,56.8,89.8,57.3l0,0c0.2,0,0.3,0,0.5,0  c0.2,0,0.3,0,0.5,0l0,0C293.8,349.2,328.6,325.7,342.8,292.4z"/>
<path style="fill:#84DBFF;" d="M207.1,445.5l-31,47.8c-8.9-2.8-17.6-6.1-26.1-9.9l20.6-56.1L207.1,445.5z"/>
<circle style="fill:#324A5E;" cx="209.6" cy="394.8" r="30.6"/>
<path style="fill:#FFFFFF;" d="M207,470.7l-56.6-28.2c-0.5-0.2-0.6-0.8-0.4-1.2l19.4-38.9c0.2-0.5,0.8-0.6,1.2-0.4l56.5,28.2  c0.5,0.2,0.6,0.8,0.4,1.2l-19.4,38.9C208,470.8,207.4,471,207,470.7z"/>
<path style="fill:#84DBFF;" d="M355,483.3c-8.4,3.8-17.2,7.1-26.1,9.9l-31-47.8l36.5-18.2L355,483.3z"/>
<circle style="fill:#324A5E;" cx="295.4" cy="394.8" r="30.6"/>
<path style="fill:#FFFFFF;" d="M298,470.7l56.5-28.2c0.5-0.2,0.6-0.8,0.4-1.2l-19.4-39c-0.2-0.5-0.8-0.6-1.2-0.4l-56.5,28.2  c-0.5,0.2-0.6,0.8-0.4,1.2l19.4,38.9C297,470.8,297.6,471,298,470.7z"/>
<g>
	<path style="fill:#2B3B4E;" d="M180.8,257.4c-1.2-0.6-2.1-1.5-2.9-2.5c-9.8-11.9-10.3-27.3-9.6-41.7c0.5-10.7,1.4-21.6,6.3-31.5   c2.8-5.6,6.7-10.8,10.6-15.9c0.9-1.2,2.7-2.5,4-1.6c0.4,0.3,0.6,0.7,0.8,1.1c9.9,21.9,19.1,44.1,27.4,66.4   c2.1,5.6,4.5,11.7,10.2,15.2c-7.6,1.6-14.6-3.4-20.1-8.1c1.8,4.3,3.6,8.6,5.4,12.8c0.6,1.4,1,3.1-0.3,4.1c-0.6,0.5-1.6,0.6-2.4,0.6   c-2.7,0.1-5.4-0.1-8.1-0.6c1.9-0.5,3.9,1.3,3.3,2.9c-6.8,0.1-13.7-0.1-20.5-0.6C183.5,258.1,182,258,180.8,257.4z"/>
	<path style="fill:#2B3B4E;" d="M329.3,188.2c-0.5-1.6-1.9-2.9-3.1-4.3c-6.1-6.7-9.9-14.8-10.9-23.2c-6.3,2.9-8.9,9.3-9.4,15.3   c-0.4,6,0.9,12,0,17.9c-0.7,4.7-2.7,9.3-4.7,13.8c-2.8,6.4-5.7,12.8-8.5,19.2c-1.2,2.6-2.4,5.3-3,8.1c-0.4,1.9-0.5,3.9-1.1,5.8   c-0.8,2.7-2.6,5.1-4.3,7.5c-4.6,6.3-9.2,12.7-13.8,19c6.1-1.9,12.1-4,18-6.2c7.2-2.8,14.4-5.9,19.8-10.7   c8.8-7.7,12.2-18.6,14.7-29.1c2.3-9.4,4.1-18.8,6-28.2C329.5,191.5,329.8,189.8,329.3,188.2z"/>
</g>
<ellipse style="fill:#FFFFFF;" cx="252.5" cy="171.9" rx="68.1" ry="78.9"/>
<g>
	<path style="fill:#324A5E;" d="M208.3,57.7c2.4-1.4,24.4-8,31.8,6.9c3,6.2,4.5,13,4.2,19.7c-0.5,10.7-6.9,20.6-14.3,29.3   c-4.6,5.5-9.6,10.8-13.8,16.5c-3,4.2-5.5,8.6-8,13c-7.6,13.5-15.2,27-20.1,41.3c-4.9,14.3-7.1,29.5-3.6,44.1   c1.3,5.6,3.7,11.2,8.6,15.1c5.3,4.1,20.8,11.8,20.9,11.2c0-0.6-19.8,0-25.3-5.8c5.8,11.7,17.9,21.1,32.3,25.1   c-6.2,3.2-14.3,0.3-19.8-3.7s-10.2-9.1-17-11.1c6.2,3.5,7.6,9.3,11.5,14.6c3.9,5.3,11.2,10.6,18.5,11.6c-5.4,2.1-11.5-1.1-16.3-4   c-15.1-9.4-30.9-19.7-37.5-34.4c-1.8-3.9-2.8-8-3.6-12.1c-4.1-21.5-1.1-43.5,1.9-65.1C159.6,165.1,161,85.9,208.3,57.7z"/>
	<path style="fill:#324A5E;" d="M259.8,106.4c-4.8-2.2-11.1-1.8-15.4-4.6c-5.9-3.8-6.6-10.8-6.8-17c-0.2-6.4-0.4-12.9,2-18.9   c0.5-1.3,2.3-9.5,31.7-7.3c13.2,1,24.8,7.7,34.2,15.4c15.7,13,26.7,29.6,33.4,47.2c6.8,17.6,9.6,36,10.5,54.5   c0.5,9.1,0.5,18.3-0.8,27.3c-0.7,5.2-1.9,10.3-3,15.5c-2.5,11.1-5,22.3-9.8,32.9C331,262,323.7,272,313,279.1   c6.7-10.7,11.2-22.4,13.4-34.4c-11,7.4-15.7,33.8-55.5,34.4c8.1-6.4,16.2-12.8,22.9-20.2c17.3-19,24.5-44.2,19.4-67.6   c-1.5,8-2.8,16.1-3.9,24.2c0.5-11.1-7.7-21.1-9.4-32.1C299,178,300.6,125.2,259.8,106.4z"/>
</g>
<g>
</g>
<g>
</g>
<g>
</g>
<g>
</g>
<g>
</g>
<g>
</g>
<g>
</g>
<g>
</g>
<g>
</g>
<g>
</g>
<g>
</g>
<g>
</g>
<g>
</g>
<g>
</g>
<g>
</g>
</svg>
