<?xml version="1.0" encoding="iso-8859-1"?>
<!-- Generator: Adobe Illustrator 19.0.0, SVG Export Plug-In . SVG Version: 6.00 Build 0)  -->
<svg xmlns="http://www.w3.org/2000/svg" xmlns:xlink="http://www.w3.org/1999/xlink" version="1.1" id="Layer_1" x="0px" y="0px" viewBox="0 0 505 505" style="enable-background:new 0 0 505 505;" xml:space="preserve">
<path style="fill:#90DFAA;" d="M505,252.5C505,392,392,505,252.5,505C113.1,505,0,392,0,252.5C0,113.1,113.1,0,252.5,0  C392,0,505,113.1,505,252.5z"/>
<path style="fill:#324A5E;" d="M419.8,122.1H85.2c-4.5,0-8.2,3.7-8.2,8.2V372c0,4.5,3.7,8.2,8.2,8.2h334.6c4.5,0,8.2-3.7,8.2-8.2  V130.3C428,125.8,424.3,122.1,419.8,122.1z M397.5,247.2h-71.1v-33.6h71.1V247.2z"/>
<rect x="198.6" y="376.3" style="fill:#2B3B4E;" width="107.8" height="37.2"/>
<path style="fill:#324A5E;" d="M312.8,403H192.2c-6.1,0-11.1,5-11.1,11.1l0,0c0,6.1,5,11.1,11.1,11.1h120.6c6.1,0,11.1-5,11.1-11.1  l0,0C323.9,408,318.9,403,312.8,403z"/>
<rect x="98.1" y="143.2" style="fill:#FFFFFF;" width="308.8" height="189.3"/>
<circle style="fill:#FF7058;" cx="391.4" cy="357.8" r="9.8"/>
<circle style="fill:#E6E9EE;" cx="363.9" cy="357.8" r="9.8"/>
<path style="fill:#F9B54C;" d="M222.8,267.3c0-0.6,0.1-1.2,0-1.8c-0.1-2.8,1.2-5.1,3.2-6.5c-6.4-9.8-11.7-24.9-11.7-24.9h-20.4  c0,0-8,23.3-16.1,30.7l25.8,8.2v0.4l0.6-0.2l0.6,0.2V273L222.8,267.3z"/>
<path style="fill:#E6E9EE;" d="M225.2,332.5l11.3-18.6l-6.9-50.4l-25.5,2.2l-23.6-2.3l-1.3,0.2c0,0-11,22.7-11.9,24.9  c-0.8,2,7,35.9,8.4,44.1h49.5V332.5z"/>
<polygon style="fill:#F1543F;" points="208.4,279.8 200,279.8 194.4,265.7 213.9,265.7 "/>
<polygon style="fill:#FF7058;" points="208.4,279.8 200,279.8 194.4,315.7 204.2,328.5 213.9,315.7 "/>
<g>
	<path style="fill:#FFFFFF;" d="M223.2,253.9c0,0,14.3,12.2-7,25.6l-12-13.5L223.2,253.9z"/>
	<path style="fill:#FFFFFF;" d="M185.1,253.9c0,0-14.3,12.2,7,25.6l12-13.5L185.1,253.9z"/>
</g>
<path style="fill:#84DBFF;" d="M153.5,332.5c0-0.2,0.1-0.4,0.1-0.5c1.6-6.7,2.8-10.7,2.8-10.7l-14.9-34c0-0.1-0.1-0.2-0.1-0.3  l-4.9-11.1c0-0.1-0.1-0.1-0.1-0.1c-8.2,18.4-13,37.8-15.5,56.7H153.5z"/>
<path style="fill:#54C0EB;" d="M141.5,287.1c0,0.1,0.1,0.2,0.1,0.3c3.7,9.5,8.6,24.7,12.1,44.7c0,0.2,0,0.3,0.1,0.5h40.7l-2.9-3.9  L176.5,283l2.9-19.4l3.4-6.8l0,0c-0.6,0.6-6,6-16,11c-7.5,3.8-17.7,7.3-30.2,8.1c0,0,0,0,0.1,0.1C137,276.6,138.9,280.5,141.5,287.1  z"/>
<path style="fill:#84DBFF;" d="M190.4,332.5h8.6c-20.9-44.9-16.2-75.8-16.2-75.8l-16.5,11.4l10.3,2l-10.3,4.3  C173.6,302,182.5,320.4,190.4,332.5z"/>
<path style="fill:#54C0EB;" d="M255.4,332.5h32.5c-2.5-18.9-7.3-38.3-15.5-56.7c0,0,0,0-0.1,0.1l-4.8,11l-0.1,0.1l-15,34.2  c0,0,1.2,4.1,2.8,10.8C255.4,332.2,255.4,332.4,255.4,332.5z"/>
<path style="fill:#84DBFF;" d="M217.4,328.6l-2.9,3.9h40.8c0-0.2,0-0.3,0.1-0.5c3.5-20.2,8.5-35.5,12.2-45c0-0.1,0-0.1,0.1-0.1  c2.5-6.5,4.4-10.3,4.8-11c0-0.1,0.1-0.1,0.1-0.1c-12.5-0.8-22.7-4.3-30.3-8.1c-9.9-4.9-15.3-10.4-15.9-10.9l0,0l3.4,6.8l2.8,19.4  l-0.1,0.4L217.4,328.6z"/>
<path style="fill:#54C0EB;" d="M210,332.5h8.6c7.9-12.1,16.8-30.5,24.2-58.1l-10.3-4.3l10.3-2l-16.5-11.4  C226.2,256.7,230.9,287.7,210,332.5z"/>
<g>
	<path style="fill:#F9B54C;" d="M236,212c-0.4,4.9-2.2,8.9-4,8.9s-2.9-4-2.5-8.9s2.2-8.9,4-8.9S236.4,207.1,236,212z"/>
	<path style="fill:#F9B54C;" d="M173,212c0.4,4.9,2.2,8.9,4,8.9s2.9-4,2.5-8.9s-2.2-8.9-4-8.9S172.5,207.1,173,212z"/>
</g>
<path style="fill:#FFD05B;" d="M226.5,184c-1.6-3.6-5.4-5.9-9.5-5.9h-12.3h-12.3c-4.1,0-7.9,2.3-9.5,5.9c-4,8.7-4.8,23.9-4.8,34.2  c0,6.8,2.6,13.4,7.4,18.5l3.9,4.1c3.6,3.8,8.2,6.5,13.3,8l2.2,0.6l2.2-0.6c5.1-1.5,9.7-4.2,13.3-8l3.9-4.1  c4.8-5.1,7.4-11.7,7.4-18.5C231.3,207.8,230.5,192.7,226.5,184z"/>
<path style="fill:#11110F;" d="M234.5,175.4c-0.4-1.5-1-2.8-1.4-4.3c-0.3-1-0.5-2-1-2.9c-1.1-1.9-3.4-2.9-5.5-2.7  c-2.2,0.2-4.1,1.4-5.6,3c0.3-2.1,0.4-4.3-0.6-6.1c-1.1-2.1-3.5-3.2-5.8-3.6c-2.3-0.4-4.7-0.3-7-0.5c-2.6-0.2-5.1-0.9-7.7-0.7  c-2.1,0.2-4,1.4-6.1,1.9c-21.9,5-20.2,31.1-19.9,38c0.1,1.8,0.2,3.7,0.8,5.5c0.8,2.3,2.2,4.2,3.8,6c0.4-1.3,0.4-2.7,0.7-3.9  c0.4-1.9,0.6-3.9,1.1-5.7s2.6-11.5,3.5-13.4c1.2-2.6,3.3-5,6-5.7c5.3-1.4,10.5,3.4,15.9,2.5c1-0.2,2-0.5,3-0.9  c1.1-0.4,2.2-0.7,3.4-1.1c2.5-0.7,5.2-1.3,7.7-0.5c2.8,0.8,5,3,6.4,5.6s2.1,5.5,2.7,8.3c0.4,1.7,0.7,3.4,0.5,5.2c0,0.1,0,0.3,0,0.4  c0.1,1.4,0,2.8,0.2,4.2c0.2,1.1,0.5,2.1,0.7,3.2c0.1,0.5,0.2,1,0.3,1.4c1.9-3.4,3.2-7.2,3.9-11c0.6-3.1,0.7-6.3,0.9-9.5  C235.5,183.8,235.7,179.5,234.5,175.4z"/>
<path style="fill:#E6E9EE;" d="M165.2,132.8h-45.6c-0.7,0-1.3-0.6-1.3-1.3V91c0-1.8,1.4-3.2,3.2-3.2h41.7c1.8,0,3.2,1.4,3.2,3.2  v40.5C166.4,132.2,165.9,132.8,165.2,132.8z"/>
<circle style="fill:#324A5E;" cx="142.4" cy="107" r="11.5"/>
<circle style="fill:#2B3B4E;" cx="142.4" cy="107" r="6.6"/>
<circle style="fill:#ACB3BA;" cx="140.6" cy="104.6" r="1.7"/>
<g>
	<rect x="281.1" y="170.3" style="fill:#FFD05B;" width="104.1" height="9.8"/>
	<rect x="281.1" y="201.8" style="fill:#FFD05B;" width="104.1" height="9.8"/>
	<rect x="281.1" y="233.2" style="fill:#FFD05B;" width="45.3" height="9.8"/>
</g>
<g>
</g>
<g>
</g>
<g>
</g>
<g>
</g>
<g>
</g>
<g>
</g>
<g>
</g>
<g>
</g>
<g>
</g>
<g>
</g>
<g>
</g>
<g>
</g>
<g>
</g>
<g>
</g>
<g>
</g>
</svg>
