<?xml version="1.0" encoding="iso-8859-1"?>
<!-- Generator: Adobe Illustrator 19.0.0, SVG Export Plug-In . SVG Version: 6.00 Build 0)  -->
<svg xmlns="http://www.w3.org/2000/svg" xmlns:xlink="http://www.w3.org/1999/xlink" version="1.1" id="Layer_1" x="0px" y="0px" viewBox="0 0 505 505" style="enable-background:new 0 0 505 505;" xml:space="preserve">
<circle style="fill:#FFD05B;" cx="252.5" cy="252.5" r="252.5"/>
<path style="fill:#54C0EB;" d="M309.9,224.9c60.9,0,110.3,38.6,110.3,86.2c0,18.5-7.5,35.6-20.1,49.6l19.3,45l-63.9-16.2  c-13.9,4.9-29.3,7.7-45.6,7.7c-60.9,0-110.3-38.6-110.3-86.2C199.6,263.5,248.9,224.9,309.9,224.9z"/>
<path style="fill:#FFFFFF;" d="M249,75.8c-90.7,0-164.1,57.4-164.1,128.3c0,27.5,11.1,52.9,29.9,73.8l-28.7,67l95.1-24  c20.7,7.3,43.6,11.5,67.8,11.5c90.7,0,164.1-57.4,164.1-128.3C413.1,133.2,339.6,75.8,249,75.8z"/>
<g>
	<path style="fill:#FD8469;" d="M179.3,173.6c-5.9,0-11.1,3-14.2,7.5c-3.1-4.5-8.3-7.5-14.2-7.5c-9.5,0-17.2,7.7-17.2,17.2   c0,22.5,31.4,43.6,31.4,43.6s31.4-21.3,31.4-43.6C196.5,181.3,188.8,173.6,179.3,173.6z"/>
	<path style="fill:#FD8469;" d="M265.5,173.6c-5.9,0-11.1,3-14.2,7.5c-3.1-4.5-8.3-7.5-14.2-7.5c-9.5,0-17.2,7.7-17.2,17.2   c0,22.5,31.4,43.6,31.4,43.6s31.4-21.3,31.4-43.6C282.7,181.3,275,173.6,265.5,173.6z"/>
	<path style="fill:#FD8469;" d="M351.7,173.6c-5.9,0-11.1,3-14.2,7.5c-3.1-4.5-8.3-7.5-14.2-7.5c-9.5,0-17.2,7.7-17.2,17.2   c0,22.5,31.4,43.6,31.4,43.6s31.4-21.3,31.4-43.6C368.9,181.3,361.2,173.6,351.7,173.6z"/>
</g>
<g>
</g>
<g>
</g>
<g>
</g>
<g>
</g>
<g>
</g>
<g>
</g>
<g>
</g>
<g>
</g>
<g>
</g>
<g>
</g>
<g>
</g>
<g>
</g>
<g>
</g>
<g>
</g>
<g>
</g>
</svg>
