<?xml version="1.0" encoding="iso-8859-1"?>
<!-- Generator: Adobe Illustrator 19.0.0, SVG Export Plug-In . SVG Version: 6.00 Build 0)  -->
<svg xmlns="http://www.w3.org/2000/svg" xmlns:xlink="http://www.w3.org/1999/xlink" version="1.1" id="Layer_1" x="0px" y="0px" viewBox="0 0 505 505" style="enable-background:new 0 0 505 505;" xml:space="preserve">
<circle style="fill:#54C0EB;" cx="252.5" cy="252.5" r="252.5"/>
<g>
	<path style="fill:#F1543F;" d="M127.6,168.9c-0.2,0-0.1,0.3,0.3,0.9C127.7,168.9,127.6,168.5,127.6,168.9z"/>
	<path style="fill:#F1543F;" d="M122.2,207.6c-0.2,0,0,0.4,0.5,0.9C122.3,207.6,122.1,207.3,122.2,207.6z"/>
	<path style="fill:#F1543F;" d="M123.1,239c-0.5-0.8-0.7-1.2-0.6-0.8C122.2,238.2,122.5,238.5,123.1,239z"/>
	<path style="fill:#F1543F;" d="M335.5,286.4c11.4-36.4-20.6-74.9-64.1-80.1c-6.6-0.8-12.8-0.8-18.1,0.1c-18.2,3.1-36,6.1-52.3,1.1   c-29.3-9.6-69.5-32.6-73.1-37.8c0.9,5,4.6,27.1,20.3,49.8c-13.3-4.6-23.4-9-25.5-11.1c1.8,4.1,8.5,20.3,23,37.4   c-11.7-2.6-20.5-5.3-22.6-6.9c3.7,5.8,22.7,37.1,59.9,55.5c17.2,10.1,44.1,20.3,70.9,27.6C289.9,331.8,326,316.8,335.5,286.4   L335.5,286.4z"/>
</g>
<path style="fill:#FFD05B;" d="M362.9,153.7c2.1-0.5,88,16.2,88,16.2l-76.5,57.6L362.9,153.7z"/>
<path style="fill:#324A5E;" d="M341.5,118.8C225.5,77.3,227.1,244.5,160.6,294c-20.9,14.6-69.1,28.9-94.3,39.7c0,0,89,55.3,121,52.7  c54.2,0.8,109.1-16.7,146.4-40.9c31.8-20.6,54.2-70.8,59-83.9C418,192.8,394.1,137.6,341.5,118.8z"/>
<g>
	<path style="fill:#FF7058;" d="M86.3,229.5c-0.3,0.1,0,0.4,0.6,0.9C86.4,229.5,86.2,229.1,86.3,229.5z"/>
	<path style="fill:#FF7058;" d="M94.4,271.2c-0.2,0.1,0.1,0.4,0.8,0.7C94.5,271.2,94.2,270.9,94.4,271.2z"/>
	<path style="fill:#FF7058;" d="M106.4,303.1c-0.8-0.7-1.2-0.9-0.9-0.6C105.2,302.6,105.6,302.8,106.4,303.1z"/>
	<path style="fill:#FF7058;" d="M341.4,277c-1.1-41.5-47.6-69.7-94.1-59.7c-7.1,1.5-13.5,3.7-18.6,6.5   c-17.6,9.6-34.9,18.9-53.4,19.6c-33.5,0.4-82.9-9-88.4-13.1c2.7,4.9,14.3,26.3,38.4,44c-15.3-0.1-27.3-1-30.1-2.4   c3.3,3.6,15.9,17.9,36.8,30.3c-12.9,1.4-22.9,1.8-25.7,0.9c5.8,4.7,36.4,30.1,81.1,36c21.2,4.4,52.5,5.4,82.6,3.4   C310.5,339.8,342.3,311.6,341.4,277L341.4,277z"/>
</g>
<circle style="fill:#FFFFFF;" cx="341.3" cy="177.5" r="16.2"/>
<g>
</g>
<g>
</g>
<g>
</g>
<g>
</g>
<g>
</g>
<g>
</g>
<g>
</g>
<g>
</g>
<g>
</g>
<g>
</g>
<g>
</g>
<g>
</g>
<g>
</g>
<g>
</g>
<g>
</g>
</svg>
