<?xml version="1.0" encoding="iso-8859-1"?>
<!-- Generator: Adobe Illustrator 19.0.0, SVG Export Plug-In . SVG Version: 6.00 Build 0)  -->
<svg xmlns="http://www.w3.org/2000/svg" xmlns:xlink="http://www.w3.org/1999/xlink" version="1.1" id="Layer_1" x="0px" y="0px" viewBox="0 0 505 505" style="enable-background:new 0 0 505 505;" xml:space="preserve">
<circle style="fill:#90DFAA;" cx="252.5" cy="252.5" r="252.5"/>
<path style="fill:#E6E9EE;" d="M169.9,162.2v137.5c0,1.5,1.2,2.7,2.7,2.7h245.7c1.5,0,2.7-1.2,2.7-2.7V162.2H169.9z"/>
<path style="fill:#324A5E;" d="M421,162.1v-29.9c0-9.2-7.5-16.7-16.7-16.7H186.6c-9.2,0-16.7,7.5-16.7,16.7v29.9H421z"/>
<g>
	<circle style="fill:#FFD05B;" cx="389.7" cy="138.7" r="8.4"/>
	<circle style="fill:#FFD05B;" cx="360.7" cy="138.7" r="8.4"/>
	<circle style="fill:#FFD05B;" cx="331.6" cy="138.7" r="8.4"/>
</g>
<path style="fill:#FFFFFF;" d="M84,249.2v137.7c0,1.5,1.2,2.7,2.7,2.7h245.7c1.5,0,2.7-1.2,2.7-2.7V249.2H84z"/>
<path style="fill:#324A5E;" d="M335.1,249.2v-29.9c0-9.2-7.5-16.7-16.7-16.7H100.8c-9.2,0-16.7,7.5-16.7,16.7v29.9H335.1z"/>
<g>
	<circle style="fill:#FFD05B;" cx="303.9" cy="225.9" r="8.4"/>
	<circle style="fill:#FFD05B;" cx="274.8" cy="225.9" r="8.4"/>
	<circle style="fill:#FFD05B;" cx="245.7" cy="225.9" r="8.4"/>
</g>
<path style="fill:#ACB3BA;" d="M209.6,271.3c-26.7,0-48.4,21.7-48.4,48.4c0,26.7,21.7,48.4,48.4,48.4s48.4-21.7,48.4-48.4  C257.9,293,236.2,271.3,209.6,271.3z M167.7,322.9h14.1c0.3,7.2,1.3,13.9,3.2,19.8h-10.6C170.6,336.9,168.3,330.2,167.7,322.9z   M212.7,290.4v-12.1c4.6,1.4,8.8,5.8,12,12.1H212.7z M227.4,296.7c2,5.8,3.2,12.6,3.5,19.8h-18.2v-19.8H227.4z M206.4,278.2v12.1  h-12C197.6,284,201.8,279.6,206.4,278.2z M206.4,296.7v19.8h-18.2c0.3-7.2,1.6-14,3.5-19.8H206.4z M181.8,316.5h-14.1  c0.5-7.3,2.9-14,6.7-19.8H185C183.2,302.7,182.1,309.4,181.8,316.5z M188.2,322.9h18.2v19.8h-14.7  C189.7,336.9,188.5,330.1,188.2,322.9z M206.4,349.1v12.1c-4.6-1.4-8.8-5.8-12-12.1H206.4z M212.7,361.2v-12.1h12  C221.6,355.4,217.4,359.8,212.7,361.2z M212.7,342.7v-19.8h18.2c-0.3,7.2-1.6,14-3.5,19.8H212.7z M237.3,322.9h14.1  c-0.5,7.3-2.9,14-6.7,19.8h-10.6C236,336.8,237,330.1,237.3,322.9z M237.3,316.5c-0.3-7.2-1.3-13.9-3.2-19.8h10.6  c3.8,5.8,6.2,12.5,6.7,19.8H237.3z M239.6,290.4h-7.8c-1.5-3.4-3.2-6.4-5.1-9C231.5,283.6,235.9,286.6,239.6,290.4z M192.4,281.4  c-1.9,2.6-3.6,5.6-5.1,9h-7.8C183.2,286.6,187.6,283.6,192.4,281.4z M179.5,349.1h7.8c1.5,3.4,3.2,6.4,5.1,9  C187.6,355.9,183.2,352.8,179.5,349.1z M226.7,358.1c1.9-2.6,3.6-5.6,5.1-9h7.8C235.9,352.8,231.5,355.9,226.7,358.1z"/>
<g>
</g>
<g>
</g>
<g>
</g>
<g>
</g>
<g>
</g>
<g>
</g>
<g>
</g>
<g>
</g>
<g>
</g>
<g>
</g>
<g>
</g>
<g>
</g>
<g>
</g>
<g>
</g>
<g>
</g>
</svg>
