<?xml version="1.0" encoding="iso-8859-1"?>
<!-- Generator: Adobe Illustrator 19.0.0, SVG Export Plug-In . SVG Version: 6.00 Build 0)  -->
<svg xmlns="http://www.w3.org/2000/svg" xmlns:xlink="http://www.w3.org/1999/xlink" version="1.1" id="Layer_1" x="0px" y="0px" viewBox="0 0 505 505" style="enable-background:new 0 0 505 505;" xml:space="preserve">
<circle style="fill:#324A5E;" cx="252.5" cy="252.5" r="252.5"/>
<path style="fill:#FFFFFF;" d="M365.6,124.6v156.9c0,10.5-8.5,18.9-18.9,18.9H207.3l-63.4,53.3v-53.3H116c-10.5,0-19-8.5-19-18.9  V124.6c0-10.5,8.5-18.9,19-18.9h230.6C357.1,105.6,365.6,114.1,365.6,124.6z"/>
<g>
	<circle style="fill:#84DBFF;" cx="303.9" cy="203" r="19.8"/>
	<circle style="fill:#84DBFF;" cx="231.3" cy="203" r="19.8"/>
	<circle style="fill:#84DBFF;" cx="158.7" cy="203" r="19.8"/>
</g>
<g>
	<circle style="fill:#CED5E0;" cx="266.4" cy="312.1" r="13.5"/>
	<circle style="fill:#CED5E0;" cx="316.1" cy="312.1" r="13.5"/>
	<circle style="fill:#CED5E0;" cx="365.8" cy="312.1" r="13.5"/>
</g>
<path style="fill:#FF7058;" d="M395,245.4H237.3c-7.2,0-13,5.8-13,13v107.3c0,7.2,5.8,13,13,13h95.2l43.4,36.4v-36.4H395  c7.2,0,13-5.8,13-13V258.4C408,251.3,402.2,245.4,395,245.4z"/>
<g>
	<path style="fill:#FFFFFF;" d="M283.5,318.4c0,3.3-1.2,5.9-3.6,7.9s-5.5,3-9.2,3c-2.5,0-5.1-0.4-7.7-1.3c-2.7-0.9-5.1-2.2-7.2-3.9   l4.1-5.8c3.5,2.7,7.2,4,11.1,4c1.2,0,2.1-0.2,2.8-0.7c0.7-0.5,1.1-1.1,1.1-1.9s-0.5-1.5-1.5-2.2s-2.4-1.3-4.2-1.9   c-1.8-0.6-3.2-1.1-4.2-1.5s-2.1-1-3.3-1.8c-2.5-1.6-3.8-3.9-3.8-7s1.2-5.6,3.7-7.5s5.7-2.9,9.6-2.9s7.8,1.3,11.8,4l-3.5,6.2   c-2.9-2-5.8-3-8.6-3c-2.9,0-4.3,0.8-4.3,2.4c0,0.9,0.5,1.5,1.4,2s2.4,1.1,4.5,1.7c2.1,0.7,3.6,1.2,4.5,1.5c0.9,0.4,2,0.9,3.2,1.6   C282.3,312.8,283.5,315.1,283.5,318.4z"/>
	<path style="fill:#FFFFFF;" d="M321.2,310.8v18h-9.4v-18.2c0-2.6-0.4-4.6-1.2-5.8c-0.8-1.2-2.1-1.9-3.9-1.9s-3.4,0.7-4.8,2   s-2.1,3.3-2.1,5.9v18h-9.3v-33.3h9.3v3.8c2.6-2.9,5.5-4.3,8.8-4.3c2.1,0,4,0.6,5.7,1.9c1.7,1.2,3,2.7,3.9,4.5c1.3-2,3-3.6,5.2-4.7   s4.3-1.7,6.5-1.7c3.9,0,7.1,1.2,9.5,3.5s3.6,5.7,3.6,10.1v20.2h-9.4v-18.2c0-5.1-1.9-7.7-5.6-7.7c-1.9,0-3.5,0.7-4.8,2   C321.9,306.2,321.2,308.2,321.2,310.8z"/>
	<path style="fill:#FFFFFF;" d="M376.6,318.4c0,3.3-1.2,5.9-3.6,7.9s-5.5,3-9.2,3c-2.5,0-5.1-0.4-7.7-1.3c-2.7-0.9-5.1-2.2-7.2-3.9   l4.1-5.8c3.5,2.7,7.2,4,11.1,4c1.2,0,2.1-0.2,2.8-0.7c0.7-0.5,1.1-1.1,1.1-1.9s-0.5-1.5-1.5-2.2s-2.4-1.3-4.2-1.9   c-1.8-0.6-3.2-1.1-4.2-1.5s-2.1-1-3.3-1.8c-2.5-1.6-3.8-3.9-3.8-7s1.2-5.6,3.7-7.5s5.7-2.9,9.6-2.9s7.8,1.3,11.8,4l-3.5,6.2   c-2.9-2-5.8-3-8.6-3c-2.9,0-4.3,0.8-4.3,2.4c0,0.9,0.5,1.5,1.4,2s2.4,1.1,4.5,1.7c2.1,0.7,3.6,1.2,4.5,1.5s2,0.9,3.2,1.6   C375.4,312.8,376.6,315.1,376.6,318.4z"/>
</g>
<g>
</g>
<g>
</g>
<g>
</g>
<g>
</g>
<g>
</g>
<g>
</g>
<g>
</g>
<g>
</g>
<g>
</g>
<g>
</g>
<g>
</g>
<g>
</g>
<g>
</g>
<g>
</g>
<g>
</g>
</svg>
