<?xml version="1.0" encoding="iso-8859-1"?>
<!-- Generator: Adobe Illustrator 19.0.0, SVG Export Plug-In . SVG Version: 6.00 Build 0)  -->
<svg xmlns="http://www.w3.org/2000/svg" xmlns:xlink="http://www.w3.org/1999/xlink" version="1.1" id="Layer_1" x="0px" y="0px" viewBox="0 0 505 505" style="enable-background:new 0 0 505 505;" xml:space="preserve">
<circle style="fill:#90DFAA;" cx="252.5" cy="252.5" r="252.5"/>
<rect x="235.2" y="355" style="fill:#2B3B4E;" width="34.6" height="47.7"/>
<path style="fill:#324A5E;" d="M252.5,364c-57.9,0-105-47.1-105-105v-70c0-4.6,3.7-8.4,8.4-8.4h193.2c4.6,0,8.4,3.7,8.4,8.4v70  C357.5,316.9,310.4,364,252.5,364z M164.2,197.3v61.6c0,48.7,39.6,88.3,88.3,88.3s88.3-39.6,88.3-88.3v-61.6L164.2,197.3  L164.2,197.3z"/>
<path style="fill:#FFFFFF;" d="M252.9,308.3L252.9,308.3c-35.5,0-64.2-28.7-64.2-64.2v-127c0-35.5,28.7-64.2,64.2-64.2l0,0  c35.5,0,64.2,28.7,64.2,64.2V244C317.1,279.5,288.4,308.3,252.9,308.3z"/>
<path style="fill:#E6E9EE;" d="M188.7,183.7V244c0,35.5,28.7,64.2,64.2,64.2s64.2-28.7,64.2-64.2v-60.3L188.7,183.7L188.7,183.7z"/>
<path style="fill:#CED5E0;" d="M309.9,211.4h-114c-12.2,0-22.1-9.9-22.1-22.1l0,0c0-12.2,9.9-22.1,22.1-22.1h114  c12.2,0,22.1,9.9,22.1,22.1l0,0C332,201.5,322.1,211.4,309.9,211.4z"/>
<g>
	<circle style="fill:#E6E9EE;" cx="286.7" cy="115.9" r="11.9"/>
	<circle style="fill:#E6E9EE;" cx="252.9" cy="115.9" r="11.9"/>
	<circle style="fill:#E6E9EE;" cx="219.2" cy="115.9" r="11.9"/>
	<circle style="fill:#E6E9EE;" cx="269.8" cy="81.4" r="11.9"/>
	<circle style="fill:#E6E9EE;" cx="236.1" cy="81.4" r="11.9"/>
</g>
<path style="fill:#324A5E;" d="M285.5,402.7h-66c-16.9,0-30.6,13.7-30.6,30.6l0,0h127.3l0,0C316.2,416.4,302.5,402.7,285.5,402.7z"/>
<g>
</g>
<g>
</g>
<g>
</g>
<g>
</g>
<g>
</g>
<g>
</g>
<g>
</g>
<g>
</g>
<g>
</g>
<g>
</g>
<g>
</g>
<g>
</g>
<g>
</g>
<g>
</g>
<g>
</g>
</svg>
