<?xml version="1.0" encoding="iso-8859-1"?>
<!-- Generator: Adobe Illustrator 19.0.0, SVG Export Plug-In . SVG Version: 6.00 Build 0)  -->
<svg xmlns="http://www.w3.org/2000/svg" xmlns:xlink="http://www.w3.org/1999/xlink" version="1.1" id="Layer_1" x="0px" y="0px" viewBox="0 0 505 505" style="enable-background:new 0 0 505 505;" xml:space="preserve">
<circle style="fill:#FFD05B;" cx="252.5" cy="252.5" r="252.5"/>
<path style="fill:#F9B54C;" d="M6.7,310.2C32.8,421.8,132.9,505,252.5,505s219.7-83.2,245.8-194.8H6.7z"/>
<rect x="196.6" y="260.1" style="fill:#2B3B4E;" width="108" height="52.2"/>
<path style="fill:#324A5E;" d="M324.6,299.4h-148c-2.1,0-3.7,1.7-3.7,3.7v24h155.5v-24C328.4,301,326.7,299.4,324.6,299.4z"/>
<path style="fill:#FFFFFF;" d="M405.5,430.5h-306c-5.4,0-7.6-4.3-5.1-9.5l31.1-62.8c1.6-3.2,6.2-5.8,10.3-5.8h233.3  c4.1,0,8.7,2.6,10.3,5.8l31.1,62.8C413.1,426.2,410.9,430.5,405.5,430.5z"/>
<g>
	<polygon style="fill:#E6E9EE;" points="162.8,367.3 139.9,367.3 143.7,358.4 165.9,358.4  "/>
	<polygon style="fill:#E6E9EE;" points="203.3,367.3 180.3,367.3 182.8,358.4 205,358.4  "/>
	<polygon style="fill:#E6E9EE;" points="243.7,367.3 220.8,367.3 221.9,358.4 244,358.4  "/>
	<polygon style="fill:#E6E9EE;" points="284.2,367.3 261.3,367.3 261,358.4 283.1,358.4  "/>
	<polygon style="fill:#E6E9EE;" points="200.4,383 133.2,383 137.5,373 202.2,373  "/>
	<polygon style="fill:#E6E9EE;" points="243.2,383 218.9,383 220.1,373 243.6,373  "/>
	<polygon style="fill:#E6E9EE;" points="286.1,383 261.8,383 261.4,373 284.9,373  "/>
	<polygon style="fill:#E6E9EE;" points="328.9,383 304.6,383 302.8,373 326.2,373  "/>
	<polygon style="fill:#E6E9EE;" points="371.8,383 347.5,383 344.1,373 367.5,373  "/>
	<polygon style="fill:#E6E9EE;" points="324.7,367.3 301.7,367.3 300,358.4 322.2,358.4  "/>
	<polygon style="fill:#E6E9EE;" points="365.1,367.3 342.2,367.3 339.1,358.4 361.3,358.4  "/>
	<polygon style="fill:#E6E9EE;" points="151.6,400.7 125.7,400.7 130.5,389.4 155.4,389.4  "/>
	<polygon style="fill:#E6E9EE;" points="197.1,400.7 171.3,400.7 174.3,389.4 199.2,389.4  "/>
	<polygon style="fill:#E6E9EE;" points="242.6,400.7 216.8,400.7 218.2,389.4 243,389.4  "/>
	<polygon style="fill:#E6E9EE;" points="288.2,400.7 262.4,400.7 262,389.4 286.8,389.4  "/>
	<polygon style="fill:#E6E9EE;" points="333.7,400.7 307.9,400.7 305.8,389.4 330.7,389.4  "/>
	<polygon style="fill:#E6E9EE;" points="144.8,420.7 117.2,420.7 122.7,407.9 149.1,407.9  "/>
	<polygon style="fill:#E6E9EE;" points="290.6,420.7 165.8,420.7 169.3,407.9 289,407.9  "/>
	<polygon style="fill:#E6E9EE;" points="339.2,420.7 311.6,420.7 309.2,407.9 335.7,407.9  "/>
	<polygon style="fill:#E6E9EE;" points="387.8,420.7 360.2,420.7 349.6,389.4 374.5,389.4  "/>
</g>
<path style="fill:#324A5E;" d="M103.5,238.4v36.5c0,1.2,1,2.1,2.1,2.1h293.7c1.2,0,2.1-1,2.1-2.1v-36.5H103.5z"/>
<path style="fill:#FFFFFF;" d="M401.5,239V103.5c0-7.4-6-13.4-13.4-13.4H116.9c-7.4,0-13.4,6-13.4,13.4V239H401.5z"/>
<rect x="120.9" y="107.5" style="fill:#54C0EB;" width="263.3" height="131.8"/>
<g>
</g>
<g>
</g>
<g>
</g>
<g>
</g>
<g>
</g>
<g>
</g>
<g>
</g>
<g>
</g>
<g>
</g>
<g>
</g>
<g>
</g>
<g>
</g>
<g>
</g>
<g>
</g>
<g>
</g>
</svg>
