<?xml version="1.0" encoding="iso-8859-1"?>
<!-- Generator: Adobe Illustrator 19.0.0, SVG Export Plug-In . SVG Version: 6.00 Build 0)  -->
<svg xmlns="http://www.w3.org/2000/svg" xmlns:xlink="http://www.w3.org/1999/xlink" version="1.1" id="Layer_1" x="0px" y="0px" viewBox="0 0 505 505" style="enable-background:new 0 0 505 505;" xml:space="preserve">
<circle style="fill:#FD8469;" cx="252.5" cy="252.5" r="252.5"/>
<path style="fill:#324A5E;" d="M393,405.9H112c-1.7,0-3.1-1.4-3.1-3.1v-245c0-1.7,1.4-3.1,3.1-3.1h281c1.7,0,3.1,1.4,3.1,3.1v245  C396.1,404.5,394.7,405.9,393,405.9z"/>
<path style="fill:#ACB3BA;" d="M207.6,378.9h-75.3c-1.4,0-2.5-1.1-2.5-2.5V136.5c0-1.4,1.1-2.5,2.5-2.5h75.3c1.4,0,2.5,1.1,2.5,2.5  v240C210.1,377.8,209,378.9,207.6,378.9z"/>
<g>
	<ellipse style="fill:#E6E9EE;" cx="345.5" cy="285.2" rx="15" ry="12.9"/>
	<ellipse style="fill:#E6E9EE;" cx="302.8" cy="285.2" rx="15" ry="12.9"/>
	<ellipse style="fill:#E6E9EE;" cx="260.1" cy="285.2" rx="15" ry="12.9"/>
	<ellipse style="fill:#E6E9EE;" cx="345.5" cy="325.6" rx="15" ry="12.9"/>
	<ellipse style="fill:#E6E9EE;" cx="302.8" cy="325.6" rx="15" ry="12.9"/>
	<ellipse style="fill:#E6E9EE;" cx="260.1" cy="325.6" rx="15" ry="12.9"/>
	<ellipse style="fill:#E6E9EE;" cx="345.5" cy="366" rx="15" ry="12.9"/>
	<ellipse style="fill:#E6E9EE;" cx="302.8" cy="366" rx="15" ry="12.9"/>
	<ellipse style="fill:#E6E9EE;" cx="260.1" cy="366" rx="15" ry="12.9"/>
</g>
<rect x="233.9" y="204.4" style="fill:#84DBFF;" width="137.8" height="50.2"/>
<rect x="242.3" y="99.1" style="fill:#FFFFFF;" width="121.1" height="81.1"/>
<g>
	<polygon style="fill:#54C0EB;" points="299.5,254.6 287.8,254.6 324.7,204.4 336.4,204.4  "/>
	<polygon style="fill:#54C0EB;" points="271.8,254.6 267.3,254.6 304.1,204.4 308.7,204.4  "/>
</g>
<g>
	<rect x="253.5" y="113.1" style="fill:#E6E9EE;" width="98.7" height="9.6"/>
	<rect x="253.5" y="134.9" style="fill:#E6E9EE;" width="98.7" height="9.6"/>
	<rect x="253.5" y="156.6" style="fill:#E6E9EE;" width="37" height="9.6"/>
</g>
<g>
</g>
<g>
</g>
<g>
</g>
<g>
</g>
<g>
</g>
<g>
</g>
<g>
</g>
<g>
</g>
<g>
</g>
<g>
</g>
<g>
</g>
<g>
</g>
<g>
</g>
<g>
</g>
<g>
</g>
</svg>
