<?xml version="1.0" encoding="iso-8859-1"?>
<!-- Generator: Adobe Illustrator 19.0.0, SVG Export Plug-In . SVG Version: 6.00 Build 0)  -->
<svg xmlns="http://www.w3.org/2000/svg" xmlns:xlink="http://www.w3.org/1999/xlink" version="1.1" id="Layer_1" x="0px" y="0px" viewBox="0 0 505 505" style="enable-background:new 0 0 505 505;" xml:space="preserve">
<circle style="fill:#FD8469;" cx="252.5" cy="252.5" r="252.5"/>
<path style="fill:#2B3B4E;" d="M258.6,243.7h-12.2v-78c0-3.4,2.7-6.1,6.1-6.1l0,0c3.4,0,6.1,2.7,6.1,6.1V243.7z"/>
<path style="fill:#324A5E;" d="M266.8,332.4h-28.7v-103c0-7.9,6.4-14.3,14.3-14.3l0,0c7.9,0,14.3,6.4,14.3,14.3v103H266.8z"/>
<g>
	<path style="fill:#FFFFFF;" d="M226,194.7c-1.5,0-3-0.6-4.2-1.7c-16.9-16.9-16.9-44.5,0-61.4c2.3-2.3,6.1-2.3,8.4,0   c2.3,2.3,2.3,6.1,0,8.4c-12.3,12.3-12.3,32.3,0,44.7c2.3,2.3,2.3,6.1,0,8.4C229,194.1,227.5,194.7,226,194.7z"/>
	<path style="fill:#FFFFFF;" d="M279,194.7c-1.5,0-3-0.6-4.2-1.7c-2.3-2.3-2.3-6.1,0-8.4c12.3-12.3,12.3-32.3,0-44.7   c-2.3-2.3-2.3-6.1,0-8.4c2.3-2.3,6.1-2.3,8.4,0c16.9,16.9,16.9,44.5,0,61.4C282,194.1,280.5,194.7,279,194.7z"/>
	<path style="fill:#FFFFFF;" d="M205.3,215.4c-1.5,0-3-0.6-4.2-1.7c-13.7-13.7-21.3-32-21.3-51.4s7.6-37.7,21.3-51.4   c2.3-2.3,6.1-2.3,8.4,0c2.3,2.3,2.3,6.1,0,8.4c-11.5,11.5-17.8,26.8-17.8,43.1s6.3,31.6,17.8,43.1c2.3,2.3,2.3,6.1,0,8.4   C208.3,214.8,206.8,215.4,205.3,215.4z"/>
	<path style="fill:#FFFFFF;" d="M299.7,215.4c-1.5,0-3-0.6-4.2-1.7c-2.3-2.3-2.3-6.1,0-8.4c11.5-11.5,17.8-26.8,17.8-43.1   s-6.3-31.6-17.8-43.1c-2.3-2.3-2.3-6.1,0-8.4s6.1-2.3,8.4,0c13.7,13.7,21.3,32,21.3,51.4s-7.6,37.7-21.3,51.4   C302.8,214.8,301.3,215.4,299.7,215.4z"/>
	<path style="fill:#FFFFFF;" d="M320.2,235.9c-1.5,0-3-0.6-4.2-1.7c-2.3-2.3-2.3-6.1,0-8.4c35-35,35-92.1,0-127.1   c-2.3-2.3-2.3-6.1,0-8.4s6.1-2.3,8.4,0c39.6,39.7,39.6,104.2,0,143.8C323.3,235.3,321.7,235.9,320.2,235.9z"/>
	<path style="fill:#FFFFFF;" d="M184.8,235.9c-1.5,0-3-0.6-4.2-1.7C141,194.5,141,130,180.6,90.4c2.3-2.3,6.1-2.3,8.4,0   c2.3,2.3,2.3,6.1,0,8.4c-35,35-35,92.1,0,127.1c2.3,2.3,2.3,6.1,0,8.4C187.8,235.3,186.3,235.9,184.8,235.9z"/>
</g>
<circle style="fill:#E6E9EE;" cx="252.5" cy="162.3" r="15.7"/>
<g>
	<polygon style="fill:#324A5E;" points="389.6,390.6 350.3,390.6 355.1,412 384.8,412  "/>
	<polygon style="fill:#324A5E;" points="154.7,390.6 115.4,390.6 120.2,412 149.9,412  "/>
</g>
<path style="fill:#FFFFFF;" d="M413.5,395.7h-322c-1.5,0-2.7-1.2-2.7-2.7v-91.5c0-1.5,1.2-2.7,2.7-2.7h322c1.5,0,2.7,1.2,2.7,2.7  V393C416.2,394.5,415,395.7,413.5,395.7z"/>
<rect x="88.8" y="323" style="fill:#E6E9EE;" width="327.5" height="48.5"/>
<circle style="fill:#FF7058;" cx="122.7" cy="347.3" r="14.9"/>
<circle style="fill:#FFD05B;" cx="164.4" cy="347.3" r="14.9"/>
<circle style="fill:#54C0EB;" cx="206.2" cy="347.3" r="14.9"/>
<g>
</g>
<g>
</g>
<g>
</g>
<g>
</g>
<g>
</g>
<g>
</g>
<g>
</g>
<g>
</g>
<g>
</g>
<g>
</g>
<g>
</g>
<g>
</g>
<g>
</g>
<g>
</g>
<g>
</g>
</svg>
