<?xml version="1.0" encoding="iso-8859-1"?>
<!-- Generator: Adobe Illustrator 19.0.0, SVG Export Plug-In . SVG Version: 6.00 Build 0)  -->
<svg xmlns="http://www.w3.org/2000/svg" xmlns:xlink="http://www.w3.org/1999/xlink" version="1.1" id="Layer_1" x="0px" y="0px" viewBox="0 0 505 505" style="enable-background:new 0 0 505 505;" xml:space="preserve">
<circle style="fill:#FFD05B;" cx="252.5" cy="252.5" r="252.5"/>
<path style="fill:#FF7058;" d="M375,406.6H130c-20.1,0-36.3-16.3-36.3-36.3V218.8c0-20.1,16.3-36.3,36.3-36.3h244.9  c20.1,0,36.3,16.3,36.3,36.3v151.5C411.3,390.3,395,406.6,375,406.6z"/>
<path style="fill:#F1543F;" d="M400.8,395.8c-6.5,6.6-15.7,10.8-25.8,10.8H130c-10.1,0-19.2-4.1-25.8-10.8l101.3-101.2l47-47l47,47  L400.8,395.8z"/>
<path style="fill:#E6E9EE;" d="M400.8,193.3L299.5,294.6l-21.3,21.3c-14.2,14.2-37.2,14.2-51.3,0l-21.4-21.3L104.2,193.3  c6.5-6.6,15.7-10.8,25.8-10.8h245.1C385.1,182.5,394.3,186.6,400.8,193.3z"/>
<polygon style="fill:#324A5E;" points="273.4,143.5 270.1,82.2 234.9,82.2 231.6,143.5 199.9,143.5 252.5,225 305.1,143.5 "/>
<g>
</g>
<g>
</g>
<g>
</g>
<g>
</g>
<g>
</g>
<g>
</g>
<g>
</g>
<g>
</g>
<g>
</g>
<g>
</g>
<g>
</g>
<g>
</g>
<g>
</g>
<g>
</g>
<g>
</g>
</svg>
