<?xml version="1.0" encoding="iso-8859-1"?>
<!-- Generator: Adobe Illustrator 19.0.0, SVG Export Plug-In . SVG Version: 6.00 Build 0)  -->
<svg xmlns="http://www.w3.org/2000/svg" xmlns:xlink="http://www.w3.org/1999/xlink" version="1.1" id="Layer_1" x="0px" y="0px" viewBox="0 0 505 505" style="enable-background:new 0 0 505 505;" xml:space="preserve">
<path style="fill:#84DBFF;" d="M505,252.55c0,129.7-97.8,236.5-223.6,250.8c-5.4,0.6-10.8,1.1-16.4,1.3c-4.1,0.2-8.3,0.3-12.5,0.3  c-7.7,0-15.3-0.4-22.9-1.1c-5.2-0.4-10.4-1.1-15.5-1.9c-10.9-1.7-21.6-4-32-7.1c-5.2-1.5-10.4-3.2-15.5-5  C69.4,454.85,0,361.85,0,252.55C0,113.05,113.1,0.05,252.5,0.05C392,0.05,505,113.05,505,252.55z"/>
<path style="fill:#2B3B4E;" d="M235.5,385.75l-1.3,27.3l-4.5,91c-5.2-0.4-10.4-1.1-15.5-1.9l-4.4-89.1l-1.3-27.3H235.5z"/>
<g>
	<path style="fill:#324A5E;" d="M281.4,503.35c-5.4,0.6-10.8,1.1-16.4,1.3l-30.9-91.7l-9.2-27.3l-0.8-2.4h19.7L281.4,503.35z"/>
	<path style="fill:#324A5E;" d="M219.6,383.35l-0.8,2.4l-9.2,27.3l-27.6,82.1c-5.2-1.5-10.4-3.2-15.5-5l33.3-106.7h19.8V383.35z"/>
</g>
<g>
	<path style="fill:#2B3B4E;" d="M171,367.65v23.6c0,8.6,7,15.5,15.5,15.5h70.6c8.6,0,15.5-7,15.5-15.5v-23.6H171z"/>
	<rect x="312.3" y="254.15" style="fill:#2B3B4E;" width="50" height="77.8"/>
</g>
<g>
	<polygon style="fill:#324A5E;" points="428,223.15 362.3,254.15 362.3,331.95 428,362.85  "/>
	<path style="fill:#324A5E;" d="M327.9,375.15H115.8c-2.5,0-4.6-2-4.6-4.6v-161.7c0-2.5,2-4.6,4.6-4.6h212.1c2.5,0,4.6,2,4.6,4.6   v161.7C332.5,373.05,330.5,375.15,327.9,375.15z"/>
</g>
<circle style="fill:#FFFFFF;" cx="282.8" cy="157.95" r="73.7"/>
<circle style="fill:#E6E9EE;" cx="282.8" cy="157.95" r="23.2"/>
<circle style="fill:#FFFFFF;" cx="148.1" cy="170.75" r="60.9"/>
<circle style="fill:#E6E9EE;" cx="148.1" cy="170.75" r="19.1"/>
<g>
</g>
<g>
</g>
<g>
</g>
<g>
</g>
<g>
</g>
<g>
</g>
<g>
</g>
<g>
</g>
<g>
</g>
<g>
</g>
<g>
</g>
<g>
</g>
<g>
</g>
<g>
</g>
<g>
</g>
</svg>
