<?xml version="1.0" encoding="iso-8859-1"?>
<!-- Generator: Adobe Illustrator 19.0.0, SVG Export Plug-In . SVG Version: 6.00 Build 0)  -->
<svg xmlns="http://www.w3.org/2000/svg" xmlns:xlink="http://www.w3.org/1999/xlink" version="1.1" id="Layer_1" x="0px" y="0px" viewBox="0 0 505 505" style="enable-background:new 0 0 505 505;" xml:space="preserve">
<circle style="fill:#324A5E;" cx="252.5" cy="252.5" r="252.5"/>
<rect x="134.7" y="139.2" style="fill:#CED5E0;" width="235.6" height="227.8"/>
<g>
	<path style="fill:#E6E9EE;" d="M382.3,192.1H122.7c-2.1,0-3.8-1.7-3.8-3.8v-64c0-2.1,1.7-3.8,3.8-3.8h259.6c2.1,0,3.8,1.7,3.8,3.8   v64C386.1,190.4,384.4,192.1,382.3,192.1z"/>
	<path style="fill:#E6E9EE;" d="M382.3,288.2H122.7c-2.1,0-3.8-1.7-3.8-3.8v-64c0-2.1,1.7-3.8,3.8-3.8h259.6c2.1,0,3.8,1.7,3.8,3.8   v64C386.1,286.6,384.4,288.2,382.3,288.2z"/>
	<path style="fill:#E6E9EE;" d="M382.3,384.4H122.7c-2.1,0-3.8-1.7-3.8-3.8v-64c0-2.1,1.7-3.8,3.8-3.8h259.6c2.1,0,3.8,1.7,3.8,3.8   v64C386.1,382.7,384.4,384.4,382.3,384.4z"/>
</g>
<circle style="fill:#FF7058;" cx="153.3" cy="156.4" r="13.9"/>
<circle style="fill:#324A5E;" cx="193.6" cy="156.4" r="13.9"/>
<circle style="fill:#4CDBC4;" cx="234" cy="156.4" r="13.9"/>
<circle style="fill:#FF7058;" cx="153.3" cy="253.1" r="13.9"/>
<circle style="fill:#324A5E;" cx="193.6" cy="253.1" r="13.9"/>
<circle style="fill:#4CDBC4;" cx="234" cy="253.1" r="13.9"/>
<circle style="fill:#FF7058;" cx="153.3" cy="349.8" r="13.9"/>
<circle style="fill:#324A5E;" cx="193.6" cy="349.8" r="13.9"/>
<circle style="fill:#4CDBC4;" cx="234" cy="349.8" r="13.9"/>
<g>
</g>
<g>
</g>
<g>
</g>
<g>
</g>
<g>
</g>
<g>
</g>
<g>
</g>
<g>
</g>
<g>
</g>
<g>
</g>
<g>
</g>
<g>
</g>
<g>
</g>
<g>
</g>
<g>
</g>
</svg>
