<?xml version="1.0" encoding="iso-8859-1"?>
<!-- Generator: Adobe Illustrator 19.0.0, SVG Export Plug-In . SVG Version: 6.00 Build 0)  -->
<svg xmlns="http://www.w3.org/2000/svg" xmlns:xlink="http://www.w3.org/1999/xlink" version="1.1" id="Layer_1" x="0px" y="0px" viewBox="0 0 505 505" style="enable-background:new 0 0 505 505;" xml:space="preserve">
<circle style="fill:#90DFAA;" cx="252.5" cy="252.5" r="252.5"/>
<path style="fill:#2B3B4E;" d="M119.2,222l-14.1-9.3l42.1-64.2c7-10.7,18.9-17.1,31.7-17.1h94.8v16.9h-94.8  c-7.1,0-13.7,3.5-17.6,9.5L119.2,222z"/>
<path style="fill:#FFFFFF;" d="M417.6,210.4c-23.5,0-44.4,10.6-58.4,27.3v97.9c14,16.7,35,27.3,58.4,27.3c9.1,0,17.8-1.7,25.9-4.6  V215C435.4,212.1,426.7,210.4,417.6,210.4z"/>
<rect x="273.8" y="237.7" style="fill:#2B3B4E;" width="85.4" height="98"/>
<path style="fill:#324A5E;" d="M314.5,377.2H67c-3,0-5.5-2.5-5.5-5.5V201.5c0-3,2.5-5.5,5.5-5.5h247.5c3,0,5.5,2.5,5.5,5.5v170.2  C319.9,374.8,317.5,377.2,314.5,377.2z"/>
<circle style="fill:#4CDBC4;" cx="279.7" cy="233.7" r="14"/>
<circle style="fill:#FF7058;" cx="233.3" cy="233.7" r="14"/>
<path style="fill:#E6E9EE;" d="M324.9,161.4h-62.5c-11.5,0-20.8-9.3-20.8-20.8l0,0c0-11.5,9.3-20.8,20.8-20.8h62.5  c11.5,0,20.8,9.3,20.8,20.8l0,0C345.7,152.1,336.4,161.4,324.9,161.4z"/>
<rect x="88.5" y="275" style="fill:#2B3B4E;" width="127.7" height="76.4"/>
<g>
</g>
<g>
</g>
<g>
</g>
<g>
</g>
<g>
</g>
<g>
</g>
<g>
</g>
<g>
</g>
<g>
</g>
<g>
</g>
<g>
</g>
<g>
</g>
<g>
</g>
<g>
</g>
<g>
</g>
</svg>
