<?xml version="1.0" encoding="iso-8859-1"?>
<!-- Generator: Adobe Illustrator 19.0.0, SVG Export Plug-In . SVG Version: 6.00 Build 0)  -->
<svg xmlns="http://www.w3.org/2000/svg" xmlns:xlink="http://www.w3.org/1999/xlink" version="1.1" id="Layer_1" x="0px" y="0px" viewBox="0 0 505 505" style="enable-background:new 0 0 505 505;" xml:space="preserve">
<circle style="fill:#324A5E;" cx="252.5" cy="252.5" r="252.5"/>
<path style="fill:#FF7058;" d="M208.1,86.3c-5-3.5-11.8-2.2-15.3,2.8c-2.7,3.9-2.5,8.9,0.1,12.6l-12.1,17.5l6.2,4.3l12.1-17.5  c4.3,1.1,9.1-0.5,11.8-4.3C214.4,96.6,213.1,89.7,208.1,86.3z"/>
<path style="fill:#54C0EB;" d="M140.9,84.5c-17.1,25.5-10.6,60.1,14.8,77.6c25.3,17.5,60,11.5,77.8-13.5L140.9,84.5z"/>
<path style="fill:#E6E9EE;" d="M86.8,163.6h229.1c6.8,0,13.1,3.6,16.5,9.4l37.5,64.2c2.2,3.7,5.6,6.6,9.6,8.2l45.5,21  c7.4,2.8,12.2,9.9,12.2,17.8v57.3c0,10.5-8.5,19.1-19.1,19.1H86.8c-10.5,0-19.1-8.5-19.1-19.1V182.7  C67.7,172.2,76.3,163.6,86.8,163.6z"/>
<path style="fill:#ACB3BA;" d="M67.7,317.7v23.8c0,10.5,8.5,19.1,19.1,19.1h331.3c10.5,0,19.1-8.5,19.1-19.1v-23.8H67.7z"/>
<path style="fill:#54C0EB;" d="M260.1,242.9h85.1c4.6,0,7.5-5,5.2-9L321,183.7c-1.7-3-4.9-4.8-8.4-4.8h-52.4c-3.3,0-6,2.7-6,6V237  C254.1,240.3,256.8,242.9,260.1,242.9z"/>
<circle style="fill:#2B3B4E;" cx="364.5" cy="369.4" r="37.5"/>
<circle style="fill:#FFFFFF;" cx="364.5" cy="369.4" r="21.6"/>
<circle style="fill:#2B3B4E;" cx="137.7" cy="369.4" r="37.5"/>
<circle style="fill:#FFFFFF;" cx="137.7" cy="369.4" r="21.6"/>
<rect x="254.1" y="257.5" style="fill:#ACB3BA;" width="25.9" height="9.1"/>
<g>
	<path style="fill:#FF7058;" d="M105.9,251.6l6.8-3.6l16.2,30.6l-6.8,3.6l-24.7-11.5l10.1,19.2l-6.8,3.6L84.5,263l6.4-3.4l25.5,11.8   L105.9,251.6z"/>
	<path style="fill:#FF7058;" d="M142.4,232.4l3.2,6.1l-15.2,8.1l3.3,6.3l13.7-7.2l3.1,5.8l-13.7,7.2l3.4,6.4l15.7-8.3l3.2,6   l-22.6,11.9l-16.2-30.6L142.4,232.4z"/>
	<path style="fill:#FF7058;" d="M167.8,241.5l-3.9-20.5l7.1-3.8l14.7,14.8l-3.2-20.8l7.4-3.9l5.6,36.2l-5.1,2.7l-18-17.8l4.6,24.8   l-5.1,2.7l-26.9-25l7.4-3.9L167.8,241.5z"/>
	<path style="fill:#FF7058;" d="M203.8,207.7c-0.4,0.9-0.3,1.8,0.1,2.7c0.5,0.9,1.2,1.4,2.3,1.5s3.3-0.3,6.6-1.1s6.1-0.9,8.5-0.4   c2.4,0.6,4.3,2.2,5.7,5c1.5,2.7,1.6,5.5,0.4,8.3c-1.2,2.8-3.4,5.1-6.8,6.9c-4.8,2.6-10.2,3.1-15.9,1.5l1.4-7.2   c4.8,1.1,8.6,1,11.4-0.5c1.3-0.7,2.1-1.5,2.5-2.4s0.4-1.8-0.1-2.8c-0.5-0.9-1.3-1.4-2.3-1.6c-1-0.1-2.8,0.1-5.4,0.7   c-4,1-7.2,1.3-9.6,0.8c-2.4-0.5-4.3-2.2-5.9-5.1c-1.5-2.9-1.7-5.7-0.4-8.4s3.4-4.8,6.6-6.5c2-1.1,4.3-1.8,6.7-2.2s4.7-0.3,6.9,0.2   l-0.8,6.8c-3.7-0.6-7-0.2-9.8,1.3C204.9,206.1,204.2,206.9,203.8,207.7z"/>
</g>
<g>
</g>
<g>
</g>
<g>
</g>
<g>
</g>
<g>
</g>
<g>
</g>
<g>
</g>
<g>
</g>
<g>
</g>
<g>
</g>
<g>
</g>
<g>
</g>
<g>
</g>
<g>
</g>
<g>
</g>
</svg>
