<?xml version="1.0" encoding="iso-8859-1"?>
<!-- Generator: Adobe Illustrator 19.0.0, SVG Export Plug-In . SVG Version: 6.00 Build 0)  -->
<svg xmlns="http://www.w3.org/2000/svg" xmlns:xlink="http://www.w3.org/1999/xlink" version="1.1" id="Layer_1" x="0px" y="0px" viewBox="0 0 505 505" style="enable-background:new 0 0 505 505;" xml:space="preserve">
<circle style="fill:#90DFAA;" cx="252.5" cy="252.5" r="252.5"/>
<path style="fill:#324A5E;" d="M358.3,417.4H146.7c-1.3,0-2.4-1.1-2.4-2.4V90c0-1.3,1.1-2.4,2.4-2.4h211.7c1.3,0,2.4,1.1,2.4,2.4  v324.9C360.8,416.3,359.7,417.4,358.3,417.4z"/>
<rect x="165.9" y="126.7" style="fill:#84DBFF;" width="173.2" height="170.9"/>
<g>
	<path style="fill:#ACB3BA;" d="M213.7,336.3h-47c-0.4,0-0.8-0.4-0.8-0.8v-19c0-0.4,0.4-0.8,0.8-0.8h47c0.4,0,0.8,0.4,0.8,0.8v19   C214.5,335.9,214.2,336.3,213.7,336.3z"/>
	<path style="fill:#ACB3BA;" d="M276,336.3h-47c-0.4,0-0.8-0.4-0.8-0.8v-19c0-0.4,0.4-0.8,0.8-0.8h47c0.4,0,0.8,0.4,0.8,0.8v19   C276.8,335.9,276.4,336.3,276,336.3z"/>
	<path style="fill:#ACB3BA;" d="M338.3,336.3h-47c-0.4,0-0.8-0.4-0.8-0.8v-19c0-0.4,0.4-0.8,0.8-0.8h47c0.4,0,0.8,0.4,0.8,0.8v19   C339.1,335.9,338.7,336.3,338.3,336.3z"/>
	<path style="fill:#ACB3BA;" d="M213.7,367.1h-47c-0.4,0-0.8-0.4-0.8-0.8v-19c0-0.4,0.4-0.8,0.8-0.8h47c0.4,0,0.8,0.4,0.8,0.8v19   C214.5,366.7,214.2,367.1,213.7,367.1z"/>
	<path style="fill:#ACB3BA;" d="M276,367.1h-47c-0.4,0-0.8-0.4-0.8-0.8v-19c0-0.4,0.4-0.8,0.8-0.8h47c0.4,0,0.8,0.4,0.8,0.8v19   C276.8,366.7,276.4,367.1,276,367.1z"/>
	<path style="fill:#ACB3BA;" d="M338.3,367.1h-47c-0.4,0-0.8-0.4-0.8-0.8v-19c0-0.4,0.4-0.8,0.8-0.8h47c0.4,0,0.8,0.4,0.8,0.8v19   C339.1,366.7,338.7,367.1,338.3,367.1z"/>
	<path style="fill:#ACB3BA;" d="M213.7,397.9h-47c-0.4,0-0.8-0.4-0.8-0.8v-19c0-0.4,0.4-0.8,0.8-0.8h47c0.4,0,0.8,0.4,0.8,0.8v19   C214.5,397.5,214.2,397.9,213.7,397.9z"/>
	<path style="fill:#ACB3BA;" d="M276,397.9h-47c-0.4,0-0.8-0.4-0.8-0.8v-19c0-0.4,0.4-0.8,0.8-0.8h47c0.4,0,0.8,0.4,0.8,0.8v19   C276.8,397.5,276.4,397.9,276,397.9z"/>
	<path style="fill:#ACB3BA;" d="M338.3,397.9h-47c-0.4,0-0.8-0.4-0.8-0.8v-19c0-0.4,0.4-0.8,0.8-0.8h47c0.4,0,0.8,0.4,0.8,0.8v19   C339.1,397.5,338.7,397.9,338.3,397.9z"/>
</g>
<g>
	<path style="fill:#2B3B4E;" d="M232.8,112.3h-10.7c-2.6,0-4.6-2.1-4.6-4.6l0,0c0-2.6,2.1-4.6,4.6-4.6h10.7c2.6,0,4.6,2.1,4.6,4.6   l0,0C237.4,110.2,235.3,112.3,232.8,112.3z"/>
	<path style="fill:#2B3B4E;" d="M282.9,112.3h-33.5c-2.6,0-4.6-2.1-4.6-4.6l0,0c0-2.6,2.1-4.6,4.6-4.6h33.5c2.6,0,4.6,2.1,4.6,4.6   l0,0C287.5,110.2,285.5,112.3,282.9,112.3z"/>
</g>
<g>
	<path style="fill:#FFFFFF;" d="M223.2,233.5c-2,2-2,5.2,0,7.2s5.2,2,7.2,0c12.2-12.2,32-12.2,44.2,0c2,2,5.2,2,7.2,0   c1-1,1.5-2.3,1.5-3.6s-0.5-2.6-1.5-3.6C265.6,217.3,239.4,217.3,223.2,233.5z"/>
	<path style="fill:#FFFFFF;" d="M204.5,214.8c-2,2-2,5.2,0,7.2s5.2,2,7.2,0c22.5-22.5,59.2-22.5,81.7,0c2,2,5.2,2,7.2,0   c1-1,1.5-2.3,1.5-3.6s-0.5-2.6-1.5-3.6c-12.8-12.8-29.9-19.9-48-19.9C234.4,194.9,217.3,201.9,204.5,214.8z"/>
	<path style="fill:#FFFFFF;" d="M187.1,197.3c-2,2-2,5.2,0,7.2s5.2,2,7.2,0c32.1-32.1,84.4-32.1,116.5,0c2,2,5.2,2,7.2,0   c1-1,1.5-2.3,1.5-3.6s-0.5-2.6-1.5-3.6C281.9,161.3,223.1,161.3,187.1,197.3z"/>
</g>
<g>
</g>
<g>
</g>
<g>
</g>
<g>
</g>
<g>
</g>
<g>
</g>
<g>
</g>
<g>
</g>
<g>
</g>
<g>
</g>
<g>
</g>
<g>
</g>
<g>
</g>
<g>
</g>
<g>
</g>
</svg>
