<?xml version="1.0" encoding="iso-8859-1"?>
<!-- Generator: Adobe Illustrator 19.0.0, SVG Export Plug-In . SVG Version: 6.00 Build 0)  -->
<svg xmlns="http://www.w3.org/2000/svg" xmlns:xlink="http://www.w3.org/1999/xlink" version="1.1" id="Layer_1" x="0px" y="0px" viewBox="0 0 505 505" style="enable-background:new 0 0 505 505;" xml:space="preserve">
<circle style="fill:#FF7058;" cx="252.5" cy="252.5" r="252.5"/>
<g>
	<path style="fill:#FFD05B;" d="M319.7,172.2c-3.3,0-5.9,2.6-5.9,5.9c0,3.3,2.6,5.9,5.9,5.9c20.1,0,36.4,16.3,36.4,36.4   c0,3.3,2.6,5.9,5.9,5.9c1.6,0,3.1-0.7,4.2-1.7c1.1-1.1,1.7-2.6,1.7-4.2C368,193.8,346.4,172.2,319.7,172.2z"/>
	<path style="fill:#FFD05B;" d="M319.7,141.3c-3.3,0-5.9,2.6-5.9,5.9c0,3.3,2.6,5.9,5.9,5.9c37.1,0,67.3,30.2,67.3,67.3   c0,3.3,2.6,5.9,5.9,5.9c1.6,0,3.1-0.7,4.2-1.7c1.1-1.1,1.7-2.6,1.7-4.2c0-21.1-8.2-41-23.2-56C360.8,149.5,340.9,141.3,319.7,141.3   z"/>
	<path style="fill:#FFD05B;" d="M319.7,112.6c-3.3,0-5.9,2.6-5.9,5.9s2.6,5.9,5.9,5.9c52.9,0,96,43.1,96,96c0,3.3,2.6,5.9,5.9,5.9   c1.6,0,3.1-0.7,4.2-1.7c1.1-1.1,1.7-2.5,1.7-4.2C427.6,161,379.2,112.6,319.7,112.6z"/>
</g>
<path style="fill:#FFFFFF;" d="M358.5,306.9c-2.5-11.3-8.1-21.1-15.8-28.7c2.4-8.4,2.9-17.5,0.9-26.7c-6.4-29.4-35.4-48.1-64.8-41.7  c-5.8,1.3-11.1,3.4-15.9,6.2c-16.3-24.3-46.3-37.4-76.7-30.8c-27.4,5.9-47.9,26.4-55.1,51.6c-4.9-0.2-10,0.1-15.1,1.2  c-30.9,6.7-50.6,37.2-43.9,68.2c6,27.6,30.9,46.1,58.1,45.1c0.1,0.3,0.1,0.6,0.2,0.9c6.7,30.9,37.2,50.6,68.2,43.9  c8.1-1.8,15.4-5.2,21.7-9.8c10.5,5.1,22.7,6.8,35,4.1c11.7-2.5,21.6-8.7,29-17c9.5,3.2,19.8,4,30.3,1.7  C345.6,368.4,365.2,337.9,358.5,306.9z"/>
<g>
</g>
<g>
</g>
<g>
</g>
<g>
</g>
<g>
</g>
<g>
</g>
<g>
</g>
<g>
</g>
<g>
</g>
<g>
</g>
<g>
</g>
<g>
</g>
<g>
</g>
<g>
</g>
<g>
</g>
</svg>
