<?xml version="1.0" encoding="iso-8859-1"?>
<!-- Generator: Adobe Illustrator 19.0.0, SVG Export Plug-In . SVG Version: 6.00 Build 0)  -->
<svg xmlns="http://www.w3.org/2000/svg" xmlns:xlink="http://www.w3.org/1999/xlink" version="1.1" id="Layer_1" x="0px" y="0px" viewBox="0 0 505 505" style="enable-background:new 0 0 505 505;" xml:space="preserve">
<circle style="fill:#4CDBC4;" cx="252.5" cy="252.5" r="252.5"/>
<path style="fill:#324A5E;" d="M351,416.7H154c-4.7,0-8.4-3.8-8.4-8.4V96.7c0-4.7,3.8-8.4,8.4-8.4h197c4.7,0,8.4,3.8,8.4,8.4v311.6  C359.4,412.9,355.6,416.7,351,416.7z"/>
<rect x="166" y="128.6" style="fill:#54C0EB;" width="173.1" height="228.6"/>
<path style="fill:#ACB3BA;" d="M273.8,111.8h-42.5c-2.4,0-4.3-1.9-4.3-4.3l0,0c0-2.4,1.9-4.3,4.3-4.3h42.5c2.4,0,4.3,1.9,4.3,4.3  l0,0C278.1,109.9,276.2,111.8,273.8,111.8z"/>
<circle style="fill:#2B3B4E;" cx="313.3" cy="109.3" r="9.7"/>
<circle style="fill:#ACB3BA;" cx="252.5" cy="385.6" r="17.4"/>
<g>
	<path style="fill:#FFFFFF;" d="M386.4,208.8c-2.3-2.3-6.1-2.3-8.4,0s-2.3,6.1,0,8.4c14.2,14.2,14.2,37.3,0,51.5   c-2.3,2.3-2.3,6.1,0,8.4c1.2,1.2,2.7,1.7,4.2,1.7s3-0.6,4.2-1.7C405.3,258.3,405.3,227.6,386.4,208.8z"/>
	<path style="fill:#FFFFFF;" d="M408.3,187c-2.3-2.3-6.1-2.3-8.4,0s-2.3,6.1,0,8.4c26.2,26.2,26.2,69,0,95.2c-2.3,2.3-2.3,6.1,0,8.4   c1.2,1.2,2.7,1.7,4.2,1.7s3-0.6,4.2-1.7c15-14.9,23.2-34.8,23.2-56S423.2,201.9,408.3,187z"/>
	<path style="fill:#FFFFFF;" d="M428.6,166.7c-2.3-2.3-6.1-2.3-8.4,0s-2.3,6.1,0,8.4c37.4,37.4,37.4,98.3,0,135.8   c-2.3,2.3-2.3,6.1,0,8.4c1.2,1.2,2.7,1.7,4.2,1.7s3-0.6,4.2-1.7C470.6,277.2,470.6,208.7,428.6,166.7z"/>
	<path style="fill:#FFFFFF;" d="M126.9,208.8c-2.3-2.3-6.1-2.3-8.4,0c-18.8,18.8-18.8,49.5,0,68.3c1.2,1.2,2.7,1.7,4.2,1.7   s3-0.6,4.2-1.7c2.3-2.3,2.3-6.1,0-8.4c-14.2-14.2-14.2-37.3,0-51.5C129.2,214.9,129.2,211.1,126.9,208.8z"/>
	<path style="fill:#FFFFFF;" d="M105.1,195.4c2.3-2.3,2.3-6.1,0-8.4c-2.3-2.3-6.1-2.3-8.4,0c-15,14.9-23.2,34.8-23.2,56   s8.2,41,23.2,56c1.2,1.2,2.7,1.7,4.2,1.7s3-0.6,4.2-1.7c2.3-2.3,2.3-6.1,0-8.4C78.9,264.3,78.9,221.6,105.1,195.4z"/>
	<path style="fill:#FFFFFF;" d="M84.8,175.1c2.3-2.3,2.3-6.1,0-8.4c-2.3-2.3-6.1-2.3-8.4,0c-42,42-42,110.5,0,152.5   c1.2,1.2,2.7,1.7,4.2,1.7s3-0.6,4.2-1.7c2.3-2.3,2.3-6.1,0-8.4C47.4,273.4,47.4,212.5,84.8,175.1z"/>
</g>
<g>
</g>
<g>
</g>
<g>
</g>
<g>
</g>
<g>
</g>
<g>
</g>
<g>
</g>
<g>
</g>
<g>
</g>
<g>
</g>
<g>
</g>
<g>
</g>
<g>
</g>
<g>
</g>
<g>
</g>
</svg>
