<?xml version="1.0" encoding="iso-8859-1"?>
<!-- Generator: Adobe Illustrator 19.0.0, SVG Export Plug-In . SVG Version: 6.00 Build 0)  -->
<svg xmlns="http://www.w3.org/2000/svg" xmlns:xlink="http://www.w3.org/1999/xlink" version="1.1" id="Layer_1" x="0px" y="0px" viewBox="0 0 505 505" style="enable-background:new 0 0 505 505;" xml:space="preserve">
<circle style="fill:#FFD05B;" cx="252.5" cy="252.5" r="252.5"/>
<path style="fill:#F9B54C;" d="M69.1,426c46,48.6,111.1,79,183.4,79s137.4-30.4,183.4-79H69.1z"/>
<path style="fill:#2B3B4E;" d="M321.8,405.1c-3.2,0-6.4-1.6-8.3-4.5c-10.1-15.6-34.7-26-61-26c-26.4,0-50.9,10.5-61,26  c-3,4.6-9.1,5.9-13.7,2.9c-4.6-3-5.8-9.1-2.9-13.7c13.9-21.2,44.3-35,77.6-35s63.7,13.7,77.6,35c3,4.6,1.7,10.7-2.9,13.6  C325.5,404.6,323.7,405.1,321.8,405.1z"/>
<path style="fill:#324A5E;" d="M178.9,426.7c0.4-0.6,0.7-1.1,1.1-1.7c3-4.8,6.5-10.2,10.2-16.1c3.3-6.1,6.8-12.6,10.6-19.5  c3.5-7,6.9-14.5,10.5-22.2c3.3-7.8,6.6-15.9,9.9-24.1c2.9-8.3,6.1-16.7,8.9-25.2c2.7-8.5,5.6-17,7.9-25.4c2.4-8.4,4.8-16.7,6.8-24.8  c2.1-8,3.9-15.9,5.6-23.3c0.8-3.5,1.5-6.9,2.2-10.2c0.7,3.3,1.4,6.7,2.2,10.2c1.7,7.4,3.5,15.3,5.6,23.3c2,8.1,4.3,16.4,6.8,24.8  c2.3,8.5,5.2,16.9,7.9,25.4c2.8,8.5,6,16.9,8.9,25.2c3.3,8.2,6.5,16.3,9.9,24.1c3.6,7.7,7,15.2,10.5,22.2  c3.8,6.9,7.3,13.5,10.6,19.5c3.7,5.9,7.2,11.3,10.2,16.1c0.4,0.6,0.7,1.1,1.1,1.7H375c-0.7-1.5-1.6-3-2.8-4.3L371,421  c0,0-2.6-3-7.3-8.2c-1.2-1.3-2.5-2.8-3.9-4.3c-0.7-0.8-1.5-1.6-2.2-2.5s-1.4-1.9-2.1-2.9c-3-4-6.3-8.5-10-13.5  c-3.3-5.3-7-10.9-10.8-17c-3.7-6.2-7.2-12.9-11.1-19.8c-3.6-7-7.2-14.4-10.8-21.9c-3.3-7.7-6.9-15.4-10.1-23.3  c-3.1-8-6.5-15.8-9.2-23.8c-2.9-7.9-5.7-15.8-8.2-23.4c-2.6-7.6-4.9-15.1-7-22.2c-2.2-7.1-4-13.8-5.8-20.1c-2.9-11-5.3-20.4-7-27.5  h-25.8c-1.7,7.1-4.1,16.5-7,27.5c-1.8,6.2-3.6,13-5.8,20.1s-4.4,14.6-7,22.2c-2.5,7.7-5.3,15.5-8.2,23.4c-2.8,8-6.1,15.9-9.2,23.8  c-3.2,7.9-6.8,15.6-10.1,23.3c-3.7,7.5-7.2,14.9-10.8,21.9c-3.9,6.9-7.4,13.6-11.1,19.8c-3.8,6-7.4,11.7-10.8,17  c-3.7,4.9-7,9.5-10,13.5c-0.7,1-1.5,2-2.1,2.9c-0.7,0.9-1.5,1.7-2.2,2.5c-1.4,1.6-2.7,3-3.9,4.3c-4.6,5.2-7.3,8.2-7.3,8.2l-1.2,1.4  c-0.3,0.3-0.5,0.6-0.8,1c-0.8,1-1.5,2.1-2,3.3H178.9z"/>
<circle style="fill:#FF7058;" cx="252.5" cy="184" r="30.8"/>
<g>
	<path style="fill:#FFFFFF;" d="M343.5,276.6c0,0,1.5-1.9,4.2-5.3c1.3-1.8,3.2-3.8,4.9-6.5c1.7-2.7,3.7-5.7,6-9.2   c1.9-3.7,4.1-7.6,6.2-12c0.9-2.3,1.9-4.6,2.9-7.1c0.5-1.2,1-2.5,1.5-3.7c0.4-1.3,0.8-2.6,1.2-4c3.6-10.7,5.6-23.3,5.9-37   c0.2-13.7-1.9-28.5-6.9-43.2s-13.3-29.1-24.4-41.7l-4.3-4.6l-2.2-2.3l-2.3-2l-5.1-4.5l-2.6-2.2l-2.6-1.8c-3.5-2.4-6.7-5-10.6-7   l-5.6-3.3c-1.9-1.1-3.9-1.9-5.9-2.8c-15.9-7.4-33.6-11.3-51.4-11.3s-35.5,4-51.4,11.3c-15.9,7.5-29.9,17.8-41.2,30.7   c-10.9,12.5-19.2,26.8-24.2,41.5s-7.1,29.5-6.9,43.2c0.3,13.7,2.3,26.3,5.9,37c0.4,1.4,0.8,2.7,1.2,4c0.5,1.3,1,2.5,1.5,3.7   c1,2.5,2,4.8,2.9,7.1c2.1,4.4,4.3,8.4,6.2,12c2.2,3.4,4.2,6.5,6,9.2c1.7,2.7,3.6,4.7,4.9,6.5c2.8,3.5,4.2,5.3,4.2,5.3   s-1.7-1.7-4.9-4.8c-1.5-1.6-3.7-3.4-5.8-5.9s-4.5-5.4-7.1-8.6c-2.3-3.5-5-7.3-7.6-11.7c-1.2-2.3-2.4-4.6-3.7-7   c-0.6-1.2-1.3-2.5-1.9-3.8c-0.5-1.3-1.1-2.7-1.6-4c-4.8-10.8-8.1-24-9.3-38.6c-1.2-14.6-0.1-30.9,4.7-47.2   c4.7-16.3,12.9-32.8,25.2-47.3c11.7-14,27.2-26.9,45.1-35.2c17.8-8.5,37.8-13.1,57.9-13.3c20.1,0.2,40.1,4.8,57.9,13.3   c2.2,1.1,4.5,2,6.6,3.3l6.3,3.8c4.2,2.3,8.1,5.6,12.1,8.6l2.9,2.3l2.5,2.3l5,4.6l2.7,2.6l2.3,2.7c1.6,1.8,3.1,3.5,4.6,5.3   c12,14.3,20.3,30.8,25,47.1c4.8,16.3,5.9,32.6,4.7,47.2c-1.2,14.6-4.5,27.8-9.3,38.6c-0.5,1.4-1.1,2.7-1.6,4   c-0.6,1.3-1.3,2.5-1.9,3.8c-1.3,2.4-2.5,4.8-3.7,7c-2.6,4.3-5.3,8.2-7.6,11.7c-2.7,3.2-5.1,6.1-7.1,8.7c-2,2.5-4.2,4.2-5.7,5.9   C345.1,274.9,343.5,276.6,343.5,276.6z"/>
	<path style="fill:#FFFFFF;" d="M320.8,253.9c0,0,1.1-1.4,3.1-4.1c1-1.4,2.4-2.9,3.6-5c1.3-2,2.7-4.3,4.3-6.9c1.4-2.8,3-5.8,4.5-9.1   c1.2-3.5,3-7,4-11.1c2.6-8,3.9-17.4,4-27.6c0-10.2-1.7-21.1-5.4-32c-3.8-10.8-10-21.4-18.2-30.6l-3.2-3.4l-1.6-1.7l-1.6-1.4   l-3.8-3.3l-1.9-1.7l-1.9-1.3c-2.5-1.7-4.8-3.6-7.8-5.1l-4.2-2.4c-1.4-0.8-2.9-1.4-4.4-2.1c-11.7-5.4-24.8-8.3-37.8-8.3   c-13.1,0-26.1,2.9-37.8,8.3c-11.7,5.5-22,12.9-30.5,22.5c-8,9.1-14.3,19.6-18.1,30.5c-3.8,10.8-5.5,21.8-5.4,32s1.5,19.6,4,27.6   c1,4.1,2.8,7.6,4,11.1c1.5,3.3,3.1,6.3,4.5,9.1c1.6,2.6,3.1,4.9,4.4,7c1.2,2.1,2.6,3.6,3.6,4.9c2,2.7,3.1,4.1,3.1,4.1   s-1.3-1.2-3.8-3.5c-1.2-1.2-2.8-2.5-4.4-4.4c-1.6-1.9-3.4-4-5.5-6.4c-1.8-2.6-3.8-5.5-5.9-8.7c-0.9-1.7-1.9-3.5-2.9-5.3   c-0.5-0.9-1-1.9-1.5-2.8c-0.4-1-0.8-2-1.3-3c-3.7-8.2-6.4-18.1-7.4-29.2c-1.1-11.1-0.3-23.5,3.3-36c3.5-12.5,9.7-25.1,19-36.2   c8.8-10.7,20.7-20.6,34.3-27c13.6-6.5,28.9-10.1,44.3-10.3c15.4,0.2,30.7,3.7,44.3,10.3c3.5,1.5,6.7,3.4,9.9,5.4   c3.2,1.8,6.2,4.4,9.3,6.6l2.3,1.8l1.9,1.8l3.7,3.5l2.1,2l1.8,2l3.5,4.1c9.2,11,15.4,23.6,18.9,36.1c3.6,12.5,4.3,24.9,3.3,36   s-3.7,21.1-7.4,29.2c-0.4,1-0.8,2-1.3,3s-1,1.9-1.5,2.8c-1,1.8-1.9,3.6-2.9,5.3c-2.1,3.3-4.1,6.1-5.9,8.7c-2.1,2.5-3.9,4.6-5.5,6.4   c-1.6,1.9-3.2,3.1-4.4,4.3C322.1,252.7,320.8,253.9,320.8,253.9z"/>
	<path style="fill:#FFFFFF;" d="M295.2,228.3c0,0,0.6-0.9,1.8-2.7c0.6-0.9,1.4-1.9,2.1-3.2s1.6-2.8,2.5-4.4c0.8-1.8,1.7-3.6,2.5-5.7   c0.6-2.2,1.7-4.4,2.2-6.9c1.4-5,2-10.8,1.9-16.9c-0.2-6.2-1.4-12.8-3.8-19.2c-2.4-6.5-6.3-12.7-11.3-18.1c-1.3-1.2-2.6-2.9-3.8-3.8   l-2.4-2.1l-1.2-1l-1.2-0.8c-1.5-1-2.8-2-4.5-2.9c-1.6-0.9-3.3-1.9-5.1-2.6c-7-3.1-14.7-4.8-22.4-4.8c-7.7,0-15.4,1.7-22.4,4.8   c-7,3.2-13,7.5-18.3,13.2c-4.8,5.2-8.7,11.5-11.2,17.9c-2.4,6.5-3.6,13-3.8,19.2c-0.1,6.2,0.5,12,1.9,16.9c0.5,2.6,1.6,4.7,2.2,6.9   c0.8,2.1,1.7,4,2.5,5.7c1.9,3.3,3.3,6,4.6,7.6c1.2,1.7,1.8,2.7,1.8,2.7s-0.9-0.7-2.5-2.1c-1.7-1.3-3.9-3.5-6.5-6.5   c-1.2-1.6-2.6-3.4-4-5.4c-1.2-2.1-2.7-4.3-3.8-7c-2.5-5.1-4.5-11.4-5.3-18.6c-0.9-7.1-0.6-15.1,1.6-23.2c2.1-8.1,6-16.3,12-23.7   c5.5-6.9,13.3-13.5,22.2-17.7c8.8-4.4,18.9-6.7,28.9-6.7c10,0.1,20,2.4,28.9,6.8c4.5,2.1,8.5,4.7,12.5,8l1.5,1.2l1.2,1.1l2.3,2.2   l1.4,1.4l1.1,1.3l2.3,2.7c5.9,7.2,9.7,15.5,11.9,23.6c2.2,8.1,2.5,16.1,1.6,23.2c-0.8,7.1-2.7,13.4-5.3,18.5   c-1.1,2.6-2.6,4.9-3.8,7c-1.4,2-2.8,3.8-4,5.4c-2.7,3.1-4.9,5.2-6.5,6.5C296,227.6,295.2,228.3,295.2,228.3z"/>
</g>
<g>
</g>
<g>
</g>
<g>
</g>
<g>
</g>
<g>
</g>
<g>
</g>
<g>
</g>
<g>
</g>
<g>
</g>
<g>
</g>
<g>
</g>
<g>
</g>
<g>
</g>
<g>
</g>
<g>
</g>
</svg>
