<?xml version="1.0" encoding="iso-8859-1"?>
<!-- Generator: Adobe Illustrator 19.0.0, SVG Export Plug-In . SVG Version: 6.00 Build 0)  -->
<svg xmlns="http://www.w3.org/2000/svg" xmlns:xlink="http://www.w3.org/1999/xlink" version="1.1" id="Layer_1" x="0px" y="0px" viewBox="0 0 505 505" style="enable-background:new 0 0 505 505;" xml:space="preserve">
<circle style="fill:#324A5E;" cx="252.5" cy="252.5" r="252.5"/>
<path style="fill:#E6E9EE;" d="M336.1,208.3H168.9l18.3-86c0.6-2.9,3.2-5,6.1-5h118.3c3,0,5.5,2.1,6.1,5L336.1,208.3z"/>
<path style="fill:#4CDBC4;" d="M411.2,387.6H93.8c-2.4,0-4.3-1.9-4.3-4.3V161.1c0-2.4,1.9-4.3,4.3-4.3h317.4c2.4,0,4.3,1.9,4.3,4.3  v222.3C415.5,385.7,413.6,387.6,411.2,387.6z"/>
<circle style="fill:#324A5E;" cx="252.5" cy="272.2" r="90.1"/>
<circle style="fill:#E6E9EE;" cx="252.5" cy="272.2" r="67.4"/>
<circle style="fill:#CED5E0;" cx="252.5" cy="272.2" r="36.3"/>
<ellipse transform="matrix(0.6876 0.7261 -0.7261 0.6876 252.0447 -88.7048)" style="fill:#FFFFFF;" cx="229.107" cy="248.55" rx="10.8" ry="14.4"/>
<rect x="214.5" y="127.6" style="fill:#CED5E0;" width="76" height="18.9"/>
<circle style="fill:#FF7058;" cx="140.1" cy="199.8" r="14.7"/>
<g>
</g>
<g>
</g>
<g>
</g>
<g>
</g>
<g>
</g>
<g>
</g>
<g>
</g>
<g>
</g>
<g>
</g>
<g>
</g>
<g>
</g>
<g>
</g>
<g>
</g>
<g>
</g>
<g>
</g>
</svg>
