<?xml version="1.0" encoding="iso-8859-1"?>
<!-- Generator: Adobe Illustrator 19.0.0, SVG Export Plug-In . SVG Version: 6.00 Build 0)  -->
<svg version="1.1" id="Layer_1" xmlns="http://www.w3.org/2000/svg" xmlns:xlink="http://www.w3.org/1999/xlink" x="0px" y="0px"
	 viewBox="0 0 508 508" style="enable-background:new 0 0 508 508;" xml:space="preserve">
<circle style="fill:#FD8469;" cx="254" cy="254" r="254"/>
<path style="fill:#F9B54C;" d="M254.4,322.8C254,322.8,254,322.8,254.4,322.8c-0.4,0-0.4,0-0.4,0c-60.8-29.6-54-68-54-68
	c0-0.8,0-1.2,0.4-2c0.4,0.4,0.8,0.8,1.2,1.6c14,21.6,32.8,36.8,52.8,36.8c20.4,0,38.8-15.2,53.2-37.2c0.4-0.4,0.4-0.8,0.8-0.8
	c0,0.4,0.4,1.2,0.4,1.6c0,0,0,0.4,0,0.8C309.2,261.6,309.6,296,254.4,322.8z"/>
<path style="fill:#F1543F;" d="M254.4,322.8C254,322.8,254,322.8,254.4,322.8c-0.4,0-0.4,0-0.4,0H254.4z"/>
<path style="fill:#324A5E;" d="M254,508c82,0,154.4-38.8,200.8-98.8l-26-80l-109.2-52.8c0,18.8-0.8,51.2-6.8,92.8
	c-13.6-42.8-58.8-46.4-58.8-46.4s-45.2,3.6-58.8,46.4c-6-41.6-6.8-74.4-6.8-92.8L78.8,329.2l-26,80C99.6,469.2,172,508,254,508z"/>
<g>
	<path style="fill:#FFFFFF;" d="M308.4,254.8c0,0,6.8,38.4-54.4,68.4c0,0,45.6,3.6,58.8,46.4C313.6,370.8,338.4,277.6,308.4,254.8z"
		/>
	<path style="fill:#FFFFFF;" d="M199.6,254.8c-30,22.8-5.2,116-4.8,114.4c13.6-42.8,59.2-46.4,59.2-46.4
		C192.8,293.2,199.6,254.8,199.6,254.8z"/>
</g>
<g>
	<path style="fill:#FFD05B;" d="M316.8,236L316.8,236c-14.8,31.2-37.2,54.8-62.8,54.8c-27.6,0-51.6-27.6-66.4-62.4
		c-5.6-0.4-12-4.8-15.2-12c-3.6-7.2-3.2-14.8,0-19.6c6.8,18.4,15.2,30.8,15.2,30.8c-19.6-45.6,15.2-98.8,15.2-98.8
		c53.6,13.6,76.4-2.8,76.4-2.8c39.2-6.8,43.6,18.8,42.4,35.2c-0.8,9.2,0.4,18,1.6,27.2C326,211.2,318.4,232.8,316.8,236z"/>
	<path style="fill:#FFD05B;" d="M335.6,216.4c-3.2,6.4-8,10.8-13.2,12c4-6.4,9.6-16.4,14.8-28.4
		C338.8,204.8,338.4,210.8,335.6,216.4z"/>
</g>
<g>
	<path style="fill:#324A5E;" d="M320.4,76.8C289.2,47.6,254,46.4,254,46.4c6.8,5.2,0,10.8,0,10.8c-11.6-14.4-32-5.6-32-5.6
		c14,4,18.4,11.2,18.4,11.2c-45.2-14.8-68,27.2-68,27.2l18.4-3.6C130,141.2,187.6,228,187.6,228c-19.6-45.6,15.2-98.8,15.2-98.8
		c53.6,13.6,76.4-2.8,76.4-2.8c39.2-6.8,43.6,18.8,42.4,35.2c-0.8,9.2,0.4,18,1.6,27.2c3.2,24.8-6.4,47.6-6.4,47.6
		S388.4,141.6,320.4,76.8z"/>
	<path style="fill:#324A5E;" d="M322.4,228.4c-2.8,4.4-4.8,7.2-5.6,8l0,0c0,0,0,0,0-0.4c1.2-2.4,2.4-4.8,3.2-7.6
		C320.8,228.4,321.6,228.4,322.4,228.4z"/>
</g>
<circle style="fill:#FFFFFF;" cx="407.2" cy="324" r="57.2"/>
<path style="fill:#84DBFF;" d="M441.2,333.2h-68.4c-5.2,0-9.2-4-9.2-9.2l0,0c0-5.2,4-9.2,9.2-9.2h68.4c5.2,0,9.2,4,9.2,9.2l0,0
	C450.4,328.8,446.4,333.2,441.2,333.2z"/>
<g>
</g>
<g>
</g>
<g>
</g>
<g>
</g>
<g>
</g>
<g>
</g>
<g>
</g>
<g>
</g>
<g>
</g>
<g>
</g>
<g>
</g>
<g>
</g>
<g>
</g>
<g>
</g>
<g>
</g>
</svg>
