<?xml version="1.0" encoding="iso-8859-1"?>
<!-- Generator: Adobe Illustrator 19.0.0, SVG Export Plug-In . SVG Version: 6.00 Build 0)  -->
<svg version="1.1" id="Layer_1" xmlns="http://www.w3.org/2000/svg" xmlns:xlink="http://www.w3.org/1999/xlink" x="0px" y="0px"
	 viewBox="0 0 508 508" style="enable-background:new 0 0 508 508;" xml:space="preserve">
<circle style="fill:#FD8469;" cx="254" cy="254" r="254"/>
<path style="fill:#FFFFFF;" d="M356,281.6H152c-45.2,0-82-36.8-82-82l0,0c0-45.2,36.8-82,82-82h204c45.2,0,82,36.8,82,82l0,0
	C437.6,245.2,401.2,281.6,356,281.6z"/>
<g>
	<path style="fill:#324A5E;" d="M122.4,225.6c-6.8-6.8-10.8-16-10.8-26c0-9.6,3.6-18.8,10.8-26c6.8-7.2,16-10.8,26-10.8
		c9.6,0,18.8,3.6,26,10.8c3.2,3.2,1.2,7.2,0,8.4s-4.8,4.4-8.4,0c-4.8-4.8-10.8-7.2-17.2-7.2c-6.8,0-12.8,2.4-17.2,7.2
		c-4.8,4.8-7.2,10.8-7.2,17.2s2.8,12.8,7.2,17.2c4.8,4.8,11.2,7.2,17.2,7.2c5.6,0,10.8-2,15.6-5.6v-12h-15.2c-3.2,0-6-2.8-6-6
		s2.8-6,6-6H170c3.2,0,6,2.8,6,6v21.6c0,1.6-0.8,3.2-1.6,4.4c-7.2,7.2-16.4,10.8-26,10.8C138.8,236.4,129.6,232.8,122.4,225.6z"/>
	<path style="fill:#324A5E;" d="M194.8,200c0-20.4,15.6-36.8,35.2-36.8c19.2,0,35.2,16.4,35.2,36.8s-16,36.8-35.2,36.8
		C210.4,236.4,194.8,220,194.8,200z M207.2,200c0,13.6,10.4,24.4,22.8,24.4c12.8,0,22.8-10.8,22.8-24.4c0-13.6-10.4-24.4-22.8-24.4
		C217.2,175.2,207.2,186.4,207.2,200z"/>
	<path style="fill:#324A5E;" d="M337.2,228c0.4,0.8,0.4,1.6,0.4,2.4c0,3.2-2.4,6-6,6c-2.4,0-4.8-1.6-5.6-4l-4.8-11.6h-28.4
		l-4.8,11.6c-0.8,2.4-3.2,4-5.6,4c-3.6,0-6-3.2-6-6c0-0.8,0-1.6,0.4-2.4l24.4-61.2c0.8-2.4,3.2-4,5.6-4s4.8,1.6,5.6,4L337.2,228z
		 M316.4,209.2l-9.2-23.2l-9.2,23.2H316.4z"/>
	<path style="fill:#324A5E;" d="M362.8,236.4c-3.6,0-6-2.8-6-6v-61.2c0-3.2,2.8-6,6-6s6,2.8,6,6v55.2H390c3.2,0,6,2.8,6,6
		s-2.8,6-6,6H362.8z"/>
</g>
<g>
	<path style="fill:#FFD05B;" d="M299.6,328.8c-5.6,0-10.4,2.4-10.4,8v-3.6c0-5.6-4.4-8-10.4-8c-5.6,0-10.4,2.4-10.4,8v-3.6
		c0-5.6-4.4-8-10.4-8c-2.8,0-5.6,0.8-7.2,2c-2,1.2-3.2,3.2-3.2,6v-50c0-5.6-4.4-10-10-10.4c-5.6,0-10.4,4.8-10.4,10.4V352
		c-4.8-10.4-11.2-19.2-19.2-23.2c-4-2-9.2,1.6-10.4,6c-0.4,2-0.4,4.8,1.2,7.6c0,0,10.4,9.2,9.2,30.4c-0.4,21.2,25.2,45.2,25.2,45.2
		h67.6l3.2-14c4-16,5.6-32.8,5.6-49.2v-18C310,331.2,305.2,328.8,299.6,328.8z"/>
	<path style="fill:#FFD05B;" d="M398.4,278.4c-4.8,3.2-6.8,8-3.6,12.4l-2-3.2c-3.2-4.8-8.4-4-13.2-0.8c-4.8,3.2-6.8,8-3.6,12.4
		l-2-3.2c-3.2-4.8-8.4-4-13.2-0.8c-2.4,1.6-4,3.6-4.8,5.6s-0.4,4.4,1.2,6.8l-28.8-40.8c-3.2-4.4-9.6-5.6-14-2.4
		c-4.8,3.2-5.6,10-2.4,14.4l42,59.2c-10-5.6-20-9.2-29.2-8c-4.4,0.4-6.4,6.8-4.8,10.8c0.8,2,2.4,4,5.2,5.6c0,0,14,1.6,25.2,19.6
		s46,22.4,46,22.4l54.8-39.2l-5.6-13.2c-6.4-15.2-14.4-30-24-43.6L411.2,278C408,274.4,402.8,275.2,398.4,278.4z"/>
	<path style="fill:#FFD05B;" d="M168.4,345.6c-3.2-4.8-8-6.8-12.4-3.6l3.2-2c4.8-3.2,4-8.4,0.8-13.2c-3.2-4.8-8-6.8-12.4-3.6l3.2-2
		c4.8-3.2,4-8.4,0.8-13.2c-1.6-2.4-3.6-4-5.6-4.8s-4.4-0.4-6.8,1.2l40.8-28.8c4.4-3.2,5.6-9.6,2.4-14c-3.2-4.8-10-5.6-14.4-2.4
		l-60.4,41.6c5.6-10,9.2-20,8-29.2c-0.4-4.4-6.8-6.4-10.8-4.8c-2,0.8-4,2.4-5.6,5.2c0,0-1.6,14-19.6,25.2s-22.4,46-22.4,46L96.4,398
		l13.2-5.6c15.2-6.4,30-14.4,43.6-24l14.4-10.4C172.4,355.2,171.6,350.4,168.4,345.6z"/>
</g>
<g>
</g>
<g>
</g>
<g>
</g>
<g>
</g>
<g>
</g>
<g>
</g>
<g>
</g>
<g>
</g>
<g>
</g>
<g>
</g>
<g>
</g>
<g>
</g>
<g>
</g>
<g>
</g>
<g>
</g>
</svg>
