<?xml version="1.0" encoding="iso-8859-1"?>
<!-- Generator: Adobe Illustrator 19.0.0, SVG Export Plug-In . SVG Version: 6.00 Build 0)  -->
<svg version="1.1" id="Layer_1" xmlns="http://www.w3.org/2000/svg" xmlns:xlink="http://www.w3.org/1999/xlink" x="0px" y="0px"
	 viewBox="0 0 508 508" style="enable-background:new 0 0 508 508;" xml:space="preserve">
<circle style="fill:#FFD05B;" cx="254" cy="254" r="254"/>
<path style="fill:#FFFFFF;" d="M380,75.6H128c-8,0-14.4,6.4-14.4,14.4v328.4c0,8,6.4,14.4,14.4,14.4h251.6c8,0,14.4-6.4,14.4-14.4
	V89.6C394,82,387.6,75.6,380,75.6z"/>
<g>
	<path style="fill:#324A5E;" d="M207.2,258v24.4c-0.8,0-1.6,0-2.4,0c-1.2,0-2.4,0-3.2,0.4v-21.6h-48.4v21.6c-1.2-0.4-2-0.4-3.2-0.4
		c-0.8,0-1.6,0-2.4,0V258c0-1.6,1.2-2.8,2.8-2.8h24.4v-20.4c0.8,0,2,0.4,2.8,0.4s2,0,2.8-0.4v20.4h24
		C206,255.2,207.2,256.4,207.2,258z"/>
	<path style="fill:#324A5E;" d="M284,346v25.6c-0.8,0-1.6,0-2.4,0c-1.2,0-2.4,0-3.2,0.4v-22.8H230V372c-1.2-0.4-2-0.4-3.2-0.4
		c-0.8,0-1.6,0-2.4,0V346c0-1.6,1.2-2.8,2.8-2.8H252v-108c0.8,0,1.6,0,2.4,0c1.2,0,2.4,0,3.2-0.4v108h23.6
		C282.4,342.8,284,344.4,284,346z"/>
	<path style="fill:#324A5E;" d="M177.6,193.6c-0.8,0-1.6,0-2.4,0v-26.4c0-1.6,1.2-2.8,2.8-2.8h73.6V146c0.8,0,2,0.4,2.8,0.4
		s2,0,2.8-0.4v18.4h73.6c1.6,0,2.8,1.2,2.8,2.8V194c-1.2-0.4-2.4-0.4-3.2-0.4c-0.8,0-1.6,0-2.4,0V170h-70.8v24
		c-1.2-0.4-2.4-0.4-3.2-0.4c-0.8,0-1.6,0-2.4,0V170h-70.8v24C179.6,193.6,178.8,193.6,177.6,193.6z"/>
	<path style="fill:#324A5E;" d="M360.8,258v24.4c-0.8,0-2-0.4-2.8-0.4s-2,0-2.8,0.4v-21.6h-48.4v21.6c-1.2-0.4-2.4-0.4-3.6-0.4
		c-0.8,0-1.2,0-2,0v-24c0-1.6,1.2-2.8,2.8-2.8h24v-20.4c0.8,0,1.6,0,2.4,0c1.2,0,2.4,0,3.2-0.4v20.4h24
		C359.6,255.2,360.8,256.4,360.8,258z"/>
</g>
<path style="fill:#FF7058;" d="M254.4,146.4L254.4,146.4c-11.6,0-20.8-9.2-20.8-20.8l0,0c0-11.6,9.2-20.8,20.8-20.8l0,0
	c11.6,0,20.8,9.2,20.8,20.8l0,0C275.2,137.2,266,146.4,254.4,146.4z"/>
<g>
	<path style="fill:#84DBFF;" d="M254,235.2L254,235.2c-11.6,0-20.8-9.2-20.8-20.8l0,0c0-11.6,9.2-20.8,20.8-20.8l0,0
		c11.6,0,20.8,9.2,20.8,20.8l0,0C274.8,226,265.6,235.2,254,235.2z"/>
	<path style="fill:#84DBFF;" d="M177.6,235.2L177.6,235.2c-11.6,0-20.8-9.2-20.8-20.8l0,0c0-11.6,9.2-20.8,20.8-20.8l0,0
		c11.6,0,20.8,9.2,20.8,20.8l0,0C198.4,226,188.8,235.2,177.6,235.2z"/>
	<path style="fill:#84DBFF;" d="M330.4,235.2L330.4,235.2c-11.6,0-20.8-9.2-20.8-20.8l0,0c0-11.6,9.2-20.8,20.8-20.8l0,0
		c11.6,0,20.8,9.2,20.8,20.8l0,0C351.2,226,342,235.2,330.4,235.2z"/>
</g>
<g>
	<path style="fill:#4CDBC4;" d="M281.6,412.8L281.6,412.8c-11.6,0-20.8-9.2-20.8-20.8l0,0c0-11.6,9.2-20.8,20.8-20.8l0,0
		c11.6,0,20.8,9.2,20.8,20.8l0,0C302.4,403.6,292.8,412.8,281.6,412.8z"/>
	<path style="fill:#4CDBC4;" d="M226.4,412.8L226.4,412.8c-11.6,0-20.8-9.2-20.8-20.8l0,0c0-11.6,9.2-20.8,20.8-20.8l0,0
		c11.6,0,20.8,9.2,20.8,20.8l0,0C247.2,403.6,238,412.8,226.4,412.8z"/>
</g>
<g>
	<path style="fill:#FFD05B;" d="M358,324L358,324c-11.6,0-20.8-9.2-20.8-20.8l0,0c0-11.6,9.2-20.8,20.8-20.8l0,0
		c11.6,0,20.8,9.2,20.8,20.8l0,0C378.8,314.8,369.6,324,358,324z"/>
	<path style="fill:#FFD05B;" d="M303.2,324L303.2,324c-11.6,0-20.8-9.2-20.8-20.8l0,0c0-11.6,9.2-20.8,20.8-20.8l0,0
		c11.6,0,20.8,9.2,20.8,20.8l0,0C324,314.8,314.8,324,303.2,324z"/>
</g>
<g>
	<path style="fill:#CED5E0;" d="M204.8,324L204.8,324c-11.6,0-20.8-9.2-20.8-20.8l0,0c0-11.6,9.2-20.8,20.8-20.8l0,0
		c11.6,0,20.8,9.2,20.8,20.8l0,0C225.6,314.8,216.4,324,204.8,324z"/>
	<path style="fill:#CED5E0;" d="M150,324L150,324c-11.6,0-20.8-9.2-20.8-20.8l0,0c0-11.6,9.2-20.8,20.8-20.8l0,0
		c11.6,0,20.8,9.2,20.8,20.8l0,0C170.8,314.8,161.6,324,150,324z"/>
</g>
<g>
</g>
<g>
</g>
<g>
</g>
<g>
</g>
<g>
</g>
<g>
</g>
<g>
</g>
<g>
</g>
<g>
</g>
<g>
</g>
<g>
</g>
<g>
</g>
<g>
</g>
<g>
</g>
<g>
</g>
</svg>
