<?xml version="1.0" encoding="iso-8859-1"?>
<!-- Generator: Adobe Illustrator 19.0.0, SVG Export Plug-In . SVG Version: 6.00 Build 0)  -->
<svg version="1.1" id="Layer_1" xmlns="http://www.w3.org/2000/svg" xmlns:xlink="http://www.w3.org/1999/xlink" x="0px" y="0px"
	 viewBox="0 0 508 508" style="enable-background:new 0 0 508 508;" xml:space="preserve">
<circle style="fill:#90DFAA;" cx="254" cy="254" r="254"/>
<path id="SVGCleanerId_0" style="fill:#FFFFFF;" d="M125.6,415.6C108,418,92,404.8,92,386.8l-1.2-87.6c14.8,0.8,29.2,1.6,42.8,2.4
	l16.4,79.2C153.6,397.2,142.4,413.2,125.6,415.6z"/>
<path style="fill:#FF7058;" d="M162,363.2l-12.8,14L138,324.4l24,30.4C164.4,357.2,164,360.8,162,363.2z"/>
<g>
	<path id="SVGCleanerId_0_1_" style="fill:#FFFFFF;" d="M125.6,415.6C108,418,92,404.8,92,386.8l-1.2-87.6
		c14.8,0.8,29.2,1.6,42.8,2.4l16.4,79.2C153.6,397.2,142.4,413.2,125.6,415.6z"/>
</g>
<path style="fill:#FFFFFF;" d="M354.8,355.6c0,2,0.4,4,0.8,5.6c-46.4-35.2-106-49.2-181.2-56.4c0,0,0.4,0,0.8,0V166.4
	c74.8-7.2,134-21.2,180.4-56.4c-0.4,2-0.8,3.6-0.8,5.6L354.8,355.6L354.8,355.6z"/>
<path style="fill:#324A5E;" d="M175.2,166.4c-28,2.8-58.4,4.4-91.2,6c-11.6,0.4-20.8,10-20.8,22v82.8c0,11.6,9.2,21.2,20.8,22
	c32.8,1.6,62.8,3.2,91.2,6V166.4z"/>
<path style="fill:#FFFFFF;" d="M402,197.6v76c20.4-0.8,36.4-17.6,36.4-38S422.4,198.4,402,197.6z"/>
<path style="fill:#324A5E;" d="M378.4,379.2L378.4,379.2c-13.2,0-23.6-10.4-23.6-23.6v-240c0-13.2,10.4-23.6,23.6-23.6l0,0
	c13.2,0,23.6,10.4,23.6,23.6v240C402,368.8,391.6,379.2,378.4,379.2z"/>
<g>
</g>
<g>
</g>
<g>
</g>
<g>
</g>
<g>
</g>
<g>
</g>
<g>
</g>
<g>
</g>
<g>
</g>
<g>
</g>
<g>
</g>
<g>
</g>
<g>
</g>
<g>
</g>
<g>
</g>
</svg>
