<?xml version="1.0" encoding="iso-8859-1"?>
<!-- Generator: Adobe Illustrator 19.0.0, SVG Export Plug-In . SVG Version: 6.00 Build 0)  -->
<svg version="1.1" id="Layer_1" xmlns="http://www.w3.org/2000/svg" xmlns:xlink="http://www.w3.org/1999/xlink" x="0px" y="0px"
	 viewBox="0 0 508 508" style="enable-background:new 0 0 508 508;" xml:space="preserve">
<circle style="fill:#84DBFF;" cx="254" cy="254" r="254"/>
<path style="fill:#54C0EB;" d="M70,429.2c46.4,48.4,111.6,78.8,184,78.8s137.6-30.4,184-78.8H70z"/>
<path style="fill:#324A5E;" d="M100.4,441.6c0,0,2.4,8.8-1.2,11.2c0,0-3.6,0.8-3.2,6c0,0,0,5.6-7.2,5.2c0,0-19.6,2-22.4-2.4
	c0,0-2-2.4-0.8-6.4l22.8-8.4L100.4,441.6z"/>
<g>
	<path style="fill:#2B3B4E;" d="M97.6,428.4c0,0,8.4,7.2,2.4,16.8c0,0-4.4,6-4.4,9.2c0,0,0.8,9.6-9.6,7.2c0,0-10.4-7.2-17.2-1.2
		c0,0-5.2-0.4-2.8-7.6c0,0,5.6-7.2,9.2-14c0,0,2-1.6,0.8-6.8L97.6,428.4z"/>
	<path style="fill:#2B3B4E;" d="M120.8,441.6c0,0-2.4,8.8,1.2,11.2c0,0,3.6,0.8,3.2,6c0,0,0,5.6,7.2,5.2c0,0,19.6,2,22.4-2.4
		c0,0,2-2.4,0.8-6.4l-22.8-8.4L120.8,441.6z"/>
</g>
<path style="fill:#324A5E;" d="M123.6,428.4c0,0-8.4,7.2-2.4,16.8c0,0,4.4,6,4.4,9.2c0,0-0.8,9.6,9.6,7.2c0,0,10.4-7.2,17.2-1.2
	c0,0,5.2-0.4,2.8-7.6c0,0-5.6-7.2-9.2-14c0,0-2-1.6-0.8-6.8L123.6,428.4z"/>
<polygon style="fill:#E6E9EE;" points="90,111.2 109.6,187.6 129.2,111.2 "/>
<polygon style="fill:#F1543F;" points="115.2,119.2 118,111.2 103.6,111.2 106,119.2 "/>
<polygon style="fill:#FF7058;" points="115.2,119.2 110.8,119.2 106,119.2 96.4,177.6 110.8,187.2 125.2,177.6 "/>
<path style="fill:#324A5E;" d="M74,218c-3.6,20-7.6,55.6-0.8,96.8c0,0,6,95.2,0.4,116.4c0,0,11.2,20,31.2,0c0,0,0.4-156.8,6-163.2
	v-50H74z"/>
<path style="fill:#2B3B4E;" d="M110.8,218v50c5.2,6.4,6,163.2,6,163.2c20,20,31.2,0,31.2,0c-5.6-20.8,0.4-116.4,0.4-116.4
	c6.4-41.2,2.4-76.8-1.2-96.8H110.8z"/>
<polygon style="fill:#CED5E0;" points="126,100.4 95.2,100.4 90.4,111.2 128.8,111.2 "/>
<path style="fill:#2B3B4E;" d="M92,107.2L57.2,120c0,0,21.2,64,11.6,107.2c0,0-3.6,21.6-0.8,38.8c0,0,24,17.6,33.6,1.2
	c0,0,12.4-38.8,10.4-76.4l-10.8-29.2L92,107.2z"/>
<g>
	<path style="fill:#324A5E;" d="M95.2,100.4l-17.2,18l6.4,2.8l-4.8,4.8c0,0,15.6,48,32,64.8C111.6,190.8,94,116,95.2,100.4z"/>
	<path style="fill:#324A5E;" d="M129.2,107.2L164,120c0,0-21.2,64-11.6,107.2c0,0,3.6,21.6,0.8,38.8c0,0-24,17.6-33.6,1.2
		c0,0-12.4-38.8-10.4-76.4l10.8-29.2L129.2,107.2z"/>
</g>
<g>
	<path style="fill:#2B3B4E;" d="M126,100.4l16.8,18l-6.4,2.8l4.8,4.4c0,0-15.6,48-32,64.8C109.6,190.8,127.2,116,126,100.4z"/>
	<circle style="fill:#2B3B4E;" cx="115.6" cy="194" r="3.6"/>
</g>
<polygon style="fill:#FF7058;" points="132,166 137.6,156 146.8,162.8 "/>
<rect x="129.611" y="162.77" transform="matrix(-0.9789 0.2042 -0.2042 -0.9789 309.6125 298.3914)" style="fill:#2B3B4E;" width="19.599" height="4.8"/>
<path style="fill:#FFD05B;" d="M166.4,260c0.4,3.6,0.4,6.4,0.4,6.4c1.2,0.8,3.6,4.4,3.6,4.4c4.8,4,2.4,6.8,2.4,6.8l0.4,3.2
	c1.2,1.2,0.4,4,0.4,4c-2.4,4.8-4.4,0.8-4.4,0.8c-2.8,3.6-4.4-0.8-4.4-0.8c-3.2,1.6-4.4-2-4.4-2s-6,0.8-4.8-12.8
	c0.4-3.2,0.4-6.8,0-10.4L166.4,260z"/>
<g>
	<path style="fill:#F9B54C;" d="M161.2,273.6c0-0.8,0.4-2.4,0.4-2.4c-0.8,2.8,2,4.4,2,4.4c-0.4,0-0.4-1.6-0.4-1.6
		c0.4,2.4,4.4,4,4.4,4c0.8-1.6,2-2.4,2-2.4c-0.8,1.2-1.2,2.4-1.2,2.4c0.8,0,1.2,0.8,1.2,0.8c-1.2-0.8-1.6,0-1.6,0c2,0.4,1.2,2,1.2,2
		c0-2-1.2-1.6-1.2-1.6c1.2,0.8,0.8,2,0.8,2c0-1.6-1.6-1.6-1.6-1.6c0.8-1.2,0-0.8,0-0.8c-1.6-2-2.4,0.4-2.4,1.2c-0.4,0-0.4,0-0.4,0.4
		c1.2-2.4,0-2.8,0-2.8c-1.6-1.2-1.6,0.8-1.6,0.8c0,3.6-2.4,5.2-2.4,5.2h-0.8c1.6-0.8,2-2.8,2-2.8c1.6-3.6-0.4-4-0.4-4
		c-3.2-0.4-2.4,2.4-2.4,2.4c-1.2,0.4-2.8,0-2.8,0c0.8,0,1.2-0.8,1.2-0.8c1.2-1.2-0.8-3.2-0.8-3.2c0.8,0.8,4.4,0.8,4.4,0.8
		c1.6,0,0.4-1.6,0.4-1.6l-0.8,0.4c0-0.4-0.8-2.8-0.8-2.8C160,271.6,160.8,273.2,161.2,273.6z"/>
	<path style="fill:#F9B54C;" d="M172.4,278.8c0,0-0.4,0.4-1.6,2.8c0,0-0.4,0.4-0.4,0.8c-0.4,0.8-1.2,1.2-1.6,0.8
		c-0.8-0.4-2-0.8-3.2-0.4c0,0-0.8,0-2,0c-0.4,0-1.2-0.4-0.8-0.8c0.4-0.8,0.8-2,2.4-2.4c0,0,2-0.4,2.4,0c0,0-2.8-1.2-4.4,0.8
		c0,0-2,2-0.4,2.4c0,0,4.4,0,4.8,0.4c0,0,2,0.8,2.8-0.4c0,0,0.4-2,2.4-1.6c0,0-0.8-0.4-1.2-0.4C171.6,280.8,172,279.6,172.4,278.8z"
		/>
	<path style="fill:#F9B54C;" d="M168.8,283.2c-0.4,0.8,0.8,3.2,0.8,3.2c-0.4-0.4-0.4-0.8-0.4-0.8c-0.4,0.4-0.4,0.4-0.8,0.8
		c0.4-1.2,0-3.2,0-3.2H168.8z"/>
	<path style="fill:#F9B54C;" d="M164.4,285.2C164.4,284.8,164.4,284.8,164.4,285.2c-0.4-0.4-0.4-0.4-0.4-0.4
		c0.4-0.8,0.4-2.4,0.4-2.4h0.8C165.2,284,164.4,285.2,164.4,285.2z"/>
</g>
<rect x="153.6" y="253.2" style="fill:#FFFFFF;" width="14.4" height="10"/>
<path style="fill:#FFD05B;" d="M55.6,260c-0.4,3.6-0.4,6.4-0.4,6.4c-1.2,0.8-3.6,4.4-3.6,4.4c-4.8,4-2.4,6.8-2.4,6.8l-0.4,3.2
	c-1.2,1.2-0.4,4-0.4,4c2.4,4.8,4.4,0.8,4.4,0.8c2.8,3.6,4.4-0.8,4.4-0.8c3.2,1.6,4.4-2,4.4-2s6,0.8,4.8-12.8
	c-0.4-3.2-0.4-6.8,0-10.4L55.6,260z"/>
<g>
	<path style="fill:#F9B54C;" d="M60.8,273.6c0-0.8-0.4-2.4-0.4-2.4c0.8,2.8-2,4.4-2,4.4c0.4,0,0.4-1.6,0.4-1.6c-0.4,2.4-4.4,4-4.4,4
		c-0.8-1.6-2-2.4-2-2.4c0.8,1.2,1.2,2.4,1.2,2.4c-0.8,0-1.2,0.8-1.2,0.8c1.2-0.8,1.6,0,1.6,0c-2,0.4-1.2,2-1.2,2
		c0-2,1.2-1.6,1.2-1.6c-1.2,0.8-0.8,2-0.8,2c0-1.6,1.6-1.6,1.6-1.6c-0.8-1.2,0-0.8,0-0.8c1.6-2,2.4,0.4,2.4,1.2c0.4,0,0.4,0,0.4,0.4
		c-1.2-2.4,0-2.8,0-2.8c1.6-1.2,1.6,0.8,1.6,0.8c0,3.6,2.4,5.2,2.4,5.2h0.8c-1.6-0.8-2-2.8-2-2.8c-1.6-3.6,0.4-4,0.4-4
		c3.2-0.4,2.4,2.4,2.4,2.4c1.2,0.4,2.8,0,2.8,0c-0.8,0-1.2-0.8-1.2-0.8c-1.2-1.2,0.8-3.2,0.8-3.2c-0.8,0.8-4.4,0.8-4.4,0.8
		c-1.6,0-0.4-1.6-0.4-1.6l0.8,0.4c0-0.4,0.8-2.8,0.8-2.8C61.6,271.6,60.8,273.2,60.8,273.6z"/>
	<path style="fill:#F9B54C;" d="M49.2,278.8c0,0,0.4,0.4,1.6,2.8c0,0,0.4,0.4,0.4,0.8c0.4,0.8,1.2,1.2,1.6,0.8
		c0.8-0.4,2-0.8,3.2-0.4c0,0,0.8,0,2,0c0.4,0,1.2-0.4,0.8-0.8c-0.4-0.8-0.8-2-2.4-2.4c0,0-2-0.4-2.4,0c0,0,2.8-1.2,4.4,0.8
		c0,0,2,2,0.4,2.4c0,0-4.4,0-4.8,0.4c0,0-2,0.8-2.8-0.4c0,0-0.4-2-2.4-1.6c0,0,0.8-0.4,1.2-0.4C50,280.8,50,279.6,49.2,278.8z"/>
	<path style="fill:#F9B54C;" d="M53.2,283.2c0.4,0.8-0.8,3.2-0.8,3.2c0.4-0.4,0.4-0.8,0.4-0.8c0.4,0.4,0.4,0.4,0.8,0.8
		c-0.4-1.2,0-3.2,0-3.2H53.2z"/>
	<path style="fill:#F9B54C;" d="M57.2,285.2C57.2,284.8,57.6,284.8,57.2,285.2c0.4-0.4,0.4-0.4,0.4-0.4c-0.4-0.8-0.4-2.4-0.4-2.4
		h-0.8C56.4,284,57.2,285.2,57.2,285.2z"/>
</g>
<rect x="53.6" y="253.2" style="fill:#FFFFFF;" width="14.4" height="10"/>
<path style="fill:#2B3B4E;" d="M171.2,259.2h-20.4c0,0-0.4-52,2-62c0,0,0.8-10.4-1.6-18.4c3.6-31.2,12.4-58.8,12.8-59.2
	C164,120,174.4,145.6,171.2,259.2z"/>
<path style="fill:#324A5E;" d="M50,259.2h20.4c0,0,0.4-52-2-62c0,0-0.8-10.4,1.6-18.4c-3.6-31.2-12.4-58.8-12.8-59.2
	C57.2,120,46.8,145.6,50,259.2z"/>
<ellipse style="fill:#F9B54C;" cx="110.8" cy="96.8" rx="13.2" ry="14.4"/>
<g>
	<path style="fill:#FFFFFF;" d="M123.6,94c0,0,2.4,12.4-12.8,17.2c0,0,8.8,2,12.4,12.4C123.2,123.6,133.6,107.2,123.6,94z"/>
	<path style="fill:#FFFFFF;" d="M98,94c0,0-2.4,12.4,12.8,17.2c0,0-8.8,2-12.4,12.4C98,123.6,88,107.2,98,94z"/>
</g>
<path style="fill:#FFD05B;" d="M129.2,83.2c-1.6,5.6-2.4,8.8-2.8,9.2l0,0c-4.4,5.6-9.6,9.6-15.6,9.6c-5.6,0-10.8-3.6-14.8-8.4
	c-8.8-10.8-2.8-30.8-2.8-30.8c4.4,5.2,18.4,5.2,18.4,5.2c-6-0.8-7.2-5.6-7.2-6c1.2,2.8,14.8,4.8,14.8,4.8
	C134,69.2,129.2,83.2,129.2,83.2z"/>
<g>
	<path style="fill:#324A5E;" d="M102.8,42c0,0,19.2-7.6,29.2,10c10.4,18.8-2.8,39.2-5.6,40.8c0,0,0.8-3.2,2.8-9.6c0,0,4.8-14-9.6-16
		c0,0-14-2-14.8-4.8c0,0,1.2,5.2,7.2,6c0,0-14-0.4-18.4-5.2c0,0-6,20,2.8,30.8c0,0-15.2-12.4-13.6-31.2C82.8,62.8,82,36.8,102.8,42z
		"/>
	<path style="fill:#324A5E;" d="M243.6,441.6c0,0,2.4,8.8-1.2,11.2c0,0-3.6,0.8-3.2,6c0,0,0,5.6-7.2,5.2c0,0-19.6,2-22.4-2.4
		c0,0-2-2.4-0.8-6.4l22.8-8.4L243.6,441.6z"/>
</g>
<g>
	<path style="fill:#2B3B4E;" d="M240.8,428.4c0,0,8.4,7.2,2.4,16.8c0,0-4.4,6-4.4,9.2c0,0,0.8,9.6-9.6,7.2c0,0-10.4-7.2-17.2-1.2
		c0,0-5.2-0.4-2.8-7.6c0,0,5.6-7.2,9.2-14c0,0,2-1.6,0.8-6.8L240.8,428.4z"/>
	<path style="fill:#2B3B4E;" d="M264,441.6c0,0-2.4,8.8,1.2,11.2c0,0,3.6,0.8,3.2,6c0,0,0,5.6,7.2,5.2c0,0,19.6,2,22.4-2.4
		c0,0,2-2.4,0.8-6.4l-22.8-8.4L264,441.6z"/>
</g>
<path style="fill:#324A5E;" d="M266.8,428.4c0,0-8.4,7.2-2.4,16.8c0,0,4.4,6,4.4,9.2c0,0-0.8,9.6,9.6,7.2c0,0,10.4-7.2,17.2-1.2
	c0,0,5.2-0.4,2.8-7.6c0,0-5.6-7.2-9.2-14c0,0-2-1.6-0.8-6.8L266.8,428.4z"/>
<polygon style="fill:#E6E9EE;" points="233.2,111.2 252.8,187.6 272.4,111.2 "/>
<polygon style="fill:#F1543F;" points="258.4,119.2 261.2,111.2 246.4,111.2 249.2,119.2 "/>
<polygon style="fill:#FF7058;" points="258.4,119.2 254,119.2 249.2,119.2 239.2,177.6 254,187.2 268.4,177.6 "/>
<path style="fill:#324A5E;" d="M217.2,218c-3.6,20-7.6,55.6-0.8,96.8c0,0,6,95.2,0.4,116.4c0,0,11.2,20,31.2,0
	c0,0,0.4-156.8,6-163.2v-50H217.2z"/>
<path style="fill:#2B3B4E;" d="M253.6,218v50c5.2,6.4,6,163.2,6,163.2c20,20,31.2,0,31.2,0c-5.6-20.8,0.4-116.4,0.4-116.4
	c6.8-41.2,2.8-76.8-0.8-96.8H253.6z"/>
<polygon style="fill:#CED5E0;" points="269.2,100.4 238,100.4 233.6,111.2 272,111.2 "/>
<path style="fill:#2B3B4E;" d="M234.8,107.2L200,120c0,0,21.2,64,11.6,107.2c0,0-3.6,21.6-0.8,38.8c0,0,24,17.6,33.6,1.2
	c0,0,12.4-38.8,10.4-76.4L244,161.6L234.8,107.2z"/>
<g>
	<path style="fill:#324A5E;" d="M238,100.4l-16.8,18l6.4,2.8l-4.8,4.8c0,0,15.6,48,32,64.8C254.8,190.8,237.2,116,238,100.4z"/>
	<path style="fill:#324A5E;" d="M272.4,107.2l34.8,12.8c0,0-21.2,64-11.6,107.2c0,0,3.6,21.6,0.8,38.8c0,0-24,17.6-33.6,1.2
		c0,0-12.4-38.8-10.4-76.4l10.8-29.2L272.4,107.2z"/>
</g>
<g>
	<path style="fill:#2B3B4E;" d="M269.2,100.4l16.8,18l-6.4,2.8l4.8,4.4c0,0-15.6,48-32,64.8C252.4,190.8,270.4,116,269.2,100.4z"/>
	<circle style="fill:#2B3B4E;" cx="258.8" cy="194" r="3.6"/>
</g>
<polygon style="fill:#FF7058;" points="275.2,166 280.8,156 290,162.8 "/>
<rect x="272.817" y="162.753" transform="matrix(-0.9789 0.2042 -0.2042 -0.9789 593.0042 269.1134)" style="fill:#2B3B4E;" width="19.599" height="4.8"/>
<path style="fill:#FFD05B;" d="M309.2,260c0.4,3.6,0.4,6.4,0.4,6.4c1.2,0.8,3.6,4.4,3.6,4.4c4.8,4,2.4,6.8,2.4,6.8l0.4,3.2
	c1.2,1.2,0.4,4,0.4,4c-2.4,4.8-4.4,0.8-4.4,0.8c-2.8,3.6-4.4-0.8-4.4-0.8c-3.2,1.6-4.4-2-4.4-2s-6,0.8-4.8-12.8
	c0.4-3.2,0.4-6.8,0-10.4L309.2,260z"/>
<g>
	<path style="fill:#F9B54C;" d="M304,273.6c0-0.8,0.4-2.4,0.4-2.4c-0.8,2.8,2,4.4,2,4.4c-0.4,0-0.4-1.6-0.4-1.6c0.4,2.4,4.4,4,4.4,4
		c0.8-1.6,2-2.4,2-2.4c-0.8,1.2-1.2,2.4-1.2,2.4c0.8,0,1.2,0.8,1.2,0.8c-1.2-0.8-1.6,0-1.6,0c2,0.4,1.2,2,1.2,2c0-2-1.2-1.6-1.2-1.6
		c1.2,0.8,0.8,2,0.8,2c0-1.6-1.6-1.6-1.6-1.6c0.8-1.2,0-0.8,0-0.8c-1.6-2-2.4,0.4-2.4,1.2c-0.4,0-0.4,0-0.4,0.4c1.2-2.4,0-2.8,0-2.8
		c-1.6-1.2-1.6,0.8-1.6,0.8c0,3.6-2.4,5.2-2.4,5.2h-0.8c1.6-0.8,2-2.8,2-2.8c1.6-3.6-0.4-4-0.4-4c-3.2-0.4-2.4,2.4-2.4,2.4
		c-1.2,0.4-2.8,0-2.8,0c0.8,0,1.2-0.8,1.2-0.8c1.2-1.2-0.8-3.2-0.8-3.2c0.8,0.8,4.4,0.8,4.4,0.8c1.6,0,0.4-1.6,0.4-1.6l-0.8,0.4
		c0-0.4-0.8-2.8-0.8-2.8C303.2,271.6,304,273.2,304,273.6z"/>
	<path style="fill:#F9B54C;" d="M315.6,278.8c0,0-0.4,0.4-1.6,2.8c0,0-0.4,0.4-0.4,0.8c-0.4,0.8-1.2,1.2-1.6,0.8
		c-0.8-0.4-2-0.8-3.2-0.4c0,0-0.8,0-2,0c-0.4,0-1.2-0.4-0.8-0.8c0.4-0.8,0.8-2,2.4-2.4c0,0,2-0.4,2.4,0c0,0-2.8-1.2-4.4,0.8
		c0,0-2,2-0.4,2.4c0,0,4.4,0,4.8,0.4c0,0,2,0.8,2.8-0.4c0,0,0.4-2,2.4-1.6c0,0-0.8-0.4-1.2-0.4C314.8,280.8,314.8,279.6,315.6,278.8
		z"/>
	<path style="fill:#F9B54C;" d="M312,283.2c-0.4,0.8,0.8,3.2,0.8,3.2c-0.4-0.4-0.4-0.8-0.4-0.8c-0.4,0.4-0.4,0.4-0.8,0.8
		c0.4-1.2,0-3.2,0-3.2H312z"/>
	<path style="fill:#F9B54C;" d="M307.6,285.2C307.6,284.8,307.6,284.8,307.6,285.2c-0.4-0.4-0.4-0.4-0.4-0.4
		c0.4-0.8,0.4-2.4,0.4-2.4h0.8C308.4,284,307.6,285.2,307.6,285.2z"/>
</g>
<rect x="296.8" y="253.2" style="fill:#FFFFFF;" width="14.4" height="10"/>
<path style="fill:#FFD05B;" d="M198.8,260c-0.4,3.6-0.4,6.4-0.4,6.4c-1.2,0.8-3.6,4.4-3.6,4.4c-4.8,4-2.4,6.8-2.4,6.8l-0.4,3.2
	c-1.2,1.2-0.4,4-0.4,4c2.4,4.8,4.4,0.8,4.4,0.8c2.8,3.6,4.4-0.8,4.4-0.8c3.2,1.6,4.4-2,4.4-2s6,0.8,4.8-12.8
	c-0.4-3.2-0.4-6.8,0-10.4L198.8,260z"/>
<g>
	<path style="fill:#F9B54C;" d="M204,273.6c0-0.8-0.4-2.4-0.4-2.4c0.8,2.8-2,4.4-2,4.4c0.4,0,0.4-1.6,0.4-1.6c-0.4,2.4-4.4,4-4.4,4
		c-0.8-1.6-2-2.4-2-2.4c0.8,1.2,1.2,2.4,1.2,2.4c-0.8,0-1.2,0.8-1.2,0.8c1.2-0.8,1.6,0,1.6,0c-2,0.4-1.2,2-1.2,2
		c0-2,1.2-1.6,1.2-1.6c-1.2,0.8-0.8,2-0.8,2c0-1.6,1.6-1.6,1.6-1.6c-0.8-1.2,0-0.8,0-0.8c1.6-2,2.4,0.4,2.4,1.2c0.4,0,0.4,0,0.4,0.4
		c-1.2-2.4,0-2.8,0-2.8c1.6-1.2,1.6,0.8,1.6,0.8c0,3.6,2.4,5.2,2.4,5.2h0.8c-1.6-0.8-2-2.8-2-2.8c-1.6-3.6,0.4-4,0.4-4
		c3.2-0.4,2.4,2.4,2.4,2.4c1.2,0.4,2.8,0,2.8,0c-0.8,0-1.2-0.8-1.2-0.8c-1.2-1.2,0.8-3.2,0.8-3.2c-0.8,0.8-4.4,0.8-4.4,0.8
		c-1.6,0-0.4-1.6-0.4-1.6l0.8,0.4c0-0.4,0.8-2.8,0.8-2.8C204.8,271.6,204,273.2,204,273.6z"/>
	<path style="fill:#F9B54C;" d="M192.4,278.8c0,0,0.4,0.4,1.6,2.8c0,0,0.4,0.4,0.4,0.8c0.4,0.8,1.2,1.2,1.6,0.8
		c0.8-0.4,2-0.8,3.2-0.4c0,0,0.8,0,2,0c0.4,0,1.2-0.4,0.8-0.8c-0.4-0.8-0.8-2-2.4-2.4c0,0-2-0.4-2.4,0c0,0,2.8-1.2,4.4,0.8
		c0,0,2,2,0.4,2.4c0,0-4.4,0-4.8,0.4c0,0-2,0.8-2.8-0.4c0,0-0.4-2-2.4-1.6c0,0,0.8-0.4,1.2-0.4C193.2,280.8,193.2,279.6,192.4,278.8
		z"/>
	<path style="fill:#F9B54C;" d="M196,283.2c0.4,0.8-0.8,3.2-0.8,3.2c0.4-0.4,0.4-0.8,0.4-0.8c0.4,0.4,0.4,0.4,0.8,0.8
		c-0.4-1.2,0-3.2,0-3.2H196z"/>
	<path style="fill:#F9B54C;" d="M200.4,285.2C200.4,284.8,200.4,284.8,200.4,285.2c0.4-0.4,0.4-0.4,0.4-0.4
		c-0.4-0.8-0.4-2.4-0.4-2.4h-0.8C199.6,284,200.4,285.2,200.4,285.2z"/>
</g>
<rect x="196.8" y="253.2" style="fill:#FFFFFF;" width="14.4" height="10"/>
<path style="fill:#2B3B4E;" d="M314.4,259.2H294c0,0-0.4-52,2-62c0,0,0.8-10.4-1.6-18.4c3.6-31.2,12.4-58.8,12.8-59.2
	C307.2,120,317.2,145.6,314.4,259.2z"/>
<path style="fill:#324A5E;" d="M193.2,259.2h20.4c0,0,0.4-52-2-62c0,0-0.8-10.4,1.6-18.4c-3.6-31.2-12.4-58.8-12.8-59.2
	C200.4,120,190,145.6,193.2,259.2z"/>
<ellipse style="fill:#F9B54C;" cx="254" cy="96.8" rx="13.2" ry="14.4"/>
<g>
	<path style="fill:#FFFFFF;" d="M266.8,94c0,0,2.4,12.4-12.8,17.2c0,0,8.8,2,12.4,12.4C266.4,123.6,276.4,107.2,266.8,94z"/>
	<path style="fill:#FFFFFF;" d="M240.8,94c0,0-2.4,12.4,12.8,17.2c0,0-8.8,2-12.4,12.4C241.2,123.6,231.2,107.2,240.8,94z"/>
</g>
<path style="fill:#FFD05B;" d="M272.4,83.2c-1.6,5.6-2.4,8.8-2.8,9.2l0,0C265.2,98,260,102,254,102c-5.6,0-10.8-3.6-14.8-8.4
	c-8.8-10.8-2.8-30.8-2.8-30.8c4.4,5.2,18.4,5.2,18.4,5.2c-6-0.8-7.2-5.6-7.2-6c1.2,2.8,14.8,4.8,14.8,4.8
	C277.2,69.2,272.4,83.2,272.4,83.2z"/>
<g>
	<path style="fill:#324A5E;" d="M246,42c0,0,19.2-7.6,29.2,10c10.4,18.8-2.8,39.2-5.6,40.8c0,0,0.8-3.2,2.8-9.6c0,0,4.8-14-9.6-16
		c0,0-14-2-14.8-4.8c0,0,1.2,5.2,7.2,6c0,0-14-0.4-18.4-5.2c0,0-6,20,2.8,30.8c0,0-15.2-12.4-13.6-31.2C226,62.8,225.2,36.8,246,42z
		"/>
	<path style="fill:#324A5E;" d="M385.6,452.8c0,0-3.6,0.8-3.2,5.6c0,0,0,5.6-7.2,5.2c0,0-19.6,2-22.4-2.4c0,0-1.6-2-1.2-4.8
		c0.4,3.2,3.2,3.6,3.2,3.6c6.8-6,17.2,1.2,17.2,1.2c10,2,9.6-7.2,9.6-7.2c0-3.2,4.4-9.2,4.4-9.2c0.4-0.4,0.8-1.2,0.8-1.6
		C387.6,446,388,451.2,385.6,452.8z"/>
</g>
<g>
	<path style="fill:#2B3B4E;" d="M384,428.4c0,0,8.4,7.2,2.4,16.8c0,0-4.4,6-4.4,9.2c0,0,0.8,9.6-9.6,7.2c0,0-10.4-7.2-17.2-1.2
		c0,0-5.2-0.4-2.8-7.6c0,0,5.6-7.2,9.2-14c0,0,2-1.6,0.8-6.8L384,428.4z"/>
	<path style="fill:#2B3B4E;" d="M441.2,461.6c-2.8,4.4-22.4,2.4-22.4,2.4c-7.6,0-7.2-5.2-7.2-5.2c0.4-4.8-3.2-5.6-3.2-5.6
		c-2.4-1.6-2-6.8-1.6-9.6c0.4,0.4,0.4,1.2,0.8,1.6c0,0,4.4,6,4.4,9.2c0,0-0.4,9.6,9.6,7.2c0,0,10.4-7.2,17.2-1.2
		c0,0,2.8-0.4,3.2-3.6C442.8,460,441.2,461.6,441.2,461.6z"/>
</g>
<path style="fill:#324A5E;" d="M438.8,460c-6.8-6-17.2,1.2-17.2,1.2c-10,2-9.6-7.2-9.6-7.2c0-3.2-4.4-9.2-4.4-9.2
	c-2.8-4-2.4-8-1.6-10.8c12.4,10,20.8,4.8,25.2,0.4c0,2.8,1.2,3.6,1.2,3.6c3.6,6.8,9.2,14,9.2,14C444,459.6,438.8,460,438.8,460z"/>
<polygon style="fill:#E6E9EE;" points="376,111.2 396,187.6 415.6,111.2 "/>
<polygon style="fill:#F1543F;" points="401.6,119.2 404.4,111.2 389.6,111.2 392.4,119.2 "/>
<polygon style="fill:#FF7058;" points="401.6,119.2 396.8,119.2 392.4,119.2 382.4,177.6 396.8,187.2 411.6,177.6 "/>
<path id="SVGCleanerId_0" style="fill:#324A5E;" d="M360,218c-3.6,20-7.6,55.6-0.8,96.8c0,0,6,95.2,0.4,116.4c0,0,11.2,20,31.2,0
	c0,0,0.4-156.8,6-163.2v-50H360z"/>
<g>
	<path id="SVGCleanerId_0_1_" style="fill:#324A5E;" d="M360,218c-3.6,20-7.6,55.6-0.8,96.8c0,0,6,95.2,0.4,116.4
		c0,0,11.2,20,31.2,0c0,0,0.4-156.8,6-163.2v-50H360z"/>
</g>
<path style="fill:#2B3B4E;" d="M396.8,218v50c5.2,6.4,6,163.2,6,163.2c20,20,31.2,0,31.2,0c-5.6-20.8,0.4-116.4,0.4-116.4
	c6.8-41.6,2.8-76.8-0.8-96.8L396.8,218L396.8,218z"/>
<polygon style="fill:#CED5E0;" points="412.4,100.4 381.2,100.4 376.8,111.2 414.8,111.2 "/>
<path style="fill:#2B3B4E;" d="M378,107.2L343.2,120c0,0,21.2,64,11.6,107.2c0,0-3.6,21.6-0.8,38.8c0,0,24,17.6,33.6,1.2
	c0,0,12.4-38.8,10.4-76.4l-10.8-29.2L378,107.2z"/>
<g>
	<path style="fill:#324A5E;" d="M381.2,100.4l-16.8,18l6.4,2.8L366,126c0,0,15.6,48,32,64.8C398,190.8,380.4,116,381.2,100.4z"/>
	<path style="fill:#324A5E;" d="M438.4,227.2c0,0,3.6,21.6,0.8,38.8c0,0-24,17.6-33.6,1.2c0,0-12.4-38.8-10.4-76.4
		c16.4-16.8,32-64.8,32-64.8l-4.8-4.4l6.4-2.8l-9.2-9.6l30,11.2C450.4,120,429.2,184,438.4,227.2z"/>
</g>
<g>
	<path style="fill:#2B3B4E;" d="M412.4,100.4l16.8,18l-6.4,2.8l4.8,4.4c0,0-15.6,48-32,64.8C395.6,190.8,413.2,116,412.4,100.4z"/>
	<circle style="fill:#2B3B4E;" cx="401.6" cy="194" r="3.6"/>
</g>
<polygon style="fill:#FF7058;" points="418,166 424,156 432.8,162.8 "/>
<rect x="415.608" y="162.817" transform="matrix(-0.9789 0.2042 -0.2042 -0.9789 875.5903 240.0817)" style="fill:#2B3B4E;" width="19.599" height="4.8"/>
<path style="fill:#FFD05B;" d="M452.4,260c0.4,3.6,0.4,6.4,0.4,6.4c1.2,0.8,3.6,4.4,3.6,4.4c4.8,4,2.4,6.8,2.4,6.8l0.4,3.2
	c1.2,1.2,0.4,4,0.4,4c-2.4,4.8-4.4,0.8-4.4,0.8c-2.8,3.6-4.4-0.8-4.4-0.8c-3.2,1.6-4.4-2-4.4-2s-6,0.8-4.8-12.8
	c0.4-3.2,0.4-6.8,0-10.4L452.4,260z"/>
<g>
	<path style="fill:#F9B54C;" d="M447.2,273.6c0-0.8,0.4-2.4,0.4-2.4c-0.8,2.8,2,4.4,2,4.4c-0.4,0-0.4-1.6-0.4-1.6
		c0.4,2.4,4.4,4,4.4,4c0.8-1.6,2-2.4,2-2.4c-0.8,1.2-1.2,2.4-1.2,2.4c0.8,0,1.2,0.8,1.2,0.8c-1.2-0.8-1.6,0-1.6,0c2,0.4,1.2,2,1.2,2
		c0-2-1.2-1.6-1.2-1.6c1.2,0.8,0.8,2,0.8,2c0-1.6-1.6-1.6-1.6-1.6c0.8-1.2,0-0.8,0-0.8c-1.6-2-2.4,0.4-2.4,1.2c-0.4,0-0.4,0-0.4,0.4
		c1.2-2.4,0-2.8,0-2.8c-1.6-1.2-1.6,0.8-1.6,0.8c0,3.6-2.4,5.2-2.4,5.2h-0.8c1.6-0.8,2-2.8,2-2.8c1.6-3.6-0.4-4-0.4-4
		c-3.2-0.4-2.4,2.4-2.4,2.4c-1.2,0.4-2.8,0-2.8,0c0.8,0,1.2-0.8,1.2-0.8c1.2-1.2-0.8-3.2-0.8-3.2c0.8,0.8,4.4,0.8,4.4,0.8
		c1.6,0,0.4-1.6,0.4-1.6l-0.8,0.4c0-0.4-0.8-2.8-0.8-2.8C446.4,271.6,447.2,273.2,447.2,273.6z"/>
	<path style="fill:#F9B54C;" d="M458.8,278.8c0,0-0.8,0.4-1.6,2.8c0,0-0.4,0.4-0.4,0.8c-0.4,0.8-1.2,1.2-1.6,0.8
		c-0.8-0.4-2-0.8-3.2-0.4c0,0-0.8,0-2,0c-0.4,0-1.2-0.4-0.8-0.8c0.4-0.8,0.8-2,2.4-2.4c0,0,2-0.4,2.4,0c0,0-2.8-1.2-4.4,0.8
		c0,0-2,2-0.4,2.4c0,0,4.4,0,4.8,0.4c0,0,2,0.8,2.8-0.4c0,0,0.4-2,2.4-1.6c0,0-0.8-0.4-1.2-0.4C458,280.8,458,279.6,458.8,278.8z"/>
	<path style="fill:#F9B54C;" d="M454.8,283.2c-0.4,0.8,0.8,3.2,0.8,3.2c-0.4-0.4-0.4-0.8-0.4-0.8c-0.4,0.4-0.4,0.4-0.8,0.8
		c0.4-1.2,0-3.2,0-3.2H454.8z"/>
	<path style="fill:#F9B54C;" d="M450.8,285.2C450.8,284.8,450.4,284.8,450.8,285.2c-0.4-0.4-0.4-0.4-0.4-0.4
		c0.4-0.8,0.4-2.4,0.4-2.4h0.8C451.6,284,450.8,285.2,450.8,285.2z"/>
</g>
<rect x="440" y="253.2" style="fill:#FFFFFF;" width="14.4" height="10"/>
<path style="fill:#FFD05B;" d="M341.6,260c-0.4,3.6-0.4,6.4-0.4,6.4c-1.2,0.8-3.6,4.4-3.6,4.4c-4.8,4-2.4,6.8-2.4,6.8l-0.4,3.2
	c-1.2,1.2-0.4,4-0.4,4c2.4,4.8,4.4,0.8,4.4,0.8c2.8,3.6,4.4-0.8,4.4-0.8c3.2,1.6,4.4-2,4.4-2s6,0.8,4.8-12.8
	c-0.4-3.2-0.4-6.8,0-10.4L341.6,260z"/>
<g>
	<path style="fill:#F9B54C;" d="M346.8,273.6c0-0.8-0.4-2.4-0.4-2.4c0.8,2.8-2,4.4-2,4.4c0.4,0,0.4-1.6,0.4-1.6
		c-0.4,2.4-4.4,4-4.4,4c-0.8-1.6-2-2.4-2-2.4c0.8,1.2,1.2,2.4,1.2,2.4c-0.8,0-1.2,0.8-1.2,0.8c1.2-0.8,1.6,0,1.6,0
		c-2,0.4-1.2,2-1.2,2c0-2,1.2-1.6,1.2-1.6c-1.2,0.8-0.8,2-0.8,2c0-1.6,1.6-1.6,1.6-1.6c-0.8-1.2,0-0.8,0-0.8c1.6-2,2.4,0.4,2.4,1.2
		c0.4,0,0.4,0,0.4,0.4c-1.2-2.4,0-2.8,0-2.8c1.6-1.2,1.6,0.8,1.6,0.8c0,3.6,2.4,5.2,2.4,5.2h0.8c-1.6-0.8-2-2.8-2-2.8
		c-1.6-3.6,0.4-4,0.4-4c3.2-0.4,2.4,2.4,2.4,2.4c1.2,0.4,2.8,0,2.8,0c-0.8,0-1.2-0.8-1.2-0.8c-1.2-1.2,0.8-3.2,0.8-3.2
		c-0.8,0.8-4.4,0.8-4.4,0.8c-1.6,0-0.4-1.6-0.4-1.6l0.8,0.4c0-0.4,0.8-2.8,0.8-2.8C348,271.6,347.2,273.2,346.8,273.6z"/>
	<path style="fill:#F9B54C;" d="M335.6,278.8c0,0,0.4,0.4,1.6,2.8c0,0,0.4,0.4,0.4,0.8c0.4,0.8,1.2,1.2,1.6,0.8
		c0.8-0.4,2-0.8,3.2-0.4c0,0,0.8,0,2,0c0.4,0,1.2-0.4,0.8-0.8c-0.4-0.8-0.8-2-2.4-2.4c0,0-2-0.4-2.4,0c0,0,2.8-1.2,4.4,0.8
		c0,0,2,2,0.4,2.4c0,0-4.4,0-4.8,0.4c0,0-2,0.8-2.8-0.4c0,0-0.4-2-2.4-1.6c0,0,0.8-0.4,1.2-0.4C336.4,280.8,336,279.6,335.6,278.8z"
		/>
	<path style="fill:#F9B54C;" d="M339.2,283.2c0.4,0.8-0.8,3.2-0.8,3.2c0.4-0.4,0.4-0.8,0.4-0.8c0.4,0.4,0.4,0.4,0.8,0.8
		c-0.4-1.2,0-3.2,0-3.2H339.2z"/>
	<path style="fill:#F9B54C;" d="M343.6,285.2C343.6,284.8,343.6,284.8,343.6,285.2c0.4-0.4,0.4-0.4,0.4-0.4
		c-0.4-0.8-0.4-2.4-0.4-2.4h-0.8C342.8,284,343.6,285.2,343.6,285.2z"/>
</g>
<rect x="340" y="253.2" style="fill:#FFFFFF;" width="14.4" height="10"/>
<path style="fill:#2B3B4E;" d="M457.2,259.2h-20.4c0,0-0.4-52,2-62c0,0,0.8-10.4-1.6-18.4c3.6-31.2,12.4-58.8,12.8-59.2
	C450.4,120,460.4,145.6,457.2,259.2z"/>
<path style="fill:#324A5E;" d="M336.4,259.2h20.4c0,0,0.4-52-2-62c0,0-0.8-10.4,1.6-18.4c-3.6-31.2-12.4-58.8-12.8-59.2
	C343.2,120,333.2,145.6,336.4,259.2z"/>
<path style="fill:#F9B54C;" d="M410,96c0,3.6-1.6,11.6-12.8,15.2h-0.4c-12-3.6-12.8-12.4-12.8-15.6c3.6,4.4,8.4,6.8,13.2,6.8
	C402,102.4,406.4,100,410,96z"/>
<g>
	<path style="fill:#FFFFFF;" d="M410,94c0,0,2.4,12.4-12.8,17.2c0,0,8.8,2,12.4,12.4C409.6,123.6,419.6,107.2,410,94z"/>
	<path style="fill:#FFFFFF;" d="M384,94c0,0-2.4,12.4,12.8,17.2c0,0-8.8,2-12.4,12.4C384.4,123.6,374.4,107.2,384,94z"/>
</g>
<path style="fill:#FFD05B;" d="M415.6,83.2c-1.6,5.6-2.4,8.8-2.8,9.2l0,0c-4.4,5.6-9.6,9.6-15.6,9.6c-5.6,0-10.8-3.6-14.8-8.4
	c-8.8-10.8-2.8-30.8-2.8-30.8C384,68,398,68,398,68c-6-0.8-7.2-5.6-7.2-6c1.2,2.8,14.8,4.8,14.8,4.8
	C420.4,69.2,415.6,83.2,415.6,83.2z"/>
<path style="fill:#324A5E;" d="M389.2,42c0,0,19.2-7.6,29.2,10c10.4,18.8-2.8,39.2-5.6,40.8c0,0,0.8-3.2,2.8-9.6c0,0,4.8-14-9.6-16
	c0,0-14-2-14.8-4.8c0,0,1.2,5.2,7.2,6c0,0-14-0.4-18.4-5.2c0,0-6,20,2.8,30.8c0,0-15.2-12.4-13.6-31.2
	C369.2,62.8,368.4,36.8,389.2,42z"/>
<g>
</g>
<g>
</g>
<g>
</g>
<g>
</g>
<g>
</g>
<g>
</g>
<g>
</g>
<g>
</g>
<g>
</g>
<g>
</g>
<g>
</g>
<g>
</g>
<g>
</g>
<g>
</g>
<g>
</g>
</svg>
