<?xml version="1.0" encoding="iso-8859-1"?>
<!-- Generator: Adobe Illustrator 19.0.0, SVG Export Plug-In . SVG Version: 6.00 Build 0)  -->
<svg version="1.1" id="Layer_1" xmlns="http://www.w3.org/2000/svg" xmlns:xlink="http://www.w3.org/1999/xlink" x="0px" y="0px"
	 viewBox="0 0 508 508" style="enable-background:new 0 0 508 508;" xml:space="preserve">
<circle style="fill:#324A5E;" cx="254" cy="254" r="254"/>
<path style="fill:#2B3B4E;" d="M25.2,364c41.2,85.2,128,144,228.8,144s188-58.8,228.8-144H25.2z"/>
<path style="fill:#FFD05B;" d="M134,113.6c0,0,4.4,11.6-4.8,15.2l20.4,15.6c0,0-0.8-4.8,4.8-7.6c0,0,3.2-4,0.8-7.6
	c0,0,12,4.8,11.6-2.4c0,0-1.6-6.8,1.6-10.8l3.6-2.8c0,0-4.8-5.2-5.2-8c0,0,0-1.6,0.4-1.6c4-0.4,0-6.8,0-6.8s1.6-8-2.8-12.8
	c0,0-25.6-4.4-27.2,19.2L134,113.6z"/>
<path style="fill:#FFFFFF;" d="M136.4,80c-16.4,9.2-4,29.6-4,29.6c1.6,4,2.4,7.2,2.4,9.6l0,0c3.2,0,6-2.8,6-6s-0.4-6-0.4-6
	c0.4-12.4,10-3.2,10-3.2l2-0.8c-2.8-13.2,14.4-14,14.4-14c8.8-7.6-6-9.6-14.8-11.2C146.8,76.8,141.2,77.6,136.4,80z"/>
<path style="fill:#FFD05B;" d="M170.8,399.2c0,0,0,10.4,3.2,21.2c0,0,42.8,4.8,27.6-16.8c0,0-9.2,4.4-14-6.8L170.8,399.2z"/>
<path style="fill:#FF7058;" d="M201.6,404c0,0,14,1.6,20.4-2c1.6-0.8,3.2,0,3.6,2l0.8,3.6c0,0-23.6,23.6-47.2,22
	c0,0-5.6-2.8-5.6-8.8C173.6,420.4,210,418,201.6,404z"/>
<path style="fill:#FFD05B;" d="M93.2,390c0,0-6.4,8.4-10.4,18.8c0,0,31.2,29.6,32,3.6c0,0-10-2-7.2-13.6L93.2,390z"/>
<path style="fill:#FF7058;" d="M114.8,412.4c0,0,10.4,9.6,17.6,10.8c1.6,0.4,2.4,2,1.6,3.6l-1.6,3.6c0,0-33.2,4.4-50.8-11.2
	c0,0-2.8-5.6,1.2-10.4C82.4,408.8,112.8,428.8,114.8,412.4z"/>
<path style="fill:#FFD05B;" d="M137.2,181.2c0,0,5.6,13.2,17.2,19.6c0,0-4.8,8.8,46.4,41.6c0,0,8.8,24.4,27.6,14
	c0,0-0.8-19.2-20.8-22.4c0,0-12-6-18.4-16c0,0-10.4-16.4-21.6-18.4c0,0,1.2-20.4-8.4-27.6c0,0-6-12-19.6-2
	C139.6,170.4,132.4,173.2,137.2,181.2z"/>
<path style="fill:#2C9984;" d="M148.4,141.6l-19.2-12.8c0,0-2,0.4-4.8,3.2c-6.4,7.2-16,30-6.4,102.4l45.2,17.6
	C163.2,252,179.2,158.8,148.4,141.6z"/>
<path style="fill:#F1543F;" d="M154,254h-45.6c0.8,6,3.2,10.4,3.2,10.4c8.8,22.8,2,57.2,2,57.2c-10.4,17.6-30.4,75.2-30.4,75.2
	c11.2,10,24,6.8,24,6.8c1.6-12.4,20-56.4,20-56.4c9.2-8.4,11.6-14.4,11.6-18.4c0.4-6,2-11.6,4.8-16.8c11.6-22.4,14.8-46.4,14.8-46.4
	C158,262,156.4,258,154,254z"/>
<path style="fill:#FF7058;" d="M163.2,252c0,0,9.2,21.6,10,46.8c0.4,6,1.6,12,4.4,17.6c1.6,3.6,2.8,10-1.2,21.6
	c0,0,6,47.2,10.8,58.8c0,0-9.6,9.2-24,6c0,0-11.6-60-11.2-80.4c0,0-11.2-33.6-30.4-48.8c0,0-27.6-18-4-40
	C118,234.4,154,238.8,163.2,252z"/>
<path style="fill:#FFD05B;" d="M100,166.4c0,0-7.2,12.4-4.4,25.6c0,0-10,2-3.2,62c0,0-13.6,22.4,6.4,30.4c0,0,14.4-12.8,4.4-30.4
	c0,0-2.8-13.2,1.2-24.4c0,0,6.4-18.4,0.8-28.4c0,0,16.8-11.6,16-23.6c0,0,5.6-12-10.8-16.4C110,161.6,103.6,157.6,100,166.4z"/>
<path style="fill:#2C9984;" d="M129.2,128.8c0,0-22,6.4-29.2,37.6c0,0,15.2-1.6,20.8,11.6C120.8,177.6,136,142.4,129.2,128.8z"/>
<path style="fill:#FFD05B;" d="M408,166.4c0,0,7.2,12.4,4.4,25.6c0,0,10,2,3.2,62c0,0,13.6,22.4-6.4,30.4c0,0-14.4-12.8-4.4-30.4
	c0,0,2.8-13.2-1.2-24.4c0,0-6.4-18.4-0.8-28.4c0,0-16.8-11.6-16-23.6c0,0-5.6-12,10.8-16.4C398,161.6,404.4,157.6,408,166.4z"/>
<path id="SVGCleanerId_0" style="fill:#54C0EB;" d="M378.8,128.8c0,0,22,6.4,29.2,37.6c0,0-15.2-1.6-20.8,11.6
	C387.2,177.6,372,142.4,378.8,128.8z"/>
<g>
	<path id="SVGCleanerId_0_1_" style="fill:#54C0EB;" d="M378.8,128.8c0,0,22,6.4,29.2,37.6c0,0-15.2-1.6-20.8,11.6
		C387.2,177.6,372,142.4,378.8,128.8z"/>
</g>
<path style="fill:#FFD05B;" d="M374,113.6c0,0-4.4,11.6,4.8,15.2l-20.4,15.6c0,0,0.8-4.8-4.8-7.6c0,0-3.2-4-0.8-7.6
	c0,0-12,4.8-11.6-2.4c0,0,1.6-6.8-1.6-10.8l-3.6-2.8c0,0,4.8-5.2,5.2-8c0,0,0-1.6-0.4-1.6c-4-0.4,0-6.8,0-6.8s-1.6-8,2.8-12.8
	c0,0,25.6-4.4,27.2,19.2L374,113.6z"/>
<path style="fill:#FF7058;" d="M371.6,80c16.4,9.2,4,29.6,4,29.6c-1.6,4-2.4,7.2-2.4,9.6l0,0c-3.2,0-6-2.8-6-6s0.4-6,0.4-6
	c-0.4-12.4-10-3.2-10-3.2l-2-0.8c2.8-13.2-14.4-14-14.4-14c-8.8-7.6,6-9.6,14.8-11.2C361.2,76.8,366.8,77.6,371.6,80z"/>
<path style="fill:#FFD05B;" d="M337.2,399.2c0,0,0,10.4-3.2,21.2c0,0-42.8,4.8-27.6-16.8c0,0,9.2,4.4,14-6.8L337.2,399.2z"/>
<path style="fill:#E6E9EE;" d="M306.4,404c0,0-14,1.6-20.4-2c-1.6-0.8-3.2,0-3.6,2l-0.8,3.6c0,0,23.6,23.6,47.2,22
	c0,0,5.6-2.8,5.6-8.8C334.4,420.4,298,418,306.4,404z"/>
<path style="fill:#FFD05B;" d="M414.8,390c0,0,6.4,8.4,10.4,18.8c0,0-31.2,29.6-32,3.6c0,0,10-2,7.2-13.6L414.8,390z"/>
<path style="fill:#E6E9EE;" d="M393.2,412.4c0,0-10.4,9.6-17.6,10.8c-1.6,0.4-2.4,2-1.6,3.6l1.6,3.6c0,0,33.2,4.4,50.8-11.2
	c0,0,2.8-5.6-1.2-10.4C425.6,408.8,395.2,428.8,393.2,412.4z"/>
<path style="fill:#54C0EB;" d="M424.8,396.8c-11.2,10-24,6.8-24,6.8c-1.6-12.4-20-56.4-20-56.4c-9.2-8.4-11.6-14.4-11.6-18.4
	c-0.4-6-2-11.6-4.8-16.8c-0.8-1.2-1.6-2.8-2-4.4l0,0c5.2-10.8,13.2-25.2,24-33.6c0,0,8-5.2,11.6-13.6c-0.8,2.4-1.6,3.6-1.6,3.6
	c-8.8,22.8-2,57.2-2,57.2C404.8,339.2,424.8,396.8,424.8,396.8z"/>
<path style="fill:#84DBFF;" d="M390,234.4c24.4-90-11.2-105.6-11.2-105.6l-19.2,12.8C328.8,158.8,344.8,252,344.8,252
	s-9.2,21.6-10,46.8c-0.4,6-1.6,12-4.4,17.6c-1.6,3.6-2.8,10,1.2,21.6c0,0-6,47.2-10.8,58.8c0,0,9.6,9.2,24,6c0,0,11.6-60,11.2-80.4
	c0,0,11.2-33.6,30.4-48.8C386,274.4,413.6,256.4,390,234.4z"/>
<path style="fill:#FFD05B;" d="M353.6,200.8c0,0,4.8,8.8-46.4,41.6c0,0-8.8,24.4-27.6,14c0,0,0.8-19.2,20.8-22.4c0,0,12-5.6,18.4-16
	c0,0,10.4-16.4,21.6-18.4c0,0-1.2-20.4,8.4-27.6c0,0,1.2-2.4,4-4.4c3.6,2,11.6,7.2,13.6,20.8C364,192.8,359.6,197.6,353.6,200.8z"/>
<g>
</g>
<g>
</g>
<g>
</g>
<g>
</g>
<g>
</g>
<g>
</g>
<g>
</g>
<g>
</g>
<g>
</g>
<g>
</g>
<g>
</g>
<g>
</g>
<g>
</g>
<g>
</g>
<g>
</g>
</svg>
