<?xml version="1.0" encoding="iso-8859-1"?>
<!-- Generator: Adobe Illustrator 19.0.0, SVG Export Plug-In . SVG Version: 6.00 Build 0)  -->
<svg version="1.1" id="Layer_1" xmlns="http://www.w3.org/2000/svg" xmlns:xlink="http://www.w3.org/1999/xlink" x="0px" y="0px"
	 viewBox="0 0 508 508" style="enable-background:new 0 0 508 508;" xml:space="preserve">
<circle style="fill:#FFD05B;" cx="254" cy="254" r="254"/>
<g>
	<path style="fill:#324A5E;" d="M107.2,259.2c-0.8-0.4-1.6-0.4-2.8-0.8v-1.6C106.4,258,107.2,259.2,107.2,259.2z"/>
	<path style="fill:#324A5E;" d="M247.2,260.8c0.4,0.4,0.4,0.8,0.4,0.8h-0.4V260.8z"/>
	<path style="fill:#324A5E;" d="M400.8,254.8c-2.4-0.4-4-0.4-4-0.4c2,1.6,0,3.2,0,3.2c-3.2-4-9.2-2-10-1.6v-69.2h-126v68.4
		c-4-1.2-6.8-1.2-6.8-1.2c3.2,2.4,0,4.8,0,4.8c-2-2.4-4.4-3.6-6.8-3.6v-68.4H118.4v68.4c-4.4-1.2-7.2-1.2-7.2-1.2c2,1.6,0,3.2,0,3.2
		c-2-2.4-4.8-2.8-6.8-2.4V180c0-4,3.2-6.8,6.8-6.8h135.6v-48h-43.2L254,58.4l50.4,66.4h-43.6v48h132.8c4,0,6.8,3.2,6.8,6.8v75.2
		H400.8z"/>
</g>
<g>
	<path style="fill:#FFFFFF;" d="M170.4,355.2c-14.4,14-35.6,23.2-59.2,23.2s-44.4-8.8-59.2-22.8l0,0c2.4-7.6,8-14,15.2-17.6
		L90,326.8c0.8-2.8,4-7.2,4.4-7.2c-1.6-2.4-3.2-5.2-4.4-8c-2,0-3.6-1.6-4.8-4c-1.2-2.4-0.8-4.8,0-6c-3.6-9.6-6-24.4,6-35.2l-6,1.2
		c0,0,7.2-13.2,21.6-8.4c0,0-1.2-2.4-6-3.6c0,0,6.4-2.8,10,1.6c0,0,2-1.6,0-3.2c0,0,11.2,0.4,20.8,9.6c13.2,12.4,10,28.4,5.2,38.8
		c0.4,1.6,0.4,3.2-0.4,5.2c-0.8,2-2.4,3.2-4,3.6c-0.8,1.6-3.6,6.4-4.8,8c0,0,3.6,4.4,4.4,7.2l22.8,11.2
		C162.4,341.2,168,347.6,170.4,355.2L170.4,355.2z"/>
	<path style="fill:#FFFFFF;" d="M342,404.4c-21.6,21.2-53.2,34.4-88,34.4s-66.4-13.2-88-34l0,0c3.6-11.6,12-20.8,22.8-26l34-16.4
		c1.2-4.4,6-10.4,6.4-10.4c-2.4-3.6-4.4-8-6.4-12c-2.8,0-5.6-2.4-7.2-5.6c-1.6-3.2-1.6-6.8,0-9.2c-5.2-14.4-9.2-36,8.8-52l-8.8,1.6
		c0,0,10.8-19.6,32-12.8c0,0-2-3.2-8.8-5.2c0,0,9.6-4,15.2,2.4c0,0,3.2-2.8,0-4.8c0,0,16.4,0.4,31.2,14.4c19.6,18.4,14.8,42,8,57.6
		c0.8,2,0.4,4.8-0.8,7.6c-1.6,2.8-4,4.8-6.4,5.6c-1.2,2-5.6,9.6-7.2,12c0.4,0,5.2,6.4,6.4,10.8l34,16.4
		C330,383.6,338.4,393.2,342,404.4L342,404.4z"/>
	<path style="fill:#FFFFFF;" d="M456,355.2c-14.4,14-35.6,23.2-59.2,23.2s-44.4-8.8-59.2-22.8l0,0c2.4-7.6,8-14,15.2-17.6l22.8-11.2
		c0.8-2.8,4-7.2,4.4-7.2c-1.6-2.4-3.2-5.2-4.4-8c-2,0-3.6-1.6-4.8-4c-1.2-2.4-0.8-4.8,0-6c-3.6-9.6-6-24.4,6-35.2l-6,1.2
		c0,0,7.2-13.2,21.6-8.4c0,0-1.2-2.4-6-3.6c0,0,6.4-2.8,10,1.6c0,0,2-1.6,0-3.2c0,0,11.2,0.4,20.8,9.6c13.2,12.4,10,28.4,5.2,38.8
		c0.4,1.6,0.4,3.2-0.4,5.2s-2.4,3.2-4,3.6c-0.8,1.6-3.6,6.4-4.8,8c0,0,3.6,4.4,4.4,7.2l22.8,11.2C448,341.2,453.2,347.6,456,355.2
		L456,355.2z"/>
	<path style="fill:#FFFFFF;" d="M104.4,254.8v2c-0.8-0.4-2-0.8-3.2-1.2C101.2,255.6,102.4,255.2,104.4,254.8z"/>
	<path style="fill:#FFFFFF;" d="M386.8,255.6L386.8,255.6L386.8,255.6C386.4,255.6,386.8,255.6,386.8,255.6z"/>
</g>
<g>
</g>
<g>
</g>
<g>
</g>
<g>
</g>
<g>
</g>
<g>
</g>
<g>
</g>
<g>
</g>
<g>
</g>
<g>
</g>
<g>
</g>
<g>
</g>
<g>
</g>
<g>
</g>
<g>
</g>
</svg>
