<?xml version="1.0" encoding="iso-8859-1"?>
<!-- Generator: Adobe Illustrator 19.0.0, SVG Export Plug-In . SVG Version: 6.00 Build 0)  -->
<svg version="1.1" id="Layer_1" xmlns="http://www.w3.org/2000/svg" xmlns:xlink="http://www.w3.org/1999/xlink" x="0px" y="0px"
	 viewBox="0 0 508 508" style="enable-background:new 0 0 508 508;" xml:space="preserve">
<circle style="fill:#324A5E;" cx="254" cy="254" r="254"/>
<g>
	<path style="fill:#E6E9EE;" d="M316.8,158.8c-18-12-39.6-18.8-62.8-18.8s-44.8,6.8-62.8,18.8l5.2-30.8l35.6-17.2
		c0.8-3.2,4.4-7.2,4.4-7.2c-1.6-2.4-3.2-5.2-4.4-8.4c-2,0-4-1.6-5.2-4s-1.2-4.8,0-6.4c-3.6-10-6.4-25.2,6-36.4l-6,1.2
		c0,0,7.6-13.6,22.4-8.8c0,0-1.2-2.4-6-3.6c0,0,6.8-2.8,10.4,1.6c0,0,2.4-2,0-3.6c0,0,11.6,0.4,21.6,10c13.6,12.8,10,29.2,5.6,40.4
		c0.4,1.6,0.4,3.6-0.4,5.2c-0.8,2-2.8,3.6-4.4,4c-0.8,1.6-4,6.8-5.2,8.4c0,0,3.6,4.4,4.4,7.6l35.6,17.2L316.8,158.8z"/>
	<path style="fill:#E6E9EE;" d="M254,368c23.2,0,44.8-6.8,62.8-18.8l-5.2,30.8L276,397.2c-0.8,3.2-4.4,7.2-4.4,7.2
		c1.6,2.4,3.2,5.2,4.4,8.4c2,0,4,1.6,5.2,4s1.2,4.8,0,6.4c3.6,10,6.4,25.2-6,36.4l6-1.2c0,0-7.6,13.6-22.4,8.8c0,0,1.2,2.4,6,3.6
		c0,0-6.8,2.8-10.4-1.6c0,0-2.4,2,0,3.6c0,0-11.6-0.4-21.6-10c-13.6-12.8-10.4-29.2-5.6-40.4c-0.4-1.6-0.4-3.6,0.4-5.2
		c0.8-2,2.8-3.6,4.4-4c0.8-1.6,4-6.8,5.2-8.4c0,0-3.6-4.4-4.4-7.6L197.2,380l-5.2-30.8C209.2,361.2,230.8,368,254,368z"/>
	<path style="fill:#E6E9EE;" d="M472.4,254c0,0-0.4,11.6-10,21.6c-12.8,13.6-29.2,10.4-40.4,5.6c-1.6,0.4-3.6,0.4-5.2-0.4
		c-2-0.8-3.6-2.8-4-4.4c-1.6-0.8-6.8-4-8.4-5.2c0,0-4.4,3.6-7.6,4.4l-17.2,35.6l-30.8,5.2c12-18,18.8-39.6,18.8-62.8
		s-6.8-44.8-18.8-62.8l30.8,5.2l17.2,35.6c3.2,0.8,7.2,4.4,7.2,4.4c2.4-1.6,5.6-3.2,8.4-4.4c0-2,1.6-4,4-5.2s4.8-1.2,6.4,0
		c10-3.6,25.2-6.4,36.4,6l-1.2-6c0,0,13.6,7.6,8.8,22.4c0,0,2.4-1.2,3.6-6c0,0,2.8,6.8-1.6,10.4C468.8,254,470.8,256.4,472.4,254z"
		/>
	<path style="fill:#E6E9EE;" d="M140,254c0,23.2,6.8,44.8,18.8,62.8l-30.8-5.2L110.8,276c-3.2-0.8-7.2-4.4-7.2-4.4
		c-2.4,1.6-5.6,3.2-8.4,4.4c0,2-1.6,4-4,5.2s-4.8,1.2-6.4,0c-10,3.6-25.2,6.4-36.4-6l1.2,6c0,0-13.6-7.6-8.8-22.4c0,0-2.4,1.2-3.6,6
		c0,0-2.8-6.8,1.6-10.4c0,0-2-2.4-3.6,0c0,0,0.4-11.6,10-21.6c12.8-13.6,29.2-10,40.4-5.6c1.6-0.4,3.6-0.4,5.2,0.4
		c2,0.8,3.6,2.8,4,4.4c1.6,0.8,6.8,4,8.4,4.8c0,0,4.4-3.6,7.6-4.4l17.2-35.6l30.8-5.2C146.8,209.2,140,230.8,140,254z"/>
</g>
<g>
	<path style="fill:#54C0EB;" d="M202.4,305.6c-8.8,4.4-16.8,10-24,16.4c-15.2-16.8-24.8-38.4-26-62.4h44
		C196.8,276.4,198.8,292,202.4,305.6z"/>
	<path style="fill:#54C0EB;" d="M196.4,248H152c1.2-24,10.8-45.6,26-62.4c7.2,6.4,15.6,12,24,16.4C198.8,216,196.8,231.6,196.4,248z
		"/>
	<path style="fill:#54C0EB;" d="M205.6,317.2c4.8,14,10.8,25.6,18,34.4c-14-4.4-26.4-11.6-37.2-20.8
		C192.4,325.2,198.8,320.8,205.6,317.2z"/>
	<path style="fill:#54C0EB;" d="M205.6,190.8c-6.8-3.6-13.2-8-19.2-13.2c10.8-9.2,23.2-16.8,37.2-20.8
		C216.4,165.2,210.4,176.8,205.6,190.8z"/>
	<path style="fill:#54C0EB;" d="M248,152.8v50c-10.8-0.8-21.6-2.8-31.6-6.8C224,172.8,235.2,156.8,248,152.8z"/>
	<path style="fill:#54C0EB;" d="M213.2,207.2c11.2,4.4,22.8,6.8,34.8,7.2V248h-40C208.4,233.6,210.4,219.6,213.2,207.2z"/>
	<path style="fill:#54C0EB;" d="M208,260h40v33.6c-12,0.8-23.6,3.2-34.8,7.2C210.4,288.4,208.4,274.4,208,260z"/>
	<path style="fill:#54C0EB;" d="M216.4,312c10-4,20.8-6.4,31.6-6.8v50C235.2,351.2,224,335.2,216.4,312z"/>
	<path style="fill:#54C0EB;" d="M291.6,312c-7.2,22.8-18.8,39.2-31.6,43.2v-50C270.8,306,281.6,308.4,291.6,312z"/>
	<path style="fill:#54C0EB;" d="M291.6,196c-10,4-20.8,6.4-31.6,6.8v-50C272.8,156.8,284.4,172.8,291.6,196z"/>
	<path style="fill:#54C0EB;" d="M294.8,300.8c-11.2-4.4-22.8-6.8-34.8-7.2V260h40C299.6,274.4,297.6,288.4,294.8,300.8z"/>
	<path style="fill:#54C0EB;" d="M300,248h-40v-33.6c12-0.8,23.6-3.2,34.8-7.2C297.6,219.6,299.6,233.6,300,248z"/>
	<path style="fill:#54C0EB;" d="M302.4,317.2c6.8,3.6,13.2,8,19.2,13.2c-10.8,9.6-23.2,16.8-37.2,20.8
		C291.6,342.8,297.6,331.2,302.4,317.2z"/>
	<path style="fill:#54C0EB;" d="M302.4,190.8c-4.8-14-10.8-25.6-18-34.4c14,4.4,26.4,11.6,37.2,20.8
		C315.6,182.8,309.2,187.2,302.4,190.8z"/>
	<path style="fill:#54C0EB;" d="M311.6,260h44c-1.2,24-10.8,45.6-26,62.4c-7.2-6.8-15.6-12-24-16.4C309.2,292,311.2,276.4,311.6,260
		z"/>
	<path style="fill:#54C0EB;" d="M305.6,202.4c8.8-4.4,16.8-10,24-16.4c15.2,16.8,24.8,38.4,26,62.4h-44
		C311.2,231.6,309.2,216,305.6,202.4z"/>
</g>
<path style="fill:#FFFFFF;" d="M254,140c-62.8,0-114,51.2-114,114s51.2,114,114,114s114-51.2,114-114S316.8,140,254,140z M356,248
	h-44c-0.4-16.4-2.4-32-6-45.6c8.8-4.4,16.8-10,24-16.4C344.8,202.4,354.4,224.4,356,248z M321.6,177.6c-6,5.2-12.4,9.6-19.2,13.2
	c-4.8-14-10.8-25.6-18-34.4C298.4,160.8,310.8,168,321.6,177.6z M248,248h-40c0.4-14.4,2.4-28.4,5.2-40.8
	c11.2,4.4,22.8,6.8,34.8,7.2V248z M248,260v33.6c-12,0.8-23.6,3.2-34.8,7.2c-2.8-12.4-4.8-26.4-5.2-40.8L248,260L248,260z M260,260
	h40c-0.4,14.4-2.4,28.4-5.2,40.8c-11.2-4.4-22.8-6.8-34.8-7.2V260z M260,248v-33.6c12-0.8,23.6-3.2,34.8-7.2
	c2.8,12.4,4.8,26.4,5.2,40.8H260z M291.6,196c-10,4-20.8,6.4-31.6,6.8v-50C272.8,156.8,284.4,172.8,291.6,196z M248,152.8v50
	c-10.8-0.8-21.6-2.8-31.6-6.8C223.6,172.8,235.2,156.8,248,152.8z M223.6,156.4c-7.2,8.8-13.2,20.4-18,34.4
	c-6.8-3.6-13.2-8-19.2-13.2C197.2,168,209.6,160.8,223.6,156.4z M178,186c7.2,6.8,15.6,12,24,16.4c-3.6,13.6-5.6,29.2-6,45.6h-44
	C153.6,224.4,163.2,202.4,178,186z M152,260h44c0.4,16.4,2.4,32,6,45.6c-8.8,4.4-16.8,10-24,16.4C163.2,305.6,153.6,283.6,152,260z
	 M186.4,330.4c6-5.2,12.4-9.6,19.2-13.2c4.8,14,10.8,25.6,18,34.4C209.6,347.2,197.2,340,186.4,330.4z M216.4,312
	c10-4,20.8-6.4,31.6-6.8v50C235.2,351.2,223.6,335.2,216.4,312z M260,355.2v-50c10.8,0.8,21.6,2.8,31.6,6.8
	C284.4,335.2,272.8,351.2,260,355.2z M284.4,351.6c7.2-8.8,13.2-20.4,18-34.4c6.8,3.6,13.2,8,19.2,13.2
	C310.8,340,298.4,347.2,284.4,351.6z M330,322c-7.2-6.8-15.6-12-24-16.4c3.6-13.6,5.6-29.2,6-45.6h44
	C354.4,283.6,344.8,305.6,330,322z"/>
<g>
</g>
<g>
</g>
<g>
</g>
<g>
</g>
<g>
</g>
<g>
</g>
<g>
</g>
<g>
</g>
<g>
</g>
<g>
</g>
<g>
</g>
<g>
</g>
<g>
</g>
<g>
</g>
<g>
</g>
</svg>
