<?xml version="1.0" encoding="iso-8859-1"?>
<!-- Generator: Adobe Illustrator 19.0.0, SVG Export Plug-In . SVG Version: 6.00 Build 0)  -->
<svg version="1.1" id="Layer_1" xmlns="http://www.w3.org/2000/svg" xmlns:xlink="http://www.w3.org/1999/xlink" x="0px" y="0px"
	 viewBox="0 0 508 508" style="enable-background:new 0 0 508 508;" xml:space="preserve">
<circle style="fill:#324A5E;" cx="254" cy="254" r="254"/>
<g>
	<path style="fill:#FF7058;" d="M352.8,283.6c-0.4,0-0.8-0.4-1.2-0.4V282C352.4,282.8,352.8,283.6,352.8,283.6z"/>
	<path style="fill:#FF7058;" d="M146,283.6c-0.4,0-0.8-0.4-1.2-0.4V282C146,282.8,146,283.6,146,283.6z"/>
	<path style="fill:#FF7058;" d="M363.2,279.2c-3.6-0.8-6-1.2-6-1.2c2.4,1.6,0,3.6,0,3.6c-1.6-2-4-2.8-6-2.8V248H156.4v30.8
		c-3.6-0.8-6-1.2-6-1.2c2.4,1.6,0,3.6,0,3.6c-1.6-2-4-2.8-6-2.8V242c0-3.2,2.8-6,6-6H248v-24c2,0,4,0,6,0s4,0,6,0v24h97.6
		c3.2,0,6,2.8,6,6v37.2H363.2z"/>
</g>
<g>
	<path style="fill:#FFFFFF;" d="M334.4,181.6c-20,19.2-48.4,31.2-80.4,31.2s-60.4-12-80.4-31.2l0,0c3.2-10.4,10.8-19.2,20.8-23.6
		l30.8-14.8c0.8-4,5.6-9.6,6-9.6c-2-3.2-4-7.2-5.6-11.2c-2.4,0-5.2-2-6.8-5.2s-1.2-6.4,0-8.4c-4.8-12.8-8.4-32.8,8-47.6l-8,1.6
		c0,0,9.6-18,29.2-11.6c0,0-2-3.2-8-4.8c0,0,8.8-3.6,13.6,2.4c0,0,2.8-2.4,0-4.4c0,0,15.2,0.4,28.4,13.2
		c17.6,16.8,13.2,38.4,7.2,52.8c0.8,2,0.4,4.4-0.8,7.2c-1.2,2.8-3.6,4.4-5.6,5.2c-1.2,2-5.2,8.8-6.4,11.2c0.4,0,4.8,5.6,6,9.6
		l30.8,14.8C323.2,162.4,330.8,171.2,334.4,181.6L334.4,181.6z"/>
	<path style="fill:#FFFFFF;" d="M419.6,384.8c-15.2,14.8-37.6,24-62.4,24s-46.8-9.2-62-24l0,0c2.8-8,8.4-14.8,16-18.4l24-11.6
		c0.8-3.2,4.4-7.2,4.8-7.2c-1.6-2.8-3.2-5.6-4.4-8.4c-2,0-4-1.6-5.2-4s-1.2-4.8,0-6.4c-3.6-10-6.4-25.6,6-36.8l-6,1.2
		c0,0,7.6-14,22.4-8.8c0,0-1.6-2.4-6-3.6c0,0,6.8-2.8,10.8,1.6c0,0,2.4-2,0-3.6c0,0,11.6,0.4,22,10c13.6,13.2,10.4,29.6,5.6,40.8
		c0.4,1.6,0.4,3.6-0.4,5.6s-2.8,3.6-4.4,4c-0.8,1.6-4,6.8-5.2,8.4c0,0,3.6,4.4,4.4,7.6l24,11.6C411.2,370,416.8,376.4,419.6,384.8
		L419.6,384.8z"/>
	<path style="fill:#FFFFFF;" d="M212.8,384.8c-15.2,14.8-37.6,24-62.4,24s-46.8-9.2-62-24l0,0c2.8-8,8.4-14.8,16-18.4l24-11.6
		c0.8-3.2,4.4-7.2,4.8-7.2c-1.6-2.8-3.2-5.6-4.4-8.4c-2,0-4-1.6-5.2-4s-1.2-4.8,0-6.4c-3.6-10-6.4-25.6,6-36.8l-6,1.2
		c0,0,7.6-14,22.4-8.8c0,0-1.6-2.4-6-3.6c0,0,6.8-2.8,10.8,1.6c0,0,2.4-2,0-3.6c0,0,11.6,0.4,22,10c13.6,13.2,10.4,29.6,5.6,40.8
		c0.4,1.6,0.4,3.6-0.4,5.6c-0.8,2-2.8,3.6-4.4,4c-0.8,1.6-4,6.8-5.2,8.4c0,0,3.6,4.4,4.4,7.6l24,11.6
		C204.4,370,210.4,376.4,212.8,384.8L212.8,384.8z"/>
</g>
<g>
</g>
<g>
</g>
<g>
</g>
<g>
</g>
<g>
</g>
<g>
</g>
<g>
</g>
<g>
</g>
<g>
</g>
<g>
</g>
<g>
</g>
<g>
</g>
<g>
</g>
<g>
</g>
<g>
</g>
</svg>
