<?xml version="1.0" encoding="iso-8859-1"?>
<!-- Generator: Adobe Illustrator 19.0.0, SVG Export Plug-In . SVG Version: 6.00 Build 0)  -->
<svg version="1.1" id="Layer_1" xmlns="http://www.w3.org/2000/svg" xmlns:xlink="http://www.w3.org/1999/xlink" x="0px" y="0px"
	 viewBox="0 0 508 508" style="enable-background:new 0 0 508 508;" xml:space="preserve">
<circle style="fill:#FD8469;" cx="254" cy="254" r="254"/>
<path style="fill:#324A5E;" d="M308.8,346.4c-2.4,0-4.8,0-7.2,0c-12.4,0-24.8,0-36.8-0.4v112h-21.6v-52c-14.4,0-29.2,0-43.6,0
	c0.4-2.4,0.8-4.8,0.8-7.2c0-2.8-0.4-5.2-0.8-8c14.4,0,29.2,0,43.6,0v-99.2c-14.4-0.4-29.2-0.4-43.6-0.4c0.4-2.4,0.8-4.8,0.8-7.2
	c0-2.8-0.4-5.6-0.8-8c14.4,0,29.2,0,43.6,0.4v-99.2c-14.4-0.4-29.2-0.4-43.6-0.4c0.4-2.4,0.8-4.4,0.8-6.8c0-2.8-0.4-5.6-0.8-8.4
	c14.8,0,29.2,0,43.6,0.4V50h21.6v52c14.4,0,29.2,0.4,43.6,0c-0.4,2.4-0.8,4.8-0.8,7.2c0,2.8,0.4,5.2,0.8,8h-6.8
	c-12.4,0-24.8,0-36.8,0v99.2c14.4,0.4,29.2,0.4,43.6,0.4c-0.4,2.4-0.8,4.8-0.8,7.2c0,2.8,0.4,5.6,0.8,8c-2.4,0-4.8,0-6.8,0
	c-12.4,0-24.8,0-36.8-0.4v99.2c14.4,0.4,29.2,0.4,43.6,0.4c-0.4,2.4-0.8,4.4-0.8,6.8C307.6,341.2,308,344,308.8,346.4z"/>
<g>
	<circle style="fill:#FFFFFF;" cx="347.6" cy="109.2" r="39.6"/>
	<circle style="fill:#FFFFFF;" cx="347.6" cy="224" r="39.6"/>
	<circle style="fill:#FFFFFF;" cx="347.6" cy="338.4" r="39.6"/>
	<circle style="fill:#FFFFFF;" cx="160.4" cy="398.8" r="39.6"/>
	<circle style="fill:#FFFFFF;" cx="160.4" cy="284" r="39.6"/>
	<circle style="fill:#FFFFFF;" cx="160.4" cy="169.6" r="39.6"/>
</g>
<g>
</g>
<g>
</g>
<g>
</g>
<g>
</g>
<g>
</g>
<g>
</g>
<g>
</g>
<g>
</g>
<g>
</g>
<g>
</g>
<g>
</g>
<g>
</g>
<g>
</g>
<g>
</g>
<g>
</g>
</svg>
