<?xml version="1.0" encoding="iso-8859-1"?>
<!-- Generator: Adobe Illustrator 19.0.0, SVG Export Plug-In . SVG Version: 6.00 Build 0)  -->
<svg version="1.1" id="Layer_1" xmlns="http://www.w3.org/2000/svg" xmlns:xlink="http://www.w3.org/1999/xlink" x="0px" y="0px"
	 viewBox="0 0 508 508" style="enable-background:new 0 0 508 508;" xml:space="preserve">
<circle style="fill:#90DFAA;" cx="254" cy="254" r="254"/>
<path style="fill:#E6E9EE;" d="M282,191.2c-1.2,8-2.8,16.8-5.2,26.4c-7.6,1.2-15.2,1.6-23.2,1.6c-8,0-15.6-0.4-23.2-1.6
	c-2.4-9.2-4-18-5.2-26.4c6.4-20.4,28-22,28-22S275.6,170.8,282,191.2z"/>
<path style="fill:#F9B54C;" d="M280,136.4c0,0,3.2,18.4-26,32.4l0,0l0,0c-29.2-14-26-32.4-26-32.4l0,0c0-0.4,0-0.4,0-0.8
	c7.2,8.8,16,14.4,25.6,14.4s18.8-5.6,26-14.4C280,136,280,136.4,280,136.4L280,136.4z"/>
<polygon style="fill:#F1543F;" points="265.2,169.2 242.8,169.2 247.2,182 260.8,182 "/>
<path style="fill:#FF7058;" d="M242,218.8c4,0.4,8,0.4,12,0.4s8,0,12-0.4l-5.2-36.8h-13.6L242,218.8z"/>
<g>
	<path style="fill:#324A5E;" d="M343.2,190c-18.4,14-41.2,24-66.4,27.6c2.4-9.6,4-18.4,5.2-26.4l0,0c0,0.4,7.6-27.2,3.6-44
		l51.6,24.8L343.2,190z"/>
	<path style="fill:#324A5E;" d="M230.8,217.6c-24.8-4-47.6-13.6-66-27.6l5.6-18l51.6-24.8c-4,17.2,3.6,44.8,3.6,44
		C227.2,199.2,228.8,208,230.8,217.6z"/>
</g>
<path style="fill:#FFFFFF;" d="M280,136.4c0,0,3.2,18.4-26,32.4c0,0,21.6,1.6,28,22C282.4,192,294.4,147.6,280,136.4z"/>
<path id="SVGCleanerId_0" style="fill:#FFFFFF;" d="M228,136.4c-14.4,10.8-2.4,55.6-2.4,54.8c6.4-20.4,28-22,28-22
	C224.8,154.8,228,136.4,228,136.4z"/>
<g>
	<path id="SVGCleanerId_0_1_" style="fill:#FFFFFF;" d="M228,136.4c-14.4,10.8-2.4,55.6-2.4,54.8c6.4-20.4,28-22,28-22
		C224.8,154.8,228,136.4,228,136.4z"/>
</g>
<path style="fill:#FFD05B;" d="M287.2,116c-3.6,10.4-4.8,16.4-4.8,17.2l0,0c-7.6,10.4-17.2,17.2-28,17.2c-10,0-19.2-6-26.4-15.6l0,0
	c-16-19.6-5.2-55.6-5.2-55.6c8,9.2,33.6,9.6,33.6,9.6c-10.4-1.6-12.8-9.6-12.8-10.8c2,5.2,26.8,8.8,26.8,8.8
	C295.6,90.8,287.2,116,287.2,116z"/>
<path style="fill:#324A5E;" d="M239.2,41.6c0,0,34.8-14,52.8,17.6c19.2,34-4.8,70.8-9.6,73.6c0,0,1.2-6,4.8-17.2
	c0,0,8.4-25.2-17.2-28.8c0,0-24.8-3.2-26.8-8.8c0,0,2,9.2,13.2,10.8c0,0-25.6-0.4-33.6-9.6c0,0-10.8,36,5.2,55.6
	c0,0-27.6-22-24.4-56C203.2,78.8,201.6,32,239.2,41.6z"/>
<path style="fill:#E6E9EE;" d="M385.2,384c-0.8,6.8-2.4,14.4-4,22c-6.4,0.8-12.8,1.6-19.2,1.6c-6.4,0-13.2-0.4-19.2-1.6
	c-2-8-3.2-15.2-4.4-22c5.2-17.2,23.6-18.4,23.6-18.4S379.6,366.8,385.2,384z"/>
<path style="fill:#F9B54C;" d="M383.2,338c0,0,2.8,15.2-21.6,27.2l0,0l0,0C337.2,353.2,340,338,340,338l0,0c0-0.4,0-0.4,0-0.8
	c6,7.2,13.6,12,21.6,12s15.6-4.8,21.6-12C383.2,337.6,383.2,338,383.2,338L383.2,338z"/>
<polygon style="fill:#F1543F;" points="371.2,365.2 352,365.2 356,376 367.2,376 "/>
<path style="fill:#FF7058;" d="M351.6,406.8c3.2,0.4,6.8,0.4,10,0.4c3.6,0,6.8,0,10-0.4l-4.4-30.8h-11.6L351.6,406.8z"/>
<g>
	<path style="fill:#324A5E;" d="M436.4,382.8c-15.6,12-34.4,20-55.6,23.2c2-8,3.2-15.2,4-22l0,0c0,0.4,6.4-22.8,3.2-37.2l43.6,20.8
		L436.4,382.8z"/>
	<path style="fill:#324A5E;" d="M342.4,406c-20.8-3.2-40-11.2-55.6-23.2l4.8-14.8l43.2-20.8c-3.2,14.4,2.8,37.6,3.2,37.2
		C339.2,390.8,340.4,398,342.4,406z"/>
</g>
<path style="fill:#FFFFFF;" d="M383.2,338c0,0,2.8,15.6-21.6,27.2c0,0,18,1.6,23.6,18.4C385.6,384.4,395.2,347.2,383.2,338z"/>
<path id="SVGCleanerId_1" style="fill:#FFFFFF;" d="M340,338c-12,9.2-2,46.4-2,46c5.6-17.2,23.6-18.4,23.6-18.4
	C337.2,353.6,340,338,340,338z"/>
<g>
	<path id="SVGCleanerId_1_1_" style="fill:#FFFFFF;" d="M340,338c-12,9.2-2,46.4-2,46c5.6-17.2,23.6-18.4,23.6-18.4
		C337.2,353.6,340,338,340,338z"/>
</g>
<path style="fill:#FFD05B;" d="M389.2,320.8c-2.8,8.8-4,13.6-4,14.4l0,0c-6.4,8.8-14.4,14.4-23.6,14.4c-8.4,0-16-5.2-22.4-12.8l0,0
	c-13.2-16.4-4-46.4-4-46.4c6.8,7.6,28,8,28,8c-8.8-1.6-10.8-8-10.8-9.2c1.6,4.4,22.4,7.2,22.4,7.2
	C396.4,299.6,389.2,320.8,389.2,320.8z"/>
<path style="fill:#324A5E;" d="M349.2,258.4c0,0,29.2-11.6,44.4,14.8c16,28.4-4,59.2-8,61.6c0,0,1.2-4.8,4-14.4
	c0,0,7.2-21.2-14.4-24.4c0,0-20.8-2.8-22.4-7.2c0,0,1.6,7.6,10.8,9.2c0,0-21.6-0.4-28-8c0,0-9.2,30.4,4,46.4
	c0,0-23.2-18.4-20.4-46.8C319.2,289.6,318,250.4,349.2,258.4z"/>
<path style="fill:#E6E9EE;" d="M170,384c-0.8,6.8-2.4,14.4-4,22c-6.4,0.8-12.8,1.6-19.2,1.6s-13.2-0.4-19.2-1.6
	c-2-8-3.2-15.2-4.4-22c5.2-17.2,23.6-18.4,23.6-18.4S164.4,366.8,170,384z"/>
<path style="fill:#F9B54C;" d="M168,338c0,0,2.8,15.2-21.6,27.2l0,0l0,0c-24.4-12-21.6-27.2-21.6-27.2l0,0c0-0.4,0-0.4,0-0.8
	c6,7.2,13.6,12,21.6,12s15.6-4.8,21.6-12C168,337.6,168,338,168,338L168,338z"/>
<polygon style="fill:#F1543F;" points="155.6,365.2 136.8,365.2 140.8,376 152,376 "/>
<path style="fill:#FF7058;" d="M136.4,406.8c3.2,0.4,6.8,0.4,10,0.4c3.6,0,6.8,0,10-0.4L152,376h-11.6L136.4,406.8z"/>
<g>
	<path style="fill:#324A5E;" d="M221.2,382.8c-15.6,12-34.4,20-55.6,23.2c2-8,3.2-15.2,4-22l0,0c0,0.4,6.4-22.8,3.2-37.2l43.6,20.8
		L221.2,382.8z"/>
	<path style="fill:#324A5E;" d="M127.2,406c-20.8-3.2-40-11.2-55.6-23.2l4.8-14.8l43.2-20.8c-3.2,14.4,2.8,37.6,3.2,37.2
		C123.6,390.8,125.2,398,127.2,406z"/>
</g>
<path style="fill:#FFFFFF;" d="M168,338c0,0,2.8,15.6-21.6,27.2c0,0,18,1.6,23.6,18.4C170,384.4,180,347.2,168,338z"/>
<path id="SVGCleanerId_2" style="fill:#FFFFFF;" d="M124.8,338c-12,9.2-2,46.4-2,46c5.6-17.2,23.6-18.4,23.6-18.4
	C122,353.6,124.8,338,124.8,338z"/>
<g>
	<path id="SVGCleanerId_2_1_" style="fill:#FFFFFF;" d="M124.8,338c-12,9.2-2,46.4-2,46c5.6-17.2,23.6-18.4,23.6-18.4
		C122,353.6,124.8,338,124.8,338z"/>
</g>
<path style="fill:#FFD05B;" d="M174,320.8c-2.8,8.8-4,13.6-4,14.4l0,0c-6.4,8.8-14.4,14.4-23.6,14.4c-8.4,0-16-5.2-22.4-12.8l0,0
	c-13.2-16.4-4-46.4-4-46.4c6.8,7.6,28,8,28,8c-8.8-1.6-10.8-8-10.8-9.2c1.6,4.4,22.4,7.2,22.4,7.2C181.2,299.6,174,320.8,174,320.8z
	"/>
<path style="fill:#324A5E;" d="M134,258.4c0,0,29.2-11.6,44.4,14.8c16,28.4-4,59.2-8,61.6c0,0,1.2-4.8,4-14.4
	c0,0,7.2-21.2-14.4-24.4c0,0-20.8-2.8-22.4-7.2c0,0,1.6,7.6,10.8,9.2c0,0-21.6-0.4-28-8c0,0-9.2,30.4,4,46.4
	c0,0-23.2-18.4-20.4-46.8C104,289.6,102.8,250.4,134,258.4z"/>
<path style="fill:#FFFFFF;" d="M295.2,302.8l-18.4-30c-0.8-1.2-2-2-3.2-2h-20.8V234c0-2-1.6-4-4-4c-2,0-4,1.6-4,4v37.2H224
	c-1.2,0-2.8,0.8-3.2,2l-18.4,30c-1.2,2-0.4,4.4,1.2,5.6c2,1.2,4.4,0.4,5.6-1.2l17.2-28h45.2l17.2,28c0.8,1.2,2,2,3.2,2
	c0.8,0,1.6,0,2-0.4C296,307.2,296.4,304.8,295.2,302.8z"/>
<g>
</g>
<g>
</g>
<g>
</g>
<g>
</g>
<g>
</g>
<g>
</g>
<g>
</g>
<g>
</g>
<g>
</g>
<g>
</g>
<g>
</g>
<g>
</g>
<g>
</g>
<g>
</g>
<g>
</g>
</svg>
