<?xml version="1.0" encoding="iso-8859-1"?>
<!-- Generator: Adobe Illustrator 19.0.0, SVG Export Plug-In . SVG Version: 6.00 Build 0)  -->
<svg version="1.1" id="Layer_1" xmlns="http://www.w3.org/2000/svg" xmlns:xlink="http://www.w3.org/1999/xlink" x="0px" y="0px"
	 viewBox="0 0 508 508" style="enable-background:new 0 0 508 508;" xml:space="preserve">
<circle style="fill:#84DBFF;" cx="254" cy="254" r="254"/>
<g>
	<path style="fill:#324A5E;" d="M419.2,375.2v14H406l-1.2-14.4c0-1.6-1.6-2.8-2.8-2.8c-1.6,0-2.8,1.2-2.8,2.8v14.4H348v-14.4
		c0-1.6-1.2-2.8-2.8-2.8c-1.6,0-2.8,1.2-2.8,2.8l-1.2,14.4H328v-12.8c0-24.8,19.6-46,44.4-46.8C398,328.4,419.2,349.2,419.2,375.2z"
		/>
	<circle style="fill:#324A5E;" cx="373.2" cy="301.2" r="21.6"/>
	<path style="fill:#324A5E;" d="M299.6,375.2v14h-13.2l-1.2-14.4c0-1.6-1.2-2.8-2.8-2.8c-1.6,0-2.8,1.2-2.8,2.8v14.4h-50.8v-14.4
		c0-1.6-1.2-2.8-2.8-2.8s-2.8,1.2-2.8,2.8l-1.2,14.4h-13.2v-12.8c0-24.8,19.6-46,44.4-46.8C278.4,328.4,299.6,349.2,299.6,375.2z"/>
	<circle style="fill:#324A5E;" cx="254" cy="301.2" r="21.6"/>
	<path style="fill:#324A5E;" d="M180.4,375.2v14h-13.2l-1.2-14.4c0-1.6-1.6-2.8-2.8-2.8c-1.6,0-2.8,1.2-2.8,2.8v14.4h-50.8v-14.4
		c0-1.6-1.2-2.8-2.8-2.8c-1.6,0-2.8,1.2-2.8,2.8l-1.2,14.4H89.6v-12.8c0-24.8,19.6-46,44.4-46.8
		C159.2,328.4,180.4,349.2,180.4,375.2z"/>
	<circle style="fill:#324A5E;" cx="134.8" cy="301.2" r="21.6"/>
</g>
<path style="fill:#E6E9EE;" d="M38.8,388.8C83.6,460.4,163.2,508,254,508s170.4-47.6,215.2-119.2H38.8z"/>
<path style="fill:#54C0EB;" d="M53.6,410c46.4,59.6,118.8,98,200.4,98c81.2,0,153.6-38.4,200.4-98H53.6z"/>
<path style="fill:#FFFFFF;" d="M384.4,254H123.6c-8,0-14.8-6.8-14.8-14.8V90.4c0-8,6.8-14.8,14.8-14.8h260.8c8,0,14.8,6.8,14.8,14.8
	v148.8C399.2,247.2,392.4,254,384.4,254z"/>
<circle style="fill:#FF7058;" cx="254" cy="164.8" r="57.2"/>
<path style="fill:#FFFFFF;" d="M234.8,134.4v60.8c0,7.2,8.4,10.8,13.6,6l34.4-30.4c3.6-3.2,3.6-8.8,0-12.4L248.4,128
	C243.2,123.6,234.8,127.2,234.8,134.4z"/>
<g>
</g>
<g>
</g>
<g>
</g>
<g>
</g>
<g>
</g>
<g>
</g>
<g>
</g>
<g>
</g>
<g>
</g>
<g>
</g>
<g>
</g>
<g>
</g>
<g>
</g>
<g>
</g>
<g>
</g>
</svg>
