<?xml version="1.0" encoding="iso-8859-1"?>
<!-- Generator: Adobe Illustrator 19.0.0, SVG Export Plug-In . SVG Version: 6.00 Build 0)  -->
<svg version="1.1" id="Layer_1" xmlns="http://www.w3.org/2000/svg" xmlns:xlink="http://www.w3.org/1999/xlink" x="0px" y="0px"
	 viewBox="0 0 508 508" style="enable-background:new 0 0 508 508;" xml:space="preserve">
<circle style="fill:#90DFAA;" cx="254" cy="254" r="254"/>
<g>
	<path style="fill:#FFFFFF;" d="M324,150c-17.2,16.8-42,27.2-70,27.2s-52.8-10.4-70-27.2l0,0c2.8-9.2,9.6-16.8,18-20.8l27.2-13.2
		c0.8-3.6,4.8-8.4,5.2-8.4c-2-2.8-3.6-6.4-5.2-9.6c-2,0-4.4-2-5.6-4.4c-1.2-2.8-1.2-5.6,0-7.2c-4.4-11.2-7.2-28.8,6.8-41.6l-6.8,1.6
		c0,0,8.4-15.6,25.6-10c0,0-1.6-2.8-6.8-4c0,0,7.6-3.2,12,2c0,0,2.4-2,0-4c0,0,13.2,0.4,24.8,11.6c15.6,14.8,11.6,33.6,6.4,46
		c0.4,1.6,0.4,4-0.4,6c-1.2,2.4-3.2,4-4.8,4.4c-1.2,1.6-4.4,7.6-5.6,9.6c0,0,4.4,4.8,5.2,8.4l27.2,13.2
		C314.8,133.6,321.2,140.8,324,150L324,150z"/>
	<path style="fill:#FFFFFF;" d="M457.6,360c-17.2,16.8-42.4,27.2-70,27.2c-28,0-52.8-10.4-70-27.2l0,0c2.8-9.2,9.6-16.8,18-20.8
		l27.2-13.2c0.8-3.6,4.8-8.4,5.2-8.4c-2-2.8-3.6-6.4-5.2-9.6c-2,0-4.4-2-5.6-4.4c-1.2-2.8-1.2-5.6,0-7.2
		c-4.4-11.2-7.2-28.8,6.8-41.6l-6.8,1.6c0,0,8.4-15.6,25.6-10c0,0-1.6-2.8-6.8-4c0,0,7.6-3.2,12,2c0,0,2.4-2,0-4
		c0,0,13.2,0.4,24.8,11.6c15.6,14.8,11.6,33.6,6.4,46c0.4,1.6,0.4,4-0.4,6c-1.2,2.4-3.2,4-4.8,4.4c-1.2,1.6-4.4,7.6-5.6,9.6
		c0,0,4.4,4.8,5.2,8.4l27.2,13.2C448,343.2,454.8,350.8,457.6,360L457.6,360z"/>
	<path style="fill:#FFFFFF;" d="M190.8,360c-17.2,16.8-42.4,27.2-70,27.2c-28,0-52.8-10.4-70-27.2l0,0c2.8-9.2,9.6-16.8,18-20.8
		L96,326c0.8-3.6,4.8-8.4,5.2-8.4c-2-2.8-3.6-6.4-5.2-9.6c-2,0-4.4-2-5.6-4.4c-1.2-2.8-1.2-5.6,0-7.2c-4.4-11.2-7.2-28.8,6.8-41.6
		L90,256c0,0,8.4-15.6,25.6-10c0,0-1.6-2.8-6.8-4c0,0,7.6-3.2,12,2c0,0,2.4-2,0-4c0,0,13.2,0.4,24.8,11.6
		c15.6,14.8,11.6,33.6,6.4,46c0.4,1.6,0.4,4-0.4,6c-1.2,2.4-3.2,4-4.8,4.4c-1.2,1.6-4.4,7.6-5.6,9.6c0,0,4.4,4.8,5.2,8.4l27.2,13.2
		C181.2,343.2,187.6,350.8,190.8,360L190.8,360z"/>
</g>
<g>
	<polygon style="fill:#FF7058;" points="235.6,348 235.6,340.4 216,356.4 235.6,372.4 235.6,364.8 292,356.4 	"/>
	<polygon style="fill:#FF7058;" points="346.8,227.2 341.6,232.4 366.8,234.8 364.4,209.6 359.2,214.8 313.2,181.2 	"/>
	<polygon style="fill:#FF7058;" points="174.4,189.2 169.2,184 194.4,181.6 191.6,206.8 186.4,201.6 141.2,234.8 	"/>
</g>
<g>
</g>
<g>
</g>
<g>
</g>
<g>
</g>
<g>
</g>
<g>
</g>
<g>
</g>
<g>
</g>
<g>
</g>
<g>
</g>
<g>
</g>
<g>
</g>
<g>
</g>
<g>
</g>
<g>
</g>
</svg>
