<?xml version="1.0" encoding="iso-8859-1"?>
<!-- Generator: Adobe Illustrator 19.0.0, SVG Export Plug-In . SVG Version: 6.00 Build 0)  -->
<svg version="1.1" id="Layer_1" xmlns="http://www.w3.org/2000/svg" xmlns:xlink="http://www.w3.org/1999/xlink" x="0px" y="0px"
	 viewBox="0 0 508 508" style="enable-background:new 0 0 508 508;" xml:space="preserve">
<circle style="fill:#FD8469;" cx="254" cy="254" r="254"/>
<g>
	<path style="fill:#FFFFFF;" d="M123.2,351.2c4,5.2,3.6,12.8-1.2,17.6l0,0c-5.6,5.6-15.2,5.2-20.4-1.6C87.2,348,76.4,326,70.4,302.4
		c2.4,0.4,4.8,0.4,7.2,0.4c27.2,0,48.8-22,48.8-48.8c0-27.2-22-49.2-48.8-49.2c-2.4,0-4.8,0-7.2,0.4c6.4-23.6,17.2-45.6,31.2-64.8
		c2.8-3.6,11.6-10.4,20.4-1.6c4.8,4.8,5.2,12.4,1.2,17.6c-4.4,6-8.4,12-12,18.8l74.4,16.4c-14.8,16.4-24,38.4-24,62.4
		s9.2,46,24,62.4l-74.4,16.4C114.8,339.2,118.8,345.2,123.2,351.2z"/>
	<path style="fill:#FFFFFF;" d="M368.8,386.4c5.6,5.6,5.2,15.2-1.6,20.4C348,421.2,326,432,302.4,438c0.4-2.4,0.4-4.8,0.4-7.2
		c0-27.2-22-48.8-49.2-48.8s-48.8,22-48.8,48.8c0,2.4,0,4.8,0.4,7.2c-24-6.4-45.6-17.2-64.8-31.2c-6.4-4.8-7.2-14.4-1.6-20.4
		c4.8-4.8,12.4-5.2,17.6-1.2c6,4.4,12,8.4,18.8,12l16.4-74.4c16.4,14.8,38.4,24,62.4,24s46-9.2,62.4-24l16.4,74.4
		c6.4-3.6,12.8-7.6,18.8-12C356.8,380.8,364,381.6,368.8,386.4z"/>
	<path style="fill:#FFFFFF;" d="M139.2,122c-6-5.6-5.2-15.6,1.6-20.4C160,87.2,182,76.4,205.6,70.4c-0.4,2.4-0.4,4.8-0.4,7.2
		c0,27.2,22,49.2,48.8,49.2c27.2,0,49.2-22,49.2-49.2c0-2.4,0-4.8-0.4-7.2c23.6,6.4,45.6,17.2,64.8,31.2c3.6,2.8,9.2,12.4,1.6,20.4
		c-4.8,4.8-12.4,5.2-17.6,1.2c-6-4.4-12-8.4-18.8-12l-16.4,74.4c-16.4-14.8-38.4-24-62.4-24s-45.6,9.2-62.4,24l-16.4-74.4
		c-6.4,3.6-12.8,7.6-18.8,12C151.2,127.2,144,126.4,139.2,122z"/>
	<path style="fill:#FFFFFF;" d="M430.8,302.8c2.4,0,4.8,0,7.2-0.4c-6.4,24-17.2,45.6-31.2,64.8c-2.8,3.6-13.2,8.4-20.4,1.6
		c-4.8-4.8-5.2-12.4-1.2-17.6c4.4-6,8.4-12,12-18.8L322.8,316c14.8-16.4,24-38.4,24-62.4s-9.2-46-24-62.4l74.4-16.4
		c-3.6-6.4-7.6-12.8-12-18.8c-4-5.2-3.6-12.8,1.2-17.6c5.6-5.6,15.2-5.2,20.4,1.6c14.4,19.2,25.2,41.2,31.2,64.8
		c-2.4-0.4-4.8-0.4-7.2-0.4c-27.2,0-48.8,22-48.8,49.2C381.6,281.2,403.6,302.8,430.8,302.8z"/>
</g>
<g>
	<circle style="fill:#324A5E;" cx="254" cy="77.2" r="48.8"/>
	<circle style="fill:#324A5E;" cx="254" cy="430.8" r="48.8"/>
	<circle style="fill:#324A5E;" cx="430.8" cy="254" r="48.8"/>
	<circle style="fill:#324A5E;" cx="77.2" cy="254" r="48.8"/>
</g>
<circle style="fill:#FFD05B;" cx="254" cy="254" r="92.4"/>
<g>
</g>
<g>
</g>
<g>
</g>
<g>
</g>
<g>
</g>
<g>
</g>
<g>
</g>
<g>
</g>
<g>
</g>
<g>
</g>
<g>
</g>
<g>
</g>
<g>
</g>
<g>
</g>
<g>
</g>
</svg>
