<?xml version="1.0" encoding="iso-8859-1"?>
<!-- Generator: Adobe Illustrator 19.0.0, SVG Export Plug-In . SVG Version: 6.00 Build 0)  -->
<svg version="1.1" id="Layer_1" xmlns="http://www.w3.org/2000/svg" xmlns:xlink="http://www.w3.org/1999/xlink" x="0px" y="0px"
	 viewBox="0 0 508 508" style="enable-background:new 0 0 508 508;" xml:space="preserve">
<circle style="fill:#90DFAA;" cx="254" cy="254" r="254"/>
<circle style="fill:#FF7058;" cx="254" cy="254" r="144.4"/>
<g>
	<path style="fill:#FFD05B;" d="M219.6,143.6c2,2,2,5.6,0,7.6c-1.2,1.2-2.4,1.6-3.6,1.6c-1.2,0-2.8-0.4-3.6-1.6
		c-13.2-13.2-18.8-30.8-17.2-48c1.6,1.6,4,2.4,6.8,2.4l0,0c1.2,0,2.8-0.4,3.6-0.8C204.4,118.8,208.8,133.2,219.6,143.6z"/>
	<path style="fill:#FFD05B;" d="M296,151.2c-2,2-5.2,2-7.6,0c-2-2-2-5.6,0-7.6c10.4-10.4,15.2-24.8,14-38.8c1.2,0.4,2.4,0.8,3.6,0.8
		l0,0c2.4,0,4.8-0.8,6.8-2.4C314.8,120.4,309.2,138,296,151.2z"/>
	<path style="fill:#FFD05B;" d="M219.6,356.8c2,2,2,5.6,0,7.6c-10.4,10.4-15.2,24.8-14,38.8c-1.2-0.4-2.4-0.8-3.6-0.8l0,0
		c-2.4,0-4.8,0.8-6.8,2.4c-1.6-17.2,4-34.8,17.2-48C214,354.8,217.6,354.8,219.6,356.8z"/>
	<path style="fill:#FFD05B;" d="M312.8,404.8c-1.6-1.6-4-2.4-6.8-2.4l0,0c-1.2,0-2.8,0.4-3.6,0.8c1.2-14-3.6-28-14-38.8
		c-2-2-2-5.6,0-7.6c1.2-1.2,2.4-1.6,3.6-1.6s2.8,0.4,3.6,1.6C309.2,370,314.8,387.6,312.8,404.8z"/>
	<path style="fill:#FFD05B;" d="M402.4,306.4c0,2.4,0.8,4.8,2.4,6.8c-17.2,1.6-34.8-4-48-17.2c-2-2-2-5.2,0-7.6c2-2,5.6-2,7.6,0
		c10.4,10.4,24.8,15.2,38.8,14C402.4,303.6,402.4,304.8,402.4,306.4L402.4,306.4z"/>
	<path style="fill:#FFD05B;" d="M356.8,219.6c-1.2-1.2-1.6-2.4-1.6-3.6c0-1.2,0.4-2.8,1.6-3.6c13.2-13.2,30.8-18.8,48-17.2
		c-1.6,1.6-2.4,4-2.4,6.8l0,0c0,1.2,0.4,2.8,0.8,3.6c-14-1.2-28,3.6-38.8,14C362.4,221.6,358.8,221.6,356.8,219.6z"/>
	<path style="fill:#FFD05B;" d="M151.2,288.4c1.2,1.2,1.6,2.4,1.6,3.6s-0.4,2.8-1.6,3.6c-13.2,13.2-30.8,18.8-48,17.2
		c1.6-1.6,2.4-4,2.4-6.8l0,0c0-1.2-0.4-2.8-0.8-3.6c14,1.2,28-3.6,38.8-14C145.6,286.4,149.2,286.4,151.2,288.4z"/>
	<path style="fill:#FFD05B;" d="M105.6,201.6c0-2.4-0.8-4.8-2.4-6.8c17.2-1.6,34.8,4,48,17.2c2,2,2,5.2,0,7.6c-2,2-5.6,2-7.6,0
		c-10.4-10.4-24.8-15.2-38.8-14C105.6,204.4,105.6,203.2,105.6,201.6L105.6,201.6z"/>
</g>
<g>
	<path style="fill:#FFFFFF;" d="M306.4,105.6L306.4,105.6c-4.8,0-8.8-3.2-9.6-7.6c-2-8.4-6.8-15.6-13.2-21.6c-2-1.6-4-3.2-6-4.4
		l5.2,40.4c-9.2-2-18.8-2.8-28.4-2.8s-19.2,0.8-28.4,2.8l5.2-40.4c-2.8,1.6-5.2,3.6-7.6,6C218,83.6,214,90.4,212,98
		c-1.2,4.4-5.2,7.6-9.6,7.6l0,0c-6.4,0-11.2-6-9.6-12.4c2.8-10.8,8.4-20.8,16.8-29.2c12-12,28.4-18.8,45.2-18.8
		C272,45.2,288,52,300,64c8.4,8.4,14,18.8,16.8,29.2C317.6,99.6,312.8,105.6,306.4,105.6z"/>
	<path style="fill:#FFFFFF;" d="M316,414.8c-2.8,10.8-8.4,20.8-16.8,29.2c-12,12-28.4,18.8-45.2,18.8s-33.2-6.8-45.2-18.8
		c-8.4-8.4-14-18.8-16.8-29.2c-1.6-6.4,3.2-12.4,9.6-12.4l0,0c4.8,0,8.4,3.2,9.6,7.6c2,8.4,6.8,15.6,13.2,21.6c2,1.6,4,3.2,6,4.4
		l-5.2-40.4c9.2,2,18.8,2.8,28.4,2.8c9.6,0,19.2-0.8,28.4-2.8l-5.2,40.4c2.8-1.6,5.2-3.6,7.6-6c5.6-5.6,9.6-12.4,11.6-20
		c1.2-4.4,5.2-7.6,9.6-7.6l0,0C312.8,402.4,317.6,408.4,316,414.8z"/>
	<path style="fill:#FFFFFF;" d="M462.8,254c0,17.2-6.8,33.2-18.8,45.2c-8.4,8.4-18.8,14-29.2,16.8c-6.4,1.6-12.4-3.2-12.4-9.6l0,0
		c0-4.8,3.2-8.4,7.6-9.6c8.4-2,15.6-6.8,21.6-13.2c1.6-2,3.2-4,4.4-6l-40.4,5.2c2-9.2,2.8-18.8,2.8-28.4s-0.8-19.2-2.8-28.4
		l40.4,5.2c-1.6-2.8-3.6-5.2-6-7.6c-5.6-5.6-12.4-9.6-20-11.6c-4.4-1.2-7.6-5.2-7.6-9.6l0,0c0-6.4,6-11.2,12.4-9.6
		c10.8,2.8,20.8,8.4,29.2,16.8C456.4,220.8,462.8,236.8,462.8,254z"/>
	<path style="fill:#FFFFFF;" d="M112.4,282.4L72,277.2c1.6,2.8,3.6,5.2,6,7.6c5.6,5.6,12.4,9.6,20,11.6c4.4,1.2,7.6,5.2,7.6,9.6l0,0
		c0,6.4-6,11.2-12.4,9.6c-10.8-2.8-20.8-8.4-29.2-16.8c-12-12-18.8-28.4-18.8-45.2c0-17.2,6.8-33.2,18.8-45.2
		c8.4-8.4,18.8-14,29.2-16.8c6.4-1.6,12.4,3.2,12.4,9.6l0,0c0,4.8-3.2,8.4-7.6,9.6c-8.4,2-15.6,6.8-21.6,13.2c-1.6,2-3.2,4-4.4,6
		l40.4-5.2c-2,9.2-2.8,18.8-2.8,28.4C109.6,263.6,110.4,273.2,112.4,282.4z"/>
</g>
<g>
	<circle style="fill:#324A5E;" cx="254" cy="55.2" r="28.4"/>
	<circle style="fill:#324A5E;" cx="254" cy="452.8" r="28.4"/>
	<circle style="fill:#324A5E;" cx="452.8" cy="254" r="28.4"/>
	<circle style="fill:#324A5E;" cx="55.2" cy="254" r="28.4"/>
</g>
<g>
</g>
<g>
</g>
<g>
</g>
<g>
</g>
<g>
</g>
<g>
</g>
<g>
</g>
<g>
</g>
<g>
</g>
<g>
</g>
<g>
</g>
<g>
</g>
<g>
</g>
<g>
</g>
<g>
</g>
</svg>
