<?xml version="1.0" encoding="iso-8859-1"?>
<!-- Generator: Adobe Illustrator 19.0.0, SVG Export Plug-In . SVG Version: 6.00 Build 0)  -->
<svg version="1.1" id="Layer_1" xmlns="http://www.w3.org/2000/svg" xmlns:xlink="http://www.w3.org/1999/xlink" x="0px" y="0px"
	 viewBox="0 0 508 508" style="enable-background:new 0 0 508 508;" xml:space="preserve">
<circle style="fill:#FD8469;" cx="254" cy="254" r="254"/>
<path style="fill:#FFD05B;" d="M325.2,98.8v74c-17.2-0.8-33.6-0.8-48.8,0.8c-91.2,8.8-85.6-31.6-85.6-31.6s-22-6.4-12.4-29.2
	c0,0-29.2-11.2-6-30c0,0-27.6-14,5.6-30.4c0,0,16.8-4.8,26,3.2l20.4,1.6c0,0,20-18.4,46.8,15.2c0,0,24,16.8,30.4,24
	C302,96.8,310.8,97.6,325.2,98.8z"/>
<g>
	<path style="fill:#F9B54C;" d="M255.2,135.2c4,1.2,17.6-3.2,17.6-3.2c-18,5.2-30.4-14.8-30.4-14.8c1.2,2,11.6,3.6,11.6,3.6
		c-15.6-3.6-26.8-29.6-26.8-29.6c10-4.4,16.4-12.8,16.4-12.8c-8,6.4-16.8,8-16.8,8c-0.4-4.8-5.2-9.6-5.2-9.6c5.6,7.2-0.8,10-0.8,10
		C217.6,74.4,206,78,206,78c12.8,0.4,11.2,8,11.2,8c-5.6-7.2-13.2-4-13.2-4c10.4,1.2,11.2,12,11.2,12c8.4-5.6,6.4-1.2,6.4-1.2
		c14.8,10.8-1.6,15.2-7.2,16.4c0,1.6-0.4,2.8-1.2,4c15.6-6.8,18,0,18,0c9.2,11.2-5.6,12-5.6,12C200,126,190.8,142,190.8,142l0.4,4.8
		C195.6,136,210,132,210,132c24.8-9.6,27.2,2.8,27.2,2.8c2,20.4-14.8,16-14.8,16c-3.2,8-1.2,18.4-1.2,18.4c1.2-4.4,4.8-8.4,4.8-8.4
		c7.2-7.6,20.8,4,20.8,4c-6-5.2-5.6-28.8-5.6-28.8c0.8-11.2,11.6-2.8,11.6-2.8L250,138c2-1.2,18,6,18,6
		C268,141.2,258,136.8,255.2,135.2z"/>
	<path style="fill:#F9B54C;" d="M219.6,57.2c0,0-3.2,4-18.4,10.8c0,0-2.8,1.6-6.4,2.8c-4.8,1.6-7.2,6.8-5.6,11.6
		c2,6.4,4,14.8,3.6,21.6c0,0,0.8,6.8,0,12.8c-0.4,3.6,2.8,6.8,6.4,5.6c6-2,13.6-6.4,16-17.6c0,0,2.4-12.8,0-16.8
		c0,0,7.2,19.6-5.6,29.6c0,0-12.4,12.4-17.6,2.4c0,0,1.2-30-2.4-32c0,0-6.4-12.8,2.4-18.4c0,0,13.6-2,11.2-15.6c0,0,3.2,4,2,8.8
		C204.8,63.6,212.8,62.4,219.6,57.2z"/>
	<path style="fill:#F9B54C;" d="M188.8,83.2c-5.6,1.6-21.6-4-21.6-4.4c2.8,2.4,5.6,4,5.6,4c-2,1.6-3.2,2.8-4.4,4.4
		c8.8-2.8,20.8-0.8,20.8-0.8v-3.2H188.8z"/>
	<path style="fill:#F9B54C;" d="M176,112c1.6,0.8,2.4,1.2,2.4,1.2c-0.4,0.8-0.4,1.6-0.8,2.4c5.6-3.2,15.2-3.2,15.2-3.2L192,108
		C185.2,107.2,176,112,176,112z"/>
</g>
<rect x="325.2" y="87.2" style="fill:#FFFFFF;" width="14.8" height="98"/>
<path style="fill:#324A5E;" d="M340,200h162.4c-10.8-49.6-36-93.6-70.8-128H340V200z"/>
<path style="fill:#FFD05B;" d="M278.8,240.8c9.6,22.8-12.4,29.2-12.4,29.2s5.6,40.4-85.6,31.2c-15.2-1.6-31.6-1.6-48.8-0.8v-74
	c14.4-1.2,23.2-2,23.2-2c6.4-7.2,30.4-24,30.4-24c26.8-33.6,46.8-15.2,46.8-15.2l20.4-1.6c9.2-8,26-3.2,26-3.2
	c33.2,16.4,5.6,30.4,5.6,30.4C308,229.6,278.8,240.8,278.8,240.8z"/>
<g>
	<path style="fill:#F9B54C;" d="M202,263.2c-4,1.2-17.6-3.2-17.6-3.2c18,5.2,30.4-14.8,30.4-14.8c-1.2,2-11.6,3.6-11.6,3.6
		c15.6-3.6,26.8-29.6,26.8-29.6c-10-4.4-16.4-12.8-16.4-12.8c8,6.4,16.8,8,16.8,8c0.4-4.8,5.2-9.6,5.2-9.6c-5.6,7.2,0.8,10,0.8,10
		c3.2-12.4,14.8-8.8,14.8-8.8c-12.8,0.4-11.2,8-11.2,8c5.6-7.2,13.2-4,13.2-4c-10.4,1.2-11.2,12-11.2,12c-8.4-5.6-6.4-1.2-6.4-1.2
		c-14.8,10.8,1.6,15.2,7.2,16.4c0,1.6,0.4,2.8,1.2,4c-15.6-6.8-18,0-18,0c-9.2,11.2,5.6,12,5.6,12C256.8,254,266,270,266,270v4.8
		c-4.4-10.8-18.8-14.8-18.8-14.8c-24.8-9.6-27.2,2.8-27.2,2.8c-2,20.4,14.8,16,14.8,16c3.2,8,1.2,18.4,1.2,18.4
		c-1.2-4.4-4.8-8.4-4.8-8.4c-7.2-7.6-20.8,4-20.8,4c6-5.2,5.6-28.8,5.6-28.8c-0.8-11.2-11.6-2.8-11.6-2.8l2,4.8c-2-1.2-18,6-18,6
		C189.2,269.2,199.2,264.4,202,263.2z"/>
	<path style="fill:#F9B54C;" d="M238,185.2c0,0,3.2,4,18.4,10.8c0,0,2.8,1.6,6.4,2.8c4.8,1.6,7.2,6.8,5.6,11.6
		c-2,6.4-4,14.8-3.6,21.6c0,0-0.8,6.8,0,12.8c0.4,3.6-2.8,6.8-6.4,5.6c-6-2-13.6-6.4-16-17.6c0,0-2.4-12.8,0-16.8
		c0,0-7.2,19.6,5.6,29.6c0,0,12.4,12.4,17.6,2.4c0,0-1.2-30,2.4-32c0,0,6.4-12.8-2.4-18.4c0,0-13.6-2-11.2-15.6c0,0-3.2,4-2,8.8
		C252.4,191.6,244.4,190,238,185.2z"/>
	<path style="fill:#F9B54C;" d="M268.4,211.2c5.6,1.6,21.6-4,21.6-4.4c-2.8,2.4-5.6,4-5.6,4c2,1.6,3.2,2.8,4.4,4.4
		c-8.8-2.8-20.8-0.8-20.8-0.8v-3.2H268.4z"/>
	<path style="fill:#F9B54C;" d="M281.2,239.6c-1.6,0.8-2.4,1.2-2.4,1.2c0.4,0.8,0.8,1.6,0.8,2.4c-5.6-3.2-15.2-3.2-15.2-3.2l0.8-4.4
		C272.4,234.8,281.2,239.6,281.2,239.6z"/>
</g>
<rect x="117.6" y="215.2" style="fill:#FFFFFF;" width="14.8" height="98"/>
<path style="fill:#324A5E;" d="M0,254c0,25.6,4,50.8,11.2,74h106.4V200H5.6C2,217.6,0,235.6,0,254z"/>
<path style="fill:#FFD05B;" d="M309.6,353.6c0,0,8.8,0.8,23.2,2v74c-17.2-0.8-33.6-0.8-48.8,0.8c-91.2,9.2-85.6-31.2-85.6-31.2
	s-22-6.4-12.4-29.2c0,0-29.2-11.2-6-30c0,0-27.6-14,5.6-30.4c0,0,16.8-4.8,26,3.2l20.4,1.6c0,0,20-18.4,46.8,15.2
	C279.2,329.2,303.2,346.4,309.6,353.6z"/>
<g>
	<path style="fill:#F9B54C;" d="M262.8,392c4,1.2,17.6-3.2,17.6-3.2C262,393.6,250,374,250,374c1.2,2,11.6,3.6,11.6,3.6
		C246,374,234.8,348,234.8,348c10-4.4,16.4-12.8,16.4-12.8c-8,6.4-16.8,8-16.8,8c-0.4-4.8-5.2-9.6-5.2-9.6c5.6,7.2-0.8,10-0.8,10
		c-3.2-12.4-14.8-8.8-14.8-8.8c12.8,0.4,11.2,8,11.2,8c-5.6-7.2-13.2-4-13.2-4c10.4,1.2,11.2,12,11.2,12c8.4-5.6,6.4-1.2,6.4-1.2
		c14.8,10.8-1.6,15.2-7.2,16.4c0,1.6-0.4,2.8-1.2,4c15.6-6.8,18,0,18,0c9.2,11.2-5.6,12-5.6,12c-25.2,0.8-34.4,16.8-34.4,16.8
		l0.4,4.8c4.4-10.8,18.8-14.8,18.8-14.8c24.8-9.6,27.2,2.8,27.2,2.8c2,20.4-14.8,16-14.8,16c-3.2,8-1.2,18.4-1.2,18.4
		c1.2-4.4,4.8-8.4,4.8-8.4c7.2-7.6,20.8,4,20.8,4c-6-5.2-5.6-28.8-5.6-28.8c0.8-11.2,11.6-2.8,11.6-2.8l-2,4.8c2-1.2,18,6,18,6
		C275.2,398,265.6,393.2,262.8,392z"/>
	<path style="fill:#F9B54C;" d="M226.8,314c0,0-3.2,4-18.4,10.8c0,0-2.8,1.6-6.4,2.8c-4.8,1.6-7.2,6.8-5.6,11.6
		c2,6.4,4,14.8,3.6,21.6c0,0,0.8,6.8,0,12.8c-0.4,3.6,2.8,6.8,6.4,5.6c6-2,13.6-6.4,16-17.6c0,0,2.4-12.8,0-16.8
		c0,0,7.2,19.6-5.6,29.6c0,0-12.4,12.4-17.6,2.4c0,0,1.2-30-2.4-32c0,0-6.4-12.8,2.4-18.4c0,0,13.6-2,11.2-15.6c0,0,3.2,4,2,8.8
		C212.4,320.4,220.4,318.8,226.8,314z"/>
	<path style="fill:#F9B54C;" d="M196.4,340c-5.6,1.6-21.6-4-21.6-4.4c2.8,2.4,5.6,4,5.6,4c-2,1.6-3.2,2.8-4.4,4.4
		c8.8-2.8,20.8-0.8,20.8-0.8V340H196.4z"/>
	<path style="fill:#F9B54C;" d="M183.6,368.4c1.6,0.8,2.4,1.2,2.4,1.2c-0.4,0.8-0.8,1.6-0.8,2.4c5.6-3.2,15.2-3.2,15.2-3.2l-0.8-4.4
		C192.4,363.6,183.6,368.4,183.6,368.4z"/>
</g>
<rect x="332.8" y="344" style="fill:#FFFFFF;" width="14.8" height="98"/>
<path style="fill:#324A5E;" d="M347.2,328.8v128h59.6c42-31.6,74-76.4,89.6-128H347.2z"/>
<g>
</g>
<g>
</g>
<g>
</g>
<g>
</g>
<g>
</g>
<g>
</g>
<g>
</g>
<g>
</g>
<g>
</g>
<g>
</g>
<g>
</g>
<g>
</g>
<g>
</g>
<g>
</g>
<g>
</g>
</svg>
