<?xml version="1.0" encoding="iso-8859-1"?>
<!-- Generator: Adobe Illustrator 19.0.0, SVG Export Plug-In . SVG Version: 6.00 Build 0)  -->
<svg version="1.1" id="Layer_1" xmlns="http://www.w3.org/2000/svg" xmlns:xlink="http://www.w3.org/1999/xlink" x="0px" y="0px"
	 viewBox="0 0 508 508" style="enable-background:new 0 0 508 508;" xml:space="preserve">
<circle style="fill:#90DFAA;" cx="254" cy="254" r="254"/>
<path style="fill:#2C9984;" d="M110.8,212.8L110.8,212.8L110.8,212.8L110.8,212.8L76,229.6v71.2l20.4,21.6c4.8,0.8,9.6,1.2,14.4,1.2
	s9.6-0.4,14.4-1.2l20.4-21.6v-71.2L110.8,212.8L110.8,212.8z"/>
<ellipse style="fill:#F9B54C;" cx="110.8" cy="221.2" rx="22.4" ry="22.8"/>
<g>
	<path style="fill:#2C9984;" d="M192.4,281.6l-11.2-35.2l-44-21.2c0,15.2-1.2,52.8-19.2,97.6C148.8,320.8,175.2,304.8,192.4,281.6z"
		/>
	<path style="fill:#2C9984;" d="M103.6,322.8c-18-44.8-19.2-82.4-19.2-97.6l-44,21.2l-11.2,35.2C46.4,304.8,72.8,320.8,103.6,322.8z
		"/>
</g>
<g>
	<path style="fill:#FFFFFF;" d="M132.4,216.8c0,0,2.8,15.6-21.6,27.2c0,0,18.4,1.6,23.6,18.4C134.8,263.2,144.8,226,132.4,216.8z"/>
	<path style="fill:#FFFFFF;" d="M89.2,216.8c0,0-2.8,15.6,21.6,27.2c0,0-18.4,1.6-23.6,18.4C86.8,263.2,77.2,226,89.2,216.8z"/>
</g>
<path style="fill:#FFD05B;" d="M147.2,175.2c0,24-16.4,53.2-36.4,53.2s-36.4-29.2-36.4-53.2S90.8,142,110.8,142
	S147.2,151.2,147.2,175.2z"/>
<g>
	<path style="fill:#324A5E;" d="M98.4,136.8c0,0,29.2-11.6,44.4,14.8c16,28.4-4,59.2-8.4,62c0,0,1.2-4.8,4-14.4
		c0,0,7.2-21.2-14.4-24.4c0,0-20.8-2.8-22.4-7.2c0,0,1.6,7.6,10.8,9.2c0,0-21.6-0.4-28.4-8c0,0-9.2,30.4,4.4,46.8
		c0,0-23.2-18.4-20.4-47.2C68.4,168,66.8,128.8,98.4,136.8z"/>
	<path style="fill:#324A5E;" d="M132,182.8h-11.2h-1.2H102h-0.4h-12c-3.6,0-6.4,2.8-6.4,6.4v5.2c0,3.6,2.8,6.4,6.4,6.4H102
		c1.6,0,3.2-0.8,4.4-1.6c0.4,0,0.8-0.4,0.8-0.8c0.8-2,2.4-3.2,4-3.2s3.2,1.2,4,3.2c0,0.4,0.4,0.8,0.8,0.8c1.2,1.2,2.4,1.6,4.4,1.6
		h12.4c3.6,0,6.4-2.8,6.4-6.4v-5.2C138.4,185.6,135.6,182.8,132,182.8z M89.6,198c-2,0-3.2-1.6-3.2-3.2v-5.2c0-2,1.6-3.2,3.2-3.2h12
		h0.4c2,0,3.2,1.6,3.2,3.2v5.2c0,0.4,0,0.8-0.4,1.2c0,0.4-0.4,0.4-0.4,0.8c-0.4,0.4-1.6,1.2-2.4,1.2H89.6z M110.8,192.4
		c-0.8,0-2,0.4-2.8,0.8v-3.6c0-1.2-0.4-2.4-0.8-3.2h7.2c-0.8,0.8-0.8,2-0.8,3.2v3.6C112.8,192.4,111.6,192.4,110.8,192.4z
		 M135.6,194.4c0,2-1.6,3.2-3.2,3.2H120c-1.2,0-2-0.4-2.8-1.2c0-0.4-0.4-0.4-0.4-0.8c0-0.4-0.4-0.8-0.4-1.2v-5.2
		c0-2,1.6-3.2,3.2-3.2h1.2H132c2,0,3.2,1.6,3.2,3.2v5.2H135.6z"/>
</g>
<path style="fill:#E6E9EE;" d="M227.6,216L227.6,216L227.6,216L227.6,216l-43.2,20.8v88.4l25.2,26.8c6,0.8,12,1.2,18,1.2
	s12-0.4,18-1.2l25.2-26.8v-88.4L227.6,216L227.6,216z"/>
<ellipse style="fill:#F9B54C;" cx="227.6" cy="226.8" rx="27.6" ry="28"/>
<polygon style="fill:#54C0EB;" points="239.2,255.2 215.6,255.2 220.4,268.4 234.8,268.4 "/>
<path style="fill:#84DBFF;" d="M208.4,352c6,0.8,12.4,1.6,18.8,1.6c6.4,0,12.8-0.4,18.8-1.6l-11.6-83.6H220L208.4,352z"/>
<g>
	<path style="fill:#324A5E;" d="M328.8,301.6l-14-43.6l-54.4-26.4c0,18.8-1.2,65.6-23.6,121.2C274.4,350.4,307.6,330.8,328.8,301.6z
		"/>
	<path style="fill:#324A5E;" d="M218.4,352.8c-22.4-55.6-23.6-102.4-23.6-121.2L140,258l-14,43.6
		C147.2,330.8,180.4,350.4,218.4,352.8z"/>
</g>
<g>
	<path style="fill:#FFFFFF;" d="M254.4,221.2c0,0,3.6,19.2-27.2,34c0,0,22.8,1.6,29.2,23.2C257.2,278.8,269.6,232.4,254.4,221.2z"/>
	<path style="fill:#FFFFFF;" d="M200.4,221.2c0,0-3.6,19.2,27.2,34c0,0-22.8,1.6-29.2,23.2C198,278.8,185.6,232.4,200.4,221.2z"/>
</g>
<path style="fill:#FFD05B;" d="M272.8,169.2c0,29.6-20.4,66-45.2,66s-45.2-36.4-45.2-66s20.4-41.2,45.2-41.2
	S272.8,139.6,272.8,169.2z"/>
<g>
	<path style="fill:#324A5E;" d="M212,122c0,0,36.4-14.4,55.2,18.4c20,35.2-5.2,73.6-10.4,76.8c0,0,1.2-6,5.2-18
		c0,0,8.8-26.4-18-30.4c0,0-26-3.6-28-9.2c0,0,2,9.6,13.6,11.2c0,0-26.8-0.8-35.2-10c0,0-11.2,37.6,5.2,58c0,0-28.8-23.2-25.2-58.4
		C174.4,160.8,172.8,112,212,122z"/>
	<path style="fill:#324A5E;" d="M254,179.2h-14h-1.2h-22.4h-0.8h-14.8c-4.4,0-8,3.6-8,8v6.4c0,4.4,3.6,8,8,8H216c2,0,4-0.8,5.2-2
		c0.4,0,0.8-0.4,1.2-1.2c1.2-2.4,2.8-4,4.8-4s4,1.6,4.8,4c0.4,0.4,0.4,0.8,1.2,0.8c1.2,1.2,3.2,2,5.2,2H254c4.4,0,8-3.6,8-8v-6.4
		C262,182.8,258.4,179.2,254,179.2z M200.8,197.6c-2.4,0-4-2-4-4v-6.4c0-2.4,2-4,4-4h14.8h0.8c2.4,0,4,2,4,4v6.4
		c0,0.4,0,1.2-0.4,1.6c0,0.4-0.4,0.4-0.4,0.8c-0.8,1.2-2,1.6-3.2,1.6L200.8,197.6L200.8,197.6z M227.6,190.8c-1.2,0-2.4,0.4-3.2,0.8
		v-4.4c0-1.6-0.4-2.8-1.2-4h8.8c-0.8,1.2-1.2,2.8-1.2,4v4.4C229.6,191.2,228.8,190.8,227.6,190.8z M258,193.6c0,2.4-2,4-4,4h-15.2
		c-1.2,0-2.4-0.8-3.2-1.6c0-0.4-0.4-0.4-0.4-0.8c-0.4-0.4-0.4-1.2-0.4-1.6v-6.4c0-2.4,2-4,4-4h1.2h14c2.4,0,4,2,4,4V193.6z"/>
</g>
<ellipse style="fill:#2B3B4E;" cx="356.4" cy="141.2" rx="27.2" ry="18"/>
<path style="fill:#324A5E;" d="M398.8,225.6c2.8-10.4,4.4-21.2,4.4-31.2c0-37.2-20.8-51.6-46.8-51.6s-46.8,14.4-46.8,51.6
	c0,10,1.6,20.8,4.4,31.2L398.8,225.6L398.8,225.6z"/>
<path style="fill:#FF7058;" d="M356.4,250L356.4,250L356.4,250L356.4,250L308,273.2V372l8.4,8.8c12.8,3.6,26,6,40,6s27.2-2,40-6
	l8.4-8.8v-98.8L356.4,250L356.4,250z"/>
<ellipse style="fill:#F9B54C;" cx="356.4" cy="262.4" rx="31.2" ry="31.6"/>
<g>
	<path style="fill:#FF7058;" d="M466,334l-12-36.8L393.2,268c0,19.2-1.2,63.6-20,118C410.8,381.2,443.6,362,466,334z"/>
	<path style="fill:#FF7058;" d="M339.6,385.6c-18.8-54.4-20-99.2-20-118l-60.8,29.2l-12,36.8C269.2,362,302.4,381.2,339.6,385.6z"/>
</g>
<g>
	<path style="fill:#FFFFFF;" d="M386.8,255.6c0,0,4,21.6-30.4,38c0,0,25.2,2,32.8,26C389.6,320.4,403.6,268.4,386.8,255.6z"/>
	<path style="fill:#FFFFFF;" d="M326,255.6c0,0-4,21.6,30.4,38c0,0-25.2,2-32.8,26C323.2,320.4,309.6,268.4,326,255.6z"/>
</g>
<path style="fill:#FFD05B;" d="M401.6,214.4c-1.2-1.2-3.2-1.2-4.8-0.4l0,0c0.8-16.8-9.2-19.2-9.2-19.2c-10.8-4-14.8-14-16.4-21.6
	c-4.4,4.8-11.6,10-23.6,14.8c-32.8,13.2-31.6,26-31.6,26l0,0l0,0l0,0c-1.6-0.8-3.6-0.8-4.8,0.4c-3.2,2.4-3.2,9.2-0.4,15.6
	c3.2,6,8,8.8,11.2,6.8c7.6,19.6,20,34.8,34.4,34.8c14,0,26.8-15.6,34.4-35.2c3.2,2,8.4-0.8,11.2-6.8
	C405.2,224,404.8,216.8,401.6,214.4z"/>
<g>
</g>
<g>
</g>
<g>
</g>
<g>
</g>
<g>
</g>
<g>
</g>
<g>
</g>
<g>
</g>
<g>
</g>
<g>
</g>
<g>
</g>
<g>
</g>
<g>
</g>
<g>
</g>
<g>
</g>
</svg>
