<?xml version="1.0" encoding="iso-8859-1"?>
<!-- Generator: Adobe Illustrator 19.0.0, SVG Export Plug-In . SVG Version: 6.00 Build 0)  -->
<svg version="1.1" id="Layer_1" xmlns="http://www.w3.org/2000/svg" xmlns:xlink="http://www.w3.org/1999/xlink" x="0px" y="0px"
	 viewBox="0 0 508 508" style="enable-background:new 0 0 508 508;" xml:space="preserve">
<circle style="fill:#324A5E;" cx="254" cy="254" r="254"/>
<path style="fill:#E6E9EE;" d="M254,0c-36.4,0-71.2,7.6-102.4,21.6c4.4,17.2,11.2,34.8,14,44.8c4,13.6,13.6,17.6,13.6,17.6
	s41.2,19.6,45.2,20.8c4.4,1.2,4.8,5.6,4.8,5.6c-0.4,5.6,2,8.8,2,8.8v5.2c-1.2,2.8-2.4,14-2.4,14c-6-0.8-7.6,11.2-7.6,11.2
	c-2.4,13.6,2,13.2,2,13.2c-5.2,15.6,1.2,26.4,1.2,26.4c9.6,18,29.2,15.2,29.2,15.2s19.6,2.4,29.2-15.2c0,0,6.4-10.8,1.2-26.4
	c0,0,4.4,0.4,2-13.2c0,0-1.6-12-7.6-11.2c0,0-1.2-11.6-2.4-14v-5.2c0,0,2.8-3.2,2.4-8.8c0,0,0.4-4.4,4.8-5.6S328.4,84,328.4,84
	s10-4,13.6-17.6c2.8-9.6,9.6-27.6,14-44.8C325.2,7.6,290.4,0,254,0z"/>
<path style="fill:#FF7058;" d="M196,218.8c0,0-10.8-6.4-26.8-1.2c0,0,0.4-4.4-13.2-2c0,0-12,1.6-11.2,7.6c0,0-11.6,1.2-14,2.4h-5.2
	c0,0-3.2-2.8-8.8-2.4c0,0-4.4-0.4-5.6-4.8c-1.2-4.4-20.8-45.2-20.8-45.2s-4-9.6-17.6-13.6c-10.4-2.8-30-10.4-48-14.8
	C8.8,178,0,215.2,0,254.4c0,20.8,2.4,41.2,7.2,60.4c0.4,0,0.8,0,0.8,0s-0.4,0-0.4,0.4c3.2,12.8,7.2,25.2,12.4,37.2
	c19.2-4,41.6-12.8,52.8-16c13.6-4,17.6-13.6,17.6-13.6s19.6-41.2,20.8-45.2c1.2-4.4,5.6-4.8,5.6-4.8c5.6,0.4,8.8-2,8.8-2h5.2
	c2.8,1.2,14,2.4,14,2.4c-0.8,6,11.2,7.6,11.2,7.6c13.6,2.4,13.2-2,13.2-2c16,5.2,26.8-1.2,26.8-1.2c18-9.6,15.2-29.2,15.2-29.2
	S214,228.4,196,218.8z"/>
<path style="fill:#FFD05B;" d="M328.8,411.6c0,0-41.2-19.6-45.2-20.8c-4.4-1.2-4.8-5.6-4.8-5.6c0.4-5.6-2.4-8.8-2.4-8.8v-5.2
	c1.2-2.8,2.4-14,2.4-14c6,0.8,7.6-11.2,7.6-11.2c2.4-13.6-2-13.2-2-13.2c5.2-16-1.2-26.8-1.2-26.8c-9.6-18-29.2-15.2-29.2-15.2
	s-19.6-2.8-29.2,15.2c0,0-6.4,10.8-1.2,26.8c0,0-4.4-0.4-2,13.2c0,0,1.6,12,7.6,11.2c0,0,1.2,11.6,2.4,14v5.2c0,0-2.8,3.2-2,8.8
	c0,0-0.4,4.4-4.8,5.6c-4.4,1.2-45.2,20.8-45.2,20.8s-9.6,4-13.6,17.6c-3.6,12-13.2,36-16.8,56c32,14.4,67.6,22.8,105.2,22.8
	s73.2-8,105.2-22.8l0,0c-3.6-20-13.2-44-16.8-56C338.4,415.6,328.8,411.6,328.8,411.6z"/>
<path style="fill:#54C0EB;" d="M483.2,144.4c-18,4.4-37.6,12-48,14.8c-13.6,4-17.6,13.6-17.6,13.6S398,214,396.8,218.4
	s-5.6,4.8-5.6,4.8c-5.6-0.4-8.8,2.4-8.8,2.4h-5.2c-2.8-1.2-14-2.4-14-2.4c0.8-6-11.2-7.6-11.2-7.6c-13.6-2.4-13.2,2-13.2,2
	c-15.6-5.2-26.8,1.2-26.8,1.2c-18,9.6-15.2,29.2-15.2,29.2s-2.8,19.6,15.2,29.2c0,0,10.8,6.4,26.8,1.2c0,0-0.4,4.4,13.2,2
	c0,0,12-1.6,11.2-7.6c0,0,11.6-1.2,14-2.4h5.2c0,0,3.2,2.8,8.8,2c0,0,4.4,0.4,5.6,4.8s20.8,45.2,20.8,45.2s4,9.6,17.6,13.6
	c11.2,3.2,33.6,12,52.8,16c12.8-30,19.6-63.2,19.6-98C508,214.8,499.2,177.6,483.2,144.4z"/>
<g>
</g>
<g>
</g>
<g>
</g>
<g>
</g>
<g>
</g>
<g>
</g>
<g>
</g>
<g>
</g>
<g>
</g>
<g>
</g>
<g>
</g>
<g>
</g>
<g>
</g>
<g>
</g>
<g>
</g>
</svg>
