<?xml version="1.0" encoding="iso-8859-1"?>
<!-- Generator: Adobe Illustrator 19.0.0, SVG Export Plug-In . SVG Version: 6.00 Build 0)  -->
<svg version="1.1" id="Layer_1" xmlns="http://www.w3.org/2000/svg" xmlns:xlink="http://www.w3.org/1999/xlink" x="0px" y="0px"
	 viewBox="0 0 508 508" style="enable-background:new 0 0 508 508;" xml:space="preserve">
<circle style="fill:#84DBFF;" cx="254" cy="254" r="254"/>
<path style="fill:#E6E9EE;" d="M406,241.6c-0.4,1.6-0.4,3.6-0.8,5.2h-42c-0.4-2-0.4-3.6-0.8-5.2c5.2-15.6,21.6-17.2,21.6-17.2
	S400.8,225.6,406,241.6z"/>
<path style="fill:#F9B54C;" d="M384.4,224.4L384.4,224.4C384,224.4,384,224.4,384.4,224.4c-22.8-10.8-20-25.2-20-25.2
	c0-0.4,0-0.4,0-0.8c5.6,6.8,12.4,11.2,20,11.2s14.4-4.4,20-11.2c0,0,0,0.4,0,0.8c0,0,0,0,0,0.4C404.4,201.6,404.8,214.4,384.4,224.4
	z"/>
<g>
	<path style="fill:#F1543F;" d="M384.4,224.4L384.4,224.4C384,224.4,384,224.4,384.4,224.4L384.4,224.4z"/>
	<path style="fill:#F1543F;" d="M392,226.4l-2.8,7.6h-10.8l-2.8-7.6c4.4-2,8-2,8-2S387.6,224.8,392,226.4z"/>
</g>
<polygon style="fill:#FF7058;" points="391.2,246.8 377.2,246.8 378.8,234.4 389.6,234.4 "/>
<g>
	<path style="fill:#2B3B4E;" d="M456.4,250.4c-3.6-2.4-7.6-3.6-12-3.6h-39.6c0.4-2,0.4-3.6,0.8-5.2l0,0c0.4-0.8,6-21.2,2.8-34
		l40,19.2L456.4,250.4z"/>
	<path style="fill:#2B3B4E;" d="M363.2,246.8h-14l-9.2-28l-2-1.2l21.2-10.4c-2.8,12.8,2.4,33.6,2.8,34l0,0
		C362.8,243.2,362.8,244.8,363.2,246.8z"/>
</g>
<g>
	<path style="fill:#FFFFFF;" d="M404.4,199.2c0,0,2.4,14.4-20,25.2c0,0,16.8,1.2,21.6,17.2C406,242,415.2,207.6,404.4,199.2z"/>
	<path style="fill:#FFFFFF;" d="M364,199.2c0,0-2.4,14.4,20,25.2c0,0-16.8,1.2-21.6,17.2C362.4,242,353.2,207.6,364,199.2z"/>
</g>
<path style="fill:#FFD05B;" d="M409.6,183.2c-2.4,7.6-3.6,12-3.6,13.2l0,0c-6,8-13.6,13.6-22,13.6c-7.6,0-14.8-4.8-20.4-12
	c-12.4-15.2-4-42.8-4-42.8c6.4,6.8,26.4,7.2,26.4,7.2c-8-1.2-10-7.6-10-8.4c1.6,4,20.8,6.8,20.8,6.8
	C416.4,163.6,409.6,183.2,409.6,183.2z"/>
<path style="fill:#2B3B4E;" d="M372.8,125.6c0,0,27.2-10.8,40.8,13.6c14.8,26.4-3.6,54.8-7.6,56.8c0,0,0.8-4.4,3.6-13.2
	c0,0,6.8-19.6-13.2-22.4c0,0-19.2-2.4-20.8-6.8c0,0,1.2,6.8,10,8.4c0,0-20-0.4-26-7.6c0,0-8.4,28,4,42.8c0,0-21.2-17.2-18.8-43.2
	C344.8,154.4,344,118.4,372.8,125.6z"/>
<path style="fill:#E6E9EE;" d="M145.6,241.6c-0.4,1.6-0.4,3.6-0.8,5.2h-42c-0.4-2-0.4-3.6-0.8-5.2c5.2-15.6,21.6-17.2,21.6-17.2
	S140.4,225.6,145.6,241.6z"/>
<path style="fill:#F9B54C;" d="M124,224.4L124,224.4C123.6,224.4,123.6,224.4,124,224.4c-22.8-10.8-20-25.2-20-25.2
	c0-0.4,0-0.4,0-0.8c5.6,6.8,12.4,11.2,20,11.2c7.6,0,14.4-4.4,20-11.2c0,0,0,0.4,0,0.8c0,0,0,0,0,0.4
	C144,201.6,144.4,214.4,124,224.4z"/>
<g>
	<path style="fill:#F1543F;" d="M124,224.4L124,224.4C123.6,224.4,123.6,224.4,124,224.4L124,224.4z"/>
	<path style="fill:#F1543F;" d="M131.6,226.4l-2.8,7.6H118l-2.8-7.6c4.4-2,8-2,8-2S127.2,224.8,131.6,226.4z"/>
</g>
<polygon style="fill:#FF7058;" points="130.8,246.8 116.8,246.8 118.4,234.4 129.2,234.4 "/>
<g>
	<path style="fill:#2B3B4E;" d="M169.6,217.6l-2,1.2l-9.2,28h-14c0.4-2,0.4-3.6,0.8-5.2c0.4-0.8,6-21.2,2.8-34L169.6,217.6z"/>
	<path style="fill:#2B3B4E;" d="M102.8,246.8H63.2c-4.4,0-8.4,1.2-12,3.6l7.6-23.6l40-19.2c-3.2,12.8,2.4,33.6,2.8,34
		C102.4,243.2,102.4,244.8,102.8,246.8z"/>
</g>
<g>
	<path style="fill:#FFFFFF;" d="M144,199.2c0,0,2.4,14.4-20,25.2c0,0,16.8,1.2,21.6,17.2C145.6,242,154.8,207.6,144,199.2z"/>
	<path style="fill:#FFFFFF;" d="M103.6,199.2c0,0-2.4,14.4,20,25.2c0,0-16.8,1.2-21.6,17.2C102,242,92.8,207.6,103.6,199.2z"/>
</g>
<path style="fill:#FFD05B;" d="M149.2,183.2c-2.4,7.6-3.6,12-3.6,13.2l0,0c-6,8-13.6,13.6-22,13.6c-7.6,0-14.8-4.8-20.4-12
	c-12.4-15.2-4-42.8-4-42.8c6,7.2,26,7.6,26,7.6c-8-1.2-10-7.6-10-8.4c1.6,4,20.8,6.8,20.8,6.8C156,163.6,149.2,183.2,149.2,183.2z"
	/>
<path style="fill:#2B3B4E;" d="M112.4,125.6c0,0,27.2-10.8,40.8,13.6c14.8,26.4-3.6,54.8-7.6,56.8c0,0,0.8-4.4,3.6-13.2
	c0,0,6.8-19.6-13.2-22.4c0,0-19.2-2.4-20.8-6.8c0,0,1.2,6.8,10,8.4c0,0-20-0.4-26-7.6c0,0-8.4,28,4,42.8c0,0-21.2-17.2-18.8-43.2
	C84.4,154.4,83.6,118.4,112.4,125.6z"/>
<path style="fill:#E6E9EE;" d="M283.2,238.4c-0.4,2.8-0.8,5.6-1.2,8.4h-55.6c-0.4-2.8-0.8-5.6-1.2-8.4c6.8-21.2,29.2-22.8,29.2-22.8
	S276.4,217.6,283.2,238.4z"/>
<path style="fill:#F9B54C;" d="M254,215.6L254,215.6L254,215.6c-30.4-14.8-26.8-33.6-26.8-33.6c0-0.4,0-0.4,0-0.8
	c7.2,9.2,16.4,15.2,26.8,15.2c10,0,19.2-6,26.8-15.2c0,0.4,0,0.4,0,0.8c0,0,0,0,0,0.4C281.2,185.6,281.6,202.4,254,215.6z"/>
<path style="fill:#F1543F;" d="M254,215.6L254,215.6L254,215.6L254,215.6z"/>
<path style="fill:#54C0EB;" d="M264.8,218.4l-3.6,10.4h-14.4l-3.6-10.4c5.6-2.4,10.4-2.8,10.4-2.8S258.8,216,264.8,218.4z"/>
<polygon style="fill:#84DBFF;" points="263.6,246.8 244.4,246.8 246.8,228.8 261.2,228.8 "/>
<g>
	<path style="fill:#324A5E;" d="M349.6,246.8h-68c0.4-2.8,0.8-5.6,1.2-8.4c0,0.4,8-28,3.6-45.6l53.6,25.6L349.6,246.8z"/>
	<path style="fill:#324A5E;" d="M226.4,246.8h-68l9.2-28l53.6-25.6c-4,17.2,3.2,44.8,3.6,45.6l0,0
		C225.2,241.2,225.6,244,226.4,246.8z"/>
</g>
<g>
	<path style="fill:#FFFFFF;" d="M280.8,182c0,0,3.6,18.8-26.8,33.6c0,0,22.4,1.6,29.2,22.8C283.2,239.2,295.6,193.2,280.8,182z"/>
	<path style="fill:#FFFFFF;" d="M227.2,182c0,0-3.6,18.8,26.8,33.6c0,0-22.4,1.6-29.2,22.8C224.8,239.2,212.4,193.2,227.2,182z"/>
</g>
<path style="fill:#FFD05B;" d="M288,160.4c-3.2,10-4.8,16-4.8,17.6l0,0c-8,10.8-18,18-29.2,18c-10.4,0-20-6.4-27.6-16
	c-16.4-20-5.2-57.2-5.2-57.2c8,9.2,34.8,10,34.8,10c-10.8-1.6-13.2-10-13.6-11.2c2,5.6,27.6,8.8,27.6,8.8
	C296.8,134.4,288,160.4,288,160.4z"/>
<path style="fill:#324A5E;" d="M238.4,84c0,0,36-14.4,54.4,18.4c19.6,35.2-5.2,72.8-10,76c0,0,1.2-6,5.2-17.6c0,0,8.8-26-17.6-30
	c0,0-25.6-3.6-27.6-9.2c0,0,2,9.2,13.6,11.2c0,0-26.4-0.8-34.8-10c0,0-11.2,37.2,5.2,57.6c0,0-28.4-22.8-25.2-58
	C201.6,122.4,200,74,238.4,84z"/>
<path style="fill:#FFFFFF;" d="M444.4,366H63.6c-12,0-22-10-22-22v-75.2c0-12,10-22,22-22h381.2c12,0,22,10,22,22V344
	C466.4,356,456.8,366,444.4,366z"/>
<g>
	<path style="fill:#FF7058;" d="M123.6,269.2c3.2,0,6.4,2.8,6.4,6c0,3.6-2.8,6.4-6.4,6.4h-12.4v55.6c0,3.2-2.8,6-6.4,6
		c-3.2,0-6-2.8-6-6v-55.6H86.4c-3.2,0-6-2.8-6-6.4c0-3.2,2.8-6,6-6H123.6z"/>
	<path style="fill:#FF7058;" d="M216.8,337.6c0,3.2-2.8,6-6.4,6h-34c-3.6,0-6.4-2.8-6.4-6v-62c0-3.2,2.8-6,6.4-6h34
		c3.6,0,6.4,2.8,6.4,6c0,3.6-2.8,6.4-6.4,6.4h-28v18.4H204c3.2,0,6,2.8,6,6s-2.8,6-6,6h-21.6v18.4h28
		C214,331.2,216.8,334,216.8,337.6z"/>
	<path style="fill:#FF7058;" d="M318.8,335.2c2.4,5.2-0.8,6.8-3.2,8c-0.8,0.4-6,1.6-8.4-3.6l-4.8-11.6h-28.8l-4.8,11.6
		c-0.8,2.4-3.2,4-5.6,4c-3.6,0-7.2-4.8-5.6-8.4l24.8-62c0.8-2.4,3.2-4,6-4c2.4,0,4.8,1.6,5.6,4L318.8,335.2z M297.6,315.6l-9.2-23.6
		l-9.6,23.6H297.6z"/>
	<path style="fill:#FF7058;" d="M415.2,337.6V294l-16.8,22.4c-2.4,3.2-6.4,4.8-10,0L372,294v43.6c0,3.2-2.8,6-6.4,6
		c-3.2,0-6-2.8-6-6v-62c0-3.2,2.8-6,6.4-6c2,0,3.6,0.8,4.8,2.4l22.8,30.4l22.8-30.4c1.2-1.6,2.8-2.4,4.8-2.4c3.6,0,6.4,2.8,6.4,6v62
		c0,3.2-2.8,6-6.4,6C418,343.6,415.2,340.8,415.2,337.6z"/>
</g>
<g>
</g>
<g>
</g>
<g>
</g>
<g>
</g>
<g>
</g>
<g>
</g>
<g>
</g>
<g>
</g>
<g>
</g>
<g>
</g>
<g>
</g>
<g>
</g>
<g>
</g>
<g>
</g>
<g>
</g>
</svg>
