<?xml version="1.0" encoding="iso-8859-1"?>
<!-- Generator: Adobe Illustrator 19.0.0, SVG Export Plug-In . SVG Version: 6.00 Build 0)  -->
<svg version="1.1" id="Layer_1" xmlns="http://www.w3.org/2000/svg" xmlns:xlink="http://www.w3.org/1999/xlink" x="0px" y="0px"
	 viewBox="0 0 508 508" style="enable-background:new 0 0 508 508;" xml:space="preserve">
<circle style="fill:#F1543F;" cx="254" cy="254" r="254"/>
<path style="fill:#FFFFFF;" d="M254.8,83.6c-94,0-170.4,76.4-170.4,170.4c0,40.8,14.4,78,38,107.2l7.6,86.4l83.6-28.8
	c13.2,3.2,26.8,5.2,41.2,5.2c94,0,170.4-76.4,170.4-170.4C425.2,160,349.2,83.6,254.8,83.6z"/>
<g>
	<path style="fill:#E6E9EE;" d="M332,315.2c0.8,0,1.6,0.4,2,0.4C333.6,315.2,332.8,315.2,332,315.2L332,315.2z"/>
	<path style="fill:#E6E9EE;" d="M334.4,315.6c0.8,0,1.6,0,2.4,0l0,0C335.6,315.6,335.2,315.6,334.4,315.6z"/>
	<path style="fill:#E6E9EE;" d="M341.2,266.8L341.2,266.8C341.2,266.8,340.8,266.8,341.2,266.8L341.2,266.8z"/>
	<path style="fill:#E6E9EE;" d="M345.6,315.6c1.6,0,2.8-0.4,4.4-0.4l0,0c-2.8,0.4-6,0.8-8.8,0.8c-1.6,0-3.2,0-4.4,0
		c-5.6-14-8.4-26.8-10-37.2c3.2-10.4,14.4-11.6,14.4-11.6s11.2,0.8,14.8,11.6C354,288.8,351.2,301.6,345.6,315.6z"/>
</g>
<g>
	<path style="fill:#F9B54C;" d="M354.4,250c0,0,1.6,9.6-13.2,16.8l0,0c-15.2-7.2-13.6-16.8-13.6-16.8l0,0v-0.4
		c3.6,4.4,8.4,7.6,13.6,7.6C346,257.2,350.8,254.4,354.4,250L354.4,250L354.4,250z"/>
	<path style="fill:#F9B54C;" d="M330.4,252.8L328,254c-0.8-2.4-0.4-4-0.4-4l0,0v-0.4C328.4,250.8,329.6,251.6,330.4,252.8z"/>
	<path style="fill:#F9B54C;" d="M354.4,250c0,0,0.4,1.6-0.4,4l-2.4-1.2C352.4,251.6,353.6,250.8,354.4,250L354.4,250L354.4,250z"/>
</g>
<g>
	<path style="fill:#F1543F;" d="M341.2,266.8L341.2,266.8C341.2,266.8,340.8,266.8,341.2,266.8L341.2,266.8z"/>
	<path style="fill:#F1543F;" d="M346.4,268.4l-1.6,5.2h-7.2l-1.6-5.2c2.8-1.2,5.2-1.6,5.2-1.6S343.6,267.2,346.4,268.4z"/>
</g>
<g>
	<path style="fill:#FF7058;" d="M345.6,315.6c0.4,0,0.8,0,1.2,0l0,0C346.4,315.6,346,315.6,345.6,315.6z"/>
	<path style="fill:#FF7058;" d="M349.2,306c-1.2,3.2-2.4,6.4-3.6,9.6c-1.6,0-3.2,0-4.4,0c-3.2,0-4.4,0-4.4,0
		c-1.2-3.2-2.4-6.4-3.6-9.6l4.4-32.4h7.2L349.2,306z"/>
</g>
<g>
	<path style="fill:#2B3B4E;" d="M391.2,290c-10.4,14.4-26.8,24-45.6,25.6c5.6-14,8.4-26.8,10-37.2c0,0.4,4-14,2-22.8l26.8,12.8
		L391.2,290z"/>
	<path style="fill:#2B3B4E;" d="M336.4,315.6c-18.8-1.2-35.2-11.2-45.6-25.6l6.8-21.6l26.8-12.8c-2,8.8,1.6,22.8,2,22.8l0,0
		C328,288.8,330.8,301.6,336.4,315.6z"/>
</g>
<g>
	<path style="fill:#FFFFFF;" d="M354.4,250c0,0,1.6,9.6-13.6,16.8c0,0,11.2,0.8,14.8,11.6C355.6,278.8,362,255.6,354.4,250z"/>
	<path style="fill:#FFFFFF;" d="M327.6,250c0,0-1.6,9.6,13.6,16.8c0,0-11.2,0.8-14.8,11.6C326.4,278.8,320,255.6,327.6,250z"/>
</g>
<path style="fill:#FFD05B;" d="M358,239.2c-2,5.6-2.4,8.8-2.4,8.8l0,0c-4,5.2-9.2,9.2-14.4,9.2c-5.2,0-10-3.2-14-8l0,0
	c-8.4-10-2.4-28.8-2.4-28.8c4,4.8,17.6,4.8,17.6,4.8c-6-0.8-6.8-5.6-6.8-5.6c0.8,2.8,14,4.4,14,4.4C362.4,226.4,358,239.2,358,239.2
	z"/>
<path style="fill:#2B3B4E;" d="M333.2,200.8c0,0,18-7.2,27.2,9.2c10,17.6-2.4,36.8-5.2,38c0,0,0.8-3.2,2.4-8.8
	c0,0,4.4-13.2-8.8-15.2c0,0-12.8-1.6-14-4.4c0,0,0.8,4.8,6.8,5.6c0,0-13.2-0.4-17.6-4.8c0,0-5.6,18.8,2.4,28.8
	c0,0-14.4-11.6-12.4-29.2C314.8,220,314,196,333.2,200.8z"/>
<g>
	<path style="fill:#E6E9EE;" d="M160,315.2c0.8,0,1.6,0.4,2,0.4C161.6,315.2,160.8,315.2,160,315.2L160,315.2z"/>
	<path style="fill:#E6E9EE;" d="M162,315.6c0.8,0,1.6,0,2.4,0l0,0C163.6,315.6,162.8,315.6,162,315.6z"/>
	<path style="fill:#E6E9EE;" d="M169.2,266.8C168.8,266.8,168.8,266.8,169.2,266.8C168.8,266.8,168.8,266.8,169.2,266.8L169.2,266.8
		z"/>
	<path style="fill:#E6E9EE;" d="M173.6,315.6c1.6,0,2.8-0.4,4.4-0.4l0,0c-2.8,0.4-6,0.8-8.8,0.8c-1.6,0-3.2,0-4.4,0
		c-5.6-14-8.4-26.8-10-37.2c3.2-10.4,14.4-11.6,14.4-11.6s11.2,0.8,14.8,11.6C182,288.8,179.2,301.6,173.6,315.6z"/>
</g>
<g>
	<path style="fill:#F9B54C;" d="M182.4,250c0,0,1.6,9.6-13.2,16.8l0,0C154,259.6,156,250,156,250l0,0v-0.4c3.6,4.4,8.4,7.6,13.6,7.6
		C174,257.2,178.8,254.4,182.4,250L182.4,250L182.4,250z"/>
	<path style="fill:#F9B54C;" d="M158.4,252.8L156,254c-0.8-2.4-0.4-4-0.4-4l0,0v-0.4C156.4,250.8,157.2,251.6,158.4,252.8z"/>
	<path style="fill:#F9B54C;" d="M182.4,250c0,0,0.4,1.6-0.4,4l-2.4-1.2C180.4,251.6,181.6,250.8,182.4,250L182.4,250L182.4,250z"/>
</g>
<g>
	<path style="fill:#F1543F;" d="M169.2,266.8C168.8,266.8,168.8,266.8,169.2,266.8C168.8,266.8,168.8,266.8,169.2,266.8L169.2,266.8
		z"/>
	<path style="fill:#F1543F;" d="M174.4,268.4l-1.6,5.2h-7.2l-1.6-5.2c2.8-1.2,5.2-1.6,5.2-1.6S171.2,267.2,174.4,268.4z"/>
</g>
<g>
	<path style="fill:#FF7058;" d="M173.6,315.6c0.4,0,0.8,0,1.2,0l0,0C174,315.6,174,315.6,173.6,315.6z"/>
	<path style="fill:#FF7058;" d="M177.2,306c-1.2,3.2-2.4,6.4-3.6,9.6c-1.6,0-3.2,0-4.4,0c-3.2,0-4.4,0-4.4,0
		c-1.2-3.2-2.4-6.4-3.6-9.6l4.4-32.4h7.2L177.2,306z"/>
</g>
<g>
	<path style="fill:#2B3B4E;" d="M219.2,290c-10.4,14.4-26.8,24-45.6,25.6c5.6-14,8.4-26.8,10-37.2c0,0.4,4-14,2-22.8l26.8,12.8
		L219.2,290z"/>
	<path style="fill:#2B3B4E;" d="M164.4,315.6c-18.8-1.2-35.2-11.2-45.6-25.6l6.8-21.6l26.8-12.8c-2,8.8,1.6,22.8,2,22.8l0,0
		C156,288.8,158.8,301.6,164.4,315.6z"/>
</g>
<g>
	<path style="fill:#FFFFFF;" d="M182.4,250c0,0,1.6,9.6-13.6,16.8c0,0,11.2,0.8,14.8,11.6C183.6,278.8,190,255.6,182.4,250z"/>
	<path style="fill:#FFFFFF;" d="M155.6,250c0,0-1.6,9.6,13.6,16.8c0,0-11.2,0.8-14.8,11.6C154.4,278.8,148,255.6,155.6,250z"/>
</g>
<path style="fill:#FFD05B;" d="M186,239.2c-2,5.6-2.4,8.8-2.4,8.8l0,0c-4,5.2-9.2,9.2-14.4,9.2s-10-3.2-14-8l0,0
	c-8.4-10-2.4-28.8-2.4-28.8c4,4.8,17.6,4.8,17.6,4.8c-6-0.8-6.8-5.6-6.8-5.6c0.8,2.8,14,4.4,14,4.4C190.4,226.4,186,239.2,186,239.2
	z"/>
<path style="fill:#2B3B4E;" d="M161.2,200.8c0,0,18-7.2,27.2,9.2c10,17.6-2.4,36.8-5.2,38c0,0,0.8-3.2,2.4-8.8
	c0,0,4.4-13.2-8.8-15.2c0,0-12.8-1.6-14-4.4c0,0,0.8,4.8,6.8,5.6c0,0-13.2-0.4-17.6-4.8c0,0-5.6,18.8,2.4,28.8
	c0,0-14.4-11.6-12.4-29.2C142.8,220,142,196,161.2,200.8z"/>
<g>
	<path style="fill:#E6E9EE;" d="M243.2,334.4c0.8,0,2,0.4,2.8,0.4C245.2,334.8,244.4,334.8,243.2,334.4L243.2,334.4z"/>
	<path style="fill:#E6E9EE;" d="M246.4,334.8c0.8,0,2,0,2.8,0.4l0,0C248.4,335.2,247.2,334.8,246.4,334.8z"/>
	<path style="fill:#E6E9EE;" d="M255.2,270L255.2,270L255.2,270L255.2,270z"/>
	<path style="fill:#E6E9EE;" d="M261.2,335.2c2,0,4-0.4,6-0.8l0,0c-4,0.4-8,0.8-12,0.8c-2,0-4,0-6-0.4
		c-7.6-18.4-11.2-35.6-13.6-49.6c4.4-14,19.6-15.2,19.6-15.2s15.2,1.2,19.6,15.2C272.8,299.6,268.8,316.4,261.2,335.2z"/>
</g>
<g>
	<path style="fill:#F9B54C;" d="M273.2,247.6c0,0,2.4,12.8-18,22.4h-0.4c-20-10-18-22.4-18-22.4l0,0v-0.4c5.2,6,11.2,10,18,10
		c6.8,0,12.8-4,18-10C273.2,247.2,273.2,247.6,273.2,247.6L273.2,247.6z"/>
	<path style="fill:#F9B54C;" d="M241.2,251.2l-3.2,1.6c-0.8-3.2-0.4-5.2-0.4-5.2l0,0v-0.4C238.4,248.4,240,250,241.2,251.2z"/>
	<path style="fill:#F9B54C;" d="M273.2,247.6c0,0,0.4,2-0.4,5.2l-3.2-1.6c1.2-1.2,2.8-2.4,4-4C273.2,247.2,273.2,247.6,273.2,247.6
		L273.2,247.6z"/>
</g>
<path style="fill:#F1543F;" d="M255.2,270L255.2,270L255.2,270L255.2,270z"/>
<path style="fill:#54C0EB;" d="M262.4,272l-2.4,6.8h-9.6L248,272c4-1.6,7.2-2,7.2-2S258.4,270.4,262.4,272z"/>
<path style="fill:#FF7058;" d="M261.2,335.2c0.4,0,0.8,0,1.6,0l0,0C262.4,335.2,262,335.2,261.2,335.2z"/>
<path style="fill:#84DBFF;" d="M266,322c-1.2,4.4-2.8,8.8-4.8,13.2c-2,0-4,0.4-6,0.4c-4.4,0-6-0.4-6-0.4c-1.6-4.4-3.2-8.8-4.8-13.2
	l6-43.2h9.6L266,322z"/>
<g>
	<path style="fill:#324A5E;" d="M322.4,301.2c-14,19.2-36,32.4-61.2,34c7.6-18.4,11.2-35.6,13.6-49.6c0,0.4,5.2-18.8,2.4-30.4
		l36,17.2L322.4,301.2z"/>
	<path style="fill:#324A5E;" d="M249.2,335.2c-25.2-2-47.2-14.8-61.2-34l9.2-28.8l36-17.2c-2.8,11.6,2.4,30.4,2.4,30.4l0,0
		C238,299.6,241.6,316.4,249.2,335.2z"/>
</g>
<g>
	<path style="fill:#FFFFFF;" d="M273.2,247.6c0,0,2.4,12.8-18,22.4c0,0,15.2,1.2,19.6,15.2C274.8,286,283.2,255.2,273.2,247.6z"/>
	<path style="fill:#FFFFFF;" d="M237.2,247.6c0,0-2.4,12.8,18,22.4c0,0-15.2,1.2-19.6,15.2C235.6,286,227.2,255.2,237.2,247.6z"/>
</g>
<path style="fill:#FFD05B;" d="M278,233.2c-2.4,7.6-3.2,11.6-3.2,12l0,0c-5.2,7.2-12,12-19.6,12c-6.8,0-13.6-4.4-18.4-10.8l0,0
	c-11.2-13.6-3.6-38.4-3.6-38.4c5.6,6.4,23.2,6.8,23.2,6.8c-7.6-1.2-9.2-7.6-9.2-7.6c1.2,3.6,18.4,6,18.4,6
	C284,216,278,233.2,278,233.2z"/>
<path style="fill:#324A5E;" d="M244.8,181.6c0,0,24.4-9.6,36.4,12.4c13.2,23.6-3.2,48.8-6.8,50.8c0,0,0.8-4,3.2-12c0,0,6-17.6-12-20
	c0,0-17.2-2.4-18.4-6c0,0,1.2,6.4,9.2,7.6c0,0-17.6-0.4-23.2-6.8c0,0-7.6,24.8,3.6,38.4c0,0-19.2-15.2-16.8-38.8
	C220,207.6,219.2,175.2,244.8,181.6z"/>
<g>
</g>
<g>
</g>
<g>
</g>
<g>
</g>
<g>
</g>
<g>
</g>
<g>
</g>
<g>
</g>
<g>
</g>
<g>
</g>
<g>
</g>
<g>
</g>
<g>
</g>
<g>
</g>
<g>
</g>
</svg>
