<?xml version="1.0" encoding="iso-8859-1"?>
<!-- Generator: Adobe Illustrator 19.0.0, SVG Export Plug-In . SVG Version: 6.00 Build 0)  -->
<svg version="1.1" id="Layer_1" xmlns="http://www.w3.org/2000/svg" xmlns:xlink="http://www.w3.org/1999/xlink" x="0px" y="0px"
	 viewBox="0 0 508 508" style="enable-background:new 0 0 508 508;" xml:space="preserve">
<circle style="fill:#54C0EB;" cx="254" cy="254" r="254"/>
<path style="fill:#FF7058;" d="M452.8,412.4C406,470.4,334.4,508,254,508c-40.4,0-78.4-9.2-112-26c-34-16.8-63.2-40.8-86.4-69.6
	l21.6-66.8l109.6-52.8c-8.8,35.6,7.2,94.4,7.6,93.2c12.4-39.2,51.2-46,58.4-46.8c0.8,0,1.2,0,1.2,0h1.2c0.4,0,0.8,0,1.2,0
	c9.2,1.2,45.6,9.2,57.6,46.4c0.4,1.2,16-57.6,7.6-93.6l109.6,52.8L452.8,412.4z"/>
<path style="fill:#2B3B4E;" d="M303.6,62.8c0,4.8-1.6,9.2-4,13.2c-13.2-7.2-28.8-10.8-45.6-10.8s-32.4,3.2-45.6,10.8
	c-2.8-4-4-8.4-4-13.2c0-18.4,22.4-32.8,49.6-32.8C281.6,30,303.6,44.4,303.6,62.8z"/>
<path style="fill:#324A5E;" d="M339.2,158.8c0,11.6-1.2,24-3.2,36c-2.4-1.6-5.2-1.6-8.4-0.4c0,0,0,0,0-0.4
	c1.6-30.4-16.4-34.8-16.4-34.8c-19.2-7.2-26.8-25.6-29.6-39.2c-8,8.8-21.2,18.4-42.4,26.8C179.6,171.2,182,194,182,194.4l0,0
	l-0.8-0.4l0,0c-3.2-1.2-6-1.2-8.4,0.4c-2-12.4-3.2-24.4-3.2-36c0-67.6,38-93.6,85.2-93.6C300.8,65.2,339.2,91.6,339.2,158.8z"/>
<path style="fill:#F9B54C;" d="M308.8,270c0,0,7.2,38.8-54.8,68.8h-0.4c-61.6-30-54.4-68.8-54.4-68.8s0,0-0.4,0.4
	c0.8-4,2-8,3.6-11.6c13.6,24,31.6,40.4,51.2,40.4c20,0,38-16.8,51.2-40.4C307.2,262.4,308.4,266.4,308.8,270
	C309.2,270.4,308.8,270.4,308.8,270z"/>
<path style="fill:#FFFFFF;" d="M308.8,270c0,0,7.2,38.8-54.8,68.8c0,0,46,3.6,59.6,46.8C314,387.6,339.2,293.2,308.8,270z"/>
<path id="SVGCleanerId_0" style="fill:#FFFFFF;" d="M199.2,270c0,0-7.2,38.8,54.8,68.8c0,0-46,3.6-59.6,46.8
	C194,387.6,168.8,293.2,199.2,270z"/>
<g>
	<path id="SVGCleanerId_0_1_" style="fill:#FFFFFF;" d="M199.2,270c0,0-7.2,38.8,54.8,68.8c0,0-46,3.6-59.6,46.8
		C194,387.6,168.8,293.2,199.2,270z"/>
</g>
<path style="fill:#FFD05B;" d="M336,195.2c-2.4-2-5.6-2-8.8-0.8c0,0,0,0,0-0.4c1.6-30.4-16.4-34.8-16.4-34.8
	c-19.2-7.2-26.8-25.6-29.6-39.2c-8,8.8-21.2,18.4-42.4,26.8c-59.6,24.4-57.2,47.2-57.2,47.6l0,0l-0.8-0.4c0,0,0,0,0,0.4
	c-3.2-1.2-6.4-1.2-8.8,0.8c-6,4.4-6,17.2-0.4,28s14.4,16,20.4,12.4c13.6,35.6,36.4,63.6,62,63.6c25.6,0,48.4-28,62-63.6
	c6,3.6,14.8-1.6,20.4-12.4S342,200,336,195.2z"/>
<g>
	<path style="fill:#F1543F;" d="M399.6,462l-18.8-40.4c0,0,4.8,28.8-7.2,56.4C382.4,473.2,391.2,468,399.6,462z"/>
	<path style="fill:#F1543F;" d="M108.4,462c8.4,5.6,16.8,11.2,26,16c-12-27.6-7.2-56.4-7.2-56.4L108.4,462z"/>
</g>
<g>
</g>
<g>
</g>
<g>
</g>
<g>
</g>
<g>
</g>
<g>
</g>
<g>
</g>
<g>
</g>
<g>
</g>
<g>
</g>
<g>
</g>
<g>
</g>
<g>
</g>
<g>
</g>
<g>
</g>
</svg>
