<?xml version="1.0" encoding="iso-8859-1"?>
<!-- Generator: Adobe Illustrator 19.0.0, SVG Export Plug-In . SVG Version: 6.00 Build 0)  -->
<svg version="1.1" id="Layer_1" xmlns="http://www.w3.org/2000/svg" xmlns:xlink="http://www.w3.org/1999/xlink" x="0px" y="0px"
	 viewBox="0 0 508 508" style="enable-background:new 0 0 508 508;" xml:space="preserve">
<circle style="fill:#324A5E;" cx="254" cy="254" r="254"/>
<circle style="fill:#FFFFFF;" cx="254.4" cy="254" r="156.8"/>
<g>
	<path style="fill:#54C0EB;" d="M277.6,99.2c3.6,3.6,7.6,7.2,11.2,11.2c-2.8,2.8-4.8,6.8-6,10.4c3.6,0.8,6.4,4.4,6.4,8.4
		c0,2-0.8,4.4,0.8,6c0.8,0.8,1.6,1.2,2.8,1.6c4.4,2,8.8,3.6,13.2,5.6c4.4,2,10,4.8,9.6,9.6c-6-0.8-11.6-1.6-17.2-3.6
		c0.4,4,1.2,8,2.4,11.6c5.6-0.4,11.6,0.4,16.8,2c0,2.4-0.4,4.8-0.4,7.2c3.6-0.4,7.6,2.4,8,6s-2,7.6-5.6,8.4c6,4,11.2,9.2,15.6,15.2
		c-0.4,7.6-0.8,14.8-1.6,22.4c-0.4,5.2-0.8,10.4,0,15.6c0.8,4.8,2,9.6,4.4,14c4,8,11.2,14.8,20,16.8s18.8-1.2,23.2-8.8
		c1.6-2.8,3.2-7.2,6.8-7.2c2.8,0,5.2,2.8,5.6,6c0.8,2.8,0.8,6,2.4,8.8c0.8,1.2,1.6,2,2,2.8c2,3.2,0.8,7.6,0,11.2
		c-2.8,9.6-5.6,19.6-4,29.6c0.4,3.2,1.6,6.4,3.2,9.2c9.2-20,14.4-42,14.4-65.2C411.2,175.2,353.2,110.4,277.6,99.2z"/>
	<path style="fill:#54C0EB;" d="M254,130.4c-1.6-4.4-7.2-4.8-12-4.8c-5.2,0-10.8,0-15.2,2.8c-1.6,1.2-3.2,2.4-4.8,3.2
		c-2.8,1.2-5.6,0.8-8.8,0.4c-3.2-0.4-6.8-1.2-10-0.4s-6.4,2.8-7.2,6c-0.4,1.6-0.4,3.2-1.2,4.4c-1.2,2.4-4.8,2.4-7.2,2
		c-3.2-0.4-7.2-1.2-8-4c-0.4-1.2-0.4-2.4,0-3.6c0.8-8,2.8-15.6,5.6-23.2c-14.8,7.2-28,16.4-39.6,27.6c0.8,0.8,1.2,1.6,2,2.4
		c1.2,1.2,2.8,2.4,4,4c0.8,1.2,0.8,2.8,0.8,4.4c0,4.4,0.4,8.4-0.4,12.8c-3.2,14-18.4,22-22.8,35.6c-1.6,4.4-1.6,9.2-1.6,13.6
		c-0.4,15.6,1.6,32,9.2,45.6c6.8,12,17.2,21.2,27.6,30.4c4.4,3.6,8.4,7.6,12.8,11.2c2.4,2.4,6.8,4.4,8.8,1.6
		c0.8-1.2,0.8-3.2,0.8-4.8c-0.4-3.6-0.8-7.2-1.6-10.8c0-1.2-0.4-2.8-1.2-4c-1.2-1.2-3.2-2-3.6-3.6c-1.2-2.4,2-4.8,2.8-7.6
		c0.4-1.6-0.4-3.6-2-4.8c-2.8-1.6-6,0-8.4,1.6c-2.4,2-4.8,4.4-7.6,5.2c-4.4,0.8-8.8-2.8-10-7.2c-1.2-4.4,0-8.8,1.6-13.2
		c1.2-3.6,3.2-7.6,6.8-9.2c4-2.4,9.2-1.6,14-0.4c2,0.4,4.4,0.8,6.4,1.2c0.8,0,1.6,0.4,2.4,0.8c2.4,1.6,2,4.8,2.8,7.2
		c0.8,2.4,4.4,4.8,5.6,2.8c-0.8-6-1.2-13.2,3.2-17.2c1.2-0.8,2.4-1.6,3.6-2.4c1.2-1.2,2-2.4,2.8-3.6c3.6-6.4,7.6-12.4,11.2-18.8
		c0.4-0.8,1.2-2,2-2.8c3.2-2,8,0.8,10.8-2c3.6-3.2-2-11.2,2.4-13.6c4.4-2.8,10,6.4,14,3.2c1.6-8.8-3.2-17.6-10.4-22.4
		c-7.2-4.8-16.4-6-25.2-5.6c-0.8,0-1.6,0-2.4,0.8c-0.8,0.8-1.2,2-1.2,3.2c-0.8,5.6-2.8,10.8-6,15.2c-5.6-3.2-12-7.6-12.4-14
		s5.2-11.2,10.4-14.8c3.6-2.8,7.2-5.6,10.8-8.4c0.8-0.8,1.6-1.2,2.8-1.2c1.6-0.4,3.6,1.2,3.6,3.2c0,1.6-2,3.2-3.6,2.8
		c-0.8,4,2.4,8,6.4,8.8s8-1.2,10.8-4c0.4-2.4,0-5.2-1.6-7.2c-2-3.2-6-6.4-3.6-9.6c1.2-1.6,3.2-1.6,5.2-1.2s3.2,1.6,4.8,2.8
		c2,1.2,4,1.6,5.6,3.2c2.8,2.4,3.6,6,4,9.6s1.2,7.2,3.6,10s7.6,2.4,9.2-0.8c0.8-2,0-4,0.4-6.4c0.4-4,4.8-6.4,5.6-10
		c1.6-5.6-4.4-10.8-5.2-16.8C254.4,134.4,254.8,132.4,254,130.4z"/>
	<path style="fill:#54C0EB;" d="M272,310c-5.6-3.2-10.8-8-17.6-8.8c-3.2-0.4-6.8,0-8.8-2c-0.8-0.8-1.2-2.4-2.4-3.2
		c-1.2-1.2-2.8-1.6-4-1.6c-6.4-1.2-12.8-2-19.2-2c-4.8,0-10,0.8-12.8,4.4c-1.2,2-2,4-3.2,6c-1.6,2.4-4,4-5.6,6.4
		c-2.8,3.6-3.6,8-4.4,12.4c-1.2,5.6-2,12,0.8,17.2c2.4,4,6.8,6.4,10.8,8.4c12.8,7.2,25.2,18,27.6,32.4c0.8,5.6,0.4,12,3.6,16.8
		c3.6,5.6,11.2,7.6,17.6,8.8c3.2,0.8,7.2,0.4,8-2.4c-2,1.2-4.8,0.4-6.4-1.2s-1.6-4.4-0.4-6.4c3.2-4.8,10.8-1.2,16.4-3.2
		c6.8-2.4,7.6-12.4,13.6-16c2.8-1.6,7.2-2.4,8.4-5.6c0.4-0.8,0.4-1.6,0.8-2.8c1.6-4.4,8-3.6,12-6c2.8-2,4-6,4-9.6s-0.4-7.2,0.4-10.8
		c1.6-6.4,8-12.4,5.2-18.4c-2.4-4.8-8.4-5.6-13.6-5.6C292.4,316.8,281.6,315.6,272,310z"/>
</g>
<path style="fill:#FF7058;" d="M464,193.6c-3.2-2-7.6-1.2-9.6,2l-6,9.6c-10-39.6-32-76-63.6-102.8C348.4,71.2,302.4,54,254.4,54
	s-94,17.2-130.4,48.4c-36,30.8-59.6,73.2-67.2,120c-0.8,3.6,2,7.2,5.6,8s7.2-2,8-5.6c14.4-90.8,92-156.4,184-156.4
	c86.8,0,160.4,58.4,180.8,141.2l-10.8-7.2c-3.2-2-7.6-1.2-9.6,2s-1.2,7.6,2,9.6l24.4,16c1.2,0.8,2.4,1.2,3.6,1.2c0.4,0,0.8,0,1.6,0
	c2-0.4,3.2-1.6,4.4-3.2l15.2-24.4C468,200,467.2,195.6,464,193.6z"/>
<path style="fill:#FFD05B;" d="M446,278c-3.6-0.8-7.2,2-8,5.6C423.6,374.4,346,440,254,440c-87.6,0-161.6-59.6-181.2-143.6l10.8,6.8
	c3.2,2,7.6,1.2,9.6-2s1.2-7.6-2-9.6l-24.4-16c-1.6-1.2-3.6-1.2-5.2-0.8c-2,0.4-3.2,1.6-4.4,3.2L42,302.4c-2,3.2-1.2,7.6,2,9.6
	c4,2.8,8.4,0,9.6-2l6.4-10c9.6,40.8,32,78,64.4,105.6c36.4,31.2,82.4,48.4,130.4,48.4s94-17.2,130.4-48.4
	c36-30.8,59.6-73.2,67.2-120C452.4,282,450,278.4,446,278z"/>
<g>
</g>
<g>
</g>
<g>
</g>
<g>
</g>
<g>
</g>
<g>
</g>
<g>
</g>
<g>
</g>
<g>
</g>
<g>
</g>
<g>
</g>
<g>
</g>
<g>
</g>
<g>
</g>
<g>
</g>
</svg>
