<?xml version="1.0" encoding="iso-8859-1"?>
<!-- Generator: Adobe Illustrator 19.0.0, SVG Export Plug-In . SVG Version: 6.00 Build 0)  -->
<svg xmlns="http://www.w3.org/2000/svg" xmlns:xlink="http://www.w3.org/1999/xlink" version="1.1" id="Layer_1" x="0px" y="0px" viewBox="0 0 505 505" style="enable-background:new 0 0 505 505;" xml:space="preserve">
<circle style="fill:#324A5E;" cx="252.5" cy="252.5" r="252.5"/>
<g>
	<path style="fill:#FFFFFF;" d="M183.1,397c-12.7,5.6-28.4,8.9-45.4,8.9s-32.8-3.3-45.4-8.9c0.2-24.9,20.5-45,45.4-45   C162.6,351.9,182.9,372,183.1,397z"/>
	<path style="fill:#FFFFFF;" d="M154.4,315.4c0,12.6-7.5,27.4-16.8,27.4s-16.8-14.8-16.8-27.4s7.5-18.3,16.8-18.3   C146.9,297.2,154.4,302.8,154.4,315.4z"/>
	<path style="fill:#FFFFFF;" d="M297.9,424.4c-12.7,5.6-28.4,8.9-45.4,8.9s-32.8-3.3-45.4-8.9c0.2-24.9,20.5-45,45.4-45   C277.4,379.3,297.7,399.4,297.9,424.4z"/>
	<path style="fill:#FFFFFF;" d="M269.3,342.8c0,12.6-7.5,27.4-16.8,27.4s-16.8-14.8-16.8-27.4s7.5-18.3,16.8-18.3   S269.3,330.2,269.3,342.8z"/>
	<path style="fill:#FFFFFF;" d="M412.8,397c-12.7,5.6-28.4,8.9-45.4,8.9s-32.8-3.3-45.4-8.9c0.2-24.9,20.5-45,45.4-45   S412.6,372,412.8,397z"/>
	<path style="fill:#FFFFFF;" d="M384.2,315.4c0,12.6-7.5,27.4-16.8,27.4s-16.8-14.8-16.8-27.4s7.5-18.3,16.8-18.3   C376.6,297.2,384.2,302.8,384.2,315.4z"/>
</g>
<path style="fill:#FFD05B;" d="M367.4,251.2h-109V220c0-3.3-2.7-5.9-5.9-5.9c-3.3,0-5.9,2.6-5.9,5.9v31.2h-109  c-3.3,0-5.9,2.6-5.9,5.9v22.6c0,3.3,2.7,5.9,5.9,5.9c3.3,0,5.9-2.6,5.9-5.9V263h217.9v16.7c0,3.3,2.7,5.9,5.9,5.9  c3.3,0,5.9-2.6,5.9-5.9v-22.6C373.3,253.9,370.6,251.2,367.4,251.2z"/>
<g>
	<path style="fill:#FFFFFF;" d="M319.6,219c-18.7,8.3-42,13.2-67.1,13.2s-48.3-4.9-67.1-13.2c0.3-36.8,30.2-66.5,67.1-66.5   S319.2,182.3,319.6,219z"/>
	<path style="fill:#FFFFFF;" d="M277.3,98.7c0,18.6-11.1,40.4-24.8,40.4s-24.8-21.8-24.8-40.4s11.1-27,24.8-27   C266.2,71.7,277.3,80.1,277.3,98.7z"/>
</g>
<g>
</g>
<g>
</g>
<g>
</g>
<g>
</g>
<g>
</g>
<g>
</g>
<g>
</g>
<g>
</g>
<g>
</g>
<g>
</g>
<g>
</g>
<g>
</g>
<g>
</g>
<g>
</g>
<g>
</g>
</svg>
