<?xml version="1.0" encoding="iso-8859-1"?>
<!-- Generator: Adobe Illustrator 19.0.0, SVG Export Plug-In . SVG Version: 6.00 Build 0)  -->
<svg xmlns="http://www.w3.org/2000/svg" xmlns:xlink="http://www.w3.org/1999/xlink" version="1.1" id="Layer_1" x="0px" y="0px" viewBox="0 0 505 505" style="enable-background:new 0 0 505 505;" xml:space="preserve">
<circle style="fill:#90DFAA;" cx="252.5" cy="252.5" r="252.5"/>
<path style="fill:#FFFFFF;" d="M423.5,381.9h-342c-1,0-1.7-0.8-1.7-1.7V124.9c0-1,0.8-1.7,1.7-1.7h342c1,0,1.7,0.8,1.7,1.7v255.3  C425.2,381.1,424.4,381.9,423.5,381.9z"/>
<g>
	<rect x="112.7" y="152.7" style="fill:#324A5E;" width="27.8" height="199.6"/>
	<rect x="364.4" y="152.7" style="fill:#324A5E;" width="27.8" height="199.6"/>
	<rect x="159" y="152.7" style="fill:#324A5E;" width="23.5" height="155.8"/>
	<rect x="199.9" y="152.7" style="fill:#324A5E;" width="23.5" height="155.8"/>
	<rect x="240.7" y="152.7" style="fill:#324A5E;" width="23.5" height="155.8"/>
	<rect x="281.6" y="152.7" style="fill:#324A5E;" width="23.5" height="155.8"/>
	<rect x="322.5" y="152.7" style="fill:#324A5E;" width="23.5" height="155.8"/>
	<path style="fill:#324A5E;" d="M159,324.1h11.3V352h-6v-22.6H159V324.1z"/>
	<path style="fill:#324A5E;" d="M199.9,328.8c-1.7,0-3.1,0.6-4,1.7c-0.9,1.2-1.5,2.7-1.7,4.7c1.7-1.1,3.6-1.7,5.5-1.7   c2.6,0,4.8,0.9,6.5,2.6s2.6,4,2.6,6.8s-0.9,5.1-2.8,6.8c-1.9,1.7-4.2,2.6-7.1,2.6c-2,0-3.7-0.4-5.1-1.1c-1.4-0.8-2.6-1.8-3.4-3.2   c-1.6-2.6-2.4-5.9-2.4-9.9c0-2.6,0.3-4.8,0.9-6.7c0.6-1.9,1.5-3.4,2.6-4.6c2.1-2.2,4.8-3.4,7.9-3.4c1.3,0,2.5,0.2,3.7,0.6   s2.1,0.8,2.7,1.2c0.6,0.4,1.3,0.9,2.1,1.5l-3,4.4c-0.2-0.2-0.4-0.4-0.7-0.6c-0.3-0.3-0.9-0.6-1.8-1S200.8,328.8,199.9,328.8z    M199.1,338.8c-1.2,0-2.3,0.4-3.1,1.1s-1.3,1.7-1.3,2.9c0,1.2,0.4,2.2,1.2,3s1.8,1.3,3,1.3s2.2-0.4,3-1.1s1.2-1.7,1.2-2.9   c0-1.2-0.4-2.2-1.1-3C201.3,339.3,200.4,338.8,199.1,338.8z"/>
	<path style="fill:#324A5E;" d="M243.1,324.1v5.4h-11v4.7c0.8-0.2,1.8-0.4,2.8-0.4c2.7,0,5,0.8,6.9,2.4s2.9,3.8,2.9,6.6   c0,2.8-1,5-3,6.8s-4.5,2.7-7.4,2.7c-3.8,0-6.9-1.4-9.5-4.2l3.3-4.5c0.2,0.2,0.6,0.5,1,0.9c0.4,0.3,1.1,0.8,2.2,1.4   c1.1,0.6,2.1,0.9,3.2,0.9s2-0.3,2.8-1c0.8-0.6,1.2-1.6,1.2-2.8s-0.4-2.2-1.3-2.9c-0.9-0.7-2-1-3.4-1s-3,0.5-4.9,1.5l-2.6-2.8v-13.6   h16.8V324.1z"/>
	<path style="fill:#324A5E;" d="M259.9,324.1h11.3V352h-6v-22.6h-5.3V324.1z"/>
	<path style="fill:#324A5E;" d="M300.8,328.8c-1.7,0-3.1,0.6-4,1.7c-0.9,1.2-1.5,2.7-1.7,4.7c1.7-1.1,3.6-1.7,5.5-1.7   c2.6,0,4.8,0.9,6.5,2.6s2.6,4,2.6,6.8s-0.9,5.1-2.8,6.8c-1.9,1.7-4.2,2.6-7.1,2.6c-2,0-3.7-0.4-5.1-1.1c-1.5-0.8-2.6-1.8-3.4-3.2   c-1.6-2.6-2.4-5.9-2.4-9.9c0-2.6,0.3-4.8,0.9-6.7c0.6-1.9,1.5-3.4,2.6-4.6c2.1-2.2,4.8-3.4,7.9-3.4c1.3,0,2.5,0.2,3.7,0.6   s2.1,0.8,2.7,1.2c0.6,0.4,1.3,0.9,2.1,1.5l-3,4.4c-0.2-0.2-0.4-0.4-0.7-0.6c-0.3-0.3-0.9-0.6-1.8-1   C302.6,329,301.7,328.8,300.8,328.8z M300,338.8c-1.2,0-2.3,0.4-3.1,1.1c-0.8,0.7-1.3,1.7-1.3,2.9c0,1.2,0.4,2.2,1.2,3   c0.8,0.8,1.8,1.3,3,1.3s2.2-0.4,3-1.1s1.2-1.7,1.2-2.9c0-1.2-0.4-2.2-1.1-3S301.3,338.8,300,338.8z"/>
	<path style="fill:#324A5E;" d="M344,324.1v5.4h-11v4.7c0.8-0.2,1.8-0.4,2.8-0.4c2.7,0,5,0.8,6.9,2.4s2.9,3.8,2.9,6.6   c0,2.8-1,5-3,6.8s-4.5,2.7-7.4,2.7c-3.8,0-6.9-1.4-9.5-4.2l3.3-4.5c0.2,0.2,0.6,0.5,1,0.9c0.4,0.3,1.1,0.8,2.2,1.4s2.1,0.9,3.2,0.9   s2-0.3,2.8-1c0.8-0.6,1.2-1.6,1.2-2.8s-0.4-2.2-1.3-2.9c-0.9-0.7-2-1-3.5-1c-1.4,0-3,0.5-4.9,1.5l-2.6-2.8v-13.6H344V324.1z"/>
</g>
<g>
</g>
<g>
</g>
<g>
</g>
<g>
</g>
<g>
</g>
<g>
</g>
<g>
</g>
<g>
</g>
<g>
</g>
<g>
</g>
<g>
</g>
<g>
</g>
<g>
</g>
<g>
</g>
<g>
</g>
</svg>
