<?xml version="1.0" encoding="iso-8859-1"?>
<!-- Generator: Adobe Illustrator 19.0.0, SVG Export Plug-In . SVG Version: 6.00 Build 0)  -->
<svg xmlns="http://www.w3.org/2000/svg" xmlns:xlink="http://www.w3.org/1999/xlink" version="1.1" id="Layer_1" x="0px" y="0px" viewBox="0 0 505 505" style="enable-background:new 0 0 505 505;" xml:space="preserve">
<circle style="fill:#324A5E;" cx="252.5" cy="252.5" r="252.5"/>
<g>
	<path style="fill:#CED5E0;" d="M327.4,211.6c-1.8,3.9-2.9,9-2.9,14.4c0,12.7,5.8,23,13.1,23c7.2,0,13.1-10.3,13.1-23   c0-5.5-1.1-10.5-2.9-14.4H327.4z"/>
	<path style="fill:#CED5E0;" d="M371.7,242c-1.8,3.9-2.9,9-2.9,14.4c0,12.7,5.8,23,13.1,23c7.2,0,13.1-10.3,13.1-23   c0-5.5-1.1-10.5-2.9-14.4H371.7z"/>
	<path style="fill:#CED5E0;" d="M177.6,211.6c1.8,3.9,2.9,9,2.9,14.4c0,12.7-5.8,23-13.1,23c-7.2,0-13.1-10.3-13.1-23   c0-5.5,1.1-10.5,2.9-14.4H177.6z"/>
	<path style="fill:#CED5E0;" d="M133.3,242c1.8,3.9,2.9,9,2.9,14.4c0,12.7-5.8,23-13.1,23s-13.1-10.3-13.1-23   c0-5.5,1.1-10.5,2.9-14.4H133.3z"/>
</g>
<g>
	<polygon style="fill:#E6E9EE;" points="413.8,319.1 252.5,273.3 252.5,174.8 413.8,277.1  "/>
	<polygon style="fill:#E6E9EE;" points="91.2,319.1 252.5,273.3 252.5,174.8 91.2,277.1  "/>
	<polygon style="fill:#E6E9EE;" points="328.3,408.2 252.5,382.2 252.5,326.2 328.3,384.3  "/>
	<polygon style="fill:#E6E9EE;" points="176.7,408.2 252.5,382.2 252.5,326.2 176.7,384.3  "/>
</g>
<path style="fill:#FFFFFF;" d="M284.1,205.4c0,96.8-14.2,216.7-31.6,216.7s-31.6-120-31.6-216.7c0-96.8,14.2-133.7,31.6-133.7  S284.1,108.7,284.1,205.4z"/>
<path style="fill:#324A5E;" d="M272.6,142.4c0,0.5,0,1-0.1,1.4c-5.2-5.1-12.2-8.2-20.1-8.2c-7.8,0-14.9,3.1-20.1,8.2  c0-0.5-0.1-0.9-0.1-1.4c0-11.1,9-20.1,20.1-20.1C263.6,122.2,272.6,131.2,272.6,142.4z"/>
<path style="fill:#E6E9EE;" d="M252.5,392.8L252.5,392.8c-1.3,0-2.4-1.1-2.4-2.4v-44.5c0-1.3,1.1-2.4,2.4-2.4l0,0  c1.3,0,2.4,1.1,2.4,2.4v44.5C254.9,391.7,253.8,392.8,252.5,392.8z"/>
<polygon style="fill:#FFD05B;" points="369.4,130.1 389.7,127.1 369.4,124.2 377.4,113.6 366.7,121.5 363.8,101.3 360.9,121.5   350.2,113.6 358.2,124.2 338,127.1 358.2,130.1 350.2,140.7 360.9,132.7 363.8,153 366.7,132.7 377.4,140.7 "/>
<polygon style="fill:#84DBFF;" points="88.7,181 109,178 88.7,175.1 96.7,164.5 86,172.4 83.1,152.2 80.2,172.4 69.5,164.5   77.5,175.1 57.2,178 77.5,181 69.5,191.6 80.2,183.6 83.1,203.9 86,183.6 96.7,191.6 "/>
<polygon style="fill:#4CDBC4;" points="395.3,401.4 415.5,398.5 395.3,395.5 403.3,384.9 392.6,392.9 389.7,372.6 386.7,392.9   376.1,384.9 384.1,395.5 363.8,398.5 384.1,401.4 376.1,412 386.7,404.1 389.7,424.3 392.6,404.1 403.3,412 "/>
<g>
</g>
<g>
</g>
<g>
</g>
<g>
</g>
<g>
</g>
<g>
</g>
<g>
</g>
<g>
</g>
<g>
</g>
<g>
</g>
<g>
</g>
<g>
</g>
<g>
</g>
<g>
</g>
<g>
</g>
</svg>
