<?xml version="1.0" encoding="iso-8859-1"?>
<!-- Generator: Adobe Illustrator 19.0.0, SVG Export Plug-In . SVG Version: 6.00 Build 0)  -->
<svg xmlns="http://www.w3.org/2000/svg" xmlns:xlink="http://www.w3.org/1999/xlink" version="1.1" id="Layer_1" x="0px" y="0px" viewBox="0 0 505 505" style="enable-background:new 0 0 505 505;" xml:space="preserve">
<ellipse style="fill:#F1543F;" cx="252.5" cy="252.5" rx="246.9" ry="252.5"/>
<path style="fill:#FFFFFF;" d="M377.2,428.6H127.8c-2.4,0-4.4-1.9-4.4-4.4V101.3c0-2.4,1.9-4.4,4.4-4.4h249.4c2.4,0,4.4,1.9,4.4,4.4  v322.9C381.6,426.6,379.6,428.6,377.2,428.6z"/>
<rect x="209.8" y="119.7" style="fill:#F1543F;" width="90" height="12.6"/>
<rect x="218" y="56.7" style="fill:#FFD05B;" width="69.1" height="69.3"/>
<rect x="156.8" y="160" style="fill:#54C0EB;" width="191.3" height="236.6"/>
<path style="fill:#E6E9EE;" d="M236.1,395.5c1.1,0.5,2.2,0.8,3.4,1h16c1.2-0.2,2.3-0.4,3.4-0.8c4.2-1.2,7.9-3.5,11.5-6  c4.1-2.9,7.9-6,11.6-9.3c3.3-3,6.5-6.4,8.2-10.6c3-7.3,0.8-15.5-1.3-23.1c-1.3-4.4-2.5-8.9-3.8-13.3c-1.1-3.7-2.1-7.5-3.8-11  c-4-8.5-11.3-15.2-19.4-20c-2.6-1.5-5.3-2.9-8.2-3.6c-3.1-0.7-6.4-0.5-9.5,0.1c-7.9,1.5-15.9,6.3-18,14c-0.7,2.5-0.7,5.2-0.7,7.8  c0,14.2-0.1,28.5-0.1,42.7c0,9.3,0.1,19.2,5.3,26.9C232.1,392.5,233.8,394.4,236.1,395.5z"/>
<path style="fill:#F9B54C;" d="M252.5,254.3c-10.8,0-19.6,21.2-19.6,35c0,8.1,3,15.2,7.7,19.7c0.6-0.1,1.4-0.1,1.7-0.1  c0.9,0,1.9,0.1,2.7,0.4c0.8,0.2,1.7,0.6,2.5,1c0.2,0.1,0.7,0.4,1,0.7c0.1,0.1,0.3,0.1,0.5,0.2c0.6,0.3,1,0.6,1.5,0.9  c0.4,0.3,0.8,0.6,1.2,0.8c0.2,0.1,0.5,0.3,0.7,0.5l0,0c0.5-0.4,1.3-0.9,1.9-1.3c0.3-0.2,0.7-0.4,1.1-0.6c0.5-0.2,0.9-0.4,1.1-0.5  c0.2-0.4,2.6-1.2,2.7-1.2c1.4-0.5,2.7-0.4,4.2-0.1c0.1,0,0.1,0,0.1,0c5.1-4.5,8.5-12,8.5-20.5C272.1,275.6,263.3,254.3,252.5,254.3z  "/>
<path style="fill:#324A5E;" d="M192.7,396.6l7.7-46.9l-19.7-31.9c0,0-10.5,17.2-15.4,78.7h27.4V396.6z"/>
<path style="fill:#2B3B4E;" d="M192.5,396.6h61.7c-7.4-21-23.4-58.9-23.4-58.9l-4.3-27.3l0.3-6.7c0,0-39.9,7-46.1,14.1  C180.7,317.8,195.7,354.8,192.5,396.6z"/>
<path style="fill:#324A5E;" d="M214.8,327.5c9.1,43.8,29.6,63.2,37.2,69h1.9c-9.9-21.2-22.7-103.8-22.7-103.8  c-13.8,7.7-20.3,21.6-20.3,21.6l12.4,10.3L214.8,327.5z"/>
<path style="fill:#FFFFFF;" d="M252.5,313.5c0,0-14.2-9.7-20.6,8.5c0,0-3.2-30.8,1.4-36.5C233.3,285.5,237.9,301.2,252.5,313.5z"/>
<path style="fill:#2B3B4E;" d="M339.7,396.6c-4.9-61.6-15.4-78.7-15.4-78.7l-19.7,31.9l7.7,46.9h27.4V396.6z"/>
<path style="fill:#324A5E;" d="M250.8,396.6h61.7c-3.2-41.8,11.8-78.7,11.8-78.7c-6.2-7.1-46.1-14.1-46.1-14.1l0.3,6.7l-4.3,27.3  C274.2,337.6,258.3,375.5,250.8,396.6z"/>
<path style="fill:#2B3B4E;" d="M253,396.6c7.6-5.9,28.1-25.2,37.2-69l-8.5-2.9l12.4-10.3c0,0-6.5-13.9-20.3-21.6  c0,0-12.8,82.6-22.7,103.8L253,396.6L253,396.6z"/>
<path style="fill:#FFFFFF;" d="M252.5,313.5c0,0,14.2-9.7,20.6,8.5c0,0,3.2-30.8-1.4-36.5C271.7,285.5,267.1,301.2,252.5,313.5z"/>
<g>
	<path style="fill:#F9B54C;" d="M291.4,246.9c-2.7,6.6-9.2,13.5-13.2,12.3s-4.1-10-1.4-16.6s7.1-8.4,11.1-7.2   C291.9,236.7,294,240.4,291.4,246.9z"/>
	<path style="fill:#F9B54C;" d="M213.6,246.9c2.7,6.6,9.2,13.5,13.2,12.3s4.1-10,1.4-16.6c-2.7-6.6-7.1-8.4-11.1-7.2   C213.1,236.7,211,240.4,213.6,246.9z"/>
</g>
<g>
	<ellipse style="fill:#FFD05B;" cx="252.5" cy="247.3" rx="31.6" ry="40.9"/>
	<path style="fill:#FFD05B;" d="M268.8,234.8l-6.1-24.6c0,0,8-9.6,10.2-9.3s14.3,13.2,14.3,13.2v18.4v7.6l-3.4,6.7l-13.1-5.8   L268.8,234.8z"/>
	<polygon style="fill:#FFD05B;" points="245,212.9 225.2,209.2 218.6,215.8 217.4,230.3 221.2,246.3 246.6,239.4  "/>
</g>
<path style="fill:#324A5E;" d="M247.4,189.1c0,0,10.1-16.9,29,0c0,0-5.2-0.8-7.7,0c0,0,31.6,2.1,23.4,38.4c0,0,0.3,10-8.2,19.3  c0,0,9.8-41.6-15.9-31.5c0,0-16.7,9.4-28.7-0.4c0,0-23-6.7-18,31.4c0,0-26.8-48.1,2.8-54.3c0,0,7.7-16.8,36-12.4  C260,179.6,250.1,179.6,247.4,189.1z"/>
<g>
</g>
<g>
</g>
<g>
</g>
<g>
</g>
<g>
</g>
<g>
</g>
<g>
</g>
<g>
</g>
<g>
</g>
<g>
</g>
<g>
</g>
<g>
</g>
<g>
</g>
<g>
</g>
<g>
</g>
</svg>
