<?xml version="1.0" encoding="iso-8859-1"?>
<!-- Generator: Adobe Illustrator 19.0.0, SVG Export Plug-In . SVG Version: 6.00 Build 0)  -->
<svg xmlns="http://www.w3.org/2000/svg" xmlns:xlink="http://www.w3.org/1999/xlink" version="1.1" id="Layer_1" x="0px" y="0px" viewBox="0 0 505 505" style="enable-background:new 0 0 505 505;" xml:space="preserve">
<circle style="fill:#FFD05B;" cx="252.5" cy="252.5" r="252.5"/>
<g>
	<path style="fill:#FFFFFF;" d="M195.9,325.5c-2.1-3.2-4.5-6.2-7.3-9s-5.8-5.2-9-7.3c-20.9-13.5-49.2-11-67.5,7.3l-17.3,17.3   c-18.3,18.3-20.8,46.6-7.3,67.5c2.1,3.2,4.5,6.2,7.3,9s5.8,5.2,9,7.3c20.9,13.5,49.2,11,67.5-7.3l17.3-17.3   C206.9,374.7,209.3,346.4,195.9,325.5z M172.2,376.6l-17.3,17.3c-9.2,9.2-22.8,11.4-34.2,6.6c-3.6-1.5-6.9-3.7-9.7-6.6   c-2.9-2.9-5-6.2-6.5-9.7c-4.9-11.3-2.6-24.9,6.5-34.2l17.3-17.3c9.2-9.2,22.8-11.4,34.1-6.5c3.6,1.5,6.9,3.7,9.7,6.5   c2.9,2.9,5.1,6.2,6.6,9.7C183.7,353.8,181.5,367.4,172.2,376.6z"/>
	<path style="fill:#FFFFFF;" d="M417.5,103.8c-2-3.2-4.5-6.3-7.3-9.1c-2.8-2.8-5.8-5.2-9-7.3c-20.9-13.5-49.2-11-67.5,7.3L316.4,112   c-18.3,18.3-20.8,46.5-7.3,67.5c2,3.2,4.5,6.3,7.3,9.1s5.8,5.2,9,7.3c20.9,13.5,49.2,11,67.5-7.3l17.3-17.3   C428.6,153,431,124.8,417.5,103.8z M394,154.9l-17.3,17.3c-9.2,9.2-22.8,11.4-34.1,6.6c-3.6-1.5-6.9-3.7-9.7-6.6   c-2.9-2.9-5.1-6.2-6.5-9.8c-4.9-11.3-2.6-24.9,6.5-34.1l17.3-17.3c9.2-9.2,22.8-11.4,34.1-6.6c3.6,1.5,6.9,3.7,9.8,6.6   s5.1,6.2,6.5,9.8C405.3,132.1,403.2,145.7,394,154.9z"/>
	<path style="fill:#FFFFFF;" d="M306.7,214.6c-2.1-3.2-4.5-6.2-7.3-9s-5.8-5.2-9-7.3c-20.9-13.5-49.2-11-67.5,7.3l-17.3,17.3   c-18.3,18.3-20.8,46.6-7.3,67.5c2.1,3.2,4.5,6.2,7.3,9s5.8,5.2,9,7.3c20.9,13.5,49.2,11,67.5-7.3l17.3-17.3   C317.7,263.8,320.1,235.5,306.7,214.6z M283.1,265.8l-17.3,17.3c-9.2,9.2-22.8,11.4-34.1,6.6c-3.6-1.5-6.9-3.7-9.7-6.6   c-2.9-2.9-5.1-6.2-6.5-9.7c-4.9-11.3-2.7-24.9,6.5-34.1l17.3-17.3c9.2-9.2,22.8-11.4,34.1-6.6c3.6,1.5,6.9,3.7,9.7,6.6   c2.9,2.9,5.1,6.2,6.6,9.7C294.5,243,292.3,256.6,283.1,265.8z"/>
</g>
<g>
	<path style="fill:#324A5E;" d="M265,240c-4.5-4.5-4.5-11.8,0-16.3l69.6-69.6c4.5-4.5,11.8-4.5,16.3,0s4.5,11.8,0,16.3L281.3,240   C276.8,244.5,269.5,244.5,265,240z"/>
	<path style="fill:#324A5E;" d="M439,82.3l-46.9,46.9c-4.5,4.5-11.8,4.5-16.3,0s-4.5-11.8,0-16.3L422.7,66   C428.4,71.2,433.8,76.6,439,82.3z"/>
	<path style="fill:#324A5E;" d="M129.2,392.1L82.3,439c-5.7-5.2-11.2-10.6-16.3-16.3l21.5-21.4l25.4-25.4c4.5-4.5,11.8-4.5,16.3,0   C133.7,380.3,133.7,387.6,129.2,392.1z"/>
	<path style="fill:#324A5E;" d="M154.1,350.9c-4.5-4.5-4.5-11.8,0-16.3l69.6-69.6c4.5-4.5,11.8-4.5,16.3,0s4.5,11.8,0,16.3   l-69.6,69.6C165.9,355.4,158.6,355.4,154.1,350.9z"/>
</g>
<g>
</g>
<g>
</g>
<g>
</g>
<g>
</g>
<g>
</g>
<g>
</g>
<g>
</g>
<g>
</g>
<g>
</g>
<g>
</g>
<g>
</g>
<g>
</g>
<g>
</g>
<g>
</g>
<g>
</g>
</svg>
