<?xml version="1.0" encoding="iso-8859-1"?>
<!-- Generator: Adobe Illustrator 19.0.0, SVG Export Plug-In . SVG Version: 6.00 Build 0)  -->
<svg xmlns="http://www.w3.org/2000/svg" xmlns:xlink="http://www.w3.org/1999/xlink" version="1.1" id="Layer_1" x="0px" y="0px" viewBox="0 0 505 505" style="enable-background:new 0 0 505 505;" xml:space="preserve">
<circle style="fill:#54C0EB;" cx="252.5" cy="252.5" r="252.5"/>
<path style="fill:#FFFFFF;" d="M368.6,305c0.1,0,0.3,0.1,0.4,0.1c7.2,2.2,9.3,11.5,3.8,16.6c-32.3,30.2-76.9,42.7-101.7,47.5  c12.8-32.4,2.6-142.7-4.8-206.5h14.8c3.1,5.8,9.2,9.8,16.3,9.8c10.2,0,18.5-8.3,18.5-18.4c0-10.2-8.3-18.5-18.5-18.5  c-7.1,0-13.3,4-16.3,9.9h-16.8c-1.5-12.6-2.8-21.9-3.4-26.4c16.8-3.8,29.3-18.8,29.3-36.6c0-20.8-16.9-37.6-37.6-37.6  c-20.8,0-37.6,16.8-37.6,37.6c0,17.9,12.5,32.8,29.3,36.7c-0.6,4.5-1.9,13.8-3.4,26.4h-16.8c-3.1-5.9-9.2-9.9-16.3-9.9  c-10.2,0-18.4,8.3-18.4,18.5s8.3,18.4,18.4,18.4c7.1,0,13.2-4,16.3-9.8h14.8c-7.4,63.8-17.6,174.1-4.8,206.5  c-24.8-4.8-69.4-17.3-101.7-47.5c-5.5-5.2-3.4-14.4,3.8-16.6c0.1,0,0.3-0.1,0.4-0.1c0,0-12.6,2.9-27.5-21c0,0,0,60.8,64,96.2  s79.6,80,79.6,80s15.7-44.6,79.6-80c64-35.4,64-96.2,64-96.2C381.3,307.9,368.6,305,368.6,305z M230.1,82.4  c0-12.4,10.1-22.5,22.4-22.5c12.4,0,22.5,10.1,22.5,22.5s-10.1,22.4-22.5,22.4C240.1,104.9,230.1,94.8,230.1,82.4z"/>
<g>
</g>
<g>
</g>
<g>
</g>
<g>
</g>
<g>
</g>
<g>
</g>
<g>
</g>
<g>
</g>
<g>
</g>
<g>
</g>
<g>
</g>
<g>
</g>
<g>
</g>
<g>
</g>
<g>
</g>
</svg>
