<?xml version="1.0" encoding="iso-8859-1"?>
<!-- Generator: Adobe Illustrator 19.0.0, SVG Export Plug-In . SVG Version: 6.00 Build 0)  -->
<svg xmlns="http://www.w3.org/2000/svg" xmlns:xlink="http://www.w3.org/1999/xlink" version="1.1" id="Layer_1" x="0px" y="0px" viewBox="0 0 505 505" style="enable-background:new 0 0 505 505;" xml:space="preserve">
<circle style="fill:#FD8469;" cx="252.5" cy="252.5" r="252.5"/>
<rect x="230.4" y="287.5" style="fill:#2B3B4E;" width="44.2" height="110.7"/>
<circle style="fill:#324A5E;" cx="252.5" cy="193.3" r="153.2"/>
<circle style="fill:#84DBFF;" cx="252.5" cy="193.3" r="121.7"/>
<path style="fill:#FFFFFF;" d="M297.2,398.8v102.3c-14.5,2.6-29.4,3.9-44.7,3.9s-30.1-1.3-44.6-3.9V398.8c0-8.6,6.9-15.5,15.5-15.5  h58.3C290.2,383.3,297.2,390.2,297.2,398.8z"/>
<path style="fill:#FFD05B;" d="M297.2,424.9V501c-14.5,2.6-29.4,3.9-44.7,3.9s-30.1-1.3-44.6-3.9v-76.1H297.2z"/>
<g>
	<rect x="188.7" y="187.3" style="fill:#FFFFFF;" width="27.4" height="73.1"/>
	<rect x="238.8" y="164.2" style="fill:#FFFFFF;" width="27.4" height="96.2"/>
	<rect x="288.9" y="144.5" style="fill:#FFFFFF;" width="27.4" height="115.9"/>
</g>
<g>
</g>
<g>
</g>
<g>
</g>
<g>
</g>
<g>
</g>
<g>
</g>
<g>
</g>
<g>
</g>
<g>
</g>
<g>
</g>
<g>
</g>
<g>
</g>
<g>
</g>
<g>
</g>
<g>
</g>
</svg>
