<?xml version="1.0" encoding="iso-8859-1"?>
<!-- Generator: Adobe Illustrator 19.0.0, SVG Export Plug-In . SVG Version: 6.00 Build 0)  -->
<svg xmlns="http://www.w3.org/2000/svg" xmlns:xlink="http://www.w3.org/1999/xlink" version="1.1" id="Layer_1" x="0px" y="0px" viewBox="0 0 505 505" style="enable-background:new 0 0 505 505;" xml:space="preserve">
<circle style="fill:#4CDBC4;" cx="252.5" cy="252.5" r="252.5"/>
<path style="fill:#FFFFFF;" d="M102.6,162.1v236.6c0,1,0.8,1.7,1.7,1.7h296.3c1,0,1.7-0.8,1.7-1.7V162.1H102.6z"/>
<path style="fill:#324A5E;" d="M402.4,163.5v-48.1c0-5.9-5-10.7-11.1-10.7H113.7c-6.1,0-11.1,4.8-11.1,10.7v48.1H402.4z"/>
<g>
	<path style="fill:#E6E9EE;" d="M233.5,218.5h-33.2c-0.7,0-1.2-0.5-1.2-1.2v-31.8c0-0.7,0.5-1.2,1.2-1.2h33.2c0.7,0,1.2,0.5,1.2,1.2   v31.8C234.7,218,234.2,218.5,233.5,218.5z"/>
	<path style="fill:#E6E9EE;" d="M300.9,218.5h-33.2c-0.7,0-1.2-0.5-1.2-1.2v-31.8c0-0.7,0.5-1.2,1.2-1.2h33.2c0.7,0,1.2,0.5,1.2,1.2   v31.8C302.1,218,301.6,218.5,300.9,218.5z"/>
	<path style="fill:#E6E9EE;" d="M368.3,218.5h-33.2c-0.7,0-1.2-0.5-1.2-1.2v-31.8c0-0.7,0.5-1.2,1.2-1.2h33.2c0.7,0,1.2,0.5,1.2,1.2   v31.8C369.5,218,368.9,218.5,368.3,218.5z"/>
	<path style="fill:#E6E9EE;" d="M166.2,271.5H133c-0.7,0-1.2-0.5-1.2-1.2v-31.8c0-0.7,0.5-1.2,1.2-1.2h33.2c0.7,0,1.2,0.5,1.2,1.2   v31.8C167.4,270.9,166.8,271.5,166.2,271.5z"/>
</g>
<path style="fill:#FF7058;" d="M233.5,271.5h-33.2c-0.7,0-1.2-0.5-1.2-1.2v-31.8c0-0.7,0.5-1.2,1.2-1.2h33.2c0.7,0,1.2,0.5,1.2,1.2  v31.8C234.7,270.9,234.2,271.5,233.5,271.5z"/>
<g>
	<path style="fill:#E6E9EE;" d="M300.9,271.5h-33.2c-0.7,0-1.2-0.5-1.2-1.2v-31.8c0-0.7,0.5-1.2,1.2-1.2h33.2c0.7,0,1.2,0.5,1.2,1.2   v31.8C302.1,270.9,301.6,271.5,300.9,271.5z"/>
	<path style="fill:#E6E9EE;" d="M368.3,271.5h-33.2c-0.7,0-1.2-0.5-1.2-1.2v-31.8c0-0.7,0.5-1.2,1.2-1.2h33.2c0.7,0,1.2,0.5,1.2,1.2   v31.8C369.5,270.9,368.9,271.5,368.3,271.5z"/>
	<path style="fill:#E6E9EE;" d="M166.2,324.4H133c-0.7,0-1.2-0.5-1.2-1.2v-31.8c0-0.7,0.5-1.2,1.2-1.2h33.2c0.7,0,1.2,0.5,1.2,1.2   v31.8C167.4,323.9,166.8,324.4,166.2,324.4z"/>
	<path style="fill:#E6E9EE;" d="M233.5,324.4h-33.2c-0.7,0-1.2-0.5-1.2-1.2v-31.8c0-0.7,0.5-1.2,1.2-1.2h33.2c0.7,0,1.2,0.5,1.2,1.2   v31.8C234.7,323.9,234.2,324.4,233.5,324.4z"/>
	<path style="fill:#E6E9EE;" d="M300.9,324.4h-33.2c-0.7,0-1.2-0.5-1.2-1.2v-31.8c0-0.7,0.5-1.2,1.2-1.2h33.2c0.7,0,1.2,0.5,1.2,1.2   v31.8C302.1,323.9,301.6,324.4,300.9,324.4z"/>
	<path style="fill:#E6E9EE;" d="M368.3,324.4h-33.2c-0.7,0-1.2-0.5-1.2-1.2v-31.8c0-0.7,0.5-1.2,1.2-1.2h33.2c0.7,0,1.2,0.5,1.2,1.2   v31.8C369.5,323.9,368.9,324.4,368.3,324.4z"/>
	<path style="fill:#E6E9EE;" d="M166.2,377.3H133c-0.7,0-1.2-0.5-1.2-1.2v-31.8c0-0.7,0.5-1.2,1.2-1.2h33.2c0.7,0,1.2,0.5,1.2,1.2   v31.8C167.4,376.8,166.8,377.3,166.2,377.3z"/>
	<path style="fill:#E6E9EE;" d="M233.5,377.3h-33.2c-0.7,0-1.2-0.5-1.2-1.2v-31.8c0-0.7,0.5-1.2,1.2-1.2h33.2c0.7,0,1.2,0.5,1.2,1.2   v31.8C234.7,376.8,234.2,377.3,233.5,377.3z"/>
	<path style="fill:#E6E9EE;" d="M300.9,377.3h-33.2c-0.7,0-1.2-0.5-1.2-1.2v-31.8c0-0.7,0.5-1.2,1.2-1.2h33.2c0.7,0,1.2,0.5,1.2,1.2   v31.8C302.1,376.8,301.6,377.3,300.9,377.3z"/>
</g>
<g>
	<circle style="fill:#4CDBC4;" cx="333.8" cy="134.1" r="15.3"/>
	<circle style="fill:#4CDBC4;" cx="171.2" cy="134.1" r="15.3"/>
</g>
<g>
</g>
<g>
</g>
<g>
</g>
<g>
</g>
<g>
</g>
<g>
</g>
<g>
</g>
<g>
</g>
<g>
</g>
<g>
</g>
<g>
</g>
<g>
</g>
<g>
</g>
<g>
</g>
<g>
</g>
</svg>
