<?xml version="1.0" encoding="iso-8859-1"?>
<!-- Generator: Adobe Illustrator 19.0.0, SVG Export Plug-In . SVG Version: 6.00 Build 0)  -->
<svg xmlns="http://www.w3.org/2000/svg" xmlns:xlink="http://www.w3.org/1999/xlink" version="1.1" id="Layer_1" x="0px" y="0px" viewBox="0 0 505 505" style="enable-background:new 0 0 505 505;" xml:space="preserve">
<circle style="fill:#84DBFF;" cx="252.5" cy="252.5" r="252.5"/>
<rect x="126.5" y="97.3" style="fill:#FFFFFF;" width="252.1" height="310.5"/>
<g>
	<rect x="145.5" y="122.8" style="fill:#E6E9EE;" width="103.7" height="9.5"/>
	<rect x="145.5" y="147.8" style="fill:#E6E9EE;" width="103.7" height="9.5"/>
	<rect x="145.5" y="172.7" style="fill:#E6E9EE;" width="68.9" height="9.5"/>
</g>
<rect x="338.7" y="136.3" style="fill:#54C0EB;" width="17.5" height="45.9"/>
<rect x="312.2" y="117.4" style="fill:#FFD05B;" width="17.5" height="64.8"/>
<rect x="285.6" y="152.5" style="fill:#4CDBC4;" width="17.5" height="29.7"/>
<path style="fill:#54C0EB;" d="M176.3,235.1v-26.8c-14.2,0.4-25.5,12-25.5,26.2c0,14.5,11.8,26.3,26.3,26.3  c14.3,0,26-11.5,26.2-25.7L176.3,235.1L176.3,235.1z"/>
<path style="fill:#FFD05B;" d="M251.8,235.1v-26.8c-14.2,0.4-25.5,12-25.5,26.2c0,14.5,11.8,26.3,26.3,26.3  c14.3,0,26-11.5,26.2-25.7L251.8,235.1L251.8,235.1z"/>
<path style="fill:#4CDBC4;" d="M327.2,235.1v-26.8c-14.2,0.4-25.5,12-25.5,26.2c0,14.5,11.8,26.3,26.3,26.3  c14.3,0,26-11.5,26.2-25.7L327.2,235.1L327.2,235.1z"/>
<polygon style="fill:#FF7058;" points="305.2,284.6 266.9,289.3 281.1,303.5 229.2,355.3 203.4,329.5 164.9,368 170.5,373.5   203.4,340.7 229.2,366.5 286.7,309.1 300.5,322.9 "/>
<g>
</g>
<g>
</g>
<g>
</g>
<g>
</g>
<g>
</g>
<g>
</g>
<g>
</g>
<g>
</g>
<g>
</g>
<g>
</g>
<g>
</g>
<g>
</g>
<g>
</g>
<g>
</g>
<g>
</g>
</svg>
