<?xml version="1.0" encoding="iso-8859-1"?>
<!-- Generator: Adobe Illustrator 19.0.0, SVG Export Plug-In . SVG Version: 6.00 Build 0)  -->
<svg xmlns="http://www.w3.org/2000/svg" xmlns:xlink="http://www.w3.org/1999/xlink" version="1.1" id="Layer_1" x="0px" y="0px" viewBox="0 0 505 505" style="enable-background:new 0 0 505 505;" xml:space="preserve">
<circle style="fill:#324A5E;" cx="252.5" cy="252.5" r="252.5"/>
<path style="fill:#F9B54C;" d="M333.1,305c4.2,5.3,11.8,7.8,14.2,14.1c1.9,4.9,0,10.6,1.6,15.6c1.6,4.7,5.9,7.8,9.8,11  c3.5,2.8,6.7,5.9,8.8,9.8c2.1,3.9,2.9,8.7,1.2,12.8c-3.1,7.6-12.6,9.8-19.3,14.5c-5.2,3.6-8.9,8.8-12.8,13.8  c-3.9,4.9-8.3,9.8-14.2,12.1c-5.9,2.3-13.5,1.3-17.1-3.9c-1.6-2.3-2.3-5.3-4.2-7.5c-0.7-0.8-1.6-1.6-2-2.6c-0.5-1.2-0.2-2.5,0.1-3.8  c1.9-10-0.7-20.4-4.2-30c-3.6-9.6-8.2-18.8-10.8-28.7c-1.5-5.7-2.3-11.5-2.6-17.4c-0.3-6.1-0.1-12.5,2.9-17.9  c4.4-8.1,13.9-12.2,23.1-12.7c6.3-0.4,13.1,0.9,17.3,5.6C328.8,294.3,329.6,300.5,333.1,305z"/>
<path style="fill:#4CDBC4;" d="M144.9,354V66.4c0-0.7,0.6-1.4,1.4-1.4h159.3c0.7,0,1.4,0.6,1.4,1.4V354c0,0.7-0.6,1.4-1.4,1.4H146.3  C145.5,355.4,144.9,354.8,144.9,354z"/>
<path style="fill:#FFFFFF;" d="M164.6,80h122.8c0,2.6,2.1,4.7,4.7,4.7v251c-2.6,0-4.7,2.1-4.7,4.7H164.6c0-2.6-2.1-4.7-4.7-4.7v-251  C162.5,84.7,164.6,82.6,164.6,80z"/>
<g>
	<circle style="fill:#4CDBC4;" cx="226" cy="210.3" r="54.1"/>
	<circle style="fill:#4CDBC4;" cx="226" cy="297.4" r="19.1"/>
	<circle style="fill:#4CDBC4;" cx="226" cy="123.1" r="19.1"/>
</g>
<path style="fill:#FFFFFF;" d="M188.2,208.2h6.7c0.9-8.3,4.2-15.8,9.9-22.4l7.9,6.7c-4.4,5.1-7.1,10.4-7.9,15.8h17.7  c1.6-6.9,3.8-11.9,6.5-15.1c2.7-3.2,6.6-4.8,11.9-4.8c5.3,0,9.6,1.8,12.9,5.5c3.3,3.7,5.2,8.5,5.5,14.4h4.6v5.8h-4.6  c-0.5,6.7-2.8,13-6.8,19l-8.4-5.9c2.9-4,4.6-8.4,5.3-13h-17.1v0.3c-1.6,7-3.9,12.1-6.7,15.4c-2.8,3.3-6.9,4.9-12.2,4.9  s-9.6-1.9-13-5.7c-3.3-3.8-5.2-8.7-5.5-14.9h-6.6v-6H188.2z M247,201.8c-1.4-1.6-3.1-2.3-5.1-2.3s-3.6,0.6-4.8,1.8s-2.3,3.5-3.4,6.9  h15.8C249.2,205.5,248.4,203.4,247,201.8z M207.1,221c1.4,1.7,3.2,2.6,5.3,2.6s3.8-0.7,5.1-2c1.2-1.3,2.4-3.8,3.5-7.5h-16.5  C204.8,217,205.7,219.3,207.1,221z"/>
<path style="fill:#FFD05B;" d="M386,407.1c-11.9,16.1-37.9,52.4-54.6,85.3c-24.8,8.2-51.3,12.6-78.9,12.6c-6,0-11.9-0.2-17.8-0.6  c2.2-30.3,8.2-87.1,23.1-112.6c0.9-1.5,1.4-3.2,1.6-4.9c1.6-12.7,4.4-42.8-1-74.1c-1.1-6.4-2.2-13.9-0.7-20.1  c2.3-9.6,12.8-17.4,22.3-14.3c7.7,2.5,12,10.8,14.3,18.6c3.8,13.1,4.3,26.9,4.7,40.5c0.2,7.3,0.5,14.5,0.7,21.8  c0,1.2,0.1,2.4,0.9,3.2c0.7,0.7,1.7,0.8,2.5,1.2c7,3.2,0,16.7,10,19.7c1.3,0.4,2.6,0.5,3.9,0.2c5.2-1,8.3-5.8,8.9-10.7  c0.6-5-0.8-11.3,4.8-13.7c1.5-0.6,3.1-0.7,4.7-0.6l25.3,2.5c-7.2-5.1-17.2-2.8-25.5-5.8c-7.1-2.6-12.5-9.5-13.4-17  c-0.9-7.5,2.8-15.5,9.2-19.6c-2.1-2.1-5.8,0.6-6.9,3.2c-0.5,1.1-1.1,2.2-2,3.2c-3,3.1-5.4,1.3-7.4-0.2c-2.8-2.3-5.8-4.7-7.9-7.6  v-15.5c1.7-1.5,3.9-2.4,5.7-3.8c2.1-1.5,3.7-4.1,2.7-6.5c-3.5,0.8-5.7,4.2-8.4,6.4v-25.4c20,10.7,51.1,34.3,69.2,84l12.5,32.2  C390.9,394.8,389.9,401.7,386,407.1z"/>
<path style="fill:#F9B54C;" d="M321.3,368.8c2.2,1.2,2.8,4.1,4,6.3c1.6,3.1,4.4,5.2,7.2,7.2c8.1,5.8,16.7,11.1,25.5,15.6  c-3.7,0.4-7.3-0.9-10.7-2.3c-7.6-3.1-14.8-7-21.7-11.5c-3.7-2.4-7.3-5.1-10-8.6L321.3,368.8z"/>
<path style="fill:#FFFFFF;" d="M290.3,297.5l-1.2-5.4c-1.7-7.7-9-13.4-16.8-12.1c-8.3,1.4-13.7,9.4-11.9,17.5l1.4,6.2  c1.1,5,6.1,8.2,11.1,7.1l10.3-2.3C288.2,307.5,291.4,302.5,290.3,297.5z"/>
<path style="fill:#FFD05B;" d="M290.4,397.6c-2.2,0-4.5,0-6.4-1.2c-1.9-1.1-3.1-3.1-4-5c-4.4-8.7-6.6-18.5-6.1-28.2  c0.2-3.8,0.8-7.7,2.5-11.1c1.5-2.9,3.8-5.4,6.1-7.7c1.9-2,3.9-4.1,6.4-5.5c2.4-1.4,5.5-2,8.1-1c0.3,0.1,0.6,0.3,0.8,0.5  c0.3,0.4,0.2,0.9,0.2,1.4c-0.6,7.7,3.4,15,7.2,21.7c3.2,5.7,6.4,11.3,9.6,17c1.2,2.2,2.5,4.5,4.4,6.1c2.3,2,5.3,3.1,8.3,4  c2.6,0.9,5.2,1.7,7.8,2.6c-4.8,3.9-11.1,5.5-17.2,6.1c-4.3,0.4-8.6,0.4-12.9,0.4C300.2,397.6,295.3,397.6,290.4,397.6z"/>
<path style="fill:#F9B54C;" d="M296,375.7c-0.5-0.5-1-1-1.1-1.6c-0.1-0.7,0.2-1.4,0.9-1.6c0.4-0.1,0.9,0.1,1.3,0.3  c1.8,1,3.6,1.9,5.4,2.9c1.3,0.7,2.5,1.3,3.8,1.9c6.6,2.9,13.9,3.4,21.1,3.7c-0.5,1.2-2,1.4-3.3,1.6c-5.1,0.5-10.5,1-15.4-0.6  c-1.4-0.4-2.6-1-3.9-1.6C301.7,379.4,298.5,378,296,375.7z"/>
<g>
</g>
<g>
</g>
<g>
</g>
<g>
</g>
<g>
</g>
<g>
</g>
<g>
</g>
<g>
</g>
<g>
</g>
<g>
</g>
<g>
</g>
<g>
</g>
<g>
</g>
<g>
</g>
<g>
</g>
</svg>
