<?xml version="1.0" encoding="iso-8859-1"?>
<!-- Generator: Adobe Illustrator 19.0.0, SVG Export Plug-In . SVG Version: 6.00 Build 0)  -->
<svg xmlns="http://www.w3.org/2000/svg" xmlns:xlink="http://www.w3.org/1999/xlink" version="1.1" id="Layer_1" x="0px" y="0px" viewBox="0 0 505 505" style="enable-background:new 0 0 505 505;" xml:space="preserve">
<circle style="fill:#90DFAA;" cx="252.5" cy="252.5" r="252.5"/>
<path style="fill:#2C9984;" d="M69.9,426.7c46,48.2,110.8,78.3,182.6,78.3c71.9,0,136.7-30.1,182.6-78.3H69.9z"/>
<polygon style="fill:#324A5E;" points="293.5,347.8 211.5,347.8 199.7,403.5 305.3,403.5 "/>
<g>
	<polygon style="fill:#2B3B4E;" points="298,369.1 293.5,347.8 211.5,347.8 207,369.1  "/>
	<path style="fill:#2B3B4E;" d="M315.6,403.5H189.4c-6.5,0-11.9,5.3-11.9,11.9l0,0c0,6.5,5.3,11.9,11.9,11.9h126.2   c6.5,0,11.9-5.3,11.9-11.9l0,0C327.5,408.8,322.1,403.5,315.6,403.5z"/>
</g>
<path style="fill:#FFFFFF;" d="M417.6,309.7V112.1c0-1.5-1.2-2.7-2.7-2.7H90.2c-1.5,0-2.7,1.2-2.7,2.7v197.6H417.6z"/>
<path style="fill:#324A5E;" d="M87.4,308.9v26c0,9.5,7.7,17.1,17.1,17.1h295.9c9.5,0,17.1-7.7,17.1-17.1v-26H87.4z"/>
<rect x="106.6" y="128.5" style="fill:#54C0EB;" width="291.9" height="161"/>
<circle style="fill:#2B3B4E;" cx="252.5" cy="328" r="10.8"/>
<polygon style="fill:#324A5E;" points="398.4,219.8 398.4,228 352.5,240.8 298.7,186.9 254.5,231.1 199.9,202.4 153.1,249   106.6,273.3 106.6,264.4 148.9,242.3 198.5,192.8 253,221.4 298.7,175.8 354.9,231.9 "/>
<g>
	<circle style="fill:#FFFFFF;" cx="151.3" cy="245.5" r="15.5"/>
	<circle style="fill:#FFFFFF;" cx="199.2" cy="197.6" r="15.5"/>
	<circle style="fill:#FFFFFF;" cx="253.7" cy="226.2" r="15.5"/>
	<circle style="fill:#FFFFFF;" cx="298.6" cy="181.3" r="15.5"/>
	<circle style="fill:#FFFFFF;" cx="353.7" cy="232.4" r="15.5"/>
</g>
<g>
</g>
<g>
</g>
<g>
</g>
<g>
</g>
<g>
</g>
<g>
</g>
<g>
</g>
<g>
</g>
<g>
</g>
<g>
</g>
<g>
</g>
<g>
</g>
<g>
</g>
<g>
</g>
<g>
</g>
</svg>
