<?xml version="1.0" encoding="iso-8859-1"?>
<!-- Generator: Adobe Illustrator 19.0.0, SVG Export Plug-In . SVG Version: 6.00 Build 0)  -->
<svg xmlns="http://www.w3.org/2000/svg" xmlns:xlink="http://www.w3.org/1999/xlink" version="1.1" id="Layer_1" x="0px" y="0px" viewBox="0 0 505 505" style="enable-background:new 0 0 505 505;" xml:space="preserve">
<circle style="fill:#54C0EB;" cx="252.5" cy="252.5" r="252.5"/>
<path style="fill:#FF7058;" d="M314.4,182.7L314.4,182.7c-35.4-35.4-92.9-35.4-128.3,0L69.2,299.6c-4.2,4.2-4.2,10.9,0,15.1  l113.2,113.2c4.2,4.2,10.9,4.2,15.1,0L314.4,311C349.8,275.6,349.8,218.1,314.4,182.7z M266.8,230.4c-7.1-7.1-7.1-18.5,0-25.6  s18.5-7.1,25.6,0s7.1,18.5,0,25.6C285.3,237.4,273.8,237.4,266.8,230.4z"/>
<rect x="108.828" y="258.74" transform="matrix(-0.7071 -0.7071 0.7071 -0.7071 86.575 667.2388)" style="fill:#FFFFFF;" width="145.299" height="113.899"/>
<path style="fill:#324A5E;" d="M390.5,106.6c-16.7-16.7-41.9,4.6-59.4,22.1c-6.6,6.6-21.5,22.8-34.5,40.1c3.1,1.8,6,3.8,8.9,6.1  c9.1-12.2,20.6-25.9,33.2-38.5c22-22,36.9-29.4,44.2-22.1c7.3,7.3-0.2,22.2-22.1,44.2c-12.7,12.7-26.3,24.1-38.5,33.2  c-10.3,7.6-19.6,13.6-26.7,17.4c-5.4,2.9-9.6,4.5-11.9,4.4c0-2.3,1.6-6.4,4.4-11.9c-3.4-1.8-7.3-2.5-11-2  c-4.3,9.6-5.6,17.5-1.3,21.7c4.3,4.3,12.2,3,21.8-1.3c9.4-4.3,20.3-11.5,30.8-19.5c17.3-13,33.5-27.9,40.1-34.5  C385.9,148.5,407.2,123.3,390.5,106.6z"/>
<g>
</g>
<g>
</g>
<g>
</g>
<g>
</g>
<g>
</g>
<g>
</g>
<g>
</g>
<g>
</g>
<g>
</g>
<g>
</g>
<g>
</g>
<g>
</g>
<g>
</g>
<g>
</g>
<g>
</g>
</svg>
