<?xml version="1.0" encoding="iso-8859-1"?>
<!-- Generator: Adobe Illustrator 19.0.0, SVG Export Plug-In . SVG Version: 6.00 Build 0)  -->
<svg xmlns="http://www.w3.org/2000/svg" xmlns:xlink="http://www.w3.org/1999/xlink" version="1.1" id="Layer_1" x="0px" y="0px" viewBox="0 0 505 505" style="enable-background:new 0 0 505 505;" xml:space="preserve">
<circle style="fill:#FD8469;" cx="252.5" cy="252.5" r="252.5"/>
<path style="fill:#F1543F;" d="M60.2,416.1c46.3,54.4,115.3,88.9,192.3,88.9s146-34.5,192.3-88.9H60.2z"/>
<polygon style="fill:#E6E9EE;" points="313.7,339.9 191.3,339.9 179.6,389.6 325.4,389.6 "/>
<path style="fill:#FFFFFF;" d="M424.5,364.8h-344c-2.8,0-5-2.2-5-5V111.4c0-2.8,2.2-5,5-5h344c2.8,0,5,2.2,5,5v248.4  C429.5,362.5,427.2,364.8,424.5,364.8z"/>
<rect x="101.9" y="132.7" style="fill:#84DBFF;" width="301.2" height="184.5"/>
<path style="fill:#FFFFFF;" d="M344.6,415.7v-16.8c0-5.1-4.2-9.3-9.3-9.3H169.7c-5.1,0-9.3,4.2-9.3,9.3v16.8H344.6z"/>
<circle style="fill:#E6E9EE;" cx="252.5" cy="340.1" r="10.8"/>
<g>
	<polygon style="fill:#324A5E;" points="325.5,265.6 317.1,257.3 349.4,225 317.1,192.8 325.5,184.4 366.1,225  "/>
	<polygon style="fill:#324A5E;" points="179.5,265.6 138.9,225 179.5,184.4 187.9,192.8 155.6,225 187.9,257.3  "/>
</g>
<circle style="fill:#FFFFFF;" cx="252.5" cy="225" r="47.2"/>
<g>
	<path style="fill:#4CDBC4;" d="M299.7,225c0,3.6-0.4,7.1-1.2,10.5c-1.4-1.6-1.4-3.9-1.7-6c-0.4-2.8-2-5.8-4.7-6.4   c-1.1-0.3-2.3-0.1-3.3-0.5c-1.2-0.5-1.9-1.7-2.9-2.5s-2.7-1.1-3.4,0c0.4,3.2,6.9,2.6,7.1,5.8c0.1,1.1-0.7,2.1-1.7,2.6   s-2.1,0.5-3.2,0.5c-2.1,0-4.6-0.3-5.8-2.1c-1.3-1.9-0.9-5.1-3.1-5.7c-1.4,1.7-0.3,4.2,0.8,6.1c0.6,1,1.3,2,1.9,3   c0.2,0.4,0.5,0.8,0.9,0.9c0.4,0.2,0.8,0.1,1.3,0c1.7-0.4,4-0.5,4.6,1.2c0.5,1.2-0.4,2.5-1.4,3.3s-2.2,1.4-2.9,2.5   c-0.9,1.5-0.5,3.5-0.5,5.4c-0.1,2.3-1.1,4.4-2.1,6.4s-2,4.1-3,6.1c-0.6,1.3-1.3,2.7-2.5,3.5s-3,1-4-0.1c-0.3-0.4-0.5-0.9-0.7-1.3   c-0.5-1.3-1-2.5-1.5-3.8c-1.4-3.5-2.7-7.4-1.4-10.9c0.3-0.7,0.6-1.4,0.4-2.1c-0.2-0.6-0.9-1-1.3-1.5c-0.8-1.2-0.1-3-1-4.2   c-0.7-1-2.2-1.1-3.4-0.7c-1.2,0.4-2.3,1.1-3.5,1.2c-2.1,0.2-4.1-1.5-5.1-3.3c-1.7-3.2-1.4-7.3,0.4-10.5s4.9-5.5,8.3-6.8   c1.1-0.5,2.6-0.7,3.4,0.3c0.3,0.4,0.4,0.9,0.6,1.4c0.4,0.7,1.1,1.2,1.9,1.6c3.6,1.7,8.1,1.4,11.5-0.7c-0.9-1.5-2.5-2.4-4.2-2.6   c-0.8-1.3,1-2.8,2.6-3c1.6-0.1,3.4,0.1,4.4-1.1c0.2-0.2,0.3-0.5,0.3-0.8c0-0.6-0.6-1-1.2-1.3c-3.1-1.1-7,1.2-7.5,4.4   c-0.9,0.4-1.9-0.2-2.5-1s-0.9-1.7-1.7-2.4c-0.7-0.6-2-0.8-2.5,0c1,0.9,1.7,1.9,2.3,3.1c-1.8,0.1-2.7-2.9-4.4-2.7   c-1.9,0.2-1.6,3.4-3.3,4.3c-0.5,0.3-1.1,0.3-1.6,0.4c-1.2,0.1-2.4,0.1-3.4-0.4c-1.1-0.5-2-1.5-1.8-2.7c0.3-1.9,2.9-2.2,4.8-2   c-0.4-2,0.5-4.1,2.1-5.3c2.1-1.6,5-1.5,7.6-2c3-0.6,5.7-2.3,7.6-4.6c-0.8-0.4-1.6,0.2-2.4,0.6c-0.8,0.4-1.9,0.5-2.3-0.3   c0.5-1.4,1-2.8,1.5-4.2c-0.4,0-0.8,0.1-1.2,0.1c-1.5,0.9-2.5,2.6-2.8,4.3c-0.1,0.8-0.1,1.7-0.5,2.4c-0.5,0.7-1.7,1-2.1,0.3   c-0.2-0.4-0.1-0.8-0.4-1.2c-0.5-0.6-1.5-0.3-2.2-0.5c-1.5-0.5-1.1-2.8,0.1-3.8s2.9-1.5,3.5-2.9c0.5-1.1,0.4-2.6,1.4-3.2   c0.5-0.3,1-0.3,1.6-0.3c2.4,0.1,4.8,0.1,7.3,0.2c0.8,0,1.7,0.1,2.4,0.5c0.7,0.5,0.9,1.6,0.3,2.1c-0.8,0.7-2.3-0.1-3,0.6   c-0.6,0.6,0,1.7,0.8,1.9s1.6-0.2,2.3-0.7c0.7-0.5,1.3-1.1,2.1-1.3c0.6-0.2,1.2-0.2,1.8-0.3c0.9-0.2,1.7-0.6,2.4-1.3   C294.4,200,299.7,211.9,299.7,225z"/>
	<path style="fill:#4CDBC4;" d="M246.8,184.3c-0.4,1.3,0.7,3,2,2.7c-2,0.7-4.1,0.9-6.2,0.6c1.3,1,2.5,2,3.7,3   c-1.1,0.8-2.5,1-3.7,1.5s-2.4,1.6-2.4,2.9c0,0.7,0.4,1.4,0,1.9c-0.2,0.4-0.7,0.5-1.1,0.6c-1.4,0.4-2.8,0.7-4.2,0.5   s-2.8-1.2-3.2-2.5c-0.3-1.2,0.1-2.4,0.4-3.6c0.3-1.2,0.2-2.6-0.7-3.4c-0.5-0.4-1.2-0.5-1.8-0.7c-1.3-0.4-2.6-1-3.4-2.1   c7.2-4.8,15.9-7.7,25.1-7.9c-0.6,1.3-1.4,2.4-2.3,3.4C248.3,182.2,247.2,183.1,246.8,184.3z"/>
	<path style="fill:#4CDBC4;" d="M229.7,206.6c-1.1,0.3-2.2,0-3.4,0.1c-1.4,0.1-2.7,1.1-3.3,2.5c1,0.2,2,0.3,2.9,0.5   c-2.1,1.1-4.3,2.1-6.4,3.2c-0.2,0.1-0.4,0.2-0.5,0.4c-0.8,1,1.7,2.4,0.9,3.4c-0.2,0.2-0.5,0.3-0.7,0.4c-1.5,0.7-1.3,3-0.8,4.6   c-1.1,0.4-2.3,0.1-3.4-0.4c-1.1-0.5-2.1-1.1-3.3-1.2c-1.2-0.1-2.5,0.6-2.6,1.8c-0.1,0.9,0.5,1.6,1,2.3c0.9,1.1,1.9,2.3,3.3,2.7   c1,0.3,2.1,0.1,3.1,0.5s1.6,1.8,0.8,2.5c-1.7,1.4-4.2,1.4-6.2,0.7s-3.8-2.1-5.4-3.6l-0.5-0.4c0-0.5,0-0.9,0-1.4   c0-8.9,2.5-17.2,6.8-24.4c0.8,0.9,1.6,2,2.8,2.2c0.5,0.1,1.1,0,1.5,0.3c0.6,0.4,0.7,1.2,1,1.8s1.3,1,1.6,0.4   c0.1-1.7,0.2-3.4,0.2-5.1c0.1-1.1,0.2-2.5,1.2-3c0.8-0.5,1.9-0.2,2.6,0.5c0.7,0.7,1,1.7,1.1,2.6c0.9-0.1,1.7-0.3,2.6-0.1   c0.8,0.2,1.7,0.8,1.8,1.6c0.1,0.5,0,1.2,0.4,1.6c0.4,0.5,1.3,0.3,1.8,0.7C231.6,204.7,230.8,206.3,229.7,206.6z"/>
	<path style="fill:#4CDBC4;" d="M241,243.9c-0.5,1.2-1.5,2.2-1.8,3.4c-0.4,1.5,0,3.3-1.1,4.3c-0.9,0.9-2.4,0.8-3.1,1.8   c-0.4,0.6-0.4,1.5-0.7,2.2s-0.8,1.2-1.4,1.6c-1,0.8-1.9,1.7-2.8,2.5c-0.9,0.8-1.8,1.6-2.8,2.2c-0.5,0.3-1.1,0.6-1.3,1.2   c-0.1,0.2-0.2,0.5-0.2,0.7c-1.2-0.8-2.4-1.7-3.4-2.6c0.3-2.4-0.2-5.1,0.1-7.6c0.1-1.1,0.4-2.2,0.3-3.3c-0.1-1.1-0.6-2.2-1.6-2.7   c-0.6-0.3-1.3-0.3-1.8-0.6c-0.6-0.5-0.8-1.3-0.9-2.1c-0.4-4-0.1-8,0.9-11.9c0.1-0.5,0.3-0.9,0.6-1.2s0.8-0.5,1.2-0.6   c2.4-0.6,5.1-0.7,7.3,0.3c2.3,1.1,4,3.6,3.5,6c-0.2,0.8-0.3,2.1,0.5,2.2c0.4,0.1,0.8-0.3,1.1-0.5c1-0.7,2.5-0.7,3.5,0.1   c0.4,0.3,0.7,0.8,1.3,0.9c0.5,0.2,1,0,1.5,0.1C241.3,240.9,241.5,242.7,241,243.9z"/>
</g>
<g>
</g>
<g>
</g>
<g>
</g>
<g>
</g>
<g>
</g>
<g>
</g>
<g>
</g>
<g>
</g>
<g>
</g>
<g>
</g>
<g>
</g>
<g>
</g>
<g>
</g>
<g>
</g>
<g>
</g>
</svg>
