<?xml version="1.0" encoding="iso-8859-1"?>
<!-- Generator: Adobe Illustrator 19.0.0, SVG Export Plug-In . SVG Version: 6.00 Build 0)  -->
<svg xmlns="http://www.w3.org/2000/svg" xmlns:xlink="http://www.w3.org/1999/xlink" version="1.1" id="Layer_1" x="0px" y="0px" viewBox="0 0 505 505" style="enable-background:new 0 0 505 505;" xml:space="preserve">
<circle style="fill:#FFD05B;" cx="252.5" cy="252.5" r="252.5"/>
<path style="fill:#E6E9EE;" d="M408.7,252.5c0,39-14.4,74.6-38,101.9c-11.4,13.1-20.2,28.1-26.1,44.2c-2.6,7.1-4.7,14.5-6.2,22  c-1.5,7.8-8.3,13.4-16.2,13.4H182.7c-7.9,0-14.7-5.6-16.2-13.4c-4.8-24.3-15.8-47.1-32.2-66.1c-23.7-27.4-38-63-38-101.9  c0-39,14.3-74.6,38-101.9c16.4-19,27.4-41.8,32.2-66.1c1.5-7.8,8.3-13.4,16.2-13.4h139.6c7.9,0,14.7,5.6,16.2,13.4  c4.8,24.3,15.7,47.1,32.2,66.1C394.3,177.9,408.7,213.5,408.7,252.5z"/>
<path style="fill:#324A5E;" d="M252.5,96.3L252.5,96.3c-86.3,0-156.2,69.9-156.2,156.2l0,0c0,86.3,69.9,156.2,156.2,156.2l0,0  c86.3,0,156.2-69.9,156.2-156.2l0,0C408.7,166.2,338.8,96.3,252.5,96.3z"/>
<path style="fill:#FFFFFF;" d="M252.5,127.1L252.5,127.1c-69.3,0-125.4,56.2-125.4,125.4l0,0c0,69.3,56.2,125.4,125.4,125.4l0,0  c69.3,0,125.4-56.2,125.4-125.4l0,0C377.9,183.2,321.8,127.1,252.5,127.1z"/>
<g>
	<rect x="246.7" y="143.2" style="fill:#E6E9EE;" width="11.7" height="28.2"/>
	<rect x="246.7" y="333.6" style="fill:#E6E9EE;" width="11.7" height="28.2"/>
	<rect x="333.6" y="246.7" style="fill:#E6E9EE;" width="28.2" height="11.7"/>
	<rect x="143.2" y="246.7" style="fill:#E6E9EE;" width="28.2" height="11.7"/>
	
		<rect x="199.008" y="156.603" transform="matrix(-0.866 0.5001 -0.5001 -0.866 460.8658 208.3931)" style="fill:#E6E9EE;" width="7" height="18.701"/>
	
		<rect x="298.895" y="329.739" transform="matrix(-0.866 0.5 -0.5 -0.866 733.8216 481.5447)" style="fill:#E6E9EE;" width="7" height="18.7"/>
	
		<rect x="162.46" y="193.227" transform="matrix(-0.5 0.866 -0.866 -0.5 424.3757 160.1314)" style="fill:#E6E9EE;" width="7" height="18.701"/>
	
		<rect x="335.503" y="293.17" transform="matrix(-0.5 0.866 -0.866 -0.5 770.4959 160.2005)" style="fill:#E6E9EE;" width="7" height="18.7"/>
	
		<rect x="162.461" y="293.175" transform="matrix(0.5 0.866 -0.866 0.5 344.9706 7.5338)" style="fill:#E6E9EE;" width="7" height="18.7"/>
	
		<rect x="335.599" y="193.22" transform="matrix(0.5 0.866 -0.866 0.5 344.9754 -192.3837)" style="fill:#E6E9EE;" width="7" height="18.7"/>
	
		<rect x="199.034" y="329.698" transform="matrix(0.8661 0.4999 -0.4999 0.8661 196.6095 -55.8425)" style="fill:#E6E9EE;" width="7" height="18.7"/>
	
		<rect x="299.008" y="156.64" transform="matrix(0.8661 0.4999 -0.4999 0.8661 123.4868 -128.9934)" style="fill:#E6E9EE;" width="7" height="18.7"/>
</g>
<path style="fill:#324A5E;" d="M306.9,212.3c-1.3-1.7-3.7-2-5.3-0.8L250.4,250c-0.4,0.3-0.7,0.7-1,1.1c-0.3,0.4-0.4,0.9-0.5,1.4  l-6.6,46.6c-0.3,2.1,1.2,4,3.2,4.3c2.1,0.3,4-1.2,4.3-3.2l6.4-45l50-37.5C307.8,216.3,308.1,214,306.9,212.3z"/>
<circle style="fill:#84DBFF;" cx="252.5" cy="252.5" r="16"/>
<g>
</g>
<g>
</g>
<g>
</g>
<g>
</g>
<g>
</g>
<g>
</g>
<g>
</g>
<g>
</g>
<g>
</g>
<g>
</g>
<g>
</g>
<g>
</g>
<g>
</g>
<g>
</g>
<g>
</g>
</svg>
