<?xml version="1.0" encoding="iso-8859-1"?>
<!-- Generator: Adobe Illustrator 19.0.0, SVG Export Plug-In . SVG Version: 6.00 Build 0)  -->
<svg xmlns="http://www.w3.org/2000/svg" xmlns:xlink="http://www.w3.org/1999/xlink" version="1.1" id="Layer_1" x="0px" y="0px" viewBox="0 0 505 505" style="enable-background:new 0 0 505 505;" xml:space="preserve">
<circle style="fill:#2B3B4E;" cx="252.5" cy="252.5" r="252.5"/>
<path style="fill:#E6E9EE;" d="M384,410.4H104.8c-1.5,0-2.6-1.2-2.6-2.6V97.2c0-1.5,1.2-2.6,2.6-2.6h279.1c1.5,0,2.6,1.2,2.6,2.6  v310.6C386.6,409.3,385.4,410.4,384,410.4z"/>
<path style="fill:#324A5E;" d="M363.6,177.4v-56c0-2.1-1.7-3.8-3.8-3.8H129c-2.1,0-3.8,1.7-3.8,3.8v56c0,2.1,1.7,3.8,3.8,3.8h230.7  C361.9,181.3,363.6,179.5,363.6,177.4z"/>
<rect x="134.4" y="126.8" style="fill:#54C0EB;" width="220" height="45.3"/>
<path style="fill:#FF7058;" d="M171,226.5h-45.2c-0.3,0-0.6-0.3-0.6-0.6v-24.5c0-0.3,0.3-0.6,0.6-0.6H171c0.3,0,0.6,0.3,0.6,0.6  v24.5C171.6,226.3,171.3,226.5,171,226.5z"/>
<g>
	<path style="fill:#ACB3BA;" d="M230.2,226.5H185c-0.3,0-0.6-0.3-0.6-0.6v-24.5c0-0.3,0.3-0.6,0.6-0.6h45.2c0.3,0,0.6,0.3,0.6,0.6   v24.5C230.8,226.3,230.6,226.5,230.2,226.5z"/>
	<path style="fill:#ACB3BA;" d="M289.5,226.5h-45.2c-0.3,0-0.6-0.3-0.6-0.6v-24.5c0-0.3,0.3-0.6,0.6-0.6h45.2c0.3,0,0.6,0.3,0.6,0.6   v24.5C290.1,226.3,289.8,226.5,289.5,226.5z"/>
	<path style="fill:#ACB3BA;" d="M363,226.5h-45.2c-0.3,0-0.6-0.3-0.6-0.6v-24.5c0-0.3,0.3-0.6,0.6-0.6H363c0.3,0,0.6,0.3,0.6,0.6   v24.5C363.6,226.3,363.3,226.5,363,226.5z"/>
	<path style="fill:#ACB3BA;" d="M171,274.9h-45.2c-0.3,0-0.6-0.3-0.6-0.6v-24.5c0-0.3,0.3-0.6,0.6-0.6H171c0.3,0,0.6,0.3,0.6,0.6   v24.5C171.6,274.7,171.3,274.9,171,274.9z"/>
	<path style="fill:#ACB3BA;" d="M230.2,274.9H185c-0.3,0-0.6-0.3-0.6-0.6v-24.5c0-0.3,0.3-0.6,0.6-0.6h45.2c0.3,0,0.6,0.3,0.6,0.6   v24.5C230.8,274.7,230.6,274.9,230.2,274.9z"/>
	<path style="fill:#ACB3BA;" d="M289.5,274.9h-45.2c-0.3,0-0.6-0.3-0.6-0.6v-24.5c0-0.3,0.3-0.6,0.6-0.6h45.2c0.3,0,0.6,0.3,0.6,0.6   v24.5C290.1,274.7,289.8,274.9,289.5,274.9z"/>
	<path style="fill:#ACB3BA;" d="M171,312.4h-45.2c-0.3,0-0.6-0.3-0.6-0.6v-24.5c0-0.3,0.3-0.6,0.6-0.6H171c0.3,0,0.6,0.3,0.6,0.6   v24.5C171.6,312.2,171.3,312.4,171,312.4z"/>
	<path style="fill:#ACB3BA;" d="M230.2,312.4H185c-0.3,0-0.6-0.3-0.6-0.6v-24.5c0-0.3,0.3-0.6,0.6-0.6h45.2c0.3,0,0.6,0.3,0.6,0.6   v24.5C230.8,312.2,230.6,312.4,230.2,312.4z"/>
	<path style="fill:#ACB3BA;" d="M289.5,312.4h-45.2c-0.3,0-0.6-0.3-0.6-0.6v-24.5c0-0.3,0.3-0.6,0.6-0.6h45.2c0.3,0,0.6,0.3,0.6,0.6   v24.5C290.1,312.2,289.8,312.4,289.5,312.4z"/>
	<path style="fill:#ACB3BA;" d="M363,312.4h-45.2c-0.3,0-0.6-0.3-0.6-0.6v-24.5c0-0.3,0.3-0.6,0.6-0.6H363c0.3,0,0.6,0.3,0.6,0.6   v24.5C363.6,312.2,363.3,312.4,363,312.4z"/>
	<path style="fill:#ACB3BA;" d="M171,349.9h-45.2c-0.3,0-0.6-0.3-0.6-0.6v-24.5c0-0.3,0.3-0.6,0.6-0.6H171c0.3,0,0.6,0.3,0.6,0.6   v24.5C171.6,349.7,171.3,349.9,171,349.9z"/>
	<path style="fill:#ACB3BA;" d="M230.2,349.9H185c-0.3,0-0.6-0.3-0.6-0.6v-24.5c0-0.3,0.3-0.6,0.6-0.6h45.2c0.3,0,0.6,0.3,0.6,0.6   v24.5C230.8,349.7,230.6,349.9,230.2,349.9z"/>
	<path style="fill:#ACB3BA;" d="M289.5,349.9h-45.2c-0.3,0-0.6-0.3-0.6-0.6v-24.5c0-0.3,0.3-0.6,0.6-0.6h45.2c0.3,0,0.6,0.3,0.6,0.6   v24.5C290.1,349.7,289.8,349.9,289.5,349.9z"/>
	<path style="fill:#ACB3BA;" d="M171,387.4h-45.2c-0.3,0-0.6-0.3-0.6-0.6v-24.5c0-0.3,0.3-0.6,0.6-0.6H171c0.3,0,0.6,0.3,0.6,0.6   v24.5C171.6,387.2,171.3,387.4,171,387.4z"/>
	<path style="fill:#ACB3BA;" d="M230.2,387.4H185c-0.3,0-0.6-0.3-0.6-0.6v-24.5c0-0.3,0.3-0.6,0.6-0.6h45.2c0.3,0,0.6,0.3,0.6,0.6   v24.5C230.8,387.2,230.6,387.4,230.2,387.4z"/>
	<path style="fill:#ACB3BA;" d="M289.5,387.4h-45.2c-0.3,0-0.6-0.3-0.6-0.6v-24.5c0-0.3,0.3-0.6,0.6-0.6h45.2c0.3,0,0.6,0.3,0.6,0.6   v24.5C290.1,387.2,289.8,387.4,289.5,387.4z"/>
</g>
<path style="fill:#324A5E;" d="M363,387.4h-45.2c-0.3,0-0.6-0.3-0.6-0.6v-62c0-0.3,0.3-0.6,0.6-0.6H363c0.3,0,0.6,0.3,0.6,0.6v62  C363.6,387.2,363.3,387.4,363,387.4z"/>
<path style="fill:#ACB3BA;" d="M363,274.9h-45.2c-0.3,0-0.6-0.3-0.6-0.6v-24.5c0-0.3,0.3-0.6,0.6-0.6H363c0.3,0,0.6,0.3,0.6,0.6  v24.5C363.6,274.7,363.3,274.9,363,274.9z"/>
<polygon style="fill:#84DBFF;" points="134.4,172.1 230.8,172.1 323.7,126.8 134.4,126.8 "/>
<g>
</g>
<g>
</g>
<g>
</g>
<g>
</g>
<g>
</g>
<g>
</g>
<g>
</g>
<g>
</g>
<g>
</g>
<g>
</g>
<g>
</g>
<g>
</g>
<g>
</g>
<g>
</g>
<g>
</g>
</svg>
