<?xml version="1.0" encoding="iso-8859-1"?>
<!-- Generator: Adobe Illustrator 19.0.0, SVG Export Plug-In . SVG Version: 6.00 Build 0)  -->
<svg xmlns="http://www.w3.org/2000/svg" xmlns:xlink="http://www.w3.org/1999/xlink" version="1.1" id="Layer_1" x="0px" y="0px" viewBox="0 0 505 505" style="enable-background:new 0 0 505 505;" xml:space="preserve">
<circle style="fill:#324A5E;" cx="252.5" cy="252.5" r="252.5"/>
<path style="fill:#FFD05B;" d="M390.3,400.5H114.7c-1.6,0-2.9-1.3-2.9-2.9V113.9c0-1.6,1.3-2.9,2.9-2.9h275.5c1.6,0,2.9,1.3,2.9,2.9  v283.7C393.1,399.2,391.8,400.5,390.3,400.5z"/>
<path style="fill:#FF7058;" d="M292.8,111v46.8c-1.6,0.6-2.9,1.7-3.1,3.3c-3.2-0.9-6.2-2.4-8.8-4.5c0.1,1,0.3,2,0.5,3  c-0.6-1.7-2.6-2.3-4.3-2.7c-3-0.7-6.1-1.4-9.1-2c1.5,1.3-0.8,3.7-2.8,3.9c-3,0.3-6-0.8-8.1-2.9c0.5,1.1,0.1,2.8-0.9,3.7  c-1.2,1.2-3,1.5-4.7,1.8c-2.8,0.5-5.6,0.9-8.4,1.4c-0.7,0.1-1.4,0.2-2.1,0.1c-0.9-0.3-1.6-0.9-2.3-1.5c-3.3-2.9-7.3-4.9-11.7-5.6  c-0.6,1.4-1.3,2.7-1.9,4.1c-2.1-1.7-5.2-3.3-7.2-1.5c-0.5,0.5-0.8,1.1-1.3,1.7c-1.1,1.4-2.6,1.9-4.3,1.9v-50.9h80.5V111z"/>
<rect x="174.5" y="275.5" style="fill:#FFFFFF;" width="156" height="81.4"/>
<g>
	<rect x="191.4" y="288.4" style="fill:#324A5E;" width="14.3" height="55.5"/>
	<rect x="299.3" y="288.4" style="fill:#324A5E;" width="14.3" height="55.5"/>
	<rect x="212.1" y="288.4" style="fill:#324A5E;" width="14.6" height="42.9"/>
	<rect x="233.5" y="288.4" style="fill:#324A5E;" width="14.6" height="42.9"/>
	<rect x="255" y="288.4" style="fill:#324A5E;" width="14.6" height="42.9"/>
	<rect x="276.4" y="288.4" style="fill:#324A5E;" width="14.6" height="42.9"/>
	<path style="fill:#324A5E;" d="M212.5,337.2h3.4v8.4h-1.8v-6.8h-1.6V337.2z"/>
	<path style="fill:#324A5E;" d="M226.7,337.2v1.6h-3.3v1.4c0.3-0.1,0.5-0.1,0.9-0.1c0.8,0,1.5,0.2,2.1,0.7s0.9,1.2,0.9,2   s-0.3,1.5-0.9,2.1c-0.6,0.5-1.4,0.8-2.3,0.8c-1.1,0-2.1-0.4-2.9-1.3l1-1.4c0.1,0.1,0.2,0.2,0.3,0.3c0.1,0.1,0.3,0.2,0.7,0.4   c0.3,0.2,0.6,0.3,1,0.3s0.6-0.1,0.9-0.3c0.2-0.2,0.4-0.5,0.4-0.9s-0.1-0.7-0.4-0.9c-0.3-0.2-0.6-0.3-1-0.3s-0.9,0.2-1.5,0.5   l-0.8-0.8v-4.1L226.7,337.2L226.7,337.2z"/>
	<path style="fill:#324A5E;" d="M231.8,337.2h3.4v8.4h-1.8v-6.8h-1.6L231.8,337.2L231.8,337.2z"/>
	<path style="fill:#324A5E;" d="M244.2,338.6c-0.5,0-0.9,0.2-1.2,0.5c-0.3,0.4-0.5,0.8-0.5,1.4c0.5-0.3,1.1-0.5,1.7-0.5   c0.8,0,1.4,0.3,2,0.8c0.5,0.5,0.8,1.2,0.8,2.1s-0.3,1.5-0.9,2.1c-0.6,0.5-1.3,0.8-2.1,0.8c-0.6,0-1.1-0.1-1.6-0.3   c-0.4-0.2-0.8-0.5-1-1c-0.5-0.8-0.7-1.8-0.7-3c0-0.8,0.1-1.4,0.3-2s0.4-1,0.8-1.4c0.6-0.7,1.4-1,2.4-1c0.4,0,0.8,0.1,1.1,0.2   c0.4,0.1,0.6,0.2,0.8,0.4c0.2,0.1,0.4,0.3,0.6,0.5l-0.9,1.3c0,0-0.1-0.1-0.2-0.2c-0.1-0.1-0.3-0.2-0.5-0.3   C244.7,338.7,244.5,338.6,244.2,338.6z M244,341.7c-0.4,0-0.7,0.1-0.9,0.3c-0.3,0.2-0.4,0.5-0.4,0.9s0.1,0.7,0.4,0.9   c0.2,0.3,0.5,0.4,0.9,0.4s0.7-0.1,0.9-0.3c0.2-0.2,0.4-0.5,0.4-0.9s-0.1-0.7-0.3-0.9C244.6,341.8,244.3,341.7,244,341.7z"/>
	<path style="fill:#324A5E;" d="M257.3,337.2v1.6H254v1.4c0.3-0.1,0.5-0.1,0.9-0.1c0.8,0,1.5,0.2,2.1,0.7s0.9,1.2,0.9,2   s-0.3,1.5-0.9,2.1c-0.6,0.5-1.4,0.8-2.3,0.8c-1.1,0-2.1-0.4-2.9-1.3l1-1.4c0.1,0.1,0.2,0.2,0.3,0.3c0.1,0.1,0.3,0.2,0.7,0.4   c0.3,0.2,0.6,0.3,1,0.3c0.3,0,0.6-0.1,0.9-0.3c0.2-0.2,0.4-0.5,0.4-0.9s-0.1-0.7-0.4-0.9c-0.3-0.2-0.6-0.3-1-0.3s-0.9,0.2-1.5,0.5   l-0.8-0.8v-4.1L257.3,337.2L257.3,337.2z"/>
	<path style="fill:#324A5E;" d="M262.4,337.2h3.4v8.4H264v-6.8h-1.6V337.2z"/>
	<path style="fill:#324A5E;" d="M274.7,338.6c-0.5,0-0.9,0.2-1.2,0.5c-0.3,0.4-0.5,0.8-0.5,1.4c0.5-0.3,1.1-0.5,1.7-0.5   c0.8,0,1.4,0.3,2,0.8c0.5,0.5,0.8,1.2,0.8,2.1s-0.3,1.5-0.9,2.1c-0.6,0.5-1.3,0.8-2.1,0.8c-0.6,0-1.1-0.1-1.6-0.3   c-0.4-0.2-0.8-0.5-1-1c-0.5-0.8-0.7-1.8-0.7-3c0-0.8,0.1-1.4,0.3-2c0.2-0.6,0.4-1,0.8-1.4c0.6-0.7,1.4-1,2.4-1   c0.4,0,0.8,0.1,1.1,0.2c0.4,0.1,0.6,0.2,0.8,0.4c0.2,0.1,0.4,0.3,0.6,0.5l-0.9,1.3c0,0-0.1-0.1-0.2-0.2s-0.3-0.2-0.5-0.3   C275.3,338.7,275,338.6,274.7,338.6z M274.5,341.7c-0.4,0-0.7,0.1-0.9,0.3c-0.3,0.2-0.4,0.5-0.4,0.9s0.1,0.7,0.4,0.9   c0.2,0.3,0.5,0.4,0.9,0.4s0.7-0.1,0.9-0.3c0.2-0.2,0.4-0.5,0.4-0.9s-0.1-0.7-0.3-0.9C275.2,341.8,274.9,341.7,274.5,341.7z"/>
	<path style="fill:#324A5E;" d="M282.1,337.2h3.4v8.4h-1.8v-6.8h-1.6V337.2z"/>
</g>
<g>
</g>
<g>
</g>
<g>
</g>
<g>
</g>
<g>
</g>
<g>
</g>
<g>
</g>
<g>
</g>
<g>
</g>
<g>
</g>
<g>
</g>
<g>
</g>
<g>
</g>
<g>
</g>
<g>
</g>
</svg>
