<?xml version="1.0" encoding="iso-8859-1"?>
<!-- Generator: Adobe Illustrator 19.0.0, SVG Export Plug-In . SVG Version: 6.00 Build 0)  -->
<svg xmlns="http://www.w3.org/2000/svg" xmlns:xlink="http://www.w3.org/1999/xlink" version="1.1" id="Layer_1" x="0px" y="0px" viewBox="0 0 505 505" style="enable-background:new 0 0 505 505;" xml:space="preserve">
<circle style="fill:#90DFAA;" cx="252.5" cy="252.5" r="252.5"/>
<path style="fill:#FFFFFF;" d="M118.7,129.5v289.4c0,1.3,1,2.3,2.3,2.3h263c1.3,0,2.3-1,2.3-2.3V129.5H118.7z"/>
<path style="fill:#324A5E;" d="M386.3,129.1V98.3c0-8.1-6.5-14.6-14.6-14.6H133.3c-8.1,0-14.6,6.5-14.6,14.6v30.8H386.3z"/>
<g>
	<circle style="fill:#FFFFFF;" cx="350.1" cy="106.4" r="9.6"/>
	<circle style="fill:#FFFFFF;" cx="309.9" cy="106.4" r="9.6"/>
</g>
<g>
	<rect x="145.5" y="163.1" style="fill:#E6E9EE;" width="101.8" height="13.8"/>
	<rect x="257.8" y="163.1" style="fill:#E6E9EE;" width="101.8" height="13.8"/>
	<rect x="145.5" y="197.9" style="fill:#E6E9EE;" width="145.2" height="13.8"/>
	<rect x="301.2" y="197.9" style="fill:#E6E9EE;" width="58.4" height="13.8"/>
	<rect x="145.5" y="232.7" style="fill:#E6E9EE;" width="49" height="13.8"/>
	<rect x="205" y="232.7" style="fill:#E6E9EE;" width="154.5" height="13.8"/>
	<rect x="145.5" y="267.4" style="fill:#E6E9EE;" width="134.6" height="13.8"/>
	<rect x="290.6" y="267.4" style="fill:#E6E9EE;" width="68.9" height="13.8"/>
	<rect x="145.5" y="302.2" style="fill:#E6E9EE;" width="91.2" height="13.8"/>
	<rect x="247.2" y="302.2" style="fill:#E6E9EE;" width="112.3" height="13.8"/>
	<rect x="145.5" y="337" style="fill:#E6E9EE;" width="184.9" height="13.8"/>
	<rect x="340.9" y="337" style="fill:#E6E9EE;" width="18.6" height="13.8"/>
	<rect x="145.5" y="371.7" style="fill:#E6E9EE;" width="50.9" height="13.8"/>
	<rect x="206.9" y="371.7" style="fill:#E6E9EE;" width="106.6" height="13.8"/>
</g>
<g>
</g>
<g>
</g>
<g>
</g>
<g>
</g>
<g>
</g>
<g>
</g>
<g>
</g>
<g>
</g>
<g>
</g>
<g>
</g>
<g>
</g>
<g>
</g>
<g>
</g>
<g>
</g>
<g>
</g>
</svg>
