<?xml version="1.0" encoding="iso-8859-1"?>
<!-- Generator: Adobe Illustrator 19.0.0, SVG Export Plug-In . SVG Version: 6.00 Build 0)  -->
<svg xmlns="http://www.w3.org/2000/svg" xmlns:xlink="http://www.w3.org/1999/xlink" version="1.1" id="Layer_1" x="0px" y="0px" viewBox="0 0 505 505" style="enable-background:new 0 0 505 505;" xml:space="preserve">
<circle style="fill:#324A5E;" cx="252.5" cy="252.5" r="252.5"/>
<path style="fill:#4CDBC4;" d="M413.7,380.7H91.3c-0.9,0-1.5-0.7-1.5-1.5V125.9c0-0.9,0.7-1.5,1.5-1.5h322.4c0.9,0,1.5,0.7,1.5,1.5  v253.2C415.3,380,414.6,380.7,413.7,380.7z"/>
<rect x="100.8" y="159.8" style="fill:#FFFFFF;" width="303.5" height="209.8"/>
<rect x="100.8" y="159.8" style="fill:#2C9984;" width="303.5" height="29.7"/>
<g>
	<path style="fill:#FFFFFF;" d="M370.1,150.8h15c0.2,0,0.3-0.2,0.3-0.3v-15c0-0.2-0.2-0.3-0.3-0.3h-15c-0.2,0-0.3,0.2-0.3,0.3v15   C369.7,150.6,369.9,150.8,370.1,150.8z"/>
	<path style="fill:#FFFFFF;" d="M335.8,150.8h15c0.2,0,0.3-0.2,0.3-0.3v-15c0-0.2-0.2-0.3-0.3-0.3h-15c-0.2,0-0.3,0.2-0.3,0.3v15   C335.5,150.6,335.7,150.8,335.8,150.8z"/>
	<path style="fill:#FFFFFF;" d="M297.9,182.5H124.7c-4.2,0-7.6-3.4-7.6-7.6l0,0c0-4.2,3.4-7.6,7.6-7.6h173.2c4.2,0,7.6,3.4,7.6,7.6   l0,0C305.5,179,302.1,182.5,297.9,182.5z"/>
</g>
<g>
	<rect x="188.6" y="228.7" style="fill:#E6E9EE;" width="127.8" height="10.3"/>
	<rect x="188.6" y="255.6" style="fill:#E6E9EE;" width="127.8" height="10.3"/>
	<rect x="188.6" y="282.4" style="fill:#E6E9EE;" width="127.8" height="10.3"/>
	<rect x="188.6" y="309.2" style="fill:#E6E9EE;" width="58.2" height="10.3"/>
</g>
<g>
	<path style="fill:#FF7058;" d="M344.2,312.1c-1.5,0-3-0.6-4.2-1.7c-2.3-2.3-2.3-6.1,0-8.4l27.8-27.8L340,246.4   c-2.3-2.3-2.3-6.1,0-8.4c2.3-2.3,6.1-2.3,8.4,0l32,32c1.1,1.1,1.7,2.6,1.7,4.2s-0.6,3.1-1.7,4.2l-32,32   C347.3,311.5,345.7,312.1,344.2,312.1z"/>
	<path style="fill:#FF7058;" d="M160.8,312.1c-1.5,0-3-0.6-4.2-1.7l-32-32c-1.1-1.1-1.7-2.6-1.7-4.2s0.6-3.1,1.7-4.2l32-32   c2.3-2.3,6.1-2.3,8.4,0c2.3,2.3,2.3,6.1,0,8.4l-27.8,27.8L165,302c2.3,2.3,2.3,6.1,0,8.4C163.8,311.5,162.3,312.1,160.8,312.1z"/>
</g>
<g>
</g>
<g>
</g>
<g>
</g>
<g>
</g>
<g>
</g>
<g>
</g>
<g>
</g>
<g>
</g>
<g>
</g>
<g>
</g>
<g>
</g>
<g>
</g>
<g>
</g>
<g>
</g>
<g>
</g>
</svg>
