<?xml version="1.0" encoding="iso-8859-1"?>
<!-- Generator: Adobe Illustrator 19.0.0, SVG Export Plug-In . SVG Version: 6.00 Build 0)  -->
<svg xmlns="http://www.w3.org/2000/svg" xmlns:xlink="http://www.w3.org/1999/xlink" version="1.1" id="Layer_1" x="0px" y="0px" viewBox="0 0 505 505" style="enable-background:new 0 0 505 505;" xml:space="preserve">
<circle style="fill:#54C0EB;" cx="252.5" cy="252.5" r="252.5"/>
<path style="fill:#324A5E;" d="M384.8,440.6H120.2c-2.1,0-3.8-1.7-3.8-3.8V100.7c0-2.1,1.7-3.8,3.8-3.8h264.7c2.1,0,3.8,1.7,3.8,3.8  v336.1C388.6,438.9,386.9,440.6,384.8,440.6z"/>
<rect x="142.3" y="123.7" style="fill:#FFFFFF;" width="220.4" height="269.1"/>
<g>
	<rect x="181" y="90.2" style="fill:#FF7058;" width="143" height="43.6"/>
	<polygon style="fill:#FF7058;" points="301.2,97.2 203.8,97.2 225.6,64.4 279.4,64.4  "/>
</g>
<rect x="161.8" y="163.4" style="fill:#4CDBC4;" width="41.9" height="41.9"/>
<g>
	<rect x="218.7" y="163.4" style="fill:#E6E9EE;" width="124.4" height="5"/>
	<rect x="218.7" y="176.3" style="fill:#E6E9EE;" width="124.4" height="5"/>
	<rect x="218.7" y="189.2" style="fill:#E6E9EE;" width="55.3" height="5"/>
</g>
<rect x="161.8" y="237.4" style="fill:#FFD05B;" width="41.9" height="41.9"/>
<g>
	<rect x="218.7" y="237.4" style="fill:#E6E9EE;" width="124.4" height="5"/>
	<rect x="218.7" y="250.3" style="fill:#E6E9EE;" width="124.4" height="5"/>
	<rect x="218.7" y="263.3" style="fill:#E6E9EE;" width="55.3" height="5"/>
</g>
<rect x="161.8" y="311.4" style="fill:#CED5E0;" width="41.9" height="41.9"/>
<g>
	<rect x="218.7" y="311.4" style="fill:#E6E9EE;" width="124.4" height="5"/>
	<rect x="218.7" y="324.3" style="fill:#E6E9EE;" width="124.4" height="5"/>
	<rect x="218.7" y="337.3" style="fill:#E6E9EE;" width="55.3" height="5"/>
</g>
<g>
</g>
<g>
</g>
<g>
</g>
<g>
</g>
<g>
</g>
<g>
</g>
<g>
</g>
<g>
</g>
<g>
</g>
<g>
</g>
<g>
</g>
<g>
</g>
<g>
</g>
<g>
</g>
<g>
</g>
</svg>
