<?xml version="1.0" encoding="iso-8859-1"?>
<!-- Generator: Adobe Illustrator 19.0.0, SVG Export Plug-In . SVG Version: 6.00 Build 0)  -->
<svg xmlns="http://www.w3.org/2000/svg" xmlns:xlink="http://www.w3.org/1999/xlink" version="1.1" id="Layer_1" x="0px" y="0px" viewBox="0 0 505 505" style="enable-background:new 0 0 505 505;" xml:space="preserve">
<circle style="fill:#FFD05B;" cx="252.5" cy="252.5" r="252.5"/>
<path style="fill:#324A5E;" d="M375.2,97.5c0,17.8-14.5,32.3-32.3,32.3h-56.7c-9.1,0-16.5,7.4-16.5,16.5v31.6h-15.8v-31.6  c0-17.8,14.5-32.3,32.3-32.3h56.7c9.1,0,16.5-7.4,16.5-16.5S352,81,342.9,81H179c-17.8,0-32.3-14.5-32.3-32.3V23.1  c5.2-2.4,10.4-4.6,15.8-6.6v32.2c0,9.1,7.4,16.5,16.5,16.5h163.9C360.7,65.2,375.2,79.7,375.2,97.5z"/>
<path style="fill:#FFFFFF;" d="M431.7,390.1H73.3c-1.4,0-2.5-1.1-2.5-2.5V173.4c0-1.4,1.1-2.5,2.5-2.5h358.4c1.4,0,2.5,1.1,2.5,2.5  v214.2C434.2,389,433.1,390.1,431.7,390.1z"/>
<g>
	<path style="fill:#CED5E0;" d="M121.9,224.7H89.3c-0.3,0-0.6-0.3-0.6-0.6v-32.6c0-0.3,0.3-0.6,0.6-0.6h32.6c0.3,0,0.6,0.3,0.6,0.6   v32.6C122.4,224.5,122.2,224.7,121.9,224.7z"/>
	<path style="fill:#CED5E0;" d="M170.8,224.7h-32.6c-0.3,0-0.6-0.3-0.6-0.6v-32.6c0-0.3,0.3-0.6,0.6-0.6h32.6c0.3,0,0.6,0.3,0.6,0.6   v32.6C171.4,224.5,171.2,224.7,170.8,224.7z"/>
	<path style="fill:#CED5E0;" d="M219.8,224.7h-32.6c-0.3,0-0.6-0.3-0.6-0.6v-32.6c0-0.3,0.3-0.6,0.6-0.6h32.6c0.3,0,0.6,0.3,0.6,0.6   v32.6C220.4,224.5,220.1,224.7,219.8,224.7z"/>
	<path style="fill:#CED5E0;" d="M268.8,224.7h-32.6c-0.3,0-0.6-0.3-0.6-0.6v-32.6c0-0.3,0.3-0.6,0.6-0.6h32.6c0.3,0,0.6,0.3,0.6,0.6   v32.6C269.4,224.5,269.1,224.7,268.8,224.7z"/>
	<path style="fill:#CED5E0;" d="M317.8,224.7h-32.6c-0.3,0-0.6-0.3-0.6-0.6v-32.6c0-0.3,0.3-0.6,0.6-0.6h32.6c0.3,0,0.6,0.3,0.6,0.6   v32.6C318.3,224.5,318.1,224.7,317.8,224.7z"/>
	<path style="fill:#CED5E0;" d="M366.7,224.7h-32.6c-0.3,0-0.6-0.3-0.6-0.6v-32.6c0-0.3,0.3-0.6,0.6-0.6h32.6c0.3,0,0.6,0.3,0.6,0.6   v32.6C367.3,224.5,367,224.7,366.7,224.7z"/>
	<path style="fill:#CED5E0;" d="M415.7,224.7h-32.6c-0.3,0-0.6-0.3-0.6-0.6v-32.6c0-0.3,0.3-0.6,0.6-0.6h32.6c0.3,0,0.6,0.3,0.6,0.6   v32.6C416.3,224.5,416,224.7,415.7,224.7z"/>
	<path style="fill:#CED5E0;" d="M121.9,273.1H89.3c-0.3,0-0.6-0.3-0.6-0.6v-32.6c0-0.3,0.3-0.6,0.6-0.6h32.6c0.3,0,0.6,0.3,0.6,0.6   v32.6C122.4,272.9,122.2,273.1,121.9,273.1z"/>
	<path style="fill:#CED5E0;" d="M170.8,273.1h-32.6c-0.3,0-0.6-0.3-0.6-0.6v-32.6c0-0.3,0.3-0.6,0.6-0.6h32.6c0.3,0,0.6,0.3,0.6,0.6   v32.6C171.4,272.9,171.2,273.1,170.8,273.1z"/>
	<path style="fill:#CED5E0;" d="M219.8,273.1h-32.6c-0.3,0-0.6-0.3-0.6-0.6v-32.6c0-0.3,0.3-0.6,0.6-0.6h32.6c0.3,0,0.6,0.3,0.6,0.6   v32.6C220.4,272.9,220.1,273.1,219.8,273.1z"/>
	<path style="fill:#CED5E0;" d="M268.8,273.1h-32.6c-0.3,0-0.6-0.3-0.6-0.6v-32.6c0-0.3,0.3-0.6,0.6-0.6h32.6c0.3,0,0.6,0.3,0.6,0.6   v32.6C269.4,272.9,269.1,273.1,268.8,273.1z"/>
	<path style="fill:#CED5E0;" d="M317.8,273.1h-32.6c-0.3,0-0.6-0.3-0.6-0.6v-32.6c0-0.3,0.3-0.6,0.6-0.6h32.6c0.3,0,0.6,0.3,0.6,0.6   v32.6C318.3,272.9,318.1,273.1,317.8,273.1z"/>
	<path style="fill:#CED5E0;" d="M366.7,273.1h-32.6c-0.3,0-0.6-0.3-0.6-0.6v-32.6c0-0.3,0.3-0.6,0.6-0.6h32.6c0.3,0,0.6,0.3,0.6,0.6   v32.6C367.3,272.9,367,273.1,366.7,273.1z"/>
	<path style="fill:#CED5E0;" d="M415.7,273.1h-32.6c-0.3,0-0.6-0.3-0.6-0.6v-32.6c0-0.3,0.3-0.6,0.6-0.6h32.6c0.3,0,0.6,0.3,0.6,0.6   v32.6C416.3,272.9,416,273.1,415.7,273.1z"/>
	<path style="fill:#CED5E0;" d="M121.9,321.6H89.3c-0.3,0-0.6-0.3-0.6-0.6v-32.6c0-0.3,0.3-0.6,0.6-0.6h32.6c0.3,0,0.6,0.3,0.6,0.6   V321C122.4,321.3,122.2,321.6,121.9,321.6z"/>
	<path style="fill:#CED5E0;" d="M170.8,321.6h-32.6c-0.3,0-0.6-0.3-0.6-0.6v-32.6c0-0.3,0.3-0.6,0.6-0.6h32.6c0.3,0,0.6,0.3,0.6,0.6   V321C171.4,321.3,171.2,321.6,170.8,321.6z"/>
	<path style="fill:#CED5E0;" d="M219.8,321.6h-32.6c-0.3,0-0.6-0.3-0.6-0.6v-32.6c0-0.3,0.3-0.6,0.6-0.6h32.6c0.3,0,0.6,0.3,0.6,0.6   V321C220.4,321.3,220.1,321.6,219.8,321.6z"/>
	<path style="fill:#CED5E0;" d="M317.8,321.6h-81.5c-0.3,0-0.6-0.3-0.6-0.6v-32.6c0-0.3,0.3-0.6,0.6-0.6h81.5c0.3,0,0.6,0.3,0.6,0.6   V321C318.3,321.3,318.1,321.6,317.8,321.6z"/>
	<path style="fill:#CED5E0;" d="M366.7,321.6h-32.6c-0.3,0-0.6-0.3-0.6-0.6v-32.6c0-0.3,0.3-0.6,0.6-0.6h32.6c0.3,0,0.6,0.3,0.6,0.6   V321C367.3,321.3,367,321.6,366.7,321.6z"/>
	<path style="fill:#CED5E0;" d="M415.7,321.6h-32.6c-0.3,0-0.6-0.3-0.6-0.6v-32.6c0-0.3,0.3-0.6,0.6-0.6h32.6c0.3,0,0.6,0.3,0.6,0.6   V321C416.3,321.3,416,321.6,415.7,321.6z"/>
	<path style="fill:#CED5E0;" d="M121.9,370H89.3c-0.3,0-0.6-0.3-0.6-0.6v-32.6c0-0.3,0.3-0.6,0.6-0.6h32.6c0.3,0,0.6,0.3,0.6,0.6   v32.6C122.4,369.8,122.2,370,121.9,370z"/>
	<path style="fill:#CED5E0;" d="M268.8,370H138.3c-0.3,0-0.6-0.3-0.6-0.6v-32.6c0-0.3,0.3-0.6,0.6-0.6h130.5c0.3,0,0.6,0.3,0.6,0.6   v32.6C269.4,369.8,269.1,370,268.8,370z"/>
	<path style="fill:#CED5E0;" d="M317.8,370h-32.6c-0.3,0-0.6-0.3-0.6-0.6v-32.6c0-0.3,0.3-0.6,0.6-0.6h32.6c0.3,0,0.6,0.3,0.6,0.6   v32.6C318.3,369.8,318.1,370,317.8,370z"/>
	<path style="fill:#CED5E0;" d="M366.7,370h-32.6c-0.3,0-0.6-0.3-0.6-0.6v-32.6c0-0.3,0.3-0.6,0.6-0.6h32.6c0.3,0,0.6,0.3,0.6,0.6   v32.6C367.3,369.8,367,370,366.7,370z"/>
	<path style="fill:#CED5E0;" d="M415.7,370h-32.6c-0.3,0-0.6-0.3-0.6-0.6v-32.6c0-0.3,0.3-0.6,0.6-0.6h32.6c0.3,0,0.6,0.3,0.6,0.6   v32.6C416.3,369.8,416,370,415.7,370z"/>
</g>
<g>
</g>
<g>
</g>
<g>
</g>
<g>
</g>
<g>
</g>
<g>
</g>
<g>
</g>
<g>
</g>
<g>
</g>
<g>
</g>
<g>
</g>
<g>
</g>
<g>
</g>
<g>
</g>
<g>
</g>
</svg>
