<?xml version="1.0" encoding="iso-8859-1"?>
<!-- Generator: Adobe Illustrator 19.0.0, SVG Export Plug-In . SVG Version: 6.00 Build 0)  -->
<svg xmlns="http://www.w3.org/2000/svg" xmlns:xlink="http://www.w3.org/1999/xlink" version="1.1" id="Layer_1" x="0px" y="0px" viewBox="0 0 505 505" style="enable-background:new 0 0 505 505;" xml:space="preserve">
<circle style="fill:#54C0EB;" cx="252.5" cy="252.5" r="252.5"/>
<path style="fill:#84DBFF;" d="M37.2,384.4C81.6,456.8,161.4,505,252.5,505s170.9-48.2,215.3-120.6H37.2z"/>
<path style="fill:#FFFFFF;" d="M68.8,356.7V369c0,8.1,6.6,14.7,14.7,14.7h337.8c8.1,0,14.7-6.6,14.7-14.7v-12.3H68.8z"/>
<polygon style="fill:#E6E9EE;" points="300.3,356.7 206.3,356.7 214.5,370.2 292.2,370.2 "/>
<path style="fill:#324A5E;" d="M413.1,347.7H91.9c-0.9,0-1.6-0.7-1.6-1.6V122.9c0-0.9,0.7-1.6,1.6-1.6h321.2c0.9,0,1.6,0.7,1.6,1.6  v223.2C414.7,347,414,347.7,413.1,347.7z"/>
<rect x="104.5" y="143.7" style="fill:#FFFFFF;" width="296" height="181.5"/>
<polygon style="fill:#FF7058;" points="386.5,186.2 440.2,186.2 400.5,143.7 358.2,143.7 "/>
<polygon style="fill:#E6E9EE;" points="332.9,186.2 386.5,186.2 358.2,143.7 315.9,143.7 "/>
<polygon style="fill:#FF7058;" points="279.3,186.2 332.9,186.2 315.9,143.7 273.6,143.7 "/>
<polygon style="fill:#E6E9EE;" points="225.7,186.2 279.3,186.2 273.6,143.7 231.4,143.7 "/>
<g>
	<polygon style="fill:#FF7058;" points="172.1,186.2 225.7,186.2 231.4,143.7 189.1,143.7  "/>
	<polygon style="fill:#FF7058;" points="64.8,186.2 118.5,186.2 146.8,143.7 104.5,143.7  "/>
</g>
<polygon style="fill:#E6E9EE;" points="118.5,186.2 172.1,186.2 189.1,143.7 146.8,143.7 "/>
<path style="fill:#F1543F;" d="M413.4,227.3L413.4,227.3c14.8,0,26.8-12,26.8-26.8v-14.3h-53.7v14.3  C386.5,215.3,398.5,227.3,413.4,227.3z"/>
<path style="fill:#CED5E0;" d="M359.7,227.3L359.7,227.3c14.8,0,26.8-12,26.8-26.8v-14.3h-53.6v14.3  C332.9,215.3,344.9,227.3,359.7,227.3z"/>
<path style="fill:#F1543F;" d="M300.4,227.3h11.4c11.7,0,21.1-9.4,21.1-21.1v-20h-53.6v20C279.3,217.9,288.8,227.3,300.4,227.3z"/>
<path style="fill:#CED5E0;" d="M252.5,227.3L252.5,227.3c14.8,0,26.8-12,26.8-26.8v-14.3h-53.6v14.3  C225.7,215.3,237.7,227.3,252.5,227.3z"/>
<path style="fill:#F1543F;" d="M198.9,227.3L198.9,227.3c14.8,0,26.8-12,26.8-26.8v-14.3h-53.6v14.3  C172.1,215.3,184.1,227.3,198.9,227.3z"/>
<path style="fill:#CED5E0;" d="M145.3,227.3L145.3,227.3c14.8,0,26.8-12,26.8-26.8v-14.3h-53.6v14.3  C118.5,215.3,130.5,227.3,145.3,227.3z"/>
<path style="fill:#F1543F;" d="M91.6,227.3L91.6,227.3c14.8,0,26.8-12,26.8-26.8v-14.3H64.8v14.3C64.8,215.3,76.8,227.3,91.6,227.3z  "/>
<g>
</g>
<g>
</g>
<g>
</g>
<g>
</g>
<g>
</g>
<g>
</g>
<g>
</g>
<g>
</g>
<g>
</g>
<g>
</g>
<g>
</g>
<g>
</g>
<g>
</g>
<g>
</g>
<g>
</g>
</svg>
