<?xml version="1.0" encoding="iso-8859-1"?>
<!-- Generator: Adobe Illustrator 19.0.0, SVG Export Plug-In . SVG Version: 6.00 Build 0)  -->
<svg xmlns="http://www.w3.org/2000/svg" xmlns:xlink="http://www.w3.org/1999/xlink" version="1.1" id="Layer_1" x="0px" y="0px" viewBox="0 0 505 505" style="enable-background:new 0 0 505 505;" xml:space="preserve">
<circle style="fill:#324A5E;" cx="252.5" cy="252.5" r="252.5"/>
<path style="fill:#FF7058;" d="M406.9,139.3H98.1c-4.7,0-8.6,3.8-8.6,8.6V357c0,4.7,3.8,8.6,8.6,8.6h308.7c4.7,0,8.6-3.8,8.6-8.6  V147.9C415.4,143.2,411.6,139.3,406.9,139.3z"/>
<path style="fill:#F1543F;" d="M412.9,363.1c-1.5,1.5-3.5,2.4-5.8,2.5h-0.4l-311.5-0.5c-1.5-0.5-2.7-1.4-3.7-2.5l160.4-160.4  L412.9,363.1z"/>
<path style="fill:#E6E9EE;" d="M412.5,141.5L254,295.3L92.3,141.7c1.5-1.4,3.6-2.3,5.9-2.3h308.6C409,139.3,410.9,140.1,412.5,141.5  z"/>
<g>
</g>
<g>
</g>
<g>
</g>
<g>
</g>
<g>
</g>
<g>
</g>
<g>
</g>
<g>
</g>
<g>
</g>
<g>
</g>
<g>
</g>
<g>
</g>
<g>
</g>
<g>
</g>
<g>
</g>
</svg>
