<?xml version="1.0" encoding="iso-8859-1"?>
<!-- Generator: Adobe Illustrator 19.0.0, SVG Export Plug-In . SVG Version: 6.00 Build 0)  -->
<svg xmlns="http://www.w3.org/2000/svg" xmlns:xlink="http://www.w3.org/1999/xlink" version="1.1" id="Layer_1" x="0px" y="0px" viewBox="0 0 505 505" style="enable-background:new 0 0 505 505;" xml:space="preserve">
<circle style="fill:#54C0EB;" cx="252.5" cy="252.5" r="252.5"/>
<path style="fill:#324A5E;" d="M425.4,390H79.6c-0.9,0-1.7-0.7-1.7-1.7V116.7c0-0.9,0.7-1.7,1.7-1.7h345.9c0.9,0,1.7,0.7,1.7,1.7  v271.7C427.1,389.2,426.4,390,425.4,390z"/>
<rect x="89.7" y="153.1" style="fill:#FFFFFF;" width="325.5" height="225"/>
<rect x="89.7" y="153.3" style="fill:#FF7058;" width="325.5" height="31.8"/>
<g>
	<path style="fill:#E6E9EE;" d="M396.7,145.6H417c0.3,0,0.5-0.2,0.5-0.5v-20.3c0-0.3-0.2-0.5-0.5-0.5h-20.3c-0.3,0-0.5,0.2-0.5,0.5   v20.3C396.3,145.4,396.5,145.6,396.7,145.6z"/>
	<path style="fill:#E6E9EE;" d="M368.6,145.6h20.3c0.3,0,0.5-0.2,0.5-0.5v-20.3c0-0.3-0.2-0.5-0.5-0.5h-20.3c-0.3,0-0.5,0.2-0.5,0.5   v20.3C368.1,145.4,368.3,145.6,368.6,145.6z"/>
	<path style="fill:#E6E9EE;" d="M340.4,145.6h20.3c0.3,0,0.5-0.2,0.5-0.5v-20.3c0-0.3-0.2-0.5-0.5-0.5h-20.3c-0.3,0-0.5,0.2-0.5,0.5   v20.3C340,145.4,340.2,145.6,340.4,145.6z"/>
</g>
<path style="fill:#FFFFFF;" d="M301.2,177.4H115.4c-4.5,0-8.2-3.7-8.2-8.2l0,0c0-4.5,3.7-8.2,8.2-8.2h185.8c4.5,0,8.2,3.7,8.2,8.2  l0,0C309.4,173.7,305.7,177.4,301.2,177.4z"/>
<path style="fill:#4CDBC4;" d="M256.7,316.4v29.3c14.8-1,28.2-6.8,38.7-16.1l-20.7-20.7C269.6,312.9,263.5,315.6,256.7,316.4z"/>
<path style="fill:#FFD05B;" d="M301.5,323.6c10.1-11.5,16.2-26.5,16.2-43s-6.1-31.5-16.2-43l-20.7,20.7c4.8,6.1,7.7,13.9,7.7,22.3  s-2.9,16.1-7.7,22.3L301.5,323.6z"/>
<path style="fill:#324A5E;" d="M256.7,215.4v29.3c6.8,0.8,12.9,3.4,18,7.5l20.7-20.7C285,222.3,271.5,216.4,256.7,215.4z"/>
<g>
	<path style="fill:#E6E9EE;" d="M187.3,276.3h29.3c1.9-16.5,15-29.6,31.5-31.5v-29.3C215.5,217.6,189.4,243.7,187.3,276.3z"/>
	<path style="fill:#E6E9EE;" d="M216.6,284.9h-29.3c2.1,32.6,28.2,58.7,60.8,60.8v-29.3C231.6,314.4,218.6,301.4,216.6,284.9z"/>
</g>
<g>
</g>
<g>
</g>
<g>
</g>
<g>
</g>
<g>
</g>
<g>
</g>
<g>
</g>
<g>
</g>
<g>
</g>
<g>
</g>
<g>
</g>
<g>
</g>
<g>
</g>
<g>
</g>
<g>
</g>
</svg>
