<?xml version="1.0" encoding="iso-8859-1"?>
<!-- Generator: Adobe Illustrator 19.0.0, SVG Export Plug-In . SVG Version: 6.00 Build 0)  -->
<svg xmlns="http://www.w3.org/2000/svg" xmlns:xlink="http://www.w3.org/1999/xlink" version="1.1" id="Layer_1" x="0px" y="0px" viewBox="0 0 505 505" style="enable-background:new 0 0 505 505;" xml:space="preserve">
<circle style="fill:#FFD05B;" cx="252.5" cy="252.5" r="252.5"/>
<rect x="142.7" y="166.6" style="fill:#2B3B4E;" width="219.5" height="18.2"/>
<circle style="fill:#324A5E;" cx="140.1" cy="252.5" r="89.1"/>
<circle style="fill:#84DBFF;" cx="140.1" cy="252.5" r="67.7"/>
<ellipse transform="matrix(-0.7071 -0.7071 0.7071 -0.7071 26.0691 447.4771)" style="fill:#FFFFFF;" cx="105.71" cy="218.339" rx="7.7" ry="19.8"/>
<circle style="fill:#324A5E;" cx="364.9" cy="252.5" r="89.1"/>
<circle style="fill:#84DBFF;" cx="364.9" cy="252.5" r="67.7"/>
<g>
	
		<ellipse transform="matrix(-0.7071 -0.7071 0.7071 -0.7071 409.8326 606.3049)" style="fill:#FFFFFF;" cx="330.486" cy="218.273" rx="7.7" ry="19.8"/>
	<path style="fill:#FFFFFF;" d="M291.5,300.6c-5,0-9.1-4.1-9.1-9.1c0-16.5-13.4-29.9-29.9-29.9s-29.9,13.4-29.9,29.9   c0,5-4.1,9.1-9.1,9.1s-9.1-4.1-9.1-9.1c0-26.5,21.6-48.1,48.1-48.1s48.1,21.6,48.1,48.1C300.6,296.5,296.5,300.6,291.5,300.6z"/>
</g>
<g>
</g>
<g>
</g>
<g>
</g>
<g>
</g>
<g>
</g>
<g>
</g>
<g>
</g>
<g>
</g>
<g>
</g>
<g>
</g>
<g>
</g>
<g>
</g>
<g>
</g>
<g>
</g>
<g>
</g>
</svg>
