<?xml version="1.0" encoding="iso-8859-1"?>
<!-- Generator: Adobe Illustrator 19.0.0, SVG Export Plug-In . SVG Version: 6.00 Build 0)  -->
<svg xmlns="http://www.w3.org/2000/svg" xmlns:xlink="http://www.w3.org/1999/xlink" version="1.1" id="Layer_1" x="0px" y="0px" viewBox="0 0 505 505" style="enable-background:new 0 0 505 505;" xml:space="preserve">
<circle style="fill:#84DBFF;" cx="252.5" cy="252.5" r="252.5"/>
<path style="fill:#FFFFFF;" d="M372.7,406H132.3c-8.4,0-15.4-6.5-15.9-14.9l-12-172.7h296.1l-12,172.7  C388,399.5,381.1,406,372.7,406z"/>
<path style="fill:#FF7058;" d="M392,244.5H113c-13.4,0-24.3-10.9-24.3-24.3l0,0c0-13.4,10.9-24.3,24.3-24.3h279.1  c13.4,0,24.3,10.9,24.3,24.3l0,0C416.4,233.6,405.5,244.5,392,244.5z"/>
<g>
	<rect x="135.1" y="263.1" style="fill:#84DBFF;" width="64.6" height="15.4"/>
	<rect x="220.2" y="263.1" style="fill:#84DBFF;" width="64.6" height="15.4"/>
	<rect x="305.3" y="263.1" style="fill:#84DBFF;" width="64.6" height="15.4"/>
	<rect x="135.1" y="295.3" style="fill:#84DBFF;" width="64.6" height="15.4"/>
	<rect x="220.2" y="295.3" style="fill:#84DBFF;" width="64.6" height="15.4"/>
	<rect x="305.3" y="295.3" style="fill:#84DBFF;" width="64.6" height="15.4"/>
	<rect x="135.1" y="327.4" style="fill:#84DBFF;" width="64.6" height="15.4"/>
	<rect x="220.2" y="327.4" style="fill:#84DBFF;" width="64.6" height="15.4"/>
	<rect x="305.3" y="327.4" style="fill:#84DBFF;" width="64.6" height="15.4"/>
	<rect x="135.1" y="359.6" style="fill:#84DBFF;" width="64.6" height="15.4"/>
	<rect x="220.2" y="359.6" style="fill:#84DBFF;" width="64.6" height="15.4"/>
	<rect x="305.3" y="359.6" style="fill:#84DBFF;" width="64.6" height="15.4"/>
	<circle style="fill:#84DBFF;" cx="323.2" cy="220.2" r="17"/>
	<circle style="fill:#84DBFF;" cx="181.8" cy="220.2" r="17"/>
</g>
<g>
	<path style="fill:#FFFFFF;" d="M321.7,223.9L321.7,223.9c5.7,1.9,11.8-1.1,13.8-6.8l35.2-103.7c1.9-5.7-1.1-11.8-6.8-13.8l0,0   c-5.7-1.9-11.8,1.1-13.8,6.8l-35.2,103.7C312.9,215.8,316,221.9,321.7,223.9z"/>
	<path style="fill:#FFFFFF;" d="M183.3,223.9L183.3,223.9c-5.7,1.9-11.8-1.1-13.8-6.8l-35.2-103.7c-1.9-5.7,1.1-11.8,6.8-13.8l0,0   c5.7-1.9,11.8,1.1,13.8,6.8l35.2,103.7C192.1,215.8,189,221.9,183.3,223.9z"/>
</g>
<g>
</g>
<g>
</g>
<g>
</g>
<g>
</g>
<g>
</g>
<g>
</g>
<g>
</g>
<g>
</g>
<g>
</g>
<g>
</g>
<g>
</g>
<g>
</g>
<g>
</g>
<g>
</g>
<g>
</g>
</svg>
