<?xml version="1.0" encoding="iso-8859-1"?>
<!-- Generator: Adobe Illustrator 19.0.0, SVG Export Plug-In . SVG Version: 6.00 Build 0)  -->
<svg xmlns="http://www.w3.org/2000/svg" xmlns:xlink="http://www.w3.org/1999/xlink" version="1.1" id="Layer_1" x="0px" y="0px" viewBox="0 0 505 505" style="enable-background:new 0 0 505 505;" xml:space="preserve">
<circle style="fill:#FD8469;" cx="252.5" cy="252.5" r="252.5"/>
<path style="fill:#FFFFFF;" d="M68.8,356.7V369c0,8.1,6.6,14.7,14.7,14.7h337.8c8.1,0,14.7-6.6,14.7-14.7v-12.3H68.8z"/>
<polygon style="fill:#E6E9EE;" points="300.3,356.7 206.3,356.7 214.5,370.2 292.2,370.2 "/>
<path style="fill:#324A5E;" d="M413.1,347.7H91.9c-0.9,0-1.6-0.7-1.6-1.6V122.9c0-0.9,0.7-1.6,1.6-1.6h321.2c0.9,0,1.6,0.7,1.6,1.6  v223.2C414.7,347,414,347.7,413.1,347.7z"/>
<rect x="104.5" y="143.7" style="fill:#FFFFFF;" width="296" height="181.5"/>
<rect x="104.5" y="143.7" style="fill:#E6E9EE;" width="296" height="19.5"/>
<g>
	<rect x="118" y="176.2" style="fill:#84DBFF;" width="175.8" height="102.8"/>
	<rect x="304.1" y="176.2" style="fill:#84DBFF;" width="36.2" height="27.2"/>
	<rect x="304.1" y="212.1" style="fill:#84DBFF;" width="36.2" height="27.2"/>
	<rect x="304.1" y="248.1" style="fill:#84DBFF;" width="36.2" height="27.2"/>
</g>
<g>
	<rect x="347.4" y="176.2" style="fill:#E6E9EE;" width="42.5" height="4.3"/>
	<rect x="347.4" y="187.5" style="fill:#E6E9EE;" width="21.3" height="4.3"/>
	<rect x="347.4" y="212.1" style="fill:#E6E9EE;" width="42.5" height="4.3"/>
	<rect x="347.4" y="223.5" style="fill:#E6E9EE;" width="21.3" height="4.3"/>
	<rect x="347.4" y="248.1" style="fill:#E6E9EE;" width="42.5" height="4.3"/>
	<rect x="347.4" y="259.5" style="fill:#E6E9EE;" width="21.3" height="4.3"/>
</g>
<path style="fill:#FFFFFF;" d="M182,206.3V249c0,3.3,3.6,5.4,6.5,3.8l39-21.3c3-1.7,3-6,0-7.7l-39-21.3  C185.5,200.8,182,202.9,182,206.3z"/>
<rect x="118" y="288.6" style="fill:#4CDBC4;" width="15.1" height="15.1"/>
<rect x="143.6" y="288.6" style="fill:#84DBFF;" width="15.1" height="15.1"/>
<rect x="169.1" y="288.6" style="fill:#FF7058;" width="15.1" height="15.1"/>
<g>
</g>
<g>
</g>
<g>
</g>
<g>
</g>
<g>
</g>
<g>
</g>
<g>
</g>
<g>
</g>
<g>
</g>
<g>
</g>
<g>
</g>
<g>
</g>
<g>
</g>
<g>
</g>
<g>
</g>
</svg>
