<?xml version="1.0" encoding="iso-8859-1"?>
<!-- Generator: Adobe Illustrator 19.0.0, SVG Export Plug-In . SVG Version: 6.00 Build 0)  -->
<svg xmlns="http://www.w3.org/2000/svg" xmlns:xlink="http://www.w3.org/1999/xlink" version="1.1" id="Layer_1" x="0px" y="0px" viewBox="0 0 505 505" style="enable-background:new 0 0 505 505;" xml:space="preserve">
<circle style="fill:#90DFAA;" cx="252.5" cy="252.5" r="252.5"/>
<polygon style="fill:#FFFFFF;" points="320.8,96.5 128.8,96.5 128.8,408.5 376.2,408.5 376.2,151.9 320.8,151.9 "/>
<polygon style="fill:#E6E9EE;" points="320.8,96.5 320.8,151.9 376.2,151.9 "/>
<g>
	<path style="fill:#54C0EB;" d="M196.6,181.2c-1,0.9-1.6,2-1.6,3.4s0.6,2.6,1.9,3.4c1.3,0.8,4.2,1.8,8.9,3c4.6,1.1,8.2,2.9,10.8,5.1   c2.6,2.3,3.8,5.6,3.8,10s-1.6,7.9-4.9,10.7c-3.3,2.7-7.6,4.1-13,4.1c-7.7,0-14.7-2.9-20.9-8.6l6.5-8c5.3,4.6,10.1,6.9,14.6,6.9   c2,0,3.6-0.4,4.7-1.3c1.1-0.9,1.7-2,1.7-3.5s-0.6-2.6-1.8-3.5s-3.6-1.7-7.2-2.6c-5.7-1.4-9.8-3.1-12.5-5.3c-2.6-2.2-4-5.6-4-10.2   c0-4.6,1.7-8.2,5-10.7s7.5-3.8,12.5-3.8c3.3,0,6.5,0.6,9.8,1.7c3.3,1.1,6.1,2.7,8.5,4.8l-5.5,8c-4.2-3.2-8.6-4.8-13.1-4.8   C199.1,179.9,197.7,180.3,196.6,181.2z"/>
	<path style="fill:#54C0EB;" d="M265.1,171.4v9.7h-24.3v10.1h21.9v9.3h-21.9v10.1h25.1v9.7h-36v-48.9H265.1z"/>
	<path style="fill:#54C0EB;" d="M315.9,213.5c-4.9,4.8-11,7.2-18.3,7.2c-7.2,0-13.3-2.4-18.3-7.2c-4.9-4.8-7.4-10.8-7.4-18   s2.5-13.2,7.4-18s11-7.2,18.3-7.2c7.2,0,13.3,2.4,18.3,7.2c4.9,4.8,7.4,10.8,7.4,18S320.8,208.7,315.9,213.5z M312.2,195.6   c0-4.4-1.4-8.1-4.2-11.2c-2.8-3.1-6.2-4.6-10.3-4.6c-4.1,0-7.5,1.5-10.3,4.6s-4.2,6.8-4.2,11.2s1.4,8.1,4.2,11.1   c2.8,3.1,6.2,4.6,10.3,4.6c4.1,0,7.5-1.5,10.3-4.6S312.2,199.9,312.2,195.6z"/>
</g>
<polygon style="fill:#FF7058;" points="189.2,347.1 183.6,341.5 222.1,303 247.9,328.8 304,272.7 309.6,278.3 247.9,340   222.1,314.2 "/>
<polygon style="fill:#FFD05B;" points="190.9,365.3 190.9,251 181.1,251 181.1,375.1 319.6,375.1 319.6,365.3 "/>
<polygon style="fill:#FF7058;" points="285.6,262.8 319.1,296.4 323.9,258.1 "/>
<g>
</g>
<g>
</g>
<g>
</g>
<g>
</g>
<g>
</g>
<g>
</g>
<g>
</g>
<g>
</g>
<g>
</g>
<g>
</g>
<g>
</g>
<g>
</g>
<g>
</g>
<g>
</g>
<g>
</g>
</svg>
