<?xml version="1.0" encoding="iso-8859-1"?>
<!-- Generator: Adobe Illustrator 19.0.0, SVG Export Plug-In . SVG Version: 6.00 Build 0)  -->
<svg xmlns="http://www.w3.org/2000/svg" xmlns:xlink="http://www.w3.org/1999/xlink" version="1.1" id="Layer_1" x="0px" y="0px" viewBox="0 0 505 505" style="enable-background:new 0 0 505 505;" xml:space="preserve">
<circle style="fill:#324A5E;" cx="252.5" cy="252.5" r="252.5"/>
<rect x="204.4" y="433.8" style="fill:#54C0EB;" width="96.2" height="7.1"/>
<path style="fill:#84DBFF;" d="M289.1,393.7h-73.2v65.2c0,1.6,1.3,2.9,2.9,2.9h67.3c1.6,0,2.9-1.3,2.9-2.9v-65.2H289.1z"/>
<path style="fill:#FFFFFF;" d="M361.3,223.3c0-61.5-51.1-111.1-113.2-108.7c-56.6,2.2-102.5,48.5-104.3,105.1  c-1,31.3,11.2,59.8,31.5,80.2c17.8,17.9,28.2,41.9,28.2,67.1v35.2c0,7.9,6.4,14.4,14.4,14.4H287c7.9,0,14.4-6.4,14.4-14.4V367  c0-24.8,9.6-48.8,27.3-66.2C348.8,281.2,361.3,253.7,361.3,223.3z"/>
<path style="fill:#FF7058;" d="M249.7,275.6v-9.4c-11.8-1.2-22.3-5.9-31.7-14.1l9.4-11.2c7.2,6.3,14.6,10,22.3,11.2v-25  c-9.7-2.3-16.8-5.4-21.3-9.2s-6.8-9.4-6.8-16.8c0-7.4,2.6-13.5,7.8-18.2s12-7.3,20.3-7.7v-6.4h8.3v6.6c9.5,0.7,18.4,3.9,26.8,9.7  l-8.4,11.9c-5.7-4-11.8-6.5-18.4-7.5v24.2h0.4c9.9,2.3,17.1,5.5,21.8,9.4c4.6,4,7,9.7,7,17.2s-2.7,13.6-8,18.4  c-5.3,4.7-12.4,7.3-21.1,7.7v9.3h-8.4V275.6z M240.6,192.4c-2.2,1.9-3.3,4.3-3.3,7.2s0.9,5.2,2.6,6.8c1.7,1.7,5,3.3,9.8,4.8v-22.3  C245.8,189.3,242.8,190.4,240.6,192.4z M267.7,248.9c2.4-2,3.6-4.5,3.6-7.5s-0.9-5.4-2.8-7.2s-5.4-3.4-10.6-5v23.3  C262,252.1,265.3,250.9,267.7,248.9z"/>
<g>
	<rect x="248.9" y="43.2" style="fill:#E6E9EE;" width="7.2" height="30"/>
	<rect x="397.8" y="214.8" style="fill:#E6E9EE;" width="30" height="7.2"/>
	<rect x="77.3" y="214.8" style="fill:#E6E9EE;" width="30" height="7.2"/>
	
		<rect x="362.221" y="90.083" transform="matrix(-0.7071 -0.7071 0.7071 -0.7071 550.1905 438.0626)" style="fill:#E6E9EE;" width="7.2" height="30"/>
	
		<rect x="135.563" y="316.794" transform="matrix(-0.7071 -0.7071 0.7071 -0.7071 2.9517 664.8102)" style="fill:#E6E9EE;" width="7.2" height="30"/>
	
		<rect x="362.187" y="316.662" transform="matrix(0.7071 -0.7071 0.7071 0.7071 -127.3834 355.7921)" style="fill:#E6E9EE;" width="7.2" height="30"/>
	
		<rect x="135.586" y="90.132" transform="matrix(0.7071 -0.7071 0.7071 0.7071 -33.5731 129.2117)" style="fill:#E6E9EE;" width="7.2" height="30"/>
</g>
<g>
</g>
<g>
</g>
<g>
</g>
<g>
</g>
<g>
</g>
<g>
</g>
<g>
</g>
<g>
</g>
<g>
</g>
<g>
</g>
<g>
</g>
<g>
</g>
<g>
</g>
<g>
</g>
<g>
</g>
</svg>
