<?xml version="1.0" encoding="iso-8859-1"?>
<!-- Generator: Adobe Illustrator 19.0.0, SVG Export Plug-In . SVG Version: 6.00 Build 0)  -->
<svg xmlns="http://www.w3.org/2000/svg" xmlns:xlink="http://www.w3.org/1999/xlink" version="1.1" id="Layer_1" x="0px" y="0px" viewBox="0 0 505 505" style="enable-background:new 0 0 505 505;" xml:space="preserve">
<circle style="fill:#54C0EB;" cx="252.5" cy="252.5" r="252.5"/>
<path style="fill:#FFFFFF;" d="M357.1,111.5H97.4c-3.5,0-6.4,2.9-6.4,6.4v156.7c0,3.5,2.9,6.4,6.4,6.4h19.2v32l44.7-32h195.8  c3.5,0,6.4-2.9,6.4-6.4V117.9C363.5,114.3,360.7,111.5,357.1,111.5z"/>
<path style="fill:#FF7058;" d="M206.1,236.1H409c2.8,0,5,2.2,5,5v122.4c0,2.8-2.2,5-5,5h-15v25l-34.9-25h-153c-2.8,0-5-2.2-5-5  V241.1C201.1,238.4,203.3,236.1,206.1,236.1z"/>
<g>
	<circle style="fill:#FFFFFF;" cx="256.6" cy="299.8" r="13.9"/>
	<circle style="fill:#FFFFFF;" cx="307.5" cy="299.8" r="13.9"/>
	<circle style="fill:#FFFFFF;" cx="358.5" cy="299.8" r="13.9"/>
</g>
<g>
	<circle style="fill:#CED5E0;" cx="165.2" cy="191" r="17"/>
	<circle style="fill:#CED5E0;" cx="227.3" cy="191" r="17"/>
	<circle style="fill:#CED5E0;" cx="289.4" cy="191" r="17"/>
</g>
<g>
</g>
<g>
</g>
<g>
</g>
<g>
</g>
<g>
</g>
<g>
</g>
<g>
</g>
<g>
</g>
<g>
</g>
<g>
</g>
<g>
</g>
<g>
</g>
<g>
</g>
<g>
</g>
<g>
</g>
</svg>
