<?xml version="1.0" encoding="iso-8859-1"?>
<!-- Generator: Adobe Illustrator 19.0.0, SVG Export Plug-In . SVG Version: 6.00 Build 0)  -->
<svg xmlns="http://www.w3.org/2000/svg" xmlns:xlink="http://www.w3.org/1999/xlink" version="1.1" id="Layer_1" x="0px" y="0px" viewBox="0 0 505 505" style="enable-background:new 0 0 505 505;" xml:space="preserve">
<circle style="fill:#324A5E;" cx="252.5" cy="252.5" r="252.5"/>
<path style="fill:#2B3B4E;" d="M79.1,436c45.2,42.8,106.2,69,173.4,69s128.1-26.3,173.4-69H79.1z"/>
<polygon style="fill:#E6E9EE;" points="303.1,337.7 201.9,337.7 187.3,406.4 317.7,406.4 "/>
<g>
	<polygon style="fill:#CED5E0;" points="308.7,364 303.1,337.7 201.9,337.7 196.3,364  "/>
	<path style="fill:#CED5E0;" d="M330.4,406.4H174.6c-8.1,0-14.6,6.5-14.6,14.6l0,0c0,8.1,6.5,14.6,14.6,14.6h155.7   c8.1,0,14.6-6.5,14.6-14.6l0,0C345,413,338.4,406.4,330.4,406.4z"/>
</g>
<path style="fill:#FFFFFF;" d="M417.6,307V111.5c0-2.4-1.9-4.3-4.3-4.3H91.8c-2.4,0-4.3,1.9-4.3,4.3V307H417.6z"/>
<path style="fill:#E6E9EE;" d="M87.4,306.6v26c0,9.5,7.7,17.1,17.1,17.1h295.9c9.5,0,17.1-7.7,17.1-17.1v-26H87.4z"/>
<rect x="106.6" y="126.3" style="fill:#54C0EB;" width="291.9" height="180.3"/>
<circle style="fill:#CED5E0;" cx="252.5" cy="325.8" r="10.8"/>
<g>
</g>
<g>
</g>
<g>
</g>
<g>
</g>
<g>
</g>
<g>
</g>
<g>
</g>
<g>
</g>
<g>
</g>
<g>
</g>
<g>
</g>
<g>
</g>
<g>
</g>
<g>
</g>
<g>
</g>
</svg>
