<?xml version="1.0" encoding="iso-8859-1"?>
<!-- Generator: Adobe Illustrator 19.0.0, SVG Export Plug-In . SVG Version: 6.00 Build 0)  -->
<svg xmlns="http://www.w3.org/2000/svg" xmlns:xlink="http://www.w3.org/1999/xlink" version="1.1" id="Layer_1" x="0px" y="0px" viewBox="0 0 505 505" style="enable-background:new 0 0 505 505;" xml:space="preserve">
<circle style="fill:#90DFAA;" cx="252.5" cy="252.5" r="252.5"/>
<path style="fill:#324A5E;" d="M317.8,420.3H124c-2.4,0-4.4-2-4.4-4.4V89.1c0-2.4,2-4.4,4.4-4.4h193.8c2.4,0,4.4,2,4.4,4.4V416  C322.1,418.4,320.2,420.3,317.8,420.3z"/>
<rect x="138.9" y="130" style="fill:#84DBFF;" width="164" height="241.4"/>
<g>
	<circle style="fill:#ACB3BA;" cx="220.9" cy="394.5" r="14.9"/>
	<path style="fill:#ACB3BA;" d="M243.8,118.9H198c-1.9,0-3.5-1.6-3.5-3.5l0,0c0-1.9,1.6-3.5,3.5-3.5h45.8c1.9,0,3.5,1.6,3.5,3.5l0,0   C247.3,117.3,245.7,118.9,243.8,118.9z"/>
	<circle style="fill:#ACB3BA;" cx="220.9" cy="101.4" r="4.9"/>
</g>
<path style="fill:#FFFFFF;" d="M398.9,157H216.7c-6.4,0-11.5,5.2-11.5,11.5v104.2c0,6.4,5.2,11.5,11.5,11.5h11.8v34.7l34.7-34.7H399  c6.4,0,11.5-5.2,11.5-11.5V168.5C410.5,162.2,405.3,157,398.9,157z"/>
<g>
	<circle style="fill:#FF7058;" cx="366" cy="215.5" r="14.3"/>
	<circle style="fill:#FF7058;" cx="307.8" cy="215.5" r="14.3"/>
	<circle style="fill:#FF7058;" cx="249.7" cy="215.5" r="14.3"/>
</g>
<g>
</g>
<g>
</g>
<g>
</g>
<g>
</g>
<g>
</g>
<g>
</g>
<g>
</g>
<g>
</g>
<g>
</g>
<g>
</g>
<g>
</g>
<g>
</g>
<g>
</g>
<g>
</g>
<g>
</g>
</svg>
