<?xml version="1.0" encoding="iso-8859-1"?>
<!-- Generator: Adobe Illustrator 19.0.0, SVG Export Plug-In . SVG Version: 6.00 Build 0)  -->
<svg xmlns="http://www.w3.org/2000/svg" xmlns:xlink="http://www.w3.org/1999/xlink" version="1.1" id="Layer_1" x="0px" y="0px" viewBox="0 0 505 505" style="enable-background:new 0 0 505 505;" xml:space="preserve">
<circle style="fill:#FFD05B;" cx="252.5" cy="252.5" r="252.5"/>
<path style="fill:#324A5E;" d="M75.3,118.9h354.4c2,0,3.6,1.6,3.6,3.6v260c0,2-1.6,3.6-3.6,3.6H75.3c-2,0-3.6-1.6-3.6-3.6v-260  C71.7,120.5,73.3,118.9,75.3,118.9z"/>
<rect x="124.4" y="145.2" style="fill:#54C0EB;" width="280" height="165.6"/>
<rect x="124.4" y="310.8" style="fill:#FFFFFF;" width="280" height="49"/>
<g>
	<circle style="fill:#2B3B4E;" cx="99" cy="252.5" r="11.2"/>
	<path style="fill:#2B3B4E;" d="M418,283.4L418,283.4c-2.3,0-4.1-1.8-4.1-4.1v-53.6c0-2.3,1.8-4.1,4.1-4.1l0,0   c2.3,0,4.1,1.8,4.1,4.1v53.6C422.1,281.6,420.2,283.4,418,283.4z"/>
</g>
<circle style="fill:#FFFFFF;" cx="258.1" cy="228" r="59.8"/>
<path style="fill:#FF7058;" d="M239.2,206.3v43.4c0,3.5,3.8,5.6,6.8,3.8l35.7-21.7c2.9-1.7,2.9-5.9,0-7.6L246,202.5  C243.1,200.7,239.2,202.8,239.2,206.3z"/>
<rect x="140.3" y="328.9" style="fill:#CED5E0;" width="248.2" height="12.8"/>
<path style="fill:#4CDBC4;" d="M179.9,351.2L179.9,351.2c-8.8,0-15.9-7.1-15.9-15.9l0,0c0-8.8,7.1-15.9,15.9-15.9l0,0  c8.8,0,15.9,7.1,15.9,15.9l0,0C195.7,344,188.6,351.2,179.9,351.2z"/>
<g>
</g>
<g>
</g>
<g>
</g>
<g>
</g>
<g>
</g>
<g>
</g>
<g>
</g>
<g>
</g>
<g>
</g>
<g>
</g>
<g>
</g>
<g>
</g>
<g>
</g>
<g>
</g>
<g>
</g>
</svg>
