<?xml version="1.0" encoding="iso-8859-1"?>
<!-- Generator: Adobe Illustrator 19.0.0, SVG Export Plug-In . SVG Version: 6.00 Build 0)  -->
<svg xmlns="http://www.w3.org/2000/svg" xmlns:xlink="http://www.w3.org/1999/xlink" version="1.1" id="Layer_1" x="0px" y="0px" viewBox="0 0 505 505" style="enable-background:new 0 0 505 505;" xml:space="preserve">
<circle style="fill:#FD8469;" cx="252.5" cy="252.5" r="252.5"/>
<path style="fill:#F1543F;" d="M73.7,430.7c45.7,45.9,109,74.3,178.8,74.3s133.1-28.4,178.8-74.3H73.7z"/>
<rect x="245.9" y="140" style="fill:#FFFFFF;" width="13.2" height="203.8"/>
<path style="fill:#CED5E0;" d="M288.2,431.8h-71.4c-8.1,0-15-6.2-15.7-14.3l-10.9-110h124.6l-10.9,110  C303.2,425.6,296.4,431.8,288.2,431.8z"/>
<path style="fill:#E6E9EE;" d="M319.4,329.8H185.6c-1.4,0-2.6-1.1-2.6-2.6v-29.9h138.9v29.9C321.9,328.6,320.8,329.8,319.4,329.8z"/>
<circle style="fill:#FFD05B;" cx="252.5" cy="129.3" r="83.9"/>
<circle style="fill:#F9B54C;" cx="252.5" cy="129.3" r="68.2"/>
<circle style="fill:#FFD05B;" cx="252.5" cy="129.3" r="59.7"/>
<path style="fill:#FFFFFF;" d="M250.1,173.8V166c-9.8-1-18.6-4.9-26.4-11.7l7.8-9.3c6,5.2,12.2,8.3,18.6,9.3v-20.8  c-8.1-1.9-14-4.5-17.8-7.6c-3.8-3.1-5.6-7.8-5.6-14s2.2-11.3,6.5-15.2c4.3-3.9,10-6.1,16.9-6.4v-5.4h6.9v5.5  c7.9,0.6,15.3,3.3,22.3,8l-7,9.9c-4.7-3.4-9.8-5.4-15.3-6.2v20.2h0.3c8.2,1.9,14.3,4.5,18.1,7.8c3.9,3.3,5.8,8.1,5.8,14.3  s-2.2,11.4-6.7,15.3c-4.4,3.9-10.3,6.1-17.6,6.4v7.7H250.1z M242.6,104.5c-1.8,1.6-2.7,3.6-2.7,6s0.7,4.3,2.1,5.7  c1.4,1.4,4.1,2.7,8.2,4v-18.6C246.9,102,244.4,102.9,242.6,104.5z M265.2,151.6c2-1.6,3-3.7,3-6.2s-0.8-4.5-2.4-6s-4.5-2.8-8.8-4.1  v19.3C260.4,154.2,263.2,153.2,265.2,151.6z"/>
<g>
	<path style="fill:#324A5E;" d="M312.7,229.4c-25.6,0-46.4,20.8-46.4,46.4v7.9h7.9c25.6,0,46.4-20.8,46.4-46.4v-7.9H312.7z"/>
	<path style="fill:#324A5E;" d="M192.3,229.4h-7.9v7.9c0,25.6,20.8,46.4,46.4,46.4h7.9v-7.9C238.8,250.2,218,229.4,192.3,229.4z"/>
</g>
<g>
</g>
<g>
</g>
<g>
</g>
<g>
</g>
<g>
</g>
<g>
</g>
<g>
</g>
<g>
</g>
<g>
</g>
<g>
</g>
<g>
</g>
<g>
</g>
<g>
</g>
<g>
</g>
<g>
</g>
</svg>
