<?xml version="1.0" encoding="iso-8859-1"?>
<!-- Generator: Adobe Illustrator 19.0.0, SVG Export Plug-In . SVG Version: 6.00 Build 0)  -->
<svg xmlns="http://www.w3.org/2000/svg" xmlns:xlink="http://www.w3.org/1999/xlink" version="1.1" id="Layer_1" x="0px" y="0px" viewBox="0 0 505 505" style="enable-background:new 0 0 505 505;" xml:space="preserve">
<circle style="fill:#FD8469;" cx="252.5" cy="252.5" r="252.5"/>
<path style="fill:#4CDBC4;" d="M263.2,343.5v74.6c37.6-2.4,71.8-17.4,98.4-40.8L309,324.5C296.1,334.7,280.4,341.4,263.2,343.5z"/>
<path style="fill:#FFD05B;" d="M377.1,361.8c25.6-29.2,41.1-67.4,41.1-109.3s-15.5-80.2-41.1-109.3l-52.7,52.7  c12.3,15.6,19.6,35.2,19.6,56.7c0,21.3-7.3,41-19.6,56.6L377.1,361.8z"/>
<path style="fill:#324A5E;" d="M263.2,87v74.5c17.2,2,32.8,8.8,45.7,18.9l52.7-52.7C335,104.4,300.8,89.4,263.2,87z"/>
<g>
	<path style="fill:#FFFFFF;" d="M86.8,241.6h74.6c4.9-41.9,38.2-75.1,80.1-80.1V87C158.5,92.3,92.2,158.7,86.8,241.6z"/>
	<path style="fill:#FFFFFF;" d="M161.4,263.4H86.8c5.4,82.9,71.7,149.3,154.6,154.6v-74.5C199.5,338.5,166.3,305.3,161.4,263.4z"/>
</g>
<g>
</g>
<g>
</g>
<g>
</g>
<g>
</g>
<g>
</g>
<g>
</g>
<g>
</g>
<g>
</g>
<g>
</g>
<g>
</g>
<g>
</g>
<g>
</g>
<g>
</g>
<g>
</g>
<g>
</g>
</svg>
