<?xml version="1.0" encoding="iso-8859-1"?>
<!-- Generator: Adobe Illustrator 19.0.0, SVG Export Plug-In . SVG Version: 6.00 Build 0)  -->
<svg xmlns="http://www.w3.org/2000/svg" xmlns:xlink="http://www.w3.org/1999/xlink" version="1.1" id="Layer_1" x="0px" y="0px" viewBox="0 0 505 505" style="enable-background:new 0 0 505 505;" xml:space="preserve">
<path style="fill:#FFD05B;" d="M505,252.5c0,70.2-28.6,133.7-74.9,179.4C384.5,477.1,321.7,505,252.5,505s-132-27.9-177.6-73  C28.6,386.2,0,322.7,0,252.5C0,113.1,113,0,252.5,0C391.9,0,505,113.1,505,252.5z"/>
<rect x="220.002" y="215.296" transform="matrix(-0.7071 -0.7071 0.7071 -0.7071 205.1877 629.1819)" style="fill:#2B3B4E;" width="25.8" height="113.599"/>
<circle style="fill:#324A5E;" cx="319.3" cy="185.7" r="111.7"/>
<circle style="fill:#E6E9EE;" cx="319.3" cy="185.7" r="87.7"/>
<path style="fill:#FFFFFF;" d="M377.6,148.4c-29.2-27.1-74.8-26.4-103.3,2c-14.8,14.8-22,34.2-21.8,53.5  c-6.3-23.2-0.3-48.9,17.9-67.1c27-27,70.9-27,97.9,0C371.8,140.4,375,144.3,377.6,148.4z"/>
<path style="fill:#FF7058;" d="M125.2,416.8l-36.9-36.9c-1.2-1.2-1.2-3.3,0-4.5l102.8-102.9c1.2-1.2,3.3-1.2,4.5,0l36.9,36.9  c1.2,1.2,1.2,3.3,0,4.5L129.7,416.8C128.5,418,126.4,418,125.2,416.8z"/>
<rect x="106.46" y="315.247" transform="matrix(0.7071 -0.7071 0.7071 0.7071 -196.6986 214.3213)" style="fill:#E6E9EE;" width="107.799" height="58.699"/>
<g>
</g>
<g>
</g>
<g>
</g>
<g>
</g>
<g>
</g>
<g>
</g>
<g>
</g>
<g>
</g>
<g>
</g>
<g>
</g>
<g>
</g>
<g>
</g>
<g>
</g>
<g>
</g>
<g>
</g>
</svg>
