<?xml version="1.0" encoding="iso-8859-1"?>
<!-- Generator: Adobe Illustrator 19.0.0, SVG Export Plug-In . SVG Version: 6.00 Build 0)  -->
<svg xmlns="http://www.w3.org/2000/svg" xmlns:xlink="http://www.w3.org/1999/xlink" version="1.1" id="Layer_1" x="0px" y="0px" viewBox="0 0 505 505" style="enable-background:new 0 0 505 505;" xml:space="preserve">
<circle style="fill:#84DBFF;" cx="252.5" cy="252.5" r="252.5"/>
<g>
	<rect x="244.6" y="137.3" style="fill:#324A5E;" width="15.8" height="265.3"/>
	<path style="fill:#324A5E;" d="M383,340h-15.8v-79.6H137.8v78.4H122v-86.3c0-4.4,3.5-7.9,7.9-7.9H375c4.4,0,7.9,3.5,7.9,7.9V340   H383z"/>
</g>
<g>
	<path style="fill:#FFFFFF;" d="M351.7,194.5H153.3c-1.7,0-3.1-1.4-3.1-3.1V69.7c0-1.7,1.4-3.1,3.1-3.1h198.4c1.7,0,3.1,1.4,3.1,3.1   v121.7C354.8,193.1,353.4,194.5,351.7,194.5z"/>
	<path style="fill:#FFFFFF;" d="M172.1,380.1H87.8c-1.9,0-3.5-1.6-3.5-3.5v-76.8c0-1.9,1.6-3.5,3.5-3.5h84.3c1.9,0,3.5,1.6,3.5,3.5   v76.8C175.6,378.6,174,380.1,172.1,380.1z"/>
</g>
<rect x="104" y="316" style="fill:#FF7058;" width="51.9" height="44.4"/>
<path style="fill:#FFFFFF;" d="M294.7,438.5h-84.3c-1.9,0-3.5-1.6-3.5-3.5v-76.8c0-1.9,1.6-3.5,3.5-3.5h84.3c1.9,0,3.5,1.6,3.5,3.5  V435C298.2,436.9,296.6,438.5,294.7,438.5z"/>
<rect x="226.5" y="374.3" style="fill:#FF7058;" width="51.9" height="44.4"/>
<path style="fill:#FFFFFF;" d="M417.2,380.1h-84.3c-1.9,0-3.5-1.6-3.5-3.5v-76.8c0-1.9,1.6-3.5,3.5-3.5h84.3c1.9,0,3.5,1.6,3.5,3.5  v76.8C420.8,378.6,419.2,380.1,417.2,380.1z"/>
<g>
	<rect x="349.1" y="316" style="fill:#FF7058;" width="51.9" height="44.4"/>
	<path style="fill:#FF7058;" d="M195.8,115.9c-1.1,0.9-1.6,2-1.6,3.5c0,1.4,0.7,2.6,2,3.4c1.3,0.9,4.3,1.9,9,3   c4.7,1.2,8.4,2.9,11,5.2s3.9,5.7,3.9,10.1c0,4.4-1.7,8-5,10.8s-7.7,4.1-13.2,4.1c-7.8,0-14.9-2.9-21.2-8.7l6.6-8.1   c5.3,4.7,10.3,7,14.8,7c2,0,3.6-0.4,4.8-1.3c1.2-0.9,1.7-2.1,1.7-3.5c0-1.5-0.6-2.7-1.8-3.5c-1.2-0.9-3.7-1.8-7.3-2.7   c-5.8-1.4-10-3.2-12.7-5.4s-4-5.7-4-10.4c0-4.7,1.7-8.3,5.1-10.9c3.4-2.6,7.6-3.8,12.7-3.8c3.3,0,6.6,0.6,9.9,1.7   c3.3,1.1,6.2,2.7,8.7,4.8l-5.7,8.3c-4.3-3.3-8.7-4.9-13.3-4.9C198.4,114.6,196.9,115,195.8,115.9z"/>
	<path style="fill:#FF7058;" d="M265.2,106v9.9h-24.7v10.2h22.2v9.4h-22.2v10.3H266v9.8h-36.5V106C229.5,106,265.2,106,265.2,106z"/>
	<path style="fill:#FF7058;" d="M316.8,148.7c-5,4.9-11.2,7.3-18.5,7.3s-13.5-2.4-18.5-7.3c-5-4.9-7.5-11-7.5-18.3   s2.5-13.4,7.5-18.3s11.2-7.3,18.5-7.3s13.5,2.4,18.5,7.3s7.5,11,7.5,18.3S321.8,143.8,316.8,148.7z M313,130.5   c0-4.4-1.4-8.2-4.3-11.3c-2.8-3.1-6.3-4.7-10.5-4.7c-4.1,0-7.6,1.6-10.5,4.7c-2.8,3.1-4.3,6.9-4.3,11.3c0,4.4,1.4,8.2,4.3,11.3   c2.8,3.1,6.3,4.6,10.5,4.6c4.1,0,7.6-1.5,10.5-4.6S313,134.9,313,130.5z"/>
</g>
<g>
</g>
<g>
</g>
<g>
</g>
<g>
</g>
<g>
</g>
<g>
</g>
<g>
</g>
<g>
</g>
<g>
</g>
<g>
</g>
<g>
</g>
<g>
</g>
<g>
</g>
<g>
</g>
<g>
</g>
</svg>
