<?xml version="1.0" encoding="iso-8859-1"?>
<!-- Generator: Adobe Illustrator 19.0.0, SVG Export Plug-In . SVG Version: 6.00 Build 0)  -->
<svg xmlns="http://www.w3.org/2000/svg" xmlns:xlink="http://www.w3.org/1999/xlink" version="1.1" id="Layer_1" x="0px" y="0px" viewBox="0 0 505 505" style="enable-background:new 0 0 505 505;" xml:space="preserve">
<circle style="fill:#90DFAA;" cx="252.5" cy="252.5" r="252.5"/>
<path style="fill:#324A5E;" d="M424,389.5H78.1c-0.9,0-1.7-0.7-1.7-1.7V116.2c0-0.9,0.7-1.7,1.7-1.7H424c0.9,0,1.7,0.7,1.7,1.7  v271.7C425.7,388.7,424.9,389.5,424,389.5z"/>
<rect x="88.3" y="152.6" style="fill:#FFFFFF;" width="325.5" height="225"/>
<rect x="88.3" y="152.7" style="fill:#FF7058;" width="325.5" height="31.8"/>
<g>
	<path style="fill:#E6E9EE;" d="M395.3,145.1h20.3c0.3,0,0.5-0.2,0.5-0.5v-20.3c0-0.3-0.2-0.5-0.5-0.5h-20.3c-0.3,0-0.5,0.2-0.5,0.5   v20.3C394.8,144.9,395,145.1,395.3,145.1z"/>
	<path style="fill:#E6E9EE;" d="M367.1,145.1h20.3c0.3,0,0.5-0.2,0.5-0.5v-20.3c0-0.3-0.2-0.5-0.5-0.5h-20.3c-0.3,0-0.5,0.2-0.5,0.5   v20.3C366.7,144.9,366.9,145.1,367.1,145.1z"/>
	<path style="fill:#E6E9EE;" d="M339,145.1h20.3c0.3,0,0.5-0.2,0.5-0.5v-20.3c0-0.3-0.2-0.5-0.5-0.5H339c-0.3,0-0.5,0.2-0.5,0.5   v20.3C338.5,144.9,338.7,145.1,339,145.1z"/>
</g>
<path style="fill:#FFFFFF;" d="M299.8,176.9H114c-4.5,0-8.2-3.7-8.2-8.2l0,0c0-4.5,3.7-8.2,8.2-8.2h185.8c4.5,0,8.2,3.7,8.2,8.2l0,0  C308,173.2,304.3,176.9,299.8,176.9z"/>
<g>
	<path style="fill:#324A5E;" d="M116.1,169.3l1.5-4.8h1.9l1.5,4.8l1.7-4.8h2l-2.9,8.4h-1.4l-1.8-5.8l-1.8,5.8h-1.4l-2.9-8.4h2   L116.1,169.3z"/>
	<path style="fill:#324A5E;" d="M128.3,169.3l1.5-4.8h1.9l1.5,4.8l1.7-4.8h2l-2.9,8.4h-1.4l-1.8-5.8l-1.8,5.8h-1.5l-2.9-8.4h2   L128.3,169.3z"/>
	<path style="fill:#324A5E;" d="M140.5,169.3l1.5-4.8h1.9l1.5,4.8l1.7-4.8h2l-2.9,8.4h-1.4l-1.8-5.8l-1.8,5.8h-1.4l-2.9-8.4h2   L140.5,169.3z"/>
</g>
<rect x="112.4" y="201" style="fill:#84DBFF;" width="271.7" height="48.2"/>
<g>
	<rect x="301.8" y="265.1" style="fill:#E6E9EE;" width="82.3" height="96"/>
	<rect x="207.1" y="265.1" style="fill:#E6E9EE;" width="82.3" height="96"/>
	<rect x="112.4" y="265.1" style="fill:#E6E9EE;" width="82.3" height="96"/>
</g>
<g>
</g>
<g>
</g>
<g>
</g>
<g>
</g>
<g>
</g>
<g>
</g>
<g>
</g>
<g>
</g>
<g>
</g>
<g>
</g>
<g>
</g>
<g>
</g>
<g>
</g>
<g>
</g>
<g>
</g>
</svg>
