<?xml version="1.0" encoding="iso-8859-1"?>
<!-- Generator: Adobe Illustrator 19.0.0, SVG Export Plug-In . SVG Version: 6.00 Build 0)  -->
<svg xmlns="http://www.w3.org/2000/svg" xmlns:xlink="http://www.w3.org/1999/xlink" version="1.1" id="Layer_1" x="0px" y="0px" viewBox="0 0 505 505" style="enable-background:new 0 0 505 505;" xml:space="preserve">
<circle style="fill:#324A5E;" cx="252.5" cy="252.5" r="252.5"/>
<circle style="fill:#54C0EB;" cx="252.5" cy="252.5" r="186.2"/>
<circle style="fill:#FFFFFF;" cx="252.5" cy="252.5" r="151.1"/>
<g>
	<rect x="246" y="118.7" style="fill:#4CDBC4;" width="13" height="24.4"/>
	<rect x="246" y="361.9" style="fill:#4CDBC4;" width="13" height="24.4"/>
	<rect x="361.9" y="246" style="fill:#4CDBC4;" width="24.4" height="13"/>
	<rect x="118.7" y="246" style="fill:#4CDBC4;" width="24.4" height="13"/>
	
		<rect x="179.504" y="144.193" transform="matrix(-0.5 -0.866 0.866 -0.5 160.0857 386.8105)" style="fill:#4CDBC4;" width="24.399" height="6"/>
	
		<rect x="301.104" y="354.799" transform="matrix(-0.5 -0.866 0.866 -0.5 160.0992 808.0295)" style="fill:#4CDBC4;" width="24.399" height="6"/>
	
		<rect x="134.996" y="188.693" transform="matrix(-0.866 -0.5 0.5 -0.866 178.8222 431.3029)" style="fill:#4CDBC4;" width="24.399" height="6"/>
	
		<rect x="345.586" y="310.289" transform="matrix(-0.866 -0.5 0.5 -0.866 510.9873 763.4997)" style="fill:#4CDBC4;" width="24.399" height="6"/>
	
		<rect x="134.996" y="310.289" transform="matrix(-0.866 0.5 -0.5 -0.866 431.3187 511.0031)" style="fill:#4CDBC4;" width="24.399" height="6"/>
	
		<rect x="345.586" y="188.703" transform="matrix(-0.866 0.5 -0.5 -0.866 763.4888 178.825)" style="fill:#4CDBC4;" width="24.399" height="6"/>
	
		<rect x="179.486" y="354.807" transform="matrix(-0.5 0.866 -0.866 -0.5 597.3983 370.7106)" style="fill:#4CDBC4;" width="24.399" height="6"/>
	
		<rect x="301.097" y="144.201" transform="matrix(-0.5 0.866 -0.866 -0.5 597.4283 -50.5179)" style="fill:#4CDBC4;" width="24.399" height="6"/>
</g>
<path style="fill:#324A5E;" d="M252.5,159.3c-3.3,0-5.9,2.6-5.9,5.9v77.1l-54-31.8c-2.8-1.7-6.4-0.7-8.1,2.1  c-1.7,2.8-0.7,6.4,2.1,8.1l62.4,36.8c0.3,0.2,0.6,0.3,0.9,0.4c0.8,0.4,1.7,0.7,2.7,0.7c3.3,0,5.9-2.6,5.9-5.9v-87.3  C258.4,161.9,255.8,159.3,252.5,159.3z"/>
<line style="fill:none;stroke:#FF7058;stroke-width:2;stroke-linecap:round;stroke-miterlimit:10;" x1="252.5" y1="252.5" x2="278.4" y2="345.8"/>
<circle style="fill:#54C0EB;" cx="252.5" cy="252.5" r="17.9"/>
<g>
</g>
<g>
</g>
<g>
</g>
<g>
</g>
<g>
</g>
<g>
</g>
<g>
</g>
<g>
</g>
<g>
</g>
<g>
</g>
<g>
</g>
<g>
</g>
<g>
</g>
<g>
</g>
<g>
</g>
</svg>
