<?xml version="1.0" encoding="iso-8859-1"?>
<!-- Generator: Adobe Illustrator 19.0.0, SVG Export Plug-In . SVG Version: 6.00 Build 0)  -->
<svg xmlns="http://www.w3.org/2000/svg" xmlns:xlink="http://www.w3.org/1999/xlink" version="1.1" id="Layer_1" x="0px" y="0px" viewBox="0 0 505 505" style="enable-background:new 0 0 505 505;" xml:space="preserve">
<circle style="fill:#90DFAA;" cx="252.5" cy="252.5" r="252.5"/>
<path style="fill:#324A5E;" d="M216.2,224.8h186.4c4.9,0,8.9,4,8.9,8.9v121.1c0,4.9-4,8.9-8.9,8.9h-6.4v30.2L360,363.7H216.2  c-4.9,0-8.9-4-8.9-8.9v-121C207.3,228.9,211.3,224.8,216.2,224.8z"/>
<path style="fill:#FFFFFF;" d="M367.4,111H105.9c-6.9,0-12.5,5.6-12.5,12.5v169.8c0,6.9,5.6,12.5,12.5,12.5h8.9v42.4l50.8-42.4  h201.7c6.9,0,12.5-5.6,12.5-12.5V123.5C380,116.6,374.3,111,367.4,111z"/>
<g>
	<circle style="fill:#FF7058;" cx="154.8" cy="206.8" r="22.8"/>
	<circle style="fill:#FF7058;" cx="236.7" cy="206.8" r="22.8"/>
	<circle style="fill:#FF7058;" cx="318.6" cy="206.8" r="22.8"/>
</g>
<g>
</g>
<g>
</g>
<g>
</g>
<g>
</g>
<g>
</g>
<g>
</g>
<g>
</g>
<g>
</g>
<g>
</g>
<g>
</g>
<g>
</g>
<g>
</g>
<g>
</g>
<g>
</g>
<g>
</g>
</svg>
