<?xml version="1.0" encoding="iso-8859-1"?>
<!-- Generator: Adobe Illustrator 19.0.0, SVG Export Plug-In . SVG Version: 6.00 Build 0)  -->
<svg xmlns="http://www.w3.org/2000/svg" xmlns:xlink="http://www.w3.org/1999/xlink" version="1.1" id="Layer_1" x="0px" y="0px" viewBox="0 0 505 505" style="enable-background:new 0 0 505 505;" xml:space="preserve">
<circle style="fill:#FFD05B;" cx="252.5" cy="252.5" r="252.5"/>
<path style="fill:#FFFFFF;" d="M421,231.5v-26c0-2.7-2-5.1-4.7-5.5l-27.3-4.6c-3.5-21-11.8-40.5-23.7-57.1l16.1-22.6  c1.6-2.2,1.3-5.3-0.6-7.2l-18.3-18.3c-1.9-1.9-5-2.2-7.2-0.6l-22.6,16.1C316,93.8,296.6,85.5,275.6,82L271,54.7  c-0.5-2.7-2.8-4.7-5.5-4.7h-26c-2.7,0-5.1,2-5.5,4.7L229.4,82c-21,3.5-40.5,11.8-57.1,23.7l-22.6-16c-2.2-1.6-5.3-1.3-7.2,0.6  l-18.3,18.3c-1.9,1.9-2.2,5-0.6,7.2l16,22.6c-11.9,16.7-20.1,36.1-23.7,57.1l-27.3,4.6c-2.7,0.5-4.7,2.8-4.7,5.5v25.9  c0,2.7,2,5.1,4.7,5.5l27.3,4.6c3.5,21,11.8,40.5,23.7,57.1l-16.1,22.6c-1.6,2.2-1.3,5.3,0.6,7.2l18.3,18.3c1.9,1.9,5,2.2,7.2,0.6  l22.6-16.1c16.7,11.9,36.1,20.1,57.1,23.7l4.6,27.3c0.5,2.7,2.8,4.7,5.5,4.7h26.1c2.7,0,5.1-2,5.5-4.7l4.6-27.3  c21-3.5,40.5-11.8,57.1-23.7l22.6,16.1c2.2,1.6,5.3,1.3,7.2-0.6l18.3-18.3c1.9-1.9,2.2-5,0.6-7.2l-16.1-22.6  c11.9-16.7,20.1-36.1,23.7-57.1l27.3-4.6C419,236.5,421,234.2,421,231.5z"/>
<circle style="fill:#FFD05B;" cx="252.5" cy="218.5" r="105.3"/>
<rect x="242.3" y="296" style="fill:#2B3B4E;" width="20.3" height="54.7"/>
<circle style="fill:#324A5E;" cx="252.4" cy="218.4" r="87.8"/>
<circle style="fill:#84DBFF;" cx="252.5" cy="218.5" r="67.8"/>
<g>
	
		<ellipse transform="matrix(-0.7072 0.707 -0.707 -0.7072 490.7549 162.3762)" style="fill:#FFFFFF;" cx="211.755" cy="182.806" rx="12" ry="6.4"/>
	<path style="fill:#FFFFFF;" d="M275.4,333.6h-46.1c-1.1,0-2,0.9-2,2V453c0,1.1,0.9,2,2,2h46.1c1.1,0,2-0.9,2-2V335.6   C277.4,334.5,276.5,333.6,275.4,333.6z"/>
</g>
<rect x="227.4" y="348.9" style="fill:#324A5E;" width="50.1" height="91.1"/>
<g>
</g>
<g>
</g>
<g>
</g>
<g>
</g>
<g>
</g>
<g>
</g>
<g>
</g>
<g>
</g>
<g>
</g>
<g>
</g>
<g>
</g>
<g>
</g>
<g>
</g>
<g>
</g>
<g>
</g>
</svg>
