<?xml version="1.0" encoding="iso-8859-1"?>
<!-- Generator: Adobe Illustrator 19.0.0, SVG Export Plug-In . SVG Version: 6.00 Build 0)  -->
<svg xmlns="http://www.w3.org/2000/svg" xmlns:xlink="http://www.w3.org/1999/xlink" version="1.1" id="Layer_1" x="0px" y="0px" viewBox="0 0 505 505" style="enable-background:new 0 0 505 505;" xml:space="preserve">
<path style="fill:#FF7058;" d="M505,252.5C505,392,392,505,252.5,505S0,392,0,252.5C0,113.1,113,0,252.5,0  c110.1,0,203.7,70.5,238.3,168.7c7.4,21,12.1,43.3,13.7,66.5C504.8,240.9,505,246.7,505,252.5z"/>
<path style="fill:#324A5E;" d="M421.1,386.6H83.9c-0.9,0-1.6-0.7-1.6-1.6V120.1c0-0.9,0.7-1.6,1.6-1.6h337.3c0.9,0,1.6,0.7,1.6,1.6  V385C422.8,385.8,422,386.6,421.1,386.6z"/>
<rect x="102" y="161.2" style="fill:#FFFFFF;" width="301.1" height="208.1"/>
<g>
	<path style="fill:#E6E9EE;" d="M394.4,149L394.4,149c4.7,0,8.6-3.8,8.6-8.6l0,0c0-4.7-3.8-8.6-8.6-8.6l0,0c-4.7,0-8.6,3.8-8.6,8.6   l0,0C385.9,145.2,389.7,149,394.4,149z"/>
	<path style="fill:#E6E9EE;" d="M365.9,149L365.9,149c4.7,0,8.6-3.8,8.6-8.6l0,0c0-4.7-3.8-8.6-8.6-8.6l0,0c-4.7,0-8.6,3.8-8.6,8.6   l0,0C357.3,145.2,361.2,149,365.9,149z"/>
	<path style="fill:#E6E9EE;" d="M337.3,149L337.3,149c4.7,0,8.6-3.8,8.6-8.6l0,0c0-4.7-3.8-8.6-8.6-8.6l0,0c-4.7,0-8.6,3.8-8.6,8.6   l0,0C328.8,145.2,332.6,149,337.3,149z"/>
</g>
<path style="fill:#54C0EB;" d="M365.9,369.4c5.9-14.3,9.1-29.9,9.1-46.4c0-67.6-54.8-122.5-122.5-122.5S130,255.3,130,323  c0,16.4,3.3,32.1,9.1,46.4H365.9z"/>
<g>
	<path style="fill:#E6E9EE;" d="M263.1,351.7c3.2-0.3,6-2.1,9.1-3c3-1,7-0.9,8.8,1.8c2.2,3,0.3,7.8,2.5,10.9c1,1.4,2.7,2.2,3.3,3.9   c0.5,1.3,0.1,2.8-0.5,4.1h38.6c-0.1-4.2-0.8-8.7,1.4-12.3c1.7-2.8,4.9-4.4,7.5-6.4s4.8-5.4,3.7-8.5c-1.6-4.2-7.6-4-11.9-3   c-1.1,0.2-2.2,0.4-3.3,0c-1-0.5-1.7-1.5-2.3-2.4c-1.6-2.6-3.2-5.2-4.8-7.9c-2.9-4.9-5.8-11.4-2.2-15.8c5.7,1.4,4.9,9.9,8.1,14.7   c3.1,4.6,9.5,5.3,14.9,5.3c2.8,0,5.8-0.1,8.4-1.3c2.6-1.2,4.7-3.8,4.5-6.7c-0.7-8.4-17.4-6.7-18.5-15.1c1.8-2.8,6.2-2,8.8,0.1   c2.5,2.1,4.5,5.1,7.5,6.4c2.6,1.1,5.7,0.8,8.5,1.4c7.1,1.6,11.1,9.4,12.2,16.6c0.8,5.4,0.8,11.5,4.5,15.6c2-8.7,3-17.8,3-27.1   c0-34-13.9-64.8-36.3-87c-1.7,1.7-3.9,2.9-6.3,3.3c-1.5,0.3-3.2,0.3-4.6,0.8c-2,0.7-3.6,2.2-5.3,3.4c-1.7,1.3-3.9,2.3-5.9,1.7   c-2-0.5-3.5-3.4-2-4.9c1.8-2,5.6,0.1,7.7-1.6c1.7-1.3,1-4.2-0.7-5.5s-4-1.4-6.1-1.4c-6.3-0.2-12.6-0.3-18.9-0.5   c-1.4-0.1-2.9-0.1-4.1,0.7c-2.7,1.6-2.4,5.5-3.7,8.3c-1.8,3.6-6.1,5-9.2,7.6s-4.2,8.7-0.4,9.9c1.9,0.6,4.6-0.4,5.7,1.3   c0.6,0.9,0.4,2.1,0.9,3.1c1.1,1.9,4.2,1.2,5.4-0.7c1.1-1.8,1.1-4.2,1.4-6.3c0.7-4.5,3.4-8.7,7.3-11.2c1-0.2,2-0.3,3.1-0.4   c-1.3,3.6-2.6,7.2-4,10.8c0.8,2.1,3.9,1.8,5.8,0.8c2-1,4.2-2.5,6.2-1.6c-5,6-12,10.2-19.7,11.8c-6.8,1.4-14.3,1-19.8,5.2   c-4.1,3.1-6.3,8.7-5.3,13.8c-4.9-0.4-11.5,0.4-12.4,5.3c-0.5,3,1.8,5.8,4.6,7c2.8,1.2,5.9,1.1,8.9,0.9c1.5-0.1,3-0.2,4.2-0.9   c4.2-2.4,3.6-10.5,8.4-11.1c4.6-0.6,6.9,7.3,11.5,7c-1.4-3-3.5-5.8-5.9-8.1c1.4-2.1,4.8-1.6,6.6,0.1c1.9,1.7,2.8,4.2,4.3,6.2   s4.2,3.7,6.5,2.6c1.3-8.5,11.3-14.4,19.4-11.5c1.5,0.6,3.1,1.7,3.1,3.3c0,0.7-0.3,1.4-0.8,2c-2.5,3.2-7.4,2.6-11.4,2.9   s-8.8,4.2-6.7,7.7c4.4,0.3,8.5,2.9,10.8,6.7c-8.7,5.6-20.4,6.4-29.7,1.9c-1.9-0.9-3.9-2.1-4.9-4.1c-0.6-1.2-0.8-2.5-1.5-3.6   c-1.9-2.5-5.8-1.9-8.7-0.7c-8.8,3.5-16.9,9.5-21.6,17.7c-4.6,8.3-5.5,18.9-1,27.3C252.5,347.9,257.5,352.2,263.1,351.7z"/>
	<path style="fill:#E6E9EE;" d="M237.8,217.5c-0.9,3.3,1.7,7.8,5.1,6.9c-5.1,1.8-10.7,2.4-16,1.6c3.3,2.6,6.5,5.2,9.7,7.7   c-2.8,2-6.4,2.6-9.6,3.9c-3.2,1.3-6.4,4.1-6.1,7.5c0.1,1.7,0.9,3.6,0,5c-0.6,0.9-1.7,1.3-2.8,1.6c-3.6,1-7.3,1.8-10.9,1.2   c-3.7-0.6-7.2-3-8.2-6.6c-0.8-3,0.4-6.3,1-9.4c0.7-3.1,0.6-6.8-1.9-8.7c-1.3-1-3-1.3-4.6-1.7c-3.4-0.9-6.7-2.7-8.7-5.5   c18.7-12.5,41.1-19.9,65.2-20.4c-1.5,3.3-3.5,6.2-5.9,8.8C241.6,211.9,238.7,214.2,237.8,217.5z"/>
	<path style="fill:#E6E9EE;" d="M193.4,275.3c-2.8,0.9-5.8-0.1-8.7,0.2c-3.7,0.4-7.1,2.9-8.5,6.4c2.5,0.4,5.1,0.8,7.6,1.2   c-5.5,2.7-11,5.5-16.5,8.3c-0.5,0.2-1,0.5-1.3,0.9c-2,2.6,4.5,6.3,2.3,8.7c-0.5,0.6-1.3,0.8-1.9,1.1c-4,1.9-3.4,7.7-2.1,12   c-2.8,1.1-6,0.2-8.8-1.1c-2.7-1.3-5.4-2.9-8.5-3.2c-3-0.3-6.5,1.6-6.8,4.6c-0.2,2.2,1.2,4.2,2.6,5.9c2.3,2.9,4.9,6,8.4,7   c2.6,0.8,5.5,0.4,8,1.4s4.2,4.7,2.1,6.4c-4.4,3.5-10.8,3.7-16.1,1.7c-5.3-1.9-9.8-5.5-14-9.2l-1.2-1.1c-0.1-1.2-0.1-2.3-0.1-3.5   c0-23.1,6.4-44.7,17.5-63.2c2.2,2.3,4.1,5.1,7.2,5.6c1.3,0.3,2.8,0,4,0.7c1.5,1,1.7,3,2.5,4.6s3.3,2.7,4.1,1.1   c0.2-4.4,0.4-8.8,0.6-13.3c0.2-2.9,0.6-6.4,3.1-7.9c2.1-1.3,5-0.5,6.8,1.2c1.7,1.8,2.5,4.3,2.7,6.8c2.2-0.4,4.5-0.7,6.7-0.3   c2.2,0.5,4.3,2,4.8,4.3c0.3,1.4-0.1,3.1,1,4.2c1.1,1.3,3.4,0.9,4.8,1.8C198.2,270.4,196.2,274.5,193.4,275.3z"/>
	<path style="fill:#E6E9EE;" d="M223.4,369.4c0.2-2.6-0.8-5.3-3.2-5.9c-1.3-0.3-2.6,0.1-3.8-0.4c-1.3-0.4-2.2-1.6-3.3-2.4   c-2.6-2-6.5-2.1-9.2-0.3c-0.9,0.6-1.8,1.5-2.9,1.3c-2.2-0.3-1.8-3.5-1.4-5.7c1.2-6.4-3.2-12.9-9-15.6c-5.9-2.7-12.8-2.4-19.1-0.8   c-1.2,0.3-2.3,0.7-3.2,1.5s-1.2,2-1.5,3.2c-2.1,8.2-3,16.6-2.7,25h59.3V369.4z"/>
</g>
<g>
</g>
<g>
</g>
<g>
</g>
<g>
</g>
<g>
</g>
<g>
</g>
<g>
</g>
<g>
</g>
<g>
</g>
<g>
</g>
<g>
</g>
<g>
</g>
<g>
</g>
<g>
</g>
<g>
</g>
</svg>
