<?xml version="1.0" encoding="iso-8859-1"?>
<!-- Generator: Adobe Illustrator 19.0.0, SVG Export Plug-In . SVG Version: 6.00 Build 0)  -->
<svg xmlns="http://www.w3.org/2000/svg" xmlns:xlink="http://www.w3.org/1999/xlink" version="1.1" id="Layer_1" x="0px" y="0px" viewBox="0 0 505 505" style="enable-background:new 0 0 505 505;" xml:space="preserve">
<circle style="fill:#FD8469;" cx="252.5" cy="252.5" r="252.5"/>
<g>
	<path style="fill:#FFFFFF;" d="M129.5,407.1l7.8,1.3c3.1,0.5,6.3-0.5,8.6-2.7l21.2-21.2c1.7-1.7,2.4-4.1,1.9-6.4l-0.7-3.7   c-0.6-3.1,2.1-5.9,5.3-5.3l3.7,0.7c2.3,0.5,4.7-0.3,6.4-1.9l2.3-2.3c1.7-1.7,2.4-4.1,1.9-6.4l-1.7-8.4c-0.6-3.1,2.1-5.9,5.3-5.3   l8.5,1.7c2.3,0.5,4.7-0.3,6.4-1.9l7.6-7.6c1.7-1.7,2.4-4.1,1.9-6.4l-1.7-8.5c-0.6-3.1,2.1-5.9,5.3-5.3l8.4,1.7   c2.3,0.5,4.7-0.3,6.4-1.9l69.3-69.3l-46.5-46.5l-158,158c-3.3,3.3-3.8,8.4-1.2,12.3l16.9,25.7C118.1,402.6,123.5,406.1,129.5,407.1   z"/>
	<circle style="fill:#FFFFFF;" cx="316.6" cy="188.5" r="92.1"/>
</g>
<circle style="fill:#FD8469;" cx="352.2" cy="152.9" r="16.1"/>
<rect x="111.503" y="307.564" transform="matrix(0.7071 -0.7071 0.7071 0.7071 -169.5561 213.8835)" style="fill:#E6E9EE;" width="123.799" height="8.1"/>
<g>
</g>
<g>
</g>
<g>
</g>
<g>
</g>
<g>
</g>
<g>
</g>
<g>
</g>
<g>
</g>
<g>
</g>
<g>
</g>
<g>
</g>
<g>
</g>
<g>
</g>
<g>
</g>
<g>
</g>
</svg>
