<?xml version="1.0" encoding="iso-8859-1"?>
<!-- Generator: Adobe Illustrator 19.0.0, SVG Export Plug-In . SVG Version: 6.00 Build 0)  -->
<svg xmlns="http://www.w3.org/2000/svg" xmlns:xlink="http://www.w3.org/1999/xlink" version="1.1" id="Layer_1" x="0px" y="0px" viewBox="0 0 505 505" style="enable-background:new 0 0 505 505;" xml:space="preserve">
<circle style="fill:#90DFAA;" cx="252.5" cy="252.5" r="252.5"/>
<g>
	<rect x="242.2" y="348.9" style="fill:#324A5E;" width="20.5" height="78.2"/>
	<rect x="158.6" y="417" style="fill:#324A5E;" width="187.7" height="20.2"/>
	<rect x="131.7" y="130.2" style="fill:#324A5E;" width="241.7" height="189.5"/>
</g>
<g>
	<path style="fill:#FFFFFF;" d="M397.5,167.6h-290c-2,0-3.6-1.6-3.6-3.6V96.5c0-2,1.6-3.6,3.6-3.6h290c2,0,3.6,1.6,3.6,3.6V164   C401.2,166,399.5,167.6,397.5,167.6z"/>
	<path style="fill:#FFFFFF;" d="M397.5,262.3h-290c-2,0-3.6-1.6-3.6-3.6v-67.5c0-2,1.6-3.6,3.6-3.6h290c2,0,3.6,1.6,3.6,3.6v67.5   C401.2,260.7,399.5,262.3,397.5,262.3z"/>
	<path style="fill:#FFFFFF;" d="M397.5,357.1h-290c-2,0-3.6-1.6-3.6-3.6V286c0-2,1.6-3.6,3.6-3.6h290c2,0,3.6,1.6,3.6,3.6v67.5   C401.2,355.5,399.5,357.1,397.5,357.1z"/>
</g>
<circle style="fill:#FFD05B;" cx="139.8" cy="130.2" r="13.4"/>
<circle style="fill:#FF7058;" cx="179.1" cy="130.2" r="13.4"/>
<circle style="fill:#84DBFF;" cx="218.5" cy="130.2" r="13.4"/>
<circle style="fill:#FFD05B;" cx="139.8" cy="225" r="13.4"/>
<circle style="fill:#FF7058;" cx="179.1" cy="225" r="13.4"/>
<circle style="fill:#84DBFF;" cx="218.5" cy="225" r="13.4"/>
<circle style="fill:#FFD05B;" cx="139.8" cy="319.7" r="13.4"/>
<circle style="fill:#FF7058;" cx="179.1" cy="319.7" r="13.4"/>
<circle style="fill:#84DBFF;" cx="218.5" cy="319.7" r="13.4"/>
<rect x="220.8" y="411.9" style="fill:#E6E9EE;" width="63.4" height="31.8"/>
<g>
</g>
<g>
</g>
<g>
</g>
<g>
</g>
<g>
</g>
<g>
</g>
<g>
</g>
<g>
</g>
<g>
</g>
<g>
</g>
<g>
</g>
<g>
</g>
<g>
</g>
<g>
</g>
<g>
</g>
</svg>
