<?xml version="1.0" encoding="iso-8859-1"?>
<!-- Generator: Adobe Illustrator 19.0.0, SVG Export Plug-In . SVG Version: 6.00 Build 0)  -->
<svg xmlns="http://www.w3.org/2000/svg" xmlns:xlink="http://www.w3.org/1999/xlink" version="1.1" id="Layer_1" x="0px" y="0px" viewBox="0 0 505 505" style="enable-background:new 0 0 505 505;" xml:space="preserve">
<circle style="fill:#54C0EB;" cx="252.5" cy="252.5" r="252.5"/>
<path style="fill:#324A5E;" d="M425.4,390H79.6c-0.9,0-1.7-0.7-1.7-1.7V116.7c0-0.9,0.7-1.7,1.7-1.7h345.9c0.9,0,1.7,0.7,1.7,1.7  v271.7C427.1,389.2,426.4,390,425.4,390z"/>
<rect x="98.1" y="158.9" style="fill:#FFFFFF;" width="308.7" height="213.4"/>
<rect x="98.1" y="158.9" style="fill:#84DBFF;" width="308.7" height="37.7"/>
<g>
	<path style="fill:#E6E9EE;" d="M396.3,145.6L396.3,145.6c5.9,0,10.6-4.8,10.6-10.6l0,0c0-5.9-4.8-10.6-10.6-10.6l0,0   c-5.9,0-10.6,4.8-10.6,10.6l0,0C385.6,140.8,390.4,145.6,396.3,145.6z"/>
	<path style="fill:#E6E9EE;" d="M368.1,145.6L368.1,145.6c5.9,0,10.6-4.8,10.6-10.6l0,0c0-5.9-4.8-10.6-10.6-10.6l0,0   c-5.9,0-10.6,4.8-10.6,10.6l0,0C357.5,140.8,362.2,145.6,368.1,145.6z"/>
	<path style="fill:#E6E9EE;" d="M340,145.6L340,145.6c5.9,0,10.6-4.8,10.6-10.6l0,0c0-5.9-4.8-10.6-10.6-10.6l0,0   c-5.9,0-10.6,4.8-10.6,10.6l0,0C329.4,140.8,334.1,145.6,340,145.6z"/>
</g>
<path style="fill:#FFFFFF;" d="M298.8,188.3h-181c-5.8,0-10.6-4.7-10.6-10.6l0,0c0-5.8,4.7-10.6,10.6-10.6h181  c5.8,0,10.6,4.7,10.6,10.6l0,0C309.4,183.6,304.7,188.3,298.8,188.3z"/>
<g>
	<path style="fill:#FF7058;" d="M130.6,296.2c-1.6-1.6-2.4-3.6-2.4-5.9s0.8-4.3,2.4-5.9c1.6-1.6,3.6-2.4,5.9-2.4   c2.3,0,4.3,0.8,5.9,2.4c1.6,1.6,2.4,3.6,2.4,5.9s-0.8,4.3-2.4,5.9c-1.6,1.6-3.6,2.4-5.9,2.4C134.2,298.6,132.2,297.8,130.6,296.2z"/>
	<path style="fill:#FF7058;" d="M189.4,286c4.7,0,9-2.4,12.7-7.1l8.4,9.4c-6.5,6.8-13.6,10.2-21.2,10.2c-7.6,0-14-2.4-19.3-7.2   c-5.2-4.8-7.9-11.1-7.9-18.9s2.7-14.1,8-19s11.6-7.3,18.9-7.3c3.6,0,7.3,0.8,11.1,2.3c3.7,1.5,7,3.7,9.9,6.7l-7.4,9.6   c-1.6-1.9-3.6-3.5-6-4.5c-2.4-1.1-4.7-1.6-7-1.6c-3.7,0-6.9,1.2-9.6,3.6c-2.7,2.4-4,5.8-4,10.1c0,4.3,1.3,7.7,4,10   C182.7,284.8,185.8,286,189.4,286z"/>
	<path style="fill:#FF7058;" d="M278.1,272.5c0,7.4-2.5,13.5-7.6,18.6c-5.1,5-11.5,7.5-19.2,7.5s-14.1-2.5-19.2-7.5   c-5.1-5-7.6-11.2-7.6-18.6s2.5-13.6,7.6-18.6c5.1-5.1,11.5-7.6,19.2-7.6s14.1,2.5,19.2,7.6C275.6,258.9,278.1,265.1,278.1,272.5z    M238.7,272.5c0,4.1,1.2,7.5,3.5,10.1c2.4,2.6,5.4,3.9,9.1,3.9c3.7,0,6.7-1.3,9.1-3.9s3.5-6,3.5-10.1s-1.2-7.5-3.5-10.2   c-2.4-2.6-5.4-4-9.1-4c-3.7,0-6.7,1.3-9.1,4C239.9,264.9,238.7,268.3,238.7,272.5z"/>
	<path style="fill:#FF7058;" d="M343.5,270.5v27.3h-14.2v-27.7c0-4-0.6-7-1.8-8.9c-1.2-1.9-3.2-2.8-5.9-2.8c-2.7,0-5.2,1-7.3,3.1   c-2.1,2-3.2,5-3.2,9v27.3H297v-50.7h14.1v5.8c3.9-4.4,8.4-6.6,13.4-6.6c3.2,0,6.1,0.9,8.7,2.8c2.6,1.9,4.6,4.2,5.9,6.9   c1.9-3.1,4.6-5.5,7.9-7.2s6.6-2.5,9.9-2.5c6,0,10.8,1.8,14.4,5.3c3.6,3.6,5.5,8.7,5.5,15.4v30.8h-14.3v-27.7   c0-7.8-2.9-11.7-8.6-11.7c-2.8,0-5.3,1-7.4,3.1C344.5,263.5,343.5,266.5,343.5,270.5z"/>
</g>
<g>
</g>
<g>
</g>
<g>
</g>
<g>
</g>
<g>
</g>
<g>
</g>
<g>
</g>
<g>
</g>
<g>
</g>
<g>
</g>
<g>
</g>
<g>
</g>
<g>
</g>
<g>
</g>
<g>
</g>
</svg>
