<?xml version="1.0" encoding="iso-8859-1"?>
<!-- Generator: Adobe Illustrator 19.0.0, SVG Export Plug-In . SVG Version: 6.00 Build 0)  -->
<svg xmlns="http://www.w3.org/2000/svg" xmlns:xlink="http://www.w3.org/1999/xlink" version="1.1" id="Layer_1" x="0px" y="0px" viewBox="0 0 505 505" style="enable-background:new 0 0 505 505;" xml:space="preserve">
<circle style="fill:#84DBFF;" cx="252.5" cy="252.5" r="252.5"/>
<path style="fill:#324A5E;" d="M421.1,386.6H83.9c-0.9,0-1.6-0.7-1.6-1.6V120.1c0-0.9,0.7-1.6,1.6-1.6h337.3c0.9,0,1.6,0.7,1.6,1.6  V385C422.8,385.8,422,386.6,421.1,386.6z"/>
<rect x="102" y="161.2" style="fill:#FFFFFF;" width="301.1" height="208.1"/>
<g>
	<path style="fill:#E6E9EE;" d="M394.4,149L394.4,149c4.7,0,8.6-3.8,8.6-8.6l0,0c0-4.7-3.8-8.6-8.6-8.6l0,0c-4.7,0-8.6,3.8-8.6,8.6   l0,0C385.9,145.2,389.7,149,394.4,149z"/>
	<path style="fill:#E6E9EE;" d="M365.9,149L365.9,149c4.7,0,8.6-3.8,8.6-8.6l0,0c0-4.7-3.8-8.6-8.6-8.6l0,0c-4.7,0-8.6,3.8-8.6,8.6   l0,0C357.3,145.2,361.2,149,365.9,149z"/>
	<path style="fill:#E6E9EE;" d="M337.3,149L337.3,149c4.7,0,8.6-3.8,8.6-8.6l0,0c0-4.7-3.8-8.6-8.6-8.6l0,0c-4.7,0-8.6,3.8-8.6,8.6   l0,0C328.8,145.2,332.6,149,337.3,149z"/>
</g>
<path style="fill:#FF7058;" d="M175.7,363.2l-3.2,6.2h32.4c-11.3-11.8-18.3-27.8-18.3-45.5c0-36.4,29.5-65.8,65.8-65.8  c36.4,0,65.8,29.5,65.8,65.8c0,17.6-7,33.6-18.3,45.5h32.6l-3.2-6.2c2.1-4.1,3.9-8.4,5.3-12.8l19.1-6.2v-40.7l-19.1-6.2  c-1.4-4.4-3.2-8.7-5.3-12.8l9.1-17.9l-28.8-28.8l-17.9,9.1c-4.1-2.1-8.4-3.9-12.8-5.3l-6.2-19.1H232l-6.2,19.1  c-4.4,1.4-8.7,3.2-12.8,5.3l-17.9-9.1l-28.8,28.8l9.1,17.9c-2.1,4.1-3.9,8.4-5.3,12.8l-19.1,6.2v40.7l19.1,6.2  C171.8,354.8,173.6,359.1,175.7,363.2z"/>
<g>
</g>
<g>
</g>
<g>
</g>
<g>
</g>
<g>
</g>
<g>
</g>
<g>
</g>
<g>
</g>
<g>
</g>
<g>
</g>
<g>
</g>
<g>
</g>
<g>
</g>
<g>
</g>
<g>
</g>
</svg>
