<?xml version="1.0" encoding="iso-8859-1"?>
<!-- Generator: Adobe Illustrator 19.0.0, SVG Export Plug-In . SVG Version: 6.00 Build 0)  -->
<svg xmlns="http://www.w3.org/2000/svg" xmlns:xlink="http://www.w3.org/1999/xlink" version="1.1" id="Layer_1" x="0px" y="0px" viewBox="0 0 505 505" style="enable-background:new 0 0 505 505;" xml:space="preserve">
<circle style="fill:#FFD05B;" cx="252.5" cy="252.5" r="252.5"/>
<path style="fill:#F9B54C;" d="M76.5,433.4c45.5,44.3,107.6,71.6,176,71.6c68.5,0,130.6-27.3,176-71.6H76.5z"/>
<polygon style="fill:#324A5E;" points="293.5,353.2 211.5,353.2 199.7,408.9 305.3,408.9 "/>
<g>
	<polygon style="fill:#2B3B4E;" points="298,374.6 293.5,353.2 211.5,353.2 207,374.6  "/>
	<path style="fill:#2B3B4E;" d="M315.6,408.9H189.4c-6.5,0-11.9,5.3-11.9,11.9l0,0c0,6.5,5.3,11.9,11.9,11.9h126.2   c6.5,0,11.9-5.3,11.9-11.9l0,0C327.5,414.2,322.1,408.9,315.6,408.9z"/>
</g>
<path style="fill:#FFFFFF;" d="M417.6,325.3V131.9c0-9.5-7.7-17.1-17.1-17.1H104.6c-9.5,0-17.1,7.7-17.1,17.1v193.4H417.6z"/>
<path style="fill:#324A5E;" d="M87.4,314.3v26c0,9.5,7.7,17.1,17.1,17.1h295.9c9.5,0,17.1-7.7,17.1-17.1v-26H87.4z"/>
<rect x="106.6" y="133.9" style="fill:#84DBFF;" width="291.9" height="161"/>
<circle style="fill:#2B3B4E;" cx="252.5" cy="333.4" r="10.8"/>
<path style="fill:#FF7058;" d="M313.7,149.8c0,33.8-61.2,113.2-61.2,113.2s-61.2-79.4-61.2-113.2s27.4-61.2,61.2-61.2  S313.7,116,313.7,149.8z"/>
<circle style="fill:#FFFFFF;" cx="252.5" cy="149.8" r="38.6"/>
<g>
</g>
<g>
</g>
<g>
</g>
<g>
</g>
<g>
</g>
<g>
</g>
<g>
</g>
<g>
</g>
<g>
</g>
<g>
</g>
<g>
</g>
<g>
</g>
<g>
</g>
<g>
</g>
<g>
</g>
</svg>
