<?xml version="1.0" encoding="iso-8859-1"?>
<!-- Generator: Adobe Illustrator 19.0.0, SVG Export Plug-In . SVG Version: 6.00 Build 0)  -->
<svg xmlns="http://www.w3.org/2000/svg" xmlns:xlink="http://www.w3.org/1999/xlink" version="1.1" id="Layer_1" x="0px" y="0px" viewBox="0 0 505 505" style="enable-background:new 0 0 505 505;" xml:space="preserve">
<path style="fill:#324A5E;" d="M0,252.5C0,113,113,0,252.5,0S505,113,505,252.5S392,505,252.5,505S0,392,0,252.5z"/>
<rect x="204.4" y="398.1" style="fill:#F9B54C;" width="96.2" height="7.1"/>
<path style="fill:#FFD05B;" d="M289.1,358h-73.2v65.2c0,1.6,1.3,2.9,2.9,2.9h67.3c1.6,0,2.9-1.3,2.9-2.9V358H289.1z"/>
<path style="fill:#FFFFFF;" d="M361.3,187.6c0-61.5-51.1-111.1-113.2-108.7c-56.6,2.3-102.5,48.6-104.3,105.2  c-1,31.3,11.2,59.8,31.5,80.2c17.8,17.9,28.2,41.9,28.2,67.1v35.2c0,7.9,6.4,14.4,14.4,14.4H287c7.9,0,14.4-6.4,14.4-14.4v-35.2  c0-24.8,9.6-48.8,27.3-66.2C348.8,245.5,361.3,218,361.3,187.6z"/>
<g>
	<path style="fill:#4CDBC4;" d="M271.3,172.3c0,28.9-8.4,61.5-18.8,61.5c-10.4,0-18.8-32.7-18.8-61.5s8.4-43,18.8-43   S271.3,143.4,271.3,172.3z"/>
	<circle style="fill:#4CDBC4;" cx="252.5" cy="259.6" r="12.5"/>
</g>
<g>
</g>
<g>
</g>
<g>
</g>
<g>
</g>
<g>
</g>
<g>
</g>
<g>
</g>
<g>
</g>
<g>
</g>
<g>
</g>
<g>
</g>
<g>
</g>
<g>
</g>
<g>
</g>
<g>
</g>
</svg>
