<?xml version="1.0" encoding="iso-8859-1"?>
<!-- Generator: Adobe Illustrator 19.0.0, SVG Export Plug-In . SVG Version: 6.00 Build 0)  -->
<svg xmlns="http://www.w3.org/2000/svg" xmlns:xlink="http://www.w3.org/1999/xlink" version="1.1" id="Layer_1" x="0px" y="0px" viewBox="0 0 505 505" style="enable-background:new 0 0 505 505;" xml:space="preserve">
<path style="fill:#54C0EB;" d="M0,252.5C0,113,113,0,252.5,0C391.9,0,505,113,505,252.5S391.9,505,252.5,505C113,505,0,392,0,252.5z  "/>
<g>
	<path style="fill:#FFFFFF;" d="M315.3,200.2c-17.6,7.8-39.3,12.4-62.8,12.4s-45.3-4.6-62.8-12.4C190,165.8,218,138,252.5,138   C287,137.9,315,165.7,315.3,200.2z"/>
	<path style="fill:#FFFFFF;" d="M275.7,87.5c0,17.4-10.4,37.8-23.2,37.8c-12.8,0-23.2-20.4-23.2-37.8s10.4-25.3,23.2-25.3   C265.3,62.2,275.7,70.1,275.7,87.5z"/>
	<path style="fill:#FFFFFF;" d="M415.2,373c-17.6,7.8-39.3,12.4-62.8,12.4s-45.3-4.6-62.8-12.4c0.3-34.4,28.3-62.2,62.8-62.2   C386.9,310.7,414.9,338.5,415.2,373z"/>
	<path style="fill:#FFFFFF;" d="M375.6,260.3c0,17.4-10.4,37.8-23.2,37.8c-12.8,0-23.2-20.4-23.2-37.8s10.4-25.3,23.2-25.3   C365.2,235,375.6,242.9,375.6,260.3z"/>
	<path style="fill:#FFFFFF;" d="M215.4,373c-17.6,7.8-39.3,12.4-62.8,12.4s-45.3-4.6-62.8-12.4c0.3-34.4,28.3-62.2,62.8-62.2   C187.1,310.7,215.1,338.5,215.4,373z"/>
	<path style="fill:#FFFFFF;" d="M175.8,260.3c0,17.4-10.4,37.8-23.2,37.8s-23.2-20.4-23.2-37.8s10.4-25.3,23.2-25.3   C165.4,235,175.8,242.9,175.8,260.3z"/>
</g>
<path style="fill:#324A5E;" d="M292.8,302.6l-35.2-30.3v-39.2c0-4.4-3.5-7.9-7.9-7.9s-7.9,3.5-7.9,7.9v39.2l-35.2,30.3  c-3.3,2.8-3.7,7.8-0.8,11.1c2.9,3.3,7.8,3.7,11.1,0.8l32.7-28.3l32.7,28.3c1.5,1.3,3.3,1.9,5.2,1.9c2.2,0,4.4-0.9,6-2.7  C296.5,310.5,296.1,305.5,292.8,302.6z"/>
<g>
</g>
<g>
</g>
<g>
</g>
<g>
</g>
<g>
</g>
<g>
</g>
<g>
</g>
<g>
</g>
<g>
</g>
<g>
</g>
<g>
</g>
<g>
</g>
<g>
</g>
<g>
</g>
<g>
</g>
</svg>
