<?xml version="1.0" encoding="iso-8859-1"?>
<!-- Generator: Adobe Illustrator 19.0.0, SVG Export Plug-In . SVG Version: 6.00 Build 0)  -->
<svg xmlns="http://www.w3.org/2000/svg" xmlns:xlink="http://www.w3.org/1999/xlink" version="1.1" id="Layer_1" x="0px" y="0px" viewBox="0 0 505 505" style="enable-background:new 0 0 505 505;" xml:space="preserve">
<circle style="fill:#FFD05B;" cx="252.5" cy="252.5" r="252.5"/>
<path style="fill:#FFFFFF;" d="M426.5,369.6h-348c-1.2,0-2.2-1-2.2-2.2V152.7c0-1.2,1-2.2,2.2-2.2h348c1.2,0,2.2,1,2.2,2.2v214.7  C428.7,368.6,427.8,369.6,426.5,369.6z"/>
<path style="fill:#54C0EB;" d="M211.4,339.9h-106c-1.4,0-2.5-1.1-2.5-2.5V211.5c0-1.4,1.1-2.5,2.5-2.5h106c1.4,0,2.5,1.1,2.5,2.5  v125.9C213.9,338.8,212.8,339.9,211.4,339.9z"/>
<path style="fill:#E6E9EE;" d="M149.5,339.3c0.6,0.3,1.2,0.4,1.8,0.6h8.6c0.6-0.1,1.2-0.2,1.8-0.4c2.3-0.7,4.3-1.9,6.2-3.3  c2.2-1.5,4.3-3.2,6.3-5c1.8-1.6,3.5-3.5,4.5-5.7c1.6-3.9,0.5-8.4-0.7-12.5c-0.7-2.4-1.4-4.8-2.1-7.2c-0.6-2-1.2-4.1-2.1-6  c-2.2-4.6-6.1-8.2-10.5-10.8c-1.4-0.8-2.9-1.6-4.4-1.9c-1.7-0.4-3.5-0.3-5.2,0c-4.3,0.8-8.6,3.4-9.7,7.6c-0.4,1.4-0.4,2.8-0.4,4.2  c0,7.7,0,15.4-0.1,23.1c0,5,0.1,10.4,2.9,14.5C147.3,337.7,148.3,338.7,149.5,339.3z"/>
<path style="fill:#F9B54C;" d="M158.4,263.1c-5.8,0-10.6,11.5-10.6,18.9c0,4.3,1.6,8.2,4.2,10.7c0.3,0,0.8-0.1,0.9-0.1  c0.5,0,1,0.1,1.5,0.2c0.4,0.1,0.9,0.3,1.3,0.5c0.1,0.1,0.4,0.2,0.6,0.4c0.1,0,0.2,0.1,0.3,0.1c0.3,0.1,0.6,0.3,0.8,0.5  s0.4,0.3,0.6,0.5c0.1,0.1,0.2,0.2,0.4,0.3l0,0c0.3-0.2,0.7-0.5,1-0.7c0.2-0.1,0.4-0.2,0.6-0.3c0.3-0.1,0.5-0.2,0.6-0.3  c0.1-0.2,1.4-0.6,1.5-0.7c0.8-0.3,1.5-0.2,2.3-0.1h0.1c2.8-2.4,4.6-6.5,4.6-11.1C169,274.6,164.2,263.1,158.4,263.1z"/>
<path style="fill:#324A5E;" d="M126.1,339.9l4.1-25.3l-10.6-17.2c0,0-5.7,9.3-8.3,42.5H126.1z"/>
<path style="fill:#2B3B4E;" d="M126,339.9h33.3c-4-11.4-12.6-31.8-12.6-31.8l-2.3-14.7l0.2-3.6c0,0-21.6,3.8-24.9,7.6  C119.6,297.4,127.7,317.3,126,339.9z"/>
<path style="fill:#324A5E;" d="M138,302.6c4.9,23.7,16,34.1,20.1,37.3h1c-5.3-11.5-12.3-56.1-12.3-56.1c-7.4,4.1-11,11.7-11,11.7  l6.7,5.6L138,302.6z"/>
<path style="fill:#FFFFFF;" d="M158.4,295c0,0-7.7-5.2-11.1,4.6c0,0-1.7-16.6,0.8-19.7C148,279.9,150.5,288.4,158.4,295z"/>
<path style="fill:#2B3B4E;" d="M205.5,339.9c-2.6-33.3-8.3-42.5-8.3-42.5l-10.7,17.2l4.1,25.3H205.5z"/>
<path style="fill:#324A5E;" d="M157.5,339.9h33.3c-1.7-22.6,6.4-42.5,6.4-42.5c-3.3-3.9-24.9-7.6-24.9-7.6l0.2,3.6l-2.3,14.7  C170.1,308.1,161.5,328.5,157.5,339.9z"/>
<path style="fill:#2B3B4E;" d="M158.7,339.9c4.1-3.2,15.2-13.6,20.1-37.3l-4.6-1.6l6.7-5.6c0,0-3.5-7.5-11-11.7  c0,0-6.9,44.6-12.3,56.1h1.1V339.9z"/>
<path style="fill:#FFFFFF;" d="M158.4,295c0,0,7.7-5.2,11.1,4.6c0,0,1.7-16.6-0.8-19.7C168.8,279.9,166.3,288.4,158.4,295z"/>
<g>
	<path style="fill:#F9B54C;" d="M179.4,259.1c-1.4,3.5-5,7.3-7.1,6.6c-2.2-0.6-2.2-5.4-0.8-8.9s3.8-4.5,6-3.9   C179.7,253.5,180.8,255.5,179.4,259.1z"/>
	<path style="fill:#F9B54C;" d="M137.4,259.1c1.4,3.5,5,7.3,7.1,6.6c2.2-0.6,2.2-5.4,0.8-8.9s-3.8-4.5-6-3.9   C137.1,253.5,136,255.5,137.4,259.1z"/>
</g>
<g>
	<ellipse style="fill:#FFD05B;" cx="158.4" cy="259.3" rx="17.1" ry="22.1"/>
	<path style="fill:#FFD05B;" d="M167.2,252.5l-3.3-13.3c0,0,4.3-5.2,5.5-5s7.7,7.1,7.7,7.1v9.9v4.1l-1.8,3.6l-7.1-3.1L167.2,252.5z"/>
	<polygon style="fill:#FFD05B;" points="154.4,240.7 143.7,238.7 140.1,242.2 139.4,250.1 141.5,258.7 155.2,255  "/>
</g>
<path style="fill:#324A5E;" d="M155.6,227.8c0,0,5.5-9.1,15.7,0c0,0-2.8-0.4-4.2,0c0,0,17,1.1,12.6,20.8c0,0,0.2,5.4-4.4,10.4  c0,0,5.3-22.5-8.6-17c0,0-9,5.1-15.5-0.2c0,0-12.4-3.6-9.7,17c0,0-14.5-26,1.5-29.3c0,0,4.2-9.1,19.4-6.7  C162.5,222.7,157.1,222.7,155.6,227.8z"/>
<g>
	<rect x="240.6" y="209" style="fill:#E6E9EE;" width="161.5" height="14"/>
	<rect x="240.6" y="240.9" style="fill:#E6E9EE;" width="161.5" height="14"/>
	<rect x="240.6" y="272.8" style="fill:#E6E9EE;" width="161.5" height="14"/>
	<rect x="240.6" y="304.7" style="fill:#E6E9EE;" width="110.4" height="14"/>
</g>
<rect x="214.7" y="166.8" style="fill:#FFD05B;" width="75.6" height="13.9"/>
<rect x="225" y="100.4" style="fill:#FF7058;" width="55" height="73.3"/>
<g>
</g>
<g>
</g>
<g>
</g>
<g>
</g>
<g>
</g>
<g>
</g>
<g>
</g>
<g>
</g>
<g>
</g>
<g>
</g>
<g>
</g>
<g>
</g>
<g>
</g>
<g>
</g>
<g>
</g>
</svg>
