<?xml version="1.0" encoding="iso-8859-1"?>
<!-- Generator: Adobe Illustrator 19.0.0, SVG Export Plug-In . SVG Version: 6.00 Build 0)  -->
<svg xmlns="http://www.w3.org/2000/svg" xmlns:xlink="http://www.w3.org/1999/xlink" version="1.1" id="Layer_1" x="0px" y="0px" viewBox="0 0 505 505" style="enable-background:new 0 0 505 505;" xml:space="preserve">
<circle style="fill:#324A5E;" cx="252.5" cy="252.5" r="252.5"/>
<path style="fill:#ACB3BA;" d="M194.4,145.7L194.4,145.7c-8.9,0-16.2-7.2-16.2-16.2V84c0-8.9,7.2-16.2,16.2-16.2l0,0  c8.9,0,16.2,7.2,16.2,16.2v45.5C210.6,138.5,203.4,145.7,194.4,145.7z"/>
<path style="fill:#FFFFFF;" d="M359.3,428.4H145.7c-1.8,0-3.2-1.4-3.2-3.2V115.6c0-1.8,1.4-3.2,3.2-3.2h213.5c1.8,0,3.2,1.4,3.2,3.2  v309.6C362.4,427,361,428.4,359.3,428.4z"/>
<rect x="166.2" y="136.1" style="fill:#84DBFF;" width="172.5" height="116.4"/>
<g>
	<path style="fill:#ACB3BA;" d="M202.1,296h-24.7c-6.2,0-11.2-5-11.2-11.2l0,0c0-6.2,5-11.2,11.2-11.2h24.7c6.2,0,11.2,5,11.2,11.2   l0,0C213.3,291,208.3,296,202.1,296z"/>
	<path style="fill:#ACB3BA;" d="M264.8,296h-24.7c-6.2,0-11.2-5-11.2-11.2l0,0c0-6.2,5-11.2,11.2-11.2h24.7c6.2,0,11.2,5,11.2,11.2   l0,0C276.1,291,271,296,264.8,296z"/>
	<path style="fill:#ACB3BA;" d="M327.6,296h-24.7c-6.2,0-11.2-5-11.2-11.2l0,0c0-6.2,5-11.2,11.2-11.2h24.7c6.2,0,11.2,5,11.2,11.2   l0,0C338.8,291,333.7,296,327.6,296z"/>
	<path style="fill:#ACB3BA;" d="M202.1,330.8h-24.7c-6.2,0-11.2-5-11.2-11.2l0,0c0-6.2,5-11.2,11.2-11.2h24.7   c6.2,0,11.2,5,11.2,11.2l0,0C213.3,325.7,208.3,330.8,202.1,330.8z"/>
	<path style="fill:#ACB3BA;" d="M264.8,330.8h-24.7c-6.2,0-11.2-5-11.2-11.2l0,0c0-6.2,5-11.2,11.2-11.2h24.7   c6.2,0,11.2,5,11.2,11.2l0,0C276.1,325.7,271,330.8,264.8,330.8z"/>
	<path style="fill:#ACB3BA;" d="M327.6,330.8h-24.7c-6.2,0-11.2-5-11.2-11.2l0,0c0-6.2,5-11.2,11.2-11.2h24.7   c6.2,0,11.2,5,11.2,11.2l0,0C338.8,325.7,333.7,330.8,327.6,330.8z"/>
	<path style="fill:#ACB3BA;" d="M202.1,365.5h-24.7c-6.2,0-11.2-5-11.2-11.2l0,0c0-6.2,5-11.2,11.2-11.2h24.7   c6.2,0,11.2,5,11.2,11.2l0,0C213.3,360.5,208.3,365.5,202.1,365.5z"/>
	<path style="fill:#ACB3BA;" d="M264.8,365.5h-24.7c-6.2,0-11.2-5-11.2-11.2l0,0c0-6.2,5-11.2,11.2-11.2h24.7   c6.2,0,11.2,5,11.2,11.2l0,0C276.1,360.5,271,365.5,264.8,365.5z"/>
	<path style="fill:#ACB3BA;" d="M327.6,365.5h-24.7c-6.2,0-11.2-5-11.2-11.2l0,0c0-6.2,5-11.2,11.2-11.2h24.7   c6.2,0,11.2,5,11.2,11.2l0,0C338.8,360.5,333.7,365.5,327.6,365.5z"/>
	<path style="fill:#ACB3BA;" d="M202.1,400.2h-24.7c-6.2,0-11.2-5-11.2-11.2l0,0c0-6.2,5-11.2,11.2-11.2h24.7   c6.2,0,11.2,5,11.2,11.2l0,0C213.3,395.2,208.3,400.2,202.1,400.2z"/>
	<path style="fill:#ACB3BA;" d="M264.8,400.2h-24.7c-6.2,0-11.2-5-11.2-11.2l0,0c0-6.2,5-11.2,11.2-11.2h24.7   c6.2,0,11.2,5,11.2,11.2l0,0C276.1,395.2,271,400.2,264.8,400.2z"/>
	<path style="fill:#ACB3BA;" d="M327.6,400.2h-24.7c-6.2,0-11.2-5-11.2-11.2l0,0c0-6.2,5-11.2,11.2-11.2h24.7   c6.2,0,11.2,5,11.2,11.2l0,0C338.8,395.2,333.7,400.2,327.6,400.2z"/>
</g>
<g>
</g>
<g>
</g>
<g>
</g>
<g>
</g>
<g>
</g>
<g>
</g>
<g>
</g>
<g>
</g>
<g>
</g>
<g>
</g>
<g>
</g>
<g>
</g>
<g>
</g>
<g>
</g>
<g>
</g>
</svg>
