<?xml version="1.0" encoding="iso-8859-1"?>
<!-- Generator: Adobe Illustrator 19.0.0, SVG Export Plug-In . SVG Version: 6.00 Build 0)  -->
<svg xmlns="http://www.w3.org/2000/svg" xmlns:xlink="http://www.w3.org/1999/xlink" version="1.1" id="Layer_1" x="0px" y="0px" viewBox="0 0 505 505" style="enable-background:new 0 0 505 505;" xml:space="preserve">
<circle style="fill:#84DBFF;" cx="252.5" cy="252.5" r="252.5"/>
<polygon style="fill:#FF7058;" points="228.7,94.2 184.9,410.7 252.5,471 320.1,410.7 276.3,94.2 "/>
<polygon style="fill:#F1543F;" points="277.1,95.6 294.9,59.3 274.2,34 230.8,34 210.1,59.3 227.9,95.6 "/>
<g>
	<polygon style="fill:#FFFFFF;" points="314.7,371.9 233,453.6 209.3,432.5 309.3,332.5  "/>
	<polygon style="fill:#FFFFFF;" points="303.9,293.4 185.8,411.5 184.9,410.7 191.8,360.6 298.4,254  "/>
	<polygon style="fill:#FFFFFF;" points="293,214.9 199,308.9 206.2,256.9 287.5,175.5  "/>
	<polygon style="fill:#FFFFFF;" points="282.2,136.4 213.3,205.3 220.5,153.2 276.7,97  "/>
</g>
<g>
</g>
<g>
</g>
<g>
</g>
<g>
</g>
<g>
</g>
<g>
</g>
<g>
</g>
<g>
</g>
<g>
</g>
<g>
</g>
<g>
</g>
<g>
</g>
<g>
</g>
<g>
</g>
<g>
</g>
</svg>
