<?xml version="1.0" encoding="iso-8859-1"?>
<!-- Generator: Adobe Illustrator 19.0.0, SVG Export Plug-In . SVG Version: 6.00 Build 0)  -->
<svg xmlns="http://www.w3.org/2000/svg" xmlns:xlink="http://www.w3.org/1999/xlink" version="1.1" id="Layer_1" x="0px" y="0px" viewBox="0 0 505.4 505.4" style="enable-background:new 0 0 505.4 505.4;" xml:space="preserve">
<circle style="fill:#324A5E;" cx="252.7" cy="252.7" r="252.7"/>
<path style="fill:#CED5E0;" d="M386.2,131.9h-267c-8.1,0-14.6,6.6-14.6,14.6v240.8c0,7.3,5.9,13.2,13.2,13.2h269.7  c7.3,0,13.2-5.9,13.2-13.2V146.5C400.8,138.4,394.2,131.9,386.2,131.9z"/>
<path style="fill:#FFFFFF;" d="M400.8,146.5c0-8.1-6.6-14.6-14.6-14.6h-267c-8.1,0-14.6,6.6-14.6,14.6v240.8  c0,7.3,5.9,13.2,13.2,13.2h219l63.9-63.9V146.5H400.8z"/>
<path style="fill:#FF7058;" d="M400.8,186.4v-41.3c0-7.3-5.9-13.2-13.2-13.2H117.8c-7.3,0-13.2,5.9-13.2,13.2v41.3H400.8z"/>
<g>
	<path style="fill:#FFFFFF;" d="M173.1,104.9c-4.8,0-8.7,3.9-8.7,8.7v36.6c0,4.8,3.9,8.7,8.7,8.7s8.7-3.9,8.7-8.7v-36.6   C181.8,108.8,177.9,104.9,173.1,104.9z"/>
	<path style="fill:#FFFFFF;" d="M332.3,104.9c-4.8,0-8.7,3.9-8.7,8.7v36.6c0,4.8,3.9,8.7,8.7,8.7c4.8,0,8.7-3.9,8.7-8.7v-36.6   C341,108.8,337.1,104.9,332.3,104.9z"/>
</g>
<g>
	<rect x="242.7" y="224.3" style="fill:#4CDBC4;" width="26.1" height="26.1"/>
	<rect x="347.1" y="268.5" style="fill:#4CDBC4;" width="26.1" height="26.1"/>
</g>
<g>
	<rect x="294.9" y="224.3" style="fill:#E6E9EE;" width="26.1" height="26.1"/>
	<rect x="347.1" y="224.3" style="fill:#E6E9EE;" width="26.1" height="26.1"/>
	<rect x="138.3" y="268.5" style="fill:#E6E9EE;" width="26.1" height="26.1"/>
	<rect x="190.5" y="268.5" style="fill:#E6E9EE;" width="26.1" height="26.1"/>
	<rect x="242.7" y="268.5" style="fill:#E6E9EE;" width="26.1" height="26.1"/>
	<rect x="294.9" y="268.5" style="fill:#E6E9EE;" width="26.1" height="26.1"/>
	<rect x="138.3" y="312.8" style="fill:#E6E9EE;" width="26.1" height="26.1"/>
	<rect x="190.5" y="312.8" style="fill:#E6E9EE;" width="26.1" height="26.1"/>
	<rect x="242.7" y="312.8" style="fill:#E6E9EE;" width="26.1" height="26.1"/>
	<path style="fill:#E6E9EE;" d="M400.8,336.6h-50.7c-7.3,0-13.2,5.9-13.2,13.2v50.7L400.8,336.6z"/>
</g>
<g>
</g>
<g>
</g>
<g>
</g>
<g>
</g>
<g>
</g>
<g>
</g>
<g>
</g>
<g>
</g>
<g>
</g>
<g>
</g>
<g>
</g>
<g>
</g>
<g>
</g>
<g>
</g>
<g>
</g>
</svg>
