<?xml version="1.0" encoding="iso-8859-1"?>
<!-- Generator: Adobe Illustrator 19.0.0, SVG Export Plug-In . SVG Version: 6.00 Build 0)  -->
<svg xmlns="http://www.w3.org/2000/svg" xmlns:xlink="http://www.w3.org/1999/xlink" version="1.1" id="Layer_1" x="0px" y="0px" viewBox="0 0 505 505" style="enable-background:new 0 0 505 505;" xml:space="preserve">
<circle style="fill:#324A5E;" cx="252.5" cy="252.5" r="252.5"/>
<path style="fill:#FFFFFF;" d="M351.9,84.8H153.1c-9.8,0-17.8,8-17.8,17.8v299.8c0,9.8,8,17.8,17.8,17.8h198.8  c9.8,0,17.8-8,17.8-17.8V102.6C369.7,92.8,361.7,84.8,351.9,84.8z"/>
<rect x="149.1" y="125.2" style="fill:#84DBFF;" width="206.9" height="254.6"/>
<g>
	<path style="fill:#E6E9EE;" d="M273,109.6h-41c-2.6,0-4.8-2.1-4.8-4.8l0,0c0-2.6,2.1-4.8,4.8-4.8h41c2.6,0,4.8,2.1,4.8,4.8l0,0   C277.8,107.4,275.6,109.6,273,109.6z"/>
	<circle style="fill:#E6E9EE;" cx="252.5" cy="400.5" r="13.1"/>
</g>
<g>
	<circle style="fill:#324A5E;" cx="252.5" cy="215.3" r="33.3"/>
	<path style="fill:#324A5E;" d="M315.1,323c-0.6-34.1-28.3-61.6-62.6-61.6s-62,27.5-62.6,61.6H315.1z"/>
</g>
<g>
</g>
<g>
</g>
<g>
</g>
<g>
</g>
<g>
</g>
<g>
</g>
<g>
</g>
<g>
</g>
<g>
</g>
<g>
</g>
<g>
</g>
<g>
</g>
<g>
</g>
<g>
</g>
<g>
</g>
</svg>
