<?xml version="1.0" encoding="iso-8859-1"?>
<!-- Generator: Adobe Illustrator 19.0.0, SVG Export Plug-In . SVG Version: 6.00 Build 0)  -->
<svg xmlns="http://www.w3.org/2000/svg" xmlns:xlink="http://www.w3.org/1999/xlink" version="1.1" id="Layer_1" x="0px" y="0px" viewBox="0 0 505.4 505.4" style="enable-background:new 0 0 505.4 505.4;" xml:space="preserve">
<circle style="fill:#90DFAA;" cx="252.7" cy="252.7" r="252.7"/>
<path style="fill:#2C9984;" d="M64.7,421.5c46.3,51.5,113.4,83.9,188,83.9c74.7,0,141.8-32.4,188-83.9H64.7z"/>
<path style="fill:#324A5E;" d="M401.6,112.5H103.8c-2.2,0-4,1.8-4,4v215.2v29c0,2.2,1.8,4,4,4h297.9c2.2,0,4-1.8,4-4v-29V116.5  C405.6,114.3,403.8,112.5,401.6,112.5z"/>
<rect x="117.2" y="130" style="fill:#FFFFFF;" width="271" height="184.2"/>
<rect x="216.2" y="364.5" style="fill:#324A5E;" width="73" height="37.2"/>
<g>
	<rect x="216.2" y="364.5" style="fill:#2B3B4E;" width="73" height="9.1"/>
	<path style="fill:#2B3B4E;" d="M306.7,401.7h-108c-11.6,0-21,9.4-21,21h150C327.7,411.1,318.3,401.7,306.7,401.7z"/>
</g>
<rect x="176.1" y="234.5" style="fill:#FF7058;" width="21.4" height="59.2"/>
<rect x="220" y="213.5" style="fill:#54C0EB;" width="21.4" height="80.2"/>
<rect x="263.9" y="189.9" style="fill:#4CDBC4;" width="21.4" height="103.8"/>
<rect x="307.8" y="169.1" style="fill:#FFD05B;" width="21.4" height="124.6"/>
<circle style="fill:#2B3B4E;" cx="252.7" cy="339.7" r="8"/>
<g>
</g>
<g>
</g>
<g>
</g>
<g>
</g>
<g>
</g>
<g>
</g>
<g>
</g>
<g>
</g>
<g>
</g>
<g>
</g>
<g>
</g>
<g>
</g>
<g>
</g>
<g>
</g>
<g>
</g>
</svg>
