<?xml version="1.0" encoding="iso-8859-1"?>
<!-- Generator: Adobe Illustrator 19.0.0, SVG Export Plug-In . SVG Version: 6.00 Build 0)  -->
<svg xmlns="http://www.w3.org/2000/svg" xmlns:xlink="http://www.w3.org/1999/xlink" version="1.1" id="Layer_1" x="0px" y="0px" viewBox="0 0 505 505" style="enable-background:new 0 0 505 505;" xml:space="preserve">
<circle style="fill:#90DFAA;" cx="252.5" cy="252.5" r="252.5"/>
<polygon style="fill:#324A5E;" points="373.7,219.3 387.3,219.3 387.3,185.3 303.9,90.4 117.7,90.4 117.7,275 130.8,275   130.8,334.9 117.7,334.9 117.7,414.6 156.1,414.6 156.1,402.4 348.8,402.4 348.8,414.6 387.3,414.6 387.3,279.2 373.7,279.2 "/>
<g>
	<rect x="137.6" y="90.4" style="fill:#FFD05B;" width="23.5" height="60.2"/>
	<rect x="181.2" y="90.4" style="fill:#FFD05B;" width="23.5" height="60.2"/>
	<rect x="224.7" y="90.4" style="fill:#FFD05B;" width="23.5" height="60.2"/>
	<rect x="268.2" y="90.4" style="fill:#FFD05B;" width="23.5" height="60.2"/>
</g>
<rect x="172.1" y="266.6" style="fill:#FFFFFF;" width="160.8" height="103"/>
<g>
	<path style="fill:#324A5E;" d="M222.3,317.4v-0.1c-3.8-1.6-5.7-4.1-5.7-7.6c0-2.6,1-4.7,3.1-6.4c2.1-1.7,4.7-2.5,8-2.5   s6,0.8,7.9,2.3c2,1.6,3,3.6,3,6.1c0,3.7-2.1,6.4-6.4,8.1v0.1c2.3,0.7,4,1.8,5.3,3.3s1.9,3.3,1.9,5.2c0,3-1.1,5.3-3.3,7   s-5.2,2.6-9.2,2.6c-3.4,0-6.1-0.8-8.2-2.5c-2.1-1.7-3.1-3.9-3.1-6.6C215.5,322.2,217.8,319.3,222.3,317.4z M227.2,320.2   c-3.1,1.2-4.7,3.1-4.7,5.7c0,1.2,0.5,2.2,1.4,3c1,0.8,2.1,1.2,3.5,1.2c1.5,0,2.7-0.4,3.6-1.2c0.9-0.8,1.4-1.8,1.4-3.1   C232.3,323.2,230.6,321.4,227.2,320.2z M231.5,309.8c0-1.1-0.4-2-1.1-2.7c-0.7-0.7-1.7-1-2.9-1s-2.1,0.4-2.9,1.1   c-0.8,0.7-1.2,1.6-1.2,2.7c0,2.1,1.3,3.7,4,4.7C230.2,313.5,231.5,311.9,231.5,309.8z"/>
	<path style="fill:#324A5E;" d="M266.6,333.3c-2.4,1.4-5.3,2-8.8,2c-3.9,0-7-1.1-9.2-3.2c-2.2-2.2-3.4-5.1-3.4-8.9s1.2-6.9,3.7-9.3   s5.7-3.6,9.8-3.6c2.6,0,4.8,0.4,6.8,1.1v5.1c-1.9-1.1-4.1-1.6-6.8-1.6c-2.3,0-4.1,0.7-5.5,2.2s-2.1,3.4-2.1,5.9s0.6,4.4,1.9,5.8   s3,2,5.2,2c1.3,0,2.3-0.2,3.1-0.6v-4.7h-4.8v-4.4h10.3v12.2H266.6z"/>
	<path style="fill:#324A5E;" d="M271.3,334.9v-24.2h8.8c2.7,0,4.8,0.5,6.2,1.5c1.5,1,2.2,2.4,2.2,4.2c0,1.3-0.4,2.4-1.3,3.4   s-2,1.7-3.4,2v0.1c1.7,0.2,3.1,0.8,4.1,1.9s1.5,2.3,1.5,3.9c0,2.2-0.8,4-2.4,5.3s-3.7,1.9-6.5,1.9L271.3,334.9L271.3,334.9z    M276.8,314.8v5.7h2.4c1.1,0,2-0.3,2.7-0.8c0.6-0.5,1-1.3,1-2.3c0-1.8-1.3-2.7-4-2.7h-2.1V314.8z M276.8,324.6v6.4h3   c1.3,0,2.2-0.3,3-0.9c0.7-0.6,1.1-1.4,1.1-2.4s-0.4-1.7-1.1-2.3c-0.7-0.6-1.7-0.8-2.9-0.8L276.8,324.6L276.8,324.6z"/>
</g>
<g>
</g>
<g>
</g>
<g>
</g>
<g>
</g>
<g>
</g>
<g>
</g>
<g>
</g>
<g>
</g>
<g>
</g>
<g>
</g>
<g>
</g>
<g>
</g>
<g>
</g>
<g>
</g>
<g>
</g>
</svg>
