<?xml version="1.0" encoding="iso-8859-1"?>
<!-- Generator: Adobe Illustrator 19.0.0, SVG Export Plug-In . SVG Version: 6.00 Build 0)  -->
<svg xmlns="http://www.w3.org/2000/svg" xmlns:xlink="http://www.w3.org/1999/xlink" version="1.1" id="Layer_1" x="0px" y="0px" viewBox="0 0 505 505" style="enable-background:new 0 0 505 505;" xml:space="preserve">
<circle style="fill:#FD8469;" cx="252.5" cy="252.5" r="252.5"/>
<path style="fill:#FFD05B;" d="M279.3,229.7H84.8c-6.1,0-11.1,5-11.1,11.1v110.7c0,6.1,5,11.1,11.1,11.1h194.5  c6.1,0,11.1-5,11.1-11.1V240.8C290.4,234.7,285.5,229.7,279.3,229.7z"/>
<rect x="73.7" y="263.1" style="fill:#324A5E;" width="216.7" height="29.8"/>
<path style="fill:#FFFFFF;" d="M338.6,156.7c-35.6,0.4-79.7,0.8-115.3,1.3c-7.9,0.1-16.1,0.2-23.4,3.1c-7.2,2.8-13.1,7.9-18.9,12.9  c-17.2,15-34.4,29.9-51.6,44.9c-3.7,3.2-7.4,6.9-10.3,10.9h60.4c2.7-2.1,5.5-4.2,7.9-6.1c8.7-7.1,20.9-5.9,32.1-4.6  c29.6,3.5,29.9,19.2,29.8,20.6c-0.6,13-14.6,23-23.7,33.7c-7.8,9.2-12.6,20.8-13.5,32.8c-0.7,8.8,2.3,19.6,10.8,21.8  c7.4,2,14.5-3.6,20.2-8.8c27-24.7,59.1-50.4,95.5-46.9V156.7z"/>
<path style="fill:#324A5E;" d="M429.1,142.4h-81c-5.2,0-9.5,4.2-9.5,9.5v126.8c0,5.2,4.2,9.5,9.5,9.5h81c1.2,0,2.2-1,2.2-2.2V144.6  C431.3,143.4,430.3,142.4,429.1,142.4z"/>
<circle style="fill:#FFFFFF;" cx="385" cy="263.3" r="9"/>
<g>
</g>
<g>
</g>
<g>
</g>
<g>
</g>
<g>
</g>
<g>
</g>
<g>
</g>
<g>
</g>
<g>
</g>
<g>
</g>
<g>
</g>
<g>
</g>
<g>
</g>
<g>
</g>
<g>
</g>
</svg>
