<?xml version="1.0" encoding="iso-8859-1"?>
<!-- Generator: Adobe Illustrator 19.0.0, SVG Export Plug-In . SVG Version: 6.00 Build 0)  -->
<svg xmlns="http://www.w3.org/2000/svg" xmlns:xlink="http://www.w3.org/1999/xlink" version="1.1" id="Layer_1" x="0px" y="0px" viewBox="0 0 505 505" style="enable-background:new 0 0 505 505;" xml:space="preserve">
<circle style="fill:#54C0EB;" cx="252.5" cy="252.5" r="252.5"/>
<g>
	<rect x="139.2" y="117.4" style="fill:#2B3B4E;" width="16.4" height="275.1"/>
	<rect x="349.4" y="117.4" style="fill:#2B3B4E;" width="16.4" height="275.1"/>
</g>
<path style="fill:#FFFFFF;" d="M273.5,267.9c-5-3.5-8-9.3-8-15.4s3-11.9,8-15.4c66.1-45.8,67.1-118.9,67.1-118.9H164.4  c0,0,1,73.2,67.1,118.9c5,3.5,8,9.3,8,15.4c0,6.1-3,11.9-8,15.4c-66.1,45.8-67.1,118.9-67.1,118.9h176.1  C340.6,386.8,339.5,313.6,273.5,267.9z"/>
<g>
	<path style="fill:#FFD05B;" d="M239.5,225.6c3.2,2.2,5.9,4.9,8.1,8c1.1,1.6,3,2.4,4.9,2.4l0,0c1.9,0,3.8-0.9,4.9-2.4   c2.2-3.1,4.9-5.8,8.1-8c24.6-17.1,39.3-38.2,48.1-57.2H191.4C200.2,187.5,214.8,208.6,239.5,225.6z"/>
	<path style="fill:#FFD05B;" d="M206.8,342.4c-7.4,9.8-12.8,19.8-16.9,29.2h124.9c-4-9.4-9.5-19.3-16.8-29.2H206.8z"/>
</g>
<g>
	<path style="fill:#324A5E;" d="M370.1,94.7H134.9c-6.5,0-11.7,5.3-11.7,11.7c0,6.5,5.3,11.7,11.7,11.7h235.2   c6.5,0,11.7-5.3,11.7-11.7C381.9,99.9,376.6,94.7,370.1,94.7z"/>
	<path style="fill:#324A5E;" d="M370.1,386.8H134.9c-6.5,0-11.7,5.3-11.7,11.7c0,6.5,5.3,11.7,11.7,11.7h235.2   c6.5,0,11.7-5.3,11.7-11.7C381.9,392.1,376.6,386.8,370.1,386.8z"/>
</g>
<g>
</g>
<g>
</g>
<g>
</g>
<g>
</g>
<g>
</g>
<g>
</g>
<g>
</g>
<g>
</g>
<g>
</g>
<g>
</g>
<g>
</g>
<g>
</g>
<g>
</g>
<g>
</g>
<g>
</g>
</svg>
