<?xml version="1.0" encoding="iso-8859-1"?>
<!-- Generator: Adobe Illustrator 19.0.0, SVG Export Plug-In . SVG Version: 6.00 Build 0)  -->
<svg xmlns="http://www.w3.org/2000/svg" xmlns:xlink="http://www.w3.org/1999/xlink" version="1.1" id="Layer_1" x="0px" y="0px" viewBox="0 0 505 505" style="enable-background:new 0 0 505 505;" xml:space="preserve">
<g>
	<circle style="fill:#324A5E;" cx="252.5" cy="252.5" r="252.5"/>
	<circle style="fill:#324A5E;" cx="252.5" cy="252.5" r="252.5"/>
</g>
<polygon style="fill:#FFFFFF;" points="405.7,283 436.2,252.5 405.7,222 422.2,182.2 382.4,165.7 382.4,122.6 339.3,122.6   322.8,82.8 283,99.3 252.5,68.8 222,99.3 182.2,82.8 165.7,122.6 122.6,122.6 122.6,165.7 82.8,182.2 99.3,222 68.8,252.5 99.3,283   82.8,322.8 122.6,339.3 122.6,382.4 165.7,382.4 182.2,422.2 222,405.7 252.5,436.2 283,405.7 322.8,422.2 339.3,382.4 382.4,382.4   382.4,339.3 422.2,322.8 "/>
<path style="fill:#F1543F;" d="M199.6,253.7c-11.8,0-21.3-3.7-28.5-11.2s-10.8-17.5-10.8-30.2c0-13.8,3.8-24.7,11.5-32.8  s17.9-12.1,30.7-12.1c12.3,0,21.8,3.7,28.7,11s10.3,17.6,10.3,30.9c0,13.6-3.8,24.5-11.4,32.5C222.4,249.6,212.3,253.7,199.6,253.7z   M320.6,169.6l-108,165.7h-28.2l107.7-165.7L320.6,169.6L320.6,169.6z M201.8,187.7c-11.2,0-16.9,7.8-16.9,23.5  c0,14.8,5.4,22.2,16.1,22.2c10.9,0,16.4-7.7,16.4-23.1C217.4,195.2,212.2,187.7,201.8,187.7z M302.8,337.7  c-11.8,0-21.3-3.7-28.5-11.2s-10.8-17.5-10.8-30.2c0-13.8,3.8-24.7,11.5-32.8c7.7-8.1,17.9-12.1,30.7-12.1  c12.3,0,21.9,3.6,28.8,10.9c6.9,7.2,10.3,17.5,10.3,30.7c0,13.6-3.8,24.5-11.4,32.6C325.7,333.6,315.5,337.7,302.8,337.7z   M304.6,271.7c-11.2,0-16.8,7.8-16.8,23.5c0,14.8,5.4,22.2,16.3,22.2s16.4-7.7,16.4-23.1c0-7.2-1.5-12.7-4.4-16.6  C313.3,273.7,309.4,271.7,304.6,271.7z"/>
<g>
</g>
<g>
</g>
<g>
</g>
<g>
</g>
<g>
</g>
<g>
</g>
<g>
</g>
<g>
</g>
<g>
</g>
<g>
</g>
<g>
</g>
<g>
</g>
<g>
</g>
<g>
</g>
<g>
</g>
</svg>
