<?xml version="1.0" encoding="iso-8859-1"?>
<!-- Generator: Adobe Illustrator 19.0.0, SVG Export Plug-In . SVG Version: 6.00 Build 0)  -->
<svg xmlns="http://www.w3.org/2000/svg" xmlns:xlink="http://www.w3.org/1999/xlink" version="1.1" id="Layer_1" x="0px" y="0px" viewBox="0 0 505 505" style="enable-background:new 0 0 505 505;" xml:space="preserve">
<circle style="fill:#84DBFF;" cx="252.5" cy="252.5" r="252.5"/>
<g>
	<polygon style="fill:#324A5E;" points="335.7,417.5 349.5,364.8 403,375 301.8,214.6 234.4,257.1  "/>
	<polygon style="fill:#324A5E;" points="169.3,417.5 155.5,364.8 102,375 203.2,214.6 270.6,257.1  "/>
</g>
<path style="fill:#FFFFFF;" d="M357.5,178.4c-9-9.5-13.9-21.4-14.3-34.4c-0.2-8.4-3.5-16.6-9.9-23.1c-6.4-6.4-14.7-9.7-23.1-9.9  c-13-0.3-25-5.3-34.4-14.3c-6.1-5.8-14.2-9.3-23.3-9.3c-9.1,0-17.3,3.5-23.3,9.3c-9.5,9-21.4,13.9-34.4,14.3  c-8.4,0.2-16.6,3.5-23.1,9.9c-6.4,6.4-9.7,14.7-9.9,23.1c-0.3,13-5.3,25-14.3,34.4c-5.8,6.1-9.3,14.2-9.3,23.3s3.5,17.3,9.3,23.3  c9,9.5,13.9,21.4,14.2,34.4c0.2,8.4,3.5,16.6,9.9,23.1c6.4,6.4,14.7,9.7,23.1,9.9c13,0.3,25,5.3,34.4,14.3  c6.1,5.8,14.2,9.3,23.3,9.3c9.1,0,17.3-3.5,23.3-9.3c9.5-9,21.4-13.9,34.4-14.3c8.4-0.2,16.6-3.5,23.1-9.9  c6.4-6.4,9.7-14.7,9.9-23.1c0.3-13,5.3-25,14.3-34.4c5.8-6.1,9.3-14.2,9.3-23.3C366.8,192.7,363.3,184.5,357.5,178.4z"/>
<path style="fill:#FF7058;" d="M252.5,287.2c-4.6,0-9.1-1.8-12.4-4.9c-9.8-9.3-22.2-14.5-35.8-14.8c-4.6-0.1-9-2-12.3-5.3  s-5.2-7.7-5.3-12.3c-0.4-13.6-5.5-25.9-14.8-35.8c-3.2-3.4-4.9-7.8-4.9-12.4c0-4.6,1.8-9,4.9-12.4c9.3-9.8,14.5-22.2,14.8-35.8  c0.1-4.6,2-9,5.3-12.3s7.6-5.2,12.3-5.3c13.5-0.4,25.9-5.5,35.8-14.8c3.4-3.2,7.8-5,12.4-5c4.6,0,9,1.8,12.4,5  c9.8,9.3,22.2,14.5,35.8,14.8c4.6,0.1,9,2,12.3,5.3s5.2,7.6,5.3,12.3c0.4,13.5,5.5,25.9,14.8,35.8c3.2,3.4,5,7.8,5,12.4  c0,4.6-1.8,9.1-4.9,12.4c-9.3,9.8-14.5,22.2-14.8,35.8c-0.1,4.6-2,9-5.3,12.3c-3.3,3.3-7.6,5.2-12.3,5.3  c-13.5,0.4-25.9,5.5-35.8,14.8C261.5,285.5,257.1,287.2,252.5,287.2z"/>
<g>
</g>
<g>
</g>
<g>
</g>
<g>
</g>
<g>
</g>
<g>
</g>
<g>
</g>
<g>
</g>
<g>
</g>
<g>
</g>
<g>
</g>
<g>
</g>
<g>
</g>
<g>
</g>
<g>
</g>
</svg>
