<?xml version="1.0" encoding="iso-8859-1"?>
<!-- Generator: Adobe Illustrator 19.0.0, SVG Export Plug-In . SVG Version: 6.00 Build 0)  -->
<svg xmlns="http://www.w3.org/2000/svg" xmlns:xlink="http://www.w3.org/1999/xlink" version="1.1" id="Layer_1" x="0px" y="0px" viewBox="0 0 505 505" style="enable-background:new 0 0 505 505;" xml:space="preserve">
<circle style="fill:#FFD05B;" cx="252.5" cy="252.5" r="252.5"/>
<path style="fill:#324A5E;" d="M362.6,84.8H142.4c-5.3,0-9.7,4.3-9.7,9.7v316c0,5.3,4.3,9.7,9.7,9.7h220.2c5.3,0,9.7-4.3,9.7-9.7  v-316C372.3,89.1,367.9,84.8,362.6,84.8z"/>
<rect x="150.5" y="120.5" style="fill:#FFFFFF;" width="204.1" height="264"/>
<g>
	<rect x="228" y="97.9" style="fill:#ACB3BA;" width="49" height="9.5"/>
	<circle style="fill:#ACB3BA;" cx="252.5" cy="402.3" r="9.2"/>
</g>
<polygon style="fill:#FF7058;" points="312.1,214 278,214 289.4,225.4 256.8,258 235.9,237.1 192.9,280.2 203.7,291 235.9,258.9   256.8,279.8 300.3,236.3 312.1,248.2 "/>
<g>
</g>
<g>
</g>
<g>
</g>
<g>
</g>
<g>
</g>
<g>
</g>
<g>
</g>
<g>
</g>
<g>
</g>
<g>
</g>
<g>
</g>
<g>
</g>
<g>
</g>
<g>
</g>
<g>
</g>
</svg>
