<?xml version="1.0" encoding="iso-8859-1"?>
<!-- Generator: Adobe Illustrator 19.0.0, SVG Export Plug-In . SVG Version: 6.00 Build 0)  -->
<svg xmlns="http://www.w3.org/2000/svg" xmlns:xlink="http://www.w3.org/1999/xlink" version="1.1" id="Layer_1" x="0px" y="0px" viewBox="0 0 505 505" style="enable-background:new 0 0 505 505;" xml:space="preserve">
<circle style="fill:#90DFAA;" cx="252.5" cy="252.5" r="252.5"/>
<path style="fill:#FFFFFF;" d="M387.5,130.3h-270c-7.2,0-13,5.8-13,13v263.8c0,7.2,5.8,13,13,13h270c7.2,0,13-5.8,13-13V143.4  C400.5,136.2,394.7,130.3,387.5,130.3z"/>
<polygon style="fill:#F1543F;" points="281.2,348.1 252.3,373.9 223.5,348.1 231.5,211.3 273.1,211.3 "/>
<polygon style="fill:#FF7058;" points="231.6,216.6 210.8,180.6 231.6,144.7 273.1,144.7 293.8,180.6 273.1,216.6 "/>
<rect x="190.3" y="84.8" style="fill:#324A5E;" width="124.1" height="61"/>
<g>
	<polygon style="fill:#E6E9EE;" points="252.5,145.9 212,200.5 156.3,130.7 190.3,84.8  "/>
	<polygon style="fill:#E6E9EE;" points="252.5,145.9 293,200.5 348.7,130.7 314.7,84.8  "/>
</g>
<g>
</g>
<g>
</g>
<g>
</g>
<g>
</g>
<g>
</g>
<g>
</g>
<g>
</g>
<g>
</g>
<g>
</g>
<g>
</g>
<g>
</g>
<g>
</g>
<g>
</g>
<g>
</g>
<g>
</g>
</svg>
