<?xml version="1.0" encoding="iso-8859-1"?>
<!-- Generator: Adobe Illustrator 19.0.0, SVG Export Plug-In . SVG Version: 6.00 Build 0)  -->
<svg xmlns="http://www.w3.org/2000/svg" xmlns:xlink="http://www.w3.org/1999/xlink" version="1.1" id="Layer_1" x="0px" y="0px" viewBox="0 0 505 505" style="enable-background:new 0 0 505 505;" xml:space="preserve">
<circle style="fill:#FFD05B;" cx="252.5" cy="252.5" r="252.5"/>
<path style="fill:#324A5E;" d="M258.9,364.3c-6.6,0-12-5.4-12-12v-34.4h-62.2v34.4c0,6.6-5.4,12-12,12c-9.4,0-17,7.6-17,17h120.4  C276,372,268.3,364.3,258.9,364.3z"/>
<rect x="184.7" y="317.9" style="fill:#2B3B4E;" width="62.2" height="27.6"/>
<path style="fill:#324A5E;" d="M340.8,123.6H90.7c-2.6,0-4.7,2.1-4.7,4.7v202.2c0,2.6,2.1,4.7,4.7,4.7h250.1c2.6,0,4.7-2.1,4.7-4.7  V128.3C345.5,125.7,343.4,123.6,340.8,123.6z"/>
<rect x="100.8" y="138" style="fill:#84DBFF;" width="230" height="158.8"/>
<circle style="fill:#2B3B4E;" cx="215.8" cy="315" r="7.1"/>
<path style="fill:#FFFFFF;" d="M416,149H307.4c-1.7,0-3,1.4-3,3v226.4c0,1.7,1.4,3,3,3H416c1.7,0,3-1.4,3-3V152  C419,150.3,417.6,149,416,149z"/>
<g>
	<rect x="318.5" y="164" style="fill:#E6E9EE;" width="86.3" height="28.9"/>
	<rect x="318.5" y="198.6" style="fill:#E6E9EE;" width="86.3" height="28.9"/>
	<rect x="318.5" y="233.3" style="fill:#E6E9EE;" width="86.3" height="28.9"/>
	<circle style="fill:#E6E9EE;" cx="361.7" cy="337.8" r="12"/>
</g>
<g>
</g>
<g>
</g>
<g>
</g>
<g>
</g>
<g>
</g>
<g>
</g>
<g>
</g>
<g>
</g>
<g>
</g>
<g>
</g>
<g>
</g>
<g>
</g>
<g>
</g>
<g>
</g>
<g>
</g>
</svg>
