<?xml version="1.0" encoding="iso-8859-1"?>
<!-- Generator: Adobe Illustrator 19.0.0, SVG Export Plug-In . SVG Version: 6.00 Build 0)  -->
<svg xmlns="http://www.w3.org/2000/svg" xmlns:xlink="http://www.w3.org/1999/xlink" version="1.1" id="Layer_1" x="0px" y="0px" viewBox="0 0 505 505" style="enable-background:new 0 0 505 505;" xml:space="preserve">
<circle style="fill:#FFD05B;" cx="252.5" cy="252.5" r="252.5"/>
<path style="fill:#FF7058;" d="M346.5,289.3l-14-14l0.4-0.4l-75.7-83.3l-51,5.7l-63.4-28.1l-20.4,105.7l24.8,10.2l83.9,77.7  l14.1,14.1c6.1,6.1,16,6.1,22.1,0s6.1-16,0-22.1l-7-7l2.2-2.2l11.9,11.9c6.1,6.1,16,6.1,22.1,0s6.1-16,0-22.1l-12-12l1.9-1.9  l14.9,14.9c6.1,6.1,16,6.1,22.1,0s6.1-16,0-22.1l-14.9-14.8l2-2l13.9,13.9c6.1,6.1,16,6.1,22.1,0S352.6,295.4,346.5,289.3z"/>
<g>
	<path style="fill:#FFFFFF;" d="M338.3,164.9h-92.9c-4.3,0-8.5,1.7-11.5,4.8L200,203.6c-5.3,5.3-5.3,14,0,19.3   c5.2,5.2,13.7,5.4,19.1,0.2l19.6-18.6h29.2l65,70.4l37.6-27.8L338.3,164.9z"/>
	<path style="fill:#FFFFFF;" d="M174.2,302.1c5.6-5.6,5.6-14.8,0-20.5c-5.7-5.6-14.8-5.6-20.5,0l-9,9c-5.6,5.7-5.6,14.8,0,20.5   c5.7,5.6,14.8,5.6,20.5,0L174.2,302.1z"/>
	<path style="fill:#FFFFFF;" d="M196.1,323.5c5.6-5.6,5.6-14.8,0-20.5l0,0c-5.7-5.6-14.8-5.6-20.5,0l-9,9c-5.7,5.7-5.7,14.8,0,20.5   c5.6,5.6,14.8,5.6,20.5,0L196.1,323.5z"/>
	<path style="fill:#FFFFFF;" d="M217.5,324.3c-5.6-5.6-14.8-5.6-20.5,0l-9,9c-5.6,5.7-5.6,14.8,0,20.5s14.8,5.7,20.5,0l9-9   C223.2,339.1,223.2,330,217.5,324.3z"/>
	<path style="fill:#FFFFFF;" d="M239.5,345.6c-5.7-5.6-14.8-5.6-20.5,0l-4.8,4.8c-5.6,5.6-5.6,14.8,0,20.5c5.7,5.7,14.8,5.7,20.5,0   l4.8-4.8C245.2,360.4,245.2,351.3,239.5,345.6z"/>
</g>
<path style="fill:#2C9984;" d="M442.9,234.3l-42.6-108.8c-0.6-1.7-2.5-2.5-4.2-1.8L334.2,148c-1.7,0.6-2.5,2.5-1.8,4.2L375,261  c0.6,1.7,2.5,2.5,4.2,1.8l61.9-24.2C442.8,237.8,443.6,236,442.9,234.3z"/>
<circle style="fill:#FFFFFF;" cx="402.6" cy="230.6" r="8.4"/>
<path style="fill:#324A5E;" d="M176.3,171.9l-58.6-28.5c-1.9-0.9-4.2-0.1-5.1,1.8L62.2,249.8c-0.9,1.9-0.1,4.2,1.8,5.1l58.6,28.5  c1.9,0.9,4.2,0.1,5.1-1.8L178.1,177C179,175.1,178.2,172.8,176.3,171.9z"/>
<circle style="fill:#FFFFFF;" cx="100.8" cy="249.5" r="8.4"/>
<g>
</g>
<g>
</g>
<g>
</g>
<g>
</g>
<g>
</g>
<g>
</g>
<g>
</g>
<g>
</g>
<g>
</g>
<g>
</g>
<g>
</g>
<g>
</g>
<g>
</g>
<g>
</g>
<g>
</g>
</svg>
