<?xml version="1.0" encoding="iso-8859-1"?>
<!-- Generator: Adobe Illustrator 19.0.0, SVG Export Plug-In . SVG Version: 6.00 Build 0)  -->
<svg xmlns="http://www.w3.org/2000/svg" xmlns:xlink="http://www.w3.org/1999/xlink" version="1.1" id="Layer_1" x="0px" y="0px" viewBox="0 0 505 505" style="enable-background:new 0 0 505 505;" xml:space="preserve">
<circle style="fill:#FFD05B;" cx="252.5" cy="252.5" r="252.5"/>
<path style="fill:#FFFFFF;" d="M377.2,178.5c-2.6-24.2-10.6-46.4-27.8-63.6c-13.6-13.6-30.3-26.9-55.3-31.7  c-18.9-3.7-43.8-3.6-62.9-1.5c-30.8,3.3-55.2,20.2-75.5,43.6c-26.6,30.6-20,79.3-43,112.7c-3.3,4.8-7.2,9.3-9.3,14.7  c-2.1,5.4-2,12.3,2.2,16.3c4.4,4.3,11.5,4.1,16.7,7.3c7.9,4.8,9.5,15.5,8.4,24.7c-1.1,9.1-4.1,18.3-2.2,27.3  c2.1,9.9,10,17.8,18.9,22.6c9,4.8,19,6.9,28.9,9.4c10.5,2.6,22.9,7.8,23.9,18.5c1,11.1-11.7,20.6-9.1,31.5  c2.3,9.9,15,12.5,25.1,13.1c36.3,1.9,72.7,2.1,109,0.5c5.2-0.2,10.8-0.6,15-3.8c5.6-4.3,6.9-12.1,7.3-19.2  c3.3-50.5-13.2-76.5,9.5-121.7c3.8-7.6,8.6-14.7,11.7-22.6C374.7,241.6,379,194.2,377.2,178.5z"/>
<path style="fill:#FF7058;" d="M316.1,181.6c-0.1-2.8-0.3-4.4-0.3-4.4h-1.1c0,0-0.3,1.5-1.2,4.1c-0.8,2.6-2.2,6.3-4.2,10.4  c-1,2.1-2.2,4.2-3.5,6.5c-1.3,2.2-2.9,4.5-4.5,6.7c-1.8,2.2-3.4,4.4-5.5,6.4c-1,1-2,2.1-3,3l-3.2,2.8c-2,1.9-4.5,3.3-6.7,4.9  c-2.2,1.5-4.7,2.6-6.9,3.8c-2.2,1.2-4.6,1.9-6.7,2.8c-2,0.9-4.3,1.3-6.2,1.8c-1.9,0.5-3.6,1.1-5.2,1.2c-1.6,0.2-3,0.4-4.2,0.6  c-1.7,0.2-2.8,0.4-3.3,0.5l-5.4-17.2l-23.1,44.2l44.2,23.1l-4.7-14.9c0.4-0.2,1.9-1,4.4-2.4c1.4-0.8,3.1-1.8,5.1-2.9  c2-1,4.1-2.7,6.3-4.3c2.2-1.7,4.8-3.2,7.1-5.5c2.4-2.2,4.9-4.3,7.3-6.8c2.3-2.6,4.8-5.1,6.8-8.1s4.3-5.7,5.9-8.9l2.6-4.6  c0.8-1.6,1.4-3.2,2.1-4.8c1.5-3.1,2.4-6.3,3.4-9.3c0.9-3.1,1.6-6,2.1-8.9c0.5-2.8,0.9-5.5,1.1-8  C316.3,188.5,316.2,184.4,316.1,181.6z"/>
<path style="fill:#4CDBC4;" d="M188,216.4c0.1,2.8,0.3,4.4,0.3,4.4h1.1c0,0,0.3-1.5,1.2-4.1c0.8-2.6,2.2-6.3,4.2-10.4  c1-2.1,2.2-4.2,3.5-6.5c1.3-2.2,2.9-4.5,4.5-6.7c1.8-2.2,3.4-4.4,5.5-6.4c1-1,2-2.1,3-3l3.2-2.8c2-1.9,4.5-3.3,6.7-4.9  c2.2-1.5,4.7-2.6,6.9-3.8s4.6-1.9,6.7-2.8c2-0.9,4.3-1.3,6.2-1.8s3.6-1.1,5.2-1.2c1.6-0.2,3-0.4,4.2-0.6c1.7-0.2,2.8-0.4,3.3-0.5  l5.4,17.2l23.1-44.2L238,115.2l4.7,14.9c-0.4,0.2-1.9,1-4.4,2.4c-1.4,0.8-3.1,1.8-5.1,2.9c-2,1-4.1,2.7-6.3,4.3  c-2.2,1.7-4.8,3.2-7.1,5.5c-2.4,2.2-4.9,4.3-7.3,6.8c-2.3,2.6-4.8,5.1-6.8,8.1s-4.3,5.7-5.9,8.9l-2.6,4.6c-0.8,1.6-1.4,3.2-2.1,4.8  c-1.5,3.1-2.4,6.3-3.4,9.3c-0.9,3.1-1.6,6-2.1,8.9c-0.5,2.8-0.9,5.5-1.1,8C187.9,209.5,187.9,213.6,188,216.4z"/>
<g>
</g>
<g>
</g>
<g>
</g>
<g>
</g>
<g>
</g>
<g>
</g>
<g>
</g>
<g>
</g>
<g>
</g>
<g>
</g>
<g>
</g>
<g>
</g>
<g>
</g>
<g>
</g>
<g>
</g>
</svg>
