<?xml version="1.0" encoding="iso-8859-1"?>
<!-- Generator: Adobe Illustrator 19.0.0, SVG Export Plug-In . SVG Version: 6.00 Build 0)  -->
<svg xmlns="http://www.w3.org/2000/svg" xmlns:xlink="http://www.w3.org/1999/xlink" version="1.1" id="Layer_1" x="0px" y="0px" viewBox="0 0 505.4 505.4" style="enable-background:new 0 0 505.4 505.4;" xml:space="preserve">
<circle style="fill:#FFD05B;" cx="252.7" cy="252.7" r="252.7"/>
<rect x="311.764" y="244.995" transform="matrix(-0.7071 0.7071 -0.7071 -0.7071 784.1573 324.7807)" style="fill:#E6E9EE;" width="26.1" height="159.598"/>
<path style="fill:#324A5E;" d="M398.5,359.5l-73.3-65.7c-1.8-1.6-4.6-1.6-6.3,0.2l-24.8,24.8c-1.7,1.7-1.8,4.5-0.2,6.3l65.7,73.3  c10.5,11.9,28.9,12.5,40.2,1.3l0,0C411,388.5,410.4,370.1,398.5,359.5z"/>
<path style="fill:#FFFFFF;" d="M129,129c-41.9,41.9-41.9,109.8,0,151.6c41.9,41.9,109.8,41.9,151.6,0c41.8-41.9,41.9-109.8,0-151.6  C238.7,87.2,170.9,87.1,129,129z M255.3,255.3c-27.9,27.9-73.1,27.9-101,0s-27.9-73.1,0-101s73.1-27.9,101,0  S283.2,227.4,255.3,255.3z"/>
<path style="fill:#FF7058;" d="M208.5,241.3v11.4h-7.6v-11c-7.1,0-13.7-1.6-19.8-4.8v-14.5c2,1.6,5,3.2,9.1,4.6  c4,1.4,7.6,2.2,10.7,2.4v-19.1c-8.2-3-13.7-6.3-16.7-9.9c-3-3.5-4.5-7.9-4.5-13c0-5.5,1.9-10.2,5.8-14c3.9-3.9,9-6.1,15.4-6.7V157  h7.6v9.5c7.4,0.3,12.9,1.5,16.5,3.6v14.1c-4.9-3-10.4-4.8-16.5-5.4v19.8c7.6,2.8,13.1,5.9,16.4,9.5c3.3,3.5,5,7.8,5,12.9  c0,5.8-1.9,10.5-5.6,14C220.7,238.4,215.4,240.6,208.5,241.3z M200.9,195.5v-16.6c-4.9,0.9-7.3,3.4-7.3,7.6  C193.6,190.1,196,193.1,200.9,195.5z M208.5,213.2v15.9c5-0.8,7.5-3.3,7.5-7.5C216,218.2,213.5,215.4,208.5,213.2z"/>
<g>
</g>
<g>
</g>
<g>
</g>
<g>
</g>
<g>
</g>
<g>
</g>
<g>
</g>
<g>
</g>
<g>
</g>
<g>
</g>
<g>
</g>
<g>
</g>
<g>
</g>
<g>
</g>
<g>
</g>
</svg>
