<?xml version="1.0" encoding="iso-8859-1"?>
<!-- Generator: Adobe Illustrator 19.0.0, SVG Export Plug-In . SVG Version: 6.00 Build 0)  -->
<svg xmlns="http://www.w3.org/2000/svg" xmlns:xlink="http://www.w3.org/1999/xlink" version="1.1" id="Layer_1" x="0px" y="0px" viewBox="0 0 505 505" style="enable-background:new 0 0 505 505;" xml:space="preserve">
<circle style="fill:#324A5E;" cx="252.5" cy="252.5" r="252.5"/>
<path style="fill:#EDF2F2;" d="M140.9,121.8c-21.5,16.8-25.4,47.9-8.5,69.5L234,321.4l39-30.5L140.9,121.8z"/>
<path style="fill:#54C0EB;" d="M305.8,307.3l-11.9,9.3l-32.7-41.9c-1.4-1.8-4.1-2.2-5.9-0.7l-33.4,26.1c-1.8,1.4-2.2,4.1-0.7,5.9  l58.3,74.6l0.1-0.3c0.5,0.7,0.8,1.5,1.3,2.1l30.1,38.5c14.9,19.1,42.5,22.5,61.5,7.6l17.4-13.6c19.1-14.9,22.5-42.5,7.6-61.5  l-30.1-38.5C352.4,295.8,324.9,292.4,305.8,307.3z M381.6,365.7c8.1,10.4,6.3,25.4-4.1,33.5l-17.4,13.6c-10.4,8.1-25.4,6.2-33.5-4.1  l-30.1-38.5c-8.1-10.4-6.3-25.4,4.1-33.5l17.4-13.6c10.4-8.1,25.4-6.2,33.5,4.1L381.6,365.7z"/>
<path style="fill:#FFFFFF;" d="M364.1,118.5c21.5,16.8,25.4,47.9,8.5,69.5L271,318.1l-39-30.5L364.1,118.5z"/>
<path style="fill:#84DBFF;" d="M137.7,311.6l-30.1,38.5c-14.9,19.1-11.5,46.6,7.6,61.5l17.4,13.6c19.1,14.9,46.6,11.5,61.5-7.6  l30.1-38.5c0.5-0.7,0.9-1.4,1.3-2.1l0.1,0.3l58.3-74.6c1.4-1.8,1.1-4.5-0.7-5.9l-33.4-26.1c-1.8-1.4-4.5-1.1-5.9,0.7l-32.7,41.9  l-11.9-9.3C180.1,289.1,152.6,292.5,137.7,311.6z M153.4,323.9c8.1-10.4,23.1-12.2,33.5-4.1l17.4,13.6c10.4,8.1,12.2,23.1,4.1,33.5  l-30.1,38.5c-8.1,10.4-23.1,12.2-33.5,4.1l-17.3-13.6c-10.4-8.1-12.2-23.1-4.1-33.5L153.4,323.9z"/>
<circle style="fill:#324A5E;" cx="254" cy="300.8" r="10.3"/>
<path style="fill:#FF7058;" d="M221.9,124.3c-6.8,0-12.3-2.5-16.4-7.4c-4.2-4.9-6.2-11.6-6.2-19.9c0-9.1,2.2-16.3,6.6-21.7  c4.4-5.3,10.3-8,17.7-8c7.1,0,12.6,2.4,16.6,7.3c4,4.8,6,11.6,6,20.4c0,9-2.2,16.2-6.6,21.5C235.2,121.6,229.3,124.3,221.9,124.3z   M291.8,68.8l-62.3,109.5h-16.3l62.2-109.5H291.8z M223.2,80.7c-6.5,0-9.7,5.2-9.7,15.5c0,9.8,3.1,14.7,9.3,14.7  c6.3,0,9.5-5.1,9.5-15.3C232.2,85.6,229.2,80.7,223.2,80.7z M281.5,179.8c-6.8,0-12.3-2.5-16.4-7.4c-4.2-4.9-6.2-11.6-6.2-19.9  c0-9.1,2.2-16.3,6.6-21.7c4.4-5.3,10.3-8,17.7-8c7.1,0,12.7,2.4,16.6,7.2c4,4.8,5.9,11.6,5.9,20.3c0,9-2.2,16.2-6.6,21.5  C294.7,177.1,288.9,179.8,281.5,179.8z M282.6,136.2c-6.4,0-9.7,5.2-9.7,15.5c0,9.8,3.1,14.7,9.4,14.7s9.5-5.1,9.5-15.3  c0-4.7-0.8-8.4-2.5-11C287.6,137.5,285.3,136.2,282.6,136.2z"/>
<g>
</g>
<g>
</g>
<g>
</g>
<g>
</g>
<g>
</g>
<g>
</g>
<g>
</g>
<g>
</g>
<g>
</g>
<g>
</g>
<g>
</g>
<g>
</g>
<g>
</g>
<g>
</g>
<g>
</g>
</svg>
