<?xml version="1.0" encoding="iso-8859-1"?>
<!-- Generator: Adobe Illustrator 19.0.0, SVG Export Plug-In . SVG Version: 6.00 Build 0)  -->
<svg xmlns="http://www.w3.org/2000/svg" xmlns:xlink="http://www.w3.org/1999/xlink" version="1.1" id="Layer_1" x="0px" y="0px" viewBox="0 0 505 505" style="enable-background:new 0 0 505 505;" xml:space="preserve">
<circle style="fill:#FD8469;" cx="252.5" cy="252.5" r="252.5"/>
<g>
	<path style="fill:#324A5E;" d="M296.6,362.4l31,35.1c3.9,4.4,10.4,5.1,15.1,1.8c4.7-3.4,6.1-9.8,3.2-14.8L322.5,344L296.6,362.4z"/>
	<path style="fill:#324A5E;" d="M208.4,362.4l-31,35.1c-3.9,4.4-10.4,5.1-15.1,1.8c-4.7-3.4-6.1-9.8-3.2-14.8l23.4-40.5L208.4,362.4   z"/>
</g>
<g>
	<path style="fill:#FFD05B;" d="M384.4,117.1c-17.5-17.5-45.5-17.9-63.7-1.4l65.1,65.1C402.3,162.7,402,134.7,384.4,117.1z"/>
	<path style="fill:#FFD05B;" d="M120.6,117.1c-17.5,17.5-17.9,45.5-1.4,63.7l65.1-65.1C166.1,99.2,138.1,99.6,120.6,117.1z"/>
</g>
<circle style="fill:#324A5E;" cx="252.5" cy="249.8" r="131.1"/>
<circle style="fill:#EDF2F2;" cx="252.5" cy="249.8" r="102.3"/>
<g>
	<rect x="246.2" y="173.9" style="fill:#FF7058;" width="12.6" height="94.4"/>
	<rect x="232.2" y="243.5" style="fill:#FF7058;" width="89.1" height="12.6"/>
</g>
<g>
	<circle style="fill:#324A5E;" cx="252.5" cy="159.9" r="4.3"/>
	<circle style="fill:#324A5E;" cx="252.5" cy="339.8" r="4.3"/>
	<circle style="fill:#324A5E;" cx="342.5" cy="249.8" r="4.3"/>
	<circle style="fill:#324A5E;" cx="162.5" cy="249.8" r="4.3"/>
</g>
<g>
</g>
<g>
</g>
<g>
</g>
<g>
</g>
<g>
</g>
<g>
</g>
<g>
</g>
<g>
</g>
<g>
</g>
<g>
</g>
<g>
</g>
<g>
</g>
<g>
</g>
<g>
</g>
<g>
</g>
</svg>
