<?xml version="1.0" encoding="iso-8859-1"?>
<!-- Generator: Adobe Illustrator 19.0.0, SVG Export Plug-In . SVG Version: 6.00 Build 0)  -->
<svg xmlns="http://www.w3.org/2000/svg" xmlns:xlink="http://www.w3.org/1999/xlink" version="1.1" id="Layer_1" x="0px" y="0px" viewBox="0 0 505 505" style="enable-background:new 0 0 505 505;" xml:space="preserve">
<circle style="fill:#90DFAA;" cx="252.5" cy="252.5" r="252.5"/>
<path style="fill:#FFFFFF;" d="M348.4,75H156.6c-7,0-12.6,5.4-12.6,12.2V418c0,6.7,5.7,12.1,12.6,12.1h191.7c7,0,12.6-5.4,12.6-12.1  V87.1C361,80.4,355.3,75,348.4,75z"/>
<rect x="163.3" y="93.6" style="fill:#324A5E;" width="178.3" height="229.6"/>
<polygon style="fill:#84DBFF;" points="253.1,341.6 252.4,341.6 163.3,341.6 163.3,375.2 163.3,408.9 252.4,408.9 253.1,408.9   341.7,408.9 341.7,375.2 341.7,341.6 "/>
<path style="fill:#54C0EB;" d="M270,354.5h-39.4c-2.2,0-4,1.8-4,4v33.4c0,2.2,1.8,4,4,4H270c2.2,0,4-1.8,4-4v-33.4  C274.1,356.3,272.3,354.5,270,354.5z"/>
<rect x="235.1" y="361.9" style="fill:#EDF2F2;" width="30.6" height="26.7"/>
<g>
	<rect x="294.9" y="357" style="fill:#54C0EB;" width="26.9" height="5.5"/>
	<rect x="294.9" y="388" style="fill:#54C0EB;" width="26.9" height="5.5"/>
	<rect x="183.2" y="357" style="fill:#54C0EB;" width="26.9" height="5.5"/>
	<rect x="183.2" y="388" style="fill:#54C0EB;" width="26.9" height="5.5"/>
</g>
<g>
</g>
<g>
</g>
<g>
</g>
<g>
</g>
<g>
</g>
<g>
</g>
<g>
</g>
<g>
</g>
<g>
</g>
<g>
</g>
<g>
</g>
<g>
</g>
<g>
</g>
<g>
</g>
<g>
</g>
</svg>
