<?xml version="1.0" encoding="iso-8859-1"?>
<!-- Generator: Adobe Illustrator 19.0.0, SVG Export Plug-In . SVG Version: 6.00 Build 0)  -->
<svg xmlns="http://www.w3.org/2000/svg" xmlns:xlink="http://www.w3.org/1999/xlink" version="1.1" id="Layer_1" x="0px" y="0px" viewBox="0 0 505 505" style="enable-background:new 0 0 505 505;" xml:space="preserve">
<path style="fill:#FD8469;" d="M505,252.5c0,137.1-109.3,248.8-245.6,252.4c-2.3,0-4.6,0.1-6.9,0.1c-4.3,0-8.6-0.1-12.8-0.3  C106.2,498,0,387.7,0,252.5C0,113,113,0,252.5,0S505,113,505,252.5z"/>
<g>
	<polygon style="fill:#324A5E;" points="206.3,408 250.2,328.8 226.1,315.5 174.8,408  "/>
	<polygon style="fill:#324A5E;" points="330.1,408 278.8,315.5 254.7,328.8 298.6,408  "/>
</g>
<g>
	<polygon style="fill:#2B3B4E;" points="229.9,365.4 250.2,328.8 226.1,315.5 198.4,365.4  "/>
	<polygon style="fill:#2B3B4E;" points="306.4,365.4 278.8,315.5 254.7,328.8 275,365.4  "/>
</g>
<path style="fill:#FFFFFF;" d="M402.2,123.7H102.8c-4.5,0-8.1,3.6-8.1,8.1v209.9c0,4.5,3.6,8.1,8.1,8.1h299.4c4.5,0,8.1-3.6,8.1-8.1  V131.8C410.3,127.3,406.7,123.7,402.2,123.7z"/>
<polygon style="fill:#324A5E;" points="276.3,276.6 225.5,208.8 165.8,272.8 159.1,266.5 226.3,194.5 277.3,262.7 339.3,200.6   345.8,207.1 "/>
<circle style="fill:#4CDBC4;" cx="162.4" cy="269.6" r="18.2"/>
<circle style="fill:#54C0EB;" cx="228.2" cy="203.9" r="18.2"/>
<circle style="fill:#FF7058;" cx="276.8" cy="269.6" r="18.2"/>
<circle style="fill:#FFD05B;" cx="342.6" cy="203.9" r="18.2"/>
<g>
</g>
<g>
</g>
<g>
</g>
<g>
</g>
<g>
</g>
<g>
</g>
<g>
</g>
<g>
</g>
<g>
</g>
<g>
</g>
<g>
</g>
<g>
</g>
<g>
</g>
<g>
</g>
<g>
</g>
</svg>
