<?xml version="1.0" encoding="iso-8859-1"?>
<!-- Generator: Adobe Illustrator 19.0.0, SVG Export Plug-In . SVG Version: 6.00 Build 0)  -->
<svg xmlns="http://www.w3.org/2000/svg" xmlns:xlink="http://www.w3.org/1999/xlink" version="1.1" id="Layer_1" x="0px" y="0px" viewBox="0 0 505 505" style="enable-background:new 0 0 505 505;" xml:space="preserve">
<circle style="fill:#54C0EB;" cx="252.5" cy="252.5" r="252.5"/>
<polygon style="fill:#FFFFFF;" points="130.5,365.9 353.5,365.9 353.5,84.8 191.6,84.8 130.5,146 "/>
<polygon style="fill:#EDF2F2;" points="191.6,84.8 130.5,146 191.6,146 "/>
<path style="fill:#324A5E;" d="M356.3,244.4c-7.7,1.2-13,8.4-13,16.2v14.6h-2.4v-20.4c0-7.8-5.3-15-13-16.2  c-9.8-1.6-18.2,5.9-18.2,15.4v21.2h-2.4v-25c0-7.8-5.3-15-13-16.2c-9.8-1.6-18.2,5.9-18.2,15.4v25.8h-2.9v-77.8  c0-7.8-5.3-15-13-16.2c-9.8-1.6-18.2,5.9-18.2,15.4v78.6v11.4v73.1l-7.7-9.3c-0.4-0.6-0.7-1.4-0.7-2.2v-22.7  c0-16.1-13-29.2-29.1-29.2c-0.5,0-0.9,0.4-0.9,0.9v61.7c0,1.7,0.6,3.3,1.7,4.5l45.9,53.9c1.4,1.7,3.6,2.7,5.8,2.7h98.5  c10.4,0,18.9-8.5,18.9-18.9v-51.5h0.1v-90.1C374.5,250.3,366,242.8,356.3,244.4z"/>
<g>
</g>
<g>
</g>
<g>
</g>
<g>
</g>
<g>
</g>
<g>
</g>
<g>
</g>
<g>
</g>
<g>
</g>
<g>
</g>
<g>
</g>
<g>
</g>
<g>
</g>
<g>
</g>
<g>
</g>
</svg>
