<?xml version="1.0" encoding="iso-8859-1"?>
<!-- Generator: Adobe Illustrator 19.0.0, SVG Export Plug-In . SVG Version: 6.00 Build 0)  -->
<svg xmlns="http://www.w3.org/2000/svg" xmlns:xlink="http://www.w3.org/1999/xlink" version="1.1" id="Layer_1" x="0px" y="0px" viewBox="0 0 505 505" style="enable-background:new 0 0 505 505;" xml:space="preserve">
<circle style="fill:#84DBFF;" cx="252.5" cy="252.5" r="252.5"/>
<path style="fill:#FFFFFF;" d="M400.1,402.5H104.9c-1.7,0-3-1.4-3-3v-294c0-1.7,1.4-3,3-3h295.2c1.7,0,3,1.4,3,3v294  C403.1,401.2,401.8,402.5,400.1,402.5z"/>
<rect x="127.6" y="128.2" style="fill:#324A5E;" width="249.7" height="198.9"/>
<polygon style="fill:#2C9984;" points="203.8,215.8 131.3,327.1 276.3,327.1 "/>
<polygon style="fill:#4CDBC4;" points="318.1,235.6 262.5,327.1 373.7,327.1 "/>
<g>
	<polygon style="fill:#FFFFFF;" points="203.8,215.8 180.9,250.9 192.4,245.1 203.8,255.5 214.3,245.1 226.5,250.7  "/>
	<polygon style="fill:#FFFFFF;" points="318.1,235.6 302.3,261.6 312.9,255.5 318.3,264.4 324,255.5 333.6,261.1  "/>
	<circle style="fill:#FFFFFF;" cx="262.5" cy="184.1" r="19.7"/>
</g>
<polygon style="fill:#E6E9EE;" points="174.4,173.3 191.7,171.7 174.4,170.1 180.5,162.9 173.2,168.9 171.7,151.6 170.1,168.9   162.8,162.9 168.9,170.1 151.6,171.7 168.9,173.3 162.8,180.5 170.1,174.5 171.7,191.8 173.2,174.5 180.5,180.5 "/>
<polygon style="fill:#4CDBC4;" points="272.7,258.8 286.7,257.5 272.7,256.2 277.6,250.4 271.7,255.2 270.5,241.2 269.2,255.2   263.3,250.4 268.2,256.2 254.2,257.5 268.2,258.8 263.3,264.7 269.2,259.8 270.5,273.8 271.7,259.8 277.6,264.7 "/>
<polygon style="fill:#FFD05B;" points="343.3,162.5 356,161.4 343.3,160.2 347.7,154.9 342.4,159.3 341.3,146.6 340.1,159.3   334.8,154.9 339.2,160.2 326.5,161.4 339.2,162.5 334.8,167.8 340.1,163.4 341.3,176.1 342.4,163.4 347.7,167.8 "/>
<g>
</g>
<g>
</g>
<g>
</g>
<g>
</g>
<g>
</g>
<g>
</g>
<g>
</g>
<g>
</g>
<g>
</g>
<g>
</g>
<g>
</g>
<g>
</g>
<g>
</g>
<g>
</g>
<g>
</g>
</svg>
