<?xml version="1.0" encoding="iso-8859-1"?>
<!-- Generator: Adobe Illustrator 19.0.0, SVG Export Plug-In . SVG Version: 6.00 Build 0)  -->
<svg xmlns="http://www.w3.org/2000/svg" xmlns:xlink="http://www.w3.org/1999/xlink" version="1.1" id="Layer_1" x="0px" y="0px" viewBox="0 0 505 505" style="enable-background:new 0 0 505 505;" xml:space="preserve">
<circle style="fill:#90DFAA;" cx="252.5" cy="252.5" r="252.5"/>
<path style="fill:#FFFFFF;" d="M331.2,146c-6.7-7.1-10.4-16-10.7-25.8c-0.2-6.3-2.6-12.5-7.4-17.3s-11-7.3-17.3-7.4  c-9.8-0.3-18.7-4-25.8-10.7c-4.6-4.3-10.7-7-17.5-7c-6.8,0-12.9,2.7-17.5,7c-7.1,6.7-16,10.4-25.8,10.7c-6.3,0.2-12.5,2.6-17.3,7.4  s-7.3,11-7.4,17.3c-0.3,9.8-4,18.7-10.7,25.8c-4.3,4.6-7,10.7-7,17.5s2.7,12.9,7,17.5c6.7,7.1,10.4,16,10.7,25.8  c0.2,6.3,2.6,12.5,7.4,17.3c4.8,4.8,11,7.3,17.3,7.4c9.8,0.3,18.7,4,25.8,10.7c4.6,4.3,10.7,7,17.5,7c6.8,0,12.9-2.7,17.5-7  c7.1-6.7,16-10.4,25.8-10.7c6.3-0.2,12.5-2.6,17.3-7.4c4.8-4.8,7.3-11,7.4-17.3c0.3-9.8,4-18.7,10.7-25.8c4.3-4.6,7-10.7,7-17.5  S335.5,150.5,331.2,146z"/>
<path style="fill:#FF7058;" d="M252.5,227.5c-3.5,0-6.8-1.3-9.3-3.7c-7.4-7-16.6-10.8-26.8-11.1c-3.5-0.1-6.7-1.5-9.2-3.9  c-2.5-2.5-3.9-5.7-4-9.2c-0.3-10.2-4.1-19.4-11.1-26.8c-2.4-2.5-3.7-5.8-3.7-9.3s1.3-6.8,3.7-9.3c7-7.4,10.8-16.6,11.1-26.8  c0.1-3.5,1.5-6.7,4-9.2s5.7-3.9,9.2-4c10.2-0.3,19.4-4.1,26.8-11.1c2.5-2.4,5.8-3.7,9.3-3.7s6.8,1.3,9.3,3.7  c7.4,7,16.6,10.8,26.8,11.1c3.5,0.1,6.7,1.5,9.2,4s3.9,5.7,4,9.2c0.3,10.2,4.1,19.4,11.1,26.8c2.4,2.5,3.7,5.8,3.7,9.3  s-1.3,6.8-3.7,9.3c-7,7.4-10.8,16.6-11.1,26.8c-0.1,3.5-1.5,6.7-4,9.2s-5.7,3.9-9.2,4c-10.2,0.3-19.4,4.1-26.8,11.1  C259.3,226.2,256,227.5,252.5,227.5z"/>
<path style="fill:#FFFFFF;" d="M270.1,191.5h-34.8v-9.6h11.4v-34.3l-11.7,2.5v-9.8l23.8-4.8v46.4h11.3L270.1,191.5L270.1,191.5z"/>
<path style="fill:#324A5E;" d="M307.8,257l-55.3,71.9L197.1,257c-58.2,22.1-99.7,78-100.5,143.8h311.8  C407.6,335,366,279.1,307.8,257z"/>
<g>
</g>
<g>
</g>
<g>
</g>
<g>
</g>
<g>
</g>
<g>
</g>
<g>
</g>
<g>
</g>
<g>
</g>
<g>
</g>
<g>
</g>
<g>
</g>
<g>
</g>
<g>
</g>
<g>
</g>
</svg>
