<?xml version="1.0" encoding="iso-8859-1"?>
<!-- Generator: Adobe Illustrator 19.0.0, SVG Export Plug-In . SVG Version: 6.00 Build 0)  -->
<svg xmlns="http://www.w3.org/2000/svg" xmlns:xlink="http://www.w3.org/1999/xlink" version="1.1" id="Layer_1" x="0px" y="0px" viewBox="0 0 505 505" style="enable-background:new 0 0 505 505;" xml:space="preserve">
<circle style="fill:#FFD05B;" cx="252.5" cy="252.5" r="252.5"/>
<g>
	<rect x="141.7" y="143.3" style="fill:#FFFFFF;" width="13.6" height="7"/>
	<rect x="141.7" y="174.6" style="fill:#FFFFFF;" width="13.6" height="7"/>
	<rect x="141.7" y="205.8" style="fill:#FFFFFF;" width="13.6" height="7"/>
	<rect x="141.7" y="237.1" style="fill:#FFFFFF;" width="13.6" height="7"/>
	<rect x="141.7" y="268.4" style="fill:#FFFFFF;" width="13.6" height="7"/>
	<rect x="141.7" y="299.7" style="fill:#FFFFFF;" width="13.6" height="7"/>
	<rect x="141.7" y="330.9" style="fill:#FFFFFF;" width="13.6" height="7"/>
	<rect x="169" y="350.7" style="fill:#FFFFFF;" width="7" height="13.6"/>
	<rect x="200.3" y="350.7" style="fill:#FFFFFF;" width="7" height="13.6"/>
	<rect x="231.6" y="350.7" style="fill:#FFFFFF;" width="7" height="13.6"/>
	<rect x="262.8" y="350.7" style="fill:#FFFFFF;" width="7" height="13.6"/>
	<rect x="294.1" y="350.7" style="fill:#FFFFFF;" width="7" height="13.6"/>
	<rect x="325.4" y="350.7" style="fill:#FFFFFF;" width="7" height="13.6"/>
	<rect x="356.7" y="350.7" style="fill:#FFFFFF;" width="7" height="13.6"/>
	<polygon style="fill:#FFFFFF;" points="141.7,364.3 141.7,120.4 121.4,120.4 121.4,364.3 121.4,364.7 121.4,384.6 383.6,384.6    383.6,364.3  "/>
</g>
<polygon style="fill:#324A5E;" points="383.6,204.7 382,160.5 337.7,168.9 352.4,180.4 301.9,245.7 250.9,206.2 181.9,295.4   197.4,307.4 254.4,233.8 305.4,273.3 367.9,192.5 "/>
<g>
</g>
<g>
</g>
<g>
</g>
<g>
</g>
<g>
</g>
<g>
</g>
<g>
</g>
<g>
</g>
<g>
</g>
<g>
</g>
<g>
</g>
<g>
</g>
<g>
</g>
<g>
</g>
<g>
</g>
</svg>
