<?xml version="1.0" encoding="iso-8859-1"?>
<!-- Generator: Adobe Illustrator 19.0.0, SVG Export Plug-In . SVG Version: 6.00 Build 0)  -->
<svg xmlns="http://www.w3.org/2000/svg" xmlns:xlink="http://www.w3.org/1999/xlink" version="1.1" id="Layer_1" x="0px" y="0px" viewBox="0 0 503.4 503.4" style="enable-background:new 0 0 503.4 503.4;" xml:space="preserve">
<circle style="fill:#FD8469;" cx="251.7" cy="251.7" r="251.7"/>
<path style="fill:#EDF2F2;" d="M198.1,208.2c-16.1-21.2-28.6-45.1-36.5-70.5c-3.4-10.8-5.7-23.4,0.9-32.6c6-8.4,17.7-10.9,27.9-9.3  c10.2,1.5,19.6,6.3,29.3,9.7c9.7,3.4,20.7,5.5,30.2,1.6c7.4-3,12.9-9.1,19.3-13.9c13.6-10.2,32.3-14.1,48.3-8.2  c16,5.8,28.2,22,27.5,39c-0.5,12.2-6.9,23.3-13.2,33.7c-11.1,18.6-22.3,37.2-33.4,55.8"/>
<path style="fill:#FFD05B;" d="M251.7,179.9c-63.6,0-115.2,99.8-115.2,163.4c0,0.3,0,0.6,0,0.9c0.3,43,36.6,77.1,79.6,77.1h71.1  c43,0,79.3-34.1,79.6-77.1c0-0.3,0-0.6,0-0.9C366.9,279.6,315.3,179.9,251.7,179.9z"/>
<path style="fill:#324A5E;" d="M256,342.9v13.2h-8.9v-12.8c-8.2,0-15.9-1.9-23-5.6v-16.8c2.4,1.9,5.9,3.7,10.5,5.3  c4.7,1.6,8.8,2.6,12.5,2.8v-22.1c-9.5-3.5-16-7.3-19.4-11.5c-3.5-4.1-5.2-9.1-5.2-15c0-6.4,2.2-11.8,6.7-16.3s10.5-7.1,17.9-7.8V245  h8.9v11.1c8.5,0.4,14.9,1.8,19.1,4.1v16.4c-5.7-3.4-12.1-5.6-19.1-6.3v23c8.9,3.2,15.2,6.9,19.1,11c3.8,4.1,5.8,9.1,5.8,14.9  c0,6.7-2.1,12.1-6.4,16.3C270.1,339.5,264,342,256,342.9z M247.1,289.7v-19.3c-5.6,1-8.4,4-8.4,8.8  C238.7,283.5,241.5,286.9,247.1,289.7z M256,310.3v18.4c5.8-0.9,8.7-3.8,8.7-8.7C264.7,316,261.8,312.8,256,310.3z"/>
<g>
</g>
<g>
</g>
<g>
</g>
<g>
</g>
<g>
</g>
<g>
</g>
<g>
</g>
<g>
</g>
<g>
</g>
<g>
</g>
<g>
</g>
<g>
</g>
<g>
</g>
<g>
</g>
<g>
</g>
</svg>
