<?xml version="1.0" encoding="iso-8859-1"?>
<!-- Generator: Adobe Illustrator 19.0.0, SVG Export Plug-In . SVG Version: 6.00 Build 0)  -->
<svg xmlns="http://www.w3.org/2000/svg" xmlns:xlink="http://www.w3.org/1999/xlink" version="1.1" id="Layer_1" x="0px" y="0px" viewBox="0 0 505 505" style="enable-background:new 0 0 505 505;" xml:space="preserve">
<circle style="fill:#324A5E;" cx="252.5" cy="252.5" r="252.5"/>
<path style="fill:#2B3B4E;" d="M27,366.1C68.6,448.5,153.9,505,252.5,505S436.4,448.5,478,366.1H27z"/>
<g>
	<path style="fill:#FFD05B;" d="M322.7,264H182.3c-3.6,0-6.1-3.5-5.1-6.9l24.1-76.1c0.7-2.2,2.7-3.7,5.1-3.7h92.1   c2.3,0,4.4,1.5,5.1,3.7l24.1,76.1C328.8,260.6,326.2,264,322.7,264z"/>
	<path style="fill:#FFD05B;" d="M238.8,365H98.5c-3.6,0-6.1-3.5-5.1-6.9l24.1-76.1c0.7-2.2,2.7-3.7,5.1-3.7h92.1   c2.3,0,4.4,1.5,5.1,3.7l24.1,76.1C244.9,361.5,242.4,365,238.8,365z"/>
	<path style="fill:#FFD05B;" d="M406.5,365H266.2c-3.6,0-6.1-3.5-5.1-6.9l24.1-76.1c0.7-2.2,2.7-3.7,5.1-3.7h92.1   c2.3,0,4.4,1.5,5.1,3.7l24.1,76.1C412.7,361.5,410.1,365,406.5,365z"/>
</g>
<g>
	<path style="fill:#FFFFFF;" d="M252.5,72.8c0,30.4,4,38.6,13.9,28.2c-9.9,10.4-0.8,11.7,31.1,4.5c-32,7.2-38.5,13.6-22.5,22   c-16-8.4-14.4,0.6,5.3,31c-19.8-30.4-27.8-34.7-27.8-14.6c0-20-8.1-15.8-27.8,14.6c19.8-30.4,21.3-39.4,5.3-31   c16-8.4,9.4-14.8-22.5-22c32,7.2,41,5.9,31.1-4.5C248.5,111.4,252.5,103.2,252.5,72.8z"/>
	<path style="fill:#FFFFFF;" d="M370.8,164.4c0,29.1,2.8,34.2,13.1,23.9c-10.3,10.3-5.2,13.1,23.9,13.1c-29.1,0-34.2,2.8-23.9,13.1   c-10.3-10.3-13.1-5.2-13.1,23.9c0-29.1-2.8-34.2-13.1-23.9c10.3-10.3,5.2-13.1-23.9-13.1c29.1,0,34.2-2.8,23.9-13.1   C368,198.6,370.8,193.5,370.8,164.4z"/>
	<path style="fill:#FFFFFF;" d="M134.2,164.4c0,29.1,2.8,34.2,13.1,23.9c-10.3,10.3-5.2,13.1,23.9,13.1c-29.1,0-34.2,2.8-23.9,13.1   c-10.3-10.3-13.1-5.2-13.1,23.9c0-29.1-2.8-34.2-13.1-23.9c10.3-10.3,5.2-13.1-23.9-13.1c29.1,0,34.2-2.8,23.9-13.1   C131.4,198.6,134.2,193.5,134.2,164.4z"/>
</g>
<g>
</g>
<g>
</g>
<g>
</g>
<g>
</g>
<g>
</g>
<g>
</g>
<g>
</g>
<g>
</g>
<g>
</g>
<g>
</g>
<g>
</g>
<g>
</g>
<g>
</g>
<g>
</g>
<g>
</g>
</svg>
