<?xml version="1.0" encoding="iso-8859-1"?>
<!-- Generator: Adobe Illustrator 19.0.0, SVG Export Plug-In . SVG Version: 6.00 Build 0)  -->
<svg xmlns="http://www.w3.org/2000/svg" xmlns:xlink="http://www.w3.org/1999/xlink" version="1.1" id="Layer_1" x="0px" y="0px" viewBox="0 0 505 505" style="enable-background:new 0 0 505 505;" xml:space="preserve">
<circle style="fill:#84DBFF;" cx="252.5" cy="252.5" r="252.5"/>
<path style="fill:#324A5E;" d="M215.2,155.1v-21.8c0-0.2,0.2-0.4,0.5-0.4h73.8c0.2,0,0.5,0.2,0.5,0.4v21.8h21.5v-38c0-3.3-2.7-6-6-6  h-106c-3.3,0-6,2.7-6,6v38H215.2z"/>
<path style="fill:#F1543F;" d="M101.1,241.3V388c0,3.3,2.7,5.9,6.1,5.9h290.5c3.4,0,6.1-2.6,6.1-5.9V241.3H101.1z"/>
<path style="fill:#FF7058;" d="M405,150.9H100c-2.9,0-5.3,2.4-5.3,5.3v109.2c0,6.5,4.3,12.3,10.6,14.1  c36.5,10.3,161.9,39.5,294.5,0.1c6.2-1.8,10.5-7.7,10.5-14.2V156.2C410.3,153.3,408,150.9,405,150.9z"/>
<path style="fill:#FFD05B;" d="M266.1,275.2h-27.3c-1,0-1.9,1.2-1.9,2.7v48.4c0,1.5,0.8,2.7,1.9,2.7h27.3c1,0,1.9-1.2,1.9-2.7v-48.4  C268,276.4,267.2,275.2,266.1,275.2z"/>
<g>
</g>
<g>
</g>
<g>
</g>
<g>
</g>
<g>
</g>
<g>
</g>
<g>
</g>
<g>
</g>
<g>
</g>
<g>
</g>
<g>
</g>
<g>
</g>
<g>
</g>
<g>
</g>
<g>
</g>
</svg>
