<?xml version="1.0" encoding="iso-8859-1"?>
<!-- Generator: Adobe Illustrator 19.0.0, SVG Export Plug-In . SVG Version: 6.00 Build 0)  -->
<svg xmlns="http://www.w3.org/2000/svg" xmlns:xlink="http://www.w3.org/1999/xlink" version="1.1" id="Layer_1" x="0px" y="0px" viewBox="0 0 505 505" style="enable-background:new 0 0 505 505;" xml:space="preserve">
<circle style="fill:#324A5E;" cx="252.5" cy="252.5" r="252.5"/>
<polygon style="fill:#FFFFFF;" points="400.5,281.9 430,252.5 400.5,223.1 416.4,184.6 378,168.7 378,127 336.3,127 320.4,88.6   281.9,104.5 252.5,75 223.1,104.5 184.6,88.6 168.7,127 127,127 127,168.7 88.6,184.6 104.5,223.1 75,252.5 104.5,281.9 88.6,320.4   127,336.3 127,378 168.7,378 184.6,416.4 223.1,400.5 252.5,430 281.9,400.5 320.4,416.4 336.3,378 378,378 378,336.3 416.4,320.4   "/>
<path style="fill:#FF7058;" d="M206.8,253.5c-10.2,0-18.4-3.2-24.6-9.7c-6.2-6.5-9.3-15.1-9.3-26c0-11.9,3.3-21.4,9.9-28.3  c6.6-7,15.5-10.5,26.5-10.5c10.6,0,18.8,3.2,24.8,9.5s8.9,15.2,8.9,26.6c0,11.8-3.3,21.1-9.9,28C226.6,250,217.8,253.5,206.8,253.5z   M311.3,181l-93.2,143.1h-24.3l93-143.1H311.3z M208.7,196.5c-9.7,0-14.6,6.8-14.6,20.3c0,12.8,4.6,19.2,13.9,19.2  c9.4,0,14.2-6.7,14.2-20C222.2,203,217.7,196.5,208.7,196.5z M295.9,326c-10.2,0-18.4-3.2-24.6-9.7s-9.3-15.1-9.3-26  c0-11.9,3.3-21.4,9.9-28.3c6.6-7,15.5-10.5,26.5-10.5c10.6,0,18.9,3.1,24.8,9.4s8.9,15.1,8.9,26.5c0,11.8-3.3,21.2-9.9,28.1  C315.7,322.6,306.9,326,295.9,326z M297.5,269.1c-9.6,0-14.5,6.8-14.5,20.3c0,12.8,4.7,19.2,14.1,19.2s14.2-6.7,14.2-20  c0-6.2-1.3-11-3.8-14.4C305,270.8,301.6,269.1,297.5,269.1z"/>
<g>
</g>
<g>
</g>
<g>
</g>
<g>
</g>
<g>
</g>
<g>
</g>
<g>
</g>
<g>
</g>
<g>
</g>
<g>
</g>
<g>
</g>
<g>
</g>
<g>
</g>
<g>
</g>
<g>
</g>
</svg>
