<?xml version="1.0" encoding="iso-8859-1"?>
<!-- Generator: Adobe Illustrator 19.0.0, SVG Export Plug-In . SVG Version: 6.00 Build 0)  -->
<svg xmlns="http://www.w3.org/2000/svg" xmlns:xlink="http://www.w3.org/1999/xlink" version="1.1" id="Layer_1" x="0px" y="0px" viewBox="0 0 505 505" style="enable-background:new 0 0 505 505;" xml:space="preserve">
<path style="fill:#FFD05B;" d="M505,252.5c0,70.2-28.6,133.7-74.9,179.4C384.5,477.1,321.7,505,252.5,505s-132-27.9-177.6-73  C28.6,386.2,0,322.7,0,252.5C0,113.1,113,0,252.5,0C391.9,0,505,113.1,505,252.5z"/>
<path style="fill:#FFFFFF;" d="M436.9,362.1H68.1c-1,0-1.9-0.8-1.9-1.9v-159c0-1,0.8-1.9,1.9-1.9h368.7c1,0,1.9,0.8,1.9,1.9v159  C438.7,361.2,437.9,362.1,436.9,362.1z"/>
<g>
	<rect x="88.2" y="220.8" style="fill:#EDF2F2;" width="20.5" height="20.5"/>
	<rect x="126.7" y="220.8" style="fill:#EDF2F2;" width="20.5" height="20.5"/>
	<rect x="165.2" y="220.8" style="fill:#EDF2F2;" width="20.5" height="20.5"/>
	<rect x="203.7" y="220.8" style="fill:#EDF2F2;" width="20.5" height="20.5"/>
	<rect x="242.3" y="220.8" style="fill:#EDF2F2;" width="20.5" height="20.5"/>
	<rect x="280.8" y="220.8" style="fill:#EDF2F2;" width="20.5" height="20.5"/>
	<rect x="319.3" y="220.8" style="fill:#EDF2F2;" width="20.5" height="20.5"/>
	<rect x="357.8" y="220.8" style="fill:#EDF2F2;" width="20.5" height="20.5"/>
	<rect x="396.4" y="220.8" style="fill:#EDF2F2;" width="20.5" height="20.5"/>
	<rect x="88.2" y="253.9" style="fill:#EDF2F2;" width="20.5" height="20.5"/>
	<rect x="126.7" y="253.9" style="fill:#EDF2F2;" width="20.5" height="20.5"/>
	<rect x="165.2" y="253.9" style="fill:#EDF2F2;" width="20.5" height="20.5"/>
	<rect x="203.7" y="253.9" style="fill:#EDF2F2;" width="20.5" height="20.5"/>
	<rect x="242.3" y="253.9" style="fill:#EDF2F2;" width="20.5" height="20.5"/>
	<rect x="280.8" y="253.9" style="fill:#EDF2F2;" width="20.5" height="20.5"/>
	<rect x="319.3" y="253.9" style="fill:#EDF2F2;" width="20.5" height="20.5"/>
	<rect x="357.8" y="253.9" style="fill:#EDF2F2;" width="20.5" height="20.5"/>
	<rect x="396.4" y="253.9" style="fill:#EDF2F2;" width="20.5" height="20.5"/>
	<rect x="88.2" y="287" style="fill:#EDF2F2;" width="20.5" height="20.5"/>
	<rect x="126.7" y="287" style="fill:#EDF2F2;" width="20.5" height="20.5"/>
	<rect x="165.2" y="287" style="fill:#EDF2F2;" width="20.5" height="20.5"/>
	<rect x="203.7" y="287" style="fill:#EDF2F2;" width="20.5" height="20.5"/>
	<rect x="242.3" y="287" style="fill:#EDF2F2;" width="20.5" height="20.5"/>
	<rect x="280.8" y="287" style="fill:#EDF2F2;" width="20.5" height="20.5"/>
	<rect x="319.3" y="287" style="fill:#EDF2F2;" width="20.5" height="20.5"/>
	<rect x="357.8" y="287" style="fill:#EDF2F2;" width="20.5" height="20.5"/>
	<rect x="396.4" y="287" style="fill:#EDF2F2;" width="20.5" height="20.5"/>
	<rect x="88.2" y="320.1" style="fill:#EDF2F2;" width="20.5" height="20.5"/>
	<rect x="126.7" y="320.1" style="fill:#EDF2F2;" width="20.5" height="20.5"/>
	<polygon style="fill:#EDF2F2;" points="289,320.1 280.8,320.1 165.2,320.1 165.2,340.6 280.8,340.6 289,340.6 301.3,340.6    301.3,320.1  "/>
	<rect x="319.3" y="320.1" style="fill:#EDF2F2;" width="20.5" height="20.5"/>
	<rect x="357.8" y="320.1" style="fill:#EDF2F2;" width="20.5" height="20.5"/>
	<rect x="396.4" y="320.1" style="fill:#EDF2F2;" width="20.5" height="20.5"/>
</g>
<path style="fill:#324A5E;" d="M257.1,199.3h-9.3v-6.9c0-12.5,10.2-22.6,22.6-22.6h102.7c10.2,0,18.5-8.3,18.5-18.5  s-8.3-18.5-18.5-18.5h-233c-8.5,0-15.4-6.9-15.4-15.4v-6.1h9.3v6.1c0,3.4,2.7,6.1,6.1,6.1h233.1c15.3,0,27.8,12.5,27.8,27.8  s-12.5,27.8-27.8,27.8H270.5c-7.4,0-13.3,6-13.3,13.4v6.8H257.1z"/>
<g>
</g>
<g>
</g>
<g>
</g>
<g>
</g>
<g>
</g>
<g>
</g>
<g>
</g>
<g>
</g>
<g>
</g>
<g>
</g>
<g>
</g>
<g>
</g>
<g>
</g>
<g>
</g>
<g>
</g>
</svg>
