<?xml version="1.0" encoding="iso-8859-1"?>
<!-- Generator: Adobe Illustrator 19.0.0, SVG Export Plug-In . SVG Version: 6.00 Build 0)  -->
<svg xmlns="http://www.w3.org/2000/svg" xmlns:xlink="http://www.w3.org/1999/xlink" version="1.1" id="Layer_1" x="0px" y="0px" viewBox="0 0 505 505" style="enable-background:new 0 0 505 505;" xml:space="preserve">
<circle style="fill:#FD8469;" cx="252.5" cy="252.5" r="252.5"/>
<path style="fill:#324A5E;" d="M406.2,208.3l-153.5,96l-153.8-96l0.2,179.6c0,6.9,5.6,12.5,12.5,12.5l282.1-0.3  c6.9,0,12.5-5.6,12.5-12.5V208.3z"/>
<g>
	<path style="fill:#EDF2F2;" d="M262.1,107.9c-6.5-4.5-15.1-4.5-21.6,0.1L98.8,208.3l153.8,96l153.5-96l0,0L262.1,107.9z"/>
	<path style="fill:#EDF2F2;" d="M406.2,208.3l-42.4,26.5l-111.1,69.5l-111.4-69.5l-42.4-26.5l42.4-30l46.1-32.6l53.2-37.7   c6.5-4.6,15.1-4.6,21.6-0.1l54.2,37.8l47.5,33.1L406.2,208.3z"/>
</g>
<polygon style="fill:#FFFFFF;" points="363.7,145.7 363.7,234.9 252.6,304.4 141.3,234.8 141.3,145.7 "/>
<g>
	<rect x="166.1" y="179.6" style="fill:#E6E9EE;" width="172.8" height="11.9"/>
	<rect x="166.1" y="210.5" style="fill:#E6E9EE;" width="156.7" height="11.9"/>
</g>
<path style="fill:#2B3B4E;" d="M401.6,397.4c-2.2,1.8-4.9,2.8-8,2.8l-282.1,0.2c-3,0-5.8-1-8-2.8l149.1-93.2L401.6,397.4z"/>
<g>
</g>
<g>
</g>
<g>
</g>
<g>
</g>
<g>
</g>
<g>
</g>
<g>
</g>
<g>
</g>
<g>
</g>
<g>
</g>
<g>
</g>
<g>
</g>
<g>
</g>
<g>
</g>
<g>
</g>
</svg>
