<?xml version="1.0" encoding="iso-8859-1"?>
<!-- Generator: Adobe Illustrator 19.0.0, SVG Export Plug-In . SVG Version: 6.00 Build 0)  -->
<svg xmlns="http://www.w3.org/2000/svg" xmlns:xlink="http://www.w3.org/1999/xlink" version="1.1" id="Layer_1" x="0px" y="0px" viewBox="0 0 505 505" style="enable-background:new 0 0 505 505;" xml:space="preserve">
<circle style="fill:#FD8469;" cx="252.5" cy="252.5" r="252.5"/>
<path style="fill:#FFD05B;" d="M382.9,130.8H122.1c-4.1,0-7.4,3.3-7.4,7.4V393c0,4.1,3.3,7.4,7.4,7.4h260.7c4.1,0,7.4-3.3,7.4-7.4  V138.2C390.3,134.1,387,130.8,382.9,130.8z"/>
<rect x="136.7" y="197.8" style="fill:#FFFFFF;" width="231.6" height="181.2"/>
<g>
	<path style="fill:#4CDBC4;" d="M190.5,327.2v-15.9c5.6,4.1,12,6.1,19.5,6.1c4.7,0,8.3-1,10.9-3c2.6-2,3.9-4.8,3.9-8.4   c0-3.7-1.6-6.6-4.8-8.6s-7.7-3-13.3-3h-7.5v-14h6.9c10.8,0,16.2-3.6,16.2-10.8c0-6.8-4.2-10.1-12.5-10.1c-5.6,0-11,1.8-16.2,5.4   V250c5.8-2.9,12.6-4.4,20.4-4.4c8.5,0,15.1,1.9,19.8,5.7s7.1,8.8,7.1,14.9c0,10.8-5.5,17.6-16.5,20.4v0.3   c5.9,0.7,10.5,2.9,13.9,6.4s5.1,7.9,5.1,13c0,7.8-2.8,13.9-8.5,18.4s-13.5,6.8-23.5,6.8C202.8,331.3,195.9,329.9,190.5,327.2z"/>
	<path style="fill:#4CDBC4;" d="M283.9,331.3c-19.8,0-29.6-13.9-29.6-41.6c0-14.4,2.7-25.4,8-32.9s13.1-11.3,23.3-11.3   c19.3,0,29,14.1,29,42.3c0,14.1-2.6,24.8-7.9,32.3C301.3,327.6,293.8,331.3,283.9,331.3z M284.7,259.4c-7.9,0-11.9,9.9-11.9,29.8   c0,18.7,3.9,28.1,11.6,28.1c7.6,0,11.4-9.7,11.4-29C295.8,269.1,292.1,259.4,284.7,259.4z"/>
</g>
<g>
	<path style="fill:#324A5E;" d="M169.3,104.6c-4.3,0-7.7,3.5-7.7,7.7v36.4c0,4.3,3.5,7.7,7.7,7.7c4.3,0,7.7-3.5,7.7-7.7v-36.4   C177,108,173.6,104.6,169.3,104.6z"/>
	<path style="fill:#324A5E;" d="M335.7,104.6c-4.3,0-7.7,3.5-7.7,7.7v36.4c0,4.3,3.5,7.7,7.7,7.7c4.3,0,7.7-3.5,7.7-7.7v-36.4   C343.5,108,340,104.6,335.7,104.6z"/>
</g>
<g>
</g>
<g>
</g>
<g>
</g>
<g>
</g>
<g>
</g>
<g>
</g>
<g>
</g>
<g>
</g>
<g>
</g>
<g>
</g>
<g>
</g>
<g>
</g>
<g>
</g>
<g>
</g>
<g>
</g>
</svg>
