<?xml version="1.0" encoding="iso-8859-1"?>
<!-- Generator: Adobe Illustrator 19.0.0, SVG Export Plug-In . SVG Version: 6.00 Build 0)  -->
<svg xmlns="http://www.w3.org/2000/svg" xmlns:xlink="http://www.w3.org/1999/xlink" version="1.1" id="Layer_1" x="0px" y="0px" viewBox="0 0 505 505" style="enable-background:new 0 0 505 505;" xml:space="preserve">
<circle style="fill:#FD8469;" cx="252.5" cy="252.5" r="252.5"/>
<path style="fill:#F1543F;" d="M50.6,403.6c46,61.3,119.3,100.9,201.9,100.9s155.9-39.6,201.9-100.9H50.6z"/>
<path style="fill:#EDF2F2;" d="M386.3,100.9H118.7c-5.3,0-9.7,4.3-9.7,9.7v267.6c0,5.3,4.3,9.7,9.7,9.7h267.6c5.3,0,9.7-4.3,9.7-9.7  V110.6C396,105.2,391.7,100.9,386.3,100.9z"/>
<rect x="135.9" y="127.8" style="fill:#ACB3BA;" width="233.2" height="233.2"/>
<g>
	<path style="fill:#324A5E;" d="M250.9,235.7c-1.1-5.2-3.1-10-5.9-14.4l5.5-7.2l-10.7-10.6l-7.2,5.5c-4.4-2.9-9.2-4.9-14.4-5.9   l-1.2-9h-15l-1.2,9c-5.2,1.1-10,3.1-14.4,5.9l-7.2-5.5l-10.6,10.6l5.5,7.2c-2.9,4.4-4.9,9.2-5.9,14.4l-9,1.2v15l9,1.2   c1.1,5.2,3.1,10,5.9,14.4l-5.5,7.2l10.6,10.6l7.2-5.5c4.4,2.9,9.2,4.9,14.4,5.9l1.2,9h15l1.2-9c5.2-1.1,10-3.1,14.4-5.9l7.2,5.5   l10.6-10.6l-5.5-7.2c2.9-4.4,4.9-9.2,5.9-14.4l9-1.2v-15L250.9,235.7z M237.2,244.4c0,15.3-12.4,27.7-27.7,27.7   s-27.7-12.4-27.7-27.7s12.4-27.7,27.7-27.7C224.8,216.7,237.2,229.1,237.2,244.4z"/>
	<rect x="337.4" y="387.9" style="fill:#324A5E;" width="31.7" height="15.2"/>
	<rect x="135.9" y="387.9" style="fill:#324A5E;" width="31.7" height="15.2"/>
	<rect x="363.6" y="155.7" style="fill:#324A5E;" width="11.1" height="39.7"/>
	<rect x="363.6" y="293.4" style="fill:#324A5E;" width="11.1" height="39.7"/>
</g>
<circle style="fill:#334D5D;" cx="209.5" cy="244.4" r="30.6"/>
<circle style="fill:#EDF2F2;" cx="209.5" cy="244.4" r="15.2"/>
<g>
</g>
<g>
</g>
<g>
</g>
<g>
</g>
<g>
</g>
<g>
</g>
<g>
</g>
<g>
</g>
<g>
</g>
<g>
</g>
<g>
</g>
<g>
</g>
<g>
</g>
<g>
</g>
<g>
</g>
</svg>
