<?xml version="1.0" encoding="iso-8859-1"?>
<!-- Generator: Adobe Illustrator 19.0.0, SVG Export Plug-In . SVG Version: 6.00 Build 0)  -->
<svg xmlns="http://www.w3.org/2000/svg" xmlns:xlink="http://www.w3.org/1999/xlink" version="1.1" id="Layer_1" x="0px" y="0px" viewBox="0 0 505 505" style="enable-background:new 0 0 505 505;" xml:space="preserve">
<circle style="fill:#324A5E;" cx="252.5" cy="252.5" r="252.5"/>
<path style="fill:#84DBFF;" d="M142.8,255.8c7.7,96.5,53,182,111.7,182c0.9,0,1.9,0,2.8-0.1c0.9,0.1,1.9,0.1,2.8,0.1  c58.7,0,104-85.5,111.7-182H142.8z"/>
<path style="fill:#EDF2F2;" d="M372.7,238.3c0-0.3,0-0.6,0-1c-0.3-45.3-34.4-81.7-76.1-81.7h-39.4h-39.4  c-41.7,0-75.7,36.4-76.1,81.7c0,0.3,0,0.6,0,1c0.2,5.9,0.5,11.8,1,17.6h228.9C372.2,250,372.5,244.2,372.7,238.3z"/>
<path style="fill:#324A5E;" d="M264.8,239.8h-15c-1.4,0-2.5-1.1-2.5-2.5v-63.2c0-1.4,1.1-2.5,2.5-2.5h15c1.4,0,2.5,1.1,2.5,2.5v63.2  C267.3,238.7,266.2,239.8,264.8,239.8z"/>
<path style="fill:#FF7058;" d="M261.9,155.6h-9.3v-10.3c0-11.2,9.1-20.3,20.3-20.3h14.7c9.5,0,17.2-7.7,17.2-17.2  s-7.7-17.2-17.2-17.2h-47.7c-14.6,0-26.5-11.9-26.5-26.5v-4.4h9.3v4.4c0,9.5,7.7,17.2,17.2,17.2h47.7c14.6,0,26.5,11.9,26.5,26.5  s-11.9,26.5-26.5,26.5h-14.7c-6.1,0-11,4.9-11,11V155.6z"/>
<g>
</g>
<g>
</g>
<g>
</g>
<g>
</g>
<g>
</g>
<g>
</g>
<g>
</g>
<g>
</g>
<g>
</g>
<g>
</g>
<g>
</g>
<g>
</g>
<g>
</g>
<g>
</g>
<g>
</g>
</svg>
