<?xml version="1.0" encoding="iso-8859-1"?>
<!-- Generator: Adobe Illustrator 19.0.0, SVG Export Plug-In . SVG Version: 6.00 Build 0)  -->
<svg xmlns="http://www.w3.org/2000/svg" xmlns:xlink="http://www.w3.org/1999/xlink" version="1.1" id="Layer_1" x="0px" y="0px" viewBox="0 0 505 505" style="enable-background:new 0 0 505 505;" xml:space="preserve">
<circle style="fill:#90DFAA;" cx="252.5" cy="252.5" r="252.5"/>
<path style="fill:#FFFFFF;" d="M96,284.7c0,10.4,8.8,18.9,19.8,18.9h61.8c3,0.9,5.8,2.7,7.5,5.2c3.6,5.4,2.4,12.6-0.3,18.5  c-4,8.9-10.7,16.4-14.9,25.2c-6.1,12.7-6.4,27.8-0.9,40.7c2.7,6.4,7,12.4,13.2,15.9c2.5,1.4,5.4,2.4,8.1,1.7  c4.6-1.1,6.7-6.2,7.9-10.6c2.6-9.6,4.3-19.5,9.2-28.2c2.5-4.4,5.7-8.3,8.9-12.2c7.4-8.8,15.2-17.5,24.7-24.3  c10.9-7.9,21.8-18.5,34.5-23.6c10.4-4.2,23.4-3.9,33.7-8.1V152.3H301H188.4h-49.3c-10.9,0-19.8,8.5-19.8,18.9s8.8,18.9,19.8,18.9  h-13.4c-10.9,0-19.8,8.5-19.8,18.9s8.8,18.9,19.8,18.9h-11.2c-10.9,0-19.8,8.5-19.8,18.9c0,10.4,8.8,18.9,19.8,18.9h1.4  C104.9,265.8,96,274.2,96,284.7z"/>
<path style="fill:#324A5E;" d="M314.3,323.4h93c1.7,0,3-1.3,3-3V136.9c0-1.7-1.3-3-3-3h-93c-7.4,0-13.4,6.4-13.4,14.4v160.8  C300.8,316.9,306.8,323.4,314.3,323.4z"/>
<circle style="fill:#E6E9EE;" cx="355.6" cy="169" r="16.7"/>
<g>
</g>
<g>
</g>
<g>
</g>
<g>
</g>
<g>
</g>
<g>
</g>
<g>
</g>
<g>
</g>
<g>
</g>
<g>
</g>
<g>
</g>
<g>
</g>
<g>
</g>
<g>
</g>
<g>
</g>
</svg>
