<?xml version="1.0" encoding="iso-8859-1"?>
<!-- Generator: Adobe Illustrator 19.0.0, SVG Export Plug-In . SVG Version: 6.00 Build 0)  -->
<svg xmlns="http://www.w3.org/2000/svg" xmlns:xlink="http://www.w3.org/1999/xlink" version="1.1" id="Layer_1" x="0px" y="0px" viewBox="0 0 505 505" style="enable-background:new 0 0 505 505;" xml:space="preserve">
<circle style="fill:#90DFAA;" cx="252.5" cy="252.5" r="252.5"/>
<path style="fill:#ACB3BA;" d="M401.7,166.6H103.3c-4.7,0-9,3.8-9.6,8.5L90.1,202H415l-3.6-26.9  C410.7,170.4,406.4,166.6,401.7,166.6z"/>
<path style="fill:#324A5E;" d="M90.1,202.1v133.2c0,4.8,3.9,8.7,8.7,8.7h307.5c4.8,0,8.7-3.9,8.7-8.7V202.1H90.1z"/>
<g>
	<rect x="173.7" y="131.3" style="fill:#2B3B4E;" width="157.5" height="58.5"/>
	<rect x="173.7" y="304.1" style="fill:#2B3B4E;" width="157.5" height="39.9"/>
</g>
<g>
	<rect x="183.8" y="72.8" style="fill:#FFFFFF;" width="137.3" height="117"/>
	<rect x="183.8" y="315.2" style="fill:#FFFFFF;" width="137.3" height="117"/>
</g>
<circle style="fill:#FF7058;" cx="383.9" cy="227.1" r="9"/>
<g>
	<rect x="198.7" y="337.9" style="fill:#E6E9EE;" width="107.7" height="7.2"/>
	<rect x="198.7" y="366.5" style="fill:#E6E9EE;" width="107.7" height="7.2"/>
	<rect x="198.7" y="395.1" style="fill:#E6E9EE;" width="107.7" height="7.2"/>
</g>
<g>
</g>
<g>
</g>
<g>
</g>
<g>
</g>
<g>
</g>
<g>
</g>
<g>
</g>
<g>
</g>
<g>
</g>
<g>
</g>
<g>
</g>
<g>
</g>
<g>
</g>
<g>
</g>
<g>
</g>
</svg>
