<?xml version="1.0" encoding="iso-8859-1"?>
<!-- Generator: Adobe Illustrator 19.0.0, SVG Export Plug-In . SVG Version: 6.00 Build 0)  -->
<svg xmlns="http://www.w3.org/2000/svg" xmlns:xlink="http://www.w3.org/1999/xlink" version="1.1" id="Layer_1" x="0px" y="0px" viewBox="0 0 505 505" style="enable-background:new 0 0 505 505;" xml:space="preserve">
<circle style="fill:#FD8469;" cx="252.5" cy="252.5" r="252.5"/>
<polygon style="fill:#324A5E;" points="396.7,354.4 108.3,354.4 108.3,382.9 108.3,382.9 396.7,382.9 396.7,382.9 "/>
<path style="fill:#FFFFFF;" d="M369.2,322.7h-98.1v-14.8c0-34.8,11.2-68.1,29-98c10.9-18.4,17.6-40.4,17.6-57.7  c0-36-29.2-65.2-65.2-65.2s-65.2,29.2-65.2,65.2c0,17.2,6.7,39.3,17.6,57.7c17.8,29.9,29,63.2,29,98v14.8h-98.1  c-5.1,0-9.1,4.1-9.1,9.1v22.5h251.7v-22.5C378.4,326.8,374.3,322.7,369.2,322.7z"/>
<g>
</g>
<g>
</g>
<g>
</g>
<g>
</g>
<g>
</g>
<g>
</g>
<g>
</g>
<g>
</g>
<g>
</g>
<g>
</g>
<g>
</g>
<g>
</g>
<g>
</g>
<g>
</g>
<g>
</g>
</svg>
