<?xml version="1.0" encoding="iso-8859-1"?>
<!-- Generator: Adobe Illustrator 19.0.0, SVG Export Plug-In . SVG Version: 6.00 Build 0)  -->
<svg xmlns="http://www.w3.org/2000/svg" xmlns:xlink="http://www.w3.org/1999/xlink" version="1.1" id="Layer_1" x="0px" y="0px" viewBox="0 0 505 505" style="enable-background:new 0 0 505 505;" xml:space="preserve">
<circle style="fill:#90DFAA;" cx="252.5" cy="252.5" r="252.5"/>
<path style="fill:#FFFFFF;" d="M410.3,312V116.8c0-4.4-3.5-7.9-7.9-7.9H102.6c-4.4,0-7.9,3.5-7.9,7.9v271.5c0,4.4,3.5,7.9,7.9,7.9  h223.5h32.6l51.5-51.5V312H410.3z"/>
<path style="fill:#324A5E;" d="M410.3,176.1v-59.4c0-4.4-3.5-7.9-7.9-7.9H102.6c-4.4,0-7.9,3.5-7.9,7.9v59.4H410.3z"/>
<path style="fill:#E6E9EE;" d="M410.3,344.7h-43.6c-4.4,0-7.9,3.5-7.9,7.9v43.6L410.3,344.7z"/>
<path style="fill:#FF7058;" d="M352.6,266.6v-42.2h-42.2l13.9,13.9L272,290.6l-36.4-36.4c-3.8-3.8-10.5-3.8-14.3,0l-66,66  c-4,4-4,10.4,0,14.3c2,2,4.6,3,7.2,3c2.6,0,5.2-1,7.2-3l58.8-58.8l36.4,36.4c3.8,3.8,10.5,3.8,14.3,0l59.5-59.5L352.6,266.6z"/>
<g>
	<circle style="fill:#90DFAA;" cx="170.2" cy="142.5" r="12.8"/>
	<circle style="fill:#90DFAA;" cx="252.5" cy="142.5" r="12.8"/>
	<circle style="fill:#90DFAA;" cx="334.8" cy="142.5" r="12.8"/>
</g>
<g>
</g>
<g>
</g>
<g>
</g>
<g>
</g>
<g>
</g>
<g>
</g>
<g>
</g>
<g>
</g>
<g>
</g>
<g>
</g>
<g>
</g>
<g>
</g>
<g>
</g>
<g>
</g>
<g>
</g>
</svg>
