<?xml version="1.0" encoding="iso-8859-1"?>
<!-- Generator: Adobe Illustrator 19.0.0, SVG Export Plug-In . SVG Version: 6.00 Build 0)  -->
<svg xmlns="http://www.w3.org/2000/svg" xmlns:xlink="http://www.w3.org/1999/xlink" version="1.1" id="Layer_1" x="0px" y="0px" viewBox="0 0 505 505" style="enable-background:new 0 0 505 505;" xml:space="preserve">
<path style="fill:#FF7058;" d="M505,252.5C505,392,392,505,252.5,505S0,392,0,252.5C0,113.1,113,0,252.5,0  c110.1,0,203.7,70.5,238.3,168.7c7.4,21,12.1,43.3,13.7,66.5C504.8,240.9,505,246.7,505,252.5z"/>
<path style="fill:#FFFFFF;" d="M363,158H142c-5.7,0-10.2,4.6-10.2,10.2V400c0,5.7,4.6,10.2,10.2,10.2h221.1  c5.7,0,10.2-4.6,10.2-10.2V168.3C373.3,162.6,368.7,158,363,158z"/>
<rect x="154.6" y="220.6" style="fill:#84DBFF;" width="195.8" height="166.5"/>
<g>
	<circle style="fill:#324A5E;" cx="252.5" cy="280.6" r="36"/>
	<path style="fill:#324A5E;" d="M314.2,387.1c-1.5-32.9-28.4-59.2-61.7-59.2s-60.2,26.3-61.7,59.2H314.2z"/>
</g>
<rect x="222.3" y="178.7" style="fill:#FF7058;" width="60.3" height="14.8"/>
<rect x="228.1" y="94.7" style="fill:#FFD05B;" width="48.8" height="91.4"/>
<g>
</g>
<g>
</g>
<g>
</g>
<g>
</g>
<g>
</g>
<g>
</g>
<g>
</g>
<g>
</g>
<g>
</g>
<g>
</g>
<g>
</g>
<g>
</g>
<g>
</g>
<g>
</g>
<g>
</g>
</svg>
