<?xml version="1.0" encoding="iso-8859-1"?>
<!-- Generator: Adobe Illustrator 19.0.0, SVG Export Plug-In . SVG Version: 6.00 Build 0)  -->
<svg xmlns="http://www.w3.org/2000/svg" xmlns:xlink="http://www.w3.org/1999/xlink" version="1.1" id="Layer_1" x="0px" y="0px" viewBox="0 0 505 505" style="enable-background:new 0 0 505 505;" xml:space="preserve">
<circle style="fill:#324A5E;" cx="252.5" cy="252.5" r="252.5"/>
<path style="fill:#FFFFFF;" d="M95.6,171.8l237.5,237.5l76.2-76.2L171.8,95.6L95.6,171.8z M164.3,164.3c-4.9,4.9-12.8,4.9-17.6,0  c-4.9-4.9-4.9-12.8,0-17.6c4.9-4.9,12.8-4.9,17.6,0C169.2,151.6,169.2,159.5,164.3,164.3z"/>
<g>
	
		<rect x="109.478" y="170.022" transform="matrix(-0.7071 0.7071 -0.7071 -0.7071 328.2072 209.197)" style="fill:#E6E9EE;" width="22.6" height="5.1"/>
	
		<rect x="123.343" y="185.487" transform="matrix(-0.7071 0.7071 -0.7071 -0.7071 356.24 228.5142)" style="fill:#E6E9EE;" width="14.9" height="5.1"/>
	
		<rect x="137.942" y="198.513" transform="matrix(-0.7071 0.7071 -0.7071 -0.7071 396.9442 237.7066)" style="fill:#E6E9EE;" width="22.6" height="5.1"/>
	
		<rect x="151.737" y="213.897" transform="matrix(-0.7071 0.7071 -0.7071 -0.7071 424.7993 256.936)" style="fill:#E6E9EE;" width="14.9" height="5.1"/>
	
		<rect x="166.335" y="226.933" transform="matrix(-0.7071 0.7071 -0.7071 -0.7071 465.5106 266.1455)" style="fill:#E6E9EE;" width="22.6" height="5.1"/>
	
		<rect x="180.13" y="242.317" transform="matrix(-0.7071 0.7071 -0.7071 -0.7071 493.3656 285.3749)" style="fill:#E6E9EE;" width="14.9" height="5.1"/>
	
		<rect x="194.799" y="255.282" transform="matrix(-0.7071 0.7071 -0.7071 -0.7071 534.1476 294.4137)" style="fill:#E6E9EE;" width="22.6" height="5.1"/>
	
		<rect x="208.584" y="270.666" transform="matrix(-0.7071 0.7071 -0.7071 -0.7071 561.9857 313.6502)" style="fill:#E6E9EE;" width="14.9" height="5.1"/>
	
		<rect x="223.192" y="283.702" transform="matrix(-0.7071 0.7071 -0.7071 -0.7071 602.714 322.8526)" style="fill:#E6E9EE;" width="22.6" height="5.1"/>
	
		<rect x="236.977" y="299.086" transform="matrix(-0.7071 0.7071 -0.7071 -0.7071 630.5519 342.0891)" style="fill:#E6E9EE;" width="14.9" height="5.1"/>
	
		<rect x="251.585" y="312.122" transform="matrix(-0.7071 0.7071 -0.7071 -0.7071 671.2803 351.2914)" style="fill:#E6E9EE;" width="22.6" height="5.1"/>
	
		<rect x="265.37" y="327.496" transform="matrix(-0.7071 0.7071 -0.7071 -0.7071 699.1112 370.5109)" style="fill:#E6E9EE;" width="14.9" height="5.1"/>
	
		<rect x="280.039" y="340.613" transform="matrix(-0.7071 0.7071 -0.7071 -0.7071 740.0002 379.8081)" style="fill:#E6E9EE;" width="22.6" height="5.1"/>
	
		<rect x="293.834" y="355.987" transform="matrix(-0.7071 0.7071 -0.7071 -0.7071 767.8482 399.0205)" style="fill:#E6E9EE;" width="14.9" height="5.1"/>
	
		<rect x="308.433" y="369.023" transform="matrix(-0.7071 0.7071 -0.7071 -0.7071 808.5595 408.23)" style="fill:#E6E9EE;" width="22.6" height="5.1"/>
	
		<rect x="322.228" y="384.407" transform="matrix(-0.7071 0.7071 -0.7071 -0.7071 836.4146 427.4594)" style="fill:#E6E9EE;" width="14.9" height="5.1"/>
</g>
<polygon style="fill:#FFD05B;" points="174.5,363.6 362.2,175.8 329.2,142.8 141.4,330.5 141.4,330.7 174.3,363.6 "/>
<polygon style="fill:#FFFFFF;" points="174.3,363.6 141.4,330.7 132.9,360 145,372.1 "/>
<g>
	<polygon style="fill:#FF7058;" points="145,372.1 132.9,360 127.9,377.1  "/>
	<path style="fill:#FF7058;" d="M374.5,151.2l-20.7-20.7c-3.4-3.4-8.9-3.4-12.3,0l-12.3,12.3l33.1,33.1l12.2-12.4   C377.9,160.1,377.9,154.6,374.5,151.2z"/>
</g>
<rect x="319.377" y="158.131" transform="matrix(-0.7071 -0.7071 0.7071 -0.7071 470.4071 519.4101)" style="fill:#E6E9EE;" width="46.8" height="8.3"/>
<g>
</g>
<g>
</g>
<g>
</g>
<g>
</g>
<g>
</g>
<g>
</g>
<g>
</g>
<g>
</g>
<g>
</g>
<g>
</g>
<g>
</g>
<g>
</g>
<g>
</g>
<g>
</g>
<g>
</g>
</svg>
