<?xml version="1.0" encoding="iso-8859-1"?>
<!-- Generator: Adobe Illustrator 19.0.0, SVG Export Plug-In . SVG Version: 6.00 Build 0)  -->
<svg xmlns="http://www.w3.org/2000/svg" xmlns:xlink="http://www.w3.org/1999/xlink" version="1.1" id="Layer_1" x="0px" y="0px" viewBox="0 0 505 505" style="enable-background:new 0 0 505 505;" xml:space="preserve">
<circle style="fill:#FFD05B;" cx="252.5" cy="252.5" r="252.5"/>
<path style="fill:#FF7058;" d="M252.5,50c-84.8,0-153.6,68.8-153.6,153.6c0,173.2,153.6,250.5,153.6,250.5s153.6-77.4,153.6-250.6  C406.1,118.7,337.3,50,252.5,50z"/>
<circle style="fill:#FFFFFF;" cx="252.5" cy="195.8" r="106.3"/>
<path style="fill:#54C0EB;" d="M258.8,257.7V277h-13v-18.7c-12-0.1-23.2-2.8-33.6-8.2v-24.6c3.4,2.8,8.6,5.4,15.4,7.7  c6.8,2.4,12.9,3.7,18.2,4.1V205c-13.9-5.2-23.3-10.7-28.4-16.7c-5.1-6-7.6-13.3-7.6-22c0-9.3,3.3-17.2,9.9-23.8  c6.6-6.5,15.3-10.3,26.1-11.4v-16.6h13v16.2c12.5,0.6,21.8,2.6,28,6v24c-8.3-5-17.6-8.1-28-9.2v33.7c13,4.7,22.3,10,27.9,16  s8.4,13.3,8.4,21.8c0,9.8-3.1,17.8-9.4,23.8C279.4,252.8,270.5,256.4,258.8,257.7z M245.8,180v-28.2c-8.2,1.5-12.3,5.8-12.3,12.9  C233.5,170.8,237.6,175.9,245.8,180z M258.8,210v26.9c8.5-1.3,12.7-5.5,12.7-12.7C271.5,218.4,267.3,213.7,258.8,210z"/>
<g>
</g>
<g>
</g>
<g>
</g>
<g>
</g>
<g>
</g>
<g>
</g>
<g>
</g>
<g>
</g>
<g>
</g>
<g>
</g>
<g>
</g>
<g>
</g>
<g>
</g>
<g>
</g>
<g>
</g>
</svg>
