<?xml version="1.0" encoding="iso-8859-1"?>
<!-- Generator: Adobe Illustrator 19.0.0, SVG Export Plug-In . SVG Version: 6.00 Build 0)  -->
<svg xmlns="http://www.w3.org/2000/svg" xmlns:xlink="http://www.w3.org/1999/xlink" version="1.1" id="Layer_1" x="0px" y="0px" viewBox="0 0 505 505" style="enable-background:new 0 0 505 505;" xml:space="preserve">
<circle style="fill:#84DBFF;" cx="252.5" cy="252.5" r="252.5"/>
<path style="fill:#EDF2F2;" d="M401.1,295.2l-2.2-9.4v22.9C401.2,304.8,402.2,300,401.1,295.2z"/>
<path style="opacity:0.5;fill:#395767;enable-background:new    ;" d="M398.9,208c0-10-8.1-18.1-18.1-18.1h-4l22.1,95.9V208z"/>
<path style="fill:#2B3B4E;" d="M394.4,270.9l-35.9-155.8c-2.2-9.7-12-15.8-21.7-13.6L78.8,161c-9.7,2.2-15.8,12-13.6,21.7l5.8,25  l10.1,43.8l20.1,87c2.2,9.7,12,15.8,21.7,13.6l258-59.5C390.5,290.3,396.6,280.6,394.4,270.9z"/>
<path style="fill:#E6E9EE;" d="M389.8,172.8H125c-10,0-18.1,8.1-18.1,18.1v159.9c0,10,8.1,18.1,18.1,18.1h264.8  c10,0,18.1-8.1,18.1-18.1V190.9C407.9,180.9,399.8,172.8,389.8,172.8z"/>
<rect x="106.9" y="216.5" style="fill:#324A5E;" width="301" height="38.1"/>
<g>
	<rect x="140.9" y="289.5" style="fill:#CED5E0;" width="131.1" height="11"/>
	<rect x="140.9" y="316.6" style="fill:#CED5E0;" width="131.1" height="11"/>
</g>
<g>
</g>
<g>
</g>
<g>
</g>
<g>
</g>
<g>
</g>
<g>
</g>
<g>
</g>
<g>
</g>
<g>
</g>
<g>
</g>
<g>
</g>
<g>
</g>
<g>
</g>
<g>
</g>
<g>
</g>
</svg>
