<?xml version="1.0" encoding="iso-8859-1"?>
<!-- Generator: Adobe Illustrator 19.0.0, SVG Export Plug-In . SVG Version: 6.00 Build 0)  -->
<svg xmlns="http://www.w3.org/2000/svg" xmlns:xlink="http://www.w3.org/1999/xlink" version="1.1" id="Layer_1" x="0px" y="0px" viewBox="0 0 505 505" style="enable-background:new 0 0 505 505;" xml:space="preserve">
<circle style="fill:#90DFAA;" cx="252.5" cy="252.5" r="252.5"/>
<path style="fill:#324A5E;" d="M331,94.7H123.7c-5,0-9.1,4.1-9.1,9.1v297.5c0,5,4.1,9.1,9.1,9.1H331c5,0,9.1-4.1,9.1-9.1V103.8  C340.1,98.8,336,94.7,331,94.7z"/>
<rect x="131.3" y="128.3" style="fill:#54C0EB;" width="192.1" height="248.5"/>
<g>
	<rect x="204.3" y="107" style="fill:#2B3B4E;" width="46.1" height="8.9"/>
	<circle style="fill:#2B3B4E;" cx="227.3" cy="393.5" r="8.6"/>
</g>
<path style="fill:#FFFFFF;" d="M341.8,136.3c-46.8,0-84.8,37.9-84.8,84.8c0,24.5,10.6,46.5,27.2,61.9l-16.1,44.7l41.4-28.3  c9.9,4.1,20.8,6.4,32.2,6.4c46.8,0,84.8-37.9,84.8-84.8C426.6,174.2,388.6,136.3,341.8,136.3z"/>
<path style="fill:#FF7058;" d="M345,252.7v9.9h-6.6V253c-6.1,0-11.9-1.4-17.2-4.2v-12.6c1.8,1.4,4.4,2.7,7.9,4  c3.5,1.2,6.6,1.9,9.3,2.1v-16.5c-7.1-2.6-11.9-5.5-14.5-8.6s-3.9-6.8-3.9-11.2c0-4.8,1.7-8.8,5-12.2c3.4-3.3,7.8-5.3,13.4-5.8v-8.5  h6.6v8.3c6.4,0.3,11.2,1.3,14.3,3.1v12.3c-4.2-2.6-9-4.1-14.3-4.7v17.2c6.6,2.4,11.4,5.1,14.3,8.2c2.9,3.1,4.3,6.8,4.3,11.2  c0,5-1.6,9.1-4.8,12.2C355.6,250.2,351,252.1,345,252.7z M338.4,213v-14.4c-4.2,0.8-6.3,3-6.3,6.6  C332.1,208.3,334.2,210.9,338.4,213z M345,228.3v13.8c4.3-0.7,6.5-2.8,6.5-6.5C351.5,232.6,349.4,230.2,345,228.3z"/>
<g>
</g>
<g>
</g>
<g>
</g>
<g>
</g>
<g>
</g>
<g>
</g>
<g>
</g>
<g>
</g>
<g>
</g>
<g>
</g>
<g>
</g>
<g>
</g>
<g>
</g>
<g>
</g>
<g>
</g>
</svg>
