<?xml version="1.0" encoding="iso-8859-1"?>
<!-- Generator: Adobe Illustrator 19.0.0, SVG Export Plug-In . SVG Version: 6.00 Build 0)  -->
<svg xmlns="http://www.w3.org/2000/svg" xmlns:xlink="http://www.w3.org/1999/xlink" version="1.1" id="Layer_1" x="0px" y="0px" viewBox="0 0 505 505" style="enable-background:new 0 0 505 505;" xml:space="preserve">
<circle style="fill:#84DBFF;" cx="252.5" cy="252.5" r="252.5"/>
<path style="fill:#FFFFFF;" d="M261.4,82.3l98,46.6l-78.3,164.8l-135.9-64.6l60.3-126.9C224.9,95.3,246,87.8,261.4,82.3z"/>
<path style="fill:#EDF2F2;" d="M261.4,82.3l-18,38l-37.9-18C220.9,96.7,242,89.2,261.4,82.3z"/>
<path style="fill:#324A5E;" d="M121.2,178.9l18.5,204.2c2,22.4,20.8,39.7,43.3,39.7h138.8c22.5,0,41.3-17.2,43.3-39.6L383.9,179  H121.2V178.9z"/>
<path style="fill:#FF7058;" d="M309.7,279.3c-0.1-2.5-0.3-4-0.3-4h-1c0,0-0.3,1.4-1,3.7c-0.8,2.3-1.9,5.6-3.8,9.3  c-0.9,1.9-2,3.8-3.1,5.8c-1.2,2-2.6,4-4,6c-1.6,1.9-3,4-4.9,5.7c-0.9,0.9-1.7,1.8-2.7,2.7L286,311c-1.8,1.7-4,3-6,4.4  s-4.2,2.3-6.1,3.4c-2,1-4.1,1.7-6,2.5c-1.8,0.8-3.8,1.1-5.5,1.6c-1.7,0.4-3.2,1-4.7,1.1c-1.4,0.2-2.7,0.4-3.7,0.5  c-1.5,0.2-2.5,0.4-2.9,0.4l-4.8-15.4L225.6,349l39.5,20.7l-4.2-13.3c0.3-0.2,1.7-0.9,3.9-2.1c1.3-0.7,2.8-1.6,4.6-2.6  c1.8-0.9,3.6-2.4,5.7-3.8c2-1.5,4.3-2.9,6.3-4.9c2.1-2,4.4-3.8,6.5-6.1c2-2.4,4.2-4.6,6.1-7.2c1.8-2.6,3.8-5.1,5.3-8l2.3-4.1  c0.7-1.4,1.3-2.9,1.9-4.3c1.3-2.8,2.1-5.7,3-8.3c0.8-2.8,1.4-5.4,1.9-7.9s0.8-4.9,1-7.1C309.8,285.5,309.8,281.8,309.7,279.3z"/>
<path style="fill:#FFD05B;" d="M195.3,310.4c0.1,2.5,0.3,4,0.3,4h1c0,0,0.3-1.4,1-3.7c0.8-2.3,1.9-5.6,3.8-9.3  c0.9-1.9,2-3.8,3.1-5.8c1.2-2,2.6-4,4-6c1.6-1.9,3-4,4.9-5.7c0.9-0.9,1.7-1.8,2.7-2.7l2.9-2.5c1.8-1.7,4-3,6-4.4s4.2-2.3,6.1-3.4  c2-1,4.1-1.7,6-2.5c1.8-0.8,3.8-1.1,5.5-1.6c1.7-0.4,3.2-1,4.7-1.1c1.4-0.2,2.7-0.4,3.7-0.5c1.5-0.2,2.5-0.4,2.9-0.4l4.8,15.4  l20.7-39.5L239.9,220l4.2,13.3c-0.3,0.2-1.7,0.9-3.9,2.1c-1.3,0.7-2.8,1.6-4.6,2.6c-1.8,0.9-3.6,2.4-5.7,3.8c-2,1.5-4.3,2.9-6.3,4.9  c-2.1,2-4.4,3.8-6.5,6.1c-2,2.4-4.2,4.6-6.1,7.2c-1.8,2.6-3.8,5.1-5.3,8l-2.3,4.1c-0.7,1.4-1.3,2.9-1.9,4.3c-1.3,2.8-2.1,5.7-3,8.3  c-0.8,2.8-1.4,5.4-1.9,7.9s-0.8,4.9-1,7.1C195.2,304.3,195.2,307.9,195.3,310.4z"/>
<g>
</g>
<g>
</g>
<g>
</g>
<g>
</g>
<g>
</g>
<g>
</g>
<g>
</g>
<g>
</g>
<g>
</g>
<g>
</g>
<g>
</g>
<g>
</g>
<g>
</g>
<g>
</g>
<g>
</g>
</svg>
