<?xml version="1.0" encoding="iso-8859-1"?>
<!-- Generator: Adobe Illustrator 19.0.0, SVG Export Plug-In . SVG Version: 6.00 Build 0)  -->
<svg xmlns="http://www.w3.org/2000/svg" xmlns:xlink="http://www.w3.org/1999/xlink" version="1.1" id="Layer_1" x="0px" y="0px" viewBox="0 0 505 505" style="enable-background:new 0 0 505 505;" xml:space="preserve">
<circle style="fill:#F1543F;" cx="252.5" cy="252.5" r="252.5"/>
<path style="fill:#EDF2F2;" d="M306.1,171.7c-5.3,0-9.6-4.3-9.6-9.6v-40.6h-88v40.6c0,5.3-4.3,9.6-9.6,9.6s-9.6-4.3-9.6-9.6V112  c0-5.3,4.3-9.6,9.6-9.6h107.2c5.3,0,9.6,4.3,9.6,9.6v50.1C315.7,167.4,311.4,171.7,306.1,171.7z"/>
<path style="fill:#324A5E;" d="M410.9,152.6H94.1c-4.4,0-8.1,3.6-8.1,8.1v233.8c0,4.4,3.6,8.1,8.1,8.1h316.8c4.4,0,8.1-3.6,8.1-8.1  V160.7C418.9,156.2,415.3,152.6,410.9,152.6z"/>
<path style="fill:#2B3B4E;" d="M418.9,258.1v-97.4c0-4.4-3.6-8.1-8.1-8.1H94.1c-4.4,0-8.1,3.6-8.1,8.1v97.4H418.9z"/>
<circle style="fill:#EDF2F2;" cx="252.5" cy="277.6" r="72.8"/>
<path style="fill:#FF7058;" d="M255.6,308.5v9.6h-6.5v-9.3c-6,0-11.6-1.4-16.7-4.1v-12.3c1.7,1.4,4.3,2.7,7.7,3.9  c3.4,1.2,6.4,1.9,9.1,2v-16.1c-6.9-2.6-11.6-5.4-14.1-8.3c-2.5-3-3.8-6.7-3.8-11c0-4.6,1.6-8.6,4.9-11.8c3.3-3.3,7.6-5.2,13-5.7  v-8.2h6.5v8.1c6.2,0.3,10.9,1.3,14,3v12c-4.1-2.5-8.8-4-14-4.6v16.8c6.5,2.3,11.1,5,13.9,8s4.2,6.6,4.2,10.9c0,4.9-1.6,8.9-4.7,11.8  C265.9,306,261.5,307.8,255.6,308.5z M249.2,269.7v-14c-4.1,0.7-6.2,2.9-6.2,6.4C243,265.1,245.1,267.7,249.2,269.7z M255.6,284.7  v13.4c4.2-0.6,6.3-2.8,6.3-6.3C262,288.9,259.9,286.5,255.6,284.7z"/>
<g>
</g>
<g>
</g>
<g>
</g>
<g>
</g>
<g>
</g>
<g>
</g>
<g>
</g>
<g>
</g>
<g>
</g>
<g>
</g>
<g>
</g>
<g>
</g>
<g>
</g>
<g>
</g>
<g>
</g>
</svg>
