<?xml version="1.0" encoding="iso-8859-1"?>
<!-- Generator: Adobe Illustrator 19.0.0, SVG Export Plug-In . SVG Version: 6.00 Build 0)  -->
<svg xmlns="http://www.w3.org/2000/svg" xmlns:xlink="http://www.w3.org/1999/xlink" version="1.1" id="Layer_1" x="0px" y="0px" viewBox="0 0 505 505" style="enable-background:new 0 0 505 505;" xml:space="preserve">
<circle style="fill:#324A5E;" cx="252.5" cy="252.5" r="252.5"/>
<polygon style="fill:#FFFFFF;" points="354.3,295.9 354.3,152.7 305.5,104 150.7,104 150.7,295.9 "/>
<polygon style="fill:#EDF2F2;" points="305.5,152.7 354.3,152.7 305.5,104 "/>
<path style="fill:#FFD05B;" d="M390.6,210.3H225c-3.1,0-6-1.8-7.3-4.6l-14-29.4c-1.3-2.8-4.2-4.6-7.3-4.6h-82  c-4.5,0-8.1,3.6-8.1,8.1V393c0,4.5,3.6,8.1,8.1,8.1h276.2c4.5,0,8.1-3.6,8.1-8.1V218.4C398.7,213.9,395.1,210.3,390.6,210.3z"/>
<g>
</g>
<g>
</g>
<g>
</g>
<g>
</g>
<g>
</g>
<g>
</g>
<g>
</g>
<g>
</g>
<g>
</g>
<g>
</g>
<g>
</g>
<g>
</g>
<g>
</g>
<g>
</g>
<g>
</g>
</svg>
