<?xml version="1.0" encoding="iso-8859-1"?>
<!-- Generator: Adobe Illustrator 19.0.0, SVG Export Plug-In . SVG Version: 6.00 Build 0)  -->
<svg xmlns="http://www.w3.org/2000/svg" xmlns:xlink="http://www.w3.org/1999/xlink" version="1.1" id="Layer_1" x="0px" y="0px" viewBox="0 0 505 505" style="enable-background:new 0 0 505 505;" xml:space="preserve">
<circle style="fill:#FFD05B;" cx="252.5" cy="252.5" r="252.5"/>
<path style="fill:#EDF2F2;" d="M324.6,99.7l-94.7,166.6l38.4,21.8l72.8-128.2C353.3,138.7,345.8,111.7,324.6,99.7z"/>
<path style="fill:#2B3B4E;" d="M149.7,299.8l-21.6,37.9c-10.7,18.8-4.1,42.7,14.7,53.4l17.2,9.7c18.8,10.7,42.7,4.1,53.4-14.7  l21.6-37.9c0.4-0.7,0.6-1.4,0.9-2.1l0.1,0.2l41.8-73.5c1-1.8,0.4-4.1-1.4-5.1L243.5,249c-1.8-1-4.1-0.4-5.1,1.4l-23.5,41.3  l-11.7-6.6C184.3,274.4,160.4,281,149.7,299.8z M165.2,308.6c5.8-10.2,18.8-13.8,29-8l17.1,9.7c10.2,5.8,13.8,18.8,8,29l-21.6,37.9  c-5.8,10.2-18.8,13.8-29,8l-17.1-9.7c-10.2-5.8-13.8-18.8-8-29L165.2,308.6z"/>
<path style="fill:#FFFFFF;" d="M180.4,99c-21.2,12.1-28.7,39-16.6,60.3l72.8,128.2l38.4-21.8L180.4,99z"/>
<path style="fill:#324A5E;" d="M301.9,284.4l-11.7,6.6l-23.5-41.3c-1-1.8-3.3-2.4-5.1-1.4L228.7,267c-1.8,1-2.4,3.3-1.4,5.1  l41.8,73.5l0.1-0.2c0.3,0.7,0.5,1.4,0.9,2.1l21.6,37.9c10.7,18.8,34.6,25.4,53.4,14.7l17.2-9.7c18.8-10.7,25.4-34.6,14.7-53.4  l-21.6-37.9C344.6,280.3,320.7,273.8,301.9,284.4z M361.3,345.9c5.8,10.2,2.2,23.2-8,29l-17.1,9.7c-10.2,5.8-23.2,2.2-29-8  l-21.6-37.9c-5.8-10.2-2.2-23.2,8-29l17.1-9.7c10.2-5.8,23.2-2.2,29,8L361.3,345.9z"/>
<circle style="fill:#FFFFFF;" cx="253.9" cy="274.4" r="9.2"/>
<g>
</g>
<g>
</g>
<g>
</g>
<g>
</g>
<g>
</g>
<g>
</g>
<g>
</g>
<g>
</g>
<g>
</g>
<g>
</g>
<g>
</g>
<g>
</g>
<g>
</g>
<g>
</g>
<g>
</g>
</svg>
