<?xml version="1.0" encoding="iso-8859-1"?>
<!-- Generator: Adobe Illustrator 19.0.0, SVG Export Plug-In . SVG Version: 6.00 Build 0)  -->
<svg xmlns="http://www.w3.org/2000/svg" xmlns:xlink="http://www.w3.org/1999/xlink" version="1.1" id="Layer_1" x="0px" y="0px" viewBox="0 0 505 505" style="enable-background:new 0 0 505 505;" xml:space="preserve">
<circle style="fill:#324A5E;" cx="252.5" cy="252.5" r="252.5"/>
<path style="fill:#FFD05B;" d="M396.7,111.8H108.3c-2.6,0-4.6,2.1-4.6,4.6v57.7c0,2.6,2.1,4.6,4.6,4.6h288.4c2.6,0,4.6-2.1,4.6-4.6  v-57.7C401.4,113.8,399.3,111.8,396.7,111.8z"/>
<rect x="128.4" y="137" style="fill:#2B3B4E;" width="248.3" height="16.5"/>
<path style="fill:#4CDBC4;" d="M160.7,145.9v276c0,3,2.4,5.4,5.4,5.4h172.7c3,0,5.4-2.4,5.4-5.4v-276H160.7z"/>
<path style="fill:#FFFFFF;" d="M275.5,145.9h-46c-5.7,25.6-27.6,44.8-53.9,44.8v167.9c29.1,0,52.9,23.4,55.2,53.3h43.4  c2.3-29.8,26.1-53.3,55.2-53.3V190.7C303.2,190.7,281.2,171.5,275.5,145.9z"/>
<path style="fill:#4CDBC4;" d="M221.1,277.8h-9.8v-6.6h9.5c0-6.1,1.4-11.8,4.1-17h12.5c-1.4,1.7-2.7,4.3-3.9,7.8s-1.9,6.5-2.1,9.2  h16.4c2.6-7,5.4-11.8,8.5-14.4c3-2.6,6.8-3.8,11.1-3.8c4.7,0,8.7,1.7,12,5s5.2,7.7,5.8,13.2h8.4v6.6h-8.2  c-0.3,6.3-1.3,11.1-3.1,14.2h-12.2c2.6-4.2,4.1-8.9,4.7-14.2h-17.1c-2.4,6.6-5.1,11.3-8.1,14.1c-3,2.9-6.7,4.3-11.1,4.3  c-5,0-9-1.6-12-4.8C223.6,288.3,221.8,283.7,221.1,277.8z M260.5,271.3h14.3c-0.8-4.2-2.9-6.3-6.5-6.3  C265.1,265,262.6,267.1,260.5,271.3z M245.3,277.8h-13.6c0.7,4.3,2.8,6.4,6.4,6.4C241,284.3,243.4,282.1,245.3,277.8z"/>
<g>
</g>
<g>
</g>
<g>
</g>
<g>
</g>
<g>
</g>
<g>
</g>
<g>
</g>
<g>
</g>
<g>
</g>
<g>
</g>
<g>
</g>
<g>
</g>
<g>
</g>
<g>
</g>
<g>
</g>
</svg>
