<?xml version="1.0" encoding="iso-8859-1"?>
<!-- Generator: Adobe Illustrator 19.0.0, SVG Export Plug-In . SVG Version: 6.00 Build 0)  -->
<svg xmlns="http://www.w3.org/2000/svg" xmlns:xlink="http://www.w3.org/1999/xlink" version="1.1" id="Layer_1" x="0px" y="0px" viewBox="0 0 507 507" style="enable-background:new 0 0 507 507;" xml:space="preserve">
<circle style="fill:#54C0EB;" cx="253.5" cy="252.5" r="252.5"/>
<path style="fill:#84DBFF;" d="M62.9,420c46.3,53.3,114.5,87,190.6,87s144.3-33.7,190.6-87H62.9z"/>
<rect x="107.7" y="145.6" style="fill:#FFFFFF;" width="291.6" height="197.8"/>
<g>
	<polygon style="fill:#2B3B4E;" points="321.3,420 268.8,334.1 249.7,345.7 295.1,420  "/>
	<polygon style="fill:#2B3B4E;" points="211.9,420 257.3,345.7 238.2,334.1 185.7,420  "/>
</g>
<g>
	<path style="fill:#324A5E;" d="M400.8,124H106.2c-5.9,0-10.8,4.8-10.8,10.8s4.8,10.8,10.8,10.8h294.6c5.9,0,10.8-4.8,10.8-10.8   S406.7,124,400.8,124z"/>
	<path style="fill:#324A5E;" d="M400.8,332.6H106.2c-5.9,0-10.8,4.8-10.8,10.8c0,5.9,4.8,10.8,10.8,10.8h294.6   c5.9,0,10.8-4.8,10.8-10.8C411.6,337.4,406.7,332.6,400.8,332.6z"/>
</g>
<path style="fill:#FF7058;" d="M171.9,296.7l57.1-57.1l36,36c3.6,3.6,9.3,3.6,12.9,0l53.8-53.8l16.2,16.2v-45.7h-45.7l16.6,16.6  l-47.3,47.3l-36-36c-3.6-3.6-9.3-3.6-12.9,0L159,283.8L171.9,296.7z"/>
<g>
</g>
<g>
</g>
<g>
</g>
<g>
</g>
<g>
</g>
<g>
</g>
<g>
</g>
<g>
</g>
<g>
</g>
<g>
</g>
<g>
</g>
<g>
</g>
<g>
</g>
<g>
</g>
<g>
</g>
</svg>
