<?xml version="1.0" encoding="iso-8859-1"?>
<!-- Generator: Adobe Illustrator 19.0.0, SVG Export Plug-In . SVG Version: 6.00 Build 0)  -->
<svg xmlns="http://www.w3.org/2000/svg" xmlns:xlink="http://www.w3.org/1999/xlink" version="1.1" id="Layer_1" x="0px" y="0px" viewBox="0 0 505 505" style="enable-background:new 0 0 505 505;" xml:space="preserve">
<circle style="fill:#FFD05B;" cx="252.5" cy="252.5" r="252.5"/>
<path style="fill:#FFFFFF;" d="M369.5,120.8l-164.6,63.7v118.4l164.6,63.7c3.1,1.2,6.5-1.1,6.5-4.4v-237  C376,121.9,372.6,119.6,369.5,120.8z"/>
<path style="fill:#324A5E;" d="M369.5,120.8l-20.2,7.8v230.1l20.2,7.8c3.1,1.2,6.5-1.1,6.5-4.4V125.2  C376,121.9,372.6,119.6,369.5,120.8z"/>
<path style="fill:#CED5E0;" d="M122.5,184.3c-2.7,0-4.9,2.2-4.9,4.9v108.9c0,2.7,2.2,4.9,4.9,4.9h82.4V184.3H122.5z"/>
<g>
	<path style="fill:#324A5E;" d="M106.3,192.6c-2.1,0-3.9,1.7-3.9,3.9v94.4c0,2.1,1.7,3.9,3.9,3.9h11.2V192.6H106.3z"/>
	<path style="fill:#324A5E;" d="M148.9,303v69.2c0,6.8,5.5,12.3,12.3,12.3s12.3-5.5,12.3-12.3V303H148.9z"/>
</g>
<g>
</g>
<g>
</g>
<g>
</g>
<g>
</g>
<g>
</g>
<g>
</g>
<g>
</g>
<g>
</g>
<g>
</g>
<g>
</g>
<g>
</g>
<g>
</g>
<g>
</g>
<g>
</g>
<g>
</g>
</svg>
