<?xml version="1.0" encoding="iso-8859-1"?>
<!-- Generator: Adobe Illustrator 19.0.0, SVG Export Plug-In . SVG Version: 6.00 Build 0)  -->
<svg xmlns="http://www.w3.org/2000/svg" xmlns:xlink="http://www.w3.org/1999/xlink" version="1.1" id="Layer_1" x="0px" y="0px" viewBox="0 0 505 505" style="enable-background:new 0 0 505 505;" xml:space="preserve">
<circle style="fill:#FD8469;" cx="252.5" cy="252.5" r="252.5"/>
<path style="fill:#324A5E;" d="M369.8,73.9H135.2c-5.7,0-10.3,4.6-10.3,10.3v336.6c0,5.7,4.6,10.3,10.3,10.3h234.6  c5.7,0,10.3-4.6,10.3-10.3V84.2C380.1,78.5,375.5,73.9,369.8,73.9z"/>
<rect x="143.8" y="111.9" style="fill:#FFFFFF;" width="217.4" height="281.2"/>
<g>
	<path style="fill:#2B3B4E;" d="M273.5,98.4h-42c-2.8,0-5.1-2.3-5.1-5.1l0,0c0-2.8,2.3-5.1,5.1-5.1h42c2.8,0,5.1,2.3,5.1,5.1l0,0   C278.6,96.2,276.3,98.4,273.5,98.4z"/>
	<circle style="fill:#2B3B4E;" cx="252.5" cy="412.1" r="9.8"/>
</g>
<rect x="174.9" y="229.2" style="fill:#FF7058;" width="33.9" height="144.1"/>
<rect x="235.6" y="303.3" style="fill:#84DBFF;" width="33.9" height="70"/>
<rect x="296.2" y="270" style="fill:#324A5E;" width="33.9" height="103.3"/>
<g>
</g>
<g>
</g>
<g>
</g>
<g>
</g>
<g>
</g>
<g>
</g>
<g>
</g>
<g>
</g>
<g>
</g>
<g>
</g>
<g>
</g>
<g>
</g>
<g>
</g>
<g>
</g>
<g>
</g>
</svg>
