<?xml version="1.0" encoding="iso-8859-1"?>
<!-- Generator: Adobe Illustrator 19.0.0, SVG Export Plug-In . SVG Version: 6.00 Build 0)  -->
<svg xmlns="http://www.w3.org/2000/svg" xmlns:xlink="http://www.w3.org/1999/xlink" version="1.1" id="Layer_1" x="0px" y="0px" viewBox="0 0 505 505" style="enable-background:new 0 0 505 505;" xml:space="preserve">
<circle style="fill:#84DBFF;" cx="252.5" cy="252.5" r="252.5"/>
<g>
	<path style="fill:#324A5E;" d="M392.2,239.8h-7.8c-0.6,0-1.1,0.5-1.1,1.1v7.2h-13v8.9h13v7.2c0,0.6,0.5,1.1,1.1,1.1h7.8   c0.6,0,1.1-0.5,1.1-1.1V241C393.3,240.3,392.8,239.8,392.2,239.8z"/>
	<polygon style="fill:#324A5E;" points="336.2,176.4 152.2,176.4 169.8,77.6 318.6,77.6  "/>
	<polygon style="fill:#324A5E;" points="336.2,328.6 152.2,328.6 169.8,427.4 318.6,427.4  "/>
</g>
<circle style="fill:#FF7058;" cx="244.2" cy="252.5" r="132.5"/>
<circle style="fill:#FFFFFF;" cx="244.2" cy="252.5" r="109.6"/>
<g>
	<circle style="fill:#4CDBC4;" cx="244.2" cy="156.2" r="4.5"/>
	<circle style="fill:#4CDBC4;" cx="244.2" cy="348.9" r="4.5"/>
	<circle style="fill:#4CDBC4;" cx="340.6" cy="252.5" r="4.5"/>
	<circle style="fill:#4CDBC4;" cx="147.9" cy="252.5" r="4.5"/>
</g>
<polygon style="fill:#324A5E;" points="248.7,248 248.7,176.6 239.7,176.6 239.7,248 239.7,252.5 239.7,257 310.1,257 310.1,248 "/>
<g>
</g>
<g>
</g>
<g>
</g>
<g>
</g>
<g>
</g>
<g>
</g>
<g>
</g>
<g>
</g>
<g>
</g>
<g>
</g>
<g>
</g>
<g>
</g>
<g>
</g>
<g>
</g>
<g>
</g>
</svg>
