<?xml version="1.0" encoding="iso-8859-1"?>
<!-- Generator: Adobe Illustrator 19.0.0, SVG Export Plug-In . SVG Version: 6.00 Build 0)  -->
<svg xmlns="http://www.w3.org/2000/svg" xmlns:xlink="http://www.w3.org/1999/xlink" version="1.1" id="Layer_1" x="0px" y="0px" viewBox="0 0 505 505" style="enable-background:new 0 0 505 505;" xml:space="preserve">
<circle style="fill:#90DFAA;" cx="252.5" cy="252.5" r="252.5"/>
<path style="fill:#FFFFFF;" d="M197.7,222.1v-55.5c0-30.2,24.6-54.8,54.8-54.8s54.8,24.6,54.8,54.8v55.5h25v-55.5  c0-44-35.8-79.8-79.8-79.8s-79.8,35.8-79.8,79.8v55.5H197.7z"/>
<path style="fill:#324A5E;" d="M351.2,213.9H153.8c-8,0-14.4,6.5-14.4,14.4v167.5c0,8,6.5,14.4,14.4,14.4h197.4  c8,0,14.4-6.5,14.4-14.4V228.3C365.6,220.3,359.2,213.9,351.2,213.9z"/>
<path style="fill:#FFFFFF;" d="M242.6,311.4l-4,52.5h27.7l-4-52.5c6.6-3.5,11.1-10.4,11.1-18.4c0-11.6-9.4-21-21-21s-21,9.4-21,21  C231.5,301,236,307.9,242.6,311.4z"/>
<g>
</g>
<g>
</g>
<g>
</g>
<g>
</g>
<g>
</g>
<g>
</g>
<g>
</g>
<g>
</g>
<g>
</g>
<g>
</g>
<g>
</g>
<g>
</g>
<g>
</g>
<g>
</g>
<g>
</g>
</svg>
