<?xml version="1.0" encoding="iso-8859-1"?>
<!-- Generator: Adobe Illustrator 19.0.0, SVG Export Plug-In . SVG Version: 6.00 Build 0)  -->
<svg xmlns="http://www.w3.org/2000/svg" xmlns:xlink="http://www.w3.org/1999/xlink" version="1.1" id="Layer_1" x="0px" y="0px" viewBox="0 0 505 505" style="enable-background:new 0 0 505 505;" xml:space="preserve">
<circle style="fill:#84DBFF;" cx="252.5" cy="252.5" r="252.5"/>
<path style="fill:#324A5E;" d="M332,225.3c2.4,5.1,5.7,9.9,10,14.1c0.9,0.9,1.9,1.7,2.8,2.5c-32.5,38.1-66.6,69.9-93.3,92.8  c-0.8-0.9-1.5-1.7-2.3-2.6c-4.2-4.2-9-7.5-14.1-10l-68,68c2.4,5.1,5.7,9.9,10,14.1c17.1,17.1,43.2,19.5,62.9,7.3l0.1,0.1  c0,0,110.1-66.4,178-176.8c15.8-20,14.5-49.1-4-67.6c-4.2-4.2-9-7.5-14.1-10L332,225.3z"/>
<g>
	<path style="fill:#E6E9EE;" d="M220.1,317.8c-4.7-0.6-9.4,1.2-12.7,4.5l-40.2,40.2c-3.3,3.3-5.2,8-4.5,12.7   c0.7,5.2,2.2,10.2,4.5,15l68-68C230.3,320,225.2,318.5,220.1,317.8z"/>
	<path style="fill:#E6E9EE;" d="M385,152.9c-4.7-0.6-9.4,1.2-12.7,4.5l-40.2,40.2c-3.3,3.3-5.2,8-4.5,12.7c0.7,5.2,2.2,10.2,4.5,15   l68-68C395.2,155.1,390.1,153.6,385,152.9z"/>
</g>
<path style="fill:#FFFFFF;" d="M294.4,270.4l-29.6-48.8c2-7.7,3.2-15.7,3.2-24.1c0-53-43-96-96-96s-96,43-96,96s43,96,96,96  c29.7,0,56.2-13.5,73.8-34.6L294.4,270.4z"/>
<path style="fill:#FF7058;" d="M176,237.6v12.5h-8.4V238c-7.8,0-15-1.8-21.7-5.3v-15.9c2.2,1.8,5.5,3.5,9.9,5s8.3,2.4,11.8,2.6  v-20.9c-9-3.3-15.1-6.9-18.3-10.8c-3.3-3.9-4.9-8.6-4.9-14.2c0-6,2.1-11.1,6.4-15.4c4.3-4.2,9.9-6.7,16.9-7.4V145h8.4v10.5  c8.1,0.4,14.1,1.7,18.1,3.9v15.5c-5.4-3.3-11.4-5.2-18.1-6v21.8c8.4,3,14.4,6.5,18,10.4s5.5,8.6,5.5,14.1c0,6.4-2,11.5-6.1,15.4  C189.4,234.4,183.6,236.7,176,237.6z M167.7,187.3v-18.2c-5.3,1-8,3.7-8,8.3C159.7,181.4,162.3,184.7,167.7,187.3z M176,206.7v17.4  c5.5-0.8,8.2-3.6,8.2-8.2C184.3,212.2,181.5,209.1,176,206.7z"/>
<g>
</g>
<g>
</g>
<g>
</g>
<g>
</g>
<g>
</g>
<g>
</g>
<g>
</g>
<g>
</g>
<g>
</g>
<g>
</g>
<g>
</g>
<g>
</g>
<g>
</g>
<g>
</g>
<g>
</g>
</svg>
