<?xml version="1.0" encoding="iso-8859-1"?>
<!-- Generator: Adobe Illustrator 19.0.0, SVG Export Plug-In . SVG Version: 6.00 Build 0)  -->
<svg xmlns="http://www.w3.org/2000/svg" xmlns:xlink="http://www.w3.org/1999/xlink" version="1.1" id="Layer_1" x="0px" y="0px" viewBox="0 0 505 505" style="enable-background:new 0 0 505 505;" xml:space="preserve">
<circle style="fill:#324A5E;" cx="252.5" cy="252.5" r="252.5"/>
<polygon style="fill:#FFFFFF;" points="355.7,228.3 288.1,126.6 217.6,220.1 162.1,175.8 168.7,167.5 215.7,204.9 288.6,108.2   364.6,222.4 "/>
<path style="fill:#4CDBC4;" d="M164.5,394h-39.2c-0.5,0-0.9-0.4-0.9-0.9v-168c0-0.5,0.4-0.9,0.9-0.9h39.2c0.5,0,0.9,0.4,0.9,0.9v168  C165.4,393.6,165,394,164.5,394z"/>
<path style="fill:#FFD05B;" d="M236.2,394H197c-0.5,0-0.9-0.4-0.9-0.9V284.2c0-0.5,0.4-0.9,0.9-0.9h39.2c0.5,0,0.9,0.4,0.9,0.9  v108.9C237.1,393.6,236.7,394,236.2,394z"/>
<path style="fill:#84DBFF;" d="M308,394h-39.2c-0.5,0-0.9-0.4-0.9-0.9v-191c0-0.5,0.4-0.9,0.9-0.9H308c0.5,0,0.9,0.4,0.9,0.9v191  C308.9,393.6,308.5,394,308,394z"/>
<path style="fill:#FF7058;" d="M379.7,394h-39.2c-0.5,0-0.9-0.4-0.9-0.9v-97.3c0-0.5,0.4-0.9,0.9-0.9h39.2c0.5,0,0.9,0.4,0.9,0.9  v97.3C380.6,393.6,380.2,394,379.7,394z"/>
<circle style="fill:#4CDBC4;" cx="144.9" cy="155.5" r="26.1"/>
<circle style="fill:#FFD05B;" cx="216.6" cy="212.5" r="26.1"/>
<circle style="fill:#84DBFF;" cx="288.4" cy="117.4" r="26.1"/>
<circle style="fill:#FF7058;" cx="360.1" cy="225.3" r="26.1"/>
<g>
</g>
<g>
</g>
<g>
</g>
<g>
</g>
<g>
</g>
<g>
</g>
<g>
</g>
<g>
</g>
<g>
</g>
<g>
</g>
<g>
</g>
<g>
</g>
<g>
</g>
<g>
</g>
<g>
</g>
</svg>
