<?xml version="1.0" encoding="iso-8859-1"?>
<!-- Generator: Adobe Illustrator 19.0.0, SVG Export Plug-In . SVG Version: 6.00 Build 0)  -->
<svg xmlns="http://www.w3.org/2000/svg" xmlns:xlink="http://www.w3.org/1999/xlink" version="1.1" id="Layer_1" x="0px" y="0px" viewBox="0 0 505 505" style="enable-background:new 0 0 505 505;" xml:space="preserve">
<circle style="fill:#90DFAA;" cx="252.5" cy="252.5" r="252.5"/>
<rect x="170.8" y="205.6" style="fill:#324A5E;" width="26.2" height="108.3"/>
<rect x="216.5" y="237" style="fill:#FF7058;" width="26.2" height="76.9"/>
<rect x="262.3" y="184.3" style="fill:#FFFFFF;" width="26.2" height="129.6"/>
<rect x="308.1" y="255" style="fill:#FF7058;" width="26.2" height="59"/>
<g>
	<path style="fill:#FFFFFF;" d="M361.6,148.2v-46.1l-13.2,13.2C283.1,69.6,192.3,75.9,134,134.1c-58.3,58.3-64.5,149.1-18.8,214.4   l19.7-19.7c-35.2-54.3-29-127.7,18.5-175.2s121-53.7,175.2-18.5l-13.1,13.1H361.6z"/>
	<path style="fill:#FFFFFF;" d="M145.5,355l-1.3,46.1l13.6-12.8c63.9,47.6,154.9,43.9,214.9-12.6c60-56.6,68.8-147.2,25-213.8   L377.4,181c33.6,55.3,25.3,128.5-23.6,174.6S231.3,405.8,178.1,369l13.5-12.7L145.5,355z"/>
</g>
<g>
</g>
<g>
</g>
<g>
</g>
<g>
</g>
<g>
</g>
<g>
</g>
<g>
</g>
<g>
</g>
<g>
</g>
<g>
</g>
<g>
</g>
<g>
</g>
<g>
</g>
<g>
</g>
<g>
</g>
</svg>
