<?xml version="1.0" encoding="iso-8859-1"?>
<!-- Generator: Adobe Illustrator 19.0.0, SVG Export Plug-In . SVG Version: 6.00 Build 0)  -->
<svg xmlns="http://www.w3.org/2000/svg" xmlns:xlink="http://www.w3.org/1999/xlink" version="1.1" id="Layer_1" x="0px" y="0px" viewBox="0 0 505 505" style="enable-background:new 0 0 505 505;" xml:space="preserve">
<circle style="fill:#FFD05B;" cx="252.5" cy="252.5" r="252.5"/>
<path style="fill:#FFFFFF;" d="M387.1,124.4H117.9c-5.9,0-10.8,4.8-10.8,10.8v264.3c0,5.9,4.8,10.8,10.8,10.8h269.2  c5.9,0,10.8-4.8,10.8-10.8V135.1C397.9,129.2,393.1,124.4,387.1,124.4z"/>
<g>
	<path style="fill:#324A5E;" d="M170.4,94.7c-4.7,0-8.5,3.8-8.5,8.5v49.1c0,4.7,3.8,8.5,8.5,8.5s8.5-3.8,8.5-8.5v-49.1   C178.9,98.5,175.1,94.7,170.4,94.7z"/>
	<path style="fill:#324A5E;" d="M334.6,94.7c-4.7,0-8.5,3.8-8.5,8.5v49.1c0,4.7,3.8,8.5,8.5,8.5s8.5-3.8,8.5-8.5v-49.1   C343.1,98.5,339.3,94.7,334.6,94.7z"/>
</g>
<path style="fill:#54C0EB;" d="M332.4,267.1c0.1-1.6,0.2-3.1,0.2-4.7c0-41.5-33.6-75.2-75.2-75.2v79.9H332.4z"/>
<path style="fill:#FF7058;" d="M247.6,277v-79.9c-41.5,0-75.2,33.6-75.2,75.2c0,1.6,0.1,3.2,0.2,4.7c2.4,39.3,35.1,70.4,75,70.4  s72.6-31.1,75-70.4H247.6z"/>
<g>
</g>
<g>
</g>
<g>
</g>
<g>
</g>
<g>
</g>
<g>
</g>
<g>
</g>
<g>
</g>
<g>
</g>
<g>
</g>
<g>
</g>
<g>
</g>
<g>
</g>
<g>
</g>
<g>
</g>
</svg>
