<?xml version="1.0" encoding="iso-8859-1"?>
<!-- Generator: Adobe Illustrator 19.0.0, SVG Export Plug-In . SVG Version: 6.00 Build 0)  -->
<svg xmlns="http://www.w3.org/2000/svg" xmlns:xlink="http://www.w3.org/1999/xlink" version="1.1" id="Layer_1" x="0px" y="0px" viewBox="0 0 505 505" style="enable-background:new 0 0 505 505;" xml:space="preserve">
<path style="fill:#FD8469;" d="M505,252.5C505,392,392,505,252.5,505S0,392,0,252.5C0,113.1,113,0,252.5,0  c110.1,0,203.7,70.5,238.3,168.7c7.4,21,12.1,43.3,13.7,66.5C504.8,240.9,505,246.7,505,252.5z"/>
<path style="fill:#324A5E;" d="M259.4,319.8v20.9h-14.1v-20.4c-13.1-0.1-25.2-3-36.5-8.9v-26.7c3.7,3,9.3,5.8,16.7,8.4  s14,4.1,19.8,4.4v-35.1c-15.1-5.6-25.3-11.7-30.8-18.2s-8.3-14.5-8.3-23.9c0-10.1,3.6-18.7,10.7-25.8c7.1-7.1,16.6-11.2,28.4-12.4  v-18h14.1v17.6c13.6,0.6,23.7,2.8,30.4,6.6v26.1c-9-5.5-19.1-8.8-30.4-10V241c14.1,5.1,24.2,10.9,30.3,17.4  c6.1,6.5,9.2,14.4,9.2,23.7c0,10.7-3.4,19.3-10.2,25.8C281.9,314.4,272.1,318.3,259.4,319.8z M245.3,235.3v-30.6  c-8.9,1.6-13.4,6.3-13.4,14C231.9,225.3,236.4,230.8,245.3,235.3z M259.4,267.9v29.3c9.2-1.4,13.8-6,13.8-13.8  C273.2,277.1,268.6,271.9,259.4,267.9z"/>
<g>
	<path style="fill:#FFFFFF;" d="M366,144V96l-13.7,13.7c-67.9-47.5-162.4-41-223,19.6s-67.1,155.1-19.6,223l20.5-20.5   c-36.5-56.5-30.1-132.9,19.3-182.3s125.8-55.8,182.3-19.2L318.1,144H366z"/>
	<path style="fill:#FFFFFF;" d="M395.3,152.7l-20.5,20.5c36.6,56.4,30.2,132.8-19.2,182.3s-125.8,55.8-182.3,19.2l13.9-13.9h-47.9   v47.9l13.5-13.5c67.9,47.5,162.4,41,223-19.6C436.3,315.1,442.8,220.6,395.3,152.7z"/>
</g>
<g>
</g>
<g>
</g>
<g>
</g>
<g>
</g>
<g>
</g>
<g>
</g>
<g>
</g>
<g>
</g>
<g>
</g>
<g>
</g>
<g>
</g>
<g>
</g>
<g>
</g>
<g>
</g>
<g>
</g>
</svg>
