<?xml version="1.0" encoding="iso-8859-1"?>
<!-- Generator: Adobe Illustrator 19.0.0, SVG Export Plug-In . SVG Version: 6.00 Build 0)  -->
<svg xmlns="http://www.w3.org/2000/svg" xmlns:xlink="http://www.w3.org/1999/xlink" version="1.1" id="Layer_1" x="0px" y="0px" viewBox="0 0 505 505" style="enable-background:new 0 0 505 505;" xml:space="preserve">
<circle style="fill:#324A5E;" cx="252.5" cy="252.5" r="252.5"/>
<path style="fill:#4CDBC4;" d="M416.2,356.3H88.7c-1.7,0-3.1-1.4-3.1-3.1V152c0-1.7,1.4-3.1,3.1-3.1h327.5c1.7,0,3.1,1.4,3.1,3.1  v201.2C419.4,354.8,418,356.3,416.2,356.3z"/>
<path style="fill:#FFFFFF;" d="M403.9,276.4v-47.9c-32.9-2.5-58.8-28.8-58.8-60.9H159.8c0,32.1-25.9,58.4-58.8,60.9v47.9  c32.9,2.5,58.8,28.8,58.8,60.9h185.3C345.1,305.3,371,279,403.9,276.4z"/>
<circle style="fill:#4CDBC4;" cx="252.5" cy="252.5" r="52.2"/>
<path style="fill:#FFFFFF;" d="M255.3,279.9v8.5h-5.8v-8.3c-5.3,0-10.3-1.2-14.8-3.6v-10.9c1.5,1.2,3.8,2.4,6.8,3.4s5.7,1.6,8,1.8  v-14.3c-6.1-2.3-10.3-4.7-12.5-7.4s-3.4-5.9-3.4-9.7c0-4.1,1.5-7.6,4.4-10.5s6.7-4.6,11.5-5v-7.3h5.7v7.1c5.5,0.3,9.6,1.2,12.4,2.7  V237c-3.7-2.2-7.8-3.6-12.4-4.1v14.9c5.7,2.1,9.8,4.4,12.3,7.1c2.5,2.7,3.7,5.9,3.7,9.6c0,4.3-1.4,7.8-4.2,10.5  C264.4,277.7,260.4,279.3,255.3,279.9z M249.5,245.5v-12.4c-3.6,0.7-5.5,2.6-5.5,5.7C244.1,241.5,245.9,243.7,249.5,245.5z   M255.3,258.8v11.9c3.7-0.6,5.6-2.4,5.6-5.6C260.9,262.5,259,260.4,255.3,258.8z"/>
<g>
</g>
<g>
</g>
<g>
</g>
<g>
</g>
<g>
</g>
<g>
</g>
<g>
</g>
<g>
</g>
<g>
</g>
<g>
</g>
<g>
</g>
<g>
</g>
<g>
</g>
<g>
</g>
<g>
</g>
</svg>
