<?xml version="1.0" encoding="iso-8859-1"?>
<!-- Generator: Adobe Illustrator 19.0.0, SVG Export Plug-In . SVG Version: 6.00 Build 0)  -->
<svg xmlns="http://www.w3.org/2000/svg" xmlns:xlink="http://www.w3.org/1999/xlink" version="1.1" id="Layer_1" x="0px" y="0px" viewBox="0 0 505 505" style="enable-background:new 0 0 505 505;" xml:space="preserve">
<circle style="fill:#90DFAA;" cx="252.5" cy="252.5" r="252.5"/>
<path style="fill:#324A5E;" d="M371.9,102H133.1c-3.8,0-6.8,3-6.8,6.8v305.1c0,3.8,3,6.8,6.8,6.8H372c3.8,0,6.8-3,6.8-6.8V108.8  C378.7,105,375.7,102,371.9,102z"/>
<rect x="149" y="124.7" style="fill:#FFFFFF;" width="207" height="273.2"/>
<path style="fill:#FF7058;" d="M310.2,88.4v53c0,2.3-1.8,4.1-4.1,4.1H198.9c-2.3,0-4.1-1.8-4.1-4.1v-53c0-2.3,1.8-4.1,4.1-4.1H306  C308.3,84.3,310.2,86.1,310.2,88.4z"/>
<g>
	<rect x="176" y="171.8" style="fill:#EDF2F2;" width="153.1" height="9.5"/>
	<rect x="176" y="207.6" style="fill:#EDF2F2;" width="153.1" height="9.5"/>
	<rect x="176" y="243.3" style="fill:#EDF2F2;" width="153.1" height="9.5"/>
	<rect x="176" y="279" style="fill:#EDF2F2;" width="153.1" height="9.5"/>
	<rect x="176" y="314.8" style="fill:#EDF2F2;" width="153.1" height="9.5"/>
	<rect x="176" y="350.5" style="fill:#EDF2F2;" width="153.1" height="9.5"/>
</g>
<g>
</g>
<g>
</g>
<g>
</g>
<g>
</g>
<g>
</g>
<g>
</g>
<g>
</g>
<g>
</g>
<g>
</g>
<g>
</g>
<g>
</g>
<g>
</g>
<g>
</g>
<g>
</g>
<g>
</g>
</svg>
