<?xml version="1.0" encoding="iso-8859-1"?>
<!-- Generator: Adobe Illustrator 19.0.0, SVG Export Plug-In . SVG Version: 6.00 Build 0)  -->
<svg xmlns="http://www.w3.org/2000/svg" xmlns:xlink="http://www.w3.org/1999/xlink" version="1.1" id="Layer_1" x="0px" y="0px" viewBox="0 0 505 505" style="enable-background:new 0 0 505 505;" xml:space="preserve">
<circle style="fill:#FD8469;" cx="252.5" cy="252.5" r="252.5"/>
<rect x="110.3" y="141" style="fill:#324A5E;" width="238.6" height="259.8"/>
<path style="fill:#FFFFFF;" d="M110.3,104.2v138.7c0,38.1,30,69.1,67.6,70.9c1.2,0.1,2.3,0.2,3.5,0.2h167.5v-71.1V104.2H110.3z   M324.6,117.5c4.9,0,8.9,4,8.9,8.8c0,4.9-4,8.9-8.9,8.9s-8.8-4-8.8-8.9C315.7,121.5,319.7,117.5,324.6,117.5z M286.6,117.5  c4.9,0,8.8,4,8.8,8.8c0,4.9-4,8.9-8.8,8.9s-8.8-4-8.8-8.9C277.7,121.5,281.7,117.5,286.6,117.5z M248.6,117.5c4.9,0,8.8,4,8.8,8.8  c0,4.9-4,8.9-8.8,8.9c-4.9,0-8.9-4-8.9-8.9C239.7,121.5,243.7,117.5,248.6,117.5z M210.6,117.5c4.9,0,8.9,4,8.9,8.8  c0,4.9-4,8.9-8.9,8.9s-8.9-4-8.9-8.9C201.7,121.5,205.7,117.5,210.6,117.5z M172.6,117.5c4.9,0,8.8,4,8.8,8.8c0,4.9-4,8.9-8.8,8.9  c-4.9,0-8.8-4-8.8-8.9C163.7,121.5,167.7,117.5,172.6,117.5z M134.6,117.5c4.9,0,8.8,4,8.8,8.8c0,4.9-4,8.9-8.8,8.9  c-4.9,0-8.9-4-8.9-8.9C125.7,121.5,129.7,117.5,134.6,117.5z"/>
<path style="fill:#E6E9EE;" d="M246.9,242.8c0,38.6-30.7,69.9-69,71v0.1h187.5c39.3,0,71.1-31.8,71.1-71.1L246.9,242.8L246.9,242.8z  "/>
<g>
</g>
<g>
</g>
<g>
</g>
<g>
</g>
<g>
</g>
<g>
</g>
<g>
</g>
<g>
</g>
<g>
</g>
<g>
</g>
<g>
</g>
<g>
</g>
<g>
</g>
<g>
</g>
<g>
</g>
</svg>
