<?xml version="1.0" encoding="iso-8859-1"?>
<!-- Generator: Adobe Illustrator 19.0.0, SVG Export Plug-In . SVG Version: 6.00 Build 0)  -->
<svg xmlns="http://www.w3.org/2000/svg" xmlns:xlink="http://www.w3.org/1999/xlink" version="1.1" id="Layer_1" x="0px" y="0px" viewBox="0 0 505 505" style="enable-background:new 0 0 505 505;" xml:space="preserve">
<circle style="fill:#324A5E;" cx="252.5" cy="252.5" r="252.5"/>
<g>
	<path style="fill:#E6E9EE;" d="M404.4,273.1c-3,0-6-1.4-8-4.1l-83.7-116.2c-1.9-1.2-5.7-2.9-8.7-2.1c-3.6,1-6.1,5.7-7.7,9.5   c-2,5-7.8,7.4-12.8,5.4s-7.4-7.8-5.4-12.8c4.7-11.5,11.7-18.6,20.8-21c13.6-3.6,25.4,5.1,26.7,6.2c0.7,0.6,1.4,1.2,1.9,2   l84.7,117.6c3.2,4.4,2.2,10.5-2.2,13.7C408.4,272.5,406.4,273.1,404.4,273.1z"/>
	<path style="fill:#E6E9EE;" d="M100.6,273.1c-2,0-4-0.6-5.7-1.8c-4.4-3.2-5.4-9.3-2.2-13.7L177.4,140c0.5-0.8,1.2-1.4,1.9-2   c1.3-1,13.1-9.8,26.7-6.2c9.1,2.4,16.1,9.5,20.8,21c2,5-0.4,10.7-5.4,12.8s-10.7-0.4-12.8-5.4c-1.5-3.8-4.1-8.5-7.7-9.5   c-3-0.8-6.9,1-8.7,2.1L108.5,269C106.7,271.7,103.7,273.1,100.6,273.1z"/>
</g>
<g>
	<circle style="fill:#54C0EB;" cx="153.3" cy="299.9" r="58.8"/>
	<circle style="fill:#54C0EB;" cx="351.7" cy="299.9" r="58.8"/>
</g>
<path style="fill:#FFFFFF;" d="M351.7,225.6c-34,0-62.7,23-71.4,54.3c-9.5-6.8-19.4-10.1-29.6-9.7c-10.4,0.4-19.2,4.7-25.9,9.4  c-8.8-31.2-37.4-54.1-71.4-54.1c-40.9,0-74.2,33.3-74.2,74.2s33.3,74.2,74.2,74.2c39.7,0,72.1-31.3,74-70.5  c3.6-4.1,12.7-13.2,24.1-13.7c8.6-0.3,17.3,4.4,26.1,14c2.1,39.1,34.4,70.2,74,70.2c40.9,0,74.2-33.3,74.2-74.2  S392.6,225.6,351.7,225.6z M153.3,354.5c-30.1,0-54.6-24.5-54.6-54.6s24.5-54.6,54.6-54.6s54.6,24.5,54.6,54.6  S183.5,354.5,153.3,354.5z M351.7,354.5c-30.1,0-54.6-24.5-54.6-54.6s24.5-54.6,54.6-54.6s54.6,24.5,54.6,54.6  S381.8,354.5,351.7,354.5z"/>
<g>
</g>
<g>
</g>
<g>
</g>
<g>
</g>
<g>
</g>
<g>
</g>
<g>
</g>
<g>
</g>
<g>
</g>
<g>
</g>
<g>
</g>
<g>
</g>
<g>
</g>
<g>
</g>
<g>
</g>
</svg>
