<?xml version="1.0" encoding="iso-8859-1"?>
<!-- Generator: Adobe Illustrator 19.0.0, SVG Export Plug-In . SVG Version: 6.00 Build 0)  -->
<svg xmlns="http://www.w3.org/2000/svg" xmlns:xlink="http://www.w3.org/1999/xlink" version="1.1" id="Layer_1" x="0px" y="0px" viewBox="0 0 505 505" style="enable-background:new 0 0 505 505;" xml:space="preserve">
<circle style="fill:#54C0EB;" cx="252.5" cy="252.5" r="252.5"/>
<polygon style="fill:#FFFFFF;" points="267.8,104.3 106.9,104.3 106.9,400.7 340.3,400.7 340.3,176.8 "/>
<g>
	<polygon style="fill:#EDF2F2;" points="267.8,176.8 340.3,176.8 267.8,104.3  "/>
	<rect x="141.4" y="195.2" style="fill:#EDF2F2;" width="164.5" height="6.7"/>
	<rect x="141.4" y="228.7" style="fill:#EDF2F2;" width="164.5" height="6.7"/>
	<rect x="141.4" y="262.3" style="fill:#EDF2F2;" width="164.5" height="6.7"/>
	<rect x="141.4" y="295.8" style="fill:#EDF2F2;" width="164.5" height="6.7"/>
	<rect x="141.4" y="329.4" style="fill:#EDF2F2;" width="164.5" height="6.7"/>
	<polygon style="fill:#EDF2F2;" points="256,346.9 256.1,346.9 228.5,319.3 228.4,319.3 219.4,346.2 229.1,355.9  "/>
</g>
<g>
	<polygon style="fill:#324A5E;" points="229.1,355.9 219.4,346.2 214.6,360.7  "/>
	<path style="fill:#324A5E;" d="M396.6,198.9l-20.1-20.2c-2.1-2.1-5.6-1.9-7.8,0.3l-13.9,13.9l27.6,27.6l13.9-13.9   C398.5,204.4,398.7,200.9,396.6,198.9z"/>
</g>
<g>
	<polygon style="fill:#FFD05B;" points="237.1,327.9 228.5,319.3 228.4,319.3 225.4,328.4 237.1,328  "/>
	<polygon style="fill:#FFD05B;" points="237.2,328 237.1,328 236.7,338.7 247.3,338.2 247.3,338.1  "/>
</g>
<polygon style="fill:#F9B54C;" points="247.3,338.2 246.9,349.9 246.9,349.9 256,346.9 256.1,346.9 247.4,338.2 "/>
<g>
	
		<rect x="206.656" y="254.283" transform="matrix(-0.7071 0.7071 -0.7071 -0.7071 689.3812 235.3141)" style="fill:#FFD05B;" width="178.598" height="12.3"/>
	
		<rect x="216.075" y="262.708" transform="matrix(-0.7071 0.7071 -0.7071 -0.7071 712.1603 244.8295)" style="fill:#FFD05B;" width="178.598" height="14.4"/>
</g>
<rect x="308.697" y="190.095" transform="matrix(-0.7071 -0.7071 0.7071 -0.7071 339.9156 699.5854)" style="fill:#F9B54C;" width="12.3" height="178.598"/>
<g>
</g>
<g>
</g>
<g>
</g>
<g>
</g>
<g>
</g>
<g>
</g>
<g>
</g>
<g>
</g>
<g>
</g>
<g>
</g>
<g>
</g>
<g>
</g>
<g>
</g>
<g>
</g>
<g>
</g>
</svg>
