<?xml version="1.0" encoding="iso-8859-1"?>
<!-- Generator: Adobe Illustrator 19.0.0, SVG Export Plug-In . SVG Version: 6.00 Build 0)  -->
<svg xmlns="http://www.w3.org/2000/svg" xmlns:xlink="http://www.w3.org/1999/xlink" version="1.1" id="Layer_1" x="0px" y="0px" viewBox="0 0 505 505" style="enable-background:new 0 0 505 505;" xml:space="preserve">
<circle style="fill:#FFD05B;" cx="252.5" cy="252.5" r="252.5"/>
<g>
	<rect x="107.5" y="186.2" style="fill:#324A5E;" width="290.1" height="76.1"/>
	<polygon style="fill:#324A5E;" points="262.9,391.8 262.9,324.2 240.9,324.2 240.9,391.8 140.3,391.8 140.3,408.7 363.5,408.7    363.5,391.8  "/>
</g>
<g>
	<path style="fill:#FFFFFF;" d="M419,111.7H87.2c-5.5,0-9.9,4.4-9.9,9.9v78c0,5.5,4.4,9.9,9.9,9.9H419c5.5,0,9.9-4.4,9.9-9.9v-78   C428.9,116.2,424.5,111.7,419,111.7z"/>
	<path style="fill:#FFFFFF;" d="M417.8,233.3H86c-5.5,0-9.9,4.4-9.9,9.9v78c0,5.5,4.4,9.9,9.9,9.9h331.8c5.5,0,9.9-4.4,9.9-9.9v-78   C427.7,237.8,423.2,233.3,417.8,233.3z"/>
</g>
<g>
	<circle style="fill:#FF7058;" cx="127.6" cy="160.6" r="18.8"/>
	<circle style="fill:#FF7058;" cx="127.6" cy="282.2" r="18.8"/>
</g>
<g>
	<path style="fill:#E6E9EE;" d="M384,135.1c3.1,0,5.6,2.5,5.6,5.6v39.8c0,3.1-2.5,5.6-5.6,5.6s-5.6-2.5-5.6-5.6v-39.9   C378.4,137.6,380.9,135.1,384,135.1z"/>
	<path style="fill:#E6E9EE;" d="M360.7,135.1c3.1,0,5.6,2.5,5.6,5.6v39.8c0,3.1-2.5,5.6-5.6,5.6s-5.6-2.5-5.6-5.6v-39.9   C355.1,137.6,357.6,135.1,360.7,135.1z"/>
	<path style="fill:#E6E9EE;" d="M337.4,135.1c3.1,0,5.6,2.5,5.6,5.6v39.8c0,3.1-2.5,5.6-5.6,5.6s-5.6-2.5-5.6-5.6v-39.9   C331.8,137.6,334.3,135.1,337.4,135.1z"/>
	<path style="fill:#E6E9EE;" d="M314.1,135.1c3.1,0,5.6,2.5,5.6,5.6v39.8c0,3.1-2.5,5.6-5.6,5.6s-5.6-2.5-5.6-5.6v-39.9   C308.5,137.6,311,135.1,314.1,135.1z"/>
	<path style="fill:#E6E9EE;" d="M290.8,135.1c3.1,0,5.6,2.5,5.6,5.6v39.8c0,3.1-2.5,5.6-5.6,5.6s-5.6-2.5-5.6-5.6v-39.9   C285.2,137.6,287.7,135.1,290.8,135.1z"/>
	<path style="fill:#E6E9EE;" d="M384,256.7c3.1,0,5.6,2.5,5.6,5.6v39.9c0,3.1-2.5,5.6-5.6,5.6s-5.6-2.5-5.6-5.6v-39.9   C378.4,259.2,380.9,256.7,384,256.7z"/>
	<path style="fill:#E6E9EE;" d="M360.7,256.7c3.1,0,5.6,2.5,5.6,5.6v39.9c0,3.1-2.5,5.6-5.6,5.6s-5.6-2.5-5.6-5.6v-39.9   C355.1,259.2,357.6,256.7,360.7,256.7z"/>
	<path style="fill:#E6E9EE;" d="M337.4,256.7c3.1,0,5.6,2.5,5.6,5.6v39.9c0,3.1-2.5,5.6-5.6,5.6s-5.6-2.5-5.6-5.6v-39.9   C331.8,259.2,334.3,256.7,337.4,256.7z"/>
	<path style="fill:#E6E9EE;" d="M314.1,256.7c3.1,0,5.6,2.5,5.6,5.6v39.9c0,3.1-2.5,5.6-5.6,5.6s-5.6-2.5-5.6-5.6v-39.9   C308.5,259.2,311,256.7,314.1,256.7z"/>
	<path style="fill:#E6E9EE;" d="M290.8,256.7c3.1,0,5.6,2.5,5.6,5.6v39.9c0,3.1-2.5,5.6-5.6,5.6s-5.6-2.5-5.6-5.6v-39.9   C285.2,259.2,287.7,256.7,290.8,256.7z"/>
</g>
<circle style="fill:#4CDBC4;" cx="251.9" cy="398.8" r="24.2"/>
<g>
</g>
<g>
</g>
<g>
</g>
<g>
</g>
<g>
</g>
<g>
</g>
<g>
</g>
<g>
</g>
<g>
</g>
<g>
</g>
<g>
</g>
<g>
</g>
<g>
</g>
<g>
</g>
<g>
</g>
</svg>
