<?xml version="1.0" encoding="iso-8859-1"?>
<!-- Generator: Adobe Illustrator 19.0.0, SVG Export Plug-In . SVG Version: 6.00 Build 0)  -->
<svg xmlns="http://www.w3.org/2000/svg" xmlns:xlink="http://www.w3.org/1999/xlink" version="1.1" id="Layer_1" x="0px" y="0px" viewBox="0 0 505 505" style="enable-background:new 0 0 505 505;" xml:space="preserve">
<circle style="fill:#FD8469;" cx="252.5" cy="252.5" r="252.5"/>
<polygon style="fill:#E6E9EE;" points="267.2,397.9 267.2,338.7 237.8,338.7 237.8,397.9 182.5,397.9 182.5,417.8 322.5,417.8   322.5,397.9 "/>
<rect x="106.5" y="118.6" style="fill:#FFFFFF;" width="292.1" height="220.1"/>
<g>
	<path style="fill:#324A5E;" d="M400.4,118.6H104.6c-6,0-10.9,4.9-10.9,10.9l0,0c0,6,4.9,10.9,10.9,10.9h295.8   c6,0,10.9-4.9,10.9-10.9l0,0C411.3,123.5,406.4,118.6,400.4,118.6z"/>
	<path style="fill:#324A5E;" d="M400.4,323.7H104.6c-6,0-10.9,4.9-10.9,10.9s4.9,10.9,10.9,10.9h295.8c6,0,10.9-4.9,10.9-10.9   C411.3,328.5,406.4,323.7,400.4,323.7z"/>
</g>
<polygon style="fill:#FFD05B;" points="276.2,267.6 228.2,206.8 170.2,264.9 165.3,259.9 228.8,196.4 276.8,257.2 334.8,199.1   339.7,204.1 "/>
<circle style="fill:#324A5E;" cx="228.5" cy="201.6" r="15.1"/>
<circle style="fill:#4CDBC4;" cx="276.5" cy="262.4" r="15.1"/>
<g>
	<circle style="fill:#FF7058;" cx="337.3" cy="201.6" r="15.1"/>
	<circle style="fill:#FF7058;" cx="167.7" cy="262.4" r="15.1"/>
</g>
<g>
</g>
<g>
</g>
<g>
</g>
<g>
</g>
<g>
</g>
<g>
</g>
<g>
</g>
<g>
</g>
<g>
</g>
<g>
</g>
<g>
</g>
<g>
</g>
<g>
</g>
<g>
</g>
<g>
</g>
</svg>
