<?xml version="1.0" encoding="iso-8859-1"?>
<!-- Generator: Adobe Illustrator 19.0.0, SVG Export Plug-In . SVG Version: 6.00 Build 0)  -->
<svg xmlns="http://www.w3.org/2000/svg" xmlns:xlink="http://www.w3.org/1999/xlink" version="1.1" id="Layer_1" x="0px" y="0px" viewBox="0 0 505 505" style="enable-background:new 0 0 505 505;" xml:space="preserve">
<circle style="fill:#54C0EB;" cx="252.5" cy="252.5" r="252.5"/>
<path style="fill:#84DBFF;" d="M76.2,433.2c45.5,44.4,107.7,71.8,176.3,71.8s130.8-27.4,176.3-71.8H76.2z"/>
<path style="fill:#FFFFFF;" d="M87.1,109.5v250c0,4.5,3.6,8.2,8.2,8.2h314.5c4.5,0,8.2-3.6,8.2-8.2v-250c0-4.5-3.6-8.2-8.2-8.2H95.3  C90.8,101.4,87.1,105,87.1,109.5z"/>
<rect x="107.3" y="121.3" style="fill:#4CDBC4;" width="290.5" height="193.5"/>
<path style="fill:#FFFFFF;" d="M306,213.9c0-3.5-3-6.4-6.7-6.4h-21.4c-1-0.3-2-0.9-2.5-1.8c-1.2-1.8-0.8-4.3,0.1-6.3  c1.3-3,3.6-5.6,5-8.5c2.1-4.3,2.2-9.4,0.3-13.8c-0.9-2.2-2.4-4.2-4.5-5.4c-0.8-0.5-1.8-0.8-2.8-0.6c-1.6,0.4-2.3,2.1-2.7,3.6  c-0.9,3.2-1.5,6.6-3.1,9.6c-0.8,1.5-1.9,2.8-3,4.1c-2.5,3-5.2,5.9-8.4,8.3c-3.7,2.7-7.4,6.3-11.7,8c-3.5,1.4-7.9,1.3-11.4,2.8v51.3  h2.8h38.2h16.7c3.7,0,6.7-2.9,6.7-6.4s-3-6.4-6.7-6.4h4.6c3.7,0,6.7-2.9,6.7-6.4s-3-6.4-6.7-6.4h3c3.7,0,6.7-2.9,6.7-6.4  s-3-6.4-6.7-6.4h0.8C303,220.3,306,217.5,306,213.9z"/>
<path style="fill:#324A5E;" d="M231.6,200.8h-31.5c-0.6,0-1,0.5-1,1V264c0,0.6,0.5,1,1,1h31.5c2.5,0,4.6-2.2,4.6-4.9v-54.5  C236.1,203,234.1,200.8,231.6,200.8z"/>
<circle style="fill:#FFFFFF;" cx="217.6" cy="256.3" r="3.5"/>
<path style="fill:#EDF2F2;" d="M301.2,367.7h-9.8h-77.7h-9.8c15.8,31.7,0,45.4,0,45.4h9.8h77.7h9.8  C301.2,413.1,285.4,399.4,301.2,367.7z"/>
<path style="opacity:0.31;fill:#395767;enable-background:new    ;" d="M296.5,379.3c1.1-3.6,2.6-7.4,4.7-11.6h-97.3  c2.1,4.2,3.6,8,4.7,11.6H296.5z"/>
<path style="fill:#FFFFFF;" d="M327.6,413.1H177.4c-0.9,0-1.7,0.8-1.7,1.7v16.7c0,0.9,0.8,1.7,1.7,1.7h150.1c0.9,0,1.7-0.8,1.7-1.7  v-16.7C329.3,413.9,328.5,413.1,327.6,413.1z"/>
<circle style="fill:#334D5D;" cx="252.5" cy="341.3" r="9.9"/>
<g>
</g>
<g>
</g>
<g>
</g>
<g>
</g>
<g>
</g>
<g>
</g>
<g>
</g>
<g>
</g>
<g>
</g>
<g>
</g>
<g>
</g>
<g>
</g>
<g>
</g>
<g>
</g>
<g>
</g>
</svg>
