<?xml version="1.0" encoding="iso-8859-1"?>
<!-- Generator: Adobe Illustrator 19.0.0, SVG Export Plug-In . SVG Version: 6.00 Build 0)  -->
<svg xmlns="http://www.w3.org/2000/svg" xmlns:xlink="http://www.w3.org/1999/xlink" version="1.1" id="Layer_1" x="0px" y="0px" viewBox="0 0 505 505" style="enable-background:new 0 0 505 505;" xml:space="preserve">
<circle style="fill:#90DFAA;" cx="252.5" cy="252.5" r="252.5"/>
<path style="fill:#FFFFFF;" d="M360.6,97.3H144.4c-6.2,0-11.2,5-11.2,11.2v288c0,6.2,5,11.2,11.2,11.2h188.4c0.4,0,0.8-0.4,0.8-0.8  V260.3h38.2V108.5C371.8,102.3,366.8,97.3,360.6,97.3z"/>
<path style="fill:#324A5E;" d="M168.8,97.3h-24.4c-6.2,0-11.2,5-11.2,11.2v288c0,6.2,5,11.2,11.2,11.2h24.4V97.3z"/>
<rect x="333.6" y="260.3" style="fill:#FF7058;" width="38.2" height="37"/>
<rect x="333.6" y="297.3" style="fill:#F1543F;" width="38.2" height="37"/>
<rect x="333.6" y="334.3" style="fill:#324A5E;" width="38.2" height="37"/>
<path style="fill:#2B3B4E;" d="M369,407.6h-35.4v-36.3h38.2v33.5C371.8,406.3,370.5,407.6,369,407.6z"/>
<g>
	<rect x="197.2" y="135.2" style="fill:#E6E9EE;" width="144.1" height="13.1"/>
	<rect x="197.2" y="163.7" style="fill:#E6E9EE;" width="144.1" height="13.1"/>
	<rect x="197.2" y="192.2" style="fill:#E6E9EE;" width="86.4" height="13.1"/>
</g>
<g>
</g>
<g>
</g>
<g>
</g>
<g>
</g>
<g>
</g>
<g>
</g>
<g>
</g>
<g>
</g>
<g>
</g>
<g>
</g>
<g>
</g>
<g>
</g>
<g>
</g>
<g>
</g>
<g>
</g>
</svg>
