<?xml version="1.0" encoding="iso-8859-1"?>
<!-- Generator: Adobe Illustrator 19.0.0, SVG Export Plug-In . SVG Version: 6.00 Build 0)  -->
<svg xmlns="http://www.w3.org/2000/svg" xmlns:xlink="http://www.w3.org/1999/xlink" version="1.1" id="Layer_1" x="0px" y="0px" viewBox="0 0 505 505" style="enable-background:new 0 0 505 505;" xml:space="preserve">
<circle style="fill:#324A5E;" cx="252.5" cy="252.5" r="252.5"/>
<path style="fill:#2B3B4E;" d="M46.3,398.1C92,462.7,167.3,505,252.5,505S413,462.8,458.7,398.1H46.3z"/>
<g>
	<rect x="130.1" y="176" style="fill:#CED5E0;" width="42.9" height="202.5"/>
	<rect x="231.1" y="176" style="fill:#CED5E0;" width="42.9" height="202.5"/>
	<rect x="332.1" y="176" style="fill:#CED5E0;" width="42.9" height="202.5"/>
</g>
<path style="fill:#FFFFFF;" d="M251,69.4L94.6,171c-2.3,1.5-1.2,5,1.5,5h312.8c2.7,0,3.7-3.5,1.5-5L254,69.4  C253.1,68.8,251.9,68.8,251,69.4z"/>
<polygon style="fill:#E6E9EE;" points="150.6,157.2 252.5,90.9 354.4,157.2 "/>
<rect x="99.8" y="378.5" style="fill:#ACB3BA;" width="305.3" height="20.1"/>
<g>
	<path style="fill:#E6E9EE;" d="M325.1,176v8.8c0,2.3,1.9,4.2,4.2,4.2h48.3c2.3,0,4.2-1.9,4.2-4.2V176H325.1z"/>
	<path style="fill:#E6E9EE;" d="M224.2,176v8.8c0,2.3,1.9,4.2,4.2,4.2h48.3c2.3,0,4.2-1.9,4.2-4.2V176H224.2z"/>
	<path style="fill:#E6E9EE;" d="M123.2,176v8.8c0,2.3,1.9,4.2,4.2,4.2h48.3c2.3,0,4.2-1.9,4.2-4.2V176H123.2z"/>
	<path style="fill:#E6E9EE;" d="M325.1,378.5v-8.8c0-2.3,1.9-4.2,4.2-4.2h48.3c2.3,0,4.2,1.9,4.2,4.2v8.8H325.1z"/>
	<path style="fill:#E6E9EE;" d="M224.2,378.5v-8.8c0-2.3,1.9-4.2,4.2-4.2h48.3c2.3,0,4.2,1.9,4.2,4.2v8.8H224.2z"/>
	<path style="fill:#E6E9EE;" d="M123.2,378.5v-8.8c0-2.3,1.9-4.2,4.2-4.2h48.3c2.3,0,4.2,1.9,4.2,4.2v8.8H123.2z"/>
</g>
<g>
</g>
<g>
</g>
<g>
</g>
<g>
</g>
<g>
</g>
<g>
</g>
<g>
</g>
<g>
</g>
<g>
</g>
<g>
</g>
<g>
</g>
<g>
</g>
<g>
</g>
<g>
</g>
<g>
</g>
</svg>
