<?xml version="1.0" encoding="iso-8859-1"?>
<!-- Generator: Adobe Illustrator 19.0.0, SVG Export Plug-In . SVG Version: 6.00 Build 0)  -->
<svg xmlns="http://www.w3.org/2000/svg" xmlns:xlink="http://www.w3.org/1999/xlink" version="1.1" id="Layer_1" x="0px" y="0px" viewBox="0 0 505.4 505.4" style="enable-background:new 0 0 505.4 505.4;" xml:space="preserve">
<circle style="fill:#54C0EB;" cx="252.7" cy="252.7" r="252.7"/>
<g>
	<rect x="96.2" y="218.7" style="fill:#FFFFFF;" width="57" height="177.5"/>
	<rect x="182.4" y="168.1" style="fill:#FFFFFF;" width="57" height="228.1"/>
	<rect x="268.6" y="109.2" style="fill:#FFFFFF;" width="57" height="286.9"/>
</g>
<rect x="320.797" y="294.078" transform="matrix(-0.7071 0.7071 -0.7071 -0.7071 789.2635 306.5318)" style="fill:#2B3B4E;" width="20.7" height="45.3"/>
<path style="fill:#324A5E;" d="M226.7,214.9c-25.7,25.7-25.7,67.2,0,92.9s67.2,25.7,92.9,0c25.7-25.7,25.7-67.2,0-92.9  C294,189.2,252.4,189.2,226.7,214.9z M306.5,294.7c-18.4,18.4-48.2,18.4-66.7,0c-18.4-18.4-18.4-48.2,0-66.7  c18.4-18.4,48.2-18.4,66.7,0S324.9,276.3,306.5,294.7z"/>
<path style="fill:#FF7058;" d="M344.6,309.8l-20.5,20.5c-2.1,2.1-2.1,5.6,0,7.7l55.2,55.2c2.1,2.1,5.6,2.1,7.7,0l20.5-20.5  c2.1-2.1,2.1-5.6,0-7.7l-55.2-55.2C350.3,307.7,346.8,307.7,344.6,309.8z"/>
<g>
</g>
<g>
</g>
<g>
</g>
<g>
</g>
<g>
</g>
<g>
</g>
<g>
</g>
<g>
</g>
<g>
</g>
<g>
</g>
<g>
</g>
<g>
</g>
<g>
</g>
<g>
</g>
<g>
</g>
</svg>
