<?xml version="1.0" encoding="iso-8859-1"?>
<!-- Generator: Adobe Illustrator 19.0.0, SVG Export Plug-In . SVG Version: 6.00 Build 0)  -->
<svg xmlns="http://www.w3.org/2000/svg" xmlns:xlink="http://www.w3.org/1999/xlink" version="1.1" id="Layer_1" x="0px" y="0px" viewBox="0 0 505 505" style="enable-background:new 0 0 505 505;" xml:space="preserve">
<circle style="fill:#4CDBC4;" cx="252.5" cy="252.5" r="252.5"/>
<path style="fill:#2B3B4E;" d="M392.6,161H112.4c-3.9,0-7.1,3.2-7.1,7.1V375c0,3.9,3.2,7.1,7.1,7.1h280.2c3.9,0,7.1-3.2,7.1-7.1  V168.1C399.7,164.2,396.6,161,392.6,161z"/>
<path style="fill:#FFFFFF;" d="M304.8,180.6c-5.2,0-9.3-4.2-9.3-9.3v-39.6h-86v39.6c0,5.2-4.2,9.3-9.3,9.3s-9.3-4.2-9.3-9.3v-48.9  c0-5.2,4.2-9.3,9.3-9.3h104.7c5.2,0,9.3,4.2,9.3,9.3v48.9C314.2,176.4,310,180.6,304.8,180.6z"/>
<path style="fill:#324A5E;" d="M399.7,254.3v-86.2c0-3.9-3.2-7.1-7.1-7.1H112.4c-3.9,0-7.1,3.2-7.1,7.1v86.2H399.7z"/>
<path style="fill:#FFD05B;" d="M239.2,161v143.3c0,7.4,6,13.3,13.3,13.3c7.4,0,13.3-6,13.3-13.3V161H239.2z"/>
<g>
	<polygon style="fill:#FFFFFF;" points="273.1,259.9 231.9,259.9 231.9,289.7 239.3,289.7 239.3,266.5 265.7,266.5 265.7,289.7    273.1,289.7  "/>
	<circle style="fill:#FFFFFF;" cx="252.5" cy="280.9" r="3.7"/>
	<path style="fill:#FFFFFF;" d="M254.4,281.8h-3.8c-0.1,0-0.2-0.1-0.2-0.2v-19.5c0-0.1,0.1-0.2,0.2-0.2h3.8c0.1,0,0.2,0.1,0.2,0.2   v19.5C254.6,281.7,254.5,281.8,254.4,281.8z"/>
</g>
<g>
</g>
<g>
</g>
<g>
</g>
<g>
</g>
<g>
</g>
<g>
</g>
<g>
</g>
<g>
</g>
<g>
</g>
<g>
</g>
<g>
</g>
<g>
</g>
<g>
</g>
<g>
</g>
<g>
</g>
</svg>
