<?xml version="1.0" encoding="iso-8859-1"?>
<!-- Generator: Adobe Illustrator 19.0.0, SVG Export Plug-In . SVG Version: 6.00 Build 0)  -->
<svg xmlns="http://www.w3.org/2000/svg" xmlns:xlink="http://www.w3.org/1999/xlink" version="1.1" id="Layer_1" x="0px" y="0px" viewBox="0 0 500 500" style="enable-background:new 0 0 500 500;" xml:space="preserve">
<circle style="fill:#84DBFF;" cx="250" cy="250" r="250"/>
<g>
	<polygon style="fill:#FFFFFF;" points="169.9,402.3 93.7,402.3 93.7,326.2 105.5,326.2 105.5,390.6 169.9,390.6  "/>
	<polygon style="fill:#FFFFFF;" points="311.7,89.8 387.9,89.8 387.9,166 376.2,166 376.2,101.6 311.7,101.6  "/>
</g>
<rect x="112.1" y="89.8" style="fill:#324A5E;" width="181.2" height="149.6"/>
<rect x="125" y="101.5" style="fill:#E6E9EE;" width="155.4" height="126.2"/>
<polygon style="fill:#2B3B4E;" points="302.7,280.8 102.7,280.8 93.7,257.2 311.6,257.2 "/>
<path style="fill:#E6E9EE;" d="M223.4,265.1h-41.5c-1.3,0-2.4,1.1-2.4,2.4s1.1,2.4,2.4,2.4h41.5c1.3,0,2.4-1.1,2.4-2.4  S224.8,265.1,223.4,265.1z"/>
<rect x="206.7" y="211.4" style="fill:#FFFFFF;" width="181.2" height="149.6"/>
<rect x="219.6" y="223.1" style="fill:#324A5E;" width="155.4" height="126.2"/>
<polygon style="fill:#E6E9EE;" points="397.3,402.3 197.3,402.3 188.4,378.8 406.3,378.8 "/>
<path style="fill:#324A5E;" d="M318.1,386.6h-41.5c-1.3,0-2.4,1.1-2.4,2.4s1.1,2.4,2.4,2.4h41.5c1.3,0,2.4-1.1,2.4-2.4  S319.4,386.6,318.1,386.6z"/>
<g>
</g>
<g>
</g>
<g>
</g>
<g>
</g>
<g>
</g>
<g>
</g>
<g>
</g>
<g>
</g>
<g>
</g>
<g>
</g>
<g>
</g>
<g>
</g>
<g>
</g>
<g>
</g>
<g>
</g>
</svg>
