<?xml version="1.0" encoding="iso-8859-1"?>
<!-- Generator: Adobe Illustrator 19.0.0, SVG Export Plug-In . SVG Version: 6.00 Build 0)  -->
<svg xmlns="http://www.w3.org/2000/svg" xmlns:xlink="http://www.w3.org/1999/xlink" version="1.1" id="Layer_1" x="0px" y="0px" viewBox="0 0 500 500" style="enable-background:new 0 0 500 500;" xml:space="preserve">
<circle style="fill:#324A5E;" cx="250" cy="250" r="250"/>
<path style="fill:#4CDBC4;" d="M145.5,390.7L94,339.2c-1-1-1-2.5,0-3.5L333.1,96.6c1-1,2.5-1,3.5,0l51.5,51.5L145.5,390.7z"/>
<g>
	
		<rect x="333.428" y="133.833" transform="matrix(-0.7071 -0.7071 0.7071 -0.7071 427.1728 609.3049)" style="fill:#FFD05B;" width="12.7" height="164.698"/>
	
		<rect x="174.217" y="339.702" transform="matrix(-0.7071 -0.7071 0.7071 -0.7071 42.833 768.4462)" style="fill:#FFD05B;" width="12.7" height="71.299"/>
	
		<rect x="237.506" y="264.673" transform="matrix(-0.7071 -0.7071 0.7071 -0.7071 195.6549 705.0871)" style="fill:#FFD05B;" width="12.7" height="94.699"/>
</g>
<g>
	
		<rect x="309.071" y="135.815" transform="matrix(-0.7071 -0.7071 0.7071 -0.7071 459.202 492.8367)" style="fill:#2C9984;" width="45.2" height="31"/>
	
		<rect x="263.321" y="181.494" transform="matrix(-0.7071 -0.7071 0.7071 -0.7071 348.8023 538.4662)" style="fill:#2C9984;" width="45.2" height="31"/>
	
		<rect x="217.572" y="227.315" transform="matrix(-0.7071 -0.7071 0.7071 -0.7071 238.3027 584.3372)" style="fill:#2C9984;" width="45.2" height="31"/>
	
		<rect x="171.822" y="272.984" transform="matrix(-0.7071 -0.7071 0.7071 -0.7071 127.9101 629.9496)" style="fill:#2C9984;" width="45.2" height="31"/>
	
		<rect x="126.072" y="318.805" transform="matrix(-0.7071 -0.7071 0.7071 -0.7071 17.4105 675.8206)" style="fill:#2C9984;" width="45.2" height="31"/>
</g>
<g>
</g>
<g>
</g>
<g>
</g>
<g>
</g>
<g>
</g>
<g>
</g>
<g>
</g>
<g>
</g>
<g>
</g>
<g>
</g>
<g>
</g>
<g>
</g>
<g>
</g>
<g>
</g>
<g>
</g>
</svg>
