<?xml version="1.0" encoding="iso-8859-1"?>
<!-- Generator: Adobe Illustrator 19.0.0, SVG Export Plug-In . SVG Version: 6.00 Build 0)  -->
<svg xmlns="http://www.w3.org/2000/svg" xmlns:xlink="http://www.w3.org/1999/xlink" version="1.1" id="Layer_1" x="0px" y="0px" viewBox="0 0 500 500" style="enable-background:new 0 0 500 500;" xml:space="preserve">
<circle style="fill:#90DFAA;" cx="250" cy="250" r="250"/>
<path style="fill:#FF7058;" d="M387.1,116.3H112.9c-7.3,0-13.2,5.9-13.2,13.2v204.9c0,7.3,5.9,13.2,13.2,13.2h13.7v75.1l75.1-75.1  h185.4c7.3,0,13.2-5.9,13.2-13.2V129.5C400.3,122.2,394.4,116.3,387.1,116.3z"/>
<g>
	<polygon style="fill:#FFD05B;" points="349.8,285.7 349.8,178.2 286,235.8  "/>
	<polygon style="fill:#FFD05B;" points="150.2,178.2 150.2,285.7 214,235.8  "/>
	<polygon style="fill:#FFD05B;" points="250,268.3 221.7,242.7 150.2,299.5 150.2,299.7 349.8,299.7 349.8,299.5 278.3,242.7  "/>
</g>
<polygon style="fill:#F9B54C;" points="286,235.8 349.8,178.2 349.8,164.4 278.3,228.9 270.7,235.8 250,254.5 229.3,235.8   221.7,228.9 150.2,164.4 150.2,178.2 214,235.8 150.2,285.7 150.2,299.5 221.7,242.7 250,268.3 278.3,242.7 349.8,299.5   349.8,285.7 "/>
<polygon style="fill:#FFD05B;" points="150.2,164.2 150.2,164.4 176.3,188 221.7,228.9 229.3,235.8 250,254.5 270.7,235.8   278.3,228.9 323.7,188 349.8,164.4 349.8,164.2 "/>
<g>
</g>
<g>
</g>
<g>
</g>
<g>
</g>
<g>
</g>
<g>
</g>
<g>
</g>
<g>
</g>
<g>
</g>
<g>
</g>
<g>
</g>
<g>
</g>
<g>
</g>
<g>
</g>
<g>
</g>
</svg>
