<?xml version="1.0" encoding="iso-8859-1"?>
<!-- Generator: Adobe Illustrator 19.0.0, SVG Export Plug-In . SVG Version: 6.00 Build 0)  -->
<svg xmlns="http://www.w3.org/2000/svg" xmlns:xlink="http://www.w3.org/1999/xlink" version="1.1" id="Layer_1" x="0px" y="0px" viewBox="0 0 500 500" style="enable-background:new 0 0 500 500;" xml:space="preserve">
<circle style="fill:#FFD05B;" cx="250" cy="250" r="250"/>
<path style="fill:#324A5E;" d="M344.6,406.3H155.4c-2.2,0-4-1.8-4-4V129.5c0-2.2,1.8-4,4-4h189.2c2.2,0,4,1.8,4,4v272.7  C348.6,404.5,346.8,406.3,344.6,406.3z"/>
<rect x="178.7" y="152.9" style="fill:#FFFFFF;" width="142.5" height="226"/>
<path style="fill:#2B3B4E;" d="M279.4,125.5h-58.8V95.9c0-1.2,1-2.2,2.2-2.2h54.4c1.2,0,2.2,1,2.2,2.2V125.5z"/>
<polygon style="fill:#FF7058;" points="297.3,277.9 261.7,268.9 285.6,174.2 202.7,253.9 238.3,262.9 214.4,357.6 "/>
<g>
</g>
<g>
</g>
<g>
</g>
<g>
</g>
<g>
</g>
<g>
</g>
<g>
</g>
<g>
</g>
<g>
</g>
<g>
</g>
<g>
</g>
<g>
</g>
<g>
</g>
<g>
</g>
<g>
</g>
</svg>
