<?xml version="1.0" encoding="iso-8859-1"?>
<!-- Generator: Adobe Illustrator 19.0.0, SVG Export Plug-In . SVG Version: 6.00 Build 0)  -->
<svg xmlns="http://www.w3.org/2000/svg" xmlns:xlink="http://www.w3.org/1999/xlink" version="1.1" id="Layer_1" x="0px" y="0px" viewBox="0 0 500 500" style="enable-background:new 0 0 500 500;" xml:space="preserve">
<circle style="fill:#FFD05B;" cx="250" cy="250" r="250"/>
<g>
	<rect x="239.6" y="316.6" style="fill:#2B3B4E;" width="20.8" height="28"/>
	<rect x="93.8" y="357.2" style="fill:#2B3B4E;" width="312.5" height="20.8"/>
</g>
<rect x="226.7" y="343.7" style="fill:#324A5E;" width="46.7" height="47.7"/>
<path style="fill:#E6E9EE;" d="M329.7,162.4c0.2-2,0.3-4,0.3-6c0-42.8-35.8-77.5-80-77.5s-80,34.7-80,77.5c0,2,0.2,4,0.3,6  c-39.1,5.1-69.2,37.5-69.2,76.7c0,42.8,35.8,77.5,80,77.5h137.7c44.2,0,80-34.7,80-77.5C398.9,199.9,368.8,167.6,329.7,162.4z"/>
<g>
	<path style="fill:#ACB3BA;" d="M161.6,197.4l22-2.9l-0.8-10.1l-9.5,1.3c-16,2.1-29.7,10.6-38.5,22.5   C142.4,202.6,151.6,198.7,161.6,197.4z"/>
	<path style="fill:#ACB3BA;" d="M326.7,185.7l-22.1-2.9l1.8-22.2c0.1-1.4,0.2-2.7,0.2-4.1c0-29.8-25.4-54-56.6-54   c-19.2,0-36.1,9.2-46.3,23.1c9.6-7.1,21.6-11.4,34.6-11.4c31.2,0,56.6,24.2,56.6,54c0,1.4-0.1,2.8-0.2,4.1l-1.8,22.2l22.1,2.9   c27.8,3.7,48.8,26.6,48.8,53.4c0,11.5-3.8,22.2-10.3,30.9c13.4-9.9,22-25.3,22-42.7C375.5,212.3,354.5,189.3,326.7,185.7z"/>
</g>
<g>
</g>
<g>
</g>
<g>
</g>
<g>
</g>
<g>
</g>
<g>
</g>
<g>
</g>
<g>
</g>
<g>
</g>
<g>
</g>
<g>
</g>
<g>
</g>
<g>
</g>
<g>
</g>
<g>
</g>
</svg>
