<?xml version="1.0" encoding="iso-8859-1"?>
<!-- Generator: Adobe Illustrator 19.0.0, SVG Export Plug-In . SVG Version: 6.00 Build 0)  -->
<svg xmlns="http://www.w3.org/2000/svg" xmlns:xlink="http://www.w3.org/1999/xlink" version="1.1" id="Layer_1" x="0px" y="0px" viewBox="0 0 500 500" style="enable-background:new 0 0 500 500;" xml:space="preserve">
<circle style="fill:#324A5E;" cx="250" cy="250" r="250"/>
<g>
	<rect x="153.6" y="343.5" style="fill:#FFD05B;" width="24.8" height="66.6"/>
	<rect x="321.6" y="343.5" style="fill:#FFD05B;" width="24.8" height="66.6"/>
</g>
<path style="fill:#4CDBC4;" d="M236,343.5H96c-1.2,0-2.2-1-2.2-2.2V99.9c0-1.2,1-2.2,2.2-2.2h140c1.2,0,2.2,1,2.2,2.2v241.4  C238.2,342.5,237.2,343.5,236,343.5z"/>
<rect x="129.1" y="388.2" style="fill:#F9B54C;" width="73.8" height="22"/>
<path style="fill:#4CDBC4;" d="M404,343.5H264c-1.2,0-2.2-1-2.2-2.2V99.9c0-1.2,1-2.2,2.2-2.2h140c1.2,0,2.2,1,2.2,2.2v241.4  C406.3,342.5,405.3,343.5,404,343.5z"/>
<circle style="fill:#F1543F;" cx="166" cy="175" r="55.7"/>
<g>
	<circle style="fill:#FFFFFF;" cx="166" cy="175" r="29.2"/>
	<circle style="fill:#FFFFFF;" cx="166" cy="288.1" r="33.8"/>
</g>
<circle style="fill:#2B3B4E;" cx="166" cy="288.1" r="17.7"/>
<circle style="fill:#F1543F;" cx="334" cy="175" r="55.7"/>
<g>
	<circle style="fill:#FFFFFF;" cx="334" cy="175" r="29.2"/>
	<circle style="fill:#FFFFFF;" cx="334" cy="288.1" r="33.8"/>
</g>
<circle style="fill:#2B3B4E;" cx="334" cy="288.1" r="17.7"/>
<rect x="297.1" y="388.2" style="fill:#F9B54C;" width="73.8" height="22"/>
<g>
	<circle style="fill:#FFFFFF;" cx="108.2" cy="112.1" r="6.6"/>
	<circle style="fill:#FFFFFF;" cx="223.8" cy="112.1" r="6.6"/>
	<circle style="fill:#FFFFFF;" cx="108.2" cy="329.1" r="6.6"/>
	<circle style="fill:#FFFFFF;" cx="223.8" cy="329.1" r="6.6"/>
	<circle style="fill:#FFFFFF;" cx="276.2" cy="112.1" r="6.6"/>
	<circle style="fill:#FFFFFF;" cx="391.8" cy="112.1" r="6.6"/>
	<circle style="fill:#FFFFFF;" cx="276.2" cy="329.1" r="6.6"/>
	<circle style="fill:#FFFFFF;" cx="391.8" cy="329.1" r="6.6"/>
</g>
<g>
</g>
<g>
</g>
<g>
</g>
<g>
</g>
<g>
</g>
<g>
</g>
<g>
</g>
<g>
</g>
<g>
</g>
<g>
</g>
<g>
</g>
<g>
</g>
<g>
</g>
<g>
</g>
<g>
</g>
</svg>
