<?xml version="1.0" encoding="iso-8859-1"?>
<!-- Generator: Adobe Illustrator 19.0.0, SVG Export Plug-In . SVG Version: 6.00 Build 0)  -->
<svg xmlns="http://www.w3.org/2000/svg" xmlns:xlink="http://www.w3.org/1999/xlink" version="1.1" id="Layer_1" x="0px" y="0px" viewBox="0 0 500 500" style="enable-background:new 0 0 500 500;" xml:space="preserve">
<circle style="fill:#90DFAA;" cx="250" cy="250" r="250"/>
<path style="fill:#FFFFFF;" d="M333.7,180.5c0.2-2.1,0.3-4.1,0.3-6.2c0-44.4-37.6-80.5-84-80.5s-84,36-84,80.5  c0,2.1,0.2,4.2,0.3,6.2c-41,5.3-72.6,38.9-72.6,79.7c0,44.4,37.6,80.5,84,80.5h144.5c46.4,0,84-36,84-80.5  C406.2,219.4,374.6,185.8,333.7,180.5z"/>
<path style="fill:#324A5E;" d="M192.3,261.1v119.7c0,14.1,11.4,25.5,25.5,25.5h64.5c14.1,0,25.5-11.4,25.5-25.5V261.1H192.3z"/>
<rect x="207.8" y="202.6" style="fill:#F9B54C;" width="84.3" height="58.5"/>
<g>
	<rect x="224.5" y="212.7" style="fill:#FFD05B;" width="13.2" height="38.3"/>
	<rect x="262.3" y="212.7" style="fill:#FFD05B;" width="13.2" height="38.3"/>
</g>
<g>
</g>
<g>
</g>
<g>
</g>
<g>
</g>
<g>
</g>
<g>
</g>
<g>
</g>
<g>
</g>
<g>
</g>
<g>
</g>
<g>
</g>
<g>
</g>
<g>
</g>
<g>
</g>
<g>
</g>
</svg>
