<?xml version="1.0" encoding="iso-8859-1"?>
<!-- Generator: Adobe Illustrator 19.0.0, SVG Export Plug-In . SVG Version: 6.00 Build 0)  -->
<svg xmlns="http://www.w3.org/2000/svg" xmlns:xlink="http://www.w3.org/1999/xlink" version="1.1" id="Layer_1" x="0px" y="0px" viewBox="0 0 500 500" style="enable-background:new 0 0 500 500;" xml:space="preserve">
<circle style="fill:#FD8469;" cx="250" cy="250" r="250"/>
<path style="fill:#E6E9EE;" d="M404.4,356.4H95.6c-1,0-1.9-0.8-1.9-1.9v-209c0-1,0.8-1.9,1.9-1.9h308.7c1,0,1.9,0.8,1.9,1.9v209.1  C406.3,355.6,405.4,356.4,404.4,356.4z"/>
<polygon style="fill:#ACB3BA;" points="350.1,189.8 149.9,189.8 131.3,143.6 368.7,143.6 "/>
<rect x="162" y="210.9" style="fill:#FF7058;" width="175.9" height="11.8"/>
<g>
	<path style="fill:#324A5E;" d="M161.4,284.8c0-11.3,9.2-20.5,20.5-20.5v-20.5c-22.6,0-41,18.4-41,41s18.4,41,41,41v-20.5   C170.6,305.3,161.4,296.1,161.4,284.8z"/>
	<path style="fill:#324A5E;" d="M318.1,243.8v20.5c11.3,0,20.5,9.2,20.5,20.5s-9.2,20.5-20.5,20.5v20.5c22.6,0,41-18.4,41-41   S340.7,243.8,318.1,243.8z"/>
</g>
<rect x="211.3" y="249.3" style="fill:#ACB3BA;" width="77.5" height="71.1"/>
<g>
	<rect x="161.5" y="158.9" style="fill:#FFFFFF;" width="28.8" height="16.9"/>
	<rect x="235.6" y="158.9" style="fill:#FFFFFF;" width="28.8" height="16.9"/>
	<rect x="309.7" y="158.9" style="fill:#FFFFFF;" width="28.8" height="16.9"/>
</g>
<g>
</g>
<g>
</g>
<g>
</g>
<g>
</g>
<g>
</g>
<g>
</g>
<g>
</g>
<g>
</g>
<g>
</g>
<g>
</g>
<g>
</g>
<g>
</g>
<g>
</g>
<g>
</g>
<g>
</g>
</svg>
