<?xml version="1.0" encoding="iso-8859-1"?>
<!-- Generator: Adobe Illustrator 19.0.0, SVG Export Plug-In . SVG Version: 6.00 Build 0)  -->
<svg xmlns="http://www.w3.org/2000/svg" xmlns:xlink="http://www.w3.org/1999/xlink" version="1.1" id="Layer_1" x="0px" y="0px" viewBox="0 0 500 500" style="enable-background:new 0 0 500 500;" xml:space="preserve">
<circle style="fill:#324A5E;" cx="250" cy="250" r="250"/>
<rect x="105.5" y="105.5" style="fill:#ACB3BA;" width="289.1" height="289.1"/>
<rect x="127.1" y="170.9" style="fill:#FFFFFF;" width="245.7" height="201.9"/>
<rect x="127.1" y="128" style="fill:#F1543F;" width="26.8" height="18.1"/>
<rect x="166.7" y="128" style="fill:#324A5E;" width="26.8" height="18.1"/>
<g>
	<rect x="206.2" y="128" style="fill:#FFFFFF;" width="26.8" height="18.1"/>
	<rect x="279.5" y="128" style="fill:#FFFFFF;" width="93.3" height="18.1"/>
</g>
<path style="fill:#2C9984;" d="M250,193.5c-43.3,0-78.4,35.1-78.4,78.4s35.1,78.4,78.4,78.4s78.4-35.1,78.4-78.4  S293.3,193.5,250,193.5z M263.9,318.3c-4.6,10.5-10.1,16.5-13.9,16.5c-3.8,0-9.3-5.9-13.9-16.5H263.9z M231,302.8  c-1.6-6.8-2.8-14.6-3.3-23.1h44.5c-0.5,8.6-1.6,16.3-3.3,23.1H231z M227.7,264.1c0.5-8.6,1.6-16.3,3.3-23.1h38  c1.6,6.8,2.8,14.6,3.3,23.1H227.7z M236.1,225.5C240.7,215,246.2,209,250,209s9.3,5.9,13.9,16.5H236.1z M280.6,225.5  c-1.4-3.9-2.9-7.5-4.7-10.8c6,2.7,11.5,6.4,16.3,10.8H280.6z M219.4,225.5h-11.7c4.8-4.4,10.3-8.1,16.3-10.8  C222.4,218,220.8,221.6,219.4,225.5z M195.3,241h19.8c-1.5,7.2-2.5,15-2.9,23.1h-24.5C188.7,255.8,191.3,248,195.3,241z   M212.2,279.7c0.4,8.1,1.4,15.9,2.9,23.1h-19.8c-4-7-6.6-14.8-7.6-23.1H212.2z M219.4,318.3c1.4,3.9,2.9,7.5,4.7,10.8  c-6-2.7-11.5-6.4-16.3-10.8H219.4z M280.6,318.3h11.7c-4.8,4.4-10.3,8.1-16.3,10.8C277.6,325.8,279.2,322.2,280.6,318.3z   M284.9,302.8c1.5-7.2,2.5-15,2.9-23.1h24.5c-1,8.3-3.7,16.1-7.6,23.1H284.9z M287.8,264.1c-0.4-8.1-1.4-15.9-2.9-23.1h19.8  c4,7,6.6,14.8,7.6,23.1H287.8z"/>
<g>
</g>
<g>
</g>
<g>
</g>
<g>
</g>
<g>
</g>
<g>
</g>
<g>
</g>
<g>
</g>
<g>
</g>
<g>
</g>
<g>
</g>
<g>
</g>
<g>
</g>
<g>
</g>
<g>
</g>
</svg>
