<?xml version="1.0" encoding="iso-8859-1"?>
<!-- Generator: Adobe Illustrator 19.0.0, SVG Export Plug-In . SVG Version: 6.00 Build 0)  -->
<svg xmlns="http://www.w3.org/2000/svg" xmlns:xlink="http://www.w3.org/1999/xlink" version="1.1" id="Layer_1" x="0px" y="0px" viewBox="0 0 500 500" style="enable-background:new 0 0 500 500;" xml:space="preserve">
<circle style="fill:#FFD05B;" cx="250" cy="250" r="250"/>
<path style="fill:#324A5E;" d="M149.3,387.9c-18.4,0-33.4-15-33.4-33.4V153.4h11v201.1c0,12.3,10,22.4,22.4,22.4  c12.3,0,22.4-10,22.4-22.4V162.6c0-38,30.9-68.9,68.9-68.9s68.9,30.9,68.9,68.9v21.1h-11v-21.1c0-31.9-25.9-57.8-57.8-57.8  s-57.8,25.9-57.8,57.8v191.9C182.7,372.9,167.8,387.9,149.3,387.9z"/>
<path style="fill:#2C9984;" d="M384.1,252.9c0-39.1-31.7-70.8-70.8-70.8h-18.7c-39.1,0-70.8,31.7-70.8,70.8v9.2h160.3L384.1,252.9  L384.1,252.9z"/>
<path style="fill:#4CDBC4;" d="M223.8,262.1v64c0,44.3,35.9,80.1,80.1,80.1l0,0c44.3,0,80.1-35.9,80.1-80.1v-64H223.8z"/>
<path style="fill:#FFFFFF;" d="M303.9,197.3c-5.6,0-10.1,4.5-10.1,10.1V234c0,5.6,4.5,10.1,10.1,10.1S314,239.6,314,234v-26.6  C314,201.8,309.5,197.3,303.9,197.3z"/>
<g>
</g>
<g>
</g>
<g>
</g>
<g>
</g>
<g>
</g>
<g>
</g>
<g>
</g>
<g>
</g>
<g>
</g>
<g>
</g>
<g>
</g>
<g>
</g>
<g>
</g>
<g>
</g>
<g>
</g>
</svg>
