<?xml version="1.0" encoding="iso-8859-1"?>
<!-- Generator: Adobe Illustrator 19.0.0, SVG Export Plug-In . SVG Version: 6.00 Build 0)  -->
<svg xmlns="http://www.w3.org/2000/svg" xmlns:xlink="http://www.w3.org/1999/xlink" version="1.1" id="Layer_1" x="0px" y="0px" viewBox="0 0 500 500" style="enable-background:new 0 0 500 500;" xml:space="preserve">
<circle style="fill:#84DBFF;" cx="250" cy="250" r="250"/>
<path style="fill:#2B3B4E;" d="M171.1,280.2h-10.6v-15.6c0-4.1-3.3-7.4-7.4-7.4h-30.3c-16,0-29.1-13-29.1-29.1s13-29.1,29.1-29.1  h75.3v10.6h-75.3c-10.2,0-18.5,8.3-18.5,18.5s8.3,18.5,18.5,18.5h30.3c9.9,0,18,8.1,18,18V280.2z"/>
<path style="fill:#324A5E;" d="M120.7,318.2h39.8v-38h10.6v38h39.8l0,0V309c0-15.9-12.3-28.8-27.4-28.8h-35.3  c-15.1,0-27.4,12.9-27.4,28.8L120.7,318.2L120.7,318.2z"/>
<path style="fill:#2C9984;" d="M210.9,328.8h-45.1h-45.1v48.7c0,15.9,12.3,28.8,27.4,28.8h35.3c15.1,0,27.4-12.9,27.4-28.8  L210.9,328.8L210.9,328.8L210.9,328.8z"/>
<path style="fill:#FF7058;" d="M296.1,93.8c-60.8,0-110.2,49.3-110.2,110.2s49.3,110.2,110.2,110.2c60.8,0,110.2-49.3,110.2-110.2  S356.9,93.8,296.1,93.8z M315.6,269.1c-6.5,14.8-14.2,23.1-19.5,23.1s-13-8.3-19.5-23.1H315.6z M269.4,247.3  c-2.3-9.6-4-20.5-4.6-32.5h62.6c-0.6,12-2.3,22.9-4.6,32.5H269.4z M264.8,193c0.6-12,2.3-22.9,4.6-32.5h53.3  c2.3,9.6,4,20.5,4.6,32.5H264.8z M276.6,138.7c6.5-14.8,14.2-23.1,19.5-23.1s13,8.3,19.5,23.1H276.6z M339.1,138.7  c-2-5.5-4.1-10.5-6.5-15.2c8.5,3.8,16.2,9,23,15.2H339.1z M253.1,138.7h-16.4c6.8-6.2,14.5-11.3,23-15.2  C257.3,128.1,255.1,133.2,253.1,138.7z M219.2,160.5H247c-2.1,10.1-3.5,21.1-4.1,32.5h-34.5C209.9,181.3,213.7,170.3,219.2,160.5z   M243,214.8c0.5,11.4,1.9,22.4,4.1,32.5h-27.8c-5.6-9.8-9.3-20.8-10.7-32.5H243z M253.1,269.1c2,5.5,4.1,10.5,6.5,15.2  c-8.5-3.8-16.2-9-23-15.2H253.1z M339.1,269.1h16.4c-6.8,6.2-14.5,11.3-23,15.2C334.9,279.7,337.1,274.6,339.1,269.1z M345.2,247.3  c2.1-10.1,3.5-21.1,4.1-32.5h34.5c-1.4,11.7-5.2,22.7-10.7,32.5H345.2z M349.2,193c-0.5-11.4-1.9-22.4-4.1-32.5H373  c5.6,9.8,9.3,20.8,10.7,32.5H349.2z"/>
<g>
</g>
<g>
</g>
<g>
</g>
<g>
</g>
<g>
</g>
<g>
</g>
<g>
</g>
<g>
</g>
<g>
</g>
<g>
</g>
<g>
</g>
<g>
</g>
<g>
</g>
<g>
</g>
<g>
</g>
</svg>
