<?xml version="1.0" encoding="iso-8859-1"?>
<!-- Generator: Adobe Illustrator 19.0.0, SVG Export Plug-In . SVG Version: 6.00 Build 0)  -->
<svg xmlns="http://www.w3.org/2000/svg" xmlns:xlink="http://www.w3.org/1999/xlink" version="1.1" id="Layer_1" x="0px" y="0px" viewBox="0 0 500 500" style="enable-background:new 0 0 500 500;" xml:space="preserve">
<circle style="fill:#324A5E;" cx="250" cy="250" r="250"/>
<rect x="93.8" y="113.3" style="fill:#FFD05B;" width="312.5" height="114.8"/>
<rect x="93.8" y="271.9" style="fill:#4CDBC4;" width="312.5" height="114.8"/>
<rect x="136.5" y="228.1" style="fill:#FF7058;" width="226.9" height="43.8"/>
<rect x="355.4" y="297.2" style="fill:#2C9984;" width="28.5" height="64.2"/>
<rect x="302.6" y="297.2" style="fill:#FF7058;" width="28.5" height="64.2"/>
<rect x="355.4" y="138.6" style="fill:#2C9984;" width="28.5" height="64.2"/>
<rect x="302.6" y="138.6" style="fill:#FF7058;" width="28.5" height="64.2"/>
<g>
	<rect x="113.7" y="128.1" style="fill:#F9B54C;" width="17" height="17"/>
	<rect x="130.7" y="145.2" style="fill:#F9B54C;" width="17" height="17"/>
	<rect x="113.7" y="162.2" style="fill:#F9B54C;" width="17" height="17"/>
	<rect x="113.7" y="196.3" style="fill:#F9B54C;" width="17" height="17"/>
	<rect x="130.7" y="179.3" style="fill:#F9B54C;" width="17" height="17"/>
	<rect x="147.6" y="128.1" style="fill:#F9B54C;" width="17" height="17"/>
	<rect x="164.6" y="145.2" style="fill:#F9B54C;" width="17" height="17"/>
	<rect x="147.6" y="162.2" style="fill:#F9B54C;" width="17" height="17"/>
	<rect x="147.6" y="196.3" style="fill:#F9B54C;" width="17" height="17"/>
	<rect x="164.6" y="179.3" style="fill:#F9B54C;" width="17" height="17"/>
	<rect x="181.6" y="128.1" style="fill:#F9B54C;" width="17" height="17"/>
	<rect x="198.6" y="145.2" style="fill:#F9B54C;" width="17" height="17"/>
	<rect x="181.6" y="162.2" style="fill:#F9B54C;" width="17" height="17"/>
	<rect x="181.6" y="196.3" style="fill:#F9B54C;" width="17" height="17"/>
	<rect x="198.6" y="179.3" style="fill:#F9B54C;" width="17" height="17"/>
	<rect x="215.5" y="128.1" style="fill:#F9B54C;" width="17" height="17"/>
	<rect x="232.5" y="145.2" style="fill:#F9B54C;" width="17" height="17"/>
	<rect x="215.5" y="162.2" style="fill:#F9B54C;" width="17" height="17"/>
	<rect x="215.5" y="196.3" style="fill:#F9B54C;" width="17" height="17"/>
	<rect x="232.5" y="179.3" style="fill:#F9B54C;" width="17" height="17"/>
</g>
<g>
	<rect x="113.7" y="286.8" style="fill:#2C9984;" width="17" height="17"/>
	<rect x="130.7" y="303.8" style="fill:#2C9984;" width="17" height="17"/>
	<rect x="113.7" y="320.8" style="fill:#2C9984;" width="17" height="17"/>
	<rect x="113.7" y="354.9" style="fill:#2C9984;" width="17" height="17"/>
	<rect x="130.7" y="337.9" style="fill:#2C9984;" width="17" height="17"/>
	<rect x="147.6" y="286.8" style="fill:#2C9984;" width="17" height="17"/>
	<rect x="164.6" y="303.8" style="fill:#2C9984;" width="17" height="17"/>
	<rect x="147.6" y="320.8" style="fill:#2C9984;" width="17" height="17"/>
	<rect x="147.6" y="354.9" style="fill:#2C9984;" width="17" height="17"/>
	<rect x="164.6" y="337.9" style="fill:#2C9984;" width="17" height="17"/>
	<rect x="181.6" y="286.8" style="fill:#2C9984;" width="17" height="17"/>
	<rect x="198.6" y="303.8" style="fill:#2C9984;" width="17" height="17"/>
	<rect x="181.6" y="320.8" style="fill:#2C9984;" width="17" height="17"/>
	<rect x="181.6" y="354.9" style="fill:#2C9984;" width="17" height="17"/>
	<rect x="198.6" y="337.9" style="fill:#2C9984;" width="17" height="17"/>
	<rect x="215.5" y="286.8" style="fill:#2C9984;" width="17" height="17"/>
	<rect x="232.5" y="303.8" style="fill:#2C9984;" width="17" height="17"/>
	<rect x="215.5" y="320.8" style="fill:#2C9984;" width="17" height="17"/>
	<rect x="215.5" y="354.9" style="fill:#2C9984;" width="17" height="17"/>
	<rect x="232.5" y="337.9" style="fill:#2C9984;" width="17" height="17"/>
</g>
<g>
</g>
<g>
</g>
<g>
</g>
<g>
</g>
<g>
</g>
<g>
</g>
<g>
</g>
<g>
</g>
<g>
</g>
<g>
</g>
<g>
</g>
<g>
</g>
<g>
</g>
<g>
</g>
<g>
</g>
</svg>
