<?xml version="1.0" encoding="iso-8859-1"?>
<!-- Generator: Adobe Illustrator 19.0.0, SVG Export Plug-In . SVG Version: 6.00 Build 0)  -->
<svg xmlns="http://www.w3.org/2000/svg" xmlns:xlink="http://www.w3.org/1999/xlink" version="1.1" id="Layer_1" x="0px" y="0px" viewBox="0 0 500 500" style="enable-background:new 0 0 500 500;" xml:space="preserve">
<circle style="fill:#84DBFF;" cx="250" cy="250" r="250"/>
<path style="fill:#FFD05B;" d="M367.9,373.4H132.1c-3,0-5.5-2.4-5.5-5.5V132.1c0-3,2.4-5.5,5.5-5.5H368c3,0,5.5,2.4,5.5,5.5V368  C373.4,371,371,373.4,367.9,373.4z"/>
<path style="fill:#FFFFFF;" d="M169.1,329.3V170.7c0-0.9,0.7-1.6,1.6-1.6h158.7c0.9,0,1.6,0.7,1.6,1.6v158.7c0,0.9-0.7,1.6-1.6,1.6  H170.7C169.8,330.9,169.1,330.2,169.1,329.3z"/>
<g>
	<rect x="139" y="93.7" style="fill:#2B3B4E;" width="14.8" height="32.9"/>
	<rect x="168.6" y="93.7" style="fill:#2B3B4E;" width="14.8" height="32.9"/>
	<rect x="198.2" y="93.7" style="fill:#2B3B4E;" width="14.8" height="32.9"/>
	<rect x="227.8" y="93.7" style="fill:#2B3B4E;" width="14.8" height="32.9"/>
	<rect x="257.4" y="93.7" style="fill:#2B3B4E;" width="14.8" height="32.9"/>
	<rect x="287" y="93.7" style="fill:#2B3B4E;" width="14.8" height="32.9"/>
	<rect x="316.6" y="93.7" style="fill:#2B3B4E;" width="14.8" height="32.9"/>
	<rect x="346.2" y="93.7" style="fill:#2B3B4E;" width="14.8" height="32.9"/>
	<rect x="139" y="373.4" style="fill:#2B3B4E;" width="14.8" height="32.9"/>
	<rect x="168.6" y="373.4" style="fill:#2B3B4E;" width="14.8" height="32.9"/>
	<rect x="198.2" y="373.4" style="fill:#2B3B4E;" width="14.8" height="32.9"/>
	<rect x="227.8" y="373.4" style="fill:#2B3B4E;" width="14.8" height="32.9"/>
	<rect x="257.4" y="373.4" style="fill:#2B3B4E;" width="14.8" height="32.9"/>
	<rect x="287" y="373.4" style="fill:#2B3B4E;" width="14.8" height="32.9"/>
	<rect x="316.6" y="373.4" style="fill:#2B3B4E;" width="14.8" height="32.9"/>
	<rect x="346.2" y="373.4" style="fill:#2B3B4E;" width="14.8" height="32.9"/>
	<rect x="373.4" y="139" style="fill:#2B3B4E;" width="32.9" height="14.8"/>
	<rect x="373.4" y="168.6" style="fill:#2B3B4E;" width="32.9" height="14.8"/>
	<rect x="373.4" y="198.2" style="fill:#2B3B4E;" width="32.9" height="14.8"/>
	<rect x="373.4" y="227.8" style="fill:#2B3B4E;" width="32.9" height="14.8"/>
	<rect x="373.4" y="257.4" style="fill:#2B3B4E;" width="32.9" height="14.8"/>
	<rect x="373.4" y="287" style="fill:#2B3B4E;" width="32.9" height="14.8"/>
	<rect x="373.4" y="316.6" style="fill:#2B3B4E;" width="32.9" height="14.8"/>
	<rect x="373.4" y="346.2" style="fill:#2B3B4E;" width="32.9" height="14.8"/>
	<rect x="93.7" y="139" style="fill:#2B3B4E;" width="32.9" height="14.8"/>
	<rect x="93.7" y="168.6" style="fill:#2B3B4E;" width="32.9" height="14.8"/>
	<rect x="93.7" y="198.2" style="fill:#2B3B4E;" width="32.9" height="14.8"/>
	<rect x="93.7" y="227.8" style="fill:#2B3B4E;" width="32.9" height="14.8"/>
	<rect x="93.7" y="257.4" style="fill:#2B3B4E;" width="32.9" height="14.8"/>
	<rect x="93.7" y="287" style="fill:#2B3B4E;" width="32.9" height="14.8"/>
	<rect x="93.7" y="316.6" style="fill:#2B3B4E;" width="32.9" height="14.8"/>
	<rect x="93.7" y="346.2" style="fill:#2B3B4E;" width="32.9" height="14.8"/>
</g>
<rect x="182.3" y="297.3" style="fill:#324A5E;" width="22.4" height="20.4"/>
<g>
</g>
<g>
</g>
<g>
</g>
<g>
</g>
<g>
</g>
<g>
</g>
<g>
</g>
<g>
</g>
<g>
</g>
<g>
</g>
<g>
</g>
<g>
</g>
<g>
</g>
<g>
</g>
<g>
</g>
</svg>
