<?xml version="1.0" encoding="iso-8859-1"?>
<!-- Generator: Adobe Illustrator 19.0.0, SVG Export Plug-In . SVG Version: 6.00 Build 0)  -->
<svg xmlns="http://www.w3.org/2000/svg" xmlns:xlink="http://www.w3.org/1999/xlink" version="1.1" id="Layer_1" x="0px" y="0px" viewBox="0 0 500 500" style="enable-background:new 0 0 500 500;" xml:space="preserve">
<circle style="fill:#90DFAA;" cx="250" cy="250" r="250"/>
<path style="fill:#324A5E;" d="M399.4,400.8H100.6c-0.8,0-1.4-0.6-1.4-1.4V100.6c0-0.8,0.6-1.4,1.4-1.4h298.7c0.8,0,1.4,0.6,1.4,1.4  v298.7C400.8,400.1,400.1,400.8,399.4,400.8z"/>
<path style="fill:#FFFFFF;" d="M250,132L250,132c-65.2,0-118,52.8-118,118l0,0c0,65.2,52.8,118,118,118l0,0c65.2,0,118-52.8,118-118  l0,0C368,184.8,315.2,132,250,132z"/>
<path style="fill:#FF7058;" d="M351.2,250c0-13.6-2.7-26.5-7.5-38.3c-5.8-0.9-28.5-3-53.6,13.3c-3.9-6.2-9.1-11.4-15.3-15.2  c21.5-15.2,42.5-19.1,56.7-19.7c-10.8-14.6-25.4-26.3-42.4-33.4c-4.7,3.4-22.3,18-28.5,47.2c-3.4-0.8-7-1.2-10.6-1.2  c-3.8,0-7.4,0.5-11,1.3c4.5-26,16.5-43.6,26.3-54c-5-0.8-10.1-1.2-15.3-1.2c-13.6,0-26.5,2.7-38.3,7.5c-0.9,5.9-2.9,28.6,13.2,53.6  c-6.2,3.9-11.4,9.1-15.2,15.3c-15.2-21.5-19.1-42.5-19.6-56.8c-14.6,10.8-26.3,25.4-33.4,42.4c3.5,4.8,18.1,22.3,47.2,28.5  c-0.8,3.4-1.2,7-1.2,10.6c0,3.8,0.5,7.4,1.3,11c-26-4.5-43.6-16.5-54-26.3c-0.8,5-1.2,10.1-1.2,15.3c0,13.6,2.7,26.5,7.5,38.3  c5.9,0.9,28.6,2.9,53.6-13.3c3.9,6.2,9.1,11.3,15.3,15.2c-21.5,15.2-42.4,19.2-56.7,19.7c10.8,14.6,25.4,26.3,42.4,33.4  c4.8-3.5,22.3-18.1,28.5-47.3c3.4,0.8,7,1.2,10.6,1.2c3.8,0,7.4-0.5,11-1.3c-4.5,26-16.5,43.6-26.3,54c5,0.8,10.1,1.1,15.3,1.1  c13.6,0,26.5-2.7,38.3-7.5c0.9-5.8,2.9-28.5-13.3-53.6c6.2-3.9,11.4-9.1,15.2-15.3c15.2,21.5,19.2,42.5,19.7,56.7  c14.6-10.8,26.3-25.4,33.4-42.4c-3.5-4.7-18.1-22.3-47.3-28.5c0.8-3.4,1.2-7,1.2-10.6c0-3.8-0.5-7.4-1.3-11  c26,4.5,43.6,16.5,54,26.2C350.8,260.3,351.2,255.2,351.2,250z"/>
<circle style="fill:#F1543F;" cx="250" cy="250" r="19.5"/>
<g>
	<circle style="fill:#E6E9EE;" cx="368" cy="132" r="19.5"/>
	<circle style="fill:#E6E9EE;" cx="132" cy="132" r="19.5"/>
	<circle style="fill:#E6E9EE;" cx="368" cy="368" r="19.5"/>
	<circle style="fill:#E6E9EE;" cx="132" cy="368" r="19.5"/>
</g>
<g>
</g>
<g>
</g>
<g>
</g>
<g>
</g>
<g>
</g>
<g>
</g>
<g>
</g>
<g>
</g>
<g>
</g>
<g>
</g>
<g>
</g>
<g>
</g>
<g>
</g>
<g>
</g>
<g>
</g>
</svg>
