<?xml version="1.0" encoding="iso-8859-1"?>
<!-- Generator: Adobe Illustrator 19.0.0, SVG Export Plug-In . SVG Version: 6.00 Build 0)  -->
<svg xmlns="http://www.w3.org/2000/svg" xmlns:xlink="http://www.w3.org/1999/xlink" version="1.1" id="Layer_1" x="0px" y="0px" viewBox="0 0 500 500" style="enable-background:new 0 0 500 500;" xml:space="preserve">
<circle style="fill:#84DBFF;" cx="250" cy="250" r="250"/>
<path style="fill:#324A5E;" d="M93.8,349.6V150.4c0-2.9,2.4-5.3,5.3-5.3h301.8c2.9,0,5.3,2.4,5.3,5.3v199.2c0,2.9-2.4,5.3-5.3,5.3  H99.1C96.1,354.9,93.8,352.5,93.8,349.6z"/>
<path style="fill:#E6E9EE;" d="M123.2,307V193c0-11.5,10.1-20.8,22.5-20.8h208.6c12.4,0,22.5,9.3,22.5,20.8v114  c0,11.5-10.1,20.8-22.5,20.8H145.7C133.3,327.7,123.2,318.4,123.2,307z M138,197.9V302c0,6.7,5.9,12.1,13.1,12.1H349  c7.2,0,13.1-5.4,13.1-12.1V197.9c0-6.7-5.9-12.1-13.1-12.1H151C143.8,185.9,138,191.3,138,197.9z"/>
<rect x="358" y="117.8" style="fill:#F1543F;" width="27.3" height="27.3"/>
<rect x="363.2" y="93.7" style="fill:#FF7058;" width="16.8" height="24"/>
<rect x="297.2" y="117.8" style="fill:#F1543F;" width="27.3" height="27.3"/>
<rect x="302.4" y="93.7" style="fill:#FF7058;" width="16.8" height="24"/>
<rect x="236.4" y="117.8" style="fill:#F1543F;" width="27.3" height="27.3"/>
<rect x="241.6" y="93.7" style="fill:#FF7058;" width="16.8" height="24"/>
<rect x="175.6" y="117.8" style="fill:#F1543F;" width="27.3" height="27.3"/>
<rect x="180.8" y="93.7" style="fill:#FF7058;" width="16.8" height="24"/>
<rect x="114.8" y="117.8" style="fill:#F1543F;" width="27.3" height="27.3"/>
<rect x="120" y="93.7" style="fill:#FF7058;" width="16.8" height="24"/>
<rect x="114.8" y="354.9" style="fill:#F1543F;" width="27.3" height="27.3"/>
<rect x="120" y="382.2" style="fill:#FF7058;" width="16.8" height="24"/>
<rect x="175.6" y="354.9" style="fill:#F1543F;" width="27.3" height="27.3"/>
<rect x="180.8" y="382.2" style="fill:#FF7058;" width="16.8" height="24"/>
<rect x="236.4" y="354.9" style="fill:#F1543F;" width="27.3" height="27.3"/>
<rect x="241.6" y="382.2" style="fill:#FF7058;" width="16.8" height="24"/>
<rect x="297.2" y="354.9" style="fill:#F1543F;" width="27.3" height="27.3"/>
<rect x="302.4" y="382.2" style="fill:#FF7058;" width="16.8" height="24"/>
<rect x="358" y="354.9" style="fill:#F1543F;" width="27.3" height="27.3"/>
<rect x="363.2" y="382.2" style="fill:#FF7058;" width="16.8" height="24"/>
<g>
</g>
<g>
</g>
<g>
</g>
<g>
</g>
<g>
</g>
<g>
</g>
<g>
</g>
<g>
</g>
<g>
</g>
<g>
</g>
<g>
</g>
<g>
</g>
<g>
</g>
<g>
</g>
<g>
</g>
</svg>
