<?xml version="1.0" encoding="iso-8859-1"?>
<!-- Generator: Adobe Illustrator 19.0.0, SVG Export Plug-In . SVG Version: 6.00 Build 0)  -->
<svg xmlns="http://www.w3.org/2000/svg" xmlns:xlink="http://www.w3.org/1999/xlink" version="1.1" id="Layer_1" x="0px" y="0px" viewBox="0 0 500 500" style="enable-background:new 0 0 500 500;" xml:space="preserve">
<circle style="fill:#FFD05B;" cx="250" cy="250" r="250"/>
<path style="fill:#FF7058;" d="M415,322.1H85c-1,0-1.7-0.8-1.7-1.7V218.9c0-1,0.8-1.7,1.7-1.7h330c1,0,1.7,0.8,1.7,1.7v101.4  C416.7,321.3,415.9,322.1,415,322.1z"/>
<circle style="fill:#324A5E;" cx="176.9" cy="235.4" r="74.7"/>
<circle style="fill:#E6E9EE;" cx="176.9" cy="235.4" r="58.3"/>
<circle style="fill:#54C0EB;" cx="176.9" cy="235.4" r="24.4"/>
<g>
	<rect x="270" y="232.7" style="fill:#FFFFFF;" width="8.5" height="73.9"/>
	<rect x="294.3" y="232.7" style="fill:#FFFFFF;" width="8.5" height="73.9"/>
	<rect x="318.7" y="232.7" style="fill:#FFFFFF;" width="8.5" height="73.9"/>
	<rect x="343" y="232.7" style="fill:#FFFFFF;" width="8.5" height="73.9"/>
	<rect x="367.3" y="232.7" style="fill:#FFFFFF;" width="8.5" height="73.9"/>
	<rect x="391.7" y="232.7" style="fill:#FFFFFF;" width="8.5" height="73.9"/>
</g>
<g>
	<rect x="112.1" y="322.1" style="fill:#2B3B4E;" width="43.8" height="17.2"/>
	<rect x="344.1" y="322.1" style="fill:#2B3B4E;" width="43.8" height="17.2"/>
</g>
<g>
</g>
<g>
</g>
<g>
</g>
<g>
</g>
<g>
</g>
<g>
</g>
<g>
</g>
<g>
</g>
<g>
</g>
<g>
</g>
<g>
</g>
<g>
</g>
<g>
</g>
<g>
</g>
<g>
</g>
</svg>
