<?xml version="1.0" encoding="iso-8859-1"?>
<!-- Generator: Adobe Illustrator 19.0.0, SVG Export Plug-In . SVG Version: 6.00 Build 0)  -->
<svg xmlns="http://www.w3.org/2000/svg" xmlns:xlink="http://www.w3.org/1999/xlink" version="1.1" id="Layer_1" x="0px" y="0px" viewBox="0 0 500 500" style="enable-background:new 0 0 500 500;" xml:space="preserve">
<circle style="fill:#84DBFF;" cx="250" cy="250" r="250"/>
<g>
	<path style="fill:#2B3B4E;" d="M367.7,145.9l-1.4-1.4l-13.8,14l1.4,1.4c23.7,24,36.8,56,36.8,90s-13.1,66-36.8,90l-1.4,1.4l13.8,14   l1.4-1.4c27.4-27.8,42.5-64.7,42.5-104.1C410.2,210.7,395.1,173.7,367.7,145.9z"/>
	<path style="fill:#2B3B4E;" d="M332,170.2l-1.4-1.4l-13.8,14l1.4,1.4c17.3,17.5,26.8,40.9,26.8,65.8s-9.5,48.2-26.8,65.8l-1.4,1.4   l13.8,14l1.4-1.4c21-21.3,32.5-49.6,32.5-79.8C364.6,219.8,353,191.5,332,170.2z"/>
</g>
<polygon style="fill:#FF7058;" points="302.2,406.3 165.1,307 165.1,193 302.2,93.8 "/>
<path style="fill:#324A5E;" d="M110.5,307.1h54.6V193h-54.6c-11.4,0-20.7,10.2-20.7,22.7v68.7C89.8,296.9,99.1,307.1,110.5,307.1z"/>
<g>
</g>
<g>
</g>
<g>
</g>
<g>
</g>
<g>
</g>
<g>
</g>
<g>
</g>
<g>
</g>
<g>
</g>
<g>
</g>
<g>
</g>
<g>
</g>
<g>
</g>
<g>
</g>
<g>
</g>
</svg>
