<?xml version="1.0" encoding="iso-8859-1"?>
<!-- Generator: Adobe Illustrator 19.0.0, SVG Export Plug-In . SVG Version: 6.00 Build 0)  -->
<svg xmlns="http://www.w3.org/2000/svg" xmlns:xlink="http://www.w3.org/1999/xlink" version="1.1" id="Layer_1" x="0px" y="0px" viewBox="0 0 500 500" style="enable-background:new 0 0 500 500;" xml:space="preserve">
<circle style="fill:#324A5E;" cx="250" cy="250" r="250"/>
<path style="fill:#FFFFFF;" d="M325.8,102.1c0-5.7-4.6-10.3-10.3-10.3h-131c-5.7,0-10.3,4.6-10.3,10.3v295.7  c0,5.7,4.6,10.3,10.3,10.3h131c5.7,0,10.3-4.6,10.3-10.3V102.1z"/>
<rect x="187" y="106.2" style="fill:#F1543F;" width="31.1" height="21.3"/>
<g>
	<rect x="187" y="143.2" style="fill:#ACB3BA;" width="31.1" height="21.3"/>
	<rect x="234.4" y="143.2" style="fill:#ACB3BA;" width="31.1" height="21.3"/>
	<rect x="281.9" y="143.2" style="fill:#ACB3BA;" width="31.1" height="21.3"/>
	<rect x="187" y="174.9" style="fill:#ACB3BA;" width="31.1" height="21.3"/>
	<rect x="234.4" y="174.9" style="fill:#ACB3BA;" width="31.1" height="21.3"/>
	<rect x="281.9" y="174.9" style="fill:#ACB3BA;" width="31.1" height="21.3"/>
	<rect x="187" y="206.5" style="fill:#ACB3BA;" width="31.1" height="21.3"/>
	<rect x="234.4" y="206.5" style="fill:#ACB3BA;" width="31.1" height="21.3"/>
	<rect x="281.9" y="206.5" style="fill:#ACB3BA;" width="31.1" height="21.3"/>
	<rect x="187" y="238.1" style="fill:#ACB3BA;" width="31.1" height="21.3"/>
</g>
<path style="fill:#F1543F;" d="M207.5,376.7h-9.9c-5.9,0-10.6,4.8-10.6,10.6c0,5.9,4.8,10.6,10.6,10.6h9.9c5.9,0,10.6-4.8,10.6-10.6  C218.1,381.4,213.4,376.7,207.5,376.7z"/>
<path style="fill:#F9B54C;" d="M302.4,376.7h-9.9c-5.9,0-10.6,4.8-10.6,10.6c0,5.9,4.8,10.6,10.6,10.6h9.9c5.9,0,10.6-4.8,10.6-10.6  C313,381.4,308.3,376.7,302.4,376.7z"/>
<g>
	<rect x="234.4" y="238.1" style="fill:#ACB3BA;" width="31.1" height="21.3"/>
	<rect x="281.9" y="238.1" style="fill:#ACB3BA;" width="31.1" height="21.3"/>
</g>
<rect x="281.9" y="106.2" style="fill:#2C9984;" width="31.1" height="21.3"/>
<path style="fill:#F9B54C;" d="M233.3,301.4c10.1-6.5,23.2-6.5,33.3,0L280,288c-17.7-13.5-42.4-13.5-60.1,0L233.3,301.4z"/>
<path style="fill:#F1543F;" d="M276.2,310.9c6.5,10.1,6.5,23.2,0,33.3l13.4,13.4c13.5-17.7,13.5-42.4,0-60.1L276.2,310.9z"/>
<path style="fill:#2C9984;" d="M223.8,344.2c-6.5-10.1-6.5-23.2,0-33.3l-13.4-13.4c-13.5,17.7-13.5,42.4,0,60.1L223.8,344.2z"/>
<path style="fill:#54C0EB;" d="M266.7,353.8c-10.1,6.5-23.2,6.5-33.3,0L220,367.2c17.7,13.5,42.4,13.5,60.1,0L266.7,353.8z"/>
<circle style="fill:#324A5E;" cx="250" cy="327.6" r="25.5"/>
<g>
	<path style="fill:#FFFFFF;" d="M247.2,334.1c-1.8,1.8-4,2.6-6.6,2.6s-4.8-0.9-6.6-2.6c-1.8-1.8-2.7-3.9-2.7-6.5s0.9-4.8,2.7-6.5   c1.8-1.8,4-2.6,6.6-2.6s4.8,0.9,6.6,2.6c1.8,1.8,2.7,3.9,2.7,6.5S249,332.4,247.2,334.1z M245.8,327.6c0-1.6-0.5-2.9-1.5-4.1   c-1-1.1-2.3-1.7-3.7-1.7s-2.7,0.6-3.7,1.7s-1.5,2.5-1.5,4.1s0.5,2.9,1.5,4s2.3,1.7,3.7,1.7s2.7-0.6,3.7-1.7   S245.8,329.2,245.8,327.6z"/>
	<path style="fill:#FFFFFF;" d="M253.2,318.8h4v7.3l6.7-7.3h4.9l-7.1,7.9c0.6,0.8,1.7,2.4,3.4,4.7c1.6,2.3,2.9,4,3.7,5.2h-4.6   l-5.2-7l-1.8,2v5h-4V318.8z"/>
</g>
<g>
</g>
<g>
</g>
<g>
</g>
<g>
</g>
<g>
</g>
<g>
</g>
<g>
</g>
<g>
</g>
<g>
</g>
<g>
</g>
<g>
</g>
<g>
</g>
<g>
</g>
<g>
</g>
<g>
</g>
</svg>
