<?xml version="1.0" encoding="iso-8859-1"?>
<!-- Generator: Adobe Illustrator 19.0.0, SVG Export Plug-In . SVG Version: 6.00 Build 0)  -->
<svg xmlns="http://www.w3.org/2000/svg" xmlns:xlink="http://www.w3.org/1999/xlink" version="1.1" id="Layer_1" x="0px" y="0px" viewBox="0 0 500 500" style="enable-background:new 0 0 500 500;" xml:space="preserve">
<circle style="fill:#90DFAA;" cx="250" cy="250" r="250"/>
<path style="fill:#324A5E;" d="M191.5,354.1l116.8,0.1c5.5,0,9.9-4,9.9-9l0,0c0-5-4.5-9-9.9-9l-116.8-0.1c-5.5,0-9.9,4-9.9,9l0,0  C181.6,350.1,186,354.1,191.5,354.1z"/>
<path style="fill:#2B3B4E;" d="M191.5,372.1l116.8,0.1c5.5,0,9.9-4,9.9-9l0,0c0-5-4.5-9-9.9-9l-116.8-0.1c-5.5,0-9.9,4-9.9,9l0,0  C181.6,368.1,186,372.1,191.5,372.1z"/>
<path style="fill:#324A5E;" d="M191.5,390.1l116.8,0.1c5.5,0,9.9-4,9.9-9l0,0c0-5-4.5-9-9.9-9l-116.8-0.1c-5.5,0-9.9,4-9.9,9l0,0  C181.6,386.1,186,390.1,191.5,390.1z"/>
<path style="fill:#F1543F;" d="M243.4,78.1c-61.4,3.2-110.9,54.5-112.1,116c-0.7,35,13.8,66.5,37.3,88.7  c14.3,13.5,22.4,32.3,22.4,51.9v1.5l117.9,0.1v-1.5c0-19.8,8.3-38.5,22.6-52.1c22.8-21.6,37-52.1,37-86  C368.5,129,311.8,74.6,243.4,78.1z"/>
<path style="fill:#2B3B4E;" d="M308.4,390.2l-116.8-0.1c-5.5,0-9.9,4-9.9,9s4.5,9,9.9,9h14.6c2.2,0,4.2,1.3,5,3.3  c3.3,8.9,19.4,15.7,38.9,15.7s35.6-6.7,38.9-15.6c0.7-2,2.8-3.3,5-3.3h14.6c5.5,0,9.9-4,9.9-9C318.3,394.2,313.9,390.2,308.4,390.2z  "/>
<path style="fill:#FFFFFF;" d="M328.3,204.7v-28.8h-12.9c-1.7-7.9-4.8-15.2-9-21.8l9.1-9.1l-20.3-20.3l-9.1,9.1  c-6.6-4.2-13.9-7.3-21.8-9v-12.9h-28.8v12.9c-7.9,1.7-15.2,4.8-21.8,9l-9.1-9.1L184.3,145l9.1,9.1c-4.2,6.6-7.3,13.9-9,21.8h-12.9  v28.8h12.9c1.7,7.9,4.8,15.2,9,21.8l-9.1,9.1l20.3,20.3l9.1-9.1c6.6,4.2,13.9,7.3,21.8,9v12.9h28.8v-12.9c7.9-1.7,15.2-4.8,21.8-9  l9.1,9.1l20.3-20.3l-9.1-9.1c4.2-6.6,7.3-13.9,9-21.8L328.3,204.7z M249.9,233.4c-23.9,0-43.2-19.4-43.2-43.2  c0-23.9,19.3-43.2,43.2-43.2s43.2,19.4,43.2,43.2C293.1,214.1,273.7,233.5,249.9,233.4z"/>
<g>
</g>
<g>
</g>
<g>
</g>
<g>
</g>
<g>
</g>
<g>
</g>
<g>
</g>
<g>
</g>
<g>
</g>
<g>
</g>
<g>
</g>
<g>
</g>
<g>
</g>
<g>
</g>
<g>
</g>
</svg>
