<?xml version="1.0" encoding="iso-8859-1"?>
<!-- Generator: Adobe Illustrator 19.0.0, SVG Export Plug-In . SVG Version: 6.00 Build 0)  -->
<svg xmlns="http://www.w3.org/2000/svg" xmlns:xlink="http://www.w3.org/1999/xlink" version="1.1" id="Layer_1" x="0px" y="0px" viewBox="0 0 500 500" style="enable-background:new 0 0 500 500;" xml:space="preserve">
<circle style="fill:#FFD05B;" cx="250" cy="250" r="250"/>
<path style="fill:#2C9984;" d="M298,115.9v30.4h-14.2v-42.7c-4.1-2.6-8.4-4.7-13-6.3v49h-14.2V94.1c-2.1-0.2-4.3-0.3-6.5-0.3  c-2.2,0-4.4,0.1-6.5,0.3v52.2h-14.2v-49c-4.6,1.6-9,3.7-13,6.3v42.7H202v-30.4c-9.5,11.1-15.3,25.4-15.3,41.2v46v46  c0,15.7,5.8,30.1,15.3,41.2v-30.4h14.2v42.7c4.1,2.6,8.4,4.7,13,6.3v-49h14.2V312c2.1,0.2,4.3,0.3,6.5,0.3c2.2,0,4.4-0.1,6.5-0.3  v-52.2h14.2v49c4.6-1.6,9-3.7,13-6.3v-42.7H298v30.4c9.5-11.1,15.3-25.4,15.3-41.2v-46v-46C313.3,141.3,307.5,127,298,115.9z"/>
<polygon style="fill:#2B3B4E;" points="263.7,383 263.7,343.4 236.3,343.4 236.3,383 193.7,383 193.7,406.3 236.3,406.3   263.7,406.3 306.3,406.3 306.3,383 "/>
<path style="fill:#324A5E;" d="M335.8,197.4h-13.1v14.7h13.1v34.4c0,47.3-38.5,85.8-85.8,85.8s-85.8-38.5-85.8-85.8v-34.4h13.1  v-14.7h-13.1h-14.7v14.7v34.4c0,55.4,45.1,100.4,100.4,100.4s100.4-45.1,100.4-100.4v-34.4v-14.7L335.8,197.4L335.8,197.4z"/>
<g>
</g>
<g>
</g>
<g>
</g>
<g>
</g>
<g>
</g>
<g>
</g>
<g>
</g>
<g>
</g>
<g>
</g>
<g>
</g>
<g>
</g>
<g>
</g>
<g>
</g>
<g>
</g>
<g>
</g>
</svg>
