<?xml version="1.0" encoding="iso-8859-1"?>
<!-- Generator: Adobe Illustrator 19.0.0, SVG Export Plug-In . SVG Version: 6.00 Build 0)  -->
<svg xmlns="http://www.w3.org/2000/svg" xmlns:xlink="http://www.w3.org/1999/xlink" version="1.1" id="Layer_1" x="0px" y="0px" viewBox="0 0 500 500" style="enable-background:new 0 0 500 500;" xml:space="preserve">
<circle style="fill:#FFD05B;" cx="250" cy="250" r="250"/>
<path style="fill:#F1543F;" d="M370.7,406.3H129.3c-1.5,0-2.6-1.2-2.6-2.6V96.4c0-1.5,1.2-2.6,2.6-2.6h241.4c1.5,0,2.6,1.2,2.6,2.6  v307.2C373.3,405.1,372.1,406.3,370.7,406.3z"/>
<g>
	<path style="fill:#FFFFFF;" d="M328.4,285.4h-27.5V273c-7.5-1.6-14.5-4.6-20.8-8.6l-8.7,8.7L252,253.7l8.7-8.7   c-4-6.3-7-13.3-8.6-20.8h-12.3v-27.5h12.3c1.6-7.5,4.6-14.5,8.6-20.8l-8.7-8.7l19.4-19.4l8.7,8.7c6.3-4,13.3-7,20.8-8.6v-12.3h27.5   v12.3c6.3,1.4,12.1,3.7,17.6,6.8v-33.6H154v217.2h192v-72c-5.4,3.1-11.3,5.4-17.6,6.8V285.4z"/>
	<path style="fill:#FFFFFF;" d="M314.7,169.5c-22.6,0-41,18.3-41,41s18.3,41,41,41c12.6,0,23.8-5.7,31.3-14.6v-52.8   C338.5,175.2,327.2,169.5,314.7,169.5z"/>
</g>
<path style="fill:#324A5E;" d="M314.7,251.9c-22.6,0-41-18.3-41-41s18.3-41,41-41c12.6,0,23.8,5.7,31.3,14.6v-29.4  c-5.4-3.1-11.3-5.4-17.6-6.8V136h-27.5v12.3c-7.5,1.6-14.5,4.6-20.8,8.6l-8.7-8.7L252,167.7l8.7,8.7c-4,6.3-7,13.3-8.6,20.8h-12.3  v27.5h12.3c1.6,7.5,4.6,14.5,8.6,20.8l-8.7,8.7l19.4,19.4l8.7-8.7c6.3,4,13.3,7,20.8,8.6v12.3h27.5v-12.3c6.3-1.4,12.1-3.7,17.6-6.8  v-29.4C338.5,246.3,327.2,251.9,314.7,251.9z"/>
<path style="fill:#2C9984;" d="M249.8,287.6v-16h-7.2c-1-4.4-2.7-8.5-5-12.1l5.1-5.1l-11.3-11.3l-5.1,5.1c-3.7-2.3-7.7-4.1-12.1-5  V236h-16v7.2c-4.4,1-8.5,2.7-12.1,5l-5.1-5.1l-11.3,11.3l5.1,5.1c-2.3,3.7-4.1,7.7-5,12.1h-7.2v16h7.2c1,4.4,2.7,8.5,5,12.1  l-5.1,5.1l11.3,11.3l5.1-5.1c3.7,2.3,7.7,4.1,12.1,5v7.2h16V316c4.4-1,8.5-2.7,12.1-5l5.1,5.1l11.3-11.3l-5.1-5.1  c2.3-3.7,4.1-7.7,5-12.1H249.8z M206.1,303.5c-13.2,0-23.9-10.7-23.9-23.9s10.7-23.9,23.9-23.9s23.9,10.7,23.9,23.9  S219.3,303.5,206.1,303.5z"/>
<circle style="fill:#FFFFFF;" cx="250" cy="372.3" r="22.1"/>
<g>
</g>
<g>
</g>
<g>
</g>
<g>
</g>
<g>
</g>
<g>
</g>
<g>
</g>
<g>
</g>
<g>
</g>
<g>
</g>
<g>
</g>
<g>
</g>
<g>
</g>
<g>
</g>
<g>
</g>
</svg>
