<?xml version="1.0" encoding="iso-8859-1"?>
<!-- Generator: Adobe Illustrator 19.0.0, SVG Export Plug-In . SVG Version: 6.00 Build 0)  -->
<svg xmlns="http://www.w3.org/2000/svg" xmlns:xlink="http://www.w3.org/1999/xlink" version="1.1" id="Layer_1" x="0px" y="0px" viewBox="0 0 500 500" style="enable-background:new 0 0 500 500;" xml:space="preserve">
<circle style="fill:#324A5E;" cx="250" cy="250" r="250"/>
<path style="fill:#CED5E0;" d="M228.1,318.8l90.7-90.7c23.2,6.6,49.2,0.9,67.4-17.4c18.3-18.3,24-44.2,17.4-67.4l-43.3,43.3  l-46.9-46.9l43.3-43.3c-23.2-6.6-49.2-0.9-67.4,17.4c-18.3,18.3-24,44.2-17.4,67.4l-90.7,90.7c-23.2-6.7-49.2-0.9-67.4,17.4  s-24,44.2-17.4,67.4l43.3-43.3l46.9,46.9l-43.3,43.3c23.2,6.6,49.2,0.9,67.4-17.4C228.9,368,234.7,342,228.1,318.8z"/>
<path style="fill:#F1543F;" d="M318.8,271.9l-90.7-90.7c6.6-23.2,0.9-49.2-17.4-67.4s-44.2-24-67.4-17.4l43.3,43.3l-46.9,46.9  l-43.3-43.3c-6.6,23.2-0.9,49.2,17.4,67.4c18.3,18.3,44.2,24,67.4,17.4l90.7,90.7c-6.7,23.2-0.9,49.2,17.4,67.4  c18.3,18.3,44.2,24,67.4,17.4l-43.3-43.3l46.9-46.9l43.3,43.3c6.6-23.2,0.9-49.2-17.4-67.4C368,271.1,342,265.3,318.8,271.9z"/>
<g>
</g>
<g>
</g>
<g>
</g>
<g>
</g>
<g>
</g>
<g>
</g>
<g>
</g>
<g>
</g>
<g>
</g>
<g>
</g>
<g>
</g>
<g>
</g>
<g>
</g>
<g>
</g>
<g>
</g>
</svg>
