<?xml version="1.0" encoding="iso-8859-1"?>
<!-- Generator: Adobe Illustrator 19.0.0, SVG Export Plug-In . SVG Version: 6.00 Build 0)  -->
<svg xmlns="http://www.w3.org/2000/svg" xmlns:xlink="http://www.w3.org/1999/xlink" version="1.1" id="Layer_1" x="0px" y="0px" viewBox="0 0 500 500" style="enable-background:new 0 0 500 500;" xml:space="preserve">
<circle style="fill:#FD8469;" cx="250" cy="250" r="250"/>
<path style="fill:#E6E9EE;" d="M342.9,136.5c-57-57-149.4-57-206.4,0s-57,149.4,0,206.4s149.4,57,206.4,0S399.9,193.5,342.9,136.5z   M255.4,255.4c-8.7,8.7-22.8,8.7-31.5,0c-8.7-8.7-8.7-22.8,0-31.5s22.8-8.7,31.5,0C264.1,232.6,264.1,246.7,255.4,255.4z"/>
<g>
	<path style="fill:#CED5E0;" d="M192,287.4c-7.1-7.1-12.3-15.4-15.5-24.3L117.6,285c6.3,17.1,16.3,33.1,30,46.8   c13.7,13.7,29.7,23.7,46.8,30l21.8-58.8C207.4,299.7,199.1,294.5,192,287.4z"/>
	<path style="fill:#CED5E0;" d="M287.4,192c7.1,7.1,12.3,15.4,15.5,24.3l58.8-21.8c-6.3-17.1-16.3-33.1-30-46.8s-29.7-23.7-46.8-30   l-21.8,58.8C272,179.7,280.3,184.9,287.4,192z"/>
</g>
<path style="fill:#ACB3BA;" d="M278.8,200.5c-21.6-21.6-56.7-21.6-78.3,0s-21.6,56.7,0,78.3c21.6,21.6,56.7,21.6,78.3,0  C300.5,257.2,300.5,222.1,278.8,200.5z M256.5,256.5c-9.3,9.3-24.4,9.3-33.7,0c-9.3-9.3-9.3-24.4,0-33.7s24.4-9.3,33.7,0  C265.8,232.1,265.8,247.2,256.5,256.5z"/>
<path style="fill:#CED5E0;" d="M276.3,203.1c-20.2-20.2-53-20.2-73.2,0s-20.2,53,0,73.2c20.2,20.2,53,20.2,73.2,0  C296.5,256.1,296.5,223.3,276.3,203.1z M255.4,255.4c-8.7,8.7-22.8,8.7-31.5,0c-8.7-8.7-8.7-22.8,0-31.5s22.8-8.7,31.5,0  C264.1,232.6,264.1,246.7,255.4,255.4z"/>
<g>
	<path style="fill:#2B3B4E;" d="M259.1,220.3c-10.7-10.7-28.1-10.7-38.9,0c-10.7,10.7-10.7,28.1,0,38.9c10.7,10.7,28.1,10.7,38.9,0   C269.8,248.4,269.8,231,259.1,220.3z M250.1,250.1c-5.7,5.7-15.1,5.7-20.8,0c-5.7-5.7-5.7-15.1,0-20.8s15.1-5.7,20.8,0   C255.8,235,255.8,244.3,250.1,250.1z"/>
	<path style="fill:#2B3B4E;" d="M402.6,406.3H232.1c-2,0-3.7-1.6-3.7-3.7v-83.3c0-2,1.6-3.7,3.7-3.7h170.5c2,0,3.7,1.6,3.7,3.7v83.3   C406.3,404.6,404.6,406.3,402.6,406.3z"/>
</g>
<g>
	<path style="fill:#FFD05B;" d="M283.8,340.5c4.3,4.8,6.4,11.6,6.4,20.2s-2.1,15.4-6.2,20.4c-4.2,5-10.5,7.5-19.1,7.5h-14.8v-55.4   h15.3C273.3,333.2,279.5,335.6,283.8,340.5z M282.6,360.9c0-12.7-5.8-19-17.5-19h-7.5v37.9h8.3c5.4,0,9.5-1.6,12.4-4.8   C281.2,371.8,282.6,367.1,282.6,360.9z"/>
	<path style="fill:#FFD05B;" d="M320.2,388.6h-8.4l-17.9-55.4h8.4l13.7,41.4l13.7-41.4h8.4L320.2,388.6z"/>
	<path style="fill:#FFD05B;" d="M378.2,340.5c4.3,4.8,6.4,11.6,6.4,20.2s-2.1,15.4-6.2,20.4c-4.2,5-10.5,7.5-19.1,7.5h-14.8v-55.4   h15.3C367.8,333.2,373.9,335.6,378.2,340.5z M377.1,360.9c0-12.7-5.8-19-17.5-19H352v37.9h8.3c5.4,0,9.5-1.6,12.4-4.8   C375.6,371.8,377.1,367.1,377.1,360.9z"/>
</g>
<g>
</g>
<g>
</g>
<g>
</g>
<g>
</g>
<g>
</g>
<g>
</g>
<g>
</g>
<g>
</g>
<g>
</g>
<g>
</g>
<g>
</g>
<g>
</g>
<g>
</g>
<g>
</g>
<g>
</g>
</svg>
