<?xml version="1.0" encoding="iso-8859-1"?>
<!-- Generator: Adobe Illustrator 19.0.0, SVG Export Plug-In . SVG Version: 6.00 Build 0)  -->
<svg xmlns="http://www.w3.org/2000/svg" xmlns:xlink="http://www.w3.org/1999/xlink" version="1.1" id="Layer_1" x="0px" y="0px" viewBox="0 0 500 500" style="enable-background:new 0 0 500 500;" xml:space="preserve">
<circle style="fill:#324A5E;" cx="250" cy="250" r="250"/>
<path style="fill:#E6E9EE;" d="M388.6,232.3c0-76.5-62-138.6-138.6-138.6s-138.6,62-138.6,138.6s62,138.6,138.6,138.6  S388.6,308.8,388.6,232.3z M250,253.4c-11.7,0-21.1-9.5-21.1-21.1c0-11.7,9.5-21.1,21.1-21.1c11.7,0,21.1,9.5,21.1,21.1  C271.1,244,261.7,253.4,250,253.4z"/>
<path style="fill:#CED5E0;" d="M299.2,232.3c0-27.2-22-49.2-49.2-49.2s-49.2,22-49.2,49.2s22,49.2,49.2,49.2  S299.2,259.5,299.2,232.3z M250,253.4c-11.7,0-21.1-9.5-21.1-21.1c0-11.7,9.5-21.1,21.1-21.1c11.7,0,21.1,9.5,21.1,21.1  C271.1,244,261.7,253.4,250,253.4z"/>
<path style="fill:#ACB3BA;" d="M282.5,232.3c0-18-14.6-32.5-32.5-32.5s-32.5,14.6-32.5,32.5s14.6,32.5,32.5,32.5  C268,264.9,282.5,250.3,282.5,232.3z M250,249.7c-9.6,0-17.4-7.8-17.4-17.4s7.8-17.4,17.4-17.4c9.6,0,17.4,7.8,17.4,17.4  S259.6,249.7,250,249.7z"/>
<g>
	<path style="fill:#CED5E0;" d="M185.9,232.3c0-9.5,2.1-18.6,5.9-26.7l-54.1-24.8c-7.2,15.7-11.3,33.2-11.3,51.5s4.1,35.8,11.3,51.5   l54.1-24.8C188,250.9,185.9,241.8,185.9,232.3z"/>
	<path style="fill:#CED5E0;" d="M314.1,232.3c0,9.5-2.1,18.6-5.9,26.7l54.1,24.8c7.2-15.7,11.3-33.2,11.3-51.5   c0-18.4-4.1-35.8-11.3-51.5l-54.1,24.8C312,213.7,314.1,222.8,314.1,232.3z"/>
</g>
<rect x="93.8" y="296.2" style="fill:#FFD05B;" width="312.5" height="90.8"/>
<rect x="236.5" y="313.8" style="fill:#324A5E;" width="153.1" height="55.6"/>
<rect x="110.4" y="356" style="fill:#2B3B4E;" width="14.5" height="13.5"/>
<rect x="135.7" y="356" style="fill:#2C9984;" width="14.5" height="13.5"/>
<rect x="161.1" y="356" style="fill:#F9B54C;" width="14.5" height="13.5"/>
<rect x="186.4" y="356" style="fill:#F1543F;" width="14.5" height="13.5"/>
<rect x="211.7" y="356" style="fill:#2B3B4E;" width="14.5" height="13.5"/>
<rect x="110.4" y="313.8" style="fill:#FF7058;" width="115.8" height="32.8"/>
<g>
	<rect x="114.7" y="387.1" style="fill:#2C9984;" width="42.7" height="19.2"/>
	<rect x="342.6" y="387.1" style="fill:#2C9984;" width="42.7" height="19.2"/>
</g>
<g>
</g>
<g>
</g>
<g>
</g>
<g>
</g>
<g>
</g>
<g>
</g>
<g>
</g>
<g>
</g>
<g>
</g>
<g>
</g>
<g>
</g>
<g>
</g>
<g>
</g>
<g>
</g>
<g>
</g>
</svg>
