<?xml version="1.0" encoding="iso-8859-1"?>
<!-- Generator: Adobe Illustrator 19.0.0, SVG Export Plug-In . SVG Version: 6.00 Build 0)  -->
<svg xmlns="http://www.w3.org/2000/svg" xmlns:xlink="http://www.w3.org/1999/xlink" version="1.1" id="Layer_1" x="0px" y="0px" viewBox="0 0 500 500" style="enable-background:new 0 0 500 500;" xml:space="preserve">
<circle style="fill:#324A5E;" cx="250" cy="250" r="250"/>
<path style="fill:#F9B54C;" d="M116.7,230c8.7-58.3,54.9-104.5,113.3-113.3V73.4C148,82.6,82.7,147.9,73.4,230H116.7z"/>
<path style="fill:#54C0EB;" d="M270,116.7c58.3,8.7,104.5,54.9,113.3,113.3h43.3C417.4,148,352.1,82.7,270,73.4L270,116.7L270,116.7  z"/>
<path style="fill:#F9B54C;" d="M383.3,270c-8.7,58.3-54.9,104.5-113.3,113.3v43.3c82-9.2,147.3-74.5,156.6-156.6L383.3,270  L383.3,270z"/>
<path style="fill:#54C0EB;" d="M230,383.3c-58.3-8.7-104.5-54.9-113.3-113.3H73.4c9.2,82,74.5,147.3,156.6,156.6V383.3z"/>
<rect x="291.9" y="169.2" style="fill:#F1543F;" width="46.5" height="161.6"/>
<rect x="226.7" y="223.9" style="fill:#2C9984;" width="46.5" height="106.9"/>
<rect x="161.6" y="278.6" style="fill:#FFFFFF;" width="46.5" height="52.2"/>
<g>
</g>
<g>
</g>
<g>
</g>
<g>
</g>
<g>
</g>
<g>
</g>
<g>
</g>
<g>
</g>
<g>
</g>
<g>
</g>
<g>
</g>
<g>
</g>
<g>
</g>
<g>
</g>
<g>
</g>
</svg>
