<?xml version="1.0" encoding="iso-8859-1"?>
<!-- Generator: Adobe Illustrator 19.0.0, SVG Export Plug-In . SVG Version: 6.00 Build 0)  -->
<svg xmlns="http://www.w3.org/2000/svg" xmlns:xlink="http://www.w3.org/1999/xlink" version="1.1" id="Layer_1" x="0px" y="0px" viewBox="0 0 500 500" style="enable-background:new 0 0 500 500;" xml:space="preserve">
<circle style="fill:#90DFAA;" cx="250" cy="250" r="250"/>
<rect x="136.5" y="136.5" style="fill:#324A5E;" width="226.9" height="226.9"/>
<rect x="176.7" y="176.7" style="fill:#ACB3BA;" width="146.6" height="146.6"/>
<g>
	<rect x="151.3" y="93.7" style="fill:#324A5E;" width="11.1" height="21.2"/>
	<rect x="182.3" y="93.7" style="fill:#324A5E;" width="11.1" height="21.2"/>
	<rect x="213.4" y="93.7" style="fill:#324A5E;" width="11.1" height="21.2"/>
	<rect x="244.4" y="93.7" style="fill:#324A5E;" width="11.1" height="21.2"/>
	<rect x="275.5" y="93.7" style="fill:#324A5E;" width="11.1" height="21.2"/>
	<rect x="306.5" y="93.7" style="fill:#324A5E;" width="11.1" height="21.2"/>
	<rect x="337.6" y="93.7" style="fill:#324A5E;" width="11.1" height="21.2"/>
	<rect x="151.3" y="385" style="fill:#324A5E;" width="11.1" height="21.2"/>
	<rect x="182.3" y="385" style="fill:#324A5E;" width="11.1" height="21.2"/>
	<rect x="213.4" y="385" style="fill:#324A5E;" width="11.1" height="21.2"/>
	<rect x="244.4" y="385" style="fill:#324A5E;" width="11.1" height="21.2"/>
	<rect x="275.5" y="385" style="fill:#324A5E;" width="11.1" height="21.2"/>
	<rect x="306.5" y="385" style="fill:#324A5E;" width="11.1" height="21.2"/>
	<rect x="337.6" y="385" style="fill:#324A5E;" width="11.1" height="21.2"/>
	<rect x="385" y="151.3" style="fill:#324A5E;" width="21.2" height="11.1"/>
	<rect x="385" y="182.3" style="fill:#324A5E;" width="21.2" height="11.1"/>
	<rect x="385" y="213.4" style="fill:#324A5E;" width="21.2" height="11.1"/>
	<rect x="385" y="244.4" style="fill:#324A5E;" width="21.2" height="11.1"/>
	<rect x="385" y="275.5" style="fill:#324A5E;" width="21.2" height="11.1"/>
	<rect x="385" y="306.5" style="fill:#324A5E;" width="21.2" height="11.1"/>
	<rect x="385" y="337.6" style="fill:#324A5E;" width="21.2" height="11.1"/>
	<rect x="93.8" y="151.3" style="fill:#324A5E;" width="21.2" height="11.1"/>
	<rect x="93.8" y="182.3" style="fill:#324A5E;" width="21.2" height="11.1"/>
	<rect x="93.8" y="213.4" style="fill:#324A5E;" width="21.2" height="11.1"/>
	<rect x="93.8" y="244.4" style="fill:#324A5E;" width="21.2" height="11.1"/>
	<rect x="93.8" y="275.5" style="fill:#324A5E;" width="21.2" height="11.1"/>
	<rect x="93.8" y="306.5" style="fill:#324A5E;" width="21.2" height="11.1"/>
	<rect x="93.8" y="337.6" style="fill:#324A5E;" width="21.2" height="11.1"/>
</g>
<g>
</g>
<g>
</g>
<g>
</g>
<g>
</g>
<g>
</g>
<g>
</g>
<g>
</g>
<g>
</g>
<g>
</g>
<g>
</g>
<g>
</g>
<g>
</g>
<g>
</g>
<g>
</g>
<g>
</g>
</svg>
