<?xml version="1.0" encoding="iso-8859-1"?>
<!-- Generator: Adobe Illustrator 19.0.0, SVG Export Plug-In . SVG Version: 6.00 Build 0)  -->
<svg xmlns="http://www.w3.org/2000/svg" xmlns:xlink="http://www.w3.org/1999/xlink" version="1.1" id="Layer_1" x="0px" y="0px" viewBox="0 0 500 500" style="enable-background:new 0 0 500 500;" xml:space="preserve">
<circle style="fill:#FFD05B;" cx="250" cy="250" r="250"/>
<rect x="112.7" y="130.4" style="fill:#324A5E;" width="259.1" height="206.1"/>
<rect x="135.3" y="153.1" style="fill:#E6E9EE;" width="213.7" height="160.8"/>
<polygon style="fill:#2B3B4E;" points="387.4,385.1 97,385.1 85.9,349.5 398.4,349.5 "/>
<rect x="203.5" y="359.2" style="fill:#E6E9EE;" width="77.3" height="8.5"/>
<path style="fill:#4CDBC4;" d="M280.8,161c-32.7,0-59.2,26.5-59.2,59.2s26.5,59.2,59.2,59.2s59.2-26.5,59.2-59.2  S313.5,161,280.8,161z M291.3,255.2c-3.5,8-7.6,12.4-10.5,12.4s-7-4.5-10.5-12.4H291.3z M266.5,243.5c-1.2-5.1-2.1-11-2.5-17.5h33.6  c-0.3,6.5-1.2,12.3-2.5,17.5H266.5z M264,214.3c0.3-6.5,1.2-12.3,2.5-17.5h28.7c1.2,5.1,2.1,11,2.5,17.5H264z M270.4,185.2  c3.5-8,7.6-12.4,10.5-12.4s7,4.5,10.5,12.4H270.4z M303.9,185.2c-1.1-2.9-2.2-5.7-3.5-8.2c4.5,2.1,8.7,4.8,12.3,8.2H303.9z   M257.8,185.2H249c3.6-3.3,7.8-6.1,12.3-8.2C260,179.5,258.8,182.2,257.8,185.2z M239.5,196.9h14.9c-1.1,5.5-1.9,11.3-2.2,17.5  h-18.5C234.6,208.1,236.6,202.2,239.5,196.9z M252.3,226.1c0.3,6.1,1,12,2.2,17.5h-14.9c-3-5.3-5-11.2-5.8-17.5H252.3z M257.8,255.2  c1.1,2.9,2.2,5.7,3.5,8.2c-4.5-2.1-8.7-4.8-12.3-8.2H257.8z M303.9,255.2h8.8c-3.6,3.3-7.8,6.1-12.3,8.2  C301.7,260.9,302.9,258.2,303.9,255.2z M307.2,243.5c1.1-5.5,1.9-11.3,2.2-17.5h18.5c-0.8,6.3-2.8,12.2-5.8,17.5H307.2z   M309.4,214.3c-0.3-6.1-1-12-2.2-17.5h14.9c3,5.3,5,11.2,5.8,17.5H309.4z"/>
<path style="fill:#FFFFFF;" d="M247.6,227.3c0.1-1,0.1-2,0.1-3c0-21.1-16.4-38.3-36.7-38.3s-36.7,17.1-36.7,38.3c0,1,0.1,2,0.1,3  c-17.9,2.5-31.7,18.5-31.7,37.9c0,21.1,16.4,38.3,36.7,38.3h63.2c20.3,0,36.7-17.1,36.7-38.3C279.3,245.8,265.5,229.8,247.6,227.3z"/>
<g>
</g>
<g>
</g>
<g>
</g>
<g>
</g>
<g>
</g>
<g>
</g>
<g>
</g>
<g>
</g>
<g>
</g>
<g>
</g>
<g>
</g>
<g>
</g>
<g>
</g>
<g>
</g>
<g>
</g>
</svg>
