<?xml version="1.0" encoding="iso-8859-1"?>
<!-- Generator: Adobe Illustrator 19.0.0, SVG Export Plug-In . SVG Version: 6.00 Build 0)  -->
<svg xmlns="http://www.w3.org/2000/svg" xmlns:xlink="http://www.w3.org/1999/xlink" version="1.1" id="Layer_1" x="0px" y="0px" viewBox="0 0 500 500" style="enable-background:new 0 0 500 500;" xml:space="preserve">
<circle style="fill:#FD8469;" cx="250" cy="250" r="250"/>
<rect x="120.5" y="130.4" style="fill:#324A5E;" width="259.1" height="206.1"/>
<rect x="143.1" y="153.1" style="fill:#E6E9EE;" width="213.7" height="160.8"/>
<g>
	<polygon style="fill:#324A5E;" points="395.2,385.1 104.8,385.1 93.7,349.5 406.3,349.5  "/>
	<polygon style="fill:#324A5E;" points="174.2,289.9 159.6,283.3 183.5,224.3 238.3,253.6 247.4,193.3 308.6,219.7 330.3,174    348.3,182 320.7,240.2 259.4,213.6 250,275.7 194.5,246  "/>
</g>
<circle style="fill:#2C9984;" cx="189.1" cy="237.5" r="15.3"/>
<circle style="fill:#4CDBC4;" cx="244.6" cy="266.3" r="19.5"/>
<circle style="fill:#FF7058;" cx="252.6" cy="203.9" r="18"/>
<circle style="fill:#54C0EB;" cx="311.6" cy="229.1" r="16.7"/>
<rect x="211.3" y="359.2" style="fill:#E6E9EE;" width="77.3" height="8.5"/>
<g>
</g>
<g>
</g>
<g>
</g>
<g>
</g>
<g>
</g>
<g>
</g>
<g>
</g>
<g>
</g>
<g>
</g>
<g>
</g>
<g>
</g>
<g>
</g>
<g>
</g>
<g>
</g>
<g>
</g>
</svg>
