<?xml version="1.0" encoding="iso-8859-1"?>
<!-- Generator: Adobe Illustrator 19.0.0, SVG Export Plug-In . SVG Version: 6.00 Build 0)  -->
<svg xmlns="http://www.w3.org/2000/svg" xmlns:xlink="http://www.w3.org/1999/xlink" version="1.1" id="Layer_1" x="0px" y="0px" viewBox="0 0 500 500" style="enable-background:new 0 0 500 500;" xml:space="preserve">
<circle style="fill:#FD8469;" cx="250" cy="250" r="250"/>
<path style="fill:#2B3B4E;" d="M149.5,331.5V376c0,5.3,4.3,9.7,9.7,9.7h220.7c5.3,0,9.7-4.3,9.7-9.7V213.4c0-5.3-4.3-9.7-9.7-9.7  H159.2c-5.3,0-9.7,4.3-9.7,9.7V258"/>
<g>
	<polyline style="fill:#324A5E;" points="149.5,258 87.4,215.7 87.4,373.8 149.5,331.5  "/>
	<ellipse style="fill:#324A5E;" cx="326.4" cy="169.9" rx="73.4" ry="73.6"/>
</g>
<g>
	<ellipse style="fill:#E6E9EE;" cx="326.4" cy="169.9" rx="22.9" ry="22.9"/>
	<ellipse style="fill:#E6E9EE;" cx="326.4" cy="122.8" rx="14.3" ry="14.3"/>
	<ellipse style="fill:#E6E9EE;" cx="326.4" cy="217.1" rx="14.3" ry="14.3"/>
	<ellipse style="fill:#E6E9EE;" cx="373.5" cy="169.9" rx="14.3" ry="14.3"/>
	<ellipse style="fill:#E6E9EE;" cx="279.3" cy="169.9" rx="14.3" ry="14.3"/>
</g>
<ellipse style="fill:#324A5E;" cx="196.8" cy="187.2" rx="58" ry="58.1"/>
<g>
	<ellipse style="fill:#E6E9EE;" cx="196.8" cy="187.2" rx="18" ry="18.1"/>
	<ellipse style="fill:#E6E9EE;" cx="196.8" cy="150" rx="11.3" ry="11.3"/>
	<ellipse style="fill:#E6E9EE;" cx="196.8" cy="224.4" rx="11.3" ry="11.3"/>
	<ellipse style="fill:#E6E9EE;" cx="234" cy="187.2" rx="11.3" ry="11.3"/>
	<ellipse style="fill:#E6E9EE;" cx="159.6" cy="187.2" rx="11.3" ry="11.3"/>
</g>
<g>
</g>
<g>
</g>
<g>
</g>
<g>
</g>
<g>
</g>
<g>
</g>
<g>
</g>
<g>
</g>
<g>
</g>
<g>
</g>
<g>
</g>
<g>
</g>
<g>
</g>
<g>
</g>
<g>
</g>
</svg>
