<?xml version="1.0" encoding="iso-8859-1"?>
<!-- Generator: Adobe Illustrator 19.0.0, SVG Export Plug-In . SVG Version: 6.00 Build 0)  -->
<svg xmlns="http://www.w3.org/2000/svg" xmlns:xlink="http://www.w3.org/1999/xlink" version="1.1" id="Layer_1" x="0px" y="0px" viewBox="0 0 500 500" style="enable-background:new 0 0 500 500;" xml:space="preserve">
<circle style="fill:#FD8469;" cx="250" cy="250" r="250"/>
<g>
	<path style="fill:#E6E9EE;" d="M225,205c-15,0-28.7-7.7-36.5-20.5c-12.2-20.1-5.8-46.4,14.2-58.6c6.7-4.1,14.4-6.2,22.2-6.2   c15,0,28.7,7.7,36.5,20.5c12.2,20.1,5.8,46.4-14.2,58.6C240.5,202.9,232.8,205,225,205z M224.9,128.2c-6.2,0-12.4,1.7-17.7,5   c-16.1,9.8-21.2,30.8-11.4,46.9c6.2,10.3,17.2,16.4,29.2,16.4c6.2,0,12.4-1.7,17.7-5c16.1-9.8,21.2-30.8,11.4-46.9   C247.9,134.3,237,128.2,224.9,128.2z"/>
	<path style="fill:#E6E9EE;" d="M225,230.9c-24.2,0-46.1-12.3-58.6-32.9c-19.7-32.3-9.4-74.6,22.9-94.2c10.8-6.6,23.1-10,35.6-10   c24.2,0,46.1,12.3,58.6,32.9c19.7,32.3,9.4,74.6-22.9,94.2C249.9,227.5,237.6,230.9,225,230.9z M224.9,107.5c-10,0-19.9,2.8-28.5,8   c-25.8,15.7-34,49.6-18.3,75.4c10,16.5,27.6,26.3,46.9,26.3c10,0,19.9-2.8,28.5-8c25.8-15.7,34-49.6,18.3-75.4   C261.8,117.3,244.2,107.5,224.9,107.5z"/>
</g>
<path style="fill:#FFD05B;" d="M327.3,258.2c-10-0.8-18.3,7.1-18.2,16.8l-0.2-15.9c-0.1-8.7-6.6-16.5-15.3-17.2  c-10-0.8-18.3,7.1-18.2,16.8l-0.2-15.9c-0.1-8.7-6.6-16.5-15.3-17.2c-10-0.8-18.3,7.1-18.2,16.8l-0.4-72  c-0.1-8.7-6.6-16.5-15.3-17.2c-10-0.8-18.3,7.1-18.2,16.8l0.9,82.4l0.4,35.6l-23.6-23.1c-5.9-5.8-15.3-7.2-22-2.4  c-8.7,6.3-9.3,18.5-2,25.6l0,0c34.7,29.5,56,71.8,59.2,117.2v0.7l113-1.2l-0.3-21.3c0-3.6,0.6-7.3,2-10.6l3.9-9.6  c2.8-6.8,4.2-14.2,4.1-21.6l-0.3-30.9l-0.6-30.1l-0.1-5.5C342.5,266.7,336,259,327.3,258.2z"/>
<g>
</g>
<g>
</g>
<g>
</g>
<g>
</g>
<g>
</g>
<g>
</g>
<g>
</g>
<g>
</g>
<g>
</g>
<g>
</g>
<g>
</g>
<g>
</g>
<g>
</g>
<g>
</g>
<g>
</g>
</svg>
