<?xml version="1.0" encoding="iso-8859-1"?>
<!-- Generator: Adobe Illustrator 19.0.0, SVG Export Plug-In . SVG Version: 6.00 Build 0)  -->
<svg xmlns="http://www.w3.org/2000/svg" xmlns:xlink="http://www.w3.org/1999/xlink" version="1.1" id="Layer_1" x="0px" y="0px" viewBox="0 0 500 500" style="enable-background:new 0 0 500 500;" xml:space="preserve">
<circle style="fill:#84DBFF;" cx="250" cy="250" r="250"/>
<rect x="100.3" y="100.3" style="fill:#324A5E;" width="299.4" height="299.4"/>
<rect x="122.7" y="168.8" style="fill:#FFFFFF;" width="254.5" height="210.9"/>
<rect x="122.7" y="125.2" style="fill:#F1543F;" width="27.7" height="18.7"/>
<rect x="163.7" y="125.2" style="fill:#FFFFFF;" width="27.7" height="18.7"/>
<rect x="204.6" y="125.2" style="fill:#FFD05B;" width="27.7" height="18.7"/>
<rect x="280.6" y="125.2" style="fill:#FFFFFF;" width="96.7" height="18.7"/>
<g>
	<path style="fill:#FF7058;" d="M189.8,197.1h9.3v41.8h-9.3l-19.9-26.2v26.2h-9.3v-41.8h8.7l20.5,26.9V197.1z"/>
	<path style="fill:#FF7058;" d="M239.6,197.1v8.3h-20.8v8.6h18.7v8h-18.7v8.7h21.5v8.3h-30.8v-41.8h30.1V197.1z"/>
	<path style="fill:#FF7058;" d="M261.6,221.1l7.4-24h9.7l7.4,24l8.3-24h10.1l-14.6,41.8H283l-9.2-29.1l-9.1,29.1h-6.9l-14.6-41.8   h10.1L261.6,221.1z"/>
	<path style="fill:#FF7058;" d="M319,205.4c-0.9,0.7-1.3,1.7-1.3,2.9s0.5,2.2,1.6,2.9s3.6,1.6,7.6,2.5c4,1,7,2.4,9.2,4.4   s3.3,4.8,3.3,8.6c0,3.7-1.4,6.8-4.2,9.1c-2.8,2.3-6.5,3.5-11.1,3.5c-6.6,0-12.6-2.4-17.9-7.4l5.6-6.8c4.5,3.9,8.7,5.9,12.5,5.9   c1.7,0,3.1-0.4,4-1.1c1-0.7,1.5-1.7,1.5-3s-0.5-2.3-1.6-3c-1-0.7-3.1-1.5-6.2-2.2c-4.9-1.2-8.4-2.7-10.7-4.5   c-2.3-1.9-3.4-4.8-3.4-8.7c0-4,1.4-7,4.3-9.2s6.4-3.2,10.7-3.2c2.8,0,5.6,0.5,8.4,1.4c2.8,1,5.2,2.3,7.3,4.1l-4.7,6.8   c-3.6-2.7-7.4-4.1-11.2-4.1C321.1,204.3,319.9,204.7,319,205.4z"/>
</g>
<circle style="fill:#CED5E0;" cx="244" cy="287.6" r="38.2"/>
<polygon style="fill:#324A5E;" points="319.9,318.3 252.2,295.8 274.7,363.5 283.5,341.9 304.9,363.3 319.7,348.5 298.2,327.1 "/>
<g>
</g>
<g>
</g>
<g>
</g>
<g>
</g>
<g>
</g>
<g>
</g>
<g>
</g>
<g>
</g>
<g>
</g>
<g>
</g>
<g>
</g>
<g>
</g>
<g>
</g>
<g>
</g>
<g>
</g>
</svg>
