<?xml version="1.0" encoding="iso-8859-1"?>
<!-- Generator: Adobe Illustrator 19.0.0, SVG Export Plug-In . SVG Version: 6.00 Build 0)  -->
<svg xmlns="http://www.w3.org/2000/svg" xmlns:xlink="http://www.w3.org/1999/xlink" version="1.1" id="Layer_1" x="0px" y="0px" viewBox="0 0 500 500" style="enable-background:new 0 0 500 500;" xml:space="preserve">
<circle style="fill:#324A5E;" cx="250" cy="250" r="250"/>
<path style="fill:#84DBFF;" d="M302.5,307.9l-12.4,16.5c-2.8,3.7-7.8,4.9-11.8,2.7c-47.3-24.9-86-64-110.4-111.6  c-2.2-4.4-0.6-9.7,3.6-12.3l24.4-14.7c2.8-1.7,4.6-4.8,4.6-8.1V107c0-5.2-4.2-9.4-9.4-9.4H95.6c-5.3,0-9.6,4.3-9.5,9.6  c5,165,137.9,297.9,302.9,302.9c5.3,0.2,9.6-4.2,9.6-9.5v-87.2c0-5.2-4.2-9.4-9.4-9.4h-78.9C307.1,304.1,304.3,305.5,302.5,307.9z"/>
<polygon style="fill:#FF7058;" points="327.2,148.8 327.2,97.7 276.1,97.7 287.7,109.3 246.5,150.5 274.4,178.4 315.6,137.1 "/>
<polygon style="fill:#F9B54C;" points="317.7,170.6 317.7,221.7 368.8,221.7 357.2,210.1 398.4,168.9 370.6,141 329.4,182.2 "/>
<g>
</g>
<g>
</g>
<g>
</g>
<g>
</g>
<g>
</g>
<g>
</g>
<g>
</g>
<g>
</g>
<g>
</g>
<g>
</g>
<g>
</g>
<g>
</g>
<g>
</g>
<g>
</g>
<g>
</g>
</svg>
