<?xml version="1.0" encoding="iso-8859-1"?>
<!-- Generator: Adobe Illustrator 19.0.0, SVG Export Plug-In . SVG Version: 6.00 Build 0)  -->
<svg xmlns="http://www.w3.org/2000/svg" xmlns:xlink="http://www.w3.org/1999/xlink" version="1.1" id="Layer_1" x="0px" y="0px" viewBox="0 0 500 500" style="enable-background:new 0 0 500 500;" xml:space="preserve">
<circle style="fill:#90DFAA;" cx="250" cy="250" r="250"/>
<path style="fill:#324A5E;" d="M303.4,272.4l-20.7-20.7c21.1-35.1,16.7-81.2-13.6-111.5c-35.6-35.6-93.3-35.6-128.9,0  s-35.6,93.3,0,128.9c30.2,30.2,76.4,34.7,111.5,13.6l20.7,20.7L303.4,272.4z"/>
<circle style="fill:#FFFFFF;" cx="204.7" cy="204.7" r="72.1"/>
<path style="fill:#2B3B4E;" d="M266.2,309.7l66.6,66.6c12,12,31.5,12,43.5,0l0,0c12-12,12-31.5,0-43.5l-66.6-66.6L266.2,309.7z"/>
<g>
	<path style="fill:#FF7058;" d="M159,206.6l4.6-15h6.1l4.6,15l5.2-15h6.3l-9.1,26.1h-4.3l-5.7-18.1l-5.7,18.1h-4.3l-9.1-26.1h6.3   L159,206.6z"/>
	<path style="fill:#FF7058;" d="M197,206.6l4.6-15h6.1l4.6,15l5.2-15h6.3l-9.1,26.1h-4.3l-5.7-18.1l-5.7,18.1h-4.3l-9.1-26.1h6.3   L197,206.6z"/>
	<path style="fill:#FF7058;" d="M235,206.6l4.6-15h6.1l4.6,15l5.2-15h6.3l-9.1,26.1h-4.3l-5.7-18.1l-5.7,18.1h-4.3l-9.1-26.1h6.3   L235,206.6z"/>
</g>
<g>
</g>
<g>
</g>
<g>
</g>
<g>
</g>
<g>
</g>
<g>
</g>
<g>
</g>
<g>
</g>
<g>
</g>
<g>
</g>
<g>
</g>
<g>
</g>
<g>
</g>
<g>
</g>
<g>
</g>
</svg>
