<?xml version="1.0" encoding="iso-8859-1"?>
<!-- Generator: Adobe Illustrator 19.0.0, SVG Export Plug-In . SVG Version: 6.00 Build 0)  -->
<svg xmlns="http://www.w3.org/2000/svg" xmlns:xlink="http://www.w3.org/1999/xlink" version="1.1" id="Layer_1" x="0px" y="0px" viewBox="0 0 500 500" style="enable-background:new 0 0 500 500;" xml:space="preserve">
<circle style="fill:#324A5E;" cx="250" cy="250" r="250"/>
<path style="fill:#F1543F;" d="M291.7,325.4v-36.3h-16.3c-2.2-9.9-6.1-19.2-11.4-27.5l11.5-11.5l-25.7-25.7L238.4,236  c-8.3-5.3-17.6-9.2-27.5-11.4v-16.3h-36.3v16.3c-9.9,2.2-19.2,6.1-27.5,11.4l-11.5-11.5l-25.7,25.7l11.5,11.5  c-5.3,8.3-9.2,17.6-11.4,27.5H93.8v36.3H110c2.2,9.9,6.1,19.2,11.4,27.5l-11.5,11.5l25.7,25.7l11.5-11.5c8.3,5.3,17.6,9.2,27.5,11.4  v16.3h36.3V390c9.9-2.2,19.2-6.1,27.5-11.4l11.5,11.5l25.7-25.7L264,352.9c5.3-8.3,9.2-17.6,11.4-27.5H291.7z M192.7,363.6  c-31.1,0-56.3-25.2-56.3-56.3s25.2-56.3,56.3-56.3s56.3,25.2,56.3,56.3S223.8,363.6,192.7,363.6z"/>
<path style="fill:#F9B54C;" d="M406.3,161.2l-9.1-27.2l-12.2,4.1c-4.1-6.9-9.3-12.8-15.4-17.7l5.7-11.5l-25.6-12.8l-5.7,11.5  c-7.5-1.9-15.4-2.5-23.4-1.7l-4.1-12.2l-27.2,9.1l4.1,12.2c-6.9,4.1-12.8,9.3-17.7,15.4l-11.5-5.7l-12.8,25.6l11.5,5.7  c-1.9,7.5-2.5,15.4-1.7,23.4l-12.2,4.1l9.1,27.2l12.2-4.1c4.1,6.9,9.3,12.8,15.4,17.7l-5.7,11.5l25.6,12.8l5.7-11.5  c7.5,1.9,15.4,2.5,23.4,1.7l4.1,12.2l27.2-9.1l-4.1-12.2c6.9-4.1,12.8-9.3,17.7-15.4l11.5,5.7l12.8-25.6l-11.5-5.7  c1.9-7.5,2.5-15.4,1.7-23.4L406.3,161.2z M341.8,214.6c-23.3,7.8-48.5-4.8-56.3-28.1s4.8-48.5,28.1-56.3  c23.3-7.8,48.5,4.8,56.3,28.1C377.7,181.6,365.1,206.8,341.8,214.6z"/>
<g>
	<polygon style="fill:#E6E9EE;" points="109.4,154.7 93.8,154.7 93.8,93.8 146.2,93.8 146.2,109.4 109.4,109.4  "/>
	<polygon style="fill:#E6E9EE;" points="406.3,406.3 353.8,406.3 353.8,390.6 390.6,390.6 390.6,345.3 406.3,345.3  "/>
</g>
<g>
</g>
<g>
</g>
<g>
</g>
<g>
</g>
<g>
</g>
<g>
</g>
<g>
</g>
<g>
</g>
<g>
</g>
<g>
</g>
<g>
</g>
<g>
</g>
<g>
</g>
<g>
</g>
<g>
</g>
</svg>
