<?xml version="1.0" encoding="iso-8859-1"?>
<!-- Generator: Adobe Illustrator 19.0.0, SVG Export Plug-In . SVG Version: 6.00 Build 0)  -->
<svg xmlns="http://www.w3.org/2000/svg" xmlns:xlink="http://www.w3.org/1999/xlink" version="1.1" id="Layer_1" x="0px" y="0px" viewBox="0 0 500 500" style="enable-background:new 0 0 500 500;" xml:space="preserve">
<circle style="fill:#FD8469;" cx="250" cy="250" r="250"/>
<path style="fill:#2B3B4E;" d="M215.3,144l-62-59.6c-2.3-2.3-2.4-6-0.2-8.3l0,0c2.2-2.4,5.9-2.4,8.3-0.2l53.9,51.8l53.9-51.8  c2.3-2.3,6-2.2,8.3,0.2l0,0c2.2,2.4,2.1,6.1-0.2,8.3L215.3,144z"/>
<path style="fill:#324A5E;" d="M93.8,142.9v232.2c0,6.4,5.1,11.6,11.5,11.6H337V131.3H105.2C98.9,131.3,93.8,136.5,93.8,142.9z"/>
<path style="fill:#E6E9EE;" d="M117.6,352.1V166c0-6.1,4.9-11,11-11h173.5c6.1,0,11,4.9,11,11v186.1c0,6.1-4.9,11-11,11H128.6  C122.5,363.1,117.6,358.2,117.6,352.1z"/>
<path style="fill:#2B3B4E;" d="M394.8,131.3H337v255.4h57.8c6.3,0,11.5-5.2,11.5-11.6V142.9C406.3,136.5,401.1,131.3,394.8,131.3z"/>
<rect x="359.2" y="154.9" style="fill:#FF7058;" width="24.7" height="13.8"/>
<rect x="359.2" y="183.8" style="fill:#2C9984;" width="24.7" height="13.8"/>
<rect x="359.2" y="212.7" style="fill:#F9B54C;" width="24.7" height="13.8"/>
<g>
	<ellipse style="fill:#FFFFFF;" cx="371.6" cy="343.3" rx="19.7" ry="19.8"/>
	<rect x="345" y="257.2" style="fill:#FFFFFF;" width="53.2" height="7.9"/>
	<rect x="345" y="275.9" style="fill:#FFFFFF;" width="53.2" height="7.9"/>
	<rect x="345" y="294.6" style="fill:#FFFFFF;" width="53.2" height="7.9"/>
</g>
<g>
</g>
<g>
</g>
<g>
</g>
<g>
</g>
<g>
</g>
<g>
</g>
<g>
</g>
<g>
</g>
<g>
</g>
<g>
</g>
<g>
</g>
<g>
</g>
<g>
</g>
<g>
</g>
<g>
</g>
</svg>
