<?xml version="1.0" encoding="iso-8859-1"?>
<!-- Generator: Adobe Illustrator 19.0.0, SVG Export Plug-In . SVG Version: 6.00 Build 0)  -->
<svg xmlns="http://www.w3.org/2000/svg" xmlns:xlink="http://www.w3.org/1999/xlink" version="1.1" id="Layer_1" x="0px" y="0px" viewBox="0 0 500 500" style="enable-background:new 0 0 500 500;" xml:space="preserve">
<circle style="fill:#54C0EB;" cx="250" cy="250" r="250"/>
<g>
	<polygon style="fill:#E6E9EE;" points="351.5,376.3 294.5,358.9 294.5,289.4 351.5,341.4  "/>
	<polygon style="fill:#E6E9EE;" points="148.5,376.3 205.5,358.9 205.5,289.4 148.5,341.4  "/>
</g>
<path style="fill:#FF7058;" d="M250,48.3c-24.5,24.5-43.2,52.7-56.1,82.7h112.2C293.2,101,274.5,72.8,250,48.3z"/>
<path style="fill:#FFFFFF;" d="M291.3,370.9c43.1-73.3,48-162.8,14.8-239.9H193.9c-33.2,77-28.2,166.5,14.8,239.9H291.3z"/>
<path style="fill:#FFD05B;" d="M305.5,408.3c-7.6-18.1-20.6-30.5-35.2-37.4h-40.5c-14.6,6.9-27.6,19.3-35.2,37.4  c5.5-2.7,13.8-2.5,23.5,0.6c-2.3,14.1-4.5,28.4-6.6,42.8c11.1-15,24.8-25.5,38.5-31.5c13.7,6,27.4,16.5,38.5,31.5  c-2.1-14.4-4.3-28.7-6.6-42.8C291.6,405.7,299.9,405.5,305.5,408.3z"/>
<path style="fill:#F9B54C;" d="M277.4,389.3c-3.8-8.9-10.2-15.1-17.4-18.5h-20c-7.2,3.4-13.6,9.6-17.4,18.5  c2.7-1.3,6.8-1.2,11.6,0.3c-1.1,7-2.2,14-3.3,21.2c5.5-7.4,12.3-12.6,19-15.5c6.8,3,13.6,8.2,19,15.5c-1-7.1-2.1-14.2-3.3-21.2  C270.6,388.1,274.7,388,277.4,389.3z"/>
<circle style="fill:#2C9984;" cx="250" cy="192.7" r="33.3"/>
<circle style="fill:#ACB3BA;" cx="250" cy="284.3" r="25.6"/>
<g>
</g>
<g>
</g>
<g>
</g>
<g>
</g>
<g>
</g>
<g>
</g>
<g>
</g>
<g>
</g>
<g>
</g>
<g>
</g>
<g>
</g>
<g>
</g>
<g>
</g>
<g>
</g>
<g>
</g>
</svg>
