<?xml version="1.0" encoding="iso-8859-1"?>
<!-- Generator: Adobe Illustrator 19.0.0, SVG Export Plug-In . SVG Version: 6.00 Build 0)  -->
<svg xmlns="http://www.w3.org/2000/svg" xmlns:xlink="http://www.w3.org/1999/xlink" version="1.1" id="Layer_1" x="0px" y="0px" viewBox="0 0 500 500" style="enable-background:new 0 0 500 500;" xml:space="preserve">
<circle style="fill:#FFD05B;" cx="250" cy="250" r="250"/>
<path style="fill:#324A5E;" d="M365.5,406.3H139c-1.4,0-2.5-1.1-2.5-2.5V96.3c0-1.4,1.1-2.5,2.5-2.5h226.5c1.4,0,2.5,1.1,2.5,2.5  v307.5C368.1,405.1,366.9,406.3,365.5,406.3z"/>
<rect x="163.9" y="121.1" style="fill:#E6E9EE;" width="176.7" height="217.2"/>
<circle style="fill:#2B3B4E;" cx="252.4" cy="372.3" r="16.6"/>
<path style="fill:#4CDBC4;" d="M204.7,384.3H167c-1.7,0-3.1-1.4-3.1-3.1v-17.9c0-1.7,1.4-3.1,3.1-3.1h37.7c1.7,0,3.1,1.4,3.1,3.1  v17.9C207.8,382.9,206.4,384.3,204.7,384.3z"/>
<path style="fill:#FF7058;" d="M337.6,384.3h-37.7c-1.7,0-3.1-1.4-3.1-3.1v-17.9c0-1.7,1.4-3.1,3.1-3.1h37.7c1.7,0,3.1,1.4,3.1,3.1  v17.9C340.7,382.9,339.3,384.3,337.6,384.3z"/>
<g>
</g>
<g>
</g>
<g>
</g>
<g>
</g>
<g>
</g>
<g>
</g>
<g>
</g>
<g>
</g>
<g>
</g>
<g>
</g>
<g>
</g>
<g>
</g>
<g>
</g>
<g>
</g>
<g>
</g>
</svg>
