<?xml version="1.0" encoding="iso-8859-1"?>
<!-- Generator: Adobe Illustrator 19.0.0, SVG Export Plug-In . SVG Version: 6.00 Build 0)  -->
<svg xmlns="http://www.w3.org/2000/svg" xmlns:xlink="http://www.w3.org/1999/xlink" version="1.1" id="Layer_1" x="0px" y="0px" viewBox="0 0 500 500" style="enable-background:new 0 0 500 500;" xml:space="preserve">
<circle style="fill:#84DBFF;" cx="250" cy="250" r="250"/>
<path style="fill:#324A5E;" d="M351,406.3H149c-1.5,0-2.7-1.2-2.7-2.7v-307c0-1.5,1.2-2.7,2.7-2.7h202c1.5,0,2.7,1.2,2.7,2.7v307  C353.8,405,352.6,406.3,351,406.3z"/>
<rect x="173.6" y="121.1" style="fill:#FFFFFF;" width="152.9" height="153.6"/>
<circle style="fill:#E6E9EE;" cx="250" cy="340.5" r="49"/>
<path style="fill:#F9B54C;" d="M225.3,335c2.1-9.5,9.6-17,19.2-19.2v-15.4c-17.9,2.4-32.1,16.6-34.6,34.6H225.3z"/>
<path style="fill:#F1543F;" d="M255.5,315.8c9.5,2.1,17,9.6,19.2,19.2h15.4c-2.4-17.9-16.6-32.1-34.6-34.6V315.8z"/>
<path style="fill:#2C9984;" d="M244.5,365.1c-9.5-2.1-17-9.6-19.2-19.2h-15.4c2.4,17.9,16.6,32.1,34.6,34.6V365.1z"/>
<path style="fill:#54C0EB;" d="M274.7,346c-2.1,9.5-9.6,17-19.2,19.2v15.4c17.9-2.4,32.1-16.6,34.6-34.6H274.7z"/>
<circle style="fill:#FF7058;" cx="250" cy="197.9" r="39.8"/>
<polygon style="fill:#FFFFFF;" points="239.3,175.2 239.3,220.6 273.1,197.9 "/>
<g>
</g>
<g>
</g>
<g>
</g>
<g>
</g>
<g>
</g>
<g>
</g>
<g>
</g>
<g>
</g>
<g>
</g>
<g>
</g>
<g>
</g>
<g>
</g>
<g>
</g>
<g>
</g>
<g>
</g>
</svg>
