<?xml version="1.0" encoding="iso-8859-1"?>
<!-- Generator: Adobe Illustrator 19.0.0, SVG Export Plug-In . SVG Version: 6.00 Build 0)  -->
<svg xmlns="http://www.w3.org/2000/svg" xmlns:xlink="http://www.w3.org/1999/xlink" version="1.1" id="Layer_1" x="0px" y="0px" viewBox="0 0 500 500" style="enable-background:new 0 0 500 500;" xml:space="preserve">
<circle style="fill:#324A5E;" cx="250" cy="250" r="250"/>
<rect x="138.5" y="192.6" style="fill:#ACB3BA;" width="223" height="33.4"/>
<path style="fill:#E6E9EE;" d="M326.8,367.2H173.2c-10.4,0-19.1-7.8-20.3-18.1L138.5,226h223l-14.4,123.1  C345.9,359.5,337.1,367.2,326.8,367.2z"/>
<rect x="209.5" y="367.2" style="fill:#F1543F;" width="81" height="25.8"/>
<rect x="221.1" y="393" style="fill:#F9B54C;" width="57.8" height="25.8"/>
<g>
	<path style="fill:#ACB3BA;" d="M178.3,244c-4.2,0-7.6,3.4-7.6,7.6v90.1c0,4.2,3.4,7.6,7.6,7.6c4.2,0,7.6-3.4,7.6-7.6v-90.1   C185.9,247.4,182.5,244,178.3,244z"/>
	<path style="fill:#ACB3BA;" d="M214.1,244c-4.2,0-7.6,3.4-7.6,7.6v90.1c0,4.2,3.4,7.6,7.6,7.6s7.6-3.4,7.6-7.6v-90.1   C221.7,247.4,218.3,244,214.1,244z"/>
	<path style="fill:#ACB3BA;" d="M250,244c-4.2,0-7.6,3.4-7.6,7.6v90.1c0,4.2,3.4,7.6,7.6,7.6s7.6-3.4,7.6-7.6v-90.1   C257.6,247.4,254.2,244,250,244z"/>
	<path style="fill:#ACB3BA;" d="M285.9,244L285.9,244c-4.2,0-7.6,3.4-7.6,7.6v90.1c0,4.2,3.4,7.6,7.6,7.6l0,0c4.2,0,7.6-3.4,7.6-7.6   v-90.1C293.4,247.4,290,244,285.9,244z"/>
	<path style="fill:#ACB3BA;" d="M321.7,244c-4.2,0-7.6,3.4-7.6,7.6v90.1c0,4.2,3.4,7.6,7.6,7.6s7.6-3.4,7.6-7.6v-90.1   C329.3,247.4,325.9,244,321.7,244z"/>
</g>
<g>
	<path style="fill:#F1543F;" d="M184.4,81.2c-6.8,0-12.3,5.5-12.3,12.3v99h24.6v-99C196.8,86.7,191.3,81.2,184.4,81.2z"/>
	<path style="fill:#F1543F;" d="M315.6,81.2c-6.8,0-12.3,5.5-12.3,12.3v99h24.6v-99C327.9,86.7,322.4,81.2,315.6,81.2z"/>
</g>
<g>
</g>
<g>
</g>
<g>
</g>
<g>
</g>
<g>
</g>
<g>
</g>
<g>
</g>
<g>
</g>
<g>
</g>
<g>
</g>
<g>
</g>
<g>
</g>
<g>
</g>
<g>
</g>
<g>
</g>
</svg>
