<?xml version="1.0" encoding="iso-8859-1"?>
<!-- Generator: Adobe Illustrator 19.0.0, SVG Export Plug-In . SVG Version: 6.00 Build 0)  -->
<svg xmlns="http://www.w3.org/2000/svg" xmlns:xlink="http://www.w3.org/1999/xlink" version="1.1" id="Layer_1" x="0px" y="0px" viewBox="0 0 500 500" style="enable-background:new 0 0 500 500;" xml:space="preserve">
<circle style="fill:#324A5E;" cx="250" cy="250" r="250"/>
<path style="fill:#ACB3BA;" d="M101.2,338.6c-16.3,16.9-15.9,43.9,1.1,60.2l0,0c16.9,16.3,43.9,15.9,60.2-1.1l6.5-6.7l-60.3-60.3  L101.2,338.6z"/>
<path style="fill:#E6E9EE;" d="M247.7,249.1c-11-10.6-18.6-23.5-23-37.5L108.8,330.8L169,391l117-120.3  C271.9,266.9,258.7,259.7,247.7,249.1z"/>
<path style="fill:#FF7058;" d="M410.8,244.8c-48.3,48.3-122.3,52.7-165.3,9.7s-38.6-117,9.7-165.3"/>
<path style="fill:#FFD05B;" d="M236.9,263.1c-3.9-3.9-10.3-3.9-14.2,0l-12,12c-3.9,3.9-3.9,10.3,0,14.2c3.9,3.9,10.3,3.9,14.2,0  l12-12C240.8,273.4,240.8,267,236.9,263.1z"/>
<path style="fill:#F9B54C;" d="M318.3,152.3c9.7-9.7,24-10.9,32.1-2.8c8.1,8.1,6.8,22.5-2.8,32.1"/>
<g>
	
		<rect x="355.017" y="131.98" transform="matrix(-0.7071 -0.7071 0.7071 -0.7071 515.5208 493.4954)" style="fill:#E6E9EE;" width="9.9" height="16"/>
	<rect x="362.6" y="164.7" style="fill:#E6E9EE;" width="16" height="9.9"/>
	<rect x="325.3" y="121.4" style="fill:#E6E9EE;" width="9.9" height="16"/>
</g>
<g>
</g>
<g>
</g>
<g>
</g>
<g>
</g>
<g>
</g>
<g>
</g>
<g>
</g>
<g>
</g>
<g>
</g>
<g>
</g>
<g>
</g>
<g>
</g>
<g>
</g>
<g>
</g>
<g>
</g>
</svg>
