<?xml version="1.0" encoding="iso-8859-1"?>
<!-- Generator: Adobe Illustrator 19.0.0, SVG Export Plug-In . SVG Version: 6.00 Build 0)  -->
<svg xmlns="http://www.w3.org/2000/svg" xmlns:xlink="http://www.w3.org/1999/xlink" version="1.1" id="Layer_1" x="0px" y="0px" viewBox="0 0 500 500" style="enable-background:new 0 0 500 500;" xml:space="preserve">
<circle style="fill:#90DFAA;" cx="250" cy="250" r="250"/>
<path style="fill:#2B3B4E;" d="M359.7,392.6L250,282.8L140.3,392.6c-5,5-1.5,13.6,5.6,13.6H354C361.2,406.3,364.7,397.6,359.7,392.6  z"/>
<ellipse style="fill:#324A5E;" cx="250" cy="224.3" rx="130.4" ry="130.5"/>
<ellipse style="fill:#FFFFFF;" cx="250" cy="224.3" rx="95" ry="95.1"/>
<ellipse style="fill:#ACB3BA;" cx="250" cy="224.3" rx="60" ry="60.1"/>
<path style="fill:#E6E9EE;" d="M244.2,177.5c-20.8,4.4-37.2,21.4-41.3,42.8c-1,5.5,3.3,10.5,8.9,10.5c4.3,0,8-3.1,8.8-7.3  c2.8-13.9,13.4-24.9,26.9-27.9c4.2-0.9,7.2-4.5,7.2-8.8v-0.5C254.8,180.8,249.7,176.3,244.2,177.5z"/>
<g>
</g>
<g>
</g>
<g>
</g>
<g>
</g>
<g>
</g>
<g>
</g>
<g>
</g>
<g>
</g>
<g>
</g>
<g>
</g>
<g>
</g>
<g>
</g>
<g>
</g>
<g>
</g>
<g>
</g>
</svg>
