<?xml version="1.0" encoding="iso-8859-1"?>
<!-- Generator: Adobe Illustrator 19.0.0, SVG Export Plug-In . SVG Version: 6.00 Build 0)  -->
<svg xmlns="http://www.w3.org/2000/svg" xmlns:xlink="http://www.w3.org/1999/xlink" version="1.1" id="Layer_1" x="0px" y="0px" viewBox="0 0 500 500" style="enable-background:new 0 0 500 500;" xml:space="preserve">
<circle style="fill:#84DBFF;" cx="250" cy="250" r="250"/>
<path style="fill:#F1543F;" d="M345,394.9H120.2c-1.7,0-3-1.4-3-3V100.7c0-1.7,1.4-3,3-3H345c1.7,0,3,1.4,3,3v291.2  C348.1,393.5,346.7,394.9,345,394.9z"/>
<rect x="143.2" y="123.7" style="fill:#FFFFFF;" width="178.9" height="217.3"/>
<circle style="fill:#E6E9EE;" cx="232.6" cy="367.9" r="20"/>
<g>
	<path style="fill:#CED5E0;" d="M248.7,253.7c-17.6,0-31.9-14.3-31.9-31.9s14.3-31.9,31.9-31.9s31.9,14.3,31.9,31.9   S266.3,253.7,248.7,253.7z M248.7,197.7c-13.3,0-24.1,10.8-24.1,24.1s10.8,24.1,24.1,24.1s24.1-10.8,24.1-24.1   S262,197.7,248.7,197.7z"/>
	<path style="fill:#CED5E0;" d="M248.7,275.3c-29.5,0-53.5-24-53.5-53.5s24-53.5,53.5-53.5s53.5,24,53.5,53.5   S278.2,275.3,248.7,275.3z M248.7,176.1c-25.2,0-45.7,20.5-45.7,45.7s20.5,45.7,45.7,45.7s45.7-20.5,45.7-45.7   S273.9,176.1,248.7,176.1z"/>
</g>
<path style="fill:#324A5E;" d="M353.5,235.4c-7.1,3.6-9.8,12.4-6,19.4L341,243c-3.7-6.8-12.2-9.9-19.1-6.3c-7.1,3.6-9.8,12.4-6,19.4  l-6.5-11.8c-3.7-6.8-12.2-9.9-19.1-6.3c-7.1,3.6-9.8,12.4-6,19.4L267,226c-3.7-6.8-12.2-9.9-19.1-6.3c-7.1,3.6-9.8,12.4-6,19.4  l33.6,61.2l14.5,26.4l-27-7.9c-7.4-2.2-15.6,1.7-18,9c-2.5,7.6,1.9,15.7,9.5,18l0,0c37.6,8.2,70.4,31.2,91,63.7  c0.2,0.4,0.4,0.6,0.4,0.6l83.9-46l-8.7-15.8c-1.5-2.7-2.4-5.7-2.8-8.8l-0.9-8.7c-0.7-6.2-2.6-12.2-5.6-17.7l-12.6-23l-24.3-44.3  l-2.2-4.1C368.8,234.9,360.4,231.9,353.5,235.4z"/>
<g>
</g>
<g>
</g>
<g>
</g>
<g>
</g>
<g>
</g>
<g>
</g>
<g>
</g>
<g>
</g>
<g>
</g>
<g>
</g>
<g>
</g>
<g>
</g>
<g>
</g>
<g>
</g>
<g>
</g>
</svg>
