<?xml version="1.0" encoding="iso-8859-1"?>
<!-- Generator: Adobe Illustrator 19.0.0, SVG Export Plug-In . SVG Version: 6.00 Build 0)  -->
<svg xmlns="http://www.w3.org/2000/svg" xmlns:xlink="http://www.w3.org/1999/xlink" version="1.1" id="Layer_1" x="0px" y="0px" viewBox="0 0 500 500" style="enable-background:new 0 0 500 500;" xml:space="preserve">
<circle style="fill:#FD8469;" cx="250" cy="250" r="250"/>
<path style="fill:#324A5E;" d="M351.7,406.3H148.3c-1.2,0-2.1-1-2.1-2.1V95.9c0-1.2,1-2.1,2.1-2.1h203.3c1.2,0,2.1,1,2.1,2.1v308.2  C353.8,405.3,352.8,406.3,351.7,406.3z"/>
<rect x="173.6" y="121.1" style="fill:#E6E9EE;" width="152.9" height="153.6"/>
<circle style="fill:#2B3B4E;" cx="250" cy="340.5" r="23.7"/>
<rect x="184.1" y="210.5" style="fill:#FF7058;" width="11.7" height="49.8"/>
<rect x="184.1" y="185.1" style="fill:#F1543F;" width="11.7" height="16.4"/>
<rect x="205.9" y="162.7" style="fill:#2C9984;" width="11.7" height="16.4"/>
<rect x="229.8" y="186.3" style="fill:#ACB3BA;" width="11.7" height="16.4"/>
<rect x="253.7" y="162.7" style="fill:#F9B54C;" width="11.7" height="16.4"/>
<rect x="277.7" y="210.3" style="fill:#54C0EB;" width="11.7" height="16.4"/>
<rect x="301.6" y="167.6" style="fill:#F1543F;" width="11.7" height="16.4"/>
<rect x="205.9" y="188.1" style="fill:#4CDBC4;" width="11.7" height="72.3"/>
<rect x="229.8" y="211.7" style="fill:#CED5E0;" width="11.7" height="48.6"/>
<rect x="253.7" y="188.1" style="fill:#FFD05B;" width="11.7" height="72.3"/>
<rect x="277.7" y="235.7" style="fill:#84DBFF;" width="11.7" height="24.7"/>
<rect x="301.6" y="193" style="fill:#FF7058;" width="11.7" height="67.4"/>
<g>
	<path style="fill:#E6E9EE;" d="M220.1,333.8c2.6-11.6,11.7-20.7,23.3-23.3v-18.7c-21.8,3-39,20.2-42,42H220.1z"/>
	<path style="fill:#E6E9EE;" d="M256.7,310.5c11.6,2.6,20.7,11.7,23.3,23.3h18.7c-3-21.8-20.2-39-42-42V310.5z"/>
	<path style="fill:#E6E9EE;" d="M243.3,370.4c-11.6-2.6-20.7-11.7-23.3-23.3h-18.7c3,21.8,20.2,39,42,42V370.4z"/>
	<path style="fill:#E6E9EE;" d="M279.9,347.1c-2.6,11.6-11.7,20.7-23.3,23.3v18.7c21.8-3,39-20.2,42-42H279.9z"/>
</g>
<polygon style="fill:#FFD05B;" points="245.8,328.1 245.8,352.8 262.1,340.5 "/>
<g>
</g>
<g>
</g>
<g>
</g>
<g>
</g>
<g>
</g>
<g>
</g>
<g>
</g>
<g>
</g>
<g>
</g>
<g>
</g>
<g>
</g>
<g>
</g>
<g>
</g>
<g>
</g>
<g>
</g>
</svg>
