<?xml version="1.0" encoding="iso-8859-1"?>
<!-- Generator: Adobe Illustrator 19.0.0, SVG Export Plug-In . SVG Version: 6.00 Build 0)  -->
<svg xmlns="http://www.w3.org/2000/svg" xmlns:xlink="http://www.w3.org/1999/xlink" version="1.1" id="Layer_1" x="0px" y="0px" viewBox="0 0 500 500" style="enable-background:new 0 0 500 500;" xml:space="preserve">
<circle style="fill:#90DFAA;" cx="250" cy="250" r="250"/>
<path style="fill:#324A5E;" d="M362.3,406.3H137.7c-1.3,0-2.3-1-2.3-2.3V96c0-1.3,1-2.3,2.3-2.3h224.6c1.3,0,2.3,1,2.3,2.3v308  C364.6,405.2,363.5,406.3,362.3,406.3z"/>
<rect x="135.5" y="121.1" style="fill:#E6E9EE;" width="229.1" height="222.9"/>
<g>
	<polygon style="fill:#FFD05B;" points="163.8,186.4 163.8,278.7 218.9,235.9  "/>
	<polygon style="fill:#FFD05B;" points="336.2,278.7 336.2,186.4 281.1,235.9  "/>
	<polygon style="fill:#FFD05B;" points="250,263.7 225.5,241.8 163.8,290.5 163.8,290.7 336.2,290.7 336.2,290.5 274.5,241.8  "/>
</g>
<polygon style="fill:#F9B54C;" points="281.1,235.9 336.2,186.4 336.2,174.6 274.5,229.9 267.9,235.9 250,251.9 232.1,235.9   225.5,229.9 163.8,174.6 163.8,186.4 218.9,235.9 163.8,278.7 163.8,290.5 225.5,241.8 250,263.7 274.5,241.8 336.2,290.5   336.2,278.7 "/>
<polygon style="fill:#FFD05B;" points="163.8,174.4 163.8,174.6 250,251.9 336.2,174.6 336.2,174.4 "/>
<circle style="fill:#FFFFFF;" cx="250" cy="375.1" r="21.3"/>
<g>
</g>
<g>
</g>
<g>
</g>
<g>
</g>
<g>
</g>
<g>
</g>
<g>
</g>
<g>
</g>
<g>
</g>
<g>
</g>
<g>
</g>
<g>
</g>
<g>
</g>
<g>
</g>
<g>
</g>
</svg>
