<?xml version="1.0" encoding="iso-8859-1"?>
<!-- Generator: Adobe Illustrator 19.0.0, SVG Export Plug-In . SVG Version: 6.00 Build 0)  -->
<svg xmlns="http://www.w3.org/2000/svg" xmlns:xlink="http://www.w3.org/1999/xlink" version="1.1" id="Layer_1" x="0px" y="0px" viewBox="0 0 500 500" style="enable-background:new 0 0 500 500;" xml:space="preserve">
<circle style="fill:#324A5E;" cx="250" cy="250" r="250"/>
<path style="fill:#CED5E0;" d="M422.7,124.6H303.2c-3.9,0-7,3.1-7,7v30.7h-37.9v44.8h37.9v30.7c0,3.9,3.1,7,7,7h119.5  c3.9,0,7-3.1,7-7V131.6C429.7,127.7,426.6,124.6,422.7,124.6z"/>
<path style="fill:#E6E9EE;" d="M254.3,406.3h-133c-2.3,0-4.1-1.8-4.1-4.1V97.8c0-2.3,1.8-4.1,4.1-4.1h133c2.3,0,4.1,1.8,4.1,4.1  v304.3C258.4,404.4,256.5,406.3,254.3,406.3z"/>
<circle style="fill:#CED5E0;" cx="187.8" cy="185.1" r="63.2"/>
<circle style="fill:#324A5E;" cx="187.8" cy="185.1" r="43"/>
<path style="fill:#ACB3BA;" d="M163,185.1h-0.4c-5.1,0-8.8-4.9-7.4-9.7c2.2-7.2,6.7-13.5,12.8-17.9c4.1-2.9,9.9-1,11.6,3.8l0.1,0.4  c1.1,3.3-0.2,6.7-3,8.8c-3,2.3-5.3,5.4-6.4,9C169.3,182.7,166.4,185.1,163,185.1z"/>
<g>
	<rect x="135" y="362.8" style="fill:#CED5E0;" width="105.5" height="18.8"/>
	<rect x="135" y="332.4" style="fill:#CED5E0;" width="105.5" height="18.8"/>
	<rect x="135" y="301.9" style="fill:#CED5E0;" width="105.5" height="18.8"/>
</g>
<rect x="315.8" y="144.1" style="fill:#54C0EB;" width="94.4" height="81.1"/>
<g>
</g>
<g>
</g>
<g>
</g>
<g>
</g>
<g>
</g>
<g>
</g>
<g>
</g>
<g>
</g>
<g>
</g>
<g>
</g>
<g>
</g>
<g>
</g>
<g>
</g>
<g>
</g>
<g>
</g>
</svg>
