<?xml version="1.0" encoding="iso-8859-1"?>
<!-- Generator: Adobe Illustrator 19.0.0, SVG Export Plug-In . SVG Version: 6.00 Build 0)  -->
<svg xmlns="http://www.w3.org/2000/svg" xmlns:xlink="http://www.w3.org/1999/xlink" version="1.1" id="Layer_1" x="0px" y="0px" viewBox="0 0 500 500" style="enable-background:new 0 0 500 500;" xml:space="preserve">
<circle style="fill:#84DBFF;" cx="250" cy="250" r="250"/>
<path style="fill:#F1543F;" d="M337.7,126.9H162.3c-3.8,0-6.8,3.1-6.8,6.8v265.7c0,3.8,3.1,6.8,6.8,6.8h175.4c3.8,0,6.8-3.1,6.8-6.8  V133.7C344.5,129.9,341.5,126.9,337.7,126.9z"/>
<rect x="178.9" y="150.3" style="fill:#FFFFFF;" width="142.2" height="232.5"/>
<path style="fill:#2B3B4E;" d="M278,126.9h-56V97.4c0-2,1.6-3.6,3.6-3.6h48.6c2,0,3.6,1.6,3.6,3.6v29.5H278z"/>
<g>
	<rect x="189.8" y="332.1" style="fill:#324A5E;" width="120.5" height="39.6"/>
	<rect x="189.8" y="282.6" style="fill:#324A5E;" width="120.5" height="39.6"/>
	<rect x="189.8" y="233.1" style="fill:#324A5E;" width="120.5" height="39.6"/>
</g>
<g>
</g>
<g>
</g>
<g>
</g>
<g>
</g>
<g>
</g>
<g>
</g>
<g>
</g>
<g>
</g>
<g>
</g>
<g>
</g>
<g>
</g>
<g>
</g>
<g>
</g>
<g>
</g>
<g>
</g>
</svg>
