<?xml version="1.0" encoding="iso-8859-1"?>
<!-- Generator: Adobe Illustrator 19.0.0, SVG Export Plug-In . SVG Version: 6.00 Build 0)  -->
<svg xmlns="http://www.w3.org/2000/svg" xmlns:xlink="http://www.w3.org/1999/xlink" version="1.1" id="Layer_1" x="0px" y="0px" viewBox="0 0 500 500" style="enable-background:new 0 0 500 500;" xml:space="preserve">
<circle style="fill:#90DFAA;" cx="250" cy="250" r="250"/>
<path style="fill:#324A5E;" d="M374.1,394.8V105.2c0-6.3-5.1-11.5-11.5-11.5H137.4c-6.3,0-11.5,5.1-11.5,11.5v289.5  c0,6.3,5.1,11.5,11.5,11.5h225.3C369,406.3,374.1,401.1,374.1,394.8z"/>
<rect x="153.2" y="121.1" style="fill:#E6E9EE;" width="193.5" height="224.7"/>
<circle style="fill:#FFFFFF;" cx="250" cy="376" r="18.3"/>
<g>
	<rect x="175.1" y="149" style="fill:#ACB3BA;" width="149.9" height="12.5"/>
	<rect x="175.1" y="188.1" style="fill:#ACB3BA;" width="149.9" height="12.5"/>
	<rect x="175.1" y="227.2" style="fill:#ACB3BA;" width="149.9" height="12.5"/>
	<rect x="175.1" y="266.3" style="fill:#ACB3BA;" width="149.9" height="12.5"/>
	<rect x="175.1" y="305.4" style="fill:#ACB3BA;" width="93.2" height="12.5"/>
</g>
<g>
</g>
<g>
</g>
<g>
</g>
<g>
</g>
<g>
</g>
<g>
</g>
<g>
</g>
<g>
</g>
<g>
</g>
<g>
</g>
<g>
</g>
<g>
</g>
<g>
</g>
<g>
</g>
<g>
</g>
</svg>
