<?xml version="1.0" encoding="iso-8859-1"?>
<!-- Generator: Adobe Illustrator 19.0.0, SVG Export Plug-In . SVG Version: 6.00 Build 0)  -->
<svg xmlns="http://www.w3.org/2000/svg" xmlns:xlink="http://www.w3.org/1999/xlink" version="1.1" id="Layer_1" x="0px" y="0px" viewBox="0 0 500 500" style="enable-background:new 0 0 500 500;" xml:space="preserve">
<circle style="fill:#90DFAA;" cx="250" cy="250" r="250"/>
<path style="fill:#F1543F;" d="M332.5,237.7h-165c-40.7,0-73.7,33-73.7,73.7s33,73.7,73.7,73.7c33.2,0,61.3-22,70.5-52.2h24  c9.2,30.2,37.3,52.2,70.5,52.2c40.7,0,73.7-33,73.7-73.7S373.2,237.7,332.5,237.7z"/>
<g>
	<circle style="fill:#E6E9EE;" cx="161.2" cy="280" r="16.1"/>
	<circle style="fill:#E6E9EE;" cx="161.2" cy="342.9" r="16.1"/>
	<circle style="fill:#E6E9EE;" cx="192.7" cy="311.4" r="16.1"/>
	<circle style="fill:#E6E9EE;" cx="129.8" cy="311.4" r="16.1"/>
</g>
<polygon style="fill:#FFD05B;" points="383.4,295.3 352,295.3 352,263.9 319.7,263.9 319.7,295.3 288.3,295.3 288.3,327.6   319.7,327.6 319.7,359 352,359 352,327.6 383.4,327.6 "/>
<g>
	<path style="fill:#324A5E;" d="M273.4,281.9h-46.7c-0.4,0-0.7-0.3-0.7-0.7v-22.5c0-0.4,0.3-0.7,0.7-0.7h46.7c0.4,0,0.7,0.3,0.7,0.7   v22.5C274,281.6,273.7,281.9,273.4,281.9z"/>
	<path style="fill:#324A5E;" d="M261.7,237.7h-23.4c0-35.8,29.1-64.9,64.9-64.9H340c9,0,17.1-6.6,18-15.6c1-10.3-7.1-19-17.2-19   H154.3c-6.5,0-11.7-5.2-11.7-11.7l0,0c0-6.5,5.2-11.7,11.7-11.7h185.2c21.2,0,39.7,15.7,41.7,36.8c2.3,24.2-16.8,44.6-40.5,44.6   h-37.6C280.3,196.3,261.7,214.9,261.7,237.7z"/>
</g>
<g>
</g>
<g>
</g>
<g>
</g>
<g>
</g>
<g>
</g>
<g>
</g>
<g>
</g>
<g>
</g>
<g>
</g>
<g>
</g>
<g>
</g>
<g>
</g>
<g>
</g>
<g>
</g>
<g>
</g>
</svg>
