<?xml version="1.0" encoding="iso-8859-1"?>
<!-- Generator: Adobe Illustrator 19.0.0, SVG Export Plug-In . SVG Version: 6.00 Build 0)  -->
<svg xmlns="http://www.w3.org/2000/svg" xmlns:xlink="http://www.w3.org/1999/xlink" version="1.1" id="Layer_1" x="0px" y="0px" viewBox="0 0 500 500" style="enable-background:new 0 0 500 500;" xml:space="preserve">
<circle style="fill:#FFD05B;" cx="250" cy="250" r="250"/>
<rect x="162.6" y="93.8" style="fill:#E6E9EE;" width="174.8" height="238.4"/>
<g>
	<rect x="162.6" y="93.8" style="fill:#324A5E;" width="35.4" height="238.4"/>
	<rect x="302" y="93.8" style="fill:#324A5E;" width="35.4" height="238.4"/>
</g>
<ellipse style="fill:#F9B54C;" cx="250" cy="156.5" rx="40.7" ry="40.9"/>
<ellipse style="fill:#FFFFFF;" cx="250" cy="156.5" rx="26.3" ry="26.4"/>
<g>
	<rect x="209.9" y="228" style="fill:#FF7058;" width="80.1" height="17.3"/>
	<rect x="209.9" y="260.5" style="fill:#FF7058;" width="80.1" height="17.3"/>
	<rect x="209.9" y="293.1" style="fill:#FF7058;" width="80.1" height="17.3"/>
</g>
<path style="fill:#324A5E;" d="M93.8,364v11.8c0,5.3,4.3,9.7,9.6,9.7l0,0c7.5,0,12.1,8.2,8.2,14.7l-3.7,6.1h53.4l-3.7-6.1  c-3.9-6.4,0.7-14.7,8.2-14.7l0,0c5.3,0,9.6-4.3,9.6-9.7V364H93.8z"/>
<path style="fill:#2C9984;" d="M175.5,205.8c0-8.8-7.1-16-16-16h-49.8c-8.8,0-16,7.2-16,16V364h81.7V205.8H175.5z"/>
<ellipse style="fill:#E6E9EE;" cx="134.6" cy="235.3" rx="29" ry="29.1"/>
<ellipse style="fill:#F1543F;" cx="134.6" cy="235.3" rx="14.6" ry="14.7"/>
<ellipse style="fill:#E6E9EE;" cx="134.6" cy="326.3" rx="21.2" ry="21.3"/>
<ellipse style="fill:#54C0EB;" cx="134.6" cy="326.3" rx="10.7" ry="10.8"/>
<path style="fill:#2B3B4E;" d="M324.5,364v11.8c0,5.3,4.3,9.7,9.6,9.7l0,0c7.5,0,12.1,8.2,8.2,14.7l-3.7,6.1H392l-3.7-6.1  c-3.9-6.4,0.7-14.7,8.2-14.7l0,0c5.3,0,9.6-4.3,9.6-9.7V364H324.5z"/>
<path style="fill:#F1543F;" d="M406.3,205.8c0-8.8-7.1-16-16-16h-49.8c-8.8,0-16,7.2-16,16V364h81.7V205.8H406.3z"/>
<ellipse style="fill:#E6E9EE;" cx="365.4" cy="235.3" rx="29" ry="29.1"/>
<ellipse style="fill:#2C9984;" cx="365.4" cy="235.3" rx="14.6" ry="14.7"/>
<ellipse style="fill:#CED5E0;" cx="365.4" cy="326.3" rx="21.2" ry="21.3"/>
<ellipse style="fill:#324A5E;" cx="365.4" cy="326.3" rx="10.7" ry="10.8"/>
<g>
</g>
<g>
</g>
<g>
</g>
<g>
</g>
<g>
</g>
<g>
</g>
<g>
</g>
<g>
</g>
<g>
</g>
<g>
</g>
<g>
</g>
<g>
</g>
<g>
</g>
<g>
</g>
<g>
</g>
</svg>
