<?xml version="1.0" encoding="iso-8859-1"?>
<!-- Generator: Adobe Illustrator 19.0.0, SVG Export Plug-In . SVG Version: 6.00 Build 0)  -->
<svg xmlns="http://www.w3.org/2000/svg" xmlns:xlink="http://www.w3.org/1999/xlink" version="1.1" id="Layer_1" x="0px" y="0px" viewBox="0 0 500 500" style="enable-background:new 0 0 500 500;" xml:space="preserve">
<circle style="fill:#FD8469;" cx="250" cy="250" r="250"/>
<path style="fill:#FFFFFF;" d="M360.5,139.5c-61-61-160-61-221,0s-61,160,0,221s160,61,221,0S421.5,200.5,360.5,139.5z M266.8,266.8  c-9.3,9.3-24.4,9.3-33.7,0s-9.3-24.4,0-33.7s24.4-9.3,33.7,0C276.1,242.5,276.1,257.5,266.8,266.8z"/>
<path style="fill:#ACB3BA;" d="M289.2,210.8c-21.7-21.7-56.8-21.7-78.4,0c-21.7,21.7-21.7,56.8,0,78.4c21.7,21.7,56.8,21.7,78.4,0  C310.9,267.6,310.9,232.4,289.2,210.8z M266.8,266.8c-9.3,9.3-24.4,9.3-33.7,0s-9.3-24.4,0-33.7s24.4-9.3,33.7,0  C276.1,242.5,276.1,257.5,266.8,266.8z"/>
<path style="fill:#CED5E0;" d="M287.8,212.2c-20.8-20.8-54.7-20.8-75.5,0s-20.8,54.7,0,75.5c20.8,20.8,54.7,20.8,75.5,0  C308.6,266.9,308.6,233.1,287.8,212.2z M266.2,266.2c-9,9-23.5,9-32.4,0c-9-9-9-23.5,0-32.4s23.5-9,32.4,0  C275.2,242.7,275.2,257.3,266.2,266.2z"/>
<path style="fill:#ACB3BA;" d="M269.5,230.5c-10.8-10.8-28.2-10.8-39,0s-10.8,28.2,0,39s28.2,10.8,39,0  C280.2,258.7,280.2,241.3,269.5,230.5z M259.7,259.7c-5.4,5.4-14.1,5.4-19.5,0s-5.4-14.1,0-19.5s14.1-5.4,19.5,0  S265.1,254.4,259.7,259.7z"/>
<g>
	<path style="fill:#2C9984;" d="M198.9,301.1c-7.6-7.6-13.1-16.5-16.6-26l-62.9,23.3c6.8,18.3,17.4,35.4,32.1,50.1   s31.8,25.3,50.1,32.1l23.3-62.9C215.4,314.2,206.5,308.7,198.9,301.1z"/>
	<path style="fill:#2C9984;" d="M301.1,198.9c7.6,7.6,13.1,16.5,16.6,26l62.9-23.3c-6.8-18.3-17.4-35.4-32.1-50.1   c-14.7-14.7-31.8-25.3-50.1-32.1l-23.3,62.9C284.6,185.8,293.5,191.3,301.1,198.9z"/>
</g>
<g>
</g>
<g>
</g>
<g>
</g>
<g>
</g>
<g>
</g>
<g>
</g>
<g>
</g>
<g>
</g>
<g>
</g>
<g>
</g>
<g>
</g>
<g>
</g>
<g>
</g>
<g>
</g>
<g>
</g>
</svg>
