<?xml version="1.0" encoding="iso-8859-1"?>
<!-- Generator: Adobe Illustrator 19.0.0, SVG Export Plug-In . SVG Version: 6.00 Build 0)  -->
<svg xmlns="http://www.w3.org/2000/svg" xmlns:xlink="http://www.w3.org/1999/xlink" version="1.1" id="Layer_1" x="0px" y="0px" viewBox="0 0 500 500" style="enable-background:new 0 0 500 500;" xml:space="preserve">
<circle style="fill:#FD8469;" cx="250" cy="250" r="250"/>
<path style="fill:#54C0EB;" d="M396.3,157.9h-40.4c-3.4,0-6.4-2.1-7.6-5.2l-10.8-27.2c-1.2-3.1-4.3-5.2-7.6-5.2h-81.4  c-3.4,0-6.4,2.1-7.6,5.2L230,152.7c-1.2,3.1-4.3,5.2-7.6,5.2h-75.2c16.1,29.4,26,68.3,26,110.9s-9.8,81.5-26,110.9h249.1  c5.5,0,10-4.5,10-10v-202C406.2,162.3,401.8,157.9,396.3,157.9z"/>
<path style="fill:#324A5E;" d="M147.2,157.9h-43.5c-5.5,0-10,4.5-10,10v202c0,5.5,4.5,10,10,10h43.5c16.1-29.4,26-68.3,26-110.9  C173.2,226.2,163.3,187.3,147.2,157.9z"/>
<circle style="fill:#E6E9EE;" cx="294.8" cy="268.8" r="81.1"/>
<circle style="fill:#FFD05B;" cx="294.8" cy="268.8" r="61.1"/>
<path style="fill:#F9B54C;" d="M284.4,225.5c-16.5,4.1-29.5,17.7-33.2,34.9c-1.1,5.1,2.9,10,8.2,10c3.9,0,7.2-2.7,8.1-6.5  c2.4-10.7,10.5-19.1,20.8-21.6c3.7-0.9,6.4-4.2,6.4-8.1v-0.5C294.8,228.2,289.7,224.2,284.4,225.5z"/>
<path style="fill:#FFFFFF;" d="M207.8,172.3h-17.1c-5.4,0-9.8,4.4-9.8,9.8c0,5.4,4.4,9.8,9.8,9.8h17.1c5.4,0,9.8-4.4,9.8-9.8  S213.2,172.3,207.8,172.3z"/>
<path style="fill:#2B3B4E;" d="M164.9,150h-37.2v-16.6c0-0.9,0.7-1.6,1.6-1.6h34.1c0.9,0,1.6,0.7,1.6,1.6V150H164.9z"/>
<g>
</g>
<g>
</g>
<g>
</g>
<g>
</g>
<g>
</g>
<g>
</g>
<g>
</g>
<g>
</g>
<g>
</g>
<g>
</g>
<g>
</g>
<g>
</g>
<g>
</g>
<g>
</g>
<g>
</g>
</svg>
