<?xml version="1.0" encoding="iso-8859-1"?>
<!-- Generator: Adobe Illustrator 19.0.0, SVG Export Plug-In . SVG Version: 6.00 Build 0)  -->
<svg xmlns="http://www.w3.org/2000/svg" xmlns:xlink="http://www.w3.org/1999/xlink" version="1.1" id="Layer_1" x="0px" y="0px" viewBox="0 0 500 500" style="enable-background:new 0 0 500 500;" xml:space="preserve">
<circle style="fill:#FFD05B;" cx="250" cy="250" r="250"/>
<path style="fill:#324A5E;" d="M157.9,104.2v291.7c0,5.7,4.7,10.4,10.4,10.4h163.4c5.7,0,10.4-4.7,10.4-10.4V104.2  c0-5.7-4.7-10.4-10.4-10.4H168.3C162.6,93.7,157.9,98.4,157.9,104.2z"/>
<g>
	<path style="fill:#4CDBC4;" d="M190.4,390.5H184c-0.6,0-1.1-0.5-1.1-1.1v-52c0-0.6,0.5-1.1,1.1-1.1h6.4c0.6,0,1.1,0.5,1.1,1.1v52   C191.5,390,191,390.5,190.4,390.5z"/>
	<path style="fill:#4CDBC4;" d="M208.3,390.5h-6.4c-0.6,0-1.1-0.5-1.1-1.1v-52c0-0.6,0.5-1.1,1.1-1.1h6.4c0.6,0,1.1,0.5,1.1,1.1v52   C209.5,390,209,390.5,208.3,390.5z"/>
	<path style="fill:#4CDBC4;" d="M226.3,390.5h-6.4c-0.6,0-1.1-0.5-1.1-1.1v-52c0-0.6,0.5-1.1,1.1-1.1h6.4c0.6,0,1.1,0.5,1.1,1.1v52   C227.4,390,226.9,390.5,226.3,390.5z"/>
	<path style="fill:#4CDBC4;" d="M244.2,390.5h-6.4c-0.6,0-1.1-0.5-1.1-1.1v-52c0-0.6,0.5-1.1,1.1-1.1h6.4c0.6,0,1.1,0.5,1.1,1.1v52   C245.3,390,244.9,390.5,244.2,390.5z"/>
	<path style="fill:#4CDBC4;" d="M262.2,390.5h-6.4c-0.6,0-1.1-0.5-1.1-1.1v-52c0-0.6,0.5-1.1,1.1-1.1h6.4c0.6,0,1.1,0.5,1.1,1.1v52   C263.3,390,262.8,390.5,262.2,390.5z"/>
	<path style="fill:#4CDBC4;" d="M280.1,390.5h-6.4c-0.6,0-1.1-0.5-1.1-1.1v-52c0-0.6,0.5-1.1,1.1-1.1h6.4c0.6,0,1.1,0.5,1.1,1.1v52   C281.2,390,280.7,390.5,280.1,390.5z"/>
	<path style="fill:#4CDBC4;" d="M298.1,390.5h-6.4c-0.6,0-1.1-0.5-1.1-1.1v-52c0-0.6,0.5-1.1,1.1-1.1h6.4c0.6,0,1.1,0.5,1.1,1.1v52   C299.2,390,298.7,390.5,298.1,390.5z"/>
	<path style="fill:#4CDBC4;" d="M316,390.5h-6.4c-0.6,0-1.1-0.5-1.1-1.1v-52c0-0.6,0.5-1.1,1.1-1.1h6.4c0.6,0,1.1,0.5,1.1,1.1v52   C317.1,390,316.6,390.5,316,390.5z"/>
	<path style="fill:#4CDBC4;" d="M323.2,161.9H176.8c-0.5,0-0.9-0.4-0.9-0.9v-44.5c0-0.5,0.4-0.9,0.9-0.9h146.5   c0.5,0,0.9,0.4,0.9,0.9V161C324.1,161.5,323.7,161.9,323.2,161.9z"/>
	<path style="fill:#4CDBC4;" d="M323.2,226.5H176.8c-0.5,0-0.9-0.4-0.9-0.9v-44.5c0-0.5,0.4-0.9,0.9-0.9h146.5   c0.5,0,0.9,0.4,0.9,0.9v44.5C324.1,226.1,323.7,226.5,323.2,226.5z"/>
	<circle style="fill:#4CDBC4;" cx="250" cy="267.1" r="18.9"/>
	<circle style="fill:#4CDBC4;" cx="250" cy="306.5" r="8"/>
</g>
<g>
</g>
<g>
</g>
<g>
</g>
<g>
</g>
<g>
</g>
<g>
</g>
<g>
</g>
<g>
</g>
<g>
</g>
<g>
</g>
<g>
</g>
<g>
</g>
<g>
</g>
<g>
</g>
<g>
</g>
</svg>
