<?xml version="1.0" encoding="iso-8859-1"?>
<!-- Generator: Adobe Illustrator 19.0.0, SVG Export Plug-In . SVG Version: 6.00 Build 0)  -->
<svg xmlns="http://www.w3.org/2000/svg" xmlns:xlink="http://www.w3.org/1999/xlink" version="1.1" id="Layer_1" x="0px" y="0px" viewBox="0 0 500 500" style="enable-background:new 0 0 500 500;" xml:space="preserve">
<circle style="fill:#84DBFF;" cx="250" cy="250" r="250"/>
<path style="fill:#324A5E;" d="M372.6,127.4c-44.8-44.8-117.5-44.8-162.3,0c-38.2,38.2-43.7,96.5-16.9,140.6  c-0.9,0.9-1.9,1.6-2.9,2.5c-1.6,1.6-3.2,3.3-4.6,5c-10.2,12.2-22.1,22.8-35.8,30.9c-8.6,5-17.3,11.8-25.6,20  c-27.4,27.4-38.7,60.6-25.2,74.1s46.7,2.2,74.1-25.2c8.2-8.2,15-17,20-25.6c8.1-13.7,18.6-25.6,30.9-35.8c1.7-1.4,3.4-3,5-4.6  c0.9-0.9,1.7-1.9,2.5-2.9c44.2,26.8,102.5,21.3,140.6-16.9C417.5,244.8,417.5,172.2,372.6,127.4z"/>
<circle style="fill:#FFFFFF;" cx="291.3" cy="208.7" r="93.4"/>
<polygon style="fill:#324A5E;" points="246.7,252.1 235.7,247.9 257.3,190.7 307,211.5 337.4,168.6 347.9,173.8 312.5,226.6   264,206.2 "/>
<circle style="fill:#F1543F;" cx="238.3" cy="255.4" r="14.6"/>
<circle style="fill:#CED5E0;" cx="261.2" cy="199.5" r="14.6"/>
<circle style="fill:#4CDBC4;" cx="308.1" cy="219" r="14.6"/>
<circle style="fill:#2C9984;" cx="340.7" cy="171.1" r="14.6"/>
<path style="fill:#2B3B4E;" d="M192.7,292.8c-2.2-2.2-5.9-2.2-8.1,0L115,362.4c-2.2,2.2-2.2,5.9,0,8.1s5.9,2.2,8.1,0l69.6-69.6  C194.9,298.7,194.9,295.1,192.7,292.8z"/>
<g>
</g>
<g>
</g>
<g>
</g>
<g>
</g>
<g>
</g>
<g>
</g>
<g>
</g>
<g>
</g>
<g>
</g>
<g>
</g>
<g>
</g>
<g>
</g>
<g>
</g>
<g>
</g>
<g>
</g>
</svg>
