<?xml version="1.0" encoding="iso-8859-1"?>
<!-- Generator: Adobe Illustrator 19.0.0, SVG Export Plug-In . SVG Version: 6.00 Build 0)  -->
<svg xmlns="http://www.w3.org/2000/svg" xmlns:xlink="http://www.w3.org/1999/xlink" version="1.1" id="Layer_1" x="0px" y="0px" viewBox="0 0 500 500" style="enable-background:new 0 0 500 500;" xml:space="preserve">
<circle style="fill:#324A5E;" cx="250" cy="250" r="250"/>
<path style="fill:#4CDBC4;" d="M303.3,95.7H142.5c-5,0-9.1,4.1-9.1,9.1v294.3c0,5,4.1,9.1,9.1,9.1h214.9c5,0,9.1-4.1,9.1-9.1V159  c0-2.4-1-4.7-2.7-6.4l-54.2-54.2C308,96.7,305.7,95.7,303.3,95.7z"/>
<path style="fill:#F7A537;" d="M336.2,381.9H163.8c-1.7,0-3-1.4-3-3V247.5c0-1.7,1.4-3,3-3h172.4c1.7,0,3,1.4,3,3v131.3  C339.2,380.5,337.9,381.9,336.2,381.9z"/>
<polygon style="fill:#FFD05B;" points="339.2,273 263.4,273 263.4,244.5 251.7,244.5 251.7,307.3 211,307.3 211,265.7 160.8,265.7   160.8,277.4 199.3,277.4 199.3,349 160.8,349 160.8,360.7 211,360.7 211,319 263.4,319 263.4,284.7 288.5,284.7 288.5,340.3   230.4,340.3 230.4,381.9 242.1,381.9 242.1,352 288.5,352 288.5,381.9 300.2,381.9 300.2,284.7 339.2,284.7 "/>
<g>
</g>
<g>
</g>
<g>
</g>
<g>
</g>
<g>
</g>
<g>
</g>
<g>
</g>
<g>
</g>
<g>
</g>
<g>
</g>
<g>
</g>
<g>
</g>
<g>
</g>
<g>
</g>
<g>
</g>
</svg>
