<?xml version="1.0" encoding="iso-8859-1"?>
<!-- Generator: Adobe Illustrator 19.0.0, SVG Export Plug-In . SVG Version: 6.00 Build 0)  -->
<svg xmlns="http://www.w3.org/2000/svg" xmlns:xlink="http://www.w3.org/1999/xlink" version="1.1" id="Layer_1" x="0px" y="0px" viewBox="0 0 500 500" style="enable-background:new 0 0 500 500;" xml:space="preserve">
<circle style="fill:#90DFAA;" cx="250" cy="250" r="250"/>
<path style="fill:#F1543F;" d="M347.7,249.1c-10.1-0.4-19.6,3.2-26.9,10.3c-7.5,7.2-11.8,17.3-11.8,27.7V358  c0,15.1-12.3,27.4-27.4,27.4h-46.1c-15.1,0-27.4-12.3-27.4-27.4v-3.9h-22.8v3.9c0,27.7,22.5,50.2,50.2,50.2h46.1  c27.7,0,50.2-22.5,50.2-50.2v-70.7c0-4.4,1.9-8.5,5.1-11.5c3.3-3,7.6-4.4,12-3.9c7.8,0.8,14,7.9,14,16.3v87.4  c0,6.3,5.1,11.4,11.4,11.4s11.4-5.1,11.4-11.4v-88.3C385.5,287,385.1,250.6,347.7,249.1z"/>
<path style="fill:#324A5E;" d="M118.4,175.1v125.3c0,19.1,15.5,34.6,34.6,34.6h87.6c19.1,0,34.6-15.5,34.6-34.6V175.1H118.4z"/>
<rect x="139.5" y="95.7" style="fill:#E6E9EE;" width="114.5" height="79.4"/>
<g>
	<rect x="155.5" y="119.8" style="fill:#324A5E;" width="31.3" height="31.3"/>
	<rect x="206.7" y="119.8" style="fill:#324A5E;" width="31.3" height="31.3"/>
</g>
<rect x="169.2" y="335" style="fill:#2B3B4E;" width="55.1" height="23"/>
<g>
</g>
<g>
</g>
<g>
</g>
<g>
</g>
<g>
</g>
<g>
</g>
<g>
</g>
<g>
</g>
<g>
</g>
<g>
</g>
<g>
</g>
<g>
</g>
<g>
</g>
<g>
</g>
<g>
</g>
</svg>
