<?xml version="1.0" encoding="iso-8859-1"?>
<!-- Generator: Adobe Illustrator 19.0.0, SVG Export Plug-In . SVG Version: 6.00 Build 0)  -->
<svg xmlns="http://www.w3.org/2000/svg" xmlns:xlink="http://www.w3.org/1999/xlink" version="1.1" id="Layer_1" x="0px" y="0px" viewBox="0 0 500 500" style="enable-background:new 0 0 500 500;" xml:space="preserve">
<circle style="fill:#FF7058;" cx="250" cy="250" r="250"/>
<rect x="93.8" y="93.7" style="fill:#324A5E;" width="312.5" height="251"/>
<rect x="117.2" y="119.1" style="fill:#E6E9EE;" width="265.7" height="200.3"/>
<path style="fill:#2B3B4E;" d="M309.1,344.8L309.1,344.8H190.9l0,0c0,17-13.8,30.7-30.7,30.7h-2.5c-17,0-30.7,13.8-30.7,30.7l0,0  h246l0,0c0-17-13.8-30.7-30.7-30.7h-2.5C322.8,375.5,309.1,361.7,309.1,344.8z"/>
<rect x="141.6" y="140.7" style="fill:#F1543F;" width="216.8" height="34.4"/>
<rect x="141.6" y="186.1" style="fill:#ACB3BA;" width="99.8" height="34.4"/>
<rect x="258.6" y="186.1" style="fill:#F9B54C;" width="99.8" height="34.4"/>
<rect x="141.6" y="231.4" style="fill:#2C9984;" width="216.8" height="66.4"/>
<g>
</g>
<g>
</g>
<g>
</g>
<g>
</g>
<g>
</g>
<g>
</g>
<g>
</g>
<g>
</g>
<g>
</g>
<g>
</g>
<g>
</g>
<g>
</g>
<g>
</g>
<g>
</g>
<g>
</g>
</svg>
