<?xml version="1.0" encoding="iso-8859-1"?>
<!-- Generator: Adobe Illustrator 19.0.0, SVG Export Plug-In . SVG Version: 6.00 Build 0)  -->
<svg xmlns="http://www.w3.org/2000/svg" xmlns:xlink="http://www.w3.org/1999/xlink" version="1.1" id="Layer_1" x="0px" y="0px" viewBox="0 0 500 500" style="enable-background:new 0 0 500 500;" xml:space="preserve">
<circle style="fill:#90DFAA;" cx="250" cy="250" r="250"/>
<path style="fill:#2B3B4E;" d="M406.2,333h-26.6v-82.1c0-67.8-58.2-123-129.7-123s-129.7,55.2-129.7,123V333H93.7v-82.1  c0-81.7,70.1-148.2,156.3-148.2s156.2,66.5,156.2,148.2V333z"/>
<path style="fill:#F9B54C;" d="M93.7,330.3c0,33.4,27.3,60.4,61,60.4V269.9C121.1,269.9,93.7,296.9,93.7,330.3z"/>
<path style="fill:#F1543F;" d="M182.1,262.1h-20.5c-3.8,0-6.8,3-6.8,6.7v122.9c0,3.7,3,6.7,6.8,6.7h20.5c3.8,0,6.8-3,6.8-6.7V268.8  C188.9,265.1,185.8,262.1,182.1,262.1z"/>
<path style="fill:#324A5E;" d="M250,85.9c-53.8,0-101.9,23.5-133.6,60.2c-10.2,11.8-9.5,29.3,1.6,40.3l0,0  c12.3,12.2,32.7,11.7,43.9-1.6c20.7-24.5,52.5-40.2,88.2-40.2s67.5,15.7,88.2,40.2c11.2,13.2,31.6,13.7,43.9,1.6l0,0  c11.1-11,11.8-28.5,1.6-40.3C351.9,109.4,303.8,85.9,250,85.9z"/>
<path style="fill:#F9B54C;" d="M406.2,330.3c0-33.4-27.3-60.4-61-60.4v120.8C378.9,390.7,406.2,363.6,406.2,330.3z"/>
<path style="fill:#F1543F;" d="M317.9,398.4h20.5c3.8,0,6.8-3,6.8-6.7V268.8c0-3.7-3-6.7-6.8-6.7h-20.5c-3.8,0-6.8,3-6.8,6.7v122.9  C311.1,395.4,314.2,398.4,317.9,398.4z"/>
<g>
</g>
<g>
</g>
<g>
</g>
<g>
</g>
<g>
</g>
<g>
</g>
<g>
</g>
<g>
</g>
<g>
</g>
<g>
</g>
<g>
</g>
<g>
</g>
<g>
</g>
<g>
</g>
<g>
</g>
</svg>
