<?xml version="1.0" encoding="iso-8859-1"?>
<!-- Generator: Adobe Illustrator 19.0.0, SVG Export Plug-In . SVG Version: 6.00 Build 0)  -->
<svg xmlns="http://www.w3.org/2000/svg" xmlns:xlink="http://www.w3.org/1999/xlink" version="1.1" id="Layer_1" x="0px" y="0px" viewBox="0 0 500 500" style="enable-background:new 0 0 500 500;" xml:space="preserve">
<circle style="fill:#FD8469;" cx="250" cy="250" r="250"/>
<polygon style="fill:#324A5E;" points="347.9,222.5 347.9,177 356.2,177 356.2,84.6 185,84.6 128.8,140.7 128.8,177 137.2,177   137.2,222.5 128.8,222.5 128.8,397.1 356.2,397.1 356.2,222.5 "/>
<path style="fill:#E6E9EE;" d="M332.8,373.6H152.2c-1.1,0-2-0.9-2-2V249.2c0-1.1,0.9-2,2-2h180.7c1.1,0,2,0.9,2,2v122.4  C334.9,372.7,334,373.6,332.8,373.6z"/>
<g>
	<rect x="179" y="106.8" style="fill:#FFD05B;" width="21.1" height="40.1"/>
	<rect x="213.6" y="106.8" style="fill:#FFD05B;" width="21.1" height="40.1"/>
	<rect x="248.2" y="106.8" style="fill:#FFD05B;" width="21.1" height="40.1"/>
	<rect x="282.8" y="106.8" style="fill:#FFD05B;" width="21.1" height="40.1"/>
	<rect x="317.4" y="106.8" style="fill:#FFD05B;" width="21.1" height="40.1"/>
</g>
<g>
	<path style="fill:#FF7058;" d="M194.3,315.5v-9.2h8v9.2h6v7.7h-6v12.6h-8v-12.6h-21.5v-7.4l18.4-30h9.2l-18.1,29.8h12V315.5z"/>
	<path style="fill:#FF7058;" d="M252.7,311.4h8.5v17.1c-4.7,5.2-11.5,7.8-20.3,7.8c-7.4,0-13.6-2.4-18.6-7.3s-7.5-11-7.5-18.5   c0-7.4,2.5-13.7,7.6-18.6c5.1-5,11.2-7.4,18.4-7.4s13.2,2.1,18,6.3l-4.5,6.4c-2-1.7-3.9-2.8-5.9-3.5c-2-0.6-4.3-1-6.9-1   c-5.1,0-9.3,1.6-12.8,4.9c-3.4,3.3-5.2,7.6-5.2,12.9s1.7,9.6,5,12.8c3.3,3.2,7.4,4.8,12.1,4.8c4.8,0,8.7-1,11.9-3.1v-13.6H252.7z"/>
	<path style="fill:#FF7058;" d="M294.2,335.8h-21.9v-50.1h19.5c3.4,0,6.3,0.4,8.8,1.2c2.5,0.8,4.3,1.9,5.5,3.3   c2.3,2.6,3.4,5.5,3.4,8.7c0,3.9-1.2,6.8-3.7,8.7c-0.9,0.7-1.5,1.1-1.9,1.3c-0.3,0.2-0.9,0.4-1.8,0.8c3.1,0.7,5.6,2.1,7.4,4.2   s2.8,4.8,2.8,7.9c0,3.5-1.2,6.6-3.6,9.2C305.8,334.2,301,335.8,294.2,335.8z M280.7,306.5h10.7c6.1,0,9.2-2.1,9.2-6.2   c0-2.4-0.7-4.1-2.2-5.2c-1.5-1-3.8-1.6-6.9-1.6h-10.8L280.7,306.5L280.7,306.5z M280.7,328H294c3.1,0,5.5-0.5,7.1-1.5   s2.5-2.8,2.5-5.5c0-4.4-3.6-6.7-10.7-6.7h-12.2L280.7,328L280.7,328z"/>
</g>
<g>
</g>
<g>
</g>
<g>
</g>
<g>
</g>
<g>
</g>
<g>
</g>
<g>
</g>
<g>
</g>
<g>
</g>
<g>
</g>
<g>
</g>
<g>
</g>
<g>
</g>
<g>
</g>
<g>
</g>
</svg>
