<?xml version="1.0" encoding="iso-8859-1"?>
<!-- Generator: Adobe Illustrator 19.0.0, SVG Export Plug-In . SVG Version: 6.00 Build 0)  -->
<svg xmlns="http://www.w3.org/2000/svg" xmlns:xlink="http://www.w3.org/1999/xlink" version="1.1" id="Layer_1" x="0px" y="0px" viewBox="0 0 500 500" style="enable-background:new 0 0 500 500;" xml:space="preserve">
<circle style="fill:#84DBFF;" cx="250" cy="250" r="250"/>
<rect x="105.7" y="105.7" style="fill:#324A5E;" width="288.6" height="288.6"/>
<rect x="127.3" y="171" style="fill:#FFFFFF;" width="245.3" height="201.6"/>
<g>
	<polygon style="fill:#F1543F;" points="190.8,364 175.9,242.6 157.8,280.3 127.3,280.3 127.3,269.5 151,269.5 182.2,204.7    194.3,303.5 214.9,218.1 227.9,267.9 239.2,267.8 260.9,179.8 282.2,311.8 293.5,269.5 313.7,269.5 333.4,221.4 346.7,269.5    372.7,269.5 372.7,280.3 338.5,280.3 331.4,254.8 321,280.3 301.8,280.3 279.7,363.7 258.7,233.9 247.7,278.6 219.5,278.7    215.3,262.6  "/>
	<rect x="127.3" y="128.2" style="fill:#F1543F;" width="26.7" height="18"/>
</g>
<rect x="166.8" y="128.2" style="fill:#F9B54C;" width="26.7" height="18"/>
<rect x="206.3" y="128.2" style="fill:#54C0EB;" width="26.7" height="18"/>
<rect x="279.5" y="128.2" style="fill:#FFFFFF;" width="93.2" height="18"/>
<g>
</g>
<g>
</g>
<g>
</g>
<g>
</g>
<g>
</g>
<g>
</g>
<g>
</g>
<g>
</g>
<g>
</g>
<g>
</g>
<g>
</g>
<g>
</g>
<g>
</g>
<g>
</g>
<g>
</g>
</svg>
