<?xml version="1.0" encoding="iso-8859-1"?>
<!-- Generator: Adobe Illustrator 19.0.0, SVG Export Plug-In . SVG Version: 6.00 Build 0)  -->
<svg xmlns="http://www.w3.org/2000/svg" xmlns:xlink="http://www.w3.org/1999/xlink" version="1.1" id="Layer_1" x="0px" y="0px" viewBox="0 0 500 500" style="enable-background:new 0 0 500 500;" xml:space="preserve">
<circle style="fill:#FFD05B;" cx="250" cy="250" r="250"/>
<rect x="277.219" y="129.87" transform="matrix(-0.7071 -0.7071 0.7071 -0.7071 431.7323 509.1681)" style="fill:#ACB3BA;" width="88.199" height="70.599"/>
<g>
	
		<rect x="298.418" y="123.172" transform="matrix(-0.7071 -0.7071 0.7071 -0.7071 417.1304 473.9251)" style="fill:#FFFFFF;" width="16.6" height="54.799"/>
	
		<rect x="327.618" y="152.367" transform="matrix(-0.7071 -0.7071 0.7071 -0.7071 446.3342 544.411)" style="fill:#FFFFFF;" width="16.6" height="54.799"/>
</g>
<path style="fill:#324A5E;" d="M243.3,137.1L104.2,276.2c-12.8,12.8-12.8,33.6,0,46.4l58.7,58.7c12.8,12.8,33.6,12.8,46.4,0  l139.1-139.1L243.3,137.1z M148.4,355.1l-17.9-17.9c-2.6-2.6-2.6-6.9,0-9.5l0,0c2.6-2.6,6.9-2.6,9.5,0l17.9,17.9  c2.6,2.6,2.6,6.9,0,9.5l0,0C155.3,357.7,151.1,357.7,148.4,355.1z"/>
<path style="fill:#FFFFFF;" d="M234.9,357.5l138.9,17.2c8.3,1,15.9-4.9,16.9-13.2L405.2,244c1-8.3-4.9-15.9-13.2-16.9L253.2,210  c-40.7-5-77.9,23.9-82.9,64.6l0,0C165.2,315.4,194.2,352.5,234.9,357.5z"/>
<circle style="fill:#ACB3BA;" cx="235.7" cy="282.7" r="48.8"/>
<circle style="fill:#FF7058;" cx="235.7" cy="282.7" r="31.1"/>
<g>
</g>
<g>
</g>
<g>
</g>
<g>
</g>
<g>
</g>
<g>
</g>
<g>
</g>
<g>
</g>
<g>
</g>
<g>
</g>
<g>
</g>
<g>
</g>
<g>
</g>
<g>
</g>
<g>
</g>
</svg>
