<?xml version="1.0" encoding="iso-8859-1"?>
<!-- Generator: Adobe Illustrator 19.0.0, SVG Export Plug-In . SVG Version: 6.00 Build 0)  -->
<svg xmlns="http://www.w3.org/2000/svg" xmlns:xlink="http://www.w3.org/1999/xlink" version="1.1" id="Layer_1" x="0px" y="0px" viewBox="0 0 500 500" style="enable-background:new 0 0 500 500;" xml:space="preserve">
<circle style="fill:#84DBFF;" cx="250" cy="250" r="250"/>
<rect x="93.8" y="153.7" style="fill:#FFFFFF;" width="312.5" height="193.4"/>
<polygon style="fill:#E6E9EE;" points="364.3,93.8 135.7,93.8 93.8,153.7 406.3,153.7 "/>
<polygon style="fill:#ACB3BA;" points="353.4,122.6 153.6,122.6 163.4,105.7 343.6,105.7 "/>
<circle style="fill:#F1543F;" cx="387.9" cy="188.8" r="11.4"/>
<circle style="fill:#FFD05B;" cx="387.9" cy="216.7" r="6"/>
<g>
	<path style="fill:#ACB3BA;" d="M133.6,245v51.9h232.8V245H133.6z M359.1,289.1H140.9v-36.3h95.7c1.7,6,7,10.5,13.4,10.5   c6.4,0,11.7-4.4,13.4-10.5h95.7L359.1,289.1L359.1,289.1z"/>
	<path style="fill:#ACB3BA;" d="M133.6,226.2h232.8v-51.9H133.6V226.2 M140.9,218.3V182h95.7c1.7,6,7,10.5,13.4,10.5   c6.4,0,11.7-4.4,13.4-10.5h95.7v36.3H140.9"/>
	<rect x="134.4" y="315.9" style="fill:#ACB3BA;" width="232" height="31.2"/>
</g>
<polygon style="fill:#324A5E;" points="373,406.2 127,406.2 151,333.5 349,333.5 "/>
<g>
</g>
<g>
</g>
<g>
</g>
<g>
</g>
<g>
</g>
<g>
</g>
<g>
</g>
<g>
</g>
<g>
</g>
<g>
</g>
<g>
</g>
<g>
</g>
<g>
</g>
<g>
</g>
<g>
</g>
</svg>
