<?xml version="1.0" encoding="iso-8859-1"?>
<!-- Generator: Adobe Illustrator 19.0.0, SVG Export Plug-In . SVG Version: 6.00 Build 0)  -->
<svg xmlns="http://www.w3.org/2000/svg" xmlns:xlink="http://www.w3.org/1999/xlink" version="1.1" id="Layer_1" x="0px" y="0px" viewBox="0 0 500 500" style="enable-background:new 0 0 500 500;" xml:space="preserve">
<circle style="fill:#324A5E;" cx="250" cy="250" r="250"/>
<path style="fill:#4CDBC4;" d="M397.6,406.3c4.8,0,8.7-3.9,8.7-8.7v-39V212.9c0-4.8-3.9-8.7-8.7-8.7h-125c-4.8,0-8.7,3.9-8.7,8.7  v145.7v39c0,4.8,3.9,8.7,8.7,8.7H397.6z"/>
<rect x="281.6" y="221.9" style="fill:#E6E9EE;" width="107" height="140.1"/>
<circle style="fill:#2C9984;" cx="335.1" cy="382.8" r="13.4"/>
<path style="fill:#FFD05B;" d="M227.4,295.8c4.8,0,8.7-3.9,8.7-8.7v-39V102.4c0-4.8-3.9-8.7-8.7-8.7h-125c-4.8,0-8.7,3.9-8.7,8.7  v145.7v39c0,4.8,3.9,8.7,8.7,8.7L227.4,295.8L227.4,295.8z"/>
<rect x="111.4" y="111.4" style="fill:#E6E9EE;" width="107" height="140.1"/>
<circle style="fill:#F9B54C;" cx="164.9" cy="272.4" r="13.4"/>
<g>
	<polygon style="fill:#FFFFFF;" points="277.3,104.1 277.3,119.7 348.4,119.7 348.4,178.3 364,178.3 364,104.1  "/>
	<polygon style="fill:#FFFFFF;" points="151.6,341.2 136,341.2 136,395.9 222.7,395.9 222.7,380.3 151.6,380.3  "/>
</g>
<g>
</g>
<g>
</g>
<g>
</g>
<g>
</g>
<g>
</g>
<g>
</g>
<g>
</g>
<g>
</g>
<g>
</g>
<g>
</g>
<g>
</g>
<g>
</g>
<g>
</g>
<g>
</g>
<g>
</g>
</svg>
