<?xml version="1.0" encoding="iso-8859-1"?>
<!-- Generator: Adobe Illustrator 19.0.0, SVG Export Plug-In . SVG Version: 6.00 Build 0)  -->
<svg xmlns="http://www.w3.org/2000/svg" xmlns:xlink="http://www.w3.org/1999/xlink" version="1.1" id="Layer_1" x="0px" y="0px" viewBox="0 0 500 500" style="enable-background:new 0 0 500 500;" xml:space="preserve">
<circle style="fill:#90DFAA;" cx="250" cy="250" r="250"/>
<rect x="93.7" y="93.7" style="fill:#2B3B4E;" width="258.3" height="217.9"/>
<rect x="114.3" y="113.8" style="fill:#E6E9EE;" width="217.1" height="177.9"/>
<polygon style="fill:#324A5E;" points="254.5,311.6 191.2,311.6 159.6,352.3 159.6,363 286.2,363 286.2,352.3 "/>
<polygon style="fill:#F1543F;" points="210,188.1 161.6,169.9 179.8,218.3 184.9,200.9 196.4,212.4 204.1,204.7 192.6,193.2 "/>
<path style="fill:#FF7058;" d="M403.9,406.3H275.2c-1.3,0-2.3-1-2.3-2.3V158c0-1.3,1-2.3,2.3-2.3h128.7c1.3,0,2.3,1,2.3,2.3v246  C406.3,405.2,405.2,406.3,403.9,406.3z"/>
<g>
	<rect x="291.5" y="172.4" style="fill:#FFD05B;" width="96.1" height="31.2"/>
	<rect x="291.5" y="218.8" style="fill:#FFD05B;" width="96.1" height="31.2"/>
</g>
<circle style="fill:#F1543F;" cx="339.6" cy="349.5" r="6.3"/>
<circle style="fill:#2B3B4E;" cx="339.6" cy="319.8" r="12"/>
<g>
</g>
<g>
</g>
<g>
</g>
<g>
</g>
<g>
</g>
<g>
</g>
<g>
</g>
<g>
</g>
<g>
</g>
<g>
</g>
<g>
</g>
<g>
</g>
<g>
</g>
<g>
</g>
<g>
</g>
</svg>
