<?xml version="1.0" encoding="iso-8859-1"?>
<!-- Generator: Adobe Illustrator 19.0.0, SVG Export Plug-In . SVG Version: 6.00 Build 0)  -->
<svg xmlns="http://www.w3.org/2000/svg" xmlns:xlink="http://www.w3.org/1999/xlink" version="1.1" id="Layer_1" x="0px" y="0px" viewBox="0 0 500 500" style="enable-background:new 0 0 500 500;" xml:space="preserve">
<circle style="fill:#FFD05B;" cx="250" cy="250" r="250"/>
<path style="fill:#E6E9EE;" d="M333.7,179.1c0.2-2,0.3-4,0.3-6c0-42.6-37.6-77.1-84-77.1s-84,34.5-84,77.1c0,2,0.2,4,0.3,6  c-41,5.1-72.6,37.3-72.6,76.3c0,42.6,37.6,77.1,84,77.1h144.5c46.4,0,84-34.5,84-77.1C406.3,216.4,374.6,184.2,333.7,179.1z"/>
<polygon style="fill:#324A5E;" points="208.5,350.3 208.5,289.4 184,289.4 159.5,289.4 159.5,350.3 140.1,350.3 184,408.5   227.9,350.3 "/>
<polygon style="fill:#FF7058;" points="291.5,347.6 291.5,408.5 316,408.5 340.5,408.5 340.5,347.6 359.9,347.6 316,289.4   272.1,347.6 "/>
<g>
</g>
<g>
</g>
<g>
</g>
<g>
</g>
<g>
</g>
<g>
</g>
<g>
</g>
<g>
</g>
<g>
</g>
<g>
</g>
<g>
</g>
<g>
</g>
<g>
</g>
<g>
</g>
<g>
</g>
</svg>
