<?xml version="1.0" encoding="iso-8859-1"?>
<!-- Generator: Adobe Illustrator 19.0.0, SVG Export Plug-In . SVG Version: 6.00 Build 0)  -->
<svg xmlns="http://www.w3.org/2000/svg" xmlns:xlink="http://www.w3.org/1999/xlink" version="1.1" id="Layer_1" x="0px" y="0px" viewBox="0 0 500 500" style="enable-background:new 0 0 500 500;" xml:space="preserve">
<circle style="fill:#FD8469;" cx="250" cy="250" r="250"/>
<path style="fill:#E6E9EE;" d="M404.3,390.9H95.7c-1.1,0-2-0.9-2-2V287.1c0-1.1,0.9-2,2-2h308.5c1.1,0,2,0.9,2,2v101.8  C406.2,390,405.4,390.9,404.3,390.9z"/>
<path style="fill:#FFD05B;" d="M113.3,368.5v-61.1c0-1.6,1.3-2.8,2.8-2.8h267.8c1.6,0,2.8,1.3,2.8,2.8v61.1c0,1.6-1.3,2.8-2.8,2.8  H116.1C114.5,371.3,113.3,370.1,113.3,368.5z"/>
<g>
	<path style="fill:#2B3B4E;" d="M154.1,285.1L147,135c3.3-2.7,5.4-6.7,5.4-11.2c0-8.1-6.6-14.6-14.6-14.6c-8.1,0-14.6,6.6-14.6,14.6   c0,4.5,2.1,8.6,5.4,11.2l-7.1,150h32.6V285.1z"/>
	<path style="fill:#2B3B4E;" d="M378.7,285.1l-7.1-150c3.3-2.7,5.4-6.7,5.4-11.2c0-8.1-6.6-14.6-14.6-14.6s-14.6,6.6-14.6,14.6   c0,4.5,2.1,8.6,5.4,11.2l-7.1,150H378.7z"/>
</g>
<rect x="128.6" y="320.4" style="fill:#324A5E;" width="19.4" height="35.2"/>
<rect x="163.7" y="320.4" style="fill:#FFFFFF;" width="19.4" height="35.2"/>
<rect x="198.7" y="320.4" style="fill:#F1543F;" width="19.4" height="35.2"/>
<rect x="233.8" y="320.4" style="fill:#2C9984;" width="19.4" height="35.2"/>
<rect x="336.2" y="328.3" style="fill:#324A5E;" width="35.2" height="19.4"/>
<g>
</g>
<g>
</g>
<g>
</g>
<g>
</g>
<g>
</g>
<g>
</g>
<g>
</g>
<g>
</g>
<g>
</g>
<g>
</g>
<g>
</g>
<g>
</g>
<g>
</g>
<g>
</g>
<g>
</g>
</svg>
