<?xml version="1.0" encoding="iso-8859-1"?>
<!-- Generator: Adobe Illustrator 19.0.0, SVG Export Plug-In . SVG Version: 6.00 Build 0)  -->
<svg xmlns="http://www.w3.org/2000/svg" xmlns:xlink="http://www.w3.org/1999/xlink" version="1.1" id="Layer_1" x="0px" y="0px" viewBox="0 0 500 500" style="enable-background:new 0 0 500 500;" xml:space="preserve">
<circle style="fill:#FFD05B;" cx="250" cy="250" r="250"/>
<path style="fill:#324A5E;" d="M348,274.5h39.8c10.2,0,18.4-8.3,18.4-18.4V174c0-10.2-8.3-18.4-18.4-18.4h-135v187.9l57.6,2  c10.4,0.4,19.1-8,19.1-18.4v-34C329.5,282.8,337.8,274.5,348,274.5z"/>
<path style="fill:#FF7058;" d="M252.2,377.9H95.3c-0.9,0-1.6-0.7-1.6-1.6V124c0-0.9,0.7-1.6,1.6-1.6h156.8c0.9,0,1.6,0.7,1.6,1.6  v252.3C253.8,377.2,253.1,377.9,252.2,377.9z"/>
<g>
	<rect x="141.2" y="104.4" style="fill:#324A5E;" width="63.4" height="18"/>
	<rect x="128.1" y="377.6" style="fill:#324A5E;" width="89.5" height="18"/>
</g>
<path style="fill:#F1543F;" d="M227.2,138c-5.3,0-9.6,3.4-9.6,7.6v209.1c0,4.2,4.3,7.6,9.6,7.6s9.6-3.4,9.6-7.6V145.6  C236.8,141.4,232.5,138,227.2,138z"/>
<g>
	<rect x="263.9" y="168.8" style="fill:#2B3B4E;" width="17.3" height="19"/>
	<rect x="302.3" y="168.8" style="fill:#2B3B4E;" width="17.3" height="19"/>
	<rect x="340.6" y="168.8" style="fill:#2B3B4E;" width="17.3" height="19"/>
	<rect x="379" y="168.8" style="fill:#2B3B4E;" width="17.3" height="19"/>
	<rect x="263.9" y="305.9" style="fill:#2B3B4E;" width="17.3" height="19"/>
	<rect x="302.3" y="305.9" style="fill:#2B3B4E;" width="17.3" height="19"/>
</g>
<g>
</g>
<g>
</g>
<g>
</g>
<g>
</g>
<g>
</g>
<g>
</g>
<g>
</g>
<g>
</g>
<g>
</g>
<g>
</g>
<g>
</g>
<g>
</g>
<g>
</g>
<g>
</g>
<g>
</g>
</svg>
