<?xml version="1.0" encoding="iso-8859-1"?>
<!-- Generator: Adobe Illustrator 19.0.0, SVG Export Plug-In . SVG Version: 6.00 Build 0)  -->
<svg xmlns="http://www.w3.org/2000/svg" xmlns:xlink="http://www.w3.org/1999/xlink" version="1.1" id="Layer_1" x="0px" y="0px" viewBox="0 0 500 500" style="enable-background:new 0 0 500 500;" xml:space="preserve">
<circle style="fill:#84DBFF;" cx="250" cy="250" r="250"/>
<path style="fill:#324A5E;" d="M403.8,406.3H96.2c-1.4,0-2.5-1.1-2.5-2.5V229.9c0-1.4,1.1-2.5,2.5-2.5h307.5c1.4,0,2.5,1.1,2.5,2.5  v173.9C406.3,405.1,405.1,406.3,403.8,406.3z"/>
<rect x="113.3" y="244" style="fill:#F1543F;" width="27.5" height="16.6"/>
<g>
	<rect x="154.3" y="244" style="fill:#CED5E0;" width="27.5" height="16.6"/>
	<rect x="195.3" y="244" style="fill:#CED5E0;" width="27.5" height="16.6"/>
	<rect x="236.3" y="244" style="fill:#CED5E0;" width="27.5" height="16.6"/>
	<rect x="277.2" y="244" style="fill:#CED5E0;" width="27.5" height="16.6"/>
	<rect x="318.2" y="244" style="fill:#CED5E0;" width="27.5" height="16.6"/>
	<rect x="359.2" y="244" style="fill:#CED5E0;" width="27.5" height="16.6"/>
	<rect x="113.3" y="271.4" style="fill:#CED5E0;" width="27.5" height="21.6"/>
	<rect x="154.3" y="271.4" style="fill:#CED5E0;" width="27.5" height="21.6"/>
	<rect x="195.3" y="271.4" style="fill:#CED5E0;" width="27.5" height="21.6"/>
	<rect x="236.3" y="271.4" style="fill:#CED5E0;" width="27.5" height="21.6"/>
	<rect x="277.2" y="271.4" style="fill:#CED5E0;" width="27.5" height="21.6"/>
	<rect x="318.2" y="271.4" style="fill:#CED5E0;" width="49.4" height="21.6"/>
	<rect x="359.2" y="271.4" style="fill:#CED5E0;" width="27.5" height="21.6"/>
	<rect x="113.3" y="303.6" style="fill:#CED5E0;" width="27.5" height="21.6"/>
	<rect x="154.3" y="303.6" style="fill:#CED5E0;" width="27.5" height="21.6"/>
	<rect x="195.3" y="303.6" style="fill:#CED5E0;" width="27.5" height="21.6"/>
	<rect x="236.3" y="303.6" style="fill:#CED5E0;" width="27.5" height="21.6"/>
	<rect x="277.2" y="303.6" style="fill:#CED5E0;" width="27.5" height="21.6"/>
	<rect x="318.2" y="303.6" style="fill:#CED5E0;" width="27.5" height="21.6"/>
	<rect x="359.2" y="288.2" style="fill:#CED5E0;" width="27.5" height="37"/>
	<rect x="113.3" y="335.8" style="fill:#CED5E0;" width="57.1" height="21.6"/>
	<rect x="154.3" y="335.8" style="fill:#CED5E0;" width="27.5" height="21.6"/>
	<rect x="195.3" y="335.8" style="fill:#CED5E0;" width="27.5" height="21.6"/>
	<rect x="236.3" y="335.8" style="fill:#CED5E0;" width="27.5" height="21.6"/>
</g>
<rect x="195.3" y="368" style="fill:#F1543F;" width="109.5" height="21.6"/>
<g>
	<rect x="277.2" y="335.8" style="fill:#CED5E0;" width="27.5" height="21.6"/>
	<rect x="318.2" y="335.8" style="fill:#CED5E0;" width="27.5" height="21.6"/>
	<rect x="359.2" y="335.8" style="fill:#CED5E0;" width="27.5" height="21.6"/>
</g>
<rect x="113.3" y="368" style="fill:#2C9984;" width="27.5" height="21.6"/>
<g>
	<rect x="154.3" y="368" style="fill:#CED5E0;" width="27.5" height="21.6"/>
	<rect x="318.2" y="368" style="fill:#CED5E0;" width="27.5" height="21.6"/>
</g>
<rect x="359.2" y="368" style="fill:#F9B54C;" width="27.5" height="21.6"/>
<path style="fill:#2B3B4E;" d="M272.4,227.4h-15.6v-11.8c0-6.9-4.5-12.5-10.1-12.5H181c-14.2,0-25.7-13.2-25.7-29.5  s11.5-29.5,25.7-29.5h151.7c7.5,0,13.7-7.5,13.7-16.6s-6.1-16.6-13.7-16.6H163V93.8h169.6c16.2,0,29.3,15.1,29.3,33.7  s-13.1,33.7-29.3,33.7H180.9c-5.6,0-10.1,5.6-10.1,12.5s4.5,12.5,10.1,12.5h65.7c14.2,0,25.7,13.2,25.7,29.5v11.7H272.4z"/>
<g>
</g>
<g>
</g>
<g>
</g>
<g>
</g>
<g>
</g>
<g>
</g>
<g>
</g>
<g>
</g>
<g>
</g>
<g>
</g>
<g>
</g>
<g>
</g>
<g>
</g>
<g>
</g>
<g>
</g>
</svg>
