<?xml version="1.0" encoding="iso-8859-1"?>
<!-- Generator: Adobe Illustrator 19.0.0, SVG Export Plug-In . SVG Version: 6.00 Build 0)  -->
<svg xmlns="http://www.w3.org/2000/svg" xmlns:xlink="http://www.w3.org/1999/xlink" version="1.1" id="Layer_1" x="0px" y="0px" viewBox="0 0 500 500" style="enable-background:new 0 0 500 500;" xml:space="preserve">
<circle style="fill:#FD8469;" cx="250" cy="250" r="250"/>
<path style="fill:#324A5E;" d="M338.5,102.5H119.9c-9.6,0-17.5,7.8-17.5,17.5v260.2c0,9.6,7.8,17.5,17.5,17.5h260.2  c9.6,0,17.5-7.8,17.5-17.5V161.5c0-4.6-1.8-9.1-5.1-12.3l-41.6-41.6C347.5,104.3,343.1,102.5,338.5,102.5z"/>
<g>
	<rect x="158.4" y="102.5" style="fill:#FFFFFF;" width="183.1" height="100.8"/>
	<rect x="158.4" y="286.3" style="fill:#FFFFFF;" width="183.1" height="111.2"/>
</g>
<rect x="297.5" y="122.8" style="fill:#324A5E;" width="24.3" height="59"/>
<polygon style="fill:#FFFFFF;" points="130.6,139.1 115.7,160 122.3,160 122.3,181.8 138.9,181.8 138.9,160 145.6,160 "/>
<rect x="116.3" y="348" style="fill:#4CDBC4;" width="26" height="26"/>
<g>
	<rect x="173.5" y="301.5" style="fill:#ACB3BA;" width="153.3" height="14.7"/>
	<rect x="173.5" y="335.6" style="fill:#ACB3BA;" width="153.3" height="14.7"/>
	<rect x="173.5" y="369.6" style="fill:#ACB3BA;" width="153.3" height="14.7"/>
</g>
<g>
</g>
<g>
</g>
<g>
</g>
<g>
</g>
<g>
</g>
<g>
</g>
<g>
</g>
<g>
</g>
<g>
</g>
<g>
</g>
<g>
</g>
<g>
</g>
<g>
</g>
<g>
</g>
<g>
</g>
</svg>
