<?xml version="1.0" encoding="iso-8859-1"?>
<!-- Generator: Adobe Illustrator 19.0.0, SVG Export Plug-In . SVG Version: 6.00 Build 0)  -->
<svg xmlns="http://www.w3.org/2000/svg" xmlns:xlink="http://www.w3.org/1999/xlink" version="1.1" id="Layer_1" x="0px" y="0px" viewBox="0 0 500 500" style="enable-background:new 0 0 500 500;" xml:space="preserve">
<circle style="fill:#90DFAA;" cx="250" cy="250" r="250"/>
<g>
	<path style="fill:#324A5E;" d="M384.7,166.8H115.3c-11.9,0-21.5,9.8-21.5,21.8v195.9c0,12,9.6,21.8,21.5,21.8h269.4   c11.9,0,21.5-9.8,21.5-21.8V188.6C406.3,176.6,396.6,166.8,384.7,166.8z"/>
	<path style="fill:#324A5E;" d="M222.2,98.7v47.1c0,2.7,2.2,4.9,4.9,4.9h46c2.7,0,4.9,2.2,4.9,4.9v11.2h41.3v-11.2   c0-2.7,2.2-4.9,4.9-4.9h46c2.7,0,4.9-2.2,4.9-4.9V98.7c0-2.7-2.2-4.9-4.9-4.9H227.1C224.4,93.7,222.2,96,222.2,98.7z"/>
	<path style="fill:#324A5E;" d="M152.6,140h-19.9c-3.1,0-5.5,2.5-5.5,5.6v17.3h30.9v-17.3C158.2,142.5,155.7,140,152.6,140z"/>
</g>
<circle style="fill:#FFFFFF;" cx="250" cy="286.5" r="84.6"/>
<circle style="fill:#54C0EB;" cx="250" cy="286.5" r="58.9"/>
<path style="fill:#FFFFFF;" d="M234.9,245.9c-12.9,4.3-23,15.9-26,30.4c-1,4.8,3.1,9.3,8.3,9.3c4,0,7.3-2.6,8.2-6.2  c2-7.7,7.5-13.9,14.6-16.1c3.5-1.1,6-4.1,6-7.5v-2.3C246.1,248,240.4,244.1,234.9,245.9z"/>
<rect x="119.7" y="184" style="fill:#FF7058;" width="36.1" height="26.2"/>
<path style="fill:#E6E9EE;" d="M358.7,128.5h-120c-1.1,0-2-0.9-2-2v-11.6c0-1.1,0.9-2,2-2h120c1.1,0,2,0.9,2,2v11.6  C360.7,127.6,359.8,128.5,358.7,128.5z"/>
<g>
</g>
<g>
</g>
<g>
</g>
<g>
</g>
<g>
</g>
<g>
</g>
<g>
</g>
<g>
</g>
<g>
</g>
<g>
</g>
<g>
</g>
<g>
</g>
<g>
</g>
<g>
</g>
<g>
</g>
</svg>
