<?xml version="1.0" encoding="iso-8859-1"?>
<!-- Generator: Adobe Illustrator 19.0.0, SVG Export Plug-In . SVG Version: 6.00 Build 0)  -->
<svg xmlns="http://www.w3.org/2000/svg" xmlns:xlink="http://www.w3.org/1999/xlink" version="1.1" id="Layer_1" x="0px" y="0px" viewBox="0 0 500 500" style="enable-background:new 0 0 500 500;" xml:space="preserve">
<circle style="fill:#324A5E;" cx="250" cy="250" r="250"/>
<path style="fill:#4CDBC4;" d="M201.3,411.4L88.6,298.7c-2.2-2.2-2.2-5.8,0-8L245.3,134l120.6,120.6L209.2,411.4  C207,413.6,203.5,413.6,201.3,411.4z"/>
<rect x="137.176" y="214.97" transform="matrix(0.7071 -0.7071 0.7071 0.7071 -128.3098 239.7714)" style="fill:#2C9984;" width="176.198" height="119.599"/>
<rect x="277.669" y="122.301" transform="matrix(-0.7071 -0.7071 0.7071 -0.7071 456.3262 518.1176)" style="fill:#E6E9EE;" width="115.599" height="84.499"/>
<g>
	<path style="fill:#4CDBC4;" d="M299,265.8L234.2,201c-0.8-0.8-0.8-2.1,0-2.8l8.3-8.3c0.8-0.8,2.1-0.8,2.8,0l64.8,64.8   c0.8,0.8,0.8,2.1,0,2.8l-8.3,8.3C301.1,266.6,299.8,266.6,299,265.8z"/>
	<path style="fill:#4CDBC4;" d="M275.5,289.3l-64.8-64.8c-0.8-0.8-0.8-2.1,0-2.8l8.3-8.3c0.8-0.8,2.1-0.8,2.8,0l64.8,64.8   c0.8,0.8,0.8,2.1,0,2.8l-8.3,8.3C277.6,290,276.3,290,275.5,289.3z"/>
	<path style="fill:#4CDBC4;" d="M252.1,312.7l-64.8-64.8c-0.8-0.8-0.8-2.1,0-2.8l8.3-8.3c0.8-0.8,2.1-0.8,2.8,0l64.8,64.8   c0.8,0.8,0.8,2.1,0,2.8l-8.3,8.3C254.1,313.5,252.9,313.5,252.1,312.7z"/>
	<path style="fill:#4CDBC4;" d="M228.6,336.2l-64.8-64.8c-0.8-0.8-0.8-2.1,0-2.8l8.3-8.3c0.8-0.8,2.1-0.8,2.8,0l64.8,64.8   c0.8,0.8,0.8,2.1,0,2.8l-8.3,8.3C230.7,337,229.4,337,228.6,336.2z"/>
	<path style="fill:#4CDBC4;" d="M205.2,359.6l-64.8-64.8c-0.8-0.8-0.8-2.1,0-2.8l8.3-8.3c0.8-0.8,2.1-0.8,2.8,0l64.8,64.8   c0.8,0.8,0.8,2.1,0,2.8l-8.3,8.3C207.2,360.4,205.9,360.4,205.2,359.6z"/>
</g>
<g>
	
		<rect x="300.919" y="130.688" transform="matrix(-0.7071 -0.7071 0.7071 -0.7071 438.6205 475.1581)" style="fill:#ACB3BA;" width="33.6" height="32.1"/>
	
		<rect x="336.429" y="166.182" transform="matrix(-0.7071 -0.7071 0.7071 -0.7071 474.1418 560.8597)" style="fill:#ACB3BA;" width="33.6" height="32.1"/>
</g>
<g>
</g>
<g>
</g>
<g>
</g>
<g>
</g>
<g>
</g>
<g>
</g>
<g>
</g>
<g>
</g>
<g>
</g>
<g>
</g>
<g>
</g>
<g>
</g>
<g>
</g>
<g>
</g>
<g>
</g>
</svg>
