<?xml version="1.0" encoding="iso-8859-1"?>
<!-- Generator: Adobe Illustrator 19.0.0, SVG Export Plug-In . SVG Version: 6.00 Build 0)  -->
<svg xmlns="http://www.w3.org/2000/svg" xmlns:xlink="http://www.w3.org/1999/xlink" version="1.1" id="Layer_1" x="0px" y="0px" viewBox="0 0 500 500" style="enable-background:new 0 0 500 500;" xml:space="preserve">
<circle style="fill:#324A5E;" cx="250" cy="250" r="250"/>
<g>
	<rect x="93.8" y="367.8" style="fill:#4CDBC4;" width="312.5" height="28.8"/>
	<rect x="236.3" y="184.7" style="fill:#4CDBC4;" width="27.4" height="169.5"/>
</g>
<path style="fill:#EAECEF;" d="M403.5,192h-307c-1.5,0-2.7-1.2-2.7-2.7v-88.8c0-1.5,1.2-2.7,2.7-2.7h307c1.5,0,2.7,1.2,2.7,2.7v88.8  C406.3,190.7,405,192,403.5,192z"/>
<g>
	<rect x="376.1" y="126.8" style="fill:#ACB3BA;" width="16.2" height="36"/>
	<rect x="343.8" y="126.8" style="fill:#ACB3BA;" width="16.2" height="36"/>
	<rect x="311.4" y="126.8" style="fill:#ACB3BA;" width="16.2" height="36"/>
</g>
<rect x="107.7" y="126.8" style="fill:#324A5E;" width="31.7" height="36"/>
<rect x="158.9" y="126.8" style="fill:#F9B54C;" width="31.7" height="36"/>
<rect x="210.2" y="126.8" style="fill:#F1543F;" width="31.7" height="36"/>
<path style="fill:#EAECEF;" d="M403.5,317.6h-307c-1.5,0-2.7-1.2-2.7-2.7V226c0-1.5,1.2-2.7,2.7-2.7h307c1.5,0,2.7,1.2,2.7,2.7v88.8  C406.3,316.3,405,317.6,403.5,317.6z"/>
<g>
	<rect x="376.1" y="252.4" style="fill:#ACB3BA;" width="16.2" height="36"/>
	<rect x="343.8" y="252.4" style="fill:#ACB3BA;" width="16.2" height="36"/>
	<rect x="311.4" y="252.4" style="fill:#ACB3BA;" width="16.2" height="36"/>
</g>
<rect x="107.7" y="252.4" style="fill:#324A5E;" width="31.7" height="36"/>
<rect x="158.9" y="252.4" style="fill:#F9B54C;" width="31.7" height="36"/>
<rect x="210.2" y="252.4" style="fill:#F1543F;" width="31.7" height="36"/>
<rect x="222.1" y="354.3" style="fill:#ACB3BA;" width="55.9" height="55.9"/>
<g>
</g>
<g>
</g>
<g>
</g>
<g>
</g>
<g>
</g>
<g>
</g>
<g>
</g>
<g>
</g>
<g>
</g>
<g>
</g>
<g>
</g>
<g>
</g>
<g>
</g>
<g>
</g>
<g>
</g>
</svg>
