<?xml version="1.0" encoding="iso-8859-1"?>
<!-- Generator: Adobe Illustrator 19.0.0, SVG Export Plug-In . SVG Version: 6.00 Build 0)  -->
<svg xmlns="http://www.w3.org/2000/svg" xmlns:xlink="http://www.w3.org/1999/xlink" version="1.1" id="Layer_1" x="0px" y="0px" viewBox="0 0 500 500" style="enable-background:new 0 0 500 500;" xml:space="preserve">
<circle style="fill:#84DBFF;" cx="250" cy="250" r="250"/>
<path style="fill:#324A5E;" d="M374.3,93.8H125.7c-17.6,0-31.9,14.3-31.9,31.9v248.7c0,17.6,14.3,31.9,31.9,31.9h248.7  c17.6,0,31.9-14.3,31.9-31.9V125.7C406.3,108,392,93.8,374.3,93.8z"/>
<path style="fill:#FFFFFF;" d="M125.7,382.8c-4.7,0-8.5-3.8-8.5-8.5V125.7c0-4.7,3.8-8.5,8.5-8.5h248.7c4.7,0,8.5,3.8,8.5,8.5v248.7  c0,4.7-3.8,8.5-8.5,8.5H125.7V382.8z"/>
<circle style="fill:#E6E9EE;" cx="250" cy="250" r="45.4"/>
<g>
	<rect x="237.8" y="339" style="fill:#324A5E;" width="24.3" height="30.4"/>
	<rect x="237.8" y="130.6" style="fill:#324A5E;" width="24.3" height="30.4"/>
	<rect x="130.6" y="237.8" style="fill:#324A5E;" width="30.4" height="24.3"/>
	<rect x="339" y="237.8" style="fill:#324A5E;" width="30.4" height="24.3"/>
</g>
<polygon style="fill:#F1543F;" points="298.4,259.8 240.2,259.8 240.2,179 259.8,179 259.8,240.2 298.4,240.2 "/>
<g>
</g>
<g>
</g>
<g>
</g>
<g>
</g>
<g>
</g>
<g>
</g>
<g>
</g>
<g>
</g>
<g>
</g>
<g>
</g>
<g>
</g>
<g>
</g>
<g>
</g>
<g>
</g>
<g>
</g>
</svg>
