<?xml version="1.0" encoding="iso-8859-1"?>
<!-- Generator: Adobe Illustrator 19.0.0, SVG Export Plug-In . SVG Version: 6.00 Build 0)  -->
<svg xmlns="http://www.w3.org/2000/svg" xmlns:xlink="http://www.w3.org/1999/xlink" version="1.1" id="Layer_1" x="0px" y="0px" viewBox="0 0 500 500" style="enable-background:new 0 0 500 500;" xml:space="preserve">
<circle style="fill:#90DFAA;" cx="250" cy="250" r="250"/>
<circle style="fill:#F1543F;" cx="250" cy="250" r="156.3"/>
<circle style="fill:#E6E9EE;" cx="250" cy="250" r="134.1"/>
<circle style="fill:#CED5E0;" cx="250" cy="250" r="55.2"/>
<g>
	<rect x="242.2" y="125.7" style="fill:#324A5E;" width="15.5" height="23"/>
	<rect x="242.2" y="351.4" style="fill:#324A5E;" width="15.5" height="23"/>
	<rect x="351.4" y="242.2" style="fill:#324A5E;" width="23" height="15.5"/>
	<rect x="125.7" y="242.2" style="fill:#324A5E;" width="23" height="15.5"/>
	
		<rect x="322.008" y="158.66" transform="matrix(-0.7071 -0.7071 0.7071 -0.7071 442.6106 523.655)" style="fill:#324A5E;" width="15.5" height="23"/>
	
		<rect x="162.422" y="318.27" transform="matrix(-0.7071 -0.7071 0.7071 -0.7071 57.3184 683.2817)" style="fill:#324A5E;" width="15.5" height="23"/>
	
		<rect x="322.097" y="318.265" transform="matrix(0.7071 -0.7071 0.7071 0.7071 -136.5688 329.8229)" style="fill:#324A5E;" width="15.5" height="23"/>
	
		<rect x="162.473" y="158.665" transform="matrix(0.7071 -0.7071 0.7071 0.7071 -70.4673 170.2061)" style="fill:#324A5E;" width="15.5" height="23"/>
</g>
<polygon style="fill:#54C0EB;" points="238.9,257.8 245.4,167.9 249.8,167.9 254.5,242.1 313.8,248.8 313.8,252.6 "/>
<polygon style="fill:#FF7058;" points="285.6,282.1 282.1,285.6 186.2,187 187,186.2 "/>
<circle style="fill:#324A5E;" cx="248.1" cy="248.2" r="6.2"/>
<g>
</g>
<g>
</g>
<g>
</g>
<g>
</g>
<g>
</g>
<g>
</g>
<g>
</g>
<g>
</g>
<g>
</g>
<g>
</g>
<g>
</g>
<g>
</g>
<g>
</g>
<g>
</g>
<g>
</g>
</svg>
