<?xml version="1.0" encoding="iso-8859-1"?>
<!-- Generator: Adobe Illustrator 19.0.0, SVG Export Plug-In . SVG Version: 6.00 Build 0)  -->
<svg xmlns="http://www.w3.org/2000/svg" xmlns:xlink="http://www.w3.org/1999/xlink" version="1.1" id="Layer_1" x="0px" y="0px" viewBox="0 0 500 500" style="enable-background:new 0 0 500 500;" xml:space="preserve">
<circle style="fill:#FFD05B;" cx="250" cy="250" r="250"/>
<path style="fill:#E6E9EE;" d="M166.4,268.5v106.4c0,17.3,14,31.4,31.4,31.4h88.1c17.3,0,31.4-14,31.4-31.4V268.5  c-18.1,16.2-45.1,26.5-75.4,26.5S184.5,284.7,166.4,268.5z"/>
<path style="fill:#FF7058;" d="M285.8,211.9h-88.1c-17.3,0-31.4,14-31.4,31.4v25.2c18.1,16.2,45.1,26.5,75.4,26.5  s57.3-10.3,75.4-26.5v-25.2C317.2,225.9,303.2,211.9,285.8,211.9z"/>
<path style="fill:#2B3B4E;" d="M345.5,137.2H196.3c-7.7,0-14.1-6.3-14.1-14.1s6.3-14,14.1-14h87.3V93.8h-87.3  c-16.2,0-29.4,13.2-29.4,29.4s13.2,29.4,29.4,29.4h149.2c7.5,0,13.5,6.1,13.5,13.5c0,7.5-6.1,13.5-13.5,13.5h-85.4  c-14.3,0-26,11.6-26,26v6.3h15.4v-6.3c0-5.8,4.8-10.6,10.6-10.6h85.4c15.9,0,28.9-13,28.9-28.9S361.4,137.2,345.5,137.2z"/>
<path style="fill:#2C9984;" d="M258.2,334.5c-3.1-0.6-6.2,0.1-9.1,1.8c-4.5,2.6-10,2.6-14.5,0c-2.9-1.7-6.1-2.4-9.1-1.8  c-9.6,2-14.8,16.1-11.7,31.5c3.2,15.4,13.5,26.3,23.1,24.4c0.5-0.1,0.9-0.2,1.3-0.4c2.3-0.8,4.9-0.8,7.2,0c0.4,0.1,0.9,0.3,1.3,0.4  c9.6,2,19.9-8.9,23.1-24.4C273,350.5,267.8,336.4,258.2,334.5z"/>
<path style="fill:#4CDBC4;" d="M239,334.3c13.8,2.7,22.8-6.3,20.1-20.1C245.3,311.5,236.3,320.5,239,334.3z"/>
<path style="fill:#FFFFFF;" d="M241.8,226.3L241.8,226.3c-6.5,0-11.7,5.7-11.7,12.7v28.8c0,7,5.3,12.7,11.7,12.7l0,0  c6.5,0,11.7-5.7,11.7-12.7V239C253.6,232,248.3,226.3,241.8,226.3z"/>
<g>
</g>
<g>
</g>
<g>
</g>
<g>
</g>
<g>
</g>
<g>
</g>
<g>
</g>
<g>
</g>
<g>
</g>
<g>
</g>
<g>
</g>
<g>
</g>
<g>
</g>
<g>
</g>
<g>
</g>
</svg>
