<?xml version="1.0" encoding="iso-8859-1"?>
<!-- Generator: Adobe Illustrator 19.0.0, SVG Export Plug-In . SVG Version: 6.00 Build 0)  -->
<svg xmlns="http://www.w3.org/2000/svg" xmlns:xlink="http://www.w3.org/1999/xlink" version="1.1" id="Layer_1" x="0px" y="0px" viewBox="0 0 500 500" style="enable-background:new 0 0 500 500;" xml:space="preserve">
<circle style="fill:#84DBFF;" cx="250" cy="250" r="250"/>
<rect x="93.8" y="370.3" style="fill:#FFFFFF;" width="312.5" height="21.9"/>
<path style="fill:#FFD05B;" d="M210.4,115.2L210.4,115.2c0-11.8-9.9-21.4-22.1-21.4h-72.4c-12.2,0-22.1,9.6-22.1,21.4v21.4v148.3  v21.4c0,11.8,9.9,21.4,22.1,21.4h268.2c12.2,0,22.1-9.6,22.1-21.4V158c0-11.8-9.9-21.4-22.1-21.4H232.6  C220.4,136.6,210.4,127,210.4,115.2z"/>
<rect x="225.5" y="356.2" style="fill:#324A5E;" width="49" height="50.1"/>
<g>
	<rect x="238.3" y="327.7" style="fill:#FFFFFF;" width="23.4" height="28.5"/>
	<rect x="125.2" y="186.4" style="fill:#FFFFFF;" width="249.5" height="18.9"/>
	<rect x="125.2" y="229.7" style="fill:#FFFFFF;" width="249.5" height="18.9"/>
	<rect x="125.2" y="273" style="fill:#FFFFFF;" width="249.5" height="18.9"/>
</g>
<g>
</g>
<g>
</g>
<g>
</g>
<g>
</g>
<g>
</g>
<g>
</g>
<g>
</g>
<g>
</g>
<g>
</g>
<g>
</g>
<g>
</g>
<g>
</g>
<g>
</g>
<g>
</g>
<g>
</g>
</svg>
