<?xml version="1.0" encoding="iso-8859-1"?>
<!-- Generator: Adobe Illustrator 19.0.0, SVG Export Plug-In . SVG Version: 6.00 Build 0)  -->
<svg xmlns="http://www.w3.org/2000/svg" xmlns:xlink="http://www.w3.org/1999/xlink" version="1.1" id="Layer_1" x="0px" y="0px" viewBox="0 0 500 500" style="enable-background:new 0 0 500 500;" xml:space="preserve">
<circle style="fill:#FD8469;" cx="250" cy="250" r="250"/>
<path style="fill:#E6E9EE;" d="M372.8,113.7l-122.3-3.2c-4.7-0.1-9.2,1.7-12.6,5L92.5,260.9c-6.7,6.7-6.7,17.6,0,24.3L218,410.7  c6.7,6.7,17.6,6.7,24.3,0l145.4-145.4c3.3-3.3,5.1-7.9,5-12.6l-3.2-122.3C389.3,121.3,382,114,372.8,113.7z"/>
<rect x="143.098" y="179.401" transform="matrix(0.7071 -0.7071 0.7071 0.7071 -114.4523 247.3873)" style="fill:#4CDBC4;" width="196.598" height="164.898"/>
<circle style="fill:#CED5E0;" cx="352.2" cy="151" r="19.8"/>
<path style="fill:#ACB3BA;" d="M343.2,160c-6.9-6.9-7.6-17.5-2.3-25.2c-1,0.7-1.9,1.4-2.8,2.3c-7.7,7.7-7.7,20.3,0,28s20.3,7.7,28,0  c0.9-0.9,1.6-1.8,2.3-2.8C360.8,167.6,350.1,166.9,343.2,160z"/>
<g>
	
		<rect x="181.013" y="248.303" transform="matrix(-0.7071 0.7071 -0.7071 -0.7071 540.0759 414.3981)" style="fill:#324A5E;" width="6.4" height="141.499"/>
	
		<rect x="190.383" y="236.851" transform="matrix(-0.7071 0.7071 -0.7071 -0.7071 551.3862 386.808)" style="fill:#324A5E;" width="10.4" height="141.499"/>
	
		<rect x="203.883" y="225.398" transform="matrix(-0.7071 0.7071 -0.7071 -0.7071 562.921 359.125)" style="fill:#324A5E;" width="6.4" height="141.499"/>
	
		<rect x="215.323" y="214.006" transform="matrix(-0.7071 0.7071 -0.7071 -0.7071 574.395 331.5886)" style="fill:#324A5E;" width="6.4" height="141.499"/>
	
		<rect x="224.693" y="202.553" transform="matrix(-0.7071 0.7071 -0.7071 -0.7071 585.7054 303.9984)" style="fill:#324A5E;" width="10.4" height="141.499"/>
	
		<rect x="238.193" y="191.101" transform="matrix(-0.7071 0.7071 -0.7071 -0.7071 597.2401 276.3155)" style="fill:#324A5E;" width="6.4" height="141.499"/>
	
		<rect x="249.633" y="179.709" transform="matrix(-0.7071 0.7071 -0.7071 -0.7071 608.7142 248.779)" style="fill:#324A5E;" width="6.4" height="141.499"/>
	
		<rect x="261.073" y="168.186" transform="matrix(-0.7071 0.7071 -0.7071 -0.7071 620.0953 221.0181)" style="fill:#324A5E;" width="6.4" height="141.499"/>
	
		<rect x="270.503" y="156.804" transform="matrix(-0.7071 0.7071 -0.7071 -0.7071 631.5593 193.5059)" style="fill:#324A5E;" width="10.4" height="141.499"/>
	
		<rect x="283.873" y="145.351" transform="matrix(-0.7071 0.7071 -0.7071 -0.7071 642.8696 165.9158)" style="fill:#324A5E;" width="6.4" height="141.499"/>
	
		<rect x="295.38" y="133.889" transform="matrix(-0.7071 0.7071 -0.7071 -0.7071 654.4092 138.2107)" style="fill:#324A5E;" width="6.4" height="141.499"/>
</g>
<g>
</g>
<g>
</g>
<g>
</g>
<g>
</g>
<g>
</g>
<g>
</g>
<g>
</g>
<g>
</g>
<g>
</g>
<g>
</g>
<g>
</g>
<g>
</g>
<g>
</g>
<g>
</g>
<g>
</g>
</svg>
