<?xml version="1.0" encoding="iso-8859-1"?>
<!-- Generator: Adobe Illustrator 19.0.0, SVG Export Plug-In . SVG Version: 6.00 Build 0)  -->
<svg xmlns="http://www.w3.org/2000/svg" xmlns:xlink="http://www.w3.org/1999/xlink" version="1.1" id="Layer_1" x="0px" y="0px" viewBox="0 0 500 500" style="enable-background:new 0 0 500 500;" xml:space="preserve">
<circle style="fill:#FFD05B;" cx="250" cy="250" r="250"/>
<g>
	<path style="fill:#F1543F;" d="M161.7,73.4l-2.5,13c28.3,5.3,52.8,21.4,69,45.1c16.2,23.8,22.2,52.5,16.8,80.8l13,2.4   c6-31.8-0.7-64-18.9-90.7S193.4,79.4,161.7,73.4z"/>
	<path style="fill:#F1543F;" d="M156.3,101.5l-2.5,13c20.8,3.9,38.8,15.7,50.7,33.2s16.3,38.6,12.4,59.3l13,2.4   c4.6-24.2-0.5-48.8-14.4-69.2S180.6,106,156.3,101.5z"/>
	<path style="fill:#F1543F;" d="M201.8,204.1c6.6-34.6-16.2-68-50.8-74.5l-2.5,13c27.4,5.2,45.5,31.7,40.3,59.1L201.8,204.1z"/>
</g>
<path style="fill:#2B3B4E;" d="M169.2,324.2H138l10-135.3c0.2-2.9,2.7-5.2,5.6-5.2l0,0c2.9,0,5.4,2.3,5.6,5.2L169.2,324.2z"/>
<path style="fill:#324A5E;" d="M385.5,385.9h-271c-1.5,0-2.7-1.2-2.7-2.7v-75.8c0-1.5,1.2-2.7,2.7-2.7h271.1c1.5,0,2.7,1.2,2.7,2.7  v75.8C388.2,384.7,387,385.9,385.5,385.9z"/>
<path style="fill:#FFFFFF;" d="M361.9,361.4H138.1c-2.3,0-4.1-1.8-4.1-4.1v-23.9c0-2.3,1.8-4.1,4.1-4.1H362c2.3,0,4.1,1.8,4.1,4.1  v23.9C366.1,359.5,364.2,361.4,361.9,361.4z"/>
<circle style="fill:#FF7058;" cx="152.3" cy="345.3" r="4.3"/>
<g>
	<circle style="fill:#4CDBC4;" cx="179" cy="345.3" r="4.3"/>
	<circle style="fill:#4CDBC4;" cx="205.6" cy="345.3" r="4.3"/>
	<circle style="fill:#4CDBC4;" cx="232.3" cy="345.3" r="4.3"/>
	<circle style="fill:#4CDBC4;" cx="258.9" cy="345.3" r="4.3"/>
	<circle style="fill:#4CDBC4;" cx="285.6" cy="345.3" r="4.3"/>
	<circle style="fill:#4CDBC4;" cx="312.2" cy="345.3" r="4.3"/>
	<circle style="fill:#4CDBC4;" cx="338.9" cy="345.3" r="4.3"/>
</g>
<g>
</g>
<g>
</g>
<g>
</g>
<g>
</g>
<g>
</g>
<g>
</g>
<g>
</g>
<g>
</g>
<g>
</g>
<g>
</g>
<g>
</g>
<g>
</g>
<g>
</g>
<g>
</g>
<g>
</g>
</svg>
