<?xml version="1.0" encoding="iso-8859-1"?>
<!-- Generator: Adobe Illustrator 19.0.0, SVG Export Plug-In . SVG Version: 6.00 Build 0)  -->
<svg version="1.1" id="Layer_1" xmlns="http://www.w3.org/2000/svg" xmlns:xlink="http://www.w3.org/1999/xlink" x="0px" y="0px"
	 viewBox="0 0 505 505" style="enable-background:new 0 0 505 505;" xml:space="preserve">
<circle style="fill:#90DFAA;" cx="252.5" cy="252.5" r="252.5"/>
<g>
	<path style="fill:#395767;" d="M288.6,331.9l47,61c4.1,5.3,11.4,6.6,17.1,3.1c5.6-3.5,7.7-10.7,4.7-16.7l-34.2-69L288.6,331.9z"/>
	<path style="fill:#395767;" d="M214.2,331.9l-47,61c-4.1,5.3-11.4,6.6-17.1,3.1c-5.6-3.5-7.7-10.7-4.7-16.7l34.2-69L214.2,331.9z"
		/>
</g>
<circle style="fill:#FF7058;" cx="251.4" cy="248.1" r="121.2"/>
<circle style="fill:#FFFFFF;" cx="251.4" cy="248.1" r="94.4"/>
<g>
	<path style="fill:#395767;" d="M384.6,187.1c17.8-18.5,17.6-47.9-0.6-66.2c-18.2-18.2-47.7-18.4-66.2-0.6L384.6,187.1z"/>
	<path style="fill:#395767;" d="M120.4,187.1c-17.8-18.5-17.6-47.9,0.6-66.2c18.2-18.2,47.7-18.4,66.2-0.6L120.4,187.1z"/>
	<circle style="fill:#395767;" cx="251.4" cy="168.5" r="5.2"/>
	<circle style="fill:#395767;" cx="251.4" cy="327.7" r="5.2"/>
	<circle style="fill:#395767;" cx="331" cy="248.1" r="5.2"/>
	<circle style="fill:#395767;" cx="171.8" cy="248.1" r="5.2"/>
</g>
<polygon style="fill:#54C0EB;" points="256.6,242.9 256.6,182.7 246.2,182.7 246.2,242.9 246.2,253.3 256.6,253.3 310.4,253.3 
	310.4,242.9 "/>
<g>
</g>
<g>
</g>
<g>
</g>
<g>
</g>
<g>
</g>
<g>
</g>
<g>
</g>
<g>
</g>
<g>
</g>
<g>
</g>
<g>
</g>
<g>
</g>
<g>
</g>
<g>
</g>
<g>
</g>
</svg>
