<?xml version="1.0" encoding="iso-8859-1"?>
<!-- Generator: Adobe Illustrator 19.0.0, SVG Export Plug-In . SVG Version: 6.00 Build 0)  -->
<svg version="1.1" id="Layer_1" xmlns="http://www.w3.org/2000/svg" xmlns:xlink="http://www.w3.org/1999/xlink" x="0px" y="0px"
	 viewBox="0 0 505 505" style="enable-background:new 0 0 505 505;" xml:space="preserve">
<circle style="fill:#324A5E;" cx="252.5" cy="252.5" r="252.5"/>
<path style="fill:#FFFFFF;" d="M396.3,399.4H108.7c-1.7,0-3.1-1.4-3.1-3.1V108.7c0-1.7,1.4-3.1,3.1-3.1h287.7c1.7,0,3.1,1.4,3.1,3.1
	v287.7C399.4,398,398,399.4,396.3,399.4z"/>
<path style="fill:#54C0EB;" d="M399.4,155.4v-37.7c0-6.7-5.4-12.1-12.1-12.1H117.7c-6.7,0-12.1,5.4-12.1,12.1v37.7H399.4z"/>
<g>
	<path style="fill:#324A5E;" d="M143.8,249.6h-3.1v-23.1c-0.2,0.2-0.6,0.5-1,0.8c-0.5,0.3-1,0.6-1.5,0.9c-0.6,0.3-1.2,0.6-1.8,0.8
		c-0.6,0.3-1.2,0.5-1.8,0.6v-3.1c0.7-0.2,1.4-0.4,2.1-0.8c0.8-0.3,1.5-0.7,2.2-1.1c0.7-0.4,1.4-0.8,2.1-1.2c0.6-0.4,1.2-0.8,1.7-1.3
		h1.2v27.5H143.8z"/>
	<path style="fill:#324A5E;" d="M170,236.1c0,2.2-0.2,4.2-0.6,6c-0.4,1.7-1,3.2-1.8,4.4s-1.7,2.1-2.8,2.7c-1.1,0.6-2.4,0.9-3.8,0.9
		c-1.3,0-2.5-0.3-3.6-0.9c-1.1-0.6-1.9-1.5-2.7-2.6c-0.7-1.1-1.3-2.5-1.6-4.2c-0.4-1.6-0.6-3.5-0.6-5.7c0-2.3,0.2-4.4,0.6-6.2
		c0.4-1.8,1-3.3,1.7-4.5c0.8-1.2,1.7-2.1,2.8-2.7c1.1-0.6,2.4-0.9,3.9-0.9C167.1,222.4,170,226.9,170,236.1z M166.8,236.4
		c0-7.6-1.8-11.4-5.4-11.4c-3.8,0-5.7,3.9-5.7,11.6c0,7.2,1.9,10.8,5.6,10.8C165,247.4,166.8,243.7,166.8,236.4z"/>
	<path style="fill:#324A5E;" d="M185,249.6h-3.1v-23.1c-0.2,0.2-0.6,0.5-1,0.8c-0.5,0.3-1,0.6-1.5,0.9c-0.6,0.3-1.2,0.6-1.8,0.8
		c-0.6,0.3-1.2,0.5-1.8,0.6v-3.1c0.7-0.2,1.4-0.4,2.1-0.8c0.8-0.3,1.5-0.7,2.2-1.1c0.7-0.4,1.4-0.8,2.1-1.2c0.6-0.4,1.2-0.8,1.7-1.3
		h1.2v27.5H185z"/>
	<path style="fill:#324A5E;" d="M211.2,236.1c0,2.2-0.2,4.2-0.6,6c-0.4,1.7-1,3.2-1.8,4.4s-1.7,2.1-2.8,2.7
		c-1.1,0.6-2.4,0.9-3.8,0.9c-1.3,0-2.5-0.3-3.6-0.9c-1.1-0.6-1.9-1.5-2.7-2.6c-0.7-1.1-1.3-2.5-1.6-4.2c-0.4-1.6-0.6-3.5-0.6-5.7
		c0-2.3,0.2-4.4,0.6-6.2c0.4-1.8,1-3.3,1.7-4.5s1.7-2.1,2.8-2.7c1.1-0.6,2.4-0.9,3.9-0.9C208.3,222.4,211.2,226.9,211.2,236.1z
		 M208,236.4c0-7.6-1.8-11.4-5.4-11.4c-3.8,0-5.7,3.9-5.7,11.6c0,7.2,1.9,10.8,5.6,10.8C206.2,247.4,208,243.7,208,236.4z"/>
	<path style="fill:#324A5E;" d="M226.2,249.6h-3.1v-23.1c-0.2,0.2-0.6,0.5-1,0.8c-0.5,0.3-1,0.6-1.5,0.9c-0.6,0.3-1.2,0.6-1.8,0.8
		c-0.6,0.3-1.2,0.5-1.8,0.6v-3.1c0.7-0.2,1.4-0.4,2.1-0.8c0.8-0.3,1.5-0.7,2.2-1.1c0.7-0.4,1.4-0.8,2.1-1.2c0.6-0.4,1.2-0.8,1.7-1.3
		h1.2v27.5H226.2z"/>
	<path style="fill:#324A5E;" d="M246.8,249.6h-3.1v-23.1c-0.2,0.2-0.6,0.5-1,0.8c-0.5,0.3-1,0.6-1.5,0.9c-0.6,0.3-1.2,0.6-1.8,0.8
		c-0.6,0.3-1.2,0.5-1.8,0.6v-3.1c0.7-0.2,1.4-0.4,2.1-0.8c0.8-0.3,1.5-0.7,2.2-1.1c0.7-0.4,1.4-0.8,2.1-1.2c0.6-0.4,1.2-0.8,1.7-1.3
		h1.2v27.5H246.8z"/>
	<path style="fill:#324A5E;" d="M143.8,295.4h-3.1v-23.1c-0.2,0.2-0.6,0.5-1,0.8c-0.5,0.3-1,0.6-1.5,0.9c-0.6,0.3-1.2,0.6-1.8,0.8
		c-0.6,0.3-1.2,0.5-1.8,0.6v-3.1c0.7-0.2,1.4-0.4,2.1-0.8c0.8-0.3,1.5-0.7,2.2-1.1s1.4-0.8,2.1-1.2c0.6-0.4,1.2-0.8,1.7-1.3h1.2
		v27.5H143.8z"/>
	<path style="fill:#324A5E;" d="M164.4,295.4h-3.1v-23.1c-0.2,0.2-0.6,0.5-1,0.8c-0.5,0.3-1,0.6-1.5,0.9c-0.6,0.3-1.2,0.6-1.8,0.8
		c-0.6,0.3-1.2,0.5-1.8,0.6v-3.1c0.7-0.2,1.4-0.4,2.1-0.8c0.8-0.3,1.5-0.7,2.2-1.1s1.4-0.8,2.1-1.2c0.6-0.4,1.2-0.8,1.7-1.3h1.2
		v27.5H164.4z"/>
	<path style="fill:#324A5E;" d="M190.6,281.9c0,2.2-0.2,4.2-0.6,6c-0.4,1.7-1,3.2-1.8,4.4c-0.8,1.2-1.7,2.1-2.8,2.7
		s-2.4,0.9-3.8,0.9c-1.3,0-2.5-0.3-3.6-0.9s-1.9-1.5-2.7-2.6c-0.7-1.1-1.3-2.5-1.6-4.2c-0.4-1.6-0.6-3.5-0.6-5.7
		c0-2.3,0.2-4.4,0.6-6.2c0.4-1.8,1-3.3,1.7-4.5c0.8-1.2,1.7-2.1,2.8-2.7s2.4-0.9,3.9-0.9C187.7,268.2,190.6,272.8,190.6,281.9z
		 M187.4,282.2c0-7.6-1.8-11.4-5.4-11.4c-3.8,0-5.7,3.9-5.7,11.6c0,7.2,1.9,10.8,5.6,10.8C185.6,293.3,187.4,289.6,187.4,282.2z"/>
	<path style="fill:#324A5E;" d="M205.6,295.4h-3.1v-23.1c-0.2,0.2-0.6,0.5-1,0.8c-0.5,0.3-1,0.6-1.5,0.9c-0.6,0.3-1.2,0.6-1.8,0.8
		c-0.6,0.3-1.2,0.5-1.8,0.6v-3.1c0.7-0.2,1.4-0.4,2.1-0.8c0.8-0.3,1.5-0.7,2.2-1.1s1.4-0.8,2.1-1.2c0.6-0.4,1.2-0.8,1.7-1.3h1.2
		v27.5H205.6z"/>
	<path style="fill:#324A5E;" d="M231.8,281.9c0,2.2-0.2,4.2-0.6,6c-0.4,1.7-1,3.2-1.8,4.4c-0.8,1.2-1.7,2.1-2.8,2.7
		s-2.4,0.9-3.8,0.9c-1.3,0-2.5-0.3-3.6-0.9s-1.9-1.5-2.7-2.6c-0.7-1.1-1.3-2.5-1.6-4.2c-0.4-1.6-0.6-3.5-0.6-5.7
		c0-2.3,0.2-4.4,0.6-6.2c0.4-1.8,1-3.3,1.7-4.5c0.8-1.2,1.7-2.1,2.8-2.7s2.4-0.9,3.9-0.9C228.9,268.2,231.8,272.8,231.8,281.9z
		 M228.6,282.2c0-7.6-1.8-11.4-5.4-11.4c-3.8,0-5.7,3.9-5.7,11.6c0,7.2,1.9,10.8,5.6,10.8C226.8,293.3,228.6,289.6,228.6,282.2z"/>
	<path style="fill:#324A5E;" d="M246.8,295.4h-3.1v-23.1c-0.2,0.2-0.6,0.5-1,0.8c-0.5,0.3-1,0.6-1.5,0.9c-0.6,0.3-1.2,0.6-1.8,0.8
		c-0.6,0.3-1.2,0.5-1.8,0.6v-3.1c0.7-0.2,1.4-0.4,2.1-0.8c0.8-0.3,1.5-0.7,2.2-1.1s1.4-0.8,2.1-1.2c0.6-0.4,1.2-0.8,1.7-1.3h1.2
		v27.5H246.8z"/>
	<path style="fill:#324A5E;" d="M267.4,295.4h-3.1v-23.1c-0.2,0.2-0.6,0.5-1,0.8c-0.5,0.3-1,0.6-1.5,0.9c-0.6,0.3-1.2,0.6-1.8,0.8
		c-0.6,0.3-1.2,0.5-1.8,0.6v-3.1c0.7-0.2,1.4-0.4,2.1-0.8c0.8-0.3,1.5-0.7,2.2-1.1s1.4-0.8,2.1-1.2c0.6-0.4,1.2-0.8,1.7-1.3h1.2
		v27.5H267.4z"/>
	<path style="fill:#324A5E;" d="M288,295.4h-3.1v-23.1c-0.2,0.2-0.6,0.5-1,0.8c-0.5,0.3-1,0.6-1.5,0.9c-0.6,0.3-1.2,0.6-1.8,0.8
		c-0.6,0.3-1.2,0.5-1.8,0.6v-3.1c0.7-0.2,1.4-0.4,2.1-0.8c0.8-0.3,1.5-0.7,2.2-1.1s1.4-0.8,2.1-1.2c0.6-0.4,1.2-0.8,1.7-1.3h1.2
		v27.5H288z"/>
	<path style="fill:#324A5E;" d="M314.1,281.9c0,2.2-0.2,4.2-0.6,6c-0.4,1.7-1,3.2-1.8,4.4c-0.8,1.2-1.7,2.1-2.8,2.7
		c-1.1,0.6-2.4,0.9-3.8,0.9c-1.3,0-2.5-0.3-3.6-0.9s-1.9-1.5-2.7-2.6s-1.3-2.5-1.6-4.2c-0.4-1.6-0.6-3.5-0.6-5.7
		c0-2.3,0.2-4.4,0.6-6.2c0.4-1.8,1-3.3,1.7-4.5c0.8-1.2,1.7-2.1,2.8-2.7c1.1-0.6,2.4-0.9,3.9-0.9
		C311.3,268.2,314.1,272.8,314.1,281.9z M311,282.2c0-7.6-1.8-11.4-5.4-11.4c-3.8,0-5.7,3.9-5.7,11.6c0,7.2,1.9,10.8,5.6,10.8
		C309.2,293.3,311,289.6,311,282.2z"/>
	<path style="fill:#324A5E;" d="M329.2,295.4h-3.1v-23.1c-0.2,0.2-0.6,0.5-1,0.8c-0.5,0.3-1,0.6-1.5,0.9c-0.6,0.3-1.2,0.6-1.8,0.8
		c-0.6,0.3-1.2,0.5-1.8,0.6v-3.1c0.7-0.2,1.4-0.4,2.1-0.8c0.8-0.3,1.5-0.7,2.2-1.1s1.4-0.8,2.1-1.2c0.6-0.4,1.2-0.8,1.7-1.3h1.2
		v27.5H329.2z"/>
	<path style="fill:#324A5E;" d="M355.3,281.9c0,2.2-0.2,4.2-0.6,6c-0.4,1.7-1,3.2-1.8,4.4c-0.8,1.2-1.7,2.1-2.8,2.7
		c-1.1,0.6-2.4,0.9-3.8,0.9c-1.3,0-2.5-0.3-3.6-0.9s-1.9-1.5-2.7-2.6c-0.7-1.1-1.3-2.5-1.6-4.2c-0.4-1.6-0.6-3.5-0.6-5.7
		c0-2.3,0.2-4.4,0.6-6.2c0.4-1.8,1-3.3,1.7-4.5c0.8-1.2,1.7-2.1,2.8-2.7c1.1-0.6,2.4-0.9,3.9-0.9
		C352.5,268.2,355.3,272.8,355.3,281.9z M352.2,282.2c0-7.6-1.8-11.4-5.4-11.4c-3.8,0-5.7,3.9-5.7,11.6c0,7.2,1.9,10.8,5.6,10.8
		C350.4,293.3,352.2,289.6,352.2,282.2z"/>
	<path style="fill:#324A5E;" d="M370.4,295.4h-3.1v-23.1c-0.2,0.2-0.6,0.5-1,0.8c-0.5,0.3-1,0.6-1.5,0.9c-0.6,0.3-1.2,0.6-1.8,0.8
		c-0.6,0.3-1.2,0.5-1.8,0.6v-3.1c0.7-0.2,1.4-0.4,2.1-0.8c0.8-0.3,1.5-0.7,2.2-1.1s1.4-0.8,2.1-1.2c0.6-0.4,1.2-0.8,1.7-1.3h1.2
		v27.5H370.4z"/>
	<path style="fill:#324A5E;" d="M201.7,327.8c0,2.2-0.2,4.2-0.6,6c-0.4,1.7-1,3.2-1.8,4.4s-1.7,2.1-2.8,2.7s-2.4,0.9-3.8,0.9
		c-1.3,0-2.5-0.3-3.6-0.9s-1.9-1.5-2.7-2.6c-0.7-1.1-1.3-2.5-1.6-4.2c-0.4-1.6-0.6-3.5-0.6-5.7c0-2.3,0.2-4.4,0.6-6.2
		c0.4-1.8,1-3.3,1.7-4.5c0.8-1.2,1.7-2.1,2.8-2.7s2.4-0.9,3.9-0.9C198.9,314.1,201.7,318.6,201.7,327.8z M198.6,328.1
		c0-7.6-1.8-11.4-5.4-11.4c-3.8,0-5.7,3.9-5.7,11.6c0,7.2,1.9,10.8,5.6,10.8C196.7,339.1,198.6,335.4,198.6,328.1z"/>
	<path style="fill:#324A5E;" d="M216.8,341.3h-3.1v-23.1c-0.2,0.2-0.6,0.5-1,0.8c-0.5,0.3-1,0.6-1.5,0.9c-0.6,0.3-1.2,0.6-1.8,0.8
		c-0.6,0.3-1.2,0.5-1.8,0.6v-3.1c0.7-0.2,1.4-0.4,2.1-0.8c0.8-0.3,1.5-0.7,2.2-1.1s1.4-0.8,2.1-1.2c0.6-0.4,1.2-0.8,1.7-1.3h1.2
		v27.5H216.8z"/>
	<path style="fill:#324A5E;" d="M237.4,341.3h-3.1v-23.1c-0.2,0.2-0.6,0.5-1,0.8c-0.5,0.3-1,0.6-1.5,0.9c-0.6,0.3-1.2,0.6-1.8,0.8
		c-0.6,0.3-1.2,0.5-1.8,0.6v-3.1c0.7-0.2,1.4-0.4,2.1-0.8c0.8-0.3,1.5-0.7,2.2-1.1s1.4-0.8,2.1-1.2c0.6-0.4,1.2-0.8,1.7-1.3h1.2
		v27.5H237.4z"/>
	<path style="fill:#324A5E;" d="M263.5,327.8c0,2.2-0.2,4.2-0.6,6c-0.4,1.7-1,3.2-1.8,4.4c-0.8,1.2-1.7,2.1-2.8,2.7
		c-1.1,0.6-2.4,0.9-3.8,0.9c-1.3,0-2.5-0.3-3.6-0.9s-1.9-1.5-2.7-2.6c-0.7-1.1-1.3-2.5-1.6-4.2c-0.4-1.6-0.6-3.5-0.6-5.7
		c0-2.3,0.2-4.4,0.6-6.2s1-3.3,1.7-4.5c0.8-1.2,1.7-2.1,2.8-2.7s2.4-0.9,3.9-0.9C260.7,314.1,263.5,318.6,263.5,327.8z M260.4,328.1
		c0-7.6-1.8-11.4-5.4-11.4c-3.8,0-5.7,3.9-5.7,11.6c0,7.2,1.9,10.8,5.6,10.8C258.5,339.1,260.4,335.4,260.4,328.1z"/>
	<path style="fill:#324A5E;" d="M284.1,327.8c0,2.2-0.2,4.2-0.6,6c-0.4,1.7-1,3.2-1.8,4.4s-1.7,2.1-2.8,2.7
		c-1.1,0.6-2.4,0.9-3.8,0.9c-1.3,0-2.5-0.3-3.6-0.9s-1.9-1.5-2.7-2.6c-0.7-1.1-1.3-2.5-1.6-4.2c-0.4-1.6-0.6-3.5-0.6-5.7
		c0-2.3,0.2-4.4,0.6-6.2c0.4-1.8,1-3.3,1.7-4.5c0.8-1.2,1.7-2.1,2.8-2.7c1.1-0.6,2.4-0.9,3.9-0.9
		C281.3,314.1,284.1,318.6,284.1,327.8z M281,328.1c0-7.6-1.8-11.4-5.4-11.4c-3.8,0-5.7,3.9-5.7,11.6c0,7.2,1.9,10.8,5.6,10.8
		C279.1,339.1,281,335.4,281,328.1z"/>
	<path style="fill:#324A5E;" d="M304.7,327.8c0,2.2-0.2,4.2-0.6,6c-0.4,1.7-1,3.2-1.8,4.4c-0.8,1.2-1.7,2.1-2.8,2.7
		c-1.1,0.6-2.4,0.9-3.8,0.9c-1.3,0-2.5-0.3-3.6-0.9s-1.9-1.5-2.7-2.6c-0.7-1.1-1.3-2.5-1.6-4.2c-0.4-1.6-0.6-3.5-0.6-5.7
		c0-2.3,0.2-4.4,0.6-6.2c0.4-1.8,1-3.3,1.7-4.5c0.8-1.2,1.7-2.1,2.8-2.7c1.1-0.6,2.4-0.9,3.9-0.9
		C301.9,314.1,304.7,318.6,304.7,327.8z M301.6,328.1c0-7.6-1.8-11.4-5.4-11.4c-3.8,0-5.7,3.9-5.7,11.6c0,7.2,1.9,10.8,5.6,10.8
		C299.7,339.1,301.6,335.4,301.6,328.1z"/>
</g>
<g>
	<circle style="fill:#FFFFFF;" cx="366.3" cy="130.5" r="10.1"/>
	<circle style="fill:#FFFFFF;" cx="332.8" cy="130.5" r="10.1"/>
	<circle style="fill:#FFFFFF;" cx="299.4" cy="130.5" r="10.1"/>
</g>
<g>
</g>
<g>
</g>
<g>
</g>
<g>
</g>
<g>
</g>
<g>
</g>
<g>
</g>
<g>
</g>
<g>
</g>
<g>
</g>
<g>
</g>
<g>
</g>
<g>
</g>
<g>
</g>
<g>
</g>
</svg>
