<?xml version="1.0" encoding="iso-8859-1"?>
<!-- Generator: Adobe Illustrator 19.0.0, SVG Export Plug-In . SVG Version: 6.00 Build 0)  -->
<svg version="1.1" id="Layer_1" xmlns="http://www.w3.org/2000/svg" xmlns:xlink="http://www.w3.org/1999/xlink" x="0px" y="0px"
	 viewBox="0 0 505 505" style="enable-background:new 0 0 505 505;" xml:space="preserve">
<circle style="fill:#FD8469;" cx="252.5" cy="252.5" r="252.5"/>
<path style="fill:#FFFFFF;" d="M333.1,387.2h-71.9v-71.7h-17.3v71.8H172c-0.9,0-1.6,0.7-1.6,1.6v13.6c0,0.9,0.7,1.6,1.6,1.6h71.9
	h17.3h71.9c0.9,0,1.6-0.7,1.6-1.6v-13.6C334.7,388,334,387.2,333.1,387.2z"/>
<circle style="fill:#FFD05B;" cx="252.5" cy="395.4" r="18.8"/>
<path style="fill:#324A5E;" d="M404.2,338.7H100.8c-1.6,0-2.9-1.3-2.9-2.9V93.7c0-1.6,1.3-2.9,2.9-2.9h303.3c1.6,0,2.9,1.3,2.9,2.9
	v242.1C407,337.4,405.7,338.7,404.2,338.7z"/>
<rect x="114.4" y="148.4" style="fill:#FFFFFF;" width="276.1" height="173.8"/>
<g>
	<circle style="fill:#54C0EB;" cx="373.9" cy="118.7" r="10.2"/>
	<circle style="fill:#54C0EB;" cx="338.3" cy="118.7" r="10.2"/>
	<circle style="fill:#54C0EB;" cx="302.7" cy="118.7" r="10.2"/>
</g>
<g>
	<path style="fill:#CED5E0;" d="M176.9,237.1v-11.9l42.4-20V218l-28,12.9l28,13.2V257L176.9,237.1z"/>
	<path style="fill:#CED5E0;" d="M264.6,195.3H277l-36.6,80h-12.3L264.6,195.3z"/>
	<path style="fill:#CED5E0;" d="M328.1,225.1V237l-42.4,20v-12.9l28-13.2l-28-12.9v-12.8L328.1,225.1z"/>
</g>
<g>
</g>
<g>
</g>
<g>
</g>
<g>
</g>
<g>
</g>
<g>
</g>
<g>
</g>
<g>
</g>
<g>
</g>
<g>
</g>
<g>
</g>
<g>
</g>
<g>
</g>
<g>
</g>
<g>
</g>
</svg>
