<?xml version="1.0" encoding="iso-8859-1"?>
<!-- Generator: Adobe Illustrator 19.0.0, SVG Export Plug-In . SVG Version: 6.00 Build 0)  -->
<svg version="1.1" id="Layer_1" xmlns="http://www.w3.org/2000/svg" xmlns:xlink="http://www.w3.org/1999/xlink" x="0px" y="0px"
	 viewBox="0 0 505 505" style="enable-background:new 0 0 505 505;" xml:space="preserve">
<circle style="fill:#324A5E;" cx="252.5" cy="252.5" r="252.5"/>
<path style="fill:#4CDBC4;" d="M309.8,167.5H112.2c-9.1,0-16.4,7.3-16.4,16.4V315c0,9.1,7.3,16.4,16.4,16.4h14.3l-10,56.6l63-56.6
	h130.3c9.1,0,16.4-7.3,16.4-16.4V183.9C326.2,174.8,318.9,167.5,309.8,167.5z"/>
<path style="fill:#FFFFFF;" d="M392.8,117.1H195.2c-9.1,0-16.4,7.3-16.4,16.4v131.1c0,9.1,7.3,16.4,16.4,16.4h130.3l63,56.6
	l-10-56.6h14.3c9.1,0,16.4-7.3,16.4-16.4V133.5C409.2,124.4,401.9,117.1,392.8,117.1z"/>
<g>
	<path style="fill:#FF7058;" d="M242.4,210.4L242.4,210.4c-6.3,0-11.4-5.1-11.4-11.4l0,0c0-6.3,5.1-11.4,11.4-11.4l0,0
		c6.3,0,11.4,5.1,11.4,11.4l0,0C253.8,205.3,248.7,210.4,242.4,210.4z"/>
	<path style="fill:#FF7058;" d="M294,210.4L294,210.4c-6.3,0-11.4-5.1-11.4-11.4l0,0c0-6.3,5.1-11.4,11.4-11.4l0,0
		c6.3,0,11.4,5.1,11.4,11.4l0,0C305.4,205.3,300.3,210.4,294,210.4z"/>
	<path style="fill:#FF7058;" d="M345.6,210.4L345.6,210.4c-6.3,0-11.4-5.1-11.4-11.4l0,0c0-6.3,5.1-11.4,11.4-11.4l0,0
		c6.3,0,11.4,5.1,11.4,11.4l0,0C357.1,205.3,351.9,210.4,345.6,210.4z"/>
</g>
<g>
</g>
<g>
</g>
<g>
</g>
<g>
</g>
<g>
</g>
<g>
</g>
<g>
</g>
<g>
</g>
<g>
</g>
<g>
</g>
<g>
</g>
<g>
</g>
<g>
</g>
<g>
</g>
<g>
</g>
</svg>
