<?xml version="1.0" encoding="iso-8859-1"?>
<!-- Generator: Adobe Illustrator 19.0.0, SVG Export Plug-In . SVG Version: 6.00 Build 0)  -->
<svg version="1.1" id="Layer_1" xmlns="http://www.w3.org/2000/svg" xmlns:xlink="http://www.w3.org/1999/xlink" x="0px" y="0px"
	 viewBox="0 0 505 505" style="enable-background:new 0 0 505 505;" xml:space="preserve">
<circle style="fill:#90DFAA;" cx="252.5" cy="252.5" r="252.5"/>
<path style="fill:#FFFFFF;" d="M380.5,171.5h-8.2c0.2-2,0.3-4,0.3-6.1c0-37.3-30.2-67.6-67.6-67.6c-15.4,0-29.5,5.2-40.9,13.9
	C248.7,85.1,220,67.1,187,67.1c-49.2,0-89,39.8-89,89c0,7.3,1,14.3,2.6,21c-17.6,8.8-29.8,26.9-29.8,48c0,29.6,24,53.6,53.6,53.6
	h256.1c29.6,0,53.6-24,53.6-53.6S410.1,171.5,380.5,171.5z"/>
<path style="fill:#395767;" d="M385.6,395.4v71.8c-4.1,2.6-8.3,5-12.6,7.3v-79.1c0-8.1-6.6-14.7-14.6-14.7H180.9
	c-15,0-27.3-12.2-27.3-27.2s12.2-27.3,27.3-27.3h93.9c8.1,0,14.6-6.6,14.6-14.7v-56.9H302v56.9c0,15-12.2,27.3-27.3,27.3h-93.9
	c-8.1,0-14.7,6.6-14.7,14.7c0,8,6.6,14.6,14.7,14.6h177.4C373.4,368.1,385.6,380.3,385.6,395.4z"/>
<path style="fill:#F1543F;" d="M257.2,204.8v28.7c0,20.2,16.3,36.5,36.5,36.5l0,0c20.2,0,36.5-16.3,36.5-36.5v-28.7H257.2z"/>
<g>
	<path style="fill:#324A5E;" d="M270.7,155.2c-3.2,0-5.8,2.6-5.8,5.8v31.6h11.7V161C276.6,157.8,274,155.2,270.7,155.2z"/>
	<path style="fill:#324A5E;" d="M316.7,155.2c-3.2,0-5.8,2.6-5.8,5.8v31.6h11.6V161C322.5,157.8,319.9,155.2,316.7,155.2z"/>
</g>
<rect x="252.5" y="192.7" style="fill:#FF7058;" width="82.4" height="13.4"/>
<g>
</g>
<g>
</g>
<g>
</g>
<g>
</g>
<g>
</g>
<g>
</g>
<g>
</g>
<g>
</g>
<g>
</g>
<g>
</g>
<g>
</g>
<g>
</g>
<g>
</g>
<g>
</g>
<g>
</g>
</svg>
