<?xml version="1.0" encoding="iso-8859-1"?>
<!-- Generator: Adobe Illustrator 19.0.0, SVG Export Plug-In . SVG Version: 6.00 Build 0)  -->
<svg version="1.1" id="Layer_1" xmlns="http://www.w3.org/2000/svg" xmlns:xlink="http://www.w3.org/1999/xlink" x="0px" y="0px"
	 viewBox="0 0 505 505" style="enable-background:new 0 0 505 505;" xml:space="preserve">
<circle style="fill:#90DFAA;" cx="252.5" cy="252.5" r="252.5"/>
<path style="fill:#2C9984;" d="M66.3,423c46.2,50.4,112.5,82,186.2,82s140.1-31.6,186.2-82H66.3z"/>
<rect x="202.9" y="362.3" style="fill:#FFFFFF;" width="99.2" height="41.3"/>
<g>
	<rect x="202.9" y="362.3" style="fill:#E6E9EE;" width="99.2" height="12.5"/>
	<path style="fill:#E6E9EE;" d="M327.8,403.6H177.2c-0.3,0-0.6,0.3-0.6,0.6v18.3c0,0.3,0.3,0.6,0.6,0.6h150.6c0.3,0,0.6-0.3,0.6-0.6
		v-18.3C328.4,403.9,328.1,403.6,327.8,403.6z"/>
</g>
<path style="fill:#FFFFFF;" d="M411.4,108H93.6c-2.1,0-3.8,1.7-3.8,3.8v246.8c0,2.1,1.7,3.8,3.8,3.8h317.8c2.1,0,3.8-1.7,3.8-3.8
	V111.8C415.2,109.7,413.5,108,411.4,108z"/>
<rect x="107.9" y="126.1" style="fill:#54C0EB;" width="289.2" height="191.6"/>
<path style="fill:#FFFFFF;" d="M315.6,161.6c-28.2,4.6-53.9-12.1-62.2-18.1c-0.5-0.4-1.3-0.4-1.8,0c-8.2,6-34,22.7-62.2,18.1
	c-0.8-0.1-1.6,0.4-1.6,1.2V208c0,0,1.4,64.7,64.1,92.5c0.4,0.2,0.9,0.2,1.3,0c62.7-27.9,64.1-92.5,64.1-92.5v-45.2
	C317.2,162,316.4,161.5,315.6,161.6z"/>
<path style="fill:#EDF2F2;" d="M303.3,224.1c2-8.6,2.2-14.5,2.3-15.2v-35.3c-1.1,0.1-2.2,0.1-3.3,0.1c-21.5,0-40.1-10.2-49.7-16.6
	l0,0v67H303.3z"/>
<path style="fill:#FF7058;" d="M252.5,157c-9.6,6.4-28.2,16.6-49.7,16.6l0,0c-1.1,0-2.2,0-3.3-0.1v35.1c0,0.2,0.2,6.3,2.4,15.3h50.6
	V157z"/>
<path style="fill:#EDF2F2;" d="M201.9,224.1c4.3,18,16.5,47.3,50.6,63.5v-63.5H201.9z"/>
<path style="fill:#FF7058;" d="M252.5,224.1v63.5l0,0c34.5-16.3,46.5-45.6,50.8-63.5H252.5z"/>
<g>
</g>
<g>
</g>
<g>
</g>
<g>
</g>
<g>
</g>
<g>
</g>
<g>
</g>
<g>
</g>
<g>
</g>
<g>
</g>
<g>
</g>
<g>
</g>
<g>
</g>
<g>
</g>
<g>
</g>
</svg>
