<?xml version="1.0" encoding="iso-8859-1"?>
<!-- Generator: Adobe Illustrator 19.0.0, SVG Export Plug-In . SVG Version: 6.00 Build 0)  -->
<svg version="1.1" id="Layer_1" xmlns="http://www.w3.org/2000/svg" xmlns:xlink="http://www.w3.org/1999/xlink" x="0px" y="0px"
	 viewBox="0 0 505 505" style="enable-background:new 0 0 505 505;" xml:space="preserve">
<circle style="fill:#324A5E;" cx="252.5" cy="252.5" r="252.5"/>
<path style="fill:#2B3B4E;" d="M44.8,396.1C90.4,461.9,166.4,505,252.5,505s162.1-43.1,207.7-108.9H44.8z"/>
<path style="fill:#E6E9EE;" d="M413.1,121H289.4c-3.3,0-5.9,2.6-5.9,5.9v263.3c0,3.3,2.6,5.9,5.9,5.9h123.7c3.3,0,5.9-2.6,5.9-5.9
	V126.9C419,123.7,416.4,121,413.1,121z"/>
<g>
	<rect x="300.1" y="138.4" style="fill:#ACB3BA;" width="102.3" height="32.4"/>
	<rect x="300.1" y="187.2" style="fill:#ACB3BA;" width="102.3" height="32.4"/>
</g>
<path style="fill:#FFFFFF;" d="M235.4,381.2c-23.1,2.1-46.2,2.1-69.3,0c5.1-9.3,5.1-24.8,0-34.1c23.1-2.1,46.2-2.1,69.3,0
	C230.3,356.4,230.3,371.8,235.4,381.2z"/>
<g>
	<path style="fill:#E6E9EE;" d="M231.7,361.1c0.4-5.1,1.5-10.1,3.7-14c-23.1-2.1-46.2-2.1-69.3,0c2.1,3.9,3.3,8.9,3.7,14H231.7z"/>
	<path style="fill:#E6E9EE;" d="M261.1,381.2H140.3c-0.3,0-0.5,0.2-0.5,0.5v14.1c0,0.3,0.2,0.5,0.5,0.5h120.8c0.3,0,0.5-0.2,0.5-0.5
		v-14.1C261.6,381.4,261.4,381.2,261.1,381.2z"/>
</g>
<circle style="fill:#FF7058;" cx="351.2" cy="344.7" r="9.6"/>
<path style="fill:#FFFFFF;" d="M322.7,151.9h-244c-1.6,0-2.9,1.3-2.9,2.9v189.4c0,1.6,1.3,2.9,2.9,2.9h244c1.6,0,2.9-1.3,2.9-2.9
	V154.8C325.6,153.2,324.3,151.9,322.7,151.9z"/>
<rect x="89.7" y="165.8" style="fill:#54C0EB;" width="222" height="147.1"/>
<circle style="fill:#E6E9EE;" cx="200.7" cy="330.2" r="9.5"/>
<g>
</g>
<g>
</g>
<g>
</g>
<g>
</g>
<g>
</g>
<g>
</g>
<g>
</g>
<g>
</g>
<g>
</g>
<g>
</g>
<g>
</g>
<g>
</g>
<g>
</g>
<g>
</g>
<g>
</g>
</svg>
