<?xml version="1.0" encoding="iso-8859-1"?>
<!-- Generator: Adobe Illustrator 19.0.0, SVG Export Plug-In . SVG Version: 6.00 Build 0)  -->
<svg version="1.1" id="Layer_1" xmlns="http://www.w3.org/2000/svg" xmlns:xlink="http://www.w3.org/1999/xlink" x="0px" y="0px"
	 viewBox="0 0 505 505" style="enable-background:new 0 0 505 505;" xml:space="preserve">
<circle style="fill:#84DBFF;" cx="252.5" cy="252.5" r="252.5"/>
<path style="fill:#324A5E;" d="M328.1,401.1h-69v-68.9h-16.6v68.9h-69c-0.9,0-1.6,0.7-1.6,1.6v13.1c0,0.9,0.7,1.6,1.6,1.6h69h16.6
	h69c0.9,0,1.6-0.7,1.6-1.6v-13.1C329.7,401.8,329,401.1,328.1,401.1z"/>
<circle style="fill:#FFD05B;" cx="250.8" cy="408.9" r="18"/>
<polygon style="fill:#FFFFFF;" points="312.9,78.1 140.9,78.1 140.9,350.2 364.1,350.2 364.1,129.3 "/>
<polygon style="fill:#EDF2F2;" points="312.9,129.3 364.1,129.3 312.9,78.1 "/>
<rect x="185.1" y="251.3" style="fill:#4CDBC4;" width="26.5" height="51"/>
<rect x="239.3" y="223.4" style="fill:#FFD05B;" width="26.5" height="78.9"/>
<rect x="293.4" y="180.2" style="fill:#84DBFF;" width="26.5" height="122.1"/>
<g>
</g>
<g>
</g>
<g>
</g>
<g>
</g>
<g>
</g>
<g>
</g>
<g>
</g>
<g>
</g>
<g>
</g>
<g>
</g>
<g>
</g>
<g>
</g>
<g>
</g>
<g>
</g>
<g>
</g>
</svg>
