<?xml version="1.0" encoding="iso-8859-1"?>
<!-- Generator: Adobe Illustrator 19.0.0, SVG Export Plug-In . SVG Version: 6.00 Build 0)  -->
<svg version="1.1" id="Layer_1" xmlns="http://www.w3.org/2000/svg" xmlns:xlink="http://www.w3.org/1999/xlink" x="0px" y="0px"
	 viewBox="0 0 505 505" style="enable-background:new 0 0 505 505;" xml:space="preserve">
<circle style="fill:#54C0EB;" cx="252.5" cy="252.5" r="252.5"/>
<polygon style="fill:#FFFFFF;" points="319.2,102.3 129.3,102.3 129.3,402.7 375.7,402.7 375.7,158.9 "/>
<g>
	<rect x="163.8" y="282" style="fill:#E6E9EE;" width="177.5" height="10"/>
	<rect x="163.8" y="313.7" style="fill:#E6E9EE;" width="177.5" height="10"/>
	<rect x="163.8" y="345.4" style="fill:#E6E9EE;" width="101.9" height="10"/>
</g>
<path style="fill:#FF7058;" d="M237.8,215.7c-0.5-1.3-0.8-2.7-1-4.3s-0.3-3.1-0.3-4.5c0-2.2,0.3-4.2,0.8-6.1
	c0.5-1.8,1.2-3.5,2.1-5.1c0.9-1.6,2-3.1,3.3-4.6c1.3-1.4,2.9-2.9,4.6-4.3c1.9-1.5,3.5-2.9,4.9-4.2s2.6-2.6,3.6-3.9
	c1-1.3,1.7-2.7,2.3-4.1c0.5-1.4,0.8-3,0.8-4.7c0-1.5-0.2-2.9-0.7-4.2s-1.2-2.4-2.2-3.3c-1-0.9-2.2-1.7-3.6-2.2s-3-0.9-4.7-0.9
	c-3.8-0.1-7.7,0.6-11.8,2.1s-8,3.8-11.6,6.9l0.4-21.8c3.8-2.1,7.8-3.7,12.3-4.7c4.4-1,9-1.5,13.6-1.4c4.5,0.1,8.6,0.7,12.5,1.7
	c3.8,1.1,7.2,2.7,10,4.9s5,4.9,6.6,8.3c1.6,3.3,2.3,7.3,2.2,12c-0.1,2.9-0.5,5.6-1.2,8s-1.8,4.6-3.1,6.7c-1.3,2.1-3,4.1-5,6
	s-4.2,3.9-6.8,5.9c-1.7,1.4-3.2,2.6-4.5,3.8s-2.4,2.4-3.3,3.5c-0.9,1.2-1.5,2.4-2,3.7s-0.7,2.8-0.7,4.5c0,1.2,0.1,2.3,0.4,3.6
	c0.3,1.2,0.7,2.2,1.2,3.1L237.8,215.7z M247.7,247.6c-3.9-0.1-7-1.3-9.6-3.7c-2.5-2.5-3.7-5.3-3.7-8.6c0.1-3.4,1.4-6.2,4-8.4
	s5.8-3.3,9.7-3.2c3.8,0.1,6.9,1.3,9.4,3.6s3.7,5.1,3.6,8.5c-0.1,3.5-1.4,6.3-3.9,8.5C254.8,246.6,251.6,247.6,247.7,247.6z"/>
<polygon style="fill:#EDF2F2;" points="319.2,158.9 375.7,158.9 319.2,102.3 "/>
<g>
</g>
<g>
</g>
<g>
</g>
<g>
</g>
<g>
</g>
<g>
</g>
<g>
</g>
<g>
</g>
<g>
</g>
<g>
</g>
<g>
</g>
<g>
</g>
<g>
</g>
<g>
</g>
<g>
</g>
</svg>
