<?xml version="1.0" encoding="iso-8859-1"?>
<!-- Generator: Adobe Illustrator 19.0.0, SVG Export Plug-In . SVG Version: 6.00 Build 0)  -->
<svg version="1.1" id="Layer_1" xmlns="http://www.w3.org/2000/svg" xmlns:xlink="http://www.w3.org/1999/xlink" x="0px" y="0px"
	 viewBox="0 0 505 505" style="enable-background:new 0 0 505 505;" xml:space="preserve">
<circle style="fill:#54C0EB;" cx="252.5" cy="252.5" r="252.5"/>
<path style="fill:#FFFFFF;" d="M404.5,382.5L289.9,215.4v-123h-74.8v123.3L100.5,382.2c-6.9,10,0.3,23.6,12.4,23.6l279.2,0.2
	C404.2,406.1,411.4,392.5,404.5,382.5z"/>
<polygon style="fill:#FFD05B;" points="175.9,299.6 112.9,390 390.7,390.2 328.4,299.6 "/>
<path style="fill:#EDF2F2;" d="M290.6,92.3h-76.1c-3.2,0-5.7,2.6-5.7,5.7c0,3.2,2.6,5.7,5.7,5.7h76.1c3.2,0,5.7-2.6,5.7-5.7
	C296.3,94.9,293.7,92.3,290.6,92.3z"/>
<circle style="fill:#FF7058;" cx="270.6" cy="264.5" r="11.1"/>
<g>
	<circle style="fill:#FFFFFF;" cx="226.2" cy="329.2" r="8.8"/>
	<circle style="fill:#FFFFFF;" cx="278.6" cy="348.7" r="12.6"/>
</g>
<g>
	<circle style="fill:#FF7058;" cx="243.8" cy="214.6" r="8.9"/>
	<circle style="fill:#FF7058;" cx="263.4" cy="176.7" r="9.5"/>
</g>
<g>
</g>
<g>
</g>
<g>
</g>
<g>
</g>
<g>
</g>
<g>
</g>
<g>
</g>
<g>
</g>
<g>
</g>
<g>
</g>
<g>
</g>
<g>
</g>
<g>
</g>
<g>
</g>
<g>
</g>
</svg>
