<?xml version="1.0" encoding="iso-8859-1"?>
<!-- Generator: Adobe Illustrator 19.0.0, SVG Export Plug-In . SVG Version: 6.00 Build 0)  -->
<svg version="1.1" id="Layer_1" xmlns="http://www.w3.org/2000/svg" xmlns:xlink="http://www.w3.org/1999/xlink" x="0px" y="0px"
	 viewBox="0 0 505 505" style="enable-background:new 0 0 505 505;" xml:space="preserve">
<circle style="fill:#90DFAA;" cx="252.5" cy="252.5" r="252.5"/>
<path style="fill:#FFFFFF;" d="M293.8,271c-7-3.6-11.6-10.6-11.6-18.5s4.6-14.9,11.6-18.5c43.1-22.3,73.8-76.4,74.3-125.2H136.8
	c0.5,48.8,31.2,102.9,74.3,125.2c7,3.6,11.6,10.6,11.6,18.5s-4.6,14.9-11.6,18.5c-43.1,22.3-73.8,76.4-74.3,125.2h231.3
	C367.6,347.4,336.9,293.2,293.8,271z"/>
<path style="fill:#54C0EB;" d="M280.8,296.1c-16.6-8.6-26.9-25.3-26.9-43.6s10.3-35,26.9-43.6c14.1-7.3,26.9-19.8,37-34.6H187.2
	c10.1,14.9,22.8,27.3,37,34.6c16.6,8.6,26.9,25.3,26.9,43.6s-10.3,35-26.9,43.6c-24.9,12.9-45.9,41.5-54.6,71.8h166
	C326.7,337.6,305.7,309,280.8,296.1z"/>
<g>
	<path style="fill:#324A5E;" d="M372.4,87.5H132.6c-5.9,0-10.6,4.8-10.6,10.6c0,5.9,4.8,10.6,10.6,10.6h239.8
		c5.9,0,10.6-4.8,10.6-10.6C383,92.3,378.3,87.5,372.4,87.5z"/>
	<path style="fill:#324A5E;" d="M372.4,396.2H132.6c-5.9,0-10.6,4.8-10.6,10.6l0,0c0,5.9,4.8,10.6,10.6,10.6h239.8
		c5.9,0,10.6-4.8,10.6-10.6l0,0C383,401,378.3,396.2,372.4,396.2z"/>
</g>
<g>
</g>
<g>
</g>
<g>
</g>
<g>
</g>
<g>
</g>
<g>
</g>
<g>
</g>
<g>
</g>
<g>
</g>
<g>
</g>
<g>
</g>
<g>
</g>
<g>
</g>
<g>
</g>
<g>
</g>
</svg>
