<?xml version="1.0" encoding="iso-8859-1"?>
<!-- Generator: Adobe Illustrator 19.0.0, SVG Export Plug-In . SVG Version: 6.00 Build 0)  -->
<svg version="1.1" id="Layer_1" xmlns="http://www.w3.org/2000/svg" xmlns:xlink="http://www.w3.org/1999/xlink" x="0px" y="0px"
	 viewBox="0 0 505 505" style="enable-background:new 0 0 505 505;" xml:space="preserve">
<circle style="fill:#FFD05B;" cx="252.5" cy="252.5" r="252.5"/>
<path style="fill:#FFFFFF;" d="M400.2,93.3H104.8c-3.5,0-6.4,2.9-6.4,6.4v210.2c0,3.5,2.8,6.4,6.4,6.4h295.5c3.5,0,6.4-2.9,6.4-6.4
	V99.7C406.6,96.2,403.7,93.3,400.2,93.3z"/>
<rect x="117.3" y="112" style="fill:#54C0EB;" width="270.3" height="185.5"/>
<polygon style="fill:#FFFFFF;" points="261,411.6 261,353.5 244,353.5 244,411.6 151.6,411.6 151.6,425.7 353.4,425.7 353.4,411.6 
	"/>
<path style="fill:#FF7058;" d="M288,409.2h-24.4c-0.1,0-0.2-0.1-0.2-0.2v-13.8c0-0.1-0.1-0.2-0.2-0.2h-21.6c-0.1,0-0.2,0.1-0.2,0.2
	V409c0,0.1-0.1,0.2-0.2,0.2h-25c-0.1,0-0.2,0.1-0.2,0.2v18.5c0,0.1,0.1,0.2,0.2,0.2h71.6c0.1,0,0.2-0.1,0.2-0.2v-18.5
	C288.1,409.3,288.1,409.2,288,409.2z"/>
<path style="fill:#324A5E;" d="M75.8,331l4,16.1c1.7,7,8.5,12,16.2,12h313c7.8,0,14.5-5,16.2-12l4-16.1H75.8z"/>
<g>
</g>
<g>
</g>
<g>
</g>
<g>
</g>
<g>
</g>
<g>
</g>
<g>
</g>
<g>
</g>
<g>
</g>
<g>
</g>
<g>
</g>
<g>
</g>
<g>
</g>
<g>
</g>
<g>
</g>
</svg>
