<?xml version="1.0" encoding="iso-8859-1"?>
<!-- Generator: Adobe Illustrator 19.0.0, SVG Export Plug-In . SVG Version: 6.00 Build 0)  -->
<svg version="1.1" id="Layer_1" xmlns="http://www.w3.org/2000/svg" xmlns:xlink="http://www.w3.org/1999/xlink" x="0px" y="0px"
	 viewBox="0 0 505 505" style="enable-background:new 0 0 505 505;" xml:space="preserve">
<circle style="fill:#FFD05B;" cx="252.5" cy="252.5" r="252.5"/>
<path style="fill:#FFFFFF;" d="M392.1,125.1H112.9c-3.3,0-6,2.7-6,6v198.6c0,3.3,2.7,6,6,6h279.2c3.3,0,6-2.7,6-6V131.1
	C398.1,127.8,395.4,125.1,392.1,125.1z"/>
<rect x="124.8" y="142.8" style="fill:#54C0EB;" width="255.4" height="175.3"/>
<g>
	<path style="fill:#FFFFFF;" d="M265.5,254.4c-7.2-7.2-18.8-7.2-26,0l-8.4-8.4c11.8-11.8,30.9-11.8,42.7,0L265.5,254.4z"/>
	<path style="fill:#FFFFFF;" d="M290,231.6c-10-10-23.3-15.5-37.5-15.5c-14.2,0-27.5,5.5-37.5,15.5l-8.4-8.4
		c12.2-12.3,28.5-19,45.9-19s33.6,6.7,45.9,19L290,231.6z"/>
	<path style="fill:#FFFFFF;" d="M311.7,208.2c-15.8-15.8-36.8-24.5-59.2-24.5s-43.4,8.7-59.2,24.5l-8.4-8.4c18-18,42-28,67.5-28
		s49.5,9.9,67.5,28L311.7,208.2z"/>
	<circle style="fill:#FFFFFF;" cx="252.5" cy="278.7" r="10.4"/>
</g>
<path style="fill:#324A5E;" d="M301.8,353.3v10.1h-98.6v-10.1H85.5l3.8,15.2c1.6,6.6,8,11.3,15.3,11.3h295.8
	c7.3,0,13.7-4.7,15.3-11.3l3.8-15.2H301.8z"/>
<g>
</g>
<g>
</g>
<g>
</g>
<g>
</g>
<g>
</g>
<g>
</g>
<g>
</g>
<g>
</g>
<g>
</g>
<g>
</g>
<g>
</g>
<g>
</g>
<g>
</g>
<g>
</g>
<g>
</g>
</svg>
