<?xml version="1.0" encoding="iso-8859-1"?>
<!-- Generator: Adobe Illustrator 19.0.0, SVG Export Plug-In . SVG Version: 6.00 Build 0)  -->
<svg version="1.1" id="Layer_1" xmlns="http://www.w3.org/2000/svg" xmlns:xlink="http://www.w3.org/1999/xlink" x="0px" y="0px"
	 viewBox="0 0 505 505" style="enable-background:new 0 0 505 505;" xml:space="preserve">
<circle style="fill:#FD8469;" cx="252.5" cy="252.5" r="252.5"/>
<path style="fill:#FFFFFF;" d="M396.8,102H108.2c-6.7,0-12.1,5.4-12.1,12.1v276.8c0,6.7,5.4,12.1,12.1,12.1h288.6
	c6.7,0,12.1-5.4,12.1-12.1V114.1C408.9,107.4,403.5,102,396.8,102z"/>
<g>
	<rect x="155.7" y="141" style="fill:#324A5E;" width="7.1" height="223"/>
	<rect x="217.9" y="141" style="fill:#324A5E;" width="7.1" height="223"/>
	<rect x="280" y="141" style="fill:#324A5E;" width="7.1" height="223"/>
	<rect x="342.1" y="141" style="fill:#324A5E;" width="7.1" height="223"/>
</g>
<path style="fill:#4CDBC4;" d="M237.5,261h-32.1c-1.7,0-3.1,1.4-3.1,3.1v37.8c0,1.7,1.4,3.1,3.1,3.1h32.1c1.7,0,3.1-1.4,3.1-3.1
	v-37.8C240.7,262.4,239.3,261,237.5,261z"/>
<path style="fill:#84DBFF;" d="M362.8,330.4h-34.3c-0.5,0-1-0.4-1-1v-48.5c0-0.5,0.4-1,1-1h34.3c0.5,0,1,0.4,1,1v48.5
	C363.8,329.9,363.4,330.4,362.8,330.4z"/>
<path style="fill:#54C0EB;" d="M176.5,233.2h-34.3c-0.5,0-1-0.4-1-1v-48.5c0-0.5,0.4-1,1-1h34.3c0.5,0,1,0.4,1,1v48.5
	C177.4,232.8,177,233.2,176.5,233.2z"/>
<path style="fill:#FFD05B;" d="M300.7,238.5h-34.3c-0.5,0-1-0.4-1-1V189c0-0.5,0.4-1,1-1h34.3c0.5,0,1,0.4,1,1v48.5
	C301.7,238.1,301.2,238.5,300.7,238.5z"/>
<g>
</g>
<g>
</g>
<g>
</g>
<g>
</g>
<g>
</g>
<g>
</g>
<g>
</g>
<g>
</g>
<g>
</g>
<g>
</g>
<g>
</g>
<g>
</g>
<g>
</g>
<g>
</g>
<g>
</g>
</svg>
