<?xml version="1.0" encoding="iso-8859-1"?>
<!-- Generator: Adobe Illustrator 19.0.0, SVG Export Plug-In . SVG Version: 6.00 Build 0)  -->
<svg version="1.1" id="Layer_1" xmlns="http://www.w3.org/2000/svg" xmlns:xlink="http://www.w3.org/1999/xlink" x="0px" y="0px"
	 viewBox="0 0 505 505" style="enable-background:new 0 0 505 505;" xml:space="preserve">
<circle style="fill:#90DFAA;" cx="252.5" cy="252.5" r="252.5"/>
<rect x="78.4" y="133.8" style="fill:#FFFFFF;" width="348.1" height="237.5"/>
<polygon style="fill:#FF7058;" points="426.6,138.8 421.5,133.8 404,133.8 426.6,156.3 "/>
<g>
	<polygon style="fill:#84DBFF;" points="399.2,151.3 381.7,133.8 364.2,133.8 381.7,151.3 	"/>
	<polygon style="fill:#84DBFF;" points="407,176.6 426.6,196.2 426.6,178.6 407,159.1 	"/>
</g>
<g>
	<polygon style="fill:#FF7058;" points="407,216.5 426.6,236 426.6,218.5 407,198.9 	"/>
	<polygon style="fill:#FF7058;" points="359.4,151.3 341.8,133.8 324.3,133.8 341.9,151.3 	"/>
</g>
<g>
	<polygon style="fill:#84DBFF;" points="319.5,151.3 301.9,133.8 284.4,133.8 302,151.3 	"/>
	<polygon style="fill:#84DBFF;" points="407,256.3 426.6,275.9 426.6,258.4 407,238.8 	"/>
</g>
<g>
	<polygon style="fill:#FF7058;" points="279.7,151.3 262.1,133.8 244.6,133.8 262.2,151.3 	"/>
	<polygon style="fill:#FF7058;" points="407,296.2 426.6,315.7 426.6,298.2 407,278.7 	"/>
</g>
<g>
	<polygon style="fill:#84DBFF;" points="239.8,151.3 222.2,133.8 204.7,133.8 222.3,151.3 	"/>
	<polygon style="fill:#84DBFF;" points="407,336 426.6,355.6 426.6,338.1 407,318.5 	"/>
</g>
<g>
	<polygon style="fill:#FF7058;" points="384.8,353.7 402.4,371.2 419.9,371.2 402.3,353.7 	"/>
	<polygon style="fill:#FF7058;" points="199.9,151.3 182.4,133.8 164.9,133.8 182.4,151.3 	"/>
</g>
<g>
	<polygon style="fill:#84DBFF;" points="160.1,151.3 142.5,133.8 125,133.8 142.6,151.3 	"/>
	<polygon style="fill:#84DBFF;" points="344.9,353.7 362.5,371.2 380,371.2 362.4,353.7 	"/>
</g>
<g>
	<polygon style="fill:#FF7058;" points="120.2,151.3 102.6,133.8 85.1,133.8 102.7,151.3 	"/>
	<polygon style="fill:#FF7058;" points="305.1,353.7 322.6,371.2 340.1,371.2 322.6,353.7 	"/>
</g>
<g>
	<polygon style="fill:#84DBFF;" points="265.2,353.7 282.8,371.2 300.3,371.2 282.7,353.7 	"/>
	<polygon style="fill:#84DBFF;" points="98,169 78.4,149.4 78.4,166.9 98,186.5 	"/>
</g>
<g>
	<polygon style="fill:#FF7058;" points="225.3,353.7 242.9,371.2 260.4,371.2 242.8,353.7 	"/>
	<polygon style="fill:#FF7058;" points="98,208.8 78.4,189.3 78.4,206.8 98,226.3 	"/>
</g>
<g>
	<polygon style="fill:#84DBFF;" points="185.5,353.7 203.1,371.2 220.6,371.2 203,353.7 	"/>
	<polygon style="fill:#84DBFF;" points="98,248.7 78.4,229.1 78.4,246.6 98,266.2 	"/>
</g>
<g>
	<polygon style="fill:#FF7058;" points="145.6,353.7 163.2,371.2 180.7,371.2 163.1,353.7 	"/>
	<polygon style="fill:#FF7058;" points="98,288.5 78.4,269 78.4,286.5 98,306.1 	"/>
</g>
<g>
	<polygon style="fill:#84DBFF;" points="98,328.4 78.4,308.8 78.4,326.4 98,345.9 	"/>
	<polygon style="fill:#84DBFF;" points="105.8,353.7 123.3,371.2 140.8,371.2 123.3,353.7 	"/>
</g>
<polygon style="fill:#FF7058;" points="78.4,366.2 83.5,371.2 101,371.2 78.4,348.7 "/>
<g>
	<rect x="146.3" y="221.5" style="fill:#E6E9EE;" width="212.4" height="5"/>
	<rect x="146.3" y="250" style="fill:#E6E9EE;" width="212.4" height="5"/>
	<rect x="146.3" y="278.5" style="fill:#E6E9EE;" width="135.9" height="5"/>
</g>
<g>
</g>
<g>
</g>
<g>
</g>
<g>
</g>
<g>
</g>
<g>
</g>
<g>
</g>
<g>
</g>
<g>
</g>
<g>
</g>
<g>
</g>
<g>
</g>
<g>
</g>
<g>
</g>
<g>
</g>
</svg>
