<?xml version="1.0" encoding="iso-8859-1"?>
<!-- Generator: Adobe Illustrator 19.0.0, SVG Export Plug-In . SVG Version: 6.00 Build 0)  -->
<svg version="1.1" id="Layer_1" xmlns="http://www.w3.org/2000/svg" xmlns:xlink="http://www.w3.org/1999/xlink" x="0px" y="0px"
	 viewBox="0 0 505 505" style="enable-background:new 0 0 505 505;" xml:space="preserve">
<circle style="fill:#324A5E;" cx="252.5" cy="252.5" r="252.5"/>
<polygon style="fill:#EDF2F2;" points="320.9,210.9 184.1,210.9 184.1,241.2 236.8,241.2 236.8,286.1 268.2,286.1 268.2,241.2 
	320.9,241.2 "/>
<rect x="201.6" y="62.9" style="fill:#FF7058;" width="101.7" height="163.2"/>
<rect x="232.3" y="62.9" style="fill:#F1543F;" width="40.4" height="163.2"/>
<path style="fill:#FFD05B;" d="M336.1,329.5c-4.9-6.4-8.1-14.1-9.2-22.1c-1-7.5-4.4-14.7-10.2-20.5c-5.8-5.8-13-9.1-20.5-10.2
	c-8-1.1-15.7-4.3-22.1-9.2c-6-4.6-13.5-7.3-21.7-7.3s-15.6,2.7-21.7,7.3c-6.4,4.9-14.1,8.1-22.1,9.2c-7.5,1-14.7,4.4-20.5,10.2
	c-5.8,5.8-9.1,13-10.2,20.5c-1.1,8-4.3,15.7-9.2,22.1c-4.6,6-7.3,13.5-7.3,21.7s2.7,15.6,7.3,21.7c4.9,6.4,8.1,14.1,9.2,22.1
	c1,7.5,4.4,14.7,10.2,20.5s13,9.1,20.5,10.2c8,1.1,15.7,4.3,22.1,9.2c6,4.6,13.5,7.3,21.7,7.3s15.7-2.7,21.7-7.3
	c6.4-4.9,14.1-8.1,22.1-9.2c7.5-1,14.7-4.4,20.5-10.2c5.8-5.8,9.1-13,10.2-20.5c1.1-8,4.3-15.7,9.2-22.2c4.6-6,7.3-13.5,7.3-21.6
	C343.4,343,340.7,335.6,336.1,329.5z"/>
<path style="fill:#F9B54C;" d="M252.5,422.7c-4.6,0-8-1.8-10-3.4c-9.1-6.9-19.9-11.4-31.2-12.9c-2.5-0.3-6.2-1.4-9.4-4.7
	c-3.3-3.3-4.3-6.9-4.7-9.5c-1.6-11.3-6-22.1-12.9-31.2c-1.5-2-3.3-5.4-3.3-10s1.8-8,3.3-10c6.9-9.1,11.4-19.9,12.9-31.2
	c0.3-2.5,1.4-6.2,4.7-9.4c3.3-3.3,6.9-4.3,9.4-4.7c11.3-1.6,22.1-6,31.2-12.9c2-1.5,5.4-3.4,10-3.4s8,1.8,10,3.4
	c9.1,6.9,19.9,11.4,31.2,12.9c2.5,0.3,6.1,1.4,9.4,4.7c3.2,3.2,4.3,6.9,4.7,9.5c1.6,11.3,6,22.1,12.9,31.2c1.5,2,3.3,5.4,3.3,10
	c0,3.6-1.2,7.1-3.3,9.9c-6.9,9.2-11.4,20-13,31.3c-0.3,2.5-1.4,6.2-4.7,9.4c-3.3,3.3-6.9,4.3-9.5,4.7c-11.3,1.6-22.1,6-31.2,12.9
	C260.5,420.9,257.1,422.7,252.5,422.7z"/>
<polygon style="fill:#FFFFFF;" points="252.5,305.6 266.1,333.2 296.6,337.6 274.5,359.1 279.8,389.5 252.5,375.2 225.2,389.5 
	230.4,359.1 208.4,337.6 238.9,333.2 "/>
<g>
</g>
<g>
</g>
<g>
</g>
<g>
</g>
<g>
</g>
<g>
</g>
<g>
</g>
<g>
</g>
<g>
</g>
<g>
</g>
<g>
</g>
<g>
</g>
<g>
</g>
<g>
</g>
<g>
</g>
</svg>
