<?xml version="1.0" encoding="iso-8859-1"?>
<!-- Generator: Adobe Illustrator 19.0.0, SVG Export Plug-In . SVG Version: 6.00 Build 0)  -->
<svg version="1.1" id="Layer_1" xmlns="http://www.w3.org/2000/svg" xmlns:xlink="http://www.w3.org/1999/xlink" x="0px" y="0px"
	 viewBox="0 0 505 505" style="enable-background:new 0 0 505 505;" xml:space="preserve">
<circle style="fill:#FD8469;" cx="252.5" cy="252.5" r="252.5"/>
<path style="fill:#F1543F;" d="M51.5,405.3c46.1,60.6,119,99.7,201,99.7s154.9-39.1,201-99.7H51.5z"/>
<path style="fill:#E6E9EE;" d="M418.2,285.5H86.8c-7.4,0-13.3,6-13.3,13.3v73.9c0,7.4,6,13.3,13.3,13.3h331.5
	c7.4,0,13.3-6,13.3-13.3v-73.9C431.6,291.4,425.6,285.5,418.2,285.5z"/>
<rect x="73.4" y="311.2" style="fill:#FFFFFF;" width="358.1" height="49.7"/>
<g>
	<path style="fill:#324A5E;" d="M102.8,402.7c0,1.3,1.1,2.4,2.4,2.4h60c1.3,0,2.4-1.1,2.4-2.4v-16.6h-64.8V402.7z"/>
	<path style="fill:#324A5E;" d="M337.4,386v16.6c0,1.3,1.1,2.4,2.4,2.4h60c1.3,0,2.4-1.1,2.4-2.4V386H337.4z"/>
	<path style="fill:#324A5E;" d="M257.4,149.5c-0.1-2.7-2.3-4.8-4.9-4.8c-2.7,0-4.9,2.1-4.9,4.8l-5.2,136h20.3L257.4,149.5z"/>
</g>
<g>
	<path style="fill:#FFFFFF;" d="M336.9,213.5c-1.1,0-2.2-0.4-3-1.2c-1.6-1.6-1.6-4.3,0-6c38.1-38.1,38.1-100.1,0-138.3
		c-1.6-1.6-1.6-4.3,0-6c1.6-1.6,4.3-1.6,6,0c41.4,41.4,41.4,108.8,0,150.2C339.1,213.1,338,213.5,336.9,213.5z"/>
	<path style="fill:#FFFFFF;" d="M310.9,190c-1.1,0-2.2-0.4-3-1.2c-1.6-1.6-1.6-4.3,0-6c25.1-25.1,25.1-66.1,0-91.2
		c-1.6-1.6-1.6-4.3,0-6c1.6-1.6,4.3-1.6,6,0c28.4,28.4,28.4,74.7,0,103.1C313,189.6,312,190,310.9,190z"/>
	<path style="fill:#FFFFFF;" d="M285.7,162.3c-1.1,0-2.2-0.4-3-1.2c-1.6-1.6-1.6-4.3,0-6c9.9-9.9,9.9-25.9,0-35.8
		c-1.6-1.6-1.6-4.3,0-6c1.6-1.6,4.3-1.6,6,0c13.1,13.1,13.1,34.5,0,47.7C287.9,161.9,286.8,162.3,285.7,162.3z"/>
	<path style="fill:#FFFFFF;" d="M168.1,213.5c1.1,0,2.2-0.4,3-1.2c1.6-1.6,1.6-4.3,0-6C133,168.2,133,106.2,171.1,68
		c1.6-1.6,1.6-4.3,0-6c-1.6-1.6-4.3-1.6-6,0c-41.4,41.4-41.4,108.8,0,150.2C165.9,213.1,167,213.5,168.1,213.5z"/>
	<path style="fill:#FFFFFF;" d="M194.1,190c1.1,0,2.2-0.4,3-1.2c1.6-1.6,1.6-4.3,0-6c-25.1-25.1-25.1-66.1,0-91.2
		c1.6-1.6,1.6-4.3,0-6c-1.6-1.6-4.3-1.6-6,0c-28.4,28.4-28.4,74.7,0,103.1C192,189.6,193,190,194.1,190z"/>
	<path style="fill:#FFFFFF;" d="M219.3,162.3c1.1,0,2.2-0.4,3-1.2c1.6-1.6,1.6-4.3,0-6c-9.9-9.9-9.9-25.9,0-35.8
		c1.6-1.6,1.6-4.3,0-6c-1.6-1.6-4.3-1.6-6,0c-13.1,13.1-13.1,34.5,0,47.7C217.1,161.9,218.2,162.3,219.3,162.3z"/>
</g>
<g>
	<circle style="fill:#FFD05B;" cx="153.5" cy="336.1" r="11.1"/>
	<circle style="fill:#FFD05B;" cx="193.1" cy="336.1" r="11.1"/>
</g>
<circle style="fill:#4CDBC4;" cx="113.8" cy="336.1" r="11.1"/>
<circle style="fill:#E6E9EE;" cx="252.5" cy="144.7" r="16.6"/>
<g>
</g>
<g>
</g>
<g>
</g>
<g>
</g>
<g>
</g>
<g>
</g>
<g>
</g>
<g>
</g>
<g>
</g>
<g>
</g>
<g>
</g>
<g>
</g>
<g>
</g>
<g>
</g>
<g>
</g>
</svg>
