<?xml version="1.0" encoding="iso-8859-1"?>
<!-- Generator: Adobe Illustrator 19.0.0, SVG Export Plug-In . SVG Version: 6.00 Build 0)  -->
<svg version="1.1" id="Layer_1" xmlns="http://www.w3.org/2000/svg" xmlns:xlink="http://www.w3.org/1999/xlink" x="0px" y="0px"
	 viewBox="0 0 505 505" style="enable-background:new 0 0 505 505;" xml:space="preserve">
<circle style="fill:#54C0EB;" cx="252.5" cy="252.5" r="252.5"/>
<g>
	<polygon style="fill:#FFFFFF;" points="343.8,339.6 331.3,339.6 331.3,331.3 335.4,331.3 335.4,327.1 343.8,327.1 	"/>
	<path style="fill:#FFFFFF;" d="M313.9,339.6h-17.4v-8.3h17.4V339.6z M279.1,339.6h-17.4v-8.3h17.4V339.6z M244.4,339.6H227v-8.3
		h17.4V339.6z M209.6,339.6h-17.4v-8.3h17.4V339.6z"/>
	<polygon style="fill:#FFFFFF;" points="174.9,339.6 162.4,339.6 162.4,327.1 170.7,327.1 170.7,331.3 174.9,331.3 	"/>
	<path style="fill:#FFFFFF;" d="M170.7,310.4h-8.3v-16.7h8.3V310.4z M170.7,276.9h-8.3v-16.7h8.3V276.9z M170.7,243.5h-8.3v-16.7
		h8.3V243.5z M170.7,210h-8.3v-16.7h8.3V210z"/>
	<polygon style="fill:#FFFFFF;" points="170.7,176.6 162.4,176.6 162.4,164.1 174.9,164.1 174.9,172.4 170.7,172.4 	"/>
	<path style="fill:#FFFFFF;" d="M313.9,172.4h-17.4v-8.3h17.4V172.4z M279.1,172.4h-17.4v-8.3h17.4V172.4z M244.4,172.4H227v-8.3
		h17.4V172.4z M209.6,172.4h-17.4v-8.3h17.4V172.4z"/>
	<polygon style="fill:#FFFFFF;" points="343.8,176.6 335.4,176.6 335.4,172.4 331.3,172.4 331.3,164.1 343.8,164.1 	"/>
	<path style="fill:#FFFFFF;" d="M343.8,310.4h-8.3v-16.7h8.3V310.4z M343.8,276.9h-8.3v-16.7h8.3V276.9z M343.8,243.5h-8.3v-16.7
		h8.3V243.5z M343.8,210h-8.3v-16.7h8.3V210z"/>
	<path style="fill:#FFFFFF;" d="M412.4,254.5H260.3c-1.4,0-2.6,1.2-2.6,2.6v113.4c0,1.4,1.2,2.6,2.6,2.6h152.1
		c1.4,0,2.6-1.2,2.6-2.6V257.1C415,255.7,413.9,254.5,412.4,254.5z"/>
</g>
<path style="fill:#324A5E;" d="M415,350.9v-93.8c0-1.4-1.2-2.6-2.6-2.6H260.3c-1.4,0-2.6,1.2-2.6,2.6v93.8L415,350.9L415,350.9z"/>
<rect x="312.9" y="373.2" style="fill:#FFFFFF;" width="46.9" height="19.1"/>
<g>
	<rect x="312.9" y="373.2" style="fill:#E6E9EE;" width="46.9" height="5.6"/>
	<path style="fill:#E6E9EE;" d="M375.9,402.4h-79.1c-0.3,0-0.5-0.2-0.5-0.5v-9.2c0-0.3,0.2-0.5,0.5-0.5h79.1c0.3,0,0.5,0.2,0.5,0.5
		v9.2C376.4,402.1,376.2,402.4,375.9,402.4z"/>
</g>
<path style="fill:#FFFFFF;" d="M244.7,102.6H92.6c-1.4,0-2.6,1.2-2.6,2.6v113.4c0,1.4,1.2,2.6,2.6,2.6h152.1c1.4,0,2.6-1.2,2.6-2.6
	V105.2C247.3,103.8,246.1,102.6,244.7,102.6z"/>
<path style="fill:#324A5E;" d="M247.3,199v-93.8c0-1.4-1.2-2.6-2.6-2.6H92.6c-1.4,0-2.6,1.2-2.6,2.6V199H247.3z"/>
<rect x="145.2" y="221.3" style="fill:#FFFFFF;" width="46.9" height="19.1"/>
<g>
	<rect x="145.2" y="221.3" style="fill:#E6E9EE;" width="46.9" height="5.6"/>
	<path style="fill:#E6E9EE;" d="M208.1,250.5H129c-0.3,0-0.5-0.2-0.5-0.5v-9.2c0-0.3,0.2-0.5,0.5-0.5h79.1c0.3,0,0.5,0.2,0.5,0.5
		v9.2C208.6,250.3,208.4,250.5,208.1,250.5z"/>
</g>
<g>
</g>
<g>
</g>
<g>
</g>
<g>
</g>
<g>
</g>
<g>
</g>
<g>
</g>
<g>
</g>
<g>
</g>
<g>
</g>
<g>
</g>
<g>
</g>
<g>
</g>
<g>
</g>
<g>
</g>
</svg>
