<?xml version="1.0" encoding="iso-8859-1"?>
<!-- Generator: Adobe Illustrator 19.0.0, SVG Export Plug-In . SVG Version: 6.00 Build 0)  -->
<svg version="1.1" id="Layer_1" xmlns="http://www.w3.org/2000/svg" xmlns:xlink="http://www.w3.org/1999/xlink" x="0px" y="0px"
	 viewBox="0 0 505 505" style="enable-background:new 0 0 505 505;" xml:space="preserve">
<circle style="fill:#F1543F;" cx="252.5" cy="252.5" r="252.5"/>
<path style="fill:#FFFFFF;" d="M198.9,227.3v-60c0-29.8,24.3-54.1,54.1-54.1s54.1,24.3,54.1,54.1v60h24v-60c0-43-35-78-78-78
	s-78,35-78,78v60H198.9z"/>
<path style="fill:#324A5E;" d="M347,221.3H158c-7.1,0-12.8,5.4-12.8,12.1v170.2c0,6.7,5.7,12.1,12.8,12.1h189
	c7.1,0,12.8-5.4,12.8-12.1V233.4C359.9,226.7,354.1,221.3,347,221.3z"/>
<g>
	<path style="fill:#FFFFFF;" d="M264.1,339.9c-6.4-6.4-16.8-6.4-23.2,0l-7.5-7.5c10.5-10.5,27.6-10.5,38.2,0L264.1,339.9z"/>
	<path style="fill:#FFFFFF;" d="M286,319.5c-9-9-20.9-13.9-33.5-13.9s-24.6,4.9-33.5,13.9l-7.5-7.5c10.9-11,25.5-17,41-17
		s30,6,41,17L286,319.5z"/>
	<path style="fill:#FFFFFF;" d="M305.4,298.6c-14.1-14.1-32.9-21.9-52.9-21.9s-38.8,7.8-52.9,21.9l-7.5-7.5
		c16.1-16.1,37.6-25,60.4-25s44.2,8.9,60.4,25L305.4,298.6z"/>
	<circle style="fill:#FFFFFF;" cx="252.5" cy="361.6" r="9.3"/>
</g>
<g>
</g>
<g>
</g>
<g>
</g>
<g>
</g>
<g>
</g>
<g>
</g>
<g>
</g>
<g>
</g>
<g>
</g>
<g>
</g>
<g>
</g>
<g>
</g>
<g>
</g>
<g>
</g>
<g>
</g>
</svg>
