<?xml version="1.0" encoding="iso-8859-1"?>
<!-- Generator: Adobe Illustrator 19.0.0, SVG Export Plug-In . SVG Version: 6.00 Build 0)  -->
<svg version="1.1" id="Layer_1" xmlns="http://www.w3.org/2000/svg" xmlns:xlink="http://www.w3.org/1999/xlink" x="0px" y="0px"
	 viewBox="0 0 505 505" style="enable-background:new 0 0 505 505;" xml:space="preserve">
<circle style="fill:#90DFAA;" cx="252.5" cy="252.5" r="252.5"/>
<polygon style="fill:#324A5E;" points="259.3,430.4 259.3,381 245.7,381 245.7,430.4 180,430.4 180,443.2 325,443.2 325,430.4 "/>
<polygon style="fill:#E6E9EE;" points="260.7,417 244.3,417 244.3,429.1 228.5,429.1 228.5,444.6 276.1,444.6 276.1,429.1 
	260.7,429.1 "/>
<g>
	<path style="fill:#324A5E;" d="M336.4,214.2h-34.3v-69.9c0-27.3-22.2-49.6-49.6-49.6c-27.3,0-49.6,22.2-49.6,49.6v69.9h-34.3v-69.9
		c0-46.3,37.6-83.9,83.9-83.9s83.9,37.6,83.9,83.9V214.2z"/>
	<rect x="155.6" y="201.8" style="fill:#324A5E;" width="193.7" height="179.2"/>
</g>
<g>
	<path style="fill:#FFFFFF;" d="M356.7,190.8H148.3c-2.9,0-5.3,2.4-5.3,5.3v44.6c0,2.9,2.4,5.3,5.3,5.3h208.5c2.9,0,5.3-2.4,5.3-5.3
		v-44.6C362.1,193.2,359.7,190.8,356.7,190.8z"/>
	<path style="fill:#FFFFFF;" d="M356.7,260.6H148.3c-2.9,0-5.3,2.4-5.3,5.3v44.6c0,2.9,2.4,5.3,5.3,5.3h208.5c2.9,0,5.3-2.4,5.3-5.3
		v-44.6C362.1,263,359.7,260.6,356.7,260.6z"/>
	<path style="fill:#FFFFFF;" d="M356.7,330.4H148.3c-2.9,0-5.3,2.4-5.3,5.3v44.6c0,2.9,2.4,5.3,5.3,5.3h208.5c2.9,0,5.3-2.4,5.3-5.3
		v-44.6C362.1,332.7,359.7,330.4,356.7,330.4z"/>
</g>
<g>
</g>
<g>
</g>
<g>
</g>
<g>
</g>
<g>
</g>
<g>
</g>
<g>
</g>
<g>
</g>
<g>
</g>
<g>
</g>
<g>
</g>
<g>
</g>
<g>
</g>
<g>
</g>
<g>
</g>
</svg>
