<?xml version="1.0" encoding="iso-8859-1"?>
<!-- Generator: Adobe Illustrator 19.0.0, SVG Export Plug-In . SVG Version: 6.00 Build 0)  -->
<svg version="1.1" id="Layer_1" xmlns="http://www.w3.org/2000/svg" xmlns:xlink="http://www.w3.org/1999/xlink" x="0px" y="0px"
	 viewBox="0 0 505 505" style="enable-background:new 0 0 505 505;" xml:space="preserve">
<circle style="fill:#FD8469;" cx="252.5" cy="252.5" r="252.5"/>
<path style="fill:#324A5E;" d="M151,169v222.5c0,13.5,10.9,24.4,24.4,24.4h109.9c13.5,0,24.4-10.9,24.4-24.4V169H151z"/>
<rect x="165.3" y="89.1" style="fill:#FFFFFF;" width="130.2" height="79.9"/>
<path style="fill:#ACB3BA;" d="M326.8,312.9h-17.1v54.6h17.1c1.1,0,2-0.9,2-2V315C328.9,313.8,327.9,312.9,326.8,312.9z"/>
<path style="fill:#EDF2F2;" d="M352,326.1h-23.1v28H352c1.1,0,2-0.9,2-2V328C354,327,353.1,326.1,352,326.1z"/>
<g>
	<path style="fill:#395767;" d="M346.2,150.2c0-2.6-2.2-4.7-4.8-4.7c-2.6,0-4.8,2.1-4.8,4.7L334,326.1h14.9L346.2,150.2z"/>
	<circle style="fill:#395767;" cx="342.2" cy="340.3" r="5.1"/>
</g>
<g>
	<rect x="189.9" y="107.5" style="fill:#EDF2F2;" width="15.3" height="21.9"/>
	<rect x="255.6" y="107.5" style="fill:#EDF2F2;" width="15.3" height="21.9"/>
</g>
<g>
</g>
<g>
</g>
<g>
</g>
<g>
</g>
<g>
</g>
<g>
</g>
<g>
</g>
<g>
</g>
<g>
</g>
<g>
</g>
<g>
</g>
<g>
</g>
<g>
</g>
<g>
</g>
<g>
</g>
</svg>
