<?xml version="1.0" encoding="iso-8859-1"?>
<!-- Generator: Adobe Illustrator 19.0.0, SVG Export Plug-In . SVG Version: 6.00 Build 0)  -->
<svg version="1.1" id="Layer_1" xmlns="http://www.w3.org/2000/svg" xmlns:xlink="http://www.w3.org/1999/xlink" x="0px" y="0px"
	 viewBox="0 0 505 505" style="enable-background:new 0 0 505 505;" xml:space="preserve">
<circle style="fill:#90DFAA;" cx="252.5" cy="252.5" r="252.5"/>
<rect x="116.2" y="128.1" style="fill:#EDF2F2;" width="45.5" height="18.6"/>
<rect x="78.8" y="194.5" style="fill:#2C9984;" width="347.5" height="130"/>
<g>
	<path style="fill:#FFFFFF;" d="M412.5,142h-320c-7.6,0-13.8,6.2-13.8,13.8v45.3h347.5v-45.3C426.2,148.2,420.1,142,412.5,142z"/>
	<path style="fill:#FFFFFF;" d="M78.8,363.1c0,7.6,6.2,13.8,13.8,13.8h319.9c7.6,0,13.8-6.2,13.8-13.8v-45.3H78.8V363.1z"/>
</g>
<circle style="fill:#324A5E;" cx="252.5" cy="259.5" r="86.7"/>
<circle style="fill:#FFFFFF;" cx="252.5" cy="259.5" r="68.9"/>
<circle style="fill:#84DBFF;" cx="252.5" cy="259.5" r="52.2"/>
<circle style="fill:#54C0EB;" cx="252.5" cy="259.5" r="28.7"/>
<g>
	<circle style="fill:#FFFFFF;" cx="231.5" cy="242.7" r="13.6"/>
	<circle style="fill:#FFFFFF;" cx="249.5" cy="259.5" r="6.8"/>
</g>
<circle style="fill:#FF7058;" cx="160" cy="215.8" r="7"/>
<rect x="336" y="156.3" style="fill:#EDF2F2;" width="71.2" height="27.3"/>
<g>
</g>
<g>
</g>
<g>
</g>
<g>
</g>
<g>
</g>
<g>
</g>
<g>
</g>
<g>
</g>
<g>
</g>
<g>
</g>
<g>
</g>
<g>
</g>
<g>
</g>
<g>
</g>
<g>
</g>
</svg>
