<?xml version="1.0" encoding="iso-8859-1"?>
<!-- Generator: Adobe Illustrator 19.0.0, SVG Export Plug-In . SVG Version: 6.00 Build 0)  -->
<svg version="1.1" id="Layer_1" xmlns="http://www.w3.org/2000/svg" xmlns:xlink="http://www.w3.org/1999/xlink" x="0px" y="0px"
	 viewBox="0 0 505 505" style="enable-background:new 0 0 505 505;" xml:space="preserve">
<circle style="fill:#FFD05B;" cx="252.5" cy="252.5" r="252.5"/>
<path style="fill:#F9B54C;" d="M52.8,407c46.2,59.6,118.4,98,199.7,98s153.5-38.4,199.7-98H52.8z"/>
<path style="fill:#324A5E;" d="M368.1,277.7l-191-191c-0.5-0.5-1.5-0.5-2,0c-51.9,53.4-51.4,138.8,1.4,191.6s138.2,53.3,191.6,1.4
	C368.6,279.1,368.6,278.2,368.1,277.7z"/>
<path style="fill:#FF7058;" d="M362.5,92.2c-5.4-5.4-14-5.4-19.4,0c-3.6,3.6-4.6,8.8-3.3,13.4l-76.9,66.9l19.4,19.4l66.8-76.9
	c4.6,1.3,9.8,0.3,13.4-3.3C367.9,106.3,367.9,97.6,362.5,92.2z"/>
<path style="fill:#FFFFFF;" d="M236.7,255.5c-2.6-15-15.6-25.9-30.9-25.9c-15.2,0-28.2,10.9-30.9,25.9l-19.1,129.6h99.8L236.7,255.5
	z"/>
<g>
	<circle style="fill:#395767;" cx="205.9" cy="261.5" r="14.3"/>
	<path style="fill:#395767;" d="M266.7,385.1H145c-1.1,0-1.9,0.9-1.9,1.9v17.9c0,1.1,0.9,1.9,1.9,1.9h121.7c1.1,0,1.9-0.9,1.9-1.9
		V387C268.7,386,267.8,385.1,266.7,385.1z"/>
</g>
<g>
</g>
<g>
</g>
<g>
</g>
<g>
</g>
<g>
</g>
<g>
</g>
<g>
</g>
<g>
</g>
<g>
</g>
<g>
</g>
<g>
</g>
<g>
</g>
<g>
</g>
<g>
</g>
<g>
</g>
</svg>
