<?xml version="1.0" encoding="iso-8859-1"?>
<!-- Generator: Adobe Illustrator 19.0.0, SVG Export Plug-In . SVG Version: 6.00 Build 0)  -->
<svg version="1.1" id="Layer_1" xmlns="http://www.w3.org/2000/svg" xmlns:xlink="http://www.w3.org/1999/xlink" x="0px" y="0px"
	 viewBox="0 0 505 505" style="enable-background:new 0 0 505 505;" xml:space="preserve">
<circle style="fill:#90DFAA;" cx="252.5" cy="252.5" r="252.5"/>
<polygon style="fill:#324A5E;" points="335.3,385.4 335.3,326.6 318,326.6 318,385.4 187,385.4 187,326.6 169.7,326.6 169.7,385.4 
	105.2,385.4 105.2,399.6 399.8,399.6 399.8,385.4 "/>
<g>
	<circle style="fill:#FF7058;" cx="178.4" cy="392" r="17.4"/>
	<circle style="fill:#FF7058;" cx="326.6" cy="392" r="17.4"/>
</g>
<path style="fill:#FFFFFF;" d="M234.1,95.7H122.7c-2.9,0-5.3,2.4-5.3,5.3v237.1c0,2.9,2.4,5.3,5.3,5.3h111.4c2.9,0,5.3-2.4,5.3-5.3
	V101C239.4,98.1,237,95.7,234.1,95.7z"/>
<g>
	<rect x="132.3" y="111.3" style="fill:#54C0EB;" width="92.1" height="29.1"/>
	<rect x="132.3" y="155.2" style="fill:#54C0EB;" width="92.1" height="29.1"/>
	<rect x="132.3" y="199.2" style="fill:#54C0EB;" width="92.1" height="29.1"/>
</g>
<circle style="fill:#CED5E0;" cx="178.4" cy="297.1" r="8.6"/>
<path style="fill:#FFFFFF;" d="M382.3,95.7H270.9c-2.9,0-5.3,2.4-5.3,5.3v237.1c0,2.9,2.4,5.3,5.3,5.3h111.4c2.9,0,5.3-2.4,5.3-5.3
	V101C387.7,98.1,385.3,95.7,382.3,95.7z"/>
<g>
	<rect x="280.6" y="111.3" style="fill:#54C0EB;" width="92.1" height="29.1"/>
	<rect x="280.6" y="155.2" style="fill:#54C0EB;" width="92.1" height="29.1"/>
	<rect x="280.6" y="199.2" style="fill:#54C0EB;" width="92.1" height="29.1"/>
</g>
<circle style="fill:#CED5E0;" cx="326.6" cy="297.1" r="8.6"/>
<g>
</g>
<g>
</g>
<g>
</g>
<g>
</g>
<g>
</g>
<g>
</g>
<g>
</g>
<g>
</g>
<g>
</g>
<g>
</g>
<g>
</g>
<g>
</g>
<g>
</g>
<g>
</g>
<g>
</g>
</svg>
