<?xml version="1.0" encoding="iso-8859-1"?>
<!-- Generator: Adobe Illustrator 19.0.0, SVG Export Plug-In . SVG Version: 6.00 Build 0)  -->
<svg version="1.1" id="Layer_1" xmlns="http://www.w3.org/2000/svg" xmlns:xlink="http://www.w3.org/1999/xlink" x="0px" y="0px"
	 viewBox="0 0 505 505" style="enable-background:new 0 0 505 505;" xml:space="preserve">
<circle style="fill:#84DBFF;" cx="252.5" cy="252.5" r="252.5"/>
<path style="fill:#324A5E;" d="M330.7,416.2h-69.8v-69.7h-16.8v69.7h-69.8c-0.9,0-1.6,0.7-1.6,1.6V431c0,0.9,0.7,1.6,1.6,1.6h69.8
	h16.8h69.8c0.9,0,1.6-0.7,1.6-1.6v-13.2C332.3,416.9,331.6,416.2,330.7,416.2z"/>
<circle style="fill:#FFD05B;" cx="252.5" cy="424.1" r="18.2"/>
<path style="fill:#FFFFFF;" d="M379.3,99.7c-56.6,9.2-108.4-24.3-125-36.5c-1.1-0.8-2.6-0.8-3.7,0c-16.6,12.2-68.3,45.7-125,36.5
	c-1.7-0.3-3.3,0.9-3.3,2.5v90.9c0,0,2.7,130,128.8,186c0.8,0.4,1.8,0.4,2.6,0c126.1-56,128.8-186,128.8-186v-90.9
	C382.6,100.6,381,99.5,379.3,99.7z"/>
<path style="fill:#E6E9EE;" d="M354.5,225.4c4.1-17.2,4.5-29.2,4.6-30.5v-71c-2.2,0.1-4.4,0.2-6.6,0.2c-43.2,0-80.7-20.6-100-33.5
	l0,0v134.8H354.5z"/>
<path style="fill:#FF7058;" d="M252.5,90.6c-19.3,12.9-56.8,33.5-100,33.5l0,0c-2.2,0-4.4-0.1-6.6-0.2v70.7c0,0.4,0.4,12.7,4.8,30.8
	h101.8V90.6z"/>
<path style="fill:#E6E9EE;" d="M150.7,225.4c8.7,36.1,33.1,95.1,101.8,127.7V225.4H150.7z"/>
<path style="fill:#FF7058;" d="M252.5,225.4v127.7l0,0c69.3-32.9,93.6-91.7,102-127.7L252.5,225.4L252.5,225.4z"/>
<g>
</g>
<g>
</g>
<g>
</g>
<g>
</g>
<g>
</g>
<g>
</g>
<g>
</g>
<g>
</g>
<g>
</g>
<g>
</g>
<g>
</g>
<g>
</g>
<g>
</g>
<g>
</g>
<g>
</g>
</svg>
