<?xml version="1.0" encoding="iso-8859-1"?>
<!-- Generator: Adobe Illustrator 19.0.0, SVG Export Plug-In . SVG Version: 6.00 Build 0)  -->
<svg version="1.1" id="Layer_1" xmlns="http://www.w3.org/2000/svg" xmlns:xlink="http://www.w3.org/1999/xlink" x="0px" y="0px"
	 viewBox="0 0 505 505" style="enable-background:new 0 0 505 505;" xml:space="preserve">
<circle style="fill:#FFD05B;" cx="252.5" cy="252.5" r="252.5"/>
<path style="fill:#324A5E;" d="M324.8,420.1h-64.5v-64.4h-15.6v64.4h-64.5c-0.8,0-1.5,0.7-1.5,1.5v12.2c0,0.8,0.7,1.5,1.5,1.5h64.5
	h15.6h64.5c0.8,0,1.5-0.7,1.5-1.5v-12.2C326.3,420.7,325.6,420.1,324.8,420.1z"/>
<circle style="fill:#FF7058;" cx="252.5" cy="427.4" r="16.9"/>
<path style="fill:#FFFFFF;" d="M346.4,84.4H158.6c-8.5,0-15.3,6.9-15.3,15.3v267.9c0,8.5,6.9,15.3,15.3,15.3h187.9
	c8.5,0,15.3-6.9,15.3-15.3V99.7C361.7,91.3,354.9,84.4,346.4,84.4z"/>
<rect x="155.3" y="111.9" style="fill:#54C0EB;" width="194.4" height="225.5"/>
<path style="fill:#CED5E0;" d="M268.9,102.4H236c-1.7,0-3.2-1.4-3.2-3.2l0,0c0-1.7,1.4-3.2,3.2-3.2h32.9c1.7,0,3.2,1.4,3.2,3.2l0,0
	C272.1,101,270.7,102.4,268.9,102.4z"/>
<circle style="fill:#E6E9EE;" cx="252.5" cy="359" r="13.3"/>
<g>
</g>
<g>
</g>
<g>
</g>
<g>
</g>
<g>
</g>
<g>
</g>
<g>
</g>
<g>
</g>
<g>
</g>
<g>
</g>
<g>
</g>
<g>
</g>
<g>
</g>
<g>
</g>
<g>
</g>
</svg>
