<?xml version="1.0" encoding="iso-8859-1"?>
<!-- Generator: Adobe Illustrator 19.0.0, SVG Export Plug-In . SVG Version: 6.00 Build 0)  -->
<svg version="1.1" id="Layer_1" xmlns="http://www.w3.org/2000/svg" xmlns:xlink="http://www.w3.org/1999/xlink" x="0px" y="0px"
	 viewBox="0 0 505 505" style="enable-background:new 0 0 505 505;" xml:space="preserve">
<circle style="fill:#54C0EB;" cx="252.5" cy="252.5" r="252.5"/>
<path style="fill:#FFFFFF;" d="M321.3,100.4H137.7c-6.6,0-11.9,5.3-11.9,11.9v280.5c0,6.6,5.3,11.9,11.9,11.9h183.6
	c6.6,0,11.9-5.3,11.9-11.9V112.3C333.2,105.7,327.9,100.4,321.3,100.4z"/>
<rect x="138.7" y="131.3" style="fill:#324A5E;" width="181.7" height="242.5"/>
<g>
	<rect x="206.9" y="111" style="fill:#EDF2F2;" width="45.3" height="9.6"/>
	<circle style="fill:#EDF2F2;" cx="229.5" cy="389.2" r="7.6"/>
</g>
<polygon style="fill:#FFD05B;" points="444.6,252.5 361.3,335.8 361.3,298.6 269.9,298.6 269.9,206.4 361.3,206.4 361.3,169.2 "/>
<g>
</g>
<g>
</g>
<g>
</g>
<g>
</g>
<g>
</g>
<g>
</g>
<g>
</g>
<g>
</g>
<g>
</g>
<g>
</g>
<g>
</g>
<g>
</g>
<g>
</g>
<g>
</g>
<g>
</g>
</svg>
