<?xml version="1.0" encoding="iso-8859-1"?>
<!-- Generator: Adobe Illustrator 19.0.0, SVG Export Plug-In . SVG Version: 6.00 Build 0)  -->
<svg version="1.1" id="Layer_1" xmlns="http://www.w3.org/2000/svg" xmlns:xlink="http://www.w3.org/1999/xlink" x="0px" y="0px"
	 viewBox="0 0 505 505" style="enable-background:new 0 0 505 505;" xml:space="preserve">
<circle style="fill:#84DBFF;" cx="252.5" cy="252.5" r="252.5"/>
<g>
	<path style="fill:#324A5E;" d="M212.3,197.3c-29.3,0-53.2-23.8-53.2-53.2c0-29.3,23.8-53.2,53.2-53.2c29.3,0,53.2,23.8,53.2,53.2
		C265.4,173.5,241.6,197.3,212.3,197.3z M212.3,99.6c-24.6,0-44.6,20-44.6,44.6s20,44.6,44.6,44.6s44.6-20,44.6-44.6
		C256.8,119.6,236.9,99.6,212.3,99.6z"/>
	<path style="fill:#324A5E;" d="M212.3,226.8c-45.6,0-82.6-37.1-82.6-82.6c0-45.6,37.1-82.6,82.6-82.6s82.6,37.1,82.6,82.6
		C294.9,189.7,257.8,226.8,212.3,226.8z M212.3,70.2c-40.8,0-74,33.2-74,74s33.2,74,74,74s74-33.2,74-74S253.1,70.2,212.3,70.2z"/>
</g>
<path style="fill:#FFFFFF;" d="M341.4,213.3c-10.2,1-17.6,10.4-17.6,20.6v14.2h-4.1v-20.6c0-10.3-7.4-19.6-17.6-20.6
	c-11.7-1.2-21.6,8-21.6,19.5v21.7h-4v-26.3c0-10.3-7.4-19.6-17.6-20.6c-11.7-1.2-21.6,8-21.6,19.5v27.4h-4.1v-97.2
	c0-10.3-7.4-19.6-17.6-20.6c-11.7-1.2-21.6,8-21.6,19.5v98.3l0.5,108.2L176.6,336c-0.9-1-1.4-2.3-1.4-3.7v-18.5
	c0-17.2-13-31.3-29.7-33.1c-1.9-0.2-3.6,1.5-3.6,3.4V348c0,3,1.1,5.9,3.2,8.2l58.4,64.2c2.2,2.4,5.2,3.8,8.5,3.8l123.2,1.2
	c15.4,0,27.9-12.5,27.9-27.9v-64v-85.3v-15.3C363.1,221.3,353.2,212.1,341.4,213.3z"/>
<g>
</g>
<g>
</g>
<g>
</g>
<g>
</g>
<g>
</g>
<g>
</g>
<g>
</g>
<g>
</g>
<g>
</g>
<g>
</g>
<g>
</g>
<g>
</g>
<g>
</g>
<g>
</g>
<g>
</g>
</svg>
