<?xml version="1.0" encoding="iso-8859-1"?>
<!-- Generator: Adobe Illustrator 19.0.0, SVG Export Plug-In . SVG Version: 6.00 Build 0)  -->
<svg version="1.1" id="Layer_1" xmlns="http://www.w3.org/2000/svg" xmlns:xlink="http://www.w3.org/1999/xlink" x="0px" y="0px"
	 viewBox="0 0 505 505" style="enable-background:new 0 0 505 505;" xml:space="preserve">
<circle style="fill:#54C0EB;" cx="252.5" cy="252.5" r="252.5"/>
<path style="fill:#84DBFF;" d="M53,407.2C99.2,466.7,171.4,505,252.5,505c81.2,0,153.3-38.3,199.5-97.8H53z"/>
<g>
	<path style="fill:#395767;" d="M302.5,368.6c-10.4,0-18.8-8.4-18.8-18.8v-2.3c0-7.1,4.1-13.3,10.3-16.8
		c28-15.5,46.4-46.1,44.1-80.8c-2.8-43.1-38.8-78.2-82-79.9c-49-2-89.4,37.1-89.4,85.7c0,32.3,17.9,60.4,44.3,75
		c6.2,3.4,10.3,9.7,10.3,16.8v2.2c0,10.4-8.4,18.8-18.8,18.8c-16.6,0-30.1,13.5-30.1,30.1v8.6h160.1v-8.6
		C332.5,382,319.1,368.6,302.5,368.6z"/>
	<path style="opacity:0.43;fill:#395767;enable-background:new    ;" d="M296.2,318.7c1.9-6.9,6.7-12.8,13.2-16.4
		c34.2-18.9,58-54.4,60.5-95.6c-1.7-63.2-53.4-113.9-117-113.9c-64.7,0-117.1,52.4-117.1,117.1c0,2.6,0.2,5.2,0.4,7.8
		c5.7,36.5,28.2,67.4,59.4,84.6c6.4,3.5,11.1,9.2,13.1,16c13.7,5.6,28.6,8.7,44.3,8.7C268.2,327.1,282.8,324.1,296.2,318.7z"/>
</g>
<circle style="fill:#FFFFFF;" cx="252.9" cy="199.6" r="133.2"/>
<circle style="fill:#E6E9EE;" cx="252.5" cy="199.4" r="66.7"/>
<circle style="fill:#395767;" cx="252.5" cy="199.4" r="47.7"/>
<circle style="fill:#334D5D;" cx="252.5" cy="199.4" r="29.7"/>
<g>
	<circle style="fill:#FFFFFF;" cx="232.9" cy="177.6" r="8"/>
	<circle style="fill:#FFFFFF;" cx="243.3" cy="188" r="4.1"/>
</g>
<circle style="fill:#FF7058;" cx="188.6" cy="127.9" r="10.4"/>
<g>
</g>
<g>
</g>
<g>
</g>
<g>
</g>
<g>
</g>
<g>
</g>
<g>
</g>
<g>
</g>
<g>
</g>
<g>
</g>
<g>
</g>
<g>
</g>
<g>
</g>
<g>
</g>
<g>
</g>
</svg>
