<?xml version="1.0" encoding="iso-8859-1"?>
<!-- Generator: Adobe Illustrator 19.0.0, SVG Export Plug-In . SVG Version: 6.00 Build 0)  -->
<svg version="1.1" id="Layer_1" xmlns="http://www.w3.org/2000/svg" xmlns:xlink="http://www.w3.org/1999/xlink" x="0px" y="0px"
	 viewBox="0 0 505 505" style="enable-background:new 0 0 505 505;" xml:space="preserve">
<circle style="fill:#FD8469;" cx="252.5" cy="252.5" r="252.5"/>
<path style="fill:#324A5E;" d="M333.1,409.7h-71.9v-71.8h-17.3v71.8H172c-0.9,0-1.6,0.7-1.6,1.6v13.6c0,0.9,0.7,1.6,1.6,1.6h71.9
	h17.3h71.9c0.9,0,1.6-0.7,1.6-1.6v-13.6C334.7,410.4,334,409.7,333.1,409.7z"/>
<circle style="fill:#FFD05B;" cx="252.5" cy="417.8" r="18.8"/>
<ellipse style="fill:#FFFFFF;" cx="252.5" cy="214.9" rx="146.5" ry="146.5"/>
<g>
	<path style="fill:#54C0EB;" d="M348.6,104.4c-3.2-0.5-6.4-1.1-9.6-1.6c-2.4-0.4-4.9-0.8-7.3-0.2c-2.4,0.6-4.6,2.4-4.9,4.8
		c-0.5,3.9,4,7.4,2.7,11.2c-0.8,2.4-3.7,3.5-6.3,3.7c-2.6,0.2-5.3,0-7.6,1.2c-2.2,1.2-3.4,3.6-5,5.5c-3.1,3.9-7.8,6.5-12.7,7
		c-4.6,0.5-10.9,0.3-12,4.8c-0.7,2.8,1.4,5.7,0.6,8.5c-1.4,5-9.4,3.7-12.9,7.4c-3,3.2-1,9.1,3,10.7c4.1,1.6,8.9-0.4,11.6-3.8
		c1.8-2.2,2.8-5,4.5-7.2c1.7-2.3,4.6-4.1,7.3-3.3c2.1,0.6,3.6,2.7,5.5,3.7c3.2,1.7,8.2,1.3,9.3,4.7c0.4,1.4,0,3,1,4.1
		c1,1.2,2.8,1,4.3,0.7c3.6-0.6,7.6-0.8,10.6,1.3s4,7.2,1,9.3c-2.1,1.5-5.2,0.9-7.5-0.3c-2.4-1.2-4.6-2.9-7.2-3.3
		c-2.6-0.4-5.8,1.1-5.9,3.8c-2.9,1.3-6.7,0.2-8.5-2.4c-0.7-1-1.2-2.2-1.9-3.2c-1.8-2.4-5-3.3-8-3.3c-10,0-17.9,8.4-22.7,17.2
		c-2.7,5-4.9,10.4-4.9,16.1c-0.1,5.7,2.3,11.6,7.1,14.7c5.1,3.3,11.6,3,17.7,2.8c2.1,0,4.6,0.1,5.8,1.9c1.7,2.3,0,5.5,0.3,8.3
		c0.5,4.4,5.7,7,6.4,11.3c0.7,4.4-3.6,8.4-3.1,12.9c0.3,2.6,2.1,4.6,3.1,7c2.3,5,1,11.2,3.7,16c2.6,4.6,8.8,6.8,13.7,4.8
		c4.9-2,7.9-7.8,6.5-12.9c2.8,0.4,5.7-0.7,7.6-2.7c1.8-1.9-3-4.2-2.5-6.7c0.2-1.2,1.6-1.8,2.6-2.5c3-2.1,3.6-6.4,3.3-10
		c-0.3-3.7-1.3-7.4-0.4-11c1.2-5,5.5-8.5,9.1-12.3c3.5-3.8,6.5-9.2,4.3-13.9c-2.5-0.1-5-0.2-7.6-0.4c-0.2-4.9,5.3-7.8,9.9-9.4
		c4.6-1.7,10.1-4.5,9.9-9.4c3.3-2.1,7.9-0.5,10.5,2.4c2.6,3,3.7,6.9,4.9,10.6c1.2,3.7,2.8,7.6,5.9,10c4.9-4.9,2.1-14.9,7.9-18.7
		c1.7-1.1,3.6-1.4,5.6-1.1C392.1,157.9,374.3,126.7,348.6,104.4z"/>
	<path style="fill:#54C0EB;" d="M133.8,163.5c4.1,9.6,15.1,14.9,18.9,24.5c1,2.4,1.4,5.1,2.8,7.3c3.9,6.2,13.1,6.3,18.9,10.8
		c1.9,1.5,3.4,3.5,4.9,5.4c3.2,4.1,6.5,8.5,7.3,13.7c0.5,2.9,0.1,5.8,0.5,8.7c0.6,4.5,3,8.6,5,12.7c7.3,15.3,8.4,33.4,3.2,49.5
		c-1.3,4.1-3.1,8.1-3.7,12.3c-0.6,4.2,0,8.9,2.9,12.1s8.5,3.9,11.5,0.9c1.9-4.2-4.7-7.6-4.9-12.2c0-1.3,0.4-2.5,0.9-3.7
		c2.4-5.6,5.4-10.8,8.9-15.7c1.8-2.4,3.8-5.2,3.3-8.1c3.6,1.9,8.5,0,10-3.7c1.6-4.1-0.3-9.7,3.1-12.5c1.4-1.1,3.2-1.4,4.8-2.2
		c5.8-2.9,5.5-11.2,4.4-17.6c3.2,1.1,6.4-2.9,5.7-6.3c-0.7-3.4-3.8-5.7-6.8-7.3s-6.4-2.9-8.6-5.6c-1.1-1.3-1.9-2.9-3-4.3
		c-1.2-1.5-2.7-2.6-4.2-3.8c-3.7-2.7-7.4-5.5-11.7-7s-9.4-1.5-13.2,1.1c-1,0.7-1.9,1.6-3.1,1.9c-4.1,1.1-6.8-5-11-5.2
		c3.4-3-0.4-8.6-4.5-10.4c-4.2-1.8-9.5-2.8-11.1-7.1c-1.3-3.7,1.3-7.9,4.8-9.6c3.5-1.7,7.6-1.7,11.5-1.6c0.6-1.2,1.3-2.3,1.9-3.5
		c0.5-0.9,1-1.9,1.5-2.8c2.6-4.8,5.3-9.7,9.1-13.6c4-4.2,9.3-7.2,15-8.6c1.3-0.3,2.6-0.6,3.5-1.5c1.7-1.7,1.1-4.5,1.2-7
		c0.1-2.4,2.6-5.3,4.5-3.8c1.2-1.4,0.7-3.6-0.6-4.9c-1.3-1.3-3-2-4.6-3c-4-2.6-6.3-7.2-8.4-11.6c-1.2-2.4-2.3-5.3-1.1-7.7
		c0.7-1.4,2.2-2.4,3-3.8c1.6-3-0.4-6.7-3.1-8.7s-6.1-3-8.8-5.1s-4.5-6-2.7-8.8c7.9-3.9,18.4-1.6,24,5.3c6,7.5,6.1,18.8,12.9,25.7
		c1.8,1.8,4.8,3.1,6.6,1.4c0.8-0.7,1.1-1.8,1.5-2.7c2.2-5.3,8.2-8.7,13.9-7.8c0-2.5,0.1-5,0.1-7.5c6.5-2.1,10.4-9.9,8.3-16.4
		c-2.8-8.6-13.1-11.8-22-13.1c-2.8-0.4-5.6-0.7-8.4-1c-42.9,7-79.5,32.6-101.3,68.2c1.8,3.8,3,8,3.6,12.1
		C131.8,155,132.1,159.5,133.8,163.5z"/>
</g>
<g>
</g>
<g>
</g>
<g>
</g>
<g>
</g>
<g>
</g>
<g>
</g>
<g>
</g>
<g>
</g>
<g>
</g>
<g>
</g>
<g>
</g>
<g>
</g>
<g>
</g>
<g>
</g>
<g>
</g>
</svg>
