<?xml version="1.0" encoding="iso-8859-1"?>
<!-- Generator: Adobe Illustrator 19.0.0, SVG Export Plug-In . SVG Version: 6.00 Build 0)  -->
<svg version="1.1" id="Layer_1" xmlns="http://www.w3.org/2000/svg" xmlns:xlink="http://www.w3.org/1999/xlink" x="0px" y="0px"
	 viewBox="0 0 508 508" style="enable-background:new 0 0 508 508;" xml:space="preserve">
<circle style="fill:#54C0EB;" cx="254" cy="254" r="254"/>
<path style="fill:#FF7058;" d="M352,399.6H156v-138c0-52.8,42.8-95.6,95.6-95.6h4.8c52.8,0,95.6,42.8,95.6,95.6V399.6z"/>
<path style="fill:#324A5E;" d="M373.2,420.4H134.8V396c0-11.6,9.6-21.2,21.2-21.2h196c11.6,0,21.2,9.6,21.2,21.2V420.4z"/>
<g>
	<path style="fill:#FFFFFF;" d="M228.8,232.4c-13.6,12.8-31.2,17.2-38.8,10s-2.8-23.6,10.8-36.4c13.6-12.8,31.2-17.2,38.8-10
		C247.2,203.2,242.4,219.6,228.8,232.4z"/>
	<path style="fill:#FFFFFF;" d="M250.8,75.6c-4.8,0-8.8,3.6-8.8,8v42.8c0,4.4,4,8,8.8,8s8.8-3.6,8.8-8V83.6
		C259.6,79.2,255.6,75.6,250.8,75.6z"/>
	<path style="fill:#FFFFFF;" d="M344.4,113.6c-3.6-3.2-8.8-3.2-12.4,0L299.6,144c-3.6,3.2-3.6,8.4,0,11.6c3.6,3.2,8.8,3.2,12.4,0
		l32.4-30.4C348,122,348,116.8,344.4,113.6z"/>
	<path style="fill:#FFFFFF;" d="M157.2,113.6c3.6-3.2,8.8-3.2,12.4,0L202,144c3.6,3.2,3.6,8.4,0,11.6c-3.6,3.2-8.8,3.2-12.4,0
		l-32.4-30.4C154,122,154,116.8,157.2,113.6z"/>
</g>
<g>
</g>
<g>
</g>
<g>
</g>
<g>
</g>
<g>
</g>
<g>
</g>
<g>
</g>
<g>
</g>
<g>
</g>
<g>
</g>
<g>
</g>
<g>
</g>
<g>
</g>
<g>
</g>
<g>
</g>
</svg>
