<?xml version="1.0" encoding="iso-8859-1"?>
<!-- Generator: Adobe Illustrator 19.0.0, SVG Export Plug-In . SVG Version: 6.00 Build 0)  -->
<svg version="1.1" id="Layer_1" xmlns="http://www.w3.org/2000/svg" xmlns:xlink="http://www.w3.org/1999/xlink" x="0px" y="0px"
	 viewBox="0 0 508 508" style="enable-background:new 0 0 508 508;" xml:space="preserve">
<circle style="fill:#324A5E;" cx="254" cy="254" r="254"/>
<path style="fill:#FFD05B;" d="M271.2,186.4l-8.8,20.8l-8.4,9.6c-2,2.4-4,5.6-5.6,8.8l-54,130.4c-2.8,6.4-5.6,13.2-8.8,19.2L162,422
	c-5.6,10.8-1.6,24,8.4,28c9.6,4,20.8-1.6,25.2-12l81.6-194l8.4-9.6c2-2.4,4-5.6,5.6-8.8l16-38.4h-36V186.4z"/>
<path style="fill:#E6E9EE;" d="M348.8,126.8l-66-27.6c-18.8-8-34-22.8-44-42v-0.4c-52,18.4-74.8,72.8-51.6,122.8h0.4
	c20.8-6.8,42-6,60.8,2l65.6,27.2L348.8,126.8z"/>
<path style="fill:#FFFFFF;" d="M206.4,175.2c-6.4,0.8-12.8,2-19.2,4h-0.4c-23.2-50-0.4-104.4,51.6-122.8v0.4
	c3.2,6,6.4,11.6,10.4,16.4C212,93.6,194.8,134.4,206.4,175.2z"/>
<g>
</g>
<g>
</g>
<g>
</g>
<g>
</g>
<g>
</g>
<g>
</g>
<g>
</g>
<g>
</g>
<g>
</g>
<g>
</g>
<g>
</g>
<g>
</g>
<g>
</g>
<g>
</g>
<g>
</g>
</svg>
