<?xml version="1.0" encoding="iso-8859-1"?>
<!-- Generator: Adobe Illustrator 19.0.0, SVG Export Plug-In . SVG Version: 6.00 Build 0)  -->
<svg version="1.1" id="Layer_1" xmlns="http://www.w3.org/2000/svg" xmlns:xlink="http://www.w3.org/1999/xlink" x="0px" y="0px"
	 viewBox="0 0 508 508" style="enable-background:new 0 0 508 508;" xml:space="preserve">
<circle style="fill:#FFD05B;" cx="254" cy="254" r="254"/>
<g>
	<path style="fill:#FFFFFF;" d="M90.4,220c-0.8-2.8-3.2-4.4-6-4c-2.8,0.8-4.4,3.2-4,6l16.4,74c0.4,2.4,2.8,4,4.8,4
		c0.4,0,0.8,0,1.2,0c2.8-0.8,4.4-3.2,4-6L90.4,220z"/>
	<path style="fill:#FFFFFF;" d="M276.4,272c-2.8-0.4-5.6,1.2-6,4L252,364.4c-0.8,4-4.4,4.8-5.2,4.8c-1.2,0-4.8,0-6.4-3.6l-34.4-82
		c-1.2-2.4-4-3.6-6.8-2.8c-2.4,1.2-3.6,4-2.8,6.8l34.4,81.6c2.4,6,8.4,10,14.8,10c0.4,0,1.2,0,1.6,0c7.2-0.8,12.8-5.6,14.4-12.8
		L280,278C280.8,275.2,279.2,272.4,276.4,272z"/>
</g>
<circle style="fill:#324A5E;" cx="139.6" cy="331.6" r="45.6"/>
<circle style="fill:#E6E9EE;" cx="139.6" cy="331.6" r="20"/>
<path style="fill:#F1543F;" d="M58.4,202l71.2,69.6c14.8,14.4,35.2,21.2,55.6,18.8l67.6-8C280,279.2,302.4,260,310,234l8-26.4
	L58.4,202z"/>
<path style="fill:#FFFFFF;" d="M84,300.8c-2,0-4-1.6-4-4s1.6-4,4-4.4c8.4-0.4,182.4-17.6,204.8-20l26.8-61.6
	c4.4-10,13.6-16.8,24.4-18l96.4-11.2c2.4-0.4,4.4,1.2,4.4,3.6c0.4,2.4-1.2,4.4-3.6,4.4l-96.4,11.2c-8,0.8-14.8,6-18,13.2l-27.6,64
	c-0.4,1.2-2,2.4-3.2,2.4C283.6,281.2,93.6,300,84,300.8C84.4,300.8,84.4,300.8,84,300.8z"/>
<path style="fill:#324A5E;" d="M439.6,196.8l-44,4.8c-6,0.8-11.6-3.6-12.4-10l0,0c-0.8-6,3.6-11.6,10-12.4l44-4.8
	c6-0.8,11.6,3.6,12.4,10l0,0C450.4,190.8,446,196,439.6,196.8z"/>
<g>
</g>
<g>
</g>
<g>
</g>
<g>
</g>
<g>
</g>
<g>
</g>
<g>
</g>
<g>
</g>
<g>
</g>
<g>
</g>
<g>
</g>
<g>
</g>
<g>
</g>
<g>
</g>
<g>
</g>
</svg>
