<?xml version="1.0" encoding="iso-8859-1"?>
<!-- Generator: Adobe Illustrator 19.0.0, SVG Export Plug-In . SVG Version: 6.00 Build 0)  -->
<svg version="1.1" id="Layer_1" xmlns="http://www.w3.org/2000/svg" xmlns:xlink="http://www.w3.org/1999/xlink" x="0px" y="0px"
	 viewBox="0 0 508 508" style="enable-background:new 0 0 508 508;" xml:space="preserve">
<circle style="fill:#FD8469;" cx="254" cy="254" r="254"/>
<g>
	<rect x="346.4" y="218" style="fill:#324A5E;" width="18.8" height="163.6"/>
	<rect x="142.8" y="218" style="fill:#324A5E;" width="18.8" height="163.6"/>
</g>
<path style="fill:#FFFFFF;" d="M381.2,126.4H126.8c-5.6,0-10,4.4-10,10v82c0,5.6,4.4,10,10,10h254.4c5.6,0,10-4.4,10-10v-82
	C391.2,130.8,386.8,126.4,381.2,126.4z"/>
<g>
	<path style="fill:#FFD05B;" d="M389.6,130.8L350,228.4h-32l41.6-102h22C384.8,126.4,387.6,128,389.6,130.8z"/>
	<polygon style="fill:#FFD05B;" points="282.8,228.4 250.8,228.4 292,126.4 324.4,126.4 	"/>
	<polygon style="fill:#FFD05B;" points="216,228.4 183.6,228.4 225.2,126.4 257.2,126.4 	"/>
	<path style="fill:#FFD05B;" d="M190.4,126.4l-41.6,102h-22c-3.2,0-6.4-1.6-8.4-4.4l39.6-97.6H190.4z"/>
</g>
<path style="fill:#FFFFFF;" d="M388,350.8H120c-1.6,0-3.2-1.2-3.2-3.2v-48.8c0-1.6,1.2-3.2,3.2-3.2h268.4c1.6,0,3.2,1.2,3.2,3.2
	v48.8C391.2,349.6,390,350.8,388,350.8z"/>
<g>
</g>
<g>
</g>
<g>
</g>
<g>
</g>
<g>
</g>
<g>
</g>
<g>
</g>
<g>
</g>
<g>
</g>
<g>
</g>
<g>
</g>
<g>
</g>
<g>
</g>
<g>
</g>
<g>
</g>
</svg>
