<?xml version="1.0" encoding="iso-8859-1"?>
<!-- Generator: Adobe Illustrator 19.0.0, SVG Export Plug-In . SVG Version: 6.00 Build 0)  -->
<svg version="1.1" id="Layer_1" xmlns="http://www.w3.org/2000/svg" xmlns:xlink="http://www.w3.org/1999/xlink" x="0px" y="0px"
	 viewBox="0 0 508 508" style="enable-background:new 0 0 508 508;" xml:space="preserve">
<path style="fill:#FD8469;" d="M508,254c0,140.4-113.6,254-254,254S0,394.4,0,254S113.6,0,254,0c110.8,0,204.8,70.8,239.6,169.6
	c7.6,21.2,12,43.6,13.6,66.8C508,242.4,508,248,508,254z"/>
<path style="fill:#F1543F;" d="M56,412.8c46.4,58,118,95.2,198,95.2s151.6-37.2,198-95.2H56z"/>
<rect x="337.6" y="95.6" style="fill:#2B3B4E;" width="32" height="316.4"/>
<path style="fill:#324A5E;" d="M322.4,399.2v13.2h62v-13.2c0-4.4-3.6-8.4-8.4-8.4h-45.2C326.4,390.8,322.4,394.4,322.4,399.2z"/>
<rect x="138.4" y="95.6" style="fill:#2B3B4E;" width="32" height="316.4"/>
<g>
	<path style="fill:#FFFFFF;" d="M393.6,116.8H114.4c-3.6,0-6.4,2.8-6.4,6.4v69.6c0,3.6,2.8,6.4,6.4,6.4H394c3.6,0,6.4-2.8,6.4-6.4
		v-69.6C400,119.6,397.2,116.8,393.6,116.8z"/>
	<path style="fill:#FFFFFF;" d="M393.6,227.6H114.4c-3.6,0-6.4,2.8-6.4,6.4v69.6c0,3.6,2.8,6.4,6.4,6.4H394c3.6,0,6.4-2.8,6.4-6.4
		V234C400,230.4,397.2,227.6,393.6,227.6z"/>
</g>
<g>
	<polygon style="fill:#FFD05B;" points="394,198.8 355.6,198.8 317.6,116.8 356,116.8 	"/>
	<polygon style="fill:#FFD05B;" points="326,198.8 287.6,198.8 249.6,116.8 288,116.8 	"/>
	<polygon style="fill:#FFD05B;" points="258.4,198.8 220,198.8 182,116.8 220.4,116.8 	"/>
	<polygon style="fill:#FFD05B;" points="190.4,198.8 152,198.8 114,116.8 152.4,116.8 	"/>
	<polygon style="fill:#FFD05B;" points="394,309.6 355.6,309.6 317.6,227.6 356,227.6 	"/>
	<polygon style="fill:#FFD05B;" points="326,309.6 287.6,309.6 249.6,227.6 288,227.6 	"/>
	<polygon style="fill:#FFD05B;" points="258.4,309.6 220,309.6 182,227.6 220.4,227.6 	"/>
	<polygon style="fill:#FFD05B;" points="190.4,309.6 152,309.6 114,227.6 152.4,227.6 	"/>
</g>
<path style="fill:#324A5E;" d="M123.6,399.2v13.2h62v-13.2c0-4.4-3.6-8.4-8.4-8.4h-45.6C127.2,390.8,123.6,394.4,123.6,399.2z"/>
<g>
</g>
<g>
</g>
<g>
</g>
<g>
</g>
<g>
</g>
<g>
</g>
<g>
</g>
<g>
</g>
<g>
</g>
<g>
</g>
<g>
</g>
<g>
</g>
<g>
</g>
<g>
</g>
<g>
</g>
</svg>
