<?xml version="1.0" encoding="iso-8859-1"?>
<!-- Generator: Adobe Illustrator 19.0.0, SVG Export Plug-In . SVG Version: 6.00 Build 0)  -->
<svg version="1.1" id="Layer_1" xmlns="http://www.w3.org/2000/svg" xmlns:xlink="http://www.w3.org/1999/xlink" x="0px" y="0px"
	 viewBox="0 0 508 508" style="enable-background:new 0 0 508 508;" xml:space="preserve">
<circle style="fill:#FFD05B;" cx="254" cy="254" r="254"/>
<path style="fill:#FFFFFF;" d="M428.4,368.4H79.6c-6,0-11.2-4.8-11.2-11.2V150.8c0-6,4.8-11.2,11.2-11.2h348.8
	c6,0,11.2,4.8,11.2,11.2v206.4C439.6,363.6,434.4,368.4,428.4,368.4z"/>
<polygon style="fill:#E6E9EE;" points="415.2,183.2 415.2,164.8 92.8,164.8 92.8,343.2 415.2,343.2 415.2,248.4 351.2,248.4 
	328.4,271.2 328.4,296 336.4,296 336.4,274.4 354.8,256.4 407.6,256.4 407.6,335.2 336.4,335.2 336.4,322.8 328.4,322.8 
	328.4,335.2 223.6,335.2 223.6,330 215.6,330 215.6,335.2 140.4,335.2 140.4,296.4 215.6,296.4 215.6,310.8 223.6,310.8 
	223.6,282.8 215.6,282.8 215.6,288.8 140.4,288.8 140.4,263.6 120.8,263.6 120.8,271.6 132.4,271.6 132.4,335.2 100.4,335.2 
	100.4,172.8 215.6,172.8 215.6,258 233.6,258 233.6,250 223.6,250 223.6,172.8 328.4,172.8 328.4,227.6 306.8,249.2 263.6,249.2 
	263.6,257.2 310,257.2 336.4,230.8 336.4,172.8 407.6,172.8 407.6,183.2 "/>
<g>
</g>
<g>
</g>
<g>
</g>
<g>
</g>
<g>
</g>
<g>
</g>
<g>
</g>
<g>
</g>
<g>
</g>
<g>
</g>
<g>
</g>
<g>
</g>
<g>
</g>
<g>
</g>
<g>
</g>
</svg>
