<?xml version="1.0" encoding="iso-8859-1"?>
<!-- Generator: Adobe Illustrator 19.0.0, SVG Export Plug-In . SVG Version: 6.00 Build 0)  -->
<svg version="1.1" id="Layer_1" xmlns="http://www.w3.org/2000/svg" xmlns:xlink="http://www.w3.org/1999/xlink" x="0px" y="0px"
	 viewBox="0 0 508 508" style="enable-background:new 0 0 508 508;" xml:space="preserve">
<circle style="fill:#90DFAA;" cx="254" cy="254" r="254"/>
<path style="fill:#E6E9EE;" d="M140,286.4h134l40-88.4c2-4,2-8.4,0.8-12.8C306,158,284,132.8,247.2,116c-48.8-22-110-22.8-148-1.6
	c-3.2,2-6,4.8-7.6,8.4L66.8,178c-1.6,3.6-2,7.6-1.2,11.2C72.8,225.2,102.4,262.4,140,286.4z"/>
<g>
	<path style="fill:#CED5E0;" d="M207.2,104.8l-77.6,172.8c-1.2,3.2-5.2,4.4-8,3.2h-0.4c-3.2-1.2-4.4-5.2-3.2-8l78-172.4
		c1.2-3.2,5.2-4.4,8-3.2h0.4C207.6,98.4,208.8,102,207.2,104.8z"/>
	<path style="fill:#CED5E0;" d="M206,286.4l70.4-155.6c1.6-3.2,0-6.8-3.2-8.4s-6.8,0-8.4,3.2l-72.4,160.8H206z"/>
</g>
<path style="fill:#2C9984;" d="M27.6,368.8C69.6,451.6,155.2,508,254,508s184.8-56.8,226.4-139.2H27.6z"/>
<path style="fill:#2B3B4E;" d="M55.6,282.8v17.6c0,1.6,1.2,2.8,2.8,2.8H328v-22.8H58.4C56.8,280.4,55.6,281.6,55.6,282.8z"/>
<path style="fill:#E6E9EE;" d="M438.8,338h-102c-4.8,0-8.8-4-8.8-8.8v-142c0-4.8,4-8.8,8.8-8.8h92.8c4.4,0,8.4,3.2,8.8,7.6l9.6,70
	c0,0.4,0,0.8,0,1.2v72C448,334,444,338,438.8,338z"/>
<path style="fill:#54C0EB;" d="M372,244h66l-7.6-56.8c0-0.4-0.4-0.8-1.2-0.8H372V244z"/>
<polygon style="fill:#84DBFF;" points="421.2,186 372,186 372,244 385.6,244 "/>
<path style="fill:#54C0EB;" d="M366,186h-29.2c-0.8,0-1.2,0.4-1.2,1.2V244H366V186z"/>
<path style="fill:#84DBFF;" d="M360.8,186h-24c-0.8,0-1.2,0.4-1.2,1.2V244h5.6L360.8,186z"/>
<circle style="fill:#324A5E;" cx="109.6" cy="325.6" r="40"/>
<circle style="fill:#ACB3BA;" cx="109.6" cy="325.6" r="22.8"/>
<circle style="fill:#324A5E;" cx="194" cy="325.6" r="40"/>
<circle style="fill:#ACB3BA;" cx="194" cy="325.6" r="22.8"/>
<circle style="fill:#324A5E;" cx="364" cy="325.6" r="40"/>
<circle style="fill:#ACB3BA;" cx="364" cy="325.6" r="22.8"/>
<rect x="427.2" y="302.8" style="fill:#324A5E;" width="32.8" height="35.2"/>
<g>
</g>
<g>
</g>
<g>
</g>
<g>
</g>
<g>
</g>
<g>
</g>
<g>
</g>
<g>
</g>
<g>
</g>
<g>
</g>
<g>
</g>
<g>
</g>
<g>
</g>
<g>
</g>
<g>
</g>
</svg>
