<?xml version="1.0" encoding="iso-8859-1"?>
<!-- Generator: Adobe Illustrator 19.0.0, SVG Export Plug-In . SVG Version: 6.00 Build 0)  -->
<svg version="1.1" id="Layer_1" xmlns="http://www.w3.org/2000/svg" xmlns:xlink="http://www.w3.org/1999/xlink" x="0px" y="0px"
	 viewBox="0 0 508 508" style="enable-background:new 0 0 508 508;" xml:space="preserve">
<circle style="fill:#FFD05B;" cx="254" cy="254" r="254"/>
<path style="fill:#F1543F;" d="M353.6,323.2c-54.8-27.2-144-27.2-199.2,0c-54.8,27.2-54.8,71.6,0,98.8c54.8,27.2,144,27.2,199.2,0
	C408.4,394.8,408.4,350.4,353.6,323.2z"/>
<g>
	<path style="fill:#FD8469;" d="M281.2,87.2c-6.8-28.8-47.6-28.8-54.4,0L161.6,366h184.8L281.2,87.2z"/>
	<path style="fill:#FD8469;" d="M319.6,340c-36-14.4-94.8-14.4-130.8,0s-36,37.6,0,52s94.8,14.4,130.8,0S355.6,354.4,319.6,340z"/>
</g>
<g>
	<path style="fill:#FFFFFF;" d="M303.6,183.6c-32.4,9.6-67.2,10-100,2l9.2-39.6c26.8,6.8,55.2,6,81.6-2L303.6,183.6z"/>
	<path style="fill:#FFFFFF;" d="M335.6,320c-53.2,17.6-110.4,18.4-164,2l13.2-56c44.8,14.4,93.2,13.6,138-2.4L335.6,320z"/>
</g>
<g>
</g>
<g>
</g>
<g>
</g>
<g>
</g>
<g>
</g>
<g>
</g>
<g>
</g>
<g>
</g>
<g>
</g>
<g>
</g>
<g>
</g>
<g>
</g>
<g>
</g>
<g>
</g>
<g>
</g>
</svg>
