<?xml version="1.0" encoding="iso-8859-1"?>
<!-- Generator: Adobe Illustrator 19.0.0, SVG Export Plug-In . SVG Version: 6.00 Build 0)  -->
<svg version="1.1" id="Layer_1" xmlns="http://www.w3.org/2000/svg" xmlns:xlink="http://www.w3.org/1999/xlink" x="0px" y="0px"
	 viewBox="0 0 508 508" style="enable-background:new 0 0 508 508;" xml:space="preserve">
<circle style="fill:#90DFAA;" cx="254" cy="254" r="254"/>
<path style="fill:#324A5E;" d="M273.6,277.2v230c-6.4,0.4-12.8,0.8-19.6,0.8c-6.4,0-13.2-0.4-19.6-0.8v-230H273.6z"/>
<path style="fill:#FFFFFF;" d="M248.4,454.8L53.2,259.6c-3.2-3.2-3.2-8.4,0-11.6L248.4,52.8c3.2-3.2,8.4-3.2,11.6,0L455.2,248
	c3.2,3.2,3.2,8.4,0,11.6L260,454.8C256.4,458,251.6,458,248.4,454.8z"/>
<rect x="131.206" y="131.201" transform="matrix(0.7071 -0.7071 0.7071 0.7071 -105.2088 254.0034)" style="fill:#FFD05B;" width="245.598" height="245.598"/>
<g>
	<path style="fill:#FFFFFF;" d="M198.4,220.4c0.8,1.2,2,1.6,3.6,1.6s2.8-0.4,3.6-1.6c0.8-1.2,1.2-2.8,1.2-4.4v-13.2h5.2v13.6
		c0,3.6-0.8,6-2.8,8s-4.4,2.8-7.2,2.8c-3.2,0-5.6-0.8-7.6-2.8s-2.8-4.4-2.8-8v-13.6h5.2V216C197.2,217.6,197.6,219.2,198.4,220.4z"
		/>
	<path style="fill:#FFFFFF;" d="M234.8,202.4h5.2v24h-5.2l-11.6-15.2v15.2H218v-24h5.2l11.6,15.6V202.4z"/>
	<path style="fill:#FFFFFF;" d="M264.4,205.6c2.4,2,3.6,5.2,3.6,8.8s-1.2,6.8-3.2,8.8c-2.4,2-5.6,3.2-10.4,3.2H246v-24h8.4
		C258.8,202.4,262.4,203.6,264.4,205.6z M260.4,220c1.2-1.2,2-3.2,2-5.2c0-2.4-0.8-4-2-5.6c-1.2-1.2-3.2-2-6-2h-2.8V222h3.6
		C257.2,221.6,259.2,221.2,260.4,220z"/>
	<path style="fill:#FFFFFF;" d="M290,202.4v4.8h-12v4.8h10.8v4.4H278v4.8h12.4v4.8h-17.6v-24H290V202.4z"/>
	<path style="fill:#FFFFFF;" d="M314.8,210.4c0,4-1.6,6.4-4.4,7.6l6,8.4h-6.8l-5.2-7.6h-3.6v7.6h-5.2v-24h9.2c3.6,0,6.4,0.8,8,2
		C314,205.6,314.8,207.6,314.8,210.4z M308,213.2c0.8-0.4,0.8-1.6,0.8-2.8s-0.4-2-1.2-2.8c-0.8-0.4-2-0.8-3.6-0.8h-4v7.2h4
		C306.4,214,307.6,214,308,213.2z"/>
	<path style="fill:#FFFFFF;" d="M125.6,260c2.8,0,4.8-1.2,6.4-3.2l3.6,3.6c-2.8,3.2-6,4.4-9.6,4.4c-3.6,0-6.8-1.2-9.2-3.6
		c-2.4-2.4-3.6-5.2-3.6-8.8c0-3.6,1.2-6.4,3.6-8.8c2.4-2.4,5.2-3.6,8.8-3.6c4,0,7.2,1.6,10,4.4l-3.2,3.6c-1.6-2-3.6-3.2-6.4-3.2
		c-2,0-3.6,0.8-5.2,2s-2,3.2-2,5.2c0,2.4,0.8,4,2,5.2C122.4,259.6,124,260,125.6,260z"/>
	<path style="fill:#FFFFFF;" d="M159.2,261.6c-2.4,2.4-5.2,3.6-8.8,3.6s-6.4-1.2-8.8-3.6c-2.4-2.4-3.6-5.2-3.6-8.8s1.2-6.4,3.6-8.8
		c2.4-2.4,5.2-3.6,8.8-3.6s6.4,1.2,8.8,3.6c2.4,2.4,3.6,5.2,3.6,8.8C162.8,256.4,161.6,259.2,159.2,261.6z M157.6,252.8
		c0-2-0.8-4-2-5.6s-3.2-2.4-5.2-2.4s-3.6,0.8-5.2,2.4c-1.2,1.6-2,3.2-2,5.6c0,2,0.8,4,2,5.6s3.2,2.4,5.2,2.4s3.6-0.8,5.2-2.4
		C156.8,256.8,157.6,254.8,157.6,252.8z"/>
	<path style="fill:#FFFFFF;" d="M184,241.2h5.2v24H184L172.8,250v14.8h-5.2v-24h4.8L184,256L184,241.2L184,241.2z"/>
	<path style="fill:#FFFFFF;" d="M200.8,246c-0.4,0.4-0.8,0.8-0.8,1.6s0.4,1.2,0.8,1.6c0.8,0.4,2,0.8,4.4,1.6c2.4,0.4,4,1.2,5.2,2.4
		c1.2,1.2,2,2.8,2,4.8s-0.8,4-2.4,5.2c-1.6,1.2-3.6,2-6.4,2c-3.6,0-7.2-1.2-10-4l3.2-4c2.4,2.4,4.8,3.2,7.2,3.2
		c0.8,0,1.6-0.4,2.4-0.8c0.4-0.4,0.8-0.8,0.8-1.6c0-0.8-0.4-1.2-0.8-1.6c-0.4-0.4-1.6-0.8-3.6-1.2c-2.8-0.8-4.8-1.6-6-2.4
		c-1.2-1.2-2-2.8-2-4.8c0-2.4,0.8-4,2.4-5.2c1.6-1.2,3.6-2,6-2c1.6,0,3.2,0.4,4.8,0.8c1.6,0.4,2.8,1.2,4,2.4l-2.8,4
		c-2-1.6-4.4-2.4-6.4-2.4C202,245.2,201.2,245.2,200.8,246z"/>
	<path style="fill:#FFFFFF;" d="M226.8,245.6v19.2h-5.2v-19.2h-6.8v-4.4h18.8v4.4L226.8,245.6L226.8,245.6z"/>
	<path style="fill:#FFFFFF;" d="M256.8,248.8c0,4-1.6,6.4-4.4,7.2l6,8.4H252l-5.2-7.6h-3.6v7.6H238v-24h9.2c3.6,0,6.4,0.8,8,2
		C256,244,256.8,246,256.8,248.8z M250.4,251.6c0.8-0.4,0.8-1.6,0.8-2.8s-0.4-2-1.2-2.8c-0.8-0.4-2-0.8-3.6-0.8h-4v7.2h4
		C248.4,252.8,249.6,252.4,250.4,251.6z"/>
	<path style="fill:#FFFFFF;" d="M268.4,258.8c0.8,1.2,2,1.6,3.6,1.6s2.8-0.4,3.6-1.6c0.8-1.2,1.2-2.8,1.2-4.4v-13.2h5.2v13.2
		c0,3.6-0.8,6-2.8,8s-4.4,2.8-7.2,2.8s-5.6-0.8-7.2-2.8c-2-2-2.8-4.4-2.8-8v-13.2h5.2v13.2C267.2,256,267.6,257.6,268.4,258.8z"/>
	<path style="fill:#FFFFFF;" d="M298.8,260c2.8,0,4.8-1.2,6.4-3.2l3.6,3.6c-2.8,3.2-6,4.4-9.6,4.4s-6.8-1.2-9.2-3.6
		c-2.4-2.4-3.6-5.2-3.6-8.8c0-3.6,1.2-6.4,3.6-8.8c2.4-2.4,5.2-3.6,8.8-3.6c4,0,7.2,1.6,10,4.4l-3.2,3.6c-1.6-2-3.6-3.2-6.4-3.2
		c-2,0-3.6,0.8-5.2,2s-2,3.2-2,5.2c0,2.4,0.8,4,2,5.2C295.2,259.6,296.8,260,298.8,260z"/>
	<path style="fill:#FFFFFF;" d="M322.8,245.6v19.2h-5.2v-19.2h-6.8v-4.4h18.8v4.4L322.8,245.6L322.8,245.6z"/>
	<path style="fill:#FFFFFF;" d="M333.2,241.2h5.2v24h-5.2V241.2z"/>
	<path style="fill:#FFFFFF;" d="M364.4,261.6c-2.4,2.4-5.2,3.6-8.8,3.6c-3.6,0-6.4-1.2-8.8-3.6s-3.6-5.2-3.6-8.8s1.2-6.4,3.6-8.8
		c2.4-2.4,5.2-3.6,8.8-3.6c3.6,0,6.4,1.2,8.8,3.6c2.4,2.4,3.6,5.2,3.6,8.8C368,256.4,366.8,259.2,364.4,261.6z M362.8,252.8
		c0-2-0.8-4-2-5.6s-3.2-2.4-5.2-2.4s-3.6,0.8-5.2,2.4c-1.2,1.6-2,3.2-2,5.6c0,2,0.8,4,2,5.6s3.2,2.4,5.2,2.4s3.6-0.8,5.2-2.4
		C362,256.8,362.8,254.8,362.8,252.8z"/>
	<path style="fill:#FFFFFF;" d="M389.2,241.2h5.2v24h-5.2L378,250v14.8h-5.2v-24h4.8l11.6,15.2L389.2,241.2L389.2,241.2z"/>
</g>
<g>
</g>
<g>
</g>
<g>
</g>
<g>
</g>
<g>
</g>
<g>
</g>
<g>
</g>
<g>
</g>
<g>
</g>
<g>
</g>
<g>
</g>
<g>
</g>
<g>
</g>
<g>
</g>
<g>
</g>
</svg>
