<?xml version="1.0" encoding="iso-8859-1"?>
<!-- Generator: Adobe Illustrator 19.0.0, SVG Export Plug-In . SVG Version: 6.00 Build 0)  -->
<svg version="1.1" id="Layer_1" xmlns="http://www.w3.org/2000/svg" xmlns:xlink="http://www.w3.org/1999/xlink" x="0px" y="0px"
	 viewBox="0 0 508.4 508.4" style="enable-background:new 0 0 508.4 508.4;" xml:space="preserve">
<circle style="fill:#FD8469;" cx="254.2" cy="254" r="254"/>
<path style="fill:#324A5E;" d="M273.8,317.2v190.4c-6,0.4-12.4,0.8-18.4,0.8c-6.8,0-13.6-0.4-20.4-0.8V317.2H273.8z"/>
<path style="fill:#FFFFFF;" d="M248.6,452.8L53.4,257.6c-3.2-3.2-3.2-8.4,0-11.6L248.6,50.8c3.2-3.2,8.4-3.2,11.6,0L455,246
	c3.2,3.2,3.2,8.4,0,11.6L259.8,452.8C256.6,456,251.8,456,248.6,452.8z"/>
<rect x="131.543" y="129.138" transform="matrix(0.7071 -0.7071 0.7071 0.7071 -103.6514 253.6375)" style="fill:#FFD05B;" width="245.598" height="245.598"/>
<path style="fill:#FFFFFF;" d="M238.6,289.2l53.6-53.6c4.4,1.6,8.8,2,13.6,1.6c12.8-0.8,23.2-8.4,28.4-19.2l-23.6,1.6l-12.8-16.4
	l10.4-18.4l23.6-1.6c-6.8-9.6-18.4-16-30.8-14.8c-19.2,1.2-33.2,18-32,36.8c0.4,3.2,0.8,6,2,8.8l-54,54c-2-0.8-3.6-1.2-5.6-1.6
	c-12.4-2-24.8,3.2-32,12L203,282l8.8,19.2l-14.4,15.2l-23.6-3.6c4.4,11.2,14,19.6,26.8,21.6c18.8,3.2,36.4-9.6,39.6-28.8
	C241,300.4,240.2,294.4,238.6,289.2z"/>
<g>
</g>
<g>
</g>
<g>
</g>
<g>
</g>
<g>
</g>
<g>
</g>
<g>
</g>
<g>
</g>
<g>
</g>
<g>
</g>
<g>
</g>
<g>
</g>
<g>
</g>
<g>
</g>
<g>
</g>
</svg>
