<?xml version="1.0" encoding="iso-8859-1"?>
<!-- Generator: Adobe Illustrator 19.0.0, SVG Export Plug-In . SVG Version: 6.00 Build 0)  -->
<svg version="1.1" id="Layer_1" xmlns="http://www.w3.org/2000/svg" xmlns:xlink="http://www.w3.org/1999/xlink" x="0px" y="0px"
	 viewBox="0 0 508 508" style="enable-background:new 0 0 508 508;" xml:space="preserve">
<circle style="fill:#4CDBC4;" cx="254" cy="254" r="254"/>
<path style="fill:#FFFFFF;" d="M230.8,370.8l2.8-2.4l1.6-1.2c0.4-0.4,1.2-1.2,2-1.6c4.8-4.4,8.8-8.8,12.4-14
	c5.6-8,9.2-17.6,10.8-26.8c22.4-4,39.6-23.6,39.6-47.2v-10.8c0-26.4-21.6-48-48-48s-48,21.6-48,48V278c0,22.4,15.6,41.2,36.4,46.4
	c-2,5.6-4.4,10.8-8,15.6c-2.4,3.6-6,6.8-8.8,9.6c-0.4,0.4-0.8,0.8-1.2,1.2l-1.6,1.2l-3.2,2.8c-2.4,2-4.8,4.4-7.2,6.8
	c-8.4,10-13.2,23.2-12.8,36.4v2v0.4v0.4l0,0v0.4v1.2c0.4,1.6,0.4,3.2,0.8,4.8c0.8,3.2,1.6,6,2.8,9.2c2.4,6,5.6,11.2,10,15.6
	c8.4,9.2,18.8,14.4,30,16.4c10.4,1.6,20.8,0,29.2-4s14.4-9.6,18.4-15.6s6.4-11.6,7.2-16.4c1.2-4.8,0.8-8.8,0.8-11.2
	c-0.4-2.4-0.4-4-0.4-4s-0.4,1.2-0.8,4c-0.4,2.4-1.6,6-3.6,10s-5.2,8.4-9.2,12.4c-4.4,4-10,7.6-16.8,9.6c-3.2,0.8-6.8,1.6-10.4,1.6
	c-2,0-3.6,0-5.6-0.4c-0.8,0-2-0.4-2.8-0.4c-1.2,0-2-0.4-2.8-0.8c-6.8-2-14-6.4-18.8-12.8c-2.4-3.2-4.4-6.8-5.6-10.4
	c-0.8-2-1.2-4-1.6-6c-0.4-0.8-0.4-2-0.4-2.8v-0.8l0,0l0,0V400v-2c0-7.6,2.8-16,8.4-22C228,373.6,229.2,372.4,230.8,370.8z"/>
<path style="fill:#324A5E;" d="M327.2,219.6c0,40.4-32.8,73.2-73.2,73.2s-73.2-32.8-73.2-73.2S213.6,59.2,254,59.2
	C294.4,59.2,327.2,179.2,327.2,219.6z"/>
<g>
	<path style="fill:#2B3B4E;" d="M243.2,292c-32-4.8-57.2-30-61.6-61.6L243.2,292z"/>
	<path style="fill:#2B3B4E;" d="M300,276.4c-6.8,5.6-14,9.6-22,12.4L183.2,194c1.6-8.8,3.6-18.4,6-28L300,276.4z"/>
	<path style="fill:#2B3B4E;" d="M326.4,231.2c-1.6,9.2-4.4,17.6-8.8,25.2l-120-119.6c2.8-8.4,6-16.8,9.2-24.8L326.4,231.2z"/>
	<path style="fill:#2B3B4E;" d="M324,191.2L220,86.8c4.8-7.6,9.6-14.4,15.2-19.2l78.4,78.4C318,162,322,177.6,324,191.2z"/>
	<path style="fill:#2B3B4E;" d="M279.6,74.8l-9.2-9.2C273.6,68,276.8,71.2,279.6,74.8z"/>
</g>
<circle style="fill:#FFFFFF;" cx="254" cy="219.6" r="42.8"/>
<circle style="fill:#324A5E;" cx="254" cy="219.6" r="17.6"/>
<circle style="fill:#FFFFFF;" cx="254" cy="118" r="24"/>
<g>
</g>
<g>
</g>
<g>
</g>
<g>
</g>
<g>
</g>
<g>
</g>
<g>
</g>
<g>
</g>
<g>
</g>
<g>
</g>
<g>
</g>
<g>
</g>
<g>
</g>
<g>
</g>
<g>
</g>
</svg>
