<?xml version="1.0" encoding="iso-8859-1"?>
<!-- Generator: Adobe Illustrator 19.0.0, SVG Export Plug-In . SVG Version: 6.00 Build 0)  -->
<svg version="1.1" id="Layer_1" xmlns="http://www.w3.org/2000/svg" xmlns:xlink="http://www.w3.org/1999/xlink" x="0px" y="0px"
	 viewBox="0 0 508 508" style="enable-background:new 0 0 508 508;" xml:space="preserve">
<circle style="fill:#84DBFF;" cx="254" cy="254" r="254"/>
<path style="fill:#2B3B4E;" d="M355.2,217.6c-2,0-3.6-1.6-3.6-3.6v-38c0-2,1.6-3.6,3.6-3.6s3.6,1.6,3.6,3.6v38
	C358.4,216,356.8,217.6,355.2,217.6z"/>
<path style="fill:#324A5E;" d="M355.2,147.6l-58.8-48.8c-3.2-2.4-7.2-4-11.2-4h-0.8c-2.4,0-4.4,0.4-6.4,1.2l-166,63.2
	c-6.4,2.4-11.6,7.2-14.4,13.6L16.8,345.2c1.2,3.2,2.4,6,3.6,8.8l10-21.6L90,405.2l-7.2,27.2c-0.8,2.4-1.6,4.8-2.4,7.2
	c1.6,1.6,3.6,3.2,5.2,4.8c1.6-3.2,2.8-6.8,4-10.4l59.6-226.4L283.6,140l55.6,30.8c1.6,0.8,3.6,1.6,5.6,1.6c0.4,0,0.8,0,1.2,0
	c4.4,0,8.4-2,10.8-5.2c2.4-2.8,3.6-6.4,3.2-10.4C360,153.2,358.4,150,355.2,147.6z M63.6,262l49.2,40.4L36,320.8L63.6,262z
	 M92.4,396.8L36,328l79.6-19.2L92.4,396.8z M118.4,298l-49.2-40l65.2-21.2L118.4,298z M68.8,250.8L104,176c0.4-0.8,0.8-1.6,1.6-2.8
	l29.2,56.4L68.8,250.8z M143.6,202.8l-4.8,19.2l-25.6-48.8l54.4,18L143.6,202.8z M114.4,166L114.4,166l82.8-31.6L174.8,186
	L114.4,166z M183.6,182.8l21.6-50l42.8,17.6L183.6,182.8z M213.2,128l65.2-24.8l-23.2,42.4L213.2,128z M352,162.8
	c-2,2.4-6,3.2-8.8,1.6L284.4,132l-19.2,9.6l22-40c2,0.4,3.6,1.2,5.2,2.4l58.8,48.8c1.6,1.2,2.4,2.8,2.4,4.8S353.2,161.6,352,162.8z"
	/>
<circle style="fill:#E6E9EE;" cx="124.4" cy="190.4" r="39.2"/>
<circle style="fill:#ACB3BA;" cx="124.4" cy="190.4" r="16"/>
<circle style="fill:#E6E9EE;" cx="285.2" cy="118.8" r="29.6"/>
<circle style="fill:#ACB3BA;" cx="285.2" cy="118.8" r="12"/>
<circle style="fill:#E6E9EE;" cx="355.2" cy="163.6" r="16.8"/>
<circle style="fill:#ACB3BA;" cx="355.2" cy="163.6" r="6.8"/>
<g>
	<path style="fill:#2B3B4E;" d="M414.4,339.6c1.6,0,3.2-1.6,3.2-3.2V326c0-1.6-1.6-3.2-3.2-3.2c-2.4,0-4.4-2-4.4-4.4s2-4.4,4.4-4.4
		s4.4,2,4.4,4.4c0,1.6,1.6,3.2,3.2,3.2s3.2-1.6,3.2-3.2c0-6-4.8-10.8-10.8-10.8s-10.8,4.8-10.8,10.8c0,4.8,3.2,8.8,7.6,10.4v7.6
		C411.2,338,412.4,339.6,414.4,339.6z"/>
	<path style="fill:#2B3B4E;" d="M411.2,312.8l-52.8-71.2c-0.4-0.4-1.2-0.8-1.6-0.8c-0.8,0-1.2,0.4-1.6,0.8l-1.2,1.6l2.4,3.6l0.4-0.4
		l51.6,69.2c0.4,0.4,1.2,0.8,1.6,0.8s0.8,0,1.2-0.4C412,314.8,412,313.6,411.2,312.8z"/>
	<path style="fill:#2B3B4E;" d="M296.8,339.6c-1.6,0-3.2-1.6-3.2-3.2V326c0-1.6,1.6-3.2,3.2-3.2c2.4,0,4.4-2,4.4-4.4s-2-4.4-4.4-4.4
		s-4.4,2-4.4,4.4c0,1.6-1.6,3.2-3.2,3.2s-3.2-1.6-3.2-3.2c0-6,4.8-10.8,10.8-10.8s10.8,4.8,10.8,10.8c0,4.8-3.2,8.8-7.6,10.4v7.6
		C300,338,298.4,339.6,296.8,339.6z"/>
</g>
<path style="fill:#FF7058;" d="M436.8,334h-164c-2,0-3.6,1.6-3.6,3.6v34.8c0,2,1.6,3.6,3.6,3.6h164c2,0,3.6-1.6,3.6-3.6v-34.8
	C440.4,335.6,438.8,334,436.8,334z"/>
<g>
	<circle style="fill:#F1543F;" cx="296.8" cy="354.8" r="10.4"/>
	<circle style="fill:#F1543F;" cx="335.6" cy="354.8" r="10.4"/>
	<circle style="fill:#F1543F;" cx="374.4" cy="354.8" r="10.4"/>
	<circle style="fill:#F1543F;" cx="413.2" cy="354.8" r="10.4"/>
</g>
<path style="fill:#FFFFFF;" d="M358,231.2v-8.4h-6.4V234c0,1.6,1.6,3.2,3.2,3.2c2.8,0,5.6,2.4,5.6,5.6c0,2.8-2.4,5.6-5.6,5.6
	c-2.8,0-5.6-2.4-5.6-5.6c0-1.6-1.6-3.2-3.2-3.2s-3.2,1.6-3.2,3.2c0,6.4,5.2,12,12,12c6.4,0,12-5.2,12-12
	C366.8,237.2,363.2,232.4,358,231.2z"/>
<path style="fill:#FF7058;" d="M370.4,198.4h-31.2c-0.8,0-1.6,0.8-1.6,2l4,21.2c0,0.8,0.8,1.2,1.6,1.2h23.2c0.8,0,1.2-0.4,1.6-1.2
	l4-21.2C372,199.2,371.6,198.4,370.4,198.4z"/>
<path style="fill:#2B3B4E;" d="M298,312.8c-0.8,0.8-0.4,2.4,0.4,3.2c0.8,0.8,2.4,0.4,3.2-0.4l54.8-68.4l-2.4-3.6L298,312.8z"/>
<g>
</g>
<g>
</g>
<g>
</g>
<g>
</g>
<g>
</g>
<g>
</g>
<g>
</g>
<g>
</g>
<g>
</g>
<g>
</g>
<g>
</g>
<g>
</g>
<g>
</g>
<g>
</g>
<g>
</g>
</svg>
