<?xml version="1.0" encoding="iso-8859-1"?>
<!-- Generator: Adobe Illustrator 19.0.0, SVG Export Plug-In . SVG Version: 6.00 Build 0)  -->
<svg version="1.1" id="Layer_1" xmlns="http://www.w3.org/2000/svg" xmlns:xlink="http://www.w3.org/1999/xlink" x="0px" y="0px"
	 viewBox="0 0 508 508" style="enable-background:new 0 0 508 508;" xml:space="preserve">
<circle style="fill:#324A5E;" cx="254" cy="254" r="254"/>
<g>
	<path style="fill:#FF7058;" d="M268.8,246c-1.2,0.8-2.4,1.6-4,2.4c-2.4,1.2-5.6,1.6-8.8,1.6l-1.6-1.6l-1.2,1.6l-4.4,4L124.4,374.4
		c-2.4,2.4-6,2-8.4,0c-2.4-2.4-2-6,0-8.4l122-118l4.4-4l8-7.6c2.4-2,5.6-2,8,0L268.8,246z"/>
	<path style="fill:#FF7058;" d="M392.8,374.4c-1.2,1.2-2.8,2-4.4,2s-2.8-0.4-4-1.6L260.4,254l-4.4-4c3.2,0,6-0.4,8.8-1.6
		c1.6-0.8,2.8-1.6,4-2.4l2,2l122,118C395.2,368,395.2,372,392.8,374.4z"/>
</g>
<g>
	<path style="fill:#FFFFFF;" d="M250.8,210c-1.2,2-2.8,3.6-4.8,5.6c-0.8,0.8-1.6,1.6-2.4,2.4c-0.8,0.8-1.2,1.2-2,2
		c-1.2,1.6-2,3.2-2.8,5.2s-1.2,4-1.2,5.6c0,2,0.4,4,0.8,5.6c0.8,2.4,2.4,5.2,4,7.2l-4.4,4c-2.4-2.4-4.4-5.6-6-9.2
		c-0.8-2.4-1.2-5.2-1.2-7.6c0-2.8,0.4-5.2,1.2-8c0.8-2.4,2-4.8,4-6.8c0.8-1.2,1.6-2,2.8-2.8c0.8-0.8,1.6-1.6,2.4-2.4
		c2.8-2.8,5.6-6,7.6-9.6s3.2-7.2,4-10.8c0.4-2,0.4-3.6,0.4-5.2c0-2,0.4-3.6,0.4-5.2c0.8-14,2-23.2,2-23.2s1.2,9.2,2,23.2
		c0,1.6,0,3.6,0.4,5.2c0,2,0,4,0,6c-0.4,4.4-1.6,8.8-3.6,12.8C253.2,206,252,208,250.8,210z"/>
	<path style="fill:#FFFFFF;" d="M277.2,232.8c0,1.2,0,2.8-0.4,4.8s-1.2,4.4-2.8,7.2c-0.8,1.2-1.6,2.4-2.8,3.6
		c-1.2,1.2-2.8,2.4-4.4,3.6c-2,1.2-4,2-6,2.4c-1.6,0.4-3.6,0.8-5.6,0.8c-1.6,0-4-0.4-6-0.8l4.4-4.4c0.4,0,1.2,0,1.6,0.4
		c0.4,0,0.8,0,1.2,0c3.2,0,6-0.4,8.8-1.6c1.6-0.8,2.8-1.6,4-2.4c1.2-0.8,2-2,2.8-2.8c1.6-2,2.8-4,3.6-6
		C276,235.6,276.4,234,277.2,232.8c0-1.2,0-1.6,0-1.6S277.2,232,277.2,232.8z"/>
	<rect x="264.4" y="21.6" style="fill:#FFFFFF;" width="8" height="115.2"/>
	<rect x="236.4" y="21.6" style="fill:#FFFFFF;" width="8" height="115.2"/>
	<rect x="79.2" y="350.4" style="fill:#FFFFFF;" width="349.2" height="64.4"/>
</g>
<g>
	<path style="fill:#ACB3BA;" d="M394.4,400h-58c-9.6,0-17.2-7.6-17.2-17.2l0,0c0-9.6,7.6-17.2,17.2-17.2h58.4
		c9.6,0,17.2,7.6,17.2,17.2l0,0C411.6,392.4,404,400,394.4,400z"/>
	<path style="fill:#ACB3BA;" d="M283.2,400h-58.4c-9.6,0-17.2-7.6-17.2-17.2l0,0c0-9.6,7.6-17.2,17.2-17.2h58.4
		c9.6,0,17.2,7.6,17.2,17.2l0,0C300.4,392.4,292.8,400,283.2,400z"/>
	<path style="fill:#ACB3BA;" d="M171.6,400h-58c-9.6,0-17.2-7.6-17.2-17.2l0,0c0-9.6,7.6-17.2,17.2-17.2H172
		c9.6,0,17.2,7.6,17.2,17.2l0,0C188.8,392.4,181.2,400,171.6,400z"/>
</g>
<path style="fill:#FFD05B;" d="M254.8,99.6c-15.6,0-28.4,45.2-28.4,60.8l0,0c0,15.6,12.8,28.4,28.4,28.4s28.4-12.8,28.4-28.4l0,0
	C283.2,144.8,270.4,99.6,254.8,99.6z"/>
<circle style="fill:#F9B54C;" cx="254.8" cy="160" r="16"/>
<circle style="fill:#FFD05B;" cx="254.8" cy="160" r="6.4"/>
<circle style="fill:#F9B54C;" cx="254.8" cy="120.8" r="8.8"/>
<g>
</g>
<g>
</g>
<g>
</g>
<g>
</g>
<g>
</g>
<g>
</g>
<g>
</g>
<g>
</g>
<g>
</g>
<g>
</g>
<g>
</g>
<g>
</g>
<g>
</g>
<g>
</g>
<g>
</g>
</svg>
