<?xml version="1.0" encoding="iso-8859-1"?>
<!-- Generator: Adobe Illustrator 19.0.0, SVG Export Plug-In . SVG Version: 6.00 Build 0)  -->
<svg version="1.1" id="Layer_1" xmlns="http://www.w3.org/2000/svg" xmlns:xlink="http://www.w3.org/1999/xlink" x="0px" y="0px"
	 viewBox="0 0 508 508" style="enable-background:new 0 0 508 508;" xml:space="preserve">
<circle style="fill:#90DFAA;" cx="254" cy="254" r="254"/>
<path style="fill:#E6E9EE;" d="M272.8,267.6h169.6c6.4,0,12-5.2,12-12l0,0c0-6.4-5.2-12-12-12H272.8c-6.4,0-12,5.2-12,12l0,0
	C261.2,262,266.4,267.6,272.8,267.6z"/>
<g>
	<polygon style="fill:#FFFFFF;" points="230.4,219.6 230.4,288.4 280.4,273.2 280.4,234.8 	"/>
	<rect x="156.4" y="187.2" style="fill:#FFFFFF;" width="58.8" height="133.6"/>
</g>
<polygon style="fill:#E6E9EE;" points="246,200.4 215.2,187.2 215.2,320.8 246,307.6 "/>
<g>
	<polygon style="fill:#ACB3BA;" points="319.6,267.6 308,267.6 322.4,244 333.6,244 	"/>
	<polygon style="fill:#ACB3BA;" points="345.2,267.6 333.6,267.6 348,244 359.2,244 	"/>
	<polygon style="fill:#ACB3BA;" points="370.8,267.6 359.2,267.6 373.6,244 384.8,244 	"/>
	<polygon style="fill:#ACB3BA;" points="396.4,267.6 384.8,267.6 398.8,244 410.4,244 	"/>
	<polygon style="fill:#ACB3BA;" points="422,267.6 410.4,267.6 424.4,244 436,244 	"/>
</g>
<rect x="53.6" y="187.2" style="fill:#324A5E;" width="102.8" height="133.6"/>
<g>
	<rect x="71.2" y="215.6" style="fill:#2B3B4E;" width="67.6" height="11.2"/>
	<rect x="71.2" y="248.4" style="fill:#2B3B4E;" width="67.6" height="11.2"/>
	<rect x="71.2" y="281.2" style="fill:#2B3B4E;" width="67.6" height="11.2"/>
</g>
<g>
</g>
<g>
</g>
<g>
</g>
<g>
</g>
<g>
</g>
<g>
</g>
<g>
</g>
<g>
</g>
<g>
</g>
<g>
</g>
<g>
</g>
<g>
</g>
<g>
</g>
<g>
</g>
<g>
</g>
</svg>
