<?xml version="1.0" encoding="iso-8859-1"?>
<!-- Generator: Adobe Illustrator 19.0.0, SVG Export Plug-In . SVG Version: 6.00 Build 0)  -->
<svg version="1.1" id="Layer_1" xmlns="http://www.w3.org/2000/svg" xmlns:xlink="http://www.w3.org/1999/xlink" x="0px" y="0px"
	 viewBox="0 0 508 508" style="enable-background:new 0 0 508 508;" xml:space="preserve">
<circle style="fill:#84DBFF;" cx="254" cy="254" r="254"/>
<circle style="fill:#FFFFFF;" cx="254" cy="289.2" r="147.2"/>
<g>
	<path style="fill:#FF7058;" d="M435.2,266c0,10.8-81.2,20-181.2,20s-181.2-8.8-181.2-20c0-3.6,8-6.8,22.4-9.6c0-1.6,0-3.6,0-5.2
		c0-53.2,26.4-100.4,66.8-129.2c12.4-8.8,25.6-15.6,40-20.8c16.4-5.6,34-8.8,52-8.8s35.6,3.2,52,8.8c14.4,4.8,28,12,40,20.8
		c40.4,28.8,66.8,76,66.8,129.2c0,1.6,0,3.6,0,5.2C426.8,259.2,435.2,262.4,435.2,266z"/>
	<path style="fill:#FF7058;" d="M412.8,250.8c0,1.6,0,3.2,0,4.8c0,1.2,0,2,0,3.2H95.6c0-1.2,0-2,0-3.2c0-1.6,0-3.2,0-4.8
		c0-2.8,0-5.6,0.4-8.4c4-83.6,73.2-150,158-150s154,66.4,158.4,150.4C412.8,245.2,412.8,248,412.8,250.8z"/>
</g>
<g>
	<path style="fill:#F1543F;" d="M346,121.6L298,228l8-126.8C320.4,106,334,113.2,346,121.6z"/>
	<path style="fill:#F1543F;" d="M210,228l-48-106.4c12.4-8.8,25.6-15.6,40-20.8L210,228z"/>
</g>
<path style="fill:#FF7058;" d="M298,228h-88l-19.2-123.2c-2.8-17.6,10.8-33.2,28.4-33.2h70c17.6,0,31.2,15.6,28.4,33.2L298,228z"/>
<g>
	<path style="fill:#F1543F;" d="M249.2,265.6c-53.6,0-101.6-2.8-134-6.8c-7.6-0.8-14.4-2-20-3.2c0-1.6,0-3.2,0-4.8
		c0-2.8,0-5.6,0.4-8.4c14.8,6.8,36,12.4,61.6,16.4C184,263.2,215.2,265.6,249.2,265.6z"/>
	<path style="fill:#F1543F;" d="M412.8,250.8c0,1.6,0,3.2,0,4.8c-5.6,1.2-12.4,2.4-20,3.2c-32.4,4-80,6.8-134,6.8
		c34-0.4,65.6-2.8,92.4-6.8c25.6-4,46.8-9.6,61.6-16.4C412.8,245.2,412.8,248,412.8,250.8z"/>
	<path style="fill:#F1543F;" d="M254,282.4L254,282.4c-31.2,0-56.8-25.6-56.8-56.8l0,0c0-31.2,25.6-56.8,56.8-56.8l0,0
		c31.2,0,56.8,25.6,56.8,56.8l0,0C310.8,257.2,285.2,282.4,254,282.4z"/>
</g>
<path style="fill:#FFD05B;" d="M254,266.8L254,266.8c-22.8,0-40.8-18.4-40.8-40.8l0,0c0-22.8,18.4-40.8,40.8-40.8l0,0
	c22.8,0,40.8,18.4,40.8,40.8l0,0C294.8,248.4,276.8,266.8,254,266.8z"/>
<g>
</g>
<g>
</g>
<g>
</g>
<g>
</g>
<g>
</g>
<g>
</g>
<g>
</g>
<g>
</g>
<g>
</g>
<g>
</g>
<g>
</g>
<g>
</g>
<g>
</g>
<g>
</g>
<g>
</g>
</svg>
