<?xml version="1.0" encoding="iso-8859-1"?>
<!-- Generator: Adobe Illustrator 19.0.0, SVG Export Plug-In . SVG Version: 6.00 Build 0)  -->
<svg version="1.1" id="Layer_1" xmlns="http://www.w3.org/2000/svg" xmlns:xlink="http://www.w3.org/1999/xlink" x="0px" y="0px"
	 viewBox="0 0 508 508" style="enable-background:new 0 0 508 508;" xml:space="preserve">
<circle style="fill:#324A5E;" cx="254" cy="254" r="254"/>
<path style="fill:#2B3B4E;" d="M45.2,398.8C91.2,464.8,167.6,508,254,508s162.8-43.2,208.8-109.2H45.2z"/>
<rect x="82.4" y="210.8" style="fill:#FFFFFF;" width="343.2" height="188"/>
<polygon style="fill:#FF7058;" points="442.8,210.8 65.2,210.8 96,125.6 412,125.6 "/>
<g>
	<rect x="332.8" y="297.6" style="fill:#E6E9EE;" width="72" height="66"/>
	<rect x="103.2" y="297.6" style="fill:#E6E9EE;" width="72" height="66"/>
</g>
<g>
	<rect x="338" y="334.4" style="fill:#54C0EB;" width="26.4" height="24"/>
	<rect x="372.8" y="334.4" style="fill:#54C0EB;" width="26.4" height="24"/>
	<rect x="338" y="302.4" style="fill:#54C0EB;" width="26.4" height="24"/>
	<rect x="372.8" y="302.4" style="fill:#54C0EB;" width="26.4" height="24"/>
	<rect x="108.8" y="334.4" style="fill:#54C0EB;" width="26.4" height="24"/>
	<rect x="143.6" y="334.4" style="fill:#54C0EB;" width="26.4" height="24"/>
	<rect x="108.8" y="302.4" style="fill:#54C0EB;" width="26.4" height="24"/>
	<rect x="143.6" y="302.4" style="fill:#54C0EB;" width="26.4" height="24"/>
</g>
<rect x="213.2" y="294.8" style="fill:#FFD05B;" width="81.6" height="104"/>
<ellipse style="fill:#F9B54C;" cx="227.2" cy="346.8" rx="6.4" ry="6"/>
<g>
</g>
<g>
</g>
<g>
</g>
<g>
</g>
<g>
</g>
<g>
</g>
<g>
</g>
<g>
</g>
<g>
</g>
<g>
</g>
<g>
</g>
<g>
</g>
<g>
</g>
<g>
</g>
<g>
</g>
</svg>
