<?xml version="1.0" encoding="iso-8859-1"?>
<!-- Generator: Adobe Illustrator 19.0.0, SVG Export Plug-In . SVG Version: 6.00 Build 0)  -->
<svg version="1.1" id="Layer_1" xmlns="http://www.w3.org/2000/svg" xmlns:xlink="http://www.w3.org/1999/xlink" x="0px" y="0px"
	 viewBox="0 0 508 508" style="enable-background:new 0 0 508 508;" xml:space="preserve">
<circle style="fill:#54C0EB;" cx="254" cy="254" r="254"/>
<path style="fill:#84DBFF;" d="M57.6,414.8C104,471.6,174.8,508,254,508s150-36.4,196.4-93.2H57.6z"/>
<g>
	<rect x="172.8" y="330.4" style="fill:#FF7058;" width="162.4" height="67.6"/>
	<path style="fill:#FF7058;" d="M268.8,77.2c1.2-2.4,2-5.2,2-8c0-9.2-7.6-16.8-16.8-16.8s-16.8,7.6-16.8,16.8c0,2.8,0.8,5.6,2,8
		H268.8z"/>
</g>
<path style="fill:#F1543F;" d="M346.8,269.2c1.6,0.4,3.2,0.4,4.8,0.4c11.2,0,20-8.8,20-20c0-11.2-8.8-20-20-20
	c-1.6,0-3.2,0.4-4.8,0.4V269.2z"/>
<path style="fill:#FF7058;" d="M356.4,227.6c0-4-2.8-7.6-6.4-8.8c-2.4-0.8-5.2-1.2-8-1.2c-2.4,0-5.2,0.4-7.2,0.8V280
	c2.4,0.4,4.8,0.8,7.2,0.8c2.8,0,5.6-0.4,8-1.2c4-1.2,6.4-4.8,6.4-8.8V227.6z"/>
<g>
	<path style="fill:#F1543F;" d="M337.6,212.8c-4,0-8.4,0.8-13.2,2.8c-13.6,5.6-23.6,18.8-23.6,34c-0.4,20.8,16.4,37.6,37.2,37.6l0,0
		c4.8,0,8.4-4,8.4-8.8v-56.8C346.8,216.8,342.4,212.4,337.6,212.8z"/>
	<path style="fill:#F1543F;" d="M161.2,269.2c-1.6,0.4-3.2,0.4-4.8,0.4c-11.2,0-20-8.8-20-20c0-11.2,8.8-20,20-20
		c1.6,0,3.2,0.4,4.8,0.4V269.2z"/>
</g>
<path style="fill:#FF7058;" d="M151.6,227.6c0-4,2.8-7.6,6.4-8.8c2.4-0.8,5.2-1.2,8-1.2c2.4,0,5.2,0.4,7.2,0.8V280
	c-2.4,0.4-4.8,0.8-7.2,0.8c-2.8,0-5.6-0.4-8-1.2c-4-1.2-6.4-4.8-6.4-8.8V227.6z"/>
<g>
	<path style="fill:#F1543F;" d="M170.4,212.8c4,0,8.4,0.8,13.2,2.8c13.6,5.6,23.6,18.8,23.6,34c0.4,20.8-16.4,37.6-37.2,37.6l0,0
		c-4.8,0-8.4-4-8.4-8.8v-56.8C161.2,216.8,165.6,212.4,170.4,212.8z"/>
	<path style="fill:#F1543F;" d="M281.6,79.2c-0.8-6-6-10.4-12-10.4h-31.2c-6,0-11.2,4.4-12,10.4c-0.4,2.4,0,5.2,0.4,8
		c2,10.8,10.8,20,21.6,22c17.6,3.6,33.2-10,33.2-27.2C281.6,81.2,281.6,80.4,281.6,79.2z"/>
</g>
<path style="fill:#FF7058;" d="M254,80c-44,0-79.2,35.2-80,78.8h160C333.2,115.2,298,80,254,80z"/>
<g>
	<path style="fill:#F1543F;" d="M336.4,314H171.6c-6.8,0-12.4,5.6-12.4,12.4l0,0c0,6.8,5.6,12.4,12.4,12.4h164.8
		c6.8,0,12.4-5.6,12.4-12.4l0,0C348.8,319.2,343.2,314,336.4,314z"/>
	<path style="fill:#F1543F;" d="M336.4,390.4H171.6c-6.8,0-12.4,5.6-12.4,12.4l0,0c0,6.8,5.6,12.4,12.4,12.4h164.8
		c6.8,0,12.4-5.6,12.4-12.4l0,0C348.8,395.6,343.2,390.4,336.4,390.4z"/>
</g>
<rect x="172.8" y="180.8" style="fill:#FF7058;" width="162.4" height="133.2"/>
<circle style="fill:#F1543F;" cx="254" cy="249.6" r="42.4"/>
<circle style="fill:#FF7058;" cx="254" cy="249.6" r="26.4"/>
<g>
	<circle style="fill:#F1543F;" cx="254" cy="249.6" r="11.2"/>
	<path style="fill:#F1543F;" d="M336.4,158.8H171.6c-6.8,0-12.4,5.6-12.4,12.4l0,0c0,6.8,5.6,12.4,12.4,12.4h164.8
		c6.8,0,12.4-5.6,12.4-12.4l0,0C348.8,164.4,343.2,158.8,336.4,158.8z"/>
</g>
<g>
</g>
<g>
</g>
<g>
</g>
<g>
</g>
<g>
</g>
<g>
</g>
<g>
</g>
<g>
</g>
<g>
</g>
<g>
</g>
<g>
</g>
<g>
</g>
<g>
</g>
<g>
</g>
<g>
</g>
</svg>
