<?xml version="1.0" encoding="iso-8859-1"?>
<!-- Generator: Adobe Illustrator 19.0.0, SVG Export Plug-In . SVG Version: 6.00 Build 0)  -->
<svg version="1.1" id="Layer_1" xmlns="http://www.w3.org/2000/svg" xmlns:xlink="http://www.w3.org/1999/xlink" x="0px" y="0px"
	 viewBox="0 0 508 508" style="enable-background:new 0 0 508 508;" xml:space="preserve">
<circle style="fill:#FD8469;" cx="254" cy="254" r="254"/>
<g>
	<rect x="150.4" y="67.2" style="fill:#E6E9EE;" width="36" height="374"/>
	<rect x="321.6" y="67.2" style="fill:#E6E9EE;" width="36" height="374"/>
</g>
<g>
	<path style="fill:#FFFFFF;" d="M356,146H152c-11.2,0-20-8.8-20-20l0,0c0-11.2,8.8-20,20-20h203.6c11.2,0,20,8.8,20,20l0,0
		C376,137.2,366.8,146,356,146z"/>
	<path style="fill:#FFFFFF;" d="M356,233.2H152c-11.2,0-20-8.8-20-20l0,0c0-11.2,8.8-20,20-20h203.6c11.2,0,20,8.8,20,20l0,0
		C376,224.4,366.8,233.2,356,233.2z"/>
	<path style="fill:#FFFFFF;" d="M356,320.8H152c-11.2,0-20-8.8-20-20l0,0c0-11.2,8.8-20,20-20h203.6c11.2,0,20,8.8,20,20l0,0
		C376,311.6,366.8,320.8,356,320.8z"/>
	<path style="fill:#FFFFFF;" d="M356,408H152c-11.2,0-20-8.8-20-20l0,0c0-11.2,8.8-20,20-20h203.6c11.2,0,20,8.8,20,20l0,0
		C376,398.8,366.8,408,356,408z"/>
</g>
<g>
	<circle style="fill:#CED5E0;" cx="340.4" cy="126" r="7.6"/>
	<circle style="fill:#CED5E0;" cx="167.6" cy="126" r="7.6"/>
	<circle style="fill:#CED5E0;" cx="340.4" cy="213.2" r="7.6"/>
	<circle style="fill:#CED5E0;" cx="167.6" cy="213.2" r="7.6"/>
	<circle style="fill:#CED5E0;" cx="340.4" cy="300.8" r="7.6"/>
	<circle style="fill:#CED5E0;" cx="167.6" cy="300.8" r="7.6"/>
	<circle style="fill:#CED5E0;" cx="340.4" cy="388" r="7.6"/>
	<circle style="fill:#CED5E0;" cx="167.6" cy="388" r="7.6"/>
</g>
<g>
</g>
<g>
</g>
<g>
</g>
<g>
</g>
<g>
</g>
<g>
</g>
<g>
</g>
<g>
</g>
<g>
</g>
<g>
</g>
<g>
</g>
<g>
</g>
<g>
</g>
<g>
</g>
<g>
</g>
</svg>
