<?xml version="1.0" encoding="iso-8859-1"?>
<!-- Generator: Adobe Illustrator 19.0.0, SVG Export Plug-In . SVG Version: 6.00 Build 0)  -->
<svg version="1.1" id="Layer_1" xmlns="http://www.w3.org/2000/svg" xmlns:xlink="http://www.w3.org/1999/xlink" x="0px" y="0px"
	 viewBox="0 0 508 508" style="enable-background:new 0 0 508 508;" xml:space="preserve">
<circle style="fill:#90DFAA;" cx="254" cy="254" r="254"/>
<path style="fill:#E6E9EE;" d="M404,402.8h11.6v-24.4c0-3.2-2.4-5.6-5.6-5.6H307.2c-3.2,0-5.6,2.4-5.6,5.6s2.4,5.6,5.6,5.6H404
	V402.8z"/>
<g>
	<path style="fill:#2B3B4E;" d="M409.6,370.4h-49.2v16H402v21.2h16v-29.2C418,374,414.4,370.4,409.6,370.4z"/>
	<path style="fill:#2B3B4E;" d="M354,196.8L354,196.8c-6,3.6-13.6,1.6-17.2-4.4l-22-37.2c-3.6-6-1.6-13.6,4.4-17.2l0,0
		c6-3.6,13.6-1.6,17.2,4.4l22,37.2C362,185.6,360,193.2,354,196.8z"/>
</g>
<path style="fill:#FFFFFF;" d="M345.6,348v-0.4c-5.2-22.4-3.6-45.6,4.4-67.2c4.8-13.6,7.6-28,8-43.2c0-0.8,0-2,0-2.8
	c0-50.8-28.4-95.2-70-117.6c-20.4-11.2-44.4-17.2-69.6-16c-70,2.8-126.8,60.4-128.4,130.4c-0.4,18,2.8,34.8,8.4,50.8
	c8,21.2,9.2,44,4,66v0.4c-6.4,28.4,14.8,55.2,44,55.2h154.8C330.4,403.2,352,376.4,345.6,348z"/>
<path style="fill:#FF7058;" d="M358,234.4c0,0.8,0,2,0,2.8h-0.4c-22.8,5.2-42,20-53.2,40.4c-15.6,29.2-46.4,48.4-81.6,48
	c-48.8-0.8-88.4-40.4-89.6-88.8c-1.2-51.2,40-93.2,91.2-93.2c0.4,0,0.8,0,1.2,0c22,0.4,42.8-8,58.8-23.2c1.2-1.2,2.4-2.4,4-3.6
	C330,139.6,358,183.6,358,234.4z"/>
<circle style="fill:#FFD05B;" cx="224" cy="235.2" r="74.4"/>
<circle style="fill:#FF7058;" cx="224" cy="235.2" r="50"/>
<g>
</g>
<g>
</g>
<g>
</g>
<g>
</g>
<g>
</g>
<g>
</g>
<g>
</g>
<g>
</g>
<g>
</g>
<g>
</g>
<g>
</g>
<g>
</g>
<g>
</g>
<g>
</g>
<g>
</g>
</svg>
