<?xml version="1.0" encoding="iso-8859-1"?>
<!-- Generator: Adobe Illustrator 19.0.0, SVG Export Plug-In . SVG Version: 6.00 Build 0)  -->
<svg version="1.1" id="Layer_1" xmlns="http://www.w3.org/2000/svg" xmlns:xlink="http://www.w3.org/1999/xlink" x="0px" y="0px"
	 viewBox="0 0 508 508" style="enable-background:new 0 0 508 508;" xml:space="preserve">
<circle style="fill:#FD8469;" cx="254" cy="254" r="254"/>
<polygon style="fill:#E6E9EE;" points="183.6,69.6 215.6,114.4 292.4,114.4 324.4,69.6 "/>
<g>
	<path style="fill:#FFFFFF;" d="M318.4,72.8H189.6c-3.6,0-6.8-3.2-6.8-6.8l0,0c0-3.6,3.2-6.8,6.8-6.8h129.2c3.6,0,6.8,3.2,6.8,6.8
		l0,0C325.2,69.6,322.4,72.8,318.4,72.8z"/>
	<rect x="215.6" y="114.4" style="fill:#FFFFFF;" width="76.4" height="40.8"/>
	<path style="fill:#FFFFFF;" d="M254,463.2L254,463.2c0,0-32-52.4-32-70.4v-224h64v224C286,410.4,254,463.2,254,463.2z"/>
</g>
<g>
	<polygon style="fill:#E6E9EE;" points="286.8,168.8 221.2,168.8 215.6,155.2 292.4,155.2 	"/>
	<path style="fill:#E6E9EE;" d="M286.8,194l-66.8,6c-2.8,0.4-4.4,2.4-4.4,5.2c0.4,2.8,2.4,4.8,5.2,4.4l66.8-6
		c2.8-0.4,4.4-2.4,4.4-5.2l0,0C292,195.6,289.6,193.6,286.8,194z"/>
	<path style="fill:#E6E9EE;" d="M286.8,215.6l-66.8,6c-2.8,0.4-4.4,2.4-4.4,5.2c0.4,2.8,2.4,4.8,5.2,4.4l66.8-6
		c2.8-0.4,4.4-2.4,4.4-5.2l0,0C292,217.6,289.6,215.6,286.8,215.6z"/>
	<path style="fill:#E6E9EE;" d="M286.8,237.6l-66.8,6c-2.8,0.4-4.4,2.4-4.4,5.2c0.4,2.8,2.4,4.8,5.2,4.4l66.8-6
		c2.8-0.4,4.4-2.4,4.4-5.2l0,0C292,239.2,289.6,237.2,286.8,237.6z"/>
	<path style="fill:#E6E9EE;" d="M286.8,259.2l-66.8,6c-2.8,0.4-4.4,2.4-4.4,5.2c0.4,2.8,2.4,4.8,5.2,4.4l66.8-6
		c2.8-0.4,4.4-2.4,4.4-5.2l0,0C292,261.2,289.6,259.2,286.8,259.2z"/>
	<path style="fill:#E6E9EE;" d="M286.8,281.2l-66.8,6c-2.8,0.4-4.4,2.4-4.4,5.2c0.4,2.8,2.4,4.8,5.2,4.4l66.8-6
		c2.8-0.4,4.4-2.4,4.4-5.2l0,0C292,282.8,289.6,280.8,286.8,281.2z"/>
	<path style="fill:#E6E9EE;" d="M286.8,302.8l-66.8,6c-2.8,0.4-4.4,2.4-4.4,5.2c0.4,2.8,2.4,4.8,5.2,4.4l66.8-6
		c2.8-0.4,4.4-2.4,4.4-5.2l0,0C292,304.8,289.6,302.8,286.8,302.8z"/>
	<path style="fill:#E6E9EE;" d="M286.8,324.8l-66.8,6c-2.8,0.4-4.4,2.4-4.4,5.2c0.4,2.8,2.4,4.4,5.2,4.4l66.8-6
		c2.8-0.4,4.4-2.4,4.4-5.2l0,0C292,326.4,289.6,324.4,286.8,324.8z"/>
	<path style="fill:#E6E9EE;" d="M286.8,346.4l-66.8,6c-2.8,0.4-4.4,2.4-4.4,5.2c0.4,2.8,2.4,4.8,5.2,4.4l66.8-6
		c2.8-0.4,4.4-2.4,4.4-5.2l0,0C292,348.4,289.6,346.4,286.8,346.4z"/>
	<path style="fill:#E6E9EE;" d="M286.8,368.4l-66.8,6c-2.8,0.4-4.4,2.4-4.4,5.2c0.4,2.8,2.4,4.8,5.2,4.4l66.8-6
		c2.8-0.4,4.4-2.4,4.4-5.2l0,0C292,370,289.6,368,286.8,368.4z"/>
</g>
<g>
</g>
<g>
</g>
<g>
</g>
<g>
</g>
<g>
</g>
<g>
</g>
<g>
</g>
<g>
</g>
<g>
</g>
<g>
</g>
<g>
</g>
<g>
</g>
<g>
</g>
<g>
</g>
<g>
</g>
</svg>
