<?xml version="1.0" encoding="iso-8859-1"?>
<!-- Generator: Adobe Illustrator 19.0.0, SVG Export Plug-In . SVG Version: 6.00 Build 0)  -->
<svg version="1.1" id="Layer_1" xmlns="http://www.w3.org/2000/svg" xmlns:xlink="http://www.w3.org/1999/xlink" x="0px" y="0px"
	 viewBox="0 0 508 508" style="enable-background:new 0 0 508 508;" xml:space="preserve">
<path style="fill:#FD8469;" d="M508,254c0,134-103.6,243.6-235.2,253.2c-6.4,0.4-12.4,0.8-18.8,0.8c-6.4,0-12.8-0.4-18.8-0.8
	C103.6,497.6,0,388,0,254C0,113.6,113.6,0,254,0S508,113.6,508,254z"/>
<path style="fill:#E6E9EE;" d="M422.4,176L332,85.6c-3.6-3.6-8.8-5.6-14-5.6H190c-5.2,0-10.4,2-14,5.6L85.6,176
	c-3.6,3.6-5.6,8.8-5.6,14v128c0,5.2,2,10.4,5.6,14l90.4,90.4c3.6,3.6,8.8,5.6,14,5.6h128c5.2,0,10.4-2,14-5.6l90.4-90.4
	c3.6-3.6,5.6-8.8,5.6-14V190C428,184.8,426,180,422.4,176z"/>
<circle style="fill:#FFFFFF;" cx="254" cy="254" r="162.4"/>
<circle style="fill:#E6E9EE;" cx="254" cy="254" r="82.8"/>
<circle style="fill:#FD8469;" cx="254" cy="254" r="64.8"/>
<g>
</g>
<g>
</g>
<g>
</g>
<g>
</g>
<g>
</g>
<g>
</g>
<g>
</g>
<g>
</g>
<g>
</g>
<g>
</g>
<g>
</g>
<g>
</g>
<g>
</g>
<g>
</g>
<g>
</g>
</svg>
