<?xml version="1.0" encoding="iso-8859-1"?>
<!-- Generator: Adobe Illustrator 19.0.0, SVG Export Plug-In . SVG Version: 6.00 Build 0)  -->
<svg version="1.1" id="Layer_1" xmlns="http://www.w3.org/2000/svg" xmlns:xlink="http://www.w3.org/1999/xlink" x="0px" y="0px"
	 viewBox="0 0 508 508" style="enable-background:new 0 0 508 508;" xml:space="preserve">
<circle style="fill:#FFD05B;" cx="254" cy="254" r="254"/>
<path style="fill:#324A5E;" d="M168.8,189.6v93.6c0,6,4.8,10.8,10.8,10.8h31.6c14.4,0,25.6,12.8,24,27.2c-3.6,31.2-6,66-6,87.6
	c0,7.6,0.8,15.2,1.6,22c1.6,11.6,12,20,23.6,20s21.6-8.4,23.6-20c1.2-7.2,1.6-14.4,1.6-22c0-21.6-2.4-56.4-6-87.6
	c-1.6-14.4,9.6-27.2,24-27.2h31.6c6,0,10.8-4.8,10.8-10.8v-93.6H168.8z"/>
<rect x="168.8" y="189.6" style="fill:#FFFFFF;" width="170.8" height="81.2"/>
<g>
	<rect x="168.8" y="206" style="fill:#E6E9EE;" width="170.8" height="7.2"/>
	<rect x="168.8" y="246.8" style="fill:#E6E9EE;" width="170.8" height="7.2"/>
</g>
<path style="fill:#FF7058;" d="M338.8,189.6c3.2-42.8,6.4-85.6,9.6-128c-15.6-1.2-31.2-2.4-46.8-2.8c-3.2,24-6,48-8.8,72.4
	c-1.2-24.8-2.8-49.2-4-73.2c-42.8-1.2-86,0-128.8,3.6c3.2,42.8,6.4,85.6,9.6,128H338.8z"/>
<ellipse style="fill:#FD8469;" cx="254" cy="414.4" rx="7.6" ry="15.2"/>
<g>
</g>
<g>
</g>
<g>
</g>
<g>
</g>
<g>
</g>
<g>
</g>
<g>
</g>
<g>
</g>
<g>
</g>
<g>
</g>
<g>
</g>
<g>
</g>
<g>
</g>
<g>
</g>
<g>
</g>
</svg>
