<?xml version="1.0" encoding="iso-8859-1"?>
<!-- Generator: Adobe Illustrator 19.0.0, SVG Export Plug-In . SVG Version: 6.00 Build 0)  -->
<svg version="1.1" id="Layer_1" xmlns="http://www.w3.org/2000/svg" xmlns:xlink="http://www.w3.org/1999/xlink" x="0px" y="0px"
	 viewBox="0 0 508 508" style="enable-background:new 0 0 508 508;" xml:space="preserve">
<circle style="fill:#324A5E;" cx="254" cy="254" r="254"/>
<rect x="247.2" y="152.8" style="fill:#ACB3BA;" width="14" height="86.4"/>
<g>
	<path style="fill:#FFFFFF;" d="M254,148c0,13.2,49.6,24,82,24c32,0,34.8-10.8,34.8-24s-2.4-24-34.8-24S254,134.8,254,148z"/>
	<path style="fill:#FFFFFF;" d="M254,148c0,13.2-49.6,24-82,24c-32,0-34.8-10.8-34.8-24s2.4-24,34.8-24S254,134.8,254,148z"/>
</g>
<circle style="fill:#E6E9EE;" cx="254" cy="148.8" r="28.4"/>
<path style="fill:#2C9984;" d="M298.4,258.8c-1.6-23.2-20.8-42-44.4-42s-43.2,18.4-44.4,42H298.4z"/>
<rect x="121.6" y="251.6" style="fill:#E6E9EE;" width="265.2" height="120"/>
<g>
	<path style="fill:#FFFFFF;" d="M414.4,387.6h-21.6c-14.4,0-26-11.6-26-26V262c0-14.4,11.6-26,26-26h21.6V387.6z"/>
	<path style="fill:#FFFFFF;" d="M93.6,387.6h21.6c14.4,0,26-11.6,26-26V262c0-14.4-11.6-26-26-26H93.6V387.6z"/>
</g>
<g>
</g>
<g>
</g>
<g>
</g>
<g>
</g>
<g>
</g>
<g>
</g>
<g>
</g>
<g>
</g>
<g>
</g>
<g>
</g>
<g>
</g>
<g>
</g>
<g>
</g>
<g>
</g>
<g>
</g>
</svg>
