<?xml version="1.0" encoding="iso-8859-1"?>
<!-- Generator: Adobe Illustrator 19.0.0, SVG Export Plug-In . SVG Version: 6.00 Build 0)  -->
<svg version="1.1" id="Layer_1" xmlns="http://www.w3.org/2000/svg" xmlns:xlink="http://www.w3.org/1999/xlink" x="0px" y="0px"
	 viewBox="0 0 508 508" style="enable-background:new 0 0 508 508;" xml:space="preserve">
<circle style="fill:#84DBFF;" cx="254" cy="254" r="254"/>
<path style="fill:#F1543F;" d="M266.4,112.8c0,23.6-6.8,64.8-15.2,64.8c-8.4,0-15.2-41.2-15.2-64.8s6.8-20.4,15.2-20.4
	C259.6,92.4,266.4,89.2,266.4,112.8z"/>
<path style="fill:#FF7058;" d="M327.6,113.6H180.4c-8.8,0-16.4-7.2-16.4-16.4l0,0c0-8.8,7.2-16.4,16.4-16.4h147.2
	c8.8,0,16.4,7.2,16.4,16.4l0,0C344,106.4,336.8,113.6,327.6,113.6z"/>
<rect x="121.2" y="244.4" style="fill:#E6E9EE;" width="265.2" height="130.8"/>
<g>
	<path style="fill:#FFFFFF;" d="M386.8,398L386.8,398c-12,0-21.6-9.6-21.6-21.6v-130c0-12,9.6-21.6,21.6-21.6l0,0
		c12,0,21.6,9.6,21.6,21.6v130C408,388,398.4,398,386.8,398z"/>
	<path style="fill:#FFFFFF;" d="M121.2,398L121.2,398c-12,0-21.6-9.6-21.6-21.6v-130c0-12,9.6-21.6,21.6-21.6l0,0
		c12,0,21.6,9.6,21.6,21.6v130C142.8,388,133.2,398,121.2,398z"/>
	<path style="fill:#FFFFFF;" d="M308,224c0,50.8-24.4,121.2-54,121.2c-30,0-54-70.4-54-121.2s24.4-62.8,54-62.8
		C284,161.2,308,173.2,308,224z"/>
</g>
<path style="fill:#E6E9EE;" d="M310.8,222.4H197.2c-6.8,0-12.4-5.6-12.4-12.4l0,0c0-6.8,5.6-12.4,12.4-12.4h113.2
	c6.8,0,12.4,5.6,12.4,12.4l0,0C322.8,216.8,317.6,222.4,310.8,222.4z"/>
<g>
</g>
<g>
</g>
<g>
</g>
<g>
</g>
<g>
</g>
<g>
</g>
<g>
</g>
<g>
</g>
<g>
</g>
<g>
</g>
<g>
</g>
<g>
</g>
<g>
</g>
<g>
</g>
<g>
</g>
</svg>
