<?xml version="1.0" encoding="iso-8859-1"?>
<!-- Generator: Adobe Illustrator 19.0.0, SVG Export Plug-In . SVG Version: 6.00 Build 0)  -->
<svg version="1.1" id="Layer_1" xmlns="http://www.w3.org/2000/svg" xmlns:xlink="http://www.w3.org/1999/xlink" x="0px" y="0px"
	 viewBox="0 0 508 508" style="enable-background:new 0 0 508 508;" xml:space="preserve">
<circle style="fill:#324A5E;" cx="254" cy="254" r="254"/>
<path style="fill:#FFFFFF;" d="M298.8,179.6l0.8,24.4h6.8l0.8,18c0,0-18,16.8-12.8,54h-32l-4.8-30.4h-6.4L246,276h-32
	c5.2-37.6-12.8-54-12.8-54l0.8-18h6.8l0.8-24.4h-10.4l2.8-64.4l29.6-66.4h45.2l29.6,66.4l2.8,64.4H298.8z"/>
<g>
	<polygon style="fill:#E6E9EE;" points="256,160.8 253.2,160.8 253.2,48.8 255.6,48.8 	"/>
	<polygon style="fill:#E6E9EE;" points="276.4,48.8 309.2,179.6 306.4,115.2 	"/>
	<polygon style="fill:#E6E9EE;" points="231.6,48.8 198.8,179.6 201.6,115.2 	"/>
</g>
<polygon style="fill:#CED5E0;" points="263.2,160.8 244.8,160.8 245.2,110.4 262.8,110.4 "/>
<path style="fill:#FFFFFF;" d="M302.8,190.4C303.6,213.2,282,232,254,232s-49.6-19.2-48.8-41.6c0.8-22,22.8-39.2,48.8-39.2
	S301.6,168.8,302.8,190.4z"/>
<path style="fill:#84DBFF;" d="M402.8,462c-11.6,8.4-24.4,16-37.6,22.4c-5.2,2.4-10,4.8-15.6,6.8c-20-92.4-75.6-188-92.8-216.4
	c-2.4-4-0.8-8.8,3.2-11.2c0,0,0,0,0.4,0c11.6-6,30-15.6,31.6-16.4c0.4,0,1.2,0.4,2.8,1.6c6.4,5.2,20.4,20.8,20.4,20.8
	s21.6-9.2,28.4,2.4c3.2,4.8,3.6,13.6-1.6,28.4c-0.4,1.2-0.8,2.4-1.2,3.6c0,0-8.4,24.4,30.8,74.4C384,394.8,394.4,426,402.8,462z"/>
<path style="fill:#54C0EB;" d="M371.6,378.8c12.4,16,22.8,46.8,31.2,83.2c-11.6,8.4-24.4,16-37.6,22.4c-6.4-36-17.2-67.6-35.2-90.4
	c-53.2-68-10.4-107.2,13.2-122c0,0,0,0,0.4,0c2.8,4.8,3.2,13.6-1.6,28.8c-0.4,1.2-0.8,2.4-1.2,3.6
	C340.8,304.4,332.4,328.8,371.6,378.8z"/>
<path style="fill:#84DBFF;" d="M251.2,275.2c-17.6,28.4-73.2,124-93.2,216.4c-5.2-2-10.4-4.4-15.6-6.8c-13.2-6.4-25.6-14-37.6-22.4
	c8.4-36.4,18.8-67.2,31.2-83.2c39.2-50.4,30.8-74.4,30.8-74.4c-0.8-2-1.6-4-2-6c-0.8-2.8-1.6-4.8-2-7.2c-2-9.2-1.2-15.2,1.2-19.2
	c7.2-11.6,28.8-2.4,28.8-2.4s14-15.6,20.4-20.8c1.6-1.2,2.4-2,2.8-1.6c1.2,0.8,20,10.4,31.6,16.4c0,0,0,0,0.4,0
	C252,266,253.6,271.2,251.2,275.2z"/>
<path style="fill:#54C0EB;" d="M177.6,394.4c-18,22.8-28.8,54.4-35.2,90.4c-13.2-6.4-25.6-14-37.6-22.4
	c8.4-36.4,18.8-67.2,31.2-83.2c39.2-50.4,30.8-74.4,30.8-74.4c-0.8-2-1.6-4-2-6c-0.8-2.8-1.6-4.8-2-7.2c-2-9.6-1.2-15.6,0.8-19.2
	c0,0,0,0,0.4,0C188.4,287.2,230.8,326.4,177.6,394.4z"/>
<ellipse style="fill:#E6E9EE;" cx="254" cy="192" rx="15.2" ry="15.2"/>
<g>
</g>
<g>
</g>
<g>
</g>
<g>
</g>
<g>
</g>
<g>
</g>
<g>
</g>
<g>
</g>
<g>
</g>
<g>
</g>
<g>
</g>
<g>
</g>
<g>
</g>
<g>
</g>
<g>
</g>
</svg>
