<?xml version="1.0" encoding="iso-8859-1"?>
<!-- Generator: Adobe Illustrator 19.0.0, SVG Export Plug-In . SVG Version: 6.00 Build 0)  -->
<svg version="1.1" id="Layer_1" xmlns="http://www.w3.org/2000/svg" xmlns:xlink="http://www.w3.org/1999/xlink" x="0px" y="0px"
	 viewBox="0 0 508 508" style="enable-background:new 0 0 508 508;" xml:space="preserve">
<circle style="fill:#54C0EB;" cx="254" cy="254" r="254"/>
<path style="fill:#FFFFFF;" d="M415.6,260.8l17.2-14.8l-17.2-1.2l15.6-16.4l-17.2,0.4l13.6-18l-16.8,2.4l12-19.2l-16.8,4l10-20
	l-16,5.6l8-21.2l-15.6,7.6l6-21.6l-14.8,8.4l3.6-22.4l-14,10l1.6-22.4L362,133.6l-0.8-22.4l-11.6,12.4l-2.8-22.4l-10.4,13.6l-5.2-22
	l-9.2,14.4L315.2,86l-7.6,15.2l-9.2-20.4l-6,16l-11.2-19.6L276.8,94l-13.2-18.4l-2.8,16.8L246,75.6l-1.2,17.2l-16.4-15.6l0.4,17.2
	l-18-13.6l2.4,16.8l-19.2-12l4,16.8l-20-10l5.6,16.4l-21.2-8l7.2,15.6L148,110l8.4,14.8l-22-3.6l10,14l-22.4-2l11.2,12.8l-22.4,0.8
	l12.4,11.6l-22.4,2.8l13.6,10.4l-22,5.2l14.4,9.2L86,193.2l15.2,7.6L80.8,210l16,6l-19.6,11.2l16.4,4.4l-18.4,13.2l16.8,2.8
	L75.6,262l17.2,1.2l-15.6,16.4l17.2-0.8l-13.6,18l16.8-2.4l-12,19.2l16.8-4l-10,20.4l16-5.6l-8,21.2l15.6-7.2l-6,21.6l14.8-8.4
	l-3.6,22l14-10l-2,22.4l12.8-11.2l0.8,22.4l11.6-12.4l2.8,22.4l10.4-13.6l5.2,22l9.2-14.4l7.2,21.2l7.6-15.2l9.2,20.4l6-16
	l11.2,19.6l4.4-16.4l13.2,18.4l2.8-16.8l14.8,16.8l1.2-17.2l16.4,15.6l-0.4-17.2l18,13.6l-2.4-16.8l19.2,12l-4-16.8l20,10l-5.6-16
	l21.2,8l-8-16l21.6,6l-8.8-14.8l22.4,3.6l-10-14l22.4,1.6L374.8,362l22.4-0.8l-12.4-11.6l22.4-2.8l-13.6-10.4l22-5.2l-14.4-9.2
	l21.2-7.2l-15.2-7.6l20.4-9.2l-16-6l19.6-11.2l-16.4-4.4l18.4-13.2L415.6,260.8z M254,286.8c-18,0-32.8-14.8-32.8-32.8
	s14.8-32.8,32.8-32.8s32.8,14.8,32.8,32.8S272,286.8,254,286.8z"/>
<path style="fill:#E6E9EE;" d="M406.4,254c0,84-68,152-152,152C170,406,102,338,102,254s68-152,152-152S406.4,170,406.4,254z"/>
<circle style="fill:#FFFFFF;" cx="254" cy="254" r="48"/>
<circle style="fill:#54C0EB;" cx="254" cy="254" r="29.2"/>
<g>
</g>
<g>
</g>
<g>
</g>
<g>
</g>
<g>
</g>
<g>
</g>
<g>
</g>
<g>
</g>
<g>
</g>
<g>
</g>
<g>
</g>
<g>
</g>
<g>
</g>
<g>
</g>
<g>
</g>
</svg>
