<?xml version="1.0" encoding="iso-8859-1"?>
<!-- Generator: Adobe Illustrator 19.0.0, SVG Export Plug-In . SVG Version: 6.00 Build 0)  -->
<svg version="1.1" id="Layer_1" xmlns="http://www.w3.org/2000/svg" xmlns:xlink="http://www.w3.org/1999/xlink" x="0px" y="0px"
	 viewBox="0 0 508 508" style="enable-background:new 0 0 508 508;" xml:space="preserve">
<circle style="fill:#90DFAA;" cx="254" cy="254" r="254"/>
<path style="fill:#FFFFFF;" d="M94.4,136.8v234l319.2-234L94.4,136.8L94.4,136.8z M142.8,185.2H266l-123.2,90.4V185.2z"/>
<g>
	<rect x="111.6" y="136.8" style="fill:#E6E9EE;" width="9.6" height="18.8"/>
	<rect x="140.8" y="136.8" style="fill:#E6E9EE;" width="9.6" height="18.8"/>
	<rect x="170" y="136.8" style="fill:#E6E9EE;" width="9.6" height="18.8"/>
	<rect x="199.6" y="136.8" style="fill:#E6E9EE;" width="9.6" height="18.8"/>
	<rect x="228.8" y="136.8" style="fill:#E6E9EE;" width="9.6" height="18.8"/>
	<rect x="258" y="136.8" style="fill:#E6E9EE;" width="9.6" height="18.8"/>
	<rect x="287.2" y="136.8" style="fill:#E6E9EE;" width="9.6" height="18.8"/>
	<rect x="316.8" y="136.8" style="fill:#E6E9EE;" width="9.6" height="18.8"/>
	<rect x="346" y="136.8" style="fill:#E6E9EE;" width="9.6" height="18.8"/>
	<rect x="94.4" y="174.4" style="fill:#E6E9EE;" width="18.8" height="9.6"/>
	<rect x="94.4" y="203.6" style="fill:#E6E9EE;" width="18.8" height="9.6"/>
	<rect x="94.4" y="232.8" style="fill:#E6E9EE;" width="18.8" height="9.6"/>
	<rect x="94.4" y="262.4" style="fill:#E6E9EE;" width="18.8" height="9.6"/>
	<rect x="94.4" y="291.6" style="fill:#E6E9EE;" width="18.8" height="9.6"/>
	<rect x="94.4" y="320.8" style="fill:#E6E9EE;" width="18.8" height="9.6"/>
</g>
<g>
</g>
<g>
</g>
<g>
</g>
<g>
</g>
<g>
</g>
<g>
</g>
<g>
</g>
<g>
</g>
<g>
</g>
<g>
</g>
<g>
</g>
<g>
</g>
<g>
</g>
<g>
</g>
<g>
</g>
</svg>
