<?xml version="1.0" encoding="iso-8859-1"?>
<!-- Generator: Adobe Illustrator 19.0.0, SVG Export Plug-In . SVG Version: 6.00 Build 0)  -->
<svg version="1.1" id="Layer_1" xmlns="http://www.w3.org/2000/svg" xmlns:xlink="http://www.w3.org/1999/xlink" x="0px" y="0px"
	 viewBox="0 0 508 508" style="enable-background:new 0 0 508 508;" xml:space="preserve">
<circle style="fill:#FFD05B;" cx="254" cy="254" r="254"/>
<g>
	<path style="fill:#FFFFFF;" d="M296.4,178.4c-2.4-16.8-9.2-32.4-18.8-45.6l11.2-14.8l-18.4-18.4l-14.8,11.2
		c-13.2-9.6-28.8-16.4-45.6-18.8l-2-18h-26l-2.4,18.4c-16.8,2.4-32.4,9.2-45.6,18.8L119.2,100l-18.4,18.4l11.2,14.8
		c-9.6,13.2-16.4,28.8-18.8,45.6l-18.4,2.4v26l18.4,2.4c2.4,16.8,9.2,32.4,18.8,45.6L100.8,270l18.4,18.4l14.8-11.2
		c13.2,9.6,28.8,16.4,45.6,18.8l2.4,18.4h26l2.4-18.4c16.8-2.4,32.4-9.2,45.6-18.8l14.8,11.2l18.4-18.4L278,255.2
		c9.6-13.2,16.4-28.8,18.8-45.6l18.4-2.4v-26L296.4,178.4z M194.8,259.6c-36.4,0-65.6-29.6-65.6-65.6c0-36.4,29.6-65.6,65.6-65.6
		c36.4,0,65.6,29.6,65.6,65.6C260.8,230,231.2,259.6,194.8,259.6z"/>
	<circle style="fill:#FFFFFF;" cx="194.8" cy="193.6" r="33.2"/>
</g>
<path style="fill:#324A5E;" d="M417.6,322.4l-8.8-22.4l-20.8,3.6c-2.8-4-6.4-7.2-10-10.4l3.6-20.8l-22-9.2l-12.4,17.2
	c-4.8-0.8-9.6-0.8-14.4,0l-12-17.2l-22.4,8.8l3.6,20.8c-4,2.8-7.2,6.4-10.4,10l-20.8-3.6l-8.8,21.6l17.2,12.4
	c-0.8,4.8-0.8,9.6,0,14.4l-17.2,12l8.8,22.4l20.8-3.6c2.8,4,6.4,7.2,10,10.4l-3.6,20.8l22,9.2l12.4-17.2c4.8,0.8,9.6,0.8,14.4,0
	l12,17.2l22.4-8.8l-3.6-20.8c4-2.8,7.2-6.4,10.4-10l20.8,3.6l9.2-22l-17.2-12.4c0.8-4.8,0.8-9.6,0-14.4L417.6,322.4z M353.2,374.8
	c-18.8,7.6-40.4-1.6-48-20.4s1.6-40.4,20.4-48s40.4,1.6,48,20.4C381.6,346,372.4,367.2,353.2,374.8z"/>
<g>
</g>
<g>
</g>
<g>
</g>
<g>
</g>
<g>
</g>
<g>
</g>
<g>
</g>
<g>
</g>
<g>
</g>
<g>
</g>
<g>
</g>
<g>
</g>
<g>
</g>
<g>
</g>
<g>
</g>
</svg>
