<?xml version="1.0" encoding="iso-8859-1"?>
<!-- Generator: Adobe Illustrator 19.0.0, SVG Export Plug-In . SVG Version: 6.00 Build 0)  -->
<svg version="1.1" id="Layer_1" xmlns="http://www.w3.org/2000/svg" xmlns:xlink="http://www.w3.org/1999/xlink" x="0px" y="0px"
	 viewBox="0 0 508 508" style="enable-background:new 0 0 508 508;" xml:space="preserve">
<circle style="fill:#FFD05B;" cx="254" cy="254" r="254"/>
<path style="fill:#324A5E;" d="M271.2,0.4V174h-34V0.4C242.8,0,248.4,0,254.4,0C259.6,0,265.6,0,271.2,0.4z"/>
<path style="fill:#FFFFFF;" d="M125.2,174v178.4c0,71.2,128.8,99.2,128.8,99.2s128.8-28,128.8-99.2V174H125.2z"/>
<path style="fill:#E6E9EE;" d="M236.8,145.6c0,4,0,8,0,12C236.8,272.8,254,366,254,366s17.2-93.2,17.2-208.4c0-4,0-8,0-12H236.8z"/>
<g>
</g>
<g>
</g>
<g>
</g>
<g>
</g>
<g>
</g>
<g>
</g>
<g>
</g>
<g>
</g>
<g>
</g>
<g>
</g>
<g>
</g>
<g>
</g>
<g>
</g>
<g>
</g>
<g>
</g>
</svg>
