<?xml version="1.0" encoding="iso-8859-1"?>
<!-- Generator: Adobe Illustrator 19.0.0, SVG Export Plug-In . SVG Version: 6.00 Build 0)  -->
<svg version="1.1" id="Layer_1" xmlns="http://www.w3.org/2000/svg" xmlns:xlink="http://www.w3.org/1999/xlink" x="0px" y="0px"
	 viewBox="0 0 508 508" style="enable-background:new 0 0 508 508;" xml:space="preserve">
<circle style="fill:#90DFAA;" cx="254" cy="254" r="254"/>
<g>
	<path style="fill:#324A5E;" d="M369.6,210.4c-1.6,0-2.8-1.2-2.8-2.8V192c0-2.8-1.6-5.2-4-6.8c-4-2.8-6.4-7.2-6-12.4
		c0.8-6,5.6-10.8,11.2-11.2c3.6-0.4,7.2,0.8,10,3.2s4.4,6,4.4,9.6c0,1.6-1.2,2.8-2.8,2.8s-2.8-1.2-2.8-2.8c0-2-0.8-4-2.4-5.2
		s-3.6-2-5.6-1.6c-3.2,0.4-5.6,2.8-6,6c-0.4,2.8,0.8,5.2,3.2,6.8c4,2.8,6.8,7.2,6.8,11.6v15.6C372.8,209.2,371.2,210.4,369.6,210.4z
		"/>
	<path style="fill:#324A5E;" d="M138.4,210.4c-1.6,0-2.8-1.2-2.8-2.8V192c0-4.8,2.4-9.2,6.8-11.6c2.4-1.6,3.6-4,3.2-6.8
		c-0.4-3.2-2.8-5.6-6-6c-2-0.4-4,0.4-5.6,1.6c-1.6,1.2-2.4,3.2-2.4,5.2c0,1.6-1.2,2.8-2.8,2.8s-2.8-1.2-2.8-2.8
		c0-3.6,1.6-7.2,4.4-9.6c2.8-2.4,6.4-3.6,10-3.2c6,0.8,10.8,5.6,11.2,11.2c0.4,4.8-1.6,9.6-6,12.4c-2.4,1.6-4,4-4,6.8v15.6
		C141.2,209.2,140,210.4,138.4,210.4z"/>
</g>
<g>
	<path style="fill:#FFFFFF;" d="M411.6,394.4H96.4c-6.8,0-12.8-5.6-12.8-12.8V206c0-6.8,5.6-12.8,12.8-12.8h315.2
		c6.8,0,12.8,5.6,12.8,12.8v175.6C424.4,388.8,418.4,394.4,411.6,394.4z"/>
	<path style="fill:#FFFFFF;" d="M364.4,173.6c-0.8,0-1.6-0.4-2-0.8L254,101.6l-108.4,71.2c-2,1.2-4.4,0.8-5.6-1.2
		c-1.2-2-0.8-4.4,1.2-5.6l110.4-72.8c1.2-0.8,3.2-0.8,4.4,0L366.4,166c2,1.2,2.4,3.6,1.2,5.6C366.8,172.8,365.6,173.6,364.4,173.6z"
		/>
</g>
<circle style="fill:#E6E9EE;" cx="254" cy="98" r="30"/>
<circle style="fill:#324A5E;" cx="254" cy="98" r="16.4"/>
<g>
	<path style="fill:#FF7058;" d="M179.2,238.4h9.2v16.8l15.2-16.8h11.2l-16,18c1.2,2,4,5.6,7.6,10.8c3.6,5.2,6.4,9.2,8.4,12h-10.4
		l-12-16l-4,4.4v11.6h-9.2V238.4z"/>
	<path style="fill:#FF7058;" d="M249.6,238.4v8h-20.4v8.4h18.4v7.6h-18.4v8.4H250v8h-30v-40.4H249.6z"/>
	<path style="fill:#FF7058;" d="M288,238.4v8h-20.4v8.4H286v7.6h-18.4v8.4h20.8v8h-30v-40.4H288z"/>
	<path style="fill:#FF7058;" d="M324.4,242c2.8,2.4,4.4,6,4.4,11.2s-1.6,8.8-4.4,11.2s-7.6,3.6-13.6,3.6h-5.6v11.2H296v-40.8h14.4
		C317.2,238.4,321.6,239.6,324.4,242z M318,258c1.2-1.2,1.6-3.2,1.6-5.2c0-2.4-0.8-4-2-5.2c-1.6-0.8-3.6-1.6-6.8-1.6h-5.2v13.6h6
		C314.8,260,316.8,259.2,318,258z"/>
	<path style="fill:#FF7058;" d="M221.2,343.2c-4,4-9.2,6-15.2,6s-11.2-2-15.2-6s-6-9.2-6-14.8c0-6,2-10.8,6-14.8s9.2-6,15.2-6
		s11.2,2,15.2,6s6,9.2,6,14.8C227.2,334.4,225.2,339.2,221.2,343.2z M218,328.4c0-3.6-1.2-6.8-3.6-9.2c-2.4-2.4-5.2-4-8.4-4
		s-6.4,1.2-8.4,4c-2.4,2.4-3.6,5.6-3.6,9.2s1.2,6.8,3.6,9.2c2.4,2.4,5.2,4,8.4,4s6.4-1.2,8.4-4C216.8,335.2,218,332,218,328.4z"/>
	<path style="fill:#FF7058;" d="M245.6,338.4c1.6,2,3.6,2.8,6,2.8s4.4-0.8,6-2.8s2.4-4.4,2.4-7.6v-22.4h9.2v22.8
		c0,6-1.6,10.4-4.8,13.6c-3.2,3.2-7.6,4.8-12.4,4.8c-5.2,0-9.2-1.6-12.4-4.8c-3.2-3.2-4.8-7.6-4.8-13.6v-22.8h9.2v22.4
		C243.6,334,244.4,336.4,245.6,338.4z"/>
	<path style="fill:#FF7058;" d="M296,316v32.8h-9.2V316h-11.6v-8h32v8H296z"/>
	<path style="fill:#FF7058;" d="M313.2,308.4h10.4v7.2l-1.6,20.8h-6.8l-1.6-20.8v-7.2H313.2z M314.4,348c-0.8-0.8-1.6-2.4-1.6-3.6
		c0-1.6,0.4-2.8,1.6-3.6c0.8-0.8,2.4-1.6,3.6-1.6c1.6,0,2.8,0.4,3.6,1.6c0.8,0.8,1.6,2.4,1.6,3.6c0,1.6-0.4,2.8-1.6,3.6
		c-0.8,0.8-2.4,1.6-3.6,1.6C316.8,349.2,315.6,348.8,314.4,348z"/>
</g>
<g>
</g>
<g>
</g>
<g>
</g>
<g>
</g>
<g>
</g>
<g>
</g>
<g>
</g>
<g>
</g>
<g>
</g>
<g>
</g>
<g>
</g>
<g>
</g>
<g>
</g>
<g>
</g>
<g>
</g>
</svg>
