<?xml version="1.0" encoding="iso-8859-1"?>
<!-- Generator: Adobe Illustrator 19.0.0, SVG Export Plug-In . SVG Version: 6.00 Build 0)  -->
<svg version="1.1" id="Layer_1" xmlns="http://www.w3.org/2000/svg" xmlns:xlink="http://www.w3.org/1999/xlink" x="0px" y="0px"
	 viewBox="0 0 508 508" style="enable-background:new 0 0 508 508;" xml:space="preserve">
<circle style="fill:#90DFAA;" cx="254" cy="254" r="254"/>
<path style="fill:#FFFFFF;" d="M382.4,402.8H125.6c-11.2,0-20.4-9.2-20.4-20.4V125.6c0-11.2,9.2-20.4,20.4-20.4h257.2
	c11.2,0,20.4,9.2,20.4,20.4v257.2C402.8,394,394,402.8,382.4,402.8z"/>
<rect x="165.2" y="165.2" style="fill:#E6E9EE;" width="177.6" height="177.6"/>
<g>
	<path style="fill:#324A5E;" d="M294.4,276.8H284v-4h-6.8V308h6.8v-4h10.4c7.6,0,13.6-6,13.6-13.6S302,276.8,294.4,276.8z"/>
	<path style="fill:#324A5E;" d="M223.6,276.8h-10.4c-7.6,0-13.6,6-13.6,13.6s6,13.6,13.6,13.6h10.4v4h6.8v-35.2h-6.8V276.8z"/>
	<path style="fill:#324A5E;" d="M259.2,209.6V200h-14v9.6c-7.2,2.8-12,9.6-12,17.6s4.8,14.8,12,17.6v9.6h14v-9.6
		c7.2-2.8,12-9.6,12-17.6S266,212.4,259.2,209.6z"/>
</g>
<g>
</g>
<g>
</g>
<g>
</g>
<g>
</g>
<g>
</g>
<g>
</g>
<g>
</g>
<g>
</g>
<g>
</g>
<g>
</g>
<g>
</g>
<g>
</g>
<g>
</g>
<g>
</g>
<g>
</g>
</svg>
