<?xml version="1.0" encoding="iso-8859-1"?>
<!-- Generator: Adobe Illustrator 19.0.0, SVG Export Plug-In . SVG Version: 6.00 Build 0)  -->
<svg version="1.1" id="Layer_1" xmlns="http://www.w3.org/2000/svg" xmlns:xlink="http://www.w3.org/1999/xlink" x="0px" y="0px"
	 viewBox="0 0 508 508" style="enable-background:new 0 0 508 508;" xml:space="preserve">
<circle style="fill:#FFD05B;" cx="254" cy="254" r="254"/>
<path style="fill:#F9B54C;" d="M72.4,431.6c46,47.2,110.4,76.4,181.6,76.4s135.2-29.2,181.6-76.4H72.4z"/>
<path style="fill:#FFFFFF;" d="M281.2,132.4h-54.4V75.6c0-2.8,2-4.8,4.8-4.8H276c2.8,0,4.8,2,4.8,4.8v56.8H281.2z"/>
<path style="fill:#324A5E;" d="M304.8,122.4H203.2c-16.4,14-27.2,34.4-28,57.2h158C332,156.8,321.2,136.4,304.8,122.4z"/>
<rect x="163.6" y="182" style="fill:#FF7058;" width="180.4" height="237.6"/>
<g>
	<path style="fill:#FFFFFF;" d="M344.4,192H163.6c-6.8,0-12-5.6-12-12l0,0c0-6.8,5.6-12,12-12H344c6.8,0,12,5.6,12,12l0,0
		C356.4,186.4,350.8,192,344.4,192z"/>
	<path style="fill:#FFFFFF;" d="M344.4,431.6H163.6c-6.8,0-12-5.6-12-12l0,0c0-6.8,5.6-12,12-12H344c6.8,0,12,5.6,12,12l0,0
		C356.4,426.4,350.8,431.6,344.4,431.6z"/>
</g>
<circle style="fill:#E6E9EE;" cx="254" cy="90.4" r="8"/>
<circle style="fill:#CED5E0;" cx="254" cy="90.4" r="3.2"/>
<rect x="206.4" y="226.4" style="fill:#F1543F;" width="138" height="151.2"/>
<g>
</g>
<g>
</g>
<g>
</g>
<g>
</g>
<g>
</g>
<g>
</g>
<g>
</g>
<g>
</g>
<g>
</g>
<g>
</g>
<g>
</g>
<g>
</g>
<g>
</g>
<g>
</g>
<g>
</g>
</svg>
