<?xml version="1.0" encoding="iso-8859-1"?>
<!-- Generator: Adobe Illustrator 19.0.0, SVG Export Plug-In . SVG Version: 6.00 Build 0)  -->
<svg version="1.1" id="Layer_1" xmlns="http://www.w3.org/2000/svg" xmlns:xlink="http://www.w3.org/1999/xlink" x="0px" y="0px"
	 viewBox="0 0 508 508" style="enable-background:new 0 0 508 508;" xml:space="preserve">
<circle style="fill:#324A5E;" cx="254" cy="254" r="254"/>
<g>
	<path style="fill:#E6E9EE;" d="M192,160.8l172.4,12.4c16.4,1.2,30.4-12,30-28.4l0,0c-0.4-16.4-14.8-29.2-31.2-27.2L191.6,136
		c-6.4,0.8-11.2,6-11.2,12.8l0,0C180.4,155.2,185.6,160.4,192,160.8z"/>
	<rect x="127.6" y="170" style="fill:#E6E9EE;" width="69.2" height="38"/>
</g>
<g>
	<path style="fill:#FFFFFF;" d="M125.2,177.2l2.8-50c0.4-6.4,5.6-11.2,12-11.2h45.2c6.4,0,11.6,4.8,12,11.2l2.8,50H125.2z"/>
	<path style="fill:#FFFFFF;" d="M113.6,392l10.8-198h76l1.6,30.4c0.4,6,5.6,10.4,11.6,10l62-5.6c26.4-2.4,49.6,16.8,52.4,43.2
		l1.6,16l-37.6,3.6l-1.6-16c-0.4-5.6-5.6-9.6-11.2-9.2l-64.4,6c-5.6,0.4-10,5.6-9.6,11.2l6,108.8h-97.6V392z"/>
</g>
<path style="fill:#84DBFF;" d="M287.2,349.6c0,20.8,10.4,27.6,23.6,27.6s23.6-6.4,23.6-27.6c0-20.8-23.6-48.4-23.6-48.4
	S287.2,328.8,287.2,349.6z"/>
<g>
</g>
<g>
</g>
<g>
</g>
<g>
</g>
<g>
</g>
<g>
</g>
<g>
</g>
<g>
</g>
<g>
</g>
<g>
</g>
<g>
</g>
<g>
</g>
<g>
</g>
<g>
</g>
<g>
</g>
</svg>
