<?xml version="1.0" encoding="iso-8859-1"?>
<!-- Generator: Adobe Illustrator 19.0.0, SVG Export Plug-In . SVG Version: 6.00 Build 0)  -->
<svg version="1.1" id="Layer_1" xmlns="http://www.w3.org/2000/svg" xmlns:xlink="http://www.w3.org/1999/xlink" x="0px" y="0px"
	 viewBox="0 0 508 508" style="enable-background:new 0 0 508 508;" xml:space="preserve">
<circle style="fill:#324A5E;" cx="254" cy="254" r="254"/>
<path style="fill:#CED5E0;" d="M274.4,220.8v202c0,4,3.2,7.6,7.6,7.6h16c4,0,7.6-3.2,7.6-7.6v-202H274.4z"/>
<g>
	<polygon style="fill:#ACB3BA;" points="274.4,252.8 305.2,242.4 305.2,232 274.4,242.4 	"/>
	<polygon style="fill:#ACB3BA;" points="274.4,277.6 305.2,267.2 305.2,256.8 274.4,266.8 	"/>
	<polygon style="fill:#ACB3BA;" points="274.4,302.4 305.2,292 305.2,281.2 274.4,291.6 	"/>
	<polygon style="fill:#ACB3BA;" points="274.4,327.2 305.2,316.8 305.2,306 274.4,316.4 	"/>
	<polygon style="fill:#ACB3BA;" points="274.4,352 305.2,341.6 305.2,330.8 274.4,341.2 	"/>
	<path style="fill:#ACB3BA;" d="M340.4,405.2H239.2c-4.4,0-8,3.6-8,8s3.6,8,8,8h101.2c4.4,0,8-3.6,8-8
		C348.4,408.8,344.8,405.2,340.4,405.2z"/>
</g>
<g>
	<path style="fill:#E6E9EE;" d="M306.4,437.2h-33.2c-1.6,0-3.2-1.6-3.2-3.2v-41.6c0-1.6,1.6-3.2,3.2-3.2h33.2c1.6,0,3.2,1.6,3.2,3.2
		V434C309.6,435.6,308,437.2,306.4,437.2z"/>
	<path style="fill:#E6E9EE;" d="M310.8,208.8h-42.4c-1.6,0-3.2,1.2-3.2,3.2v9.6c0,1.6,1.2,3.2,3.2,3.2h42.4c1.6,0,3.2-1.2,3.2-3.2
		V212C314,210.4,312.4,208.8,310.8,208.8z"/>
</g>
<path style="fill:#FF7058;" d="M229.2,134.4H316c10.8,0,19.2-8.8,19.2-19.2l0,0c0-9.2-6.4-16.8-15.2-18.8l-106-24
	c-28-6.4-54.4,14.8-54.4,43.6v178c0,24.8,20,44.4,44.4,44.4h111.6c10.8,0,19.2-8.8,19.2-19.2v-2.8c0-10.8-8.8-19.2-19.2-19.2h-86.4
	c-10.4,0-18.4-8.4-18.4-18.4v-126C210.4,142.4,218.8,134.4,229.2,134.4z"/>
<path style="fill:#F1543F;" d="M184.8,282.4L184.8,282.4c-6.8,0-12-5.2-12-12V152c0-6.8,5.2-12,12-12l0,0c6.8,0,12,5.2,12,12v118.4
	C196.8,277.2,191.6,282.4,184.8,282.4z"/>
<g>
</g>
<g>
</g>
<g>
</g>
<g>
</g>
<g>
</g>
<g>
</g>
<g>
</g>
<g>
</g>
<g>
</g>
<g>
</g>
<g>
</g>
<g>
</g>
<g>
</g>
<g>
</g>
<g>
</g>
</svg>
