<?xml version="1.0" encoding="iso-8859-1"?>
<!-- Generator: Adobe Illustrator 19.0.0, SVG Export Plug-In . SVG Version: 6.00 Build 0)  -->
<svg version="1.1" id="Layer_1" xmlns="http://www.w3.org/2000/svg" xmlns:xlink="http://www.w3.org/1999/xlink" x="0px" y="0px"
	 viewBox="0 0 508 508" style="enable-background:new 0 0 508 508;" xml:space="preserve">
<circle style="fill:#F1543F;" cx="254" cy="254" r="254"/>
<polygon style="fill:#2B3B4E;" points="374.4,326 137.2,326 137.2,223.6 340,223.6 "/>
<g>
	<path style="fill:#FFD05B;" d="M199.6,294.8H86.4v-46c0-1.2,0-2,0.4-3.2l10.8-58.8c1.2-6,6.4-10.4,12.4-10.4h44.8
		c5.6,0,10.8,3.6,12.4,9.2L199.6,294.8z"/>
	<path style="fill:#FFD05B;" d="M422.8,143.2L422.8,143.2c-2-3.6-5.6-5.6-9.6-5.2l-225.6,17.2c-6.4,0.4-10.8,6.8-8.8,12.8l36,119.6
		c1.2,4.4,5.2,7.2,9.6,7.2h71.2c2.8,0,5.6-1.2,7.6-3.6l118.4-136.8C424,151.6,424.4,146.8,422.8,143.2z"/>
</g>
<g>
	<polygon style="fill:#F9B54C;" points="221.2,168.8 246,278.8 228.4,278.8 196,170.8 	"/>
	<polygon style="fill:#F9B54C;" points="292,278.8 264,278.8 239.2,167.2 266.4,165.2 	"/>
	<polygon style="fill:#F9B54C;" points="328.8,236.8 306.4,262.4 284.4,164 311.6,162 	"/>
	<polygon style="fill:#F9B54C;" points="365.2,194.8 343.2,220.4 329.6,160.4 356.8,158.4 	"/>
	<polygon style="fill:#F9B54C;" points="399.6,155.2 379.6,178.4 374.8,157.2 	"/>
</g>
<polygon style="fill:#54C0EB;" points="150,190.4 108.8,190.4 100,238.4 162,238.4 "/>
<polygon style="fill:#84DBFF;" points="108.8,190.4 100,238.4 150,190.4 "/>
<path style="fill:#324A5E;" d="M196,314L196,314c-1.2,0-2-0.8-2.4-2c-0.4-2.4-0.8-4.8-1.6-7.2c-0.4-1.2,0.4-2.4,1.2-2.8l0,0
	c1.2-0.4,1.6-1.6,1.2-2.8l-2.4-6c-0.4-1.2-1.6-1.6-2.8-1.2l0,0c-1.2,0.4-2.4,0-2.8-0.8c-1.2-2-2.4-4-4-6c-0.8-0.8-0.4-2,0.4-2.8l0,0
	c0.8-0.8,0.8-2.4,0-3.2L178,274c-0.8-0.8-2.4-0.8-3.2,0l0,0c-0.8,0.8-2,0.8-2.8,0.4c-2-1.6-4-2.8-6-4c-0.8-0.4-1.2-1.6-0.8-2.8l0,0
	c0.4-1.2,0-2.4-1.2-2.8l-6.8-2.8c-1.2-0.4-2.4,0-2.8,1.2l0,0c-0.4,1.2-1.6,1.6-2.8,1.2c-2.4-0.8-4.8-1.2-7.2-1.6c-1.2,0-2-1.2-2-2.4
	l0,0c0-1.2-1.2-2.4-2.4-2.4h-6.8c-1.2,0-2.4,1.2-2.4,2.4l0,0c0,1.2-0.8,2-2,2.4c-2.4,0.4-4.8,0.8-7.2,1.6c-1.2,0.4-2.4-0.4-2.8-1.2
	l0,0c0.4-1.2-0.8-1.6-2-1.2l-6,2.4c-1.2,0.4-1.6,1.6-1.2,2.8l0,0c0.4,1.2,0,2.4-0.8,2.8c-2,1.2-4,2.4-6,4c-0.8,0.8-2,0.4-2.8-0.4
	l0,0c-0.8-0.8-2.4-0.8-3.2,0l-4.8,4.8c-0.8,0.8-0.8,2.4,0,3.2l0,0c0.8,0.8,0.8,2,0.4,2.8c-1.6,2-2.8,4-4,6c-0.4,0.8-1.6,1.2-2.8,0.8
	l0,0c-1.2-0.4-2.4,0-2.8,1.2l-2.4,6c-0.4,1.2,0,2.4,1.2,2.8l0,0c1.2,0.4,1.6,1.6,1.2,2.8c-0.8,2.4-1.2,4.8-1.6,7.2
	c0,1.2-1.2,2-2.4,2l0,0c-1.2,0-2.4,1.2-2.4,2.4v6.8c0,1.2,1.2,2.4,2.4,2.4l0,0c1.2,0,2,0.8,2.4,2c0.4,2.4,0.8,4.8,1.6,7.2
	c0.4,1.2-0.4,2.4-1.2,2.8l0,0c-1.2,0.4-1.6,1.6-1.2,2.8L82,346c0.4,1.2,1.6,1.6,2.8,1.2l0,0c1.2-0.4,2.4,0,2.8,0.8c1.2,2,2.4,4,4,6
	c0.8,0.8,0.4,2-0.4,2.8s-0.8,2.4,0,3.2l4.8,4.8c0.8,0.8,2.4,0.8,3.2,0l0,0c0.8-0.8,2-0.8,2.8-0.4c2,1.6,4,2.8,6,4
	c0.8,0.4,1.2,1.6,0.8,2.8l0,0c-0.4,1.2,0,2.4,1.2,2.8l6,2.4c1.2,0.4,2.4,0,2.8-1.2l0,0c0.4-1.2,1.6-1.6,2.8-1.2
	c2.4,0.8,4.8,1.2,7.2,1.6c1.2,0,2,1.2,2,2.4l0,0c0,1.2,1.2,2.4,2.4,2.4h6.8c1.2,0,2.4-1.2,2.4-2.4l0,0c0-1.2,0.8-2,2-2.4
	c2.4-0.4,4.8-0.8,7.2-1.6c1.2-0.4,2.4,0.4,2.8,1.2l0,0c0.4,1.2,1.6,1.6,2.8,1.2l6-2.4c1.2-0.4,1.6-1.6,1.2-2.8l0,0
	c-0.4-1.2,0-2.4,0.8-2.8c2-1.2,4-2.4,6-4c0.8-0.8,2-0.4,2.8,0.4l0,0c0.8,0.8,2.4,0.8,3.2,0l4.8-4.8c0.8-0.8,0.8-2.4,0-3.2l0,0
	c-0.8-0.8-0.8-2-0.4-2.8c1.6-2,2.8-4,4-6c0.4-0.8,1.6-1.2,2.8-0.8l0,0c1.2,0.4,2.4,0,2.8-1.2l2.4-6c0.4-1.2,0-2.4-1.2-2.8l0,0
	c-1.2-0.4-1.6-1.6-1.2-2.8c0.8-2.4,1.2-4.8,1.6-7.2c0-1.2,1.2-2,2.4-2l0,0c1.2,0,2.4-1.2,2.4-2.4V316C198,315.2,197.2,314,196,314z"
	/>
<path style="fill:#FFFFFF;" d="M137.2,357.6L137.2,357.6c-20.8,0-38-16.8-38-38l0,0c0-20.8,16.8-38,38-38l0,0c20.8,0,38,16.8,38,38
	l0,0C174.8,340.8,158,357.6,137.2,357.6z"/>
<path style="fill:#E6E9EE;" d="M137.2,344.8L137.2,344.8c-13.6,0-24.8-11.2-24.8-24.8l0,0c0-13.6,11.2-24.8,24.8-24.8l0,0
	c13.6,0,24.8,11.2,24.8,24.8l0,0C162,333.6,150.8,344.8,137.2,344.8z"/>
<path style="fill:#FFFFFF;" d="M137.2,329.6L137.2,329.6c-5.6,0-10-4.4-10-10l0,0c0-5.6,4.4-10,10-10l0,0c5.6,0,10,4.4,10,10l0,0
	C147.2,325.2,142.4,329.6,137.2,329.6z"/>
<path style="fill:#324A5E;" d="M433.2,314L433.2,314c-1.2,0-2-0.8-2.4-2c-0.4-2.4-0.8-4.8-1.6-7.2c-0.4-1.2,0.4-2.4,1.2-2.8l0,0
	c1.2-0.4,1.6-1.6,1.2-2.8l-2.4-6c-0.4-1.2-1.6-1.6-2.8-1.2l0,0c-1.2,0.4-2.4,0-2.8-0.8c-1.2-2-2.4-4-4-6c-0.8-0.8-0.4-2,0.4-2.8l0,0
	c0.8-0.8,0.8-2.4,0-3.2l-4.8-4.8c-0.8-0.8-2.4-0.8-3.2,0l0,0c-0.8,0.8-2,0.8-2.8,0.4c-2-1.6-4-2.8-6-4c-0.8-0.4-1.2-1.6-0.8-2.8l0,0
	c0.4-1.2,0-2.4-1.2-2.8l-6.4-3.2c-1.2-0.4-2.4,0-2.8,1.2l0,0c-0.4,1.2-1.6,1.6-2.8,1.2c-2.4-0.8-4.8-1.2-7.2-1.6c-1.2,0-2-1.2-2-2.4
	l0,0c0-1.2-1.2-2.4-2.4-2.4h-6.8c-1.2,0-2.4,1.2-2.4,2.4l0,0c0,1.2-0.8,2-2,2.4c-2.4,0.4-4.8,0.8-7.2,1.6c-1.2,0.4-2.4-0.4-2.8-1.2
	l0,0c0-1.2-1.2-1.6-2.4-1.2l-6,2.4c-1.2,0.4-1.6,1.6-1.2,2.8l0,0c0.4,1.2,0,2.4-0.8,2.8c-2,1.2-4,2.4-6,4c-0.8,0.8-2,0.4-2.8-0.4
	l0,0c-0.8-0.8-2.4-0.8-3.2,0l-4.8,4.8c-0.8,0.8-0.8,2.4,0,3.2l0,0c0.8,0.8,0.8,2,0.4,2.8c-1.6,2-2.8,4-4,6c-0.4,0.8-1.6,1.2-2.8,0.8
	l0,0c-1.2-0.4-2.4,0-2.8,1.2l-2.4,6c-0.4,1.2,0,2.4,1.2,2.8l0,0c1.2,0.4,1.6,1.6,1.2,2.8c-0.8,2.4-1.2,4.8-1.6,7.2
	c0,1.2-1.2,2-2.4,2l0,0c-1.2,0-2.4,1.2-2.4,2.4v6.8c0,1.2,1.2,2.4,2.4,2.4l0,0c1.2,0,2,0.8,2.4,2c0.4,2.4,0.8,4.8,1.6,7.2
	c0.4,1.2-0.4,2.4-1.2,2.8l0,0c-1.2,0.4-1.6,1.6-1.2,2.8l2.4,6c0.4,1.2,1.6,1.6,2.8,1.2l0,0c1.2-0.4,2.4,0,2.8,0.8c1.2,2,2.4,4,4,6
	c0.8,0.8,0.4,2-0.4,2.8s-0.8,2.4,0,3.2l4.8,4.8c0.8,0.8,2.4,0.8,3.2,0l0,0c0.8-0.8,2-0.8,2.8-0.4c2,1.6,4,2.8,6,4
	c0.8,0.4,1.2,1.6,0.8,2.8l0,0c-0.4,1.2,0,2.4,1.2,2.8l6,2.4c1.2,0.4,2.4,0,2.8-1.2l0,0c0.4-1.2,1.6-1.6,2.8-1.2
	c2.4,0.8,4.8,1.2,7.2,1.6c1.2,0,2,1.2,2,2.4l0,0c0,1.2,1.2,2.4,2.4,2.4h6.8c1.2,0,2.4-1.2,2.4-2.4l0,0c0-1.2,0.8-2,2-2.4
	c2.4-0.4,4.8-0.8,7.2-1.6c1.2-0.4,2.4,0.4,2.8,1.2l0,0c0.4,1.2,1.6,1.6,2.8,1.2l6-2.4c1.2-0.4,1.6-1.6,1.2-2.8l0,0
	c-0.4-1.2,0-2.4,0.8-2.8c2-1.2,4-2.4,6-4c0.8-0.8,2-0.4,2.8,0.4l0,0c0.8,0.8,2.4,0.8,3.2,0l4.8-4.8c0.8-0.8,0.8-2.4,0-3.2l0,0
	c-0.8-0.8-0.8-2-0.4-2.8c1.6-2,2.8-4,4-6c0.4-0.8,1.6-1.2,2.8-0.8l0,0c1.2,0.4,2.4,0,2.8-1.2l2.4-6c0.4-1.2,0-2.4-1.2-2.8l0,0
	c-1.2-0.4-1.6-1.6-1.2-2.8c0.8-2.4,1.2-4.8,1.6-7.2c0-1.2,1.2-2,2.4-2l0,0c1.2,0,2.4-1.2,2.4-2.4v-6.8
	C435.6,315.2,434.4,314,433.2,314z"/>
<path style="fill:#FFFFFF;" d="M374.4,357.6L374.4,357.6c-20.8,0-38-16.8-38-38l0,0c0-20.8,16.8-38,38-38l0,0c20.8,0,38,16.8,38,38
	l0,0C412.4,340.8,395.2,357.6,374.4,357.6z"/>
<path style="fill:#E6E9EE;" d="M374.4,344.8L374.4,344.8c-13.6,0-24.8-11.2-24.8-24.8l0,0c0-13.6,11.2-24.8,24.8-24.8l0,0
	c13.6,0,24.8,11.2,24.8,24.8l0,0C399.2,333.6,388,344.8,374.4,344.8z"/>
<path style="fill:#FFFFFF;" d="M374.4,329.6L374.4,329.6c-5.6,0-10-4.4-10-10l0,0c0-5.6,4.4-10,10-10l0,0c5.6,0,10,4.4,10,10l0,0
	C384.4,325.2,380,329.6,374.4,329.6z"/>
<rect x="215.2" y="306.8" style="fill:#ACB3BA;" width="82.8" height="31.6"/>
<g>
</g>
<g>
</g>
<g>
</g>
<g>
</g>
<g>
</g>
<g>
</g>
<g>
</g>
<g>
</g>
<g>
</g>
<g>
</g>
<g>
</g>
<g>
</g>
<g>
</g>
<g>
</g>
<g>
</g>
</svg>
