<?xml version="1.0" encoding="iso-8859-1"?>
<!-- Generator: Adobe Illustrator 19.0.0, SVG Export Plug-In . SVG Version: 6.00 Build 0)  -->
<svg xmlns="http://www.w3.org/2000/svg" xmlns:xlink="http://www.w3.org/1999/xlink" version="1.1" id="Layer_1" x="0px" y="0px" viewBox="0 0 508 508" style="enable-background:new 0 0 508 508;" xml:space="preserve">
<circle style="fill:#324A5E;" cx="254" cy="254" r="254"/>
<path style="fill:#FFD05B;" d="M216.4,505.2c6,0.8,12,1.6,18.4,2V119.6h-18.4V505.2z"/>
<polygon style="fill:#FFFFFF;" points="346,142.4 76.8,163.2 76.8,259.2 346,280 431.2,211.2 "/>
<g>
	<path style="fill:#4CDBC4;" d="M177.6,211.2c0-14.8,11.6-26.8,25.6-26.8s25.6,12,25.6,26.8S217.2,238,203.2,238   S177.6,226,177.6,211.2z M186.4,211.2c0,10,7.6,18,16.8,18s16.8-8,16.8-18s-7.6-18-16.8-18S186.4,201.2,186.4,211.2z"/>
	<path style="fill:#4CDBC4;" d="M239.6,238c-2.4,0-4.4-2-4.4-4.4v-44.8c0-2.4,2-4.4,4.4-4.4s4.4,2,4.4,4.4v40h15.6   c2.4,0,4.4,2,4.4,4.4s-2,4.4-4.4,4.4h-20V238z"/>
	<path style="fill:#4CDBC4;" d="M274.8,238c-2.4,0-4.4-2-4.4-4.4v-44.8c0-2.4,2-4.4,4.4-4.4h12.8c0.4,0,22.8,0,22.8,26.8   S288,238,287.6,238H274.8L274.8,238z M279.2,228.8h8.4c0.4,0,3.6,0,7.2-2.4c4.4-2.8,6.8-8,6.8-15.6s-2.4-12.8-6.8-15.6   c-3.2-2-6.8-2-6.8-2h-8.4v35.6L279.2,228.8L279.2,228.8z"/>
	<path style="fill:#4CDBC4;" d="M156,206.8c-3.6,0-6.8-2.8-6.8-6.8c0-3.6,2.8-6.8,6.8-6.8c2,0,3.6,0.8,4.8,2c1.6,1.6,4.4,2,6.4,0   c1.6-1.6,2-4.4,0-6.4c-2.8-3.2-7.2-4.8-11.2-4.8c-8.8,0-15.6,7.2-15.6,15.6s7.2,15.6,15.6,15.6c3.6,0,6.8,2.8,6.8,6.8   c0,3.6-2.8,6.8-6.8,6.8c-2,0-3.6-0.8-4.8-2c-1.6-1.6-4.4-2-6.4,0c-1.6,1.6-2,4.4,0,6.4c2.8,3.2,7.2,4.8,11.2,4.8   c8.8,0,15.6-7.2,15.6-15.6C171.6,213.6,164.8,206.8,156,206.8z"/>
</g>
<g>
</g>
<g>
</g>
<g>
</g>
<g>
</g>
<g>
</g>
<g>
</g>
<g>
</g>
<g>
</g>
<g>
</g>
<g>
</g>
<g>
</g>
<g>
</g>
<g>
</g>
<g>
</g>
<g>
</g>
</svg>
