<?xml version="1.0" encoding="iso-8859-1"?>
<!-- Generator: Adobe Illustrator 19.0.0, SVG Export Plug-In . SVG Version: 6.00 Build 0)  -->
<svg xmlns="http://www.w3.org/2000/svg" xmlns:xlink="http://www.w3.org/1999/xlink" version="1.1" id="Layer_1" x="0px" y="0px" viewBox="0 0 508 508" style="enable-background:new 0 0 508 508;" xml:space="preserve">
<circle style="fill:#90DFAA;" cx="254" cy="254" r="254"/>
<path style="fill:#324A5E;" d="M216.4,505.2c6,0.8,12,1.6,18.4,2V118.4h-18.4V505.2z"/>
<polygon style="fill:#FFFFFF;" points="346,141.6 76.8,162 76.8,258.4 346,279.2 431.2,210.4 "/>
<g>
	<path style="fill:#FF7058;" d="M210.8,230.8c0,2.4-2,4-4,4h-22.4c-2.4,0-4-2-4-4v-41.2c0-2.4,2-4,4-4h22.4c2.4,0,4,2,4,4   c0,2.4-2,4-4,4h-18.4V206h14.4c2.4,0,4,2,4,4c0,2.4-2,4-4,4h-14.4v12.4h18.4C209.2,226.8,210.8,228.4,210.8,230.8z"/>
	<path style="fill:#FF7058;" d="M253.2,233.2L232,202.8v28c0,2.4-2,4-4,4c-2.4,0-4-2-4-4v-41.2c0-2,1.6-4,4-4c1.2,0,2.4,0.8,3.2,1.6   l21.2,30.4v-28c0-2.4,2-4,4-4c2.4,0,4,2,4,4v41.2c0,2-2,4-4,4C255.2,234.8,254,234.4,253.2,233.2z"/>
	<path style="fill:#FF7058;" d="M302,185.6c2.4,0,4,2,4,4c0,2.4-2,4-4,4h-8v36.8c0,2.4-2,4-4,4c-2.4,0-4-2-4-4V194h-8.4   c-2.4,0-4-2-4-4c0-2.4,2-4,4-4H302V185.6z"/>
	<path style="fill:#FF7058;" d="M169.6,202L169.6,202c0-4.4-1.6-8-4-11.2l0,0c-3.2-3.6-7.6-6.4-13.2-6.4h-12c-2.4,0-4.4,2-4.4,4.4   v42.8c0,2.4,2,4.4,4.4,4.4s4.4-2,4.4-4.4v-12.4h7.2l9.2,14.8c2,3.2,5.2,1.6,6,1.2c1.2-0.8,3.2-2.8,1.2-6l-7.6-12.4   C166,214,169.6,208.4,169.6,202z M152.4,210.4h-7.6v-16.8h7.6c4.8,0,8.4,4,8.4,8.4C160.8,206.4,157.2,210.4,152.4,210.4z"/>
</g>
<g>
</g>
<g>
</g>
<g>
</g>
<g>
</g>
<g>
</g>
<g>
</g>
<g>
</g>
<g>
</g>
<g>
</g>
<g>
</g>
<g>
</g>
<g>
</g>
<g>
</g>
<g>
</g>
<g>
</g>
</svg>
