<?xml version="1.0" encoding="iso-8859-1"?>
<!-- Generator: Adobe Illustrator 19.0.0, SVG Export Plug-In . SVG Version: 6.00 Build 0)  -->
<svg xmlns="http://www.w3.org/2000/svg" xmlns:xlink="http://www.w3.org/1999/xlink" version="1.1" id="Layer_1" x="0px" y="0px" viewBox="0 0 508 508" style="enable-background:new 0 0 508 508;" xml:space="preserve">
<circle style="fill:#324A5E;" cx="254" cy="254" r="254"/>
<path style="fill:#FFFFFF;" d="M398,119.6H110c-18.8,0-34.4,15.2-34.4,34.4v143.6c0,18.8,15.2,34.4,34.4,34.4h18.4v70l86-70H398  c18.8,0,34.4-15.2,34.4-34.4V154C432.4,134.8,416.8,119.6,398,119.6z"/>
<polygon style="fill:#54C0EB;" points="330.8,210 313.2,210 313.2,289.6 270.8,289.6 270.8,248.8 236.8,248.8 236.8,289.6   194.8,289.6 194.8,210 177.2,210 205.2,187.6 205.2,162.8 224.4,162.8 224.4,172 254,148 "/>
<g>
</g>
<g>
</g>
<g>
</g>
<g>
</g>
<g>
</g>
<g>
</g>
<g>
</g>
<g>
</g>
<g>
</g>
<g>
</g>
<g>
</g>
<g>
</g>
<g>
</g>
<g>
</g>
<g>
</g>
</svg>
