<?xml version="1.0" encoding="iso-8859-1"?>
<!-- Generator: Adobe Illustrator 19.0.0, SVG Export Plug-In . SVG Version: 6.00 Build 0)  -->
<svg xmlns="http://www.w3.org/2000/svg" xmlns:xlink="http://www.w3.org/1999/xlink" version="1.1" id="Layer_1" x="0px" y="0px" viewBox="0 0 508 508" style="enable-background:new 0 0 508 508;" xml:space="preserve">
<circle style="fill:#F1543F;" cx="254" cy="254" r="254"/>
<polygon style="fill:#FFFFFF;" points="375.2,418.8 420.8,211.2 254,75.2 87.2,211.2 132.8,418.8 "/>
<path style="fill:#FFD05B;" d="M442.8,246.8c-4,0-8-1.6-11.2-4L254,98.4L76.4,242.8c-3.2,2.4-7.2,4-11.2,4c-5.2,0-10.4-2.4-14-6.4  c-3.2-3.6-4.4-8.4-4-13.2s2.8-9.2,6.4-12l188.8-154c3.2-2.4,7.2-4,11.2-4s8,1.6,11.2,4l189.2,154c3.6,3.2,6,7.2,6.4,12  s-0.8,9.2-4,13.2C453.2,244.4,448,246.8,442.8,246.8z"/>
<path style="fill:#324A5E;" d="M284,258.4c0-16.8-13.6-30-30-30c-16.8,0-30,13.6-30,30c0,12.4,7.2,22.8,18,27.6v54.8  c0,6.8,5.6,12,12,12c6.8,0,12-5.6,12-12V286C276.8,281.2,284,270.8,284,258.4z"/>
<g>
</g>
<g>
</g>
<g>
</g>
<g>
</g>
<g>
</g>
<g>
</g>
<g>
</g>
<g>
</g>
<g>
</g>
<g>
</g>
<g>
</g>
<g>
</g>
<g>
</g>
<g>
</g>
<g>
</g>
</svg>
