<?xml version="1.0" encoding="iso-8859-1"?>
<!-- Generator: Adobe Illustrator 19.0.0, SVG Export Plug-In . SVG Version: 6.00 Build 0)  -->
<svg xmlns="http://www.w3.org/2000/svg" xmlns:xlink="http://www.w3.org/1999/xlink" version="1.1" id="Layer_1" x="0px" y="0px" viewBox="0 0 508 508" style="enable-background:new 0 0 508 508;" xml:space="preserve">
<circle style="fill:#FFD05B;" cx="254" cy="254" r="254"/>
<path style="fill:#324A5E;" d="M216.4,505.2c6,0.8,12,1.6,18.4,2V123.6h-18.4V505.2z"/>
<polygon style="fill:#FFFFFF;" points="346,146.4 76.8,166.8 76.8,263.2 346,284 431.2,215.2 "/>
<g>
	<path style="fill:#FF7058;" d="M244.4,244.4c-2.8,0-4.8-2-4.8-4.8v-48.8c0-2.8,2-4.8,4.8-4.8s4.8,2,4.8,4.8v43.6h17.2   c2.8,0,4.8,2,4.8,4.8s-2.4,4.8-4.8,4.8h-22V244.4z"/>
	<path style="fill:#FF7058;" d="M322.8,239.6c0,2.8-2,4.8-4.8,4.8h-26.8c-2.8,0-4.8-2-4.8-4.8v-48.8c0-2.8,2-4.8,4.8-4.8H318   c2.8,0,4.8,2,4.8,4.8s-2,4.8-4.8,4.8h-22V210h17.2c2.8,0,4.8,2,4.8,4.8s-2,4.8-4.8,4.8H296V234h22   C320.4,234.8,322.8,236.8,322.8,239.6z"/>
	<path style="fill:#FF7058;" d="M145.2,210.4L145.2,210.4c-4,0-7.2-3.2-7.2-7.2s3.2-7.2,7.2-7.2c2,0,4,0.8,5.2,2.4   c2,2,4.8,2,6.8,0.4c2-2,2-4.8,0.4-6.8c-3.2-3.2-7.6-5.2-12.4-5.2c-9.2,0-16.8,7.6-16.8,16.8s7.6,16.8,16.8,16.8   c4,0,7.2,3.2,7.2,7.2s-3.2,7.2-7.2,7.2c-2,0-4-0.8-5.2-2.4c-2-2-4.8-2-6.8-0.4c-2,2-2,4.8-0.4,6.8c3.2,3.2,7.6,5.2,12.4,5.2   c9.2,0,16.8-7.6,16.8-16.8S154.4,210.4,145.2,210.4z"/>
	<path style="fill:#FF7058;" d="M204.8,189.2c-0.8-2-2.4-3.2-4.4-3.2s-4,1.2-4.4,3.2l-18.8,48.4c-0.8,2.4,0.4,5.2,2.8,6.4   c0.4,0.4,4.4,1.2,6.4-2.8l4.4-11.6H210l4.4,11.6c0.8,2.4,4,4,6.4,2.8c2.4-0.8,4-4,2.8-6.4L204.8,189.2z M194.4,220l6-15.2l6,15.2   H194.4z"/>
</g>
<g>
</g>
<g>
</g>
<g>
</g>
<g>
</g>
<g>
</g>
<g>
</g>
<g>
</g>
<g>
</g>
<g>
</g>
<g>
</g>
<g>
</g>
<g>
</g>
<g>
</g>
<g>
</g>
<g>
</g>
</svg>
