<?xml version="1.0" encoding="iso-8859-1"?>
<!-- Generator: Adobe Illustrator 19.0.0, SVG Export Plug-In . SVG Version: 6.00 Build 0)  -->
<svg xmlns="http://www.w3.org/2000/svg" xmlns:xlink="http://www.w3.org/1999/xlink" version="1.1" id="Layer_1" x="0px" y="0px" viewBox="0 0 508 508" style="enable-background:new 0 0 508 508;" xml:space="preserve">
<circle style="fill:#54C0EB;" cx="254" cy="254" r="254"/>
<path style="fill:#84DBFF;" d="M508,254c0,27.6-4.4,54-12.4,79.2c-3.6,2-7.6,3.2-12,3.2c-6,0-12-2.4-16.4-6.8s-10.4-6.8-16.4-6.8  s-12,2.4-16.4,6.8s-10.4,6.8-16.4,6.8s-12-2.4-16.4-6.8s-10.4-6.8-16.4-6.8s-12,2.4-16.4,6.8s-10.4,6.8-16.4,6.8s-12-2.4-16.4-6.8  s-10.4-6.8-16.4-6.8s-12,2.4-16.4,6.8s-10.4,6.8-16.4,6.8s-12-2.4-16.4-6.8s-10.4-6.8-16.4-6.8s-12,2.4-16.4,6.8s-10.4,6.8-16.4,6.8  s-12-2.4-16.4-6.8s-10.4-6.8-16.4-6.8s-12,2.4-16.4,6.8s-10.4,6.8-16.4,6.8s-12-2.4-16.4-6.8s-10.4-6.8-16.4-6.8s-12,2.4-16.4,6.8  C102,334,96,336.4,90,336.4s-12-2.4-16.4-6.8c-4.4-4.4-10.4-6.8-16.4-6.8s-12,2.4-16.4,6.8s-10.4,6.8-16.4,6.8c-4,0-8-1.2-12-3.2  C4.4,308.4,0,281.6,0,254C0,113.6,113.6,0,254,0S508,113.6,508,254z"/>
<path style="fill:#FFFFFF;" d="M2.8,217.2C1.2,229.2,0,241.6,0,254c0,27.6,4.4,54,12.4,79.2c3.6,2,7.6,3.2,12,3.2  c6,0,12-2.4,16.4-6.8s10.4-6.8,16.4-6.8s12,2.4,16.4,6.8C78,334,84,336.4,90,336.4s12-2.4,16.4-6.8c4.4-4.4,10.4-6.8,16.4-6.8  s12,2.4,16.4,6.8s10.4,6.8,16.4,6.8s12-2.4,16.4-6.8s10.4-6.8,16.4-6.8s12,2.4,16.4,6.8s10.4,6.8,16.4,6.8s12-2.4,16.4-6.8  s10.4-6.8,16.4-6.8c6,0,12,2.4,16.4,6.8c4.4,4.4,10.4,6.8,16.4,6.8s12-2.4,16.4-6.8s10.4-6.8,16.4-6.8s12,2.4,16.4,6.8  s10.4,6.8,16.4,6.8s12-2.4,16.4-6.8s10.4-6.8,16.4-6.8s12,2.4,16.4,6.8s10.4,6.8,16.4,6.8s12-2.4,16.4-6.8s10.4-6.8,16.4-6.8  s12,2.4,16.4,6.8s10.4,6.8,16.4,6.8c4,0,8-1.2,12-3.2c8-24.8,12.4-51.6,12.4-79.2c0-12.4-0.8-24.8-2.8-36.8H2.8z"/>
<path style="fill:#E6E9EE;" d="M0.8,237.2C0.4,242.8,0,248.4,0,254c0,27.6,4.4,54,12.4,79.2c3.6,2,7.6,3.2,12,3.2  c6,0,12-2.4,16.4-6.8s10.4-6.8,16.4-6.8s12,2.4,16.4,6.8C78,334,84,336.4,90,336.4s12-2.4,16.4-6.8c4.4-4.4,10.4-6.8,16.4-6.8  s12,2.4,16.4,6.8s10.4,6.8,16.4,6.8s12-2.4,16.4-6.8s10.4-6.8,16.4-6.8s12,2.4,16.4,6.8s10.4,6.8,16.4,6.8s12-2.4,16.4-6.8  s10.4-6.8,16.4-6.8c6,0,12,2.4,16.4,6.8c4.4,4.4,10.4,6.8,16.4,6.8s12-2.4,16.4-6.8s10.4-6.8,16.4-6.8s12,2.4,16.4,6.8  s10.4,6.8,16.4,6.8s12-2.4,16.4-6.8s10.4-6.8,16.4-6.8s12,2.4,16.4,6.8s10.4,6.8,16.4,6.8s12-2.4,16.4-6.8s10.4-6.8,16.4-6.8  s12,2.4,16.4,6.8s10.4,6.8,16.4,6.8c4,0,8-1.2,12-3.2c8-24.8,12.4-51.6,12.4-79.2c0-5.6-0.4-11.2-0.8-16.8H0.8z"/>
<g>
	<rect x="165.6" y="200" style="fill:#2B3B4E;" width="103.2" height="9.6"/>
	<rect x="165.6" y="247.2" style="fill:#2B3B4E;" width="103.2" height="9.6"/>
	<rect x="165.6" y="294.4" style="fill:#2B3B4E;" width="103.2" height="9.6"/>
</g>
<g>
	<path style="fill:#324A5E;" d="M172.8,171.6v157.2c-0.4,0-0.4,0.4-0.8,0.8c-4.4,4.4-10.4,6.8-16.4,6.8h-0.4V171.6   c0-4.8,4-8.8,8.8-8.8c2.4,0,4.8,0.8,6.4,2.4C172,166.8,172.8,169.2,172.8,171.6z"/>
	<path style="fill:#324A5E;" d="M278,171.6v162.8c-2.8-1.2-5.2-2.8-7.6-5.2c-2.8-2.8-6.4-4.8-10-6v-152c0-4.8,4-8.8,8.8-8.8   c2.4,0,4.8,0.8,6.4,2.4C276.8,166.8,278,169.2,278,171.6z"/>
</g>
<g>
</g>
<g>
</g>
<g>
</g>
<g>
</g>
<g>
</g>
<g>
</g>
<g>
</g>
<g>
</g>
<g>
</g>
<g>
</g>
<g>
</g>
<g>
</g>
<g>
</g>
<g>
</g>
<g>
</g>
</svg>
