<?xml version="1.0" encoding="iso-8859-1"?>
<!-- Generator: Adobe Illustrator 19.0.0, SVG Export Plug-In . SVG Version: 6.00 Build 0)  -->
<svg xmlns="http://www.w3.org/2000/svg" xmlns:xlink="http://www.w3.org/1999/xlink" version="1.1" id="Layer_1" x="0px" y="0px" viewBox="0 0 508 508" style="enable-background:new 0 0 508 508;" xml:space="preserve">
<circle style="fill:#FD8469;" cx="254" cy="254" r="254"/>
<path style="fill:#2B3B4E;" d="M201.2,140.4v-33.2h105.2v33.2h16.4V98.8c0-4.4-3.6-8-8-8H193.2c-4.4,0-8,3.6-8,8V140h16V140.4z"/>
<g>
	<rect x="299.6" y="134.8" style="fill:#E6E9EE;" width="30.8" height="5.6"/>
	<rect x="178" y="134.8" style="fill:#E6E9EE;" width="30.8" height="5.6"/>
</g>
<path style="fill:#324A5E;" d="M425.2,386.8H82.8c-8.8,0-16.4-7.2-16.4-16.4v-214c0-8.8,7.2-16.4,16.4-16.4h342.8  c8.8,0,16.4,7.2,16.4,16.4v214C441.6,379.6,434.4,386.8,425.2,386.8z"/>
<g>
	<rect x="139.2" y="140.4" style="fill:#2B3B4E;" width="25.2" height="246.4"/>
	<rect x="141.2" y="140.4" style="fill:#2B3B4E;" width="21.6" height="246.4"/>
</g>
<path style="fill:#FFFFFF;" d="M164.4,261.2h-24.8c-6,0-10.8-4.8-10.8-10.8v-33.6c0-6,4.8-10.8,10.8-10.8h24.8  c6,0,10.8,4.8,10.8,10.8v33.6C174.8,256.4,170,261.2,164.4,261.2z M139.6,216c-0.4,0-0.8,0.4-0.8,0.8v33.6c0,0.4,0.4,0.8,0.8,0.8  h24.8c0.4,0,0.8-0.4,0.8-0.8v-33.6c0-0.4-0.4-0.8-0.8-0.8L139.6,216L139.6,216z"/>
<rect x="345.2" y="140.4" style="fill:#2B3B4E;" width="21.6" height="246.4"/>
<path style="fill:#FFFFFF;" d="M368.4,261.2h-24.8c-6,0-10.8-4.8-10.8-10.8v-33.6c0-6,4.8-10.8,10.8-10.8h24.8  c6,0,10.8,4.8,10.8,10.8v33.6C379.2,256.4,374.4,261.2,368.4,261.2z M343.6,216c-0.4,0-0.8,0.4-0.8,0.8v33.6c0,0.4,0.4,0.8,0.8,0.8  h24.8c0.4,0,0.8-0.4,0.8-0.8v-33.6c0-0.4-0.4-0.8-0.8-0.8L343.6,216L343.6,216z"/>
<g>
</g>
<g>
</g>
<g>
</g>
<g>
</g>
<g>
</g>
<g>
</g>
<g>
</g>
<g>
</g>
<g>
</g>
<g>
</g>
<g>
</g>
<g>
</g>
<g>
</g>
<g>
</g>
<g>
</g>
</svg>
