<?xml version="1.0" encoding="iso-8859-1"?>
<!-- Generator: Adobe Illustrator 19.0.0, SVG Export Plug-In . SVG Version: 6.00 Build 0)  -->
<svg xmlns="http://www.w3.org/2000/svg" xmlns:xlink="http://www.w3.org/1999/xlink" version="1.1" id="Layer_1" x="0px" y="0px" viewBox="0 0 508 508" style="enable-background:new 0 0 508 508;" xml:space="preserve">
<circle style="fill:#324A5E;" cx="254" cy="254" r="254"/>
<rect x="148.8" y="133.6" style="fill:#84DBFF;" width="45.6" height="68"/>
<polygon style="fill:#FFFFFF;" points="406,236.8 371.2,236.8 371.2,394.4 136.8,394.4 136.8,236.8 102,236.8 254,97.6 "/>
<path style="fill:#FF7058;" d="M294.8,289.6c0-20-16.4-36.8-36.8-36.8c-8.8,0-15.6-7.2-15.6-15.6c0-8.8,7.2-15.6,15.6-15.6  c4.4,0,8.4,1.6,11.6,4.8c4,4.4,10.4,4.4,14.8,0.4s4.4-10.4,0.4-14.8c-4.4-4.8-10-8-16-10v-7.2c0-5.6-4.8-10.4-10.4-10.4  s-10.4,4.8-10.4,10.4v7.2c-15.2,4.4-26,18.4-26,35.2c0,20,16.4,36.8,36.8,36.8c8.8,0,15.6,7.2,15.6,15.6c0,8.8-7.2,15.6-15.6,15.6  c-4.4,0-8.4-1.6-11.6-4.8c-4-4.4-10.4-4.4-14.8-0.4c-4.4,4-4.4,10.4-0.4,14.8c4.4,4.8,10,8,16,10v7.2c0,5.6,4.8,10.4,10.4,10.4  s10.4-4.8,10.4-10.4v-7.2C284,320.4,294.8,306.4,294.8,289.6z"/>
<g>
</g>
<g>
</g>
<g>
</g>
<g>
</g>
<g>
</g>
<g>
</g>
<g>
</g>
<g>
</g>
<g>
</g>
<g>
</g>
<g>
</g>
<g>
</g>
<g>
</g>
<g>
</g>
<g>
</g>
</svg>
