<?xml version="1.0" encoding="iso-8859-1"?>
<!-- Generator: Adobe Illustrator 19.0.0, SVG Export Plug-In . SVG Version: 6.00 Build 0)  -->
<svg xmlns="http://www.w3.org/2000/svg" xmlns:xlink="http://www.w3.org/1999/xlink" version="1.1" id="Layer_1" x="0px" y="0px" viewBox="0 0 508 508" style="enable-background:new 0 0 508 508;" xml:space="preserve">
<circle style="fill:#84DBFF;" cx="254" cy="254" r="254"/>
<polygon style="fill:#FFFFFF;" points="440.4,216 397.6,216 397.6,408.8 110.4,408.8 110.4,216 67.6,216 135.6,160.8 135.6,100.4   182,100.4 182,123.2 254,64.8 "/>
<path style="fill:#FF7058;" d="M337.2,271.6l18-2.8v-28l-18.4-2.8c-2.4-10.8-6.8-20.8-12.8-29.6l11.6-15.2L316,173.6l-15.6,11.6  c-8.8-5.6-18.8-10-29.2-12L268,154h-28l-2.8,19.2c-10.8,2-20.4,6.4-29.2,12l-15.6-11.6l-19.6,19.6l11.6,15.2  c-6,8.8-10.4,18.8-12.8,29.6l-18.4,2.8v28l18,2.8c2,11.2,6.4,21.6,12.4,30.8l-10.8,14.4l19.6,19.6l14-10.4  c9.2,6.4,20,10.8,31.2,13.2l2.4,17.2h28l2.4-17.2c11.6-2.4,22-6.8,31.2-13.2l14,10.4l19.6-19.6l-10.8-14.4  C330.8,293.2,335.2,282.8,337.2,271.6z"/>
<circle style="fill:#FFFFFF;" cx="254" cy="255.2" r="53.6"/>
<circle style="fill:#FF7058;" cx="254" cy="255.2" r="30"/>
<g>
</g>
<g>
</g>
<g>
</g>
<g>
</g>
<g>
</g>
<g>
</g>
<g>
</g>
<g>
</g>
<g>
</g>
<g>
</g>
<g>
</g>
<g>
</g>
<g>
</g>
<g>
</g>
<g>
</g>
</svg>
