<?xml version="1.0" encoding="iso-8859-1"?>
<!-- Generator: Adobe Illustrator 19.0.0, SVG Export Plug-In . SVG Version: 6.00 Build 0)  -->
<svg xmlns="http://www.w3.org/2000/svg" xmlns:xlink="http://www.w3.org/1999/xlink" version="1.1" id="Layer_1" x="0px" y="0px" viewBox="0 0 508 508" style="enable-background:new 0 0 508 508;" xml:space="preserve">
<circle style="fill:#90DFAA;" cx="254" cy="254" r="254"/>
<path style="fill:#2C9984;" d="M61.2,419.2C107.6,473.6,176.8,508,254,508s146-34.4,192.8-88.8H61.2z"/>
<rect x="330" y="109.2" style="fill:#E6E9EE;" width="52.4" height="63.6"/>
<polygon style="fill:#FFFFFF;" points="409.2,419.2 409.2,190 254,98 98.8,190 98.8,419.2 "/>
<rect x="98.8" y="394" style="fill:#E6E9EE;" width="310" height="25.2"/>
<path style="fill:#324A5E;" d="M434,214.8c-1.6,0-3.6-0.4-5.2-1.2L254,109.6l-174.8,104c-4.8,2.8-10.8,1.2-13.6-3.6  c-2.8-4.8-1.2-10.8,3.6-13.6l180-106.8c3.2-2,7.2-2,10,0l180,106.8c4.8,2.8,6.4,8.8,3.6,13.6C440.8,213.2,437.2,214.8,434,214.8z"/>
<rect x="189.6" y="244" style="fill:#84DBFF;" width="128.8" height="92.4"/>
<polygon style="fill:#54C0EB;" points="284.4,244 237.6,336.8 318.4,336.8 318.4,244 "/>
<rect x="178" y="336.8" style="fill:#CED5E0;" width="152" height="15.2"/>
<rect x="322.8" y="94.4" style="fill:#FFFFFF;" width="66.8" height="14.8"/>
<g>
</g>
<g>
</g>
<g>
</g>
<g>
</g>
<g>
</g>
<g>
</g>
<g>
</g>
<g>
</g>
<g>
</g>
<g>
</g>
<g>
</g>
<g>
</g>
<g>
</g>
<g>
</g>
<g>
</g>
</svg>
