<?xml version="1.0" encoding="iso-8859-1"?>
<!-- Generator: Adobe Illustrator 19.0.0, SVG Export Plug-In . SVG Version: 6.00 Build 0)  -->
<svg xmlns="http://www.w3.org/2000/svg" xmlns:xlink="http://www.w3.org/1999/xlink" version="1.1" id="Layer_1" x="0px" y="0px" viewBox="0 0 508 508" style="enable-background:new 0 0 508 508;" xml:space="preserve">
<circle style="fill:#54C0EB;" cx="254" cy="254" r="254"/>
<path style="fill:#84DBFF;" d="M67.2,426c46.4,50.4,112.8,82,186.8,82s140.4-31.6,186.8-82H67.2z"/>
<rect x="330" y="115.6" style="fill:#E6E9EE;" width="52.4" height="63.6"/>
<polygon style="fill:#FFFFFF;" points="409.2,426 409.2,196.8 254,104.8 98.8,196.8 98.8,426 "/>
<rect x="98.8" y="400.8" style="fill:#E6E9EE;" width="310" height="25.2"/>
<path style="fill:#324A5E;" d="M434,221.6c-1.6,0-3.6-0.4-5.2-1.2L254,116.4L79.2,220c-4.8,2.8-10.8,1.2-13.6-3.6  c-2.8-4.8-1.2-10.8,3.6-13.6L249.2,96c3.2-2,7.2-2,10,0l180,106.8c4.8,2.8,6.4,8.8,3.6,13.6C440.8,219.6,437.2,221.6,434,221.6z"/>
<rect x="322.8" y="100.8" style="fill:#FFFFFF;" width="66.8" height="14.8"/>
<path style="fill:#4CDBC4;" d="M380.4,342L154,386.8c-3.2,0.8-6-1.2-6.8-4.4L122.8,260c-0.8-3.2,1.2-6,4.4-6.8L354,208.4  c3.2-0.8,6,1.2,6.8,4.4l24.4,122.4C385.2,338.4,383.2,341.2,380.4,342z"/>
<path style="fill:#2C9984;" d="M154.4,357.2l-15.2-76.8c9.6-2,15.6-11.2,13.6-20.4l180.4-35.6c2,9.6,11.2,15.6,20.4,13.6l15.2,76.8  c-9.6,2-15.6,11.2-13.6,20.4l-180.4,35.6C172.8,361.2,163.6,355.2,154.4,357.2z"/>
<ellipse transform="matrix(-0.1941 -0.981 0.981 -0.1941 11.3825 604.5551)" style="fill:#FFFFFF;" cx="254.02" cy="297.602" rx="47.601" ry="36.801"/>
<g>
	<circle style="fill:#4CDBC4;" cx="322.8" cy="284" r="17.2"/>
	<circle style="fill:#4CDBC4;" cx="185.2" cy="311.2" r="17.2"/>
</g>
<path style="fill:#2C9984;" d="M270,304c-2-7.6-9.6-12-16.8-10.4c-3.2,0.8-6.4-1.2-7.2-4.4c-0.8-3.2,1.2-6.4,4.4-7.2  c1.6-0.4,3.2,0,4.8,0.8c2,1.2,4.4,0.8,5.6-1.2s0.8-4.4-1.2-5.6s-4.4-2-6.8-2.4l-0.8-2.8c-0.4-2-2.8-3.6-4.8-2.8  c-2,0.4-3.6,2.8-2.8,4.8l0.8,2.8c-5.2,3.2-8,9.2-6.4,15.6c2,7.6,9.6,12,16.8,10.4c3.2-0.8,6.4,1.2,7.2,4.4c0.8,3.2-1.2,6.4-4.4,7.2  c-1.6,0.4-3.2,0-4.8-0.8c-2-1.2-4.4-0.8-5.6,1.2c-1.2,2-0.8,4.4,1.2,5.6s4.4,2,6.8,2.4l0.8,2.8c0.4,2,2.8,3.6,4.8,2.8  c2-0.4,3.6-2.8,2.8-4.8l-0.8-2.8C268.8,316.4,271.6,310,270,304z"/>
<g>
</g>
<g>
</g>
<g>
</g>
<g>
</g>
<g>
</g>
<g>
</g>
<g>
</g>
<g>
</g>
<g>
</g>
<g>
</g>
<g>
</g>
<g>
</g>
<g>
</g>
<g>
</g>
<g>
</g>
</svg>
