<?xml version="1.0" encoding="iso-8859-1"?>
<!-- Generator: Adobe Illustrator 19.0.0, SVG Export Plug-In . SVG Version: 6.00 Build 0)  -->
<svg xmlns="http://www.w3.org/2000/svg" xmlns:xlink="http://www.w3.org/1999/xlink" version="1.1" id="Layer_1" x="0px" y="0px" viewBox="0 0 508 508" style="enable-background:new 0 0 508 508;" xml:space="preserve">
<circle style="fill:#FD8469;" cx="254" cy="254" r="254"/>
<path style="fill:#FFFFFF;" d="M350.4,231.6h-30.8v-90C319.6,105.2,290,76,254,76s-65.6,29.6-65.6,65.6v90h-30.8v-90  c0-53.2,43.2-96.4,96.4-96.4s96.4,43.2,96.4,96.4V231.6z"/>
<path style="fill:#FFD05B;" d="M254,462.8L254,462.8c-68,0-123.6-55.2-123.6-123.6v-128h246.8v128C377.6,407.2,322,462.8,254,462.8z  "/>
<path style="fill:#F9B54C;" d="M254,442c-56.8,0-103.2-46.4-103.2-103.2V231.6h206v107.6C357.2,396,310.8,442,254,442z"/>
<path style="fill:#FFD05B;" d="M254,386c-25.6,0-46.8-20.8-46.8-46.8V288h93.2v51.2C300.8,364.8,279.6,386,254,386z"/>
<circle style="fill:#FFFFFF;" cx="254" cy="333.6" r="30"/>
<g>
	<circle style="fill:#324A5E;" cx="254" cy="324.8" r="12"/>
	<path style="fill:#324A5E;" d="M254,354L254,354c-2.4,0-4.8-2-4.8-4.8V332c0-2.4,2-4.8,4.8-4.8l0,0c2.4,0,4.8,2,4.8,4.8v17.2   C258.8,352,256.4,354,254,354z"/>
</g>
<g>
</g>
<g>
</g>
<g>
</g>
<g>
</g>
<g>
</g>
<g>
</g>
<g>
</g>
<g>
</g>
<g>
</g>
<g>
</g>
<g>
</g>
<g>
</g>
<g>
</g>
<g>
</g>
<g>
</g>
</svg>
