<?xml version="1.0" encoding="iso-8859-1"?>
<!-- Generator: Adobe Illustrator 19.0.0, SVG Export Plug-In . SVG Version: 6.00 Build 0)  -->
<svg xmlns="http://www.w3.org/2000/svg" xmlns:xlink="http://www.w3.org/1999/xlink" version="1.1" id="Layer_1" x="0px" y="0px" viewBox="0 0 508 508" style="enable-background:new 0 0 508 508;" xml:space="preserve">
<circle style="fill:#FD8469;" cx="254" cy="254" r="254"/>
<path style="fill:#F1543F;" d="M72,431.2c46,47.2,110.4,76.8,182,76.8s135.6-29.6,182-76.8H72z"/>
<path style="fill:#324A5E;" d="M104.4,258.4h-8V106c0-5.6,2.4-10.8,6.8-14.4l24.4-19.2c7.2-5.6,17.2-5.6,24,0.8L164,84.4l-5.2,5.6  L146,78.8c-4-3.6-9.6-3.6-13.6-0.4L108,97.6c-2.4,2-4,5.2-4,8.4v152.4H104.4z"/>
<path style="fill:#FFFFFF;" d="M68.8,282.4l16,88.8c4.4,24,25.2,41.2,49.2,41.2h240c24.4,0,45.2-17.2,49.2-41.2l16-88.8L68.8,282.4  L68.8,282.4z"/>
<path style="fill:#E6E9EE;" d="M448,282.4H60c-8,0-14.4-6.4-14.4-14.4l0,0c0-8,6.4-14.4,14.4-14.4h387.6c8,0,14.4,6.4,14.4,14.4l0,0  C462,276,455.6,282.4,448,282.4z"/>
<g>
	<polygon style="fill:#324A5E;" points="374.8,430.8 374.8,412.8 325.2,412.8 337.2,430.8  "/>
	<polygon style="fill:#324A5E;" points="170.8,430.8 182.8,412.8 133.2,412.8 133.2,430.8  "/>
</g>
<path style="fill:#E6E9EE;" d="M201.2,81.2c-14-13.6-36.8-13.6-50.8,0.4s-14,36.8-0.4,50.8L201.2,81.2z"/>
<path style="fill:#CED5E0;" d="M201.6,80.8L150,132.4c-1.6,1.6-1.6,4,0,5.6l0,0c1.6,1.6,4,1.6,5.6,0l51.2-51.2c1.6-1.6,1.6-4,0-5.6  l0,0C205.6,79.2,202.8,79.2,201.6,80.8z"/>
<g>
	<path style="fill:#FFFFFF;" d="M211.6,100.8l-5.6-3.2c-0.8-0.4-1.6,0-2,0.8s0,1.6,0.8,2l5.6,3.2c0.4,0.4,1.2,0,1.6-0.4   c0,0,0-0.4,0.4-0.4C212.4,102,212.4,101.2,211.6,100.8z"/>
	<path style="fill:#FFFFFF;" d="M191.6,110.4c-0.4,0.8-0.4,1.6,0.4,2l4.8,4c0.4,0.4,1.6,0.4,2,0l0,0c0.4-0.8,0.4-1.6-0.4-2l-4.8-4   C193.2,109.6,192,109.6,191.6,110.4z"/>
	<path style="fill:#FFFFFF;" d="M179.6,122.4c-0.8,0.4-0.8,1.6-0.4,2l4,4.8c0.4,0.8,1.6,0.8,2,0.4l0,0c0.4-0.4,0.4-1.2,0-2l-4-4.8   C181.2,122,180.4,122,179.6,122.4z"/>
	<path style="fill:#FFFFFF;" d="M167.6,134.8c-0.8,0.4-1.2,1.2-0.8,2l3.2,5.6c0.4,0.8,1.2,0.8,2,0.8c0,0,0.4,0,0.4-0.4   c0.4-0.4,0.4-1.2,0.4-1.6l-3.2-5.6C169.2,134.4,168.4,134.4,167.6,134.8z"/>
	<path style="fill:#FFFFFF;" d="M212,112c-0.8-0.4-1.6-0.4-2,0.4s-0.4,1.6,0.4,2l7.2,4.8c0.4,0.4,1.2,0.4,2,0c0,0,0,0,0-0.4   c0.4-0.8,0.4-1.6-0.4-2L212,112z"/>
	<path style="fill:#FFFFFF;" d="M196,126.8c-0.4,0.4-0.4,1.6,0,2l6,6c0.4,0.4,1.6,0.4,2,0s0.4-1.6,0-2l-6-6   C197.6,126,196.4,126,196,126.8z"/>
	<path style="fill:#FFFFFF;" d="M181.6,140.8c-0.8,0.4-0.8,1.2-0.4,2l4.8,7.2c0.4,0.8,1.2,0.8,2,0.4c0,0,0,0,0.4,0   c0.4-0.4,0.4-1.2,0-2l-4.8-7.2C183.2,140.8,182.4,140.4,181.6,140.8z"/>
</g>
<g>
</g>
<g>
</g>
<g>
</g>
<g>
</g>
<g>
</g>
<g>
</g>
<g>
</g>
<g>
</g>
<g>
</g>
<g>
</g>
<g>
</g>
<g>
</g>
<g>
</g>
<g>
</g>
<g>
</g>
</svg>
