<?xml version="1.0" encoding="iso-8859-1"?>
<!-- Generator: Adobe Illustrator 19.0.0, SVG Export Plug-In . SVG Version: 6.00 Build 0)  -->
<svg xmlns="http://www.w3.org/2000/svg" xmlns:xlink="http://www.w3.org/1999/xlink" version="1.1" id="Layer_1" x="0px" y="0px" viewBox="0 0 508 508" style="enable-background:new 0 0 508 508;" xml:space="preserve">
<circle style="fill:#FFD05B;" cx="254" cy="254" r="254"/>
<path style="fill:#324A5E;" d="M317.6,202.8c-6-13.2-14.4-24.8-24.4-34.8c-9.6-9.6-20.8-17.6-33.2-23.6l2.4-1.6  c7.2-5.2,16.8-5.2,23.6,0.4l16.8,12.8c4,2.8,6.4,7.2,7.6,12c0.8,3.6,2,6.8,4.4,9.6l1.6,2C322,185.6,322.4,195.6,317.6,202.8z"/>
<path style="fill:#FF7058;" d="M85.2,313.2V254c0-67.2,54.4-121.6,121.6-121.6l0,0c67.2,0,121.6,54.4,121.6,121.6v98.4  c0,13.2-10.4,23.6-23.6,23.6H147.2C113.2,375.6,85.2,348,85.2,313.2z"/>
<g>
	<circle style="fill:#FFFFFF;" cx="207.2" cy="254" r="80"/>
	<rect x="328.8" y="327.6" style="fill:#FFFFFF;" width="87.6" height="15.2"/>
</g>
<g>
	<rect x="416.4" y="327.6" style="fill:#324A5E;" width="6" height="37.2"/>
	<path style="fill:#324A5E;" d="M172.8,257.2c0-2.4,0.4-4.4,1.6-6.4l11.2-21.2c0.8-1.2,2-2,3.2-2c4.4,0.4,3.6,4.8,3.2,5.6l-4.8,9.2   h0.4c8,0,14.8,6.8,14.8,14.8c0,8-6.8,14.8-14.8,14.8C179.2,271.6,172.8,265.2,172.8,257.2z M180,257.2c0,4,3.2,7.2,7.2,7.2   s7.6-3.2,7.6-7.2s-3.2-7.6-7.6-7.6C183.2,249.6,180,252.8,180,257.2z"/>
</g>
<path style="fill:#FFFFFF;" d="M231.2,249.6L231.2,249.6c-1.6,0-3.2,1.2-3.2,3.2l0,0c0,1.6,1.2,3.2,3.2,3.2l0,0  c1.6,0,3.2-1.2,3.2-3.2l0,0C234.4,250.8,232.8,249.6,231.2,249.6z"/>
<path style="fill:#324A5E;" d="M241.6,253.6V268c0,2-1.6,3.6-3.6,3.6s-3.6-1.6-3.6-3.6v-10.8v-4.8c0-1.6-1.2-3.2-3.2-3.2  s-3.2,1.2-3.2,3.2V268c0,2-1.6,3.6-3.6,3.6s-3.6-1.6-3.6-3.6v-10.8v-4.8c0-1.6-1.2-3.2-3.2-3.2s-3.2,1.2-3.2,3.2V268  c0,2-1.6,3.6-3.6,3.6s-3.6-1.6-3.6-3.6v-22c0-2,1.6-3.6,3.6-3.6c0.8,0,1.6,0.4,2.4,0.8c1.2-0.4,2.8-0.8,4.4-0.8  c2.8,0,5.2,0.8,6.8,2.4c1.6-1.6,4-2.4,6.8-2.4C238.8,242.4,241.6,249.2,241.6,253.6z"/>
<g>
</g>
<g>
</g>
<g>
</g>
<g>
</g>
<g>
</g>
<g>
</g>
<g>
</g>
<g>
</g>
<g>
</g>
<g>
</g>
<g>
</g>
<g>
</g>
<g>
</g>
<g>
</g>
<g>
</g>
</svg>
