<?xml version="1.0" encoding="iso-8859-1"?>
<!-- Generator: Adobe Illustrator 19.0.0, SVG Export Plug-In . SVG Version: 6.00 Build 0)  -->
<svg xmlns="http://www.w3.org/2000/svg" xmlns:xlink="http://www.w3.org/1999/xlink" version="1.1" id="Layer_1" x="0px" y="0px" viewBox="0 0 508 508" style="enable-background:new 0 0 508 508;" xml:space="preserve">
<circle style="fill:#84DBFF;" cx="254" cy="254" r="254"/>
<path style="fill:#54C0EB;" d="M68.4,427.2C114.8,476.8,180.8,508,254,508s139.6-31.2,185.6-80.8H68.4z"/>
<rect x="104.8" y="166.4" style="fill:#FFFFFF;" width="298.4" height="260.4"/>
<rect x="104.8" y="392.8" style="fill:#E6E9EE;" width="298.4" height="34.4"/>
<g>
	<path style="fill:#324A5E;" d="M346.4,427.2v-54.4c0-51.2-41.6-92.4-92.4-92.4l0,0c-51.2,0-92.4,41.6-92.4,92.4v54.4L346.4,427.2   L346.4,427.2z"/>
	<path style="fill:#324A5E;" d="M84.8,126.8v26.4c0,7.6,6,13.6,12.8,13.6H410c7.2,0,12.8-6,12.8-13.6v-26.4H84.8z"/>
	<path style="fill:#324A5E;" d="M423.2,191.2L423.2,191.2c0-5.2-4-9.2-8.8-9.2H93.6c-4.8,0-8.8,4-8.8,9.2l0,0c0,5.2,4,9.2,8.8,9.2   H414C419.2,200.4,423.2,196.4,423.2,191.2z"/>
</g>
<path style="fill:#F1582E;" d="M288.8,386.8c-10-13.6,1.2-32,1.2-32s-4.8,3.2-8.4,9.2c1.6-10.4,1.6-25.2-10-31.6  c0,0,2.8,15.2-6.4,21.2c0,0-4-9.2-0.8-18.4c0,0,8.4-19.6-3.2-28.4c0,0-1.6,9.2-5.6,17.2c-0.8-1.6-1.6-2.4-1.6-2.4  c-4.8-4.4-6.8-12.8-6.8-12.8c-6.4,5.6-0.4,16.8-0.4,16.8c2.4,5.2,0.4,10.8,0.4,10.8c-5.6-3.2-4.8-12-4.8-12  c-5.2,4-3.6,11.6-3.6,11.6c3.6,7.2,1.6,14.4,1.6,14.4c0-7.6-7.6-12-7.6-12s7.2,10,2.4,18.4c-0.4,0.8-0.8,1.6-1.2,2.4  c-2.8-4.4-4.4-10-4.4-10c-6.4,5.6-0.4,16.8-0.4,16.8c2.4,5.2,0.4,10.8,0.4,10.8c-5.6-3.2-4.8-12-4.8-12c-5.2,4-3.6,11.6-3.6,11.6  c3.6,7.2,1.6,14.4,1.6,14.4c0-7.6-7.6-12-7.6-12s7.2,10,2.4,18.4c-1.6,2.8-2.8,5.6-2.4,8.8c0.4,2,0.8,4,1.6,6l0,0  c0,0,4.4,16,44.8,15.2c27.2-0.8,32.4-15.6,32.8-26.4C294,395.6,291.6,390.8,288.8,386.8z"/>
<path style="fill:#FFD05B;" d="M275.6,401.6c-6.4-8.4,0.8-20,0.8-20s-3.2,2-5.2,5.6c1.2-6.8,0.8-16-6.4-20c0,0,1.6,9.6-4,13.2  c0,0-2.4-6-0.4-11.6c0,0,5.2-12.4-2-18c0,0-0.8,6-3.6,10.8c-0.4-1.2-1.2-1.6-1.2-1.6c-2.8-2.8-4.4-8-4.4-8c-4,3.6-0.4,10.4-0.4,10.4  c1.6,3.2,0.4,6.8,0.4,6.8c-3.6-2-3.2-7.6-3.2-7.6c-3.2,2.4-2,7.2-2,7.2c2.4,4.4,0.8,9.2,0.8,9.2c0-4.8-4.8-7.6-4.8-7.6  s4.8,6.4,1.2,11.6c-0.4,0.4-0.4,1.2-0.8,1.6c-2-2.8-2.8-6-2.8-6c-3.6,4.4,0.4,11.2,0.4,11.2c1.6,3.2,0.4,6.8,0.4,6.8  c-3.6-2-3.2-7.6-3.2-7.6c-3.2,2.4-2,7.2-2,7.2c2.4,4.4,0.8,9.2,0.8,9.2c0-4.8-4.8-7.6-4.8-7.6s4.8,6.4,1.2,11.6  c-1.2,1.6-1.6,3.6-1.6,5.6c0,1.2,0.4,2.4,1.2,3.6l0,0c0,0,2.8,10,28.4,9.6c17.2-0.4,20.4-10,20.8-16.4  C279.2,407.6,277.6,404.4,275.6,401.6z"/>
<g>
</g>
<g>
</g>
<g>
</g>
<g>
</g>
<g>
</g>
<g>
</g>
<g>
</g>
<g>
</g>
<g>
</g>
<g>
</g>
<g>
</g>
<g>
</g>
<g>
</g>
<g>
</g>
<g>
</g>
</svg>
