<?xml version="1.0" encoding="iso-8859-1"?>
<!-- Generator: Adobe Illustrator 19.0.0, SVG Export Plug-In . SVG Version: 6.00 Build 0)  -->
<svg xmlns="http://www.w3.org/2000/svg" xmlns:xlink="http://www.w3.org/1999/xlink" version="1.1" id="Layer_1" x="0px" y="0px" viewBox="0 0 508 508" style="enable-background:new 0 0 508 508;" xml:space="preserve">
<circle style="fill:#324A5E;" cx="254" cy="254" r="254"/>
<path style="fill:#2B3B4E;" d="M49.6,404.8C96,467.2,170,508,254,508c83.6,0,158-40.4,204.4-103.2H49.6z"/>
<g>
	<rect x="90" y="178.8" style="fill:#FFD05B;" width="26" height="226"/>
	<rect x="392" y="264.8" style="fill:#FFD05B;" width="26" height="140"/>
</g>
<rect x="116" y="283.6" style="fill:#F9B54C;" width="276.4" height="88"/>
<g>
	<path style="fill:#E6E9EE;" d="M369.2,346.4H201.6c-5.2,0-9.2-4-9.2-9.2v-64h186.4v64C378.4,342,374.4,346.4,369.2,346.4z"/>
	<path style="fill:#E6E9EE;" d="M167.2,283.6h-21.6c-8,0-14.8-6.4-14.8-14.8l0,0c0-8,6.4-14.8,14.8-14.8h21.6   c8,0,14.8,6.4,14.8,14.8l0,0C182,276.8,175.2,283.6,167.2,283.6z"/>
</g>
<g>
</g>
<g>
</g>
<g>
</g>
<g>
</g>
<g>
</g>
<g>
</g>
<g>
</g>
<g>
</g>
<g>
</g>
<g>
</g>
<g>
</g>
<g>
</g>
<g>
</g>
<g>
</g>
<g>
</g>
</svg>
