<?xml version="1.0" encoding="iso-8859-1"?>
<!-- Generator: Adobe Illustrator 19.0.0, SVG Export Plug-In . SVG Version: 6.00 Build 0)  -->
<svg xmlns="http://www.w3.org/2000/svg" xmlns:xlink="http://www.w3.org/1999/xlink" version="1.1" id="Layer_1" x="0px" y="0px" viewBox="0 0 508 508" style="enable-background:new 0 0 508 508;" xml:space="preserve">
<circle style="fill:#84DBFF;" cx="254" cy="254" r="254"/>
<path style="fill:#E6E9EE;" d="M359.6,264.4v108.4l0,0c0,19.2,15.6,34.8,34.8,34.8c19.2,0,34.8-15.6,34.8-34.8l0,0V264.4H359.6z"/>
<path style="fill:#FFFFFF;" d="M359.6,372.8V97.6H98v275.2c0,19.2,15.6,34.8,34.8,34.8h261.6C375.2,407.6,359.6,392,359.6,372.8z"/>
<polygon style="fill:#FF7058;" points="288.4,180.8 276,180.8 276,240.8 181.6,240.8 181.6,180.8 169.6,180.8 228.8,120.4 "/>
<g>
	<rect x="127.6" y="260" style="fill:#E6E9EE;" width="202.4" height="9.6"/>
	<rect x="127.6" y="286.8" style="fill:#E6E9EE;" width="202.4" height="9.6"/>
	<rect x="127.6" y="313.6" style="fill:#E6E9EE;" width="202.4" height="9.6"/>
	<rect x="127.6" y="340.8" style="fill:#E6E9EE;" width="202.4" height="9.6"/>
	<rect x="127.6" y="367.6" style="fill:#E6E9EE;" width="123.2" height="9.6"/>
</g>
<rect x="203.6" y="172.4" style="fill:#F1543F;" width="50.4" height="51.2"/>
<rect x="208.4" y="177.2" style="fill:#FFFFFF;" width="41.2" height="42"/>
<g>
	<rect x="206" y="195.6" style="fill:#F1543F;" width="45.6" height="4.8"/>
	<rect x="226.4" y="175.2" style="fill:#F1543F;" width="4.8" height="45.6"/>
</g>
<g>
</g>
<g>
</g>
<g>
</g>
<g>
</g>
<g>
</g>
<g>
</g>
<g>
</g>
<g>
</g>
<g>
</g>
<g>
</g>
<g>
</g>
<g>
</g>
<g>
</g>
<g>
</g>
<g>
</g>
</svg>
