<?xml version="1.0" encoding="iso-8859-1"?>
<!-- Generator: Adobe Illustrator 19.0.0, SVG Export Plug-In . SVG Version: 6.00 Build 0)  -->
<svg xmlns="http://www.w3.org/2000/svg" xmlns:xlink="http://www.w3.org/1999/xlink" version="1.1" id="Layer_1" x="0px" y="0px" viewBox="0 0 508 508" style="enable-background:new 0 0 508 508;" xml:space="preserve">
<circle style="fill:#324A5E;" cx="254" cy="254" r="254"/>
<circle style="fill:#F1543F;" cx="254" cy="254" r="200"/>
<circle style="fill:#FFFFFF;" cx="254" cy="254" r="171.6"/>
<circle style="fill:#FF7058;" cx="254" cy="254" r="152"/>
<g>
	<path style="fill:#FFFFFF;" d="M243.6,212c0-22.8-18.8-41.6-41.6-41.6s-41.6,18.8-41.6,41.6s18.8,41.6,41.6,41.6   S243.6,234.8,243.6,212z M188,212c0-7.6,6.4-14,14-14s14,6.4,14,14s-6.4,14-14,14S188,219.6,188,212z"/>
	<path style="fill:#FFFFFF;" d="M306,253.6c-22.8,0-41.6,18.8-41.6,41.6c0,22.8,18.8,41.6,41.6,41.6c22.8,0,41.6-18.8,41.6-41.6   S328.8,253.6,306,253.6z M306,309.2c-7.6,0-14-6.4-14-14s6.4-14,14-14s14,6.4,14,14C320,302.8,313.6,309.2,306,309.2z"/>
	<path style="fill:#FFFFFF;" d="M316.8,193.6c4.8-6,3.2-14.8-2.8-19.6s-14.8-3.2-19.6,2.8l-104,138.4c-4.8,6-3.2,14.8,2.8,19.6   c6,4.8,14.8,3.2,19.6-2.8l16.4-22c-0.8,0.8-1.2,2-2,2.8l0,0l8.8-12c-0.8,0.8-1.6,2-2.4,2.8L316.8,193.6z"/>
</g>
<g>
</g>
<g>
</g>
<g>
</g>
<g>
</g>
<g>
</g>
<g>
</g>
<g>
</g>
<g>
</g>
<g>
</g>
<g>
</g>
<g>
</g>
<g>
</g>
<g>
</g>
<g>
</g>
<g>
</g>
</svg>
