<?xml version="1.0" encoding="iso-8859-1"?>
<!-- Generator: Adobe Illustrator 19.0.0, SVG Export Plug-In . SVG Version: 6.00 Build 0)  -->
<svg xmlns="http://www.w3.org/2000/svg" xmlns:xlink="http://www.w3.org/1999/xlink" version="1.1" id="Layer_1" x="0px" y="0px" viewBox="0 0 508 508" style="enable-background:new 0 0 508 508;" xml:space="preserve">
<circle style="fill:#90DFAA;" cx="254" cy="254" r="254"/>
<g>
	<path style="fill:#FFFFFF;" d="M224.8,82.4l-50,40.4v-16h-32.4v42.4l-47.2,38.4h30V322h199.6V187.6h30L224.8,82.4z M200.4,266.8   c-9.2,0-16.4-7.2-16.4-16.4c0-9.2,7.2-16.4,16.4-16.4s16.4,7.2,16.4,16.4C216.8,259.6,209.6,266.8,200.4,266.8z M200.4,220.4   c-9.2,0-16.4-7.2-16.4-16.4s7.2-16.4,16.4-16.4s16.4,7.2,16.4,16.4C216.8,212.8,209.6,220.4,200.4,220.4z M249.6,266.8   c-9.2,0-16.4-7.2-16.4-16.4c0-9.2,7.2-16.4,16.4-16.4c9.2,0,16.4,7.2,16.4,16.4C266,259.6,258.8,266.8,249.6,266.8z M249.6,220.4   c-9.2,0-16.4-7.2-16.4-16.4s7.2-16.4,16.4-16.4c9.2,0,16.4,7.2,16.4,16.4C266,212.8,258.8,220.4,249.6,220.4z"/>
	<path style="fill:#FFFFFF;" d="M357.6,351.2h-83.2c-6.4,0-11.2,4.8-11.6,11.2c0,6.4,4.8,11.6,11.2,12l47.2,0.4l-76.4,30.4   c-16.4,6.4-34.8,5.6-50.4-2.4l-78-39.6c-6-3.2-13.2-1.2-17.2,4.4c-4,6.4-2.4,14.4,4,18.4l100,62.4c12,7.6,26.8,9.6,40.8,5.6   l65.2-18.4c15.6-4.4,31.6-7.2,48-8.4v-76H357.6z"/>
</g>
<rect x="357.6" y="326.8" style="fill:#CED5E0;" width="16" height="120.8"/>
<path style="fill:#324A5E;" d="M373.2,318.8v136.4h35.6c43.6-33.6,76.4-81.2,90.8-136.4H373.2z"/>
<circle style="fill:#2B3B4E;" cx="393.6" cy="433.6" r="10"/>
<g>
</g>
<g>
</g>
<g>
</g>
<g>
</g>
<g>
</g>
<g>
</g>
<g>
</g>
<g>
</g>
<g>
</g>
<g>
</g>
<g>
</g>
<g>
</g>
<g>
</g>
<g>
</g>
<g>
</g>
</svg>
