<?xml version="1.0" encoding="iso-8859-1"?>
<!-- Generator: Adobe Illustrator 19.0.0, SVG Export Plug-In . SVG Version: 6.00 Build 0)  -->
<svg xmlns="http://www.w3.org/2000/svg" xmlns:xlink="http://www.w3.org/1999/xlink" version="1.1" id="Layer_1" x="0px" y="0px" viewBox="0 0 508 508" style="enable-background:new 0 0 508 508;" xml:space="preserve">
<circle style="fill:#FD8469;" cx="254" cy="254" r="254"/>
<path style="fill:#F1543F;" d="M60,417.6c46.4,55.2,116.4,90.4,194,90.4s147.6-35.2,194-90.4H60z"/>
<polygon style="fill:#FFFFFF;" points="390.8,192.4 390.8,417.6 117.2,417.6 117.2,192.4 254,104.8 "/>
<rect x="117.2" y="400.4" style="fill:#E6E9EE;" width="273.6" height="17.6"/>
<polygon style="fill:#FFD05B;" points="420,210.8 254,104.8 254,104.8 254,104.8 254,104.8 254,104.8 88,210.8 88,234 254,128   420,234 "/>
<rect x="146" y="276.8" style="fill:#324A5E;" width="87.6" height="140.8"/>
<rect x="153.6" y="284.8" style="fill:#84DBFF;" width="72.4" height="62.8"/>
<polygon style="fill:#54C0EB;" points="217.6,284.8 173.2,347.2 226,347.2 226,284.8 "/>
<rect x="245.2" y="276.8" style="fill:#324A5E;" width="129.2" height="96.8"/>
<rect x="253.2" y="285.2" style="fill:#84DBFF;" width="113.2" height="80.8"/>
<polygon style="fill:#54C0EB;" points="328,285.2 286.8,366 366.4,366 366.4,285.2 "/>
<circle style="fill:#E6E9EE;" cx="254" cy="200.8" r="26"/>
<g>
</g>
<g>
</g>
<g>
</g>
<g>
</g>
<g>
</g>
<g>
</g>
<g>
</g>
<g>
</g>
<g>
</g>
<g>
</g>
<g>
</g>
<g>
</g>
<g>
</g>
<g>
</g>
<g>
</g>
</svg>
