<?xml version="1.0" encoding="iso-8859-1"?>
<!-- Generator: Adobe Illustrator 19.0.0, SVG Export Plug-In . SVG Version: 6.00 Build 0)  -->
<svg xmlns="http://www.w3.org/2000/svg" xmlns:xlink="http://www.w3.org/1999/xlink" version="1.1" id="Layer_1" x="0px" y="0px" viewBox="0 0 508 508" style="enable-background:new 0 0 508 508;" xml:space="preserve">
<circle style="fill:#54C0EB;" cx="254" cy="254" r="254"/>
<rect x="247.2" y="78" style="fill:#324A5E;" width="13.6" height="270.4"/>
<path style="fill:#84DBFF;" d="M38.8,388.8C83.6,460.4,163.2,508,254,508s170.4-47.6,215.2-119.2H38.8z"/>
<g>
	<rect x="130" y="319.6" style="fill:#E6E9EE;" width="244.4" height="15.2"/>
	<rect x="130" y="388" style="fill:#E6E9EE;" width="244.4" height="15.2"/>
</g>
<g>
	<polygon style="fill:#FFFFFF;" points="126.4,268.4 106,296.4 106,428 126.4,428 146.8,428 146.8,296.4  "/>
	<polygon style="fill:#FFFFFF;" points="190.4,268.4 169.6,296.4 169.6,428 190.4,428 210.8,428 210.8,296.4  "/>
	<polygon style="fill:#FFFFFF;" points="254,268.4 233.6,296.4 233.6,428 254,428 274.4,428 274.4,296.4  "/>
	<polygon style="fill:#FFFFFF;" points="317.6,268.4 297.2,296.4 297.2,428 317.6,428 338.4,428 338.4,296.4  "/>
	<polygon style="fill:#FFFFFF;" points="381.6,268.4 361.2,296.4 361.2,428 381.6,428 402,428 402,296.4  "/>
</g>
<path style="fill:#FFD05B;" d="M316,60.4l-175.2,14c-8,0.8-14.4,7.6-14.4,15.6v57.2c0,8.4,6.4,15.2,14.4,15.6l175.2,14  c3.6,0.4,7.2-0.8,10.4-2.8l60.4-42.8c8.8-6.4,8.8-19.6,0-25.6l-60.4-42.4C323.2,61.2,319.6,60.4,316,60.4z"/>
<g>
</g>
<g>
</g>
<g>
</g>
<g>
</g>
<g>
</g>
<g>
</g>
<g>
</g>
<g>
</g>
<g>
</g>
<g>
</g>
<g>
</g>
<g>
</g>
<g>
</g>
<g>
</g>
<g>
</g>
</svg>
