<?xml version="1.0" encoding="iso-8859-1"?>
<!-- Generator: Adobe Illustrator 19.0.0, SVG Export Plug-In . SVG Version: 6.00 Build 0)  -->
<svg xmlns="http://www.w3.org/2000/svg" xmlns:xlink="http://www.w3.org/1999/xlink" version="1.1" id="Layer_1" x="0px" y="0px" viewBox="0 0 508 508" style="enable-background:new 0 0 508 508;" xml:space="preserve">
<circle style="fill:#FFD05B;" cx="254" cy="254" r="254"/>
<polygon style="fill:#FFFFFF;" points="350,242.8 325.6,353.6 182.4,353.6 158,242.8 254,164.4 "/>
<path style="fill:#FF7058;" d="M372,234l-111.2-91.2c-2-1.6-4.4-2.4-6.8-2.4l0,0l0,0c-2.4,0-4.8,0.8-6.8,2.4L136,234  c-4.8,4-5.2,11.2-0.8,15.2c3.6,3.6,9.6,4,13.6,0.8l0.4-0.4L254,164.4l0,0l0,0L358.8,250l0.4,0.4c4,3.2,10,2.8,13.6-0.8  C377.2,244.8,376.8,238,372,234z"/>
<rect x="221.6" y="262" style="fill:#324A5E;" width="64.8" height="91.6"/>
<rect x="226.8" y="267.2" style="fill:#84DBFF;" width="54.4" height="40.4"/>
<g>
	<path style="fill:#FFFFFF;" d="M312.8,78.4L266,35.6v19.2c-48.8,4.4-80.4,52-68,91.2c6-44,44-56.8,68-47.2v22L312.8,78.4z"/>
	<path style="fill:#FFFFFF;" d="M195.2,429.6l46.8,42.8v-19.2c48.8-4.4,80.4-52,68-91.2c-6,43.6-44,56.4-68,46.8v-22L195.2,429.6z"/>
	<path style="fill:#FFFFFF;" d="M429.6,312.8l42.8-46.8h-19.2c-4.4-48.8-52-80.4-91.2-68c43.6,6,56.4,44,46.8,68h-22L429.6,312.8z"/>
	<path style="fill:#FFFFFF;" d="M78.4,195.2L35.6,242h19.2c4.4,48.8,52,80.4,91.2,68c-44-6-56.8-44-47.2-68h22L78.4,195.2z"/>
</g>
<g>
</g>
<g>
</g>
<g>
</g>
<g>
</g>
<g>
</g>
<g>
</g>
<g>
</g>
<g>
</g>
<g>
</g>
<g>
</g>
<g>
</g>
<g>
</g>
<g>
</g>
<g>
</g>
<g>
</g>
</svg>
