<?xml version="1.0" encoding="iso-8859-1"?>
<!-- Generator: Adobe Illustrator 19.0.0, SVG Export Plug-In . SVG Version: 6.00 Build 0)  -->
<svg xmlns="http://www.w3.org/2000/svg" xmlns:xlink="http://www.w3.org/1999/xlink" version="1.1" id="Layer_1" x="0px" y="0px" viewBox="0 0 508 508" style="enable-background:new 0 0 508 508;" xml:space="preserve">
<circle style="fill:#84DBFF;" cx="254" cy="254" r="254"/>
<path style="fill:#F9B54C;" d="M429.2,184.8v46.4c0,44.8-78.4,80.8-175.2,80.8S78.8,275.6,78.8,231.2v-46.4  c0,44.8,78.4,80.8,175.2,80.8S429.2,229.6,429.2,184.8z"/>
<path style="fill:#FFD05B;" d="M429.2,230.8v46.4c0,44.8-78.4,80.8-175.2,80.8S78.8,322,78.8,277.2v-46.4  c0,44.8,78.4,80.8,175.2,80.8S429.2,275.6,429.2,230.8z"/>
<path style="fill:#F9B54C;" d="M429.2,276.8v46.4c0,44.8-78.4,80.8-175.2,80.8S78.8,367.6,78.8,323.2v-46.4  c0,44.8,78.4,81.2,175.2,81.2S429.2,321.6,429.2,276.8z"/>
<ellipse style="fill:#FFD05B;" cx="254" cy="184.8" rx="175.2" ry="80.8"/>
<ellipse style="fill:#F9B54C;" cx="254" cy="184.8" rx="150.4" ry="69.6"/>
<ellipse style="fill:#FFD05B;" cx="254" cy="184.8" rx="133.2" ry="61.6"/>
<path style="fill:#F9B54C;" d="M244.8,184c0,2.8-2.8,5.2-7.6,7.2s-11.2,3.2-18,3.2c-14,0-24.4-4.8-23.2-10.4  c0.8-5.6,12.4-10,25.2-10c4.8,0,9.2-1.6,9.2-3.6s-3.6-3.6-8.4-3.6c-19.6,0-36.8,5.6-42.4,13.2h-4.8c-5.2,0-9.6,1.6-10,3.6  s3.2,4,8.4,4h4.8c2.8,8.4,19.2,14.8,40.8,14.8c12,0,23.2-2,31.6-5.6s12.8-8.4,12.8-13.2c0-5.6,10.4-10,23.6-10s24.4,4.4,25.2,10  c0.8,5.6-9.6,10.4-23.2,10.4c-5.2,0-9.2,2-9.2,4c0,2.4,4.4,4,10,4c21.6,0,38-6.4,40.8-14.8h4.8c5.2,0,8.8-1.6,8.4-4  c-0.4-2-4.8-3.6-10-3.6h-4.8c-5.6-7.6-23.2-13.2-42.4-13.2C263.6,166.8,245.2,174.4,244.8,184z"/>
<g>
</g>
<g>
</g>
<g>
</g>
<g>
</g>
<g>
</g>
<g>
</g>
<g>
</g>
<g>
</g>
<g>
</g>
<g>
</g>
<g>
</g>
<g>
</g>
<g>
</g>
<g>
</g>
<g>
</g>
</svg>
