<?xml version="1.0" encoding="iso-8859-1"?>
<!-- Generator: Adobe Illustrator 19.0.0, SVG Export Plug-In . SVG Version: 6.00 Build 0)  -->
<svg xmlns="http://www.w3.org/2000/svg" xmlns:xlink="http://www.w3.org/1999/xlink" version="1.1" id="Layer_1" x="0px" y="0px" viewBox="0 0 508 508" style="enable-background:new 0 0 508 508;" xml:space="preserve">
<circle style="fill:#324A5E;" cx="254" cy="254" r="254"/>
<path style="fill:#2B3B4E;" d="M46.4,400.4C92.4,465.6,168,508,254,508c85.6,0,161.6-42.4,207.6-107.6H46.4z"/>
<polygon style="fill:#FFD05B;" points="254,77.6 102,150.8 102,400.4 254,400.4 406,400.4 406,150.8 "/>
<path style="fill:#F9B54C;" d="M102,173.6l152-73.2l152,73.2v-22L258.4,80.4c-2.8-1.2-6-1.2-8.4,0l-148,71.2V173.6z"/>
<rect x="130.4" y="213.6" style="fill:#FF7058;" width="99.6" height="186.8"/>
<g>
	<rect x="62.4" y="343.6" style="fill:#E6E9EE;" width="383.2" height="6.8"/>
	<rect x="62.4" y="385.6" style="fill:#E6E9EE;" width="383.2" height="6.8"/>
</g>
<g>
	<polygon style="fill:#FFFFFF;" points="80.8,320 70,332.4 70,400.4 80.8,400.4 92,400.4 92,332.4  "/>
	<polygon style="fill:#FFFFFF;" points="119.2,320 108.4,332.4 108.4,400.4 119.2,400.4 130.4,400.4 130.4,332.4  "/>
	<polygon style="fill:#FFFFFF;" points="158,320 146.8,332.4 146.8,400.4 158,400.4 168.8,400.4 168.8,332.4  "/>
	<polygon style="fill:#FFFFFF;" points="196.4,320 185.2,332.4 185.2,400.4 196.4,400.4 207.2,400.4 207.2,332.4  "/>
	<polygon style="fill:#FFFFFF;" points="234.8,320 224,332.4 224,400.4 234.8,400.4 245.6,400.4 245.6,332.4  "/>
	<polygon style="fill:#FFFFFF;" points="273.2,320 262.4,332.4 262.4,400.4 273.2,400.4 284,400.4 284,332.4  "/>
	<polygon style="fill:#FFFFFF;" points="311.6,320 300.8,332.4 300.8,400.4 311.6,400.4 322.8,400.4 322.8,332.4  "/>
	<polygon style="fill:#FFFFFF;" points="350,320 339.2,332.4 339.2,400.4 350,400.4 361.2,400.4 361.2,332.4  "/>
	<polygon style="fill:#FFFFFF;" points="388.8,320 377.6,332.4 377.6,400.4 388.8,400.4 399.6,400.4 399.6,332.4  "/>
	<polygon style="fill:#FFFFFF;" points="427.2,320 416,332.4 416,400.4 427.2,400.4 438,400.4 438,332.4  "/>
</g>
<path style="fill:#FF7058;" d="M438,154.8l-179.6-86c-2.8-1.2-6-1.2-8.4,0l-180,86c-4.8,2.4-7.2,8.4-4.8,13.2  c2.4,4.8,8.4,7.2,13.2,4.8L254,88.4l175.2,84.4c8.4,3.6,11.6-1.2,13.2-4.8C444.8,163.2,442.8,157.2,438,154.8z"/>
<g>
	<rect x="138.8" y="222.8" style="fill:#FFFFFF;" width="82.4" height="64"/>
	<rect x="244" y="213.6" style="fill:#FFFFFF;" width="150.4" height="95.6"/>
</g>
<rect x="250.4" y="219.2" style="fill:#84DBFF;" width="138.4" height="83.2"/>
<polygon style="fill:#54C0EB;" points="357.6,219.2 306.4,302.4 388.8,302.4 388.8,219.2 "/>
<g>
</g>
<g>
</g>
<g>
</g>
<g>
</g>
<g>
</g>
<g>
</g>
<g>
</g>
<g>
</g>
<g>
</g>
<g>
</g>
<g>
</g>
<g>
</g>
<g>
</g>
<g>
</g>
<g>
</g>
</svg>
