<?xml version="1.0" encoding="iso-8859-1"?>
<!-- Generator: Adobe Illustrator 19.0.0, SVG Export Plug-In . SVG Version: 6.00 Build 0)  -->
<svg xmlns="http://www.w3.org/2000/svg" xmlns:xlink="http://www.w3.org/1999/xlink" version="1.1" id="Layer_1" x="0px" y="0px" viewBox="0 0 508 508" style="enable-background:new 0 0 508 508;" xml:space="preserve">
<circle style="fill:#90DFAA;" cx="254" cy="254" r="254"/>
<rect x="117.2" y="116.4" style="fill:#FF7058;" width="35.6" height="261.2"/>
<rect x="117.2" y="377.6" style="fill:#324A5E;" width="35.6" height="18"/>
<path style="fill:#2B3B4E;" d="M149.2,434.4h-28.8c-2,0-3.2-1.6-3.2-3.2V396h35.6v35.2C152.8,432.8,151.2,434.4,149.2,434.4z"/>
<polygon style="fill:#FFFFFF;" points="152.8,116.4 134.8,72 117.2,116.4 "/>
<polygon style="fill:#324A5E;" points="140.8,87.2 128.8,87.2 134.8,72 "/>
<path style="fill:#FFFFFF;" d="M215.2,436L215.2,436c-19.6,0-35.6-16-35.6-35.6V72h71.2v328.4C250.8,420,234.8,436,215.2,436z"/>
<g>
	<rect x="212.4" y="92.4" style="fill:#E6E9EE;" width="38.4" height="5.6"/>
	<rect x="224" y="105.6" style="fill:#E6E9EE;" width="26.8" height="5.6"/>
	<rect x="224" y="118.8" style="fill:#E6E9EE;" width="26.8" height="5.6"/>
	<rect x="224" y="132" style="fill:#E6E9EE;" width="26.8" height="5.6"/>
	<rect x="212.4" y="145.2" style="fill:#E6E9EE;" width="38.4" height="5.6"/>
	<rect x="224" y="158.4" style="fill:#E6E9EE;" width="26.8" height="5.6"/>
	<rect x="224" y="171.6" style="fill:#E6E9EE;" width="26.8" height="5.6"/>
	<rect x="224" y="184.8" style="fill:#E6E9EE;" width="26.8" height="5.6"/>
	<rect x="212.4" y="198" style="fill:#E6E9EE;" width="38.4" height="5.6"/>
	<rect x="224" y="211.2" style="fill:#E6E9EE;" width="26.8" height="5.6"/>
	<rect x="224" y="224.4" style="fill:#E6E9EE;" width="26.8" height="5.6"/>
	<rect x="224" y="237.6" style="fill:#E6E9EE;" width="26.8" height="5.6"/>
	<rect x="212.4" y="250.8" style="fill:#E6E9EE;" width="38.4" height="5.6"/>
	<rect x="224" y="264" style="fill:#E6E9EE;" width="26.8" height="5.6"/>
	<rect x="224" y="277.2" style="fill:#E6E9EE;" width="26.8" height="5.6"/>
	<rect x="224" y="290.4" style="fill:#E6E9EE;" width="26.8" height="5.6"/>
	<rect x="212.4" y="303.6" style="fill:#E6E9EE;" width="38.4" height="5.6"/>
	<rect x="212.4" y="356.4" style="fill:#E6E9EE;" width="38.4" height="5.6"/>
	<rect x="224" y="316.8" style="fill:#E6E9EE;" width="26.8" height="5.6"/>
	<rect x="224" y="330" style="fill:#E6E9EE;" width="26.8" height="5.6"/>
	<rect x="224" y="343.2" style="fill:#E6E9EE;" width="26.8" height="5.6"/>
</g>
<circle style="fill:#90DFAA;" cx="215.2" cy="401.2" r="12.4"/>
<g>
	<polygon style="fill:#FFFFFF;" points="417.6,411.2 422.4,436 425.2,411.2  "/>
	<polygon style="fill:#FFFFFF;" points="273.2,411.2 268.4,436 265.2,411.2  "/>
</g>
<g>
	<path style="fill:#324A5E;" d="M426.4,412.8H416l-61.2-187.2c9.2-2,17.6-7.2,23.6-14L426.4,412.8z"/>
	<path style="fill:#324A5E;" d="M335.6,225.6L274,412.8h-10.4L312,211.6C318.4,218.4,326.4,223.6,335.6,225.6z"/>
	<rect x="338.4" y="116" style="fill:#324A5E;" width="13.6" height="26.8"/>
</g>
<circle style="fill:#FFFFFF;" cx="345.2" cy="182.8" r="43.6"/>
<circle style="fill:#E6E9EE;" cx="345.2" cy="182.8" r="18"/>
<path style="fill:#FFFFFF;" d="M355.6,117.6h-20.4c-1.2,0-2.4-1.2-2.4-2.4V74.4c0-1.2,1.2-2.4,2.4-2.4h20.4c1.2,0,2.4,1.2,2.4,2.4  v40.8C357.6,116.4,356.8,117.6,355.6,117.6z"/>
<g>
</g>
<g>
</g>
<g>
</g>
<g>
</g>
<g>
</g>
<g>
</g>
<g>
</g>
<g>
</g>
<g>
</g>
<g>
</g>
<g>
</g>
<g>
</g>
<g>
</g>
<g>
</g>
<g>
</g>
</svg>
