<?xml version="1.0" encoding="iso-8859-1"?>
<!-- Generator: Adobe Illustrator 19.0.0, SVG Export Plug-In . SVG Version: 6.00 Build 0)  -->
<svg xmlns="http://www.w3.org/2000/svg" xmlns:xlink="http://www.w3.org/1999/xlink" version="1.1" id="Layer_1" x="0px" y="0px" viewBox="0 0 508 508" style="enable-background:new 0 0 508 508;" xml:space="preserve">
<circle style="fill:#FFD05B;" cx="254" cy="254" r="254"/>
<g>
	<path style="fill:#FFFFFF;" d="M387.6,420.8H120.4c-6,0-11.2-4.8-11.2-11.2V98.4c0-6,4.8-11.2,11.2-11.2h267.2   c6,0,11.2,4.8,11.2,11.2v311.2C398.8,415.6,393.6,420.8,387.6,420.8z"/>
	<rect x="129.2" y="107.2" style="fill:#FFFFFF;" width="249.6" height="293.6"/>
</g>
<path style="fill:#E6E9EE;" d="M378.8,402.8H129.2c-1.2,0-2-0.8-2-2V107.2c0-1.2,0.8-2,2-2h249.6c1.2,0,2,0.8,2,2v293.6  C380.8,402,380,402.8,378.8,402.8z M131.2,398.8h245.6V109.2H131.2V398.8z"/>
<rect x="129.2" y="147.2" style="fill:#E6E9EE;" width="249.6" height="4"/>
<rect x="129.2" y="189.2" style="fill:#E6E9EE;" width="249.6" height="4"/>
<rect x="129.2" y="231.2" style="fill:#E6E9EE;" width="249.6" height="4"/>
<rect x="129.2" y="272.8" style="fill:#E6E9EE;" width="249.6" height="4"/>
<rect x="129.2" y="314.8" style="fill:#E6E9EE;" width="249.6" height="4"/>
<rect x="129.2" y="356.8" style="fill:#E6E9EE;" width="249.6" height="4"/>
<rect x="335.2" y="107.2" style="fill:#E6E9EE;" width="4" height="293.6"/>
<rect x="293.6" y="107.2" style="fill:#E6E9EE;" width="4" height="293.6"/>
<rect x="252" y="107.2" style="fill:#E6E9EE;" width="4" height="293.6"/>
<rect x="210.4" y="107.2" style="fill:#E6E9EE;" width="4" height="293.6"/>
<rect x="168.8" y="107.2" style="fill:#E6E9EE;" width="4" height="293.6"/>
<path style="fill:#324A5E;" d="M320,360.8h-44.4c-1.2,0-2-0.8-2-2v-56h-39.2v56c0,1.2-0.8,2-2,2H188c-1.2,0-2-0.8-2-2v-82h-15.2  c-0.8,0-1.6-0.4-2-1.2c-0.4-0.8,0-1.6,0.4-2l83.2-84.4c0.8-0.8,2-0.8,2.8,0l83.2,84.4c0.4,0.4,0.8,1.6,0.4,2c-0.4,0.8-1.2,1.2-2,1.2  H322v82C322,360,321.2,360.8,320,360.8z M277.6,356.8H318v-82c0-1.2,0.8-2,2-2h12.4L254,193.2l-78.4,79.6H188c1.2,0,2,0.8,2,2v82  h40.4v-56c0-1.2,0.8-2,2-2h43.2c1.2,0,2,0.8,2,2V356.8z"/>
<g>
	<path style="fill:#FF7058;" d="M338.8,147.6l-10.4-10.4c-0.8-0.8-2-0.8-2.8,0s-0.8,2,0,2.8l6.8,6.8H175.6l6.8-6.8   c0.8-0.8,0.8-2,0-2.8s-2-0.8-2.8,0l-10.4,10.4c-0.4,0.4-0.4,0.8-0.4,1.6c0,0.4,0.4,1.2,0.4,1.6l10.4,10.4c0.4,0.4,0.8,0.4,1.6,0.4   c0.4,0,1.2,0,1.6-0.4c0.8-0.8,0.8-2,0-2.8l-6.8-6.8h156.8l-7.2,6.4c-0.8,0.8-0.8,2,0,2.8c0.4,0.4,0.8,0.4,1.6,0.4   c0.4,0,1.2,0,1.6-0.4l10.4-10.4c0.4-0.4,0.4-0.8,0.4-1.6C339.2,148.4,339.2,148,338.8,147.6z"/>
	<path style="fill:#FF7058;" d="M387.6,345.6l-6.8,6.8V196l6.8,6.8c0.4,0.4,0.8,0.4,1.6,0.4c0.4,0,1.2,0,1.6-0.4   c0.8-0.8,0.8-2,0-2.8l-10.4-10.4c-0.8-0.8-2-0.8-2.8,0L367.2,200c-0.8,0.8-0.8,2,0,2.8s2,0.8,2.8,0l6.8-6.8v156.8l-6.8-7.2   c-0.8-0.8-2-0.8-2.8,0s-0.8,2,0,2.8l10.4,10.4c0.4,0.4,0.8,0.4,1.6,0.4c0.4,0,1.2,0,1.6-0.4l10.4-10.4c0.8-0.8,0.8-2,0-2.8   S388.4,345.2,387.6,345.6z"/>
</g>
<g>
</g>
<g>
</g>
<g>
</g>
<g>
</g>
<g>
</g>
<g>
</g>
<g>
</g>
<g>
</g>
<g>
</g>
<g>
</g>
<g>
</g>
<g>
</g>
<g>
</g>
<g>
</g>
<g>
</g>
</svg>
