<?xml version="1.0" encoding="iso-8859-1"?>
<!-- Generator: Adobe Illustrator 19.0.0, SVG Export Plug-In . SVG Version: 6.00 Build 0)  -->
<svg xmlns="http://www.w3.org/2000/svg" xmlns:xlink="http://www.w3.org/1999/xlink" version="1.1" id="Layer_1" x="0px" y="0px" viewBox="0 0 508 508" style="enable-background:new 0 0 508 508;" xml:space="preserve">
<circle style="fill:#FD8469;" cx="254" cy="254" r="254"/>
<g>
	<polygon style="fill:#FFFFFF;" points="294,92.4 124.8,92.4 124.8,150.8 294,150.8 333.6,121.6  "/>
	<polygon style="fill:#FFFFFF;" points="314.4,158.4 124.8,158.4 124.8,217.2 314.4,217.2 354,187.6  "/>
	<polygon style="fill:#FFFFFF;" points="334.8,224.8 124.8,224.8 124.8,283.2 334.8,283.2 374.4,254  "/>
	<polygon style="fill:#FFFFFF;" points="355.2,290.8 124.8,290.8 124.8,349.6 355.2,349.6 394.4,320.4  "/>
	<polygon style="fill:#FFFFFF;" points="375.6,357.2 124.8,357.2 124.8,415.6 375.6,415.6 414.8,386.4  "/>
</g>
<path style="fill:#4CDBC4;" d="M172.4,136.4c0.8,2.8-1.2,4.4-2.8,4.4c-1.2,0-2.4-0.8-2.8-2l-2.4-6h-14.8l-2.4,6  c-0.4,1.2-1.6,2-2.8,2c-2,0-4-1.6-2.8-4.4l12.8-32c0.4-1.2,1.6-2,3.2-2c1.2,0,2.4,0.8,2.8,2L172.4,136.4z M161.2,126.4l-4.8-12  l-4.8,12H161.2z"/>
<g>
	<path style="fill:#54C0EB;" d="M171.2,266.4c0.8,1.6,0.4,3.6-1.2,4.4c-2.8,1.6-6,2.4-9.2,2.4c-10.4,0-19.2-8.4-19.2-19.2   c0-10.4,8.4-19.2,19.2-19.2c3.2,0,6.4,0.8,9.2,2.4c1.6,0.8,2,2.8,1.2,4.4c-0.8,1.6-2.8,2-4.4,1.2c-2-1.2-4-1.6-6-1.6   c-6.8,0-12.8,5.6-12.8,12.8c0,7.2,5.6,12.8,12.8,12.8c2,0,4.4-0.4,6-1.6C168.4,264.4,170.4,264.8,171.2,266.4z"/>
	<path style="fill:#54C0EB;" d="M168.4,402.4c0,1.6-1.6,3.2-3.2,3.2h-17.6c-2,0-3.2-1.6-3.2-3.2v-32c0-1.6,1.6-3.2,3.2-3.2h17.6   c2,0,3.2,1.6,3.2,3.2c0,2-1.6,3.2-3.2,3.2h-14.4v9.6H162c1.6,0,3.2,1.6,3.2,3.2s-1.6,3.2-3.2,3.2h-11.2v9.6h14.4   C167.2,399.2,168.4,400.8,168.4,402.4z"/>
</g>
<path style="fill:#FFD05B;" d="M164.4,185.2c1.2-1.6,1.6-3.6,1.6-6c0-4.4-2-7.2-5.2-9.2c-2.4-1.2-4.8-1.2-4.8-1.2h-8.8  c-1.6,0-3.2,1.6-3.2,3.2v32c0,1.6,1.6,3.2,3.2,3.2H158c5.2,0,11.2-4.8,11.2-12C169.2,190.4,167.6,187.2,164.4,185.2z M150,175.2h5.6  c2,0,4,1.6,4,4c0,2-1.6,4-4,4H150V175.2z M157.2,200.4H150v-11.2h7.2c3.2,0,5.6,2.4,5.6,5.6C162.8,198,160.4,200.4,157.2,200.4z"/>
<path style="fill:#324A5E;" d="M154.8,301.2h-9.2c-1.6,0-3.2,1.2-3.2,3.2v32c0,1.6,1.6,3.2,3.2,3.2h9.2c0.4,0,16,0,16-19.2  S155.2,301.2,154.8,301.2z M164.4,324c0,4.8-4,8.8-8.8,8.8h-6.8v-25.6h6.8c4.8,0,8.8,4,8.8,8.8V324z"/>
<g>
</g>
<g>
</g>
<g>
</g>
<g>
</g>
<g>
</g>
<g>
</g>
<g>
</g>
<g>
</g>
<g>
</g>
<g>
</g>
<g>
</g>
<g>
</g>
<g>
</g>
<g>
</g>
<g>
</g>
</svg>
