<?xml version="1.0" encoding="iso-8859-1"?>
<!-- Generator: Adobe Illustrator 19.0.0, SVG Export Plug-In . SVG Version: 6.00 Build 0)  -->
<svg xmlns="http://www.w3.org/2000/svg" xmlns:xlink="http://www.w3.org/1999/xlink" version="1.1" id="Layer_1" x="0px" y="0px" viewBox="0 0 508 508" style="enable-background:new 0 0 508 508;" xml:space="preserve">
<circle style="fill:#84DBFF;" cx="254" cy="254" r="254"/>
<path style="fill:#324A5E;" d="M239.6,507.6c4.8,0.4,9.6,0.4,14.4,0.4s9.6,0,14.4-0.4V115.2h-28.8L239.6,507.6L239.6,507.6z"/>
<path style="fill:#FFFFFF;" d="M428.4,375.2H79.6c-10,0-18-8-18-18v-190c0-10,8-18,18-18H428c10,0,18,8,18,18v190.4  C446.4,367.2,438,375.2,428.4,375.2z"/>
<g>
	<path style="fill:#FF7058;" d="M236.8,296.8c0,3.6-3.2,6.8-6.8,6.8h-38c-4,0-6.8-3.2-6.8-6.8v-69.2c0-3.6,3.2-6.8,6.8-6.8h38   c4,0,6.8,3.2,6.8,6.8c0,4-3.2,6.8-6.8,6.8h-31.2v20.8h24c3.6,0,6.8,3.2,6.8,6.8c0,3.6-3.2,6.8-6.8,6.8h-24V290H230   C233.6,290,236.8,292.8,236.8,296.8z"/>
	<path style="fill:#FF7058;" d="M307.6,300.8L272,249.6v47.2c0,3.6-3.2,6.8-6.8,6.8c-3.6,0-6.8-3.2-6.8-6.8v-69.2   c0-3.6,2.8-6.8,6.8-6.8c2,0,4.4,1.2,5.6,2.8l35.6,51.2v-47.2c0-3.6,3.2-6.8,6.8-6.8c3.6,0,6.8,3.2,6.8,6.8v69.2   c0,3.6-3.2,6.8-6.8,6.8C311.2,303.6,308.8,302.8,307.6,300.8z"/>
	<path style="fill:#FF7058;" d="M390,220.8c3.6,0,6.8,3.2,6.8,6.8c0,4-3.2,6.8-6.8,6.8h-13.6v62c0,3.6-3.2,6.8-6.8,6.8   c-3.6,0-6.8-3.2-6.8-6.8v-61.6h-14c-3.6,0-6.8-3.2-6.8-6.8s3.2-6.8,6.8-6.8H390V220.8z"/>
	<path style="fill:#FF7058;" d="M167.6,248.4V248c0-6.8-2.4-13.2-6.8-18.4l0,0c-5.2-6.4-13.2-10.4-22-10.4h-20.4   c-4,0-7.2,3.2-7.2,7.2V298c0,4,3.2,7.2,7.2,7.2s7.2-3.2,7.2-7.2v-20.8H138l15.6,24.8c3.2,5.2,8.8,2.8,10,2.4   c2.4-1.2,5.2-4.8,2.4-10l-12.8-20.8C161.2,268.4,167.6,259.2,167.6,248.4z M138,262h-12.8v-28.8H138c8,0,14.4,6.4,14.4,14.4   C152.4,255.6,146,262,138,262z"/>
</g>
<g>
</g>
<g>
</g>
<g>
</g>
<g>
</g>
<g>
</g>
<g>
</g>
<g>
</g>
<g>
</g>
<g>
</g>
<g>
</g>
<g>
</g>
<g>
</g>
<g>
</g>
<g>
</g>
<g>
</g>
</svg>
