<?xml version="1.0" encoding="iso-8859-1"?>
<!-- Generator: Adobe Illustrator 19.0.0, SVG Export Plug-In . SVG Version: 6.00 Build 0)  -->
<svg xmlns="http://www.w3.org/2000/svg" xmlns:xlink="http://www.w3.org/1999/xlink" version="1.1" id="Layer_1" x="0px" y="0px" viewBox="0 0 508 508" style="enable-background:new 0 0 508 508;" xml:space="preserve">
<circle style="fill:#FD8469;" cx="254" cy="254" r="254"/>
<path style="fill:#324A5E;" d="M239.6,507.6c4.8,0.4,9.6,0.4,14.4,0.4s9.6,0,14.4-0.4V115.2h-28.8L239.6,507.6L239.6,507.6z"/>
<path style="fill:#FFFFFF;" d="M428.4,375.2H79.6c-10,0-18-8-18-18v-190c0-10,8-18,18-18H428c10,0,18,8,18,18v190.4  C446.4,367.2,438,375.2,428.4,375.2z"/>
<g>
	<path style="fill:#54C0EB;" d="M281.2,303.6c-4,0-6.8-3.2-6.8-6.8v-69.2c0-3.6,3.2-6.8,6.8-6.8c3.6,0,6.8,3.2,6.8,6.8V290h24   c3.6,0,6.8,3.2,6.8,6.8c0,3.6-3.2,6.8-6.8,6.8L281.2,303.6L281.2,303.6z"/>
	<path style="fill:#54C0EB;" d="M392,296.8c0,3.6-3.2,6.8-6.8,6.8h-38c-4,0-6.8-3.2-6.8-6.8v-69.2c0-3.6,3.2-6.8,6.8-6.8h38   c4,0,6.8,3.2,6.8,6.8c0,4-3.2,6.8-6.8,6.8H354v20.8h24c3.6,0,6.8,3.2,6.8,6.8c0,3.6-3.2,6.8-6.8,6.8h-24V290h30.8   C389.2,290,392,292.8,392,296.8z"/>
	<path style="fill:#54C0EB;" d="M140,255.2L140,255.2c-5.6,0-10.4-4.8-10.4-10.4s4.8-10.4,10.4-10.4c2.8,0,5.6,1.2,7.6,3.2   c2.8,2.8,6.8,2.8,9.6,0.4c2.8-2.8,2.8-6.8,0.4-9.6c-4.4-4.8-10.8-7.6-17.6-7.6c-13.2,0-24,10.8-24,24s10.8,24,24,24   c5.6,0,10.4,4.8,10.4,10.4s-4.8,10.4-10.4,10.4c-2.8,0-5.6-1.2-7.6-3.2c-2.8-2.8-6.8-2.8-9.6-0.4c-2.8,2.8-2.8,6.8-0.4,9.6   c4.4,4.8,10.8,7.6,17.6,7.6c13.2,0,24-10.8,24-24C164,266,153.2,255.2,140,255.2z"/>
	<path style="fill:#54C0EB;" d="M224.8,225.2c-1.2-2.8-3.6-4.4-6.4-4.4c-2.8,0-5.6,1.6-6.4,4.4L185.2,294c-1.2,3.6,0.4,7.6,4,9.2   c0.8,0.4,6.4,2,9.2-4l6.4-16.4H232l6.4,16.4c1.2,3.6,5.6,5.6,9.2,4c3.6-1.2,5.2-5.6,4-9.2L224.8,225.2z M210,269.2l8.4-21.6   l8.4,21.6H210z"/>
</g>
<g>
</g>
<g>
</g>
<g>
</g>
<g>
</g>
<g>
</g>
<g>
</g>
<g>
</g>
<g>
</g>
<g>
</g>
<g>
</g>
<g>
</g>
<g>
</g>
<g>
</g>
<g>
</g>
<g>
</g>
</svg>
