<?xml version="1.0" encoding="iso-8859-1"?>
<!-- Generator: Adobe Illustrator 19.0.0, SVG Export Plug-In . SVG Version: 6.00 Build 0)  -->
<svg xmlns="http://www.w3.org/2000/svg" xmlns:xlink="http://www.w3.org/1999/xlink" version="1.1" id="Layer_1" x="0px" y="0px" viewBox="0 0 508 508" style="enable-background:new 0 0 508 508;" xml:space="preserve">
<circle style="fill:#90DFAA;" cx="254" cy="254" r="254"/>
<path style="fill:#FFFFFF;" d="M379.6,83.2H128.4c-9.6,0-17.2,7.6-17.2,17.2v306.8c0,9.6,7.6,17.2,17.2,17.2H380  c9.6,0,17.2-7.6,17.2-17.2V100.8C396.8,91.2,389.2,83.2,379.6,83.2z"/>
<g>
	<rect x="141.6" y="262" style="fill:#E6E9EE;" width="225.2" height="10.4"/>
	<rect x="141.6" y="286.4" style="fill:#E6E9EE;" width="225.2" height="10.4"/>
	<rect x="141.6" y="311.2" style="fill:#E6E9EE;" width="225.2" height="10.4"/>
	<rect x="141.6" y="336" style="fill:#E6E9EE;" width="225.2" height="10.4"/>
	<rect x="141.6" y="360.8" style="fill:#E6E9EE;" width="225.2" height="10.4"/>
	<rect x="141.6" y="385.6" style="fill:#E6E9EE;" width="127.2" height="10.4"/>
</g>
<polygon style="fill:#FF7058;" points="315.2,176.4 301.2,176.4 301.2,236.4 269.6,236.4 269.6,194.8 238.4,194.8 238.4,236.4   206.8,236.4 206.8,176.4 192.8,176.4 254,116.4 "/>
<g>
</g>
<g>
</g>
<g>
</g>
<g>
</g>
<g>
</g>
<g>
</g>
<g>
</g>
<g>
</g>
<g>
</g>
<g>
</g>
<g>
</g>
<g>
</g>
<g>
</g>
<g>
</g>
<g>
</g>
</svg>
