<?xml version="1.0" encoding="iso-8859-1"?>
<!-- Generator: Adobe Illustrator 19.0.0, SVG Export Plug-In . SVG Version: 6.00 Build 0)  -->
<svg xmlns="http://www.w3.org/2000/svg" xmlns:xlink="http://www.w3.org/1999/xlink" version="1.1" id="Layer_1" x="0px" y="0px" viewBox="0 0 508 508" style="enable-background:new 0 0 508 508;" xml:space="preserve">
<circle style="fill:#324A5E;" cx="254" cy="254" r="254"/>
<polygon style="fill:#FFFFFF;" points="407.6,221.6 368.4,399.2 139.6,399.2 100.4,221.6 254,96.4 "/>
<path style="fill:#4CDBC4;" d="M442.8,207.6l-178-146C262,59.2,258,58,254,58l0,0l0,0c-4,0-7.6,1.2-10.8,3.6l-178,146  c-7.6,6.4-8,17.6-1.2,24.8c6,6,15.2,6.4,22,1.6l0.4-0.4L254,96.4l0,0l0,0l167.6,136.8l0.4,0.4c6.8,5.2,16,4.4,22-1.6  C451.2,225.2,450.4,213.6,442.8,207.6z"/>
<path style="fill:#FF7058;" d="M290.8,208.8c-15.2,0-28.4,7.2-36.8,18.4c-8.4-11.2-21.6-18.4-36.8-18.4c-25.2,0-45.6,20.4-45.6,45.6  c0,80,82.4,120.4,82.4,120.4s82.4-40.4,82.4-120.4C336.4,229.2,316,208.8,290.8,208.8z"/>
<g>
</g>
<g>
</g>
<g>
</g>
<g>
</g>
<g>
</g>
<g>
</g>
<g>
</g>
<g>
</g>
<g>
</g>
<g>
</g>
<g>
</g>
<g>
</g>
<g>
</g>
<g>
</g>
<g>
</g>
</svg>
