<?xml version="1.0" encoding="iso-8859-1"?>
<!-- Generator: Adobe Illustrator 19.0.0, SVG Export Plug-In . SVG Version: 6.00 Build 0)  -->
<svg xmlns="http://www.w3.org/2000/svg" xmlns:xlink="http://www.w3.org/1999/xlink" version="1.1" id="Layer_1" x="0px" y="0px" viewBox="0 0 508 508" style="enable-background:new 0 0 508 508;" xml:space="preserve">
<circle style="fill:#54C0EB;" cx="254" cy="254" r="254"/>
<path style="fill:#84DBFF;" d="M33.2,379.2C76.8,456,159.6,508,254,508s177.2-52,220.8-128.8H33.2z"/>
<path style="fill:#FF7058;" d="M328,165.6H80.8c-9.6,0-17.2,7.6-17.2,17.2v134.8c0,9.6,7.6,17.2,17.2,17.2H328  c9.6,0,17.2-7.6,17.2-17.2V182.8C345.2,173.2,337.6,165.6,328,165.6z"/>
<path style="fill:#FFD05B;" d="M447.6,275.2l-30.4-46c-2.8-4.4-7.6-6.8-12.8-6.8h-46v112.4h92v-51.2  C450,280.4,449.2,277.6,447.6,275.2z"/>
<polygon style="fill:#FFFFFF;" points="439.6,275.2 409.2,229.2 364.8,229.2 364.8,275.2 "/>
<polygon style="fill:#E6E9EE;" points="397.6,275.2 439.6,275.2 409.2,229.2 "/>
<rect x="364.8" y="280.4" style="fill:#324A5E;" width="19.2" height="4"/>
<path style="fill:#2B3B4E;" d="M452.4,334.8H75.2c-1.2,0-2,0.8-2,2v16.4c0,1.2,0.8,2,2,2h377.2c1.2,0,2-0.8,2-2v-16.4  C454,335.6,453.2,334.8,452.4,334.8z"/>
<circle style="fill:#324A5E;" cx="404" cy="351.6" r="27.2"/>
<circle style="fill:#E6E9EE;" cx="404" cy="351.6" r="15.6"/>
<circle style="fill:#324A5E;" cx="114.8" cy="351.6" r="27.2"/>
<circle style="fill:#E6E9EE;" cx="114.8" cy="351.6" r="15.6"/>
<circle style="fill:#324A5E;" cx="168.8" cy="351.6" r="27.2"/>
<circle style="fill:#E6E9EE;" cx="168.8" cy="351.6" r="15.6"/>
<g>
</g>
<g>
</g>
<g>
</g>
<g>
</g>
<g>
</g>
<g>
</g>
<g>
</g>
<g>
</g>
<g>
</g>
<g>
</g>
<g>
</g>
<g>
</g>
<g>
</g>
<g>
</g>
<g>
</g>
</svg>
