<?xml version="1.0" encoding="iso-8859-1"?>
<!-- Generator: Adobe Illustrator 19.0.0, SVG Export Plug-In . SVG Version: 6.00 Build 0)  -->
<svg xmlns="http://www.w3.org/2000/svg" xmlns:xlink="http://www.w3.org/1999/xlink" version="1.1" id="Layer_1" x="0px" y="0px" viewBox="0 0 508 508" style="enable-background:new 0 0 508 508;" xml:space="preserve">
<circle style="fill:#324A5E;" cx="254" cy="254" r="254"/>
<g>
	<path style="fill:#FF7058;" d="M415.6,264.4l-22.4,7.6v-77.6l22.4,7.6c4.8,1.6,8,6.4,8,11.6v39.2   C423.6,258,420.4,262.8,415.6,264.4z"/>
	<path style="fill:#FF7058;" d="M171.6,314.8l42.8,26c7.6,4.8,8.8,15.6,1.6,21.2l-21.6,18.8L171.6,314.8z"/>
</g>
<g>
	<path style="fill:#FFFFFF;" d="M212,390.4l-46.8-114h-42.4l22.4,120.4c1.2,5.6,6,9.6,11.6,9.6h44.8   C209.6,406.4,215.2,398,212,390.4z"/>
	<path style="fill:#FFFFFF;" d="M112.8,276.4h-20c-4.8,0-8.8-4-8.8-8.8v-68.8c0-4.8,4-8.8,8.8-8.8h20V276.4z"/>
	<path style="fill:#FFFFFF;" d="M168,184.4V282c120.8-7.6,178,48.4,212.8,71.2v-240C346,136,288.8,192,168,184.4z"/>
</g>
<g>
	<path style="fill:#54C0EB;" d="M389.6,364.8L389.6,364.8c-11.2,0-20-8.8-20-20V121.6c0-11.2,8.8-20,20-20l0,0c11.2,0,20,8.8,20,20   v223.2C409.6,356,400.8,364.8,389.6,364.8z"/>
	<path style="fill:#54C0EB;" d="M186.8,291.2H118c-7.6,0-14-6.4-14-14v-88c0-7.6,6.4-14,14-14h68.8c7.6,0,14,6.4,14,14v88   C200.8,284.8,194.4,291.2,186.8,291.2z"/>
</g>
<g>
</g>
<g>
</g>
<g>
</g>
<g>
</g>
<g>
</g>
<g>
</g>
<g>
</g>
<g>
</g>
<g>
</g>
<g>
</g>
<g>
</g>
<g>
</g>
<g>
</g>
<g>
</g>
<g>
</g>
</svg>
