<?xml version="1.0" encoding="iso-8859-1"?>
<!-- Generator: Adobe Illustrator 19.0.0, SVG Export Plug-In . SVG Version: 6.00 Build 0)  -->
<svg xmlns="http://www.w3.org/2000/svg" xmlns:xlink="http://www.w3.org/1999/xlink" version="1.1" id="Layer_1" x="0px" y="0px" viewBox="0 0 508 508" style="enable-background:new 0 0 508 508;" xml:space="preserve">
<circle style="fill:#90DFAA;" cx="254" cy="254" r="254"/>
<g>
	<path style="fill:#324A5E;" d="M440.4,355.2L440,354H68l-0.4,1.2c-3.6,7.6,0.8,17.2,8,17.2H432   C439.2,372.4,443.6,362.8,440.4,355.2z"/>
	<path style="fill:#324A5E;" d="M379.6,268.4h-248c-7.6,0-13.6-6-13.6-13.6V108.4c0-7.6,6-13.6,13.6-13.6h247.6   c7.6,0,13.6,6,13.6,13.6v146.8C392.8,262.4,386.8,268.4,379.6,268.4z"/>
</g>
<rect x="130" y="110.8" style="fill:#84DBFF;" width="250.8" height="141.6"/>
<path style="fill:#FFFFFF;" d="M427.6,362H80.4c-9.6,0-15.2-3.6-12-7.6l47.2-69.6c1.6-2.4,8.4-4,15.2-4H378c6.8,0,13.6,2,15.2,4  L440,354C442.8,358.4,437.2,362,427.6,362z"/>
<g>
	<polygon style="fill:#E6E9EE;" points="381.2,285.6 126.8,285.6 102.8,324.8 405.2,324.8  "/>
	<polygon style="fill:#E6E9EE;" points="302.8,351.6 205.2,351.6 209.2,329.6 298.8,329.6  "/>
</g>
<path style="fill:#FFFFFF;" d="M304.4,176c0,2.8-2,5.2-5.2,5.2v50.4c0,2.8-2.4,5.2-5.2,5.2h-24.8V202H242v34.8h-25.2  c-2.8,0-5.2-2.4-5.2-5.2v-50.4c-4.8,0-6.8-5.6-3.6-8.8l43.6-41.2c2-2,5.2-2,7.2,0l43.6,41.2C304,173.6,304.4,174.8,304.4,176z"/>
<g>
</g>
<g>
</g>
<g>
</g>
<g>
</g>
<g>
</g>
<g>
</g>
<g>
</g>
<g>
</g>
<g>
</g>
<g>
</g>
<g>
</g>
<g>
</g>
<g>
</g>
<g>
</g>
<g>
</g>
</svg>
