<?xml version="1.0" encoding="iso-8859-1"?>
<!-- Generator: Adobe Illustrator 19.0.0, SVG Export Plug-In . SVG Version: 6.00 Build 0)  -->
<svg xmlns="http://www.w3.org/2000/svg" xmlns:xlink="http://www.w3.org/1999/xlink" version="1.1" id="Layer_1" x="0px" y="0px" viewBox="0 0 508 508" style="enable-background:new 0 0 508 508;" xml:space="preserve">
<circle style="fill:#FFD05B;" cx="254" cy="254" r="254"/>
<path style="fill:#E6E9EE;" d="M434.4,285.6c-3.2,4-7.6,6-12,6.4s-9.2-0.8-13.2-4l-120-96.4c4.8-3.2,9.6-7.2,13.2-12  c4-4.8,6.8-10,9.2-15.6l120,96.4C439.2,266.8,440.4,278,434.4,285.6z"/>
<g>
	<path style="fill:#FFFFFF;" d="M311.6,164c9.2-23.2,2.4-50.8-18-67.2c-25.2-20.4-62.4-16.4-82.8,8.8s-16.4,62.4,8.8,82.8   c20.4,16.4,48.8,16.8,69.6,3.2c4.8-3.2,9.6-7.2,13.2-12C306.4,174.8,309.6,169.6,311.6,164z M260,175.2c-8.4,10.4-24,12-34.4,3.6   s-12-23.6-3.6-34.4l29.2-36.4c8.4-10.4,23.6-12,34.4-3.6c16.4,12.8,8,29.2,3.6,34.4L260,175.2z"/>
	
		<rect x="372.712" y="273.633" transform="matrix(-0.7793 -0.6266 0.6266 -0.7793 499.2335 762.6794)" style="fill:#FFFFFF;" width="22.399" height="39.599"/>
	
		<rect x="344.125" y="255.803" transform="matrix(0.6266 -0.7793 0.7793 0.6266 -74.0664 379.4121)" style="fill:#FFFFFF;" width="29.599" height="22.399"/>
</g>
<path style="fill:#324A5E;" d="M282.8,270.4l-82.4-78c-3.6-3.6-9.6-3.6-13.6,0l-82.8,78c-6.4,6-2,16.8,6.8,16.8v95.6  c0,5.6,4.4,9.6,9.6,9.6h47.2v-58h50.8v58.4h47.2c5.6,0,9.6-4.4,9.6-9.6v-96l0,0C285.2,287.2,289.2,276.4,282.8,270.4z M193.6,223.2  c-4.4,0-8.4-3.6-8.4-8.4c0-4.4,3.6-8.4,8.4-8.4c4.4,0,8.4,3.6,8.4,8.4C201.6,219.6,198,223.2,193.6,223.2z"/>
<path style="fill:#FF7058;" d="M221.6,148.4c-0.4,0-1.2-0.4-1.6-0.4c-1.2,2.4-2.4,4.8-2.8,7.6c0.4,0,1.2,0,1.6,0.4  c5.6,2.4,7.2,16.8,0.8,32.8S202,214.4,196.4,212c-1.6-0.8-2.8-2.4-4-4.8c-2.8,0.4-5.6,2.4-6.4,4.8c1.6,3.6,4.4,6,7.6,7.2  c11.2,4.4,25.6-7.6,33.2-27.6C234.8,171.2,232.4,152.8,221.6,148.4z M192.4,190c0.8-3.6,1.6-7.2,3.2-11.2c2-5.2,4.4-9.6,7.2-12.8  c-1.2-2.8-2.4-6-3.2-8.8c-4.4,4.8-8.4,11.2-11.6,19.2c-2.8,6.8-4.4,13.6-4.8,19.6l3.2-3.2C188.4,191.2,190.4,190.4,192.4,190z"/>
<g>
</g>
<g>
</g>
<g>
</g>
<g>
</g>
<g>
</g>
<g>
</g>
<g>
</g>
<g>
</g>
<g>
</g>
<g>
</g>
<g>
</g>
<g>
</g>
<g>
</g>
<g>
</g>
<g>
</g>
</svg>
