<?xml version="1.0" encoding="iso-8859-1"?>
<!-- Generator: Adobe Illustrator 19.0.0, SVG Export Plug-In . SVG Version: 6.00 Build 0)  -->
<svg xmlns="http://www.w3.org/2000/svg" xmlns:xlink="http://www.w3.org/1999/xlink" version="1.1" id="Layer_1" x="0px" y="0px" viewBox="0 0 508 508" style="enable-background:new 0 0 508 508;" xml:space="preserve">
<circle style="fill:#FD8469;" cx="254" cy="254" r="254"/>
<path style="fill:#F1543F;" d="M63.6,422C110,474.8,178,508,254,508s144-33.2,190.4-86H63.6z"/>
<g>
	<path style="fill:#324A5E;" d="M337.6,398.4c-0.8,5.6-2,22.8,6,24c3.6,0.4,7.6,0.4,11.6,0.4s8,0,11.6-0.4c8-0.8,6.8-18.4,6-24   H337.6z"/>
	<path style="fill:#324A5E;" d="M170.4,398.4c0.8,5.6,2,22.8-6,24c-3.6,0.4-7.6,0.4-11.6,0.4s-8,0-11.6-0.4c-8-0.8-6.8-18.4-6-24   H170.4z"/>
	<path style="fill:#324A5E;" d="M366.8,302.8c0,0-13.2,0-18.4-0.4c-5.2-0.4-2-11.2-2-11.2l18,3.2L366.8,302.8z"/>
</g>
<path style="fill:#FFD05B;" d="M357.2,302.8c0,0-6.8-10.8,4-18.8c0,0,26,5.6,16.8,16.8C377.6,301.2,375.2,304.4,357.2,302.8z"/>
<path style="fill:#324A5E;" d="M141.2,302.8c0,0,13.2,0,18.4-0.4s2-11.2,2-11.2l-18.4,2.8L141.2,302.8z"/>
<g>
	<path style="fill:#FFD05B;" d="M150.8,302.8c0,0,6.8-10.8-4-18.8c0,0-26,5.6-16.8,16.8C130.4,301.2,132.8,304.4,150.8,302.8z"/>
	<path style="fill:#FFD05B;" d="M365.6,318.4l-9.2-12L326.8,256c-19.2-9.6-72.8-8.4-72.8-8.4l0,0c0,0-53.6-1.2-72.8,8.4l-29.6,50.4   l-9.2,12c-4.4,6-7.2,12.8-7.2,20.4c-0.8,18-1.6,52,0.4,60.8h35.6l7.2-4H330l7.2,4h35.6c2-8.4,1.2-42.8,0.4-60.8   C372.8,331.2,370.4,324,365.6,318.4z"/>
</g>
<polygon style="fill:#F9B54C;" points="360,362.8 368.4,380.4 347.6,384.4 325.6,368.8 "/>
<g>
	<path style="fill:#FFFFFF;" d="M359.6,310c0,0,14,11.2,3.2,28.4c0,0-23.6-1.6-37.2,5.6l5.2-16L359.6,310z"/>
	<path style="fill:#FFFFFF;" d="M148.4,310c0,0-14,11.2-3.2,28.4c0,0,23.6-1.6,37.2,5.6l-5.2-16L148.4,310z"/>
</g>
<path style="fill:#2B3B4E;" d="M310,324.8h-56h-56l-12.4,4.4c0,0,18.4,23.2,24,25.2H254h44.4c5.2-2,24-25.2,24-25.2L310,324.8z"/>
<polygon style="fill:#324A5E;" points="310.8,378 254,378 197.2,378 182.4,387.6 254,387.6 325.6,387.6 "/>
<polygon style="fill:#F9B54C;" points="148,362.8 139.6,380.4 160.4,384.4 182.4,368.8 "/>
<path style="fill:#84DBFF;" d="M324.8,257.2c0,0-44-5.6-70.8-5.2c-26.8-0.4-70.8,5.2-70.8,5.2c-11.6,18-23.6,41.6-23.6,41.6  c12.4-3.6,85.6-3.2,94.4-3.2s82-0.4,94.4,3.2C348.4,298.8,336.4,275.6,324.8,257.2z"/>
<path style="fill:#54C0EB;" d="M324.8,257.2c0,0-14.8-2-32-3.6l-35.2,41.6c16.8,0,79.6,0,91.2,3.2  C348.4,298.8,336.4,275.6,324.8,257.2z"/>
<circle style="fill:#E6E6E6;" cx="354.8" cy="327.2" r="10"/>
<circle style="fill:#FFFFFF;" cx="354.8" cy="327.2" r="7.6"/>
<g>
	<circle style="fill:#E6E6E6;" cx="354.4" cy="327.2" r="5.2"/>
	<circle style="fill:#E6E6E6;" cx="338.4" cy="332.8" r="6"/>
</g>
<circle style="fill:#FFFFFF;" cx="338.4" cy="332.8" r="4.4"/>
<g>
	<circle style="fill:#E6E6E6;" cx="338" cy="332.8" r="3.2"/>
	<circle style="fill:#E6E6E6;" cx="153.2" cy="327.2" r="10"/>
</g>
<circle style="fill:#FFFFFF;" cx="153.2" cy="327.2" r="7.6"/>
<g>
	<circle style="fill:#E6E6E6;" cx="153.6" cy="327.2" r="5.2"/>
	<circle style="fill:#E6E6E6;" cx="170" cy="332.8" r="6"/>
</g>
<circle style="fill:#FFFFFF;" cx="170" cy="332.8" r="4.4"/>
<circle style="fill:#E6E6E6;" cx="170" cy="332.8" r="3.2"/>
<g>
	<circle style="fill:#FF7058;" cx="156" cy="374" r="7.2"/>
	<circle style="fill:#FF7058;" cx="351.2" cy="374" r="7.2"/>
</g>
<path style="fill:#324A5E;" d="M320,332.4c1.6-2,2.4-2.8,2.4-2.8l-0.8-0.4h-44l1.6-4H254h-24.8l1.6,4h-44l-0.8,0.4  c0,0,0.8,1.2,2.4,2.8H232l2,5.6h-41.2c0.8,1.2,2,2,2.8,3.2h39.6l2,5.6h-36.4c1.2,1.2,2.4,2.4,3.2,3.2h34.4l1.6,4h14h14l1.6-4H304  c1.2-0.8,2-2,3.2-3.2h-36.4l2-5.6h39.6c0.8-1.2,2-2.4,2.8-3.2H274l2-5.6H320z"/>
<ellipse style="fill:#E6E6E6;" cx="254" cy="336.8" rx="13.6" ry="6.8"/>
<g>
	<rect x="400.4" y="231.2" style="fill:#324A5E;" width="13.2" height="192"/>
	<rect x="94.4" y="231.2" style="fill:#324A5E;" width="13.2" height="192"/>
</g>
<path style="fill:#FFFFFF;" d="M442.8,286.8c-4,0-8-1.6-11.2-4L254,138L76.4,282.8c-3.2,2.4-7.2,4-11.2,4c-5.2,0-10.4-2.4-14-6.4  c-3.2-3.6-4.4-8.4-4-13.2c0.4-4.8,2.8-9.2,6.4-12l188.8-154c3.2-2.4,7.2-4,11.2-4s8,1.6,11.2,4L454,254.8c3.6,3.2,6,7.2,6.4,12  s-0.8,9.2-4,13.2C453.2,284.4,448,286.8,442.8,286.8z"/>
<g>
</g>
<g>
</g>
<g>
</g>
<g>
</g>
<g>
</g>
<g>
</g>
<g>
</g>
<g>
</g>
<g>
</g>
<g>
</g>
<g>
</g>
<g>
</g>
<g>
</g>
<g>
</g>
<g>
</g>
</svg>
