<?xml version="1.0" encoding="iso-8859-1"?>
<!-- Generator: Adobe Illustrator 19.0.0, SVG Export Plug-In . SVG Version: 6.00 Build 0)  -->
<svg xmlns="http://www.w3.org/2000/svg" xmlns:xlink="http://www.w3.org/1999/xlink" version="1.1" id="Layer_1" x="0px" y="0px" viewBox="0 0 508 508" style="enable-background:new 0 0 508 508;" xml:space="preserve">
<circle style="fill:#FD8469;" cx="254" cy="254" r="254"/>
<path style="fill:#F1543F;" d="M64,422.4c46.4,52.4,114.4,85.6,190,85.6s143.6-33.2,190-85.6H64z"/>
<polygon style="fill:#FFD05B;" points="96.4,115.2 63.2,186.8 444.8,186.8 411.6,115.2 "/>
<polygon style="fill:#F9B54C;" points="356.8,186.8 254,100 151.2,186.8 "/>
<polygon style="fill:#E6E9EE;" points="411.6,423.2 411.6,186.8 324.4,186.8 254,127.6 183.6,186.8 96.4,186.8 96.4,423.2 "/>
<circle style="fill:#324A5E;" cx="254" cy="180.8" r="21.2"/>
<rect x="127.2" y="225.2" style="fill:#FFFFFF;" width="60.8" height="60.8"/>
<rect x="134" y="232" style="fill:#84DBFF;" width="47.2" height="47.2"/>
<g>
	<rect x="127.2" y="251.2" style="fill:#FFFFFF;" width="60.8" height="8.4"/>
	<rect x="153.6" y="225.2" style="fill:#FFFFFF;" width="8.4" height="60.8"/>
	<rect x="226.8" y="225.2" style="fill:#FFFFFF;" width="60.8" height="60.8"/>
</g>
<rect x="233.6" y="232" style="fill:#84DBFF;" width="47.2" height="47.2"/>
<g>
	<rect x="226.8" y="251.2" style="fill:#FFFFFF;" width="60.8" height="8.4"/>
	<rect x="253.2" y="225.2" style="fill:#FFFFFF;" width="8.4" height="60.8"/>
	<rect x="326.4" y="225.2" style="fill:#FFFFFF;" width="60.8" height="60.8"/>
</g>
<rect x="333.2" y="232" style="fill:#84DBFF;" width="47.2" height="47.2"/>
<g>
	<rect x="326.4" y="251.2" style="fill:#FFFFFF;" width="60.8" height="8.4"/>
	<rect x="352.8" y="225.2" style="fill:#FFFFFF;" width="8.4" height="60.8"/>
	<rect x="127.2" y="312" style="fill:#FFFFFF;" width="60.8" height="60.8"/>
</g>
<rect x="134" y="318.8" style="fill:#84DBFF;" width="47.2" height="47.2"/>
<g>
	<rect x="127.2" y="338" style="fill:#FFFFFF;" width="60.8" height="8.4"/>
	<rect x="153.6" y="312" style="fill:#FFFFFF;" width="8.4" height="60.8"/>
	<rect x="226.8" y="312" style="fill:#FFFFFF;" width="60.8" height="60.8"/>
</g>
<rect x="233.6" y="318.8" style="fill:#84DBFF;" width="47.2" height="47.2"/>
<g>
	<rect x="226.8" y="338" style="fill:#FFFFFF;" width="60.8" height="8.4"/>
	<rect x="253.2" y="312" style="fill:#FFFFFF;" width="8.4" height="60.8"/>
	<rect x="326.4" y="312" style="fill:#FFFFFF;" width="60.8" height="60.8"/>
</g>
<rect x="333.2" y="318.8" style="fill:#84DBFF;" width="47.2" height="47.2"/>
<g>
	<rect x="326.4" y="338" style="fill:#FFFFFF;" width="60.8" height="8.4"/>
	<rect x="352.8" y="312" style="fill:#FFFFFF;" width="8.4" height="60.8"/>
</g>
<g>
</g>
<g>
</g>
<g>
</g>
<g>
</g>
<g>
</g>
<g>
</g>
<g>
</g>
<g>
</g>
<g>
</g>
<g>
</g>
<g>
</g>
<g>
</g>
<g>
</g>
<g>
</g>
<g>
</g>
</svg>
