<?xml version="1.0" encoding="iso-8859-1"?>
<!-- Generator: Adobe Illustrator 19.0.0, SVG Export Plug-In . SVG Version: 6.00 Build 0)  -->
<svg xmlns="http://www.w3.org/2000/svg" xmlns:xlink="http://www.w3.org/1999/xlink" version="1.1" id="Layer_1" x="0px" y="0px" viewBox="0 0 508 508" style="enable-background:new 0 0 508 508;" xml:space="preserve">
<path style="fill:#FFD05B;" d="M508,254c0,70.8-28.8,134.4-75.2,180.4C386.8,480,323.6,508,254,508s-132.8-28-178.8-73.6  C28.8,388.4,0,324.8,0,254C0,113.6,113.6,0,254,0S508,113.6,508,254z"/>
<path style="fill:#F9B54C;" d="M76,435.2c46,45.2,108.8,72.8,178,72.8s132.4-28,178-72.8H76z"/>
<rect x="111.2" y="90.8" style="fill:#FFFFFF;" width="170.8" height="344.4"/>
<rect x="282" y="168" style="fill:#E6E9EE;" width="128.4" height="266.8"/>
<g>
	<rect x="124.8" y="106.8" style="fill:#84DBFF;" width="24" height="35.2"/>
	<rect x="164.8" y="106.8" style="fill:#84DBFF;" width="24" height="35.2"/>
	<rect x="204.4" y="106.8" style="fill:#84DBFF;" width="24" height="35.2"/>
	<rect x="244.4" y="106.8" style="fill:#84DBFF;" width="24" height="35.2"/>
	<rect x="124.8" y="155.2" style="fill:#84DBFF;" width="24" height="35.2"/>
	<rect x="164.8" y="155.2" style="fill:#84DBFF;" width="24" height="35.2"/>
	<rect x="204.4" y="155.2" style="fill:#84DBFF;" width="24" height="35.2"/>
	<rect x="244.4" y="155.2" style="fill:#84DBFF;" width="24" height="35.2"/>
	<rect x="124.8" y="203.6" style="fill:#84DBFF;" width="24" height="35.2"/>
	<rect x="164.8" y="203.6" style="fill:#84DBFF;" width="24" height="35.2"/>
	<rect x="204.4" y="203.6" style="fill:#84DBFF;" width="24" height="35.2"/>
	<rect x="244.4" y="203.6" style="fill:#84DBFF;" width="24" height="35.2"/>
	<rect x="124.8" y="251.6" style="fill:#84DBFF;" width="24" height="35.2"/>
	<rect x="164.8" y="251.6" style="fill:#84DBFF;" width="24" height="35.2"/>
	<rect x="204.4" y="251.6" style="fill:#84DBFF;" width="24" height="35.2"/>
	<rect x="244.4" y="251.6" style="fill:#84DBFF;" width="24" height="35.2"/>
	<rect x="124.8" y="300" style="fill:#84DBFF;" width="24" height="35.2"/>
	<rect x="164.8" y="300" style="fill:#84DBFF;" width="24" height="35.2"/>
	<rect x="204.4" y="300" style="fill:#84DBFF;" width="24" height="35.2"/>
	<rect x="244.4" y="300" style="fill:#84DBFF;" width="24" height="35.2"/>
</g>
<g>
	<rect x="294.8" y="183.2" style="fill:#54C0EB;" width="24" height="35.2"/>
	<rect x="334.4" y="183.2" style="fill:#54C0EB;" width="24" height="35.2"/>
	<rect x="374.4" y="183.2" style="fill:#54C0EB;" width="24" height="35.2"/>
	<rect x="294.8" y="231.2" style="fill:#54C0EB;" width="24" height="35.2"/>
	<rect x="334.4" y="231.2" style="fill:#54C0EB;" width="24" height="35.2"/>
	<rect x="374.4" y="231.2" style="fill:#54C0EB;" width="24" height="35.2"/>
	<rect x="294.8" y="279.2" style="fill:#54C0EB;" width="24" height="35.2"/>
	<rect x="334.4" y="279.2" style="fill:#54C0EB;" width="24" height="35.2"/>
	<rect x="374.4" y="279.2" style="fill:#54C0EB;" width="24" height="35.2"/>
	<rect x="294.8" y="327.2" style="fill:#54C0EB;" width="24" height="35.2"/>
	<rect x="334.4" y="327.2" style="fill:#54C0EB;" width="24" height="35.2"/>
	<rect x="374.4" y="327.2" style="fill:#54C0EB;" width="24" height="35.2"/>
</g>
<g>
	<rect x="170" y="370.4" style="fill:#324A5E;" width="53.6" height="64.8"/>
	<rect x="328" y="400.8" style="fill:#324A5E;" width="36.8" height="34.4"/>
</g>
<g>
</g>
<g>
</g>
<g>
</g>
<g>
</g>
<g>
</g>
<g>
</g>
<g>
</g>
<g>
</g>
<g>
</g>
<g>
</g>
<g>
</g>
<g>
</g>
<g>
</g>
<g>
</g>
<g>
</g>
</svg>
