<?xml version="1.0" encoding="iso-8859-1"?>
<!-- Generator: Adobe Illustrator 19.0.0, SVG Export Plug-In . SVG Version: 6.00 Build 0)  -->
<svg xmlns="http://www.w3.org/2000/svg" xmlns:xlink="http://www.w3.org/1999/xlink" version="1.1" id="Layer_1" x="0px" y="0px" viewBox="0 0 508 508" style="enable-background:new 0 0 508 508;" xml:space="preserve">
<circle style="fill:#84DBFF;" cx="254" cy="254" r="254"/>
<rect x="163.766" y="287.966" transform="matrix(-0.7071 -0.7071 0.7071 -0.7071 80.7126 672.164)" style="fill:#2B3B4E;" width="31.6" height="62.799"/>
<path style="fill:#FF7058;" d="M125.2,327.2l-76.4,76.4c12.8,17.6,28.4,33.6,45.2,47.6l77.6-77.6c12.8-12.8,12.8-33.6,0-46.4  C158.8,314.4,138,314.4,125.2,327.2z"/>
<circle style="fill:#324A5E;" cx="287.6" cy="211.6" r="138"/>
<circle style="fill:#FFFFFF;" cx="287.6" cy="211.6" r="116.4"/>
<path style="fill:#FFD05B;" d="M287.6,129.6L256,155.2v-10h-20.4V172l-30,24.4h18.8v85.2h126.8v-85.2H370L287.6,129.6z M272,246.4  c-5.6,0-10.4-4.8-10.4-10.4s4.8-10.4,10.4-10.4s10.4,4.8,10.4,10.4S278,246.4,272,246.4z M272,217.2c-5.6,0-10.4-4.8-10.4-10.4  c0-5.6,4.8-10.4,10.4-10.4s10.4,4.8,10.4,10.4S278,217.2,272,217.2z M303.2,246.4c-5.6,0-10.4-4.8-10.4-10.4s4.8-10.4,10.4-10.4  s10.4,4.8,10.4,10.4S308.8,246.4,303.2,246.4z M303.2,217.2c-5.6,0-10.4-4.8-10.4-10.4c0-5.6,4.8-10.4,10.4-10.4s10.4,4.8,10.4,10.4  S308.8,217.2,303.2,217.2z"/>
<g>
</g>
<g>
</g>
<g>
</g>
<g>
</g>
<g>
</g>
<g>
</g>
<g>
</g>
<g>
</g>
<g>
</g>
<g>
</g>
<g>
</g>
<g>
</g>
<g>
</g>
<g>
</g>
<g>
</g>
</svg>
