<?xml version="1.0" encoding="iso-8859-1"?>
<!-- Generator: Adobe Illustrator 19.0.0, SVG Export Plug-In . SVG Version: 6.00 Build 0)  -->
<svg xmlns="http://www.w3.org/2000/svg" xmlns:xlink="http://www.w3.org/1999/xlink" version="1.1" id="Layer_1" x="0px" y="0px" viewBox="0 0 508 508" style="enable-background:new 0 0 508 508;" xml:space="preserve">
<circle style="fill:#324A5E;" cx="254" cy="254" r="254"/>
<path style="fill:#2B3B4E;" d="M105.6,460c41.6,30,92.8,48,148.4,48c55.2,0,106.8-17.6,148.4-48H105.6z"/>
<polygon style="fill:#ACB3BA;" points="316,460 294,351.6 214,351.6 192,460 "/>
<path style="fill:#E6E9EE;" d="M276.8,248h-45.6c-33.6,0-60.8-27.2-60.8-60.8v-78.4c0-33.6,27.2-60.8,60.8-60.8h46  c33.6,0,60.8,27.2,60.8,60.8v78C338,220.4,310.4,248,276.8,248z"/>
<path style="fill:#FFFFFF;" d="M194.4,187.2v-78.4c0-20,16.4-36.4,36.4-36.4h46.4c20,0,36.4,16.4,36.4,36.4v78.4  c0,20-16.4,36.4-36.4,36.4h-46.4C210.8,223.6,194.4,207.2,194.4,187.2z"/>
<path style="fill:#CED5E0;" d="M360,275.6c-3.6,68.8-49.6,122.8-106,122.8s-102.4-54-106-122.8c2.8,18.4,49.2,33.2,106,33.2  C310.8,308.8,357.2,294,360,275.6z"/>
<ellipse style="fill:#FFFFFF;" cx="254" cy="274" rx="106" ry="34.8"/>
<ellipse style="fill:#CED5E0;" cx="254" cy="274" rx="82.8" ry="21.2"/>
<ellipse style="fill:#ACB3BA;" cx="254" cy="274" rx="82.8" ry="21.2"/>
<path style="fill:#CED5E0;" d="M254,261.6c-40,0-73.2,7.2-81.2,16.8c7.6,9.6,41.2,16.8,81.2,16.8s73.2-7.2,81.2-16.8  C327.2,268.8,294,261.6,254,261.6z"/>
<g>
</g>
<g>
</g>
<g>
</g>
<g>
</g>
<g>
</g>
<g>
</g>
<g>
</g>
<g>
</g>
<g>
</g>
<g>
</g>
<g>
</g>
<g>
</g>
<g>
</g>
<g>
</g>
<g>
</g>
</svg>
