<?xml version="1.0" encoding="iso-8859-1"?>
<!-- Generator: Adobe Illustrator 19.0.0, SVG Export Plug-In . SVG Version: 6.00 Build 0)  -->
<svg xmlns="http://www.w3.org/2000/svg" xmlns:xlink="http://www.w3.org/1999/xlink" version="1.1" id="Layer_1" x="0px" y="0px" viewBox="0 0 508 508" style="enable-background:new 0 0 508 508;" xml:space="preserve">
<circle style="fill:#324A5E;" cx="254" cy="254" r="254"/>
<path style="fill:#2B3B4E;" d="M52,407.2C98.4,468.4,172,508,254.8,508s156.4-39.6,202.8-100.8H52z"/>
<path style="fill:#F9B54C;" d="M278.8,269.2L80,345.2c-2.4,0.8-5.2,1.6-7.6,1.6c-9.2,0-17.6-5.6-20.8-15.2  c-3.6-12,3.2-24.4,15.2-27.6l206-54.4L278.8,269.2z"/>
<g>
	<path style="fill:#FFD05B;" d="M286.8,294l-22.4-69.2c-1.6-4.8,1.2-10,6-11.6l72-23.2c4.8-1.6,10,1.2,11.6,6l22.4,69.2   c1.6,4.8-1.2,10-6,11.6L298.8,300C293.6,301.6,288.4,298.8,286.8,294z"/>
	<path style="fill:#FFD05B;" d="M295.6,322L295.6,322c-1.6-4.8,1.2-10,6-11.6l72-23.2c4.8-1.6,10,1.2,11.6,6l0,0   c1.6,4.8-1.2,10-6,11.6l-72,23.2C302.4,329.6,297.2,326.8,295.6,322z"/>
	<path style="fill:#FFD05B;" d="M255.6,196.8L255.6,196.8c-1.6-4.8,1.2-10,6-11.6l72-23.2c4.8-1.6,10,1.2,11.6,6l0,0   c1.6,4.8-1.2,10-6,11.6l-72,23.2C262,204,257.2,201.6,255.6,196.8z"/>
</g>
<g>
	
		<rect x="330.192" y="255.85" transform="matrix(0.3062 0.952 -0.952 0.3062 512.5228 -115.9261)" style="fill:#F9B54C;" width="11.2" height="75.602"/>
	
		<rect x="267.013" y="190.804" transform="matrix(-0.952 0.3062 -0.3062 -0.952 655.1245 290.045)" style="fill:#F9B54C;" width="75.602" height="11.2"/>
</g>
<path style="fill:#E6E9EE;" d="M425.2,407.2H242.8c-8,0-14.8-6.4-14.8-14.8l0,0c0-8,6.4-14.8,14.8-14.8h182.4  c8,0,14.8,6.4,14.8,14.8l0,0C440,400.4,433.2,407.2,425.2,407.2z"/>
<path style="fill:#FFFFFF;" d="M404.4,377.6H263.6c-8,0-14.8-6.4-14.8-14.8l0,0c0-8,6.4-14.8,14.8-14.8h140.8  c8,0,14.8,6.4,14.8,14.8l0,0C419.2,370.8,412.4,377.6,404.4,377.6z"/>
<g>
	<path style="fill:#FF7058;" d="M193.2,94.3c0-19,14.9-34.5,32.9-34.5S259,75.2,259,94.3s-14.9,34.5-32.9,34.5   S193.2,113.3,193.2,94.3z M204.6,94.3c0,12.9,9.8,23.1,21.6,23.1s21.6-10.3,21.6-23.1s-9.8-23.1-21.6-23.1   C214.3,71.1,204.6,81.4,204.6,94.3z"/>
	<path style="fill:#FF7058;" d="M273,128.7c-3.1,0-5.7-2.6-5.7-5.7V65.5c0-3.1,2.6-5.7,5.7-5.7s5.7,2.6,5.7,5.7v51.4h20.1   c3.1,0,5.7,2.6,5.7,5.7s-2.6,5.7-5.7,5.7H273V128.7z"/>
	<path style="fill:#FF7058;" d="M318.2,128.7c-3.1,0-5.7-2.6-5.7-5.7V65.5c0-3.1,2.6-5.7,5.7-5.7h16.5c0.5,0,29.3,0,29.3,34.5   s-28.8,34.5-29.3,34.5L318.2,128.7L318.2,128.7z M323.9,116.9h10.8c0.5,0,4.6,0,9.3-3.1c5.7-3.6,8.7-10.3,8.7-20.1   s-3.1-16.5-8.7-20.1c-4.1-2.6-8.7-2.6-8.7-2.6h-10.8v45.8h-0.6V116.9z"/>
	<path style="fill:#FF7058;" d="M165.5,88.6c-4.6,0-8.7-3.6-8.7-8.7c0-4.6,3.6-8.7,8.7-8.7c2.6,0,4.6,1,6.2,2.6   c2.1,2.1,5.7,2.6,8.2,0c2.1-2.1,2.6-5.7,0-8.2c-3.6-4.1-9.3-6.2-14.4-6.2c-11.3,0-20.1,9.3-20.1,20.1s9.3,20.1,20.1,20.1   c4.6,0,8.7,3.6,8.7,8.7c0,4.6-3.6,8.7-8.7,8.7c-2.6,0-4.6-1-6.2-2.6c-2.1-2.1-5.7-2.6-8.2,0c-2.1,2.1-2.6,5.7,0,8.2   c3.6,4.1,9.3,6.2,14.4,6.2c11.3,0,20.1-9.3,20.1-20.1C185.5,97.3,176.8,88.6,165.5,88.6z"/>
</g>
<g>
</g>
<g>
</g>
<g>
</g>
<g>
</g>
<g>
</g>
<g>
</g>
<g>
</g>
<g>
</g>
<g>
</g>
<g>
</g>
<g>
</g>
<g>
</g>
<g>
</g>
<g>
</g>
<g>
</g>
</svg>
