<?xml version="1.0" encoding="iso-8859-1"?>
<!-- Generator: Adobe Illustrator 19.0.0, SVG Export Plug-In . SVG Version: 6.00 Build 0)  -->
<svg xmlns="http://www.w3.org/2000/svg" xmlns:xlink="http://www.w3.org/1999/xlink" version="1.1" id="Layer_1" x="0px" y="0px" viewBox="0 0 508 508" style="enable-background:new 0 0 508 508;" xml:space="preserve">
<circle style="fill:#84DBFF;" cx="254" cy="254" r="254"/>
<path style="fill:#FFFFFF;" d="M384.8,430H123.2c-8.4,0-14.8-6.8-14.8-14.8V92.8c0-8.4,6.8-14.8,14.8-14.8h261.2  c8.4,0,14.8,6.8,14.8,14.8v322.4C399.6,423.6,392.8,430,384.8,430z"/>
<rect x="124.4" y="96.4" style="fill:#324A5E;" width="259.2" height="69.2"/>
<polygon style="fill:#2B3B4E;" points="298.4,96.4 210,165.6 383.6,165.6 383.6,96.4 "/>
<g>
	<rect x="124.4" y="186.4" style="fill:#E6E9EE;" width="44" height="40"/>
	<rect x="196" y="186.4" style="fill:#E6E9EE;" width="44" height="40"/>
	<rect x="268" y="186.4" style="fill:#E6E9EE;" width="44" height="40"/>
	<rect x="339.6" y="186.4" style="fill:#E6E9EE;" width="44" height="40"/>
	<rect x="124.4" y="247.6" style="fill:#E6E9EE;" width="44" height="40"/>
	<rect x="196" y="247.6" style="fill:#E6E9EE;" width="44" height="40"/>
	<rect x="268" y="247.6" style="fill:#E6E9EE;" width="44" height="40"/>
	<rect x="339.6" y="247.6" style="fill:#E6E9EE;" width="44" height="40"/>
	<rect x="124.4" y="308.4" style="fill:#E6E9EE;" width="44" height="40"/>
	<rect x="196" y="308.4" style="fill:#E6E9EE;" width="44" height="40"/>
	<rect x="268" y="308.4" style="fill:#E6E9EE;" width="44" height="40"/>
</g>
<rect x="339.6" y="308.4" style="fill:#FF7058;" width="44" height="100.8"/>
<g>
	<rect x="124.4" y="369.6" style="fill:#E6E9EE;" width="44" height="40"/>
	<rect x="196" y="369.6" style="fill:#E6E9EE;" width="44" height="40"/>
	<rect x="268" y="369.6" style="fill:#E6E9EE;" width="44" height="40"/>
</g>
<g>
</g>
<g>
</g>
<g>
</g>
<g>
</g>
<g>
</g>
<g>
</g>
<g>
</g>
<g>
</g>
<g>
</g>
<g>
</g>
<g>
</g>
<g>
</g>
<g>
</g>
<g>
</g>
<g>
</g>
</svg>
