<?xml version="1.0" encoding="iso-8859-1"?>
<!-- Generator: Adobe Illustrator 19.0.0, SVG Export Plug-In . SVG Version: 6.00 Build 0)  -->
<svg xmlns="http://www.w3.org/2000/svg" xmlns:xlink="http://www.w3.org/1999/xlink" version="1.1" id="Layer_1" x="0px" y="0px" viewBox="0 0 508 508" style="enable-background:new 0 0 508 508;" xml:space="preserve">
<circle style="fill:#FD8469;" cx="254" cy="254" r="254"/>
<polygon style="fill:#FFFFFF;" points="375.2,414.8 420.8,207.6 254,71.2 87.2,207.6 132.8,414.8 "/>
<path style="fill:#324A5E;" d="M442.8,243.2c-4,0-8-1.6-11.2-4L254,94.4L76.4,239.2c-3.2,2.4-7.2,4-11.2,4c-5.2,0-10.4-2.4-14-6.4  c-3.2-3.6-4.4-8.4-4-13.2s2.8-9.2,6.4-12l188.8-154c3.2-2.4,7.2-4,11.2-4s8,1.6,11.2,4l189.2,154c3.6,3.2,6,7.2,6.4,12  s-0.8,9.2-4,13.2C453.2,240.8,448,243.2,442.8,243.2z"/>
<path style="fill:#F9B54C;" d="M354,345.2H154c-9.2,0-16.8-7.6-16.8-16.8l0,0c0-9.2,7.6-16.8,16.8-16.8h200  c9.2,0,16.8,7.6,16.8,16.8l0,0C370.8,337.6,363.2,345.2,354,345.2z"/>
<path style="fill:#FFD05B;" d="M335.2,247.2c8.8-10,6.8-16.4,2-21.2c-4.8-4.4-10.4-6.4-19.2,0.8c-11.2-10-24.8-17.2-39.6-21.2  c-2.8-10.8-12.4-13.2-24-13.2s-21.6,2.8-24,13.2c-14.8,4-28.4,11.2-39.6,21.2c-8.8-7.2-14.4-5.2-19.2-0.8c-4.8,4.8-6.8,11.2,2,21.2  c-9.6,14.8-15.2,32.8-15.2,51.6c0,4,0.4,8.4,0.8,12.4H350c0.4-4,0.8-8,0.8-12.4C350.4,280,344.8,262.4,335.2,247.2z"/>
<circle style="fill:#FFFFFF;" cx="254" cy="298.4" r="42.4"/>
<circle style="fill:#84DBFF;" cx="254" cy="298.4" r="31.2"/>
<circle style="fill:#54C0EB;" cx="254" cy="298.4" r="18.4"/>
<ellipse transform="matrix(-0.6953 -0.7188 0.7188 -0.6953 204.2744 657.8721)" style="fill:#FFFFFF;" cx="241.6" cy="285.632" rx="6.8" ry="12.401"/>
<g>
</g>
<g>
</g>
<g>
</g>
<g>
</g>
<g>
</g>
<g>
</g>
<g>
</g>
<g>
</g>
<g>
</g>
<g>
</g>
<g>
</g>
<g>
</g>
<g>
</g>
<g>
</g>
<g>
</g>
</svg>
