<?xml version="1.0" encoding="iso-8859-1"?>
<!-- Generator: Adobe Illustrator 19.0.0, SVG Export Plug-In . SVG Version: 6.00 Build 0)  -->
<svg xmlns="http://www.w3.org/2000/svg" xmlns:xlink="http://www.w3.org/1999/xlink" version="1.1" id="Layer_1" x="0px" y="0px" viewBox="0 0 508 508" style="enable-background:new 0 0 508 508;" xml:space="preserve">
<circle style="fill:#90DFAA;" cx="254" cy="254" r="254"/>
<path style="fill:#FFFFFF;" d="M143.2,482.8C176.8,499.2,214.4,508,254,508s77.2-9.2,110.8-25.2V136.4H143.2V482.8z"/>
<g>
	<rect x="162.8" y="168.4" style="fill:#54C0EB;" width="182.4" height="20.8"/>
	<rect x="162.8" y="213.6" style="fill:#54C0EB;" width="182.4" height="20.8"/>
	<rect x="162.8" y="259.2" style="fill:#54C0EB;" width="182.4" height="20.8"/>
	<rect x="162.8" y="304.4" style="fill:#54C0EB;" width="182.4" height="20.8"/>
	<rect x="162.8" y="349.6" style="fill:#54C0EB;" width="182.4" height="20.8"/>
	<rect x="162.8" y="395.2" style="fill:#54C0EB;" width="182.4" height="20.8"/>
	<rect x="162.8" y="440.4" style="fill:#54C0EB;" width="182.4" height="20.8"/>
</g>
<rect x="165.2" y="106.4" style="fill:#E6E9EE;" width="177.6" height="30"/>
<rect x="185.2" y="76.4" style="fill:#FFFFFF;" width="137.6" height="30"/>
<path style="fill:#324A5E;" d="M260.8,76.4h-13.6V25.6c0-3.6,3.2-6.8,6.8-6.8l0,0c3.6,0,6.8,3.2,6.8,6.8V76.4z"/>
<g>
</g>
<g>
</g>
<g>
</g>
<g>
</g>
<g>
</g>
<g>
</g>
<g>
</g>
<g>
</g>
<g>
</g>
<g>
</g>
<g>
</g>
<g>
</g>
<g>
</g>
<g>
</g>
<g>
</g>
</svg>
