<?xml version="1.0" encoding="iso-8859-1"?>
<!-- Generator: Adobe Illustrator 19.0.0, SVG Export Plug-In . SVG Version: 6.00 Build 0)  -->
<svg xmlns="http://www.w3.org/2000/svg" xmlns:xlink="http://www.w3.org/1999/xlink" version="1.1" id="Layer_1" x="0px" y="0px" viewBox="0 0 508 508" style="enable-background:new 0 0 508 508;" xml:space="preserve">
<circle style="fill:#FFD05B;" cx="254" cy="254" r="254"/>
<path style="fill:#F9B54C;" d="M60.8,418.8C107.2,473.2,176.4,508,254,508c77.2,0,146.4-34.4,193.2-89.2H60.8z"/>
<path style="fill:#324A5E;" d="M421.2,363.2H86.8c-10.8,0-19.6-8.8-19.6-19.6V132c0-10.8,8.8-19.6,19.6-19.6h334.4  c10.8,0,19.6,8.8,19.6,19.6v211.6C440.4,354.4,432,363.2,421.2,363.2z"/>
<path style="fill:#FFFFFF;" d="M67.6,324.8V344c0,10.8,8.8,19.2,19.2,19.2h334.4c10.8,0,19.2-8.8,19.2-19.2v-19.2H67.6z"/>
<rect x="82" y="131.2" style="fill:#84DBFF;" width="344" height="172.4"/>
<rect x="82" y="131.2" style="fill:#54C0EB;" width="84.8" height="172.4"/>
<rect x="213.6" y="363.2" style="fill:#FFFFFF;" width="80.8" height="39.6"/>
<g>
	<rect x="213.6" y="363.2" style="fill:#E6E9EE;" width="80.8" height="9.6"/>
	<path style="fill:#E6E9EE;" d="M336,418.8c-12-10.4-27.6-16.4-43.6-16.4h-76.8c-16,0-31.6,6-43.6,16.4H336z"/>
</g>
<g>
	<rect x="200.8" y="151.2" style="fill:#54C0EB;" width="194" height="4.8"/>
	<rect x="200.8" y="164.8" style="fill:#54C0EB;" width="194" height="4.8"/>
	<rect x="200.8" y="178" style="fill:#54C0EB;" width="194" height="4.8"/>
	<rect x="200.8" y="191.2" style="fill:#54C0EB;" width="194" height="4.8"/>
	<rect x="200.8" y="204.8" style="fill:#54C0EB;" width="82.4" height="4.8"/>
	<rect x="200.8" y="226" style="fill:#54C0EB;" width="194" height="4.8"/>
	<rect x="200.8" y="239.2" style="fill:#54C0EB;" width="194" height="4.8"/>
	<rect x="200.8" y="252.4" style="fill:#54C0EB;" width="194" height="4.8"/>
	<rect x="200.8" y="266" style="fill:#54C0EB;" width="194" height="4.8"/>
	<rect x="200.8" y="279.2" style="fill:#54C0EB;" width="82.4" height="4.8"/>
</g>
<g>
	<polygon style="fill:#FFFFFF;" points="105.6,198 142.8,198 142.8,172.8 148.4,172.8 124.4,153.2 114.8,160.8 114.8,158 108.8,158    108.8,165.6 100,172.8 105.6,172.8  "/>
	<polygon style="fill:#FFFFFF;" points="105.6,276.4 142.8,276.4 142.8,251.2 148.4,251.2 124.4,231.6 114.8,239.2 114.8,236    108.8,236 108.8,244 100,251.2 105.6,251.2  "/>
</g>
<circle style="fill:#E6E9EE;" cx="254" cy="342" r="9.6"/>
<g>
</g>
<g>
</g>
<g>
</g>
<g>
</g>
<g>
</g>
<g>
</g>
<g>
</g>
<g>
</g>
<g>
</g>
<g>
</g>
<g>
</g>
<g>
</g>
<g>
</g>
<g>
</g>
<g>
</g>
</svg>
