<?xml version="1.0" encoding="iso-8859-1"?>
<!-- Generator: Adobe Illustrator 19.0.0, SVG Export Plug-In . SVG Version: 6.00 Build 0)  -->
<svg xmlns="http://www.w3.org/2000/svg" xmlns:xlink="http://www.w3.org/1999/xlink" version="1.1" id="Layer_1" x="0px" y="0px" viewBox="0 0 508 508" style="enable-background:new 0 0 508 508;" xml:space="preserve">
<path style="fill:#FF7058;" d="M508,254c0,140.4-113.6,254-254,254S0,394.4,0,254S113.6,0,254,0c110.8,0,204.8,70.8,239.6,169.6  c7.6,21.2,12,43.6,13.6,66.8C508,242.4,508,248,508,254z"/>
<path style="fill:#E6E9EE;" d="M417.6,390.4H90.4c-20,0-36-16-36-36l0,0H454l0,0C453.6,374.4,437.6,390.4,417.6,390.4z"/>
<polygon style="fill:#CED5E0;" points="310,354.4 198,354.4 208,369.2 300,369.2 "/>
<path style="fill:#324A5E;" d="M416.4,345.6H91.6c-10,0-17.6-8-17.6-17.6V135.2c0-10,8-17.6,17.6-17.6h325.2c10,0,17.6,8,17.6,17.6  v192.4C434.4,337.6,426.4,345.6,416.4,345.6z"/>
<rect x="89.6" y="138.4" style="fill:#84DBFF;" width="328.8" height="185.6"/>
<polygon style="fill:#FFFFFF;" points="197.6,295.6 310.4,295.6 310.4,219.2 327.6,219.2 254,160 225.6,182.8 225.6,174 207.2,174   207.2,197.6 180.4,219.2 197.6,219.2 "/>
<g>
	<circle style="fill:#84DBFF;" cx="240" cy="228.8" r="9.2"/>
	<circle style="fill:#84DBFF;" cx="268" cy="228.8" r="9.2"/>
	<circle style="fill:#84DBFF;" cx="240" cy="255.2" r="9.2"/>
	<circle style="fill:#84DBFF;" cx="268" cy="255.2" r="9.2"/>
</g>
<g>
</g>
<g>
</g>
<g>
</g>
<g>
</g>
<g>
</g>
<g>
</g>
<g>
</g>
<g>
</g>
<g>
</g>
<g>
</g>
<g>
</g>
<g>
</g>
<g>
</g>
<g>
</g>
<g>
</g>
</svg>
