<?xml version="1.0" encoding="iso-8859-1"?>
<!-- Generator: Adobe Illustrator 19.0.0, SVG Export Plug-In . SVG Version: 6.00 Build 0)  -->
<svg xmlns="http://www.w3.org/2000/svg" xmlns:xlink="http://www.w3.org/1999/xlink" version="1.1" id="Layer_1" x="0px" y="0px" viewBox="0 0 508 508" style="enable-background:new 0 0 508 508;" xml:space="preserve">
<circle style="fill:#90DFAA;" cx="254" cy="254" r="254"/>
<polygon style="fill:#FFFFFF;" points="375.2,412.8 420.8,205.6 254,69.2 87.2,205.6 132.8,412.8 "/>
<path style="fill:#FF7058;" d="M431.2,237.2L254,92.4L76.4,237.2c-3.2,2.4-7.2,4-11.2,4c-5.2,0-10.4-2.4-14-6.4  c-3.2-3.6-4.4-8.4-4-13.2s2.8-9.2,6.4-12l188.8-154c3.2-2.4,7.2-4,11.2-4s8,1.6,11.2,4l189.2,154c11.2,10.8,5.6,21.6,2.4,25.2  C453.2,238.8,442.8,245.2,431.2,237.2z"/>
<path style="fill:#324A5E;" d="M107.6,272h-26c-3.6,0-6.4,2.8-6.4,6.4v100.4c0,3.6,2.8,6.4,6.4,6.4h26c3.6,0,6.4-2.8,6.4-6.4V278.4  C114.4,274.8,111.2,272,107.6,272z"/>
<path style="fill:#FFD05B;" d="M273.2,286.4h-106l5.2-8.8h24.4c6.4,0,12-4.8,12.4-11.2c0.4-6.8-5.2-12.4-11.6-12.4h-42  c-5.2,0-10,2.8-12.8,7.2c-9.2,14.4-28.4,25.2-28.4,25.2V372h14c4.4,0,8.8,1.2,12.8,3.2l4.4,2.4c4,2,8.4,3.2,12.8,3.2h34.4h34.8  c6.4,0,12-5.2,12-12l0,0c0-6.4-5.2-12-12-12h3.2c5.6,0,10.8-4,12-9.2c1.6-7.6-4.4-14.4-11.6-14.4h2.8c6.4,0,12-4.8,12.4-11.2  c0.4-6.8-5.2-12.4-11.6-12.4H274c6.8,0,12-5.6,11.6-12.4C285.2,291.2,279.6,286.4,273.2,286.4z"/>
<circle style="fill:#84DBFF;" cx="94.8" cy="366.4" r="9.2"/>
<g>
</g>
<g>
</g>
<g>
</g>
<g>
</g>
<g>
</g>
<g>
</g>
<g>
</g>
<g>
</g>
<g>
</g>
<g>
</g>
<g>
</g>
<g>
</g>
<g>
</g>
<g>
</g>
<g>
</g>
</svg>
