<?xml version="1.0" encoding="iso-8859-1"?>
<!-- Generator: Adobe Illustrator 19.0.0, SVG Export Plug-In . SVG Version: 6.00 Build 0)  -->
<svg xmlns="http://www.w3.org/2000/svg" xmlns:xlink="http://www.w3.org/1999/xlink" version="1.1" id="Layer_1" x="0px" y="0px" viewBox="0 0 508 508" style="enable-background:new 0 0 508 508;" xml:space="preserve">
<circle style="fill:#84DBFF;" cx="254" cy="254" r="254"/>
<path style="fill:#324A5E;" d="M264,345.2l-11.6,15.6c-7.2,10-21.6,10.4-30,1.6L145.6,278c-8.4-9.2-6-23.2,4.4-29.6l16.8-10  c13.2-8,16-26,5.6-37.6l-44.8-50c-9.2-10-24.8-10.8-34.8-1.6l-10.4,9.2c-48,43.6-33.6,92.4,4.8,134.8l114,126  c38.4,42,85.6,61.6,133.6,18l10.4-9.2c10-9.2,10.8-24.8,1.6-34.8l-44.8-50C291.6,331.6,273.2,332.8,264,345.2z"/>
<g>
	<path style="fill:#FFFFFF;" d="M229.2,290.8c-7.6,0-13.2-6-13.2-13.2c0-2,0.4-48.4,47.2-72c17.6-9.2,19.6-20,19.6-23.6v-2.4   c0-11.2-9.2-20-20-20c-11.2,0-20,9.2-20,20c0,7.6-6,13.2-13.2,13.2c-7.6,0-13.2-6-13.2-13.2c0-25.6,20.8-46.8,46.8-46.8   c25.6,0,46.4,20.8,46.8,46.4v2.4c0,9.2-3.2,32.4-34,48c-18.8,9.2-26.8,24-30.4,34.8h50.8c7.6,0,13.2,6,13.2,13.2   c0,7.6-6,13.2-13.2,13.2H229.2z"/>
	<path style="fill:#FFFFFF;" d="M386.4,277.6v-20h-46c-4.4,0-8.8-2.4-11.2-6.4c-1.2-2-2-4.4-2-6.8c0-2.4,0.4-4.4,1.6-6.4l52.4-98.8   c2.4-4.4,6.8-7.2,11.6-7.2h6.4c7.6,0,13.2,6,13.2,13.2v85.6h6.4c7.2,0,13.2,6,13.2,13.2s-6,13.2-13.2,13.2h-6.4v20   c0,7.2-6,13.2-13.2,13.2C392.4,290.8,386.4,284.8,386.4,277.6z M362.4,231.2h24v-44.8L362.4,231.2z"/>
</g>
<g>
</g>
<g>
</g>
<g>
</g>
<g>
</g>
<g>
</g>
<g>
</g>
<g>
</g>
<g>
</g>
<g>
</g>
<g>
</g>
<g>
</g>
<g>
</g>
<g>
</g>
<g>
</g>
<g>
</g>
</svg>
