<?xml version="1.0" encoding="iso-8859-1"?>
<!-- Generator: Adobe Illustrator 19.0.0, SVG Export Plug-In . SVG Version: 6.00 Build 0)  -->
<svg xmlns="http://www.w3.org/2000/svg" xmlns:xlink="http://www.w3.org/1999/xlink" version="1.1" id="Layer_1" x="0px" y="0px" viewBox="0 0 508 508" style="enable-background:new 0 0 508 508;" xml:space="preserve">
<circle style="fill:#FFD05B;" cx="254" cy="254" r="254"/>
<polygon style="fill:#FF7058;" points="417.2,169.6 379.6,169.6 379.6,405.6 128.4,405.6 128.4,169.6 90.8,169.6 150,121.2 150,68   190.8,68 190.8,88 254,37.2 "/>
<path style="fill:#FFFFFF;" d="M88.4,235.2l10,171.2c0.8,10.4,9.6,18.8,20.8,18.8h270c11.2,0,20.4-8,20.8-18.8l10-171.2H88.4z   M112,292c-0.4-4.8,3.2-8.8,8-8.8h7.6c4.8,0,9.2,4,9.2,8.8l2,31.2c0.4,4.8-3.2,8.4-8,8.4h-7.2c-4.8,0-8.8-3.6-9.2-8.4L112,292z   M135.2,398H128c-4.4,0-8.4-3.6-8.8-8l-2.4-29.2c-0.4-4.4,3.2-8,8-8h7.2c4.8,0,8.8,3.6,8.8,8l2,29.2C143.2,394.4,140,398,135.2,398z   M163.6,292c-0.4-4.8,3.6-8.8,8.4-8.8h7.6c4.8,0,8.8,4,9.2,8.8l1.2,31.2c0,4.8-3.6,8.4-8.4,8.4h-7.2c-4.8,0-8.8-3.6-8.8-8.4  L163.6,292z M184.4,398h-7.2c-4.4,0-8.4-3.6-8.8-8l-1.6-29.2c-0.4-4.4,3.2-8,8-8h7.2c4.8,0,8.4,3.6,8.8,8L192,390  C192.4,394.4,188.8,398,184.4,398z M215.6,292c0-4.8,3.6-8.8,8.8-8.8h7.6c4.8,0,8.8,4,8.8,8.8l0.4,31.2c0,4.8-3.6,8.4-8.4,8.4h-7.2  c-4.8,0-8.8-3.6-8.8-8.4L215.6,292z M233.2,398H226c-4.4,0-8.4-3.6-8.4-8l-0.8-29.2c0-4.4,3.6-8,8.4-8h7.2c4.8,0,8.4,3.6,8.4,8  l0.4,29.2C241.2,394.4,237.6,398,233.2,398z M290.4,390c0,4.4-4,8-8.4,8h-7.2c-4.4,0-8.4-3.6-8-8l0.4-29.2c0-4.4,4-8,8.4-8h7.2  c4.8,0,8.4,3.6,8.4,8L290.4,390z M291.6,323.2c0,4.8-4,8.4-8.8,8.4h-7.2c-4.8,0-8.4-3.6-8.4-8.4l0.4-31.2c0-4.8,4-8.8,8.8-8.8h7.6  c4.8,0,8.8,4,8.8,8.8L291.6,323.2z M339.6,390c-0.4,4.4-4,8-8.8,8h-7.2c-4.4,0-8-3.6-8-8l1.2-29.2c0-4.4,4-8,8.8-8h7.2  c4.8,0,8.4,3.6,8,8L339.6,390z M342.8,323.2c-0.4,4.8-4.4,8.4-8.8,8.4h-7.2c-4.8,0-8.4-3.6-8.4-8.4l1.2-31.2c0-4.8,4.4-8.8,9.2-8.8  h7.6c4.8,0,8.4,4,8.4,8.8L342.8,323.2z M388.4,390c-0.4,4.4-4.4,8-8.8,8h-7.2c-4.4,0-8-3.6-7.6-8l2-29.2c0.4-4.4,4.4-8,8.8-8h7.2  c4.8,0,8,3.6,8,8L388.4,390z M393.6,323.2c-0.4,4.8-4.4,8.4-9.2,8.4h-7.2c-4.8,0-8.4-3.6-8-8.4l2-31.2c0.4-4.8,4.4-8.8,9.2-8.8h7.6  c4.8,0,8.4,4,8,8.8L393.6,323.2z"/>
<polygon style="fill:#E6E9EE;" points="418,262 419.6,235.2 88.4,235.2 90,262 "/>
<path style="fill:#FFFFFF;" d="M426.4,249.6H81.6c-4.8,0-8.4-4-8.4-8.4V204c0-4.8,4-8.4,8.4-8.4h344.8c4.8,0,8.4,4,8.4,8.4v37.2  C434.8,246,431.2,249.6,426.4,249.6z"/>
<circle style="fill:#E6E9EE;" cx="357.2" cy="222.4" r="17.2"/>
<path style="fill:#324A5E;" d="M475.6,324.4L362.8,216.8c-3.2-3.2-8-2.8-11.2,0.4s-2.8,8,0.4,11.2L464.8,336  c4.4,4.4,9.6,1.2,11.2-0.4C478.8,332.4,478.8,327.6,475.6,324.4z"/>
<circle style="fill:#E6E9EE;" cx="150.8" cy="222.4" r="17.2"/>
<path style="fill:#324A5E;" d="M156.4,217.2c-3.2-3.2-8-3.2-11.2-0.4L32.4,324.4c-3.2,3.2-3.2,8-0.4,11.2c4.4,4.4,9.6,1.6,11.2,0.4  L156,228.4C159.2,225.2,159.6,220.4,156.4,217.2z"/>
<g>
</g>
<g>
</g>
<g>
</g>
<g>
</g>
<g>
</g>
<g>
</g>
<g>
</g>
<g>
</g>
<g>
</g>
<g>
</g>
<g>
</g>
<g>
</g>
<g>
</g>
<g>
</g>
<g>
</g>
</svg>
