<?xml version="1.0" encoding="iso-8859-1"?>
<!-- Generator: Adobe Illustrator 19.0.0, SVG Export Plug-In . SVG Version: 6.00 Build 0)  -->
<svg xmlns="http://www.w3.org/2000/svg" xmlns:xlink="http://www.w3.org/1999/xlink" version="1.1" id="Layer_1" x="0px" y="0px" viewBox="0 0 508 508" style="enable-background:new 0 0 508 508;" xml:space="preserve">
<circle style="fill:#FD8469;" cx="254" cy="254" r="254"/>
<path style="fill:#324A5E;" d="M293.6,162l-12,12.4L250,142.8c-13.2-13.2-31.2-20.8-50-20.8c-39.2,0-70.8,31.6-70.8,70.8v206.4H112  v-206c0-48.4,39.6-88,88-88c23.6,0,45.6,9.2,62.4,25.6L293.6,162z"/>
<circle style="fill:#CED5E0;" cx="302.8" cy="183.2" r="26.4"/>
<path style="fill:#E6E9EE;" d="M402.8,192.8l-58-33.2c-7.2-4-16-2.8-21.6,2.8L282,204c-5.6,5.6-6.8,14.4-2.8,21.6l33.2,58  c2.8,4.8,9.2,5.6,13.2,1.6l79.2-79.2C408.8,202,407.6,195.2,402.8,192.8z"/>
<path style="fill:#CED5E0;" d="M406,204.8l-81.6,81.6l0,0c4.8,4.8,12,4.8,16.8,0l64.8-64.8C410.8,216.8,410.8,209.2,406,204.8  L406,204.8z"/>
<g>
	<path style="fill:#FFFFFF;" d="M417.2,266.8c0,4.4-3.6,8-8,8s-8-3.6-8-8s8-22.4,8-22.4S417.2,262.4,417.2,266.8z"/>
	<path style="fill:#FFFFFF;" d="M396.4,286.4c0,4.4-3.6,8-8,8s-8-3.6-8-8s8-22.4,8-22.4S396.4,282,396.4,286.4z"/>
	<path style="fill:#FFFFFF;" d="M376.4,309.2c0,4.4-3.6,8-8,8s-8-3.6-8-8s8-22.4,8-22.4S376.4,304.8,376.4,309.2z"/>
	<path style="fill:#FFFFFF;" d="M417.2,317.2c0,4.4-3.6,8-8,8s-8-3.6-8-8s8-22.4,8-22.4S417.2,312.4,417.2,317.2z"/>
	<path style="fill:#FFFFFF;" d="M396.4,336.8c0,4.4-3.6,8-8,8s-8-3.6-8-8s8-22.4,8-22.4S396.4,332.4,396.4,336.8z"/>
	<path style="fill:#FFFFFF;" d="M376.4,359.6c0,4.4-3.6,8-8,8s-8-3.6-8-8s8-22.4,8-22.4S376.4,355.2,376.4,359.6z"/>
	<path style="fill:#FFFFFF;" d="M417.2,367.6c0,4.4-3.6,8-8,8s-8-3.6-8-8s8-22.4,8-22.4S417.2,362.8,417.2,367.6z"/>
	<path style="fill:#FFFFFF;" d="M396.4,387.2c0,4.4-3.6,8-8,8s-8-3.6-8-8s8-22.4,8-22.4S396.4,382.8,396.4,387.2z"/>
	<path style="fill:#FFFFFF;" d="M376.4,410c0,4.4-3.6,8-8,8s-8-3.6-8-8s8-22.4,8-22.4S376.4,405.6,376.4,410z"/>
</g>
<g>
</g>
<g>
</g>
<g>
</g>
<g>
</g>
<g>
</g>
<g>
</g>
<g>
</g>
<g>
</g>
<g>
</g>
<g>
</g>
<g>
</g>
<g>
</g>
<g>
</g>
<g>
</g>
<g>
</g>
</svg>
