<?xml version="1.0" encoding="iso-8859-1"?>
<!-- Generator: Adobe Illustrator 19.0.0, SVG Export Plug-In . SVG Version: 6.00 Build 0)  -->
<svg xmlns="http://www.w3.org/2000/svg" xmlns:xlink="http://www.w3.org/1999/xlink" version="1.1" id="Layer_1" x="0px" y="0px" viewBox="0 0 508 508" style="enable-background:new 0 0 508 508;" xml:space="preserve">
<circle style="fill:#FFD05B;" cx="254" cy="254" r="254"/>
<polygon style="fill:#FFFFFF;" points="364,273.6 337.2,273.6 337.2,404.4 268,404.4 268,314 200.8,314 200.8,404.4 131.6,404.4   131.6,273.6 104.8,273.6 234.4,142 "/>
<g>
	<path style="fill:#324A5E;" d="M349.6,101.6L336,88c-2.4-2.4-6-2.4-8,0c-2.4,2.4-2.4,6,0,8l4,4H137.2l4-4c2.4-2.4,2.4-6,0-8   c-2.4-2.4-6-2.4-8,0l-13.6,13.6c-1.2,1.2-1.6,2.4-1.6,4s0.4,2.8,1.6,4l13.6,13.6c1.2,1.2,2.4,1.6,4,1.6s2.8-0.4,4-1.6   c2.4-2.4,2.4-6,0-8l-4-4H332l-4,4c-2.4,2.4-2.4,6,0,8c1.2,1.2,2.4,1.6,4,1.6s2.8-0.4,4-1.6l13.6-13.6   C352,107.6,352,104,349.6,101.6z"/>
	<path style="fill:#324A5E;" d="M410.8,366l-4,4V175.2l4,4c1.2,1.2,2.4,1.6,4,1.6s2.8-0.4,4-1.6c2.4-2.4,2.4-6,0-8l-13.6-13.6   c-1.2-1.2-2.4-1.6-4-1.6s-2.8,0.4-4,1.6l-13.6,13.6c-2.4,2.4-2.4,6,0,8c2.4,2.4,6,2.4,8,0l4-4V370l-4-4c-2.4-2.4-6-2.4-8,0   c-2.4,2.4-2.4,6,0,8l13.6,13.6c1.2,1.2,2.4,1.6,4,1.6s2.8-0.4,4-1.6l13.6-13.6c2.4-2.4,2.4-6,0-8C416.8,364,413.2,364,410.8,366z"/>
</g>
<g>
</g>
<g>
</g>
<g>
</g>
<g>
</g>
<g>
</g>
<g>
</g>
<g>
</g>
<g>
</g>
<g>
</g>
<g>
</g>
<g>
</g>
<g>
</g>
<g>
</g>
<g>
</g>
<g>
</g>
</svg>
