<?xml version="1.0" encoding="iso-8859-1"?>
<!-- Generator: Adobe Illustrator 19.0.0, SVG Export Plug-In . SVG Version: 6.00 Build 0)  -->
<svg xmlns="http://www.w3.org/2000/svg" xmlns:xlink="http://www.w3.org/1999/xlink" version="1.1" id="Layer_1" x="0px" y="0px" viewBox="0 0 508 508" style="enable-background:new 0 0 508 508;" xml:space="preserve">
<circle style="fill:#54C0EB;" cx="254" cy="254" r="254"/>
<path style="fill:#FFFFFF;" d="M376.8,146.8H99.2v247.6h277.2l0,0l0,0c17.6,0,32-14.4,32-32l0,0c0-17.6-14.4-32-32-32l0,0  L376.8,146.8z"/>
<path style="fill:#CED5E0;" d="M362,334.4c4.4-2.4,9.6-3.6,14.8-3.6c8.8,0,16.8,3.6,22.4,9.2s9.2,13.6,9.2,22.4V145.6  c0-17.6-14.4-32-32-32c-5.2,0-10.4,1.2-14.8,3.6v217.2H362z"/>
<g>
	<polygon style="fill:#324A5E;" points="235.6,189.6 235.6,196.4 252.4,196.4 252.4,247.2 259.2,247.2 259.2,196.4 334.4,196.4    334.4,241.2 341.2,241.2 341.2,189.6  "/>
	<polygon style="fill:#324A5E;" points="334.4,338.8 325.2,338.8 325.2,345.6 341.2,345.6 341.2,306 334.4,306  "/>
	<polygon style="fill:#324A5E;" points="143.2,231.6 143.2,196.4 202.4,196.4 202.4,231.6 200,231.6 200,238.4 209.2,238.4    209.2,196.4 216,196.4 216,189.6 136.4,189.6 136.4,231.6 136.4,265.6 136.4,345.6 155.6,345.6 155.6,338.8 143.2,338.8    143.2,265.6 157.6,265.6 157.6,258.8 143.2,258.8 143.2,238.4 179.6,238.4 179.6,258.8 179.6,258.8 179.6,265.6 186.4,265.6    186.4,231.6 186.4,231.6  "/>
	<polygon style="fill:#324A5E;" points="210,262.4 203.2,262.4 203.2,338.8 192.4,338.8 192.4,345.6 288.8,345.6 288.8,338.8    210,338.8  "/>
</g>
<g>
</g>
<g>
</g>
<g>
</g>
<g>
</g>
<g>
</g>
<g>
</g>
<g>
</g>
<g>
</g>
<g>
</g>
<g>
</g>
<g>
</g>
<g>
</g>
<g>
</g>
<g>
</g>
<g>
</g>
</svg>
