<?xml version="1.0" encoding="iso-8859-1"?>
<!-- Generator: Adobe Illustrator 19.0.0, SVG Export Plug-In . SVG Version: 6.00 Build 0)  -->
<svg xmlns="http://www.w3.org/2000/svg" xmlns:xlink="http://www.w3.org/1999/xlink" version="1.1" id="Layer_1" x="0px" y="0px" viewBox="0 0 508 508" style="enable-background:new 0 0 508 508;" xml:space="preserve">
<circle style="fill:#324A5E;" cx="254" cy="254" r="254"/>
<path style="fill:#FFFFFF;" d="M254,78.4c-70.4,78.4-172,56.8-172,56.8c0,231.2,172,328,172,328s172-96.8,172-328  C426,135.2,324.4,156.8,254,78.4z"/>
<path style="fill:#F1543F;" d="M262,356.8c0,0,77.6,8.4,80.8-88.4c0,0-12,33.6-29.6,44.4c0,0,53.2-62.4-14.4-124.8  c0,0,26.4,66.4-9.2,99.6c0,0,26.4-51.6-13.6-81.2c0,0-26-19.6-15.2-54.8c0,0-54.8,14.4-25.6,76c0,0,16.4,21.6-1.2,38.4  c0,0,4-34.8-19.2-35.6c0,0-17.2-3.6-8.4-29.6c0,0-22.8,19.2-0.4,53.6c0,0,19.6,22.4,3.6,35.6c0,0,2-35.2-30-46.4  c0,0,24.4,26.4,11.6,50.8C190.8,293.6,155.6,352.4,262,356.8z"/>
<path style="fill:#FFD05B;" d="M261.6,356.8c0,0,40,4.4,41.6-45.6c0,0-6.4,17.2-15.2,22.8c0,0,27.6-32.4-7.6-64.4  c0,0,13.6,34.4-4.8,51.6c0,0,13.6-26.4-7.2-42c0,0-13.2-10-8-28.4c0,0-28.4,7.2-13.2,39.2c0,0,8.4,11.2-0.4,20c0,0,2-18-10-18.4  c0,0-8.8-2-4.4-15.2c0,0-11.6,10-0.4,27.6c0,0,10,11.6,2,18.4c0,0,1.2-18-15.6-24c0,0,12.4,13.6,6,26  C224.8,324.4,206.4,354.4,261.6,356.8z"/>
<g>
</g>
<g>
</g>
<g>
</g>
<g>
</g>
<g>
</g>
<g>
</g>
<g>
</g>
<g>
</g>
<g>
</g>
<g>
</g>
<g>
</g>
<g>
</g>
<g>
</g>
<g>
</g>
<g>
</g>
</svg>
