<?xml version="1.0" encoding="iso-8859-1"?>
<!-- Generator: Adobe Illustrator 19.0.0, SVG Export Plug-In . SVG Version: 6.00 Build 0)  -->
<svg xmlns="http://www.w3.org/2000/svg" xmlns:xlink="http://www.w3.org/1999/xlink" version="1.1" id="Layer_1" x="0px" y="0px" viewBox="0 0 508 508" style="enable-background:new 0 0 508 508;" xml:space="preserve">
<circle style="fill:#324A5E;" cx="254" cy="254" r="254"/>
<path style="fill:#2C9984;" d="M414.4,292.4H149.2c-2.8,0-4.8-2-4.8-4.8V144c0-2.8,2-4.8,4.8-4.8h265.2c2.8,0,4.8,2,4.8,4.8v143.6  C418.8,290,416.8,292.4,414.4,292.4z"/>
<path style="fill:#E6E9EE;" d="M386.8,278.8h-210c0-11.2-9.2-20.4-20.4-20.4v-85.2c11.2,0,20.4-9.2,20.4-20.4h210  c0,11.2,9.2,20.4,20.4,20.4v85.2C396,258.4,386.8,267.6,386.8,278.8z"/>
<g>
	<circle style="fill:#2C9984;" cx="281.6" cy="215.6" r="52"/>
	<circle style="fill:#2C9984;" cx="363.6" cy="215.6" r="17.6"/>
	<circle style="fill:#2C9984;" cx="199.6" cy="215.6" r="17.6"/>
</g>
<path style="fill:#FFFFFF;" d="M298.8,228c0-9.6-7.6-17.2-17.2-17.2c-4,0-7.2-3.2-7.2-7.2s3.2-7.2,7.2-7.2c2,0,4,0.8,5.2,2.4  c2,2,4.8,2,6.8,0.4c2-2,2-4.8,0.4-6.8c-2-2.4-4.8-4-7.6-4.8V184c0-2.8-2.4-4.8-4.8-4.8c-2.8,0-4.8,2.4-4.8,4.8v3.6  c-7.2,2-12.4,8.8-12.4,16.4c0,9.6,7.6,17.2,17.2,17.2c4,0,7.2,3.2,7.2,7.2s-3.2,7.2-7.2,7.2c-2,0-4-0.8-5.2-2.4c-2-2-4.8-2-6.8-0.4  c-2,2-2,4.8-0.4,6.8c2,2.4,4.8,4,7.6,4.8v3.6c0,2.8,2.4,4.8,4.8,4.8c2.8,0,4.8-2.4,4.8-4.8v-3.6C293.6,242.4,298.8,235.6,298.8,228z  "/>
<path style="fill:#4CDBC4;" d="M358.8,368.8H93.6c-2.8,0-4.8-2-4.8-4.8V220.4c0-2.8,2-4.8,4.8-4.8h265.2c2.8,0,4.8,2,4.8,4.8V364  C363.6,366.8,361.6,368.8,358.8,368.8z"/>
<path style="fill:#FFFFFF;" d="M331.2,355.2h-210c0-11.2-9.2-20.4-20.4-20.4v-85.2c11.2,0,20.4-9.2,20.4-20.4h210  c0,11.2,9.2,20.4,20.4,20.4v85.2C340.4,334.8,331.2,344,331.2,355.2z"/>
<g>
	<circle style="fill:#4CDBC4;" cx="226.4" cy="292.4" r="52"/>
	<circle style="fill:#4CDBC4;" cx="308.4" cy="292.4" r="17.6"/>
	<circle style="fill:#4CDBC4;" cx="144.4" cy="292.4" r="17.6"/>
</g>
<path style="fill:#FFFFFF;" d="M243.6,304.4c0-9.6-7.6-17.2-17.2-17.2c-4,0-7.2-3.2-7.2-7.2s3.2-7.2,7.2-7.2c2,0,4,0.8,5.2,2.4  c2,2,4.8,2,6.8,0.4c2-2,2-4.8,0.4-6.8c-2-2.4-4.8-4-7.6-4.8v-3.6c0-2.8-2.4-4.8-4.8-4.8c-2.8,0-4.8,2.4-4.8,4.8v3.6  c-7.2,2-12.4,8.8-12.4,16.4c0,9.6,7.6,17.2,17.2,17.2c4,0,7.2,3.2,7.2,7.2s-3.2,7.2-7.2,7.2c-2,0-4-0.8-5.2-2.4c-2-2-4.8-2-6.8-0.4  c-2,2-2,4.8-0.4,6.8c2,2.4,4.8,4,7.6,4.8v3.6c0,2.8,2.4,4.8,4.8,4.8c2.8,0,4.8-2.4,4.8-4.8v-3.6  C238.4,318.8,243.6,312.4,243.6,304.4z"/>
<g>
</g>
<g>
</g>
<g>
</g>
<g>
</g>
<g>
</g>
<g>
</g>
<g>
</g>
<g>
</g>
<g>
</g>
<g>
</g>
<g>
</g>
<g>
</g>
<g>
</g>
<g>
</g>
<g>
</g>
</svg>
