<?xml version="1.0" encoding="iso-8859-1"?>
<!-- Generator: Adobe Illustrator 19.0.0, SVG Export Plug-In . SVG Version: 6.00 Build 0)  -->
<svg xmlns="http://www.w3.org/2000/svg" xmlns:xlink="http://www.w3.org/1999/xlink" version="1.1" id="Layer_1" x="0px" y="0px" viewBox="0 0 508 508" style="enable-background:new 0 0 508 508;" xml:space="preserve">
<circle style="fill:#84DBFF;" cx="254" cy="254" r="254"/>
<path style="fill:#E6E9EE;" d="M378,420H157.6c-10,0-18-8-18-18V129.6c0-10,8-18,18-18H378c10,0,18,8,18,18V402  C396,412,388,420,378,420z"/>
<path style="fill:#FFFFFF;" d="M350.4,396.4H130c-10,0-18-8-18-18V106c0-10,8-18,18-18h220.4c10,0,18,8,18,18v272.8  C368.4,388.4,360,396.4,350.4,396.4z"/>
<path style="fill:#FF7058;" d="M240,117.2L219.2,134v-6.8h-13.6v17.6l-19.6,16h12.4v56h83.2v-56H294L240,117.2z M230,194.4  c-3.6,0-6.8-3.2-6.8-6.8s3.2-6.8,6.8-6.8s6.8,3.2,6.8,6.8S233.6,194.4,230,194.4z M230,174.8c-3.6,0-6.8-3.2-6.8-6.8  s3.2-6.8,6.8-6.8s6.8,3.2,6.8,6.8S233.6,174.8,230,174.8z M250.4,194.4c-3.6,0-6.8-3.2-6.8-6.8s3.2-6.8,6.8-6.8s6.8,3.2,6.8,6.8  S254,194.4,250.4,194.4z M250.4,174.8c-3.6,0-6.8-3.2-6.8-6.8s3.2-6.8,6.8-6.8s6.8,3.2,6.8,6.8C257.2,171.6,254,174.8,250.4,174.8z"/>
<g>
	<rect x="149.2" y="238" style="fill:#E6E9EE;" width="181.6" height="11.6"/>
	<rect x="149.2" y="264.4" style="fill:#E6E9EE;" width="181.6" height="11.6"/>
	<rect x="149.2" y="291.2" style="fill:#E6E9EE;" width="181.6" height="11.6"/>
	<rect x="149.2" y="317.6" style="fill:#E6E9EE;" width="181.6" height="11.6"/>
	<rect x="149.2" y="344.4" style="fill:#E6E9EE;" width="181.6" height="11.6"/>
</g>
<g>
</g>
<g>
</g>
<g>
</g>
<g>
</g>
<g>
</g>
<g>
</g>
<g>
</g>
<g>
</g>
<g>
</g>
<g>
</g>
<g>
</g>
<g>
</g>
<g>
</g>
<g>
</g>
<g>
</g>
</svg>
