<?xml version="1.0" encoding="iso-8859-1"?>
<!-- Generator: Adobe Illustrator 19.0.0, SVG Export Plug-In . SVG Version: 6.00 Build 0)  -->
<svg xmlns="http://www.w3.org/2000/svg" xmlns:xlink="http://www.w3.org/1999/xlink" version="1.1" id="Layer_1" x="0px" y="0px" viewBox="0 0 508 508" style="enable-background:new 0 0 508 508;" xml:space="preserve">
<circle style="fill:#90DFAA;" cx="254" cy="254" r="254"/>
<path style="fill:#FFFFFF;" d="M376,390.8H84c-4.4,0-8-3.6-8-8V187.6c0-4.4,3.6-8,8-8h292c4.4,0,8,3.6,8,8v195.2  C384,387.2,380.4,390.8,376,390.8z"/>
<g>
	<circle style="fill:#90DFAA;" cx="337.6" cy="214.4" r="13.6"/>
	<circle style="fill:#90DFAA;" cx="122.8" cy="214.4" r="13.6"/>
</g>
<g>
	<path style="fill:#2B3B4E;" d="M337.6,215.2c-3.2,0-6-2.8-6-6v-79.6c0-3.2,2.8-6,6-6s6,2.8,6,6v79.2   C343.2,212.4,340.8,215.2,337.6,215.2z"/>
	<path style="fill:#2B3B4E;" d="M122.8,215.2c-3.2,0-6-2.8-6-6v-79.6c0-3.2,2.8-6,6-6s6,2.8,6,6v79.2   C128.4,212.4,126,215.2,122.8,215.2z"/>
</g>
<path style="fill:#324A5E;" d="M419.6,121.6H78.4c-4.4,0-8,3.6-8,8c0,4.4,3.6,8,8,8h332.8v316c5.6-4.4,10.8-8.8,16-13.6V129.6  C427.6,125.2,424,121.6,419.6,121.6z"/>
<path style="fill:#54C0EB;" d="M230,231.2l-23.6,19.2v-7.6h-15.2v20l-22.4,18h14v63.6h94.4v-63.6h14L230,231.2z M218.4,318.4  c-4.4,0-7.6-3.6-7.6-7.6c0-4.4,3.6-7.6,7.6-7.6s7.6,3.6,7.6,7.6S222.8,318.4,218.4,318.4z M218.4,296.4c-4.4,0-7.6-3.6-7.6-7.6  c0-4.4,3.6-7.6,7.6-7.6s7.6,3.6,7.6,7.6S222.8,296.4,218.4,296.4z M241.6,318.4c-4.4,0-7.6-3.6-7.6-7.6c0-4.4,3.6-7.6,7.6-7.6  s7.6,3.6,7.6,7.6C249.6,314.8,246,318.4,241.6,318.4z M241.6,296.4c-4.4,0-7.6-3.6-7.6-7.6c0-4.4,3.6-7.6,7.6-7.6s7.6,3.6,7.6,7.6  C249.6,292.8,246,296.4,241.6,296.4z"/>
<g>
</g>
<g>
</g>
<g>
</g>
<g>
</g>
<g>
</g>
<g>
</g>
<g>
</g>
<g>
</g>
<g>
</g>
<g>
</g>
<g>
</g>
<g>
</g>
<g>
</g>
<g>
</g>
<g>
</g>
</svg>
