<?xml version="1.0" encoding="iso-8859-1"?>
<!-- Generator: Adobe Illustrator 19.0.0, SVG Export Plug-In . SVG Version: 6.00 Build 0)  -->
<svg xmlns="http://www.w3.org/2000/svg" xmlns:xlink="http://www.w3.org/1999/xlink" version="1.1" id="Layer_1" x="0px" y="0px" viewBox="0 0 508 508" style="enable-background:new 0 0 508 508;" xml:space="preserve">
<circle style="fill:#FFD05B;" cx="254" cy="254" r="254"/>
<polygon style="fill:#324A5E;" points="254.4,328.8 264.4,351.6 235.2,351.6 245.2,328.8 217.6,328.8 186.8,400 214.4,400   225.2,374.8 274.4,374.8 285.2,400 312.8,400 282,328.8 "/>
<path style="fill:#FFFFFF;" d="M426,332H82c-8.4,0-15.2-6.8-15.2-15.2V123.2c0-8.4,6.8-15.2,15.2-15.2h344c8.4,0,15.2,6.8,15.2,15.2  v193.6C440.8,325.2,434,332,426,332z"/>
<polygon style="fill:#E6E9EE;" points="218.4,278.4 218.4,220.4 172,174.4 125.2,220.4 125.2,278.4 "/>
<path style="fill:#84DBFF;" d="M232,229.6L232,229.6c-3.2,3.2-8,3.2-10.8,0l-49.6-49.2l-49.2,49.2c-3.2,3.2-8,3.2-10.8,0l0,0  c-3.2-3.2-3.2-8,0-10.8L166,164c3.2-3.2,8.4-3.2,11.6,0l54.8,54.8C235.2,222,235.2,226.8,232,229.6z"/>
<rect x="153.2" y="228.4" style="fill:#FF7058;" width="33.6" height="49.6"/>
<g>
	<rect x="264" y="164.8" style="fill:#E6E9EE;" width="134.8" height="11.2"/>
	<rect x="264" y="190.4" style="fill:#E6E9EE;" width="134.8" height="11.2"/>
	<rect x="264" y="216" style="fill:#E6E9EE;" width="134.8" height="11.2"/>
	<rect x="264" y="241.2" style="fill:#E6E9EE;" width="134.8" height="11.2"/>
	<rect x="264" y="266.8" style="fill:#E6E9EE;" width="96" height="11.2"/>
</g>
<g>
</g>
<g>
</g>
<g>
</g>
<g>
</g>
<g>
</g>
<g>
</g>
<g>
</g>
<g>
</g>
<g>
</g>
<g>
</g>
<g>
</g>
<g>
</g>
<g>
</g>
<g>
</g>
<g>
</g>
</svg>
