<?xml version="1.0" encoding="iso-8859-1"?>
<!-- Generator: Adobe Illustrator 19.0.0, SVG Export Plug-In . SVG Version: 6.00 Build 0)  -->
<svg xmlns="http://www.w3.org/2000/svg" xmlns:xlink="http://www.w3.org/1999/xlink" version="1.1" id="Layer_1" x="0px" y="0px" viewBox="0 0 508 508" style="enable-background:new 0 0 508 508;" xml:space="preserve">
<circle style="fill:#FD8469;" cx="254" cy="254" r="254"/>
<path style="fill:#FFFFFF;" d="M372.8,72.4H135.2c-13.2,0-23.6,10.4-23.6,23.6v316c0,13.2,10.4,23.6,23.6,23.6h237.2  c13.2,0,23.6-10.4,23.6-23.6V96C396,83.2,385.6,72.4,372.8,72.4z"/>
<rect x="133.2" y="100.4" style="fill:#84DBFF;" width="242" height="103.2"/>
<polygon style="fill:#54C0EB;" points="301.2,100.4 171.2,203.6 374.8,203.6 374.8,100.4 "/>
<g>
	<rect x="133.2" y="226" style="fill:#E6E9EE;" width="46.4" height="34.8"/>
	<rect x="198.4" y="226" style="fill:#E6E9EE;" width="46.4" height="34.8"/>
	<rect x="263.6" y="226" style="fill:#E6E9EE;" width="46.4" height="34.8"/>
</g>
<rect x="328.8" y="226" style="fill:#324A5E;" width="46.4" height="34.8"/>
<g>
	<rect x="133.2" y="274.8" style="fill:#E6E9EE;" width="46.4" height="34.8"/>
	<rect x="198.4" y="274.8" style="fill:#E6E9EE;" width="46.4" height="34.8"/>
	<rect x="263.6" y="274.8" style="fill:#E6E9EE;" width="46.4" height="34.8"/>
	<rect x="328.8" y="274.8" style="fill:#E6E9EE;" width="46.4" height="34.8"/>
	<rect x="133.2" y="324" style="fill:#E6E9EE;" width="46.4" height="34.8"/>
	<rect x="198.4" y="324" style="fill:#E6E9EE;" width="46.4" height="34.8"/>
	<rect x="263.6" y="324" style="fill:#E6E9EE;" width="46.4" height="34.8"/>
	<rect x="328.8" y="324" style="fill:#E6E9EE;" width="46.4" height="34.8"/>
	<rect x="133.2" y="372.8" style="fill:#E6E9EE;" width="46.4" height="34.8"/>
	<rect x="198.4" y="372.8" style="fill:#E6E9EE;" width="46.4" height="34.8"/>
	<rect x="263.6" y="372.8" style="fill:#E6E9EE;" width="46.4" height="34.8"/>
	<rect x="328.8" y="372.8" style="fill:#E6E9EE;" width="46.4" height="34.8"/>
</g>
<g>
</g>
<g>
</g>
<g>
</g>
<g>
</g>
<g>
</g>
<g>
</g>
<g>
</g>
<g>
</g>
<g>
</g>
<g>
</g>
<g>
</g>
<g>
</g>
<g>
</g>
<g>
</g>
<g>
</g>
</svg>
