<?xml version="1.0" encoding="iso-8859-1"?>
<!-- Generator: Adobe Illustrator 19.0.0, SVG Export Plug-In . SVG Version: 6.00 Build 0)  -->
<svg xmlns="http://www.w3.org/2000/svg" xmlns:xlink="http://www.w3.org/1999/xlink" version="1.1" id="Layer_1" x="0px" y="0px" viewBox="0 0 508 508" style="enable-background:new 0 0 508 508;" xml:space="preserve">
<circle style="fill:#FD8469;" cx="254" cy="254" r="254"/>
<path style="fill:#324A5E;" d="M360,76H148c-7.6,0-13.6,6-13.6,13.6v328.8c0,7.6,6,13.6,13.6,13.6h212c7.6,0,13.6-6,13.6-13.6V89.6  C373.6,82,367.6,76,360,76z"/>
<circle style="fill:#2B3B4E;" cx="254" cy="410" r="12.4"/>
<rect x="150" y="104.4" style="fill:#FFFFFF;" width="207.6" height="283.6"/>
<polygon style="fill:#4CDBC4;" points="242.4,195.2 185.6,387.6 358,387.6 358,229.6 "/>
<polygon style="fill:#84DBFF;" points="150,104.4 150,106.8 260,134.8 268.8,104.4 "/>
<path style="fill:#E6E9EE;" d="M354,104.4h-10l-14.8,48.8L266,134.4l8.8-30h-10l-8,27.2l-63.2-18.8l2.4-8.4h-10l-1.6,5.6l-18-5.6  H150v5.6l30.8,9.2l-14.4,47.6l-16.4-5.2v10l14,4L150,222v34l23.2-77.6l63.2,18.8l-56.8,190.4H190l56-187.2l63.2,18.8l-50.4,168h10  L318.4,222l39.6,12v-10l-36.4-10.8l14.4-47.6l22,6.8v-10l-19.2-5.6L354,104.4z M239.6,188.4l-63.2-18.8l14-47.6l63.2,18.8  L239.6,188.4z M312.4,210l-63.2-18.8l14.4-47.6l63.2,18.8L312.4,210z"/>
<g>
	<path style="fill:#2B3B4E;" d="M279.6,94.4h-33.2c-2,0-3.6-1.6-3.6-3.6l0,0c0-2,1.6-3.6,3.6-3.6h33.2c2,0,3.6,1.6,3.6,3.6l0,0   C283.6,92.8,282,94.4,279.6,94.4z"/>
	<path style="fill:#2B3B4E;" d="M233.2,94.4H228c-2,0-3.6-1.6-3.6-3.6l0,0c0-2,1.6-3.6,3.6-3.6h5.2c2,0,3.6,1.6,3.6,3.6l0,0   C237.2,92.8,235.6,94.4,233.2,94.4z"/>
</g>
<path style="fill:#FF7058;" d="M311.6,194.8c0,23.6-42.4,92.4-42.4,92.4s-42.8-68.8-42.8-92.4s19.2-42.4,42.4-42.4  C292.4,152.4,311.6,171.2,311.6,194.8z"/>
<polygon style="fill:#FFFFFF;" points="292,188 286.8,188 286.8,211.6 274,211.6 274,199.6 264,199.6 264,211.6 251.2,211.6   251.2,188 246,188 254.4,181.2 254.4,173.6 260,173.6 260,176.4 268.8,169.2 "/>
<g>
</g>
<g>
</g>
<g>
</g>
<g>
</g>
<g>
</g>
<g>
</g>
<g>
</g>
<g>
</g>
<g>
</g>
<g>
</g>
<g>
</g>
<g>
</g>
<g>
</g>
<g>
</g>
<g>
</g>
</svg>
