<?xml version="1.0" encoding="iso-8859-1"?>
<!-- Generator: Adobe Illustrator 19.0.0, SVG Export Plug-In . SVG Version: 6.00 Build 0)  -->
<svg xmlns="http://www.w3.org/2000/svg" xmlns:xlink="http://www.w3.org/1999/xlink" version="1.1" id="Layer_1" x="0px" y="0px" viewBox="0 0 508 508" style="enable-background:new 0 0 508 508;" xml:space="preserve">
<circle style="fill:#FFD05B;" cx="254" cy="254" r="254"/>
<polygon style="fill:#FFFFFF;" points="375.2,420.8 420.8,213.6 254,77.2 87.2,213.6 132.8,420.8 "/>
<path style="fill:#324A5E;" d="M431.2,245.2L254,100.4L76.4,245.2c-3.2,2.4-15.6,8-25.2-2.4c-3.2-3.6-9.6-12.8,2.4-25.2l188.8-154  c3.2-2.4,7.2-4,11.2-4s8,1.6,11.2,4l189.2,154c11.6,10,5.6,21.6,2.4,25.2C453.2,246.8,442.4,252.8,431.2,245.2z"/>
<g>
	<path style="fill:#FD8469;" d="M280,242.8c0,42.8-11.6,98.8-26,98.8s-26-56-26-98.8s11.6-56,26-56C268.4,186.4,280,200,280,242.8z"/>
	<circle style="fill:#FD8469;" cx="254" cy="372.4" r="15.6"/>
</g>
<g>
</g>
<g>
</g>
<g>
</g>
<g>
</g>
<g>
</g>
<g>
</g>
<g>
</g>
<g>
</g>
<g>
</g>
<g>
</g>
<g>
</g>
<g>
</g>
<g>
</g>
<g>
</g>
<g>
</g>
</svg>
