<?xml version="1.0" encoding="iso-8859-1"?>
<!-- Generator: Adobe Illustrator 19.0.0, SVG Export Plug-In . SVG Version: 6.00 Build 0)  -->
<svg xmlns="http://www.w3.org/2000/svg" xmlns:xlink="http://www.w3.org/1999/xlink" version="1.1" id="Layer_1" x="0px" y="0px" viewBox="0 0 508 508" style="enable-background:new 0 0 508 508;" xml:space="preserve">
<circle style="fill:#84DBFF;" cx="254" cy="254" r="254"/>
<path style="fill:#FFFFFF;" d="M380.4,92.4H127.6c-8.8,0-15.6,7.2-15.6,15.6v292c0,8.8,7.2,15.6,15.6,15.6H330v-66.4h66.4V108  C396.4,99.2,389.2,92.4,380.4,92.4z"/>
<g>
	<polygon style="fill:#E6E9EE;" points="330,415.6 396.4,349.2 330,349.2  "/>
	<rect x="150.8" y="263.6" style="fill:#E6E9EE;" width="206.4" height="13.2"/>
	<rect x="150.8" y="291.6" style="fill:#E6E9EE;" width="206.4" height="13.2"/>
	<rect x="150.8" y="319.6" style="fill:#E6E9EE;" width="206.4" height="13.2"/>
</g>
<g>
	<path style="fill:#FF7058;" d="M248,156.4c0-12.8-10.4-23.6-23.6-23.6c-12.8,0-23.6,10.4-23.6,23.6s10.4,23.6,23.6,23.6   S248,169.6,248,156.4z M216.8,156.4c0-4.4,3.6-8,8-8s8,3.6,8,8s-3.6,8-8,8C220.4,164.4,216.8,160.8,216.8,156.4z"/>
	<path style="fill:#FF7058;" d="M283.6,180c-12.8,0-23.6,10.8-23.6,23.6s10.8,23.6,23.6,23.6c12.8,0,23.6-10.4,23.6-23.6   C306.8,190.8,296.4,180,283.6,180z M283.6,211.6c-4.4,0-8-3.6-8-8s3.6-8,8-8s8,3.6,8,8C291.2,208,287.6,211.6,283.6,211.6z"/>
	<path style="fill:#FF7058;" d="M289.6,146c2.8-3.6,2-8.4-1.6-11.2s-8.4-2-11.2,1.6l-58.4,78.4c-2.8,3.6-2,8.4,1.6,11.2   s8.4,2,11.2-1.6l9.2-12.4c-0.4,0.4-0.8,1.2-1.2,1.6l0,0l5.2-6.8c-0.4,0.4-0.8,1.2-1.2,1.6L289.6,146z"/>
</g>
<g>
</g>
<g>
</g>
<g>
</g>
<g>
</g>
<g>
</g>
<g>
</g>
<g>
</g>
<g>
</g>
<g>
</g>
<g>
</g>
<g>
</g>
<g>
</g>
<g>
</g>
<g>
</g>
<g>
</g>
</svg>
