<?xml version="1.0" encoding="iso-8859-1"?>
<!-- Generator: Adobe Illustrator 19.0.0, SVG Export Plug-In . SVG Version: 6.00 Build 0)  -->
<svg xmlns="http://www.w3.org/2000/svg" xmlns:xlink="http://www.w3.org/1999/xlink" version="1.1" id="Layer_1" x="0px" y="0px" viewBox="0 0 508 508" style="enable-background:new 0 0 508 508;" xml:space="preserve">
<circle style="fill:#FFD05B;" cx="254" cy="254" r="254"/>
<path style="fill:#324A5E;" d="M363.6,259.6H259.2v-50.8h-12V260h-108c-3.2,0-6,2.8-6,6v58.8h12v-53.2h102v67.2h12v-67.2H358v52.8  h12v-58.8C369.6,262.4,367.2,259.6,363.6,259.6z"/>
<g>
	<circle style="fill:#FFFFFF;" cx="251.6" cy="54.4" r="30"/>
	<path style="fill:#FFFFFF;" d="M251.6,94.8c-40,0-72.8,32-74,71.6c20,10.8,46,17.2,74,17.2c28.4,0,54-6.4,74-17.2   C324.4,126.4,291.6,94.8,251.6,94.8z"/>
	<polygon style="fill:#FFFFFF;" points="400,434 411.2,382.4 369.6,348.8 328,382.4 339.6,434  "/>
</g>
<path style="fill:#FF7058;" d="M416.8,391.2c-1.2,0-2-0.4-2.8-1.2l-44-36l-44,36c-0.8,0.8-1.6,1.2-2.8,1.2c-1.2,0-2.4-0.4-3.6-1.6  c-0.8-0.8-1.2-2-0.8-3.2c0-1.2,0.8-2.4,1.6-2.8l46.8-38.4c0.8-0.8,1.6-1.2,2.8-1.2c1.2,0,2,0.4,2.8,1.2l46.8,38.4  c0.8,0.8,1.6,2,1.6,2.8c0,1.2-0.4,2.4-0.8,3.2C419.2,390.8,418,391.2,416.8,391.2z"/>
<rect x="352.8" y="386" style="fill:#E6E9EE;" width="34" height="32.8"/>
<rect x="355.2" y="388.8" style="fill:#84DBFF;" width="28.8" height="27.6"/>
<polygon style="fill:#54C0EB;" points="378.8,388.8 359.2,416 384,416 384,388.8 "/>
<polygon style="fill:#FFFFFF;" points="168.4,434 180,382.4 138.4,348.8 96.8,382.4 108,434 "/>
<path style="fill:#FF7058;" d="M182.4,390.4l-44-36l-44,36c-2.4,2.4-5.6,0.4-6.4-0.8c-0.8-0.8-2.4-3.6,0.8-6.4l46.8-38.4  c0.8-0.8,1.6-1.2,2.8-1.2s2,0.4,2.8,1.2l46.8,38.4c3.2,3.2,1.2,5.2,0.8,6.4C188,390.8,185.6,392.8,182.4,390.4z"/>
<rect x="121.2" y="386" style="fill:#E6E9EE;" width="34" height="32.8"/>
<rect x="124" y="388.8" style="fill:#84DBFF;" width="28.8" height="27.6"/>
<polygon style="fill:#54C0EB;" points="147.2,388.8 127.6,416 152.8,416 152.8,388.8 "/>
<polygon style="fill:#FFFFFF;" points="281.6,447.6 293.2,395.6 251.6,362 210,395.6 221.6,447.6 "/>
<path style="fill:#FF7058;" d="M298.8,404.8c-1.2,0-2-0.4-2.8-1.2l-44-36l-44,36c-0.8,0.8-1.6,1.2-2.8,1.2s-2.4-0.4-3.6-1.6  c-0.8-0.8-1.2-2-0.8-3.2c0-1.2,0.8-2.4,1.6-2.8l46.8-38.4c0.8-0.8,1.6-1.2,2.8-1.2s2,0.4,2.8,1.2l46.8,38.4c0.8,0.8,1.6,2,1.6,2.8  c0,1.2-0.4,2.4-0.8,3.2C301.2,404,300,404.8,298.8,404.8z"/>
<rect x="234.8" y="399.2" style="fill:#E6E9EE;" width="34" height="32.8"/>
<rect x="237.2" y="402" style="fill:#84DBFF;" width="28.8" height="27.6"/>
<polygon style="fill:#54C0EB;" points="260.8,402 241.2,429.2 266,429.2 266,402 "/>
<g>
</g>
<g>
</g>
<g>
</g>
<g>
</g>
<g>
</g>
<g>
</g>
<g>
</g>
<g>
</g>
<g>
</g>
<g>
</g>
<g>
</g>
<g>
</g>
<g>
</g>
<g>
</g>
<g>
</g>
</svg>
