<?xml version="1.0" encoding="iso-8859-1"?>
<!-- Generator: Adobe Illustrator 19.0.0, SVG Export Plug-In . SVG Version: 6.00 Build 0)  -->
<svg xmlns="http://www.w3.org/2000/svg" xmlns:xlink="http://www.w3.org/1999/xlink" version="1.1" id="Layer_1" x="0px" y="0px" viewBox="0 0 508 508" style="enable-background:new 0 0 508 508;" xml:space="preserve">
<circle style="fill:#324A5E;" cx="254" cy="254" r="254"/>
<polygon style="fill:#FFFFFF;" points="333.2,352.8 333.2,254.4 254,176.4 174.8,254.4 174.8,352.8 "/>
<path style="fill:#84DBFF;" d="M356.4,270.4L356.4,270.4c-5.2,5.2-13.6,5.2-18.4,0l-84-83.6l-84,83.6c-5.2,5.2-13.6,5.2-18.4,0l0,0  c-5.2-5.2-5.2-13.6,0-18.4l92.8-92.8c5.6-5.6,14-5.6,19.6,0l92.8,92.8C361.6,257.2,361.6,265.6,356.4,270.4z"/>
<rect x="222.4" y="268.4" style="fill:#FF7058;" width="57.2" height="84.4"/>
<g>
	<polygon style="fill:#FFFFFF;" points="201.2,398.4 109.6,398.4 109.6,306.8 121.6,306.8 121.6,386.4 201.2,386.4  "/>
	<polygon style="fill:#FFFFFF;" points="398.4,398.4 306.8,398.4 306.8,386.4 386.4,386.4 386.4,306.8 398.4,306.8  "/>
	<polygon style="fill:#FFFFFF;" points="121.6,201.2 109.6,201.2 109.6,109.6 201.2,109.6 201.2,121.6 121.6,121.6  "/>
	<polygon style="fill:#FFFFFF;" points="398.4,201.2 386.4,201.2 386.4,121.6 306.8,121.6 306.8,109.6 398.4,109.6  "/>
</g>
<g>
</g>
<g>
</g>
<g>
</g>
<g>
</g>
<g>
</g>
<g>
</g>
<g>
</g>
<g>
</g>
<g>
</g>
<g>
</g>
<g>
</g>
<g>
</g>
<g>
</g>
<g>
</g>
<g>
</g>
</svg>
