<?xml version="1.0" encoding="iso-8859-1"?>
<!-- Generator: Adobe Illustrator 19.0.0, SVG Export Plug-In . SVG Version: 6.00 Build 0)  -->
<svg xmlns="http://www.w3.org/2000/svg" xmlns:xlink="http://www.w3.org/1999/xlink" version="1.1" id="Layer_1" x="0px" y="0px" viewBox="0 0 508 508" style="enable-background:new 0 0 508 508;" xml:space="preserve">
<circle style="fill:#324A5E;" cx="254" cy="254" r="254"/>
<path style="fill:#FFFFFF;" d="M400.4,224L266,101.2c-5.6-5.2-14.4-5.2-20,0l-57.6,53.2V148c0-8-6.8-14.8-14.8-14.8h-22  c-8,0-14.8,6.8-14.8,14.8v53.6L112,224.4c-10,9.2-3.6,25.6,10,25.6h1.6v104.8c0,8,6.8,14.8,14.8,14.8H160l24.8,62.4l25.2-62.4h164  c8,0,14.8-6.8,14.8-14.8V249.6h1.6C403.6,249.6,410,233.2,400.4,224z"/>
<g>
	<circle style="fill:#FF7058;" cx="194" cy="266" r="23.6"/>
	<circle style="fill:#FF7058;" cx="256" cy="266" r="23.6"/>
	<circle style="fill:#FF7058;" cx="318" cy="266" r="23.6"/>
</g>
<g>
</g>
<g>
</g>
<g>
</g>
<g>
</g>
<g>
</g>
<g>
</g>
<g>
</g>
<g>
</g>
<g>
</g>
<g>
</g>
<g>
</g>
<g>
</g>
<g>
</g>
<g>
</g>
<g>
</g>
</svg>
