<?xml version="1.0" encoding="iso-8859-1"?>
<!-- Generator: Adobe Illustrator 19.0.0, SVG Export Plug-In . SVG Version: 6.00 Build 0)  -->
<svg xmlns="http://www.w3.org/2000/svg" xmlns:xlink="http://www.w3.org/1999/xlink" version="1.1" id="Layer_1" x="0px" y="0px" viewBox="0 0 508 508" style="enable-background:new 0 0 508 508;" xml:space="preserve">
<circle style="fill:#FF7058;" cx="254" cy="254" r="254"/>
<polygon style="fill:#FFFFFF;" points="375.2,417.2 420.8,210 254,73.6 87.2,210 132.8,417.2 "/>
<path style="fill:#324A5E;" d="M442.8,245.6c-4,0-8-1.6-11.2-4L254,96.8L76.4,241.6c-3.2,2.4-7.2,4-11.2,4c-5.2,0-10.4-2.4-14-6.4  c-3.2-3.6-4.4-8.4-4-13.2s2.8-9.2,6.4-12L242.4,60c3.2-2.4,7.2-4,11.2-4s8,1.6,11.2,4L454,213.6c3.6,3.2,6,7.2,6.4,12  s-0.8,9.2-4,13.2C453.2,243.2,448,245.6,442.8,245.6z"/>
<polygon style="fill:#54C0EB;" points="323.6,358.8 323.6,253.2 224.4,253.2 224.4,358.8 188,358.8 274,444.8 360,358.8 "/>
<g>
	<path style="fill:#FFFFFF;" d="M270,282.4c0-8.8-7.2-16-16-16c-8.8,0-16,7.2-16,16s7.2,16,16,16C262.8,298,270,291.2,270,282.4z    M248.8,282.4c0-2.8,2.4-5.2,5.2-5.2c2.8,0,5.2,2.4,5.2,5.2c0,2.8-2.4,5.2-5.2,5.2C251.2,287.6,248.8,285.2,248.8,282.4z"/>
	<path style="fill:#FFFFFF;" d="M294,298c-8.8,0-16,7.2-16,16s7.2,16,16,16s16-7.2,16-16C309.6,305.2,302.4,298,294,298z M294,319.2   c-2.8,0-5.2-2.4-5.2-5.2s2.4-5.2,5.2-5.2c2.8,0,5.2,2.4,5.2,5.2S296.8,319.2,294,319.2z"/>
	<path style="fill:#FFFFFF;" d="M298,275.2c1.6-2.4,1.2-5.6-1.2-7.6c-2.4-1.6-5.6-1.2-7.6,1.2L250,321.6c-1.6,2.4-1.2,5.6,1.2,7.6   c2.4,1.6,5.6,1.2,7.6-1.2l6.4-8.4c-0.4,0.4-0.4,0.8-0.8,1.2l0,0l3.6-4.4c-0.4,0.4-0.4,0.8-0.8,1.2L298,275.2z"/>
</g>
<g>
</g>
<g>
</g>
<g>
</g>
<g>
</g>
<g>
</g>
<g>
</g>
<g>
</g>
<g>
</g>
<g>
</g>
<g>
</g>
<g>
</g>
<g>
</g>
<g>
</g>
<g>
</g>
<g>
</g>
</svg>
