<?xml version="1.0" encoding="iso-8859-1"?>
<!-- Generator: Adobe Illustrator 19.0.0, SVG Export Plug-In . SVG Version: 6.00 Build 0)  -->
<svg xmlns="http://www.w3.org/2000/svg" xmlns:xlink="http://www.w3.org/1999/xlink" version="1.1" id="Layer_1" x="0px" y="0px" viewBox="0 0 508 508" style="enable-background:new 0 0 508 508;" xml:space="preserve">
<circle style="fill:#324A5E;" cx="254" cy="254" r="254"/>
<polygon style="fill:#E6E9EE;" points="310.4,229.6 310.4,135.6 254,100 197.6,135.6 197.6,229.6 "/>
<polygon style="fill:#FFFFFF;" points="377.2,402.8 377.2,238.4 254,174 254,174 130.8,238.4 130.8,402.8 "/>
<path style="fill:#2B3B4E;" d="M48.4,402.8C94.4,466.4,169.6,508,254,508c84.8,0,159.6-41.6,205.6-105.2H48.4z"/>
<polygon style="fill:#E6E9EE;" points="424,402.8 424,316.8 254,248 84,316.8 84,402.8 "/>
<polygon style="fill:#FFFFFF;" points="377.2,245.2 377.2,402.8 130.8,402.8 130.8,245.2 254,180.8 "/>
<path style="fill:#FF7058;" d="M392.4,253.2L254,180.8l-138.4,72.4c-2.8,1.6-6.4,0.4-8-2.4c-1.6-2.8-0.4-6.4,2.4-8l144-75.6  l143.6,75.2c2.8,1.6,4,5.2,2.4,8C399.2,252.8,396.4,255.6,392.4,253.2z"/>
<path style="fill:#FFD05B;" d="M217.6,334v68.8H290V334c0-20-16.4-36.4-36.4-36.4l0,0C234,298,217.6,314,217.6,334z"/>
<g>
	<path style="fill:#84DBFF;" d="M316.4,316.8v36.4h38.4v-36.4c0-10.8-8.8-19.2-19.2-19.2l0,0C325.2,297.6,316.4,306,316.4,316.8z"/>
	<path style="fill:#84DBFF;" d="M152.8,316.8v36.4h38.4v-36.4c0-10.8-8.8-19.2-19.2-19.2l0,0C161.6,297.6,152.8,306,152.8,316.8z"/>
</g>
<circle style="fill:#ACB3BA;" cx="254" cy="227.6" r="16.4"/>
<g>
	<path style="fill:#E6E9EE;" d="M254,106c-3.2,0-6-2.8-6-6V29.2c0-3.2,2.8-6,6-6c3.2,0,6,2.8,6,6V100C260,103.2,257.2,106,254,106z"/>
	<path style="fill:#E6E9EE;" d="M274.8,58h-41.6c-3.2,0-6-2.8-6-6s2.8-6,6-6h41.6c3.2,0,6,2.8,6,6S278,58,274.8,58z"/>
</g>
<path style="fill:#FF7058;" d="M171.6,152c-2-2.8-0.8-6.4,2-8.4L254,92.8l80.4,50.8c2.8,1.6,3.6,5.6,2,8.4c-1.6,2.8-5.6,3.6-8.4,2  l-74-46.8l-74,46.4C178.8,154.4,174.4,156,171.6,152z"/>
<g>
</g>
<g>
</g>
<g>
</g>
<g>
</g>
<g>
</g>
<g>
</g>
<g>
</g>
<g>
</g>
<g>
</g>
<g>
</g>
<g>
</g>
<g>
</g>
<g>
</g>
<g>
</g>
<g>
</g>
</svg>
