<?xml version="1.0" encoding="iso-8859-1"?>
<!-- Generator: Adobe Illustrator 19.0.0, SVG Export Plug-In . SVG Version: 6.00 Build 0)  -->
<svg xmlns="http://www.w3.org/2000/svg" xmlns:xlink="http://www.w3.org/1999/xlink" version="1.1" id="Layer_1" x="0px" y="0px" viewBox="0 0 508 508" style="enable-background:new 0 0 508 508;" xml:space="preserve">
<circle style="fill:#84DBFF;" cx="254" cy="254" r="254"/>
<path style="fill:#324A5E;" d="M366,270.8H261.6V220h-12v51.2H142c-3.2,0-6,2.8-6,6V336h12v-53.2h102V350h12v-67.2h98.4v52.8h12  v-58.8C372,273.6,369.2,270.8,366,270.8z"/>
<polygon style="fill:#FFFFFF;" points="318.8,225.2 343.2,114.4 254,41.6 164.8,114.4 189.2,225.2 "/>
<path style="fill:#FF7058;" d="M360.8,116.4L259.6,34c-1.6-1.2-3.6-2-5.6-2s-4,0.8-5.6,2l-101.2,82.4c-6,5.2-2.8,11.6-1.2,13.6  c2,2.4,7.2,6,13.6,1.2L254,54l94.4,77.2c6,4.4,11.6,0.8,13.6-1.2C363.6,127.6,366.4,121.2,360.8,116.4z"/>
<g>
	<circle style="fill:#FFFFFF;" cx="140.4" cy="346" r="17.6"/>
	<path style="fill:#FFFFFF;" d="M140.4,369.6c-23.6,0-42.4,18.4-43.2,42c11.6,6.4,26.8,10,43.2,10s31.6-3.6,43.2-10   C182.8,388.4,163.6,369.6,140.4,369.6z"/>
	<circle style="fill:#FFFFFF;" cx="254" cy="387.2" r="17.6"/>
	<path style="fill:#FFFFFF;" d="M254,410.8c-23.6,0-42.4,18.4-43.2,42c11.6,6.4,26.8,10,43.2,10s31.6-3.6,43.2-10   C296.4,429.2,277.6,410.8,254,410.8z"/>
	<circle style="fill:#FFFFFF;" cx="367.6" cy="346" r="17.6"/>
	<path style="fill:#FFFFFF;" d="M367.6,369.6c-23.6,0-42.4,18.4-43.2,42c11.6,6.4,26.8,10,43.2,10c16.4,0,31.6-3.6,43.2-10   C410.4,388.4,391.2,369.6,367.6,369.6z"/>
</g>
<rect x="217.2" y="122" style="fill:#E6E9EE;" width="73.2" height="70"/>
<rect x="223.2" y="127.6" style="fill:#324A5E;" width="61.6" height="58.8"/>
<polygon style="fill:#2B3B4E;" points="273.6,127.6 231.2,186.4 284.8,186.4 284.8,127.6 "/>
<g>
</g>
<g>
</g>
<g>
</g>
<g>
</g>
<g>
</g>
<g>
</g>
<g>
</g>
<g>
</g>
<g>
</g>
<g>
</g>
<g>
</g>
<g>
</g>
<g>
</g>
<g>
</g>
<g>
</g>
</svg>
