<?xml version="1.0" encoding="iso-8859-1"?>
<!-- Generator: Adobe Illustrator 19.0.0, SVG Export Plug-In . SVG Version: 6.00 Build 0)  -->
<svg xmlns="http://www.w3.org/2000/svg" xmlns:xlink="http://www.w3.org/1999/xlink" version="1.1" id="Layer_1" x="0px" y="0px" viewBox="0 0 508 508" style="enable-background:new 0 0 508 508;" xml:space="preserve">
<circle style="fill:#324A5E;" cx="254" cy="254" r="254"/>
<g>
	<path style="fill:#FFD05B;" d="M399.6,178.8H153.2v-22.4h-44.8v224.4c0,12.4,10,22.4,22.4,22.4h268.8c12.4,0,22.4-10,22.4-22.4   v-180C422,188.8,412,178.8,399.6,178.8z"/>
	<path style="fill:#FFD05B;" d="M422,201.2v180c0,12.4-10,22.4-22.4,22.4H130.8c-12.4,0-22.4-10-22.4-22.4V156.4   c0,12.4,10,22.4,22.4,22.4h268.8C412,178.8,422,188.8,422,201.2z"/>
</g>
<g>
	<path style="fill:#F9B54C;" d="M377.2,134.4H130.8c-12.4,0-22.4,10-22.4,22.4s10,22.4,22.4,22.4h268.8v-22.4   C399.6,144.4,389.6,134.4,377.2,134.4z"/>
	<path style="fill:#F9B54C;" d="M430.4,263.2h-74c-16,0-29.2,13.2-29.2,29.2s12.8,29.2,29.2,29.2h74.4c2.8,0,4.8-2.4,4.8-4.8v-58.4   L430.4,263.2z"/>
</g>
<g>
	<path style="fill:#324A5E;" d="M430.4,253.2H422v10h8.8c2.8,0,4.8-2.4,4.8-4.8C435.6,255.6,433.2,253.2,430.4,253.2z"/>
	<circle style="fill:#324A5E;" cx="354.8" cy="292.4" r="19.2"/>
</g>
<ellipse transform="matrix(-0.7482 -0.6634 0.6634 -0.7482 415.5743 728.0947)" style="fill:#FFFFFF;" cx="345.938" cy="285.195" rx="2.8" ry="7.6"/>
<g>
</g>
<g>
</g>
<g>
</g>
<g>
</g>
<g>
</g>
<g>
</g>
<g>
</g>
<g>
</g>
<g>
</g>
<g>
</g>
<g>
</g>
<g>
</g>
<g>
</g>
<g>
</g>
<g>
</g>
</svg>
