<?xml version="1.0" encoding="iso-8859-1"?>
<!-- Generator: Adobe Illustrator 19.0.0, SVG Export Plug-In . SVG Version: 6.00 Build 0)  -->
<svg xmlns="http://www.w3.org/2000/svg" xmlns:xlink="http://www.w3.org/1999/xlink" version="1.1" id="Layer_1" x="0px" y="0px" viewBox="0 0 508 508" style="enable-background:new 0 0 508 508;" xml:space="preserve">
<circle style="fill:#90DFAA;" cx="254" cy="254" r="254"/>
<path style="fill:#E6E9EE;" d="M254,508c70,0,133.2-28,178.8-74c-20.4-83.2-29.2-193.6-32.4-234H284c-4,54-19.2,235.2-57.2,306.4  C235.6,507.6,244.8,508,254,508z"/>
<path style="fill:#FFFFFF;" d="M254,508c19.6,0,38.8-2.4,57.2-6.4c-42-82-58.8-282-63.2-342.4H116c-3.6,47.2-14.4,181.6-39.6,276.4  C122.4,480.4,184.8,508,254,508z"/>
<path style="fill:#2B3B4E;" d="M446,134c-0.8,0-1.6,0-2.4,0.4c-2.4-12.8-13.6-22.4-27.2-22.4c-4.4,0-8.4,1.2-12,2.8  c-5.2-5.2-12-8.8-20-8.8c-10,0-18.8,5.2-23.6,13.2c-4.8-8-13.6-13.2-23.6-13.2c-14.8,0-26.8,12-27.6,26.8c-11.6,4-19.6,15.2-19.6,28  c0,16.4,13.2,30,30,30c4.4,0,8.4-0.8,12-2.8c4.8,4,10.8,6.8,17.6,6.8c8.4,0,15.6-3.6,20.8-9.6c2.4,0.4,4.4,0.8,6.8,0.8  c6,0,11.2-2,15.6-5.2c4.8,4.4,11.2,7.2,18.4,7.2c8.4,0,15.6-3.6,20.8-9.6c4,2.4,8.4,4,13.2,4c13.2,0,24.4-10.8,24.4-24.4  C470,144.8,459.2,134,446,134z"/>
<path style="fill:#324A5E;" d="M316.8,69.6c-0.8,0-2,0-2.8,0.4c-2.8-16-17.2-28.4-34-28.4c-5.6,0-10.8,1.6-15.2,3.6  C258,38.4,249.2,34,239.2,34c-12.4,0-23.6,6.8-29.6,16.8c-6-10-17.2-16.8-29.6-16.8c-18.8,0-34,14.8-34.8,33.6  c-14.4,5.2-24.8,19.2-24.8,35.2c0,20.8,16.8,37.6,37.6,37.6c5.6,0,10.8-1.2,15.2-3.2c6,5.2,14,8.4,22.4,8.4c10.4,0,19.6-4.8,26-12  c2.8,0.8,5.6,1.2,8.8,1.2c7.6,0,14.4-2.4,20-6.4c6,5.6,14.4,9.2,23.6,9.2c10.4,0,20-4.8,26.4-12c4.8,3.2,10.4,4.8,16.8,4.8  c16.8,0,30.4-13.6,30.4-30.4C347.6,83.2,333.6,69.6,316.8,69.6z"/>
<g>
</g>
<g>
</g>
<g>
</g>
<g>
</g>
<g>
</g>
<g>
</g>
<g>
</g>
<g>
</g>
<g>
</g>
<g>
</g>
<g>
</g>
<g>
</g>
<g>
</g>
<g>
</g>
<g>
</g>
</svg>
