<?xml version="1.0" encoding="iso-8859-1"?>
<!-- Generator: Adobe Illustrator 19.0.0, SVG Export Plug-In . SVG Version: 6.00 Build 0)  -->
<svg xmlns="http://www.w3.org/2000/svg" xmlns:xlink="http://www.w3.org/1999/xlink" version="1.1" id="Layer_1" x="0px" y="0px" viewBox="0 0 508 508" style="enable-background:new 0 0 508 508;" xml:space="preserve">
<circle style="fill:#FD8469;" cx="254" cy="254" r="254"/>
<path style="fill:#F1543F;" d="M60,418c46.4,55.2,116,90,194,90s147.2-34.8,194-90H60z"/>
<path style="fill:#324A5E;" d="M409.2,108.4L360,157.2c-1.6-1.6-3.2-3.2-4.8-4.8l49.2-48.8c1.2-1.2,3.6-1.2,4.8,0  C410.8,104.8,410.8,106.8,409.2,108.4z"/>
<path id="SVGCleanerId_0" style="fill:#FFFFFF;" d="M403.2,109.2c-22.4-22.4-56.8-26-83.2-10.4l93.6,93.6  C429.2,166,426,131.6,403.2,109.2z"/>
<g>
	<path id="SVGCleanerId_0_1_" style="fill:#FFFFFF;" d="M403.2,109.2c-22.4-22.4-56.8-26-83.2-10.4l93.6,93.6   C429.2,166,426,131.6,403.2,109.2z"/>
</g>
<path style="fill:#324A5E;" d="M152.8,152c-1.6,1.6-3.2,3.2-4.8,5.2l-49.2-48.8c-1.2-1.2-1.2-3.6,0-4.8c1.2-1.2,3.6-1.2,4.8,0  L152.8,152z"/>
<path style="fill:#FFFFFF;" d="M104.8,109.2C82,131.6,78.8,166,94.4,192L188,98.4C161.6,83.2,127.2,86.4,104.8,109.2z"/>
<g>
	<path style="fill:#324A5E;" d="M352.4,418.8h-13.2l-22.4-36c8.8-4,16.8-9.2,24.4-14.8L352.4,418.8z"/>
	<path style="fill:#324A5E;" d="M191.2,382.8l-22.4,36h-13.2l11.2-50.8C174.4,373.6,182.4,378.8,191.2,382.8z"/>
</g>
<circle style="fill:#54C0EB;" cx="254" cy="254" r="143.6"/>
<circle style="fill:#FFFFFF;" cx="254" cy="254" r="118.4"/>
<g>
	<circle style="fill:#CED5E0;" cx="326.4" cy="181.6" r="4"/>
	<circle style="fill:#CED5E0;" cx="181.6" cy="326.4" r="4"/>
	<circle style="fill:#CED5E0;" cx="326.4" cy="326.4" r="4"/>
	<circle style="fill:#CED5E0;" cx="181.6" cy="181.6" r="4"/>
	<circle style="fill:#CED5E0;" cx="356.4" cy="254" r="4"/>
	<circle style="fill:#CED5E0;" cx="151.6" cy="254" r="4"/>
	<circle style="fill:#CED5E0;" cx="254" cy="356.4" r="4"/>
	<circle style="fill:#CED5E0;" cx="254" cy="151.6" r="4"/>
</g>
<g>
	<path style="fill:#2B3B4E;" d="M249.6,214c1.6,0,2.8-1.2,3.6-2.4c0.8,1.6,2,2.4,3.6,2.4c2.4,0,4-2,4-4.8c0-7.6-8-13.2-8-13.2   s-8,5.6-8,13.2C245.6,212,247.6,214,249.6,214z"/>
	<path style="fill:#2B3B4E;" d="M258,256c0.8-18.8-0.4-45.6-4.8-77.2c-4.4,31.2-5.6,58.4-4.8,77.2H258z"/>
	<path style="fill:#2B3B4E;" d="M330.8,289.2c-6-4-12.4-7.6-18-10.8c-1.2-3.2-4-8-8.8-10c-2.4-1.2-5.2-0.4-6.4,1.6   c-16-8.8-30.4-15.6-41.6-20.4l-4,8.8c11.2,5.6,25.6,12,42.4,18.4c-0.8,2,0.4,4.8,2.8,6c4.8,2.4,10.4,1.2,13.6,0   C317.2,284.8,323.6,287.2,330.8,289.2z"/>
</g>
<path style="fill:#FF7058;" d="M217.2,299.2c3.6-3.6,7.2-6.8,10.8-10.4c2.4-0.4,6-1.2,8.4-4.4c1.2-1.6,1.2-3.6,0-4.8  c8.8-9.2,16-18,21.2-24.8l-5.2-4.4c-5.6,6.4-12.8,15.2-20,25.6c-1.2-0.8-3.2-0.4-4.4,0.8c-2.4,2.8-2.8,6.8-2.4,9.2  C222.4,290.8,219.6,295.2,217.2,299.2z"/>
<circle style="fill:#324A5E;" cx="254" cy="254" r="13.6"/>
<g>
</g>
<g>
</g>
<g>
</g>
<g>
</g>
<g>
</g>
<g>
</g>
<g>
</g>
<g>
</g>
<g>
</g>
<g>
</g>
<g>
</g>
<g>
</g>
<g>
</g>
<g>
</g>
<g>
</g>
</svg>
