<?xml version="1.0" encoding="iso-8859-1"?>
<!-- Generator: Adobe Illustrator 19.0.0, SVG Export Plug-In . SVG Version: 6.00 Build 0)  -->
<svg xmlns="http://www.w3.org/2000/svg" xmlns:xlink="http://www.w3.org/1999/xlink" version="1.1" id="Layer_1" x="0px" y="0px" viewBox="0 0 508 508" style="enable-background:new 0 0 508 508;" xml:space="preserve">
<circle style="fill:#54C0EB;" cx="254" cy="254" r="254"/>
<path style="fill:#FFFFFF;" d="M185.2,139.6c-42.8,51.2-72,141.2-72,204.4c0,92.8,63.2,92,140.8,92s140.8,0.8,140.8-92  c0-63.2-29.2-153.2-72-204.4H185.2z"/>
<path style="fill:#324A5E;" d="M322,139.6H186c-6,0-10.8-4.8-10.8-10.8l0,0c0-6,4.8-10.8,10.8-10.8h136c6,0,10.8,4.8,10.8,10.8l0,0  C332.8,134.8,328,139.6,322,139.6z"/>
<path style="fill:#FFFFFF;" d="M318.8,118.4l12-32.8c2.8-7.2-2.4-13.6-11.6-13.6s-17.6,6.4-19.2,13.6c1.6-7.2-4.4-13.6-13.2-13.6  s-16.8,6-17.6,13.6c0.4-7.2-6.4-13.6-15.2-13.6s-16,6.4-15.2,13.6c-0.4-7.2-8.4-13.6-17.2-13.6c-9.2,0-14.8,6.4-13.2,13.6  C206.8,78.4,198,72,189.2,72s-14,6.4-11.6,13.6l12,32.8C189.6,118.4,318.8,118.4,318.8,118.4z"/>
<path style="fill:#FF7058;" d="M290.8,320c0-20-16.4-36.8-36.8-36.8c-8.8,0-15.6-7.2-15.6-15.6c0-8.8,7.2-15.6,15.6-15.6  c4.4,0,8.4,1.6,11.6,4.8c4,4.4,10.4,4.4,14.8,0.4s4.4-10.4,0.4-14.8c-4.4-4.8-10-8-16-10v-7.2c0-5.6-4.8-10.4-10.4-10.4  s-10.4,4.8-10.4,10.4v7.2c-15.2,4.4-26,18.4-26,35.2c0,20,16.4,36.8,36.8,36.8c8.8,0,15.6,7.2,15.6,15.6c0,8.8-7.2,15.6-15.6,15.6  c-4.4,0-8.4-1.6-11.6-4.8c-4-4.4-10.4-4.4-14.8-0.4c-4.4,4-4.4,10.4-0.4,14.8c4.4,4.8,10,8,16,10v7.2c0,5.6,4.8,10.4,10.4,10.4  s10.4-4.8,10.4-10.4v-7.2C279.6,350.4,290.8,336.4,290.8,320z"/>
<g>
</g>
<g>
</g>
<g>
</g>
<g>
</g>
<g>
</g>
<g>
</g>
<g>
</g>
<g>
</g>
<g>
</g>
<g>
</g>
<g>
</g>
<g>
</g>
<g>
</g>
<g>
</g>
<g>
</g>
</svg>
