<?xml version="1.0" encoding="iso-8859-1"?>
<!-- Generator: Adobe Illustrator 19.0.0, SVG Export Plug-In . SVG Version: 6.00 Build 0)  -->
<svg xmlns="http://www.w3.org/2000/svg" xmlns:xlink="http://www.w3.org/1999/xlink" version="1.1" id="Layer_1" x="0px" y="0px" viewBox="0 0 508 508" style="enable-background:new 0 0 508 508;" xml:space="preserve">
<circle style="fill:#324A5E;" cx="254" cy="254" r="254"/>
<path style="fill:#E6E9EE;" d="M254,432.4c-80,0-145.2-65.2-145.2-145.2S174,142,254,142s145.2,65.2,145.2,145.2  S334,432.4,254,432.4z M254,157.2c-71.2,0-129.6,58-129.6,129.6s58,129.6,129.6,129.6c71.2,0,129.6-58,129.6-129.6  S325.2,157.2,254,157.2z"/>
<polygon style="fill:#FFFFFF;" points="305.6,191.2 305.6,127.2 254,76.4 202.4,127.2 202.4,191.2 "/>
<path style="fill:#FFD05B;" d="M320.4,137.6L320.4,137.6c-3.2,3.2-8.8,3.2-12,0L254,83.2l-54.4,54.4c-3.2,3.2-8.8,3.2-12,0l0,0  c-3.2-3.2-3.2-8.8,0-12L248,65.2c3.6-3.6,9.2-3.6,12.8,0l60.4,60.4C324,128.8,324,134.4,320.4,137.6z"/>
<rect x="233.6" y="136" style="fill:#FF7058;" width="37.2" height="54.8"/>
<polygon style="fill:#FFFFFF;" points="406.4,401.2 406.4,337.6 355.2,286.8 303.6,337.6 303.6,401.2 "/>
<path style="fill:#54C0EB;" d="M421.6,348L421.6,348c-3.2,3.2-8.8,3.2-12,0l-54.4-54.4L300.4,348c-3.2,3.2-8.8,3.2-12,0l0,0  c-3.2-3.2-3.2-8.8,0-12l60.4-60.4c3.6-3.6,9.2-3.6,12.8,0L422,336C424.8,339.2,424.8,344.8,421.6,348z"/>
<rect x="334.4" y="346.4" style="fill:#FF7058;" width="37.2" height="54.8"/>
<polygon style="fill:#FFFFFF;" points="204.4,401.2 204.4,337.6 152.8,286.8 101.6,337.6 101.6,401.2 "/>
<path style="fill:#4CDBC4;" d="M219.6,348L219.6,348c-3.2,3.2-8.8,3.2-12,0l-54.8-54.4L98.4,348c-3.2,3.2-8.8,3.2-12,0l0,0  c-3.2-3.2-3.2-8.8,0-12l60.4-60.4c3.6-3.6,9.2-3.6,12.8,0L220,336C222.8,339.2,222.8,344.8,219.6,348z"/>
<rect x="132.4" y="346.4" style="fill:#FF7058;" width="37.2" height="54.8"/>
<g>
</g>
<g>
</g>
<g>
</g>
<g>
</g>
<g>
</g>
<g>
</g>
<g>
</g>
<g>
</g>
<g>
</g>
<g>
</g>
<g>
</g>
<g>
</g>
<g>
</g>
<g>
</g>
<g>
</g>
</svg>
