<?xml version="1.0" encoding="iso-8859-1"?>
<!-- Generator: Adobe Illustrator 19.0.0, SVG Export Plug-In . SVG Version: 6.00 Build 0)  -->
<svg xmlns="http://www.w3.org/2000/svg" xmlns:xlink="http://www.w3.org/1999/xlink" version="1.1" id="Layer_1" x="0px" y="0px" viewBox="0 0 508 508" style="enable-background:new 0 0 508 508;" xml:space="preserve">
<circle style="fill:#84DBFF;" cx="254" cy="254" r="254"/>
<g>
	<path style="fill:#FFFFFF;" d="M254,458c-112.4,0-204-91.6-204-204S141.6,50,254,50s204,91.6,204,204S366.4,458,254,458z M254,65.6   C150,65.6,65.6,150,65.6,254S150,442.4,254,442.4S442.4,358,442.4,254S358,65.6,254,65.6z"/>
	<path style="fill:#FFFFFF;" d="M254,458c-59.6,0-106.8-89.6-106.8-204S194,50,254,50c59.6,0,106.8,89.6,106.8,204   S313.6,458,254,458z M254,65.6c-49.2,0-90.8,86.4-90.8,188.4s41.6,188.4,90.8,188.4S344.8,356,344.8,254S303.2,65.6,254,65.6z"/>
	<rect x="78.8" y="340" style="fill:#FFFFFF;" width="350.4" height="16"/>
	<rect x="58" y="246" style="fill:#FFFFFF;" width="392.4" height="16"/>
	<rect x="246" y="58" style="fill:#FFFFFF;" width="16" height="392.4"/>
	<rect x="78.8" y="152" style="fill:#FFFFFF;" width="350.4" height="16"/>
</g>
<path style="fill:#FF7058;" d="M337.6,194c0,46-83.6,154-83.6,154s-83.6-108-83.6-154s37.2-83.6,83.6-83.6S337.6,148,337.6,194z"/>
<circle style="fill:#FFD05B;" cx="254" cy="194" r="39.2"/>
<g>
</g>
<g>
</g>
<g>
</g>
<g>
</g>
<g>
</g>
<g>
</g>
<g>
</g>
<g>
</g>
<g>
</g>
<g>
</g>
<g>
</g>
<g>
</g>
<g>
</g>
<g>
</g>
<g>
</g>
</svg>
