<?xml version="1.0" encoding="iso-8859-1"?>
<!-- Generator: Adobe Illustrator 19.0.0, SVG Export Plug-In . SVG Version: 6.00 Build 0)  -->
<svg xmlns="http://www.w3.org/2000/svg" xmlns:xlink="http://www.w3.org/1999/xlink" version="1.1" id="Layer_1" x="0px" y="0px" viewBox="0 0 505 505" style="enable-background:new 0 0 505 505;" xml:space="preserve">
<circle style="fill:#90DFAA;" cx="252.5" cy="252.5" r="252.5"/>
<path style="fill:#2C9984;" d="M44.8,396c45.6,65.8,121.6,109,207.7,109s162.1-43.2,207.7-109H44.8z"/>
<path style="fill:#FFFFFF;" d="M408.9,267.1H96.1c-11.8,0-21.4,9.6-21.4,21.4v68.6c0,11.8,9.6,21.4,21.4,21.4h312.7  c11.8,0,21.4-9.6,21.4-21.4v-68.6C430.2,276.6,420.7,267.1,408.9,267.1z"/>
<g>
	<rect x="336.3" y="378.4" style="fill:#324A5E;" width="53.1" height="17.6"/>
	<rect x="115.6" y="378.4" style="fill:#324A5E;" width="53.1" height="17.6"/>
</g>
<g>
	<path style="fill:#4CDBC4;" d="M109.1,294.5c-3.6,0-6.5,2.9-6.5,6.5v43.5c0,3.6,2.9,6.5,6.5,6.5s6.5-2.9,6.5-6.5V301   C115.6,297.4,112.7,294.5,109.1,294.5z"/>
	<path style="fill:#4CDBC4;" d="M135.6,294.5c-3.6,0-6.5,2.9-6.5,6.5v43.5c0,3.6,2.9,6.5,6.5,6.5s6.5-2.9,6.5-6.5V301   C142.2,297.4,139.2,294.5,135.6,294.5z"/>
	<path style="fill:#4CDBC4;" d="M162.2,294.5c-3.6,0-6.5,2.9-6.5,6.5v43.5c0,3.6,2.9,6.5,6.5,6.5s6.5-2.9,6.5-6.5V301   C168.7,297.4,165.8,294.5,162.2,294.5z"/>
	<path style="fill:#4CDBC4;" d="M188.7,294.5c-3.6,0-6.5,2.9-6.5,6.5v43.5c0,3.6,2.9,6.5,6.5,6.5s6.5-2.9,6.5-6.5V301   C195.3,297.4,192.4,294.5,188.7,294.5z"/>
	<path style="fill:#4CDBC4;" d="M215.3,294.5c-3.6,0-6.5,2.9-6.5,6.5v43.5c0,3.6,2.9,6.5,6.5,6.5s6.5-2.9,6.5-6.5V301   C221.8,297.4,218.9,294.5,215.3,294.5z"/>
</g>
<circle style="fill:#FF7058;" cx="369.3" cy="322.8" r="20.1"/>
<path style="fill:#324A5E;" d="M138.7,113.2c-0.1-2.4-2.6-4.2-5.5-4.2c-3,0-5.4,1.9-5.5,4.2l-7.9,153.9h26.9L138.7,113.2z"/>
<g>
</g>
<g>
</g>
<g>
</g>
<g>
</g>
<g>
</g>
<g>
</g>
<g>
</g>
<g>
</g>
<g>
</g>
<g>
</g>
<g>
</g>
<g>
</g>
<g>
</g>
<g>
</g>
<g>
</g>
</svg>
