<?xml version="1.0" encoding="iso-8859-1"?>
<!-- Generator: Adobe Illustrator 19.0.0, SVG Export Plug-In . SVG Version: 6.00 Build 0)  -->
<svg xmlns="http://www.w3.org/2000/svg" xmlns:xlink="http://www.w3.org/1999/xlink" version="1.1" id="Layer_1" x="0px" y="0px" viewBox="0 0 505 505" style="enable-background:new 0 0 505 505;" xml:space="preserve">
<circle style="fill:#90DFAA;" cx="252.5" cy="252.5" r="252.5"/>
<path style="fill:#2C9984;" d="M71.9,428.9c45.9,47,109.8,76.1,180.6,76.1s134.8-29.2,180.6-76.1H71.9z"/>
<path style="fill:#324A5E;" d="M119.3,243.9l146.6,154.5h-23.5L101.2,249.6c-3.2-3.4-3.1-8.6,0.2-11.9L244.8,94.3  c3.3-3.3,8.8-3.3,12.1,0s3.3,8.8,0,12.1L119.3,243.9z"/>
<circle style="fill:#FFFFFF;" cx="326.2" cy="175.7" r="32.8"/>
<path style="fill:#FF7058;" d="M230.3,149.3c-0.5-0.9-0.3-2.1,0.5-2.8L297,80.3c0.7-0.7,1.9-0.9,2.8-0.5l78.3,39.6  c1.5,0.7,1.8,2.7,0.6,3.9L273.8,228.2c-1.2,1.2-3.1,0.9-3.9-0.6L230.3,149.3z"/>
<path style="fill:#F1543F;" d="M227.9,98.1l20.7-20.7c2-2,5.2-2,7.2,0l22,22l-27.9,27.9l-22-22C225.9,103.3,225.9,100.1,227.9,98.1z  "/>
<path style="fill:#2B3B4E;" d="M198.3,398.4h113.6c8.1,0,14.7,6.6,14.7,14.7v16h-143v-16C183.7,405,190.2,398.4,198.3,398.4z"/>
<circle style="fill:#FFFFFF;" cx="113.1" cy="244.4" r="24.7"/>
<circle style="fill:#324A5E;" cx="113.1" cy="244.4" r="12.6"/>
<g>
</g>
<g>
</g>
<g>
</g>
<g>
</g>
<g>
</g>
<g>
</g>
<g>
</g>
<g>
</g>
<g>
</g>
<g>
</g>
<g>
</g>
<g>
</g>
<g>
</g>
<g>
</g>
<g>
</g>
</svg>
