<?xml version="1.0" encoding="iso-8859-1"?>
<!-- Generator: Adobe Illustrator 19.0.0, SVG Export Plug-In . SVG Version: 6.00 Build 0)  -->
<svg xmlns="http://www.w3.org/2000/svg" xmlns:xlink="http://www.w3.org/1999/xlink" version="1.1" id="Layer_1" x="0px" y="0px" viewBox="0 0 505 505" style="enable-background:new 0 0 505 505;" xml:space="preserve">
<circle style="fill:#324A5E;" cx="252.5" cy="252.5" r="252.5"/>
<path style="fill:#FFFFFF;" d="M326.2,186.4c-8,0-14.5,6.5-14.5,14.5v105.8h-29.5V109.8c0-17.1-13.8-30.9-30.9-30.9  s-30.9,13.8-30.9,30.9v101.4l0,0h-27.3v-66c0-8-6.5-14.5-14.5-14.5s-14.5,6.5-14.5,14.5v80.5c0,8,6.5,14.5,14.5,14.5h41.9l0,0v186  h61.7v-90.4h44c8,0,14.5-6.5,14.5-14.5V200.9C340.7,192.9,334.2,186.4,326.2,186.4z"/>
<g>
</g>
<g>
</g>
<g>
</g>
<g>
</g>
<g>
</g>
<g>
</g>
<g>
</g>
<g>
</g>
<g>
</g>
<g>
</g>
<g>
</g>
<g>
</g>
<g>
</g>
<g>
</g>
<g>
</g>
</svg>
