<?xml version="1.0" encoding="iso-8859-1"?>
<!-- Generator: Adobe Illustrator 19.0.0, SVG Export Plug-In . SVG Version: 6.00 Build 0)  -->
<svg xmlns="http://www.w3.org/2000/svg" xmlns:xlink="http://www.w3.org/1999/xlink" version="1.1" id="Layer_1" x="0px" y="0px" viewBox="0 0 505 505" style="enable-background:new 0 0 505 505;" xml:space="preserve">
<circle style="fill:#324A5E;" cx="252.5" cy="252.5" r="252.5"/>
<path style="fill:#EDF2F2;" d="M137.4,176.8v213.7c0,8,6.5,14.4,14.4,14.4h201.3c8,0,14.4-6.5,14.4-14.4V176.8H137.4z"/>
<path style="fill:#FFFFFF;" d="M370.4,123.5H134.6c-2.9,0-5.3,2.4-5.3,5.5v42.3c0,3,2.4,5.5,5.3,5.5h235.7c2.9,0,5.3-2.4,5.3-5.5  V129C375.6,126,373.3,123.5,370.4,123.5z"/>
<path style="fill:#EDF2F2;" d="M289.8,100.1h-74.5c-3.3,0-5.9,2.6-5.9,5.9v17.5h86.3V106C295.7,102.8,293,100.1,289.8,100.1z"/>
<g>
	<rect x="182.4" y="222" style="fill:#ACB3BA;" width="14.2" height="131.9"/>
	<rect x="245.4" y="222" style="fill:#ACB3BA;" width="14.2" height="131.9"/>
	<rect x="308.5" y="222" style="fill:#ACB3BA;" width="14.2" height="131.9"/>
</g>
<g>
</g>
<g>
</g>
<g>
</g>
<g>
</g>
<g>
</g>
<g>
</g>
<g>
</g>
<g>
</g>
<g>
</g>
<g>
</g>
<g>
</g>
<g>
</g>
<g>
</g>
<g>
</g>
<g>
</g>
</svg>
