<?xml version="1.0" encoding="iso-8859-1"?>
<!-- Generator: Adobe Illustrator 19.0.0, SVG Export Plug-In . SVG Version: 6.00 Build 0)  -->
<svg xmlns="http://www.w3.org/2000/svg" xmlns:xlink="http://www.w3.org/1999/xlink" version="1.1" id="Layer_1" x="0px" y="0px" viewBox="0 0 505 505" style="enable-background:new 0 0 505 505;" xml:space="preserve">
<circle style="fill:#FFD05B;" cx="252.5" cy="252.5" r="252.5"/>
<g>
	<path style="fill:#FFFFFF;" d="M309.7,264.9c-5.4-1.2-10.9-1.1-16.4-1c-5.3,0.1-10.8,0.3-15.3,3c-6.3,3.8-8.9,11.4-12.7,17.7   c-1.5,2.5-3.4,4.9-4.1,7.7c-0.8,3.3-7.3,12.8-8.4,16l18.6-3.5c11.4-0.1,23.7-2.3,31.7-10.5c3-3.1,5.2-6.9,8.1-10.1   c5.3-6,12.6-9.8,19.7-13.5C323.6,270.4,316.9,266.5,309.7,264.9z"/>
	<path style="fill:#FFFFFF;" d="M191.5,249.3c5.7-1.3,11.5-1.1,17.3-1c5.6,0.1,11.4,0.3,16.2,3.2c6.7,4,9.4,12.1,13.5,18.7   c1.6,2.6,3.6,5.2,4.3,8.2c0.9,3.5,7.8,13.5,8.8,16.9l-19.7-3.8c-12.1-0.1-25.1-2.4-33.5-11.1c-3.2-3.3-5.6-7.3-8.6-10.7   c-5.6-6.3-13.3-10.3-20.8-14.2C176.8,255,183.9,250.9,191.5,249.3z"/>
</g>
<path style="fill:#FF7058;" d="M181.4,312.9l13,123.9c0.4,3.9,3.7,6.8,7.6,6.8h100.9c3.9,0,7.2-3,7.6-6.8l13-123.9H181.4z"/>
<path style="fill:#F1543F;" d="M326.9,312.9H178.1c-1.4,0-2.4,1.2-2.1,2.6l3.9,21.2c0.2,1,1.1,1.8,2.1,1.8h141c1,0,1.9-0.7,2.1-1.8  l3.9-21.2C329.3,314.1,328.3,312.9,326.9,312.9z"/>
<rect x="247.9" y="192.5" style="fill:#324A5E;" width="9.1" height="120.3"/>
<circle style="fill:#FFFFFF;" cx="252.5" cy="146.7" r="85.3"/>
<circle style="fill:#E6E9EE;" cx="252.5" cy="146.7" r="64.7"/>
<path style="fill:#324A5E;" d="M255.7,178.4v9.8h-6.6v-9.6c-6.1,0-11.9-1.4-17.2-4.2v-12.6c1.8,1.4,4.4,2.7,7.9,3.9s6.6,1.9,9.3,2.1  v-16.5c-7.1-2.6-11.9-5.5-14.5-8.6s-3.9-6.8-3.9-11.2c0-4.8,1.7-8.8,5-12.1c3.4-3.3,7.8-5.3,13.3-5.8v-8.4h6.6v8.3  c6.4,0.3,11.2,1.3,14.3,3.1v12.3c-4.2-2.6-9-4.1-14.3-4.7v17.2c6.6,2.4,11.4,5.1,14.3,8.2c2.9,3.1,4.3,6.8,4.3,11.1  c0,5-1.6,9.1-4.8,12.1S261.7,177.7,255.7,178.4z M249.1,138.7v-14.4c-4.2,0.8-6.3,3-6.3,6.6C242.8,134,244.9,136.6,249.1,138.7z   M255.7,154v13.8c4.3-0.7,6.5-2.8,6.5-6.5C262.2,158.3,260,155.9,255.7,154z"/>
<g>
</g>
<g>
</g>
<g>
</g>
<g>
</g>
<g>
</g>
<g>
</g>
<g>
</g>
<g>
</g>
<g>
</g>
<g>
</g>
<g>
</g>
<g>
</g>
<g>
</g>
<g>
</g>
<g>
</g>
</svg>
