<?xml version="1.0" encoding="iso-8859-1"?>
<!-- Generator: Adobe Illustrator 19.0.0, SVG Export Plug-In . SVG Version: 6.00 Build 0)  -->
<svg xmlns="http://www.w3.org/2000/svg" xmlns:xlink="http://www.w3.org/1999/xlink" version="1.1" id="Layer_1" x="0px" y="0px" viewBox="0 0 505 505" style="enable-background:new 0 0 505 505;" xml:space="preserve">
<circle style="fill:#54C0EB;" cx="252.5" cy="252.5" r="252.5"/>
<rect x="229.9" y="139.9" style="fill:#324A5E;" width="147.9" height="24.8"/>
<polygon style="fill:#FFFFFF;" points="335.7,76 239.1,76 239.1,164.6 368.5,164.6 368.5,108.8 "/>
<path style="fill:#EDF2F2;" d="M386.7,164.6H118.3c-3.7,0-6.8,3-6.8,6.7v231.2c0,3.7,3,6.7,6.8,6.7h268.3c3.7,0,6.8-3,6.8-6.7V171.4  C393.4,167.6,390.4,164.6,386.7,164.6z"/>
<rect x="229.9" y="187.2" style="fill:#4CDBC4;" width="140.2" height="45.5"/>
<g>
	<path style="fill:#ACB3BA;" d="M252.5,274.4h-22c-0.3,0-0.6-0.3-0.6-0.6v-22.1c0-0.3,0.3-0.6,0.6-0.6h22c0.3,0,0.6,0.3,0.6,0.6   v22.1C253.2,274.1,252.9,274.4,252.5,274.4z"/>
	<path style="fill:#ACB3BA;" d="M311,274.4h-22.1c-0.3,0-0.6-0.3-0.6-0.6v-22.1c0-0.3,0.3-0.6,0.6-0.6H311c0.3,0,0.6,0.3,0.6,0.6   v22.1C311.6,274.1,311.4,274.4,311,274.4z"/>
	<path style="fill:#ACB3BA;" d="M369.5,274.4h-22.1c-0.3,0-0.6-0.3-0.6-0.6v-22.1c0-0.3,0.3-0.6,0.6-0.6h22.1c0.3,0,0.6,0.3,0.6,0.6   v22.1C370.1,274.1,369.8,274.4,369.5,274.4z"/>
	<path style="fill:#ACB3BA;" d="M252.5,317.5h-22c-0.3,0-0.6-0.3-0.6-0.6v-22.1c0-0.3,0.3-0.6,0.6-0.6h22c0.3,0,0.6,0.3,0.6,0.6   v22.1C253.2,317.2,252.9,317.5,252.5,317.5z"/>
	<path style="fill:#ACB3BA;" d="M311,317.5h-22.1c-0.3,0-0.6-0.3-0.6-0.6v-22.1c0-0.3,0.3-0.6,0.6-0.6H311c0.3,0,0.6,0.3,0.6,0.6   v22.1C311.6,317.2,311.4,317.5,311,317.5z"/>
	<path style="fill:#ACB3BA;" d="M369.5,317.5h-22.1c-0.3,0-0.6-0.3-0.6-0.6v-22.1c0-0.3,0.3-0.6,0.6-0.6h22.1c0.3,0,0.6,0.3,0.6,0.6   v22.1C370.1,317.2,369.8,317.5,369.5,317.5z"/>
	<path style="fill:#ACB3BA;" d="M252.5,360.6h-22c-0.3,0-0.6-0.3-0.6-0.6v-22.1c0-0.3,0.3-0.6,0.6-0.6h22c0.3,0,0.6,0.3,0.6,0.6V360   C253.2,360.3,252.9,360.6,252.5,360.6z"/>
	<path style="fill:#ACB3BA;" d="M311,360.6h-22.1c-0.3,0-0.6-0.3-0.6-0.6v-22.1c0-0.3,0.3-0.6,0.6-0.6H311c0.3,0,0.6,0.3,0.6,0.6   V360C311.6,360.3,311.4,360.6,311,360.6z"/>
	<path style="fill:#ACB3BA;" d="M369.5,360.6h-22.1c-0.3,0-0.6-0.3-0.6-0.6v-22.1c0-0.3,0.3-0.6,0.6-0.6h22.1c0.3,0,0.6,0.3,0.6,0.6   V360C370.1,360.3,369.8,360.6,369.5,360.6z"/>
</g>
<path style="fill:#324A5E;" d="M206.5,386.6c-26.1,4-52.2,4-78.3,0c1.3-79.2,1.3-158.4,0-237.7c26.1-4,52.2-4,78.3,0  C205.2,228.1,205.2,307.4,206.5,386.6z"/>
<g>
	<polygon style="fill:#EDF2F2;" points="335.7,108.8 368.5,108.8 335.7,76  "/>
	<rect x="259" y="117.4" style="fill:#EDF2F2;" width="89.6" height="5.7"/>
	<rect x="259" y="137" style="fill:#EDF2F2;" width="89.6" height="5.7"/>
</g>
<g>
</g>
<g>
</g>
<g>
</g>
<g>
</g>
<g>
</g>
<g>
</g>
<g>
</g>
<g>
</g>
<g>
</g>
<g>
</g>
<g>
</g>
<g>
</g>
<g>
</g>
<g>
</g>
<g>
</g>
</svg>
