<?xml version="1.0" encoding="iso-8859-1"?>
<!-- Generator: Adobe Illustrator 19.0.0, SVG Export Plug-In . SVG Version: 6.00 Build 0)  -->
<svg xmlns="http://www.w3.org/2000/svg" xmlns:xlink="http://www.w3.org/1999/xlink" version="1.1" id="Layer_1" x="0px" y="0px" viewBox="0 0 505 505" style="enable-background:new 0 0 505 505;" xml:space="preserve">
<circle style="fill:#FD8469;" cx="252.5" cy="252.5" r="252.5"/>
<path style="fill:#FFFFFF;" d="M323.5,92h-191v321h264.8V165.9C371.8,140.2,344,112.4,323.5,92z"/>
<path style="fill:#EDF2F2;" d="M323.5,92v73.9h73.8C377,145.5,349.1,117.6,323.5,92z"/>
<polygon style="fill:#FFD05B;" points="363.2,372.7 350.7,360.2 350.7,366.5 185.5,366.5 185.5,201.3 191.8,201.3 179.3,188.8   166.7,201.3 173,201.3 173,378.9 173.2,378.9 173.2,379 350.7,379 350.7,385.3 "/>
<rect x="211.8" y="229.5" style="fill:#FF7058;" width="25" height="115.4"/>
<rect x="256.4" y="292.5" style="fill:#4CDBC4;" width="25" height="52.3"/>
<rect x="301.1" y="264.2" style="fill:#324A5E;" width="25" height="80.7"/>
<g>
</g>
<g>
</g>
<g>
</g>
<g>
</g>
<g>
</g>
<g>
</g>
<g>
</g>
<g>
</g>
<g>
</g>
<g>
</g>
<g>
</g>
<g>
</g>
<g>
</g>
<g>
</g>
<g>
</g>
</svg>
