<?xml version="1.0" encoding="iso-8859-1"?>
<!-- Generator: Adobe Illustrator 19.0.0, SVG Export Plug-In . SVG Version: 6.00 Build 0)  -->
<svg xmlns="http://www.w3.org/2000/svg" xmlns:xlink="http://www.w3.org/1999/xlink" version="1.1" id="Layer_1" x="0px" y="0px" viewBox="0 0 505 505" style="enable-background:new 0 0 505 505;" xml:space="preserve">
<circle style="fill:#4CDBC4;" cx="252.5" cy="252.5" r="252.5"/>
<path style="fill:#FFFFFF;" d="M378.2,276.8c-68.7-30.9-137.4,30.9-206.2,0c0-51.5,0-103,0-154.6c68.7,30.9,137.4-30.9,206.2,0  C378.2,173.8,378.2,225.3,378.2,276.8z"/>
<path style="fill:#324A5E;" d="M167.6,109h-8.8c-2.4,0-4.4,2-4.4,4.4v297h17.7v-297C172,111,170,109,167.6,109z"/>
<path style="fill:#2B3B4E;" d="M197.1,410.5h-67.8c-1.3,0-2.4,1.1-2.4,2.4v12.9c0,1.3,1.1,2.4,2.4,2.4h67.8c1.3,0,2.4-1.1,2.4-2.4  v-12.9C199.5,411.6,198.4,410.5,197.1,410.5z"/>
<g>
</g>
<g>
</g>
<g>
</g>
<g>
</g>
<g>
</g>
<g>
</g>
<g>
</g>
<g>
</g>
<g>
</g>
<g>
</g>
<g>
</g>
<g>
</g>
<g>
</g>
<g>
</g>
<g>
</g>
</svg>
