<?xml version="1.0" encoding="iso-8859-1"?>
<!-- Generator: Adobe Illustrator 19.0.0, SVG Export Plug-In . SVG Version: 6.00 Build 0)  -->
<svg xmlns="http://www.w3.org/2000/svg" xmlns:xlink="http://www.w3.org/1999/xlink" version="1.1" id="Layer_1" x="0px" y="0px" viewBox="0 0 505 505" style="enable-background:new 0 0 505 505;" xml:space="preserve">
<circle style="fill:#FF7058;" cx="252.5" cy="252.5" r="252.5"/>
<path style="fill:#324A5E;" d="M326.9,60.5c-0.2-2.7-3-4.9-6.3-4.9c-3.4,0-6.1,2.1-6.3,4.9l-5.4,81.8h23.4L326.9,60.5z"/>
<path style="fill:#FFFFFF;" d="M334.6,142.3H170.4c-4,0-7.3,3.7-7.3,8.3v290.5c0,4.6,3.2,8.3,7.3,8.3h164.1c4,0,7.3-3.7,7.3-8.3  V150.6C341.8,146,338.6,142.3,334.6,142.3z"/>
<rect x="179.4" y="166.1" style="fill:#4CDBC4;" width="146.3" height="134.7"/>
<g>
	<path style="fill:#EDF2F2;" d="M210,320.2h-27.6c-1.7,0-3,1.6-3,3.6v15c0,2,1.4,3.6,3,3.6H210c1.7,0,3-1.6,3-3.6v-15   C213,321.9,211.7,320.2,210,320.2z"/>
	<path style="fill:#EDF2F2;" d="M266.3,320.2h-27.6c-1.7,0-3,1.6-3,3.6v15c0,2,1.4,3.6,3,3.6h27.6c1.7,0,3-1.6,3-3.6v-15   C269.3,321.9,268,320.2,266.3,320.2z"/>
	<path style="fill:#EDF2F2;" d="M322.6,320.2H295c-1.7,0-3,1.6-3,3.6v15c0,2,1.4,3.6,3,3.6h27.6c1.7,0,3-1.6,3-3.6v-15   C325.6,321.9,324.3,320.2,322.6,320.2z"/>
	<path style="fill:#EDF2F2;" d="M210,361.8h-27.6c-1.7,0-3,1.6-3,3.6v15c0,2,1.4,3.6,3,3.6H210c1.7,0,3-1.6,3-3.6v-15   C213,363.4,211.7,361.8,210,361.8z"/>
	<path style="fill:#EDF2F2;" d="M266.3,361.8h-27.6c-1.7,0-3,1.6-3,3.6v15c0,2,1.4,3.6,3,3.6h27.6c1.7,0,3-1.6,3-3.6v-15   C269.3,363.4,268,361.8,266.3,361.8z"/>
	<path style="fill:#EDF2F2;" d="M322.6,361.8H295c-1.7,0-3,1.6-3,3.6v15c0,2,1.4,3.6,3,3.6h27.6c1.7,0,3-1.6,3-3.6v-15   C325.6,363.4,324.3,361.8,322.6,361.8z"/>
	<path style="fill:#EDF2F2;" d="M210,403.3h-27.6c-1.7,0-3,1.6-3,3.6v15c0,2,1.4,3.6,3,3.6H210c1.7,0,3-1.6,3-3.6v-15   C213,404.9,211.7,403.3,210,403.3z"/>
	<path style="fill:#EDF2F2;" d="M266.3,403.3h-27.6c-1.7,0-3,1.6-3,3.6v15c0,2,1.4,3.6,3,3.6h27.6c1.7,0,3-1.6,3-3.6v-15   C269.3,404.9,268,403.3,266.3,403.3z"/>
	<path style="fill:#EDF2F2;" d="M322.6,403.3H295c-1.7,0-3,1.6-3,3.6v15c0,2,1.4,3.6,3,3.6h27.6c1.7,0,3-1.6,3-3.6v-15   C325.6,404.9,324.3,403.3,322.6,403.3z"/>
</g>
<g>
</g>
<g>
</g>
<g>
</g>
<g>
</g>
<g>
</g>
<g>
</g>
<g>
</g>
<g>
</g>
<g>
</g>
<g>
</g>
<g>
</g>
<g>
</g>
<g>
</g>
<g>
</g>
<g>
</g>
</svg>
