<?xml version="1.0" encoding="iso-8859-1"?>
<!-- Generator: Adobe Illustrator 19.0.0, SVG Export Plug-In . SVG Version: 6.00 Build 0)  -->
<svg xmlns="http://www.w3.org/2000/svg" xmlns:xlink="http://www.w3.org/1999/xlink" version="1.1" id="Layer_1" x="0px" y="0px" viewBox="0 0 505 505" style="enable-background:new 0 0 505 505;" xml:space="preserve">
<circle style="fill:#324A5E;" cx="252.5" cy="252.5" r="252.5"/>
<path style="fill:#FFFFFF;" d="M317.8,412.4h-111c-0.4,0-0.6-0.3-0.6-0.6V93.3c0-0.4,0.3-0.6,0.6-0.6h110.9c0.4,0,0.6,0.3,0.6,0.6  v318.5C318.4,412.1,318.1,412.4,317.8,412.4z"/>
<g>
	<rect x="228" y="115.8" style="fill:#FF7058;" width="68.6" height="169.4"/>
	<rect x="228" y="295.9" style="fill:#FF7058;" width="68.6" height="12"/>
</g>
<circle style="fill:#CED5E0;" cx="262.3" cy="369.4" r="19.8"/>
<path style="fill:#FFFFFF;" d="M188.3,412.4H99.1c-0.4,0-0.6-0.3-0.6-0.6V182.9c0-0.4,0.3-0.6,0.6-0.6h89.2c0.4,0,0.6,0.3,0.6,0.6  v228.8C188.9,412.1,188.6,412.4,188.3,412.4z"/>
<g>
	<rect x="116" y="200.9" style="fill:#4CDBC4;" width="55.3" height="108.9"/>
	<rect x="116" y="318.5" style="fill:#4CDBC4;" width="55.3" height="9.7"/>
</g>
<circle style="fill:#CED5E0;" cx="143.7" cy="377.7" r="16"/>
<path style="fill:#FFFFFF;" d="M405.9,412.4h-69.6c-0.4,0-0.6-0.3-0.6-0.6v-179c0-0.4,0.3-0.6,0.6-0.6h69.6c0.4,0,0.6,0.3,0.6,0.6  v179C406.6,412.1,406.3,412.4,405.9,412.4z"/>
<g>
	<rect x="349.5" y="246.7" style="fill:#84DBFF;" width="43.3" height="85.4"/>
	<rect x="349.5" y="338.8" style="fill:#84DBFF;" width="43.3" height="7.6"/>
</g>
<circle style="fill:#CED5E0;" cx="159.2" cy="345.3" r="8.8"/>
<g>
</g>
<g>
</g>
<g>
</g>
<g>
</g>
<g>
</g>
<g>
</g>
<g>
</g>
<g>
</g>
<g>
</g>
<g>
</g>
<g>
</g>
<g>
</g>
<g>
</g>
<g>
</g>
<g>
</g>
</svg>
