<?xml version="1.0" encoding="iso-8859-1"?>
<!-- Generator: Adobe Illustrator 19.0.0, SVG Export Plug-In . SVG Version: 6.00 Build 0)  -->
<svg xmlns="http://www.w3.org/2000/svg" xmlns:xlink="http://www.w3.org/1999/xlink" version="1.1" id="Layer_1" x="0px" y="0px" viewBox="0 0 505 505" style="enable-background:new 0 0 505 505;" xml:space="preserve">
<circle style="fill:#90DFAA;" cx="252.5" cy="252.5" r="252.5"/>
<g>
	<path style="fill:#324A5E;" d="M377.5,154.5l-30.3-24.6c-1.1-0.9-2.8-0.8-3.7,0.3l-8.4,10.1c-0.9,1.1-0.7,2.7,0.4,3.6l7.8,6.3   l-26.1,31.6l14.7,11.9l26.1-31.6l7.8,6.3c1.1,0.9,2.8,0.8,3.7-0.3l8.4-10.1C378.8,157.1,378.7,155.5,377.5,154.5z"/>
	<path style="fill:#324A5E;" d="M127.5,154.5l30.3-24.6c1.1-0.9,2.8-0.8,3.7,0.3l8.4,10.1c0.9,1.1,0.7,2.7-0.4,3.6l-7.8,6.3   l26.1,31.6l-14.7,11.9L147,162.1l-7.8,6.3c-1.1,0.9-2.8,0.8-3.7-0.3l-8.4-10.1C126.2,157.1,126.3,155.5,127.5,154.5z"/>
	<path style="fill:#324A5E;" d="M265.6,75h-26.2c-13.9,0-25.2,11.3-25.2,25.2s11.3,25.2,25.2,25.2h3.8v34.1h18.5v-34.1h3.8   c13.9,0,25.2-11.3,25.2-25.2C290.8,86.2,279.5,75,265.6,75z M265.5,113.8h-26c-7.5,0-13.7-6.1-13.7-13.7c0-7.5,6.1-13.7,13.7-13.7   h26c7.5,0,13.7,6.1,13.7,13.7C279.1,107.7,273,113.8,265.5,113.8z"/>
</g>
<circle style="fill:#2B3B4E;" cx="252.5" cy="285.7" r="144.3"/>
<circle style="fill:#FFFFFF;" cx="252.5" cy="285.7" r="116"/>
<g>
	<rect x="248.4" y="179.5" style="fill:#324A5E;" width="8.1" height="13.3"/>
	<rect x="249.7" y="340.8" style="fill:#324A5E;" width="5.7" height="9.3"/>
	<rect x="345.4" y="281.7" style="fill:#324A5E;" width="13.3" height="8.1"/>
	<rect x="146.3" y="281.7" style="fill:#324A5E;" width="13.3" height="8.1"/>
	
		<rect x="318.823" y="208.651" transform="matrix(-0.7071 -0.7071 0.7071 -0.7071 398.9384 595.8475)" style="fill:#324A5E;" width="8.1" height="13.3"/>
	
		<rect x="178.014" y="349.46" transform="matrix(-0.7071 -0.7071 0.7071 -0.7071 58.9948 736.6563)" style="fill:#324A5E;" width="8.1" height="13.3"/>
	
		<rect x="318.889" y="349.434" transform="matrix(0.7071 -0.7071 0.7071 0.7071 -157.2023 332.6471)" style="fill:#324A5E;" width="8.1" height="13.3"/>
	
		<rect x="178.079" y="208.664" transform="matrix(0.7071 -0.7071 0.7071 0.7071 -98.9054 191.8484)" style="fill:#324A5E;" width="8.1" height="13.3"/>
</g>
<path style="fill:#FF7058;" d="M257.1,330.8v14h-9.4v-13.6c-8.7,0-16.9-2-24.4-5.9v-17.9c2.5,2,6.2,3.9,11.2,5.6s9.4,2.7,13.2,3  v-23.5c-10.1-3.7-17-7.8-20.6-12.2c-3.7-4.4-5.5-9.7-5.5-16c0-6.8,2.4-12.5,7.2-17.3s11.1-7.5,19-8.3v-12h9.4v11.8  c9.1,0.4,15.9,1.9,20.4,4.4v17.4c-6-3.7-12.8-5.9-20.4-6.7v24.5c9.4,3.4,16.2,7.3,20.3,11.7c4.1,4.4,6.1,9.7,6.1,15.9  c0,7.2-2.3,12.9-6.8,17.3C272.1,327.2,265.6,329.9,257.1,330.8z M247.7,274.3v-20.5c-6,1.1-9,4.2-9,9.4  C238.7,267.6,241.7,271.3,247.7,274.3z M257.1,296.1v19.6c6.2-0.9,9.2-4,9.2-9.2C266.3,302.2,263.2,298.8,257.1,296.1z"/>
<g>
</g>
<g>
</g>
<g>
</g>
<g>
</g>
<g>
</g>
<g>
</g>
<g>
</g>
<g>
</g>
<g>
</g>
<g>
</g>
<g>
</g>
<g>
</g>
<g>
</g>
<g>
</g>
<g>
</g>
</svg>
