<?xml version="1.0" encoding="iso-8859-1"?>
<!-- Generator: Adobe Illustrator 19.0.0, SVG Export Plug-In . SVG Version: 6.00 Build 0)  -->
<svg xmlns="http://www.w3.org/2000/svg" xmlns:xlink="http://www.w3.org/1999/xlink" version="1.1" id="Layer_1" x="0px" y="0px" viewBox="0 0 505 505" style="enable-background:new 0 0 505 505;" xml:space="preserve">
<circle style="fill:#54C0EB;" cx="252.5" cy="252.5" r="252.5"/>
<path style="fill:#FFFFFF;" d="M386.3,367.1L278.1,171.8h0.2V79.6h-76.9v92.2h0.2L93.3,367.1c-5.1,9.1,1.7,20.5,12.1,20.5h268.7  C384.6,387.6,391.4,376.1,386.3,367.1z"/>
<path style="fill:#4CDBC4;" d="M319.4,269H160l-53.5,102.1c-0.7,1.2,0.3,2.8,1.7,2.8H371c1.4,0,2.3-1.5,1.7-2.8L319.4,269z"/>
<path style="fill:#324A5E;" d="M278.7,65.7h-77.8c-3.9,0-7,3.1-7,7s3.1,7,7,7h77.8c3.9,0,7-3.1,7-7  C285.7,68.8,282.6,65.7,278.7,65.7z"/>
<circle style="fill:#4CDBC4;" cx="267.5" cy="233.6" r="15"/>
<g>
	<circle style="fill:#1BA78C;" cx="233.7" cy="297.5" r="6"/>
	<circle style="fill:#1BA78C;" cx="213.3" cy="330.6" r="15.4"/>
</g>
<circle style="fill:#4CDBC4;" cx="236.5" cy="171.4" r="14.3"/>
<circle style="fill:#324A5E;" cx="354.7" cy="291.5" r="56"/>
<path style="fill:#FFFFFF;" d="M357.9,323.1v9.8h-6.6v-9.6c-6.1,0-11.9-1.4-17.1-4.2v-12.6c1.8,1.4,4.4,2.7,7.8,3.9  c3.5,1.2,6.6,1.9,9.3,2.1V296c-7.1-2.6-11.9-5.5-14.5-8.6s-3.9-6.8-3.9-11.2c0-4.7,1.7-8.8,5-12.1c3.4-3.3,7.8-5.3,13.3-5.8v-8.4  h6.6v8.3c6.4,0.3,11.1,1.3,14.3,3.1v12.2c-4.2-2.6-9-4.1-14.3-4.7V286c6.6,2.4,11.4,5.1,14.2,8.2c2.9,3.1,4.3,6.8,4.3,11.1  c0,5-1.6,9.1-4.8,12.1C368.4,320.6,363.8,322.4,357.9,323.1z M351.3,283.4V269c-4.2,0.8-6.3,2.9-6.3,6.6  C345,278.7,347.1,281.3,351.3,283.4z M357.9,298.8v13.7c4.3-0.7,6.5-2.8,6.5-6.5C364.4,303,362.2,300.6,357.9,298.8z"/>
<g>
</g>
<g>
</g>
<g>
</g>
<g>
</g>
<g>
</g>
<g>
</g>
<g>
</g>
<g>
</g>
<g>
</g>
<g>
</g>
<g>
</g>
<g>
</g>
<g>
</g>
<g>
</g>
<g>
</g>
</svg>
