<?xml version="1.0" encoding="iso-8859-1"?>
<!-- Generator: Adobe Illustrator 19.0.0, SVG Export Plug-In . SVG Version: 6.00 Build 0)  -->
<svg xmlns="http://www.w3.org/2000/svg" xmlns:xlink="http://www.w3.org/1999/xlink" version="1.1" id="Layer_1" x="0px" y="0px" viewBox="0 0 505 505" style="enable-background:new 0 0 505 505;" xml:space="preserve">
<circle style="fill:#FD8469;" cx="252.5" cy="252.5" r="252.5"/>
<g>
	<path style="fill:#FFFFFF;" d="M388.7,206.7h-30.8c-0.8,0-1.5-0.7-1.5-1.5v-18.7c0-0.8,0.7-1.5,1.5-1.5h30.8c0.8,0,1.5,0.7,1.5,1.5   v18.7C390.2,206.1,389.5,206.7,388.7,206.7z"/>
	<path style="fill:#FFFFFF;" d="M288.4,239.7c-0.1-0.4-0.5-0.7-0.9-0.7h-4.2l3.6-0.1c0.6,0,1.1-0.6,0.9-1.2   c-13-46.5-46.7-79.7-86.3-79.7s-73.3,33.2-86.4,79.7c-0.2,0.6,0.3,1.2,0.9,1.2l3.6,0.1h-4.1c-0.4,0-0.8,0.3-0.9,0.7   c-3.4,12.8-5.4,26.6-5.4,41c0,67.8,41.3,122.7,92.3,122.7s92.3-54.9,92.3-122.7C293.8,266.3,291.8,252.5,288.4,239.7z"/>
</g>
<path style="fill:#EDF2F2;" d="M201.5,158c-39.6,0-73.3,33.2-86.4,79.7c-0.2,0.6,0.3,1.2,0.9,1.2h170.9c0.6,0,1.1-0.6,0.9-1.2  C274.8,191.2,241.1,158,201.5,158z"/>
<g>
	<path style="fill:#324A5E;" d="M200.8,173.9L200.8,173.9c-4.3,0.4-7.7,4-7.7,8.4V215c0,4.6,3.7,8.3,8.4,8.4c0.1,0,0.2,0,0.3,0   s0.1,0,0.2,0l0,0c4.5-0.2,8.1-3.8,8.1-8.4v-32.7C210.1,177.4,205.9,173.4,200.8,173.9z"/>
	<path style="fill:#324A5E;" d="M377.1,235.2h-7.5c-0.6,0-1,0.5-1,1v90.9c0,14-11.1,25.5-25,25.8c-0.1-0.1-0.1-0.2-0.2-0.3   c-14.3,0.2-25.9-11.6-25.9-25.9V102.5c0-0.6-0.5-1-1-1h-63.6c-30.7,0-55.7,24.7-56.2,55.3c0,0.6,0.5,1,1,1h7.5c0.6,0,1-0.4,1-0.9   c0.5-25.4,21.3-45.9,46.8-45.9h54.3c0.6,0,1,0.5,1,1L308,326.7c0,15.9,10.7,29.4,25.3,33.6c-0.1,0.1-0.1,0.2-0.2,0.3   c23.5,6.5,45-11.1,45-33.6v-90.9C378.1,235.6,377.6,235.2,377.1,235.2z"/>
</g>
<path style="fill:#2B3B4E;" d="M394.9,203.6h-43.2c-0.5,0-1,0.4-1,1v37.5c0,0.5,0.4,1,1,1h43.2c0.5,0,1-0.4,1-1v-37.5  C395.8,204,395.4,203.6,394.9,203.6z"/>
<g>
	<path style="fill:#EDF2F2;" d="M380,199.5h-1.9c-0.8,0-1.5-0.7-1.5-1.5v-6.7c0-0.8,0.7-1.5,1.5-1.5h1.9c0.8,0,1.5,0.7,1.5,1.5v6.7   C381.5,198.8,380.8,199.5,380,199.5z"/>
	<path style="fill:#EDF2F2;" d="M368.5,199.5h-1.9c-0.8,0-1.5-0.7-1.5-1.5v-6.7c0-0.8,0.7-1.5,1.5-1.5h1.9c0.8,0,1.5,0.7,1.5,1.5   v6.7C370.1,198.8,369.4,199.5,368.5,199.5z"/>
</g>
<g>
</g>
<g>
</g>
<g>
</g>
<g>
</g>
<g>
</g>
<g>
</g>
<g>
</g>
<g>
</g>
<g>
</g>
<g>
</g>
<g>
</g>
<g>
</g>
<g>
</g>
<g>
</g>
<g>
</g>
</svg>
