<?xml version="1.0" encoding="iso-8859-1"?>
<!-- Generator: Adobe Illustrator 19.0.0, SVG Export Plug-In . SVG Version: 6.00 Build 0)  -->
<svg xmlns="http://www.w3.org/2000/svg" xmlns:xlink="http://www.w3.org/1999/xlink" version="1.1" id="Layer_1" x="0px" y="0px" viewBox="0 0 504.8 504.8" style="enable-background:new 0 0 504.8 504.8;" xml:space="preserve">
<ellipse style="fill:#84DBFF;" cx="252.4" cy="252.4" rx="252.4" ry="252.4"/>
<circle style="fill:#FF7058;" cx="239.9" cy="265.1" r="160.1"/>
<ellipse style="fill:#FFFFFF;" cx="239.9" cy="265" rx="117.9" ry="117.9"/>
<ellipse style="fill:#FF7058;" cx="239.9" cy="265" rx="75.5" ry="75.5"/>
<circle style="fill:#FFFFFF;" cx="239.9" cy="265.1" r="33.1"/>
<path style="fill:#324A5E;" d="M408.1,95.8c-2.1-8.3-8.6-15.1-17.4-16.4c-11.7-1.7-22,6.3-24.2,18c-1.1,5.8-1.3,12-0.4,17.8  c0.9,5.6,1.2,11.5,1.8,17.1v0.1c0,0.4-0.3,0.8-0.7,0.9c-13,4.2-45.9,16.6-72.6,43.3c-28.8,28.8-36.3,47-32.4,57.5  c0.1,0.3,0.1,0.7-0.1,0.9L240,263.1c-0.3,0.4-0.3,0.9,0.1,1.3c0.3,0.3,0.9,0.4,1.3,0.1l28.1-22.1c0.3-0.2,0.6-0.3,0.9-0.1  c10.5,3.9,28.7-3.6,57.5-32.4c26.7-26.7,39.2-59.6,43.3-72.6c0.1-0.4,0.5-0.7,0.9-0.7c4.2,0,8.4,0,12.7,0c4.6,0,9.2,0.6,13.9,0.4  c6.6-0.4,13.7-1.5,18.9-5.8c4.6-3.7,7.3-9.1,7.3-15.1c-0.1-9.7-7-17.8-16.3-19.7C408.5,96.5,408.2,96.2,408.1,95.8z"/>
<g>
</g>
<g>
</g>
<g>
</g>
<g>
</g>
<g>
</g>
<g>
</g>
<g>
</g>
<g>
</g>
<g>
</g>
<g>
</g>
<g>
</g>
<g>
</g>
<g>
</g>
<g>
</g>
<g>
</g>
</svg>
