<?xml version="1.0" encoding="iso-8859-1"?>
<!-- Generator: Adobe Illustrator 19.0.0, SVG Export Plug-In . SVG Version: 6.00 Build 0)  -->
<svg xmlns="http://www.w3.org/2000/svg" xmlns:xlink="http://www.w3.org/1999/xlink" version="1.1" id="Layer_1" x="0px" y="0px" viewBox="0 0 504.8 504.8" style="enable-background:new 0 0 504.8 504.8;" xml:space="preserve">
<ellipse style="fill:#84DBFF;" cx="252.4" cy="252.4" rx="252.4" ry="252.4"/>
<path style="fill:#FFFFFF;" d="M412.5,124.7H92.3c-0.5,0-1,0.4-1,1v207.9c0,0.5,0.4,1,1,1h320.2c0.5,0,1-0.4,1-1V125.7  C413.4,125.1,413,124.7,412.5,124.7z"/>
<path style="fill:#324A5E;" d="M413.4,203.3v-39.9c0-0.5-0.4-1-1-1H92.3c-0.5,0-1,0.4-1,1v39.9c0,0.5,0.4,1,1,1h320.2  C413,204.3,413.4,203.8,413.4,203.3z"/>
<g>
	<path style="fill:#E6E9EE;" d="M254.6,277.6H117.3c-0.8,0-1.5-0.7-1.5-1.5v-8.7c0-0.8,0.7-1.5,1.5-1.5h137.2c0.8,0,1.5,0.7,1.5,1.5   v8.7C256.1,276.9,255.4,277.6,254.6,277.6z"/>
	<path style="fill:#E6E9EE;" d="M254.6,306.6H117.3c-0.8,0-1.5-0.7-1.5-1.5v-8.7c0-0.8,0.7-1.5,1.5-1.5h137.2c0.8,0,1.5,0.7,1.5,1.5   v8.7C256.1,305.9,255.4,306.6,254.6,306.6z"/>
</g>
<path style="fill:#324A5E;" d="M378.9,312.4h-13v-44.1c-1.5-18.9-15.1-25.2-27.4-24.8c-13.5,0.5-27.9,9-27.9,23.9v43.7h-13v-43.7  c0-10.4,4.6-20,13.1-26.8c7.4-6,17.3-9.6,27.4-10c0.5,0,1.1,0,1.6,0c18.5,0,37.4,11.3,39.2,37.1v0.5L378.9,312.4L378.9,312.4z"/>
<path style="fill:#FF7058;" d="M394.7,305.1H281.5c-0.5,0-1,0.4-1,1v98.1c0,0.5,0.4,1,1,1h113.3c0.5,0,1-0.4,1-1v-98.1  C395.7,305.5,395.3,305.1,394.7,305.1z"/>
<path style="fill:#E6E9EE;" d="M332.7,356l-1.5,19.3c0,0.6,0.4,1,1,1h11.9c0.6,0,1-0.5,1-1l-1.5-19.3c0-0.4,0.2-0.7,0.5-0.9  c5.4-3.3,7.9-10.7,2.6-18c-0.1-0.1-0.1-0.2-0.2-0.2c-9.4-7-19.7-0.5-19.7,8.5c0,4.1,2.2,7.7,5.5,9.7  C332.5,355.2,332.7,355.6,332.7,356z"/>
<g>
</g>
<g>
</g>
<g>
</g>
<g>
</g>
<g>
</g>
<g>
</g>
<g>
</g>
<g>
</g>
<g>
</g>
<g>
</g>
<g>
</g>
<g>
</g>
<g>
</g>
<g>
</g>
<g>
</g>
</svg>
