<?xml version="1.0" encoding="iso-8859-1"?>
<!-- Generator: Adobe Illustrator 19.0.0, SVG Export Plug-In . SVG Version: 6.00 Build 0)  -->
<svg xmlns="http://www.w3.org/2000/svg" xmlns:xlink="http://www.w3.org/1999/xlink" version="1.1" id="Layer_1" x="0px" y="0px" viewBox="0 0 505 505" style="enable-background:new 0 0 505 505;" xml:space="preserve">
<circle style="fill:#324A5E;" cx="252.5" cy="252.5" r="252.5"/>
<path style="fill:#FF7058;" d="M376.3,94.7H160.1c-17.5,0-31.8,13.9-32.4,31.4l-8.2,254.8l266-29.3L376.3,94.7z"/>
<path style="fill:#F1543F;" d="M148.9,351.6c-16.2,0-29.4,13.1-29.4,29.4c0,16.2,13.1,29.4,29.4,29.4h236.6v-58.7H148.9V351.6z"/>
<g>
	<path style="fill:#EDF2F2;" d="M148.9,399.3c-10.1,0-18.4-8.2-18.4-18.4c0-10.1,8.2-18.4,18.4-18.4h236.6v36.7H148.9V399.3z"/>
	<polygon style="fill:#EDF2F2;" points="317.8,192.5 187.2,192.5 189.5,137.8 315.5,137.8  "/>
</g>
<g>
</g>
<g>
</g>
<g>
</g>
<g>
</g>
<g>
</g>
<g>
</g>
<g>
</g>
<g>
</g>
<g>
</g>
<g>
</g>
<g>
</g>
<g>
</g>
<g>
</g>
<g>
</g>
<g>
</g>
</svg>
