<?xml version="1.0" encoding="iso-8859-1"?>
<!-- Generator: Adobe Illustrator 19.0.0, SVG Export Plug-In . SVG Version: 6.00 Build 0)  -->
<svg xmlns="http://www.w3.org/2000/svg" xmlns:xlink="http://www.w3.org/1999/xlink" version="1.1" id="Layer_1" x="0px" y="0px" viewBox="0 0 505 505" style="enable-background:new 0 0 505 505;" xml:space="preserve">
<circle style="fill:#84DBFF;" cx="252.5" cy="252.5" r="252.5"/>
<path style="fill:#FFFFFF;" d="M60.3,166.8v165.6C82.5,354.7,113,385.1,141,413h244.7V166.8H60.3z"/>
<path style="fill:#EDF2F2;" d="M60.3,332.4H141V413C118.7,390.7,88.3,360.3,60.3,332.4z"/>
<g>
	<rect x="178.3" y="359.1" style="fill:#E6E9EE;" width="174.1" height="6.5"/>
	<rect x="178.3" y="322.1" style="fill:#E6E9EE;" width="174.1" height="6.5"/>
	<rect x="112.2" y="285.1" style="fill:#E6E9EE;" width="240.2" height="6.5"/>
	<rect x="112.2" y="248.2" style="fill:#E6E9EE;" width="240.2" height="6.5"/>
	<rect x="112.2" y="211.2" style="fill:#E6E9EE;" width="240.2" height="6.5"/>
</g>
<path style="fill:#324A5E;" d="M253.7,260.3c10-8.2,47.4-44.7,58.1-55.4c39.2-39.2,91.5-104.3,83.6-112.1  c-7.9-7.9-73,44.4-112.1,83.6c-10.8,10.7-47.2,48.1-55.4,58.1L253.7,260.3z"/>
<path style="fill:#FFD05B;" d="M178.4,309.5l0.3,0.3c18.6-5,32.6-4.4,32.6-4.4c1-11,5.8-21.4,13.7-29.2l4.5-4.5l-13-12.9l-4.5,4.5  c-7.8,7.8-18.2,12.7-29.2,13.7C182.9,276.9,183.5,290.9,178.4,309.5z"/>
<g>
	
		<rect x="187.497" y="287.097" transform="matrix(0.7069 0.7073 -0.7073 0.7069 267.4731 -44.886)" style="fill:#324A5E;" width="0.8" height="26.4"/>
	<circle style="fill:#324A5E;" cx="179" cy="309.2" r="1.4"/>
	<circle style="fill:#324A5E;" cx="197.2" cy="291" r="1.7"/>
</g>
<path style="opacity:0.35;fill:#395767;enable-background:new    ;" d="M223.5,277.8c0.5-0.5,1-1.1,1.5-1.6l4.5-4.5l-13-12.9  l-4.5,4.5c-0.5,0.5-1.1,1-1.6,1.5L223.5,277.8z"/>
<polygon style="fill:#FF7058;" points="227.9,234.5 253.7,260.3 230.8,280.8 207.4,257.4 "/>
<g>
</g>
<g>
</g>
<g>
</g>
<g>
</g>
<g>
</g>
<g>
</g>
<g>
</g>
<g>
</g>
<g>
</g>
<g>
</g>
<g>
</g>
<g>
</g>
<g>
</g>
<g>
</g>
<g>
</g>
</svg>
