<?xml version="1.0" encoding="iso-8859-1"?>
<!-- Generator: Adobe Illustrator 19.0.0, SVG Export Plug-In . SVG Version: 6.00 Build 0)  -->
<svg xmlns="http://www.w3.org/2000/svg" xmlns:xlink="http://www.w3.org/1999/xlink" version="1.1" id="Layer_1" x="0px" y="0px" viewBox="0 0 505 505" style="enable-background:new 0 0 505 505;" xml:space="preserve">
<circle style="fill:#90DFAA;" cx="252.5" cy="252.5" r="252.5"/>
<g>
	<rect x="134.7" y="193.9" style="fill:#324A5E;" width="40.5" height="146.1"/>
	<rect x="232.4" y="193.9" style="fill:#324A5E;" width="40.5" height="146.1"/>
	<rect x="330.1" y="193.9" style="fill:#324A5E;" width="40.5" height="146.1"/>
</g>
<g>
	<polygon style="fill:#FFFFFF;" points="252.7,70.8 94.2,194.4 411.1,194.4  "/>
	<rect x="111.4" y="338.8" style="fill:#FFFFFF;" width="282.2" height="31.2"/>
</g>
<rect x="93.9" y="369.9" style="fill:#EDF2F2;" width="317.2" height="31.2"/>
<circle style="fill:#84DBFF;" cx="252.7" cy="140.6" r="34.2"/>
<path style="fill:#FFFFFF;" d="M254.3,156.2v4.8H251v-4.7c-3,0-5.8-0.7-8.4-2v-6.2c0.9,0.7,2.1,1.3,3.9,1.9s3.2,0.9,4.6,1v-8.1  c-3.5-1.3-5.8-2.7-7.1-4.2s-1.9-3.3-1.9-5.5c0-2.3,0.8-4.3,2.5-6c1.6-1.6,3.8-2.6,6.6-2.9v-4.1h3.3v4.1c3.1,0.1,5.5,0.7,7,1.5v6  c-2.1-1.3-4.4-2-7-2.3v8.4c3.3,1.2,5.6,2.5,7,4s2.1,3.3,2.1,5.5c0,2.5-0.8,4.5-2.4,6C259.4,154.9,257.2,155.8,254.3,156.2z   M251,136.7v-7.1c-2.1,0.4-3.1,1.4-3.1,3.2C247.9,134.4,248.9,135.6,251,136.7z M254.3,144.2v6.8c2.1-0.3,3.2-1.4,3.2-3.2  C257.4,146.3,256.4,145.1,254.3,144.2z"/>
<g>
</g>
<g>
</g>
<g>
</g>
<g>
</g>
<g>
</g>
<g>
</g>
<g>
</g>
<g>
</g>
<g>
</g>
<g>
</g>
<g>
</g>
<g>
</g>
<g>
</g>
<g>
</g>
<g>
</g>
</svg>
