<?xml version="1.0" encoding="iso-8859-1"?>
<!-- Generator: Adobe Illustrator 19.0.0, SVG Export Plug-In . SVG Version: 6.00 Build 0)  -->
<svg xmlns="http://www.w3.org/2000/svg" xmlns:xlink="http://www.w3.org/1999/xlink" version="1.1" id="Layer_1" x="0px" y="0px" viewBox="0 0 505 505" style="enable-background:new 0 0 505 505;" xml:space="preserve">
<g>
	<circle style="fill:#54C0EB;" cx="252.5" cy="252.5" r="252.5"/>
	<circle style="fill:#54C0EB;" cx="252.5" cy="252.5" r="252.5"/>
</g>
<path style="fill:#FFFFFF;" d="M438.9,252.8c-102.7-139.4-269.6-139.7-372.7-0.6C168.8,391.6,335.7,391.9,438.9,252.8L438.9,252.8  L438.9,252.8z"/>
<path style="fill:#324A5E;" d="M307,201.8c-13.6-14.6-32.8-23.9-54.4-23.9c-21.5,0-40.8,9.2-54.4,23.7l54.3,54.5L307,201.8z"/>
<path style="fill:#4CDBC4;" d="M198.2,201.6c-12.5,13.3-20.3,31.1-20.3,50.8c0,21.5,9.2,40.8,23.7,54.4  c13.3,12.5,31.1,20.3,50.8,20.3l0.1-71.1L198.2,201.6z"/>
<path style="fill:#FF7058;" d="M307,201.8l-54.5,54.3l-0.1,71.1c19.7,0,37.5-7.7,50.9-20.2c14.6-13.6,23.9-32.8,23.9-54.4  C327.2,232.9,319.4,215.1,307,201.8z"/>
<g>
</g>
<g>
</g>
<g>
</g>
<g>
</g>
<g>
</g>
<g>
</g>
<g>
</g>
<g>
</g>
<g>
</g>
<g>
</g>
<g>
</g>
<g>
</g>
<g>
</g>
<g>
</g>
<g>
</g>
</svg>
