<?xml version="1.0" encoding="iso-8859-1"?>
<!-- Generator: Adobe Illustrator 19.0.0, SVG Export Plug-In . SVG Version: 6.00 Build 0)  -->
<svg xmlns="http://www.w3.org/2000/svg" xmlns:xlink="http://www.w3.org/1999/xlink" version="1.1" id="Layer_1" x="0px" y="0px" viewBox="0 0 505 505" style="enable-background:new 0 0 505 505;" xml:space="preserve">
<path style="fill:#90DFAA;" d="M505,252.5C505,392,392,505,252.5,505C113.1,505,0,392,0,252.5C0,113.1,113.1,0,252.5,0  C392,0,505,113.1,505,252.5z"/>
<path style="fill:#324A5E;" d="M175.3,62.6l56.7,56.7l-14.1,52.5l-52.5,14.1l-56.7-56.7c-11.7,36-3.3,77.2,25.3,105.8  c28.3,28.3,69,36.9,104.7,25.6l104.8,104.8c2.9,2.9,7.5,2.9,10.3,0l57.6-57.6c2.9-2.9,2.9-7.5,0-10.3L306.7,192.7  c11.2-35.8,2.7-76.4-25.6-104.7C252.5,59.3,211.3,50.9,175.3,62.6z"/>
<path style="fill:#FFFFFF;" d="M313.7,304.9l-14.8-1.2c-1.8-0.2-3.3-1.4-3.9-3.2c-1.5-4.5-3.3-8.9-5.5-13.2c-0.8-1.6-0.7-3.6,0.5-5  l9.6-11.3c1.5-1.8,1.4-4.5-0.3-6.1l-25.8-25.8c-1.7-1.7-4.3-1.8-6.1-0.3l-11.3,9.6c-1.4,1.2-3.4,1.4-5,0.5c-4.2-2.2-8.6-4-13.2-5.5  c-1.8-0.6-3-2.1-3.2-3.9l-1.2-14.8c-0.2-2.4-2.2-4.2-4.5-4.2h-36.5c-2.4,0-4.3,1.8-4.5,4.2l-1.2,14.8c-0.2,1.8-1.4,3.3-3.2,3.9  c-4.5,1.5-8.9,3.3-13.2,5.5c-1.6,0.8-3.6,0.7-5-0.5l-11.3-9.6c-1.8-1.5-4.5-1.4-6.1,0.3l-25.8,25.8c-1.7,1.7-1.8,4.3-0.3,6.1  l9.6,11.3c1.2,1.4,1.4,3.4,0.5,5c-2.2,4.3-4,8.7-5.5,13.2c-0.6,1.8-2.1,3-3.9,3.2l-14.8,1.2c-2.4,0.2-4.2,2.2-4.2,4.5v36.5  c0,2.4,1.8,4.3,4.2,4.5l14.8,1.2c1.8,0.2,3.3,1.4,3.9,3.2c1.5,4.5,3.3,8.9,5.5,13.2c0.8,1.6,0.7,3.6-0.5,5l-9.6,11.3  c-1.5,1.8-1.4,4.5,0.3,6.1l25.8,25.8c1.7,1.7,4.3,1.8,6.1,0.3l11.3-9.6c1.4-1.2,3.4-1.4,5-0.5c4.3,2.2,8.7,4,13.2,5.5  c1.8,0.6,3,2.1,3.2,3.9l1.2,14.8c0.2,2.4,2.2,4.2,4.5,4.2H229c2.4,0,4.3-1.8,4.5-4.2l1.2-14.8c0.2-1.8,1.4-3.3,3.2-3.9  c4.5-1.5,8.9-3.3,13.2-5.5c1.6-0.8,3.6-0.7,5,0.5l11.3,9.6c1.8,1.5,4.5,1.4,6.1-0.3l25.8-25.8c1.7-1.7,1.8-4.3,0.3-6.1L290,373  c-1.2-1.4-1.4-3.4-0.5-5c2.2-4.3,4-8.7,5.5-13.2c0.6-1.8,2.1-3,3.9-3.2l14.8-1.2c2.4-0.2,4.2-2.2,4.2-4.5v-36.5  C317.9,307,316,305.1,313.7,304.9z"/>
<circle style="fill:#90DFAA;" cx="210.7" cy="327.6" r="52.2"/>
<path style="fill:#324A5E;" d="M213.8,358v9.5h-6.3v-9.2c-5.9,0-11.4-1.4-16.5-4v-12.1c1.7,1.4,4.2,2.6,7.5,3.8  c3.3,1.2,6.3,1.8,8.9,2v-15.9c-6.8-2.5-11.4-5.3-13.9-8.2c-2.5-2.9-3.7-6.5-3.7-10.8c0-4.6,1.6-8.4,4.8-11.7s7.5-5.1,12.8-5.6v-8.1  h6.4v7.9c6.1,0.3,10.7,1.3,13.7,3v11.9c-4.1-2.5-8.6-4-13.7-4.5v16.5c6.4,2.3,10.9,4.9,13.7,7.9c2.8,2.9,4.1,6.5,4.1,10.7  c0,4.8-1.5,8.7-4.6,11.7C224,355.6,219.6,357.4,213.8,358z M207.5,319.9v-13.8c-4,0.7-6.1,2.8-6.1,6.3  C201.4,315.4,203.4,317.9,207.5,319.9z M213.8,334.6v13.2c4.2-0.6,6.2-2.7,6.2-6.2C220.1,338.8,218,336.4,213.8,334.6z"/>
<g>
</g>
<g>
</g>
<g>
</g>
<g>
</g>
<g>
</g>
<g>
</g>
<g>
</g>
<g>
</g>
<g>
</g>
<g>
</g>
<g>
</g>
<g>
</g>
<g>
</g>
<g>
</g>
<g>
</g>
</svg>
