<?xml version="1.0" encoding="iso-8859-1"?>
<!-- Generator: Adobe Illustrator 19.0.0, SVG Export Plug-In . SVG Version: 6.00 Build 0)  -->
<svg xmlns="http://www.w3.org/2000/svg" xmlns:xlink="http://www.w3.org/1999/xlink" version="1.1" id="Layer_1" x="0px" y="0px" viewBox="0 0 505 505" style="enable-background:new 0 0 505 505;" xml:space="preserve">
<circle style="fill:#84DBFF;" cx="252.5" cy="252.5" r="252.5"/>
<path style="fill:#FFFFFF;" d="M400.3,221.1c0.5-3.5,1.1-6.9,1.1-10.5c0-38.6-31.3-69.9-69.9-69.9c-13.9,0-26.9,4.2-37.8,11.2  c-17.4-36.4-54.2-61.7-97.2-61.7c-59.6,0-108,48.3-108,108c0,9,1.4,17.7,3.5,26.1c-23.7,9-40.9,33.1-40.9,61.8  c0,36.3,27.3,65.8,60.9,65.8h281c33.7,0,60.9-29.4,60.9-65.8C453.9,252.5,430.4,225.1,400.3,221.1z"/>
<circle style="fill:#FFD05B;" cx="194.8" cy="198" r="82.9"/>
<circle style="fill:#F9B54C;" cx="194.8" cy="198" r="68.1"/>
<path style="fill:#FFFFFF;" d="M198.1,229.8v9.9h-6.7v-9.6c-6.2,0-11.9-1.4-17.2-4.2v-12.6c1.8,1.4,4.4,2.8,7.9,4s6.6,1.9,9.3,2.1  v-16.6c-7.1-2.6-12-5.5-14.6-8.6s-3.9-6.8-3.9-11.3c0-4.8,1.7-8.8,5.1-12.2c3.4-3.4,7.8-5.3,13.4-5.9v-8.5h6.7v8.3  c6.4,0.3,11.2,1.3,14.4,3.1V180c-4.3-2.6-9-4.2-14.4-4.7v17.2c6.7,2.4,11.4,5.1,14.3,8.2c2.9,3.1,4.3,6.8,4.3,11.2  c0,5-1.6,9.1-4.8,12.2S204.1,229.1,198.1,229.8z M191.4,189.9v-14.5c-4.2,0.8-6.3,3-6.3,6.6C185.1,185.2,187.2,187.8,191.4,189.9z   M198.1,205.3v13.8c4.3-0.7,6.5-2.8,6.5-6.5C204.6,209.6,202.4,207.2,198.1,205.3z"/>
<g>
</g>
<g>
</g>
<g>
</g>
<g>
</g>
<g>
</g>
<g>
</g>
<g>
</g>
<g>
</g>
<g>
</g>
<g>
</g>
<g>
</g>
<g>
</g>
<g>
</g>
<g>
</g>
<g>
</g>
</svg>
