<?xml version="1.0" encoding="iso-8859-1"?>
<!-- Generator: Adobe Illustrator 19.0.0, SVG Export Plug-In . SVG Version: 6.00 Build 0)  -->
<svg xmlns="http://www.w3.org/2000/svg" xmlns:xlink="http://www.w3.org/1999/xlink" version="1.1" id="Layer_1" x="0px" y="0px" viewBox="0 0 505 505" style="enable-background:new 0 0 505 505;" xml:space="preserve">
<circle style="fill:#324A5E;" cx="252.5" cy="252.5" r="252.5"/>
<g>
	<polygon style="fill:#FFD05B;" points="390.4,385 390.4,212.9 252.7,299  "/>
	<polygon style="fill:#FFD05B;" points="114.6,212.9 114.6,212.9 114.6,385.3 114.8,385.3 252.7,299  "/>
</g>
<path style="fill:#EDF2F2;" d="M261.1,122.8c-5.8-4.1-13.6-4-19.4,0.1l-127.1,90l138,86.2l137.7-86.2l0,0L261.1,122.8z"/>
<polygon style="fill:#FFD05B;" points="390.4,385 252.6,299 114.8,385.3 390.4,385.3 "/>
<polygon style="fill:#FF7058;" points="299.8,197.7 252.5,151.5 205.2,197.7 226.7,197.7 226.7,257.5 278.3,257.5 278.3,197.7 "/>
<g>
</g>
<g>
</g>
<g>
</g>
<g>
</g>
<g>
</g>
<g>
</g>
<g>
</g>
<g>
</g>
<g>
</g>
<g>
</g>
<g>
</g>
<g>
</g>
<g>
</g>
<g>
</g>
<g>
</g>
</svg>
