<?xml version="1.0" encoding="iso-8859-1"?>
<!-- Generator: Adobe Illustrator 19.0.0, SVG Export Plug-In . SVG Version: 6.00 Build 0)  -->
<svg xmlns="http://www.w3.org/2000/svg" xmlns:xlink="http://www.w3.org/1999/xlink" version="1.1" id="Layer_1" x="0px" y="0px" viewBox="0 0 505 505" style="enable-background:new 0 0 505 505;" xml:space="preserve">
<circle style="fill:#84DBFF;" cx="252.5" cy="252.5" r="252.5"/>
<path style="fill:#324A5E;" d="M398.9,134.9H106.1c-4.5,0-8.2,3.7-8.2,8.2V356c0,4.5,3.7,8.2,8.2,8.2h292.8c4.5,0,8.2-3.7,8.2-8.2  V143.1C407.1,138.6,403.4,134.9,398.9,134.9z"/>
<rect x="120.7" y="156.7" style="fill:#FFFFFF;" width="263.7" height="185.7"/>
<path style="fill:#2B3B4E;" d="M286,378.2v7.1h-67v-7.1H82.9l5.2,16.9c2,6.6,8.1,11.1,15.1,11.1h298.7c6.9,0,13-4.5,15.1-11.1  l5.2-16.9H286z"/>
<path style="fill:#FF7058;" d="M258.2,244.3c14.4-11.6,40.1-35.6,57.3-52.8c44-44,74.2-85,67.5-91.7s-47.8,23.5-91.7,67.5  c-17.2,17.2-41.2,42.9-52.8,57.3L258.2,244.3z"/>
<path style="fill:#F1543F;" d="M250.5,210.2c-4.3,5-8.4,9.8-12.1,14.4l19.8,19.8c4.6-3.7,9.4-7.7,14.4-12.1L250.5,210.2z"/>
<path style="fill:#FFD05B;" d="M259.3,243.5l-20-20c-8.5-0.1-18.2,3.9-26,11.6c-12.8,12.8-34.2,60.5-18.6,53  c34.6-16.7,40.2-5.8,53-18.6C255.4,261.7,259.4,252.1,259.3,243.5z"/>
<g>
</g>
<g>
</g>
<g>
</g>
<g>
</g>
<g>
</g>
<g>
</g>
<g>
</g>
<g>
</g>
<g>
</g>
<g>
</g>
<g>
</g>
<g>
</g>
<g>
</g>
<g>
</g>
<g>
</g>
</svg>
