<?xml version="1.0" encoding="iso-8859-1"?>
<!-- Generator: Adobe Illustrator 19.0.0, SVG Export Plug-In . SVG Version: 6.00 Build 0)  -->
<svg xmlns="http://www.w3.org/2000/svg" xmlns:xlink="http://www.w3.org/1999/xlink" version="1.1" id="Layer_1" x="0px" y="0px" viewBox="0 0 505 505" style="enable-background:new 0 0 505 505;" xml:space="preserve">
<circle style="fill:#FFD05B;" cx="252.5" cy="252.5" r="252.5"/>
<path style="fill:#FFFFFF;" d="M262.8,71.9c-7-4.9-16.2-4.8-23.1,0.1l-152,107.6l165,103l164.7-103l0,0L262.8,71.9z"/>
<polygon style="fill:#F1543F;" points="417.3,385.3 252.7,282.6 87.9,385.6 417.3,385.6 "/>
<g>
	<polygon style="fill:#FF7058;" points="417.4,385.3 417.4,179.6 252.7,282.6  "/>
	<polygon style="fill:#FF7058;" points="87.7,179.6 87.6,179.6 87.6,385.6 87.9,385.6 252.7,282.6  "/>
</g>
<polygon style="fill:#4CDBC4;" points="309.1,187.7 252.5,242.9 195.9,187.7 221.6,187.7 221.6,116.2 283.4,116.2 283.4,187.7 "/>
<g>
</g>
<g>
</g>
<g>
</g>
<g>
</g>
<g>
</g>
<g>
</g>
<g>
</g>
<g>
</g>
<g>
</g>
<g>
</g>
<g>
</g>
<g>
</g>
<g>
</g>
<g>
</g>
<g>
</g>
</svg>
