<?xml version="1.0" encoding="iso-8859-1"?>
<!-- Generator: Adobe Illustrator 19.0.0, SVG Export Plug-In . SVG Version: 6.00 Build 0)  -->
<svg xmlns="http://www.w3.org/2000/svg" xmlns:xlink="http://www.w3.org/1999/xlink" version="1.1" id="Layer_1" x="0px" y="0px" viewBox="0 0 505 505" style="enable-background:new 0 0 505 505;" xml:space="preserve">
<circle style="fill:#84DBFF;" cx="252.5" cy="252.5" r="252.5"/>
<path style="fill:#FFFFFF;" d="M359.6,289.1c-2.5-0.1-5.2-0.4-8-0.9c-43.3-8-74.8-50.4-68.7-94.1c0.9-6.2,0.9-12.7-0.1-19.4  c-4-27.5-25.4-50.6-52.5-56.6c-23-5.1-44.2,1.9-59.6,15.2c-0.7,0.6-1.4,0.9-2.1,1.5c-0.4,0.4-0.8,0.8-1.2,1.1  c-0.5,0.5-1,1.1-1.5,1.7C104.2,200.2,98.6,300,154,357c57.9,59.6,158.3,54.9,223.2-10c0.6-0.6,1.1-1.1,1.7-1.7  C399.5,324.1,387.6,290.1,359.6,289.1z"/>
<circle style="fill:#FFD05B;" cx="211.1" cy="185.4" r="20.3"/>
<circle style="fill:#324A5E;" cx="185.9" cy="247.6" r="20.3"/>
<circle style="fill:#4CDBC4;" cx="208" cy="315.2" r="20.3"/>
<circle style="fill:#FF7058;" cx="280.7" cy="342.4" r="20.3"/>
<path style="fill:#FFD05B;" d="M328.5,179.2c-3.5,23.9-6.7,69.7-7.8,101.5c-2.9,81.1,4.7,147.3,17.1,147.7  c12.4,0.4,24.8-65,27.7-146.1c1.1-31.7,1.3-77.7-0.5-101.8L328.5,179.2z"/>
<path style="fill:#324A5E;" d="M366.2,205c-0.3-8.6-0.7-16.8-1.2-24.5l-36.5-1.3c-1.1,7.6-2.1,15.8-3,24.3L366.2,205z"/>
<path style="fill:#EDF2F2;" d="M328.2,180.9l37,1.3c8.3-7.5,14-19.9,14.5-34.2c0.9-23.6-21.1-88.2-29.3-67.1  c-18.2,46.7-33.2,41.3-34.1,64.9C315.7,160,320.5,172.9,328.2,180.9z"/>
<g>
</g>
<g>
</g>
<g>
</g>
<g>
</g>
<g>
</g>
<g>
</g>
<g>
</g>
<g>
</g>
<g>
</g>
<g>
</g>
<g>
</g>
<g>
</g>
<g>
</g>
<g>
</g>
<g>
</g>
</svg>
