<?xml version="1.0" encoding="iso-8859-1"?>
<!-- Generator: Adobe Illustrator 19.0.0, SVG Export Plug-In . SVG Version: 6.00 Build 0)  -->
<svg xmlns="http://www.w3.org/2000/svg" xmlns:xlink="http://www.w3.org/1999/xlink" version="1.1" id="Layer_1" x="0px" y="0px" viewBox="0 0 505 505" style="enable-background:new 0 0 505 505;" xml:space="preserve">
<circle style="fill:#FFD05B;" cx="252.5" cy="252.5" r="252.5"/>
<path style="fill:#FFFFFF;" d="M393.3,176.5c-2.7-24.9-10.9-47.8-28.6-65.5c-14-14-31.2-27.7-57-32.7c-19.4-3.8-45.1-3.7-64.8-1.5  c-31.7,3.4-56.8,20.8-77.8,44.9c-27.4,31.6-20.6,81.7-44.3,116.1c-3.4,4.9-7.4,9.6-9.6,15.1c-2.2,5.6-2.1,12.6,2.2,16.8  c4.5,4.4,11.8,4.2,17.2,7.5c8.1,4.9,9.8,16,8.6,25.4c-1.1,9.4-4.2,18.9-2.2,28.1c2.2,10.2,10.3,18.3,19.5,23.3  c9.2,4.9,19.6,7.1,29.8,9.6c9.5,2.3,20.5,6.7,23.7,15.3h0.2v0.6c0.3,1,0.6,2.1,0.7,3.2c0.1,0.9,0.1,1.8,0,2.6c0,0.5-0.1,1-0.2,1.5  c-0.5,2.6-0.5,30.5-0.5,30.5c0,6.4,5.3,11.5,11.7,11.3c2.3-0.1,80.4,2,117.8,0.4c5.4-0.2,11.2-0.6,15.5-3.9  c5.8-4.4,7.1-12.5,7.5-19.8c3.4-52-13.6-78.9,9.8-125.4c3.9-7.8,8.3-15.4,12.1-23.3C398.9,226.7,395.1,192.7,393.3,176.5z"/>
<path style="fill:#4CDBC4;" d="M287.7,180.6v-19.4l-11-0.9c-1.1-4.3-2.8-8.3-5-12.1l7.1-8.4l-13.7-13.7l-8.4,7.1  c-3.7-2.2-7.7-3.9-12.1-5l-0.9-11h-19.4l-0.9,11c-4.3,1.1-8.3,2.8-12.1,5l-8.4-7.1l-13.7,13.7l7.1,8.4c-2.2,3.7-3.9,7.7-5,12.1  l-11,0.9v19.4l11,0.9c1.1,4.3,2.8,8.3,5,12.1l-7.1,8.4l13.7,13.7l8.4-7.1c3.7,2.2,7.7,3.9,12.1,5l0.9,11h19.4l0.9-11  c4.3-1.1,8.3-2.8,12.1-5l8.4,7.1l13.7-13.7l-7.1-8.4c2.2-3.7,3.9-7.7,5-12.1L287.7,180.6z M234,196.5c-14.1,0-25.5-11.4-25.5-25.5  s11.4-25.5,25.5-25.5s25.5,11.4,25.5,25.5C259.5,185,248.1,196.5,234,196.5z"/>
<path style="fill:#FF7058;" d="M359.8,228.8v-14.3l-8.1-0.7c-0.8-3.2-2-6.1-3.7-8.9l5.3-6.2l-10.1-10.1l-6.2,5.3  c-2.7-1.6-5.7-2.9-8.9-3.7l-0.7-8.1h-14.3l-0.7,8.1c-3.2,0.8-6.1,2-8.9,3.7l-6.2-5.3l-10.1,10.1l5.3,6.2c-1.6,2.7-2.9,5.7-3.7,8.9  l-8.1,0.7v14.3l8.1,0.7c0.8,3.2,2,6.1,3.7,8.9l-5.3,6.2l10.1,10.1l6.2-5.2c2.7,1.6,5.7,2.9,8.9,3.7l0.7,8.1h14.3l0.7-8.1  c3.2-0.8,6.1-2,8.9-3.7l6.2,5.2l10.1-10.1l-5.3-6.2c1.6-2.7,2.9-5.7,3.7-8.9L359.8,228.8z M320.3,240.4c-10.4,0-18.8-8.4-18.8-18.8  c0-10.4,8.4-18.8,18.8-18.8s18.8,8.4,18.8,18.8C339.1,232,330.7,240.4,320.3,240.4z"/>
<g>
</g>
<g>
</g>
<g>
</g>
<g>
</g>
<g>
</g>
<g>
</g>
<g>
</g>
<g>
</g>
<g>
</g>
<g>
</g>
<g>
</g>
<g>
</g>
<g>
</g>
<g>
</g>
<g>
</g>
</svg>
