<?xml version="1.0" encoding="iso-8859-1"?>
<!-- Generator: Adobe Illustrator 19.0.0, SVG Export Plug-In . SVG Version: 6.00 Build 0)  -->
<svg xmlns="http://www.w3.org/2000/svg" xmlns:xlink="http://www.w3.org/1999/xlink" version="1.1" id="Layer_1" x="0px" y="0px" viewBox="0 0 505 505" style="enable-background:new 0 0 505 505;" xml:space="preserve">
<circle style="fill:#54C0EB;" cx="252.5" cy="252.5" r="252.5"/>
<path style="fill:#E6E9EE;" d="M386.5,219.2c18.9-18.9,26.1-45.1,21.4-69.6l-42.5,42.5L316.5,179l-13.1-48.9l42.5-42.5  c-24.4-4.6-50.7,2.5-69.6,21.4c-22.7,22.7-28.4,55.8-17.3,83.9l-150.6,139c-16.3,15.1-16.8,40.7-1.1,56.4  c15.7,15.7,41.3,15.2,56.4-1.1l139-150.6C330.6,247.6,363.8,241.8,386.5,219.2z M121.5,374c-4.7-4.7-4.7-12.3,0-16.9  c4.7-4.7,12.3-4.7,16.9,0c4.7,4.7,4.7,12.3,0,16.9C133.7,378.7,126.1,378.7,121.5,374z"/>
<polygon style="fill:#FFFFFF;" points="149.8,128.7 122.1,109.8 105.1,126.8 124,154.5 142,161 233.4,252.4 247.7,238.1   156.3,146.7 "/>
<path style="fill:#324A5E;" d="M263.6,222.2l-46.1,46.1c-3.2,3.2-3.2,8.3,0,11.5l131.8,131.8c3.2,3.2,8.3,3.2,11.5,0l46.1-46.1  c3.2-3.2,3.2-8.3,0-11.5L275.1,222.2C271.9,219,266.8,219,263.6,222.2z"/>
<g>
	<path style="fill:#2B3B4E;" d="M255.4,287c-2,2-2,5.3,0,7.3l79.5,79.5c2,2,5.3,2,7.3,0s2-5.3,0-7.3L262.7,287   C260.6,284.9,257.4,284.9,255.4,287z"/>
	<path style="fill:#2B3B4E;" d="M282.3,260.1c-2,2-2,5.3,0,7.3l79.5,79.5c2,2,5.3,2,7.3,0s2-5.3,0-7.3l-79.5-79.5   C287.6,258,284.3,258,282.3,260.1z"/>
</g>
<g>
</g>
<g>
</g>
<g>
</g>
<g>
</g>
<g>
</g>
<g>
</g>
<g>
</g>
<g>
</g>
<g>
</g>
<g>
</g>
<g>
</g>
<g>
</g>
<g>
</g>
<g>
</g>
<g>
</g>
</svg>
