<?xml version="1.0" encoding="iso-8859-1"?>
<!-- Generator: Adobe Illustrator 19.0.0, SVG Export Plug-In . SVG Version: 6.00 Build 0)  -->
<svg xmlns="http://www.w3.org/2000/svg" xmlns:xlink="http://www.w3.org/1999/xlink" version="1.1" id="Layer_1" x="0px" y="0px" viewBox="0 0 505 505" style="enable-background:new 0 0 505 505;" xml:space="preserve">
<circle style="fill:#FD8469;" cx="252.5" cy="252.5" r="252.5"/>
<polygon style="fill:#FFD05B;" points="404,258.3 428,237.2 252.5,82.8 77,237.2 101,258.3 252.5,125 "/>
<polygon style="fill:#FFFFFF;" points="252.5,125 133.7,229.6 133.7,389.3 371.3,389.3 371.3,229.6 "/>
<circle style="fill:#84DBFF;" cx="252.5" cy="278.7" r="64.1"/>
<path style="fill:#FFFFFF;" d="M255.4,307.6v9h-6v-8.7c-5.6,0-10.8-1.3-15.7-3.8v-11.5c1.6,1.3,4,2.5,7.2,3.6s6,1.7,8.5,1.9V283  c-6.5-2.4-10.9-5-13.2-7.8c-2.4-2.8-3.5-6.2-3.5-10.3c0-4.3,1.5-8,4.6-11.1s7.1-4.8,12.2-5.3v-7.7h6v7.5c5.8,0.3,10.2,1.2,13,2.8  v11.2c-3.9-2.3-8.2-3.8-13-4.3v15.7c6,2.2,10.4,4.7,13,7.5s3.9,6.2,3.9,10.2c0,4.6-1.5,8.3-4.4,11.1  C265.1,305.3,260.9,307,255.4,307.6z M249.4,271.3v-13.1c-3.8,0.7-5.8,2.7-5.8,6C243.6,267.1,245.6,269.4,249.4,271.3z M255.4,285.3  v12.6c3.9-0.6,5.9-2.6,5.9-5.9C261.4,289.3,259.4,287.1,255.4,285.3z"/>
<g>
</g>
<g>
</g>
<g>
</g>
<g>
</g>
<g>
</g>
<g>
</g>
<g>
</g>
<g>
</g>
<g>
</g>
<g>
</g>
<g>
</g>
<g>
</g>
<g>
</g>
<g>
</g>
<g>
</g>
</svg>
