<?xml version="1.0" encoding="iso-8859-1"?>
<!-- Generator: Adobe Illustrator 19.0.0, SVG Export Plug-In . SVG Version: 6.00 Build 0)  -->
<svg xmlns="http://www.w3.org/2000/svg" xmlns:xlink="http://www.w3.org/1999/xlink" version="1.1" id="Layer_1" x="0px" y="0px" viewBox="0 0 505 505" style="enable-background:new 0 0 505 505;" xml:space="preserve">
<circle style="fill:#84DBFF;" cx="252.5" cy="252.5" r="252.5"/>
<path style="fill:#2B3B4E;" d="M225.3,397.7h-48.2c-18.1,0-32.7-14.6-32.7-32.7v-87.2c0-18.1,14.6-32.7,32.7-32.7h146.4v9.8H177.1  c-12.6,0-22.8,10.2-22.8,22.8v87.2c0,12.6,10.2,22.8,22.8,22.8h48.2c7.4,0,13.4-6,13.4-13.4v-8.7h9.8v8.7  C248.5,387.4,238.1,397.7,225.3,397.7z"/>
<path style="fill:#FFFFFF;" d="M288.3,161.6c10.1-10.9,16.3-25.3,16.3-41.3c0-33.7-27.3-61.1-61.1-61.1c-33.7,0-61.1,27.3-61.1,61.1  c0,16,6.2,30.4,16.3,41.3l44.8,14.2L288.3,161.6z"/>
<path style="fill:#FF7058;" d="M238.5,122.3c-35.9,0-56.1-2.2-57.3-2.3c-3.9-0.4-6.6-3.9-6.2-7.8c0.4-3.9,3.9-6.6,7.8-6.2  c0.4,0,46.1,5,121.9,0c3.8-0.3,7.2,2.7,7.5,6.6s-2.7,7.2-6.6,7.5C279.4,121.7,256.9,122.3,238.5,122.3z"/>
<g>
	<path style="fill:#2B3B4E;" d="M198.8,161.6L217,340.8c0.8,14.1,12.4,25.1,26.5,25.1s25.7-11,26.5-25.1l18.2-179.2   C241.9,172.9,198.8,161.6,198.8,161.6z"/>
	<polygon style="fill:#2B3B4E;" points="355.8,264.7 355.8,235.4 323.5,239.9 323.5,260.3  "/>
</g>
<path style="fill:#FFFFFF;" d="M355.8,255.2l22.1-2.7c0.7,0.7,1.6,1.2,2.7,1.2c2,0,3.7-1.6,3.7-3.7c0-2-1.6-3.7-3.7-3.7  c-1.1,0-2,0.5-2.7,1.2l-22.1-2.7V255.2z"/>
<g>
</g>
<g>
</g>
<g>
</g>
<g>
</g>
<g>
</g>
<g>
</g>
<g>
</g>
<g>
</g>
<g>
</g>
<g>
</g>
<g>
</g>
<g>
</g>
<g>
</g>
<g>
</g>
<g>
</g>
</svg>
