<?xml version="1.0" encoding="iso-8859-1"?>
<!-- Generator: Adobe Illustrator 19.0.0, SVG Export Plug-In . SVG Version: 6.00 Build 0)  -->
<svg xmlns="http://www.w3.org/2000/svg" xmlns:xlink="http://www.w3.org/1999/xlink" version="1.1" id="Layer_1" x="0px" y="0px" viewBox="0 0 505 505" style="enable-background:new 0 0 505 505;" xml:space="preserve">
<circle style="fill:#FD8469;" cx="252.5" cy="252.5" r="252.5"/>
<path style="fill:#F1543F;" d="M38.1,385.8C82.6,457.3,162,505,252.5,505s169.9-47.7,214.4-119.2H38.1z"/>
<path style="fill:#324A5E;" d="M389.4,121.1H115.6c-7,0-12.6,5.6-12.6,12.6v196.5c0,7,5.6,12.6,12.6,12.6h273.8  c7,0,12.6-5.6,12.6-12.6V133.7C402,126.8,396.4,121.1,389.4,121.1z"/>
<rect x="119.9" y="138.6" style="fill:#FFFFFF;" width="265.2" height="186.8"/>
<path style="fill:#2B3B4E;" d="M71.4,362.3l3.8,12.3c2.2,7.1,8.8,12,16.2,12h322.2c7.5,0,14-4.9,16.2-12l3.8-12.3  c0.9-2.9-1.3-5.9-4.3-5.9H75.7C72.7,356.4,70.5,359.4,71.4,362.3z"/>
<polygon style="fill:#324A5E;" points="275.1,267.1 229.2,207.1 171.9,264.4 167.1,259.6 229.8,196.9 275.8,256.9 333.1,199.6   337.9,204.4 "/>
<circle style="fill:#FFD05B;" cx="169.5" cy="262" r="17.7"/>
<circle style="fill:#FF7058;" cx="229.5" cy="202" r="17.7"/>
<circle style="fill:#84DBFF;" cx="275.5" cy="262" r="17.7"/>
<circle style="fill:#4CDBC4;" cx="335.5" cy="202" r="17.7"/>
<polygon style="fill:#ACB3BA;" points="302.1,356.7 202.9,356.7 214.4,369.7 290.6,369.7 "/>
<g>
</g>
<g>
</g>
<g>
</g>
<g>
</g>
<g>
</g>
<g>
</g>
<g>
</g>
<g>
</g>
<g>
</g>
<g>
</g>
<g>
</g>
<g>
</g>
<g>
</g>
<g>
</g>
<g>
</g>
</svg>
