<?xml version="1.0" encoding="iso-8859-1"?>
<!-- Generator: Adobe Illustrator 19.0.0, SVG Export Plug-In . SVG Version: 6.00 Build 0)  -->
<svg xmlns="http://www.w3.org/2000/svg" xmlns:xlink="http://www.w3.org/1999/xlink" version="1.1" id="Layer_1" x="0px" y="0px" viewBox="0 0 505 505" style="enable-background:new 0 0 505 505;" xml:space="preserve">
<circle style="fill:#84DBFF;" cx="252.5" cy="252.5" r="252.5"/>
<path style="fill:#FFFFFF;" d="M379.4,128.4L252.5,255.3l0,0V430l0,0c48.3,0,92.1-19.4,124.1-50.7c33-32.2,53.5-77.1,53.5-126.9  C430,204.2,410.7,160.4,379.4,128.4z"/>
<path style="fill:#FF7058;" d="M125.6,128.4c-31.3,32-50.7,75.8-50.7,124.1c0,49.7,20.5,94.6,53.5,126.9  c32,31.3,75.8,50.7,124.1,50.7V255.3L125.6,128.4z"/>
<path style="fill:#E6E9EE;" d="M379.4,128.4C347.1,95.5,302.2,75,252.5,75s-94.6,20.5-126.9,53.5l126.9,126.8L379.4,128.4z"/>
<path style="fill:#324A5E;" d="M255.7,184.3v9.7h-6.5v-9.5c-6.1,0-11.7-1.4-16.9-4.1V168c1.7,1.4,4.3,2.7,7.8,3.9  c3.4,1.2,6.5,1.9,9.2,2.1v-16.3c-7-2.6-11.8-5.4-14.3-8.5c-2.6-3-3.8-6.7-3.8-11.1c0-4.7,1.7-8.7,5-12s7.7-5.2,13.2-5.8V112h6.5v8.2  c6.3,0.3,11,1.3,14.1,3v12.1c-4.2-2.5-8.9-4.1-14.1-4.7v17c6.5,2.4,11.2,5.1,14.1,8.1c2.8,3,4.3,6.7,4.3,11c0,5-1.6,9-4.8,12  C266.1,181.8,261.6,183.7,255.7,184.3z M249.1,145.1v-14.2c-4.2,0.7-6.2,2.9-6.2,6.5C242.9,140.5,245,143,249.1,145.1z M255.7,160.2  v13.6c4.3-0.7,6.4-2.8,6.4-6.4C262.1,164.5,260,162.1,255.7,160.2z"/>
<path style="fill:#4CDBC4;" d="M365.4,326.7h-48.3v-11.3c6.4-1.7,9.6-6.2,9.6-13.4v-5.8h-8.6v-10.7h8.6v-9.3c0-6.6,2-11.9,6.1-15.9  c4-4,9.5-6.1,16.4-6.1c4.2,0,8.1,0.8,11.6,2.4v12.9c-3.2-2.2-6.7-3.3-10.4-3.3c-6.1,0-9.1,3.8-9.1,11.4v7.9h13.3v10.8h-13.3v4.3  c0,6.1-2.5,10.8-7.6,14.1h31.7L365.4,326.7L365.4,326.7z"/>
<path style="fill:#FFD05B;" d="M191.1,255.3l-17.4,31.4h12.4v9.3h-15v7.5h15v9.3h-15v12.8H156v-12.8h-15.4v-9.3H156V296h-15.4v-9.3  h12.6l-16.8-31.4h15.7l12.1,28h0.2c0.1-0.4,0.7-1.8,1.8-4.4l10-23.5h14.9V255.3z"/>
<g>
</g>
<g>
</g>
<g>
</g>
<g>
</g>
<g>
</g>
<g>
</g>
<g>
</g>
<g>
</g>
<g>
</g>
<g>
</g>
<g>
</g>
<g>
</g>
<g>
</g>
<g>
</g>
<g>
</g>
</svg>
