<?xml version="1.0" encoding="iso-8859-1"?>
<!-- Generator: Adobe Illustrator 19.0.0, SVG Export Plug-In . SVG Version: 6.00 Build 0)  -->
<svg xmlns="http://www.w3.org/2000/svg" xmlns:xlink="http://www.w3.org/1999/xlink" version="1.1" id="Layer_1" x="0px" y="0px" viewBox="0 0 505 505" style="enable-background:new 0 0 505 505;" xml:space="preserve">
<circle style="fill:#90DFAA;" cx="252.5" cy="252.5" r="252.5"/>
<path style="fill:#2C9984;" d="M55,409.8c46.3,58,117.5,95.2,197.5,95.2s151.2-37.2,197.5-95.2H55z"/>
<path style="fill:#324A5E;" d="M410.1,115.6H94.9c-5.5,0-10,4.5-10,10v228.6c0,5.5,4.5,10,10,10h315.2c5.5,0,10-4.5,10-10V125.7  C420.2,120.1,415.7,115.6,410.1,115.6z"/>
<rect x="103.8" y="135.2" style="fill:#54C0EB;" width="297.3" height="209.5"/>
<path style="fill:#324A5E;" d="M288.8,379.4v7.7h-72.7v-7.7H68.6l5.7,18.3c2.2,7.2,8.8,12,16.3,12h323.9c7.5,0,14.1-4.9,16.3-12  l5.7-18.3H288.8z"/>
<g>
	<path style="fill:#FFFFFF;" d="M326.6,219.4c-40.9-40.8-107.3-40.8-148.2,0L168,209c46.6-46.6,122.4-46.6,168.9,0L326.6,219.4z"/>
	<path style="fill:#FFFFFF;" d="M302.2,245.2c-27.4-27.4-72.1-27.4-99.5,0l-10.4-10.4c33.1-33.2,87.1-33.2,120.2,0L302.2,245.2z"/>
	<path style="fill:#FFFFFF;" d="M229.5,270.5l-10.4-10.4c8.9-8.9,20.8-13.8,33.4-13.8c12.6,0,24.5,4.9,33.4,13.8l-10.4,10.4   c-6.1-6.1-14.3-9.5-23-9.5C243.8,261,235.6,264.4,229.5,270.5z"/>
	<circle style="fill:#FFFFFF;" cx="252.5" cy="292.4" r="13.4"/>
</g>
<g>
</g>
<g>
</g>
<g>
</g>
<g>
</g>
<g>
</g>
<g>
</g>
<g>
</g>
<g>
</g>
<g>
</g>
<g>
</g>
<g>
</g>
<g>
</g>
<g>
</g>
<g>
</g>
<g>
</g>
</svg>
