<?xml version="1.0" encoding="iso-8859-1"?>
<!-- Generator: Adobe Illustrator 19.0.0, SVG Export Plug-In . SVG Version: 6.00 Build 0)  -->
<svg xmlns="http://www.w3.org/2000/svg" xmlns:xlink="http://www.w3.org/1999/xlink" version="1.1" id="Layer_1" x="0px" y="0px" viewBox="0 0 505 505" style="enable-background:new 0 0 505 505;" xml:space="preserve">
<circle style="fill:#324A5E;" cx="252.5" cy="252.5" r="252.5"/>
<path style="fill:#FFFFFF;" d="M252.5,80c-1.4,0-2.7,0.2-4.1,0.5l-118.3,31.2c-7,1.8-11.8,8.1-11.8,15.4v125.4h134.2V80z"/>
<g>
	<path style="fill:#4CDBC4;" d="M386.7,252.5V127.1c0-7.2-4.9-13.5-11.8-15.4L256.6,80.5c-1.3-0.4-2.7-0.5-4.1-0.5v172.5H386.7z"/>
	<path style="fill:#4CDBC4;" d="M118.3,252.5v9.6c0,21.1,5.7,41.9,17.1,59.5c17.8,27.3,51.2,67.4,108.8,101.2   c2.5,1.5,5.4,2.2,8.2,2.2V252.5H118.3z"/>
</g>
<path style="fill:#FFFFFF;" d="M252.5,252.5V425c2.9,0,5.7-0.7,8.2-2.2c57.6-33.7,91-73.9,108.8-101.2  c11.5-17.7,17.1-38.5,17.1-59.5v-9.6H252.5z"/>
<g>
</g>
<g>
</g>
<g>
</g>
<g>
</g>
<g>
</g>
<g>
</g>
<g>
</g>
<g>
</g>
<g>
</g>
<g>
</g>
<g>
</g>
<g>
</g>
<g>
</g>
<g>
</g>
<g>
</g>
</svg>
