<?xml version="1.0" encoding="iso-8859-1"?>
<!-- Generator: Adobe Illustrator 19.0.0, SVG Export Plug-In . SVG Version: 6.00 Build 0)  -->
<svg xmlns="http://www.w3.org/2000/svg" xmlns:xlink="http://www.w3.org/1999/xlink" version="1.1" id="Layer_1" x="0px" y="0px" viewBox="0 0 505 505" style="enable-background:new 0 0 505 505;" xml:space="preserve">
<circle style="fill:#84DBFF;" cx="252.5" cy="252.5" r="252.5"/>
<rect x="126.4" y="148" style="fill:#324A5E;" width="57.4" height="27.2"/>
<path style="fill:#E6E9EE;" d="M367.7,115.7c-0.4-1.9-2.2-3.3-4.3-3.3h-74.9c-2.1,0-3.9,1.4-4.3,3.3l-11.4,59.6H379L367.7,115.7z"/>
<path style="fill:#FFFFFF;" d="M397.1,164H107.9c-11.1,0-20,9-20,20v181.4c0,11.1,9,20,20,20H397c11.1,0,20-9,20-20V184  C417.1,173,408.1,164,397.1,164z"/>
<rect x="87.9" y="217.9" style="fill:#2B3B4E;" width="329.1" height="122.5"/>
<path style="fill:#FF7058;" d="M383.9,182.3h-21c-3.7,0-6.7,3-6.7,6.7s3,6.7,6.7,6.7h21c3.7,0,6.7-3,6.7-6.7  S387.6,182.3,383.9,182.3z"/>
<circle style="fill:#324A5E;" cx="252.5" cy="274.7" r="79"/>
<circle style="fill:#84DBFF;" cx="252.5" cy="274.7" r="63.3"/>
<circle style="fill:#54C0EB;" cx="252.5" cy="274.7" r="36.8"/>
<g>
	<circle style="fill:#FFFFFF;" cx="232.3" cy="247.9" r="15.1"/>
	<circle style="fill:#FFFFFF;" cx="251.9" cy="267.5" r="7.8"/>
</g>
<rect x="298.8" y="126.5" style="fill:#CED5E0;" width="54.4" height="24.1"/>
<g>
</g>
<g>
</g>
<g>
</g>
<g>
</g>
<g>
</g>
<g>
</g>
<g>
</g>
<g>
</g>
<g>
</g>
<g>
</g>
<g>
</g>
<g>
</g>
<g>
</g>
<g>
</g>
<g>
</g>
</svg>
