<?xml version="1.0" encoding="iso-8859-1"?>
<!-- Generator: Adobe Illustrator 19.0.0, SVG Export Plug-In . SVG Version: 6.00 Build 0)  -->
<svg xmlns="http://www.w3.org/2000/svg" xmlns:xlink="http://www.w3.org/1999/xlink" version="1.1" id="Layer_1" x="0px" y="0px" viewBox="0 0 505 505" style="enable-background:new 0 0 505 505;" xml:space="preserve">
<circle style="fill:#324A5E;" cx="252.5" cy="252.5" r="252.5"/>
<g>
	<polygon style="fill:#FFFFFF;" points="200.1,313.4 191.8,309.4 239.6,209.2 357.4,170.8 360.3,179.5 246.1,216.7  "/>
	<rect x="123.7" y="125.6" style="fill:#FFFFFF;" width="15.8" height="8.2"/>
	<rect x="123.7" y="162" style="fill:#FFFFFF;" width="15.8" height="8.2"/>
	<rect x="123.7" y="198.3" style="fill:#FFFFFF;" width="15.8" height="8.2"/>
	<rect x="123.7" y="234.6" style="fill:#FFFFFF;" width="15.8" height="8.2"/>
	<rect x="123.7" y="271" style="fill:#FFFFFF;" width="15.8" height="8.2"/>
	<rect x="123.7" y="307.3" style="fill:#FFFFFF;" width="15.8" height="8.2"/>
	<rect x="123.7" y="343.6" style="fill:#FFFFFF;" width="15.8" height="8.2"/>
	<rect x="155.5" y="366.6" style="fill:#FFFFFF;" width="8.2" height="15.8"/>
	<rect x="191.9" y="366.6" style="fill:#FFFFFF;" width="8.2" height="15.8"/>
	<rect x="228.2" y="366.6" style="fill:#FFFFFF;" width="8.2" height="15.8"/>
	<rect x="264.5" y="366.6" style="fill:#FFFFFF;" width="8.2" height="15.8"/>
	<rect x="300.9" y="366.6" style="fill:#FFFFFF;" width="8.2" height="15.8"/>
	<rect x="337.2" y="366.6" style="fill:#FFFFFF;" width="8.2" height="15.8"/>
	<rect x="373.5" y="366.6" style="fill:#FFFFFF;" width="8.2" height="15.8"/>
	<polygon style="fill:#FFFFFF;" points="123.7,382.4 123.7,99.1 100.2,99.1 100.2,382.4 100.2,382.9 100.2,405.9 404.8,405.9    404.8,382.4  "/>
</g>
<circle style="fill:#FFD05B;" cx="195.9" cy="311.4" r="21.7"/>
<circle style="fill:#4CDBC4;" cx="242.8" cy="213" r="21.7"/>
<circle style="fill:#FF7058;" cx="358.9" cy="175.2" r="21.7"/>
<g>
</g>
<g>
</g>
<g>
</g>
<g>
</g>
<g>
</g>
<g>
</g>
<g>
</g>
<g>
</g>
<g>
</g>
<g>
</g>
<g>
</g>
<g>
</g>
<g>
</g>
<g>
</g>
<g>
</g>
</svg>
