<?xml version="1.0" encoding="iso-8859-1"?>
<!-- Generator: Adobe Illustrator 19.0.0, SVG Export Plug-In . SVG Version: 6.00 Build 0)  -->
<svg xmlns="http://www.w3.org/2000/svg" xmlns:xlink="http://www.w3.org/1999/xlink" version="1.1" id="Layer_1" x="0px" y="0px" viewBox="0 0 505 505" style="enable-background:new 0 0 505 505;" xml:space="preserve">
<circle style="fill:#90DFAA;" cx="252.5" cy="252.5" r="252.5"/>
<path style="fill:#FF7058;" d="M380.4,115H124.6c-5.3,0-9.6,4.3-9.6,9.6v255.9c0,5.3,4.3,9.6,9.6,9.6h255.9c5.3,0,9.6-4.3,9.6-9.6  V124.6C390,119.3,385.7,115,380.4,115z"/>
<rect x="139.1" y="139.1" style="fill:#FFFFFF;" width="226.8" height="226.8"/>
<g>
	<circle style="fill:#324A5E;" cx="252.5" cy="157.7" r="7.1"/>
	<circle style="fill:#324A5E;" cx="252.5" cy="347.3" r="7.1"/>
	<circle style="fill:#324A5E;" cx="347.3" cy="252.5" r="7.1"/>
	<circle style="fill:#324A5E;" cx="157.7" cy="252.5" r="7.1"/>
</g>
<polygon style="fill:#4CDBC4;" points="257.7,247.3 257.7,177.5 247.3,177.5 247.3,247.3 247.3,252.5 247.3,257.7 311.4,257.7   311.4,247.3 "/>
<g>
</g>
<g>
</g>
<g>
</g>
<g>
</g>
<g>
</g>
<g>
</g>
<g>
</g>
<g>
</g>
<g>
</g>
<g>
</g>
<g>
</g>
<g>
</g>
<g>
</g>
<g>
</g>
<g>
</g>
</svg>
