<?xml version="1.0" encoding="iso-8859-1"?>
<!-- Generator: Adobe Illustrator 19.0.0, SVG Export Plug-In . SVG Version: 6.00 Build 0)  -->
<svg xmlns="http://www.w3.org/2000/svg" xmlns:xlink="http://www.w3.org/1999/xlink" version="1.1" id="Layer_1" x="0px" y="0px" viewBox="0 0 505 505" style="enable-background:new 0 0 505 505;" xml:space="preserve">
<circle style="fill:#FD8469;" cx="252.5" cy="252.5" r="252.5"/>
<path style="fill:#FFFFFF;" d="M306.2,408.8c-8.3,0-15-6.7-15-15v-42.9h-77.5v42.9c0,8.3-6.7,15-15,15c-11.7,0-21.2,9.5-21.2,21.2  h149.9C327.4,418.3,317.9,408.8,306.2,408.8z"/>
<rect x="213.8" y="350.9" style="fill:#ACB3BA;" width="77.5" height="35.9"/>
<path style="fill:#FFFFFF;" d="M408.2,109.1H96.8c-3.2,0-5.9,2.6-5.9,5.9v251.7c0,3.2,2.6,5.9,5.9,5.9h311.3c3.2,0,5.9-2.6,5.9-5.9  V115C414,111.7,411.4,109.1,408.2,109.1z"/>
<rect x="109.3" y="127" style="fill:#84DBFF;" width="286.3" height="197.7"/>
<circle style="fill:#E6E9EE;" cx="252.5" cy="347.4" r="8.8"/>
<path style="fill:#FFFFFF;" d="M253.1,267.1v-19.6l-11.1-0.9c-1.1-4.4-2.8-8.4-5.1-12.2l7.2-8.5l-13.8-13.8l-8.5,7.2  c-3.7-2.3-7.8-4-12.2-5.1l-0.9-11.1h-19.6l-0.9,11.1c-4.4,1.1-8.4,2.8-12.2,5.1l-8.5-7.2l-13.8,13.8l7.2,8.5  c-2.3,3.7-4,7.8-5.1,12.2l-11.1,0.9v19.6l11.1,0.9c1.1,4.4,2.8,8.4,5.1,12.2l-7.2,8.5l13.8,13.8l8.5-7.2c3.7,2.3,7.8,4,12.2,5.1  l0.9,11.1h19.6l0.9-11.1c4.4-1.1,8.4-2.8,12.2-5.1l8.5,7.2l13.8-13.8l-7.2-8.5c2.3-3.7,4-7.8,5.1-12.2L253.1,267.1z M198.9,283.1  c-14.2,0-25.7-11.5-25.7-25.7c0-14.2,11.5-25.7,25.7-25.7s25.7,11.5,25.7,25.7C224.6,271.6,213.1,283.1,198.9,283.1z"/>
<path style="fill:#324A5E;" d="M376.4,143.9V127h-29.5c0.7,2.3,1.1,4.6,1.1,7.1c0,14.2-11.5,25.7-25.7,25.7s-25.8-11.5-25.8-25.7  c0-2.5,0.5-4.8,1.1-7.1h-29.5v16.9l11.1,0.9c1.1,4.3,2.8,8.4,5.1,12.2l-7.2,8.5l13.8,13.8l8.5-7.2c3.7,2.3,7.8,4,12.2,5.1l0.9,11.1  h19.6l0.9-11.1c4.4-1.1,8.4-2.8,12.2-5.1l8.5,7.2l13.8-13.8l-7.2-8.5c2.3-3.7,4-7.8,5.1-12.2L376.4,143.9z"/>
<g>
</g>
<g>
</g>
<g>
</g>
<g>
</g>
<g>
</g>
<g>
</g>
<g>
</g>
<g>
</g>
<g>
</g>
<g>
</g>
<g>
</g>
<g>
</g>
<g>
</g>
<g>
</g>
<g>
</g>
</svg>
