<?xml version="1.0" encoding="iso-8859-1"?>
<!-- Generator: Adobe Illustrator 19.0.0, SVG Export Plug-In . SVG Version: 6.00 Build 0)  -->
<svg xmlns="http://www.w3.org/2000/svg" xmlns:xlink="http://www.w3.org/1999/xlink" version="1.1" id="Layer_1" x="0px" y="0px" viewBox="0 0 505 505" style="enable-background:new 0 0 505 505;" xml:space="preserve">
<circle style="fill:#84DBFF;" cx="252.5" cy="252.5" r="252.5"/>
<g>
	<circle style="fill:#FFFFFF;" cx="374.2" cy="299.9" r="24.6"/>
	<path style="fill:#FFFFFF;" d="M420.1,376.7c-0.3-25.2-20.7-45.5-45.9-45.5c-25.2,0-45.6,20.3-45.9,45.5H420.1z"/>
	<circle style="fill:#FFFFFF;" cx="130.8" cy="299.9" r="24.6"/>
	<path style="fill:#FFFFFF;" d="M176.6,376.7c-0.3-25.2-20.7-45.5-45.9-45.5s-45.6,20.3-45.9,45.5H176.6z"/>
	<circle style="fill:#FFFFFF;" cx="252.5" cy="91.7" r="37.1"/>
	<path style="fill:#FFFFFF;" d="M321.8,207.8c-0.4-38-31.2-68.7-69.3-68.7s-68.9,30.7-69.3,68.7H321.8z"/>
</g>
<polygon style="fill:#324A5E;" points="258.5,236.9 258.5,220.4 246.5,220.4 246.5,236.9 125.9,236.9 125.9,263.7 137.8,263.7   137.8,248.8 367.2,248.8 367.2,263.7 379.1,263.7 379.1,236.9 "/>
<g>
</g>
<g>
</g>
<g>
</g>
<g>
</g>
<g>
</g>
<g>
</g>
<g>
</g>
<g>
</g>
<g>
</g>
<g>
</g>
<g>
</g>
<g>
</g>
<g>
</g>
<g>
</g>
<g>
</g>
</svg>
