<?xml version="1.0" encoding="iso-8859-1"?>
<!-- Generator: Adobe Illustrator 19.0.0, SVG Export Plug-In . SVG Version: 6.00 Build 0)  -->
<svg xmlns="http://www.w3.org/2000/svg" xmlns:xlink="http://www.w3.org/1999/xlink" version="1.1" id="Layer_1" x="0px" y="0px" viewBox="0 0 505 505" style="enable-background:new 0 0 505 505;" xml:space="preserve">
<circle style="fill:#324A5E;" cx="252.5" cy="252.5" r="252.5"/>
<path style="fill:#4CDBC4;" d="M268.6,369.8h-71.3c-1,0-1.8,0.8-1.8,1.8V396c0,1,0.8,1.8,1.8,1.8h71.3c1,0,1.8-0.8,1.8-1.8v-24.5  C270.4,370.6,269.6,369.8,268.6,369.8z"/>
<path style="fill:#ACB3BA;" d="M207.1,405c0,6.2,5.1,11.3,11.3,11.3h29.1c6.2,0,11.3-5.1,11.3-11.3H207.1z"/>
<path style="fill:#FFFFFF;" d="M221.8,131.1c-41.7,4.6-75.3,38.1-80.1,79.7c-3.3,28.4,6.6,54.6,24.3,73.3  c19.1,20.2,28.8,47.5,28.8,75.4c0,1.8,1.4,3.2,3.2,3.2h69.5c1,0,1.9-0.8,1.9-1.9c0-28.4,9.8-56.3,29.2-77.1  c15.2-16.3,24.5-38.1,24.5-62.2C323.2,167.9,276.7,125,221.8,131.1z"/>
<circle style="fill:#FF7058;" cx="232.2" cy="220.4" r="63.8"/>
<circle style="fill:#FFD05B;" cx="232.2" cy="220.4" r="42.6"/>
<circle style="fill:#F1543F;" cx="232.2" cy="220.4" r="23.1"/>
<path style="fill:#EDF2F2;" d="M352.9,99.7c-2.3-2.3-6.1-2.3-8.4,0L229.7,214.5c-2.3,2.3-2.3,6.1,0,8.4c2.3,2.3,6.1,2.3,8.4,0  l114.8-114.8C355.2,105.8,355.2,102,352.9,99.7z"/>
<g>
	<polygon style="fill:#4CDBC4;" points="329.3,159.5 306,151.4 340.6,116.9 363.9,124.9  "/>
	<polygon style="fill:#4CDBC4;" points="293.1,123.3 301.2,146.6 335.8,112 327.7,88.7  "/>
</g>
<g>
</g>
<g>
</g>
<g>
</g>
<g>
</g>
<g>
</g>
<g>
</g>
<g>
</g>
<g>
</g>
<g>
</g>
<g>
</g>
<g>
</g>
<g>
</g>
<g>
</g>
<g>
</g>
<g>
</g>
</svg>
