<?xml version="1.0" encoding="iso-8859-1"?>
<!-- Generator: Adobe Illustrator 19.0.0, SVG Export Plug-In . SVG Version: 6.00 Build 0)  -->
<svg xmlns="http://www.w3.org/2000/svg" xmlns:xlink="http://www.w3.org/1999/xlink" version="1.1" id="Layer_1" x="0px" y="0px" viewBox="0 0 505 505" style="enable-background:new 0 0 505 505;" xml:space="preserve">
<circle style="fill:#90DFAA;" cx="252.5" cy="252.5" r="252.5"/>
<polygon style="fill:#FFFFFF;" points="310,97.1 150.5,97.1 150.5,251.4 354.5,251.4 354.5,141.7 "/>
<g>
	<path style="fill:#FF7058;" d="M404.3,236h-22.8v45.8h22.8c1.5,0,2.7-1.2,2.7-2.7v-40.3C407.1,237.2,405.8,236,404.3,236z"/>
	<path style="fill:#FF7058;" d="M100.7,236h22.8v45.8h-22.8c-1.5,0-2.7-1.2-2.7-2.7v-40.3C97.9,237.2,99.2,236,100.7,236z"/>
</g>
<polygon style="fill:#EDF2F2;" points="396.3,407.9 108.7,407.9 106.5,381.5 398.5,381.5 "/>
<polygon style="fill:#324A5E;" points="381.9,225 328.9,225 328.9,243.1 176.1,243.1 176.1,225 123.1,225 106.5,381.5 398.5,381.5   "/>
<g>
	<path style="fill:#EDF2F2;" d="M179.6,261.6H168c-3.2,0-6,2.4-6.2,5.3l-0.8,10.7c-0.2,3,2.2,5.4,5.5,5.4h11.8c3.2,0,6-2.4,6.2-5.4   l0.6-10.7C185.3,264,182.8,261.6,179.6,261.6z"/>
	<path style="fill:#EDF2F2;" d="M219,261.6h-11.6c-3.2,0-5.9,2.4-6,5.3l-0.4,10.7c-0.1,3,2.4,5.4,5.7,5.4h11.8c3.2,0,5.9-2.4,6-5.4   l0.2-10.7C224.7,264,222.2,261.6,219,261.6z"/>
	<path style="fill:#EDF2F2;" d="M258.3,261.6h-11.6c-3.2,0-5.8,2.4-5.8,5.3l-0.1,10.7c0,3,2.6,5.4,5.8,5.4h11.8   c3.2,0,5.9-2.4,5.8-5.4l-0.1-10.7C264.1,264,261.5,261.6,258.3,261.6z"/>
	<path style="fill:#EDF2F2;" d="M297.6,261.6H286c-3.2,0-5.7,2.4-5.7,5.3l0.2,10.7c0.1,3,2.8,5.4,6,5.4h11.8c3.2,0,5.8-2.4,5.7-5.4   l-0.4-10.7C303.5,264,300.8,261.6,297.6,261.6z"/>
	<path style="fill:#EDF2F2;" d="M336.9,261.6h-11.6c-3.2,0-5.7,2.4-5.5,5.3l0.6,10.7c0.2,3,2.9,5.4,6.2,5.4h11.8   c3.2,0,5.7-2.4,5.5-5.4l-0.8-10.7C342.9,264,340.1,261.6,336.9,261.6z"/>
	<path style="fill:#EDF2F2;" d="M175.4,334.9h-12.2c-3.4,0-6.3,2.7-6.5,5.9l-0.9,12c-0.2,3.4,2.4,6.1,5.8,6.1h12.5   c3.4,0,6.4-2.7,6.6-6.1l0.6-12C181.4,337.5,178.8,334.9,175.4,334.9z"/>
	<path style="fill:#EDF2F2;" d="M217,334.9h-12.2c-3.4,0-6.2,2.7-6.4,5.9l-0.5,12c-0.1,3.4,2.5,6.1,6,6.1h12.5   c3.4,0,6.3-2.7,6.4-6.1l0.3-12C223.1,337.5,220.4,334.9,217,334.9z"/>
	<path style="fill:#EDF2F2;" d="M258.6,334.9h-12.2c-3.4,0-6.1,2.7-6.2,5.9l-0.1,12c0,3.4,2.7,6.1,6.2,6.1h12.5   c3.4,0,6.2-2.7,6.2-6.1l-0.1-12C264.8,337.5,262,334.9,258.6,334.9z"/>
	<path style="fill:#EDF2F2;" d="M300.2,334.9H288c-3.4,0-6.1,2.7-6,5.9l0.3,12c0.1,3.4,2.9,6.1,6.4,6.1h12.5c3.4,0,6.1-2.7,6-6.1   l-0.5-12C306.5,337.5,303.6,334.9,300.2,334.9z"/>
	<path style="fill:#EDF2F2;" d="M341.9,334.9h-12.2c-3.4,0-6,2.7-5.8,5.9l0.6,12c0.2,3.4,3.1,6.1,6.6,6.1h12.4c3.4,0,6-2.7,5.8-6.1   l-0.9-12C348.2,337.5,345.2,334.9,341.9,334.9z"/>
	<path style="fill:#EDF2F2;" d="M157.4,297.2h-11.9c-3.3,0-6.2,2.5-6.4,5.6l-1,11.3c-0.3,3.2,2.2,5.8,5.5,5.8h12.1   c3.3,0,6.2-2.6,6.4-5.8l0.8-11.3C163.1,299.7,160.6,297.2,157.4,297.2z"/>
	<path style="fill:#EDF2F2;" d="M197.8,297.2h-11.9c-3.3,0-6.1,2.5-6.3,5.6l-0.6,11.3c-0.2,3.2,2.4,5.8,5.7,5.8h12.1   c3.3,0,6.1-2.6,6.3-5.8l0.4-11.3C203.6,299.7,201.1,297.2,197.8,297.2z"/>
	<path style="fill:#EDF2F2;" d="M238.2,297.2h-11.9c-3.3,0-6,2.5-6.1,5.6l-0.3,11.3c-0.1,3.2,2.6,5.8,5.9,5.8h12.1   c3.3,0,6.1-2.6,6.1-5.8l0.1-11.3C244.2,299.7,241.5,297.2,238.2,297.2z"/>
	<path style="fill:#EDF2F2;" d="M278.7,297.2h-11.9c-3.3,0-5.9,2.5-5.9,5.6l0.1,11.3c0,3.2,2.7,5.8,6.1,5.8h12.1   c3.3,0,6-2.6,5.9-5.8l-0.3-11.3C284.7,299.7,281.9,297.2,278.7,297.2z"/>
	<path style="fill:#EDF2F2;" d="M319.1,297.2h-11.9c-3.3,0-5.9,2.5-5.7,5.6l0.4,11.3c0.1,3.2,2.9,5.8,6.3,5.8h12.1   c3.3,0,5.9-2.6,5.7-5.8l-0.6-11.3C325.2,299.7,322.4,297.2,319.1,297.2z"/>
	<path style="fill:#EDF2F2;" d="M359.5,297.2h-11.9c-3.3,0-5.8,2.5-5.6,5.6l0.8,11.3c0.2,3.2,3.1,5.8,6.4,5.8h12.1   c3.3,0,5.8-2.6,5.5-5.8l-1-11.3C365.7,299.7,362.8,297.2,359.5,297.2z"/>
	<polygon style="fill:#EDF2F2;" points="310,141.7 354.5,141.7 310,97.1  "/>
	<rect x="177.9" y="154.3" style="fill:#EDF2F2;" width="149.3" height="6.4"/>
	<rect x="177.9" y="178.7" style="fill:#EDF2F2;" width="149.3" height="6.4"/>
	<rect x="177.9" y="203" style="fill:#EDF2F2;" width="149.3" height="6.4"/>
</g>
<g>
</g>
<g>
</g>
<g>
</g>
<g>
</g>
<g>
</g>
<g>
</g>
<g>
</g>
<g>
</g>
<g>
</g>
<g>
</g>
<g>
</g>
<g>
</g>
<g>
</g>
<g>
</g>
<g>
</g>
</svg>
