<?xml version="1.0" encoding="iso-8859-1"?>
<!-- Generator: Adobe Illustrator 19.0.0, SVG Export Plug-In . SVG Version: 6.00 Build 0)  -->
<svg xmlns="http://www.w3.org/2000/svg" xmlns:xlink="http://www.w3.org/1999/xlink" version="1.1" id="Layer_1" x="0px" y="0px" viewBox="0 0 505 505" style="enable-background:new 0 0 505 505;" xml:space="preserve">
<path style="fill:#FFD05B;" d="M505,252.5c0,89.8-46.9,168.7-117.5,213.4c-13.1,8.4-27.1,15.5-41.8,21.3  c-28.8,11.5-60.3,17.8-93.2,17.8s-64.3-6.3-93.2-17.8c-14.6-5.8-28.6-12.9-41.8-21.3C46.9,421.2,0,342.3,0,252.5  C0,113,113,0,252.5,0C391.9,0,505,113,505,252.5z"/>
<path style="fill:#324A5E;" d="M261,381.2v-290c0-4.7-3.8-8.5-8.5-8.5c-4.7,0-8.5,3.8-8.5,8.5v290c0,0.3-0.1,0.6-0.1,1  c0,12.6-10.2,22.8-22.8,22.8s-22.8-10.2-22.8-22.8c0-4.8-3.9-8.6-8.6-8.6c-4.8,0-8.6,3.9-8.6,8.6c0,22.1,18,40.1,40.1,40.1  s40.1-18,40.1-40.1C261.1,381.9,261.1,381.5,261,381.2z"/>
<g>
	<path style="fill:#FF7058;" d="M252.5,102.5V102C160.6,102,83,162.2,56.3,245.2c5.6-1.4,11.3-2.4,17.3-2.4   c25.2,0,47.1,13.3,59.6,33.2C137,248.4,158.2,131.7,252.5,102.5z"/>
	<path style="fill:#FF7058;" d="M259.3,102.3c92.9,33.7,111,152.3,112.5,173.8c12.5-19.9,34.4-33.2,59.6-33.2c6,0,11.7,1,17.3,2.4   C422.7,164.3,348.2,105.2,259.3,102.3z"/>
</g>
<path style="fill:#E6E9EE;" d="M259.3,102.3c-1.8-0.1-3.6-0.2-5.5-0.2c-0.4,0.1-0.9,0.3-1.3,0.4v173.6  c12.5-19.9,34.4-33.3,59.6-33.3c25.2,0,47.2,13.3,59.6,33.3l0,0C370.3,254.6,352.2,136,259.3,102.3z"/>
<path style="fill:#FFFFFF;" d="M133.2,276.1L133.2,276.1c12.5-19.9,34.4-33.2,59.6-33.2s47.2,13.3,59.6,33.3V102.5  C158.2,131.7,137,248.4,133.2,276.1z"/>
<g>
</g>
<g>
</g>
<g>
</g>
<g>
</g>
<g>
</g>
<g>
</g>
<g>
</g>
<g>
</g>
<g>
</g>
<g>
</g>
<g>
</g>
<g>
</g>
<g>
</g>
<g>
</g>
<g>
</g>
</svg>
