<?xml version="1.0" encoding="iso-8859-1"?>
<!-- Generator: Adobe Illustrator 19.0.0, SVG Export Plug-In . SVG Version: 6.00 Build 0)  -->
<svg xmlns="http://www.w3.org/2000/svg" xmlns:xlink="http://www.w3.org/1999/xlink" version="1.1" id="Layer_1" x="0px" y="0px" viewBox="0 0 505 505" style="enable-background:new 0 0 505 505;" xml:space="preserve">
<circle style="fill:#FD8469;" cx="252.5" cy="252.5" r="252.5"/>
<circle style="fill:#324A5E;" cx="252.5" cy="399.6" r="39.4"/>
<path style="fill:#FFFFFF;" d="M352.4,266c0-56.6-29.9-111.5-71.1-130.1c7.5-7.4,12.1-17.7,12.1-29c0-22.6-18.3-40.9-40.9-40.9  s-40.9,18.3-40.9,40.9c0,11.3,4.6,21.6,12.1,29c-41.2,18.6-71.1,73.5-71.1,130.1c0,145.9-118.6,126.3,99.9,126.3  S352.4,411.8,352.4,266z M252.5,85.8c11.6,0,21.1,9.4,21.1,21.1s-9.4,21.1-21.1,21.1s-21.1-9.4-21.1-21.1S240.9,85.8,252.5,85.8z"/>
<path style="fill:#84DBFF;" d="M152.3,277.7c-0.7,15.2-2.7,28.5-5.4,40.1h211.2c-2.7-11.5-4.7-24.8-5.4-40.1H152.3z"/>
<g>
</g>
<g>
</g>
<g>
</g>
<g>
</g>
<g>
</g>
<g>
</g>
<g>
</g>
<g>
</g>
<g>
</g>
<g>
</g>
<g>
</g>
<g>
</g>
<g>
</g>
<g>
</g>
<g>
</g>
</svg>
