<?xml version="1.0" encoding="iso-8859-1"?>
<!-- Generator: Adobe Illustrator 19.0.0, SVG Export Plug-In . SVG Version: 6.00 Build 0)  -->
<svg xmlns="http://www.w3.org/2000/svg" xmlns:xlink="http://www.w3.org/1999/xlink" version="1.1" id="Layer_1" x="0px" y="0px" viewBox="0 0 505 505" style="enable-background:new 0 0 505 505;" xml:space="preserve">
<circle style="fill:#84DBFF;" cx="252.5" cy="252.5" r="252.5"/>
<path style="fill:#324A5E;" d="M394.3,247.5H257.6v-46.2h-10.2v32.6v13.6H110.7c-2.8,0-5.1,2.3-5.1,5.1v48.5c0,2.8,2.3,5.1,5.1,5.1  c2.8,0,5.1-2.3,5.1-5.1v-43.4h131.6v46h10.2v-46h131.6v53c0,2.8,2.3,5.1,5.1,5.1s5.1-2.3,5.1-5.1v-58.1  C399.4,249.8,397.1,247.5,394.3,247.5z"/>
<g>
	<path style="fill:#FFFFFF;" d="M185.9,100.7v90.6c0,10.1,8.2,18.3,18.3,18.3h96.6c10.1,0,18.3-8.2,18.3-18.3v-90.6   c0-10.1-8.2-18.3-18.3-18.3h-96.6C194.1,82.4,185.9,90.6,185.9,100.7z"/>
	<path style="fill:#FFFFFF;" d="M154.9,390.1H66.5c-1.3,0-2.4-1.1-2.4-2.4v-84.2c0-1.3,1.1-2.4,2.4-2.4h88.4c1.3,0,2.4,1.1,2.4,2.4   v84.2C157.3,389,156.3,390.1,154.9,390.1z"/>
	<path style="fill:#FFFFFF;" d="M438.5,390.1h-88.4c-1.3,0-2.4-1.1-2.4-2.4v-84.2c0-1.3,1.1-2.4,2.4-2.4h88.4c1.3,0,2.4,1.1,2.4,2.4   v84.2C440.9,389,439.8,390.1,438.5,390.1z"/>
	<path style="fill:#FFFFFF;" d="M296.7,390.1h-88.4c-1.3,0-2.4-1.1-2.4-2.4v-84.2c0-1.3,1.1-2.4,2.4-2.4h88.4c1.3,0,2.4,1.1,2.4,2.4   v84.2C299.1,389,298.1,390.1,296.7,390.1z"/>
</g>
<rect x="82.5" y="317.3" style="fill:#FF7058;" width="56.5" height="56.5"/>
<rect x="224.3" y="317.3" style="fill:#FFD05B;" width="56.5" height="56.5"/>
<rect x="366.1" y="317.3" style="fill:#2C9984;" width="56.5" height="56.5"/>
<g>
</g>
<g>
</g>
<g>
</g>
<g>
</g>
<g>
</g>
<g>
</g>
<g>
</g>
<g>
</g>
<g>
</g>
<g>
</g>
<g>
</g>
<g>
</g>
<g>
</g>
<g>
</g>
<g>
</g>
</svg>
