<?xml version="1.0" encoding="iso-8859-1"?>
<!-- Generator: Adobe Illustrator 19.0.0, SVG Export Plug-In . SVG Version: 6.00 Build 0)  -->
<svg xmlns="http://www.w3.org/2000/svg" xmlns:xlink="http://www.w3.org/1999/xlink" version="1.1" id="Layer_1" x="0px" y="0px" viewBox="0 0 505 505" style="enable-background:new 0 0 505 505;" xml:space="preserve">
<circle style="fill:#FFD05B;" cx="252.5" cy="252.5" r="252.5"/>
<path style="fill:#FFFFFF;" d="M177.4,111.2h165.9v279H113.2V175.5C135.4,153.2,159.6,128.9,177.4,111.2z"/>
<path style="fill:#E6E9EE;" d="M177.4,111.2v64.3h-64.2C131,157.8,155.1,133.5,177.4,111.2z"/>
<path style="fill:#FF7058;" d="M250.4,278.4c-1.1,0-2.2-0.7-2.7-1.7l-15.1-32l-11.1,18.6c-0.6,0.9-1.5,1.6-2.7,1.4l-45.8-2.2  c-1.1-0.1-2-0.7-2.5-1.6l-5.4-10.4l-7.1,10.9c-0.5,0.8-1.5,1.3-2.4,1.3l-16.5,0.2c-1.7,0-3-1.3-3-2.9s1.3-3,2.9-3l14.9-0.2l9-13.8  c0.6-0.9,1.6-1.4,2.6-1.3c1,0.1,2,0.7,2.5,1.6l7,13.3l42.4,2.1l13.1-21.8c0.6-0.9,1.6-1.5,2.7-1.4c1.1,0.1,2.1,0.7,2.5,1.7  l14.4,30.5l15-41.8c0.5-1.3,1.6-2,3-1.9c1.3,0.1,2.4,1.1,2.7,2.4l6,31.4l40.6,1.7c1.6,0.1,2.9,1.4,2.8,3.1c-0.1,1.6-1.5,2.9-3.1,2.8  l-43-1.8c-1.4-0.1-2.5-1.1-2.8-2.4l-4.4-23.1l-13.8,38.3c-0.4,1.1-1.4,1.9-2.6,2C250.5,278.4,250.4,278.4,250.4,278.4z"/>
<path style="fill:#4CDBC4;" d="M290.8,202.4c-25-25-65.4-25-90.4,0s-25,65.4,0,90.4c22.1,22.1,56.2,24.6,81.1,7.7l25.8,25.8l17-17  l-25.8-25.8C315.4,258.6,312.9,224.5,290.8,202.4z M277.2,279.2c-17.4,17.4-45.7,17.5-63.2,0c-17.4-17.4-17.4-45.7,0-63.2  c17.5-17.5,45.7-17.5,63.2,0S294.7,261.8,277.2,279.2z"/>
<path style="fill:#324A5E;" d="M316.5,295.6l-22.9,22.9c-2,2-2,5.3,0,7.3l66.5,66.5c2,2,5.3,2,7.3,0l22.9-22.9c2-2,2-5.3,0-7.3  l-66.5-66.5C321.8,293.6,318.5,293.6,316.5,295.6z"/>
<g>
</g>
<g>
</g>
<g>
</g>
<g>
</g>
<g>
</g>
<g>
</g>
<g>
</g>
<g>
</g>
<g>
</g>
<g>
</g>
<g>
</g>
<g>
</g>
<g>
</g>
<g>
</g>
<g>
</g>
</svg>
