<?xml version="1.0" encoding="iso-8859-1"?>
<!-- Generator: Adobe Illustrator 19.0.0, SVG Export Plug-In . SVG Version: 6.00 Build 0)  -->
<svg xmlns="http://www.w3.org/2000/svg" xmlns:xlink="http://www.w3.org/1999/xlink" version="1.1" id="Layer_1" x="0px" y="0px" viewBox="0 0 505 505" style="enable-background:new 0 0 505 505;" xml:space="preserve">
<circle style="fill:#FD8469;" cx="252.5" cy="252.5" r="252.5"/>
<path style="fill:#FFFFFF;" d="M357.7,75H147.3c-10.4,0-18.8,8.4-18.8,18.8v317.4c0,10.4,8.4,18.8,18.8,18.8h210.4  c10.4,0,18.8-8.4,18.8-18.8V93.8C376.6,83.4,368.1,75,357.7,75z"/>
<rect x="143" y="117.7" style="fill:#84DBFF;" width="219" height="269.5"/>
<g>
	<path style="fill:#E6E9EE;" d="M274.2,101.2h-43.4c-2.8,0-5.1-2.3-5.1-5.1l0,0c0-2.8,2.3-5.1,5.1-5.1h43.4c2.8,0,5.1,2.3,5.1,5.1   l0,0C279.2,98.9,277,101.2,274.2,101.2z"/>
	<circle style="fill:#E6E9EE;" cx="252.5" cy="409.2" r="8.7"/>
</g>
<path style="fill:#54C0EB;" d="M362,255.8l-68.2-68.2c-4.8-4.8-12.6-4.8-17.4,0l-90.8,90.9c-4.8,4.8-4.8,12.6,0,17.4l91.4,91.4h85  V255.8z"/>
<polygon style="fill:#2B3B4E;" points="362,300.8 262.6,201.4 234,230.1 362,358 "/>
<g>
</g>
<g>
</g>
<g>
</g>
<g>
</g>
<g>
</g>
<g>
</g>
<g>
</g>
<g>
</g>
<g>
</g>
<g>
</g>
<g>
</g>
<g>
</g>
<g>
</g>
<g>
</g>
<g>
</g>
</svg>
