<?xml version="1.0" encoding="iso-8859-1"?>
<!-- Generator: Adobe Illustrator 19.0.0, SVG Export Plug-In . SVG Version: 6.00 Build 0)  -->
<svg xmlns="http://www.w3.org/2000/svg" xmlns:xlink="http://www.w3.org/1999/xlink" version="1.1" id="Layer_1" x="0px" y="0px" viewBox="0 0 505 505" style="enable-background:new 0 0 505 505;" xml:space="preserve">
<circle style="fill:#324A5E;" cx="252.5" cy="252.5" r="252.5"/>
<polygon style="fill:#4CDBC4;" points="259.5,272.6 259.5,230.9 245.5,230.9 245.5,272.6 126,272.6 126,272.6 126,286.1 126,327.2   140.1,327.2 140.1,286.1 245.5,286.1 245.5,327.8 259.5,327.8 259.5,286.1 364.9,286.1 364.9,327.2 379,327.2 379,286.1 379,272.6   379,272.6 "/>
<path style="fill:#FFFFFF;" d="M349.3,164.1h-7.2c0-0.2,0-0.4,0-0.7c0-24.4-19.8-44.2-44.1-44.2c-9.1,0-17.6,2.8-24.6,7.5  C265.9,99.8,241.3,80,212,80c-35.2,0-63.8,28.5-63.8,63.8c0,7.2,1.2,14.1,3.4,20.5c-16.3,2.2-29,17.6-29,36.5  c0,20.3,14.7,36.7,32.9,36.7h193.7c18.2,0,32.9-16.5,32.9-36.7C382.2,180.6,367.5,164.1,349.3,164.1z"/>
<path style="fill:#EDF2F2;" d="M409.4,321.9h-42c-1.2,0-2.4-0.6-3-1.6l-3.9-6c-0.7-1-1.8-1.6-3-1.6h-23c-2,0-3.6,1.6-3.6,3.6v59.1  c0,2,1.6,3.6,3.6,3.6h74.9c2,0,3.6-1.6,3.6-3.6v-49.9C413,323.5,411.4,321.9,409.4,321.9z"/>
<path style="fill:#FFD05B;" d="M290,321.9h-42c-1.2,0-2.4-0.6-3-1.6l-3.9-6c-0.7-1-1.8-1.6-3-1.6h-23c-2,0-3.6,1.6-3.6,3.6v59.1  c0,2,1.6,3.6,3.6,3.6H290c2,0,3.6-1.6,3.6-3.6v-49.9C293.6,323.5,292,321.9,290,321.9z"/>
<path style="fill:#FF7058;" d="M170.5,321.9h-42c-1.2,0-2.4-0.6-3-1.6l-3.9-6c-0.7-1-1.8-1.6-3-1.6h-23c-2,0-3.6,1.6-3.6,3.6v59.1  c0,2,1.6,3.6,3.6,3.6h74.9c2,0,3.6-1.6,3.6-3.6v-49.9C174.1,323.5,172.5,321.9,170.5,321.9z"/>
<g>
</g>
<g>
</g>
<g>
</g>
<g>
</g>
<g>
</g>
<g>
</g>
<g>
</g>
<g>
</g>
<g>
</g>
<g>
</g>
<g>
</g>
<g>
</g>
<g>
</g>
<g>
</g>
<g>
</g>
</svg>
