<?xml version="1.0" encoding="iso-8859-1"?>
<!-- Generator: Adobe Illustrator 19.0.0, SVG Export Plug-In . SVG Version: 6.00 Build 0)  -->
<svg xmlns="http://www.w3.org/2000/svg" xmlns:xlink="http://www.w3.org/1999/xlink" version="1.1" id="Layer_1" x="0px" y="0px" viewBox="0 0 505 505" style="enable-background:new 0 0 505 505;" xml:space="preserve">
<circle style="fill:#54C0EB;" cx="252.5" cy="252.5" r="252.5"/>
<path style="fill:#FFFFFF;" d="M421,282.9V222l-34.5-2.9c-3.4-13.5-8.7-26.2-15.7-37.8l22.4-26.5l-43-43l-26.5,22.4  c-11.6-7-24.3-12.4-37.8-15.7L283,84h-60.9l-2.9,34.5c-13.5,3.4-26.2,8.7-37.8,15.7l-26.5-22.4l-43,43l22.4,26.5  c-7,11.6-12.4,24.3-15.7,37.8L84.1,222v60.9l34.5,2.9c3.4,13.5,8.7,26.2,15.7,37.8l-22.4,26.5l43,43l26.5-22.4  c11.6,7,24.3,12.4,37.8,15.7l2.9,34.5H283l2.9-34.5c13.5-3.4,26.2-8.7,37.8-15.7l26.5,22.4l43-43l-22.4-26.5  c7-11.6,12.4-24.3,15.7-37.8L421,282.9z M252.5,337.1c-46.7,0-84.6-37.9-84.6-84.6s37.9-84.6,84.6-84.6s84.6,37.9,84.6,84.6  S299.2,337.1,252.5,337.1z"/>
<path style="fill:#324A5E;" d="M257.5,301.3v15.2h-10.2v-14.8c-9.5,0-18.3-2.2-26.5-6.4v-19.4c2.7,2.2,6.7,4.2,12.1,6.1  c5.4,1.9,10.2,2.9,14.4,3.2v-25.5c-10.9-4.1-18.4-8.5-22.4-13.2s-6-10.5-6-17.3c0-7.3,2.6-13.6,7.8-18.7c5.2-5.2,12-8.2,20.6-9v-13  h10.2v12.7c9.9,0.5,17.2,2.1,22.1,4.8v18.9c-6.5-4-13.9-6.4-22.1-7.3v26.5c10.2,3.7,17.6,7.9,22,12.6s6.7,10.5,6.7,17.2  c0,7.8-2.5,14-7.4,18.7C273.7,297.4,266.7,300.3,257.5,301.3z M247.2,240.1v-22.2c-6.5,1.2-9.7,4.6-9.7,10.2  C237.5,232.8,240.8,236.8,247.2,240.1z M257.5,263.7v21.2c6.7-1,10-4.4,10-10C267.5,270.4,264.1,266.6,257.5,263.7z"/>
<g>
</g>
<g>
</g>
<g>
</g>
<g>
</g>
<g>
</g>
<g>
</g>
<g>
</g>
<g>
</g>
<g>
</g>
<g>
</g>
<g>
</g>
<g>
</g>
<g>
</g>
<g>
</g>
<g>
</g>
</svg>
