<?xml version="1.0" encoding="iso-8859-1"?>
<!-- Generator: Adobe Illustrator 19.0.0, SVG Export Plug-In . SVG Version: 6.00 Build 0)  -->
<svg xmlns="http://www.w3.org/2000/svg" xmlns:xlink="http://www.w3.org/1999/xlink" version="1.1" id="Layer_1" x="0px" y="0px" viewBox="0 0 505 505" style="enable-background:new 0 0 505 505;" xml:space="preserve">
<circle style="fill:#FD8469;" cx="252.5" cy="252.5" r="252.5"/>
<path style="fill:#324A5E;" d="M196.4,237.6v-63.7c0-30.9,25.2-56.1,56.1-56.1s56.1,25.2,56.1,56.1v63.7h25.6v-63.7  c0-45.1-36.7-81.7-81.7-81.7c-45.1,0-81.7,36.7-81.7,81.7v63.7H196.4z"/>
<path style="fill:#4CDBC4;" d="M343.9,222.3H161.1c-9.1,0-16.5,7.4-16.5,16.5v157.5c0,9.1,7.4,16.5,16.5,16.5h182.8  c9.1,0,16.5-7.4,16.5-16.5V238.8C360.4,229.7,353,222.3,343.9,222.3z"/>
<g>
	<rect x="320" y="260.5" style="fill:#324A5E;" width="40.4" height="25.8"/>
	<rect x="320" y="304.7" style="fill:#324A5E;" width="40.4" height="25.8"/>
	<rect x="320" y="348.8" style="fill:#324A5E;" width="40.4" height="25.8"/>
</g>
<path style="fill:#FFFFFF;" d="M256.7,358.8v12.8h-8.6v-12.5c-8,0-15.4-1.9-22.3-5.4v-16.4c2.3,1.9,5.7,3.6,10.2,5.1  c4.5,1.6,8.6,2.5,12.1,2.7v-21.5c-9.2-3.4-15.5-7.1-18.9-11.1s-5.1-8.9-5.1-14.6c0-6.2,2.2-11.5,6.6-15.8c4.4-4.4,10.2-6.9,17.4-7.6  v-11h8.6v10.8c8.3,0.4,14.5,1.7,18.6,4v16c-5.5-3.3-11.7-5.4-18.6-6.1v22.3c8.6,3.1,14.8,6.7,18.6,10.7c3.7,4,5.6,8.8,5.6,14.5  c0,6.5-2.1,11.8-6.3,15.8C270.4,355.5,264.5,357.9,256.7,358.8z M248.1,307.1v-18.7c-5.5,1-8.2,3.8-8.2,8.6  C239.9,301,242.6,304.4,248.1,307.1z M256.7,327.1V345c5.6-0.9,8.4-3.7,8.4-8.5C265.1,332.6,262.3,329.5,256.7,327.1z"/>
<g>
</g>
<g>
</g>
<g>
</g>
<g>
</g>
<g>
</g>
<g>
</g>
<g>
</g>
<g>
</g>
<g>
</g>
<g>
</g>
<g>
</g>
<g>
</g>
<g>
</g>
<g>
</g>
<g>
</g>
</svg>
