<?xml version="1.0" encoding="iso-8859-1"?>
<!-- Generator: Adobe Illustrator 19.0.0, SVG Export Plug-In . SVG Version: 6.00 Build 0)  -->
<svg xmlns="http://www.w3.org/2000/svg" xmlns:xlink="http://www.w3.org/1999/xlink" version="1.1" id="Layer_1" x="0px" y="0px" viewBox="0 0 505 505" style="enable-background:new 0 0 505 505;" xml:space="preserve">
<path style="fill:#FFD05B;" d="M505,252.5c0,103-61.6,191.5-150,230.8c-8.4,3.8-17.2,7.1-26.1,9.9c-24.1,7.7-49.8,11.8-76.4,11.8  s-52.3-4.1-76.4-11.8c-8.9-2.8-17.6-6.1-26.1-9.9C61.6,444,0,355.5,0,252.5C0,113.1,113,0,252.5,0S505,113.1,505,252.5z"/>
<polygon style="fill:#FFFFFF;" points="333.6,188.1 128.4,393.3 109,347.2 300.8,155.3 "/>
<path style="fill:#FF7058;" d="M319.4,119.4l-0.1-0.1L144,294.7c-3.1,3.1-3.1,8.2,0,11.4l9,9l148.7-148.7l21.9,21.9L174.8,336.9l9,9  c3.1,3.1,8.2,3.1,11.4,0l104.1-104.1c19.8-19.8,41.6-36.1,70.3-42.8c6.3-1.5,12-4.5,16.5-9.2c14.4-14.8,13.8-43.9-3.7-62.4  C364.4,108.1,335.5,106.1,319.4,119.4z"/>
<path style="fill:#324A5E;" d="M254.1,207.8l-22.4,22.4c-0.7,0.7-0.7,1.9,0,2.7l25.4,25.4c0.7,0.7,1.9,0.7,2.7,0l22.4-22.4  c0.7-0.7,0.7-1.9,0-2.7l-25.4-25.4C256,207.1,254.8,207.1,254.1,207.8z"/>
<g>
</g>
<g>
</g>
<g>
</g>
<g>
</g>
<g>
</g>
<g>
</g>
<g>
</g>
<g>
</g>
<g>
</g>
<g>
</g>
<g>
</g>
<g>
</g>
<g>
</g>
<g>
</g>
<g>
</g>
</svg>
