<?xml version="1.0" encoding="iso-8859-1"?>
<!-- Generator: Adobe Illustrator 19.0.0, SVG Export Plug-In . SVG Version: 6.00 Build 0)  -->
<svg xmlns="http://www.w3.org/2000/svg" xmlns:xlink="http://www.w3.org/1999/xlink" version="1.1" id="Layer_1" x="0px" y="0px" viewBox="0 0 505 505" style="enable-background:new 0 0 505 505;" xml:space="preserve">
<path style="fill:#324A5E;" d="M0,252.5C0,113,113,0,252.5,0S505,113,505,252.5S392,505,252.5,505S0,392,0,252.5z"/>
<polygon style="fill:#2C9984;" points="367.9,165.5 137.1,165.5 104.6,245.7 178.1,245.7 178.1,296.8 326.9,296.8 326.9,245.7   400.4,245.7 "/>
<rect x="166.1" y="144.7" style="fill:#FFFFFF;" width="172.8" height="182.1"/>
<path style="fill:#4CDBC4;" d="M306.6,245.7c0,17.8-14.5,32.3-32.3,32.3h-43.5c-17.8,0-32.3-14.5-32.3-32.3h-93.9v114.6h295.9V245.7  H306.6z"/>
<g>
	<rect x="191.5" y="170.5" style="fill:#E6E9EE;" width="122" height="8.1"/>
	<rect x="191.5" y="195.4" style="fill:#E6E9EE;" width="122" height="8.1"/>
	<rect x="191.5" y="220.4" style="fill:#E6E9EE;" width="75.8" height="8.1"/>
</g>
<g>
</g>
<g>
</g>
<g>
</g>
<g>
</g>
<g>
</g>
<g>
</g>
<g>
</g>
<g>
</g>
<g>
</g>
<g>
</g>
<g>
</g>
<g>
</g>
<g>
</g>
<g>
</g>
<g>
</g>
</svg>
