<?xml version="1.0" encoding="iso-8859-1"?>
<!-- Generator: Adobe Illustrator 19.0.0, SVG Export Plug-In . SVG Version: 6.00 Build 0)  -->
<svg xmlns="http://www.w3.org/2000/svg" xmlns:xlink="http://www.w3.org/1999/xlink" version="1.1" id="Layer_1" x="0px" y="0px" viewBox="0 0 505 505" style="enable-background:new 0 0 505 505;" xml:space="preserve">
<circle style="fill:#54C0EB;" cx="252.5" cy="252.5" r="252.5"/>
<g>
	<circle style="fill:#FFFFFF;" cx="252.5" cy="324.7" r="51.2"/>
	<circle style="fill:#FFFFFF;" cx="109.6" cy="325.1" r="50.6"/>
	<circle style="fill:#FFFFFF;" cx="395.3" cy="324.4" r="50.7"/>
</g>
<polygon style="fill:#324A5E;" points="258,233.6 258,206.8 247,206.8 247,233.6 104.1,233.6 104.1,274.5 115,274.5 115,244.5   247,244.5 247,273.5 258,273.5 258,244.5 389.9,244.5 389.9,273.7 400.8,273.7 400.8,233.6 "/>
<circle style="fill:#FFFFFF;" cx="252.5" cy="133.9" r="72.9"/>
<path style="fill:#4CDBC4;" d="M256,168.3V179h-7.2v-10.4c-6.7,0-12.9-1.5-18.6-4.5v-13.7c1.9,1.5,4.8,3,8.5,4.3  c3.8,1.3,7.2,2.1,10.1,2.3v-18c-7.7-2.9-12.9-6-15.8-9.3c-2.8-3.3-4.2-7.4-4.2-12.2c0-5.2,1.8-9.6,5.5-13.2  c3.6-3.6,8.5-5.7,14.5-6.3v-9.2h7.2v9c6.9,0.3,12.1,1.4,15.5,3.4v13.3c-4.6-2.8-9.8-4.5-15.5-5.1v18.7c7.2,2.6,12.4,5.6,15.5,8.9  c3.1,3.3,4.7,7.4,4.7,12.1c0,5.5-1.7,9.9-5.2,13.2S262.5,167.6,256,168.3z M248.8,125.2v-15.7c-4.6,0.8-6.9,3.2-6.9,7.2  C241.9,120.1,244.2,122.9,248.8,125.2z M256,141.8v14.9c4.7-0.7,7.1-3.1,7.1-7.1C263.1,146.5,260.7,143.9,256,141.8z"/>
<g>
</g>
<g>
</g>
<g>
</g>
<g>
</g>
<g>
</g>
<g>
</g>
<g>
</g>
<g>
</g>
<g>
</g>
<g>
</g>
<g>
</g>
<g>
</g>
<g>
</g>
<g>
</g>
<g>
</g>
</svg>
