<?xml version="1.0" encoding="iso-8859-1"?>
<!-- Generator: Adobe Illustrator 19.0.0, SVG Export Plug-In . SVG Version: 6.00 Build 0)  -->
<svg xmlns="http://www.w3.org/2000/svg" xmlns:xlink="http://www.w3.org/1999/xlink" version="1.1" id="Layer_1" x="0px" y="0px" viewBox="0 0 505 505" style="enable-background:new 0 0 505 505;" xml:space="preserve">
<circle style="fill:#90DFAA;" cx="252.5" cy="252.5" r="252.5"/>
<polygon style="fill:#FFFFFF;" points="343.9,100.7 100.7,100.7 100.7,404.3 404.3,404.3 404.3,161.1 "/>
<g>
	<rect x="100.7" y="140.8" style="fill:#EDF2F2;" width="278.2" height="2"/>
	<rect x="100.7" y="185.1" style="fill:#EDF2F2;" width="303.7" height="2"/>
	<rect x="100.7" y="229.4" style="fill:#EDF2F2;" width="303.7" height="2"/>
	<rect x="100.7" y="273.6" style="fill:#EDF2F2;" width="303.7" height="2"/>
	<rect x="100.7" y="317.9" style="fill:#EDF2F2;" width="303.7" height="2"/>
	<rect x="100.7" y="362.2" style="fill:#EDF2F2;" width="303.7" height="2"/>
	<rect x="148.6" y="100.7" style="fill:#EDF2F2;" width="2" height="303.7"/>
	<rect x="200" y="100.7" style="fill:#EDF2F2;" width="2" height="303.7"/>
	<rect x="251.5" y="100.7" style="fill:#EDF2F2;" width="2" height="303.7"/>
	<rect x="303" y="100.7" style="fill:#EDF2F2;" width="2" height="303.7"/>
	<rect x="354.5" y="119.3" style="fill:#EDF2F2;" width="2" height="285.1"/>
</g>
<polygon style="fill:#FF7058;" points="357.5,204.4 321.9,204.4 334.6,217.1 288.9,262.8 241.3,215.1 147.5,309 157.7,319.2   241.3,235.6 288.9,283.2 344.8,227.3 357.5,240 "/>
<polygon style="fill:#324A5E;" points="343.9,161.1 404.3,161.1 343.9,100.7 "/>
<g>
</g>
<g>
</g>
<g>
</g>
<g>
</g>
<g>
</g>
<g>
</g>
<g>
</g>
<g>
</g>
<g>
</g>
<g>
</g>
<g>
</g>
<g>
</g>
<g>
</g>
<g>
</g>
<g>
</g>
</svg>
