<?xml version="1.0" encoding="iso-8859-1"?>
<!-- Generator: Adobe Illustrator 19.0.0, SVG Export Plug-In . SVG Version: 6.00 Build 0)  -->
<svg xmlns="http://www.w3.org/2000/svg" xmlns:xlink="http://www.w3.org/1999/xlink" version="1.1" id="Layer_1" x="0px" y="0px" viewBox="0 0 505 505" style="enable-background:new 0 0 505 505;" xml:space="preserve">
<circle style="fill:#84DBFF;" cx="252.5" cy="252.5" r="252.5"/>
<path style="fill:#324A5E;" d="M412.6,399H92.4c-1.6,0-2.9-1.3-2.9-2.9V108.9c0-1.6,1.3-2.9,2.9-2.9h320.3c1.6,0,2.9,1.3,2.9,2.9  v287.3C415.5,397.7,414.2,399,412.6,399z"/>
<rect x="111.4" y="184" style="fill:#FFFFFF;" width="282.1" height="193.1"/>
<g>
	<path style="fill:#84DBFF;" d="M380,156.7L380,156.7c-6.5,0-11.8-5.3-11.8-11.8l0,0c0-6.5,5.3-11.8,11.8-11.8l0,0   c6.5,0,11.8,5.3,11.8,11.8l0,0C391.8,151.5,386.5,156.7,380,156.7z"/>
	<path style="fill:#84DBFF;" d="M341.5,156.7L341.5,156.7c-6.5,0-11.8-5.3-11.8-11.8l0,0c0-6.5,5.3-11.8,11.8-11.8l0,0   c6.5,0,11.8,5.3,11.8,11.8l0,0C353.2,151.5,348,156.7,341.5,156.7z"/>
	<path style="fill:#84DBFF;" d="M302.9,156.7L302.9,156.7c-6.5,0-11.8-5.3-11.8-11.8l0,0c0-6.5,5.3-11.8,11.8-11.8l0,0   c6.5,0,11.8,5.3,11.8,11.8l0,0C314.7,151.5,309.4,156.7,302.9,156.7z"/>
</g>
<path style="fill:#FFFFFF;" d="M222.2,156.7h-99c-6.5,0-11.8-5.3-11.8-11.8l0,0c0-6.5,5.3-11.8,11.8-11.8h99  c6.5,0,11.8,5.3,11.8,11.8l0,0C233.9,151.5,228.7,156.7,222.2,156.7z"/>
<g>
	<rect x="154.2" y="240.9" style="fill:#E6E9EE;" width="196.6" height="9.5"/>
	<rect x="154.2" y="275.8" style="fill:#E6E9EE;" width="196.6" height="9.5"/>
	<rect x="154.2" y="310.6" style="fill:#E6E9EE;" width="99.7" height="9.5"/>
</g>
<g>
</g>
<g>
</g>
<g>
</g>
<g>
</g>
<g>
</g>
<g>
</g>
<g>
</g>
<g>
</g>
<g>
</g>
<g>
</g>
<g>
</g>
<g>
</g>
<g>
</g>
<g>
</g>
<g>
</g>
</svg>
