<?xml version="1.0" encoding="iso-8859-1"?>
<!-- Generator: Adobe Illustrator 19.0.0, SVG Export Plug-In . SVG Version: 6.00 Build 0)  -->
<svg xmlns="http://www.w3.org/2000/svg" xmlns:xlink="http://www.w3.org/1999/xlink" version="1.1" id="Layer_1" x="0px" y="0px" viewBox="0 0 505 505" style="enable-background:new 0 0 505 505;" xml:space="preserve">
<circle style="fill:#324A5E;" cx="252.5" cy="252.5" r="252.5"/>
<path style="fill:#FFD05B;" d="M361.5,361.5h-218c-6.5,0-12.2-4.4-13.9-10.6l-35-147.6l96.5,79.1l61.4-118.7l62.2,118.2l95.6-78.6  l-35.1,147.6C373.6,357.1,368,361.5,361.5,361.5z"/>
<g>
	<circle style="fill:#EDF2F2;" cx="95" cy="202.9" r="15.5"/>
	<circle style="fill:#EDF2F2;" cx="410" cy="202.9" r="15.5"/>
	<circle style="fill:#EDF2F2;" cx="252.5" cy="163.9" r="20.3"/>
</g>
<circle style="fill:#FF7058;" cx="252.5" cy="309.6" r="40"/>
<path style="fill:#FFFFFF;" d="M254.4,328.8v6h-4V329c-3.7,0-7.2-0.9-10.4-2.5v-7.6c1.1,0.9,2.6,1.7,4.7,2.4c2.1,0.7,4,1.2,5.6,1.3  v-10c-4.3-1.6-7.2-3.3-8.8-5.2s-2.3-4.1-2.3-6.8c0-2.9,1-5.3,3-7.3s4.7-3.2,8.1-3.5v-5.3h4v5c3.9,0.2,6.7,0.8,8.6,1.9v7.4  c-2.6-1.6-5.4-2.5-8.6-2.9v10.4c4,1.4,6.9,3.1,8.6,5s2.6,4.1,2.6,6.7c0,3-1,5.5-2.9,7.3C260.8,327.2,258,328.4,254.4,328.8z   M250.4,304.8v-8.7c-2.5,0.5-3.8,1.8-3.8,4C246.6,301.9,247.9,303.5,250.4,304.8z M254.4,314v8.3c2.6-0.4,3.9-1.7,3.9-3.9  C258.4,316.6,257.1,315.2,254.4,314z"/>
<g>
</g>
<g>
</g>
<g>
</g>
<g>
</g>
<g>
</g>
<g>
</g>
<g>
</g>
<g>
</g>
<g>
</g>
<g>
</g>
<g>
</g>
<g>
</g>
<g>
</g>
<g>
</g>
<g>
</g>
</svg>
