<?xml version="1.0" encoding="iso-8859-1"?>
<!-- Generator: Adobe Illustrator 19.0.0, SVG Export Plug-In . SVG Version: 6.00 Build 0)  -->
<svg xmlns="http://www.w3.org/2000/svg" xmlns:xlink="http://www.w3.org/1999/xlink" version="1.1" id="Layer_1" x="0px" y="0px" viewBox="0 0 505 505" style="enable-background:new 0 0 505 505;" xml:space="preserve">
<circle style="fill:#FD8469;" cx="252.5" cy="252.5" r="252.5"/>
<path style="fill:#FFFFFF;" d="M389.7,98.3H115.3c-5.9,0-10.7,4.8-10.7,10.7v274.4c0,5.9,4.8,10.7,10.7,10.7h274.4  c5.9,0,10.7-4.8,10.7-10.7V108.9C400.4,103,395.6,98.3,389.7,98.3z"/>
<rect x="129" y="122.6" style="fill:#EDF2F2;" width="246.9" height="246.9"/>
<g>
	<rect x="330.2" y="394" style="fill:#324A5E;" width="43.9" height="18.7"/>
	<rect x="130.9" y="394" style="fill:#324A5E;" width="43.9" height="18.7"/>
</g>
<path style="fill:#84DBFF;" d="M337.2,256.9v-21.6l-12.2-1c-1.2-4.8-3.1-9.3-5.6-13.4l7.9-9.4L312,196.2l-9.4,7.9  c-4.1-2.5-8.6-4.4-13.4-5.6l-1-12.2h-21.6l-1,12.2c-4.8,1.2-9.3,3.1-13.4,5.6l-9.4-7.9l-15.2,15.3l7.9,9.4  c-2.5,4.1-4.4,8.6-5.6,13.4l-12.2,1v21.6l12.2,1c1.2,4.8,3.1,9.3,5.6,13.4l-7.9,9.4l15.3,15.3l9.4-7.9c4.1,2.5,8.6,4.4,13.4,5.6  l1,12.2h21.6l1-12.2c4.8-1.2,9.3-3.1,13.4-5.6l9.4,7.9l15.3-15.3l-7.9-9.4c2.5-4.1,4.4-8.6,5.6-13.4L337.2,256.9z M277.5,276.1  c-16.6,0-30-13.4-30-30s13.4-30,30-30s30,13.4,30,30S294,276.1,277.5,276.1z"/>
<g>
	<rect x="121.8" y="153.9" style="fill:#324A5E;" width="17.8" height="64.4"/>
	<rect x="121.8" y="276" style="fill:#324A5E;" width="17.8" height="64.4"/>
</g>
<g>
</g>
<g>
</g>
<g>
</g>
<g>
</g>
<g>
</g>
<g>
</g>
<g>
</g>
<g>
</g>
<g>
</g>
<g>
</g>
<g>
</g>
<g>
</g>
<g>
</g>
<g>
</g>
<g>
</g>
</svg>
