<?xml version="1.0" encoding="iso-8859-1"?>
<!-- Generator: Adobe Illustrator 19.0.0, SVG Export Plug-In . SVG Version: 6.00 Build 0)  -->
<svg xmlns="http://www.w3.org/2000/svg" xmlns:xlink="http://www.w3.org/1999/xlink" version="1.1" id="Layer_1" x="0px" y="0px" viewBox="0 0 505 505" style="enable-background:new 0 0 505 505;" xml:space="preserve">
<circle style="fill:#FFD05B;" cx="252.5" cy="252.5" r="252.5"/>
<path style="fill:#F9B54C;" d="M21.6,354.6C60.8,443.2,149.4,505,252.5,505s191.7-61.8,230.9-150.4H21.6z"/>
<path style="fill:#324A5E;" d="M418.2,222H86.8c-8.9,0-16.1,7.2-16.1,16.1V319c0,8.9,7.2,16.1,16.1,16.1h331.4  c8.9,0,16.1-7.2,16.1-16.1v-80.9C434.3,229.2,427.1,222,418.2,222z"/>
<g>
	<path style="fill:#2B3B4E;" d="M403.5,354.6h-47.6c-0.6,0-1-0.5-1-1v-18.4h49.7v18.3C404.6,354.1,404.1,354.6,403.5,354.6z"/>
	<path style="fill:#2B3B4E;" d="M149.1,354.6h-47.6c-0.6,0-1-0.5-1-1v-18.4h49.7v18.3C150.1,354.1,149.7,354.6,149.1,354.6z"/>
</g>
<g>
	<circle style="fill:#EDF2F2;" cx="96.8" cy="247.4" r="9.3"/>
	<circle style="fill:#EDF2F2;" cx="127.6" cy="247.4" r="9.3"/>
</g>
<circle style="fill:#FFFFFF;" cx="309.5" cy="220.8" r="69"/>
<circle style="fill:#84DBFF;" cx="309.5" cy="220.8" r="54.5"/>
<circle style="fill:#54C0EB;" cx="309.4" cy="220.9" r="35.7"/>
<g>
	<circle style="fill:#FFFFFF;" cx="286.5" cy="196.3" r="11"/>
	<circle style="fill:#FFFFFF;" cx="303.2" cy="213" r="6.1"/>
</g>
<g>
</g>
<g>
</g>
<g>
</g>
<g>
</g>
<g>
</g>
<g>
</g>
<g>
</g>
<g>
</g>
<g>
</g>
<g>
</g>
<g>
</g>
<g>
</g>
<g>
</g>
<g>
</g>
<g>
</g>
</svg>
