<?xml version="1.0" encoding="iso-8859-1"?>
<!-- Generator: Adobe Illustrator 19.0.0, SVG Export Plug-In . SVG Version: 6.00 Build 0)  -->
<svg xmlns="http://www.w3.org/2000/svg" xmlns:xlink="http://www.w3.org/1999/xlink" version="1.1" id="Layer_1" x="0px" y="0px" viewBox="0 0 505 505" style="enable-background:new 0 0 505 505;" xml:space="preserve">
<path style="fill:#84DBFF;" d="M505,252.55c0,129.7-97.8,236.5-223.6,250.8c-5.4,0.6-10.8,1.1-16.4,1.3c-4.1,0.2-8.3,0.3-12.5,0.3  c-7.7,0-15.3-0.4-22.9-1.1c-5.2-0.4-10.4-1.1-15.5-1.9c-10.9-1.7-21.6-4-32-7.1c-5.2-1.5-10.4-3.2-15.5-5  C69.4,454.85,0,361.85,0,252.55C0,113.05,113.1,0.05,252.5,0.05C392,0.05,505,113.05,505,252.55z"/>
<path style="fill:#324A5E;" d="M256.8,185.65v13.2h-8.9v-12.9c-8.3,0-16-1.9-23.1-5.6v-16.9c2.4,1.9,5.9,3.7,10.6,5.3  c4.7,1.6,8.9,2.6,12.5,2.8v-22.2c-9.5-3.5-16-7.4-19.5-11.5s-5.2-9.2-5.2-15.1c0-6.4,2.3-11.8,6.8-16.3c4.5-4.5,10.5-7.1,17.9-7.8  v-11.4h8.9v11.1c8.6,0.4,15,1.8,19.2,4.2v16.5c-5.7-3.5-12.1-5.6-19.2-6.3v23.1c8.9,3.2,15.3,6.9,19.2,11c3.9,4.1,5.8,9.1,5.8,15  c0,6.8-2.2,12.2-6.5,16.3S264.9,184.75,256.8,185.65z M247.9,132.25v-19.4c-5.7,1-8.5,4-8.5,8.9  C239.4,125.95,242.3,129.45,247.9,132.25z M256.8,152.85v18.5c5.8-0.9,8.7-3.8,8.7-8.7C265.6,158.65,262.7,155.35,256.8,152.85z"/>
<path style="fill:#EDF2F2;" d="M154.3,139.75c-19,14.8-22.3,42.2-7.5,61.1l89.4,114.5l34.3-26.8L154.3,139.75z"/>
<path style="fill:#F1543F;" d="M299.4,302.95l-10.4,8.2l-28.8-36.9c-1.3-1.6-3.6-1.9-5.2-0.6l-29.5,22.9c-1.6,1.3-1.9,3.6-0.6,5.2  l51.3,65.7l0.1-0.3c0.4,0.6,0.7,1.3,1.2,1.9l26.5,33.9c13.1,16.8,37.4,19.8,54.2,6.7l15.3-12c16.8-13.1,19.8-37.4,6.7-54.2  l-26.5-33.9C340.5,292.85,316.2,289.85,299.4,302.95z M366.2,354.35c7.1,9.1,5.5,22.3-3.6,29.4l-15.3,12c-9.1,7.1-22.3,5.5-29.4-3.6  l-26.5-33.9c-7.1-9.1-5.5-22.3,3.6-29.4l15.3-12c9.1-7.1,22.3-5.5,29.4,3.6L366.2,354.35z"/>
<path style="fill:#FFFFFF;" d="M350.7,136.85c19,14.8,22.3,42.2,7.5,61.1l-89.4,114.5l-34.3-26.8L350.7,136.85z"/>
<path style="fill:#FF7058;" d="M151.4,306.75l-26.5,33.9c-13.1,16.8-10.1,41,6.7,54.2l15.3,12c16.8,13.1,41,10.1,54.2-6.7l26.5-33.9  c0.5-0.6,0.8-1.3,1.2-1.9l0.1,0.3l51.3-65.7c1.3-1.6,1-4-0.6-5.2l-29.4-23c-1.6-1.3-4-1-5.2,0.6l-28.8,36.9l-10.4-8.2  C188.8,287.05,164.5,289.95,151.4,306.75z M165.3,317.65c7.1-9.1,20.3-10.7,29.4-3.6l15.3,12c9.1,7.1,10.7,20.3,3.6,29.4l-26.5,33.9  c-7.1,9.1-20.3,10.7-29.4,3.6l-15.3-12c-9.1-7.1-10.7-20.3-3.6-29.4L165.3,317.65z"/>
<circle style="fill:#324A5E;" cx="251.7" cy="299.75" r="9"/>
<g>
</g>
<g>
</g>
<g>
</g>
<g>
</g>
<g>
</g>
<g>
</g>
<g>
</g>
<g>
</g>
<g>
</g>
<g>
</g>
<g>
</g>
<g>
</g>
<g>
</g>
<g>
</g>
<g>
</g>
</svg>
