<?xml version="1.0" encoding="iso-8859-1"?>
<!-- Generator: Adobe Illustrator 19.0.0, SVG Export Plug-In . SVG Version: 6.00 Build 0)  -->
<svg xmlns="http://www.w3.org/2000/svg" xmlns:xlink="http://www.w3.org/1999/xlink" version="1.1" id="Layer_1" x="0px" y="0px" viewBox="0 0 505 505" style="enable-background:new 0 0 505 505;" xml:space="preserve">
<circle style="fill:#324A5E;" cx="252.5" cy="252.5" r="252.5"/>
<g>
	<rect x="355.7" y="289.9" style="fill:#EDF2F2;" width="47.7" height="31.3"/>
	<path style="fill:#EDF2F2;" d="M113.3,237.5v46c0,0.9,0.9,1.7,2,1.7h192.6v-47.7H113.3z"/>
</g>
<path style="fill:#2C9984;" d="M420.9,311.1H84.1c-2.9,0-5.2,2.3-5.2,5.2v9.9c0,2.9,2.3,5.2,5.2,5.2h336.8c2.9,0,5.2-2.3,5.2-5.2  v-9.9C426.1,313.4,423.8,311.1,420.9,311.1z"/>
<path style="fill:#EDF2F2;" d="M113.3,311.1v7.9c0,1.6,1.3,3,3,3H174c1.6,0,3-1.3,3-3v-7.9H113.3z"/>
<path style="fill:#4CDBC4;" d="M413.5,238l-285.9-63.7c-19.6-3.8-38.6,9-42.5,28.6l-6.3,31.9l320.9,70.5c5.7,1.2,11.3-2.4,12.4-8.1  l9.3-47C422.5,244.6,419,239.2,413.5,238z"/>
<circle style="fill:#2C9984;" cx="379.6" cy="264" r="11.8"/>
<g>
</g>
<g>
</g>
<g>
</g>
<g>
</g>
<g>
</g>
<g>
</g>
<g>
</g>
<g>
</g>
<g>
</g>
<g>
</g>
<g>
</g>
<g>
</g>
<g>
</g>
<g>
</g>
<g>
</g>
</svg>
