<?xml version="1.0" encoding="iso-8859-1"?>
<!-- Generator: Adobe Illustrator 19.0.0, SVG Export Plug-In . SVG Version: 6.00 Build 0)  -->
<svg xmlns="http://www.w3.org/2000/svg" xmlns:xlink="http://www.w3.org/1999/xlink" version="1.1" id="Layer_1" x="0px" y="0px" viewBox="0 0 505 505" style="enable-background:new 0 0 505 505;" xml:space="preserve">
<circle style="fill:#324A5E;" cx="252.5" cy="252.5" r="252.5"/>
<path style="fill:#FFFFFF;" d="M257.6,374.7v-12.5h-10.1v12.5c-10.9,2.3-19,12-19,23.5c0,13.3,10.8,24.1,24.1,24.1  c13.3,0,24.1-10.8,24.1-24.1C276.6,386.7,268.4,377,257.6,374.7z M252.5,412.2c-7.7,0-14-6.3-14-14s6.3-14,14-14c7.7,0,14,6.3,14,14  C266.5,405.9,260.2,412.2,252.5,412.2z"/>
<g>
	<path style="fill:#4CDBC4;" d="M412.9,123.5H92.1c-2.1,0-3.8,1.7-3.8,3.8v12.8c0,2.1,1.7,3.8,3.8,3.8h320.8c2.1,0,3.8-1.7,3.8-3.8   v-12.8C416.7,125.2,415,123.5,412.9,123.5z"/>
	<path style="fill:#4CDBC4;" d="M412.9,344.4H92.1c-2.1,0-3.8,1.7-3.8,3.8V361c0,2.1,1.7,3.8,3.8,3.8h320.8c2.1,0,3.8-1.7,3.8-3.8   v-12.8C416.7,346.1,415,344.4,412.9,344.4z"/>
</g>
<rect x="105.8" y="143.9" style="fill:#FFFFFF;" width="293.4" height="200.5"/>
<rect x="172" y="239.9" style="fill:#FFD05B;" width="23.4" height="73.4"/>
<rect x="218.7" y="214.3" style="fill:#FF7058;" width="23.4" height="99"/>
<rect x="265.4" y="245.5" style="fill:#4CDBC4;" width="23.4" height="67.8"/>
<rect x="312.1" y="195.4" style="fill:#324A5E;" width="23.4" height="117.9"/>
<g>
</g>
<g>
</g>
<g>
</g>
<g>
</g>
<g>
</g>
<g>
</g>
<g>
</g>
<g>
</g>
<g>
</g>
<g>
</g>
<g>
</g>
<g>
</g>
<g>
</g>
<g>
</g>
<g>
</g>
</svg>
