<?xml version="1.0" encoding="iso-8859-1"?>
<!-- Generator: Adobe Illustrator 19.0.0, SVG Export Plug-In . SVG Version: 6.00 Build 0)  -->
<svg xmlns="http://www.w3.org/2000/svg" xmlns:xlink="http://www.w3.org/1999/xlink" version="1.1" id="Layer_1" x="0px" y="0px" viewBox="0 0 505 505" style="enable-background:new 0 0 505 505;" xml:space="preserve">
<path style="fill:#84DBFF;" d="M0,252.5C0,113,113,0,252.5,0C391.9,0,505,113,505,252.5S391.9,505,252.5,505C113,505,0,392,0,252.5z  "/>
<rect x="265.981" y="244.136" transform="matrix(-0.7071 0.7071 -0.7071 -0.7071 672.5786 278.881)" style="fill:#2B3B4E;" width="25.1" height="69.199"/>
<path style="fill:#E6E9EE;" d="M269.5,138c-17.1-18.6-41.5-30.4-68.8-30.4S149,119.4,131.9,138l68.8,68.8L269.5,138z"/>
<path style="fill:#FF7058;" d="M269.5,138l-68.8,68.8v87.4c24.3,0,46.3-9.3,62.9-24.5c18.6-17.1,30.4-41.5,30.4-68.8  C294,176.7,284.7,154.6,269.5,138z"/>
<path style="fill:#FFFFFF;" d="M132,138c-15.2,16.6-24.5,38.6-24.5,62.9c0,27.3,11.8,51.7,30.4,68.8c16.6,15.2,38.6,24.5,62.9,24.5  v-87.4L132,138z"/>
<path style="fill:#324A5E;" d="M306.5,269.7c-1.2-1.1-3-1-4.1,0.1l-32.8,32.7c-1.1,1.1-1.2,2.9-0.1,4.1l68.6,78  c12,13.6,33,16.3,46.9,4.6c15.7-13.2,15.6-36.9,0.6-50.1L306.5,269.7z"/>
<g>
</g>
<g>
</g>
<g>
</g>
<g>
</g>
<g>
</g>
<g>
</g>
<g>
</g>
<g>
</g>
<g>
</g>
<g>
</g>
<g>
</g>
<g>
</g>
<g>
</g>
<g>
</g>
<g>
</g>
</svg>
