<?xml version="1.0" encoding="iso-8859-1"?>
<!-- Generator: Adobe Illustrator 19.0.0, SVG Export Plug-In . SVG Version: 6.00 Build 0)  -->
<svg xmlns="http://www.w3.org/2000/svg" xmlns:xlink="http://www.w3.org/1999/xlink" version="1.1" id="Layer_1" x="0px" y="0px" viewBox="0 0 505 505" style="enable-background:new 0 0 505 505;" xml:space="preserve">
<circle style="fill:#4CDBC4;" cx="252.5" cy="252.5" r="252.5"/>
<path style="fill:#FFFFFF;" d="M368.1,119.4L256.3,89.9c-2.5-0.7-5.2-0.7-7.7,0l-111.8,29.5c-6.6,1.7-11.2,7.7-11.2,14.5v127.6  c0,19.9,5.3,39.6,16.2,56.3c16.8,25.8,48.4,63.8,102.8,95.6c4.7,2.8,10.8,2.8,15.6,0c54.4-31.9,86.1-69.8,102.8-95.6  c10.9-16.7,16.2-36.4,16.2-56.3V134C379.3,127.1,374.7,121.2,368.1,119.4z"/>
<path style="fill:#FF7058;" d="M252.5,389.7c-47.3-28.8-75.1-62-90.1-85.1c-8-12.3-12.3-27.2-12.3-43V141.2l102.4-27l102.4,27.1  v120.4c0,15.8-4.2,30.6-12.3,43C327.6,327.7,299.8,361,252.5,389.7z"/>
<polygon style="fill:#FFFFFF;" points="252.5,175.5 269.8,210.6 308.6,216.3 280.5,243.6 287.2,282.2 252.5,264 217.9,282.2   224.5,243.6 196.4,216.3 235.2,210.6 "/>
<g>
</g>
<g>
</g>
<g>
</g>
<g>
</g>
<g>
</g>
<g>
</g>
<g>
</g>
<g>
</g>
<g>
</g>
<g>
</g>
<g>
</g>
<g>
</g>
<g>
</g>
<g>
</g>
<g>
</g>
</svg>
