<?xml version="1.0" encoding="iso-8859-1"?>
<!-- Generator: Adobe Illustrator 19.0.0, SVG Export Plug-In . SVG Version: 6.00 Build 0)  -->
<svg xmlns="http://www.w3.org/2000/svg" xmlns:xlink="http://www.w3.org/1999/xlink" version="1.1" id="Layer_1" x="0px" y="0px" viewBox="0 0 505 505" style="enable-background:new 0 0 505 505;" xml:space="preserve">
<circle style="fill:#90DFAA;" cx="252.5" cy="252.5" r="252.5"/>
<path style="fill:#2B3B4E;" d="M211.6,332c14.9-12.3,69.3-65.3,85.3-81.3c58.4-58.4,96.3-115.4,84.5-127.1  c-11.8-11.8-68.7,26.1-127.1,84.5c-16,16-69,70.4-81.3,85.3L211.6,332z"/>
<path style="fill:#FF7058;" d="M99.2,405.4l0.4,0.4c27.7-7.5,48.6-6.6,48.6-6.6c1.5-16.5,8.7-31.9,20.4-43.6l6.7-6.7L156,329.6  l-6.7,6.7c-11.7,11.7-27.1,18.9-43.6,20.4C105.8,356.8,106.7,377.7,99.2,405.4z"/>
<path style="fill:#FFFFFF;" d="M129.1,375.9c-1-1-2.6-1-3.6,0c-0.9,0.9-0.9,2.1-0.3,3.1l-24.1,24.1c-0.8-0.4-1.8-0.3-2.5,0.3  c-0.8,0.8-0.8,2.2,0,3s2.2,0.8,3,0c0.7-0.7,0.8-1.7,0.3-2.5l24.1-24.1c1,0.6,2.3,0.5,3.1-0.3C130.1,378.6,130.1,376.9,129.1,375.9z"/>
<g>
	<polygon style="fill:#324A5E;" points="173,293.4 211.6,332 177.3,362.5 142.5,327.7  "/>
	<path style="fill:#324A5E;" d="M403,116.3l-7.1-7.1l-7.1-7.1c-5.9-5.9-15.8-5.5-22.1,0.8l17.8,17.8l17.8,17.8   C408.5,132.1,408.8,122.2,403,116.3z"/>
	<path style="fill:#324A5E;" d="M403,137.8c0-0.1,0-0.1,0-0.2L367.4,102c-0.1,0-0.1,0-0.2,0c-46,38.6-94.6,83.6-132.5,124.7   c-0.5,0.5-0.5,1.3,0,1.8l41.8,41.8c0.5,0.5,1.3,0.5,1.8,0C319.5,232.4,364.4,183.8,403,137.8z"/>
</g>
<path style="fill:#FFD05B;" d="M384.5,130.8l13.2,13.2c1.6-1.8,3.2-3.6,4.7-5.5c0.2-0.3,0.4-0.6,0.6-0.9L367.4,102  c-0.3,0.2-0.6,0.3-0.9,0.6c-1.8,1.6-3.6,3.2-5.5,4.7l13.2,13.2c-24.8,28.2-51.2,54.8-79.2,79.7c-3,2.7-5.7,5.9-7.6,9.4  c-0.3,0.6-0.6,1.1-0.8,1.6c-1,2.1-0.6,4.6,1,6.2c1.6,1.6,4.1,2.1,6.2,1c0.3-0.1,0.5-0.3,0.8-0.4c3.9-2,7.4-4.8,10.3-8.1  C329.8,182,356.3,155.6,384.5,130.8z"/>
<g>
</g>
<g>
</g>
<g>
</g>
<g>
</g>
<g>
</g>
<g>
</g>
<g>
</g>
<g>
</g>
<g>
</g>
<g>
</g>
<g>
</g>
<g>
</g>
<g>
</g>
<g>
</g>
<g>
</g>
</svg>
