<?xml version="1.0" encoding="iso-8859-1"?>
<!-- Generator: Adobe Illustrator 19.0.0, SVG Export Plug-In . SVG Version: 6.00 Build 0)  -->
<svg xmlns="http://www.w3.org/2000/svg" xmlns:xlink="http://www.w3.org/1999/xlink" version="1.1" id="Layer_1" x="0px" y="0px" viewBox="0 0 505 505" style="enable-background:new 0 0 505 505;" xml:space="preserve">
<circle style="fill:#324A5E;" cx="252.5" cy="252.5" r="252.5"/>
<path style="fill:#CED5E0;" d="M227.4,131.4c-1.1,1.1-1.6,2.8-1.3,4.4c4.2,22.2-7.1,44.4-26.5,63.8s-41.7,30.6-63.8,26.5  c-1.6-0.3-3.2,0.1-4.4,1.3L82.8,276c-1.9,1.9-1.9,5,0,6.8l139.4,139.4c1.9,1.9,5,1.9,6.8,0l48.6-48.6c1.1-1.1,1.6-2.8,1.3-4.4  c-4.2-22.2,7.1-44.4,26.5-63.8s41.7-30.6,63.8-26.5c1.6,0.3,3.2-0.1,4.4-1.3l48.6-48.6c1.9-1.9,1.9-5,0-6.8L282.8,82.8  c-1.9-1.9-5-1.9-6.8,0L227.4,131.4z"/>
<rect x="158.496" y="199.901" transform="matrix(-0.7071 0.7071 -0.7071 -0.7071 629.2314 205.0658)" style="fill:#EDF2F2;" width="227.298" height="65.899"/>
<rect x="178.383" y="247.766" transform="matrix(-0.7071 0.7071 -0.7071 -0.7071 677.1921 224.8291)" style="fill:#FFFFFF;" width="227.298" height="9.8"/>
<circle style="fill:#324A5E;" cx="277" cy="228" r="10"/>
<g>
</g>
<g>
</g>
<g>
</g>
<g>
</g>
<g>
</g>
<g>
</g>
<g>
</g>
<g>
</g>
<g>
</g>
<g>
</g>
<g>
</g>
<g>
</g>
<g>
</g>
<g>
</g>
<g>
</g>
</svg>
