<?xml version="1.0" encoding="iso-8859-1"?>
<!-- Generator: Adobe Illustrator 19.0.0, SVG Export Plug-In . SVG Version: 6.00 Build 0)  -->
<svg xmlns="http://www.w3.org/2000/svg" xmlns:xlink="http://www.w3.org/1999/xlink" version="1.1" id="Layer_1" x="0px" y="0px" viewBox="0 0 505 505" style="enable-background:new 0 0 505 505;" xml:space="preserve">
<circle style="fill:#FFD05B;" cx="252.5" cy="252.5" r="252.5"/>
<path style="fill:#324A5E;" d="M378.7,104.8H126.3c-1.6,0-2.9,1.3-2.9,2.9v172.7h258.2V107.7C381.6,106.1,380.3,104.8,378.7,104.8z"/>
<rect x="140.4" y="120.2" style="fill:#FFFFFF;" width="224.1" height="144.6"/>
<polygon style="fill:#2B3B4E;" points="427.5,359.7 77.5,359.7 123.4,280.4 381.6,280.4 "/>
<g>
	<polygon style="fill:#ACB3BA;" points="143.7,300.9 129,300.9 134.1,290.7 148.3,290.7  "/>
	<polygon style="fill:#ACB3BA;" points="172.8,300.9 158,300.9 161.9,290.7 176.1,290.7  "/>
	<polygon style="fill:#ACB3BA;" points="201.8,300.9 187,300.9 189.8,290.7 203.9,290.7  "/>
	<polygon style="fill:#ACB3BA;" points="230.9,300.9 216.1,300.9 217.6,290.7 231.8,290.7  "/>
	<polygon style="fill:#ACB3BA;" points="259.9,300.9 245.1,300.9 245.4,290.7 259.6,290.7  "/>
	<polygon style="fill:#ACB3BA;" points="288.9,300.9 274.1,300.9 273.2,290.7 287.4,290.7  "/>
	<polygon style="fill:#ACB3BA;" points="318,300.9 303.2,300.9 301.1,290.7 315.2,290.7  "/>
	<polygon style="fill:#ACB3BA;" points="347,300.9 332.2,300.9 328.9,290.7 343.1,290.7  "/>
	<polygon style="fill:#ACB3BA;" points="376,300.9 361.3,300.9 356.7,290.7 370.9,290.7  "/>
	<polygon style="fill:#ACB3BA;" points="135.2,320.1 119.2,320.1 125.2,308.3 140.4,308.3  "/>
	<polygon style="fill:#ACB3BA;" points="166.5,320.1 150.6,320.1 155.1,308.3 170.4,308.3  "/>
	<polygon style="fill:#ACB3BA;" points="197.8,320.1 181.9,320.1 185.1,308.3 200.3,308.3  "/>
	<polygon style="fill:#ACB3BA;" points="229.1,320.1 213.2,320.1 215,308.3 230.2,308.3  "/>
	<polygon style="fill:#ACB3BA;" points="260.5,320.1 244.5,320.1 244.9,308.3 260.1,308.3  "/>
	<polygon style="fill:#ACB3BA;" points="291.8,320.1 275.9,320.1 274.8,308.3 290,308.3  "/>
	<polygon style="fill:#ACB3BA;" points="323.1,320.1 307.2,320.1 304.7,308.3 319.9,308.3  "/>
	<polygon style="fill:#ACB3BA;" points="354.4,320.1 338.5,320.1 334.6,308.3 349.9,308.3  "/>
	<polygon style="fill:#ACB3BA;" points="385.8,320.1 369.8,320.1 364.6,308.3 379.8,308.3  "/>
	<polygon style="fill:#ACB3BA;" points="125.1,342.6 107.8,342.6 114.9,328.7 131.3,328.7  "/>
	<polygon style="fill:#ACB3BA;" points="159.1,342.6 141.8,342.6 147.2,328.7 163.7,328.7  "/>
	<polygon style="fill:#ACB3BA;" points="281.2,328.7 276.6,328.7 179.6,328.7 175.8,342.6 277.9,342.6 282.7,342.6 295.2,342.6    293.1,328.7  "/>
	<polygon style="fill:#ACB3BA;" points="329.2,342.6 311.9,342.6 309,328.7 325.4,328.7  "/>
	<polygon style="fill:#ACB3BA;" points="363.2,342.6 345.9,342.6 341.3,328.7 357.8,328.7  "/>
	<polygon style="fill:#ACB3BA;" points="397.2,342.6 379.9,342.6 373.7,328.7 390.1,328.7  "/>
</g>
<path style="fill:#324A5E;" d="M414.5,375.1h-324c-6.6,0-12.1-5-12.6-11.6l-0.3-3.8h350l-0.3,3.8  C426.6,370.1,421.1,375.1,414.5,375.1z"/>
<g>
</g>
<g>
</g>
<g>
</g>
<g>
</g>
<g>
</g>
<g>
</g>
<g>
</g>
<g>
</g>
<g>
</g>
<g>
</g>
<g>
</g>
<g>
</g>
<g>
</g>
<g>
</g>
<g>
</g>
</svg>
