<?xml version="1.0" encoding="iso-8859-1"?>
<!-- Generator: Adobe Illustrator 19.0.0, SVG Export Plug-In . SVG Version: 6.00 Build 0)  -->
<svg xmlns="http://www.w3.org/2000/svg" xmlns:xlink="http://www.w3.org/1999/xlink" version="1.1" id="Layer_1" x="0px" y="0px" viewBox="0 0 505 505" style="enable-background:new 0 0 505 505;" xml:space="preserve">
<circle style="fill:#54C0EB;" cx="252.5" cy="252.5" r="252.5"/>
<path style="fill:#FF7058;" d="M141.3,124.7l21.9,273.6c0.8,9.6,8.8,17,18.4,17h141.8c9.6,0,17.6-7.4,18.4-17l21.9-273.6  L141.3,124.7L141.3,124.7z"/>
<g>
	<path style="fill:#FFFFFF;" d="M364.3,106.9H140.7c-7.2,0-13.1,9-13.1,20.1s5.9,20.1,13.1,20.1h223.7c7.2,0,13.1-9,13.1-20.1   S371.6,106.9,364.3,106.9z"/>
	<polygon style="fill:#FFFFFF;" points="151.1,246.2 154.9,293.8 350.1,293.8 353.9,246.2  "/>
	<circle style="fill:#FFFFFF;" cx="252.5" cy="270" r="53.2"/>
</g>
<path style="fill:#324A5E;" d="M350.3,89.7H154.7c-5.4,0-9.8,4.4-9.8,9.8v7.4H360v-7.4C360.1,94.1,355.7,89.7,350.3,89.7z"/>
<g>
</g>
<g>
</g>
<g>
</g>
<g>
</g>
<g>
</g>
<g>
</g>
<g>
</g>
<g>
</g>
<g>
</g>
<g>
</g>
<g>
</g>
<g>
</g>
<g>
</g>
<g>
</g>
<g>
</g>
</svg>
