<?xml version="1.0" encoding="iso-8859-1"?>
<!-- Generator: Adobe Illustrator 19.0.0, SVG Export Plug-In . SVG Version: 6.00 Build 0)  -->
<svg xmlns="http://www.w3.org/2000/svg" xmlns:xlink="http://www.w3.org/1999/xlink" version="1.1" id="Layer_1" x="0px" y="0px" viewBox="0 0 505 505" style="enable-background:new 0 0 505 505;" xml:space="preserve">
<circle style="fill:#FFD05B;" cx="252.5" cy="252.5" r="252.5"/>
<path style="fill:#F9B54C;" d="M72.1,429.1c45.8,46.8,109.7,75.9,180.4,75.9s134.6-29.1,180.4-75.9H72.1z"/>
<g>
	<path style="fill:#324A5E;" d="M341.6,356.8l-8.3-12.8c-31,20.2-68.1,27.2-104.3,19.5c-36.2-7.6-67.3-28.9-87.5-60   C99.8,239.4,118,153.4,182,111.6l-8.3-12.8c-71.1,46.3-91.3,141.9-45,213c22.4,34.4,56.9,58.1,97.2,66.6c7.1,1.5,14.2,2.4,21.2,2.9   v40.4h21.3v-40.4C294.2,379.6,319.3,371.3,341.6,356.8z"/>
	<path style="fill:#324A5E;" d="M353.7,355.4l-172.9-266c0.3-1,0.5-1.9,0.5-3c0-5.5-4.4-9.9-9.9-9.9s-9.9,4.4-9.9,9.9   c0,5.4,4.3,9.8,9.7,9.9l172.3,264.9c-0.5,1.2-0.8,2.5-0.8,3.9c0,5.5,4.4,9.9,9.9,9.9s9.9-4.4,9.9-9.9   C362.4,360.1,358.6,355.9,353.7,355.4z"/>
</g>
<circle style="fill:#FFFFFF;" cx="257.7" cy="227.9" r="118.7"/>
<g>
	<path style="fill:#FF7058;" d="M162.3,157.2c-0.6,0.9-1.3,1.8-1.9,2.6c0.6,0,1.2-0.1,1.9-0.1C162.6,158.8,162.6,158,162.3,157.2z"/>
	<path style="fill:#FF7058;" d="M173,144.7c-0.5,0.6-1.1,1.1-1.6,1.7c0.7-0.2,1.3-0.5,1.7-1C173.1,145.1,173.1,144.9,173,144.7z"/>
	<path style="fill:#FF7058;" d="M373.7,202.8c0-0.1,0-0.1-0.1-0.2c0,0,0,0.1-0.1,0.1C373.6,202.7,373.7,202.8,373.7,202.8z"/>
</g>
<g>
	<path style="fill:#EDF2F2;" d="M373.7,202.8c0.5,2.2,0.9,4.4,1.2,6.7C375.7,207.1,375.4,204.3,373.7,202.8z"/>
	<path style="fill:#EDF2F2;" d="M198.3,144.8c-0.2-0.2-0.4-0.3-0.5-0.5c0,0.4,0,0.8,0,1.3L198.3,144.8z"/>
</g>
<path style="fill:#FF7058;" d="M150.5,207.5c1.4,1.9,3.8,3.3,4.4,5.6c0.5,1.7,0,3.6,0.6,5.3c1.3,3.3,6.2,3.2,8.6,5.8  c1.1,1.1,1.5,2.7,2.3,4.1c3.4,5.8,11.3,6.7,18,6.9c-0.8,3,1.2,6.4,4.3,7.2c0,2.8-3.6,4-5.1,6.4c-1.5,2.3-0.8,5.3,0.6,7.6  c1.4,2.3,3.5,4.1,5.1,6.3c5.6,7.8,4.1,18.5,2.2,28c-1.8,8.8-3.5,18.6,1.2,26.2c3-1.4,3.7-5.3,3.5-8.6c-0.1-3.3-0.5-6.9,1.5-9.5  c1.6-2.1,4.4-2.8,6.4-4.4c2.1-1.6,3.3-5.1,1.3-6.7c2.4,1,4.8-1.5,5.8-3.9s1.6-5.3,3.8-6.6c1.2-0.7,2.8-0.9,3.9-1.7  c3.1-2.2,1.4-7.2,3.1-10.6c1.3-2.6,4.6-4,5.5-6.8c1.1-3.5-2.1-6.9-5.5-8.3c-3.4-1.4-7.3-2-10-4.5c-2.1-1.9-3.2-4.8-5.4-6.5  c-4.5-3.7-11.5-1.4-16.9-3.6c1,0.9,0,2.8-1.3,2.9c-1.4,0.1-2.5-1.1-3.1-2.3s-0.8-2.6-1.5-3.8c-1.8-3.4-6.1-4.3-9.7-5.7  c-3.6-1.4-7.4-4.9-6-8.5c5.9-0.9,11.7-1.8,17.6-2.7c1-0.2,2-0.3,2.9-0.8c4.4-2.4,2.2-9.7,5.4-13.6c2.3-2.9,7-3.4,8.5-6.7  c0.7-1.6,0.5-3.4,0.9-5.1c0.4-1.7,2-3.4,3.6-2.8c1.1-2.8-1.5-5.7-4.1-7.1c-2.6-1.4-5.8-2.6-7.1-5.3c-0.5-1-0.7-2.2-1.5-3  s-2-1.1-3.2-1.3c-2.3-0.4-4.7-0.8-6.8,0.1c-2.1,0.9-3.8,3.4-2.7,5.5c1,2,3.7,2.5,5,4.3c1.2,1.8,0.3,4.5-1.5,5.7  c-1.9,1.2-4.3,1-6.3,0c1.5-4.6-6.5-8.2-5.1-12.9c0.5-1.7,2.1-2.8,3.4-4c1.3-1.2,2.5-3.1,1.7-4.7c-1.1-2.3-4.8-1.5-6.9-3  c-2.4-1.8-1.5-5.9,1-7.6s5.8-1.5,8.8-1.3c-0.7-3.4-0.9-7.8,2.3-9.3c1.1-0.5,2.3-0.5,3.5-0.4c3.4,0.1,6.7,0.2,10.1,0.4  c0.7-1.7,3.8-2.8,4.1-4.7c0.7-3.8-7.6-4.5-10.5-3.8c-1.3,0.3-2.5,0.7-3.7,1.2c-1.5,0.5-3.1,0.9-4.6,1.2c-3.3,2.7-6.4,5.6-9.4,8.6  c0.1,0.2,0.1,0.4,0.1,0.7c-0.5,0.5-1.1,0.8-1.7,1c-3.2,3.4-6.3,7-9.1,10.8c0.2,0.8,0.3,1.7,0,2.5c-0.6,0.1-1.2,0.1-1.9,0.1  c-6.4,9.1-11.5,19.1-15.2,29.8c1,4.2,2.1,8.3,3.1,12.5C148.8,204,149.3,205.9,150.5,207.5z"/>
<path style="fill:#EDF2F2;" d="M197.8,144.3c0-0.7,0-1.5,0-2.2c-0.2,0-0.4,0-0.6,0C196.9,142.7,197,143.5,197.8,144.3z"/>
<g>
	<path style="fill:#FF7058;" d="M205.1,148.8c2.9,2.2,3.9,6,4.9,9.4c1.7,5.7,3.9,11.2,6.7,16.5c0.8-0.1,1.6-0.1,2.4-0.2   c1.7-2,0.6-5.3,2-7.5c0.4-0.6,1-1.1,1.6-1.6c3.4-2.8,7.2-5.7,11.7-5.6c0.7,0,1.5,0.1,2.2-0.1c1.8-0.5,2.6-2.6,2.6-4.5   s-0.4-3.8,0.1-5.6c0.6-2.3,2.6-4,3.7-6.2c1.1-2.1,0.8-5.5-1.5-6.1c-0.9-0.2-1.8,0.1-2.6-0.1c-2.1-0.3-3.3-2.6-5-3.8   c-3.9-2.6-8.9,0.3-13.4,1.5c-2.2,0.5-4.4,0.6-6.7,0.7c-3.3,0.1-6.5,0.3-9.8,0.4l-5.6,8.7c0.4,0.3,0.8,0.7,1.3,1   C201.3,147,203.4,147.5,205.1,148.8z"/>
	<path style="fill:#FF7058;" d="M373.7,202.8l-0.1-0.1c0,0,0-0.1,0.1-0.1c-4.3-20-13.8-38.1-26.9-53c0,0,0,0,0-0.1   c-0.7-0.8-1.4-1.5-2.1-2.2c-0.6-0.7-1.3-1.4-1.9-2.1c-1.8-1.8-3.6-3.6-5.5-5.3c-0.2-0.1-0.3-0.3-0.4-0.4l0,0   c-9.5-8.6-20.4-15.6-32.4-20.7c-3.6,1.3-6.7,3.6-7.8,7.2c-1.1,3.5-0.1,7.9-2.7,10.5s-7,1.8-10.4,3.2c-2.9,1.3-4.7,4.5-4.7,7.7   c-3.2,2.5-6.1,5.6-9.6,7.2c-1.2,0.5-2.5,0.9-3.5,2c-1.7,2-1.3,5.4-0.8,8.2c0.4,2.2,1,4.5,2.3,6.1s3.7,2.2,5.1,0.6   c1.7-1.9,0.8-5.1,0.9-7.8c0.2-4.2,3.5-7.9,7.1-7.7c-1.1,2.1,0.7,4.7,2.5,6c1.8,1.4,3.9,3.3,3.4,5.7c-2.5,0.5-5,0.9-7.5,1.4   c1.8,2.3,0.1,6.3-2.3,7.6c-2.4,1.2-5.2,0.7-7.8,0.7c-2.6,0.1-5.7,1.1-6.7,4c-0.5,1.4-0.4,2.9-0.9,4.3c-1.5,3.8-7.1,4.8-6.7,8.9   c0.3,3.7,4.9,3.8,7.7,2.1c2.8-1.7,6.2-4,8.7-1.7c1.2,1.1,1.7,3,3.1,3.8s3.3,0,4.4,1.3c0.7,0.7,0.8,1.9,1.3,2.9   c0.9,2,2.9,2.8,4.8,3.3s3.9,1,5.1,2.8c1.2,1.7,0.8,5.1-1.1,5.4c-1,0.2-1.9-0.6-2.9-0.9c-3.8-1.2-7.6,4.3-11.3,2.6   c-2.4-1.1-3.2-4.6-4.7-7.1c-2.1-3.6-6.2-5.4-9.8-4.3c-3.5,1.1-6,4.4-8.4,7.6c-3.6,4.8-7.3,9.9-8.8,16.1c-1.5,5.9-0.8,12.4,1.2,18.1   c0.8,2.2,1.9,4.4,3.8,5.4c4.4,2.2,9-4.1,13.7-3c4.8,1.1,6,8.6,6,14.4c0,1,0,1.9,0,2.9c0.2,12.9,0.5,26.8,6.9,37.2   c7.2,3.1,16-4.6,15.8-13.7c-0.1-2.1-0.5-4.4,0.5-6.1c0.6-1.1,1.6-1.7,2.3-2.7c3-4.2-1-10.8,0.3-16c1.4-5.7,8.5-7.9,8.8-13.8   c0.2-4.1-3.3-8.4-1.5-11.9c1.7,2.3,4.7,3.2,6.9,1.7c2.2-1.5,3.1-5.4,1.6-7.9c-5.5,1.6-11.1-6-9.1-12.3c4.6,1.5,9.3,3,13.9,4.5   c1.4,0.4,2.8,0.9,3.9,1.9c2.5,2.2,3.1,6.2,3.4,9.9s0.4,7.6,2.4,10.4c2,2.8,6.6,3,7.6-0.5c0.4-1.3,0.1-2.8,0.1-4.2   c-0.2-4.9,1.7-9.8,5.1-12.6c2.9-1.3,6,1.2,7.8,4.2c1.8,2.9,3,6.5,5.3,8.9s6.5,2.8,8-0.3c1.6-3.3-0.8-7.3-3.1-10   c3.7-4.9,11.1-5.7,12.8-12c1.5-5.6-3-12-0.8-17.3c3.2,1.5,5.3,5.7,4.9,9.8c1.9-0.1,3.3-1.8,3.9-3.9   C374.6,207.3,374.2,205,373.7,202.8z"/>
</g>
<path style="fill:#FFFFFF;" d="M309.9,405.7H205.5c-12.6,0-22.8,10.2-22.8,22.8h150C332.7,415.9,322.5,405.7,309.9,405.7z"/>
<g>
</g>
<g>
</g>
<g>
</g>
<g>
</g>
<g>
</g>
<g>
</g>
<g>
</g>
<g>
</g>
<g>
</g>
<g>
</g>
<g>
</g>
<g>
</g>
<g>
</g>
<g>
</g>
<g>
</g>
</svg>
