<?xml version="1.0" encoding="iso-8859-1"?>
<!-- Generator: Adobe Illustrator 19.0.0, SVG Export Plug-In . SVG Version: 6.00 Build 0)  -->
<svg xmlns="http://www.w3.org/2000/svg" xmlns:xlink="http://www.w3.org/1999/xlink" version="1.1" id="Layer_1" x="0px" y="0px" viewBox="0 0 505 505" style="enable-background:new 0 0 505 505;" xml:space="preserve">
<circle style="fill:#84DBFF;" cx="252.5" cy="252.5" r="252.5"/>
<path style="fill:#E6E9EE;" d="M420.2,380.8c-55.2-12.4-112.5-12.4-167.7,0c0-82.5,0-164.9,0-247.4c55.2-12.3,112.5-12.3,167.7,0  C420.2,215.9,420.2,298.4,420.2,380.8z"/>
<g>
	<path style="fill:#CED5E0;" d="M399.1,163.2c-41.6-6.9-84-6.9-125.6,0c0-2.5,0-4.9,0-7.4c41.6-6.9,84-6.9,125.6,0   C399.1,158.3,399.1,160.8,399.1,163.2z"/>
	<path style="fill:#CED5E0;" d="M399.1,194.4c-41.6-6.9-84-6.9-125.6,0c0-2.5,0-4.9,0-7.4c41.6-6.9,84-6.9,125.6,0   C399.1,189.5,399.1,191.9,399.1,194.4z"/>
	<path style="fill:#CED5E0;" d="M399.1,225.6c-41.6-6.9-84-6.9-125.6,0c0-2.5,0-4.9,0-7.4c41.6-6.9,84-6.9,125.6,0   C399.1,220.6,399.1,223.1,399.1,225.6z"/>
	<path style="fill:#CED5E0;" d="M399.1,256.7c-41.6-6.9-84-6.9-125.6,0c0-2.5,0-4.9,0-7.4c41.6-6.9,84-6.9,125.6,0   C399.1,251.8,399.1,254.3,399.1,256.7z"/>
	<path style="fill:#CED5E0;" d="M399.1,287.9c-41.6-6.9-84-6.9-125.6,0c0-2.5,0-4.9,0-7.4c41.6-6.9,84-6.9,125.6,0   C399.1,283,399.1,285.4,399.1,287.9z"/>
	<path style="fill:#CED5E0;" d="M399.1,319c-41.6-6.9-84-6.9-125.6,0c0-2.5,0-4.9,0-7.4c41.6-6.9,84-6.9,125.6,0   C399.1,314.1,399.1,316.6,399.1,319z"/>
	<path style="fill:#CED5E0;" d="M399.1,350.2c-41.6-6.9-84-6.9-125.6,0c0-2.5,0-4.9,0-7.4c41.6-6.9,84-6.9,125.6,0   C399.1,345.3,399.1,347.7,399.1,350.2z"/>
</g>
<path style="fill:#FFFFFF;" d="M252.5,380.8c-55.2-12.4-112.5-12.4-167.7,0c0-82.5,0-164.9,0-247.4c55.2-12.3,112.5-12.3,167.7,0  C252.5,215.9,252.5,298.4,252.5,380.8z"/>
<g>
	<path style="fill:#E6E9EE;" d="M231.4,163.2c-41.6-6.9-84-6.9-125.6,0c0-2.5,0-4.9,0-7.4c41.6-6.9,84-6.9,125.6,0   C231.4,158.3,231.4,160.8,231.4,163.2z"/>
	<path style="fill:#E6E9EE;" d="M231.4,194.4c-41.6-6.9-84-6.9-125.6,0c0-2.5,0-4.9,0-7.4c41.6-6.9,84-6.9,125.6,0   C231.4,189.5,231.4,191.9,231.4,194.4z"/>
	<path style="fill:#E6E9EE;" d="M231.4,225.6c-41.6-6.9-84-6.9-125.6,0c0-2.5,0-4.9,0-7.4c41.6-6.9,84-6.9,125.6,0   C231.4,220.6,231.4,223.1,231.4,225.6z"/>
	<path style="fill:#E6E9EE;" d="M231.4,256.7c-41.6-6.9-84-6.9-125.6,0c0-2.5,0-4.9,0-7.4c41.6-6.9,84-6.9,125.6,0   C231.4,251.8,231.4,254.3,231.4,256.7z"/>
	<path style="fill:#E6E9EE;" d="M231.4,287.9c-41.6-6.9-84-6.9-125.6,0c0-2.5,0-4.9,0-7.4c41.6-6.9,84-6.9,125.6,0   C231.4,283,231.4,285.4,231.4,287.9z"/>
	<path style="fill:#E6E9EE;" d="M231.4,319c-41.6-6.9-84-6.9-125.6,0c0-2.5,0-4.9,0-7.4c41.6-6.9,84-6.9,125.6,0   C231.4,314.1,231.4,316.6,231.4,319z"/>
	<path style="fill:#E6E9EE;" d="M231.4,350.2c-41.6-6.9-84-6.9-125.6,0c0-2.5,0-4.9,0-7.4c41.6-6.9,84-6.9,125.6,0   C231.4,345.3,231.4,347.7,231.4,350.2z"/>
</g>
<g>
</g>
<g>
</g>
<g>
</g>
<g>
</g>
<g>
</g>
<g>
</g>
<g>
</g>
<g>
</g>
<g>
</g>
<g>
</g>
<g>
</g>
<g>
</g>
<g>
</g>
<g>
</g>
<g>
</g>
</svg>
