<?xml version="1.0" encoding="iso-8859-1"?>
<!-- Generator: Adobe Illustrator 19.0.0, SVG Export Plug-In . SVG Version: 6.00 Build 0)  -->
<svg xmlns="http://www.w3.org/2000/svg" xmlns:xlink="http://www.w3.org/1999/xlink" version="1.1" id="Layer_1" x="0px" y="0px" viewBox="0 0 508 508" style="enable-background:new 0 0 508 508;" xml:space="preserve">
<circle style="fill:#90DFAA;" cx="254" cy="254" r="254"/>
<g>
	<path style="fill:#324A5E;" d="M403.2,345.7c-0.5,0-0.9,0-1.4-0.1c-3.3-0.6-5.8-3.2-6.2-6.5c-6-44.6-30.5-85.3-67.2-111.8   c-2.5-1.8-3.7-5.1-2.9-8.1c3.4-13.3,5.1-27,5.1-40.7c0-28-7.1-55.7-20.6-80.1c-1.6-2.8-1.2-6.4,1-8.8s5.6-3.2,8.6-2   C387.8,115.5,432,181.2,432,255c0,30.3-7.6,60.3-22.1,86.7C408.5,344.2,405.9,345.7,403.2,345.7z M341.5,217.9   c31.4,24.1,54,57.9,64.4,95.7c7-18.6,10.7-38.5,10.7-58.6c0-60.4-32.3-114.8-83.8-144c8.5,21.3,13,44.3,13,67.4   C345.9,191.7,344.4,204.9,341.5,217.9z"/>
	<path style="fill:#324A5E;" d="M79.4,286.1c-0.5,0-0.9,0-1.4-0.1c-3.3-0.6-5.8-3.2-6.2-6.5c-1.1-8.3-1.7-16.5-1.7-24.5   c0-99.8,81.2-180.9,180.9-180.9c0.8,0,1.7,0,2.5,0.1h1.4c3.1,0.1,5.8,1.9,7,4.8s0.5,6.1-1.7,8.3c-27.6,27.8-44.5,64.6-47.5,103.6   c-0.3,3.6-3,6.4-6.5,7c-50.5,7.8-95.4,39.3-120,84.3C84.8,284.6,82.2,286.1,79.4,286.1z M237.2,90   c-84.7,7.1-151.5,78.2-151.7,164.7c27-36.8,67.5-62.6,112.5-71C201.8,149.3,215.5,116.8,237.2,90z"/>
	<path style="fill:#324A5E;" d="M332.9,228.7c-1.6,0-3.2-0.5-4.5-1.5c-28.4-20.5-61.9-31.3-96.9-31.3c-8.5,0-17,0.6-25.3,1.9   c-2.3,0.3-4.7-0.4-6.4-2s-2.6-3.9-2.4-6.2c3.3-42.6,21.8-82.8,51.9-113.2c1.5-1.5,3.6-2.3,5.6-2.3c22.3,0.5,44.1,5,64.6,13.3   c1.6,0.7,3,1.9,3.8,3.4c14.8,26.7,22.6,56.9,22.6,87.5c0,15-1.9,30-5.5,44.5c-0.6,2.5-2.4,4.5-4.8,5.3   C334.7,228.5,333.8,228.7,332.9,228.7z M231.5,180.5c34.4,0,67.4,9.6,96.3,27.8c1.8-9.8,2.7-19.9,2.7-29.9   c0-27.1-6.7-53.9-19.3-77.7c-17-6.6-34.9-10.3-53.2-11.1c-24.1,25.2-39.5,57.4-44.2,91.8C219.6,180.8,225.6,180.5,231.5,180.5z"/>
	<path style="fill:#324A5E;" d="M251.1,435.9c-65.8,0-126.5-35.8-158.4-93.4c-1.6-2.8-1.2-6.4,1-8.8s5.6-3.2,8.6-2   c19.9,8.2,41,12.3,62.6,12.3c30.5,0,60.3-8.4,86.2-24.2c3-1.8,6.9-1.4,9.4,1.1c30.3,30.4,70.7,47.6,113.6,48.5c3.1,0.1,5.8,2,7,4.8   c1.1,2.8,0.5,6.1-1.7,8.3C345.2,417,299.6,435.9,251.1,435.9z M117.6,353.1c31,42.1,80.4,67.5,133.4,67.5   c38.5,0,75.1-13.1,104.5-37.1c-38.1-4.6-73.4-21.1-101.6-47.5c-27.1,15.3-57.7,23.4-89,23.4C148.8,359.3,133,357.2,117.6,353.1z"/>
	<path style="fill:#324A5E;" d="M374,384.8c-0.1,0-0.1,0-0.2,0c-46.9-1-91-19.8-124.1-53c-1.7-1.7-2.5-4-2.2-6.3s1.6-4.4,3.6-5.6   c36.7-22.4,63.8-59.1,74.3-100.7c0.6-2.5,2.4-4.5,4.8-5.3c2.4-0.9,5.1-0.5,7.1,1c40,28.9,66.8,73.5,73.4,122.2   c0.2,1.6-0.1,3.3-0.9,4.7c-8.2,14.9-18.4,28.7-30.5,40.8C378,383.9,376,384.8,374,384.8z M267.5,327.5   c28.6,25.5,64.9,40.3,103.4,41.8c9.4-9.9,17.6-20.9,24.4-32.8c-6.1-40-26.9-76.7-58.1-102.5C324.9,271.6,300.2,304.9,267.5,327.5z"/>
	<path style="fill:#324A5E;" d="M164.9,359.3c-23.6,0-46.6-4.5-68.4-13.4c-1.6-0.7-3-1.9-3.8-3.4c-10.8-19.6-17.9-40.8-20.9-63   c-0.2-1.6,0.1-3.3,0.9-4.7c26.9-49.2,76-83.7,131.2-92.1c2.3-0.3,4.7,0.4,6.4,2s2.6,3.9,2.4,6.2c-0.4,4.9-0.6,9.1-0.6,13.1   c0,44.2,17.2,85.7,48.4,117c1.7,1.7,2.5,4,2.2,6.3s-1.6,4.4-3.6,5.6C230.8,350.2,198.2,359.3,164.9,359.3z M104.8,332.7   c19.2,7.5,39.4,11.3,60.1,11.3c27.3,0,54-6.7,77.9-19.4c-29.8-33.2-46.1-75.7-46.1-120.6c0-1.4,0-2.9,0.1-4.4   c-45.9,9.8-86.1,39.3-109.5,80.4C90.2,298.5,96,316.2,104.8,332.7z"/>
	<path style="fill:#324A5E;" d="M255.1,334c-2,0-4-0.8-5.4-2.3c-34.1-34.2-52.9-79.6-52.9-127.9c0-4.4,0.2-9,0.6-14.3   c0.3-3.6,3-6.4,6.5-7c9.1-1.4,18.4-2.1,27.7-2.1c38.3,0,74.9,11.8,105.9,34.2c2.5,1.8,3.7,5.1,2.9,8.1   c-11.5,45.4-41.1,85.5-81.2,110C257.9,333.7,256.5,334,255.1,334z M212.3,197c-0.1,2.4-0.2,4.7-0.2,6.9   c0,42.1,15.6,81.9,44.2,112.6c32.6-21.7,57-54.8,67.8-92.3c-27.4-18.5-59.3-28.3-92.6-28.3C225.1,195.9,218.7,196.2,212.3,197z"/>
</g>
<circle style="fill:#FFFFFF;" cx="389.2" cy="358.6" r="38.6"/>
<path style="fill:#FF7058;" d="M389.2,381.3c-12.5,0-22.7-10.2-22.7-22.7s10.2-22.7,22.7-22.7s22.7,10.2,22.7,22.7  S401.7,381.3,389.2,381.3z"/>
<circle style="fill:#FFFFFF;" cx="87.1" cy="309.5" r="38.6"/>
<path style="fill:#FFD05B;" d="M87.1,332.3c-12.5,0-22.7-10.2-22.7-22.7s10.2-22.7,22.7-22.7s22.7,10.2,22.7,22.7  C109.8,322.1,99.6,332.3,87.1,332.3z"/>
<circle style="fill:#FFFFFF;" cx="282.1" cy="86.6" r="38.6"/>
<path style="fill:#CED5E0;" d="M282.1,109.4c-12.5,0-22.7-10.2-22.7-22.7S269.6,64,282.1,64s22.7,10.2,22.7,22.7  C304.8,99.1,294.6,109.4,282.1,109.4z"/>
<circle style="fill:#FFFFFF;" cx="332.9" cy="221" r="32.5"/>
<path style="fill:#54C0EB;" d="M332.9,237.6c-9.2,0-16.6-7.4-16.6-16.6c0-9.2,7.4-16.6,16.6-16.6s16.6,7.4,16.6,16.6  C349.5,230.1,342,237.6,332.9,237.6z"/>
<circle style="fill:#FFFFFF;" cx="205" cy="188.2" r="32.5"/>
<path style="fill:#FF7058;" d="M205,204.8c-9.2,0-16.6-7.4-16.6-16.6c0-9.2,7.4-16.6,16.6-16.6c9.2,0,16.6,7.4,16.6,16.6  C221.6,197.4,214.2,204.8,205,204.8z"/>
<circle style="fill:#FFFFFF;" cx="255.1" cy="324.1" r="30.2"/>
<path style="fill:#FF7058;" d="M255.1,338.4c-7.9,0-14.3-6.4-14.3-14.3s6.4-14.3,14.3-14.3c7.9,0,14.3,6.4,14.3,14.3  C269.5,332,263,338.4,255.1,338.4z"/>
<g>
</g>
<g>
</g>
<g>
</g>
<g>
</g>
<g>
</g>
<g>
</g>
<g>
</g>
<g>
</g>
<g>
</g>
<g>
</g>
<g>
</g>
<g>
</g>
<g>
</g>
<g>
</g>
<g>
</g>
</svg>
