<?xml version="1.0" encoding="iso-8859-1"?>
<!-- Generator: Adobe Illustrator 19.0.0, SVG Export Plug-In . SVG Version: 6.00 Build 0)  -->
<svg xmlns="http://www.w3.org/2000/svg" xmlns:xlink="http://www.w3.org/1999/xlink" version="1.1" id="Layer_1" x="0px" y="0px" viewBox="0 0 508 508" style="enable-background:new 0 0 508 508;" xml:space="preserve">
<circle style="fill:#FFD05B;" cx="254" cy="254" r="254"/>
<path style="fill:#FFFFFF;" d="M329.7,85H132.1c-6.2,0-11.2,5-11.2,11.2v315.6c0,6.2,5,11.2,11.2,11.2h243.8c6.2,0,11.2-5,11.2-11.2  V142.4h-46.2c-6.2,0-11.2-5-11.2-11.2V85z"/>
<path style="fill:#E6E9EE;" d="M329.7,85v46.2c0,6.2,5,11.2,11.2,11.2h46.2L329.7,85z"/>
<path style="fill:#84DBFF;" d="M194.3,263.8H152c-2.2,0-4-1.8-4-4v-42.2c0-2.2,1.8-4,4-4h42.2c2.2,0,4,1.8,4,4v42.2  C198.3,262,196.5,263.8,194.3,263.8z M156.1,255.7h34.2v-34.2h-34.2V255.7z"/>
<path style="fill:#FF7058;" d="M178.3,250c-1,0-2-0.4-2.8-1.2l-15.4-15.4c-1.5-1.5-1.5-4,0-5.6c1.5-1.5,4-1.5,5.6,0l11.7,11.7  c7.7-12.9,29.6-46.3,50.9-45.7c2.2,0.1,3.9,1.9,3.8,4c-0.1,2.2-1.8,3.9-4,3.8c-16.9-0.4-39.3,33.2-46.4,46.2c-0.6,1.1-1.7,1.8-2.9,2  C178.7,250,178.5,250,178.3,250z"/>
<path style="fill:#84DBFF;" d="M313.3,263.8H271c-2.2,0-4-1.8-4-4v-42.2c0-2.2,1.8-4,4-4h42.2c2.2,0,4,1.8,4,4v42.2  C317.3,262,315.5,263.8,313.3,263.8z M275.1,255.7h34.2v-34.2h-34.2V255.7z"/>
<path style="fill:#FF7058;" d="M297.3,250c-1,0-2-0.4-2.8-1.2l-15.4-15.4c-1.5-1.5-1.5-4,0-5.6c1.5-1.5,4-1.5,5.6,0l11.7,11.7  c7.7-12.9,29.6-46.3,50.9-45.7c2.2,0.1,3.9,1.9,3.8,4c-0.1,2.2-1.8,3.9-4,3.8c-16.9-0.4-39.3,33.2-46.4,46.2c-0.6,1.1-1.7,1.8-2.9,2  C297.7,250,297.5,250,297.3,250z"/>
<path style="fill:#84DBFF;" d="M194.3,366.7H152c-2.2,0-4-1.8-4-4v-42.2c0-2.2,1.8-4,4-4h42.2c2.2,0,4,1.8,4,4v42.2  C198.3,364.8,196.5,366.7,194.3,366.7z M156.1,358.6h34.2v-34.2h-34.2V358.6z"/>
<path style="fill:#FF7058;" d="M178.3,352.9c-1,0-2-0.4-2.8-1.2l-15.4-15.4c-1.5-1.5-1.5-4,0-5.6c1.5-1.5,4-1.5,5.6,0l11.7,11.7  c7.7-12.9,29.6-46.3,50.9-45.7c2.2,0.1,3.9,1.9,3.8,4c-0.1,2.2-1.8,3.9-4,3.8c-16.9-0.4-39.3,33.2-46.4,46.2c-0.6,1.1-1.7,1.8-2.9,2  C178.7,352.8,178.5,352.9,178.3,352.9z"/>
<path style="fill:#84DBFF;" d="M313.3,366.7H271c-2.2,0-4-1.8-4-4v-42.2c0-2.2,1.8-4,4-4h42.2c2.2,0,4,1.8,4,4v42.2  C317.3,364.8,315.5,366.7,313.3,366.7z M275.1,358.6h34.2v-34.2h-34.2V358.6z"/>
<path style="fill:#FF7058;" d="M297.3,352.9c-1,0-2-0.4-2.8-1.2l-15.4-15.4c-1.5-1.5-1.5-4,0-5.6c1.5-1.5,4-1.5,5.6,0l11.7,11.7  c7.7-12.9,29.6-46.3,50.9-45.7c2.2,0.1,3.9,1.9,3.8,4c-0.1,2.2-1.8,3.9-4,3.8c-16.9-0.4-39.3,33.2-46.4,46.2c-0.6,1.1-1.7,1.8-2.9,2  C297.7,352.8,297.5,352.9,297.3,352.9z"/>
<g>
</g>
<g>
</g>
<g>
</g>
<g>
</g>
<g>
</g>
<g>
</g>
<g>
</g>
<g>
</g>
<g>
</g>
<g>
</g>
<g>
</g>
<g>
</g>
<g>
</g>
<g>
</g>
<g>
</g>
</svg>
