<?xml version="1.0" encoding="iso-8859-1"?>
<!-- Generator: Adobe Illustrator 19.0.0, SVG Export Plug-In . SVG Version: 6.00 Build 0)  -->
<svg xmlns="http://www.w3.org/2000/svg" xmlns:xlink="http://www.w3.org/1999/xlink" version="1.1" id="Layer_1" x="0px" y="0px" viewBox="0 0 508 508" style="enable-background:new 0 0 508 508;" xml:space="preserve">
<circle style="fill:#F1543F;" cx="254" cy="254" r="254"/>
<rect id="SVGCleanerId_0" x="246.121" y="80.347" transform="matrix(-0.7071 -0.7071 0.7071 -0.7071 254.1241 613.252)" style="fill:#324A5E;" width="15.9" height="347.297"/>
<rect id="SVGCleanerId_1" x="80.3" y="246.1" style="fill:#324A5E;" width="347.3" height="15.9"/>
<g transform="matrix(0.7071 0.7071 -0.7071 0.7071 256 -106.04)">
	
		<rect id="SVGCleanerId_1_1_" x="80.281" y="246.045" transform="matrix(-0.7071 -0.7071 0.7071 -0.7071 253.8827 613.152)" style="fill:#324A5E;" width="347.297" height="15.9"/>
</g>
<g transform="matrix(0.70711 -0.70711 0.70711 0.70711 -106.04 256)">
	<rect id="SVGCleanerId_0_1_" x="246.097" y="80.297" style="fill:#324A5E;" width="15.9" height="347.298"/>
</g>
<g>
	<circle style="fill:#FFFFFF;" cx="374.2" cy="133.8" r="32.9"/>
	<circle style="fill:#FFFFFF;" cx="133.8" cy="374.2" r="32.9"/>
	<circle style="fill:#FFFFFF;" cx="374.2" cy="374.2" r="32.9"/>
	<circle style="fill:#FFFFFF;" cx="133.8" cy="133.8" r="32.9"/>
	<circle style="fill:#FFFFFF;" cx="254" cy="254" r="68.7"/>
</g>
<circle style="fill:#84DBFF;" cx="254" cy="254" r="43.4"/>
<g>
	<circle style="fill:#FFFFFF;" cx="254" cy="84" r="32.9"/>
	<circle style="fill:#FFFFFF;" cx="254" cy="424" r="32.9"/>
	<circle style="fill:#FFFFFF;" cx="424" cy="254" r="32.9"/>
	<circle style="fill:#FFFFFF;" cx="84" cy="254" r="32.9"/>
	<circle style="fill:#FFFFFF;" cx="254" cy="254" r="68.7"/>
</g>
<g>
</g>
<g>
</g>
<g>
</g>
<g>
</g>
<g>
</g>
<g>
</g>
<g>
</g>
<g>
</g>
<g>
</g>
<g>
</g>
<g>
</g>
<g>
</g>
<g>
</g>
<g>
</g>
<g>
</g>
</svg>
