<?xml version="1.0" encoding="iso-8859-1"?>
<!-- Generator: Adobe Illustrator 19.0.0, SVG Export Plug-In . SVG Version: 6.00 Build 0)  -->
<svg xmlns="http://www.w3.org/2000/svg" xmlns:xlink="http://www.w3.org/1999/xlink" version="1.1" id="Layer_1" x="0px" y="0px" viewBox="0 0 508 508" style="enable-background:new 0 0 508 508;" xml:space="preserve">
<circle style="fill:#FFD05B;" cx="254" cy="254" r="254"/>
<path style="fill:#FFFFFF;" d="M193.2,89.8v53.7c0,5.8-4.7,10.5-10.5,10.5H129v253.9c0,5.8,4.7,10.5,10.5,10.5h229  c5.8,0,10.5-4.7,10.5-10.5V100.2c0-5.8-4.7-10.5-10.5-10.5H193.2V89.8z"/>
<path style="fill:#E6E9EE;" d="M193.2,89.8L129,153.9h53.7c5.8,0,10.5-4.7,10.5-10.5V89.8z"/>
<g>
	<path style="fill:#84DBFF;" d="M183.1,189.5h12.6v31.1H189v-25.2h-5.9V189.5z"/>
	<path style="fill:#84DBFF;" d="M214.9,221c-4.3,0-7.5-1.5-9.6-4.4s-3.2-6.8-3.2-11.7s1.1-8.8,3.2-11.7c2.1-2.9,5.3-4.4,9.6-4.4   s7.5,1.5,9.6,4.4s3.2,6.8,3.2,11.7s-1.1,8.8-3.2,11.7C222.4,219.5,219.2,221,214.9,221z M210.4,197.4c-1,1.9-1.5,4.4-1.5,7.5   s0.5,5.6,1.5,7.5s2.5,2.8,4.6,2.8s3.6-0.9,4.6-2.8c1-1.9,1.5-4.4,1.5-7.5s-0.5-5.6-1.5-7.5s-2.5-2.8-4.6-2.8   C212.9,194.6,211.3,195.5,210.4,197.4z"/>
	<path style="fill:#84DBFF;" d="M231.6,189.5h12.6v31.1h-6.7v-25.2h-5.9L231.6,189.5L231.6,189.5z"/>
	<path style="fill:#84DBFF;" d="M263.5,221c-4.3,0-7.5-1.5-9.6-4.4s-3.2-6.8-3.2-11.7s1.1-8.8,3.2-11.7c2.1-2.9,5.3-4.4,9.6-4.4   s7.5,1.5,9.6,4.4s3.2,6.8,3.2,11.7s-1.1,8.8-3.2,11.7S267.8,221,263.5,221z M258.9,197.4c-1,1.9-1.5,4.4-1.5,7.5s0.5,5.6,1.5,7.5   s2.5,2.8,4.6,2.8s3.6-0.9,4.6-2.8c1-1.9,1.5-4.4,1.5-7.5s-0.5-5.6-1.5-7.5s-2.5-2.8-4.6-2.8C261.4,194.6,259.9,195.5,258.9,197.4z"/>
	<path style="fill:#84DBFF;" d="M280.2,189.5h12.6v31.1h-6.7v-25.2h-5.9V189.5z"/>
	<path style="fill:#84DBFF;" d="M312.1,221c-4.3,0-7.5-1.5-9.6-4.4s-3.2-6.8-3.2-11.7s1.1-8.8,3.2-11.7s5.3-4.4,9.6-4.4   s7.5,1.5,9.6,4.4s3.2,6.8,3.2,11.7s-1.1,8.8-3.2,11.7S316.4,221,312.1,221z M307.5,197.4c-1,1.9-1.5,4.4-1.5,7.5s0.5,5.6,1.5,7.5   s2.5,2.8,4.6,2.8s3.6-0.9,4.6-2.8c1-1.9,1.5-4.4,1.5-7.5s-0.5-5.6-1.5-7.5s-2.5-2.8-4.6-2.8C310,194.6,308.5,195.5,307.5,197.4z"/>
	<path style="fill:#84DBFF;" d="M183.1,242.9h12.6V274H189v-25.2h-5.9V242.9z"/>
	<path style="fill:#84DBFF;" d="M214.9,274.3c-4.3,0-7.5-1.5-9.6-4.4s-3.2-6.8-3.2-11.7c0-4.9,1.1-8.8,3.2-11.7   c2.1-2.9,5.3-4.4,9.6-4.4s7.5,1.5,9.6,4.4s3.2,6.8,3.2,11.7s-1.1,8.8-3.2,11.7C222.4,272.8,219.2,274.3,214.9,274.3z M210.4,250.7   c-1,1.9-1.5,4.4-1.5,7.5s0.5,5.6,1.5,7.5s2.5,2.8,4.6,2.8s3.6-0.9,4.6-2.8s1.5-4.4,1.5-7.5s-0.5-5.6-1.5-7.5s-2.5-2.8-4.6-2.8   C212.9,247.9,211.3,248.8,210.4,250.7z"/>
	<path style="fill:#84DBFF;" d="M231.6,242.9h12.6V274h-6.7v-25.2h-5.9L231.6,242.9L231.6,242.9z"/>
	<path style="fill:#84DBFF;" d="M263.5,274.3c-4.3,0-7.5-1.5-9.6-4.4s-3.2-6.8-3.2-11.7c0-4.9,1.1-8.8,3.2-11.7   c2.1-2.9,5.3-4.4,9.6-4.4s7.5,1.5,9.6,4.4s3.2,6.8,3.2,11.7s-1.1,8.8-3.2,11.7C271,272.8,267.8,274.3,263.5,274.3z M258.9,250.7   c-1,1.9-1.5,4.4-1.5,7.5s0.5,5.6,1.5,7.5s2.5,2.8,4.6,2.8s3.6-0.9,4.6-2.8s1.5-4.4,1.5-7.5s-0.5-5.6-1.5-7.5s-2.5-2.8-4.6-2.8   C261.4,247.9,259.9,248.8,258.9,250.7z"/>
	<path style="fill:#84DBFF;" d="M280.2,242.9h12.6V274h-6.7v-25.2h-5.9V242.9z"/>
	<path style="fill:#84DBFF;" d="M312.1,274.3c-4.3,0-7.5-1.5-9.6-4.4s-3.2-6.8-3.2-11.7c0-4.9,1.1-8.8,3.2-11.7s5.3-4.4,9.6-4.4   s7.5,1.5,9.6,4.4s3.2,6.8,3.2,11.7s-1.1,8.8-3.2,11.7C319.6,272.8,316.4,274.3,312.1,274.3z M307.5,250.7c-1,1.9-1.5,4.4-1.5,7.5   s0.5,5.6,1.5,7.5s2.5,2.8,4.6,2.8s3.6-0.9,4.6-2.8s1.5-4.4,1.5-7.5s-0.5-5.6-1.5-7.5s-2.5-2.8-4.6-2.8   C310,247.9,308.5,248.8,307.5,250.7z"/>
	<path style="fill:#84DBFF;" d="M183.1,296.2h12.6v31.1H189v-25.2h-5.9V296.2z"/>
	<path style="fill:#84DBFF;" d="M214.9,327.6c-4.3,0-7.5-1.5-9.6-4.4s-3.2-6.8-3.2-11.7c0-4.9,1.1-8.8,3.2-11.7   c2.1-2.9,5.3-4.4,9.6-4.4s7.5,1.5,9.6,4.4s3.2,6.8,3.2,11.7c0,4.9-1.1,8.8-3.2,11.7C222.4,326.2,219.2,327.6,214.9,327.6z    M210.4,304.1c-1,1.9-1.5,4.4-1.5,7.5s0.5,5.6,1.5,7.5s2.5,2.8,4.6,2.8s3.6-0.9,4.6-2.8s1.5-4.4,1.5-7.5s-0.5-5.6-1.5-7.5   s-2.5-2.8-4.6-2.8C212.9,301.2,211.3,302.2,210.4,304.1z"/>
	<path style="fill:#84DBFF;" d="M231.6,296.2h12.6v31.1h-6.7v-25.2h-5.9L231.6,296.2L231.6,296.2z"/>
	<path style="fill:#84DBFF;" d="M263.5,327.6c-4.3,0-7.5-1.5-9.6-4.4s-3.2-6.8-3.2-11.7c0-4.9,1.1-8.8,3.2-11.7   c2.1-2.9,5.3-4.4,9.6-4.4s7.5,1.5,9.6,4.4s3.2,6.8,3.2,11.7c0,4.9-1.1,8.8-3.2,11.7C271,326.2,267.8,327.6,263.5,327.6z    M258.9,304.1c-1,1.9-1.5,4.4-1.5,7.5s0.5,5.6,1.5,7.5s2.5,2.8,4.6,2.8s3.6-0.9,4.6-2.8s1.5-4.4,1.5-7.5s-0.5-5.6-1.5-7.5   s-2.5-2.8-4.6-2.8C261.4,301.2,259.9,302.2,258.9,304.1z"/>
	<path style="fill:#84DBFF;" d="M280.2,296.2h12.6v31.1h-6.7v-25.2h-5.9V296.2z"/>
	<path style="fill:#84DBFF;" d="M312.1,327.6c-4.3,0-7.5-1.5-9.6-4.4s-3.2-6.8-3.2-11.7c0-4.9,1.1-8.8,3.2-11.7   c2.1-2.9,5.3-4.4,9.6-4.4s7.5,1.5,9.6,4.4s3.2,6.8,3.2,11.7c0,4.9-1.1,8.8-3.2,11.7C319.6,326.2,316.4,327.6,312.1,327.6z    M307.5,304.1c-1,1.9-1.5,4.4-1.5,7.5s0.5,5.6,1.5,7.5s2.5,2.8,4.6,2.8s3.6-0.9,4.6-2.8s1.5-4.4,1.5-7.5s-0.5-5.6-1.5-7.5   s-2.5-2.8-4.6-2.8C310,301.2,308.5,302.2,307.5,304.1z"/>
</g>
<g>
</g>
<g>
</g>
<g>
</g>
<g>
</g>
<g>
</g>
<g>
</g>
<g>
</g>
<g>
</g>
<g>
</g>
<g>
</g>
<g>
</g>
<g>
</g>
<g>
</g>
<g>
</g>
<g>
</g>
</svg>
