<?xml version="1.0" encoding="iso-8859-1"?>
<!-- Generator: Adobe Illustrator 19.0.0, SVG Export Plug-In . SVG Version: 6.00 Build 0)  -->
<svg xmlns="http://www.w3.org/2000/svg" xmlns:xlink="http://www.w3.org/1999/xlink" version="1.1" id="Layer_1" x="0px" y="0px" viewBox="0 0 508 508" style="enable-background:new 0 0 508 508;" xml:space="preserve">
<circle style="fill:#84DBFF;" cx="254" cy="254" r="254"/>
<rect x="248.6" y="160" style="fill:#FFFFFF;" width="10.8" height="140.6"/>
<rect x="168.2" y="295.2" style="fill:#FFFFFF;" width="171.5" height="10.8"/>
<path style="fill:#324A5E;" d="M297.5,77h-86.9c-7,0-12.7,5.7-12.7,12.7v133.4c0,7,5.7,12.7,12.7,12.7h86.9c7,0,12.7-5.7,12.7-12.7  V89.6C310.1,82.6,304.5,77,297.5,77z"/>
<rect x="204.2" y="96.5" style="fill:#FFFFFF;" width="99.7" height="111.7"/>
<g>
	<path style="fill:#2B3B4E;" d="M266.3,89.1h-24.7c-1.5,0-2.7-1.2-2.7-2.7l0,0c0-1.5,1.2-2.7,2.7-2.7h24.7c1.5,0,2.7,1.2,2.7,2.7   l0,0C269,87.8,267.8,89.1,266.3,89.1z"/>
	<circle style="fill:#2B3B4E;" cx="254" cy="221.2" r="7"/>
</g>
<path style="fill:#324A5E;" d="M429.1,200.4h-86.9c-7,0-12.7,5.7-12.7,12.7v133.4c0,7,5.7,12.7,12.7,12.7h86.9  c7,0,12.7-5.7,12.7-12.7V213C441.8,206,436.1,200.4,429.1,200.4z"/>
<rect x="335.8" y="219.9" style="fill:#FFFFFF;" width="99.7" height="111.7"/>
<g>
	<polygon style="fill:#E6E9EE;" points="416.2,219.9 378.7,331.5 435.5,331.5 435.5,219.9  "/>
	<polygon style="fill:#E6E9EE;" points="284.5,96.5 247,208.1 303.8,208.1 303.8,96.5  "/>
</g>
<g>
	<path style="fill:#2B3B4E;" d="M398,212.4h-24.7c-1.5,0-2.7-1.2-2.7-2.7l0,0c0-1.5,1.2-2.7,2.7-2.7H398c1.5,0,2.7,1.2,2.7,2.7l0,0   C400.7,211.2,399.5,212.4,398,212.4z"/>
	<circle style="fill:#2B3B4E;" cx="385.7" cy="344.6" r="7"/>
</g>
<path style="fill:#324A5E;" d="M165.8,200.4H78.9c-7,0-12.7,5.7-12.7,12.7v133.4c0,7,5.7,12.7,12.7,12.7h86.9  c7,0,12.7-5.7,12.7-12.7V213C178.5,206,172.8,200.4,165.8,200.4z"/>
<rect x="72.5" y="219.9" style="fill:#FFFFFF;" width="99.7" height="111.7"/>
<g>
	<path style="fill:#2B3B4E;" d="M134.7,212.4H110c-1.5,0-2.7-1.2-2.7-2.7l0,0c0-1.5,1.2-2.7,2.7-2.7h24.7c1.5,0,2.7,1.2,2.7,2.7l0,0   C137.4,211.2,136.2,212.4,134.7,212.4z"/>
	<circle style="fill:#2B3B4E;" cx="122.3" cy="344.6" r="7"/>
</g>
<circle style="fill:#FF7058;" cx="254" cy="296.8" r="18.8"/>
<polygon style="fill:#E6E9EE;" points="152.8,219.9 115.4,331.5 172.2,331.5 172.2,219.9 "/>
<g>
</g>
<g>
</g>
<g>
</g>
<g>
</g>
<g>
</g>
<g>
</g>
<g>
</g>
<g>
</g>
<g>
</g>
<g>
</g>
<g>
</g>
<g>
</g>
<g>
</g>
<g>
</g>
<g>
</g>
</svg>
