<?xml version="1.0" encoding="iso-8859-1"?>
<!-- Generator: Adobe Illustrator 19.0.0, SVG Export Plug-In . SVG Version: 6.00 Build 0)  -->
<svg xmlns="http://www.w3.org/2000/svg" xmlns:xlink="http://www.w3.org/1999/xlink" version="1.1" id="Layer_1" x="0px" y="0px" viewBox="0 0 508 508" style="enable-background:new 0 0 508 508;" xml:space="preserve">
<circle style="fill:#4CDBC4;" cx="254" cy="254" r="254"/>
<g>
	<path style="fill:#FFFFFF;" d="M117.1,179.4L117.1,179.4c-15.8,0-28.6-12.8-28.6-28.6l0,0c0-15.8,12.8-28.6,28.6-28.6l0,0   c15.8,0,28.6,12.8,28.6,28.6l0,0C145.7,166.6,132.9,179.4,117.1,179.4z"/>
	<path style="fill:#FFFFFF;" d="M117.1,282.6L117.1,282.6c-15.8,0-28.6-12.8-28.6-28.6l0,0c0-15.8,12.8-28.6,28.6-28.6l0,0   c15.8,0,28.6,12.8,28.6,28.6l0,0C145.7,269.8,132.9,282.6,117.1,282.6z"/>
	<path style="fill:#FFFFFF;" d="M117.1,385.8L117.1,385.8c-15.8,0-28.6-12.8-28.6-28.6l0,0c0-15.8,12.8-28.6,28.6-28.6l0,0   c15.8,0,28.6,12.8,28.6,28.6l0,0C145.7,373,132.9,385.8,117.1,385.8z"/>
	<path style="fill:#FFFFFF;" d="M414.4,181.9H171.2c-1.1,0-2-0.9-2-2v-58.2c0-1.1,0.9-2,2-2h243.2c1.1,0,2,0.9,2,2v58.2   C416.4,181,415.5,181.9,414.4,181.9z"/>
</g>
<polygon style="fill:#FF7058;" points="294.8,127.6 177.2,127.6 177.1,174 294.8,174 "/>
<path style="fill:#FFFFFF;" d="M414.4,285.1H171.2c-1.1,0-2-0.9-2-2v-58.2c0-1.1,0.9-2,2-2h243.2c1.1,0,2,0.9,2,2v58.2  C416.4,284.2,415.5,285.1,414.4,285.1z"/>
<polygon style="fill:#FFD05B;" points="343.1,230.8 177.2,230.8 177.1,277.2 343.1,277.2 "/>
<path style="fill:#FFFFFF;" d="M414.4,388.3H171.2c-1.1,0-2-0.9-2-2v-58.2c0-1.1,0.9-2,2-2h243.2c1.1,0,2,0.9,2,2v58.2  C416.4,387.4,415.5,388.3,414.4,388.3z"/>
<polygon style="fill:#324A5E;" points="294.8,334 177.2,334 177.1,380.4 294.8,380.4 "/>
<g>
</g>
<g>
</g>
<g>
</g>
<g>
</g>
<g>
</g>
<g>
</g>
<g>
</g>
<g>
</g>
<g>
</g>
<g>
</g>
<g>
</g>
<g>
</g>
<g>
</g>
<g>
</g>
<g>
</g>
</svg>
