<?xml version="1.0" encoding="iso-8859-1"?>
<!-- Generator: Adobe Illustrator 19.0.0, SVG Export Plug-In . SVG Version: 6.00 Build 0)  -->
<svg xmlns="http://www.w3.org/2000/svg" xmlns:xlink="http://www.w3.org/1999/xlink" version="1.1" id="Layer_1" x="0px" y="0px" viewBox="0 0 508 508" style="enable-background:new 0 0 508 508;" xml:space="preserve">
<circle style="fill:#324A5E;" cx="254" cy="254" r="254"/>
<circle style="fill:#54C0EB;" cx="253.9" cy="254" r="109.4"/>
<g>
	<path style="fill:#FFFFFF;" d="M354,236.1c-0.2-7.2-0.5-14.4-0.7-21.6c-0.1-3.3-0.5-7.1-3.3-8.8c-1.1-0.7-2.5-1-3.5-1.8   c-1.3-1.1-1.6-3-1.9-4.7c-0.4-2.7-0.8-5.5-1.2-8.2c-10.9-15.5-25.8-28-43.2-36.1c-1.7,2.7-5.3,4.2-8.1,2.9c0.3,6-6.2,9.6-11.8,11.9   c-2.8,1.1-5.9,2.3-8.8,1.4c-2.1-0.6-3.7-2.1-5.6-3.3c-6.4-4.1-15.4-3.6-21.4,1.1c-2.1,1.7-4,4.2-3.5,6.9c0.4,2.7,4.3,4.5,6,2.4   c0.7-0.9,0.8-2.1,1.3-3.2c1.2-2.6,4.8-3.6,7.1-2.1c1.3,3.3-1.3,7.1-4.6,8.4c-3.3,1.3-7,0.8-10.4,0.2c-3.5-0.6-7.1-1.3-10.5-0.3   c-1.1-3.1-0.8-6.7,0.7-9.6c-1.8,0.2-3.7,0.5-5.1,1.6c-1.4,1.1-2.2,3.3-1.1,4.8c0.5,0.7,1.4,1.1,1.8,1.9c1.3,2.2-1.6,4.4-4,5.3   c-5.2,2-10.3,4-15.5,5.9c2.9,2.8,6.5,5,10.3,6.4c2.2,0.8,4.8,1.3,6.9,0.1c1.3-0.7,2.2-1.9,3.5-2.6c3.7-2,8,1.3,11.1,4.1   c3.2,2.8,8.4,5.2,11.2,2.1c0.7-0.7,1.1-1.7,1.8-2.5c3.1-3.4,8.8-0.4,13.2-1.7c1.1,2.7-1.9,5.4-4.7,5.8c-2.8,0.5-5.8-0.3-8.6,0.5   c-0.5,0.1-1,0.3-1.3,0.8c-0.7,1,0.2,2.3,1.1,3.1c2.4,2.1,5.3,3.5,8.5,4.1c-0.5,3.7-5.3,4.7-9.1,4.8c-3.9,0.1-7.9,0.2-11.9,0.3   c-4.5,0.1-10.4-0.8-11.1-5.3c-0.3-2,0.6-4.4-0.8-5.9c-0.6-0.7-1.6-1-2.5-1.2c-5.1-1.4-10.4-2.8-15.6-1.7c-3.1,0.6-5.9,2.1-8.6,3.6   c-7.6,4.1-15.6,9.4-17.8,17.7c-2,7.5,1.5,15.3,4.8,22.3c1.3,2.7,2.8,5.6,5.6,6.8c4.4,1.8,10.2-1.5,13.9,1.6c2.9,2.5,2,6.9,1.5,10.7   c-0.8,5.8-0.3,11.8,1.6,17.3c0.6,1.7,1.4,3.4,2.9,4.2c1.1,0.5,2.3,0.5,3.4,1c3.5,1.5,3.5,6.4,3.3,10.2c-0.3,5,0.1,10.1,1.2,15.1   c0.4,2,1.1,4.2,2.8,5.4c1.4,1,3.2,1.1,5,1.2c6.6,0.3,14.4,0.1,18.1-5.4c2.7-4,2.2-9.8,5.5-13.4c1.6-1.7,3.9-2.7,5.5-4.5   c3.7-4.3,1.5-10.9,2.2-16.6c0.7-4.9,4-9.4,8.5-11.5c3.1-1.4,6.5-1.8,9.4-3.6c2.8-1.8,4.6-6,2.4-8.5c-5.8,1.4-12-1.3-16.3-5.5   c-4.3-4.2-7-9.7-9.5-15.1c-0.8-1.7-1.6-3.5-1.5-5.4s1.5-3.8,3.4-3.8c1.8,0,3.3,1.7,3.7,3.5c0.4,1.8,0.1,3.6,0.1,5.5   c-0.1,9,8.2,17.1,17.1,16.9c9-0.2,16.9-8.7,16.4-17.6c-3.2-0.2-6.4-0.3-9.7-0.5c-1-0.1-2-0.1-2.7-0.7c-1.2-0.9-1.2-2.7-1.5-4.2   c-0.2-1.5-1.3-3.3-2.8-3c9.9-3.3,19.3,10.9,29.3,7.9c-1.4,1.7-0.6,4.3,0.8,6s3.3,3,4.3,4.9c0.9,1.7,0.9,3.6,1.5,5.4   c1.3,4.3,5.1,7.2,8.8,9.9c1.8-4.2,2.1-8.9,3.3-13.3c1.2-4.4,3.7-8.9,8-10.5c6.7-2.5,13.5,2.9,18.5,7.9   C353.9,242.7,354.1,239.1,354,236.1z M281.4,214.9l0.6-0.6c-2.3-0.4-2.6-3.4-3.4-5.6c-1.2-3.5-4.8-6.5-3.9-10.1   c0.5-2.1,2.6-3.7,4.7-3.6c0.9,0,1.8,0.4,2.3,1.1c0.9,1.2,0.5,2.9,0.5,4.4c0,2.6,1.2,5.1,1.7,7.6   C284.4,210.7,283.8,213.9,281.4,214.9z"/>
	<path style="fill:#FFFFFF;" d="M265.9,314.4c-3-0.6-5.5-3.3-5.8-6.3c-0.3-3.1,1.6-6.2,4.4-7.4c1.6-0.6,3.4-0.7,4.7-1.8   c0.7-0.6,1.2-1.3,1.9-1.9c0.7-0.6,1.8-0.9,2.5-0.3c0.3,0.2,0.5,0.6,0.7,1c0.5,1.7-0.1,3.5-1.1,5s-2.3,2.7-3.2,4.3   c-1.5,2.5-2,5.5-1.3,8.4c0.2,1,0.6,2,0.4,3c-0.4,1.5-2.2,2.3-3.7,1.8c-1.4-0.5-2.3-2.2-2.1-3.7L265.9,314.4z"/>
	<path style="fill:#FFFFFF;" d="M357.9,263.2c-0.5,1-1.5,1.5-2.3,2.2c-1.9,1.8-1.9,4.7-2,7.3c0,0.9-0.3,2-1.1,2.1   c-0.3,0.1-0.7-0.1-1-0.2c-4.8-2-8.9-5.7-11.5-10.2c-0.7-1.3-1.4-2.8-1-4.3c0.3-1.5,2.1-2.6,3.4-1.9c1.5,0.8,2,3.7,3.7,3.3   c1.2-0.3,1.2-1.9,0.8-3.1c-0.4-1.1-1-2.4-0.4-3.4c0.8-1.3,3-0.7,3.8,0.6c0.8,1.3,0.9,2.9,1.4,4.4c2.4-2.9,4.2-6.4,5.2-10   c0.4,3.5,0.8,7,1.2,10.5C358.2,261.4,358.3,262.4,357.9,263.2z"/>
</g>
<path style="fill:#E6E9EE;" d="M253.9,436c-100.4,0-182-81.6-182-182s81.6-182,182-182s182,81.6,182,182S354.3,436,253.9,436z   M253.9,86.7c-92.2,0-167.3,75-167.3,167.3c0,92.2,75,167.3,167.3,167.3s167.3-75,167.3-167.3C421.2,161.8,346.1,86.7,253.9,86.7z"/>
<path style="fill:#FFFFFF;" d="M426.4,213.1L426.4,213.1c-22.6,0-40.9,18.3-40.9,40.9l0,0c0,22.6,18.3,40.9,40.9,40.9l0,0  c22.6,0,40.9-18.3,40.9-40.9l0,0C467.3,231.4,448.9,213.1,426.4,213.1z"/>
<path style="fill:#FF7058;" d="M426.4,228.6L426.4,228.6c-14,0-25.4,11.4-25.4,25.4l0,0c0,14,11.4,25.4,25.4,25.4l0,0  c14,0,25.4-11.4,25.4-25.4l0,0C451.8,240,440.4,228.6,426.4,228.6z"/>
<path style="fill:#FFFFFF;" d="M79.3,213.1L79.3,213.1c-22.6,0-40.9,18.3-40.9,40.9l0,0c0,22.6,18.3,40.9,40.9,40.9l0,0  c22.6,0,40.9-18.3,40.9-40.9l0,0C120.2,231.4,101.9,213.1,79.3,213.1z"/>
<path style="fill:#FF7058;" d="M79.3,228.6L79.3,228.6c-14,0-25.4,11.4-25.4,25.4l0,0c0,14,11.4,25.4,25.4,25.4l0,0  c14,0,25.4-11.4,25.4-25.4l0,0C104.7,240,93.3,228.6,79.3,228.6z"/>
<path style="fill:#FFFFFF;" d="M293.7,427.5L293.7,427.5c0-22.6-18.3-40.9-40.9-40.9l0,0c-22.6,0-40.9,18.3-40.9,40.9l0,0  c0,22.6,18.3,40.9,40.9,40.9l0,0C275.4,468.4,293.7,450.1,293.7,427.5z"/>
<path style="fill:#FF7058;" d="M278.2,427.5L278.2,427.5c0-14-11.4-25.4-25.4-25.4l0,0c-14,0-25.4,11.4-25.4,25.4l0,0  c0,14,11.4,25.4,25.4,25.4l0,0C266.8,452.9,278.2,441.6,278.2,427.5z"/>
<path style="fill:#FFFFFF;" d="M293.7,80.5L293.7,80.5c0-22.6-18.3-40.9-40.9-40.9l0,0c-22.6,0-40.9,18.3-40.9,40.9l0,0  c0,22.6,18.3,40.9,40.9,40.9l0,0C275.4,121.3,293.7,103,293.7,80.5z"/>
<path style="fill:#FF7058;" d="M278.2,80.5L278.2,80.5c0-14-11.4-25.4-25.4-25.4l0,0c-14,0-25.4,11.4-25.4,25.4l0,0  c0,14,11.4,25.4,25.4,25.4l0,0C266.8,105.8,278.2,94.5,278.2,80.5z"/>
<g>
</g>
<g>
</g>
<g>
</g>
<g>
</g>
<g>
</g>
<g>
</g>
<g>
</g>
<g>
</g>
<g>
</g>
<g>
</g>
<g>
</g>
<g>
</g>
<g>
</g>
<g>
</g>
<g>
</g>
</svg>
