<?xml version="1.0" encoding="iso-8859-1"?>
<!-- Generator: Adobe Illustrator 19.0.0, SVG Export Plug-In . SVG Version: 6.00 Build 0)  -->
<svg xmlns="http://www.w3.org/2000/svg" xmlns:xlink="http://www.w3.org/1999/xlink" version="1.1" id="Layer_1" x="0px" y="0px" viewBox="0 0 509 509" style="enable-background:new 0 0 509 509;" xml:space="preserve">
<circle style="fill:#54C0EB;" cx="254.5" cy="253.8" r="253.8"/>
<circle style="fill:#FFFFFF;" cx="254.5" cy="147.5" r="100.2"/>
<circle style="fill:#FFD05B;" cx="254.5" cy="147.5" r="80.5"/>
<path style="fill:#FFFFFF;" d="M251.2,210.7v-11.2c-13.9-1.4-26.4-7-37.5-16.6l11.1-13.3c8.5,7.4,17.3,11.8,26.4,13.3v-29.6  c-11.5-2.7-19.9-6.4-25.2-10.8c-5.3-4.5-8-11.1-8-19.9s3.1-16,9.2-21.6c6.2-5.6,14.2-8.6,24-9.1v-7.6h9.8v7.8  c11.2,0.8,21.7,4.6,31.7,11.4l-9.9,14c-6.7-4.8-14-7.7-21.8-8.8v28.7h0.5c11.7,2.7,20.3,6.5,25.8,11.1c5.5,4.7,8.2,11.5,8.2,20.4  s-3.2,16.1-9.5,21.7c-6.3,5.6-14.6,8.6-25,9.1v11H251.2z M240.4,112.3c-2.6,2.3-3.9,5.1-3.9,8.5s1,6.1,3.1,8.1c2,2,5.9,3.9,11.6,5.7  v-26.4C246.6,108.6,243,110,240.4,112.3z M272.5,179.1c2.8-2.3,4.3-5.3,4.3-8.8s-1.1-6.4-3.3-8.5c-2.2-2.1-6.4-4-12.5-5.9v27.4  C265.8,182.9,269.6,181.5,272.5,179.1z"/>
<polygon style="fill:#E6E9EE;" points="255,430.8 311.8,366.2 298.6,291 254.6,288.5 254.5,302.6 254.4,288.5 210.4,291   197.2,366.2 254,430.8 254,432 254.5,431.4 255,432 "/>
<polygon style="fill:#FF7058;" points="260.9,313.5 261,301 254,301 247,301 247,313.5 222.3,442.3 254,485.3 285.7,442.3 "/>
<path style="fill:#F1543F;" d="M261.7,317.5l-2.1-1.6c-0.1-0.1-2.7-2-5.4-2H254h-0.2c-2.8,0-5.4,2-5.4,2l-2,1.6l0.8-4l-0.1-12.5h14  l-0.1,12.5L261.7,317.5z"/>
<path style="fill:#FF7058;" d="M281.8,292.3c0,0-19.3,6.7-20.3,21.1c0,0-3.5-2.8-7.5-2.7c-4-0.1-7.5,2.7-7.5,2.7  c-1-14.5-20.3-21.1-20.3-21.1l27.9-3.8L281.8,292.3z"/>
<path style="fill:#2B3B4E;" d="M170.6,367.1c0,0-9.8,62.3-25.2,68.8c-4,1.7-6.5,18.8-8.1,43.2c-15.3-8-29.8-17.5-43.1-28.4  c0-4.8,0-8.5-0.1-10.9c-1.2-28.7,20.9-103.3,20.1-113.6c-0.8-10.3,6.5-9.6,6.5-9.6l2.7-0.9c0,0,15.9,8,18.3,8.6  C144.4,324.9,170.6,367.1,170.6,367.1z"/>
<path style="fill:#324A5E;" d="M263.4,507.5c-2.9,0.1-5.9,0.2-8.8,0.2c-3,0-5.9,0-8.9-0.2c-33-1.1-64.4-8.6-93-21.1  c-2.4-22.4-5.9-43.4-7.1-50.4c-0.3-1.7-0.4-2.5-0.4-2.5c3.8-16.3-24.1-116.8-24.1-116.8l2.7-0.9l55-18.4c2.5-0.5,4.8-1.1,7-1.8  c3.4-1,6.4-2.3,9-3.6c0.9-0.5,1.8-1,2.7-1.5c0.9-0.6,1.7-1.1,2.5-1.6c0.6-0.4,1.2-0.9,1.8-1.3l0.7-0.6c1-0.8,1.9-1.6,2.7-2.4  c0.5-0.5,1-1,1.5-1.5c0.8-0.8,1.4-1.6,2-2.4c0.4-0.6,0.8-1.1,1.2-1.6s0.7-1,1-1.5c0.8-1.3,1.4-2.5,1.9-3.6c0.2-0.4,0.3-0.8,0.4-1.1  c0-0.1,0.1-0.2,0.2-0.4c0.3-0.8,0.5-1.5,0.7-2c0.1-0.3,0.2-0.5,0.2-0.6s0-0.2,0-0.2c0-0.2,0-0.2,0-0.2v0.4c0,2.5,0,5,0.1,7.5  c0,1.2,0.1,2.3,0.1,3.5c0,1.6,0.1,3.3,0.2,4.9c0.1,0.9,0.1,1.7,0.2,2.6c0,0.9,0.1,1.7,0.2,2.6c0.1,1.4,0.2,2.8,0.3,4.2  c0,0.1,0,0.2,0,0.2c0.7,7.7,1.6,15.6,2.7,23.6c0.2,2.1,0.6,4.2,0.9,6.3c0.1,0.4,0.1,0.8,0.2,1.2c0.8,5,1.5,10,2.4,15.1  c0.7,4.1,1.5,8.2,2.3,12.3c0.4,2,0.8,4,1.1,5.9c2.2,11.3,4.6,22.2,6.9,32.6l0,0c0.4,1.6,0.7,3.2,1.1,4.8c0.1,0.5,0.2,1,0.4,1.5  c0.2,1,0.4,1.9,0.6,2.8c0.1,0.5,0.2,0.9,0.3,1.3c0.2,1,0.4,1.9,0.7,2.8c0.2,1.2,0.5,2.3,0.8,3.3c0.2,0.6,0.3,1.3,0.4,1.9l0,0  c0.1,0.5,0.2,0.9,0.4,1.3c0.5,2.2,1.1,4.4,1.6,6.5c0.2,0.9,0.4,1.7,0.6,2.5c0,0.1,0.1,0.2,0.1,0.4c0.2,0.6,0.3,1.3,0.5,1.9  c1,3.8,1.9,7.4,2.7,10.7c0.2,0.9,0.4,1.7,0.6,2.5c0.1,0.4,0.2,0.8,0.4,1.2c0.4,1.6,0.8,3.1,1.2,4.6c0.1,0.4,0.2,0.8,0.3,1.1  c0.2,0.7,0.4,1.4,0.6,2c0.3,1,0.6,2,0.8,2.9c0.4,1.2,0.6,2.3,1,3.4c0.4,1.3,0.7,2.5,1,3.4c0,0.2,0.1,0.4,0.2,0.6s0.1,0.4,0.2,0.6  c0.1,0.4,0.2,0.7,0.3,1s0.2,0.6,0.2,0.8c0.3,0.9,0.4,1.4,0.5,1.6v0.1c0.3,0.6,0.6,1.1,0.9,1.7c1.2,2.3,2.3,4.7,3.3,7.2  c0.2,0.3,0.3,0.7,0.4,1c0.1,0.4,0.2,0.8,0.4,1.1c0.1,0.2,0.2,0.4,0.3,0.7l0,0c0.3,0.7,0.6,1.4,0.8,2.1c0.2,0.7,0.5,1.4,0.7,2.1  c0.3,0.8,0.6,1.6,0.8,2.5c0.2,0.5,0.4,1,0.5,1.5c0.1,0.3,0.2,0.5,0.2,0.8c0.3,0.9,0.5,1.7,0.8,2.7c0.3,1.2,0.6,2.4,1,3.6  c0.2,0.8,0.4,1.7,0.6,2.5c0.1,0.3,0.1,0.6,0.2,0.9c0.2,1,0.4,1.9,0.6,2.9c0.2,0.6,0.3,1.2,0.4,1.7c0.2,0.7,0.3,1.4,0.4,2.1  C262.3,500.5,262.8,503.9,263.4,507.5z"/>
<path style="fill:#2B3B4E;" d="M177.5,313c0,0,48.8,137.2,68.3,159.2c6.4,7.2,11.6,16.1,15.8,24.9c-2.7-14-6.7-26.8-12.4-37.2  c0,0-35.5-121.1-35-190.6c0,0-3.4,18.5-28.6,26.3l10.6,5.3L177.5,313z"/>
<g>
	<path style="fill:#FFFFFF;" d="M291.4,261.5c0,0,6,7.9-36.8,26.9c0,0,16.2-0.7,31.3,32C285.8,320.4,303.9,277.3,291.4,261.5z"/>
	<path style="fill:#FFFFFF;" d="M217.7,261.5c0,0-6,7.9,36.8,26.9c0,0-16.2-0.7-31.3,32C223.3,320.4,205.2,277.3,217.7,261.5z"/>
</g>
<path style="fill:#324A5E;" d="M414.7,439.8c-0.1,2.4-0.1,6.1,0,10.9c-13.3,10.9-27.7,20.4-43.1,28.4c-1.5-24.3-4-41.4-8.1-43.1  c-15.4-6.5-25.2-68.8-25.2-68.8s26.3-42.2,28.7-42.8c2.5-0.6,18.4-8.6,18.4-8.6l2.7,0.9c0,0,7.3-0.7,6.5,9.6  C393.8,336.4,416,411,414.7,439.8z"/>
<path style="fill:#2B3B4E;" d="M364,433.4c0,0-0.2,0.9-0.5,2.5c-1.2,7.1-4.8,28-7.1,50.4c-25.1,11-52.2,18.1-80.7,20.4  c-3.5,0.3-7.1,0.6-10.7,0.7c-0.5,0.5-1,1-1.4,1.6c-0.1-0.5-0.2-1-0.2-1.5c-2.9,0.1-5.9,0.2-8.8,0.2c-3,0-5.9,0-8.9-0.2  c0.6-3.6,1.2-7.1,1.8-10.5v-0.1c0.2-1,0.4-1.9,0.6-2.9c0.2-1,0.4-2,0.7-3.1c0-0.2,0.1-0.5,0.2-0.8c0.4-1.8,0.9-3.6,1.3-5.4  c0.2-0.8,0.4-1.6,0.7-2.4c0-0.3,0.2-0.6,0.3-0.9l0,0c0-0.1,0-0.2,0-0.2c0.1-0.2,0.2-0.4,0.2-0.7c0.1-0.3,0.2-0.6,0.3-0.9l0,0  c0.1-0.4,0.2-0.7,0.3-1c0.2-0.6,0.4-1.1,0.5-1.6c0.2-0.5,0.3-0.9,0.4-1.3c0.2-0.4,0.3-0.9,0.5-1.3c0-0.2,0.1-0.4,0.2-0.5  c0.1-0.3,0.2-0.6,0.4-1c0.2-0.5,0.3-0.9,0.5-1.4l0,0c0.5-1.4,1-2.7,1.6-4c0.4-0.9,0.8-1.7,1.2-2.6c0.2-0.3,0.3-0.7,0.5-1  c0.2-0.5,0.5-1,0.8-1.6c0.4-0.8,0.8-1.6,1.3-2.4c0,0,0-0.2,0.2-0.6c0.1-0.4,0.2-0.9,0.4-1.5c0.1-0.4,0.3-0.9,0.4-1.4s0.3-1,0.4-1.5  c0.4-1.5,0.9-3.3,1.5-5.5c0.2-0.9,0.5-1.8,0.8-2.8c0.4-1.3,0.8-2.7,1.2-4.2c0.3-1.1,0.6-2.3,0.9-3.4l0,0c0.4-1.3,0.8-2.8,1.2-4.3  c0.2-0.8,0.4-1.5,0.6-2.3c0.6-2.5,1.3-5.2,2-8c0.3-1,0.5-1.9,0.8-2.9c0.9-3.4,1.7-7.1,2.7-10.8l0,0c0.4-1.7,0.8-3.4,1.2-5.2  c0.2-0.8,0.4-1.7,0.6-2.6c0.2-0.8,0.4-1.7,0.6-2.6c0.4-1.8,0.9-3.6,1.3-5.5l0,0c0.6-2.3,1.1-4.6,1.6-7c0.5-2,0.9-4,1.3-6.1  c0.1-0.4,0.2-0.8,0.3-1.2c0.6-2.5,1.1-5,1.6-7.6c0.8-3.5,1.5-7.1,2.2-10.7c0.3-1.6,0.6-3.2,1-4.8c0.2-0.8,0.3-1.7,0.5-2.5  c0.3-1.8,0.7-3.5,1-5.3c0.5-2.7,1-5.4,1.4-8c0.4-2,0.7-4,1-5.9c0.6-3.3,1.1-6.5,1.5-9.7c0.4-2.6,0.8-5.3,1.2-7.9  c1-7.6,1.9-15.1,2.5-22.2v-0.1c0.1-1.6,0.3-3.2,0.4-4.8c0.2-2.2,0.3-4.4,0.4-6.5v-0.3c0.1-2.3,0.2-4.5,0.3-6.7c0-0.7,0-1.3,0.1-2  c0-0.8,0-1.6,0-2.5v-3.6l0,0c0,0.1,0,0.2,0.1,0.4c0,0.1,0,0.3,0.1,0.5l0,0l0,0c0,0.1,0,0.2,0,0.2c0.2,0.8,0.7,2.1,1.3,3.5l0,0  c0.1,0.3,0.3,0.6,0.5,1c0,0,0,0.1,0.1,0.1c0,0.1,0.1,0.2,0.2,0.4c0.4,0.7,0.8,1.4,1.3,2.2c0.6,0.9,1.2,1.8,1.9,2.8  c0.6,0.7,1.2,1.4,1.8,2.2c0.3,0.4,0.6,0.8,1,1.1c0.7,0.7,1.5,1.5,2.3,2.2s1.7,1.3,2.6,2c0.5,0.4,1.1,0.8,1.6,1.2  c3.6,2.4,8.1,4.6,13.6,6.3l0,0c2.2,0.7,4.5,1.3,7,1.8l55,18.4l2.7,0.9C388.1,316.6,360.2,417.1,364,433.4z"/>
<g>
	<path style="fill:#324A5E;" d="M331.5,313c0,0-48.8,137.2-68.3,159.2c-6.4,7.2-11.6,16.1-15.8,24.9c2.7-14,6.7-26.8,12.4-37.2   c0,0,35.5-121.1,35-190.6c0,0,3.4,18.5,28.6,26.3l-10.6,5.3L331.5,313z"/>
	<path style="fill:#324A5E;" d="M275.7,506.7c-3.5,0.3-7.1,0.6-10.7,0.7c1.5-1.4,3.5-2.2,5.8-2.2   C272.6,505.2,274.3,505.7,275.7,506.7z"/>
</g>
<g>
</g>
<g>
</g>
<g>
</g>
<g>
</g>
<g>
</g>
<g>
</g>
<g>
</g>
<g>
</g>
<g>
</g>
<g>
</g>
<g>
</g>
<g>
</g>
<g>
</g>
<g>
</g>
<g>
</g>
</svg>
