<?xml version="1.0" encoding="iso-8859-1"?>
<!-- Generator: Adobe Illustrator 19.0.0, SVG Export Plug-In . SVG Version: 6.00 Build 0)  -->
<svg xmlns="http://www.w3.org/2000/svg" xmlns:xlink="http://www.w3.org/1999/xlink" version="1.1" id="Layer_1" x="0px" y="0px" viewBox="0 0 507.6 507.6" style="enable-background:new 0 0 507.6 507.6;" xml:space="preserve">
<circle style="fill:#324A5E;" cx="253.8" cy="253.8" r="253.8"/>
<g>
	<rect x="193.4" y="184.4" style="fill:#FFFFFF;" width="11.7" height="175.9"/>
	<rect x="171.5" y="348" style="fill:#FFFFFF;" width="175.9" height="11.7"/>
</g>
<g>
	<path style="fill:#FFD05B;" d="M193,103.2l-12.3-9.4c-2.2-1.7-5-2.6-7.7-2.6h-45.3c-7.1,0-12.8,5.7-12.8,12.8v117.3   c0,7.1,5.7,12.8,12.8,12.8h151.8c7.1,0,12.8-5.7,12.8-12.8V118.6c0-7.1-5.7-12.8-12.8-12.8h-78.7   C197.9,105.8,195.2,104.9,193,103.2z"/>
	<path style="fill:#FFD05B;" d="M340,310l-8.5-6.5c-1.5-1.2-3.4-1.8-5.4-1.8h-31.3c-4.9,0-8.9,4-8.9,8.9v81c0,4.9,4,8.9,8.9,8.9h105   c4.9,0,8.9-4,8.9-8.9v-71c0-4.9-4-8.9-8.9-8.9h-54.4C343.5,311.8,341.6,311.2,340,310z"/>
	<path style="fill:#FFD05B;" d="M168.8,310l-8.5-6.5c-1.5-1.2-3.4-1.8-5.4-1.8h-31.3c-4.9,0-8.9,4-8.9,8.9v81c0,4.9,4,8.9,8.9,8.9   h104.9c4.9,0,8.9-4,8.9-8.9v-71c0-4.9-4-8.9-8.9-8.9h-54.4C172.3,311.8,170.4,311.2,168.8,310z"/>
</g>
<g>
</g>
<g>
</g>
<g>
</g>
<g>
</g>
<g>
</g>
<g>
</g>
<g>
</g>
<g>
</g>
<g>
</g>
<g>
</g>
<g>
</g>
<g>
</g>
<g>
</g>
<g>
</g>
<g>
</g>
</svg>
