<?xml version="1.0" encoding="iso-8859-1"?>
<!-- Generator: Adobe Illustrator 19.0.0, SVG Export Plug-In . SVG Version: 6.00 Build 0)  -->
<svg xmlns="http://www.w3.org/2000/svg" xmlns:xlink="http://www.w3.org/1999/xlink" version="1.1" id="Layer_1" x="0px" y="0px" viewBox="0 0 507.6 507.6" style="enable-background:new 0 0 507.6 507.6;" xml:space="preserve">
<circle style="fill:#90DFAA;" cx="253.8" cy="253.8" r="253.8"/>
<g>
	<rect x="127.9" y="396.5" style="fill:#FFFFFF;" width="254.3" height="13.5"/>
	<rect x="248.4" y="273.4" style="fill:#FFFFFF;" width="13.5" height="127.1"/>
</g>
<g>
	<path style="fill:#2B3B4E;" d="M280.6,419.3h-50.9c-0.8,0-1.5-0.7-1.5-1.5v-29.2c0-0.8,0.7-1.5,1.5-1.5h50.9c0.8,0,1.5,0.7,1.5,1.5   v29.2C282,418.7,281.4,419.3,280.6,419.3z"/>
	<rect x="134" y="139.8" style="fill:#2B3B4E;" width="239.7" height="169.2"/>
</g>
<g>
	<path style="fill:#324A5E;" d="M369.8,168.5h-232c-20.4,0-36.9-16.5-36.9-36.9l0,0c0-20.4,16.5-36.9,36.9-36.9h232   c20.4,0,36.9,16.5,36.9,36.9l0,0C406.7,152,390.2,168.5,369.8,168.5z"/>
	<path style="fill:#324A5E;" d="M369.8,259.8h-232c-20.4,0-36.9-16.5-36.9-36.9l0,0c0-20.4,16.5-36.9,36.9-36.9h232   c20.4,0,36.9,16.5,36.9,36.9l0,0C406.7,243.3,390.2,259.8,369.8,259.8z"/>
	<path style="fill:#324A5E;" d="M369.8,277.4h-232c-20.4,0-36.9,16.5-36.9,36.9l0,0c0,20.4,16.5,36.9,36.9,36.9h232   c20.4,0,36.9-16.5,36.9-36.9l0,0C406.7,293.9,390.2,277.4,369.8,277.4z"/>
</g>
<g>
	<rect x="356.6" y="291.1" style="fill:#2B3B4E;" width="11.3" height="46.4"/>
	<rect x="337.5" y="291.1" style="fill:#2B3B4E;" width="11.3" height="46.4"/>
	<rect x="318.4" y="291.1" style="fill:#2B3B4E;" width="11.3" height="46.4"/>
	<rect x="299.3" y="291.1" style="fill:#2B3B4E;" width="11.3" height="46.4"/>
	<rect x="356.6" y="199.8" style="fill:#2B3B4E;" width="11.3" height="46.4"/>
	<rect x="337.5" y="199.8" style="fill:#2B3B4E;" width="11.3" height="46.4"/>
	<rect x="318.4" y="199.8" style="fill:#2B3B4E;" width="11.3" height="46.4"/>
	<rect x="299.3" y="199.8" style="fill:#2B3B4E;" width="11.3" height="46.4"/>
	<rect x="356.6" y="108.4" style="fill:#2B3B4E;" width="11.3" height="46.4"/>
	<rect x="337.5" y="108.4" style="fill:#2B3B4E;" width="11.3" height="46.4"/>
	<rect x="318.4" y="108.4" style="fill:#2B3B4E;" width="11.3" height="46.4"/>
	<rect x="299.3" y="108.4" style="fill:#2B3B4E;" width="11.3" height="46.4"/>
</g>
<circle style="fill:#FF7058;" cx="150.5" cy="131.6" r="14.2"/>
<ellipse transform="matrix(-0.7074 -0.7069 0.7069 -0.7074 157.5535 315.8224)" style="fill:#FFFFFF;" cx="144.153" cy="125.297" rx="2.1" ry="4.7"/>
<circle style="fill:#FF7058;" cx="150.5" cy="223" r="14.2"/>
<ellipse transform="matrix(-0.7073 -0.7069 0.7069 -0.7073 92.903 471.7098)" style="fill:#FFFFFF;" cx="144.107" cy="216.622" rx="2.1" ry="4.7"/>
<circle style="fill:#FF7058;" cx="150.5" cy="314.3" r="14.2"/>
<ellipse transform="matrix(-0.7073 -0.7069 0.7069 -0.7073 28.2911 627.5973)" style="fill:#FFFFFF;" cx="144.073" cy="307.942" rx="2.1" ry="4.7"/>
<g>
</g>
<g>
</g>
<g>
</g>
<g>
</g>
<g>
</g>
<g>
</g>
<g>
</g>
<g>
</g>
<g>
</g>
<g>
</g>
<g>
</g>
<g>
</g>
<g>
</g>
<g>
</g>
<g>
</g>
</svg>
