<?xml version="1.0" encoding="iso-8859-1"?>
<!-- Generator: Adobe Illustrator 19.0.0, SVG Export Plug-In . SVG Version: 6.00 Build 0)  -->
<svg xmlns="http://www.w3.org/2000/svg" xmlns:xlink="http://www.w3.org/1999/xlink" version="1.1" id="Layer_1" x="0px" y="0px" viewBox="0 0 507.6 507.6" style="enable-background:new 0 0 507.6 507.6;" xml:space="preserve">
<circle style="fill:#54C0EB;" cx="253.8" cy="253.8" r="253.8"/>
<path style="fill:#2B3B4E;" d="M361.1,111.8H146.5c-2.9,0-5.2,2.3-5.2,5.2v255.4c0,2.9,2.3,5.2,5.2,5.2h214.6c2.9,0,5.2-2.3,5.2-5.2  V117C366.3,114.1,364,111.8,361.1,111.8z M355.9,261.2h-96.8v-139h96.8L355.9,261.2L355.9,261.2z M248.6,122.2v139h-96.8v-139  C151.8,122.2,248.6,122.2,248.6,122.2z M151.7,270.7h96.8v96.4h-96.8V270.7z M259,367.1v-96.4h96.8v96.4H259z"/>
<circle style="fill:#FFFFFF;" cx="361.1" cy="372.4" r="33.3"/>
<path style="fill:#FF7058;" d="M361.1,391.2c-10.4,0-18.8-8.4-18.8-18.8c0-10.4,8.4-18.8,18.8-18.8c10.4,0,18.8,8.4,18.8,18.8  C379.9,382.7,371.4,391.2,361.1,391.2z"/>
<circle style="fill:#FFFFFF;" cx="253.8" cy="372.4" r="33.3"/>
<path style="fill:#FF7058;" d="M253.8,391.2c-10.4,0-18.8-8.4-18.8-18.8c0-10.4,8.4-18.8,18.8-18.8s18.8,8.4,18.8,18.8  C272.6,382.7,264.2,391.2,253.8,391.2z"/>
<circle style="fill:#FFFFFF;" cx="146.5" cy="372.4" r="33.3"/>
<path style="fill:#FF7058;" d="M146.5,391.2c-10.4,0-18.8-8.4-18.8-18.8c0-10.4,8.4-18.8,18.8-18.8c10.4,0,18.8,8.4,18.8,18.8  C165.3,382.7,156.9,391.2,146.5,391.2z"/>
<circle style="fill:#FFFFFF;" cx="361.1" cy="265.9" r="33.3"/>
<path style="fill:#FF7058;" d="M361.1,284.8c-10.4,0-18.8-8.4-18.8-18.8c0-10.4,8.4-18.8,18.8-18.8c10.4,0,18.8,8.4,18.8,18.8  C379.9,276.3,371.4,284.8,361.1,284.8z"/>
<circle style="fill:#FFFFFF;" cx="253.8" cy="265.9" r="33.3"/>
<path style="fill:#FF7058;" d="M253.8,284.8c-10.4,0-18.8-8.4-18.8-18.8c0-10.4,8.4-18.8,18.8-18.8s18.8,8.4,18.8,18.8  C272.6,276.3,264.2,284.8,253.8,284.8z"/>
<circle style="fill:#FFFFFF;" cx="253.8" cy="117" r="52.4"/>
<path style="fill:#FFD05B;" d="M253.8,154.8c-20.9,0-37.8-17-37.8-37.8c0-20.9,17-37.8,37.8-37.8c20.9,0,37.8,17,37.8,37.8  S274.7,154.8,253.8,154.8z"/>
<circle style="fill:#FFFFFF;" cx="146.5" cy="265.9" r="33.3"/>
<path style="fill:#FF7058;" d="M146.5,284.8c-10.4,0-18.8-8.4-18.8-18.8c0-10.4,8.4-18.8,18.8-18.8c10.4,0,18.8,8.4,18.8,18.8  C165.3,276.3,156.9,284.8,146.5,284.8z"/>
<g>
</g>
<g>
</g>
<g>
</g>
<g>
</g>
<g>
</g>
<g>
</g>
<g>
</g>
<g>
</g>
<g>
</g>
<g>
</g>
<g>
</g>
<g>
</g>
<g>
</g>
<g>
</g>
<g>
</g>
</svg>
