<?xml version="1.0" encoding="iso-8859-1"?>
<!-- Generator: Adobe Illustrator 19.0.0, SVG Export Plug-In . SVG Version: 6.00 Build 0)  -->
<svg xmlns="http://www.w3.org/2000/svg" xmlns:xlink="http://www.w3.org/1999/xlink" version="1.1" id="Layer_1" x="0px" y="0px" viewBox="0 0 507.6 507.6" style="enable-background:new 0 0 507.6 507.6;" xml:space="preserve">
<circle style="fill:#FD8469;" cx="253.8" cy="253.8" r="253.8"/>
<g>
	<rect x="349.9" y="212" style="fill:#324A5E;" width="9" height="87.2"/>
	<rect x="79.6" y="251.1" style="fill:#324A5E;" width="339.3" height="9"/>
</g>
<path style="fill:#2B3B4E;" d="M364.7,266.7H344c-0.4,0-0.7-0.3-0.7-0.7v-20.7c0-0.4,0.3-0.7,0.7-0.7h20.7c0.4,0,0.7,0.3,0.7,0.7  V266C365.5,266.3,365.2,266.7,364.7,266.7z"/>
<rect x="148.7" y="212" style="fill:#324A5E;" width="9" height="87.2"/>
<path style="fill:#2B3B4E;" d="M163.6,266.7h-20.7c-0.4,0-0.7-0.3-0.7-0.7v-20.7c0-0.4,0.3-0.7,0.7-0.7h20.7c0.4,0,0.7,0.3,0.7,0.7  V266C164.3,266.3,164,266.7,163.6,266.7z"/>
<rect x="292" y="319.7" style="fill:#E6E9EE;" width="124.8" height="37.2"/>
<g>
	<path style="fill:#FFFFFF;" d="M421.1,291.2H287.6c-4.2,0-7.5,3.4-7.5,7.5v20.8c0,4.2,3.4,7.5,7.5,7.5h133.5c4.2,0,7.5-3.4,7.5-7.5   v-20.7C428.7,294.6,425.3,291.2,421.1,291.2z"/>
	<path style="fill:#FFFFFF;" d="M421.1,344.4H287.6c-4.2,0-7.5,3.4-7.5,7.5v20.9c0,4.2,3.4,7.5,7.5,7.5h133.5c4.2,0,7.5-3.4,7.5-7.5   V352C428.7,347.8,425.3,344.4,421.1,344.4z"/>
</g>
<g>
	<circle style="fill:#84DBFF;" cx="295.4" cy="309.2" r="6.9"/>
	<circle style="fill:#84DBFF;" cx="295.4" cy="363.8" r="6.9"/>
</g>
<rect x="90.8" y="319.7" style="fill:#E6E9EE;" width="124.8" height="37.2"/>
<g>
	<path style="fill:#FFFFFF;" d="M220,291.2H86.5c-4.2,0-7.5,3.4-7.5,7.5v20.8c0,4.2,3.4,7.5,7.5,7.5H220c4.2,0,7.5-3.4,7.5-7.5   v-20.7C227.5,294.6,224.1,291.2,220,291.2z"/>
	<path style="fill:#FFFFFF;" d="M220,344.4H86.5c-4.2,0-7.5,3.4-7.5,7.5v20.9c0,4.2,3.4,7.5,7.5,7.5H220c4.2,0,7.5-3.4,7.5-7.5V352   C227.5,347.8,224.1,344.4,220,344.4z"/>
</g>
<g>
	<circle style="fill:#84DBFF;" cx="94.2" cy="309.2" r="6.9"/>
	<circle style="fill:#84DBFF;" cx="94.2" cy="363.8" r="6.9"/>
</g>
<rect x="292" y="155.7" style="fill:#E6E9EE;" width="124.8" height="37.2"/>
<g>
	<path style="fill:#FFFFFF;" d="M421.1,127.3H287.6c-4.2,0-7.5,3.4-7.5,7.5v20.8c0,4.2,3.4,7.5,7.5,7.5h133.5c4.2,0,7.5-3.4,7.5-7.5   v-20.8C428.7,130.7,425.3,127.3,421.1,127.3z"/>
	<path style="fill:#FFFFFF;" d="M421.1,180.5H287.6c-4.2,0-7.5,3.4-7.5,7.5v20.8c0,4.2,3.4,7.5,7.5,7.5h133.5c4.2,0,7.5-3.4,7.5-7.5   V188C428.7,183.8,425.3,180.5,421.1,180.5z"/>
</g>
<g>
	<circle style="fill:#84DBFF;" cx="295.4" cy="145.2" r="6.9"/>
	<circle style="fill:#84DBFF;" cx="295.4" cy="199.9" r="6.9"/>
</g>
<rect x="90.8" y="155.7" style="fill:#E6E9EE;" width="124.8" height="37.2"/>
<g>
	<path style="fill:#FFFFFF;" d="M220,127.3H86.5c-4.2,0-7.5,3.4-7.5,7.5v20.8c0,4.2,3.4,7.5,7.5,7.5H220c4.2,0,7.5-3.4,7.5-7.5   v-20.8C227.5,130.7,224.1,127.3,220,127.3z"/>
	<path style="fill:#FFFFFF;" d="M220,180.5H86.5c-4.2,0-7.5,3.4-7.5,7.5v20.8c0,4.2,3.4,7.5,7.5,7.5H220c4.2,0,7.5-3.4,7.5-7.5V188   C227.5,183.8,224.1,180.5,220,180.5z"/>
</g>
<g>
	<circle style="fill:#84DBFF;" cx="94.2" cy="145.2" r="6.9"/>
	<circle style="fill:#84DBFF;" cx="94.2" cy="199.9" r="6.9"/>
</g>
<g>
</g>
<g>
</g>
<g>
</g>
<g>
</g>
<g>
</g>
<g>
</g>
<g>
</g>
<g>
</g>
<g>
</g>
<g>
</g>
<g>
</g>
<g>
</g>
<g>
</g>
<g>
</g>
<g>
</g>
</svg>
