<?xml version="1.0" encoding="iso-8859-1"?>
<!-- Generator: Adobe Illustrator 19.0.0, SVG Export Plug-In . SVG Version: 6.00 Build 0)  -->
<svg xmlns="http://www.w3.org/2000/svg" xmlns:xlink="http://www.w3.org/1999/xlink" version="1.1" id="Layer_1" x="0px" y="0px" viewBox="0 0 508 508" style="enable-background:new 0 0 508 508;" xml:space="preserve">
<circle style="fill:#FD8469;" cx="254" cy="254" r="254"/>
<rect x="145.8" y="196.2" style="fill:#324A5E;" width="35.8" height="201.1"/>
<rect x="145.8" y="319.3" style="fill:#2B3B4E;" width="35.8" height="78"/>
<rect x="196.2" y="168.3" style="fill:#4CDBC4;" width="35.8" height="229"/>
<rect x="196.2" y="328.9" style="fill:#2C9984;" width="35.8" height="68.4"/>
<rect x="246.6" y="129.6" style="fill:#FFFFFF;" width="35.8" height="267.7"/>
<rect x="246.6" y="198.1" style="fill:#E6E9EE;" width="35.8" height="199.2"/>
<rect x="297" y="164.3" style="fill:#84DBFF;" width="35.8" height="233"/>
<rect x="297" y="286.6" style="fill:#54C0EB;" width="35.8" height="110.7"/>
<rect x="347.4" y="196.2" style="fill:#FFD05B;" width="35.8" height="201.1"/>
<rect x="347.4" y="270.2" style="fill:#F9B54C;" width="35.8" height="127.1"/>
<path style="fill:#FFFFFF;" d="M398.8,403.7H109.2c-4.6,0-8.4-3.8-8.4-8.4V105.6c0-4.6,3.8-8.4,8.4-8.4s8.4,3.8,8.4,8.4v281.3h281.3  c4.6,0,8.4,3.8,8.4,8.4C407.2,399.9,403.5,403.7,398.8,403.7z"/>
<g>
</g>
<g>
</g>
<g>
</g>
<g>
</g>
<g>
</g>
<g>
</g>
<g>
</g>
<g>
</g>
<g>
</g>
<g>
</g>
<g>
</g>
<g>
</g>
<g>
</g>
<g>
</g>
<g>
</g>
</svg>
