<?xml version="1.0" encoding="iso-8859-1"?>
<!-- Generator: Adobe Illustrator 19.0.0, SVG Export Plug-In . SVG Version: 6.00 Build 0)  -->
<svg xmlns="http://www.w3.org/2000/svg" xmlns:xlink="http://www.w3.org/1999/xlink" version="1.1" id="Layer_1" x="0px" y="0px" viewBox="0 0 508 508" style="enable-background:new 0 0 508 508;" xml:space="preserve">
<circle style="fill:#FFD05B;" cx="254" cy="254" r="254"/>
<rect x="112.9" y="308.3" style="fill:#54C0EB;" width="182.9" height="42.3"/>
<rect x="112.9" y="308.3" style="fill:#84DBFF;" width="105.6" height="42.3"/>
<rect x="112.9" y="232.9" style="fill:#324A5E;" width="237.4" height="42.3"/>
<rect x="112.9" y="232.9" style="fill:#2B3B4E;" width="205.6" height="42.3"/>
<rect x="112.9" y="157.4" style="fill:#FF7058;" width="285.1" height="42.3"/>
<rect x="112.9" y="157.4" style="fill:#F1543F;" width="160.1" height="42.3"/>
<path style="fill:#FFFFFF;" d="M398.8,403.7H109.2c-4.6,0-8.4-3.8-8.4-8.4V105.6c0-4.6,3.8-8.4,8.4-8.4s8.4,3.8,8.4,8.4v281.3h281.3  c4.6,0,8.4,3.8,8.4,8.4C407.2,399.9,403.5,403.7,398.8,403.7z"/>
<g>
</g>
<g>
</g>
<g>
</g>
<g>
</g>
<g>
</g>
<g>
</g>
<g>
</g>
<g>
</g>
<g>
</g>
<g>
</g>
<g>
</g>
<g>
</g>
<g>
</g>
<g>
</g>
<g>
</g>
</svg>
