<?xml version="1.0" encoding="iso-8859-1"?>
<!-- Generator: Adobe Illustrator 19.0.0, SVG Export Plug-In . SVG Version: 6.00 Build 0)  -->
<svg xmlns="http://www.w3.org/2000/svg" xmlns:xlink="http://www.w3.org/1999/xlink" version="1.1" id="Layer_1" x="0px" y="0px" viewBox="0 0 508 508" style="enable-background:new 0 0 508 508;" xml:space="preserve">
<circle style="fill:#84DBFF;" cx="254" cy="254" r="254"/>
<circle style="fill:#E6E9EE;" cx="295.2" cy="140" r="67.5"/>
<path style="fill:#FFFFFF;" d="M447,286.9c0,42-34.1,76.2-76.2,76.2H137.2C95.1,363.1,61,329,61,286.9c0-26.9,14-50.6,35-64.1  c-2.5-9.1-3.9-18.7-3.9-28.6c0-59.4,48.1-107.5,107.5-107.5c40.9,0,76.4,22.8,94.6,56.4c12.1-9.3,27.3-14.9,43.8-14.9  c39.7,0,71.9,32.2,71.9,71.8c0,6.9-1,13.6-2.8,19.9C430.8,232.8,447,258,447,286.9z"/>
<path style="fill:#324A5E;" d="M328.1,340.6c8-20,8.9-41.3,3.7-60.9l-75.4,26.9L328.1,340.6z"/>
<path style="fill:#4CDBC4;" d="M147.9,268.5c-8.6,21.5-9,44.4-2.5,65.1l79.8-28.5L147.9,268.5z"/>
<path style="fill:#FF7058;" d="M149.6,344.7c9.2,20.1,25.2,37.3,46.8,47.5l0,0c46.6,22.1,102,3.8,126.5-40.8l-82.5-39.1L149.6,344.7  z"/>
<path style="fill:#FFD05B;" d="M276.9,215.6c-46.1-20.2-99.8-1.8-123.9,42l84.9,40.2L276.9,215.6z"/>
<path style="fill:#CED5E0;" d="M252.3,295.4l75.7-27c-7.7-19.3-21.6-36.1-40.5-47.3L252.3,295.4z"/>
<g>
</g>
<g>
</g>
<g>
</g>
<g>
</g>
<g>
</g>
<g>
</g>
<g>
</g>
<g>
</g>
<g>
</g>
<g>
</g>
<g>
</g>
<g>
</g>
<g>
</g>
<g>
</g>
<g>
</g>
</svg>
