<?xml version="1.0" encoding="iso-8859-1"?>
<!-- Generator: Adobe Illustrator 19.0.0, SVG Export Plug-In . SVG Version: 6.00 Build 0)  -->
<svg xmlns="http://www.w3.org/2000/svg" xmlns:xlink="http://www.w3.org/1999/xlink" version="1.1" id="Layer_1" x="0px" y="0px" viewBox="0 0 508 508" style="enable-background:new 0 0 508 508;" xml:space="preserve">
<circle style="fill:#324A5E;" cx="254" cy="254" r="254"/>
<g>
	<rect x="112.1" y="140.3" style="fill:#E6E9EE;" width="289.4" height="8.2"/>
	<rect x="112.1" y="181.3" style="fill:#E6E9EE;" width="289.4" height="8.2"/>
	<rect x="112.1" y="222.3" style="fill:#E6E9EE;" width="289.4" height="8.2"/>
	<rect x="112.1" y="263.3" style="fill:#E6E9EE;" width="289.4" height="8.2"/>
	<rect x="112.1" y="304.3" style="fill:#E6E9EE;" width="289.4" height="8.2"/>
	<rect x="112.1" y="345.3" style="fill:#E6E9EE;" width="289.4" height="8.2"/>
</g>
<path style="fill:#84DBFF;" d="M107.2,345.1c-1.3,0-2.7-0.5-3.8-1.4c-2.5-2.1-2.9-5.9-0.7-8.4l51.5-61.5c1.5-1.8,3.8-2.5,6-1.9  l37.7,9.6l41.5-77.5c1-1.9,3.1-3.1,5.2-3.1H277l89.8-99.7c2.2-2.4,6-2.6,8.4-0.4s2.6,6,0.4,8.4L284,210.8c-1.1,1.3-2.7,2-4.4,2  h-31.5l-42,78.4c-1.3,2.4-4.1,3.6-6.7,3l-38.6-9.8l-49,58.6C110.6,344.4,108.9,345.1,107.2,345.1z"/>
<path style="fill:#FF7058;" d="M112.1,400.5c-1.3,0-2.6-0.4-3.7-1.3c-2.6-2.1-3-5.8-0.9-8.4l58.1-72.3c1.6-1.9,4.2-2.7,6.5-1.9  l51.4,17.3l43.6-100.6c0.9-2.1,2.9-3.4,5.1-3.6c2.3-0.1,4.4,1,5.5,2.9l25.8,43.4l84.1-68.6c2.5-2.1,6.3-1.7,8.4,0.8s1.7,6.3-0.8,8.4  l-89.5,73c-1.3,1.1-3.1,1.5-4.8,1.3c-1.7-0.3-3.2-1.3-4.1-2.8l-23.4-39.4l-41.2,94.9c-1.2,2.8-4.4,4.3-7.4,3.3l-52.6-17.7  l-55.5,69.1C115.5,399.8,113.8,400.5,112.1,400.5z"/>
<path style="fill:#FFFFFF;" d="M398.8,403.7H109.2c-4.6,0-8.4-3.8-8.4-8.4V105.6c0-4.6,3.8-8.4,8.4-8.4s8.4,3.8,8.4,8.4v281.3h281.3  c4.6,0,8.4,3.8,8.4,8.4C407.2,399.9,403.5,403.7,398.8,403.7z"/>
<g>
</g>
<g>
</g>
<g>
</g>
<g>
</g>
<g>
</g>
<g>
</g>
<g>
</g>
<g>
</g>
<g>
</g>
<g>
</g>
<g>
</g>
<g>
</g>
<g>
</g>
<g>
</g>
<g>
</g>
</svg>
