<?xml version="1.0" encoding="iso-8859-1"?>
<!-- Generator: Adobe Illustrator 19.0.0, SVG Export Plug-In . SVG Version: 6.00 Build 0)  -->
<svg xmlns="http://www.w3.org/2000/svg" xmlns:xlink="http://www.w3.org/1999/xlink" version="1.1" id="Layer_1" x="0px" y="0px" viewBox="0 0 508 508" style="enable-background:new 0 0 508 508;" xml:space="preserve">
<circle style="fill:#90DFAA;" cx="254" cy="254" r="254"/>
<path style="fill:#324A5E;" d="M352.4,72.3H155.6c-10,0-18.2,8.1-18.2,18.2v327.1c0,10,8.1,18.2,18.2,18.2h196.8  c10,0,18.2-8.1,18.2-18.2V90.5C370.6,80.4,362.4,72.3,352.4,72.3z"/>
<rect x="146.8" y="112.6" style="fill:#FFFFFF;" width="214.4" height="269.6"/>
<g>
	<path style="fill:#2B3B4E;" d="M288.4,94.9h-55.5c-1.8,0-3.3-1.5-3.3-3.3l0,0c0-1.8,1.5-3.3,3.3-3.3h55.5c1.8,0,3.3,1.5,3.3,3.3   l0,0C291.7,93.4,290.2,94.9,288.4,94.9z"/>
	<path style="fill:#2B3B4E;" d="M222.3,94.9h-2.7c-1.8,0-3.3-1.5-3.3-3.3l0,0c0-1.8,1.5-3.3,3.3-3.3h2.7c1.8,0,3.3,1.5,3.3,3.3l0,0   C225.6,93.4,224.1,94.9,222.3,94.9z"/>
	<path style="fill:#2B3B4E;" d="M272,418.7h-36c-5.6,0-10.1-4.5-10.1-10.1l0,0c0-5.6,4.5-10.1,10.1-10.1h36   c5.6,0,10.1,4.5,10.1,10.1l0,0C282.2,414.1,277.6,418.7,272,418.7z"/>
</g>
<path style="fill:#FF7058;" d="M302.7,304.9h-15.1v-74c0-18.5-15.1-33.6-33.6-33.6s-33.6,15.1-33.6,33.6v74h-15.1v-74  c0-26.9,21.9-48.7,48.7-48.7c26.9,0,48.7,21.9,48.7,48.7L302.7,304.9L302.7,304.9z"/>
<path style="fill:#FFD05B;" d="M318.9,361.9H189.1c-1.5,0-2.7-1.2-2.7-2.7v-93.9c0-1.5,1.2-2.7,2.7-2.7h129.7c1.5,0,2.7,1.2,2.7,2.7  v93.9C321.5,360.7,320.3,361.9,318.9,361.9z"/>
<path style="fill:#F9B54C;" d="M321.5,283.1h-8.4c-3.4,0-6.2,2.8-6.2,6.2v45.9c0,3.4,2.8,6.2,6.2,6.2h8.4V283.1z"/>
<g>
	<path style="fill:#324A5E;" d="M325,302.2h-12c-0.4,0-0.7-0.3-0.7-0.7v-12.1c0-0.4,0.3-0.7,0.7-0.7h12c0.4,0,0.7,0.3,0.7,0.7v12.1   C325.7,301.8,325.4,302.2,325,302.2z"/>
	<path style="fill:#324A5E;" d="M325,319h-12c-0.4,0-0.7-0.3-0.7-0.7v-12.1c0-0.4,0.3-0.7,0.7-0.7h12c0.4,0,0.7,0.3,0.7,0.7v12.1   C325.7,318.7,325.4,319,325,319z"/>
	<path style="fill:#324A5E;" d="M325,335.8h-12c-0.4,0-0.7-0.3-0.7-0.7V323c0-0.4,0.3-0.7,0.7-0.7h12c0.4,0,0.7,0.3,0.7,0.7v12.1   C325.7,335.5,325.4,335.8,325,335.8z"/>
</g>
<g>
</g>
<g>
</g>
<g>
</g>
<g>
</g>
<g>
</g>
<g>
</g>
<g>
</g>
<g>
</g>
<g>
</g>
<g>
</g>
<g>
</g>
<g>
</g>
<g>
</g>
<g>
</g>
<g>
</g>
</svg>
