<?xml version="1.0" encoding="iso-8859-1"?>
<!-- Generator: Adobe Illustrator 19.0.0, SVG Export Plug-In . SVG Version: 6.00 Build 0)  -->
<svg xmlns="http://www.w3.org/2000/svg" xmlns:xlink="http://www.w3.org/1999/xlink" version="1.1" id="Layer_1" x="0px" y="0px" viewBox="0 0 508 508" style="enable-background:new 0 0 508 508;" xml:space="preserve">
<circle style="fill:#324A5E;" cx="254" cy="254" r="254"/>
<path style="fill:#84DBFF;" d="M380.3,173h24.8c0.7,0,1.3-0.6,1.3-1.3v-47.9c0-0.7-0.6-1.3-1.3-1.3h-24.8c-0.7,0-1.3,0.6-1.3,1.3  v47.9C379,172.4,379.6,173,380.3,173z"/>
<path style="fill:#FF7058;" d="M380.3,233.4h24.8c0.7,0,1.3-0.6,1.3-1.3v-47.9c0-0.7-0.6-1.3-1.3-1.3h-24.8c-0.7,0-1.3,0.6-1.3,1.3  v47.9C379,232.9,379.6,233.4,380.3,233.4z"/>
<path style="fill:#FFD05B;" d="M380.3,293.9h24.8c0.7,0,1.3-0.6,1.3-1.3v-47.9c0-0.7-0.6-1.3-1.3-1.3h-24.8c-0.7,0-1.3,0.6-1.3,1.3  v47.9C379,293.3,379.6,293.9,380.3,293.9z"/>
<path style="fill:#FFFFFF;" d="M379,86.1H129c-6,0-10.9,4.9-10.9,10.9v313.9c0,6,4.9,10.9,10.9,10.9h250c6,0,10.9-4.9,10.9-10.9  V97.1C389.9,91,385,86.1,379,86.1z"/>
<path style="fill:#4CDBC4;" d="M129,86.1c-6,0-10.9,4.9-10.9,10.9v313.9c0,6,4.9,10.9,10.9,10.9h32.2V86.1H129z"/>
<g>
	<ellipse style="fill:#E6E9EE;" cx="274.1" cy="175.5" rx="26.9" ry="27.8"/>
	<path style="fill:#E6E9EE;" d="M341.2,260.6v14H207.1v-14c0-31.8,22.1-46.8,51.8-50.3l15.2,20.5l15.2-20.5   c12.4,1.5,23.5,5,32.2,10.9C333.6,229.3,341.2,242.1,341.2,260.6z"/>
	<rect x="187.9" y="313.6" style="fill:#E6E9EE;" width="172.4" height="12.5"/>
	<rect x="187.9" y="340.7" style="fill:#E6E9EE;" width="172.4" height="12.5"/>
	<rect x="187.9" y="367.8" style="fill:#E6E9EE;" width="79.5" height="12.5"/>
</g>
<g>
</g>
<g>
</g>
<g>
</g>
<g>
</g>
<g>
</g>
<g>
</g>
<g>
</g>
<g>
</g>
<g>
</g>
<g>
</g>
<g>
</g>
<g>
</g>
<g>
</g>
<g>
</g>
<g>
</g>
</svg>
