<?xml version="1.0" encoding="iso-8859-1"?>
<!-- Generator: Adobe Illustrator 19.0.0, SVG Export Plug-In . SVG Version: 6.00 Build 0)  -->
<svg xmlns="http://www.w3.org/2000/svg" xmlns:xlink="http://www.w3.org/1999/xlink" version="1.1" id="Layer_1" x="0px" y="0px" viewBox="0 0 508 508" style="enable-background:new 0 0 508 508;" xml:space="preserve">
<circle style="fill:#90DFAA;" cx="254" cy="254" r="254"/>
<g>
	<rect x="168.8" y="396.3" style="fill:#324A5E;" width="170.3" height="13.1"/>
	<path style="fill:#324A5E;" d="M260.5,395.5v-54.9c0-3.6-2.9-6.5-6.5-6.5l0,0c-3.6,0-6.5,2.9-6.5,6.5v54.9c0,3.6,2.9,6.5,6.5,6.5   l0,0C257.6,402,260.5,399.1,260.5,395.5z"/>
</g>
<circle style="fill:#FFFFFF;" cx="254" cy="402.8" r="17.5"/>
<path style="fill:#324A5E;" d="M408.1,310.4H99.9c-1.3,0-2.3-1-2.3-2.3V105.8c0-1.3,1-2.3,2.3-2.3h308.3c1.3,0,2.3,1,2.3,2.3v202.4  C410.4,309.4,409.4,310.4,408.1,310.4z"/>
<rect x="112.8" y="123.1" style="fill:#FFFFFF;" width="282.3" height="167.7"/>
<g>
	<polygon style="fill:#E6E9EE;" points="345.7,123.1 198.6,290.8 395.2,290.8 395.2,123.1  "/>
	<path style="fill:#E6E9EE;" d="M397.8,347.4H110.2c-15.2,0-27.6-12.4-27.6-27.6l0,0h342.8l0,0C425.4,335.1,413,347.4,397.8,347.4z"/>
</g>
<polygon style="fill:#CED5E0;" points="290.1,319.8 217.9,319.8 226.5,328.4 281.5,328.4 "/>
<g>
</g>
<g>
</g>
<g>
</g>
<g>
</g>
<g>
</g>
<g>
</g>
<g>
</g>
<g>
</g>
<g>
</g>
<g>
</g>
<g>
</g>
<g>
</g>
<g>
</g>
<g>
</g>
<g>
</g>
</svg>
