<?xml version="1.0" encoding="iso-8859-1"?>
<!-- Generator: Adobe Illustrator 19.0.0, SVG Export Plug-In . SVG Version: 6.00 Build 0)  -->
<svg xmlns="http://www.w3.org/2000/svg" xmlns:xlink="http://www.w3.org/1999/xlink" version="1.1" id="Layer_1" x="0px" y="0px" viewBox="0 0 508 508" style="enable-background:new 0 0 508 508;" xml:space="preserve">
<circle style="fill:#54C0EB;" cx="254" cy="254" r="254"/>
<g>
	<path style="fill:#324A5E;" d="M342.5,413.5h-177c-5.1,0-9.3-4.2-9.3-9.3l0,0c0-5.1,4.2-9.3,9.3-9.3h177.1c5.1,0,9.3,4.2,9.3,9.3   l0,0C351.8,409.3,347.7,413.5,342.5,413.5z"/>
	<path style="fill:#324A5E;" d="M263.3,393.7v-78.1c0-5.1-4.2-9.3-9.3-9.3l0,0c-5.1,0-9.3,4.2-9.3,9.3v78.1c0,5.1,4.2,9.3,9.3,9.3   l0,0C259.1,403,263.3,398.9,263.3,393.7z"/>
</g>
<g>
	<circle style="fill:#FFFFFF;" cx="254" cy="404.2" r="25"/>
	<path style="fill:#FFFFFF;" d="M362.2,309.7V176c-11.2-7.6-22.6-15-32.6-24.2c-16.9-15.4-32.6-32.6-48.8-48.7   c-2.2-2.2-3.4-4.6-3.7-7H229c-0.1,3.8-2.1,7.5-6.6,9.8c-15.3,7.8-24.8,23-39,32.4c-0.2,5.8-2.6,11.9-8.2,18.6   c-6.9,8.2-17.7,17.4-29.4,22.2v130.7c0,7.9,6.4,14.3,14.3,14.3H348C355.8,324,362.2,317.6,362.2,309.7z"/>
</g>
<path style="fill:#324A5E;" d="M383.1,215.2L383.1,215.2c-6.3,6.3-16.5,6.3-22.9,0L254,108.9L147.7,215.2c-6.3,6.3-16.5,6.3-22.9,0  l0,0c-6.3-6.3-6.3-16.5,0-22.9l116-116c7.2-7.2,19-7.2,26.2,0l116,116C389.4,198.6,389.4,208.8,383.1,215.2z"/>
<rect x="222.4" y="243.3" style="fill:#FF7058;" width="63.1" height="80.7"/>
<g>
</g>
<g>
</g>
<g>
</g>
<g>
</g>
<g>
</g>
<g>
</g>
<g>
</g>
<g>
</g>
<g>
</g>
<g>
</g>
<g>
</g>
<g>
</g>
<g>
</g>
<g>
</g>
<g>
</g>
</svg>
