<?xml version="1.0" encoding="iso-8859-1"?>
<!-- Generator: Adobe Illustrator 19.0.0, SVG Export Plug-In . SVG Version: 6.00 Build 0)  -->
<svg xmlns="http://www.w3.org/2000/svg" xmlns:xlink="http://www.w3.org/1999/xlink" version="1.1" id="Layer_1" x="0px" y="0px" viewBox="0 0 508 508" style="enable-background:new 0 0 508 508;" xml:space="preserve">
<circle style="fill:#FFD05B;" cx="254" cy="254" r="254"/>
<path style="fill:#F9B54C;" d="M61.4,419.5C108,473.7,177,508,254,508s146-34.3,192.6-88.5H61.4z"/>
<g>
	<path style="fill:#FF7058;" d="M394.4,190.5h-60.8c-0.5,0-0.8-0.4-0.8-0.8V161c0-0.5,0.4-0.8,0.8-0.8h60.8c0.5,0,0.8,0.4,0.8,0.8   v28.7C395.3,190.1,394.9,190.5,394.4,190.5z"/>
	<path style="fill:#FF7058;" d="M394.4,228.7h-60.8c-0.5,0-0.8-0.4-0.8-0.8v-28.7c0-0.5,0.4-0.8,0.8-0.8h60.8c0.5,0,0.8,0.4,0.8,0.8   v28.7C395.3,228.3,394.9,228.7,394.4,228.7z"/>
	<path style="fill:#FF7058;" d="M394.4,266.8h-60.8c-0.5,0-0.8-0.4-0.8-0.8v-28.7c0-0.5,0.4-0.8,0.8-0.8h60.8c0.5,0,0.8,0.4,0.8,0.8   V266C395.3,266.5,394.9,266.8,394.4,266.8z"/>
	<path style="fill:#FF7058;" d="M394.4,152.3h-60.8c-0.5,0-0.8-0.4-0.8-0.8v-28.7c0-0.5,0.4-0.8,0.8-0.8h60.8c0.5,0,0.8,0.4,0.8,0.8   v28.7C395.3,151.9,394.9,152.3,394.4,152.3z"/>
	<path style="fill:#FF7058;" d="M394.4,305h-60.8c-0.5,0-0.8-0.4-0.8-0.8v-28.7c0-0.5,0.4-0.8,0.8-0.8h60.8c0.5,0,0.8,0.4,0.8,0.8   v28.7C395.3,304.6,394.9,305,394.4,305z"/>
	<path style="fill:#FF7058;" d="M394.4,343.2h-60.8c-0.5,0-0.8-0.4-0.8-0.8v-28.7c0-0.5,0.4-0.8,0.8-0.8h60.8c0.5,0,0.8,0.4,0.8,0.8   v28.7C395.3,342.8,394.9,343.2,394.4,343.2z"/>
	<path style="fill:#FF7058;" d="M394.4,381.4h-60.8c-0.5,0-0.8-0.4-0.8-0.8v-28.7c0-0.5,0.4-0.8,0.8-0.8h60.8c0.5,0,0.8,0.4,0.8,0.8   v28.7C395.3,381,394.9,381.4,394.4,381.4z"/>
	<path style="fill:#FF7058;" d="M394.4,419.5h-60.8c-0.5,0-0.8-0.4-0.8-0.8V390c0-0.5,0.4-0.8,0.8-0.8h60.8c0.5,0,0.8,0.4,0.8,0.8   v28.7C395.3,419.2,394.9,419.5,394.4,419.5z"/>
</g>
<g>
	<path style="fill:#FFFFFF;" d="M321.1,228.7h-60.8c-0.5,0-0.8-0.4-0.8-0.8v-28.7c0-0.5,0.4-0.8,0.8-0.8h60.8c0.5,0,0.8,0.4,0.8,0.8   v28.7C321.9,228.3,321.5,228.7,321.1,228.7z"/>
	<path style="fill:#FFFFFF;" d="M321.1,266.8h-60.8c-0.5,0-0.8-0.4-0.8-0.8v-28.7c0-0.5,0.4-0.8,0.8-0.8h60.8c0.5,0,0.8,0.4,0.8,0.8   V266C321.9,266.5,321.5,266.8,321.1,266.8z"/>
	<path style="fill:#FFFFFF;" d="M321.1,305h-60.8c-0.5,0-0.8-0.4-0.8-0.8v-28.7c0-0.5,0.4-0.8,0.8-0.8h60.8c0.5,0,0.8,0.4,0.8,0.8   v28.7C321.9,304.6,321.5,305,321.1,305z"/>
	<path style="fill:#FFFFFF;" d="M321.1,343.2h-60.8c-0.5,0-0.8-0.4-0.8-0.8v-28.7c0-0.5,0.4-0.8,0.8-0.8h60.8c0.5,0,0.8,0.4,0.8,0.8   v28.7C321.9,342.8,321.5,343.2,321.1,343.2z"/>
	<path style="fill:#FFFFFF;" d="M321.1,381.4h-60.8c-0.5,0-0.8-0.4-0.8-0.8v-28.7c0-0.5,0.4-0.8,0.8-0.8h60.8c0.5,0,0.8,0.4,0.8,0.8   v28.7C321.9,381,321.5,381.4,321.1,381.4z"/>
	<path style="fill:#FFFFFF;" d="M321.1,419.5h-60.8c-0.5,0-0.8-0.4-0.8-0.8V390c0-0.5,0.4-0.8,0.8-0.8h60.8c0.5,0,0.8,0.4,0.8,0.8   v28.7C321.9,419.2,321.5,419.5,321.1,419.5z"/>
</g>
<g>
	<path style="fill:#324A5E;" d="M247.7,190.5h-60.8c-0.5,0-0.8-0.4-0.8-0.8V161c0-0.5,0.4-0.8,0.8-0.8h60.8c0.5,0,0.8,0.4,0.8,0.8   v28.7C248.6,190.1,248.2,190.5,247.7,190.5z"/>
	<path style="fill:#324A5E;" d="M247.7,228.7h-60.8c-0.5,0-0.8-0.4-0.8-0.8v-28.7c0-0.5,0.4-0.8,0.8-0.8h60.8c0.5,0,0.8,0.4,0.8,0.8   v28.7C248.6,228.3,248.2,228.7,247.7,228.7z"/>
	<path style="fill:#324A5E;" d="M247.7,266.8h-60.8c-0.5,0-0.8-0.4-0.8-0.8v-28.7c0-0.5,0.4-0.8,0.8-0.8h60.8c0.5,0,0.8,0.4,0.8,0.8   V266C248.6,266.5,248.2,266.8,247.7,266.8z"/>
	<path style="fill:#324A5E;" d="M247.7,305h-60.8c-0.5,0-0.8-0.4-0.8-0.8v-28.7c0-0.5,0.4-0.8,0.8-0.8h60.8c0.5,0,0.8,0.4,0.8,0.8   v28.7C248.6,304.6,248.2,305,247.7,305z"/>
	<path style="fill:#324A5E;" d="M247.7,343.2h-60.8c-0.5,0-0.8-0.4-0.8-0.8v-28.7c0-0.5,0.4-0.8,0.8-0.8h60.8c0.5,0,0.8,0.4,0.8,0.8   v28.7C248.6,342.8,248.2,343.2,247.7,343.2z"/>
	<path style="fill:#324A5E;" d="M247.7,381.4h-60.8c-0.5,0-0.8-0.4-0.8-0.8v-28.7c0-0.5,0.4-0.8,0.8-0.8h60.8c0.5,0,0.8,0.4,0.8,0.8   v28.7C248.6,381,248.2,381.4,247.7,381.4z"/>
	<path style="fill:#324A5E;" d="M247.7,419.5h-60.8c-0.5,0-0.8-0.4-0.8-0.8V390c0-0.5,0.4-0.8,0.8-0.8h60.8c0.5,0,0.8,0.4,0.8,0.8   v28.7C248.6,419.2,248.2,419.5,247.7,419.5z"/>
</g>
<g>
	<path style="fill:#FFFFFF;" d="M174.4,266.8h-60.8c-0.5,0-0.8-0.4-0.8-0.8v-28.7c0-0.5,0.4-0.8,0.8-0.8h60.8c0.5,0,0.8,0.4,0.8,0.8   V266C175.2,266.5,174.8,266.8,174.4,266.8z"/>
	<path style="fill:#FFFFFF;" d="M174.4,305h-60.8c-0.5,0-0.8-0.4-0.8-0.8v-28.7c0-0.5,0.4-0.8,0.8-0.8h60.8c0.5,0,0.8,0.4,0.8,0.8   v28.7C175.2,304.6,174.8,305,174.4,305z"/>
	<path style="fill:#FFFFFF;" d="M174.4,343.2h-60.8c-0.5,0-0.8-0.4-0.8-0.8v-28.7c0-0.5,0.4-0.8,0.8-0.8h60.8c0.5,0,0.8,0.4,0.8,0.8   v28.7C175.2,342.8,174.8,343.2,174.4,343.2z"/>
	<path style="fill:#FFFFFF;" d="M174.4,381.4h-60.8c-0.5,0-0.8-0.4-0.8-0.8v-28.7c0-0.5,0.4-0.8,0.8-0.8h60.8c0.5,0,0.8,0.4,0.8,0.8   v28.7C175.2,381,174.8,381.4,174.4,381.4z"/>
	<path style="fill:#FFFFFF;" d="M174.4,419.5h-60.8c-0.5,0-0.8-0.4-0.8-0.8V390c0-0.5,0.4-0.8,0.8-0.8h60.8c0.5,0,0.8,0.4,0.8,0.8   v28.7C175.2,419.2,174.8,419.5,174.4,419.5z"/>
</g>
<g>
</g>
<g>
</g>
<g>
</g>
<g>
</g>
<g>
</g>
<g>
</g>
<g>
</g>
<g>
</g>
<g>
</g>
<g>
</g>
<g>
</g>
<g>
</g>
<g>
</g>
<g>
</g>
<g>
</g>
</svg>
