<?xml version="1.0" encoding="iso-8859-1"?>
<!-- Generator: Adobe Illustrator 19.0.0, SVG Export Plug-In . SVG Version: 6.00 Build 0)  -->
<svg xmlns="http://www.w3.org/2000/svg" xmlns:xlink="http://www.w3.org/1999/xlink" version="1.1" id="Layer_1" x="0px" y="0px" viewBox="0 0 508 508" style="enable-background:new 0 0 508 508;" xml:space="preserve">
<circle style="fill:#84DBFF;" cx="254" cy="254" r="254"/>
<rect x="145.8" y="199.8" style="fill:#FFFFFF;" width="35.8" height="201.1"/>
<rect x="196.2" y="171.9" style="fill:#4CDBC4;" width="35.8" height="229"/>
<rect x="246.6" y="133.2" style="fill:#FF7058;" width="35.8" height="267.7"/>
<rect x="297" y="167.9" style="fill:#54C0EB;" width="35.8" height="233"/>
<rect x="347.4" y="199.8" style="fill:#FFD05B;" width="35.8" height="201.1"/>
<path style="fill:#2B3B4E;" d="M109.2,367.2c-1.3,0-2.7-0.5-3.8-1.4c-2.5-2.1-2.9-5.9-0.7-8.4l51.5-61.5c1.5-1.8,3.8-2.5,6-1.9  l37.7,9.6l41.5-77.5c1-1.9,3-3.1,5.2-3.1H279l89.8-99.7c2.2-2.4,6-2.6,8.4-0.4s2.6,6,0.4,8.4L286,232.9c-1.1,1.3-2.7,2-4.4,2h-31.5  l-42,78.4c-1.3,2.4-4.1,3.6-6.7,3l-38.6-9.8l-49,58.5C112.6,366.4,110.9,367.2,109.2,367.2z"/>
<path style="fill:#324A5E;" d="M398.8,407.2H109.2c-4.6,0-8.4-3.8-8.4-8.4V109.2c0-4.6,3.8-8.4,8.4-8.4s8.4,3.8,8.4,8.4v281.3h281.3  c4.6,0,8.4,3.8,8.4,8.4S403.5,407.2,398.8,407.2z"/>
<g>
</g>
<g>
</g>
<g>
</g>
<g>
</g>
<g>
</g>
<g>
</g>
<g>
</g>
<g>
</g>
<g>
</g>
<g>
</g>
<g>
</g>
<g>
</g>
<g>
</g>
<g>
</g>
<g>
</g>
</svg>
