<?xml version="1.0" encoding="iso-8859-1"?>
<!-- Generator: Adobe Illustrator 19.0.0, SVG Export Plug-In . SVG Version: 6.00 Build 0)  -->
<svg xmlns="http://www.w3.org/2000/svg" xmlns:xlink="http://www.w3.org/1999/xlink" version="1.1" id="Layer_1" x="0px" y="0px" viewBox="0 0 508 508" style="enable-background:new 0 0 508 508;" xml:space="preserve">
<circle style="fill:#324A5E;" cx="254" cy="254" r="254"/>
<path style="fill:#84DBFF;" d="M378.5,418.3h-249c-1,0-1.8-0.8-1.8-1.8V91.4c0-1,0.8-1.8,1.8-1.8h249c1,0,1.8,0.8,1.8,1.8v325.2  C380.3,417.6,379.5,418.3,378.5,418.3z"/>
<polygon style="fill:#FFFFFF;" points="143.2,106.1 143.2,382.3 327.2,382.3 327.2,344.7 364.8,344.7 364.8,106.1 "/>
<polygon style="fill:#E6E9EE;" points="327.2,382.3 364.8,344.7 327.2,344.7 "/>
<path style="fill:#FFD05B;" d="M281.9,78l-4.7-10c-0.9-2.1-3-3.4-5.3-3.4H236c-2.3,0-4.3,1.3-5.3,3.4l-4.6,10  c-0.9,2.1-3,3.4-5.3,3.4H203c-3.2,0-5.8,2.6-5.8,5.8v22.4c0,3.2,2.6,5.8,5.8,5.8h102c3.2,0,5.8-2.6,5.8-5.8V87.2  c0-3.2-2.6-5.8-5.8-5.8h-17.8C284.9,81.4,282.8,80.1,281.9,78z"/>
<path style="fill:#FF7058;" d="M276.3,262.7c-1.7,0-3.3-0.9-4.1-2.5l-39.7-75.8l-11.3,28.8c-0.7,1.8-2.4,2.9-4.3,2.9h-32.4  c-2.5,0-4.6-2.1-4.6-4.6s2.1-4.6,4.6-4.6h29.3l13.8-35.3c0.7-1.7,2.2-2.8,4-2.9c1.9-0.1,3.5,0.9,4.3,2.5l40,76.4l14.9-32.8  c0.7-1.6,2.4-2.7,4.2-2.7h28.3c2.5,0,4.6,2.1,4.6,4.6s-2.1,4.6-4.6,4.6H298L280.5,260c-0.7,1.6-2.3,2.7-4.1,2.7  C276.4,262.7,276.4,262.7,276.3,262.7z"/>
<g>
	<rect x="275.6" y="135.5" style="fill:#E6E9EE;" width="66" height="9.6"/>
	<rect x="275.6" y="154.8" style="fill:#E6E9EE;" width="66" height="9.6"/>
	<rect x="163.1" y="290.8" style="fill:#E6E9EE;" width="131.4" height="9.6"/>
	<rect x="163.1" y="310" style="fill:#E6E9EE;" width="131.4" height="9.6"/>
	<rect x="163.1" y="329.2" style="fill:#E6E9EE;" width="131.4" height="9.6"/>
	<rect x="163.1" y="348.4" style="fill:#E6E9EE;" width="77" height="9.6"/>
</g>
<g>
</g>
<g>
</g>
<g>
</g>
<g>
</g>
<g>
</g>
<g>
</g>
<g>
</g>
<g>
</g>
<g>
</g>
<g>
</g>
<g>
</g>
<g>
</g>
<g>
</g>
<g>
</g>
<g>
</g>
</svg>
