<?xml version="1.0" encoding="iso-8859-1"?>
<!-- Generator: Adobe Illustrator 19.0.0, SVG Export Plug-In . SVG Version: 6.00 Build 0)  -->
<svg xmlns="http://www.w3.org/2000/svg" xmlns:xlink="http://www.w3.org/1999/xlink" version="1.1" id="Layer_1" x="0px" y="0px" viewBox="0 0 508 508" style="enable-background:new 0 0 508 508;" xml:space="preserve">
<circle style="fill:#90DFAA;" cx="254" cy="254" r="254"/>
<path style="fill:#FFFFFF;" d="M327.7,93.3H142.8c-7,0-12.8,5.7-12.8,12.8V402c0,7,5.7,12.8,12.8,12.8h222.5c7,0,12.8-5.7,12.8-12.8  V143.6h-50.3V93.3H327.7z"/>
<polygon style="fill:#E6E9EE;" points="327.7,93.3 327.7,143.6 378,143.6 "/>
<g>
	<rect x="155.7" y="176.9" style="fill:#84DBFF;" width="196.5" height="15.2"/>
	<rect x="155.7" y="210.9" style="fill:#84DBFF;" width="196.5" height="15.2"/>
	<rect x="155.7" y="244.9" style="fill:#84DBFF;" width="196.5" height="15.2"/>
	<rect x="155.7" y="278.9" style="fill:#84DBFF;" width="196.5" height="15.2"/>
	<rect x="155.7" y="312.9" style="fill:#84DBFF;" width="196.5" height="15.2"/>
	<rect x="155.7" y="346.9" style="fill:#84DBFF;" width="111.7" height="15.2"/>
</g>
<g>
</g>
<g>
</g>
<g>
</g>
<g>
</g>
<g>
</g>
<g>
</g>
<g>
</g>
<g>
</g>
<g>
</g>
<g>
</g>
<g>
</g>
<g>
</g>
<g>
</g>
<g>
</g>
<g>
</g>
</svg>
