<?xml version="1.0" encoding="iso-8859-1"?>
<!-- Generator: Adobe Illustrator 19.0.0, SVG Export Plug-In . SVG Version: 6.00 Build 0)  -->
<svg xmlns="http://www.w3.org/2000/svg" xmlns:xlink="http://www.w3.org/1999/xlink" version="1.1" id="Layer_1" x="0px" y="0px" viewBox="0 0 508 508" style="enable-background:new 0 0 508 508;" xml:space="preserve">
<circle style="fill:#FFD05B;" cx="254" cy="254" r="254"/>
<polygon style="fill:#324A5E;" points="269.3,362 195.7,215.1 99.3,324.2 87.5,313.7 199.4,187.2 271.4,330.9 375.3,178.4   388.3,187.3 "/>
<circle style="fill:#FFFFFF;" cx="381.8" cy="182.9" r="63.9"/>
<path style="fill:#FF7058;" d="M381.8,227c-24.4,0-44.2-19.8-44.2-44.2s19.8-44.2,44.2-44.2c24.4,0,44.2,19.8,44.2,44.2  S406.1,227,381.8,227z"/>
<circle style="fill:#FFFFFF;" cx="270.4" cy="346.4" r="54.8"/>
<path style="fill:#FF7058;" d="M270.4,381.5c-19.3,0-35-15.7-35-35s15.7-35,35-35s35,15.7,35,35S289.7,381.5,270.4,381.5z"/>
<circle style="fill:#FFFFFF;" cx="197.5" cy="201.1" r="45.6"/>
<path style="fill:#FF7058;" d="M197.5,227c-14.3,0-25.9-11.6-25.9-25.9c0-14.3,11.6-25.9,25.9-25.9c14.3,0,25.9,11.6,25.9,25.9  C223.5,215.4,211.8,227,197.5,227z"/>
<circle style="fill:#FFFFFF;" cx="93.4" cy="318.9" r="36.5"/>
<path style="fill:#FF7058;" d="M93.4,341c-12.2,0-22.1-9.9-22.1-22.1s9.9-22.1,22.1-22.1s22.1,9.9,22.1,22.1S105.6,341,93.4,341z"/>
<g>
</g>
<g>
</g>
<g>
</g>
<g>
</g>
<g>
</g>
<g>
</g>
<g>
</g>
<g>
</g>
<g>
</g>
<g>
</g>
<g>
</g>
<g>
</g>
<g>
</g>
<g>
</g>
<g>
</g>
</svg>
