<?xml version="1.0" encoding="iso-8859-1"?>
<!-- Generator: Adobe Illustrator 19.0.0, SVG Export Plug-In . SVG Version: 6.00 Build 0)  -->
<svg xmlns="http://www.w3.org/2000/svg" xmlns:xlink="http://www.w3.org/1999/xlink" version="1.1" id="Layer_1" x="0px" y="0px" viewBox="0 0 508 508" style="enable-background:new 0 0 508 508;" xml:space="preserve">
<circle style="fill:#FD8469;" cx="254" cy="254" r="254"/>
<polygon style="fill:#FFFFFF;" points="387.4,96.5 387.3,96.5 387.3,96.5 382.9,92.1 378.4,96.5 378.4,96.5 378.4,96.5 374,92.1   369.5,96.5 369.5,96.5 369.5,96.5 365.1,92.1 360.6,96.5 360.6,96.5 360.6,96.5 356.2,92.1 351.8,96.5 351.8,96.5 351.8,96.5   347.3,92.1 342.9,96.5 342.9,96.5 342.9,96.5 338.4,92.1 334,96.5 334,96.5 334,96.5 329.5,92.1 325.1,96.5 325.1,96.5 325.1,96.5   320.6,92.1 316.2,96.5 316.2,96.5 316.2,96.5 311.8,92.1 307.3,96.5 307.3,96.5 307.3,96.5 302.9,92.1 298.4,96.5 298.4,96.5   298.4,96.5 294,92.1 289.5,96.5 289.5,96.5 289.5,96.5 285.1,92.1 280.6,96.5 280.6,96.5 280.6,96.5 276.2,92.1 271.8,96.5   271.8,96.5 271.8,96.5 267.3,92.1 262.9,96.5 262.9,96.5 262.9,96.5 258.4,92.1 254,96.5 254,96.5 254,96.5 249.5,92.1 245.1,96.5   245.1,96.5 245.1,96.5 240.6,92.1 236.2,96.5 236.2,96.5 236.2,96.5 231.8,92.1 227.3,96.5 227.3,96.5 227.3,96.5 222.9,92.1   218.4,96.5 218.4,96.5 218.4,96.5 214,92.1 209.5,96.5 209.5,96.5 209.5,96.5 205.1,92.1 200.6,96.5 200.6,96.5 200.6,96.5   196.2,92.1 191.8,96.5 191.8,96.5 191.8,96.5 187.3,92.1 182.9,96.5 182.9,96.5 182.9,96.5 178.4,92.1 174,96.5 174,96.5 174,96.5   169.5,92.1 165.1,96.5 165.1,96.5 165.1,96.5 160.6,92.1 156.2,96.5 156.2,96.5 156.2,96.5 151.8,92.1 147.3,96.5 147.3,96.5   147.3,96.5 142.9,92.1 138.4,96.5 138.4,96.5 138.4,96.5 134,92.1 129.5,96.5 129.5,96.5 129.5,96.5 125.1,92.1 120.6,96.5   120.6,96.5 120.6,411.5 120.6,411.5 120.6,411.5 125.1,415.9 129.5,411.5 129.5,411.5 129.5,411.5 134,415.9 138.4,411.5   138.4,411.5 138.4,411.5 142.9,415.9 147.3,411.5 147.3,411.5 147.3,411.5 151.8,415.9 156.2,411.5 156.2,411.5 156.2,411.5   160.6,415.9 165.1,411.5 165.1,411.5 165.1,411.5 169.5,415.9 174,411.5 174,411.5 174,411.5 178.4,415.9 182.9,411.5 182.9,411.5   182.9,411.5 187.3,415.9 191.8,411.5 191.8,411.5 191.8,411.5 196.2,415.9 200.6,411.5 200.6,411.5 200.6,411.5 205.1,415.9   209.5,411.5 209.5,411.5 209.5,411.5 214,415.9 218.4,411.5 218.4,411.5 218.4,411.5 222.9,415.9 227.3,411.5 227.3,411.5   227.3,411.5 231.8,415.9 236.2,411.5 236.2,411.5 236.2,411.5 240.6,415.9 245.1,411.5 245.1,411.5 245.1,411.5 249.5,415.9   254,411.5 254,411.5 254,411.5 258.4,415.9 262.9,411.5 262.9,411.5 262.9,411.5 267.3,415.9 271.8,411.5 271.8,411.5 271.8,411.5   276.2,415.9 280.6,411.5 280.6,411.5 280.6,411.5 285.1,415.9 289.5,411.5 289.5,411.5 289.5,411.5 294,415.9 298.4,411.5   298.4,411.5 298.4,411.5 302.9,415.9 307.3,411.5 307.3,411.5 307.3,411.5 311.8,415.9 316.2,411.5 316.2,411.5 316.2,411.5   320.6,415.9 325.1,411.5 325.1,411.5 325.1,411.5 329.5,415.9 334,411.5 334,411.5 334,411.5 338.4,415.9 342.9,411.5 342.9,411.5   342.9,411.5 347.3,415.9 351.8,411.5 351.8,411.5 351.8,411.5 356.2,415.9 360.6,411.5 360.6,411.5 360.6,411.5 365.1,415.9   369.5,411.5 369.5,411.5 369.5,411.5 374,415.9 378.4,411.5 378.4,411.5 378.4,411.5 382.9,415.9 387.3,411.5 387.4,411.5 "/>
<g>
	<path style="fill:#324A5E;" d="M191.1,123.1h9.9v44.6h-9.9l-21.2-27.9v27.9H160v-44.6h9.3l21.9,28.7v-28.7H191.1z"/>
	<path style="fill:#324A5E;" d="M244.1,123.1v8.9H222v9.2h20v8.5h-20v9.2h22.9v8.8H212v-44.6H244.1z"/>
	<path style="fill:#324A5E;" d="M267.6,148.7l7.9-25.6h10.4l7.8,25.6l8.9-25.6h10.8l-15.6,44.6h-7.4l-9.8-31l-9.7,31h-7.4L248,123.1   h10.8L267.6,148.7z"/>
	<path style="fill:#324A5E;" d="M328.8,132c-1,0.8-1.4,1.8-1.4,3.1s0.6,2.3,1.8,3.1c1.2,0.8,3.9,1.7,8.1,2.7s7.5,2.6,9.9,4.7   c2.3,2.1,3.5,5.1,3.5,9.1s-1.5,7.2-4.5,9.7s-6.9,3.7-11.8,3.7c-7.1,0-13.4-2.6-19.1-7.8l5.9-7.3c4.8,4.2,9.2,6.3,13.3,6.3   c1.8,0,3.3-0.4,4.3-1.2s1.6-1.8,1.6-3.2c0-1.3-0.6-2.4-1.7-3.2s-3.3-1.6-6.6-2.4c-5.2-1.2-9-2.8-11.4-4.8s-3.6-5.1-3.6-9.3   s1.5-7.5,4.6-9.8c3-2.3,6.8-3.4,11.4-3.4c3,0,5.9,0.5,8.9,1.5s5.6,2.5,7.8,4.3l-5,7.3c-3.9-2.9-7.9-4.4-12-4.4   C331,130.8,329.7,131.2,328.8,132z"/>
</g>
<g>
	<rect x="145.4" y="181.5" style="fill:#4CDBC4;" width="217.2" height="3.2"/>
	<rect x="145.4" y="189.9" style="fill:#4CDBC4;" width="217.2" height="3.2"/>
</g>
<rect x="148.1" y="207.4" style="fill:#84DBFF;" width="96.3" height="76.2"/>
<g>
	<rect x="148.1" y="293.7" style="fill:#E6E9EE;" width="96.3" height="5.2"/>
	<rect x="148.1" y="310.4" style="fill:#E6E9EE;" width="96.3" height="5.2"/>
	<rect x="148.1" y="327.1" style="fill:#E6E9EE;" width="96.3" height="5.2"/>
	<rect x="148.1" y="343.8" style="fill:#E6E9EE;" width="96.3" height="5.2"/>
	<rect x="148.1" y="360.5" style="fill:#E6E9EE;" width="96.3" height="5.2"/>
	<rect x="148.1" y="377.2" style="fill:#E6E9EE;" width="96.3" height="5.2"/>
</g>
<rect x="263.6" y="306.2" style="fill:#84DBFF;" width="96.3" height="76.2"/>
<g>
	<rect x="263.6" y="290.9" style="fill:#E6E9EE;" width="96.3" height="5.2"/>
	<rect x="263.6" y="274.2" style="fill:#E6E9EE;" width="96.3" height="5.2"/>
	<rect x="263.6" y="257.5" style="fill:#E6E9EE;" width="96.3" height="5.2"/>
	<rect x="263.6" y="240.8" style="fill:#E6E9EE;" width="96.3" height="5.2"/>
	<rect x="263.6" y="224.1" style="fill:#E6E9EE;" width="96.3" height="5.2"/>
	<rect x="263.6" y="207.4" style="fill:#E6E9EE;" width="96.3" height="5.2"/>
</g>
<g>
</g>
<g>
</g>
<g>
</g>
<g>
</g>
<g>
</g>
<g>
</g>
<g>
</g>
<g>
</g>
<g>
</g>
<g>
</g>
<g>
</g>
<g>
</g>
<g>
</g>
<g>
</g>
<g>
</g>
</svg>
