<?xml version="1.0" encoding="iso-8859-1"?>
<!-- Generator: Adobe Illustrator 19.0.0, SVG Export Plug-In . SVG Version: 6.00 Build 0)  -->
<svg xmlns="http://www.w3.org/2000/svg" xmlns:xlink="http://www.w3.org/1999/xlink" version="1.1" id="Layer_1" x="0px" y="0px" viewBox="0 0 508 508" style="enable-background:new 0 0 508 508;" xml:space="preserve">
<circle style="fill:#FFD05B;" cx="254" cy="254" r="254"/>
<path style="fill:#324A5E;" d="M293.1,121.3h-171c-6.5,0-11.8,5.3-11.8,11.8v273.6c0,6.5,5.3,11.8,11.8,11.8h205.7  c6.5,0,11.8-5.3,11.8-11.8V167.8h-46.5L293.1,121.3L293.1,121.3z"/>
<g>
	<path style="fill:#E6E9EE;" d="M322.1,98h-171c-6.5,0-11.8,5.3-11.8,11.8v273.6c0,6.5,5.3,11.8,11.8,11.8h205.7   c6.5,0,11.8-5.3,11.8-11.8V144.6h-46.5L322.1,98L322.1,98z"/>
	<polygon style="fill:#E6E9EE;" points="322.1,98 322.1,144.6 368.6,144.6  "/>
</g>
<polygon style="fill:#CED5E0;" points="293.1,121.3 293.1,167.8 339.6,167.8 "/>
<path style="fill:#FFFFFF;" d="M351.1,74.8h-171c-6.5,0-11.8,5.3-11.8,11.8v273.6c0,6.5,5.3,11.8,11.8,11.8h205.7  c6.5,0,11.8-5.3,11.8-11.8V121.3h-46.5L351.1,74.8L351.1,74.8z"/>
<g>
	<polygon style="fill:#E6E9EE;" points="351.1,74.8 351.1,121.3 397.7,121.3  "/>
	<rect x="192.2" y="152.1" style="fill:#E6E9EE;" width="181.7" height="15.7"/>
	<rect x="192.2" y="187.2" style="fill:#E6E9EE;" width="181.7" height="15.7"/>
	<rect x="192.2" y="222.2" style="fill:#E6E9EE;" width="181.7" height="15.7"/>
	<rect x="192.2" y="257.3" style="fill:#E6E9EE;" width="181.7" height="15.7"/>
	<rect x="192.2" y="292.3" style="fill:#E6E9EE;" width="181.7" height="15.7"/>
	<rect x="192.2" y="327.4" style="fill:#E6E9EE;" width="103.2" height="15.7"/>
</g>
<g>
</g>
<g>
</g>
<g>
</g>
<g>
</g>
<g>
</g>
<g>
</g>
<g>
</g>
<g>
</g>
<g>
</g>
<g>
</g>
<g>
</g>
<g>
</g>
<g>
</g>
<g>
</g>
<g>
</g>
</svg>
