<?xml version="1.0" encoding="iso-8859-1"?>
<!-- Generator: Adobe Illustrator 19.0.0, SVG Export Plug-In . SVG Version: 6.00 Build 0)  -->
<svg xmlns="http://www.w3.org/2000/svg" xmlns:xlink="http://www.w3.org/1999/xlink" version="1.1" id="Layer_1" x="0px" y="0px" viewBox="0 0 508 508" style="enable-background:new 0 0 508 508;" xml:space="preserve">
<circle style="fill:#84DBFF;" cx="254" cy="254" r="254"/>
<path style="fill:#FFFFFF;" d="M333.6,80.4H133.9c-7.6,0-13.8,6.2-13.8,13.8v319.6c0,7.6,6.2,13.8,13.8,13.8h240.3  c7.6,0,13.8-6.2,13.8-13.8v-279h-54.3V80.4H333.6z"/>
<g>
	<polygon style="fill:#E6E9EE;" points="333.6,80.4 333.6,134.8 387.9,134.8  "/>
	<rect x="217" y="175.8" style="fill:#E6E9EE;" width="129" height="8.4"/>
</g>
<polygon style="fill:#84DBFF;" points="168.3,196.8 154.8,183.3 159.3,178.9 168.3,187.9 190.9,165.3 195.3,169.8 "/>
<rect x="217" y="224.2" style="fill:#E6E9EE;" width="129" height="8.4"/>
<polygon style="fill:#FFD05B;" points="168.3,245.2 154.8,231.8 159.3,227.4 168.3,236.4 190.9,213.8 195.3,218.2 "/>
<rect x="217" y="272.7" style="fill:#E6E9EE;" width="129" height="8.4"/>
<polygon style="fill:#2C9984;" points="168.3,293.7 154.8,280.2 159.3,275.8 168.3,284.9 190.9,262.2 195.3,266.7 "/>
<rect x="217" y="321.1" style="fill:#E6E9EE;" width="129" height="8.4"/>
<polygon style="fill:#324A5E;" points="168.3,342.1 154.8,328.7 159.3,324.3 168.3,333.3 190.9,310.7 195.3,315.1 "/>
<g>
</g>
<g>
</g>
<g>
</g>
<g>
</g>
<g>
</g>
<g>
</g>
<g>
</g>
<g>
</g>
<g>
</g>
<g>
</g>
<g>
</g>
<g>
</g>
<g>
</g>
<g>
</g>
<g>
</g>
</svg>
