<?xml version="1.0" encoding="iso-8859-1"?>
<!-- Generator: Adobe Illustrator 19.0.0, SVG Export Plug-In . SVG Version: 6.00 Build 0)  -->
<svg xmlns="http://www.w3.org/2000/svg" xmlns:xlink="http://www.w3.org/1999/xlink" version="1.1" id="Layer_1" x="0px" y="0px" viewBox="0 0 508 508" style="enable-background:new 0 0 508 508;" xml:space="preserve">
<circle style="fill:#FD8469;" cx="254" cy="254" r="254"/>
<path style="fill:#FFD05B;" d="M381.3,370c22.9,29,22.1,42.3,13.6,49c-8.6,6.8-21.6,4.4-44.5-24.6s-46.9-73.7-38.4-80.5  C320.5,307.2,358.4,341,381.3,370z"/>
<path style="fill:#2B3B4E;" d="M323.1,321c5.9-4.7,8.5-12.6,6-19.7c-1.6-4.6-4.2-9.2-7.6-13.4c-11.9-15.1-29.9-20.7-40.2-12.6  c-10.3,8.1-9,26.9,2.9,42c3.4,4.3,7.3,7.8,11.3,10.5c6.3,4.1,14.7,3.5,20.6-1.2L323.1,321z"/>
<circle style="fill:#324A5E;" cx="222.5" cy="200.7" r="132"/>
<circle style="fill:#FFFFFF;" cx="222.5" cy="200.7" r="110.6"/>
<g>
	<rect x="218.6" y="145.7" style="fill:#324A5E;" width="7.9" height="74.3"/>
	<rect x="185.4" y="216" style="fill:#324A5E;" width="74.3" height="7.9"/>
</g>
<g>
	<circle style="fill:#84DBFF;" cx="164.4" cy="220" r="21.5"/>
	<circle style="fill:#84DBFF;" cx="222.5" cy="220" r="21.5"/>
	<circle style="fill:#84DBFF;" cx="280.7" cy="220" r="21.5"/>
	<circle style="fill:#84DBFF;" cx="222.5" cy="152.7" r="21.5"/>
</g>
<g>
</g>
<g>
</g>
<g>
</g>
<g>
</g>
<g>
</g>
<g>
</g>
<g>
</g>
<g>
</g>
<g>
</g>
<g>
</g>
<g>
</g>
<g>
</g>
<g>
</g>
<g>
</g>
<g>
</g>
</svg>
