<?xml version="1.0" encoding="iso-8859-1"?>
<!-- Generator: Adobe Illustrator 19.0.0, SVG Export Plug-In . SVG Version: 6.00 Build 0)  -->
<svg xmlns="http://www.w3.org/2000/svg" xmlns:xlink="http://www.w3.org/1999/xlink" version="1.1" id="Layer_1" x="0px" y="0px" viewBox="0 0 508 508" style="enable-background:new 0 0 508 508;" xml:space="preserve">
<circle style="fill:#FFD05B;" cx="254" cy="254" r="254"/>
<path style="fill:#FFFFFF;" d="M337.7,90.9H143.1c-6.2,0-11.1,5-11.1,11.1v135.4h244V129.2h-27.2c-6.2,0-11.1-5-11.1-11.1  L337.7,90.9L337.7,90.9z"/>
<path style="fill:#E6E9EE;" d="M337.7,90.9v27.2c0,6.2,5,11.1,11.1,11.1H376L337.7,90.9z"/>
<path style="fill:#324A5E;" d="M213.6,211l-11.8-13c-2.5-2.7-5.9-4.2-9.6-4.2h-73.4c-7.2,0-13,5.8-13,13v181.3c0,7.2,5.8,13,13,13  h270.4c7.2,0,13-5.8,13-13V228.2c0-7.2-5.8-13-13-13h-166C219.5,215.3,216,213.7,213.6,211z"/>
<g>
	<rect x="159.2" y="141.9" style="fill:#E6E9EE;" width="189.6" height="8.7"/>
	<rect x="159.2" y="163.5" style="fill:#E6E9EE;" width="189.6" height="8.7"/>
	<rect x="159.2" y="185.2" style="fill:#E6E9EE;" width="141.5" height="8.7"/>
</g>
<polygon style="fill:#ACB3BA;" points="313.8,335 258,335 258,263.5 250,263.5 250,335 194.2,335 194.2,343 313.8,343 "/>
<g>
	<circle style="fill:#E6E9EE;" cx="254" cy="263.5" r="19.2"/>
	<circle style="fill:#E6E9EE;" cx="195.6" cy="339" r="19.2"/>
	<circle style="fill:#E6E9EE;" cx="254" cy="339" r="19.2"/>
	<circle style="fill:#E6E9EE;" cx="312.4" cy="339" r="19.2"/>
</g>
<g>
</g>
<g>
</g>
<g>
</g>
<g>
</g>
<g>
</g>
<g>
</g>
<g>
</g>
<g>
</g>
<g>
</g>
<g>
</g>
<g>
</g>
<g>
</g>
<g>
</g>
<g>
</g>
<g>
</g>
</svg>
