<?xml version="1.0" encoding="iso-8859-1"?>
<!-- Generator: Adobe Illustrator 19.0.0, SVG Export Plug-In . SVG Version: 6.00 Build 0)  -->
<svg xmlns="http://www.w3.org/2000/svg" xmlns:xlink="http://www.w3.org/1999/xlink" version="1.1" id="Layer_1" x="0px" y="0px" viewBox="0 0 508 508" style="enable-background:new 0 0 508 508;" xml:space="preserve">
<circle style="fill:#84DBFF;" cx="254" cy="254" r="254"/>
<path style="fill:#FFFFFF;" d="M307,231.4v-70.2c0-29.2-23.8-53-53-53s-53,23.8-53,53v70.2h-39.4v-70.2c0-50.9,41.4-92.3,92.3-92.3  s92.4,41.4,92.4,92.3v70.2H307z"/>
<rect x="150.3" y="244" style="fill:#2B3B4E;" width="207.5" height="156.8"/>
<g>
	<path style="fill:#324A5E;" d="M371.9,266.4H136.1c-2,0-3.6-1.6-3.6-3.6v-37.5c0-2,1.6-3.6,3.6-3.6h235.8c2,0,3.6,1.6,3.6,3.6v37.5   C375.5,264.8,373.9,266.4,371.9,266.4z"/>
	<path style="fill:#324A5E;" d="M371.9,318.7H136.1c-2,0-3.6-1.6-3.6-3.6v-37.5c0-2,1.6-3.6,3.6-3.6h235.8c2,0,3.6,1.6,3.6,3.6v37.5   C375.5,317.1,373.9,318.7,371.9,318.7z"/>
	<path style="fill:#324A5E;" d="M371.9,370.9H136.1c-2,0-3.6-1.6-3.6-3.6v-37.5c0-2,1.6-3.6,3.6-3.6h235.8c2,0,3.6,1.6,3.6,3.6v37.5   C375.5,369.3,373.9,370.9,371.9,370.9z"/>
	<path style="fill:#324A5E;" d="M371.9,423.2H136.1c-2,0-3.6-1.6-3.6-3.6V382c0-2,1.6-3.6,3.6-3.6h235.8c2,0,3.6,1.6,3.6,3.6v37.5   C375.5,421.6,373.9,423.2,371.9,423.2z"/>
</g>
<circle style="fill:#FFD05B;" cx="158.1" cy="244" r="7.8"/>
<circle style="fill:#FF7058;" cx="180.2" cy="244" r="7.8"/>
<circle style="fill:#FFD05B;" cx="158.1" cy="296.3" r="7.8"/>
<circle style="fill:#FF7058;" cx="180.2" cy="296.3" r="7.8"/>
<circle style="fill:#FFD05B;" cx="158.1" cy="348.5" r="7.8"/>
<circle style="fill:#FF7058;" cx="180.2" cy="348.5" r="7.8"/>
<circle style="fill:#FFD05B;" cx="158.1" cy="400.8" r="7.8"/>
<circle style="fill:#FF7058;" cx="180.2" cy="400.8" r="7.8"/>
<g>
</g>
<g>
</g>
<g>
</g>
<g>
</g>
<g>
</g>
<g>
</g>
<g>
</g>
<g>
</g>
<g>
</g>
<g>
</g>
<g>
</g>
<g>
</g>
<g>
</g>
<g>
</g>
<g>
</g>
</svg>
