<?xml version="1.0" encoding="iso-8859-1"?>
<!-- Generator: Adobe Illustrator 19.0.0, SVG Export Plug-In . SVG Version: 6.00 Build 0)  -->
<svg xmlns="http://www.w3.org/2000/svg" xmlns:xlink="http://www.w3.org/1999/xlink" version="1.1" id="Layer_1" x="0px" y="0px" viewBox="0 0 508 508" style="enable-background:new 0 0 508 508;" xml:space="preserve">
<circle style="fill:#324A5E;" cx="254" cy="254" r="254"/>
<path style="fill:#FFFFFF;" d="M339.2,79H142.7c-4.2,0-7.6,3.4-7.6,7.6v117h237.7v-90.8h-26.2c-4.2,0-7.6-3.4-7.6-7.6V79H339.2z"/>
<path style="fill:#E6E9EE;" d="M339.2,79v26.2c0,4.2,3.4,7.6,7.6,7.6H373L339.2,79z"/>
<path style="fill:#FFD05B;" d="M228.6,180.9l-2.7-4.1c-4.2-6.2-11.1-9.9-18.6-9.9h-84.5c-12.4,0-22.4,10-22.4,22.4v180.4  c0,12.4,10,22.4,22.4,22.4h262.5c12.4,0,22.4-10,22.4-22.4V213.2c0-12.4-10-22.4-22.4-22.4h-138  C239.8,190.8,232.8,187.1,228.6,180.9z"/>
<path style="fill:#FFFFFF;" d="M221.2,244.7c-27.1,0-49.2,22.1-49.2,49.2v37h18.5v-37c0-17,13.8-30.8,30.7-30.8  c17,0,30.8,13.8,30.8,30.8v44.8h18.5V294C270.5,266.8,248.4,244.7,221.2,244.7z"/>
<path style="fill:#F1543F;" d="M352.3,320.9H250.4c-8.4,0-15.2,6.8-15.2,15.2v77.7c0,8.4,6.8,15.2,15.2,15.2h101.9  c8.4,0,15.2-6.8,15.2-15.2v-77.7C367.5,327.7,360.7,320.9,352.3,320.9z"/>
<path style="fill:#E6E9EE;" d="M311.7,390.1l-4.4-15.2c1.7-1.6,2.8-3.9,2.8-6.4c0-4.8-3.9-8.7-8.7-8.7c-4.8,0-8.7,3.9-8.7,8.7  c0,2.5,1.1,4.8,2.8,6.4l-4.4,15.2H311.7z"/>
<g>
</g>
<g>
</g>
<g>
</g>
<g>
</g>
<g>
</g>
<g>
</g>
<g>
</g>
<g>
</g>
<g>
</g>
<g>
</g>
<g>
</g>
<g>
</g>
<g>
</g>
<g>
</g>
<g>
</g>
</svg>
