<?xml version="1.0" encoding="iso-8859-1"?>
<!-- Generator: Adobe Illustrator 19.0.0, SVG Export Plug-In . SVG Version: 6.00 Build 0)  -->
<svg xmlns="http://www.w3.org/2000/svg" xmlns:xlink="http://www.w3.org/1999/xlink" version="1.1" id="Layer_1" x="0px" y="0px" viewBox="0 0 508 508" style="enable-background:new 0 0 508 508;" xml:space="preserve">
<circle style="fill:#84DBFF;" cx="254" cy="254" r="254"/>
<path style="fill:#324A5E;" d="M373.9,241.7H208c-5.5,0-8.8-4.5-7.3-10L228.8,127c1.5-5.5,7.1-10,12.6-10h165.9  c5.5,0,8.8,4.5,7.3,10l-28.1,104.8C385,237.2,379.4,241.7,373.9,241.7z"/>
<path style="fill:#2B3B4E;" d="M381.3,239.3c-2.1,1.5-4.6,2.4-7.1,2.4H207.7c-2.4,0-4.4-0.9-5.7-2.4l97-59.9l3.6-2.2  c4.1-2.5,8.7-2.5,11.5,0l2.4,2.2L381.3,239.3z"/>
<g>
	<path style="fill:#FFFFFF;" d="M413.4,119.4l-97,59.9l-3.6,2.2c-4.1,2.5-8.7,2.5-11.5,0l-2.4-2.2l-64.8-59.9c2.1-1.5,4.6-2.4,7-2.4   h166.5C410.1,117,412.1,117.9,413.4,119.4z"/>
	<polygon style="fill:#FFFFFF;" points="217.8,132.7 191.3,132.7 193,126.2 219.6,126.2  "/>
	<polygon style="fill:#FFFFFF;" points="212.3,153.5 192.9,153.5 194.6,147 214,147  "/>
	<polygon style="fill:#FFFFFF;" points="207.9,169.7 181.3,169.7 183.1,163.2 209.6,163.2  "/>
	<polygon style="fill:#FFFFFF;" points="202.3,190.4 182.9,190.4 184.7,184 204.1,184  "/>
</g>
<path style="fill:#FF7058;" d="M258.7,391H92.8c-5.5,0-8.8-4.5-7.3-10l28.1-104.8c1.5-5.5,7.1-10,12.6-10h165.9  c5.5,0,8.8,4.5,7.3,10L271.3,381C269.8,386.5,264.2,391,258.7,391z"/>
<path style="fill:#F1543F;" d="M266.1,388.6c-2.1,1.5-4.6,2.4-7.1,2.4H92.5c-2.4,0-4.4-0.9-5.7-2.4l97-59.9l3.6-2.2  c4.1-2.5,8.7-2.5,11.5,0l2.4,2.2L266.1,388.6z"/>
<g>
	<path style="fill:#FFFFFF;" d="M298.2,268.7l-97,59.9l-3.6,2.2c-4.1,2.5-8.7,2.5-11.5,0l-2.4-2.2l-64.8-59.9c2.1-1.5,4.6-2.4,7-2.4   h166.5C294.9,266.3,296.9,267.2,298.2,268.7z"/>
	<polygon style="fill:#FFFFFF;" points="102.6,282 76.1,282 77.8,275.5 104.4,275.5  "/>
	<polygon style="fill:#FFFFFF;" points="97.1,302.8 77.7,302.8 79.4,296.3 98.8,296.3  "/>
	<polygon style="fill:#FFFFFF;" points="92.7,319 66.1,319 67.9,312.5 94.4,312.5  "/>
	<polygon style="fill:#FFFFFF;" points="87.1,339.8 67.7,339.8 69.5,333.3 88.9,333.3  "/>
</g>
<g>
</g>
<g>
</g>
<g>
</g>
<g>
</g>
<g>
</g>
<g>
</g>
<g>
</g>
<g>
</g>
<g>
</g>
<g>
</g>
<g>
</g>
<g>
</g>
<g>
</g>
<g>
</g>
<g>
</g>
</svg>
