<?xml version="1.0" encoding="iso-8859-1"?>
<!-- Generator: Adobe Illustrator 19.0.0, SVG Export Plug-In . SVG Version: 6.00 Build 0)  -->
<svg xmlns="http://www.w3.org/2000/svg" xmlns:xlink="http://www.w3.org/1999/xlink" version="1.1" id="Layer_1" x="0px" y="0px" viewBox="0 0 508 508" style="enable-background:new 0 0 508 508;" xml:space="preserve">
<circle style="fill:#FD8469;" cx="254" cy="254" r="254"/>
<g>
	<rect x="247.2" y="282.2" style="fill:#324A5E;" width="13.5" height="111.9"/>
	<rect x="143.3" y="380.6" style="fill:#324A5E;" width="221.3" height="13.5"/>
	<rect x="147.9" y="113.8" style="fill:#324A5E;" width="212.3" height="199.4"/>
</g>
<g>
	<path style="fill:#FFFFFF;" d="M180.4,96.9h-60.5c-8.4,0-15.1,6.8-15.1,15.1v203c0,8.4,6.8,15.1,15.1,15.1h60.5   c8.4,0,15.1-6.8,15.1-15.1V112.1C195.5,103.7,188.7,96.9,180.4,96.9z"/>
	<path style="fill:#FFFFFF;" d="M284.3,96.9h-60.5c-8.4,0-15.1,6.8-15.1,15.1v203c0,8.4,6.8,15.1,15.1,15.1h60.5   c8.4,0,15.1-6.8,15.1-15.1V112.1C299.4,103.7,292.6,96.9,284.3,96.9z"/>
	<path style="fill:#FFFFFF;" d="M388.2,96.9h-60.5c-8.4,0-15.1,6.8-15.1,15.1v203c0,8.4,6.8,15.1,15.1,15.1h60.5   c8.4,0,15.1-6.8,15.1-15.1V112.1C403.3,103.7,396.5,96.9,388.2,96.9z"/>
</g>
<g>
	<rect x="322.1" y="142.7" style="fill:#E6E9EE;" width="71.7" height="23.3"/>
	<rect x="322.1" y="110.1" style="fill:#E6E9EE;" width="71.7" height="23.3"/>
	<rect x="218.2" y="142.7" style="fill:#E6E9EE;" width="71.7" height="23.3"/>
	<rect x="218.2" y="110.1" style="fill:#E6E9EE;" width="71.7" height="23.3"/>
	<rect x="114.3" y="142.7" style="fill:#E6E9EE;" width="71.7" height="23.3"/>
	<rect x="114.3" y="110.1" style="fill:#E6E9EE;" width="71.7" height="23.3"/>
</g>
<circle style="fill:#84DBFF;" cx="357.9" cy="209.2" r="10.4"/>
<circle style="fill:#FFD05B;" cx="357.9" cy="236.5" r="6.8"/>
<circle style="fill:#84DBFF;" cx="254" cy="209.2" r="10.4"/>
<circle style="fill:#FFD05B;" cx="254" cy="236.5" r="6.8"/>
<circle style="fill:#84DBFF;" cx="150.1" cy="209.2" r="10.4"/>
<circle style="fill:#FFD05B;" cx="150.1" cy="236.5" r="6.8"/>
<circle style="fill:#FFFFFF;" cx="254" cy="387.4" r="23.7"/>
<g>
</g>
<g>
</g>
<g>
</g>
<g>
</g>
<g>
</g>
<g>
</g>
<g>
</g>
<g>
</g>
<g>
</g>
<g>
</g>
<g>
</g>
<g>
</g>
<g>
</g>
<g>
</g>
<g>
</g>
</svg>
