<?xml version="1.0" encoding="iso-8859-1"?>
<!-- Generator: Adobe Illustrator 19.0.0, SVG Export Plug-In . SVG Version: 6.00 Build 0)  -->
<svg xmlns="http://www.w3.org/2000/svg" xmlns:xlink="http://www.w3.org/1999/xlink" version="1.1" id="Layer_1" x="0px" y="0px" viewBox="0 0 508 508" style="enable-background:new 0 0 508 508;" xml:space="preserve">
<circle style="fill:#84DBFF;" cx="254" cy="254" r="254"/>
<g>
	<rect x="133.5" y="108" style="fill:#E6E9EE;" width="23.8" height="9.3"/>
	<rect x="133.5" y="135.5" style="fill:#E6E9EE;" width="23.8" height="9.3"/>
	<rect x="133.5" y="162.9" style="fill:#E6E9EE;" width="23.8" height="9.3"/>
	<rect x="133.5" y="190.4" style="fill:#E6E9EE;" width="23.8" height="9.3"/>
	<rect x="133.5" y="217.8" style="fill:#E6E9EE;" width="23.8" height="9.3"/>
</g>
<polygon style="fill:#FFFFFF;" points="406.5,245.9 406.5,262.1 138.7,262.1 138.7,410.9 122.6,410.9 122.6,97.1 138.7,97.1   138.7,245.9 "/>
<rect x="154.6" y="277.4" style="fill:#FF7058;" width="19.7" height="99.1"/>
<rect x="187.1" y="277.4" style="fill:#FFFFFF;" width="19.7" height="82.2"/>
<rect x="219.6" y="277.4" style="fill:#324A5E;" width="19.7" height="68.2"/>
<rect x="252.1" y="277.4" style="fill:#FFFFFF;" width="19.7" height="56.6"/>
<rect x="386.8" y="131.5" style="fill:#FF7058;" width="19.7" height="99.1"/>
<rect x="354.3" y="148.4" style="fill:#FFFFFF;" width="19.7" height="82.2"/>
<rect x="321.8" y="162.4" style="fill:#324A5E;" width="19.7" height="68.2"/>
<g>
	<rect x="289.3" y="174" style="fill:#FFFFFF;" width="19.7" height="56.6"/>
	<polygon style="fill:#FFFFFF;" points="406.5,245.9 406.5,262.1 138.7,262.1 138.7,410.9 122.6,410.9 122.6,97.1 138.7,97.1    138.7,245.9  "/>
</g>
<g>
</g>
<g>
</g>
<g>
</g>
<g>
</g>
<g>
</g>
<g>
</g>
<g>
</g>
<g>
</g>
<g>
</g>
<g>
</g>
<g>
</g>
<g>
</g>
<g>
</g>
<g>
</g>
<g>
</g>
</svg>
