<?xml version="1.0" encoding="iso-8859-1"?>
<!-- Generator: Adobe Illustrator 19.0.0, SVG Export Plug-In . SVG Version: 6.00 Build 0)  -->
<svg xmlns="http://www.w3.org/2000/svg" xmlns:xlink="http://www.w3.org/1999/xlink" version="1.1" id="Layer_1" x="0px" y="0px" viewBox="0 0 508 508" style="enable-background:new 0 0 508 508;" xml:space="preserve">
<circle style="fill:#FFD05B;" cx="254" cy="254" r="254"/>
<path style="fill:#FFFFFF;" d="M136,94.5v272.2c0,9,7.3,16.3,16.3,16.3h164.3v-43.2c0-6.7,5.5-12.2,12.2-12.2H372V94.5  c0-9-7.3-16.3-16.3-16.3H152.3C143.3,78.2,136,85.5,136,94.5z"/>
<g>
	<path style="fill:#E6E9EE;" d="M316.6,383l55.4-55.4h-43.2c-6.7,0-12.2,5.5-12.2,12.2L316.6,383L316.6,383z"/>
	<path style="fill:#E6E9EE;" d="M302.5,207.8h-99.7c-9.4,0-17.1-7.7-17.1-17.1v-41.2c0-9.4,7.7-17.1,17.1-17.1h99.7   c9.4,0,17.1,7.7,17.1,17.1v41.2C319.6,200.2,311.9,207.8,302.5,207.8z M202.8,140.4c-5,0-9.1,4.1-9.1,9.1v41.2c0,5,4.1,9.1,9.1,9.1   h99.7c5,0,9.1-4.1,9.1-9.1v-41.2c0-5-4.1-9.1-9.1-9.1H202.8z"/>
</g>
<g>
	<circle style="fill:#84DBFF;" cx="254" cy="136.4" r="17.7"/>
	<circle style="fill:#84DBFF;" cx="195.2" cy="203.8" r="17.7"/>
	<circle style="fill:#84DBFF;" cx="254" cy="203.8" r="17.7"/>
	<circle style="fill:#84DBFF;" cx="312.8" cy="203.8" r="17.7"/>
</g>
<path style="fill:#2B3B4E;" d="M249.5,338.9h-14.8v-40.4c0-12-9.8-21.8-21.8-21.8s-21.8,9.8-21.8,21.8v40.4h-14.8v-40.4  c0-20.2,16.4-36.6,36.6-36.6s36.6,16.4,36.6,36.6V338.9z"/>
<path style="fill:#324A5E;" d="M265.5,429.8H160.3c-1.5,0-2.7-1.2-2.7-2.7v-96.8c0-1.5,1.2-2.7,2.7-2.7h105.2c1.5,0,2.7,1.2,2.7,2.7  v96.8C268.2,428.6,267,429.8,265.5,429.8z"/>
<g>
	<path style="fill:#ACB3BA;" d="M245.7,388.7h-12c-0.4,0-0.7-0.3-0.7-0.7v-18.7c0-0.4,0.3-0.7,0.7-0.7h12c0.4,0,0.7,0.3,0.7,0.7V388   C246.4,388.4,246.1,388.7,245.7,388.7z"/>
	<path style="fill:#ACB3BA;" d="M227.8,388.7h-12c-0.4,0-0.7-0.3-0.7-0.7v-18.7c0-0.4,0.3-0.7,0.7-0.7h12c0.4,0,0.7,0.3,0.7,0.7V388   C228.6,388.4,228.2,388.7,227.8,388.7z"/>
	<path style="fill:#ACB3BA;" d="M210,388.7h-12c-0.4,0-0.7-0.3-0.7-0.7v-18.7c0-0.4,0.3-0.7,0.7-0.7h12c0.4,0,0.7,0.3,0.7,0.7V388   C210.7,388.4,210.4,388.7,210,388.7z"/>
	<path style="fill:#ACB3BA;" d="M192.2,388.7h-12c-0.4,0-0.7-0.3-0.7-0.7v-18.7c0-0.4,0.3-0.7,0.7-0.7h12c0.4,0,0.7,0.3,0.7,0.7V388   C192.9,388.4,192.6,388.7,192.2,388.7z"/>
</g>
<g>
	<path style="fill:#2B3B4E;" d="M184.1,373h4v10H186v-8.1h-1.9V373z"/>
	<path style="fill:#2B3B4E;" d="M204.7,376.9c0.3-0.4,0.4-0.7,0.4-1s-0.1-0.6-0.3-0.8c-0.2-0.2-0.5-0.3-0.8-0.3   c-0.6,0-1.2,0.4-1.8,1.3l-1.8-1.1c0.5-0.7,1-1.3,1.5-1.6c0.6-0.4,1.3-0.6,2.1-0.6c0.9,0,1.6,0.3,2.3,0.8c0.6,0.5,1,1.3,1,2.2   c0,0.5-0.1,1-0.4,1.5c-0.3,0.5-0.7,1.1-1.4,1.8l-1.8,1.9h3.9v2h-7v-1.7l2.9-3C204.1,377.7,204.5,377.2,204.7,376.9z"/>
	<path style="fill:#2B3B4E;" d="M218.8,374.9V373h6.1v1.5l-2,2.3c0.8,0.1,1.4,0.5,1.9,1c0.4,0.5,0.7,1.2,0.7,1.9   c0,1-0.4,1.9-1.1,2.5c-0.7,0.6-1.6,0.9-2.7,0.9c-1.1,0-2.2-0.4-3.3-1.2l0.9-1.8c0.9,0.7,1.8,1,2.5,1c0.4,0,0.8-0.1,1.1-0.3   c0.3-0.2,0.4-0.5,0.4-0.9s-0.2-0.7-0.5-1c-0.3-0.2-0.8-0.4-1.4-0.4c-0.3,0-0.8,0.1-1.3,0.3v-1.6l1.9-2.2h-3.2V374.9z"/>
	<path style="fill:#2B3B4E;" d="M242.6,373v1.9h-3.9v1.7c0.3-0.1,0.6-0.1,1-0.1c1,0,1.8,0.3,2.5,0.9s1,1.4,1,2.3   c0,1-0.4,1.8-1.1,2.4c-0.7,0.6-1.6,1-2.7,1c-1.3,0-2.5-0.5-3.4-1.5l1.2-1.6c0.1,0.1,0.2,0.2,0.3,0.3c0.1,0.1,0.4,0.3,0.8,0.5   c0.4,0.2,0.8,0.3,1.1,0.3c0.4,0,0.7-0.1,1-0.3c0.3-0.2,0.4-0.6,0.4-1s-0.2-0.8-0.5-1s-0.7-0.4-1.2-0.4s-1.1,0.2-1.8,0.5l-0.9-1V373   H242.6z"/>
</g>
<g>
</g>
<g>
</g>
<g>
</g>
<g>
</g>
<g>
</g>
<g>
</g>
<g>
</g>
<g>
</g>
<g>
</g>
<g>
</g>
<g>
</g>
<g>
</g>
<g>
</g>
<g>
</g>
<g>
</g>
</svg>
