<?xml version="1.0" encoding="iso-8859-1"?>
<!-- Generator: Adobe Illustrator 19.0.0, SVG Export Plug-In . SVG Version: 6.00 Build 0)  -->
<svg xmlns="http://www.w3.org/2000/svg" xmlns:xlink="http://www.w3.org/1999/xlink" version="1.1" id="Layer_1" x="0px" y="0px" viewBox="0 0 508 508" style="enable-background:new 0 0 508 508;" xml:space="preserve">
<circle style="fill:#FD8469;" cx="254" cy="254" r="254"/>
<circle style="fill:#FFFFFF;" cx="254" cy="323.6" r="123.7"/>
<g>
	<path style="fill:#84DBFF;" d="M367.1,303.3c-0.3-8.1-0.6-16.3-0.8-24.4c-0.1-3.7-0.6-8-3.7-10c-1.3-0.8-2.9-1.1-4-2.1   c-1.5-1.3-1.9-3.4-2.1-5.3c-0.5-3.1-0.9-6.2-1.4-9.3c-12.4-17.5-29.2-31.6-48.8-40.8c-1.9,3-5.9,4.8-9.2,3.3   c0.3,6.7-7.1,10.9-13.3,13.4c-3.2,1.3-6.7,2.6-10,1.6c-2.4-0.7-4.2-2.4-6.3-3.7c-7.2-4.6-17.4-4.1-24.2,1.2c-2.4,1.9-4.5,4.8-4,7.8   s4.8,5.1,6.8,2.7c0.8-1,1-2.4,1.5-3.6c1.3-2.9,5.4-4.1,8.1-2.4c1.4,3.7-1.5,8-5.2,9.5s-7.9,0.9-11.8,0.3c-3.9-0.7-8-1.4-11.9-0.4   c-1.3-3.5-1-7.5,0.8-10.8c-2,0.3-4.2,0.6-5.8,1.8s-2.5,3.8-1.3,5.4c0.6,0.8,1.6,1.3,2.1,2.2c1.5,2.5-1.8,5-4.5,6   c-5.8,2.2-11.7,4.5-17.5,6.7c3.3,3.2,7.3,5.7,11.6,7.2c2.5,0.9,5.5,1.4,7.8,0.2c1.5-0.8,2.5-2.2,4-3c4.2-2.2,9,1.5,12.6,4.6   s9.4,5.9,12.7,2.4c0.8-0.8,1.2-1.9,2-2.8c3.5-3.8,9.9-0.5,14.9-1.9c1.2,3-2.1,6.1-5.3,6.6c-3.2,0.5-6.6-0.3-9.7,0.6   c-0.5,0.2-1.1,0.4-1.4,0.9c-0.8,1.1,0.2,2.6,1.2,3.5c2.7,2.3,6,3.9,9.6,4.6c-0.6,4.2-6,5.3-10.2,5.4c-4.5,0.1-8.9,0.2-13.4,0.4   c-5.1,0.2-11.8-0.9-12.5-6c-0.4-2.3,0.7-5-0.9-6.7c-0.7-0.8-1.8-1.1-2.8-1.4c-5.8-1.6-11.8-3.1-17.6-1.9c-3.5,0.7-6.7,2.4-9.8,4.1   c-8.6,4.7-17.6,10.6-20.1,20.1c-2.2,8.5,1.7,17.3,5.5,25.3c1.5,3,3.2,6.3,6.3,7.7c4.9,2.1,11.6-1.7,15.7,1.8   c3.2,2.8,2.3,7.8,1.7,12.1c-0.9,6.5-0.3,13.3,1.8,19.5c0.6,1.9,1.5,3.9,3.3,4.7c1.2,0.6,2.6,0.6,3.9,1.1c4,1.7,3.9,7.2,3.7,11.5   c-0.4,5.7,0.1,11.4,1.3,17c0.5,2.3,1.2,4.8,3.2,6.1c1.6,1.1,3.7,1.3,5.6,1.4c7.5,0.4,16.3,0.1,20.5-6.1c3.1-4.5,2.5-11.1,6.2-15.1   c1.8-2,4.4-3.1,6.2-5.1c4.2-4.9,1.6-12.3,2.5-18.7c0.8-5.6,4.5-10.6,9.6-13c3.5-1.6,7.4-2,10.6-4.1c3.2-2,5.3-6.8,2.7-9.6   c-6.6,1.6-13.6-1.5-18.4-6.2s-7.9-10.9-10.8-17.1c-0.9-1.9-1.8-4-1.7-6.1s1.7-4.3,3.8-4.3s3.7,1.9,4.1,3.9c0.5,2,0.1,4.1,0.1,6.2   c-0.1,10.1,9.2,19.4,19.4,19.2c10.1-0.2,19.1-9.8,18.6-19.9c-3.7-0.2-7.3-0.4-10.9-0.6c-1.1-0.1-2.2-0.1-3.1-0.8   c-1.4-1.1-1.4-3.1-1.7-4.8c-0.3-1.7-1.4-3.7-3.2-3.4c11.2-3.7,21.8,12.3,33.2,8.9c-1.6,1.9-0.7,4.9,0.9,6.8s3.8,3.4,4.9,5.6   c1,1.9,1.1,4.1,1.7,6.1c1.5,4.8,5.8,8.2,9.9,11.2c2-4.8,2.4-10,3.8-15s4.2-10.1,9-11.9c7.5-2.9,15.2,3.3,21,8.9   C367,310.8,367.2,306.8,367.1,303.3z M285.1,279.4l0.6-0.6c-2.6-0.4-3-3.8-3.8-6.3c-1.4-4-5.4-7.4-4.5-11.5   c0.5-2.4,2.9-4.2,5.3-4.1c1,0.1,2,0.4,2.6,1.2c1.1,1.3,0.6,3.2,0.6,4.9c0,3,1.4,5.7,1.9,8.6C288.5,274.6,287.8,278.3,285.1,279.4z"/>
	<path style="fill:#84DBFF;" d="M267.5,391.8c-3.4-0.7-6.2-3.7-6.6-7.2c-0.3-3.5,1.8-7,5-8.3c1.8-0.7,3.8-0.8,5.3-2   c0.8-0.6,1.4-1.5,2.1-2.1c0.8-0.6,2-1,2.8-0.4c0.4,0.3,0.6,0.7,0.8,1.2c0.6,1.9-0.1,4-1.2,5.7s-2.5,3.1-3.6,4.8   c-1.7,2.8-2.3,6.3-1.5,9.4c0.3,1.1,0.7,2.3,0.4,3.4c-0.4,1.7-2.5,2.6-4.2,2c-1.6-0.6-2.6-2.5-2.4-4.2L267.5,391.8z"/>
	<path style="fill:#84DBFF;" d="M371.6,334c-0.5,1.1-1.7,1.7-2.6,2.5c-2.1,2-2.2,5.3-2.3,8.2c0,1-0.3,2.2-1.3,2.4   c-0.4,0.1-0.8-0.1-1.1-0.2c-5.5-2.3-10.1-6.4-13-11.6c-0.8-1.5-1.5-3.2-1.1-4.8c0.4-1.6,2.3-3,3.8-2.1c1.7,1,2.2,4.2,4.1,3.7   c1.3-0.3,1.4-2.2,0.9-3.5s-1.1-2.7-0.4-3.9c1-1.5,3.4-0.8,4.3,0.7s1,3.3,1.6,5c2.7-3.3,4.7-7.2,5.9-11.3c0.5,4,0.9,7.9,1.4,11.9   C372,332,372.1,333.1,371.6,334z"/>
</g>
<path style="fill:#FFD05B;" d="M252.3,115.4v90.4c0,8.3-6.7,15-14.9,15h-44.2l-11.7,45.9l-46.6-45.9H108c-8.3,0-15-6.7-15-15v-90.4  c0-8.3,6.7-15,15-15h129.4C245.6,100.4,252.3,107.1,252.3,115.4z"/>
<path style="fill:#324A5E;" d="M446.8,172v90.4c0,8.3-6.7,15-15,15h-41.2l-47.1,33l-8.2-33h-32.9c-8.3,0-15-6.7-15-15V172  c0-8.3,6.7-15,15-15h129.4C440.1,157.1,446.8,163.7,446.8,172z"/>
<g>
	<rect x="111.4" y="118.4" style="fill:#F9B54C;" width="122.5" height="10.3"/>
	<rect x="111.4" y="136.1" style="fill:#F9B54C;" width="122.5" height="10.3"/>
	<rect x="111.4" y="153.8" style="fill:#F9B54C;" width="122.5" height="10.3"/>
	<rect x="111.4" y="171.5" style="fill:#F9B54C;" width="122.5" height="10.3"/>
	<rect x="111.4" y="189.2" style="fill:#F9B54C;" width="122.5" height="10.3"/>
</g>
<g>
	<rect x="300.6" y="173.6" style="fill:#2B3B4E;" width="133" height="10.9"/>
	<rect x="300.6" y="198.4" style="fill:#2B3B4E;" width="133" height="10.9"/>
	<rect x="300.6" y="223.3" style="fill:#2B3B4E;" width="133" height="10.9"/>
	<rect x="300.6" y="248.1" style="fill:#2B3B4E;" width="133" height="10.9"/>
</g>
<g>
</g>
<g>
</g>
<g>
</g>
<g>
</g>
<g>
</g>
<g>
</g>
<g>
</g>
<g>
</g>
<g>
</g>
<g>
</g>
<g>
</g>
<g>
</g>
<g>
</g>
<g>
</g>
<g>
</g>
</svg>
