<?xml version="1.0" encoding="iso-8859-1"?>
<!-- Generator: Adobe Illustrator 19.0.0, SVG Export Plug-In . SVG Version: 6.00 Build 0)  -->
<svg xmlns="http://www.w3.org/2000/svg" xmlns:xlink="http://www.w3.org/1999/xlink" version="1.1" id="Layer_1" x="0px" y="0px" viewBox="0 0 508 508" style="enable-background:new 0 0 508 508;" xml:space="preserve">
<circle style="fill:#FFD05B;" cx="254" cy="254" r="254"/>
<path style="fill:#F9B54C;" d="M78.3,437.3C123.9,481.1,185.8,508,254,508s130.1-26.9,175.7-70.7H78.3z"/>
<g>
	<polygon style="fill:#FFFFFF;" points="423.2,168 387.9,114.5 352.6,168 370.1,168 370.1,437.3 405.7,437.3 405.7,168  "/>
	<polygon style="fill:#FFFFFF;" points="333.9,250.5 298.6,197 263.4,250.5 280.8,250.5 280.8,437.3 316.4,437.3 316.4,250.5  "/>
	<polygon style="fill:#FFFFFF;" points="244.6,208.4 209.4,154.9 174.1,208.4 191.6,208.4 191.6,437.3 227.2,437.3 227.2,208.4  "/>
	<polygon style="fill:#FFFFFF;" points="155.4,280.1 120.1,226.5 84.8,280.1 102.3,280.1 102.3,437.3 137.9,437.3 137.9,280.1  "/>
</g>
<g>
</g>
<g>
</g>
<g>
</g>
<g>
</g>
<g>
</g>
<g>
</g>
<g>
</g>
<g>
</g>
<g>
</g>
<g>
</g>
<g>
</g>
<g>
</g>
<g>
</g>
<g>
</g>
<g>
</g>
</svg>
