<?xml version="1.0" encoding="iso-8859-1"?>
<!-- Generator: Adobe Illustrator 19.0.0, SVG Export Plug-In . SVG Version: 6.00 Build 0)  -->
<svg xmlns="http://www.w3.org/2000/svg" xmlns:xlink="http://www.w3.org/1999/xlink" version="1.1" id="Layer_1" x="0px" y="0px" viewBox="0 0 508 508" style="enable-background:new 0 0 508 508;" xml:space="preserve">
<circle style="fill:#54C0EB;" cx="254" cy="254" r="254"/>
<g>
	<path style="fill:#FFFFFF;" d="M254,54.7v42.7c86.5,0,156.5,70.1,156.5,156.6S340.4,410.6,254,410.6   c-86.5,0-156.6-70.1-156.6-156.6H54.7c0,110.1,89.2,199.3,199.3,199.3S453.3,364.1,453.3,254S364.1,54.7,254,54.7z"/>
	<path style="fill:#FFFFFF;" d="M254,119.5c-74.3,0-134.5,60.2-134.5,134.5c0,0,0,0,0,0.1h28.8l0,0c0-58.4,47.3-105.7,105.7-105.7   S359.7,195.6,359.7,254S312.4,359.7,254,359.7v28.8c74.3,0,134.5-60.2,134.5-134.5S328.3,119.5,254,119.5z"/>
	<path style="fill:#FFFFFF;" d="M319.6,253.6c0,0.1,0,0.3,0,0.4c0,36.2-29.4,65.6-65.6,65.6s-65.6-29.4-65.6-65.6   s29.4-65.6,65.6-65.6h0.1v-17.9H254c-46.1,0-83.5,37.4-83.5,83.5s37.4,83.5,83.5,83.5s83.5-37.4,83.5-83.5c0-0.1,0-0.3,0-0.4H319.6   z"/>
	<path style="fill:#FFFFFF;" d="M254,203.7c-0.1,0-0.1,0-0.2,0v10.8c0.1,0,0.1,0,0.2,0c21.8,0,39.5,17.7,39.5,39.5   s-17.7,39.5-39.5,39.5c-0.1,0-0.1,0-0.2,0v10.8c0.1,0,0.1,0,0.2,0c27.8,0,50.3-22.5,50.3-50.3S281.8,203.7,254,203.7z"/>
</g>
<g>
</g>
<g>
</g>
<g>
</g>
<g>
</g>
<g>
</g>
<g>
</g>
<g>
</g>
<g>
</g>
<g>
</g>
<g>
</g>
<g>
</g>
<g>
</g>
<g>
</g>
<g>
</g>
<g>
</g>
</svg>
