<?xml version="1.0" encoding="iso-8859-1"?>
<!-- Generator: Adobe Illustrator 19.0.0, SVG Export Plug-In . SVG Version: 6.00 Build 0)  -->
<svg xmlns="http://www.w3.org/2000/svg" xmlns:xlink="http://www.w3.org/1999/xlink" version="1.1" id="Layer_1" x="0px" y="0px" viewBox="0 0 508 508" style="enable-background:new 0 0 508 508;" xml:space="preserve">
<circle style="fill:#84DBFF;" cx="254" cy="254" r="254"/>
<circle style="fill:#324A5E;" cx="254" cy="254.3" r="211.4"/>
<circle style="fill:#FFFFFF;" cx="254" cy="254.3" r="170.3"/>
<path style="fill:#FF7058;" d="M122.5,214.6l-11.4-3.4c2.8-9.3,6.6-18.4,11.2-27.1l10.5,5.6C128.5,197.6,125.1,206,122.5,214.6z   M385.5,214.4c-2.6-8.6-6.1-17-10.3-24.9l10.5-5.6c4.6,8.6,8.4,17.7,11.2,27L385.5,214.4z M147.7,167.3l-9.2-7.5  c6.2-7.5,13.1-14.5,20.7-20.7l7.6,9.2C159.8,153.9,153.4,160.3,147.7,167.3z M360.2,167.1c-5.7-6.9-12.1-13.3-19.1-19l7.6-9.2  c7.5,6.2,14.5,13.1,20.7,20.7L360.2,167.1z M189.2,133.2l-5.6-10.5c8.6-4.6,17.7-8.4,27-11.2l3.5,11.4  C205.4,125.5,197.1,128.9,189.2,133.2z M318.7,133.1c-7.9-4.2-16.3-7.7-24.9-10.3l3.4-11.4c9.3,2.8,18.4,6.6,27.1,11.2L318.7,133.1z   M240.4,117.6l-1.2-11.8c4.9-0.5,9.9-0.7,14.7-0.7c4.8,0,9.7,0.2,14.5,0.7l-1.1,11.9c-4.4-0.4-9-0.8-13.4-0.6  C249.4,117,244.9,117.2,240.4,117.6z"/>
<path style="fill:#324A5E;" d="M277.1,282.5c7.4,12.7,3.2,29-9.5,36.4s-29,3.2-36.4-9.5S187,181.3,187,181.3  S269.7,269.8,277.1,282.5z"/>
<circle style="fill:#FFFFFF;" cx="254.1" cy="295.9" r="14.7"/>
<g>
</g>
<g>
</g>
<g>
</g>
<g>
</g>
<g>
</g>
<g>
</g>
<g>
</g>
<g>
</g>
<g>
</g>
<g>
</g>
<g>
</g>
<g>
</g>
<g>
</g>
<g>
</g>
<g>
</g>
</svg>
