<?xml version="1.0" encoding="iso-8859-1"?>
<!-- Generator: Adobe Illustrator 19.0.0, SVG Export Plug-In . SVG Version: 6.00 Build 0)  -->
<svg xmlns="http://www.w3.org/2000/svg" xmlns:xlink="http://www.w3.org/1999/xlink" version="1.1" id="Layer_1" x="0px" y="0px" viewBox="0 0 508 508" style="enable-background:new 0 0 508 508;" xml:space="preserve">
<circle style="fill:#324A5E;" cx="254" cy="254" r="254"/>
<path style="fill:#FFFFFF;" d="M340.6,85.6H140.8c-4.2,0-7.7,3.4-7.7,7.7v119h241.8v-92.4h-26.6c-4.2,0-7.7-3.4-7.7-7.7V85.6z"/>
<path style="fill:#E6E9EE;" d="M340.6,85.6v26.6c0,4.2,3.4,7.7,7.7,7.7h26.6L340.6,85.6z"/>
<path style="fill:#FFD05B;" d="M228.2,177.1l-2.8-4.1c-4.2-6.3-11.3-10.1-18.9-10.1h-86c-12.6,0-22.8,10.2-22.8,22.8v183.5  c0,12.6,10.2,22.8,22.8,22.8h267c12.6,0,22.8-10.2,22.8-22.8V209.9c0-12.6-10.2-22.8-22.8-22.8H247.1  C239.5,187.1,232.5,183.4,228.2,177.1z"/>
<g>
	<polygon style="fill:#FFFFFF;" points="298.4,221.4 298.4,241.1 225.2,246 225.2,275.3 298.4,280.2 298.4,299.9 298.4,299.9    343.6,260.7 343.6,260.7  "/>
	<polygon style="fill:#FFFFFF;" points="209.6,366.7 209.6,347 282.8,342.2 282.8,312.8 209.6,308 209.6,288.2 209.6,288.2    164.4,327.5 164.4,327.5  "/>
</g>
<g>
</g>
<g>
</g>
<g>
</g>
<g>
</g>
<g>
</g>
<g>
</g>
<g>
</g>
<g>
</g>
<g>
</g>
<g>
</g>
<g>
</g>
<g>
</g>
<g>
</g>
<g>
</g>
<g>
</g>
</svg>
