<?xml version="1.0" encoding="iso-8859-1"?>
<!-- Generator: Adobe Illustrator 19.0.0, SVG Export Plug-In . SVG Version: 6.00 Build 0)  -->
<svg xmlns="http://www.w3.org/2000/svg" xmlns:xlink="http://www.w3.org/1999/xlink" version="1.1" id="Layer_1" x="0px" y="0px" viewBox="0 0 508 508" style="enable-background:new 0 0 508 508;" xml:space="preserve">
<path style="fill:#324A5E;" d="M0,254C0,113.7,113.7,0,254,0s254,113.7,254,254S394.3,508,254,508S0,394.3,0,254z"/>
<path style="fill:#FFFFFF;" d="M343.5,76.3H137c-4.4,0-7.9,3.6-7.9,7.9v123H379v-95.5h-27.5c-4.4,0-7.9-3.6-7.9-7.9V76.3H343.5z"/>
<path style="fill:#E6E9EE;" d="M343.5,76.3v27.5c0,4.4,3.6,7.9,7.9,7.9H379L343.5,76.3z"/>
<path style="fill:#FFD05B;" d="M227.4,170.9l-2.9-4.3c-4.4-6.5-11.7-10.4-19.6-10.4H116c-13,0-23.6,10.6-23.6,23.6v189.6  c0,13,10.6,23.6,23.6,23.6h276c13,0,23.6-10.6,23.6-23.6V204.9c0-13-10.6-23.6-23.6-23.6H246.9C239.1,181.3,231.7,177.4,227.4,170.9  z"/>
<path style="fill:#324A5E;" d="M303.8,238c-28.5,0-51.7,23.2-51.7,51.7v47.1h19.4v-47.1c0-17.8,14.5-32.3,32.3-32.3  s32.3,14.5,32.3,32.3v47.1h19.4v-47.1C355.5,261.2,332.3,238,303.8,238z"/>
<path style="fill:#FFFFFF;" d="M371.4,431.7H236.1c-1,0-1.9-0.8-1.9-1.9V319.9c0-1,0.8-1.9,1.9-1.9h135.3c1,0,1.9,0.8,1.9,1.9v109.9  C373.3,430.8,372.5,431.7,371.4,431.7z"/>
<path style="fill:#324A5E;" d="M314.7,390.8l-4.7-16c1.8-1.7,2.9-4.1,2.9-6.7c0-5.1-4.1-9.2-9.2-9.2s-9.2,4.1-9.2,9.2  c0,2.7,1.1,5,2.9,6.7l-4.7,16H314.7z"/>
<g>
</g>
<g>
</g>
<g>
</g>
<g>
</g>
<g>
</g>
<g>
</g>
<g>
</g>
<g>
</g>
<g>
</g>
<g>
</g>
<g>
</g>
<g>
</g>
<g>
</g>
<g>
</g>
<g>
</g>
</svg>
