<?xml version="1.0" encoding="iso-8859-1"?>
<!-- Generator: Adobe Illustrator 19.0.0, SVG Export Plug-In . SVG Version: 6.00 Build 0)  -->
<svg xmlns="http://www.w3.org/2000/svg" xmlns:xlink="http://www.w3.org/1999/xlink" version="1.1" id="Layer_1" x="0px" y="0px" viewBox="0 0 508 508" style="enable-background:new 0 0 508 508;" xml:space="preserve">
<path style="fill:#84DBFF;" d="M0,254C0,113.7,113.7,0,254,0s254,113.7,254,254S394.3,508,254,508S0,394.3,0,254z"/>
<path style="fill:#324A5E;" d="M362.9,342.4H145.1c-2.8,0-5.4-1.5-6.8-3.9c-1.4-2.4-1.5-5.4-0.2-7.8L247,126.1  c1.4-2.6,4.1-4.2,7-4.2s5.6,1.6,7,4.2l108.9,204.7c1.3,2.5,1.2,5.4-0.2,7.8C368.3,340.9,365.7,342.4,362.9,342.4z M158.3,326.5  h191.4L254,146.7L158.3,326.5z"/>
<g>
	<circle style="fill:#FFFFFF;" cx="362.9" cy="334.4" r="72"/>
	<circle style="fill:#FFFFFF;" cx="145.1" cy="334.4" r="72"/>
	<circle style="fill:#FFFFFF;" cx="254" cy="129.8" r="72"/>
</g>
<g>
	<circle style="fill:#FF7058;" cx="254" cy="129.8" r="55.6"/>
	<circle style="fill:#FF7058;" cx="362.9" cy="334.4" r="55.6"/>
	<circle style="fill:#FF7058;" cx="145.1" cy="334.4" r="55.6"/>
</g>
<g>
	<path style="fill:#FFFFFF;" d="M273.8,155.2l-6.1-14.1h-27.5l-6.1,14.1h-15.5l28.3-65.5H261l28.3,65.5H273.8z M254,109.1l-8.2,19   h16.4L254,109.1z"/>
	<path style="fill:#FFFFFF;" d="M365.4,366.3h-27.9v-63.7h24.8c4.3,0,8,0.5,11.2,1.6c3.1,1,5.5,2.4,7.1,4.2c2.9,3.3,4.3,7,4.3,11.1   c0,5-1.6,8.7-4.8,11.1c-1.1,0.9-1.9,1.4-2.3,1.6s-1.2,0.6-2.3,1.1c3.9,0.9,7.1,2.6,9.4,5.3c2.3,2.7,3.5,6.1,3.5,10.1   c0,4.4-1.5,8.4-4.6,11.8C380.3,364.3,374.1,366.3,365.4,366.3z M351.7,328.4h6.7c3.9,0,6.9-0.4,8.8-1.3s2.9-2.7,2.9-5.5   s-0.9-4.7-2.6-5.6c-1.8-0.9-4.7-1.4-8.9-1.4h-6.8v13.8H351.7z M351.7,354.3h9.8c4.1,0,7.1-0.5,9.2-1.5c2-1,3.1-3,3.1-5.9   s-1.1-4.9-3.2-5.8c-2.2-0.9-5.6-1.4-10.4-1.4h-8.4v14.6H351.7z"/>
	<path style="fill:#FFFFFF;" d="M142.8,356.5c7.8,0,14.3-3.1,19.2-9.3l10.2,10.5c-8.1,9.1-17.7,13.7-28.7,13.7s-20.1-3.5-27.2-10.4   c-7.1-7-10.7-15.8-10.7-26.4s3.6-19.5,10.9-26.6s16.2-10.6,26.7-10.6c11.7,0,21.6,4.5,29.5,13.4l-9.9,11.3   c-5-6.3-11.3-9.4-18.8-9.4c-6,0-11.1,2-15.4,5.9c-4.3,3.9-6.4,9.2-6.4,15.9c0,6.7,2,12,6,16C132.2,354.5,137.1,356.5,142.8,356.5z"/>
</g>
<g>
</g>
<g>
</g>
<g>
</g>
<g>
</g>
<g>
</g>
<g>
</g>
<g>
</g>
<g>
</g>
<g>
</g>
<g>
</g>
<g>
</g>
<g>
</g>
<g>
</g>
<g>
</g>
<g>
</g>
</svg>
