<?xml version="1.0" encoding="iso-8859-1"?>
<!-- Generator: Adobe Illustrator 19.0.0, SVG Export Plug-In . SVG Version: 6.00 Build 0)  -->
<svg xmlns="http://www.w3.org/2000/svg" xmlns:xlink="http://www.w3.org/1999/xlink" version="1.1" id="Layer_1" x="0px" y="0px" viewBox="0 0 508 508" style="enable-background:new 0 0 508 508;" xml:space="preserve">
<circle style="fill:#90DFAA;" cx="254" cy="254" r="254"/>
<g>
	<path style="fill:#FFFFFF;" d="M253.5,253.8V120.3c-73.6,0.3-133.2,60-133.2,133.7l0,0c0,73.8,59.9,133.7,133.7,133.7l0,0   c73.8,0,133.7-59.9,133.7-133.7l0,0c0-0.1,0-0.1,0-0.2H253.5z"/>
	<path style="fill:#FFFFFF;" d="M374.9,363.5l19.6,19.6c13.6-14.8,24.5-31.3,32.6-48.7l-25.7-10.7   C394.8,338,385.9,351.4,374.9,363.5z"/>
	<path style="fill:#FFFFFF;" d="M262,416.9v27.8c19.5-0.8,38.9-4.6,57.5-11.4l-10.6-25.7C293.7,413,277.9,416.1,262,416.9z"/>
	<path style="fill:#FFFFFF;" d="M199.1,407.6l-10.6,25.7c18.6,6.8,38,10.6,57.5,11.4v-27.8C230.1,416.1,214.3,413,199.1,407.6z"/>
	<path style="fill:#FFFFFF;" d="M363.5,374.9c-12.1,11-25.6,19.9-39.7,26.5l10.7,25.7c17.5-8.1,33.9-19,48.7-32.6L363.5,374.9z"/>
</g>
<path style="fill:#324A5E;" d="M361.3,151.5l50.5,8.5l-8.5-50.6l-12,11.9c-0.8-0.8-1.5-1.6-2.3-2.4c-74.5-74.5-195.6-74.5-270,0  c-74.5,74.5-74.5,195.6,0,270c16.3,16.3,34.8,29,54.6,38.2l10.6-25.7c-16.5-7.8-31.9-18.5-45.6-32.1c-63.6-63.6-63.6-167.1,0-230.7  s167.1-63.6,230.7,0c0.8,0.8,1.5,1.6,2.3,2.4L361.3,151.5z"/>
<path style="fill:#FF7058;" d="M199.9,280.8c0,4-1.4,7.3-4.2,10s-6.4,4.1-10.6,4.1c-4.3,0-7.8-1.4-10.6-4.1s-4.2-6.1-4.2-10  s1.4-7.3,4.2-10s6.3-4.1,10.6-4.1s7.8,1.4,10.6,4.1S199.9,276.9,199.9,280.8z M238.5,265l-50.4,70.3h-17.3l50.5-70.3H238.5z   M182,284.4c0.8,0.9,1.8,1.4,3,1.4s2.2-0.5,3-1.4s1.2-2.1,1.2-3.6s-0.4-2.7-1.2-3.7s-1.8-1.5-3-1.5s-2.2,0.5-3,1.5s-1.2,2.2-1.2,3.7  C180.9,282.3,181.3,283.5,182,284.4z M239.5,322c0,4-1.4,7.3-4.2,10s-6.4,4.1-10.6,4.1c-4.3,0-7.8-1.4-10.6-4.1s-4.2-6.1-4.2-10  s1.4-7.3,4.2-10s6.3-4.1,10.6-4.1s7.8,1.4,10.6,4.1S239.5,318,239.5,322z M221.6,325.5c0.8,0.9,1.8,1.4,3,1.4s2.2-0.5,3-1.4  s1.2-2.1,1.2-3.6s-0.4-2.7-1.2-3.7s-1.8-1.5-3-1.5s-2.2,0.5-3,1.5s-1.2,2.2-1.2,3.7C220.5,323.4,220.9,324.6,221.6,325.5z"/>
<g>
</g>
<g>
</g>
<g>
</g>
<g>
</g>
<g>
</g>
<g>
</g>
<g>
</g>
<g>
</g>
<g>
</g>
<g>
</g>
<g>
</g>
<g>
</g>
<g>
</g>
<g>
</g>
<g>
</g>
</svg>
