<?xml version="1.0" encoding="iso-8859-1"?>
<!-- Generator: Adobe Illustrator 19.0.0, SVG Export Plug-In . SVG Version: 6.00 Build 0)  -->
<svg xmlns="http://www.w3.org/2000/svg" xmlns:xlink="http://www.w3.org/1999/xlink" version="1.1" id="Layer_1" x="0px" y="0px" viewBox="0 0 508 508" style="enable-background:new 0 0 508 508;" xml:space="preserve">
<circle style="fill:#FFD05B;" cx="254" cy="254" r="254"/>
<path style="fill:#324A5E;" d="M343.3,280.5h-83.6v-51.9h-11.3v51.9h-83.6c-13.5,0-24.6,11-24.6,24.6v89.3h11.7v-89.3  c0-7.1,5.8-12.8,12.8-12.8h47.4v76.4h11.7v-76.4h60.3v99.5h11.7v-99.5h47.4c7.1,0,12.8,5.8,12.8,12.8v59.5h11.7v-59.5  C367.9,291.5,356.8,280.5,343.3,280.5z"/>
<g>
	<path style="fill:#FFFFFF;" d="M389.2,154.6c2.2-4.6,3.5-9.6,3.5-15c0-19-15.4-34.4-34.4-34.4c-5.2,0-10.2,1.2-14.6,3.3   c-11-19.9-32.1-33.3-56.5-33.3c-13.7,0-26.4,4.3-36.9,11.7c-12.6-14.4-31.2-23.5-51.8-23.5c-38.1,0-69,30.9-69,69   c0,5.7,0.8,11.1,2,16.4c-18.5,5.5-32.1,22.6-32.1,42.9c0,24.7,20,44.8,44.8,44.8h219.7c24.7,0,44.8-20,44.8-44.8   C408.6,176.1,400.9,162.6,389.2,154.6z"/>
	<circle style="fill:#FFFFFF;" cx="362" cy="364.6" r="31.9"/>
</g>
<circle style="fill:#FF7058;" cx="362" cy="364.6" r="20.2"/>
<circle style="fill:#FFFFFF;" cx="290" cy="391.8" r="31.9"/>
<circle style="fill:#FF7058;" cx="290" cy="391.8" r="20.2"/>
<circle style="fill:#FFFFFF;" cx="218" cy="368.7" r="31.9"/>
<circle style="fill:#FF7058;" cx="218" cy="368.7" r="20.2"/>
<circle style="fill:#FFFFFF;" cx="146" cy="391.8" r="31.9"/>
<circle style="fill:#FF7058;" cx="146" cy="391.8" r="20.2"/>
<g>
</g>
<g>
</g>
<g>
</g>
<g>
</g>
<g>
</g>
<g>
</g>
<g>
</g>
<g>
</g>
<g>
</g>
<g>
</g>
<g>
</g>
<g>
</g>
<g>
</g>
<g>
</g>
<g>
</g>
</svg>
