<?xml version="1.0" encoding="iso-8859-1"?>
<!-- Generator: Adobe Illustrator 19.0.0, SVG Export Plug-In . SVG Version: 6.00 Build 0)  -->
<svg xmlns="http://www.w3.org/2000/svg" xmlns:xlink="http://www.w3.org/1999/xlink" version="1.1" id="Layer_1" x="0px" y="0px" viewBox="0 0 508 508" style="enable-background:new 0 0 508 508;" xml:space="preserve">
<circle style="fill:#FD8469;" cx="254" cy="254" r="254"/>
<path style="fill:#FFFFFF;" d="M348.1,257.4c1.5-3.2,2.4-6.7,2.4-10.5c0-13.2-10.7-24-24-24c-3.6,0-7.1,0.8-10.2,2.3  c-7.7-13.8-22.4-23.2-39.3-23.2c-9.6,0-18.4,3-25.7,8.1c-8.8-10-21.7-16.4-36.1-16.4c-26.5,0-48.1,21.5-48.1,48.1  c0,3.9,0.5,7.8,1.4,11.4c-12.9,3.8-22.4,15.7-22.4,29.9c0,17.2,14,31.2,31.2,31.2h153c17.2,0,31.2-14,31.2-31.2  C361.7,272.4,356.3,263,348.1,257.4z"/>
<path style="fill:#324A5E;" d="M253.8,434.4c-99.4,0-180.4-80.9-180.4-180.4S154.3,73.6,253.8,73.6s180.3,81,180.3,180.4  S353.2,434.4,253.8,434.4z M253.8,89.5c-90.7,0-164.5,73.8-164.5,164.5s73.8,164.5,164.5,164.5S418.3,344.7,418.3,254  S344.5,89.5,253.8,89.5z"/>
<circle style="fill:#FFFFFF;" cx="422.1" cy="254" r="37.7"/>
<circle style="fill:#54C0EB;" cx="422.1" cy="254" r="21"/>
<circle style="fill:#FFFFFF;" cx="81.4" cy="254" r="37.7"/>
<circle style="fill:#54C0EB;" cx="81.4" cy="254" r="21"/>
<circle style="fill:#FFFFFF;" cx="251.7" cy="424.4" r="37.7"/>
<circle style="fill:#54C0EB;" cx="251.7" cy="424.4" r="21"/>
<circle style="fill:#FFFFFF;" cx="251.7" cy="83.6" r="37.7"/>
<circle style="fill:#54C0EB;" cx="251.7" cy="83.6" r="21"/>
<g>
</g>
<g>
</g>
<g>
</g>
<g>
</g>
<g>
</g>
<g>
</g>
<g>
</g>
<g>
</g>
<g>
</g>
<g>
</g>
<g>
</g>
<g>
</g>
<g>
</g>
<g>
</g>
<g>
</g>
</svg>
