<?xml version="1.0" encoding="iso-8859-1"?>
<!-- Generator: Adobe Illustrator 19.0.0, SVG Export Plug-In . SVG Version: 6.00 Build 0)  -->
<svg xmlns="http://www.w3.org/2000/svg" xmlns:xlink="http://www.w3.org/1999/xlink" version="1.1" id="Layer_1" x="0px" y="0px" viewBox="0 0 508 508" style="enable-background:new 0 0 508 508;" xml:space="preserve">
<circle style="fill:#FD8469;" cx="254" cy="254" r="254"/>
<rect x="277.395" y="127.786" transform="matrix(-0.7071 -0.7071 0.7071 -0.7071 438.4477 536.7813)" style="fill:#E6E9EE;" width="105.999" height="99.599"/>
<path style="fill:#324A5E;" d="M127.3,380.7L127.3,380.7c-29.9-29.9-29.9-78.3,0-108.1L246,153.8c7.7-7.7,20.2-7.7,27.8,0l80.3,80.3  c7.7,7.7,7.7,20.2,0,27.8L235.4,380.7C205.5,410.6,157.1,410.6,127.3,380.7z"/>
<g>
	
		<rect x="355.713" y="168.409" transform="matrix(-0.7071 -0.7071 0.7071 -0.7071 502.8585 558.8096)" style="fill:#ACB3BA;" width="22.9" height="13.7"/>
	
		<rect x="321.303" y="134.011" transform="matrix(-0.7071 -0.7071 0.7071 -0.7071 468.4403 475.7562)" style="fill:#ACB3BA;" width="22.9" height="13.7"/>
</g>
<path style="fill:#FFFFFF;" d="M280.1,284l-11.5-11.5c-1.3-1.3-3.5-1.3-4.9,0L252.3,284c-1.3,1.3-1.3,3.5,0,4.9l3.5,3.5L240,308.2  l-30.2-3.5l54.3-54.3l11.7,11.7l6-34.5l-34.5,6l11.7,11.7l-66.6,66.6l-3.8-32.3l16.2-16.2c4.4,2.4,10,1.8,13.7-1.9  c4.5-4.5,4.5-11.8,0-16.4c-4.5-4.5-11.8-4.5-16.4,0c-3.7,3.7-4.3,9.3-1.9,13.7l-18.4,18.4l4.7,40.5l0,0L178,326  c-5.5-3.2-12.6-2.4-17.3,2.2c-5.6,5.6-5.6,14.6,0,20.2s14.6,5.6,20.2,0c4.7-4.7,5.4-11.8,2.2-17.3l20.7-20.7l38.4,4.5l18-18l3.4,3.4  c1.3,1.3,3.5,1.3,4.9,0l11.5-11.5C281.5,287.5,281.5,285.3,280.1,284z"/>
<g>
</g>
<g>
</g>
<g>
</g>
<g>
</g>
<g>
</g>
<g>
</g>
<g>
</g>
<g>
</g>
<g>
</g>
<g>
</g>
<g>
</g>
<g>
</g>
<g>
</g>
<g>
</g>
<g>
</g>
</svg>
