<?xml version="1.0" encoding="iso-8859-1"?>
<!-- Generator: Adobe Illustrator 19.0.0, SVG Export Plug-In . SVG Version: 6.00 Build 0)  -->
<svg xmlns="http://www.w3.org/2000/svg" xmlns:xlink="http://www.w3.org/1999/xlink" version="1.1" id="Layer_1" x="0px" y="0px" viewBox="0 0 508 508" style="enable-background:new 0 0 508 508;" xml:space="preserve">
<path style="fill:#84DBFF;" d="M0,254C0,113.7,113.7,0,254,0s254,113.7,254,254S394.3,508,254,508S0,394.3,0,254z"/>
<path style="fill:#324A5E;" d="M359.4,84.6H148.6c-11.7,0-21.1,9.5-21.1,21.1v295.1c0,11.7,9.5,21.1,21.1,21.1h210.7  c11.7,0,21.1-9.5,21.1-21.1v-295C380.5,94.1,371,84.6,359.4,84.6z"/>
<rect x="139.6" y="118.6" style="fill:#FFFFFF;" width="228.9" height="243.8"/>
<g>
	<path style="fill:#2B3B4E;" d="M285.8,105.9h-63.6c-2.6,0-4.6-2.1-4.6-4.6l0,0c0-2.6,2.1-4.6,4.6-4.6h63.6c2.6,0,4.6,2.1,4.6,4.6   l0,0C290.4,103.8,288.4,105.9,285.8,105.9z"/>
	<circle style="fill:#2B3B4E;" cx="254" cy="392.3" r="17"/>
</g>
<polygon style="fill:#FF7058;" points="323.9,199.2 296,218.5 255.2,215 220.4,231.2 184.1,222.1 184.1,302.3 323.9,302.3 "/>
<path style="fill:#FFD05B;" d="M343.1,322.9H165.4V199.2c0-2.2,1.8-4,4-4s4,1.8,4,4V315h169.7c2.2,0,4,1.8,4,4  C347,321.2,345.3,322.9,343.1,322.9z"/>
<g>
</g>
<g>
</g>
<g>
</g>
<g>
</g>
<g>
</g>
<g>
</g>
<g>
</g>
<g>
</g>
<g>
</g>
<g>
</g>
<g>
</g>
<g>
</g>
<g>
</g>
<g>
</g>
<g>
</g>
</svg>
