<?xml version="1.0" encoding="iso-8859-1"?>
<!-- Generator: Adobe Illustrator 19.0.0, SVG Export Plug-In . SVG Version: 6.00 Build 0)  -->
<svg xmlns="http://www.w3.org/2000/svg" xmlns:xlink="http://www.w3.org/1999/xlink" version="1.1" id="Layer_1" x="0px" y="0px" viewBox="0 0 508 508" style="enable-background:new 0 0 508 508;" xml:space="preserve">
<circle style="fill:#324A5E;" cx="254" cy="254" r="254"/>
<path style="fill:#E6E9EE;" d="M254,58.7L254,58.7C146.1,58.7,58.7,146.1,58.7,254l0,0c0,107.9,87.5,195.3,195.3,195.3l0,0  c107.9,0,195.3-87.5,195.3-195.3l0,0C449.3,146.1,361.9,58.7,254,58.7z"/>
<path style="fill:#FFFFFF;" d="M254,75.2L254,75.2c-98.7,0-178.8,80-178.8,178.8l0,0c0,98.7,80,178.8,178.8,178.8l0,0  c98.7,0,178.8-80,178.8-178.8l0,0C432.8,155.3,352.7,75.2,254,75.2z"/>
<path style="fill:#E6E9EE;" d="M254,313.9L254,313.9c-33.1,0-59.9-26.8-59.9-59.9l0,0c0-33.1,26.8-59.9,59.9-59.9l0,0  c33.1,0,59.9,26.8,59.9,59.9l0,0C313.9,287.1,287.1,313.9,254,313.9z"/>
<path style="fill:#324A5E;" d="M254,279L254,279c-13.8,0-25-11.2-25-25l0,0c0-13.8,11.2-25,25-25l0,0c13.8,0,25,11.2,25,25l0,0  C279,267.8,267.8,279,254,279z"/>
<g>
	<path style="fill:#E6E9EE;" d="M219.2,187.2l-33.7-83.3c-15.8,7.2-30.3,16.8-42.9,28.4l63.5,63.5   C210.1,192.5,214.5,189.6,219.2,187.2z"/>
	<path style="fill:#E6E9EE;" d="M246.7,179V89.2c-16.7,0.7-32.7,3.9-47.8,9.3l33.7,83.3C237.2,180.4,241.9,179.5,246.7,179z"/>
	<path style="fill:#E6E9EE;" d="M301.9,195.8l63.5-63.5c-12-11-25.5-20.2-40.3-27.2L290,187.8C294.2,190.1,298.2,192.8,301.9,195.8z   "/>
	<path style="fill:#E6E9EE;" d="M288.8,320.8l33.7,83.3c15.8-7.2,30.3-16.8,42.9-28.4l-63.5-63.5   C297.9,315.5,293.5,318.4,288.8,320.8z"/>
	<path style="fill:#E6E9EE;" d="M261.2,329v89.8c16.7-0.7,32.7-3.9,47.8-9.2l-33.7-83.3C270.8,327.6,266.1,328.5,261.2,329z"/>
	<path style="fill:#E6E9EE;" d="M206.1,312.2l-63.5,63.5c12,11,25.5,20.2,40.3,27.2l35.1-82.7C213.8,317.9,209.8,315.2,206.1,312.2z   "/>
</g>
<g>
</g>
<g>
</g>
<g>
</g>
<g>
</g>
<g>
</g>
<g>
</g>
<g>
</g>
<g>
</g>
<g>
</g>
<g>
</g>
<g>
</g>
<g>
</g>
<g>
</g>
<g>
</g>
<g>
</g>
</svg>
