<?xml version="1.0" encoding="iso-8859-1"?>
<!-- Generator: Adobe Illustrator 19.0.0, SVG Export Plug-In . SVG Version: 6.00 Build 0)  -->
<svg xmlns="http://www.w3.org/2000/svg" xmlns:xlink="http://www.w3.org/1999/xlink" version="1.1" id="Layer_1" x="0px" y="0px" viewBox="0 0 508 508" style="enable-background:new 0 0 508 508;" xml:space="preserve">
<circle style="fill:#90DFAA;" cx="254" cy="254" r="254"/>
<path style="fill:#324A5E;" d="M360.8,85.3H147.2c-10.9,0-19.7,8.8-19.7,19.7v297.8c0,10.9,8.8,19.7,19.7,19.7h213.5  c10.9,0,19.7-8.8,19.7-19.7V105.1C380.5,94.2,371.7,85.3,360.8,85.3z"/>
<rect x="139.6" y="119.4" style="fill:#FFFFFF;" width="228.9" height="243.8"/>
<g>
	<path style="fill:#2B3B4E;" d="M285.8,106.6h-63.6c-2.6,0-4.6-2.1-4.6-4.6l0,0c0-2.6,2.1-4.6,4.6-4.6h63.6c2.6,0,4.6,2.1,4.6,4.6   l0,0C290.4,104.5,288.4,106.6,285.8,106.6z"/>
	<circle style="fill:#2B3B4E;" cx="254" cy="393" r="17"/>
</g>
<g>
	<path style="fill:#ACB3BA;" d="M183.1,172.5h12.6v31.1H189v-25.2h-5.9V172.5z"/>
	<path style="fill:#ACB3BA;" d="M214.9,204c-4.3,0-7.5-1.5-9.6-4.4s-3.2-6.8-3.2-11.7s1.1-8.8,3.2-11.7c2.1-2.9,5.3-4.4,9.6-4.4   s7.5,1.5,9.6,4.4s3.2,6.8,3.2,11.7s-1.1,8.8-3.2,11.7C222.4,202.5,219.2,204,214.9,204z M210.4,180.4c-1,1.9-1.5,4.4-1.5,7.5   s0.5,5.6,1.5,7.5s2.5,2.8,4.6,2.8s3.6-0.9,4.6-2.8c1-1.9,1.5-4.4,1.5-7.5s-0.5-5.6-1.5-7.5s-2.5-2.8-4.6-2.8   C212.9,177.6,211.3,178.5,210.4,180.4z"/>
	<path style="fill:#ACB3BA;" d="M231.6,172.5h12.6v31.1h-6.7v-25.2h-5.9L231.6,172.5L231.6,172.5z"/>
	<path style="fill:#ACB3BA;" d="M263.5,204c-4.3,0-7.5-1.5-9.6-4.4s-3.2-6.8-3.2-11.7s1.1-8.8,3.2-11.7c2.1-2.9,5.3-4.4,9.6-4.4   s7.5,1.5,9.6,4.4s3.2,6.8,3.2,11.7s-1.1,8.8-3.2,11.7S267.8,204,263.5,204z M258.9,180.4c-1,1.9-1.5,4.4-1.5,7.5s0.5,5.6,1.5,7.5   s2.5,2.8,4.6,2.8s3.6-0.9,4.6-2.8c1-1.9,1.5-4.4,1.5-7.5s-0.5-5.6-1.5-7.5s-2.5-2.8-4.6-2.8C261.4,177.6,259.9,178.5,258.9,180.4z"/>
	<path style="fill:#ACB3BA;" d="M280.2,172.5h12.6v31.1h-6.7v-25.2h-5.9V172.5z"/>
	<path style="fill:#ACB3BA;" d="M312.1,204c-4.3,0-7.5-1.5-9.6-4.4s-3.2-6.8-3.2-11.7s1.1-8.8,3.2-11.7s5.3-4.4,9.6-4.4   s7.5,1.5,9.6,4.4s3.2,6.8,3.2,11.7s-1.1,8.8-3.2,11.7S316.4,204,312.1,204z M307.5,180.4c-1,1.9-1.5,4.4-1.5,7.5s0.5,5.6,1.5,7.5   s2.5,2.8,4.6,2.8s3.6-0.9,4.6-2.8c1-1.9,1.5-4.4,1.5-7.5s-0.5-5.6-1.5-7.5s-2.5-2.8-4.6-2.8C310,177.6,308.5,178.5,307.5,180.4z"/>
	<path style="fill:#ACB3BA;" d="M183.1,225.9h12.6V257H189v-25.2h-5.9V225.9z"/>
	<path style="fill:#ACB3BA;" d="M214.9,257.3c-4.3,0-7.5-1.5-9.6-4.4s-3.2-6.8-3.2-11.7s1.1-8.8,3.2-11.7c2.1-2.9,5.3-4.4,9.6-4.4   s7.5,1.5,9.6,4.4s3.2,6.8,3.2,11.7s-1.1,8.8-3.2,11.7C222.4,255.8,219.2,257.3,214.9,257.3z M210.4,233.7c-1,1.9-1.5,4.4-1.5,7.5   s0.5,5.6,1.5,7.5s2.5,2.8,4.6,2.8s3.6-0.9,4.6-2.8c1-1.9,1.5-4.4,1.5-7.5s-0.5-5.6-1.5-7.5s-2.5-2.8-4.6-2.8   S211.3,231.9,210.4,233.7z"/>
	<path style="fill:#ACB3BA;" d="M231.6,225.9h12.6V257h-6.7v-25.2h-5.9L231.6,225.9L231.6,225.9z"/>
	<path style="fill:#ACB3BA;" d="M263.5,257.3c-4.3,0-7.5-1.5-9.6-4.4s-3.2-6.8-3.2-11.7s1.1-8.8,3.2-11.7c2.1-2.9,5.3-4.4,9.6-4.4   s7.5,1.5,9.6,4.4s3.2,6.8,3.2,11.7s-1.1,8.8-3.2,11.7S267.8,257.3,263.5,257.3z M258.9,233.7c-1,1.9-1.5,4.4-1.5,7.5   s0.5,5.6,1.5,7.5s2.5,2.8,4.6,2.8s3.6-0.9,4.6-2.8c1-1.9,1.5-4.4,1.5-7.5s-0.5-5.6-1.5-7.5s-2.5-2.8-4.6-2.8   S259.9,231.9,258.9,233.7z"/>
	<path style="fill:#ACB3BA;" d="M280.2,225.9h12.6V257h-6.7v-25.2h-5.9V225.9z"/>
	<path style="fill:#ACB3BA;" d="M312.1,257.3c-4.3,0-7.5-1.5-9.6-4.4s-3.2-6.8-3.2-11.7s1.1-8.8,3.2-11.7s5.3-4.4,9.6-4.4   s7.5,1.5,9.6,4.4s3.2,6.8,3.2,11.7s-1.1,8.8-3.2,11.7S316.4,257.3,312.1,257.3z M307.5,233.7c-1,1.9-1.5,4.4-1.5,7.5   s0.5,5.6,1.5,7.5s2.5,2.8,4.6,2.8s3.6-0.9,4.6-2.8c1-1.9,1.5-4.4,1.5-7.5s-0.5-5.6-1.5-7.5s-2.5-2.8-4.6-2.8   S308.5,231.9,307.5,233.7z"/>
	<path style="fill:#ACB3BA;" d="M183.1,279.2h12.6v31.1H189v-25.2h-5.9V279.2z"/>
	<path style="fill:#ACB3BA;" d="M214.9,310.6c-4.3,0-7.5-1.5-9.6-4.4s-3.2-6.8-3.2-11.7c0-4.9,1.1-8.8,3.2-11.7   c2.1-2.9,5.3-4.4,9.6-4.4s7.5,1.5,9.6,4.4s3.2,6.8,3.2,11.7c0,4.9-1.1,8.8-3.2,11.7C222.4,309.2,219.2,310.6,214.9,310.6z    M210.4,287.1c-1,1.9-1.5,4.4-1.5,7.5s0.5,5.6,1.5,7.5s2.5,2.8,4.6,2.8s3.6-0.9,4.6-2.8s1.5-4.4,1.5-7.5s-0.5-5.6-1.5-7.5   s-2.5-2.8-4.6-2.8C212.9,284.2,211.3,285.2,210.4,287.1z"/>
	<path style="fill:#ACB3BA;" d="M231.6,279.2h12.6v31.1h-6.7v-25.2h-5.9L231.6,279.2L231.6,279.2z"/>
	<path style="fill:#ACB3BA;" d="M263.5,310.6c-4.3,0-7.5-1.5-9.6-4.4s-3.2-6.8-3.2-11.7c0-4.9,1.1-8.8,3.2-11.7   c2.1-2.9,5.3-4.4,9.6-4.4s7.5,1.5,9.6,4.4s3.2,6.8,3.2,11.7c0,4.9-1.1,8.8-3.2,11.7C271,309.2,267.8,310.6,263.5,310.6z    M258.9,287.1c-1,1.9-1.5,4.4-1.5,7.5s0.5,5.6,1.5,7.5s2.5,2.8,4.6,2.8s3.6-0.9,4.6-2.8s1.5-4.4,1.5-7.5s-0.5-5.6-1.5-7.5   s-2.5-2.8-4.6-2.8C261.4,284.2,259.9,285.2,258.9,287.1z"/>
	<path style="fill:#ACB3BA;" d="M280.2,279.2h12.6v31.1h-6.7v-25.2h-5.9V279.2z"/>
	<path style="fill:#ACB3BA;" d="M312.1,310.6c-4.3,0-7.5-1.5-9.6-4.4s-3.2-6.8-3.2-11.7c0-4.9,1.1-8.8,3.2-11.7   c2.1-2.9,5.3-4.4,9.6-4.4s7.5,1.5,9.6,4.4s3.2,6.8,3.2,11.7c0,4.9-1.1,8.8-3.2,11.7C319.6,309.2,316.4,310.6,312.1,310.6z    M307.5,287.1c-1,1.9-1.5,4.4-1.5,7.5s0.5,5.6,1.5,7.5s2.5,2.8,4.6,2.8s3.6-0.9,4.6-2.8s1.5-4.4,1.5-7.5s-0.5-5.6-1.5-7.5   s-2.5-2.8-4.6-2.8C310,284.2,308.5,285.2,307.5,287.1z"/>
</g>
<g>
</g>
<g>
</g>
<g>
</g>
<g>
</g>
<g>
</g>
<g>
</g>
<g>
</g>
<g>
</g>
<g>
</g>
<g>
</g>
<g>
</g>
<g>
</g>
<g>
</g>
<g>
</g>
<g>
</g>
</svg>
