<?xml version="1.0" encoding="iso-8859-1"?>
<!-- Generator: Adobe Illustrator 19.0.0, SVG Export Plug-In . SVG Version: 6.00 Build 0)  -->
<svg xmlns="http://www.w3.org/2000/svg" xmlns:xlink="http://www.w3.org/1999/xlink" version="1.1" id="Layer_1" x="0px" y="0px" viewBox="0 0 508 508" style="enable-background:new 0 0 508 508;" xml:space="preserve">
<circle style="fill:#54C0EB;" cx="254" cy="254" r="254"/>
<path style="fill:#324A5E;" d="M358.4,83.1H149.6c-13.2,0-23.8,10.7-23.8,23.8v294.3c0,13.2,10.7,23.8,23.8,23.8h208.8  c13.2,0,23.8-10.7,23.8-23.8V106.9C382.2,93.7,371.5,83.1,358.4,83.1z"/>
<rect x="138" y="117.5" style="fill:#FFFFFF;" width="232" height="247"/>
<g>
	<path style="fill:#2B3B4E;" d="M286.2,104.6h-64.4c-2.6,0-4.7-2.1-4.7-4.7l0,0c0-2.6,2.1-4.7,4.7-4.7h64.4c2.6,0,4.7,2.1,4.7,4.7   l0,0C290.9,102.5,288.8,104.6,286.2,104.6z"/>
	<circle style="fill:#2B3B4E;" cx="254" cy="394.9" r="17.2"/>
</g>
<circle style="fill:#FF7058;" cx="254" cy="241.1" r="18.9"/>
<polygon style="fill:#324A5E;" points="337.2,237.1 263.6,237.1 315.6,185.1 310,179.4 258,231.5 258,157.9 250,157.9 250,231.5   198,179.4 192.4,185.1 244.4,237.1 170.8,237.1 170.8,245 244.4,245 192.4,297.1 198,302.7 250,250.7 250,324.3 258,324.3   258,250.6 310,302.7 315.6,297.1 263.6,245 337.2,245 "/>
<circle style="fill:#FF7058;" cx="254" cy="241.1" r="29.1"/>
<g>
	<circle style="fill:#84DBFF;" cx="170.8" cy="241.1" r="18.9"/>
	<circle style="fill:#84DBFF;" cx="337.2" cy="241.1" r="18.9"/>
	<circle style="fill:#84DBFF;" cx="254" cy="157.9" r="18.9"/>
	<circle style="fill:#84DBFF;" cx="254" cy="324.3" r="18.9"/>
	<circle style="fill:#84DBFF;" cx="195.2" cy="182.2" r="18.9"/>
	<circle style="fill:#84DBFF;" cx="312.8" cy="299.9" r="18.9"/>
	<circle style="fill:#84DBFF;" cx="312.8" cy="182.3" r="18.9"/>
	<circle style="fill:#84DBFF;" cx="195.2" cy="299.9" r="18.9"/>
</g>
<g>
</g>
<g>
</g>
<g>
</g>
<g>
</g>
<g>
</g>
<g>
</g>
<g>
</g>
<g>
</g>
<g>
</g>
<g>
</g>
<g>
</g>
<g>
</g>
<g>
</g>
<g>
</g>
<g>
</g>
</svg>
