<?xml version="1.0" encoding="iso-8859-1"?>
<!-- Generator: Adobe Illustrator 19.0.0, SVG Export Plug-In . SVG Version: 6.00 Build 0)  -->
<svg xmlns="http://www.w3.org/2000/svg" xmlns:xlink="http://www.w3.org/1999/xlink" version="1.1" id="Layer_1" x="0px" y="0px" viewBox="0 0 508 508" style="enable-background:new 0 0 508 508;" xml:space="preserve">
<circle style="fill:#90DFAA;" cx="254" cy="254" r="254"/>
<path style="fill:#324A5E;" d="M358.4,83.1H149.6c-13.2,0-23.8,10.7-23.8,23.8v294.3c0,13.2,10.7,23.8,23.8,23.8h208.8  c13.2,0,23.8-10.7,23.8-23.8V106.9C382.2,93.7,371.5,83.1,358.4,83.1z"/>
<rect x="138" y="117.5" style="fill:#FFFFFF;" width="232" height="247"/>
<g>
	<path style="fill:#2B3B4E;" d="M286.2,104.6h-64.4c-2.6,0-4.7-2.1-4.7-4.7l0,0c0-2.6,2.1-4.7,4.7-4.7h64.4c2.6,0,4.7,2.1,4.7,4.7   l0,0C290.9,102.5,288.8,104.6,286.2,104.6z"/>
	<circle style="fill:#2B3B4E;" cx="254" cy="394.9" r="17.2"/>
</g>
<rect x="201.2" y="152.8" style="fill:#CED5E0;" width="105.7" height="99.6"/>
<g>
	<path style="fill:#E6E9EE;" d="M319.2,165.2H188.8c-1.1,0-2-0.9-2-2v-20.8c0-1.1,0.9-2,2-2h130.4c1.1,0,2,0.9,2,2v20.8   C321.2,164.3,320.3,165.2,319.2,165.2z"/>
	<path style="fill:#E6E9EE;" d="M308.8,197.9H199.2c-6.9,0-12.4-5.6-12.4-12.4l0,0c0-6.9,5.6-12.4,12.4-12.4h109.6   c6.9,0,12.4,5.6,12.4,12.4l0,0C321.2,192.4,315.7,197.9,308.8,197.9z"/>
	<path style="fill:#E6E9EE;" d="M308.8,230.6H199.2c-6.9,0-12.4-5.6-12.4-12.4l0,0c0-6.9,5.6-12.4,12.4-12.4h109.6   c6.9,0,12.4,5.6,12.4,12.4l0,0C321.2,225.1,315.7,230.6,308.8,230.6z"/>
	<path style="fill:#E6E9EE;" d="M308.8,263.3H199.2c-6.9,0-12.4-5.6-12.4-12.4l0,0c0-6.9,5.6-12.4,12.4-12.4h109.6   c6.9,0,12.4,5.6,12.4,12.4l0,0C321.2,257.8,315.7,263.3,308.8,263.3z"/>
</g>
<g>
	<path style="fill:#84DBFF;" d="M197.4,158L197.4,158c-2.9,0-5.2-2.3-5.2-5.2l0,0c0-2.9,2.3-5.2,5.2-5.2l0,0c2.9,0,5.2,2.3,5.2,5.2   l0,0C202.6,155.7,200.2,158,197.4,158z"/>
	<path style="fill:#84DBFF;" d="M197.4,190.7L197.4,190.7c-2.9,0-5.2-2.3-5.2-5.2l0,0c0-2.9,2.3-5.2,5.2-5.2l0,0   c2.9,0,5.2,2.3,5.2,5.2l0,0C202.6,188.4,200.2,190.7,197.4,190.7z"/>
	<path style="fill:#84DBFF;" d="M197.4,223.4L197.4,223.4c-2.9,0-5.2-2.3-5.2-5.2l0,0c0-2.9,2.3-5.2,5.2-5.2l0,0   c2.9,0,5.2,2.3,5.2,5.2l0,0C202.6,221.1,200.2,223.4,197.4,223.4z"/>
	<path style="fill:#84DBFF;" d="M197.4,256.1L197.4,256.1c-2.9,0-5.2-2.3-5.2-5.2l0,0c0-2.9,2.3-5.2,5.2-5.2l0,0   c2.9,0,5.2,2.3,5.2,5.2l0,0C202.6,253.8,200.2,256.1,197.4,256.1z"/>
</g>
<g>
	<rect x="296.6" y="282.6" style="fill:#FF7058;" width="21" height="66.4"/>
	<rect x="261.2" y="295.4" style="fill:#FF7058;" width="21" height="53.6"/>
	<rect x="225.8" y="305.7" style="fill:#FF7058;" width="21" height="43.3"/>
	<rect x="190.4" y="314.1" style="fill:#FF7058;" width="21" height="34.9"/>
</g>
<g>
</g>
<g>
</g>
<g>
</g>
<g>
</g>
<g>
</g>
<g>
</g>
<g>
</g>
<g>
</g>
<g>
</g>
<g>
</g>
<g>
</g>
<g>
</g>
<g>
</g>
<g>
</g>
<g>
</g>
</svg>
