<?xml version="1.0" encoding="iso-8859-1"?>
<!-- Generator: Adobe Illustrator 19.0.0, SVG Export Plug-In . SVG Version: 6.00 Build 0)  -->
<svg xmlns="http://www.w3.org/2000/svg" xmlns:xlink="http://www.w3.org/1999/xlink" version="1.1" id="Layer_1" x="0px" y="0px" viewBox="0 0 508 508" style="enable-background:new 0 0 508 508;" xml:space="preserve">
<circle style="fill:#FF7058;" cx="254" cy="254" r="254"/>
<path style="fill:#324A5E;" d="M358.4,82.3H149.6c-13.2,0-23.8,10.7-23.8,23.8v294.3c0,13.2,10.7,23.8,23.8,23.8h208.8  c13.2,0,23.8-10.7,23.8-23.8V106.1C382.2,92.9,371.5,82.3,358.4,82.3z"/>
<rect x="138" y="116.8" style="fill:#FFFFFF;" width="232" height="247"/>
<g>
	<path style="fill:#2B3B4E;" d="M286.2,103.8h-64.4c-2.6,0-4.7-2.1-4.7-4.7l0,0c0-2.6,2.1-4.7,4.7-4.7h64.4c2.6,0,4.7,2.1,4.7,4.7   l0,0C290.9,101.7,288.8,103.8,286.2,103.8z"/>
	<circle style="fill:#2B3B4E;" cx="254" cy="394.1" r="17.2"/>
</g>
<path style="fill:#54C0EB;" d="M286,211v-19.8l-11.5-2c-1.1-4-2.6-7.7-4.6-11.2l6.7-9.6l-14-14l-9.6,6.7c-3.5-2-7.2-3.6-11.2-4.6  l-2-11.5H220l-2,11.5c-4,1.1-7.7,2.6-11.2,4.6l-9.6-6.7l-14,14l6.7,9.6c-2,3.5-3.6,7.2-4.6,11.2l-11.5,2V211l11.5,2  c1.1,4,2.6,7.7,4.6,11.2l-6.7,9.6l14,14l9.6-6.7c3.5,2,7.2,3.6,11.2,4.6l2,11.5h19.8l2-11.5c4-1.1,7.7-2.6,11.2-4.6l9.6,6.7l14-14  l-6.7-9.6c2-3.5,3.6-7.2,4.6-11.2L286,211z M229.9,232.4c-17.3,0-31.3-14-31.3-31.3s14-31.3,31.3-31.3s31.3,14,31.3,31.3  C261.1,218.4,247.1,232.4,229.9,232.4z"/>
<path style="fill:#FFD05B;" d="M325.4,291.5l8.8-2.8l-2.1-15.5l-9.2-0.4c-1.2-3-2.9-5.8-4.8-8.3l4.3-8.2l-12.4-9.5l-6.8,6.2  c-2.9-1.2-6-2.1-9.2-2.5l-2.8-8.8l-15.5,2.1l-0.4,9.2c-3,1.2-5.8,2.9-8.3,4.8l-8.2-4.3l-9.5,12.4l6.3,6.8c-1.2,2.9-2.1,6-2.5,9.2  l-8.8,2.8l2,15.5l9.2,0.4c1.2,3,2.9,5.8,4.8,8.3l-4.3,8.2l12.4,9.5l6.8-6.3c2.9,1.2,6,2.1,9.2,2.5l2.8,8.8l15.5-2.1l0.4-9.2  c3-1.2,5.8-2.9,8.3-4.8l8.2,4.3l9.5-12.4l-6.3-6.8C324.2,297.8,325,294.7,325.4,291.5z M292.6,311.3c-13.5,1.8-26-7.7-27.8-21.3  c-1.8-13.5,7.7-26,21.3-27.7c13.5-1.8,26,7.7,27.7,21.3C315.6,297.1,306.1,309.5,292.6,311.3z"/>
<g>
</g>
<g>
</g>
<g>
</g>
<g>
</g>
<g>
</g>
<g>
</g>
<g>
</g>
<g>
</g>
<g>
</g>
<g>
</g>
<g>
</g>
<g>
</g>
<g>
</g>
<g>
</g>
<g>
</g>
</svg>
