<?xml version="1.0" encoding="iso-8859-1"?>
<!-- Generator: Adobe Illustrator 19.0.0, SVG Export Plug-In . SVG Version: 6.00 Build 0)  -->
<svg xmlns="http://www.w3.org/2000/svg" xmlns:xlink="http://www.w3.org/1999/xlink" version="1.1" id="Layer_1" x="0px" y="0px" viewBox="0 0 508 508" style="enable-background:new 0 0 508 508;" xml:space="preserve">
<circle style="fill:#4CDBC4;" cx="254" cy="254" r="254"/>
<path style="fill:#324A5E;" d="M358.4,83.1H149.6c-13.2,0-23.8,10.7-23.8,23.8v294.3c0,13.2,10.7,23.8,23.8,23.8h208.8  c13.2,0,23.8-10.7,23.8-23.8V106.9C382.2,93.7,371.5,83.1,358.4,83.1z"/>
<rect x="138" y="117.5" style="fill:#FFFFFF;" width="232" height="247"/>
<g>
	<path style="fill:#2B3B4E;" d="M286.2,104.6h-64.4c-2.6,0-4.7-2.1-4.7-4.7l0,0c0-2.6,2.1-4.7,4.7-4.7h64.4c2.6,0,4.7,2.1,4.7,4.7   l0,0C290.9,102.5,288.8,104.6,286.2,104.6z"/>
	<circle style="fill:#2B3B4E;" cx="254" cy="394.9" r="17.2"/>
</g>
<path style="fill:#54C0EB;" d="M254,322.1c-44.7,0-81-36.3-81-81s36.3-81,81-81s81,36.3,81,81C335,285.7,298.7,322.1,254,322.1z   M254,172.1c-38,0-69,31-69,69s31,69,69,69s69-31,69-69C323,203,292,172.1,254,172.1z"/>
<g>
	<path style="fill:#84DBFF;" d="M313.7,250.7h29.2c5.3,0,9.6-4.3,9.6-9.6l0,0c0-5.3-4.3-9.6-9.6-9.6h-29.2c-5.3,0-9.6,4.3-9.6,9.6   l0,0C304,246.4,308.3,250.7,313.7,250.7z"/>
	<path style="fill:#84DBFF;" d="M165.1,250.7h29.2c5.3,0,9.6-4.3,9.6-9.6l0,0c0-5.3-4.3-9.6-9.6-9.6h-29.2c-5.3,0-9.6,4.3-9.6,9.6   l0,0C155.5,246.4,159.8,250.7,165.1,250.7z"/>
	<path style="fill:#84DBFF;" d="M244.4,300.7v29.2c0,5.3,4.3,9.6,9.6,9.6l0,0c5.3,0,9.6-4.3,9.6-9.6v-29.2c0-5.3-4.3-9.6-9.6-9.6   l0,0C248.7,291.1,244.4,295.4,244.4,300.7z"/>
	<path style="fill:#84DBFF;" d="M244.4,152.2v29.2c0,5.3,4.3,9.6,9.6,9.6l0,0c5.3,0,9.6-4.3,9.6-9.6v-29.2c0-5.3-4.3-9.6-9.6-9.6   l0,0C248.7,142.6,244.4,146.9,244.4,152.2z"/>
</g>
<circle style="fill:#54C0EB;" cx="254" cy="241.1" r="12.8"/>
<g>
</g>
<g>
</g>
<g>
</g>
<g>
</g>
<g>
</g>
<g>
</g>
<g>
</g>
<g>
</g>
<g>
</g>
<g>
</g>
<g>
</g>
<g>
</g>
<g>
</g>
<g>
</g>
<g>
</g>
</svg>
