<?xml version="1.0" encoding="iso-8859-1"?>
<!-- Generator: Adobe Illustrator 19.0.0, SVG Export Plug-In . SVG Version: 6.00 Build 0)  -->
<svg xmlns="http://www.w3.org/2000/svg" xmlns:xlink="http://www.w3.org/1999/xlink" version="1.1" id="Layer_1" x="0px" y="0px" viewBox="0 0 508 508" style="enable-background:new 0 0 508 508;" xml:space="preserve">
<circle style="fill:#FFD05B;" cx="254" cy="254" r="254"/>
<path style="fill:#324A5E;" d="M356.7,85.3H151.3c-13.2,0-23.8,10.7-23.8,23.8v289.7c0,13.2,10.7,23.8,23.8,23.8h205.4  c13.2,0,23.8-10.7,23.8-23.8V109.1C380.5,96,369.8,85.3,356.7,85.3z"/>
<rect x="139.6" y="119.4" style="fill:#FFFFFF;" width="228.9" height="243.8"/>
<g>
	<path style="fill:#2B3B4E;" d="M285.8,106.6h-63.6c-2.6,0-4.6-2.1-4.6-4.6l0,0c0-2.6,2.1-4.6,4.6-4.6h63.6c2.6,0,4.6,2.1,4.6,4.6   l0,0C290.4,104.5,288.4,106.6,285.8,106.6z"/>
	<circle style="fill:#2B3B4E;" cx="254" cy="393" r="17"/>
</g>
<polygon style="fill:#324A5E;" points="206,292.4 200.9,286.1 257.8,239.4 205.5,199.6 210.4,193.2 270.8,239.2 "/>
<circle style="fill:#FFD05B;" cx="207.9" cy="196.4" r="21.9"/>
<circle style="fill:#54C0EB;" cx="203.5" cy="289.2" r="22.7"/>
<polygon style="fill:#324A5E;" points="296.7,309.8 259.6,239.1 301.3,175 308.1,179.4 269,239.5 303.9,306.1 "/>
<circle style="fill:#84DBFF;" cx="300.5" cy="306.2" r="21.6"/>
<circle style="fill:#FF7058;" cx="264.3" cy="239.3" r="26.7"/>
<circle style="fill:#2C9984;" cx="304.7" cy="177.2" r="22.5"/>
<g>
</g>
<g>
</g>
<g>
</g>
<g>
</g>
<g>
</g>
<g>
</g>
<g>
</g>
<g>
</g>
<g>
</g>
<g>
</g>
<g>
</g>
<g>
</g>
<g>
</g>
<g>
</g>
<g>
</g>
</svg>
