<?xml version="1.0" encoding="iso-8859-1"?>
<!-- Generator: Adobe Illustrator 19.0.0, SVG Export Plug-In . SVG Version: 6.00 Build 0)  -->
<svg xmlns="http://www.w3.org/2000/svg" xmlns:xlink="http://www.w3.org/1999/xlink" version="1.1" id="Layer_1" x="0px" y="0px" viewBox="0 0 508 508" style="enable-background:new 0 0 508 508;" xml:space="preserve">
<circle style="fill:#FFD05B;" cx="254" cy="254" r="254"/>
<path style="fill:#324A5E;" d="M356.7,85.3H151.3c-13.2,0-23.8,10.7-23.8,23.8v289.7c0,13.2,10.7,23.8,23.8,23.8h205.4  c13.2,0,23.8-10.7,23.8-23.8V109.1C380.5,96,369.8,85.3,356.7,85.3z"/>
<rect x="139.6" y="119.4" style="fill:#FFFFFF;" width="228.9" height="243.8"/>
<g>
	<path style="fill:#2B3B4E;" d="M285.8,106.6h-63.6c-2.6,0-4.6-2.1-4.6-4.6l0,0c0-2.6,2.1-4.6,4.6-4.6h63.6c2.6,0,4.6,2.1,4.6,4.6   l0,0C290.4,104.5,288.4,106.6,285.8,106.6z"/>
	<circle style="fill:#2B3B4E;" cx="254" cy="393" r="17"/>
</g>
<path style="fill:#FF7058;" d="M250.9,257.9v-10.3c-12.9-1.3-24.5-6.4-34.7-15.4l10.3-12.3c7.9,6.9,16,11,24.4,12.3v-27.4  c-10.6-2.5-18.4-5.9-23.4-10c-4.9-4.1-7.4-10.3-7.4-18.4c0-8.1,2.8-14.8,8.5-20s13.1-8,22.3-8.5v-7.1h9v7.2  c10.4,0.8,20.1,4.3,29.4,10.6l-9.2,13c-6.2-4.4-12.9-7.2-20.2-8.2V190h0.4c10.8,2.5,18.8,6,23.9,10.3s7.6,10.6,7.6,18.9  c0,8.2-2.9,15-8.8,20.1c-5.8,5.2-13.6,8-23.2,8.5V258h-8.9V257.9z M240.9,166.7c-2.4,2.1-3.6,4.8-3.6,7.9c0,3.2,0.9,5.6,2.8,7.5  c1.9,1.8,5.5,3.6,10.7,5.3V163C246.7,163.3,243.3,164.6,240.9,166.7z M270.7,228.6c2.6-2.2,4-4.9,4-8.2s-1-5.9-3.1-7.8  c-2.1-1.9-5.9-3.7-11.6-5.4v25.4C264.4,232.1,268,230.8,270.7,228.6z"/>
<g>
	<rect x="156.4" y="290.5" style="fill:#E6E9EE;" width="191.5" height="12.5"/>
	<rect x="156.4" y="314.5" style="fill:#E6E9EE;" width="123.6" height="12.5"/>
</g>
<g>
</g>
<g>
</g>
<g>
</g>
<g>
</g>
<g>
</g>
<g>
</g>
<g>
</g>
<g>
</g>
<g>
</g>
<g>
</g>
<g>
</g>
<g>
</g>
<g>
</g>
<g>
</g>
<g>
</g>
</svg>
