<?xml version="1.0" encoding="iso-8859-1"?>
<!-- Generator: Adobe Illustrator 19.0.0, SVG Export Plug-In . SVG Version: 6.00 Build 0)  -->
<svg xmlns="http://www.w3.org/2000/svg" xmlns:xlink="http://www.w3.org/1999/xlink" version="1.1" id="Layer_1" x="0px" y="0px" viewBox="0 0 508 508" style="enable-background:new 0 0 508 508;" xml:space="preserve">
<circle style="fill:#90DFAA;" cx="254" cy="254" r="254"/>
<path style="fill:#324A5E;" d="M356.7,85.3H151.3c-13.2,0-23.8,10.7-23.8,23.8v289.7c0,13.2,10.7,23.8,23.8,23.8h205.4  c13.2,0,23.8-10.7,23.8-23.8V109.1C380.5,96,369.8,85.3,356.7,85.3z"/>
<rect x="139.6" y="119.3" style="fill:#84DBFF;" width="228.9" height="243.8"/>
<g>
	<path style="fill:#2B3B4E;" d="M285.8,106.6h-63.6c-2.6,0-4.6-2.1-4.6-4.6l0,0c0-2.6,2.1-4.6,4.6-4.6h63.6c2.6,0,4.6,2.1,4.6,4.6   l0,0C290.4,104.5,288.4,106.6,285.8,106.6z"/>
	<circle style="fill:#2B3B4E;" cx="254" cy="393" r="17"/>
</g>
<g>
	<rect x="162.8" y="303.5" style="fill:#54C0EB;" width="182.5" height="11.1"/>
	<rect x="162.8" y="331.2" style="fill:#54C0EB;" width="119.2" height="11.1"/>
</g>
<polygon style="fill:#324A5E;" points="262.2,252.1 228.8,185.5 185.1,234.9 179.7,230.2 230.5,172.8 263.1,238 310.2,168.8   316.1,172.9 "/>
<circle style="fill:#FFFFFF;" cx="313.2" cy="170.9" r="29"/>
<path style="fill:#FF7058;" d="M313.2,190.9c-11,0-20-9-20-20s9-20,20-20s20,9,20,20S324.2,190.9,313.2,190.9z"/>
<circle style="fill:#FFFFFF;" cx="262.6" cy="245.1" r="24.8"/>
<path style="fill:#FF7058;" d="M262.6,260.9c-8.8,0-15.9-7.1-15.9-15.9c0-8.8,7.1-15.9,15.9-15.9s15.9,7.1,15.9,15.9  C278.5,253.8,271.4,260.9,262.6,260.9z"/>
<circle style="fill:#FFFFFF;" cx="229.6" cy="179.1" r="20.7"/>
<path style="fill:#FF7058;" d="M229.6,190.9c-6.5,0-11.8-5.3-11.8-11.8s5.3-11.8,11.8-11.8s11.8,5.3,11.8,11.8  C241.4,185.6,236.1,190.9,229.6,190.9z"/>
<circle style="fill:#FFFFFF;" cx="182.4" cy="232.6" r="16.6"/>
<path style="fill:#FF7058;" d="M182.4,242.6c-5.5,0-10-4.5-10-10s4.5-10,10-10s10,4.5,10,10S187.9,242.6,182.4,242.6z"/>
<g>
</g>
<g>
</g>
<g>
</g>
<g>
</g>
<g>
</g>
<g>
</g>
<g>
</g>
<g>
</g>
<g>
</g>
<g>
</g>
<g>
</g>
<g>
</g>
<g>
</g>
<g>
</g>
<g>
</g>
</svg>
