<?xml version="1.0" encoding="iso-8859-1"?>
<!-- Generator: Adobe Illustrator 19.0.0, SVG Export Plug-In . SVG Version: 6.00 Build 0)  -->
<svg xmlns="http://www.w3.org/2000/svg" xmlns:xlink="http://www.w3.org/1999/xlink" version="1.1" id="Layer_1" x="0px" y="0px" viewBox="0 0 508 508" style="enable-background:new 0 0 508 508;" xml:space="preserve">
<circle style="fill:#FD8469;" cx="254" cy="254" r="254"/>
<path style="fill:#324A5E;" d="M356.7,84.5H151.3c-13.2,0-23.8,10.7-23.8,23.8V398c0,13.2,10.7,23.8,23.8,23.8h205.4  c13.2,0,23.8-10.7,23.8-23.8V108.3C380.5,95.1,369.8,84.5,356.7,84.5z"/>
<rect x="139.6" y="118.5" style="fill:#FFFFFF;" width="228.9" height="243.8"/>
<g>
	<path style="fill:#2B3B4E;" d="M285.8,105.7h-63.6c-2.6,0-4.6-2.1-4.6-4.6l0,0c0-2.6,2.1-4.6,4.6-4.6h63.6c2.6,0,4.6,2.1,4.6,4.6   l0,0C290.4,103.7,288.4,105.7,285.8,105.7z"/>
	<circle style="fill:#2B3B4E;" cx="254" cy="392.2" r="17"/>
</g>
<g>
	<rect x="162.8" y="302.6" style="fill:#E6E9EE;" width="182.5" height="11.1"/>
	<rect x="162.8" y="330.3" style="fill:#E6E9EE;" width="119.2" height="11.1"/>
</g>
<path style="fill:#FFD05B;" d="M257.6,145.7v70.7h-70.2c0.6,38,31.5,68.6,69.6,68.6c38.5,0,69.7-31.2,69.7-69.7  C326.7,177.1,295.8,146,257.6,145.7z"/>
<path style="fill:#84DBFF;" d="M181.3,208.6c0,0.1,0,0.1,0,0.2h68.6V139C211.9,139.6,181.3,170.5,181.3,208.6z"/>
<g>
</g>
<g>
</g>
<g>
</g>
<g>
</g>
<g>
</g>
<g>
</g>
<g>
</g>
<g>
</g>
<g>
</g>
<g>
</g>
<g>
</g>
<g>
</g>
<g>
</g>
<g>
</g>
<g>
</g>
</svg>
