<?xml version="1.0" encoding="iso-8859-1"?>
<!-- Generator: Adobe Illustrator 19.0.0, SVG Export Plug-In . SVG Version: 6.00 Build 0)  -->
<svg xmlns="http://www.w3.org/2000/svg" xmlns:xlink="http://www.w3.org/1999/xlink" version="1.1" id="Layer_1" x="0px" y="0px" viewBox="0 0 508 508" style="enable-background:new 0 0 508 508;" xml:space="preserve">
<circle style="fill:#54C0EB;" cx="254" cy="254" r="254"/>
<path style="fill:#324A5E;" d="M356.7,85.3H151.3c-13.2,0-23.8,10.7-23.8,23.8v289.7c0,13.2,10.7,23.8,23.8,23.8h205.4  c13.2,0,23.8-10.7,23.8-23.8V109.1C380.5,96,369.8,85.3,356.7,85.3z"/>
<rect x="139.6" y="119.4" style="fill:#FFFFFF;" width="228.9" height="243.8"/>
<g>
	<path style="fill:#2B3B4E;" d="M285.8,106.6h-63.6c-2.6,0-4.6-2.1-4.6-4.6l0,0c0-2.6,2.1-4.6,4.6-4.6h63.6c2.6,0,4.6,2.1,4.6,4.6   l0,0C290.4,104.5,288.4,106.6,285.8,106.6z"/>
	<circle style="fill:#2B3B4E;" cx="254" cy="393" r="17"/>
</g>
<g>
	<rect x="186.2" y="225.7" style="fill:#FF7058;" width="25.1" height="29"/>
	<rect x="223" y="208.9" style="fill:#FF7058;" width="25.1" height="45.7"/>
	<rect x="259.9" y="182.6" style="fill:#FF7058;" width="25.1" height="72"/>
	<rect x="296.7" y="141.1" style="fill:#FF7058;" width="25.1" height="113.6"/>
</g>
<g>
	<rect x="162.8" y="275.7" style="fill:#E6E9EE;" width="182.5" height="11.1"/>
	<rect x="162.8" y="303.5" style="fill:#E6E9EE;" width="182.5" height="11.1"/>
	<rect x="162.8" y="331.2" style="fill:#E6E9EE;" width="119.2" height="11.1"/>
</g>
<g>
</g>
<g>
</g>
<g>
</g>
<g>
</g>
<g>
</g>
<g>
</g>
<g>
</g>
<g>
</g>
<g>
</g>
<g>
</g>
<g>
</g>
<g>
</g>
<g>
</g>
<g>
</g>
<g>
</g>
</svg>
