<?xml version="1.0" encoding="iso-8859-1"?>
<!-- Generator: Adobe Illustrator 19.0.0, SVG Export Plug-In . SVG Version: 6.00 Build 0)  -->
<svg xmlns="http://www.w3.org/2000/svg" xmlns:xlink="http://www.w3.org/1999/xlink" version="1.1" id="Layer_1" x="0px" y="0px" viewBox="0 0 508 508" style="enable-background:new 0 0 508 508;" xml:space="preserve">
<circle style="fill:#324A5E;" cx="254" cy="254" r="254"/>
<path style="fill:#4CDBC4;" d="M458.9,200.2L109.4,408.8c-0.8,0.4-1.7,0.2-2.2-0.5L48.6,310c-0.4-0.8-0.2-1.7,0.5-2.2L398.6,99.3  c0.8-0.4,1.7-0.2,2.2,0.5l58.6,98.3C459.9,198.8,459.7,199.8,458.9,200.2z"/>
<g>
	
		<rect x="98.605" y="330.51" transform="matrix(-0.8588 0.5124 -0.5124 -0.8588 573.7171 516.5719)" style="fill:#FFFFFF;" width="234.111" height="13.701"/>
	
		<rect x="312.601" y="229.801" transform="matrix(-0.8588 0.5124 -0.5124 -0.8588 835.7708 242.9182)" style="fill:#FFFFFF;" width="143.607" height="13.701"/>
</g>
<g>
	<path style="fill:#2C9984;" d="M131.4,348.4l-28.7,17.1c-0.5,0.3-1.1,0.1-1.4-0.4l-29.5-49.4c-0.3-0.5-0.1-1.1,0.4-1.4l28.7-17.1   c0.5-0.3,1.1-0.1,1.4,0.4l29.5,49.4C132.1,347.4,131.9,348.1,131.4,348.4z"/>
	<path style="fill:#2C9984;" d="M180.2,319.3l-28.7,17.1c-0.5,0.3-1.1,0.1-1.4-0.4l-29.5-49.4c-0.3-0.5-0.1-1.1,0.4-1.4l28.7-17.1   c0.5-0.3,1.1-0.1,1.4,0.4l29.5,49.4C180.9,318.3,180.7,319,180.2,319.3z"/>
	<path style="fill:#2C9984;" d="M229,290.2l-28.7,17.1c-0.5,0.3-1.1,0.1-1.4-0.4l-29.5-49.4c-0.3-0.5-0.1-1.1,0.4-1.4l28.7-17.1   c0.5-0.3,1.1-0.1,1.4,0.4l29.5,49.4C229.6,289.3,229.4,289.9,229,290.2z"/>
	<path style="fill:#2C9984;" d="M277.7,261.1L249,278.2c-0.5,0.3-1.1,0.1-1.4-0.4l-29.5-49.4c-0.3-0.5-0.1-1.1,0.4-1.4l28.7-17.1   c0.5-0.3,1.1-0.1,1.4,0.4l29.5,49.4C278.4,260.2,278.2,260.8,277.7,261.1z"/>
	<path style="fill:#2C9984;" d="M375.2,202.9L346.5,220c-0.5,0.3-1.1,0.1-1.4-0.4l-29.5-49.4c-0.3-0.5-0.1-1.1,0.4-1.4l28.7-17.1   c0.5-0.3,1.1-0.1,1.4,0.4l29.5,49.4C375.9,202,375.7,202.6,375.2,202.9z"/>
	<path style="fill:#2C9984;" d="M424,173.8L395.3,191c-0.5,0.3-1.1,0.1-1.4-0.4l-29.5-49.4c-0.3-0.5-0.1-1.1,0.4-1.4l28.7-17.1   c0.5-0.3,1.1-0.1,1.4,0.4l29.5,49.4C424.6,172.9,424.5,173.5,424,173.8z"/>
</g>
<g>
</g>
<g>
</g>
<g>
</g>
<g>
</g>
<g>
</g>
<g>
</g>
<g>
</g>
<g>
</g>
<g>
</g>
<g>
</g>
<g>
</g>
<g>
</g>
<g>
</g>
<g>
</g>
<g>
</g>
</svg>
