<?xml version="1.0" encoding="iso-8859-1"?>
<!-- Generator: Adobe Illustrator 19.0.0, SVG Export Plug-In . SVG Version: 6.00 Build 0)  -->
<svg xmlns="http://www.w3.org/2000/svg" xmlns:xlink="http://www.w3.org/1999/xlink" version="1.1" id="Layer_1" x="0px" y="0px" viewBox="0 0 508 508" style="enable-background:new 0 0 508 508;" xml:space="preserve">
<circle style="fill:#84DBFF;" cx="254" cy="254" r="254"/>
<g>
	<path style="fill:#324A5E;" d="M306.6,328.7c-2,0-4.1-0.8-5.6-2.3l-47-47l-47,47c-3.1,3.1-8.1,3.1-11.2,0c-3.1-3.1-3.1-8.1,0-11.2   l52.6-52.6c3-3,8.2-3,11.2,0l52.6,52.6c3.1,3.1,3.1,8.1,0,11.2C310.6,327.9,308.6,328.7,306.6,328.7z"/>
	<path style="fill:#324A5E;" d="M254,276.1c-4.4,0-7.9-3.6-7.9-7.9v-50.9c0-4.4,3.6-7.9,7.9-7.9s7.9,3.6,7.9,7.9v50.9   C261.9,272.5,258.4,276.1,254,276.1z"/>
</g>
<circle style="fill:#FFFFFF;" cx="149.9" cy="324.6" r="74.1"/>
<path style="fill:#F9B54C;" d="M160.8,326.9c0,6.3-4.9,11.4-10.9,11.4s-10.9-5.1-10.9-11.4s4.9-18.4,10.9-18.4  C155.9,308.6,160.8,320.6,160.8,326.9z"/>
<polygon style="fill:#E6E9EE;" points="150,376.3 166.6,357.4 162.7,335.5 149.9,334.7 149.9,338.9 149.8,334.7 137,335.5   133.1,357.4 149.7,376.3 149.7,376.6 149.9,376.5 150,376.6 "/>
<polygon style="fill:#FF7058;" points="151.7,342 151.7,338.4 149.7,338.4 147.7,338.4 147.7,342 140.4,379.6 149.7,392.2   159,379.6 "/>
<path style="fill:#F1543F;" d="M152,343.2l-0.6-0.5c0,0-0.8-0.6-1.6-0.6h-0.1h-0.1c-0.8,0-1.6,0.6-1.6,0.6l-0.6,0.5l0.2-1.2v-3.6  h4.1v3.6L152,343.2z"/>
<path style="fill:#FF7058;" d="M157.8,335.9c0,0-5.6,1.9-5.9,6.2c0,0-1-0.8-2.2-0.8s-2.2,0.8-2.2,0.8c-0.3-4.2-5.9-6.2-5.9-6.2  l8.1-1.1L157.8,335.9z"/>
<path style="fill:#2B3B4E;" d="M125.4,357.7c0,0-2.8,18.2-7.4,20.1c-1.2,0.5-1.9,5.5-2.4,12.6c-4.5-2.3-8.7-5.1-12.6-8.3  c0-1.4,0-2.5,0-3.2c-0.3-8.4,6.1-30.2,5.9-33.2s1.9-2.8,1.9-2.8l0.8-0.3c0,0,4.6,2.3,5.4,2.5C117.7,345.4,125.4,357.7,125.4,357.7z"/>
<path style="fill:#324A5E;" d="M152.4,398.7c-0.9,0-1.7,0-2.6,0c-0.9,0-1.7,0-2.6,0c-9.6-0.3-18.8-2.5-27.2-6.2  c-0.7-6.6-1.7-12.7-2.1-14.7c-0.1-0.5-0.1-0.7-0.1-0.7c1.1-4.8-7-34.1-7-34.1l0.8-0.3l16.1-5.4c0.7-0.2,1.4-0.3,2-0.5  c1-0.3,1.9-0.7,2.6-1.1c0.3-0.2,0.5-0.3,0.8-0.4c0.3-0.2,0.5-0.3,0.7-0.5c0.2-0.1,0.3-0.3,0.5-0.4l0.2-0.2c0.3-0.2,0.6-0.5,0.8-0.7  s0.3-0.3,0.4-0.5c0.2-0.2,0.4-0.5,0.6-0.7c0.1-0.2,0.2-0.3,0.3-0.5s0.2-0.3,0.3-0.4c0.2-0.4,0.4-0.7,0.6-1.1c0-0.1,0.1-0.2,0.1-0.3  v-0.1c0.1-0.2,0.2-0.4,0.2-0.6c0-0.1,0-0.1,0.1-0.2c0,0,0,0,0-0.1v-0.1v0.1c0,0.7,0,1.5,0,2.2c0,0.3,0,0.7,0,1c0,0.5,0,0.9,0.1,1.4  c0,0.3,0,0.5,0.1,0.8c0,0.3,0,0.5,0,0.8c0,0.4,0.1,0.8,0.1,1.2c0,0,0,0,0,0.1c0.2,2.2,0.5,4.6,0.8,6.9c0.1,0.6,0.2,1.2,0.3,1.8  c0,0.1,0,0.2,0.1,0.3c0.2,1.5,0.5,2.9,0.7,4.4c0.2,1.2,0.4,2.4,0.7,3.6c0.1,0.6,0.2,1.2,0.3,1.7c0.6,3.3,1.3,6.5,2,9.5l0,0  c0.1,0.5,0.2,0.9,0.3,1.4c0,0.2,0.1,0.3,0.1,0.4c0.1,0.3,0.1,0.6,0.2,0.8c0,0.1,0.1,0.3,0.1,0.4c0.1,0.3,0.1,0.5,0.2,0.8  c0.1,0.3,0.2,0.7,0.2,1c0,0.2,0.1,0.4,0.1,0.6l0,0c0,0.1,0.1,0.3,0.1,0.4c0.2,0.6,0.3,1.3,0.5,1.9c0.1,0.3,0.1,0.5,0.2,0.7v0.1  c0.1,0.2,0.1,0.4,0.2,0.6c0.3,1.1,0.5,2.2,0.8,3.1c0.1,0.3,0.1,0.5,0.2,0.7c0,0.1,0.1,0.2,0.1,0.4c0.1,0.5,0.2,0.9,0.4,1.3  c0,0.1,0.1,0.2,0.1,0.3c0.1,0.2,0.1,0.4,0.2,0.6c0.1,0.3,0.2,0.6,0.2,0.8c0.1,0.4,0.2,0.7,0.3,1c0.1,0.4,0.2,0.7,0.3,1  c0,0.1,0,0.1,0,0.2s0,0.1,0,0.2s0.1,0.2,0.1,0.3c0,0.1,0,0.2,0.1,0.2c0.1,0.3,0.1,0.4,0.1,0.5l0,0c0.1,0.2,0.2,0.3,0.3,0.5  c0.4,0.7,0.7,1.4,1,2.1c0,0.1,0.1,0.2,0.1,0.3c0,0.1,0.1,0.2,0.1,0.3c0,0.1,0.1,0.1,0.1,0.2l0,0c0.1,0.2,0.2,0.4,0.2,0.6  c0.1,0.2,0.1,0.4,0.2,0.6c0.1,0.2,0.2,0.5,0.2,0.7c0.1,0.2,0.1,0.3,0.1,0.5c0,0.1,0.1,0.1,0.1,0.2c0.1,0.3,0.2,0.5,0.2,0.8  c0.1,0.3,0.2,0.7,0.3,1.1c0.1,0.2,0.1,0.5,0.2,0.7c0,0.1,0,0.2,0.1,0.3c0.1,0.3,0.1,0.6,0.2,0.9c0,0.2,0.1,0.3,0.1,0.5  s0.1,0.4,0.1,0.6C152.1,396.6,152.3,397.6,152.4,398.7z"/>
<path style="fill:#2B3B4E;" d="M127.4,341.9c0,0,14.2,40.1,20,46.5c1.9,2.1,3.4,4.7,4.6,7.3c-0.8-4.1-2-7.8-3.6-10.9  c0,0-10.4-35.4-10.2-55.7c0,0-1,5.4-8.3,7.7l3.1,1.6L127.4,341.9z"/>
<g>
	<path style="fill:#FFFFFF;" d="M160.6,326.9c0,0,1.8,2.3-10.7,7.9c0,0,4.7-0.2,9.1,9.3C159,344.1,164.3,331.5,160.6,326.9z"/>
	<path style="fill:#FFFFFF;" d="M139.1,326.9c0,0-1.8,2.3,10.7,7.9c0,0-4.7-0.2-9.1,9.3C140.7,344.1,135.5,331.5,139.1,326.9z"/>
</g>
<path style="fill:#324A5E;" d="M196.6,378.9c0,0.7,0,1.8,0,3.2c-3.9,3.2-8.1,6-12.6,8.3c-0.4-7.1-1.2-12.1-2.4-12.6  c-4.5-1.9-7.4-20.1-7.4-20.1s7.7-12.3,8.4-12.5s5.4-2.5,5.4-2.5l0.8,0.3c0,0,2.1-0.2,1.9,2.8C190.5,348.7,197,370.5,196.6,378.9z"/>
<path style="fill:#2B3B4E;" d="M181.8,377c0,0-0.1,0.3-0.1,0.7c-0.4,2.1-1.4,8.2-2.1,14.7c-7.3,3.2-15.3,5.3-23.6,6  c-1,0.1-2.1,0.2-3.1,0.2c-0.2,0.1-0.3,0.3-0.4,0.5c0-0.2,0-0.3-0.1-0.4c-0.9,0-1.7,0-2.6,0c-0.9,0-1.7,0-2.6,0  c0.2-1,0.3-2.1,0.5-3.1l0,0c0-0.3,0.1-0.6,0.2-0.8c0.1-0.3,0.1-0.6,0.2-0.9c0-0.1,0-0.1,0-0.2c0.1-0.5,0.3-1.1,0.4-1.6  c0.1-0.2,0.1-0.5,0.2-0.7c0-0.1,0-0.2,0.1-0.3l0,0c0,0,0,0,0-0.1s0-0.1,0.1-0.2c0-0.1,0.1-0.2,0.1-0.3l0,0c0-0.1,0.1-0.2,0.1-0.3  c0-0.2,0.1-0.3,0.2-0.5c0-0.1,0.1-0.3,0.1-0.4s0.1-0.3,0.1-0.4s0-0.1,0.1-0.2c0-0.1,0.1-0.2,0.1-0.3c0-0.1,0.1-0.3,0.2-0.4l0,0  c0.2-0.4,0.3-0.8,0.5-1.2c0.1-0.3,0.2-0.5,0.3-0.8c0-0.1,0.1-0.2,0.1-0.3c0.1-0.2,0.1-0.3,0.2-0.5c0.1-0.2,0.2-0.5,0.4-0.7  c0,0,0-0.1,0-0.2s0.1-0.3,0.1-0.5c0-0.1,0.1-0.3,0.1-0.4s0.1-0.3,0.1-0.5c0.1-0.4,0.3-1,0.4-1.6c0.1-0.3,0.2-0.5,0.2-0.8  c0.1-0.4,0.2-0.8,0.3-1.2c0.1-0.3,0.2-0.7,0.3-1l0,0c0.1-0.4,0.2-0.8,0.3-1.3c0.1-0.2,0.1-0.4,0.2-0.7c0.2-0.7,0.4-1.5,0.6-2.3  c0.1-0.3,0.2-0.6,0.2-0.9c0.3-1,0.5-2.1,0.8-3.1l0,0c0.1-0.5,0.2-1,0.4-1.5c0.1-0.2,0.1-0.5,0.2-0.8c0.1-0.2,0.1-0.5,0.2-0.8  c0.1-0.5,0.3-1.1,0.4-1.6l0,0c0.2-0.7,0.3-1.4,0.5-2c0.1-0.6,0.3-1.2,0.4-1.8c0-0.1,0.1-0.2,0.1-0.4c0.2-0.7,0.3-1.5,0.5-2.2  c0.2-1,0.4-2.1,0.6-3.1c0.1-0.5,0.2-0.9,0.3-1.4c0-0.2,0.1-0.5,0.1-0.7c0.1-0.5,0.2-1,0.3-1.6c0.2-0.8,0.3-1.6,0.4-2.3  c0.1-0.6,0.2-1.2,0.3-1.7c0.2-0.9,0.3-1.9,0.5-2.8c0.1-0.8,0.2-1.5,0.3-2.3c0.3-2.2,0.6-4.4,0.7-6.5l0,0c0-0.5,0.1-0.9,0.1-1.4  c0-0.6,0.1-1.3,0.1-1.9v-0.1c0-0.7,0.1-1.3,0.1-1.9c0-0.2,0-0.4,0-0.6s0-0.5,0-0.7v-1l0,0v0.1c0,0,0,0.1,0,0.2l0,0l0,0  c0,0,0,0,0,0.1c0.1,0.2,0.2,0.6,0.4,1l0,0c0,0.1,0.1,0.2,0.1,0.3l0,0v0.1c0.1,0.2,0.2,0.4,0.4,0.6c0.2,0.3,0.3,0.5,0.6,0.8  c0.2,0.2,0.3,0.4,0.5,0.6c0.1,0.1,0.2,0.2,0.3,0.3c0.2,0.2,0.4,0.4,0.7,0.6c0.2,0.2,0.5,0.4,0.8,0.6c0.2,0.1,0.3,0.2,0.5,0.3  c1.1,0.7,2.4,1.4,4,1.9l0,0c0.6,0.2,1.3,0.4,2,0.5l16.1,5.4l0.8,0.3C188.9,342.9,180.7,372.3,181.8,377z"/>
<g>
	<path style="fill:#324A5E;" d="M172.4,341.9c0,0-14.2,40.1-20,46.5c-1.9,2.1-3.4,4.7-4.6,7.3c0.8-4.1,2-7.8,3.6-10.9   c0,0,10.4-35.4,10.2-55.7c0,0,1,5.4,8.3,7.7l-3.1,1.6L172.4,341.9z"/>
	<path style="fill:#324A5E;" d="M156,398.5c-1,0.1-2.1,0.2-3.1,0.2c0.4-0.4,1-0.6,1.7-0.6C155.1,398,155.6,398.2,156,398.5z"/>
</g>
<ellipse style="fill:#FFD05B;" cx="149.8" cy="306.2" rx="17.3" ry="22.9"/>
<path style="fill:#324A5E;" d="M166.9,284.5l1.8,0.4c-1.7-4.9-5.7-5.6-5.7-5.6c-25.2-13.8-32,8.8-32,8.8c-3.9,8.5,1.8,21.8,1.8,21.8  c-1-6,2.8-16.1,2.8-16.1c-0.8,3,3,5.6,3,5.6c-1-4.7,5.3-6.5,5.3-6.5c-1.1,3,1.8,3.9,1.8,3.9c-1.1-2.5,1-4.5,1-4.5  c-0.9,2.7,0.4,6.3,0.4,6.3c1-10.4,10.1-9.1,10.1-9.1c-2,8.5,4.3,11.6,4.3,11.6c-1.1-0.9-0.7-4.3-0.7-4.3c-0.1,2.2,3,2.9,3,2.9  c-2.7-2.2,0.4-4.9,0.4-4.9c2.3,2.4,2.9,11.7,2.8,14.7c2.1-4.3,0.9-8.1,2.8-15.5C171.7,286.1,166.9,284.5,166.9,284.5z"/>
<circle style="fill:#FFFFFF;" cx="358.1" cy="324.6" r="74.1"/>
<path style="fill:#F9B54C;" d="M369.1,326.9c0,6.3-4.9,11.4-10.9,11.4s-10.9-5.1-10.9-11.4s4.9-18.4,10.9-18.4  S369.1,320.6,369.1,326.9z"/>
<polygon style="fill:#E6E9EE;" points="358.3,376.3 374.9,357.4 371,335.5 358.2,334.7 358.1,338.9 358.1,334.7 345.3,335.5   341.4,357.4 358,376.3 358,376.6 358.1,376.5 358.3,376.6 "/>
<polygon style="fill:#FF7058;" points="360,342 360,338.4 358,338.4 355.9,338.4 356,342 348.7,379.6 358,392.2 367.3,379.6 "/>
<path style="fill:#F1543F;" d="M360.2,343.2l-0.6-0.5c0,0-0.8-0.6-1.6-0.6h-0.1h-0.1c-0.8,0-1.6,0.6-1.6,0.6l-0.6,0.5l0.2-1.2v-3.6  h4.1v3.6L360.2,343.2z"/>
<path style="fill:#FF7058;" d="M366.1,335.9c0,0-5.6,1.9-5.9,6.2c0,0-1-0.8-2.2-0.8s-2.2,0.8-2.2,0.8c-0.3-4.2-5.9-6.2-5.9-6.2  l8.1-1.1L366.1,335.9z"/>
<path style="fill:#2B3B4E;" d="M333.7,357.7c0,0-2.8,18.2-7.4,20.1c-1.2,0.5-1.9,5.5-2.4,12.6c-4.5-2.3-8.7-5.1-12.6-8.3  c0-1.4,0-2.5,0-3.2c-0.3-8.4,6.1-30.2,5.9-33.2s1.9-2.8,1.9-2.8l0.8-0.3c0,0,4.6,2.3,5.3,2.5C326,345.4,333.7,357.7,333.7,357.7z"/>
<path style="fill:#324A5E;" d="M360.7,398.7c-0.9,0-1.7,0-2.6,0s-1.7,0-2.6,0c-9.6-0.3-18.8-2.5-27.2-6.2  c-0.7-6.6-1.7-12.7-2.1-14.7c-0.1-0.5-0.1-0.7-0.1-0.7c1.1-4.8-7-34.1-7-34.1l0.8-0.3l16.1-5.4c0.7-0.2,1.4-0.3,2-0.5  c1-0.3,1.9-0.7,2.6-1.1c0.3-0.2,0.5-0.3,0.8-0.4c0.3-0.2,0.5-0.3,0.7-0.5c0.2-0.1,0.3-0.3,0.5-0.4l0.2-0.2c0.3-0.2,0.6-0.5,0.8-0.7  c0.2-0.2,0.3-0.3,0.4-0.5c0.2-0.2,0.4-0.5,0.6-0.7c0.1-0.2,0.2-0.3,0.3-0.5c0.1-0.2,0.2-0.3,0.3-0.4c0.2-0.4,0.4-0.7,0.6-1.1  c0-0.1,0.1-0.2,0.1-0.3v-0.1c0.1-0.2,0.2-0.4,0.2-0.6c0-0.1,0-0.1,0.1-0.2c0,0,0,0,0-0.1v-0.1v0.1c0,0.7,0,1.5,0,2.2  c0,0.3,0,0.7,0,1c0,0.5,0,0.9,0.1,1.4c0,0.3,0,0.5,0.1,0.8c0,0.3,0,0.5,0,0.8c0,0.4,0.1,0.8,0.1,1.2c0,0,0,0,0,0.1  c0.2,2.2,0.5,4.6,0.8,6.9c0.1,0.6,0.2,1.2,0.3,1.8c0,0.1,0,0.2,0.1,0.3c0.2,1.5,0.5,2.9,0.7,4.4c0.2,1.2,0.4,2.4,0.7,3.6  c0.1,0.6,0.2,1.2,0.3,1.7c0.6,3.3,1.3,6.5,2,9.5l0,0c0.1,0.5,0.2,0.9,0.3,1.4c0,0.2,0.1,0.3,0.1,0.4c0.1,0.3,0.1,0.6,0.2,0.8  c0,0.1,0.1,0.3,0.1,0.4c0.1,0.3,0.1,0.5,0.2,0.8s0.2,0.7,0.2,1c0,0.2,0.1,0.4,0.1,0.6l0,0c0,0.1,0.1,0.3,0.1,0.4  c0.2,0.6,0.3,1.3,0.5,1.9c0.1,0.3,0.1,0.5,0.2,0.7v0.1c0.1,0.2,0.1,0.4,0.2,0.6c0.3,1.1,0.5,2.2,0.8,3.1c0.1,0.3,0.1,0.5,0.2,0.7  c0,0.1,0.1,0.2,0.1,0.4c0.1,0.5,0.2,0.9,0.4,1.3c0,0.1,0.1,0.2,0.1,0.3c0.1,0.2,0.1,0.4,0.2,0.6c0.1,0.3,0.2,0.6,0.2,0.8  c0.1,0.4,0.2,0.7,0.3,1c0.1,0.4,0.2,0.7,0.3,1c0,0.1,0,0.1,0,0.2s0,0.1,0,0.2s0.1,0.2,0.1,0.3c0,0.1,0,0.2,0.1,0.2  c0.1,0.3,0.1,0.4,0.1,0.5l0,0c0.1,0.2,0.2,0.3,0.3,0.5c0.4,0.7,0.7,1.4,1,2.1c0,0.1,0.1,0.2,0.1,0.3c0,0.1,0.1,0.2,0.1,0.3  c0,0.1,0.1,0.1,0.1,0.2l0,0c0.1,0.2,0.2,0.4,0.2,0.6c0.1,0.2,0.1,0.4,0.2,0.6s0.2,0.5,0.2,0.7c0.1,0.2,0.1,0.3,0.1,0.5  c0,0.1,0.1,0.1,0.1,0.2c0.1,0.3,0.2,0.5,0.2,0.8c0.1,0.3,0.2,0.7,0.3,1.1c0.1,0.2,0.1,0.5,0.2,0.7c0,0.1,0,0.2,0.1,0.3  c0.1,0.3,0.1,0.6,0.2,0.9c0,0.2,0.1,0.3,0.1,0.5s0.1,0.4,0.1,0.6C360.4,396.6,360.6,397.6,360.7,398.7z"/>
<path style="fill:#2B3B4E;" d="M335.7,341.9c0,0,14.2,40.1,20,46.5c1.9,2.1,3.4,4.7,4.6,7.3c-0.8-4.1-2-7.8-3.6-10.9  c0,0-10.4-35.4-10.2-55.7c0,0-1,5.4-8.3,7.7l3.1,1.6L335.7,341.9z"/>
<g>
	<path style="fill:#FFFFFF;" d="M368.9,326.9c0,0,1.8,2.3-10.7,7.9c0,0,4.7-0.2,9.1,9.3C367.3,344.1,372.6,331.5,368.9,326.9z"/>
	<path style="fill:#FFFFFF;" d="M347.4,326.9c0,0-1.8,2.3,10.7,7.9c0,0-4.7-0.2-9.1,9.3C349,344.1,343.8,331.5,347.4,326.9z"/>
</g>
<path style="fill:#324A5E;" d="M404.9,378.9c0,0.7,0,1.8,0,3.2c-3.9,3.2-8.1,6-12.6,8.3c-0.4-7.1-1.2-12.1-2.4-12.6  c-4.5-1.9-7.4-20.1-7.4-20.1s7.7-12.3,8.4-12.5c0.7-0.2,5.4-2.5,5.4-2.5l0.8,0.3c0,0,2.1-0.2,1.9,2.8  C398.8,348.7,405.3,370.5,404.9,378.9z"/>
<path style="fill:#2B3B4E;" d="M390.1,377c0,0-0.1,0.3-0.1,0.7c-0.4,2.1-1.4,8.2-2.1,14.7c-7.3,3.2-15.3,5.3-23.6,6  c-1,0.1-2.1,0.2-3.1,0.2c-0.2,0.1-0.3,0.3-0.4,0.5c0-0.2,0-0.3-0.1-0.4c-0.9,0-1.7,0-2.6,0s-1.7,0-2.6,0c0.2-1,0.3-2.1,0.5-3.1l0,0  c0-0.3,0.1-0.6,0.2-0.8c0.1-0.3,0.1-0.6,0.2-0.9c0-0.1,0-0.1,0-0.2c0.1-0.5,0.3-1.1,0.4-1.6c0.1-0.2,0.1-0.5,0.2-0.7  c0-0.1,0-0.2,0.1-0.3l0,0c0,0,0,0,0-0.1s0-0.1,0.1-0.2c0-0.1,0.1-0.2,0.1-0.3l0,0c0-0.1,0.1-0.2,0.1-0.3c0-0.2,0.1-0.3,0.2-0.5  c0-0.1,0.1-0.3,0.1-0.4s0.1-0.3,0.1-0.4s0-0.1,0.1-0.2c0-0.1,0.1-0.2,0.1-0.3c0-0.1,0.1-0.3,0.2-0.4l0,0c0.2-0.4,0.3-0.8,0.5-1.2  c0.1-0.3,0.2-0.5,0.3-0.8c0-0.1,0.1-0.2,0.1-0.3c0.1-0.2,0.1-0.3,0.2-0.5s0.2-0.5,0.4-0.7c0,0,0-0.1,0-0.2s0.1-0.3,0.1-0.5  c0-0.1,0.1-0.3,0.1-0.4s0.1-0.3,0.1-0.5c0.1-0.4,0.3-1,0.4-1.6c0.1-0.3,0.2-0.5,0.2-0.8c0.1-0.4,0.2-0.8,0.3-1.2  c0.1-0.3,0.2-0.7,0.3-1l0,0c0.1-0.4,0.2-0.8,0.3-1.3c0.1-0.2,0.1-0.4,0.2-0.7c0.2-0.7,0.4-1.5,0.6-2.3c0.1-0.3,0.2-0.6,0.2-0.9  c0.3-1,0.5-2.1,0.8-3.1l0,0c0.1-0.5,0.2-1,0.4-1.5c0.1-0.2,0.1-0.5,0.2-0.8c0.1-0.2,0.1-0.5,0.2-0.8c0.1-0.5,0.3-1.1,0.4-1.6l0,0  c0.2-0.7,0.3-1.4,0.5-2c0.1-0.6,0.3-1.2,0.4-1.8c0-0.1,0.1-0.2,0.1-0.4c0.2-0.7,0.3-1.5,0.5-2.2c0.2-1,0.4-2.1,0.6-3.1  c0.1-0.5,0.2-0.9,0.3-1.4c0-0.2,0.1-0.5,0.1-0.7c0.1-0.5,0.2-1,0.3-1.6c0.2-0.8,0.3-1.6,0.4-2.3c0.1-0.6,0.2-1.2,0.3-1.7  c0.2-0.9,0.3-1.9,0.5-2.8c0.1-0.8,0.2-1.5,0.3-2.3c0.3-2.2,0.6-4.4,0.7-6.5l0,0c0-0.5,0.1-0.9,0.1-1.4c0-0.6,0.1-1.3,0.1-1.9v-0.1  c0-0.7,0.1-1.3,0.1-1.9c0-0.2,0-0.4,0-0.6s0-0.5,0-0.7v-1l0,0v0.1c0,0,0,0.1,0,0.2l0,0l0,0c0,0,0,0,0,0.1c0.1,0.2,0.2,0.6,0.4,1l0,0  c0,0.1,0.1,0.2,0.1,0.3l0,0v0.1c0.1,0.2,0.2,0.4,0.4,0.6c0.2,0.3,0.3,0.5,0.6,0.8c0.2,0.2,0.3,0.4,0.5,0.6c0.1,0.1,0.2,0.2,0.3,0.3  c0.2,0.2,0.4,0.4,0.7,0.6c0.2,0.2,0.5,0.4,0.8,0.6c0.2,0.1,0.3,0.2,0.5,0.3c1.1,0.7,2.4,1.4,4,1.9l0,0c0.6,0.2,1.3,0.4,2,0.5  l16.1,5.4l0.8,0.3C397.2,342.9,389,372.3,390.1,377z"/>
<g>
	<path style="fill:#324A5E;" d="M380.6,341.9c0,0-14.2,40.1-20,46.5c-1.9,2.1-3.4,4.7-4.6,7.3c0.8-4.1,2-7.8,3.6-10.9   c0,0,10.4-35.4,10.2-55.7c0,0,1,5.4,8.3,7.7l-3.1,1.6L380.6,341.9z"/>
	<path style="fill:#324A5E;" d="M364.3,398.5c-1,0.1-2.1,0.2-3.1,0.2c0.4-0.4,1-0.6,1.7-0.6C363.4,398,363.9,398.2,364.3,398.5z"/>
</g>
<ellipse style="fill:#FFD05B;" cx="358.1" cy="306.2" rx="17.3" ry="22.9"/>
<path style="fill:#324A5E;" d="M375.2,284.5l1.8,0.4c-1.7-4.9-5.7-5.6-5.7-5.6c-25.2-13.8-32,8.8-32,8.8c-3.9,8.5,1.8,21.8,1.8,21.8  c-1-6,2.8-16.1,2.8-16.1c-0.8,3,3,5.6,3,5.6c-1-4.7,5.3-6.5,5.3-6.5c-1.1,3,1.8,3.9,1.8,3.9c-1.1-2.5,1-4.5,1-4.5  c-0.9,2.7,0.4,6.3,0.4,6.3c1-10.4,10.1-9.1,10.1-9.1c-2,8.5,4.3,11.6,4.3,11.6c-1.1-0.9-0.7-4.3-0.7-4.3c-0.1,2.2,3,2.9,3,2.9  c-2.7-2.2,0.4-4.9,0.4-4.9c2.3,2.4,2.9,11.7,2.8,14.7c2.1-4.3,0.9-8.1,2.8-15.5C380,286.1,375.2,284.5,375.2,284.5z"/>
<circle style="fill:#FFFFFF;" cx="254" cy="153.5" r="74.1"/>
<path style="fill:#F9B54C;" d="M264.9,155.8c0,6.3-4.9,11.4-10.9,11.4s-10.9-5.1-10.9-11.4s4.9-18.4,10.9-18.4  C260,137.4,264.9,149.5,264.9,155.8z"/>
<polygon style="fill:#E6E9EE;" points="254.2,205.2 270.7,186.3 266.9,164.4 254,163.6 254,167.8 254,163.6 241.1,164.4   237.3,186.3 253.9,205.2 253.9,205.5 254,205.3 254.2,205.5 "/>
<polygon style="fill:#FF7058;" points="255.9,170.9 255.9,167.3 253.8,167.3 251.8,167.3 251.8,170.9 244.6,208.5 253.8,221.1   263.1,208.5 "/>
<path style="fill:#F1543F;" d="M256.1,172.1l-0.6-0.5c0,0-0.8-0.6-1.6-0.6h-0.1h-0.1c-0.8,0-1.6,0.6-1.6,0.6l-0.6,0.5l0.2-1.2v-3.6  h4.1v3.6L256.1,172.1z"/>
<path style="fill:#FF7058;" d="M262,164.7c0,0-5.6,1.9-5.9,6.2c0,0-1-0.8-2.2-0.8s-2.2,0.8-2.2,0.8c-0.3-4.2-5.9-6.2-5.9-6.2  l8.1-1.1L262,164.7z"/>
<path style="fill:#2B3B4E;" d="M229.5,186.6c0,0-2.8,18.2-7.4,20.1c-1.2,0.5-1.9,5.5-2.4,12.6c-4.5-2.3-8.7-5.1-12.6-8.3  c0-1.4,0-2.5,0-3.2c-0.3-8.4,6.1-30.2,5.9-33.2c-0.2-3,1.9-2.8,1.9-2.8l0.8-0.3c0,0,4.6,2.3,5.3,2.5  C221.8,174.3,229.5,186.6,229.5,186.6z"/>
<path style="fill:#324A5E;" d="M256.6,227.6c-0.9,0-1.7,0-2.6,0s-1.7,0-2.6,0c-9.6-0.3-18.8-2.5-27.2-6.2  c-0.7-6.6-1.7-12.7-2.1-14.7c-0.1-0.5-0.1-0.7-0.1-0.7c1.1-4.8-7-34.1-7-34.1l0.8-0.3l16.1-5.4c0.7-0.2,1.4-0.3,2-0.5  c1-0.3,1.9-0.7,2.6-1.1c0.3-0.2,0.5-0.3,0.8-0.4c0.3-0.2,0.5-0.3,0.7-0.5c0.2-0.1,0.3-0.3,0.5-0.4l0.2-0.2c0.3-0.2,0.6-0.5,0.8-0.7  s0.3-0.3,0.4-0.5c0.2-0.2,0.4-0.5,0.6-0.7c0.1-0.2,0.2-0.3,0.3-0.5s0.2-0.3,0.3-0.4c0.2-0.4,0.4-0.7,0.6-1.1c0-0.1,0.1-0.2,0.1-0.3  v-0.1c0.1-0.2,0.2-0.4,0.2-0.6c0-0.1,0-0.1,0.1-0.2c0,0,0,0,0-0.1v-0.1v0.1c0,0.7,0,1.5,0,2.2c0,0.3,0,0.7,0,1c0,0.5,0,0.9,0.1,1.4  c0,0.3,0,0.5,0.1,0.8c0,0.3,0,0.5,0,0.8c0,0.4,0.1,0.8,0.1,1.2c0,0,0,0,0,0.1c0.2,2.2,0.5,4.6,0.8,6.9c0.1,0.6,0.2,1.2,0.3,1.8  c0,0.1,0,0.2,0.1,0.3c0.2,1.5,0.5,2.9,0.7,4.4c0.2,1.2,0.4,2.4,0.7,3.6c0.1,0.6,0.2,1.2,0.3,1.7c0.6,3.3,1.3,6.5,2,9.5l0,0  c0.1,0.5,0.2,0.9,0.3,1.4c0,0.2,0.1,0.3,0.1,0.4c0.1,0.3,0.1,0.6,0.2,0.8c0,0.1,0.1,0.3,0.1,0.4c0.1,0.3,0.1,0.5,0.2,0.8  c0.1,0.3,0.2,0.7,0.2,1c0,0.2,0.1,0.4,0.1,0.6l0,0c0,0.1,0.1,0.3,0.1,0.4c0.2,0.6,0.3,1.3,0.5,1.9c0.1,0.3,0.1,0.5,0.2,0.7v0.1  c0.1,0.2,0.1,0.4,0.2,0.6c0.3,1.1,0.5,2.2,0.8,3.1c0.1,0.3,0.1,0.5,0.2,0.7c0,0.1,0.1,0.2,0.1,0.4c0.1,0.5,0.2,0.9,0.4,1.3  c0,0.1,0.1,0.2,0.1,0.3c0.1,0.2,0.1,0.4,0.2,0.6c0.1,0.3,0.2,0.6,0.2,0.8c0.1,0.4,0.2,0.7,0.3,1c0.1,0.4,0.2,0.7,0.3,1  c0,0.1,0,0.1,0,0.2c0,0.1,0,0.1,0,0.2c0,0.1,0.1,0.2,0.1,0.3s0,0.2,0.1,0.2c0.1,0.3,0.1,0.4,0.1,0.5l0,0c0.1,0.2,0.2,0.3,0.3,0.5  c0.4,0.7,0.7,1.4,1,2.1c0,0.1,0.1,0.2,0.1,0.3s0.1,0.2,0.1,0.3s0.1,0.1,0.1,0.2l0,0c0.1,0.2,0.2,0.4,0.2,0.6  c0.1,0.2,0.1,0.4,0.2,0.6c0.1,0.2,0.2,0.5,0.2,0.7c0.1,0.2,0.1,0.3,0.1,0.5c0,0.1,0.1,0.1,0.1,0.2c0.1,0.3,0.2,0.5,0.2,0.8  c0.1,0.3,0.2,0.7,0.3,1.1c0.1,0.2,0.1,0.5,0.2,0.7c0,0.1,0,0.2,0.1,0.3c0.1,0.3,0.1,0.6,0.2,0.9c0,0.2,0.1,0.3,0.1,0.5  s0.1,0.4,0.1,0.6C256.3,225.5,256.4,226.5,256.6,227.6z"/>
<path style="fill:#2B3B4E;" d="M231.5,170.8c0,0,14.2,40.1,20,46.5c1.9,2.1,3.4,4.7,4.6,7.3c-0.8-4.1-2-7.8-3.6-10.9  c0,0-10.4-35.4-10.2-55.7c0,0-1,5.4-8.3,7.7l3.1,1.6L231.5,170.8z"/>
<g>
	<path style="fill:#FFFFFF;" d="M264.8,155.8c0,0,1.8,2.3-10.7,7.9c0,0,4.7-0.2,9.1,9.3C263.1,173,268.4,160.4,264.8,155.8z"/>
	<path style="fill:#FFFFFF;" d="M243.3,155.8c0,0-1.8,2.3,10.7,7.9c0,0-4.7-0.2-9.1,9.3C244.9,173,239.6,160.4,243.3,155.8z"/>
</g>
<path style="fill:#324A5E;" d="M300.8,207.8c0,0.7,0,1.8,0,3.2c-3.9,3.2-8.1,6-12.6,8.3c-0.4-7.1-1.2-12.1-2.4-12.6  c-4.5-1.9-7.4-20.1-7.4-20.1s7.7-12.3,8.4-12.5c0.7-0.2,5.4-2.5,5.4-2.5l0.8,0.3c0,0,2.1-0.2,1.9,2.8  C294.7,177.6,301.1,199.4,300.8,207.8z"/>
<path style="fill:#2B3B4E;" d="M286,205.9c0,0-0.1,0.3-0.1,0.7c-0.4,2.1-1.4,8.2-2.1,14.7c-7.3,3.2-15.3,5.3-23.6,6  c-1,0.1-2.1,0.2-3.1,0.2c-0.2,0.1-0.3,0.3-0.4,0.5c0-0.2,0-0.3-0.1-0.4c-0.9,0-1.7,0-2.6,0s-1.7,0-2.6,0c0.2-1,0.3-2.1,0.5-3.1l0,0  c0-0.3,0.1-0.6,0.2-0.8c0.1-0.3,0.1-0.6,0.2-0.9c0-0.1,0-0.1,0-0.2c0.1-0.5,0.3-1.1,0.4-1.6c0.1-0.2,0.1-0.5,0.2-0.7  c0-0.1,0-0.2,0.1-0.3l0,0c0,0,0,0,0-0.1s0-0.1,0.1-0.2c0-0.1,0.1-0.2,0.1-0.3l0,0c0-0.1,0.1-0.2,0.1-0.3c0-0.2,0.1-0.3,0.2-0.5  c0-0.1,0.1-0.3,0.1-0.4c0-0.1,0.1-0.3,0.1-0.4c0-0.1,0-0.1,0.1-0.2c0-0.1,0.1-0.2,0.1-0.3s0.1-0.3,0.2-0.4l0,0  c0.2-0.4,0.3-0.8,0.5-1.2c0.1-0.3,0.2-0.5,0.3-0.8c0-0.1,0.1-0.2,0.1-0.3c0.1-0.2,0.1-0.3,0.2-0.5s0.2-0.5,0.4-0.7c0,0,0-0.1,0-0.2  c0-0.1,0.1-0.3,0.1-0.5c0-0.1,0.1-0.3,0.1-0.4c0-0.1,0.1-0.3,0.1-0.5c0.1-0.4,0.3-1,0.4-1.6c0.1-0.3,0.2-0.5,0.2-0.8  c0.1-0.4,0.2-0.8,0.3-1.2c0.1-0.3,0.2-0.7,0.3-1l0,0c0.1-0.4,0.2-0.8,0.3-1.3c0.1-0.2,0.1-0.4,0.2-0.7c0.2-0.7,0.4-1.5,0.6-2.3  c0.1-0.3,0.2-0.6,0.2-0.9c0.3-1,0.5-2.1,0.8-3.1l0,0c0.1-0.5,0.2-1,0.4-1.5c0.1-0.2,0.1-0.5,0.2-0.8c0.1-0.2,0.1-0.5,0.2-0.8  c0.1-0.5,0.3-1.1,0.4-1.6l0,0c0.2-0.7,0.3-1.4,0.5-2c0.1-0.6,0.3-1.2,0.4-1.8c0-0.1,0.1-0.2,0.1-0.4c0.2-0.7,0.3-1.5,0.5-2.2  c0.2-1,0.4-2.1,0.6-3.1c0.1-0.5,0.2-0.9,0.3-1.4c0-0.2,0.1-0.5,0.1-0.7c0.1-0.5,0.2-1,0.3-1.6c0.2-0.8,0.3-1.6,0.4-2.3  c0.1-0.6,0.2-1.2,0.3-1.7c0.2-0.9,0.3-1.9,0.5-2.8c0.1-0.8,0.2-1.5,0.3-2.3c0.3-2.2,0.6-4.4,0.7-6.5l0,0c0-0.5,0.1-0.9,0.1-1.4  c0-0.6,0.1-1.3,0.1-1.9V162c0-0.7,0.1-1.3,0.1-1.9c0-0.2,0-0.4,0-0.6c0-0.2,0-0.5,0-0.7v-1l0,0v0.1c0,0,0,0.1,0,0.2l0,0l0,0  c0,0,0,0,0,0.1c0.1,0.2,0.2,0.6,0.4,1l0,0c0,0.1,0.1,0.2,0.1,0.3l0,0v0.1c0.1,0.2,0.2,0.4,0.4,0.6c0.2,0.3,0.3,0.5,0.6,0.8  c0.2,0.2,0.3,0.4,0.5,0.6c0.1,0.1,0.2,0.2,0.3,0.3c0.2,0.2,0.4,0.4,0.7,0.6c0.2,0.2,0.5,0.4,0.8,0.6c0.2,0.1,0.3,0.2,0.5,0.3  c1.1,0.7,2.4,1.4,4,1.9l0,0c0.6,0.2,1.3,0.4,2,0.5l16.1,5.4l0.8,0.3C293,171.8,284.9,201.2,286,205.9z"/>
<g>
	<path style="fill:#324A5E;" d="M276.5,170.8c0,0-14.2,40.1-20,46.5c-1.9,2.1-3.4,4.7-4.6,7.3c0.8-4.1,2-7.8,3.6-10.9   c0,0,10.4-35.4,10.2-55.7c0,0,1,5.4,8.3,7.7l-3.1,1.6L276.5,170.8z"/>
	<path style="fill:#324A5E;" d="M260.2,227.4c-1,0.1-2.1,0.2-3.1,0.2c0.4-0.4,1-0.6,1.7-0.6C259.3,226.9,259.8,227.1,260.2,227.4z"/>
</g>
<ellipse style="fill:#FFD05B;" cx="253.9" cy="135.1" rx="17.3" ry="22.9"/>
<path style="fill:#324A5E;" d="M271,113.4l1.8,0.4c-1.7-4.9-5.7-5.6-5.7-5.6c-25.2-13.8-32,8.8-32,8.8c-3.9,8.5,1.8,21.8,1.8,21.8  c-1-6,2.8-16.1,2.8-16.1c-0.8,3,3,5.6,3,5.6c-1-4.7,5.3-6.5,5.3-6.5c-1.1,3,1.8,3.9,1.8,3.9c-1.1-2.5,1-4.5,1-4.5  c-0.9,2.7,0.4,6.3,0.4,6.3c1-10.4,10.1-9.1,10.1-9.1c-2,8.5,4.3,11.6,4.3,11.6c-1.1-0.9-0.7-4.3-0.7-4.3c-0.1,2.2,3,2.9,3,2.9  c-2.7-2.2,0.4-4.9,0.4-4.9c2.3,2.4,2.9,11.7,2.8,14.7c2.1-4.3,0.9-8.1,2.8-15.5C275.8,115,271,113.4,271,113.4z"/>
<g>
</g>
<g>
</g>
<g>
</g>
<g>
</g>
<g>
</g>
<g>
</g>
<g>
</g>
<g>
</g>
<g>
</g>
<g>
</g>
<g>
</g>
<g>
</g>
<g>
</g>
<g>
</g>
<g>
</g>
</svg>
