<?xml version="1.0" encoding="iso-8859-1"?>
<!-- Generator: Adobe Illustrator 19.0.0, SVG Export Plug-In . SVG Version: 6.00 Build 0)  -->
<svg version="1.1" id="Layer_1" xmlns="http://www.w3.org/2000/svg" xmlns:xlink="http://www.w3.org/1999/xlink" x="0px" y="0px"
	 viewBox="0 0 508 508" style="enable-background:new 0 0 508 508;" xml:space="preserve">
<circle style="fill:#84DBFF;" cx="254" cy="254" r="254"/>
<path style="fill:#54C0EB;" d="M394.8,115.6v33.2c0,1.6-1.2,2.8-2.8,2.8h-11.6v-38.8H392C393.6,112.8,394.8,114,394.8,115.6z"/>
<path style="fill:#FFD05B;" d="M394.8,169.2v33.2c0,1.6-1.2,2.8-2.8,2.8h-11.6v-38.8H392C393.6,166.8,394.8,168,394.8,169.2z"/>
<path style="fill:#FF7058;" d="M394.8,223.2v33.2c0,1.6-1.2,2.8-2.8,2.8h-11.6v-38.8H392C393.6,220.4,394.8,221.6,394.8,223.2z"/>
<path style="fill:#FFFFFF;" d="M394.8,276.8V310c0,1.6-1.2,2.8-2.8,2.8h-11.6V274H392C393.6,274.4,394.8,275.6,394.8,276.8z"/>
<g>
	<path style="fill:#324A5E;" d="M118.4,88.8c1.2-0.8,2.4-1.6,3.6-2.4C120.8,87.2,119.6,88,118.4,88.8z"/>
	<path style="fill:#324A5E;" d="M366,85.2H165.6v337.2H366c8.4,0,14.8-6.8,14.8-14.8V100C380.8,92,374,85.2,366,85.2z"/>
</g>
<path style="fill:#2B3B4E;" d="M165.2,85.2h-37.6c-8.4,0-14.8,6.8-14.8,14.8v307.6c0,8.4,6.8,14.8,14.8,14.8h37.6
	C165.2,422.4,165.2,85.2,165.2,85.2z"/>
<path style="fill:#FFFFFF;" d="M332.4,299.6c-2.4-8.8-8.4-16.4-16.4-21.2l-26.4-15.2l-18,38l-5.6-28.8l0.8-5.6
	c10-3.2,18-15.2,21.2-28.8c2-0.8,4.4-3.2,6-6c2.8-4.8,2.8-10,0-11.6c-1.2-0.8-3.2-0.4-4.8,0.4c-1.6-17.2-13.6-26.4-28-26.4
	s-26.4,9.2-28,26.4c-1.6-1.2-3.6-1.2-4.8-0.4c-2.8,1.6-2.8,6.8,0,11.6c1.6,2.8,4,5.2,6,6c3.2,13.6,11.2,25.6,21.2,28.8l0.8,5.6
	l-5.6,28.8l-18-38l-26.4,15.2c-8,4.8-14,12.4-16.4,21.2l-0.8,3.6c14.4,24.8,41.2,42,72,42s57.6-16.8,72-42L332.4,299.6z"/>
<g>
</g>
<g>
</g>
<g>
</g>
<g>
</g>
<g>
</g>
<g>
</g>
<g>
</g>
<g>
</g>
<g>
</g>
<g>
</g>
<g>
</g>
<g>
</g>
<g>
</g>
<g>
</g>
<g>
</g>
</svg>
