<?xml version="1.0" encoding="iso-8859-1"?>
<!-- Generator: Adobe Illustrator 19.0.0, SVG Export Plug-In . SVG Version: 6.00 Build 0)  -->
<svg version="1.1" id="Layer_1" xmlns="http://www.w3.org/2000/svg" xmlns:xlink="http://www.w3.org/1999/xlink" x="0px" y="0px"
	 viewBox="0 0 508 508" style="enable-background:new 0 0 508 508;" xml:space="preserve">
<circle style="fill:#90DFAA;" cx="254" cy="254" r="254"/>
<polygon style="fill:#324A5E;" points="92,386 92,105.2 75.6,105.2 75.6,402.8 432.4,402.8 432.4,386 "/>
<g>
	<rect x="112.8" y="280.4" style="fill:#FFFFFF;" width="26" height="88.8"/>
	<rect x="167.6" y="240.4" style="fill:#FFFFFF;" width="26" height="128.4"/>
	<rect x="222" y="263.6" style="fill:#FFFFFF;" width="26" height="105.2"/>
	<rect x="276.8" y="220.4" style="fill:#FFFFFF;" width="26" height="148.4"/>
	<rect x="331.2" y="263.6" style="fill:#FFFFFF;" width="26" height="105.2"/>
	<rect x="385.6" y="231.6" style="fill:#FFFFFF;" width="26" height="137.6"/>
	<path style="fill:#FFFFFF;" d="M175.6,200.4L138.8,234c-1.6-4-4.8-6.8-8.8-8l38-34.4C168.8,195.6,172,198.8,175.6,200.4z"/>
	<path style="fill:#FFFFFF;" d="M194,187.6l33.2,16c-3.2,2.8-5.2,6.4-5.2,10.8l0,0l-33.2-16C192,196,194,192,194,187.6L194,187.6z"
		/>
	<path style="fill:#FFFFFF;" d="M286,175.2l-38,35.6c-1.2-4-4.4-7.2-8-8.8l37.2-35.2C278.8,170.8,282,174,286,175.2z"/>
	<path style="fill:#FFFFFF;" d="M302.4,166.4l31.2,26c-3.6,2.4-5.6,6-5.6,10.8l-34-28C298,173.6,301.2,170.4,302.4,166.4z"/>
	<path style="fill:#FFFFFF;" d="M354.8,203.6L354.8,203.6c0-4.8-2-8.4-5.2-10.8l45.6-37.6l7.6,9.2L354.8,203.6z"/>
</g>
<g>
	<circle style="fill:#FF7058;" cx="126.4" cy="238.4" r="13.2"/>
	<circle style="fill:#FF7058;" cx="180.4" cy="188" r="13.2"/>
	<circle style="fill:#FF7058;" cx="235.2" cy="214.4" r="13.2"/>
	<circle style="fill:#FF7058;" cx="289.6" cy="162.4" r="13.2"/>
	<circle style="fill:#FF7058;" cx="341.2" cy="203.6" r="13.2"/>
	<polygon style="fill:#FF7058;" points="408.4,177.6 381.6,146.8 410.4,148.8 	"/>
</g>
<g>
</g>
<g>
</g>
<g>
</g>
<g>
</g>
<g>
</g>
<g>
</g>
<g>
</g>
<g>
</g>
<g>
</g>
<g>
</g>
<g>
</g>
<g>
</g>
<g>
</g>
<g>
</g>
<g>
</g>
</svg>
