<?xml version="1.0" encoding="iso-8859-1"?>
<!-- Generator: Adobe Illustrator 19.0.0, SVG Export Plug-In . SVG Version: 6.00 Build 0)  -->
<svg version="1.1" id="Layer_1" xmlns="http://www.w3.org/2000/svg" xmlns:xlink="http://www.w3.org/1999/xlink" x="0px" y="0px"
	 viewBox="0 0 508 508" style="enable-background:new 0 0 508 508;" xml:space="preserve">
<circle style="fill:#FFD05B;" cx="254" cy="254" r="254"/>
<path style="fill:#F9B54C;" d="M63.2,421.6C110,474.4,178,508,254,508s144-33.6,190.8-86.4H63.2z"/>
<rect x="197.6" y="375.6" style="fill:#FFFFFF;" width="112.8" height="25.6"/>
<rect x="197.6" y="365.6" style="fill:#E6E9EE;" width="112.8" height="10"/>
<path style="fill:#324A5E;" d="M415.6,365.6H92.4c-9.2,0-16.8-7.6-16.8-16.8V132c0-9.2,7.6-16.8,16.8-16.8H416
	c9.2,0,16.8,7.6,16.8,16.8v216.8C432.4,358,425.2,365.6,415.6,365.6z"/>
<path style="fill:#FFFFFF;" d="M75.6,318v30.8c0,9.2,7.6,16.8,16.8,16.8h324c9.2,0,16.8-7.6,16.8-16.8V318H75.6z"/>
<rect x="93.2" y="130.8" style="fill:#84DBFF;" width="322" height="169.2"/>
<g>
	<path style="fill:#E6E9EE;" d="M335.2,421.6c-0.4-11.2-9.6-20.4-21.2-20.4H194c-11.6,0-20.8,9.2-21.2,20.4H335.2z"/>
	<circle style="fill:#E6E9EE;" cx="254" cy="341.2" r="12.4"/>
</g>
<g>
	<rect x="116" y="185.6" style="fill:#FFFFFF;" width="21.6" height="97.2"/>
	<rect x="158.4" y="174" style="fill:#FFFFFF;" width="21.6" height="108.8"/>
	<rect x="200.4" y="222.8" style="fill:#FFFFFF;" width="21.6" height="60"/>
	<rect x="242.8" y="203.2" style="fill:#FFFFFF;" width="21.6" height="79.6"/>
	<rect x="285.2" y="178.4" style="fill:#FFFFFF;" width="21.6" height="104.4"/>
	<rect x="327.2" y="152" style="fill:#FFFFFF;" width="21.6" height="130.8"/>
	<rect x="369.6" y="227.2" style="fill:#FFFFFF;" width="21.6" height="55.6"/>
</g>
<g>
	<rect x="369.6" y="227.2" style="fill:#54C0EB;" width="21.6" height="13.6"/>
	<rect x="327.2" y="152" style="fill:#54C0EB;" width="21.6" height="13.6"/>
	<rect x="285.2" y="178.4" style="fill:#54C0EB;" width="21.6" height="13.6"/>
	<rect x="242.8" y="203.2" style="fill:#54C0EB;" width="21.6" height="13.6"/>
	<rect x="200.4" y="222.8" style="fill:#54C0EB;" width="21.6" height="13.6"/>
	<rect x="158.4" y="174" style="fill:#54C0EB;" width="21.6" height="13.6"/>
	<rect x="116" y="185.6" style="fill:#54C0EB;" width="21.6" height="13.6"/>
</g>
<g>
</g>
<g>
</g>
<g>
</g>
<g>
</g>
<g>
</g>
<g>
</g>
<g>
</g>
<g>
</g>
<g>
</g>
<g>
</g>
<g>
</g>
<g>
</g>
<g>
</g>
<g>
</g>
<g>
</g>
</svg>
