<?xml version="1.0" encoding="iso-8859-1"?>
<!-- Generator: Adobe Illustrator 19.0.0, SVG Export Plug-In . SVG Version: 6.00 Build 0)  -->
<svg version="1.1" id="Layer_1" xmlns="http://www.w3.org/2000/svg" xmlns:xlink="http://www.w3.org/1999/xlink" x="0px" y="0px"
	 viewBox="0 0 508 508" style="enable-background:new 0 0 508 508;" xml:space="preserve">
<circle style="fill:#324A5E;" cx="254" cy="254" r="254"/>
<path style="fill:#FFFFFF;" d="M379.2,432.4H132.8c-6.8,0-12.4-5.6-12.4-12.4V130c0-6.8,5.6-12.4,12.4-12.4h246.4
	c6.8,0,12.4,5.6,12.4,12.4v290.4C391.2,427.2,386,432.4,379.2,432.4z"/>
<g>
	<rect x="145.6" y="310" style="fill:#E6E9EE;" width="220.8" height="11.2"/>
	<rect x="145.6" y="278.4" style="fill:#E6E9EE;" width="220.8" height="11.2"/>
	<rect x="145.6" y="247.2" style="fill:#E6E9EE;" width="220.8" height="11.2"/>
	<rect x="145.6" y="341.2" style="fill:#E6E9EE;" width="220.8" height="11.2"/>
	<rect x="145.6" y="372.8" style="fill:#E6E9EE;" width="220.8" height="11.2"/>
	<rect x="145.6" y="404" style="fill:#E6E9EE;" width="220.8" height="11.2"/>
</g>
<circle style="fill:#4CDBC4;" cx="361.2" cy="341.2" r="64"/>
<polygon style="fill:#FF7058;" points="171.6,235.6 165.6,229.6 206,189.2 222.4,206 276.4,152 304.8,180.8 340.4,145.2 346,151.2 
	304.8,192.4 276.4,163.6 222.4,217.6 206,201.2 "/>
<polygon style="fill:#FFFFFF;" points="393.6,308.4 342,360 328.8,346.8 319.2,356.4 342,379.2 403.2,318 "/>
<g>
	<rect x="200.4" y="99.2" style="fill:#FFD05B;" width="114" height="34"/>
	<circle style="fill:#FFD05B;" cx="257.6" cy="99.2" r="24"/>
</g>
<circle style="fill:#5D5D5D;" cx="257.6" cy="99.2" r="11.6"/>
<g>
</g>
<g>
</g>
<g>
</g>
<g>
</g>
<g>
</g>
<g>
</g>
<g>
</g>
<g>
</g>
<g>
</g>
<g>
</g>
<g>
</g>
<g>
</g>
<g>
</g>
<g>
</g>
<g>
</g>
</svg>
