<?xml version="1.0" encoding="iso-8859-1"?>
<!-- Generator: Adobe Illustrator 19.0.0, SVG Export Plug-In . SVG Version: 6.00 Build 0)  -->
<svg version="1.1" id="Layer_1" xmlns="http://www.w3.org/2000/svg" xmlns:xlink="http://www.w3.org/1999/xlink" x="0px" y="0px"
	 viewBox="0 0 508 508" style="enable-background:new 0 0 508 508;" xml:space="preserve">
<circle style="fill:#FD8469;" cx="254" cy="254" r="254"/>
<path style="fill:#FFFFFF;" d="M113.2,88.8v330c0,7.6,6,13.6,13.6,13.6H334v-47.2c0-7.6,6-13.6,13.6-13.6h47.2V88.8
	c0-7.6-6-13.6-13.6-13.6H126.8C119.2,75.6,113.2,81.6,113.2,88.8z"/>
<path style="fill:#FF7058;" d="M315.6,238.8l6.4,6.4l-25.2,23.2l-16.4-14.8c-2-1.6-4-1.6-6,0.8L245.6,294L222,276.4
	c-1.6-1.2-3.6-1.2-5.2,0.4l-28,25.2c-1.6,1.6-2,4-0.4,6c0.8,0.8,3.2,2,6,0.4l25.2-22.8l24,18c2.4,2,5.2,0,5.6-0.8l28.8-39.2
	l15.6,14.4c1.6,1.6,4,1.6,5.6,0l28-26l6.8,6.8l5.6-24.4L315.6,238.8z"/>
<path style="fill:#E6E9EE;" d="M334,432.4h47.2c7.6,0,13.6-6,13.6-13.6V372h-47.2c-7.6,0-13.6,6-13.6,13.6V432.4z"/>
<path style="fill:#CED5E0;" d="M334,432.4h47.2c7.6,0,13.6-6,13.6-13.6V372L334,432.4z"/>
<polygon style="fill:#E6E9EE;" points="358.4,330.8 171.2,330.8 171.2,203.6 161.2,203.6 161.2,330.8 152,330.8 152,340.8 
	161.2,340.8 161.2,351.2 171.2,351.2 171.2,340.8 358.4,340.8 "/>
<g>
	<path style="fill:#324A5E;" d="M265.6,165.6c0,2.8-2.4,5.2-5.2,5.2h-28.8c-2.8,0-5.2-2.4-5.2-5.2v-52.8c0-2.8,2.4-5.2,5.2-5.2h28.8
		c2.8,0,5.2,2.4,5.2,5.2c0,2.8-2.4,5.2-5.2,5.2h-23.6v16h18.4c2.8,0,5.2,2.4,5.2,5.2s-2.4,5.2-5.2,5.2h-18.4v16h23.6
		C263.2,160,265.6,162.4,265.6,165.6z"/>
	<path style="fill:#324A5E;" d="M268.4,139.2c0-17.6,13.6-31.6,30.4-31.6s30.4,14.4,30.4,31.6c0,17.6-13.6,31.6-30.4,31.6
		S268.4,156.4,268.4,139.2z M278.8,139.2c0,11.6,8.8,21.2,19.6,21.2c10.8,0,20-9.6,20-21.2c0-11.6-8.8-21.2-20-21.2
		C288,118,278.8,127.2,278.8,139.2z"/>
	<path style="fill:#324A5E;" d="M197.6,133.6L197.6,133.6c-4.4,0-8-3.6-8-8s3.6-8,8-8c2.4,0,4.4,0.8,5.6,2.4c2,2,5.2,2.4,7.6,0.4
		c2-2,2.4-5.2,0.4-7.6c-3.6-3.6-8.4-6-13.6-6c-10,0-18.4,8.4-18.4,18.4s8.4,18.4,18.4,18.4c4.4,0,8,3.6,8,8s-3.6,8-8,8
		c-2.4,0-4.4-0.8-5.6-2.4c-2-2-5.2-2.4-7.6-0.4c-2,2-2.4,5.2-0.4,7.6c3.6,3.6,8.4,6,13.6,6c10,0,18.4-8.4,18.4-18.4
		C216,142,207.6,133.6,197.6,133.6z"/>
</g>
<g>
</g>
<g>
</g>
<g>
</g>
<g>
</g>
<g>
</g>
<g>
</g>
<g>
</g>
<g>
</g>
<g>
</g>
<g>
</g>
<g>
</g>
<g>
</g>
<g>
</g>
<g>
</g>
<g>
</g>
</svg>
