<?xml version="1.0" encoding="iso-8859-1"?>
<!-- Generator: Adobe Illustrator 19.0.0, SVG Export Plug-In . SVG Version: 6.00 Build 0)  -->
<svg version="1.1" id="Layer_1" xmlns="http://www.w3.org/2000/svg" xmlns:xlink="http://www.w3.org/1999/xlink" x="0px" y="0px"
	 viewBox="0 0 508 508" style="enable-background:new 0 0 508 508;" xml:space="preserve">
<circle style="fill:#FD8469;" cx="254" cy="254" r="254"/>
<path style="fill:#FFFFFF;" d="M426.4,124.8c0-6-4.8-11.2-11.2-11.2H92.8c-6,0-11.2,4.8-11.2,11.2v209.6c0,6,4.8,11.2,11.2,11.2
	h322.4c6,0,11.2-4.8,11.2-11.2L426.4,124.8z"/>
<polygon style="fill:#E6E9EE;" points="141.6,290.8 141.6,156.4 130,156.4 130,302.4 378,302.4 378,290.8 "/>
<rect x="156" y="217.2" style="fill:#324A5E;" width="18" height="61.6"/>
<rect x="194" y="189.6" style="fill:#84DBFF;" width="18" height="89.2"/>
<rect x="232" y="206" style="fill:#2C9984;" width="18" height="72.8"/>
<rect x="269.6" y="175.6" style="fill:#FFD05B;" width="18" height="103.2"/>
<rect x="307.6" y="206" style="fill:#54C0EB;" width="18" height="72.8"/>
<rect x="345.6" y="183.6" style="fill:#FF7058;" width="18" height="95.2"/>
<path style="fill:#324A5E;" d="M416.8,388.8L416.8,388.8c-7.6,7.6-20.4,7.6-27.6-0.8L316,306.8l18.8-18.8l81.2,73.2
	C424.4,368.4,424.8,381.2,416.8,388.8z"/>
<path style="fill:#2B3B4E;" d="M298,310.8c11.6,8.4,27.6,7.6,38-2.8s11.2-26.8,2.8-38L298,310.8z"/>
<path style="fill:#324A5E;" d="M206,178c-33.2,33.2-33.6,87.6,0,120.8c33.6,33.6,87.6,33.2,120.8,0c33.6-33.6,33.6-87.6,0-120.8
	C293.6,144.8,239.6,144.8,206,178z M314,286c-26.4,26.4-68.8,26.4-94.8,0c-26.4-26.4-26.4-68.8,0-94.8c26.4-26.4,68.8-26.4,94.8,0
	C340.4,217.2,340.4,260,314,286z"/>
<g>
</g>
<g>
</g>
<g>
</g>
<g>
</g>
<g>
</g>
<g>
</g>
<g>
</g>
<g>
</g>
<g>
</g>
<g>
</g>
<g>
</g>
<g>
</g>
<g>
</g>
<g>
</g>
<g>
</g>
</svg>
