<?xml version="1.0" encoding="iso-8859-1"?>
<!-- Generator: Adobe Illustrator 19.0.0, SVG Export Plug-In . SVG Version: 6.00 Build 0)  -->
<svg version="1.1" id="Layer_1" xmlns="http://www.w3.org/2000/svg" xmlns:xlink="http://www.w3.org/1999/xlink" x="0px" y="0px"
	 viewBox="0 0 508 508" style="enable-background:new 0 0 508 508;" xml:space="preserve">
<circle style="fill:#54C0EB;" cx="254" cy="254" r="254"/>
<path style="fill:#FFFFFF;" d="M113.2,88.8v330c0,7.6,6,13.6,13.6,13.6H334v-47.2c0-7.6,6-13.6,13.6-13.6h47.2V88.8
	c0-7.6-6-13.6-13.6-13.6H126.8C119.2,75.6,113.2,81.6,113.2,88.8z"/>
<path style="fill:#E6E9EE;" d="M334,432.4h47.2c7.6,0,13.6-6,13.6-13.6V372h-47.2c-7.6,0-13.6,6-13.6,13.6V432.4z"/>
<g>
	<path style="fill:#CED5E0;" d="M334,432.4h47.2c7.6,0,13.6-6,13.6-13.6V372L334,432.4z"/>
	<rect x="188.4" y="156.4" style="fill:#CED5E0;" width="25.2" height="47.2"/>
</g>
<rect x="223.6" y="119.2" style="fill:#FFD05B;" width="25.2" height="84.4"/>
<rect x="259.2" y="134.8" style="fill:#84DBFF;" width="25.2" height="68.4"/>
<rect x="294.8" y="105.2" style="fill:#FF7058;" width="25.2" height="98"/>
<rect x="179.2" y="203.6" style="fill:#324A5E;" width="149.6" height="7.2"/>
<g>
	<rect x="148.8" y="292" style="fill:#E6E9EE;" width="210.8" height="10.4"/>
	<rect x="148.8" y="266.8" style="fill:#E6E9EE;" width="210.8" height="10.4"/>
	<rect x="148.8" y="241.6" style="fill:#E6E9EE;" width="210.8" height="10.4"/>
	<rect x="148.8" y="316.8" style="fill:#E6E9EE;" width="210.8" height="10.4"/>
	<rect x="148.8" y="342" style="fill:#E6E9EE;" width="152" height="10.4"/>
</g>
<g>
</g>
<g>
</g>
<g>
</g>
<g>
</g>
<g>
</g>
<g>
</g>
<g>
</g>
<g>
</g>
<g>
</g>
<g>
</g>
<g>
</g>
<g>
</g>
<g>
</g>
<g>
</g>
<g>
</g>
</svg>
