<?xml version="1.0" encoding="iso-8859-1"?>
<!-- Generator: Adobe Illustrator 19.0.0, SVG Export Plug-In . SVG Version: 6.00 Build 0)  -->
<svg version="1.1" id="Layer_1" xmlns="http://www.w3.org/2000/svg" xmlns:xlink="http://www.w3.org/1999/xlink" x="0px" y="0px"
	 viewBox="0 0 508 508" style="enable-background:new 0 0 508 508;" xml:space="preserve">
<circle style="fill:#FD8469;" cx="254" cy="254" r="254"/>
<path style="fill:#324A5E;" d="M330.8,450H177.2c-24,0-43.6-19.6-43.6-43.6V96.8c0-24,19.6-43.6,43.6-43.6h154
	c24,0,43.6,19.6,43.6,43.6v309.6C374.4,430.8,355.2,450,330.8,450z"/>
<rect x="144.4" y="100" style="fill:#FFFFFF;" width="218.8" height="298.4"/>
<rect x="144.4" y="100" style="fill:#E6E9EE;" width="218.8" height="23.6"/>
<path style="fill:#ACB3BA;" d="M276.8,82.4h-45.6c-2,0-3.6-1.6-3.6-3.6l0,0c0-2,1.6-3.6,3.6-3.6h46c2,0,3.6,1.6,3.6,3.6l0,0
	C280.8,80.8,278.8,82.4,276.8,82.4z"/>
<g>
	<circle style="fill:#2B3B4E;" cx="334.4" cy="78" r="4.4"/>
	<circle style="fill:#2B3B4E;" cx="302.8" cy="87.2" r="3.2"/>
	<circle style="fill:#2B3B4E;" cx="312.4" cy="87.2" r="3.2"/>
</g>
<path style="fill:#ACB3BA;" d="M274,431.2h-40c-5.6,0-10-4.4-10-10l0,0c0-3.2,2.8-6,6-6h48c3.2,0,6,2.8,6,6l0,0
	C284,426.8,279.2,431.2,274,431.2z"/>
<rect x="167.6" y="264" style="fill:#CED5E0;" width="32.8" height="82.4"/>
<rect x="214" y="198.8" style="fill:#FFD05B;" width="32.8" height="147.6"/>
<rect x="260.8" y="226.8" style="fill:#84DBFF;" width="32.8" height="120"/>
<rect x="307.6" y="174.8" style="fill:#FF7058;" width="32.8" height="171.6"/>
<g>
</g>
<g>
</g>
<g>
</g>
<g>
</g>
<g>
</g>
<g>
</g>
<g>
</g>
<g>
</g>
<g>
</g>
<g>
</g>
<g>
</g>
<g>
</g>
<g>
</g>
<g>
</g>
<g>
</g>
</svg>
