<?xml version="1.0" encoding="iso-8859-1"?>
<!-- Generator: Adobe Illustrator 19.0.0, SVG Export Plug-In . SVG Version: 6.00 Build 0)  -->
<svg version="1.1" id="Layer_1" xmlns="http://www.w3.org/2000/svg" xmlns:xlink="http://www.w3.org/1999/xlink" x="0px" y="0px"
	 viewBox="0 0 508 508" style="enable-background:new 0 0 508 508;" xml:space="preserve">
<circle style="fill:#90DFAA;" cx="254" cy="254" r="254"/>
<path style="fill:#2C9984;" d="M38.8,388.4C83.6,460,163.2,508,254,508s170.4-47.6,215.2-119.6H38.8z"/>
<path style="fill:#324A5E;" d="M442,339.2v-212c0-7.6-5.6-13.6-12.8-13.6H84.8c-7.2,0-12.8,6-12.8,13.6v212
	c0,7.6,5.6,13.6,12.8,13.6h344.4C436,352.4,442,346.4,442,339.2z"/>
<rect x="86" y="143.6" style="fill:#84DBFF;" width="342" height="185.2"/>
<path style="fill:#FFFFFF;" d="M55.6,363.2c0,14,11.2,25.6,25.6,25.6h346c14,0,25.6-11.2,25.6-25.6H55.6z"/>
<polygon style="fill:#E6E9EE;" points="287.6,369.2 296.8,363.2 211.2,363.2 220.4,369.2 "/>
<circle style="fill:#2B3B4E;" cx="256.8" cy="129.6" r="7.6"/>
<path style="fill:#FFFFFF;" d="M329.2,191.2l8.8,8.8l-35.2,32.4L280,211.6c-3.2-2.4-5.6-2-8.4,0.8l-40.4,55.2l-32.8-24.4
	c-2-1.6-5.2-1.6-7.2,0.4l-38.8,35.2c-2.4,2-2.4,5.6-0.4,8c1.2,1.2,4.8,2.8,8,0.4l35.6-32l33.6,24.8c3.6,2.8,7.2,0,8-1.2l40-54.8
	l22,20c2.4,2,5.6,2,7.6,0l39.2-36.4l9.6,9.6l7.6-34L329.2,191.2z"/>
<g>
</g>
<g>
</g>
<g>
</g>
<g>
</g>
<g>
</g>
<g>
</g>
<g>
</g>
<g>
</g>
<g>
</g>
<g>
</g>
<g>
</g>
<g>
</g>
<g>
</g>
<g>
</g>
<g>
</g>
</svg>
