<?xml version="1.0" encoding="iso-8859-1"?>
<!-- Generator: Adobe Illustrator 19.0.0, SVG Export Plug-In . SVG Version: 6.00 Build 0)  -->
<svg version="1.1" id="Layer_1" xmlns="http://www.w3.org/2000/svg" xmlns:xlink="http://www.w3.org/1999/xlink" x="0px" y="0px"
	 viewBox="0 0 508 508" style="enable-background:new 0 0 508 508;" xml:space="preserve">
<circle style="fill:#54C0EB;" cx="254" cy="254" r="254"/>
<path style="fill:#84DBFF;" d="M38.4,388C83.2,460,163.2,508,254,508c91.2,0,170.8-48,215.6-120H38.4z"/>
<path style="fill:#FFFFFF;" d="M414,135.6l-157.2-108c-1.6-1.2-3.6-1.2-5.2,0L94,135.6c-4,2.8-2,8.8,2.8,8.8h314.4
	C416,144,417.6,138,414,135.6z"/>
<g>
	<polygon style="fill:#E6E9EE;" points="159.6,122 254,57.6 348.4,122 	"/>
	<path style="fill:#E6E9EE;" d="M392.8,144h-48.4v1.6c0,6.4,5.2,11.6,11.6,11.6h25.2c6.4,0,11.6-5.2,11.6-11.6L392.8,144L392.8,144z
		"/>
</g>
<path style="fill:#CED5E0;" d="M344.4,329.6h48.4V328c0-6.4-5.2-11.6-11.6-11.6H356c-6.4,0-11.6,5.2-11.6,11.6L344.4,329.6
	L344.4,329.6z"/>
<path style="fill:#FFFFFF;" d="M378.4,316.4c2.8-20,4.4-48.4,4.4-79.6s-1.6-59.6-4.4-79.6H358c-2.8,20-4.4,48.4-4.4,79.6
	s1.6,59.6,4.4,79.6H378.4z"/>
<path style="fill:#E6E9EE;" d="M316.4,144H268v1.6c0,6.4,5.2,11.6,11.6,11.6h25.2c6.4,0,11.6-5.2,11.6-11.6L316.4,144L316.4,144z"/>
<path style="fill:#CED5E0;" d="M268,329.6h48.4V328c0-6.4-5.2-11.6-11.6-11.6h-25.2c-6.4,0-11.6,5.2-11.6,11.6L268,329.6L268,329.6z
	"/>
<path style="fill:#FFFFFF;" d="M302.4,316.4c2.8-20,4.4-48.4,4.4-79.6s-1.6-59.6-4.4-79.6H282c-2.8,20-4.4,48.4-4.4,79.6
	s1.6,59.6,4.4,79.6H302.4z"/>
<path style="fill:#E6E9EE;" d="M240,144h-48.4v1.6c0,6.4,5.2,11.6,11.6,11.6h25.2c6.4,0,11.6-5.2,11.6-11.6L240,144L240,144z"/>
<path style="fill:#CED5E0;" d="M191.6,329.6H240V328c0-6.4-5.2-11.6-11.6-11.6h-25.2c-6.4,0-11.6,5.2-11.6,11.6L191.6,329.6
	L191.6,329.6z"/>
<path style="fill:#FFFFFF;" d="M226,316.4c2.8-20,4.4-48.4,4.4-79.6s-1.6-59.6-4.4-79.6h-20.4c-2.8,20-4.4,48.4-4.4,79.6
	s1.6,59.6,4.4,79.6H226z"/>
<path style="fill:#E6E9EE;" d="M163.6,144h-48.4v1.6c0,6.4,5.2,11.6,11.6,11.6H152c6.4,0,11.6-5.2,11.6-11.6V144z"/>
<path style="fill:#CED5E0;" d="M115.2,329.6h48.4V328c0-6.4-5.2-11.6-11.6-11.6h-25.2c-6.4,0-11.6,5.2-11.6,11.6
	C115.2,328,115.2,329.6,115.2,329.6z"/>
<g>
	<path style="fill:#FFFFFF;" d="M149.6,316.4c2.8-20,4.4-48.4,4.4-79.6s-1.6-59.6-4.4-79.6h-20.4c-2.8,20-4.4,48.4-4.4,79.6
		s1.6,59.6,4.4,79.6H149.6z"/>
	<path style="fill:#FFFFFF;" d="M419.2,349.2v-8.8c0-6-4.8-10.8-10.8-10.8H99.6c-6,0-10.8,4.8-10.8,10.8v8.8H419.2z"/>
</g>
<path style="fill:#E6E9EE;" d="M434.4,368.8V360c0-6-4.8-10.8-10.8-10.8H84.4c-6,0-10.8,4.8-10.8,10.8v8.8H434.4z"/>
<path style="fill:#ACB3BA;" d="M449.2,388v-8.8c0-6-4.8-10.8-10.8-10.8H69.6c-6,0-10.8,4.8-10.8,10.8v8.8H449.2z"/>
<g>
</g>
<g>
</g>
<g>
</g>
<g>
</g>
<g>
</g>
<g>
</g>
<g>
</g>
<g>
</g>
<g>
</g>
<g>
</g>
<g>
</g>
<g>
</g>
<g>
</g>
<g>
</g>
<g>
</g>
</svg>
