<?xml version="1.0" encoding="iso-8859-1"?>
<!-- Generator: Adobe Illustrator 19.0.0, SVG Export Plug-In . SVG Version: 6.00 Build 0)  -->
<svg version="1.1" id="Layer_1" xmlns="http://www.w3.org/2000/svg" xmlns:xlink="http://www.w3.org/1999/xlink" x="0px" y="0px"
	 viewBox="0 0 508 508" style="enable-background:new 0 0 508 508;" xml:space="preserve">
<circle style="fill:#FFD05B;" cx="254" cy="254" r="254"/>
<path style="fill:#FFFFFF;" d="M368.8,432.4H139.2c-5.6,0-10-4.4-10-10V85.6c0-5.6,4.4-10,10-10h229.6c5.6,0,10,4.4,10,10v337.2
	C378.8,428,374.4,432.4,368.8,432.4z"/>
<rect x="141.2" y="111.6" style="fill:#324A5E;" width="224.8" height="72"/>
<rect x="148" y="118" style="fill:#84DBFF;" width="212" height="59.6"/>
<polygon style="fill:#54C0EB;" points="297.6,118 198.4,177.6 359.6,177.6 359.6,118 "/>
<path style="fill:#FF7058;" d="M180.4,242h-33.2c-3.6,0-6.4-2.8-6.4-6.4v-33.2c0-3.6,2.8-6.4,6.4-6.4h33.2c3.6,0,6.4,2.8,6.4,6.4
	v33.2C186.8,239.2,184,242,180.4,242z"/>
<g>
	<path style="fill:#CED5E0;" d="M240.4,242h-33.2c-3.6,0-6.4-2.8-6.4-6.4v-33.2c0-3.6,2.8-6.4,6.4-6.4h33.2c3.6,0,6.4,2.8,6.4,6.4
		v33.2C246.8,239.2,244,242,240.4,242z"/>
	<path style="fill:#CED5E0;" d="M300,242h-33.2c-3.6,0-6.4-2.8-6.4-6.4v-33.2c0-3.6,2.8-6.4,6.4-6.4H300c3.6,0,6.4,2.8,6.4,6.4v33.2
		C306.4,239.2,303.6,242,300,242z"/>
	<path style="fill:#CED5E0;" d="M360,242h-33.2c-3.6,0-6.4-2.8-6.4-6.4v-33.2c0-3.6,2.8-6.4,6.4-6.4H360c3.6,0,6.4,2.8,6.4,6.4v33.2
		C366.4,239.2,363.6,242,360,242z"/>
	<path style="fill:#CED5E0;" d="M180.4,300.4h-33.2c-3.6,0-6.4-2.8-6.4-6.4v-33.2c0-3.6,2.8-6.4,6.4-6.4h33.2c3.6,0,6.4,2.8,6.4,6.4
		V294C186.8,297.6,184,300.4,180.4,300.4z"/>
	<path style="fill:#CED5E0;" d="M240.4,300.4h-33.2c-3.6,0-6.4-2.8-6.4-6.4v-33.2c0-3.6,2.8-6.4,6.4-6.4h33.2c3.6,0,6.4,2.8,6.4,6.4
		V294C246.8,297.6,244,300.4,240.4,300.4z"/>
	<path style="fill:#CED5E0;" d="M300,300.4h-33.2c-3.6,0-6.4-2.8-6.4-6.4v-33.2c0-3.6,2.8-6.4,6.4-6.4H300c3.6,0,6.4,2.8,6.4,6.4
		V294C306.4,297.6,303.6,300.4,300,300.4z"/>
	<path style="fill:#CED5E0;" d="M360,300.4h-33.2c-3.6,0-6.4-2.8-6.4-6.4v-33.2c0-3.6,2.8-6.4,6.4-6.4H360c3.6,0,6.4,2.8,6.4,6.4
		V294C366.4,297.6,363.6,300.4,360,300.4z"/>
	<path style="fill:#CED5E0;" d="M180.4,359.2h-33.2c-3.6,0-6.4-2.8-6.4-6.4v-33.2c0-3.6,2.8-6.4,6.4-6.4h33.2c3.6,0,6.4,2.8,6.4,6.4
		v33.2C186.8,356.4,184,359.2,180.4,359.2z"/>
	<path style="fill:#CED5E0;" d="M240.4,359.2h-33.2c-3.6,0-6.4-2.8-6.4-6.4v-33.2c0-3.6,2.8-6.4,6.4-6.4h33.2c3.6,0,6.4,2.8,6.4,6.4
		v33.2C246.8,356.4,244,359.2,240.4,359.2z"/>
	<path style="fill:#CED5E0;" d="M300,359.2h-33.2c-3.6,0-6.4-2.8-6.4-6.4v-33.2c0-3.6,2.8-6.4,6.4-6.4H300c3.6,0,6.4,2.8,6.4,6.4
		v33.2C306.4,356.4,303.6,359.2,300,359.2z"/>
	<path style="fill:#CED5E0;" d="M180.4,417.6h-33.2c-3.6,0-6.4-2.8-6.4-6.4V378c0-3.6,2.8-6.4,6.4-6.4h33.2c3.6,0,6.4,2.8,6.4,6.4
		v33.2C186.8,414.8,184,417.6,180.4,417.6z"/>
	<path style="fill:#CED5E0;" d="M240.4,417.6h-33.2c-3.6,0-6.4-2.8-6.4-6.4V378c0-3.6,2.8-6.4,6.4-6.4h33.2c3.6,0,6.4,2.8,6.4,6.4
		v33.2C246.8,414.8,244,417.6,240.4,417.6z"/>
	<path style="fill:#CED5E0;" d="M300,417.6h-33.2c-3.6,0-6.4-2.8-6.4-6.4V378c0-3.6,2.8-6.4,6.4-6.4H300c3.6,0,6.4,2.8,6.4,6.4v33.2
		C306.4,414.8,303.6,417.6,300,417.6z"/>
	<path style="fill:#CED5E0;" d="M360,417.6h-33.2c-3.6,0-6.4-2.8-6.4-6.4v-91.6c0-3.6,2.8-6.4,6.4-6.4H360c3.6,0,6.4,2.8,6.4,6.4
		v91.6C366.4,414.8,363.6,417.6,360,417.6z"/>
</g>
<rect x="281.6" y="84" style="fill:#F9B54C;" width="72" height="19.2"/>
<g>
	<rect x="340" y="86.4" style="fill:#FFD05B;" width="10" height="14"/>
	<rect x="326.4" y="86.4" style="fill:#FFD05B;" width="10" height="14"/>
	<rect x="312.4" y="86.4" style="fill:#FFD05B;" width="10" height="14"/>
	<rect x="298.8" y="86.4" style="fill:#FFD05B;" width="10" height="14"/>
	<rect x="285.2" y="86.4" style="fill:#FFD05B;" width="10" height="14"/>
</g>
<g>
</g>
<g>
</g>
<g>
</g>
<g>
</g>
<g>
</g>
<g>
</g>
<g>
</g>
<g>
</g>
<g>
</g>
<g>
</g>
<g>
</g>
<g>
</g>
<g>
</g>
<g>
</g>
<g>
</g>
</svg>
