<?xml version="1.0" encoding="iso-8859-1"?>
<!-- Generator: Adobe Illustrator 19.0.0, SVG Export Plug-In . SVG Version: 6.00 Build 0)  -->
<svg version="1.1" id="Layer_1" xmlns="http://www.w3.org/2000/svg" xmlns:xlink="http://www.w3.org/1999/xlink" x="0px" y="0px"
	 viewBox="0 0 508 508" style="enable-background:new 0 0 508 508;" xml:space="preserve">
<circle style="fill:#FFD05B;" cx="254" cy="254" r="254"/>
<path style="fill:#FF7058;" d="M416,421.2H92c-9.2,0-16.8-7.6-16.8-16.8v-280c0-9.2,7.6-16.8,16.8-16.8h323.6
	c9.2,0,16.8,7.6,16.8,16.8v280C432.4,413.6,425.2,421.2,416,421.2z"/>
<rect x="84" y="189.2" style="fill:#FAFAFA;" width="339.6" height="217.6"/>
<circle style="fill:#324A5E;" cx="378.8" cy="146.8" r="16.8"/>
<path style="fill:#E6E9EE;" d="M378.8,150L378.8,150c-4.8,0-8.8-4-8.8-8.8V95.6c0-4.8,4-8.8,8.8-8.8l0,0c4.8,0,8.8,4,8.8,8.8v46
	C387.2,146.4,383.6,150,378.8,150z"/>
<circle style="fill:#324A5E;" cx="129.2" cy="146.8" r="16.8"/>
<path style="fill:#E6E9EE;" d="M129.2,150L129.2,150c-4.8,0-8.8-4-8.8-8.8V95.6c0-4.8,4-8.8,8.8-8.8l0,0c4.8,0,8.8,4,8.8,8.8v46
	C138,146.4,134,150,129.2,150z"/>
<g>
	<path style="fill:#54C0EB;" d="M147.6,241.6c0-2,1.6-3.2,3.2-3.2c4.4,0,4.8-4.4,4.8-4.8v-24.4c0-1.6,1.6-3.2,3.2-3.2
		c2,0,3.2,1.6,3.2,3.2v24.4c0,0.4,0,2.8-1.2,5.6c-2,3.6-5.6,6-10,6C148.8,244.8,147.6,243.2,147.6,241.6z"/>
	<path style="fill:#54C0EB;" d="M197.2,240.4c1.2,2.4-1.2,4.4-3.2,4.4c-1.2,0-2.4-0.8-3.2-2l-2.4-6h-15.2l-2.4,6
		c-0.4,1.2-1.6,2-3.2,2c-2,0-3.6-2-3.2-4.4l12.8-32.4c0.4-1.2,1.6-2,3.2-2c1.2,0,2.4,0.8,3.2,2L197.2,240.4z M186,230.4l-4.8-12.4
		l-4.8,12.4H186z"/>
	<path style="fill:#54C0EB;" d="M296.8,240.4c1.2,2.4-1.2,4.4-3.2,4.4c-1.2,0-2.4-0.8-3.2-2l-2.4-6h-15.2l-2.4,6
		c-0.4,1.2-1.6,2-3.2,2c-2,0-3.6-2-3.2-4.4l12.8-32.4c0.4-1.2,1.6-2,3.2-2c1.2,0,2.4,0.8,3.2,2L296.8,240.4z M286,230.4l-5.2-12.4
		l-4.8,12.4H286z"/>
	<path style="fill:#54C0EB;" d="M225.2,243.6l-16.8-24v22c0,1.6-1.6,3.2-3.2,3.2c-1.6,0-3.2-1.6-3.2-3.2v-32.4
		c0-1.6,1.2-3.2,3.2-3.2c1.2,0,2,0.4,2.8,1.2l16.8,24v-22c0-1.6,1.6-3.2,3.2-3.2c1.6,0,3.2,1.6,3.2,3.2v32.4c0,1.6-1.6,3.2-3.2,3.2
		C226.8,244.8,225.6,244.4,225.2,243.6z"/>
	<path style="fill:#54C0EB;" d="M236.8,237.2c-1.6-3.2-1.6-6.8-1.6-7.2v-21.2c0-1.6,1.6-3.2,3.2-3.2c1.6,0,3.2,1.6,3.2,3.2V230
		c0,0.8,0.8,8,7.2,8s7.2-6.8,7.2-8v-21.2c0-1.6,1.6-3.2,3.2-3.2s3.2,1.6,3.2,3.2V230c0,0.4,0,3.6-1.6,7.2c-2.4,4.8-6.8,7.6-12,7.6
		S239.2,242,236.8,237.2z"/>
	<path style="fill:#54C0EB;" d="M360,211.2l-10.8,15.2v15.2c0,1.6-1.6,3.2-3.2,3.2s-3.2-1.6-3.2-3.2v-15.2L332,211.2
		c-1.2-2,0-4,0.8-4.8c0.4-0.4,2.8-1.2,4.4,0.8l8.8,12.4l8.8-12.4c1.6-2.4,4-1.2,4.4-0.8C360,207.2,361.2,209.2,360,211.2z"/>
	<path style="fill:#54C0EB;" d="M207.6,373.6v-80c-4.8,0-8.8-4-8.8-9.2c0-4.8,4-8.8,8.8-8.8h9.2c4.8,0,8.8,4,8.8,8.8v89.2
		c0,4.8-4,8.8-8.8,8.8C211.6,382.8,207.6,378.8,207.6,373.6z"/>
	<path style="fill:#54C0EB;" d="M237.6,346.8c0-5.6,1.2-11.2,3.6-15.6l27.2-51.2c4-6.8,10.4-4.4,11.6-4c3.2,1.6,7.2,6.8,4,12.4
		l-12,22.8c0.4,0,0.8,0,1.2,0c19.6,0,35.6,16,35.6,35.6s-16,35.6-35.6,35.6C253.6,382.8,237.6,366.4,237.6,346.8z M255.6,346.8
		c0,9.6,8,17.6,17.6,17.6c10,0,18-8,18-17.6c0-10-8-18-18-18C263.6,329.2,255.6,337.2,255.6,346.8z"/>
	<path style="fill:#54C0EB;" d="M326.4,240l-6-10c4-2.4,6.4-6.4,6.4-11.2c0-7.2-5.6-12.8-12.8-12.8h-8.8c-1.6,0-3.2,1.6-3.2,3.2
		v32.4c0,1.6,1.6,3.2,3.2,3.2s3.2-1.6,3.2-3.2V232h5.6l7.2,11.6c1.6,2.4,4,1.2,4.4,1.2C326.4,243.6,327.6,242,326.4,240z
		 M313.6,225.2H308v-12.8h5.6c3.6,0,6.4,2.8,6.4,6.4C320,222.4,317.2,225.2,313.6,225.2z"/>
</g>
<g>
</g>
<g>
</g>
<g>
</g>
<g>
</g>
<g>
</g>
<g>
</g>
<g>
</g>
<g>
</g>
<g>
</g>
<g>
</g>
<g>
</g>
<g>
</g>
<g>
</g>
<g>
</g>
<g>
</g>
</svg>
