<?xml version="1.0" encoding="iso-8859-1"?>
<!-- Generator: Adobe Illustrator 19.0.0, SVG Export Plug-In . SVG Version: 6.00 Build 0)  -->
<svg version="1.1" id="Layer_1" xmlns="http://www.w3.org/2000/svg" xmlns:xlink="http://www.w3.org/1999/xlink" x="0px" y="0px"
	 viewBox="0 0 508 508" style="enable-background:new 0 0 508 508;" xml:space="preserve">
<circle style="fill:#84DBFF;" cx="254" cy="254" r="254"/>
<path style="fill:#FF7058;" d="M435.6,335.2l-78-38c-15.2,5.6-31.6,9.2-49.2,10c19.2-18,30.4-41.6,30.4-66.8
	c0-57.6-59.2-104.4-132-104.4c-2.4,0-4.8,0-7.2,0c24.4-23.2,60.8-37.6,101.6-37.6c72.8,0,132,46.8,132,104.4
	c0,24.8-10.8,47.2-28.8,65.2L435.6,335.2z"/>
<path style="fill:#FFFFFF;" d="M206.8,135.6c-72.8,0-132,46.8-132,104.4c0,24.8,10.8,47.2,28.8,65.2l-31.2,67.2l78-38
	c17.2,6.4,36.4,10,56.4,10c72.8,0,132-46.8,132-104.4S279.6,135.6,206.8,135.6z"/>
<g>
	<circle style="fill:#324A5E;" cx="146.4" cy="244.8" r="19.6"/>
	<circle style="fill:#324A5E;" cx="205.6" cy="244.8" r="19.6"/>
	<circle style="fill:#324A5E;" cx="264.8" cy="244.8" r="19.6"/>
</g>
<g>
</g>
<g>
</g>
<g>
</g>
<g>
</g>
<g>
</g>
<g>
</g>
<g>
</g>
<g>
</g>
<g>
</g>
<g>
</g>
<g>
</g>
<g>
</g>
<g>
</g>
<g>
</g>
<g>
</g>
</svg>
