<?xml version="1.0" encoding="iso-8859-1"?>
<!-- Generator: Adobe Illustrator 19.0.0, SVG Export Plug-In . SVG Version: 6.00 Build 0)  -->
<svg version="1.1" id="Layer_1" xmlns="http://www.w3.org/2000/svg" xmlns:xlink="http://www.w3.org/1999/xlink" x="0px" y="0px"
	 viewBox="0 0 508 508" style="enable-background:new 0 0 508 508;" xml:space="preserve">
<circle style="fill:#324A5E;" cx="254" cy="254" r="254"/>
<g>
	<path style="fill:#F9B54C;" d="M407.2,137.2v39.2c0,20-50,36.4-111.6,36.4c-12.8,0-24.8-0.8-36.4-2c-18.4-22-45.2-36.8-75.6-39.6
		v-34.4c0,20,50,36.4,111.6,36.4C357.2,173.6,407.2,157.2,407.2,137.2z"/>
	<path style="fill:#F9B54C;" d="M407.2,214.8V254c0,0.4,0,0.8,0,0.8V254c0,20-50,36.4-111.6,36.4c-3.6,0-6.8,0-10,0
		c0-2.4,0.4-5.2,0.4-7.6c0-10.8-1.6-21.6-4.4-31.2c4.8,0,9.6,0.4,14.4,0.4c50.4,0,92.8-10.8,106.8-25.6c1.6-1.6,2.8-3.6,4-5.6
		C406.8,218.4,407.2,216.8,407.2,214.8z"/>
	<path style="fill:#F9B54C;" d="M407.2,292.8V332c0,0.4,0,0.8,0,0.8v-1.2c0,20-50,36.4-111.6,36.4c-16.4,0-32-1.2-46-3.2
		c10.8-10,20-22.4,26-36c6.4,0.4,13.2,0.4,20,0.4C357.2,329.2,407.2,313.2,407.2,292.8L407.2,292.8L407.2,292.8z"/>
</g>
<path style="fill:#FFD05B;" d="M407.2,215.2V176c0,20-50,36.4-111.6,36.4c-12.8,0-24.8-0.8-36.4-2C238.8,186,208,170.8,174,170.8
	c-62,0-112,50-112,111.6S112,394,173.6,394c9.6,0,19.2-1.2,28-3.6c20,10,54.4,16.4,93.6,16.4c61.6,0,111.6-16.4,111.6-36.4v-39.2
	c0,20-50,36.4-111.6,36.4c-16.4,0-32-1.2-46-3.2c10.8-10,20-22.4,26-36c6.4,0.4,13.2,0.4,20,0.4c61.6,0,111.6-16.4,111.6-36.4V254
	c0,20-50,36.4-111.6,36.4c-3.6,0-6.8,0-10.4,0c0-2.4,0.4-4.8,0.4-7.6c0-10.8-1.6-21.6-4.4-31.6c4.8,0,9.6,0.4,14.4,0.4
	C357.2,251.6,407.2,235.2,407.2,215.2z"/>
<circle style="fill:#F9B54C;" cx="173.6" cy="282.4" r="86.4"/>
<g>
	<path style="fill:#FFD05B;" d="M206,305.6c0-18-14.4-32.4-32.4-32.4c-7.6,0-14-6.4-14-14s6.4-14,14-14c4,0,7.6,1.6,10,4.4
		c3.6,3.6,9.2,4,13.2,0.4c3.6-3.6,4-9.2,0.4-13.2c-4-4-8.8-7.2-14.4-8.8v-6c0-5.2-4-9.2-9.2-9.2s-9.2,4-9.2,9.2v6.4
		c-13.6,4-23.2,16.4-23.2,31.2c0,18,14.4,32.4,32.4,32.4c7.6,0,14,6.4,14,14s-6.4,14-14,14c-4,0-7.6-1.6-10-4.4
		c-3.6-3.6-9.2-4-13.2-0.4c-3.6,3.6-4,9.2-0.4,13.2c4,4,8.8,7.2,14.4,8.8v6.4c0,5.2,4,9.2,9.2,9.2s9.2-4,9.2-9.2v-6.4
		C196.4,332.8,206,320.4,206,305.6z"/>
	<ellipse style="fill:#FFD05B;" cx="295.6" cy="137.2" rx="111.6" ry="36.4"/>
</g>
<ellipse style="fill:#F9B54C;" cx="295.6" cy="137.2" rx="86.4" ry="28"/>
<path style="fill:#FFD05B;" d="M272.4,147.6c18,0,32.4-4.8,32.4-10.4c0-2.4,6.4-4.4,14-4.4s14,2,14,4.4c0,1.2-1.6,2.4-4.4,3.2
	c-3.6,1.2-4,3.2-0.4,4.4s9.2,1.2,13.2,0s7.2-2.8,8.8-4.8h6.4c5.2,0,9.2-1.2,9.2-3.2c0-1.6-4-3.2-9.2-3.2H350
	c-4-4.4-16.4-7.6-31.2-7.6c-18,0-32.4,4.8-32.4,10.4c0,2.4-6.4,4.4-14,4.4s-14-2-14-4.4c0-1.2,1.6-2.4,4.4-3.2
	c3.6-1.2,4-3.2,0.4-4.4s-9.2-1.2-13.2,0s-7.2,2.8-8.8,4.8h-6.4c-5.2,0-9.2,1.2-9.2,3.2c0,1.6,4,3.2,9.2,3.2h6.4
	C245.2,144.4,257.6,147.6,272.4,147.6z"/>
<g>
</g>
<g>
</g>
<g>
</g>
<g>
</g>
<g>
</g>
<g>
</g>
<g>
</g>
<g>
</g>
<g>
</g>
<g>
</g>
<g>
</g>
<g>
</g>
<g>
</g>
<g>
</g>
<g>
</g>
</svg>
