<?xml version="1.0" encoding="iso-8859-1"?>
<!-- Generator: Adobe Illustrator 19.0.0, SVG Export Plug-In . SVG Version: 6.00 Build 0)  -->
<svg version="1.1" id="Layer_1" xmlns="http://www.w3.org/2000/svg" xmlns:xlink="http://www.w3.org/1999/xlink" x="0px" y="0px"
	 viewBox="0 0 508 508" style="enable-background:new 0 0 508 508;" xml:space="preserve">
<circle style="fill:#324A5E;" cx="254" cy="254" r="254"/>
<path style="fill:#4CDBC4;" d="M432.4,170v214.4c0,8.4-6.8,15.6-15.6,15.6h-326c-8.4,0-15.6-6.8-15.6-15.6V170l169.6,121.2
	c5.2,4,12.8,4,18,0L432.4,170z"/>
<path style="fill:#2C9984;" d="M428,395.6c-2.8,2.8-6.4,4.4-10.8,4.4H90.8c-4.4,0-8-1.6-10.8-4.4l136-125.2l28.8,20.4
	c5.2,4,12.8,4,18,0l28.8-20.4L428,395.6z"/>
<path style="fill:#E6E9EE;" d="M432.4,170.4L432.4,170.4L432.4,170.4L432.4,170.4L432.4,170.4L263.2,49.2c-5.2-4-12.8-4-18,0
	L75.6,170.4l0,0l0,0l0,0l0,0l169.6,121.2c5.2,4,12.8,4,18,0L432.4,170.4z"/>
<path style="fill:#FFFFFF;" d="M389.2,93.6v107.6l-126,90c-5.2,4-12.8,4-18,0l-126.4-90V93.6H389.2z"/>
<g>
	<rect x="152.4" y="119.6" style="fill:#E6E9EE;" width="202.8" height="8.8"/>
	<rect x="152.4" y="143.6" style="fill:#E6E9EE;" width="202.8" height="8.8"/>
	<rect x="152.4" y="167.6" style="fill:#E6E9EE;" width="202.8" height="8.8"/>
	<rect x="152.4" y="191.2" style="fill:#E6E9EE;" width="126.4" height="8.8"/>
</g>
<g>
</g>
<g>
</g>
<g>
</g>
<g>
</g>
<g>
</g>
<g>
</g>
<g>
</g>
<g>
</g>
<g>
</g>
<g>
</g>
<g>
</g>
<g>
</g>
<g>
</g>
<g>
</g>
<g>
</g>
</svg>
