<?xml version="1.0" encoding="iso-8859-1"?>
<!-- Generator: Adobe Illustrator 19.0.0, SVG Export Plug-In . SVG Version: 6.00 Build 0)  -->
<svg version="1.1" id="Layer_1" xmlns="http://www.w3.org/2000/svg" xmlns:xlink="http://www.w3.org/1999/xlink" x="0px" y="0px"
	 viewBox="0 0 508 508" style="enable-background:new 0 0 508 508;" xml:space="preserve">
<circle style="fill:#324A5E;" cx="254" cy="254" r="254"/>
<path style="fill:#FFFFFF;" d="M266,254c25.6-18.8,84-68,85.6-126H156.4c1.6,58,60,107.2,85.6,126c-25.6,18.8-84,68-85.6,126h194.8
	C350,322,291.6,272.8,266,254z"/>
<g>
	<rect x="366.8" y="128" style="fill:#FFD05B;" width="9.6" height="252"/>
	<rect x="131.6" y="128" style="fill:#FFD05B;" width="9.6" height="252"/>
</g>
<g>
	<path style="fill:#84DBFF;" d="M180,168c19.2,38,58,68,74,79.2c15.6-11.2,54.8-41.2,74-79.2H180z"/>
	<path style="fill:#84DBFF;" d="M204.8,304.8c-15.6,17.6-29.6,39.2-34,62.8h166.8c-4.4-23.2-18.4-44.8-34.4-62.8H204.8z"/>
</g>
<g>
	<path style="fill:#FF7058;" d="M380.4,128H127.6c-7.6,0-13.6-6-13.6-13.6v-7.2c0-8,6.4-14.4,14.4-14.4H380c8,0,14.4,6.4,14.4,14.4
		v7.2C394,122,388,128,380.4,128z"/>
	<path style="fill:#FF7058;" d="M127.6,380h252.8c7.6,0,13.6,6,13.6,13.6v7.2c0,8-6.4,14.4-14.4,14.4H128c-8,0-14.4-6.4-14.4-14.4
		v-7.2C114,386,120,380,127.6,380z"/>
</g>
<g>
</g>
<g>
</g>
<g>
</g>
<g>
</g>
<g>
</g>
<g>
</g>
<g>
</g>
<g>
</g>
<g>
</g>
<g>
</g>
<g>
</g>
<g>
</g>
<g>
</g>
<g>
</g>
<g>
</g>
</svg>
