<?xml version="1.0" encoding="iso-8859-1"?>
<!-- Generator: Adobe Illustrator 19.0.0, SVG Export Plug-In . SVG Version: 6.00 Build 0)  -->
<svg version="1.1" id="Layer_1" xmlns="http://www.w3.org/2000/svg" xmlns:xlink="http://www.w3.org/1999/xlink" x="0px" y="0px"
	 viewBox="0 0 508 508" style="enable-background:new 0 0 508 508;" xml:space="preserve">
<circle style="fill:#324A5E;" cx="254" cy="254" r="254"/>
<path style="fill:#FFFFFF;" d="M354.4,451.2H153.6c-9.6,0-17.2-7.6-17.2-17.2V136.4c0-9.6,7.6-17.2,17.2-17.2h201.2
	c9.6,0,17.2,7.6,17.2,17.2V434C372,443.6,364,451.2,354.4,451.2z"/>
<rect x="157.6" y="167.2" style="fill:#84DBFF;" width="192.4" height="190"/>
<g>
	<rect x="169.6" y="376.8" style="fill:#E6E9EE;" width="169.2" height="13.6"/>
	<rect x="169.6" y="408.4" style="fill:#E6E9EE;" width="169.2" height="13.6"/>
</g>
<path style="fill:#324A5E;" d="M288.4,148.8h-68.8c-4,0-7.2-3.2-7.2-7.2l0,0c0-4,3.2-7.2,7.2-7.2h69.2c4,0,7.2,3.2,7.2,7.2l0,0
	C296,145.6,292.8,148.8,288.4,148.8z"/>
<rect x="224.8" y="56.8" style="fill:#FFD05B;" width="58.4" height="84.8"/>
<path style="fill:#54C0EB;" d="M298,313.6c-4-6.8-10.8-14.4-10.8-14.4l-0.4-4c6.4-2.8,7.6-19.6,7.6-19.6
	c10.8,1.6,10.8-18.8,10.8-18.8c1.6-15.6-8-10-8-10c8.8-6.8,8-17.6,8-17.6c12.8-28.8-13.6-30.4-13.6-30.4c-1.6-25.6-40-22.4-40-22.4
	c-39.2-2-45.2,37.6-45.2,37.6c-2,15.6,9.6,32.8,9.6,32.8c-12.8-4.4-8.8,6.8-8.8,6.8c6.8,31.6,12.4,21.2,12.4,21.2
	c-2,8,6.4,16,6.4,16l-0.4,4.8c-3.2,1.2-14,17.2-14,17.2c-4.8-0.4-54,19.2-54,19.2v25.2H350v-20.8C335.2,329.2,298,313.6,298,313.6z"
	/>
<circle style="fill:#FFFFFF;" cx="254" cy="84.4" r="16.8"/>
<ellipse transform="matrix(0.7463 -0.6656 0.6656 0.7463 10.7523 185.1136)" style="fill:#E6E9EE;" cx="248.212" cy="78.452" rx="7.2" ry="3.2"/>
<g>
</g>
<g>
</g>
<g>
</g>
<g>
</g>
<g>
</g>
<g>
</g>
<g>
</g>
<g>
</g>
<g>
</g>
<g>
</g>
<g>
</g>
<g>
</g>
<g>
</g>
<g>
</g>
<g>
</g>
</svg>
