<?xml version="1.0" encoding="iso-8859-1"?>
<!-- Generator: Adobe Illustrator 19.0.0, SVG Export Plug-In . SVG Version: 6.00 Build 0)  -->
<svg version="1.1" id="Layer_1" xmlns="http://www.w3.org/2000/svg" xmlns:xlink="http://www.w3.org/1999/xlink" x="0px" y="0px"
	 viewBox="0 0 508 508" style="enable-background:new 0 0 508 508;" xml:space="preserve">
<circle style="fill:#FFD05B;" cx="254" cy="254" r="254"/>
<path style="fill:#FFFFFF;" d="M254,75.6c-98.8,0-178.8,80-178.8,178.8s80,178.4,178.8,178.4s178.8-80,178.8-178.4
	C432.8,155.2,352.8,75.6,254,75.6z M254,349.6c-52.8,0-95.6-42.8-95.6-95.6s42.8-95.6,95.6-95.6s95.6,42.8,95.6,95.6
	S306.8,349.6,254,349.6z"/>
<g>
	<path style="fill:#FF7058;" d="M326.4,90.8L278.8,162c32.8,8.8,58.4,34.4,67.2,67.2l71.2-47.6C399.2,141.2,366.8,108.8,326.4,90.8z
		"/>
	<path style="fill:#FF7058;" d="M181.6,417.2l47.6-71.2c-32.8-8.8-58.4-34.4-67.2-67.2l-71.2,47.6
		C108.8,366.8,141.2,399.2,181.6,417.2z"/>
	<path style="fill:#FF7058;" d="M278.8,346l47.6,71.2c40.4-18,72.8-50.4,90.8-90.8L346,278.8C337.2,311.6,311.6,337.2,278.8,346z"/>
	<path style="fill:#FF7058;" d="M229.2,162l-47.6-71.2c-40.4,18-72.8,50.4-90.8,90.8l71.2,47.6C170.8,196.4,196.4,170.8,229.2,162z"
		/>
</g>
<g>
</g>
<g>
</g>
<g>
</g>
<g>
</g>
<g>
</g>
<g>
</g>
<g>
</g>
<g>
</g>
<g>
</g>
<g>
</g>
<g>
</g>
<g>
</g>
<g>
</g>
<g>
</g>
<g>
</g>
</svg>
