<?xml version="1.0" encoding="iso-8859-1"?>
<!-- Generator: Adobe Illustrator 19.0.0, SVG Export Plug-In . SVG Version: 6.00 Build 0)  -->
<svg version="1.1" id="Layer_1" xmlns="http://www.w3.org/2000/svg" xmlns:xlink="http://www.w3.org/1999/xlink" x="0px" y="0px"
	 viewBox="0 0 508 508" style="enable-background:new 0 0 508 508;" xml:space="preserve">
<circle style="fill:#4CDBC4;" cx="254" cy="254" r="254"/>
<path style="fill:#2C9984;" d="M77.2,436.4c45.6,44.4,108,71.6,176.8,71.6s131.2-27.2,176.8-71.6H77.2z"/>
<polygon style="fill:#324A5E;" points="314,436.4 294.4,436.4 279.2,391.6 228.8,391.6 214,436.4 195.2,436.4 223.6,352.8 
	240.8,352.8 232.8,377.2 275.6,377.2 267.2,352.8 285.2,352.8 "/>
<path style="fill:#FFFFFF;" d="M429.2,157.6v179.2c0,8.8-7.2,16-16,16H96c-8.8,0-16-7.2-16-16V157.6H429.2z"/>
<path style="fill:#324A5E;" d="M434.8,157.6H73.2c-2.8,0-5.2-2.4-5.2-5.2v-17.2c0-2.8,2.4-5.2,5.2-5.2h361.6c2.8,0,5.2,2.4,5.2,5.2
	v17.2C440,155.6,437.6,157.6,434.8,157.6z"/>
<g>
	<polygon style="fill:#E6E9EE;" points="150,202 150,325.6 141.2,325.6 141.2,194.4 	"/>
	<path style="fill:#E6E9EE;" d="M177.2,226.4V326h-8.4V218.8l7.2,6.4C176,225.6,176.8,226,177.2,226.4z"/>
	<polygon style="fill:#E6E9EE;" points="204.4,211.2 204.4,325.6 196,325.6 196,217.2 	"/>
	<polygon style="fill:#E6E9EE;" points="231.6,207.2 231.6,325.6 223.2,325.6 223.2,197.2 224,196.8 	"/>
	<polygon style="fill:#E6E9EE;" points="258.8,244.4 258.8,325.6 250.4,325.6 250.4,232.8 	"/>
	<path style="fill:#E6E9EE;" d="M286,260.8V326h-8.4v-60c2,0,3.6-0.4,5.2-1.6L286,260.8z"/>
	<polygon style="fill:#E6E9EE;" points="313.2,242 313.2,325.6 304.8,325.6 304.8,243.6 310,238.8 	"/>
	<polygon style="fill:#E6E9EE;" points="340.4,267.2 340.4,325.6 332,325.6 332,259.2 	"/>
	<polygon style="fill:#E6E9EE;" points="367.6,294.4 367.6,325.6 359.2,325.6 359.2,292.4 	"/>
</g>
<path style="fill:#FF7058;" d="M382.4,297.6l-41.2-9.2l10.8-10.8l-42-38.8l-27.6,24.8c-1.6,1.2-3.2,2-5.2,1.6c-2,0-3.6-1.2-4.8-2.8
	l-48.4-66l-39.6,29.2c-2.8,2-6.4,1.6-8.8-0.4l-46.8-42c-2.8-2.4-3.2-6.8-0.4-9.6c1.2-1.6,3.2-2.4,5.2-2.4c1.6,0,3.2,0.4,4.8,1.6
	l42.4,38.4l40.4-30c1.6-1.2,3.2-1.6,5.2-1.2c2,0.4,3.6,1.2,4.4,2.8l48,65.6l26.4-24c2.8-2.4,6.8-2.4,9.2,0L362,268l11.6-11.6
	L382.4,297.6z"/>
<g>
</g>
<g>
</g>
<g>
</g>
<g>
</g>
<g>
</g>
<g>
</g>
<g>
</g>
<g>
</g>
<g>
</g>
<g>
</g>
<g>
</g>
<g>
</g>
<g>
</g>
<g>
</g>
<g>
</g>
</svg>
