<?xml version="1.0" encoding="iso-8859-1"?>
<!-- Generator: Adobe Illustrator 19.0.0, SVG Export Plug-In . SVG Version: 6.00 Build 0)  -->
<svg version="1.1" id="Layer_1" xmlns="http://www.w3.org/2000/svg" xmlns:xlink="http://www.w3.org/1999/xlink" x="0px" y="0px"
	 viewBox="0 0 508 508" style="enable-background:new 0 0 508 508;" xml:space="preserve">
<circle style="fill:#324A5E;" cx="254" cy="254" r="254"/>
<g>
	<path style="fill:#E6E9EE;" d="M324.8,95.2L340,44.4c-6.4-3.2-16-2.8-21.6,0.8c-7.6,4.8-20,4.8-28,0c-6.4-3.6-16.8-3.6-22.8,0
		c-7.6,4.8-20,4.8-28,0c-6-3.6-16.4-3.6-22.8,0c-8,4.8-20.4,4.8-28,0c-5.6-3.6-15.2-3.6-21.6-0.8l15.2,50.8H324.8z"/>
	<path style="fill:#E6E9EE;" d="M398,381.6c-6-12.8-7.2-27.6-4-41.6c2.4-11.2,4-23.6,4-37.6c0-64.8-29.6-140.4-73.6-182.8H183.6
		C140,162,110.4,238,110.4,302.8c0,13.6,1.2,26.4,4,37.6c3.2,14,2,28.4-4,41.6c-8.8,18.4-9.6,35.6,0,44.8c8.4,8.4,23.6,8,40,0.8
		c14-6,29.2-7.2,44-2.8c18.4,5.6,38.8,8,60.4,8s42-2.4,60.4-8c14.4-4.4,30-3.2,44,2.8c16.4,7.2,31.6,7.2,40-0.8
		C407.2,417.2,406.8,400,398,381.6z"/>
</g>
<path style="fill:#FF7058;" d="M324,120H184c-8,0-14.8-6.8-14.8-14.8l0,0c0-8,6.8-14.8,14.8-14.8h140c8,0,14.8,6.8,14.8,14.8l0,0
	C338.8,113.2,332,120,324,120z"/>
<path style="fill:#4CDBC4;" d="M294.4,303.6c0-22.4-18-40.4-40.4-40.4c-9.6,0-17.2-7.6-17.2-17.2c0-9.6,7.6-17.2,17.2-17.2
	c4.8,0,9.2,2,12.4,5.6c4.4,4.8,11.6,4.8,16.4,0.4c4.8-4.4,4.8-11.6,0.4-16.4c-4.8-5.2-11.2-8.8-18-10.8v-8c0-6.4-5.2-11.6-11.6-11.6
	s-11.6,5.2-11.6,11.6v8c-16.8,4.8-28.8,20.4-28.8,38.8c0,22.4,18,40.4,40.4,40.4c9.6,0,17.2,7.6,17.2,17.2s-7.6,17.2-17.2,17.2
	c-4.8,0-9.2-2-12.4-5.6c-4.4-4.8-11.6-4.8-16.4-0.4c-4.8,4.4-4.8,11.6-0.4,16.4c4.8,5.2,11.2,8.8,18,10.8v8
	c0,6.4,5.2,11.6,11.6,11.6s11.6-5.2,11.6-11.6v-8C282,337.6,294.4,322,294.4,303.6z"/>
<g>
</g>
<g>
</g>
<g>
</g>
<g>
</g>
<g>
</g>
<g>
</g>
<g>
</g>
<g>
</g>
<g>
</g>
<g>
</g>
<g>
</g>
<g>
</g>
<g>
</g>
<g>
</g>
<g>
</g>
</svg>
