<?xml version="1.0" encoding="iso-8859-1"?>
<!-- Generator: Adobe Illustrator 19.0.0, SVG Export Plug-In . SVG Version: 6.00 Build 0)  -->
<svg version="1.1" id="Layer_1" xmlns="http://www.w3.org/2000/svg" xmlns:xlink="http://www.w3.org/1999/xlink" x="0px" y="0px"
	 viewBox="0 0 508 508" style="enable-background:new 0 0 508 508;" xml:space="preserve">
<circle style="fill:#324A5E;" cx="254" cy="254" r="254"/>
<path style="fill:#2C9984;" d="M432.4,352.8V378c0,6-4.8,10.8-10.8,10.8H86.4c-6,0-10.8-4.8-10.8-10.8v-25.2c0,6,4.8,10.8,10.8,10.8
	h335.2C427.6,363.2,432.4,358.8,432.4,352.8z"/>
<path style="fill:#FFFFFF;" d="M432.4,327.6v25.2c0,6-4.8,10.8-10.8,10.8H86.4c-6,0-10.8-4.8-10.8-10.8v-25.2
	c0,6,4.8,10.8,10.8,10.8h335.2C427.6,338,432.4,333.2,432.4,327.6z"/>
<path style="fill:#2C9984;" d="M432.4,299.2v28.4c0,6-4.8,10.8-10.8,10.8H86.4c-6,0-10.8-4.8-10.8-10.8v-28.4
	c0,6,4.8,10.8,10.8,10.8h335.2C427.6,310,432.4,305.2,432.4,299.2z"/>
<path style="fill:#4CDBC4;" d="M421.6,310H86.4c-6,0-10.8-4.8-10.8-10.8V130c0-6,4.8-10.8,10.8-10.8h334.8c6,0,10.8,4.8,10.8,10.8
	v168.8C432.4,305.2,427.6,310,421.6,310z"/>
<path style="fill:#FFFFFF;" d="M94.4,263.6v-98c15.2,0,27.2-12.4,27.2-27.2h264c0,15.2,12.4,27.2,27.2,27.2v98
	c-15.2,0-27.2,12.4-27.2,27.2H122C122,276,109.6,263.6,94.4,263.6z"/>
<g>
	<circle style="fill:#2C9984;" cx="254" cy="214.8" r="62.4"/>
	<circle style="fill:#2C9984;" cx="362" cy="214.8" r="21.2"/>
	<circle style="fill:#2C9984;" cx="146" cy="214.8" r="21.2"/>
</g>
<path style="fill:#FFFFFF;" d="M276.8,230.8c0-12.4-10.4-22.8-22.8-22.8c-5.2,0-9.6-4.4-9.6-9.6c0-5.2,4-9.2,9.2-9.6
	c0.4,0,0.4,0,0.8,0s0.4,0,0.8,0c2.4,0,4.8,1.2,6.4,3.2c2.4,2.8,6.8,2.8,9.2,0.4c2.8-2.4,2.8-6.8,0.4-9.2c-2.8-2.8-6.4-5.2-10-6.4
	v-4.4c0-3.6-2.8-6.4-6.4-6.4s-6.4,2.8-6.4,6.4v4.4c-9.6,2.8-16.4,11.6-16.4,22c0,12.4,10.4,22.8,22.8,22.8c5.2,0,9.6,4.4,9.6,9.6
	c0,5.2-4,9.2-9.2,9.6c-0.4,0-0.4,0-0.8,0s-0.4,0-0.8,0c-2.4,0-4.8-1.2-6.4-3.2c-2.4-2.8-6.8-2.8-9.2-0.4c-2.8,2.4-2.8,6.8-0.4,9.2
	c2.8,2.8,6.4,5.2,10,6.4v4.4c0,3.6,2.8,6.4,6.4,6.4c3.6,0,6.4-2.8,6.4-6.4v-4.4C270,250,276.8,241.2,276.8,230.8z"/>
<g>
</g>
<g>
</g>
<g>
</g>
<g>
</g>
<g>
</g>
<g>
</g>
<g>
</g>
<g>
</g>
<g>
</g>
<g>
</g>
<g>
</g>
<g>
</g>
<g>
</g>
<g>
</g>
<g>
</g>
</svg>
