<?xml version="1.0" encoding="iso-8859-1"?>
<!-- Generator: Adobe Illustrator 19.0.0, SVG Export Plug-In . SVG Version: 6.00 Build 0)  -->
<svg version="1.1" id="Layer_1" xmlns="http://www.w3.org/2000/svg" xmlns:xlink="http://www.w3.org/1999/xlink" x="0px" y="0px"
	 viewBox="0 0 508 508" style="enable-background:new 0 0 508 508;" xml:space="preserve">
<circle style="fill:#90DFAA;" cx="254" cy="254" r="254"/>
<polygon style="fill:#FFFFFF;" points="424.8,221.2 254,50.4 83.2,221.2 122.8,221.2 151.6,408 356.4,408 385.2,221.2 "/>
<path style="fill:#FF7058;" d="M302.4,298.8c0-26.8-21.6-48.8-48.4-48.8c-11.6,0-20.8-9.2-20.8-20.8s9.2-20.8,20.8-20.8
	c5.6,0,11.2,2.4,15.2,6.4c5.2,5.6,14,6,19.6,0.4c5.6-5.2,6-14,0.4-19.6c-6-6.4-13.2-10.8-21.6-13.2v-9.6c0-7.6-6.4-14-14-14
	s-14,6.4-14,14v9.6c-20,6-34.8,24.4-34.8,46.4C205.6,256,227.2,278,254,278c11.6,0,20.8,9.2,20.8,20.8c0,11.6-9.2,20.8-20.8,20.8
	c-5.6,0-11.2-2.4-15.2-6.4c-5.2-5.6-14-6-19.6-0.4c-5.6,5.2-6,14-0.4,19.6c6,6.4,13.2,10.8,21.6,13.2v9.6c0,7.6,6.4,14,14,14
	s14-6.4,14-14v-9.6C288,339.2,302.4,320.8,302.4,298.8z"/>
<g>
</g>
<g>
</g>
<g>
</g>
<g>
</g>
<g>
</g>
<g>
</g>
<g>
</g>
<g>
</g>
<g>
</g>
<g>
</g>
<g>
</g>
<g>
</g>
<g>
</g>
<g>
</g>
<g>
</g>
</svg>
