<?xml version="1.0" encoding="iso-8859-1"?>
<!-- Generator: Adobe Illustrator 19.0.0, SVG Export Plug-In . SVG Version: 6.00 Build 0)  -->
<svg version="1.1" id="Layer_1" xmlns="http://www.w3.org/2000/svg" xmlns:xlink="http://www.w3.org/1999/xlink" x="0px" y="0px"
	 viewBox="0 0 508 508" style="enable-background:new 0 0 508 508;" xml:space="preserve">
<circle style="fill:#FFD05B;" cx="254" cy="254" r="254"/>
<path style="fill:#324A5E;" d="M392.4,270.8v51.6c-2-0.4-4-0.4-6-0.4s-4,0-6,0.4v-45.2h-120v45.6c-2.4-0.4-4.4-0.8-6.4-0.8
	s-4,0-6,0.4v-45.2H128v45.6c-2-0.4-4-0.4-6-0.4s-4,0-6,0.4v-52c0-1.6,0.8-3.2,1.6-4.4c1.2-1.2,2.8-1.6,4.4-1.6h126.4v-37.2
	c2,0,4,0,6,0s4,0,6,0v37.2h126.4C389.6,264.8,392.4,267.6,392.4,270.8z"/>
<g>
	<path style="fill:#FFFFFF;" d="M344.4,197.2C322,216,289.6,227.6,254,227.6s-68-11.6-90.4-30.4c2.4-48,42-86,90.4-86
		S342,149.2,344.4,197.2z"/>
	<circle style="fill:#FFFFFF;" cx="254" cy="66.8" r="34.4"/>
	<circle style="fill:#FFFFFF;" cx="386.4" cy="368" r="46"/>
	<circle style="fill:#FFFFFF;" cx="254" cy="368" r="46"/>
	<circle style="fill:#FFFFFF;" cx="121.6" cy="368" r="46"/>
</g>
<g>
	<circle style="fill:#FF7058;" cx="121.6" cy="368" r="26"/>
	<circle style="fill:#FF7058;" cx="386.4" cy="368" r="26"/>
	<circle style="fill:#FF7058;" cx="254" cy="368" r="26"/>
</g>
<g>
</g>
<g>
</g>
<g>
</g>
<g>
</g>
<g>
</g>
<g>
</g>
<g>
</g>
<g>
</g>
<g>
</g>
<g>
</g>
<g>
</g>
<g>
</g>
<g>
</g>
<g>
</g>
<g>
</g>
</svg>
