<?xml version="1.0" encoding="iso-8859-1"?>
<!-- Generator: Adobe Illustrator 19.0.0, SVG Export Plug-In . SVG Version: 6.00 Build 0)  -->
<svg version="1.1" id="Layer_1" xmlns="http://www.w3.org/2000/svg" xmlns:xlink="http://www.w3.org/1999/xlink" x="0px" y="0px"
	 viewBox="0 0 508 508" style="enable-background:new 0 0 508 508;" xml:space="preserve">
<circle style="fill:#FFD05B;" cx="254" cy="254" r="254"/>
<path style="fill:#FFFFFF;" d="M396.4,432.4H111.6c-7.6,0-14-6-14-14V89.2c0-7.6,6-14,14-14H396c7.6,0,14,6,14,14v329.6
	C410,426.4,404,432.4,396.4,432.4z"/>
<path style="fill:#FF7058;" d="M410,156V89.2c0-7.6-6-13.6-13.6-13.6H111.6c-7.6,0-13.6,6-13.6,13.6V156H410z"/>
<g>
	<path style="fill:#FFFFFF;" d="M179.2,135.2l-18-26v24c0,2-1.6,3.6-3.6,3.6s-3.6-1.6-3.6-3.6V98c0-2,1.6-3.6,3.6-3.6
		c1.2,0,2,0.4,2.8,1.6l18,26V98c0-2,1.6-3.6,3.6-3.6s3.6,1.6,3.6,3.6v35.2c0,2-1.6,3.6-3.6,3.6C180.8,136.8,179.6,136.4,179.2,135.2
		z"/>
	<path style="fill:#FFFFFF;" d="M234.8,133.2c0,2-1.6,3.6-3.6,3.6H212c-2,0-3.6-1.6-3.6-3.6V98c0-2,1.6-3.6,3.6-3.6h19.2
		c2,0,3.6,1.6,3.6,3.6s-1.6,3.6-3.6,3.6h-15.6V112H228c2,0,3.6,1.6,3.6,3.6s-1.6,3.6-3.6,3.6h-12.4v10.4h15.6
		C233.2,129.6,234.8,131.2,234.8,133.2z"/>
	<path style="fill:#FFFFFF;" d="M302.8,96.8L291.6,124l-4-10l6.4-14.8c0.8-2.4-0.8-4.8-3.2-4.8l0,0c-1.6,0-2.8,0.8-3.2,2l-3.6,8.4
		l-3.6-8.4c-0.4-1.2-2-2-3.2-2l0,0c-2.4,0-4.4,2.4-3.2,4.8l6.4,14.8l-4,10l-11.6-27.2c-0.4-1.2-2-2-3.2-2l0,0
		c-2.4,0-4.4,2.4-3.2,4.8l14.8,35.2c0.4,1.2,2,2,3.2,2s2.8-0.8,3.2-2l4.8-11.2l4.8,11.2c0.4,1.2,2,2,3.2,2s2.8-0.8,3.2-2l14.8-35.2
		c0.8-2.4-0.8-4.8-3.2-4.8l0,0C304.8,94.8,303.2,95.6,302.8,96.8z"/>
</g>
<g>
	<rect x="216.4" y="174" style="fill:#E6E9EE;" width="75.2" height="10.4"/>
	<rect x="314.4" y="174" style="fill:#E6E9EE;" width="75.2" height="10.4"/>
	<rect x="216.4" y="202.4" style="fill:#E6E9EE;" width="75.2" height="10.4"/>
	<rect x="314.4" y="202.4" style="fill:#E6E9EE;" width="75.2" height="10.4"/>
	<rect x="216.4" y="230.8" style="fill:#E6E9EE;" width="75.2" height="10.4"/>
	<rect x="314.4" y="230.8" style="fill:#E6E9EE;" width="75.2" height="10.4"/>
	<rect x="118.4" y="259.2" style="fill:#E6E9EE;" width="75.2" height="10.4"/>
</g>
<rect x="118.4" y="174" style="fill:#84DBFF;" width="75.2" height="72.4"/>
<g>
	<rect x="216.4" y="259.2" style="fill:#E6E9EE;" width="75.2" height="10.4"/>
	<rect x="314.4" y="259.2" style="fill:#E6E9EE;" width="75.2" height="10.4"/>
	<rect x="118.4" y="287.6" style="fill:#E6E9EE;" width="75.2" height="10.4"/>
	<rect x="216.4" y="287.6" style="fill:#E6E9EE;" width="75.2" height="10.4"/>
</g>
<rect x="314.4" y="287.6" style="fill:#84DBFF;" width="75.2" height="67.2"/>
<g>
	<rect x="118.4" y="316" style="fill:#E6E9EE;" width="75.2" height="10.4"/>
	<rect x="216.4" y="316" style="fill:#E6E9EE;" width="75.2" height="10.4"/>
	<rect x="118.4" y="344" style="fill:#E6E9EE;" width="75.2" height="10.4"/>
	<rect x="216.4" y="344" style="fill:#E6E9EE;" width="75.2" height="10.4"/>
	<rect x="118.4" y="372.4" style="fill:#E6E9EE;" width="75.2" height="10.4"/>
	<rect x="216.4" y="372.4" style="fill:#E6E9EE;" width="75.2" height="10.4"/>
	<rect x="314.4" y="372.4" style="fill:#E6E9EE;" width="75.2" height="10.4"/>
	<rect x="118.4" y="400.8" style="fill:#E6E9EE;" width="75.2" height="10.4"/>
	<rect x="216.4" y="400.8" style="fill:#E6E9EE;" width="75.2" height="10.4"/>
	<rect x="314.4" y="400.8" style="fill:#E6E9EE;" width="75.2" height="10.4"/>
</g>
<path style="fill:#FFFFFF;" d="M340.8,112L340.8,112c-2.8,0-5.2-2.4-5.2-5.2c0-2.8,2.4-5.2,5.2-5.2c1.6,0,2.8,0.4,4,1.6
	c1.2,1.6,3.6,1.6,4.8,0c1.6-1.2,1.6-3.6,0-4.8c-2.4-2.4-5.6-4-8.8-4c-6.8,0-12.4,5.6-12.4,12.4s5.6,12.4,12.4,12.4
	c2.8,0,5.2,2.4,5.2,5.2s-2.4,5.2-5.2,5.2c-1.6,0-2.8-0.4-4-1.6c-1.2-1.6-3.6-1.6-4.8,0c-1.6,1.2-1.6,3.6,0,4.8c2.4,2.4,5.6,4,8.8,4
	c6.8,0,12.4-5.6,12.4-12.4S347.6,112,340.8,112z"/>
<g>
</g>
<g>
</g>
<g>
</g>
<g>
</g>
<g>
</g>
<g>
</g>
<g>
</g>
<g>
</g>
<g>
</g>
<g>
</g>
<g>
</g>
<g>
</g>
<g>
</g>
<g>
</g>
<g>
</g>
</svg>
