<?xml version="1.0" encoding="iso-8859-1"?>
<!-- Generator: Adobe Illustrator 19.0.0, SVG Export Plug-In . SVG Version: 6.00 Build 0)  -->
<svg version="1.1" id="Layer_1" xmlns="http://www.w3.org/2000/svg" xmlns:xlink="http://www.w3.org/1999/xlink" x="0px" y="0px"
	 viewBox="0 0 508 508" style="enable-background:new 0 0 508 508;" xml:space="preserve">
<circle style="fill:#FD8469;" cx="254" cy="254" r="254"/>
<g>
	<path style="fill:#324A5E;" d="M440.8,131.6V374c-61.2-12.4-126.8-4-186.8,24.4c48.4-35.2,102-51.2,151.6-45.6v-226
		C417.6,127.6,429.2,129.2,440.8,131.6z"/>
	<path style="fill:#324A5E;" d="M254,398.4C194.4,370,128.8,361.6,67.2,374V131.6c11.6-2.4,23.2-4,35.2-4.8v226
		C152,347.6,205.6,363.2,254,398.4z"/>
</g>
<path style="fill:#FFFFFF;" d="M405.6,110.4C356,104.8,302.4,120.8,254,156v242.4c48.4-35.2,102-51.2,151.6-45.6V110.4z"/>
<g>
	<path style="fill:#E6E9EE;" d="M266,174.4v6c40.4-28.4,85.6-42,127.2-38.4v-5.2C351.6,133.6,306.8,146.8,266,174.4z"/>
	<path style="fill:#E6E9EE;" d="M266,203.6v6.4c40.4-28.4,85.6-42,127.2-38.4v-5.2C351.6,162.8,306.8,176,266,203.6z"/>
	<path style="fill:#E6E9EE;" d="M266,232.8v6c40.4-28.4,85.6-42,127.2-38.4v-5.2C351.6,192,306.8,205.2,266,232.8z"/>
	<path style="fill:#E6E9EE;" d="M266,262.4v6c40.4-28.4,85.6-42,127.2-38.4v-5.2C351.6,221.2,306.8,234.4,266,262.4z"/>
	<path style="fill:#E6E9EE;" d="M266,291.6v6c40.4-28.4,85.6-42,127.2-38.4V254C351.6,250.4,306.8,263.6,266,291.6z"/>
	<path style="fill:#E6E9EE;" d="M266,320.8v6c40.4-28.4,85.6-42,127.2-38.4v-5.2C351.6,280,306.8,293.2,266,320.8z"/>
	<path style="fill:#E6E9EE;" d="M266,350v6c40.4-28.4,85.6-42,127.2-38.4v-5.2C351.6,309.2,306.8,322.4,266,350z"/>
	<path style="fill:#E6E9EE;" d="M102.4,110.4c50-5.6,103.2,10.4,151.6,45.6v242.4c-48.4-35.2-102-51.2-151.6-45.6
		C102.4,352.8,102.4,110.4,102.4,110.4z"/>
</g>
<g>
	<path style="fill:#CED5E0;" d="M242,174.4v6c-40.8-28.4-85.6-42-127.6-38.4v-5.2C156.4,133.6,201.2,146.8,242,174.4z"/>
	<path style="fill:#CED5E0;" d="M242,203.6v6.4c-40.4-28.4-85.6-42-127.2-38.4v-5.2C156.4,162.8,201.2,176,242,203.6z"/>
	<path style="fill:#CED5E0;" d="M242,232.8v6c-40.4-28.4-85.6-42-127.2-38.4v-5.2C156.4,192,201.2,205.2,242,232.8z"/>
	<path style="fill:#CED5E0;" d="M242,262.4v6c-40.8-28.4-85.6-42-127.6-38.4v-5.2C156.4,221.2,201.2,234.4,242,262.4z"/>
	<path style="fill:#CED5E0;" d="M242,291.6v6c-40.4-28.4-85.6-42-127.2-38.4V254C156.4,250.4,201.2,263.6,242,291.6z"/>
	<path style="fill:#CED5E0;" d="M242,320.8v6c-40.4-28.4-85.6-42-127.2-38.4v-5.2C156.4,280,201.2,293.2,242,320.8z"/>
	<path style="fill:#CED5E0;" d="M242,350v6c-40.8-28.4-85.6-42-127.6-38.4v-5.2C156.4,309.2,201.2,322.4,242,350z"/>
</g>
<g>
</g>
<g>
</g>
<g>
</g>
<g>
</g>
<g>
</g>
<g>
</g>
<g>
</g>
<g>
</g>
<g>
</g>
<g>
</g>
<g>
</g>
<g>
</g>
<g>
</g>
<g>
</g>
<g>
</g>
</svg>
