<?xml version="1.0" encoding="iso-8859-1"?>
<!-- Generator: Adobe Illustrator 19.0.0, SVG Export Plug-In . SVG Version: 6.00 Build 0)  -->
<svg version="1.1" id="Layer_1" xmlns="http://www.w3.org/2000/svg" xmlns:xlink="http://www.w3.org/1999/xlink" x="0px" y="0px"
	 viewBox="0 0 508 508" style="enable-background:new 0 0 508 508;" xml:space="preserve">
<circle style="fill:#324A5E;" cx="254" cy="254" r="254"/>
<path style="fill:#FFFFFF;" d="M242.4,98.4c-92.4,0-167.2,74.8-167.2,167.2S150,432.8,242.4,432.8S409.6,358,409.6,265.6H242.4V98.4
	z"/>
<path style="fill:#FF7058;" d="M265.6,75.6L265.6,75.6v167.2h167.2l0,0C432.4,150.4,357.6,75.6,265.6,75.6z"/>
<g>
	<path style="fill:#FFFFFF;" d="M324,153.6c0-11.6-9.6-21.2-21.2-21.2s-21.2,9.6-21.2,21.2c0,11.6,9.6,21.2,21.2,21.2
		S324,165.2,324,153.6z M295.6,153.6c0-4,3.2-7.2,7.2-7.2s7.2,3.2,7.2,7.2s-3.2,7.2-7.2,7.2C298.8,160.8,295.6,157.6,295.6,153.6z"
		/>
	<path style="fill:#FFFFFF;" d="M356,174.8c-11.6,0-21.6,9.6-21.6,21.6c0,11.6,9.6,21.2,21.6,21.2c11.6,0,21.2-9.6,21.2-21.2
		C377.6,184.4,368,174.8,356,174.8z M356,203.2c-4,0-7.2-3.2-7.2-7.2s3.2-7.2,7.2-7.2s7.2,3.2,7.2,7.2S360,203.2,356,203.2z"/>
	<path style="fill:#FFFFFF;" d="M361.6,144c2.4-3.2,1.6-7.6-1.6-10s-7.6-1.6-10,1.6l-52.8,70.8c-2.4,3.2-1.6,7.6,1.6,10
		s7.6,1.6,10-1.6L361.6,144z"/>
</g>
<g>
</g>
<g>
</g>
<g>
</g>
<g>
</g>
<g>
</g>
<g>
</g>
<g>
</g>
<g>
</g>
<g>
</g>
<g>
</g>
<g>
</g>
<g>
</g>
<g>
</g>
<g>
</g>
<g>
</g>
</svg>
