<?xml version="1.0" encoding="iso-8859-1"?>
<!-- Generator: Adobe Illustrator 19.0.0, SVG Export Plug-In . SVG Version: 6.00 Build 0)  -->
<svg version="1.1" id="Layer_1" xmlns="http://www.w3.org/2000/svg" xmlns:xlink="http://www.w3.org/1999/xlink" x="0px" y="0px"
	 viewBox="0 0 508 508" style="enable-background:new 0 0 508 508;" xml:space="preserve">
<circle style="fill:#90DFAA;" cx="254" cy="254" r="254"/>
<circle style="fill:#2C9984;" cx="254" cy="252" r="198.4"/>
<circle style="fill:#324A5E;" cx="254" cy="252" r="198.4"/>
<circle style="fill:#FFFFFF;" cx="254" cy="252" r="162"/>
<circle style="fill:#324A5E;" cx="254" cy="252" r="142.8"/>
<path style="fill:#FFFFFF;" d="M299.2,302.4c-11.6,7.6-20,5.2-34,1.6c-2-0.4-4-1.2-6-1.6c-7.6-2-16.8-1.6-26.4-0.4
	c1.2-3.2,2.4-6.4,3.6-9.6c2.8-8.8,4.4-18,4.4-26.8h26.4c6.8,0,12.4-5.6,12.4-12.4s-5.6-12.4-12.4-12.4h-30.4c0,0,0,0,0-0.4
	c-6-16-6.4-32-0.8-39.6c1.2-1.6,4.4-6.4,16-6.4c11.2,0,18.8,3.6,24,11.6c3.6,6,11.2,7.6,17.2,4s7.6-11.2,4-17.2
	c-9.2-15.2-25.2-23.6-45.2-23.6c-20.4,0-31.2,9.2-36.4,17.2c-12,17.2-8.4,40.8-4.8,54.4H202c-6.8,0-12.4,5.6-12.4,12.4
	s5.6,12.4,12.4,12.4h14c-0.4,18.8-10,39.2-20.8,46c-5.2,3.6-7.2,10.4-4.4,16c2,4.4,6.4,7.2,11.2,7.2c1.2,0,2.8-0.4,4-0.8
	c14-4.8,37.6-10,47.2-7.6c2,0.4,3.6,0.8,5.6,1.6c15.6,4.4,33.2,9.2,54.4-4.4c5.6-3.6,7.6-11.6,3.6-17.2
	C312.8,300.4,304.8,298.8,299.2,302.4z"/>
<g>
</g>
<g>
</g>
<g>
</g>
<g>
</g>
<g>
</g>
<g>
</g>
<g>
</g>
<g>
</g>
<g>
</g>
<g>
</g>
<g>
</g>
<g>
</g>
<g>
</g>
<g>
</g>
<g>
</g>
</svg>
