<?xml version="1.0" encoding="iso-8859-1"?>
<!-- Generator: Adobe Illustrator 19.0.0, SVG Export Plug-In . SVG Version: 6.00 Build 0)  -->
<svg version="1.1" id="Layer_1" xmlns="http://www.w3.org/2000/svg" xmlns:xlink="http://www.w3.org/1999/xlink" x="0px" y="0px"
	 viewBox="0 0 508 508" style="enable-background:new 0 0 508 508;" xml:space="preserve">
<circle style="fill:#FFD05B;" cx="254" cy="254" r="254"/>
<path style="fill:#324A5E;" d="M394,258.8V288c-2.4-0.4-4.8-0.4-7.2-0.4c-3.6,0-7.2,0.4-10.4,1.2v-29.6H262.8v29.6
	c-2.8-0.4-6-0.8-8.8-0.8c-3.2,0-6,0.4-8.8,0.8v-29.6H131.6v29.6c-3.2-0.8-6.8-1.2-10.4-1.2c-2.4,0-4.8,0-7.2,0.4v-29.2
	c0-10,8-18,17.6-18h113.2V210h18v30.8H376C386,240.8,394,248.8,394,258.8z"/>
<g>
	<path style="fill:#FFFFFF;" d="M335.2,210H172.8c-5.6,0-10-4.4-10-10v-60.4c0-5.6,4.4-10,10-10h162c5.6,0,10,4.4,10,10V200
		C345.2,205.6,340.8,210,335.2,210z"/>
	<circle style="fill:#FFFFFF;" cx="254" cy="332.8" r="45.6"/>
	<circle style="fill:#FFFFFF;" cx="386.8" cy="332.8" r="45.6"/>
	<circle style="fill:#FFFFFF;" cx="121.2" cy="332.8" r="45.6"/>
</g>
<circle style="fill:#84DBFF;" cx="121.2" cy="332.8" r="31.6"/>
<circle style="fill:#FF7058;" cx="254" cy="332.8" r="31.6"/>
<circle style="fill:#FFD05B;" cx="386.8" cy="332.8" r="31.6"/>
<g>
	<path style="fill:#FD8469;" d="M264.4,193.6c0,2.8-2,4.8-4.8,4.8h-26.4c-2.8,0-4.8-2-4.8-4.8v-48c0-2.8,2-4.8,4.8-4.8h26.4
		c2.8,0,4.8,2,4.8,4.8s-2,4.8-4.8,4.8H238v14.4h16.8c2.8,0,4.8,2,4.8,4.8s-2,4.8-4.8,4.8H238v14.4h21.6
		C262.4,188.8,264.4,190.8,264.4,193.6z"/>
	<path style="fill:#FD8469;" d="M266.8,169.6c0-16,12.4-28.8,27.6-28.8s27.6,12.8,27.6,28.8s-12.4,28.8-27.6,28.8
		C279.2,198.4,266.8,185.6,266.8,169.6z M276.4,169.6c0,10.4,8,19.2,18,19.2s18-8.4,18-19.2c0-10.4-8-19.2-18-19.2
		C284.8,150.4,276.4,159.2,276.4,169.6z"/>
	<path style="fill:#FD8469;" d="M202.8,164.8L202.8,164.8c-4,0-7.2-3.2-7.2-7.2s3.2-7.2,7.2-7.2c2,0,4,0.8,5.2,2.4
		c2,2,4.8,2,6.8,0.4c2-2,2-4.8,0.4-6.8c-3.2-3.2-7.6-5.2-12-5.2c-9.2,0-16.8,7.6-16.8,16.8s7.6,16.8,16.8,16.8c4,0,7.2,3.2,7.2,7.2
		s-3.2,7.2-7.2,7.2c-2,0-4-0.8-5.2-2.4c-2-2-4.8-2-6.8-0.4c-2,2-2,4.8-0.4,6.8c3.2,3.2,7.6,5.2,12,5.2c9.2,0,16.8-7.6,16.8-16.8
		C219.6,172.4,212,164.8,202.8,164.8z"/>
</g>
<g>
</g>
<g>
</g>
<g>
</g>
<g>
</g>
<g>
</g>
<g>
</g>
<g>
</g>
<g>
</g>
<g>
</g>
<g>
</g>
<g>
</g>
<g>
</g>
<g>
</g>
<g>
</g>
<g>
</g>
</svg>
