<?xml version="1.0" encoding="iso-8859-1"?>
<!-- Generator: Adobe Illustrator 19.0.0, SVG Export Plug-In . SVG Version: 6.00 Build 0)  -->
<svg version="1.1" id="Layer_1" xmlns="http://www.w3.org/2000/svg" xmlns:xlink="http://www.w3.org/1999/xlink" x="0px" y="0px"
	 viewBox="0 0 508 508" style="enable-background:new 0 0 508 508;" xml:space="preserve">
<circle style="fill:#FD8469;" cx="254" cy="254" r="254"/>
<g>
	<path style="fill:#FFFFFF;" d="M414.4,176.8c-2.4-10.4-6.4-20.4-12-28.8l9.6-15.6l-19.2-19.2l-15.6,9.6c-8.8-5.6-18.4-10-28.8-12
		l-4.4-18h-27.2l-4.4,18c-10.4,2.4-20.4,6.4-28.8,12l-15.6-9.6l-19.2,19.2l9.6,15.6c-5.6,8.8-10,18.4-12,28.8l-18,4.4v27.2l18,4.4
		c2.4,10.4,6.4,20.4,12,28.8l-9.6,15.6l19.2,19.2l15.6-9.6c8.8,5.6,18.4,10,28.8,12l4.4,18H344l4.4-18c10.4-2.4,20.4-6.4,28.8-12
		l15.6,9.6l19.2-19.2l-9.6-15.6c5.6-8.8,10-18.4,12-28.8l18-4.4v-27.2L414.4,176.8z M330.8,253.2c-32.4,0-58.8-26.4-58.8-58.8
		s26.4-58.8,58.8-58.8s58.8,26.4,58.8,58.8C389.6,226.8,363.2,253.2,330.8,253.2z"/>
	<path style="fill:#FFFFFF;" d="M251.2,310v-28l-21.6-3.6c-1.6-6-4-11.6-6.8-16.8l12.8-18L216,224l-18,12.8
		c-5.2-3.2-10.8-5.2-16.8-6.8l-3.6-21.6h-28l-4,21.6c-6,1.6-11.6,4-16.8,6.8l-18-12.8l-19.6,19.6l12.8,18
		c-3.2,5.2-5.2,10.8-6.8,16.8L75.6,282v28l21.6,3.6c1.6,6,4,11.6,6.8,16.8l-12.8,18l19.6,19.6l18-12.8c5.2,3.2,10.8,5.2,16.8,6.8
		l3.6,21.6h28l3.6-21.6c6-1.6,11.6-4,16.8-6.8l18,12.8l19.6-19.6l-12.8-18c3.2-5.2,5.2-10.8,6.8-16.8L251.2,310z M163.2,337.2
		c-22.8,0-41.2-18.4-41.2-41.2c0-22.8,18.4-41.2,41.2-41.2s41.2,18.4,41.2,41.2C204.8,318.8,186,337.2,163.2,337.2z"/>
	<path style="fill:#FFFFFF;" d="M353.6,369.2V352l-13.6-2.4c-0.8-3.6-2.4-7.2-4.4-10.4l8-11.2l-12.4-12.4l-11.2,8
		c-3.2-2-6.8-3.2-10.4-4.4l-2.4-13.6H290l-2.4,13.6c-3.6,0.8-7.2,2.4-10.4,4.4l-11.2-8L253.6,328l8,11.2c-2,3.2-3.2,6.8-4.4,10.4
		l-13.6,2.4v17.2l13.6,2.4c0.8,3.6,2.4,7.2,4.4,10.4l-8,11.2l12.4,12.4l11.2-8c3.2,2,6.8,3.2,10.4,4.4l2.4,13.6h17.2l2.4-13.6
		c3.6-0.8,7.2-2.4,10.4-4.4l11.2,8l12.4-12.4l-8-11.2c2-3.2,3.2-6.8,4.4-10.4L353.6,369.2z M298.8,386.4
		c-14.4,0-25.6-11.6-25.6-25.6c0-14.4,11.6-25.6,25.6-25.6s25.6,11.6,25.6,25.6S312.8,386.4,298.8,386.4z"/>
	<circle style="fill:#FFFFFF;" cx="330.8" cy="194.4" r="30.8"/>
</g>
<g>
</g>
<g>
</g>
<g>
</g>
<g>
</g>
<g>
</g>
<g>
</g>
<g>
</g>
<g>
</g>
<g>
</g>
<g>
</g>
<g>
</g>
<g>
</g>
<g>
</g>
<g>
</g>
<g>
</g>
</svg>
