<?xml version="1.0" encoding="iso-8859-1"?>
<!-- Generator: Adobe Illustrator 19.0.0, SVG Export Plug-In . SVG Version: 6.00 Build 0)  -->
<svg version="1.1" id="Layer_1" xmlns="http://www.w3.org/2000/svg" xmlns:xlink="http://www.w3.org/1999/xlink" x="0px" y="0px"
	 viewBox="0 0 508 508" style="enable-background:new 0 0 508 508;" xml:space="preserve">
<circle style="fill:#90DFAA;" cx="254" cy="254" r="254"/>
<path style="fill:#FFFFFF;" d="M456.8,280.8v-54l-36-8.4c-4.4-20.8-12.8-40.4-24-57.6l19.6-31.2l-38-38l-31.2,19.6
	c-17.2-11.2-36.8-19.6-57.6-24l-8.4-36h-54l-8.4,36c-20.8,4.4-40.4,12.8-57.6,24L130,91.6l-38,38l19.6,31.2
	c-11.2,17.2-19.6,36.8-24,57.6l-36,8.4v54l36,8.4c4.4,20.8,12.8,40.4,24,57.6L92,378l38,38l31.2-19.6c17.2,11.2,36.8,19.6,57.6,24
	l8.4,36h54l8.4-36c20.8-4.4,40.4-12.8,57.6-24l31.2,19.6l38-38l-19.6-31.2c11.2-17.2,19.6-36.8,24-57.6L456.8,280.8z"/>
<circle style="fill:#90DFAA;" cx="254" cy="254" r="117.2"/>
<path style="fill:#324A5E;" d="M295.6,283.6c0-22.8-18.8-41.6-41.6-41.6c-9.6,0-17.6-8-17.6-17.6s8-17.6,17.6-17.6
	c4.8,0,9.6,2,12.8,5.6c4.4,4.8,12,4.8,16.8,0.4c4.8-4.4,4.8-12,0.4-16.8c-5.2-5.2-11.2-9.2-18.4-11.2v-8.4c0-6.4-5.2-12-12-12
	c-6.4,0-12,5.2-12,12v8.4c-17.2,5.2-29.6,20.8-29.6,39.6c0.4,22.8,19.2,41.6,42,41.6c9.6,0,17.6,8,17.6,17.6s-8,17.6-17.6,17.6
	c-4.8,0-9.6-2-12.8-5.6c-4.4-4.8-12-4.8-16.8-0.4s-4.8,12-0.4,16.8c5.2,5.2,11.2,9.2,18.4,11.2v8.4c0,6.4,5.2,12,12,12
	c6.4,0,12-5.2,12-12v-8.4C282.8,318,295.6,302.4,295.6,283.6z"/>
<g>
</g>
<g>
</g>
<g>
</g>
<g>
</g>
<g>
</g>
<g>
</g>
<g>
</g>
<g>
</g>
<g>
</g>
<g>
</g>
<g>
</g>
<g>
</g>
<g>
</g>
<g>
</g>
<g>
</g>
</svg>
