<?xml version="1.0" encoding="iso-8859-1"?>
<!-- Generator: Adobe Illustrator 19.0.0, SVG Export Plug-In . SVG Version: 6.00 Build 0)  -->
<svg version="1.1" id="Layer_1" xmlns="http://www.w3.org/2000/svg" xmlns:xlink="http://www.w3.org/1999/xlink" x="0px" y="0px"
	 viewBox="0 0 508 508" style="enable-background:new 0 0 508 508;" xml:space="preserve">
<circle style="fill:#FD8469;" cx="254" cy="254" r="254"/>
<path style="fill:#324A5E;" d="M366.8,451.6H141.2c-9.6,0-17.2-7.6-17.2-17.2V73.6c0-9.6,7.6-17.2,17.2-17.2h225.2
	c9.6,0,17.2,7.6,17.2,17.2v360.8C384,444,376.4,451.6,366.8,451.6z"/>
<g>
	<rect x="132" y="102" style="fill:#E6E9EE;" width="244" height="50.8"/>
	<rect x="132" y="349.2" style="fill:#E6E9EE;" width="244" height="50.8"/>
</g>
<polygon style="fill:#CED5E0;" points="376,360 376,349.2 132,349.2 132,352.4 "/>
<g>
	<circle style="fill:#2B3B4E;" cx="254" cy="425.2" r="16"/>
	<path style="fill:#2B3B4E;" d="M294,84.4h-57.6c-2.8,0-4.8-2-4.8-4.8l0,0c0-2.8,2-4.8,4.8-4.8H294c2.8,0,4.8,2,4.8,4.8l0,0
		C298.8,82,296.4,84.4,294,84.4z"/>
	<path style="fill:#2B3B4E;" d="M217.6,84.4H214c-2.8,0-4.8-2-4.8-4.8l0,0c0-2.8,2-4.8,4.8-4.8h3.6c2.8,0,4.8,2,4.8,4.8l0,0
		C222.4,82,220.4,84.4,217.6,84.4z"/>
	<circle style="fill:#2B3B4E;" cx="350.8" cy="79.6" r="8.8"/>
	<circle style="fill:#2B3B4E;" cx="314.4" cy="90.4" r="4.4"/>
	<circle style="fill:#2B3B4E;" cx="328" cy="90.4" r="4.4"/>
</g>
<rect x="132" y="152.4" style="fill:#FFFFFF;" width="282.4" height="196.8"/>
<g>
	<path style="fill:#4CDBC4;" d="M132,164.8v12.4h47.2c-22.4,15.2-37.2,42.4-37.2,73.6s14.8,58.4,37.2,73.6H132v12.4h269.6v-172
		L132,164.8L132,164.8z M389.2,299.2c-13.6,0-24.8,11.2-24.8,24.8H259.2c22.4-15.2,37.2-42.4,37.2-73.6s-14.8-58.4-37.2-73.6h105.2
		c0,13.6,11.2,24.8,24.8,24.8V299.2z"/>
	<circle style="fill:#4CDBC4;" cx="344.4" cy="250.8" r="26.8"/>
</g>
<path style="fill:#FFFFFF;" d="M218.8,242.4c-7.2,0-12.8-5.6-12.8-12.8s5.6-12.8,12.8-12.8c3.6,0,6.8,1.6,9.2,4
	c3.2,3.6,8.8,3.6,12,0.4c3.6-3.2,3.6-8.8,0.4-12c-3.6-4-8.4-6.8-13.2-8v-6c0-4.8-4-8.4-8.4-8.4c-4.8,0-8.4,4-8.4,8.4v6
	c-12.4,3.6-21.2,15.2-21.2,28.8c0,16.4,13.6,30,30,30c7.2,0,12.8,5.6,12.8,12.8c0,7.2-5.6,12.8-12.8,12.8c-3.6,0-6.8-1.6-9.2-4
	c-3.2-3.6-8.8-3.6-12-0.4c-3.6,3.2-3.6,8.8-0.4,12c3.6,4,8.4,6.8,13.2,8v6c0,4.8,4,8.4,8.4,8.4c4.8,0,8.4-4,8.4-8.4v-6
	c12.4-3.6,21.2-15.2,21.2-28.8C248.8,255.6,235.6,242.4,218.8,242.4z"/>
<g>
</g>
<g>
</g>
<g>
</g>
<g>
</g>
<g>
</g>
<g>
</g>
<g>
</g>
<g>
</g>
<g>
</g>
<g>
</g>
<g>
</g>
<g>
</g>
<g>
</g>
<g>
</g>
<g>
</g>
</svg>
