<?xml version="1.0" encoding="iso-8859-1"?>
<!-- Generator: Adobe Illustrator 19.0.0, SVG Export Plug-In . SVG Version: 6.00 Build 0)  -->
<svg version="1.1" id="Layer_1" xmlns="http://www.w3.org/2000/svg" xmlns:xlink="http://www.w3.org/1999/xlink" x="0px" y="0px"
	 viewBox="0 0 508 508" style="enable-background:new 0 0 508 508;" xml:space="preserve">
<circle style="fill:#54C0EB;" cx="254" cy="254" r="254"/>
<g>
	<path style="fill:#FFFFFF;" d="M480,247.2h-28c-3.2-104.4-87.6-188.4-191.6-191.6v-28c0-3.6-2.8-6.4-6.4-6.4s-6.4,2.8-6.4,6.4v28
		C143.2,58.8,59.2,143.2,56,247.2H28c-3.2,0-6,2.8-6,6.4s2.8,6.4,6.4,6.4h28C59.6,364.4,144,448.4,248,451.6v28
		c0,3.6,2.8,6.4,6.4,6.4c3.6,0,6.4-2.8,6.4-6.4v-28C365.2,448.4,449.2,364,452.4,260h28c3.6,0,6.4-2.8,6.4-6.4
		C486,250,483.2,247.2,480,247.2z M260.4,113.6c72,3.2,130.4,61.2,133.6,133.6h-68.8c-3.2-34.4-30.4-62-64.8-64.8L260.4,113.6
		L260.4,113.6z M394,259.6C390.8,332,332.4,390,260.4,393.2v-68.8c34.4-2.8,61.6-30.4,64.8-64.8H394z M247.6,68v33.2
		c-79.2,3.2-142.8,66.8-146,146H68.4C71.6,150,150.4,71.2,247.6,68z M247.6,113.6v68.8c-34.4,3.2-62,30.4-64.8,64.8H114
		C117.2,174.8,175.6,116.8,247.6,113.6z M247.6,438.8c-97.2-3.2-176-82-179.2-179.2h33.2c3.2,79.2,66.8,142.8,146,146V438.8z
		 M247.6,393.2C175.6,390,117.2,332,114,259.6h68.8c3.2,34.4,30.4,62,64.8,64.8V393.2z M254,312.4c-32.4,0-58.8-26.4-58.8-58.8
		s26.4-58.8,58.8-58.8s58.8,26.4,58.8,58.8S286.4,312.4,254,312.4z M260.4,438.8V406c79.2-3.2,142.8-66.8,146-146h33.2
		C436.4,357.2,357.6,435.6,260.4,438.8z M406.4,247.2c-3.2-79.2-66.8-142.8-146-146V68c97.2,3.2,176,82,179.2,179.2H406.4z"/>
	<path style="fill:#FFFFFF;" d="M268.8,247.2H260v-8.8c0-3.6-2.8-6.4-6.4-6.4s-6.4,2.8-6.4,6.4v8.8h-8.8c-3.6,0-6.4,2.8-6.4,6.4
		s2.8,6.4,6.4,6.4h8.8v8.8c0,3.6,2.8,6.4,6.4,6.4c3.6,0,6.4-2.8,6.4-6.4V260h8.8c3.6,0,6.4-2.8,6.4-6.4
		C275.2,250,272.4,247.2,268.8,247.2z"/>
</g>
<g>
</g>
<g>
</g>
<g>
</g>
<g>
</g>
<g>
</g>
<g>
</g>
<g>
</g>
<g>
</g>
<g>
</g>
<g>
</g>
<g>
</g>
<g>
</g>
<g>
</g>
<g>
</g>
<g>
</g>
</svg>
