<?xml version="1.0" encoding="iso-8859-1"?>
<!-- Generator: Adobe Illustrator 19.0.0, SVG Export Plug-In . SVG Version: 6.00 Build 0)  -->
<svg version="1.1" id="Layer_1" xmlns="http://www.w3.org/2000/svg" xmlns:xlink="http://www.w3.org/1999/xlink" x="0px" y="0px"
	 viewBox="0 0 508 508" style="enable-background:new 0 0 508 508;" xml:space="preserve">
<circle style="fill:#324A5E;" cx="254" cy="254" r="254"/>
<circle style="fill:#2C9984;" cx="254" cy="254" r="198.4"/>
<circle style="fill:#FF7058;" cx="254" cy="254" r="198.4"/>
<circle style="fill:#FFFFFF;" cx="254" cy="254" r="162"/>
<circle style="fill:#FF7058;" cx="254" cy="254" r="142.8"/>
<path style="fill:#FFFFFF;" d="M301.6,267.2c8,0,14.8-6.8,14.8-14.8s-6.8-14.8-14.8-14.8h-18l32.8-50.8c4.4-6.8,2.4-16-4.4-20.4
	s-16-2.4-20.4,4.4l-37.6,58l-37.2-58c-4.4-6.8-13.6-8.8-20.4-4.4c-6.8,4.4-8.8,13.6-4.4,20.4l32.8,50.8h-18c-8,0-14.8,6.8-14.8,14.8
	c0,8,6.8,14.8,14.8,14.8h32.8v14.4h-32.8c-8,0-14.8,6.8-14.8,14.8s6.8,14.8,14.8,14.8h32.8v18c0,8,6.8,14.8,14.8,14.8
	s14.8-6.8,14.8-14.8v-18H302c8,0,14.8-6.8,14.8-14.8s-6.8-14.8-14.8-14.8h-32.8v-14.4H301.6z"/>
<g>
</g>
<g>
</g>
<g>
</g>
<g>
</g>
<g>
</g>
<g>
</g>
<g>
</g>
<g>
</g>
<g>
</g>
<g>
</g>
<g>
</g>
<g>
</g>
<g>
</g>
<g>
</g>
<g>
</g>
</svg>
