<?xml version="1.0" encoding="iso-8859-1"?>
<!-- Generator: Adobe Illustrator 19.0.0, SVG Export Plug-In . SVG Version: 6.00 Build 0)  -->
<svg version="1.1" id="Layer_1" xmlns="http://www.w3.org/2000/svg" xmlns:xlink="http://www.w3.org/1999/xlink" x="0px" y="0px"
	 viewBox="0 0 504 504" style="enable-background:new 0 0 504 504;" xml:space="preserve">
<circle style="fill:#84DBFF;" cx="252" cy="252" r="252"/>
<g>
	<polygon style="fill:#F9B54C;" points="252,70.9 218.6,98.3 285.4,98.3 	"/>
	<polygon style="fill:#F9B54C;" points="103.6,199.7 103.6,378.9 212.7,289.3 	"/>
	<polygon style="fill:#F9B54C;" points="400.4,378.9 400.4,199.7 291.3,289.3 	"/>
	<polygon style="fill:#F9B54C;" points="252,321.6 221.2,296.3 112.1,385.9 391.9,385.9 282.8,296.3 	"/>
</g>
<g>
	<path style="fill:#FFD05B;" d="M400.4,192.7L400.4,192.7L400.4,192.7z"/>
	<polygon style="fill:#FFD05B;" points="400.4,192.7 400.4,192.7 396.2,189.2 391.9,192.7 	"/>
	<polygon style="fill:#FFD05B;" points="400.4,192.7 391.9,192.7 278.5,285.8 252,307.6 225.5,285.8 112.1,192.7 107.8,189.2 
		103.6,192.7 103.6,199.7 212.7,289.3 103.6,378.9 103.6,385.9 112.1,385.9 112.1,385.9 221.2,296.3 252,321.6 282.8,296.3 
		391.9,385.9 400.4,385.9 400.4,385.9 400.4,378.9 291.3,289.3 400.4,199.7 	"/>
</g>
<g>
	<polygon style="fill:#F9B54C;" points="107.8,189.2 112.1,192.7 149.9,223.8 149.9,154.6 	"/>
	<polygon style="fill:#F9B54C;" points="396.2,189.2 354.1,154.6 354.1,223.8 391.9,192.7 	"/>
</g>
<polygon style="fill:#FFFFFF;" points="149.9,98.3 149.9,223.8 252,307.6 354.1,223.8 354.1,98.3 "/>
<rect x="179.5" y="120.8" style="fill:#F1543F;" width="26.4" height="114.2"/>
<rect x="219.1" y="140.5" style="fill:#2C9984;" width="26.4" height="94.5"/>
<rect x="258.6" y="164.1" style="fill:#324A5E;" width="26.4" height="70.9"/>
<rect x="298.1" y="187.8" style="fill:#ACB3BA;" width="26.4" height="47.3"/>
<g>
</g>
<g>
</g>
<g>
</g>
<g>
</g>
<g>
</g>
<g>
</g>
<g>
</g>
<g>
</g>
<g>
</g>
<g>
</g>
<g>
</g>
<g>
</g>
<g>
</g>
<g>
</g>
<g>
</g>
</svg>
