<?xml version="1.0" encoding="iso-8859-1"?>
<!-- Generator: Adobe Illustrator 19.0.0, SVG Export Plug-In . SVG Version: 6.00 Build 0)  -->
<svg version="1.1" id="Layer_1" xmlns="http://www.w3.org/2000/svg" xmlns:xlink="http://www.w3.org/1999/xlink" x="0px" y="0px"
	 viewBox="0 0 504 504" style="enable-background:new 0 0 504 504;" xml:space="preserve">
<circle style="fill:#90DFAA;" cx="252" cy="252" r="252"/>
<path style="fill:#FFFFFF;" d="M357.6,316.3l33.4-33.4L374.1,266c5.3-8.7,9.1-18,11.5-27.6h23.9V191h-23.9
	c-2.4-9.6-6.2-18.9-11.5-27.6l16.9-16.9L357.6,113l-16.9,16.9c-8.7-5.3-18-9.1-27.6-11.5V94.5h-47.3v23.9
	c-9.6,2.4-18.9,6.2-27.6,11.5l-17-16.9l-33.4,33.4l16.9,16.9c-5.3,8.7-9.1,18-11.5,27.6h-23.9v47.3h23.9c2.4,9.6,6.2,18.9,11.5,27.6
	l-16.9,16.9l33.4,33.4l16.9-16.9c8.7,5.3,18,9.1,27.6,11.5v23.9H313v-23.9c9.6-2.4,18.9-6.2,27.6-11.5L357.6,316.3z M237.2,266.8
	c-28.8-28.8-28.8-75.5,0-104.3s75.5-28.8,104.3,0s28.8,75.5,0,104.3S266,295.6,237.2,266.8z"/>
<rect x="169.432" y="294.805" transform="matrix(-0.7071 -0.7071 0.7071 -0.7071 109.6127 667.4135)" style="fill:#F1543F;" width="47.2" height="32.4"/>
<path style="fill:#2B3B4E;" d="M162.7,303.7l-60.4,60.4c-10.4,10.4-10.4,27.2,0,37.6s27.2,10.4,37.6,0l60.4-60.4L162.7,303.7z"/>
<rect x="239.7" y="210.6" style="fill:#FF7058;" width="26.6" height="48.7"/>
<rect x="276.1" y="188.4" style="fill:#324A5E;" width="26.6" height="70.9"/>
<rect x="312.5" y="169.9" style="fill:#FFD05B;" width="26.6" height="89.4"/>
<g>
</g>
<g>
</g>
<g>
</g>
<g>
</g>
<g>
</g>
<g>
</g>
<g>
</g>
<g>
</g>
<g>
</g>
<g>
</g>
<g>
</g>
<g>
</g>
<g>
</g>
<g>
</g>
<g>
</g>
</svg>
