<?xml version="1.0" encoding="iso-8859-1"?>
<!-- Generator: Adobe Illustrator 19.0.0, SVG Export Plug-In . SVG Version: 6.00 Build 0)  -->
<svg version="1.1" id="Layer_1" xmlns="http://www.w3.org/2000/svg" xmlns:xlink="http://www.w3.org/1999/xlink" x="0px" y="0px"
	 viewBox="0 0 504 504" style="enable-background:new 0 0 504 504;" xml:space="preserve">
<circle style="fill:#FD8469;" cx="252" cy="252" r="252"/>
<rect x="94.5" y="94.5" style="fill:#ACB3BA;" width="315" height="315"/>
<g>
	<rect x="122.1" y="164.7" style="fill:#FFFFFF;" width="259.9" height="213.3"/>
	<rect x="122.1" y="119.8" style="fill:#FFFFFF;" width="27.4" height="23.5"/>
</g>
<rect x="167.2" y="119.8" style="fill:#F1543F;" width="27.4" height="23.5"/>
<rect x="212.4" y="119.8" style="fill:#2B3B4E;" width="27.4" height="23.5"/>
<rect x="278.8" y="119.8" style="fill:#324A5E;" width="103.2" height="23.5"/>
<circle style="fill:#E6E9EE;" cx="252" cy="271.3" r="84.6"/>
<g>
	<path style="fill:#324A5E;" d="M197.8,254.5l-1.1-0.1c-1.5,0-2.3,0.7-2.3,2v10.8c0,1.8-0.6,3.2-1.9,4c1.3,0.8,1.9,2.1,1.9,4v11.2
		c0,1.1,1.1,1.7,3.3,1.7v6.3H195c-5.1,0-7.7-2.5-7.7-7.4v-10.5c0-1.4-0.4-2.1-1.2-2.1h-2.4v-6.3h2.4c0.8,0,1.2-0.7,1.2-2.2v-10.3
		c0-4.9,2.6-7.4,7.7-7.4h2.8V254.5z"/>
	<path style="fill:#324A5E;" d="M221.3,280.1c3.9,0,7.2-1.6,9.7-4.7l5.1,5.3c-4.1,4.6-8.9,6.9-14.4,6.9s-10.1-1.7-13.7-5.2
		c-3.6-3.5-5.4-7.9-5.4-13.3c0-5.3,1.8-9.8,5.5-13.4s8.1-5.4,13.4-5.4c5.9,0,10.8,2.2,14.8,6.7l-5,5.7c-2.5-3.2-5.7-4.7-9.5-4.7
		c-3,0-5.6,1-7.7,3c-2.1,2-3.2,4.6-3.2,8c0,3.3,1,6,3,8.1S218.4,280.1,221.3,280.1z"/>
	<path style="fill:#324A5E;" d="M250.8,258.4c-0.8,0.6-1.2,1.5-1.2,2.5s0.5,1.9,1.4,2.5s3.1,1.3,6.5,2.2c3.4,0.8,6.1,2.1,8,3.8
		c1.9,1.7,2.8,4.1,2.8,7.4s-1.2,5.8-3.6,7.8s-5.6,3-9.5,3c-5.7,0-10.8-2.1-15.4-6.3l4.8-5.9c3.9,3.4,7.5,5.1,10.8,5.1
		c1.5,0,2.6-0.3,3.5-1c0.8-0.6,1.3-1.5,1.3-2.6s-0.4-1.9-1.3-2.6c-0.9-0.6-2.7-1.3-5.3-1.9c-4.2-1-7.2-2.3-9.2-3.9
		c-1.9-1.6-2.9-4.1-2.9-7.5s1.2-6,3.7-7.9s5.5-2.8,9.2-2.8c2.4,0,4.8,0.4,7.2,1.2c2.4,0.8,4.5,2,6.3,3.5l-4.1,5.9
		c-3.1-2.4-6.3-3.5-9.7-3.5C252.7,257.5,251.6,257.8,250.8,258.4z"/>
	<path style="fill:#324A5E;" d="M283.7,258.4c-0.8,0.6-1.2,1.5-1.2,2.5s0.5,1.9,1.4,2.5s3.1,1.3,6.5,2.2s6.1,2.1,8,3.8
		c1.9,1.7,2.8,4.1,2.8,7.4s-1.2,5.8-3.6,7.8s-5.6,3-9.5,3c-5.7,0-10.8-2.1-15.4-6.3l4.8-5.9c3.9,3.4,7.5,5.1,10.8,5.1
		c1.5,0,2.6-0.3,3.5-1c0.8-0.6,1.3-1.5,1.3-2.6s-0.4-1.9-1.3-2.6c-0.9-0.6-2.7-1.3-5.3-1.9c-4.2-1-7.2-2.3-9.2-3.9s-2.9-4.1-2.9-7.5
		s1.2-6,3.7-7.9s5.5-2.8,9.2-2.8c2.4,0,4.8,0.4,7.2,1.2c2.4,0.8,4.5,2,6.3,3.5l-4.1,5.9c-3.1-2.4-6.3-3.5-9.7-3.5
		C285.5,257.5,284.4,257.8,283.7,258.4z"/>
	<path style="fill:#324A5E;" d="M306.2,288.1l1.1,0.1c1.5,0,2.3-0.7,2.3-2v-10.8c0-1.8,0.6-3.2,1.9-4c-1.3-0.8-1.9-2.1-1.9-4v-11.2
		c0-1.1-1.1-1.7-3.3-1.7v-6.3h2.8c5.1,0,7.7,2.5,7.7,7.4v10.5c0,1.4,0.4,2.1,1.2,2.1h2.4v6.3H318c-0.8,0-1.2,0.7-1.2,2.2V287
		c0,4.9-2.6,7.4-7.7,7.4h-2.8v-6.3H306.2z"/>
</g>
<g>
</g>
<g>
</g>
<g>
</g>
<g>
</g>
<g>
</g>
<g>
</g>
<g>
</g>
<g>
</g>
<g>
</g>
<g>
</g>
<g>
</g>
<g>
</g>
<g>
</g>
<g>
</g>
<g>
</g>
</svg>
