<?xml version="1.0" encoding="iso-8859-1"?>
<!-- Generator: Adobe Illustrator 19.0.0, SVG Export Plug-In . SVG Version: 6.00 Build 0)  -->
<svg version="1.1" id="Layer_1" xmlns="http://www.w3.org/2000/svg" xmlns:xlink="http://www.w3.org/1999/xlink" x="0px" y="0px"
	 viewBox="0 0 504 504" style="enable-background:new 0 0 504 504;" xml:space="preserve">
<circle style="fill:#84DBFF;" cx="252" cy="252" r="252"/>
<polygon style="fill:#2B3B4E;" points="258.3,343.7 258.3,318.3 245.7,318.3 245.7,343.7 151.8,343.7 151.8,356.4 151.8,375.7 
	164.5,375.7 164.5,356.4 245.7,356.4 245.7,375.7 258.3,375.7 258.3,356.4 339.5,356.4 339.5,375.7 352.2,375.7 352.2,356.4 
	352.2,343.7 "/>
<g>
	<rect x="136.6" y="371.8" style="fill:#324A5E;" width="43" height="39.2"/>
	<rect x="324.4" y="371.8" style="fill:#324A5E;" width="43" height="39.2"/>
</g>
<rect x="230.5" y="371.8" style="fill:#FFD05B;" width="43" height="39.2"/>
<rect x="94.5" y="93" style="fill:#FF7058;" width="315" height="228.4"/>
<g>
	<rect x="122.1" y="154.5" style="fill:#FFFFFF;" width="259.9" height="139.3"/>
	<rect x="122.1" y="112.5" style="fill:#FFFFFF;" width="32.5" height="19.2"/>
</g>
<rect x="175.7" y="112.5" style="fill:#F9B54C;" width="32.5" height="19.2"/>
<rect x="229.4" y="112.5" style="fill:#54C0EB;" width="32.5" height="19.2"/>
<rect x="152.2" y="177.8" style="fill:#2C9984;" width="105.3" height="18.2"/>
<rect x="152.2" y="215" style="fill:#54C0EB;" width="152.2" height="18.2"/>
<rect x="152.2" y="252.2" style="fill:#F9B54C;" width="199.6" height="18.2"/>
<g>
</g>
<g>
</g>
<g>
</g>
<g>
</g>
<g>
</g>
<g>
</g>
<g>
</g>
<g>
</g>
<g>
</g>
<g>
</g>
<g>
</g>
<g>
</g>
<g>
</g>
<g>
</g>
<g>
</g>
</svg>
