<?xml version="1.0" encoding="iso-8859-1"?>
<!-- Generator: Adobe Illustrator 19.0.0, SVG Export Plug-In . SVG Version: 6.00 Build 0)  -->
<svg version="1.1" id="Layer_1" xmlns="http://www.w3.org/2000/svg" xmlns:xlink="http://www.w3.org/1999/xlink" x="0px" y="0px"
	 viewBox="0 0 504 504" style="enable-background:new 0 0 504 504;" xml:space="preserve">
<circle style="fill:#FD8469;" cx="252" cy="252" r="252"/>
<rect x="94.5" y="104.3" style="fill:#324A5E;" width="315" height="295.3"/>
<g>
	<rect x="122.1" y="170.6" style="fill:#FFFFFF;" width="259.9" height="201.5"/>
	<rect x="122.1" y="127.9" style="fill:#FFFFFF;" width="32.5" height="19.2"/>
</g>
<rect x="175.7" y="127.9" style="fill:#F9B54C;" width="32.5" height="19.2"/>
<rect x="229.4" y="127.9" style="fill:#54C0EB;" width="32.5" height="19.2"/>
<path style="fill:#F1543F;" d="M268.6,304.9v-26.5h-13.2c-1.2-4.5-3-8.8-5.3-12.8l9.3-9.3l-18.8-18.8l-9.3,9.3
	c-4-2.3-8.2-4.1-12.8-5.3v-13.2H192v13.2c-4.5,1.2-8.8,3-12.8,5.3l-9.3-9.3l-18.8,18.8l9.3,9.3c-2.3,4-4.1,8.2-5.3,12.8h-13.2v26.5
	h13.2c1.2,4.5,3,8.8,5.3,12.8l-9.3,9.3l18.8,18.8l9.3-9.3c4,2.3,8.2,4.1,12.8,5.3V355h26.5v-13.2c4.5-1.2,8.8-3,12.8-5.3l9.3,9.3
	l18.8-18.8l-9.3-9.3c2.3-4,4.1-8.2,5.3-12.8L268.6,304.9L268.6,304.9z M205.3,326.3c-19.1,0-34.6-15.5-34.6-34.6
	s15.5-34.6,34.6-34.6s34.6,15.5,34.6,34.6C239.8,310.8,224.4,326.3,205.3,326.3z"/>
<path style="fill:#FFD05B;" d="M356.3,244.9v-17.8h-8.9c-0.8-3-2-5.9-3.6-8.6l6.3-6.3l-12.6-12.6l-6.3,6.3c-2.7-1.5-5.5-2.7-8.6-3.6
	v-8.9h-17.8v8.9c-3,0.8-5.9,2-8.6,3.6l-6.3-6.3l-12.6,12.6l6.3,6.3c-1.5,2.7-2.7,5.5-3.6,8.6h-8.9v17.8h8.9c0.8,3,2,5.9,3.6,8.6
	l-6.3,6.3l12.6,12.6l6.3-6.3c2.7,1.5,5.5,2.7,8.6,3.6v8.9h17.8v-8.9c3-0.8,5.9-2,8.6-3.6l6.3,6.3l12.6-12.6l-6.3-6.3
	c1.5-2.7,2.7-5.5,3.6-8.6H356.3z M313.7,259.3c-12.8,0-23.3-10.4-23.3-23.3s10.4-23.3,23.3-23.3S337,223.2,337,236
	S326.5,259.3,313.7,259.3z"/>
<g>
</g>
<g>
</g>
<g>
</g>
<g>
</g>
<g>
</g>
<g>
</g>
<g>
</g>
<g>
</g>
<g>
</g>
<g>
</g>
<g>
</g>
<g>
</g>
<g>
</g>
<g>
</g>
<g>
</g>
</svg>
