<?xml version="1.0" encoding="iso-8859-1"?>
<!-- Generator: Adobe Illustrator 19.0.0, SVG Export Plug-In . SVG Version: 6.00 Build 0)  -->
<svg version="1.1" id="Layer_1" xmlns="http://www.w3.org/2000/svg" xmlns:xlink="http://www.w3.org/1999/xlink" x="0px" y="0px"
	 viewBox="0 0 504 504" style="enable-background:new 0 0 504 504;" xml:space="preserve">
<circle style="fill:#90DFAA;" cx="252" cy="252" r="252"/>
<rect x="94.5" y="80.7" style="fill:#ACB3BA;" width="315" height="315"/>
<rect x="122.1" y="154.6" style="fill:#FFFFFF;" width="259.9" height="213.5"/>
<rect x="122.1" y="104.8" style="fill:#FF7058;" width="27.4" height="23.5"/>
<rect x="167.2" y="104.8" style="fill:#FFD05B;" width="27.4" height="23.5"/>
<rect x="212.4" y="104.8" style="fill:#2B3B4E;" width="27.4" height="23.5"/>
<rect x="278.8" y="104.8" style="fill:#FFFFFF;" width="103.2" height="23.5"/>
<path style="fill:#ACB3BA;" d="M151.6,215.2c-5.3,0-9.3-1.8-11.9-5.4c-2.6-3.6-4-8.4-4-14.5c0-6,1.3-10.9,4-14.5
	c2.6-3.6,6.6-5.4,11.9-5.4c5.3,0,9.3,1.8,11.9,5.4c2.6,3.6,4,8.4,4,14.5c0,6-1.3,10.9-4,14.5C160.9,213.4,156.9,215.2,151.6,215.2z
	 M145.9,186.1c-1.2,2.3-1.8,5.5-1.8,9.3c0,3.9,0.6,7,1.8,9.3s3.1,3.5,5.7,3.5c2.6,0,4.5-1.2,5.7-3.5s1.8-5.5,1.8-9.3
	c0-3.9-0.6-7-1.8-9.3s-3.1-3.5-5.7-3.5C149,182.5,147.1,183.7,145.9,186.1z"/>
<path style="fill:#324A5E;" d="M172.3,176.3h15.6v38.5h-8.3v-31.2h-7.3V176.3z"/>
<path style="fill:#4CDBC4;" d="M211.7,215.2c-5.3,0-9.3-1.8-11.9-5.4c-2.6-3.6-4-8.4-4-14.5c0-6,1.3-10.9,4-14.5
	c2.6-3.6,6.6-5.4,11.9-5.4s9.3,1.8,11.9,5.4c2.6,3.6,4,8.4,4,14.5c0,6-1.3,10.9-4,14.5C221,213.4,217.1,215.2,211.7,215.2z
	 M206.1,186.1c-1.2,2.3-1.8,5.5-1.8,9.3c0,3.9,0.6,7,1.8,9.3s3.1,3.5,5.7,3.5c2.6,0,4.5-1.2,5.7-3.5s1.8-5.5,1.8-9.3
	c0-3.9-0.6-7-1.8-9.3s-3.1-3.5-5.7-3.5C209.2,182.5,207.3,183.7,206.1,186.1z"/>
<path style="fill:#324A5E;" d="M232.4,176.3H248v38.5h-8.3v-31.2h-7.3V176.3z"/>
<path style="fill:#2C9984;" d="M271.9,215.2c-5.3,0-9.3-1.8-11.9-5.4s-4-8.4-4-14.5c0-6,1.3-10.9,4-14.5s6.6-5.4,11.9-5.4
	s9.3,1.8,11.9,5.4c2.6,3.6,4,8.4,4,14.5c0,6-1.3,10.9-4,14.5C281.2,213.4,277.2,215.2,271.9,215.2z M266.2,186.1
	c-1.2,2.3-1.8,5.5-1.8,9.3c0,3.9,0.6,7,1.8,9.3c1.2,2.3,3.1,3.5,5.7,3.5s4.5-1.2,5.7-3.5s1.8-5.5,1.8-9.3c0-3.9-0.6-7-1.8-9.3
	c-1.2-2.3-3.1-3.5-5.7-3.5C269.3,182.5,267.4,183.7,266.2,186.1z"/>
<path style="fill:#324A5E;" d="M292.6,176.3h15.6v38.5h-8.3v-31.2h-7.3L292.6,176.3L292.6,176.3z"/>
<path style="fill:#F1543F;" d="M332.1,215.2c-5.3,0-9.3-1.8-11.9-5.4s-4-8.4-4-14.5c0-6,1.3-10.9,4-14.5s6.6-5.4,11.9-5.4
	s9.3,1.8,11.9,5.4s4,8.4,4,14.5c0,6-1.3,10.9-4,14.5S337.4,215.2,332.1,215.2z M326.4,186.1c-1.2,2.3-1.8,5.5-1.8,9.3
	c0,3.9,0.6,7,1.8,9.3c1.2,2.3,3.1,3.5,5.7,3.5s4.5-1.2,5.7-3.5s1.8-5.5,1.8-9.3c0-3.9-0.6-7-1.8-9.3c-1.2-2.3-3.1-3.5-5.7-3.5
	C329.5,182.5,327.6,183.7,326.4,186.1z"/>
<g>
	<path style="fill:#324A5E;" d="M352.8,176.3h15.6v38.5h-8.3v-31.2h-7.3L352.8,176.3L352.8,176.3z"/>
	<path style="fill:#324A5E;" d="M151.6,281.3c-5.3,0-9.3-1.8-11.9-5.4c-2.6-3.6-4-8.4-4-14.5c0-6,1.3-10.9,4-14.5
		c2.6-3.6,6.6-5.4,11.9-5.4c5.3,0,9.3,1.8,11.9,5.4c2.6,3.6,4,8.4,4,14.5c0,6-1.3,10.9-4,14.5C160.9,279.5,156.9,281.3,151.6,281.3z
		 M145.9,252.1c-1.2,2.3-1.8,5.5-1.8,9.3c0,3.9,0.6,7,1.8,9.3s3.1,3.5,5.7,3.5c2.6,0,4.5-1.2,5.7-3.5s1.8-5.5,1.8-9.3
		c0-3.9-0.6-7-1.8-9.3c-1.2-2.3-3.1-3.5-5.7-3.5S147.1,249.8,145.9,252.1z"/>
	<path style="fill:#324A5E;" d="M172.3,242.4h15.6v38.5h-8.3v-31.2h-7.3V242.4z"/>
</g>
<path style="fill:#F1543F;" d="M211.7,281.3c-5.3,0-9.3-1.8-11.9-5.4c-2.6-3.6-4-8.4-4-14.5c0-6,1.3-10.9,4-14.5
	c2.6-3.6,6.6-5.4,11.9-5.4s9.3,1.8,11.9,5.4c2.6,3.6,4,8.4,4,14.5c0,6-1.3,10.9-4,14.5C221,279.5,217.1,281.3,211.7,281.3z
	 M206.1,252.1c-1.2,2.3-1.8,5.5-1.8,9.3c0,3.9,0.6,7,1.8,9.3s3.1,3.5,5.7,3.5c2.6,0,4.5-1.2,5.7-3.5s1.8-5.5,1.8-9.3
	c0-3.9-0.6-7-1.8-9.3c-1.2-2.3-3.1-3.5-5.7-3.5C209.2,248.6,207.3,249.8,206.1,252.1z"/>
<path style="fill:#54C0EB;" d="M232.4,242.4H248v38.5h-8.3v-31.2h-7.3V242.4z"/>
<path style="fill:#324A5E;" d="M271.9,281.3c-5.3,0-9.3-1.8-11.9-5.4s-4-8.4-4-14.5c0-6,1.3-10.9,4-14.5s6.6-5.4,11.9-5.4
	s9.3,1.8,11.9,5.4c2.6,3.6,4,8.4,4,14.5c0,6-1.3,10.9-4,14.5C281.2,279.5,277.2,281.3,271.9,281.3z M266.2,252.1
	c-1.2,2.3-1.8,5.5-1.8,9.3c0,3.9,0.6,7,1.8,9.3c1.2,2.3,3.1,3.5,5.7,3.5s4.5-1.2,5.7-3.5s1.8-5.5,1.8-9.3c0-3.9-0.6-7-1.8-9.3
	c-1.2-2.3-3.1-3.5-5.7-3.5C269.3,248.6,267.4,249.8,266.2,252.1z"/>
<path style="fill:#4CDBC4;" d="M292.6,242.4h15.6v38.5h-8.3v-31.2h-7.3L292.6,242.4L292.6,242.4z"/>
<path style="fill:#324A5E;" d="M332.1,281.3c-5.3,0-9.3-1.8-11.9-5.4s-4-8.4-4-14.5c0-6,1.3-10.9,4-14.5s6.6-5.4,11.9-5.4
	s9.3,1.8,11.9,5.4s4,8.4,4,14.5c0,6-1.3,10.9-4,14.5S337.4,281.3,332.1,281.3z M326.4,252.1c-1.2,2.3-1.8,5.5-1.8,9.3
	c0,3.9,0.6,7,1.8,9.3c1.2,2.3,3.1,3.5,5.7,3.5s4.5-1.2,5.7-3.5s1.8-5.5,1.8-9.3c0-3.9-0.6-7-1.8-9.3c-1.2-2.3-3.1-3.5-5.7-3.5
	S327.6,249.8,326.4,252.1z"/>
<path style="fill:#F9B54C;" d="M352.8,242.4h15.6v38.5h-8.3v-31.2h-7.3L352.8,242.4L352.8,242.4z"/>
<path style="fill:#2C9984;" d="M151.6,347.4c-5.3,0-9.3-1.8-11.9-5.4c-2.6-3.6-4-8.4-4-14.5c0-6,1.3-10.9,4-14.5
	c2.6-3.6,6.6-5.4,11.9-5.4c5.3,0,9.3,1.8,11.9,5.4c2.6,3.6,4,8.4,4,14.5c0,6-1.3,10.9-4,14.5C160.9,345.5,156.9,347.4,151.6,347.4z
	 M145.9,318.2c-1.2,2.3-1.8,5.5-1.8,9.3c0,3.9,0.6,7,1.8,9.3s3.1,3.5,5.7,3.5c2.6,0,4.5-1.2,5.7-3.5s1.8-5.5,1.8-9.3
	c0-3.9-0.6-7-1.8-9.3s-3.1-3.5-5.7-3.5S147.1,315.8,145.9,318.2z"/>
<path style="fill:#324A5E;" d="M172.3,308.4h15.6v38.5h-8.3v-31.2h-7.3V308.4z"/>
<path style="fill:#ACB3BA;" d="M211.7,347.4c-5.3,0-9.3-1.8-11.9-5.4c-2.6-3.6-4-8.4-4-14.5c0-6,1.3-10.9,4-14.5
	c2.6-3.6,6.6-5.4,11.9-5.4s9.3,1.8,11.9,5.4c2.6,3.6,4,8.4,4,14.5c0,6-1.3,10.9-4,14.5C221,345.5,217.1,347.4,211.7,347.4z
	 M206.1,318.2c-1.2,2.3-1.8,5.5-1.8,9.3c0,3.9,0.6,7,1.8,9.3s3.1,3.5,5.7,3.5c2.6,0,4.5-1.2,5.7-3.5s1.8-5.5,1.8-9.3
	c0-3.9-0.6-7-1.8-9.3s-3.1-3.5-5.7-3.5C209.2,314.7,207.3,315.8,206.1,318.2z"/>
<path style="fill:#F9B54C;" d="M232.4,308.4H248v38.5h-8.3v-31.2h-7.3V308.4z"/>
<g>
	<path style="fill:#324A5E;" d="M271.9,347.4c-5.3,0-9.3-1.8-11.9-5.4s-4-8.4-4-14.5c0-6,1.3-10.9,4-14.5s6.6-5.4,11.9-5.4
		s9.3,1.8,11.9,5.4s4,8.4,4,14.5c0,6-1.3,10.9-4,14.5C281.2,345.5,277.2,347.4,271.9,347.4z M266.2,318.2c-1.2,2.3-1.8,5.5-1.8,9.3
		c0,3.9,0.6,7,1.8,9.3c1.2,2.3,3.1,3.5,5.7,3.5s4.5-1.2,5.7-3.5s1.8-5.5,1.8-9.3c0-3.9-0.6-7-1.8-9.3c-1.2-2.3-3.1-3.5-5.7-3.5
		C269.3,314.7,267.4,315.8,266.2,318.2z"/>
	<path style="fill:#324A5E;" d="M292.6,308.4h15.6v38.5h-8.3v-31.2h-7.3L292.6,308.4L292.6,308.4z"/>
</g>
<path style="fill:#54C0EB;" d="M332.1,347.4c-5.3,0-9.3-1.8-11.9-5.4s-4-8.4-4-14.5c0-6,1.3-10.9,4-14.5s6.6-5.4,11.9-5.4
	s9.3,1.8,11.9,5.4s4,8.4,4,14.5c0,6-1.3,10.9-4,14.5S337.4,347.4,332.1,347.4z M326.4,318.2c-1.2,2.3-1.8,5.5-1.8,9.3
	c0,3.9,0.6,7,1.8,9.3c1.2,2.3,3.1,3.5,5.7,3.5s4.5-1.2,5.7-3.5s1.8-5.5,1.8-9.3c0-3.9-0.6-7-1.8-9.3c-1.2-2.3-3.1-3.5-5.7-3.5
	S327.6,315.8,326.4,318.2z"/>
<path style="fill:#324A5E;" d="M352.8,308.4h15.6v38.5h-8.3v-31.2h-7.3L352.8,308.4L352.8,308.4z"/>
<g>
</g>
<g>
</g>
<g>
</g>
<g>
</g>
<g>
</g>
<g>
</g>
<g>
</g>
<g>
</g>
<g>
</g>
<g>
</g>
<g>
</g>
<g>
</g>
<g>
</g>
<g>
</g>
<g>
</g>
</svg>
