<?xml version="1.0" encoding="iso-8859-1"?>
<!-- Generator: Adobe Illustrator 19.0.0, SVG Export Plug-In . SVG Version: 6.00 Build 0)  -->
<svg version="1.1" id="Layer_1" xmlns="http://www.w3.org/2000/svg" xmlns:xlink="http://www.w3.org/1999/xlink" x="0px" y="0px"
	 viewBox="0 0 504 504" style="enable-background:new 0 0 504 504;" xml:space="preserve">
<circle style="fill:#FFD05B;" cx="252" cy="252" r="252"/>
<rect x="94.5" y="94.5" style="fill:#324A5E;" width="315" height="315"/>
<g>
	<rect x="122.1" y="160.7" style="fill:#FFFFFF;" width="259.9" height="221.2"/>
	<rect x="122.1" y="118" style="fill:#FFFFFF;" width="32.5" height="19.2"/>
</g>
<rect x="175.7" y="118" style="fill:#4CDBC4;" width="32.5" height="19.2"/>
<rect x="229.4" y="118" style="fill:#54C0EB;" width="32.5" height="19.2"/>
<polygon style="fill:#2B3B4E;" points="256.9,271.1 256.9,229.9 247.1,229.9 247.1,271.1 171.6,271.1 171.6,295.8 181.5,295.8 
	181.5,280.9 322.5,280.9 322.5,296.8 332.4,296.8 332.4,271.1 "/>
<rect x="217.1" y="177" style="fill:#858789;" width="69.9" height="69.9"/>
<rect x="141.6" y="295.8" style="fill:#F1543F;" width="69.9" height="69.9"/>
<rect x="292.5" y="295.8" style="fill:#2C9984;" width="69.9" height="69.9"/>
<g>
</g>
<g>
</g>
<g>
</g>
<g>
</g>
<g>
</g>
<g>
</g>
<g>
</g>
<g>
</g>
<g>
</g>
<g>
</g>
<g>
</g>
<g>
</g>
<g>
</g>
<g>
</g>
<g>
</g>
</svg>
