<?xml version="1.0" encoding="iso-8859-1"?>
<!-- Generator: Adobe Illustrator 19.0.0, SVG Export Plug-In . SVG Version: 6.00 Build 0)  -->
<svg version="1.1" id="Layer_1" xmlns="http://www.w3.org/2000/svg" xmlns:xlink="http://www.w3.org/1999/xlink" x="0px" y="0px"
	 viewBox="0 0 504 504" style="enable-background:new 0 0 504 504;" xml:space="preserve">
<circle style="fill:#FD8469;" cx="252" cy="252" r="252"/>
<rect x="123.8" y="94.5" style="fill:#FFFFFF;" width="256.4" height="315"/>
<rect x="123.8" y="94.5" style="fill:#CED5E0;" width="256.4" height="26.2"/>
<rect x="123.8" y="165.5" style="fill:#84DBFF;" width="256.4" height="63.9"/>
<rect x="123.8" y="383.3" style="fill:#CED5E0;" width="256.4" height="26.2"/>
<g>
	<rect x="123.8" y="132" style="fill:#324A5E;" width="38.5" height="22.1"/>
	<rect x="178.3" y="132" style="fill:#324A5E;" width="38.5" height="22.1"/>
	<rect x="232.8" y="132" style="fill:#324A5E;" width="38.5" height="22.1"/>
	<rect x="287.2" y="132" style="fill:#324A5E;" width="38.5" height="22.1"/>
	<rect x="341.7" y="132" style="fill:#324A5E;" width="38.5" height="22.1"/>
</g>
<rect x="136.7" y="260.9" style="fill:#54C0EB;" width="63" height="58.4"/>
<rect x="220.5" y="260.9" style="fill:#324A5E;" width="63" height="58.4"/>
<rect x="304.3" y="260.9" style="fill:#F9B54C;" width="63" height="58.4"/>
<g>
	<circle style="fill:#83898E;" cx="227.6" cy="244.7" r="6.1"/>
	<circle style="fill:#83898E;" cx="243.9" cy="244.7" r="6.1"/>
</g>
<circle style="fill:#324A5E;" cx="260.1" cy="244.7" r="6.1"/>
<circle style="fill:#83898E;" cx="276.4" cy="244.7" r="6.1"/>
<rect x="136.7" y="330.6" style="fill:#324A5E;" width="63" height="5.1"/>
<g>
	<rect x="136.7" y="349" style="fill:#CED5E0;" width="63" height="5.1"/>
	<rect x="136.7" y="367.4" style="fill:#CED5E0;" width="34.4" height="5.1"/>
</g>
<rect x="220.5" y="330.6" style="fill:#2C9984;" width="63" height="5.1"/>
<g>
	<rect x="220.5" y="349" style="fill:#CED5E0;" width="63" height="5.1"/>
	<rect x="220.5" y="367.4" style="fill:#CED5E0;" width="34.4" height="5.1"/>
</g>
<rect x="304.3" y="330.6" style="fill:#FF7058;" width="63" height="5.1"/>
<g>
	<rect x="304.3" y="349" style="fill:#CED5E0;" width="63" height="5.1"/>
	<rect x="304.3" y="367.4" style="fill:#CED5E0;" width="34.4" height="5.1"/>
</g>
<g>
</g>
<g>
</g>
<g>
</g>
<g>
</g>
<g>
</g>
<g>
</g>
<g>
</g>
<g>
</g>
<g>
</g>
<g>
</g>
<g>
</g>
<g>
</g>
<g>
</g>
<g>
</g>
<g>
</g>
</svg>
