<?xml version="1.0" encoding="iso-8859-1"?>
<!-- Generator: Adobe Illustrator 19.0.0, SVG Export Plug-In . SVG Version: 6.00 Build 0)  -->
<svg version="1.1" id="Layer_1" xmlns="http://www.w3.org/2000/svg" xmlns:xlink="http://www.w3.org/1999/xlink" x="0px" y="0px"
	 viewBox="0 0 504 504" style="enable-background:new 0 0 504 504;" xml:space="preserve">
<circle style="fill:#FD8469;" cx="252" cy="252" r="252"/>
<path style="fill:#324A5E;" d="M369.8,409.5H134.2c-2,0-3.7-1.7-3.7-3.7V98.2c0-2,1.7-3.7,3.7-3.7h235.6c2,0,3.7,1.7,3.7,3.7v307.6
	C373.5,407.8,371.9,409.5,369.8,409.5z"/>
<rect x="152.1" y="113.9" style="fill:#E6E9EE;" width="199.7" height="71.9"/>
<path style="fill:#84DBFF;" d="M181.4,203.1h-19.3c-5.5,0-10,5.3-10,11.8s4.5,11.8,10,11.8h19.3c5.5,0,10-5.3,10-11.8
	C191.3,208.4,186.9,203.1,181.4,203.1z"/>
<path style="fill:#F9B54C;" d="M234.9,203.1h-19.3c-5.5,0-10,5.3-10,11.8s4.5,11.8,10,11.8h19.3c5.5,0,10-5.3,10-11.8
	C244.9,208.4,240.4,203.1,234.9,203.1z"/>
<path style="fill:#2C9984;" d="M288.4,203.1h-19.3c-5.5,0-10,5.3-10,11.8s4.5,11.8,10,11.8h19.3c5.5,0,10-5.3,10-11.8
	C298.4,208.4,293.9,203.1,288.4,203.1z"/>
<path style="fill:#F1543F;" d="M341.9,203.1h-19.3c-5.5,0-10,5.3-10,11.8s4.5,11.8,10,11.8h19.3c5.5,0,10-5.3,10-11.8
	C351.9,208.4,347.4,203.1,341.9,203.1z"/>
<rect x="152.1" y="243.6" style="fill:#2C9984;" width="39.2" height="39.2"/>
<g>
	<rect x="205.6" y="243.6" style="fill:#ACB3BA;" width="39.2" height="39.2"/>
	<rect x="259.1" y="243.6" style="fill:#ACB3BA;" width="39.2" height="39.2"/>
	<rect x="312.7" y="243.6" style="fill:#ACB3BA;" width="39.2" height="39.2"/>
	<rect x="152.1" y="297.3" style="fill:#ACB3BA;" width="39.2" height="39.2"/>
	<rect x="205.6" y="297.3" style="fill:#ACB3BA;" width="39.2" height="39.2"/>
	<rect x="259.1" y="297.3" style="fill:#ACB3BA;" width="39.2" height="39.2"/>
	<rect x="312.7" y="297.3" style="fill:#ACB3BA;" width="39.2" height="39.2"/>
	<rect x="152.1" y="350.9" style="fill:#ACB3BA;" width="39.2" height="39.2"/>
	<rect x="205.6" y="350.9" style="fill:#ACB3BA;" width="39.2" height="39.2"/>
</g>
<rect x="259.1" y="350.9" style="fill:#2B3B4E;" width="92.7" height="39.2"/>
<g>
</g>
<g>
</g>
<g>
</g>
<g>
</g>
<g>
</g>
<g>
</g>
<g>
</g>
<g>
</g>
<g>
</g>
<g>
</g>
<g>
</g>
<g>
</g>
<g>
</g>
<g>
</g>
<g>
</g>
</svg>
