<?xml version="1.0" encoding="iso-8859-1"?>
<!-- Generator: Adobe Illustrator 19.0.0, SVG Export Plug-In . SVG Version: 6.00 Build 0)  -->
<svg version="1.1" id="Layer_1" xmlns="http://www.w3.org/2000/svg" xmlns:xlink="http://www.w3.org/1999/xlink" x="0px" y="0px"
	 viewBox="0 0 504 504" style="enable-background:new 0 0 504 504;" xml:space="preserve">
<circle style="fill:#324A5E;" cx="252" cy="252" r="252"/>
<polygon style="fill:#FFFFFF;" points="354.4,94.5 236.6,94.5 236.6,305.7 409.5,305.7 409.5,149.6 "/>
<polygon style="fill:#ACB3BA;" points="354.4,149.6 409.5,149.6 354.4,94.5 "/>
<rect x="259.5" y="119.2" style="fill:#324A5E;" width="71.9" height="7.9"/>
<rect x="259.5" y="141.7" style="fill:#ACB3BA;" width="71.9" height="7.9"/>
<rect x="259" y="175" style="fill:#FF7058;" width="128" height="25.9"/>
<rect x="259" y="216.9" style="fill:#F9B54C;" width="37.6" height="25.9"/>
<rect x="304.2" y="216.9" style="fill:#2C9984;" width="37.6" height="25.9"/>
<rect x="349.4" y="216.9" style="fill:#ACB3BA;" width="37" height="25.9"/>
<rect x="259" y="258.8" style="fill:#54C0EB;" width="64" height="25.9"/>
<rect x="331.3" y="261.5" style="fill:#ACB3BA;" width="55.1" height="6.1"/>
<rect x="331.3" y="276" style="fill:#4CDBC4;" width="55.1" height="6.1"/>
<path style="fill:#FFFFFF;" d="M307.9,409.5H96.1c-0.9,0-1.6-0.7-1.6-1.6V320c0-0.9,0.7-1.6,1.6-1.6h211.8c0.9,0,1.6,0.7,1.6,1.6
	v87.9C309.4,408.8,308.7,409.5,307.9,409.5z"/>
<g>
	<rect x="105.6" y="326.3" style="fill:#ACB3BA;" width="18.1" height="9.8"/>
	<rect x="134.7" y="326.3" style="fill:#ACB3BA;" width="18.1" height="9.8"/>
	<rect x="163.8" y="326.3" style="fill:#ACB3BA;" width="18.1" height="9.8"/>
	<rect x="192.9" y="326.3" style="fill:#ACB3BA;" width="18.1" height="9.8"/>
	<rect x="222" y="326.3" style="fill:#ACB3BA;" width="18.1" height="9.8"/>
	<rect x="251.1" y="326.3" style="fill:#ACB3BA;" width="18.1" height="9.8"/>
	<rect x="280.2" y="326.3" style="fill:#ACB3BA;" width="18.1" height="9.8"/>
</g>
<g>
	<rect x="105.6" y="342.8" style="fill:#CED5E0;" width="17.3" height="14.4"/>
	<rect x="130.7" y="342.8" style="fill:#CED5E0;" width="17.3" height="14.4"/>
	<rect x="155.7" y="342.8" style="fill:#CED5E0;" width="17.3" height="14.4"/>
	<rect x="180.8" y="342.8" style="fill:#CED5E0;" width="17.3" height="14.4"/>
	<rect x="205.9" y="342.8" style="fill:#CED5E0;" width="17.3" height="14.4"/>
	<rect x="230.9" y="342.8" style="fill:#CED5E0;" width="17.3" height="14.4"/>
	<rect x="256" y="342.8" style="fill:#CED5E0;" width="17.3" height="14.4"/>
	<rect x="281.1" y="342.8" style="fill:#CED5E0;" width="17.3" height="14.4"/>
	<rect x="105.6" y="365.1" style="fill:#CED5E0;" width="17.3" height="14.4"/>
	<rect x="130.7" y="365.1" style="fill:#CED5E0;" width="17.3" height="14.4"/>
	<rect x="155.7" y="365.1" style="fill:#CED5E0;" width="17.3" height="14.4"/>
	<rect x="180.8" y="365.1" style="fill:#CED5E0;" width="17.3" height="14.4"/>
	<rect x="205.9" y="365.1" style="fill:#CED5E0;" width="17.3" height="14.4"/>
	<rect x="230.9" y="365.1" style="fill:#CED5E0;" width="17.3" height="14.4"/>
	<rect x="256" y="365.1" style="fill:#CED5E0;" width="17.3" height="14.4"/>
	<rect x="281.1" y="365.1" style="fill:#CED5E0;" width="17.3" height="14.4"/>
</g>
<rect x="105.6" y="387.4" style="fill:#2C9984;" width="17.3" height="14.4"/>
<rect x="130.7" y="387.4" style="fill:#CED5E0;" width="17.3" height="14.4"/>
<rect x="155.7" y="387.4" style="fill:#FF7058;" width="92.5" height="14.4"/>
<rect x="256" y="387.4" style="fill:#CED5E0;" width="17.3" height="14.4"/>
<rect x="281.1" y="387.4" style="fill:#324A5E;" width="17.3" height="14.4"/>
<path style="fill:#FFFFFF;" d="M207.9,318.5h-11.8v-12c0-5.7-4.6-10.3-10.3-10.3h-43.7c-13.9,0-25.1-11.3-25.1-25.1
	c0-13.9,11.3-25.1,25.1-25.1h56.2c5.7,0,10.3-4.6,10.3-10.3s-4.6-10.3-10.3-10.3h-53.4c-14.9,0-27.1-12.1-27.1-27.1
	s12.1-27.1,27.1-27.1h91.7V183h-91.7c-8.4,0-15.3,6.8-15.3,15.3s6.8,15.3,15.3,15.3h53.4c12.2,0,22.1,9.9,22.1,22.1
	s-9.9,22.1-22.1,22.1h-56.2c-7.3,0-13.3,6-13.3,13.3s6,13.3,13.3,13.3h43.7c12.2,0,22.1,9.9,22.1,22.1V318.5z"/>
<g>
</g>
<g>
</g>
<g>
</g>
<g>
</g>
<g>
</g>
<g>
</g>
<g>
</g>
<g>
</g>
<g>
</g>
<g>
</g>
<g>
</g>
<g>
</g>
<g>
</g>
<g>
</g>
<g>
</g>
</svg>
