<?xml version="1.0" encoding="iso-8859-1"?>
<!-- Generator: Adobe Illustrator 19.0.0, SVG Export Plug-In . SVG Version: 6.00 Build 0)  -->
<svg version="1.1" id="Layer_1" xmlns="http://www.w3.org/2000/svg" xmlns:xlink="http://www.w3.org/1999/xlink" x="0px" y="0px"
	 viewBox="0 0 504 504" style="enable-background:new 0 0 504 504;" xml:space="preserve">
<circle style="fill:#FFD05B;" cx="252" cy="252" r="252"/>
<polygon style="fill:#FFFFFF;" points="254.8,96.8 94.5,96.8 94.5,411.8 329.8,411.8 329.8,171.1 "/>
<polygon style="fill:#8A8C8E;" points="254.8,171.1 329.8,171.1 254.8,96.8 "/>
<rect x="125.7" y="125.8" style="fill:#324A5E;" width="97.9" height="11.8"/>
<rect x="125.7" y="159.3" style="fill:#ACB3BA;" width="97.9" height="11.8"/>
<rect x="117.6" y="270.5" style="fill:#F9B54C;" width="55.6" height="45.9"/>
<rect x="184.4" y="270.5" style="fill:#2C9984;" width="55.6" height="45.9"/>
<rect x="251.2" y="270.5" style="fill:#CED5E0;" width="54.6" height="45.9"/>
<rect x="117.6" y="196.3" style="fill:#FFD05B;" width="55.6" height="45.9"/>
<rect x="184.4" y="196.3" style="fill:#4CDBC4;" width="55.6" height="45.9"/>
<rect x="251.2" y="196.3" style="fill:#ACB3BA;" width="54.6" height="45.9"/>
<rect x="117.6" y="344.6" style="fill:#54C0EB;" width="94.6" height="45.9"/>
<rect x="224.4" y="349.3" style="fill:#ACB3BA;" width="81.5" height="10.9"/>
<rect x="224.4" y="375" style="fill:#4CDBC4;" width="81.5" height="10.9"/>
<rect x="341.1" y="125.8" style="fill:#FF7058;" width="68.4" height="286"/>
<g>
	<rect x="341.1" y="140.5" style="fill:#F1543F;" width="30.5" height="13.7"/>
	<rect x="341.1" y="164.8" style="fill:#F1543F;" width="17.2" height="13.7"/>
	<rect x="341.1" y="189.1" style="fill:#F1543F;" width="30.5" height="13.7"/>
	<rect x="341.1" y="213.4" style="fill:#F1543F;" width="17.2" height="13.7"/>
	<rect x="341.1" y="237.7" style="fill:#F1543F;" width="30.5" height="13.7"/>
	<rect x="341.1" y="262" style="fill:#F1543F;" width="17.2" height="13.7"/>
	<rect x="341.1" y="286.2" style="fill:#F1543F;" width="30.5" height="13.7"/>
	<rect x="341.1" y="310.5" style="fill:#F1543F;" width="17.2" height="13.7"/>
	<rect x="341.1" y="334.8" style="fill:#F1543F;" width="30.5" height="13.7"/>
	<rect x="341.1" y="359.1" style="fill:#F1543F;" width="17.2" height="13.7"/>
	<rect x="341.1" y="383.4" style="fill:#F1543F;" width="30.5" height="13.7"/>
</g>
<g>
</g>
<g>
</g>
<g>
</g>
<g>
</g>
<g>
</g>
<g>
</g>
<g>
</g>
<g>
</g>
<g>
</g>
<g>
</g>
<g>
</g>
<g>
</g>
<g>
</g>
<g>
</g>
<g>
</g>
</svg>
