<?xml version="1.0" encoding="iso-8859-1"?>
<!-- Generator: Adobe Illustrator 19.0.0, SVG Export Plug-In . SVG Version: 6.00 Build 0)  -->
<svg version="1.1" id="Layer_1" xmlns="http://www.w3.org/2000/svg" xmlns:xlink="http://www.w3.org/1999/xlink" x="0px" y="0px"
	 viewBox="0 0 504 504" style="enable-background:new 0 0 504 504;" xml:space="preserve">
<circle style="fill:#324A5E;" cx="252" cy="252" r="252"/>
<polygon style="fill:#FFFFFF;" points="299.3,94.5 124.6,94.5 124.6,409.5 379.4,409.5 379.4,174.6 "/>
<polygon style="fill:#E6E9EE;" points="299.3,174.6 379.4,174.6 299.3,94.5 "/>
<rect x="151" y="196.2" style="fill:#4CDBC4;" width="50.5" height="50.5"/>
<rect x="151" y="266.1" style="fill:#FF7058;" width="50.5" height="50.5"/>
<rect x="151" y="336" style="fill:#324A5E;" width="50.5" height="50.5"/>
<g>
	<path style="fill:#2C9984;" d="M227.8,237.4c-0.8-0.8-1.2-1.8-1.2-3s0.4-2.1,1.2-3c0.8-0.8,1.8-1.2,3-1.2s2.2,0.4,3,1.2
		s1.2,1.8,1.2,3s-0.4,2.1-1.2,3c-0.8,0.8-1.8,1.2-3,1.2S228.6,238.2,227.8,237.4z"/>
	<path style="fill:#2C9984;" d="M256.8,231.7c3.6,0,6.6-1.4,8.9-4.3l4.7,4.9c-3.7,4.2-8.2,6.3-13.3,6.3s-9.3-1.6-12.6-4.8
		s-4.9-7.3-4.9-12.2s1.7-9,5-12.3c3.4-3.3,7.5-4.9,12.3-4.9c5.4,0,10,2.1,13.6,6.2l-4.6,5.2c-2.3-2.9-5.2-4.3-8.7-4.3
		c-2.8,0-5.1,0.9-7.1,2.7s-3,4.3-3,7.3c0,3.1,0.9,5.5,2.8,7.4C251.9,230.7,254.2,231.7,256.8,231.7z"/>
	<path style="fill:#2C9984;" d="M303.3,233.6c-3.3,3.3-7.4,4.9-12.3,4.9s-9-1.6-12.3-4.9c-3.3-3.3-5-7.3-5-12.2
		c0-4.8,1.7-8.9,5-12.2s7.4-4.9,12.3-4.9s9,1.6,12.3,4.9s5,7.3,5,12.2S306.7,230.4,303.3,233.6z M300.8,221.5c0-2.9-0.9-5.5-2.8-7.5
		c-1.9-2.1-4.2-3.1-7-3.1s-5.1,1-7,3.1s-2.8,4.6-2.8,7.5s0.9,5.5,2.8,7.5c1.9,2.1,4.2,3.1,7,3.1s5.1-1,7-3.1
		S300.8,224.4,300.8,221.5z"/>
	<path style="fill:#2C9984;" d="M344.1,217.4l-8.9,18h-4.4l-8.9-18v20.8h-7.4v-33h10l8.5,18.1l8.6-18.1h9.9v33h-7.4L344.1,217.4
		L344.1,217.4z"/>
</g>
<g>
	<path style="fill:#F1543F;" d="M236.3,306.9c-0.8-0.8-1.2-1.8-1.2-3s0.4-2.1,1.2-3c0.8-0.8,1.8-1.2,3-1.2s2.2,0.4,3,1.2
		c0.8,0.8,1.2,1.8,1.2,3s-0.4,2.1-1.2,3c-0.8,0.8-1.8,1.2-3,1.2S237.1,307.7,236.3,306.9z"/>
	<path style="fill:#F1543F;" d="M273.3,274.7h7.4v33h-7.4L257.5,287v20.7h-7.4v-33h6.9l16.2,21.3v-21.3H273.3z"/>
	<path style="fill:#F1543F;" d="M312.6,274.7v6.6h-16.4v6.8H311v6.3h-14.8v6.9h17v6.5h-24.3v-33h23.7V274.7z"/>
	<path style="fill:#F1543F;" d="M333.7,281.1v26.6h-7.4v-26.6h-9.4v-6.4H343v6.4H333.7z"/>
</g>
<g>
	<path style="fill:#2B3B4E;" d="M224.9,377.1c-0.8-0.8-1.2-1.8-1.2-3s0.4-2.1,1.2-3c0.8-0.8,1.8-1.2,3-1.2s2.2,0.4,3,1.2
		c0.8,0.8,1.2,1.8,1.2,3s-0.4,2.1-1.2,3c-0.8,0.8-1.8,1.2-3,1.2S225.7,377.9,224.9,377.1z"/>
	<path style="fill:#2B3B4E;" d="M238.7,344.9h7.4v33h-7.4V344.9z"/>
	<path style="fill:#2B3B4E;" d="M277.3,344.9h7.4v33h-7.4l-15.7-20.7V378h-7.4v-33h6.9l16.2,21.3V344.9z"/>
	<path style="fill:#2B3B4E;" d="M315.5,344.9v6.5h-15.3v7.1h14.6v6.5h-14.6v13h-7.4v-33h22.7V344.9z"/>
	<path style="fill:#2B3B4E;" d="M349.5,373.4c-3.3,3.3-7.4,4.9-12.3,4.9s-9-1.6-12.3-4.9s-5-7.3-5-12.2s1.7-8.9,5-12.2
		c3.3-3.3,7.4-4.9,12.3-4.9s9,1.6,12.3,4.9s5,7.3,5,12.2S352.8,370.1,349.5,373.4z M347,361.3c0-2.9-0.9-5.5-2.8-7.5
		c-1.9-2.1-4.2-3.1-7-3.1s-5.1,1-7,3.1s-2.8,4.6-2.8,7.5s0.9,5.5,2.8,7.5c1.9,2.1,4.2,3.1,7,3.1s5.1-1,7-3.1
		C346,366.7,347,364.2,347,361.3z"/>
</g>
<path style="fill:#FFFFFF;" d="M165.4,242.8l-11.6-16l6.4-4.6l4.6,6.3c5.7-8.4,18.5-24.2,33.2-25l0.4,7.9c-12.8,0.7-26,19.1-30,26.1
	L165.4,242.8z"/>
<rect x="152.7" y="119.7" style="fill:#F1543F;" width="118.6" height="12.8"/>
<rect x="152.7" y="150" style="fill:#F9B54C;" width="118.6" height="12.8"/>
<g>
</g>
<g>
</g>
<g>
</g>
<g>
</g>
<g>
</g>
<g>
</g>
<g>
</g>
<g>
</g>
<g>
</g>
<g>
</g>
<g>
</g>
<g>
</g>
<g>
</g>
<g>
</g>
<g>
</g>
</svg>
