<?xml version="1.0" encoding="iso-8859-1"?>
<!-- Generator: Adobe Illustrator 19.0.0, SVG Export Plug-In . SVG Version: 6.00 Build 0)  -->
<svg version="1.1" id="Layer_1" xmlns="http://www.w3.org/2000/svg" xmlns:xlink="http://www.w3.org/1999/xlink" x="0px" y="0px"
	 viewBox="0 0 504 504" style="enable-background:new 0 0 504 504;" xml:space="preserve">
<circle style="fill:#90DFAA;" cx="252" cy="252" r="252"/>
<g>
	<rect x="94.5" y="373" style="fill:#2B3B4E;" width="315" height="15"/>
	<rect x="244.5" y="308" style="fill:#2B3B4E;" width="15" height="71.9"/>
</g>
<rect x="221.2" y="351.4" style="fill:#F1543F;" width="61.7" height="58.1"/>
<path style="fill:#FFD05B;" d="M221.2,110.6L221.2,110.6c0-8.9-7.2-16.1-16.1-16.1h-79.3c-8.9,0-16.1,7.2-16.1,16.1v188.8
	c0,8.9,7.2,16.1,16.1,16.1h252.5c8.9,0,16.1-7.2,16.1-16.1V142.9c0-8.9-7.2-16.1-16.1-16.1h-141
	C228.4,126.8,221.2,119.6,221.2,110.6z"/>
<rect x="130.9" y="131.6" style="fill:#F1543F;" width="44.3" height="166.3"/>
<rect x="196.9" y="178.8" style="fill:#324A5E;" width="44.3" height="119"/>
<rect x="262.8" y="220.5" style="fill:#2C9984;" width="44.3" height="77.3"/>
<rect x="328.8" y="249" style="fill:#FFFFFF;" width="44.3" height="48.8"/>
<g>
</g>
<g>
</g>
<g>
</g>
<g>
</g>
<g>
</g>
<g>
</g>
<g>
</g>
<g>
</g>
<g>
</g>
<g>
</g>
<g>
</g>
<g>
</g>
<g>
</g>
<g>
</g>
<g>
</g>
</svg>
