<?xml version="1.0" encoding="iso-8859-1"?>
<!-- Generator: Adobe Illustrator 19.0.0, SVG Export Plug-In . SVG Version: 6.00 Build 0)  -->
<svg version="1.1" id="Layer_1" xmlns="http://www.w3.org/2000/svg" xmlns:xlink="http://www.w3.org/1999/xlink" x="0px" y="0px"
	 viewBox="0 0 504 504" style="enable-background:new 0 0 504 504;" xml:space="preserve">
<circle style="fill:#324A5E;" cx="252" cy="252" r="252"/>
<polygon style="fill:#2B3B4E;" points="361.3,409.5 373.3,386.6 349.2,386.6 "/>
<polygon style="fill:#E6E9EE;" points="332.2,354.4 349.2,386.6 373.3,386.6 390.3,354.4 "/>
<rect x="332.2" y="156.8" style="fill:#54C0EB;" width="58.1" height="197.5"/>
<path style="fill:#FFFFFF;" d="M370.9,94.5h-19.4l0,0c-10.7,0-19.4,8.7-19.4,19.4v19.7h19.4h19.4h19.4v-19.7
	C390.3,103.2,381.6,94.5,370.9,94.5L370.9,94.5z"/>
<g>
	<rect x="332.2" y="133.5" style="fill:#F1543F;" width="58.1" height="23.3"/>
	<rect x="174" y="94.5" style="fill:#F1543F;" width="11.2" height="53.1"/>
</g>
<g>
	<rect x="185.2" y="94.5" style="fill:#FF7058;" width="11.2" height="53.1"/>
	<path style="fill:#FF7058;" d="M164.6,96.1v51.4h9.4v-53h-7.8C165.3,94.5,164.6,95.2,164.6,96.1z"/>
</g>
<rect x="196.4" y="94.5" style="fill:#F1543F;" width="11.2" height="53.1"/>
<path style="fill:#FF7058;" d="M215.4,94.5h-7.8v53.1h9.4V96.2C217,95.2,216.3,94.5,215.4,94.5z"/>
<g>
	<path style="fill:#FFD05B;" d="M243.7,171.7c-1.2-13.6-12.6-24.1-26.2-24.1h-53.2c-13.7,0-25.1,10.5-26.2,24.1l-6.7,59.4h119.1
		L243.7,171.7z"/>
	<path style="fill:#FFD05B;" d="M113.8,385.6c-1.1,12.8,9,23.9,21.9,23.9h110.2c12.9,0,23-11,21.9-23.9l-6.7-59.6H120.5L113.8,385.6
		z"/>
</g>
<polygon style="fill:#4CDBC4;" points="131.2,231.1 120.5,326 261.1,326 250.4,231.1 "/>
<circle style="fill:#2C9984;" cx="190.8" cy="278.5" r="30.8"/>
<path style="fill:#84DBFF;" d="M355.8,339h-9.5c-0.9,0-1.6-0.7-1.6-1.6V173.9c0-0.9,0.7-1.6,1.6-1.6h9.5c0.9,0,1.6,0.7,1.6,1.6
	v163.5C357.4,338.2,356.7,339,355.8,339z"/>
<g>
</g>
<g>
</g>
<g>
</g>
<g>
</g>
<g>
</g>
<g>
</g>
<g>
</g>
<g>
</g>
<g>
</g>
<g>
</g>
<g>
</g>
<g>
</g>
<g>
</g>
<g>
</g>
<g>
</g>
</svg>
