<?xml version="1.0" encoding="iso-8859-1"?>
<!-- Generator: Adobe Illustrator 19.0.0, SVG Export Plug-In . SVG Version: 6.00 Build 0)  -->
<svg version="1.1" id="Layer_1" xmlns="http://www.w3.org/2000/svg" xmlns:xlink="http://www.w3.org/1999/xlink" x="0px" y="0px"
	 viewBox="0 0 504 504" style="enable-background:new 0 0 504 504;" xml:space="preserve">
<circle style="fill:#90DFAA;" cx="252" cy="252" r="252"/>
<path style="fill:#F1543F;" d="M382.6,152.1H121.4c-6.9,0-12.5,5.1-12.5,11.5v193.2c0,6.3,5.6,11.5,12.5,11.5h261.1
	c6.9,0,12.5-5.1,12.5-11.5V163.6C395,157.2,389.5,152.1,382.6,152.1z"/>
<rect x="136.8" y="178.3" style="fill:#E6E9EE;" width="230.5" height="163.7"/>
<path style="fill:#2B3B4E;" d="M298.4,378.1L298.4,378.1c0,6.2-3.2,11.2-7.2,11.2h-78.5c-4,0-7.2-5-7.2-11.2l0,0h-111l4,9.9
	c5.2,12.9,19.8,21.6,36.1,21.6h234.7c16.4,0,30.9-8.7,36.1-21.6l4-9.9H298.4z"/>
<path style="fill:#324A5E;" d="M282.8,223.5h-73.2v-45.2h-11.9v66h-60.9v11.4h31.8V342h11.9v-19.4c0-7.2,5.8-13,13-13H273
	c5.4,0,9.8,4.4,9.8,9.8V342h11.9v-22.6c0-5.4,4.4-9.8,9.8-9.8h62.7v-11.4h-62.7c-5.4,0-9.8-4.4-9.8-9.8v-53.6h72.5v-11.4h-72.5
	v-45.2h-11.9V223.5 M282.8,288.5c0,5.4-4.4,9.8-9.8,9.8h-79.5c-7.2,0-13-5.8-13-13v-29.6h29.1v-20.8h73.2"/>
<path style="fill:#2C9984;" d="M259.9,154.4c0,33.1-53.3,93.4-53.3,93.4s-53.3-60.3-53.3-93.4s23.9-59.9,53.3-59.9
	S259.9,121.3,259.9,154.4z"/>
<circle style="fill:#FFD05B;" cx="206.5" cy="146.6" r="31.7"/>
<g>
</g>
<g>
</g>
<g>
</g>
<g>
</g>
<g>
</g>
<g>
</g>
<g>
</g>
<g>
</g>
<g>
</g>
<g>
</g>
<g>
</g>
<g>
</g>
<g>
</g>
<g>
</g>
<g>
</g>
</svg>
