<?xml version="1.0" encoding="iso-8859-1"?>
<!-- Generator: Adobe Illustrator 19.0.0, SVG Export Plug-In . SVG Version: 6.00 Build 0)  -->
<svg version="1.1" id="Layer_1" xmlns="http://www.w3.org/2000/svg" xmlns:xlink="http://www.w3.org/1999/xlink" x="0px" y="0px"
	 viewBox="0 0 504 504" style="enable-background:new 0 0 504 504;" xml:space="preserve">
<circle style="fill:#90DFAA;" cx="252" cy="252" r="252"/>
<rect x="110.6" y="133.5" style="fill:#324A5E;" width="282.8" height="217.6"/>
<rect x="126.3" y="149.2" style="fill:#E6E9EE;" width="251.3" height="186"/>
<polygon style="fill:#FFFFFF;" points="279.4,94.5 161.6,94.5 161.6,313.5 334.5,313.5 334.5,151.6 "/>
<polygon style="fill:#ACB3BA;" points="279.4,151.6 334.5,151.6 279.4,94.5 "/>
<rect x="184.5" y="120.2" style="fill:#324A5E;" width="71.9" height="8.2"/>
<rect x="184.5" y="143.4" style="fill:#ACB3BA;" width="71.9" height="8.2"/>
<rect x="184" y="221.5" style="fill:#F9B54C;" width="37.6" height="26.9"/>
<rect x="229.3" y="221.5" style="fill:#2C9984;" width="37.6" height="26.9"/>
<rect x="274.5" y="221.5" style="fill:#CED5E0;" width="37" height="26.9"/>
<rect x="184" y="178" style="fill:#FFD05B;" width="37.6" height="26.9"/>
<rect x="229.3" y="178" style="fill:#4CDBC4;" width="37.6" height="26.9"/>
<rect x="274.5" y="178" style="fill:#ACB3BA;" width="37" height="26.9"/>
<rect x="184" y="264.9" style="fill:#54C0EB;" width="64" height="26.9"/>
<rect x="256.3" y="267.7" style="fill:#ACB3BA;" width="55.1" height="6.4"/>
<rect x="256.3" y="282.7" style="fill:#4CDBC4;" width="55.1" height="6.4"/>
<path style="fill:#324A5E;" d="M407,409.5H97c-1.4,0-2.5-1.1-2.5-2.5v-30h315v30C409.5,408.4,408.4,409.5,407,409.5z"/>
<rect x="224.4" y="386.1" style="fill:#FFD05B;" width="55.1" height="6.4"/>
<g>
</g>
<g>
</g>
<g>
</g>
<g>
</g>
<g>
</g>
<g>
</g>
<g>
</g>
<g>
</g>
<g>
</g>
<g>
</g>
<g>
</g>
<g>
</g>
<g>
</g>
<g>
</g>
<g>
</g>
</svg>
