<?xml version="1.0" encoding="iso-8859-1"?>
<!-- Generator: Adobe Illustrator 19.0.0, SVG Export Plug-In . SVG Version: 6.00 Build 0)  -->
<svg version="1.1" id="Layer_1" xmlns="http://www.w3.org/2000/svg" xmlns:xlink="http://www.w3.org/1999/xlink" x="0px" y="0px"
	 viewBox="0 0 504 504" style="enable-background:new 0 0 504 504;" xml:space="preserve">
<circle style="fill:#FD8469;" cx="252" cy="252" r="252"/>
<g>
	<path style="fill:#2B3B4E;" d="M208.1,430.4c0,4.8,3.9,8.6,8.6,8.6c4.8,0,8.6-3.9,8.6-8.6v-36.2h-17.2L208.1,430.4z"/>
	<path style="fill:#2B3B4E;" d="M268.2,394.1v36.2c0,4.8,3.9,8.6,8.6,8.6c4.8,0,8.6-3.9,8.6-8.6v-36.2H268.2z"/>
</g>
<rect x="193.1" y="351.1" style="fill:#ACB3BA;" width="107.5" height="7.7"/>
<path style="fill:#FFFFFF;" d="M233.4,76.1C180.3,82,137.2,124.8,131,177.9c-4.7,40,10.9,76.6,37.8,100.8
	c12.7,11.5,20.6,27.1,23.3,43.9c0.1,0.5,0.1,1.1,0.2,1.6h109.3c0.1-0.5,0.1-1.1,0.2-1.6c2.7-16.9,10.9-32.6,23.7-44.3
	c23.4-21.3,38.1-52,38.1-86.2C363.5,123.2,303.8,68.3,233.4,76.1z"/>
<g>
	<rect x="193.1" y="368.4" style="fill:#ACB3BA;" width="107.5" height="7.7"/>
	<path style="fill:#ACB3BA;" d="M193.1,387.9c0,3.5,2.8,6.3,6.3,6.3h95c3.5,0,6.3-2.8,6.3-6.3v-2.2H193.2L193.1,387.9z"/>
	<path style="fill:#ACB3BA;" d="M300.6,333.8H193c0,0.4,0.1,0.9,0.1,1.3v6.4h107.5v-6.4C300.5,334.6,300.6,334.2,300.6,333.8z"/>
</g>
<g>
	<path style="fill:#324A5E;" d="M301.4,324.2H192.1c0.5,3.2,0.7,6.4,0.8,9.6h107.6C300.7,330.5,301,327.3,301.4,324.2z"/>
	<rect x="193.1" y="341.5" style="fill:#324A5E;" width="107.5" height="9.6"/>
	<rect x="193.1" y="358.8" style="fill:#324A5E;" width="107.5" height="9.6"/>
	<rect x="193.1" y="376.1" style="fill:#324A5E;" width="107.5" height="9.6"/>
</g>
<path style="fill:#4CDBC4;" d="M316.3,192.8v-27.4h-13.9c-1.4-5.7-3.6-11.1-6.6-16l9.8-9.8l-19.3-19.3l-9.8,9.8
	c-4.9-3-10.3-5.2-16-6.6v-13.9h-27.4v13.9c-5.7,1.4-11.1,3.6-16,6.6l-9.8-9.8L188,139.7l9.8,9.8c-3,4.9-5.2,10.3-6.6,16h-13.9v27.4
	h13.9c1.4,5.7,3.6,11.1,6.6,16l-9.8,9.8l19.3,19.3l9.8-9.8c4.9,3,10.3,5.2,16,6.6v8.5v5.4v75.5h27.4v-75.5v-5.4v-8.5
	c5.7-1.4,11.1-3.6,16-6.6l9.8,9.8l19.3-19.3l-9.8-9.8c3-4.9,5.2-10.3,6.6-16L316.3,192.8z M246.8,218.5c-21.7,0-39.3-17.6-39.3-39.3
	s17.6-39.3,39.3-39.3s39.3,17.6,39.3,39.3S268.5,218.5,246.8,218.5z"/>
<g>
</g>
<g>
</g>
<g>
</g>
<g>
</g>
<g>
</g>
<g>
</g>
<g>
</g>
<g>
</g>
<g>
</g>
<g>
</g>
<g>
</g>
<g>
</g>
<g>
</g>
<g>
</g>
<g>
</g>
</svg>
