<?xml version="1.0" encoding="iso-8859-1"?>
<!-- Generator: Adobe Illustrator 19.0.0, SVG Export Plug-In . SVG Version: 6.00 Build 0)  -->
<svg version="1.1" id="Layer_1" xmlns="http://www.w3.org/2000/svg" xmlns:xlink="http://www.w3.org/1999/xlink" x="0px" y="0px"
	 viewBox="0 0 504 504" style="enable-background:new 0 0 504 504;" xml:space="preserve">
<circle style="fill:#84DBFF;" cx="252" cy="252" r="252"/>
<rect x="256.523" y="251.306" transform="matrix(-0.7071 0.7071 -0.7071 -0.7071 676.9034 280.4281)" style="fill:#324A5E;" width="47.7" height="58.199"/>
<path style="fill:#2B3B4E;" d="M276.3,325.6l73.7,73.7c13.6,13.6,35.7,13.6,49.3,0c13.6-13.6,13.6-35.7,0-49.3l-73.7-73.7
	L276.3,325.6z"/>
<circle style="fill:#324A5E;" cx="198.2" cy="198.2" r="103.7"/>
<g>
	<circle style="fill:#FFFFFF;" cx="198.2" cy="198.2" r="81.5"/>
	<circle style="fill:#FFFFFF;" cx="198.2" cy="198.2" r="81.5"/>
</g>
<path style="fill:#ACB3BA;" d="M120.5,198.2c42.9,59.6,112.5,59.6,155.4,0C233,138.7,163.4,138.7,120.5,198.2z"/>
<circle style="fill:#2C9984;" cx="198.2" cy="198.2" r="38.3"/>
<circle style="fill:#324A5E;" cx="198.2" cy="198.2" r="21.6"/>
<circle style="fill:#FFFFFF;" cx="175.5" cy="179.2" r="7.2"/>
<g>
</g>
<g>
</g>
<g>
</g>
<g>
</g>
<g>
</g>
<g>
</g>
<g>
</g>
<g>
</g>
<g>
</g>
<g>
</g>
<g>
</g>
<g>
</g>
<g>
</g>
<g>
</g>
<g>
</g>
</svg>
