<?xml version="1.0" encoding="iso-8859-1"?>
<!-- Generator: Adobe Illustrator 19.0.0, SVG Export Plug-In . SVG Version: 6.00 Build 0)  -->
<svg version="1.1" id="Layer_1" xmlns="http://www.w3.org/2000/svg" xmlns:xlink="http://www.w3.org/1999/xlink" x="0px" y="0px"
	 viewBox="0 0 504 504" style="enable-background:new 0 0 504 504;" xml:space="preserve">
<circle style="fill:#324A5E;" cx="252" cy="252" r="252"/>
<g>
	<rect x="245" y="304" style="fill:#FFD05B;" width="14" height="59.5"/>
	<rect x="94.5" y="371.4" style="fill:#FFD05B;" width="315" height="14"/>
</g>
<path style="fill:#F1543F;" d="M406.8,188.6H97.2c-1.5,0-2.7-1.2-2.7-2.7V97.2c0-1.5,1.2-2.7,2.7-2.7h309.5c1.5,0,2.7,1.2,2.7,2.7
	v88.7C409.5,187.4,408.3,188.6,406.8,188.6z"/>
<path style="fill:#4CDBC4;" d="M406.8,311.6H97.2c-1.5,0-2.7-1.2-2.7-2.7v-88.7c0-1.5,1.2-2.7,2.7-2.7h309.5c1.5,0,2.7,1.2,2.7,2.7
	v88.7C409.5,310.3,408.3,311.6,406.8,311.6z"/>
<rect x="221.2" y="347.4" style="fill:#F1543F;" width="61.7" height="62.1"/>
<rect x="119.2" y="118.6" style="fill:#FFFFFF;" width="45.9" height="45.9"/>
<rect x="186.8" y="118.6" style="fill:#324A5E;" width="45.9" height="45.9"/>
<rect x="365.9" y="118.6" style="fill:#FFFFFF;" width="18.9" height="45.9"/>
<rect x="331.9" y="118.6" style="fill:#54C0EB;" width="18.9" height="45.9"/>
<rect x="297.9" y="118.6" style="fill:#FFFFFF;" width="18.9" height="45.9"/>
<rect x="338.9" y="241.5" style="fill:#324A5E;" width="45.9" height="45.9"/>
<rect x="271.3" y="241.5" style="fill:#FFFFFF;" width="45.9" height="45.9"/>
<rect x="119.2" y="241.5" style="fill:#324A5E;" width="18.9" height="45.9"/>
<rect x="153.2" y="241.5" style="fill:#FFFFFF;" width="18.9" height="45.9"/>
<rect x="187.3" y="241.5" style="fill:#FF7058;" width="18.9" height="45.9"/>
<rect x="209.8" y="188.6" style="fill:#FFD05B;" width="84.5" height="28.8"/>
<g>
</g>
<g>
</g>
<g>
</g>
<g>
</g>
<g>
</g>
<g>
</g>
<g>
</g>
<g>
</g>
<g>
</g>
<g>
</g>
<g>
</g>
<g>
</g>
<g>
</g>
<g>
</g>
<g>
</g>
</svg>
