<?xml version="1.0" encoding="iso-8859-1"?>
<!-- Generator: Adobe Illustrator 19.0.0, SVG Export Plug-In . SVG Version: 6.00 Build 0)  -->
<svg version="1.1" id="Layer_1" xmlns="http://www.w3.org/2000/svg" xmlns:xlink="http://www.w3.org/1999/xlink" x="0px" y="0px"
	 viewBox="0 0 504 504" style="enable-background:new 0 0 504 504;" xml:space="preserve">
<circle style="fill:#FFD05B;" cx="252" cy="252" r="252"/>
<rect x="207.731" y="73.587" transform="matrix(-0.7071 0.7071 -0.7071 -0.7071 608.4589 252.0388)" style="fill:#324A5E;" width="88.599" height="356.897"/>
<g>
	
		<rect x="108.573" y="155.363" transform="matrix(-0.7071 0.7071 -0.7071 -0.7071 330.546 191.2086)" style="fill:#E6E9EE;" width="34.2" height="17.4"/>
	
		<rect x="133.174" y="177" transform="matrix(-0.7071 0.7071 -0.7071 -0.7071 400.3054 205.5871)" style="fill:#E6E9EE;" width="48.8" height="17.4"/>
	
		<rect x="162.115" y="208.993" transform="matrix(-0.7071 0.7071 -0.7071 -0.7071 459.8712 244.9018)" style="fill:#E6E9EE;" width="34.2" height="17.4"/>
</g>
<g>
	
		<rect x="186.786" y="230.56" transform="matrix(-0.7071 0.7071 -0.7071 -0.7071 529.6979 259.1109)" style="fill:#FFFFFF;" width="48.8" height="17.4"/>
	
		<rect x="215.665" y="262.483" transform="matrix(-0.7071 0.7071 -0.7071 -0.7071 589.1101 298.3479)" style="fill:#FFFFFF;" width="34.2" height="17.4"/>
	
		<rect x="240.336" y="284.19" transform="matrix(-0.7071 0.7071 -0.7071 -0.7071 659.0369 312.7985)" style="fill:#FFFFFF;" width="48.8" height="17.4"/>
</g>
<g>
	
		<rect x="269.206" y="316.113" transform="matrix(-0.7071 0.7071 -0.7071 -0.7071 718.4319 352.0424)" style="fill:#E6E9EE;" width="34.2" height="17.4"/>
	
		<rect x="293.876" y="337.68" transform="matrix(-0.7071 0.7071 -0.7071 -0.7071 788.2587 366.2516)" style="fill:#E6E9EE;" width="48.8" height="17.4"/>
	
		<rect x="322.827" y="369.673" transform="matrix(-0.7071 0.7071 -0.7071 -0.7071 847.8416 405.5592)" style="fill:#E6E9EE;" width="34.2" height="17.4"/>
</g>
<path style="fill:#FFFFFF;" d="M117.5,319.5l-17.8,17.8c-6.9,6.9-6.9,18,0,24.9l42.1,42.1c6.9,6.9,18,6.9,24.9,0l17.8-17.8
	L117.5,319.5z"/>
<polygon style="fill:#324A5E;" points="409.5,94.5 376.4,106.5 397.5,127.6 "/>
<polygon style="fill:#FFFFFF;" points="371.7,199.3 397.5,127.6 376.4,106.5 304.7,132.3 "/>
<rect x="86.01" y="222.891" transform="matrix(-0.7071 0.7071 -0.7071 -0.7071 537.7725 243.7282)" style="fill:#2C9984;" width="264.797" height="20.7"/>
<rect x="102.758" y="236.57" transform="matrix(-0.7071 0.7071 -0.7071 -0.7071 578.1569 260.359)" style="fill:#4CDBC4;" width="264.797" height="26.7"/>
<rect x="121.595" y="255.511" transform="matrix(-0.7071 0.7071 -0.7071 -0.7071 623.7079 279.3726)" style="fill:#2C9984;" width="264.797" height="26.7"/>
<rect x="260.421" y="153.229" transform="matrix(0.7071 0.7071 -0.7071 0.7071 281.2764 -107.8051)" style="fill:#4CDBC4;" width="20.7" height="264.797"/>
<rect x="116.296" y="322.378" transform="matrix(-0.7071 -0.7071 0.7071 -0.7071 38.7119 696.6913)" style="fill:#F1543F;" width="94.699" height="35.9"/>
<g>
</g>
<g>
</g>
<g>
</g>
<g>
</g>
<g>
</g>
<g>
</g>
<g>
</g>
<g>
</g>
<g>
</g>
<g>
</g>
<g>
</g>
<g>
</g>
<g>
</g>
<g>
</g>
<g>
</g>
</svg>
