<?xml version="1.0" encoding="iso-8859-1"?>
<!-- Generator: Adobe Illustrator 19.0.0, SVG Export Plug-In . SVG Version: 6.00 Build 0)  -->
<svg version="1.1" id="Layer_1" xmlns="http://www.w3.org/2000/svg" xmlns:xlink="http://www.w3.org/1999/xlink" x="0px" y="0px"
	 viewBox="0 0 504 504" style="enable-background:new 0 0 504 504;" xml:space="preserve">
<circle style="fill:#324A5E;" cx="252" cy="252" r="252"/>
<g>
	<path style="fill:#ACB3BA;" d="M238.2,229.6c1.8,2,2.8,3.4,1.1,6s0.2,4.5,2.3,6c2.5,1.7,7.1,1.8,8.1-0.3c0.7-1.4,0.2-4.2-0.9-5.5
		c-2.2-2.9-2.3-4.6,1.3-5.8c0.1,0,0.2-0.4,0.2-0.5c-3.3-2.4-6.5-4.8-9.2-6.7c-0.1-4.2,6.1-3.7,4-8c-3.7-0.9-9.4,1.8-10.8,5.2
		c-0.3,0.8-0.5,1.8-0.2,2.5C235.3,224.9,236.4,227.6,238.2,229.6z"/>
	<path style="fill:#ACB3BA;" d="M152.9,310.4c-0.6-0.4-1.1-1-1.7-1.1c-3.5-0.5-5.8,1.4-5.9,5.6c0.2,0.3,0.7,1.1,1.3,1.9
		c0.4-0.4,1.2-0.8,1.2-1.2c0-2.5,1.3-3.4,3.7-3.5C152,312.1,152.4,311,152.9,310.4z"/>
	<path style="fill:#ACB3BA;" d="M262.2,217.4c0.3-2.2,1.2-3,3.3-3.1c0.6,0,1.2-0.9,1.8-1.4c-0.7-0.5-1.3-1.4-2.1-1.4
		c-4.7-0.5-7.6,3.6-5.7,9.4C260.7,219.4,262,218.5,262.2,217.4z"/>
	<path style="fill:#ACB3BA;" d="M319.7,160c1.1,3.9,2.1,7.5,3.1,11.1C325.7,167.8,324.2,162.5,319.7,160z"/>
	<path style="fill:#ACB3BA;" d="M265.3,226.4c0.7,0.4,1.3,1,2.1,1.1c3.3,0.3,5.4-1.5,5.6-5.7c-0.1-0.3-0.6-1.3-1.1-2.2
		c-0.5,0.9-1.4,1.7-1.5,2.7c-0.3,2-1.6,2.2-3.2,2.5C266.4,224.8,265.9,225.8,265.3,226.4z"/>
</g>
<g>
	<path style="fill:#FFFFFF;" d="M152.3,366.1c0.8-6.5-1.1-12.1-4.8-17.2c-2.2-3.1-4.4-6.3-6.6-9.4c-2.2-3.1-2.9-6.3-1.8-10.2
		c1.4-4.5-1.1-8.1-5.3-9.9c-1.9-0.8-3.8-2.6-4.7-4.5c-1.9-3.9-4.5-5.7-8.8-5.2c-3.1,0.4-5.7-0.4-8.1-2.5c-1.7-1.5-4-2.3-5.8-3.5
		c-1.2-0.8-2.6-1.8-3.2-3.1c-0.9-1.7-1.7-3.4-2.5-5.1c9.2,32,28.2,59.8,53.5,79.9C152.3,372.7,151.9,369.4,152.3,366.1z"/>
	<path style="fill:#FFFFFF;" d="M96.5,256.9c0.8-2.7,1.4-5.5,2.4-8.1c1-2.4,2.1-4.9,3.7-6.8c6.5-7.5,14.7-12.7,23.2-17.5
		c0.7-0.4,1.8-0.3,2.7-0.1c2.6,0.7,5.2,1.5,7.8,2.2c5.8,1.6,11.7,3,17.5,4.7c2.4,0.7,2.8,2.7,1.4,6c-2.2,5.2-2.2,5.3,2.7,8.4
		c1.6,1,3,2.5,4.4,3.9c1.6,1.6,3.1,3.4,4.7,5c1.9,2,3.7,1.9,4.7-0.9c1.4-3.7,3.3-3.7,6.5-2.1c3.7,1.8,7.2,4.2,11,5.9
		c1.8,0.8,4.1,0.4,6.2,0.6c2.2,0.2,4.5,0.3,6.6,0.8c1.7,0.5,2.7,0.2,3.4-1.4c0.4-1,0.9-2.2,1.7-2.8c4.3-2.9,2.8-6.7,1.9-10.6
		c-0.8,0-1.4-0.1-2,0c-0.8,0.1-1.5,0.6-2.2,0.5c-4-0.3-8.1-0.5-12-1.2c-2-0.3-3.7-4.9-3.5-7.7c0.1-1,0.3-2,0-2.9
		c-0.6-2.1-1.1-4.7-4.3-2.3c-0.5,0.4-1.4,0.2-2.1,0.3c-0.5,7.7-0.5,7.7-3,9.7c-0.9-1.5-2.5-2.8-2.6-4.3c-0.2-4.2,0-8.4,0.7-12.6
		c0.3-2.1,0.3-2.6-1.9-2.8c-1.3-0.1-2.6-1.5-3.6-2.7c-1-1.3-1.4-3-2.3-4.3c-0.5-0.7-1.6-1.8-2-1.6c-1,0.4-2.1,1.3-2.6,2.2
		c-0.3,0.6,0.2,1.8,0.7,2.5c2.4,3.5,4.9,7,7,10c-3.3,3.5-6,6.3-9,9.5c-1.2-1.4-2.2-2.7-3.9-4.8c2.1,0,3.2,0,4.3,0
		c3.1-0.1,4.5-1.6,3.5-4.4c-2.2-6.4-5.7-12.1-10.8-16.6c-0.1,0.3-0.3,0.7-0.4,1c-1.8-0.2-3.5-0.5-5.3-0.4c-1.1,0.1-2.3,0.8-3.2,1.5
		c-3,2.5-5.7,5.4-8.9,7.6c-2.5,1.8-5.6,2.2-8.8,1c-5.2-2-7.3-8.2-4-12.6c2-2.6,4.2-5,6.6-7.3c0.5-0.5,2.1-0.5,2.8-0.1
		c1.1,0.6,1.9,1.7,2.9,2.6c2.8,2.6,4.1,2.4,6.3-0.6c1.9-2.6,2.4-5.6,1.8-8.7c-0.2-1-0.2-2-0.3-2.9c0.3-0.1,0.6-0.3,0.9-0.4
		c0.8,0.9,1.6,1.7,2.3,2.4c3.4-1.4,6.8-2.6,10.1-4.1c3.5-1.6,6.8-3.4,10.9-2.6c0.9,0.2,2.4-1.5,3.3-2.6c1.2-1.6,2.1-3.5,3.7-5
		c0,0.8-0.2,1.6-0.1,2.3c0.1,0.5,0.8,1.4,1.1,1.4c0.6-0.1,1.6-0.6,1.7-1.1c0.4-1.8,0.6-3.8,0.7-5.6c0-0.2-1.4-0.8-2-0.6
		c-1.9,0.4-4.2,1-4.8-1.1c-0.4-1.4,0.8-4,2.1-4.8c5.8-3.7,11.8-7,17.7-10.5c1.5-0.9,4-0.8,4.1-3.6c0-0.3,1.3-0.7,2-0.9
		c3.3-1,6.6-2.4,10-2.7c2.1-0.2,4.4,0.9,6.4,1.9c1.8,0.9,3.3,2.4,4.7,3.8c1.5,1.4,2.7,3.2,4.1,4.7c0.8,0.8,1.8,1.3,3.3,2.5
		c0.2-2.7,0.3-4.4,0.4-6.1c0.3-0.1,0.7-0.1,1.1-0.2c0.3,1.1,0.5,2.2,0.8,3.4c4.7-2.2,9.4-4.4,14.3-6.6c-0.1-0.2-0.4-0.8-1-2.1
		c3.6,0.7,6.8,1.3,10.9,2.2c-4-3.2-5.7-6.2-2.9-11.2c3,4.9,7.3,8.4,7.6,14.3c2.2-2.1,2.2-3.5,0.3-5.7c-1.6-1.9-3.1-4-4.6-6
		c0.2-0.2,0.4-0.4,0.6-0.6c0.5,0.1,1,0.3,1.1,0.3c0.9-1,1.7-1.9,2.6-3c-1.2-4.1,1-7.9,3.2-11.5c1.2-2,1.2-3.1-0.9-3.8
		c-1-0.4-2-0.8-3-1.2h-0.1l-0.1-0.1c0.1,0,0.1,0.1,0.2,0.1c0.9-0.2,1.8-0.5,2.8-0.4c2.1,0.1,4.2,2.4,6.3-0.3c0.3-0.4,2.4,0,3.3,0.6
		c3.3,2.2,6.3,2.4,9.1-0.8c-0.5-3.3-0.5-3.3,6.4-3c1.2-3.8-0.3-5.6-5.5-6.5c1.1-0.7,2.2-1.4,3.2-2.1c1-0.6,1.9-1.3,2.4-1.6
		c0.3-1.8,0.4-3.2,0.7-5.3c-2.6-2.9-7.5-4.9-8.8-10.6c-9-1.6-18.3-2.5-27.8-2.5C165,94.5,94.5,165,94.5,252c0,3.5,0.2,7,0.4,10.5
		c0-0.3,0-0.6,0.1-1C95.2,259.9,96.1,258.4,96.5,256.9z"/>
</g>
<g>
	<path style="fill:#ACB3BA;" d="M157.2,317.5c-0.4,0.6-1.1,1.3-1.2,1.9c-0.2,1.9-0.8,3-2.9,3.2c-0.8,0.1-1.4,1.1-2.1,1.7
		c0.8,0.5,1.6,1.1,1.8,1.2c4.3,0,6.1-2,5.8-5.8C158.4,318.9,157.6,318.2,157.2,317.5z"/>
	<path style="fill:#ACB3BA;" d="M215.5,214.6c-1.9,1-3.7,2-5.5,2.9C215,219.6,216.5,218.7,215.5,214.6z"/>
	<path style="fill:#ACB3BA;" d="M198.3,351.1c0.7,0.5,2.7,2.3,2.8,2.1c1.6-1.6,2.9-3.4,4.3-5.2c-1-0.7-2.1-2-3.1-2
		C199.8,345.9,198.4,347.5,198.3,351.1z"/>
	<path style="fill:#ACB3BA;" d="M207.6,371.3c0.8,2.4,1.5,4.9,2.3,7.3c0.4-0.1,0.7-0.2,1.1-0.4c-0.7-2.5-1.3-4.9-2-7.4
		C208.5,371,208,371.1,207.6,371.3z"/>
</g>
<path style="fill:#FFFFFF;" d="M283.1,97.6c1.3,0.6,2.5,1.3,3.7,1.8c1.5,0.7,3,1.3,4.6,1.5c7,0.5,12.6,4,18.4,7.6
	c3.1,1.9,6.7,3,10,4.6c6,3,11.9,6.2,17.8,9.4c-0.2,0.3-0.3,0.6-0.5,1c-8.6-4.3-17.3-8.6-26-13c-0.3,3.2,1.6,5,3.9,5.5
	c4.3,1,5,4.4,6.4,7.7c0.9,2.1,2,4.3,3.6,6c2.5,2.6,5.3,4.8,8.4,7.5c0.8-0.8,2.2-2.3,3.8-3.9c3.5,2.1,8.2,2.4,11.3,7.1
	c-2.6-1.5-4.4-2.5-6.2-3.6c-0.2,0.2-0.3,0.3-0.5,0.5c0.4,0.5,0.7,1.1,1.2,1.5c3.7,3.4,7.6,6.6,11.1,10.3c3.2,3.3,6.8,6.5,5.8,12.1
	c-0.2,1.1,0.7,2.5,1.4,3.6c2.4,3.7,4.3,7.7,8.9,9.5c3.1,1.2,4.9,4,3.7,8.1c-1-1.1-1.7-2.1-2.7-2.9c-2-1.5-4.2-2.9-6.4-3.9
	c-0.3-0.1-1.6,2-2.6,3.2c-0.3-0.3-1-1-1.7-1.8c-0.3,0.1-0.6,0.1-0.9,0.2c0.5,2.5,0.9,5.1,1.7,7.5c0.1,0.3,2.3,0.3,3.4-0.1
	c0.6-0.2,1-1.3,1.7-2.5c0.5,1.2,1,2.1,1,2.9c-0.1,4.1,2.4,6.2,5.5,8.4s5.9,5.5,7.6,8.9c4.7,9.7,5.4,19.7,0.8,29.7
	c-1.1,2.4-1.7,4.8,0.2,7.4c1,1.4,1.4,3.7-1.5,5.4c-0.2-2-0.2-3.6-0.5-5.1c-0.2-1-0.9-2-1.4-2.9c-0.7,0.8-1.8,1.5-2.1,2.5
	c-2,6.1-1.1,8.2,4.4,11.6c5.2,3.2,7.3,7.6,6.1,14.3c-0.6,3.2-2.1,6.3-2.9,8.9c-4.2-1.6-7.9-3.1-12-4.7c-0.7,4.6,1.2,7.8,3.3,10.8
	c2.6,3.8,5.6,7.3,8,11.2c0.6,1,0.5,3-0.2,4c-0.9,1.5-2.8,2-4,0.1c-1.4-2.2-2.5-4.6-3.8-6.8c-0.5-0.8-1.1-2.1-1.7-2.1
	c-3-0.1-3.3-2.4-3.9-4.5c-1-3.2-1.6-6.6-2.8-9.7c-0.9-2.4-2.5-4.5-3.9-7c-1.7,2.1-2.9,3.6-3.8,4.7c-4-3.9-7.6-7.4-11.1-10.9
	c-1.5-1.5-2.5-0.9-4.1,0.2c-6.9,4.8-8.9,12.4-12.2,19.4c-0.8,1.7-1.7,3.6-3,5c-2.3,2.4-2.7,5.1-2,8.2c0.9,4,2.5,8,0.4,12.1
	c-0.9,1.8-2,3.8-3.6,5c-0.5,0.4-3.1-1.2-4.1-2.4c-6.5-7.7-10.7-16.7-14.3-26c-0.3-0.9-0.6-1.8-1-2.9c-1.1,0.6-2.1,1.1-3,1.6
	c-2.6,1.3-4.5,0.3-5.8-1.9c-2.6-4.3-9.7-7.1-14.6-6.1c-4.5,1-9,1.8-13.6,2c-2.1,0.1-4.2-1.4-6.3-2.3c0.1-0.3,0.1-0.6,0.2-1
	c-1.4,0.6-2.7,1.3-4.2,1.7c-3.1,0.7-5.5-0.8-7.6-2.9c-1.6-1.6-3.2-3.3-4.9-4.9c-2.1-2-4.5-1.1-6.7-0.3c-0.4,0.1-0.7,2.1-0.3,2.7
	c1.8,2.6,4,4.9,5.7,7.5c4.6,6.8,12.1,7.8,16.2,0.1c0.2-0.4,0.7-0.7,1.7-1.7c0.3,4.8,3.4,5.9,6.8,7.1c3.3,1.2,3.4,3.9,1.7,7.2
	c-8,15-23.2,19.7-37,26.2c-0.9,0.4-2,0.2-3.1,0.3c1.1,5.8,2.7,6.8,8.2,5.1c3.6-1,7.2-1.9,10.7-3c2.6-0.8,3.3,0.7,3.1,2.7
	c-0.2,1.9-0.8,3.9-1.5,5.7c-4,9.4-9.9,17.5-17.5,24.3c-3.5,3.1-6.7,6.6-9.9,10c-1.3,1.4-1.8,2.7-0.9,4.9c2.3,5.4,4,11.1,5.9,16.6
	c0.8,2.2,0.4,3.7-1.8,4.9c-3,1.6-5.7,3.6-8.6,5.3c-1.6,0.9-2,1.9-1.3,3.7c1.7,4.4,0.5,8.6-2.8,11.3c12.7,3.3,26,5,39.6,5
	c87,0,157.5-70.5,157.5-157.5C409.5,175.7,355.2,112,283.1,97.6z"/>
<g>
	<path style="fill:#ACB3BA;" d="M211,291.7c2.7,6.9,6.4,13.1,12.9,17.2c1.1,0.7,2.2,1.6,3.2,2.4c0.2-0.2,0.4-0.3,0.7-0.5
		c-1.2-3.9-2.1-7.9-3.7-11.6c-2.1-4.5-4.8-8.8-7.3-13.1c-2.8-4.7-5.5-9.4-8.7-13.9c-1.3-1.9-3.5-3.3-5.4-4.9c-0.3,0.3-0.6,0.7-0.9,1
		c0.1,0.4,0.1,0.8,0.3,1.2C205,276.9,208,284.3,211,291.7z"/>
	<path style="fill:#ACB3BA;" d="M220.5,170c-0.6-4,2.7-1,4.1-3.1c-0.5-0.7-1.1-2.3-1.9-2.3c-1.4-0.2-3.4-2-4.5,0.5
		C217.4,167,217.7,168.7,220.5,170z"/>
	<path style="fill:#ACB3BA;" d="M197.2,184.5c0.3,0.2,1.4-0.6,1.8-1.2c0.2-0.3-0.4-1.2-0.8-1.7c-0.3-0.3-0.8-0.4-1.3-0.5
		c0-0.3,0-0.6,0-0.9c3.4-0.4,6.8-0.9,10.2-1.3c0.1-0.3,0.1-0.6,0.2-1c-0.9-0.3-1.8-1-2.8-1c-1.3,0-2.6,0.7-3.8,0.5
		c-0.9-0.1-2.5-1.3-2.4-1.6c0.7-2.8,0.6-6.2,4.4-7.4c1.5-0.5,2.7-1.9,4-3c-0.2-0.5-0.4-1-0.6-1.5c-1.2,0.2-2.6,0.2-3.6,0.8
		c-1.7,0.9-3.2,2.2-4.7,3.3s-4.2,2.4-4.1,3.4c0.4,4.9-3.6,6.8-5.7,10c-1.1,1.7-2.2,2.8-4.2,3.1c-2,0.4-3.9,1.1-6.1,1.8
		c2.1,3.1,4.1,4.3,7,2.7c0.5-0.3,1.3-0.3,1.9-0.1c4.1,1.4,4.2,1.4,6.2-2.6C193.7,184.9,194.5,182.8,197.2,184.5z"/>
	<path style="fill:#ACB3BA;" d="M223,227.6c-1.9-1.5-3.9-3-5.8-4.6c-2.5-2.2-5.1-3.6-8.5-2.1c-2.1,0.9-2.5-0.6-2.9-2.3
		c-0.3-1-0.9-2.3-1.7-2.7c-0.8-0.3-2.4,0.1-3,0.7c-2.2,2.3-4.2,4.7-6.1,7.3c-1.6,2.2-0.8,4.9,1.9,5.5c1.6,0.4,3.7,0.6,5.1-0.1
		c4.2-2,7.6-1,11.2,1.6C217.2,233.8,220.6,232.6,223,227.6z"/>
	<path style="fill:#ACB3BA;" d="M100.6,295.5c-3-10.6-5-21.6-5.7-33C93.6,274.1,96,285.1,100.6,295.5z"/>
</g>
<path style="fill:#54C0EB;" d="M215.2,393.1c-0.7-1.8-0.3-2.8,1.3-3.7c2.9-1.7,5.7-3.7,8.6-5.3c2.2-1.2,2.6-2.7,1.8-4.9
	c-1.9-5.5-3.6-11.2-5.9-16.6c-1-2.2-0.5-3.5,0.9-4.9c3.2-3.4,6.4-6.9,9.9-10c7.7-6.8,13.6-14.8,17.5-24.3c0.8-1.8,1.3-3.7,1.5-5.7
	s-0.5-3.5-3.1-2.7c-3.6,1.1-7.2,1.9-10.7,3c-5.5,1.6-7.1,0.6-8.2-5.1c1-0.1,2.2,0.1,3.1-0.3c13.9-6.6,29.1-11.2,37-26.2
	c1.8-3.3,1.7-6-1.7-7.2c-3.4-1.2-6.6-2.3-6.8-7.1c-1,0.9-1.5,1.2-1.7,1.7c-4.1,7.6-11.6,6.6-16.2-0.1c-1.8-2.6-4-4.9-5.7-7.5
	c-0.4-0.6-0.1-2.5,0.3-2.7c2.2-0.8,4.6-1.7,6.7,0.3c1.7,1.6,3.3,3.2,4.9,4.9c2.1,2.1,4.5,3.6,7.6,2.9c1.4-0.3,2.8-1.1,4.2-1.7
	c-0.1,0.3-0.1,0.6-0.2,1c2.1,0.8,4.2,2.3,6.3,2.3c4.6-0.2,9.1-1,13.6-2c4.8-1.1,12,1.8,14.6,6.1c1.3,2.2,3.2,3.2,5.8,1.9
	c0.9-0.5,1.9-1,3-1.6c0.4,1.1,0.7,2,1,2.9c3.6,9.3,7.8,18.3,14.3,26c1,1.2,3.6,2.8,4.1,2.4c1.6-1.2,2.7-3.1,3.6-5
	c2-4,0.5-8.1-0.4-12.1c-0.8-3.4-0.1-6.2,2.7-8.9c4.9-7.9,6.2-17.9,14.5-23.7c1.6-1.1,2.6-1.7,4.1-0.2c3.5,3.5,7.1,7,11.1,10.9
	c0.9-1.1,2.1-2.6,3.8-4.7c1.4,2.5,3,4.6,3.9,7c1.2,3.1,1.8,6.5,2.8,9.7c0.6,2,0.9,4.3,3.9,4.5c0.6,0,1.2,1.3,1.7,2.1
	c1.3,2.3,2.4,4.6,3.8,6.8c1.2,1.9,3.1,1.4,4-0.1c0.6-1,0.8-3.1,0.2-4c-2.5-3.9-5.4-7.4-8-11.2c-2.1-3-4-6.2-3.3-10.8
	c4.1,1.6,7.8,3,12,4.7c0.9-2.6,2.3-5.7,2.9-8.9c1.3-6.7-0.8-11.2-6.1-14.3c-5.5-3.3-6.4-5.5-4.4-11.6c0.3-0.9,1.4-1.6,2.1-2.5
	c0.5,1,1.2,1.9,1.4,2.9c0.3,1.5,0.3,3.1,0.5,5.1c2.9-1.8,2.5-4,1.5-5.4c-1.9-2.6-1.3-4.9-0.2-7.4c5.6-12.1,3.5-24.1-4.1-35.5
	c-5-4-9.9-5.7-9.8-11.5c0-0.8-0.6-1.7-1-2.9c-0.8,1.2-1.1,2.3-1.7,2.5c-1.1,0.3-3.2,0.4-3.4,0.1c-0.8-2.4-1.2-5-1.7-7.5
	c0.3-0.1,0.6-0.1,0.9-0.2c0.7,0.7,1.4,1.5,1.7,1.8c1-1.2,2.3-3.3,2.6-3.2c2.3,1,4.4,2.5,6.4,3.9c1,0.7,1.7,1.8,2.7,2.9
	c1.2-4.1-0.6-6.8-3.7-8.1c-4.7-1.8-6.6-5.8-8.9-9.5c-0.7-1.1-1.6-2.5-1.4-3.6c1-5.5-2.6-8.8-5.8-12.1c-3.5-3.6-7.4-6.9-11.1-10.3
	c-0.5-0.4-0.8-1-1.2-1.5c0.2-0.2,0.3-0.3,0.5-0.5c1.8,1,3.6,2.1,6.2,3.6c-3.2-4.8-7.8-5-11.3-7.1c-1.6,1.7-3,3.1-3.8,3.9
	c-3-2.6-5.9-4.9-8.4-7.5c-1.6-1.7-2.7-3.8-3.6-6c-1.3-3.3-2.1-6.7-6.4-7.7c-2.3-0.5-4.2-2.3-3.9-5.5c8.8,4.4,17.4,8.7,26,13
	c0.2-0.3,0.3-0.6,0.5-1c-5.9-3.1-11.8-6.3-17.8-9.4c-3.3-1.7-6.9-2.7-10-4.6c-6-3.7-11.9-7.4-19.3-7.7c-2.6-0.8-4.9-2-7.4-3.2
	c-1.1-0.2-2.2-0.4-3.2-0.6c1.3,5.7,6.2,7.7,8.8,10.6c-0.3,2.1-0.5,3.5-0.7,5.3c-0.4,0.3-1.4,1-2.4,1.6c-1,0.7-2.1,1.4-3.2,2.1
	c5.2,0.9,6.7,2.7,5.5,6.5c-6.9-0.3-6.9-0.3-6.4,3c-2.8,3.2-5.8,3-9.1,0.8c-0.9-0.6-3-1-3.3-0.6c-2.1,2.7-4.2,0.4-6.3,0.3
	c-0.9,0-1.8,0.3-2.8,0.4c1,0.4,2,0.8,3,1.2c2.1,0.7,2,1.9,0.9,3.8c-2.2,3.6-4.5,7.4-3.2,11.5c-0.9,1.1-1.8,2-2.6,3
	c-0.1,0-0.6-0.2-1.1-0.3c-0.2,0.2-0.4,0.4-0.6,0.6c1.5,2,3,4.1,4.6,6c1.9,2.3,1.9,3.6-0.3,5.7c-0.2-6-4.6-9.4-7.6-14.3
	c-2.8,4.9-1.2,8,2.9,11.2c-4.1-0.8-7.3-1.4-10.9-2.2c0.6,1.3,0.9,1.9,1,2.1c-4.9,2.3-9.6,4.5-14.3,6.6c-0.3-1.2-0.6-2.3-0.8-3.4
	c-0.4,0.1-0.7,0.1-1.1,0.2c-0.1,1.7-0.2,3.4-0.4,6.1c-1.5-1.1-2.6-1.7-3.3-2.5c-1.4-1.5-2.6-3.2-4.1-4.7c-1.4-1.4-3-2.9-4.7-3.8
	c-2-1-4.4-2.1-6.4-1.9c-3.4,0.4-6.7,1.8-10,2.7c-0.7,0.2-2,0.6-2,0.9c-0.1,2.7-2.5,2.7-4.1,3.6c-5.9,3.5-12,6.8-17.7,10.5
	c-1.3,0.8-2.5,3.4-2.1,4.8c0.5,2.2,2.9,1.6,4.8,1.1c0.6-0.1,2.1,0.4,2,0.6c-0.1,1.9-0.3,3.8-0.7,5.6c-0.1,0.5-1.1,1-1.7,1.1
	c-0.3,0-1-0.8-1.1-1.4c-0.2-0.7,0-1.5,0.1-2.3c-1.7,1.5-2.5,3.4-3.7,5c-0.9,1.1-2.4,2.8-3.3,2.6c-4.1-0.8-7.5,0.9-10.9,2.6
	c-3.3,1.5-6.7,2.7-10.1,4.1c-0.7-0.7-1.5-1.6-2.3-2.4c-0.3,0.1-0.6,0.3-0.9,0.4c0.2,2.2,0.2,4.4,2,6.3c-4.8,7.9-5.8,9.7-9.7,6
	c-1-0.9-1.8-2-2.9-2.6c-0.8-0.4-2.3-0.4-2.8,0.1c-2.3,2.3-4.6,4.7-6.6,7.3c-3.3,4.4-1.2,10.7,4,12.6c3.1,1.2,6.2,0.8,8.8-1
	c3.2-2.2,5.9-5.1,8.9-7.6c0.9-0.7,2.1-1.4,3.2-1.5c1.7-0.1,3.5,0.2,5.3,0.4c0.1-0.3,0.3-0.7,0.4-1c5.2,4.5,8.6,10.1,10.8,16.6
	c1,2.8-0.4,4.2-3.5,4.4c-1.1,0-2.2,0-4.3,0c1.7,2.1,2.7,3.3,3.9,4.8c3-3.2,5.6-6,9-9.5c-2.1-3-4.6-6.5-7-10c-0.5-0.7-1-1.9-0.7-2.5
	c0.5-1,1.5-1.8,2.6-2.2c0.4-0.2,1.6,0.9,2,1.6c0.9,1.4,1.3,3.1,2.3,4.3c0.9,1.2,2.3,2.6,3.6,2.7c2.3,0.2,2.2,0.7,1.9,2.8
	c-0.6,4.1-0.8,8.4-0.7,12.6c0.1,1.4,1.6,2.8,2.6,4.3c2.5-2,2.5-2,3-9.7c0.7-0.1,1.6,0.1,2.1-0.3c3.2-2.4,3.6,0.2,4.3,2.3
	c0.3,0.9,0.1,1.9,0,2.9c-0.3,2.8,1.5,7.3,3.5,7.7c4,0.7,8,0.9,12,1.2c0.7,0.1,1.5-0.4,2.2-0.5c0.6-0.1,1.3,0,2,0
	c0.9,3.9,2.5,7.7-1.9,10.6c-0.8,0.6-1.3,1.8-1.7,2.8c-0.7,1.6-1.6,1.9-3.4,1.4c-2.1-0.6-4.4-0.6-6.6-0.8c-2.1-0.2-4.4,0.2-6.2-0.6
	c-3.8-1.7-7.2-4.1-11-5.9c-3.2-1.6-5.1-1.6-6.5,2.1c-1,2.8-2.7,2.8-4.7,0.9c-1.6-1.6-3.1-3.4-4.7-5c-1.4-1.4-2.7-2.9-4.4-3.9
	c-4.9-3.1-5-3.2-2.7-8.4c1.4-3.3,1.1-5.3-1.4-6c-5.8-1.7-11.7-3.1-17.5-4.7c-2.6-0.7-5.2-1.6-7.8-2.2c-0.8-0.2-2-0.3-2.7,0.1
	c-8.5,4.7-16.8,10-23.2,17.5c-1.7,1.9-2.8,4.4-3.7,6.8c-1,2.6-1.6,5.4-2.4,8.1c-0.5,1.6-1.4,3-1.6,4.6c0,0.3,0,0.6-0.1,1
	c0.7,11.4,2.7,22.4,5.7,33c0.8,1.7,1.6,3.4,2.5,5.1c0.7,1.3,2,2.2,3.2,3.1c1.9,1.3,4.2,2.1,5.8,3.5c2.4,2.1,5.1,2.9,8.1,2.5
	c5.4-0.7,8.2,2.4,10.2,8.7c6.2,1.1,10.3,5.3,8.6,10.9c-1.2,3.8-0.5,7.1,1.8,10.2c2.2,3.1,4.4,6.3,6.6,9.4c3.7,5.2,5.6,10.8,4.8,17.2
	c-0.4,3.2,0,6.5,1.9,9.3c16.9,13.4,36.6,23.5,58.2,29.1C215.6,401.7,216.8,397.6,215.2,393.1z M322.8,171.1c-1-3.6-2-7.3-3.1-11.1
	C324.2,162.5,325.7,167.8,322.8,171.1z M270.3,222.2c0.1-0.9,1-1.8,1.5-2.7c0.5,1,1,1.9,1.1,2.2c-0.2,4.2-2.2,6.1-5.6,5.7
	c-0.7-0.1-1.4-0.7-2.1-1.1c0.6-0.6,1.1-1.6,1.8-1.7C268.7,224.4,270,224.2,270.3,222.2z M265.3,211.4c0.7,0.1,1.4,0.9,2.1,1.4
	c-0.6,0.5-1.2,1.3-1.8,1.4c-2.1,0.1-3.1,0.9-3.3,3.1c-0.1,1.1-1.5,2.1-2.6,3.5C257.7,215.1,260.6,210.9,265.3,211.4z M234.3,219.9
	c1.4-3.4,7.1-6.1,10.8-5.2c2.1,4.4-4.1,3.9-4,8c2.8,2,6.2,4.6,9.6,7c-4.2,1.3-4.3,3-1.9,6c1,1.3,1.6,4.1,0.9,5.5
	c-1,2.1-5.6,2.1-8.1,0.3c-2.1-1.4-4-3.3-2.3-6s0.7-4-1.1-6s-2.9-4.8-4.1-7.3C233.8,221.7,234,220.6,234.3,219.9z M147.8,315.6
	c0,0.4-0.8,0.8-1.2,1.2c-0.5-0.8-1.1-1.6-1.3-1.9c0.1-4.1,2.4-6.1,5.9-5.6c0.6,0.1,1.2,0.7,1.7,1.1c-0.5,0.6-1,1.7-1.5,1.7
	C149.1,312.2,147.8,313.1,147.8,315.6z M152.7,325.5c-0.2-0.2-1-0.7-1.8-1.2c0.7-0.6,1.4-1.6,2.1-1.7c2.1-0.2,2.8-1.2,2.9-3.2
	c0.1-0.7,0.8-1.3,1.2-1.9c0.4,0.7,1.2,1.5,1.3,2.2C158.8,323.4,157,325.4,152.7,325.5z M218.2,165.1c1.1-2.6,3.1-0.7,4.5-0.5
	c0.8,0.1,1.4,1.7,1.9,2.3c-1.4,2.1-4.7-1-4.1,3.1C217.7,168.7,217.4,167,218.2,165.1z M215.5,214.6c1,4.1-0.5,4.9-5.5,2.9
	C211.8,216.6,213.6,215.6,215.5,214.6z M186.7,189.2c-0.6-0.2-1.4-0.2-1.9,0.1c-2.9,1.6-4.9,0.4-7-2.7c3.2-1,5.9-2.1,9.1-2
	c0.8-5.3,7.3-6.7,6.8-12.9c-0.1-1,2.6-2.3,4.1-3.4c1.5-1.2,3-2.4,4.7-3.3c1.1-0.6,2.4-0.6,3.6-0.8c0.2,0.5,0.4,1,0.6,1.5
	c-1.3,1-2.5,2.5-4,3c-3.8,1.2-3.7,4.5-4.4,7.4c-0.1,0.3,1.5,1.5,2.4,1.6c1.2,0.1,2.6-0.6,3.8-0.5c0.9,0,1.9,0.6,2.8,1
	c-0.1,0.3-0.1,0.6-0.2,1c-3.4,0.4-6.8,0.9-10.2,1.3c0,0.3,0,0.6,0,0.9c0.4,0.2,1,0.2,1.3,0.5c0.4,0.5,1,1.4,0.8,1.7
	c-0.4,0.6-1.5,1.4-1.8,1.2c-2.7-1.7-3.4,0.4-4.3,2.2C190.8,190.6,190.8,190.7,186.7,189.2z M202,229.4c-1.4,0.7-3.5,0.5-5.1,0.1
	c-2.7-0.7-3.5-3.4-1.9-5.5c1.9-2.5,3.9-5,6.1-7.3c0.6-0.6,2.2-1.1,3-0.7c0.8,0.4,1.4,1.7,1.7,2.7c0.4,1.6,0.9,3.2,2.9,2.3
	c3.5-1.6,6-0.1,8.5,2.1c1.9,1.6,3.9,3.1,5.8,4.6c-2.4,4.9-5.8,6.2-9.8,3.3C209.6,228.4,206.2,227.4,202,229.4z M202.7,267.3
	c1.8,1.6,4,2.9,5.4,4.9c3.1,4.5,5.9,9.2,8.7,13.9c2.6,4.3,5.2,8.6,7.3,13.1c1.7,3.7,2.5,7.7,3.7,11.6c-0.2,0.2-0.4,0.3-0.7,0.5
	c-1.1-0.8-2.1-1.7-3.2-2.4c-6.5-4.1-10.1-10.3-12.9-17.2c-2.9-7.4-5.9-14.8-8.9-22.2c-0.2-0.4-0.2-0.8-0.3-1.2
	C202.1,268,202.4,267.7,202.7,267.3z M201.2,353.2c-0.1,0.1-2.1-1.6-2.8-2.1c0.1-3.6,1.4-5.2,4-5.2c1.1,0,2.1,1.3,3.1,2
	C204,349.8,202.7,351.6,201.2,353.2z M209.9,378.6c-0.8-2.4-1.5-4.9-2.3-7.3c0.5-0.2,0.9-0.3,1.4-0.5c0.7,2.5,1.3,4.9,2,7.4
	C210.6,378.4,210.3,378.5,209.9,378.6z"/>
<g>
	<path style="fill:#ACB3BA;" d="M259.9,127.1h0.1c-0.1,0-0.1-0.1-0.2-0.1L259.9,127.1z"/>
	<path style="fill:#ACB3BA;" d="M208.8,111.1c-2.9-1.5-5.8-2.9-9.1-4.5c4.4-2.3,8.5-5.5,14-2.7c-1.1,0-2.2-0.2-3.1,0.1
		c-0.7,0.2-1.3,1-1.5,2.2c1.4-0.4,2.8-1.2,4.2-1.1c1.5,0,4.2,0.8,4.2,1.3c0.1,1.7-0.3,4-1.4,5.1c-1.4,1.3-3.7,1.5-5.9,2.2
		c1.5,1.5,3.2,3.4,5.2,5.5c-0.8,0.7-1.7,1.4-2.6,2.1c-0.3,0.2-0.8,0.3-0.8,0.5c-0.7,5.2-5.5,3-8.2,4.4c-3.6,1.8-7.3,3.3-10.9,5
		c-0.1,0-0.1,0.2-0.2,0.3c-5,2-9.9,4-14.9,5.9c-0.9,0.3-2.2-0.1-3.2-0.4c-3.6-0.9-7.2-2.3-10.9-2.7c-2.1-0.2-4.4,0.9-6.5,1.6
		c-2.1,0.6-4,1.5-6.9,2.6c1.7-2.3,2.6-4.3,4.1-5.3c5.5-3.5,10.9-7.4,17-9.6c3.6-1.3,6.4-3.9,10.3-4.4c3.7-0.5,7.4-1.7,11-2.9
		c1.3-0.4,2.5-1.4,3.4-2.4c2.8-3.3,5.3-3.7,9.2-1.4c0.7,0.4,2,0,3-0.1C208.5,111.9,208.6,111.5,208.8,111.1z"/>
	<path style="fill:#ACB3BA;" d="M251,375.6c2.3,2.7,3.6,5.2,2.2,8.7c-1.3,3.3-1.8,6.9-3,10.3c-1.5,4.4-4.2,6.2-8,5.7
		c-3.7-0.5-5.4-4-4.1-7.5c0.6-1.4-0.2-3.2,0-4.9c0.1-1.2,0.5-3.3,1-3.3c5.2-0.8,8.2-4.2,10.9-8.2C250.1,376.3,250.5,376.1,251,375.6
		z"/>
	<path style="fill:#ACB3BA;" d="M381.7,312.2c-3.7,1.5-6.4,0-8.4-2.8c-3.1-4.1-6.6-7.8-11.4-10c-2.3-1.1-1.7-2.8,0.3-3.4
		c1.6-0.5,3.5-0.1,5.3,0.1c2.1,0.3,4.2,0.7,6.2,1.3c1.5,0.4,3.7,0.9,4,1.9c1,3.1,2.3,4,5.6,1.6c-0.6,3.9-1.1,7.1-1.8,11.4
		c3.5-2.5,6.1-4.4,8.7-6.2c1.7-1.2,3.4-2.3,5.1-3.4c0.3,0.4,0.6,0.9,0.9,1.3c-3.9,3.2-7.7,6.4-11.6,9.5
		C383.2,314.7,382,314.6,381.7,312.2z"/>
	<path style="fill:#ACB3BA;" d="M401.1,261.7c0.6,1.1,1.6,2.3,1.6,3.4c0,3.2-0.4,6.3,1.1,9.5c0.9,1.9-0.3,4.9-0.6,7.4
		c-0.1,1.2-0.6,2.4-0.4,3.6c1,6-3.5,8.5-7.1,11.7c-4-4.4-4.1-7.4-1-12.5c1.1-1.9,0.9-4.5,1.9-6.5c2.6-5.1,3.3-10.5,3.2-16.1
		C400.3,261.9,400.7,261.8,401.1,261.7z"/>
	<path style="fill:#ACB3BA;" d="M157.3,175.6c1.5-5.1,3.4-6.6,8.5-6.6c-2.2,5.2-6.6,9.6-5.1,16.1c0.5,2-2.6,4.8-4.7,4.5
		c-0.6-0.1-1.3-0.2-1.9-0.5c-1.3-0.5-2.6-1.1-3.9-1.7c1.4-1.9,2.6-3.8,3.9-5.5c0.3-0.4,0.5-1,0.8-1
		C159.2,180.6,157.8,177.9,157.3,175.6L157.3,175.6z"/>
	<path style="fill:#ACB3BA;" d="M400.5,237.1c-0.2,1.4-0.5,2.6-0.8,4.5c-3.2-5.1-5.9-9.7-5.5-15.3c0.4-0.1,0.8-0.3,1.3-0.4
		c0.5,1.7,1,3.5,1.6,5.2c0.6,1.6,0.1,4.5,3.6,3.2c0.6-0.2,2.6,1.5,3,2.6c1.6,4.9,5.4,9.2,3.6,15c-0.3-0.3-0.8-0.8-1.4-1.5
		c-0.4,0.8-0.8,1.5-1.5,2.8c0.6-3.7,1.2-6.8,1.7-9.8c-0.3-0.1-0.6-0.2-0.9-0.2c-0.4,1-0.9,2-1.6,3.5c-0.6-2.2-4-3.6-0.4-5.8
		c0.2-0.1-0.2-1.6-0.6-2.3C402.2,238,401.4,237.7,400.5,237.1z"/>
	<path style="fill:#ACB3BA;" d="M361.3,151.8c1,0.3,2.2,0.3,3,0.8c7.9,5.1,13.1,11.8,14,21.6c0.3,3.5,2.1,6.9,3.2,10.2
		c-4.7-3-5.7-8.1-6.3-13.5c-0.1-0.6,0-1.4-0.3-1.9C371.8,162.1,368.6,155.3,361.3,151.8L361.3,151.8z"/>
	<path style="fill:#ACB3BA;" d="M247,138.1c-2.6,4.6-9.6,7.8-5.1,15.3c-1.4-0.6-3.1-0.8-4-1.8c-0.5-0.6,0.1-2.3,0.3-3.5
		c0.1-0.6,0.6-1.2,0.7-1.8C239.6,141.9,243.1,139.9,247,138.1z"/>
	<path style="fill:#ACB3BA;" d="M168.1,144.5c1.5,1,3,2,4.7,3.1c-0.6,2.7-2.9,3.4-5.6,3c-0.9-0.1-2.6-1.6-2.5-1.7
		c1-2.2,2.3-4.2,3.6-6.3C168.2,143.2,168.1,143.8,168.1,144.5z"/>
	<path style="fill:#ACB3BA;" d="M329.6,302.7c1.3,1.1,3.1,2,3.7,3.4s0.3,3.3-0.1,4.9c-0.2,0.6-1.8,1.3-2.6,1.2
		c-0.6-0.1-1.5-1.3-1.6-2.2c-0.4-2.3-0.5-4.7-0.7-7C328.8,302.9,329.2,302.8,329.6,302.7z"/>
	<path style="fill:#ACB3BA;" d="M157.3,175.6L157.3,175.6c-1.4,1.3-2.9,2.5-4.1,4c-1.9,2.2-3.9,2.3-7,0.5c3.3-1.2,3.6-4.9,7.3-5.6
		C155.4,174,156.3,174.4,157.3,175.6z"/>
	<path style="fill:#ACB3BA;" d="M223.3,132.7c-1.7,0.8-3,1.4-4.3,2c-0.1,0.8-0.3,1.9-0.5,2.9c-0.2,0-0.4,0.1-0.6,0.1
		c-0.2-0.6-0.4-1.3-0.7-2.2c-1.4,0.9-2.7,1.8-4,2.7C212.7,132.3,216.4,130.1,223.3,132.7z"/>
	<path style="fill:#ACB3BA;" d="M154,224.9c1.5-2.9,3.1-5.8,4.6-8.7c0.4,0.2,0.8,0.4,1.2,0.7c-3.1,2.2-0.7,7.1-4.6,8.8
		C154.9,225.4,154.5,225.2,154,224.9z"/>
	<path style="fill:#ACB3BA;" d="M361.3,151.7c-0.8-1.1-1.6-2.3-2.5-3.4c-0.8-1-1.9-1.8-2.9-2.8c0.7-0.5,1.5-1.1,2.3-1.7
		C360.5,146.1,362.5,148.3,361.3,151.7C361.3,151.8,361.3,151.7,361.3,151.7z"/>
	<path style="fill:#ACB3BA;" d="M259.8,127c-2.4,2.3-5.1,1.8-7.1-1.8c2.7,0.7,4.9,1.3,7.2,1.9C259.9,127.1,259.8,127,259.8,127z"/>
	<path style="fill:#ACB3BA;" d="M386.9,211.4c0.8,2,1.6,4,2.4,6c-0.4,0.2-0.9,0.3-1.3,0.5c-0.8-2-1.5-4.1-2.3-6.1
		C386.1,211.7,386.5,211.6,386.9,211.4z"/>
</g>
<g>
	<path style="fill:#FFFFFF;" d="M202.7,267.3c1.8,1.6,4,2.9,5.4,4.9c3.1,4.5,5.9,9.2,8.7,13.9c2.6,4.3,5.2,8.6,7.3,13.1
		c1.7,3.7,2.5,7.7,3.7,11.6c-0.2,0.2-0.4,0.3-0.7,0.5c-1.1-0.8-2.1-1.7-3.2-2.4c-6.5-4.1-10.1-10.3-12.9-17.2
		c-2.9-7.4-5.9-14.8-8.9-22.2c-0.2-0.4-0.2-0.8-0.3-1.2C202.1,268,202.4,267.7,202.7,267.3z"/>
	<path style="fill:#FFFFFF;" d="M223,227.6c-2.4,4.9-5.8,6.2-9.8,3.3c-3.6-2.6-7-3.6-11.2-1.6c-1.4,0.7-3.5,0.5-5.1,0.1
		c-2.7-0.7-3.5-3.4-1.9-5.5c1.9-2.5,3.9-5,6.1-7.3c0.6-0.7,2.2-1.1,3-0.7c0.8,0.4,1.4,1.7,1.7,2.7c0.4,1.6,0.9,3.2,2.9,2.3
		c3.5-1.6,6-0.1,8.5,2.1C219.1,224.7,221.1,226.1,223,227.6z"/>
	<path style="fill:#FFFFFF;" d="M245.1,214.7c2.1,4.4-4.1,3.9-4,8c2.7,2,6,4.4,9.2,6.7c0,0.1-0.1,0.4-0.2,0.5
		c-3.6,1.3-3.6,3-1.3,5.8c1,1.3,1.6,4.1,0.9,5.5c-1,2.1-5.6,2.1-8.1,0.3c-2.1-1.4-4-3.3-2.3-6s0.7-4-1.1-6s-2.9-4.8-4.1-7.3
		c-0.3-0.7-0.1-1.8,0.2-2.5C235.7,216.5,241.4,213.8,245.1,214.7z"/>
	<path style="fill:#FFFFFF;" d="M206.6,165.5c-1.3,1-2.5,2.5-4,3c-3.8,1.2-3.7,4.5-4.4,7.3c-0.1,0.3,1.5,1.5,2.4,1.6
		c1.2,0.1,2.6-0.6,3.8-0.5c0.9,0,1.9,0.6,2.8,1c-0.1,0.3-0.1,0.6-0.2,1c-3.4,0.4-6.8,0.9-10.2,1.3c0,0.3,0,0.6,0,0.9
		c0.4,0.2,1,0.2,1.3,0.5c0.4,0.5,1,1.4,0.8,1.7c-0.4,0.6-1.5,1.4-1.8,1.2c-2.7-1.7-3.4,0.4-4.3,2.2c-2,4-2.1,4-6.2,2.6
		c-0.6-0.2-1.4-0.2-1.9,0.1c-2.9,1.6-4.9,0.4-7-2.7c2.2-0.6,4.1-1.4,6.1-1.8c2-0.4,3.1-1.4,4.2-3.1c2.1-3.2,6.1-5.1,5.7-10
		c-0.1-1,2.6-2.3,4.1-3.4c1.5-1.2,3-2.4,4.7-3.3c1.1-0.6,2.4-0.6,3.6-0.8C206.3,164.6,206.5,165,206.6,165.5z"/>
	<path style="fill:#FFFFFF;" d="M259.6,220.9c-1.9-5.8,1-10,5.7-9.4c0.7,0.1,1.4,0.9,2.1,1.4c-0.6,0.5-1.2,1.3-1.8,1.4
		c-2.1,0.1-3.1,0.9-3.3,3.1C262,218.5,260.7,219.4,259.6,220.9z"/>
	<path style="fill:#FFFFFF;" d="M198.3,351.1c0.1-3.6,1.4-5.2,4-5.2c1.1,0,2.1,1.3,3.1,2c-1.4,1.8-2.7,3.6-4.3,5.2
		C201,353.3,199,351.6,198.3,351.1z"/>
	<path style="fill:#FFFFFF;" d="M152.7,325.5c-0.2-0.2-1-0.7-1.8-1.2c0.7-0.6,1.4-1.6,2.1-1.7c2.1-0.2,2.8-1.2,2.9-3.2
		c0.1-0.7,0.8-1.3,1.2-1.9c0.4,0.7,1.2,1.5,1.3,2.2C158.8,323.4,157,325.4,152.7,325.5z"/>
	<path style="fill:#FFFFFF;" d="M272.9,221.8c-0.2,4.2-2.2,6.1-5.6,5.7c-0.7-0.1-1.4-0.7-2.1-1.1c0.6-0.6,1.1-1.6,1.8-1.7
		c1.6-0.3,2.9-0.4,3.2-2.5c0.1-0.9,1-1.8,1.5-2.7C272.3,220.5,272.8,221.5,272.9,221.8z"/>
	<path style="fill:#FFFFFF;" d="M145.3,314.9c0.1-4.1,2.4-6.1,5.9-5.6c0.6,0.1,1.2,0.7,1.7,1.1c-0.5,0.6-1,1.7-1.5,1.7
		c-2.4,0.1-3.6,1-3.7,3.5c0,0.4-0.8,0.8-1.2,1.2C146,316,145.5,315.2,145.3,314.9z"/>
	<path style="fill:#FFFFFF;" d="M220.5,170c-2.8-1.3-3.1-3-2.3-4.9c1.1-2.6,3.1-0.7,4.5-0.5c0.8,0.1,1.4,1.7,1.9,2.3
		C223.2,169,219.9,165.9,220.5,170z"/>
	<path style="fill:#FFFFFF;" d="M319.7,160c4.5,2.5,5.9,7.8,3.1,11.1C321.8,167.5,320.8,163.8,319.7,160z"/>
</g>
<path style="fill:#ACB3BA;" d="M210,217.5c1.8-0.9,3.6-1.9,5.5-2.9C216.5,218.7,215,219.6,210,217.5z"/>
<path style="fill:#FFFFFF;" d="M209,370.8c0.7,2.5,1.3,4.9,2,7.4c-0.4,0.1-0.7,0.2-1.1,0.4c-0.8-2.4-1.5-4.9-2.3-7.3
	C208,371.1,208.5,371,209,370.8z"/>
<path style="fill:#F1543F;" d="M202,153.3c0,32.5-53.8,86.5-53.8,86.5s-53.8-54-53.8-86.5s24.1-58.8,53.8-58.8S202,120.8,202,153.3z
	"/>
<circle style="fill:#FFFFFF;" cx="148.3" cy="147.6" r="33.2"/>
<g>
</g>
<g>
</g>
<g>
</g>
<g>
</g>
<g>
</g>
<g>
</g>
<g>
</g>
<g>
</g>
<g>
</g>
<g>
</g>
<g>
</g>
<g>
</g>
<g>
</g>
<g>
</g>
<g>
</g>
</svg>
