<?xml version="1.0" encoding="iso-8859-1"?>
<!-- Generator: Adobe Illustrator 19.0.0, SVG Export Plug-In . SVG Version: 6.00 Build 0)  -->
<svg version="1.1" id="Layer_1" xmlns="http://www.w3.org/2000/svg" xmlns:xlink="http://www.w3.org/1999/xlink" x="0px" y="0px"
	 viewBox="0 0 504 504" style="enable-background:new 0 0 504 504;" xml:space="preserve">
<circle style="fill:#FF7058;" cx="252" cy="252" r="252"/>
<path style="fill:#324A5E;" d="M397.1,94.5H106.9c-6.8,0-12.4,5.5-12.4,12.4v205.2v35.3c0,6.8,5.5,12.4,12.4,12.4h290.2
	c6.8,0,12.4-5.5,12.4-12.4v-35.3V106.9C409.5,100,404,94.5,397.1,94.5z"/>
<path style="fill:#2B3B4E;" d="M331.6,409.5H172.4c-4.1,0-6.7-4.3-4.8-7.9l21.9-41.8h125l21.9,41.8
	C338.3,405.2,335.6,409.5,331.6,409.5z"/>
<rect x="110.3" y="110.3" style="fill:#E6E9EE;" width="283.5" height="201.9"/>
<circle style="fill:#FFFFFF;" cx="252" cy="335.9" r="14"/>
<rect x="230.626" y="124.851" transform="matrix(-0.7071 0.7071 -0.7071 -0.7071 579.6622 182.2967)" style="fill:#FFD05B;" width="42.9" height="172.698"/>
<g>
	
		<rect x="182.625" y="164.508" transform="matrix(-0.7071 0.7071 -0.7071 -0.7071 445.1377 153.0334)" style="fill:#F9B54C;" width="16.5" height="8.4"/>
	
		<rect x="194.487" y="174.927" transform="matrix(-0.7071 0.7071 -0.7071 -0.7071 478.816 159.9217)" style="fill:#F9B54C;" width="23.6" height="8.4"/>
	
		<rect x="208.522" y="190.418" transform="matrix(-0.7071 0.7071 -0.7071 -0.7071 507.6691 178.952)" style="fill:#F9B54C;" width="16.5" height="8.4"/>
	
		<rect x="220.381" y="200.837" transform="matrix(-0.7071 0.7071 -0.7071 -0.7071 541.3406 185.8432)" style="fill:#F9B54C;" width="23.6" height="8.4"/>
	
		<rect x="234.42" y="216.328" transform="matrix(-0.7071 0.7071 -0.7071 -0.7071 570.2005 204.8707)" style="fill:#F9B54C;" width="16.5" height="8.4"/>
	
		<rect x="246.279" y="226.747" transform="matrix(-0.7071 0.7071 -0.7071 -0.7071 603.8719 211.7618)" style="fill:#F9B54C;" width="23.6" height="8.4"/>
	
		<rect x="260.308" y="242.238" transform="matrix(-0.7071 0.7071 -0.7071 -0.7071 632.7148 230.7964)" style="fill:#F9B54C;" width="16.5" height="8.4"/>
	
		<rect x="272.308" y="252.667" transform="matrix(-0.7071 0.7071 -0.7071 -0.7071 666.6348 237.6046)" style="fill:#F9B54C;" width="23.6" height="8.4"/>
	
		<rect x="286.276" y="268.087" transform="matrix(-0.7071 0.7071 -0.7071 -0.7071 695.324 256.5614)" style="fill:#F9B54C;" width="16.5" height="8.4"/>
</g>
<rect x="228.882" y="142.681" transform="matrix(0.7071 0.7071 -0.7071 0.7071 216.5718 -109.3901)" style="fill:#F1543F;" width="22.9" height="128.099"/>
<rect x="245.011" y="158.83" transform="matrix(0.7071 0.7071 -0.7071 0.7071 232.7152 -116.0652)" style="fill:#FF7058;" width="22.9" height="128.099"/>
<path style="fill:#4CDBC4;" d="M186.9,243.9l-8.6,8.6c-3.3,3.3-3.3,8.7,0,12l20.4,20.4c3.3,3.3,8.7,3.3,12,0l8.6-8.6L186.9,243.9z"
	/>
<g>
	
		<rect x="186.333" y="245.155" transform="matrix(-0.7071 -0.7071 0.7071 -0.7071 177.68 581.3071)" style="fill:#324A5E;" width="45.8" height="17.4"/>
	<polygon style="fill:#324A5E;" points="328.2,135 312.2,140.8 322.4,151 	"/>
</g>
<polygon style="fill:#FFFFFF;" points="309.9,185.7 322.4,151 312.2,140.8 277.5,153.3 "/>
<g>
</g>
<g>
</g>
<g>
</g>
<g>
</g>
<g>
</g>
<g>
</g>
<g>
</g>
<g>
</g>
<g>
</g>
<g>
</g>
<g>
</g>
<g>
</g>
<g>
</g>
<g>
</g>
<g>
</g>
</svg>
