<?xml version="1.0" encoding="iso-8859-1"?>
<!-- Generator: Adobe Illustrator 19.0.0, SVG Export Plug-In . SVG Version: 6.00 Build 0)  -->
<svg version="1.1" id="Layer_1" xmlns="http://www.w3.org/2000/svg" xmlns:xlink="http://www.w3.org/1999/xlink" x="0px" y="0px"
	 viewBox="0 0 504 504" style="enable-background:new 0 0 504 504;" xml:space="preserve">
<circle style="fill:#84DBFF;" cx="252" cy="252" r="252"/>
<path style="fill:#324A5E;" d="M397.1,94.5H106.9c-6.8,0-12.4,5.5-12.4,12.4v205.2v35.3c0,6.8,5.5,12.4,12.4,12.4h290.2
	c6.8,0,12.4-5.5,12.4-12.4v-35.3V106.9C409.5,100,404,94.5,397.1,94.5z"/>
<rect x="122.1" y="122.1" style="fill:#FFFFFF;" width="259.9" height="210.1"/>
<rect x="153.1" y="386.9" style="fill:#324A5E;" width="197.7" height="22.6"/>
<polygon style="fill:#2B3B4E;" points="328.7,386.9 314.5,359.8 189.5,359.8 175.3,386.9 "/>
<g>
	<rect x="204.4" y="254" style="fill:#CED5E0;" width="95.2" height="13"/>
	<rect x="204.4" y="276.8" style="fill:#CED5E0;" width="95.2" height="13"/>
</g>
<g>
	<path style="fill:#ACB3BA;" d="M215.2,257.5v1.2h-3v1.2h2.7v1.1h-2.7v1.2h3.1v1.2h-4.4v-6h4.3V257.5z"/>
	<path style="fill:#ACB3BA;" d="M221.9,259.7l-1.6,3.3h-0.8l-1.6-3.3v3.8h-1.3v-6h1.8l1.6,3.3l1.6-3.3h1.8v6h-1.3v-3.8H221.9z"/>
	<path style="fill:#ACB3BA;" d="M229,263.5l-0.6-1.3h-2.5l-0.6,1.3h-1.4l2.6-6h1.3l2.6,6H229z M227.2,259.3l-0.8,1.7h1.5
		L227.2,259.3z"/>
	<path style="fill:#ACB3BA;" d="M231.1,257.5h1.3v6h-1.3V257.5z"/>
	<path style="fill:#ACB3BA;" d="M233.9,263.5v-6h1.3v4.8h2.6v1.2H233.9z"/>
	<polygon style="fill:#ACB3BA;" points="219.1,282.5 216.9,282.5 218.4,281 217.3,279.9 215.8,281.5 215.8,279.2 214.2,279.2 
		214.2,281.4 212.6,279.8 211.5,281 213,282.5 210.8,282.5 210.8,284.2 213,284.2 211.5,285.7 212.6,286.8 214.2,285.3 214.2,287.5 
		215.8,287.5 215.8,285.3 217.3,286.8 218.5,285.7 217,284.2 219.1,284.2 	"/>
	<polygon style="fill:#ACB3BA;" points="230.7,282.5 228.5,282.5 230,281 228.9,279.9 227.3,281.5 227.3,279.2 225.7,279.2 
		225.7,281.4 224.2,279.8 223,281 224.6,282.5 222.4,282.5 222.4,284.2 224.6,284.2 223.1,285.7 224.2,286.8 225.7,285.3 
		225.7,287.5 227.3,287.5 227.3,285.3 228.9,286.8 230,285.7 228.5,284.2 230.7,284.2 	"/>
	<polygon style="fill:#ACB3BA;" points="242.2,282.5 240,282.5 241.6,281 240.5,279.9 238.9,281.5 238.9,279.2 237.3,279.2 
		237.3,281.4 235.8,279.8 234.6,281 236.1,282.5 234,282.5 234,284.2 236.2,284.2 234.6,285.7 235.7,286.8 237.3,285.3 237.3,287.5 
		238.9,287.5 238.9,285.3 240.4,286.8 241.6,285.7 240.1,284.2 242.2,284.2 	"/>
	<polygon style="fill:#ACB3BA;" points="253.8,282.5 251.6,282.5 253.1,281 252,279.9 250.4,281.5 250.4,279.2 248.9,279.2 
		248.9,281.4 247.3,279.8 246.2,281 247.7,282.5 245.5,282.5 245.5,284.2 247.7,284.2 246.2,285.7 247.3,286.8 248.9,285.3 
		248.9,287.5 250.4,287.5 250.4,285.3 252,286.8 253.2,285.7 251.7,284.2 253.8,284.2 	"/>
</g>
<g>
	<path style="fill:#CED5E0;" d="M252,199.8c-21.7,0-39.2,17.6-39.2,39.2h78.4C291.2,217.4,273.7,199.8,252,199.8z"/>
	<circle style="fill:#CED5E0;" cx="252" cy="179.3" r="14.9"/>
</g>
<g>
</g>
<g>
</g>
<g>
</g>
<g>
</g>
<g>
</g>
<g>
</g>
<g>
</g>
<g>
</g>
<g>
</g>
<g>
</g>
<g>
</g>
<g>
</g>
<g>
</g>
<g>
</g>
<g>
</g>
</svg>
