<?xml version="1.0" encoding="iso-8859-1"?>
<!-- Generator: Adobe Illustrator 19.0.0, SVG Export Plug-In . SVG Version: 6.00 Build 0)  -->
<svg version="1.1" id="Layer_1" xmlns="http://www.w3.org/2000/svg" xmlns:xlink="http://www.w3.org/1999/xlink" x="0px" y="0px"
	 viewBox="0 0 504 504" style="enable-background:new 0 0 504 504;" xml:space="preserve">
<circle style="fill:#FFD05B;" cx="252" cy="252" r="252"/>
<path style="fill:#324A5E;" d="M252,164.9c-25.4,0-48.3,11-64.3,28.4c-2.7,3-5.2,6.1-7.5,9.4c-9.7,14-15.3,31-15.3,49.2
	s5.7,35.2,15.3,49.2c2.3,3.3,4.8,6.5,7.5,9.4c15.9,17.4,38.8,28.4,64.3,28.4s48.3-11,64.3-28.4c2.7-3,5.2-6.1,7.5-9.4
	c9.7-14,15.3-31,15.3-49.2s-5.7-35.2-15.3-49.2c-2.3-3.3-4.8-6.5-7.5-9.4C300.3,175.9,277.4,164.9,252,164.9z M304.3,198
	c-4.1,1.3-8.6,2.5-13.6,3.5c-2.8-7.3-6.1-13.7-9.9-19C289.6,186.1,297.5,191.5,304.3,198z M287.3,246.1h-29.4v-29.3
	c8.3-0.2,16.7-0.9,24.7-2C285.2,224.2,286.9,234.8,287.3,246.1z M216.7,257.9h29.4v29.3c-8.3,0.2-16.7,0.9-24.7,2
	C218.8,279.8,217.2,269.2,216.7,257.9z M221.4,214.8c8,1.1,16.3,1.8,24.7,2v29.3h-29.4C217.2,234.8,218.8,224.2,221.4,214.8z
	 M257.9,257.9h29.4c-0.4,11.3-2.1,21.9-4.7,31.3c-8-1.1-16.3-1.8-24.7-2L257.9,257.9L257.9,257.9z M257.9,177.9
	c8.2,3.1,15.5,12.4,20.8,25.5c-6.4,0.8-13.4,1.4-20.8,1.6V177.9z M246.1,177.9V205c-7.4-0.2-14.4-0.7-20.8-1.6
	C230.6,190.4,237.9,181,246.1,177.9z M223.2,182.5c-3.8,5.3-7.2,11.8-9.9,19c-5-1-9.5-2.2-13.6-3.5
	C206.5,191.5,214.4,186.1,223.2,182.5z M191.3,207.6c5.6,2,11.8,3.7,18.4,5.1c-2.7,10.1-4.4,21.3-4.9,33.3H177
	C178.2,231.8,183.3,218.6,191.3,207.6z M177,257.9h27.8c0.4,12,2.2,23.2,4.9,33.3c-6.6,1.4-12.8,3.1-18.4,5.1
	C183.3,285.4,178.2,272.2,177,257.9z M199.7,306c4.1-1.3,8.6-2.5,13.6-3.5c2.8,7.3,6.1,13.7,9.9,19
	C214.4,317.9,206.5,312.5,199.7,306z M246.1,326.1c-8.2-3.1-15.5-12.4-20.8-25.5c6.4-0.8,13.4-1.4,20.8-1.6V326.1z M257.9,326.1V299
	c7.4,0.2,14.4,0.7,20.8,1.6C273.4,313.6,266.1,323,257.9,326.1z M280.8,321.5c3.8-5.3,7.2-11.8,9.9-19c5,1,9.5,2.2,13.6,3.5
	C297.5,312.5,289.6,317.9,280.8,321.5z M312.7,296.4c-5.6-2-11.8-3.7-18.4-5.1c2.7-10.1,4.4-21.3,4.9-33.3H327
	C325.8,272.2,320.7,285.4,312.7,296.4z M327,246.1h-27.8c-0.4-12-2.2-23.2-4.9-33.3c6.6-1.4,12.8-3.1,18.4-5.1
	C320.7,218.6,325.8,231.8,327,246.1z"/>
<path style="fill:#F1543F;" d="M428.9,286.8v-69.7h-35.3c-3.6-14.5-9.3-28.2-16.8-40.7l24.9-24.9l-49.3-49.3l-24.9,24.9
	c-12.5-7.6-26.2-13.3-40.7-16.8V75.1h-69.7v35.3c-14.5,3.6-28.2,9.3-40.7,16.8l-24.9-24.9l-49.3,49.3l24.9,24.9
	c-7.6,12.5-13.3,26.2-16.8,40.7H75.1v69.7h35.3c3.6,14.5,9.3,28.2,16.8,40.7l-24.9,24.9l49.3,49.3l24.9-24.9
	c12.5,7.6,26.2,13.3,40.7,16.8V429h69.7v-35.3c14.5-3.6,28.2-9.3,40.7-16.8l24.9,24.9l49.3-49.3l-24.9-24.9
	c7.6-12.5,13.3-26.2,16.8-40.7h35.2V286.8z M252,365c-62.4,0-113-50.6-113-113s50.6-113,113-113s113,50.6,113,113S314.4,365,252,365
	z"/>
<circle style="fill:#84DBFF;" cx="252" cy="252" r="88"/>
<path style="fill:#324A5E;" d="M252,154.2c-28.6,0-54.3,12.3-72.2,31.9c-3,3.3-5.9,6.9-8.4,10.6c-10.8,15.7-17.2,34.8-17.2,55.3
	s6.4,39.6,17.2,55.3c2.6,3.7,5.4,7.3,8.4,10.6c17.9,19.6,43.6,31.9,72.2,31.9s54.3-12.3,72.2-31.9c3-3.3,5.9-6.9,8.4-10.6
	c10.8-15.7,17.2-34.8,17.2-55.3s-6.4-39.6-17.2-55.3c-2.6-3.7-5.4-7.3-8.4-10.6C306.3,166.5,280.5,154.2,252,154.2z M310.7,191.4
	c-4.6,1.5-9.7,2.8-15.3,3.9c-3.1-8.1-6.8-15.4-11.1-21.4C294.2,178,303.1,184,310.7,191.4z M291.6,245.4h-33v-32.9
	c9.3-0.2,18.7-1,27.7-2.3C289.3,220.8,291.1,232.7,291.6,245.4z M212.4,258.6h33v32.9c-9.3,0.2-18.7,1-27.7,2.3
	C214.7,283.2,212.9,271.3,212.4,258.6z M217.7,210.2c9,1.3,18.4,2,27.7,2.3v32.9h-33C212.9,232.7,214.7,220.8,217.7,210.2z
	 M258.6,258.6h33c-0.5,12.6-2.4,24.6-5.3,35.1c-9-1.3-18.4-2-27.7-2.3V258.6z M258.6,168.8c9.2,3.5,17.4,14,23.4,28.7
	c-7.2,0.9-15.1,1.5-23.4,1.8V168.8z M245.4,168.8v30.4c-8.4-0.2-16.2-0.8-23.4-1.8C227.9,182.8,236.1,172.3,245.4,168.8z
	 M219.7,173.9c-4.3,6-8,13.2-11.1,21.4c-5.6-1.1-10.7-2.5-15.3-3.9C200.9,184,209.8,178,219.7,173.9z M183.8,202.2
	c6.3,2.3,13.3,4.2,20.7,5.8c-3,11.3-5,23.9-5.5,37.4h-31.3C169.1,229.3,174.8,214.5,183.8,202.2z M167.8,258.6h31.3
	c0.5,13.5,2.4,26.1,5.5,37.4c-7.4,1.5-14.4,3.5-20.7,5.8C174.8,289.5,169.1,274.7,167.8,258.6z M193.3,312.6
	c4.6-1.5,9.7-2.8,15.3-3.9c3.1,8.1,6.8,15.4,11.1,21.4C209.8,326,200.9,320,193.3,312.6z M245.4,335.2c-9.2-3.5-17.4-14-23.4-28.7
	c7.2-0.9,15-1.5,23.4-1.8V335.2z M258.6,335.2v-30.4c8.4,0.2,16.2,0.8,23.4,1.8C276.1,321.2,267.9,331.7,258.6,335.2z M284.3,330.1
	c4.3-6,8-13.2,11.1-21.4c5.6,1.1,10.7,2.5,15.3,3.9C303.1,320,294.2,326,284.3,330.1z M320.2,301.8c-6.3-2.3-13.3-4.2-20.7-5.8
	c3-11.3,5-23.9,5.5-37.4h31.3C334.9,274.7,329.2,289.5,320.2,301.8z M336.2,245.4h-31.3c-0.5-13.5-2.4-26.1-5.5-37.4
	c7.4-1.5,14.4-3.5,20.7-5.8C329.2,214.5,334.9,229.3,336.2,245.4z"/>
<g>
</g>
<g>
</g>
<g>
</g>
<g>
</g>
<g>
</g>
<g>
</g>
<g>
</g>
<g>
</g>
<g>
</g>
<g>
</g>
<g>
</g>
<g>
</g>
<g>
</g>
<g>
</g>
<g>
</g>
</svg>
