<?xml version="1.0" encoding="iso-8859-1"?>
<!-- Generator: Adobe Illustrator 19.0.0, SVG Export Plug-In . SVG Version: 6.00 Build 0)  -->
<svg version="1.1" id="Layer_1" xmlns="http://www.w3.org/2000/svg" xmlns:xlink="http://www.w3.org/1999/xlink" x="0px" y="0px"
	 viewBox="0 0 504 504" style="enable-background:new 0 0 504 504;" xml:space="preserve">
<circle style="fill:#FD8469;" cx="252" cy="252" r="252"/>
<path style="fill:#E6E9EE;" d="M381.1,193.5v-30.9h-15.2c-1.5-6.4-4-12.5-7.3-18l10.8-11l-21.3-21.8l-10.8,11
	c-5.4-3.4-11.3-5.9-17.6-7.5V99.7h-30.1v15.6c-6.3,1.6-12.2,4.1-17.6,7.5l-10.8-11l-21.3,21.8l10.8,11c-3.3,5.5-5.7,11.6-7.3,18
	h-15.2v30.9h15.2c1.5,6.4,4,12.5,7.3,18l-10.8,11l21.3,21.8l10.8-11c5.4,3.4,11.3,5.9,17.6,7.5v15.6h30.1v-15.6
	c6.3-1.6,12.2-4.1,17.6-7.5l10.8,11l21.3-21.8l-10.8-11c3.3-5.5,5.7-11.6,7.3-18L381.1,193.5L381.1,193.5z M304.6,223.2
	c-5.9,0-11.4-1.2-16.5-3.3c-10.2-4.3-18.6-12.4-23.3-22.6c-2.7-5.8-4.2-12.3-4.2-19.2c0-24.9,19.7-45.1,44-45.1s44,20.2,44,45.1
	S328.9,223.2,304.6,223.2z"/>
<path style="fill:#FFD05B;" d="M201.5,185.5l29.9,101.4c1,3.5,4.2,5.9,7.8,5.9H370c3.6,0,6.7-2.4,7.8-5.9l29.9-101.4
	c1.6-5.4-2.3-10.7-7.8-10.7H209.3C203.9,174.8,200,180.2,201.5,185.5z"/>
<ellipse style="fill:#324A5E;" cx="236.2" cy="380.1" rx="33.7" ry="34.6"/>
<path style="fill:#2B3B4E;" d="M236.2,398.3c-9.8,0-17.8-8.2-17.8-18.3s8-18.3,17.8-18.3S254,369.9,254,380S246.1,398.3,236.2,398.3
	z"/>
<ellipse style="fill:#324A5E;" cx="334.4" cy="380.1" rx="33.7" ry="34.6"/>
<path style="fill:#2B3B4E;" d="M334.4,398.3c-9.8,0-17.8-8.2-17.8-18.3s8-18.3,17.8-18.3s17.8,8.2,17.8,18.3
	S344.2,398.3,334.4,398.3z"/>
<path style="fill:#324A5E;" d="M369.3,330.6H200.1l-45.6-153.4c-5.1-17.1-20.4-28.7-37.9-28.7h-16c-4.2,0-7.6-3.5-7.6-7.7l0,0
	c0-4.3,3.4-7.7,7.6-7.7h15.9c24.1,0,45.3,16.1,52.3,39.7l42.3,142.4h158c4.2,0,7.6,3.5,7.6,7.7l0,0
	C376.8,327.2,373.5,330.6,369.3,330.6z"/>
<g>
	<rect x="230.8" y="195.3" style="fill:#FFFFFF;" width="147.7" height="12.2"/>
	<rect x="246.6" y="227.7" style="fill:#FFFFFF;" width="116.2" height="12.2"/>
	<rect x="265.4" y="260.1" style="fill:#FFFFFF;" width="78.4" height="12.2"/>
</g>
<g>
</g>
<g>
</g>
<g>
</g>
<g>
</g>
<g>
</g>
<g>
</g>
<g>
</g>
<g>
</g>
<g>
</g>
<g>
</g>
<g>
</g>
<g>
</g>
<g>
</g>
<g>
</g>
<g>
</g>
</svg>
