<?xml version="1.0" encoding="iso-8859-1"?>
<!-- Generator: Adobe Illustrator 19.0.0, SVG Export Plug-In . SVG Version: 6.00 Build 0)  -->
<svg version="1.1" id="Layer_1" xmlns="http://www.w3.org/2000/svg" xmlns:xlink="http://www.w3.org/1999/xlink" x="0px" y="0px"
	 viewBox="0 0 504 504" style="enable-background:new 0 0 504 504;" xml:space="preserve">
<circle style="fill:#84DBFF;" cx="252" cy="252" r="252"/>
<path style="fill:#324A5E;" d="M142,106.3v291.5c0,6.5,5.3,11.8,11.8,11.8h196.5c6.5,0,11.8-5.3,11.8-11.8V106.3
	c0-6.5-5.3-11.8-11.8-11.8H153.7C147.2,94.5,142,99.8,142,106.3z"/>
<rect x="162.8" y="118.1" style="fill:#FFFFFF;" width="178.4" height="230"/>
<circle style="fill:#ACB3BA;" cx="252" cy="378.8" r="20.8"/>
<rect x="162.8" y="369.8" style="fill:#4CDBC4;" width="48.5" height="18"/>
<rect x="292.7" y="369.8" style="fill:#F1543F;" width="48.5" height="18"/>
<g>
	<path style="fill:#324A5E;" d="M188.7,234.1v-9.5l35.5-16.4v8.6l-26.5,12v0.8l26.5,12.3v8.6L188.7,234.1z"/>
	<path style="fill:#324A5E;" d="M264.6,198.2h7.5l-32.6,69.9H232L264.6,198.2z"/>
	<path style="fill:#324A5E;" d="M315.3,224.6v9.5l-35.5,16.3v-8.6l26.5-12.3v-0.8l-26.5-12v-8.6L315.3,224.6z"/>
</g>
<g>
</g>
<g>
</g>
<g>
</g>
<g>
</g>
<g>
</g>
<g>
</g>
<g>
</g>
<g>
</g>
<g>
</g>
<g>
</g>
<g>
</g>
<g>
</g>
<g>
</g>
<g>
</g>
<g>
</g>
</svg>
