<?xml version="1.0" encoding="iso-8859-1"?>
<!-- Generator: Adobe Illustrator 19.0.0, SVG Export Plug-In . SVG Version: 6.00 Build 0)  -->
<svg version="1.1" id="Layer_1" xmlns="http://www.w3.org/2000/svg" xmlns:xlink="http://www.w3.org/1999/xlink" x="0px" y="0px"
	 viewBox="0 0 504 504" style="enable-background:new 0 0 504 504;" xml:space="preserve">
<circle style="fill:#324A5E;" cx="252" cy="252" r="252"/>
<path style="fill:#ACB3BA;" d="M358.4,409.5H145.6c-2,0-3.7-1.7-3.7-3.7V98.2c0-2,1.7-3.7,3.7-3.7h212.8c2,0,3.7,1.7,3.7,3.7v307.6
	C362.1,407.8,360.4,409.5,358.4,409.5z"/>
<rect x="172.1" y="124.7" style="fill:#84DBFF;" width="159.7" height="216.4"/>
<circle style="fill:#324A5E;" cx="252" cy="375.3" r="20.9"/>
<rect x="172.1" y="365.1" style="fill:#2C9984;" width="41.6" height="20.5"/>
<rect x="290.3" y="365.1" style="fill:#FF7058;" width="41.6" height="20.5"/>
<path style="fill:#FFFFFF;" d="M299.9,271.7c-21.4,0-38.8-17.4-38.8-38.8s17.4-38.8,38.8-38.8c13.3,0,24.9,6.7,31.9,16.8v-31.6
	c-5.2-3.1-11-5.5-17.1-7v-15.1H285v15.1c-6.2,1.5-12.1,4-17.4,7.2l-10.7-10.7l-21,21.2l10.7,10.7c-3.2,5.3-5.7,11.2-7.2,17.4h-15.1
	v29.8h15.1c1.5,6.2,4,12.1,7.2,17.4L235.9,276l21.1,21.1l10.7-10.7c5.3,3.2,11.2,5.7,17.4,7.2v15.1h29.8v-15.1
	c6.1-1.5,11.8-3.9,17.1-7V255C324.9,265.1,313.2,271.7,299.9,271.7z"/>
<g>
</g>
<g>
</g>
<g>
</g>
<g>
</g>
<g>
</g>
<g>
</g>
<g>
</g>
<g>
</g>
<g>
</g>
<g>
</g>
<g>
</g>
<g>
</g>
<g>
</g>
<g>
</g>
<g>
</g>
</svg>
