<?xml version="1.0" encoding="iso-8859-1"?>
<!-- Generator: Adobe Illustrator 19.0.0, SVG Export Plug-In . SVG Version: 6.00 Build 0)  -->
<svg version="1.1" id="Layer_1" xmlns="http://www.w3.org/2000/svg" xmlns:xlink="http://www.w3.org/1999/xlink" x="0px" y="0px"
	 viewBox="0 0 504 504" style="enable-background:new 0 0 504 504;" xml:space="preserve">
<circle style="fill:#90DFAA;" cx="252" cy="252" r="252"/>
<path style="fill:#324A5E;" d="M394.9,135.6l-26.5-26.5c-1.8-1.8-4.3-2.8-6.8-2.7l-107.1,2.1c-2.4,0-4.7,1-6.4,2.7L89.3,269.9
	c-3.7,3.7-3.7,9.6,0,13.3l131.5,131.5c3.7,3.7,9.6,3.7,13.3,0L392.8,256c1.7-1.7,2.7-4,2.7-6.4l2.1-107.1
	C397.7,139.9,396.7,137.5,394.9,135.6z"/>
<circle style="fill:#E6E9EE;" cx="348.2" cy="155.8" r="18.1"/>
<path style="fill:#FFFFFF;" d="M224.7,384L120,279.3c-0.9-0.9-0.9-2.5,0-3.4l137.2-137.2c0.9-0.9,2.5-0.9,3.4,0l104.7,104.7
	c0.9,0.9,0.9,2.5,0,3.4L228.1,384C227.1,384.9,225.6,384.9,224.7,384z"/>
<g>
	<path style="fill:#F1543F;" d="M182,297.1c-0.2,1.6,0.4,3.1,1.6,4.3c1.2,1.2,2.8,1.6,4.6,1.3c1.8-0.4,5.2-2.1,10.2-5.1
		s9.6-4.6,13.7-4.9c4.2-0.2,8.2,1.5,11.9,5.3s5.4,8.3,4.9,13.4c-0.5,5.2-3,10.1-7.7,14.7c-6.7,6.7-15.2,10.2-25.4,10.6l-1.3-12.5
		c8.5-0.6,14.7-2.8,18.6-6.6c1.7-1.7,2.7-3.5,3-5.2c0.2-1.7-0.3-3.2-1.5-4.5c-1.3-1.3-2.8-1.7-4.6-1.4c-1.8,0.3-4.6,1.6-8.5,3.9
		c-6.1,3.7-11.2,5.8-15.3,6.2s-8.2-1.4-12.2-5.4s-5.6-8.5-4.9-13.6c0.7-5,3.2-9.7,7.5-14c2.8-2.8,6.1-5.1,9.9-7
		c3.8-1.9,7.6-2.9,11.5-3.3l2.1,11.6c-6.4,0.9-11.6,3.3-15.5,7.2C183.1,293.8,182.2,295.5,182,297.1z"/>
	<path style="fill:#F1543F;" d="M232.6,229.7l8.4,8.4l-21,21l8.7,8.7l18.9-18.9l8,8l-18.9,18.9l8.7,8.7l21.6-21.6l8.3,8.3
		l-31.1,31.1L202,260.1L232.6,229.7z"/>
	<path style="fill:#F1543F;" d="M312.8,222.2c-0.1,8.4-3.3,15.8-9.5,22s-13.6,9.4-22,9.5s-15.7-2.9-21.9-9.1
		c-6.2-6.2-9.2-13.5-9.1-21.9c0.1-8.4,3.3-15.8,9.5-22s13.6-9.4,22-9.5s15.7,2.9,21.9,9.1C309.9,206.4,312.9,213.7,312.8,222.2z
		 M294.1,209.9c-3.8-3.8-8.2-5.8-13.2-6c-5.1-0.2-9.4,1.4-12.9,4.9s-5.2,7.8-4.9,12.9c0.2,5.1,2.2,9.5,6,13.2s8.2,5.7,13.2,6
		c5,0.2,9.3-1.4,12.8-4.9s5.2-7.8,4.9-12.8C299.9,218,297.9,213.6,294.1,209.9z"/>
</g>
<rect x="203.437" y="138.165" transform="matrix(-0.7071 -0.7071 0.7071 -0.7071 215.4845 504.7849)" style="fill:#2C9984;" width="17.7" height="139.199"/>
<rect x="138.687" y="261.605" transform="matrix(-0.7071 -0.7071 0.7071 -0.7071 59.1009 569.6901)" style="fill:#4CDBC4;" width="17.7" height="22"/>
<rect x="264.172" y="245.346" transform="matrix(0.7071 0.7071 -0.7071 0.7071 302.6662 -100.8105)" style="fill:#F9B54C;" width="17.7" height="139.199"/>
<rect x="328.963" y="239.105" transform="matrix(0.7071 0.7071 -0.7071 0.7071 275.7936 -165.6158)" style="fill:#FFD05B;" width="17.7" height="22"/>
<g>
</g>
<g>
</g>
<g>
</g>
<g>
</g>
<g>
</g>
<g>
</g>
<g>
</g>
<g>
</g>
<g>
</g>
<g>
</g>
<g>
</g>
<g>
</g>
<g>
</g>
<g>
</g>
<g>
</g>
</svg>
