<?xml version="1.0" encoding="iso-8859-1"?>
<!-- Generator: Adobe Illustrator 19.0.0, SVG Export Plug-In . SVG Version: 6.00 Build 0)  -->
<svg version="1.1" id="Layer_1" xmlns="http://www.w3.org/2000/svg" xmlns:xlink="http://www.w3.org/1999/xlink" x="0px" y="0px"
	 viewBox="0 0 505 505" style="enable-background:new 0 0 505 505;" xml:space="preserve">
<circle style="fill:#FD8469;" cx="252.5" cy="252.5" r="252.5"/>
<path style="fill:#E6E9EE;" d="M401.6,130.9c-0.2-3.7-3.3-6.6-7-6.6H110.4c-3.7,0-6.8,2.9-7,6.6L97,240.3h311.2L401.6,130.9z"/>
<path style="fill:#CED5E0;" d="M96.9,240.3l4.1,38.4c0.5,4.3,4.1,7.6,8.5,7.6h286c4.3,0,8-3.3,8.5-7.6l4.1-38.4L96.9,240.3
	L96.9,240.3z"/>
<polygon style="fill:#324A5E;" points="392.7,272.6 112.3,272.6 110.5,254 394.5,254 "/>
<g>
	<rect x="144.9" y="154.5" style="fill:#CED5E0;" width="215.2" height="9.6"/>
	<rect x="144.9" y="177.5" style="fill:#CED5E0;" width="215.2" height="9.6"/>
	<rect x="144.9" y="200.4" style="fill:#CED5E0;" width="215.2" height="9.6"/>
</g>
<g>
	<path style="fill:#FFD05B;" d="M184.2,305.3c0-0.6,0-0.9,0-0.9L181,304c0,0-1.5,4.3-4.9,10.3c-0.8,1.5-1.9,3-2.9,4.7
		c-1.2,1.6-2.2,3.3-3.6,4.9c-1.3,1.7-2.6,3.3-4.1,4.9c-1.4,1.6-3,3.2-4.5,4.7s-3.2,2.9-4.8,4.3c-1.6,1.3-3.3,2.5-4.9,3.7
		c-1.6,1.2-3.3,2.1-4.7,3.1s-3,1.7-4.4,2.5c-1.4,0.7-2.5,1.5-3.7,2c-1.1,0.5-2.1,1-3,1.3c-0.2,0.1-0.4,0.2-0.6,0.3l-9.2-12.9
		l-7.4,44l44,7.4l-8.5-11.9c0.3-0.4,0.7-0.8,1.2-1.3c0.8-0.9,1.8-1.9,2.9-3.2c1.1-1.2,2.2-2.7,3.5-4.3c1.2-1.6,2.6-3.2,3.9-5.2
		c1.3-1.9,2.7-3.9,3.9-6c1.2-2.2,2.5-4.4,3.7-6.7c1.1-2.4,2.3-4.6,3.3-7.1c1-2.4,2-4.8,2.7-7.2c0.8-2.4,1.6-4.7,2.1-7
		c0.7-2.3,1.1-4.5,1.5-6.6s0.7-4.1,0.9-6c0.5-3.7,0.6-6.8,0.6-8.9C184.2,306.8,184.2,305.9,184.2,305.3z"/>
	<path style="fill:#FFD05B;" d="M320.8,305.3c0-0.6,0-0.9,0-0.9l3.2-0.4c0,0,1.5,4.3,4.9,10.3c0.8,1.5,1.9,3,2.9,4.7
		c1.2,1.6,2.2,3.3,3.6,4.9c1.3,1.7,2.6,3.3,4.1,4.9c1.4,1.6,3,3.2,4.5,4.7s3.2,2.9,4.8,4.3c1.6,1.3,3.3,2.5,4.9,3.7s3.3,2.1,4.7,3.1
		c1.4,1,3,1.7,4.4,2.5c1.4,0.7,2.5,1.5,3.7,2c1.1,0.5,2.1,1,3,1.3c0.2,0.1,0.4,0.2,0.6,0.3l9.2-12.9l7.4,44l-44,7.4l8.5-11.9
		c-0.3-0.4-0.7-0.8-1.2-1.3c-0.8-0.9-1.8-1.9-2.9-3.2c-1.1-1.2-2.2-2.7-3.5-4.3c-1.2-1.6-2.6-3.2-3.9-5.2c-1.3-1.9-2.7-3.9-3.9-6
		c-1.2-2.2-2.5-4.4-3.7-6.7c-1.1-2.4-2.3-4.6-3.3-7.1c-1-2.4-2-4.8-2.7-7.2c-0.8-2.4-1.6-4.7-2.1-7c-0.7-2.3-1.1-4.5-1.5-6.6
		s-0.7-4.1-0.9-6c-0.5-3.7-0.6-6.8-0.6-8.9C320.8,306.8,320.8,305.9,320.8,305.3z"/>
	<polygon style="fill:#FFD05B;" points="255.8,304.7 249.2,304.7 236.2,364.1 217.7,364.1 252.5,396.5 287.3,364.1 268.8,364.1 	"/>
</g>
<g>
</g>
<g>
</g>
<g>
</g>
<g>
</g>
<g>
</g>
<g>
</g>
<g>
</g>
<g>
</g>
<g>
</g>
<g>
</g>
<g>
</g>
<g>
</g>
<g>
</g>
<g>
</g>
<g>
</g>
</svg>
