<?xml version="1.0" encoding="iso-8859-1"?>
<!-- Generator: Adobe Illustrator 19.0.0, SVG Export Plug-In . SVG Version: 6.00 Build 0)  -->
<svg version="1.1" id="Layer_1" xmlns="http://www.w3.org/2000/svg" xmlns:xlink="http://www.w3.org/1999/xlink" x="0px" y="0px"
	 viewBox="0 0 505 505" style="enable-background:new 0 0 505 505;" xml:space="preserve">
<circle style="fill:#324A5E;" cx="252.5" cy="252.5" r="252.5"/>
<path style="fill:#4CDBC4;" d="M194.4,102.2h-67.2c-2,0-3.5,1.6-3.5,3.5v213.5c0,2,1.6,3.5,3.5,3.5h67.2c2,0,3.5-1.6,3.5-3.5V105.8
	C197.9,103.8,196.4,102.2,194.4,102.2z"/>
<circle style="fill:#324A5E;" cx="160.8" cy="135.4" r="19.5"/>
<g>
	<circle style="fill:#FFFFFF;" cx="160.8" cy="135.4" r="13.1"/>
	<rect x="135.1" y="187.7" style="fill:#FFFFFF;" width="51.4" height="123.6"/>
</g>
<g>
	<rect x="142.9" y="202.4" style="fill:#CED5E0;" width="35.8" height="5.7"/>
	<rect x="142.9" y="220.1" style="fill:#CED5E0;" width="35.8" height="5.7"/>
	<rect x="142.9" y="237.8" style="fill:#CED5E0;" width="35.8" height="5.7"/>
	<rect x="142.9" y="255.5" style="fill:#CED5E0;" width="35.8" height="5.7"/>
	<rect x="142.9" y="273.2" style="fill:#CED5E0;" width="35.8" height="5.7"/>
	<rect x="142.9" y="290.9" style="fill:#CED5E0;" width="35.8" height="5.7"/>
</g>
<path style="fill:#E6E9EE;" d="M286.1,102.2h-67.2c-2,0-3.5,1.6-3.5,3.5v213.5c0,2,1.6,3.5,3.5,3.5h67.2c2,0,3.5-1.6,3.5-3.5V105.8
	C289.6,103.8,288.1,102.2,286.1,102.2z"/>
<circle style="fill:#324A5E;" cx="252.5" cy="135.4" r="19.5"/>
<g>
	<circle style="fill:#FFFFFF;" cx="252.5" cy="135.4" r="13.1"/>
	<rect x="226.8" y="187.7" style="fill:#FFFFFF;" width="51.4" height="123.6"/>
</g>
<g>
	<rect x="234.6" y="202.4" style="fill:#CED5E0;" width="35.8" height="5.7"/>
	<rect x="234.6" y="220.1" style="fill:#CED5E0;" width="35.8" height="5.7"/>
	<rect x="234.6" y="237.8" style="fill:#CED5E0;" width="35.8" height="5.7"/>
	<rect x="234.6" y="255.5" style="fill:#CED5E0;" width="35.8" height="5.7"/>
	<rect x="234.6" y="273.2" style="fill:#CED5E0;" width="35.8" height="5.7"/>
	<rect x="234.6" y="290.9" style="fill:#CED5E0;" width="35.8" height="5.7"/>
</g>
<path style="fill:#FFD05B;" d="M377.8,102.2h-67.2c-2,0-3.5,1.6-3.5,3.5v213.5c0,2,1.6,3.5,3.5,3.5h67.2c2,0,3.5-1.6,3.5-3.5V105.8
	C381.3,103.8,379.8,102.2,377.8,102.2z"/>
<circle style="fill:#324A5E;" cx="344.2" cy="135.4" r="19.5"/>
<g>
	<circle style="fill:#FFFFFF;" cx="344.2" cy="135.4" r="13.1"/>
	<rect x="318.5" y="187.7" style="fill:#FFFFFF;" width="51.4" height="123.6"/>
</g>
<g>
	<rect x="326.3" y="202.4" style="fill:#CED5E0;" width="35.8" height="5.7"/>
	<rect x="326.3" y="220.1" style="fill:#CED5E0;" width="35.8" height="5.7"/>
	<rect x="326.3" y="237.8" style="fill:#CED5E0;" width="35.8" height="5.7"/>
	<rect x="326.3" y="255.5" style="fill:#CED5E0;" width="35.8" height="5.7"/>
	<rect x="326.3" y="273.2" style="fill:#CED5E0;" width="35.8" height="5.7"/>
	<rect x="326.3" y="290.9" style="fill:#CED5E0;" width="35.8" height="5.7"/>
</g>
<polygon style="fill:#FF7058;" points="317.7,249.2 309.9,291.3 195.1,291.3 187.3,249.2 97.3,249.2 97.3,379.1 407.7,379.1 
	407.7,249.2 "/>
<g>
</g>
<g>
</g>
<g>
</g>
<g>
</g>
<g>
</g>
<g>
</g>
<g>
</g>
<g>
</g>
<g>
</g>
<g>
</g>
<g>
</g>
<g>
</g>
<g>
</g>
<g>
</g>
<g>
</g>
</svg>
