<?xml version="1.0" encoding="iso-8859-1"?>
<!-- Generator: Adobe Illustrator 19.0.0, SVG Export Plug-In . SVG Version: 6.00 Build 0)  -->
<svg version="1.1" id="Layer_1" xmlns="http://www.w3.org/2000/svg" xmlns:xlink="http://www.w3.org/1999/xlink" x="0px" y="0px"
	 viewBox="0 0 505 505" style="enable-background:new 0 0 505 505;" xml:space="preserve">
<circle style="fill:#324A5E;" cx="252.5" cy="252.5" r="252.5"/>
<path style="fill:#CED5E0;" d="M209.8,116.4H107c-3.9,0-7,3.1-7,7v269c0,3.9,3.1,7,7,7h102.8c3.9,0,7-3.1,7-7v-269
	C216.8,119.5,213.7,116.4,209.8,116.4z"/>
<circle style="fill:#324A5E;" cx="158.4" cy="170.9" r="26.2"/>
<circle style="fill:#2B3B4E;" cx="158.4" cy="170.9" r="16.4"/>
<rect x="122.2" y="238.2" style="fill:#FFFFFF;" width="70.9" height="135.1"/>
<g>
	<rect x="133.5" y="251.4" style="fill:#4CDBC4;" width="48.3" height="7.5"/>
	<rect x="133.5" y="275.8" style="fill:#4CDBC4;" width="48.3" height="7.5"/>
	<rect x="133.5" y="300.2" style="fill:#4CDBC4;" width="48.3" height="7.5"/>
	<rect x="133.5" y="324.6" style="fill:#4CDBC4;" width="48.3" height="7.5"/>
	<rect x="133.5" y="348.9" style="fill:#4CDBC4;" width="48.3" height="7.5"/>
</g>
<path style="fill:#CED5E0;" d="M344.7,98l-98.8,28.7c-3.7,1.1-5.9,5-4.8,8.7l75.1,258.3c1.1,3.7,5,5.9,8.7,4.8l98.8-28.7
	c3.7-1.1,5.9-5,4.8-8.7l-75.1-258.3C352.3,99.1,348.4,96.9,344.7,98z"/>
<circle style="fill:#324A5E;" cx="310.5" cy="164.7" r="26.2"/>
<circle style="fill:#2B3B4E;" cx="310.5" cy="164.7" r="16.4"/>
<rect x="311.983" y="226.802" transform="matrix(-0.9602 0.2792 -0.2792 -0.9602 763.2318 479.9884)" style="fill:#FFFFFF;" width="70.898" height="135.096"/>
<g>
	
		<rect x="309.193" y="242.097" transform="matrix(-0.9602 0.2792 -0.2792 -0.9602 722.0697 388.8455)" style="fill:#4CDBC4;" width="48.298" height="7.5"/>
	
		<rect x="315.985" y="265.498" transform="matrix(-0.9602 0.2792 -0.2792 -0.9602 741.9183 432.8185)" style="fill:#4CDBC4;" width="48.298" height="7.5"/>
	
		<rect x="322.786" y="288.898" transform="matrix(-0.9602 0.2792 -0.2792 -0.9602 761.7827 476.7894)" style="fill:#4CDBC4;" width="48.298" height="7.5"/>
	
		<rect x="329.581" y="312.298" transform="matrix(-0.9602 0.2792 -0.2792 -0.9602 781.6353 520.7618)" style="fill:#4CDBC4;" width="48.298" height="7.5"/>
	
		<rect x="336.383" y="335.698" transform="matrix(-0.9602 0.2792 -0.2792 -0.9602 801.5035 564.7322)" style="fill:#4CDBC4;" width="48.298" height="7.5"/>
</g>
<g>
</g>
<g>
</g>
<g>
</g>
<g>
</g>
<g>
</g>
<g>
</g>
<g>
</g>
<g>
</g>
<g>
</g>
<g>
</g>
<g>
</g>
<g>
</g>
<g>
</g>
<g>
</g>
<g>
</g>
</svg>
