<?xml version="1.0" encoding="iso-8859-1"?>
<!-- Generator: Adobe Illustrator 19.0.0, SVG Export Plug-In . SVG Version: 6.00 Build 0)  -->
<svg version="1.1" id="Layer_1" xmlns="http://www.w3.org/2000/svg" xmlns:xlink="http://www.w3.org/1999/xlink" x="0px" y="0px"
	 viewBox="0 0 505 505" style="enable-background:new 0 0 505 505;" xml:space="preserve">
<circle style="fill:#FFD05B;" cx="252.5" cy="252.5" r="252.5"/>
<path style="fill:#4CDBC4;" d="M179.3,126.3h-76.9c-2.2,0-4.1,1.8-4.1,4.1v244.4c0,2.2,1.8,4.1,4.1,4.1h76.9c2.2,0,4.1-1.8,4.1-4.1
	V130.3C183.3,128.1,181.5,126.3,179.3,126.3z"/>
<circle style="fill:#324A5E;" cx="140.8" cy="164.2" r="22.3"/>
<g>
	<circle style="fill:#FFFFFF;" cx="140.8" cy="164.2" r="14.9"/>
	<rect x="111.4" y="224.1" style="fill:#FFFFFF;" width="58.8" height="141.4"/>
</g>
<g>
	<rect x="120.3" y="240.9" style="fill:#CED5E0;" width="41" height="6.5"/>
	<rect x="120.3" y="261.1" style="fill:#CED5E0;" width="41" height="6.5"/>
	<rect x="120.3" y="281.4" style="fill:#CED5E0;" width="41" height="6.5"/>
	<rect x="120.3" y="301.7" style="fill:#CED5E0;" width="41" height="6.5"/>
	<rect x="120.3" y="321.9" style="fill:#CED5E0;" width="41" height="6.5"/>
	<rect x="120.3" y="342.2" style="fill:#CED5E0;" width="41" height="6.5"/>
</g>
<path style="fill:#FF7058;" d="M284.2,126.3h-76.9c-2.2,0-4.1,1.8-4.1,4.1v244.4c0,2.2,1.8,4.1,4.1,4.1h76.9c2.2,0,4.1-1.8,4.1-4.1
	V130.3C288.3,128.1,286.5,126.3,284.2,126.3z"/>
<circle style="fill:#324A5E;" cx="245.8" cy="164.2" r="22.3"/>
<g>
	<circle style="fill:#FFFFFF;" cx="245.8" cy="164.2" r="14.9"/>
	<rect x="216.4" y="224.1" style="fill:#FFFFFF;" width="58.8" height="141.4"/>
</g>
<g>
	<rect x="225.3" y="240.9" style="fill:#CED5E0;" width="41" height="6.5"/>
	<rect x="225.3" y="261.1" style="fill:#CED5E0;" width="41" height="6.5"/>
	<rect x="225.3" y="281.4" style="fill:#CED5E0;" width="41" height="6.5"/>
	<rect x="225.3" y="301.7" style="fill:#CED5E0;" width="41" height="6.5"/>
	<rect x="225.3" y="321.9" style="fill:#CED5E0;" width="41" height="6.5"/>
	<rect x="225.3" y="342.2" style="fill:#CED5E0;" width="41" height="6.5"/>
</g>
<path style="fill:#324A5E;" d="M389.2,126.3h-76.9c-2.2,0-4.1,1.8-4.1,4.1v244.4c0,2.2,1.8,4.1,4.1,4.1h76.9c2.2,0,4.1-1.8,4.1-4.1
	V130.3C393.2,128.1,391.4,126.3,389.2,126.3z"/>
<circle style="fill:#4CDBC4;" cx="350.7" cy="164.2" r="22.3"/>
<g>
	<circle style="fill:#FFFFFF;" cx="350.7" cy="164.2" r="14.9"/>
	<rect x="321.3" y="224.1" style="fill:#FFFFFF;" width="58.8" height="141.4"/>
</g>
<g>
	<rect x="330.2" y="240.9" style="fill:#CED5E0;" width="41" height="6.5"/>
	<rect x="330.2" y="261.1" style="fill:#CED5E0;" width="41" height="6.5"/>
	<rect x="330.2" y="281.4" style="fill:#CED5E0;" width="41" height="6.5"/>
	<rect x="330.2" y="301.7" style="fill:#CED5E0;" width="41" height="6.5"/>
	<rect x="330.2" y="321.9" style="fill:#CED5E0;" width="41" height="6.5"/>
	<rect x="330.2" y="342.2" style="fill:#CED5E0;" width="41" height="6.5"/>
</g>
<g>
</g>
<g>
</g>
<g>
</g>
<g>
</g>
<g>
</g>
<g>
</g>
<g>
</g>
<g>
</g>
<g>
</g>
<g>
</g>
<g>
</g>
<g>
</g>
<g>
</g>
<g>
</g>
<g>
</g>
</svg>
