<?xml version="1.0" encoding="iso-8859-1"?>
<!-- Generator: Adobe Illustrator 19.0.0, SVG Export Plug-In . SVG Version: 6.00 Build 0)  -->
<svg version="1.1" id="Layer_1" xmlns="http://www.w3.org/2000/svg" xmlns:xlink="http://www.w3.org/1999/xlink" x="0px" y="0px"
	 viewBox="0 0 505 505" style="enable-background:new 0 0 505 505;" xml:space="preserve">
<circle style="fill:#FFD05B;" cx="252.5" cy="252.5" r="252.5"/>
<path style="fill:#FFFFFF;" d="M392.6,135H113c-2.4,0-4.4,2-4.4,4.4v22.8c0,2.4,2,4.4,4.4,4.4h15.8l29.1,224.3
	c1,8,7.8,13.9,15.9,13.9h158.1c8,0,14.8-6,15.9-13.9l29.1-224.3h15.8c2.4,0,4.4-2,4.4-4.4v-22.8C397,137,395,135,392.6,135z
	 M160.6,166.6h41.5l1.6,47.9h-36.8L160.6,166.6z M170.9,246.1h33.7l1.7,51.3h-28.8L170.9,246.1z M187.4,373.2l-5.7-44.3h25.7
	l1.4,44.3H187.4z M265.2,373.2h-24.8l-1.4-44.3h27.7L265.2,373.2z M267.7,297.4h-29.8l-1.7-51.3h33.1L267.7,297.4z M270.4,214.5
	h-35.1l-1.6-47.9H272L270.4,214.5z M318.2,373.2h-21.4l1.4-44.3h25.7L318.2,373.2z M328,297.4h-28.7l1.7-51.3h33.7L328,297.4z
	 M338.8,214.5H302l1.6-47.9h41.5L338.8,214.5z"/>
<g>
</g>
<g>
</g>
<g>
</g>
<g>
</g>
<g>
</g>
<g>
</g>
<g>
</g>
<g>
</g>
<g>
</g>
<g>
</g>
<g>
</g>
<g>
</g>
<g>
</g>
<g>
</g>
<g>
</g>
</svg>
