<?xml version="1.0" encoding="iso-8859-1"?>
<!-- Generator: Adobe Illustrator 19.0.0, SVG Export Plug-In . SVG Version: 6.00 Build 0)  -->
<svg version="1.1" id="Layer_1" xmlns="http://www.w3.org/2000/svg" xmlns:xlink="http://www.w3.org/1999/xlink" x="0px" y="0px"
	 viewBox="0 0 505 505" style="enable-background:new 0 0 505 505;" xml:space="preserve">
<circle style="fill:#90DFAA;" cx="252.5" cy="252.5" r="252.5"/>
<path style="fill:#FFFFFF;" d="M319,144.3l1.4-6.1c0.4-2.5,0.6-5.1,0.6-7.7c0-33.3-30.1-60.2-67.3-60.2s-67.3,27-67.3,60.2
	c0,2.6,0.3,5.2,0.6,7.8l1.3,6.3c-5.9,2.5-9.7,11.4-8.7,21.7c1.1,11.7,7.9,20.6,15.2,19.9c0.8-0.1,1.5-0.3,2.3-0.6l19,89H289
	l20.7-89.7c1.1,0.6,2.3,1.1,3.6,1.3c7.3,0.7,14.1-8.2,15.2-19.9C329.4,155.5,325.3,146.4,319,144.3z"/>
<polygon style="fill:#324A5E;" points="252.6,261.8 206.4,229.8 252.6,371.7 298.8,229.8 "/>
<g>
	
		<rect x="240.131" y="282.276" transform="matrix(-0.7071 -0.7071 0.7071 -0.7071 222.7793 681.7292)" style="fill:#FFFFFF;" width="24.9" height="24.9"/>
	<polygon style="fill:#FFFFFF;" points="252.6,371.7 239.6,358.7 252.4,285.4 265.6,358.7 	"/>
</g>
<g>
	<path style="fill:#FF7058;" d="M376.3,270.9c-49.5-5.6-77.5-41.1-77.5-41.1l-46.2,141.8h166.7C419.3,371.7,425.8,276.5,376.3,270.9
		z"/>
	<path style="fill:#FF7058;" d="M206.2,229.8c0,0-28,35.5-77.5,41.1s-43,100.7-43,100.7h166.9L206.2,229.8z"/>
</g>
<g>
</g>
<g>
</g>
<g>
</g>
<g>
</g>
<g>
</g>
<g>
</g>
<g>
</g>
<g>
</g>
<g>
</g>
<g>
</g>
<g>
</g>
<g>
</g>
<g>
</g>
<g>
</g>
<g>
</g>
</svg>
