<?xml version="1.0" encoding="iso-8859-1"?>
<!-- Generator: Adobe Illustrator 19.0.0, SVG Export Plug-In . SVG Version: 6.00 Build 0)  -->
<svg version="1.1" id="Layer_1" xmlns="http://www.w3.org/2000/svg" xmlns:xlink="http://www.w3.org/1999/xlink" x="0px" y="0px"
	 viewBox="0 0 505 505" style="enable-background:new 0 0 505 505;" xml:space="preserve">
<circle style="fill:#84DBFF;" cx="252.5" cy="252.5" r="252.5"/>
<rect x="120.2" y="179.4" style="fill:#324A5E;" width="255.5" height="220.8"/>
<path style="fill:#FFFFFF;" d="M375.7,368.1H133.3c-7.2,0-13.1-5.9-13.1-13.1V114.6h255.5V368.1z"/>
<rect x="120.2" y="114.6" style="fill:#FF7058;" width="255.5" height="65.3"/>
<path style="fill:#E6E9EE;" d="M374.3,305.9H173.1c14.5,0,26.3,13.9,26.3,31.1s-11.8,31.1-26.3,31.1h201.2
	c14.5,0,26.3-13.9,26.3-31.1C400.6,319.8,388.8,305.9,374.3,305.9z"/>
<g>
	<path style="fill:#324A5E;" d="M241.4,289.9h-47.2v-13h15.5v-46.4l-15.9,3.4v-13.3l32.3-6.5v62.8h15.3L241.4,289.9L241.4,289.9z"/>
	<path style="fill:#324A5E;" d="M271.1,276v0.3h30.3v13.6h-49.1v-12.8l21.4-20.4c4.3-4.1,7.3-7.6,9.1-10.4c1.8-2.8,2.6-5.7,2.6-8.8
		c0-6.9-3.7-10.3-11.1-10.3c-6.4,0-12.6,2.5-18.4,7.6v-14.5c6.5-4.2,13.8-6.3,22-6.3c7.6,0,13.6,1.9,17.9,5.7s6.4,9,6.4,15.5
		c0,8.7-5.2,17.7-15.7,27L271.1,276z"/>
	<path style="fill:#324A5E;" d="M173.1,89c-4.5,0-8.1,3.6-8.1,8.1v34.1c0,4.5,3.6,8.1,8.1,8.1s8.1-3.6,8.1-8.1V97.1
		C181.2,92.6,177.5,89,173.1,89z"/>
	<path style="fill:#324A5E;" d="M318.4,89c-4.5,0-8.1,3.6-8.1,8.1v34.1c0,4.5,3.6,8.1,8.1,8.1s8.1-3.6,8.1-8.1V97.1
		C326.5,92.6,322.9,89,318.4,89z"/>
</g>
<g>
</g>
<g>
</g>
<g>
</g>
<g>
</g>
<g>
</g>
<g>
</g>
<g>
</g>
<g>
</g>
<g>
</g>
<g>
</g>
<g>
</g>
<g>
</g>
<g>
</g>
<g>
</g>
<g>
</g>
</svg>
