<?xml version="1.0" encoding="iso-8859-1"?>
<!-- Generator: Adobe Illustrator 19.0.0, SVG Export Plug-In . SVG Version: 6.00 Build 0)  -->
<svg version="1.1" id="Layer_1" xmlns="http://www.w3.org/2000/svg" xmlns:xlink="http://www.w3.org/1999/xlink" x="0px" y="0px"
	 viewBox="0 0 505 505" style="enable-background:new 0 0 505 505;" xml:space="preserve">
<circle style="fill:#FFD05B;" cx="252.5" cy="252.5" r="252.5"/>
<polygon style="fill:#324A5E;" points="405.5,367.7 256.9,367.7 256.9,261.1 280.5,261.1 280.5,344 405.5,344 "/>
<circle style="fill:#2B3B4E;" cx="272.3" cy="357.9" r="27.1"/>
<circle style="fill:#E6E9EE;" cx="272.3" cy="357.9" r="13.5"/>
<path style="fill:#FFFFFF;" d="M381.5,208.2l-248,79.5c-1.1,0.4-2.3-0.3-2.7-1.4l-35-109.2l252.1-80.8l35,109.2
	C383.3,206.7,382.7,207.9,381.5,208.2z"/>
<path style="fill:#FF7058;" d="M68,186l10.4,32.5c3.9,12.3,17.1,19.1,29.4,15.1L299,172.5c12.3-3.9,19.1-17.1,15.1-29.4l-10.4-32.6
	L68,186z"/>
<path style="fill:#2B3B4E;" d="M207.3,264.1l6.1,18.9c1.8,5.5,7.6,8.5,13.1,6.7l80.6-25.8c5.5-1.8,8.5-7.6,6.7-13.1l-6.1-18.9
	L207.3,264.1z"/>
<g>
</g>
<g>
</g>
<g>
</g>
<g>
</g>
<g>
</g>
<g>
</g>
<g>
</g>
<g>
</g>
<g>
</g>
<g>
</g>
<g>
</g>
<g>
</g>
<g>
</g>
<g>
</g>
<g>
</g>
</svg>
