<?xml version="1.0" encoding="iso-8859-1"?>
<!-- Generator: Adobe Illustrator 19.0.0, SVG Export Plug-In . SVG Version: 6.00 Build 0)  -->
<svg version="1.1" id="Layer_1" xmlns="http://www.w3.org/2000/svg" xmlns:xlink="http://www.w3.org/1999/xlink" x="0px" y="0px"
	 viewBox="0 0 505 505" style="enable-background:new 0 0 505 505;" xml:space="preserve">
<circle style="fill:#FD8469;" cx="252.5" cy="252.5" r="252.5"/>
<path style="fill:#FFFFFF;" d="M96.9,205.1L96.9,205.1c9.3,0,16.7,7.5,16.7,16.7s-7.5,16.7-16.7,16.7l0,0v6.5l0,0
	c9.2,0,16.7,7.5,16.7,16.7s-7.5,16.7-16.7,16.7l0,0v6.5l0,0c9.2,0,16.7,7.5,16.7,16.7s-7.5,16.7-16.7,16.7l0,0v6.5l0,0
	c9.2,0,16.7,7.5,16.7,16.7s-7.5,16.7-16.7,16.7l0,0v8.5h311.2V196.6H96.9V205.1z"/>
<g>
	<rect x="151.9" y="222" style="fill:#4CDBC4;" width="224.8" height="14.9"/>
	<rect x="151.9" y="274.2" style="fill:#4CDBC4;" width="224.8" height="14.9"/>
	<rect x="151.9" y="326.4" style="fill:#4CDBC4;" width="224.8" height="14.9"/>
</g>
<path style="fill:#324A5E;" d="M202.5,299.9l0.7-1l0.7,1c19.3-66.6,68.5-104.3,68.5-104.3c-19.5-23.9-30.2-53.8-30.2-84.6V89h-39
	h-39v22c0,30.8-10.7,60.7-30.2,84.6C133.9,195.6,183.2,233.3,202.5,299.9z"/>
<g>
	<circle style="fill:#FFD05B;" cx="203.1" cy="297.7" r="8"/>
	<rect x="200.7" y="192.1" style="fill:#FFD05B;" width="4.9" height="99.8"/>
	<circle style="fill:#FFD05B;" cx="203.1" cy="191.6" r="13.6"/>
</g>
<g>
</g>
<g>
</g>
<g>
</g>
<g>
</g>
<g>
</g>
<g>
</g>
<g>
</g>
<g>
</g>
<g>
</g>
<g>
</g>
<g>
</g>
<g>
</g>
<g>
</g>
<g>
</g>
<g>
</g>
</svg>
