<?xml version="1.0" encoding="iso-8859-1"?>
<!-- Generator: Adobe Illustrator 19.0.0, SVG Export Plug-In . SVG Version: 6.00 Build 0)  -->
<svg version="1.1" id="Layer_1" xmlns="http://www.w3.org/2000/svg" xmlns:xlink="http://www.w3.org/1999/xlink" x="0px" y="0px"
	 viewBox="0 0 505 505" style="enable-background:new 0 0 505 505;" xml:space="preserve">
<circle style="fill:#90DFAA;" cx="252.5" cy="252.5" r="252.5"/>
<path style="fill:#324A5E;" d="M358.8,110.1H111.6c-4.4,0-8,3.6-8,8v196.5c0,4.4,3.6,8,8,8h247.2c4.4,0,8-3.6,8-8V118.1
	C366.9,113.7,363.3,110.1,358.8,110.1z"/>
<rect x="122.5" y="128.8" style="fill:#84DBFF;" width="225.4" height="151.5"/>
<rect x="197.5" y="322.7" style="fill:#2B3B4E;" width="75.4" height="32.7"/>
<rect x="169.6" y="355.3" style="fill:#324A5E;" width="131.3" height="25.1"/>
<circle style="fill:#E6E9EE;" cx="235.2" cy="301" r="7.5"/>
<path style="fill:#FFFFFF;" d="M330,319.1c-15,7.4-21.6,26-17.9,45.4l64.9-32.2C363.7,317.6,344.9,311.7,330,319.1z"/>
<path style="fill:#FF7058;" d="M312,364.5c1,5.3,2.8,10.7,5.4,15.9c12.1,24.4,37.3,36.5,56.4,27.1c19-9.4,24.7-36.9,12.6-61.3
	c-2.6-5.2-5.8-9.9-9.4-13.9L312,364.5z"/>
<path style="fill:#324A5E;" d="M333.5,326.2c-1.9,1-2.7,3.3-1.8,5.3l5.1,10.4c1,1.9,3.3,2.7,5.3,1.8c1.9-1,2.7-3.3,1.8-5.3
	l-5.1-10.4C337.8,326,335.4,325.2,333.5,326.2z"/>
<path style="fill:#FFFFFF;" d="M327.7,320.6l-13.8-30.1c-1.9-4.2-2.9-8.7-2.9-13.3c0-17.5,14.3-31.8,31.8-31.8h45.7
	c7.2,0,13-5.8,13-13s-5.8-13-13-13h-21.6v-7.9h21.6c11.5,0,20.9,9.4,20.9,20.9s-9.4,20.9-20.9,20.9h-45.7
	c-13.2,0-23.9,10.7-23.9,23.9c0,3.4,0.8,6.9,2.2,10l13.8,30.1L327.7,320.6z"/>
<g>
</g>
<g>
</g>
<g>
</g>
<g>
</g>
<g>
</g>
<g>
</g>
<g>
</g>
<g>
</g>
<g>
</g>
<g>
</g>
<g>
</g>
<g>
</g>
<g>
</g>
<g>
</g>
<g>
</g>
</svg>
