<?xml version="1.0" encoding="iso-8859-1"?>
<!-- Generator: Adobe Illustrator 19.0.0, SVG Export Plug-In . SVG Version: 6.00 Build 0)  -->
<svg version="1.1" id="Layer_1" xmlns="http://www.w3.org/2000/svg" xmlns:xlink="http://www.w3.org/1999/xlink" x="0px" y="0px"
	 viewBox="0 0 505 505" style="enable-background:new 0 0 505 505;" xml:space="preserve">
<circle style="fill:#FD8469;" cx="252.5" cy="252.5" r="252.5"/>
<path style="fill:#2B3B4E;" d="M205.3,361.5c5,15.9,5,31.8,0,47.7c31.4,2.5,62.9,2.5,94.3,0c-5-15.9-5-31.8,0-47.7
	C268.2,359,236.8,359,205.3,361.5z"/>
<path style="fill:#324A5E;" d="M397.1,149.7H107.9c-3.6,0-6.4,2.9-6.4,6.4V355c0,3.6,2.9,6.4,6.4,6.4h289.2c3.6,0,6.4-2.9,6.4-6.4
	V156.2C403.6,152.6,400.7,149.7,397.1,149.7z"/>
<rect x="122.6" y="170.9" style="fill:#54C0EB;" width="259.9" height="169.5"/>
<path style="fill:#324A5E;" d="M307.4,396.5H197.6c-15.1,0-27.4,10.9-27.4,24.3h164.7C334.8,407.4,322.6,396.5,307.4,396.5z"/>
<polygon style="fill:#FFFFFF;" points="294.8,72.6 167.8,72.6 167.8,280.4 337.2,280.4 337.2,115 "/>
<polygon style="fill:#E6E9EE;" points="294.8,115 337.2,115 294.8,72.6 "/>
<g>
	<rect x="190.3" y="137.9" style="fill:#CED5E0;" width="124.4" height="9.7"/>
	<rect x="190.3" y="171.7" style="fill:#CED5E0;" width="124.4" height="9.7"/>
	<rect x="190.3" y="205.5" style="fill:#CED5E0;" width="124.4" height="9.7"/>
	<rect x="190.3" y="239.3" style="fill:#CED5E0;" width="124.4" height="9.7"/>
</g>
<g>
</g>
<g>
</g>
<g>
</g>
<g>
</g>
<g>
</g>
<g>
</g>
<g>
</g>
<g>
</g>
<g>
</g>
<g>
</g>
<g>
</g>
<g>
</g>
<g>
</g>
<g>
</g>
<g>
</g>
</svg>
