<?xml version="1.0" encoding="iso-8859-1"?>
<!-- Generator: Adobe Illustrator 19.0.0, SVG Export Plug-In . SVG Version: 6.00 Build 0)  -->
<svg version="1.1" id="Layer_1" xmlns="http://www.w3.org/2000/svg" xmlns:xlink="http://www.w3.org/1999/xlink" x="0px" y="0px"
	 viewBox="0 0 505 505" style="enable-background:new 0 0 505 505;" xml:space="preserve">
<circle style="fill:#84DBFF;" cx="252.5" cy="252.5" r="252.5"/>
<path style="fill:#FFFFFF;" d="M365.4,115.6c-75.6-62.4-187.5-51.6-249.8,24c-62.4,75.6-51.6,187.5,24,249.8
	c75.6,62.4,187.5,51.6,249.8-24C451.8,289.8,441,177.9,365.4,115.6z M218.3,294c-22.9-18.9-26.2-52.8-7.3-75.7s52.8-26.2,75.7-7.3
	s26.2,52.8,7.3,75.7C275.1,309.6,241.2,312.9,218.3,294z"/>
<g>
	<path style="fill:#E6E9EE;" d="M282.5,234.4l124.4-69.5c-10.4-18.3-24.2-35.1-41.4-49.3c-17.2-14.2-36.4-24.6-56.4-31.3
		l-44.8,135.2c3.7,1.3,7.3,3.3,10.5,5.9C277.9,228.1,280.5,231.1,282.5,234.4z"/>
	<path style="fill:#E6E9EE;" d="M222.4,270.3L98.1,340c10.4,18.4,24.2,35.2,41.5,49.4c17.2,14.2,36.3,24.6,56.3,31.3l44.5-135.4
		c-3.6-1.3-7.1-3.2-10.2-5.8C227,276.9,224.4,273.7,222.4,270.3z"/>
	<path style="fill:#E6E9EE;" d="M274.8,279.5l88.6,111.6c9.3-7.5,18.1-16,26-25.6s14.7-19.8,20.2-30.4l-126.3-65.9
		c-1.1,2-2.3,3.9-3.8,5.7C278.1,276.5,276.5,278.1,274.8,279.5z"/>
	<path style="fill:#E6E9EE;" d="M230.3,225.4l-88.7-111.5c-9.4,7.5-18.1,16.1-26,25.7c-7.9,9.6-14.6,19.8-20.2,30.4l126.4,65.8
		c1-1.9,2.3-3.8,3.7-5.5C226.9,228.4,228.6,226.8,230.3,225.4z"/>
</g>
<path style="fill:#324A5E;" d="M294,286.7c-18.9,22.9-52.7,26.2-75.7,7.3c-22.9-18.9-26.2-52.7-7.3-75.7
	c18.9-22.9,52.8-26.2,75.7-7.3C309.6,229.9,312.9,263.8,294,286.7z"/>
<path style="fill:#84DBFF;" d="M270.6,267.5c-8.2,10-23.1,11.4-33.1,3.2c-10-8.3-11.4-23.1-3.2-33.1c8.3-10,23.1-11.4,33.1-3.2
	C277.5,242.6,278.9,257.4,270.6,267.5z"/>
<g>
</g>
<g>
</g>
<g>
</g>
<g>
</g>
<g>
</g>
<g>
</g>
<g>
</g>
<g>
</g>
<g>
</g>
<g>
</g>
<g>
</g>
<g>
</g>
<g>
</g>
<g>
</g>
<g>
</g>
</svg>
