<?xml version="1.0" encoding="iso-8859-1"?>
<!-- Generator: Adobe Illustrator 19.0.0, SVG Export Plug-In . SVG Version: 6.00 Build 0)  -->
<svg version="1.1" id="Layer_1" xmlns="http://www.w3.org/2000/svg" xmlns:xlink="http://www.w3.org/1999/xlink" x="0px" y="0px"
	 viewBox="0 0 505 505" style="enable-background:new 0 0 505 505;" xml:space="preserve">
<circle style="fill:#90DFAA;" cx="252.5" cy="252.5" r="252.5"/>
<g>
	<rect x="166.9" y="338.8" style="fill:#2B3B4E;" width="54.1" height="30.6"/>
	<path style="fill:#2B3B4E;" d="M397,116.5H268.1c-2.8,0-5,2.2-5,5v262c0,2.8,2.2,5,5,5H397c2.8,0,5-2.2,5-5v-262
		C402,118.8,399.7,116.5,397,116.5z"/>
</g>
<g>
	<rect x="282.2" y="134.9" style="fill:#E6E9EE;" width="100.7" height="31.8"/>
	<rect x="282.2" y="178.8" style="fill:#E6E9EE;" width="100.7" height="31.8"/>
	<rect x="282.2" y="222.8" style="fill:#E6E9EE;" width="100.7" height="31.8"/>
</g>
<circle style="fill:#FF7058;" cx="332.5" cy="337" r="12.2"/>
<path style="fill:#324A5E;" d="M303.8,170.2H84.2c-2.7,0-4.8,2.2-4.8,4.8v159.4c0,2.7,2.2,4.8,4.8,4.8h219.6c2.7,0,4.8-2.2,4.8-4.8
	V175C308.6,172.3,306.4,170.2,303.8,170.2z"/>
<rect x="96.3" y="187.1" style="fill:#84DBFF;" width="195.4" height="135.2"/>
<rect x="140" y="368.8" style="fill:#324A5E;" width="108" height="19.7"/>
<g>
</g>
<g>
</g>
<g>
</g>
<g>
</g>
<g>
</g>
<g>
</g>
<g>
</g>
<g>
</g>
<g>
</g>
<g>
</g>
<g>
</g>
<g>
</g>
<g>
</g>
<g>
</g>
<g>
</g>
</svg>
