<?xml version="1.0" encoding="iso-8859-1"?>
<!-- Generator: Adobe Illustrator 19.0.0, SVG Export Plug-In . SVG Version: 6.00 Build 0)  -->
<svg version="1.1" id="Layer_1" xmlns="http://www.w3.org/2000/svg" xmlns:xlink="http://www.w3.org/1999/xlink" x="0px" y="0px"
	 viewBox="0 0 505 505" style="enable-background:new 0 0 505 505;" xml:space="preserve">
<circle style="fill:#84DBFF;" cx="252.5" cy="252.5" r="252.5"/>
<polygon style="fill:#E6E9EE;" points="96.7,145.8 96.7,361.7 252.5,253.8 "/>
<polygon style="fill:#FFD05B;" points="96.7,361.7 408.3,361.7 252.5,253.8 "/>
<polygon style="fill:#E6E9EE;" points="252.5,253.8 408.3,361.7 408.3,145.8 "/>
<path style="fill:#FFFFFF;" d="M96.7,145.8L242,279.3c5.9,5.4,15,5.4,21,0l145.3-133.5L96.7,145.8L96.7,145.8z"/>
<path style="fill:#FF7058;" d="M291.8,244.4c-2.8-3.3-4.5-7.5-4.9-11.8c-0.3-3.3-1.7-6.5-4.2-9l0,0c-2.5-2.5-5.7-3.9-9-4.2
	c-4.3-0.4-8.5-2.1-11.8-4.9c-2.5-2.1-5.8-3.4-9.4-3.4l0,0c-3.6,0-6.8,1.3-9.4,3.4c-3.3,2.8-7.5,4.5-11.8,4.9c-3.3,0.3-6.5,1.7-9,4.2
	l0,0c-2.5,2.5-3.9,5.7-4.2,9c-0.4,4.3-2.1,8.5-4.9,11.8c-2.1,2.5-3.4,5.8-3.4,9.4l0,0c0,3.6,1.3,6.8,3.4,9.4
	c2.8,3.3,4.5,7.5,4.9,11.8c0.3,3.3,1.7,6.5,4.2,9l0,0c2.5,2.5,5.7,3.9,9,4.2c4.3,0.4,8.5,2.1,11.8,4.9c2.5,2.1,5.8,3.4,9.4,3.4l0,0
	c3.6,0,6.8-1.3,9.4-3.4c3.3-2.8,7.5-4.5,11.8-4.9c3.3-0.3,6.5-1.7,9-4.2l0,0c2.5-2.5,3.9-5.7,4.2-9c0.4-4.3,2.1-8.5,4.9-11.8
	c2.1-2.5,3.4-5.8,3.4-9.4l0,0C295.2,250.2,293.9,246.9,291.8,244.4z"/>
<circle style="fill:#F1543F;" cx="252.5" cy="253.8" r="26.5"/>
<g>
</g>
<g>
</g>
<g>
</g>
<g>
</g>
<g>
</g>
<g>
</g>
<g>
</g>
<g>
</g>
<g>
</g>
<g>
</g>
<g>
</g>
<g>
</g>
<g>
</g>
<g>
</g>
<g>
</g>
</svg>
