<?xml version="1.0" encoding="iso-8859-1"?>
<!-- Generator: Adobe Illustrator 19.0.0, SVG Export Plug-In . SVG Version: 6.00 Build 0)  -->
<svg version="1.1" id="Layer_1" xmlns="http://www.w3.org/2000/svg" xmlns:xlink="http://www.w3.org/1999/xlink" x="0px" y="0px"
	 viewBox="0 0 505 505" style="enable-background:new 0 0 505 505;" xml:space="preserve">
<circle style="fill:#324A5E;" cx="252.5" cy="252.5" r="252.5"/>
<path style="fill:#FFD05B;" d="M397.1,171.2L262.7,80.5c-3-2-6.6-3.1-10.2-3.1l0,0c-3.6,0-7.2,1.1-10.2,3.1l-134.4,90.7
	c-3,2-4.8,5.4-4.8,9v55.5h298.8v-55.5C401.9,176.6,400.1,173.2,397.1,171.2z"/>
<g>
	<path style="fill:#FFFFFF;" d="M348.6,207.1c-4.8,0.3-8.6,4.3-8.6,9.2v19.4H165v-19.4c0-4.9-3.8-8.9-8.6-9.2l-53.3-3.4v160.8h298.8
		V203.7L348.6,207.1z"/>
	<polygon style="fill:#FFFFFF;" points="103.1,364.5 132.4,364.5 103.1,335.3 	"/>
</g>
<g>
	<polygon style="fill:#FF7058;" points="386.1,246.2 401.9,262 401.9,242.9 386.1,227.1 	"/>
	<polygon style="fill:#FF7058;" points="386.1,292.7 401.9,308.5 401.9,289.4 386.1,273.6 	"/>
	<polygon style="fill:#FF7058;" points="386.1,339.2 401.9,355 401.9,335.9 386.1,320.1 	"/>
	<polygon style="fill:#FF7058;" points="103.1,223.2 103.1,242.3 116.5,255.7 116.5,236.6 	"/>
	<polygon style="fill:#FF7058;" points="103.1,288.8 116.5,302.2 116.5,283.1 103.1,269.7 	"/>
	<polygon style="fill:#FF7058;" points="103.1,335.3 116.5,348.7 116.5,329.6 103.1,316.2 	"/>
	<polygon style="fill:#FF7058;" points="351.7,351.3 364.9,364.5 384,364.5 370.8,351.3 	"/>
	<polygon style="fill:#FF7058;" points="318.4,364.5 337.5,364.5 324.3,351.3 305.2,351.3 	"/>
	<polygon style="fill:#FF7058;" points="271.9,364.5 291,364.5 277.7,351.3 258.7,351.3 	"/>
	<polygon style="fill:#FF7058;" points="225.4,364.5 244.4,364.5 231.2,351.3 212.2,351.3 	"/>
	<polygon style="fill:#FF7058;" points="178.9,364.5 197.9,364.5 184.7,351.3 165.7,351.3 	"/>
	<polygon style="fill:#FF7058;" points="132.4,364.5 151.4,364.5 138.2,351.3 119.1,351.3 	"/>
</g>
<g>
</g>
<g>
</g>
<g>
</g>
<g>
</g>
<g>
</g>
<g>
</g>
<g>
</g>
<g>
</g>
<g>
</g>
<g>
</g>
<g>
</g>
<g>
</g>
<g>
</g>
<g>
</g>
<g>
</g>
</svg>
