<?xml version="1.0" encoding="iso-8859-1"?>
<!-- Generator: Adobe Illustrator 19.0.0, SVG Export Plug-In . SVG Version: 6.00 Build 0)  -->
<svg version="1.1" id="Layer_1" xmlns="http://www.w3.org/2000/svg" xmlns:xlink="http://www.w3.org/1999/xlink" x="0px" y="0px"
	 viewBox="0 0 505 505" style="enable-background:new 0 0 505 505;" xml:space="preserve">
<circle style="fill:#90DFAA;" cx="252.5" cy="252.5" r="252.5"/>
<rect x="179.5" y="227.6" style="fill:#E6E9EE;" width="158" height="83.2"/>
<g>
	<path style="fill:#FFFFFF;" d="M382.5,258.2c-8.4-34.9-44.5-56.9-80.5-46c-27.4,8.3-46,34.6-44.8,63.2
		c1.2,27.6,19.1,49.5,42.7,57.6c17.8,6.2,31.6,20.3,36.1,38.6l0.7,2.9c3.9,16.2,19.2,27.7,35.8,25.6c18.4-2.3,31-19.5,27.9-37.6
		L382.7,258L382.5,258.2z"/>
	<path style="fill:#FFFFFF;" d="M122.5,258.2c8.4-34.9,44.5-56.9,80.5-46c27.4,8.3,46,34.6,44.8,63.2c-1.2,27.6-19.1,49.5-42.7,57.6
		c-17.8,6.2-31.6,20.3-36.1,38.6l-0.7,2.9c-3.9,16.2-19.2,27.7-35.8,25.6c-18.4-2.3-31-19.5-27.9-37.6L122.3,258L122.5,258.2z"/>
</g>
<g>
	<circle style="fill:#FF7058;" cx="293.8" cy="272.4" r="10.9"/>
	<circle style="fill:#FF7058;" cx="348.3" cy="272.4" r="10.9"/>
</g>
<g>
	<circle style="fill:#324A5E;" cx="321" cy="245.1" r="10.9"/>
	<circle style="fill:#324A5E;" cx="321" cy="299.7" r="10.9"/>
	<path style="fill:#324A5E;" d="M204.2,262.8h-15.9v-15.9c0-4.9-4-8.9-8.9-8.9s-8.9,4-8.9,8.9v15.9h-15.9c-4.9,0-8.9,4-8.9,8.9
		s4,8.9,8.9,8.9h15.9v15.9c0,4.9,4,8.9,8.9,8.9s8.9-4,8.9-8.9v-16h15.9c4.9,0,8.9-4,8.9-8.9C213.1,266.7,209.1,262.8,204.2,262.8z"
		/>
	<path style="fill:#324A5E;" d="M259.3,227.6h-11.8v-32.5c0-14.9,12.1-26.9,26.9-26.9h63.8c8.3,0,15.1-6.8,15.1-15.1v-16.8
		c0-8.3-6.8-15.1-15.1-15.1H207c-14.9,0-26.9-12.1-26.9-26.9V73h11.8v21.2c0,8.3,6.8,15.1,15.1,15.1h131.2
		c14.9,0,26.9,12.1,26.9,26.9V153c0,14.9-12.1,26.9-26.9,26.9h-63.8c-8.3,0-15.1,6.8-15.1,15.1L259.3,227.6L259.3,227.6z"/>
</g>
<g>
</g>
<g>
</g>
<g>
</g>
<g>
</g>
<g>
</g>
<g>
</g>
<g>
</g>
<g>
</g>
<g>
</g>
<g>
</g>
<g>
</g>
<g>
</g>
<g>
</g>
<g>
</g>
<g>
</g>
</svg>
