<?xml version="1.0" encoding="iso-8859-1"?>
<!-- Generator: Adobe Illustrator 19.0.0, SVG Export Plug-In . SVG Version: 6.00 Build 0)  -->
<svg version="1.1" id="Layer_1" xmlns="http://www.w3.org/2000/svg" xmlns:xlink="http://www.w3.org/1999/xlink" x="0px" y="0px"
	 viewBox="0 0 505 505" style="enable-background:new 0 0 505 505;" xml:space="preserve">
<circle style="fill:#84DBFF;" cx="252.5" cy="252.5" r="252.5"/>
<path style="fill:#FFFFFF;" d="M375.6,240.3H261v-24.9c0-4.7-3.8-8.5-8.5-8.5c-4.7,0-8.5,3.8-8.5,8.5v24.9H124.3
	c-4.7,0-8.5,3.8-8.5,8.5v36.7c0,4.7,3.8,8.5,8.5,8.5s8.5-3.8,8.5-8.5v-28.2h111.1v28.2c0,4.7,3.8,8.5,8.5,8.5c4.7,0,8.5-3.8,8.5-8.5
	v-28.2H367v28.2c0,4.7,3.8,8.5,8.5,8.5s8.5-3.8,8.5-8.5v-36.7C384.2,244.1,380.4,240.3,375.6,240.3z"/>
<path style="fill:#FF7058;" d="M287.8,285.5h-70.6c-3.8,0-7,3.1-7,7v70.6c0,3.8,3.1,7,7,7h70.6c3.8,0,7-3.1,7-7v-70.6
	C294.7,288.7,291.6,285.5,287.8,285.5z"/>
<g>
	<path style="fill:#324A5E;" d="M328.2,79.8H176.8c-3.8,0-7,3.1-7,7v121.7c0,3.8,3.1,7,7,7h151.4c3.8,0,7-3.1,7-7V86.7
		C335.2,82.9,332.1,79.8,328.2,79.8z"/>
	<path style="fill:#324A5E;" d="M164.6,285.5H94.1c-3.8,0-7,3.1-7,7v70.6c0,3.8,3.1,7,7,7h70.6c3.8,0,7-3.1,7-7v-70.6
		C171.6,288.7,168.5,285.5,164.6,285.5z"/>
	<path style="fill:#324A5E;" d="M410.9,285.5h-70.6c-3.8,0-7,3.1-7,7v70.6c0,3.8,3.1,7,7,7h70.6c3.8,0,7-3.1,7-7v-70.6
		C417.9,288.7,414.8,285.5,410.9,285.5z"/>
</g>
<g>
</g>
<g>
</g>
<g>
</g>
<g>
</g>
<g>
</g>
<g>
</g>
<g>
</g>
<g>
</g>
<g>
</g>
<g>
</g>
<g>
</g>
<g>
</g>
<g>
</g>
<g>
</g>
<g>
</g>
</svg>
