<?xml version="1.0" encoding="iso-8859-1"?>
<!-- Generator: Adobe Illustrator 19.0.0, SVG Export Plug-In . SVG Version: 6.00 Build 0)  -->
<svg version="1.1" id="Layer_1" xmlns="http://www.w3.org/2000/svg" xmlns:xlink="http://www.w3.org/1999/xlink" x="0px" y="0px"
	 viewBox="0 0 505 505" style="enable-background:new 0 0 505 505;" xml:space="preserve">
<circle style="fill:#FD8469;" cx="252.5" cy="252.5" r="252.5"/>
<path style="fill:#4CDBC4;" d="M350.4,129.2H154.6c-5.1,0-9.2,4.1-9.2,9.2v248c0,5.1,4.1,9.2,9.2,9.2h195.8c5.1,0,9.2-4.1,9.2-9.2
	v-248C359.6,133.3,355.5,129.2,350.4,129.2z"/>
<rect x="169.1" y="178.6" style="fill:#FFFFFF;" width="166.9" height="193.3"/>
<rect x="221" y="148.9" style="fill:#FD8469;" width="63" height="9.9"/>
<rect x="231.8" y="74" style="fill:#FFFFFF;" width="41.4" height="79.8"/>
<g>
	<circle style="fill:#324A5E;" cx="252.5" cy="97.7" r="9.7"/>
	<circle style="fill:#324A5E;" cx="252.5" cy="216" r="20.2"/>
	<path style="fill:#324A5E;" d="M293.9,285.4c-0.8-22.1-19-39.8-41.4-39.8s-40.5,17.7-41.4,39.8H293.9z"/>
</g>
<g>
	<rect x="187.8" y="307.5" style="fill:#E6E9EE;" width="129.5" height="11.3"/>
	<rect x="187.8" y="337.2" style="fill:#E6E9EE;" width="67.1" height="11.3"/>
</g>
<g>
</g>
<g>
</g>
<g>
</g>
<g>
</g>
<g>
</g>
<g>
</g>
<g>
</g>
<g>
</g>
<g>
</g>
<g>
</g>
<g>
</g>
<g>
</g>
<g>
</g>
<g>
</g>
<g>
</g>
</svg>
