<?xml version="1.0" encoding="iso-8859-1"?>
<!-- Generator: Adobe Illustrator 19.0.0, SVG Export Plug-In . SVG Version: 6.00 Build 0)  -->
<svg version="1.1" id="Layer_1" xmlns="http://www.w3.org/2000/svg" xmlns:xlink="http://www.w3.org/1999/xlink" x="0px" y="0px"
	 viewBox="0 0 505 505" style="enable-background:new 0 0 505 505;" xml:space="preserve">
<circle style="fill:#324A5E;" cx="252.5" cy="252.5" r="252.5"/>
<g>
	<path style="fill:#FFD05B;" d="M299.1,152.2L299.1,152.2c-2.4,6.5-8.5,10.8-15.4,10.8h-62.4c-6.9,0-13.1-4.3-15.4-10.8l0,0
		c-2.4-6.5-8.5-10.8-15.4-10.8h-52.9c-9.1,0-16.4,7.4-16.4,16.4v63.4c0,9.1,7.4,16.4,16.4,16.4h229.8c9.1,0,16.4-7.4,16.4-16.4
		v-63.4c0-9.1-7.4-16.4-16.4-16.4h-52.9C307.6,141.4,301.5,145.8,299.1,152.2z"/>
	<path style="fill:#FFD05B;" d="M299.1,278.1L299.1,278.1c-2.4,6.5-8.5,10.8-15.4,10.8h-62.4c-6.9,0-13.1-4.3-15.4-10.8l0,0
		c-2.4-6.5-8.5-10.8-15.4-10.8h-52.9c-9.1,0-16.4,7.4-16.4,16.4v63.4c0,9.1,7.4,16.4,16.4,16.4h229.8c9.1,0,16.4-7.4,16.4-16.4
		v-63.4c0-9.1-7.4-16.4-16.4-16.4h-52.9C307.6,267.3,301.5,271.6,299.1,278.1z"/>
</g>
<g>
</g>
<g>
</g>
<g>
</g>
<g>
</g>
<g>
</g>
<g>
</g>
<g>
</g>
<g>
</g>
<g>
</g>
<g>
</g>
<g>
</g>
<g>
</g>
<g>
</g>
<g>
</g>
<g>
</g>
</svg>
