<?xml version="1.0" encoding="iso-8859-1"?>
<!-- Generator: Adobe Illustrator 19.0.0, SVG Export Plug-In . SVG Version: 6.00 Build 0)  -->
<svg version="1.1" id="Layer_1" xmlns="http://www.w3.org/2000/svg" xmlns:xlink="http://www.w3.org/1999/xlink" x="0px" y="0px"
	 viewBox="0 0 505 505" style="enable-background:new 0 0 505 505;" xml:space="preserve">
<circle style="fill:#324A5E;" cx="252.5" cy="252.5" r="252.5"/>
<path style="fill:#E6E9EE;" d="M368.1,101.2H136.9c-4,0-7.2,3.2-7.2,7.2v158.9c0,4,3.2,7.2,7.2,7.2h231.3c4,0,7.2-3.2,7.2-7.2V108.4
	C375.3,104.4,372.1,101.2,368.1,101.2z"/>
<rect x="147.8" y="119.3" style="fill:#4CDBC4;" width="209.5" height="137.1"/>
<polygon style="fill:#E6E9EE;" points="405.5,372.3 99.5,372.3 129.7,288.3 375.3,288.3 "/>
<g>
	<polygon style="fill:#CED5E0;" points="375.3,330.2 129.7,330.2 140.7,295.9 364.3,295.9 	"/>
	<polygon style="fill:#CED5E0;" points="285.7,361 219.3,361 221.3,336.2 283.7,336.2 	"/>
</g>
<g>
</g>
<g>
</g>
<g>
</g>
<g>
</g>
<g>
</g>
<g>
</g>
<g>
</g>
<g>
</g>
<g>
</g>
<g>
</g>
<g>
</g>
<g>
</g>
<g>
</g>
<g>
</g>
<g>
</g>
</svg>
