<?xml version="1.0" encoding="iso-8859-1"?>
<!-- Generator: Adobe Illustrator 19.0.0, SVG Export Plug-In . SVG Version: 6.00 Build 0)  -->
<svg version="1.1" id="Layer_1" xmlns="http://www.w3.org/2000/svg" xmlns:xlink="http://www.w3.org/1999/xlink" x="0px" y="0px"
	 viewBox="0 0 505 505" style="enable-background:new 0 0 505 505;" xml:space="preserve">
<circle style="fill:#84DBFF;" cx="252.5" cy="252.5" r="252.5"/>
<path style="fill:#FF7058;" d="M406.1,171.1c3-3.4,2.9-8.6-0.3-11.8l-51.7-51.7c-3.2-3.2-8.4-3.4-11.8-0.3L164.2,266.8l82.5,82.5
	L406.1,171.1z"/>
<rect x="135.299" y="303.071" transform="matrix(-0.7071 -0.7071 0.7071 -0.7071 104.3458 682.8638)" style="fill:#FFFFFF;" width="116.599" height="33.5"/>
<path style="fill:#E6E9EE;" d="M140.6,290.4c0,0,7.4,29-13,59l36.5,36.5c30-20.5,59-13,59-13L140.6,290.4z"/>
<polygon style="fill:#324A5E;" points="150,399.9 96.7,380.1 127.4,349.3 164,385.9 "/>
<g>
</g>
<g>
</g>
<g>
</g>
<g>
</g>
<g>
</g>
<g>
</g>
<g>
</g>
<g>
</g>
<g>
</g>
<g>
</g>
<g>
</g>
<g>
</g>
<g>
</g>
<g>
</g>
<g>
</g>
</svg>
