<?xml version="1.0" encoding="iso-8859-1"?>
<!-- Generator: Adobe Illustrator 19.0.0, SVG Export Plug-In . SVG Version: 6.00 Build 0)  -->
<svg version="1.1" id="Layer_1" xmlns="http://www.w3.org/2000/svg" xmlns:xlink="http://www.w3.org/1999/xlink" x="0px" y="0px"
	 viewBox="0 0 505 505" style="enable-background:new 0 0 505 505;" xml:space="preserve">
<circle style="fill:#324A5E;" cx="252.5" cy="252.5" r="252.5"/>
<path style="fill:#FFFFFF;" d="M374.5,342.3H155.9c-19.2,0-34.8-15.6-34.8-34.8V125.9c0-19.2,15.6-34.8,34.8-34.8h73.5
	c19.2,0,34.8,15.6,34.8,34.8V188h-13.1v-62.1c0-12-9.8-21.8-21.8-21.8h-73.5c-12,0-21.8,9.8-21.8,21.8v181.5
	c0,12,9.8,21.8,21.8,21.8h218.7V342.3z"/>
<path style="fill:#4CDBC4;" d="M257.7,188c-37.6,0-69.6,30.7-81.5,73.6h163.1C327.2,218.7,295.3,188,257.7,188z"/>
<path style="fill:#FF7058;" d="M176.2,261.6c-3.3,11.7-5,24.3-5,37.4c0,61.3,38.8,110.9,86.6,110.9s86.6-49.7,86.6-110.9
	c0-13.1-1.8-25.7-5-37.4H176.2z"/>
<path style="fill:#324A5E;" d="M257.7,205.7c-4.9,0-8.9,4-8.9,8.9v26c0,4.9,4,8.9,8.9,8.9s8.9-4,8.9-8.9v-26
	C266.5,209.6,262.6,205.7,257.7,205.7z"/>
<path style="fill:#4CDBC4;" d="M369.6,315.8c-4,0-7.2,3.2-7.2,7.2v25.5c0,4,3.2,7.2,7.2,7.2h26.6v-39.8h-26.6V315.8z"/>
<rect x="396.2" y="322.4" style="fill:#E6E9EE;" width="18.2" height="26.7"/>
<g>
	<rect x="400.1" y="328.7" style="fill:#ACB3BA;" width="10.2" height="3.5"/>
	<rect x="400.1" y="339.3" style="fill:#ACB3BA;" width="10.2" height="3.5"/>
</g>
<g>
</g>
<g>
</g>
<g>
</g>
<g>
</g>
<g>
</g>
<g>
</g>
<g>
</g>
<g>
</g>
<g>
</g>
<g>
</g>
<g>
</g>
<g>
</g>
<g>
</g>
<g>
</g>
<g>
</g>
</svg>
