<?xml version="1.0" encoding="iso-8859-1"?>
<!-- Generator: Adobe Illustrator 19.0.0, SVG Export Plug-In . SVG Version: 6.00 Build 0)  -->
<svg version="1.1" id="Layer_1" xmlns="http://www.w3.org/2000/svg" xmlns:xlink="http://www.w3.org/1999/xlink" x="0px" y="0px"
	 viewBox="0 0 505 505" style="enable-background:new 0 0 505 505;" xml:space="preserve">
<circle style="fill:#90DFAA;" cx="252.5" cy="252.5" r="252.5"/>
<path style="fill:#FFFFFF;" d="M388.9,142.4H116.1c-4.1,0-7.4,3.3-7.4,7.4v218.5c0,4.1,3.3,7.4,7.4,7.4h272.8c4.1,0,7.4-3.3,7.4-7.4
	V149.8C396.2,145.7,392.9,142.4,388.9,142.4z"/>
<g>
	<path style="fill:#324A5E;" d="M163.4,167.3L163.4,167.3c-4.5,0-8.2-3.7-8.2-8.2v-33.4c0-4.5,3.7-8.2,8.2-8.2l0,0
		c4.5,0,8.2,3.7,8.2,8.2v33.4C171.6,163.7,167.9,167.3,163.4,167.3z"/>
	<path style="fill:#324A5E;" d="M252.5,167.3L252.5,167.3c-4.5,0-8.2-3.7-8.2-8.2v-33.4c0-4.5,3.7-8.2,8.2-8.2l0,0
		c4.5,0,8.2,3.7,8.2,8.2v33.4C260.7,163.7,257,167.3,252.5,167.3z"/>
	<path style="fill:#324A5E;" d="M341.6,167.3L341.6,167.3c-4.5,0-8.2-3.7-8.2-8.2v-33.4c0-4.5,3.7-8.2,8.2-8.2l0,0
		c4.5,0,8.2,3.7,8.2,8.2v33.4C349.7,163.7,346.1,167.3,341.6,167.3z"/>
</g>
<g>
	<rect x="155.3" y="205.3" style="fill:#CED5E0;" width="194.5" height="17.2"/>
	<rect x="155.3" y="260.3" style="fill:#CED5E0;" width="194.5" height="17.2"/>
	<rect x="155.3" y="315.3" style="fill:#CED5E0;" width="133.4" height="17.2"/>
</g>
<polygon style="fill:#324A5E;" points="261,236.4 265.1,255.1 279.7,240.6 "/>
<polygon style="fill:#E6E9EE;" points="265.1,255.1 272.2,286.8 311.4,247.6 279.7,240.6 "/>
<path style="fill:#324A5E;" d="M305,319.6l59.5,59.5c2.8,2.8,7.5,2.8,10.3,0l28.8-28.8c2.8-2.8,2.8-7.5,0-10.3l-59.4-59.5L305,319.6
	z"/>
<polygon style="fill:#F1543F;" points="285.3,273.7 268.5,270 272.2,286.8 272.2,286.8 "/>
<rect x="262.237" y="310.822" transform="matrix(0.7071 0.7071 -0.7071 0.7071 319.6218 -131.4922)" style="fill:#FF7058;" width="112.599" height="18.5"/>
<polygon style="fill:#F9B54C;" points="298.3,260.7 298.3,260.7 281.6,257 285.3,273.7 285.3,273.7 "/>
<rect x="275.301" y="297.691" transform="matrix(0.7071 0.7071 -0.7071 0.7071 314.1636 -144.5762)" style="fill:#FFD05B;" width="112.599" height="18.5"/>
<polygon style="fill:#F1543F;" points="311.4,247.6 311.4,247.6 294.6,243.9 298.3,260.7 298.3,260.7 "/>
<rect x="288.356" y="284.712" transform="matrix(0.7071 0.7071 -0.7071 0.7071 308.8095 -157.6088)" style="fill:#FF7058;" width="112.599" height="18.5"/>
<g>
</g>
<g>
</g>
<g>
</g>
<g>
</g>
<g>
</g>
<g>
</g>
<g>
</g>
<g>
</g>
<g>
</g>
<g>
</g>
<g>
</g>
<g>
</g>
<g>
</g>
<g>
</g>
<g>
</g>
</svg>
