<?xml version="1.0" encoding="iso-8859-1"?>
<!-- Generator: Adobe Illustrator 19.0.0, SVG Export Plug-In . SVG Version: 6.00 Build 0)  -->
<svg version="1.1" id="Layer_1" xmlns="http://www.w3.org/2000/svg" xmlns:xlink="http://www.w3.org/1999/xlink" x="0px" y="0px"
	 viewBox="0 0 505 505" style="enable-background:new 0 0 505 505;" xml:space="preserve">
<circle style="fill:#FF7058;" cx="252.5" cy="252.5" r="252.5"/>
<path style="fill:#4CDBC4;" d="M365.1,106.9H139.9c-8.1,0-14.7,6.6-14.7,14.7v272.3c0,8.1,6.6,14.7,14.7,14.7h225.2
	c8.1,0,14.7-6.6,14.7-14.7V121.5C379.7,113.4,373.2,106.9,365.1,106.9z"/>
<rect x="148.8" y="129.6" style="fill:#FFFFFF;" width="207.3" height="256.2"/>
<path style="fill:#324A5E;" d="M273.4,92.4V82.2c0-11.6-9.4-20.9-20.9-20.9c-11.6,0-20.9,9.4-20.9,20.9v10.2h-29.9v53h101.6v-53
	C303.3,92.4,273.4,92.4,273.4,92.4z"/>
<rect x="172.7" y="185.5" style="fill:#FF7058;" width="36.9" height="36.9"/>
<rect x="172.7" y="253.8" style="fill:#4CDBC4;" width="36.9" height="36.9"/>
<rect x="172.7" y="322.1" style="fill:#FFD05B;" width="36.9" height="36.9"/>
<g>
	<rect x="226.4" y="185.5" style="fill:#CED5E0;" width="109.1" height="8.7"/>
	<rect x="226.4" y="213.7" style="fill:#CED5E0;" width="54.5" height="8.7"/>
	<rect x="226.4" y="253.8" style="fill:#CED5E0;" width="109.1" height="8.7"/>
	<rect x="226.4" y="282" style="fill:#CED5E0;" width="54.5" height="8.7"/>
	<rect x="226.4" y="322.1" style="fill:#CED5E0;" width="109.1" height="8.7"/>
	<rect x="226.4" y="350.3" style="fill:#CED5E0;" width="54.5" height="8.7"/>
</g>
<g>
</g>
<g>
</g>
<g>
</g>
<g>
</g>
<g>
</g>
<g>
</g>
<g>
</g>
<g>
</g>
<g>
</g>
<g>
</g>
<g>
</g>
<g>
</g>
<g>
</g>
<g>
</g>
<g>
</g>
</svg>
