<?xml version="1.0" encoding="iso-8859-1"?>
<!-- Generator: Adobe Illustrator 19.0.0, SVG Export Plug-In . SVG Version: 6.00 Build 0)  -->
<svg version="1.1" id="Layer_1" xmlns="http://www.w3.org/2000/svg" xmlns:xlink="http://www.w3.org/1999/xlink" x="0px" y="0px"
	 viewBox="0 0 505 505" style="enable-background:new 0 0 505 505;" xml:space="preserve">
<circle style="fill:#FD8469;" cx="252.5" cy="252.5" r="252.5"/>
<g>
	<path style="fill:#2B3B4E;" d="M170.9,351.6c-2.4-1.7-2.9-5.1-1.2-7.5l24.6-33.9c1.7-2.4,5.1-2.9,7.5-1.2c2.4,1.7,2.9,5.1,1.2,7.5
		l-24.6,33.9C176.6,352.8,173.3,353.4,170.9,351.6z"/>
	<path style="fill:#2B3B4E;" d="M311.5,244.3c-1.3-0.9-2.2-2.5-2.2-4.2c-0.3-12.3,5.6-24.8,17.4-37.1c8.9-9.3,18.2-18.4,27-26.8
		c17.7-17,18.2-37.3,1.4-60.2c-1.7-2.4-1.2-5.7,1.2-7.5c2.4-1.7,5.7-1.2,7.5,1.2c19.8,27.1,18.8,53.5-2.7,74.2
		c-8.7,8.4-17.9,17.3-26.7,26.5c-9.8,10.2-14.6,20.1-14.4,29.4c0.1,3-2.3,5.4-5.2,5.5C313.5,245.3,312.4,244.9,311.5,244.3z"/>
</g>
<path style="fill:#E6E9EE;" d="M359.5,91.6c-7.3-5.3-22.9,2.1-39.6,13.9l38.7,28C364.6,114,366.8,96.9,359.5,91.6z"/>
<path style="fill:#4CDBC4;" d="M302.5,236.5c27.7-38.3,47.6-75.8,56-102.9l-38.7-28c-23.2,16.4-52.7,47-80.4,85.2
	c-18.4,25.3-33.3,50.3-43.7,72.2l51.7,37.5C265,283.8,284.1,261.9,302.5,236.5z"/>
<path style="fill:#E6E9EE;" d="M195.7,263.1c-16.7,35-21.9,62-11.1,69.8c10.7,7.8,34.8-5.6,62.9-32.3L195.7,263.1z"/>
<path style="fill:#2B3B4E;" d="M348.3,407.2H142.8c-13,0-23.6-10.6-23.6-23.6s10.6-23.6,23.6-23.6h9.3c3.5,0,6.4,2.9,6.4,6.4
	s-2.9,6.4-6.4,6.4h-9.3c-5.9,0-10.8,4.8-10.8,10.8c0,5.9,4.8,10.8,10.8,10.8h205.5c3.5,0,6.4,2.9,6.4,6.4S351.9,407.2,348.3,407.2z"
	/>
<g>
</g>
<g>
</g>
<g>
</g>
<g>
</g>
<g>
</g>
<g>
</g>
<g>
</g>
<g>
</g>
<g>
</g>
<g>
</g>
<g>
</g>
<g>
</g>
<g>
</g>
<g>
</g>
<g>
</g>
</svg>
