<?xml version="1.0" encoding="iso-8859-1"?>
<!-- Generator: Adobe Illustrator 19.0.0, SVG Export Plug-In . SVG Version: 6.00 Build 0)  -->
<svg version="1.1" id="Layer_1" xmlns="http://www.w3.org/2000/svg" xmlns:xlink="http://www.w3.org/1999/xlink" x="0px" y="0px"
	 viewBox="0 0 505 505" style="enable-background:new 0 0 505 505;" xml:space="preserve">
<circle style="fill:#FD8469;" cx="252.5" cy="252.5" r="252.5"/>
<polygon style="fill:#FFFFFF;" points="168.7,91.7 320.6,91.7 320.6,367.3 102.6,367.3 102.6,157.8 "/>
<polygon style="fill:#E6E9EE;" points="168.7,157.8 102.6,157.8 168.7,91.7 "/>
<g>
	<rect x="137.8" y="193.2" style="fill:#84DBFF;" width="147.7" height="13.8"/>
	<rect x="137.8" y="239.5" style="fill:#84DBFF;" width="147.7" height="13.8"/>
	<rect x="137.8" y="285.9" style="fill:#84DBFF;" width="147.7" height="13.8"/>
</g>
<rect x="319.185" y="257.13" transform="matrix(-0.7071 0.7071 -0.7071 -0.7071 759.1458 232.9122)" style="fill:#2B3B4E;" width="24.3" height="33.1"/>
<path style="fill:#324A5E;" d="M229.7,173c-27.1,27.1-27.1,71,0,98s71,27.1,98,0c27.1-27.1,27.1-71,0-98
	C300.7,145.9,256.8,145.9,229.7,173z M312.1,255.3c-18.4,18.4-48.3,18.4-66.7,0s-18.4-48.3,0-66.7s48.3-18.4,66.7,0
	S330.5,236.9,312.1,255.3z"/>
<path style="fill:#4CDBC4;" d="M409.4,313.9L357.8,270c-1.6-1.4-4-1.3-5.4,0.2l-24.3,24.3c-1.5,1.5-1.6,3.8-0.2,5.4l43.9,51.6
	c10.1,12,28.3,12.8,39.4,1.7C422.2,342.3,421.4,324,409.4,313.9z"/>
<g>
</g>
<g>
</g>
<g>
</g>
<g>
</g>
<g>
</g>
<g>
</g>
<g>
</g>
<g>
</g>
<g>
</g>
<g>
</g>
<g>
</g>
<g>
</g>
<g>
</g>
<g>
</g>
<g>
</g>
</svg>
