<?xml version="1.0" encoding="iso-8859-1"?>
<!-- Generator: Adobe Illustrator 19.0.0, SVG Export Plug-In . SVG Version: 6.00 Build 0)  -->
<svg version="1.1" id="Layer_1" xmlns="http://www.w3.org/2000/svg" xmlns:xlink="http://www.w3.org/1999/xlink" x="0px" y="0px"
	 viewBox="0 0 505 505" style="enable-background:new 0 0 505 505;" xml:space="preserve">
<circle style="fill:#FFD05B;" cx="252.5" cy="252.5" r="252.5"/>
<path style="fill:#324A5E;" d="M358.8,87.8H146.2c-6,0-10.9,4.9-10.9,10.9v307.6c0,6,4.9,10.9,10.9,10.9h212.6
	c6,0,10.9-4.9,10.9-10.9V98.7C369.7,92.7,364.8,87.8,358.8,87.8z"/>
<rect x="154" y="137.8" style="fill:#84DBFF;" width="197" height="229.5"/>
<g>
	<path style="fill:#2B3B4E;" d="M286.8,118.6h-41.4c-3.2,0-5.8-2.6-5.8-5.8l0,0c0-3.2,2.6-5.8,5.8-5.8h41.4c3.2,0,5.8,2.6,5.8,5.8
		l0,0C292.5,116,289.9,118.6,286.8,118.6z"/>
	<circle style="fill:#2B3B4E;" cx="218.4" cy="112.8" r="5.9"/>
	<circle style="fill:#2B3B4E;" cx="252.4" cy="392.2" r="12.1"/>
</g>
<g>
</g>
<g>
</g>
<g>
</g>
<g>
</g>
<g>
</g>
<g>
</g>
<g>
</g>
<g>
</g>
<g>
</g>
<g>
</g>
<g>
</g>
<g>
</g>
<g>
</g>
<g>
</g>
<g>
</g>
</svg>
