<?xml version="1.0" encoding="iso-8859-1"?>
<!-- Generator: Adobe Illustrator 19.0.0, SVG Export Plug-In . SVG Version: 6.00 Build 0)  -->
<svg version="1.1" id="Layer_1" xmlns="http://www.w3.org/2000/svg" xmlns:xlink="http://www.w3.org/1999/xlink" x="0px" y="0px"
	 viewBox="0 0 505 505" style="enable-background:new 0 0 505 505;" xml:space="preserve">
<circle style="fill:#84DBFF;" cx="252.5" cy="252.5" r="252.5"/>
<path style="fill:#324A5E;" d="M394.2,124.7H110.8c-2.7,0-4.9,2.2-4.9,4.9v208.8c0,2.7,2.2,4.9,4.9,4.9h283.4c2.7,0,4.9-2.2,4.9-4.9
	V129.6C399.1,126.9,396.9,124.7,394.2,124.7z"/>
<g>
	<rect x="175.5" y="141.8" style="fill:#2B3B4E;" width="206.5" height="157"/>
	<circle style="fill:#2B3B4E;" cx="140.7" cy="159.4" r="10.3"/>
	<circle style="fill:#2B3B4E;" cx="140.7" cy="200" r="10.3"/>
	<circle style="fill:#2B3B4E;" cx="140.7" cy="240.6" r="10.3"/>
	<circle style="fill:#2B3B4E;" cx="140.7" cy="281.2" r="10.3"/>
</g>
<path style="fill:#FFD05B;" d="M328.5,210.7l-15.9,29.9v149.2c0,3.5,2.8,6.2,6.2,6.2h19.3c3.5,0,6.2-2.8,6.2-6.2V240.6L328.5,210.7z
	"/>
<g>
</g>
<g>
</g>
<g>
</g>
<g>
</g>
<g>
</g>
<g>
</g>
<g>
</g>
<g>
</g>
<g>
</g>
<g>
</g>
<g>
</g>
<g>
</g>
<g>
</g>
<g>
</g>
<g>
</g>
</svg>
