<?xml version="1.0" encoding="iso-8859-1"?>
<!-- Generator: Adobe Illustrator 19.0.0, SVG Export Plug-In . SVG Version: 6.00 Build 0)  -->
<svg version="1.1" id="Layer_1" xmlns="http://www.w3.org/2000/svg" xmlns:xlink="http://www.w3.org/1999/xlink" x="0px" y="0px"
	 viewBox="0 0 505 505" style="enable-background:new 0 0 505 505;" xml:space="preserve">
<circle style="fill:#FD8469;" cx="252.5" cy="252.5" r="252.5"/>
<path style="fill:#324A5E;" d="M385.7,112.8H119.3c-5.8,0-10.6,4.7-10.6,10.6v258.2c0,5.8,4.7,10.6,10.6,10.6h266.4
	c5.8,0,10.6-4.7,10.6-10.6V123.4C396.3,117.5,391.6,112.8,385.7,112.8z"/>
<rect x="130.4" y="139.7" style="fill:#84DBFF;" width="135.6" height="46.1"/>
<g>
	<path style="fill:#FFFFFF;" d="M365.6,139.7h-66.7c-3.9,0-7.1,3.2-7.1,7.1v206.7c0,3.9,3.2,7.1,7.1,7.1h66.7c3.9,0,7.1-3.2,7.1-7.1
		V146.8C372.7,142.8,369.5,139.7,365.6,139.7z"/>
	<rect x="130.4" y="224" style="fill:#FFFFFF;" width="29.6" height="29.6"/>
	<rect x="183.4" y="224" style="fill:#FFFFFF;" width="29.6" height="29.6"/>
	<rect x="236.5" y="224" style="fill:#FFFFFF;" width="29.6" height="29.6"/>
	<rect x="130.4" y="277.5" style="fill:#FFFFFF;" width="29.6" height="29.6"/>
	<rect x="183.4" y="277.5" style="fill:#FFFFFF;" width="29.6" height="29.6"/>
	<rect x="236.5" y="277.5" style="fill:#FFFFFF;" width="29.6" height="29.6"/>
	<rect x="130.4" y="331.1" style="fill:#FFFFFF;" width="29.6" height="29.6"/>
	<rect x="183.4" y="331.1" style="fill:#FFFFFF;" width="29.6" height="29.6"/>
	<rect x="236.5" y="331.1" style="fill:#FFFFFF;" width="29.6" height="29.6"/>
</g>
<g>
</g>
<g>
</g>
<g>
</g>
<g>
</g>
<g>
</g>
<g>
</g>
<g>
</g>
<g>
</g>
<g>
</g>
<g>
</g>
<g>
</g>
<g>
</g>
<g>
</g>
<g>
</g>
<g>
</g>
</svg>
