<?xml version="1.0" encoding="iso-8859-1"?>
<!-- Generator: Adobe Illustrator 19.0.0, SVG Export Plug-In . SVG Version: 6.00 Build 0)  -->
<svg version="1.1" id="Layer_1" xmlns="http://www.w3.org/2000/svg" xmlns:xlink="http://www.w3.org/1999/xlink" x="0px" y="0px"
	 viewBox="0 0 505 505" style="enable-background:new 0 0 505 505;" xml:space="preserve">
<circle style="fill:#84DBFF;" cx="252.5" cy="252.5" r="252.5"/>
<g>
	<path style="fill:#FF7058;" d="M138.8,198.3v204.1c0,5.7,4.6,10.3,10.3,10.3h206.7c5.7,0,10.3-4.6,10.3-10.3V198.3H138.8z"/>
	<path style="fill:#FF7058;" d="M363.7,101.1l-241.8,43.8c-2.1,0.4-3.5,2.4-3.1,4.4l6.5,35.7c0.4,2.1,2.4,3.5,4.4,3.1l241.8-43.8
		c2.1-0.4,3.5-2.4,3.1-4.4l-6.5-35.7C367.7,102.1,365.8,100.7,363.7,101.1z"/>
</g>
<path style="fill:#324A5E;" d="M276.1,93.1l-75,13.6c-2.5,0.4-4.1,2.8-3.7,5.3l3.4,18.6l84-15.2l-3.4-18.6
	C281,94.3,278.6,92.7,276.1,93.1z"/>
<g>
	<rect x="187.9" y="239.6" style="fill:#F1543F;" width="21.5" height="131.7"/>
	<rect x="241.8" y="239.6" style="fill:#F1543F;" width="21.5" height="131.7"/>
	<rect x="295.7" y="239.6" style="fill:#F1543F;" width="21.5" height="131.7"/>
</g>
<g>
</g>
<g>
</g>
<g>
</g>
<g>
</g>
<g>
</g>
<g>
</g>
<g>
</g>
<g>
</g>
<g>
</g>
<g>
</g>
<g>
</g>
<g>
</g>
<g>
</g>
<g>
</g>
<g>
</g>
</svg>
