<?xml version="1.0" encoding="iso-8859-1"?>
<!-- Generator: Adobe Illustrator 19.0.0, SVG Export Plug-In . SVG Version: 6.00 Build 0)  -->
<svg version="1.1" id="Layer_1" xmlns="http://www.w3.org/2000/svg" xmlns:xlink="http://www.w3.org/1999/xlink" x="0px" y="0px"
	 viewBox="0 0 505 505" style="enable-background:new 0 0 505 505;" xml:space="preserve">
<circle style="fill:#FFD05B;" cx="252.5" cy="252.5" r="252.5"/>
<polygon style="fill:#2B3B4E;" points="241.2,268.9 229.9,249.3 241.2,229.7 263.8,229.7 275.1,249.3 263.8,268.9 "/>
<polygon style="fill:#324A5E;" points="279,348.1 252.5,372.1 226,348.1 241.2,268.9 263.8,268.9 "/>
<path style="fill:#FF7058;" d="M320.7,248.1l-68.2,115.7l-68.2-115.7c-48.9,24.2-83.1,73.6-85.6,131.3h307.6
	C403.8,321.7,369.6,272.3,320.7,248.1z"/>
<circle style="fill:#FFFFFF;" cx="252.5" cy="137.1" r="74.6"/>
<path style="fill:#324A5E;" d="M272.5,65.3c-2.1-0.6-4.3-1.1-6.5-1.5c-4.4-0.8-8.9-1.3-13.5-1.3c-38.5,0-70.1,29.1-74.1,66.5
	c-1,8.1-0.1,18.8,0.3,18.7c38.3-9,79.1-33.5,89-58c7.3,20.5,26.8,39.4,49.8,39.4c3.1,0,6.1-0.3,9.1-0.8
	C322.9,98,301.2,73.3,272.5,65.3z"/>
<g>
</g>
<g>
</g>
<g>
</g>
<g>
</g>
<g>
</g>
<g>
</g>
<g>
</g>
<g>
</g>
<g>
</g>
<g>
</g>
<g>
</g>
<g>
</g>
<g>
</g>
<g>
</g>
<g>
</g>
</svg>
