<?xml version="1.0" encoding="iso-8859-1"?>
<!-- Generator: Adobe Illustrator 19.0.0, SVG Export Plug-In . SVG Version: 6.00 Build 0)  -->
<svg xmlns="http://www.w3.org/2000/svg" xmlns:xlink="http://www.w3.org/1999/xlink" version="1.1" id="Layer_1" x="0px" y="0px" viewBox="0 0 508 508" style="enable-background:new 0 0 508 508;" xml:space="preserve">
<circle style="fill:#90DFAA;" cx="254" cy="254" r="254"/>
<polygon style="fill:#324A5E;" points="430.4,248 268.4,248 382.8,133.6 374.4,125.2 260,239.6 260,77.6 248,77.6 248,239.6   133.6,125.2 125.2,133.6 239.6,248 77.6,248 77.6,260 239.6,260 125.2,374.4 133.6,382.8 248,268.4 248,430.4 260,430.4 260,268.4   374.4,382.8 382.8,374.4 268.4,260 430.4,260 "/>
<g>
	<circle style="fill:#FFFFFF;" cx="254" cy="254" r="105.6"/>
	<circle style="fill:#FFFFFF;" cx="430.4" cy="254" r="28.4"/>
	<circle style="fill:#FFFFFF;" cx="77.6" cy="254" r="28.4"/>
	<circle style="fill:#FFFFFF;" cx="254" cy="430.4" r="28.4"/>
	<circle style="fill:#FFFFFF;" cx="254" cy="77.6" r="28.4"/>
	<circle style="fill:#FFFFFF;" cx="378.8" cy="378.8" r="28.4"/>
	<circle style="fill:#FFFFFF;" cx="129.2" cy="129.2" r="28.4"/>
	<circle style="fill:#FFFFFF;" cx="129.2" cy="378.8" r="28.4"/>
	<circle style="fill:#FFFFFF;" cx="378.8" cy="129.2" r="28.4"/>
</g>
<path style="fill:#FF7058;" d="M250,327.6v-12.8c-16.4-1.6-30.8-8-43.6-19.2l12.8-15.6c10,8.8,20.4,14,30.8,15.6v-34.4  c-13.2-3.2-23.2-7.6-29.6-12.8c-6.4-5.2-9.2-12.8-9.2-23.2s3.6-18.8,10.8-25.2s16.4-10,28-10.8v-8.8h11.2v9.2  c13.2,0.8,25.2,5.2,36.8,13.2l-11.6,16.4c-8-5.6-16.4-9.2-25.6-10.4V242h1.2c13.6,3.2,23.6,7.6,30,12.8c6.4,5.6,9.6,13.2,9.6,23.6  s-3.6,18.8-11.2,25.2c-7.2,6.4-17.2,10-29.2,10.8v12.8H250V327.6z M237.6,212.8c-3.2,2.8-4.4,6-4.4,10s1.2,7.2,3.6,9.6  c2.4,2.4,6.8,4.4,13.6,6.8v-30.8C244.8,208.8,240.4,210.4,237.6,212.8z M274.8,290.8c3.2-2.8,4.8-6,4.8-10.4c0-4-1.2-7.6-4-10  s-7.6-4.8-14.4-6.8v32C267.2,295.2,271.6,293.6,274.8,290.8z"/>
<g>
</g>
<g>
</g>
<g>
</g>
<g>
</g>
<g>
</g>
<g>
</g>
<g>
</g>
<g>
</g>
<g>
</g>
<g>
</g>
<g>
</g>
<g>
</g>
<g>
</g>
<g>
</g>
<g>
</g>
</svg>
