<?xml version="1.0" encoding="iso-8859-1"?>
<!-- Generator: Adobe Illustrator 19.0.0, SVG Export Plug-In . SVG Version: 6.00 Build 0)  -->
<svg xmlns="http://www.w3.org/2000/svg" xmlns:xlink="http://www.w3.org/1999/xlink" version="1.1" id="Layer_1" x="0px" y="0px" viewBox="0 0 508 508" style="enable-background:new 0 0 508 508;" xml:space="preserve">
<circle style="fill:#324A5E;" cx="254" cy="254" r="254"/>
<path style="fill:#ACB3BA;" d="M377.2,316.8h-242c-0.7,0-1.4-0.4-1.7-1s-0.3-1.4,0.1-2l121.2-191.6c0.4-0.6,1-0.9,1.7-0.9l0,0  c0.7,0,1.3,0.3,1.7,0.9L379,313.8c0.4,0.6,0.4,1.4,0.1,2C378.6,316.4,377.9,316.8,377.2,316.8z M138.8,312.8h234.9l-117.3-186  L138.8,312.8z"/>
<g>
	<circle style="fill:#FFFFFF;" cx="256.4" cy="123.2" r="71.6"/>
	<circle style="fill:#FFFFFF;" cx="370.8" cy="314.8" r="71.6"/>
</g>
<circle style="fill:#84DBFF;" cx="370.8" cy="314.8" r="52.8"/>
<circle style="fill:#324A5E;" cx="370.8" cy="314.8" r="7.2"/>
<circle style="fill:#FFFFFF;" cx="139.6" cy="314.8" r="71.6"/>
<circle style="fill:#FFD05B;" cx="139.6" cy="314.8" r="52.8"/>
<circle style="fill:#FF7058;" cx="256.4" cy="123.2" r="52.8"/>
<g>
	<path style="fill:#FFFFFF;" d="M137.6,352v-6.4c-8.4-0.8-15.6-4-22-10l6.4-8c5.2,4.4,10.4,6.8,15.6,8V318   c-6.8-1.6-11.6-3.6-14.8-6.4s-4.8-6.4-4.8-11.6s2-9.6,5.6-12.8c3.6-3.2,8.4-5.2,14-5.2v-4.4h5.6v4.4c6.4,0.4,12.8,2.8,18.8,6.8   l-6,8.4c-4-2.8-8.4-4.4-12.8-5.2v16.8h0.4c6.8,1.6,12,4,15.2,6.4c3.2,2.8,4.8,6.8,4.8,12s-2,9.6-5.6,12.8   c-3.6,3.2-8.8,5.2-14.8,5.2v6.4h-5.6L137.6,352L137.6,352z M131.6,294c-1.6,1.2-2.4,3.2-2.4,5.2s0.4,3.6,1.6,4.8   c1.2,1.2,3.6,2.4,6.8,3.2v-15.6C135.2,292,132.8,292.8,131.6,294z M150.4,333.6c1.6-1.2,2.4-3.2,2.4-5.2s-0.8-3.6-2-4.8   c-1.2-1.2-3.6-2.4-7.2-3.6v16C146.4,335.6,148.8,334.8,150.4,333.6z"/>
	<path style="fill:#FFFFFF;" d="M244.8,154.4c-1.6-0.4-3.2-1.2-4.4-2.8L226,132.8c-2.4-3.2-2-8,1.2-10.4s8-2,10.4,1.2l8,10.4   l27.2-40c2.4-3.6,6.8-4.4,10.4-2s4.4,6.8,2,10.4L252,151.2c-1.2,2-3.6,3.2-6,3.2C246,154.4,245.2,154.4,244.8,154.4z"/>
</g>
<g>
	<rect x="368.4" y="268" style="fill:#324A5E;" width="5.2" height="11.6"/>
	<rect x="368.4" y="348.4" style="fill:#324A5E;" width="5.2" height="11.6"/>
	<rect x="405.2" y="311.2" style="fill:#324A5E;" width="11.6" height="5.2"/>
	<rect x="324.8" y="311.2" style="fill:#324A5E;" width="11.6" height="5.2"/>
	
		<rect x="396.81" y="279.589" transform="matrix(0.7071 0.7071 -0.7071 0.7071 318.7848 -198.837)" style="fill:#324A5E;" width="5.2" height="11.6"/>
	
		<rect x="340.106" y="336.507" transform="matrix(0.7071 0.7071 -0.7071 0.7071 342.4243 -142.0705)" style="fill:#324A5E;" width="5.2" height="11.6"/>
	
		<rect x="396.967" y="336.715" transform="matrix(-0.7071 0.7071 -0.7071 -0.7071 924.2985 302.1723)" style="fill:#324A5E;" width="5.2" height="11.6"/>
	
		<rect x="339.878" y="279.826" transform="matrix(-0.7071 0.7071 -0.7071 -0.7071 786.6144 245.4256)" style="fill:#324A5E;" width="5.2" height="11.6"/>
</g>
<g>
</g>
<g>
</g>
<g>
</g>
<g>
</g>
<g>
</g>
<g>
</g>
<g>
</g>
<g>
</g>
<g>
</g>
<g>
</g>
<g>
</g>
<g>
</g>
<g>
</g>
<g>
</g>
<g>
</g>
</svg>
