<?xml version="1.0" encoding="iso-8859-1"?>
<!-- Generator: Adobe Illustrator 19.0.0, SVG Export Plug-In . SVG Version: 6.00 Build 0)  -->
<svg xmlns="http://www.w3.org/2000/svg" xmlns:xlink="http://www.w3.org/1999/xlink" version="1.1" id="Layer_1" x="0px" y="0px" viewBox="0 0 508 508" style="enable-background:new 0 0 508 508;" xml:space="preserve">
<circle style="fill:#84DBFF;" cx="254" cy="254" r="254"/>
<path style="fill:#324A5E;" d="M375.6,358.4v16h-248v-16h11.6V245.6c0-4.4,4-8,8.8-8s8.8,3.6,8.8,8v112.8h190.4V245.6  c0-4.4,4-8,8.8-8s8.8,3.6,8.8,8v112.8L375.6,358.4L375.6,358.4z"/>
<g>
	<path style="fill:#FFFFFF;" d="M299.6,268.4c-8.8-4.8-17.2-11.2-24-18c-3.2-3.2-6-6.4-8.4-9.6c0.8-6.8,1.2-10.8,1.2-10.8l0,0   c0.8,0.4,13.6,8,19.6,8C291.2,237.6,298,253.2,299.6,268.4z"/>
	<path style="fill:#FFFFFF;" d="M400.8,265.6l-5.2,8.8l-0.8,1.2c-2,0.8-4.4,1.6-6.4,2c-2,0.8-4,1.2-6,1.6c-0.8,0-1.2,0.4-2,0.4   c-2.4,0.4-4.8,0.8-7.2,1.2c-2.4,0.4-5.2,0.8-8,0.8c-0.4,0-0.4,0-0.8,0c-0.8,0-1.2,0-2,0c-2.4,0-5.2,0.4-7.6,0.4   c-2.8,0-5.2,0-7.6-0.4c-0.8,0-1.2,0-2,0c-0.4,0-0.4,0-0.8,0c-2.8-0.4-5.2-0.4-7.6-0.8c-11.2-1.6-21.6-5.2-31.6-9.6   c-3.6-13.2-7.6-28-5.6-30c3.6-3.6,16.8-20,16.8-20l5.2-1.2l10.4-2.8l1.6-0.4h0.8l1.6-0.4l7.2-2l12-3.2l12.4,2.8l7.2,1.6l1.2,0.4   h0.8l1.6,0.4l11.2,2.8l8.8,2L400.8,265.6z"/>
	<path style="fill:#FFFFFF;" d="M364,278l0.8,4c-0.8,0-1.2,0-2,0c-2.4,0-5.2,0.4-7.6,0.4c-2.8,0-5.2,0-7.6-0.4c-0.8,0-1.2,0-2,0   l0.8-4l7.2-37.2l-8-9.2l-7.6-8.4h34l-7.2,8.4l-8,9.2L364,278z"/>
	<path style="fill:#FFFFFF;" d="M376.4,206.4c0,14.4-9.6,16.4-21.2,16.4c-12,0-21.2-2-21.2-16.4s9.6-37.6,21.2-37.6   C366.8,168.8,376.4,192,376.4,206.4z"/>
	<path style="fill:#FFFFFF;" d="M344.4,282c-2.8-0.4-5.2-0.4-7.6-0.8c-11.2-1.6-21.6-5.2-31.6-9.6c-2-0.8-4-2-5.6-2.8   c-8.8-4.8-17.2-11.2-24-18c-4-12-7.2-20-7.2-20.4l0,0c36.8-8.8,52.8-17.6,59.6-22.8c4-2.8,4.8-4.8,4.8-4.8c0,0.4,0,0.8,0,0.8   c0.4,4.4,0.4,8.8,1.2,13.2c0.4,2.8,0.4,5.6,0.8,8C336.8,247.2,340.4,266.4,344.4,282z"/>
	<path style="fill:#FFFFFF;" d="M347.2,282c-0.8,0-1.2,0-2,0c-0.4,0-0.4,0-0.8,0c-2.8-0.4-5.2-0.4-7.6-0.8   c-10.8-25.6-20.4-51.6-20.4-51.6l10-4.8l-5.2-4.8l-0.8-0.8c2-4.4,4.4-8.8,7.2-12c2.8-3.6,5.2-6,6.4-7.2l0,0   c0.4-0.4,0.8-0.4,0.8-0.4v0.4c0,0.4,0,0.4-0.4,0.8c-0.8,2.4-0.8,5.6-0.8,9.2l0,0c0,2,0,4.4,0.4,6.8c0.4,3.2,0.8,7.2,1.2,10.8l0,0   c2.8,14.8,6.8,33.2,10.8,50.4C346.4,279.2,346.8,280.8,347.2,282z"/>
	<path style="fill:#FFFFFF;" d="M443.2,240.8c-2.8,3.2-5.6,6.8-8.4,9.6c-7.2,7.2-15.2,13.2-24,18c1.2-15.2,8-30.8,12-30.8   c6,0,18.8-7.2,19.6-8l0,0C442.4,229.6,442.4,234,443.2,240.8z"/>
	<path style="fill:#FFFFFF;" d="M442,230L442,230c0,0.4-3.2,8.4-7.2,20.4c-7.2,7.2-15.2,13.2-24,18c-4.4,2.4-9.2,4.8-14.4,6.8   c-0.4,0-0.8,0.4-1.2,0.4c-2,0.8-4.4,1.6-6.4,2c-2,0.8-4,1.2-6,1.6c-0.8,0-1.2,0.4-2,0.4c-2.4,0.4-4.8,0.8-7.2,1.2   c-2.4,0.4-5.2,0.8-8,0.8c4-15.6,8-35.2,10.4-57.6c0.4-2.8,0.4-5.6,0.8-8.4c0.4-4,0.8-8.4,0.8-12.8l0,0c0-0.4,0-0.4,0-0.8   c0,0,0.8,1.6,4.8,4.8C389.2,212.4,405.2,220.8,442,230z"/>
	<path style="fill:#FFFFFF;" d="M393.6,229.2c0,0-9.6,26-20.4,51.6c-2.4,0.4-5.2,0.8-8,0.8c-0.4,0-0.4,0-0.8,0c-0.8,0-1.2,0-2,0   c0.4-1.6,0.8-2.8,1.2-4.4c4.4-17.2,8.4-35.6,10.8-50.4l0,0c0.8-4,1.2-8,1.6-11.2c0.4-2.4,0.4-4.8,0.4-6.8c0,0,0,0,0-0.4l0,0   c0-3.6,0-6.8-0.8-8.8l0,0v-0.4v-0.4c0,0,0.4,0,0.8,0.4l0,0c1.2,1.2,3.6,4,6.4,7.2c2.4,3.2,5.2,7.6,7.2,12l0,0l-6,5.6L393.6,229.2z"/>
	<ellipse style="fill:#FFFFFF;" cx="355.2" cy="164.8" rx="36.8" ry="42.4"/>
	<path style="fill:#FFFFFF;" d="M398,164c-2.4,6-6.8,10-10.4,9.2c-3.6-1.2-4.4-6.8-2-12.8s6.8-10,10.4-9.2   C399.2,152,400.4,158,398,164z"/>
	<path style="fill:#FFFFFF;" d="M312,164c2.4,6,6.8,10,10.4,9.2c3.6-1.2,4.4-6.8,2-12.8c-2-6.4-6.8-10.4-10.4-9.2   C310.8,152,309.6,158,312,164z"/>
</g>
<path style="fill:#324A5E;" d="M321.6,170.8c-18.8-36.4,7.6-48,7.6-48l-12.4,6.4c37.6-41.6,64.8-7.6,64.8-7.6  c26,18.4,9.2,46.4,9.2,46.4s-3.2-20.4-14.4-29.6c0,0-13.2,14-44.4,1.2c0,0-7.2,10-4.8,23.6c0,0-3.2-2-4-8.8  C323.2,154.4,319.6,163.6,321.6,170.8L321.6,170.8z"/>
<g>
	<path style="fill:#FFFFFF;" d="M335.2,198.8c0,0,3.2,16.8,20,24c0,0-11.2,8-13.6,14.4C341.6,237.6,323.6,213.6,335.2,198.8z"/>
	<path style="fill:#FFFFFF;" d="M374.8,198.8c0,0-3.2,16.8-20,24c0,0,11.2,8,13.6,14.4C368.4,237.6,386.4,213.6,374.8,198.8z"/>
	<path style="fill:#FFFFFF;" d="M396,274.8c-0.4,0-0.8,0.4-1.2,0.4c-2,0.8-4.4,1.6-6.4,2l5.2-4.8L396,274.8z"/>
	<path style="fill:#FFFFFF;" d="M97.6,268.4c-8.8-4.8-17.2-11.2-24-18c-3.2-3.2-6-6.4-8.4-9.6C65.6,234,66,230,66,230l0,0   c0.8,0.4,13.6,8,19.6,8C89.2,237.6,96,253.2,97.6,268.4z"/>
	<path style="fill:#FFFFFF;" d="M198.8,265.6l-5.2,8.8l-0.8,1.2c-2,0.8-4.4,1.6-6.4,2c-2,0.8-4,1.2-6,1.6c-0.8,0-1.2,0.4-2,0.4   c-2.4,0.4-4.8,0.8-7.2,1.2c-2.4,0.4-5.2,0.8-8,0.8c-0.4,0-0.4,0-0.8,0c-0.8,0-1.2,0-2,0c-2.4,0-5.2,0.4-7.6,0.4   c-2.8,0-5.2,0-7.6-0.4c-0.8,0-1.2,0-2,0c-0.4,0-0.4,0-0.8,0c-2.8-0.4-5.2-0.4-7.6-0.8c-11.2-1.6-21.6-5.2-31.6-9.6   c-3.6-13.2-7.6-28-5.6-30c3.6-3.6,16.8-20,16.8-20l5.2-1.2l10.4-2.8l1.6-0.4h0.8l1.6-0.4l7.2-2l12-3.2l12.4,2.8l7.2,1.6l1.2,0.4   h0.8l1.6,0.4l11.2,2.8l8.8,2L198.8,265.6z"/>
	<path style="fill:#FFFFFF;" d="M162,278l0.8,4c-0.8,0-1.2,0-2,0c-2.4,0-5.2,0.4-7.6,0.4c-2.8,0-5.2,0-7.6-0.4c-0.8,0-1.2,0-2,0   l0.8-4l7.2-37.2l-8-9.2l-7.2-8.4H170l-7.2,8.4l-8,9.2L162,278z"/>
	<path style="fill:#FFFFFF;" d="M174.4,206.4c0,14.4-9.6,16.4-21.2,16.4c-12,0-21.2-2-21.2-16.4s9.6-37.6,21.2-37.6   C164.8,168.8,174.4,192,174.4,206.4z"/>
	<path style="fill:#FFFFFF;" d="M142.4,282c-2.8-0.4-5.2-0.4-7.6-0.8c-11.2-1.6-21.6-5.2-31.6-9.6c-2-0.8-4-2-5.6-2.8   c-8.8-4.8-17.2-11.2-24-18c-4-12-7.2-20-7.2-20.4l0,0c36.8-8.8,52.8-17.6,59.6-22.8c4-2.8,4.8-4.8,4.8-4.8c0,0.4,0,0.8,0,0.8   c0.4,4.4,0.4,8.8,1.2,13.2c0.4,2.8,0.4,5.6,0.8,8C134.8,247.2,138.4,266.4,142.4,282z"/>
	<path style="fill:#FFFFFF;" d="M145.2,282c-0.8,0-1.2,0-2,0c-0.4,0-0.4,0-0.8,0c-2.8-0.4-5.2-0.4-7.6-0.8   c-10.8-25.6-20.4-51.6-20.4-51.6l10-4.8l-5.2-4.8l-0.8-0.8c2-4.4,4.4-8.8,7.2-12c2.8-3.6,5.2-6,6.4-7.2l0,0   c0.4-0.4,0.8-0.4,0.8-0.4v0.4c0,0.4,0,0.4-0.4,0.8c-0.8,2.4-0.8,5.6-0.8,9.2l0,0c0,2,0,4.4,0.4,6.8c0.4,3.2,0.8,7.2,1.2,10.8l0,0   c2.4,15.2,6.4,33.6,10.8,50.4C144.4,279.2,144.8,280.8,145.2,282z"/>
	<path style="fill:#FFFFFF;" d="M241.2,240.8c-2.8,3.2-5.6,6.8-8.4,9.6c-7.2,7.2-15.2,13.2-24,18c1.2-15.2,8-30.8,12-30.8   c6,0,18.8-7.2,19.6-8l0,0C240.4,229.6,240.4,234,241.2,240.8z"/>
	<path style="fill:#FFFFFF;" d="M240,230L240,230c0,0.4-3.2,8.4-7.2,20.4c-7.2,7.2-15.2,13.2-24,18c-4.4,2.4-9.2,4.8-14.4,6.8   c-0.4,0-0.8,0.4-1.2,0.4c-2,0.8-4.4,1.6-6.4,2c-2,0.8-4,1.2-6,1.6c-0.8,0-1.2,0.4-2,0.4c-2.4,0.4-4.8,0.8-7.2,1.2   c-2.4,0.4-5.2,0.8-8,0.8c4-15.6,8-35.2,10.4-57.6c0.4-2.8,0.4-5.6,0.8-8.4c0.4-4,0.8-8.4,0.8-12.8l0,0c0-0.4,0-0.4,0-0.8   c0,0,0.8,1.6,4.8,4.8C187.2,212.4,203.2,220.8,240,230z"/>
	<path style="fill:#FFFFFF;" d="M191.6,229.2c0,0-9.6,26-20.4,51.6c-2.4,0.4-5.2,0.8-8,0.8c-0.4,0-0.4,0-0.8,0c-0.8,0-1.2,0-2,0   c0.4-1.6,0.8-2.8,1.2-4.4c4.4-17.2,8.4-35.6,10.8-50.4l0,0c0.8-4,1.2-8,1.6-11.2c0.4-2.4,0.4-4.8,0.4-6.8c0,0,0,0,0-0.4l0,0   c0-3.6,0-6.8-0.8-8.8l0,0v-0.4v-0.4c0,0,0.4,0,0.8,0.4l0,0c1.2,1.2,3.6,4,6.4,7.2c2.4,3.2,5.2,7.6,7.2,12l0,0l-6,5.6L191.6,229.2z"/>
	<ellipse style="fill:#FFFFFF;" cx="152.8" cy="164.8" rx="36.8" ry="42.4"/>
	<path style="fill:#FFFFFF;" d="M196,164c-2,6-6.8,10-10.4,9.2c-3.6-1.2-4.4-6.8-2-12.8s6.8-10,10.4-9.2   C197.2,152,198.4,158,196,164z"/>
	<path style="fill:#FFFFFF;" d="M110,164c2.4,6,6.8,10,10.4,9.2c3.6-1.2,4.4-6.8,2-12.8s-6.8-10-10.4-9.2   C108.8,152,107.6,158,110,164z"/>
</g>
<path style="fill:#324A5E;" d="M119.6,170.8c-18.8-36.4,7.6-48,7.6-48l-12.4,6.4c37.6-41.6,64.8-7.6,64.8-7.6  c26,18.4,9.2,46.4,9.2,46.4s-3.2-20.4-14.4-29.6c0,0-13.2,14-44.4,1.2c0,0-7.2,10-4.8,23.6c0,0-3.2-2-4-8.8  C121.2,154.4,117.6,163.6,119.6,170.8L119.6,170.8z"/>
<g>
	<path style="fill:#FFFFFF;" d="M133.2,198.8c0,0,3.2,16.8,20,24c0,0-11.2,8-13.6,14.4C139.6,237.6,121.6,213.6,133.2,198.8z"/>
	<path style="fill:#FFFFFF;" d="M172.8,198.8c0,0-3.2,16.8-20,24c0,0,11.2,8,13.6,14.4C166.4,237.6,184.4,213.6,172.8,198.8z"/>
	<path style="fill:#FFFFFF;" d="M194,274.8c-0.4,0-0.8,0.4-1.2,0.4c-2,0.8-4.4,1.6-6.4,2l5.2-4.8L194,274.8z"/>
</g>
<g>
	<circle style="fill:#FF7058;" cx="355.6" cy="367.6" r="31.6"/>
	<circle style="fill:#FF7058;" cx="148" cy="367.6" r="31.6"/>
</g>
<g>
</g>
<g>
</g>
<g>
</g>
<g>
</g>
<g>
</g>
<g>
</g>
<g>
</g>
<g>
</g>
<g>
</g>
<g>
</g>
<g>
</g>
<g>
</g>
<g>
</g>
<g>
</g>
<g>
</g>
</svg>
