<?xml version="1.0" encoding="iso-8859-1"?>
<!-- Generator: Adobe Illustrator 19.0.0, SVG Export Plug-In . SVG Version: 6.00 Build 0)  -->
<svg xmlns="http://www.w3.org/2000/svg" xmlns:xlink="http://www.w3.org/1999/xlink" version="1.1" id="Layer_1" x="0px" y="0px" viewBox="0 0 508 508" style="enable-background:new 0 0 508 508;" xml:space="preserve">
<circle style="fill:#4CDBC4;" cx="254" cy="254" r="254"/>
<ellipse style="fill:#FFFFFF;" cx="254" cy="238" rx="162" ry="134"/>
<path style="fill:#FFFFFF;" d="M180,329.6c37.6,74.4,97.6,81.6,166,70c0,0-74-22.4-102.4-90L180,329.6z"/>
<path style="fill:#324A5E;" d="M358.4,174.4H314l19.6,19.6l-64.8,64.8l-42-41.6c-1.6-1.6-4.4-1.6-5.6,0l-54,54c-1.6,1.6-1.6,4,0,5.6  c0.8,0.8,2,1.2,2.8,1.2s2-0.4,2.8-1.2l51.2-51.2l42,42c1.6,1.6,4.4,1.6,5.6,0l68-68l19.2,19.2L358.4,174.4z"/>
<circle style="fill:#FF7058;" cx="269.2" cy="262" r="19.2"/>
<circle style="fill:#F1543F;" cx="269.2" cy="262" r="9.6"/>
<g>
	<circle style="fill:#FF7058;" cx="224.4" cy="220.4" r="19.2"/>
	<circle style="fill:#FF7058;" cx="168.4" cy="274" r="19.2"/>
</g>
<g>
	<circle style="fill:#F1543F;" cx="224.4" cy="220.4" r="9.6"/>
	<circle style="fill:#F1543F;" cx="168.4" cy="274" r="9.6"/>
</g>
<g>
</g>
<g>
</g>
<g>
</g>
<g>
</g>
<g>
</g>
<g>
</g>
<g>
</g>
<g>
</g>
<g>
</g>
<g>
</g>
<g>
</g>
<g>
</g>
<g>
</g>
<g>
</g>
<g>
</g>
</svg>
