<?xml version="1.0" encoding="iso-8859-1"?>
<!-- Generator: Adobe Illustrator 19.0.0, SVG Export Plug-In . SVG Version: 6.00 Build 0)  -->
<svg xmlns="http://www.w3.org/2000/svg" xmlns:xlink="http://www.w3.org/1999/xlink" version="1.1" id="Layer_1" x="0px" y="0px" viewBox="0 0 508 508" style="enable-background:new 0 0 508 508;" xml:space="preserve">
<circle style="fill:#324A5E;" cx="254" cy="254" r="254"/>
<path style="fill:#FFFFFF;" d="M368,409.2H140c-7.6,0-14-6.4-14-14V112.8c0-7.6,6.4-14,14-14h227.6c7.6,0,14,6.4,14,14v282.4  C382,402.8,375.6,409.2,368,409.2z"/>
<g>
	<path style="fill:#84DBFF;" d="M330.8,202.4c0,32-8,75.2-17.6,75.2s-17.6-43.2-17.6-75.2s8-40,17.6-40   C322.8,162.4,330.8,170.8,330.8,202.4z"/>
	<circle style="fill:#84DBFF;" cx="313.2" cy="306" r="12.4"/>
	<path style="fill:#84DBFF;" d="M235.2,270h-24.4v-13.2c0-5.6,0.8-10,2-12.8s4.4-6.4,8.8-11.2l16-16c3.2-3.6,4.8-8,4.8-13.6   c0-5.2-1.6-9.6-5.2-13.2c-3.6-3.6-8-5.2-13.6-5.2s-10,1.6-13.6,5.2s-6,8-6.4,13.6h-26.4c1.6-12.8,6.4-22.8,15.2-30.4   c8.4-7.2,19.2-10.8,32-10.8s23.2,3.6,31.6,10.4c8,7.2,12,16.8,12,29.2c0,8.8-2.4,16-7.2,21.6c-2.8,3.6-4.8,6-6.4,7.2   c-1.6,1.6-3.2,3.2-5.6,5.6c-2.4,2.4-4.4,4-6,6c-1.6,1.6-2.8,3.2-4,4.4c-2.8,3.2-4,7.6-4,13.6v9.6H235.2z M223.2,318.4   c-4.4,0-8.4-1.6-12-4.8c-3.2-3.2-4.8-6.8-4.8-11.2c0-4.4,1.6-8.4,4.8-11.2c3.2-3.2,7.2-4.8,11.6-4.8s8.4,1.6,12,4.8   c3.2,3.2,4.8,6.8,4.8,11.2c0,4.4-1.6,8.4-4.8,11.2C231.6,316.8,227.6,318.4,223.2,318.4z"/>
</g>
<g>
</g>
<g>
</g>
<g>
</g>
<g>
</g>
<g>
</g>
<g>
</g>
<g>
</g>
<g>
</g>
<g>
</g>
<g>
</g>
<g>
</g>
<g>
</g>
<g>
</g>
<g>
</g>
<g>
</g>
</svg>
