<?xml version="1.0" encoding="iso-8859-1"?>
<!-- Generator: Adobe Illustrator 19.0.0, SVG Export Plug-In . SVG Version: 6.00 Build 0)  -->
<svg xmlns="http://www.w3.org/2000/svg" xmlns:xlink="http://www.w3.org/1999/xlink" version="1.1" id="Layer_1" x="0px" y="0px" viewBox="0 0 508 508" style="enable-background:new 0 0 508 508;" xml:space="preserve">
<circle style="fill:#84DBFF;" cx="254" cy="254" r="254"/>
<path style="fill:#FFFFFF;" d="M220.4,219.6c0-3.6,1.2-6.8,1.6-10.4c0.8-4.4,0.8-9.2,0.8-13.6c0-1.2,0.8-1.6,1.6-2  c-1.6-30-20.4-53.6-44-53.6c-24.4,0-44,25.6-44,57.2s19.6,57.2,44,57.2c18,0,33.2-14,40.4-34C220.4,220.4,220.4,220,220.4,219.6z"/>
<path style="fill:#324A5E;" d="M207.6,129.6c-0.4-6-5.6-10.8-11.6-12.4c-5.6-1.6-12-1.2-18,0c-2.8,0.4-5.6,0.8-8.4,2  c-6.8,2.4-12,8-18,12.4s-13.6,8-20.4,5.6c3.6,4,9.2,6,14.4,5.6c-32.8,9.6-12.8,65.2-4.4,81.2c-0.8-4.4-1.6-9.2-2-13.6  c-0.8-13.2-0.4-55.2,40-56c45.6-0.8,42.4,56,40.8,67.6C220,221.6,245.2,138,207.6,129.6z"/>
<g>
	<polygon style="fill:#FF7058;" points="159.2,270.8 177.6,289.2 196.4,270.8  "/>
	<polygon style="fill:#FF7058;" points="196.4,350.8 177.6,278.8 159.2,350.8  "/>
</g>
<path style="fill:#324A5E;" d="M218.4,263.6L218.4,263.6c0.4,0.8,0.4,1.6,0,2c0,0.4,0,1.2,0,1.6c0.4,16.8-5.2,28.8-14.8,42  c-3.6,4.8-10.4,11.6-12.4,17.2c-2.4,7.2-2.4,11.2-8.8,16.8c-1.6,1.2-3.2,2-4.8,2.4l0,0c-1.6-0.4-3.2-1.2-4.8-2.4  c-6.4-5.2-6.8-9.6-8.8-16.8c-1.6-5.6-8.8-12.4-12.4-17.2c-9.6-13.2-15.2-25.2-14.8-42c0-0.4,0-1.2,0-1.6c-0.4-0.4-0.4-1.2,0-2v-0.4  c-32.8,17.6-55.6,57.2-55.6,103.6c0,6,0.4,12,1.2,18c24.8,15.6,57.2,24.8,92.8,24.8c0.8,0,1.6,0,2.4,0l0,0c0.8,0,1.6,0,2.4,0  c35.6,0,68-9.6,92.8-24.8c0.8-6,1.2-12,1.2-18C274,321.2,251.2,281.2,218.4,263.6z"/>
<g>
	<path style="fill:#FFFFFF;" d="M177.6,346c0,0,23.6-5.6,47.2-50.8l-6.8-6.8l6.4-3.2c-0.4-11.2-6-21.6-6-21.6   C218.8,275.6,194.8,317.6,177.6,346z"/>
	<path style="fill:#FFFFFF;" d="M177.6,346c0,0-23.6-5.6-47.2-50.8l6.8-6.8l-6.4-3.2c0.4-11.2,6-21.6,6-21.6   C136.4,275.6,160.8,317.6,177.6,346z"/>
</g>
<circle style="fill:#FF7058;" cx="358" cy="192.4" r="88.4"/>
<circle style="fill:#FFFFFF;" cx="358" cy="192.4" r="74.4"/>
<g>
	<rect x="355.2" y="128" style="fill:#E6E9EE;" width="5.2" height="10.8"/>
	<rect x="355.2" y="246" style="fill:#E6E9EE;" width="5.2" height="10.8"/>
	<rect x="411.6" y="190" style="fill:#E6E9EE;" width="10.8" height="5.2"/>
	<rect x="293.2" y="190" style="fill:#E6E9EE;" width="10.8" height="5.2"/>
	
		<rect x="397.203" y="145.363" transform="matrix(0.7071 0.7071 -0.7071 0.7071 223.7051 -238.5458)" style="fill:#E6E9EE;" width="5.2" height="10.8"/>
	
		<rect x="313.499" y="228.874" transform="matrix(0.7071 0.7071 -0.7071 0.7071 258.2399 -154.8987)" style="fill:#E6E9EE;" width="5.2" height="10.8"/>
	
		<rect x="396.757" y="228.797" transform="matrix(-0.7071 0.7071 -0.7071 -0.7071 847.3473 117.4115)" style="fill:#E6E9EE;" width="5.2" height="10.8"/>
	
		<rect x="313.368" y="145.276" transform="matrix(-0.7071 0.7071 -0.7071 -0.7071 645.9354 33.7976)" style="fill:#E6E9EE;" width="5.2" height="10.8"/>
</g>
<g>
	<path style="fill:#324A5E;" d="M358,194.9c-1.4,0-2.5-1.1-2.5-2.5v-38.8c0-1.4,1.1-2.5,2.5-2.5s2.5,1.1,2.5,2.5v38.8   C360.5,193.8,359.4,194.9,358,194.9z"/>
	<path style="fill:#324A5E;" d="M377.2,214.1c-0.6,0-1.3-0.2-1.8-0.7l-19.2-19.2c-1-1-1-2.6,0-3.5c1-1,2.6-1,3.5,0l19.2,19.2   c1,1,1,2.6,0,3.5C378.5,213.9,377.8,214.1,377.2,214.1z"/>
</g>
<circle style="fill:#FF7058;" cx="358" cy="192.4" r="8.4"/>
<g>
</g>
<g>
</g>
<g>
</g>
<g>
</g>
<g>
</g>
<g>
</g>
<g>
</g>
<g>
</g>
<g>
</g>
<g>
</g>
<g>
</g>
<g>
</g>
<g>
</g>
<g>
</g>
<g>
</g>
</svg>
