<?xml version="1.0" encoding="iso-8859-1"?>
<!-- Generator: Adobe Illustrator 19.0.0, SVG Export Plug-In . SVG Version: 6.00 Build 0)  -->
<svg xmlns="http://www.w3.org/2000/svg" xmlns:xlink="http://www.w3.org/1999/xlink" version="1.1" id="Layer_1" x="0px" y="0px" viewBox="0 0 508 508" style="enable-background:new 0 0 508 508;" xml:space="preserve">
<g>
	<circle style="fill:#324A5E;" cx="254" cy="254" r="254"/>
	<circle style="fill:#324A5E;" cx="254" cy="254" r="254"/>
</g>
<g>
	<rect x="339.6" y="98" style="fill:#F9B54C;" width="8.4" height="312"/>
	<rect x="160" y="98" style="fill:#F9B54C;" width="8.4" height="312"/>
</g>
<g>
	<path style="fill:#FFFFFF;" d="M216,387.6h76.4c15.2-11.6,25.2-29.6,25.2-50.4c0-34.8-63.2-89.2-63.2-89.2s-63.6,54.4-63.6,89.6   C190.8,358,200.8,376.4,216,387.6z"/>
	<path style="fill:#FFFFFF;" d="M292,120.4h-76c-15.2,11.6-25.2,29.6-25.2,50.4c0,34.8,63.2,89.2,63.2,89.2s63.2-54.4,63.2-89.2   C317.2,150,307.2,131.6,292,120.4z"/>
</g>
<g>
	<path style="fill:#FFD05B;" d="M361.6,120.4H146.4c-5.2,0-9.2-4-9.2-9.2l0,0c0-5.2,4-9.2,9.2-9.2H362c5.2,0,9.2,4,9.2,9.2l0,0   C370.8,116,366.8,120.4,361.6,120.4z"/>
	<path style="fill:#FFD05B;" d="M361.6,406H146.4c-5.2,0-9.2-4-9.2-9.2l0,0c0-5.2,4-9.2,9.2-9.2H362c5.2,0,9.2,4,9.2,9.2l0,0   C370.8,402,366.8,406,361.6,406z"/>
</g>
<path style="fill:#84DBFF;" d="M316.4,330.4h-9.6c-25.6,0-46.8-20.4-48-46c-0.4-9.2-0.4-18.4-0.8-25.6c0-2,0.8-4,2.4-5.2  c10.4-9.6,31.2-30,44.4-50.8h-102c13.2,20.8,34,41.2,44.4,50.8c1.6,1.2,2.4,3.2,2.4,5.2c0,7.2-0.4,16-0.8,25.6  c-1.2,25.6-22.4,46-48,46h-9.6c-0.4,2.4-0.8,4.8-0.8,6.8c0,20.4,10,38.8,25.2,50.4H292c15.2-11.6,25.2-29.6,25.2-50.4  C317.2,335.2,316.8,332.8,316.4,330.4z"/>
<g>
</g>
<g>
</g>
<g>
</g>
<g>
</g>
<g>
</g>
<g>
</g>
<g>
</g>
<g>
</g>
<g>
</g>
<g>
</g>
<g>
</g>
<g>
</g>
<g>
</g>
<g>
</g>
<g>
</g>
</svg>
