<?xml version="1.0" encoding="iso-8859-1"?>
<!-- Generator: Adobe Illustrator 19.0.0, SVG Export Plug-In . SVG Version: 6.00 Build 0)  -->
<svg xmlns="http://www.w3.org/2000/svg" xmlns:xlink="http://www.w3.org/1999/xlink" version="1.1" id="Layer_1" x="0px" y="0px" viewBox="0 0 508 508" style="enable-background:new 0 0 508 508;" xml:space="preserve">
<circle style="fill:#54C0EB;" cx="254" cy="254" r="254"/>
<path style="fill:#FFFFFF;" d="M368,409.2H140c-7.6,0-14-6.4-14-14V112.8c0-7.6,6.4-14,14-14h227.6c7.6,0,14,6.4,14,14v282.4  C382,402.8,375.6,409.2,368,409.2z"/>
<polygon style="fill:#FF7058;" points="194.8,140.8 190.4,136.4 179.6,147.2 168.8,136.4 164,140.8 174.8,151.6 164,162.4   168.8,166.8 179.6,156 190.4,166.8 194.8,162.4 184,151.6 "/>
<g>
	<rect x="218.4" y="136.4" style="fill:#E6E9EE;" width="125.6" height="6"/>
	<rect x="218.4" y="151.6" style="fill:#E6E9EE;" width="125.6" height="6"/>
	<rect x="218.4" y="166.8" style="fill:#E6E9EE;" width="76" height="6"/>
</g>
<polygon style="fill:#FF7058;" points="194.8,217.6 190.4,212.8 179.6,223.6 168.8,212.8 164,217.6 174.8,228 164,238.8   168.8,243.6 179.6,232.8 190.4,243.6 194.8,238.8 184,228 "/>
<g>
	<rect x="218.4" y="212.8" style="fill:#E6E9EE;" width="125.6" height="6"/>
	<rect x="218.4" y="228" style="fill:#E6E9EE;" width="125.6" height="6"/>
	<rect x="218.4" y="243.6" style="fill:#E6E9EE;" width="76" height="6"/>
</g>
<polygon style="fill:#FF7058;" points="194.8,294 190.4,289.6 179.6,300.4 168.8,289.6 164,294 174.8,304.8 164,315.6 168.8,320   179.6,309.2 190.4,320 194.8,315.6 184,304.8 "/>
<g>
	<rect x="218.4" y="289.6" style="fill:#E6E9EE;" width="125.6" height="6"/>
	<rect x="218.4" y="304.8" style="fill:#E6E9EE;" width="125.6" height="6"/>
	<rect x="218.4" y="320" style="fill:#E6E9EE;" width="76" height="6"/>
</g>
<g>
</g>
<g>
</g>
<g>
</g>
<g>
</g>
<g>
</g>
<g>
</g>
<g>
</g>
<g>
</g>
<g>
</g>
<g>
</g>
<g>
</g>
<g>
</g>
<g>
</g>
<g>
</g>
<g>
</g>
</svg>
