<?xml version="1.0" encoding="iso-8859-1"?>
<!-- Generator: Adobe Illustrator 19.0.0, SVG Export Plug-In . SVG Version: 6.00 Build 0)  -->
<svg xmlns="http://www.w3.org/2000/svg" xmlns:xlink="http://www.w3.org/1999/xlink" version="1.1" id="Layer_1" x="0px" y="0px" viewBox="0 0 508 508" style="enable-background:new 0 0 508 508;" xml:space="preserve">
<circle style="fill:#FFD05B;" cx="254" cy="254" r="254"/>
<path style="fill:#2C9984;" d="M312.8,319.6h-51.2V219.2c0-4-3.6-7.2-7.6-7.2c-4.4,0-7.6,3.2-7.6,7.2v100.4h-51.2  c-4.4,0-7.6,3.2-7.6,7.2s3.6,7.2,7.6,7.2h117.6c4.4,0,7.6-3.2,7.6-7.2C320.4,322.8,317.2,319.6,312.8,319.6z"/>
<g>
	<path style="fill:#FFFFFF;" d="M204.4,216.4c-8-4.4-15.2-10-21.6-16c-2.8-2.8-5.2-5.6-7.6-8.8c0.8-6,1.2-9.6,1.2-9.6l0,0   c0.8,0.4,12,6.8,17.2,6.8C197.2,189.2,203.2,202.8,204.4,216.4z"/>
	<path style="fill:#FFFFFF;" d="M294.8,213.6l-4.8,8l-0.4,0.8c-2,0.8-3.6,1.2-5.6,2c-1.6,0.4-3.6,1.2-5.6,1.6   c-0.4,0-1.2,0.4-1.6,0.4c-2,0.4-4.4,0.8-6.4,1.2c-2.4,0.4-4.4,0.8-6.8,0.8c-0.4,0-0.4,0-0.8,0s-1.2,0-1.6,0c-2.4,0-4.4,0.4-6.8,0.4   s-4.8,0-6.8-0.4c-0.4,0-1.2,0-1.6,0c-0.4,0-0.4,0-0.8,0c-2.4-0.4-4.8-0.4-6.8-0.8c-10-1.6-19.6-4.4-28-8.8   c-3.2-12-6.8-24.8-4.8-26.8c3.2-3.2,14.8-18,14.8-18l4.4-1.2l9.2-2.4l1.6-0.4h0.4l1.2-0.4l6.4-1.6l10.8-2.8l11.2,2.8l6.4,1.6   l1.2,0.4h0.4l1.6,0.4l10,2.4l7.6,2L294.8,213.6z"/>
	<path style="fill:#FFFFFF;" d="M262,224.8l0.8,3.6c-0.4,0-1.2,0-1.6,0c-2.4,0-4.4,0.4-6.8,0.4s-4.8,0-6.8-0.4c-0.4,0-1.2,0-1.6,0   l0.8-3.6l6.4-33.2l-7.2-8l-6.4-7.6h30l-6.4,7.6l-7.2,8L262,224.8z"/>
	<path style="fill:#FFFFFF;" d="M273.2,161.2c0,12.8-8.4,14.8-19.2,14.8c-10.4,0-19.2-2-19.2-14.8s8.4-33.6,19.2-33.6   C264.4,127.6,273.2,148.4,273.2,161.2z"/>
	<path style="fill:#FFFFFF;" d="M244.8,228.4c-2.4-0.4-4.8-0.4-6.8-0.8c-10-1.6-19.6-4.4-28-8.8c-1.6-0.8-3.6-1.6-5.2-2.8   c-8-4.4-15.2-10-21.6-16c-3.6-10.8-6.4-17.6-6.4-18l0,0c32.8-8,47.2-15.6,53.2-20.4c3.6-2.4,4.4-4,4.4-4c0,0.4,0,0.4,0,0.8   c0.4,4,0.4,8,0.8,11.6c0,2.4,0.4,4.8,0.8,7.2C237.6,197.2,241.2,214.4,244.8,228.4z"/>
	<path style="fill:#FFFFFF;" d="M247.2,228.8c-0.4,0-1.2,0-1.6,0c-0.4,0-0.4,0-0.8,0c-2.4-0.4-4.8-0.4-6.8-0.8   c-9.6-22.8-18-46-18-46l9.2-4.4l-4.4-4.4l-0.8-0.8c1.6-4,4-7.6,6.4-10.8s4.8-5.6,5.6-6.4l0,0c0.4-0.4,0.4-0.4,0.4-0.4v0.4   c0,0.4,0,0.4-0.4,0.8c-0.4,2-0.8,4.8-0.8,8.4l0,0c0,2,0,4,0.4,6.4c0.4,2.8,0.8,6.4,1.2,9.6l0,0c2,13.6,5.6,30,9.6,45.2   C246.4,226,246.8,227.2,247.2,228.8z"/>
	<path style="fill:#FFFFFF;" d="M332.4,191.6c-2.4,3.2-4.8,6-7.6,8.8c-6.4,6.4-13.6,11.6-21.6,16c1.2-13.6,7.2-27.2,10.8-27.2   c5.2,0,16.8-6.4,17.2-6.8l0,0C331.2,182.4,332,185.6,332.4,191.6z"/>
	<path style="fill:#FFFFFF;" d="M331.6,182L331.6,182c0,0.4-2.8,7.2-6.4,18.4c-6.4,6.4-13.6,11.6-21.6,16c-4,2.4-8.4,4.4-12.8,6   c-0.4,0-0.8,0.4-1.2,0.4c-2,0.8-3.6,1.2-5.6,2c-1.6,0.4-3.6,1.2-5.6,1.6c-0.4,0-1.2,0.4-1.6,0.4c-2,0.4-4.4,0.8-6.4,1.2   c-2.4,0.4-4.4,0.8-6.8,0.8c3.6-14,6.8-31.2,9.2-51.2c0.4-2.4,0.4-4.8,0.8-7.6c0.4-3.6,0.4-7.6,0.8-11.2l0,0c0-0.4,0-0.4,0-0.8   c0,0,0.8,1.6,4.4,4C284.4,166.4,298.8,174,331.6,182z"/>
	<path style="fill:#FFFFFF;" d="M288.4,181.6c0,0-8.8,23.2-18,46c-2.4,0.4-4.4,0.8-6.8,0.8c-0.4,0-0.4,0-0.8,0s-1.2,0-1.6,0   c0.4-1.2,0.8-2.4,0.8-4c3.6-15.2,7.6-31.6,9.6-45.2l0,0c0.4-3.6,0.8-7.2,1.2-10c0-2,0.4-4,0.4-6c0,0,0,0,0-0.4l0,0c0-3.2,0-6-0.8-8   l0,0v-0.4V154c0,0,0,0,0.4,0.4l0,0c1.2,1.2,3.2,3.6,5.6,6.4c2.4,2.8,4.8,6.8,6.4,10.8l0,0l-5.2,4.8L288.4,181.6z"/>
	<ellipse style="fill:#FFFFFF;" cx="254" cy="124" rx="32.8" ry="37.6"/>
	<path style="fill:#FFFFFF;" d="M292.4,123.2c-2,5.6-6,9.2-9.2,8c-3.2-0.8-4-6-2-11.6s6-9.2,9.2-8   C293.6,112.8,294.4,118,292.4,123.2z"/>
	<path style="fill:#FFFFFF;" d="M215.6,123.2c2,5.6,6,9.2,9.2,8c3.2-0.8,4-6,2-11.6s-6-9.2-9.2-8C214.4,112.8,213.6,118,215.6,123.2   z"/>
</g>
<path style="fill:#324A5E;" d="M224.4,129.6c-16.8-32.4,6.8-42.8,6.8-42.8L220,92.4c33.6-36.8,57.6-6.8,57.6-6.8  c23.2,16.4,8.4,41.6,8.4,41.6s-2.8-18-12.8-26.4c0,0-12,12.4-39.6,0.8c0,0-6.4,8.8-4,20.8c0,0-2.8-1.6-3.6-8  C225.6,114.8,222.4,123.2,224.4,129.6L224.4,129.6z"/>
<g>
	<path style="fill:#FFFFFF;" d="M236.4,154.4c0,0,2.8,14.8,17.6,21.6c0,0-10,7.2-12,12.8C242,188.8,226,167.6,236.4,154.4z"/>
	<path style="fill:#FFFFFF;" d="M271.6,154.4c0,0-2.8,14.8-17.6,21.6c0,0,10,7.2,12,12.8C266,188.8,282,167.6,271.6,154.4z"/>
	<path style="fill:#FFFFFF;" d="M290.8,222.4c-0.4,0-0.8,0.4-1.2,0.4c-2,0.8-3.6,1.2-5.6,2l4.8-4.4L290.8,222.4z"/>
	<path style="fill:#FFFFFF;" d="M326.4,354c-8-4.4-15.2-10-21.6-16c-2.8-2.8-5.2-5.6-7.6-8.8c0.8-6,1.2-9.6,1.2-9.6l0,0   c0.8,0.4,12,6.8,17.2,6.8C319.2,326.8,325.2,340.4,326.4,354z"/>
	<path style="fill:#FFFFFF;" d="M416.8,351.6l-4.8,8l-0.4,0.8c-2,0.8-3.6,1.2-5.6,2c-1.6,0.4-3.6,1.2-5.6,1.6   c-0.4,0-1.2,0.4-1.6,0.4c-2,0.4-4.4,0.8-6.4,1.2c-2.4,0.4-4.4,0.8-6.8,0.8c-0.4,0-0.4,0-0.8,0s-1.2,0-1.6,0c-2.4,0-4.4,0.4-6.8,0.4   s-4.8,0-6.8-0.4c-0.4,0-1.2,0-1.6,0s-0.4,0-0.8,0c-2.4-0.4-4.8-0.4-6.8-0.8c-10-1.6-19.2-4.4-28-8.8c-3.2-12-6.8-24.8-4.8-26.8   c3.2-3.2,14.8-18,14.8-18l4.4-1.2l9.2-2.4l1.6-0.4h0.4l1.2-0.4l6.4-1.6l10.8-2.8l11.2,2.8l6.4,1.6l1.2,0.4h0.4l1.6,0.4l10,2.4   l7.6,2L416.8,351.6z"/>
	<path style="fill:#FFFFFF;" d="M384,362.4l0.8,3.6c-0.4,0-1.2,0-1.6,0c-2.4,0-4.4,0.4-6.8,0.4s-4.8,0-6.8-0.4c-0.4,0-1.2,0-1.6,0   l0.8-3.6l6.4-33.2l-7.2-8l-6.4-7.6h30l-6.4,7.6l-7.2,8L384,362.4z"/>
	<path style="fill:#FFFFFF;" d="M395.2,299.2c0,12.8-8.4,14.8-19.2,14.8c-10.4,0-19.2-2-19.2-14.8s8.4-33.6,19.2-33.6   C386.4,265.6,395.2,286,395.2,299.2z"/>
	<path style="fill:#FFFFFF;" d="M366.8,366.4c-2.4-0.4-4.8-0.4-6.8-0.8c-10-1.6-19.2-4.4-28-8.8c-1.6-0.8-3.6-1.6-5.2-2.8   c-8-4.4-15.2-10-21.6-16c-3.6-10.8-6.4-17.6-6.4-18l0,0c32.8-8,47.2-15.6,53.2-20.4c3.6-2.4,4.4-4,4.4-4c0,0.4,0,0.4,0,0.8   c0.4,4,0.4,8,0.8,11.6c0,2.4,0.4,4.8,0.8,7.2C359.6,335.2,363.2,352.4,366.8,366.4z"/>
	<path style="fill:#FFFFFF;" d="M369.2,366.4c-0.4,0-1.2,0-1.6,0s-0.4,0-0.8,0c-2.4-0.4-4.8-0.4-6.8-0.8c-9.6-22.8-18-46-18-46   l9.2-4.4l-5.2-4.4l-0.8-0.8c1.6-4,4-7.6,6.4-10.8c2.4-3.2,4.8-5.6,5.6-6.4l0,0c0.4-0.4,0.4-0.4,0.4-0.4v0.4c0,0.4,0,0.4-0.4,0.8   c-0.4,2-0.8,4.8-0.8,8.4l0,0c0,2,0,4,0.4,6.4c0.4,2.8,0.8,6.4,1.2,9.6l0,0c2,13.6,5.6,30,9.6,45.2   C368.4,364,368.8,365.2,369.2,366.4z"/>
	<path style="fill:#FFFFFF;" d="M454.8,329.2c-2.4,3.2-4.8,6-7.6,8.8c-6.4,6.4-13.6,11.6-21.6,16c1.2-13.6,7.2-27.2,10.8-27.2   c5.2,0,16.8-6.4,17.2-6.8l0,0C453.6,320,454,323.6,454.8,329.2z"/>
	<path style="fill:#FFFFFF;" d="M453.6,320L453.6,320c0,0.4-2.8,7.6-6.4,18.4c-6.4,6.4-13.6,11.6-21.6,16c-4,2.4-8.4,4.4-12.8,6   c-0.4,0-0.8,0.4-1.2,0.4c-2,0.8-3.6,1.2-5.6,2c-1.6,0.4-3.6,1.2-5.6,1.6c-0.4,0-1.2,0.4-1.6,0.4c-2,0.4-4.4,0.8-6.4,1.2   c-2.4,0.4-4.4,0.8-6.8,0.8c3.6-14,6.8-31.2,9.2-51.2c0.4-2.4,0.4-4.8,0.8-7.6c0.4-3.6,0.4-7.6,0.8-11.2l0,0c0-0.4,0-0.4,0-0.8   c0,0,0.8,1.6,4.4,4C406.4,304,420.8,312,453.6,320z"/>
	<path style="fill:#FFFFFF;" d="M410.4,319.2c0,0-8.8,23.2-18,46c-2.4,0.4-4.4,0.8-6.8,0.8c-0.4,0-0.4,0-0.8,0s-1.2,0-1.6,0   c0.4-1.2,0.8-2.4,0.8-4c3.6-15.2,7.6-31.6,9.6-45.2l0,0c0.4-3.6,0.8-7.2,1.2-10c0-2,0.4-4,0.4-6c0,0,0,0,0-0.4l0,0c0-3.2,0-6-0.8-8   l0,0V292v-0.4c0,0,0,0,0.4,0.4l0,0c1.2,1.2,3.2,3.6,5.6,6.4s4.8,6.8,6.4,10.8l0,0l-5.2,4.8L410.4,319.2z"/>
	<ellipse style="fill:#FFFFFF;" cx="376" cy="262" rx="32.8" ry="37.6"/>
	<path style="fill:#FFFFFF;" d="M414.4,261.2c-2,5.6-6,9.2-9.2,8c-3.2-0.8-4-6-2-11.6s6-9.2,9.2-8   C415.6,250.4,416.4,255.6,414.4,261.2z"/>
	<path style="fill:#FFFFFF;" d="M337.6,261.2c2,5.6,6,9.2,9.2,8c3.2-0.8,4-6,2-11.6s-6-9.2-9.2-8   C336.4,250.4,335.6,255.6,337.6,261.2z"/>
</g>
<path style="fill:#324A5E;" d="M346.4,267.2c-16.8-32.4,6.8-42.8,6.8-42.8L342,230c33.6-36.8,57.6-6.8,57.6-6.8  c23.2,16.4,8.4,41.6,8.4,41.6s-2.8-18-12.8-26.4c0,0-12,12.4-39.6,0.8c0,0-6.4,8.8-4,20.8c0,0-2.8-1.6-3.6-8  C348,252.8,344.4,260.8,346.4,267.2L346.4,267.2z"/>
<g>
	<path style="fill:#FFFFFF;" d="M358.4,292.4c0,0,2.8,14.8,17.6,21.6c0,0-10,7.2-12,12.8C364,326.8,348,305.2,358.4,292.4z"/>
	<path style="fill:#FFFFFF;" d="M393.6,292.4c0,0-2.8,14.8-17.6,21.6c0,0,10,7.2,12,12.8C388,326.8,404,305.2,393.6,292.4z"/>
	<path style="fill:#FFFFFF;" d="M412.8,360c-0.4,0-0.8,0.4-1.2,0.4c-2,0.8-3.6,1.2-5.6,2l4.8-4.4L412.8,360z"/>
	<path style="fill:#FFFFFF;" d="M82.4,354c-8-4.4-15.2-10-21.6-16c-2.8-2.8-5.2-5.6-7.6-8.8c0.8-6,1.2-9.6,1.2-9.6l0,0   c0.8,0.4,12,6.8,17.2,6.8C75.2,326.8,81.2,340.4,82.4,354z"/>
	<path style="fill:#FFFFFF;" d="M172.8,351.6l-4.8,8l-0.4,0.8c-2,0.8-3.6,1.2-5.6,2c-1.6,0.4-3.6,1.2-5.6,1.6   c-0.4,0-1.2,0.4-1.6,0.4c-2,0.4-4.4,0.8-6.4,1.2c-2.4,0.4-4.4,0.8-6.8,0.8c-0.4,0-0.4,0-0.8,0c-0.4,0-1.2,0-1.6,0   c-2.4,0-4.4,0.4-6.8,0.4c-2.4,0-4.8,0-6.8-0.4c-0.4,0-1.2,0-1.6,0s-0.4,0-0.8,0c-2.4-0.4-4.8-0.4-6.8-0.8c-10-1.6-19.6-4.4-28-8.8   c-3.2-12-6.8-24.8-4.8-26.8c3.2-3.2,14.8-18,14.8-18l4.4-1.2l9.2-2.4l1.6-0.4h0.4l1.2-0.4l6.4-1.6l10.8-2.8l11.2,2.8l6.4,1.6   l1.2,0.4h0.4l1.6,0.4l10,2.4l7.6,2L172.8,351.6z"/>
	<path style="fill:#FFFFFF;" d="M140,362.4l0.8,3.6c-0.4,0-1.2,0-1.6,0c-2.4,0-4.4,0.4-6.8,0.4c-2.4,0-4.8,0-6.8-0.4   c-0.4,0-1.2,0-1.6,0l0.8-3.6l6.4-33.2l-7.2-8l-6.4-7.6h30l-6.4,7.6l-7.2,8L140,362.4z"/>
	<path style="fill:#FFFFFF;" d="M151.2,299.2c0,12.8-8.4,14.8-19.2,14.8c-10.4,0-19.2-2-19.2-14.8s8.4-33.6,19.2-33.6   C142.4,265.6,151.2,286,151.2,299.2z"/>
	<path style="fill:#FFFFFF;" d="M122.8,366.4c-2.4-0.4-4.8-0.4-6.8-0.8c-10-1.6-19.6-4.4-28-8.8c-1.6-0.8-3.6-1.6-5.2-2.8   c-8-4.4-15.2-10-21.6-16c-3.6-10.8-6.4-17.6-6.4-18l0,0c32.8-8,47.2-15.6,53.2-20.4c3.6-2.4,4.4-4,4.4-4c0,0.4,0,0.4,0,0.8   c0.4,4,0.4,8,0.8,11.6c0,2.4,0.4,4.8,0.8,7.2C115.6,335.2,119.2,352.4,122.8,366.4z"/>
	<path style="fill:#FFFFFF;" d="M125.2,366.4c-0.4,0-1.2,0-1.6,0s-0.4,0-0.8,0c-2.4-0.4-4.8-0.4-6.8-0.8c-9.6-22.8-18-46-18-46   l9.2-4.4l-5.2-4.4l-0.8-0.8c1.6-4,4-7.6,6.4-10.8c2.4-3.2,4.8-5.6,5.6-6.4l0,0c0.4-0.4,0.4-0.4,0.4-0.4v0.4c0,0.4,0,0.4-0.4,0.8   c-0.4,2-0.8,4.8-0.8,8.4l0,0c0,2,0,4,0.4,6.4c0.4,2.8,0.8,6.4,1.2,9.6l0,0c2,13.6,5.6,30,9.6,45.2   C124.4,364,124.8,365.2,125.2,366.4z"/>
	<path style="fill:#FFFFFF;" d="M210.4,329.2c-2.4,3.2-4.8,6-7.6,8.8c-6.4,6.4-13.6,11.6-21.6,16c1.2-13.6,7.2-27.2,10.8-27.2   c5.2,0,16.8-6.4,17.2-6.8l0,0C209.2,320,210,323.6,210.4,329.2z"/>
	<path style="fill:#FFFFFF;" d="M209.6,320L209.6,320c0,0.4-2.8,7.6-6.4,18.4c-6.4,6.4-13.6,11.6-21.6,16c-4,2.4-8.4,4.4-12.8,6   c-0.4,0-0.8,0.4-1.2,0.4c-2,0.8-3.6,1.2-5.6,2c-1.6,0.4-3.6,1.2-5.6,1.6c-0.4,0-1.2,0.4-1.6,0.4c-2,0.4-4.4,0.8-6.4,1.2   c-2.4,0.4-4.4,0.8-6.8,0.8c3.6-14,6.8-31.2,9.2-51.2c0.4-2.4,0.4-4.8,0.8-7.6c0.4-3.6,0.4-7.6,0.8-11.2l0,0c0-0.4,0-0.4,0-0.8   c0,0,0.8,1.6,4.4,4C162.4,304,176.8,312,209.6,320z"/>
	<path style="fill:#FFFFFF;" d="M166.4,319.2c0,0-8.8,23.2-18,46c-2.4,0.4-4.4,0.8-6.8,0.8c-0.4,0-0.4,0-0.8,0c-0.4,0-1.2,0-1.6,0   c0.4-1.2,0.8-2.4,0.8-4c3.6-15.2,7.6-31.6,9.6-45.2l0,0c0.4-3.6,0.8-7.2,1.2-10c0-2,0.4-4,0.4-6c0,0,0,0,0-0.4l0,0c0-3.2,0-6-0.8-8   l0,0V292v-0.4c0,0,0,0,0.4,0.4l0,0c1.2,1.2,3.2,3.6,5.6,6.4c2.4,2.8,4.8,6.8,6.4,10.8l0,0l-5.2,4.8L166.4,319.2z"/>
	<ellipse style="fill:#FFFFFF;" cx="132" cy="262" rx="32.8" ry="37.6"/>
	<path style="fill:#FFFFFF;" d="M170.4,261.2c-2,5.6-6,9.2-9.2,8c-3.2-0.8-4-6-2-11.6s6-9.2,9.2-8   C171.6,250.4,172.4,255.6,170.4,261.2z"/>
	<path style="fill:#FFFFFF;" d="M93.6,261.2c2,5.6,6,9.2,9.2,8c3.2-0.8,4-6,2-11.6s-6-9.2-9.2-8C92.4,250.4,91.6,255.6,93.6,261.2z"/>
</g>
<path style="fill:#324A5E;" d="M102.4,267.2c-16.8-32.4,6.8-42.8,6.8-42.8L98,230c33.6-36.8,57.6-6.8,57.6-6.8  c23.2,16.4,8.4,41.6,8.4,41.6s-2.8-18-12.8-26.4c0,0-12,12.4-39.6,0.8c0,0-6.4,8.8-4,20.8c0,0-2.8-1.6-3.6-8  C103.6,252.8,100.4,260.8,102.4,267.2L102.4,267.2z"/>
<g>
	<path style="fill:#FFFFFF;" d="M114.4,292.4c0,0,2.8,14.8,17.6,21.6c0,0-10,7.2-12,12.8C120,326.8,104,305.2,114.4,292.4z"/>
	<path style="fill:#FFFFFF;" d="M149.6,292.4c0,0-2.8,14.8-17.6,21.6c0,0,10,7.2,12,12.8C144,326.8,160,305.2,149.6,292.4z"/>
	<path style="fill:#FFFFFF;" d="M168.8,360c-0.4,0-0.8,0.4-1.2,0.4c-2,0.8-3.6,1.2-5.6,2l4.8-4.4L168.8,360z"/>
</g>
<g>
</g>
<g>
</g>
<g>
</g>
<g>
</g>
<g>
</g>
<g>
</g>
<g>
</g>
<g>
</g>
<g>
</g>
<g>
</g>
<g>
</g>
<g>
</g>
<g>
</g>
<g>
</g>
<g>
</g>
</svg>
