<?xml version="1.0" encoding="iso-8859-1"?>
<!-- Generator: Adobe Illustrator 19.0.0, SVG Export Plug-In . SVG Version: 6.00 Build 0)  -->
<svg xmlns="http://www.w3.org/2000/svg" xmlns:xlink="http://www.w3.org/1999/xlink" version="1.1" id="Layer_1" x="0px" y="0px" viewBox="0 0 508 508" style="enable-background:new 0 0 508 508;" xml:space="preserve">
<circle style="fill:#90DFAA;" cx="254" cy="254" r="254"/>
<path style="fill:#2C9984;" d="M52.8,409.2C99.2,469.2,172,508,254,508s154.4-38.8,201.2-98.8H52.8z"/>
<path style="fill:#324A5E;" d="M215.2,408H140c-9.6,0-17.2-7.6-17.2-17.2V137.2c0-9.6,7.6-17.2,17.2-17.2h75.2  c9.6,0,17.2,7.6,17.2,17.2v253.6C232.8,400.4,224.8,408,215.2,408z"/>
<g>
	<rect x="122.8" y="159.2" style="fill:#54C0EB;" width="110" height="20.8"/>
	<rect x="122.8" y="193.6" style="fill:#54C0EB;" width="110" height="20.8"/>
</g>
<circle style="fill:#2B3B4E;" cx="177.6" cy="351.2" r="26"/>
<path style="fill:#FFFFFF;" d="M402.8,385.2l-72,22c-9.2,2.8-18.8-2.4-21.6-11.6l-74-242.4c-2.8-9.2,2.4-18.8,11.6-21.6l72-22  c9.2-2.8,18.8,2.4,21.6,11.6l74,242.4C417.2,372.8,412,382.4,402.8,385.2z"/>
<g>
	
		<rect x="286.857" y="113.39" transform="matrix(-0.2921 -0.9564 0.9564 -0.2921 223.0383 501.8698)" style="fill:#FF7058;" width="20.8" height="110.001"/>
	
		<rect x="296.728" y="146.099" transform="matrix(-0.2921 -0.9564 0.9564 -0.2921 204.5102 553.5734)" style="fill:#FF7058;" width="20.8" height="110.001"/>
</g>
<circle style="fill:#E6E9EE;" cx="350" cy="341.6" r="26"/>
<g>
</g>
<g>
</g>
<g>
</g>
<g>
</g>
<g>
</g>
<g>
</g>
<g>
</g>
<g>
</g>
<g>
</g>
<g>
</g>
<g>
</g>
<g>
</g>
<g>
</g>
<g>
</g>
<g>
</g>
</svg>
