<?xml version="1.0" encoding="iso-8859-1"?>
<!-- Generator: Adobe Illustrator 19.0.0, SVG Export Plug-In . SVG Version: 6.00 Build 0)  -->
<svg xmlns="http://www.w3.org/2000/svg" xmlns:xlink="http://www.w3.org/1999/xlink" version="1.1" id="Layer_1" x="0px" y="0px" viewBox="0 0 508 508" style="enable-background:new 0 0 508 508;" xml:space="preserve">
<circle style="fill:#324A5E;" cx="254" cy="254" r="254"/>
<path style="fill:#F1543F;" d="M295.2,161.2H212L145.6,24.4c22.8-10.8,47.2-18.4,72.8-22l35.2,73.2L295.2,161.2z"/>
<path style="fill:#FFD05B;" d="M295.6,188.8h-84c-9.6,0-17.6-8-17.6-17.6s8-17.6,17.6-17.6h84c9.6,0,17.6,8,17.6,17.6  C313.2,181.2,305.2,188.8,295.6,188.8z M211.6,161.6c-5.6,0-10,4.4-10,10s4.4,10,10,10h84c5.6,0,10-4.4,10-10s-4.4-10-10-10H211.6z"/>
<path style="fill:#F9B54C;" d="M253.6,208L253.6,208c-7.6,0-13.6-6-13.6-13.6v-9.6c0-7.6,6-13.6,13.6-13.6l0,0  c7.6,0,13.6,6,13.6,13.6v9.6C267.2,201.6,261.2,208,253.6,208z"/>
<circle style="fill:#FFD05B;" cx="254" cy="321.6" r="124.4"/>
<circle style="fill:#F9B54C;" cx="254" cy="321.6" r="86.4"/>
<circle style="fill:#FFD05B;" cx="254" cy="325.6" r="82.4"/>
<polygon style="fill:#F9B54C;" points="254,263.6 271.6,299.2 311.6,305.2 282.8,333.2 289.6,372.8 254,354 218.4,372.8   225.2,333.2 196.4,305.2 236.4,299.2 "/>
<path style="fill:#FF7058;" d="M362,24l-66.4,137.2h-83.2L254,75.6l35.6-73.2C314.8,6,339.2,13.6,362,24z"/>
<g>
</g>
<g>
</g>
<g>
</g>
<g>
</g>
<g>
</g>
<g>
</g>
<g>
</g>
<g>
</g>
<g>
</g>
<g>
</g>
<g>
</g>
<g>
</g>
<g>
</g>
<g>
</g>
<g>
</g>
</svg>
