<?xml version="1.0" encoding="iso-8859-1"?>
<!-- Generator: Adobe Illustrator 19.0.0, SVG Export Plug-In . SVG Version: 6.00 Build 0)  -->
<svg xmlns="http://www.w3.org/2000/svg" xmlns:xlink="http://www.w3.org/1999/xlink" version="1.1" id="Layer_1" x="0px" y="0px" viewBox="0 0 508 508" style="enable-background:new 0 0 508 508;" xml:space="preserve">
<circle style="fill:#FD8469;" cx="254" cy="254" r="254"/>
<g>
	<path style="fill:#FFFFFF;" d="M204.4,229.6c-8-4.8-15.2-10.8-21.6-17.6c-2.8-2.8-5.2-6-7.6-9.6c0.8-6.4,1.2-10.4,1.2-10.4l0,0   c0.8,0.4,12,7.6,17.2,7.6C197.2,199.6,203.2,214.4,204.4,229.6z"/>
	<path style="fill:#FFFFFF;" d="M294.8,226.8l-4.8,8.4l-0.4,1.2c-2,0.8-3.6,1.6-5.6,2c-1.6,0.8-3.6,1.2-5.6,1.6   c-0.4,0-1.2,0.4-1.6,0.4c-2,0.4-4.4,0.8-6.4,1.2c-2.4,0.4-4.4,0.8-6.8,0.8c-0.4,0-0.4,0-0.8,0s-1.2,0-1.6,0c-2.4,0-4.4,0.4-6.8,0.4   s-4.8,0-6.8-0.4c-0.4,0-1.2,0-1.6,0c-0.4,0-0.4,0-0.8,0c-2.4-0.4-4.8-0.4-6.8-0.8c-10-1.6-19.6-4.8-28-9.6   c-3.2-13.2-6.8-27.2-4.8-29.2c3.2-3.6,14.8-19.6,14.8-19.6l4.4-1.2l9.2-2.8l1.6-0.4h0.4l1.2-0.4l6.4-2l10.8-3.2l11.2,2.8l6.4,1.6   l1.2,0.4h0.4l1.6,0.4l10,2.4l7.6,2L294.8,226.8z"/>
	<path style="fill:#FFFFFF;" d="M262,238.8l0.8,4c-0.4,0-1.2,0-1.6,0c-2.4,0-4.4,0.4-6.8,0.4s-4.8,0-6.8-0.4c-0.4,0-1.2,0-1.6,0   l0.8-4l6.4-36L246,194l-6.4-8.4h30l-6.4,8.4l-7.2,8.8L262,238.8z"/>
	<path style="fill:#FFFFFF;" d="M273.2,169.2c0,14-8.4,16-19.2,16c-10.4,0-19.2-2-19.2-16s8.4-36.8,19.2-36.8   C264.4,132.8,273.2,155.2,273.2,169.2z"/>
	<path style="fill:#FFFFFF;" d="M244.8,242.8c-2.4-0.4-4.8-0.4-6.8-0.8c-10-1.6-19.6-4.8-28-9.6c-1.6-0.8-3.6-2-5.2-2.8   c-8-4.8-15.2-10.8-21.6-17.6c-3.6-12-6.4-19.6-6.4-20l0,0c32.8-8.8,47.2-17.2,53.2-22.4c3.6-2.8,4.4-4.4,4.4-4.4c0,0.4,0,0.8,0,0.8   c0.4,4.4,0.4,8.8,0.8,12.8c0,2.8,0.4,5.2,0.8,8C237.6,208.8,241.2,227.6,244.8,242.8z"/>
	<path style="fill:#FFFFFF;" d="M247.2,242.8c-0.4,0-1.2,0-1.6,0c-0.4,0-0.4,0-0.8,0c-2.4-0.4-4.8-0.4-6.8-0.8   c-9.6-24.8-18-50.4-18-50.4l9.2-4.8L224,182l-0.8-0.8c1.6-4.4,4-8.4,6.4-11.6c2.4-3.6,4.8-6,5.6-7.2l0,0c0.4-0.4,0.4-0.4,0.4-0.4   v0.4c0,0.4,0,0.4-0.4,0.8c-0.4,2-0.8,5.2-0.8,9.2l0,0c0,2,0,4.4,0.4,6.8c0.4,3.2,0.8,6.8,1.2,10.8l0,0c2,14.8,5.6,32.8,9.6,49.2   C246.4,240,246.8,241.6,247.2,242.8z"/>
	<path style="fill:#FFFFFF;" d="M332.4,202.4c-2.4,3.2-4.8,6.4-7.6,9.6c-6.4,6.8-13.6,12.8-21.6,17.6c1.2-14.8,7.2-30,10.8-30   c5.2,0,16.8-7.2,17.2-7.6l0,0C331.2,192,332,196,332.4,202.4z"/>
	<path style="fill:#FFFFFF;" d="M331.6,192L331.6,192c0,0.4-2.8,8-6.4,20c-6.4,6.8-13.6,12.8-21.6,17.6c-4,2.4-8.4,4.8-12.8,6.4   c-0.4,0-0.8,0.4-1.2,0.4c-2,0.8-3.6,1.6-5.6,2c-1.6,0.8-3.6,1.2-5.6,1.6c-0.4,0-1.2,0.4-1.6,0.4c-2,0.4-4.4,0.8-6.4,1.2   c-2.4,0.4-4.4,0.8-6.8,0.8c3.6-15.2,6.8-34,9.2-56c0.4-2.8,0.4-5.6,0.8-8.4c0.4-4,0.4-8,0.8-12.4l0,0c0-0.4,0-0.4,0-0.8   c0,0,0.8,1.6,4.4,4.4C284.4,174.8,298.8,183.2,331.6,192z"/>
	<path style="fill:#FFFFFF;" d="M288.4,191.6c0,0-8.8,25.2-18,50.4c-2.4,0.4-4.4,0.8-6.8,0.8c-0.4,0-0.4,0-0.8,0s-1.2,0-1.6,0   c0.4-1.2,0.8-2.8,0.8-4.4c3.6-16.4,7.6-34.4,9.6-49.2l0,0c0.4-4,0.8-7.6,1.2-11.2c0-2.4,0.4-4.4,0.4-6.4c0,0,0,0,0-0.4l0,0   c0-3.6,0-6.4-0.8-8.4l0,0v-0.4V162c0,0,0,0,0.4,0.4l0,0c1.2,1.2,3.2,3.6,5.6,7.2c2.4,3.2,4.8,7.2,6.4,11.6l0,0l-5.2,5.2   L288.4,191.6z"/>
	<ellipse style="fill:#FFFFFF;" cx="254" cy="128.8" rx="32.8" ry="41.2"/>
	
		<ellipse transform="matrix(0.3227 -0.9465 0.9465 0.3227 74.98 356.7974)" style="fill:#FFFFFF;" cx="286.796" cy="126.008" rx="11.2" ry="6"/>
	
		<ellipse transform="matrix(0.3227 0.9465 -0.9465 0.3227 269.059 -124.0907)" style="fill:#FFFFFF;" cx="221.236" cy="125.955" rx="11.2" ry="6"/>
</g>
<path style="fill:#324A5E;" d="M224.4,134.8c-16.8-35.2,6.8-46.8,6.8-46.8L220,94c33.6-40.4,57.6-7.2,57.6-7.2  c23.2,18,8.4,45.2,8.4,45.2s-2.8-20-12.8-28.8c0,0-12,13.6-39.6,1.2c0,0-6.4,9.6-4,22.8c0,0-2.8-1.6-3.6-8.4  C225.6,118.8,222.4,127.6,224.4,134.8L224.4,134.8z"/>
<g>
	<path style="fill:#FFFFFF;" d="M236.4,162c0,0,2.8,16.4,17.6,23.6c0,0-10,7.6-12,14C242,199.6,226,176,236.4,162z"/>
	<path style="fill:#FFFFFF;" d="M271.6,162c0,0-2.8,16.4-17.6,23.6c0,0,10,7.6,12,14C266,199.6,282,176,271.6,162z"/>
	<path style="fill:#FFFFFF;" d="M290.8,236c-0.4,0-0.8,0.4-1.2,0.4c-2,0.8-3.6,1.6-5.6,2l4.8-4.8L290.8,236z"/>
	<path style="fill:#FFFFFF;" d="M326.4,380c-8-4.8-15.2-10.8-21.6-17.6c-2.8-2.8-5.2-6-7.6-9.6c0.8-6.4,1.2-10.4,1.2-10.4l0,0   c0.8,0.4,12,7.6,17.2,7.6C319.2,350,325.2,365.2,326.4,380z"/>
	<path style="fill:#FFFFFF;" d="M416.8,377.2L412,386l-0.4,1.2c-2,0.8-3.6,1.6-5.6,2c-1.6,0.8-3.6,1.2-5.6,1.6   c-0.4,0-1.2,0.4-1.6,0.4c-2,0.4-4.4,0.8-6.4,1.2c-2.4,0.4-4.4,0.8-6.8,0.8c-0.4,0-0.4,0-0.8,0s-1.2,0-1.6,0c-2.4,0-4.4,0.4-6.8,0.4   s-4.8,0-6.8-0.4c-0.4,0-1.2,0-1.6,0s-0.4,0-0.8,0c-2.4-0.4-4.8-0.4-6.8-0.8c-10-1.6-19.6-4.8-28-9.6c-3.2-13.2-6.8-27.2-4.8-29.2   c2.4-3.6,14-19.6,14-19.6l4.4-1.2l9.2-2.8l1.6-0.4h0.4l1.2-0.4l6.4-2l10.8-3.2l11.2,2.8l6.4,1.6l1.2,0.4h0.4l1.6,0.4l10,2.4l7.6,2   L416.8,377.2z"/>
	<path style="fill:#FFFFFF;" d="M384,389.2l0.8,4c-0.4,0-1.2,0-1.6,0c-2.4,0-4.4,0.4-6.8,0.4s-4.8,0-6.8-0.4c-0.4,0-1.2,0-1.6,0   l0.8-4l6.4-36l-7.2-8.8l-6.4-8.4h30l-6.4,8.4l-7.2,8.8L384,389.2z"/>
	<path style="fill:#FFFFFF;" d="M395.2,319.6c0,14-8.4,16-19.2,16c-10.4,0-19.2-2-19.2-16s8.4-36.8,19.2-36.8   C386.4,283.2,395.2,305.6,395.2,319.6z"/>
	<path style="fill:#FFFFFF;" d="M366.8,393.2c-2.4-0.4-4.8-0.4-6.8-0.8c-10-1.6-19.6-4.8-28-9.6c-1.6-0.8-3.6-2-5.2-2.8   c-8-4.8-15.2-10.8-21.6-17.6c-3.6-12-6.4-19.6-6.4-20l0,0c32.8-8.8,47.2-17.2,53.2-22.4c3.6-2.8,4.4-4.4,4.4-4.4c0,0.4,0,0.8,0,0.8   c0.4,4.4,0.4,8.8,0.8,12.8c0,2.8,0.4,5.2,0.8,8C359.6,359.2,363.2,378,366.8,393.2z"/>
	<path style="fill:#FFFFFF;" d="M369.2,393.2c-0.4,0-1.2,0-1.6,0s-0.4,0-0.8,0c-2.4-0.4-4.8-0.4-6.8-0.8   c-9.6-25.2-18.4-50.4-18.4-50.4l9.2-4.8l-4.8-4.4l-0.8-0.8c1.6-4.4,4-8.4,6.4-11.6c2.4-3.6,4.8-6,5.6-7.2l0,0   c0.4-0.4,0.4-0.4,0.4-0.4v0.4c0,0.4,0,0.4-0.4,0.8c-0.4,2-0.8,5.2-0.8,9.2l0,0c0,2,0,4.4,0.4,6.8c0.4,3.2,0.8,6.8,1.2,10.8l0,0   c2,14.8,5.6,32.8,9.6,49.2C368.4,390.8,368.8,392,369.2,393.2z"/>
	<path style="fill:#FFFFFF;" d="M454.8,352.8c-2.4,3.2-4.8,6.4-7.6,9.6c-6.4,6.8-13.6,12.8-21.6,17.6c1.2-14.8,7.2-30,10.8-30   c5.2,0,16.8-7.2,17.2-7.6l0,0C453.6,342.4,454,346.4,454.8,352.8z"/>
	<path style="fill:#FFFFFF;" d="M453.6,342.4L453.6,342.4c0,0.4-2.8,8-6.4,20c-6.4,6.8-13.6,12.8-21.6,17.6c-4,2.4-8.4,4.8-12.8,6.4   c-0.4,0-0.8,0.4-1.2,0.4c-2,0.8-3.6,1.6-5.6,2c-1.6,0.8-3.6,1.2-5.6,1.6c-0.4,0-1.2,0.4-1.6,0.4c-2,0.4-4.4,0.8-6.4,1.2   c-2.4,0.4-4.4,0.8-6.8,0.8c3.6-15.2,6.8-34,9.2-56c0.4-2.8,0.4-5.6,0.8-8.4c0.4-4,0.4-8,0.8-12.4l0,0c0-0.4,0-0.4,0-0.8   c0,0,0.8,1.6,4.4,4.4C406.4,325.2,420.8,334,453.6,342.4z"/>
	<path style="fill:#FFFFFF;" d="M410.4,342c0,0-8.8,25.2-18,50.4c-2.4,0.4-4.4,0.8-6.8,0.8c-0.4,0-0.4,0-0.8,0s-1.2,0-1.6,0   c0.4-1.2,0.8-2.8,0.8-4.4c3.6-16.4,7.6-34.4,9.6-49.2l0,0c0.4-4,0.8-7.6,1.2-11.2c0-2.4,0.4-4.4,0.4-6.4c0,0,0,0,0-0.4l0,0   c0-3.6,0-6.4-0.8-8.4l0,0v-0.4v-0.4c0,0,0,0,0.4,0.4l0,0c1.2,1.2,3.2,3.6,5.6,7.2c2.4,3.2,4.8,7.2,6.4,11.6l0,0l-5.2,5.2L410.4,342   z"/>
	<ellipse style="fill:#FFFFFF;" cx="376" cy="279.2" rx="32.8" ry="41.2"/>
	
		<ellipse transform="matrix(0.3227 -0.9465 0.9465 0.3227 15.2825 574.1622)" style="fill:#FFFFFF;" cx="408.827" cy="276.403" rx="11.2" ry="6"/>
	
		<ellipse transform="matrix(0.3227 0.9465 -0.9465 0.3227 494.2862 -137.6858)" style="fill:#FFFFFF;" cx="343.348" cy="276.53" rx="11.2" ry="6"/>
</g>
<path style="fill:#324A5E;" d="M346.4,285.2c-16.8-35.2,6.8-46.8,6.8-46.8l-11.2,6c33.6-40.4,57.6-7.2,57.6-7.2  c23.2,18,8.4,45.2,8.4,45.2s-2.8-20-12.8-28.8c0,0-12,13.6-39.6,1.2c0,0-6.4,9.6-4,22.8c0,0-2.8-1.6-3.6-8.4  C348,269.2,344.4,278,346.4,285.2L346.4,285.2z"/>
<g>
	<path style="fill:#FFFFFF;" d="M358.4,312.4c0,0,2.8,16.4,17.6,23.6c0,0-10,7.6-12,14C364,350,348,326.4,358.4,312.4z"/>
	<path style="fill:#FFFFFF;" d="M393.6,312.4c0,0-2.8,16.4-17.6,23.6c0,0,10,7.6,12,14C388,350,404,326.4,393.6,312.4z"/>
	<path style="fill:#FFFFFF;" d="M412.8,386.4c-0.4,0-0.8,0.4-1.2,0.4c-2,0.8-3.6,1.6-5.6,2l4.8-4.8L412.8,386.4z"/>
	<path style="fill:#FFFFFF;" d="M82.4,380c-8-4.8-15.2-10.8-21.6-17.6c-2.8-2.8-5.2-6-7.6-9.6c0.8-6.4,1.2-10.4,1.2-10.4l0,0   c0.8,0.4,12,7.6,17.2,7.6C75.2,350,81.2,365.2,82.4,380z"/>
	<path style="fill:#FFFFFF;" d="M172.8,377.2L168,386l-0.4,1.2c-2,0.8-3.6,1.6-5.6,2c-1.6,0.8-3.6,1.2-5.6,1.6   c-0.4,0-1.2,0.4-1.6,0.4c-2,0.4-4.4,0.8-6.4,1.2c-2.4,0.4-4.4,0.8-6.8,0.8c-0.4,0-0.4,0-0.8,0c-0.4,0-1.2,0-1.6,0   c-2.4,0-4.4,0.4-6.8,0.4c-2.4,0-4.8,0-6.8-0.4c-0.4,0-1.2,0-1.6,0s-0.4,0-0.8,0c-2.4-0.4-4.8-0.4-6.8-0.8c-10-1.6-19.6-4.8-28-9.6   c-3.2-13.2-6.8-27.2-4.8-29.2c2.4-3.6,14-19.6,14-19.6l4.4-1.2l9.2-2.8l1.6-0.4h0.4l1.2-0.4l6.4-2l10.8-3.2l11.2,2.8l6.4,1.6   l1.2,0.4h0.4l1.6,0.4l10,2.4l7.6,2L172.8,377.2z"/>
	<path style="fill:#FFFFFF;" d="M140,389.2l0.8,4c-0.4,0-1.2,0-1.6,0c-2.4,0-4.4,0.4-6.8,0.4c-2.4,0-4.8,0-6.8-0.4   c-0.4,0-1.2,0-1.6,0l0.8-4l6.4-36l-7.2-8.8l-6.4-8.4h30l-6.4,8.4l-7.2,8.8L140,389.2z"/>
	<path style="fill:#FFFFFF;" d="M151.2,319.6c0,14-8.4,16-19.2,16c-10.4,0-19.2-2-19.2-16s8.4-36.8,19.2-36.8   C142.4,283.2,151.2,305.6,151.2,319.6z"/>
	<path style="fill:#FFFFFF;" d="M122.8,393.2c-2.4-0.4-4.8-0.4-6.8-0.8c-10-1.6-19.6-4.8-28-9.6c-1.6-0.8-3.6-2-5.2-2.8   c-8-4.8-15.2-10.8-21.6-17.6c-3.6-12-6.4-19.6-6.4-20l0,0c32.8-8.8,47.2-17.2,53.2-22.4c3.6-2.8,4.4-4.4,4.4-4.4c0,0.4,0,0.8,0,0.8   c0.4,4.4,0.4,8.8,0.8,12.8c0,2.8,0.4,5.2,0.8,8C115.6,359.2,119.2,378,122.8,393.2z"/>
	<path style="fill:#FFFFFF;" d="M125.2,393.2c-0.4,0-1.2,0-1.6,0s-0.4,0-0.8,0c-2.4-0.4-4.8-0.4-6.8-0.8   c-9.6-25.2-18.4-50.4-18.4-50.4l9.2-4.8l-4.8-4.4l-0.8-0.8c1.6-4.4,4-8.4,6.4-11.6c2.4-3.6,4.8-6,5.6-7.2l0,0   c0.4-0.4,0.4-0.4,0.4-0.4v0.4c0,0.4,0,0.4-0.4,0.8c-0.4,2-0.8,5.2-0.8,9.2l0,0c0,2,0,4.4,0.4,6.8c0.4,3.2,0.8,6.8,1.2,10.8l0,0   c2,14.8,5.6,32.8,9.6,49.2C124.4,390.8,124.8,392,125.2,393.2z"/>
	<path style="fill:#FFFFFF;" d="M210.4,352.8c-2.4,3.2-4.8,6.4-7.6,9.6c-6.4,6.8-13.6,12.8-21.6,17.6c1.2-14.8,7.2-30,10.8-30   c5.2,0,16.8-7.2,17.2-7.6l0,0C209.2,342.4,210,346.4,210.4,352.8z"/>
	<path style="fill:#FFFFFF;" d="M209.6,342.4L209.6,342.4c0,0.4-2.8,8-6.4,20c-6.4,6.8-13.6,12.8-21.6,17.6c-4,2.4-8.4,4.8-12.8,6.4   c-0.4,0-0.8,0.4-1.2,0.4c-2,0.8-3.6,1.6-5.6,2c-1.6,0.8-3.6,1.2-5.6,1.6c-0.4,0-1.2,0.4-1.6,0.4c-2,0.4-4.4,0.8-6.4,1.2   c-2.4,0.4-4.4,0.8-6.8,0.8c3.6-15.2,6.8-34,9.2-56c0.4-2.8,0.4-5.6,0.8-8.4c0.4-4,0.4-8,0.8-12.4l0,0c0-0.4,0-0.4,0-0.8   c0,0,0.8,1.6,4.4,4.4C162.4,325.2,176.8,334,209.6,342.4z"/>
	<path style="fill:#FFFFFF;" d="M166.4,342c0,0-8.8,25.2-18,50.4c-2.4,0.4-4.4,0.8-6.8,0.8c-0.4,0-0.4,0-0.8,0c-0.4,0-1.2,0-1.6,0   c0.4-1.2,0.8-2.8,0.8-4.4c3.6-16.4,7.6-34.4,9.6-49.2l0,0c0.4-4,0.8-7.6,1.2-11.2c0-2.4,0.4-4.4,0.4-6.4c0,0,0,0,0-0.4l0,0   c0-3.6,0-6.4-0.8-8.4l0,0v-0.4v-0.4c0,0,0,0,0.4,0.4l0,0c1.2,1.2,3.2,3.6,5.6,7.2c2.4,3.2,4.8,7.2,6.4,11.6l0,0l-5.2,5.2L166.4,342   z"/>
	<ellipse style="fill:#FFFFFF;" cx="132" cy="279.2" rx="32.8" ry="41.2"/>
	
		<ellipse transform="matrix(0.3227 -0.9465 0.9465 0.3227 -149.9962 343.2257)" style="fill:#FFFFFF;" cx="164.825" cy="276.42" rx="11.2" ry="6"/>
	
		<ellipse transform="matrix(0.3227 0.9465 -0.9465 0.3227 328.9544 93.4017)" style="fill:#FFFFFF;" cx="99.215" cy="276.552" rx="11.2" ry="6"/>
</g>
<path style="fill:#324A5E;" d="M102.4,285.2c-16.8-35.2,6.8-46.8,6.8-46.8l-11.2,6c33.6-40.4,57.6-7.2,57.6-7.2  c23.2,18,8.4,45.2,8.4,45.2s-2.8-20-12.8-28.8c0,0-12,13.6-39.6,1.2c0,0-6.4,9.6-4,22.8c0,0-2.8-1.6-3.6-8.4  C103.6,269.2,100.4,278,102.4,285.2L102.4,285.2z"/>
<g>
	<path style="fill:#FFFFFF;" d="M114.4,312.4c0,0,2.8,16.4,17.6,23.6c0,0-10,7.6-12,14C120,350,104,326.4,114.4,312.4z"/>
	<path style="fill:#FFFFFF;" d="M149.6,312.4c0,0-2.8,16.4-17.6,23.6c0,0,10,7.6,12,14C144,350,160,326.4,149.6,312.4z"/>
	<path style="fill:#FFFFFF;" d="M168.8,386.4c-0.4,0-0.8,0.4-1.2,0.4c-2,0.8-3.6,1.6-5.6,2l4.8-4.8L168.8,386.4z"/>
</g>
<g>
	<path style="fill:#FFD05B;" d="M395.6,157.6l-16.4,0.4l28.4,27.2l27.2-28.4l-16,0.4c-6.4-37.2-43.2-55.6-72-44.4   C378.4,110.4,398,135.2,395.6,157.6z"/>
	<path style="fill:#FFD05B;" d="M234.8,405.6l11.2-12l-39.6,0.8l0.8,39.6l10.8-11.6c30.8,22,70,8.8,82.4-19.2   C280.8,426.8,249.2,423.2,234.8,405.6z"/>
	<path style="fill:#FFD05B;" d="M121.2,143.2l0.4,16.4l27.2-28.4L120.4,104l0.4,16c-37.2,6.4-55.6,43.2-44.4,72   C73.6,160.4,98.4,140.8,121.2,143.2z"/>
</g>
<g>
</g>
<g>
</g>
<g>
</g>
<g>
</g>
<g>
</g>
<g>
</g>
<g>
</g>
<g>
</g>
<g>
</g>
<g>
</g>
<g>
</g>
<g>
</g>
<g>
</g>
<g>
</g>
<g>
</g>
</svg>
