<?xml version="1.0" encoding="iso-8859-1"?>
<!-- Generator: Adobe Illustrator 19.0.0, SVG Export Plug-In . SVG Version: 6.00 Build 0)  -->
<svg xmlns="http://www.w3.org/2000/svg" xmlns:xlink="http://www.w3.org/1999/xlink" version="1.1" id="Layer_1" x="0px" y="0px" viewBox="0 0 508 508" style="enable-background:new 0 0 508 508;" xml:space="preserve">
<circle style="fill:#54C0EB;" cx="254" cy="254" r="254"/>
<path style="fill:#324A5E;" d="M397.6,396L397.6,396c-11.6,11.6-30.4,10.4-40.8-2.4L290,309.2c-4.8-6-4-14.4,1.2-19.6l0,0  c5.2-5.2,13.6-5.6,19.6-1.2l84.4,66.8C408,365.6,409.2,384.8,397.6,396z"/>
<path style="fill:#FFFFFF;" d="M266,260.8l-3.6,3.6c-8.4,8.4-8.4,22,0,30.4l6,6c8.4,8.4,22,8.4,30.4,0l3.6-3.6  c8.4-8.4,8.4-22,0-30.4l-6-6C287.6,252.4,274.4,252.4,266,260.8z"/>
<circle style="fill:#FFD05B;" cx="206.8" cy="208.4" r="104.4"/>
<circle style="fill:#FFFFFF;" cx="206.8" cy="208.4" r="82.8"/>
<path style="fill:#324A5E;" d="M164,279.2c-6.8-4-13.2-9.2-18.4-15.2c-2.4-2.4-4.4-5.2-6.4-8c0.4-5.6,0.8-9.2,0.8-9.2l0,0  c0.8,0.4,10.4,6.4,15.2,6.4C158,253.2,163.2,266.4,164,279.2z"/>
<path style="fill:#54C0EB;" d="M242,276.8l-4,7.6l-0.4,0.8c-1.6,0.8-3.2,1.2-4.8,1.6s-3.2,1.2-4.8,1.2c-0.4,0-0.8,0.4-1.6,0.4  c-2,0.4-3.6,0.8-5.6,1.2c-2,0.4-4,0.8-6,0.8c0,0-0.4,0-0.8,0c-0.4,0-0.8,0-1.6,0c-2,0-4,0.4-6,0.4s-4,0-6-0.4c-0.4,0-1.2,0-1.6,0  c-0.4,0-0.4,0-0.8,0c-2,0-4-0.4-6-0.8c-8.8-1.6-16.8-4.4-24.4-8c-2.8-11.2-5.6-23.6-4.4-25.2c2.8-3.2,12.8-16.8,12.8-16.8l4-1.2  l8-2.4l1.2-0.4h0.4l1.2-0.4l5.6-1.6l9.2-2.8l9.6,2.4l5.6,1.6l1.2,0.4h0.4l1.2,0.4l8.4,2.4l6.8,1.6L242,276.8z"/>
<path style="fill:#FF7058;" d="M213.6,287.2l0.8,3.6c-0.4,0-0.8,0-1.6,0c-2,0-4,0.4-6,0.4s-4,0-6-0.4c-0.4,0-1.2,0-1.6,0l0.8-3.6  l5.6-31.2l-6-7.6l-5.6-7.2h26l-6,6.8l-6,7.6L213.6,287.2z"/>
<path style="fill:#E6E9EE;" d="M223.2,227.2c0,12-7.2,14-16.4,14s-16.4-1.6-16.4-14c0-12,7.2-31.6,16.4-31.6  C216,195.6,223.2,215.2,223.2,227.2z"/>
<g>
	<path style="fill:#324A5E;" d="M198.8,290.4c-2,0-4-0.4-6-0.8c-8.8-1.6-16.8-4.4-24.4-8c-1.6-0.8-2.8-1.6-4.4-2.4   c-6.8-4-13.2-9.2-18.4-15.2c-3.2-10-5.6-16.8-5.6-17.2l0,0c28.4-7.6,40.8-14.8,46-19.2c2.8-2.4,3.6-4,3.6-4c0,0.4,0,0.4,0,0.8   c0,3.6,0.4,7.6,0.8,11.2c0,2.4,0.4,4.4,0.8,6.8C192.8,261.2,195.6,277.6,198.8,290.4z"/>
	<path style="fill:#324A5E;" d="M200.8,290.8c-0.4,0-1.2,0-1.6,0c-0.4,0-0.4,0-0.8,0c-2,0-4-0.4-6-0.8c-8-21.6-15.6-43.6-15.6-43.6   l8-4l-4-4l-0.8-0.8c1.6-3.6,3.6-7.2,5.6-10s4-5.2,4.8-6l0,0c0.4-0.4,0.4-0.4,0.4-0.4v0.4c0,0,0,0.4,0,0.8c-0.4,2-0.8,4.4-0.4,8l0,0   c0,1.6,0,3.6,0.4,6c0.4,2.8,0.8,6,1.2,9.2l0,0c1.6,12.8,4.8,28,8,42.4C200.4,288.4,200.4,289.6,200.8,290.8z"/>
	<path style="fill:#324A5E;" d="M274.8,256c-2,2.8-4,5.6-6.4,8c-5.6,6-11.6,11.2-18.4,15.2c1.2-12.8,6.4-25.6,9.2-25.6   c4.4,0,14.4-6,15.2-6.4l0,0C274.4,247.2,274,250.4,274.8,256z"/>
	<path style="fill:#324A5E;" d="M273.6,246.8L273.6,246.8c0,0.4-2.4,6.8-5.6,17.2c-5.6,6-11.6,11.2-18.4,15.2c-3.6,2-7.2,4-11.2,5.6   c-0.4,0-0.8,0.4-0.8,0.4c-1.6,0.8-3.2,1.2-4.8,1.6s-3.2,1.2-4.8,1.2c-0.4,0-0.8,0.4-1.6,0.4c-2,0.4-3.6,0.8-5.6,1.2   c-2,0.4-4,0.8-6,0.8c3.2-13.2,6-29.6,8-48.4c0.4-2.4,0.4-4.8,0.8-7.2c0.4-3.6,0.4-7.2,0.8-10.8l0,0c0-0.4,0-0.4,0-0.8   c0,0,0.8,1.6,3.6,4C233.2,232,245.6,239.2,273.6,246.8z"/>
	<path style="fill:#324A5E;" d="M236.4,246.4c0,0-7.6,22-15.6,43.6c-2,0.4-4,0.8-6,0.8c0,0-0.4,0-0.8,0c-0.4,0-0.8,0-1.6,0   c0.4-1.2,0.4-2.4,0.8-3.6c3.2-14.4,6.4-30,8-42.4l0,0c0.4-3.6,0.8-6.8,1.2-9.6c0-2,0.4-4,0.4-5.6l0,0l0,0c0-3.2,0-5.6-0.8-7.2l0,0   V222v-0.4c0,0,0,0,0.4,0.4l0,0c0.8,1.2,2.8,3.2,4.8,6s4,6.4,5.6,10l0,0l-4.4,4.8L236.4,246.4z"/>
</g>
<g>
	<ellipse style="fill:#FFFFFF;" cx="206.8" cy="192" rx="28.4" ry="35.6"/>
	
		<ellipse transform="matrix(0.3227 -0.9465 0.9465 0.3227 -20.1674 351.1165)" style="fill:#FFFFFF;" cx="235.252" cy="189.65" rx="9.6" ry="5.2"/>
	
		<ellipse transform="matrix(0.3227 0.9465 -0.9465 0.3227 300.7537 -40.4808)" style="fill:#FFFFFF;" cx="178.662" cy="189.906" rx="9.6" ry="5.2"/>
</g>
<path style="fill:#324A5E;" d="M181.2,197.2c-14.8-30.4,5.6-40.4,5.6-40.4l-9.6,5.6c29.2-34.8,50-6.4,50-6.4  c20,15.6,7.2,39.2,7.2,39.2s-2.4-17.2-10.8-24.8c0,0-10.4,11.6-34.4,0.8c0,0-5.6,8.4-3.6,19.6c0,0-2.4-1.6-3.2-7.6  C182.4,183.6,179.6,191.2,181.2,197.2L181.2,197.2z"/>
<g>
	<path style="fill:#84DBFF;" d="M191.6,220.8c0,0,2.4,14,15.2,20.4c0,0-8.8,6.8-10.4,12C196.4,253.2,182.4,232.8,191.6,220.8z"/>
	<path style="fill:#84DBFF;" d="M222,220.8c0,0-2.4,14-15.2,20.4c0,0,8.8,6.8,10.4,12C217.2,253.2,231.2,232.8,222,220.8z"/>
</g>
<path style="fill:#324A5E;" d="M238.4,284.8c-0.4,0-0.8,0.4-0.8,0.4c-1.6,0.8-3.2,1.2-4.8,1.6l4-4L238.4,284.8z"/>
<g>
</g>
<g>
</g>
<g>
</g>
<g>
</g>
<g>
</g>
<g>
</g>
<g>
</g>
<g>
</g>
<g>
</g>
<g>
</g>
<g>
</g>
<g>
</g>
<g>
</g>
<g>
</g>
<g>
</g>
</svg>
