<?xml version="1.0" encoding="iso-8859-1"?>
<!-- Generator: Adobe Illustrator 19.0.0, SVG Export Plug-In . SVG Version: 6.00 Build 0)  -->
<svg xmlns="http://www.w3.org/2000/svg" xmlns:xlink="http://www.w3.org/1999/xlink" version="1.1" id="Layer_1" x="0px" y="0px" viewBox="0 0 508 508" style="enable-background:new 0 0 508 508;" xml:space="preserve">
<circle style="fill:#FFD05B;" cx="254" cy="254" r="254"/>
<g>
	<path style="fill:#FFFFFF;" d="M438,175.2c0-16.4-13.2-29.6-29.6-29.6c-1.2,0-2.4,0-3.2,0c-5.6-6.8-13.6-11.2-23.2-11.2   c-7.6,0-14.4,2.8-19.6,7.6c-3.2-1.2-6.4-1.6-10-1.6c-16.4,0-29.6,13.2-29.6,29.6c0,5.2,1.2,10,3.6,14.4c-0.8,2.8-1.2,5.2-1.2,8   c0,16.4,13.2,29.6,29.6,29.6c5.6,0,10.4-1.6,14.8-4c4.8,3.6,10.8,5.6,17.2,5.6c12.8,0,23.6-8,27.6-19.6   C428,201.2,438,189.6,438,175.2z"/>
	<circle style="fill:#FFFFFF;" cx="316.8" cy="228.4" r="13.2"/>
	<circle style="fill:#FFFFFF;" cx="296.8" cy="244.8" r="8"/>
</g>
<path style="fill:#324A5E;" d="M122.4,382c-14.4-8.8-27.6-19.2-38.8-31.6c-4.8-5.2-9.6-11.2-13.6-16.8c1.2-11.6,2-18.8,2-18.8l0,0  c1.2,0.8,22,13.6,31.6,13.6C109.6,328,120.4,355.2,122.4,382z"/>
<path style="fill:#54C0EB;" d="M285.6,376.8l-8.4,15.6l-0.8,2c-3.2,1.2-6.8,2.4-10.4,3.6c-3.2,1.2-6.4,2-10,2.8  c-1.2,0.4-2,0.4-3.2,0.8c-3.6,0.8-7.6,1.6-11.6,2.4s-8.4,1.2-12.4,1.6c-0.4,0-0.8,0-1.2,0c-0.8,0-2,0-3.2,0.4  c-4,0.4-8.4,0.4-12.4,0.4c-4.4,0-8.4,0-12.4-0.4c-1.2,0-2,0-3.2-0.4c-0.4,0-0.8,0-1.2,0c-4.4-0.4-8.4-0.8-12.4-1.6  c-18-3.2-35.2-8.8-50.8-17.2c-6-23.6-12-49.2-8.8-52.8c5.6-6.8,26.8-35.6,26.8-35.6l8-2.4l16.8-4.8l2.8-0.8l0.8-0.4l2.4-0.8  l11.6-3.2l19.6-5.6l20,5.2l11.6,2.8l2,0.4l1.2,0.4l2.8,0.8l18,4.8l14,3.6L285.6,376.8z"/>
<path style="fill:#FF7058;" d="M226,398.8l1.2,7.2c-0.8,0-2,0-3.2,0.4c-4,0.4-8.4,0.4-12.4,0.4c-4.4,0-8.4,0-12.4-0.4  c-1.2,0-2,0-3.2-0.4l1.2-7.2l11.6-65.2l-12.8-16l-12-14.8h54.4l-12,14.8l-12.8,16L226,398.8z"/>
<path style="fill:#E6E9EE;" d="M246.4,273.2c0,25.6-15.6,29.2-34.4,29.2c-19.2,0-34.4-3.6-34.4-29.2s15.6-66,34.4-66  C230.8,207.2,246.4,248,246.4,273.2z"/>
<g>
	<path style="fill:#324A5E;" d="M194.8,406c-4.4-0.4-8.4-0.8-12.4-1.6c-18-3.2-35.2-8.8-50.8-17.2c-3.2-1.6-6.4-3.2-9.2-5.2   c-14.4-8.8-27.6-19.2-38.8-31.6c-6.4-21.2-11.6-35.2-11.6-36l0,0c59.2-15.6,85.2-31.2,96-40c6-5.2,7.6-8,7.6-8c0,0.4,0,1.2,0,1.6   c0.4,8,0.8,15.6,1.6,23.2c0.4,4.8,0.8,9.6,1.2,14C182.4,344.4,188.8,378.4,194.8,406z"/>
	<path style="fill:#324A5E;" d="M199.6,406.4c-1.2,0-2,0-3.2-0.4c-0.4,0-0.8,0-1.2,0c-4.4-0.4-8.4-0.8-12.4-1.6   c-17.2-45.2-32.8-90.8-32.8-90.8l16.4-8.4l-8.4-8.8l-1.2-1.2c2.8-8,7.2-15.2,11.6-21.2c4.4-6,8.4-10.8,10.4-12.8c0,0,0.4,0,0.4-0.4   c0.8-0.8,1.2-1.2,1.2-1.2c0,0.4,0,0.4-0.4,0.8c0,0.4-0.4,0.8-0.4,1.2c-1.2,4-1.6,9.6-1.2,16.4l0,0c0,3.6,0.4,8,0.8,12.4   c0.4,6,1.2,12.4,2.4,19.2l0,0c3.6,26.4,10.4,58.8,17.2,88.8C198.4,401.2,198.8,403.6,199.6,406.4z"/>
	<path style="fill:#324A5E;" d="M354,333.2c-4.4,6-8.8,11.6-13.6,16.8c-11.2,12.4-24.4,23.2-38.8,31.6c2-26.8,13.2-54,19.2-54   c9.6,0,30-12.8,31.6-13.6l0,0C352.4,314,352.8,321.6,354,333.2z"/>
	<path style="fill:#324A5E;" d="M352,314.4L352,314.4c-0.4,0.8-5.2,14.8-11.6,36c-11.2,12.4-24.4,23.2-38.8,31.6   c-7.6,4.4-15.6,8.4-23.6,11.6c-0.8,0.4-1.2,0.4-2,0.8c-3.2,1.2-6.8,2.4-10.4,3.6c-3.2,1.2-6.4,2-10,2.8c-1.2,0.4-2,0.4-3.2,0.8   c-3.6,0.8-7.6,1.6-11.6,2.4s-8.4,1.2-12.4,1.6c6.4-27.6,12.4-61.6,16.4-101.2c0.4-4.8,0.8-10,1.2-14.8c0.4-7.2,1.2-14.8,1.6-22.4   l0,0c0-0.4,0-1.2,0-1.6c0,0,1.6,3.2,7.6,8C266.8,283.2,292.8,298.8,352,314.4z"/>
	<path style="fill:#324A5E;" d="M274,313.2c0,0-15.6,46-32.8,90.8c-4,0.8-8.4,1.2-12.4,1.6c-0.4,0-0.8,0-1.2,0c-0.8,0-2,0-3.2,0.4   c0.4-2.4,1.2-5.2,1.6-7.6c6.8-30,13.6-62.4,17.2-88.8l0,0c0.8-7.2,1.6-14,2.4-20c0.4-4.4,0.4-8.4,0.4-12v-0.4l0,0   c0-6.4-0.4-11.6-1.2-15.6l0,0c0-0.4,0-0.8-0.4-1.2c0-0.4,0-0.4-0.4-0.8c0,0,0.4,0.4,0.8,0.8c0,0,0,0.4,0.4,0.4c2,2,6,6.8,10.4,12.8   c4,6,8.4,13.2,11.2,21.2l0,0l-9.6,9.6L274,313.2z"/>
</g>
<g>
	<ellipse style="fill:#FFFFFF;" cx="212" cy="200" rx="59.2" ry="74.4"/>
	
		<ellipse transform="matrix(-0.9465 -0.3227 0.3227 -0.9465 464.791 467.4005)" style="fill:#FFFFFF;" cx="271.139" cy="195.173" rx="10.8" ry="20.4"/>
	
		<ellipse transform="matrix(0.9465 -0.3227 0.3227 0.9465 -54.7557 59.5741)" style="fill:#FFFFFF;" cx="152.295" cy="194.928" rx="10.8" ry="20.4"/>
</g>
<path style="fill:#324A5E;" d="M158,210.8c-30.4-64,12-84.8,12-84.8l-20,11.2C210.8,64.4,254.4,124,254.4,124  c42.4,32.8,14.8,82,14.8,82s-4.8-36-22.8-52c0,0-21.6,24.4-71.6,2c0,0-11.6,17.6-7.6,41.2c0,0-5.2-3.2-6.4-15.6  C160.8,182,154.8,198,158,210.8L158,210.8z"/>
<g>
	<path style="fill:#84DBFF;" d="M180,260c0,0,4.8,29.2,32,42.4c0,0-18,14-21.6,25.6C190.4,328,161.2,285.6,180,260z"/>
	<path style="fill:#84DBFF;" d="M244,260c0,0-4.8,29.2-32,42.4c0,0,18,14,21.6,25.6C233.6,328,262.8,285.6,244,260z"/>
</g>
<path style="fill:#324A5E;" d="M278,393.6c-0.8,0.4-1.2,0.4-2,0.8c-3.2,1.2-6.8,2.4-10.4,3.6l8.4-8.4L278,393.6z"/>
<g>
	<circle style="fill:#84DBFF;" cx="356.4" cy="181.2" r="8"/>
	<circle style="fill:#84DBFF;" cx="380.4" cy="181.2" r="8"/>
	<circle style="fill:#84DBFF;" cx="404.4" cy="181.2" r="8"/>
</g>
<g>
</g>
<g>
</g>
<g>
</g>
<g>
</g>
<g>
</g>
<g>
</g>
<g>
</g>
<g>
</g>
<g>
</g>
<g>
</g>
<g>
</g>
<g>
</g>
<g>
</g>
<g>
</g>
<g>
</g>
</svg>
