<?xml version="1.0" encoding="iso-8859-1"?>
<!-- Generator: Adobe Illustrator 19.0.0, SVG Export Plug-In . SVG Version: 6.00 Build 0)  -->
<svg xmlns="http://www.w3.org/2000/svg" xmlns:xlink="http://www.w3.org/1999/xlink" version="1.1" id="Layer_1" x="0px" y="0px" viewBox="0 0 508 508" style="enable-background:new 0 0 508 508;" xml:space="preserve">
<circle style="fill:#FFD05B;" cx="254" cy="254" r="254"/>
<g>
	<path style="fill:#FF7058;" d="M351.2,384.4c-16-18.8-54-32-97.2-32s-81.2,13.2-97.2,32H351.2z"/>
	<path style="fill:#FF7058;" d="M302,190.4h-96c2.8,5.2,4.8,11.2,6.4,17.2c9.6,32.8,6.4,74.8-11.6,120.8c-4,10-8.8,20.8-14.8,31.2   h135.6c-5.6-10.4-10.4-20.8-14.8-31.2c-18.4-46-21.2-88-11.6-120.8C297.2,201.6,299.2,196,302,190.4z"/>
</g>
<g>
	<path style="fill:#F1543F;" d="M329.6,367.2H178.4c-4,0-7.6-3.2-7.2-7.2l0,0c0.4-4,3.6-7.2,8-7.2h149.6c4,0,7.6,3.2,8,7.2l0,0   C336.8,363.6,333.6,367.2,329.6,367.2z"/>
	<path style="fill:#F1543F;" d="M362,414H146c-8.4,0-14.4-6.8-14-14.8l0,0c0.8-8,7.6-14.8,16-14.8h212c8,0,15.2,6.4,16,14.8l0,0   C376.4,407.2,370.4,414,362,414z"/>
	<path style="fill:#F1543F;" d="M209.6,95.2h89.2c-7.2-9.2-19.6-16-34-18.4c2.4-2.8,4-6.4,4-10c0-8-6.4-14.4-14.4-14.4   S240,58.8,240,66.8c0,4,1.6,7.6,4,10C228.8,79.2,216.4,86,209.6,95.2z"/>
</g>
<g>
	<path style="fill:#FF7058;" d="M302,187.2c-7.6-12.4-26-21.6-48-21.6s-40.4,8.8-48,21.6H302z"/>
	<path style="fill:#FF7058;" d="M254,87.2c-41.6-0.8-68.8-13.6-68.8-13.6c38,28.8,39.2,92,39.2,92h30h30c0,0,1.2-62.8,39.2-92   C322.8,73.6,295.6,86.4,254,87.2z"/>
</g>
<g>
	<path style="fill:#F1543F;" d="M302,197.2h-96c-3.6,0-6.8-3.2-6.8-6.8l0,0c0-3.6,3.2-6.8,6.8-6.8h96c3.6,0,6.8,3.2,6.8,6.8l0,0   C308.8,194.4,306,197.2,302,197.2z"/>
	<path style="fill:#F1543F;" d="M288,172.8h-68c-2.8,0-4.8-2-4.8-4.8l0,0c0-2.8,2-4.8,4.8-4.8h68c2.8,0,4.8,2,4.8,4.8l0,0   C292.8,170.4,290.8,172.8,288,172.8z"/>
</g>
<g>
</g>
<g>
</g>
<g>
</g>
<g>
</g>
<g>
</g>
<g>
</g>
<g>
</g>
<g>
</g>
<g>
</g>
<g>
</g>
<g>
</g>
<g>
</g>
<g>
</g>
<g>
</g>
<g>
</g>
</svg>
