<?xml version="1.0" encoding="iso-8859-1"?>
<!-- Generator: Adobe Illustrator 19.0.0, SVG Export Plug-In . SVG Version: 6.00 Build 0)  -->
<svg xmlns="http://www.w3.org/2000/svg" xmlns:xlink="http://www.w3.org/1999/xlink" version="1.1" id="Layer_1" x="0px" y="0px" viewBox="0 0 508 508" style="enable-background:new 0 0 508 508;" xml:space="preserve">
<circle style="fill:#84DBFF;" cx="254" cy="254" r="254"/>
<g>
	<path style="fill:#324A5E;" d="M378.4,322.4c-46.4,0-100.8-42.4-100.8-78c0-38.8,60.4-52.8,100.8-52.8c18.8,0,33.2,5.2,43.6,15.2   c5.6,5.2,9.6,12,12.4,19.6c3.2,8.8,4.8,18.8,4.8,30.4C439.6,298.8,417.6,322.4,378.4,322.4z M378.4,198.8   c-45.2,0-93.6,16-93.6,45.2c0,31.2,52.4,70.8,93.6,70.8c44.4,0,54-31.6,54-58c0-10.4-1.6-20-4.4-28c-2.4-6.8-6-12.4-10.8-17.2   C408,203.2,394.8,198.8,378.4,198.8z"/>
	<path style="fill:#324A5E;" d="M129.6,322c-39.6,0-61.2-23.2-61.2-65.2s21.6-65.2,61.2-65.2c40.4,0,100.8,14,100.8,52.8   C230.4,280,176,322,129.6,322z M129.6,198.8c-44.4,0-54,31.6-54,58s9.2,58,54,58c41.2,0,93.6-39.6,93.6-70.8   C223.2,214.8,175.2,198.8,129.6,198.8z"/>
	<path style="fill:#324A5E;" d="M378.4,185.6c-17.6,0-35.2,2-51.2,6.4c-23.6,6.4-48,10.4-72.4,10.4h-1.2c-24.4,0-48.8-4-72.4-10.4   c-16-4.4-34-6.4-51.2-6.4c0,0-68,0-80,15.6v29.6l7.2,8c4,4.4,6,10,6,15.6c0,0.8,0,1.2,0,2c0,5.2,4,9.6,9.2,9.6h56.8v6h92   c4,0,8-2.4,9.6-6c3.6-7.2,5.6-14.8,5.6-22v-0.8c0-9.2,7.6-17.2,17.2-17.2h1.6c9.6,0,17.2,7.6,17.2,17.2v0.8c0,7.6,2,14.8,5.6,22   c2,3.6,5.6,6,9.6,6h92v-6h56.8c5.2,0,9.2-4.4,9.2-9.6c0-0.8,0-1.2,0-2c0-5.6,2-11.6,6-15.6l7.2-8v-29.6   C446.4,186,378.4,185.6,378.4,185.6z"/>
</g>
<g>
	<path style="fill:#E6E9EE;" d="M436,256.8c0,34-14.8,61.6-57.6,61.6S281.2,278,281.2,244s54.4-48.8,97.2-48.8S436,222.8,436,256.8z   "/>
	<path style="fill:#E6E9EE;" d="M436,256.8c0,34-14.8,61.6-57.6,61.6S281.2,278,281.2,244s54.4-48.8,97.2-48.8   c18.8,0,32,5.2,41.2,14c5.2,5.2,9.2,11.2,11.6,18.4C434.4,236.4,436,246.4,436,256.8z"/>
	<path style="fill:#E6E9EE;" d="M72,256.8c0,34,14.8,61.6,57.6,61.6s97.2-40.4,97.2-74.4s-54.4-48.8-97.2-48.8S72,222.8,72,256.8z"/>
</g>
<g>
	<path style="fill:#FFFFFF;" d="M408.8,201.6l-103.2,85.6c-14.4-13.2-24.4-28.8-24.4-43.2c0-34,54.4-48.8,97.2-48.8   C390.8,195.2,400.8,197.2,408.8,201.6z"/>
	<path style="fill:#FFFFFF;" d="M188.8,204.8l-108,89.6c-6-10.4-8.8-23.6-8.8-37.6c0-34,14.8-61.6,57.6-61.6   C149.2,195.2,170.8,198,188.8,204.8z"/>
</g>
<g>
</g>
<g>
</g>
<g>
</g>
<g>
</g>
<g>
</g>
<g>
</g>
<g>
</g>
<g>
</g>
<g>
</g>
<g>
</g>
<g>
</g>
<g>
</g>
<g>
</g>
<g>
</g>
<g>
</g>
</svg>
