<?xml version="1.0" encoding="iso-8859-1"?>
<!-- Generator: Adobe Illustrator 19.0.0, SVG Export Plug-In . SVG Version: 6.00 Build 0)  -->
<svg xmlns="http://www.w3.org/2000/svg" xmlns:xlink="http://www.w3.org/1999/xlink" version="1.1" id="Layer_1" x="0px" y="0px" viewBox="0 0 508 508" style="enable-background:new 0 0 508 508;" xml:space="preserve">
<circle style="fill:#324A5E;" cx="254" cy="254" r="254"/>
<path style="fill:#2B3B4E;" d="M90.8,448.8c44,36.8,100.8,59.2,163.2,59.2c62,0,118.8-22.4,163.2-59.2H90.8z"/>
<path style="fill:#ACB3BA;" d="M260.8,448.8v-346c0-4-3.2-6.8-6.8-6.8c-4,0-6.8,3.2-6.8,6.8v346H260.8z"/>
<g>
	<polygon style="fill:#FFFFFF;" points="181.2,120 181.2,141.6 181.2,163.6 382.4,174.4 415.2,141.6 382.4,109.2  "/>
	<polygon style="fill:#FFFFFF;" points="326.8,210.8 326.8,232.4 326.8,254.4 125.6,265.2 92.8,232.4 125.6,200  "/>
</g>
<g>
</g>
<g>
</g>
<g>
</g>
<g>
</g>
<g>
</g>
<g>
</g>
<g>
</g>
<g>
</g>
<g>
</g>
<g>
</g>
<g>
</g>
<g>
</g>
<g>
</g>
<g>
</g>
<g>
</g>
</svg>
