<?xml version="1.0" encoding="iso-8859-1"?>
<!-- Generator: Adobe Illustrator 19.0.0, SVG Export Plug-In . SVG Version: 6.00 Build 0)  -->
<svg xmlns="http://www.w3.org/2000/svg" xmlns:xlink="http://www.w3.org/1999/xlink" version="1.1" id="Layer_1" x="0px" y="0px" viewBox="0 0 508 508" style="enable-background:new 0 0 508 508;" xml:space="preserve">
<circle style="fill:#84DBFF;" cx="254" cy="254" r="254"/>
<path style="fill:#FF7058;" d="M254,121.2c31.6,0,60.4,10.8,83.2,29.2l32.8-32.8c-31.2-26.8-72-42.8-116.4-42.8s-85.2,16-116.4,42.8  l32.8,32.8C193.6,132.4,222.4,121.2,254,121.2z"/>
<g>
	<path style="fill:#FFFFFF;" d="M268.4,433.2c87.6-6.8,157.6-76.8,164.4-164.4H386c-6.8,62-56,111.2-118,118v46.4H268.4z"/>
	<path style="fill:#FFFFFF;" d="M432.8,240c-3.2-38.8-18.4-74-42.4-102l-32.8,32.8c15.6,19.2,26,43.2,28.8,69.2H432.8z"/>
	<path style="fill:#FFFFFF;" d="M122,268.4H75.2C82,356,152,426,239.6,432.8v-46.4C177.6,380,128.4,330.4,122,268.4z"/>
</g>
<path style="fill:#FF7058;" d="M75.2,240H122c2.8-26,13.2-49.6,28.8-69.2L117.6,138C93.6,166,78.4,201.2,75.2,240z"/>
<circle style="fill:#324A5E;" cx="254" cy="254.4" r="108.4"/>
<path style="fill:#FFFFFF;" d="M250,330.4v-13.6c-16.8-1.6-32-8.4-45.2-20l13.6-16c10.4,8.8,20.8,14.4,32,16v-35.6  c-14-3.2-24-7.6-30.4-13.2c-6.4-5.2-9.6-13.2-9.6-24s3.6-19.2,11.2-26c7.6-6.8,17.2-10.4,28.8-11.2V178H262v9.2  c13.6,0.8,26.4,5.6,38.4,13.6l-12,16.8c-8-5.6-16.8-9.2-26.4-10.8V242h0.4c14,3.2,24.4,7.6,31.2,13.6c6.8,5.6,10,14,10,24.4  c0,10.8-4,19.6-11.6,26.4s-17.6,10.4-30,11.2v13.2h-12V330.4z M236.8,212c-2.8,2.4-4.4,6-4.4,10s1.2,7.2,3.6,9.6  c2.4,2.4,7.2,4.8,14,6.8v-32C244.4,207.6,240,209.2,236.8,212z M275.6,292.4c3.6-2.8,5.2-6.4,5.2-10.8s-1.2-7.6-4-10.4  c-2.8-2.4-7.6-4.8-15.2-7.2v33.2C267.6,296.8,272.4,295.2,275.6,292.4z"/>
<g>
</g>
<g>
</g>
<g>
</g>
<g>
</g>
<g>
</g>
<g>
</g>
<g>
</g>
<g>
</g>
<g>
</g>
<g>
</g>
<g>
</g>
<g>
</g>
<g>
</g>
<g>
</g>
<g>
</g>
</svg>
