<?xml version="1.0" encoding="iso-8859-1"?>
<!-- Generator: Adobe Illustrator 19.0.0, SVG Export Plug-In . SVG Version: 6.00 Build 0)  -->
<svg xmlns="http://www.w3.org/2000/svg" xmlns:xlink="http://www.w3.org/1999/xlink" version="1.1" id="Layer_1" x="0px" y="0px" viewBox="0 0 508 508" style="enable-background:new 0 0 508 508;" xml:space="preserve">
<circle style="fill:#84DBFF;" cx="254" cy="254" r="254"/>
<path style="fill:#E6E9EE;" d="M294.8,185.6l-4.8,8.8l-0.4,1.2c-2,0.8-3.6,1.6-5.6,2c-1.6,0.8-3.6,1.2-5.6,1.6  c-0.4,0-1.2,0.4-1.6,0.4c-2,0.4-4.4,0.8-6.4,1.2c-2.4,0.4-4.4,0.8-6.8,0.8c-0.4,0-0.4,0-0.8,0s-1.2,0-1.6,0  c-2.4,0.4-4.8,0.4-7.2,0.4s-4.8,0-6.8-0.4c-0.4,0-1.2,0-1.6,0c-0.4,0-0.4,0-0.8,0c-2.4-0.4-4.8-0.4-6.8-0.8c-10-1.6-19.2-4.8-28-9.6  c-3.2-13.2-6.8-27.2-4.8-29.2c3.2-3.6,14.8-19.6,14.8-19.6l4.4-1.2l9.2-2.8l1.6-0.4h0.4l1.2-0.4l6.4-2l10.8-3.2l11.2,2.8l6.4,1.6  l1.2,0.4h0.4l1.6,0.4l10,2.4l7.6,2L294.8,185.6z"/>
<path style="fill:#FF7058;" d="M262,197.6l0.8,4c-0.4,0-1.2,0-1.6,0c-2.4,0.4-4.8,0.4-7.2,0.4s-4.8,0-6.8-0.4c-0.4,0-1.2,0-1.6,0  l0.8-4l6.4-36l-7.2-8.8l-6.4-8.4h30l-6.4,8.4l-7.2,8.8L262,197.6z"/>
<path style="fill:#F9B54C;" d="M273.2,128.4c0,14-8.4,16-19.2,16s-19.2-2-19.2-16S243.2,92,254,92C264.8,92,273.2,114.4,273.2,128.4  z"/>
<g>
	<path style="fill:#2B3B4E;" d="M204.4,188.4c-8-4.8-15.2-10.8-21.6-17.6c-2.8-2.8-5.2-6-7.6-9.2c0.8-6.4,1.2-10.4,1.2-10.4l0,0   c0.8,0.4,12,7.6,17.2,7.6C197.2,158.8,203.2,173.6,204.4,188.4z"/>
	<path style="fill:#2B3B4E;" d="M244.8,201.6c-2.4-0.4-4.8-0.4-6.8-0.8c-10-1.6-19.2-4.8-28-9.6c-1.6-0.8-3.6-2-5.2-2.8   c-8-4.8-15.2-10.8-21.6-17.6c-3.6-11.6-6.4-19.6-6.4-20l0,0c32.8-8.8,47.2-17.2,53.2-22.4c3.6-2.8,4.4-4.4,4.4-4.4   c0,0.4,0,0.8,0,0.8c0.4,4.4,0.4,8.8,0.8,12.8c0,2.8,0.4,5.2,0.8,8C237.6,167.6,241.2,186.4,244.8,201.6z"/>
	<path style="fill:#2B3B4E;" d="M247.2,202c-0.4,0-1.2,0-1.6,0c-0.4,0-0.4,0-0.8,0c-2.4-0.4-4.8-0.4-6.8-0.8   c-9.6-24.8-18-50.4-18-50.4l9.2-4.8l-4.4-4.8l-0.8-0.8c1.6-4.4,4-8.4,6.4-11.6c2.4-3.6,4.8-6,5.6-7.2l0,0c0.4-0.4,0.4-0.4,0.4-0.4   v0.4c0,0.4,0,0.4-0.4,0.8c-0.4,2-0.8,5.2-0.8,9.2l0,0c0,2,0,4.4,0.4,6.8c0.4,3.2,0.8,6.8,1.2,10.4l0,0c2,14.8,5.6,32.4,9.6,49.2   C246.4,199.2,246.8,200.4,247.2,202z"/>
	<path style="fill:#2B3B4E;" d="M332.4,161.6c-2.4,3.2-4.8,6.4-7.6,9.2c-6.4,6.8-13.6,12.8-21.6,17.6c1.2-14.8,7.2-29.6,10.4-29.6   c5.2,0,16.8-7.2,17.2-7.6l0,0C330.8,151.2,332,155.2,332.4,161.6z"/>
	<path style="fill:#2B3B4E;" d="M331.6,151.2L331.6,151.2c0,0.4-2.8,8-6.4,20c-6.4,6.8-13.6,12.8-21.6,17.6c-4,2.4-8.4,4.8-12.8,6.4   c-0.4,0-0.8,0.4-1.2,0.4c-2,0.8-3.6,1.6-5.6,2c-1.6,0.8-3.6,1.2-5.6,1.6c-0.4,0-1.2,0.4-1.6,0.4c-2,0.4-4.4,0.8-6.4,1.2   c-2.4,0.4-4.4,0.8-6.8,0.8c3.6-15.2,6.8-34,9.2-56c0.4-2.8,0.4-5.6,0.8-8.4c0.4-4,0.4-8,0.8-12.4l0,0c0-0.4,0-0.4,0-0.8   c0,0,0.8,1.6,4.4,4.4C284.4,134,298.8,142.4,331.6,151.2z"/>
	<path style="fill:#2B3B4E;" d="M288.4,150.4c0,0-8.8,25.2-18,50.4c-2.4,0.4-4.4,0.8-6.8,0.8c-0.4,0-0.4,0-0.8,0s-1.2,0-1.6,0   c0.4-1.2,0.8-2.8,0.8-4.4c3.6-16.4,7.6-34.4,9.6-49.2l0,0c0.4-4,0.8-7.6,1.2-11.2c0-2.4,0.4-4.4,0.4-6.4c0,0,0,0,0-0.4l0,0   c0-3.6,0-6.4-0.8-8.4l0,0v-0.4v-0.4c0,0,0,0,0.4,0.4l0,0c1.2,1.2,3.2,3.6,5.6,7.2c2.4,3.2,4.8,7.2,6.4,11.6l0,0l-5.6,6L288.4,150.4   z"/>
</g>
<g>
	<ellipse style="fill:#FFD05B;" cx="254" cy="88" rx="32.8" ry="41.2"/>
	
		<ellipse transform="matrix(0.3227 -0.9465 0.9465 0.3227 113.5799 329.1448)" style="fill:#FFD05B;" cx="286.774" cy="85.211" rx="11.2" ry="6"/>
	
		<ellipse transform="matrix(0.3227 0.9465 -0.9465 0.3227 230.4066 -151.873)" style="fill:#FFD05B;" cx="221.322" cy="85.056" rx="11.2" ry="6"/>
</g>
<path style="fill:#324A5E;" d="M224.4,94c-16.8-35.2,6.8-46.8,6.8-46.8L220,53.6c33.6-40.4,57.6-7.6,57.6-7.6  c23.2,18,8.4,45.2,8.4,45.2s-2.8-20-12.8-28.8c0,0-12,13.6-39.6,1.2c0,0-6.4,9.6-4,22.8c0,0-2.8-1.6-3.6-8.4  C226,78,222.4,86.8,224.4,94L224.4,94z"/>
<g>
	<path style="fill:#FFFFFF;" d="M236.4,120.8c0,0,2.8,16.4,17.6,23.6c0,0-10,7.6-12,14C242,158.8,226,135.2,236.4,120.8z"/>
	<path style="fill:#FFFFFF;" d="M271.6,120.8c0,0-2.8,16.4-17.6,23.6c0,0,10,7.6,12,14C266,158.8,282,135.2,271.6,120.8z"/>
</g>
<path style="fill:#2B3B4E;" d="M290.8,194.8c-0.4,0-0.8,0.4-1.2,0.4c-2,0.8-3.6,1.6-5.6,2l4.8-4.8L290.8,194.8z"/>
<polygon style="fill:#FFFFFF;" points="324.8,342.4 183.2,342.4 156,158.4 352,158.4 "/>
<g>
	
		<ellipse transform="matrix(0.3227 -0.9465 0.9465 0.3227 -104.0217 351.417)" style="fill:#FFD05B;" cx="193.535" cy="248.392" rx="11.2" ry="6"/>
	
		<ellipse transform="matrix(0.3227 0.9465 -0.9465 0.3227 322.4424 45.348)" style="fill:#FFD05B;" cx="129.535" cy="247.975" rx="11.2" ry="6"/>
</g>
<g>
	<ellipse style="fill:#324A5E;" cx="161.6" cy="250.8" rx="32" ry="40.4"/>
	<path style="fill:#324A5E;" d="M132.4,256.8c-16.4-34.8,6.4-46,6.4-46l-10.8,6c32.8-39.6,56.4-7.2,56.4-7.2   c22.8,17.6,8,44.4,8,44.4s-2.8-19.6-12.4-28c0,0-11.6,13.2-38.8,1.2c0,0-6.4,9.6-4,22.4c0,0-2.8-1.6-3.6-8.4   C134,241.2,130.4,249.6,132.4,256.8L132.4,256.8z"/>
</g>
<path style="fill:#2B3B4E;" d="M237.6,312.8c-32-8.4-46-16.8-52-21.6H138c-6,4.8-20,13.2-52,21.6c0,0-0.4,4-1.2,10.4  c2.4,3.2,4.8,6.4,7.6,9.2c6,6.8,13.2,12.4,21.2,17.2c1.6,1.2,3.2,2,5.2,2.8c8.4,4.4,17.6,7.6,27.6,9.2c2.4,0.4,4.4,0.8,6.8,0.8  c0.4,0,0.4,0,0.8,0c0.4,0,1.2,0,1.6,0c2.4,0,4.4,0.4,6.8,0.4c2.4,0,4.4,0,6.8-0.4c0.4,0,1.2,0,1.6,0c0.4,0,0.4,0,0.8,0  c2.4-0.4,4.4-0.4,6.8-0.8c2-0.4,4.4-0.8,6.4-1.2c0.4,0,1.2-0.4,1.6-0.4c2-0.4,3.6-0.8,5.2-1.6c2-0.8,3.6-1.2,5.6-2  c0.4,0,0.8-0.4,1.2-0.4c4.4-1.6,8.4-4,12.4-6.4c8-4.8,14.8-10.4,21.2-17.2c2.8-2.8,5.2-6,7.6-9.2C238,316.8,237.6,312.8,237.6,312.8  z"/>
<path style="fill:#FFFFFF;" d="M180,284.4h-37.2c-1.2,1.2-3.2,3.6-5.2,6.8h47.6C183.2,288,181.2,285.6,180,284.4z"/>
<path style="fill:#324A5E;" d="M246,395.6V334c0-8.8-6.8-15.6-15.6-15.6H92.8c-8.8,0-15.6,6.8-15.6,15.6v61.6H246z"/>
<g>
	
		<ellipse transform="matrix(0.3227 -0.9465 0.9465 0.3227 21.3518 526.7419)" style="fill:#FFD05B;" cx="378.727" cy="248.452" rx="11.2" ry="6"/>
	
		<ellipse transform="matrix(0.3227 0.9465 -0.9465 0.3227 447.6682 -129.5623)" style="fill:#FFD05B;" cx="314.363" cy="248.019" rx="11.2" ry="6"/>
</g>
<g>
	<ellipse style="fill:#324A5E;" cx="346.4" cy="250.8" rx="32" ry="40.4"/>
	<path style="fill:#324A5E;" d="M317.2,256.8c-16.4-34.8,6.4-46,6.4-46l-10.8,6c32.8-39.6,56.4-7.2,56.4-7.2   c22.8,17.6,8,44.4,8,44.4s-2.8-19.6-12.4-28c0,0-11.6,13.2-38.8,1.2c0,0-6.4,9.6-4,22.4c0,0-2.8-1.6-3.6-8.4   C318.8,241.2,315.6,249.6,317.2,256.8L317.2,256.8z"/>
</g>
<path style="fill:#2B3B4E;" d="M422.4,312.8c-32-8.4-46-16.8-52-21.6h-47.6c-6,4.8-20,13.2-52,21.6c0,0-0.4,4-1.2,10.4  c2.4,3.2,4.8,6.4,7.6,9.2c6,6.8,13.2,12.4,21.2,17.2c1.6,1.2,3.2,2,5.2,2.8c8.4,4.4,17.6,7.6,27.6,9.2c2.4,0.4,4.4,0.8,6.8,0.8  c0.4,0,0.4,0,0.8,0s1.2,0,1.6,0c2.4,0,4.4,0.4,6.8,0.4s4.4,0,6.8-0.4c0.4,0,1.2,0,1.6,0s0.4,0,0.8,0c2.4-0.4,4.4-0.4,6.8-0.8  c2-0.4,4.4-0.8,6.4-1.2c0.4,0,1.2-0.4,1.6-0.4c2-0.4,3.6-0.8,5.2-1.6c2-0.8,3.6-1.2,5.6-2c0.4,0,0.8-0.4,1.2-0.4  c4.4-1.6,8.4-4,12.4-6.4c8-4.8,14.8-10.4,21.2-17.2c2.8-2.8,5.2-6,7.6-9.2C422.8,316.8,422.4,312.8,422.4,312.8z"/>
<path style="fill:#FFFFFF;" d="M365.2,284.4H328c-1.2,1.2-3.2,3.6-5.2,6.8h47.6C368.4,288,366.4,285.6,365.2,284.4z"/>
<path style="fill:#324A5E;" d="M430.8,395.6V334c0-8.8-6.8-15.6-15.6-15.6H277.6c-8.8,0-15.6,6.8-15.6,15.6v61.6H430.8z"/>
<g>
</g>
<g>
</g>
<g>
</g>
<g>
</g>
<g>
</g>
<g>
</g>
<g>
</g>
<g>
</g>
<g>
</g>
<g>
</g>
<g>
</g>
<g>
</g>
<g>
</g>
<g>
</g>
<g>
</g>
</svg>
