<?xml version="1.0" encoding="iso-8859-1"?>
<!-- Generator: Adobe Illustrator 19.0.0, SVG Export Plug-In . SVG Version: 6.00 Build 0)  -->
<svg xmlns="http://www.w3.org/2000/svg" xmlns:xlink="http://www.w3.org/1999/xlink" version="1.1" id="Layer_1" x="0px" y="0px" viewBox="0 0 508 508" style="enable-background:new 0 0 508 508;" xml:space="preserve">
<circle style="fill:#324A5E;" cx="254" cy="254" r="254"/>
<g>
	<path style="fill:#FFFFFF;" d="M254,424c-93.6,0-170-76.4-170-170S160.4,84,254,84s170,76.4,170,170S347.6,424,254,424z M254,100   c-84.8,0-154,69.2-154,154s69.2,154,154,154s154-69.2,154-154S338.8,100,254,100z"/>
	<path style="fill:#FFFFFF;" d="M254,378.4c-68.8,0-124.4-56-124.4-124.4c0-68.8,56-124.4,124.4-124.4c68.8,0,124.4,56,124.4,124.4   C378.4,322.8,322.8,378.4,254,378.4z M254,145.2c-60,0-108.8,48.8-108.8,108.8S194,362.8,254,362.8S362.8,314,362.8,254   S314,145.2,254,145.2z"/>
</g>
<path style="fill:#FF7058;" d="M438,246H331.6c-3.6-36.8-32.8-66-69.6-69.6V70c0-4.4-3.6-8-8-8s-8,3.6-8,8v106.4  c-36.8,3.6-66,32.8-69.6,69.6H70c-4.4,0-8,3.6-8,8s3.6,8,8,8h106.4c3.6,36.8,32.8,66,69.6,69.6V438c0,4.4,3.6,8,8,8s8-3.6,8-8V331.6  c36.8-3.6,66-32.8,69.6-69.6H438c4.4,0,8-3.6,8-8S442.4,246,438,246z M254,316c-34.4,0-62-28-62-62s28-62,62-62c34.4,0,62,28,62,62  S288.4,316,254,316z"/>
<circle style="fill:#FFFFFF;" cx="254" cy="254" r="33.6"/>
<g>
</g>
<g>
</g>
<g>
</g>
<g>
</g>
<g>
</g>
<g>
</g>
<g>
</g>
<g>
</g>
<g>
</g>
<g>
</g>
<g>
</g>
<g>
</g>
<g>
</g>
<g>
</g>
<g>
</g>
</svg>
