<?xml version="1.0" encoding="iso-8859-1"?>
<!-- Generator: Adobe Illustrator 19.0.0, SVG Export Plug-In . SVG Version: 6.00 Build 0)  -->
<svg xmlns="http://www.w3.org/2000/svg" xmlns:xlink="http://www.w3.org/1999/xlink" version="1.1" id="Layer_1" x="0px" y="0px" viewBox="0 0 508 508" style="enable-background:new 0 0 508 508;" xml:space="preserve">
<circle style="fill:#FD8469;" cx="254" cy="254" r="254"/>
<path style="fill:#324A5E;" d="M395.6,136.8H117.2c-9.6,0-17.6,8-17.6,17.6v174c0,9.6,8,17.6,17.6,17.6h278c9.6,0,17.6-8,17.6-17.6  v-174C413.2,144.4,405.2,136.8,395.6,136.8z"/>
<rect x="118.4" y="157.6" style="fill:#84DBFF;" width="276.4" height="166.8"/>
<path style="fill:#E6E9EE;" d="M89.6,359.2c-6.4,0-10.8,7.6-7.6,13.6c7.2,14,22.4,23.6,40.4,23.6h263.2c18,0,33.2-9.6,40.4-23.6  c3.2-6-1.2-13.6-7.6-13.6H89.6z"/>
<polygon style="fill:#CED5E0;" points="305.6,359.2 202.4,359.2 213.6,374 294.4,374 "/>
<path style="fill:#E6E9EE;" d="M246.4,324.8l2.4-16l2.4-27.2l-6.4-14.4c-2.8-0.8-4.4-2.8-5.2-4.8l-23.2-6.8c0,0-12.8,2-14,3.2  c-0.8,1.2-8.8,9.6-8.8,9.6l-2,20.4c0,0,1.6,20,2.8,36L246.4,324.8L246.4,324.8z"/>
<path style="fill:#F9B54C;" d="M237.2,258c0,16-8.8,22-19.6,22s-19.6-6-19.6-22s8.8-39.6,19.6-39.6C228.4,218,237.2,242,237.2,258z"/>
<ellipse style="fill:#FFD05B;" cx="217.6" cy="233.6" rx="30" ry="31.2"/>
<path style="fill:#2B3B4E;" d="M234.4,324.8h26.4c5.2-16.4,10-49.6,10-49.6c-4.4,0-8.4-0.4-12-1.2c-15.2-3.6-21.2-14.8-21.6-15.2  C245.6,280.4,241.6,304.4,234.4,324.8z"/>
<path style="fill:#FFFFFF;" d="M234.4,324.8h22.4c1.6-2,2.4-3.2,2.4-3.2l-10-17.2H264l-4.8-30.4c-15.2-3.6-21.2-14.8-21.6-15.2  C245.6,280.4,241.6,304.4,234.4,324.8z"/>
<path style="fill:#324A5E;" d="M277.6,324.8c-2.8-29.2-6.8-49.6-6.8-49.6s-4.8,32.8-10,49.6H277.6z"/>
<path style="fill:#2B3B4E;" d="M201.2,324.8c-7.2-20.4-11.2-44.4-3.2-66c-0.4,0.4-6.4,11.6-21.6,15.2c-3.6,0.8-7.6,1.2-12,1.2  c0,0,4.8,32.8,10,49.6L201.2,324.8L201.2,324.8z"/>
<path style="fill:#FFFFFF;" d="M176.4,321.2c0,0,0.8,1.2,2.4,3.2h22.4c-7.2-20-11.2-44-3.2-65.6c-0.4,0.4-6.4,11.6-21.6,15.2  l-4.8,30.4h14.8L176.4,321.2z"/>
<g>
	<path style="fill:#324A5E;" d="M174.4,324.8c-5.2-16.4-10-49.6-10-49.6s-4,20.4-6.8,49.6H174.4z"/>
	<path style="fill:#324A5E;" d="M252.8,244.8c-0.8-10-0.8-20.4-2.4-30.4c-0.4-3.2-0.8-7.6-1.6-12.4c-2.4-15.2-15.6-26.4-31.2-26.8   c-15.6,0.4-28.8,11.6-31.2,26.8c-0.8,4.8-1.2,9.2-1.6,12.4c-1.2,10-1.6,20.4-2.4,30.4c-0.4,4.4,0,10,0.4,15.2   c0.4,0.4,0.4,0.8,0.4,0.8c0.8,3.2,1.6,6.8,3.2,9.6c1.6,3.2,4.4,6,6.8,8.4c0.4,0.4,1.2,0.8,1.6,1.6c4.8,2.8,9.6,4.8,10.8,5.2   c-1.6-1.2-14.8-16.8-16.4-27.2c8.4,10.4,16.4,10.4,16.4,10.4c-2.4-1.2-5.2-2.8-6.4-5.6c-0.8-1.6-1.2-3.2-1.6-5.2   c-1.2-6.4-3.6-12.8-6.8-18.8c5.6,8.8,12,11.6,12,11.6s-14.8-14.8-5.6-31.6c0.8,1.2,2,2.4,3.2,2.8c2-2.8,3.6-5.6,5.2-8.8   c0.4,2.8,9.2,4.8,9.6,6.4c0.8-1.2,1.2-0.4,2-1.6c0.8,1.2,1.2,0.4,2,1.6c0.4-1.6,9.2-3.6,9.6-6.4c1.2,3.2,3.2,6,5.2,8.8   c1.2-0.4,2.4-1.6,3.2-2.8c9.2,16.8-5.6,31.6-5.6,31.6s6.8-2.8,12-11.6c-3.2,6-5.2,12.4-6.8,18.8c-0.4,1.6-0.8,3.6-1.6,5.2   c-1.2,2.4-4,4-6.4,5.6c0,0,8.4-0.4,16.4-10.4c-1.6,10.4-14.8,26-16.4,27.2c0.8-0.4,6-2.4,10.8-5.2c0.4-0.4,1.2-0.8,1.6-1.6   c2.8-2.4,5.2-5.2,6.8-8.4c1.6-3.2,2.4-6.4,3.2-9.6c0-0.4,0.4-0.8,0.4-0.8C252.8,254.8,253.2,248.8,252.8,244.8z"/>
</g>
<g>
	<path style="fill:#FFFFFF;" d="M414.4,211.6H271.2c-5.6,0-10.4-4.4-10.4-10.4v-76.4c0-5.6,4.4-10.4,10.4-10.4h143.2   c5.6,0,10.4,4.4,10.4,10.4v76.4C424.8,207.2,420.4,211.6,414.4,211.6z"/>
	<polygon style="fill:#FFFFFF;" points="342.8,205.6 273.6,258.8 292.4,205.6  "/>
</g>
<g>
	<rect x="283.6" y="138.4" style="fill:#E6E9EE;" width="119.2" height="10"/>
	<rect x="283.6" y="158.4" style="fill:#E6E9EE;" width="119.2" height="10"/>
	<rect x="283.6" y="178" style="fill:#E6E9EE;" width="119.2" height="10"/>
</g>
<g>
</g>
<g>
</g>
<g>
</g>
<g>
</g>
<g>
</g>
<g>
</g>
<g>
</g>
<g>
</g>
<g>
</g>
<g>
</g>
<g>
</g>
<g>
</g>
<g>
</g>
<g>
</g>
<g>
</g>
</svg>
