<?xml version="1.0" encoding="iso-8859-1"?>
<!-- Generator: Adobe Illustrator 19.0.0, SVG Export Plug-In . SVG Version: 6.00 Build 0)  -->
<svg xmlns="http://www.w3.org/2000/svg" xmlns:xlink="http://www.w3.org/1999/xlink" version="1.1" id="Layer_1" x="0px" y="0px" viewBox="0 0 508 508" style="enable-background:new 0 0 508 508;" xml:space="preserve">
<circle style="fill:#84DBFF;" cx="254" cy="254" r="254"/>
<path style="fill:#324A5E;" d="M381.6,182.8c-2.4-6.4-4.8-13.2-4.4-20.4c0.4-2.4,0.8-4.8,0.8-7.2c-0.4-6-4.8-11.2-8.8-15.6  c6,3.2,12,6,18.8,6.8c-5.6-2.4-10.4-6.8-12.8-12c-1.2-2.4-2-4.8-2.8-7.2c-0.8-2.8-2-6-2.8-8.8s-1.6-5.6-2-8.4c-0.4-2-0.4-4-0.8-6  c-0.8-3.2-2.4-6-4-9.2c-0.8-2-2-3.6-3.6-5.2s-3.6-2.4-6-2c-1.2,0.4-2.4,1.2-4,1.2c-2.4,0.4-4.4-1.6-6.4-2.8  c-2.8-1.6-39.2-11.6-42.4,24.8c-0.4,2.4-1.2,4.8-2,6.8c-0.8,2.8-2,6-2.8,8.8c-0.8,2.4-1.6,4.8-2.8,7.2c-2.8,5.2-7.2,9.6-12.8,12  c6.8-0.4,12.8-3.6,18.8-6.8c-4.4,4.4-8.8,9.6-8.8,15.6c0,2.4,0.4,4.8,0.8,7.2c0.8,6.8-1.6,13.6-4.4,20.4c4.4-2.4,8.4-6,10.8-10  c-0.8,4.4-2.8,8.8-5.2,12.8c5.6-2.8,10.8-6,15.6-10c-1.2,6-3.2,11.6-6,16.8c4.4,1.2,21.2,6.4,32.4-0.4c11.6,6.8,28,1.6,32.4,0.4  c-2.8-5.2-4.8-11.2-6-16.8c4.8,4,10,7.2,15.6,10c-2.8-4-4.4-8.4-5.2-12.8C373.6,176.8,377.2,180.4,381.6,182.8z"/>
<g>
	<path style="fill:#F9B54C;" d="M351.6,187.2c0,12.8-7.6,14.4-17.2,14.4s-17.2-2-17.2-14.4c0-12.8,7.6-33.2,17.2-33.2   S351.6,174.4,351.6,187.2z"/>
	
		<ellipse transform="matrix(0.3111 -0.9504 0.9504 0.3111 115.0877 439.577)" style="fill:#F9B54C;" cx="360.752" cy="140.404" rx="8.4" ry="4.8"/>
	
		<ellipse transform="matrix(0.3111 0.9504 -0.9504 0.3111 344.2798 -194.6087)" style="fill:#F9B54C;" cx="306.376" cy="140.171" rx="8.4" ry="4.8"/>
</g>
<path style="fill:#FFD05B;" d="M361.2,138.4c0,22.8-12,41.6-26.8,41.6s-26.8-18.4-26.8-41.6c0-0.8,0-1.6,0-2.4c0-2.8,1.6-5.2,4-6.4  c4.8-2.4,9.6-5.6,14.4-10c5.2-4.8,10-9.6,13.2-14.8c2.4-3.6,7.2-4,10-1.2C356.4,111.6,361.2,124,361.2,138.4z"/>
<path style="fill:#324A5E;" d="M334.4,156.4c-7.2,0-12.8-2-12.8,20.4c0,7.6,5.6,8.4,12.8,8.4c7.2,0,12.8-0.4,12.8-8.4  C346.8,154,341.2,156,334.4,156.4z"/>
<path style="fill:#FFD05B;" d="M343.2,168.4c0,1.6-2,2.4-4.4,2.8c-1.2,0-2.4-1.6-1.6-3.2c0-0.4,0.4-0.8,0.4-1.2l0.8-1.2h-8l0.8,1.2  c0.4,0.4,0.4,0.8,0.4,1.2c0.4,1.6-0.4,3.2-1.6,3.2c-2.8-0.4-4.4-0.8-4.4-2.8c0-7.6,4-6.8,8.8-6.8  C339.2,161.6,343.2,161.2,343.2,168.4z"/>
<g>
	<path style="fill:#E6E9EE;" d="M432,295.2v140C386,480.4,323.2,508,254,508s-132-27.6-178-72.8v-140H432z"/>
	<path style="fill:#E6E9EE;" d="M297.6,266c0,0.4,0,0.8,0.4,1.6h59.2L372,240l-2-40l-35.6-9.2l-32,9.2c0,0-10.8,14.8-14,18.4   C285.6,221.6,298,262,297.6,266z"/>
</g>
<polygon style="fill:#FF7058;" points="324,267.6 344.4,267.6 335.6,217.6 348.4,201.6 320.4,201.6 332.8,217.6 "/>
<path style="fill:#2B3B4E;" d="M282.4,267.6c0.4-1.2,0.8-2.4,1.6-3.2c10.8-14.4-0.8-49.6-5.6-49.6c-4.8,0-16.4-7.2-16.4-7.2  s-3.6,31.6-4.8,59.6h25.2V267.6z"/>
<path style="fill:#E6E9EE;" d="M328.8,267.6c-5.2-19.6-11.2-48.4-13.2-84.8c0,0-6,12.4-53.6,24.8c0,0,10,27.6,16.4,59.6h50.4V267.6z  "/>
<g>
	<path style="fill:#2B3B4E;" d="M324.4,267.6h6.4c-7.6-30.8-17.2-76.8-13.2-88c0,0-8,8-12,18.4l4.8,4.8l-8.4,4.4   C302.4,207.2,314,241.2,324.4,267.6z"/>
	<path style="fill:#2B3B4E;" d="M386,267.6h25.2c-1.6-28-4.8-59.6-4.8-59.6s-11.2,7.2-16.4,7.2c-4.8,0-16.4,35.2-5.6,49.6   C385.2,265.2,385.6,266.4,386,267.6z"/>
</g>
<path style="fill:#E6E9EE;" d="M390,267.6c6.4-32,16.4-59.6,16.4-59.6c-47.6-12.8-53.6-24.8-53.6-24.8c-2,36-8,65.2-13.2,84.8H390  V267.6z"/>
<path style="fill:#324A5E;" d="M338,267.6h6.4c10.4-26.4,22-60.4,22-60.4l-8.4-4.4l4.8-4.8c-4-10-12-18.4-12-18.4  C355.2,190.8,345.2,236.8,338,267.6z"/>
<g>
	<path style="fill:#FFFFFF;" d="M317.6,179.6c0,0,2.4,15.2,16.4,22c0,0-9.2,7.2-11.2,13.2C323.2,214.8,308,192.8,317.6,179.6z"/>
	<path style="fill:#FFFFFF;" d="M350.8,179.6c0,0-2.4,15.2-16.4,22c0,0,9.2,7.2,11.2,13.2C345.6,214.8,360.4,192.8,350.8,179.6z"/>
</g>
<rect x="355.6" y="244.8" style="fill:#ACB3BA;" width="29.2" height="7.2"/>
<polygon style="fill:#FF7058;" points="372.4,252.4 366.4,246.8 360.8,252.4 "/>
<path style="fill:#E6E9EE;" d="M204,267.6v-1.2l3.2-32.8l-8-17.2c-3.2-0.8-5.6-3.2-6.4-6l-28-8c0,0-15.6,2.8-16.8,4  S137.2,218,137.2,218l-2.4,24.8c0,0,0.8,11.6,2,24.8H204z"/>
<path style="fill:#F9B54C;" d="M190.4,206c0,19.2-10.4,26.4-23.6,26.4c-12.8,0-23.6-7.2-23.6-26.4s10.4-48,23.6-48  C179.6,158,190.4,186.8,190.4,206z"/>
<ellipse style="fill:#FFD05B;" cx="166.8" cy="176.8" rx="36" ry="37.6"/>
<path style="fill:#2B3B4E;" d="M192.4,267.6h31.2c4.4-19.2,7.6-41.2,7.6-41.2c-5.6,0-10.4-0.4-14.4-1.6c-18.4-4.4-25.6-18-25.6-18.4  C198,226.4,196.8,247.6,192.4,267.6z"/>
<path style="fill:#FFFFFF;" d="M192.4,267.6H208l-3.6-6h18l-6-36.4c-18.4-4.4-25.6-18-25.6-18.4C198,226.4,196.8,247.6,192.4,267.6z  "/>
<path style="fill:#324A5E;" d="M237.2,267.6c-2.8-24.8-6-41.2-6-41.2s-3.2,21.6-7.6,41.2H237.2z"/>
<path style="fill:#2B3B4E;" d="M141.6,267.6c-4.8-20-5.6-41.2,1.6-60.8c-0.4,0.4-7.6,14-25.6,18.4c-4.4,1.2-9.2,1.6-14.4,1.6  c0,0,3.2,21.6,7.6,41.2h30.8V267.6z"/>
<path style="fill:#FFFFFF;" d="M125.6,267.6h15.6c-4.8-20-5.6-41.2,1.6-60.8c-0.4,0.4-7.6,14-25.6,18.4l-6,36.4h18L125.6,267.6z"/>
<path style="fill:#324A5E;" d="M110,267.6c-4.4-19.2-7.6-41.2-7.6-41.2s-3.2,16-6,41.2H110z"/>
<polygon style="fill:#FF7058;" points="431.6,268 76.4,268 39.6,286.4 468.4,286.4 "/>
<rect x="39.6" y="286.4" style="fill:#F1543F;" width="429.2" height="17.6"/>
<path style="fill:#324A5E;" d="M160.8,171.2c-4.8,4.8-15.2,8-15.2,8c9.6-0.8,21.2-8.4,21.2-8.4c0,1.2-10.4,8-10.4,8  c6-2,23.2-13.2,23.2-13.2c-0.8,1.6-12.8,10.4-12.8,10.4c14.4-3.6,22.4-17.6,22.4-17.6c0.4,4.8-4.4,16.8-4.4,16.8  c5.6-5.2,6-20.4,6-20.4c9.6,26.8-2.8,43.6-2.8,43.6c2-1.2,6.8-10,6.8-10c-0.8,4.8-6,14-6,14l4.8-6c-0.8,4-6,14-6,14  c3.2-4.8,7.2-10.8,7.2-10.8l-1.6,7.2c13.2-20.8,13.2-34.8,13.2-34.8c0.4,4.4,0.4,16,0.4,16c5.6-40.8-7.6-57.6-20-64.8  c-10.4-6-23.2-5.6-34-0.4c-17.2,8.4-39.2,30.4-11.2,89.2c0,0-6.8-14.8-6.8-22.8c0,0,5.6,19.2,8.8,20.8c0,0-5.6-14-4.8-15.6  c0,0,2.8,7.6,4.4,9.2c0,0-7.2-21.6,4.8-32.4c0,0-4,6.4-4.4,9.6c0,0,0.8-1.6,2.8-3.2C149.2,173.6,154.8,171.2,160.8,171.2  L160.8,171.2z"/>
<g>
</g>
<g>
</g>
<g>
</g>
<g>
</g>
<g>
</g>
<g>
</g>
<g>
</g>
<g>
</g>
<g>
</g>
<g>
</g>
<g>
</g>
<g>
</g>
<g>
</g>
<g>
</g>
<g>
</g>
</svg>
