<?xml version="1.0" encoding="iso-8859-1"?>
<!-- Generator: Adobe Illustrator 19.0.0, SVG Export Plug-In . SVG Version: 6.00 Build 0)  -->
<svg xmlns="http://www.w3.org/2000/svg" xmlns:xlink="http://www.w3.org/1999/xlink" version="1.1" id="Layer_1" x="0px" y="0px" viewBox="0 0 508 508" style="enable-background:new 0 0 508 508;" xml:space="preserve">
<circle style="fill:#FD8469;" cx="254" cy="254" r="254"/>
<g>
	<polygon style="fill:#FFD05B;" points="144.4,270.8 163.2,289.2 181.6,270.8  "/>
	<polygon style="fill:#FFD05B;" points="181.6,350.8 163.2,278.8 144.4,350.8  "/>
</g>
<path style="fill:#324A5E;" d="M204,263.6L204,263.6c0.4,0.8,0.4,1.6,0,2c0,0.4,0,1.2,0,1.6c0.4,16.8-5.2,28.8-14.8,42  c-3.6,4.8-10.4,11.6-12.4,17.2c-2.4,7.2-2.4,11.2-8.8,16.8c-1.6,1.2-3.2,2-4.8,2.4l0,0c-1.6-0.4-3.2-1.2-4.8-2.4  c-6.4-5.2-6.8-9.6-8.8-16.8c-1.6-5.6-8.8-12.4-12.4-17.2c-9.6-13.2-15.2-25.2-14.8-42c0-0.4,0-1.2,0-1.6c-0.4-0.4-0.4-1.2,0-2v-0.4  c-32.8,17.6-55.6,57.2-55.6,103.6c0,6,0.4,12,1.2,18c24.8,15.6,57.2,24.8,92.8,24.8c0.8,0,1.6,0,2.4,0l0,0c0.8,0,1.6,0,2.4,0  c35.6,0,68-9.6,92.8-24.8c0.8-6,1.2-12,1.2-18C259.6,321.2,236.8,281.2,204,263.6z"/>
<g>
	<path style="fill:#E6E9EE;" d="M163.2,346c0,0,23.6-5.6,47.2-50.8l-6.8-6.8l6.4-3.2c-0.4-11.2-6-21.6-6-21.6   C204.4,275.6,180.4,317.6,163.2,346z"/>
	<path style="fill:#E6E9EE;" d="M163.2,346c0,0-23.6-5.6-47.2-50.8l6.8-6.8l-6.4-3.2c0.4-11.2,6-21.6,6-21.6   C122,275.6,146,317.6,163.2,346z"/>
</g>
<path style="fill:#FFFFFF;" d="M206,219.6c0-3.6,1.2-6.8,1.6-10.4c0.8-4.4,0.8-9.2,0.8-13.6c0-1.2,0.8-1.6,1.6-2  c-1.6-30-20.4-53.6-44-53.6c-24.4,0-44,25.6-44,57.2s19.6,57.2,44,57.2c18,0,33.2-14,40.4-34C206,220.4,206,220,206,219.6z"/>
<path style="fill:#324A5E;" d="M192.8,129.6c-0.4-6-5.6-10.8-11.6-12.4c-5.6-1.6-12-1.2-18,0c-2.8,0.4-5.6,0.8-8.4,2  c-6.8,2.4-12,8-18,12.4s-13.6,8-20.4,5.6c3.6,4,9.2,6,14.4,5.6C98,152.4,118,208,126.4,224c-0.8-4.4-1.6-9.2-2-13.6  c-0.8-13.2-0.4-55.2,40-56c45.6-0.8,42.4,56,40.8,67.6C205.6,221.6,230.8,138,192.8,129.6z"/>
<path style="fill:#FFFFFF;" d="M346,98c-52.4,0-95.2,26.4-95.2,58.8c0,9.2,3.6,18,9.6,25.6l-20,45.2l63.6-18c12.8,4,26.8,6,42,6  c52.4,0,95.2-26.4,95.2-58.8C441.2,124,398.8,98,346,98z"/>
<g>
	<path style="fill:#E6E9EE;" d="M397.6,140.4H294c-2,0-3.6-1.6-3.6-3.6l0,0c0-2,1.6-3.6,3.6-3.6h103.6c2,0,3.6,1.6,3.6,3.6l0,0   C401.6,138.8,400,140.4,397.6,140.4z"/>
	<path style="fill:#E6E9EE;" d="M397.6,160.8H294c-2,0-3.6-1.6-3.6-3.6l0,0c0-2,1.6-3.6,3.6-3.6h103.6c2,0,3.6,1.6,3.6,3.6l0,0   C401.6,159.2,400,160.8,397.6,160.8z"/>
	<path style="fill:#E6E9EE;" d="M353.6,174H294c-2,0-3.6,1.6-3.6,3.6l0,0c0,2,1.6,3.6,3.6,3.6h59.6c2,0,3.6-1.6,3.6-3.6l0,0   C357.6,175.6,355.6,174,353.6,174z"/>
</g>
<g>
</g>
<g>
</g>
<g>
</g>
<g>
</g>
<g>
</g>
<g>
</g>
<g>
</g>
<g>
</g>
<g>
</g>
<g>
</g>
<g>
</g>
<g>
</g>
<g>
</g>
<g>
</g>
<g>
</g>
</svg>
