<?xml version="1.0" encoding="iso-8859-1"?>
<!-- Generator: Adobe Illustrator 19.0.0, SVG Export Plug-In . SVG Version: 6.00 Build 0)  -->
<svg xmlns="http://www.w3.org/2000/svg" xmlns:xlink="http://www.w3.org/1999/xlink" version="1.1" id="Layer_1" x="0px" y="0px" viewBox="0 0 508 508" style="enable-background:new 0 0 508 508;" xml:space="preserve">
<circle style="fill:#FFD05B;" cx="254" cy="254" r="254"/>
<circle style="fill:#FFFFFF;" cx="254" cy="264.4" r="125.2"/>
<g>
	<circle style="fill:#324A5E;" cx="298.8" cy="226" r="21.2"/>
	<circle style="fill:#324A5E;" cx="209.2" cy="226" r="21.2"/>
	<path style="fill:#324A5E;" d="M194.4,292.4C202,318,226,336.8,254,336.8s52-18.8,59.6-44.4H194.4z"/>
	<path style="fill:#324A5E;" d="M325.2,408.8c-21.6,0-45.2-7.6-71.2-22.4l5.6-9.6c36.8,21.6,68.8,26.4,95.2,14.8   c47.2-21.2,61.6-89.2,61.6-89.6l10.8,2.4c-0.8,3.2-15.6,74.4-68,97.6C348.8,406.4,337.6,408.8,325.2,408.8z"/>
</g>
<circle style="fill:#FF7058;" cx="260" cy="385.2" r="22"/>
<path style="fill:#FFFFFF;" d="M434,240.4h-14.8c0-89.6-72.8-162.8-162.8-162.8h-4.8c-89.6,0-162.8,72.8-162.8,162.8H74  c0-98,79.6-177.6,177.6-177.6h4.8C354.4,63.2,434,142.8,434,240.4z"/>
<g>
	<path style="fill:#FF7058;" d="M410.4,217.6L410.4,217.6c-4.8,0-8.8,4-8.8,8.8v76.4c0,4.8,4,8.8,8.8,8.8l0,0   c26,0,46.8-21.2,46.8-46.8l0,0C457.6,238.4,436.4,217.6,410.4,217.6z"/>
	<path style="fill:#FF7058;" d="M97.6,217.6L97.6,217.6c4.8,0,8.8,4,8.8,8.8v76.4c0,4.8-4,8.8-8.8,8.8l0,0   c-26,0-46.8-21.2-46.8-46.8l0,0C50.4,238.4,71.6,217.6,97.6,217.6z"/>
</g>
<g>
</g>
<g>
</g>
<g>
</g>
<g>
</g>
<g>
</g>
<g>
</g>
<g>
</g>
<g>
</g>
<g>
</g>
<g>
</g>
<g>
</g>
<g>
</g>
<g>
</g>
<g>
</g>
<g>
</g>
</svg>
