<?xml version="1.0" encoding="iso-8859-1"?>
<!-- Generator: Adobe Illustrator 19.0.0, SVG Export Plug-In . SVG Version: 6.00 Build 0)  -->
<svg xmlns="http://www.w3.org/2000/svg" xmlns:xlink="http://www.w3.org/1999/xlink" version="1.1" id="Layer_1" x="0px" y="0px" viewBox="0 0 508 508" style="enable-background:new 0 0 508 508;" xml:space="preserve">
<circle style="fill:#54C0EB;" cx="254" cy="254" r="254"/>
<path style="fill:#FF7058;" d="M264.8,191.2h-176c-9.2,0-16.4,7.2-16.4,16.4v92.8c0,9.2,7.2,16.4,16.4,16.4h176  c9.2,0,16.4-7.2,16.4-16.4v-92.8C281.2,198.4,273.6,191.2,264.8,191.2z"/>
<path style="fill:#F1543F;" d="M196.4,254l-20-14.8l-20,14.8l-78.8,58.8c2.8,2.4,6.8,4,10.8,4h176c4,0,8-1.6,10.8-4L196.4,254z"/>
<path style="fill:#E6E9EE;" d="M264.8,191.2h-176c-4,0-8,1.6-10.8,4l89.2,66.4c6,4.4,13.6,4.4,19.6,0l89.2-66.4  C272.8,192.8,268.8,191.2,264.8,191.2z"/>
<g>
	<polygon style="fill:#FFFFFF;" points="403.6,180.4 360,147.2 360,160 306.4,167.2 306.4,193.2 360,200.4 360,213.6  "/>
	<polygon style="fill:#FFFFFF;" points="403.6,327.6 360,294.4 360,307.6 306.4,314.8 306.4,340.8 360,348 360,360.8  "/>
	<polygon style="fill:#FFFFFF;" points="436,254 392.4,220.8 392.4,234 338.8,240.8 338.8,267.2 392.4,274 392.4,287.2  "/>
</g>
<g>
</g>
<g>
</g>
<g>
</g>
<g>
</g>
<g>
</g>
<g>
</g>
<g>
</g>
<g>
</g>
<g>
</g>
<g>
</g>
<g>
</g>
<g>
</g>
<g>
</g>
<g>
</g>
<g>
</g>
</svg>
