<?xml version="1.0" encoding="iso-8859-1"?>
<!-- Generator: Adobe Illustrator 19.0.0, SVG Export Plug-In . SVG Version: 6.00 Build 0)  -->
<svg xmlns="http://www.w3.org/2000/svg" xmlns:xlink="http://www.w3.org/1999/xlink" version="1.1" id="Layer_1" x="0px" y="0px" viewBox="0 0 508 508" style="enable-background:new 0 0 508 508;" xml:space="preserve">
<circle style="fill:#90DFAA;" cx="254" cy="254" r="254"/>
<path style="fill:#FF7058;" d="M90.4,191.2v166.4c0,8.8,7.2,16,16,16h295.2c8.8,0,16-7.2,16-16V191.2H90.4z"/>
<path style="fill:#324A5E;" d="M246,103.2l-155.6,88L254,283.6l163.6-92.4l-155.6-88C256.8,100.4,251.2,100.4,246,103.2z"/>
<path style="fill:#F1543F;" d="M220,256.4L95.2,369.2c2.8,2.8,6.8,4.4,11.2,4.4h295.2c4.4,0,8.4-1.6,11.2-4.4L288,256.4  c-2.8-2.8-6.8-4-10.8-4h-46.4C226.8,252,222.8,253.6,220,256.4z"/>
<polygon style="fill:#FFFFFF;" points="364.8,120.4 364.8,220.8 254,283.6 143.2,220.8 143.2,120.4 "/>
<path style="fill:#84DBFF;" d="M282.8,211.2c2,0,4-1.6,5.6-5.2c1.6-3.6,2.4-7.6,2.4-12.8c0-11.2-3.2-20.4-9.6-27.6  c-6.4-7.2-15.2-11.2-26-11.2c-10.8,0-20,4-27.2,11.6s-11.2,16.8-11.2,27.6s3.6,19.6,10.4,26.8c6.8,7.2,15.6,10.8,25.6,10.8  c8,0,15.2-2.8,21.2-8.8l4.8,8.4c-3.2,2.8-7.2,5.2-12,6.8s-9.6,2.4-14,2.4c-13.2,0-24.4-4.4-33.2-13.2s-13.2-20-13.2-33.2  s4.8-24.8,14-34s20.8-14,34-14c13.2,0,24.4,4.4,33.2,13.6c8.8,9.2,13.2,20.4,13.2,33.6c0,8.8-2,15.6-5.6,21.2c-3.6,5.2-8.4,8-14.4,8  c-3.2,0-5.6-0.8-8.4-2.8c-2.4-2-4.4-4-5.2-6.8c-4.4,5.6-10,8.4-16.4,8.4c-6.8,0-12.4-2.4-17.6-7.6c-4.8-5.2-7.6-11.6-7.6-19.2  s2.4-14.4,6.8-19.6c4.4-5.2,10.4-8,17.6-8c2.4,0,4.8,0.4,7.2,1.6c2.4,1.2,4,2,4.8,3.2l1.6,1.6V168h14.8v38  C279.2,209.2,280.4,211.2,282.8,211.2z M264.4,193.2c0-4-1.2-7.2-3.2-10s-4.8-4-8.4-4s-6,1.2-8,4c-2,2.8-2.8,6-2.8,9.6  c0,4,1.2,7.2,3.2,10s4.8,4.4,8.4,4.4s6.4-1.2,8.4-4C263.6,200.4,264.4,197.2,264.4,193.2z"/>
<g>
</g>
<g>
</g>
<g>
</g>
<g>
</g>
<g>
</g>
<g>
</g>
<g>
</g>
<g>
</g>
<g>
</g>
<g>
</g>
<g>
</g>
<g>
</g>
<g>
</g>
<g>
</g>
<g>
</g>
</svg>
