<?xml version="1.0" encoding="iso-8859-1"?>
<!-- Generator: Adobe Illustrator 19.0.0, SVG Export Plug-In . SVG Version: 6.00 Build 0)  -->
<svg xmlns="http://www.w3.org/2000/svg" xmlns:xlink="http://www.w3.org/1999/xlink" version="1.1" id="Layer_1" x="0px" y="0px" viewBox="0 0 508 508" style="enable-background:new 0 0 508 508;" xml:space="preserve">
<circle style="fill:#FFD05B;" cx="254" cy="254" r="254"/>
<circle style="fill:#FFFFFF;" cx="286.8" cy="257.2" r="149.2"/>
<path style="fill:#324A5E;" d="M184,220h-56.8c-2,14-6.8,51.2-3.6,79.6c0,0-1.6,99.2-3.2,108h29.2l6-122.8l6,122.8h29.2  c-1.6-8.8-3.2-108-3.2-108C191.2,270.8,186.4,234,184,220z"/>
<path style="fill:#E6E9EE;" d="M155.6,141.6l22.4,6l1.2,25.2L162,206l-6.4,4c0,0-23.6-18-23.2-20.8c0.4-2.8-7.6-28-6-30.4  c2-2,8.8-11.6,8.8-11.6L155.6,141.6z"/>
<polygon style="fill:#FF7058;" points="164.4,203.6 156.4,158.8 164.4,148.8 146.8,148.8 154.8,158.8 146.8,203.6 "/>
<path style="fill:#E6E9EE;" d="M166.8,139.2c0,8.4-5.2,9.6-11.2,9.6s-11.2-1.2-11.2-9.6c0-8.4,5.2-21.6,11.2-21.6  C162,117.6,166.8,130.8,166.8,139.2z"/>
<path style="fill:#2B3B4E;" d="M110,152.4c0,0-5.2,46.8-2.8,61.2c2,14-2,55.6-2,55.6s19.2,2.4,18.8,2c-0.4-0.8-6.8-73.6,0-82.8  s-0.4-31.2-3.6-31.2C117.2,156.8,110,152.4,110,152.4z"/>
<path style="fill:#ACB3BA;" d="M144,136.8c0,0-3.6,7.6-33.6,15.6c0,0,19.6,53.6,11.6,82.4c-3.2,11.6-4,23.6-2,35.6l0.8,4.8  c0,0,8.4,5.2,20.4,4.4c3.2-0.4,6-2.4,7.2-5.6c4-10,12.4-34.8,10-65.6C158,208.4,146,180.8,144,136.8z"/>
<g>
	<path style="fill:#2B3B4E;" d="M145.2,134.8c0,0-5.2,5.2-7.6,11.6l3.2,3.2l-5.2,2.8c0,0,17.2,49.6,22.8,56.8   C158,208.8,141.2,145.6,145.2,134.8z"/>
	<path style="fill:#2B3B4E;" d="M201.2,152.4c0,0,5.2,46.8,2.8,61.2c-2,14,2,55.6,2,55.6s-19.2,2.4-18.8,2c0.4-0.8,6.8-73.6,0-82.8   s0.4-31.2,3.6-31.2C194,156.8,201.2,152.4,201.2,152.4z"/>
</g>
<path style="fill:#E6E9EE;" d="M167.6,136.8c0,0,3.6,7.6,33.6,15.6c0,0-19.6,53.6-11.6,82.4c3.2,11.6,4,23.6,2,35.6l-0.8,4.8  c0,0-8.4,5.2-20.4,4.4c-3.2-0.4-6-2.4-7.2-5.6c-4-10-12.4-34.8-10-65.6C153.2,208.4,165.2,180.8,167.6,136.8z"/>
<path style="fill:#324A5E;" d="M166,134.8c0,0,5.2,5.2,7.6,11.6l-3.2,3.2l5.2,2.8c0,0-17.2,49.6-22.8,56.8  C153.2,208.8,170.4,145.6,166,134.8z"/>
<g>
	<ellipse style="fill:#FFFFFF;" cx="155.6" cy="115.2" rx="19.2" ry="24.4"/>
	
		<ellipse transform="matrix(-0.9465 -0.3227 0.3227 -0.9465 303.6758 277.5507)" style="fill:#FFFFFF;" cx="174.845" cy="113.603" rx="3.6" ry="6.8"/>
	
		<ellipse transform="matrix(0.9465 -0.3226 0.3226 0.9465 -29.3874 50.1419)" style="fill:#FFFFFF;" cx="136.576" cy="113.728" rx="3.6" ry="6.8"/>
</g>
<path style="fill:#324A5E;" d="M138,118.8c-10-20.8,4-27.6,4-27.6l-6.4,3.6c19.6-23.6,34-4.4,34-4.4c13.6,10.8,4.8,26.8,4.8,26.8  s-1.6-11.6-7.6-16.8c0,0-6.8,8-23.2,0.8c0,0-4,5.6-2.4,13.6c0,0-1.6-1.2-2-5.2C139.2,109.6,137.2,114.8,138,118.8L138,118.8z"/>
<g>
	<path style="fill:#FFFFFF;" d="M145.2,134.8c0,0,1.6,9.6,10.4,14c0,0-6,4.4-7.2,8.4C148.8,156.8,139.2,143.2,145.2,134.8z"/>
	<path style="fill:#FFFFFF;" d="M166,134.8c0,0-1.6,9.6-10.4,14c0,0,6,4.4,7.2,8.4C162.8,156.8,172,143.2,166,134.8z"/>
</g>
<rect x="169.2" y="180.8" style="fill:#ACB3BA;" width="18.4" height="4.8"/>
<polygon style="fill:#FF7058;" points="179.6,180.8 176,177.2 172.4,180.8 "/>
<g>
	<circle style="fill:#ACB3BA;" cx="160.4" cy="215.2" r="3.2"/>
	<circle style="fill:#ACB3BA;" cx="160.4" cy="228.4" r="3.2"/>
</g>
<g>
	<path style="fill:#2B3B4E;" d="M175.6,396c-8.8,0-16,5.6-16,12.4h32C191.6,401.6,184.4,396,175.6,396z"/>
	<path style="fill:#2B3B4E;" d="M134,396c-8.8,0-16,5.6-16,12.4h32C150,401.6,142.8,396,134,396z"/>
</g>
<path style="fill:#84DBFF;" d="M281.6,357.6V340c-22-2-42-10.8-59.6-26.4l17.6-21.2c13.6,11.6,27.6,18.8,42,21.2v-46.8  c-18.4-4.4-31.6-10-40-17.2S228.8,232,228.8,218s4.8-25.2,14.8-34.4c9.6-8.8,22.4-13.6,38-14.4v-12h15.6v12.4  c17.6,1.2,34.4,7.2,50.4,18L332,210c-10.8-7.6-22.4-12.4-34.8-14v45.6h0.8c18.4,4.4,32.4,10.4,40.8,17.6  c8.8,7.6,13.2,18.4,13.2,32.4s-5.2,25.6-15.2,34.4s-23.2,13.6-39.6,14.4V358L281.6,357.6L281.6,357.6z M264.4,201.2  c-4,3.6-6,8-6,13.6s1.6,9.6,4.8,12.8c3.2,3.2,9.2,6,18.4,9.2v-42C274.4,195.6,268.8,197.6,264.4,201.2z M315.6,307.6  c4.4-3.6,6.8-8.4,6.8-14s-1.6-10-5.2-13.6c-3.6-3.2-10-6.4-20-9.2v43.6C304.8,313.6,311.2,311.2,315.6,307.6z"/>
<g>
</g>
<g>
</g>
<g>
</g>
<g>
</g>
<g>
</g>
<g>
</g>
<g>
</g>
<g>
</g>
<g>
</g>
<g>
</g>
<g>
</g>
<g>
</g>
<g>
</g>
<g>
</g>
<g>
</g>
</svg>
