<?xml version="1.0" encoding="iso-8859-1"?>
<!-- Generator: Adobe Illustrator 19.0.0, SVG Export Plug-In . SVG Version: 6.00 Build 0)  -->
<svg xmlns="http://www.w3.org/2000/svg" xmlns:xlink="http://www.w3.org/1999/xlink" version="1.1" id="Layer_1" x="0px" y="0px" viewBox="0 0 508 508" style="enable-background:new 0 0 508 508;" xml:space="preserve">
<circle style="fill:#FFD05B;" cx="254" cy="254" r="254"/>
<path style="fill:#FFFFFF;" d="M326,86.8H147.6c-10.8,0-20,8.8-20,20v294.8c0,10.8,8.8,20,20,20H360c10.8,0,20-8.8,20-20V140.8h-34  c-10.8,0-20-8.8-20-20V86.8z"/>
<path style="fill:#E6E9EE;" d="M326,86.8v34c0,10.8,8.8,20,20,20h34L326,86.8z"/>
<path style="fill:#324A5E;" d="M194.8,350.8c-9.6-5.6-18.4-12.8-25.6-21.2c-3.2-3.6-6.4-7.2-9.2-11.2c0.8-7.6,1.2-12.4,1.2-12.4l0,0  c0.8,0.4,14.4,9.2,20.8,9.2C186,315.2,193.2,333.2,194.8,350.8z"/>
<path style="fill:#E6E9EE;" d="M302.8,347.6l-5.6,10.4l-0.8,1.2c-2.4,0.8-4.4,1.6-6.8,2.4c-2,0.8-4.4,1.2-6.4,2  c-0.8,0-1.2,0.4-2,0.4c-2.4,0.8-5.2,1.2-7.6,1.6c-2.8,0.4-5.6,0.8-8.4,1.2c-0.4,0-0.4,0-0.8,0c-0.8,0-1.2,0-2,0  c-2.8,0-5.6,0.4-8.4,0.4c-2.8,0-5.6,0-8.4-0.4c-0.8,0-1.2,0-2,0c-0.4,0-0.8,0-0.8,0c-2.8-0.4-5.6-0.8-8.4-1.2  c-12-2-23.2-6-33.6-11.2c-4-15.6-8-32.4-6-35.2c3.6-4.4,17.6-23.6,17.6-23.6l5.2-1.6l11.2-3.2l1.6-0.4h0.8l1.6-0.4l7.6-2.4l13.2-3.6  l13.2,3.6l7.6,2l1.6,0.4h0.8l1.6,0.4l12,3.2l9.2,2.4L302.8,347.6z"/>
<path style="fill:#FF7058;" d="M263.6,362l0.8,4.8c-0.8,0-1.2,0-2,0c-2.8,0-5.6,0.4-8.4,0.4c-2.8,0-5.6,0-8.4-0.4c-0.8,0-1.2,0-2,0  l0.8-4.8l7.6-43.2l-8.4-10.8l-8-10h36l-8,10l-8.4,10.8L263.6,362z"/>
<path style="fill:#CED5E0;" d="M276.8,278.8c0,16.8-10.4,19.2-22.8,19.2c-12.8,0-22.8-2.4-22.8-19.2c0-16.8,10.4-44,22.8-44  C266.8,234.8,276.8,262,276.8,278.8z"/>
<g>
	<path style="fill:#324A5E;" d="M242.8,366.8c-2.8-0.4-5.6-0.8-8.4-1.2c-12-2-23.2-6-33.6-11.2c-2-1.2-4-2.4-6-3.6   c-9.6-5.6-18.4-12.8-25.6-21.2c-4.4-14-7.6-23.2-7.6-23.6l0,0c39.2-10.4,56.4-20.8,63.6-26.8c4-3.2,5.2-5.2,5.2-5.2   c0,0.4,0,0.8,0,1.2c0.4,5.2,0.8,10.4,1.2,15.6c0.4,3.2,0.4,6.4,0.8,9.2C234.4,326,238.4,348.4,242.8,366.8z"/>
	<path style="fill:#324A5E;" d="M245.6,366.8c-0.8,0-1.2,0-2,0c-0.4,0-0.8,0-0.8,0c-2.8-0.4-5.6-0.8-8.4-1.2   c-11.2-30-21.6-60.4-21.6-60.4l10.8-5.6l-5.6-5.2l-0.8-0.8c2-5.2,4.8-10,7.6-14s5.6-7.2,6.8-8.4l0,0c0.4-0.4,0.8-0.8,0.8-0.8v0.4   c0,0.4,0,0.4-0.4,0.8c-0.8,2.8-0.8,6.4-0.8,10.8l0,0c0,2.4,0,5.2,0.4,8c0.4,4,0.8,8,1.6,12.8l0,0c2.4,17.6,6.8,39.2,11.2,58.8   C244.8,363.6,245.2,365.2,245.6,366.8z"/>
	<path style="fill:#324A5E;" d="M348,318.4c-2.8,4-6,7.6-9.2,11.2c-7.6,8-16,15.2-25.6,21.2c1.6-18,8.8-35.6,12.8-35.6   c6.4,0,20-8.4,20.8-9.2l0,0C346.8,306,347.2,310.8,348,318.4z"/>
	<path style="fill:#324A5E;" d="M346.8,306L346.8,306c0,0.4-3.6,9.6-7.6,24c-7.6,8-16,15.2-25.6,21.2c-4.8,2.8-10,5.6-15.2,7.6   c-0.4,0.4-0.8,0.4-1.2,0.4c-2.4,0.8-4.4,1.6-6.8,2.4c-2,0.8-4.4,1.2-6.4,2c-0.8,0-1.2,0.4-2,0.4c-2.4,0.8-5.2,1.2-7.6,1.6   c-2.8,0.4-5.6,0.8-8.4,1.2c4.4-18.4,8.4-40.8,10.8-67.2c0.4-3.2,0.8-6.4,0.8-10c0.4-4.8,0.8-9.6,0.8-14.8l0,0c0-0.4,0-0.8,0-1.2   c0,0,0.8,2,5.2,5.6C290.4,285.6,307.6,295.6,346.8,306z"/>
	<path style="fill:#324A5E;" d="M295.2,305.2c0,0-10.4,30.4-21.6,60.4c-2.8,0.4-5.6,0.8-8.4,1.2c-0.4,0-0.4,0-0.8,0   c-0.8,0-1.2,0-2,0c0.4-1.6,0.8-3.2,1.2-5.2c4.4-20,8.8-41.2,11.2-58.8l0,0c0.8-4.8,1.2-9.2,1.6-13.2c0.4-2.8,0.4-5.6,0.4-8   c0,0,0,0,0-0.4l0,0c0-4.4,0-7.6-0.8-10.4l0,0c0-0.4,0-0.4,0-0.8v-0.4c0,0,0.4,0.4,0.8,0.8c0,0,0,0,0,0.4c1.2,1.6,4,4.4,6.8,8.4   s5.6,8.8,7.6,14l0,0l-6.4,6.4L295.2,305.2z"/>
</g>
<g>
	<ellipse style="fill:#E6E9EE;" cx="254" cy="230.4" rx="39.2" ry="49.2"/>
	
		<ellipse transform="matrix(0.3227 -0.9465 0.9465 0.3227 -16.0362 431.1744)" style="fill:#E6E9EE;" cx="293.257" cy="226.792" rx="13.6" ry="7.2"/>
	
		<ellipse transform="matrix(0.3227 0.9465 -0.9465 0.3227 360.4695 -49.4185)" style="fill:#E6E9EE;" cx="214.765" cy="227.162" rx="13.6" ry="7.2"/>
</g>
<path style="fill:#324A5E;" d="M218.4,237.2c-20.4-42.4,8-56,8-56l-13.2,7.6c40.4-48.4,69.2-8.8,69.2-8.8c28,21.6,10,54.4,10,54.4  s-3.2-23.6-15.2-34.4c0,0-14.4,16.4-47.6,1.2c0,0-7.6,11.6-4.8,27.6c0,0-3.2-2-4.4-10.4C220.4,218.4,216.4,228.8,218.4,237.2  L218.4,237.2z"/>
<g>
	<path style="fill:#FFFFFF;" d="M232.8,270c0,0,3.2,19.6,21.2,28.4c0,0-12,9.2-14.4,16.8C239.6,315.2,220.4,286.8,232.8,270z"/>
	<path style="fill:#FFFFFF;" d="M275.2,270c0,0-3.2,19.6-21.2,28.4c0,0,12,9.2,14.4,16.8C268.4,315.2,287.6,286.8,275.2,270z"/>
</g>
<path style="fill:#324A5E;" d="M303.2,357.6c-0.4,0.4-1.2,0.4-1.6,0.4c-2.4,0.8-5.2,2-7.6,2.8l6-6L303.2,357.6z"/>
<g>
</g>
<g>
</g>
<g>
</g>
<g>
</g>
<g>
</g>
<g>
</g>
<g>
</g>
<g>
</g>
<g>
</g>
<g>
</g>
<g>
</g>
<g>
</g>
<g>
</g>
<g>
</g>
<g>
</g>
</svg>
