<?xml version="1.0" encoding="iso-8859-1"?>
<!-- Generator: Adobe Illustrator 19.0.0, SVG Export Plug-In . SVG Version: 6.00 Build 0)  -->
<svg xmlns="http://www.w3.org/2000/svg" xmlns:xlink="http://www.w3.org/1999/xlink" version="1.1" id="Layer_1" x="0px" y="0px" viewBox="0 0 508 508" style="enable-background:new 0 0 508 508;" xml:space="preserve">
<circle style="fill:#90DFAA;" cx="254" cy="254" r="254"/>
<path style="fill:#FFFFFF;" d="M371.6,86H136.4c-9.2,0-16.8,7.6-16.8,16.8v302.4c0,9.2,7.6,16.8,16.8,16.8h234.8  c9.2,0,16.8-7.6,16.8-16.8V102.8C388.4,93.2,380.8,86,371.6,86z"/>
<path style="fill:#FF7058;" d="M371.6,86H136.4c-9.2,0-16.8,7.6-16.8,16.8v36.4h268.8v-36.4C388.4,93.2,380.8,86,371.6,86z"/>
<g>
	<circle style="fill:#FFFFFF;" cx="358.8" cy="112.4" r="12"/>
	<circle style="fill:#FFFFFF;" cx="326.4" cy="112.4" r="12"/>
	<circle style="fill:#FFFFFF;" cx="294" cy="112.4" r="12"/>
</g>
<g>
	<path style="fill:#324A5E;" d="M289.6,262v-58h40.8c4,0,6.4,4.8,3.6,8L289.6,262z"/>
	<path style="fill:#324A5E;" d="M289.6,316v-58.4h40.8c4,0,6.4,4.8,3.6,8L289.6,316z"/>
	<path style="fill:#324A5E;" d="M289.6,370v-58.4h40.8c4,0,6.4,4.8,3.6,8L289.6,370z"/>
	<path style="fill:#324A5E;" d="M218.4,262v-58h-40.8c-4,0-6.4,4.8-3.6,8L218.4,262z"/>
	<path style="fill:#324A5E;" d="M218.4,316v-58.4h-40.8c-4,0-6.4,4.8-3.6,8L218.4,316z"/>
	<path style="fill:#324A5E;" d="M218.4,370v-58.4h-40.8c-4,0-6.4,4.8-3.6,8L218.4,370z"/>
</g>
<path style="fill:#E6E9EE;" d="M290,387.2h-72c-5.6,0-10-4.4-10-10V194.4c0-5.6,4.4-10,10-10h72c5.6,0,10,4.4,10,10v182.4  C300,382.8,295.2,387.2,290,387.2z"/>
<circle style="fill:#FF7058;" cx="254" cy="232.8" r="19.6"/>
<circle style="fill:#4CDBC4;" cx="254" cy="286.8" r="19.6"/>
<circle style="fill:#FFD05B;" cx="254" cy="340.8" r="19.6"/>
<g>
</g>
<g>
</g>
<g>
</g>
<g>
</g>
<g>
</g>
<g>
</g>
<g>
</g>
<g>
</g>
<g>
</g>
<g>
</g>
<g>
</g>
<g>
</g>
<g>
</g>
<g>
</g>
<g>
</g>
</svg>
