<?xml version="1.0" encoding="iso-8859-1"?>
<!-- Generator: Adobe Illustrator 19.0.0, SVG Export Plug-In . SVG Version: 6.00 Build 0)  -->
<svg xmlns="http://www.w3.org/2000/svg" xmlns:xlink="http://www.w3.org/1999/xlink" version="1.1" id="Layer_1" x="0px" y="0px" viewBox="0 0 508 508" style="enable-background:new 0 0 508 508;" xml:space="preserve">
<circle style="fill:#324A5E;" cx="254" cy="254" r="254"/>
<polygon style="fill:#ACB3BA;" points="184.8,262.4 98,237.6 254,418.4 "/>
<polygon style="fill:#E6E9EE;" points="98,237.6 176,162.8 184.8,262.4 "/>
<g>
	<polygon style="fill:#CED5E0;" points="176,162.8 134,154.8 84.8,201.6 98,237.6  "/>
	<polygon style="fill:#CED5E0;" points="184.8,262.4 254,171.6 176,162.8  "/>
</g>
<polygon style="fill:#E6E9EE;" points="254,262.4 323.2,262.4 254,418.4 184.8,262.4 "/>
<polygon style="fill:#ACB3BA;" points="323.2,262.4 410,237.6 254,418.4 "/>
<polygon style="fill:#E6E9EE;" points="410,237.6 332,162.8 323.2,262.4 "/>
<g>
	<polygon style="fill:#CED5E0;" points="332,162.8 374,154.8 423.2,201.6 410,237.6  "/>
	<polygon style="fill:#CED5E0;" points="323.2,262.4 254,171.6 332,162.8  "/>
</g>
<polygon style="fill:#FFFFFF;" points="254,171.6 323.2,262.4 254,262.4 184.8,262.4 "/>
<polygon style="fill:#ACB3BA;" points="176,146.8 254,138 332,146.8 374,154.8 332,162.8 254,171.6 176,162.8 134,154.8 "/>
<g>
</g>
<g>
</g>
<g>
</g>
<g>
</g>
<g>
</g>
<g>
</g>
<g>
</g>
<g>
</g>
<g>
</g>
<g>
</g>
<g>
</g>
<g>
</g>
<g>
</g>
<g>
</g>
<g>
</g>
</svg>
