<?xml version="1.0" encoding="iso-8859-1"?>
<!-- Generator: Adobe Illustrator 19.0.0, SVG Export Plug-In . SVG Version: 6.00 Build 0)  -->
<svg xmlns="http://www.w3.org/2000/svg" xmlns:xlink="http://www.w3.org/1999/xlink" version="1.1" id="Layer_1" x="0px" y="0px" viewBox="0 0 508 508" style="enable-background:new 0 0 508 508;" xml:space="preserve">
<circle style="fill:#324A5E;" cx="254" cy="254" r="254"/>
<path style="fill:#2B3B4E;" d="M47.2,401.6C93.6,466,168.8,508,254,508s160.4-42,206.8-106.4H47.2z"/>
<rect x="114.4" y="228.8" style="fill:#4CDBC4;" width="78" height="171.6"/>
<rect x="214.8" y="173.2" style="fill:#FF7058;" width="78" height="227.2"/>
<rect x="315.6" y="287.2" style="fill:#FFD05B;" width="78" height="113.2"/>
<g>
	<path style="fill:#FFFFFF;" d="M243.2,97.6h21.2v52.8h-11.2v-42.8h-10V97.6z"/>
	<path style="fill:#FFFFFF;" d="M157.6,180.4c1.2-2,2-3.6,2-5.6c0-1.6-0.4-3.2-1.6-4.4c-1.2-1.2-2.8-1.6-4.4-1.6   c-3.2,0-6.4,2.4-9.6,7.2l-9.6-6c2.4-4,5.2-6.8,8-8.8s6.8-2.8,11.2-2.8s8.4,1.6,12,4.4c3.6,2.8,5.2,6.8,5.2,12c0,2.8-0.8,5.2-2,8   c-1.2,2.4-4,5.6-7.6,9.6l-9.6,9.6h20.8v10.4h-37.2v-8.8l15.6-16C154,184.8,156,182,157.6,180.4z"/>
	<path style="fill:#FFFFFF;" d="M338.8,227.2v-10h32.4v8l-10.8,12.4c4.4,0.8,7.6,2.4,10,5.2s3.6,6,3.6,10c0,5.6-2,10-5.6,13.2   s-8.4,4.8-14.4,4.8s-11.6-2-17.6-6l4.8-9.2c4.8,3.6,9.6,5.2,13.2,5.2c2.4,0,4.4-0.4,6-1.6s2.4-2.8,2.4-5.2c0-2-0.8-4-2.8-5.2   c-1.6-1.2-4.4-2-7.2-2c-1.6,0-4,0.4-7.2,1.6v-8.8l10-12h-16.8V227.2z"/>
</g>
<g>
</g>
<g>
</g>
<g>
</g>
<g>
</g>
<g>
</g>
<g>
</g>
<g>
</g>
<g>
</g>
<g>
</g>
<g>
</g>
<g>
</g>
<g>
</g>
<g>
</g>
<g>
</g>
<g>
</g>
</svg>
