<?xml version="1.0" encoding="iso-8859-1"?>
<!-- Generator: Adobe Illustrator 19.0.0, SVG Export Plug-In . SVG Version: 6.00 Build 0)  -->
<svg xmlns="http://www.w3.org/2000/svg" xmlns:xlink="http://www.w3.org/1999/xlink" version="1.1" id="Layer_1" x="0px" y="0px" viewBox="0 0 508 508" style="enable-background:new 0 0 508 508;" xml:space="preserve">
<circle style="fill:#FD8469;" cx="254" cy="254" r="254"/>
<path style="fill:#324A5E;" d="M265.6,196.4c2.8-3.6,4.8-8,6-12.4c6.4-26-20.8-50.8-62.4-50.8s-68.8,25.2-62.4,50.8  c1.2,4.4,3.2,8.4,6,12.4H265.6z"/>
<path style="fill:#FFD05B;" d="M268.8,202c0-5.2-3.6-9.6-8.4-10.8c-2-34-24.4-60.4-51.2-60.4S160,157.6,158,191.2  c-4.8,1.2-8.4,5.6-8.4,10.8c0,6,4.4,10.8,10,11.2c6,28,26,48.8,49.6,48.8s44-20.8,49.6-48.8C264.4,212.8,268.8,208,268.8,202z"/>
<g>
	<polygon style="fill:#FFFFFF;" points="200.8,273.6 196.8,278 209.2,290.4 222,278 217.6,273.6  "/>
	<polygon style="fill:#FFFFFF;" points="204.4,282.4 196,350.4 209.2,365.6 222.4,350.4 214,282.4  "/>
	<path style="fill:#FFFFFF;" d="M426.8,259.2c-19.6,9.2-43.6,14.4-69.6,14.4c-25.6,0-49.6-5.2-69.6-14.4c2-29.2,17.6-54.4,39.2-66.4   l30.4,58.4l30.4-58.4C409.2,205.2,424.4,230,426.8,259.2z"/>
</g>
<path style="fill:#324A5E;" d="M389.2,138.8c1.6-2,2.8-4.4,3.2-6.8c3.6-14.8-12-28.8-35.6-28.8s-39.2,14.4-35.6,28.8  c0.8,2.4,1.6,4.8,3.2,6.8H389.2z"/>
<g>
	<path style="fill:#FFFFFF;" d="M391.2,142.4c0-3.2-2-5.6-4.8-6.4c-1.2-19.2-13.6-34.4-29.2-34.4c-15.2,0-28,15.2-29.2,34.4   c-2.8,0.8-4.8,3.2-4.8,6.4s2.4,6,5.6,6.4c3.2,16,14.8,27.6,28.4,27.6s24.8-11.6,28.4-27.6C388.4,148.4,391.2,145.6,391.2,142.4z"/>
	<polygon style="fill:#FFFFFF;" points="352.4,180 350,182.4 357.2,189.6 364.4,182.4 362,180  "/>
	<polygon style="fill:#FFFFFF;" points="354.4,184.8 349.6,223.6 357.2,232 364.8,223.6 360,184.8  "/>
</g>
<path style="fill:#324A5E;" d="M331.6,379.2c-34.8,16-76.8,25.2-122.4,25.2s-87.6-9.2-122.4-25.2c4-51.6,30.8-95.6,69.2-117.2  l53.2,102.8L262.4,262C300.8,284,328,327.6,331.6,379.2z"/>
<g>
</g>
<g>
</g>
<g>
</g>
<g>
</g>
<g>
</g>
<g>
</g>
<g>
</g>
<g>
</g>
<g>
</g>
<g>
</g>
<g>
</g>
<g>
</g>
<g>
</g>
<g>
</g>
<g>
</g>
</svg>
