<?xml version="1.0" encoding="iso-8859-1"?>
<!-- Generator: Adobe Illustrator 19.0.0, SVG Export Plug-In . SVG Version: 6.00 Build 0)  -->
<svg xmlns="http://www.w3.org/2000/svg" xmlns:xlink="http://www.w3.org/1999/xlink" version="1.1" id="Layer_1" x="0px" y="0px" viewBox="0 0 505 505" style="enable-background:new 0 0 505 505;" xml:space="preserve">
<circle style="fill:#324A5E;" cx="252.5" cy="252.5" r="252.5"/>
<path style="fill:#FFD05B;" d="M404.8,101.9c0,0-46.6-35.6-109.4,44.1l54.7,18.1l42.7-32.6L404.8,101.9z"/>
<path style="fill:#F9B54C;" d="M332.7,142.2c0,0,108.8-107.5,76.3,23.7c-4.9,19.6-18.3,36.5-37,44c-7.8,3.2-17.2,5.1-28.2,4.8  L332.7,142.2z"/>
<path style="fill:#FFD05B;" d="M100.2,101.9c0,0,46.6-35.6,109.4,44.1l-54.7,18.1l-42.6-32.6L100.2,101.9z"/>
<path style="fill:#F9B54C;" d="M172.3,142.2c0,0-108.8-107.5-76.3,23.7c4.9,19.6,18.3,36.5,37,44c7.8,3.2,17.2,5.1,28.2,4.8  L172.3,142.2z"/>
<path style="fill:#FFD05B;" d="M114.8,294.1h275.3c-11.7-25.3-14.1-45.4-14.2-56.7c0.3-3.4,0.5-6.8,0.5-10.2  c0-69.8-55.5-126.4-123.9-126.4s-123.9,56.6-123.9,126.4c0,3.4,0.2,6.8,0.5,10.2C128.9,248.7,126.5,268.8,114.8,294.1z"/>
<path style="fill:#FFFFFF;" d="M342.6,226.6c6.9,29.4-1,56.4-17.8,60.4s-36-16.6-42.9-46s1-56.4,17.8-60.4S335.7,197.2,342.6,226.6z  "/>
<ellipse style="fill:#84DBFF;" cx="312.3" cy="238" rx="20" ry="22.1"/>
<ellipse style="fill:#324A5E;" cx="313.1" cy="241.2" rx="13.4" ry="14.8"/>
<g>
	<circle style="fill:#FFFFFF;" cx="304.5" cy="228.9" r="4.8"/>
	<circle style="fill:#FFFFFF;" cx="311.2" cy="235.6" r="2"/>
</g>
<path style="fill:#324A5E;" d="M334,201.7c0.8,0.1,1.6,0.2,2.5,0.2c2.9,0.2,5.5-0.9,5.5-0.9s-2.8,0.3-5.3-0.6  c-1.3-0.4-2.5-0.9-3.3-1.3c-0.4-0.2-0.6-0.3-0.9-0.5c-0.3-0.5-0.5-1-0.8-1.5c-0.4-0.6-0.8-1.3-1.2-2c0.6,0.1,1.3,0.1,2,0.1  c1.9,0,3.8-0.2,5.1-0.6c1.4-0.3,2.2-0.7,2.2-0.7s-0.9,0.1-2.3,0c-1.3-0.1-3.1-0.4-4.7-0.9c-1.7-0.5-3.2-1.3-4.4-1.9  c-0.5-0.3-0.9-0.5-1.2-0.7c-0.7-0.9-1.4-1.7-2.1-2.6c0.5,0,1,0.1,1.6,0.2c2.8,0.2,5.7-0.1,7.7-0.5c2.1-0.4,3.3-0.9,3.3-0.9  s-1.4,0.3-3.4,0.2c-2,0-4.7-0.3-7.3-1c-2.5-0.6-4.9-1.6-6.7-2.4c-3.7-3-8.3-5.5-13.6-6.3c-3.1-0.5-6.6-0.1-9.4,0.9  c-3.1,1-5.7,2.8-7.8,4.8c-4.2,4.1-6.4,9-7.7,13.1c-1.3,4.2-1.6,7.8-1.8,10.2c-0.2,2.5-0.1,3.9-0.1,3.9s0.4-1.3,1.2-3.7  c0.7-2.3,2-5.6,3.8-9.2c1.9-3.6,4.4-7.5,8-10.5c1.8-1.5,3.9-2.6,6-3.3c2.4-0.7,4.6-0.9,7-0.5c2.4,0.3,4.8,1,7,2.2  c2.2,1.1,4.4,2.4,6.3,4c3.9,3,7.1,6.5,9.7,9.7s4.7,6,6,8c1.3,2.1,2.2,3.2,2.2,3.2s-0.4-1.4-1.1-3.7  C335.5,205.3,334.9,203.6,334,201.7z"/>
<path style="fill:#FFFFFF;" d="M162.4,226.6c-6.9,29.4,1,56.4,17.8,60.4s36-16.6,42.9-46c6.9-29.4-1-56.4-17.8-60.4  S169.3,197.2,162.4,226.6z"/>
<ellipse style="fill:#84DBFF;" cx="192.7" cy="238" rx="20" ry="22.1"/>
<ellipse style="fill:#324A5E;" cx="191.9" cy="241.2" rx="13.4" ry="14.8"/>
<g>
	<circle style="fill:#FFFFFF;" cx="200.5" cy="228.9" r="4.8"/>
	<circle style="fill:#FFFFFF;" cx="193.8" cy="235.6" r="2"/>
</g>
<path style="fill:#324A5E;" d="M171,201.7c-0.8,0.1-1.6,0.2-2.5,0.2c-2.9,0.2-5.5-0.9-5.5-0.9s2.8,0.3,5.3-0.6  c1.3-0.4,2.5-0.9,3.3-1.3c0.4-0.2,0.6-0.3,0.9-0.5c0.3-0.5,0.5-1,0.8-1.5c0.4-0.6,0.8-1.3,1.2-2c-0.6,0.1-1.3,0.1-2,0.1  c-1.9,0-3.8-0.2-5.1-0.6c-1.4-0.3-2.2-0.7-2.2-0.7s0.9,0.1,2.3,0c1.3-0.1,3.1-0.4,4.7-0.9c1.7-0.5,3.2-1.3,4.4-1.9  c0.5-0.3,0.9-0.5,1.2-0.7c0.7-0.9,1.4-1.7,2.1-2.6c-0.5,0-1,0.1-1.6,0.2c-2.8,0.2-5.7-0.1-7.7-0.5c-2.1-0.4-3.3-0.9-3.3-0.9  s1.4,0.3,3.4,0.2c2,0,4.7-0.3,7.3-1c2.5-0.6,4.9-1.6,6.7-2.4c3.7-3,8.3-5.5,13.6-6.3c3.1-0.5,6.6-0.1,9.4,0.9c3.1,1,5.7,2.8,7.8,4.8  c4.2,4.1,6.4,9,7.7,13.1c1.3,4.2,1.6,7.8,1.8,10.2c0.2,2.5,0.1,3.9,0.1,3.9s-0.4-1.3-1.2-3.7c-0.7-2.3-2-5.6-3.8-9.2  c-1.9-3.6-4.4-7.5-8-10.5c-1.8-1.5-3.9-2.6-6-3.3c-2.4-0.7-4.6-0.9-7-0.5c-2.4,0.3-4.8,1-7,2.2c-2.2,1.1-4.4,2.4-6.3,4  c-3.9,3-7.1,6.5-9.7,9.7c-2.6,3.2-4.7,6-6,8c-1.3,2.1-2.2,3.2-2.2,3.2s0.4-1.4,1.1-3.7C169.5,205.3,170.1,203.6,171,201.7z"/>
<path style="fill:#E6E9EE;" d="M396.8,298.3l10.7,4.9c-23-63.8-112.6-31.2-155-11.4c-42.4-19.7-132-52.4-155,11.4l10.7-4.9  c0,0-22,24.9-7.3,59.5L106,345c0,0-0.6,32.8,19.2,51.6l5.1-14c0,0-4.1,17.2,39.3,35.4c12.6,5.3,26,8.3,39.7,9.8  c5.4,0.6,12.2,1.9,19.8,4.6c15.1,5.4,31.9,5.4,47.1,0c7.5-2.7,14.4-4,19.8-4.6c13.7-1.5,27.2-4.5,39.7-9.8  c43.4-18.2,39.3-35.4,39.3-35.4l5.1,14c19.7-18.8,19.2-51.6,19.2-51.6l5.1,12.8C418.8,323.2,396.8,298.3,396.8,298.3z"/>
<path style="fill:#324A5E;" d="M284.2,355.4c0,10.4-3,20-7.9,27.2c-5.8,8.7-14.3,14.1-23.8,14.1s-18-5.5-23.8-14.1  c-5-7.3-7.9-16.8-7.9-27.2c0-1,0.1-2,0.1-2.9c0.4,0.1,0.9,0.2,1.4,0.2c11,0.4,20.6-1.5,28.5-9.7h3.4c0.1,0.2,0.2,0.4,0.4,0.6  c7.5,7.9,19.4,10.5,29.5,7.1C284.2,352.3,284.2,353.8,284.2,355.4z"/>
<path style="fill:#FF7058;" d="M276.3,382.6c-5.8,8.7-14.3,14.1-23.8,14.1s-18-5.5-23.8-14.1c6.9-9.7,15.5-14.8,21.5-12  c0.9,0.4,1.7,1,2.4,1.7c0.7-0.7,1.5-1.2,2.4-1.7C260.8,367.9,269.4,373,276.3,382.6z"/>
<path style="fill:#ACB3BA;" d="M309.2,321.2c0,1.6,0.1,3.3-0.1,4.9c-0.1,1.7-0.5,3.3-0.9,4.9c-0.5,1.6-1,3.2-1.7,4.7s-1.5,3-2.4,4.4  s-2,2.7-3.1,4c-1.2,1.2-2.4,2.4-3.7,3.4c-1.3,1.1-2.8,2-4.2,2.9c-1.5,0.8-3,1.6-4.7,2.2c-1.6,0.6-3.3,1.1-4.9,1.4  c-1.7,0.4-3.4,0.5-5.1,0.6c-0.9,0.1-1.8,0-2.5,0c-0.8,0-1.8-0.1-2.6-0.2c-1.7-0.2-3.4-0.5-5.1-1c-6.7-1.9-12.7-6-17-11.4h3.1  c-4.3,5.4-10.4,9.5-17,11.4c-3.4,0.9-6.8,1.4-10.3,1.2l-2.5-0.2l-2.6-0.4c-1.7-0.4-3.4-0.8-5-1.4c-6.4-2.4-12-6.9-15.8-12.5  c-0.9-1.4-1.8-2.9-2.4-4.4c-0.7-1.5-1.2-3.1-1.7-4.7c-0.4-1.6-0.8-3.2-0.9-4.9c-0.2-1.6-0.1-3.3-0.1-4.9c0.2,1.6,0.3,3.3,0.7,4.8  c0.3,1.6,0.8,3.1,1.3,4.7c0.6,1.5,1.2,3,2,4.4s1.7,2.7,2.6,4c1,1.3,2,2.4,3.1,3.6c1.2,1.1,2.3,2.1,3.7,3c1.3,1,2.7,1.7,4,2.4  c1.4,0.7,2.9,1.3,4.4,1.7c1.5,0.5,3,0.8,4.5,1l2.2,0.3l2.5,0.1c1.5,0.1,3.1-0.1,4.6-0.3c1.5-0.2,3-0.6,4.5-1  c5.9-1.8,11.2-5.4,15-10.3c0.7-0.9,1.9-1,2.8-0.3c0.1,0.1,0.2,0.2,0.3,0.3c3.8,4.9,9.1,8.5,15,10.3c1.5,0.4,3,0.8,4.5,1  c0.8,0.1,1.5,0.2,2.3,0.2c0.9,0,1.6,0.1,2.4,0l2.3-0.1l2.3-0.3c1.5-0.2,3.1-0.6,4.5-1.1c1.5-0.4,2.9-1.1,4.3-1.7  c1.4-0.7,2.8-1.5,4-2.4c1.3-0.9,2.5-1.9,3.6-3s2.2-2.3,3.1-3.6c1-1.3,1.9-2.6,2.6-4c0.8-1.4,1.4-2.9,2-4.4c0.5-1.5,1-3.1,1.3-4.7  C308.9,324.5,309,322.8,309.2,321.2z"/>
<path style="fill:#324A5E;" d="M282,313.8c0,11.5-13.2,29-29.5,29s-29.5-17.6-29.5-29s13.2-12.4,29.5-12.4S282,302.4,282,313.8z"/>
<g>
	<ellipse style="fill:#ACB3BA;" cx="349.2" cy="318.8" rx="11.9" ry="11.7"/>
	<ellipse style="fill:#ACB3BA;" cx="328.2" cy="357.2" rx="11.9" ry="11.7"/>
	<ellipse style="fill:#ACB3BA;" cx="366" cy="352.3" rx="11.9" ry="11.7"/>
	<ellipse style="fill:#ACB3BA;" cx="155.8" cy="318.8" rx="11.9" ry="11.7"/>
	<ellipse style="fill:#ACB3BA;" cx="176.8" cy="357.2" rx="11.9" ry="11.7"/>
	<ellipse style="fill:#ACB3BA;" cx="139" cy="352.3" rx="11.9" ry="11.7"/>
</g>
<g>
	<ellipse style="fill:#F9B54C;" cx="227" cy="124.8" rx="8.1" ry="8"/>
	<ellipse style="fill:#F9B54C;" cx="212.8" cy="150.8" rx="8.1" ry="8"/>
	<ellipse style="fill:#F9B54C;" cx="172.7" cy="158.8" rx="8.1" ry="8"/>
	<ellipse style="fill:#F9B54C;" cx="316.3" cy="153.1" rx="8.1" ry="8"/>
	<ellipse style="fill:#F9B54C;" cx="150.9" cy="201.7" rx="8.1" ry="8"/>
	<ellipse style="fill:#F9B54C;" cx="350.1" cy="180.1" rx="8.1" ry="8"/>
	
		<ellipse transform="matrix(-0.6508 -0.7593 0.7593 -0.6508 342.4709 405.7634)" style="fill:#F9B54C;" cx="264.55" cy="124.122" rx="8" ry="8.1"/>
	
		<ellipse transform="matrix(-0.6508 -0.7592 0.7592 -0.6508 330.6038 458.2303)" style="fill:#F9B54C;" cx="270.674" cy="153.091" rx="8" ry="8.1"/>
	
		<ellipse transform="matrix(-0.6508 -0.7593 0.7593 -0.6508 373.7688 439.7735)" style="fill:#F9B54C;" cx="288.021" cy="133.93" rx="8" ry="8.1"/>
</g>
<g>
</g>
<g>
</g>
<g>
</g>
<g>
</g>
<g>
</g>
<g>
</g>
<g>
</g>
<g>
</g>
<g>
</g>
<g>
</g>
<g>
</g>
<g>
</g>
<g>
</g>
<g>
</g>
<g>
</g>
</svg>
