<?xml version="1.0" encoding="iso-8859-1"?>
<!-- Generator: Adobe Illustrator 19.0.0, SVG Export Plug-In . SVG Version: 6.00 Build 0)  -->
<svg xmlns="http://www.w3.org/2000/svg" xmlns:xlink="http://www.w3.org/1999/xlink" version="1.1" id="Layer_1" x="0px" y="0px" viewBox="0 0 505 505" style="enable-background:new 0 0 505 505;" xml:space="preserve">
<circle style="fill:#90DFAA;" cx="252.5" cy="252.5" r="252.5"/>
<g>
	<path style="fill:#324A5E;" d="M421,226.2c2.1-2.9,3.9-6.1,5.4-9.4c0.8-1.6,1.5-3.4,2.1-5.1c0.7-1.7,1.2-3.5,1.7-5.3   s0.9-3.7,1.2-5.5c0.3-1.9,0.5-3.8,0.7-5.7V193c0-4.3-0.3-8.7-0.9-13.2c-0.7-4.5-1.8-9-3.3-13.5c-1.6-4.5-3.6-8.9-6-13.1   c-2.4-4.2-5.4-8.3-8.7-11.9c-0.8-0.9-1.7-1.8-2.5-2.7l-2.7-2.5c-0.2-0.2-0.4-0.4-0.7-0.6l-0.8-0.7l-1.7-1.4l-1.7-1.4l-1-0.7   l-0.9-0.7l-0.5-0.3l-0.2-0.2l0,0l-1.3-0.8l-0.2-0.1l-3-1.9c-1-0.6-2.1-1.2-3.1-1.8c-1.1-0.6-2.1-1.1-3.2-1.6   c-4.3-2.1-8.9-3.7-13.6-5s-9.4-2-14.2-2.5c-4.8-0.4-9.5-0.3-14.2,0.1s-9.3,1.3-13.8,2.5s-8.9,2.8-13.1,4.7s-8.3,4.1-12.1,6.7   c-3.9,2.5-7.5,5.4-10.9,8.5s-6.5,6.5-9.4,10.2s-5.4,7.6-7.6,11.7l-1.6,3.1l-0.4,0.8l-0.4,0.9l-0.8,1.9l-0.8,1.9   c-0.1,0.1-0.2,0.4-0.2,0.4l-0.1,0.3l-0.2,0.5l-0.7,2.1l56,22.9l1-2l0.3-0.5l0.1-0.3c0-0.1,0,0,0.1-0.1c0.1,0,0.1-0.1,0.2-0.1   c0.1-0.1,0.1-0.1,0.1-0.1l0.2-0.3c0.2-0.3,0.4-0.6,0.6-0.8c0.8-1.1,1.6-2.2,2.6-3.1c1-1,1.9-2,3-2.8c1.1-0.9,2.2-1.8,3.4-2.5   c1.2-0.7,2.4-1.5,3.7-2c0.3-0.2,0.6-0.3,0.9-0.4c0.3-0.1,0.6-0.3,1-0.4l0.9-0.4c0.3-0.1,0.6-0.2,1-0.3c1.3-0.4,2.6-0.7,3.8-0.9   c1.3-0.2,2.5-0.3,3.7-0.3s2.4,0.1,3.6,0.2c1.2,0.2,2.3,0.4,3.5,0.8c0.3,0.1,0.6,0.2,0.9,0.3s0.6,0.2,0.9,0.3s0.6,0.3,0.9,0.4h0.1   l-1.1-0.7l0.2,0.1l0.5,0.3l1,0.6l0.9,0.5c0,0,0,0,0.1,0h0.1h0.1l0.1,0.1c0.2,0.2,0.4,0.3,0.7,0.4c0.2,0.1,0.4,0.3,0.7,0.5   c0.8,0.7,1.7,1.3,2.4,2.2c0.8,0.9,1.5,1.8,2.1,2.9c0.6,1.1,1.3,2.4,1.8,3.7l1.3,4.6c0,0-2.7,10.3-8.8,14.7h-0.1l0,0   c-1.2,0.9-2.6,1.5-4.1,1.8c-0.5,0-1,0.1-1.6,0c-0.9-0.1-1.9-0.2-2.8-0.4c-1.9-0.5-3.9-1.4-5.6-3c-0.9-0.8-1.7-1.8-2.4-3   c-0.7-1.2-1.3-2.7-1.7-4.3c-0.1-9.3,6.1-10.6,7-10.7c0.1,0,0.1,0,0.1,0c-0.3-0.4-0.6-0.8-0.9-1.2c-0.4-0.3-0.8-0.7-1.2-1   c-0.4-0.3-0.9-0.6-1.4-0.8s-1.1-0.4-1.6-0.5s-1.1-0.2-1.7-0.2s-1.2-0.1-1.7,0c-0.6,0-1.2,0.1-1.7,0.2c-0.6,0.1-1.1,0.2-1.7,0.4   c-1.1,0.3-2.2,0.7-3.2,1.1c-0.5,0.2-1.1,0.5-1.6,0.7c-0.5,0.3-1,0.5-1.5,0.8c-1,0.6-1.9,1.3-2.8,2s-1.8,1.6-2.6,2.5l-0.7,1.7   c-1.5,2.6-2.9,5.5-3.7,8.8c-0.8,3.2-1.2,6.7-1,10.2s1,7,2.2,10.4c1.3,3.3,3,6.5,5.1,9.5c2.1,2.9,4.6,5.6,7.4,7.9   c2.8,2.3,6,4.3,9.4,5.9c3.4,1.6,7,2.8,10.9,3.5c1.9,0.4,3.9,0.6,5.8,0.7c2,0.1,3.9,0.1,6-0.1c1.2-0.1,2.5-0.3,3.6-0.5l1.7-0.2   l3.5-0.9c0.9-0.2,1.7-0.5,2.6-0.7c1.6-0.6,3.3-1.1,4.9-1.8s3.2-1.4,4.8-2.2c3.1-1.6,6.1-3.4,8.8-5.5l2.1-1.6c0.7-0.5,1.3-1.1,2-1.7   l2-1.7l1.9-1.9c1.2-1.2,2.4-2.6,3.5-3.9C418.9,229.1,419.9,227.7,421,226.2z"/>
	<path style="fill:#324A5E;" d="M84,226.2c-2.1-2.9-3.9-6.1-5.4-9.4c-0.8-1.6-1.5-3.4-2.1-5.1c-0.7-1.7-1.2-3.5-1.7-5.3   s-0.9-3.7-1.2-5.5c-0.3-1.9-0.5-3.8-0.7-5.7V193c0-4.3,0.3-8.7,0.9-13.2c0.7-4.5,1.8-9,3.3-13.5c1.6-4.5,3.6-8.9,6-13.1   c2.4-4.2,5.4-8.3,8.7-11.9c0.8-0.9,1.7-1.8,2.5-2.7l2.7-2.5c0.2-0.2,0.4-0.4,0.7-0.6l0.8-0.7l1.7-1.4l1.7-1.4l1-0.7l0.9-0.7   l0.5-0.3l0.2-0.2l0,0l1.3-0.8l0.2-0.1l3-1.9c1-0.6,2.1-1.2,3.1-1.8c1.1-0.6,2.1-1.1,3.2-1.6c4.3-2.1,8.9-3.7,13.6-5s9.4-2,14.2-2.5   c4.8-0.4,9.5-0.3,14.2,0.1s9.3,1.3,13.8,2.5s8.9,2.8,13.1,4.7c4.2,1.9,8.3,4.1,12.1,6.7c3.9,2.5,7.5,5.4,10.9,8.5s6.5,6.5,9.4,10.2   s5.4,7.6,7.6,11.7l1.6,3.1l0.4,0.8l0.4,0.9l0.8,1.9l0.8,1.9c0.1,0.1,0.2,0.4,0.2,0.4l0.1,0.3l0.2,0.5l0.7,2.1l-55.9,22.8l-1-2   l-0.3-0.5l-0.1-0.3c0-0.1,0,0-0.1-0.1c-0.1,0-0.1-0.1-0.2-0.1c-0.1-0.1-0.1-0.1-0.1-0.1l-0.2-0.3c-0.2-0.3-0.4-0.6-0.6-0.8   c-0.8-1.1-1.6-2.2-2.6-3.1c-1-1-1.9-2-3-2.8c-1.1-0.9-2.2-1.8-3.4-2.5s-2.4-1.5-3.7-2c-0.3-0.2-0.6-0.3-0.9-0.4   c-0.3-0.1-0.6-0.3-1-0.4l-0.9-0.4c-0.3-0.1-0.6-0.2-1-0.3c-1.3-0.4-2.6-0.7-3.8-0.9c-1.3-0.2-2.5-0.3-3.7-0.3s-2.4,0.1-3.6,0.2   c-1.2,0.2-2.3,0.4-3.5,0.8c-0.3,0.1-0.6,0.2-0.9,0.3c-0.3,0.1-0.6,0.2-0.9,0.3c-0.3,0.1-0.6,0.3-0.9,0.4H137l1.1-0.7l-0.2,0.1   l-0.5,0.3l-1,0.6l-0.9,0.5c0,0,0,0-0.1,0h-0.1h-0.1l-0.1,0.1c-0.2,0.2-0.4,0.3-0.7,0.4c-0.2,0.1-0.4,0.3-0.7,0.5   c-0.8,0.7-1.7,1.3-2.4,2.2c-0.8,0.9-1.5,1.8-2.1,2.9c-0.6,1.1-1.3,2.4-1.8,3.7l-1.3,4.6c0,0,2.7,10.3,8.8,14.7h0.1l0,0   c1.2,0.9,2.6,1.5,4.1,1.8c0.5,0,1,0.1,1.6,0c0.9-0.1,1.9-0.2,2.8-0.4c1.9-0.5,3.9-1.4,5.6-3c0.9-0.8,1.7-1.8,2.4-3s1.3-2.7,1.7-4.3   c0.1-9.3-6.1-10.6-7-10.7c-0.1,0-0.1,0-0.1,0c0.3-0.4,0.6-0.8,0.9-1.2c0.4-0.3,0.8-0.7,1.2-1s0.9-0.6,1.4-0.8s1.1-0.4,1.6-0.5   s1.1-0.2,1.7-0.2c0.6,0,1.2-0.1,1.7,0c0.6,0,1.2,0.1,1.7,0.2c0.6,0.1,1.1,0.2,1.7,0.4c1.1,0.3,2.2,0.7,3.2,1.1   c0.5,0.2,1.1,0.5,1.6,0.7c0.5,0.3,1,0.5,1.5,0.8c1,0.6,1.9,1.3,2.8,2c0.9,0.7,1.8,1.6,2.6,2.5l0.7,1.7c1.5,2.6,2.9,5.5,3.7,8.8   c0.8,3.2,1.2,6.7,1,10.2s-1,7-2.2,10.4c-1.3,3.3-3,6.5-5.1,9.5c-2.1,2.9-4.6,5.6-7.4,7.9c-2.8,2.3-6,4.3-9.4,5.9   c-3.4,1.6-7,2.8-10.9,3.5c-1.9,0.4-3.9,0.6-5.8,0.7c-2,0.1-3.9,0.1-6-0.1c-1.2-0.1-2.5-0.3-3.6-0.5l-1.7-0.2l-3.5-0.9   c-0.9-0.2-1.7-0.5-2.6-0.7c-1.6-0.6-3.3-1.1-4.9-1.8s-3.2-1.4-4.8-2.2c-3.1-1.6-6.1-3.4-8.8-5.5l-2.1-1.6c-0.7-0.5-1.3-1.1-2-1.7   l-2-1.7l-1.9-1.9c-1.2-1.2-2.4-2.6-3.5-3.9C86.1,229.1,85.1,227.7,84,226.2z"/>
</g>
<path style="fill:#E6E9EE;" d="M139.5,314.3h226c-9.6-20.8-11.5-37.3-11.7-46.6c0.2-2.8,0.4-5.5,0.4-8.4  c0-57.3-45.6-103.7-101.7-103.7S150.8,202,150.8,259.3c0,2.8,0.2,5.6,0.4,8.4C151,277.1,149.1,293.6,139.5,314.3z"/>
<path style="fill:#FFFFFF;" d="M326.5,268.6c5.7,19.4-0.8,37.3-14.6,40c-13.8,2.6-29.5-11-35.2-30.5c-5.7-19.4,0.8-37.3,14.6-40  C305,235.6,320.8,249.2,326.5,268.6z"/>
<ellipse style="fill:#84DBFF;" cx="301.6" cy="276.2" rx="16.4" ry="14.6"/>
<ellipse style="fill:#324A5E;" cx="302.3" cy="278.3" rx="11" ry="9.8"/>
<g>
	<ellipse style="fill:#FFFFFF;" cx="295.2" cy="270.2" rx="4" ry="3.2"/>
	<ellipse style="fill:#FFFFFF;" cx="300.7" cy="274.6" rx="1.6" ry="1.3"/>
</g>
<path style="fill:#324A5E;" d="M319.4,252.2c0.6,0.1,1.3,0.1,2,0.1c2.4,0.1,4.5-0.6,4.5-0.6s-2.3,0.2-4.3-0.4c-1-0.2-2-0.6-2.7-0.9  c-0.3-0.1-0.5-0.2-0.7-0.3c-0.2-0.3-0.4-0.6-0.7-1c-0.3-0.4-0.6-0.9-1-1.3c0.5,0,1.1,0.1,1.6,0.1c1.6,0,3.1-0.2,4.2-0.4  s1.8-0.5,1.8-0.5s-0.7,0.1-1.8,0c-1.1,0-2.5-0.2-3.9-0.6c-1.4-0.3-2.7-0.8-3.6-1.2c-0.4-0.2-0.7-0.3-1-0.4c-0.5-0.6-1.1-1.1-1.7-1.7  c0.4,0,0.9,0.1,1.3,0.1c2.3,0.1,4.7-0.1,6.3-0.3c1.7-0.3,2.7-0.6,2.7-0.6s-1.1,0.2-2.8,0.2c-1.7,0-3.9-0.2-6-0.7  c-2.1-0.4-4-1-5.5-1.6c-3.1-2-6.8-3.6-11.2-4.1c-2.6-0.3-5.4,0-7.7,0.6c-2.6,0.7-4.7,1.9-6.4,3.2c-3.5,2.7-5.3,5.9-6.3,8.7  c-1.1,2.8-1.3,5.1-1.5,6.8c-0.1,1.6-0.1,2.6-0.1,2.6s0.4-0.9,1-2.4s1.6-3.7,3.1-6.1c1.5-2.4,3.6-5,6.6-6.9c1.5-1,3.2-1.7,4.9-2.2  c1.9-0.5,3.8-0.6,5.8-0.3c1.9,0.2,3.9,0.7,5.7,1.4c1.8,0.8,3.6,1.6,5.1,2.6c3.2,2,5.8,4.3,8,6.4c2.1,2.1,3.8,3.9,4.9,5.3  s1.8,2.1,1.8,2.1s-0.3-0.9-0.9-2.5C320.6,254.5,320.1,253.4,319.4,252.2z"/>
<path style="fill:#FFFFFF;" d="M178.5,268.6c-5.7,19.4,0.8,37.3,14.6,40c13.8,2.6,29.5-11,35.2-30.5c5.7-19.4-0.8-37.3-14.6-40  C200,235.6,184.2,249.2,178.5,268.6z"/>
<ellipse style="fill:#84DBFF;" cx="203.5" cy="276.2" rx="16.4" ry="14.6"/>
<ellipse style="fill:#324A5E;" cx="202.7" cy="278.3" rx="11" ry="9.8"/>
<g>
	<ellipse style="fill:#FFFFFF;" cx="209.8" cy="270.2" rx="4" ry="3.2"/>
	<ellipse style="fill:#FFFFFF;" cx="204.3" cy="274.6" rx="1.6" ry="1.3"/>
</g>
<path style="fill:#324A5E;" d="M185.6,252.2c-0.6,0.1-1.3,0.1-2,0.1c-2.4,0.1-4.5-0.6-4.5-0.6s2.3,0.2,4.3-0.4c1-0.2,2-0.6,2.7-0.9  c0.3-0.1,0.5-0.2,0.7-0.3c0.2-0.3,0.4-0.6,0.7-1s0.6-0.9,1-1.3c-0.5,0-1.1,0.1-1.6,0.1c-1.6,0-3.1-0.2-4.2-0.4  c-1.1-0.2-1.8-0.5-1.8-0.5s0.7,0.1,1.8,0c1.1,0,2.5-0.2,3.9-0.6c1.4-0.3,2.7-0.8,3.6-1.2c0.4-0.2,0.7-0.3,1-0.4  c0.5-0.6,1.1-1.1,1.7-1.7c-0.4,0-0.9,0.1-1.3,0.1c-2.3,0.1-4.7-0.1-6.3-0.3c-1.7-0.3-2.7-0.6-2.7-0.6s1.1,0.2,2.8,0.2s3.9-0.2,6-0.7  c2.1-0.4,4-1,5.5-1.6c3.1-2,6.8-3.6,11.2-4.1c2.6-0.3,5.4,0,7.7,0.6c2.6,0.7,4.7,1.9,6.4,3.2c3.5,2.7,5.3,5.9,6.3,8.7  c1.1,2.8,1.3,5.1,1.5,6.8c0.1,1.6,0.1,2.6,0.1,2.6s-0.4-0.9-1-2.4s-1.6-3.7-3.1-6.1c-1.5-2.4-3.6-5-6.6-6.9c-1.5-1-3.2-1.7-4.9-2.2  c-1.9-0.5-3.8-0.6-5.8-0.3c-1.9,0.2-3.9,0.7-5.7,1.4c-1.8,0.8-3.6,1.6-5.1,2.6c-3.2,2-5.8,4.3-8,6.4c-2.1,2.1-3.8,3.9-4.9,5.3  c-1.1,1.4-1.8,2.1-1.8,2.1s0.3-0.9,0.9-2.5C184.4,254.5,184.9,253.4,185.6,252.2z"/>
<path style="fill:#E6E9EE;" d="M299.1,422.6L299.1,422.6c-3.7,0.7-7.3,1.3-11,1.7c-4.5,0.5-10,1.6-16.2,3.8  c-12.4,4.5-26.2,4.5-38.6,0c-6.2-2.2-11.8-3.3-16.2-3.8c-3.7-0.4-7.4-1-11.1-1.7c-111.8-8.2-80.7-100.8-80.7-100.8h0.1  c18.9-52.4,92.4-25.6,127.2-9.4c28.8-13.4,84.1-34.1,113-11.2c6.1,4.8,11,11.5,14.2,20.5C379.7,321.8,410.9,414.4,299.1,422.6z"/>
<circle style="fill:#D5D5D3;" cx="220.3" cy="167" r="23.5"/>
<path style="fill:#324A5E;" d="M257.4,358.4c-1.6-1-2.9-2.4-3.7-4H251c-6.5,6.8-14.4,8.3-23.4,8c-0.4,0-0.8-0.1-1.1-0.2  c0,0.8-0.1,1.6-0.1,2.4c0,8.6,2.4,16.4,6.5,22.3c4.7,7.1,11.7,11.6,19.5,11.6s14.8-4.5,19.5-11.6c4.1-6,6.5-13.8,6.5-22.3  c0-0.7-0.1-1.3-0.1-2C271.5,364.4,262.7,361.8,257.4,358.4z"/>
<path style="fill:#FF7058;" d="M272,387c-4.7,7.1-11.7,11.6-19.5,11.6c-7.8,0-14.8-4.5-19.5-11.6c5.7-7.9,12.7-12.1,17.6-9.9  c0.7,0.4,1.4,0.8,1.9,1.4c0.6-0.6,1.2-1,1.9-1.4C259.3,374.9,266.3,379.1,272,387z"/>
<path style="fill:#ACB3BA;" d="M299,337.3c0,1.3,0.1,2.7,0,4c-0.1,1.4-0.4,2.7-0.7,4c-0.4,1.3-0.8,2.6-1.4,3.9  c-0.5,1.3-1.2,2.5-1.9,3.7c-3.1,4.7-7.6,8.4-13,10.4c-1.3,0.5-2.7,0.9-4.1,1.2c-1.4,0.3-2.8,0.5-4.3,0.5c-0.7,0.1-1.5,0-2.1,0  c-0.7,0-1.5-0.1-2.2-0.2c-1.4-0.2-2.8-0.4-4.2-0.8c-5.6-1.6-10.6-4.9-14.2-9.5h3.1c-3.6,4.5-8.6,7.9-14.2,9.5  c-2.8,0.7-5.6,1.1-8.6,0.9l-2-0.1l-2.2-0.4c-1.4-0.3-2.8-0.7-4.1-1.2c-5.3-2-9.9-5.7-13-10.4c-0.7-1.2-1.4-2.4-2-3.7  c-0.6-1.3-1-2.6-1.4-3.9c-0.3-1.3-0.6-2.7-0.7-4c-0.2-1.4-0.1-2.7,0-4.1c0.2,1.3,0.3,2.7,0.6,4c0.2,1.3,0.7,2.6,1.1,3.8  c0.5,1.2,1,2.4,1.7,3.5c0.6,1.1,1.4,2.2,2.2,3.2c3.2,4.1,7.6,7.2,12.4,8.6c1.2,0.4,2.5,0.6,3.7,0.8l1.8,0.2l2,0.1  c2.4,0.1,5-0.4,7.4-1.1c4.8-1.5,9.1-4.4,12.1-8.3c0.7-0.9,1.9-1,2.8-0.3c0.1,0.1,0.3,0.2,0.3,0.3c3,3.9,7.3,6.9,12.1,8.3  c1.2,0.4,2.4,0.7,3.6,0.8c0.6,0.1,1.2,0.1,1.8,0.2c0.7,0,1.3,0.1,1.9,0c1.3,0,2.5-0.1,3.8-0.3c1.2-0.2,2.5-0.4,3.7-0.8  c4.8-1.5,9.2-4.5,12.4-8.6c0.8-1,1.6-2.1,2.2-3.2c0.7-1.1,1.2-2.3,1.7-3.5c0.4-1.2,0.9-2.5,1.1-3.8C298.8,340,298.9,338.7,299,337.3  z"/>
<path style="fill:#324A5E;" d="M276.7,330.5c0,9.4-10.9,23.8-24.2,23.8c-13.4,0-24.2-14.4-24.2-23.8s10.9-10.2,24.2-10.2  C265.9,320.3,276.7,321.1,276.7,330.5z"/>
<path style="fill:#FFFFFF;" d="M347.9,182.3c0,13.9-11.2,25.1-25.1,25.1c-8.9,0-16.7-4.6-21.2-11.7c-0.8,0.1-1.5,0.1-2.3,0.1  c-7.7,0-14.6-3.4-19.1-8.9c-3.2,1.6-6.9,2.4-10.7,2.4c-4.5,6.4-11.9,10.5-20.4,10.5c-6.4,0-12.3-2.4-16.7-6.4  c-4.1,8.2-12.6,13.8-22.4,13.8c-9.2,0-17.2-5-21.6-12.4c-2,0.5-4.2,0.8-6.4,0.8c-13.9,0-25.1-11.3-25.1-25.1s11.2-25.1,25.1-25.1  h0.3c1.9-11.9,12.3-21,24.7-21c4,0,7.7,0.9,11,2.6c4.5-4.1,10.4-6.6,17-6.6c5.8,0,11.1,2,15.4,5.3c4.6-5.4,11.4-8.8,19-8.8  c10.6,0,19.6,6.6,23.3,15.8c3.4-1.8,7.3-2.8,11.4-2.8c13.9,0,25.1,11.2,25.1,25.1c0,1,0,2-0.2,2.9  C340,160.9,347.9,170.7,347.9,182.3z"/>
<g>
</g>
<g>
</g>
<g>
</g>
<g>
</g>
<g>
</g>
<g>
</g>
<g>
</g>
<g>
</g>
<g>
</g>
<g>
</g>
<g>
</g>
<g>
</g>
<g>
</g>
<g>
</g>
<g>
</g>
</svg>
