<?xml version="1.0" encoding="iso-8859-1"?>
<!-- Generator: Adobe Illustrator 19.0.0, SVG Export Plug-In . SVG Version: 6.00 Build 0)  -->
<svg xmlns="http://www.w3.org/2000/svg" xmlns:xlink="http://www.w3.org/1999/xlink" version="1.1" id="Layer_1" x="0px" y="0px" viewBox="0 0 505 505" style="enable-background:new 0 0 505 505;" xml:space="preserve">
<circle style="fill:#324A5E;" cx="252.5" cy="252.5" r="252.5"/>
<path style="fill:#4CDBC4;" d="M437.1,288.8c0,64.4-82.6,101.8-184.6,101.8c-101.9,0-184.6-37.4-184.6-101.8s82.7-131.3,184.6-131.3  S437.1,224.5,437.1,288.8z"/>
<g>
	<path style="fill:#2C9984;" d="M436.8,276.4c-14.1,41.8-91.3,73.7-184.3,73.7S82.4,318.2,68.3,276.5   c41.6,28.7,108.6,47.3,184.2,47.3C328.2,323.7,395.2,305.1,436.8,276.4z"/>
	<ellipse style="fill:#2C9984;" cx="282.5" cy="282.4" rx="11" ry="17"/>
	<ellipse style="fill:#2C9984;" cx="222.5" cy="282.4" rx="11" ry="17"/>
</g>
<g>
	<circle style="fill:#4CDBC4;" cx="372.2" cy="207.4" r="66.7"/>
	<circle style="fill:#4CDBC4;" cx="132.8" cy="207.4" r="66.7"/>
</g>
<circle style="fill:#E6E9EE;" cx="372.2" cy="207.4" r="51.7"/>
<circle style="fill:#324A5E;" cx="372.2" cy="207.4" r="37.6"/>
<circle style="fill:#FFFFFF;" cx="360.5" cy="173.3" r="9.4"/>
<circle style="fill:#E6E9EE;" cx="132.8" cy="207.4" r="51.7"/>
<circle style="fill:#324A5E;" cx="132.8" cy="207.4" r="37.6"/>
<circle style="fill:#FFFFFF;" cx="121.2" cy="173.3" r="9.4"/>
<g>
</g>
<g>
</g>
<g>
</g>
<g>
</g>
<g>
</g>
<g>
</g>
<g>
</g>
<g>
</g>
<g>
</g>
<g>
</g>
<g>
</g>
<g>
</g>
<g>
</g>
<g>
</g>
<g>
</g>
</svg>
