<?xml version="1.0" encoding="iso-8859-1"?>
<!-- Generator: Adobe Illustrator 19.0.0, SVG Export Plug-In . SVG Version: 6.00 Build 0)  -->
<svg xmlns="http://www.w3.org/2000/svg" xmlns:xlink="http://www.w3.org/1999/xlink" version="1.1" id="Layer_1" x="0px" y="0px" viewBox="0 0 505 505" style="enable-background:new 0 0 505 505;" xml:space="preserve">
<ellipse style="fill:#F1543F;" cx="252.5" cy="252.5" rx="246.9" ry="252.5"/>
<g>
	<path style="fill:#324A5E;" d="M436.3,171.8c-4.5-22.4-24.6-26.2-24.6-26.2l11.6-2.6c-39.3-70.2-106.4-16.1-103.9,23.8l33.2,51.8   c25.1,14.1,40.4,0.1,40.4,0.1l1.7,10.4c24.9-11.2,26.7-28.3,26.7-28.3l4.4,7.9c11.8-18.5,3.6-38.8,3.6-38.8L436.3,171.8z"/>
	<path style="fill:#324A5E;" d="M68.7,171.8c4.5-22.4,24.6-26.2,24.6-26.2L81.7,143c39.3-70.2,106.4-16.1,103.9,23.8l-33.2,51.7   c-25.1,14.1-40.4,0.1-40.4,0.1l-1.7,10.4c-24.9-11.2-26.7-28.3-26.7-28.3l-4.4,7.9c-11.8-18.5-3.6-38.8-3.6-38.8L68.7,171.8z"/>
</g>
<path style="fill:#FFD05B;" d="M127.2,300.9h250.6c-10.6-23-12.8-41.3-12.9-51.6c0.2-3.1,0.5-6.1,0.5-9.3c0-63.5-50.5-115-112.8-115  s-112.8,51.5-112.8,115c0,3.1,0.2,6.2,0.5,9.3C140,259.5,137.8,277.8,127.2,300.9z"/>
<path style="fill:#FFFFFF;" d="M334.5,239.4c6.3,26.8-0.9,51.4-16.2,55c-15.3,3.6-32.8-15.2-39.1-41.9c-6.3-26.8,0.9-51.4,16.2-55  S328.2,212.7,334.5,239.4z"/>
<ellipse style="fill:#84DBFF;" cx="306.9" cy="249.8" rx="18.2" ry="20.1"/>
<ellipse style="fill:#324A5E;" cx="307.7" cy="252.7" rx="12.2" ry="13.5"/>
<g>
	<circle style="fill:#FFFFFF;" cx="299.9" cy="241.6" r="4.4"/>
	<circle style="fill:#FFFFFF;" cx="305.9" cy="247.6" r="1.8"/>
</g>
<path style="fill:#324A5E;" d="M326.7,216.8c0.7,0.1,1.5,0.2,2.3,0.2c2.6,0.1,5-0.8,5-0.8s-2.5,0.3-4.8-0.5c-1.1-0.3-2.2-0.8-3-1.2  c-0.3-0.2-0.6-0.3-0.8-0.4c-0.2-0.4-0.5-0.9-0.7-1.3c-0.3-0.6-0.7-1.2-1.1-1.8c0.6,0,1.2,0.1,1.8,0.1c1.7,0,3.5-0.2,4.7-0.5  s2-0.7,2-0.7s-0.8,0.1-2.1,0c-1.2-0.1-2.8-0.3-4.3-0.8s-2.9-1.1-4-1.7c-0.5-0.2-0.8-0.5-1.1-0.6c-0.6-0.8-1.2-1.6-1.9-2.3  c0.5,0,1,0.1,1.4,0.2c2.6,0.1,5.2-0.1,7-0.5c1.9-0.4,3-0.8,3-0.8s-1.2,0.2-3.1,0.2s-4.3-0.3-6.7-0.9c-2.3-0.6-4.4-1.4-6.1-2.2  c-3.4-2.7-7.6-5-12.4-5.7c-2.8-0.4-6-0.1-8.6,0.8c-2.8,0.9-5.2,2.6-7.1,4.4c-3.8,3.7-5.8,8.2-7,11.9c-1.2,3.8-1.5,7.1-1.6,9.3  c-0.1,2.3-0.1,3.5-0.1,3.5s0.4-1.2,1.1-3.3c0.6-2.1,1.8-5.1,3.5-8.4c1.7-3.2,4-6.9,7.3-9.5c1.6-1.4,3.5-2.3,5.5-3  c2.2-0.7,4.2-0.8,6.4-0.5c2.1,0.3,4.3,0.9,6.3,2c2,1,4,2.2,5.7,3.6c3.5,2.8,6.5,6,8.8,8.8c2.4,2.9,4.2,5.4,5.5,7.3  c1.2,1.9,2,2.9,2,2.9s-0.3-1.2-1-3.4C328,220,327.5,218.5,326.7,216.8z"/>
<path style="fill:#FFFFFF;" d="M170.5,239.4c-6.3,26.8,0.9,51.4,16.2,55s32.8-15.2,39.1-41.9s-0.9-51.4-16.2-55  S176.8,212.7,170.5,239.4z"/>
<ellipse style="fill:#84DBFF;" cx="198.1" cy="249.8" rx="18.2" ry="20.1"/>
<ellipse style="fill:#324A5E;" cx="197.3" cy="252.7" rx="12.2" ry="13.5"/>
<g>
	<circle style="fill:#FFFFFF;" cx="205.1" cy="241.6" r="4.4"/>
	<circle style="fill:#FFFFFF;" cx="199.1" cy="247.6" r="1.8"/>
</g>
<path style="fill:#324A5E;" d="M178.3,216.8c-0.7,0.1-1.5,0.2-2.3,0.2c-2.6,0.1-5-0.8-5-0.8s2.5,0.3,4.8-0.5c1.1-0.3,2.2-0.8,3-1.2  c0.3-0.2,0.6-0.3,0.8-0.4c0.2-0.4,0.5-0.9,0.7-1.3c0.3-0.6,0.7-1.2,1.1-1.8c-0.6,0-1.2,0.1-1.8,0.1c-1.7,0-3.5-0.2-4.7-0.5  s-2-0.7-2-0.7s0.8,0.1,2.1,0c1.2-0.1,2.8-0.3,4.3-0.8s2.9-1.1,4-1.7c0.5-0.2,0.8-0.5,1.1-0.6c0.6-0.8,1.2-1.6,1.9-2.3  c-0.5,0-1,0.1-1.4,0.2c-2.6,0.1-5.2-0.1-7-0.5c-1.9-0.4-3-0.8-3-0.8s1.2,0.2,3.1,0.2c1.9,0,4.3-0.3,6.7-0.9c2.3-0.6,4.4-1.4,6.1-2.2  c3.4-2.7,7.6-5,12.4-5.7c2.8-0.4,6-0.1,8.6,0.8c2.8,0.9,5.2,2.6,7.1,4.4c3.8,3.7,5.9,8.2,7,11.9c1.2,3.8,1.5,7.1,1.6,9.3  c0.1,2.3,0.1,3.5,0.1,3.5s-0.4-1.2-1.1-3.3c-0.6-2.1-1.8-5.1-3.5-8.4c-1.7-3.2-4-6.9-7.3-9.5c-1.6-1.4-3.5-2.3-5.5-3  c-2.2-0.7-4.2-0.8-6.4-0.5c-2.1,0.3-4.3,0.9-6.3,2c-2,1-4,2.2-5.7,3.6c-3.5,2.8-6.5,6-8.8,8.8c-2.4,2.9-4.2,5.4-5.5,7.3  c-1.2,1.9-2,2.9-2,2.9s0.3-1.2,1-3.4C177,220,177.5,218.5,178.3,216.8z"/>
<path style="fill:#FFD05B;" d="M383.8,304.7l9.7,4.4C372.6,251,291,280.7,252.4,298.7c-38.6-18-120.1-47.7-141.1,10.4l9.7-4.4  c0,0-20,22.7-6.7,54.2l4.6-11.6c0,0-0.5,29.9,17.4,47l4.6-12.7c0,0-3.7,15.6,35.8,32.2c11.4,4.8,23.7,7.5,36.1,8.9  c4.9,0.5,11.1,1.7,18,4.2c13.8,4.9,29.1,4.9,42.8,0c6.9-2.5,13.1-3.7,18-4.2c12.5-1.4,24.7-4.1,36.1-8.9  c39.5-16.6,35.8-32.2,35.8-32.2l4.6,12.7c18-17.1,17.4-47,17.4-47l4.6,11.6C403.8,327.4,383.8,304.7,383.8,304.7z"/>
<path style="fill:#324A5E;" d="M281.4,356.7c0,9.5-2.7,18.2-7.2,24.8c-5.2,7.9-13,12.9-21.7,12.9s-16.4-5-21.7-12.9  c-4.5-6.6-7.2-15.3-7.2-24.8c0-0.9,0.1-1.8,0.1-2.7c0.4,0.1,0.8,0.2,1.2,0.2c10,0.3,18.8-1.4,26-8.9h3.1c0.1,0.2,0.2,0.4,0.4,0.6  c6.8,7.2,17.7,9.6,26.9,6.5C281.3,353.8,281.4,355.2,281.4,356.7z"/>
<path style="fill:#FF7058;" d="M274.2,381.5c-5.2,7.9-13,12.9-21.7,12.9c-8.7,0-16.4-5-21.7-12.9c6.3-8.8,14.1-13.4,19.5-10.9  c0.8,0.4,1.5,0.9,2.1,1.5c0.6-0.6,1.4-1.1,2.1-1.5C260.1,368,267.8,372.7,274.2,381.5z"/>
<path style="fill:#F9B54C;" d="M304.1,325.5c0,1.5,0.1,3-0.1,4.5c-0.1,1.5-0.5,3-0.8,4.5c-0.4,1.5-0.9,2.9-1.5,4.3s-1.4,2.7-2.2,4  c-3.4,5.1-8.5,9.2-14.3,11.4c-1.5,0.6-3,1-4.5,1.3s-3.1,0.5-4.7,0.5c-0.8,0.1-1.6,0-2.3,0c-0.8,0-1.6-0.1-2.4-0.2  c-1.6-0.2-3.1-0.5-4.7-0.9c-6.1-1.7-11.6-5.4-15.6-10.4h3c-4,5-9.5,8.7-15.6,10.4c-3.1,0.8-6.2,1.2-9.4,1.1l-2.2-0.1l-2.4-0.4  c-1.6-0.3-3.1-0.7-4.5-1.3c-5.9-2.2-11-6.3-14.4-11.4c-0.8-1.3-1.6-2.6-2.2-4c-0.7-1.4-1.1-2.8-1.5-4.3c-0.3-1.5-0.7-3-0.8-4.5  c-0.2-1.5-0.1-3-0.1-4.5c0.2,1.5,0.3,3,0.7,4.4c0.2,1.5,0.7,2.9,1.2,4.2c0.6,1.4,1.1,2.7,1.9,4c0.7,1.3,1.5,2.5,2.4,3.6  c3.5,4.6,8.4,8,13.8,9.7c1.3,0.4,2.8,0.7,4.1,0.9l2,0.3l2.2,0.1c1.3,0,2.8-0.1,4.1-0.3c1.4-0.2,2.7-0.5,4.1-0.9  c5.3-1.6,10.2-4.9,13.6-9.3c0.7-0.8,1.9-1,2.7-0.3c0.1,0.1,0.2,0.2,0.3,0.3c3.4,4.4,8.2,7.7,13.6,9.3c1.3,0.4,2.7,0.7,4.1,0.9  c0.7,0.1,1.3,0.2,2,0.2c0.8,0,1.4,0.1,2.1,0c1.4,0,2.8-0.1,4.2-0.3c1.4-0.2,2.8-0.5,4.1-0.9c5.4-1.6,10.3-5.1,13.8-9.7  c0.9-1.1,1.7-2.3,2.4-3.6c0.7-1.3,1.3-2.6,1.9-4c0.4-1.4,1-2.8,1.2-4.2C303.8,328.5,303.9,327,304.1,325.5z"/>
<path style="fill:#324A5E;" d="M279.4,318.8c0,10.4-12,26.4-26.9,26.4c-14.8,0-26.9-16-26.9-26.4s12-11.3,26.9-11.3  C267.3,307.5,279.4,308.4,279.4,318.8z"/>
<g>
</g>
<g>
</g>
<g>
</g>
<g>
</g>
<g>
</g>
<g>
</g>
<g>
</g>
<g>
</g>
<g>
</g>
<g>
</g>
<g>
</g>
<g>
</g>
<g>
</g>
<g>
</g>
<g>
</g>
</svg>
