<?xml version="1.0" encoding="iso-8859-1"?>
<!-- Generator: Adobe Illustrator 19.0.0, SVG Export Plug-In . SVG Version: 6.00 Build 0)  -->
<svg xmlns="http://www.w3.org/2000/svg" xmlns:xlink="http://www.w3.org/1999/xlink" version="1.1" id="Layer_1" x="0px" y="0px" viewBox="0 0 505 505" style="enable-background:new 0 0 505 505;" xml:space="preserve">
<circle style="fill:#FFD05B;" cx="252.5" cy="252.5" r="252.5"/>
<g>
	<path style="fill:#2B3B4E;" d="M392.3,131.4v-27.7h-27.7c-36.6,0-66.3,29.7-66.3,66.3v27.7H326C362.6,197.7,392.3,168,392.3,131.4z   "/>
	<path style="fill:#2B3B4E;" d="M112.7,131.4v-27.7h27.7c36.6,0,66.3,29.7,66.3,66.3v27.7H179C142.4,197.7,112.7,168,112.7,131.4z"/>
</g>
<path style="fill:#324A5E;" d="M375.1,256.6v2.5c0-65.1-54.9-117.8-122.6-117.8l0,0c-67.7,0-122.6,52.7-122.6,117.8v-2.5  c0,9.7-8.2,17.6-18.3,17.6c3.7,71.7,65.4,128.7,140.9,128.7s137.2-57,140.9-128.7C383.3,274.1,375.1,266.3,375.1,256.6z"/>
<path style="fill:#ACB3BA;" d="M281,311.2c0,13.7-13.7,31.2-30.5,31.2S220,325,220,311.2s13.7-18.5,30.5-18.5S281,297.4,281,311.2z"/>
<g>
	<path style="fill:#FFFFFF;" d="M325.2,311c0,0,2.4-0.1,6.7,0c4.3,0.2,10.4,0.4,17.7,1.3c3.7,0.4,7.6,1,11.8,1.7   c4.2,0.7,8.6,1.5,13,2.6c9,2.2,18.4,5,27.6,8.8c4.6,1.9,9,4.1,13.3,6.4c2.2,1.1,4.2,2.4,6.3,3.6c2,1.3,4,2.6,5.9,3.9   c3.8,2.7,7.2,5.6,10.3,8.6c3.1,2.9,5.7,6,8.1,8.9c1.1,1.5,2.2,2.9,3.2,4.3c0.9,1.4,1.7,2.8,2.5,4.1c1.6,2.6,2.6,5,3.6,6.9   c1.6,4,2.4,6.3,2.4,6.3s-1.1-2.2-3-6c-1.1-1.8-2.3-4.1-4-6.5c-0.9-1.2-1.8-2.5-2.7-3.8c-1.1-1.3-2.2-2.6-3.3-4   c-2.4-2.7-5.1-5.5-8.3-8.2c-3.1-2.7-6.6-5.3-10.3-8c-1.9-1.3-3.8-2.5-5.8-3.7c-2-1.1-4-2.4-6.2-3.4c-4.2-2.2-8.6-4.3-13.1-6.1   c-8.9-3.8-18.1-6.8-27-9.1c-8.8-2.3-17.1-4.1-24.3-5.3C335,311.7,325.2,311,325.2,311z"/>
	<path style="fill:#FFFFFF;" d="M315.3,322.5c0,0,2.2,0.3,6,0.9c3.8,0.7,9.2,1.7,15.6,3.3c6.4,1.6,13.9,3.5,21.7,6   c3.9,1.3,8,2.6,12,4.1c4.1,1.5,8.2,3.1,12.2,4.8c8.1,3.5,16,7.4,23.1,11.8c3.6,2.1,6.9,4.4,9.9,6.7c3.1,2.2,5.9,4.5,8.3,6.8   c2.5,2.2,4.6,4.4,6.3,6.5c1.8,2,3.2,3.9,4.3,5.5c1.2,1.5,1.8,3,2.3,3.8c0.5,0.9,0.8,1.4,0.8,1.4s-0.3-0.4-0.9-1.3   c-0.6-0.8-1.4-2.1-2.7-3.5c-1.2-1.5-2.7-3.2-4.7-5c-0.9-1-2-1.9-3.1-2.9s-2.3-2-3.6-3c-2.5-2.1-5.4-4.2-8.5-6.2   c-3.1-2.1-6.5-4.1-10-6.1c-7.1-4-14.9-7.8-22.9-11.2c-8-3.5-16.2-6.5-23.9-9.3c-7.7-2.7-15-5.1-21.3-7s-11.5-3.5-15.2-4.5   C317.4,323.1,315.3,322.5,315.3,322.5z"/>
	<path style="fill:#FFFFFF;" d="M310.6,341.5c0,0,1.9,0.1,5.3,0.5c3.3,0.4,8.1,1,13.8,2.3c5.6,1.2,12.2,2.9,19.1,5.2   c3.4,1.2,7,2.5,10.5,4s7,3.2,10.5,5c3.4,1.8,6.7,3.9,10,6c3.2,2.2,6.2,4.5,8.9,6.8c5.6,4.8,10,10,13.3,14.8   c0.8,1.2,1.6,2.4,2.3,3.5c0.6,1.2,1.2,2.3,1.8,3.3c1.1,2.1,1.8,4,2.5,5.6c1.1,3.2,1.7,5,1.7,5s-0.8-1.7-2.3-4.8   c-0.9-1.4-1.7-3.3-3-5.2c-1.3-2-2.8-4.1-4.5-6.3c-1.8-2.2-3.8-4.6-6.1-6.8c-2.3-2.3-4.9-4.5-7.6-6.8c-2.7-2.2-5.8-4.3-8.8-6.4   c-3.1-2-6.4-4-9.7-5.7c-3.3-1.8-6.7-3.5-10.2-5c-3.4-1.5-6.8-3-10.2-4.2c-6.7-2.5-13-4.7-18.5-6.2s-10.1-2.8-13.4-3.5   C312.4,342,310.6,341.5,310.6,341.5z"/>
	<path style="fill:#FFFFFF;" d="M179.8,311c0,0-9.8,0.7-24.2,3.3c-7.2,1.2-15.5,3-24.3,5.3s-18.1,5.3-27,9.1   c-4.5,1.8-8.9,3.9-13.1,6.1c-2.1,1.1-4.1,2.3-6.2,3.4c-2,1.2-3.9,2.5-5.8,3.7c-3.7,2.6-7.2,5.2-10.3,8c-3.1,2.7-5.9,5.5-8.3,8.2   c-1.2,1.4-2.3,2.7-3.3,4s-1.9,2.6-2.7,3.8c-1.7,2.4-2.9,4.7-4,6.5c-1.9,3.8-3,6-3,6s0.8-2.3,2.4-6.3c1-1.9,2-4.3,3.6-6.9   c0.8-1.3,1.6-2.7,2.5-4.1c1-1.4,2.1-2.8,3.2-4.3c2.3-2.9,5-5.9,8.1-8.9s6.5-5.9,10.3-8.6c1.9-1.3,3.9-2.6,5.9-3.9   c2.1-1.2,4.1-2.5,6.3-3.6c4.3-2.3,8.7-4.5,13.3-6.4c9.1-3.7,18.6-6.6,27.6-8.8c4.5-1.1,8.9-1.9,13-2.6c4.2-0.7,8.1-1.3,11.8-1.7   c7.3-0.9,13.4-1.1,17.7-1.3C177.4,310.9,179.8,311,179.8,311z"/>
	<path style="fill:#FFFFFF;" d="M189.7,322.5c0,0-2.1,0.6-5.8,1.6s-8.9,2.6-15.2,4.5s-13.5,4.3-21.3,7c-7.7,2.7-15.9,5.8-23.9,9.3   c-8,3.4-15.8,7.2-22.9,11.2c-3.5,2-6.9,4-10,6.1c-3.1,2-6,4.1-8.5,6.2c-1.3,1-2.5,2-3.6,3s-2.2,1.9-3.1,2.9c-1.9,1.8-3.4,3.6-4.7,5   c-1.3,1.4-2.1,2.7-2.7,3.5s-0.9,1.3-0.9,1.3s0.3-0.5,0.8-1.4c0.6-0.9,1.2-2.3,2.3-3.8c1.1-1.6,2.5-3.5,4.3-5.5   c1.7-2,3.8-4.3,6.3-6.5c2.4-2.3,5.2-4.5,8.3-6.8c3-2.3,6.4-4.5,9.9-6.7c7.1-4.3,15-8.3,23.1-11.8c4.1-1.7,8.2-3.4,12.2-4.8   c4.1-1.5,8.1-2.8,12-4.1c7.9-2.5,15.3-4.4,21.7-6s11.8-2.5,15.6-3.3C187.5,322.8,189.7,322.5,189.7,322.5z"/>
	<path style="fill:#FFFFFF;" d="M194.4,341.5c0,0-1.9,0.4-5.2,1.1s-7.9,2-13.4,3.5s-11.9,3.7-18.5,6.2c-3.3,1.3-6.7,2.7-10.2,4.2   c-3.4,1.5-6.8,3.2-10.2,5s-6.6,3.7-9.7,5.7c-3.1,2.1-6.1,4.2-8.8,6.4c-2.7,2.2-5.3,4.5-7.6,6.8c-2.3,2.3-4.3,4.6-6.1,6.8   c-1.7,2.2-3.2,4.4-4.5,6.3s-2.2,3.8-3,5.2c-1.5,3-2.3,4.8-2.3,4.8s0.6-1.8,1.7-5c0.7-1.5,1.4-3.5,2.5-5.6c0.6-1,1.1-2.2,1.8-3.3   c0.7-1.1,1.5-2.3,2.3-3.5c3.3-4.8,7.8-10.1,13.3-14.8c2.8-2.4,5.8-4.7,8.9-6.8c3.2-2.1,6.5-4.1,10-6c3.4-1.8,7-3.5,10.5-5   s7-2.8,10.5-4c6.9-2.4,13.4-4,19.1-5.2c5.7-1.2,10.4-1.8,13.8-2.3C192.5,341.6,194.4,341.5,194.4,341.5z"/>
	<path style="fill:#FFFFFF;" d="M279.1,249.4c2,15.8,14.2,28,27.4,27.3c13.2-0.7,22.3-14,20.3-29.7c-2-15.8-14.2-28-27.4-27.3   C286.2,220.3,277.1,233.6,279.1,249.4z"/>
</g>
<path style="fill:#F9B54C;" d="M283,253.7c1.3,10.2,10.7,18.1,21,17.6s17.7-9.2,16.4-19.5c-1.3-10.2-10.7-18.1-21-17.6  C289.1,234.7,281.8,243.4,283,253.7z"/>
<path style="fill:#2B3B4E;" d="M292.3,253.2c0.6,5.2,5.4,9.2,10.7,8.9c5.2-0.3,9-4.7,8.3-9.9c-0.6-5.2-5.4-9.2-10.7-8.9  C295.3,243.6,291.6,248,292.3,253.2z"/>
<path style="fill:#FFFFFF;" d="M294.5,241.2c-1.4,2.4-0.1,4.9,3,5.6c3,0.7,6.7-0.6,8.1-2.9c1.4-2.4,0.1-4.9-3-5.6  C299.5,237.6,295.9,238.9,294.5,241.2z"/>
<path style="fill:#2B3B4E;" d="M277.1,209.1c0,0,3.7-1.6,8.7-2.9c1.2-0.4,2.6-0.5,4-0.9c1.4-0.1,2.8-0.5,4.3-0.5  c1.5-0.2,3-0.1,4.5,0s3,0.3,4.6,0.5c1.5,0.4,3.1,0.6,4.6,1.1c1.5,0.6,3,0.8,4.5,1.5c1.5,0.6,2.9,1.1,4.2,1.7  c1.3,0.7,2.6,1.2,3.9,1.8c2.5,1,4.5,2.2,6,2.8c1.5,0.7,2.5,1,2.5,1s-0.4-0.9-1.2-2.4c-0.4-0.7-0.9-1.6-1.6-2.6  c-0.6-1-1.4-2.1-2.4-3.2c-1-1.1-2.1-2.3-3.3-3.4c-1.3-1.1-2.8-2.1-4.3-3.2c-1.5-1.1-3.4-1.8-5.2-2.7c-1.8-0.9-3.9-1.2-5.9-1.7  c-2.1-0.2-4.2-0.5-6.3-0.4c-2.1,0.1-4.1,0.4-6,1c-1.9,0.4-3.6,1.3-5.2,2c-1.5,0.9-2.9,1.8-4.1,2.8c-2.4,1.8-3.9,3.9-4.9,5.3  C277.4,208.1,277.1,209.1,277.1,209.1z"/>
<path style="fill:#FFFFFF;" d="M225.9,249.4c-2,15.8-14.2,28-27.4,27.3s-22.3-14-20.3-29.7c2-15.8,14.2-28,27.4-27.3  C218.8,220.3,227.9,233.6,225.9,249.4z"/>
<path style="fill:#F9B54C;" d="M222,253.7c-1.3,10.2-10.7,18.1-21,17.6s-17.7-9.2-16.4-19.5c1.3-10.2,10.7-18.1,21-17.6  C215.9,234.7,223.2,243.4,222,253.7z"/>
<path style="fill:#2B3B4E;" d="M212.7,253.2c-0.6,5.2-5.4,9.2-10.7,8.9c-5.2-0.3-9-4.7-8.3-9.9c0.6-5.2,5.4-9.2,10.7-8.9  C209.7,243.6,213.4,248,212.7,253.2z"/>
<path style="fill:#FFFFFF;" d="M210.5,241.2c1.4,2.4,0.1,4.9-3,5.6c-3,0.7-6.7-0.6-8.1-2.9c-1.4-2.4-0.1-4.9,3-5.6  C205.5,237.6,209.1,238.9,210.5,241.2z"/>
<path style="fill:#2B3B4E;" d="M227.9,209.1c0,0-3.7-1.6-8.7-2.9c-1.2-0.4-2.6-0.5-4-0.9c-1.4-0.1-2.8-0.5-4.3-0.5  c-1.5-0.2-3-0.1-4.5,0s-3,0.3-4.6,0.5c-1.5,0.4-3.1,0.6-4.6,1.1c-1.5,0.6-3,0.8-4.5,1.5c-1.5,0.6-2.9,1.1-4.2,1.7  c-1.3,0.7-2.6,1.2-3.9,1.8c-2.5,1-4.5,2.2-6,2.8c-1.5,0.7-2.5,1-2.5,1s0.4-0.9,1.2-2.4c0.4-0.7,0.9-1.6,1.6-2.6  c0.6-1,1.4-2.1,2.4-3.2c1-1.1,2.1-2.3,3.3-3.4c1.3-1.1,2.8-2.1,4.3-3.2c1.5-1.1,3.4-1.8,5.2-2.7s3.9-1.2,5.9-1.7  c2.1-0.2,4.2-0.5,6.3-0.4s4.1,0.4,6,1c1.9,0.4,3.6,1.3,5.2,2c1.5,0.9,2.9,1.8,4.1,2.8c2.4,1.8,3.9,3.9,4.9,5.3  C227.6,208.1,227.9,209.1,227.9,209.1z"/>
<g>
</g>
<g>
</g>
<g>
</g>
<g>
</g>
<g>
</g>
<g>
</g>
<g>
</g>
<g>
</g>
<g>
</g>
<g>
</g>
<g>
</g>
<g>
</g>
<g>
</g>
<g>
</g>
<g>
</g>
</svg>
