<?xml version="1.0" encoding="iso-8859-1"?>
<!-- Generator: Adobe Illustrator 19.0.0, SVG Export Plug-In . SVG Version: 6.00 Build 0)  -->
<svg xmlns="http://www.w3.org/2000/svg" xmlns:xlink="http://www.w3.org/1999/xlink" version="1.1" id="Layer_1" x="0px" y="0px" viewBox="0 0 505 505" style="enable-background:new 0 0 505 505;" xml:space="preserve">
<circle style="fill:#84DBFF;" cx="252.5" cy="252.5" r="252.5"/>
<g>
	<path style="fill:#F9B54C;" d="M416.3,123.4c-70.7,0-128.1,57.3-128.1,128.1l0,0C359,251.5,416.3,194.1,416.3,123.4L416.3,123.4z"/>
	<path style="fill:#F9B54C;" d="M88.7,123.4c70.7,0,128.1,57.3,128.1,128.1l0,0C146,251.5,88.7,194.1,88.7,123.4L88.7,123.4z"/>
</g>
<path style="fill:#FFD05B;" d="M342.1,260.9v-5.7c0-49.5-40.1-89.6-89.6-89.6l0,0c-49.5,0-89.6,40.1-89.6,89.6v5.7  c0,21.7-6,42.8-16.1,62c-3.7,7.2-5.8,14.9-5.8,22.9c0,39.7,49.9,71.9,111.4,71.9s111.4-32.2,111.4-71.9c0-8-2-15.7-5.8-22.9  C348.1,303.6,342.1,282.6,342.1,260.9z"/>
<ellipse style="fill:#2B3B4E;" cx="252.5" cy="332.4" rx="56.9" ry="32.3"/>
<path style="fill:#F9B54C;" d="M297.8,373c-4.2,9-12.2,16.5-22.5,21c-6.8,3.1-14.6,4.7-22.8,4.7s-16-1.7-22.8-4.7  c-10.2-4.5-18.3-12-22.5-21c6.9,2,14.4,3.6,22.5,4.7c7.2,1,14.9,1.5,22.8,1.5s15.6-0.5,22.8-1.5C283.3,376.6,290.9,375,297.8,373z"/>
<path style="fill:#FF7058;" d="M275.3,377.6v22.6c0,12.6-10.2,22.8-22.8,22.8c-12.6,0-22.8-10.2-22.8-22.8v-22.6  c7.2,1,14.9,1.5,22.8,1.5S268.1,378.6,275.3,377.6z"/>
<path style="fill:#FFFFFF;" d="M271.6,253.4c1.5,12.3,11.1,21.9,21.5,21.4c10.3-0.5,17.4-10.9,15.9-23.3  c-1.5-12.3-11.1-21.9-21.5-21.4C277.1,230.6,270,241,271.6,253.4z"/>
<path style="fill:#84DBFF;" d="M274.6,256.7c1,8,8.4,14.2,16.4,13.8c8.1-0.4,13.8-7.2,12.8-15.2s-8.4-14.2-16.4-13.8  C279.4,241.9,273.6,248.7,274.6,256.7z"/>
<path style="fill:#2B3B4E;" d="M281.9,256.4c0.5,4.1,4.2,7.2,8.3,7c4.1-0.2,7-3.7,6.5-7.7c-0.5-4.1-4.2-7.2-8.3-7  C284.3,248.9,281.4,252.3,281.9,256.4z"/>
<path style="fill:#FFFFFF;" d="M283.6,247c-1.1,1.8-0.1,3.8,2.3,4.4c2.4,0.6,5.2-0.4,6.3-2.3c1.1-1.8,0.1-3.8-2.3-4.4  S284.7,245.2,283.6,247z"/>
<path style="fill:#324A5E;" d="M270,221.8c0,0,2.9-1.2,6.8-2.2c1-0.3,2.1-0.4,3.1-0.7c1.1-0.1,2.2-0.4,3.4-0.4  c1.2-0.1,2.3-0.1,3.5,0c1.2,0,2.4,0.3,3.6,0.4c1.2,0.3,2.4,0.4,3.6,0.9c1.1,0.5,2.4,0.6,3.5,1.2c1.2,0.5,2.3,0.9,3.3,1.3  c1,0.5,2.1,1,3,1.4c2,0.8,3.5,1.7,4.7,2.2s2,0.8,2,0.8s-0.3-0.7-0.9-1.9c-0.3-0.6-0.7-1.3-1.2-2.1s-1.1-1.7-1.9-2.5  s-1.6-1.8-2.6-2.7s-2.2-1.7-3.4-2.5c-1.2-0.9-2.7-1.4-4.1-2.1c-1.4-0.7-3.1-0.9-4.7-1.4c-1.6-0.2-3.3-0.4-4.9-0.3  c-1.6,0.1-3.2,0.3-4.7,0.8c-1.5,0.3-2.8,1-4.1,1.6c-1.2,0.7-2.3,1.4-3.2,2.2c-1.9,1.4-3.1,3-3.8,4.2  C270.2,221.1,270,221.8,270,221.8z"/>
<path style="fill:#FFFFFF;" d="M233.4,253.4c-1.5,12.3-11.1,21.9-21.5,21.4c-10.3-0.5-17.4-10.9-15.9-23.3  c1.5-12.3,11.1-21.9,21.5-21.4C227.9,230.6,235,241,233.4,253.4z"/>
<path style="fill:#84DBFF;" d="M230.4,256.7c-1,8-8.4,14.2-16.4,13.8c-8.1-0.4-13.8-7.2-12.8-15.2s8.4-14.2,16.4-13.8  C225.6,241.9,231.4,248.7,230.4,256.7z"/>
<path style="fill:#2B3B4E;" d="M223.1,256.4c-0.5,4.1-4.2,7.2-8.3,7s-7-3.7-6.5-7.7c0.5-4.1,4.2-7.2,8.3-7  C220.7,248.9,223.6,252.3,223.1,256.4z"/>
<path style="fill:#FFFFFF;" d="M221.4,247c1.1,1.8,0.1,3.8-2.3,4.4c-2.4,0.6-5.2-0.4-6.3-2.3c-1.1-1.8-0.1-3.8,2.3-4.4  S220.3,245.2,221.4,247z"/>
<path style="fill:#324A5E;" d="M235,221.8c0,0-2.9-1.2-6.8-2.2c-1-0.3-2.1-0.4-3.1-0.7c-1.1-0.1-2.2-0.4-3.4-0.4  c-1.2-0.1-2.3-0.1-3.5,0c-1.2,0-2.4,0.3-3.6,0.4c-1.2,0.3-2.4,0.4-3.6,0.9c-1.1,0.5-2.4,0.6-3.5,1.2c-1.2,0.5-2.3,0.9-3.3,1.3  c-1,0.5-2.1,1-3,1.4c-2,0.8-3.5,1.7-4.7,2.2s-2,0.8-2,0.8s0.3-0.7,0.9-1.9c0.3-0.6,0.7-1.3,1.2-2.1s1.1-1.7,1.9-2.5  c0.8-0.8,1.6-1.8,2.6-2.7s2.2-1.7,3.4-2.5c1.2-0.9,2.7-1.4,4.1-2.1c1.4-0.7,3.1-0.9,4.7-1.4c1.6-0.2,3.3-0.4,4.9-0.3  c1.6,0.1,3.2,0.3,4.7,0.8c1.5,0.3,2.8,1,4.1,1.6c1.2,0.7,2.3,1.4,3.2,2.2c1.9,1.4,3.1,3,3.8,4.2C234.8,221.1,235,221.8,235,221.8z"/>
<g>
</g>
<g>
</g>
<g>
</g>
<g>
</g>
<g>
</g>
<g>
</g>
<g>
</g>
<g>
</g>
<g>
</g>
<g>
</g>
<g>
</g>
<g>
</g>
<g>
</g>
<g>
</g>
<g>
</g>
</svg>
