<?xml version="1.0" encoding="iso-8859-1"?>
<!-- Generator: Adobe Illustrator 19.0.0, SVG Export Plug-In . SVG Version: 6.00 Build 0)  -->
<svg xmlns="http://www.w3.org/2000/svg" xmlns:xlink="http://www.w3.org/1999/xlink" version="1.1" id="Layer_1" x="0px" y="0px" viewBox="0 0 505 505" style="enable-background:new 0 0 505 505;" xml:space="preserve">
<circle style="fill:#FD8469;" cx="252.5" cy="252.5" r="252.5"/>
<path style="fill:#F9B54C;" d="M391.6,393.9c0,27-3.8,52.7-10.8,76.1c-37.6,22.3-81.4,35-128.3,35c-46.8,0-90.7-12.8-128.3-35  c-6.9-23.4-10.8-49.1-10.8-76.1c0-108.7,62.3-196.7,139.1-196.7S391.6,285.3,391.6,393.9z"/>
<circle style="fill:#FFD05B;" cx="252.5" cy="216.5" r="138.1"/>
<g>
	<circle style="fill:#FFFFFF;" cx="310.7" cy="201.2" r="29.3"/>
	<circle style="fill:#FFFFFF;" cx="194.3" cy="201.2" r="29.3"/>
</g>
<g>
	<circle style="fill:#84DBFF;" cx="311.9" cy="204.4" r="15"/>
	<circle style="fill:#84DBFF;" cx="311.9" cy="204.4" r="16.4"/>
</g>
<circle style="fill:#324A5E;" cx="311.2" cy="203.7" r="9.8"/>
<circle style="fill:#FFFFFF;" cx="305.2" cy="196.7" r="3.9"/>
<circle style="fill:#84DBFF;" cx="194.3" cy="204.4" r="16.4"/>
<circle style="fill:#324A5E;" cx="193.6" cy="203.7" r="9.8"/>
<circle style="fill:#FFFFFF;" cx="187.6" cy="196.7" r="3.9"/>
<path style="fill:#324A5E;" d="M288.8,266.9c1.4,6.8,2.3,13.8,2.7,21c-4.9-3.4-10.1-5.2-15.2-5.2c-9.6,0-18,6.6-23.8,17.8  c-5.8-11.2-14.2-17.8-23.8-17.8c-5.1,0-10.3,1.8-15.2,5.2c0.4-7.2,1.3-14.3,2.7-21c6.4-31.8,21.9-50.4,36.3-50.4  S282.4,235.1,288.8,266.9z"/>
<g>
</g>
<g>
</g>
<g>
</g>
<g>
</g>
<g>
</g>
<g>
</g>
<g>
</g>
<g>
</g>
<g>
</g>
<g>
</g>
<g>
</g>
<g>
</g>
<g>
</g>
<g>
</g>
<g>
</g>
</svg>
