<?xml version="1.0" encoding="iso-8859-1"?>
<!-- Generator: Adobe Illustrator 19.0.0, SVG Export Plug-In . SVG Version: 6.00 Build 0)  -->
<svg xmlns="http://www.w3.org/2000/svg" xmlns:xlink="http://www.w3.org/1999/xlink" version="1.1" id="Layer_1" x="0px" y="0px" viewBox="0 0 505 505" style="enable-background:new 0 0 505 505;" xml:space="preserve">
<circle style="fill:#4CDBC4;" cx="252.5" cy="252.5" r="252.5"/>
<circle style="fill:#CED5E0;" cx="378" cy="207.5" r="65.2"/>
<circle style="fill:#ACB3BA;" cx="363.5" cy="222" r="44.3"/>
<circle style="fill:#CED5E0;" cx="127" cy="207.5" r="65.2"/>
<circle style="fill:#ACB3BA;" cx="141.5" cy="222" r="44.3"/>
<path style="fill:#E6E9EE;" d="M402.6,324.7c0-21.7-13.3-41.5-35.3-56.8c-14.7-10.2-25.7-23.5-32.1-38.5  c-13.6-32-45.5-54.6-82.7-54.6c-37.3,0-69.2,22.5-82.7,54.6c-6.3,15-17.4,28.3-32.1,38.5c-22,15.4-35.3,35.2-35.3,56.8  c0,34.3,33.2,64,81.8,78.6c11.6,3.5,22.4,8.4,32,14.7c9.4,6.1,22.2,9.9,36.2,9.9c14.1,0,26.8-3.8,36.2-9.9  c9.7-6.3,20.5-11.2,32-14.7C369.3,388.7,402.6,359,402.6,324.7z"/>
<g>
	<circle style="fill:#324A5E;" cx="293.4" cy="274.4" r="12.3"/>
	<circle style="fill:#324A5E;" cx="211.6" cy="274.4" r="12.3"/>
	<path style="fill:#324A5E;" d="M273.2,320.6c0,16.7-9.3,16.4-20.7,16.4c-11.5,0-20.7,0.2-20.7-16.4c0-16.7,9.3-43.9,20.7-43.9   C264,276.6,273.2,303.9,273.2,320.6z"/>
	<path style="fill:#324A5E;" d="M297.9,351.6c-7.3,17.9-24.9,30.6-45.4,30.6s-38.1-12.6-45.4-30.6c12.6,6.6,28.3,10.5,45.4,10.5   C269.6,362,285.3,358.1,297.9,351.6z"/>
</g>
<g>
</g>
<g>
</g>
<g>
</g>
<g>
</g>
<g>
</g>
<g>
</g>
<g>
</g>
<g>
</g>
<g>
</g>
<g>
</g>
<g>
</g>
<g>
</g>
<g>
</g>
<g>
</g>
<g>
</g>
</svg>
