<?xml version="1.0" encoding="iso-8859-1"?>
<!-- Generator: Adobe Illustrator 19.0.0, SVG Export Plug-In . SVG Version: 6.00 Build 0)  -->
<svg xmlns="http://www.w3.org/2000/svg" xmlns:xlink="http://www.w3.org/1999/xlink" version="1.1" id="Layer_1" x="0px" y="0px" viewBox="0 0 505 505" style="enable-background:new 0 0 505 505;" xml:space="preserve">
<circle style="fill:#324A5E;" cx="252.5" cy="252.5" r="252.5"/>
<path style="fill:#84DBFF;" d="M419,97.3c-15.7,2.5-31.4,5.1-46.3,10.6c-14.9,5.4-29.1,14-38.7,26.6c-10.3,13.5-14.8,30.5-17.4,47.3  s-3.6,33.9-8.2,50.2c-4.1,14.6-11.5,28.8-23.3,38.1h29.6c1.9-2.6,3.9-5.2,6.1-7.6c13-14.1,31.5-21.8,46.7-33.6  c25.1-19.5,40.4-51.2,40-83c-0.1-9.5-1.5-19.1,0.9-28.3C410.3,110.1,414.7,103.6,419,97.3z"/>
<path style="fill:#54C0EB;" d="M384.8,128.5c1.5,7.1,2.3,14.4,2.5,21.6c0.2,10.7-3.9,20.6-7.5,30.7c-12.2,34.7-58.2,65.9-60.7,69.3  c-3.9,5.2-9.2,9.2-14.3,13.2c-6.4,4.9-13,9.9-20.9,11.5c3.6,0.2,5.5-4.1,7.8-6.9c1.7-2,4-3.4,6.1-5c12.7-9.3,20.6-24.1,24.9-39.2  c4.4-15.4,5.5-31.6,9.6-47.1s11.8-31.1,25.5-39.4C365.9,132.3,375.4,130.3,384.8,128.5z"/>
<path style="fill:#84DBFF;" d="M86,97.3c15.7,2.5,31.4,5.1,46.3,10.6c14.9,5.4,29.1,14,38.7,26.6c10.3,13.5,14.8,30.5,17.4,47.3  c2.6,16.8,3.6,33.9,8.2,50.2c4.1,14.6,11.5,28.8,23.3,38.1h-29.6c-1.9-2.6-3.9-5.2-6.1-7.6c-13-14.1-31.5-21.8-46.7-33.6  c-25.1-19.5-40.4-51.2-40-83c0.1-9.5,1.5-19.1-0.9-28.3C94.7,110.1,90.3,103.6,86,97.3z"/>
<path style="fill:#54C0EB;" d="M120.2,128.5c-1.5,7.1-2.3,14.4-2.5,21.6c-0.2,10.7,3.9,20.6,7.5,30.7c12.2,34.7,58.2,65.9,60.7,69.3  c3.9,5.2,9.2,9.2,14.3,13.2c6.4,4.9,13,9.9,20.9,11.5c-3.6,0.2-5.5-4.1-7.8-6.9c-1.7-2-4-3.4-6.1-5c-12.7-9.3-20.6-24.1-24.9-39.2  c-4.4-15.4-5.5-31.6-9.6-47.1s-11.8-31.1-25.5-39.4C139.1,132.3,129.6,130.3,120.2,128.5z"/>
<path style="fill:#84DBFF;" d="M166.2,361.5h182.7c-7.7-16.5-9.3-29.5-9.4-36.9c0.2-2.2,0.3-4.4,0.3-6.6c0-45.4-36.8-82.2-82.2-82.2  s-82.2,36.8-82.2,82.2c0,2.2,0.2,4.4,0.3,6.6C175.5,332,173.9,345.1,166.2,361.5z"/>
<path style="fill:#FFFFFF;" d="M317.3,319.2c4.6,19.5-0.7,37.4-11.8,40.1c-11.1,2.6-23.9-11-28.5-30.5s0.7-37.4,11.8-40.1  C299.9,286.1,312.7,299.7,317.3,319.2z"/>
<ellipse style="fill:#84DBFF;" cx="297.1" cy="326.8" rx="13.3" ry="14.6"/>
<ellipse style="fill:#324A5E;" cx="297.7" cy="328.9" rx="8.9" ry="9.8"/>
<g>
	<circle style="fill:#FFFFFF;" cx="292" cy="320.8" r="3.2"/>
	<circle style="fill:#FFFFFF;" cx="296.4" cy="325.2" r="1.3"/>
</g>
<path style="fill:#324A5E;" d="M311.6,302.7c0.5,0.1,1.1,0.1,1.6,0.1c1.9,0.1,3.6-0.6,3.6-0.6s-1.8,0.2-3.5-0.4  c-0.8-0.2-1.6-0.6-2.2-0.9c-0.2-0.1-0.4-0.2-0.6-0.3c-0.2-0.3-0.3-0.6-0.5-1s-0.5-0.9-0.8-1.3c0.4,0,0.9,0.1,1.3,0.1  c1.3,0,2.5-0.2,3.4-0.4c0.9-0.2,1.4-0.5,1.4-0.5s-0.6,0.1-1.5,0c-0.9,0-2-0.2-3.1-0.6c-1.1-0.3-2.1-0.8-2.9-1.2  c-0.3-0.2-0.6-0.3-0.8-0.4c-0.4-0.6-0.9-1.1-1.4-1.7c0.4,0,0.7,0.1,1.1,0.1c1.9,0.1,3.8-0.1,5.1-0.3c1.4-0.3,2.2-0.6,2.2-0.6  s-0.9,0.2-2.3,0.2s-3.1-0.2-4.9-0.7c-1.7-0.4-3.2-1-4.4-1.6c-2.5-2-5.5-3.6-9-4.1c-2.1-0.3-4.3,0-6.2,0.6c-2.1,0.7-3.8,1.9-5.2,3.2  c-2.8,2.7-4.3,5.9-5.1,8.7c-0.9,2.8-1.1,5.2-1.2,6.8c-0.1,1.6,0,2.6,0,2.6s0.3-0.9,0.8-2.4s1.3-3.7,2.5-6.1s2.9-5,5.3-7  c1.2-1,2.6-1.7,4-2.2c1.6-0.5,3.1-0.6,4.7-0.3c1.6,0.2,3.2,0.7,4.6,1.4c1.5,0.8,2.9,1.6,4.2,2.7c2.6,2,4.7,4.3,6.4,6.4  c1.7,2.1,3.1,4,4,5.3c0.9,1.4,1.4,2.1,1.4,2.1s-0.2-0.9-0.7-2.5C312.5,305.1,312.1,304,311.6,302.7z"/>
<path style="fill:#FFFFFF;" d="M197.7,319.2c-4.6,19.5,0.7,37.4,11.8,40.1c11.1,2.6,23.9-11,28.5-30.5s-0.7-37.4-11.8-40.1  C215.1,286.1,202.3,299.7,197.7,319.2z"/>
<ellipse style="fill:#84DBFF;" cx="217.8" cy="326.8" rx="13.3" ry="14.6"/>
<ellipse style="fill:#324A5E;" cx="217.3" cy="328.9" rx="8.9" ry="9.8"/>
<g>
	<circle style="fill:#FFFFFF;" cx="223" cy="320.8" r="3.2"/>
	<circle style="fill:#FFFFFF;" cx="218.5" cy="325.2" r="1.3"/>
</g>
<path style="fill:#324A5E;" d="M203.4,302.7c-0.5,0.1-1.1,0.1-1.6,0.1c-1.9,0.1-3.6-0.6-3.6-0.6s1.8,0.2,3.5-0.4  c0.8-0.2,1.6-0.6,2.2-0.9c0.2-0.1,0.4-0.2,0.6-0.3c0.2-0.3,0.3-0.6,0.5-1s0.5-0.9,0.8-1.3c-0.4,0-0.9,0.1-1.3,0.1  c-1.3,0-2.5-0.2-3.4-0.4c-0.9-0.2-1.4-0.5-1.4-0.5s0.6,0.1,1.5,0c0.9,0,2-0.2,3.1-0.6c1.1-0.3,2.1-0.8,2.9-1.2  c0.3-0.2,0.6-0.3,0.8-0.4c0.4-0.6,0.9-1.1,1.4-1.7c-0.4,0-0.7,0.1-1.1,0.1c-1.9,0.1-3.8-0.1-5.1-0.3c-1.4-0.3-2.2-0.6-2.2-0.6  s0.9,0.2,2.3,0.2c1.4,0,3.1-0.2,4.9-0.7c1.7-0.4,3.2-1,4.4-1.6c2.5-2,5.5-3.6,9-4.1c2.1-0.3,4.3,0,6.2,0.6c2.1,0.7,3.8,1.9,5.2,3.2  c2.8,2.7,4.3,5.9,5.1,8.7c0.9,2.8,1.1,5.2,1.2,6.8c0.1,1.6,0,2.6,0,2.6s-0.3-0.9-0.8-2.4s-1.3-3.7-2.5-6.1s-2.9-5-5.3-7  c-1.2-1-2.6-1.7-4-2.2c-1.6-0.5-3.1-0.6-4.7-0.3c-1.6,0.2-3.2,0.7-4.6,1.4c-1.5,0.8-2.9,1.6-4.2,2.7c-2.6,2-4.7,4.3-6.4,6.4  s-3.1,4-4,5.3c-0.9,1.4-1.4,2.1-1.4,2.1s0.2-0.9,0.7-2.5C202.4,305.1,202.8,304,203.4,302.7z"/>
<path style="fill:#E6E9EE;" d="M353.2,366.8l7.1,3.2c-15.3-42.3-74.7-20.7-102.8-7.6c-28.1-13.1-87.6-34.8-102.8,7.6l7.1-3.2  c0,0-14.6,16.5-4.9,39.5l3.4-8.5c0,0-0.4,21.8,12.7,34.3l3.4-9.3c0,0-2.7,11.4,26.1,23.5c8.3,3.5,17.3,5.5,26.3,6.5  c3.6,0.4,8.1,1.3,13.1,3.1c10,3.6,21.2,3.6,31.2,0c5-1.8,9.5-2.7,13.1-3.1c9.1-1,18-3,26.3-6.5c28.8-12.1,26.1-23.5,26.1-23.5  l3.4,9.3c13.1-12.5,12.7-34.3,12.7-34.3l3.4,8.5C367.8,383.3,353.2,366.8,353.2,366.8z"/>
<g>
	<path style="fill:#324A5E;" d="M277.1,356c0,7.6-8.8,19.3-19.6,19.3c-10.8,0-19.6-11.7-19.6-19.3s8.8-8.3,19.6-8.3   C268.3,347.8,277.1,348.4,277.1,356z"/>
	<path style="fill:#324A5E;" d="M278.5,404.7c0,6.9-2,13.2-5.3,18.1c-3.8,5.8-9.5,9.4-15.8,9.4s-12-3.6-15.8-9.4   c-3.3-4.8-5.3-11.1-5.3-18.1c0-0.7,0-1.3,0-1.9c0.3,0,0.6,0.1,0.9,0.1c7.3,0.2,13.7-1,18.9-6.5h2.3c0.1,0.2,0.2,0.3,0.3,0.4   c5,5.3,12.9,7,19.6,4.7C278.5,402.6,278.5,403.6,278.5,404.7z"/>
</g>
<path style="fill:#FF7058;" d="M273.3,422.7c-3.8,5.8-9.5,9.4-15.8,9.4s-12-3.6-15.8-9.4c4.6-6.4,10.3-9.8,14.2-8  c0.6,0.3,1.1,0.7,1.6,1.1c0.5-0.5,1-0.8,1.6-1.1C263,413,268.7,416.3,273.3,422.7z"/>
<path style="fill:#FFFFFF;" d="M257.5,396.8L257.5,396.8c-2.6,3.3-7,5.2-11.4,5.7l-0.6,0.3l3.7,20.7c0.1,0.7,0.7,1.2,1.5,1.2h5.4  c0.8,0,1.5-0.7,1.5-1.5c0,0.8,0.7,1.5,1.5,1.5h5.4c0.7,0,1.3-0.5,1.5-1.2l3.6-20.2C265.1,402.8,260.8,400.1,257.5,396.8z"/>
<path style="fill:#ACB3BA;" d="M295.1,382.6c0.2,2.2,0,4.4-0.5,6.6s-1.4,4.3-2.6,6.2c-2.5,3.8-6.2,6.9-10.5,8.6  c-1.1,0.4-2.2,0.8-3.3,1c-1.1,0.3-2.3,0.4-3.5,0.4c-0.6,0.1-1.2,0-1.7,0c-0.6,0-1.2-0.1-1.8-0.1c-1.2-0.1-2.3-0.4-3.5-0.7  c-4.6-1.3-8.7-4-11.6-7.8h3.1c-3,3.7-7.1,6.5-11.7,7.8c-2.3,0.6-4.6,0.9-7,0.8c-1,0-2.2-0.2-3.4-0.4c-1.2-0.3-2.3-0.6-3.4-1  c-4.3-1.7-8.1-4.7-10.5-8.6c-1.2-1.9-2.1-4-2.6-6.2s-0.7-4.4-0.5-6.6c0.5,4.3,2,8.5,4.7,11.6c2.6,3.3,6.1,5.7,10,6.8  c0.9,0.3,2,0.5,2.9,0.6l1.4,0.2h1.6c1.9,0,4-0.3,5.8-0.9c3.8-1.2,7.2-3.5,9.6-6.6c0.7-0.9,1.9-1,2.7-0.4c0.1,0.1,0.3,0.2,0.4,0.4  c2.4,3.1,5.8,5.4,9.6,6.6c0.9,0.3,1.9,0.5,2.9,0.7c0.5,0.1,0.9,0.1,1.4,0.2c0.6,0,1,0.1,1.5,0c1,0,2-0.1,3-0.2s2-0.3,2.9-0.6  c3.9-1.1,7.4-3.6,10-6.8C293.1,391,294.6,386.9,295.1,382.6z"/>
<g>
</g>
<g>
</g>
<g>
</g>
<g>
</g>
<g>
</g>
<g>
</g>
<g>
</g>
<g>
</g>
<g>
</g>
<g>
</g>
<g>
</g>
<g>
</g>
<g>
</g>
<g>
</g>
<g>
</g>
</svg>
