<?xml version="1.0" encoding="iso-8859-1"?>
<!-- Generator: Adobe Illustrator 19.0.0, SVG Export Plug-In . SVG Version: 6.00 Build 0)  -->
<svg xmlns="http://www.w3.org/2000/svg" xmlns:xlink="http://www.w3.org/1999/xlink" version="1.1" id="Layer_1" x="0px" y="0px" viewBox="0 0 505 505" style="enable-background:new 0 0 505 505;" xml:space="preserve">
<circle style="fill:#54C0EB;" cx="252.5" cy="252.5" r="252.5"/>
<ellipse style="fill:#ACB3BA;" cx="252.5" cy="382.1" rx="66" ry="35"/>
<path style="fill:#FFFFFF;" d="M344.9,326.6c-3.1-21,0.6-42.2,9.8-61.3c7.3-15.1,11.4-32.1,11.4-50c0-63.3-50.8-114.6-113.5-114.6  S139.1,152,139.1,215.3c0,17.9,4.1,34.9,11.4,50c9.2,19.1,12.9,40.3,9.8,61.3c-0.1,0.6-0.2,1.1-0.2,1.7  c-7.9,56.9,13.3,76.3,42.2,80.4c19.9,2.8,38.3-2.5,50.4-24.6c12.1,22.1,30.5,27.4,50.4,24.6c28.9-4,50.1-23.4,42.2-80.4  C345.1,327.7,345,327.1,344.9,326.6z"/>
<g>
	<path style="fill:#324A5E;" d="M284.4,330.2c0,17.6-14.3,31.9-31.9,31.9s-31.9-14.3-31.9-31.9s14.3-18.7,31.9-18.7   S284.4,312.6,284.4,330.2z"/>
	<path style="fill:#324A5E;" d="M321,127c14.5,15.9,31.4,32.1,36.5,53c8.9,35.9-4.7,56.3,1.3,92.8c1.3,7.9,14.4,38.7,22.1,40.5   c18.7-4,31.5-92.6,35.9-109.2C439.3,121.1,351.5,112,321,127z"/>
	<path style="fill:#324A5E;" d="M184,127c-14.5,15.9-31.4,32.1-36.5,53c-8.9,35.9,4.7,56.3-1.3,92.8c-1.3,7.9-14.4,38.7-22.1,40.5   c-18.7-4-31.5-92.6-35.9-109.2C65.7,121.1,153.5,112,184,127z"/>
</g>
<g>
	<path style="fill:#E6E9EE;" d="M347.4,198.3c-3.2-5.9-6.3-11.7-9.5-17.6c-2.4-4.5-4.9-9-8.4-12.7c-3.7-3.8-8.3-6.6-13-9   c-4.3-2.1-8.7-4-13.5-4.5c-11.7-1.2-22.8,6.6-28.9,16.7c-6,10.1-7.9,22-9.1,33.7c-3.1,30.7-2.5,61.7-1.9,92.6   c0-17.6,5.1-35.2,14.6-50.1c0.2,4.8,0.3,9.6,0.5,14.3c2.3-5.7,8.8-9.5,15-8.6c7,1,12.5,7.1,19.6,7.7c6.6,0.6,12.9-4,16.2-9.7   c3.4-5.7,4.5-12.5,5.7-19c1.2-6.6,2.6-13.3,6.4-18.8c1.2-1.8,2.8-3.5,4.8-4.2s4.7-0.3,5.9,1.5c0.6-3.8-0.2-7.9-2.4-11.1"/>
	<path style="fill:#E6E9EE;" d="M157.6,198.3c3.2-5.9,6.3-11.7,9.5-17.6c2.4-4.5,4.9-9,8.4-12.7c3.7-3.8,8.3-6.6,13-9   c4.3-2.1,8.7-4,13.5-4.5c11.7-1.2,22.8,6.6,28.9,16.7c6,10.1,7.9,22,9.1,33.7c3.1,30.7,2.5,61.7,1.9,92.6   c0-17.6-5.1-35.2-14.6-50.1c-0.2,4.8-0.3,9.6-0.5,14.3c-2.3-5.7-8.8-9.5-15-8.6c-7,1-12.5,7.1-19.6,7.7c-6.6,0.6-12.9-4-16.2-9.7   c-3.4-5.7-4.5-12.5-5.7-19c-1.2-6.6-2.6-13.3-6.4-18.8c-1.2-1.8-2.8-3.5-4.8-4.2s-4.7-0.3-5.9,1.5c-0.6-3.8,0.2-7.9,2.4-11.1"/>
</g>
<path style="fill:#FFFFFF;" d="M282.1,220.8c1.7,13.9,12.5,24.6,24.1,24s19.6-12.3,17.8-26.1c-1.7-13.9-12.5-24.6-24.1-24  C288.4,195.2,280.4,207,282.1,220.8z"/>
<path style="fill:#F9B54C;" d="M285.6,224.6c1.1,9,9.4,15.9,18.5,15.5c9.1-0.5,15.5-8.1,14.4-17.1s-9.4-15.9-18.5-15.5  S284.5,215.6,285.6,224.6z"/>
<path style="fill:#2B3B4E;" d="M293.7,224.2c0.6,4.6,4.8,8.1,9.4,7.8c4.6-0.2,7.9-4.1,7.3-8.7c-0.6-4.6-4.8-8.1-9.4-7.8  S293.1,219.6,293.7,224.2z"/>
<path style="fill:#FFFFFF;" d="M295.6,213.7c-1.2,2.1-0.1,4.3,2.6,4.9c2.7,0.6,5.9-0.5,7.1-2.6s0.1-4.3-2.6-4.9  C300,210.4,296.9,211.6,295.6,213.7z"/>
<path style="fill:#324A5E;" d="M280.4,185.4c0,0,3.2-1.4,7.6-2.5c1.1-0.3,2.3-0.5,3.5-0.8c1.3-0.1,2.5-0.4,3.8-0.4  c1.3-0.1,2.6-0.1,4,0c1.3,0,2.7,0.3,4,0.5c1.3,0.4,2.7,0.5,4,1s2.7,0.7,3.9,1.3c1.3,0.5,2.5,1,3.7,1.5c1.2,0.6,2.3,1.1,3.4,1.5  c2.2,0.9,3.9,2,5.3,2.5c1.4,0.6,2.2,0.9,2.2,0.9s-0.3-0.8-1.1-2.1c-0.4-0.6-0.8-1.5-1.4-2.3c-0.6-0.9-1.2-1.9-2.1-2.8  c-0.9-1-1.8-2-2.9-3s-2.5-1.9-3.8-2.8c-1.3-1-3-1.6-4.6-2.4c-1.6-0.8-3.5-1-5.2-1.5c-1.8-0.2-3.7-0.5-5.5-0.3  c-1.8,0.1-3.6,0.3-5.3,0.9c-1.7,0.4-3.2,1.2-4.6,1.8c-1.3,0.8-2.6,1.5-3.6,2.4c-2.1,1.6-3.4,3.4-4.3,4.7  C280.7,184.5,280.4,185.4,280.4,185.4z"/>
<path style="fill:#FFFFFF;" d="M222.9,220.8c-1.7,13.9-12.5,24.6-24.1,24s-19.6-12.3-17.8-26.1c1.7-13.9,12.5-24.6,24.1-24  C216.6,195.2,224.6,207,222.9,220.8z"/>
<path style="fill:#F9B54C;" d="M219.4,224.6c-1.1,9-9.4,15.9-18.5,15.5c-9.1-0.5-15.5-8.1-14.4-17.1s9.4-15.9,18.5-15.5  S220.5,215.6,219.4,224.6z"/>
<path style="fill:#2B3B4E;" d="M211.3,224.2c-0.6,4.6-4.8,8.1-9.4,7.8s-7.9-4.1-7.3-8.7s4.8-8.1,9.4-7.8S211.9,219.6,211.3,224.2z"/>
<path style="fill:#FFFFFF;" d="M209.4,213.7c1.2,2.1,0.1,4.3-2.6,4.9c-2.7,0.6-5.9-0.5-7.1-2.6c-1.2-2.1-0.1-4.3,2.6-4.9  C205,210.4,208.1,211.6,209.4,213.7z"/>
<path style="fill:#324A5E;" d="M224.6,185.4c0,0-3.2-1.4-7.6-2.5c-1.1-0.3-2.3-0.5-3.5-0.8c-1.3-0.1-2.5-0.4-3.8-0.4  c-1.3-0.1-2.6-0.1-4,0c-1.3,0-2.7,0.3-4,0.5c-1.3,0.4-2.7,0.5-4,1s-2.7,0.7-3.9,1.3c-1.3,0.5-2.5,1-3.7,1.5  c-1.2,0.6-2.3,1.1-3.4,1.5c-2.2,0.9-3.9,2-5.3,2.5c-1.4,0.6-2.2,0.9-2.2,0.9s0.3-0.8,1.1-2.1c0.4-0.6,0.8-1.5,1.4-2.3  c0.6-0.9,1.2-1.9,2.1-2.8c0.9-1,1.8-2,2.9-3c1.1-1,2.5-1.9,3.8-2.8c1.3-1,3-1.6,4.6-2.4c1.6-0.8,3.5-1,5.2-1.5  c1.8-0.2,3.7-0.5,5.5-0.3c1.8,0.1,3.6,0.3,5.3,0.9c1.7,0.4,3.2,1.2,4.6,1.8c1.3,0.8,2.6,1.5,3.6,2.4c2.1,1.6,3.4,3.4,4.3,4.7  C224.3,184.5,224.6,185.4,224.6,185.4z"/>
<g>
</g>
<g>
</g>
<g>
</g>
<g>
</g>
<g>
</g>
<g>
</g>
<g>
</g>
<g>
</g>
<g>
</g>
<g>
</g>
<g>
</g>
<g>
</g>
<g>
</g>
<g>
</g>
<g>
</g>
</svg>
