<?xml version="1.0" encoding="iso-8859-1"?>
<!-- Generator: Adobe Illustrator 19.0.0, SVG Export Plug-In . SVG Version: 6.00 Build 0)  -->
<svg xmlns="http://www.w3.org/2000/svg" xmlns:xlink="http://www.w3.org/1999/xlink" version="1.1" id="Layer_1" x="0px" y="0px" viewBox="0 0 505 505" style="enable-background:new 0 0 505 505;" xml:space="preserve">
<circle style="fill:#324A5E;" cx="252.5" cy="252.5" r="252.5"/>
<g>
	<path style="fill:#F9B54C;" d="M390.3,138.4c1.9,6.6-1.6,14.4-7.9,17.3c-1.2,0.6-2.6,0.9-3.7,1.6c-2.7,1.5-4.4,4.2-6,6.9   c-1.8-3.7-3.6-7.4-5.6-10.9c-6.3-11-15.1-20.3-23.8-29.5c-2.6-2.7-5.2-5.5-8-8.1c10.6-3.8,20.6-9.4,30.2-15.3   c3.2-1.9,6.3-3.8,9.3-6c4.6-3.3,8.9-7.1,12.7-11.3c3.7,8.4,6.1,18.4,1.9,26.6c1.5-1.3,2.6-2.9,3.4-4.8c2.4,13.4-7.2,26.6-5.6,40.1   C387.4,142.7,388.5,140.2,390.3,138.4z"/>
	<path style="fill:#F9B54C;" d="M114.7,138.4c-1.9,6.6,1.6,14.4,7.9,17.3c1.2,0.6,2.6,0.9,3.7,1.6c2.7,1.5,4.4,4.2,6,6.9   c1.8-3.7,3.6-7.4,5.6-10.9c6.3-11,15.1-20.3,23.8-29.5c2.6-2.7,5.2-5.5,8-8.1c-10.6-3.8-20.6-9.4-30.2-15.3c-3.2-1.9-6.3-3.8-9.3-6   c-4.6-3.3-8.9-7.1-12.7-11.3c-3.7,8.4-6.1,18.4-1.9,26.6c-1.5-1.3-2.6-2.9-3.4-4.8c-2.4,13.4,7.2,26.6,5.6,40.1   C117.6,142.7,116.5,140.2,114.7,138.4z"/>
</g>
<path style="fill:#FFD05B;" d="M407.7,230.2c-8.2-18.6-17.6-36.9-28.2-54.6c3.9,3.7,8.9,6.5,14.4,7.9c-3.7-6-9.4-10.8-13.8-16.5  c-5.2-6.7-8.4-14.3-13-21.3c-6.3-9.6-15.1-17.7-23.8-25.7c-6.1-5.6-12.4-11.4-20.5-14.6c-4.4-1.7-9.1-2.7-13.9-3.5  c-18.6-3.4-37.5-5.9-56.4-7.4h-0.1c-18.9,1.6-37.8,4-56.4,7.4c-4.7,0.9-9.5,1.8-13.9,3.5c-8.1,3.2-14.4,9-20.5,14.6  c-8.7,8-17.5,16.1-23.8,25.7c-4.6,7-7.8,14.6-13,21.3c-4.4,5.6-10,10.5-13.8,16.5c5.5-1.4,10.5-4.2,14.4-7.9  c-10.6,17.7-20,36-28.2,54.6C90,246.6,83.6,264,86.5,281.4c-0.6-7.5,3.8-14.5,8-21.1c-2.3,13-2.3,26.2-0.1,39.2  c3.9,22.7,14.7,44,26.3,64.6c-1.1-7.3-3-14.4-5.7-21.4c7.6,9.1,9.2,20.9,15.3,30.8c8.9,14.6,27.9,24.1,46.9,23.3  c-5.3-3.1-8.9-6.2-14.1-9.2c6.3-0.6,13,2.2,16.2,6.9c1.5,2.2,2.3,4.6,3.6,6.9c5.5,10.2,18.3,15.9,31,18s25.7,1.3,38.5,2.3l0,0  c12.8-1,25.8-0.2,38.5-2.3c12.7-2.1,25.5-7.8,31-18c1.2-2.3,2.1-4.8,3.6-6.9c3.3-4.8,9.9-7.6,16.2-6.9c-5.3,3.1-8.8,6.2-14.1,9.2  c19,0.8,38-8.7,46.9-23.3c6-9.9,7.7-21.7,15.3-30.8c-2.7,6.9-4.6,14.1-5.7,21.4c11.6-20.6,22.4-41.9,26.3-64.6  c2.2-13,2.2-26.2-0.1-39.2c4.2,6.6,8.5,13.6,7.9,21.1C421.3,264.1,414.9,246.6,407.7,230.2z"/>
<path style="fill:#F9B54C;" d="M317.8,289.6c-21-19.4-32.5-49.2-36.2-60.2c-0.7-2.1-0.8-4.4-0.2-6.6l0,0  c13.4-48.2-16.8-64.7-28.9-69.3c-12.1,4.6-42.3,21.2-28.9,69.3l0,0c0.6,2.2,0.5,4.4-0.2,6.6c-3.7,11-15.2,40.8-36.2,60.2  c-7.6,7-10.9,17.6-8.9,27.8c5.5,26.8,22.5,68.5,74.2,29.5c51.7,38.9,68.7-2.7,74.2-29.5C328.8,307.2,325.4,296.6,317.8,289.6z"/>
<g>
	<path style="fill:#324A5E;" d="M293.8,285.1c0,0,9,18.7-23.5,31.9c0,0-13.4,7.4-17.8,19.2V293C252.5,293,274.3,298.7,293.8,285.1z"/>
	<path style="fill:#324A5E;" d="M328.8,206.7c0,0-0.6,18.4-33.5,14.5C295.3,221.1,304.2,186.5,328.8,206.7z"/>
	<path style="fill:#324A5E;" d="M328.8,206.7c0,0-0.2,6.9-7.9,11.3c-2.9,1.7-7,3.1-12.6,3.5c-3.7,0.3-8,0.2-13-0.4   c0,0,1.6-6.2,5.3-11.8l0,0c3.6-5.5,9.3-10.5,17.5-8.5C321.2,201.6,324.8,203.4,328.8,206.7z"/>
</g>
<path style="fill:#FF7058;" d="M323.5,210.6c0,2.8-1,5.4-2.7,7.4c-2.9,1.7-7,3.1-12.6,3.5c-4.5-1.5-7.8-5.8-7.8-10.9  c0-0.4,0-0.9,0.1-1.3l0,0c3.6-5.5,9.3-10.5,17.5-8.5C321.4,202.8,323.5,206.5,323.5,210.6z"/>
<g>
	<path style="fill:#324A5E;" d="M293.9,229.3c0,0-1.2-4.1-0.4-10.4c0.3-1.6,0.4-3.3,1.1-5c0.3-0.9,0.6-1.8,0.9-2.7   c0.4-0.9,0.9-1.8,1.3-2.8s1-1.9,1.6-2.8c0.6-0.9,1.2-1.9,2-2.7s1.6-1.6,2.5-2.4c0.8-0.8,2-1.3,2.9-2c2-1.4,4.4-1.9,6.6-2.6   c2.3-0.3,4.5-0.4,6.6-0.3c2.1,0.3,4,0.7,5.9,1.1c1.7,0.6,3.3,1.3,4.8,2c1.5,0.6,2.7,1.4,3.7,2.1c1.1,0.7,1.9,1.4,2.7,1.9   c1.4,1.1,2.2,1.8,2.2,1.8s-1.1-0.1-2.8-0.4c-0.9-0.1-1.9-0.3-3.1-0.6s-2.5-0.5-3.9-0.6s-3-0.3-4.5-0.5c-1.6,0-3.2,0.1-4.9,0   c-1.6,0.2-3.2,0.6-4.8,0.8c-1.4,0.7-3.1,0.9-4.4,1.9c-1.5,0.7-2.6,1.8-3.9,2.9c-1.1,1.2-2.4,2.3-3.3,3.8c-0.5,0.7-0.9,1.4-1.4,2   c-0.4,0.7-0.8,1.4-1.2,2.1c-0.8,1.4-1.4,2.8-2.1,4.1c-0.5,1.3-1.2,2.5-1.6,3.6c-0.5,1.1-0.9,2.1-1.2,2.9   C294.3,228.4,293.9,229.3,293.9,229.3z"/>
	<ellipse style="fill:#324A5E;" cx="311.7" cy="211.1" rx="3.4" ry="6.6"/>
</g>
<circle style="fill:#FFFFFF;" cx="313.7" cy="205.7" r="2.4"/>
<g>
	<path style="fill:#324A5E;" d="M252.5,341.8c0,0,13.5,14.7,47.6,21.7c0,0-25.1,7-47.6-6.6V341.8z"/>
	<path style="fill:#324A5E;" d="M211.2,285.1c0,0-9,18.7,23.5,31.9c0,0,13.4,7.4,17.8,19.2V293C252.5,293,230.7,298.7,211.2,285.1z"/>
	<path style="fill:#324A5E;" d="M176.2,206.7c0,0,0.6,18.4,33.5,14.5C209.7,221.1,200.8,186.5,176.2,206.7z"/>
	<path style="fill:#324A5E;" d="M176.2,206.7c0,0,0.2,6.9,7.9,11.3c2.9,1.7,7,3.1,12.6,3.5c3.7,0.3,8,0.2,13-0.4   c0,0-1.6-6.2-5.3-11.8l0,0c-3.6-5.5-9.3-10.5-17.5-8.5C183.8,201.6,180.2,203.4,176.2,206.7z"/>
</g>
<path style="fill:#FF7058;" d="M181.5,210.6c0,2.8,1,5.4,2.7,7.4c2.9,1.7,7,3.1,12.6,3.5c4.5-1.5,7.8-5.8,7.8-10.9  c0-0.4,0-0.9-0.1-1.3l0,0c-3.6-5.5-9.3-10.5-17.5-8.5C183.6,202.8,181.5,206.5,181.5,210.6z"/>
<g>
	<path style="fill:#324A5E;" d="M211.1,229.3c0,0-0.4-1-1.1-2.6c-0.3-0.8-0.8-1.8-1.2-2.9c-0.4-1.1-1.1-2.3-1.6-3.6   c-0.7-1.3-1.3-2.7-2.1-4.1c-0.4-0.7-0.8-1.4-1.2-2.1c-0.5-0.7-0.9-1.3-1.4-2c-0.9-1.4-2.2-2.5-3.3-3.8c-1.3-1-2.4-2.2-3.9-2.9   c-1.3-1-2.9-1.2-4.4-1.9c-1.6-0.3-3.2-0.7-4.8-0.8c-1.6,0.1-3.3,0-4.9,0c-1.6,0.3-3.1,0.4-4.5,0.5s-2.8,0.3-3.9,0.6   c-1.2,0.3-2.2,0.4-3.1,0.6c-1.8,0.3-2.8,0.4-2.8,0.4s0.8-0.7,2.2-1.8c0.7-0.5,1.6-1.2,2.7-1.9c1-0.8,2.2-1.6,3.7-2.1   c1.4-0.7,3-1.4,4.8-2c1.8-0.4,3.8-0.8,5.9-1.1c2.1-0.1,4.4,0,6.6,0.3c2.2,0.7,4.6,1.2,6.6,2.6c1,0.7,2.1,1.2,2.9,2   c0.9,0.8,1.7,1.6,2.5,2.4c0.8,0.8,1.4,1.8,2,2.7s1.2,1.8,1.6,2.8c0.4,0.9,0.9,1.8,1.3,2.8c0.3,0.9,0.6,1.8,0.9,2.7   c0.6,1.8,0.8,3.5,1.1,5C212.2,225.2,211.1,229.3,211.1,229.3z"/>
	<ellipse style="fill:#324A5E;" cx="193.3" cy="211.1" rx="3.4" ry="6.6"/>
</g>
<circle style="fill:#FFFFFF;" cx="191.3" cy="205.7" r="2.4"/>
<g>
	<path style="fill:#324A5E;" d="M252.5,341.8c0,0-13.5,14.7-47.6,21.7c0,0,25.1,7,47.6-6.6V341.8z"/>
	<path style="fill:#324A5E;" d="M318.6,176.2c0.5-0.3,1-0.7,1.3-1.2c0.4-0.6,0.4-1.4,0.4-2.2c0-3.2,0-6.3,0-9.5c0-0.3,0-0.7,0.2-1   c0.5-0.6,1.5-0.1,2.1,0.5c1.5,1.7,2.8,3.6,3.4,5.7c0.6,2.1,0.5,4.6-0.7,6.5c-1.3,2.1-3.8,3.3-6.3,3.7c-2.5,0.3-5-0.1-7.5-0.5   C313.8,178.3,316.4,177.6,318.6,176.2z"/>
	<path style="fill:#324A5E;" d="M384.1,321.2c-1.7,0.9-3.9,1.3-5.6,0.4c-1.8-1-2.6-3.2-2.4-5.1c0.2-2,1.1-3.8,1.9-5.6   c6.9-15.3,6.5-33.3-1-48.3c-0.4-0.9-0.9-1.7-1-2.7c-0.1-1.7,1-3.2,2-4.7c7-10.6,5-24.3,9-36.2c0.2-0.7,0.6-1.5,1.3-1.9   c1-0.5,2.4,0.2,2.9,1.2s0.4,2.2,0.4,3.3c-1,12.4-2,24.9-3,37.3c-0.5,6.3-1,12.7,0.9,18.8c0.7,2.1,1.6,4.1,2.1,6.2   c0.5,2,0.5,4.1,0.5,6.2c0,5.2-0.2,10.3-0.6,15.5C391.1,311.5,389.6,318.3,384.1,321.2z"/>
</g>
<path style="fill:#FFFFFF;" d="M372.5,206.7c1.6-0.3,2.7,1.4,3.2,2.8c2.8,7.8,1.1,16.3-0.7,24.3c-0.8,3.5-1.5,7.1-2.3,10.6  c-1.8,8.6-3.7,17.4-2.4,26.1c1.2,7.5,4.7,15.3,1.7,22.3c-0.9,2.1-2.3,4-3.3,6.1c-1.3,2.6-1.9,5.5-3,8.1  c-3.6,8.4-12.9,14.3-22.4,14.2c7.6-11.5,18.3-21.5,22.2-34.6c2.1-6.8,2.1-14,2.1-21c0-2.2,0-4.5-0.7-6.6c-0.6-1.6-1.5-3-2-4.6  c-1-3.5,0.5-7.1,1.5-10.6c1.8-6.7,1.4-13.7,1.1-20.7c-0.3-5.4-0.3-11.3,3.3-15.4C371.2,207.4,371.8,206.8,372.5,206.7z"/>
<path style="fill:#324A5E;" d="M360.8,241.3c0.8,5.6,0,11.3-2.1,16.5c-0.3,0.6-0.5,1.3-1,1.8c-1,1.1-2.8,1.4-4.3,0.9s-2.6-1.7-3.2-3  c-0.8-1.8-0.7-3.9-0.5-5.9c0.5-3.9,1.4-7.8,2.8-11.6c0.7-1.8,1.8-3.9,3.9-4.1c1.3-0.1,2.6,0.7,3.3,1.8  C360.4,238.8,360.7,240,360.8,241.3z"/>
<path style="fill:#FFFFFF;" d="M340.9,279.9c0.5-0.5,0.2-1.2-0.3-1.6s-1.2-0.5-1.8-0.7c-0.8-0.3-1.6-0.6-2.2-1.2  c-0.8-0.7-1.3-1.9-1-2.9s1.6-1.7,2.6-1.3c1,0.4,1.3,1.6,2.1,2.2c0.6,0.5,1.4,0.7,2.2,1c2.1,0.9,3.4,3.1,3.1,5.3  c-1.7,0.2-3.3,0.1-5-0.1"/>
<g>
	<path style="fill:#324A5E;" d="M326.4,259.8c-1.2-0.9-1.8-2.5-1.3-3.9s2.1-2.3,3.6-2c2.3,0.5,2.9,3.2,3.2,5.4c0,0.3,0,0.5-0.1,0.7   c-0.2,0.2-0.5,0.2-0.8,0.2c-1.5,0-3.1,0-4.6,0"/>
	<path style="fill:#324A5E;" d="M356.2,164c0,6.4,9.7,10.5,8.7,16.8c-8.6-0.9-15.4-9.6-13.9-17.6c0.2-1.1,0.5-2.2,0.2-3.3   c-0.9-3.1-5.7-2.8-8.4-4.8c-4-2.9-2-9.5-5.3-13.2c-1.5-1.7-3.9-2.4-6.1-3.3c-6.4-2.5-11.9-7-15.6-12.6c7.9,4.6,15.7,9.2,23.6,13.8   c1.1,0.6,2.2,1.3,2.9,2.3c1.1,1.7,0.9,3.8,1.4,5.8c1.2,4.1,5.7,6.2,9.6,8.3c1.1,0.6,2.2,1.3,2.8,2.4   C357,160.3,356.2,162.2,356.2,164z"/>
	<path style="fill:#324A5E;" d="M380.6,197.7c0.5,1,0.8,2.1,1.2,3.2c1.2,3.1,3.4,5.7,5.6,8.2c0-3.2-0.7-6.4-2.1-9.3   c-1.7-3.7-4.4-6.9-7-10c-0.9-1.1-1.8-2.1-2.7-3.2c-1.1-1.4-2.5-2.8-4.3-2.9c-0.6,0-1.3,0.2-1.5,0.7c-0.2,0.6,0.4,1.1,0.9,1.5   c2.9,2.3,5.2,5.2,7.4,8C379,195.1,379.9,196.3,380.6,197.7z"/>
	<path style="fill:#324A5E;" d="M250.7,113.6c2.5-0.2,4.8-1,7.3-1.3c3-0.4,6-0.1,9,0.3c3.9,0.4,7.8,0.9,11.7,1.3   c6.8,0.8,13.9,1.6,19.7,5.1c2.1,1.2,3.9,2.8,5.7,4.3c3,2.5,6.1,5.1,9.1,7.6c-12-6.4-24.7-12.1-38.3-14.2c-3.6-0.6-7.5-0.8-10.8,0.7   c-3.2,1.4-5.9,4.5-9.4,4.2C251,121.3,248.7,116.6,250.7,113.6z"/>
	<path style="fill:#324A5E;" d="M253.2,126.8c0-0.2,0-0.5,0.1-0.7c0.2-0.3,0.5-0.3,0.8-0.4c2.5-0.3,4.9,1.1,7.2,2.3   c5.9,3.1,12.5,4.8,19.2,5.1c4.3,0.2,8.5-0.2,12.8,0c5.7,0.2,11.3,1.5,16.4,3.7c1.7,0.7,3.6,1.9,3.4,3.7c-0.2,2.2-3.3,2.7-5.6,2.6   c-6.7-0.2-13.6-0.5-19.9-2.7c-3.7-1.3-7.2-3.3-11-4.2c-4.5-1-9.2-0.5-13.7-1.4C258.3,134,253.5,131.1,253.2,126.8z"/>
	<path style="fill:#324A5E;" d="M300.8,158.1c-2.3-1.6-4.2-3.7-5.7-6c3.6-0.3,7.5-0.6,10.6,1.1c1.2,0.7,2.2,1.6,3.5,2.2   c0.9,0.4,2,0.7,2.7,1.3c1.1,1,1.1,2.7,1,4.2c0,0.3,0,0.6-0.3,0.9c-0.3,0.4-0.9,0.3-1.4,0.3c-4.5-0.7-8.7-2.6-12.1-5.3"/>
	<path style="fill:#324A5E;" d="M290.8,161.1c0.5,0.6,1.3,1.3,2.1,1c0.6-0.2,0.8-0.9,0.9-1.5c0.1-1.2-0.1-2.4-0.9-3.3   c-0.6-0.7-1.6-1.2-2.5-1.6c-2.5-1.2-5-2.4-7.5-3.7C285.5,155,288.2,158.1,290.8,161.1z"/>
</g>
<path style="fill:#FFFFFF;" d="M342.7,218.6c-0.7,4.6-3.4,9-7.4,11.8c-3.6,2.5-7.9,3.8-12.2,4.9c-4.8,1.3-9.7,2.4-13.9,4.9  c1.8,3,6.1,3.5,9.7,2.8c9.2-1.7,16.5-8.8,25.7-10.8c1.6-0.3,3.4-0.6,4.4-1.8c1.5-1.7,0.5-4.3-0.7-6.2  C346.7,222.1,344.8,220.2,342.7,218.6z"/>
<g>
	<path style="fill:#324A5E;" d="M338.6,213.9c-1.7,0.1-3.4-0.3-5.1,0c-1.1,0.2-2.4,1.1-2,2.2c0.2,0.5,0.8,0.8,1.4,1   c2,0.9,4.1,1.7,6.4,1.6c2.3-0.1,4.4-1.3,6.7-1.3c2.3,0,4.5,1.3,6,3s2.5,3.7,3.4,5.8c-2.5-7.9,0.5-16.9-2.9-24.5   c-1-2.1-2.4-4-3.2-6.2c-0.9-2.5-1.2-5.4-3.5-6.9c1.7,4.8,3.5,9.8,2.8,14.8C347.9,208.6,344,213.6,338.6,213.9z"/>
	<path style="fill:#324A5E;" d="M349.5,341c0.2-3.5,0.3-7.2-1.4-10.3c-3.4,11.9-9.9,22.7-16.4,33.3c-1.7,2.8-3.4,5.5-5.6,8   c-9.3,10.1-25.3,11.6-39.4,10.4c12.5,5,27.7,7.5,39.2,0.7c2.6-1.5,4.9-3.5,7.6-4.9c4.3-2.2,9.8-3.2,12-7.3c0.7-1.3,1-2.9,1.2-4.3   C348,358,348.9,349.5,349.5,341z"/>
	<path style="fill:#324A5E;" d="M120.9,321.2c1.7,0.9,3.9,1.3,5.6,0.4c1.8-1,2.6-3.2,2.4-5.1c-0.2-2-1.1-3.8-1.9-5.6   c-6.9-15.3-6.5-33.3,1-48.3c0.4-0.9,0.9-1.7,1-2.7c0.1-1.7-1-3.2-2-4.7c-7-10.6-5-24.3-9-36.2c-0.2-0.7-0.6-1.5-1.3-1.9   c-1-0.5-2.4,0.2-2.9,1.2s-0.4,2.2-0.4,3.3c1,12.4,2,24.9,3,37.3c0.5,6.3,1,12.7-0.9,18.8c-0.7,2.1-1.6,4.1-2.1,6.2   c-0.5,2-0.5,4.1-0.5,6.2c0,5.2,0.2,10.3,0.6,15.5C113.9,311.5,115.4,318.3,120.9,321.2z"/>
</g>
<path style="fill:#FFFFFF;" d="M132.5,206.7c-1.6-0.3-2.7,1.4-3.2,2.8c-2.8,7.8-1.1,16.3,0.7,24.3c0.8,3.5,1.5,7.1,2.3,10.6  c1.8,8.6,3.7,17.4,2.4,26.1c-1.2,7.5-4.7,15.3-1.7,22.3c0.9,2.1,2.3,4,3.3,6.1c1.3,2.6,1.9,5.5,3,8.1c3.6,8.4,12.9,14.3,22.4,14.2  c-7.6-11.5-18.3-21.5-22.2-34.6c-2-6.8-2.1-14-2.1-21c0-2.2,0-4.5,0.7-6.6c0.6-1.6,1.5-3,2-4.6c1-3.5-0.5-7.1-1.5-10.6  c-1.8-6.7-1.4-13.7-1.1-20.7c0.3-5.4,0.3-11.3-3.3-15.4C133.8,207.4,133.2,206.8,132.5,206.7z"/>
<path style="fill:#324A5E;" d="M144.2,241.3c-0.8,5.6,0,11.3,2.1,16.5c0.3,0.6,0.5,1.3,1,1.8c1,1.1,2.8,1.4,4.3,0.9s2.6-1.7,3.2-3  c0.8-1.8,0.7-3.9,0.5-5.9c-0.5-3.9-1.4-7.8-2.8-11.6c-0.7-1.8-1.8-3.9-3.9-4.1c-1.3-0.1-2.6,0.7-3.3,1.8  C144.6,238.8,144.3,240,144.2,241.3z"/>
<path style="fill:#FFFFFF;" d="M164.1,279.9c-0.5-0.5-0.2-1.2,0.3-1.6s1.2-0.5,1.8-0.7c0.8-0.3,1.6-0.6,2.2-1.2  c0.8-0.7,1.3-1.9,1-2.9s-1.6-1.7-2.6-1.3c-1,0.4-1.3,1.6-2.1,2.2c-0.6,0.5-1.4,0.7-2.2,1c-2.1,0.9-3.4,3.1-3.1,5.3  c1.7,0.2,3.3,0.1,5-0.1"/>
<g>
	<path style="fill:#324A5E;" d="M178.6,259.8c1.2-0.9,1.8-2.5,1.3-3.9s-2.1-2.3-3.6-2c-2.3,0.5-2.9,3.2-3.2,5.4c0,0.3,0,0.5,0.1,0.7   c0.2,0.2,0.5,0.2,0.8,0.2c1.5,0,3.1,0,4.6,0"/>
	<path style="fill:#324A5E;" d="M148.8,164c0,6.4-9.7,10.5-8.7,16.8c8.6-0.9,15.4-9.6,13.9-17.6c-0.2-1.1-0.5-2.2-0.2-3.3   c0.9-3.1,5.7-2.8,8.4-4.8c4-2.9,2-9.5,5.3-13.2c1.5-1.7,3.9-2.4,6.1-3.3c6.4-2.5,11.9-7,15.6-12.6c-7.9,4.6-15.7,9.2-23.6,13.8   c-1.1,0.6-2.2,1.3-2.9,2.3c-1.1,1.7-0.9,3.8-1.4,5.8c-1.2,4.1-5.7,6.2-9.6,8.3c-1.1,0.6-2.2,1.3-2.8,2.4   C148,160.3,148.8,162.2,148.8,164z"/>
	<path style="fill:#324A5E;" d="M124.4,197.7c-0.5,1-0.8,2.1-1.2,3.2c-1.2,3.1-3.4,5.7-5.6,8.2c0-3.2,0.7-6.4,2.1-9.3   c1.7-3.7,4.4-6.9,7-10c0.9-1.1,1.8-2.1,2.7-3.2c1.1-1.4,2.5-2.8,4.3-2.9c0.6,0,1.3,0.2,1.5,0.7c0.2,0.6-0.4,1.1-0.9,1.5   c-2.9,2.3-5.2,5.2-7.4,8C126,195.1,125.1,196.3,124.4,197.7z"/>
	<path style="fill:#324A5E;" d="M254.3,113.6c-2.5-0.2-4.8-1-7.3-1.3c-3-0.4-6-0.1-9,0.3c-3.9,0.4-7.8,0.9-11.7,1.3   c-6.8,0.8-13.9,1.6-19.7,5.1c-2.1,1.2-3.9,2.8-5.7,4.3c-3,2.5-6.1,5.1-9.1,7.6c12-6.4,24.7-12.1,38.3-14.2   c3.6-0.6,7.5-0.8,10.8,0.7c3.2,1.4,5.9,4.5,9.4,4.2C254,121.3,256.3,116.6,254.3,113.6z"/>
	<path style="fill:#324A5E;" d="M251.8,126.8c0-0.2,0-0.5-0.1-0.7c-0.2-0.3-0.5-0.3-0.8-0.4c-2.5-0.3-4.9,1.1-7.2,2.3   c-5.9,3.1-12.5,4.8-19.2,5.1c-4.3,0.2-8.5-0.2-12.8,0c-5.7,0.2-11.3,1.5-16.4,3.7c-1.7,0.7-3.6,1.9-3.4,3.7   c0.2,2.2,3.3,2.7,5.6,2.6c6.7-0.2,13.6-0.5,19.9-2.7c3.7-1.3,7.2-3.3,11-4.2c4.5-1,9.2-0.5,13.7-1.4   C246.7,134,251.5,131.1,251.8,126.8z"/>
	<path style="fill:#324A5E;" d="M204.2,158.1c2.3-1.6,4.2-3.7,5.7-6c-3.6-0.3-7.5-0.6-10.6,1.1c-1.2,0.7-2.2,1.6-3.5,2.2   c-0.9,0.4-2,0.7-2.7,1.3c-1.1,1-1.1,2.7-1,4.2c0,0.3,0,0.6,0.3,0.9c0.3,0.4,0.9,0.3,1.4,0.3c4.5-0.7,8.7-2.6,12.1-5.3"/>
	<path style="fill:#324A5E;" d="M214.2,161.1c-0.5,0.6-1.3,1.3-2.1,1c-0.6-0.2-0.8-0.9-0.9-1.5c-0.1-1.2,0.1-2.4,0.9-3.3   c0.6-0.7,1.6-1.2,2.5-1.6c2.5-1.2,5-2.4,7.5-3.7C219.5,155,216.8,158.1,214.2,161.1z"/>
</g>
<path style="fill:#FFFFFF;" d="M162.3,218.6c0.7,4.6,3.4,9,7.4,11.8c3.6,2.5,7.9,3.8,12.2,4.9c4.8,1.3,9.7,2.4,13.9,4.9  c-1.8,3-6.1,3.5-9.7,2.8c-9.2-1.7-16.5-8.8-25.7-10.8c-1.6-0.3-3.4-0.6-4.4-1.8c-1.5-1.7-0.5-4.3,0.7-6.2  C158.3,222.1,160.2,220.2,162.3,218.6z"/>
<g>
	<path style="fill:#324A5E;" d="M166.4,213.9c1.7,0.1,3.4-0.3,5.1,0c1.1,0.2,2.4,1.1,2,2.2c-0.2,0.5-0.8,0.8-1.4,1   c-2,0.9-4.1,1.7-6.4,1.6c-2.3-0.1-4.4-1.3-6.7-1.3s-4.5,1.3-6,3s-2.5,3.7-3.4,5.8c2.5-7.9-0.5-16.9,2.9-24.5c1-2.1,2.4-4,3.2-6.2   c0.9-2.5,1.2-5.4,3.5-6.9c-1.7,4.8-3.5,9.8-2.8,14.8C157.1,208.6,161,213.6,166.4,213.9z"/>
	<path style="fill:#324A5E;" d="M155.5,341c-0.2-3.5-0.3-7.2,1.4-10.3c3.4,11.9,9.9,22.7,16.4,33.3c1.7,2.8,3.4,5.5,5.6,8   c9.3,10.1,25.3,11.6,39.4,10.4c-12.5,5-27.7,7.5-39.2,0.7c-2.6-1.5-4.9-3.5-7.6-4.9c-4.3-2.2-9.8-3.2-12-7.3   c-0.7-1.3-1-2.9-1.2-4.3C157,358,156.1,349.5,155.5,341z"/>
</g>
<g>
</g>
<g>
</g>
<g>
</g>
<g>
</g>
<g>
</g>
<g>
</g>
<g>
</g>
<g>
</g>
<g>
</g>
<g>
</g>
<g>
</g>
<g>
</g>
<g>
</g>
<g>
</g>
<g>
</g>
</svg>
