<?xml version="1.0" encoding="iso-8859-1"?>
<!-- Generator: Adobe Illustrator 19.0.0, SVG Export Plug-In . SVG Version: 6.00 Build 0)  -->
<svg xmlns="http://www.w3.org/2000/svg" xmlns:xlink="http://www.w3.org/1999/xlink" version="1.1" id="Layer_1" x="0px" y="0px" viewBox="0 0 505 505" style="enable-background:new 0 0 505 505;" xml:space="preserve">
<circle style="fill:#90DFAA;" cx="252.5" cy="252.5" r="252.5"/>
<path style="fill:#FFFFFF;" d="M388.9,91.5c0,0-93.2-30.4-105,115.9l18.6,3.2l54.4-56.2c0,0,23.8-38.6,25.8-39.2  C384.8,114.5,388.9,91.5,388.9,91.5z"/>
<path style="fill:#E6E9EE;" d="M284,207.4c0,0,38.3-86.6,105-115.9c0,0,22.8,81.9-86.6,134.2L284,207.4z"/>
<path style="fill:#FFFFFF;" d="M116.1,91.5c0,0,93.2-30.4,105,115.9l-18.6,3.2l-54.4-56.2c0,0-23.8-38.6-25.8-39.2  C120.2,114.5,116.1,91.5,116.1,91.5z"/>
<path style="fill:#E6E9EE;" d="M221,207.4c0,0-38.3-86.6-105-115.9c0,0-22.8,81.9,86.6,134.2L221,207.4z"/>
<path style="fill:#FFFFFF;" d="M350.3,271.7c0,84.6-43.8,179.2-97.8,179.2s-97.8-94.6-97.8-179.2s43.8-91,97.8-91  C306.5,180.7,350.3,187.1,350.3,271.7z"/>
<ellipse style="fill:#324A5E;" cx="252.5" cy="407.9" rx="65.2" ry="56.7"/>
<g>
	<ellipse style="fill:#2B3B4E;" cx="280.1" cy="394.8" rx="13.5" ry="9.6"/>
	<ellipse style="fill:#2B3B4E;" cx="224.9" cy="394.8" rx="13.5" ry="9.6"/>
</g>
<path style="fill:#E6E9EE;" d="M333.4,249c5.4,14.8,7,30.9,4.4,46.5c-4-9.2-9-17.9-14.9-25.9c5.7,11.8,7.5,25.3,5.2,38.2  c-0.3,1.6-1,3.6-2.6,3.9c-1.2,0.2-2.2-0.6-3.2-1.3c-5.1-3.9-10.9-7.1-17.2-8.2c-6.3-1.2-13.2-0.1-18.3,3.9  c-8.7,6.9-9.5,19.6-9.6,30.7c-4.8-8.4-6-18.2-7.1-27.8c-1.2-10.7-2.5-21.5-3.7-32.2c-0.8-6.7-1.5-13.6,0.4-20.1s7.1-12.5,13.9-13  c-11.6,8.4-14.1,24.5-14.5,38.9c5-9.3,6.3-21.6,15.1-27.4c4.7-3.1,10.7-3.6,16.3-4c-8.1,6-14.1,14.7-16.7,24.4  c4.6-4.2,7.9-9.5,12.3-13.9c5.1-5.1,11.8-8.9,19-9.3c7.2-0.4,14.8,3,18.3,9.2c-7.2-6.5-14.8-12.7-23.6-17.1  c-8.7-4.3-18.6-6.7-28.2-5.1c-1.1-5.1,5.1-8.5,10.2-9.8c8.6-2.2,17.7-3.7,26.3-1.3c8.5,2.4,16.3,9.7,16.5,18.6"/>
<ellipse transform="matrix(0.4282 0.9037 -0.9037 0.4282 426.5979 -112.6696)" style="fill:#FFFFFF;" cx="302.331" cy="280.764" rx="27.5" ry="14.6"/>
<ellipse transform="matrix(0.4282 0.9037 -0.9037 0.4282 431.0905 -111.0365)" style="fill:#54C0EB;" cx="303.287" cy="285.131" rx="17.8" ry="11.5"/>
<ellipse transform="matrix(0.4282 0.9037 -0.9037 0.4282 431.0815 -111.0422)" style="fill:#2B3B4E;" cx="303.287" cy="285.121" rx="9" ry="5.8"/>
<ellipse style="fill:#FFFFFF;" cx="298.8" cy="276.4" rx="3.6" ry="4.4"/>
<path style="fill:#324A5E;" d="M276,239c0,0,2.6-1.1,6.2-2.1c0.9-0.3,1.9-0.4,2.8-0.6c1-0.1,2-0.3,3.1-0.3c1.1-0.1,2.1,0,3.2,0  s2.2,0.2,3.3,0.4c1.1,0.3,2.2,0.4,3.3,0.8c1,0.4,2.2,0.6,3.2,1.1c1.1,0.4,2.1,0.8,3,1.2c0.9,0.5,1.9,0.9,2.8,1.3  c1.8,0.7,3.2,1.6,4.3,2c1.1,0.5,1.8,0.7,1.8,0.7s-0.3-0.6-0.9-1.7c-0.3-0.5-0.7-1.2-1.1-1.9s-1-1.5-1.7-2.3s-1.5-1.6-2.4-2.5  c-0.9-0.8-2-1.5-3.1-2.3s-2.4-1.3-3.7-1.9c-1.3-0.6-2.8-0.8-4.3-1.2c-1.5-0.2-3-0.4-4.5-0.3c-1.5,0.1-2.9,0.3-4.3,0.7  c-1.4,0.3-2.6,0.9-3.7,1.4c-1.1,0.6-2.1,1.3-2.9,2c-1.7,1.3-2.8,2.8-3.5,3.8C276.2,238.3,276,239,276,239z"/>
<path style="fill:#E6E9EE;" d="M171.6,249c-5.4,14.8-7,30.9-4.4,46.5c4-9.2,9-17.9,14.9-25.9c-5.7,11.8-7.5,25.3-5.2,38.2  c0.3,1.6,1,3.6,2.6,3.9c1.2,0.2,2.2-0.6,3.2-1.3c5.1-3.9,10.9-7.1,17.2-8.2c6.3-1.2,13.2-0.1,18.3,3.9c8.7,6.9,9.5,19.6,9.6,30.7  c4.8-8.4,6-18.2,7.1-27.8c1.2-10.7,2.5-21.5,3.7-32.2c0.8-6.7,1.5-13.6-0.4-20.1s-7.1-12.5-13.9-13c11.6,8.4,14.1,24.5,14.5,38.9  c-5.1-9.3-6.3-21.6-15.1-27.4c-4.7-3.1-10.7-3.6-16.3-4c8.1,6,14.1,14.7,16.7,24.4c-4.6-4.2-7.9-9.5-12.3-13.9  c-5.1-5.1-11.8-8.9-19-9.3c-7.2-0.4-14.8,3-18.3,9.2c7.2-6.5,14.8-12.7,23.6-17.1c8.7-4.3,18.6-6.7,28.2-5.1  c1.1-5.1-5.1-8.5-10.2-9.8c-8.6-2.2-17.7-3.7-26.3-1.3s-16.3,9.7-16.5,18.6"/>
<ellipse transform="matrix(0.4282 -0.9037 0.9037 0.4282 -137.9084 343.6323)" style="fill:#FFFFFF;" cx="202.585" cy="280.792" rx="27.5" ry="14.6"/>
<ellipse transform="matrix(0.4282 -0.9037 0.9037 0.4282 -142.2747 345.4026)" style="fill:#54C0EB;" cx="201.801" cy="285.127" rx="17.8" ry="11.5"/>
<ellipse transform="matrix(0.4282 -0.9037 0.9037 0.4282 -142.269 345.4116)" style="fill:#2B3B4E;" cx="201.811" cy="285.127" rx="9" ry="5.8"/>
<ellipse style="fill:#FFFFFF;" cx="206.2" cy="276.4" rx="3.6" ry="4.4"/>
<path style="fill:#324A5E;" d="M229,239c0,0-2.6-1.1-6.2-2.1c-0.9-0.3-1.9-0.4-2.8-0.6c-1-0.1-2-0.3-3.1-0.3c-1.1-0.1-2.1,0-3.2,0  c-1.1,0-2.2,0.2-3.3,0.4c-1.1,0.3-2.2,0.4-3.3,0.8c-1,0.4-2.2,0.6-3.2,1.1c-1.1,0.4-2.1,0.8-3,1.2c-0.9,0.5-1.9,0.9-2.8,1.3  c-1.8,0.7-3.2,1.6-4.3,2c-1.1,0.5-1.8,0.7-1.8,0.7s0.3-0.6,0.9-1.7c0.3-0.5,0.7-1.2,1.1-1.9c0.4-0.7,1-1.5,1.7-2.3s1.5-1.6,2.4-2.5  c0.9-0.8,2-1.5,3.1-2.3s2.4-1.3,3.7-1.9c1.3-0.6,2.8-0.8,4.3-1.2c1.5-0.2,3-0.4,4.5-0.3c1.5,0.1,2.9,0.3,4.3,0.7  c1.4,0.3,2.6,0.9,3.7,1.4c1.1,0.6,2.1,1.3,2.9,2c1.7,1.3,2.8,2.8,3.5,3.8C228.8,238.3,229,239,229,239z"/>
<g>
</g>
<g>
</g>
<g>
</g>
<g>
</g>
<g>
</g>
<g>
</g>
<g>
</g>
<g>
</g>
<g>
</g>
<g>
</g>
<g>
</g>
<g>
</g>
<g>
</g>
<g>
</g>
<g>
</g>
</svg>
