<?xml version="1.0" encoding="iso-8859-1"?>
<!-- Generator: Adobe Illustrator 19.0.0, SVG Export Plug-In . SVG Version: 6.00 Build 0)  -->
<svg xmlns="http://www.w3.org/2000/svg" xmlns:xlink="http://www.w3.org/1999/xlink" version="1.1" id="Layer_1" x="0px" y="0px" viewBox="0 0 505 505" style="enable-background:new 0 0 505 505;" xml:space="preserve">
<circle style="fill:#FFD05B;" cx="252.5" cy="252.5" r="252.5"/>
<path style="fill:#324A5E;" d="M432.5,171.5c0,0-69-69.1-116.6,37.7c-32.2-15.6-63.8-24.3-63.8-24.3s-31.2,8.6-63.2,24  c-47.6-106.5-116.4-37.4-116.4-37.4c29.6,25.8,43.9,67.5,48.9,104.6c0,0.5-0.1,1-0.1,1.6c0,56.9,58.6,140.4,130.8,140.4  c65.7,0,120.1-69.1,129.4-124.4l0,0v-0.1c0.6-3.7,1-7.4,1.3-10.9C386.8,250.4,401,199,432.5,171.5z"/>
<path style="fill:#E6E9EE;" d="M319.2,309.7c0,0-6.2,71.4-66.7,76.5c-60.5-5.1-66.7-76.5-66.7-76.5c12.4,21.1,24.7,30.7,35.4,34.5  c3.5,1.2,6.8,1.8,9.9,2c12.8,0.7,21.4-6.1,21.4-6.1s8.6,6.8,21.4,6.1c3.1-0.1,6.4-0.8,9.9-2C294.4,340.5,306.8,330.8,319.2,309.7z"/>
<g>
	<path style="fill:#FFFFFF;" d="M283.8,344.2c-1.9,6.5-6.3,15.7-15.6,28.1c0.4-1,5.2-13.6,5.7-26.1   C276.9,346.1,280.3,345.4,283.8,344.2z"/>
	<path style="fill:#FFFFFF;" d="M236.8,372.3c-9.2-12.4-13.6-21.6-15.5-28.1c3.5,1.2,6.8,1.8,9.9,2   C231.6,358.7,236.4,371.3,236.8,372.3z"/>
</g>
<path style="fill:#FF7058;" d="M275.4,304.8c0,12.7-10.3,13.7-22.9,13.7c-12.7,0-22.9-1-22.9-13.7s22.9-20.4,22.9-20.4  S275.4,292.2,275.4,304.8z"/>
<path style="fill:#FFFFFF;" d="M277.4,262.9c1.3,10.3,9.3,18.4,18,17.9c8.6-0.4,14.6-9.2,13.3-19.5c-1.3-10.3-9.3-18.4-18-17.9  C282,243.8,276.1,252.5,277.4,262.9z"/>
<path style="fill:#F9B54C;" d="M280,265.7c0.8,6.7,7,11.9,13.8,11.5c6.8-0.3,11.6-6.1,10.8-12.8c-0.8-6.7-7-11.9-13.8-11.5  C283.9,253.3,279.1,259,280,265.7z"/>
<path style="fill:#2B3B4E;" d="M286,265.4c0.4,3.4,3.6,6,7,5.8s5.9-3.1,5.4-6.5c-0.4-3.4-3.6-6-7-5.8S285.6,262,286,265.4z"/>
<path style="fill:#FFFFFF;" d="M287.4,257.5c-0.9,1.5,0,3.2,2,3.7s4.4-0.4,5.3-1.9s0-3.2-2-3.7C290.7,255.1,288.4,256,287.4,257.5z"/>
<path style="fill:#ACB3BA;" d="M276.1,236.4c0,0,2.4-1,5.7-1.9c0.8-0.3,1.7-0.3,2.6-0.6c0.9-0.1,1.9-0.3,2.8-0.3c1-0.1,2,0,2.9,0  c1,0,2,0.2,3,0.3c1,0.3,2,0.4,3,0.7c1,0.4,2,0.5,2.9,1c1,0.4,1.9,0.7,2.8,1.1c0.9,0.4,1.7,0.8,2.5,1.2c1.6,0.7,2.9,1.5,4,1.9  c1,0.4,1.6,0.7,1.6,0.7s-0.3-0.6-0.8-1.6c-0.3-0.5-0.6-1.1-1-1.7c-0.4-0.7-0.9-1.4-1.6-2.1c-0.6-0.7-1.4-1.5-2.2-2.3  c-0.8-0.7-1.8-1.4-2.8-2.1c-1-0.7-2.2-1.2-3.4-1.8c-1.2-0.6-2.6-0.8-3.9-1.1c-1.4-0.1-2.8-0.3-4.1-0.2c-1.4,0.1-2.7,0.2-3.9,0.6  c-1.3,0.3-2.4,0.9-3.4,1.3c-1,0.6-1.9,1.1-2.7,1.8c-1.6,1.2-2.6,2.5-3.2,3.5C276.3,235.8,276.1,236.4,276.1,236.4z"/>
<path style="fill:#FFFFFF;" d="M227.6,262.9c-1.3,10.3-9.3,18.4-18,17.9c-8.6-0.4-14.6-9.2-13.3-19.5c1.3-10.3,9.3-18.4,18-17.9  C223,243.8,228.9,252.5,227.6,262.9z"/>
<path style="fill:#F9B54C;" d="M225,265.7c-0.8,6.7-7,11.9-13.8,11.5c-6.8-0.3-11.6-6.1-10.8-12.8c0.8-6.7,7-11.9,13.8-11.5  C221.1,253.3,225.9,259,225,265.7z"/>
<path style="fill:#2B3B4E;" d="M219,265.4c-0.4,3.4-3.6,6-7,5.8s-5.9-3.1-5.4-6.5c0.4-3.4,3.6-6,7-5.8S219.4,262,219,265.4z"/>
<path style="fill:#FFFFFF;" d="M217.6,257.5c0.9,1.5,0,3.2-2,3.7s-4.4-0.4-5.3-1.9c-0.9-1.5,0-3.2,2-3.7S216.6,256,217.6,257.5z"/>
<path style="fill:#ACB3BA;" d="M228.9,236.4c0,0-2.4-1-5.7-1.9c-0.8-0.3-1.7-0.3-2.6-0.6c-0.9-0.1-1.9-0.3-2.8-0.3c-1-0.1-2,0-3,0  s-2,0.2-3,0.3c-1,0.3-2,0.4-3,0.7c-1,0.4-2,0.5-2.9,1c-1,0.4-1.9,0.7-2.8,1.1c-0.9,0.4-1.7,0.8-2.5,1.2c-1.6,0.7-2.9,1.5-4,1.9  c-1,0.4-1.6,0.7-1.6,0.7s0.3-0.6,0.8-1.6c0.3-0.5,0.6-1.1,1-1.7c0.4-0.7,0.9-1.4,1.6-2.1c0.6-0.7,1.4-1.5,2.2-2.3  c0.8-0.7,1.8-1.4,2.8-2.1c1-0.7,2.2-1.2,3.4-1.8s2.6-0.8,3.9-1.1c1.4-0.1,2.8-0.3,4.1-0.2c1.4,0.1,2.7,0.2,3.9,0.6  c1.3,0.3,2.4,0.9,3.4,1.3c1,0.6,1.9,1.1,2.7,1.8c1.6,1.2,2.6,2.5,3.2,3.5C228.7,235.8,228.9,236.4,228.9,236.4z"/>
<g>
</g>
<g>
</g>
<g>
</g>
<g>
</g>
<g>
</g>
<g>
</g>
<g>
</g>
<g>
</g>
<g>
</g>
<g>
</g>
<g>
</g>
<g>
</g>
<g>
</g>
<g>
</g>
<g>
</g>
</svg>
