<?xml version="1.0" encoding="iso-8859-1"?>
<!-- Generator: Adobe Illustrator 19.0.0, SVG Export Plug-In . SVG Version: 6.00 Build 0)  -->
<svg xmlns="http://www.w3.org/2000/svg" xmlns:xlink="http://www.w3.org/1999/xlink" version="1.1" id="Layer_1" x="0px" y="0px" viewBox="0 0 505 505" style="enable-background:new 0 0 505 505;" xml:space="preserve">
<circle style="fill:#FD8469;" cx="252.5" cy="252.5" r="252.5"/>
<g>
	<path style="fill:#324A5E;" d="M360,92.4c17.4-17.4,27.5-12,37.1-2.4s15,19.7-2.4,37.1s-51,35.5-60.5,25.9   C324.5,143.4,342.6,109.8,360,92.4z"/>
	<path style="fill:#324A5E;" d="M145.1,92.4C127.7,75,117.6,80.4,108,90s-15,19.7,2.4,37.1s51,35.5,60.5,25.9   C180.5,143.4,162.4,109.8,145.1,92.4z"/>
</g>
<path style="fill:#84DBFF;" d="M370.7,218.2c0,83.6-52.9,193.2-118.2,193.2S134.3,301.7,134.3,218.2s52.9-109.4,118.2-109.4  S370.7,134.6,370.7,218.2z"/>
<ellipse style="fill:#54C0EB;" cx="252.5" cy="378.7" rx="98.2" ry="73.2"/>
<path style="fill:#FFFFFF;" d="M227.5,330c0,0.1,0,0.2,0,0.3c0.2,14.4,11,25.7,23.7,25.7h2.8c12.7,0,23.4-11.3,23.7-25.7  c0-0.1,0-0.2,0-0.3c0-0.1,0-0.2,0-0.4c0-0.7,0-1.3,0-2c0-58.7-11.2-106.4-25-107.9c-13.9,1.5-25,49.2-25,107.9c0,0.7,0,1.4,0,2  C227.5,329.8,227.5,329.9,227.5,330z"/>
<g>
	<circle style="fill:#324A5E;" cx="300.9" cy="356" r="14.2"/>
	<circle style="fill:#324A5E;" cx="204.1" cy="356" r="14.2"/>
</g>
<path style="fill:#FFFFFF;" d="M290.8,225.8c1.3,10.5,9.5,18.6,18.2,18.2c8.8-0.4,14.8-9.3,13.5-19.8s-9.5-18.6-18.2-18.2  C295.5,206.4,289.5,215.3,290.8,225.8z"/>
<path style="fill:#F9B54C;" d="M293.4,228.6c0.8,6.8,7.1,12,14,11.7s11.8-6.1,10.9-12.9c-0.8-6.8-7.1-12-14-11.7  C297.5,216,292.6,221.8,293.4,228.6z"/>
<path style="fill:#2B3B4E;" d="M299.6,228.3c0.4,3.4,3.6,6.1,7.1,5.9c3.5-0.2,6-3.1,5.5-6.6c-0.4-3.4-3.6-6.1-7.1-5.9  C301.6,221.9,299.1,224.9,299.6,228.3z"/>
<path style="fill:#FFFFFF;" d="M301,220.3c-0.9,1.6,0,3.2,2,3.7s4.4-0.4,5.4-1.9c0.9-1.6,0-3.2-2-3.7  C304.4,217.9,302,218.8,301,220.3z"/>
<path style="fill:#324A5E;" d="M289.5,199c0,0,2.4-1.1,5.8-1.9c0.8-0.3,1.7-0.3,2.6-0.6c0.9-0.1,1.9-0.3,2.9-0.3c1-0.1,2,0,3,0  s2,0.2,3,0.3c1,0.3,2,0.4,3,0.7c1,0.4,2,0.5,3,1c1,0.4,1.9,0.8,2.8,1.1c0.9,0.4,1.7,0.8,2.6,1.2c1.7,0.7,3,1.5,4,1.9  s1.7,0.7,1.7,0.7s-0.3-0.6-0.8-1.6c-0.3-0.5-0.6-1.1-1.1-1.7c-0.4-0.7-0.9-1.4-1.6-2.1c-0.7-0.7-1.4-1.5-2.2-2.3  c-0.9-0.7-1.9-1.4-2.9-2.1c-1-0.8-2.3-1.2-3.5-1.8s-2.6-0.8-4-1.2c-1.4-0.1-2.8-0.3-4.2-0.2c-1.4,0.1-2.7,0.3-4,0.7  c-1.3,0.3-2.4,0.9-3.5,1.3c-1,0.6-2,1.2-2.7,1.8c-1.6,1.2-2.6,2.6-3.2,3.5C289.7,198.3,289.5,199,289.5,199z"/>
<path style="fill:#FFFFFF;" d="M214.2,225.8c-1.3,10.5-9.5,18.6-18.2,18.2c-8.8-0.4-14.8-9.3-13.5-19.8s9.5-18.6,18.2-18.2  C209.5,206.4,215.5,215.3,214.2,225.8z"/>
<path style="fill:#F9B54C;" d="M211.6,228.6c-0.9,6.8-7.1,12-14,11.7s-11.8-6.1-10.9-12.9c0.9-6.8,7.1-12,14-11.7  S212.4,221.8,211.6,228.6z"/>
<path style="fill:#2B3B4E;" d="M205.4,228.3c-0.4,3.4-3.6,6.1-7.1,5.9c-3.5-0.2-6-3.1-5.5-6.6c0.4-3.4,3.6-6.1,7.1-5.9  C203.4,221.9,205.9,224.9,205.4,228.3z"/>
<path style="fill:#FFFFFF;" d="M204,220.3c0.9,1.6,0,3.2-2,3.7s-4.4-0.4-5.4-1.9c-0.9-1.6,0-3.2,2-3.7  C200.6,217.9,203,218.8,204,220.3z"/>
<path style="fill:#324A5E;" d="M215.5,199c0,0-2.4-1.1-5.8-1.9c-0.8-0.3-1.7-0.3-2.6-0.6c-0.9-0.1-1.9-0.3-2.9-0.3c-1-0.1-2,0-3,0  s-2,0.2-3,0.3c-1,0.3-2,0.4-3,0.7c-1,0.4-2,0.5-3,1c-1,0.4-1.9,0.8-2.8,1.1c-0.9,0.4-1.7,0.8-2.6,1.2c-1.7,0.7-3,1.5-4,1.9  s-1.7,0.7-1.7,0.7s0.3-0.6,0.8-1.6c0.3-0.5,0.6-1.1,1.1-1.7c0.4-0.7,0.9-1.4,1.6-2.1c0.7-0.7,1.4-1.5,2.2-2.3  c0.9-0.7,1.9-1.4,2.9-2.1c1-0.8,2.3-1.2,3.5-1.8s2.6-0.8,4-1.2c1.4-0.1,2.8-0.3,4.2-0.2s2.7,0.3,4,0.7c1.3,0.3,2.4,0.9,3.5,1.3  c1,0.6,2,1.2,2.7,1.8c1.6,1.2,2.6,2.6,3.2,3.5C215.3,198.3,215.5,199,215.5,199z"/>
<g>
</g>
<g>
</g>
<g>
</g>
<g>
</g>
<g>
</g>
<g>
</g>
<g>
</g>
<g>
</g>
<g>
</g>
<g>
</g>
<g>
</g>
<g>
</g>
<g>
</g>
<g>
</g>
<g>
</g>
</svg>
