<?xml version="1.0" encoding="iso-8859-1"?>
<!-- Generator: Adobe Illustrator 19.0.0, SVG Export Plug-In . SVG Version: 6.00 Build 0)  -->
<svg xmlns="http://www.w3.org/2000/svg" xmlns:xlink="http://www.w3.org/1999/xlink" version="1.1" id="Layer_1" x="0px" y="0px" viewBox="0 0 505 505" style="enable-background:new 0 0 505 505;" xml:space="preserve">
<circle style="fill:#FD8469;" cx="252.5" cy="252.5" r="252.5"/>
<g>
	<path style="fill:#CED5E0;" d="M385.1,291.8c35.3-29.8,79.7-93.4-11.1-181.4c-3.7-3.6-9.5-1-9.9,4.3c-2.3,28.4-17.1,54.4-36.3,73.4   c-8.4,8.3-17.7,15.5-27.4,22l21.7,95.9L385.1,291.8z"/>
	<path style="fill:#CED5E0;" d="M119.9,291.8C84.6,262,40.2,198.4,131,110.4c3.7-3.6,9.5-1,9.9,4.3c2.3,28.4,17.1,54.4,36.3,73.4   c8.4,8.3,17.7,15.5,27.4,22L182.9,306L119.9,291.8z"/>
</g>
<g>
	<path style="fill:#ACB3BA;" d="M376.4,143.4c0,0,72.8,51.3-5.8,140.9C370.6,284.4,402.6,201.7,376.4,143.4z"/>
	<path style="fill:#ACB3BA;" d="M128.6,143.4c0,0-72.8,51.3,5.8,140.9C134.4,284.4,102.4,201.7,128.6,143.4z"/>
</g>
<path style="fill:#E6E9EE;" d="M392.7,314.7c0,80.3-62.8,129.7-140.2,129.7S112.3,395,112.3,314.7s62.8-161.2,140.2-161.2  S392.7,234.4,392.7,314.7z"/>
<g>
	<path style="fill:#324A5E;" d="M333.5,227.6c-12.1-13.2-26-19.3-41.5-2.4s-26.7,50.4-14.6,63.6s45.3,14.9,60.8-2   C353.7,269.9,345.6,240.8,333.5,227.6z"/>
	<path style="fill:#324A5E;" d="M171.5,227.6c-12.1,13.2-20.2,42.3-4.7,59.2c15.5,16.9,48.8,15.1,60.8,2   c12.1-13.2,0.9-46.7-14.6-63.6S183.6,214.4,171.5,227.6z"/>
</g>
<g>
	<circle style="fill:#FFD05B;" cx="307.2" cy="268.7" r="16"/>
	<circle style="fill:#FFD05B;" cx="197.8" cy="268.7" r="13.4"/>
</g>
<path style="fill:#2B3B4E;" d="M296.8,421.6c0,24.4-19.8,29.6-44.3,29.6s-44.3-5.2-44.3-29.6s19.8-81.1,44.3-81.1  S296.8,397.1,296.8,421.6z"/>
<path style="fill:#324A5E;" d="M301.5,405.8c0,27.1-22,32.8-49,32.8s-49-5.7-49-32.8s22-89.8,49-89.8S301.5,378.7,301.5,405.8z"/>
<path style="fill:#2B3B4E;" d="M280.2,375.5c0,13-12.4,33.1-27.7,33.1s-27.7-20-27.7-33.1c0-13,12.4-14.2,27.7-14.2  S280.2,362.4,280.2,375.5z"/>
<g>
	<ellipse style="fill:#324A5E;" cx="307.2" cy="268.7" rx="3.7" ry="10.4"/>
	<ellipse style="fill:#324A5E;" cx="197.8" cy="268.7" rx="3.7" ry="10.4"/>
</g>
<g>
</g>
<g>
</g>
<g>
</g>
<g>
</g>
<g>
</g>
<g>
</g>
<g>
</g>
<g>
</g>
<g>
</g>
<g>
</g>
<g>
</g>
<g>
</g>
<g>
</g>
<g>
</g>
<g>
</g>
</svg>
