<?xml version="1.0" encoding="iso-8859-1"?>
<!-- Generator: Adobe Illustrator 19.0.0, SVG Export Plug-In . SVG Version: 6.00 Build 0)  -->
<svg xmlns="http://www.w3.org/2000/svg" xmlns:xlink="http://www.w3.org/1999/xlink" version="1.1" id="Layer_1" x="0px" y="0px" viewBox="0 0 505 505" style="enable-background:new 0 0 505 505;" xml:space="preserve">
<circle style="fill:#FFD05B;" cx="252.5" cy="252.5" r="252.5"/>
<g>
	<path style="fill:#CED5E0;" d="M132.2,250c15.1-0.4,29.9-5.9,41.5-15.5s19.9-23.2,23.1-37.9c0.7-3.4,1.2-7,0.3-10.3   c-0.9-3.4-3.5-6.5-6.9-7.1c-1-10.8-2.1-21.9-7.7-31.2c-7.2-11.8-20.3-18.3-30.7-27.3c-16.3-14-26.2-35.1-26.8-56.6   c-8.7,10.7-18.7,20.3-27,31.2c-8.3,11-15,23.7-15.7,37.5c-1.6-5-3.2-10-4.9-15c-7.8,27.3-11.7,55.7-11.8,84.1c0,2.9,0,5.7,0.4,8.6   c1.5,10.1,7.9,19.1,16.1,25.2c8.2,6.1,18.1,9.6,28,11.9C117.5,249.1,124.9,250.2,132.2,250z"/>
	<path style="fill:#CED5E0;" d="M372.8,250c-15.1-0.4-29.9-5.9-41.5-15.5s-19.9-23.2-23.1-37.9c-0.7-3.4-1.2-7-0.3-10.3   c0.9-3.4,3.5-6.5,6.9-7.1c1-10.8,2.1-21.9,7.7-31.2c7.2-11.8,20.3-18.3,30.7-27.3c16.3-14,26.2-35.1,26.8-56.6   c8.7,10.7,18.7,20.3,27,31.2c8.3,11,15,23.7,15.7,37.5c1.6-5,3.2-10,4.9-15c7.8,27.3,11.7,55.7,11.8,84.1c0,2.9,0,5.7-0.4,8.6   c-1.5,10.1-7.9,19.1-16.1,25.2c-8.2,6.1-18.1,9.6-28,11.9C387.5,249.1,380.1,250.2,372.8,250z"/>
</g>
<g>
	<path style="fill:#E6E9EE;" d="M392.8,333.8c8.1-23.2,10.6-47.8,7.6-71.5c-0.4-3.3-1-6.7-1.8-9.9c-4.1-16.7-14.9-31.8-28.5-43.2   c-13.4-11.3-29.6-19.3-46.2-25.1c-0.3-0.1-0.6-0.2-0.9-0.3c-1.9-0.7-3.3-2.1-4.1-3.9l0,0c-1.1-2.8-1.9-5.7-2.9-8.6   c-0.7-2.8-1.5-5.7-2.1-8.5c-0.4-2.8-1-5.5-1.2-8.1c-0.1-2.6-0.4-5.1-0.3-7.4c0.1-2.3,0.3-4.4,0.4-6.3c0.1-1.9,0.6-3.5,0.8-4.8   c0.6-2.7,0.9-4.3,0.9-4.3s-0.8,1.4-2,3.9c-0.6,1.2-1.6,2.8-2.2,4.6c-0.7,1.9-1.4,4-2.3,6.3c-0.7,2.4-1.2,4.9-1.8,7.7   c-0.6,2.8-0.8,5.7-1.2,8.8c-0.3,3.1-0.3,6.2-0.5,9.5c0,0.9,0.1,1.9,0.1,2.8h-0.3c-0.4-1.1-0.7-2.2-1.1-3.4   c-0.7-2.9-1.5-5.7-2.1-8.5c-0.4-2.8-1-5.5-1.2-8.1c-0.1-2.6-0.4-5.1-0.3-7.4c0.1-2.3,0.3-4.4,0.4-6.3c0.1-1.9,0.6-3.5,0.8-4.8   c0.6-2.7,0.9-4.3,0.9-4.3s-0.8,1.4-2,3.9c-0.6,1.2-1.6,2.8-2.2,4.6c-0.7,1.9-1.4,4-2.2,6.3c-0.7,2.4-1.2,4.9-1.9,7.7   c-0.6,2.8-0.8,5.7-1.2,8.8c0,0.5,0,0.9-0.1,1.4c-0.2-0.5-0.3-1.1-0.5-1.6c-0.7-2.8-1.5-5.7-2.1-8.5c-0.4-2.8-1-5.5-1.2-8.1   c-0.1-2.6-0.4-5.1-0.4-7.4c0.2-2.3,0.3-4.4,0.4-6.3c0.1-1.9,0.6-3.5,0.8-4.8c0.5-2.7,0.8-4.2,0.8-4.2s-0.7,1.4-2,3.9   c-0.6,1.2-1.6,2.8-2.2,4.6c-0.6,1.9-1.4,4-2.2,6.3c-0.7,2.4-1.2,4.9-1.8,7.7c-0.6,2.8-0.8,5.7-1.2,8.8c-0.1,0.9-0.1,1.8-0.2,2.7   c-0.2-0.5-0.3-1.1-0.5-1.6c-0.7-2.8-1.5-5.7-2.1-8.5c-0.4-2.8-1-5.5-1.2-8.1s-0.4-5.1-0.4-7.4c0.1-2.3,0.3-4.4,0.4-6.3   c0.1-1.9,0.6-3.5,0.8-4.8c0.6-2.7,0.9-4.2,0.9-4.2s-0.8,1.4-2,3.9c-0.6,1.3-1.6,2.8-2.2,4.6c-0.6,1.9-1.4,4-2.2,6.3   c-0.7,2.4-1.2,4.9-1.9,7.7c-0.6,2.8-0.8,5.7-1.2,8.8c-0.1,0.9-0.1,1.8-0.2,2.7c-0.2-0.5-0.3-1.1-0.5-1.6c-0.7-2.8-1.5-5.7-2-8.5   c-0.4-2.8-1-5.5-1.2-8.1c-0.1-2.6-0.4-5.1-0.3-7.4c0.1-2.3,0.3-4.4,0.4-6.3s0.6-3.5,0.8-4.8c0.6-2.7,0.9-4.3,0.9-4.3   s-0.8,1.4-2,3.9c-0.6,1.3-1.6,2.8-2.2,4.6c-0.2,0.6-0.5,1.3-0.7,1.9v-0.3c-0.1,0.2-0.2,0.4-0.3,0.6c-0.6,1.2-1.6,2.8-2.2,4.6   c-0.6,1.9-1.4,4-2.2,6.3c-0.7,2.4-1.2,4.9-1.8,7.7c-0.6,2.8-0.8,5.7-1.2,8.8c-0.1,0.9-0.1,1.8-0.2,2.7c-0.2-0.5-0.3-1.1-0.5-1.6   c-0.1-0.3-0.2-0.6-0.2-0.9c-0.1,0.3-0.2,0.6-0.2,0.9c-0.2,0.5-0.3,1.1-0.5,1.6c-0.1-0.9-0.1-1.8-0.2-2.7c-0.4-3.1-0.6-6-1.2-8.8   c-0.6-2.8-1.1-5.3-1.8-7.7c-0.8-2.3-1.6-4.4-2.2-6.3c-0.6-1.8-1.7-3.3-2.2-4.6c-0.1-0.2-0.2-0.4-0.3-0.6v0.3   c-0.2-0.6-0.5-1.3-0.7-1.9c-0.6-1.9-1.6-3.3-2.2-4.6c-1.3-2.5-2-3.9-2-3.9s0.3,1.6,0.9,4.3c0.2,1.4,0.7,2.9,0.8,4.8s0.3,4,0.4,6.3   c0,2.3-0.2,4.8-0.3,7.4c-0.2,2.6-0.8,5.3-1.2,8.1c-0.5,2.8-1.4,5.6-2,8.5c-0.2,0.5-0.4,1.1-0.5,1.6c-0.1-0.9-0.1-1.8-0.2-2.7   c-0.4-3.1-0.6-6-1.2-8.8c-0.7-2.8-1.2-5.3-1.9-7.7c-0.8-2.3-1.6-4.4-2.2-6.3c-0.6-1.9-1.7-3.3-2.2-4.6c-1.3-2.5-2-3.9-2-3.9   s0.3,1.5,0.9,4.2c0.2,1.4,0.7,2.9,0.8,4.8c0.1,1.9,0.3,4,0.4,6.3c0,2.3-0.2,4.8-0.4,7.4c-0.2,2.6-0.8,5.3-1.2,8.1   c-0.5,2.8-1.4,5.6-2.1,8.5c-0.2,0.5-0.3,1.1-0.5,1.6c-0.1-0.9-0.1-1.8-0.2-2.7c-0.4-3.1-0.6-6-1.2-8.8c-0.6-2.8-1.1-5.3-1.8-7.7   c-0.8-2.3-1.6-4.4-2.2-6.3c-0.6-1.8-1.7-3.3-2.2-4.6c-1.3-2.5-2-3.9-2-3.9s0.3,1.6,0.8,4.2c0.2,1.4,0.8,2.9,0.8,4.8   c0.1,1.9,0.2,4,0.4,6.3c0,2.3-0.3,4.8-0.4,7.4c-0.2,2.6-0.8,5.3-1.2,8.1c-0.6,2.8-1.4,5.6-2.1,8.5c-0.2,0.6-0.3,1.1-0.5,1.6   c0-0.4,0-0.9-0.1-1.4c-0.5-3.1-0.6-6-1.2-8.8c-0.7-2.8-1.2-5.3-1.9-7.7c-0.8-2.3-1.5-4.4-2.2-6.3c-0.6-1.8-1.6-3.3-2.2-4.6   c-1.3-2.5-2-3.9-2-3.9s0.3,1.6,0.9,4.3c0.2,1.3,0.7,2.9,0.8,4.8c0.1,1.9,0.3,4,0.4,6.3c0,2.3-0.2,4.8-0.3,7.4   c-0.2,2.6-0.8,5.3-1.2,8.1c-0.5,2.8-1.4,5.6-2.1,8.5c-0.4,1.1-0.7,2.2-1.1,3.4h-0.3c0-0.9,0.1-1.9,0.1-2.8   c-0.2-3.3-0.2-6.4-0.5-9.5c-0.5-3.1-0.6-6-1.2-8.8c-0.7-2.8-1.2-5.3-1.8-7.7c0,0-7.4,21.7-8.1,24.6c-0.9,2.9-1.8,5.8-2.9,8.6l0,0   c-0.8,1.8-2.2,3.3-4.1,3.9c-0.3,0.1-0.6,0.2-0.9,0.3c-16.6,5.9-32.7,13.9-46.2,25.1c-13.6,11.4-24.4,26.5-28.5,43.2   c-0.8,3.3-1.3,6.6-1.8,9.9c-3,23.7-0.5,48.3,7.6,71.5c0.9-4.4,3.1-9.6,3.9-14c2.6,5.9,0.1,13-0.2,19.8c-0.3,9.7,4.3,18.5,8.9,27   c1.7,3.1,3.4,6.3,5.4,9.2c4.5,6.3,10.8,11.3,15.2,17.9c3.6,5.4,5.9,11.8,8.1,18.1c0.7-6.6,0.8-13.3,0.3-19.8   c2.2,8.6,10.1,13.9,17.6,18.6c13.4,8.4,26.9,16.8,41.8,22.8c12.5,5,25.9,8,39.3,7.5c13.4,0.5,26.8-2.6,39.3-7.5   c14.9-5.9,28.4-14.4,41.8-22.8c7.4-4.7,15.4-10,17.6-18.6c-0.5,6.5-0.3,13.1,0.3,19.8c2.2-6.3,4.5-12.7,8.1-18.1   c4.4-6.6,10.7-11.5,15.2-17.9c2.1-2.9,3.7-6.1,5.4-9.2c4.5-8.4,9.1-17.3,8.9-27c-0.2-6.7-2.7-13.8-0.2-19.8   C389.6,324.2,391.9,329.4,392.8,333.8z"/>
	<path style="fill:#E6E9EE;" d="M382.2,94.5c-1.1,9.1-2.3,18.3-6.4,26.4c-3.8,7.7-10,13.9-15.4,20.6c-6.8,8.5-12.4,18.1-15.6,28.5   c-3.1,10.4-3.7,21.7-0.5,32.2c2.8,9.1,8.2,17.1,11.4,26c2.5,6.8,3.7,14.1,6.5,20.7c-11.3-2.1-22.2-7.1-31.1-14.4   c-11.6-9.6-19.8-23.1-23-37.9c-0.7-3.4-1.2-7-0.3-10.3c0.9-3.4,3.5-6.5,6.9-7.1c1-10.7,2.1-21.9,7.8-31.2   c7.2-11.8,20.3-18.3,30.7-27.3c16.2-14,26.2-34.9,26.8-56.3c1.4,3.5,2.4,7.1,2.9,10.8C383.7,81.6,382.9,88.1,382.2,94.5z"/>
	<path style="fill:#E6E9EE;" d="M122.8,94.5c1.1,9.1,2.3,18.3,6.4,26.4c3.8,7.7,10,13.9,15.4,20.6c6.8,8.5,12.4,18.1,15.6,28.5   c3.1,10.4,3.7,21.7,0.5,32.2c-2.8,9.1-8.2,17.1-11.4,26c-2.5,6.8-3.7,14.1-6.5,20.7c11.3-2.1,22.2-7.1,31.1-14.4   c11.6-9.6,19.8-23.1,23-37.9c0.7-3.4,1.2-7,0.3-10.3c-0.9-3.4-3.5-6.5-6.9-7.1c-1-10.7-2.1-21.9-7.8-31.2   c-7.2-11.8-20.3-18.3-30.7-27.3c-16.2-14-26.2-34.9-26.8-56.3c-1.4,3.5-2.4,7.1-2.9,10.8C121.3,81.6,122.1,88.1,122.8,94.5z"/>
</g>
<path style="fill:#CED5E0;" d="M336.7,250.7c2.9,2.4,5.9,4.8,8.8,7.1c1.7,1.4,3.4,2.8,4.3,4.8c-1.5-0.2-2.8-1.6-4.3-1.4  c-1.1,0.2-1.8,1.2-2.4,2c-2.1,3-4.1,6-6.2,9c-0.6,0.8-1.2,1.7-1.9,2.4c-1.3,1.3-2.9,2.1-4.5,2.7c-5.7,2.2-12.2,2.4-18,0.6  c-1.1-0.4-2.2-0.8-3.3-1.2c-1.1-0.4-2.1-0.8-3.2-1.2c-1.3-0.5-2.6-1-3.8-1.7c-3.1-1.7-5.4-4.5-7.7-7.3c1.1-0.1,2-1.1,2.7-2  s1.1-2,1.6-3c2.2-4,6.5-6.5,10.9-7.8c4.4-1.3,9-1.7,13.5-2.6c1.3-0.3,2.5-0.6,3.8-0.8c2.8-0.5,5.6-0.7,8.4-0.5  C336.3,249.9,336.8,249.9,336.7,250.7z"/>
<path style="fill:#324A5E;" d="M341,257.1c-11.3-12.2-31.1-8.2-44.3,9l0,0l0,0C328.7,284.6,337.9,268.7,341,257.1L341,257.1  L341,257.1z"/>
<ellipse style="fill:#FFD05B;" cx="318.9" cy="261.4" rx="14.2" ry="12.3"/>
<path style="fill:#324A5E;" d="M291.5,272.3c0,0,0.3-1,1.1-2.6c0.4-0.8,0.8-1.8,1.3-2.9c0.3-0.6,0.5-1.2,0.9-1.8  c0.4-0.6,0.8-1.2,1.3-1.9c0.9-1.3,1.9-2.8,3-4.2c1.3-1.3,2.6-2.7,4.1-4.1c1.5-1.3,3.3-2.5,5-3.7c1.9-1,3.9-2,5.9-2.8  c2.1-0.6,4.2-1.4,6.4-1.6c1.1-0.1,2.1-0.3,3.2-0.4c1.1,0,2.1,0,3.1,0s2,0.1,3,0.3s1.9,0.2,2.8,0.5c1.8,0.5,3.5,0.9,4.9,1.6  c1.5,0.5,2.8,1.3,3.9,1.9c1.1,0.7,2,1.3,2.8,1.8c1.5,1.1,2.2,1.9,2.2,1.9s-0.3-0.1-0.7-0.2c-0.5-0.1-1.2-0.3-2-0.5s-1.9-0.4-3.1-0.6  s-2.5-0.4-4-0.5c-1.4-0.2-3-0.2-4.6-0.3c-0.8-0.1-1.6,0-2.5,0c-0.8,0-1.7,0-2.6,0.1s-1.7,0.2-2.6,0.3s-1.7,0.4-2.6,0.5  c-1.8,0.2-3.5,1-5.2,1.5c-0.9,0.2-1.7,0.7-2.5,1.1s-1.7,0.7-2.5,1.1c-1.5,1-3.1,1.8-4.6,2.7c-1.4,1.1-2.8,2-4.2,3  c-1.3,1.1-2.4,2.1-3.5,3c-0.6,0.5-1.1,0.9-1.6,1.3c-0.5,0.5-1,0.9-1.4,1.4c-0.9,0.9-1.7,1.6-2.3,2.2  C292.3,271.6,291.5,272.3,291.5,272.3z"/>
<path style="fill:#CED5E0;" d="M168,250.7c-2.9,2.4-5.9,4.8-8.8,7.1c-1.7,1.4-3.4,2.8-4.3,4.8c1.5-0.2,2.8-1.6,4.3-1.4  c1.1,0.2,1.8,1.2,2.4,2c2.1,3,4.1,6,6.2,9c0.6,0.8,1.2,1.7,1.9,2.4c1.3,1.3,2.9,2.1,4.5,2.7c5.7,2.2,12.2,2.4,18,0.6  c1.1-0.4,2.2-0.8,3.3-1.2c1.1-0.4,2.1-0.8,3.2-1.2c1.3-0.5,2.6-1,3.8-1.7c3.1-1.7,5.4-4.5,7.7-7.3c-1.1-0.1-2-1.1-2.7-2  s-1.1-2-1.6-3c-2.2-4-6.5-6.5-10.9-7.8s-9-1.7-13.5-2.6c-1.3-0.3-2.5-0.6-3.8-0.8c-2.8-0.5-5.6-0.7-8.4-0.5  C168.5,249.9,167.9,249.9,168,250.7z"/>
<path style="fill:#324A5E;" d="M163.8,257.1c11.3-12.2,31.1-8.2,44.3,9l0,0l0,0C176.1,284.6,166.9,268.7,163.8,257.1L163.8,257.1  L163.8,257.1z"/>
<ellipse style="fill:#FFD05B;" cx="185.9" cy="261.4" rx="14.2" ry="12.3"/>
<path style="fill:#324A5E;" d="M213.2,272.3c0,0-0.3-1-1.1-2.6c-0.4-0.8-0.8-1.8-1.3-2.9c-0.3-0.6-0.5-1.2-0.9-1.8  c-0.4-0.6-0.8-1.2-1.3-1.9c-0.9-1.3-1.9-2.8-3-4.2c-1.3-1.3-2.6-2.7-4.1-4.1c-1.5-1.3-3.3-2.5-5-3.7c-1.9-1-3.9-2-5.9-2.8  c-2.1-0.6-4.2-1.4-6.4-1.6c-1.1-0.1-2.1-0.3-3.2-0.4c-1.1,0-2.1,0-3.1,0s-2,0.1-3,0.3s-1.9,0.2-2.8,0.5c-1.8,0.5-3.5,0.9-4.9,1.6  c-1.5,0.5-2.8,1.3-3.9,1.9c-1.1,0.7-2,1.3-2.8,1.8c-1.5,1.1-2.2,1.9-2.2,1.9s0.3-0.1,0.7-0.2c0.5-0.1,1.2-0.3,2-0.5s1.9-0.4,3.1-0.6  c1.2-0.2,2.5-0.4,4-0.5c1.4-0.2,3-0.2,4.6-0.3c0.8-0.1,1.6,0,2.5,0c0.8,0,1.7,0,2.6,0.1c0.9,0.1,1.7,0.2,2.6,0.3  c0.9,0.1,1.7,0.4,2.6,0.5c1.8,0.2,3.5,1,5.2,1.5c0.9,0.2,1.7,0.7,2.5,1.1s1.7,0.7,2.5,1.1c1.5,1,3.1,1.8,4.6,2.7  c1.4,1.1,2.8,2,4.2,3c1.3,1.1,2.4,2.1,3.5,3c0.6,0.5,1.1,0.9,1.6,1.3c0.5,0.5,1,0.9,1.4,1.4c0.9,0.9,1.7,1.6,2.3,2.2  C212.4,271.6,213.2,272.3,213.2,272.3z"/>
<g>
	<path style="fill:#CED5E0;" d="M328.6,233.9c0,0-3,0.6-8.1,2c-2.5,0.7-5.6,1.6-9.1,2.8s-7.4,2.5-11.3,4.5s-7.8,4.7-11.4,8.1   c-0.9,0.8-1.7,1.8-2.7,2.8c-0.8,1-1.6,1.9-2.3,2.9c-1.5,2-2.8,4.3-3.8,6.7c-1.9,4.8-2.4,10.2-1.1,15.4c1.2,5.3,4,10.3,7.4,14.8   c1.7,2.3,3.6,4.4,5.6,6.4c1.1,1.1,1.9,1.8,3.2,2.9c1.1,0.9,2.3,2.1,3.5,3.3c4.4,4.7,7.8,10.1,10.2,15.5c2.4,5.5,4.1,11,5,16.3   c1,5.3,1.5,10.4,1.5,15c0.2,9.3-0.9,16.9-1.9,22.2c-0.5,2.6-1,4.7-1.4,6.1s-0.6,2.1-0.6,2.1s-0.1-3-0.3-8.3   c-0.2-5.3-0.6-12.8-1.8-21.5c-0.6-4.4-1.4-9.1-2.6-13.9c-1.3-4.8-2.7-9.8-5-14.7c-2.2-4.9-5-9.6-8.6-13.7c-0.8-1-1.7-2-2.8-3.1   c-0.9-0.9-2.3-2.1-3.3-3.3c-2.2-2.3-4.2-4.7-6.1-7.3c-3.7-5.2-6.6-11.1-7.9-17.5s-0.5-13.2,2.2-18.8c2.6-5.6,6.7-10.1,10.7-13.5   c4.1-3.5,8.7-6,13-7.8s8.4-2.8,12-3.6s6.8-1.4,9.4-1.8C325.6,234.2,328.6,233.9,328.6,233.9z"/>
	<path style="fill:#CED5E0;" d="M176.1,233.9c0,0,3,0.2,8.3,1c2.6,0.4,5.8,1,9.4,1.8c3.6,0.8,7.7,1.8,12,3.6s8.8,4.3,13,7.8   c4,3.4,8.2,7.9,10.7,13.5c2.7,5.6,3.5,12.4,2.2,18.8c-1.2,6.4-4.2,12.3-7.9,17.5c-1.9,2.6-3.9,5.1-6.1,7.3c-1,1.1-2.4,2.3-3.3,3.3   c-1.1,1.1-2,2.1-2.8,3.1c-3.6,4.2-6.4,8.9-8.6,13.7c-2.3,4.8-3.7,9.9-5,14.7c-1.2,4.8-2,9.5-2.6,13.9c-1.1,8.8-1.6,16.3-1.8,21.5   c-0.2,5.3-0.3,8.3-0.3,8.3s-0.2-0.7-0.6-2.1c-0.4-1.4-0.9-3.4-1.4-6.1c-1-5.3-2.1-12.9-1.9-22.2c0-4.7,0.5-9.7,1.5-15   c0.9-5.3,2.6-10.8,5-16.3c2.5-5.5,5.8-10.8,10.2-15.5c1.2-1.2,2.4-2.3,3.5-3.3c1.3-1.1,2.2-1.9,3.2-2.9c2-2,3.9-4.2,5.6-6.4   c3.4-4.5,6.2-9.6,7.4-14.8c1.3-5.2,0.9-10.6-1.1-15.4c-1-2.4-2.2-4.7-3.8-6.7c-0.7-1.1-1.5-1.9-2.3-2.9c-1-1-1.8-1.9-2.7-2.8   c-3.6-3.4-7.5-6.1-11.4-8.1s-7.8-3.3-11.3-4.5s-6.5-2-9.1-2.8C179.1,234.5,176.1,233.9,176.1,233.9z"/>
	<path style="fill:#CED5E0;" d="M252.4,314.2c-35.8,0-64.8,28.2-64.8,62.9c0,18.3,8,27.9,20.8,32.9c13.6-1.5,26.6-4.8,40.3-3   c7.9,1,15.2-2,23.1-1.8c6.8,0.2,14.1,4.4,20.6,3.8c1.9-0.2,3.6,0.1,5,0.6c12.2-5.1,19.8-14.7,19.8-32.4   C317.2,342.4,288.2,314.2,252.4,314.2z"/>
</g>
<g>
	<path style="fill:#2B3B4E;" d="M291.6,356c0,16.6-17.6,21.4-39.2,21.4c-21.7,0-39.2-4.8-39.2-21.4c0-0.8,0-1.6,0.1-2.4   c2.5,2.3,6.1,4.7,10.5,5.8c4.2,1.5,9.4,1.9,14.4,1.2c6.4-0.8,9.6-8.1,6-13.5c-2.8-4.1-8.4-5-12.4-2c-2.1,1.5-4.6,2.9-7.4,3.5   c-3.4,1.1-7.3,1.1-10.5,0.7c3.8-15.3,19.5-32.1,38.4-32.1c18.8,0,34.6,16.8,38.3,32.1c-3.2,0.4-7.1,0.5-10.5-0.7   c-2.8-0.6-5.3-2-7.4-3.5c-4-2.9-9.6-2.1-12.4,2c-3.6,5.3-0.4,12.6,6,13.5c5,0.6,10.2,0.3,14.4-1.2c4.5-1.2,8-3.5,10.5-5.8   C291.5,354.4,291.6,355.2,291.6,356z"/>
	<path style="fill:#2B3B4E;" d="M300.6,408.4c-0.3,0.2-0.8,0.3-1.5,0.5c-0.3,0.1-0.7,0.1-1.1,0.2c-0.4,0-0.8,0.1-1.3,0.1   c-0.9,0-2,0-3.1-0.1c-2.3-0.2-4.9-0.8-7.6-1.6c-1.4-0.5-2.8-1-4.2-1.5c-1.5-0.5-3-0.9-4.6-1.3c-1.6-0.3-3.1-0.8-4.7-1   c-0.8-0.1-1.6-0.2-2.3-0.4c-0.8-0.1-1.6-0.1-2.3-0.2c-0.8-0.1-1.5-0.1-2.3-0.1c-0.7,0-1.5,0-2.2,0c-1.4,0.1-2.8,0.3-4.1,0.5   c-0.6,0.1-1.3,0.3-1.8,0.4c-0.6,0.2-1.1,0.4-1.7,0.5c-1,0.4-1.9,0.8-2.7,1.2c-0.3,0.1-0.5,0.3-0.7,0.4c-0.2-0.1-0.4-0.3-0.7-0.4   c-0.7-0.4-1.6-0.8-2.7-1.2c-0.5-0.2-1.1-0.3-1.7-0.5c-0.6-0.1-1.2-0.3-1.8-0.4c-1.3-0.2-2.7-0.4-4.1-0.5c-0.7-0.1-1.5-0.1-2.2,0   c-0.7,0-1.5,0-2.3,0.1s-1.5,0.1-2.3,0.2s-1.6,0.2-2.3,0.4c-1.6,0.2-3.1,0.6-4.7,1c-1.5,0.4-3.1,0.9-4.6,1.3c-1.4,0.5-2.9,1-4.2,1.5   c-2.7,0.8-5.4,1.3-7.6,1.6c-1.1,0.1-2.2,0.2-3.1,0.1c-0.5,0-0.9-0.1-1.3-0.1c-0.4-0.1-0.8-0.1-1.1-0.2c-0.6-0.2-1.2-0.3-1.5-0.5   s-0.5-0.2-0.5-0.2s0.2,0.1,0.5,0.3c0.3,0.2,0.8,0.4,1.4,0.7c0.3,0.1,0.7,0.2,1.1,0.3c0.4,0.1,0.8,0.2,1.3,0.3c1,0.1,2,0.3,3.2,0.3   c2.4,0.1,5.1-0.1,8.1-0.6c1.4-0.3,2.9-0.6,4.4-0.9s3-0.5,4.5-0.7c1.5-0.1,3-0.3,4.5-0.3c0.7,0,1.5,0,2.2,0s1.4,0.1,2.1,0.1   c0.7,0,1.4,0.1,2,0.2c0.7,0.1,1.3,0.2,1.9,0.3c1.2,0.2,2.3,0.5,3.3,0.8c0.5,0.2,0.9,0.4,1.4,0.5c0.4,0.2,0.8,0.4,1.2,0.5   c0.7,0.4,1.3,0.7,1.7,1c0.3,0.2,0.5,0.4,0.6,0.5h6.9c0.2-0.1,0.4-0.3,0.6-0.5c0.4-0.3,1-0.7,1.7-1c0.4-0.2,0.8-0.4,1.2-0.5   c0.4-0.2,0.9-0.3,1.4-0.5c1-0.3,2.1-0.6,3.3-0.8c0.6-0.1,1.2-0.2,1.9-0.3c0.6-0.1,1.3-0.2,2-0.2s1.4-0.1,2.1-0.1s1.4,0,2.2,0   c1.5,0,3,0.2,4.5,0.3c1.5,0.2,3,0.4,4.5,0.7c1.5,0.3,3,0.6,4.4,0.9c3,0.5,5.7,0.6,8.1,0.6c1.2,0,2.3-0.2,3.2-0.3   c0.5-0.1,0.9-0.2,1.3-0.3c0.4-0.1,0.8-0.2,1.1-0.3C299.9,408.9,300.4,408.7,300.6,408.4c0.3-0.1,0.5-0.2,0.5-0.2   S301,408.2,300.6,408.4z"/>
</g>
<g>
	<circle style="fill:#324A5E;" cx="185.9" cy="261.4" r="5.3"/>
	<circle style="fill:#324A5E;" cx="318.9" cy="261.4" r="5.3"/>
</g>
<g>
	<ellipse style="fill:#FFFFFF;" cx="189" cy="261" rx="2.3" ry="3.1"/>
	<ellipse style="fill:#FFFFFF;" cx="315.7" cy="261" rx="2.3" ry="3.1"/>
</g>
<g>
</g>
<g>
</g>
<g>
</g>
<g>
</g>
<g>
</g>
<g>
</g>
<g>
</g>
<g>
</g>
<g>
</g>
<g>
</g>
<g>
</g>
<g>
</g>
<g>
</g>
<g>
</g>
<g>
</g>
</svg>
