<?xml version="1.0" encoding="iso-8859-1"?>
<!-- Generator: Adobe Illustrator 19.0.0, SVG Export Plug-In . SVG Version: 6.00 Build 0)  -->
<svg xmlns="http://www.w3.org/2000/svg" xmlns:xlink="http://www.w3.org/1999/xlink" version="1.1" id="Layer_1" x="0px" y="0px" viewBox="0 0 505 505" style="enable-background:new 0 0 505 505;" xml:space="preserve">
<circle style="fill:#2B3B4E;" cx="252.5" cy="252.5" r="252.5"/>
<path style="fill:#ACB3BA;" d="M411.4,273.4c-9.7-75.2-42.7-101.8-42.7-101.8l20.9,10.3C334.4,80.5,252.5,95.5,252.5,95.5  s-81.9-15-137.2,86.4l20.9-10.3c0,0-33,26.6-42.7,101.8l14.8-10.9c0,0-23.4,73,21.1,116.2l1.9-23c0,0,6,50.2,50.4,80.2l-5.6-19.2  c0,0,22.8,46,76.3,40.8c53.5,5.1,76.3-40.8,76.3-40.8l-5.6,19.2c44.3-30,50.4-80.2,50.4-80.2l1.9,23  c44.6-43.2,21.1-116.2,21.1-116.2L411.4,273.4z"/>
<path style="fill:#E6E9EE;" d="M356.6,172c-3.8-6.1-6.6-12.5-8.9-19.1c-7.9-22.4-20.9-47.8-41.1-58.7c-38-20.4-54.1-47.1-54.1-47.1  s-16.1,26.7-54.1,47.1c-20.2,10.8-33.2,36.2-41.1,58.7c-2.3,6.6-5.1,13-8.9,19.1c-14.8,23.5-23.5,52.1-23.5,83.1  c0,79.4,57.1,143.7,127.6,143.7s127.6-64.3,127.6-143.7C380.1,224.1,371.4,195.4,356.6,172z"/>
<g>
	<path style="fill:#2B3B4E;" d="M302.5,367.3c5.4-1.5,9.8-4.2,14.1-6.8c0.5-0.3,1.1-0.7,1.6-1c-11.8,2.2-24.5-0.7-36.2-3.7   c5.3-0.7,10.8-1.4,15.4-3.5c4.5-2.1,7.9-5.9,6.8-9.6c-7.9,5.2-21.3,5.6-29.7,0.8c-1.7-1-3.3-2.1-5.1-3.1c-5-2.5-12.6-2.6-17,0.2   c-4.4-2.8-12-2.7-17-0.2c-1.8,0.9-3.3,2.1-5.1,3.1c-8.4,4.7-21.9,4.4-29.7-0.8c-1.1,3.7,2.2,7.5,6.8,9.6c4.5,2.1,10,2.8,15.4,3.5   c-11.6,2.9-24.3,5.8-36.2,3.7c0.5,0.3,1.1,0.7,1.6,1c4.3,2.7,8.8,5.4,14.1,6.8c6.4,1.8,13.6,1.6,20.5,1.4c-5.9,4.8-15.3,7.5-24.4,7   c9.8,6.4,24.1,9.3,37.3,7.6c-4.7,0.2-9.4,0.8-14,1.5c6.9,6.5,20.8,5.6,30.6,4.2c9.9,1.4,23.7,2.3,30.6-4.2c-4.6-0.6-9.3-1.2-14-1.5   c13.2,1.6,27.4-1.3,37.3-7.6c-9.1,0.5-18.5-2.2-24.4-7C288.9,368.9,296.1,369.1,302.5,367.3z"/>
	<path style="fill:#2B3B4E;" d="M172.1,236.7c34-3,62.5,12.4,80.4,34.7c17.9-22.3,46.4-37.7,80.4-34.7   C311.1,158.4,193.9,158.3,172.1,236.7z"/>
</g>
<path style="fill:#324A5E;" d="M289.6,265.1c0,32.9-16.6,79.9-37.1,79.9s-37.1-47.1-37.1-79.9c0-32.9,16.6-39.1,37.1-39.1  S289.6,232.2,289.6,265.1z"/>
<path style="fill:#FF7058;" d="M282.2,334.5c0,12.9-13.3,29.2-29.7,29.2c-16.4,0-29.7-16.3-29.7-29.2c0-12.9,13.3-17.5,29.7-17.5  S282.2,321.6,282.2,334.5z"/>
<g>
	<path style="fill:#2B3B4E;" d="M269.1,346.2c-2.1,5.4-4.2,4.5-6.7,3.5c-2.6-1-4.7-1.8-2.6-7.1c2.1-5.4,7.6-13.3,10.1-12.3   C272.5,331.3,271.2,340.9,269.1,346.2z"/>
	<path style="fill:#2B3B4E;" d="M235.9,346.2c2.1,5.4,4.2,4.5,6.7,3.5c2.6-1,4.7-1.8,2.6-7.1c-2.1-5.4-7.6-13.3-10.1-12.3   C232.5,331.3,233.8,340.9,235.9,346.2z"/>
</g>
<path style="fill:#FFFFFF;" d="M278.1,217c1.2,9.3,8.4,16.6,16.2,16.2c7.8-0.4,13.2-8.3,12-17.6s-8.4-16.6-16.2-16.2  S277,207.6,278.1,217z"/>
<path style="fill:#F9B54C;" d="M280.5,219.5c0.8,6.1,6.3,10.7,12.4,10.4s10.5-5.5,9.7-11.5c-0.8-6.1-6.3-10.7-12.4-10.4  C284,208.3,279.7,213.4,280.5,219.5z"/>
<path style="fill:#2B3B4E;" d="M285.9,219.2c0.4,3.1,3.2,5.4,6.3,5.3c3.1-0.2,5.3-2.8,4.9-5.8s-3.2-5.4-6.3-5.3  C287.7,213.5,285.5,216.2,285.9,219.2z"/>
<path style="fill:#FFFFFF;" d="M287.2,212.1c-0.8,1.4,0,2.9,1.8,3.3c1.8,0.4,3.9-0.3,4.8-1.7c0.8-1.4,0-2.9-1.8-3.3  S288,210.8,287.2,212.1z"/>
<path style="fill:#324A5E;" d="M276.9,193.1c0,0,2.2-0.9,5.1-1.7c0.7-0.2,1.6-0.3,2.4-0.5c0.8-0.1,1.7-0.3,2.6-0.3  c0.9-0.1,1.8,0,2.7,0c0.9,0,1.8,0.2,2.7,0.3c0.9,0.3,1.8,0.3,2.7,0.6c0.9,0.3,1.8,0.5,2.6,0.9c0.9,0.3,1.7,0.7,2.5,1  c0.8,0.4,1.6,0.7,2.3,1c1.5,0.6,2.6,1.3,3.6,1.7c0.9,0.4,1.5,0.6,1.5,0.6s-0.2-0.5-0.7-1.4c-0.2-0.4-0.5-1-0.9-1.6s-0.8-1.3-1.4-1.9  c-0.6-0.6-1.2-1.3-1.9-2c-0.8-0.7-1.6-1.3-2.6-1.9c-0.9-0.7-2-1.1-3.1-1.6s-2.3-0.7-3.5-1c-1.2-0.1-2.5-0.3-3.7-0.2  s-2.4,0.2-3.5,0.6c-1.1,0.2-2.1,0.8-3.1,1.2c-0.9,0.5-1.7,1-2.4,1.6c-1.4,1.1-2.3,2.3-2.9,3.1C277.1,192.6,276.9,193.1,276.9,193.1z  "/>
<path style="fill:#FFFFFF;" d="M226.9,217c-1.2,9.3-8.4,16.6-16.2,16.2c-7.8-0.4-13.2-8.3-12-17.6s8.4-16.6,16.2-16.2  S228,207.6,226.9,217z"/>
<path style="fill:#F9B54C;" d="M224.5,219.5c-0.8,6.1-6.3,10.7-12.4,10.4c-6.1-0.3-10.5-5.5-9.7-11.5c0.8-6.1,6.3-10.7,12.4-10.4  C221,208.3,225.3,213.4,224.5,219.5z"/>
<path style="fill:#2B3B4E;" d="M219.1,219.2c-0.4,3.1-3.2,5.4-6.3,5.3c-3.1-0.2-5.3-2.8-4.9-5.8c0.4-3.1,3.2-5.4,6.3-5.3  C217.3,213.5,219.5,216.2,219.1,219.2z"/>
<path style="fill:#FFFFFF;" d="M217.8,212.1c0.8,1.4,0,2.9-1.8,3.3c-1.8,0.4-3.9-0.3-4.8-1.7c-0.8-1.4,0-2.9,1.8-3.3  S217,210.8,217.8,212.1z"/>
<path style="fill:#324A5E;" d="M228.1,193.1c0,0-2.2-0.9-5.1-1.7c-0.7-0.2-1.6-0.3-2.4-0.5c-0.8-0.1-1.7-0.3-2.6-0.3  c-0.9-0.1-1.8,0-2.7,0s-1.8,0.2-2.7,0.3c-0.9,0.3-1.8,0.3-2.7,0.6s-1.8,0.5-2.6,0.9c-0.9,0.3-1.7,0.7-2.5,1c-0.8,0.4-1.6,0.7-2.3,1  c-1.5,0.6-2.6,1.3-3.6,1.7c-0.9,0.4-1.5,0.6-1.5,0.6s0.2-0.5,0.7-1.4c0.2-0.4,0.5-1,0.9-1.6s0.8-1.3,1.4-1.9c0.6-0.6,1.2-1.3,1.9-2  c0.8-0.7,1.6-1.3,2.6-1.9c0.9-0.7,2-1.1,3.1-1.6s2.3-0.7,3.5-1c1.2-0.1,2.5-0.3,3.7-0.2s2.4,0.2,3.5,0.6c1.1,0.2,2.1,0.8,3.1,1.2  c0.9,0.5,1.7,1,2.4,1.6c1.4,1.1,2.3,2.3,2.9,3.1C227.9,192.6,228.1,193.1,228.1,193.1z"/>
<g>
</g>
<g>
</g>
<g>
</g>
<g>
</g>
<g>
</g>
<g>
</g>
<g>
</g>
<g>
</g>
<g>
</g>
<g>
</g>
<g>
</g>
<g>
</g>
<g>
</g>
<g>
</g>
<g>
</g>
</svg>
