<?xml version="1.0" encoding="iso-8859-1"?>
<!-- Generator: Adobe Illustrator 19.0.0, SVG Export Plug-In . SVG Version: 6.00 Build 0)  -->
<svg xmlns="http://www.w3.org/2000/svg" xmlns:xlink="http://www.w3.org/1999/xlink" version="1.1" id="Layer_1" x="0px" y="0px" viewBox="0 0 505 505" style="enable-background:new 0 0 505 505;" xml:space="preserve">
<circle style="fill:#324A5E;" cx="252.5" cy="252.5" r="252.5"/>
<g>
	<path style="fill:#F9B54C;" d="M368.6,169.2c-15.8,15.8-42.6,25.3-53.2,14.6c-10.7-10.7-1.2-37.4,14.6-53.2   c15.8-15.8,31.9-14.6,42.5-4C383.2,137.3,384.4,153.4,368.6,169.2z"/>
	<path style="fill:#F9B54C;" d="M136.4,169.2c15.8,15.8,42.6,25.3,53.2,14.6c10.7-10.7,1.2-37.4-14.6-53.2s-31.9-14.6-42.5-4   C121.8,137.3,120.6,153.4,136.4,169.2z"/>
</g>
<path style="fill:#FFD05B;" d="M397.2,300.1c0,83.6-64.8,103.8-144.7,103.8s-144.7-20.2-144.7-103.8s64.8-199,144.7-199  S397.2,216.5,397.2,300.1z"/>
<ellipse style="fill:#FF7058;" cx="252.5" cy="328" rx="37.3" ry="24.7"/>
<g>
	<path style="fill:#FFFFFF;" d="M264.9,362.9h-6.6c-2.3,0-4.2-1.9-4.2-4.2v-39.4h22.3l-7.3,40.2   C268.7,361.5,266.9,362.9,264.9,362.9z"/>
	<path style="fill:#FFFFFF;" d="M240.1,362.9h6.6c2.3,0,4.2-1.9,4.2-4.2v-39.4h-22.3l7.3,40.2C236.3,361.5,238.1,362.9,240.1,362.9z   "/>
</g>
<path style="fill:#F9B54C;" d="M219.2,244.3c-10.1,15.6-18.6,36.7-18.9,61.3c-0.2,14.9,11,28.1,25.9,29c11.4,0.7,21.4-5.6,26.3-14.9  c4.8,9.4,14.9,15.6,26.3,14.9c14.9-0.9,26.1-14.1,25.9-29c-0.3-24.6-8.8-45.7-18.9-61.3c-7.3-11.3-19.9-18-33.3-18l0,0  C239.1,226.3,226.5,233,219.2,244.3z"/>
<g>
	<path style="fill:#2B3B4E;" d="M276.9,264.7c0,9.6-10.9,22.4-24.4,22.4s-24.4-12.9-24.4-22.4c0-9.6,10.9-12.2,24.4-12.2   S276.9,255.1,276.9,264.7z"/>
	<path style="fill:#2B3B4E;" d="M279.5,296c0,0,6-0.5,14.9,0.3c4.4,0.5,9.7,1.1,15.1,2.3c5.5,1.1,11.3,2.7,17,4.4   c5.7,1.9,11.3,4,16.4,6.2c5.1,2.3,9.8,4.6,13.7,6.8c4,2,7.1,4.2,9.3,5.5c2.2,1.4,3.4,2.2,3.4,2.2s-1.4-0.6-3.8-1.6   c-2.4-1.1-5.8-2.6-9.9-4.3c-4-1.8-8.9-3.6-14-5.6c-5.2-1.9-10.7-3.9-16.3-5.7c-11.2-3.6-22.6-6.5-31.3-8.3   C285.4,296.7,279.5,296,279.5,296z"/>
	<path style="fill:#2B3B4E;" d="M278,304c0,0,3.8-0.3,9.3,0.5c2.8,0.4,6,0.9,9.4,1.8c3.4,0.8,6.9,2.1,10.4,3.4   c7,2.7,13.5,6.5,18,9.8c4.6,3.2,7.2,5.9,7.2,5.9s-0.8-0.4-2.3-1.1c-1.4-0.7-3.5-1.7-6-3c-2.4-1.3-5.4-2.5-8.5-4   c-3.1-1.4-6.5-2.8-9.9-4.1c-3.4-1.4-6.8-2.6-10-3.7s-6.2-2.2-8.9-2.9C281.6,304.9,278,304,278,304z"/>
	<path style="fill:#2B3B4E;" d="M275,313.3c0,0,4.7,0.3,11.5,2c3.4,0.9,7.4,2,11.5,3.6c4.1,1.5,8.4,3.5,12.6,5.5   c4.2,2.2,8.3,4.5,11.9,6.9c3.7,2.4,7,4.9,9.7,7c5.5,4.4,8.8,7.7,8.8,7.7s-1-0.6-2.8-1.6c-1.7-1.1-4.2-2.6-7.2-4.4   c-2.9-1.9-6.5-3.8-10.2-6c-3.8-2.1-7.8-4.3-11.9-6.4c-8.2-4.1-16.6-7.9-23.1-10.5C279.4,314.7,275,313.3,275,313.3z"/>
	<path style="fill:#2B3B4E;" d="M225.5,296c0,0-6-0.5-14.9,0.3c-4.4,0.5-9.7,1.1-15.1,2.3c-5.5,1.1-11.3,2.7-17,4.4   c-5.7,1.9-11.3,4-16.4,6.2c-5.1,2.3-9.8,4.6-13.7,6.8c-4,2-7.1,4.2-9.3,5.5c-2.2,1.4-3.4,2.2-3.4,2.2s1.4-0.6,3.8-1.6   c2.4-1.1,5.8-2.6,9.9-4.3c4-1.8,8.9-3.6,14-5.6c5.2-1.9,10.7-3.9,16.3-5.7c11.2-3.6,22.6-6.5,31.3-8.3   C219.6,296.7,225.5,296,225.5,296z"/>
	<path style="fill:#2B3B4E;" d="M227,304c0,0-3.8-0.3-9.3,0.5c-2.8,0.4-6,0.9-9.4,1.8c-3.4,0.8-6.9,2.1-10.4,3.4   c-7,2.7-13.5,6.5-18,9.8c-4.6,3.2-7.2,5.9-7.2,5.9s0.8-0.4,2.3-1.1c1.4-0.7,3.5-1.7,6-3c2.4-1.3,5.4-2.5,8.5-4   c3.1-1.4,6.5-2.8,9.8-4.1c3.4-1.4,6.8-2.6,10-3.7s6.2-2.2,8.9-2.9C223.4,304.9,227,304,227,304z"/>
	<path style="fill:#2B3B4E;" d="M230,313.3c0,0-4.7,0.3-11.5,2c-3.4,0.9-7.4,2-11.5,3.6c-4.1,1.5-8.4,3.5-12.6,5.5   c-4.2,2.2-8.3,4.5-11.9,6.9c-3.7,2.4-7,4.9-9.7,7c-5.5,4.4-8.8,7.7-8.8,7.7s1-0.6,2.8-1.6c1.7-1.1,4.2-2.6,7.2-4.4   c2.9-1.9,6.5-3.8,10.2-6c3.8-2.1,7.8-4.3,11.9-6.4c8.2-4.1,16.6-7.9,23.1-10.5C225.6,314.7,230,313.3,230,313.3z"/>
</g>
<ellipse transform="matrix(0.4282 0.9037 -0.9037 0.4282 371.2028 -154.0492)" style="fill:#FFFFFF;" cx="307.332" cy="216.301" rx="27.8" ry="14.8"/>
<ellipse transform="matrix(0.4282 0.9037 -0.9037 0.4282 375.6805 -152.3075)" style="fill:#54C0EB;" cx="308.194" cy="220.71" rx="18.1" ry="11.6"/>
<ellipse transform="matrix(0.4282 0.9037 -0.9037 0.4282 375.6805 -152.3075)" style="fill:#2B3B4E;" cx="308.194" cy="220.71" rx="9.2" ry="5.9"/>
<ellipse style="fill:#FFFFFF;" cx="303.7" cy="211.9" rx="3.7" ry="4.4"/>
<path style="fill:#324A5E;" d="M280.6,174c0,0,2.7-1.1,6.3-2.1c0.9-0.3,1.9-0.4,2.9-0.6c1-0.1,2.1-0.3,3.1-0.3c1.1-0.1,2.2,0,3.3,0  c1.1,0,2.2,0.2,3.3,0.4c1.1,0.3,2.2,0.4,3.3,0.8c1.1,0.4,2.2,0.6,3.2,1.1c1.1,0.4,2.1,0.8,3.1,1.2c1,0.5,1.9,0.9,2.8,1.3  c1.8,0.7,3.2,1.6,4.4,2c1.1,0.5,1.8,0.7,1.8,0.7s-0.3-0.6-0.9-1.7c-0.3-0.5-0.7-1.2-1.1-1.9c-0.5-0.7-1-1.6-1.7-2.3  c-0.7-0.8-1.5-1.6-2.4-2.5c-0.9-0.8-2-1.5-3.1-2.3s-2.5-1.3-3.8-1.9c-1.3-0.6-2.9-0.9-4.3-1.3c-1.5-0.2-3-0.4-4.5-0.3  c-1.5,0.1-3,0.3-4.3,0.7c-1.4,0.3-2.6,1-3.8,1.5c-1.1,0.7-2.1,1.3-3,2c-1.7,1.3-2.8,2.8-3.5,3.8C280.8,173.3,280.6,174,280.6,174z"/>
<ellipse transform="matrix(0.4282 -0.9037 0.9037 0.4282 -82.4355 302.3445)" style="fill:#FFFFFF;" cx="197.696" cy="216.313" rx="27.8" ry="14.8"/>
<ellipse transform="matrix(0.4282 -0.9037 0.9037 0.4282 -86.9202 304.0466)" style="fill:#54C0EB;" cx="196.799" cy="220.708" rx="18.1" ry="11.6"/>
<ellipse transform="matrix(0.4282 -0.9037 0.9037 0.4282 -86.9202 304.0466)" style="fill:#2B3B4E;" cx="196.799" cy="220.708" rx="9.2" ry="5.9"/>
<ellipse style="fill:#FFFFFF;" cx="201.3" cy="211.9" rx="3.7" ry="4.4"/>
<path style="fill:#324A5E;" d="M224.4,174c0,0-2.7-1.1-6.3-2.1c-0.9-0.3-1.9-0.4-2.9-0.6c-1-0.1-2.1-0.3-3.1-0.3  c-1.1-0.1-2.2,0-3.3,0s-2.2,0.2-3.3,0.4c-1.1,0.3-2.2,0.4-3.3,0.8c-1.1,0.4-2.2,0.6-3.2,1.1c-1.1,0.4-2.1,0.8-3.1,1.2  c-1,0.5-1.9,0.9-2.8,1.3c-1.8,0.7-3.2,1.6-4.4,2c-1.1,0.5-1.8,0.7-1.8,0.7s0.3-0.6,0.9-1.7c0.3-0.5,0.7-1.2,1.1-1.9  c0.5-0.7,1-1.6,1.7-2.3c0.7-0.8,1.5-1.6,2.4-2.5c0.9-0.8,2-1.5,3.1-2.3s2.5-1.3,3.8-1.9c1.3-0.6,2.9-0.9,4.3-1.3  c1.5-0.2,3-0.4,4.5-0.3c1.5,0.1,3,0.3,4.3,0.7c1.4,0.3,2.6,1,3.8,1.5c1.1,0.7,2.1,1.3,3,2c1.7,1.3,2.8,2.8,3.5,3.8  C224.2,173.3,224.4,174,224.4,174z"/>
<g>
</g>
<g>
</g>
<g>
</g>
<g>
</g>
<g>
</g>
<g>
</g>
<g>
</g>
<g>
</g>
<g>
</g>
<g>
</g>
<g>
</g>
<g>
</g>
<g>
</g>
<g>
</g>
<g>
</g>
</svg>
