<?xml version="1.0" encoding="iso-8859-1"?>
<!-- Generator: Adobe Illustrator 19.0.0, SVG Export Plug-In . SVG Version: 6.00 Build 0)  -->
<svg xmlns="http://www.w3.org/2000/svg" xmlns:xlink="http://www.w3.org/1999/xlink" version="1.1" id="Layer_1" x="0px" y="0px" viewBox="0 0 505 505" style="enable-background:new 0 0 505 505;" xml:space="preserve">
<circle style="fill:#90DFAA;" cx="252.5" cy="252.5" r="252.5"/>
<g>
	<path style="fill:#324A5E;" d="M448.3,239.6c-7.6-18.7-19.8-35-32.2-50.9c-50.5-64.6-93.4-59.8-93.4-59.8   c32.9,24,14.2,100.7,7.9,109.1c6.1-6.7,11.6-14,16.4-21.6c-5,28.7-14.1,57.4-11.4,86.4c1.7,18.5,8.3,36.6,18.9,51.9   c1.9,2.7,3.9,5.4,4.9,8.5c1.3,4.1,0.5,8.6-0.6,12.8c-2.1,7.7-5.4,15-9.8,21.6c10.1-2.1,20.5-4.4,28.9-10.4s14.1-16.9,11-26.7   c4.3,8.2,5.8,17.9,4.1,27.1c13.5-4.4,24.6-15.7,28.7-29.2c2.1-6.7,2.6-14.1,6.4-20c0.2,7.9,0.5,15.8,0.7,23.7   c15.1-18.5,25.2-42.9,20.5-66.3c-1.2-6-3-13.3,1.5-17.5c2.1,7.3,4.6,14.5,7.4,21.5C459.4,279.3,456,258.6,448.3,239.6z"/>
	<path style="fill:#324A5E;" d="M60.6,239.6c7.6-18.7,19.8-35,32.2-50.9c50.5-64.6,93.4-59.8,93.4-59.8   c-32.9,24-14.2,100.7-7.9,109.1c-6.1-6.7-11.6-14-16.4-21.6c5,28.7,14.1,57.4,11.4,86.4c-1.7,18.5-8.3,36.6-18.9,51.9   c-1.9,2.7-3.9,5.4-4.9,8.5c-1.3,4.1-0.5,8.6,0.6,12.8c2.1,7.7,5.4,15,9.8,21.6c-10.1-2.1-20.5-4.4-28.9-10.4s-14.1-16.9-11-26.7   c-4.3,8.2-5.8,17.9-4.1,27.1c-13.5-4.4-24.6-15.7-28.7-29.2c-2.1-6.7-2.6-14.1-6.4-20c-0.2,7.9-0.5,15.8-0.7,23.7   c-15.1-18.5-25.2-42.9-20.5-66.3c1.2-6,3-13.3-1.5-17.5c-2.1,7.3-4.6,14.5-7.4,21.5C49.6,279.3,53,258.6,60.6,239.6z"/>
</g>
<path style="fill:#FFFFFF;" d="M366.3,239c-0.5-18.5,4-136.3-111.8-131.4C138.7,102.7,143.2,220.5,142.7,239  c-0.2,6.8-0.3,13.6,1.1,20.2c2.2,9.9,7.8,18.6,13.1,27.2c6.4,10.7,12.4,21.8,16.2,33.7c1.8,5.7,3.2,11.5,5.1,17.2  c11,32.4,42.3,56.8,76.3,59.5c34.1-2.8,65.4-27.2,76.3-59.5c1.9-5.7,3.3-11.5,5.1-17.2c3.8-11.9,9.7-23,16.2-33.7  c5.2-8.7,10.9-17.4,13.1-27.2C366.6,252.5,366.4,245.7,366.3,239z"/>
<path style="fill:#ACB3BA;" d="M296.2,348.8c0,26.5-18.7,32.1-41.7,32.1s-41.7-5.6-41.7-32.1s18.7-63.8,41.7-63.8  C277.5,285.1,296.2,322.4,296.2,348.8z"/>
<path style="fill:#CED5E0;" d="M301.5,328.3c0,29.8-21,36.2-47,36.2c-25.9,0-47-6.4-47-36.2s21-71.9,47-71.9  C280.4,256.5,301.5,298.5,301.5,328.3z"/>
<path style="fill:#2B3B4E;" d="M281.9,316c0,10.2-12.3,23.9-27.4,23.9s-27.4-13.7-27.4-23.9c0-10.2,12.3-13.2,27.4-13.2  C269.6,302.9,281.9,305.8,281.9,316z"/>
<g>
	<path style="fill:#E6E9EE;" d="M181.2,164c6.7-3.7,13.7-7.3,21.2-9s15.7-1.5,22.5,2.1c2.8,1.5,5.4,3.5,7.7,5.8   c5.5,5.2,9.9,11.4,13.1,18.3c-3-2.2-6.6-3.5-10.3-3.9c6,6,10.4,13.5,12.9,21.6c-2.3-2.6-5.4-4.6-8.7-5.5   c6.5,12.7,7.1,28.3,1.6,41.4c-1.9,4.5-4.4,8.7-6.9,12.8c-5.1,8.5-10.3,17.1-15.4,25.6c4.1-11.3,7.2-23,9.2-34.8   c-0.1,3.7-0.2,7.4-0.3,11.2c-2.2-2.4-1.3-6.4-2.9-9.3c-1.6-2.8-5.3-3.7-8.5-3.4s-6.2,1.7-9.4,2.3c-9.5,1.9-20-3.4-24.1-12.1   c-2.1-4.5-2.6-9.5-4-14.2c-1.7-5.7-4.7-10.9-8.7-15.2c10.4-4.3,23.5-6.2,32.1,1.1c-8.6-7.6-17.4-14.8-26.6-21.7   c-0.9,0.4-0.8,1.8,0,2.5c0.7,0.6,1.8,0.7,2.8,0.8c8,0.3,16.1-0.5,24.1,0.3s16.2,3.3,21.7,9.2c-4.3-8.1-12.1-14-20.8-17.1   c-8.6-3.1-18-3.6-27.2-2.8c2-1.9,4-3.7,5.9-5.6"/>
	<path style="fill:#E6E9EE;" d="M327.8,164c-6.7-3.7-13.7-7.3-21.2-9s-15.7-1.5-22.5,2.1c-2.8,1.5-5.4,3.5-7.7,5.8   c-5.5,5.2-9.9,11.4-13.1,18.3c3-2.2,6.6-3.5,10.3-3.9c-6,6-10.4,13.5-12.9,21.6c2.3-2.6,5.4-4.6,8.7-5.5   c-6.5,12.7-7.1,28.3-1.6,41.4c1.9,4.5,4.4,8.7,6.9,12.8c5.1,8.5,10.3,17.1,15.4,25.6c-4.1-11.3-7.2-23-9.2-34.8   c0.1,3.7,0.2,7.4,0.3,11.2c2.2-2.4,1.3-6.4,2.9-9.3c1.6-2.8,5.3-3.7,8.5-3.4s6.2,1.7,9.4,2.3c9.5,1.9,20-3.4,24.1-12.1   c2.1-4.5,2.6-9.5,4-14.2c1.7-5.7,4.7-10.9,8.7-15.2c-10.4-4.3-23.5-6.2-32.1,1.1c8.6-7.6,17.4-14.8,26.6-21.7   c0.9,0.4,0.8,1.8,0,2.5c-0.7,0.6-1.8,0.7-2.8,0.8c-8,0.3-16.1-0.5-24.1,0.3s-16.2,3.3-21.7,9.2c4.3-8.1,12.1-14,20.8-17.1   c8.6-3.1,18-3.6,27.2-2.8c-2-1.9-4-3.7-5.9-5.6"/>
</g>
<path style="fill:#FFFFFF;" d="M277.6,213.2c2,15.8,14.2,28,27.4,27.3c13.2-0.7,22.3-14,20.3-29.7c-2-15.8-14.2-28-27.4-27.3  C284.7,184.1,275.6,197.4,277.6,213.2z"/>
<path style="fill:#F9B54C;" d="M281.6,217.5c1.3,10.2,10.7,18.1,21,17.6s17.7-9.2,16.4-19.5c-1.3-10.2-10.7-18.1-21-17.6  C287.6,198.5,280.3,207.3,281.6,217.5z"/>
<path style="fill:#2B3B4E;" d="M290.8,217c0.6,5.2,5.4,9.2,10.7,8.9c5.2-0.3,9-4.7,8.3-9.9c-0.6-5.2-5.4-9.2-10.7-8.9  C293.9,207.4,290.1,211.8,290.8,217z"/>
<path style="fill:#FFFFFF;" d="M293,205.1c-1.4,2.4-0.1,4.9,3,5.6c3,0.7,6.7-0.6,8.1-2.9c1.4-2.4,0.1-4.9-3-5.6  C298,201.4,294.4,202.7,293,205.1z"/>
<path style="fill:#324A5E;" d="M275.6,172.9c0,0,3.7-1.6,8.7-2.9c1.2-0.4,2.6-0.5,4-0.9c1.4-0.1,2.8-0.5,4.3-0.5  c1.5-0.2,3-0.1,4.5,0s3,0.3,4.6,0.5c1.5,0.4,3.1,0.6,4.6,1.1c1.5,0.6,3,0.8,4.5,1.5c1.5,0.6,2.9,1.1,4.2,1.7  c1.3,0.7,2.6,1.2,3.9,1.8c2.5,1,4.5,2.2,6,2.8c1.5,0.7,2.5,1,2.5,1s-0.4-0.9-1.2-2.4c-0.4-0.7-0.9-1.6-1.6-2.6  c-0.6-1-1.4-2.1-2.4-3.2c-1-1.1-2.1-2.3-3.3-3.4c-1.3-1.1-2.8-2.1-4.3-3.2c-1.5-1.1-3.4-1.8-5.2-2.7c-1.8-0.9-3.9-1.2-5.9-1.7  c-2.1-0.2-4.2-0.5-6.3-0.4c-2.1,0.1-4.1,0.4-6,1c-1.9,0.4-3.6,1.3-5.2,2c-1.5,0.9-2.9,1.8-4.1,2.8c-2.4,1.8-3.9,3.9-4.9,5.3  C275.9,171.9,275.6,172.9,275.6,172.9z"/>
<path style="fill:#FFFFFF;" d="M231.4,213.2c-2,15.8-14.2,28-27.4,27.3s-22.3-14-20.3-29.7c2-15.8,14.2-28,27.4-27.3  C224.2,184.1,233.3,197.4,231.4,213.2z"/>
<path style="fill:#F9B54C;" d="M227.4,217.5c-1.3,10.2-10.7,18.1-21,17.6s-17.7-9.2-16.4-19.5c1.3-10.2,10.7-18.1,21-17.6  S228.7,207.3,227.4,217.5z"/>
<path style="fill:#2B3B4E;" d="M218.2,217c-0.6,5.2-5.4,9.2-10.7,8.9c-5.2-0.3-9-4.7-8.3-9.9c0.6-5.2,5.4-9.2,10.7-8.9  C215.1,207.4,218.8,211.8,218.2,217z"/>
<path style="fill:#FFFFFF;" d="M216,205.1c1.4,2.4,0.1,4.9-3,5.6c-3,0.7-6.7-0.6-8.1-2.9c-1.4-2.4-0.1-4.9,3-5.6  C211,201.4,214.6,202.7,216,205.1z"/>
<path style="fill:#324A5E;" d="M233.4,172.9c0,0-3.7-1.6-8.7-2.9c-1.2-0.4-2.6-0.5-4-0.9c-1.4-0.1-2.8-0.5-4.3-0.5  c-1.5-0.2-3-0.1-4.5,0s-3,0.3-4.6,0.5c-1.5,0.4-3.1,0.6-4.6,1.1c-1.5,0.6-3,0.8-4.5,1.5c-1.5,0.6-2.9,1.1-4.2,1.7  c-1.3,0.7-2.6,1.2-3.9,1.8c-2.5,1-4.5,2.2-6,2.8c-1.5,0.7-2.5,1-2.5,1s0.4-0.9,1.2-2.4c0.4-0.7,0.9-1.6,1.6-2.6  c0.6-1,1.4-2.1,2.4-3.2c1-1.1,2.1-2.3,3.3-3.4c1.3-1.1,2.8-2.1,4.3-3.2c1.5-1.1,3.4-1.8,5.2-2.7s3.9-1.2,5.9-1.7  c2.1-0.2,4.2-0.5,6.3-0.4s4.1,0.4,6,1c1.9,0.4,3.6,1.3,5.2,2c1.5,0.9,2.9,1.8,4.1,2.8c2.4,1.8,3.9,3.9,4.9,5.3  C233,171.9,233.4,172.9,233.4,172.9z"/>
<g>
</g>
<g>
</g>
<g>
</g>
<g>
</g>
<g>
</g>
<g>
</g>
<g>
</g>
<g>
</g>
<g>
</g>
<g>
</g>
<g>
</g>
<g>
</g>
<g>
</g>
<g>
</g>
<g>
</g>
</svg>
