<?xml version="1.0" encoding="iso-8859-1"?>
<!-- Generator: Adobe Illustrator 19.0.0, SVG Export Plug-In . SVG Version: 6.00 Build 0)  -->
<svg xmlns="http://www.w3.org/2000/svg" xmlns:xlink="http://www.w3.org/1999/xlink" version="1.1" id="Layer_1" x="0px" y="0px" viewBox="0 0 505 505" style="enable-background:new 0 0 505 505;" xml:space="preserve">
<circle style="fill:#324A5E;" cx="252.5" cy="252.5" r="252.5"/>
<path style="fill:#4CDBC4;" d="M425.2,269.2c-1.3-7-7.6-12.3-12.8-17.7c-14-14.7-21.6-33.8-21.1-52.9c0.4-12.9,3.8-27.4-5.6-37.3  c-9.7-10.3-27.5-9.9-42.2-13.7c-31.8-8.2-49.7-36.9-62-63.6c-5.7-12.3-15-26.8-29.1-28c-14.1,1.1-23.5,15.7-29.1,28  c-12.3,26.7-30.2,55.4-62,63.6c-14.7,3.8-32.5,3.4-42.2,13.7c-9.4,10-6,24.5-5.6,37.3c0.5,19-7.1,38.2-21.1,52.9  c-5.2,5.4-11.5,10.8-12.8,17.7c-1.9,10.4,8,19.3,17,26.3c-12.4,13.9-16.2,33.3-9.9,50c6.4,16.7,22.8,30.3,42.3,35  c9.8,2.4,20.2,2.7,30.1,4.9c22.8,5.1,40.6,20,61,30.2c10.1,5,20.9,8.8,32.1,11.5c11.2-2.7,22-6.5,32.1-11.5  c20.4-10.2,38.3-25,61-30.2c9.9-2.2,20.3-2.5,30.1-4.9c19.6-4.8,35.9-18.3,42.3-35s2.6-36.1-9.9-50  C417.3,288.4,427.1,279.5,425.2,269.2z"/>
<g>
	<path style="fill:#324A5E;" d="M279.8,324.1c-5.4,5.4-16.4,10.7-19.9,7.2s1.8-14.6,7.2-19.9c5.4-5.4,8.7-3,12.2,0.5   C282.8,315.4,285.2,318.7,279.8,324.1z"/>
	<path style="fill:#324A5E;" d="M225.2,324.1c5.4,5.4,16.4,10.7,19.9,7.2s-1.8-14.6-7.2-19.9c-5.4-5.4-8.7-3-12.2,0.5   C222.2,315.4,219.8,318.7,225.2,324.1z"/>
</g>
<path style="fill:#2C9984;" d="M254.9,91.2c-1-9.3-2.4-15.5-2.4-15.5s-1.4,6.2-2.4,15.5c-1.1,9.3-1.8,21.6-1.8,34s0.7,24.7,1.8,34  c1,9.3,2.4,15.4,2.4,15.4s1.4-6.2,2.4-15.4c1.1-9.3,1.7-21.6,1.8-34C256.6,112.8,255.9,100.4,254.9,91.2z"/>
<path style="fill:#324A5E;" d="M348.8,347.8c0,0-3.3-0.5-8.9-0.5c-5.6-0.3-13.6,0.7-21.8,4.6c-3.8,1.8-8,5.1-12.1,8.4  c-4.3,3.4-8.7,7.5-14.1,11.1c-5.4,3.8-11.8,7-18.8,8.7c-6.9,1.5-13.9,2-20.7,2h-1.3c-6.2,0-12.8-0.7-19.2-2  c-6.4-1.5-12.5-4.4-17.4-7.7c-0.5-0.3-1-0.7-1.5-1c-10.7-7.4-18.4-15.7-26.2-19.5c-8.2-3.9-16.2-4.9-21.8-4.8c-5.6,0.2-9,0.7-9,0.7  s3-1.5,8.7-3c5.6-1.1,14.4-2.6,24.6,0.5c5.2,1.6,10.3,4.4,15.1,7.5s9.5,6.6,14.4,9.5c3.8,2.3,7.5,3.9,11.8,4.9  c6.6,2,13.9,2.6,21.8,2.5c2,0,3.8,0,5.6-0.2c10.7-0.2,19.8-2.3,28.2-7.4c4.8-2.8,9.5-6.2,14.4-9.3c4.9-3.3,9.5-5.9,14.9-7.5  c10.3-3.1,19.2-1.8,24.7-0.5C345.9,346.3,348.8,347.8,348.8,347.8z"/>
<circle style="fill:#FFFFFF;" cx="359.7" cy="214.9" r="46.2"/>
<circle style="fill:#84DBFF;" cx="357.6" cy="212.8" r="31.9"/>
<circle style="fill:#324A5E;" cx="352.5" cy="207.7" r="15.8"/>
<g>
	<circle style="fill:#FFFFFF;" cx="345.5" cy="197.7" r="7.1"/>
	<circle style="fill:#FFFFFF;" cx="145.3" cy="214.9" r="46.2"/>
</g>
<circle style="fill:#84DBFF;" cx="147.4" cy="212.8" r="31.9"/>
<circle style="fill:#324A5E;" cx="152.5" cy="207.7" r="15.8"/>
<circle style="fill:#FFFFFF;" cx="159.5" cy="197.7" r="7.1"/>
<g>
</g>
<g>
</g>
<g>
</g>
<g>
</g>
<g>
</g>
<g>
</g>
<g>
</g>
<g>
</g>
<g>
</g>
<g>
</g>
<g>
</g>
<g>
</g>
<g>
</g>
<g>
</g>
<g>
</g>
</svg>
