<?xml version="1.0" encoding="iso-8859-1"?>
<!-- Generator: Adobe Illustrator 19.0.0, SVG Export Plug-In . SVG Version: 6.00 Build 0)  -->
<svg xmlns="http://www.w3.org/2000/svg" xmlns:xlink="http://www.w3.org/1999/xlink" version="1.1" id="Layer_1" x="0px" y="0px" viewBox="0 0 505 505" style="enable-background:new 0 0 505 505;" xml:space="preserve">
<circle style="fill:#90DFAA;" cx="252.5" cy="252.5" r="252.5"/>
<path style="fill:#324A5E;" d="M377.3,281.9c0.1-4.7-1-9.5-3.4-13.7c-2.8,29.2-6.8,61.1-27.9,81.5c-7.3,7-16.2,12.3-22.8,19.9  c-5.9,6.9-9.5,15.4-13,23.8c-0.8-4.7-1.1-9.4-0.8-14.2c-6.4,13.7-13.7,28.3-26.8,35.9c-9,5.2-19.5,6.3-30,6.6  c-10.5-0.3-21-1.5-30-6.6c-13.2-7.6-20.4-22.1-26.8-35.9c0.3,4.7,0,9.5-0.8,14.2c-3.5-8.3-7.1-16.9-13.1-23.8  c-6.5-7.7-15.5-12.9-22.8-19.9c-21.1-20.4-25.1-52.3-27.9-81.5c-2.3,4.1-3.5,8.9-3.4,13.7c-4.8-40.1,0.8-81.5,16.2-118.9  c3.1-7.5,6.6-14.9,11.2-21.7c17.2-25.3,48.2-38.7,78.7-40.9c-5.4-4-9-10.4-9.6-17.1c9.4,6,18.9,11.9,28.3,17.9  c9.4-5.9,18.9-11.9,28.3-17.9c-0.6,6.7-4.2,13.1-9.6,17.1c30.5,2.2,61.5,15.6,78.7,40.9c4.6,6.7,8.1,14.2,11.2,21.7  C376.5,200.4,382.1,241.8,377.3,281.9z"/>
<path style="fill:#ACB3BA;" d="M345.5,292.2c-0.4,1.8-0.7,3.7-1.8,5.3c-2.5,3.8-7.8,4.3-12.4,4.5c-6.7,0.3-14.3,0.9-18.7,6.1  c-5.6,6.7-2.8,16.6-1.7,25.3c1.5,12.5-1.5,25.1-5.2,37.1c-3,9.8-6.8,19.7-14.2,26.7c-7.8,7.4-18.6,10.7-29.1,13.1  c-3.3,0.7-6.6,1.4-9.9,1.8c-3.3-0.4-6.6-1.1-9.9-1.8c-10.5-2.3-21.3-5.6-29.1-13.1c-7.4-7-11.2-17-14.2-26.7  c-3.7-12-6.7-24.6-5.2-37.1c1-8.7,3.9-18.7-1.7-25.3c-4.4-5.2-11.9-5.8-18.7-6.1c-4.6-0.2-9.8-0.7-12.4-4.5c-1-1.5-1.4-3.4-1.8-5.3  c-3.8-19.6-4.7-39.7-2.8-59.5c0.8-8.3,2.2-16.7,5.5-24.4c6.1-14.2,19.1-25.3,34.1-29c14.4-3.6,29.7-0.7,44,3.4c4,1.1,8,2.4,12.2,1.9  c4.1,0.4,8.2-0.8,12.2-1.9c14.3-4.1,29.5-7,44-3.4c15,3.7,28,14.8,34.1,29c3.3,7.7,4.6,16.1,5.5,24.4  C350.2,252.5,349.2,272.6,345.5,292.2z"/>
<g>
	<path style="fill:#324A5E;" d="M263,342.8c-3.3,1.6-6.8,2.8-10.5,3.4c-3.6-0.6-7.2-1.7-10.5-3.4c-5.3-2.6-10.4-7.6-9.7-13.5   c0.4-3.2,2.4-6,3.9-8.8c3.7-7,4.5-15.1,5.2-22.9c0.3-3.7,0.7-7.3,1-11c0.3-2.7,0.5-5.4,2-7.6c1.5-2.3,4.1-3.6,6.6-4.8   c0.4-0.2,0.9-0.4,1.4-0.6c0.5,0.2,0.9,0.4,1.4,0.6c2.5,1.2,5.1,2.5,6.6,4.8c1.5,2.2,1.8,5,2,7.6c0.3,3.6,0.7,7.3,1,11   c0.7,7.8,1.5,16,5.2,22.9c1.5,2.9,3.6,5.6,3.9,8.8C273.4,335.2,268.3,340.2,263,342.8z"/>
	<path style="fill:#324A5E;" d="M394.4,243.7c0,0-7.3,1.1-15.7-1.6c-1.3-27.1-7.2-54-17.6-79.1c-3.1-7.5-6.6-14.9-11.2-21.7   c-1.2-1.8-2.6-3.6-3.9-5.3c15.3-9.8,64.7-36.9,76.3,13.1C422.2,149.1,430,244.1,394.4,243.7z"/>
</g>
<path style="fill:#2B3B4E;" d="M394.4,243.7c0,0-7.3,1.1-15.7-1.6c-1-20.4-4.6-40.6-10.7-60.1c10.3-37.3,27.3-52.3,38.3-58.2  c7.1,4.1,12.9,12,16,25.4C422.2,149.1,430,244.1,394.4,243.7z"/>
<path style="fill:#324A5E;" d="M110.6,243.7c0,0,7.3,1.1,15.7-1.6c1.3-27.1,7.2-54,17.6-79.1c3.1-7.5,6.6-14.9,11.2-21.7  c1.2-1.8,2.6-3.6,3.9-5.3c-15.3-9.8-64.7-36.9-76.3,13.1C82.8,149.1,75,244.1,110.6,243.7z"/>
<g>
	<path style="fill:#2B3B4E;" d="M110.6,243.7c0,0,7.3,1.1,15.7-1.6c1-20.4,4.6-40.6,10.7-60.1c-10.3-37.3-27.3-52.3-38.3-58.2   c-7.1,4.1-12.9,12-16,25.4C82.8,149.1,75,244.1,110.6,243.7z"/>
	<path style="fill:#2B3B4E;" d="M316.7,232.6l-5.3,6.3c-1.2,1.4-2.5,2.7-3.9,3.9c-6.6,5.7-14.9,8.5-22.4,7.8   c-4.5-0.4-8.7-2-12.3-4.9l-5.3-4.4l5.3-6.3c2-2.3,4.2-4.3,6.5-6c6.8-4.8,14.7-6.7,21.8-5.4c3.7,0.7,7.2,2.2,10.2,4.6L316.7,232.6z"/>
</g>
<path style="fill:#FFD05B;" d="M308.7,237c0,2.1-0.4,4-1.1,5.8c-6.6,5.7-14.9,8.5-22.4,7.8c-4.7-2.7-7.9-7.8-7.9-13.7  c0-2.9,0.8-5.6,2.2-7.9c6.8-4.8,14.7-6.7,21.8-5.4C305.7,226.3,308.7,231.3,308.7,237z"/>
<circle style="fill:#2B3B4E;" cx="292.9" cy="235" r="4.8"/>
<circle style="fill:#FFFFFF;" cx="297.8" cy="234.6" r="2.4"/>
<g>
	<path style="fill:#324A5E;" d="M316.7,232.6c0,0-0.8-0.5-2.2-1.3c-0.7-0.4-1.5-0.9-2.5-1.6c-0.5-0.3-1-0.7-1.5-0.9   c-0.5-0.3-1.1-0.7-1.7-1c-1.2-0.6-2.4-1.1-3.8-1.6c-0.7-0.3-1.4-0.4-2.2-0.6c-0.7-0.2-1.5-0.3-2.3-0.4c-0.8-0.1-1.6-0.2-2.4-0.2   c-0.8-0.1-1.6,0-2.5,0.1c-1.7,0.1-3.4,0.4-5,0.8c-1.7,0.4-3.3,0.9-4.8,1.6c-1.5,0.7-3.1,1.4-4.5,2.2c-0.7,0.4-1.4,0.8-2,1.3   c-0.6,0.4-1.3,0.8-1.9,1.3s-1.2,0.9-1.7,1.4s-1,0.9-1.5,1.4c-1,0.9-1.9,1.8-2.7,2.6c-0.8,0.8-1.5,1.4-2.1,2   c-1.2,1.1-1.9,1.7-1.9,1.7s0.5-0.8,1.3-2.2c0.4-0.7,1-1.5,1.6-2.4s1.3-2,2.2-3.1c0.4-0.6,0.9-1.1,1.4-1.8c0.5-0.6,1.1-1.1,1.7-1.7   c0.6-0.6,1.2-1.1,1.9-1.7c0.6-0.6,1.4-1.1,2.1-1.6s1.5-1.1,2.3-1.5c0.8-0.5,1.6-1,2.5-1.3c1.7-0.8,3.6-1.5,5.5-1.9s3.8-0.7,5.8-0.8   c1,0,1.9,0,2.9,0.1c0.9,0.1,1.9,0.2,2.8,0.4s1.8,0.4,2.6,0.7c0.8,0.3,1.6,0.6,2.4,1c1.5,0.6,2.9,1.6,4,2.5c0.5,0.5,1,0.9,1.5,1.3   c0.5,0.5,0.9,0.9,1.3,1.3c0.8,0.8,1.4,1.5,2,2.1C316.1,231.9,316.7,232.6,316.7,232.6z"/>
	<path style="fill:#324A5E;" d="M267.5,241.3c0,0,0.8,0.5,2.1,1.4c0.6,0.5,1.4,1,2.3,1.7s1.9,1.3,3.1,2.1c1.2,0.7,2.4,1.3,3.9,1.8   c0.7,0.3,1.5,0.5,2.2,0.7c0.8,0.2,1.6,0.4,2.4,0.5c0.8,0.2,1.6,0.2,2.5,0.2c0.8,0.1,1.7,0,2.6,0c1.7-0.1,3.5-0.3,5.2-0.8   c1.7-0.4,3.4-1,5-1.7s3.1-1.5,4.5-2.4c0.7-0.4,1.4-0.9,2-1.4s1.3-0.9,1.9-1.4s1.2-1,1.7-1.4c0.5-0.5,1-1,1.5-1.5   c1-0.9,1.8-1.9,2.6-2.7c0.8-0.8,1.4-1.5,2-2.1c1.1-1.1,1.8-1.8,1.8-1.8s-0.5,0.7-1.5,2c-0.5,0.6-1.1,1.4-1.7,2.3   c-0.7,0.9-1.4,1.9-2.3,3c-0.5,0.5-0.9,1.1-1.4,1.6s-1.1,1.1-1.7,1.6c-0.6,0.6-1.2,1.1-1.9,1.6c-0.6,0.6-1.3,1.1-2.1,1.5   c-0.7,0.5-1.5,1-2.3,1.4s-1.6,0.9-2.5,1.2c-1.7,0.8-3.5,1.4-5.3,1.8c-1.8,0.4-3.7,0.7-5.6,0.8c-0.9,0-1.9,0.1-2.8-0.1   c-0.9-0.1-1.8-0.1-2.7-0.4c-0.9-0.2-1.7-0.3-2.5-0.6s-1.6-0.5-2.3-0.9c-1.5-0.6-2.8-1.5-4-2.3c-1.1-0.8-2.1-1.7-2.9-2.4   c-0.8-0.8-1.5-1.4-2.1-2C268.1,241.9,267.5,241.3,267.5,241.3z"/>
	<path style="fill:#324A5E;" d="M277.2,221.7c0,0,0.3-0.7,0.9-1.7c0.3-0.5,0.7-1.2,1.3-1.9c0.5-0.7,1.2-1.5,1.9-2.2   c0.4-0.4,0.8-0.8,1.2-1.2c0.4-0.4,1-0.7,1.5-1.1c1-0.8,2.2-1.4,3.4-2.1c1.3-0.5,2.6-1.2,4.1-1.4c0.7-0.1,1.5-0.4,2.2-0.4l2.3-0.1   c0.8-0.1,1.5,0.1,2.3,0.2c0.8,0.1,1.5,0.2,2.2,0.4c1.4,0.5,2.8,1,4,1.6c1.2,0.7,2.4,1.4,3.4,2.1c1,0.8,1.8,1.6,2.6,2.3   c0.4,0.4,0.8,0.7,1.1,1.1c0.3,0.4,0.6,0.7,0.9,1.1c0.6,0.7,1,1.3,1.4,1.8c0.7,1,1.1,1.6,1.1,1.6s-0.6-0.4-1.7-1   c-0.5-0.3-1.1-0.7-1.8-1.2c-0.3-0.2-0.7-0.5-1.1-0.8c-0.4-0.2-0.8-0.5-1.3-0.7c-0.9-0.5-1.9-1-2.8-1.6c-1.1-0.4-2.2-0.9-3.3-1.4   c-1.1-0.5-2.4-0.6-3.5-1c-0.6-0.1-1.2-0.1-1.8-0.2c-0.6-0.1-1.2-0.2-1.9-0.2c-1.2,0-2.5,0-3.7,0.3c-1.2,0.1-2.4,0.5-3.6,0.8   c-1.1,0.5-2.2,0.8-3.2,1.4c-1,0.5-2,1-2.8,1.6c-1.7,1.1-3.1,2.1-4.1,2.8C277.7,221.3,277.2,221.7,277.2,221.7z"/>
	<path style="fill:#324A5E;" d="M273.2,265.6c0,0,2.7,1.9,7.1,4c1.1,0.5,2.3,1.1,3.6,1.6c1.3,0.5,2.6,1,4.1,1.5   c1.4,0.5,2.9,0.8,4.4,1.2c1.5,0.3,3.1,0.5,4.7,0.7l2.3,0.1h1.2l1.1-0.1c1.5-0.1,3-0.2,4.4-0.5c0.7-0.1,1.4-0.2,2.1-0.3   c0.7-0.1,1.3-0.3,2-0.4c1.3-0.3,2.5-0.5,3.6-0.9s2.2-0.7,3.1-1c0.9-0.4,1.7-0.7,2.3-1c1.3-0.5,2.1-0.8,2.1-0.8l0.2,0.3   c0,0-0.5,0.6-1.6,1.7c-0.5,0.5-1.2,1.2-2,1.9c-0.8,0.6-1.8,1.2-3,1.9c-0.6,0.3-1.1,0.7-1.8,1c-0.7,0.2-1.3,0.5-2,0.8   s-1.4,0.5-2.2,0.7c-0.8,0.2-1.6,0.3-2.4,0.4c-1.6,0.3-3.3,0.2-5,0.1l-1.3-0.1l-1.3-0.2l-2.5-0.4c-1.7-0.4-3.3-0.8-4.9-1.2   c-1.6-0.6-3.1-1-4.5-1.7c-1.5-0.6-2.8-1.2-4.1-1.9c-1.3-0.6-2.4-1.4-3.5-2c-2.1-1.4-3.8-2.5-4.9-3.5c-1.1-0.9-1.7-1.5-1.7-1.5   L273.2,265.6z"/>
	<path style="fill:#324A5E;" d="M266.2,269.9c0,0,1.8,1.6,4.7,3.8c2.9,2.2,6.7,5,10.8,7.5c1,0.6,2,1.2,3.1,1.8c1,0.5,2,1.1,3,1.6   s1.8,1.2,2.7,1.7c0.9,0.5,1.6,1.1,2.4,1.6c0.7,0.5,1.4,1,2,1.4s1.1,0.8,1.6,1.1c0.9,0.6,1.4,1.1,1.4,1.1l-0.1,0.4   c0,0-0.6,0-1.7-0.1c-0.5-0.1-1.2-0.1-2-0.3c-0.7-0.2-1.6-0.4-2.5-0.7c-0.9-0.3-1.8-0.7-2.8-1.1s-2-1-3-1.5c-1-0.6-1.9-1.3-2.9-2.1   c-0.9-0.8-1.9-1.5-2.9-2.3c-3.8-3.1-7.4-6.4-9.9-9.1c-2.5-2.6-4-4.5-4-4.5L266.2,269.9z"/>
</g>
<g>
	<path style="fill:#2B3B4E;" d="M256.9,336c0.5-0.3,0.7-1,1.1-1.5c0.5-0.6,1.3-0.8,2-1.3c0.5-0.3,0.8-0.8,1.2-1.3   c0.9-1.2,1.9-2.4,2.8-3.6c0.6-0.8,1.2-1.6,2.2-2c0.9-0.4,2.1-0.2,2.6,0.7c0.2,0.4,0.2,0.8,0.2,1.3c-0.1,2.9-1.2,5.8-3.1,8.1   c-1.9,2.2-4.6,3.8-7.5,4.3c-0.6,0.1-1.3,0.2-1.9,0.2c-0.5,0-1,0-1.4-0.3c-0.5-0.4-0.7-1-0.6-1.6s0.4-1.2,0.7-1.7   c0.1-0.3,0.3-0.5,0.6-0.7C256,336.2,256.6,336.3,256.9,336z"/>
	<path style="fill:#2B3B4E;" d="M188.3,232.6l5.3,6.3c1.2,1.4,2.5,2.7,3.9,3.9c6.6,5.7,14.9,8.5,22.4,7.8c4.5-0.4,8.7-2,12.3-4.9   l5.3-4.4l-5.3-6.3c-2-2.3-4.2-4.3-6.5-6c-6.8-4.8-14.7-6.7-21.8-5.4c-3.7,0.7-7.2,2.2-10.2,4.6L188.3,232.6z"/>
</g>
<path style="fill:#FFD05B;" d="M196.3,237c0,2.1,0.4,4,1.1,5.8c6.6,5.7,14.9,8.5,22.4,7.8c4.7-2.7,7.9-7.8,7.9-13.7  c0-2.9-0.8-5.6-2.2-7.9c-6.8-4.8-14.7-6.7-21.8-5.4C199.3,226.3,196.3,231.3,196.3,237z"/>
<circle style="fill:#2B3B4E;" cx="212.1" cy="235" r="4.8"/>
<circle style="fill:#FFFFFF;" cx="216.9" cy="235" r="2.4"/>
<g>
	<path style="fill:#324A5E;" d="M188.3,232.6c0,0,0.8-0.5,2.2-1.3c0.7-0.4,1.5-0.9,2.5-1.6c0.5-0.3,1-0.7,1.5-0.9   c0.5-0.3,1.1-0.7,1.7-1c1.2-0.6,2.4-1.1,3.8-1.6c0.7-0.3,1.4-0.4,2.2-0.6c0.7-0.2,1.5-0.3,2.3-0.4c0.8-0.1,1.6-0.2,2.4-0.2   c0.8-0.1,1.6,0,2.5,0.1c1.7,0.1,3.4,0.4,5,0.8c1.7,0.4,3.3,0.9,4.8,1.6c1.5,0.7,3.1,1.4,4.5,2.2c0.7,0.4,1.4,0.8,2,1.3   c0.6,0.4,1.3,0.8,1.9,1.3c0.6,0.5,1.2,0.9,1.7,1.4s1,0.9,1.5,1.4c1,0.9,1.9,1.8,2.7,2.6s1.5,1.4,2.1,2c1.2,1.1,1.9,1.7,1.9,1.7   s-0.5-0.8-1.3-2.2c-0.4-0.7-1-1.5-1.6-2.4s-1.3-2-2.2-3.1c-0.4-0.6-0.9-1.1-1.4-1.8c-0.5-0.6-1.1-1.1-1.7-1.7   c-0.6-0.6-1.2-1.1-1.9-1.7c-0.6-0.6-1.4-1.1-2.1-1.6c-0.7-0.5-1.5-1.1-2.3-1.5c-0.8-0.5-1.6-1-2.5-1.3c-1.7-0.8-3.6-1.5-5.5-1.9   s-3.8-0.7-5.8-0.8c-1,0-1.9,0-2.9,0.1c-0.9,0.1-1.9,0.2-2.8,0.4c-0.9,0.2-1.8,0.4-2.6,0.7s-1.6,0.6-2.4,1c-1.5,0.6-2.9,1.6-4,2.5   c-0.5,0.5-1,0.9-1.5,1.3c-0.5,0.5-0.9,0.9-1.3,1.3c-0.8,0.8-1.4,1.5-2,2.1C188.9,231.9,188.3,232.6,188.3,232.6z"/>
	<path style="fill:#324A5E;" d="M237.5,241.3c0,0-0.8,0.5-2.1,1.4c-0.6,0.5-1.4,1-2.3,1.7c-0.9,0.7-1.9,1.3-3.1,2.1   c-1.2,0.7-2.4,1.3-3.9,1.8c-0.7,0.3-1.5,0.5-2.2,0.7c-0.8,0.2-1.6,0.4-2.4,0.5c-0.8,0.2-1.6,0.2-2.5,0.2c-0.8,0.1-1.7,0-2.6,0   c-1.7-0.1-3.5-0.3-5.2-0.8c-1.7-0.4-3.4-1-5-1.7s-3.1-1.5-4.5-2.4c-0.7-0.4-1.4-0.9-2-1.4s-1.3-0.9-1.9-1.4c-0.6-0.5-1.2-1-1.7-1.4   c-0.5-0.5-1-1-1.5-1.5c-1-0.9-1.8-1.9-2.6-2.7s-1.4-1.5-2-2.1c-1.1-1.1-1.8-1.8-1.8-1.8s0.5,0.7,1.5,2c0.5,0.6,1.1,1.4,1.7,2.3   c0.7,0.9,1.4,1.9,2.3,3c0.5,0.5,0.9,1.1,1.4,1.6s1.1,1.1,1.7,1.6c0.6,0.6,1.2,1.1,1.9,1.6c0.6,0.6,1.3,1.1,2.1,1.5   c0.7,0.5,1.5,1,2.3,1.4s1.6,0.9,2.5,1.2c1.7,0.8,3.5,1.4,5.3,1.8c1.8,0.4,3.7,0.7,5.6,0.8c0.9,0,1.9,0.1,2.8-0.1   c0.9-0.1,1.8-0.1,2.7-0.4c0.9-0.2,1.7-0.3,2.5-0.6s1.6-0.5,2.3-0.9c1.5-0.6,2.8-1.5,4-2.3c1.1-0.8,2.1-1.7,2.9-2.4   c0.8-0.8,1.5-1.4,2.1-2C236.9,241.9,237.5,241.3,237.5,241.3z"/>
	<path style="fill:#324A5E;" d="M227.8,221.7c0,0-0.3-0.7-0.9-1.7c-0.3-0.5-0.7-1.2-1.3-1.9c-0.5-0.7-1.2-1.5-1.9-2.2   c-0.4-0.4-0.8-0.8-1.2-1.2s-1-0.7-1.5-1.1c-1-0.8-2.2-1.4-3.4-2.1c-1.3-0.5-2.6-1.2-4.1-1.4c-0.7-0.1-1.5-0.4-2.2-0.4l-2.3-0.1   c-0.8-0.1-1.5,0.1-2.3,0.2c-0.8,0.1-1.5,0.2-2.2,0.4c-1.4,0.5-2.8,1-4,1.6c-1.2,0.7-2.4,1.4-3.4,2.1c-1,0.8-1.8,1.6-2.6,2.3   c-0.4,0.4-0.8,0.7-1.1,1.1c-0.3,0.4-0.6,0.7-0.9,1.1c-0.6,0.7-1,1.3-1.4,1.8c-0.7,1-1.1,1.6-1.1,1.6s0.6-0.4,1.7-1   c0.5-0.3,1.1-0.7,1.8-1.2c0.3-0.2,0.7-0.5,1.1-0.8c0.4-0.2,0.8-0.5,1.3-0.7c0.9-0.5,1.9-1,2.8-1.6c1.1-0.4,2.2-0.9,3.3-1.4   s2.4-0.6,3.5-1c0.6-0.1,1.2-0.1,1.8-0.2c0.6-0.1,1.2-0.2,1.9-0.2c1.2,0,2.5,0,3.7,0.3c1.2,0.1,2.4,0.5,3.6,0.8   c1.1,0.5,2.2,0.8,3.2,1.4c1,0.5,2,1,2.8,1.6c1.7,1.1,3.1,2.1,4.1,2.8C227.3,221.3,227.8,221.7,227.8,221.7z"/>
	<path style="fill:#324A5E;" d="M231.8,265.6c0,0-2.7,1.9-7.1,4c-1.1,0.5-2.3,1.1-3.6,1.6s-2.6,1-4.1,1.5c-1.4,0.5-2.9,0.8-4.4,1.2   c-1.5,0.3-3.1,0.5-4.7,0.7l-2.3,0.1h-1.2l-1.1-0.1c-1.5-0.1-3-0.2-4.4-0.5c-0.7-0.1-1.4-0.2-2.1-0.3c-0.7-0.1-1.3-0.3-2-0.4   c-1.3-0.3-2.5-0.5-3.6-0.9s-2.2-0.7-3.1-1c-0.9-0.4-1.7-0.7-2.3-1c-1.3-0.5-2.1-0.8-2.1-0.8l-0.2,0.3c0,0,0.5,0.6,1.6,1.7   c0.5,0.5,1.2,1.2,2,1.9c0.8,0.6,1.8,1.2,3,1.9c0.6,0.3,1.1,0.7,1.8,1c0.7,0.2,1.3,0.5,2,0.8s1.4,0.5,2.2,0.7s1.6,0.3,2.4,0.4   c1.6,0.3,3.3,0.2,5,0.1l1.3-0.1l1.3-0.2l2.5-0.4c1.7-0.4,3.3-0.8,4.9-1.2c1.6-0.6,3.1-1,4.5-1.7c1.5-0.6,2.8-1.2,4.1-1.9   c1.3-0.6,2.4-1.4,3.5-2c2.1-1.4,3.8-2.5,4.9-3.5c1.1-0.9,1.7-1.5,1.7-1.5L231.8,265.6z"/>
	<path style="fill:#324A5E;" d="M238.8,269.9c0,0-1.8,1.6-4.7,3.8c-2.9,2.2-6.7,5-10.8,7.5c-1,0.6-2,1.2-3.1,1.8c-1,0.5-2,1.1-3,1.6   s-1.8,1.2-2.7,1.7s-1.6,1.1-2.4,1.6c-0.7,0.5-1.4,1-2,1.4s-1.1,0.8-1.6,1.1c-0.9,0.6-1.4,1.1-1.4,1.1l0.1,0.4c0,0,0.6,0,1.7-0.1   c0.5-0.1,1.2-0.1,2-0.3c0.7-0.2,1.6-0.4,2.5-0.7c0.9-0.3,1.8-0.7,2.8-1.1s2-1,3-1.5c1-0.6,1.9-1.3,2.9-2.1c0.9-0.8,1.9-1.5,2.9-2.3   c3.8-3.1,7.4-6.4,9.9-9.1c2.5-2.6,4-4.5,4-4.5L238.8,269.9z"/>
</g>
<path style="fill:#2B3B4E;" d="M248.1,336c-0.5-0.3-0.7-1-1.1-1.5c-0.5-0.6-1.3-0.8-2-1.3c-0.5-0.3-0.8-0.8-1.2-1.3  c-0.9-1.2-1.9-2.4-2.8-3.6c-0.6-0.8-1.2-1.6-2.2-2c-0.9-0.4-2.1-0.2-2.6,0.7c-0.2,0.4-0.2,0.8-0.2,1.3c0.1,2.9,1.2,5.8,3.1,8.1  c1.9,2.2,4.6,3.8,7.5,4.3c0.6,0.1,1.3,0.2,1.9,0.2c0.5,0,1,0,1.4-0.3c0.5-0.4,0.7-1,0.6-1.6c-0.1-0.6-0.4-1.2-0.7-1.7  c-0.1-0.3-0.3-0.5-0.6-0.7C249,336.2,248.4,336.3,248.1,336z"/>
<path style="fill:#324A5E;" d="M294.2,373.5c-15.5,14.4-33.3,16.4-41.7,16.4c-8.4,0-26.2-2-41.7-16.4c1.1,0.4,19.5,6.8,41.7,6  C274.7,380.3,293.1,373.9,294.2,373.5z"/>
<g>
</g>
<g>
</g>
<g>
</g>
<g>
</g>
<g>
</g>
<g>
</g>
<g>
</g>
<g>
</g>
<g>
</g>
<g>
</g>
<g>
</g>
<g>
</g>
<g>
</g>
<g>
</g>
<g>
</g>
</svg>
