<?xml version="1.0" encoding="iso-8859-1"?>
<!-- Generator: Adobe Illustrator 19.0.0, SVG Export Plug-In . SVG Version: 6.00 Build 0)  -->
<svg xmlns="http://www.w3.org/2000/svg" xmlns:xlink="http://www.w3.org/1999/xlink" version="1.1" id="Layer_1" x="0px" y="0px" viewBox="0 0 505 505" style="enable-background:new 0 0 505 505;" xml:space="preserve">
<circle style="fill:#90DFAA;" cx="252.5" cy="252.5" r="252.5"/>
<g>
	<path style="fill:#FFFFFF;" d="M385.2,95.2c-0.7-4.3-4.8-7.1-9-6.5c-4.3,0.7-7.2,4.7-6.5,9c0.3,1.8,3.7,27.6-20.4,57.9   c0.4-2.2,0.6-4.5,0.6-6.7c0.2-22.6-17-35.9-17.8-36.5c-3.5-2.6-8.4-1.9-11,1.5s-2,8.4,1.4,11c0.5,0.4,11.8,9.3,11.5,24   c-0.2,13.9-11,29.4-31.3,44.8c5.6-19-0.6-39.2-7.1-50.6c-2.2-3.8-7-5.1-10.8-2.9c-3.8,2.2-5.1,7-2.9,10.8   c0.9,1.6,21.8,39.2-12,59.7c-4.3,1.8-8.7,3.6-13.3,5.4c-4.1,1.5-6.1,6.1-4.6,10.2c1.2,3.2,4.2,5.1,7.4,5.1c0.9,0,1.9-0.2,2.8-0.5   C397.8,179.9,385.8,98.7,385.2,95.2z"/>
	<path style="fill:#FFFFFF;" d="M119.8,95.2c0.7-4.3,4.8-7.1,9-6.5c4.3,0.7,7.2,4.7,6.5,9c-0.3,1.8-3.7,27.6,20.4,57.9   c-0.4-2.2-0.6-4.5-0.6-6.7c-0.2-22.6,17-35.9,17.8-36.5c3.5-2.6,8.4-1.9,11,1.5s2,8.4-1.4,11c-0.5,0.4-11.8,9.3-11.5,24   c0.2,13.9,11,29.4,31.3,44.8c-5.6-19,0.6-39.2,7.1-50.6c2.2-3.8,7-5.1,10.8-2.9c3.8,2.2,5.1,7,2.9,10.8c-0.9,1.6-21.8,39.2,12,59.7   c4.3,1.8,8.7,3.6,13.3,5.4c4.1,1.5,6.1,6.1,4.6,10.2c-1.2,3.2-4.2,5.1-7.4,5.1c-0.9,0-1.9-0.2-2.8-0.5   C107.2,179.9,119.2,98.7,119.8,95.2z"/>
</g>
<g>
	<path style="fill:#F9B54C;" d="M441.9,194.4c10.5,9.8,12,33.1-34.3,58.7c-47.7,27.3-120.2,12.3-116.6-4.9c3.1-14,58.3-25.6,91-45.6   C415.4,184.3,430.2,182.6,441.9,194.4z"/>
	<path style="fill:#F9B54C;" d="M63.1,194.4c-10.5,9.8-12,33.1,34.3,58.7c47.7,27.3,120.2,12.3,116.6-4.9c-3.1-14-58.3-25.6-91-45.6   C89.6,184.3,74.8,182.6,63.1,194.4z"/>
</g>
<path style="fill:#FFD05B;" d="M357.5,295.3c0,72.7-47,165.6-105,165.6s-105-92.9-105-165.6s47-97.6,105-97.6  C310.5,197.7,357.5,222.6,357.5,295.3z"/>
<path id="SVGCleanerId_0" style="fill:#324A5E;" d="M276.8,422.9c-1.6-1.2-3.9-1-5.1,0.6c-5,6.3-10.8,9.4-15.5,10.5v-41.4h-7.3V434  c-4.7-1.1-10.6-4.2-15.5-10.5c-1.2-1.6-3.5-1.9-5.1-0.6c-1.6,1.2-1.9,3.5-0.6,5.1c6.7,8.6,16,13.7,24.9,13.7  c8.8,0,18.1-5.1,24.9-13.7C278.6,426.4,278.4,424.1,276.8,422.9z"/>
<path id="SVGCleanerId_1" style="fill:#FF7058;" d="M279.7,381.5c0,15-12.2,27.3-27.2,27.3s-27.2-12.3-27.2-27.3s12.2-2.5,27.2-2.5  S279.7,366.5,279.7,381.5z"/>
<g>
	<path id="SVGCleanerId_0_1_" style="fill:#324A5E;" d="M276.8,422.9c-1.6-1.2-3.9-1-5.1,0.6c-5,6.3-10.8,9.4-15.5,10.5v-41.4h-7.3   V434c-4.7-1.1-10.6-4.2-15.5-10.5c-1.2-1.6-3.5-1.9-5.1-0.6c-1.6,1.2-1.9,3.5-0.6,5.1c6.7,8.6,16,13.7,24.9,13.7   c8.8,0,18.1-5.1,24.9-13.7C278.6,426.4,278.4,424.1,276.8,422.9z"/>
</g>
<g>
	<path id="SVGCleanerId_1_1_" style="fill:#FF7058;" d="M279.7,381.5c0,15-12.2,27.3-27.2,27.3s-27.2-12.3-27.2-27.3   s12.2-2.5,27.2-2.5S279.7,366.5,279.7,381.5z"/>
</g>
<ellipse transform="matrix(0.4282 0.9037 -0.9037 0.4282 443.3247 -97.4666)" style="fill:#FFFFFF;" cx="298.681" cy="301.584" rx="24.4" ry="13"/>
<ellipse transform="matrix(0.4282 0.9037 -0.9037 0.4282 447.1999 -95.9347)" style="fill:#54C0EB;" cx="299.408" cy="305.412" rx="15.8" ry="10.2"/>
<ellipse transform="matrix(0.4282 0.9037 -0.9037 0.4282 447.2122 -95.9143)" style="fill:#2B3B4E;" cx="299.398" cy="305.432" rx="8" ry="5.2"/>
<ellipse style="fill:#FFFFFF;" cx="295.5" cy="297.7" rx="3.2" ry="3.9"/>
<path style="fill:#324A5E;" d="M275.2,264.4c0,0,2.3-1,5.5-1.8c0.8-0.2,1.7-0.3,2.5-0.5c0.9-0.1,1.8-0.3,2.7-0.3  c0.9-0.1,1.9,0,2.9,0s1.9,0.2,2.9,0.3c1,0.3,1.9,0.4,2.9,0.7c0.9,0.4,1.9,0.5,2.8,0.9s1.8,0.7,2.7,1.1c0.8,0.4,1.7,0.8,2.5,1.1  c1.6,0.6,2.8,1.4,3.8,1.8s1.6,0.6,1.6,0.6s-0.2-0.6-0.8-1.5c-0.3-0.5-0.6-1-1-1.7c-0.4-0.6-0.9-1.4-1.5-2c-0.6-0.7-1.3-1.4-2.1-2.2  c-0.8-0.7-1.8-1.3-2.8-2s-2.2-1.2-3.3-1.7c-1.2-0.6-2.5-0.8-3.8-1.1c-1.3-0.1-2.7-0.3-4-0.2c-1.3,0.1-2.6,0.2-3.8,0.6  c-1.2,0.3-2.3,0.8-3.3,1.3c-1,0.6-1.9,1.1-2.6,1.8c-1.5,1.2-2.5,2.5-3.1,3.4C275.4,263.8,275.2,264.4,275.2,264.4z"/>
<ellipse transform="matrix(0.4282 -0.9037 0.9037 0.4282 -154.4937 358.8467)" style="fill:#FFFFFF;" cx="206.315" cy="301.505" rx="24.4" ry="13"/>
<ellipse transform="matrix(0.4282 -0.9037 0.9037 0.4282 -158.4665 360.3318)" style="fill:#54C0EB;" cx="205.502" cy="305.387" rx="15.8" ry="10.2"/>
<ellipse transform="matrix(0.4282 -0.9037 0.9037 0.4282 -158.474 360.3239)" style="fill:#2B3B4E;" cx="205.492" cy="305.389" rx="8" ry="5.2"/>
<ellipse style="fill:#FFFFFF;" cx="209.5" cy="297.7" rx="3.2" ry="3.9"/>
<path style="fill:#324A5E;" d="M229.8,264.4c0,0-2.3-1-5.5-1.8c-0.8-0.2-1.7-0.3-2.5-0.5c-0.9-0.1-1.8-0.3-2.7-0.3  c-0.9-0.1-1.9,0-2.9,0s-1.9,0.2-2.9,0.3c-1,0.3-1.9,0.4-2.9,0.7c-0.9,0.4-1.9,0.5-2.8,0.9c-0.9,0.4-1.8,0.7-2.7,1.1  c-0.8,0.4-1.7,0.8-2.5,1.1c-1.6,0.6-2.8,1.4-3.8,1.8s-1.6,0.6-1.6,0.6s0.2-0.6,0.8-1.5c0.3-0.5,0.6-1,1-1.7c0.4-0.6,0.9-1.4,1.5-2  c0.6-0.7,1.3-1.4,2.1-2.2c0.8-0.7,1.8-1.3,2.8-2s2.2-1.2,3.3-1.7c1.2-0.6,2.5-0.8,3.8-1.1c1.3-0.1,2.7-0.3,4-0.2  c1.3,0.1,2.6,0.2,3.8,0.6c1.2,0.3,2.3,0.8,3.3,1.3c1,0.6,1.9,1.1,2.6,1.8c1.5,1.2,2.5,2.5,3.1,3.4  C229.6,263.8,229.8,264.4,229.8,264.4z"/>
<g>
</g>
<g>
</g>
<g>
</g>
<g>
</g>
<g>
</g>
<g>
</g>
<g>
</g>
<g>
</g>
<g>
</g>
<g>
</g>
<g>
</g>
<g>
</g>
<g>
</g>
<g>
</g>
<g>
</g>
</svg>
