<?xml version="1.0" encoding="iso-8859-1"?>
<!-- Generator: Adobe Illustrator 19.0.0, SVG Export Plug-In . SVG Version: 6.00 Build 0)  -->
<svg xmlns="http://www.w3.org/2000/svg" xmlns:xlink="http://www.w3.org/1999/xlink" version="1.1" id="Layer_1" x="0px" y="0px" viewBox="0 0 505 505" style="enable-background:new 0 0 505 505;" xml:space="preserve">
<circle style="fill:#FD8469;" cx="252.5" cy="252.5" r="252.5"/>
<g>
	<path style="fill:#54C0EB;" d="M418.2,276l-0.7,0.3c-46.4,17.9-98.5-5.2-116.4-51.6l-0.3-0.7l0.7-0.3   c46.4-17.9,98.5,5.2,116.4,51.6L418.2,276z"/>
	<path style="fill:#54C0EB;" d="M86.8,276l0.7,0.3c46.4,17.9,98.5-5.2,116.4-51.6l0.3-0.7l-0.7-0.3c-46.4-17.9-98.5,5.2-116.4,51.6   L86.8,276z"/>
</g>
<path style="fill:#84DBFF;" d="M301,401.1c17.7-30.6,31.6-75.3,34.9-114.8c6.8-81.6-32.8-98.1-83.5-98.1s-90.3,16.5-83.5,98.1  c3.3,39.5,17.2,84.2,34.9,114.8L301,401.1L301,401.1z"/>
<g>
	<path style="fill:#324A5E;" d="M333.4,192.2C333.3,192.2,333.3,192.2,333.4,192.2L333.4,192.2L333.4,192.2z"/>
	<path style="fill:#324A5E;" d="M423.4,175.9c-1.8,8.4-5.4,16.8-10.6,24.6s-11.8,15-19.7,21.2c-4,3.1-8.3,5.9-13.1,8.3   c-4.8,2.5-10.1,4.5-16.3,5.7l-2.4,0.4c-0.9,0.1-1.9,0.2-2.9,0.3l-0.9,0.1h-0.4h-0.2h-0.1h-0.1h-0.5l-2,0.1c-2.7,0-5.4,0-8.1-0.2   c-5.4-0.4-10.7-1.2-15.9-2.5c-5.1-1.2-10.2-2.8-14.9-4.7l-0.8-0.3l-0.2-0.1l0,0c0,0-0.1,0-0.3-0.1h-0.1l-0.3-0.1l-1.3-0.4l-2.5-0.9   c-1.7-0.5-3.4-1-5-1.4c-13.3-3.5-25.5-3.7-35.3-2.3c-6.9,1-12.7,2.7-17.1,4.5c-4.4-1.7-10.2-3.5-17.1-4.5   c-9.8-1.4-22.1-1.2-35.4,2.3c-1.6,0.5-3.3,0.9-5,1.4l-2.5,0.9l-1.3,0.4l-0.3,0.1h-0.1c-0.2,0.1-0.3,0.1-0.3,0.1l0,0l-0.2,0.1   l-0.8,0.3c-4.7,1.8-9.8,3.5-14.9,4.7c-5.1,1.2-10.5,2.1-15.9,2.5c-2.7,0.2-5.4,0.2-8.1,0.2l-2-0.1H148c0,0,0,0-0.1,0h-0.1h-0.2   h-0.4l-0.9-0.1c-0.9-0.1-2-0.2-2.9-0.3l-2.4-0.4c-6.2-1.1-11.5-3.2-16.3-5.7c-4.8-2.4-9.1-5.3-13.1-8.3   c-7.9-6.2-14.5-13.4-19.7-21.2c-5.2-7.8-8.8-16.2-10.6-24.6c-1.8-8.4-1.6-16.6-0.1-23.7c1.6-7.1,4.3-13,7.4-17.7   c2.9-4.8,6.1-8.4,8.8-11.2c2.7-2.8,5-4.8,6.6-6.1c1.4-1.1,2.2-1.8,2.4-2c-0.2,0.2-0.8,1-1.9,2.5c-1.2,1.6-3,4.1-4.9,7.3   s-4.1,7.3-5.7,12.1c-1.7,4.8-2.8,10.4-2.7,16.3c0,5.9,1.4,12.2,4.2,18.1c2.8,5.9,7,11.5,12.2,16.4S119,197,125.5,200   s13.8,4.8,18.9,4.3l0.9-0.1c0.2,0,0.3-0.1,0.4-0.1l0.7-0.1h0.4h0.2h0.1h-0.3l1.2-0.3c1.6-0.4,3.2-0.8,4.8-1.4c3.2-1,6.3-2.4,9.3-4   s5.8-3.3,8.5-5.3l0.7-0.5l0.1-0.1h0.1l0.3-0.3l1.5-1l3.1-2c2.1-1.2,4.2-2.5,6.3-3.6c8.4-4.6,17.2-8.3,26-11.1   c8.8-2.7,17.4-4.4,25.6-5.4c6.4-0.7,12.4-0.9,18-0.8c5.6-0.1,11.6,0.1,18,0.8c8.1,1,16.8,2.7,25.6,5.4c8.7,2.8,17.6,6.5,26,11.1   c2.1,1.2,4.2,2.4,6.3,3.6l3,2l1.5,1l0.4,0.3c0,0,0,0,0.1,0l0.1,0.1l0.7,0.5c2.8,2,5.6,3.8,8.6,5.3c3,1.6,6.1,2.9,9.3,4   c1.6,0.6,3.2,1,4.9,1.4l1.2,0.3h-0.3h0.1h0.2h0.4l0.8,0.1c0.1,0,0.2,0.1,0.4,0.1l0.9,0.1c5.1,0.5,12.5-1.3,18.9-4.3   c6.6-3,12.8-7.2,17.9-12.1c5.2-4.9,9.4-10.5,12.2-16.4c2.8-5.9,4.2-12.1,4.2-18.1c0.1-5.9-1.1-11.5-2.8-16.3   c-1.6-4.8-3.8-8.9-5.7-12.1c-1.9-3.3-3.7-5.7-4.9-7.3c-1.1-1.4-1.7-2.3-1.9-2.5c0.2,0.2,1,0.9,2.4,2c1.6,1.3,3.9,3.3,6.6,6.1   s5.9,6.4,8.8,11.2c3,4.7,5.8,10.7,7.3,17.7C425.1,159.3,425.3,167.5,423.4,175.9z"/>
</g>
<path style="fill:#54C0EB;" d="M288,357c-5.6-0.6-11-0.1-15.9,1.3c-12.9,3.6-26.4,3.6-39.2,0c-5-1.4-10.3-1.9-15.9-1.3  c-18.2,1.9-32.9,15.9-34.9,33.1c-2.6,22.7,16.1,42,39.5,42c4,0,7.8-0.6,11.5-1.6c12.8-3.6,26.2-3.6,39,0c3.6,1,7.5,1.6,11.5,1.6  c23.5,0,42.2-19.2,39.5-42C321,372.9,306.2,358.9,288,357z"/>
<g>
	<path style="fill:#324A5E;" d="M295.6,406.2c-5.4,5.4-14.1,5.4-19.5,0s-5.4-14.1,0-19.5s20.7-12,26.1-6.6   C307.6,385.4,300.9,400.8,295.6,406.2z"/>
	<path style="fill:#324A5E;" d="M209.4,406.2c5.4,5.4,14.1,5.4,19.5,0s5.4-14.1,0-19.5s-20.7-12-26.1-6.6   C197.4,385.4,204.1,400.8,209.4,406.2z"/>
</g>
<g>
	<path style="fill:#54C0EB;" d="M226.3,369.8c0,0.1-0.4-1.3-0.9-3.4s-1.1-5.1-1.6-8.7s-1-7.8-1.3-12.2c-0.2-2.2-0.2-4.5-0.3-6.9   c-0.1-2.3,0-4.7,0-7.1s0.2-4.7,0.3-7.1c0.2-2.3,0.4-4.6,0.6-6.8c0.3-2.2,0.5-4.3,0.8-6.3c0.2-2,0.6-3.9,0.9-5.6   c0.3-1.7,0.5-3.3,0.9-4.7c0.3-1.4,0.6-2.6,0.8-3.6c0.4-2,0.7-3.2,0.7-3.2s-0.1,1.2-0.3,3.2c-0.1,1-0.2,2.3-0.3,3.7   c-0.2,1.4-0.2,3-0.3,4.8s-0.2,3.6-0.2,5.6s0,4.1,0,6.3c0.1,2.2,0.2,4.4,0.3,6.7c0.2,2.3,0.3,4.6,0.6,6.9s0.5,4.6,0.8,6.8   c0.3,2.2,0.7,4.5,1.1,6.6c0.8,4.2,1.7,8.1,2.6,11.4c0.9,3.3,1.8,6,2.4,7.8c0.7,1.9,1,2.7,1.1,2.8L226.3,369.8z"/>
	<path style="fill:#54C0EB;" d="M270.1,366.8c0-0.1,0.4-0.9,1.1-2.8c0.6-1.8,1.5-4.5,2.4-7.8s1.8-7.2,2.6-11.4   c0.4-2.1,0.8-4.3,1.1-6.6c0.4-2.2,0.6-4.5,0.8-6.8c0.2-2.3,0.4-4.6,0.6-6.9c0.1-2.3,0.2-4.5,0.3-6.7c0-2.2,0-4.3,0-6.3   s-0.1-3.9-0.2-5.6s-0.1-3.4-0.3-4.8c-0.1-1.4-0.2-2.7-0.3-3.7c-0.2-2-0.3-3.2-0.3-3.2s0.2,1.1,0.7,3.2c0.2,1,0.5,2.2,0.8,3.6   s0.5,3,0.9,4.7c0.3,1.7,0.7,3.6,0.9,5.6c0.2,2,0.5,4.1,0.8,6.3c0.2,2.2,0.4,4.5,0.6,6.8c0.1,2.3,0.2,4.7,0.3,7.1   c0,2.4,0.1,4.8,0,7.1c-0.1,2.3-0.1,4.7-0.3,6.9c-0.3,4.5-0.8,8.7-1.3,12.2c-0.5,3.6-1.1,6.6-1.6,8.7s-0.9,3.4-0.9,3.4L270.1,366.8z   "/>
</g>
<path style="fill:#FFFFFF;" d="M280.9,267.5c1.2,9.4,8.5,16.7,16.4,16.3c7.9-0.4,13.3-8.4,12.1-17.8c-1.2-9.4-8.5-16.7-16.4-16.3  C285.2,250.1,279.7,258.1,280.9,267.5z"/>
<path style="fill:#F9B54C;" d="M283.3,270.1c0.8,6.1,6.4,10.8,12.6,10.5s10.6-5.5,9.8-11.6c-0.8-6.1-6.4-10.8-12.6-10.5  S282.5,264,283.3,270.1z"/>
<path style="fill:#2B3B4E;" d="M288.8,269.8c0.4,3.1,3.2,5.5,6.4,5.3c3.1-0.2,5.4-2.8,5-5.9s-3.2-5.5-6.4-5.3  S288.4,266.7,288.8,269.8z"/>
<path style="fill:#FFFFFF;" d="M290.1,262.6c-0.8,1.4,0,2.9,1.8,3.3s4-0.3,4.8-1.7c0.8-1.4,0-2.9-1.8-3.3S290.9,261.2,290.1,262.6z"/>
<path style="fill:#324A5E;" d="M279.7,243.4c0,0,2.2-0.9,5.2-1.7c0.7-0.2,1.6-0.3,2.4-0.5c0.9-0.1,1.7-0.3,2.6-0.3  c0.9-0.1,1.8,0,2.7,0c0.9,0,1.8,0.2,2.7,0.3c0.9,0.3,1.8,0.3,2.7,0.7c0.9,0.4,1.8,0.5,2.7,0.9c0.9,0.3,1.7,0.7,2.5,1  c0.8,0.4,1.6,0.7,2.3,1.1c1.5,0.6,2.7,1.3,3.6,1.7s1.5,0.6,1.5,0.6s-0.2-0.5-0.7-1.4c-0.3-0.4-0.6-1-0.9-1.6  c-0.4-0.6-0.8-1.3-1.4-1.9c-0.6-0.6-1.2-1.4-2-2.1c-0.8-0.7-1.7-1.3-2.6-1.9c-0.9-0.7-2-1.1-3.1-1.6s-2.4-0.7-3.6-1  c-1.2-0.1-2.5-0.3-3.8-0.2c-1.2,0.1-2.5,0.2-3.6,0.6c-1.1,0.2-2.2,0.8-3.1,1.2c-0.9,0.5-1.8,1-2.4,1.6c-1.4,1.1-2.3,2.3-2.9,3.2  C279.9,242.8,279.7,243.4,279.7,243.4z"/>
<path style="fill:#FFFFFF;" d="M224.1,267.5c-1.2,9.4-8.5,16.7-16.4,16.3c-7.9-0.4-13.3-8.4-12.1-17.8s8.5-16.7,16.4-16.3  C219.8,250.1,225.3,258.1,224.1,267.5z"/>
<path style="fill:#F9B54C;" d="M221.7,270.1c-0.8,6.1-6.4,10.8-12.6,10.5c-6.2-0.3-10.6-5.5-9.8-11.6s6.4-10.8,12.6-10.5  S222.5,264,221.7,270.1z"/>
<path style="fill:#2B3B4E;" d="M216.2,269.8c-0.4,3.1-3.2,5.5-6.4,5.3c-3.1-0.2-5.4-2.8-5-5.9s3.2-5.5,6.4-5.3  S216.6,266.7,216.2,269.8z"/>
<path style="fill:#FFFFFF;" d="M214.9,262.6c0.8,1.4,0,2.9-1.8,3.3s-4-0.3-4.8-1.7c-0.8-1.4,0-2.9,1.8-3.3S214.1,261.2,214.9,262.6z  "/>
<path style="fill:#324A5E;" d="M225.3,243.4c0,0-2.2-0.9-5.2-1.7c-0.7-0.2-1.6-0.3-2.4-0.5c-0.9-0.1-1.7-0.3-2.6-0.3  c-0.9-0.1-1.8,0-2.7,0s-1.8,0.2-2.7,0.3c-0.9,0.3-1.8,0.3-2.7,0.7s-1.8,0.5-2.7,0.9c-0.9,0.3-1.7,0.7-2.5,1  c-0.8,0.4-1.6,0.7-2.3,1.1c-1.5,0.6-2.7,1.3-3.6,1.7c-0.9,0.4-1.5,0.6-1.5,0.6s0.2-0.5,0.7-1.4c0.3-0.4,0.6-1,0.9-1.6  c0.4-0.6,0.8-1.3,1.4-1.9c0.6-0.6,1.2-1.4,2-2.1c0.8-0.7,1.7-1.3,2.6-1.9c0.9-0.7,2-1.1,3.1-1.6s2.4-0.7,3.6-1  c1.2-0.1,2.5-0.3,3.8-0.2c1.2,0.1,2.5,0.2,3.6,0.6c1.1,0.2,2.2,0.8,3.1,1.2c0.9,0.5,1.8,1,2.4,1.6c1.4,1.1,2.3,2.3,2.9,3.2  C225.1,242.8,225.3,243.4,225.3,243.4z"/>
<g>
</g>
<g>
</g>
<g>
</g>
<g>
</g>
<g>
</g>
<g>
</g>
<g>
</g>
<g>
</g>
<g>
</g>
<g>
</g>
<g>
</g>
<g>
</g>
<g>
</g>
<g>
</g>
<g>
</g>
</svg>
