<?xml version="1.0" encoding="iso-8859-1"?>
<!-- Generator: Adobe Illustrator 19.0.0, SVG Export Plug-In . SVG Version: 6.00 Build 0)  -->
<svg xmlns="http://www.w3.org/2000/svg" xmlns:xlink="http://www.w3.org/1999/xlink" version="1.1" id="Layer_1" x="0px" y="0px" viewBox="0 0 505 505" style="enable-background:new 0 0 505 505;" xml:space="preserve">
<circle style="fill:#54C0EB;" cx="252.5" cy="252.5" r="252.5"/>
<g>
	<path style="fill:#324A5E;" d="M359.5,80.5L359.5,80.5L359.5,80.5c-73.8,29.9-102.5,110.6-64,180.3l0,0   C369.4,230.9,398,150.2,359.5,80.5z"/>
	<path style="fill:#324A5E;" d="M145.5,80.5L145.5,80.5L145.5,80.5c73.8,29.9,102.5,110.6,64,180.3l0,0   C135.6,230.9,107,150.2,145.5,80.5z"/>
</g>
<path style="fill:#E6E9EE;" d="M392,273.6c0,0,27.6,71.9-20.9,111.5l-4.2-13.5c0,0-55-4.4-91.1,27.8c-3.5,3.1-6.9,6.6-10,10.5h-26.6  c-3.1-3.9-6.4-7.3-9.9-10.4l-0.1-0.1c-36.1-32.2-91.1-27.8-91.1-27.8l-4.2,13.5C85.3,345.5,113,273.6,113,273.6l-27,13.9  c5.2-36.8,20.9-63.4,40.8-82.5c0-0.1,0.1-0.1,0.1-0.1c49.8-48.4,125.6-49.8,125.6-49.8s75.8,1.4,125.7,49.7  c19.9,19.2,35.6,45.8,40.8,82.7L392,273.6z"/>
<g>
	<path style="fill:#FFFFFF;" d="M392,273.6c0,0,27.6,71.9-20.9,111.5l-4.2-13.5c0,0-55-4.4-91.1,27.8l2.7-12.5   c12.7-44.4,80.7-48.2,80.7-48.2c23.6-18.5,8.1-85.9,8.1-85.9l20.7-3.7c4-5-4.1-29.2-9.9-44.4c19.9,19.2,35.6,45.8,40.8,82.7   L392,273.6z"/>
	<path style="fill:#FFFFFF;" d="M229.2,399.4c-36.1-32.2-91.1-27.8-91.1-27.8l-4.2,13.5C85.3,345.5,113,273.6,113,273.6l-27,13.9   c5.2-36.8,20.9-63.4,40.8-82.5c-5.7,15.3-13.8,39.3-9.8,44.3l20.7,3.7c0,0-15.5,67.4,8.1,85.9c0,0,68.1,3.7,80.7,48.2L229.2,399.4z   "/>
</g>
<path style="fill:#CED5E0;" d="M289.9,381.7c0,37-16.8,42.8-37.4,42.8s-37.4-5.8-37.4-42.8s16.8-91.2,37.4-91.2  S289.9,344.7,289.9,381.7z"/>
<path style="fill:#324A5E;" d="M270.5,386.7c0,6.7-8.1,16.1-18,16.1s-18-9.4-18-16.1s8.1-8.3,18-8.3  C262.4,378.4,270.5,380,270.5,386.7z"/>
<ellipse transform="matrix(0.4282 0.9037 -0.9037 0.4282 423.7021 -124.3382)" style="fill:#FFFFFF;" cx="310.104" cy="272.642" rx="38.401" ry="20.5"/>
<ellipse transform="matrix(0.4282 0.9037 -0.9037 0.4282 429.8703 -121.9838)" style="fill:#54C0EB;" cx="311.327" cy="278.693" rx="25" ry="16"/>
<ellipse transform="matrix(0.4282 0.9037 -0.9037 0.4282 429.8703 -121.9838)" style="fill:#2B3B4E;" cx="311.327" cy="278.693" rx="12.6" ry="8.1"/>
<ellipse style="fill:#FFFFFF;" cx="305.1" cy="266.5" rx="5" ry="6.1"/>
<path style="fill:#324A5E;" d="M273.2,214.2c0,0,3.7-1.6,8.7-2.9c1.2-0.4,2.6-0.5,4-0.9c1.4-0.1,2.8-0.5,4.3-0.5  c1.5-0.2,3-0.1,4.5,0s3,0.3,4.6,0.5c1.5,0.4,3.1,0.6,4.6,1.1c1.5,0.6,3,0.8,4.5,1.5c1.5,0.6,2.9,1.1,4.2,1.7  c1.3,0.7,2.6,1.2,3.9,1.8c2.5,1,4.5,2.2,6,2.8c1.5,0.7,2.5,1,2.5,1s-0.4-0.9-1.2-2.4c-0.4-0.7-0.9-1.7-1.6-2.6  c-0.6-1-1.4-2.1-2.4-3.2c-1-1.1-2.1-2.3-3.3-3.4c-1.3-1.1-2.8-2.1-4.3-3.2c-1.5-1.1-3.4-1.8-5.2-2.7c-1.8-0.9-3.9-1.2-5.9-1.7  c-2.1-0.2-4.2-0.5-6.3-0.4c-2.1,0.1-4.1,0.4-6,1c-1.9,0.4-3.6,1.3-5.2,2c-1.5,0.9-2.9,1.8-4.1,2.8c-2.4,1.8-3.9,3.9-4.9,5.3  C273.5,213.2,273.2,214.2,273.2,214.2z"/>
<ellipse transform="matrix(0.4282 -0.9037 0.9037 0.4282 -134.9013 332.0139)" style="fill:#FFFFFF;" cx="194.908" cy="272.606" rx="38.401" ry="20.5"/>
<ellipse transform="matrix(0.4282 -0.9037 0.9037 0.4282 -141.1172 334.4076)" style="fill:#54C0EB;" cx="193.692" cy="278.715" rx="25" ry="16"/>
<ellipse transform="matrix(0.4282 -0.9037 0.9037 0.4282 -141.1172 334.4076)" style="fill:#2B3B4E;" cx="193.692" cy="278.715" rx="12.6" ry="8.1"/>
<ellipse style="fill:#FFFFFF;" cx="199.9" cy="266.5" rx="5" ry="6.1"/>
<path style="fill:#324A5E;" d="M231.8,214.2c0,0-3.7-1.6-8.7-2.9c-1.2-0.4-2.6-0.5-4-0.9c-1.4-0.1-2.8-0.5-4.3-0.5  c-1.5-0.2-3-0.1-4.5,0s-3,0.3-4.6,0.5c-1.5,0.4-3.1,0.6-4.6,1.1c-1.5,0.6-3,0.8-4.5,1.5c-1.5,0.6-2.9,1.1-4.2,1.7  c-1.3,0.7-2.6,1.2-3.9,1.8c-2.5,1-4.5,2.2-6,2.8c-1.5,0.7-2.5,1-2.5,1s0.4-0.9,1.2-2.4c0.4-0.7,0.9-1.7,1.6-2.6  c0.6-1,1.4-2.1,2.4-3.2c1-1.1,2.1-2.3,3.3-3.4c1.3-1.1,2.8-2.1,4.3-3.2c1.5-1.1,3.4-1.8,5.2-2.7s3.9-1.2,5.9-1.7  c2.1-0.2,4.2-0.5,6.3-0.4s4.1,0.4,6,1c1.9,0.4,3.6,1.3,5.2,2c1.5,0.9,2.9,1.8,4.1,2.8c2.4,1.8,3.9,3.9,4.9,5.3  C231.5,213.2,231.8,214.2,231.8,214.2z"/>
<g>
</g>
<g>
</g>
<g>
</g>
<g>
</g>
<g>
</g>
<g>
</g>
<g>
</g>
<g>
</g>
<g>
</g>
<g>
</g>
<g>
</g>
<g>
</g>
<g>
</g>
<g>
</g>
<g>
</g>
</svg>
