<?xml version="1.0" encoding="iso-8859-1"?>
<!-- Generator: Adobe Illustrator 19.0.0, SVG Export Plug-In . SVG Version: 6.00 Build 0)  -->
<svg xmlns="http://www.w3.org/2000/svg" xmlns:xlink="http://www.w3.org/1999/xlink" version="1.1" id="Layer_1" x="0px" y="0px" viewBox="0 0 505 505" style="enable-background:new 0 0 505 505;" xml:space="preserve">
<circle style="fill:#FFD05B;" cx="252.5" cy="252.5" r="252.5"/>
<path style="fill:#324A5E;" d="M445.4,171.3l12.1,1.3c-1-31.3-34.9-30.3-34.9-30.3l16.1-1.3c-36.7-26.2-73.1,17-80.6,26.8  c-0.9,1.2-1.4,1.9-1.4,1.9l-0.9,3.4l16.9,61.6c25.2-0.8,42.5-19.2,42.5-19.2l-5.4,10.4c21.1-1.9,24.9-12.1,24.9-12.1l-3,9.2  c21.1-1.9,20.7-23.1,20.7-23.1l3.5,9.6C469.7,180.2,445.4,171.3,445.4,171.3z"/>
<path style="fill:#E6E9EE;" d="M414.5,159.5c2.8-0.8,5.8-1.6,8.7-0.8c3.1,0.9,5.4,3.6,6.6,6.7c1.2,3,1.4,6.3,1.5,9.6  c0.2,4.1,0.3,8.4-0.9,12.4c-2.1,7.3-8.4,12.9-15.4,16s-14.7,4.2-22.3,5.2c-3.9,0.5-7.9,1.1-11.8,1.6c-1.1,0.1-2.3,0.2-3.1-0.5  c-0.5-0.5-0.6-1.3-0.7-2.1c-0.7-5-1.1-10.8,2.4-14.3c0.6-0.6,1.3-1.1,1.7-1.7c0.6-0.8,0.9-1.9,1.1-2.9c1.1-4.2,3-8.1,4.9-12  s4.1-8,7.7-10.4c2.3-1.6,5.1-2.4,7.9-3.2C406.7,161.7,410.6,160.6,414.5,159.5z"/>
<path style="fill:#324A5E;" d="M59.6,171.3l-12.1,1.3c1-31.3,34.9-30.3,34.9-30.3L66.3,141c36.7-26.2,73.1,17,80.6,26.8  c0.9,1.2,1.4,1.9,1.4,1.9l0.9,3.4l-16.9,61.6c-25.2-0.8-42.5-19.2-42.5-19.2l5.4,10.4c-21.1-1.9-24.9-12.1-24.9-12.1l3,9.2  c-21.2-2-20.8-23.2-20.8-23.2l-3.5,9.6C35.3,180.2,59.6,171.3,59.6,171.3z"/>
<path style="fill:#E6E9EE;" d="M90.5,159.5c-2.8-0.8-5.8-1.6-8.7-0.8c-3.1,0.9-5.4,3.6-6.6,6.7c-1.2,3-1.4,6.3-1.5,9.6  c-0.2,4.1-0.3,8.4,0.9,12.4c2.1,7.3,8.4,12.9,15.4,16s14.7,4.2,22.3,5.2c3.9,0.5,7.9,1.1,11.8,1.6c1.1,0.1,2.3,0.2,3.1-0.5  c0.5-0.5,0.6-1.3,0.7-2.1c0.7-5,1.1-10.8-2.4-14.3c-0.6-0.6-1.3-1.1-1.7-1.7c-0.6-0.8-0.9-1.9-1.1-2.9c-1.1-4.2-3-8.1-4.9-12  s-4.1-8-7.7-10.4c-2.3-1.6-5.1-2.4-7.9-3.2C98.3,161.7,94.4,160.6,90.5,159.5z"/>
<path style="fill:#FFFFFF;" d="M398.4,207.6c-1.4-15.1-9.4-28.8-22-37.2c-5.5-3.7-9.8-6-9.8-6l6.9,1.5c0.6-10.1-29.9-28-29.9-28  l5.8,1.7c-0.8-10.5-40.3-20.9-40.3-20.9h6.3c-6.1-8.9-37.6-9.6-37.6-9.6l11.1-3.3c-17.3-5.1-36,3.3-36,3.3c-3-0.9,3-9.6,3-9.6  c-3.9,0.4-7.8,3.2-10,5.1c-2.2-1.9-6.1-4.7-10-5.1c0,0,5.9,8.7,3,9.6c0,0-18.6-8.4-36-3.3l11.1,3.3c0,0-31.5,0.8-37.6,9.6h6.3  c0,0-39.4,10.4-40.3,20.9l5.8-1.7c0,0-30.5,17.9-29.9,28l6.9-1.5c0,0-4.3,2.3-9.8,6c-12.5,8.5-20.6,22.2-22,37.2  c-3.4,37-6.6,119.3,28.9,142.3c0,0,47.4,34.3,75.9,41.1c12.5,3,27.3,14.3,47.6,14.6c20.4-0.3,35.2-11.6,47.6-14.6  c28.5-6.8,75.9-41.1,75.9-41.1C405.1,326.9,401.8,244.6,398.4,207.6z"/>
<g>
	<path style="fill:#324A5E;" d="M266.8,307.7c0,11.6-9.4,20-20.9,20s-20.9-8.4-20.9-20s9.4-12,20.9-12   C257.5,295.7,266.8,296.1,266.8,307.7z"/>
	<path style="fill:#324A5E;" d="M282.5,188.3c35.1-10.9,63.1,50.6,66,64.6c1.5,7.2,2.5,14.5,1.6,21.8s-3.9,14.5-9.4,19.3   c-3.3,2.9-7.3,4.8-11.4,6.4c-3.2,1.2-6.6,2.3-10,2.3c-6,0-11.5-3-16.4-6.4c-25.8-18-41.2-49.9-39.3-81.3   C263.7,212.4,261.9,194.7,282.5,188.3z"/>
</g>
<path style="fill:#FFFFFF;" d="M286.6,240.5c1.7-0.7,3.5-1.1,5.3-1c3.6,0,7.3,0.9,10.3,3c0,0,0,0,0.1,0.1c1.1,0.3,2.1,0.7,2.8,1.4  c3.3-3.9,5.4-9.7,5.4-16.1c0-11.8-7-21.4-15.7-21.4s-15.7,9.6-15.7,21.4c0,5.1,1.3,9.8,3.6,13.5  C284.2,241.1,285.7,240.9,286.6,240.5z"/>
<path style="fill:#2B3B4E;" d="M280,242.9c0,0,0.4-0.4,1.1-0.9c0.4-0.3,0.8-0.6,1.4-0.9c0.5-0.3,1.2-0.7,1.9-1  c0.7-0.4,1.5-0.6,2.4-0.9c0.9-0.2,1.8-0.5,2.8-0.5c0.5,0,1-0.1,1.5-0.1s1,0,1.6,0c0.5,0,1.1,0.1,1.6,0.1l1.6,0.2  c1,0.3,2.1,0.5,3,0.9c0.5,0.2,1,0.4,1.4,0.6c0.5,0.2,0.9,0.4,1.4,0.7c0.9,0.5,1.7,1,2.4,1.5c0.7,0.5,1.4,1.1,2,1.6  c0.3,0.2,0.6,0.5,0.9,0.7c0.2,0.3,0.5,0.5,0.7,0.7c0.4,0.5,0.8,0.9,1.1,1.2c0.6,0.7,0.9,1.1,0.9,1.1s-0.4-0.3-1.2-0.8  c-0.4-0.3-0.8-0.6-1.3-0.9c-0.3-0.2-0.5-0.4-0.8-0.6c-0.3-0.2-0.6-0.4-0.9-0.5c-0.7-0.4-1.4-0.8-2.1-1.2c-0.8-0.4-1.6-0.7-2.4-1.2  c-0.8-0.4-1.8-0.6-2.6-1c-0.9-0.3-1.9-0.5-2.8-0.8l-1.4-0.2c-0.5-0.1-1-0.2-1.4-0.2c-0.5,0-1,0-1.4-0.1c-0.5,0-0.9,0-1.4,0  c-0.9,0-1.8,0.2-2.6,0.2c-0.4,0.1-0.8,0.2-1.2,0.2c-0.4,0.1-0.8,0.2-1.1,0.3c-0.7,0.2-1.4,0.4-2,0.6c-0.6,0.2-1.1,0.4-1.5,0.6  c-0.4,0.2-0.7,0.3-0.9,0.4C280.1,242.8,280,242.9,280,242.9z"/>
<ellipse style="fill:#84DBFF;" cx="294" cy="225.2" rx="7.7" ry="9.8"/>
<ellipse style="fill:#324A5E;" cx="293.5" cy="225.4" rx="3.6" ry="5.1"/>
<ellipse style="fill:#FFFFFF;" cx="291.1" cy="222.2" rx="1.2" ry="1.7"/>
<path style="fill:#324A5E;" d="M209.4,188.3c-35.1-10.9-63.1,50.6-66,64.6c-1.5,7.2-2.5,14.5-1.6,21.8s3.9,14.5,9.4,19.3  c3.3,2.9,7.3,4.8,11.4,6.4c3.2,1.2,6.6,2.3,10,2.3c6,0,11.5-3,16.4-6.4c25.8-18,41.2-49.9,39.3-81.3  C228.1,212.4,229.9,194.7,209.4,188.3z"/>
<path style="fill:#FFFFFF;" d="M205.2,240.5c-1.7-0.7-3.5-1.1-5.3-1c-3.6,0-7.3,0.9-10.3,3c0,0,0,0-0.1,0.1  c-1.1,0.3-2.1,0.7-2.8,1.4c-3.3-3.9-5.4-9.7-5.4-16.1c0-11.8,7-21.4,15.7-21.4s15.7,9.6,15.7,21.4c0,5.1-1.3,9.8-3.6,13.5  C207.7,241.1,206.2,240.9,205.2,240.5z"/>
<path style="fill:#2B3B4E;" d="M211.8,242.9c0,0-0.4-0.4-1.1-0.9c-0.4-0.3-0.8-0.6-1.4-0.9c-0.5-0.3-1.2-0.7-1.9-1  c-0.7-0.4-1.5-0.6-2.4-0.9c-0.9-0.2-1.8-0.5-2.8-0.5c-0.5,0-1-0.1-1.5-0.1s-1,0-1.6,0c-0.5,0-1.1,0.1-1.6,0.1l-1.6,0.2  c-1,0.3-2.1,0.5-3,0.9c-0.5,0.2-1,0.4-1.4,0.6c-0.5,0.2-0.9,0.4-1.4,0.7c-0.9,0.5-1.7,1-2.4,1.5s-1.4,1.1-2,1.6  c-0.3,0.2-0.6,0.5-0.9,0.7c-0.2,0.3-0.5,0.5-0.7,0.7c-0.4,0.5-0.8,0.9-1.1,1.2c-0.6,0.7-0.9,1.1-0.9,1.1s0.4-0.3,1.2-0.8  c0.4-0.3,0.8-0.6,1.3-0.9c0.3-0.2,0.5-0.4,0.8-0.6c0.3-0.2,0.6-0.4,0.9-0.5c0.7-0.4,1.4-0.8,2.1-1.2c0.8-0.4,1.6-0.7,2.4-1.2  c0.8-0.4,1.8-0.6,2.6-1c0.9-0.3,1.9-0.5,2.8-0.8l1.4-0.2c0.5-0.1,1-0.2,1.4-0.2c0.5,0,1,0,1.4-0.1c0.5,0,0.9,0,1.4,0  c0.9,0,1.8,0.2,2.6,0.2c0.4,0.1,0.8,0.2,1.2,0.2c0.4,0.1,0.8,0.2,1.1,0.3c0.7,0.2,1.4,0.4,2,0.6c0.6,0.2,1.1,0.4,1.5,0.6  c0.4,0.2,0.7,0.3,0.9,0.4C211.7,242.8,211.8,242.9,211.8,242.9z"/>
<ellipse style="fill:#84DBFF;" cx="197.9" cy="225.2" rx="7.7" ry="9.8"/>
<ellipse style="fill:#324A5E;" cx="198.3" cy="225.4" rx="3.6" ry="5.1"/>
<ellipse style="fill:#FFFFFF;" cx="200.7" cy="222.2" rx="1.2" ry="1.7"/>
<g>
	<path style="fill:#324A5E;" d="M149.8,197.1c0,0,0.3-0.8,0.9-2.1c0.3-0.7,0.7-1.4,1.1-2.3c0.5-0.9,1-1.9,1.7-2.9   c0.6-1.1,1.4-2.1,2.2-3.3s1.8-2.3,2.8-3.5c1.1-1.1,2.1-2.4,3.3-3.5s2.4-2.3,3.8-3.3c0.7-0.5,1.3-1.1,2-1.6s1.4-1,2.1-1.5   c1.3-1,2.8-1.8,4.3-2.5c1.4-0.7,3-1,4.4-1.4c0.7-0.2,1.4-0.3,2.1-0.4c0.7,0,1.4-0.1,2-0.1c1.3,0,2.5-0.1,3.5,0.1   c1.1,0.2,2,0.4,2.7,0.5c1.5,0.4,2.3,0.7,2.3,0.7l0.1,0.8c0,0-0.8,0.5-2,1.3c-0.6,0.4-1.4,0.7-2.3,1.2c-0.9,0.4-1.8,1-2.8,1.5   s-2.1,1-3.3,1.6c-1.1,0.6-2.4,1-3.6,1.6c-1.2,0.5-2.6,0.9-4,1.5c-0.7,0.3-1.4,0.5-2.1,0.8c-0.7,0.3-1.3,0.7-2,1   c-1.3,0.7-2.6,1.5-3.8,2.3c-1.3,0.8-2.4,1.7-3.6,2.6c-1.1,0.9-2.2,1.8-3.2,2.7s-1.9,1.7-2.7,2.6c-1.7,1.6-2.9,3.1-3.8,4.2   c-0.9,1.1-1.3,1.7-1.3,1.7L149.8,197.1z"/>
	<path style="fill:#324A5E;" d="M341.4,197.5c0,0-0.4-0.6-1.3-1.7c-0.9-1.1-2.2-2.5-3.8-4.2c-0.8-0.8-1.7-1.7-2.7-2.6   c-1-0.9-2.1-1.8-3.2-2.7c-1.2-0.8-2.3-1.8-3.6-2.6c-1.2-0.8-2.5-1.6-3.8-2.3c-0.7-0.3-1.3-0.7-2-1s-1.4-0.5-2.1-0.8   c-1.3-0.6-2.7-0.9-4-1.5c-1.2-0.6-2.5-1-3.6-1.6s-2.2-1.1-3.3-1.6c-1-0.5-2-1.1-2.8-1.5c-0.9-0.4-1.6-0.8-2.3-1.2   c-1.3-0.7-2-1.3-2-1.3l0.1-0.8c0,0,0.8-0.4,2.3-0.7c0.7-0.2,1.6-0.4,2.7-0.5c1.1-0.2,2.2-0.1,3.5-0.1c0.6,0,1.3,0.1,2,0.1   c0.7,0.1,1.4,0.2,2.1,0.4c1.4,0.3,3,0.6,4.4,1.4c1.5,0.7,2.9,1.5,4.3,2.5c0.7,0.5,1.4,1,2.1,1.5s1.3,1.1,2,1.6   c1.4,1,2.6,2.1,3.8,3.3c1.2,1.1,2.3,2.4,3.3,3.5c1,1.2,2,2.3,2.8,3.5c0.8,1.1,1.6,2.2,2.2,3.3c0.7,1,1.2,2,1.7,2.9s0.8,1.6,1.1,2.3   c0.6,1.3,0.9,2.1,0.9,2.1L341.4,197.5z"/>
	<path style="fill:#324A5E;" d="M289.7,337.7c-6.4,18-23.6,30.8-43.8,30.8s-37.4-12.9-43.8-30.8c12.7,4.6,27.7,7.2,43.8,7.2   C262,344.9,277.1,342.3,289.7,337.7z"/>
</g>
<g>
</g>
<g>
</g>
<g>
</g>
<g>
</g>
<g>
</g>
<g>
</g>
<g>
</g>
<g>
</g>
<g>
</g>
<g>
</g>
<g>
</g>
<g>
</g>
<g>
</g>
<g>
</g>
<g>
</g>
</svg>
