<?xml version="1.0" encoding="iso-8859-1"?>
<!-- Generator: Adobe Illustrator 19.0.0, SVG Export Plug-In . SVG Version: 6.00 Build 0)  -->
<svg xmlns="http://www.w3.org/2000/svg" xmlns:xlink="http://www.w3.org/1999/xlink" version="1.1" id="Layer_1" x="0px" y="0px" viewBox="0 0 505 505" style="enable-background:new 0 0 505 505;" xml:space="preserve">
<circle style="fill:#FD8469;" cx="252.5" cy="252.5" r="252.5"/>
<path style="fill:#CED5E0;" d="M442.5,125.5c-88.2-0.4-115.1,57.5-115.1,57.5l4.5,11.4c-0.2,0.2-0.4,0.3-0.4,0.3l1.2,1.7l6.3,16  c0.8-0.9,1.7-1.8,2.6-2.8l28.5,42.4C454.5,209.3,442.5,125.5,442.5,125.5z"/>
<path style="fill:#ACB3BA;" d="M353.1,184.8c0,0,56-18.1,69.3-41.6c0,0,11.5,56-42.8,75.9L353.1,184.8z"/>
<path style="fill:#CED5E0;" d="M62.5,125.5c88.2-0.4,115.1,57.5,115.1,57.5l-4.5,11.4c0.2,0.2,0.4,0.3,0.4,0.3l-1.2,1.7l-6.3,16  c-0.8-0.9-1.7-1.8-2.6-2.8L134.9,252C50.5,209.3,62.5,125.5,62.5,125.5z"/>
<path style="fill:#ACB3BA;" d="M151.9,184.8c0,0-56-18.1-69.3-41.6c0,0-11.5,56,42.8,75.9L151.9,184.8z"/>
<g>
	<path style="fill:#E6E9EE;" d="M409.8,269c-1.8-30.4-30.9-76.7-30.9-76.7l14.8,9.3c-0.1-0.3-0.2-0.6-0.3-0.8   c-12.8-34.9-42.6-57.1-75.1-57.1H186.7c-32.5,0-62.3,22.2-75.1,57.1c-0.1,0.3-0.2,0.6-0.3,0.8l14.8-9.3c0,0-29.1,46.4-30.9,76.7   l11.3-9.4c0,0-29.1,72.6,3,98.8l-1.2-16.9c0,0,8.9,61.6,55.2,61.6l-5.3-16c0,0,24.3,27.8,49.8,37.1l-2.2-12.7   c0.9,4.4,7.4,26.3,46.7,31.3c39.4-5,45.8-26.8,46.7-31.3l-2.2,12.7c25.5-9.3,49.8-37.1,49.8-37.1l-5.3,16   c46.3,0,55.2-61.6,55.2-61.6l-1.2,16.9c32-26.1,3-98.8,3-98.8L409.8,269z"/>
	<path style="fill:#E6E9EE;" d="M395.5,358.4l1.2-16.9c0,0-1.9,13.3-8.6,27.5c-7.7,16.4-21.8,34.1-46.6,34.1l5.3-16   c0,0-24.3,27.8-49.8,37.1l2.1-12.2c-1.2,5.3-8.5,26-46.7,30.8c-38.1-4.8-45.4-25.5-46.6-30.8l2.1,12.2   c-25.5-9.3-49.8-37.1-49.8-37.1l5.3,16c-24.8,0-38.9-17.7-46.6-34.1c-6-12.8-8.2-24.8-8.6-27.1l1.2,16.5c-32.1-26.2-3-98.8-3-98.8   L95.1,269c1.8-30.4,30.8-76.7,30.8-76.7l-14.8,9.3c0.1-0.3,0.2-0.6,0.3-0.9c12.8-34.9,42.6-57.1,75.1-57.1h131.6   c32.5,0,62.3,22.2,75.1,57.1c0.1,0.3,0.2,0.6,0.3,0.9l-14.8-9.3c0,0,29.1,46.4,30.8,76.7l-11.3-9.4   C398.5,259.6,427.6,332.2,395.5,358.4z"/>
</g>
<path style="fill:#FFFFFF;" d="M384.2,279.3c6.4,10.1,12.5,26.8,10.3,52.9l-8.8-6.9c0,0,3.3,21.5,2.4,43.7  c-7.7,16.4-21.8,34.1-46.6,34.1l5.3-16c0,0-24.3,27.8-49.8,37.1l2.1-12.2c-1.2,5.3-8.5,26-46.7,30.8c-38.1-4.8-45.4-25.5-46.6-30.8  l2.1,12.2c-25.5-9.3-49.8-37.1-49.8-37.1l5.3,16c-24.8,0-38.9-17.7-46.6-34.1c-0.9-22.2,2.4-43.7,2.4-43.7l-8.8,6.9  c-2.2-26.1,3.9-42.8,10.3-52.9L107.2,294c10.3-28.9,22-49.3,28.9-60.1c4-6.2,9.4-11.4,15.9-15c79.4-44.8,79.7,90.8,79.7,90.8  l-2.2,2.2l15.9,9.5l28.7-10.9l-0.8-0.9c0,0,0.3-135.6,79.7-90.8c6.4,3.6,11.9,8.8,15.9,15c6.9,10.8,18.6,31.2,28.9,60.1L384.2,279.3  z"/>
<g>
	<path style="fill:#324A5E;" d="M290.2,321.4c0,15.6-16.9,36.8-37.7,36.8s-37.7-21.2-37.7-36.8s16.9-19.8,37.7-19.8   S290.2,305.8,290.2,321.4z"/>
	<path style="fill:#324A5E;" d="M297.8,362.3c-2.4,22.9-21.7,40.7-45.3,40.7c-23.5,0-42.9-17.8-45.3-40.7   c8.8,16,25.8,26.9,45.3,26.9S289,378.4,297.8,362.3z"/>
</g>
<g>
	<path style="fill:#CED5E0;" d="M308.7,143.6c-20.8,19.6-44.2,54.3-56.2,115.1c-12-60.8-35.4-95.5-56.2-115.1H308.7z"/>
	<path style="fill:#CED5E0;" d="M306.5,261.9c2,15.8,14.2,28,27.4,27.3c13.2-0.7,22.3-14,20.3-29.7c-2-15.8-14.2-28-27.4-27.3   C313.6,232.8,304.5,246.1,306.5,261.9z"/>
</g>
<path style="fill:#54C0EB;" d="M310.4,266.2c1.3,10.2,10.7,18.1,21,17.6s17.7-9.2,16.4-19.5c-1.3-10.2-10.7-18.1-21-17.6  C316.5,247.2,309.2,255.9,310.4,266.2z"/>
<path style="fill:#2B3B4E;" d="M319.7,265.7c0.6,5.2,5.4,9.2,10.7,8.9c5.2-0.3,9-4.7,8.3-9.9c-0.6-5.2-5.4-9.2-10.7-8.9  C322.7,256.1,319,260.5,319.7,265.7z"/>
<path style="fill:#FFFFFF;" d="M321.8,253.7c-1.4,2.4-0.1,4.9,3,5.6c3,0.7,6.7-0.6,8.1-2.9c1.4-2.4,0.1-4.9-3-5.6  C326.9,250.1,323.3,251.4,321.8,253.7z"/>
<path style="fill:#324A5E;" d="M304.5,221.6c0,0,3.7-1.6,8.7-2.9c1.2-0.4,2.6-0.5,4-0.9c1.4-0.1,2.8-0.5,4.3-0.5  c1.5-0.2,3-0.1,4.5,0s3,0.3,4.6,0.5c1.5,0.4,3.1,0.6,4.6,1.1c1.5,0.6,3,0.8,4.5,1.5c1.5,0.6,2.9,1.1,4.2,1.7  c1.3,0.7,2.6,1.2,3.9,1.8c2.5,1,4.5,2.2,6,2.8c1.5,0.7,2.5,1,2.5,1s-0.4-0.9-1.2-2.4c-0.4-0.7-0.9-1.6-1.6-2.6  c-0.6-1-1.4-2.1-2.4-3.2c-1-1.1-2.1-2.3-3.3-3.4c-1.3-1.1-2.8-2.1-4.3-3.2c-1.5-1.1-3.4-1.8-5.2-2.7c-1.8-0.9-3.9-1.2-5.9-1.7  c-2.1-0.2-4.2-0.5-6.3-0.4c-2.1,0.1-4.1,0.4-6,1c-1.9,0.4-3.6,1.3-5.2,2c-1.5,0.9-2.9,1.8-4.1,2.8c-2.4,1.8-3.9,3.9-4.9,5.3  C304.8,220.6,304.5,221.6,304.5,221.6z"/>
<path style="fill:#CED5E0;" d="M201.5,261.9c-2,15.8-14.2,28-27.4,27.3s-22.3-14-20.3-29.7c2-15.8,14.2-28,27.4-27.3  C194.4,232.8,203.5,246.1,201.5,261.9z"/>
<path style="fill:#54C0EB;" d="M197.5,266.2c-1.3,10.2-10.7,18.1-21,17.6s-17.7-9.2-16.4-19.5c1.3-10.2,10.7-18.1,21-17.6  C191.5,247.2,198.8,255.9,197.5,266.2z"/>
<path style="fill:#2B3B4E;" d="M188.3,265.7c-0.6,5.2-5.4,9.2-10.7,8.9c-5.2-0.3-9-4.7-8.3-9.9c0.6-5.2,5.4-9.2,10.7-8.9  C185.2,256.1,189,260.5,188.3,265.7z"/>
<path style="fill:#FFFFFF;" d="M186.1,253.7c1.4,2.4,0.1,4.9-3,5.6c-3,0.7-6.7-0.6-8.1-2.9c-1.4-2.4-0.1-4.9,3-5.6  S184.7,251.4,186.1,253.7z"/>
<path style="fill:#324A5E;" d="M203.5,221.6c0,0-3.7-1.6-8.7-2.9c-1.2-0.4-2.6-0.5-4-0.9c-1.4-0.1-2.8-0.5-4.3-0.5  c-1.5-0.2-3-0.1-4.5,0s-3,0.3-4.6,0.5c-1.5,0.4-3.1,0.6-4.6,1.1c-1.5,0.6-3,0.8-4.5,1.5c-1.5,0.6-2.9,1.1-4.2,1.7  c-1.3,0.7-2.6,1.2-3.9,1.8c-2.5,1-4.5,2.2-6,2.8c-1.5,0.7-2.5,1-2.5,1s0.4-0.9,1.2-2.4c0.4-0.7,0.9-1.6,1.6-2.6  c0.6-1,1.4-2.1,2.4-3.2c1-1.1,2.1-2.3,3.3-3.4c1.3-1.1,2.8-2.1,4.3-3.2c1.5-1.1,3.4-1.8,5.2-2.7s3.9-1.2,5.9-1.7  c2.1-0.2,4.2-0.5,6.3-0.4s4.1,0.4,6,1c1.9,0.4,3.6,1.3,5.2,2c1.5,0.9,2.9,1.8,4.1,2.8c2.4,1.8,3.9,3.9,4.9,5.3  C203.2,220.6,203.5,221.6,203.5,221.6z"/>
<g>
</g>
<g>
</g>
<g>
</g>
<g>
</g>
<g>
</g>
<g>
</g>
<g>
</g>
<g>
</g>
<g>
</g>
<g>
</g>
<g>
</g>
<g>
</g>
<g>
</g>
<g>
</g>
<g>
</g>
</svg>
