<?xml version="1.0" encoding="iso-8859-1"?>
<!-- Generator: Adobe Illustrator 19.0.0, SVG Export Plug-In . SVG Version: 6.00 Build 0)  -->
<svg xmlns="http://www.w3.org/2000/svg" xmlns:xlink="http://www.w3.org/1999/xlink" version="1.1" id="Layer_1" x="0px" y="0px" viewBox="0 0 505 505" style="enable-background:new 0 0 505 505;" xml:space="preserve">
<circle style="fill:#324A5E;" cx="252.5" cy="252.5" r="252.5"/>
<g>
	<path style="fill:#CED5E0;" d="M433.9,119.1c-6.1,15.1-19.5,23-28.7,26.8c-4.7,1.9-9.9,2.8-15,3c-47,1.9-65.3,54.9-65.3,54.9   l54.8,62.3C482.7,232.2,433.9,119.1,433.9,119.1z"/>
	<path style="fill:#CED5E0;" d="M71.1,119.1c6.1,15.1,19.5,23,28.7,26.8c4.7,1.9,9.9,2.8,15,3c47,1.9,65.3,54.9,65.3,54.9   l-54.8,62.3C22.3,232.2,71.1,119.1,71.1,119.1z"/>
</g>
<path style="fill:#E6E9EE;" d="M283,143.8c-0.5-2.1-7.2-16.8-7.2-16.8c-1.9,2-4.1,12-4.8,15.5c0.6-5.7-5.7-15.5-5.7-15.5  c-4.6,3.7-8,16.8-8,16.8c-1.3-8.9-4.2-13.4-4.8-14.2c-0.6,0.8-3.5,5.3-4.8,14.2c0,0-3.5-13.1-8-16.8c0,0-6.3,9.9-5.7,15.5  c-0.7-3.5-2.9-13.5-4.8-15.5c0,0-6.7,14.7-7.2,16.8s-132.1,7-125.2,168.6l6.4-12.4c0,0-5.1,22.5,7.5,48.2l3.9-13.8  c0,0,2.1,33.4,41.6,49.8v-5.3c2,10.9,16,32.1,96.4,22.5c80.4,9.7,94.4-11.6,96.4-22.5v5.3c39.5-16.4,41.6-49.8,41.6-49.8l3.9,13.8  C407,322.6,402,300,402,300l6.4,12.4C415.1,150.8,283.5,145.8,283,143.8z"/>
<ellipse style="fill:#ACB3BA;" cx="252.5" cy="374.1" rx="72.9" ry="59"/>
<g>
	<path style="fill:#324A5E;" d="M287.4,332.7c0,14.2-15.6,33.8-34.9,33.8c-19.2,0-34.9-19.6-34.9-33.8s15.6-20.5,34.9-20.5   C271.7,312.3,287.4,318.5,287.4,332.7z"/>
	<path style="fill:#324A5E;" d="M208.4,378.6c0.3,1.2,0.7,2.5,1.2,3.7c0.5,1.1,0.9,2.3,1.6,3.3c1.2,2.1,2.7,4,4.5,5.6   c0.9,0.8,1.8,1.5,2.7,2.2c1,0.6,2,1.2,3,1.7s2.1,0.9,3.2,1.2c1.1,0.3,2.2,0.5,3.3,0.7c1.1,0.1,2.2,0.2,3.3,0.1   c0.3,0,1.2-0.1,1.7-0.1c0.6-0.1,1-0.2,1.5-0.2c2.1-0.4,4.2-1.2,6-2.3c1.8-1.1,3.6-2.3,5-3.9s2.6-3.4,3.5-5.3c0.9-2,3.2-2.9,5.2-2   c0.9,0.4,1.6,1.1,2,2c0.9,1.9,2.1,3.7,3.5,5.3c1.4,1.6,3.2,2.9,5,3.9c1.9,1.1,3.9,1.8,6,2.3c1,0.2,2.3,0.3,3.1,0.3h1.9l1.5-0.1   c1.1-0.1,2.2-0.3,3.2-0.7c1.1-0.3,2.1-0.7,3.2-1.2c1-0.4,2-1,3-1.7c1-0.6,1.9-1.4,2.7-2.2c1.8-1.6,3.2-3.5,4.5-5.6   c0.7-1,1.1-2.2,1.6-3.3c0.5-1.2,0.8-2.4,1.2-3.6c0.1,1.3,0.1,2.6,0,3.9s-0.3,2.6-0.7,3.9c-0.3,1.3-0.9,2.6-1.5,3.8   c-0.6,1.2-1.3,2.4-2.1,3.5c-1.7,2.2-3.7,4.2-6.1,5.7c-1.2,0.8-2.4,1.5-3.8,2c-1.3,0.6-2.7,1-4.1,1.4l-2.3,0.4l-1.9,0.2   c-1.7,0.1-3,0-4.5-0.1c-2.9-0.3-5.8-1.2-8.5-2.5c-5.3-2.6-9.7-7.2-12.2-12.5h7.2c-2.6,5.4-6.9,9.9-12.2,12.5   c-2.7,1.3-5.5,2.1-8.5,2.5c-0.8,0.1-1.6,0.1-2.3,0.2c-0.7,0-1.1,0-2.1,0c-1.5-0.1-2.9-0.3-4.3-0.7c-1.4-0.4-2.8-0.8-4.1-1.4   c-1.3-0.5-2.6-1.2-3.8-2c-2.4-1.6-4.4-3.5-6.1-5.7c-0.8-1.1-1.5-2.3-2.1-3.5s-1.1-2.5-1.5-3.8s-0.6-2.6-0.7-3.9   C208.3,381.2,208.4,379.9,208.4,378.6z"/>
</g>
<ellipse transform="matrix(0.4282 -0.9037 0.9037 0.4282 -137.0898 330.7048)" style="fill:#FFFFFF;" cx="192.779" cy="273.681" rx="38.401" ry="20.5"/>
<ellipse transform="matrix(0.4282 -0.9037 0.9037 0.4282 -143.1939 333.0945)" style="fill:#54C0EB;" cx="191.616" cy="279.7" rx="25" ry="16"/>
<ellipse transform="matrix(0.4282 -0.9037 0.9037 0.4282 -143.1939 333.0945)" style="fill:#2B3B4E;" cx="191.616" cy="279.7" rx="12.6" ry="8.1"/>
<ellipse style="fill:#FFFFFF;" cx="197.9" cy="267.5" rx="5" ry="6.1"/>
<path style="fill:#324A5E;" d="M229.8,215.2c0,0-3.7-1.6-8.7-2.9c-1.2-0.4-2.6-0.5-4-0.9c-1.4-0.1-2.8-0.5-4.3-0.5  c-1.5-0.2-3-0.1-4.5,0s-3,0.3-4.6,0.5c-1.5,0.4-3.1,0.6-4.6,1.1c-1.5,0.6-3,0.8-4.5,1.5c-1.5,0.6-2.9,1.1-4.2,1.7  c-1.3,0.7-2.6,1.2-3.9,1.8c-2.5,1-4.5,2.2-6,2.8c-1.5,0.7-2.5,1-2.5,1s0.4-0.9,1.2-2.4c0.4-0.7,0.9-1.6,1.6-2.6  c0.6-1,1.4-2.1,2.4-3.2c1-1.1,2.1-2.3,3.3-3.4c1.3-1.1,2.8-2.1,4.3-3.2c1.5-1.1,3.4-1.8,5.2-2.7s3.9-1.2,5.9-1.7  c2.1-0.2,4.2-0.5,6.3-0.4s4.1,0.4,6,1c1.9,0.4,3.6,1.3,5.2,2c1.5,0.9,2.9,1.8,4.1,2.8c2.4,1.8,3.9,3.9,4.9,5.3  C229.5,214.3,229.8,215.2,229.8,215.2z"/>
<ellipse transform="matrix(0.4282 0.9037 -0.9037 0.4282 425.7491 -125.563)" style="fill:#FFFFFF;" cx="312.095" cy="273.647" rx="38.401" ry="20.5"/>
<ellipse transform="matrix(0.4282 0.9037 -0.9037 0.4282 432.0233 -123.1955)" style="fill:#54C0EB;" cx="313.361" cy="279.789" rx="25" ry="16"/>
<ellipse transform="matrix(0.4282 0.9037 -0.9037 0.4282 432.0233 -123.1955)" style="fill:#2B3B4E;" cx="313.361" cy="279.789" rx="12.6" ry="8.1"/>
<ellipse style="fill:#FFFFFF;" cx="307.1" cy="267.5" rx="5" ry="6.1"/>
<path style="fill:#324A5E;" d="M275.2,215.2c0,0,3.7-1.6,8.7-2.9c1.2-0.4,2.6-0.5,4-0.9c1.4-0.1,2.8-0.5,4.3-0.5  c1.5-0.2,3-0.1,4.5,0s3,0.3,4.6,0.5c1.5,0.4,3.1,0.6,4.6,1.1c1.5,0.6,3,0.8,4.5,1.5c1.5,0.6,2.9,1.1,4.2,1.7  c1.3,0.7,2.6,1.2,3.9,1.8c2.5,1,4.5,2.2,6,2.8c1.5,0.7,2.5,1,2.5,1s-0.4-0.9-1.2-2.4c-0.4-0.7-0.9-1.6-1.6-2.6  c-0.6-1-1.4-2.1-2.4-3.2c-1-1.1-2.1-2.3-3.3-3.4c-1.3-1.1-2.8-2.1-4.3-3.2c-1.5-1.1-3.4-1.8-5.2-2.7c-1.8-0.9-3.9-1.2-5.9-1.7  c-2.1-0.2-4.2-0.5-6.3-0.4c-2.1,0.1-4.1,0.4-6,1c-1.9,0.4-3.6,1.3-5.2,2c-1.5,0.9-2.9,1.8-4.1,2.8c-2.4,1.8-3.9,3.9-4.9,5.3  C275.5,214.3,275.2,215.2,275.2,215.2z"/>
<g>
</g>
<g>
</g>
<g>
</g>
<g>
</g>
<g>
</g>
<g>
</g>
<g>
</g>
<g>
</g>
<g>
</g>
<g>
</g>
<g>
</g>
<g>
</g>
<g>
</g>
<g>
</g>
<g>
</g>
</svg>
