<?xml version="1.0" encoding="iso-8859-1"?>
<!-- Generator: Adobe Illustrator 19.0.0, SVG Export Plug-In . SVG Version: 6.00 Build 0)  -->
<svg xmlns="http://www.w3.org/2000/svg" xmlns:xlink="http://www.w3.org/1999/xlink" version="1.1" id="Layer_1" x="0px" y="0px" viewBox="0 0 505 505" style="enable-background:new 0 0 505 505;" xml:space="preserve">
<circle style="fill:#90DFAA;" cx="252.5" cy="252.5" r="252.5"/>
<g>
	<circle style="fill:#F1543F;" cx="389.4" cy="193.3" r="57.8"/>
	<circle style="fill:#F1543F;" cx="115.6" cy="193.3" r="57.8"/>
</g>
<ellipse style="fill:#FF7058;" cx="252.5" cy="293.2" rx="142.6" ry="119.2"/>
<ellipse style="fill:#FFD05B;" cx="252.5" cy="351.1" rx="78.7" ry="47.5"/>
<g>
	<path style="fill:#324A5E;" d="M290.7,363.9c-2-1.3-4.7-0.7-6,1.4c-4.1,6.6-15.2,11.4-27.9,12.3v-37.8c0-2.4-2-4.4-4.4-4.4   s-4.4,2-4.4,4.4v37.8c-12.7-0.9-23.8-5.7-27.9-12.3c-1.3-2-4-2.7-6-1.4c-2,1.3-2.7,4-1.4,6c6.3,10.1,21.8,16.6,39.6,16.6   s33.4-6.5,39.6-16.6C293.4,367.9,292.8,365.2,290.7,363.9z"/>
	<path style="fill:#324A5E;" d="M286,327.8c0,12.3-15,28.4-33.5,28.4S219,340.1,219,327.8s15-16.1,33.5-16.1   C271,311.7,286,315.5,286,327.8z"/>
</g>
<path style="fill:#FFFFFF;" d="M285.1,271.5c2,15.8,14.2,28,27.4,27.3c13.2-0.7,22.3-14,20.3-29.7c-2-15.8-14.2-28-27.4-27.3  C292.2,242.4,283.1,255.7,285.1,271.5z"/>
<path style="fill:#54C0EB;" d="M289,275.8c1.3,10.2,10.7,18.1,21,17.6s17.7-9.2,16.4-19.5c-1.3-10.2-10.7-18.1-21-17.6  S287.7,265.6,289,275.8z"/>
<path style="fill:#2B3B4E;" d="M298.2,275.3c0.6,5.2,5.4,9.2,10.7,8.9c5.2-0.3,9-4.7,8.3-9.9c-0.6-5.2-5.4-9.2-10.7-8.9  C301.3,265.7,297.6,270.1,298.2,275.3z"/>
<path style="fill:#FFFFFF;" d="M300.4,263.4c-1.4,2.4-0.1,4.9,3,5.6c3,0.7,6.7-0.6,8.1-2.9c1.4-2.4,0.1-4.9-3-5.6  C305.4,259.7,301.8,261,300.4,263.4z"/>
<path style="fill:#324A5E;" d="M283.1,231.2c0,0,3.7-1.6,8.7-2.9c1.2-0.4,2.6-0.5,4-0.9c1.4-0.1,2.8-0.5,4.3-0.5  c1.5-0.2,3-0.1,4.5,0s3,0.3,4.6,0.5c1.5,0.4,3.1,0.6,4.6,1.1c1.5,0.6,3,0.8,4.5,1.5c1.5,0.6,2.9,1.1,4.2,1.7  c1.3,0.7,2.6,1.2,3.9,1.8c2.5,1,4.5,2.2,6,2.8c1.5,0.7,2.5,1,2.5,1s-0.4-0.9-1.2-2.4c-0.4-0.7-0.9-1.7-1.6-2.6  c-0.6-1-1.4-2.1-2.4-3.2c-1-1.1-2.1-2.3-3.3-3.4c-1.3-1.1-2.8-2.1-4.3-3.2c-1.5-1.1-3.4-1.8-5.2-2.7c-1.8-0.9-3.9-1.2-5.9-1.7  c-2.1-0.2-4.2-0.5-6.3-0.4c-2.1,0.1-4.1,0.4-6,1c-1.9,0.4-3.6,1.3-5.2,2c-1.5,0.9-2.9,1.8-4.1,2.8c-2.4,1.8-3.9,3.9-4.9,5.3  C283.4,230.2,283.1,231.2,283.1,231.2z"/>
<path style="fill:#FFFFFF;" d="M219.9,271.5c-2,15.8-14.2,28-27.4,27.3s-22.3-14-20.3-29.7c2-15.8,14.2-28,27.4-27.3  C212.8,242.4,221.9,255.7,219.9,271.5z"/>
<path style="fill:#54C0EB;" d="M216,275.8c-1.3,10.2-10.7,18.1-21,17.6s-17.7-9.2-16.4-19.5c1.3-10.2,10.7-18.1,21-17.6  C209.9,256.8,217.3,265.6,216,275.8z"/>
<path style="fill:#2B3B4E;" d="M206.8,275.3c-0.6,5.2-5.4,9.2-10.7,8.9c-5.2-0.3-9-4.7-8.3-9.9c0.6-5.2,5.4-9.2,10.7-8.9  C203.7,265.7,207.4,270.1,206.8,275.3z"/>
<path style="fill:#FFFFFF;" d="M204.6,263.4c1.4,2.4,0.1,4.9-3,5.6c-3,0.7-6.7-0.6-8.1-2.9c-1.4-2.4-0.1-4.9,3-5.6  C199.6,259.7,203.2,261,204.6,263.4z"/>
<path style="fill:#324A5E;" d="M221.9,231.2c0,0-3.7-1.6-8.7-2.9c-1.2-0.4-2.6-0.5-4-0.9c-1.4-0.1-2.8-0.5-4.3-0.5  c-1.5-0.2-3-0.1-4.5,0s-3,0.3-4.6,0.5c-1.5,0.4-3.1,0.6-4.6,1.1c-1.5,0.6-3,0.8-4.5,1.5c-1.5,0.6-2.9,1.1-4.2,1.7  c-1.3,0.7-2.6,1.2-3.9,1.8c-2.5,1-4.5,2.2-6,2.8c-1.5,0.7-2.5,1-2.5,1s0.4-0.9,1.2-2.4c0.4-0.7,0.9-1.7,1.6-2.6  c0.6-1,1.4-2.1,2.4-3.2c1-1.1,2.1-2.3,3.3-3.4c1.3-1.1,2.8-2.1,4.3-3.2c1.5-1.1,3.4-1.8,5.2-2.7s3.9-1.2,5.9-1.7  c2.1-0.2,4.2-0.5,6.3-0.4s4.1,0.4,6,1c1.9,0.4,3.6,1.3,5.2,2c1.5,0.9,2.9,1.8,4.1,2.8c2.4,1.8,3.9,3.9,4.9,5.3  C221.6,230.2,221.9,231.2,221.9,231.2z"/>
<g>
</g>
<g>
</g>
<g>
</g>
<g>
</g>
<g>
</g>
<g>
</g>
<g>
</g>
<g>
</g>
<g>
</g>
<g>
</g>
<g>
</g>
<g>
</g>
<g>
</g>
<g>
</g>
<g>
</g>
</svg>
