<?xml version="1.0" encoding="iso-8859-1"?>
<!-- Generator: Adobe Illustrator 19.0.0, SVG Export Plug-In . SVG Version: 6.00 Build 0)  -->
<svg xmlns="http://www.w3.org/2000/svg" xmlns:xlink="http://www.w3.org/1999/xlink" version="1.1" id="Layer_1" x="0px" y="0px" viewBox="0 0 505 505" style="enable-background:new 0 0 505 505;" xml:space="preserve">
<circle style="fill:#FFD05B;" cx="252.5" cy="252.5" r="252.5"/>
<g>
	<path style="fill:#2B3B4E;" d="M448,240.2c0,0-8.5,26.4-37.5,30.5c1-2.9,1.7-6.1,2-9.6c0.9-7.9,0.1-16.9-2.4-26.1   c-2.5-9.1-6.4-17.1-11.1-23.4c-3.8-5.2-8.1-9.2-12.5-11.6c3.9-8.7,9.5-16.3,17.5-19.4C404,180.7,477.3,160.3,448,240.2z"/>
	<path style="fill:#2B3B4E;" d="M57,240.2c0,0,8.5,26.4,37.5,30.5c-1-2.9-1.7-6.1-2-9.6c-0.9-7.9-0.1-16.9,2.4-26.1   c2.5-9.1,6.4-17.1,11.1-23.4c3.8-5.2,8.1-9.2,12.5-11.6c-3.9-8.7-9.5-16.3-17.5-19.4C101,180.7,27.7,160.3,57,240.2z"/>
</g>
<path style="fill:#324A5E;" d="M435.2,298.2c1.6-19.9-15.1-59.7-15.1-59.7l13.7,7c-0.8-28.9-25.9-58.1-25.9-58.1l13.4,4.3  c-5.1-19.7-41.4-38.7-41.4-38.7l19,1.1c-2.2-14.7-35.5-30.7-35.5-30.7l17.8,1.3c-7.3-18.4-54.6-30.3-54.6-30.3l15.6-2.1  c-18.4-19.4-62.2-5.4-62.2-5.4c6.4-12.7-4-32.2-4-32.2c-6.5,4.7-14,13.7-19.5,21.2c-5.6-7.5-13-16.5-19.5-21.2c0,0-10.4,19.5-4,32.2  c0,0-43.8-14-62.2,5.4l15.6,2.1c0,0-47.2,11.9-54.6,30.3l17.8-1.3c0,0-33.2,16-35.5,30.7l19-1.1c0,0-36.3,19-41.4,38.7l13.4-4.3  c0,0-25.1,29.1-25.9,58.1l13.7-7c0,0-16.6,39.8-15.1,59.7l14.7-11.5c0,0-15.3,34.4-7.9,53.2l9.6-9.1c0,0-1.6,22.7,17.6,41.9  l3.4-15.1c0,0,3.4,29.4,25,36.7l-2.6-15.7c0,0,7.4,26,36.1,36.8l-4.7-20.3c0,0,14,30.3,45.6,40.7l-4.2-17.3c0,0,5.8,18.7,46.1,32.1  c40.3-13.4,46.1-32.1,46.1-32.1l-4.2,17.3c31.6-10.3,45.6-40.7,45.6-40.7l-4.7,20.3c28.8-10.8,36.1-36.8,36.1-36.8l-2.6,15.7  c21.6-7.3,25-36.7,25-36.7l3.4,15.1c19.1-19.2,17.6-41.9,17.6-41.9l9.6,9.1c7.4-18.7-7.9-53.2-7.9-53.2L435.2,298.2z"/>
<path style="fill:#E6E9EE;" d="M351.1,227.9c-3.3,15.3,9.3,31.3,4.3,46.2c-2.7,7.9-9.8,13.3-18.2,16.5c3.8,9,5.9,18.8,5.9,29  c0,44.2-38.8,80-86.6,80s-86.6-35.8-86.6-80c0-10.3,2.1-20.1,5.9-29c-8.4-3.2-15.5-8.5-18.2-16.5c-5.2-14.9,7.6-30.9,4.2-46.2  c-2.9-12.9-16.5-22.2-18.5-35.2c-1.1-7.1,1.4-35.1,23.5-35c13.4,0,26.8,2.2,39.1,7.1c6.4,2.6,20.1,8.4,31.8,13.1  c12.1,4.8,25.5,4.8,37.5,0c11.7-4.6,25.4-10.5,31.8-13.1c12.3-4.9,25.8-7.1,39.1-7.1c22-0.1,24.5,28,23.4,35  C367.7,205.7,354,214.9,351.1,227.9z"/>
<g>
	<path style="fill:#ACB3BA;" d="M170.4,217.3c0,0-0.8-3.3,0-9.3c0.4-2.9,1.3-6.6,3.4-10.3c1.9-3.8,6.1-7.6,11.7-8.4   c5.5-0.6,10.8-0.3,16.7,0.4c5.8,0.8,12.1,2.1,18,4.6c5.8,2.3,11.9,4.8,18,7.2c6.2,2.7,11.9,4.5,18.3,4.4c6.4,0.1,12-1.7,18.3-4.4   c6.1-2.4,12.2-4.9,18-7.2c5.9-2.5,12.2-3.9,18-4.6c5.9-0.7,11.4-1,16.6-0.4c5.7,0.9,9.8,4.7,11.8,8.5c2.1,3.8,2.9,7.4,3.4,10.3   c0.8,5.9-0.1,9.3-0.1,9.3s0.3-3.4-1-9.1c-0.7-2.8-1.8-6.2-4.1-9.4c-2.1-3.2-5.9-5.9-10.2-6.4c-4.8-0.3-10.3,0.3-15.7,1.3   c-5.6,1.1-11.2,2.7-16.8,5.1c-5.8,2.4-11.8,5-17.9,7.5c-5.8,2.7-13.1,5.3-20.3,5.2c-7.1,0.1-14.5-2.5-20.3-5.2   c-6.1-2.6-12.1-5.1-17.9-7.6c-5.7-2.4-11.3-4.1-16.8-5.1s-11.1-1.6-15.6-1.3c-4.5,0.5-8.2,3.2-10.3,6.4c-2.2,3.2-3.4,6.6-4.1,9.4   C170.1,213.9,170.4,217.3,170.4,217.3z"/>
	<path style="fill:#ACB3BA;" d="M316.4,351.5c0.1,1.5,0.1,3-0.2,4.6c-0.4,1.5-1,3-1.7,4.4c-1.5,2.8-3.7,5.2-6.2,7.2   c-5,3.9-11,6.4-17.2,7.6c-3.1,0.7-6.3,1-9.4,1c-1.4,0-3.2,0-4.8-0.1c-1.6-0.1-3.2-0.3-4.8-0.6c-6.3-1.1-12.5-3.4-18-7.5h4.7   c-5.4,4.1-11.7,6.4-18,7.5c-3.2,0.5-6.4,0.7-9.5,0.7c-1.8,0-3.1-0.1-4.6-0.2c-1.6-0.3-3.3-0.4-4.8-0.8c-6.2-1.2-12.2-3.6-17.3-7.6   c-2.5-2-4.7-4.4-6.2-7.2c-0.7-1.4-1.3-2.9-1.7-4.4c-0.3-1.5-0.3-3.1-0.2-4.6c0.9,6.1,5.2,10.5,10.2,13.1c4.9,2.8,10.5,4.2,16.1,4.8   c1.4,0.2,2.7,0.2,4.1,0.2c1.4,0,3.2,0.1,4.3,0c2.8-0.1,5.6-0.5,8.3-1.1c5.4-1.2,10.6-3.2,14.7-6.4c1.4-1.1,3.3-1.1,4.7,0   c4,3.2,9.3,5.3,14.6,6.5c1.3,0.3,2.7,0.6,4.1,0.7c1.4,0.2,2.6,0.3,4.2,0.4c2.8,0.1,5.6,0.1,8.4-0.2c5.6-0.6,11.2-2,16.1-4.8   C311.2,362,315.5,357.6,316.4,351.5z"/>
	<path style="fill:#ACB3BA;" d="M211.9,312.2c0,0,0-0.5-0.1-1.4s-0.2-2.2,0-3.9c0.4-3.3,1.7-8.5,6-13.1c4.1-4.6,11.4-8.3,19.5-7.8   c4.1,0.2,8.2,1.4,11.9,3.7c1.8,1.1,3.5,2.5,5.1,4.1c0.7,0.7,1.5,1,2.3,1c0.9,0,1.6-0.2,2.4-1c1.3-1.3,3.3-3,5-4   c3.6-2.3,7.9-3.5,11.9-3.7c1.1-0.1,1.9-0.1,3.1,0c0.9,0.1,1.6,0.1,2.7,0.3c2.1,0.4,3.8,0.9,5.5,1.6c3.4,1.4,6.1,3.5,8.2,5.8   c4.3,4.6,5.5,9.7,6,13.1c0.2,1.7,0.1,3,0,3.9s-0.1,1.4-0.1,1.4s-0.2-1.9-1.3-5c-1-3-3.4-7-7.5-10.2c-2-1.6-4.5-2.9-7.2-3.7   c-1.3-0.4-2.9-0.7-4.2-0.7c-0.6-0.1-1.6,0-2.4-0.1c-0.6,0-1.4,0.1-2.2,0.2c-3,0.4-5.9,1.6-8.5,3.2c-1.4,1-2.3,1.7-3.6,3.1   c-1.8,1.9-4.8,3.4-7.7,3.4c-2.9,0-5.9-1.4-7.7-3.4c-1.1-1.1-2.3-2.2-3.6-3c-2.6-1.7-5.6-2.9-8.5-3.2c-6.1-0.8-11.9,1.2-16,4.3   c-4.1,3.2-6.5,7.2-7.5,10.2C212.2,310.3,211.9,312.2,211.9,312.2z"/>
</g>
<g>
	<path style="fill:#2B3B4E;" d="M275.1,313.5c-4.5,12.5-10.8,10.5-10.8,10.5s9.1,10.5,17.7-2.9c1.1-1.7,1.7-3.6,1.9-5.6   c0.2-2.5,1.1-6.7,4.1-10.7C288.1,304.8,279.6,301,275.1,313.5z"/>
	<path style="fill:#2B3B4E;" d="M237.9,313.5c4.5,12.5,10.8,10.5,10.8,10.5s-9.1,10.5-17.7-2.9c-1.1-1.7-1.7-3.6-1.9-5.6   c-0.2-2.5-1.1-6.7-4.1-10.7C225,304.8,233.4,301,237.9,313.5z"/>
	<circle style="fill:#2B3B4E;" cx="307.1" cy="233" r="15.7"/>
	<circle style="fill:#2B3B4E;" cx="205.9" cy="233" r="15.7"/>
</g>
<g>
	<path style="fill:#ACB3BA;" d="M274,274.5c0,0-2.1-1.5-5.3-3c-3.2-1.5-7.7-2.7-12.1-2.7c-2.4,0-4.5,0.3-6.6,0.8s-4,1.1-5.6,1.9   c-3.2,1.5-5.3,3-5.3,3s1.1-2.3,4.1-4.8c1.5-1.2,3.4-2.5,5.7-3.3c2.2-0.9,5.1-1.3,7.5-1.4c5.5-0.1,10.4,2.3,13.4,4.7   C272.9,272.2,274,274.5,274,274.5z"/>
	<path style="fill:#ACB3BA;" d="M286,257.9c0,0-0.8-0.6-2.3-1.7c-1.4-1.1-3.6-2.5-6.2-3.9c-5.3-2.9-13.1-5.3-20.9-5.3   c-4.1,0-7.9,0.6-11.5,1.5c-3.6,1-6.9,2.3-9.5,3.8s-4.8,2.8-6.2,3.9s-2.3,1.7-2.3,1.7s2.2-3.6,7.4-7.5c2.6-1.8,5.8-3.8,9.6-5.1   c3.7-1.4,8.2-2.1,12.4-2.1c4.4,0.1,8.7,0.8,12.5,2.1s7.1,3.3,9.6,5.1C283.8,254.3,286,257.9,286,257.9z"/>
</g>
<g>
	<ellipse style="fill:#FFFFFF;" cx="307" cy="227.8" rx="5.6" ry="3.3"/>
	<ellipse style="fill:#FFFFFF;" cx="203.7" cy="227.8" rx="5.6" ry="3.3"/>
</g>
<g>
</g>
<g>
</g>
<g>
</g>
<g>
</g>
<g>
</g>
<g>
</g>
<g>
</g>
<g>
</g>
<g>
</g>
<g>
</g>
<g>
</g>
<g>
</g>
<g>
</g>
<g>
</g>
<g>
</g>
</svg>
