<?xml version="1.0" encoding="iso-8859-1"?>
<!-- Generator: Adobe Illustrator 19.0.0, SVG Export Plug-In . SVG Version: 6.00 Build 0)  -->
<svg xmlns="http://www.w3.org/2000/svg" xmlns:xlink="http://www.w3.org/1999/xlink" version="1.1" id="Layer_1" x="0px" y="0px" viewBox="0 0 505 505" style="enable-background:new 0 0 505 505;" xml:space="preserve">
<circle style="fill:#84DBFF;" cx="252.5" cy="252.5" r="252.5"/>
<path style="fill:#F9B54C;" d="M445.4,192.7l12.1,1.3c-1-31.3-34.9-30.3-34.9-30.3l16.1-1.3c-36.7-26.2-73.1,17-80.6,26.8  c-0.9,1.2-1.4,1.9-1.4,1.9l-0.9,3.4l16.9,61.6c25.2-0.8,42.5-19.2,42.5-19.2l-5.4,10.4c21.1-1.9,24.9-12.1,24.9-12.1l-3,9.2  c21.1-1.9,20.7-23.1,20.7-23.1l3.5,9.6C469.7,201.6,445.4,192.7,445.4,192.7z"/>
<path style="fill:#FF7058;" d="M414.5,180.9c2.8-0.8,5.8-1.6,8.7-0.8c3.1,0.9,5.4,3.6,6.6,6.7c1.2,3,1.4,6.3,1.5,9.6  c0.2,4.1,0.3,8.4-0.9,12.4c-2.1,7.3-8.4,12.9-15.4,16s-14.7,4.2-22.3,5.2c-3.9,0.5-7.9,1.1-11.8,1.6c-1.1,0.1-2.3,0.2-3.1-0.5  c-0.5-0.5-0.6-1.3-0.7-2.1c-0.7-5-1.1-10.8,2.4-14.3c0.6-0.6,1.3-1.1,1.7-1.7c0.6-0.8,0.9-1.9,1.1-2.9c1.1-4.2,3-8.1,4.9-12  s4.1-8,7.7-10.4c2.3-1.6,5.1-2.4,7.9-3.2C406.7,183.2,410.6,182,414.5,180.9z"/>
<path style="fill:#F9B54C;" d="M59.6,192.7l-12.1,1.4c1-31.3,34.9-30.3,34.9-30.3l-16.1-1.3c36.7-26.2,73.1,17,80.6,26.8  c0.9,1.2,1.4,1.9,1.4,1.9l0.9,3.4l-16.9,61.6c-25.2-0.8-42.5-19.2-42.5-19.2l5.4,10.4c-21.1-1.9-24.9-12.1-24.9-12.1l3,9.2  c-21.2-2-20.8-23.2-20.8-23.2l-3.5,9.6C35.3,201.6,59.6,192.7,59.6,192.7z"/>
<path style="fill:#FF7058;" d="M90.5,180.9c-2.8-0.8-5.8-1.6-8.7-0.8c-3.1,0.9-5.4,3.6-6.6,6.7c-1.2,3-1.4,6.3-1.5,9.6  c-0.2,4.1-0.3,8.4,0.9,12.4c2.1,7.3,8.4,12.9,15.4,16s14.7,4.2,22.3,5.2c3.9,0.5,7.9,1.1,11.8,1.6c1.1,0.1,2.3,0.2,3.1-0.5  c0.5-0.5,0.6-1.3,0.7-2.1c0.7-5,1.1-10.8-2.4-14.3c-0.6-0.6-1.3-1.1-1.7-1.7c-0.6-0.8-0.9-1.9-1.1-2.9c-1.1-4.2-3-8.1-4.9-12  s-4.1-8-7.7-10.4c-2.3-1.6-5.1-2.4-7.9-3.2C98.3,183.2,94.4,182,90.5,180.9z"/>
<path style="fill:#FFD05B;" d="M398.4,229c-1.4-15.1-9.4-28.8-22-37.2c-5.5-3.7-9.8-6-9.8-6l6.9,1.5c0.6-10.1-29.9-28-29.9-28  l5.8,1.7c-0.8-10.5-40.3-20.9-40.3-20.9h6.3c-6.1-8.9-37.6-9.6-37.6-9.6l11.1-3.3c-17.3-5.1-36,3.3-36,3.3c-3-0.9,3-9.6,3-9.6  c-3.9,0.4-7.7,3.2-10,5.1c-2.2-1.9-6.1-4.7-10-5.1c0,0,5.9,8.7,3,9.6c0,0-18.6-8.4-36-3.3l11.1,3.3c0,0-31.5,0.8-37.6,9.6h6.3  c0,0-39.4,10.4-40.3,20.9l5.8-1.7c0,0-30.5,17.9-29.9,28l6.9-1.5c0,0-4.3,2.3-9.8,6c-12.5,8.5-20.6,22.2-22,37.2  c-3.4,37-6.6,119.3,28.9,142.3c0,0,47.4,34.3,75.9,41.1c12.5,3,27.3,14.3,47.6,14.6c20.4-0.3,35.2-11.6,47.6-14.6  c28.5-6.8,75.9-41.1,75.9-41.1C405.1,348.4,401.8,266,398.4,229z"/>
<path style="fill:#324A5E;" d="M272.7,316.5c0,14.9-12,25.6-26.8,25.6s-26.8-10.7-26.8-25.6s12-15.4,26.8-15.4  S272.7,301.7,272.7,316.5z"/>
<path style="fill:#FFFFFF;" d="M292,279.2c3.1-1.3,6.3-1.9,9.7-1.9c6.5,0.1,13.3,1.7,18.7,5.5l0.1,0.1c2,0.5,3.7,1.4,5.1,2.6  c6-7.1,9.8-17.5,9.8-29.1c0-21.4-12.8-38.7-28.5-38.7s-28.5,17.3-28.5,38.7c0,9.3,2.4,17.8,6.4,24.5  C287.6,280.4,290.3,279.9,292,279.2z"/>
<path style="fill:#F9B54C;" d="M280.1,283.6c0,0,0.6-0.7,1.9-1.7c0.7-0.5,1.5-1.1,2.5-1.7s2.1-1.2,3.4-1.8c1.3-0.6,2.8-1.1,4.3-1.6  c1.6-0.3,3.3-0.9,5.1-1c0.9-0.1,1.8-0.2,2.7-0.3c0.9,0,1.9,0,2.8,0c1,0,1.9,0.1,2.9,0.3l2.9,0.4c1.8,0.6,3.7,1,5.5,1.6  c0.9,0.4,1.7,0.7,2.6,1.1c0.8,0.4,1.7,0.7,2.5,1.2c1.5,0.9,3,1.8,4.4,2.7c1.3,1,2.5,2,3.6,2.9c0.5,0.4,1.1,0.9,1.6,1.3  c0.4,0.5,0.9,0.9,1.3,1.3c0.8,0.8,1.5,1.6,2,2.2c1.1,1.2,1.7,1.9,1.7,1.9s-0.8-0.5-2.2-1.4c-0.7-0.5-1.5-1-2.4-1.6  c-0.5-0.3-0.9-0.7-1.5-1c-0.5-0.3-1.1-0.6-1.7-1c-1.2-0.7-2.4-1.4-3.8-2.2c-1.4-0.7-2.9-1.3-4.4-2.1c-1.5-0.7-3.2-1.2-4.8-1.9  c-1.6-0.6-3.4-0.9-5.1-1.4l-2.6-0.4c-0.9-0.1-1.7-0.3-2.6-0.3s-1.7-0.1-2.6-0.2c-0.8-0.1-1.7,0-2.5,0.1c-1.7,0-3.2,0.3-4.8,0.4  c-0.8,0.1-1.5,0.3-2.2,0.4s-1.4,0.3-2,0.5c-1.3,0.3-2.5,0.7-3.5,1.1s-2,0.7-2.7,1s-1.3,0.6-1.7,0.8  C280.3,283.5,280.1,283.6,280.1,283.6z"/>
<ellipse style="fill:#84DBFF;" cx="305.4" cy="251.6" rx="14" ry="17.8"/>
<ellipse style="fill:#324A5E;" cx="304.5" cy="251.8" rx="6.6" ry="9.2"/>
<g>
	<ellipse style="fill:#FFFFFF;" cx="300.2" cy="246.1" rx="2.2" ry="3"/>
	<path style="fill:#FFFFFF;" d="M199.8,279.2c-3.1-1.3-6.3-1.9-9.7-1.9c-6.5,0.1-13.3,1.7-18.7,5.5l-0.1,0.1c-2,0.5-3.7,1.4-5.1,2.6   c-6-7.1-9.8-17.5-9.8-29.1c0-21.4,12.8-38.7,28.5-38.7s28.5,17.3,28.5,38.7c0,9.3-2.4,17.8-6.4,24.5   C204.2,280.4,201.5,279.9,199.8,279.2z"/>
</g>
<path style="fill:#F9B54C;" d="M211.8,283.6c0,0-0.6-0.7-1.9-1.7c-0.7-0.5-1.5-1.1-2.5-1.7s-2.1-1.2-3.4-1.8  c-1.3-0.6-2.8-1.1-4.3-1.6c-1.6-0.3-3.3-0.9-5.1-1c-0.9-0.1-1.8-0.2-2.7-0.3c-0.9,0-1.9,0-2.8,0c-1,0-1.9,0.1-2.9,0.3l-2.9,0.4  c-1.8,0.6-3.7,1-5.5,1.6c-0.9,0.4-1.7,0.7-2.6,1.1c-0.8,0.4-1.7,0.7-2.5,1.2c-1.5,0.9-3,1.8-4.4,2.7c-1.3,1-2.5,2-3.6,2.9  c-0.5,0.4-1.1,0.9-1.6,1.3c-0.4,0.5-0.9,0.9-1.3,1.3c-0.8,0.8-1.5,1.6-2,2.2c-1.1,1.2-1.7,1.9-1.7,1.9s0.8-0.5,2.2-1.4  c0.7-0.5,1.5-1,2.4-1.6c0.5-0.3,0.9-0.7,1.5-1c0.5-0.3,1.1-0.6,1.7-1c1.2-0.7,2.4-1.4,3.8-2.2c1.4-0.7,2.9-1.3,4.4-2.1  c1.5-0.7,3.2-1.2,4.8-1.9c1.6-0.6,3.4-0.9,5.1-1.4l2.6-0.4c0.9-0.1,1.7-0.3,2.6-0.3c0.9,0,1.7-0.1,2.6-0.2c0.8-0.1,1.7,0,2.5,0.1  c1.7,0,3.2,0.3,4.8,0.4c0.8,0.1,1.5,0.3,2.2,0.4s1.4,0.3,2,0.5c1.3,0.3,2.5,0.7,3.5,1.1s2,0.7,2.7,1s1.3,0.6,1.7,0.8  C211.6,283.5,211.8,283.6,211.8,283.6z"/>
<ellipse style="fill:#84DBFF;" cx="186.5" cy="251.6" rx="14" ry="17.8"/>
<ellipse style="fill:#324A5E;" cx="187.3" cy="251.8" rx="6.6" ry="9.2"/>
<ellipse style="fill:#FFFFFF;" cx="191.6" cy="246.1" rx="2.2" ry="3"/>
<g>
	<path style="fill:#324A5E;" d="M149.8,218.5c0,0,0.3-0.8,0.9-2.1c0.3-0.7,0.7-1.4,1.1-2.3c0.5-0.9,1-1.9,1.7-2.9   c0.6-1,1.4-2.1,2.2-3.3s1.8-2.3,2.8-3.5c1.1-1.1,2.1-2.4,3.3-3.5s2.4-2.3,3.8-3.3c0.7-0.5,1.3-1.1,2-1.6s1.4-1,2.1-1.5   c1.3-1,2.8-1.8,4.3-2.5c1.4-0.7,3-1,4.4-1.4c0.7-0.2,1.4-0.3,2.1-0.4c0.7,0,1.4-0.1,2-0.1c1.3,0,2.5-0.1,3.5,0.1   c1.1,0.2,2,0.4,2.7,0.5c1.5,0.4,2.3,0.7,2.3,0.7l0.1,0.8c0,0-0.8,0.5-2,1.3c-0.6,0.4-1.4,0.7-2.3,1.2c-0.9,0.4-1.8,1-2.8,1.5   s-2.1,1-3.3,1.6c-1.1,0.6-2.4,1-3.6,1.6c-1.2,0.5-2.6,0.9-4,1.5c-0.7,0.3-1.4,0.5-2.1,0.8c-0.7,0.3-1.3,0.7-2,1   c-1.3,0.7-2.6,1.5-3.8,2.3c-1.3,0.8-2.4,1.7-3.6,2.6c-1.1,0.9-2.2,1.8-3.2,2.7s-1.9,1.7-2.7,2.6c-1.7,1.6-2.9,3.1-3.8,4.2   c-0.9,1.1-1.3,1.7-1.3,1.7L149.8,218.5z"/>
	<path style="fill:#324A5E;" d="M341.4,218.9c0,0-0.4-0.6-1.3-1.7c-0.9-1.1-2.2-2.5-3.8-4.2c-0.8-0.8-1.7-1.7-2.7-2.6   c-1-0.9-2.1-1.8-3.2-2.7c-1.2-0.8-2.3-1.8-3.6-2.6c-1.2-0.8-2.5-1.6-3.8-2.3c-0.7-0.3-1.3-0.7-2-1s-1.4-0.5-2.1-0.8   c-1.3-0.6-2.7-0.9-4-1.5c-1.2-0.6-2.5-1-3.6-1.6s-2.2-1.1-3.3-1.6c-1-0.5-2-1.1-2.8-1.5c-0.9-0.4-1.6-0.8-2.3-1.2   c-1.3-0.7-2-1.3-2-1.3l0.1-0.8c0,0,0.8-0.4,2.3-0.7c0.7-0.2,1.6-0.4,2.7-0.5c1.1-0.2,2.2-0.1,3.5-0.1c0.6,0,1.3,0.1,2,0.1   c0.7,0.1,1.4,0.2,2.1,0.4c1.4,0.3,3,0.6,4.4,1.4c1.5,0.7,2.9,1.5,4.3,2.5c0.7,0.5,1.4,1,2.1,1.5s1.3,1.1,2,1.6   c1.4,1,2.6,2.1,3.8,3.3c1.2,1.1,2.3,2.4,3.3,3.5c1,1.2,2,2.3,2.8,3.5c0.8,1.1,1.6,2.2,2.2,3.3c0.7,1,1.2,2,1.7,2.9s0.8,1.6,1.1,2.3   c0.6,1.3,0.9,2.1,0.9,2.1L341.4,218.9z"/>
	<path style="fill:#324A5E;" d="M302.1,354.9c-8.3,23-30.3,39.5-56.1,39.5c-25.9,0-47.9-16.5-56.1-39.5c16.2,5.9,35.5,9.3,56.1,9.3   C266.6,364.2,285.8,360.8,302.1,354.9z"/>
</g>
<g>
</g>
<g>
</g>
<g>
</g>
<g>
</g>
<g>
</g>
<g>
</g>
<g>
</g>
<g>
</g>
<g>
</g>
<g>
</g>
<g>
</g>
<g>
</g>
<g>
</g>
<g>
</g>
<g>
</g>
</svg>
