<?xml version="1.0" encoding="iso-8859-1"?>
<!-- Generator: Adobe Illustrator 19.0.0, SVG Export Plug-In . SVG Version: 6.00 Build 0)  -->
<svg xmlns="http://www.w3.org/2000/svg" xmlns:xlink="http://www.w3.org/1999/xlink" version="1.1" id="Layer_1" x="0px" y="0px" viewBox="0 0 505 505" style="enable-background:new 0 0 505 505;" xml:space="preserve">
<circle style="fill:#FFD05B;" cx="252.5" cy="252.5" r="252.5"/>
<path style="fill:#4CDBC4;" d="M418.2,230.6c-14.9-15.3-25.9-33.7-32.2-54.1c-7.6-24.5-22.4-41.1-39.4-41.1  c-11.2,0-21.5,7.2-29.3,19.1c-17.1-7.6-39.8-12.2-64.7-12.2c-25,0-47.7,4.7-64.7,12.2c-7.9-11.9-18.1-19.1-29.3-19.1  c-17.1,0-31.9,16.6-39.4,41.1c-6.3,20.4-17.3,38.8-32.2,54.1c-12.6,12.9-19.7,27.6-19.7,43c0,53,83,96,185.3,96s185.3-43,185.3-96  C437.8,258.1,430.7,243.5,418.2,230.6z"/>
<g>
	<polygon style="fill:#FFFFFF;" points="271.4,317.4 285,353.5 298.7,317.4  "/>
	<polygon style="fill:#FFFFFF;" points="206.3,317.4 220,353.5 233.6,317.4  "/>
	
		<ellipse transform="matrix(-0.3315 -0.9434 0.9434 -0.3315 289.3539 591.6031)" style="fill:#FFFFFF;" cx="354.268" cy="193.29" rx="38.498" ry="20.399"/>
</g>
<path style="fill:#2B3B4E;" d="M360.4,191.2c-1.6-4-4-7.6-6.4-9.8c-1.2-1.1-2.3-2-3.2-2.5c-0.9-0.5-1.4-0.8-1.4-0.8s-0.2,0.8-0.3,2  c-0.1,1.2-0.2,2.9-0.2,4.8c0.1,3.8,1,8.4,2.6,12.4s4,7.6,6.4,9.8c1.2,1.1,2.3,2,3.2,2.5c0.9,0.5,1.4,0.8,1.4,0.8s0.2-0.8,0.3-2  c0.1-1.2,0.2-2.9,0.2-4.8C362.9,199.8,362,195.2,360.4,191.2z"/>
<ellipse transform="matrix(-0.3315 0.9434 -0.9434 -0.3315 381.4586 116.4355)" style="fill:#FFFFFF;" cx="149.479" cy="193.359" rx="38.498" ry="20.399"/>
<path style="fill:#2B3B4E;" d="M143.4,191.2c1.6-4,4-7.6,6.4-9.8c1.2-1.1,2.3-2,3.2-2.5s1.4-0.8,1.4-0.8s0.2,0.8,0.3,2  s0.2,2.9,0.2,4.8c-0.1,3.8-1,8.4-2.6,12.4s-4,7.6-6.4,9.8c-1.2,1.1-2.3,2-3.2,2.5s-1.4,0.8-1.4,0.8s-0.2-0.8-0.3-2s-0.2-2.9-0.2-4.8  C140.8,199.8,141.7,195.2,143.4,191.2z"/>
<path style="fill:#2C9984;" d="M299.4,244.6c-10.1-2.9-20.9,1.7-28.8,10.7c-5.4-1.8-11.6-2.8-18.1-2.8s-12.7,1-18.1,2.8  c-7.9-9.1-18.7-13.6-28.8-10.7c-15.5,4.4-23.4,24.4-17.7,44.7c0.5,1.7,1,3.2,1.6,4.8c1.5,3.9,1.6,8.1,1.1,12.2  c-0.1,0.5-0.1,1-0.1,1.4c0,10.6,15.6,19.3,34.8,19.3c5.5,0,10.7-0.7,15.3-2c7.8-2.1,15.9-2.1,23.7,0c4.6,1.3,9.8,2,15.3,2  c19.2,0,34.8-8.6,34.8-19.3c0-0.5,0-1-0.1-1.4c-0.6-4.1-0.5-8.3,1.1-12.2c0.6-1.5,1.2-3.1,1.6-4.8C322.8,269,314.9,249,299.4,244.6z  "/>
<g>
	<path style="fill:#2B3B4E;" d="M301.8,289.9c-6.5,7.6-19.7,14.7-24.7,10.4c-5-4.3,0-18.4,6.5-26s12-5.7,17-1.4   C305.7,277.2,308.3,282.4,301.8,289.9z"/>
	<path style="fill:#2B3B4E;" d="M203.2,289.9c6.5,7.6,19.7,14.7,24.7,10.4c5-4.3,0-18.4-6.5-26s-12-5.7-17-1.4   C199.3,277.2,196.7,282.4,203.2,289.9z"/>
</g>
<g>
	<path style="fill:#2C9984;" d="M294.8,191.8c0,0-0.3-0.2-0.8-0.7s-1.4-1.1-2.4-1.8s-2.3-1.5-3.9-2.4c-1.5-0.9-3.3-1.6-5.2-2.5   c-3.9-1.6-8.6-3-13.7-3.9c-5.1-1-10.7-1.4-16.2-1.4c-1.2,0-3,0-4.2,0.1c-1.3,0.1-2.7,0.1-4,0.3c-2.7,0.3-5.4,0.6-7.9,1.1   c-5.1,1-9.8,2.3-13.7,3.9c-1.9,0.8-3.7,1.6-5.2,2.5c-1.5,0.8-2.8,1.6-3.9,2.4c-1,0.7-1.9,1.3-2.4,1.8c-0.6,0.4-0.9,0.7-0.9,0.7   s0.2-0.3,0.5-1c0.3-0.6,0.8-1.6,1.6-2.7c0.8-1.1,1.7-2.5,3.1-3.8c1.3-1.4,2.9-2.8,4.8-4.2c3.7-2.8,8.7-5.3,14.3-7   c2.8-0.8,5.7-1.6,8.8-2c1.5-0.2,3.1-0.4,4.7-0.5c1.7-0.1,2.9-0.1,4.6-0.2c6.2,0,12.5,1,18.1,2.7c2.8,0.8,5.4,1.9,7.8,3.1   c2.4,1.2,4.6,2.5,6.5,3.9s3.5,2.8,4.8,4.2c1.3,1.3,2.3,2.7,3.1,3.8C294.3,190.4,294.7,191.8,294.8,191.8z"/>
	<path style="fill:#2C9984;" d="M280.2,219.6c0,0-0.2-0.1-0.6-0.4c-0.4-0.3-1-0.6-1.7-1c-1.5-0.8-3.6-1.8-6.2-2.6   c-5.2-1.7-12.1-2.8-19.2-2.8c-0.7,0-2,0-2.7,0.1l-2.5,0.1c-1.7,0.1-3.4,0.3-5.1,0.6c-3.3,0.5-6.3,1.2-8.9,2c-5.1,1.6-8.5,4-8.5,4   s0.2-1,1.1-2.6c0.9-1.6,2.5-3.8,5-5.8c2.4-2.1,5.7-3.9,9.5-5.2c1.9-0.6,3.9-1.2,5.9-1.4c1-0.2,2.1-0.3,3.2-0.4   c1.2-0.1,1.9-0.1,3.1-0.1c4.2,0,8.4,0.7,12.2,2c3.8,1.3,7.1,3.1,9.5,5.2c2.5,2,4.1,4.2,5,5.8C280,218.6,280.2,219.6,280.2,219.6z"/>
</g>
<g>
	<path style="fill:#FFFFFF;" d="M338.9,298.7c-1.1,4-3.9,6.3-7,6.6l13.8,16l0.3-25.9C343.6,296.3,341.4,297.4,338.9,298.7z"/>
	<path style="fill:#FFFFFF;" d="M352.7,294.2c-1.1,0-2,0.2-3,0.3l10.5,22.7l7.2-24.3C362.8,294.8,357.7,294.1,352.7,294.2z"/>
	<path style="fill:#FFFFFF;" d="M392.2,287.5c2-1.2,3.5-3.3,5.2-4.8c0.1-0.1,0.3-0.1,0.4-0.2l-14-11.1l3.3,18.4   C389,289.2,390.8,288.4,392.2,287.5z"/>
	<path style="fill:#FFFFFF;" d="M383.1,291.1c0.1,0,0.3-0.1,0.4-0.1l-10.2-14.4l-1.8,17.9C375.2,292.7,379.1,292.2,383.1,291.1z"/>
</g>
<path style="fill:#2C9984;" d="M400,278.5c-1.7,2.4-5.1,5.1-9.7,7.2c-2.3,1-4.9,1.9-7.6,2.7c-2.9,0.8-5.8,1.3-9,1.8  c-6.3,0.9-13.3,1.4-20.3,2.2c-3.6,0.5-6.9,0.7-10.9,2c-1,0.4-1.9,0.8-3.1,1.6c-0.8,0.6-1.8,1.7-2.3,2.5c-1.1,1.8-1.5,2.8-2.4,3.8  c-1.8,1.9-4.4,3.3-6.9,4.1c-2.7,0.8-5.2,1-7.7,0.9s-5.2-0.4-7.5,0.3c-2.5,0.7-3.7,2.5-4.8,3.5c-1,1.1-2,1.7-2.8,1.9  c-0.8,0.2-1.2,0.1-1.2,0.1s0.4,0.2,1.3,0.2c0.9,0.1,2.2-0.3,3.5-1.3c1.3-0.9,2.7-2.1,4.5-2.2c1.8-0.2,4.1,0.4,6.7,0.9s5.9,0.7,9.1,0  s6.7-2,9.6-4.7c1.5-1.3,2.6-3.4,3.3-4.4c0.4-0.6,0.6-0.8,1.2-1.2c0.3-0.2,0.9-0.5,1.5-0.7c2.6-0.8,6.3-1.1,9.7-1.5  c6.9-0.9,13.9-1.5,20.5-2.9c3.3-0.7,6.5-1.6,9.4-2.7c3-1.1,5.6-2.4,8-3.9c4.7-2.9,7.7-6.7,9.1-9.5c0.7-1.4,1-2.7,1.1-3.5  s0.2-1.3,0.2-1.3S401.7,276.1,400,278.5z"/>
<g>
	<path style="fill:#FFFFFF;" d="M166.1,298.7c1.1,4,3.9,6.3,7,6.6l-13.8,16l-0.3-25.9C161.4,296.3,163.6,297.4,166.1,298.7z"/>
	<path style="fill:#FFFFFF;" d="M152.3,294.2c1.1,0,2,0.2,3,0.3l-10.5,22.7l-7.2-24.3C142.2,294.8,147.3,294.1,152.3,294.2z"/>
	<path style="fill:#FFFFFF;" d="M112.8,287.5c-2-1.2-3.5-3.3-5.2-4.8c-0.1-0.1-0.3-0.1-0.4-0.2l14-11.1l-3.3,18.4   C116,289.2,114.2,288.4,112.8,287.5z"/>
	<path style="fill:#FFFFFF;" d="M121.9,291.1c-0.1,0-0.3-0.1-0.4-0.1l10.2-14.4l1.8,17.9C129.8,292.7,125.9,292.2,121.9,291.1z"/>
</g>
<path style="fill:#2C9984;" d="M105,278.5c1.7,2.4,5.1,5.1,9.7,7.2c2.3,1,4.9,1.9,7.6,2.7c2.9,0.8,5.8,1.3,9,1.8  c6.3,0.9,13.3,1.4,20.3,2.2c3.6,0.5,6.9,0.7,10.9,2c1,0.4,1.9,0.8,3.1,1.6c0.8,0.6,1.8,1.7,2.3,2.5c1.1,1.8,1.5,2.8,2.4,3.8  c1.8,1.9,4.4,3.3,6.9,4.1c2.7,0.8,5.2,1,7.7,0.9s5.2-0.4,7.5,0.3c2.5,0.7,3.7,2.5,4.8,3.5c1,1.1,2,1.7,2.8,1.9  c0.8,0.2,1.2,0.1,1.2,0.1s-0.4,0.2-1.3,0.2c-0.9,0.1-2.2-0.3-3.5-1.3c-1.3-0.9-2.7-2.1-4.5-2.2c-1.8-0.2-4.1,0.4-6.7,0.9  c-2.6,0.5-5.9,0.7-9.1,0c-3.2-0.7-6.7-2-9.6-4.7c-1.5-1.3-2.6-3.4-3.3-4.4c-0.4-0.6-0.6-0.8-1.2-1.2c-0.3-0.2-0.9-0.5-1.5-0.7  c-2.6-0.8-6.3-1.1-9.7-1.5c-6.9-0.9-13.9-1.5-20.5-2.9c-3.3-0.7-6.5-1.6-9.4-2.7c-3-1.1-5.6-2.4-8-3.9c-4.7-2.9-7.7-6.7-9.1-9.5  c-0.7-1.4-1-2.7-1.1-3.5s-0.2-1.3-0.2-1.3S103.3,276.1,105,278.5z"/>
<g>
</g>
<g>
</g>
<g>
</g>
<g>
</g>
<g>
</g>
<g>
</g>
<g>
</g>
<g>
</g>
<g>
</g>
<g>
</g>
<g>
</g>
<g>
</g>
<g>
</g>
<g>
</g>
<g>
</g>
</svg>
