<?xml version="1.0" encoding="iso-8859-1"?>
<!-- Generator: Adobe Illustrator 19.0.0, SVG Export Plug-In . SVG Version: 6.00 Build 0)  -->
<svg xmlns="http://www.w3.org/2000/svg" xmlns:xlink="http://www.w3.org/1999/xlink" version="1.1" id="Layer_1" x="0px" y="0px" viewBox="0 0 505 505" style="enable-background:new 0 0 505 505;" xml:space="preserve">
<circle style="fill:#FFD05B;" cx="252.5" cy="252.5" r="252.5"/>
<g>
	<path style="fill:#E6E9EE;" d="M360.1,481c-32.6,15.4-69.1,24-107.6,24c-41.8,0-81.2-10.1-115.9-28.1   c12.4-31.2,22.9-63.4,31.3-96.3c2-7.7,3.9-15.4,5.6-23.1c6-26.3,10.8-52.9,14.2-79.9c1.4-10.8,3.1-22.8,10.7-29.6   c6.3-5.5,14.9-5.9,22.9-6c18.5-0.3,36.9-0.6,55.4-0.8c11.1-0.2,23-0.1,32.3,6.7c13,9.5,16.9,29.2,15.4,46.6s-7.1,34-8.6,51.4   c-1.2,14.5,0.6,28.7,4.2,42.6c5.1,20,13.9,39.3,23,57.8c0.9,1.9,1.9,3.8,2.8,5.7C350.6,461.7,355.4,471.3,360.1,481z"/>
	<path style="fill:#E6E9EE;" d="M356.8,203.7c-0.2-17.7-2.5-35.3-7-52.5c-1.6-6.1-3.5-12.2-5.6-18.1c-4-11.2-9.3-22.5-18.7-30.2   c-0.1-0.1-0.2-0.2-0.4-0.3c-7.5-6-17-9.3-26.2-12.5l-21.2-7.3c-8.1-2.8-16.6-5.6-25.2-4.9c-8.6-0.7-17.1,2.1-25.2,4.9l-21.2,7.3   c-9.3,3.2-18.7,6.5-26.2,12.5c-0.1,0.1-0.2,0.2-0.4,0.3c-9.4,7.7-14.7,19-18.7,30.2c-2.1,6-4,12-5.6,18.1   c-4.5,17.2-6.9,34.8-7,52.5c0,4.1,0,8.2,0.5,12.3c1.5,14.9,7.2,29.1,13.2,43c0.4,1,0.9,2,1.3,3.1c1.1,2.6,2.2,5.2,3.4,7.8   c1.4,3.2,2.7,6.4,4.3,9.5c2.5,5,5.4,9.9,7.3,15.1c0.9,2.3,1.5,4.7,2.1,7.1c1.4,5.6,2.3,11.4,4.5,16.7c2.8,6.8,7.6,13,14.4,16.6   c6.7,3.6,15.4,4.2,22.2,0.7c4.4-2.2,8.2-6.1,13.2-6.5c6.5-0.4,12.1,5.3,18.1,6.8c6-1.5,11.6-7.2,18.1-6.8c5,0.3,8.8,4.2,13.2,6.5   c6.8,3.5,15.5,2.8,22.2-0.7c6.7-3.6,11.6-9.8,14.4-16.6c2.2-5.4,3.1-11.1,4.5-16.7c0.6-2.4,1.2-4.8,2.1-7.1   c1.9-5.2,4.8-10.1,7.3-15.1c1.5-3.1,2.9-6.3,4.3-9.5c1.1-2.6,2.2-5.2,3.4-7.8c0.4-1,0.9-2,1.3-3.1c6-13.9,11.7-28.1,13.2-43   C356.8,212,356.8,207.8,356.8,203.7z"/>
</g>
<path style="fill:#ACB3BA;" d="M177.2,292c0.4,0.8,0.7,1.7,1,2.5c0.9,2.3,1.5,4.7,2.1,7.1c1.4,5.6,2.3,11.4,4.5,16.7  c2.8,6.8,7.6,13,14.4,16.6c6.7,3.6,15.4,4.2,22.2,0.7c4.4-2.2,8.2-6.1,13.2-6.5c6.5-0.4,12.1,5.3,18.1,6.8c6-1.5,11.6-7.2,18.1-6.8  c5,0.3,8.8,4.2,13.2,6.5c6.8,3.5,15.5,2.8,22.2-0.7c6.7-3.6,11.6-9.8,14.4-16.6c2.2-5.4,3.1-11.1,4.5-16.7c0.6-2.4,1.2-4.8,2.1-7.1  c0.3-0.8,0.7-1.7,1-2.5H177.2z"/>
<g>
	<path style="fill:#2B3B4E;" d="M220.9,309.4c1.1-0.3,2.1-0.7,3.2-0.8c1.5-0.1,3.1,0.3,4.6,0.5c5,0.8,10.2-0.2,15.3,0.4   c2.3,0.3,4.6,0.9,6.9,1.3c4.2,0.7,8.5,0.7,12.8,0.7c7.6-0.1,15.2-0.1,22.7-0.2c0.7,0,1.4,0,2-0.4c0.5-0.3,0.9-0.9,1.1-1.4   c1.1-2.5,0.8-5.4-0.3-7.9c-1.1-2.5-3-4.5-5-6.3c-6.4-5.7-14.9-9.2-23.5-9.2c-4,0-8,0.8-12,1.5c-5,0.9-10.1,1.7-15.1,2.4   c-5.3,0.7-10.8,1.5-15.4,4.2c-4.6,2.7-8.1,8.1-7,13.3c0.2,0.7,0.5,1.5,1.1,1.9c0.4,0.3,1,0.4,1.5,0.4   C216.3,310.2,218.6,310,220.9,309.4z"/>
	<path style="fill:#2B3B4E;" d="M248.3,302.9c-1.9-0.7-3.7-1.7-5.6-2.5c-4.6-1.9-9.6-2.1-14.5-2.3c-2.1-0.1-4.3-0.1-6.4,0.5   c-3.3,1-5.9,3.6-8.1,6.3c-0.4,0.5-0.9,1.2-0.7,1.8c0.1,0.3,0.3,0.5,0.4,0.8c1.8,2.3,4.6,3.8,7.5,4.2c1,0.1,2,0.1,2.9,0.1   c11.6-0.1,23.1-0.2,34.7-0.4c1.1,0,2.4-0.2,2.7-1.2c0.3-0.9-0.5-1.8-1.2-2.4c-1.6-1.3-3.4-2.3-5.3-2.9   C252.7,304,250.5,303.7,248.3,302.9z"/>
</g>
<path style="fill:#ACB3BA;" d="M356.4,216.1c-1.5,14.9-7.2,29.1-13.2,43c-0.4,1-0.9,2-1.3,3.1c-1.1,2.6-2.2,5.2-3.4,7.8  c-1.4,3.2-2.7,6.4-4.3,9.5c-2.5,5-5.4,9.9-7.3,15.1c-0.9,2.3-1.5,4.7-2.1,7.1c-4.3-6.9-7-14.6-9.6-22.2c-1.3-3.7-2.5-7.4-3.2-11.3  c-1.1-6.9-0.1-14-0.5-21c-0.9-18.6-11.1-35.5-20.4-52c-9.3-16.4-18.2-34.3-16.2-52.9c0.7-5.8,2.8-12.1,8.1-15.2  c3-1.7,6.5-2.2,10-2.4c16.4-0.8,32.9,5.3,44.5,16.2c3.8,3.6,7.5,7.9,12.2,10.2c4.5,17.2,6.9,34.8,7,52.5  C356.8,207.8,356.8,212,356.4,216.1z"/>
<path style="fill:#324A5E;" d="M332.7,158.4c-8.2-10.1-21.4-10.1-29.6,0l-5.1,6.3l5.1,6.3c8.2,10.1,21.4,10.1,29.6,0l5.1-6.3  L332.7,158.4z"/>
<path style="fill:#2B3B4E;" d="M340.2,164.7l-5.7,6.3c-9.1,10.1-23.9,10.1-33.1,0l-5.7-6.3l5.7-6.3c0.5-0.5,0.9-1,1.5-1.5  c8.7-8.1,21.4-8.1,30.1,0c0.5,0.5,1,1,1.5,1.5L340.2,164.7z"/>
<path style="fill:#FFD05B;" d="M332.2,161.3c0,7.4-6.4,13.5-14.3,13.5s-14.3-6-14.3-13.5c0-1.5,0.3-3,0.8-4.4c7.8-8.1,19.2-8.1,27,0  C332,158.3,332.2,159.8,332.2,161.3z"/>
<ellipse style="fill:#2B3B4E;" cx="317.9" cy="161.3" rx="6.3" ry="5.9"/>
<ellipse style="fill:#FFFFFF;" cx="315.6" cy="157.3" rx="2.9" ry="2.8"/>
<path style="fill:#324A5E;" d="M293.9,166.7c0,0,1.4-3.8,4.3-8.8c0.4-0.6,0.8-1.3,1.3-2c0.7-1,1.1-1.3,1.6-2  c1.2-1.3,2.8-2.8,4.5-3.9c1.7-1.1,3.6-2.2,5.8-2.8c2.1-0.7,4.4-1,6.7-1.1c2.3,0.1,4.6,0.3,6.7,1.1c2.1,0.6,4,1.7,5.8,2.8  c1.7,1.1,3.2,2.5,4.4,3.9c0.6,0.7,1.2,1.3,1.7,2.1c0.4,0.7,0.9,1.4,1.3,2c2.9,5,4.3,8.9,4.3,8.9s-3.4-2.1-7.8-6  c-0.5-0.4-1.1-0.9-1.7-1.3c-0.6-0.4-1.1-0.8-1.7-1.3c-1.2-0.8-2.6-1.5-3.9-2.2c-1.4-0.6-2.9-1.1-4.4-1.5s-3.1-0.5-4.6-0.5  c-1.5,0.1-3.1,0.1-4.6,0.5c-1.5,0.3-3,0.8-4.4,1.5c-1.4,0.8-2.6,1.3-3.9,2.2c-0.6,0.4-1.5,1.1-1.8,1.3c-0.6,0.5-1.1,0.9-1.7,1.3  C297.3,164.6,293.9,166.7,293.9,166.7z"/>
<path style="fill:#ACB3BA;" d="M148.7,216.1c1.5,14.9,7.2,29.1,13.2,43c0.4,1,0.9,2,1.3,3.1c1.1,2.6,2.2,5.2,3.4,7.8  c1.4,3.2,2.7,6.4,4.3,9.5c2.5,5,5.4,9.9,7.3,15.1c0.9,2.3,1.5,4.7,2.1,7.1c4.3-6.9,7-14.6,9.6-22.2c1.3-3.7,2.5-7.4,3.2-11.3  c1.1-6.9,0.1-14,0.5-21c0.9-18.6,11.1-35.5,20.4-52c9.3-16.4,18.2-34.3,16.2-52.9c-0.7-5.8-2.8-12.1-8.1-15.2c-3-1.7-6.5-2.2-10-2.4  c-16.4-0.8-32.9,5.3-44.5,16.2c-3.8,3.6-7.5,7.9-12.2,10.2c-4.5,17.2-6.9,34.8-7,52.5C148.2,207.8,148.3,212,148.7,216.1z"/>
<path style="fill:#324A5E;" d="M172.3,158.4c8.2-10.1,21.4-10.1,29.6,0l5.1,6.3l-5.1,6.3c-8.2,10.1-21.4,10.1-29.6,0l-5.1-6.3  L172.3,158.4z"/>
<path style="fill:#2B3B4E;" d="M164.9,164.7l5.7,6.3c9.1,10.1,23.9,10.1,33.1,0l5.7-6.3l-5.7-6.3c-0.5-0.5-0.9-1-1.5-1.5  c-8.7-8.1-21.4-8.1-30.1,0c-0.5,0.5-1,1-1.5,1.5L164.9,164.7z"/>
<path style="fill:#FFD05B;" d="M172.8,161.3c0,7.4,6.4,13.5,14.3,13.5c7.9,0,14.3-6,14.3-13.5c0-1.5-0.3-3-0.8-4.4  c-7.8-8.1-19.2-8.1-27,0C173.1,158.3,172.8,159.8,172.8,161.3z"/>
<ellipse style="fill:#2B3B4E;" cx="187.1" cy="161.3" rx="6.3" ry="5.9"/>
<ellipse style="fill:#FFFFFF;" cx="189.5" cy="157.3" rx="2.9" ry="2.8"/>
<path style="fill:#324A5E;" d="M211.2,166.7c0,0-3.4-2.1-7.8-6c-0.5-0.4-1.1-0.9-1.7-1.3c-0.3-0.2-1.2-0.9-1.8-1.3  c-1.3-0.9-2.5-1.4-3.9-2.2c-1.4-0.6-2.9-1.1-4.4-1.5s-3.1-0.5-4.6-0.5c-1.5,0.1-3.1,0.2-4.6,0.5s-3,0.8-4.4,1.5s-2.7,1.4-3.9,2.2  c-0.6,0.4-1.2,0.8-1.7,1.3c-0.6,0.5-1.1,0.9-1.7,1.3c-4.3,3.9-7.8,6-7.8,6s1.4-3.8,4.3-8.9c0.4-0.6,0.8-1.3,1.3-2  c0.5-0.8,1.1-1.4,1.7-2.1c1.2-1.4,2.7-2.7,4.4-3.9c1.7-1.1,3.6-2.2,5.8-2.8c2.1-0.8,4.4-1,6.7-1.1c2.3,0.1,4.6,0.3,6.7,1.1  c2.1,0.6,4,1.7,5.8,2.8c1.7,1.1,3.3,2.6,4.5,3.9c0.6,0.7,0.9,1.1,1.6,2c0.4,0.7,0.9,1.4,1.3,2C209.8,162.9,211.2,166.7,211.2,166.7z  "/>
<path style="fill:#CED5E0;" d="M322.1,291c-1.1-3.2-3.1-6-4.7-9.1c-4.7-9.5-4.4-20.5-3.4-30.9s2.7-21.1,0.4-31.3  c-2.8-12.4-11.6-23.6-23.4-29.7c-5.2-2.7-10.8-4.4-16.4-5.9c-7.2-2-14.6-3.9-22.1-4.1c-7.5,0.2-14.9,2.1-22.1,4.1  c-5.6,1.6-11.2,3.3-16.4,5.9c-11.8,6.1-20.6,17.2-23.4,29.7c-2.3,10.3-0.6,20.9,0.4,31.3c1,10.4,1.3,21.4-3.4,30.9  c-1.5,3.1-3.5,5.9-4.7,9.1c-2.4,6.8-0.2,15,5.5,19.7c5.8,4.7,14.8,5.7,21.4,2c4-2.2,7.1-5.9,11.3-7.7c1.2-0.5,2.5-0.8,3.7-1.3  c1.2-0.4,2.3-1,3.4-1.6c2-1,4.1-2.1,5.8-3.5c0.8-0.7,1.6-1.5,2.6-2s2.2-0.6,3.4-0.7c3.8-0.3,7.5-0.5,11.3-0.8c0.4,0,0.8,0,1.1-0.1  c0.4,0.1,0.8,0.1,1.1,0.1c3.8,0.3,7.6,0.5,11.3,0.8c1.2,0.1,2.4,0.2,3.4,0.7s1.8,1.3,2.6,2c1.7,1.4,3.8,2.5,5.8,3.5  c1.1,0.6,2.2,1.1,3.4,1.6c1.2,0.5,2.5,0.8,3.7,1.3c4.3,1.8,7.3,5.5,11.3,7.7c6.6,3.7,15.6,2.8,21.4-2  C322.3,306,324.5,297.9,322.1,291z"/>
<path style="fill:#324A5E;" d="M445.8,248.8c-0.5,1.6-1.2,3.1-1.7,4.6c-0.8,2.3-1.2,4.7-1.6,7.1c-1.3,7.4-2.6,14.7-4,22.1  c-0.9,5.2-2,10.6-5.5,14.7c-2.8,3.2-7,5.2-10.6,7.6c-7,4.5-12.8,10.8-20.5,14.2c-12,5.5-27,2.8-37.4-5c-15.7-11.9-20-32.5-21.1-51.4  c-0.1-1.2-0.1-2.4-0.2-3.6c6-13.9,11.7-28.1,13.2-43c0.4-4.1,0.5-8.2,0.5-12.3c-0.2-24-4.5-47.9-12.6-70.6  c-4-11.2-9.3-22.5-18.7-30.2c2.2-1.4,4.3-2.8,6.8-3.8c7.1-2.8,15.5-1,22,2.9s11.4,9.7,16.2,15.4c22.2,26.5,43.5,53.7,64.3,81.1  c3.1,4.1,6.2,8.2,8.3,12.9c3.4,7.8,3.6,16.5,3.8,24.9C447,240.5,447,244.8,445.8,248.8z"/>
<g>
	<path style="fill:#2B3B4E;" d="M412.3,212.2c-1.5,7.2-3,14.4-4.5,21.6c-0.3,1.6-2.1,3.7-3.1,2.4c2.3-26.7,4.6-54.2-2.6-79.9   c4.8,6.1,9.6,12.2,14.4,18.4l0,0C417.4,187.2,414.9,199.8,412.3,212.2z"/>
	<path style="fill:#2B3B4E;" d="M445.8,248.8c-0.5,1.6-1.2,3.1-1.7,4.6c-0.8,2.3-1.2,4.7-1.6,7.1c-1.3,7.4-2.6,14.7-3.9,22.1   c-0.9,5.2-2,10.6-5.5,14.7c-2.8,3.2-7,5.2-10.6,7.6c-3.2,2.1-6.3,4.6-9.3,7c-1.2-5,0.2-10.7,3.7-14.5c3.3-3.5,8.1-5.4,11.2-9.2   c4.3-5.2,4.2-12.7,3.3-19.4c-0.9-6.7-2.5-13.7-0.5-20.1c0.9-2.8,2.4-5.3,3.5-8c4.3-10.1,3.4-21.7,1.3-32.6   c-0.8-3.9-1.7-7.9-2.4-11.8c0.6,0.8,1.2,1.6,1.8,2.4c3.1,4.1,6.2,8.2,8.3,12.9c3.4,7.8,3.6,16.5,3.8,24.9   C447,240.5,447,244.8,445.8,248.8z"/>
</g>
<path id="SVGCleanerId_0" style="fill:#324A5E;" d="M59.2,248.8c0.5,1.6,1.2,3.1,1.7,4.6c0.8,2.3,1.2,4.7,1.6,7.1  c1.3,7.4,2.6,14.7,4,22.1c0.9,5.2,2,10.6,5.5,14.7c2.8,3.2,7,5.2,10.6,7.6c7,4.5,12.8,10.8,20.5,14.2c12,5.5,27,2.8,37.4-5  c15.7-11.9,20-32.5,21.1-51.4c0.1-1.2,0.1-2.4,0.2-3.6c-6-13.9-11.7-28.1-13.2-43c-0.4-4.1-0.5-8.2-0.5-12.3  c0.2-24,4.5-47.9,12.6-70.6c4-11.2,9.3-22.5,18.7-30.2c-2.2-1.4-4.3-2.8-6.8-3.8c-7.1-2.8-15.5-1-22,2.9s-11.4,9.7-16.2,15.4  c-22.2,26.5-43.5,53.7-64.3,81.1c-3.1,4.1-6.2,8.2-8.3,12.9c-3.4,7.8-3.6,16.5-3.8,24.9C58,240.5,58,244.8,59.2,248.8z"/>
<g>
	<path id="SVGCleanerId_0_1_" style="fill:#324A5E;" d="M59.2,248.8c0.5,1.6,1.2,3.1,1.7,4.6c0.8,2.3,1.2,4.7,1.6,7.1   c1.3,7.4,2.6,14.7,4,22.1c0.9,5.2,2,10.6,5.5,14.7c2.8,3.2,7,5.2,10.6,7.6c7,4.5,12.8,10.8,20.5,14.2c12,5.5,27,2.8,37.4-5   c15.7-11.9,20-32.5,21.1-51.4c0.1-1.2,0.1-2.4,0.2-3.6c-6-13.9-11.7-28.1-13.2-43c-0.4-4.1-0.5-8.2-0.5-12.3   c0.2-24,4.5-47.9,12.6-70.6c4-11.2,9.3-22.5,18.7-30.2c-2.2-1.4-4.3-2.8-6.8-3.8c-7.1-2.8-15.5-1-22,2.9s-11.4,9.7-16.2,15.4   c-22.2,26.5-43.5,53.7-64.3,81.1c-3.1,4.1-6.2,8.2-8.3,12.9c-3.4,7.8-3.6,16.5-3.8,24.9C58,240.5,58,244.8,59.2,248.8z"/>
</g>
<g>
	<path style="fill:#2B3B4E;" d="M92.7,212.2c1.5,7.2,3,14.4,4.5,21.6c0.3,1.6,2.1,3.7,3.1,2.4c-2.3-26.7-4.6-54.2,2.6-79.9   c-4.8,6.1-9.6,12.2-14.4,18.4l0,0C87.6,187.2,90.2,199.8,92.7,212.2z"/>
	<path style="fill:#2B3B4E;" d="M59.2,248.8c0.5,1.6,1.2,3.1,1.7,4.6c0.8,2.3,1.2,4.7,1.6,7.1c1.3,7.4,2.6,14.7,3.9,22.1   c0.9,5.2,2,10.6,5.5,14.7c2.8,3.2,7,5.2,10.6,7.6c3.2,2.1,6.3,4.6,9.3,7c1.2-5-0.2-10.7-3.7-14.5c-3.3-3.5-8.1-5.4-11.2-9.2   c-4.3-5.2-4.2-12.7-3.3-19.4c0.9-6.7,2.5-13.7,0.5-20.1c-0.9-2.8-2.4-5.3-3.5-8c-4.1-10.2-3.2-21.8-1.1-32.6   c0.8-3.9,1.7-7.9,2.4-11.8c-0.6,0.8-1.2,1.6-1.8,2.4c-3.1,4.1-6.2,8.2-8.3,12.9c-3.4,7.8-3.6,16.5-3.8,24.9   C58,240.5,58,244.8,59.2,248.8z"/>
</g>
<g>
	<path style="fill:#CED5E0;" d="M343.1,446.3c-6.1,9.2-8.4,21.5-17.7,27.4c-3.9,2.5-8.7,3.5-12.9,5.6c-10.8,5.6-18.8,19.3-30.8,17.2   c1.7-14.3,14.7-24.6,19.2-38.2c3.3-9.9,1.9-20.7,3.8-30.9c1.3-6.7,4-13,6.7-19.2c2.9-6.6,5.7-13.1,8.6-19.7   C325.2,408.5,334,427.8,343.1,446.3z"/>
	<path style="fill:#CED5E0;" d="M225.3,503.5c-4.8-0.5-9.5-1.1-14.2-1.9c-1.3-6.1-2.4-12.3-3.5-18.3c-3.8-20.1-9.1-40.1-17.7-58.6   c-6.7-14.4-15.3-27.9-21.4-42.5c-0.2-0.6-0.4-1.1-0.6-1.6c2-7.7,3.9-15.4,5.6-23.1c6,11.6,13.3,22.7,21.5,33   c8.5,10.6,18.3,20.9,21.5,34.1c1.7,7.1,1.3,14.5,1.3,21.8c0,17.2,2,34.4,6,51.2C224.3,499.6,224.8,501.6,225.3,503.5z"/>
</g>
<g>
	<path style="fill:#2B3B4E;" d="M277.3,240.9c-3-1-6.5-1.6-10.2-0.3c-3.2,1.2-6.3,3.9-7.9,6.9c-0.5,0.9-0.8,1.7-1,2.6   c-0.1,0.9,0,1.8,0.2,2.6c0.8,2.9,2.8,5.2,5.6,6.4c2,0.8,4.3,1.1,6.6,1.3c1.4,0.1,3,0.4,3.1,1.8c2.1-1,4.2-1.9,6.3-2.5   c0.6-0.2,1.2-0.3,1.7-0.7c1.2-0.7,1.8-2.1,2.3-3.3c0.6-1.6,1.2-3.1,1.8-4.7c0.4-0.9,0.7-1.9,0.8-2.7c0.1-1.4-0.7-2.5-1.6-3.4   C283,243,280.2,241.9,277.3,240.9z"/>
	<path style="fill:#2B3B4E;" d="M227.8,240.9c3-1,6.5-1.6,10.2-0.3c3.2,1.2,6.3,3.9,7.9,6.9c0.5,0.9,0.8,1.7,1,2.6   c0.1,0.9,0,1.8-0.2,2.6c-0.8,2.9-2.8,5.2-5.6,6.4c-2,0.8-4.3,1.1-6.6,1.3c-1.4,0.1-3,0.4-3.1,1.8c-2.1-1-4.2-1.9-6.3-2.5   c-0.6-0.2-1.2-0.3-1.7-0.7c-1.2-0.7-1.8-2.1-2.3-3.3c-0.6-1.6-1.2-3.1-1.8-4.7c-0.4-0.9-0.7-1.9-0.8-2.7c-0.1-1.4,0.7-2.5,1.6-3.4   C222.1,243,224.9,241.9,227.8,240.9z"/>
</g>
<path style="fill:#324A5E;" d="M289.6,239.8c0,2.5-0.4,5-1.2,7.6c-0.8,2.6-4,4.1-7.1,3.5h-0.1c-4.2-0.5-7.5-3.2-8.7-4.3  c-0.1-0.1-0.3-0.2-0.4-0.3c-2.7-2-6.9-1.8-9.4,0.4c-1.2,1.1-1.8,2.4-1.8,3.8c0,0.9,0.2,1.7,0.7,2.5c0.6,0.9,1.3,1.9,2.3,2.7  c2.1,2.6,10.5,5.1,17,3.3c0.4-0.1,0.8-0.2,1.2-0.3c-6.8,8.6-17.5,15.2-29.7,15.2c-12.1,0-22.9-6.6-29.7-15.2  c0.4,0.1,0.8,0.2,1.2,0.3c6.5,1.8,14.9-0.7,17-3.3c1-0.8,1.8-1.7,2.3-2.7c0.5-0.8,0.7-1.7,0.7-2.5c0-1.4-0.6-2.8-1.8-3.8  c-2.5-2.3-6.6-2.5-9.4-0.4c-0.1,0.1-0.3,0.2-0.4,0.3c-1.2,1.1-4.4,3.8-8.7,4.3c0,0,0,0-0.1,0c-3.2,0.6-6.4-1.2-7.2-3.9  c-0.7-2.4-1.1-4.9-1.1-7.3c0-15.4,16.6-21.7,37-21.7C273,218.1,289.6,224.4,289.6,239.8z"/>
<g>
</g>
<g>
</g>
<g>
</g>
<g>
</g>
<g>
</g>
<g>
</g>
<g>
</g>
<g>
</g>
<g>
</g>
<g>
</g>
<g>
</g>
<g>
</g>
<g>
</g>
<g>
</g>
<g>
</g>
</svg>
