<?xml version="1.0" encoding="iso-8859-1"?>
<!-- Generator: Adobe Illustrator 19.0.0, SVG Export Plug-In . SVG Version: 6.00 Build 0)  -->
<svg xmlns="http://www.w3.org/2000/svg" xmlns:xlink="http://www.w3.org/1999/xlink" version="1.1" id="Layer_1" x="0px" y="0px" viewBox="0 0 505 505" style="enable-background:new 0 0 505 505;" xml:space="preserve">
<circle style="fill:#84DBFF;" cx="252.5" cy="252.5" r="252.5"/>
<path style="fill:#FFFFFF;" d="M388.9,178l17.8,15.5c-26.3-96.1-131.8-101.8-154.2-102c-22.4,0.1-127.9,5.9-154.1,102l17.8-15.5  c0,0-30.7,57-17.8,108.3l8.9-19c0,0-12.3,88.1,47.8,123.8l-0.7-25.9c0,0,22.7,26.4,98.1,56.9c75.5-30.5,98.1-56.9,98.1-56.9  l-0.7,25.9c60.1-35.7,47.8-123.8,47.8-123.8l8.9,19C419.6,235,388.9,178,388.9,178z"/>
<g>
	<path style="fill:#E6E9EE;" d="M366.3,242.7c-3.2-29.3-27.3-52.7-56.7-55.3c-11.8-1-23,1.3-32.8,6c-15.3,7.4-33.4,7.4-48.6,0   c-9.8-4.8-21-7-32.8-6c-29.4,2.5-53.4,26-56.7,55.3c-3.7,33.7,19.3,62.7,50.5,68.6c-7.2,18-11.3,36.7-11.3,51.2   c0,41.2,33.4,74.6,74.6,74.6s74.6-33.4,74.6-74.6c0-14.5-4.2-33.2-11.3-51.2C347,305.4,370,276.4,366.3,242.7z"/>
	<path style="fill:#E6E9EE;" d="M424.4,187.7c-10.3,8.3-22.5,12.4-34.2,12.6c-0.7-1.9-1.4-3.9-2.3-5.9c-3.4-7.7-8.5-16.2-15.1-24.4   s-13.7-15.1-20.5-20.1c-1.8-1.3-3.5-2.5-5.2-3.6c2.7-11.3,9.5-22.3,19.9-30.5c22.6-18,53.8-16.6,69.7,3.3   C452.5,139,447,169.7,424.4,187.7z"/>
</g>
<path style="fill:#CED5E0;" d="M403.3,186.7c-4.8,3.8-10.1,6.4-15.5,7.7c-3.4-7.7-8.5-16.2-15.1-24.4s-13.7-15.1-20.5-20.1  c2.5-5,6.2-9.6,10.9-13.4c15.8-12.6,37.5-11.6,48.6,2.3C422.9,152.7,419.1,174.2,403.3,186.7z"/>
<path style="fill:#E6E9EE;" d="M80.6,187.7c10.3,8.3,22.5,12.4,34.2,12.6c0.7-1.9,1.4-3.9,2.3-5.9c3.4-7.7,8.5-16.2,15.1-24.4  s13.7-15.1,20.5-20.1c1.8-1.3,3.5-2.5,5.2-3.6c-2.7-11.3-9.5-22.3-19.9-30.5c-22.6-18-53.8-16.6-69.7,3.3  C52.5,139,58,169.7,80.6,187.7z"/>
<path style="fill:#CED5E0;" d="M101.7,186.7c4.8,3.8,10.1,6.4,15.5,7.7c3.4-7.7,8.5-16.2,15.1-24.4s13.7-15.1,20.5-20.1  c-2.5-5-6.2-9.6-10.9-13.4c-15.8-12.6-37.5-11.6-48.6,2.3C82.1,152.7,85.9,174.2,101.7,186.7z"/>
<circle style="fill:#324A5E;" cx="305.2" cy="251" r="21.3"/>
<ellipse transform="matrix(-0.6103 -0.7922 0.7922 -0.6103 285.8492 630.4379)" style="fill:#FFFFFF;" cx="297.997" cy="244.907" rx="4.7" ry="5.7"/>
<circle style="fill:#324A5E;" cx="197.1" cy="251" r="21.3"/>
<ellipse transform="matrix(-0.6102 -0.7922 0.7922 -0.6102 111.8768 544.8209)" style="fill:#FFFFFF;" cx="189.964" cy="244.889" rx="4.7" ry="5.7"/>
<g>
	<path style="fill:#324A5E;" d="M270.4,333.7c-6.7,7.3-8.5,4.7-11.3,2.1s-5.6-4.1,1.1-11.4s20.2-17.6,23.1-15   C286.1,311.9,277.1,326.4,270.4,333.7z"/>
	<path style="fill:#324A5E;" d="M234.6,333.7c6.7,7.3,8.5,4.7,11.3,2.1s5.6-4.1-1.1-11.4c-6.7-7.3-20.2-17.6-23.1-15   C218.9,311.9,227.9,326.4,234.6,333.7z"/>
	<path style="fill:#324A5E;" d="M300.1,374.6c-7.9,18.5-26.2,31.4-47.6,31.4s-39.7-12.9-47.6-31.4c13.7,5.3,30,8.4,47.6,8.4   S286.4,379.9,300.1,374.6z"/>
</g>
<g>
</g>
<g>
</g>
<g>
</g>
<g>
</g>
<g>
</g>
<g>
</g>
<g>
</g>
<g>
</g>
<g>
</g>
<g>
</g>
<g>
</g>
<g>
</g>
<g>
</g>
<g>
</g>
<g>
</g>
</svg>
