<?xml version="1.0" encoding="iso-8859-1"?>
<!-- Generator: Adobe Illustrator 19.0.0, SVG Export Plug-In . SVG Version: 6.00 Build 0)  -->
<svg xmlns="http://www.w3.org/2000/svg" xmlns:xlink="http://www.w3.org/1999/xlink" version="1.1" id="Layer_1" x="0px" y="0px" viewBox="0 0 505 505" style="enable-background:new 0 0 505 505;" xml:space="preserve">
<circle style="fill:#FD8469;" cx="252.5" cy="252.5" r="252.5"/>
<g>
	<path style="fill:#F9B54C;" d="M405.8,107c-3.1,5-7.6,9.2-12.1,13.1c-8.2,7.1-16.8,13.6-25.7,19.1c-8,5-16.5,9.6-23.3,16.7   c-9.1,9.6-13.4,22-17.1,33.4c-0.5,1.5-1,3-0.8,4.3c0.1,1,0.6,1.8,0.9,2.7c0.5,1.5,0.5,3.3,0.4,5.1c-0.3,5.1-1.7,10.6-4.1,16   c-1.4,3.2-3.1,7.3-1.1,8.8c1.2,0.9,3.3,0.3,5.2-0.3c10.3-3.3,20.6-6.9,30.9-10.8c4.8-1.8,9.5-3.7,14.3-6.2   c12.1-6.4,23.6-16.9,31.6-28.9c2.7-4,5-8.2,6.7-12.4c2.1-5.4,3-10.8,3.8-16c1.7-11.1,3.2-22.2,3.2-32.8c0.1-10.5-1.3-20.5-4-29.5   C411,95,409.5,101.2,405.8,107z"/>
	<path style="fill:#F9B54C;" d="M99.2,107c3.1,5,7.6,9.2,12.1,13.1c8.2,7.1,16.8,13.6,25.7,19.1c8,5,16.5,9.6,23.3,16.7   c9.1,9.6,13.4,22,17.1,33.4c0.5,1.5,1,3,0.8,4.3c-0.1,1-0.6,1.8-0.9,2.7c-0.5,1.5-0.5,3.3-0.4,5.1c0.3,5.1,1.7,10.6,4.1,16   c1.4,3.2,3.1,7.3,1.1,8.8c-1.2,0.9-3.3,0.3-5.2-0.3c-10.3-3.3-20.6-6.9-30.9-10.8c-4.8-1.8-9.5-3.7-14.3-6.2   c-12.1-6.4-23.6-16.9-31.6-28.9c-2.7-4-5-8.2-6.7-12.4c-2.1-5.4-3-10.8-3.8-16c-1.7-11.1-3.2-22.2-3.2-32.8   c-0.1-10.5,1.3-20.5,4-29.5C94,95,95.5,101.2,99.2,107z"/>
</g>
<g>
	<path style="fill:#FFD05B;" d="M363.5,230.7c0-56.1-49.7-101.7-111-101.7s-111,45.5-111,101.7c0,20,6.3,38.6,17.2,54.4   c10.9,15.7,18.6,33.6,22.6,52.3c11,51.2,38.7,87.6,71.2,87.6s60.2-36.4,71.2-87.6c4-18.7,11.7-36.6,22.6-52.3   C357.2,269.4,363.5,250.7,363.5,230.7z"/>
	<path style="fill:#FFD05B;" d="M329.8,157.6c-1.7-4.4-2.4-9.2-2.4-13.9c0.2-45.1-10.2-56.3-17.7-58.5c-7.6,1.7-18.6,12.2-20.9,57.2   c-0.2,4.7-1.2,9.4-3.1,13.7c-2.8,6.1-8,12.9-17.4,13.3l39.1,1.3l39.1,1.3C337.1,171,332.3,163.8,329.8,157.6z"/>
	<path style="fill:#FFD05B;" d="M175.2,157.6c1.7-4.4,2.4-9.2,2.4-13.9c-0.2-45.1,10.2-56.3,17.7-58.5c7.6,1.7,18.6,12.2,20.9,57.2   c0.2,4.7,1.2,9.4,3.1,13.7c2.8,6.1,8,12.9,17.4,13.3l-39.1,1.3l-39.1,1.3C167.9,171,172.7,163.8,175.2,157.6z"/>
</g>
<g>
	<path style="fill:#F9B54C;" d="M331.5,103c-0.3,0.9-1.1,1.4-1.8,1.8c-1.6,0.9-3.3,1.7-5,2.4c-0.9,0.3-1.8,0.6-2.7,0.3   s-1.7-1.4-1.4-2.4c-1,0.5-2,0.9-3,1.4c-0.9,0.4-2.3,0.5-2.4-0.6c0.4-0.2,0.8,0.5,0.6,0.9c-1.3,0.4-2.5-1.1-3.8-1.1   c-0.6,0-1.1,0.4-1.7,0.5s-1.3-0.4-1.2-1.1c-0.6,0.1-1.2,0.4-1.7,0.9c-0.3-0.9-0.5-1.8-0.8-2.7c-0.1-0.2-0.1-0.4-0.3-0.5   c-0.1-0.1-0.3,0-0.4,0c-0.7,0.3-1.4,1-2.2,1.1c-0.8,0.1-1.7-0.8-1.4-1.6c-1.1,0.8-2.9-0.1-3-1.7c-1.2,0.8-2.5,1.3-3.8,1.4   c-0.3,0-0.5,0-0.7-0.1c-0.3-0.2-0.4-0.7-0.5-1.1c-0.6-3.2-0.8-6.6-0.6-9.9c0-0.8,0.1-1.6,0.4-2.2c0.3-0.7,0.9-1.3,1.5-1.8   c4-3.3,9.3-3.6,14.2-3.8c1.3,0,2.6-0.1,3.9,0.2c1.4,0.3,2.8,1,4.1,1.7c3.6,1.9,7.3,3.9,10.5,6.7c1.2,1.1,2.4,2.3,3,4   c0.7,1.7,0.6,3.7,0.6,5.5C331.7,101.9,331.7,102.5,331.5,103z"/>
	<path style="fill:#F9B54C;" d="M173.5,103c0.3,0.9,1.1,1.4,1.8,1.8c1.6,0.9,3.3,1.7,5,2.4c0.9,0.3,1.8,0.6,2.7,0.3s1.7-1.4,1.4-2.4   c1,0.5,2,0.9,3,1.4c0.9,0.4,2.3,0.5,2.4-0.6c-0.4-0.2-0.8,0.5-0.6,0.9c1.3,0.4,2.5-1.1,3.8-1.1c0.6,0,1.1,0.4,1.7,0.5   c0.6,0.1,1.3-0.4,1.2-1.1c0.6,0.1,1.2,0.4,1.7,0.9c0.3-0.9,0.5-1.8,0.8-2.7c0.1-0.2,0.1-0.4,0.3-0.5c0.1-0.1,0.3,0,0.4,0   c0.7,0.3,1.4,1,2.2,1.1s1.7-0.8,1.4-1.6c1.1,0.8,2.9-0.1,3-1.7c1.2,0.8,2.5,1.3,3.8,1.4c0.3,0,0.5,0,0.7-0.1   c0.3-0.2,0.4-0.7,0.5-1.1c0.6-3.2,0.8-6.6,0.6-9.9c0-0.8-0.1-1.6-0.4-2.2c-0.3-0.7-0.9-1.3-1.5-1.8c-4-3.3-9.3-3.6-14.2-3.8   c-1.3,0-2.6-0.1-3.9,0.2c-1.4,0.3-2.8,1-4.1,1.7c-3.6,1.9-7.3,3.9-10.5,6.7c-1.2,1.1-2.4,2.3-3,4c-0.7,1.7-0.6,3.7-0.6,5.5   C173.3,101.9,173.3,102.5,173.5,103z"/>
	<path style="fill:#F9B54C;" d="M272.4,289.3L259.1,276c-3.6-3.6-9.4-3.6-13,0l-13.3,13.3c-5.8,5.8-1.7,15.7,6.5,15.7H266   C274.1,305.1,278.2,295.1,272.4,289.3z"/>
	<path style="fill:#F9B54C;" d="M266.9,329.9l-9.6-9.6c-2.6-2.6-6.8-2.6-9.4,0l-9.6,9.6c-4.2,4.2-1.2,11.4,4.7,11.4h19.3   C268.1,341.3,271.1,334.1,266.9,329.9z"/>
	<path style="fill:#F9B54C;" d="M304.8,338.2H292c-3.4,0-6.2,2.8-6.2,6.2v12.8c0,5.6,6.7,8.4,10.7,4.4l12.8-12.8   C313.2,345,310.4,338.2,304.8,338.2z"/>
	<path style="fill:#F9B54C;" d="M285.8,302.3v12.8c0,3.4,2.8,6.2,6.2,6.2h12.8c5.6,0,8.3-6.7,4.4-10.7l-12.7-12.7   C292.6,293.9,285.8,296.7,285.8,302.3z"/>
	<path style="fill:#F9B54C;" d="M219.2,302.3v12.8c0,3.4-2.8,6.2-6.2,6.2h-12.8c-5.6,0-8.3-6.7-4.4-10.7l12.8-12.8   C212.5,293.9,219.2,296.7,219.2,302.3z"/>
	<path style="fill:#F9B54C;" d="M200.2,338.2H213c3.4,0,6.2,2.8,6.2,6.2v12.8c0,5.6-6.7,8.4-10.7,4.4l-12.8-12.8   C191.8,345,194.6,338.2,200.2,338.2z"/>
</g>
<path style="fill:#324A5E;" d="M317.9,372.3c2.4-4.6,0.6-13.3-7.1-21.3c-8.5-9-20.4-12.2-26.1-9.4c-9.7-4.1-20.6-6.4-32.3-6.4  s-22.6,2.3-32.3,6.4c-5.7-2.7-17.6,0.4-26.1,9.4c-7.6,8-9.4,16.7-7.1,21.3c-2.6,5.9-4.1,12.2-4.1,18.8c0,30.9,31.1,46.6,69.5,46.6  s69.5-15.6,69.5-46.6C322,384.5,320.5,378.2,317.9,372.3z"/>
<g>
	<path style="fill:#2B3B4E;" d="M284.6,366.5c-1.5,20.1-22.9,26.8-22.9,26.8c27.4,1,35.1-14.3,37.2-25.2c0.9-5-3.6-9.2-8.5-8.2l0,0   C287.1,360.5,284.8,363.2,284.6,366.5z"/>
	<path style="fill:#2B3B4E;" d="M220.4,366.5c1.5,20.1,22.9,26.8,22.9,26.8c-27.4,1-35.1-14.3-37.2-25.2c-0.9-5,3.6-9.2,8.5-8.2l0,0   C217.9,360.5,220.2,363.2,220.4,366.5z"/>
	<path style="fill:#2B3B4E;" d="M293.4,397c-2.7,16.6-20,29.5-40.9,29.5s-38.1-12.9-40.9-29.5c10.3,8.8,24.8,14.3,40.9,14.3   S283,405.8,293.4,397z"/>
</g>
<ellipse transform="matrix(0.4282 0.9037 -0.9037 0.4282 382.3877 -138.4474)" style="fill:#FFFFFF;" cx="300.596" cy="232.941" rx="29.7" ry="15.8"/>
<ellipse transform="matrix(0.4282 0.9037 -0.9037 0.4282 387.187 -136.6561)" style="fill:#54C0EB;" cx="301.58" cy="237.629" rx="19.3" ry="12.4"/>
<ellipse transform="matrix(0.4282 0.9037 -0.9037 0.4282 387.1902 -136.6413)" style="fill:#2B3B4E;" cx="301.57" cy="237.639" rx="9.8" ry="6.3"/>
<ellipse style="fill:#FFFFFF;" cx="296.7" cy="228.2" rx="3.9" ry="4.7"/>
<path style="fill:#324A5E;" d="M272,187.8c0,0,2.8-1.2,6.7-2.2c0.9-0.3,2-0.4,3.1-0.7c1.1-0.1,2.2-0.4,3.3-0.4  c1.1-0.1,2.3-0.1,3.5,0c1.2,0,2.4,0.3,3.5,0.4c1.2,0.3,2.4,0.4,3.5,0.8c1.1,0.5,2.4,0.6,3.4,1.1c1.1,0.4,2.2,0.9,3.3,1.3  c1,0.5,2,1,3,1.4c1.9,0.8,3.4,1.7,4.7,2.2c1.2,0.5,1.9,0.8,1.9,0.8s-0.3-0.7-0.9-1.8c-0.3-0.6-0.7-1.3-1.2-2  c-0.5-0.8-1.1-1.7-1.9-2.4c-0.8-0.8-1.6-1.8-2.5-2.7c-1-0.9-2.2-1.6-3.4-2.5c-1.2-0.9-2.6-1.4-4.1-2.1c-1.4-0.7-3.1-0.9-4.6-1.4  c-1.6-0.2-3.2-0.4-4.9-0.3c-1.6,0.1-3.2,0.3-4.6,0.8c-1.5,0.3-2.8,1-4,1.6c-1.2,0.7-2.3,1.4-3.2,2.1c-1.9,1.4-3,3-3.8,4.1  C272.3,187,272,187.8,272,187.8z"/>
<ellipse transform="matrix(0.4282 -0.9037 0.9037 0.4282 -93.7004 317.9308)" style="fill:#FFFFFF;" cx="204.38" cy="233.008" rx="29.7" ry="15.8"/>
<ellipse transform="matrix(0.4282 -0.9037 0.9037 0.4282 -98.4709 319.8156)" style="fill:#54C0EB;" cx="203.484" cy="237.72" rx="19.3" ry="12.4"/>
<ellipse transform="matrix(0.4282 -0.9037 0.9037 0.4282 -98.4766 319.8065)" style="fill:#2B3B4E;" cx="203.474" cy="237.72" rx="9.8" ry="6.3"/>
<ellipse style="fill:#FFFFFF;" cx="208.3" cy="228.2" rx="3.9" ry="4.7"/>
<path style="fill:#324A5E;" d="M233,187.8c0,0-2.8-1.2-6.7-2.2c-0.9-0.3-2-0.4-3.1-0.7c-1.1-0.1-2.2-0.4-3.3-0.4  c-1.1-0.1-2.3-0.1-3.5,0c-1.2,0-2.4,0.3-3.5,0.4c-1.2,0.3-2.4,0.4-3.5,0.8c-1.1,0.5-2.4,0.6-3.4,1.1c-1.1,0.4-2.2,0.9-3.3,1.3  c-1,0.5-2,1-3,1.4c-1.9,0.8-3.4,1.7-4.7,2.2c-1.2,0.5-1.9,0.8-1.9,0.8s0.3-0.7,0.9-1.8c0.3-0.6,0.7-1.3,1.2-2  c0.5-0.8,1.1-1.7,1.9-2.4c0.8-0.8,1.6-1.8,2.5-2.7c1-0.9,2.2-1.6,3.4-2.5s2.6-1.4,4.1-2.1c1.4-0.7,3.1-0.9,4.6-1.4  c1.6-0.2,3.2-0.4,4.9-0.3c1.6,0.1,3.2,0.3,4.6,0.8c1.5,0.3,2.8,1,4,1.6c1.2,0.7,2.3,1.4,3.2,2.1c1.9,1.4,3,3,3.8,4.1  C232.7,187,233,187.8,233,187.8z"/>
<g>
</g>
<g>
</g>
<g>
</g>
<g>
</g>
<g>
</g>
<g>
</g>
<g>
</g>
<g>
</g>
<g>
</g>
<g>
</g>
<g>
</g>
<g>
</g>
<g>
</g>
<g>
</g>
<g>
</g>
</svg>
