<?xml version="1.0" encoding="iso-8859-1"?>
<!-- Generator: Adobe Illustrator 19.0.0, SVG Export Plug-In . SVG Version: 6.00 Build 0)  -->
<svg xmlns="http://www.w3.org/2000/svg" xmlns:xlink="http://www.w3.org/1999/xlink" version="1.1" id="Layer_1" x="0px" y="0px" viewBox="0 0 505 505" style="enable-background:new 0 0 505 505;" xml:space="preserve">
<circle style="fill:#324A5E;" cx="252.5" cy="252.5" r="252.5"/>
<path style="fill:#FF7058;" d="M431.8,196.6C403.8,30,268,97,252.5,105.1C237,97,101.2,30,73.2,196.6l16.7-12.8  c0,0-27.9,58.6,1.5,116.8l4.2-14c0,0,4.4,59.6,22.8,72.2l-0.9-13.5c0,0,26.1,36.3,46.1,45.8l1.8-13.3c0,0,20.9,35.6,42.2,37.3  l-0.4-16.7c0,0,19.5,28.2,44.4,35.6v0.6c0.4-0.1,0.7-0.2,1.1-0.3c0.4,0.1,0.7,0.2,1.1,0.3V434c24.9-7.4,44.4-35.6,44.4-35.6  l-0.4,16.7c21.3-1.7,42.2-37.3,42.2-37.3l1.8,13.3c19.9-9.4,46.1-45.8,46.1-45.8l-0.9,13.5c18.3-12.6,22.8-72.2,22.8-72.2l4.2,14  c29.4-58.2,1.5-116.8,1.5-116.8L431.8,196.6z"/>
<circle style="fill:#FFD05B;" cx="352.4" cy="163" r="42.7"/>
<circle style="fill:#F9B54C;" cx="344.4" cy="171" r="28.4"/>
<circle style="fill:#FFD05B;" cx="152.6" cy="163" r="42.7"/>
<circle style="fill:#F9B54C;" cx="160.6" cy="171" r="28.4"/>
<path style="fill:#FFD05B;" d="M385.7,271.8c0-21.9-10-42.2-26.9-58.4c-9.3-9-16.6-19.4-20.9-30.8c-11.6-30.6-45.5-52.8-85.5-52.8  s-73.9,22.2-85.5,52.8c-4.3,11.4-11.6,21.9-20.9,30.8c-16.9,16.3-26.9,36.5-26.9,58.4c0,31.7,20.8,59.8,53.1,77.5  c13.3,7.3,25.6,16.3,37.2,26c10.2,8.5,25.6,13.9,43,13.9c17.3,0,32.8-5.4,43-13.9c11.7-9.7,23.9-18.7,37.2-26  C364.9,331.6,385.7,303.5,385.7,271.8z"/>
<ellipse style="fill:#F9B54C;" cx="252.5" cy="316.4" rx="68.9" ry="44.9"/>
<g>
	<path style="fill:#324A5E;" d="M277.6,279.8c0,8.6-11.2,18.6-25.1,18.6s-25.1-9.9-25.1-18.6c0-8.6,11.2-12.7,25.1-12.7   C266.4,267,277.6,271.1,277.6,279.8z"/>
	<path style="fill:#324A5E;" d="M295.9,318.2c-0.2,0.3-0.5,0.7-0.8,1.2s-0.7,1-1.1,1.6c-0.2,0.3-0.4,0.6-0.7,0.9   c-0.3,0.3-0.5,0.6-0.8,0.9c-0.6,0.6-1.2,1.4-1.9,2c-0.7,0.7-1.4,1.4-2.3,2.1c-0.4,0.4-0.9,0.7-1.3,1.1c-0.5,0.3-1,0.7-1.4,1   c-1.9,1.4-4.2,2.7-6.6,3.9c-1.3,0.5-2.5,1.2-3.9,1.7c-0.7,0.2-1.3,0.5-2,0.8c-0.7,0.2-1.4,0.4-2.1,0.7c-0.7,0.2-1.4,0.4-2.2,0.6   c-0.7,0.2-1.5,0.4-2.2,0.6c-1.5,0.3-3,0.6-4.6,0.8c-0.8,0.1-1.6,0.2-2.3,0.3c-0.8,0.1-1.5,0.1-2.3,0.2c-0.6,0.1-1.3,0.1-2,0.1   v-51.4h-5.7v51.4c-2.2-0.1-4.4-0.3-6.6-0.6c-1.6-0.2-3.1-0.6-4.6-0.8c-0.7-0.2-1.5-0.4-2.2-0.6s-1.5-0.4-2.2-0.6s-1.4-0.4-2.1-0.7   c-0.7-0.3-1.4-0.5-2-0.8c-1.4-0.5-2.6-1.1-3.9-1.7c-2.4-1.2-4.7-2.5-6.6-3.9c-0.5-0.3-1-0.7-1.4-1c-0.4-0.4-0.9-0.7-1.3-1.1   c-0.9-0.7-1.6-1.4-2.3-2.1s-1.3-1.4-1.9-2c-0.3-0.3-0.6-0.6-0.8-0.9s-0.5-0.6-0.7-0.9c-0.4-0.6-0.8-1.1-1.1-1.6s-0.6-0.9-0.8-1.2   c-0.4-0.7-0.7-1-0.7-1s0.1,0.4,0.3,1.2c0.1,0.4,0.2,0.9,0.4,1.4c0.2,0.6,0.4,1.2,0.7,1.9c0.1,0.4,0.3,0.7,0.5,1.1s0.4,0.8,0.6,1.2   c0.4,0.8,0.9,1.7,1.5,2.6s1.2,1.8,2,2.8c0.4,0.5,0.8,0.9,1.2,1.4s0.9,0.9,1.4,1.4c1.9,1.9,4.1,3.7,6.7,5.4c1.3,0.8,2.6,1.6,4.1,2.3   c0.7,0.4,1.4,0.7,2.2,1.1c0.8,0.3,1.5,0.6,2.3,0.9c3.1,1.2,6.4,2.2,9.8,2.8c3.4,0.7,7,0.9,10.5,1l2.6-0.1h1.3   c0.4,0,0.9-0.1,1.3-0.1c0.9-0.1,1.8-0.2,2.7-0.3c0.9-0.1,1.7-0.3,2.6-0.4c3.4-0.6,6.7-1.6,9.8-2.8c0.8-0.3,1.5-0.6,2.3-0.9   c0.7-0.3,1.5-0.7,2.2-1.1c1.4-0.7,2.8-1.5,4.1-2.3c0.6-0.4,1.2-0.9,1.8-1.3c0.6-0.4,1.2-0.8,1.7-1.3c1.1-0.9,2.2-1.8,3.1-2.8   c0.5-0.5,0.9-0.9,1.4-1.4c0.4-0.5,0.8-1,1.2-1.4c0.8-0.9,1.4-1.9,2-2.8s1.1-1.7,1.5-2.6c0.2-0.4,0.4-0.8,0.6-1.2   c0.2-0.4,0.3-0.8,0.5-1.1c0.3-0.7,0.6-1.3,0.7-1.9c0.2-0.6,0.3-1,0.4-1.4c0.2-0.8,0.3-1.2,0.3-1.2S296.3,317.5,295.9,318.2z"/>
</g>
<ellipse transform="matrix(0.4282 -0.9037 0.9037 0.4282 -96.2385 318.1532)" style="fill:#FFFFFF;" cx="203.287" cy="235.125" rx="31.7" ry="16.9"/>
<ellipse transform="matrix(0.4282 -0.9037 0.9037 0.4282 -101.3259 320.1135)" style="fill:#54C0EB;" cx="202.292" cy="240.125" rx="20.6" ry="13.2"/>
<ellipse transform="matrix(0.4282 -0.9037 0.9037 0.4282 -101.3259 320.1135)" style="fill:#2B3B4E;" cx="202.292" cy="240.125" rx="10.4" ry="6.7"/>
<ellipse style="fill:#FFFFFF;" cx="207.4" cy="230" rx="4.2" ry="5.1"/>
<path style="fill:#324A5E;" d="M233.8,186.8c0,0-3-1.3-7.2-2.4c-1-0.3-2.2-0.4-3.3-0.7c-1.2-0.1-2.3-0.4-3.6-0.4  c-1.2-0.1-2.5-0.1-3.7,0c-1.2,0-2.5,0.3-3.8,0.4c-1.2,0.4-2.5,0.5-3.8,0.9c-1.2,0.5-2.5,0.7-3.7,1.2s-2.4,0.9-3.5,1.4  c-1.1,0.6-2.2,1-3.2,1.5c-2.1,0.8-3.7,1.8-5,2.3s-2.1,0.8-2.1,0.8s0.3-0.7,1-2c0.3-0.6,0.8-1.4,1.3-2.2s1.1-1.8,2-2.6  c0.8-0.9,1.7-1.9,2.7-2.8c1.1-0.9,2.3-1.8,3.6-2.6c1.2-0.9,2.8-1.5,4.3-2.2s3.3-1,4.9-1.4c1.7-0.2,3.5-0.4,5.2-0.3  c1.7,0.1,3.4,0.3,4.9,0.8c1.6,0.3,3,1.1,4.3,1.7c1.3,0.7,2.4,1.4,3.4,2.3c2,1.5,3.2,3.2,4,4.4C233.5,186.1,233.8,186.8,233.8,186.8z  "/>
<ellipse transform="matrix(0.4282 0.9037 -0.9037 0.4282 384.9555 -138.2991)" style="fill:#FFFFFF;" cx="301.762" cy="235.044" rx="31.7" ry="16.9"/>
<ellipse transform="matrix(0.4282 0.9037 -0.9037 0.4282 390.0814 -136.3405)" style="fill:#54C0EB;" cx="302.778" cy="240.074" rx="20.6" ry="13.2"/>
<ellipse transform="matrix(0.4282 0.9037 -0.9037 0.4282 390.0847 -136.3258)" style="fill:#2B3B4E;" cx="302.768" cy="240.084" rx="10.4" ry="6.7"/>
<ellipse style="fill:#FFFFFF;" cx="297.6" cy="230" rx="4.2" ry="5.1"/>
<path style="fill:#324A5E;" d="M271.2,186.8c0,0,3-1.3,7.2-2.4c1-0.3,2.2-0.4,3.3-0.7c1.2-0.1,2.3-0.4,3.6-0.4  c1.2-0.1,2.5-0.1,3.7,0c1.2,0,2.5,0.3,3.8,0.4c1.2,0.4,2.5,0.5,3.8,0.9c1.2,0.5,2.5,0.7,3.7,1.2s2.4,0.9,3.5,1.4  c1.1,0.6,2.2,1,3.2,1.5c2.1,0.8,3.7,1.8,5,2.3s2.1,0.8,2.1,0.8s-0.3-0.7-1-2c-0.3-0.6-0.8-1.4-1.3-2.2s-1.1-1.8-2-2.6  c-0.8-0.9-1.7-1.9-2.7-2.8c-1.1-0.9-2.3-1.8-3.6-2.6c-1.2-0.9-2.8-1.5-4.3-2.2s-3.3-1-4.9-1.4c-1.7-0.2-3.5-0.4-5.2-0.3  c-1.7,0.1-3.4,0.3-4.9,0.8c-1.6,0.3-3,1.1-4.3,1.7c-1.3,0.7-2.4,1.4-3.4,2.3c-2,1.5-3.2,3.2-4,4.4  C271.5,186.1,271.2,186.8,271.2,186.8z"/>
<g>
</g>
<g>
</g>
<g>
</g>
<g>
</g>
<g>
</g>
<g>
</g>
<g>
</g>
<g>
</g>
<g>
</g>
<g>
</g>
<g>
</g>
<g>
</g>
<g>
</g>
<g>
</g>
<g>
</g>
</svg>
