<?xml version="1.0" encoding="iso-8859-1"?>
<!-- Generator: Adobe Illustrator 19.0.0, SVG Export Plug-In . SVG Version: 6.00 Build 0)  -->
<svg xmlns="http://www.w3.org/2000/svg" xmlns:xlink="http://www.w3.org/1999/xlink" version="1.1" id="Layer_1" x="0px" y="0px" viewBox="0 0 505 505" style="enable-background:new 0 0 505 505;" xml:space="preserve">
<circle style="fill:#54C0EB;" cx="252.5" cy="252.5" r="252.5"/>
<circle style="fill:#FF7058;" cx="379.1" cy="157.8" r="52.6"/>
<circle style="fill:#F1543F;" cx="372.5" cy="164.4" r="38.2"/>
<circle style="fill:#FF7058;" cx="125.9" cy="157.8" r="52.6"/>
<circle style="fill:#F1543F;" cx="132.5" cy="164.4" r="38.2"/>
<path style="fill:#FF7058;" d="M383.4,226.7c-11.4-11-20.4-23.9-25.7-38c-14.3-37.7-56-64.9-105.2-64.9s-90.9,27.3-105.2,64.9  c-5.3,14.1-14.3,26.9-25.7,38c-20.7,20-33.1,44.9-33.1,71.9c0,66,73.4,119.4,164,119.4s164-53.5,164-119.4  C416.5,271.7,404.2,246.7,383.4,226.7z"/>
<ellipse style="fill:#FFD05B;" cx="252.5" cy="359" rx="101.8" ry="66.3"/>
<g>
	<path style="fill:#324A5E;" d="M289.6,336.7c0,14.6-16.6,31.4-37.1,31.4s-37.1-16.8-37.1-31.4s16.6-21.5,37.1-21.5   S289.6,322.1,289.6,336.7z"/>
	<path style="fill:#324A5E;" d="M289,376.7c-0.2,0.3-0.4,0.6-0.6,1c-0.3,0.4-0.6,0.8-1,1.3c-0.2,0.2-0.4,0.5-0.6,0.8   c-0.2,0.2-0.5,0.5-0.7,0.8c-0.5,0.5-1,1.1-1.6,1.7s-1.2,1.2-2,1.8c-0.4,0.3-0.7,0.6-1.1,0.9s-0.8,0.6-1.2,0.9   c-1.6,1.2-3.5,2.3-5.6,3.3c-1.1,0.5-2.1,1-3.2,1.4c-0.6,0.2-1.1,0.4-1.7,0.6s-1.2,0.4-1.8,0.6c-0.6,0.2-1.2,0.3-1.8,0.5   c-0.6,0.2-1.2,0.3-1.9,0.5c-1.3,0.2-2.5,0.5-3.8,0.7c-0.6,0.1-1.3,0.2-2,0.3c-0.6,0.1-1.3,0.1-1.9,0.2c-0.5,0.1-1.1,0.1-1.7,0.1   v-43.3H250v43.3c-1.9-0.1-3.7-0.2-5.5-0.5c-1.3-0.1-2.6-0.5-3.8-0.7c-0.6-0.1-1.2-0.3-1.9-0.5c-0.6-0.2-1.2-0.3-1.8-0.5   s-1.2-0.4-1.8-0.6s-1.1-0.4-1.7-0.6c-1.1-0.4-2.2-0.9-3.2-1.4c-2-1-4-2.1-5.6-3.3c-0.4-0.3-0.8-0.6-1.2-0.9s-0.7-0.6-1.1-0.9   c-0.7-0.6-1.4-1.2-2-1.8c-0.6-0.6-1.1-1.2-1.6-1.7c-0.2-0.3-0.5-0.5-0.7-0.8s-0.4-0.5-0.6-0.8c-0.3-0.5-0.7-0.9-1-1.3   s-0.5-0.8-0.6-1c-0.4-0.6-0.6-0.9-0.6-0.9s0.1,0.3,0.3,1c0.1,0.3,0.2,0.7,0.3,1.2s0.4,1,0.6,1.6c0.1,0.3,0.3,0.6,0.4,0.9   c0.2,0.3,0.3,0.6,0.5,1c0.4,0.7,0.7,1.4,1.3,2.2c0.5,0.7,1,1.6,1.7,2.3c0.3,0.4,0.7,0.8,1,1.2c0.4,0.4,0.8,0.8,1.1,1.2   c1.6,1.6,3.5,3.1,5.6,4.5c1.1,0.7,2.2,1.4,3.4,2c0.6,0.3,1.2,0.6,1.8,0.9s1.3,0.5,1.9,0.8c2.6,1,5.4,1.8,8.3,2.4   c2.9,0.6,5.9,0.8,8.8,0.8l2.2-0.1h1.1c0.4,0,0.8-0.1,1.1-0.1c0.8-0.1,1.5-0.2,2.3-0.2c0.7-0.1,1.5-0.3,2.2-0.4   c2.9-0.5,5.7-1.3,8.3-2.4c0.6-0.3,1.3-0.5,1.9-0.8s1.2-0.6,1.8-0.9c1.2-0.6,2.3-1.3,3.4-2c0.5-0.3,1-0.7,1.6-1.1   c0.5-0.4,1-0.7,1.5-1.1c0.9-0.8,1.8-1.5,2.6-2.3c0.4-0.4,0.8-0.8,1.1-1.2c0.3-0.4,0.7-0.8,1-1.2c0.7-0.8,1.2-1.6,1.7-2.3   c0.5-0.7,0.9-1.5,1.3-2.2c0.2-0.3,0.3-0.7,0.5-1c0.1-0.3,0.3-0.6,0.4-0.9c0.2-0.6,0.5-1.1,0.6-1.6s0.2-0.9,0.3-1.2   c0.2-0.6,0.2-1,0.2-1S289.3,376.1,289,376.7z"/>
</g>
<path style="fill:#FFFFFF;" d="M280.7,243.6c2,15.8,14.2,28,27.4,27.3c13.2-0.7,22.3-14,20.3-29.7c-2-15.8-14.2-28-27.4-27.3  C287.8,214.5,278.7,227.9,280.7,243.6z"/>
<path style="fill:#F9B54C;" d="M284.6,247.9c1.3,10.2,10.7,18.1,21,17.6s17.7-9.2,16.4-19.5c-1.3-10.2-10.7-18.1-21-17.6  C290.7,229,283.4,237.7,284.6,247.9z"/>
<path style="fill:#2B3B4E;" d="M293.9,247.4c0.6,5.2,5.4,9.2,10.7,8.9c5.2-0.3,9-4.7,8.3-9.9c-0.6-5.2-5.4-9.2-10.7-8.9  C296.9,237.8,293.2,242.3,293.9,247.4z"/>
<path style="fill:#FFFFFF;" d="M296,235.5c-1.4,2.4-0.1,4.9,3,5.6c3,0.7,6.7-0.6,8.1-2.9c1.4-2.4,0.1-4.9-3-5.6  C301.1,231.8,297.5,233.1,296,235.5z"/>
<path style="fill:#324A5E;" d="M278.7,203.3c0,0,3.7-1.6,8.7-2.9c1.2-0.4,2.6-0.5,4-0.9c1.4-0.1,2.8-0.5,4.3-0.5  c1.5-0.2,3-0.1,4.5,0s3,0.3,4.6,0.5c1.5,0.4,3.1,0.6,4.6,1.1c1.5,0.6,3,0.8,4.5,1.5c1.5,0.6,2.9,1.1,4.2,1.7  c1.3,0.7,2.6,1.2,3.9,1.8c2.5,1,4.5,2.2,6,2.8c1.5,0.7,2.5,1,2.5,1s-0.4-0.9-1.2-2.4c-0.4-0.7-0.9-1.7-1.6-2.6  c-0.6-1-1.4-2.1-2.4-3.2c-1-1.1-2.1-2.3-3.3-3.4c-1.3-1.1-2.8-2.1-4.3-3.2c-1.5-1.1-3.4-1.8-5.2-2.7c-1.8-0.9-3.9-1.2-5.9-1.7  c-2.1-0.2-4.2-0.5-6.3-0.4c-2.1,0.1-4.1,0.4-6,1c-1.9,0.4-3.6,1.3-5.2,2c-1.5,0.9-2.9,1.8-4.1,2.8c-2.4,1.8-3.9,3.9-4.9,5.3  C279,202.4,278.7,203.3,278.7,203.3z"/>
<path style="fill:#FFFFFF;" d="M224.3,243.6c-2,15.8-14.2,28-27.4,27.3s-22.3-14-20.3-29.7c2-15.8,14.2-28,27.4-27.3  C217.2,214.5,226.3,227.9,224.3,243.6z"/>
<path style="fill:#F9B54C;" d="M220.4,247.9c-1.3,10.2-10.7,18.1-21,17.6s-17.7-9.2-16.4-19.5c1.3-10.2,10.7-18.1,21-17.6  C214.3,229,221.6,237.7,220.4,247.9z"/>
<path style="fill:#2B3B4E;" d="M211.1,247.4c-0.6,5.2-5.4,9.2-10.7,8.9c-5.2-0.3-9-4.7-8.3-9.9c0.6-5.2,5.4-9.2,10.7-8.9  S211.8,242.3,211.1,247.4z"/>
<path style="fill:#FFFFFF;" d="M209,235.5c1.4,2.4,0.1,4.9-3,5.6c-3,0.7-6.7-0.6-8.1-2.9c-1.4-2.4-0.1-4.9,3-5.6  C203.9,231.8,207.5,233.1,209,235.5z"/>
<path style="fill:#324A5E;" d="M226.3,203.3c0,0-3.7-1.6-8.7-2.9c-1.2-0.4-2.6-0.5-4-0.9c-1.4-0.1-2.8-0.5-4.3-0.5  c-1.5-0.2-3-0.1-4.5,0s-3,0.3-4.6,0.5c-1.5,0.4-3.1,0.6-4.6,1.1c-1.5,0.6-3,0.8-4.5,1.5c-1.5,0.6-2.9,1.1-4.2,1.7  c-1.3,0.7-2.6,1.2-3.9,1.8c-2.5,1-4.5,2.2-6,2.8c-1.5,0.7-2.5,1-2.5,1s0.4-0.9,1.2-2.4c0.4-0.7,0.9-1.7,1.6-2.6  c0.6-1,1.4-2.1,2.4-3.2c1-1.1,2.1-2.3,3.3-3.4c1.3-1.1,2.8-2.1,4.3-3.2c1.5-1.1,3.4-1.8,5.2-2.7s3.9-1.2,5.9-1.7  c2.1-0.2,4.2-0.5,6.3-0.4s4.1,0.4,6,1c1.9,0.4,3.6,1.3,5.2,2c1.5,0.9,2.9,1.8,4.1,2.8c2.4,1.8,3.9,3.9,4.9,5.3  C226,202.4,226.3,203.3,226.3,203.3z"/>
<g>
</g>
<g>
</g>
<g>
</g>
<g>
</g>
<g>
</g>
<g>
</g>
<g>
</g>
<g>
</g>
<g>
</g>
<g>
</g>
<g>
</g>
<g>
</g>
<g>
</g>
<g>
</g>
<g>
</g>
</svg>
