<?xml version="1.0" encoding="iso-8859-1"?>
<!-- Generator: Adobe Illustrator 19.0.0, SVG Export Plug-In . SVG Version: 6.00 Build 0)  -->
<svg xmlns="http://www.w3.org/2000/svg" xmlns:xlink="http://www.w3.org/1999/xlink" version="1.1" id="Layer_1" x="0px" y="0px" viewBox="0 0 505 505" style="enable-background:new 0 0 505 505;" xml:space="preserve">
<circle style="fill:#324A5E;" cx="252.5" cy="252.5" r="252.5"/>
<circle style="fill:#FFD05B;" cx="377.7" cy="160.9" r="52.1"/>
<circle style="fill:#F9B54C;" cx="369.8" cy="168.7" r="39"/>
<circle style="fill:#FFD05B;" cx="127.3" cy="160.9" r="52.1"/>
<circle style="fill:#F9B54C;" cx="135.2" cy="168.7" r="39"/>
<ellipse style="fill:#FF7058;" cx="252.5" cy="261.1" rx="147.8" ry="168.5"/>
<path style="fill:#E6E9EE;" d="M304.2,175.5c-21.2,0-40,14.7-51.7,37.4c-11.6-22.7-30.5-37.4-51.7-37.4c-35.4,0-64,40.8-64,91.2  s28.7,91.2,64,91.2c21.2,0,40-14.7,51.7-37.4c11.6,22.7,30.5,37.4,51.7,37.4c35.4,0,64-40.8,64-91.2S339.5,175.5,304.2,175.5z"/>
<ellipse style="fill:#FFD05B;" cx="252.5" cy="359.2" rx="115.4" ry="80.9"/>
<g>
	<ellipse style="fill:#F9B54C;" cx="277.8" cy="311.5" rx="10.7" ry="14.1"/>
	<ellipse style="fill:#F9B54C;" cx="227.2" cy="311.5" rx="10.7" ry="14.1"/>
</g>
<path style="fill:#324A5E;" d="M321.5,362.8c-11.5,26.7-38.1,45.3-69,45.3s-57.5-18.7-69-45.4c17.3,18.3,41.8,29.7,69,29.7  S304.2,381.1,321.5,362.8z"/>
<path style="fill:#FFFFFF;" d="M283.2,250.7c2,15.8,14.2,28,27.4,27.3c13.2-0.7,22.3-14,20.3-29.7c-2-15.8-14.2-28-27.4-27.3  C290.3,221.6,281.2,234.9,283.2,250.7z"/>
<path style="fill:#84DBFF;" d="M287.1,255c1.3,10.2,10.7,18.1,21,17.6s17.7-9.2,16.4-19.5c-1.3-10.2-10.7-18.1-21-17.6  S285.9,244.8,287.1,255z"/>
<path style="fill:#2B3B4E;" d="M296.4,254.5c0.6,5.2,5.4,9.2,10.7,8.9c5.2-0.3,9-4.7,8.3-9.9c-0.6-5.2-5.4-9.2-10.7-8.9  C299.4,244.9,295.7,249.3,296.4,254.5z"/>
<path style="fill:#FFFFFF;" d="M298.5,242.6c-1.4,2.4-0.1,4.9,3,5.6c3,0.7,6.7-0.6,8.1-2.9c1.4-2.4,0.1-4.9-3-5.6  C303.6,238.9,300,240.2,298.5,242.6z"/>
<path style="fill:#324A5E;" d="M281.2,210.4c0,0,3.7-1.6,8.7-2.9c1.2-0.4,2.6-0.5,4-0.9c1.4-0.1,2.8-0.5,4.3-0.5  c1.5-0.2,3-0.1,4.5,0s3,0.3,4.6,0.5c1.5,0.4,3.1,0.6,4.6,1.1c1.5,0.6,3,0.8,4.5,1.5c1.5,0.6,2.9,1.1,4.2,1.7  c1.3,0.7,2.6,1.2,3.9,1.8c2.5,1,4.5,2.2,6,2.8c1.5,0.7,2.5,1,2.5,1s-0.4-0.9-1.2-2.4c-0.4-0.7-0.9-1.6-1.6-2.6  c-0.6-1-1.4-2.1-2.4-3.2c-1-1.1-2.1-2.3-3.3-3.4c-1.3-1.1-2.8-2.1-4.3-3.2c-1.5-1.1-3.4-1.8-5.2-2.7c-1.8-0.9-3.9-1.2-5.9-1.7  c-2.1-0.2-4.2-0.5-6.3-0.4c-2.1,0.1-4.1,0.4-6,1c-1.9,0.4-3.6,1.3-5.2,2c-1.5,0.9-2.9,1.8-4.1,2.8c-2.4,1.8-3.9,3.9-4.9,5.3  C281.5,209.4,281.2,210.4,281.2,210.4z"/>
<path style="fill:#FFFFFF;" d="M221.8,250.7c-2,15.8-14.2,28-27.4,27.3s-22.3-14-20.3-29.7c2-15.8,14.2-28,27.4-27.3  C214.7,221.6,223.8,234.9,221.8,250.7z"/>
<path style="fill:#84DBFF;" d="M217.9,255c-1.3,10.2-10.7,18.1-21,17.6s-17.7-9.2-16.4-19.5c1.3-10.2,10.7-18.1,21-17.6  S219.1,244.8,217.9,255z"/>
<path style="fill:#2B3B4E;" d="M208.6,254.5c-0.6,5.2-5.4,9.2-10.7,8.9c-5.2-0.3-9-4.7-8.3-9.9c0.6-5.2,5.4-9.2,10.7-8.9  C205.6,244.9,209.3,249.3,208.6,254.5z"/>
<path style="fill:#FFFFFF;" d="M206.5,242.6c1.4,2.4,0.1,4.9-3,5.6c-3,0.7-6.7-0.6-8.1-2.9c-1.4-2.4-0.1-4.9,3-5.6  C201.4,238.9,205,240.2,206.5,242.6z"/>
<path style="fill:#324A5E;" d="M223.8,210.4c0,0-3.7-1.6-8.7-2.9c-1.2-0.4-2.6-0.5-4-0.9c-1.4-0.1-2.8-0.5-4.3-0.5  c-1.5-0.2-3-0.1-4.5,0s-3,0.3-4.6,0.5c-1.5,0.4-3.1,0.6-4.6,1.1c-1.5,0.6-3,0.8-4.5,1.5c-1.5,0.6-2.9,1.1-4.2,1.7  c-1.3,0.7-2.6,1.2-3.9,1.8c-2.5,1-4.5,2.2-6,2.8c-1.5,0.7-2.5,1-2.5,1s0.4-0.9,1.2-2.4c0.4-0.7,0.9-1.6,1.6-2.6  c0.6-1,1.4-2.1,2.4-3.2c1-1.1,2.1-2.3,3.3-3.4c1.3-1.1,2.8-2.1,4.3-3.2c1.5-1.1,3.4-1.8,5.2-2.7s3.9-1.2,5.9-1.7  c2.1-0.2,4.2-0.5,6.3-0.4s4.1,0.4,6,1c1.9,0.4,3.6,1.3,5.2,2c1.5,0.9,2.9,1.8,4.1,2.8c2.4,1.8,3.9,3.9,4.9,5.3  C223.5,209.4,223.8,210.4,223.8,210.4z"/>
<g>
</g>
<g>
</g>
<g>
</g>
<g>
</g>
<g>
</g>
<g>
</g>
<g>
</g>
<g>
</g>
<g>
</g>
<g>
</g>
<g>
</g>
<g>
</g>
<g>
</g>
<g>
</g>
<g>
</g>
</svg>
