<?xml version="1.0" encoding="iso-8859-1"?>
<!-- Generator: Adobe Illustrator 19.0.0, SVG Export Plug-In . SVG Version: 6.00 Build 0)  -->
<svg xmlns="http://www.w3.org/2000/svg" xmlns:xlink="http://www.w3.org/1999/xlink" version="1.1" id="Layer_1" x="0px" y="0px" viewBox="0 0 505 505" style="enable-background:new 0 0 505 505;" xml:space="preserve">
<circle style="fill:#FFD05B;" cx="252.5" cy="252.5" r="252.5"/>
<path style="fill:#FD8469;" d="M395.8,209.8c0,86.2-63.8,197.5-142.5,197.5S110.9,296,110.9,209.8S174.7,95.2,253.4,95.2  S395.8,123.6,395.8,209.8z"/>
<path style="fill:#CED5E0;" d="M150.1,356.1c28.8,31.5,64.5,52.4,103.3,52.4c38.7,0,74.5-21,103.3-52.4H150.1z"/>
<path style="fill:#FFFFFF;" d="M335.9,310.7c-14.7-11.5-40-27.7-42.9-46.2c-8.4-53.2-14.6-111.6-39.7-111.6s-31.2,58.3-39.7,111.6  c-2.9,18.4-28.2,34.7-42.9,46.2c-12.3,9.6-20.5,24.3-21.3,40.6c-1.5,31.4,23.5,57.3,54.6,57.3c9.8,0,18.9-2.6,26.8-7  c14-7.9,30.9-7.9,44.8,0c7.9,4.5,17.1,7,26.8,7c31.1,0,56.1-25.9,54.6-57.3C356.4,334.9,348.2,320.2,335.9,310.7z"/>
<g>
	<path style="fill:#324A5E;" d="M295,314.6c0,15.2-18.6,38-41.7,38c-23,0-41.7-22.7-41.7-38c0-15.2,18.6-17.1,41.7-17.1   C276.3,297.5,295,299.4,295,314.6z"/>
	<path style="fill:#324A5E;" d="M356,121.7c0,0,50.7,85.6,6.9,184.1c-5.8,13.1-6.4,28.3,0.2,41c5.6,10.6,15.4,18.9,32.6,12.4   c14.2-5.4,24.5-17.9,28.4-32.6C435.1,284.9,450,182.2,356,121.7z"/>
	<path style="fill:#324A5E;" d="M149,121.7c0,0-50.7,85.6-6.9,184.1c5.8,13.1,6.4,28.3-0.2,41c-5.6,10.6-15.4,18.9-32.6,12.4   c-14.2-5.4-24.5-17.9-28.4-32.6C69.9,284.9,55,182.2,149,121.7z"/>
</g>
<path style="fill:#FFFFFF;" d="M304.3,219.9c1.6,12.8,11.6,22.8,22.3,22.2c10.7-0.5,18.1-11.4,16.5-24.2s-11.6-22.8-22.3-22.2  C310.1,196.2,302.7,207.1,304.3,219.9z"/>
<path style="fill:#F9B54C;" d="M307.5,223.4c1,8.3,8.7,14.7,17.1,14.3s14.4-7.5,13.3-15.9c-1-8.3-8.7-14.7-17.1-14.3  C312.4,208,306.4,215.1,307.5,223.4z"/>
<path style="fill:#2B3B4E;" d="M315,223c0.5,4.2,4.4,7.5,8.7,7.3c4.3-0.2,7.3-3.8,6.8-8s-4.4-7.5-8.7-7.3  C317.5,215.2,314.5,218.8,315,223z"/>
<path style="fill:#FFFFFF;" d="M316.8,213.3c-1.1,1.9-0.1,4,2.4,4.6s5.4-0.5,6.6-2.4c1.1-1.9,0.1-4-2.4-4.6S317.9,211.4,316.8,213.3  z"/>
<path style="fill:#324A5E;" d="M302.6,187.1c0,0,3-1.3,7.1-2.3c1-0.3,2.1-0.4,3.2-0.7c1.2-0.1,2.3-0.4,3.5-0.4  c1.2-0.1,2.4-0.1,3.7,0c1.2,0,2.5,0.3,3.7,0.4c1.2,0.3,2.5,0.5,3.7,0.9c1.2,0.5,2.5,0.6,3.6,1.2c1.2,0.5,2.4,0.9,3.5,1.4  s2.1,1,3.1,1.4c2,0.8,3.6,1.8,4.9,2.3s2,0.8,2,0.8s-0.3-0.7-1-1.9c-0.3-0.6-0.8-1.3-1.3-2.1s-1.1-1.7-2-2.6  c-0.8-0.9-1.7-1.8-2.7-2.8c-1-0.9-2.3-1.7-3.5-2.6c-1.2-0.9-2.8-1.5-4.3-2.2s-3.2-1-4.8-1.4c-1.7-0.2-3.4-0.4-5.1-0.3  c-1.7,0.1-3.3,0.3-4.9,0.8c-1.6,0.3-2.9,1.1-4.2,1.6c-1.2,0.7-2.4,1.4-3.3,2.2c-1.9,1.5-3.2,3.2-4,4.3  C302.9,186.3,302.6,187.1,302.6,187.1z"/>
<path style="fill:#FFFFFF;" d="M202.4,219.9c-1.6,12.8-11.6,22.8-22.3,22.2c-10.7-0.5-18.1-11.4-16.5-24.2s11.6-22.8,22.3-22.2  C196.6,196.2,204,207.1,202.4,219.9z"/>
<path style="fill:#F9B54C;" d="M199.2,223.4c-1,8.3-8.7,14.7-17.1,14.3c-8.4-0.4-14.4-7.5-13.3-15.9c1-8.3,8.7-14.7,17.1-14.3  C194.3,208,200.2,215.1,199.2,223.4z"/>
<path style="fill:#2B3B4E;" d="M191.7,223c-0.5,4.2-4.4,7.5-8.7,7.3s-7.3-3.8-6.8-8s4.4-7.5,8.7-7.3S192.2,218.8,191.7,223z"/>
<path style="fill:#FFFFFF;" d="M189.9,213.3c1.1,1.9,0.1,4-2.4,4.6s-5.4-0.5-6.6-2.4c-1.1-1.9-0.1-4,2.4-4.6  C185.8,210.3,188.8,211.4,189.9,213.3z"/>
<path style="fill:#324A5E;" d="M204,187.1c0,0-3-1.3-7.1-2.3c-1-0.3-2.1-0.4-3.2-0.7c-1.2-0.1-2.3-0.4-3.5-0.4  c-1.2-0.1-2.4-0.1-3.7,0c-1.2,0-2.5,0.3-3.7,0.4c-1.2,0.3-2.5,0.5-3.7,0.9c-1.2,0.5-2.5,0.6-3.6,1.2c-1.2,0.5-2.4,0.9-3.5,1.4  s-2.1,1-3.1,1.4c-2,0.8-3.6,1.8-4.9,2.3c-1.3,0.5-2,0.8-2,0.8s0.3-0.7,1-1.9c0.3-0.6,0.8-1.3,1.3-2.1s1.1-1.7,2-2.6  c0.8-0.9,1.7-1.8,2.7-2.8c1-0.9,2.3-1.7,3.5-2.6c1.2-0.9,2.8-1.5,4.3-2.2s3.2-1,4.8-1.4c1.7-0.2,3.4-0.4,5.1-0.3  c1.7,0.1,3.3,0.3,4.9,0.8c1.6,0.3,2.9,1.1,4.2,1.6c1.2,0.7,2.4,1.4,3.3,2.2c1.9,1.5,3.2,3.2,4,4.3C203.8,186.3,204,187.1,204,187.1z  "/>
<g>
</g>
<g>
</g>
<g>
</g>
<g>
</g>
<g>
</g>
<g>
</g>
<g>
</g>
<g>
</g>
<g>
</g>
<g>
</g>
<g>
</g>
<g>
</g>
<g>
</g>
<g>
</g>
<g>
</g>
</svg>
