<?xml version="1.0" encoding="iso-8859-1"?>
<!-- Generator: Adobe Illustrator 19.0.0, SVG Export Plug-In . SVG Version: 6.00 Build 0)  -->
<svg xmlns="http://www.w3.org/2000/svg" xmlns:xlink="http://www.w3.org/1999/xlink" version="1.1" id="Layer_1" x="0px" y="0px" viewBox="0 0 505 505" style="enable-background:new 0 0 505 505;" xml:space="preserve">
<circle style="fill:#90DFAA;" cx="252.5" cy="252.5" r="252.5"/>
<g>
	<path style="fill:#FFFFFF;" d="M225.3,352.1h56.8c38.8,0,74-23.4,88.2-59.5c9.8-25,15.4-53.5,15.4-83.7c0-29.5-5.3-43.3-14.7-67.8   c-13.9-36.4-49.4-74-88.4-74h-57.9c-39,0-74.4,37.6-88.4,74c-9.4,24.5-14.7,38.3-14.7,67.8c0,30.3,5.6,58.8,15.4,83.7   C151.4,328.6,186.6,352.1,225.3,352.1z"/>
	<path style="fill:#FFFFFF;" d="M322.1,292.1c0,0,0.1,0.7,0.2,1.9c0.2,1.5,0.3,3.4,0.5,5.6c0.2,4.6,0.4,11.1,0,18.7   c-0.1,3.8-0.5,7.9-1,12.2c-0.5,4.3-1.2,8.8-1.9,13.4c-1,4.6-1.7,9.4-3.1,14.1c-0.6,2.4-1.3,4.7-1.9,7.1l-2.3,7.1   c-1.4,4.7-3.4,9.3-5.3,13.7c-1.7,4.5-4.1,8.7-6.1,12.8c-1.9,4.1-4.5,7.8-6.6,11.3c-2.1,3.6-4.4,6.8-6.6,9.6c-2.2,2.9-4,5.6-5.9,7.8   c-1.9,2.2-3.6,4.1-5,5.6c-2.8,3.1-4.3,4.9-4.3,4.9s1.2-2.1,3.2-5.7c1-1.8,2.2-4,3.6-6.5s2.6-5.5,4.1-8.7s3-6.6,4.3-10.4   c1.2-3.8,2.9-7.6,3.9-11.9c1-4.2,2.4-8.4,3.1-12.9c0.8-4.4,1.7-8.9,2.1-13.4l0.7-6.7c0.1-2.2,0.2-4.5,0.3-6.7c0.3-4.4,0-8.8,0-12.9   c-0.2-4.2-0.5-8.2-0.9-12s-0.8-7.3-1.4-10.6c-1-6.5-2.4-11.8-3.3-15.3c-0.5-1.8-0.9-3.1-1.2-3.8c-0.3-0.9-0.5-1.4-0.5-1.4   L322.1,292.1z"/>
	<path style="fill:#FFFFFF;" d="M216.8,299.2c0,0-0.2,0.5-0.5,1.4c-0.3,0.7-0.7,2-1.2,3.8c-1,3.5-2.3,8.8-3.3,15.3   c-0.6,3.2-1,6.8-1.4,10.6c-0.4,3.8-0.6,7.8-0.9,12c0,4.2-0.3,8.5,0,12.9c0.1,2.2,0.2,4.5,0.3,6.7l0.7,6.7c0.4,4.5,1.3,9,2.1,13.4   c0.7,4.5,2.1,8.7,3.1,12.9c0.9,4.2,2.6,8.1,3.9,11.9c1.2,3.8,2.8,7.2,4.3,10.4c1.5,3.2,2.7,6.2,4.1,8.7c1.4,2.5,2.6,4.7,3.6,6.5   c2,3.6,3.2,5.7,3.2,5.7s-1.6-1.8-4.3-4.9c-1.4-1.6-3.1-3.5-5-5.6c-1.9-2.2-3.7-4.9-5.9-7.8s-4.5-6-6.6-9.6s-4.7-7.2-6.6-11.3   c-2-4.1-4.4-8.2-6.1-12.8c-1.9-4.5-3.8-9-5.3-13.7l-2.3-7.1c-0.6-2.4-1.3-4.8-1.9-7.1c-1.4-4.7-2.1-9.5-3.1-14.1   c-0.8-4.6-1.5-9.1-1.9-13.4s-0.8-8.4-1-12.2c-0.4-7.6-0.2-14.1,0-18.7c0.1-2.3,0.3-4.2,0.5-5.6c0.1-1.2,0.2-1.9,0.2-1.9   L216.8,299.2z"/>
</g>
<path style="fill:#ACB3BA;" d="M339.6,271.3c-0.1-0.1-0.2-0.3-0.3-0.4c-14.1-20.3-39.5-32.3-66.5-32.3h-38.2  c-27,0-52.4,12-66.5,32.3c-0.1,0.1-0.2,0.3-0.3,0.4c-22.5,32.7-23.6,68.3-2.5,79.6c15.8,8.5,39.7,0.8,60.1-17.4  c7.9-7.1,17.9-11.1,28.2-11.1l0,0c10.4,0,20.3,4,28.2,11.1c20.4,18.2,44.3,25.9,60.1,17.4C363.2,339.7,362.1,304,339.6,271.3z"/>
<path style="fill:#324A5E;" d="M287.8,230.6c0,13.5-15.2,32.5-34,32.5s-34-18.9-34-32.5s15.2-16.6,34-16.6S287.8,217.1,287.8,230.6z  "/>
<g>
	<circle style="fill:#FFFFFF;" cx="312.3" cy="293.7" r="6.3"/>
	<circle style="fill:#FFFFFF;" cx="335.5" cy="304.9" r="6.3"/>
	<circle style="fill:#FFFFFF;" cx="324.9" cy="323.6" r="6.3"/>
	<circle style="fill:#FFFFFF;" cx="292.8" cy="304.9" r="6.3"/>
	<circle style="fill:#FFFFFF;" cx="299.1" cy="326.2" r="6.3"/>
</g>
<g>
	<path style="fill:#324A5E;" d="M335.5,304.9c0,0,1.6,0.2,4.4,0.7c2.8,0.6,6.7,1.3,11.4,2.6c4.7,1.3,10.1,2.8,15.8,4.7   c5.7,2,11.7,4.3,17.6,6.9c5.9,2.7,11.7,5.5,16.9,8.6c2.6,1.5,5.2,3,7.5,4.6c2.3,1.5,4.5,2.9,6.5,4.4c4,2.8,7,5.4,9.2,7.3   c2.1,1.9,3.3,2.9,3.3,2.9s-1.4-0.9-3.8-2.3c-1.2-0.8-2.6-1.7-4.2-2.7c-1.7-1-3.6-2.1-5.6-3.3c-2-1.3-4.3-2.5-6.7-3.8   c-2.4-1.4-5-2.6-7.6-4s-5.4-2.7-8.3-4.1c-2.8-1.4-5.7-2.7-8.6-4c-5.8-2.6-11.7-5-17.2-7.3c-5.6-2.2-10.8-4.3-15.3-5.9   s-8.3-3-10.9-3.9C337,305.4,335.5,304.9,335.5,304.9z"/>
	<path style="fill:#324A5E;" d="M324.9,323.6c0,0,5.3,0.6,13.2,2.5c3.9,0.9,8.4,2.3,13.2,3.9c4.8,1.6,9.8,3.6,14.7,5.7   c4.9,2.2,9.7,4.6,14.1,7.2c2.2,1.2,4.3,2.5,6.2,3.8c1.9,1.3,3.8,2.4,5.4,3.7c3.3,2.4,5.8,4.6,7.5,6.2s2.7,2.5,2.7,2.5   s-1.2-0.7-3.2-1.9c-1-0.6-2.2-1.4-3.6-2.2c-1.4-0.8-3-1.7-4.7-2.7s-3.6-2-5.6-3.1s-4.1-2.2-6.3-3.3c-2.2-1.2-4.5-2.2-6.9-3.3   c-2.3-1.2-4.8-2.2-7.2-3.3c-4.8-2.2-9.7-4.2-14.3-6.1c-4.6-1.8-8.9-3.5-12.7-4.9c-3.7-1.4-6.8-2.6-9-3.4   C326.1,324,324.9,323.6,324.9,323.6z"/>
	<path style="fill:#324A5E;" d="M299.1,326.2c0,0,1.5,0.2,4.2,0.7c2.6,0.5,6.4,1.2,10.8,2.4c4.4,1.2,9.6,2.6,15.1,4.5   c5.4,1.9,11.2,4.1,16.8,6.6c5.6,2.6,11.1,5.2,16.1,8.2c2.5,1.4,4.9,2.8,7.1,4.3s4.3,2.8,6.2,4.2c3.8,2.7,6.7,5.2,8.7,7   s3.1,2.8,3.1,2.8s-1.3-0.8-3.6-2.2c-1.1-0.7-2.5-1.6-4.1-2.6c-1.6-0.9-3.4-1.9-5.4-3.1c-1.9-1.2-4.1-2.3-6.4-3.6   c-2.3-1.3-4.7-2.5-7.3-3.8c-2.5-1.4-5.2-2.5-7.9-3.9c-2.7-1.3-5.5-2.5-8.2-3.8c-5.5-2.5-11.1-4.8-16.4-6.9s-10.2-4.1-14.5-5.6   c-4.3-1.6-7.9-2.8-10.4-3.8C300.5,326.7,299.1,326.2,299.1,326.2z"/>
</g>
<g>
	<circle style="fill:#FFFFFF;" cx="192.7" cy="293.7" r="6.3"/>
	<circle style="fill:#FFFFFF;" cx="169.5" cy="304.9" r="6.3"/>
	<circle style="fill:#FFFFFF;" cx="180.1" cy="323.6" r="6.3"/>
	<circle style="fill:#FFFFFF;" cx="212.2" cy="304.9" r="6.3"/>
	<circle style="fill:#FFFFFF;" cx="205.9" cy="326.2" r="6.3"/>
</g>
<g>
	<path style="fill:#324A5E;" d="M169.5,304.9c0,0-1.6,0.2-4.4,0.7c-2.8,0.6-6.7,1.3-11.4,2.6c-4.7,1.3-10.1,2.8-15.8,4.7   c-5.7,2-11.7,4.3-17.6,6.9c-5.9,2.7-11.7,5.5-16.9,8.6c-2.6,1.5-5.2,3-7.5,4.6c-2.3,1.5-4.5,2.9-6.5,4.4c-4,2.8-7,5.4-9.2,7.3   c-2.1,1.9-3.3,2.9-3.3,2.9s1.4-0.9,3.8-2.3c1.2-0.8,2.6-1.7,4.2-2.7c1.7-1,3.6-2.1,5.6-3.3c2-1.3,4.3-2.5,6.7-3.8   c2.4-1.4,5-2.6,7.6-4s5.4-2.7,8.3-4.1c2.8-1.4,5.7-2.7,8.6-4c5.8-2.6,11.7-5,17.2-7.3c5.6-2.2,10.8-4.3,15.3-5.9s8.3-3,10.9-3.9   C168,305.4,169.5,304.9,169.5,304.9z"/>
	<path style="fill:#324A5E;" d="M180.1,323.6c0,0-5.3,0.6-13.2,2.5c-3.9,0.9-8.4,2.3-13.2,3.9s-9.8,3.6-14.7,5.7   c-4.9,2.2-9.7,4.6-14.1,7.2c-2.2,1.2-4.3,2.5-6.2,3.8c-1.9,1.3-3.8,2.4-5.4,3.7c-3.3,2.4-5.8,4.6-7.5,6.2s-2.7,2.5-2.7,2.5   s1.2-0.7,3.2-1.9c1-0.6,2.2-1.4,3.6-2.2c1.4-0.8,3-1.7,4.7-2.7s3.6-2,5.6-3.1s4.1-2.2,6.3-3.3c2.2-1.2,4.5-2.2,6.9-3.3   c2.3-1.2,4.8-2.2,7.2-3.3c4.8-2.2,9.7-4.2,14.3-6.1c4.6-1.8,8.9-3.5,12.7-4.9c3.7-1.4,6.8-2.6,9-3.4   C178.9,324,180.1,323.6,180.1,323.6z"/>
	<path style="fill:#324A5E;" d="M205.9,326.2c0,0-1.5,0.2-4.2,0.7c-2.6,0.5-6.4,1.2-10.8,2.4c-4.4,1.2-9.6,2.6-15.1,4.5   c-5.4,1.9-11.2,4.1-16.8,6.6c-5.6,2.6-11.1,5.2-16.1,8.2c-2.5,1.4-4.9,2.8-7.1,4.3c-2.2,1.5-4.3,2.8-6.2,4.2   c-3.8,2.7-6.7,5.2-8.7,7s-3.1,2.8-3.1,2.8s1.3-0.8,3.6-2.2c1.1-0.7,2.5-1.6,4.1-2.6c1.6-0.9,3.4-1.9,5.4-3.1   c1.9-1.2,4.1-2.3,6.4-3.6c2.3-1.3,4.7-2.5,7.3-3.8c2.5-1.4,5.2-2.5,7.9-3.9c2.7-1.3,5.5-2.5,8.2-3.8c5.5-2.5,11.1-4.8,16.4-6.9   c5.3-2.1,10.2-4.1,14.5-5.6c4.3-1.6,7.9-2.8,10.4-3.8C204.5,326.7,205.9,326.2,205.9,326.2z"/>
</g>
<path style="fill:#FFFFFF;" d="M286.7,179c2.2,17.9,16.2,31.8,31.1,31c15-0.8,25.3-15.9,23-33.8c-2.2-17.9-16.2-31.8-31.1-31  C294.8,146,284.5,161.1,286.7,179z"/>
<path style="fill:#84DBFF;" d="M291.2,183.9c1.5,11.6,12.1,20.5,23.9,20s20.1-10.5,18.6-22.1s-12.1-20.5-23.9-20  C298.1,162.4,289.8,172.3,291.2,183.9z"/>
<path style="fill:#2B3B4E;" d="M301.7,183.3c0.7,5.9,6.1,10.4,12.1,10.1c5.9-0.3,10.2-5.3,9.4-11.2c-0.7-5.9-6.1-10.4-12.1-10.1  C305.2,172.4,301,177.5,301.7,183.3z"/>
<g>
	<path style="fill:#FFFFFF;" d="M304.2,169.8c-1.6,2.7-0.1,5.5,3.4,6.4c3.5,0.8,7.6-0.6,9.2-3.3s0.1-5.5-3.4-6.4   C309.9,165.6,305.8,167.1,304.2,169.8z"/>
	<path style="fill:#FFFFFF;" d="M220.8,179c-2.2,17.9-16.2,31.8-31.1,31c-15-0.8-25.3-15.9-23-33.8c2.2-17.9,16.2-31.8,31.1-31   C212.7,146,223,161.1,220.8,179z"/>
</g>
<path style="fill:#84DBFF;" d="M216.3,183.9c-1.5,11.6-12.1,20.5-23.9,20c-11.7-0.6-20.1-10.5-18.6-22.1s12.1-20.5,23.9-20  C209.4,162.4,217.7,172.3,216.3,183.9z"/>
<path style="fill:#2B3B4E;" d="M205.8,183.3c-0.7,5.9-6.1,10.4-12.1,10.1c-5.9-0.3-10.2-5.3-9.4-11.2c0.7-5.9,6.1-10.4,12.1-10.1  C202.3,172.4,206.5,177.5,205.8,183.3z"/>
<path style="fill:#FFFFFF;" d="M203.3,169.8c1.6,2.7,0.1,5.5-3.4,6.4c-3.5,0.8-7.6-0.6-9.2-3.3c-1.6-2.7-0.1-5.5,3.4-6.4  S201.7,167.1,203.3,169.8z"/>
<g>
</g>
<g>
</g>
<g>
</g>
<g>
</g>
<g>
</g>
<g>
</g>
<g>
</g>
<g>
</g>
<g>
</g>
<g>
</g>
<g>
</g>
<g>
</g>
<g>
</g>
<g>
</g>
<g>
</g>
</svg>
