<?xml version="1.0" encoding="iso-8859-1"?>
<!-- Generator: Adobe Illustrator 19.0.0, SVG Export Plug-In . SVG Version: 6.00 Build 0)  -->
<svg xmlns="http://www.w3.org/2000/svg" xmlns:xlink="http://www.w3.org/1999/xlink" version="1.1" id="Layer_1" x="0px" y="0px" viewBox="0 0 505 505" style="enable-background:new 0 0 505 505;" xml:space="preserve">
<circle style="fill:#FD8469;" cx="252.5" cy="252.5" r="252.5"/>
<path style="fill:#E6E9EE;" d="M269.7,119.8h-33.4c-56.2,0-102.5,45.1-102.9,101.3c0,0.5,0,1,0,1.5c0,83.9,53.6,182,119.7,182  s119.7-98.1,119.7-182c0-0.5,0-1,0-1.5C372.2,164.9,325.9,119.8,269.7,119.8z"/>
<path style="fill:#2B3B4E;" d="M169.9,347.3c21.5,33.8,50.8,57.3,83.2,57.3c32.3,0,61.6-23.5,83.2-57.3H169.9z"/>
<g>
	<path style="fill:#324A5E;" d="M338.7,147c0,0,35.4-17.8,69,6.9c0,0,5.8,2.3,13.2,4.5c13.4,4,19.9,19.1,13.7,31.6   c-12.3,24.7-31.4,60-51.8,84.2c-11.9,14.1-35,3.4-31.7-14.9C357.6,222.8,361.4,172,338.7,147z"/>
	<path style="fill:#324A5E;" d="M166.3,147c0,0-35.4-17.8-69,6.9c0,0-5.8,2.3-13.2,4.5c-13.4,4-19.9,19.1-13.7,31.6   c12.3,24.7,31.4,60,51.8,84.2c11.9,14.1,35,3.4,31.7-14.9C147.4,222.8,143.6,172,166.3,147z"/>
</g>
<path style="fill:#ACB3BA;" d="M342.9,337.8c0.3,21.5-8.3,41-22.4,55.1c-5.4,5.4-11.5,9.9-18.2,13.5c-8.3,4.4-18.8,0.9-22.8-7.7  c-4.7-10.1-12.5-17.4-21.7-19.2c-1.6-0.4-3.1-0.5-4.8-0.5c-1.6,0-3.2,0.2-4.7,0.5c-9.1,1.9-17,9.1-21.7,19.2  c-4,8.6-14.5,12.1-22.8,7.7c-24.2-12.9-40.7-38.3-40.7-67.6c0-21.2,8.5-40.3,22.4-54.2c13.9-13.9,33-22.4,54.1-22.4h24.7  C306.6,262.2,342.4,295.6,342.9,337.8z"/>
<path style="fill:#324A5E;" d="M285.7,305.8c0-14.3-14.6-18.7-32.7-18.7s-32.7,4.4-32.7,18.7c0,9.4,6.3,20.8,15.8,27.4  c7.4,5.2,12.1,13.3,12.1,22.3v23.9c1.5-0.3,3.1-0.5,4.7-0.5s3.2,0.2,4.8,0.5v-24c0-9,4.8-17.1,12.1-22.3  C279.4,326.6,285.7,315.3,285.7,305.8z"/>
<path style="fill:#FFFFFF;" d="M283.8,221.6c1.7,12.9,11.7,22.9,22.5,22.3c10.8-0.5,18.2-11.4,16.6-24.3  c-1.6-12.9-11.7-22.9-22.4-22.4C289.7,197.8,282.2,208.7,283.8,221.6z"/>
<path style="fill:#F9B54C;" d="M287.1,225.1c1,8.4,8.7,14.8,17.2,14.4c8.5-0.4,14.5-7.6,13.4-15.9c-1-8.4-8.7-14.8-17.2-14.4  C292,209.6,286,216.7,287.1,225.1z"/>
<path style="fill:#2B3B4E;" d="M294.6,224.7c0.5,4.2,4.4,7.5,8.7,7.3c4.3-0.2,7.3-3.8,6.8-8.1c-0.5-4.2-4.4-7.5-8.7-7.3  C297.1,216.8,294.1,220.5,294.6,224.7z"/>
<path style="fill:#FFFFFF;" d="M296.4,214.9c-1.1,1.9-0.1,4,2.4,4.6s5.4-0.5,6.6-2.4c1.1-1.9,0.1-4-2.4-4.6S297.6,213,296.4,214.9z"/>
<path style="fill:#324A5E;" d="M282.2,188.6c0,0,3-1.3,7.1-2.4c1-0.3,2.1-0.4,3.3-0.7c1.2-0.1,2.3-0.4,3.5-0.4  c1.2-0.1,2.4-0.1,3.7,0c1.2,0,2.5,0.3,3.7,0.4c1.2,0.3,2.5,0.5,3.7,0.9c1.2,0.5,2.5,0.6,3.6,1.2c1.2,0.5,2.4,0.9,3.5,1.4  s2.2,1,3.2,1.4c2,0.8,3.6,1.8,4.9,2.3s2.1,0.8,2.1,0.8s-0.3-0.7-1-2c-0.3-0.6-0.8-1.4-1.3-2.2s-1.1-1.8-2-2.6  c-0.8-0.9-1.7-1.9-2.7-2.8c-1.1-0.9-2.3-1.7-3.5-2.6c-1.2-0.9-2.8-1.5-4.3-2.2s-3.2-1-4.9-1.4c-1.7-0.2-3.4-0.4-5.1-0.3  c-1.7,0.1-3.4,0.3-4.9,0.8c-1.6,0.3-3,1.1-4.3,1.7c-1.2,0.7-2.4,1.4-3.3,2.3c-2,1.5-3.2,3.2-4,4.3  C282.5,187.8,282.2,188.6,282.2,188.6z"/>
<path style="fill:#FFFFFF;" d="M222.2,221.6c-1.6,12.9-11.7,22.9-22.4,22.4c-10.8-0.5-18.2-11.4-16.6-24.3  c1.6-12.9,11.7-22.9,22.4-22.4C216.4,197.8,223.8,208.7,222.2,221.6z"/>
<path style="fill:#F9B54C;" d="M219,225.1c-1,8.4-8.7,14.8-17.2,14.4c-8.5-0.4-14.5-7.6-13.4-15.9c1-8.4,8.7-14.8,17.2-14.4  C214,209.6,220,216.7,219,225.1z"/>
<path style="fill:#2B3B4E;" d="M211.4,224.7c-0.5,4.2-4.4,7.5-8.7,7.3s-7.3-3.8-6.8-8.1c0.5-4.2,4.4-7.5,8.7-7.3  C208.9,216.8,212,220.5,211.4,224.7z"/>
<path style="fill:#FFFFFF;" d="M209.7,214.9c1.1,1.9,0.1,4-2.4,4.6s-5.4-0.5-6.6-2.4c-1.1-1.9-0.1-4,2.4-4.6  C205.5,211.9,208.5,213,209.7,214.9z"/>
<path style="fill:#324A5E;" d="M223.9,188.6c0,0-3-1.3-7.1-2.4c-1-0.3-2.1-0.4-3.3-0.7c-1.2-0.1-2.3-0.4-3.5-0.4  c-1.2-0.1-2.4-0.1-3.7,0c-1.2,0-2.5,0.3-3.7,0.4c-1.2,0.3-2.5,0.5-3.7,0.9c-1.2,0.5-2.5,0.6-3.6,1.2c-1.2,0.5-2.4,0.9-3.5,1.4  s-2.2,1-3.2,1.4c-2,0.8-3.6,1.8-4.9,2.3c-1.3,0.5-2.1,0.8-2.1,0.8s0.3-0.7,1-2c0.3-0.6,0.8-1.4,1.3-2.2s1.1-1.8,2-2.6  c0.8-0.9,1.7-1.9,2.7-2.8c1.1-0.9,2.3-1.7,3.5-2.6c1.2-0.9,2.8-1.5,4.3-2.2s3.2-1,4.9-1.4c1.7-0.2,3.4-0.4,5.1-0.3  c1.7,0.1,3.4,0.3,4.9,0.8c1.6,0.3,3,1.1,4.3,1.7c1.2,0.7,2.4,1.4,3.3,2.3c2,1.5,3.2,3.2,4,4.3C223.6,187.8,223.9,188.6,223.9,188.6z  "/>
<g>
</g>
<g>
</g>
<g>
</g>
<g>
</g>
<g>
</g>
<g>
</g>
<g>
</g>
<g>
</g>
<g>
</g>
<g>
</g>
<g>
</g>
<g>
</g>
<g>
</g>
<g>
</g>
<g>
</g>
</svg>
