<?xml version="1.0" encoding="iso-8859-1"?>
<!-- Generator: Adobe Illustrator 19.0.0, SVG Export Plug-In . SVG Version: 6.00 Build 0)  -->
<svg xmlns="http://www.w3.org/2000/svg" xmlns:xlink="http://www.w3.org/1999/xlink" version="1.1" id="Layer_1" x="0px" y="0px" viewBox="0 0 505 505" style="enable-background:new 0 0 505 505;" xml:space="preserve">
<path style="fill:#FD8469;" d="M505,252.55c0,114.7-76.4,211.4-181.1,242.2c-4,1.2-8,2.2-12,3.2c-1.7,0.5-3.5,0.9-5.2,1.2  c-17.4,3.8-35.6,5.8-54.2,5.8c-21.5,0-42.3-2.7-62.3-7.8c-3.1-0.8-6.1-1.6-9.2-2.5C76.4,463.95,0,367.15,0,252.55  C0,113.05,113.1,0.05,252.5,0.05C392,0.05,505,113.05,505,252.55z"/>
<path style="fill:#FFD05B;" d="M415.5,214.75c-35.8,35.8-94,56.4-117.2,33.2s-2.6-81.4,33.2-117.2s73.3-35.7,96.5-12.5  S451.4,178.95,415.5,214.75z"/>
<path style="fill:#F9B54C;" d="M378.9,225.15c-24.6,24.6-64.7,38.8-80.6,22.8c-16-16-1.8-56,22.8-80.6c24.6-24.6,50.4-24.5,66.4-8.6  C403.5,174.75,403.6,200.45,378.9,225.15z"/>
<path style="fill:#FFD05B;" d="M89.5,214.75c35.8,35.8,94,56.4,117.2,33.2s2.6-81.4-33.2-117.2s-73.3-35.7-96.5-12.5  S53.6,178.95,89.5,214.75z"/>
<path style="fill:#F9B54C;" d="M126.1,225.15c24.6,24.6,64.7,38.8,80.6,22.8s1.8-56-22.8-80.6s-50.4-24.5-66.4-8.6  S101.4,200.45,126.1,225.15z"/>
<ellipse style="fill:#FFD05B;" cx="252.5" cy="298.95" rx="105.6" ry="133.6"/>
<path style="fill:#FFFFFF;" d="M258,377.45c-2.9-1.4-6.7-4.6-10.1-4.1c-3.3,0.5-6.6,4.5-9.8,5.7c-0.1,0-0.3,0.1-0.4,0.1l3.6,21.8  c0.4,2.5,2.2,4.3,4.2,4.3h2.6c2.4,0,4.3-2.4,4.3-5.4c0,3,1.9,5.4,4.3,5.4h2.6c2.1,0,3.8-1.8,4.2-4.3l3.5-20.8  C263.9,379.85,261.1,378.95,258,377.45z"/>
<g>
	<path style="fill:#324A5E;" d="M274,339.15c0,9.2-9.6,19.6-21.5,19.6s-21.5-10.4-21.5-19.6s9.6-13.7,21.5-13.7   S274,329.95,274,339.15z"/>
	<path style="fill:#324A5E;" d="M288.4,363.45c0-0.6,0-0.9,0-0.9s0,0.3-0.1,0.9s-0.2,1.4-0.5,2.5c-0.5,2.1-1.8,5-4.3,7.7   c-1.3,1.3-2.8,2.5-4.6,3.3c-1.8,0.9-3.9,1.5-5.9,1.6c-4.3,0.3-8.7-1.3-11.8-4.2c-1.5-1.5-2.7-3.2-3.4-5.1c-0.4-0.9-0.6-1.9-0.8-2.8   c-0.1-0.5-0.2-1-0.1-1.3c0-0.4-0.1-0.7,0-1.4v-0.6v-0.1v-0.4v-0.4c0-0.6,0.1-1.2,0.1-1.7c0.1-1.1,0.2-2.3,0.3-3.4   c0.2-2.2,0.3-4.2,0.5-6.1c0.6-7.6,1-12.7,1-12.7h-12.5c0,0,0.4,5.1,1,12.7c0.1,1.9,0.3,4,0.5,6.1c0.1,1.1,0.2,2.2,0.3,3.4   c0,0.6,0.1,1.2,0.1,1.7v0.4v0.4v0.1v0.6c0,0.7,0,1,0,1.4s-0.1,0.9-0.1,1.3c-0.1,0.9-0.4,1.9-0.8,2.8c-0.7,1.8-1.9,3.6-3.4,5.1   c-3,3-7.4,4.5-11.8,4.2c-2-0.1-4.1-0.7-5.9-1.6c-1.8-0.9-3.4-2-4.6-3.3c-2.5-2.6-3.8-5.5-4.3-7.7c-0.3-1.1-0.4-1.9-0.5-2.5   s-0.1-0.9-0.1-0.9s0,0.3,0,0.9s0,1.5,0.1,2.6c0.2,2.2,1,5.5,3.4,8.8c2.3,3.3,6.3,6.4,11.6,7.6c2.5,0.6,5.4,0.7,8.2,0.1   c2.8-0.5,5.6-1.7,8-3.4c1.8-1.3,3.4-2.8,4.7-4.6c1.3,1.8,2.9,3.3,4.7,4.6c2.4,1.7,5.2,2.9,8,3.4s5.7,0.4,8.2-0.1   c5.3-1.2,9.2-4.3,11.6-7.6c2.3-3.3,3.2-6.6,3.4-8.8C288.5,364.95,288.5,364.05,288.4,363.45z"/>
</g>
<path style="fill:#FFFFFF;" d="M272.9,271.25c1.5,12.2,11,21.6,21.2,21.1s17.2-10.8,15.7-23s-11-21.6-21.2-21.1  C278.4,248.75,271.4,259.05,272.9,271.25z"/>
<path style="fill:#84DBFF;" d="M276,274.55c1,7.9,8.3,14,16.3,13.6s13.7-7.1,12.7-15.1c-1-7.9-8.3-14-16.3-13.6  S275,266.65,276,274.55z"/>
<path style="fill:#2B3B4E;" d="M283.1,274.15c0.5,4,4.2,7.1,8.2,6.9s6.9-3.6,6.4-7.6s-4.2-7.1-8.2-6.9S282.6,270.15,283.1,274.15z"/>
<path style="fill:#FFFFFF;" d="M284.8,264.95c-1.1,1.8-0.1,3.8,2.3,4.3c2.4,0.6,5.1-0.4,6.2-2.3c1.1-1.8,0.1-3.8-2.3-4.3  C288.7,262.05,285.9,263.15,284.8,264.95z"/>
<path style="fill:#324A5E;" d="M271.4,240.05c0,0,2.8-1.2,6.7-2.2c0.9-0.3,2-0.4,3.1-0.7c1.1-0.1,2.2-0.4,3.3-0.4  c1.1-0.1,2.3-0.1,3.5,0c1.2,0,2.4,0.3,3.5,0.4c1.2,0.3,2.4,0.4,3.5,0.8c1.1,0.5,2.4,0.6,3.4,1.1c1.1,0.4,2.2,0.9,3.3,1.3  c1,0.5,2,1,3,1.4c1.9,0.8,3.4,1.7,4.7,2.2c1.2,0.5,1.9,0.8,1.9,0.8s-0.3-0.7-0.9-1.8c-0.3-0.6-0.7-1.3-1.2-2  c-0.5-0.8-1.1-1.7-1.9-2.4c-0.8-0.8-1.6-1.8-2.5-2.7c-1-0.8-2.2-1.6-3.4-2.5c-1.2-0.9-2.6-1.4-4-2.1c-1.4-0.7-3.1-0.9-4.6-1.4  c-1.6-0.2-3.2-0.4-4.8-0.3c-1.6,0.1-3.2,0.3-4.6,0.8c-1.5,0.3-2.8,1-4,1.6c-1.2,0.7-2.3,1.4-3.2,2.1c-1.8,1.4-3,3-3.8,4.1  C271.6,239.35,271.4,240.05,271.4,240.05z"/>
<path style="fill:#FFFFFF;" d="M232.1,271.25c-1.5,12.2-11,21.6-21.2,21.1s-17.2-10.8-15.7-23s11-21.6,21.2-21.1  C226.6,248.75,233.6,259.05,232.1,271.25z"/>
<path style="fill:#84DBFF;" d="M229,274.55c-1,7.9-8.3,14-16.3,13.6s-13.7-7.1-12.7-15.1c1-7.9,8.3-14,16.3-13.6  S230,266.65,229,274.55z"/>
<path style="fill:#2B3B4E;" d="M221.9,274.15c-0.5,4-4.2,7.1-8.2,6.9s-6.9-3.6-6.4-7.6s4.2-7.1,8.2-6.9S222.4,270.15,221.9,274.15z"/>
<path style="fill:#FFFFFF;" d="M220.2,264.95c1.1,1.8,0.1,3.8-2.3,4.3c-2.4,0.6-5.1-0.4-6.2-2.3c-1.1-1.8-0.1-3.8,2.3-4.3  C216.3,262.05,219.1,263.15,220.2,264.95z"/>
<path style="fill:#324A5E;" d="M233.6,240.05c0,0-2.8-1.2-6.7-2.2c-0.9-0.3-2-0.4-3.1-0.7c-1.1-0.1-2.2-0.4-3.3-0.4  c-1.1-0.1-2.3-0.1-3.5,0c-1.2,0-2.4,0.3-3.5,0.4c-1.2,0.3-2.4,0.4-3.5,0.8c-1.1,0.5-2.4,0.6-3.4,1.1c-1.1,0.4-2.2,0.9-3.3,1.3  c-1,0.5-2,1-3,1.4c-1.9,0.8-3.4,1.7-4.7,2.2c-1.2,0.5-1.9,0.8-1.9,0.8s0.3-0.7,0.9-1.8c0.3-0.6,0.7-1.3,1.2-2  c0.5-0.8,1.1-1.7,1.9-2.4c0.8-0.8,1.6-1.8,2.5-2.7c1-0.8,2.2-1.6,3.4-2.5s2.6-1.4,4-2.1c1.4-0.7,3.1-0.9,4.6-1.4  c1.6-0.2,3.2-0.4,4.8-0.3c1.6,0.1,3.2,0.3,4.6,0.8c1.5,0.3,2.8,1,4,1.6c1.2,0.7,2.3,1.4,3.2,2.1c1.8,1.4,3,3,3.8,4.1  C233.4,239.35,233.6,240.05,233.6,240.05z"/>
<g>
</g>
<g>
</g>
<g>
</g>
<g>
</g>
<g>
</g>
<g>
</g>
<g>
</g>
<g>
</g>
<g>
</g>
<g>
</g>
<g>
</g>
<g>
</g>
<g>
</g>
<g>
</g>
<g>
</g>
</svg>
