<?xml version="1.0" encoding="iso-8859-1"?>
<!-- Generator: Adobe Illustrator 19.0.0, SVG Export Plug-In . SVG Version: 6.00 Build 0)  -->
<svg xmlns="http://www.w3.org/2000/svg" xmlns:xlink="http://www.w3.org/1999/xlink" version="1.1" id="Layer_1" x="0px" y="0px" viewBox="0 0 504.4 504.4" style="enable-background:new 0 0 504.4 504.4;" xml:space="preserve">
<g>
	<path style="fill:#FD8469;" d="M504.4,252.2c0,123.6-88.9,226.4-206.2,248c-14.9,2.8-30.3,4.2-46,4.2s-31.1-1.4-46-4.2   C88.9,478.6,0,375.8,0,252.2C0,112.9,112.9,0,252.2,0S504.4,112.9,504.4,252.2z"/>
	<circle style="fill:#FD8469;" cx="252.2" cy="252.2" r="252.2"/>
</g>
<path style="fill:#E6E9EE;" d="M440.7,178.3c-0.6,6.3-5.8,11.2-11,14.8c-8.5,6-17.8,10.7-27.1,15.4c-2.6,1.3-5.1,2.6-7.7,3.9  c-3.1,1.5-6.2,3.1-9.3,4.7c-1.5,0.7-2.9,1.5-4.4,2.1c0.5,8.3,0.7,16.6,0.3,24.9c-1.3,26.4,0.5,51.5,0.8,77.9  c0.1,9.3,0.2,18.8,2.4,27.8l2.2,9.6c9.4,27.6,19,55.8,32.5,81.5c-44.5,39.4-103,63.4-167.2,63.4c-64.1,0-122.7-23.9-167.1-63.4  c13.4-25.8,23.1-53.9,32.5-81.5l2.2-9.6c2.2-9.1,2.3-18.5,2.4-27.8c0.3-26.5,2.1-51.5,0.8-77.9c-0.4-8.3-0.2-16.6,0.3-24.9  c-1.5-0.7-3-1.4-4.4-2.1c-3.1-1.5-6.2-3.1-9.3-4.7c-2.6-1.3-5.1-2.6-7.7-3.9c-9.3-4.7-18.6-9.4-27.1-15.4c-5.2-3.7-10.4-8.5-11-14.8  c-0.4-4,1.3-8.1,4.3-10.8c2-1.7,4.4-2.7,6.8-3.6c12.4-4.5,25.9-6.2,39-4.6c4.1,0.4,8.2,1.2,12,2.9c1.3,0.6,2.6,1.3,3.9,2  c1.1-8,2.1-16.3,9.7-19.9c9.3-4.4,13.8-17.1,23.9-19.1c2.6-0.5,5.3-0.2,7.8-0.9c2.8-0.7,5.2-2.6,6.7-5.1c-1.9-2.7-6.1-2.3-9.1-0.8  c-3,1.4-5.9,3.6-9.2,3.4c7.4-10.2,18.2-17.8,30.3-21.4c4-1.1,8.2-1.9,12.2-0.7c3.3,0.9,6.3,3.2,9.7,3c-2.1-2.8-4.3-5.8-7.2-7.8  s-6.6-3.2-10-2c13.8-9.8,34-9.1,47.1,1.6c0.5-5.6-1.8-11.4-6-15.2c5.9,4.5,11.4,9.5,16.4,14.9c5-5.4,10.6-10.4,16.5-14.9  c-4.2,3.7-6.5,9.5-6,15.2c13.2-10.7,33.3-11.4,47.1-1.6c-3.3-1.1-7.1,0-10,2s-5,5-7.2,7.8c3.4,0.1,6.4-2.1,9.7-3  c4-1.1,8.2-0.4,12.2,0.7c12.1,3.5,22.9,11.2,30.3,21.4c-5.1,2.7-15.9-7.8-18.3-2.6c6.3-0.2,27.2,8.2,38.4,25  c4.7,7.1,8.6,11.9,9.8,19.9c1.3-0.7,2.6-1.4,3.9-2c3.8-1.7,7.9-2.4,12-2.9c13.2-1.5,26.6,0.1,39,4.6c2.4,0.9,4.8,1.9,6.8,3.6  C439.4,170.2,441.1,174.3,440.7,178.3z"/>
<path style="fill:#FFFFFF;" d="M342.2,194c-10.4-20.9-33.1-22.4-54.3-6.2c-11.4,8.7-23.6,13.2-35.7,13.2c-12.2,0-24.3-4.4-35.7-13.2  c-21.2-16.3-43.9-14.8-54.3,6.2c-9.1,18.3-5.4,45.2,6.2,67.4c2.1,4,4.1,7.9,6,11.8c10.2,20.6,17,40.7,19.8,59.3  c-0.5,1-1,2.1-1.4,3.1c-4.4,11.8-0.8,23.6,8.2,31c7.5,13.8,27.5,23.7,51.1,23.7c23.6,0,43.6-9.9,51.1-23.7c9-7.4,12.7-19.2,8.2-31  c-0.4-1.1-0.9-2.1-1.4-3.1c2.8-18.5,9.6-38.7,19.8-59.3c1.9-3.9,3.9-7.8,6-11.8C347.7,239.2,351.4,212.4,342.2,194z"/>
<path style="fill:#324A5E;" d="M291.1,353.5c0,0-9.8,22.8-39,22.6c-29.1,0.2-38.9-22.6-38.9-22.6c13.4,13.6,38.9,7,38.9,7  S277.8,367.1,291.1,353.5z"/>
<ellipse style="fill:#2B3B4E;" cx="317.7" cy="215.6" rx="15" ry="11.2"/>
<ellipse style="fill:#FFD05B;" cx="317.7" cy="215.6" rx="11.1" ry="11.2"/>
<g>
	<ellipse style="fill:#324A5E;" cx="317.7" cy="215.6" rx="6.9" ry="4.1"/>
	<path style="fill:#324A5E;" d="M330.6,208.7c0,0-0.7-0.5-2-1.1c-0.6-0.3-1.4-0.7-2.3-1c-0.9-0.4-1.9-0.7-3-0.9   c-0.5-0.2-1.1-0.2-1.7-0.3s-1.2-0.2-1.8-0.1c-1.3-0.1-2.5,0.3-3.8,0.6c-1.2,0.5-2.5,1-3.7,1.9c-1.3,0.7-2.2,1.8-3.3,2.8   c-1.1,1-1.9,2.4-2.9,3.5c-0.9,1.2-1.6,2.6-2.4,3.8c-1.6,2.5-2.7,5.1-4,7.1c-2,4.4-3.7,7.3-3.7,7.3s0.4-3.3,1.5-8.1   c0.4-1.2,0.8-2.5,1.3-3.8s0.9-2.8,1.7-4.2c0.8-1.4,1.4-2.9,2.4-4.3c1.1-1.3,1.9-2.8,3.2-4.1c1.3-1.2,2.5-2.5,4.1-3.3   c1.4-1.1,3.2-1.5,4.8-2c1.7-0.3,3.4-0.4,4.9-0.1c1.5,0.1,2.9,0.7,4.1,1.2s2.2,1.2,3,1.8s1.5,1.2,2,1.7   C330.1,208,330.6,208.7,330.6,208.7z"/>
</g>
<ellipse style="fill:#2B3B4E;" cx="186.7" cy="215.6" rx="15" ry="11.2"/>
<ellipse style="fill:#FFD05B;" cx="186.7" cy="215.6" rx="11.1" ry="11.2"/>
<g>
	<ellipse style="fill:#324A5E;" cx="186.7" cy="215.6" rx="6.9" ry="4.1"/>
	<path style="fill:#324A5E;" d="M173.8,208.7c0,0,0.5-0.7,1.5-1.7c0.5-0.5,1.2-1.1,2-1.7c0.8-0.6,1.8-1.2,3-1.8   c1.2-0.5,2.6-1.1,4.1-1.2c1.5-0.3,3.2-0.1,4.9,0.1c1.6,0.5,3.4,1,4.8,2c1.6,0.8,2.8,2.1,4.1,3.3s2.1,2.7,3.2,4.1   c1,1.4,1.6,2.9,2.4,4.3c0.8,1.4,1.2,2.8,1.7,4.2c0.5,1.3,0.9,2.6,1.3,3.8c1.2,4.8,1.5,8.1,1.5,8.1s-1.7-2.9-3.7-7.3   c-1.3-2.1-2.4-4.7-4-7.1c-0.8-1.2-1.6-2.6-2.4-3.8c-1-1.1-1.8-2.5-2.9-3.5c-1.1-1-2.1-2.2-3.3-2.8c-1.1-0.9-2.4-1.4-3.7-1.9   c-1.3-0.2-2.6-0.6-3.8-0.6c-0.6-0.1-1.2,0-1.8,0.1s-1.2,0.1-1.7,0.3c-1.1,0.3-2.1,0.6-3,0.9c-0.9,0.4-1.7,0.7-2.3,1   C174.5,208.2,173.8,208.7,173.8,208.7z"/>
</g>
<g>
	<path style="fill:#CED5E0;" d="M429.8,183c0.4-1.8-0.4-3.7-1.6-5.3c-4.9-6.5-15-8.3-24-8.7c-9.3-0.4-18.6-0.2-27.8,0.9   c-1.7,0.2-3.5,0.4-5,1.1c-2.6,1.2-4.2,3.4-5.7,5.6c-2.6,3.8-5.3,7.7-7.9,11.5c2.9,0.3,5.9-0.4,8.1-2c-2.5,3.5-5,7-7.5,10.5   c-1.3,1.9-2.7,3.9-2.9,6.1c3.8-1.8,7.5-3.7,11.3-5.5c-3.5,6.2-5.6,13.1-6.1,20c7.4-3.1,14.9-6.3,22.9-8c2.9-0.6,5.8-1,8.4-2.2   c2.8-1.3,5-3.5,7.7-5c2.6-1.4,5.7-2,8.5-2.9c7.8-2.4,14.8-6.9,19.6-12.8C428.7,185.2,429.5,184.2,429.8,183z"/>
	<path style="fill:#CED5E0;" d="M74.6,183c-0.4-1.8,0.4-3.7,1.6-5.3c4.9-6.5,15-8.3,24-8.7c9.3-0.4,18.6-0.2,27.8,0.9   c1.7,0.2,3.5,0.4,5,1.1c2.6,1.2,4.2,3.4,5.7,5.6c2.6,3.8,5.3,7.7,7.9,11.5c-2.9,0.3-5.9-0.4-8.1-2c2.5,3.5,5,7,7.5,10.5   c1.3,1.9,2.7,3.9,2.9,6.1c-3.8-1.8-7.5-3.7-11.3-5.5c3.5,6.2,5.6,13.1,6.1,20c-7.4-3.1-14.9-6.3-22.9-8c-2.9-0.6-5.8-1-8.4-2.2   c-2.8-1.3-5-3.5-7.7-5c-2.6-1.4-5.7-2-8.5-2.9c-7.8-2.4-14.8-6.9-19.6-12.8C75.7,185.2,74.9,184.2,74.6,183z"/>
</g>
<path style="fill:#324A5E;" d="M263.1,338.4c-4.8,1.7-8.7,5.2-10.7,9.9l-0.1,0.3l-0.2-0.3c-2-4.7-5.9-8.2-10.7-9.9  c-27.6-9.7-18.5-27.1-18.5-27.1c4.8,10.9,29.3,5.8,29.3,5.8s24.5,5.1,29.3-5.8C281.5,311.2,290.6,328.7,263.1,338.4z"/>
<path style="fill:#CED5E0;" d="M333.9,146.1c3.5,2.6,1.4,8.1-1,11.8c-5.3,8.2-10.5,16.3-15.8,24.4c-0.8-2.3-0.7-5,0.4-7.2  c-4.5,1.8-6.6,6.7-9.6,10.6c-6.4,8.4-16.8,11.8-27.3,14c-1.8,1.3-4.1,1.9-6.2,1.4c-6.8,4.4-14.1,7.9-21.8,10.3  c-7.7-2.4-15-5.9-21.8-10.3c-2.2,0.5-4.4-0.1-6.2-1.4c-10.5-2.2-21-5.7-27.3-14c-2.9-3.9-5.1-8.8-9.6-10.6c1.1,2.2,1.2,4.9,0.4,7.2  c-5.3-8.2-10.5-16.3-15.8-24.4c-2.4-3.7-4.5-9.2-0.9-11.8c-4.4,0-8.7,0-13,0.1c6.3-6.9,14.2-12.2,22.9-15.5  c-3.5,0.9-7.2,0.9-10.8,0.2c10.1-8.4,22.4-14.1,35.4-16.3c-3.8-1.6-8-2.2-12.1-1.8c9.3-2.2,18.6-4.4,28-6.5  c-1.3-1.5-2.9-2.7-4.7-3.6c4.9,0,9.8,0.1,14.7,0.1c1.5,0,3.1,0,4.4-0.8c1.3-0.8,2.1-2.6,1.2-3.8c5,0.9,10,1.8,15,2.7h0.8  c5-0.9,10-1.8,15-2.7c-0.9,1.2-0.1,3.1,1.2,3.8c1.3,0.8,2.9,0.8,4.4,0.8c4.9,0,9.8-0.1,14.7-0.1c-1.8,0.9-3.4,2.2-4.7,3.6  c9.3,2.2,18.7,4.4,28,6.5c-4.1-0.4-8.3,0.2-12.1,1.8c13,2.2,25.3,7.9,35.4,16.3c-3.5,0.8-7.3,0.7-10.8-0.2c8.7,3.3,16.7,8.6,23,15.5  C342.7,146.1,338.3,146.1,333.9,146.1z"/>
<g>
</g>
<g>
</g>
<g>
</g>
<g>
</g>
<g>
</g>
<g>
</g>
<g>
</g>
<g>
</g>
<g>
</g>
<g>
</g>
<g>
</g>
<g>
</g>
<g>
</g>
<g>
</g>
<g>
</g>
</svg>
