<?xml version="1.0" encoding="iso-8859-1"?>
<!-- Generator: Adobe Illustrator 19.0.0, SVG Export Plug-In . SVG Version: 6.00 Build 0)  -->
<svg xmlns="http://www.w3.org/2000/svg" xmlns:xlink="http://www.w3.org/1999/xlink" version="1.1" id="Layer_1" x="0px" y="0px" viewBox="0 0 505 505" style="enable-background:new 0 0 505 505;" xml:space="preserve">
<circle style="fill:#84DBFF;" cx="252.5" cy="252.5" r="252.5"/>
<path style="fill:#ACB3BA;" d="M358.3,214.8l-22.8-43.3l-7.4-14c43.4-14.1,43.4-65,88.8-41.2C416.9,116.4,423.3,200.6,358.3,214.8z"/>
<path style="fill:#E6E9EE;" d="M416.9,116.4c0,0-37.3,0.7-35,38.5c0,0-5.5,29.9-45.3,17.6l-1.1-0.9l-7.4-14  C371.4,143.5,371.4,92.6,416.9,116.4z"/>
<path style="fill:#ACB3BA;" d="M146.7,214.8l22.8-43.3l7.4-14c-43.4-14.1-43.4-65-88.8-41.2C88.1,116.4,81.7,200.6,146.7,214.8z"/>
<g>
	<path style="fill:#E6E9EE;" d="M88.1,116.4c0,0,37.3,0.7,35,38.5c0,0,5.5,29.9,45.3,17.6l1.1-0.9l7.4-14   C133.6,143.5,133.6,92.6,88.1,116.4z"/>
	<path style="fill:#E6E9EE;" d="M347.3,327.8c-2.8-23.3,1.6-26,12.7-47.7c11.9-23.3,18.7-48.6,18.7-71.3c0-42.4-53.3-65.3-90.6-76.1   c-23.2-6.7-47.9-6.7-71.1,0c-37.3,10.8-90.6,33.7-90.6,76.1c0,22.7,6.8,48,18.7,71.3c11,21.7,15.5,24.4,12.7,47.7l0,0   c-5.2,42.8,33.8,103.4,87.7,106.4c59.7,3.4,107.8-57.3,102.2-103.8L347.3,327.8z"/>
</g>
<path style="fill:#CED5E0;" d="M308.2,367.3l-28.8-55.5h-26.9h-26.8l-28.8,55.5c-4.3,8.3-1.7,18.7,6,23.8l23.3,15.3  c11.5,7.5,26.3-1.1,26.3-15.2c0,14.1,14.9,22.7,26.3,15.2l23.3-15.3C309.9,386,312.5,375.6,308.2,367.3z"/>
<path style="fill:#ACB3BA;" d="M205.6,266.9c0.6,44.7,21.3,80.7,46.9,80.7s46.3-36,46.9-80.7L205.6,266.9L205.6,266.9z"/>
<path style="fill:#CED5E0;" d="M299.4,264.9c0,4.3-0.2,8.6-0.6,12.8c-13.1-3.8-31.7,10.2-44.1,34.1c-0.8,1.6-1.6,3.1-2.3,4.7  c-0.7-1.6-1.5-3.1-2.3-4.7c-12.3-23.9-31-37.9-44.1-34.1c-0.4-4.2-0.6-8.4-0.6-12.8c0-32.9,24.3-61.3,37.9-74.7  c5.2-5.1,12.8-5.1,18,0C275.1,203.6,299.4,232,299.4,264.9z"/>
<path style="fill:#FFFFFF;" d="M304.7,216.3c1.4,11.5,10.4,20.5,20.1,20c9.6-0.5,16.3-10.2,14.8-21.8c-1.4-11.5-10.4-20.5-20.1-20  C309.9,195.1,303.3,204.8,304.7,216.3z"/>
<path style="fill:#F9B54C;" d="M307.6,219.5c0.9,7.5,7.8,13.2,15.4,12.9c7.6-0.4,12.9-6.8,12-14.2c-0.9-7.5-7.8-13.2-15.4-12.9  S306.7,212,307.6,219.5z"/>
<path style="fill:#2B3B4E;" d="M314.4,219.1c0.5,3.8,4,6.7,7.8,6.5s6.6-3.4,6.1-7.2s-4-6.7-7.8-6.5  C316.6,212.1,313.9,215.3,314.4,219.1z"/>
<path style="fill:#FFFFFF;" d="M316,210.4c-1,1.7-0.1,3.6,2.2,4.1c2.2,0.5,4.9-0.4,5.9-2.1c1-1.7,0.1-3.6-2.2-4.1  C319.6,207.7,317,208.6,316,210.4z"/>
<path style="fill:#324A5E;" d="M303.3,186.8c0,0,2.7-1.2,6.3-2.1c0.9-0.3,1.9-0.4,2.9-0.6c1-0.1,2.1-0.3,3.2-0.3  c1.1-0.1,2.2,0,3.3,0c1.1,0,2.2,0.2,3.3,0.4c1.1,0.3,2.2,0.4,3.3,0.8c1.1,0.4,2.2,0.6,3.3,1.1c1.1,0.4,2.1,0.8,3.1,1.2  c1,0.5,1.9,0.9,2.8,1.3c1.8,0.7,3.3,1.6,4.4,2.1s1.8,0.7,1.8,0.7s-0.3-0.7-0.9-1.7c-0.3-0.5-0.7-1.2-1.2-1.9s-1-1.6-1.8-2.3  c-0.7-0.8-1.5-1.7-2.4-2.5s-2-1.6-3.2-2.3c-1.1-0.8-2.5-1.3-3.8-2c-1.3-0.6-2.9-0.9-4.4-1.3c-1.5-0.2-3.1-0.4-4.6-0.3  c-1.5,0.1-3,0.3-4.4,0.7c-1.4,0.3-2.6,1-3.8,1.5c-1.1,0.7-2.2,1.3-3,2c-1.7,1.3-2.9,2.8-3.6,3.9  C303.5,186.1,303.3,186.8,303.3,186.8z"/>
<path style="fill:#FFFFFF;" d="M200.3,216.3c-1.4,11.5-10.4,20.5-20.1,20c-9.6-0.5-16.3-10.2-14.8-21.8c1.4-11.5,10.4-20.5,20.1-20  C195.1,195.1,201.7,204.8,200.3,216.3z"/>
<path style="fill:#F9B54C;" d="M197.4,219.5c-0.9,7.5-7.8,13.2-15.4,12.9c-7.6-0.4-12.9-6.8-12-14.2c0.9-7.5,7.8-13.2,15.4-12.9  C193,205.6,198.3,212,197.4,219.5z"/>
<path style="fill:#2B3B4E;" d="M190.6,219.1c-0.5,3.8-4,6.7-7.8,6.5s-6.6-3.4-6.1-7.2s4-6.7,7.8-6.5  C188.4,212.1,191.1,215.3,190.6,219.1z"/>
<path style="fill:#FFFFFF;" d="M189,210.4c1,1.7,0.1,3.6-2.2,4.1c-2.2,0.5-4.9-0.4-5.9-2.1c-1-1.7-0.1-3.6,2.2-4.1  S188,208.6,189,210.4z"/>
<path style="fill:#324A5E;" d="M201.7,186.8c0,0-2.7-1.2-6.3-2.1c-0.9-0.3-1.9-0.4-2.9-0.6c-1-0.1-2.1-0.3-3.2-0.3  c-1.1-0.1-2.2,0-3.3,0s-2.2,0.2-3.3,0.4c-1.1,0.3-2.2,0.4-3.3,0.8c-1.1,0.4-2.2,0.6-3.3,1.1c-1.1,0.4-2.1,0.8-3.1,1.2  c-1,0.5-1.9,0.9-2.8,1.3c-1.8,0.7-3.3,1.6-4.4,2.1c-1.1,0.5-1.8,0.7-1.8,0.7s0.3-0.7,0.9-1.7c0.3-0.5,0.7-1.2,1.2-1.9s1-1.6,1.8-2.3  c0.7-0.8,1.5-1.7,2.4-2.5s2-1.6,3.2-2.3c1.1-0.8,2.5-1.3,3.8-2c1.3-0.6,2.9-0.9,4.4-1.3c1.5-0.2,3.1-0.4,4.6-0.3  c1.5,0.1,3,0.3,4.4,0.7c1.4,0.3,2.6,1,3.8,1.5c1.1,0.7,2.2,1.3,3,2c1.7,1.3,2.9,2.8,3.6,3.9C201.5,186.1,201.7,186.8,201.7,186.8z"/>
<g>
</g>
<g>
</g>
<g>
</g>
<g>
</g>
<g>
</g>
<g>
</g>
<g>
</g>
<g>
</g>
<g>
</g>
<g>
</g>
<g>
</g>
<g>
</g>
<g>
</g>
<g>
</g>
<g>
</g>
</svg>
