<?xml version="1.0" encoding="iso-8859-1"?>
<!-- Generator: Adobe Illustrator 19.0.0, SVG Export Plug-In . SVG Version: 6.00 Build 0)  -->
<svg xmlns="http://www.w3.org/2000/svg" xmlns:xlink="http://www.w3.org/1999/xlink" version="1.1" id="Layer_1" x="0px" y="0px" viewBox="0 0 505 505" style="enable-background:new 0 0 505 505;" xml:space="preserve">
<circle style="fill:#90DFAA;" cx="252.5" cy="252.5" r="252.5"/>
<g>
	<path style="fill:#324A5E;" d="M252.9,121.6c-0.1-0.7-0.2-1.4-0.5-2C252.2,120.2,252.5,120.9,252.9,121.6z"/>
	<path style="fill:#324A5E;" d="M301.2,141.3c-1.6-0.4-3.7-0.5-5.5-0.8c-7-0.9-10.1-3.9-10.8-6.5c-0.7-2.6-0.1-5.4-3.2-7.8   c-0.8,2.4-1.8,4.8-3.2,7.2c-0.3,0.4-1.9,1-2.4,0.6c-5.3-3.2-7.8-7-7.1-10.7c-1.7,3.6-3.3,7.2-5,10.7c-5.1-3.9-7.4-8.2-6.8-12.4   c-0.4,0.6-1,1.3-1.5,1.9c-0.2,0.2-0.3,0.5-0.5,0.7c-0.2-0.2-0.3-0.5-0.5-0.7c-0.5-0.6-1.1-1.3-1.5-1.9c0.6,4.3-1.7,8.6-6.8,12.4   c-1.7-3.6-3.3-7.2-5-10.7c0.7,3.7-1.8,7.5-7.1,10.7c-0.5,0.4-2.1-0.1-2.4-0.6c-1.4-2.4-2.4-4.8-3.2-7.2c-3.1,2.4-2.5,5.2-3.2,7.8   s-3.8,5.6-10.8,6.5c-1.9,0.2-3.9,0.3-5.5,0.8c-1.6,0.4-2.3,1.4-0.7,1.8c11.8-0.2,23.5-0.7,35.1-1.5c2.9-0.2,6-0.4,8.1-1.2   c1.8-0.6,2.7-1.5,3.4-2.3c0.1-0.1,0.2-0.3,0.3-0.5c0.1,0.2,0.2,0.3,0.3,0.5c0.7,0.9,1.6,1.7,3.4,2.3c2.1,0.7,5.2,1,8.1,1.2   c11.6,0.8,23.3,1.3,35.1,1.5C303.4,142.7,302.7,141.7,301.2,141.3z"/>
	<path style="fill:#324A5E;" d="M257.6,119.6c-0.2,0.7-0.4,1.3-0.5,2C257.5,120.9,257.8,120.2,257.6,119.6z"/>
</g>
<g>
	<path style="fill:#F1543F;" d="M309.8,189.5L309.8,189.5c50.8,0,92-39.8,92-88.9C350.9,100.6,309.8,140.4,309.8,189.5z"/>
	<path style="fill:#F1543F;" d="M195.2,189.5L195.2,189.5c-50.8,0-92-39.8-92-88.9C154.1,100.6,195.2,140.4,195.2,189.5z"/>
</g>
<g>
	<path style="fill:#FFFFFF;" d="M314.9,347.2c0,0,0,0,0,0.1C314.9,347.4,314.9,347.6,314.9,347.2c-0.1-0.2-0.2-0.5-0.3-0.8   c-0.1-0.3-0.1-0.2-0.2-0.3c-0.3-0.2-0.5-0.1-0.6,0.3c-0.3,0.7-0.4,2.6,2.8,5.2c1.7,1.2,4.1,2.6,7.3,3.6c3.2,1,7.1,1.8,11.4,2.2   l3.3,0.3l0.8,0.1h0.4h0.2h0.1c0.8-0.1-1.1,0.2-0.8,0.1h0.1l2-0.1l2-0.1c0.5,0,0.4,0,0.7,0c0.3,0.1,0.9,0.1,1.5,0   c2.4-0.3,4.5-1,6.8-3.8c2.3-2.7,4.2-6.9,5.7-11.5s2.7-9.7,3.9-14.7c2.4-10,4.7-20.1,9.7-27.9c2.4-3.9,5.6-7,8.9-8.7   c3.2-1.9,6.3-2.5,8.7-2.8c2.5-0.2,4.4-0.2,5.7-0.1c1.3,0.1,2,0.1,2,0.1s-0.7,0.1-1.9,0.4c-1.3,0.2-3.1,0.7-5.2,1.5   c-2.1,0.9-4.6,2.2-6.6,4.4c-2.1,2.1-3.8,5-4.8,8.4c-2.1,7-1.8,16.1-1.4,26.2c0.2,5.1,0.4,10.5,0.1,16.4s-1,12.3-3.8,19.3   c-1.3,3.5-3.4,7-6.1,10.3c-2.8,3.1-6.2,6.1-9.8,8.1c-1.7,1.1-3.7,2-5.9,2.8l-3.1,1.1l-1.9,0.6l-1.9,0.6l-1.4,0.2l-0.5,0.1l-1.1,0.2   c-1.5,0.3-2.9,0.6-4.4,0.9c-5.8,1.1-11.8,1.7-17.9,1.5c-6-0.1-12.2-1-18-2.7c-5.9-1.9-11.5-4.7-16.1-8.2   c-4.6-3.6-8.2-7.5-10.7-11.3c-2.5-3.7-4.1-7.1-5.1-9.7c-0.3-0.7-0.4-1.1-0.6-1.9s-0.4-1.5-0.5-2c-0.2-0.7-0.2-0.7-0.2-0.8   c0-0.1,0-0.1,0-0.1L314.9,347.2z"/>
	<path style="fill:#FFFFFF;" d="M237,354.7c0,0,0,0,0,0.1s0,0.1-0.2,0.8c-0.1,0.5-0.3,1.2-0.5,2c-0.2,0.7-0.4,1.2-0.6,1.9   c-1,2.7-2.5,6-5.1,9.7c-2.5,3.8-6.1,7.7-10.7,11.3c-4.6,3.5-10.2,6.3-16.1,8.2c-5.9,1.8-12,2.7-18,2.7c-6,0.1-12-0.5-17.9-1.5   c-1.4-0.3-2.9-0.6-4.4-0.9l-1.1-0.2l-0.5-0.1l-1.4-0.2l-1.9-0.6l-1.9-0.6l-3.1-1.1c-2.2-0.8-4.2-1.7-5.9-2.8c-3.6-2-7-4.9-9.8-8.1   c-2.6-3.3-4.8-6.8-6.1-10.3c-2.8-7-3.5-13.4-3.8-19.3s0-11.3,0.1-16.4c0.4-10.2,0.7-19.2-1.4-26.2c-1-3.5-2.7-6.3-4.8-8.4   c-2-2.2-4.5-3.5-6.6-4.4c-2.2-0.8-3.9-1.3-5.2-1.5c-1.3-0.3-1.9-0.4-1.9-0.4s0.7,0,2-0.1c1.3-0.2,3.2-0.2,5.7,0.1   c2.4,0.3,5.6,0.9,8.7,2.8c3.2,1.8,6.4,4.9,8.9,8.7c5,7.8,7.3,18,9.7,27.9c1.2,5,2.4,10,3.9,14.7c1.5,4.6,3.5,8.8,5.7,11.5   c2.3,2.8,4.4,3.5,6.8,3.8c0.6,0.2,1.1,0.1,1.5,0c0.3,0,0.2,0,0.7,0l2,0.1l2,0.1h0.1c0.2,0-1.7-0.2-0.8-0.1h0.1h0.2h0.4l0.8-0.1   l3.3-0.3c4.3-0.4,8.2-1.2,11.4-2.2s5.6-2.4,7.3-3.6c3.2-2.7,3.1-4.5,2.8-5.2c-0.2-0.4-0.4-0.5-0.6-0.3c-0.1,0.1-0.1,0-0.2,0.3   c-0.1,0.3-0.2,0.6-0.3,0.8c-0.1,0.4-0.1,0.2-0.1,0.1s0-0.1,0-0.1L237,354.7z"/>
</g>
<path style="fill:#FF7058;" d="M354.1,203.7c5.3,70.7-37.2,199.3-101.6,199.3S145.6,274.4,150.9,203.7c4.8-64,48.2-66.2,101.6-66.2  C305.8,137.5,349.2,139.7,354.1,203.7z"/>
<ellipse style="fill:#F1543F;" cx="252.5" cy="388.2" rx="62" ry="56.9"/>
<g>
	<ellipse style="fill:#324A5E;" cx="275.9" cy="388.2" rx="10.6" ry="17.1"/>
	<ellipse style="fill:#324A5E;" cx="229.1" cy="388.2" rx="10.6" ry="17.1"/>
</g>
<path style="fill:#FFFFFF;" d="M280.6,235.2c1.7,13.3,12,23.6,23.1,23.1c11.1-0.6,18.8-11.8,17.1-25.1c-1.7-13.3-12-23.6-23.1-23.1  S278.9,221.9,280.6,235.2z"/>
<path style="fill:#F9B54C;" d="M283.9,238.9c1.1,8.6,9,15.3,17.7,14.8c8.7-0.4,14.9-7.8,13.8-16.4c-1.1-8.6-9-15.3-17.7-14.8  C289,222.9,282.8,230.2,283.9,238.9z"/>
<path style="fill:#2B3B4E;" d="M291.7,238.5c0.5,4.4,4.6,7.7,9,7.5s7.6-4,7-8.3c-0.5-4.4-4.6-7.7-9-7.5  C294.3,230.4,291.2,234.1,291.7,238.5z"/>
<path style="fill:#FFFFFF;" d="M293.5,228.4c-1.2,2-0.1,4.1,2.5,4.7c2.6,0.6,5.6-0.5,6.8-2.5c1.2-2,0.1-4.1-2.5-4.7  S294.7,226.4,293.5,228.4z"/>
<path style="fill:#324A5E;" d="M278.9,201.2c0,0,3.1-1.3,7.3-2.4c1-0.3,2.2-0.4,3.4-0.7c1.2-0.1,2.4-0.4,3.7-0.4  c1.2-0.1,2.5-0.1,3.8,0c1.3,0,2.6,0.3,3.9,0.4c1.3,0.4,2.6,0.5,3.9,0.9c1.2,0.5,2.6,0.7,3.8,1.2c1.2,0.5,2.4,1,3.6,1.4  c1.1,0.6,2.2,1,3.3,1.5c2.1,0.9,3.8,1.9,5.1,2.4c1.3,0.6,2.1,0.8,2.1,0.8s-0.3-0.8-1-2c-0.4-0.6-0.8-1.4-1.3-2.2  c-0.5-0.9-1.2-1.8-2-2.7s-1.7-1.9-2.8-2.9c-1.1-0.9-2.4-1.8-3.7-2.7c-1.3-1-2.9-1.5-4.4-2.3c-1.5-0.7-3.3-1-5-1.5  c-1.8-0.2-3.5-0.4-5.3-0.3c-1.8,0.1-3.5,0.3-5.1,0.8c-1.6,0.3-3.1,1.1-4.4,1.7c-1.3,0.8-2.5,1.5-3.5,2.3c-2,1.6-3.3,3.3-4.1,4.5  C279.2,200.4,278.9,201.2,278.9,201.2z"/>
<path style="fill:#FFFFFF;" d="M224.4,235.2c-1.7,13.3-12,23.6-23.1,23.1c-11.1-0.6-18.8-11.8-17.1-25.1s12-23.6,23.1-23.1  C218.4,210.7,226.1,221.9,224.4,235.2z"/>
<path style="fill:#F9B54C;" d="M221.1,238.9c-1.1,8.6-9,15.3-17.7,14.8c-8.7-0.4-14.9-7.8-13.8-16.4c1.1-8.6,9-15.3,17.7-14.8  S222.2,230.2,221.1,238.9z"/>
<path style="fill:#2B3B4E;" d="M213.3,238.5c-0.5,4.4-4.6,7.7-9,7.5s-7.6-4-7-8.3c0.5-4.4,4.6-7.7,9-7.5S213.8,234.1,213.3,238.5z"/>
<path style="fill:#FFFFFF;" d="M211.5,228.4c1.2,2,0.1,4.1-2.5,4.7c-2.6,0.6-5.6-0.5-6.8-2.5s-0.1-4.1,2.5-4.7  C207.2,225.3,210.3,226.4,211.5,228.4z"/>
<path style="fill:#324A5E;" d="M226.1,201.2c0,0-3.1-1.3-7.3-2.4c-1-0.3-2.2-0.4-3.4-0.7c-1.2-0.1-2.4-0.4-3.7-0.4  c-1.2-0.1-2.5-0.1-3.8,0c-1.3,0-2.6,0.3-3.9,0.4c-1.3,0.4-2.6,0.5-3.9,0.9c-1.2,0.5-2.6,0.7-3.8,1.2s-2.4,1-3.6,1.4  c-1.1,0.6-2.2,1-3.3,1.5c-2.1,0.9-3.8,1.9-5.1,2.4c-1.3,0.6-2.1,0.8-2.1,0.8s0.3-0.8,1-2c0.4-0.6,0.8-1.4,1.3-2.2  c0.5-0.9,1.2-1.8,2-2.7s1.7-1.9,2.8-2.9c1.1-0.9,2.4-1.8,3.7-2.7c1.3-1,2.9-1.5,4.4-2.3c1.5-0.7,3.3-1,5-1.5  c1.8-0.2,3.5-0.4,5.3-0.3c1.8,0.1,3.5,0.3,5.1,0.8c1.6,0.3,3,1.1,4.4,1.7c1.3,0.8,2.5,1.5,3.5,2.3c2,1.6,3.3,3.3,4.1,4.5  C225.8,200.4,226.1,201.2,226.1,201.2z"/>
<g>
</g>
<g>
</g>
<g>
</g>
<g>
</g>
<g>
</g>
<g>
</g>
<g>
</g>
<g>
</g>
<g>
</g>
<g>
</g>
<g>
</g>
<g>
</g>
<g>
</g>
<g>
</g>
<g>
</g>
</svg>
