<?xml version="1.0" encoding="iso-8859-1"?>
<!-- Generator: Adobe Illustrator 19.0.0, SVG Export Plug-In . SVG Version: 6.00 Build 0)  -->
<svg xmlns="http://www.w3.org/2000/svg" xmlns:xlink="http://www.w3.org/1999/xlink" version="1.1" id="Layer_1" x="0px" y="0px" viewBox="0 0 505 505" style="enable-background:new 0 0 505 505;" xml:space="preserve">
<circle style="fill:#84DBFF;" cx="252.5" cy="252.5" r="252.5"/>
<path style="fill:#2B3B4E;" d="M386.1,357.3c0,0-57.1,75.9-62.3,137.4c-4,1.2-8,2.2-12,3.2c-1.7,0.5-3.5,0.9-5.2,1.2  c-17.4,3.8-35.6,5.8-54.2,5.8c-21.5,0-42.3-2.7-62.3-7.8c-3.1-0.8-6.1-1.6-9.2-2.5c-5.2-61.5-62.3-137.4-62.3-137.4  C0.2,150.9,178,83.8,186.2,80.9c0.2,0,0.2-0.1,0.3-0.1c0,0,10.6-1.9,27.3-3c0.4,0,0.7,0,1.1-0.1c8.9-0.6,19.6-0.8,31.2-0.4  l-0.3,282.2h13.4l-0.3-282.2c11.6-0.4,22.3-0.1,31.2,0.4c0.4,0,0.7,0,1.1,0.1c16.7,1,27.3,3,27.3,3c0.1,0,0.2,0.1,0.3,0.1  C327,83.8,504.7,150.9,386.1,357.3z"/>
<path style="fill:#324A5E;" d="M309.4,368.3c0,0-30.7,81.2-2.7,130.9c-17.4,3.8-35.6,5.8-54.2,5.8c-21.5,0-42.3-2.7-62.3-7.8  c-3-12.5-1.5-21.4-1.5-21.4c0.4-1.7,0.7-3.3,1.1-4.9c0.2-1.1,0.5-2.2,0.7-3.4c1.1-5.4,2-10.5,2.7-15.5c0.4-2.2,0.7-4.5,0.9-6.6  c0.5-4.1,0.9-8,1.2-11.8c0.1-1,0.2-2.1,0.2-3.1c0-0.8,0.1-1.5,0.1-2.3c0.1-1.2,0.1-2.4,0.2-3.7c0-0.2,0-0.4,0-0.5  c0.1-3.6,0.6-7.1,1.5-10.6c3.7-15.6,8.2-32.8,13.3-51.7c0,0,13.2-68.8,1.7-131.9c-4.1-22.5-11.4-44.3-23.5-62l8.2-0.4l22.5-1.1  l1.1-0.1l27.9-1.4l8-0.4l29.9-1.5h0.4l25.4-1.3l4.3-0.2c0,0,0.6,5.4,1.3,14.9C320.3,210.5,324.6,297.3,309.4,368.3z"/>
<path style="fill:#CED5E0;" d="M320.6,133.1l-68-23.7l-68,23.7c0,0-19.9,14.9,0.5,40c8.5,10.4,15.2,22.1,19.7,34.8  c6.1,17,13.5,39.5,16,54.8c1,6,2.7,11.8,5.5,17.2c4.8,9.3,13.4,20,26.3,15.8c12.9,4.2,21.5-6.4,26.3-15.8c2.8-5.4,4.5-11.2,5.5-17.2  c2.5-15.3,9.9-37.7,16-54.8c4.5-12.6,11.3-24.3,19.7-34.8C340.5,148.1,320.6,133.1,320.6,133.1z"/>
<g>
	<path style="fill:#ACB3BA;" d="M308.8,166.7c-4.8,6.3-8.8,13.1-12.2,20.4l0,0c-1.6,3.5-3,7.1-4.3,10.8   c-5.1,15.3-11.2,35.5-13.3,49.2c-0.8,5.4-2.3,10.6-4.6,15.4c-4,8.4-11.2,18-21.9,14.2c-10.7,3.8-17.9-5.8-21.9-14.2   c-2.3-4.8-3.8-10.1-4.6-15.4c-2.1-13.7-8.2-33.9-13.3-49.2c-3.8-11.4-9.4-21.9-16.4-31.2c-17-22.5-0.4-35.9-0.4-35.9l56.6-21.3   l34.6,13l22,8.3C309.2,130.7,325.7,144.1,308.8,166.7z"/>
	<path style="fill:#ACB3BA;" d="M309.2,130.7l-56.6-21.3L196,130.7c0,0-16.6,13.4,0.4,35.9c7,9.4,12.7,19.9,16.4,31.2   c5.1,15.3,11.2,35.5,13.3,49.2c0.8,5.4,2.3,10.6,4.6,15.4c4,8.4,11.2,18,21.9,14.2c10.7,3.8,17.9-5.8,21.9-14.2   c2.3-4.8,3.8-10.1,4.6-15.4c2.1-13.7,8.2-33.9,13.3-49.2c3.8-11.4,9.4-21.9,16.4-31.2C325.7,144.1,309.2,130.7,309.2,130.7z"/>
</g>
<path style="fill:#324A5E;" d="M259.8,117.6h-14.5c-5.3,0-10.5,1.6-14.8,4.7c-10.4,7.5-19,19.1-13.6,35.8c0.2,0.5,0.4,1.1,0.6,1.6  c10.2,27.2,27.4,10.1,35.1,0.2c7.7,9.8,24.9,27,35.1-0.2c0.2-0.5,0.4-1.1,0.6-1.6c5.4-16.7-3.2-28.3-13.6-35.8  C270.3,119.2,265.1,117.6,259.8,117.6z"/>
<g>
	<path style="fill:#FFFFFF;" d="M293.2,119c0,0,0.1,0.3,0.2,0.8c0.2,0.6,0.4,1.4,0.5,2.3c0.4,1.9,0.8,4.5,1,7.6   c0.3,3.1,0.3,6.8,0.2,10.6c-0.3,3.9-0.7,7.9-1.6,11.9c-0.4,2-0.9,3.9-1.6,5.8c-0.5,1.9-1.3,3.7-2,5.4s-1.5,3.3-2.4,4.8   c-0.8,1.5-1.6,2.8-2.5,4c-0.8,1.2-1.5,2.3-2.3,3.2s-1.4,1.6-2,2.3c-1.1,1.2-1.7,1.9-1.7,1.9s0.4-0.9,1-2.4c0.3-0.8,0.7-1.7,1.1-2.7   c0.4-1.1,0.7-2.3,1.1-3.6s0.7-2.7,0.9-4.3c0.3-1.5,0.6-3.1,0.6-4.8c0.1-1.7,0.3-3.3,0.2-5.1c0-1.7-0.1-3.5-0.3-5.2   c-0.3-3.4-1.1-6.8-1.9-9.9c-0.9-3.1-1.9-5.8-3-8.1c-1-2.3-2-4.1-2.7-5.3c-0.4-0.6-0.6-1-0.8-1.2c-0.1-0.2-0.3-0.5-0.3-0.5   L293.2,119z"/>
	<path style="fill:#FFFFFF;" d="M230.2,126.6c0,0-0.2,0.3-0.3,0.5c-0.2,0.2-0.4,0.6-0.8,1.2c-0.7,1.2-1.7,3-2.7,5.3s-2,5.1-3,8.1   c-0.8,3.1-1.6,6.4-1.9,9.9c-0.2,1.7-0.3,3.5-0.3,5.2c-0.1,1.7,0,3.4,0.2,5.1c0.1,1.7,0.3,3.3,0.6,4.8c0.2,1.5,0.5,3,0.9,4.3   s0.7,2.6,1.1,3.6c0.4,1,0.8,2,1.1,2.7c0.6,1.5,1,2.4,1,2.4s-0.6-0.7-1.7-1.9c-0.5-0.6-1.2-1.4-2-2.3c-0.7-0.9-1.4-2-2.3-3.2   c-0.9-1.2-1.7-2.5-2.5-4s-1.7-3-2.4-4.8c-0.7-1.7-1.5-3.5-2-5.4c-0.7-1.9-1.2-3.8-1.6-5.8c-0.9-4-1.4-8-1.6-11.9   c-0.2-3.8-0.1-7.5,0.2-10.6c0.2-3.1,0.6-5.7,1-7.6c0.2-0.9,0.4-1.7,0.5-2.3c0.1-0.5,0.2-0.8,0.2-0.8L230.2,126.6z"/>
</g>
<g>
	<path style="fill:#E6E9EE;" d="M333.8,110.9c-1.5-44.2-45.3-48.9-72-47.6c-9,0.4-18.1,0.4-27.1,0c-26.8-1.3-70.5,3.4-72,47.6   c0,0-9.8,43.9,38.3,27.4c0,0,31.1-14.7,42.2-17.2c0,0,2.8-0.5,5.1-1.2c2.3,0.7,5.1,1.2,5.1,1.2c11.2,2.5,42.2,17.2,42.2,17.2   C343.5,154.8,333.8,110.9,333.8,110.9z"/>
	<path style="fill:#E6E9EE;" d="M295.5,138.3c0,0-31.1-14.7-42.3-17.2c0,0-2.8-0.5-5.1-1.2c-2.3,0.7-5,1.2-5,1.2   c-11.2,2.5-42.3,17.2-42.3,17.2c-48,16.5-38.3-27.4-38.3-27.4c1.2-34.5,28.1-44.9,52.5-47.2c0.4,0,0.7-0.1,1.1-0.1   c6.5-0.6,12.8-0.6,18.4-0.3c4.1,0.2,8.2,0.3,12.4,0.3h2.4c4.1,0,8.2-0.1,12.4-0.3c5.6-0.3,11.9-0.3,18.4,0.3c0.4,0,0.7,0.1,1.1,0.1   c24.5,2.3,51.4,12.7,52.5,47.2C333.8,110.9,343.5,154.8,295.5,138.3z"/>
</g>
<ellipse style="fill:#FFD05B;" cx="287.9" cy="88.3" rx="9" ry="11.4"/>
<ellipse style="fill:#324A5E;" cx="287.9" cy="88.3" rx="2.1" ry="8.2"/>
<ellipse style="fill:#FFD05B;" cx="208.5" cy="88.3" rx="9" ry="11.4"/>
<ellipse style="fill:#324A5E;" cx="208.5" cy="88.3" rx="2.1" ry="8.2"/>
<g>
	<path style="fill:#2B3B4E;" d="M296.8,321.2c-1,0.2-2.2,0.3-3.5,0.6c-1.3,0.3-2.8,0.5-4.5,0.7c-1.6,0.2-3.4,0.6-5.2,0.8   c-1.9,0.2-3.8,0.4-5.8,0.7c-2,0.2-4.1,0.3-6.2,0.6c-2.1,0.1-4.2,0.2-6.3,0.3c-1.1,0-2.1,0-3.2,0s-2.1,0.1-3.2,0   c-2.1-0.1-4.2-0.1-6.1-0.3c-1-0.1-2-0.2-2.9-0.2c-1-0.1-1.9-0.3-2.8-0.3c-0.9-0.1-1.8-0.3-2.7-0.4s-1.7-0.2-2.5-0.4   c-1.6-0.3-3.1-0.5-4.4-0.9c-1.3-0.3-2.5-0.6-3.4-0.8c-0.9-0.3-1.7-0.4-2.2-0.6s-0.8-0.2-0.8-0.2s0.8,0.9,2.3,2.1   c0.8,0.6,1.8,1.4,3,2.1c1.2,0.8,2.6,1.5,4.1,2.3c1.6,0.7,3.3,1.5,5.2,2.1c0.9,0.3,1.9,0.6,2.9,0.9s2.1,0.5,3.1,0.7   c2.1,0.5,4.4,0.7,6.7,1c2.3,0.2,4.6,0.2,6.9,0.2c2.3-0.2,4.6-0.3,6.9-0.6c1.1-0.2,2.2-0.4,3.3-0.6c1.1-0.2,2.2-0.4,3.2-0.7   c2.1-0.6,4.1-1.2,6-1.8c1.9-0.7,3.6-1.5,5.1-2.1c1.6-0.7,3-1.4,4.2-2.1s2.2-1.4,3.1-1.9c1.7-1.1,2.6-1.8,2.6-1.8   S298.7,320.9,296.8,321.2z"/>
	<path style="fill:#2B3B4E;" d="M287.8,360.3c-1.3,0.3-2.8,0.5-4.5,0.7c-1.6,0.2-3.4,0.6-5.2,0.8c-1.9,0.2-3.8,0.4-5.8,0.7   c-2,0.2-4.1,0.3-6.2,0.6c-2.1,0.1-4.2,0.2-6.3,0.3c-1.1,0-2.1,0-3.2,0s-2.1,0.1-3.2,0c-2.1-0.1-4.2-0.1-6.1-0.3   c-1-0.1-2-0.2-2.9-0.2c-1-0.1-1.9-0.3-2.8-0.3c-0.9-0.1-1.8-0.3-2.7-0.4s-1.7-0.2-2.5-0.4c-1.6-0.3-3.1-0.5-4.4-0.9   c-1.3-0.3-2.5-0.6-3.4-0.8c-0.9-0.3-1.7-0.4-2.2-0.6s-0.8-0.2-0.8-0.2s0.8,0.9,2.3,2.1c0.8,0.6,1.8,1.4,3,2.1   c1.2,0.8,2.6,1.5,4.1,2.3c1.6,0.7,3.3,1.5,5.2,2.1c0.9,0.3,1.9,0.6,2.9,0.9s2.1,0.5,3.1,0.7c2.1,0.5,4.4,0.7,6.7,1   c2.3,0.2,4.6,0.2,6.9,0.2c2.3-0.2,4.6-0.3,6.9-0.6c1.1-0.2,2.2-0.4,3.3-0.6c1.1-0.2,2.2-0.4,3.2-0.7c2.1-0.6,4.1-1.2,6-1.8   c1.9-0.7,3.6-1.5,5.1-2.1c1.6-0.7,3-1.4,4.2-2.1s2.2-1.4,3.1-1.9c1.7-1.1,2.6-1.8,2.6-1.8s-1.2,0.1-3.1,0.4   C290.3,359.9,289.1,360,287.8,360.3z"/>
	<path style="fill:#2B3B4E;" d="M218.7,424.3c1.6,0.7,3.3,1.5,5.2,2.1c0.9,0.3,1.9,0.6,2.9,0.9s2.1,0.5,3.1,0.7   c2.1,0.5,4.4,0.7,6.7,1c2.3,0.2,4.6,0.2,6.9,0.2c2.3-0.2,4.6-0.3,6.9-0.6c1.1-0.2,2.2-0.4,3.3-0.6s2.2-0.4,3.2-0.7   c2.1-0.6,4.1-1.2,6-1.8c1.9-0.7,3.6-1.5,5.1-2.1c1.6-0.7,3-1.4,4.2-2.1s2.2-1.4,3.1-1.9c1.7-1.1,2.6-1.8,2.6-1.8s-1.2,0.1-3.1,0.4   c-1,0.2-2.2,0.3-3.5,0.6c-1.3,0.3-2.8,0.5-4.5,0.7c-1.6,0.2-3.4,0.6-5.2,0.8c-1.9,0.2-3.8,0.4-5.8,0.7c-2,0.2-4.1,0.3-6.2,0.6   c-2.1,0.1-4.2,0.2-6.3,0.3c-1.1,0-2.1,0-3.2,0c-1.1,0-2.1,0.1-3.2,0c-2.1-0.1-4.2-0.1-6.1-0.3c-1-0.1-2-0.2-2.9-0.2   c-1-0.1-1.9-0.3-2.8-0.3c-0.9-0.1-1.8-0.3-2.7-0.4s-1.7-0.2-2.5-0.4c-1.6-0.3-3.1-0.5-4.4-0.9c-1.3-0.3-2.5-0.6-3.4-0.8   c-0.9-0.3-1.7-0.4-2.2-0.6s-0.8-0.2-0.8-0.2s0.8,0.9,2.3,2.1c0.8,0.6,1.8,1.4,3,2.1C215.8,422.7,217.2,423.5,218.7,424.3z"/>
	<path style="fill:#2B3B4E;" d="M276.6,470.1c-1.3,0.3-2.8,0.5-4.5,0.7c-1.6,0.2-3.4,0.6-5.2,0.8c-1.9,0.2-3.8,0.4-5.8,0.7   c-2,0.2-4.1,0.3-6.2,0.6c-2.1,0.1-4.2,0.2-6.3,0.3c-1.1,0-2.1,0-3.2,0c-1.1,0-2.1,0.1-3.2,0c-2.1-0.1-4.2-0.1-6.1-0.3   c-1-0.1-2-0.2-2.9-0.2c-1-0.1-1.9-0.3-2.8-0.3c-0.9-0.1-1.8-0.3-2.7-0.4s-1.7-0.2-2.5-0.4c-1.6-0.3-3.1-0.5-4.4-0.9   c-1.3-0.3-2.5-0.6-3.4-0.8c-0.9-0.3-1.7-0.4-2.2-0.6s-0.8-0.2-0.8-0.2s0.8,0.9,2.3,2.1c0.8,0.6,1.8,1.4,3,2.1   c1.2,0.8,2.6,1.5,4.1,2.3c1.6,0.7,3.3,1.5,5.2,2.1c0.9,0.3,1.9,0.6,2.9,0.9s2.1,0.5,3.1,0.7c2.1,0.5,4.4,0.7,6.7,1   c2.3,0.2,4.6,0.2,6.9,0.2c2.3-0.2,4.6-0.3,6.9-0.6c1.1-0.2,2.2-0.4,3.3-0.6c1.1-0.2,2.2-0.4,3.2-0.7c2.1-0.6,4.1-1.2,6-1.8   c1.9-0.7,3.6-1.5,5.1-2.1c1.6-0.7,3-1.4,4.2-2.1s2.2-1.4,3.1-1.9c1.7-1.1,2.6-1.8,2.6-1.8s-1.2,0.1-3.1,0.4   C279.1,469.6,277.9,469.8,276.6,470.1z"/>
</g>
<path style="fill:#324A5E;" d="M273.7,221.3c-0.7-1-1.8-1.9-2.7-3.3c-0.9-1.4-1.9-2.9-3-4.4c-0.9-1.7-1.8-3.6-2.9-5.5  c-0.9-2-1.7-4.2-2.7-6.3c-0.7-2.3-1.5-4.6-2.2-6.9c-0.5-2.4-1.4-4.8-1.8-7.3c-0.6-2.4-1.1-4.9-1.5-7.3c-0.1-0.4-0.1-0.8-0.2-1.3  c0.1-1.8,0.2-3.6,0.2-5.4c0.1-2.5-0.1-4.9-0.2-7.1c-0.2-2.2-0.4-4.3-0.8-6.3c-1.2-7.7-3.3-12.5-3.3-12.5s0,0.2-0.1,0.4  c0-0.2-0.1-0.4-0.1-0.4s-2.1,4.8-3.3,12.5c-0.3,1.9-0.6,4-0.8,6.3c-0.1,2.2-0.4,4.6-0.2,7.1c0.1,1.7,0.1,3.5,0.2,5.4  c-0.1,0.4-0.1,0.8-0.2,1.3c-0.4,2.4-0.9,4.9-1.5,7.3c-0.4,2.5-1.3,4.8-1.8,7.3c-0.7,2.4-1.5,4.7-2.2,6.9c-1,2.1-1.8,4.3-2.7,6.3  c-1.1,1.9-2,3.7-3,5.5c-1.1,1.5-2.1,3.1-3.1,4.4c-0.9,1.4-2,2.3-2.7,3.3c-1.6,1.8-2.5,3-2.5,3s1.3-0.5,3.6-1.6  c1.1-0.6,2.7-1.1,4-2.2c1.4-1.1,3-2.3,4.7-3.7c1.5-1.6,3-3.3,4.6-5.3c1.4-2,2.8-4.2,4.1-6.6c0.9-2.1,2-4.2,2.8-6.5  c0.8,2.2,1.9,4.4,2.8,6.5c1.3,2.3,2.7,4.6,4.1,6.6c1.6,1.9,3.1,3.7,4.6,5.3c1.7,1.4,3.3,2.7,4.7,3.7c1.3,1.1,2.9,1.6,4,2.2  c2.3,1.1,3.6,1.6,3.6,1.6S275.2,223.1,273.7,221.3z"/>
<g>
</g>
<g>
</g>
<g>
</g>
<g>
</g>
<g>
</g>
<g>
</g>
<g>
</g>
<g>
</g>
<g>
</g>
<g>
</g>
<g>
</g>
<g>
</g>
<g>
</g>
<g>
</g>
<g>
</g>
</svg>
