<?xml version="1.0" encoding="iso-8859-1"?>
<!-- Generator: Adobe Illustrator 19.0.0, SVG Export Plug-In . SVG Version: 6.00 Build 0)  -->
<svg xmlns="http://www.w3.org/2000/svg" xmlns:xlink="http://www.w3.org/1999/xlink" version="1.1" id="Layer_1" x="0px" y="0px" viewBox="0 0 505 505" style="enable-background:new 0 0 505 505;" xml:space="preserve">
<circle style="fill:#90DFAA;" cx="252.5" cy="252.5" r="252.5"/>
<path style="fill:#F1543F;" d="M304,196.7c41.4-92.7,148.1-62.8,148.1-62.8s-18.5,27.8-25.1,60.2c-7.8,38.4-41.9,86.5-87.1,42.2"/>
<path style="fill:#FF7058;" d="M452.1,134c0,0-91,9.9-121.5,92.1l-26.7-29.4C345.4,104.1,452.1,134,452.1,134z"/>
<path style="fill:#F1543F;" d="M201,196.7C159.6,104,52.9,133.9,52.9,133.9s18.5,27.8,25.1,60.2c7.8,38.4,41.9,86.5,87.1,42.2"/>
<g>
	<path style="fill:#FF7058;" d="M52.9,134c0,0,91,9.9,121.5,92.1l26.7-29.4C159.6,104.1,52.9,134,52.9,134z"/>
	<ellipse style="fill:#FF7058;" cx="252.5" cy="295.7" rx="144.2" ry="124.9"/>
</g>
<ellipse style="fill:#FFD05B;" cx="252.5" cy="343.5" rx="62.5" ry="47.7"/>
<g>
	<circle style="fill:#F9B54C;" cx="279.6" cy="343" r="11.8"/>
	<circle style="fill:#F9B54C;" cx="225.4" cy="343" r="11.8"/>
</g>
<path style="fill:#FFFFFF;" d="M278,250.7c1.3,10.8,9.8,19.2,18.8,18.7s15.3-9.6,13.9-20.4c-1.4-10.8-9.8-19.2-18.8-18.7  C282.9,230.7,276.7,239.8,278,250.7z"/>
<path style="fill:#F9B54C;" d="M280.7,253.6c0.9,7,7.3,12.4,14.4,12s12.1-6.3,11.2-13.3c-0.9-7-7.3-12.4-14.4-12  C284.9,240.6,279.9,246.6,280.7,253.6z"/>
<path style="fill:#2B3B4E;" d="M287.1,253.3c0.4,3.6,3.7,6.3,7.3,6.1c3.6-0.2,6.1-3.2,5.7-6.8c-0.4-3.6-3.7-6.3-7.3-6.1  C289.2,246.7,286.6,249.7,287.1,253.3z"/>
<path style="fill:#FFFFFF;" d="M288.6,245.1c-1,1.6,0,3.3,2,3.8c2.1,0.5,4.6-0.4,5.5-2c1-1.6,0-3.3-2-3.8  C292,242.6,289.5,243.5,288.6,245.1z"/>
<path style="fill:#324A5E;" d="M276.7,223c0,0,2.5-1.1,5.9-2c0.8-0.3,1.8-0.4,2.7-0.6c1-0.1,1.9-0.3,3-0.3c1-0.1,2,0,3.1,0  c1,0,2.1,0.2,3.1,0.4c1,0.3,2.1,0.4,3.1,0.8c1,0.4,2.1,0.5,3.1,1c1,0.4,2,0.8,2.9,1.1c0.9,0.5,1.8,0.8,2.7,1.2  c1.7,0.7,3.1,1.5,4.1,1.9c1.1,0.5,1.7,0.7,1.7,0.7s-0.3-0.6-0.8-1.6c-0.3-0.5-0.6-1.1-1.1-1.8c-0.4-0.7-0.9-1.5-1.7-2.2  c-0.7-0.7-1.4-1.6-2.3-2.4c-0.9-0.8-1.9-1.5-3-2.2c-1-0.8-2.3-1.2-3.6-1.8c-1.3-0.6-2.7-0.8-4.1-1.2c-1.4-0.2-2.9-0.4-4.3-0.2  c-1.4,0.1-2.8,0.3-4.1,0.7c-1.3,0.3-2.5,0.9-3.6,1.4c-1,0.6-2,1.2-2.8,1.9c-1.6,1.3-2.7,2.7-3.3,3.6  C276.9,222.4,276.7,223,276.7,223z"/>
<path style="fill:#FFFFFF;" d="M227,250.7c-1.4,10.8-9.8,19.2-18.8,18.7s-15.3-9.6-13.9-20.4c1.4-10.8,9.8-19.2,18.8-18.7  C222.1,230.7,228.3,239.8,227,250.7z"/>
<path style="fill:#F9B54C;" d="M224.3,253.6c-0.9,7-7.3,12.4-14.4,12c-7.1-0.4-12.1-6.3-11.2-13.3c0.9-7,7.3-12.4,14.4-12  C220.1,240.6,225.1,246.6,224.3,253.6z"/>
<path style="fill:#2B3B4E;" d="M217.9,253.3c-0.4,3.6-3.7,6.3-7.3,6.1c-3.6-0.2-6.1-3.2-5.7-6.8c0.4-3.6,3.7-6.3,7.3-6.1  S218.4,249.7,217.9,253.3z"/>
<path style="fill:#FFFFFF;" d="M216.4,245.1c1,1.6,0,3.3-2,3.8c-2.1,0.5-4.6-0.4-5.5-2c-1-1.6,0-3.3,2-3.8  C213,242.6,215.5,243.5,216.4,245.1z"/>
<path style="fill:#324A5E;" d="M228.3,223c0,0-2.5-1.1-5.9-2c-0.8-0.3-1.8-0.4-2.7-0.6c-1-0.1-1.9-0.3-3-0.3c-1-0.1-2,0-3.1,0  c-1,0-2.1,0.2-3.1,0.4c-1,0.3-2.1,0.4-3.1,0.8c-1,0.4-2.1,0.5-3.1,1c-1,0.4-2,0.8-2.9,1.1c-0.9,0.5-1.8,0.8-2.7,1.2  c-1.7,0.7-3.1,1.5-4.1,1.9c-1.1,0.5-1.7,0.7-1.7,0.7s0.3-0.6,0.8-1.6c0.3-0.5,0.6-1.1,1.1-1.8c0.4-0.7,0.9-1.5,1.7-2.2  c0.7-0.7,1.4-1.6,2.3-2.4c0.9-0.8,1.9-1.5,3-2.2c1-0.8,2.3-1.2,3.6-1.8s2.7-0.8,4.1-1.2c1.4-0.2,2.9-0.4,4.3-0.2  c1.4,0.1,2.8,0.3,4.1,0.7c1.3,0.3,2.5,0.9,3.6,1.4c1,0.6,2,1.2,2.8,1.9c1.6,1.3,2.7,2.7,3.3,3.6C228.1,222.4,228.3,223,228.3,223z"/>
<g>
</g>
<g>
</g>
<g>
</g>
<g>
</g>
<g>
</g>
<g>
</g>
<g>
</g>
<g>
</g>
<g>
</g>
<g>
</g>
<g>
</g>
<g>
</g>
<g>
</g>
<g>
</g>
<g>
</g>
</svg>
