<?xml version="1.0" encoding="iso-8859-1"?>
<!-- Generator: Adobe Illustrator 19.0.0, SVG Export Plug-In . SVG Version: 6.00 Build 0)  -->
<svg xmlns="http://www.w3.org/2000/svg" xmlns:xlink="http://www.w3.org/1999/xlink" version="1.1" id="Layer_1" x="0px" y="0px" viewBox="0 0 505 505" style="enable-background:new 0 0 505 505;" xml:space="preserve">
<circle style="fill:#324A5E;" cx="252.5" cy="252.5" r="252.5"/>
<path style="fill:#54C0EB;" d="M426.1,169l9-30.9c0,0-108-26.3-123.4,65.7l-9,30.9L333,237C372.5,239.9,414.3,209.5,426.1,169z"/>
<path style="fill:#84DBFF;" d="M435.1,138.1c0,0-83.1,10.4-100.5,98.9c-0.6,0-1.1-0.1-1.6-0.1l-30.3-2.3l9-30.9  C327.1,111.8,435.1,138.1,435.1,138.1z"/>
<path style="fill:#54C0EB;" d="M78.9,169l-9-30.9c0,0,108-26.3,123.4,65.7l9,30.9L172,237C132.5,239.9,90.7,209.5,78.9,169z"/>
<g>
	<path style="fill:#84DBFF;" d="M69.9,138.1c0,0,83.1,10.4,100.5,98.9c0.6,0,1.1-0.1,1.6-0.1l30.3-2.3l-9-30.9   C177.9,111.8,69.9,138.1,69.9,138.1z"/>
	<path style="fill:#84DBFF;" d="M409.4,304.4c0.9,4.9,1.6,9.8,2.1,14.7c-28.1,39.9-87.1,68.5-159,68.5s-130.9-28.5-159-68.4   c0.5-4.9,1.2-9.8,2.1-14.7c14.6-76.1,83.8-145.4,156.9-145.4S394.8,228.3,409.4,304.4z"/>
</g>
<g>
	<path style="fill:#54C0EB;" d="M243.7,233.7v153.7c-49.8-1.6-92.8-17-122.9-40.2C132.8,290.6,185.8,239,243.7,233.7z"/>
	<path style="fill:#54C0EB;" d="M384.2,347.2c-30,23.2-73.1,38.5-122.9,40.2V233.7C319.2,239,372.2,290.6,384.2,347.2z"/>
	<path style="fill:#54C0EB;" d="M372.3,330.3c0.6-0.6,1.2-1.2,1.7-1.9c-0.4-3.1-0.9-6.2-1.6-9.3c0-0.2-0.1-0.4-0.1-0.5V330.3z"/>
</g>
<path style="fill:#FFFFFF;" d="M314.4,349.5c0.4,1.8,0.6,3.6,0.8,5.4c-11.1,14.8-34.3,25.3-62.7,25.3c-28.3,0-51.6-10.5-62.7-25.3  c0.2-1.8,0.5-3.6,0.8-5.4c5.8-28.1,33.1-53.7,61.9-53.7C281.3,295.8,308.6,321.4,314.4,349.5z"/>
<g>
	<path style="fill:#324A5E;" d="M273,326.9c0,9.8-9.2,20.6-20.5,20.6c-11.3,0-20.5-10.7-20.5-20.6c0-9.8,9.2-15.1,20.5-15.1   C263.8,311.9,273,317.1,273,326.9z"/>
	<path style="fill:#324A5E;" d="M217,347.5c0,0,0.3,0.2,0.8,0.6s1.3,0.9,2.3,1.6c0.9,0.7,2.1,1.4,3.4,2.2c1.3,0.8,2.9,1.6,4.5,2.5   c1.7,0.8,3.4,1.7,5.3,2.4c1.9,0.8,3.9,1.4,6,2s4.3,1,6.5,1.3s4.5,0.4,6.7,0.4c0.9,0,2.6,0,3.5-0.1c1-0.1,2.1-0.2,3.3-0.3   c2.2-0.4,4.4-0.7,6.5-1.3c2.1-0.6,4.1-1.2,6-2c1.9-0.7,3.7-1.6,5.3-2.4c1.6-0.9,3.2-1.7,4.5-2.5c1.3-0.9,2.5-1.6,3.4-2.2   c2-1.3,3.1-2.1,3.1-2.1s-0.1,0.3-0.4,1c-0.3,0.6-0.6,1.6-1.2,2.7c-0.6,1.2-1.3,2.5-2.3,4c-0.5,0.7-1.1,1.5-1.7,2.3s-1.3,1.6-2,2.4   c-3,3.2-7,6.4-11.8,8.7c-2.4,1.2-5,2-7.7,2.7c-1.4,0.3-2.7,0.6-4.2,0.7c-1.6,0.2-2.5,0.2-4.1,0.3c-2.8-0.1-5.6-0.3-8.3-1   c-2.7-0.6-5.3-1.5-7.7-2.7c-4.9-2.3-8.9-5.5-11.8-8.7c-0.7-0.8-1.4-1.6-2-2.4s-1.1-1.6-1.7-2.3c-1-1.5-1.8-2.8-2.3-4   c-0.6-1.1-0.9-2.1-1.2-2.7C217.1,347.8,217,347.5,217,347.5z"/>
</g>
<path style="fill:#FFFFFF;" d="M273.2,273.6c1.5,11.9,10.7,21.1,20.7,20.6s16.8-10.5,15.3-22.4s-10.7-21.1-20.7-20.6  C278.6,251.7,271.7,261.8,273.2,273.6z"/>
<path style="fill:#F9B54C;" d="M276.2,276.9c1,7.7,8.1,13.6,15.8,13.2c7.8-0.4,13.3-7,12.3-14.7s-8.1-13.6-15.8-13.2  C280.8,262.6,275.2,269.2,276.2,276.9z"/>
<path style="fill:#2B3B4E;" d="M283.2,276.5c0.5,3.9,4.1,6.9,8,6.7c3.9-0.2,6.7-3.5,6.3-7.4c-0.5-3.9-4.1-6.9-8-6.7  C285.5,269.3,282.7,272.6,283.2,276.5z"/>
<g>
	<path style="fill:#FFFFFF;" d="M284.8,267.5c-1.1,1.8-0.1,3.7,2.2,4.2c2.3,0.6,5-0.4,6.1-2.2c1.1-1.8,0.1-3.7-2.2-4.2   C288.6,264.8,285.8,265.7,284.8,267.5z"/>
	<path style="fill:#FFFFFF;" d="M231.8,273.6c-1.5,11.9-10.7,21.1-20.7,20.6c-9.9-0.5-16.8-10.5-15.3-22.4s10.7-21.1,20.7-20.6   C226.4,251.7,233.3,261.8,231.8,273.6z"/>
</g>
<path style="fill:#F9B54C;" d="M228.8,276.9c-1,7.7-8.1,13.6-15.8,13.2c-7.8-0.4-13.3-7-12.3-14.7s8.1-13.6,15.8-13.2  C224.2,262.6,229.8,269.2,228.8,276.9z"/>
<path style="fill:#2B3B4E;" d="M221.8,276.5c-0.5,3.9-4.1,6.9-8,6.7c-3.9-0.2-6.7-3.5-6.3-7.4c0.5-3.9,4.1-6.9,8-6.7  C219.5,269.3,222.3,272.6,221.8,276.5z"/>
<path style="fill:#FFFFFF;" d="M220.2,267.5c1.1,1.8,0.1,3.7-2.2,4.2c-2.3,0.6-5-0.4-6.1-2.2c-1.1-1.8-0.1-3.7,2.2-4.2  S219.1,265.7,220.2,267.5z"/>
<g>
</g>
<g>
</g>
<g>
</g>
<g>
</g>
<g>
</g>
<g>
</g>
<g>
</g>
<g>
</g>
<g>
</g>
<g>
</g>
<g>
</g>
<g>
</g>
<g>
</g>
<g>
</g>
<g>
</g>
</svg>
