<?xml version="1.0" encoding="iso-8859-1"?>
<!-- Generator: Adobe Illustrator 19.0.0, SVG Export Plug-In . SVG Version: 6.00 Build 0)  -->
<svg xmlns="http://www.w3.org/2000/svg" xmlns:xlink="http://www.w3.org/1999/xlink" version="1.1" id="Layer_1" x="0px" y="0px" viewBox="0 0 505 505" style="enable-background:new 0 0 505 505;" xml:space="preserve">
<circle style="fill:#FFD05B;" cx="252.5" cy="252.5" r="252.5"/>
<g>
	<path style="fill:#324A5E;" d="M450.8,222.1c11-10.2,12.5-34.6-35.9-61.5c-50-28.6-126-12.9-122.1,5.2   c3.3,14.6,61.1,26.9,95.3,47.7C423.2,232.7,438.7,234.5,450.8,222.1z"/>
	<path style="fill:#324A5E;" d="M54.2,222.1c-11-10.2-12.5-34.6,35.9-61.5c50-28.6,126-12.9,122.1,5.2   c-3.3,14.6-61.1,26.9-95.3,47.7C81.8,232.7,66.3,234.5,54.2,222.1z"/>
</g>
<path style="fill:#E6E9EE;" d="M375.9,240.4c0,85.4-55.2,194.6-123.4,194.6c-68.1,0-123.4-109.2-123.4-194.6s55.2-114.7,123.4-114.7  C320.6,125.7,375.9,155,375.9,240.4z"/>
<path style="fill:#324A5E;" d="M281,390.3c-1.9-1.5-4.5-1.1-6,0.7c-5.8,7.4-12.7,11.1-18.2,12.3v-48.6h-8.6v48.6  c-5.6-1.2-12.4-4.9-18.2-12.3c-1.5-1.9-4.1-2.2-6-0.7s-2.2,4.1-0.7,6c7.9,10.1,18.9,16.1,29.2,16.1c10.4,0,21.3-6,29.2-16.1  C283.2,394.4,282.9,391.8,281,390.3z"/>
<path style="fill:#FF7058;" d="M284.4,341.7c0,17.6-14.3,32-31.9,32s-31.9-14.4-31.9-32s14.3-3,31.9-3S284.4,324.1,284.4,341.7z"/>
<path style="fill:#CED5E0;" d="M368.4,131.6c-8.8-7-18.5-8.1-25.7-4.5c-2.5-9.4-9.3-18.3-18.9-22.5c-9.5-4.2-19.1-2.5-25.4,3.1  c-3.9-8.5-12-15.2-21.9-16.6s-18.9,3-24.1,10.1c-5.2-7.2-14.2-11.5-24.1-10.1c-9.9,1.4-18,8.1-21.9,16.6c-6.3-5.5-15.9-7.3-25.4-3.1  c-9.5,4.2-16.4,13.1-18.9,22.5c-7.2-3.6-16.9-2.5-25.7,4.5c-15,11.8-19.4,34-11.2,46.1c8.2,12.2,23.3,12.5,34.7,3.6  c6.9-5.5,11.6-13.7,13.5-22.8c6.6,3.9,14.5,4.5,22,1.3c7.5-3.3,13.3-10,16.7-18.2c5.7,5.7,13.2,8.6,21,7.5s14.6-6,19.2-13.1  c4.6,7.1,11.4,12,19.2,13.1s15.3-1.8,21-7.5c3.4,8.3,9.2,14.9,16.7,18.2s15.4,2.6,22-1.3c1.9,9.1,6.6,17.3,13.5,22.8  c11.4,9,26.6,8.6,34.7-3.6C387.8,165.6,383.4,143.4,368.4,131.6z"/>
<path style="fill:#FFFFFF;" d="M287.9,246.5c1.5,12.4,11.2,22,21.6,21.5s17.5-11,16-23.4s-11.2-22-21.6-21.5  S286.3,234.1,287.9,246.5z"/>
<path style="fill:#84DBFF;" d="M291,249.8c1,8,8.4,14.2,16.5,13.8s13.9-7.3,12.9-15.3c-1-8-8.4-14.2-16.5-13.8S290,241.8,291,249.8z  "/>
<path style="fill:#2B3B4E;" d="M298.2,249.5c0.5,4.1,4.3,7.2,8.4,7s7-3.7,6.5-7.8c-0.5-4.1-4.3-7.2-8.4-7  C300.7,241.9,297.7,245.4,298.2,249.5z"/>
<path style="fill:#FFFFFF;" d="M300,240.1c-1.1,1.8-0.1,3.8,2.3,4.4c2.4,0.6,5.2-0.4,6.3-2.3s0.1-3.8-2.3-4.4  C303.9,237.2,301.1,238.2,300,240.1z"/>
<path style="fill:#324A5E;" d="M286.3,214.8c0,0,2.9-1.2,6.8-2.3c1-0.3,2.1-0.4,3.1-0.7c1.1-0.1,2.2-0.4,3.4-0.4  c1.2-0.1,2.3-0.1,3.5,0c1.2,0,2.4,0.3,3.6,0.4c1.2,0.3,2.4,0.4,3.6,0.9s2.4,0.6,3.5,1.2c1.2,0.5,2.3,0.9,3.3,1.3c1,0.5,2.1,1,3,1.4  c2,0.8,3.5,1.7,4.7,2.2s2,0.8,2,0.8s-0.3-0.7-1-1.9c-0.3-0.6-0.7-1.3-1.2-2.1s-1.1-1.7-1.9-2.5c-0.8-0.9-1.6-1.8-2.6-2.7  s-2.2-1.7-3.4-2.5c-1.2-0.9-2.7-1.4-4.1-2.1c-1.4-0.7-3.1-0.9-4.7-1.4c-1.6-0.2-3.3-0.4-4.9-0.3c-1.6,0.1-3.2,0.3-4.7,0.8  c-1.5,0.3-2.8,1-4.1,1.6c-1.2,0.7-2.3,1.4-3.2,2.2c-1.9,1.4-3.1,3-3.8,4.2C286.6,214,286.3,214.8,286.3,214.8z"/>
<path style="fill:#FFFFFF;" d="M217.1,246.5c-1.5,12.4-11.2,22-21.6,21.5c-10.4-0.5-17.5-11-16-23.4s11.2-22,21.6-21.5  C211.5,223.6,218.7,234.1,217.1,246.5z"/>
<path style="fill:#84DBFF;" d="M214,249.8c-1,8-8.4,14.2-16.5,13.8s-13.9-7.3-12.9-15.3c1-8,8.4-14.2,16.5-13.8  C209.2,234.9,215,241.8,214,249.8z"/>
<path style="fill:#2B3B4E;" d="M206.8,249.5c-0.5,4.1-4.3,7.2-8.4,7c-4.1-0.2-7-3.7-6.5-7.8c0.5-4.1,4.3-7.2,8.4-7  C204.3,241.9,207.3,245.4,206.8,249.5z"/>
<path style="fill:#FFFFFF;" d="M205,240.1c1.1,1.8,0.1,3.8-2.3,4.4c-2.4,0.6-5.2-0.4-6.3-2.3c-1.1-1.8-0.1-3.8,2.3-4.4  C201.1,237.2,203.9,238.2,205,240.1z"/>
<path style="fill:#324A5E;" d="M218.7,214.8c0,0-2.9-1.2-6.8-2.3c-1-0.3-2.1-0.4-3.1-0.7c-1.1-0.1-2.2-0.4-3.4-0.4  c-1.2-0.1-2.3-0.1-3.5,0c-1.2,0-2.4,0.3-3.6,0.4c-1.2,0.3-2.4,0.4-3.6,0.9c-1.2,0.5-2.4,0.6-3.5,1.2c-1.2,0.5-2.3,0.9-3.3,1.3  c-1,0.5-2.1,1-3,1.4c-2,0.8-3.5,1.7-4.7,2.2s-2,0.8-2,0.8s0.3-0.7,1-1.9c0.3-0.6,0.7-1.3,1.2-2.1s1.1-1.7,1.9-2.5  c0.8-0.9,1.6-1.8,2.6-2.7s2.2-1.7,3.4-2.5c1.2-0.9,2.7-1.4,4.1-2.1c1.4-0.7,3.1-0.9,4.7-1.4c1.6-0.2,3.3-0.4,4.9-0.3  c1.6,0.1,3.2,0.3,4.7,0.8c1.5,0.3,2.8,1,4.1,1.6c1.2,0.7,2.3,1.4,3.2,2.2c1.9,1.4,3.1,3,3.8,4.2C218.4,214,218.7,214.8,218.7,214.8z  "/>
<g>
</g>
<g>
</g>
<g>
</g>
<g>
</g>
<g>
</g>
<g>
</g>
<g>
</g>
<g>
</g>
<g>
</g>
<g>
</g>
<g>
</g>
<g>
</g>
<g>
</g>
<g>
</g>
<g>
</g>
</svg>
