<?xml version="1.0" encoding="iso-8859-1"?>
<!-- Generator: Adobe Illustrator 19.0.0, SVG Export Plug-In . SVG Version: 6.00 Build 0)  -->
<svg xmlns="http://www.w3.org/2000/svg" xmlns:xlink="http://www.w3.org/1999/xlink" version="1.1" id="Layer_1" x="0px" y="0px" viewBox="0 0 505 505" style="enable-background:new 0 0 505 505;" xml:space="preserve">
<path style="fill:#FF7058;" d="M505,252.5C505,392,392,505,252.5,505S0,392,0,252.5C0,113.1,113,0,252.5,0  c110.1,0,203.7,70.5,238.3,168.7c7.4,21,12.1,43.3,13.7,66.5C504.8,240.9,505,246.7,505,252.5z"/>
<g>
	<path style="fill:#FFD05B;" d="M357.5,257.4c0,72.7-47,165.6-105,165.6s-105-92.9-105-165.6s47-97.6,105-97.6   C310.5,159.8,357.5,184.7,357.5,257.4z"/>
	<path style="fill:#FFD05B;" d="M164.9,218.5c2.4,8.6,2,18.3-1.5,26.9c-1.7,4.3-4.1,8.4-7.1,12.1c-0.7,0.9-1.6,1.8-2.4,2.6   c-0.8,0.8-1.7,1.7-2.7,2.6l-1.5,1.3c-0.6,0.4-1,0.8-1.3,1.1l-0.7,0.6c-0.1-2.8-0.2-5.5-0.2-8.2c0-6.3,0.4-12.2,1.1-17.7   c0.8-7.3,2.3-14,4.3-20.2c1.5-5,3.5-9.7,5.8-14l0.7,0.9C162,210.2,163.7,214.2,164.9,218.5z"/>
	<path style="fill:#FFD05B;" d="M357.5,257.4c0,2.7-0.1,5.4-0.2,8.2l-0.7-0.6c-0.3-0.2-0.8-0.6-1.3-1.1l-1.5-1.3   c-1-0.9-1.9-1.7-2.7-2.6c-0.8-0.9-1.7-1.7-2.4-2.6c-3-3.6-5.4-7.8-7.1-12.1c-3.5-8.7-3.9-18.3-1.5-26.9c1.2-4.3,2.9-8.3,5.6-12   l0.7-0.9c2.3,4.3,4.2,9,5.8,14c2,6.2,3.5,12.9,4.3,20.2C357.1,245.3,357.5,251.2,357.5,257.4z"/>
</g>
<path style="fill:#324A5E;" d="M276.8,385c-1.6-1.2-3.9-1-5.1,0.6c-5,6.3-10.8,9.4-15.5,10.5v-41.4h-7.3v41.4  c-4.7-1.1-10.6-4.2-15.5-10.5c-1.2-1.6-3.5-1.9-5.1-0.6c-1.6,1.2-1.9,3.5-0.6,5.1c6.7,8.6,16,13.7,24.9,13.7  c8.8,0,18.1-5.1,24.9-13.7C278.6,388.6,278.4,386.3,276.8,385z"/>
<path style="fill:#FF7058;" d="M279.7,343.7c0,15-12.2,27.3-27.2,27.3s-27.2-12.3-27.2-27.3s12.2-2.5,27.2-2.5  S279.7,328.7,279.7,343.7z"/>
<g>
	<path style="fill:#324A5E;" d="M450.2,226c-1.1,4.9-3,9.6-5,14.1l-1.7,3.2l-0.9,1.6l-0.4,0.8l-0.3,0.5v0.1l-0.1,0.1l-0.2,0.3   c-0.8,1.2-2.9,4.3-4.3,6c-6.2,7.8-14.1,14-23,18.1c-8.8,4.1-18.7,6.1-28.4,5.4c-4.9-0.3-9.6-1.3-14.2-2.9c-2.2-0.7-4.4-1.7-6.5-2.8   c-1-0.5-2.1-1.1-3.1-1.7l-3.2-2.1l-1.5-1.2l-0.7-0.6c-0.3-0.2-0.8-0.6-1.3-1.1l-1.5-1.3c-1-0.9-1.9-1.7-2.7-2.6   c-0.8-0.9-1.7-1.7-2.4-2.6c-3-3.6-5.4-7.8-7.1-12.1c-3.5-8.7-3.9-18.3-1.5-26.9c1.2-4.3,2.9-8.3,5.6-12l0.7-0.9   c2.9-3.6,6.2-6,10.1-7.9c8.3-3.7,17.2-3.2,24.9-0.7l0.3,0.1c2.7,1.3,5.4,3,7.1,5.9c0.4,0.7,0.8,1.5,1,2.2l0.6,2   c0.4,1.5,0.6,2.9,0.6,4.4c0,0.8-0.1,1.5-0.3,2.3c-0.1,0.7-0.4,1.4-0.7,2.1c-0.4,0.7-0.8,1.3-1.3,1.9c-0.6,0.5-1.1,1-1.7,1.3   c-2.5,1.5-5.3,1.9-8,2c2.6-0.5,5.3-1.3,7.3-2.9c0.5-0.4,0.9-0.9,1.3-1.4s0.6-1,0.8-1.6c0.2-0.6,0.4-1.1,0.4-1.7   c0.1-0.6,0-1.2,0-1.8c-0.2-1.2-0.5-2.4-0.9-3.6l-0.8-1.8c-0.2-0.5-0.6-0.9-0.9-1.4c-1.4-1.6-3.6-2.7-5.9-3.4l0.3,0.1   c-7.1-1.1-14.5,0-19.8,3.5c-2.6,1.7-4.8,4.3-6,6.5c-1.2,2.3-1.9,5.1-2.3,7.9c-0.1,0.5-0.2,0.9-0.2,1.4c-0.7,6.4,0.7,12.7,3.9,17.8   c0.2,0.3,0.4,0.7,0.6,1c1.4,2.2,3.1,4.1,5.1,5.8c0.5,0.5,1.1,0.9,1.7,1.4s1.1,0.9,1.7,1.1l0.8,0.5c0.2,0.2,0.5,0.4,1,0.6l2.4,1.3   h0.1l0.3,0.1l0.5,0.2l1.1,0.4c0.7,0.2,1.4,0.6,2.1,0.7c1.4,0.4,2.8,0.8,4.2,1c2.8,0.5,5.7,0.6,8.5,0.3c5.6-0.6,11-2.7,15.5-5.9   c4.6-3.2,8.4-7.5,11-12.2c0.8-1.5,0.7-1.6,1.8-3.7l1.3-3.7c0.6-2.6,1.2-5.3,1.3-7.9c0.3-5.2-0.4-10.4-2.3-15.3   c-1.9-4.9-4.5-9.5-8.1-13.5c-0.9-1-1.9-2.1-2.6-2.7l-1.2-1.1l-2.1-1.9h-0.1h-0.1h-0.1l-0.4-0.3l-1.6-1.1c-1.1-0.6-2.2-1.3-3.3-1.8   c-4.4-2.2-8.8-3.3-13.3-3.6c-9-0.6-18.7,2.5-27.5,8.2c-4.4,2.8-8.5,6.3-12.1,10.2c-0.2,0.2-0.3,0.4-0.5,0.6   c-12.1-17.8-30.3-28.4-52-33.6c0.8-0.9,1.6-1.7,2.4-2.3c3.7-3.5,7.5-6.8,11.5-9.9c8-6,16.7-11.1,26-15s19.3-6.7,29.7-7.8   c10.4-1.2,21.3-0.6,31.8,2s20.5,7.5,28.8,13.8c2.1,1.5,4.1,3.2,6,4.9l2.8,2.6l0.7,0.7l0.2,0.2l1.4,1.3v0.1l0.2,0.3l0.9,1.1l1.8,2.2   l2.4,3.3c1.8,2.3,3,4.3,4.3,6.4c5.2,8.5,8.8,18.1,10.6,28.1C453,205.8,452.6,216.2,450.2,226z"/>
	<path style="fill:#324A5E;" d="M104.6,185.2c0-0.1,0.1-0.2,0.2-0.2L104.6,185.2l-0.2,0.1l-2.1,1.9l-1.2,1.1   c-0.7,0.6-1.7,1.7-2.6,2.7c-3.6,4-6.2,8.7-8.1,13.5c-1.9,4.9-2.6,10.1-2.3,15.3c0.1,2.6,0.7,5.2,1.3,7.9l1.3,3.7   c1,2.2,1,2.3,1.8,3.7c2.6,4.7,6.4,9,11,12.2s10,5.3,15.5,5.9c2.8,0.3,5.7,0.2,8.5-0.3c1.4-0.2,2.8-0.6,4.2-1   c0.7-0.2,1.4-0.5,2.1-0.7l1.1-0.4l0.5-0.2l0.3-0.1h0.1l2.4-1.3c0.5-0.2,0.8-0.4,1-0.6l0.8-0.5c0.6-0.3,1.1-0.7,1.7-1.1   c0.6-0.5,1.2-0.9,1.7-1.4c2-1.7,3.7-3.6,5.1-5.8c0.2-0.3,0.4-0.7,0.6-1c3.1-5.1,4.6-11.4,3.9-17.8c0-0.5-0.1-0.9-0.2-1.4   c-0.4-2.7-1.1-5.5-2.3-7.9c-1.1-2.3-3.4-4.9-6-6.5c-5.3-3.5-12.7-4.6-19.8-3.5l0.3-0.1c-2.3,0.7-4.5,1.7-5.9,3.4   c-0.4,0.4-0.7,0.9-0.9,1.4l-0.8,1.8c-0.4,1.1-0.8,2.3-0.9,3.6c-0.1,0.6-0.1,1.2,0,1.8c0,0.6,0.2,1.1,0.4,1.7   c0.2,0.6,0.5,1.1,0.8,1.6c0.4,0.5,0.8,1,1.3,1.4c2,1.6,4.7,2.4,7.3,2.9c-2.7-0.1-5.5-0.5-8-2c-0.6-0.4-1.1-0.8-1.7-1.3   c-0.5-0.6-0.9-1.1-1.3-1.9c-0.3-0.7-0.6-1.4-0.7-2.1c-0.2-0.7-0.2-1.5-0.3-2.3c0-1.5,0.2-2.9,0.6-4.4l0.6-2c0.2-0.7,0.6-1.5,1-2.2   c1.7-2.8,4.4-4.6,7.1-5.9l0.3-0.1c7.7-2.5,16.6-3,24.9,0.7c3.8,1.8,7.2,4.2,10.1,7.9l0.7,0.9c2.7,3.7,4.3,7.7,5.6,12   c2.4,8.6,2,18.3-1.5,26.9c-1.7,4.3-4.1,8.4-7.1,12.1c-0.7,0.9-1.6,1.8-2.4,2.6c-0.8,0.8-1.7,1.7-2.7,2.6L150,264   c-0.6,0.4-1,0.8-1.3,1.1l-0.7,0.6l-1.5,1.2l-3.2,2.1c-1,0.6-2.1,1.2-3.1,1.7c-2.1,1.1-4.3,2.1-6.5,2.8c-4.5,1.6-9.3,2.6-14.2,2.9   c-9.7,0.7-19.6-1.3-28.4-5.4c-8.9-4.1-16.8-10.3-23-18.1c-1.4-1.7-3.5-4.8-4.3-6l-0.2-0.3l-0.1-0.1v-0.1l-0.3-0.5l-0.5-0.8   l-0.9-1.6l-1.7-3.2c-2.1-4.5-3.9-9.2-5.1-14.1c-2.4-9.8-2.8-20.2-0.9-30.2c1.8-10,5.4-19.5,10.6-28.1c1.3-2.1,2.5-4.2,4.3-6.4   l2.4-3.3l1.8-2.2l0.9-1.1l0.2-0.3v-0.1l1.4-1.3l0.2-0.2l0.7-0.7l2.8-2.6c1.9-1.7,3.9-3.4,6-4.9c8.3-6.3,18.3-11.1,28.8-13.8   c10.5-2.6,21.4-3.2,31.8-2c10.4,1.1,20.4,3.9,29.7,7.8c9.3,3.9,18,9,26,15c4,3,7.8,6.4,11.5,9.9c0.7,0.7,1.5,1.5,2.4,2.3   c-21.7,5.2-40,15.8-52,33.6c-0.2-0.2-0.3-0.4-0.5-0.6c-3.6-3.9-7.7-7.3-12.1-10.2c-8.8-5.7-18.5-8.8-27.5-8.2   c-4.5,0.3-9,1.4-13.3,3.6c-1.1,0.5-2.2,1.2-3.3,1.8l-1.6,1.1L104.6,185.2L104.6,185.2z"/>
</g>
<path style="fill:#FFFFFF;" d="M265.4,262.2c1.6,13,11.8,23.2,22.7,22.6c10.9-0.6,18.4-11.6,16.8-24.6s-11.8-23.2-22.7-22.6  C271.3,238.1,263.8,249.2,265.4,262.2z"/>
<path style="fill:#F9B54C;" d="M268.7,265.8c1.1,8.5,8.9,15,17.4,14.6c8.6-0.4,14.6-7.7,13.6-16.1c-1.1-8.5-8.9-15-17.4-14.6  C273.7,250.1,267.6,257.3,268.7,265.8z"/>
<path style="fill:#2B3B4E;" d="M276.3,265.4c0.5,4.3,4.5,7.6,8.8,7.4s7.4-3.9,6.9-8.2c-0.5-4.3-4.5-7.6-8.8-7.4  S275.8,261.1,276.3,265.4z"/>
<path style="fill:#FFFFFF;" d="M278.1,255.5c-1.2,1.9-0.1,4,2.5,4.6c2.5,0.6,5.5-0.5,6.7-2.4s0.1-4-2.5-4.6  C282.3,252.5,279.3,253.5,278.1,255.5z"/>
<path style="fill:#324A5E;" d="M263.8,228.8c0,0,3-1.3,7.2-2.4c1-0.3,2.2-0.4,3.3-0.7c1.2-0.1,2.3-0.4,3.6-0.4  c1.2-0.1,2.5-0.1,3.7,0c1.3,0,2.5,0.3,3.8,0.4c1.3,0.4,2.5,0.5,3.8,0.9c1.2,0.5,2.5,0.7,3.7,1.2s2.4,0.9,3.5,1.4  c1.1,0.6,2.2,1,3.2,1.5c2.1,0.8,3.7,1.8,5,2.3s2.1,0.8,2.1,0.8s-0.3-0.7-1-2c-0.3-0.6-0.8-1.4-1.3-2.2s-1.1-1.8-2-2.6  c-0.8-0.9-1.7-1.9-2.7-2.9c-1.1-0.9-2.3-1.8-3.6-2.6c-1.3-0.9-2.8-1.5-4.3-2.2s-3.3-1-4.9-1.4c-1.7-0.2-3.5-0.4-5.2-0.3  c-1.7,0.1-3.4,0.3-5,0.8c-1.6,0.3-3,1.1-4.3,1.7c-1.3,0.7-2.4,1.4-3.4,2.3c-2,1.5-3.2,3.2-4,4.4C264,228.1,263.8,228.8,263.8,228.8z  "/>
<path style="fill:#FFFFFF;" d="M239.6,262.2c-1.6,13-11.8,23.2-22.7,22.6s-18.4-11.6-16.8-24.6c1.6-13,11.8-23.2,22.7-22.6  C233.7,238.1,241.2,249.2,239.6,262.2z"/>
<path style="fill:#F9B54C;" d="M236.3,265.8c-1.1,8.5-8.9,15-17.4,14.6c-8.6-0.4-14.6-7.7-13.6-16.1c1.1-8.5,8.9-15,17.4-14.6  C231.3,250.1,237.4,257.3,236.3,265.8z"/>
<path style="fill:#2B3B4E;" d="M228.7,265.4c-0.5,4.3-4.5,7.6-8.8,7.4s-7.4-3.9-6.9-8.2c0.5-4.3,4.5-7.6,8.8-7.4  S229.2,261.1,228.7,265.4z"/>
<path style="fill:#FFFFFF;" d="M226.9,255.5c1.2,1.9,0.1,4-2.5,4.6c-2.5,0.6-5.5-0.5-6.7-2.4s-0.1-4,2.5-4.6  C222.7,252.5,225.7,253.5,226.9,255.5z"/>
<path style="fill:#324A5E;" d="M241.3,228.8c0,0-3-1.3-7.2-2.4c-1-0.3-2.2-0.4-3.3-0.7c-1.2-0.1-2.3-0.4-3.6-0.4  c-1.2-0.1-2.5-0.1-3.7,0c-1.3,0-2.5,0.3-3.8,0.4c-1.3,0.4-2.5,0.5-3.8,0.9c-1.2,0.5-2.5,0.7-3.7,1.2s-2.4,0.9-3.5,1.4  c-1.1,0.6-2.2,1-3.2,1.5c-2.1,0.8-3.7,1.8-5,2.3s-2.1,0.8-2.1,0.8s0.3-0.7,1-2c0.3-0.6,0.8-1.4,1.3-2.2s1.1-1.8,2-2.6  c0.8-0.9,1.7-1.9,2.7-2.9c1.1-0.9,2.3-1.8,3.6-2.6c1.3-0.9,2.8-1.5,4.3-2.2s3.3-1,4.9-1.4c1.7-0.2,3.5-0.4,5.2-0.3  c1.7,0.1,3.4,0.3,5,0.8c1.6,0.3,3,1.1,4.3,1.7c1.3,0.7,2.4,1.4,3.4,2.3c2,1.5,3.2,3.2,4,4.4C241,228.1,241.3,228.8,241.3,228.8z"/>
<g>
</g>
<g>
</g>
<g>
</g>
<g>
</g>
<g>
</g>
<g>
</g>
<g>
</g>
<g>
</g>
<g>
</g>
<g>
</g>
<g>
</g>
<g>
</g>
<g>
</g>
<g>
</g>
<g>
</g>
</svg>
