<?xml version="1.0" encoding="iso-8859-1"?>
<!-- Generator: Adobe Illustrator 19.0.0, SVG Export Plug-In . SVG Version: 6.00 Build 0)  -->
<svg xmlns="http://www.w3.org/2000/svg" xmlns:xlink="http://www.w3.org/1999/xlink" version="1.1" id="Layer_1" x="0px" y="0px" viewBox="0 0 505 505" style="enable-background:new 0 0 505 505;" xml:space="preserve">
<circle style="fill:#FD8469;" cx="252.5" cy="252.5" r="252.5"/>
<g>
	
		<ellipse transform="matrix(0.7717 -0.636 0.636 0.7717 -5.483 262.7309)" style="fill:#2C9984;" cx="363.204" cy="139.002" rx="32.1" ry="23.8"/>
	
		<ellipse transform="matrix(0.7717 0.636 -0.636 0.7717 120.8099 -58.4247)" style="fill:#2C9984;" cx="141.782" cy="139.058" rx="32.1" ry="23.8"/>
</g>
<path style="fill:#4CDBC4;" d="M400.6,291.1c0,79.6-66.3,94.9-148.1,94.9s-148.1-15.3-148.1-94.9S170.7,97.9,252.5,97.9  S400.6,211.6,400.6,291.1z"/>
<g>
	<path style="fill:#FFFFFF;" d="M254.1,291.5v39.2c0,2.8,2.3,5.2,5.2,5.2h11.4c2.4,0,4.5-1.7,5-4.1l8.6-40.2h-30.2V291.5z"/>
	<path style="fill:#FFFFFF;" d="M250.9,291.5v39.2c0,2.8-2.3,5.2-5.2,5.2h-11.4c-2.4,0-4.5-1.7-5-4.1l-8.6-40.2h30.2V291.5z"/>
</g>
<path style="fill:#E6E9EE;" d="M252.5,231.1L252.5,231.1c-12.5,0-24.2,4.3-32,11.5c-16.5,15.3-33.2,23.6-33.2,42.1  c0,14,15.3,25.4,34.1,25.4c13.9,0,25.8-6.2,31.1-15.1c5.3,8.9,17.2,15.1,31.1,15.1c18.8,0,34.1-11.4,34.1-25.4  c0-18.4-16.6-26.7-33.2-42.1C276.7,235.4,265,231.1,252.5,231.1z"/>
<g>
	<path style="fill:#324A5E;" d="M283.8,233.2c0,12.2-14,27.9-31.3,27.9s-31.3-15.7-31.3-27.9s14-16.3,31.3-16.3   C269.8,216.8,283.8,220.9,283.8,233.2z"/>
	<circle style="fill:#324A5E;" cx="305.3" cy="189.4" r="12.4"/>
	<circle style="fill:#324A5E;" cx="199.7" cy="189.4" r="12.4"/>
	<path style="fill:#324A5E;" d="M410.2,341.3c9.5,4.9,15.8,8.2,15.8,8.2s-1.4-1.1-4-2.9s-6.2-4.5-10.7-7.2   c-4.5-2.9-9.9-6.1-15.8-9.2c-5.9-3.2-12.4-6.3-18.9-9.2c-13.1-5.8-26.6-10.5-36.9-13.4c-10.3-3-17.4-4.1-17.4-4.1   s26.9,9.6,52.7,21.1C387.9,330.3,400.7,336.4,410.2,341.3z"/>
	<path style="fill:#324A5E;" d="M444.8,373.2c-3.2-2.3-7.8-5.7-13.6-9.3c-2.9-1.9-6-3.9-9.3-5.9c-3.4-2-6.8-4.3-10.6-6.2   c-7.5-4.1-15.5-8.4-23.7-12.4c-8.2-3.9-16.6-7.5-24.5-10.8s-15.4-5.9-21.9-8.1c-12.9-4.3-21.8-6.3-21.8-6.3s8.5,3.2,21.1,8.4   c6.3,2.5,13.5,5.8,21.3,9.1c7.8,3.4,16,7.2,24.1,11.2c8.2,3.8,16.3,7.9,23.8,11.8c7.5,4,14.6,7.6,20.4,11   c11.9,6.7,19.8,11.2,19.8,11.2S448,375.5,444.8,373.2z"/>
	<path style="fill:#324A5E;" d="M380.6,355.8c-3.1-2.5-6.7-5.4-10.8-8.2c-4-2.9-8.5-5.7-13.1-8.3c-9.1-5.3-18.7-9.8-26.1-12.7   c-7.4-2.9-12.5-4.2-12.5-4.2s4.6,2.5,11.5,6.2s16,8.8,25,14.1c9,5.2,17.9,10.6,24.5,14.9c6.6,4.2,11,7.1,11,7.1s-0.9-0.9-2.6-2.5   C386.1,360.6,383.8,358.2,380.6,355.8z"/>
	<path style="fill:#324A5E;" d="M130,324.6c25.9-11.5,52.7-21.1,52.7-21.1s-7.1,1.2-17.4,4.1c-10.3,2.9-23.9,7.6-36.9,13.4   c-6.5,2.9-13,6-18.9,9.2c-5.9,3.1-11.3,6.4-15.8,9.2c-4.6,2.8-8.2,5.4-10.7,7.2c-2.5,1.8-4,2.9-4,2.9s6.3-3.3,15.8-8.2   S117.1,330.3,130,324.6z"/>
	<path style="fill:#324A5E;" d="M143.2,331.7c7.8-3.4,15-6.6,21.3-9.1c12.6-5.2,21.1-8.4,21.1-8.4s-8.9,2-21.8,6.3   c-6.5,2.2-14,4.8-21.9,8.1c-7.9,3.3-16.2,6.9-24.5,10.8c-8.2,4-16.2,8.3-23.7,12.4c-3.8,2-7.3,4.2-10.6,6.2c-3.4,2-6.5,4-9.3,5.9   c-5.8,3.6-10.3,7-13.6,9.3c-3.2,2.4-5,3.7-5,3.7s7.9-4.5,19.8-11.2c5.9-3.4,13-7,20.4-11c7.5-4,15.6-8,23.8-11.8   C127.2,338.9,135.4,335.1,143.2,331.7z"/>
	<path style="fill:#324A5E;" d="M148.2,339.3c-4.5,2.7-9,5.5-13.1,8.3s-7.7,5.7-10.8,8.2c-3.1,2.4-5.5,4.8-7.1,6.3   c-1.6,1.6-2.6,2.5-2.6,2.5s4.4-2.8,11-7.1c6.6-4.2,15.5-9.7,24.5-14.9c9-5.2,18.1-10.3,25-14.1c6.9-3.7,11.5-6.2,11.5-6.2   s-5.1,1.3-12.5,4.2C166.9,329.5,157.3,333.9,148.2,339.3z"/>
</g>
<g>
</g>
<g>
</g>
<g>
</g>
<g>
</g>
<g>
</g>
<g>
</g>
<g>
</g>
<g>
</g>
<g>
</g>
<g>
</g>
<g>
</g>
<g>
</g>
<g>
</g>
<g>
</g>
<g>
</g>
</svg>
