<?xml version="1.0" encoding="iso-8859-1"?>
<!-- Generator: Adobe Illustrator 19.0.0, SVG Export Plug-In . SVG Version: 6.00 Build 0)  -->
<svg xmlns="http://www.w3.org/2000/svg" xmlns:xlink="http://www.w3.org/1999/xlink" version="1.1" id="Layer_1" x="0px" y="0px" viewBox="0 0 505 505" style="enable-background:new 0 0 505 505;" xml:space="preserve">
<circle style="fill:#90DFAA;" cx="252.5" cy="252.5" r="252.5"/>
<path style="fill:#FFFFFF;" d="M279,115.2h-52.9c-63.8,0-117.1,50.6-118,114.4c0,0.7,0,1.5,0,2.2c0,82.7,64.7,159.7,144.4,159.7  s144.4-77,144.4-159.6c0-3.2-0.1-6.4-0.3-9.5C392.8,161.5,340,115.2,279,115.2z"/>
<path style="fill:#E6E9EE;" d="M267.1,274.8h-29.3c-23.5,0-45.5,12.5-55.2,33c-3.5,7.4-5.2,14.9-4.3,21.9c2.8,26,25.7,20,49.4,6.4  c6.4-3.6,12.5-6.8,18-9.6c4.3-2.2,9.4-2.2,13.6,0c5.5,2.8,11.6,6,18,9.6c23.7,13.5,46.6,19.6,49.4-6.4c0.8-6.9-0.8-14.5-4.3-21.9  C312.6,287.3,290.6,274.8,267.1,274.8z"/>
<g>
	<path style="fill:#324A5E;" d="M372.7,190.4c12.6,32.2,15.1,50.7,28,54.3c8.6,7,64.2-2.8,19-92.4c-28-55.4-109.8-39.1-101.9-25.8   C322,136.4,360.9,154.3,372.7,190.4z"/>
	<path style="fill:#324A5E;" d="M132.3,190.4c-12.6,32.2-15.1,50.7-28,54.3c-8.6,7-64.2-2.8-19-92.4c28-55.4,109.8-39.1,101.9-25.8   C183,136.4,144.1,154.3,132.3,190.4z"/>
</g>
<g>
	<path style="fill:#E6E9EE;" d="M232.3,197.8c-2-3.5-5.1-6.3-8.1-8.9c-1.2-1-2.4-2-3.5-3c-4.9-4.2-10.2-8.3-16.5-9.8   c-3.3-0.8-6.8-0.7-10.2-0.7c-3.9,0-7.9,0.1-11.8,0.1c-4.6,0-9.5,0.2-13.2,2.9l0.6,0.5c10.2-0.9,20.6,1,29.8,5.4   c-5.8-0.1-11.6,0.6-17.2,2c-1.2,0.3-2.4,0.7-3.4,1.4c-1.3,1-2.1,2.5-3.1,3.9c-1.5,2-3.7,3.6-4.8,5.9c-1.1,2.3-0.3,5.8,2.2,6.2   c-0.3,1.6-0.7,3.3-1,4.9c5.5,0.5,10.9,1.1,16.4,1.6c1.3,0.1,2.6,0.3,3.8,0.8c1.4,0.6,2.6,1.8,3.7,2.9c2.5,2.4,5.5,4.4,8.8,5.3   c6.1,1.7,13.6,0,18.2,4.4c2.5,2.4,3.4,6.1,3.2,9.5c-0.1,3.5-1.1,6.8-1.7,10.2c-1.3,6.9-1.2,14.1,0.2,21c0.3,1.2,1.4,2.7,2.3,1.9   c-0.6-9.7,0.8-19.5,4-28.7c0.8-2.4,1.8-4.7,2.4-7.2c0.9-3.5,1.3-7.1,1.6-10.7C235.4,212.2,235.9,204.2,232.3,197.8z M222.2,207.5   c-2.1,1.5-4.3,2.9-6.6,4c-1,0.5-2.1,0.9-3.2,1.2c-1.3,0.3-2.6,0.3-3.8,0.4c-3.7,0.1-7.5,0.3-10.9-0.9c-1.6-0.5-3-1.3-4.5-2.1   c-1.9-1-3.8-2.1-5.5-3.5c-2.3-2-4-4.5-5.6-7c-1.2-1.9-2.4-3.7-3.7-5.6l-0.2-0.1c1-0.9,2.2-1.5,3.5-2c2.1-0.9,4.1-1.9,6.2-2.8   c1-0.4,2-0.9,3-1.2c1.5-0.4,3.1-0.4,4.7-0.5c2.2,0,4.5,0,6.7,0.4c1.6,0.3,3.1,0.7,4.6,1.3c7.2,3,12.1,9.6,15.8,16.4   c0.2,0.4,0.4,0.8,0.3,1.2C222.8,207,222.5,207.3,222.2,207.5z"/>
	<path style="fill:#E6E9EE;" d="M270.2,219.6c0.3,3.6,0.6,7.2,1.6,10.7c0.7,2.4,1.6,4.8,2.4,7.2c3.2,9.2,4.5,19,4,28.7   c0.9,0.8,2.1-0.7,2.3-1.9c1.4-6.9,1.5-14,0.2-21c-0.6-3.4-1.6-6.8-1.7-10.2c-0.1-3.5,0.7-7.1,3.2-9.5c4.6-4.4,12.1-2.7,18.2-4.4   c3.3-0.9,6.3-3,8.8-5.3c1.2-1.1,2.3-2.2,3.7-2.9c1.2-0.5,2.5-0.7,3.8-0.8c5.5-0.5,10.9-1.1,16.4-1.6c-0.3-1.6-0.7-3.3-1-4.9   c2.5-0.4,3.3-3.9,2.2-6.2c-1.1-2.3-3.3-3.9-4.8-5.9c-1-1.3-1.8-2.9-3.1-3.9c-1-0.7-2.2-1.1-3.4-1.4c-5.6-1.4-11.4-2.1-17.2-2   c9.2-4.4,19.6-6.3,29.8-5.4l0.6-0.5c-3.7-2.7-8.6-2.9-13.2-2.9c-3.9,0-7.9-0.1-11.8-0.1c-3.4,0-6.9-0.1-10.2,0.7   c-6.3,1.5-11.6,5.6-16.5,9.8c-1.2,1-2.4,2-3.5,3c-3.1,2.6-6.1,5.4-8.1,8.9C269.1,204.2,269.6,212.2,270.2,219.6z M282.1,206.7   c-0.1-0.4,0.1-0.8,0.3-1.2c3.7-6.8,8.7-13.5,15.8-16.4c1.5-0.6,3-1.1,4.6-1.3c2.2-0.4,4.5-0.4,6.7-0.4c1.6,0,3.2,0,4.7,0.5   c1,0.3,2,0.7,3,1.2c2.1,0.9,4.1,1.9,6.2,2.8c1.2,0.6,2.5,1.1,3.5,2l-0.2,0.1c-1.2,1.9-2.4,3.7-3.7,5.6c-1.6,2.5-3.3,5.1-5.6,7   c-1.7,1.4-3.6,2.5-5.5,3.5c-1.5,0.8-2.9,1.6-4.5,2.1c-3.5,1.2-7.3,1.1-10.9,0.9c-1.3,0-2.6-0.1-3.8-0.4c-1.1-0.3-2.2-0.7-3.2-1.2   c-2.3-1.1-4.6-2.4-6.6-4C282.5,207.3,282.2,207,282.1,206.7z"/>
</g>
<path style="fill:#324A5E;" d="M193.4,186.8c-3.6,2.4-5.9,6.5-5.9,11.2c0,7.5,6,13.5,13.5,13.5s13.5-6,13.5-13.5  c0-1.8-0.4-3.5-1-5.1C206.8,190.7,200.6,186.8,193.4,186.8z"/>
<path style="fill:#CED5E0;" d="M176.9,193.7L176.9,193.7c8.5,21.4,30.1,27.2,48.2,13l0,0C216.5,185.3,195,179.5,176.9,193.7z   M222.4,205.9c-15.6,10.7-34.8,5.5-42.9-11.5l0,0C195.1,183.7,214.3,188.9,222.4,205.9L222.4,205.9z"/>
<ellipse style="fill:#2B3B4E;" cx="200.9" cy="199" rx="5.4" ry="5.8"/>
<path style="fill:#324A5E;" d="M311.6,186.8c3.6,2.4,5.9,6.5,5.9,11.2c0,7.5-6,13.5-13.5,13.5s-13.5-6-13.5-13.5  c0-1.8,0.4-3.5,1-5.1C298.2,190.7,304.4,186.8,311.6,186.8z"/>
<path style="fill:#CED5E0;" d="M279.9,206.6L279.9,206.6c18.1,14.2,39.7,8.4,48.2-13l0,0C310,179.5,288.5,185.3,279.9,206.6z   M282.6,205.9c8.1-17.1,27.4-22.2,42.9-11.5l0,0C317.4,211.5,298.2,216.6,282.6,205.9L282.6,205.9z"/>
<ellipse style="fill:#2B3B4E;" cx="304.1" cy="199" rx="5.4" ry="5.8"/>
<ellipse style="fill:#324A5E;" cx="252.5" cy="266.5" rx="29" ry="21.2"/>
<g>
	<path style="fill:#2B3B4E;" d="M272.6,259.9c-0.4-0.6-0.9-1.2-1.4-1.7c-0.8,1-1.8,1.9-2.9,2.7c-4,2.8-8.9,3.1-11.8,1.1   c0,2.4,0.8,5,2.4,7.4c3.4,5,9.3,6.8,13.1,4.2C275.8,271,276.1,264.9,272.6,259.9z"/>
	<path style="fill:#2B3B4E;" d="M232.4,259.9c0.4-0.6,0.9-1.2,1.4-1.7c0.8,1,1.8,1.9,2.9,2.7c4.1,2.8,8.9,3.1,11.8,1.1   c0,2.4-0.8,5-2.4,7.4c-3.4,5-9.3,6.8-13.1,4.2C229.2,271,228.9,264.9,232.4,259.9z"/>
</g>
<g>
</g>
<g>
</g>
<g>
</g>
<g>
</g>
<g>
</g>
<g>
</g>
<g>
</g>
<g>
</g>
<g>
</g>
<g>
</g>
<g>
</g>
<g>
</g>
<g>
</g>
<g>
</g>
<g>
</g>
</svg>
