<?xml version="1.0" encoding="iso-8859-1"?>
<!-- Generator: Adobe Illustrator 19.0.0, SVG Export Plug-In . SVG Version: 6.00 Build 0)  -->
<svg xmlns="http://www.w3.org/2000/svg" xmlns:xlink="http://www.w3.org/1999/xlink" version="1.1" id="Layer_1" x="0px" y="0px" viewBox="0 0 505 505" style="enable-background:new 0 0 505 505;" xml:space="preserve">
<circle style="fill:#324A5E;" cx="252.5" cy="252.5" r="252.5"/>
<g>
	<path style="fill:#E6E9EE;" d="M391.2,98L391.2,98c-8.6-5.2-19.4-5.9-28.5-1.5c-12.6,6-21.5,12.4-31.1,26.8   c-15.6,24-37.8,64.6-42.4,96.7l0,0l0,0c33,1.6,78.5-32.7,95.6-62.7C398.3,134.3,397.4,119.4,391.2,98z"/>
	<path style="fill:#E6E9EE;" d="M113.8,98L113.8,98c8.6-5.2,19.4-5.9,28.5-1.5c12.6,6,21.5,12.4,31.1,26.8   c15.6,24,37.8,64.6,42.4,96.7l0,0l0,0c-33,1.6-78.5-32.7-95.6-62.7C106.7,134.3,107.6,119.4,113.8,98z"/>
</g>
<path style="fill:#FF7058;" d="M336,278.5c0,51.4-37.4,151.4-83.5,151.4S169,330,169,278.5s37.4-103,83.5-103S336,227.1,336,278.5z"/>
<path style="fill:#FFD05B;" d="M324.3,371.4c2.6-3.1,4.3-7,4.3-11.3c0-9.6-7.8-17.4-17.4-17.4c-4.3,0-8.2,1.6-11.3,4.3  c-13.1-7.5-29.5-12.1-47.4-12.1s-34.3,4.5-47.4,12.1c-3-2.6-7-4.3-11.3-4.3c-9.6,0-17.4,7.8-17.4,17.4c0,4.3,1.6,8.3,4.3,11.3  c-3.2,6.2-5,12.8-5,19.8c0,31.1,34.4,56.4,76.8,56.4s76.8-25.2,76.8-56.4C329.3,384.2,327.4,377.6,324.3,371.4z"/>
<g>
	<path style="fill:#F9B54C;" d="M301.3,401.2c-3.2,17.7-23.9,31.2-48.8,31.2c-25,0-45.6-13.6-48.8-31.3   c12.1,9.7,29.5,15.8,48.8,15.8C271.8,416.9,289.2,410.8,301.3,401.2z"/>
	<circle style="fill:#F9B54C;" cx="311.2" cy="360.1" r="7.8"/>
	<circle style="fill:#F9B54C;" cx="193.8" cy="360.1" r="7.8"/>
</g>
<g>
	<circle style="fill:#2B3B4E;" cx="289.5" cy="239.9" r="10.7"/>
	<circle style="fill:#2B3B4E;" cx="215.5" cy="239.9" r="10.7"/>
</g>
<g>
</g>
<g>
</g>
<g>
</g>
<g>
</g>
<g>
</g>
<g>
</g>
<g>
</g>
<g>
</g>
<g>
</g>
<g>
</g>
<g>
</g>
<g>
</g>
<g>
</g>
<g>
</g>
<g>
</g>
</svg>
