<?xml version="1.0" encoding="iso-8859-1"?>
<!-- Generator: Adobe Illustrator 19.0.0, SVG Export Plug-In . SVG Version: 6.00 Build 0)  -->
<svg xmlns="http://www.w3.org/2000/svg" xmlns:xlink="http://www.w3.org/1999/xlink" version="1.1" id="Layer_1" x="0px" y="0px" viewBox="0 0 505 505" style="enable-background:new 0 0 505 505;" xml:space="preserve">
<circle style="fill:#FFD05B;" cx="252.5" cy="252.5" r="252.5"/>
<path style="fill:#E6E9EE;" d="M224.7,426.4h55.6c38.1,0,74.7-17.2,97.1-48c12.9-17.8,20.3-38.6,20.3-60.8c0-12.1-2.2-23.8-6.3-34.8  c-7.1-19.3-11.5-39.4-11.5-60v-5c0-0.5,0-0.9,0-1.4c-0.4-65-54.3-117.1-119.3-117.1h-16.2c-65,0-118.9,52.1-119.3,117.1  c0,0.5,0,0.9,0,1.4v4.9c0,20.5-4.3,40.7-11.5,60c-4.1,11-6.3,22.7-6.3,34.8c0,22.2,7.4,43,20.3,60.8  C149.9,409.2,186.6,426.4,224.7,426.4z"/>
<g>
	<path style="fill:#FF7058;" d="M318.1,74.3c-7.9-8.1-28.9-13.5-45.1,4c-0.4-23.3-8.4-31.3-20.6-31.4c-12.1,0-20.2,8.1-20.6,31.4   c-16.2-17.4-37.2-12-45.1-4c-11.5,11.8,11.4,35.7,32.4,59.7c16.2,18.3,27,31.8,32.9,32c0.1,0,0.1,0,0.2,0c0.1,0,0.1,0,0.2,0   c0.1,0,0.1,0,0.2,0s0.1,0,0.2,0c6-0.2,16.7-13.8,32.9-32C306.8,110,329.6,86.1,318.1,74.3z"/>
	<path style="fill:#FF7058;" d="M305.4,412.6c-7.1-30-34.1-75.1-52.9-69.6c-18.8-5.6-45.7,39.6-52.8,69.6   c-6.3,26.4,4.4,35.5,18.2,41.7c13.1,6,24.8,7.3,34.7-14.9c9.9,22.2,21.6,20.9,34.7,14.9C300.9,448.1,311.6,439,305.4,412.6z"/>
</g>
<g>
	<path style="fill:#F9B54C;" d="M313,328.3c0,0-23.2,59.2-47.8,55.5l13.2-55.5H313z"/>
	<path style="fill:#F9B54C;" d="M192,328.3c0,0,23.2,59.2,47.8,55.5l-13.2-55.5H192z"/>
</g>
<path style="fill:#FFD05B;" d="M318.5,328.6c0-5-6.1-9.5-16.2-13c-7.5-2.6-13.8-7.7-18.1-14.3c-6.1-9.4-18-15.8-31.7-15.8  s-25.6,6.4-31.7,15.8c-4.3,6.6-10.6,11.7-18.1,14.3c-10.1,3.5-16.2,8-16.2,13c0,4.8,5.8,9.3,15.4,12.7c6.6,2.4,11.8,7.5,14.4,14  c13.9,35.6,26.5,50,36.2,50c9.7,0,22.3-14.3,36.2-50c2.5-6.5,7.8-11.7,14.4-14C312.7,337.9,318.5,333.5,318.5,328.6z"/>
<g>
	<ellipse style="fill:#324A5E;" cx="269.2" cy="317.7" rx="5.5" ry="10.6"/>
	<ellipse style="fill:#324A5E;" cx="235.8" cy="317.7" rx="5.5" ry="10.6"/>
</g>
<ellipse style="fill:#FFFFFF;" cx="310.3" cy="224.4" rx="24.6" ry="38.5"/>
<ellipse style="fill:#84DBFF;" cx="310.3" cy="231.5" rx="15.7" ry="24.6"/>
<ellipse style="fill:#324A5E;" cx="308.9" cy="230.4" rx="7" ry="11.1"/>
<g>
	<circle style="fill:#FFFFFF;" cx="306.7" cy="221.8" r="4.8"/>
	<ellipse style="fill:#FFFFFF;" cx="194.7" cy="224.4" rx="24.6" ry="38.5"/>
</g>
<ellipse style="fill:#84DBFF;" cx="194.7" cy="231.5" rx="15.7" ry="24.6"/>
<ellipse style="fill:#324A5E;" cx="196.1" cy="230.4" rx="7" ry="11.1"/>
<circle style="fill:#FFFFFF;" cx="198.3" cy="221.8" r="4.8"/>
<g>
</g>
<g>
</g>
<g>
</g>
<g>
</g>
<g>
</g>
<g>
</g>
<g>
</g>
<g>
</g>
<g>
</g>
<g>
</g>
<g>
</g>
<g>
</g>
<g>
</g>
<g>
</g>
<g>
</g>
</svg>
