<?xml version="1.0" encoding="iso-8859-1"?>
<!-- Generator: Adobe Illustrator 19.0.0, SVG Export Plug-In . SVG Version: 6.00 Build 0)  -->
<svg xmlns="http://www.w3.org/2000/svg" xmlns:xlink="http://www.w3.org/1999/xlink" version="1.1" id="Layer_1" x="0px" y="0px" viewBox="0 0 505 505" style="enable-background:new 0 0 505 505;" xml:space="preserve">
<path style="fill:#54C0EB;" d="M0,252.5C0,113,113,0,252.5,0C391.9,0,505,113,505,252.5S391.9,505,252.5,505C113,505,0,392,0,252.5z  "/>
<path style="fill:#FFFFFF;" d="M385.9,240.8c0-76.2-59.7-138-133.4-138s-133.4,61.8-133.4,138c0,43.8,19.7,82.7,50.4,108  c13,10.7,24.2,23.9,31.2,40.1c11.4,26.3,30.3,43.6,51.8,43.6s40.4-17.3,51.8-43.6c7-16.2,18.3-29.4,31.2-40.1  C366.2,323.6,385.9,284.6,385.9,240.8z"/>
<g>
	<path style="fill:#E6E9EE;" d="M286.2,207.4c13.9-1.7,29.3-1.8,40.5,6.6c10.1,7.7,14.5,21.1,14.2,33.8s-4.7,24.9-9.3,36.8   c-10.4,26.8-22.1,53.1-35.1,78.8c6.1-31.1-8.4-62.1-19.3-91.9c-5.1-13.9-9.5-28.2-10.6-43c-0.4-4.5-0.3-9.3,2-13.1   C272.2,209.8,279.6,208.2,286.2,207.4z"/>
	<path style="fill:#E6E9EE;" d="M218.8,207.4c-13.9-1.7-29.3-1.8-40.5,6.6c-10.1,7.7-14.5,21.1-14.2,33.8s4.7,24.9,9.3,36.8   c10.4,26.8,22.1,53.1,35.1,78.8c-6.1-31.1,8.4-62.1,19.3-91.9c5.1-13.9,9.5-28.2,10.6-43c0.4-4.5,0.3-9.3-2-13.1   C232.8,209.8,225.4,208.2,218.8,207.4z"/>
</g>
<g>
	<path style="fill:#324A5E;" d="M279.6,377.8c0,12.1-12.1,26.6-27.1,26.6s-27.1-14.5-27.1-26.6s12.1-17.2,27.1-17.2   C267.5,360.5,279.6,365.7,279.6,377.8z"/>
	<path style="fill:#324A5E;" d="M367.2,139.9c-5.6-4.4-13-5.5-19.8-5s-13.7,4-17.4,10.4c13.8,10.4,23.5,26.5,29.3,43.8   s8,35.9,8.9,54.4c0.4,7.4,0.5,14.9-0.5,22.2c-3.2,23.3-17.6,42.3-28.1,62.8c-11.8,23.2-18.8,49.3-20.2,75.9c-0.2,3.1,0,6.8,2.4,8.4   c2.1,1.4,4.7,0.3,6.9-0.9c6.4-3.6,12.2-8.6,16.9-14.6c0.4-0.5,0.9-1.1,1.6-1.3c1-0.2,1.9,0.7,2.6,1.5c4.7,5.1,11,8.4,17.6,8.5   s13.2-3.3,17-9.3C389.4,388.7,510.1,250.8,367.2,139.9z"/>
	<path style="fill:#324A5E;" d="M137.8,139.9c5.6-4.4,13-5.5,19.8-5s13.7,4,17.4,10.4c-13.8,10.4-23.5,26.5-29.3,43.8   s-8,35.9-8.9,54.4c-0.4,7.4-0.5,14.9,0.5,22.2c3.2,23.3,17.6,42.3,28.1,62.8c11.8,23.2,18.8,49.3,20.2,75.9c0.2,3.1,0,6.8-2.4,8.4   c-2.1,1.4-4.7,0.3-6.9-0.9c-6.4-3.6-12.2-8.6-16.9-14.6c-0.4-0.5-0.9-1.1-1.6-1.3c-1-0.2-1.9,0.7-2.6,1.5c-4.7,5.1-11,8.4-17.6,8.5   s-13.2-3.3-17-9.3C115.6,388.7-5.1,250.8,137.8,139.9z"/>
</g>
<path style="fill:#E6E9EE;" d="M358.3,174.8c2,6.2,1,9.9-3.1,9.6c-4.2-0.4-10.7-4.4-17.6-9.4c-0.5,3.6-4,4.7-10,2.9  c-6.1-1.8-13.3-5.7-20.2-9.8c-2.8,2.1-8.2,2.2-15.3,0.8c-7.1-1.4-14.5-3.9-20.6-6.6c-4.7,1.8-11.4,2.7-19,2.7  c-7.5,0-14.2-0.9-19-2.7c-6.1,2.8-13.5,5.2-20.6,6.6c-7.1,1.4-12.5,1.2-15.4-0.8c-6.9,4.2-14.1,8-20.1,9.8s-9.4,0.7-10-2.8  c-7,5-13.4,8.9-17.6,9.3c-4.2,0.4-5.2-3.3-3.1-9.6c-6.3,4.3-11.3,6.2-13,3.3s0.4-10.1,5.3-18.4c-4.8,1.6-7.2-0.4-5.5-6.9  c1.8-6.5,7.4-15.6,15.1-23.7c-2-2.3-0.6-7.9,5.2-15.8c5.8-7.8,15-15.5,24.5-20.4c2-4.7,7.9-11.1,17.5-16.5s20.6-8.2,29.5-8.1  c6.2-3.9,15.9-7,27-7c11.2,0,20.9,3.1,27,7c9.1,0,20.1,2.7,29.6,8.2c9.6,5.4,15.5,11.9,17.4,16.5c9.5,4.9,18.7,12.6,24.6,20.4  s7.2,13.5,5.1,15.7c7.7,8.1,13.4,17.3,15.2,23.8c1.7,6.4-0.7,8.4-5.5,6.9c4.9,8.3,6.9,15.5,5.3,18.3  C369.5,181,364.7,179.1,358.3,174.8z"/>
<path style="fill:#FFFFFF;" d="M290,255.5c1.3,10.7,9.6,18.9,18.5,18.5c8.9-0.5,15-9.5,13.7-20.1c-1.3-10.7-9.6-18.9-18.5-18.5  C294.8,235.9,288.6,244.9,290,255.5z"/>
<path style="fill:#F9B54C;" d="M292.6,258.4c0.9,6.9,7.2,12.2,14.2,11.9c7-0.4,11.9-6.2,11.1-13.2c-0.9-6.9-7.2-12.2-14.2-11.9  C296.7,245.6,291.8,251.5,292.6,258.4z"/>
<path style="fill:#2B3B4E;" d="M298.9,258.1c0.4,3.5,3.7,6.2,7.2,6s6.1-3.2,5.6-6.7c-0.4-3.5-3.7-6.2-7.2-6  C301,251.6,298.4,254.6,298.9,258.1z"/>
<path style="fill:#FFFFFF;" d="M300.4,250c-0.9,1.6,0,3.3,2,3.8c2.1,0.5,4.5-0.4,5.4-2s0-3.3-2-3.8  C303.7,247.6,301.3,248.5,300.4,250z"/>
<path style="fill:#324A5E;" d="M288.6,228.3c0,0,2.5-1.1,5.9-1.9c0.8-0.3,1.8-0.3,2.7-0.6c1-0.1,1.9-0.3,2.9-0.3c1-0.1,2,0,3,0  s2.1,0.2,3.1,0.3c1,0.3,2.1,0.4,3.1,0.7c1,0.4,2.1,0.5,3,1c1,0.4,2,0.8,2.9,1.1c0.9,0.5,1.8,0.8,2.6,1.2c1.7,0.7,3,1.5,4.1,1.9  c1,0.4,1.7,0.7,1.7,0.7s-0.3-0.6-0.8-1.6c-0.3-0.5-0.6-1.1-1.1-1.8c-0.4-0.7-0.9-1.4-1.6-2.1c-0.7-0.7-1.4-1.5-2.2-2.3  c-0.9-0.7-1.9-1.4-2.9-2.2s-2.3-1.2-3.5-1.8s-2.7-0.8-4-1.2c-1.4-0.1-2.8-0.4-4.2-0.2c-1.4,0.1-2.8,0.3-4,0.7  c-1.3,0.3-2.4,0.9-3.5,1.4c-1,0.6-2,1.2-2.8,1.9c-1.6,1.2-2.6,2.6-3.3,3.6C288.8,227.7,288.6,228.3,288.6,228.3z"/>
<path style="fill:#FFFFFF;" d="M215,255.5c-1.3,10.7-9.6,18.9-18.5,18.5c-8.9-0.5-15-9.5-13.7-20.1c1.3-10.7,9.6-18.9,18.5-18.5  C210.2,235.9,216.4,244.9,215,255.5z"/>
<path style="fill:#F9B54C;" d="M212.4,258.4c-0.9,6.9-7.2,12.2-14.2,11.9c-7-0.4-11.9-6.2-11.1-13.2c0.9-6.9,7.2-12.2,14.2-11.9  C208.3,245.6,213.2,251.5,212.4,258.4z"/>
<path style="fill:#2B3B4E;" d="M206.1,258.1c-0.4,3.5-3.7,6.2-7.2,6s-6.1-3.2-5.6-6.7c0.4-3.5,3.7-6.2,7.2-6  C204,251.6,206.6,254.6,206.1,258.1z"/>
<path style="fill:#FFFFFF;" d="M204.6,250c0.9,1.6,0,3.3-2,3.8c-2.1,0.5-4.5-0.4-5.4-2s0-3.3,2-3.8  C201.3,247.6,203.7,248.5,204.6,250z"/>
<path style="fill:#324A5E;" d="M216.4,228.3c0,0-2.5-1.1-5.9-1.9c-0.8-0.3-1.8-0.3-2.7-0.6c-1-0.1-1.9-0.3-2.9-0.3c-1-0.1-2,0-3,0  s-2.1,0.2-3.1,0.3c-1,0.3-2.1,0.4-3.1,0.7c-1,0.4-2.1,0.5-3,1c-1,0.4-2,0.8-2.9,1.1c-0.9,0.5-1.8,0.8-2.6,1.2  c-1.7,0.7-3,1.5-4.1,1.9c-1,0.4-1.7,0.7-1.7,0.7s0.3-0.6,0.8-1.6c0.3-0.5,0.6-1.1,1.1-1.8c0.4-0.7,0.9-1.4,1.6-2.1  c0.7-0.7,1.4-1.5,2.2-2.3c0.9-0.7,1.9-1.4,2.9-2.2s2.3-1.2,3.5-1.8s2.7-0.8,4-1.2c1.4-0.1,2.8-0.4,4.2-0.2c1.4,0.1,2.8,0.3,4,0.7  c1.3,0.3,2.4,0.9,3.5,1.4c1,0.6,2,1.2,2.8,1.9c1.6,1.2,2.6,2.6,3.3,3.6C216.2,227.7,216.4,228.3,216.4,228.3z"/>
<g>
</g>
<g>
</g>
<g>
</g>
<g>
</g>
<g>
</g>
<g>
</g>
<g>
</g>
<g>
</g>
<g>
</g>
<g>
</g>
<g>
</g>
<g>
</g>
<g>
</g>
<g>
</g>
<g>
</g>
</svg>
