<?xml version="1.0" encoding="iso-8859-1"?>
<!-- Generator: Adobe Illustrator 19.0.0, SVG Export Plug-In . SVG Version: 6.00 Build 0)  -->
<svg xmlns="http://www.w3.org/2000/svg" xmlns:xlink="http://www.w3.org/1999/xlink" version="1.1" id="Layer_1" x="0px" y="0px" viewBox="0 0 505 505" style="enable-background:new 0 0 505 505;" xml:space="preserve">
<circle style="fill:#FD8469;" cx="252.5" cy="252.5" r="252.5"/>
<path style="fill:#FFD05B;" d="M406.3,230.7c-31,23.1-70.6,21-93-1.3c-22.4-22.4-24.4-62.1-1.3-93c27.7-37.2,79.9-48,111.1-16.8  C454.2,150.8,443.5,203,406.3,230.7z"/>
<path style="fill:#F9B54C;" d="M390.1,224.7c-23.1,18.4-54.1,17.3-71.7-0.4c-17.7-17.7-18.8-48.7-0.4-71.7  c21.2-26.5,59.2-32.7,82-9.9C422.8,165.4,416.6,203.5,390.1,224.7z"/>
<path style="fill:#FFD05B;" d="M98.7,230.7c31,23.1,70.6,21,93-1.3c22.4-22.4,24.4-62.1,1.3-93c-27.7-37.2-79.9-48-111.1-16.8  C50.8,150.8,61.5,203,98.7,230.7z"/>
<path style="fill:#F9B54C;" d="M114.9,224.7c23.1,18.4,54.1,17.3,71.7-0.4c17.7-17.7,18.8-48.7,0.4-71.7  c-21.2-26.5-59.2-32.7-82-9.9C82.2,165.4,88.4,203.5,114.9,224.7z"/>
<path style="fill:#FFD05B;" d="M372.5,336.5c-10-12.8-14.3-29.1-12.4-45.2c0.5-4.4,0.8-8.9,0.8-13.4c0-62.4-48.5-113.1-108.3-113.1  s-108.3,50.6-108.3,113.1c0,4.5,0.3,9,0.8,13.4c1.8,16.1-2.4,32.5-12.4,45.2c-5.8,7.4-9,15.6-9,24c0,36.1,57.7,78,129,78  s129-41.9,129-78C381.5,352,378.3,343.9,372.5,336.5z"/>
<path style="fill:#F9B54C;" d="M293.4,345.5c-2.8,5.3-8.6,9.2-14.9,12c-8.2,3.6-17.1,5.3-25.9,5.3c-8.9,0-17.7-1.7-25.9-5.3  c-6.4-2.8-12.2-6.6-14.9-12c0,0-6.1,3.1-7.1,5.1c0,0,10.4,4.9,12.3,17.5c0,0,0.1,2.5,1.2,6.2c4.2,14.3,17.7,23.8,32.5,23.8h3.9  c14.9,0,28.4-9.5,32.5-23.8c1.1-3.7,1.2-6.2,1.2-6.2c2-12.6,12.3-17.5,12.3-17.5C299.5,348.6,293.4,345.5,293.4,345.5z"/>
<g>
	<path style="fill:#FFFFFF;" d="M268.9,360.7l-2.8,23.4c-0.2,1.8-1.8,3.2-3.7,3.2h-5.6c-2,0-3.7-1.6-3.7-3.7v-20.9   C258.4,362.7,263.7,362.1,268.9,360.7z"/>
	<path style="fill:#FFFFFF;" d="M251.9,362.7v20.9c0,2.1-1.6,3.7-3.7,3.7h-5.6c-1.9,0-3.5-1.4-3.7-3.2l-2.8-23.4   C241.3,362.1,246.6,362.7,251.9,362.7z"/>
</g>
<path style="fill:#324A5E;" d="M281.7,320.1c0,11.7-13.1,25.4-29.2,25.4s-29.2-13.7-29.2-25.4c0-11.7,13.1-17.1,29.2-17.1  S281.7,308.3,281.7,320.1z"/>
<path style="fill:#FFFFFF;" d="M318.5,259.8c3.6,14.6-3.5,24.9-14.7,27.6c-11.2,2.8-22.3-3.1-25.9-17.7s1.7-32.4,12.9-35.1  C302,231.9,314.9,245.3,318.5,259.8z"/>
<ellipse style="fill:#84DBFF;" cx="297.3" cy="266.1" rx="11.8" ry="13"/>
<ellipse style="fill:#324A5E;" cx="297.3" cy="267.2" rx="7.1" ry="8.8"/>
<g>
	
		<ellipse transform="matrix(0.5097 -0.8603 0.8603 0.5097 -82.0361 380.3527)" style="fill:#FFFFFF;" cx="292.704" cy="262.155" rx="4.9" ry="2.1"/>
	<ellipse style="fill:#FFFFFF;" cx="297.3" cy="266.6" rx="1.5" ry="1.6"/>
</g>
<path style="fill:#324A5E;" d="M278.9,221.9c0,0,2.4-2.2,7-3.6c1.1-0.4,2.4-0.7,3.8-0.9c1.4-0.1,2.8-0.4,4.4-0.3  c1.5,0,3.1,0.1,4.7,0.4c1.6,0.2,3.1,0.8,4.7,1.2c1.5,0.6,3,1.3,4.4,2.1c1.4,0.9,2.7,1.7,3.9,2.7c1.2,1,2.2,2,3.2,2.9  c0.9,1,1.7,2,2.5,3c1.6,1.8,2.3,3.7,3,4.8c0.6,1.2,1,1.9,1,1.9s-0.6-0.5-1.6-1.4c-1.1-0.9-2.3-2.3-4.1-3.7c-0.9-0.7-1.8-1.5-2.8-2.3  c-1.1-0.7-2.2-1.4-3.3-2.3c-1.1-0.7-2.4-1.3-3.6-2.1c-1.3-0.6-2.6-1.2-3.9-1.7c-1.4-0.4-2.7-1-4.1-1.2c-0.7-0.1-1.4-0.3-2-0.5  c-0.7-0.1-1.4-0.2-2-0.3c-2.7-0.3-5.3-0.3-7.5-0.1C281.9,221.1,278.9,221.9,278.9,221.9z"/>
<path style="fill:#FFFFFF;" d="M186.5,259.8c-3.6,14.6,3.5,24.9,14.7,27.6c11.2,2.8,22.3-3.1,25.9-17.7c3.6-14.6-1.7-32.4-12.9-35.1  C203,231.9,190.1,245.3,186.5,259.8z"/>
<ellipse style="fill:#84DBFF;" cx="207.7" cy="266.1" rx="11.8" ry="13"/>
<ellipse style="fill:#324A5E;" cx="207.7" cy="267.2" rx="7.1" ry="8.8"/>
<g>
	
		<ellipse transform="matrix(0.5097 0.8603 -0.8603 0.5097 329.6422 -54.0333)" style="fill:#FFFFFF;" cx="212.23" cy="262.212" rx="4.9" ry="2.1"/>
	<ellipse style="fill:#FFFFFF;" cx="207.7" cy="266.6" rx="1.5" ry="1.6"/>
</g>
<path style="fill:#324A5E;" d="M226.1,221.9c0,0-2.4-2.2-7-3.6c-1.1-0.4-2.4-0.7-3.8-0.9c-1.4-0.1-2.8-0.4-4.4-0.3  c-1.5,0-3.1,0.1-4.7,0.4c-1.6,0.2-3.1,0.8-4.7,1.2c-1.5,0.6-3,1.3-4.4,2.1c-1.4,0.9-2.7,1.7-3.9,2.7c-1.1,1-2.2,2-3.2,2.9  c-0.9,1-1.7,2-2.5,3c-1.6,1.8-2.3,3.7-3,4.8c-0.6,1.2-1,1.9-1,1.9s0.6-0.5,1.6-1.4c1.1-0.9,2.3-2.3,4.1-3.7c0.9-0.7,1.8-1.5,2.8-2.3  c1.1-0.7,2.2-1.4,3.3-2.3c1.1-0.7,2.4-1.3,3.6-2.1c1.3-0.6,2.6-1.2,3.9-1.7c1.4-0.4,2.7-1,4.1-1.2c0.7-0.1,1.4-0.3,2-0.5  c0.7-0.1,1.4-0.2,2-0.3c2.7-0.3,5.3-0.3,7.5-0.1C223.1,221.1,226.1,221.9,226.1,221.9z"/>
<g>
</g>
<g>
</g>
<g>
</g>
<g>
</g>
<g>
</g>
<g>
</g>
<g>
</g>
<g>
</g>
<g>
</g>
<g>
</g>
<g>
</g>
<g>
</g>
<g>
</g>
<g>
</g>
<g>
</g>
</svg>
