<?xml version="1.0" encoding="iso-8859-1"?>
<!-- Generator: Adobe Illustrator 19.0.0, SVG Export Plug-In . SVG Version: 6.00 Build 0)  -->
<svg xmlns="http://www.w3.org/2000/svg" xmlns:xlink="http://www.w3.org/1999/xlink" version="1.1" id="Layer_1" x="0px" y="0px" viewBox="0 0 505 505" style="enable-background:new 0 0 505 505;" xml:space="preserve">
<circle style="fill:#90DFAA;" cx="252.5" cy="252.5" r="252.5"/>
<path style="fill:#E6E9EE;" d="M345.1,70.9c-15.3,13.2-35.1,35.2-55.4,70.8c-8.3,14.6-12.9,29.6-12.5,43c0.1,4.9-1,11.1-5.3,17.6  c-0.9,1.4-1.9,2.8-3.1,4.2c-0.6,0.8-1.3,1.5-2,2.3l1.6-0.6l2.8-1l23.9-8.5l4-1.4c0,0,14.1-3.7,18.5-6.5  c68.3-44.7,18.3-99.8,44-127.4c0.6-0.6,0.9-1.2,1-1.8c0.5-1.9-1.4-3.1-3.7-1.5C354.9,62.9,350.2,66.4,345.1,70.9z"/>
<path style="fill:#FFFFFF;" d="M345.1,70.9c-114.6,87.2-68.8,124.9-73.1,131.5c-0.9,1.9-2,3.9-3.5,5.9c-0.5,0.7-1,1.3-1.5,2  c0.8,0.3,1.7,0.6,2.6,0.9c7.8,2.2,16.2,0.5,24.9-8.1c0.9-0.9,1.9-1.8,2.8-2.9c0.8-0.9,1.5-1.8,2.1-2.8c10.5-16.8-6-42.1,34.6-106.6  c8-12.8,20.6-22.5,28.9-29.1c0.5-1.9-1.4-3.1-3.7-1.5C354.9,62.9,350.5,66.8,345.1,70.9z"/>
<path style="fill:#E6E9EE;" d="M159.9,70.9c15.3,13.2,35.1,35.2,55.4,70.8c8.3,14.6,12.9,29.6,12.5,43c-0.1,4.9,1,11.1,5.3,17.6  c0.9,1.4,1.9,2.8,3.1,4.2c0.6,0.8,1.3,1.5,2,2.3l-1.6-0.6l-2.8-1l-23.9-8.5l-4-1.4c0,0-14.1-3.7-18.5-6.5  c-68.3-44.7-18.3-99.8-44-127.4c-0.6-0.6-0.9-1.2-1-1.8c-0.5-1.9,1.4-3.1,3.7-1.5C150.1,62.9,154.8,66.4,159.9,70.9z"/>
<path style="fill:#FFFFFF;" d="M159.9,70.9c114.6,87.2,68.8,124.9,73.1,131.5c0.9,1.9,2,3.9,3.5,5.9c0.5,0.7,1,1.3,1.5,2  c-0.8,0.3-1.7,0.6-2.6,0.9c-7.8,2.2-16.2,0.5-24.9-8.1c-0.9-0.9-1.9-1.8-2.8-2.9c-0.8-0.9-1.5-1.8-2.1-2.8  c-10.5-16.8,6-42.1-34.6-106.6c-8-12.8-20.6-22.5-28.9-29.1c-0.5-1.9,1.4-3.1,3.7-1.5C150.1,62.9,154.5,66.8,159.9,70.9z"/>
<path style="fill:#CED5E0;" d="M365.3,352.7c0,24.4-14.7,46.2-38.1,61.1c-13.6,8.8-30.2,15.1-48.5,18.2c-8.4,1.5-17.1,2.2-26.1,2.2  s-17.8-0.8-26.2-2.2c-18.3-3.1-34.8-9.5-48.5-18.2c-23.4-14.9-38.1-36.8-38.1-61.1c0-17,7.2-32.8,19.6-45.9  c17.7-18.7,26.8-44,27.3-69.8c0.1-0.8,0.1-1.5,0.1-2.2v-3.4c0-18.2,7.4-34.7,19.3-46.6c11.9-11.9,28.4-19.3,46.6-19.3  c36.4,0,65.8,29.5,65.8,65.9v3.4c0,0.8,0,1.5,0.1,2.2c0.5,25.8,9.6,51,27.3,69.8C358.1,319.9,365.3,335.7,365.3,352.7z"/>
<path style="fill:#E6E9EE;" d="M365.3,352.8c0-17-7.2-32.9-19.6-45.9c-18.2-19.3-27.3-45.5-27.3-72v-3.5c0-36.4-29.5-65.9-65.9-65.9  l0,0c-36.4,0-65.9,29.5-65.9,65.9v3.5c0,26.5-9.1,52.7-27.3,72c-12.4,13.1-19.6,28.9-19.6,45.9c0,35.1,30.7,65,73.6,76.5  c5.7,9.4,21,16.2,39.2,16.2c18.1,0,33.5-6.8,39.2-16.2C334.7,417.8,365.3,387.9,365.3,352.8z"/>
<path style="fill:#FFFFFF;" d="M327.2,413.9c-6,12.1-18.9,20.4-34.8,20.4c-4.8,0-9.4-0.8-13.7-2.2c-11.9-3.8-21.5-12.6-26.1-23.4  c-4.7,10.9-14.3,19.6-26.2,23.4c-4.3,1.4-8.9,2.2-13.6,2.2c-15.9,0-28.8-8.4-34.8-20.4c-3.1-6-4.5-13-3.6-20.3  c1.6-13.6,12-43.1,24.6-61.7c6.6-9.6,12.5-19.8,16.4-30.7c11.4-31.2,12.9-63.3-28.7-64.2c0.1-0.8,0.1-1.5,0.1-2.2v-3.4  c0-18.2,7.4-34.7,19.3-46.6c11.9-11.9,28.4-19.3,46.6-19.3c36.4,0,65.8,29.5,65.8,65.9v3.4c0,0.8,0,1.5,0.1,2.2  c-41.5,1-40.1,33-28.7,64.2c4,10.9,9.8,21.1,16.4,30.7c12.6,18.6,23,48.2,24.6,61.7C331.6,400.9,330.3,407.9,327.2,413.9z"/>
<g>
	<path style="fill:#324A5E;" d="M273.7,380.2c0,8.2-9.5,19.4-21.2,19.4c-11.7,0-21.2-11.1-21.2-19.4c0-8.2,9.5-10.5,21.2-10.5   C264.2,369.7,273.7,371.9,273.7,380.2z"/>
	<ellipse style="fill:#324A5E;" cx="299.8" cy="267.7" rx="9.8" ry="15.1"/>
</g>
<ellipse style="fill:#FFFFFF;" cx="297.4" cy="263.1" rx="3" ry="4.6"/>
<ellipse style="fill:#324A5E;" cx="205.2" cy="267.7" rx="9.8" ry="15.1"/>
<ellipse style="fill:#FFFFFF;" cx="207.6" cy="263.1" rx="3" ry="4.6"/>
<g>
	<circle style="fill:#CED5E0;" cx="310.9" cy="397.4" r="4.9"/>
	<circle style="fill:#CED5E0;" cx="286.8" cy="402.3" r="4.9"/>
	<circle style="fill:#CED5E0;" cx="301.2" cy="417.2" r="4.9"/>
	<circle style="fill:#CED5E0;" cx="194.1" cy="397.4" r="4.9"/>
	<circle style="fill:#CED5E0;" cx="218.2" cy="402.3" r="4.9"/>
	<circle style="fill:#CED5E0;" cx="203.8" cy="417.2" r="4.9"/>
</g>
<g>
</g>
<g>
</g>
<g>
</g>
<g>
</g>
<g>
</g>
<g>
</g>
<g>
</g>
<g>
</g>
<g>
</g>
<g>
</g>
<g>
</g>
<g>
</g>
<g>
</g>
<g>
</g>
<g>
</g>
</svg>
