<?xml version="1.0" encoding="iso-8859-1"?>
<!-- Generator: Adobe Illustrator 19.0.0, SVG Export Plug-In . SVG Version: 6.00 Build 0)  -->
<svg xmlns="http://www.w3.org/2000/svg" xmlns:xlink="http://www.w3.org/1999/xlink" version="1.1" id="Layer_1" x="0px" y="0px" viewBox="0 0 505 505" style="enable-background:new 0 0 505 505;" xml:space="preserve">
<circle style="fill:#324A5E;" cx="252.5" cy="252.5" r="252.5"/>
<path style="fill:#F9B54C;" d="M404.1,454.4c-42.2,31.8-94.7,50.6-151.6,50.6s-109.4-18.9-151.7-50.6c14.5-31.3,28-71.8,28.5-73.5  l-23.7,19.8c13.5-14.8,35.2-81.9,36-84.5c-3.3,5.4-18.6,9.9-18.6,9.9c33.5-37.2,59.3-154.9,59.3-154.9h140.3  c0,0,25.9,117.7,59.3,154.9c0,0-15.3-4.5-18.6-9.9c0.8,2.6,22.6,69.6,36,84.5l-23.8-19.8C376.2,382.6,389.7,423.1,404.1,454.4z"/>
<g>
	<ellipse style="fill:#FFD05B;" cx="259.6" cy="116.2" rx="77.6" ry="36.6"/>
	<path style="fill:#FFD05B;" d="M388.9,79.5c0.4,0-10.5-5.5-25.4,3.8c-15,7.8-32.1,28.6-58.4,52.6c8.2,8.9,14.3,19.2,17.9,30.4   C348.8,149.2,373.9,120.3,388.9,79.5z"/>
</g>
<path style="fill:#F9B54C;" d="M322.2,177.2c-36.5,8.3-36.2-5.7-34.1-12.7c2.1-10.2,9-9.9,31.3-24.7c23.6-12.9,59.1-60.2,69.5-60.3  c6.8,0.3,5.4,26.8-10,51C366.1,152.5,341.9,172.7,322.2,177.2z"/>
<path style="fill:#FFD05B;" d="M123.3,79.5c-0.4,0,10.5-5.5,25.4,3.8c15,7.8,32.1,28.6,58.4,52.6c-8.2,8.9-14.3,19.2-17.9,30.4  C163.4,149.2,138.3,120.3,123.3,79.5z"/>
<path style="fill:#F9B54C;" d="M189.9,177.2c36.5,8.3,36.2-5.7,34.1-12.7c-2.1-10.2-9-9.9-31.3-24.7c-23.6-12.9-59.1-60.2-69.5-60.3  c-6.8,0.3-5.4,26.8,10,51C146.1,152.5,170.3,172.7,189.9,177.2z"/>
<path style="fill:#FFD05B;" d="M146.4,208.5c11,8.3,17.6,21.2,17.6,35v53.8c0,50.8,41.2,77.4,92,77.4l0,0c50.8,0,92-26.6,92-77.4  v-53.8c0-13.8,6.6-26.7,17.6-35c15.2-11.4,24.1-25.2,24.1-40.2c0-38.8-59.9-70.2-133.8-70.2s-133.8,31.4-133.8,70.2  C122.3,183.2,131.2,197.1,146.4,208.5z"/>
<g>
	<path style="fill:#F9B54C;" d="M303.1,280.8c-12.1-26.4-31-42.9-44.1-40.5c-1,0.2-2,0.5-2.9,0.9c-0.9-0.4-1.9-0.7-2.9-0.9   c-13.1-2.4-32,14.1-44.1,40.5c-14.4,31.4-14.2,65.1,3.3,69.8c13.9,3.7,31.2,11.4,43.7-15.7c12.6,27.2,29.9,19.4,43.7,15.7   C317.3,345.9,317.4,312.2,303.1,280.8z"/>
	<path style="fill:#F9B54C;" d="M297,217.3c-5.4-6-9.3-15.1-10.5-25.7c-5-47.3-17.5-77.8-30.4-77.8s-25.4,30.5-30.4,77.9   c-1.1,10.6-5,19.7-10.5,25.7c-3.2,3.6-5.1,7.6-5.1,11.9c0,14.5,20.6,26.2,45.9,26.2c25.4,0,45.9-11.7,45.9-26.2   C302,224.9,300.2,220.9,297,217.3z"/>
</g>
<g>
	<path style="fill:#324A5E;" d="M289.7,230.5c0,0-20.9,2.2-30.1,19.3c0,0,12.3-13.3,24-10.8c3,0.6,5.4,1,7.3,1.1   c5.8,0.3,7.1-8.4,1.3-9.4C291.5,230.5,290.7,230.4,289.7,230.5z"/>
	<path style="fill:#324A5E;" d="M222.4,230.5c0,0,20.9,2.2,30.1,19.3c0,0-12.3-13.3-24-10.8c-3,0.6-5.4,1-7.3,1.1   c-5.8,0.3-7.1-8.4-1.3-9.4C220.6,230.5,221.5,230.4,222.4,230.5z"/>
	<path style="fill:#324A5E;" d="M154.6,189.9c16.4,0,29.8,13.3,29.8,29.8h-11.7c-16.4,0-29.8-13.3-29.8-29.8H154.6z"/>
</g>
<ellipse style="fill:#2B3B4E;" cx="161.2" cy="203.7" rx="4" ry="9.1"/>
<ellipse style="fill:#FFFFFF;" cx="165.4" cy="202.3" rx="2.4" ry="4.2"/>
<path style="fill:#2B3B4E;" d="M136.7,190.9c0,0,1.1-0.6,3.2-1.2c1-0.4,2.3-0.6,3.8-1c1.5-0.2,3.2-0.6,5-0.7c1.9-0.2,3.9-0.1,6.1,0  c1.1,0.1,2.2,0.3,3.3,0.5s2.3,0.4,3.4,0.8c1.1,0.4,2.3,0.7,3.5,1.2c1.1,0.6,2.2,1.1,3.3,1.7c1.2,0.5,2.1,1.4,3.2,2.1  c1,0.8,2.1,1.5,3,2.4l2.6,2.8c0.9,0.9,1.7,1.9,2.3,3c1.3,2.1,2.8,4.1,3.6,6.3c0.9,2.2,1.9,4.2,2.5,6.3s1.1,4,1.5,5.8  c0.5,1.8,0.7,3.5,0.8,5c0.2,1.5,0.3,2.8,0.4,3.9c0.2,2.1,0.3,3.3,0.3,3.3s-0.4-1.2-1-3.2c-0.7-2-1.3-5-2.6-8.4  c-0.7-1.7-1.4-3.5-2.1-5.4c-0.8-1.9-1.9-3.7-2.9-5.7c-0.8-2.1-2.4-3.7-3.6-5.7c-0.6-1-1.3-1.9-2.2-2.7l-2.4-2.5  c-0.8-0.8-1.8-1.4-2.6-2.2c-0.9-0.7-1.8-1.5-2.8-1.9c-1-0.6-2-1.1-2.9-1.7c-1-0.5-2-0.8-3-1.2c-1-0.5-2-0.7-3-1c-1-0.2-2-0.6-3-0.7  c-2-0.3-3.9-0.6-5.7-0.7c-3.6-0.2-6.6-0.1-8.7,0.2C137.9,190.7,136.7,190.9,136.7,190.9z"/>
<path style="fill:#324A5E;" d="M357.5,189.9c-16.4,0-29.8,13.3-29.8,29.8h11.7c16.4,0,29.8-13.3,29.8-29.8H357.5z"/>
<ellipse style="fill:#2B3B4E;" cx="350.9" cy="203.7" rx="4" ry="9.1"/>
<ellipse style="fill:#FFFFFF;" cx="346.8" cy="202.3" rx="2.4" ry="4.2"/>
<path style="fill:#2B3B4E;" d="M375.4,190.9c0,0-1.1-0.6-3.2-1.2c-1-0.4-2.3-0.6-3.8-1c-1.5-0.2-3.2-0.6-5-0.7  c-1.9-0.2-3.9-0.1-6.1,0c-1.1,0.1-2.2,0.3-3.3,0.5c-1.1,0.2-2.3,0.4-3.4,0.8c-1.1,0.4-2.3,0.7-3.5,1.2c-1.1,0.6-2.2,1.1-3.3,1.7  c-1.2,0.5-2.1,1.4-3.2,2.1c-1,0.8-2.1,1.5-3,2.4l-2.6,2.8c-0.9,0.9-1.7,1.9-2.3,3c-1.3,2.1-2.8,4.1-3.6,6.3  c-0.9,2.2-1.9,4.2-2.5,6.3s-1.1,4-1.5,5.8c-0.5,1.8-0.7,3.5-0.8,5c-0.2,1.5-0.3,2.8-0.4,3.9c-0.2,2.1-0.3,3.3-0.3,3.3s0.4-1.2,1-3.2  c0.7-2,1.3-5,2.6-8.4c0.7-1.7,1.4-3.5,2.1-5.4c0.8-1.9,1.9-3.7,2.9-5.7c0.8-2.1,2.4-3.7,3.6-5.7c0.6-1,1.3-1.9,2.2-2.7l2.4-2.5  c0.8-0.8,1.8-1.4,2.6-2.2c0.9-0.7,1.8-1.5,2.8-1.9c1-0.6,2-1.1,2.9-1.7c1-0.5,2-0.8,3-1.2c1-0.5,2-0.7,3-1c1-0.2,2-0.6,3-0.7  c2-0.3,3.9-0.6,5.7-0.7c3.6-0.2,6.6-0.1,8.7,0.2C374.2,190.7,375.4,190.9,375.4,190.9z"/>
<g>
</g>
<g>
</g>
<g>
</g>
<g>
</g>
<g>
</g>
<g>
</g>
<g>
</g>
<g>
</g>
<g>
</g>
<g>
</g>
<g>
</g>
<g>
</g>
<g>
</g>
<g>
</g>
<g>
</g>
</svg>
