<?xml version="1.0" encoding="iso-8859-1"?>
<!-- Generator: Adobe Illustrator 19.0.0, SVG Export Plug-In . SVG Version: 6.00 Build 0)  -->
<svg xmlns="http://www.w3.org/2000/svg" xmlns:xlink="http://www.w3.org/1999/xlink" version="1.1" id="Layer_1" x="0px" y="0px" viewBox="0 0 505 505" style="enable-background:new 0 0 505 505;" xml:space="preserve">
<circle style="fill:#324A5E;" cx="252.5" cy="252.5" r="252.5"/>
<path style="fill:#F9B54C;" d="M311.4,168.1c0,0,17.1-59.7,106.7-51.2c0,0,15.1,108.6-99.1,89.6L311.4,168.1z"/>
<path style="fill:#FFD05B;" d="M418.1,116.9c0,0-73,2.6-98.5,89.7c-0.2,0-0.4,0-0.6-0.1l-7.7-38.4  C311.4,168,328.5,108.3,418.1,116.9z"/>
<path style="fill:#F9B54C;" d="M193.6,168.1c0,0-17.1-59.7-106.7-51.2c0,0-15.1,108.6,99.1,89.6L193.6,168.1z"/>
<g>
	<path style="fill:#FFD05B;" d="M86.9,116.9c0,0,73,2.6,98.5,89.7c0.2,0,0.4,0,0.6-0.1l7.7-38.4C193.6,168,176.5,108.3,86.9,116.9z"/>
	<path style="fill:#FFD05B;" d="M252.5,407.2c-64.1,0-114.6-40.5-111.3-131.3c0.7-19.7,3.9-39.9,9.1-59.3   c4.4-16.5,10.2-32.6,17.1-47.2c7.1-15.1,23.5-24.7,41.1-24.7h88.1c17.6,0,33.9,9.6,41.1,24.7c6.9,14.6,12.8,30.7,17.1,47.2   c5.2,19.5,8.4,39.7,9.1,59.3C367.1,366.7,316.6,407.2,252.5,407.2z"/>
</g>
<path style="fill:#F9B54C;" d="M252.5,407.2c-64.1,0-114.6-40.5-111.3-131.3c0.7-19.7,3.9-39.9,9.1-59.3  c23.3-0.6,76.1,9.8,51.6,123.1h101.3c-24.5-113.2,28.3-123.7,51.6-123.1c5.2,19.5,8.4,39.7,9.1,59.3  C367.1,366.7,316.6,407.2,252.5,407.2z"/>
<path style="fill:#E6E9EE;" d="M301.4,327.6c-5.4-19.4-21.4-33.3-35.9-31.1c-0.6,0.1-1.2,0.2-1.8,0.4c-7.4,1.9-15,1.9-22.4,0  c-0.6-0.1-1.2-0.3-1.8-0.4c-14.5-2.2-30.6,11.7-35.9,31.1c-5.4,19.4,2,36.9,16.5,39.1c4.2,0.7,8.6-0.1,12.8-1.9  c12.2-5.4,27-5.4,39.2,0c4.2,1.8,8.5,2.6,12.8,1.9C299.4,364.5,306.8,347,301.4,327.6z"/>
<g>
	<path style="fill:#324A5E;" d="M283.5,328.5c2.9,6.9,0.5,12.3-4.5,14.3c-4.9,2.1-10.5,0.1-13.4-6.8s-2.1-16,2.9-18.1   C273.4,315.8,280.6,321.6,283.5,328.5z"/>
	<path style="fill:#324A5E;" d="M221.5,328.5c-2.9,6.9-0.5,12.3,4.5,14.3c4.9,2.1,10.5,0.1,13.4-6.8s2.1-16-2.9-18.1   C231.6,315.8,224.4,321.6,221.5,328.5z"/>
</g>
<g>
	<path style="fill:#F9B54C;" d="M289.6,250.9c-0.4-0.5-0.9-1.3-1.7-2.2c-0.8-0.9-1.8-2-2.9-3.1c-1.2-1.2-2.6-2.4-4.2-3.6   c-3.3-2.4-7.4-5-12.3-6.7c-4.9-1.8-10.4-2.7-15.9-2.8c-5.5,0.1-11.1,1-15.9,2.8c-4.9,1.7-9,4.3-12.3,6.7c-1.7,1.2-3,2.5-4.2,3.6   c-1.2,1.2-2.2,2.2-2.9,3.1c-0.8,0.9-1.3,1.7-1.7,2.2s-0.6,0.8-0.6,0.8s1-0.9,2.7-2.5s4.4-3.6,7.7-5.6c3.4-2.1,7.5-4,12.2-5.4   c2.3-0.8,4.8-1.2,7.3-1.6c2.5-0.4,5-0.5,7.7-0.6c5.2,0,10.3,0.8,15,2.2s8.8,3.3,12.2,5.4c1.7,1.1,3.2,2.1,4.5,3   c1.3,1,2.4,1.9,3.3,2.6c1.8,1.5,2.7,2.5,2.7,2.5S290,251.4,289.6,250.9z"/>
	<path style="fill:#F9B54C;" d="M278.4,260.6c-0.9-0.9-2-2-3.3-3c-2.6-2-5.9-4-9.8-5.4c-3.9-1.5-8.3-2.2-12.7-2.3   c-4.4,0-8.9,0.8-12.7,2.3c-3.9,1.4-7.2,3.4-9.8,5.4c-1.3,1-2.4,2-3.3,3c-0.9,1-1.7,1.8-2.3,2.5c-1.2,1.5-1.8,2.4-1.8,2.4   s0.8-0.7,2.2-1.9c1.4-1.2,3.5-2.8,6.2-4.3s6-3.1,9.7-4.2c1.8-0.6,3.8-0.9,5.8-1.3c2-0.3,4-0.4,6.1-0.4c4.1,0,8.1,0.6,11.8,1.7   c3.7,1.1,7,2.6,9.7,4.2s4.8,3.1,6.2,4.3c1.4,1.2,2.2,1.9,2.2,1.9s-0.6-0.9-1.7-2.4C280.1,262.4,279.3,261.6,278.4,260.6z"/>
	<path style="fill:#F9B54C;" d="M267.7,273.4c-1.7-1.4-3.9-2.8-6.6-3.8c-2.6-1-5.6-1.5-8.6-1.6c-2.9,0-6.1,0.6-8.6,1.6   c-2.6,1-4.9,2.4-6.6,3.8c-1.7,1.4-2.9,2.8-3.6,3.8c-0.7,1-1.1,1.7-1.1,1.7s0.6-0.4,1.6-1.2c1-0.7,2.4-1.7,4.2-2.7s4-1.9,6.4-2.6   s5-1.1,7.7-1c5.3-0.1,10.5,1.6,14.1,3.6c1.8,1,3.3,2,4.2,2.7c1,0.8,1.6,1.2,1.6,1.2s-0.3-0.6-1.1-1.7   C270.6,276.2,269.4,274.8,267.7,273.4z"/>
</g>
<path style="fill:#FFFFFF;" d="M316.2,250.9c1,8.1,7.4,14.5,14.2,14.1s11.5-7.2,10.5-15.4c-1-8.1-7.4-14.5-14.2-14.1  S315.2,242.7,316.2,250.9z"/>
<path style="fill:#54C0EB;" d="M318.3,253.1c0.7,5.3,5.5,9.4,10.9,9.1c5.3-0.3,9.1-4.8,8.5-10.1c-0.7-5.3-5.5-9.4-10.9-9.1  C321.4,243.3,317.6,247.8,318.3,253.1z"/>
<path style="fill:#2B3B4E;" d="M323.1,252.9c0.3,2.7,2.8,4.7,5.5,4.6s4.6-2.4,4.3-5.1s-2.8-4.7-5.5-4.6  C324.7,247.9,322.7,250.2,323.1,252.9z"/>
<g>
	<path style="fill:#FFFFFF;" d="M324.2,246.7c-0.7,1.2,0,2.5,1.5,2.9c1.6,0.4,3.4-0.3,4.2-1.5c0.7-1.2,0-2.5-1.5-2.9   C326.8,244.8,324.9,245.5,324.2,246.7z"/>
	<path style="fill:#FFFFFF;" d="M188.8,250.9c-1,8.1-7.4,14.5-14.2,14.1s-11.5-7.2-10.5-15.4c1-8.1,7.4-14.5,14.2-14.1   S189.8,242.7,188.8,250.9z"/>
</g>
<path style="fill:#54C0EB;" d="M186.7,253.1c-0.7,5.3-5.5,9.4-10.9,9.1c-5.3-0.3-9.1-4.8-8.5-10.1c0.7-5.3,5.5-9.4,10.9-9.1  C183.6,243.3,187.4,247.8,186.7,253.1z"/>
<path style="fill:#2B3B4E;" d="M182,252.9c-0.3,2.7-2.8,4.7-5.5,4.6s-4.6-2.4-4.3-5.1c0.3-2.7,2.8-4.7,5.5-4.6  C180.4,247.9,182.3,250.2,182,252.9z"/>
<path style="fill:#FFFFFF;" d="M180.8,246.7c0.7,1.2,0,2.5-1.5,2.9c-1.6,0.4-3.4-0.3-4.2-1.5c-0.7-1.2,0-2.5,1.5-2.9  C178.2,244.8,180.1,245.5,180.8,246.7z"/>
<g>
</g>
<g>
</g>
<g>
</g>
<g>
</g>
<g>
</g>
<g>
</g>
<g>
</g>
<g>
</g>
<g>
</g>
<g>
</g>
<g>
</g>
<g>
</g>
<g>
</g>
<g>
</g>
<g>
</g>
</svg>
