<?xml version="1.0" encoding="iso-8859-1"?>
<!-- Generator: Adobe Illustrator 19.0.0, SVG Export Plug-In . SVG Version: 6.00 Build 0)  -->
<svg xmlns="http://www.w3.org/2000/svg" xmlns:xlink="http://www.w3.org/1999/xlink" version="1.1" id="Layer_1" x="0px" y="0px" viewBox="0 0 505 505" style="enable-background:new 0 0 505 505;" xml:space="preserve">
<circle style="fill:#FFD05B;" cx="252.5" cy="252.5" r="252.5"/>
<path style="fill:#FFFFFF;" d="M400.7,312.2c-17.4-7-30.6-21.7-39-37.7c-8.3-15.8-12.5-33.1-16.6-49.9c-3.6-14.9-7.2-29.7-10.7-44.4  c-5.7-23.7-10.8-49.3-29.3-65.9c-19.9-17.9-42.2-19.6-52.5-18.8c-10.3-0.7-32.6,0.9-52.5,18.8c-18.5,16.7-23.6,42.2-29.3,65.9  c-3.6,14.7-7.1,29.5-10.7,44.4c-4.1,16.9-8.3,34.1-16.6,49.9c-8.4,16-21.6,30.6-39,37.7c8.2,1.4,16.7,1.6,25,0.5  c-20.4,23.9-12.3,45.1-12.8,68.7c3.9-8.3,4.3-9,9.8-16.3c-1.8,17.3,34.1,32.8,35.8,41c0,0,3.6-3.1,4.1-7.2c0,0,0.4,9.2,6.7,18.2  c4,5.7,10,9.9,16.6,12.4c6.7,2.6,18.3,7.9,19.9,14.7c0,0,5.3-10.2,2.9-13.4l40.2,26.2l40.2-26.2c-2.4,3.2,2.9,13.4,2.9,13.4  c1.7-6.8,13.2-12.1,19.9-14.7c6.6-2.5,12.6-6.6,16.6-12.4c6.3-9,6.7-18.2,6.7-18.2c0.5,4,4.1,7.2,4.1,7.2c1.8-8.2,37.6-23.7,35.9-41  c5.5,7.3,5.9,8.1,9.8,16.3c-0.5-23.5,7.7-44.7-12.8-68.7C384,313.7,392.5,313.6,400.7,312.2z"/>
<g>
	<path style="fill:#F1543F;" d="M297.5,309c-1.7-3.2-3.7-6.1-5.7-9.1c-6.1-9.3-11.4-19.4-13.6-30.3c-1.6-8.2-1.5-16.6-0.4-24.9   c-4.9,0-9.7,1.6-13.6,4.4c-6.2,4.4-9.6,11.3-11.6,18.8c-2-7.5-5.4-14.3-11.6-18.8c-3.9-2.8-8.8-4.4-13.6-4.4   c1.1,8.3,1.2,16.7-0.4,24.9c-2.2,10.9-7.5,21-13.6,30.3c-2,3-4,5.9-5.7,9.1c-2.9,5.5-4.4,11.9-3.5,18c1,6.1,4.7,12,10.3,14.7   c3.9,1.9,8.4,2.1,12.7,2.1c7.5,0.1,15.7-0.8,20.9-6.1c2.2-2.3,3.6-5.2,4.6-8.2c1,3.1,2.4,6,4.6,8.2c5.2,5.3,13.4,6.2,20.9,6.1   c4.3,0,8.8-0.3,12.7-2.1c5.6-2.7,9.3-8.5,10.3-14.7C301.9,320.8,300.4,314.5,297.5,309z"/>
	<path style="fill:#F1543F;" d="M244.2,120.8c0,0,16.4-56.8,73.1,8.7c0,0,12-44.1-14.7-49.1c0,0-7-48.5-38.6-26.7   C263.9,53.7,204,26.8,244.2,120.8z"/>
</g>
<path style="fill:#F9B54C;" d="M297.4,233.8c0,0-33.4,56.5-44.9,62.2c-11.5-5.7-44.9-62.2-44.9-62.2H297.4z"/>
<path style="fill:#FFD05B;" d="M276.2,217.3c-23.2-7-23.7-28-23.7-28v0.5v-0.5c0,0-0.5,21-23.7,28c0,0-20.7,4.5-25.2,19.5  c0,0,33.1,11.1,48.9,67c15.8-55.9,48.9-67,48.9-67C296.9,221.8,276.2,217.3,276.2,217.3z"/>
<ellipse style="fill:#E6E9EE;" cx="285.8" cy="174.7" rx="15.9" ry="22.4"/>
<ellipse style="fill:#324A5E;" cx="285.8" cy="179.4" rx="12.6" ry="17.8"/>
<ellipse style="fill:#FFFFFF;" cx="281.9" cy="173.8" rx="2.2" ry="4.1"/>
<ellipse style="fill:#E6E9EE;" cx="219.2" cy="174.7" rx="15.9" ry="22.4"/>
<ellipse style="fill:#324A5E;" cx="219.2" cy="179.4" rx="12.6" ry="17.8"/>
<ellipse style="fill:#FFFFFF;" cx="215.2" cy="173.8" rx="2.2" ry="4.1"/>
<g>
	<ellipse style="fill:#F9B54C;" cx="268.8" cy="220.5" rx="5" ry="3.2"/>
	<ellipse style="fill:#F9B54C;" cx="236.2" cy="220.5" rx="5" ry="3.2"/>
</g>
<g>
</g>
<g>
</g>
<g>
</g>
<g>
</g>
<g>
</g>
<g>
</g>
<g>
</g>
<g>
</g>
<g>
</g>
<g>
</g>
<g>
</g>
<g>
</g>
<g>
</g>
<g>
</g>
<g>
</g>
</svg>
