<?xml version="1.0" encoding="iso-8859-1"?>
<!-- Generator: Adobe Illustrator 19.0.0, SVG Export Plug-In . SVG Version: 6.00 Build 0)  -->
<svg xmlns="http://www.w3.org/2000/svg" xmlns:xlink="http://www.w3.org/1999/xlink" version="1.1" id="Layer_1" x="0px" y="0px" viewBox="0 0 505 505" style="enable-background:new 0 0 505 505;" xml:space="preserve">
<circle style="fill:#324A5E;" cx="252.5" cy="252.5" r="252.5"/>
<path style="fill:#2C9984;" d="M453,405.9C406.9,466.1,334.2,505,252.5,505c-81.8,0-154.5-38.9-200.6-99.1  c16.3-94.1,99.9-165.8,200.6-165.8S436.8,311.7,453,405.9z"/>
<g>
	
		<ellipse transform="matrix(-0.6568 0.7541 -0.7541 -0.6568 662.9114 -67.6166)" style="fill:#FFFFFF;" cx="346.843" cy="117.053" rx="21.501" ry="18.3"/>
	
		<ellipse transform="matrix(-0.6568 -0.7541 0.7541 -0.6568 173.6528 313.2888)" style="fill:#FFFFFF;" cx="158.123" cy="117.126" rx="21.501" ry="18.3"/>
</g>
<ellipse style="fill:#4CDBC4;" cx="252.5" cy="252.5" rx="135.6" ry="166.7"/>
<g>
	<path style="fill:#2C9984;" d="M318.1,106.5c0,0,75,64.1-55.4,91.4l-15.4-63.5l44.8-25.2L318.1,106.5z"/>
	<path style="fill:#2C9984;" d="M186.9,106.5c0,0-75,64.1,55.4,91.4l15.4-63.5l-44.8-25.2L186.9,106.5z"/>
</g>
<path style="fill:#FFFFFF;" d="M323,285.9c0.1,2,0,4,0,6c-1.4,34.9-29.2,61.7-61.3,61.7h-19.8c-32.7,0-59.5-28.6-59.9-64.2  c0-0.3,0-0.6,0-0.9c0-28.9,14.8-54,36.5-67.1c6.5-3.9,11.9-9.6,15.7-16.3c3.7-6.7,5.8-14.5,5.8-22.6c0-11.8-4.3-23-11.9-31.3  l-41-44.6c19.4-13.2,41.8-20.7,65.5-20.7c23.8,0,46.1,7.5,65.5,20.7l-41,44.6c-7.7,8.3-12,19.6-12,31.3v0.2  c0,16.4,8.4,31.1,21.5,39.1C307.5,234.5,322.1,258.6,323,285.9z"/>
<g>
	
		<ellipse transform="matrix(-0.631 -0.7758 0.7758 -0.631 255.775 601.9115)" style="fill:#324A5E;" cx="271.039" cy="240.125" rx="8.6" ry="11.6"/>
	
		<ellipse transform="matrix(-0.631 0.7758 -0.7758 -0.631 567.7451 209.9144)" style="fill:#324A5E;" cx="233.949" cy="239.983" rx="8.6" ry="11.6"/>
	<circle style="fill:#324A5E;" cx="303.9" cy="156.1" r="10.7"/>
	<circle style="fill:#324A5E;" cx="201.1" cy="156.1" r="10.7"/>
	<path style="fill:#324A5E;" d="M295.9,323.6c-0.6,0.2-1.4,0.4-2.2,0.7c-0.9,0.2-1.9,0.4-2.9,0.7c-1.1,0.3-2.2,0.4-3.5,0.5   c-1.2,0.2-2.5,0.1-3.8,0.1c-1.3-0.1-2.6-0.2-3.9-0.7c-0.6-0.1-1.3-0.4-1.9-0.6l-0.9-0.4l-0.9-0.5c-0.6-0.3-1.2-0.6-1.9-1   c-0.6-0.4-1.3-0.7-1.9-1.1c-1.3-0.7-2.6-1.5-3.9-2.1c-0.7-0.3-1.4-0.6-2-0.9c-0.7-0.3-1.4-0.5-2-0.8c-1.3-0.5-2.7-0.8-3.9-1.1   c-1.2-0.3-2.5-0.4-3.5-0.6c-0.6-0.1-1-0.1-1.4-0.2c-0.4,0-0.7-0.1-1.1-0.1c-0.9-0.1-1.5-0.1-1.8-0.1c-0.3,0-0.9,0.1-1.8,0.1   c-0.3,0-0.7,0.1-1.1,0.1c-0.4,0-0.8,0.1-1.4,0.2c-1.1,0.2-2.3,0.3-3.5,0.6c-1.2,0.4-2.5,0.6-3.9,1.1c-0.7,0.3-1.3,0.5-2,0.8   s-1.3,0.6-2,0.9c-1.3,0.7-2.7,1.4-3.9,2.1c-0.6,0.4-1.3,0.7-1.9,1.1c-0.6,0.4-1.2,0.7-1.9,1l-0.9,0.5l-0.9,0.4   c-0.6,0.3-1.3,0.5-1.9,0.6c-1.3,0.4-2.6,0.5-3.9,0.7c-1.3,0-2.6,0.1-3.8-0.1c-1.2-0.1-2.4-0.3-3.5-0.5c-1.1-0.3-2.1-0.4-2.9-0.7   c-0.9-0.3-1.6-0.5-2.2-0.7c-1.2-0.4-2-0.6-2-0.6s0.7,0.4,1.8,1c0.6,0.3,1.3,0.7,2.1,1.1s1.8,0.8,2.8,1.3s2.2,0.9,3.5,1.3   c1.2,0.5,2.6,0.7,4.1,1c1.5,0.1,3,0.3,4.6,0.1c0.8,0,1.6-0.1,2.4-0.3l1.2-0.2l1.1-0.3c0.8-0.2,1.5-0.4,2.3-0.7   c0.7-0.2,1.4-0.5,2.1-0.7c1.4-0.5,2.7-0.9,3.9-1.2c0.6-0.2,1.2-0.3,1.8-0.5c0.6-0.1,1.2-0.2,1.7-0.3c1.1-0.2,2.2-0.2,3.2-0.3   c1,0,1.8,0.1,2.5,0.1c0.2,0,0.3,0,0.5,0s0.4,0,0.6,0.1c0.4,0,0.7,0.1,1.1,0.1c1.1,0.1,1.8,0.2,1.9,0.2c0.2,0,0.9-0.1,1.9-0.2   c0.3,0,0.7-0.1,1.1-0.1c0.2,0,0.4,0,0.6-0.1c0.2,0,0.4,0,0.5,0c0.7,0,1.6-0.1,2.5-0.1c1,0.1,2,0.1,3.2,0.3c0.6,0.1,1.1,0.2,1.7,0.3   c0.6,0.1,1.2,0.3,1.8,0.5c1.3,0.3,2.6,0.8,3.9,1.2c0.7,0.2,1.4,0.5,2.1,0.7s1.5,0.5,2.3,0.7l1.1,0.3l1.2,0.2   c0.8,0.2,1.6,0.3,2.4,0.3c1.6,0.2,3.2,0,4.6-0.1c1.4-0.3,2.9-0.5,4.1-1c1.3-0.4,2.4-0.8,3.5-1.3c1-0.5,2-0.8,2.8-1.3   c0.8-0.4,1.5-0.8,2.1-1.1c1.1-0.6,1.8-1,1.8-1S297.1,323.3,295.9,323.6z"/>
</g>
<g>
</g>
<g>
</g>
<g>
</g>
<g>
</g>
<g>
</g>
<g>
</g>
<g>
</g>
<g>
</g>
<g>
</g>
<g>
</g>
<g>
</g>
<g>
</g>
<g>
</g>
<g>
</g>
<g>
</g>
</svg>
