<?xml version="1.0" encoding="iso-8859-1"?>
<!-- Generator: Adobe Illustrator 19.0.0, SVG Export Plug-In . SVG Version: 6.00 Build 0)  -->
<svg xmlns="http://www.w3.org/2000/svg" xmlns:xlink="http://www.w3.org/1999/xlink" version="1.1" id="Layer_1" x="0px" y="0px" viewBox="0 0 505 505" style="enable-background:new 0 0 505 505;" xml:space="preserve">
<circle style="fill:#90DFAA;" cx="252.5" cy="252.5" r="252.5"/>
<path style="fill:#F1543F;" d="M385.6,174.7c-25.7,25.5-57.6,35.1-71.3,21.4s-4-45.6,21.7-71.1s57.6-35.1,71.3-21.4  C421,117.4,411.2,149.2,385.6,174.7z"/>
<path style="fill:#FF7058;" d="M334,202.2c-8.1,0.6-15-1.4-19.8-6.2c-13.7-13.7-4-45.5,21.7-71c24.2-24.1,53.9-33.9,68.7-23.6  c-16.9-3.5-41.2,13.3-57.5,41C334.3,164.3,329.8,187.1,334,202.2z"/>
<path style="fill:#F1543F;" d="M119.4,174.7c25.7,25.5,57.6,35.1,71.3,21.4s4-45.6-21.7-71.1s-57.6-35.1-71.3-21.4  C84,117.4,93.8,149.2,119.4,174.7z"/>
<path style="fill:#FF7058;" d="M171,202.2c8.1,0.6,15-1.4,19.8-6.2c13.7-13.7,4-45.5-21.7-71c-24.2-24.1-53.9-33.9-68.7-23.6  c16.9-3.5,41.2,13.3,57.5,41C170.7,164.3,175.2,187.1,171,202.2z"/>
<path style="fill:#E6E9EE;" d="M406.7,302c-11.7,0-21.3-9.5-21.3-21.2c-0.1-13.8-1.9-27.7-5.6-41.3  c-17.4-64.3-72.7-104.8-127.2-104.8c-54.6,0-109.8,40.5-127.2,104.8c-3.7,13.6-5.5,27.5-5.6,41.3c0,11.7-9.6,21.2-21.3,21.2l0,0  c7.6,59.3,73.7,105.6,154.2,105.6C332.9,407.6,399,361.3,406.7,302L406.7,302z"/>
<path style="fill:#FF7058;" d="M380.5,242.4c-13.6-8.8-29.7-13.9-47.1-13.9c-36.8,0-68.2,22.8-80.8,55.1  c-12.7-32.2-44.1-55.1-80.8-55.1c-17.4,0-33.6,5.1-47.1,13.9c0.2-0.9,0.5-1.9,0.7-2.8c17.4-64.3,72.7-104.8,127.2-104.8  c54.6,0,109.8,40.5,127.2,104.8C380,240.5,380.2,241.4,380.5,242.4z"/>
<g>
	<path style="fill:#324A5E;" d="M269.6,316c0,6.8-7.7,15.6-17.1,15.6s-17.1-8.8-17.1-15.6c0-6.8,7.7-8.9,17.1-8.9   C261.9,307.1,269.6,309.2,269.6,316z"/>
	<path style="fill:#324A5E;" d="M268.7,338c-0.9,0-1.6,0.7-1.6,1.6c0,3.6-2.9,6.5-6.5,6.5s-6.5-2.9-6.5-6.5v-22.4   c0-0.9-0.7-1.6-1.6-1.6s-1.6,0.7-1.6,1.6v22.4c0,3.6-2.9,6.5-6.5,6.5s-6.5-2.9-6.5-6.5c0-0.9-0.7-1.6-1.6-1.6s-1.6,0.7-1.6,1.6   c0,5.4,4.4,9.8,9.8,9.8c3.4,0,6.4-1.7,8.1-4.4c1.8,2.6,4.7,4.4,8.1,4.4c5.4,0,9.8-4.4,9.8-9.8C270.4,338.7,269.6,338,268.7,338z"/>
</g>
<path style="fill:#FFFFFF;" d="M324.8,282.4c-1.5,12.3-11.1,21.8-21.4,21.3s-17.3-10.9-15.8-23.2c1.5-12.3,11.1-21.8,21.4-21.3  S326.3,270.2,324.8,282.4z"/>
<path style="fill:#84DBFF;" d="M321.7,285.8c-1,8-8.3,14.1-16.4,13.7c-8-0.4-13.8-7.2-12.8-15.2s8.3-14.1,16.4-13.7  C317,271,322.7,277.8,321.7,285.8z"/>
<path style="fill:#2B3B4E;" d="M314.5,285.4c-0.5,4-4.2,7.1-8.3,6.9c-4.1-0.2-7-3.6-6.5-7.7c0.5-4,4.2-7.1,8.3-6.9  C312.1,277.9,315,281.4,314.5,285.4z"/>
<g>
	<path style="fill:#FFFFFF;" d="M312.8,276.1c1.1,1.8,0.1,3.8-2.3,4.4s-5.2-0.4-6.3-2.3c-1.1-1.8-0.1-3.8,2.3-4.4   S311.7,274.3,312.8,276.1z"/>
	<path style="fill:#FFFFFF;" d="M180.2,282.4c1.5,12.3,11.1,21.8,21.4,21.3c10.3-0.5,17.3-10.9,15.8-23.2   c-1.5-12.3-11.1-21.8-21.4-21.3C185.8,259.8,178.7,270.2,180.2,282.4z"/>
</g>
<path style="fill:#84DBFF;" d="M183.3,285.8c1,8,8.3,14.1,16.4,13.7c8-0.4,13.8-7.2,12.8-15.2s-8.3-14.1-16.4-13.7  C188,271,182.3,277.8,183.3,285.8z"/>
<path style="fill:#2B3B4E;" d="M190.5,285.4c0.5,4,4.2,7.1,8.3,6.9s7-3.6,6.5-7.7c-0.5-4-4.2-7.1-8.3-6.9S190,281.4,190.5,285.4z"/>
<path style="fill:#FFFFFF;" d="M192.2,276.1c-1.1,1.8-0.1,3.8,2.3,4.4c2.4,0.6,5.2-0.4,6.3-2.3c1.1-1.8,0.1-3.8-2.3-4.4  C196.1,273.2,193.3,274.3,192.2,276.1z"/>
<g>
</g>
<g>
</g>
<g>
</g>
<g>
</g>
<g>
</g>
<g>
</g>
<g>
</g>
<g>
</g>
<g>
</g>
<g>
</g>
<g>
</g>
<g>
</g>
<g>
</g>
<g>
</g>
<g>
</g>
</svg>
