<?xml version="1.0" encoding="iso-8859-1"?>
<!-- Generator: Adobe Illustrator 19.0.0, SVG Export Plug-In . SVG Version: 6.00 Build 0)  -->
<svg xmlns="http://www.w3.org/2000/svg" xmlns:xlink="http://www.w3.org/1999/xlink" version="1.1" id="Layer_1" x="0px" y="0px" viewBox="0 0 505 505" style="enable-background:new 0 0 505 505;" xml:space="preserve">
<circle style="fill:#FFD05B;" cx="252.5" cy="252.5" r="252.5"/>
<g>
	<path style="fill:#F1543F;" d="M425.2,163.2c-0.9,1.1-2.4,2-2.1,3.4c0.4,2.2,4.7,4.4,8.4,5.6c3.8,1.2,7.6,1.7,11.5,3.2   c5.3,2.1,10.1,6,11.8,9.5c1.8,3.6,0.6,6.4-2.7,7.5c-2.8,0.9-7.1,0.8-7.7,3.2c6.1,3,11.8,7.7,14.8,12.6c3.1,5,3.4,9.8,0.7,12.5   c-3.3,3.3-9.8,3.5-15.7,3.7c-34.5-1.7-70,13.9-78.6,21.4c-2.8,1.7-5.6,3.5-8.7,4.5c-6.2,2-13.2,0.7-20.1-0.1   c-5.4-0.6-10.9-0.7-16.1-2.3c-5.1-1.6-10-4.9-11.7-10.8c-1.5-5.3-0.2-12,1.1-18.1c6-26.7,8.6-51.1,24.3-72.2   c5-6.5,12-12.9,22.7-16.1c10.6-3.3,25.6-1.6,31.5,3.7c2.9,2.6,3.4,5.5,3.2,8.3c-0.1,1.6,0.2,3.6,3.1,4.4c1.2,0.3,2.7,0.4,3.8,0.2   C424.3,143.7,428.3,160.4,425.2,163.2z"/>
	<path style="fill:#F1543F;" d="M79.8,163.2c0.9,1.1,2.4,2,2.1,3.4c-0.4,2.2-4.7,4.4-8.4,5.6c-3.8,1.2-7.6,1.7-11.5,3.2   c-5.3,2.1-10.1,6-11.8,9.5c-1.8,3.6-0.6,6.4,2.7,7.5c2.8,0.9,7.1,0.8,7.7,3.2c-6.1,3-11.8,7.7-14.8,12.6c-3.1,5-3.4,9.8-0.7,12.5   c3.3,3.3,9.8,3.5,15.7,3.7c34.5-1.7,70,13.9,78.6,21.4c2.8,1.7,5.6,3.5,8.7,4.5c6.2,2,13.2,0.7,20.1-0.1c5.4-0.6,10.9-0.7,16.1-2.3   c5.1-1.6,10-4.9,11.7-10.8c1.5-5.3,0.2-12-1.1-18.1c-6-26.7-8.6-51.1-24.3-72.2c-5-6.5-12-12.9-22.7-16.1   c-10.6-3.3-25.6-1.6-31.5,3.7c-2.9,2.6-3.4,5.5-3.2,8.3c0.1,1.6-0.2,3.6-3.1,4.4c-1.2,0.3-2.7,0.4-3.8,0.2   C80.7,143.7,76.7,160.4,79.8,163.2z"/>
</g>
<ellipse style="fill:#FF7058;" cx="252.5" cy="278.7" rx="139.6" ry="125.8"/>
<ellipse style="fill:#F1543F;" cx="252.5" cy="314.3" rx="30.5" ry="43"/>
<path style="fill:#FFFFFF;" d="M286.3,250.1c1.6,12.6,11.3,22.3,21.8,21.8s17.7-11.1,16.2-23.7c-1.6-12.6-11.3-22.3-21.8-21.8  C291.9,226.9,284.7,237.6,286.3,250.1z"/>
<path style="fill:#F9B54C;" d="M289.4,253.5c1,8.2,8.5,14.4,16.8,14c8.2-0.4,14.1-7.4,13.1-15.5c-1-8.2-8.5-14.4-16.7-14  C294.2,238.4,288.4,245.4,289.4,253.5z"/>
<path style="fill:#2B3B4E;" d="M296.8,253.2c0.5,4.1,4.3,7.3,8.5,7.1c4.2-0.2,7.1-3.7,6.6-7.9c-0.5-4.1-4.3-7.3-8.5-7.1  C299.2,245.5,296.2,249,296.8,253.2z"/>
<g>
	<path style="fill:#FFFFFF;" d="M298.5,243.6c-1.1,1.9-0.1,3.9,2.4,4.5c2.4,0.6,5.3-0.5,6.4-2.3c1.1-1.9,0.1-3.9-2.4-4.5   C302.5,240.7,299.6,241.8,298.5,243.6z"/>
	<path style="fill:#FFFFFF;" d="M218.7,250.1c-1.6,12.6-11.3,22.3-21.8,21.8s-17.7-11.1-16.2-23.7c1.6-12.6,11.3-22.3,21.8-21.8   C213.1,226.9,220.3,237.6,218.7,250.1z"/>
</g>
<path style="fill:#F9B54C;" d="M215.6,253.5c-1,8.2-8.5,14.4-16.7,14s-14.1-7.4-13.1-15.5c1-8.2,8.5-14.4,16.8-14  C210.8,238.4,216.6,245.4,215.6,253.5z"/>
<path style="fill:#2B3B4E;" d="M208.2,253.2c-0.5,4.1-4.3,7.3-8.5,7.1c-4.2-0.2-7.1-3.7-6.6-7.9c0.5-4.1,4.3-7.3,8.5-7.1  C205.8,245.5,208.8,249,208.2,253.2z"/>
<path style="fill:#FFFFFF;" d="M206.5,243.6c1.1,1.9,0.1,3.9-2.4,4.5c-2.4,0.6-5.3-0.5-6.4-2.3c-1.1-1.9-0.1-3.9,2.4-4.5  C202.5,240.7,205.4,241.8,206.5,243.6z"/>
<g>
</g>
<g>
</g>
<g>
</g>
<g>
</g>
<g>
</g>
<g>
</g>
<g>
</g>
<g>
</g>
<g>
</g>
<g>
</g>
<g>
</g>
<g>
</g>
<g>
</g>
<g>
</g>
<g>
</g>
</svg>
