<?xml version="1.0" encoding="iso-8859-1"?>
<!-- Generator: Adobe Illustrator 19.0.0, SVG Export Plug-In . SVG Version: 6.00 Build 0)  -->
<svg xmlns="http://www.w3.org/2000/svg" xmlns:xlink="http://www.w3.org/1999/xlink" version="1.1" id="Layer_1" x="0px" y="0px" viewBox="0 0 505 505" style="enable-background:new 0 0 505 505;" xml:space="preserve">
<circle style="fill:#F1543F;" cx="252.5" cy="252.5" r="252.5"/>
<path style="fill:#2B3B4E;" d="M312.9,409.9H192.1v40.3c0,3.9,3.2,7.1,7.1,7.1h106.6c3.9,0,7.1-3.2,7.1-7.1L312.9,409.9L312.9,409.9  z"/>
<g>
	<path style="fill:#ACB3BA;" d="M330,190.3l-12,30.2c29.8,13.8,56.5,7.6,73.5,0.1c9.6-4.3,17.7-11.2,22.7-20.1   c9.3-16.5,27.9-24.8,27.9-24.8C392.8,152.5,330,190.3,330,190.3z"/>
	<path style="fill:#ACB3BA;" d="M175,190.3l11.9,30.2c-29.8,13.8-56.5,7.6-73.5,0.1c-9.6-4.3-17.7-11.2-22.7-20.1   c-9.3-16.5-27.9-24.8-27.9-24.8C112.2,152.5,175,190.3,175,190.3z"/>
</g>
<g>
	<path style="fill:#324A5E;" d="M300.5,142.9c0,0,0.2,0,0.5,0c0.2,0,0.4,0.1,0.9,0.1c1.1,0,2.7,0,5-0.1c4.4-0.2,10.9-0.5,18.5-1.4   c3.8-0.4,7.9-0.9,12.1-1.5s8.5-1.4,12.9-2.3c4.2-1,8.6-2,12.6-3.3c2.1-0.6,3.9-1.3,5.9-2c1.7-0.8,3.7-1.5,5.3-2.3   c3.5-1.6,6.1-3.5,8.6-5.5c0.9-1,2.3-2,2.9-3.2c0.4-0.6,0.8-1.1,1.2-1.7c0.3-0.6,0.5-1.2,0.8-1.8c0.7-1.2,0.6-2.4,1-3.6   c0.1-1.2,0-2.5,0-3.7c-0.3-1.3-0.6-2.5-0.9-3.7c-0.5-1.2-1.1-2.4-1.6-3.5s-1.3-2.2-1.9-3.2s-1.3-2-2-2.9c-1.5-1.7-2.6-3.4-3.9-4.6   c-2.5-2.5-3.9-3.9-3.9-3.9s2.1,1.1,5.9,3.1c2,1,4,2.4,6.7,3.9c1.3,0.8,2.6,1.7,3.9,2.7s2.9,2,4.2,3.2c1.4,1.2,2.8,2.4,4.3,3.8   c1.3,1.4,2.7,2.9,4.1,4.4c1.1,1.6,2.5,3.3,3.5,5.1c0.8,1.8,2.1,3.8,2.5,5.7c0.3,1,0.6,2,0.9,3.1c0.2,1,0.3,2.1,0.4,3.1   c0.4,2.2-0.1,4.2-0.2,6.4c-0.9,4.2-2.5,8.6-5.1,12.5c-1.2,2.1-2.8,3.9-4.3,5.9c-1.7,1.8-3.3,3.8-5.2,5.5c-3.7,3.7-7.9,6.8-12.2,10   c-4.4,3.1-8.9,5.9-13.3,8.5c-4.5,2.6-9,4.9-13.3,7c-8.6,4.2-16.4,7.4-22.1,9.6c-2.9,1.1-5.3,1.9-7,2.5c-0.8,0.3-1.8,0.6-2.3,0.7   c-0.4,0.1-0.6,0.2-0.6,0.2L300.5,142.9z"/>
	<path style="fill:#324A5E;" d="M179.9,195.9c0,0-0.2-0.1-0.6-0.2c-0.5-0.2-1.5-0.4-2.3-0.7c-1.7-0.6-4.1-1.4-7-2.5   c-5.7-2.2-13.5-5.4-22.1-9.6c-4.3-2.1-8.7-4.4-13.3-7c-4.5-2.5-9-5.4-13.3-8.5s-8.5-6.3-12.2-10c-1.9-1.7-3.5-3.7-5.2-5.5   c-1.5-2-3.1-3.8-4.3-5.9c-2.6-3.9-4.2-8.3-5.1-12.5c-0.1-2.2-0.6-4.3-0.2-6.4c0.1-1.1,0.2-2.1,0.4-3.1c0.3-1,0.6-2.1,0.9-3.1   c0.4-2,1.7-3.9,2.5-5.7c1-1.8,2.4-3.5,3.5-5.1c1.4-1.6,2.8-3,4.1-4.4c1.5-1.3,3-2.6,4.3-3.8c1.3-1.2,2.9-2.2,4.2-3.2   c1.3-1,2.6-1.9,3.9-2.7c2.6-1.6,4.6-2.9,6.7-3.9c3.8-2,5.9-3.1,5.9-3.1s-1.4,1.4-3.9,3.9c-1.3,1.2-2.4,2.8-3.9,4.6   c-0.8,0.9-1.4,1.9-2,2.9s-1.5,2.1-1.9,3.2c-0.5,1.1-1,2.3-1.6,3.5c-0.3,1.2-0.6,2.4-0.9,3.7c0,1.2-0.2,2.5,0,3.7   c0.3,1.2,0.3,2.5,1,3.6c0.3,0.6,0.5,1.2,0.8,1.8c0.4,0.6,0.8,1.1,1.2,1.7c0.6,1.1,2,2.1,2.9,3.2c2.5,2,5.1,3.9,8.6,5.5   c1.6,0.9,3.6,1.6,5.3,2.3c2,0.7,3.8,1.4,5.9,2c4,1.3,8.4,2.3,12.6,3.3c4.4,0.9,8.6,1.7,12.9,2.3c4.2,0.7,8.3,1.1,12.1,1.5   c7.6,0.8,14.1,1.2,18.5,1.4c2.2,0.1,3.9,0.1,5,0.1c0.6,0,0.7,0,0.9-0.1c0.3,0,0.5,0,0.5,0L179.9,195.9z"/>
</g>
<path style="fill:#E6E9EE;" d="M319.1,151.2c-3.8-8.5-11.8-14.5-21.2-16.2l-23.2-4c-5.9-1-12-1.6-18-1.6h-8.6c-6,0-12.1,0.5-18,1.6  l-23.2,4c-9.4,1.6-17.3,7.7-21.2,16.2c-10.6,23.4-27.6,73.1-8.1,121.1c0,0,29.5,94.3,15.1,131.5c0,0,1.2,36.4,59.7,31.9l0,0  c58.4,4.6,59.7-31.9,59.7-31.9c-14.4-37.2,15.1-131.5,15.1-131.5C346.8,224.3,329.8,174.6,319.1,151.2z"/>
<path style="fill:#CED5E0;" d="M283.7,371.6c1.2-13.1,1.8-27.1,1.8-41.7c0-70.3-14.8-127.2-33.1-127.2s-33.1,57-33.1,127.2  c0,14.6,0.6,28.6,1.8,41.7H283.7z"/>
<g>
	<path style="fill:#324A5E;" d="M193.2,361.9h118.7c3.3,0,6.1,2.7,6.1,6.1v64.7c0,5.3-4.3,9.7-9.7,9.7H196.8c-5.3,0-9.7-4.3-9.7-9.7   V368C187.1,364.6,189.8,361.9,193.2,361.9z"/>
	<path style="fill:#324A5E;" d="M336.7,223.8c0,0-19.8,1.9-26.2,29.4c0,0,11.2-0.4,19.7-3.5c5.9-2.1,9.4-8.1,8.4-14.3L336.7,223.8z"/>
	<path style="fill:#324A5E;" d="M168.3,223.8c0,0,19.8,1.9,26.2,29.4c0,0-11.2-0.4-19.7-3.5c-5.9-2.1-9.4-8.1-8.4-14.3L168.3,223.8z   "/>
</g>
<g>
	
		<ellipse transform="matrix(-0.464 -0.8858 0.8858 -0.464 271.7854 635.8448)" style="fill:#FFFFFF;" cx="328.257" cy="235.698" rx="1.6" ry="4.4"/>
	
		<ellipse transform="matrix(-0.464 0.8858 -0.8858 -0.464 468.0324 188.3852)" style="fill:#FFFFFF;" cx="177.023" cy="235.788" rx="1.6" ry="4.4"/>
</g>
<g>
	<circle style="fill:#2B3B4E;" cx="283.1" cy="388.6" r="12.5"/>
	<circle style="fill:#2B3B4E;" cx="221.9" cy="388.6" r="12.5"/>
</g>
<g>
	<path style="fill:#ACB3BA;" d="M335.8,215.6c-1.7,0.4-3.6,0.7-5.3,1.4c-1.1,0.4-2.3,0.7-3.5,1.2l-3.4,1.6l-1.7,0.8l-1.6,1   c-1.1,0.7-2.2,1.3-3.2,2c-2.1,1.4-3.9,3.1-5.8,4.7c-1.8,1.7-3.3,3.6-5,5.3c-1.6,1.7-2.7,3.6-3.9,5.3c-1.2,1.7-2.4,3.2-3.1,4.7   c-0.8,1.5-1.5,2.8-2.1,3.9c-1.2,2.2-1.8,3.4-1.8,3.4s0.2-1.4,0.7-3.8c0.2-1.2,0.5-2.7,0.8-4.4s0.9-3.6,1.6-5.7   c0.8-2,1.3-4.4,2.4-6.7s2.2-4.8,3.6-7.3c1.5-2.4,3-5,4.9-7.4c1-1.2,2-2.3,3-3.5l1.5-1.8l1.7-1.6l3.6-3.2c1.2-1,2.5-1.9,3.8-2.8   c2.5-2,5.3-3.4,8-4.9c0.8-0.4,1.6-0.8,2.5-1.2C334.6,202.7,335.4,209,335.8,215.6z"/>
	<path style="fill:#ACB3BA;" d="M209.5,250.9c0,0-0.6-1.2-1.8-3.4c-0.6-1.1-1.3-2.4-2.1-3.9c-0.7-1.5-1.9-3.1-3.1-4.7   c-1.3-1.7-2.3-3.6-3.9-5.3c-1.6-1.7-3.2-3.6-5-5.3c-1.9-1.6-3.8-3.3-5.8-4.7c-1.1-0.7-2.2-1.3-3.2-2l-1.6-1l-1.7-0.8l-3.4-1.6   c-1.1-0.5-2.3-0.8-3.5-1.2c-1.7-0.7-3.6-1-5.3-1.4c0.4-6.6,1.2-13,2.4-19.1c0.8,0.4,1.6,0.8,2.5,1.2c2.7,1.5,5.4,2.9,8,4.9   c1.3,0.9,2.6,1.8,3.8,2.8l3.6,3.2l1.7,1.6l1.6,1.8c1,1.2,2,2.4,3,3.5c1.9,2.4,3.4,5,4.9,7.4c1.4,2.5,2.4,5,3.6,7.3   c1.1,2.3,1.6,4.7,2.4,6.7c0.6,2.1,1.3,4,1.6,5.7s0.6,3.2,0.8,4.4C209.3,249.5,209.5,250.9,209.5,250.9z"/>
</g>
<g>
</g>
<g>
</g>
<g>
</g>
<g>
</g>
<g>
</g>
<g>
</g>
<g>
</g>
<g>
</g>
<g>
</g>
<g>
</g>
<g>
</g>
<g>
</g>
<g>
</g>
<g>
</g>
<g>
</g>
</svg>
