<?xml version="1.0" encoding="iso-8859-1"?>
<!-- Generator: Adobe Illustrator 19.0.0, SVG Export Plug-In . SVG Version: 6.00 Build 0)  -->
<svg xmlns="http://www.w3.org/2000/svg" xmlns:xlink="http://www.w3.org/1999/xlink" version="1.1" id="Layer_1" x="0px" y="0px" viewBox="0 0 505 505" style="enable-background:new 0 0 505 505;" xml:space="preserve">
<circle style="fill:#FFD05B;" cx="252.5" cy="252.5" r="252.5"/>
<path style="fill:#ECEFF8;" d="M435.4,117.8c-2.7-0.8-5.5,0.6-7.9,1.9c-6.5,3.5-13.1,7.1-18.8,11.8c-11.8,9.6-19.9,23.9-33.6,30.4  l4.7,53.8c-0.9,2.5,3.2,3.4,5.7,2.8c14-3.3,28.1-7.9,39.1-17.1c11.1-9.2,18.6-23.7,16.2-37.8c-1.4-8.2-6.1-16.3-4.4-24.5  c0.8-3.9,3-7.5,3.7-11.4C440.6,123.8,439.2,118.9,435.4,117.8z"/>
<path style="fill:#ACB3BA;" d="M401.7,156.6c2.3-3.2,4.1-6.8,5.9-10.3c1.2-2.4,2.4-4.8,3.7-7.2c1.1,5.9,1.6,11.9,1.7,17.9  c7.5-2.9,12.8-10.8,12.6-18.9c2.4,7.6,3.6,15.6,3.6,23.6c0,4.5-0.5,9-2.5,13c-2.6,5.1-7.8,8.7-13.4,9.5c3.3,0.3,6.7,0.7,10-0.1  s6.4-2.9,7.4-6.1c-3.5,10-13.2,16.7-23.2,20.2c-6.7,2.3-13.7,3.6-20.8,3.5c-7.4-0.1-14.8-1.7-22-3.3c2.3-4.6,4.7-9.1,7-13.7  c1.5-2.8,2.9-5.7,4.9-8.2c1.1-1.5,2.5-3,2.5-4.9c0-0.7-0.2-1.4,0.1-2c0.5-0.8,1.6-0.9,2.6-0.9C389.7,168.4,397,163.2,401.7,156.6z"/>
<path style="fill:#ECEFF8;" d="M69.6,117.8c2.7-0.8,5.5,0.6,7.9,1.9c6.5,3.5,13.1,7.1,18.8,11.8c11.8,9.6,19.9,23.9,33.6,30.4  l-4.7,53.8c0.9,2.5-3.2,3.4-5.7,2.8c-14-3.3-28.1-7.9-39.1-17.1c-11.1-9.2-18.6-23.7-16.2-37.8c1.4-8.2,6.1-16.3,4.4-24.5  c-0.8-3.9-3-7.5-3.7-11.4C64.4,123.8,65.8,118.9,69.6,117.8z"/>
<path style="fill:#ACB3BA;" d="M103.3,156.6c-2.3-3.2-4.1-6.8-5.9-10.3c-1.2-2.4-2.4-4.8-3.7-7.2C92.6,145,92.1,151,92,157  c-7.5-2.9-12.8-10.8-12.6-18.9c-2.4,7.6-3.6,15.6-3.6,23.6c0,4.5,0.5,9,2.5,13c2.6,5.1,7.8,8.7,13.4,9.5c-3.3,0.3-6.7,0.7-10-0.1  s-6.4-2.9-7.4-6.1c3.5,10,13.2,16.7,23.2,20.2c6.7,2.3,13.7,3.6,20.8,3.5c7.4-0.1,14.8-1.7,22-3.3c-2.3-4.6-4.7-9.1-7-13.7  c-1.5-2.8-2.9-5.7-4.9-8.2c-1.1-1.5-2.5-3-2.5-4.9c0-0.7,0.2-1.4-0.1-2c-0.5-0.8-1.6-0.9-2.6-0.9C115.3,168.4,108,163.2,103.3,156.6  z"/>
<path style="fill:#ECEFF8;" d="M401.4,207.5c0.1-12.5-1.4-25.4-7.4-36.4s-17.2-19.8-29.7-20.2c3.8-4.5,7.5-8.9,11.3-13.4  c-14.1,0-26.8-7.6-39.3-14.1c-12.5-6.5-26.9-12.1-40.3-8c2.6-4.6,6.5-8.4,11.2-10.8c-18-0.7-36,2.3-52.8,8.7  c-16.8-6.4-34.9-9.4-52.8-8.7c4.7,2.4,8.7,6.2,11.2,10.8c-13.5-4.1-27.8,1.5-40.3,8c-12.5,6.5-25.2,14.1-39.3,14.1  c3.8,4.5,7.5,8.9,11.3,13.4c-12.5,0.4-23.7,9.2-29.7,20.2s-7.5,23.9-7.4,36.4c0.1,20.5,4.3,41.1,12.2,60c0.3-6.9,0.5-13.8,0.8-20.7  c-2.1,29.5,9.2,59.8,30.2,80.7c-2.5-7.7-4.9-15.4-7.4-23.1c3.5,6.5,7.1,13,9.1,20.2c1.6,6,2.1,12.4,3.6,18.4  c4.6,18.2,19.9,33.2,38.1,37.6c-3.9-5.8-6.8-12.2-8.7-18.8c10.7,26.6,40.7,43.8,69.1,40.5c28.4,3.4,58.4-13.8,69.1-40.5  c-1.9,6.7-4.8,13.1-8.7,18.8c18.2-4.4,33.5-19.5,38.1-37.6c1.5-6.1,2-12.4,3.6-18.4c1.9-7.1,5.5-13.7,9.1-20.2  c-2.5,7.7-4.9,15.4-7.4,23.1c20.9-21,32.2-51.2,30.2-80.7c0.3,6.9,0.5,13.8,0.8,20.7C397.1,248.5,401.3,228,401.4,207.5z"/>
<g>
	<circle style="fill:#324A5E;" cx="301.6" cy="223.7" r="16.9"/>
	<circle style="fill:#324A5E;" cx="203.4" cy="223.7" r="16.9"/>
</g>
<g>
	<circle style="fill:#15202B;" cx="203.4" cy="223.7" r="7.4"/>
	<circle style="fill:#15202B;" cx="301.6" cy="223.7" r="7.4"/>
</g>
<g>
	<path style="fill:#FFFFFF;" d="M313.8,201.8c-5.3-2.2-11.3-0.6-17-1.3c3.7-4.1,9.5-5.8,15-5.7c5.5,0,10.9,1.6,16.2,3.2   c2.3,0.7,4.7,1.4,7,2.1c-5.3-3.2-10.5-6.3-15.8-9.5c-1-0.6-2-1.2-3.1-1.6c-1.5-0.5-3.1-0.5-4.7-0.5c-9.8,0-20.5,1.4-27.5,8.3   c1-3.8,4.2-6.6,7.3-9c5-3.9,10.1-7.9,16-10.3c7.5-2.9,15.8-3,23.8-3c-12.9-3.3-26.8-2.4-39.1,2.6c-3.7,1.5-7.2,3.3-10.7,5.2   c-4.7,2.5-9.7,5.1-12.7,9.5c-1.5,2.1-2.5,4.6-4.5,6.3c-1-13.1,8.1-26.2,20.7-29.9c-5.3,1.8-10.5,4.1-15.5,6.7   c-6.7,3.5-13.4,8-16.6,14.9c-0.1,0.3-0.2,0.6-0.3,0.9c-0.1-0.3-0.2-0.6-0.3-0.9c-3.2-6.9-9.9-11.4-16.6-14.9   c-5-2.6-10.2-4.8-15.5-6.7c12.6,3.6,21.7,16.8,20.7,29.9c-2-1.7-3-4.1-4.5-6.3c-3.1-4.4-8-7-12.7-9.5c-3.5-1.8-7.1-3.7-10.7-5.2   c-12.3-5-26.3-5.9-39.1-2.6c8.1,0,16.3,0,23.8,3c5.9,2.3,11,6.3,16,10.3c3.1,2.5,6.4,5.2,7.3,9c-7-6.9-17.6-8.2-27.5-8.3   c-1.6,0-3.2,0-4.7,0.5c-1.1,0.4-2.1,1-3.1,1.6c-5.3,3.2-10.5,6.3-15.8,9.5c2.3-0.7,4.7-1.4,7-2.1c5.3-1.6,10.7-3.1,16.2-3.2   c5.5,0,11.3,1.7,15,5.7c-5.7,0.6-11.7-0.9-17,1.3c-2.1,0.9-4,2.3-5.8,3.8c-3,2.4-6.1,4.8-9.1,7.2c7-2.6,14.3-4.4,21.7-5.4   c5.6-0.8,11.4-1,16.9,0.4s10.7,4.6,13.5,9.5c-4.3-1-9.1-1.9-12.9,0.3c-2.1,1.2-3.6,3.3-5.5,4.8c-1.3,1.1-3,1.8-4.7,1.8   c6.8,1.8,14,2.2,21,1.3c-4.5,3.8-10,6.4-15.8,7.2c8.2,1.5,16.8,0.4,24.3-3.1c-0.7,1.3-1.5,2.7-1.1,4.1c0.4,1.5,1.9,2.3,3.3,3   c4.9,2.5,9.9,5.5,12.8,10.2c1.3,2.1,2.1,4.4,2.7,6.8c0.6-2.4,1.4-4.7,2.7-6.8c2.9-4.7,7.9-7.6,12.8-10.2c1.4-0.7,2.9-1.5,3.3-3   c0.4-1.4-0.4-2.9-1.1-4.1c7.5,3.5,16.1,4.6,24.3,3.1c-5.8-0.9-11.4-3.4-15.8-7.2c7,1,14.2,0.5,21-1.3c-1.6,0-3.3-0.7-4.7-1.8   c-1.9-1.5-3.4-3.6-5.5-4.8c-3.8-2.2-8.6-1.3-12.9-0.3c2.8-4.9,8-8.2,13.5-9.5c5.5-1.4,11.3-1.1,16.9-0.4c7.4,1,14.7,2.8,21.7,5.4   c-3-2.4-6.1-4.8-9.1-7.2C317.8,204.1,316,202.7,313.8,201.8z"/>
	<path style="fill:#FFFFFF;" d="M331.2,346.9c-0.3-1.1-0.7-2.4-1.1-3.9s-1.3-3.1-2-4.9c-0.8-1.8-1.6-3.7-2.9-5.6   c-1.2-1.9-2.4-4-4.1-5.8c-1.6-1.9-3.3-3.9-5.3-5.6c-1-0.9-2-1.8-3-2.6l-3.3-2.3c-2.2-1.7-4.7-2.7-7-4.1c-2.4-1.1-4.9-2.2-7.3-3   s-4.8-1.6-7.1-2.1c-2.3-0.6-4.5-1-6.5-1.3c-4.1-0.6-7.5-0.9-10-1c-1.2-0.1-2.3,0-3,0c-0.6,0-1,0-1,0l0.7,6   c-1.6-0.3-3.1-0.6-4.5-0.9c-3.4-0.5-6.3-0.8-8.6-0.9v-0.1c0,0-0.3,0-1,0c-0.5,0-1,0-1.7,0c-0.6,0-1.2,0-1.7,0c-0.6,0-1,0-1,0v0.1   c-2.3,0.1-5.2,0.4-8.6,0.9c-1.4,0.3-3,0.5-4.5,0.9l0.7-6c0,0-0.3,0-1,0s-1.8,0-3,0c-2.5,0.1-5.9,0.3-10,1c-2,0.4-4.2,0.7-6.5,1.3   c-2.3,0.5-4.7,1.3-7.1,2.1c-2.4,0.8-4.8,1.9-7.3,3c-2.3,1.3-4.8,2.4-7,4.1l-3.3,2.3c-1,0.9-2,1.8-3,2.6c-2.1,1.7-3.7,3.7-5.3,5.6   c-1.7,1.8-2.9,3.9-4.1,5.8c-1.3,1.8-2.2,3.8-2.9,5.6c-0.7,1.8-1.6,3.3-2,4.9c-0.4,1.5-0.8,2.8-1.1,3.9c-0.6,2.1-1,3.3-1,3.3   s0.6-1.1,1.6-3.1c0.5-1,1.1-2.2,1.8-3.5c0.6-1.4,1.8-2.7,2.8-4.3c1-1.5,2.2-3.2,3.7-4.7s2.8-3.3,4.7-4.6c1.8-1.4,3.5-2.9,5.6-4.1   c1-0.6,2-1.2,3-1.8l3.2-1.5c2.1-1.1,4.4-1.6,6.6-2.4c2.3-0.5,4.5-1.1,6.6-1.4c1.4-0.2,2.7-0.4,4.1-0.5c-1.1,0.6-2.1,1.2-3.1,2   l-3.3,2.3c-1,0.9-2,1.8-3,2.6c-2.1,1.7-3.7,3.7-5.3,5.6c-1.7,1.8-2.9,3.9-4.1,5.8c-1.3,1.8-2.2,3.8-2.9,5.6c-0.7,1.8-1.6,3.3-2,4.9   c-0.4,1.5-0.8,2.8-1.1,3.9c-0.6,2.1-1,3.3-1,3.3s0.6-1.1,1.6-3.1c0.5-1,1.1-2.2,1.8-3.5c0.6-1.4,1.8-2.7,2.8-4.3   c1-1.5,2.2-3.2,3.7-4.7s2.8-3.3,4.7-4.6c1.8-1.4,3.5-2.9,5.6-4.1c1-0.6,2-1.2,3-1.8l3.2-1.5c2.1-1.1,4.4-1.6,6.6-2.4   c2.3-0.5,4.5-1.1,6.6-1.4c2.2-0.3,4.3-0.6,6.3-0.7c2-0.2,3.9-0.1,5.7-0.1c3.5,0.1,6.4,0.4,8.3,0.7c0.5,0.1,0.8,0.1,1.1,0.2v0.4   c0,0,0.3-0.1,0.8-0.2c0,0,0,0,0.1,0c0,0,0,0,0.1,0c0.5,0.1,0.8,0.2,0.8,0.2V323c0.3-0.1,0.7-0.1,1.1-0.2c1.9-0.3,4.8-0.6,8.3-0.7   c1.7,0,3.7-0.1,5.7,0.1c2,0.1,4.1,0.4,6.3,0.7c2.2,0.3,4.4,0.9,6.6,1.4c2.2,0.8,4.5,1.3,6.6,2.4l3.2,1.5c1,0.6,2,1.2,3,1.8   c2.1,1.1,3.8,2.6,5.6,4.1c1.9,1.3,3.2,3.1,4.7,4.6s2.7,3.1,3.7,4.7s2.2,2.9,2.8,4.3c0.7,1.4,1.3,2.6,1.8,3.5c1,2,1.6,3.1,1.6,3.1   s-0.4-1.2-1-3.3c-0.3-1.1-0.7-2.4-1.1-3.9s-1.3-3.1-2-4.9c-0.8-1.8-1.6-3.7-2.9-5.6c-1.2-1.9-2.4-4-4.1-5.8   c-1.6-1.9-3.3-3.9-5.3-5.6c-1-0.9-2-1.8-3-2.6l-3.3-2.3c-1-0.8-2-1.4-3.1-2c1.3,0.1,2.7,0.3,4.1,0.5c2.2,0.3,4.4,0.9,6.6,1.4   c2.2,0.8,4.5,1.3,6.6,2.4l3.2,1.5c1,0.6,2,1.2,3,1.8c2.1,1.1,3.8,2.6,5.6,4.1c1.9,1.3,3.2,3.1,4.7,4.6s2.7,3.1,3.7,4.7   s2.2,2.9,2.8,4.3c0.7,1.4,1.3,2.6,1.8,3.5c1,2,1.6,3.1,1.6,3.1S331.9,349,331.2,346.9z"/>
</g>
<g>
	<path style="fill:#324A5E;" d="M283.7,310.5c0,13.3-14,29.7-31.2,29.7s-31.2-16.4-31.2-29.7c0-13.3,14-18.5,31.2-18.5   S283.7,297.2,283.7,310.5z"/>
	<path style="fill:#324A5E;" d="M276.8,363.7c-1.6,6.3-11.8,11.2-24.2,11.2c-6.2,0-12-1.2-16.2-3.3c-4.3-2-7.3-4.8-8.1-7.9   c14.5-0.1,21.3-5.4,24.2-9.2h0.1C255.5,358.3,262.3,363.6,276.8,363.7z"/>
</g>
<g>
	<path style="fill:#2B3B4E;" d="M227.9,322.2c0.4,0.8,1,1.5,1.8,1.9c0.9,0.5,1.8,0.7,2.8,0.9c2.8,0.5,5.8,0.7,8.6,0s5.4-2.6,6.6-5.2   c0.4-0.8,0.6-1.7,0.8-2.5c0.5-2.5,0.3-5.2-1-7.4c-1.3-2.1-4.1-3.5-6.5-2.7c-2.5,0.8-3.9,3.7-3.6,6.3c0.2,1.8,1,3.6,0.5,5.3   c-0.5,1.9-2.3,3.1-4.2,3.5s-3.8,0-5.7-0.3"/>
	<path style="fill:#2B3B4E;" d="M276.1,322.2c-0.4,0.8-1,1.5-1.8,1.9c-0.9,0.5-1.8,0.7-2.8,0.9c-2.8,0.5-5.8,0.7-8.6,0   c-2.8-0.8-5.4-2.6-6.6-5.2c-0.4-0.8-0.6-1.7-0.8-2.5c-0.5-2.5-0.3-5.2,1-7.4c1.3-2.1,4.1-3.5,6.5-2.7c2.5,0.8,3.9,3.7,3.6,6.3   c-0.2,1.8-1,3.6-0.5,5.3c0.5,1.9,2.3,3.1,4.2,3.5c1.9,0.4,3.8,0,5.7-0.3"/>
</g>
<g>
	<path style="fill:#FFFFFF;" d="M360.3,307c-22.2-45.6-60.6-49.2-60.6-49.2c36.3-5.4,65.5,34.2,65.5,34.2   c-33.8-58.6-93-47.4-108.1-43.4l0.1-1.7l-4.6,2.4l-4.6-2.4l0.1,1.7c-15.1-4-74.3-15.2-108.1,43.4c0,0,29.1-39.6,65.5-34.2   c0,0-38.4,3.6-60.6,49.2c0,0,27.1-38.9,56.9-36.7c0,0-50.4,15.2-52,63.4c0,0,13.5-52.5,69.3-58.5c0,0-34.7,6.5-51.4,43.3   c0,0,36.3-39,66.6-37.4c0,0-39,10.2-53.1,35.2c0,0,30.9-34.5,60.2-23l11.3-1.1l11.3,1.1c29.3-11.5,60.2,23,60.2,23   c-14.1-24.9-53.1-35.2-53.1-35.2c30.3-1.6,66.6,37.4,66.6,37.4c-16.8-36.8-51.4-43.3-51.4-43.3c55.8,6,69.3,58.5,69.3,58.5   c-1.6-48.2-52-63.4-52-63.4C333.2,268.1,360.3,307,360.3,307z"/>
	<path style="fill:#FFFFFF;" d="M284.3,172.2c1.7-8.6,7.3-16.3,15-20.5s17.2-4.7,25.3-1.5c4.9,2,9.5,5.6,11.2,10.6   c-3.4-4.5-9.3-6.1-14.7-7.4c-4.1-1-8.4-2-12.6-1.5s-8.5,3-9.9,7c9-3.9,20.6,0,25.5,8.5c-1.7,0.3-3.3-0.9-4.8-1.8   c-10.6-6.8-26-4.7-34.4,4.7"/>
	<path style="fill:#FFFFFF;" d="M335,171.4c8.1-8.7,21.9-11.2,32.9-6.5c10.9,4.7,18.5,16,19.4,27.9c-4.3-11.2-14.4-20-26-22.7   c10.3,4.7,17.7,14.6,21.4,25.4c3.7,10.8,4.2,22.3,3.9,33.7c0.7-10-2.4-20-7.3-28.8c-4.8-8.8-11.4-16.5-18.1-24   c5.1,6.9,10.5,14.8,9.2,23.3c-3.4-7.3-6.9-14.7-12.4-20.5c-5.6-5.8-13.6-9.8-21.5-8.4"/>
	<path style="fill:#FFFFFF;" d="M220.7,172.2c-1.7-8.6-7.3-16.3-15-20.5s-17.2-4.7-25.3-1.5c-4.9,2-9.5,5.6-11.2,10.6   c3.4-4.5,9.3-6.1,14.7-7.4c4.1-1,8.4-2,12.6-1.5c4.2,0.5,8.5,3,9.9,7c-9-3.9-20.6,0-25.5,8.5c1.7,0.3,3.3-0.9,4.8-1.8   c10.6-6.8,26-4.7,34.4,4.7"/>
	<path style="fill:#FFFFFF;" d="M170,171.4c-8.1-8.7-21.9-11.2-32.9-6.5c-10.9,4.7-18.5,16-19.4,27.9c4.3-11.2,14.4-20,26-22.7   c-10.3,4.7-17.7,14.6-21.4,25.4c-3.7,10.8-4.2,22.3-3.9,33.7c-0.7-10,2.4-20,7.3-28.8c4.8-8.8,11.4-16.5,18.1-24   c-5.1,6.9-10.5,14.8-9.2,23.3c3.4-7.3,6.9-14.7,12.4-20.5c5.6-5.8,13.6-9.8,21.5-8.4"/>
</g>
<g>
</g>
<g>
</g>
<g>
</g>
<g>
</g>
<g>
</g>
<g>
</g>
<g>
</g>
<g>
</g>
<g>
</g>
<g>
</g>
<g>
</g>
<g>
</g>
<g>
</g>
<g>
</g>
<g>
</g>
</svg>
