<?xml version="1.0" encoding="iso-8859-1"?>
<!-- Generator: Adobe Illustrator 19.0.0, SVG Export Plug-In . SVG Version: 6.00 Build 0)  -->
<svg xmlns="http://www.w3.org/2000/svg" xmlns:xlink="http://www.w3.org/1999/xlink" version="1.1" id="Layer_1" x="0px" y="0px" viewBox="0 0 505 505" style="enable-background:new 0 0 505 505;" xml:space="preserve">
<circle style="fill:#90DFAA;" cx="252.5" cy="252.5" r="252.5"/>
<path style="fill:#2B3B4E;" d="M364.3,143.9c-7.1-0.5-14.5-0.8-20.8,2.4c-8.1,4.1-12.5,12.9-14.6,21.7c-3.5,14.8-1.8,30.4,2.8,44.9  c4.6,14.5,11.9,27.9,19.8,40.9c6.1,10.1,12.5,20,19.3,29.8c5.4,7.8,11,15.5,14.9,24.1c2.6,5.8,4.4,11.9,6.2,18  c1.4,4.8,2.8,9.5,4.2,14.3c7.1-5.1,9.7-14.2,11.5-22.7c9.7-46.7,6.5-95.5-5.7-141.6c-2.6-9.6-6-19.8-14.1-25.6  C381.1,145.3,372.5,144.4,364.3,143.9z"/>
<path style="fill:#324A5E;" d="M355.7,137.9c16.1-6.4,34.3-0.9,49.4,7.7c113.1,64.2,6,234.1-19.3,233.8c-1.5,0-26.1-32,4.1-101.9  c3.9-8.9,19.8-108.2-37.4-131.6c-1.5-0.6-1.3-3.1-0.8-4.6C352.1,139.5,354,138.6,355.7,137.9z"/>
<path style="fill:#2B3B4E;" d="M140.7,143.9c7.1-0.5,14.5-0.8,20.8,2.4c8.1,4.1,12.5,12.9,14.6,21.7c3.5,14.8,1.8,30.4-2.8,44.9  c-4.6,14.5-11.9,27.9-19.8,40.9c-6.1,10.1-12.5,20-19.3,29.8c-5.4,7.8-11,15.5-14.9,24.1c-2.6,5.8-4.4,11.9-6.2,18  c-1.4,4.8-2.8,9.5-4.2,14.3c-7.1-5.1-9.7-14.2-11.5-22.7c-9.7-46.7-6.5-95.5,5.7-141.6c2.6-9.6,6-19.8,14.1-25.6  C123.9,145.3,132.5,144.4,140.7,143.9z"/>
<path style="fill:#324A5E;" d="M149.3,137.9c-16.1-6.4-34.3-0.9-49.4,7.7c-113.1,64.2-6,234.1,19.3,233.8c1.5,0,26.1-32-4.1-101.9  c-3.9-8.9-19.8-108.2,37.4-131.6c1.5-0.6,1.3-3.1,0.8-4.6C152.9,139.5,151,138.6,149.3,137.9z"/>
<g>
	<path style="fill:#FFFFFF;" d="M272.2,94.3h-39.3c-45.8,0-87.4,29.5-100,73.6c-0.1,0.3-0.2,0.6-0.3,0.9   c-4.2,14.6-6.4,30.2-6.4,46.4c0,40.1,13.7,76.6,35.9,103.3c8.9,10.7,14.4,24.4,17,38.8c0.5,2.3,0.8,4.6,1.1,7   c3.2,26.5,13.9,46.4,31,46.4c3.2,0,6.2-0.8,9.3-2.2c20.5-9.4,43.4-9.1,64,0.1c3,1.3,6,2.1,9.1,2.1c17.2,0,27.9-19.8,31.1-46.4   c0.3-2.4,0.6-4.8,1-7.1c2.6-14.4,8.1-27.9,17.2-38.7c22.1-26.6,35.8-63,35.8-103.3c0-16.2-2.2-31.8-6.4-46.4   c-0.1-0.3-0.2-0.6-0.3-0.9C359.5,123.8,318,94.3,272.2,94.3z"/>
	<path style="fill:#FFFFFF;" d="M378.8,215.2c0,40.2-13.7,76.6-35.8,103.2c-8.6,10.3-14,23-16.7,36.5c-0.2,0.7-0.3,1.5-0.5,2.2   c-0.4,2.3-0.8,4.7-1,7.1c-3.2,26.6-13.9,46.4-31.1,46.4c-3.1,0-6.1-0.7-9.1-2.1c-20.6-9.2-43.5-9.4-64-0.1c-3,1.4-6.1,2.2-9.3,2.2   c-17.1,0-27.8-19.8-31-46.4c-0.3-2.4-0.7-4.7-1.1-7c-0.1-0.8-0.3-1.6-0.5-2.3c-2.8-13.6-8.1-26.3-16.6-36.5   c-22.2-26.6-35.9-63.1-35.9-103.2c0-14,1.6-27.4,4.8-40.2l0,0c0.5-2.1,1-4.1,1.6-6.1c0.1-0.3,0.2-0.6,0.3-0.9   c12.6-44.1,54.1-73.6,100-73.6h39.3c45.8,0,87.4,29.5,100,73.6c0.1,0.3,0.2,0.6,0.3,0.9c0.6,2,1.1,4.1,1.6,6.2   C377.1,187.8,378.8,201.3,378.8,215.2z"/>
</g>
<g>
	<path style="fill:#324A5E;" d="M278.9,363c-4.5,3.9-14.5,6.6-26.2,6.6c-11.7,0-21.6-2.7-26.2-6.6c7.7-1,16.4-3.9,23.3-8   c1-0.6,2-1.2,2.8-1.9c0.9,0.6,1.8,1.2,2.8,1.9C262.5,359.2,271.3,362.1,278.9,363z"/>
	<path style="fill:#324A5E;" d="M283.5,318.1c0,11.8-13.8,27.1-30.7,27.1c-17,0-30.7-15.3-30.7-27.1c0-11.8,13.8-15.6,30.7-15.6   C269.7,302.5,283.5,306.3,283.5,318.1z"/>
</g>
<g>
	<path style="fill:#E6E9EE;" d="M378.8,215.2c0,40.2-13.7,76.6-35.8,103.2c-8.6,10.3-14,23-16.7,36.5c-117.2-207.4,7.3-213,47.7-180   C377.1,187.8,378.8,201.3,378.8,215.2z"/>
	<path style="fill:#E6E9EE;" d="M178.7,355c-2.8-13.6-8.1-26.3-16.6-36.5c-22.2-26.6-35.9-63.1-35.9-103.2c0-14,1.6-27.4,4.8-40.2   l0,0C171.4,142,295.9,147.5,178.7,355z"/>
</g>
<path style="fill:#324A5E;" d="M350.4,217.6c7.2-21.8-21.9-49.7-45.7-32.4c-0.4-0.3,3.7-7.8,10.4-11.3  c-19.6,3.8-21.6,22.2-21.4,22.7C310.1,229.3,342.8,199.3,350.4,217.6z"/>
<path style="fill:#FFFFFF;" d="M316.7,212.3l-16.1-16.1l16.1-16.1c2.2-2.2,5.7-2.2,7.8,0l16.1,16.1l-16.1,16.1  C322.4,214.5,318.9,214.5,316.7,212.3z"/>
<circle style="fill:#4CDBC4;" cx="319.5" cy="196.2" r="10.5"/>
<circle style="fill:#324A5E;" cx="319.5" cy="196.2" r="4.5"/>
<ellipse style="fill:#FFFFFF;" cx="317.5" cy="193.5" rx="1.4" ry="2.7"/>
<path style="fill:#324A5E;" d="M154.6,217.6c-7.2-21.8,21.9-49.7,45.7-32.4c0.4-0.3-3.7-7.8-10.4-11.3c19.6,3.8,21.6,22.2,21.4,22.7  C194.9,229.3,162.2,199.3,154.6,217.6z"/>
<path style="fill:#FFFFFF;" d="M188.3,212.3l16.1-16.1l-16.1-16.1c-2.2-2.2-5.7-2.2-7.8,0l-16.1,16.1l16.1,16.1  C182.6,214.5,186.1,214.5,188.3,212.3z"/>
<circle style="fill:#4CDBC4;" cx="185.5" cy="196.2" r="10.3"/>
<circle style="fill:#324A5E;" cx="185.5" cy="196.2" r="4.5"/>
<ellipse style="fill:#FFFFFF;" cx="187.5" cy="193.5" rx="1.4" ry="2.7"/>
<g>
	<path style="fill:#324A5E;" d="M292.1,173.9c0,0-0.7-14.3,11.9-18.9c-1.9,2.4-3.4,5.2-4.3,8.2c15.1-18,32.1-9.2,43.5-2.8   c0,0-7.1-1.1-9.9,0.1c14.9,2.7,18.5,12.5,18.5,12.5C348.4,171.3,310.2,153.2,292.1,173.9z"/>
	<path style="fill:#324A5E;" d="M213.4,173.9c0,0,0.7-14.3-11.9-18.9c1.9,2.4,3.4,5.2,4.3,8.2c-15.1-18-32.1-9.2-43.5-2.8   c0,0,7.1-1.1,9.9,0.1c-14.9,2.7-18.5,12.5-18.5,12.5C157.1,171.3,195.3,153.2,213.4,173.9z"/>
</g>
<g>
	<circle style="fill:#2B3B4E;" cx="264.6" cy="322.7" r="7.2"/>
	<circle style="fill:#2B3B4E;" cx="241" cy="322.7" r="7.2"/>
</g>
<g>
</g>
<g>
</g>
<g>
</g>
<g>
</g>
<g>
</g>
<g>
</g>
<g>
</g>
<g>
</g>
<g>
</g>
<g>
</g>
<g>
</g>
<g>
</g>
<g>
</g>
<g>
</g>
<g>
</g>
</svg>
