<?xml version="1.0" encoding="iso-8859-1"?>
<!-- Generator: Adobe Illustrator 19.0.0, SVG Export Plug-In . SVG Version: 6.00 Build 0)  -->
<svg xmlns="http://www.w3.org/2000/svg" xmlns:xlink="http://www.w3.org/1999/xlink" version="1.1" id="Layer_1" x="0px" y="0px" viewBox="0 0 505 505" style="enable-background:new 0 0 505 505;" xml:space="preserve">
<circle style="fill:#324A5E;" cx="252.5" cy="252.5" r="252.5"/>
<g>
	<path style="fill:#CED5E0;" d="M143.7,254.3c13.6-0.4,27.1-5.7,37.6-15c10.5-9.2,18-22.3,20.9-36.5c0.7-3.3,1.1-6.7,0.3-10   c-0.8-3.2-3.2-6.2-6.2-6.8c-0.9-10.4-1.9-21.2-7-30c-6.5-11.3-18.3-17.6-27.8-26.3c-14.7-13.5-23.7-33.9-24.2-54.6   c-7.8,10.3-16.9,19.5-24.4,30.1s-13.6,22.9-14.2,36.1c-1.5-4.8-2.9-9.6-4.4-14.5c-7,26.3-10.6,53.7-10.7,81.1c0,2.8,0,5.5,0.4,8.3   c1.4,9.8,7.2,18.4,14.6,24.3c7.4,5.9,16.3,9.3,25.4,11.4C130.4,253.5,137,254.5,143.7,254.3z"/>
	<path style="fill:#CED5E0;" d="M361.3,254.3c-13.6-0.4-27.1-5.7-37.6-15c-10.5-9.2-18-22.3-20.9-36.5c-0.7-3.3-1.1-6.7-0.3-10   c0.8-3.2,3.2-6.2,6.2-6.8c0.9-10.4,1.9-21.2,7-30c6.5-11.3,18.3-17.6,27.8-26.3c14.7-13.5,23.7-33.9,24.2-54.6   c7.8,10.3,16.9,19.5,24.4,30.1s13.6,22.9,14.2,36.1c1.5-4.8,2.9-9.6,4.4-14.5c45.7,58.5,3.1,107.7-4.3,113.6   c-7.4,5.9-16.3,9.3-25.4,11.4C374.6,253.5,368,254.5,361.3,254.3z"/>
</g>
<path style="fill:#FFFFFF;" d="M385,312.7c-1.3,7.6-3.2,15.1-5.6,22.5c-0.7-4.2-2.8-9.3-3.5-13.5c-2.3,5.7-0.1,12.6,0.1,19.1  c0.2,9.3-3.9,17.9-8,26c-1.5,3-3,6.1-4.9,8.9c-4.1,6.1-9.8,11-13.7,17.3c-3.3,5.3-5.4,11.4-7.4,17.5c-0.6-6.4-0.7-12.8-0.3-19.1  c-2,8.3-9.2,13.4-15.9,17.9c-12.1,8.1-24.3,16.2-37.8,22c-11.2,4.8-23.4,7.7-35.4,7.3c0,0,0,0-0.1,0c-12.1,0.5-24.3-2.5-35.5-7.3  c-13.5-5.7-25.7-13.9-37.9-22c-6.7-4.4-13.9-9.6-15.9-17.9c0.4,6.3,0.3,12.7-0.3,19.1c-2-6.1-4.1-12.2-7.4-17.5  c-4-6.3-9.6-11.1-13.7-17.3c-1.9-2.8-3.4-5.8-4.9-8.9c-4.1-8.1-8.3-16.7-8-26c0.2-6.5,2.5-13.3,0.2-19.1c-0.7,4.2-2.8,9.2-3.6,13.5  c-7.3-22.3-9.6-46-6.9-68.9c0.4-3.2,0.9-6.4,1.6-9.6c3.7-16.1,13.4-30.6,25.8-41.6c11.7-10.4,25.6-17.9,39.9-23.5H185  c0.7-0.1,1.3-0.3,2-0.5c0.2-0.1,0.5-0.2,0.7-0.3s0.5-0.2,0.8-0.3c0.4-0.2,0.8-0.4,1.2-0.6h2.4c1.9-0.6,3.7-1.5,5-2.6l0,0  c2.1-2,4-4,5.9-5.9c1.6-1.9,14.5-14.7,14.5-14.7c0,1.3-0.1,2.7-0.2,4.3c-0.1,1.6-0.6,3.4-1,5.2c-0.5,1.9-1.3,4-2,6.2  c-0.3,0.6-0.6,1.3-0.9,1.9h0.3c0.7-0.8,1.3-1.5,2-2.3c1.4-1.9,3-3.8,4.2-5.5c1-1.7,2.2-3.3,3-4.8c0.6-1.5,1.4-2.9,1.9-4.2  c0.4-1.3,0.6-2.3,0.9-3.4c0.3-1,0.2-1.8,0.2-2.4c0-1.3,0-2.1,0-2.1s0.4,0.7,1,1.9c0.3,0.6,0.9,1.4,1.1,2.3c0.3,1,0.6,2.1,0.8,3.3  c0.2,1.3,0.2,2.7,0.3,4.3c0,1.6-0.4,3.4-0.6,5.3c0,0.3-0.2,0.6-0.2,0.8c0.3-0.3,0.6-0.7,0.8-1c1.2-1.8,2.5-3.5,3.6-5.1  c0.8-1.6,1.9-3.1,2.4-4.5s1.1-2.7,1.5-3.9c0.2-1.2,0.4-2.2,0.6-3.1c0.2-0.9,0-1.6,0-2.3c-0.1-1.2-0.1-1.9-0.1-1.9s0.4,0.6,1.1,1.8  c0.3,0.6,0.9,1.3,1.3,2.1c0.3,0.9,0.7,2,1.1,3.1c0.3,1.2,0.4,2.6,0.6,4c0.2,1.5,0,3.1,0,4.9c0,0.5-0.2,1-0.2,1.6  c0.2-0.3,0.5-0.6,0.7-1c1-1.6,2.2-3.2,3-4.8c0.7-1.5,1.5-2.9,2-4.3c0.4-1.3,0.9-2.5,1.1-3.7c0.1-1.1,0.2-2.1,0.3-2.9  c0.1-0.9-0.2-1.6-0.2-2.2c-0.2-1.2-0.3-1.8-0.3-1.8s0.5,0.6,1.3,1.7c0.4,0.6,1.1,1.2,1.4,2.1c0.4,0.9,0.9,1.8,1.3,2.9  c0.2,0.7,0.4,1.5,0.6,2.2c0.2-0.8,0.4-1.5,0.6-2.2c0.5-1.1,0.9-2.1,1.3-2.9c0.4-0.8,1.1-1.5,1.4-2.1c0.8-1.1,1.3-1.7,1.3-1.7  s-0.1,0.7-0.3,1.8c0,0.6-0.3,1.3-0.2,2.2c0.1,0.8,0.2,1.8,0.3,2.9c0.2,1.1,0.7,2.4,1.1,3.7s1.3,2.8,2,4.3c0.8,1.6,2,3.1,3,4.8  c0.2,0.3,0.5,0.6,0.7,1c-0.1-0.5-0.2-1-0.2-1.6c0-1.7-0.2-3.4-0.1-4.9c0.2-1.5,0.3-2.8,0.6-4c0.4-1.1,0.8-2.2,1.1-3.1  c0.3-0.8,0.9-1.6,1.3-2.1c0.7-1.2,1.1-1.8,1.1-1.8s0,0.7-0.1,1.9c0,0.7-0.2,1.4,0,2.3c0.2,0.9,0.4,2,0.6,3.1  c0.4,1.1,0.9,2.4,1.5,3.9c0.6,1.4,1.6,2.9,2.4,4.5c1,1.6,2.4,3.4,3.5,5.1c0.3,0.3,0.6,0.7,0.9,1c-0.1-0.3-0.2-0.5-0.2-0.8  c-0.2-1.9-0.6-3.7-0.5-5.3s0.1-3,0.3-4.3c0.3-1.2,0.6-2.4,0.8-3.3c0.2-0.9,0.8-1.7,1.1-2.3c0.7-1.2,1-1.9,1-1.9s0,0.8,0.1,2.1  c0.1,0.7-0.1,1.5,0.2,2.4c0.2,1,0.6,2.1,0.9,3.4c0.4,1.3,1.2,2.7,1.9,4.2c0.7,1.5,2,3.1,3,4.8c1.2,1.8,2.8,3.6,4.2,5.5  c0.7,0.8,1.3,1.5,2,2.3h0.3c-0.3-0.6-0.6-1.3-0.9-1.9c-0.7-2.2-1.6-4.2-2.1-6.2c-0.3-1.8-0.9-3.6-1-5.2c0-1.6-0.2-3-0.1-4.3  c0,0,12.9,12.8,14.5,14.7c1.9,1.9,3.8,3.9,5.9,5.9l0,0c1.3,1.1,3,2.1,5,2.6h2.4c0.4,0.3,0.8,0.5,1.2,0.6c0.3,0.1,0.5,0.2,0.8,0.3  c0.2,0.1,0.5,0.2,0.7,0.3c0.7,0.2,1.3,0.3,2,0.5h-0.8c14.4,5.6,28.3,13.1,39.9,23.5c12.3,11,22.1,25.5,25.8,41.6  c0.7,3.1,1.2,6.3,1.6,9.6C388.1,281.5,387.7,297.3,385,312.7z"/>
<path style="fill:#E6E9EE;" d="M375.8,321.7c-2.3,5.7-0.1,12.6,0.1,19.1c0.2,9.3-3.9,17.9-8,26c-1.5,3-3,6.1-4.9,8.9  c-4.1,6.1-9.8,11-13.7,17.3c-3.3,5.3-5.4,11.4-7.4,17.5c-0.6-6.4-0.7-12.8-0.3-19.1c-2,8.3-9.2,13.4-15.9,17.9  c-12.1,8.1-24.3,16.2-37.8,22c-11.2,4.8-23.4,7.7-35.4,7.3v-51.5c7.4,0,14.5-2.3,21.9-3.5c8.8-1.5,18.4-3.4,24-10.7  c5.4-6.8,5.8-16.6,5.6-25.5c-0.1-6.3-0.3-12.6-1.9-18.5c-1.7-6.4-5.1-12.3-9.6-17c-2.9-3-6.3-5.5-8.9-8.8c-3.5-4.3-5-9.8-6.9-15.1  c1.5-5.3-2.6-10.7-2.2-16.2c0.2-3.1,1.6-5.8,3.1-8.4c1.4-2.6,2.8-5.2,4.6-7.4c5.7-7.1,14.4-10.2,22.7-13.1c4.6-1.6,9.6-2.5,14.2-4.1  c19.7,3.1,37.5,17.3,46,36.5c5.8,13.1,8.2,29.3,19.5,37.2c0.1,0.1,0.2,0.2,0.4,0.2c-1.3,7.6-3.2,15.1-5.6,22.5  C378.6,330.9,376.6,325.9,375.8,321.7z"/>
<g>
	<path style="fill:#FFFFFF;" d="M313,227.1h30.5c-2.7-6.2-6-12.3-7.9-18.9c-2.9-10-2.4-21,0.4-31c2.8-10.1,7.9-19.3,14.1-27.5   c4.8-6.5,10.4-12.5,13.9-19.9c3.7-7.8,4.8-16.8,5.8-25.5c0.7-6.1,1.4-12.4,0.7-18.5c-0.5-3.6-1.4-7.1-2.6-10.5   c-0.6,20.6-9.6,40.8-24.2,54.3c-9.4,8.7-21.3,15-27.8,26.3c-5.1,8.9-6.1,19.7-7,30c-3.1,0.6-5.4,3.6-6.2,6.8   c-0.8,3.2-0.4,6.7,0.3,9.9C304.7,211.5,308.2,219.8,313,227.1z"/>
	<path style="fill:#FFFFFF;" d="M141,129.9c3.5,7.4,9.1,13.4,13.9,19.9c6.2,8.2,11.2,17.4,14.1,27.5c2.8,9.9,3.3,20.7,0.5,30.7h31.4   c0.5-1.7,0.9-3.4,1.2-5.1c0.7-3.3,1.1-6.7,0.3-9.9c-0.8-3.3-3.1-6.2-6.2-6.8c-0.9-10.4-1.9-21.2-7-30   c-6.5-11.3-18.4-17.6-27.8-26.3c-14.7-13.5-23.7-33.7-24.2-54.3c-1.2,3.4-2.2,6.9-2.6,10.5c-0.8,6.1,0,12.4,0.7,18.5   C136.2,113.1,137.3,122,141,129.9z"/>
</g>
<path style="fill:#E6E9EE;" d="M129.1,321.7c2.3,5.7,0.1,12.6-0.1,19.1c-0.2,9.3,3.9,17.9,8,26c1.5,3,3,6.1,4.9,8.9  c4.1,6.1,9.8,11,13.7,17.3c3.3,5.3,5.4,11.4,7.4,17.5c0.6-6.4,0.7-12.8,0.3-19.1c2,8.3,9.2,13.4,15.9,17.9  c12.1,8.1,24.3,16.2,37.8,22c11.2,4.8,23.4,7.7,35.4,7.3v-51.5c-7.4,0-14.5-2.3-21.9-3.5c-8.8-1.5-18.4-3.4-24-10.7  c-5.4-6.8-5.8-16.6-5.6-25.5c0.1-6.3,0.3-12.6,1.9-18.5c1.7-6.4,5.1-12.3,9.6-17c2.9-3,6.3-5.5,8.9-8.8c3.5-4.3,5-9.8,6.9-15.1  c-1.5-5.3,2.6-10.7,2.2-16.2c-0.2-3.1-1.6-5.8-3.1-8.4c-1.4-2.6-2.8-5.2-4.6-7.4c-5.7-7.1-14.4-10.2-22.7-13.1  c-4.6-1.6-9.6-2.5-14.2-4.1c-19.7,3.1-37.5,17.3-46,36.5c-5.8,13.1-8.2,29.3-19.5,37.2c-0.1,0.1-0.2,0.2-0.4,0.2  c1.3,7.6,3.2,15.1,5.6,22.5C126.4,330.9,128.4,325.9,129.1,321.7z"/>
<path style="fill:#CED5E0;" d="M327,259.4c-1-0.6-2-1.1-3-1.7c-0.2,0.1-0.5,0.1-0.8,0.1c-3.3-0.1-7.6-0.9-11.5-0.7  c-0.5,0.2-1,0.5-1.5,0.7c-2.2,1-4.5,1.9-6.7,2.9c-0.9,1.1-1.6,2.4-2.7,3.4c-1.7,1.7-4,2.8-5.3,4.8c-0.3,0.5-0.7,0.8-1.2,1  c-0.2,0.8-0.4,1.6-0.6,2.3c-0.3,0.8-0.8,1.7-1.6,2c2,1.7,4.1,3.5,6.6,4.3c1,0.3,2,0.5,2.9,0.7c0.8,0.1,1.6,0.3,2.4,0.4  s1.7,0.3,2.5,0.4c4.4,0.5,9-0.7,12.8-3.3c1.1-0.8,2.1-1.6,2.8-2.8c0.4-0.7,0.7-1.4,1-2.1c1-2.6,2-5.2,3-7.8c0.3-0.8,0.7-1.6,1.4-1.9  c1-0.5,2.2,0.4,3.3,0.3C329.9,261,328.4,260.1,327,259.4z"/>
<path style="fill:#324A5E;" d="M325.5,262.6c-7.6-8.8-20.9-5.9-29.7,6.4l0,0l0,0C317.3,282.2,323.5,270.9,325.5,262.6L325.5,262.6  L325.5,262.6z"/>
<ellipse style="fill:#FFD05B;" cx="310.7" cy="265.7" rx="9.5" ry="8.8"/>
<path style="fill:#324A5E;" d="M292.3,273.5c0,0,0.2-0.7,0.7-1.9c0.2-0.6,0.5-1.3,0.9-2.1c0.2-0.4,0.4-0.8,0.6-1.3  c0.3-0.4,0.6-0.9,0.8-1.3c0.6-0.9,1.3-2,2-3c0.8-0.9,1.8-1.9,2.7-2.9c1-0.9,2.2-1.8,3.4-2.6c1.3-0.7,2.6-1.4,4-2  c1.4-0.4,2.8-1,4.3-1.1c0.7-0.1,1.4-0.2,2.1-0.3c0.7,0,1.4,0,2.1,0s1.4,0.1,2,0.2s1.3,0.2,1.9,0.4c1.2,0.3,2.3,0.7,3.3,1.1  s1.9,0.9,2.6,1.3c0.7,0.5,1.4,0.9,1.9,1.3c1,0.8,1.5,1.3,1.5,1.3s-0.2,0-0.5-0.1s-0.8-0.2-1.4-0.3c-0.6-0.2-1.3-0.3-2.1-0.4  c-0.8-0.1-1.7-0.3-2.7-0.4s-2-0.2-3.1-0.2c-0.5,0-1.1,0-1.7,0s-1.1,0-1.7,0.1s-1.2,0.1-1.8,0.2c-0.6,0.1-1.2,0.3-1.8,0.4  c-1.2,0.2-2.3,0.7-3.5,1c-0.6,0.2-1.1,0.5-1.7,0.8c-0.5,0.3-1.1,0.5-1.7,0.8c-1,0.7-2.1,1.3-3.1,2c-0.9,0.8-1.9,1.5-2.8,2.1  c-0.8,0.8-1.6,1.5-2.4,2.1c-0.4,0.3-0.7,0.7-1.1,1c-0.3,0.3-0.6,0.7-0.9,1c-0.6,0.6-1.1,1.2-1.6,1.6  C292.8,273,292.3,273.5,292.3,273.5z"/>
<path style="fill:#CED5E0;" d="M182.1,258c-2,1.7-3.9,3.4-5.9,5.1c-1.1,1-2.3,2-2.9,3.4c1-0.2,1.9-1.2,2.9-1  c0.7,0.1,1.2,0.8,1.6,1.5c1.4,2.1,2.8,4.3,4.2,6.4c0.4,0.6,0.8,1.2,1.3,1.7c0.8,0.9,1.9,1.5,3.1,1.9c3.8,1.6,8.2,1.7,12.1,0.4  c0.7-0.3,1.5-0.6,2.2-0.9s1.4-0.6,2.1-0.9c0.9-0.4,1.7-0.7,2.5-1.2c2.1-1.2,3.6-3.3,5.1-5.2c-0.8-0.1-1.4-0.8-1.8-1.4  c-0.4-0.7-0.7-1.4-1.1-2.2c-1.5-2.9-4.4-4.6-7.3-5.6c-3-0.9-6.1-1.2-9.1-1.9c-0.8-0.2-1.7-0.4-2.5-0.6c-1.9-0.4-3.8-0.5-5.6-0.3  C182.4,257.4,182.1,257.4,182.1,258z"/>
<path style="fill:#324A5E;" d="M179.3,262.6c7.6-8.8,20.9-5.9,29.7,6.4l0,0l0,0C187.5,282.2,181.3,270.9,179.3,262.6L179.3,262.6  L179.3,262.6z"/>
<ellipse style="fill:#FFD05B;" cx="194.1" cy="265.7" rx="9.5" ry="8.8"/>
<path style="fill:#324A5E;" d="M212.5,273.5c0,0-0.2-0.7-0.7-1.9c-0.2-0.6-0.5-1.3-0.9-2.1c-0.2-0.4-0.4-0.8-0.6-1.3  c-0.3-0.4-0.6-0.9-0.8-1.3c-0.6-0.9-1.3-2-2-3c-0.8-0.9-1.8-1.9-2.7-2.9c-1-0.9-2.2-1.8-3.4-2.6c-1.3-0.7-2.6-1.4-4-2  c-1.4-0.4-2.8-1-4.3-1.1c-0.7-0.1-1.4-0.2-2.1-0.3c-0.7,0-1.4,0-2.1,0c-0.7,0-1.4,0.1-2,0.2s-1.3,0.2-1.9,0.4  c-1.2,0.3-2.3,0.7-3.3,1.1s-1.9,0.9-2.6,1.3c-0.7,0.5-1.4,0.9-1.9,1.3c-1,0.8-1.5,1.3-1.5,1.3s0.2,0,0.5-0.1s0.8-0.2,1.4-0.3  c0.6-0.2,1.3-0.3,2.1-0.4s1.7-0.3,2.7-0.4s2-0.2,3.1-0.2c0.5,0,1.1,0,1.7,0c0.6,0,1.1,0,1.7,0.1c0.6,0.1,1.2,0.1,1.8,0.2  s1.2,0.3,1.8,0.4c1.2,0.2,2.3,0.7,3.5,1c0.6,0.2,1.1,0.5,1.7,0.8c0.5,0.3,1.1,0.5,1.7,0.8c1,0.7,2.1,1.3,3.1,1.9  c0.9,0.8,1.9,1.5,2.8,2.1c0.8,0.8,1.6,1.5,2.4,2.1c0.4,0.3,0.7,0.7,1.1,1c0.3,0.3,0.6,0.7,0.9,1c0.6,0.6,1.1,1.2,1.6,1.6  C212,273,212.5,273.5,212.5,273.5z"/>
<path style="fill:#CED5E0;" d="M281,261.2c0.7-1,1.4-1.9,2.1-2.8c0.9-1,1.6-1.9,2.4-2.7c3.2-3.3,6.8-5.9,10.3-7.9s7-3.2,10.2-4.4  c3.1-1.1,5.9-2,8.2-2.7c4.6-1.4,7.3-2,7.3-2s-2.7,0.2-7.5,0.9c-2.4,0.4-5.3,0.9-8.5,1.7c-3.3,0.8-7,1.7-10.9,3.4s-8,4.1-11.8,7.5  c-3.6,3.3-7.4,7.7-9.8,13c-2.5,5.4-3.2,12-2,18.2c1.1,6.2,3.8,12,7.1,17c1.7,2.5,3.5,4.9,5.5,7.1c0.9,1.1,2.2,2.3,3,3.2  c1,1.1,1.8,2,2.5,3c3.2,4,5.7,8.5,7.7,13.1c2.1,4.6,3.4,9.4,4.5,14.1c0.3,1.1,0.5,2.2,0.7,3.3c-10.4-17-28.7-28.3-49.5-28.3  c-20.9,0-39.1,11.3-49.5,28.3c0.2-1.1,0.4-2.2,0.7-3.3c1.2-4.6,2.5-9.4,4.5-14.1s4.5-9.2,7.7-13.1c0.7-0.9,1.5-1.9,2.5-3  c0.8-0.9,2.1-2.1,3-3.2c2-2.2,3.8-4.6,5.5-7.1c3.3-5,6-10.8,7.1-17c1.2-6.2,0.4-12.8-2-18.2c-2.4-5.4-6.2-9.8-9.8-13  c-3.8-3.4-7.9-5.8-11.8-7.5c-3.9-1.7-7.7-2.7-10.9-3.4c-3.3-0.8-6.2-1.3-8.5-1.7c-4.8-0.7-7.5-0.9-7.5-0.9s2.7,0.6,7.3,2  c2.3,0.7,5.1,1.6,8.2,2.7c3.1,1.2,6.7,2.4,10.2,4.4s7.1,4.6,10.3,7.9c0.8,0.8,1.5,1.7,2.4,2.7c0.7,0.9,1.4,1.8,2.1,2.8  c1.4,2,2.5,4.1,3.4,6.4c1.7,4.6,2.1,9.7,0.9,14.7c-1.1,5-3.6,9.8-6.7,14.2c-1.5,2.2-3.2,4.2-5.1,6.1c-1,1-1.7,1.7-2.9,2.8  c-1,0.9-2.1,2-3.2,3.2c-4,4.5-7.1,9.8-9.3,15.1c-2.1,5.3-3.7,10.7-4.5,15.8c-0.8,5.1-1.3,10-1.3,14.5c-0.1,3.2,0.1,6,0.3,8.8  c-1,4.5-1.6,9.2-1.6,14.1c0,17.6,7.3,26.9,18.8,31.7c12.3-1.4,24.1-4.7,36.5-2.9c7.2,1,13.8-2,20.9-1.7c6.1,0.2,12.7,4.2,18.6,3.7  c1.7-0.2,3.2,0.1,4.6,0.5c11-4.9,17.9-14.1,17.9-31.3c0-4.8-0.6-9.5-1.6-14.1c0.2-2.7,0.3-5.6,0.3-8.8c0-4.5-0.5-9.4-1.3-14.5  c-0.8-5.2-2.4-10.5-4.5-15.8c-2.2-5.3-5.3-10.5-9.3-15.1c-1.1-1.2-2.2-2.3-3.2-3.2c-1.2-1.1-1.9-1.8-2.9-2.8c-1.8-1.9-3.5-4-5.1-6.1  c-3.1-4.4-5.6-9.1-6.7-14.2c-1.2-5-0.8-10.1,0.9-14.7C278.5,265.4,279.6,263.2,281,261.2z"/>
<g>
	<path style="fill:#2B3B4E;" d="M287.9,356.5c0,16-15.9,20.6-35.5,20.6s-35.5-4.6-35.5-20.6c0-0.8,0-1.5,0.1-2.3   c2.3,2.2,5.5,4.5,9.5,5.6c3.8,1.5,8.5,1.8,13,1.2c5.8-0.8,8.7-7.8,5.4-13c-2.5-3.9-7.6-4.8-11.2-1.9c-1.9,1.5-4.1,2.8-6.7,3.4   c-3,1.1-6.6,1-9.5,0.6c3.4-14.8,17.6-30.9,34.7-30.9c17,0,31.3,16.2,34.7,30.9c-2.9,0.4-6.4,0.5-9.5-0.6c-2.6-0.6-4.8-1.9-6.7-3.4   c-3.6-2.8-8.7-2-11.2,1.9c-3.3,5.1-0.3,12.2,5.4,13c4.5,0.6,9.2,0.3,13-1.2c4.1-1.1,7.2-3.4,9.5-5.6   C287.8,354.9,287.9,355.7,287.9,356.5z"/>
	<path style="fill:#2B3B4E;" d="M296.1,407c-0.3,0.2-0.7,0.3-1.3,0.5c-0.3,0.1-0.6,0.1-1,0.2c-0.4,0-0.8,0.1-1.2,0.1   c-0.8,0-1.8,0-2.8-0.1c-2.1-0.2-4.5-0.8-6.9-1.5c-1.2-0.5-2.5-0.9-3.8-1.4c-1.3-0.4-2.7-0.9-4.1-1.3c-1.4-0.3-2.8-0.7-4.2-0.9   c-0.7-0.1-1.4-0.2-2.1-0.3c-0.7-0.1-1.4-0.1-2.1-0.2s-1.4-0.1-2.1-0.1s-1.3,0-2,0c-1.3,0.1-2.6,0.3-3.7,0.5   c-0.6,0.1-1.1,0.3-1.7,0.4c-0.5,0.2-1,0.3-1.5,0.5c-0.9,0.4-1.8,0.8-2.4,1.1c-0.2,0.1-0.4,0.3-0.6,0.4c-0.2-0.1-0.4-0.3-0.6-0.4   c-0.7-0.4-1.5-0.8-2.4-1.1c-0.5-0.2-1-0.3-1.5-0.5c-0.5-0.1-1.1-0.3-1.7-0.4c-1.2-0.2-2.4-0.4-3.7-0.5c-0.7-0.1-1.3-0.1-2,0   c-0.7,0-1.4,0-2.1,0.1c-0.7,0.1-1.4,0.1-2.1,0.2c-0.7,0.1-1.4,0.2-2.1,0.3c-1.4,0.2-2.8,0.6-4.2,0.9c-1.4,0.4-2.8,0.8-4.1,1.3   s-2.6,1-3.8,1.4c-2.5,0.8-4.9,1.3-6.9,1.5c-1,0.1-2,0.1-2.8,0.1c-0.4,0-0.8-0.1-1.2-0.1c-0.4-0.1-0.7-0.1-1-0.2   c-0.6-0.2-1-0.3-1.3-0.5s-0.5-0.2-0.5-0.2s0.1,0.1,0.4,0.3c0.3,0.2,0.7,0.4,1.3,0.7c0.3,0.1,0.6,0.2,1,0.3c0.4,0.1,0.8,0.2,1.2,0.3   c0.9,0.1,1.8,0.3,2.9,0.3c2.2,0.1,4.6-0.1,7.3-0.5c1.3-0.3,2.6-0.6,4-0.9c1.3-0.2,2.7-0.4,4.1-0.6c1.4-0.1,2.7-0.3,4.1-0.3   c0.7,0,1.3,0,2,0c0.6,0,1.3,0.1,1.9,0.1c0.6,0,1.2,0.1,1.8,0.2s1.2,0.1,1.7,0.3c1.1,0.2,2.1,0.5,3,0.8c0.4,0.2,0.8,0.3,1.2,0.5   s0.7,0.4,1,0.5c0.6,0.4,1.1,0.7,1.5,1c0.3,0.2,0.4,0.4,0.6,0.5h6.3c0.1-0.1,0.3-0.3,0.6-0.5c0.4-0.3,0.9-0.6,1.5-1   c0.3-0.2,0.7-0.3,1-0.5c0.4-0.2,0.8-0.3,1.2-0.5c0.9-0.3,1.9-0.6,3-0.8c0.5-0.1,1.1-0.2,1.7-0.3c0.6-0.1,1.2-0.2,1.8-0.2   c0.6,0,1.3-0.1,1.9-0.1s1.3,0,2,0c1.3,0,2.7,0.2,4.1,0.3c1.4,0.2,2.7,0.4,4.1,0.6c1.4,0.3,2.7,0.6,4,0.9c2.7,0.4,5.2,0.6,7.3,0.5   c1.1,0,2.1-0.1,2.9-0.3c0.4-0.1,0.8-0.2,1.2-0.3c0.4-0.1,0.7-0.2,1-0.3C295.4,407.5,295.8,407.3,296.1,407c0.3-0.1,0.5-0.2,0.5-0.2   S296.4,406.9,296.1,407z"/>
</g>
<g>
	<circle style="fill:#324A5E;" cx="194.1" cy="265.7" r="3.4"/>
	<circle style="fill:#324A5E;" cx="310.7" cy="265.7" r="3.4"/>
</g>
<g>
	<ellipse style="fill:#FFFFFF;" cx="196.2" cy="265.4" rx="1.6" ry="2.2"/>
	<ellipse style="fill:#FFFFFF;" cx="308.6" cy="265.3" rx="1.6" ry="2.2"/>
</g>
<g>
</g>
<g>
</g>
<g>
</g>
<g>
</g>
<g>
</g>
<g>
</g>
<g>
</g>
<g>
</g>
<g>
</g>
<g>
</g>
<g>
</g>
<g>
</g>
<g>
</g>
<g>
</g>
<g>
</g>
</svg>
