<?xml version="1.0" encoding="iso-8859-1"?>
<!-- Generator: Adobe Illustrator 19.0.0, SVG Export Plug-In . SVG Version: 6.00 Build 0)  -->
<svg xmlns="http://www.w3.org/2000/svg" xmlns:xlink="http://www.w3.org/1999/xlink" version="1.1" id="Layer_1" x="0px" y="0px" viewBox="0 0 505.1 505.1" style="enable-background:new 0 0 505.1 505.1;" xml:space="preserve">
<circle style="fill:#90DFAA;" cx="252.5" cy="252.55" r="252.5"/>
<path style="fill:#84DBFF;" d="M252.5,0.05C113,0.05,0,113.05,0,252.55c0,103.5,62.3,192.4,151.5,231.4c0.4-1.7,2-3,4.1-2.3  c15.5,5.6,29.8,12.1,46.1,15.5c18.4,3.9,37.3,5.2,56.1,5.4c18.3,0.2,35.3-2.3,52.9-7.1c13.3-3.6,25.4-9,38.4-13.4  c2-0.7,3.5,0.5,4,2.1c89.4-38.9,152-127.9,152-231.6C505,113.05,392,0.05,252.5,0.05z"/>
<path style="fill:#324A5E;" d="M155.6,481.65c15.5,5.6,29.8,12.1,46.1,15.5c18.4,3.9,37.3,5.2,56.1,5.4c18.3,0.2,35.3-2.3,52.9-7.1  c13.3-3.6,25.4-9,38.4-13.4c2.1-0.7,3.5,0.5,4,2.1c29.1-12.7,55.4-30.6,77.6-52.8c-23.6-47.6-54.2-83.1-68.6-98.5  c-7.7-18.1-11.4-38.8-10.6-60.2c1.6-47-18.5-90.7-50.5-113h-97.5c-31.3,21.6-51.7,63.4-50.1,110.2l0.1,2.9  c0.7,21.4-3,42.1-10.6,60.2c-14.4,15.3-45.1,50.9-68.6,98.5c22.1,22,48.2,39.9,77.1,52.5C151.9,482.25,153.4,480.85,155.6,481.65z"/>
<path style="fill:#FFFFFF;" d="M353,484.25c-30.8,13.4-64.8,20.8-100.5,20.8s-69.7-7.4-100.5-20.8c-2.8-21.9-3.2-45-0.7-68.2  c4.1-37.6,15.1-69.7,29.9-93.3c5.4-8.8,17.1-10.7,24.3-4.3c12.1,10.7,28.6,17.3,46.9,17.3c18.4,0,34.9-6.6,46.9-17.3  c7.2-6.4,18.8-4.5,24.3,4.3c14.8,23.7,25.9,55.7,29.9,93.3C356.2,439.25,355.8,462.35,353,484.25z"/>
<path style="fill:#2B3B4E;" d="M357.2,135.55c15.8-9.2,30.8-18.4,53-11.9c-30.9-19.1-70.1,16.1-75.9,16.8  c6.8-2.9,12.1-9.1,14.1-16.2c-20.7,12.6-44.1,20.4-68.2,22.9c6.2-3,11.9-6.8,17-11.5c-12.6,2.6-25.8,5.5-35.3,14.2  c2.3-4.5,3.9-9.4,4.7-14.3c-4.6,4.2-9.3,8.4-13.9,12.6l0,0l0,0v-0.2l-0.1,0.1l-0.1-0.1v0.2l0,0l0,0c-4.6-4.2-9.3-8.4-13.9-12.6  c0.9,5,2.5,9.8,4.7,14.3c-9.5-8.7-22.8-11.6-35.3-14.2c5,4.6,10.8,8.5,17,11.5c-24.1-2.5-47.5-10.4-68.2-22.9  c1.9,7.1,7.3,13.3,14.1,16.2c-5.8-0.7-45-35.9-75.9-16.8c22.1-6.5,37.2,2.8,53,11.9c-22.1-4.7-41.5-7.1-56.9,1.3  c9.6-4.6,10.1,11.1,53.2,11.9c3.6,0.1,6.1,3.9,8.6,6.5c2.7,2.7,4.7,6,6.8,9.2c6.2,9.5,14.4,19.3,25.6,20.7c4.2,0.5,8.5-0.2,12.7,0.5  c4.9,0.8,9.2,3.3,13.5,5.8c7,4.1,14,8.2,19.9,13.7c2.3,2.1,4.4,4.5,7,6.2c4.1,2.7,9.1,3.6,14.1,3.9l0,0l0,0h0.1h0.1l0,0l0,0  c5-0.4,10-1.2,14.1-3.9c2.6-1.7,4.7-4.1,7-6.2c5.9-5.5,12.9-9.6,19.9-13.7c4.2-2.5,8.6-5,13.5-5.8c4.2-0.7,8.5,0,12.7-0.5  c11.3-1.4,19.4-11.2,25.6-20.7c2.1-3.2,4.2-6.5,6.8-9.2c2.5-2.6,5-6.4,8.6-6.5c43.1-0.8,43.5-16.5,53.2-11.9  C398.7,128.45,379.4,130.85,357.2,135.55z"/>
<path style="fill:#F1543F;" d="M295.2,212.45c0,0,11.8-10.7,18-6.3C313.2,206.15,313.4,230.55,295.2,212.45z"/>
<ellipse style="fill:#FFFFFF;" cx="302.7" cy="212.35" rx="1.5" ry="2.4"/>
<path style="fill:#2B3B4E;" d="M282.5,215.35c0,0,20.4,8,21.7,30.2c0,0-10-25.8-34.1-22.2l3.8-5.1L282.5,215.35z"/>
<path style="fill:#F1543F;" d="M209.8,212.45c0,0-11.8-10.7-18-6.3C191.8,206.15,191.6,230.55,209.8,212.45z"/>
<ellipse style="fill:#FFFFFF;" cx="202.3" cy="212.35" rx="1.5" ry="2.4"/>
<path style="fill:#2B3B4E;" d="M222.5,215.35c0,0-20.4,8-21.7,30.2c0,0,10-25.8,34.1-22.2l-3.8-5.1L222.5,215.35z"/>
<g>
	<path style="fill:#FFFFFF;" d="M399.6,180.65c4.5,0.2,8.9,0.6,13.3,1.2c4.3,0.7,8.6,1.5,12.6,2.7c2.1,0.5,4,1.2,5.9,1.9   c1.9,0.6,3.7,1.5,5.5,2.2s3.5,1.6,5.1,2.5c1.7,0.8,3.2,1.7,4.6,2.6c3,1.7,5.4,3.7,7.8,5.3c2.1,1.8,4,3.4,5.5,4.8   c2.5,2.6,4.1,4.1,4.5,4.5c-0.3-0.4-1.5-2.3-3.6-5.3c-1.3-1.7-2.8-3.6-4.7-5.8c-2-2.1-4.2-4.6-6.9-7c-1.3-1.2-2.8-2.4-4.3-3.6   c-1.5-1.2-3.2-2.5-4.9-3.6c-1.7-1.1-3.5-2.4-5.4-3.4c-1.9-1.1-3.9-2.2-6-3.2c-4.1-2.1-8.5-3.9-13.1-5.5s-9.4-2.9-14.2-4   c-4.5-1-9.1-1.7-13.6-2.3c1.3-0.4,2.7-0.8,4.1-1l6-1.3c2.1-0.5,4.1-0.6,6.1-0.9c2.1-0.2,4.1-0.5,6.1-0.8c2-0.1,4-0.2,6-0.2   c1.9,0,3.9-0.2,5.8-0.2c1.9,0.2,3.7,0.3,5.6,0.4c1.8,0.1,3.6,0.2,5.3,0.4c1.7,0.2,3.3,0.6,4.9,0.8c3.1,0.6,6.1,1,8.6,1.6   c2.5,0.7,4.7,1.4,6.5,2c3.2,1,5.2,1.6,5.6,1.7c-0.4-0.2-2.3-1.2-5.2-2.8c-1.7-0.9-3.7-2.1-6.1-3.3c-2.4-1.1-5.2-2.1-8.4-3.4   c-1.5-0.6-3.2-1.3-4.9-1.9c-1.7-0.5-3.6-1-5.4-1.5c-1.9-0.5-3.7-1-5.7-1.6c-2-0.4-4-0.7-6.1-1.1c-2.1-0.3-4.2-0.7-6.4-1   c-2.2-0.2-4.4-0.3-6.6-0.5c-2.2-0.1-4.5-0.4-6.7-0.3l-6.8,0.1c-2.6,0-5.2,0.2-7.7,0.5c0.3-0.2,0.6-0.4,0.9-0.6l4.3-2.2   c1.4-0.8,2.9-1.5,4.4-2c3.1-1,6-2.4,9.1-3.1c3.1-0.7,6.1-1.5,8.9-2.2c2.9-0.4,5.6-0.8,8.2-1.2c1.3-0.2,2.5-0.3,3.7-0.5   c1.2,0,2.3-0.1,3.4-0.2c2.1-0.1,4-0.2,5.5-0.2c3-0.2,4.8-0.2,4.8-0.2s-1.7-0.3-4.7-0.9c-1.5-0.3-3.4-0.7-5.4-1.1   c-1.1-0.2-2.2-0.4-3.4-0.7c-1.2-0.2-2.4-0.3-3.8-0.4c-2.7-0.3-5.6-0.6-8.6-0.9c-3.1-0.1-6.4,0-9.8,0c-3.4-0.1-6.9,0.6-10.6,0.9   c-1.9,0.1-3.6,0.5-5.5,0.9l-5.5,1.2c-3.6,1-7.3,2.3-10.8,3.7c-3.4,1.7-7,3.1-10.1,5.2c-1.6,1-3.2,1.9-4.7,2.9   c-1.4,1.1-2.8,2.2-4.2,3.2c-1,0.8-2,1.7-2.9,2.5v-4.1c-6.5,3.8-12.7,8.2-18.4,13.3c2.6-4.9,3.5-10.8,2.4-16.3   c-3.1,7.9-8,15.1-14.4,20.8c-11.6,10.5-28.1,16.4-35.2,30.4c0.6-5.4,1.4-9.5-0.2-16.2c-1.3,12.2-8.1,20.6-13.6,30.3   c6.2-1.8,12.1-4.7,17.3-8.6l-3.3,7.4c5-3.8,10.1-7.5,15.2-11.3c10.9-0.7,36.2,1.4,62.4,30.1c1.1,1.3,2.3,2.6,3.4,3.9   c3.3,3.6,6.2,7.5,9.3,11.3c3.2,3.8,5.8,8,8.6,11.9c2.8,4,5.2,8.1,7.7,12c2.4,3.9,4.5,8,6.6,11.7c2.2,3.7,3.7,7.5,5.4,10.8   c1.5,3.4,3.2,6.5,4.2,9.3c1.1,2.8,2.1,5.3,2.9,7.4c1.4,3.6,2.3,5.8,2.5,6.3c-0.1-0.5-0.6-2.9-1.4-6.7c-0.4-2.2-1-4.8-1.6-7.8   s-1.7-6.4-2.6-10c-1-3.7-2-7.7-3.5-11.8s-2.8-8.6-4.6-13c-1.9-4.4-3.6-9.1-5.8-13.7c-2.2-4.5-4.3-9.4-6.8-13.8   c-2.5-4.5-4.9-9.2-7.7-13.5c-1.3-2.2-2.7-4.3-4-6.5c-0.1-0.1-0.1-0.2-0.2-0.3c0.9,0.6,1.8,1.1,2.7,1.7c3.1,1.9,6,4.2,8.9,6.6   c3,2.4,5.6,5.3,8.5,8c2.5,3,5.2,6,7.6,9.2c2.2,3.3,4.5,6.4,6.5,9.7c1.9,3.4,3.6,6.6,5.3,9.7c1.5,3.2,2.7,6.3,3.9,9.2   c1.3,2.8,2.4,5.5,3,8c0.8,2.4,1.5,4.5,2,6.3c1.1,3.5,1.7,5.5,1.7,5.5s-0.2-2.1-0.6-5.8c-0.2-1.8-0.4-4.1-0.7-6.6   c-0.2-2.6-0.7-5.5-1.4-8.6c-0.6-3.1-1.2-6.6-2.1-10.2c-1.1-3.6-2.2-7.3-3.4-11.2c-1.3-3.8-3.1-7.7-4.7-11.7   c-1.9-3.9-4.1-7.7-6.2-11.7c-2.6-3.6-4.9-7.6-7.7-11c-2.8-3.4-5.6-6.9-8.8-9.9c-2.6-2.8-5.4-5.1-8.1-7.4c2.4,0.6,4.9,1.3,7.5,2   c3.5,1.2,7.1,2.6,10.8,4.3c3.5,1.9,7.4,3.4,10.8,5.7c3.5,2.2,7.2,4.3,10.4,6.8c3.3,2.5,6.7,4.8,9.7,7.5c3,2.6,6,5.1,8.6,7.7   c2.6,2.6,5,5.2,7.3,7.5s4.3,4.5,5.9,6.6c1.7,2,3.2,3.8,4.4,5.2c2.4,2.9,3.8,4.6,3.8,4.6s-1-1.9-2.8-5.3c-0.9-1.7-2.1-3.7-3.3-6   c-1.3-2.4-2.7-5-4.6-7.7c-1.8-2.8-3.7-5.8-5.8-9c-2.2-3.2-4.7-6.3-7.2-9.6c-2.4-3.4-5.5-6.5-8.5-9.8c-2.9-3.4-6.3-6.4-9.7-9.5   c-3.2-3.3-7.1-5.8-10.7-8.7c-3.7-2.7-7.5-5.1-11.4-7.4c-1-0.6-2.1-1.1-3.1-1.7C392.5,180.65,396,180.55,399.6,180.65z"/>
	<path style="fill:#FFFFFF;" d="M105.4,180.65c-4.5,0.2-8.9,0.6-13.3,1.2c-4.3,0.7-8.6,1.5-12.6,2.7c-2.1,0.5-4,1.2-5.9,1.9   c-1.9,0.6-3.7,1.5-5.5,2.2s-3.5,1.6-5.1,2.5c-1.7,0.8-3.2,1.7-4.6,2.6c-3,1.7-5.4,3.7-7.8,5.3c-2.1,1.8-4,3.4-5.5,4.8   c-2.5,2.6-4.1,4.1-4.5,4.5c0.3-0.4,1.5-2.3,3.6-5.3c1.3-1.7,2.8-3.6,4.7-5.8c2-2.1,4.2-4.6,6.9-7c1.3-1.2,2.8-2.4,4.3-3.6   c1.5-1.2,3.2-2.5,4.9-3.6s3.5-2.4,5.4-3.4c1.9-1.1,3.9-2.2,6-3.2c4.1-2.1,8.5-3.9,13.1-5.5s9.4-2.9,14.2-4c4.5-1,9.1-1.7,13.6-2.3   c-1.3-0.4-2.7-0.8-4.1-1l-6-1.3c-2.1-0.5-4.1-0.6-6.1-0.9c-2.1-0.2-4.1-0.5-6.1-0.8c-2-0.1-4-0.2-6-0.2c-1.9,0-3.9-0.2-5.8-0.2   c-1.9,0.2-3.7,0.3-5.6,0.4c-1.8,0.1-3.6,0.2-5.3,0.4c-1.7,0.2-3.3,0.6-4.9,0.8c-3.1,0.6-6.1,1-8.6,1.6c-2.5,0.7-4.7,1.4-6.5,2   c-3.2,1-5.2,1.6-5.6,1.7c0.4-0.2,2.3-1.2,5.2-2.8c1.7-0.9,3.7-2.1,6.1-3.3c2.4-1.1,5.2-2.1,8.4-3.4c1.5-0.6,3.2-1.3,4.9-1.9   c1.7-0.5,3.6-1,5.4-1.5c1.9-0.5,3.7-1,5.7-1.6c2-0.4,4-0.7,6.1-1.1c2.1-0.3,4.2-0.7,6.4-1c2.2-0.2,4.4-0.3,6.6-0.5   c2.2-0.1,4.5-0.4,6.7-0.3l6.8,0.1c2.6,0,5.2,0.2,7.7,0.5c-0.3-0.2-0.6-0.4-0.9-0.6l-4.3-2.2c-1.4-0.8-2.9-1.5-4.4-2   c-3.1-1-6-2.4-9.1-3.1c-3.1-0.7-6.1-1.5-8.9-2.2c-2.9-0.4-5.6-0.8-8.2-1.2c-1.3-0.2-2.5-0.3-3.7-0.5c-1.2,0-2.3-0.1-3.4-0.2   c-2.1-0.1-4-0.2-5.5-0.2c-3-0.2-4.8-0.2-4.8-0.2s1.7-0.3,4.7-0.9c1.5-0.3,3.4-0.7,5.4-1.1c1.1-0.2,2.2-0.4,3.4-0.7   c1.2-0.2,2.4-0.3,3.8-0.4c2.7-0.3,5.6-0.6,8.6-0.9c3.1-0.1,6.4,0,9.8,0c3.4-0.1,6.9,0.6,10.6,0.9c1.9,0.1,3.6,0.5,5.5,0.9l5.5,1.2   c3.6,1,7.3,2.3,10.8,3.7c3.4,1.7,7,3.1,10.1,5.2c1.6,1,3.2,1.9,4.7,2.9c1.4,1.1,2.8,2.2,4.2,3.2c1,0.8,2,1.7,2.9,2.5v-4.1   c6.5,3.8,12.7,8.2,18.4,13.3c-2.6-4.9-3.5-10.8-2.4-16.3c3.1,7.9,8,15.1,14.4,20.8c11.6,10.5,28.1,16.4,35.2,30.4   c-0.6-5.4-1.4-9.5,0.2-16.2c1.3,12.2,8.1,20.6,13.6,30.3c-6.2-1.8-12.1-4.7-17.3-8.6l3.3,7.4c-5-3.8-10.1-7.5-15.2-11.3   c-10.9-0.7-36.2,1.4-62.4,30.1c-1.1,1.3-2.3,2.6-3.4,3.9c-3.3,3.6-6.2,7.5-9.3,11.3c-3.2,3.8-5.8,8-8.6,11.9c-2.8,4-5.2,8.1-7.7,12   c-2.4,3.9-4.5,8-6.6,11.7c-2.2,3.7-3.7,7.5-5.4,10.8c-1.5,3.4-3.2,6.5-4.2,9.3c-1.1,2.8-2.1,5.3-2.9,7.4c-1.4,3.6-2.3,5.8-2.5,6.3   c0.1-0.5,0.6-2.9,1.4-6.7c0.4-2.2,1-4.8,1.6-7.8s1.7-6.4,2.6-10c1-3.7,2-7.7,3.5-11.8s2.8-8.6,4.6-13c1.9-4.4,3.6-9.1,5.8-13.7   c2.2-4.5,4.3-9.4,6.8-13.8c2.5-4.5,4.9-9.2,7.7-13.5c1.3-2.2,2.7-4.3,4-6.5c0.1-0.1,0.1-0.2,0.2-0.3c-0.9,0.6-1.8,1.1-2.7,1.7   c-3.1,1.9-6,4.2-8.9,6.6c-3,2.4-5.6,5.3-8.5,8c-2.5,3-5.2,6-7.6,9.2c-2.2,3.3-4.5,6.4-6.5,9.7c-1.9,3.4-3.6,6.6-5.3,9.7   c-1.5,3.2-2.7,6.3-3.9,9.2c-1.3,2.8-2.4,5.5-3,8c-0.8,2.4-1.5,4.5-2,6.3c-1.1,3.5-1.7,5.5-1.7,5.5s0.2-2.1,0.6-5.8   c0.2-1.8,0.4-4.1,0.7-6.6c0.2-2.6,0.7-5.5,1.4-8.6c0.6-3.1,1.2-6.6,2.1-10.2c1.1-3.6,2.2-7.3,3.4-11.2c1.3-3.8,3.1-7.7,4.7-11.7   c1.9-3.9,4.1-7.7,6.2-11.7c2.6-3.6,4.9-7.6,7.7-11c2.8-3.4,5.6-6.9,8.8-9.9c2.6-2.8,5.4-5.1,8.1-7.4c-2.4,0.6-4.9,1.3-7.5,2   c-3.5,1.2-7.1,2.6-10.8,4.3c-3.5,1.9-7.4,3.4-10.8,5.7c-3.5,2.2-7.2,4.3-10.4,6.8c-3.3,2.5-6.7,4.8-9.7,7.5c-3,2.6-6,5.1-8.6,7.7   c-2.6,2.6-5,5.2-7.3,7.5s-4.3,4.5-5.9,6.6c-1.7,2-3.2,3.8-4.4,5.2c-2.4,2.9-3.8,4.6-3.8,4.6s1-1.9,2.8-5.3c0.9-1.7,2.1-3.7,3.3-6   c1.3-2.4,2.7-5,4.6-7.7c1.8-2.8,3.7-5.8,5.8-9c2.2-3.2,4.7-6.3,7.2-9.6c2.4-3.4,5.5-6.5,8.5-9.8c2.9-3.4,6.3-6.4,9.7-9.5   c3.2-3.3,7.1-5.8,10.7-8.7c3.7-2.7,7.5-5.1,11.4-7.4c1-0.6,2.1-1.1,3.1-1.7C112.5,180.65,109,180.55,105.4,180.65z"/>
</g>
<path style="fill:#F1543F;" d="M252.5,216.85h-25.2c0,0,6.4,9.4,12.8,22.1c5.1,10.1,19.7,10.1,24.8,0c6.4-12.7,12.8-22.1,12.8-22.1  H252.5z"/>
<path style="fill:#FF7058;" d="M261.8,214.85c0,0,5.8-12.2-9.3-23.9c-15.2,11.7-9.3,23.9-9.3,23.9c-11-11.4-27.7,3.6-27.7,3.6  c20.7-4.6,37.1,21.2,37.1,21.2s16.3-25.7,37.1-21.2C289.6,218.55,272.8,203.55,261.8,214.85z"/>
<g>
</g>
<g>
</g>
<g>
</g>
<g>
</g>
<g>
</g>
<g>
</g>
<g>
</g>
<g>
</g>
<g>
</g>
<g>
</g>
<g>
</g>
<g>
</g>
<g>
</g>
<g>
</g>
<g>
</g>
</svg>
