<?xml version="1.0" encoding="iso-8859-1"?>
<!-- Generator: Adobe Illustrator 19.0.0, SVG Export Plug-In . SVG Version: 6.00 Build 0)  -->
<svg xmlns="http://www.w3.org/2000/svg" xmlns:xlink="http://www.w3.org/1999/xlink" version="1.1" id="Layer_1" x="0px" y="0px" viewBox="0 0 505 505" style="enable-background:new 0 0 505 505;" xml:space="preserve">
<circle style="fill:#FD8469;" cx="252.5" cy="252.5" r="252.5"/>
<g>
	
		<ellipse transform="matrix(0.7247 -0.6891 0.6891 0.7247 12.5297 293.0515)" style="fill:#E6E9EE;" cx="372.999" cy="130.846" rx="50.801" ry="26.501"/>
	
		<ellipse transform="matrix(0.7247 0.6891 -0.6891 0.7247 126.5047 -54.9829)" style="fill:#E6E9EE;" cx="132.06" cy="130.821" rx="50.801" ry="26.501"/>
</g>
<path style="fill:#324A5E;" d="M127,327.3c15.1,11.1,26.1,28.6,32.9,48.7c0.1,0.2,0.1,0.4,0.2,0.6c10,29.1,38.3,47.9,69.1,47.9h46.6  c30.8,0,59-18.8,69.1-47.9c0.1-0.2,0.1-0.4,0.2-0.6c6.8-20.1,17.8-37.6,32.9-48.7c24.9-18.3,39.9-34.3,39.9-75.1  c0-2.4-0.1-4.8-0.2-7.4c-0.1-2-0.2-3.9-0.3-5.9C412,157,349.2,88.4,267.5,81.1c-87.3-7.8-165.4,53.3-177.8,138.4  c-1.2,8.5-2,16.9-2.4,25.3c-0.1,2.6-0.2,5-0.2,7.4C87.1,293,102.2,309,127,327.3z"/>
<path style="fill:#CED5E0;" d="M286.9,365.2c0,19-15.4,23.2-34.4,23.2s-34.4-4.3-34.4-23.2s15.4-38.8,34.4-38.8  S286.9,346.2,286.9,365.2z"/>
<rect x="237.5" y="340.8" style="fill:#FFFFFF;" width="30" height="38.6"/>
<path style="fill:#E6E9EE;" d="M252.5,250.1c-43.8-0.1-66.6,41.7-61.1,69c2,12,4.8,21.7,6.7,26.1c5.8,12.6,20.4,19.9,33.7,18.9  c8.6-0.7,15.9-4.7,20.7-10.8c4.8,6.1,12.2,10.1,20.7,10.8c13.3,1,27.9-6.3,33.7-18.9c1.9-4.4,4.7-14,6.7-26.1  C319.1,291.8,296.3,250,252.5,250.1L252.5,250.1z"/>
<path style="fill:#324A5E;" d="M280.1,300.1c-3.4-3.7-4.9-8.3-2.9-11.6c1.2-2.1,1.7-4.4,1.2-6.7c-1.6-7.8-13.1-13.5-25.9-13.5  c-12.8,0-24.3,5.7-25.9,13.5c-0.5,2.3,0,4.6,1.2,6.7c2,3.3,0.5,7.9-2.9,11.6c-1.6,1.7-2.6,3.6-3,5.6c-1.9,9.6,30.6,18.4,30.6,18.4  s32.5-8.7,30.6-18.4C282.7,303.6,281.7,301.7,280.1,300.1z"/>
<path style="fill:#2B3B4E;" d="M139.2,237.9c14.6-18.3,37.1-33.8,42.6-24.8c5.6,9.2-8.2,41.6-23,61.6c-15.6,21-25,18.6-30.4,7.6  C123.1,271.7,123.9,257.1,139.2,237.9z"/>
<path style="fill:#E6E9EE;" d="M167.3,174.7c0,0-9.7-26.3,4.3-19.8s37.5,30,29,58.7c0,0-11.9,12.3-20.4,4.3S167.3,174.7,167.3,174.7  z"/>
<path style="fill:#ACB3BA;" d="M168.9,192.6c0,0-11.8-29.6,5.4-24.2s23.7,23,22.6,41.8c0,0-21.6,20.4-29.8,9.9  c-8.2-10.6,1.2-23,1.2-23L168.9,192.6z"/>
<path style="fill:#2B3B4E;" d="M167,194.5c0,0,2-13.4,10.5-10.3c8.4,3.1,16.1,14.1,17.3,25.4C194.8,209.6,166.1,225.6,167,194.5z"/>
<ellipse style="fill:#CED5E0;" cx="176.1" cy="196.7" rx="2.4" ry="5.8"/>
<path style="fill:#2B3B4E;" d="M365.8,237.9c-14.6-18.3-37.1-33.8-42.6-24.8c-5.6,9.2,8.2,41.6,23,61.6c15.6,21,25,18.6,30.4,7.6  C381.9,271.7,381.1,257.1,365.8,237.9z"/>
<path style="fill:#E6E9EE;" d="M337.7,174.7c0,0,9.7-26.3-4.3-19.8s-37.5,30-29.1,58.7c0,0,11.9,12.3,20.4,4.3  S337.7,174.7,337.7,174.7z"/>
<path style="fill:#ACB3BA;" d="M336.1,192.6c0,0,11.8-29.6-5.4-24.2c-17.2,5.4-23.7,23-22.6,41.8c0,0,21.6,20.4,29.8,9.9  c8.2-10.6-1.2-23-1.2-23L336.1,192.6z"/>
<path style="fill:#2B3B4E;" d="M338,194.5c0,0-2-13.4-10.5-10.3c-8.4,3.1-16.1,14.1-17.3,25.4C310.2,209.6,338.9,225.6,338,194.5z"/>
<ellipse style="fill:#CED5E0;" cx="328.9" cy="196.7" rx="2.4" ry="5.8"/>
<g>
</g>
<g>
</g>
<g>
</g>
<g>
</g>
<g>
</g>
<g>
</g>
<g>
</g>
<g>
</g>
<g>
</g>
<g>
</g>
<g>
</g>
<g>
</g>
<g>
</g>
<g>
</g>
<g>
</g>
</svg>
