<?xml version="1.0" encoding="iso-8859-1"?>
<!-- Generator: Adobe Illustrator 19.0.0, SVG Export Plug-In . SVG Version: 6.00 Build 0)  -->
<svg xmlns="http://www.w3.org/2000/svg" xmlns:xlink="http://www.w3.org/1999/xlink" version="1.1" id="Layer_1" x="0px" y="0px" viewBox="0 0 505 505" style="enable-background:new 0 0 505 505;" xml:space="preserve">
<circle style="fill:#324A5E;" cx="252.5" cy="252.5" r="252.5"/>
<path style="fill:#F9B54C;" d="M419,305.4c-9.5-10.4-16-23.5-18.6-37.3c0.5,7.4,1,14.7,1.6,22.1c0.6,8.8,1.2,18-2.1,26.2  c-4.1,10.3-13.6,17.4-21.1,25.6c-14.9,16.3-22.4,37.9-29.5,58.9c1.2-10.6,2.4-21.1,3.7-31.7c-9.7,11-10.9,27.2-19,39.4  c-11,16.5-32.1,22.6-51.6,26.4c-13,2.5-28,5.8-34.1,17.7c-6-11.8-21-15.1-34.1-17.7c-19.5-3.8-40.6-9.8-51.6-26.4  c-8.1-12.2-9.4-28.4-19-39.4c1.2,10.6,2.4,21.1,3.7,31.7c-7.1-20.9-14.6-42.5-29.5-58.9c-7.5-8.2-17-15.3-21.1-25.6  c-3.3-8.2-2.7-17.4-2.1-26.2c0.5-7.4,1.1-14.7,1.6-22.1c-2.6,13.8-9.2,26.9-18.7,37.3c12-19.4,6.3-44.4,8.9-67.1  c0.8-6.7,2.3-13.3,3.9-19.9c2.2-9.5,4.5-19,6.7-28.4c-8.5,7.3-18.1,13.3-28.5,17.8c11.9-17.4,23.8-34.7,35.7-52.1  c-10-1.5-19.6-5.4-27.8-11.3c13.7,1.7,28.1-2.4,38.9-11c6.4-5.2,11.5-11.8,17.1-17.8c3.4-3.7,7-7.2,10.8-10.6  c-6.8,2.4-13.1,4.4-18.2,4.4c11.8-7.4,24.2-15.4,36.6-23.1c16.3-10.6,35.9-21.2,52.8-19c-3.2-4.5-12.9-5.5-22.3-4.3  c-9.3,1.1-19.3,4-27.4,4.1c18.5-3.8,41.5-17,61.7-14.4c9.9,1.2,16.5,5.7,21.9,10.4c5.3-4.7,12-9.2,21.9-10.4  c20.2-2.6,43.1,10.6,61.6,14.4c-8.1-0.2-18-3.1-27.4-4.1c-9.3-1.2-19.1-0.2-22.3,4.3c16.9-2.2,36.5,8.4,52.8,19  c12.3,7.7,24.7,15.7,36.6,23.1c-5.1,0-11.4-2-18.2-4.4c3.7,3.4,7.3,6.9,10.8,10.6c5.6,6,10.7,12.6,17.1,17.8  c10.8,8.7,25.2,12.8,38.9,11c-8.2,5.8-17.8,9.7-27.8,11.3c11.9,17.4,23.8,34.7,35.7,52.1c-10.3-4.4-20-10.4-28.5-17.8  c2.2,9.5,4.5,19,6.7,28.4c1.6,6.6,3.1,13.2,3.9,19.9C412.8,261,407,286,419,305.4z"/>
<path style="fill:#FFD05B;" d="M328.8,201.4c13-44.5-31-47.5-48.1-47.1c-4,0.1-7.9,1.5-10.8,3.8L248.4,175l-21.5-16.9  c-2.9-2.3-6.8-3.7-10.8-3.8c-17.1-0.4-61.1,2.6-48.1,47.1c1,3.4,0.6,7-1.4,10.1c-8.7,13.4-28.8,54.7,13.4,100.3  c2.3,2.5,3.5,5.6,3.4,8.8c-0.4,19.3,2.4,87.7,65,78.4c62.6,9.4,65.4-59.1,65-78.4c-0.1-3.2,1.1-6.3,3.4-8.8  c42.2-45.6,22.1-86.9,13.4-100.3C328.2,208.4,327.8,204.8,328.8,201.4z"/>
<g>
	<path style="fill:#324A5E;" d="M248.3,315.7c-30.5,2.6-40-5.4-40-5.4c1.6,3.5,4.7,6.3,7.6,8.4c2.7,1.9,5.7,3.5,8.9,4.5   c19,5.7,23.5,22.4,23.5,22.4s4.5-16.7,23.5-22.4c3.2-1,6.2-2.5,8.9-4.5c2.9-2.1,6-4.9,7.6-8.4C288.4,310.3,278.8,318.3,248.3,315.7   z"/>
	<path style="fill:#324A5E;" d="M304.8,369.7c-1.7,4-3.9,7.8-6.4,11.3c-2.2,3.1-4.8,5.9-7.8,8.4c-9-6.9-23.7-15.6-42.3-17   c-18.6,1.4-33.3,10.1-42.3,17c-3-2.5-5.5-5.3-7.8-8.4c-2.6-3.5-4.7-7.3-6.4-11.2c24.3,18.4,49.5-4.5,56.5-11.9   C255.4,365.1,280.5,388.1,304.8,369.7z"/>
</g>
<g>
	<path style="fill:#F9B54C;" d="M224,338.8c0,0-5-2.7-13.2-5.8c-4.3-1.7-9.6-3.5-15.5-5.1c-3.1-0.9-6.3-1.5-9.8-2.2   c-3.5-0.6-7.2-1.2-10.9-1.4c-1.9-0.1-3.9-0.3-5.8-0.3c-2-0.1-4,0-6,0.1c-2.1,0-4.1,0.4-6.1,0.5c-2.1,0.2-4.1,0.6-6.2,1   c-2,0.5-4.1,1-6.1,1.5c-2,0.7-4.1,1.2-6,2c-4,1.5-7.7,3.3-11.1,5.2c-1.7,1.1-3.3,2.1-4.9,3.1c-1.5,1.1-3,2.2-4.3,3.2   c-2.8,2.1-4.9,4.3-6.9,6c-3.7,3.9-5.8,6.1-5.8,6.1s1.7-2.6,4.9-6.9c1.8-1.9,3.7-4.5,6.3-7c1.3-1.2,2.7-2.5,4.1-3.8   c1.6-1.2,3.2-2.4,4.9-3.6c3.4-2.3,7.2-4.5,11.3-6.3c2-1,4.1-1.6,6.2-2.4c2.1-0.7,4.3-1.2,6.4-1.8c4.3-0.9,8.6-1.6,12.9-1.8   c2.1-0.1,4.2-0.2,6.3-0.1c2,0,4.1,0.2,6.1,0.3c3.9,0.4,7.7,1,11.3,1.8c3.5,0.8,6.8,1.8,9.9,2.8c3,1,5.9,2.2,8.5,3.3   c2.6,1.1,4.9,2.3,7,3.4C219.3,334.9,224,338.8,224,338.8z"/>
	<path style="fill:#F9B54C;" d="M220.9,348.1c0,0-4.4-2-11.5-4.3c-3.7-1.2-8.2-2.5-13.2-3.6c-2.6-0.6-5.3-1-8.2-1.4s-6-0.6-9.1-0.7   c-3.2-0.1-6.4,0-9.7,0.3c-1.7,0.1-3.3,0.5-5,0.7c-1.7,0.3-3.3,0.7-5,1c-1.6,0.5-3.3,0.9-4.9,1.5c-1.6,0.6-3.2,1.1-4.7,1.8   c-3.1,1.4-6,3-8.7,4.6c-1.3,0.9-2.6,1.8-3.8,2.6c-1.2,1-2.3,1.9-3.4,2.7c-2.1,1.8-3.8,3.6-5.4,5c-2.8,3.2-4.5,5-4.5,5   s1.3-2.1,3.6-5.8c1.3-1.6,2.8-3.8,4.8-5.9c1-1,2.1-2.1,3.2-3.3c1.2-1,2.5-2.1,3.8-3.2c2.6-2,5.6-4,8.8-5.7c1.6-0.9,3.2-1.5,4.9-2.3   c1.7-0.7,3.4-1.2,5.1-1.8c3.4-0.9,6.9-1.8,10.4-2.1c3.4-0.4,6.8-0.5,10.1-0.3c3.2,0.2,6.4,0.6,9.4,1c2.9,0.5,5.7,1.2,8.4,2   c2.6,0.7,5,1.6,7.2,2.5s4.2,1.8,6,2.7C216.8,344.8,220.9,348.1,220.9,348.1z"/>
	<path style="fill:#F9B54C;" d="M220.1,353.1c0,0-4.6-1-11.9-1.8c-3.8-0.4-8.4-0.7-13.5-0.6c-2.6,0-5.4,0.2-8.3,0.4   c-3,0.3-6,0.7-9.1,1.3c-3.2,0.6-6.4,1.4-9.6,2.5c-1.6,0.5-3.2,1.2-4.9,1.8c-1.6,0.6-3.2,1.4-4.8,2.1c-1.6,0.9-3.2,1.7-4.7,2.5   c-1.5,1-3.1,1.8-4.5,2.9c-2.9,2.1-5.6,4.3-8.1,6.5c-1.2,1.2-2.4,2.3-3.5,3.4c-1.1,1.2-2.1,2.3-3,3.4c-1.9,2.2-3.4,4.4-4.7,6.1   c-2.4,3.7-3.8,5.9-3.8,5.9s1-2.3,2.9-6.4c1.1-1.9,2.3-4.4,4.1-6.8c0.9-1.2,1.8-2.6,2.8-3.9c1.1-1.3,2.2-2.6,3.4-4   c2.4-2.6,5.1-5.2,8.1-7.6c1.5-1.2,3.1-2.2,4.6-3.4c1.6-1.1,3.3-1.9,4.9-2.9c3.3-1.7,6.7-3.3,10.2-4.4c3.4-1.1,6.8-2,10.1-2.6   c3.2-0.6,6.4-0.9,9.5-1c3-0.1,5.9-0.1,8.6,0.1c2.7,0.1,5.1,0.5,7.5,0.9c2.3,0.4,4.4,0.8,6.2,1.3   C215.7,350.7,220.1,353.1,220.1,353.1z"/>
	<path style="fill:#F9B54C;" d="M272.6,338.8c0,0,5-2.7,13.2-5.8c4.3-1.7,9.6-3.5,15.5-5.1c3.1-0.9,6.3-1.5,9.8-2.2   c3.5-0.6,7.2-1.2,10.9-1.4c1.9-0.1,3.9-0.3,5.8-0.3c2-0.1,4,0,6,0.1c2.1,0,4.1,0.4,6.1,0.5c2.1,0.2,4.1,0.6,6.2,1   c2,0.5,4.1,1,6.1,1.5c2,0.7,4.1,1.2,6,2c4,1.5,7.7,3.3,11.1,5.2c1.7,1.1,3.3,2.1,4.9,3.1c1.5,1.1,3,2.2,4.3,3.2   c2.8,2.1,4.9,4.3,6.9,6c3.7,3.9,5.8,6.1,5.8,6.1s-1.7-2.6-4.9-6.9c-1.8-1.9-3.7-4.5-6.3-7c-1.3-1.2-2.7-2.5-4.1-3.8   c-1.6-1.2-3.2-2.4-4.9-3.6c-3.4-2.3-7.2-4.5-11.3-6.3c-2-1-4.1-1.6-6.2-2.4c-2.1-0.7-4.3-1.2-6.4-1.8c-4.3-0.9-8.6-1.6-12.9-1.8   c-2.1-0.1-4.2-0.2-6.3-0.1c-2,0-4.1,0.2-6.1,0.3c-3.9,0.4-7.7,1-11.3,1.8c-3.5,0.8-6.8,1.8-9.9,2.8c-3,1-5.9,2.2-8.5,3.3   c-2.6,1.1-4.9,2.3-7,3.4C277.3,334.9,272.6,338.8,272.6,338.8z"/>
	<path style="fill:#F9B54C;" d="M275.7,348.1c0,0,4.4-2,11.5-4.3c3.7-1.2,8.2-2.5,13.2-3.6c2.6-0.6,5.3-1,8.2-1.4   c2.9-0.4,6-0.6,9.1-0.7c3.2-0.1,6.4,0,9.7,0.3c1.7,0.1,3.3,0.5,5,0.7c1.7,0.3,3.3,0.7,5,1c1.6,0.5,3.3,0.9,4.9,1.5s3.2,1.1,4.7,1.8   c3.1,1.4,6,3,8.7,4.6c1.3,0.9,2.6,1.8,3.8,2.6c1.2,1,2.3,1.9,3.4,2.7c2.1,1.8,3.8,3.6,5.4,5c2.8,3.2,4.5,5,4.5,5s-1.3-2.1-3.6-5.8   c-1.3-1.6-2.8-3.8-4.8-5.9c-1-1-2.1-2.1-3.2-3.3c-1.2-1-2.5-2.1-3.8-3.2c-2.6-2-5.6-4-8.8-5.7c-1.6-0.9-3.2-1.5-4.9-2.3   c-1.7-0.7-3.4-1.2-5.1-1.8c-3.4-0.9-6.9-1.8-10.4-2.1c-3.4-0.4-6.8-0.5-10.1-0.3c-3.2,0.2-6.4,0.6-9.4,1c-2.9,0.5-5.7,1.2-8.4,2   c-2.6,0.7-5,1.6-7.2,2.5s-4.2,1.8-6,2.7C279.8,344.8,275.7,348.1,275.7,348.1z"/>
	<path style="fill:#F9B54C;" d="M276.5,353.1c0,0,4.6-1,11.9-1.8c3.8-0.4,8.4-0.7,13.5-0.6c2.6,0,5.4,0.2,8.3,0.4   c3,0.3,6,0.7,9.1,1.3c3.2,0.6,6.4,1.4,9.6,2.5c1.6,0.5,3.2,1.2,4.9,1.8c1.6,0.6,3.2,1.4,4.8,2.1c1.6,0.9,3.2,1.7,4.7,2.5   c1.5,1,3.1,1.8,4.5,2.9c2.9,2.1,5.6,4.3,8.1,6.5c1.2,1.2,2.4,2.3,3.5,3.4c1.1,1.2,2.1,2.3,3,3.4c1.9,2.2,3.4,4.4,4.7,6.1   c2.4,3.7,3.8,5.9,3.8,5.9s-1-2.3-2.9-6.4c-1.1-1.9-2.3-4.4-4.1-6.8c-0.9-1.2-1.8-2.6-2.8-3.9c-1.1-1.3-2.2-2.6-3.4-4   c-2.4-2.6-5.1-5.2-8.1-7.6c-1.5-1.2-3.1-2.2-4.6-3.4c-1.6-1.1-3.3-1.9-4.9-2.9c-3.3-1.7-6.7-3.3-10.2-4.4c-3.4-1.1-6.8-2-10.1-2.6   c-3.2-0.6-6.4-0.9-9.5-1c-3-0.1-5.9-0.1-8.6,0.1c-2.7,0.1-5.1,0.5-7.5,0.9c-2.3,0.4-4.4,0.8-6.2,1.3   C280.9,350.7,276.5,353.1,276.5,353.1z"/>
</g>
<g>
	<path style="fill:#FFD05B;" d="M293.1,89.6c0,0,1.5-0.2,4.3-0.2c2.7,0,6.7,0.1,11.4,1.4c1.1,0.4,2.3,0.8,3.5,1.2   c1.2,0.4,2.4,1.2,3.7,1.9c2.5,1.4,4.9,3.1,7.2,5.1c2.2,2,4.5,4.1,6.5,6.4c2.1,2.3,4,4.6,6,7c1.9,2.3,3.8,4.6,5.7,6.8   c1.9,2.1,3.7,4.3,5.7,6.1c0.9,1,1.9,1.8,2.9,2.6c0.9,0.9,1.9,1.6,2.9,2.3c1.9,1.4,4,2.6,5.9,3.6c3.9,1.9,7.5,3.3,10,4.3   s3.9,1.6,3.9,1.6s-1.6,0-4.3-0.1c-2.7-0.1-6.6-0.4-11.2-1.6c-2.3-0.6-4.8-1.4-7.3-2.7c-2.5-1.2-5.1-2.8-7.4-4.7   c-4.8-3.7-9-8.5-12.9-13.2s-7.5-9.4-11.2-13.3c-1.9-1.9-3.8-3.7-5.6-5.2c-1-0.7-1.7-1.4-2.8-2c-1-0.6-2-1.2-2.9-1.8   c-3.8-2-7.4-3.2-9.9-4.1C294.5,90.1,293.1,89.6,293.1,89.6z"/>
	<path style="fill:#FFD05B;" d="M343.1,152.4c0,0,0.5,0.1,1.3,0.2c0.9,0.1,2.1,0.3,3.7,0.8c1.6,0.4,3.5,1,5.7,2   c2.2,0.9,4.5,2.2,6.9,3.8c4.8,3.2,9.8,8.1,13.6,14.5c1.9,3.2,3.5,6.7,4.6,10.5c1.1,3.7,1.7,7.7,2.1,11.4s0.6,7.4,1,10.8   c0.5,3.4,0.9,6.8,1.7,10c1.5,6.4,3.7,12.2,6,17.1c2.3,4.9,4.6,8.8,6.3,11.5c1.7,2.7,2.8,4.3,2.8,4.3s-0.4-0.3-1.1-0.8   s-1.7-1.3-2.9-2.4c-2.4-2.2-5.8-5.6-9-10.3c-3.3-4.7-6.5-10.6-8.7-17.5c-1.1-3.5-2.1-7.1-2.6-10.8c-0.6-3.7-0.9-7.4-1.3-11   s-0.7-6.9-1.6-10.2c-0.9-3.2-1.9-6.3-3.3-9.2c-1.5-2.8-3.1-5.5-4.8-7.9c-1.8-2.4-3.7-4.5-5.6-6.4c-1.9-1.8-3.8-3.4-5.5-4.7   s-3.4-2.4-4.7-3.2c-1.4-0.8-2.5-1.4-3.3-1.8C343.5,152.6,343.1,152.4,343.1,152.4z"/>
	<path style="fill:#FFD05B;" d="M345,209.3c0,0,1.4,1.3,3.7,3.6c2.3,2.4,5.4,5.9,8.8,10.4s7,10.2,10.1,16.7c1.5,3.3,3,6.7,4.1,10.3   c1.1,3.6,2.1,7.4,2.8,11.2c0.6,3.7,0.9,7.8,0.9,11.6c0,3.8-0.4,7.6-1,11.2c-1.3,7.2-3.8,13.7-6.6,18.7c-0.8,1.2-1.5,2.4-2.2,3.5   c-0.8,1-1.5,2-2.3,3c-1.5,1.8-2.9,3.3-4.1,4.4c-1.2,1.2-2.3,1.9-3,2.5c-0.7,0.5-1.1,0.8-1.1,0.8s1.1-1.5,2.8-4.3   c0.9-1.3,1.8-3.1,2.8-5c1-2,1.9-4.3,2.9-6.8c0.9-2.6,1.7-5.3,2.4-8.3c0.7-3,1.1-6.2,1.5-9.4c0.4-3.3,0.3-6.7,0.3-10.2   c-0.1-3.5-0.5-6.8-1.1-10.4c-0.6-3.5-1.3-7-2.3-10.3c-1-3.3-2-6.7-3.2-9.8c-2.4-6.3-5.1-12.1-7.5-17c-2.5-4.9-4.7-9-6.2-11.9   C345.9,211,345,209.3,345,209.3z"/>
	<path style="fill:#FFD05B;" d="M259.9,94.1c0,0,0.3-0.1,0.8-0.4s1.4-0.6,2.6-0.9c2.3-0.6,5.9-0.7,9.8,0.6c4,1.2,8.3,3.5,12.1,7.1   c1.9,1.8,3.8,3.9,5.2,6.4l0.6,1l0.4,0.8c0.3,0.6,0.7,1.4,0.9,2c0.5,1.3,1,2.6,1.4,3.8c0.8,2.5,1.4,4.9,2.1,7c0.4,1.1,0.8,2.1,1.2,3   l0.3,0.7c0,0.1,0.2,0.3,0.1,0.2l0.2,0.4c0.3,0.5,0.6,1.1,0.9,1.4c1,1.5,2.4,3.2,3.8,4.5s2.9,2.6,4.4,3.7c3,2.1,5.7,3.8,7.5,5   c1.9,1.2,3,1.9,3,1.9s-1.3-0.1-3.5-0.5s-5.4-1-9.2-2.5c-1.9-0.7-3.9-1.7-5.9-3s-4-2.9-5.8-5.2c-0.5-0.6-0.8-1-1.2-1.5l-0.3-0.4   l-0.4-0.5l-0.6-0.9c-0.7-1.2-1.3-2.5-1.8-3.7c-1-2.5-1.7-5-2.5-7.3c-0.4-1.2-0.7-2.3-1.1-3.3l-0.6-1.5l-0.4-0.9l-0.3-0.7   c-1-1.9-2.1-3.7-3.5-5.3c-2.7-3.3-5.9-5.9-8.9-7.8c-3-1.8-5.8-2.8-8-3.1C261.2,93.9,259.9,94.1,259.9,94.1z"/>
	<path style="fill:#FFD05B;" d="M203.6,89.6c0,0-1.5,0.5-4,1.4s-6.1,2.1-9.9,4.1c-0.9,0.6-1.9,1.2-2.9,1.8c-1.1,0.7-1.8,1.4-2.8,2   c-1.9,1.5-3.7,3.3-5.6,5.2c-3.7,3.9-7.3,8.6-11.2,13.3c-3.9,4.7-8.1,9.5-12.9,13.2c-2.3,1.9-4.9,3.5-7.4,4.7   c-2.5,1.4-5,2.1-7.3,2.7c-4.6,1.2-8.5,1.4-11.2,1.6c-2.7,0.1-4.3,0.1-4.3,0.1s1.4-0.6,3.9-1.6s6.1-2.4,10-4.3c1.9-1,4-2.1,5.9-3.6   c1-0.7,2-1.4,2.9-2.3c1-0.8,2-1.7,2.9-2.6c2-1.8,3.8-4,5.7-6.1c1.9-2.3,3.8-4.5,5.7-6.8s3.9-4.7,6-7c2-2.3,4.3-4.4,6.5-6.4   c2.3-2,4.7-3.7,7.2-5.1c1.3-0.6,2.6-1.4,3.7-1.9c1.2-0.4,2.4-0.8,3.5-1.2c4.7-1.4,8.7-1.4,11.4-1.4C202,89.4,203.6,89.6,203.6,89.6   z"/>
	<path style="fill:#FFD05B;" d="M153.5,152.4c0,0-0.4,0.2-1.2,0.6c-0.8,0.4-1.9,1-3.3,1.8c-1.4,0.8-3,1.9-4.7,3.2   c-1.8,1.3-3.6,2.9-5.5,4.7c-1.9,1.9-3.8,4-5.6,6.4s-3.4,5.1-4.8,7.9c-1.5,2.8-2.5,6-3.3,9.2c-0.9,3.3-1.3,6.6-1.6,10.2   c-0.4,3.6-0.7,7.3-1.3,11c-0.5,3.7-1.5,7.4-2.6,10.8c-2.2,6.9-5.4,12.8-8.7,17.5c-3.2,4.7-6.6,8.1-9,10.3c-1.2,1.1-2.2,1.9-2.9,2.4   c-0.7,0.5-1.1,0.8-1.1,0.8s1.1-1.5,2.8-4.3c1.7-2.7,4-6.6,6.3-11.5c2.2-4.9,4.4-10.7,6-17.1c0.8-3.2,1.3-6.5,1.7-10   c0.4-3.4,0.6-7.1,1-10.8s1-7.7,2.1-11.4c1.1-3.8,2.7-7.3,4.6-10.5c3.8-6.4,8.8-11.2,13.6-14.5c2.4-1.6,4.7-2.9,6.9-3.8   c2.1-1,4-1.6,5.7-2c1.6-0.5,2.9-0.6,3.7-0.8C153,152.4,153.5,152.4,153.5,152.4z"/>
	<path style="fill:#FFD05B;" d="M151.6,209.3c0,0-0.9,1.7-2.4,4.6c-1.6,2.9-3.7,7-6.2,11.9c-2.4,4.9-5.1,10.7-7.5,17   c-1.2,3.1-2.2,6.5-3.2,9.8c-0.9,3.4-1.7,6.8-2.3,10.3c-0.6,3.6-1,6.9-1.1,10.4c0,3.5-0.1,6.9,0.3,10.2c0.4,3.3,0.8,6.5,1.5,9.4   c0.7,3,1.5,5.7,2.4,8.3c1,2.5,1.9,4.8,2.9,6.8c1,1.9,1.9,3.7,2.8,5c1.7,2.8,2.8,4.3,2.8,4.3s-0.4-0.3-1.1-0.8   c-0.7-0.6-1.8-1.3-3-2.5c-1.2-1.1-2.6-2.6-4.1-4.4c-0.7-0.9-1.5-1.9-2.3-3c-0.7-1.1-1.4-2.3-2.2-3.5c-2.9-5-5.4-11.5-6.6-18.7   c-0.6-3.6-1-7.4-1-11.2c0-3.8,0.4-7.9,0.9-11.6c0.7-3.8,1.7-7.6,2.8-11.2c1.1-3.6,2.6-7.1,4.1-10.3c3.1-6.5,6.7-12.1,10.1-16.7   c3.4-4.6,6.5-8.1,8.8-10.4C150.2,210.6,151.6,209.3,151.6,209.3z"/>
	<path style="fill:#FFD05B;" d="M236.7,94.1c0,0-1.3-0.1-3.5,0.2c-2.1,0.3-5,1.3-8,3.1c-3,1.9-6.2,4.5-8.9,7.8   c-1.4,1.6-2.5,3.4-3.5,5.3l-0.3,0.7l-0.4,0.9l-0.6,1.5c-0.4,1.1-0.8,2.2-1.1,3.3c-0.8,2.3-1.5,4.8-2.5,7.3   c-0.5,1.3-1.1,2.5-1.8,3.7l-0.6,0.9l-0.4,0.5l-0.3,0.4c-0.4,0.5-0.7,0.9-1.2,1.5c-1.8,2.3-3.8,3.8-5.8,5.2c-2,1.3-4,2.3-5.9,3   c-3.7,1.5-6.9,2.1-9.2,2.5c-2.2,0.4-3.5,0.5-3.5,0.5s1.1-0.7,3-1.9s4.6-2.9,7.5-5c1.5-1.1,3-2.3,4.4-3.7c1.4-1.3,2.8-3,3.8-4.5   c0.2-0.3,0.6-0.9,0.9-1.4l0.2-0.4c-0.1,0.1,0.1-0.2,0.1-0.2l0.3-0.7c0.4-1,0.8-2,1.2-3c0.7-2.1,1.4-4.5,2.1-7   c0.4-1.2,0.8-2.5,1.4-3.8c0.2-0.6,0.6-1.4,0.9-2l0.4-0.8l0.6-1c1.4-2.5,3.3-4.6,5.2-6.4c3.9-3.6,8.1-5.9,12.1-7.1   c4-1.3,7.6-1.1,9.8-0.6c1.1,0.3,2,0.7,2.6,0.9C236.4,93.9,236.7,94.1,236.7,94.1z"/>
</g>
<path style="fill:#324A5E;" d="M183.9,234.4c-0.6,1.2,0.5,2.7,1.8,3.2c1.3,0.4,2.7,0.2,4-0.1s2.8-0.5,4,0c1.5,0.6,2.4,2.2,3.5,3.5  c3.4,4.2,9.2,5.4,14.5,6.1c0.9,0.1,1.9,0.3,2.7,0.8c0.6,0.4,1,1.1,1.4,1.8c2.1,3.5,4,7.1,5.6,10.8c0.5,1,1.2,2.3,2.3,2.2  c1.9-3.2-0.1-7.2-0.9-10.8c-0.9-4.1-0.3-8.3-0.3-12.5s-0.9-8.7-4-11.5c-3-2.7-7.5-3-11.5-2.8c-2.2,0.1-4.5,0.4-6.6,1.1  c-1.4,0.5-2.8,1.2-4.1,1.9c-4,2.2-8.1,4.3-12.1,6.5L183.9,234.4z"/>
<path style="fill:#DDA12A;" d="M197.8,230.2c-0.1,0.5-0.2,1.1-0.2,1.7c0,6.2,5,11.2,11.2,11.2c5.4,0,9.9-3.9,10.9-9  C215.3,226.7,205.3,227.3,197.8,230.2z"/>
<g>
	<ellipse style="fill:#324A5E;" cx="208.4" cy="233.2" rx="1.8" ry="3.7"/>
	<path style="fill:#324A5E;" d="M312.8,234.4c0.6,1.2-0.5,2.7-1.8,3.2c-1.3,0.4-2.7,0.2-4-0.1s-2.8-0.5-4,0   c-1.5,0.6-2.4,2.2-3.5,3.5c-3.4,4.2-9.2,5.4-14.5,6.1c-0.9,0.1-1.9,0.3-2.7,0.8c-0.6,0.4-1,1.1-1.4,1.8c-2.1,3.5-4,7.1-5.6,10.8   c-0.5,1-1.2,2.3-2.3,2.2c-1.9-3.2,0.1-7.2,0.9-10.8c0.9-4.1,0.3-8.3,0.3-12.5s0.9-8.7,4-11.5c3-2.7,7.5-3,11.5-2.8   c2.2,0.1,4.5,0.4,6.6,1.1c1.4,0.5,2.8,1.2,4.1,1.9c4,2.2,8.1,4.3,12.1,6.5L312.8,234.4z"/>
</g>
<path style="fill:#DDA12A;" d="M298.8,230.2c0.1,0.5,0.2,1.1,0.2,1.7c0,6.2-5,11.2-11.2,11.2c-5.4,0-9.9-3.9-10.9-9  C281.3,226.7,291.4,227.3,298.8,230.2z"/>
<ellipse style="fill:#324A5E;" cx="288.3" cy="233.2" rx="1.8" ry="3.7"/>
<g>
</g>
<g>
</g>
<g>
</g>
<g>
</g>
<g>
</g>
<g>
</g>
<g>
</g>
<g>
</g>
<g>
</g>
<g>
</g>
<g>
</g>
<g>
</g>
<g>
</g>
<g>
</g>
<g>
</g>
</svg>
