<?xml version="1.0" encoding="iso-8859-1"?>
<!-- Generator: Adobe Illustrator 19.0.0, SVG Export Plug-In . SVG Version: 6.00 Build 0)  -->
<svg xmlns="http://www.w3.org/2000/svg" xmlns:xlink="http://www.w3.org/1999/xlink" version="1.1" id="Layer_1" x="0px" y="0px" viewBox="0 0 505 505" style="enable-background:new 0 0 505 505;" xml:space="preserve">
<circle style="fill:#90DFAA;" cx="252.5" cy="252.5" r="252.5"/>
<g>
	<path style="fill:#324A5E;" d="M325.6,121c-8.8,10-12.3,23.2-11.1,36.2l48,54.9c12.8,2.9,26.3,1.2,37.4-6.2   c24.2-16.1,27.5-52.3,4.3-78.8C381.1,100.6,344.7,99.2,325.6,121z"/>
	<path style="fill:#324A5E;" d="M179.4,121c8.8,10,12.3,23.2,11.1,36.2l-48,54.9c-12.8,2.9-26.3,1.2-37.4-6.2   c-24.2-16.1-27.5-52.3-4.3-78.8C123.9,100.6,160.3,99.2,179.4,121z"/>
</g>
<ellipse style="fill:#FFFFFF;" cx="252.5" cy="280.3" rx="141.1" ry="148.1"/>
<g>
	<path style="fill:#324A5E;" d="M301,354c-2.3,11.3-12.3,19.8-24.3,19.8s-22-8.5-24.3-19.8l0,0l0,0c-2.3,11.3-12.3,19.8-24.3,19.8   s-22-8.5-24.3-19.8c-0.3,1.6-0.5,3.3-0.5,5c0,13.7,11.1,24.8,24.8,24.8c12,0,22-8.5,24.3-19.8c2.3,11.3,12.3,19.8,24.3,19.8   c13.7,0,24.8-11.1,24.8-24.8C301.5,357.2,301.4,355.6,301,354z"/>
	<path style="fill:#324A5E;" d="M284.1,333.6c0,10.6-14.1,22.9-31.6,22.9c-17.4,0-31.6-12.3-31.6-22.9s14.1-15.5,31.6-15.5   C269.9,318.1,284.1,323,284.1,333.6z"/>
</g>
<g>
	<path style="fill:#2B3B4E;" d="M284,334.8c-0.9,8.9-11.3,18.7-25.1,21.1c-1.5-0.7-2.8-1.8-3.6-3.2c-3-5.3,1.2-13.3,9.4-17.9   C272.2,330.6,280.4,330.7,284,334.8z"/>
	<path style="fill:#2B3B4E;" d="M249.6,352.7c-0.8,1.4-2,2.5-3.6,3.2c-13.7-2.4-24.2-12.1-25.1-21.1c3.6-4.1,11.8-4.2,19.2,0   C248.4,339.4,252.6,347.4,249.6,352.7z"/>
</g>
<path style="fill:#324A5E;" d="M324.9,233.7c17.6,17.6,31,49.6,19.6,61c-11.5,11.5-43.4-1.9-61-19.6c-17.6-17.6-14.3-32.8-2.8-44.3  C292,219.4,307.2,216.1,324.9,233.7z"/>
<circle style="fill:#E6E9EE;" cx="302.1" cy="252.5" r="15.6"/>
<circle style="fill:#2B3B4E;" cx="302.1" cy="252.5" r="10.8"/>
<ellipse transform="matrix(-0.5215 -0.8533 0.8533 -0.5215 242.0984 631.1252)" style="fill:#CED5E0;" cx="298.021" cy="247.677" rx="2" ry="3.4"/>
<path style="fill:#324A5E;" d="M180.1,233.7c-17.6,17.6-31,49.6-19.6,61c11.5,11.5,43.4-1.9,61-19.6c17.6-17.6,14.3-32.8,2.8-44.3  C213,219.4,197.8,216.1,180.1,233.7z"/>
<circle style="fill:#E6E9EE;" cx="202.9" cy="252.5" r="15.6"/>
<circle style="fill:#2B3B4E;" cx="202.9" cy="252.5" r="10.8"/>
<ellipse transform="matrix(-0.5215 0.8533 -0.8533 -0.5215 526.4106 200.1528)" style="fill:#CED5E0;" cx="207.081" cy="247.685" rx="2" ry="3.4"/>
<g>
</g>
<g>
</g>
<g>
</g>
<g>
</g>
<g>
</g>
<g>
</g>
<g>
</g>
<g>
</g>
<g>
</g>
<g>
</g>
<g>
</g>
<g>
</g>
<g>
</g>
<g>
</g>
<g>
</g>
</svg>
