<?xml version="1.0" encoding="iso-8859-1"?>
<!-- Generator: Adobe Illustrator 19.0.0, SVG Export Plug-In . SVG Version: 6.00 Build 0)  -->
<svg xmlns="http://www.w3.org/2000/svg" xmlns:xlink="http://www.w3.org/1999/xlink" version="1.1" id="Layer_1" x="0px" y="0px" viewBox="0 0 505 505" style="enable-background:new 0 0 505 505;" xml:space="preserve">
<circle style="fill:#FD8469;" cx="252.5" cy="252.5" r="252.5"/>
<path style="fill:#FFD05B;" d="M324.4,244.8c-4.1,5.2-8.1,10.8-10.1,17.1c0.1-12.3-0.9-24.6-2.9-36.8c-0.3-1.5-0.5-3.1,0-4.5  c0.4-1.1,1.2-2,1.9-2.9c5.7-6.9,8.4-15.7,11-24.3c5.4-18,10.8-36,14-54.5c2.5-14.6,4.3-30.8,15.1-41.1c8.3-8,20.4-10.5,31.8-12.2  c-1.3,5.3-3.9,10.3-7.6,14.4c6.1,1.1,12.5-0.3,17.6-3.8c1.6,13.9,3.2,27.8,4.8,41.7c0.5,4,0.9,8,0.3,12c-0.5,3.4-1.8,6.7-3.1,9.9  c-2.4,6.2-4.9,12.4-7.3,18.6c3.9-0.9,7-3.6,10-6.3c-3.5,11.9-10.4,22.7-19.7,30.8c-13.2,11.5-30.6,17.3-43.8,28.8  C332,235.7,328.1,240.2,324.4,244.8z"/>
<path style="fill:#F9B54C;" d="M322.5,217.7c3.6-0.2,6.1-3.4,8.2-6.3c5.6-7.8,11.3-15.6,15.3-24.3c10.7-23.5,8.4-50.8,16.1-75.5  c1.1-3.4,2.8-7.2,6.2-8.1c-3.1,9.4-3.9,19.5-2.3,29.2c8.7-4.9,16.8-10.8,24.2-17.5c-7.9,13.8-11.8,29.9-11.2,45.8  c0.1,3.1,0.4,6.2-0.3,9.2c-1,4.3-3.7,7.9-6.5,11.3c-12.2,14.8-26.1,27.9-40.2,40.9c-1.7,1.5-3.3,3.1-4.7,4.9  c-1.9,2.4-3.2,5.3-3.8,8.4C324.3,229.7,324,223.5,322.5,217.7z"/>
<path style="fill:#FFD05B;" d="M180.6,244.8c4.1,5.2,8.1,10.8,10.1,17.1c-0.1-12.3,0.9-24.6,2.9-36.8c0.3-1.5,0.5-3.1,0-4.5  c-0.4-1.1-1.2-2-1.9-2.9c-5.7-6.9-8.4-15.7-11-24.3c-5.4-18-10.8-36-14-54.5c-2.5-14.6-4.3-30.8-15.1-41.1  c-8.3-8-20.4-10.5-31.8-12.2c1.3,5.3,3.9,10.3,7.6,14.4c-6.1,1.1-12.5-0.3-17.6-3.8c-1.6,13.9-3.2,27.8-4.8,41.7  c-0.5,4-0.9,8-0.3,12c0.5,3.4,1.8,6.7,3.1,9.9c2.4,6.2,4.9,12.4,7.3,18.6c-3.9-0.9-7-3.6-10-6.3c3.5,11.9,10.4,22.7,19.7,30.8  c13.2,11.5,30.6,17.3,43.8,28.8C173,235.7,176.9,240.2,180.6,244.8z"/>
<path style="fill:#F9B54C;" d="M182.5,217.7c-3.6-0.2-6.1-3.4-8.2-6.3c-5.6-7.8-11.3-15.6-15.3-24.3c-10.7-23.5-8.4-50.8-16.1-75.5  c-1.1-3.4-2.8-7.2-6.2-8.1c3.1,9.4,3.9,19.5,2.3,29.2c-8.7-4.9-16.8-10.8-24.2-17.5c7.9,13.8,11.8,29.9,11.2,45.8  c-0.1,3.1-0.4,6.2,0.3,9.2c1,4.3,3.7,7.9,6.5,11.3c12.2,14.8,26.1,27.9,40.2,40.9c1.7,1.5,3.3,3.1,4.7,4.9c1.9,2.4,3.2,5.3,3.8,8.4  C180.7,229.7,181,223.5,182.5,217.7z"/>
<path style="fill:#FFD05B;" d="M364.6,289.7c-6.2-5.6-10.5-12.8-12.3-20.6c-9.8-42.6-50.7-74.6-99.8-74.6s-90,31.9-99.7,74.5  c-1.8,7.8-6.1,15-12.3,20.6c-14.6,13.3-23.1,29.3-23.1,46.5c0,45.9,60.5,83.1,135.2,83.1s135.2-37.2,135.2-83.1  C387.7,318.9,379.2,302.9,364.6,289.7z"/>
<path style="fill:#FFFFFF;" d="M387.7,336.1c0,45.9-60.5,83.1-135.2,83.1c-74.6,0-135.2-37.2-135.2-83.1c0-12.9,4.8-25.1,13.4-36.1  c70.1-1.3,121.8,58.3,121.8,58.3s51.7-59.5,121.8-58.3C382.9,311,387.7,323.2,387.7,336.1z"/>
<g>
	<path style="fill:#E6E9EE;" d="M262.9,394h-5c-2.2,0-3.9-1.4-3.9-3.3v-27.9h22.1l-7.7,27.4C267.8,392.3,265.3,394,262.9,394z"/>
	<path style="fill:#E6E9EE;" d="M242.1,394h5c2.2,0,3.9-1.4,3.9-3.3v-27.9h-22.1l7.7,27.4C237.1,392.3,239.7,394,242.1,394z"/>
</g>
<path style="fill:#F9B54C;" d="M267.6,339.1c-6.4,0-12,3.4-15.1,8.5c-3.1-5.1-8.7-8.5-15.1-8.5c-9.7,0-17.6,7.9-17.6,17.6  s7.9,17.6,17.6,17.6c6.4,0,12-3.4,15.1-8.5c3.1,5.1,8.7,8.5,15.1,8.5c9.7,0,17.6-7.9,17.6-17.6S277.3,339.1,267.6,339.1z"/>
<path style="fill:#324A5E;" d="M274.2,337.5c0,7.4-9.7,17.7-21.7,17.7s-21.7-10.3-21.7-17.7c0-7.4,9.7-9.2,21.7-9.2  S274.2,330.1,274.2,337.5z"/>
<g>
	<path style="fill:#FFFFFF;" d="M193.9,266.2c0,0-3.9,33.9,33.1,33.2C227,299.4,228.6,265.1,193.9,266.2z"/>
	<path style="fill:#FFFFFF;" d="M310.7,266.2c0,0,3.9,33.9-33.1,33.2C277.6,299.4,276,265.1,310.7,266.2z"/>
</g>
<path style="fill:#2B3B4E;" d="M204.3,266.2c0.4,0.6,1.1,1.1,2,1.2c2.1,0.2,4,1.3,6,1.8c0.3,0.1,0.5,0.1,0.8,0.2  c0.1,0.3,0.2,0.6,0.4,0.9c1.3,1.7,2.9,2.6,4.7,3.8c0.8,0.5,1.5,1.1,2.1,1.8c0.8,1.5,1.7,2.9,2.9,4.2c0.3,0.3,0.7,0.5,1,0.6  c-0.1,6.2-4.3,10.9-10.3,10.9c-6.7,0-13.1-6-14.3-13.4C198.8,273,200.7,268.5,204.3,266.2z"/>
<path style="fill:#324A5E;" d="M227.4,291.7l-0.1-0.9l-0.2-1.7c-0.1-0.6-0.2-1.1-0.3-1.7l-0.2-0.9c-0.1-0.3-0.1-0.6-0.2-0.8  l-0.5-1.7c-0.1-0.3-0.2-0.6-0.3-0.8l-0.3-0.8c-0.2-0.5-0.5-1.1-0.7-1.6c-0.3-0.5-0.6-1-0.8-1.5l-0.4-0.8l-0.2-0.4l-0.3-0.4l-1-1.4  c-0.3-0.5-0.7-0.9-1.1-1.4l-1.2-1.3l-1.3-1.2c-0.4-0.4-0.9-0.8-1.3-1.2c-0.9-0.7-1.8-1.5-2.9-2.1c-0.5-0.3-1-0.6-1.5-0.9l-1.6-0.8  l-0.8-0.4c-0.3-0.1-0.6-0.2-0.8-0.3l-1.7-0.6c-0.3-0.1-0.6-0.2-0.9-0.3l-0.9-0.2c-0.6-0.1-1.1-0.3-1.7-0.4l-1.8-0.3l-0.9-0.1  c-0.3,0-0.6,0-0.9-0.1l-1.7-0.1h-0.4h-0.1h-0.2H198h-0.8h-3.4h-1.6v1.5l0.1,4.2c0,0.7,0.1,1.4,0.1,2.2c0.1,0.7,0.2,1.4,0.2,2.2  c0.1,0.7,0.3,1.4,0.4,2.1c0.2,0.7,0.3,1.4,0.6,2.1c0.2,0.7,0.4,1.4,0.7,2l0.4,1l0.5,1c0.3,0.7,0.7,1.3,1,1.9  c0.4,0.6,0.8,1.2,1.2,1.8c0.4,0.6,0.8,1.1,1.3,1.7c0.5,0.5,0.9,1.1,1.4,1.6s1,1,1.5,1.5c0.3,0.2,0.5,0.5,0.8,0.7l0.8,0.6  c0.5,0.4,1.2,0.8,1.7,1.2c0.6,0.4,1.2,0.7,1.8,1c-0.5-0.5-1.1-0.9-1.6-1.3c-0.5-0.5-1-0.9-1.5-1.4l-0.7-0.7  c-0.2-0.3-0.4-0.5-0.7-0.8c-0.5-0.5-0.9-1-1.3-1.6c-0.4-0.5-0.8-1.1-1.2-1.7s-0.7-1.1-1.1-1.7c-0.3-0.6-0.7-1.2-0.9-1.8  c-0.3-0.6-0.6-1.2-0.8-1.8l-0.4-0.9l-0.3-0.9c-0.2-0.6-0.4-1.3-0.5-1.9c-0.2-0.6-0.3-1.3-0.4-1.9c-0.1-0.7-0.2-1.3-0.3-2  s-0.1-1.3-0.1-2s0-1.3,0-2l0.1-2.6h1.9h0.8h0.2l0,0l0,0h0.1h0.4l1.7,0.1c0.3,0,0.6,0,0.8,0.1l0.8,0.1l1.5,0.2c0.5,0.1,1,0.3,1.5,0.4  l0.8,0.2c0.3,0.1,0.5,0.1,0.8,0.2l1.5,0.5c0.2,0.1,0.5,0.2,0.7,0.3l0.7,0.3l1.4,0.7c0.5,0.2,0.9,0.5,1.4,0.8  c0.4,0.3,0.9,0.5,1.4,0.8l1.3,0.9c0.4,0.3,0.8,0.7,1.2,1l1.2,1.1l1.1,1.2c0.4,0.4,0.8,0.8,1.1,1.2l1,1.3l0.3,0.3l0.2,0.3l0.4,0.7  c0.3,0.5,0.6,0.9,0.9,1.4c0.3,0.5,0.5,1,0.8,1.4l0.4,0.7c0.1,0.2,0.2,0.5,0.3,0.7l0.6,1.5c0.1,0.2,0.2,0.5,0.3,0.8l0.2,0.8  c0.2,0.5,0.3,1,0.5,1.6l0.4,1.6l0.2,0.8c0.1,0.3,0.1,0.5,0.1,0.8c0.1,1.1,0.3,2.2,0.4,3.3c0.1,1.1,0.2,2.3,0.3,3.4  c0.1-1.1,0.2-2.3,0.3-3.4s0.1-2.3,0.1-3.4C227.4,292.3,227.4,292,227.4,291.7z"/>
<ellipse style="fill:#FFFFFF;" cx="215.3" cy="282" rx="1.9" ry="2.4"/>
<path style="fill:#2B3B4E;" d="M300.7,266.2c-0.4,0.6-1.1,1.1-2,1.2c-2.1,0.2-4,1.3-6,1.8c-0.3,0.1-0.5,0.1-0.8,0.2  c-0.1,0.3-0.2,0.6-0.4,0.9c-1.3,1.7-2.9,2.6-4.7,3.8c-0.8,0.5-1.5,1.1-2.1,1.8c-0.8,1.5-1.7,2.9-2.9,4.2c-0.3,0.3-0.7,0.5-1,0.6  c0.1,6.2,4.3,10.9,10.3,10.9c6.7,0,13.1-6,14.3-13.4C306.2,273,304.3,268.5,300.7,266.2z"/>
<path style="fill:#324A5E;" d="M311.2,264.7h-3.4H307h-0.2h-0.2h-0.1h-0.4l-1.7,0.1c-0.3,0-0.6,0-0.9,0.1l-0.9,0.1l-1.8,0.3  c-0.6,0.1-1.2,0.3-1.7,0.4l-0.9,0.2c-0.3,0.1-0.6,0.1-0.9,0.3l-1.7,0.6c-0.3,0.1-0.6,0.2-0.8,0.3l-0.8,0.4l-1.6,0.8  c-0.5,0.3-1,0.6-1.5,0.9c-1,0.6-1.9,1.4-2.9,2.1c-0.5,0.3-0.9,0.8-1.3,1.2l-1.3,1.2l-1.2,1.3c-0.4,0.4-0.8,0.9-1.1,1.4l-1,1.4  l-0.3,0.4l-0.2,0.4l-0.4,0.8c-0.3,0.5-0.6,1-0.8,1.5c-0.2,0.5-0.5,1.1-0.7,1.6l-0.3,0.8c-0.1,0.3-0.2,0.6-0.3,0.8l-0.5,1.7  c-0.1,0.3-0.2,0.6-0.2,0.8l-0.2,0.9c-0.1,0.6-0.2,1.1-0.3,1.7l-0.2,1.7l-0.1,0.9c0,0.3,0,0.6,0,0.9c0,1.2,0,2.3,0.1,3.4  s0.2,2.3,0.3,3.4c0.1-1.1,0.2-2.3,0.3-3.4c0.1-1.1,0.2-2.2,0.4-3.3c0-0.3,0-0.6,0.1-0.8l0.2-0.8l0.4-1.6c0.1-0.5,0.3-1,0.5-1.6  l0.2-0.8c0.1-0.3,0.2-0.5,0.3-0.8l0.6-1.5c0.1-0.2,0.2-0.5,0.3-0.7l0.4-0.7c0.3-0.5,0.5-1,0.8-1.4c0.3-0.5,0.6-0.9,0.9-1.4l0.4-0.7  l0.2-0.3l0.3-0.3l1-1.3c0.3-0.4,0.7-0.8,1.1-1.2l1.1-1.2l1.2-1.1c0.4-0.4,0.8-0.7,1.2-1l1.3-0.9c0.4-0.3,0.9-0.6,1.4-0.8  c0.5-0.3,0.9-0.6,1.4-0.8l1.4-0.7l0.7-0.3c0.2-0.1,0.5-0.2,0.7-0.3l1.5-0.5c0.2-0.1,0.5-0.2,0.8-0.2l0.8-0.2c0.5-0.1,1-0.3,1.5-0.4  l1.5-0.2l0.8-0.1c0.3,0,0.6,0,0.8-0.1l1.7-0.1h0.4h0.1l0,0l0,0h0.2h0.8h1.9l0.1,2.6c0,0.7,0,1.3,0,2s-0.1,1.3-0.1,2  c-0.1,0.7-0.1,1.3-0.3,2c-0.1,0.6-0.2,1.3-0.4,1.9c-0.2,0.6-0.3,1.3-0.5,1.9l-0.3,0.9l-0.4,0.9c-0.2,0.6-0.5,1.2-0.8,1.8  c-0.3,0.6-0.6,1.2-0.9,1.8c-0.3,0.6-0.7,1.2-1.1,1.7s-0.7,1.1-1.2,1.7c-0.4,0.5-0.8,1.1-1.3,1.6c-0.2,0.3-0.4,0.5-0.7,0.8l-0.7,0.7  c-0.5,0.5-1,0.9-1.5,1.4s-1.1,0.9-1.6,1.3c0.6-0.3,1.2-0.7,1.8-1c0.6-0.4,1.2-0.8,1.7-1.2l0.8-0.6c0.3-0.2,0.5-0.5,0.8-0.7  c0.5-0.5,1-1,1.5-1.5s1-1.1,1.4-1.6c0.5-0.5,0.9-1.1,1.3-1.7s0.8-1.2,1.2-1.8c0.4-0.6,0.7-1.2,1-1.9l0.5-1l0.4-1  c0.3-0.7,0.5-1.3,0.7-2c0.3-0.7,0.4-1.4,0.6-2.1s0.3-1.4,0.4-2.1s0.2-1.4,0.2-2.2c0-0.7,0.1-1.5,0.1-2.2l0.1-4.2v-1.5L311.2,264.7z"/>
<ellipse style="fill:#FFFFFF;" cx="289.5" cy="282" rx="1.9" ry="2.4"/>
<g>
</g>
<g>
</g>
<g>
</g>
<g>
</g>
<g>
</g>
<g>
</g>
<g>
</g>
<g>
</g>
<g>
</g>
<g>
</g>
<g>
</g>
<g>
</g>
<g>
</g>
<g>
</g>
<g>
</g>
</svg>
