<?xml version="1.0" encoding="iso-8859-1"?>
<!-- Generator: Adobe Illustrator 19.0.0, SVG Export Plug-In . SVG Version: 6.00 Build 0)  -->
<svg xmlns="http://www.w3.org/2000/svg" xmlns:xlink="http://www.w3.org/1999/xlink" version="1.1" id="Layer_1" x="0px" y="0px" viewBox="0 0 505 505" style="enable-background:new 0 0 505 505;" xml:space="preserve">
<circle style="fill:#84DBFF;" cx="252.5" cy="252.5" r="252.5"/>
<path style="fill:#FF7058;" d="M421.7,128.8l-1-8.4l-8.4-1c-47.8-5.8-81.7,28.2-75.9,75.9l1,8.4l8.4,1  C393.6,210.5,427.6,176.5,421.7,128.8z"/>
<path style="fill:#F1543F;" d="M404.8,143l-0.7-6l-6-0.7c-34.2-4.2-58.5,20.1-54.3,54.3l0.7,6l6,0.7  C384.7,201.5,409,177.2,404.8,143z"/>
<path style="fill:#FF7058;" d="M83.3,128.8l1-8.4l8.4-1c47.8-5.8,81.7,28.2,75.9,75.9l-1,8.4l-8.4,1  C111.4,210.5,77.4,176.5,83.3,128.8z"/>
<path style="fill:#F1543F;" d="M100.2,143l0.7-6l6-0.7c34.2-4.2,58.5,20.1,54.3,54.3l-0.7,6l-6,0.7C120.3,201.5,96,177.2,100.2,143z  "/>
<path style="fill:#FF7058;" d="M403.5,271.7c0,83.4-67.6,168.8-151,168.8s-151-85.4-151-168.8s67.6-133.1,151-133.1  S403.5,188.4,403.5,271.7z"/>
<path style="fill:#E6E9EE;" d="M335.7,330.3c0,24.5-19.9,44.4-44.4,44.4c-16.8,0-31.3-9.3-38.9-23.1c-7.5,13.7-22.1,23.1-38.9,23.1  c-24.4,0-44.3-19.9-44.3-44.4s19.9-44.3,44.3-44.3h77.8C315.9,286,335.7,305.8,335.7,330.3z"/>
<path style="fill:#324A5E;" d="M286,277.3c0,12.3-15,29.4-33.5,29.4s-33.5-17-33.5-29.4s15-15.3,33.5-15.3S286,265,286,277.3z"/>
<path style="fill:#FFFFFF;" d="M327.2,219.1l-0.4-3.7l-3.7-0.4c-20.8-2.5-35.7,12.3-33.1,33.1l0.4,3.7l3.7,0.4  C314.9,254.7,329.8,239.9,327.2,219.1z"/>
<circle style="fill:#324A5E;" cx="308.6" cy="233.6" r="12.4"/>
<g>
	<ellipse style="fill:#FFFFFF;" cx="306.4" cy="226.8" rx="3.1" ry="2"/>
	<path style="fill:#FFFFFF;" d="M177.8,219.1l0.4-3.7l3.7-0.4c20.8-2.5,35.7,12.3,33.1,33.1l-0.4,3.7l-3.7,0.4   C190.1,254.7,175.2,239.9,177.8,219.1z"/>
</g>
<circle style="fill:#324A5E;" cx="196.4" cy="233.6" r="12.4"/>
<ellipse style="fill:#FFFFFF;" cx="198.6" cy="226.8" rx="3.1" ry="2"/>
<g>
	<path style="fill:#324A5E;" d="M303.3,330.1c0,0,3-0.9,8.3-2.3c5.1-1.2,11.9-3,19.8-4.5c14.1-2.8,30.6-5.1,44.9-5.5   c6.3-0.2,12.2,0,17.4,0.6c2.4,0.2,4.8,0.7,6.9,1.1c2,0.3,3.9,1,5.6,1.5c1.6,0.4,3.1,1.2,4.3,1.7c0.6,0.3,1.2,0.5,1.7,0.8   s0.9,0.6,1.3,0.9c1.6,1,2.4,1.6,2.4,1.6s-0.9-0.3-2.6-1c-0.4-0.2-0.9-0.4-1.4-0.6c-0.5-0.1-1.1-0.3-1.7-0.4   c-1.2-0.3-2.6-0.7-4.2-0.9c-1.6-0.2-3.4-0.6-5.4-0.7s-4.2-0.4-6.6-0.4c-2.4-0.1-5-0.1-7.7,0c-2.8,0-5.8,0.2-8.9,0.4   c-6.6,0.3-13.7,1-21,1.6c-7.9,0.8-15.9,1.7-23.4,2.5C316.2,328.7,303.3,330.1,303.3,330.1z"/>
	<path style="fill:#324A5E;" d="M301.8,341.6c0,0,3.4-0.7,9.2-1.6c5.5-0.8,12.9-2,21.3-2.8c14.9-1.6,31.9-2.5,46.1-1.8   c6.3,0.3,12.1,0.9,17.1,1.9c2.4,0.3,4.6,1,6.6,1.5c2,0.4,3.7,1.3,5.3,1.8c1.6,0.5,2.8,1.4,4,2c0.6,0.3,1.1,0.6,1.5,0.9   s0.8,0.7,1.2,0.9c1.4,1.1,2.1,1.8,2.1,1.8s-0.9-0.4-2.4-1.2c-0.4-0.2-0.8-0.4-1.3-0.7c-0.5-0.2-1-0.3-1.6-0.5   c-1.2-0.3-2.5-0.9-4.1-1.2c-1.6-0.3-3.3-0.9-5.3-1.1c-2-0.3-4.1-0.7-6.5-0.8c-2.4-0.3-5-0.5-7.7-0.6c-2.8-0.2-5.8-0.3-9-0.3   c-6.7-0.2-13.9-0.1-21.4,0c-8.1,0.2-16.4,0.4-24.2,0.6C315.3,341.1,301.8,341.6,301.8,341.6z"/>
	<path style="fill:#324A5E;" d="M293.3,355.6c0,0,3.8-0.4,10.3-0.9c6.1-0.4,14.3-1,23.3-1.2c16-0.5,33.8-0.1,48.4,1.8   c6.4,0.8,12.2,1.9,17.2,3.3c2.4,0.5,4.5,1.4,6.5,2.1c1.9,0.6,3.6,1.6,5.1,2.3c1.5,0.6,2.7,1.7,3.7,2.4c0.5,0.4,1,0.7,1.4,1   c0.4,0.4,0.7,0.8,1,1.1c1.2,1.3,1.9,2,1.9,2s-0.8-0.5-2.3-1.4c-0.4-0.2-0.7-0.5-1.2-0.8c-0.5-0.2-1-0.4-1.6-0.7   c-1.2-0.5-2.4-1.2-4-1.6s-3.2-1.2-5.2-1.5c-2-0.4-4.1-1-6.5-1.4c-2.4-0.5-5.1-0.9-7.9-1.2c-2.9-0.4-6-0.8-9.2-1   c-6.9-0.8-14.4-1.2-22.2-1.7c-8.6-0.4-17.3-0.9-25.5-1.3C307.8,356.2,293.3,355.6,293.3,355.6z"/>
	<path style="fill:#324A5E;" d="M201.7,330.1c0,0-3-0.9-8.3-2.3c-5.1-1.2-11.9-3-19.8-4.5c-14.1-2.8-30.6-5.1-44.9-5.5   c-6.3-0.2-12.2,0-17.4,0.6c-2.4,0.2-4.8,0.7-6.9,1.1c-2,0.3-3.9,1-5.6,1.5c-1.6,0.4-3.1,1.2-4.3,1.7c-0.6,0.3-1.2,0.5-1.7,0.8   s-0.9,0.6-1.3,0.9c-1.6,1-2.4,1.6-2.4,1.6s0.9-0.3,2.6-1c0.4-0.2,0.9-0.4,1.4-0.6c0.5-0.1,1.1-0.3,1.7-0.4c1.2-0.3,2.6-0.7,4.2-0.9   c1.6-0.2,3.4-0.6,5.4-0.7s4.2-0.4,6.6-0.4c2.4-0.1,5-0.1,7.7,0c2.8,0,5.8,0.2,8.9,0.4c6.6,0.3,13.7,1,21,1.6   c7.9,0.8,15.9,1.7,23.4,2.5C188.8,328.7,201.7,330.1,201.7,330.1z"/>
	<path style="fill:#324A5E;" d="M203.2,341.6c0,0-3.4-0.7-9.2-1.6c-5.5-0.8-12.9-2-21.3-2.8c-14.9-1.6-31.9-2.5-46.1-1.8   c-6.3,0.3-12.1,0.9-17.1,1.9c-2.4,0.3-4.6,1-6.6,1.5c-2,0.4-3.7,1.3-5.3,1.8c-1.6,0.5-2.8,1.4-4,2c-0.6,0.3-1.1,0.6-1.5,0.9   s-0.8,0.7-1.2,0.9c-1.4,1.1-2.1,1.8-2.1,1.8s0.9-0.4,2.4-1.2c0.4-0.2,0.8-0.4,1.3-0.7c0.5-0.2,1-0.3,1.6-0.5   c1.2-0.3,2.5-0.9,4.1-1.2c1.6-0.3,3.3-0.9,5.3-1.1c2-0.3,4.1-0.7,6.5-0.8c2.4-0.3,5-0.5,7.7-0.6c2.8-0.2,5.8-0.3,9-0.3   c6.7-0.2,13.9-0.1,21.4,0c8.1,0.2,16.4,0.4,24.2,0.6C189.7,341.1,203.2,341.6,203.2,341.6z"/>
	<path style="fill:#324A5E;" d="M211.7,355.6c0,0-3.8-0.4-10.3-0.9c-6.1-0.4-14.3-1-23.3-1.2c-16-0.5-33.8-0.1-48.4,1.8   c-6.4,0.8-12.2,1.9-17.2,3.3c-2.4,0.5-4.5,1.4-6.5,2.1c-1.9,0.6-3.6,1.6-5.1,2.3c-1.5,0.6-2.7,1.7-3.7,2.4c-0.5,0.4-1,0.7-1.4,1   c-0.4,0.4-0.7,0.8-1,1.1c-1.2,1.3-1.9,2-1.9,2s0.8-0.5,2.3-1.4c0.4-0.2,0.7-0.5,1.2-0.8c0.5-0.2,1-0.4,1.6-0.7   c1.2-0.5,2.4-1.2,4-1.6s3.2-1.2,5.2-1.5c2-0.4,4.1-1,6.5-1.4c2.4-0.5,5.1-0.9,7.9-1.2c2.9-0.4,6-0.8,9.2-1   c6.9-0.8,14.4-1.2,22.2-1.7c8.6-0.4,17.3-0.9,25.5-1.3C197.2,356.2,211.7,355.6,211.7,355.6z"/>
</g>
<g>
</g>
<g>
</g>
<g>
</g>
<g>
</g>
<g>
</g>
<g>
</g>
<g>
</g>
<g>
</g>
<g>
</g>
<g>
</g>
<g>
</g>
<g>
</g>
<g>
</g>
<g>
</g>
<g>
</g>
</svg>
