<?xml version="1.0" encoding="iso-8859-1"?>
<!-- Generator: Adobe Illustrator 19.0.0, SVG Export Plug-In . SVG Version: 6.00 Build 0)  -->
<svg xmlns="http://www.w3.org/2000/svg" xmlns:xlink="http://www.w3.org/1999/xlink" version="1.1" id="Layer_1" x="0px" y="0px" viewBox="0 0 505 505" style="enable-background:new 0 0 505 505;" xml:space="preserve">
<circle style="fill:#FFD05B;" cx="252.5" cy="252.5" r="252.5"/>
<circle style="fill:#FF7058;" cx="389.7" cy="202.8" r="62"/>
<circle style="fill:#F1543F;" cx="377.3" cy="215.2" r="49.6"/>
<circle style="fill:#FF7058;" cx="115.3" cy="202.8" r="62"/>
<circle style="fill:#F1543F;" cx="127.7" cy="215.2" r="49.6"/>
<path style="fill:#FF7058;" d="M375.9,262c0,74-55.2,164.1-123.4,164.1S129.1,336,129.1,262s55.2-103.7,123.4-103.7  S375.9,188,375.9,262z"/>
<path style="fill:#E6E9EE;" d="M353.4,247.9c-3.3-24.2-23.4-43.3-47.7-45.6c-12.3-1.2-23.8,1.9-33.3,7.8c-12.3,7.7-27.5,7.7-39.8,0  c-9.5-5.9-21-9-33.3-7.8c-24.3,2.3-44.4,21.5-47.7,45.6c-3.5,25.7,11.3,48.4,33.2,57.1c0,0,0.1,0,0.1,0.1c6,2.4,8.8,9.5,6.4,15.6  c-3.1,8-4.7,16.7-4.4,25.8c1,33.8,28.6,61.9,62.4,63.5c37.7,1.8,68.8-28.2,68.8-65.5c0-8.4-1.6-16.5-4.5-23.9  c-2.3-6,0.5-13.1,6.5-15.5c0,0,0.1,0,0.1-0.1C342.1,296.3,356.9,273.6,353.4,247.9z"/>
<path style="fill:#ACB3BA;" d="M275.9,346.4c0,18.1-10.5,21.5-23.4,21.5s-23.4-3.4-23.4-21.5s10.5-44,23.4-44  S275.9,328.4,275.9,346.4z"/>
<g>
	
		<ellipse transform="matrix(0.5796 -0.8149 0.8149 0.5796 -178.345 362.6916)" style="fill:#324A5E;" cx="262.348" cy="354.197" rx="11" ry="5.7"/>
	
		<ellipse transform="matrix(0.5796 0.8149 -0.8149 0.5796 390.7319 -48.8577)" style="fill:#324A5E;" cx="242.719" cy="354.268" rx="11" ry="5.7"/>
</g>
<circle style="fill:#FFFFFF;" cx="302.8" cy="259.2" r="28.6"/>
<circle style="fill:#324A5E;" cx="302.8" cy="259.2" r="15.8"/>
<g>
	<circle style="fill:#FFFFFF;" cx="294.8" cy="248.5" r="8"/>
	<circle style="fill:#FFFFFF;" cx="304.8" cy="258.5" r="3.4"/>
	<circle style="fill:#FFFFFF;" cx="202.2" cy="259.2" r="28.6"/>
</g>
<circle style="fill:#324A5E;" cx="202.2" cy="259.2" r="15.8"/>
<g>
	<circle style="fill:#FFFFFF;" cx="194.1" cy="248.5" r="8"/>
	<circle style="fill:#FFFFFF;" cx="204.1" cy="258.5" r="3.4"/>
</g>
<path style="fill:#ACB3BA;" d="M301.2,364c0,19.5-21.8,35.4-48.7,35.4c-26.9,0-48.7-15.9-48.7-35.4c0-2.6,0.4-5.1,1.1-7.6  c4.7,15.9,24.2,27.8,47.6,27.8s42.8-11.9,47.6-27.8C300.8,358.9,301.2,361.4,301.2,364z"/>
<g>
</g>
<g>
</g>
<g>
</g>
<g>
</g>
<g>
</g>
<g>
</g>
<g>
</g>
<g>
</g>
<g>
</g>
<g>
</g>
<g>
</g>
<g>
</g>
<g>
</g>
<g>
</g>
<g>
</g>
</svg>
