<?xml version="1.0" encoding="iso-8859-1"?>
<!-- Generator: Adobe Illustrator 19.0.0, SVG Export Plug-In . SVG Version: 6.00 Build 0)  -->
<svg xmlns="http://www.w3.org/2000/svg" xmlns:xlink="http://www.w3.org/1999/xlink" version="1.1" id="Layer_1" x="0px" y="0px" viewBox="0 0 505 505" style="enable-background:new 0 0 505 505;" xml:space="preserve">
<path style="fill:#84DBFF;" d="M505,252.5c0,75.2-32.9,142.8-85.1,189.1C375.4,481.1,316.7,505,252.5,505s-122.8-23.9-167.4-63.4  C32.9,395.3,0,327.7,0,252.5C0,113,113.1,0,252.5,0C392,0,505,113,505,252.5z"/>
<path style="fill:#FFFFFF;" d="M392,256.7c-0.1,1.3-0.2,2.5-0.3,3.7c-2.2,25.6-12,48.6-26.6,66.9c-14.3,17.9-20.9,41.5-18.3,63.9  c3.6,31.3,7.2,61.6,10.7,91c-32,14.6-67.5,22.8-104.9,22.8s-73-8.1-104.9-22.8c3.4-29.4,7-59.7,10.7-91c2.6-22.4-4-46-18.3-63.9  c-14.6-18.2-24.5-41.2-26.6-66.9c-0.1-1.2-0.2-2.5-0.3-3.7c-2.5-39.2,6.5-81.9,24.5-118.8c19.8-41.4,59.5-67.3,103.3-67.3h23  c43.8,0,83.5,25.9,103.6,67.2C385.5,174.8,394.6,217.5,392,256.7z"/>
<path style="fill:#FFD05B;" d="M290.6,413.8c-18.9,12.6-38.2,20.6-38.2,20.6s-19.3-8.1-38.1-20.6c-19-12.7-38.1-30.2-36.4-49  c0.7-7.7,2.9-14.9,6.4-21.5c11.7-22.5,19.7-45.3,23.1-67.7l8-54.1c9.4,3.3,22.5,5.4,37,5.4c14.6,0,27.7-2.1,37.1-5.4l8,54.1  c3.3,22.4,11.4,45.3,23.1,67.8c3.4,6.6,5.6,13.8,6.4,21.5C328.8,383.5,309.7,401.1,290.6,413.8z"/>
<g>
	<path style="fill:#F9B54C;" d="M290.6,413.8c-18.9,12.6-38.2,20.6-38.2,20.6s-19.3-8.1-38.1-20.6c0.2-0.1,0.4-0.3,0.6-0.4   c22.4-15.8,52.8-15.8,75.2,0C290.3,413.5,290.5,413.6,290.6,413.8z"/>
	<path style="fill:#F9B54C;" d="M279.3,281.6c-3.4,8.4-9,13.2-12.2,10.3c-3.1-2.8-2.3-11.7,1.3-19.4c3.4-7.2,8.3-11,11.2-8.8   C282.6,266,282.5,273.8,279.3,281.6z"/>
	<path style="fill:#F9B54C;" d="M225.7,281.6c3.4,8.4,9,13.2,12.2,10.3c3.1-2.8,2.3-11.7-1.3-19.4c-3.4-7.2-8.3-11-11.2-8.8   C222.4,266,222.5,273.8,225.7,281.6z"/>
</g>
<path style="fill:#324A5E;" d="M204.7,200.8c-2.1-6.3-4.6-12.5-8-17.8c-3.5-5.3-8-9.6-13.3-11.5c-1.3-0.5-2.7-0.8-4-0.6  c-1.6,0.3-3.1,1.4-4.3,2.7c-1.8,2-3.3,4.8-3.3,7.9c0,1.7,0.4,3.3,0.8,4.8c1.1,4.2,2.5,8.3,4.6,11.8s5.1,6.3,8.5,7.3  c4.9,1.3,9.8-1.3,14.3-3.9L204.7,200.8z"/>
<path style="fill:#F9B54C;" d="M187.1,204.5c4.9,0,9-5.9,10.6-14.2c-0.9-1.9-1.7-3.8-2.8-5.5c-3.1-4.8-7.1-8.8-11.7-10.5  c-1.1-0.4-2.3-0.7-3.5-0.5s-2.2,1-3.2,2c-0.4,2.3-0.7,4.7-0.7,7.3C175.8,194.9,180.8,204.5,187.1,204.5z"/>
<ellipse style="fill:#2B3B4E;" cx="185.7" cy="187.9" rx="3.5" ry="9.5"/>
<path style="fill:#324A5E;" d="M300.3,200.8c2.1-6.3,4.6-12.5,8-17.8c3.5-5.3,8-9.6,13.3-11.5c1.3-0.5,2.7-0.8,4-0.6  c1.6,0.3,3.1,1.4,4.3,2.7c1.8,2,3.3,4.8,3.3,7.9c0,1.7-0.4,3.3-0.8,4.8c-1.1,4.2-2.5,8.3-4.6,11.8s-5.1,6.3-8.5,7.3  c-4.9,1.3-9.8-1.3-14.3-3.9L300.3,200.8z"/>
<path style="fill:#F9B54C;" d="M317.9,204.5c-4.9,0-9-5.9-10.6-14.2c0.9-1.9,1.7-3.8,2.8-5.5c3.1-4.8,7.1-8.8,11.7-10.5  c1.1-0.4,2.3-0.7,3.5-0.5s2.2,1,3.2,2c0.4,2.3,0.7,4.7,0.7,7.3C329.2,194.9,324.2,204.5,317.9,204.5z"/>
<ellipse style="fill:#2B3B4E;" cx="319.3" cy="187.9" rx="3.5" ry="9.5"/>
<g>
</g>
<g>
</g>
<g>
</g>
<g>
</g>
<g>
</g>
<g>
</g>
<g>
</g>
<g>
</g>
<g>
</g>
<g>
</g>
<g>
</g>
<g>
</g>
<g>
</g>
<g>
</g>
<g>
</g>
</svg>
