<?xml version="1.0" encoding="iso-8859-1"?>
<!-- Generator: Adobe Illustrator 19.0.0, SVG Export Plug-In . SVG Version: 6.00 Build 0)  -->
<svg xmlns="http://www.w3.org/2000/svg" xmlns:xlink="http://www.w3.org/1999/xlink" version="1.1" id="Layer_1" x="0px" y="0px" viewBox="0 0 505 505" style="enable-background:new 0 0 505 505;" xml:space="preserve">
<circle style="fill:#324A5E;" cx="252.5" cy="252.5" r="252.5"/>
<path style="fill:#F9B54C;" d="M448.3,154.8c-4.3-9.5-9.3-19.7-18.4-24.5c-4.1-2.1-8.8-3-13.4-3.8c3.7,0.5,7.4,0.8,11.1,0.8  c-5.7-3.3-12-5.4-18.4-6.9c-11.1-2.5-22.8-2.9-33.6,0.6c-13.6,4.5-25,15.5-30.2,29.2l39.7,69.1c8.8-0.7,17.7-1.4,26.3-3.7  c8.6-2.4,16.8-6.6,22.8-13.3c4.3-4.8,7.1-10.8,9.4-16.8c3.2-8.7,5.1-18.8,1.2-27.2c-0.7-1.5-1.6-2.9-2.7-4.2  C444,155,446.2,155.3,448.3,154.8z"/>
<path style="fill:#FFD05B;" d="M421.6,170.4c-3-6.5-6.4-13.5-12.7-16.8c-2.8-1.5-6-2-9.2-2.6c2.5,0.3,5.1,0.5,7.6,0.6  c-3.9-2.3-8.2-3.7-12.6-4.7c-7.6-1.7-15.7-2-23.1,0.4c-9.3,3.1-17.2,10.6-20.7,20l27.2,47.4c6.1-0.5,12.2-0.9,18-2.6  c5.9-1.6,11.6-4.5,15.6-9.1c2.9-3.3,4.9-7.4,6.4-11.5c2.2-6,3.5-12.9,0.8-18.6c-0.5-1-1.1-2-1.8-2.9  C418.6,170.6,420.1,170.8,421.6,170.4z"/>
<path style="fill:#F9B54C;" d="M56.7,154.8c4.3-9.5,9.3-19.7,18.4-24.5c4.1-2.1,8.8-3,13.4-3.8c-3.7,0.5-7.4,0.8-11.1,0.8  c5.7-3.3,12-5.4,18.4-6.9c11.1-2.5,22.8-2.9,33.6,0.6c13.6,4.5,25,15.5,30.2,29.2l-39.7,69.3c-8.8-0.7-17.7-1.4-26.3-3.7  c-8.6-2.4-16.8-6.6-22.8-13.3c-4.3-4.8-7.1-10.8-9.4-16.8c-3.2-8.7-5.1-18.8-1.2-27.2c0.7-1.5,1.6-2.9,2.7-4.2  C61,155,58.8,155.3,56.7,154.8z"/>
<path style="fill:#FFD05B;" d="M83.4,170.4c3-6.5,6.4-13.5,12.7-16.8c2.8-1.5,6-2,9.2-2.6c-2.5,0.3-5.1,0.5-7.6,0.6  c3.9-2.3,8.2-3.7,12.6-4.7c7.6-1.7,15.7-2,23.1,0.4c9.3,3.1,17.2,10.6,20.7,20l-27.2,47.4c-6.1-0.5-12.2-0.9-18-2.6  c-5.9-1.6-11.6-4.5-15.6-9.1c-2.9-3.3-4.9-7.4-6.4-11.5c-2.2-6-3.5-12.9-0.8-18.6c0.5-1,1.1-2,1.8-2.9  C86.4,170.6,84.9,170.8,83.4,170.4z"/>
<path style="fill:#F9B54C;" d="M404.1,370.7c-12.8,13.6-58.9,44.8-151.5,45.2h-0.2c-92.6-0.4-138.7-31.6-151.5-45.2  c-59.9-63.8,18.2-153.5,30.8-180.5c24.3-51.9,70.3-84.5,120.6-84.8h0.2c50.3,0.3,96.3,32.9,120.7,84.8  C385.9,217.2,464,306.9,404.1,370.7z"/>
<g>
	<path style="fill:#FFFFFF;" d="M344.8,328.2c-14.5,37.1-31.3,33.3-50.8,25.3s-34.3-17.1-19.8-54.2s52.8-88.1,72.3-80.2   C365.9,227.2,359.3,291.1,344.8,328.2z"/>
	<path style="fill:#FFFFFF;" d="M158.4,328.2c14.5,37.1,31.3,33.3,50.8,25.3s34.3-17.1,19.8-54.2s-52.8-88.1-72.3-80.2   C137.2,227.2,143.9,291.1,158.4,328.2z"/>
</g>
<ellipse style="fill:#E6E9EE;" cx="252.5" cy="364.1" rx="91.9" ry="59.1"/>
<ellipse style="fill:#324A5E;" cx="320.6" cy="288.6" rx="16" ry="16.4"/>
<ellipse style="fill:#FFFFFF;" cx="317.3" cy="281.6" rx="3.8" ry="3.9"/>
<ellipse style="fill:#324A5E;" cx="184.4" cy="288.6" rx="16" ry="16.4"/>
<ellipse style="fill:#FFFFFF;" cx="181.2" cy="281.6" rx="3.8" ry="3.9"/>
<g>
	<path style="fill:#324A5E;" d="M284.9,348.8c-1.5-0.7-3.2,0-3.9,1.5c-4.7,10.5-14.5,17.5-25.6,18.6v-35.6h-5.8v35.6   c-11-1.1-20.9-8.1-25.6-18.6c-0.7-1.5-2.4-2.2-3.9-1.5s-2.1,2.5-1.4,4c6.1,13.5,19.3,22.2,33.8,22.2s27.7-8.7,33.8-22.2   C287,351.3,286.3,349.5,284.9,348.8z"/>
	<ellipse style="fill:#324A5E;" cx="252.5" cy="321.6" rx="37.4" ry="24"/>
</g>
<ellipse style="fill:#FFD05B;" cx="250.1" cy="143.2" rx="11.4" ry="11.7"/>
<ellipse style="fill:#F9B54C;" cx="244.4" cy="149" rx="5.7" ry="5.9"/>
<g>
	<ellipse style="fill:#FFD05B;" cx="207" cy="189.3" rx="9.1" ry="9.3"/>
	<ellipse style="fill:#FFD05B;" cx="286.6" cy="182.7" rx="8.7" ry="8.8"/>
	<ellipse style="fill:#FFD05B;" cx="393.9" cy="289.7" rx="11.8" ry="12.1"/>
</g>
<ellipse style="fill:#F9B54C;" cx="388.4" cy="295.3" rx="6.3" ry="6.5"/>
<g>
	<ellipse style="fill:#FFD05B;" cx="331.3" cy="191" rx="9.7" ry="10"/>
	<ellipse style="fill:#FFD05B;" cx="377.6" cy="341.1" rx="8.7" ry="8.9"/>
	<ellipse style="fill:#FFD05B;" cx="119.6" cy="282.4" rx="14.4" ry="14.8"/>
</g>
<ellipse style="fill:#F9B54C;" cx="110" cy="292.2" rx="4.9" ry="5"/>
<g>
	<ellipse style="fill:#FFD05B;" cx="117.5" cy="328.4" rx="9.8" ry="10"/>
	<ellipse style="fill:#FFD05B;" cx="255.1" cy="221.4" rx="9.6" ry="9.8"/>
</g>
<g>
</g>
<g>
</g>
<g>
</g>
<g>
</g>
<g>
</g>
<g>
</g>
<g>
</g>
<g>
</g>
<g>
</g>
<g>
</g>
<g>
</g>
<g>
</g>
<g>
</g>
<g>
</g>
<g>
</g>
</svg>
