<?xml version="1.0" encoding="iso-8859-1"?>
<!-- Generator: Adobe Illustrator 19.0.0, SVG Export Plug-In . SVG Version: 6.00 Build 0)  -->
<svg xmlns="http://www.w3.org/2000/svg" xmlns:xlink="http://www.w3.org/1999/xlink" version="1.1" id="Layer_1" x="0px" y="0px" viewBox="0 0 505 505" style="enable-background:new 0 0 505 505;" xml:space="preserve">
<circle style="fill:#90DFAA;" cx="252.5" cy="252.5" r="252.5"/>
<path style="fill:#FF7058;" d="M401.2,229.1c29.6-22.1,46.1-55.5,28.6-112.8c-16.7,13-43.3,21.6-71.3,31  c-32.9,11-42.8,52.8-18.2,77.4l0,0C356.6,241,382.6,243,401.2,229.1z"/>
<path style="fill:#F1543F;" d="M384.7,227.9c21.6-16.1,33.5-40.4,20.8-82.1c-12.1,9.5-31.5,15.7-51.9,22.5  c-24,8-31.1,38.4-13.3,56.3l0,0C352.2,236.6,371.1,238,384.7,227.9z"/>
<path style="fill:#FF7058;" d="M103.8,229.1C74.2,207,57.7,173.6,75.2,116.3c16.7,13,43.3,21.6,71.3,31c32.9,11,42.8,52.8,18.2,77.4  l0,0C148.4,241,122.4,243,103.8,229.1z"/>
<path style="fill:#F1543F;" d="M120.3,227.9c-21.6-16.1-33.5-40.4-20.8-82.1c12.1,9.5,31.5,15.7,51.9,22.5c24,8,31.1,38.4,13.3,56.3  l0,0C152.8,236.6,133.9,238,120.3,227.9z"/>
<path style="fill:#FF7058;" d="M227.1,450.7H278c64.8,0,118.2-52,118.8-116.8c0-0.6,0-1.2,0-1.8c0-40.9-12.7-84.7-33.8-120.7  c-21-35.8-60-57.2-101.6-57.2h-17.7c-41.5,0-80.6,21.4-101.6,57.2c-21.1,36-33.8,79.8-33.8,120.7c0,0.6,0,1.2,0,1.8  C108.9,398.8,162.2,450.7,227.1,450.7z"/>
<path style="fill:#FFD05B;" d="M339,361.1c0,29.8-38.7,64.4-86.5,64.4S166,390.9,166,361.1s38.7-43.5,86.5-43.5S339,331.3,339,361.1  z"/>
<g>
	<circle style="fill:#F9B54C;" cx="282.5" cy="369.3" r="17.1"/>
	<circle style="fill:#F9B54C;" cx="222.5" cy="369.3" r="17.1"/>
</g>
<path style="fill:#FFFFFF;" d="M277,274.3c1.7,13.8,12.5,24.5,24,23.9s19.5-12.3,17.8-26.1c-1.7-13.8-12.5-24.5-24-23.9  C283.3,248.8,275.3,260.5,277,274.3z"/>
<path style="fill:#84DBFF;" d="M280.5,278.1c1.1,9,9.4,15.9,18.4,15.4c9.1-0.5,15.5-8.1,14.4-17.1s-9.4-15.9-18.4-15.4  C285.8,261.5,279.4,269.1,280.5,278.1z"/>
<path style="fill:#2B3B4E;" d="M288.6,277.7c0.6,4.5,4.7,8,9.3,7.8c4.6-0.2,7.8-4.1,7.3-8.6c-0.6-4.5-4.7-8-9.3-7.8  C291.3,269.2,288,273.1,288.6,277.7z"/>
<path style="fill:#FFFFFF;" d="M290.5,267.2c-1.2,2.1-0.1,4.3,2.6,4.9s5.8-0.5,7.1-2.6c1.2-2.1,0.1-4.3-2.6-4.9  S291.7,265.1,290.5,267.2z"/>
<path style="fill:#324A5E;" d="M275.3,239c0,0,3.2-1.4,7.6-2.5c1.1-0.3,2.3-0.5,3.5-0.7c1.2-0.1,2.5-0.4,3.8-0.4  c1.3-0.1,2.6-0.1,3.9,0c1.3,0,2.7,0.3,4,0.5c1.3,0.4,2.7,0.5,4,1s2.7,0.7,3.9,1.3c1.3,0.5,2.5,1,3.7,1.5c1.2,0.6,2.3,1.1,3.4,1.5  c2.2,0.9,3.9,1.9,5.3,2.5s2.2,0.9,2.2,0.9s-0.3-0.8-1.1-2.1c-0.4-0.6-0.8-1.4-1.4-2.3c-0.5-0.9-1.2-1.9-2.1-2.8c-0.9-1-1.8-2-2.9-3  s-2.4-1.9-3.8-2.8c-1.3-1-3-1.6-4.6-2.3c-1.6-0.8-3.5-1-5.2-1.5c-1.8-0.2-3.7-0.5-5.5-0.3c-1.8,0.1-3.6,0.3-5.3,0.9  c-1.7,0.4-3.2,1.2-4.6,1.8c-1.3,0.8-2.6,1.5-3.6,2.4c-2.1,1.6-3.4,3.4-4.3,4.7C275.6,238.2,275.3,239,275.3,239z"/>
<path style="fill:#FFFFFF;" d="M228,274.3c-1.7,13.8-12.5,24.5-24,23.9s-19.5-12.3-17.8-26.1c1.7-13.8,12.5-24.5,24-23.9  C221.7,248.8,229.7,260.5,228,274.3z"/>
<path style="fill:#84DBFF;" d="M224.5,278.1c-1.1,9-9.4,15.9-18.4,15.4c-9.1-0.5-15.5-8.1-14.4-17.1s9.4-15.9,18.4-15.4  C219.2,261.5,225.6,269.1,224.5,278.1z"/>
<path style="fill:#2B3B4E;" d="M216.4,277.7c-0.6,4.5-4.7,8-9.3,7.8s-7.8-4.1-7.3-8.6c0.6-4.5,4.7-8,9.3-7.8  C213.7,269.2,217,273.1,216.4,277.7z"/>
<path style="fill:#FFFFFF;" d="M214.5,267.2c1.2,2.1,0.1,4.3-2.6,4.9c-2.7,0.6-5.8-0.5-7.1-2.6c-1.2-2.1-0.1-4.3,2.6-4.9  S213.3,265.1,214.5,267.2z"/>
<path style="fill:#324A5E;" d="M229.7,239c0,0-3.2-1.4-7.6-2.5c-1.1-0.3-2.3-0.5-3.5-0.7c-1.2-0.1-2.5-0.4-3.8-0.4  c-1.3-0.1-2.6-0.1-3.9,0c-1.3,0-2.7,0.3-4,0.5c-1.3,0.4-2.7,0.5-4,1s-2.7,0.7-3.9,1.3c-1.3,0.5-2.5,1-3.7,1.5  c-1.2,0.6-2.3,1.1-3.4,1.5c-2.2,0.9-3.9,1.9-5.3,2.5c-1.4,0.6-2.2,0.9-2.2,0.9s0.3-0.8,1.1-2.1c0.4-0.6,0.8-1.4,1.4-2.3  c0.5-0.9,1.2-1.9,2.1-2.8c0.9-1,1.8-2,2.9-3c1.1-1,2.4-1.9,3.8-2.8c1.3-1,3-1.6,4.6-2.3c1.6-0.8,3.5-1,5.2-1.5  c1.8-0.2,3.7-0.5,5.5-0.3c1.8,0.1,3.6,0.3,5.3,0.9c1.7,0.4,3.2,1.2,4.6,1.8c1.3,0.8,2.6,1.5,3.6,2.4c2.1,1.6,3.4,3.4,4.3,4.7  C229.4,238.2,229.7,239,229.7,239z"/>
<g>
</g>
<g>
</g>
<g>
</g>
<g>
</g>
<g>
</g>
<g>
</g>
<g>
</g>
<g>
</g>
<g>
</g>
<g>
</g>
<g>
</g>
<g>
</g>
<g>
</g>
<g>
</g>
<g>
</g>
</svg>
