<?xml version="1.0" encoding="iso-8859-1"?>
<!-- Generator: Adobe Illustrator 19.0.0, SVG Export Plug-In . SVG Version: 6.00 Build 0)  -->
<svg xmlns="http://www.w3.org/2000/svg" xmlns:xlink="http://www.w3.org/1999/xlink" version="1.1" id="Layer_1" x="0px" y="0px" viewBox="0 0 505.1 505.1" style="enable-background:new 0 0 505.1 505.1;" xml:space="preserve">
<circle style="fill:#FFD05B;" cx="252.55" cy="252.5" r="252.5"/>
<g>
	<path style="fill:#324A5E;" d="M379.85,143.7c-18.3-12.5-40.7-18.2-62.9-18.2c-22-0.1-43.9,5.1-64.4,13.1v295.1   c3.4-7.7,7.4-15,12.5-21.6c7.9-10.3,18.1-18.6,28.1-26.9c24.9-20.8,49.2-42.4,72.7-64.8c20.6-19.7,41.3-41,50.4-68   C429.45,213.5,413.75,166.8,379.85,143.7z"/>
	<path style="fill:#324A5E;" d="M125.25,143.7c18.3-12.5,40.7-18.2,62.9-18.2c22-0.1,43.9,5.1,64.4,13.1v295.1   c-3.4-7.7-7.4-15-12.5-21.6c-7.9-10.3-18.1-18.6-28.1-26.9c-24.9-20.8-49.2-42.4-72.7-64.8c-20.6-19.7-41.3-41-50.4-68   C75.65,213.5,91.35,166.8,125.25,143.7z"/>
</g>
<path style="fill:#ACB3BA;" d="M289.45,375.8c-1.1,5.1-2.2,10.1-3.3,15.1c-8,37.7-14,75.4-10.7,113.1c-7.5,0.7-15.2,1.1-22.9,1.1  c-19,0-37.4-2.1-55.2-6.1c-6.5-41.2-2.3-82.5,3-123.6c0.5-3.7,1-7.5,1.5-11.2c8.3-61.8,17.2-123.7-5.6-185.5  c-0.8-2.3-1.7-4.5-2.6-6.8h108c1,3.2,1.9,6.4,2.7,9.5l0,0C321.35,246.2,303.85,311,289.45,375.8z"/>
<g>
	<path style="fill:#E6E9EE;" d="M336.95,146.1c0,20-43.7,42.8-68.2,54c-10.2,4.7-22.3,4.7-32.5,0c-24.5-11.2-68.2-33.9-68.2-54   c0-27.9,37.8-40,84.4-40S336.95,118.2,336.95,146.1z"/>
	<path style="fill:#E6E9EE;" d="M336.95,146.1c0,18.6-37.5,39.5-62.5,51.4c-2,0.9-3.9,1.8-5.7,2.6c-10.2,4.7-22.3,4.7-32.5,0   c-1.8-0.8-3.7-1.7-5.7-2.6c-25-11.9-62.5-32.8-62.5-51.4c0-18.9,17.4-30.5,43.1-36.1c12.2-2.6,26.3-3.9,41.3-3.9   c15,0,29.1,1.3,41.3,3.9C319.55,115.6,336.95,127.2,336.95,146.1z"/>
</g>
<g>
	<path style="fill:#CED5E0;" d="M274.45,197.5c-2,0.9-3.9,1.8-5.7,2.6c-10.2,4.7-22.3,4.7-32.5,0c-1.8-0.8-3.7-1.7-5.7-2.6   c0.5-2.4,1.7-4.6,3.4-6.3c2.2-2.2,5.3-3.6,8.7-3.6h19.6C268.35,187.6,273.35,191.8,274.45,197.5z"/>
	<path style="fill:#CED5E0;" d="M319.25,171.8c0,0,42.5-50,74.5-16.3c0,0-33.5-42-119.3-48.4c0,0-23.3,55.3,3.9,67.1   C305.55,185.9,319.25,171.8,319.25,171.8z"/>
	<path style="fill:#CED5E0;" d="M185.65,171.8c0,0-42.5-50-74.5-16.3c0,0,33.5-42,119.3-48.4c0,0,23.3,55.3-3.9,67.1   C199.35,185.9,185.65,171.8,185.65,171.8z"/>
</g>
<g>
	<path style="fill:#ACB3BA;" d="M203.55,147.9c-1.6-1-2.1-3-2.5-4.9c-0.3-1.6-0.5-3.3-0.3-4.9c0.4-3.8,3.1-7.3,6.7-8.5   c3.6-1.2,8,0.2,10.1,3.4c0.8,1.2,1.2,2.6,1.6,3.9c2.2,7.7,3.3,15.6,3.1,23.6c-2.2-0.9-4.6-1.8-6.4-3.4c-2-1.8-3.2-4.2-4.9-6.2   s-4.5-3.5-7-2.6"/>
	<path style="fill:#ACB3BA;" d="M301.55,147.9c1.6-1,2.1-3,2.5-4.9c0.3-1.6,0.5-3.3,0.3-4.9c-0.4-3.8-3.1-7.3-6.7-8.5   c-3.6-1.2-8,0.2-10.1,3.4c-0.8,1.2-1.2,2.6-1.6,3.9c-2.2,7.7-3.3,15.6-3.1,23.6c2.3-0.9,4.6-1.8,6.4-3.4c2-1.8,3.2-4.2,4.9-6.2   s4.5-3.5,7-2.6"/>
</g>
<path style="fill:#2B3B4E;" d="M210.85,134.2c-4,0.8-6.9,4.6-7.3,8.7c-0.4,4,1.5,8.1,4.5,10.9c2.9,2.8,6.8,4.4,10.8,5.3  c-0.3-4-0.6-8.1-0.8-12.1c-0.2-2.5-0.4-5.1-1.3-7.4c-0.9-2.3-2.8-4.5-5.2-5.1L210.85,134.2z"/>
<ellipse style="fill:#F1543F;" cx="211.45" cy="145.3" rx="6" ry="10.3"/>
<g>
	<path style="fill:#2B3B4E;" d="M211.15,141.3c0,0,0.4,0.7,0.7,1.4s0.5,1.5,0.5,2.3c-0.1,0.8-0.4,1.6-0.9,2.3s-1.1,1.2-1.1,1.2   s-0.7-0.4-1.2-1.1c-0.5-0.7-0.8-1.7-0.8-2.7c0.1-1,0.6-2,1.3-2.5C210.35,141.5,211.15,141.3,211.15,141.3z"/>
	<path style="fill:#2B3B4E;" d="M294.25,134.2c4,0.8,6.9,4.6,7.3,8.7c0.4,4-1.5,8.1-4.5,10.9c-2.9,2.8-6.8,4.4-10.8,5.3   c0.3-4,0.6-8.1,0.8-12.1c0.2-2.5,0.4-5.1,1.3-7.4c0.9-2.3,2.8-4.5,5.2-5.1L294.25,134.2z"/>
</g>
<ellipse style="fill:#F1543F;" cx="293.65" cy="145.3" rx="6" ry="10.3"/>
<path style="fill:#2B3B4E;" d="M293.95,141.3c0,0-0.4,0.7-0.7,1.4s-0.5,1.5-0.5,2.3c0.1,0.8,0.4,1.6,0.9,2.3s1.1,1.2,1.1,1.2  s0.7-0.4,1.2-1.1c0.5-0.7,0.8-1.7,0.8-2.7c-0.1-1-0.6-2-1.3-2.5C294.75,141.5,293.95,141.3,293.95,141.3z"/>
<g>
</g>
<g>
</g>
<g>
</g>
<g>
</g>
<g>
</g>
<g>
</g>
<g>
</g>
<g>
</g>
<g>
</g>
<g>
</g>
<g>
</g>
<g>
</g>
<g>
</g>
<g>
</g>
<g>
</g>
</svg>
