<?xml version="1.0" encoding="iso-8859-1"?>
<!-- Generator: Adobe Illustrator 19.0.0, SVG Export Plug-In . SVG Version: 6.00 Build 0)  -->
<svg xmlns="http://www.w3.org/2000/svg" xmlns:xlink="http://www.w3.org/1999/xlink" version="1.1" id="Layer_1" x="0px" y="0px" viewBox="0 0 505 505" style="enable-background:new 0 0 505 505;" xml:space="preserve">
<path style="fill:#FD8469;" d="M505,252.5C505,392,392,505,252.5,505S0,392,0,252.5C0,113.1,113,0,252.5,0  c110.1,0,203.7,70.5,238.3,168.7c7.4,21,12.1,43.3,13.7,66.5C504.8,240.9,505,246.7,505,252.5z"/>
<path style="fill:#F1543F;" d="M73.5,430.5c45.7,46,109,74.5,179,74.5s133.3-28.5,179-74.5H73.5z"/>
<path style="fill:#324A5E;" d="M424.2,313.9c-14.2-56.2-61.8-100.3-79.8-115.3c-6.4-12-9.5-25.7-8.9-39.8l0,0  c1.8-42.4-30.3-80.8-75.3-84.7c-51.5-4.5-93,35.3-90.9,82.8l0.1,1.9c0.6,14.1-2.5,27.8-8.9,39.8c-17.9,15-65.6,59.2-79.8,115.3  c0,0,33.1-14.7,53.7-27.9c0,2.7,0.1,5.5,0.3,8.2c4.7,71.3,57.3,125,117.7,125s113-53.7,117.7-125c0.2-2.8,0.3-5.5,0.3-8.2  C391.1,299.2,424.2,313.9,424.2,313.9z"/>
<path style="fill:#FFFFFF;" d="M226.9,372.7h51.2c29.2,0,55.9-17.9,65.5-45.5c3.7-10.7,6.1-22.2,6.9-34.3  c1.9-28.2-5.1-56.1-19.6-78.6c-10.7-16.7-15.9-36.2-15.1-56.5c0.7-16.8-5.4-32.3-15.9-43.9c-10.7-11.7-30.2-4.1-30.2,11.8V144  c0,5.6,4.5,10.1,10.1,10.1l0,0c0.5,2.3,0.7,4.5,0.7,6.7c0,14.2-9.4,28.4-28.1,39.2c-21.7-12.5-30.8-29.6-27.4-46  c5.6,0,10.1-4.5,10.1-10.1V125c0-15.4-18.8-23.5-29.6-12.4c-0.1,0.1-0.2,0.2-0.2,0.2c-11.3,11.8-17.1,27-16.4,43l0.1,1.9  c0.9,20.3-4.3,39.8-15,56.4c-14.5,22.6-21.5,50.5-19.6,78.6c0.7,11,2.8,21.5,5.9,31.4C169.7,353.2,196.6,372.7,226.9,372.7z"/>
<g>
	<circle style="fill:#324A5E;" cx="291.1" cy="137" r="9.1"/>
	<circle style="fill:#324A5E;" cx="215.3" cy="137" r="9.1"/>
</g>
<g>
	<path style="fill:#FFD05B;" d="M279.9,154.2c0,0-16.5-0.9-24-11.2c-1.7-2.4-5.2-2.4-6.9,0c-7.5,10.3-24,11.2-24,11.2   c-3.4,16.4,5.6,33.4,27.4,46l0,0C274.2,187.7,283.3,170.6,279.9,154.2z"/>
	<path style="fill:#FFD05B;" d="M345.3,431.3c0.1-1,0.2-2.1,0.2-3.1c0-24.2-19.6-43.7-43.7-43.7c-24.2,0-43.7,19.6-43.7,43.7   c0,1,0.1,2.1,0.2,3.1H345.3z"/>
	<path style="fill:#FFD05B;" d="M246.8,431.3c0.1-1,0.2-2.1,0.2-3.1c0-24.2-19.6-43.7-43.7-43.7c-24.2,0-43.7,19.6-43.7,43.7   c0,1,0.1,2.1,0.2,3.1H246.8z"/>
</g>
<g>
	<ellipse style="fill:#16212D;" cx="215" cy="136.6" rx="3.1" ry="3.6"/>
	<ellipse style="fill:#16212D;" cx="291.3" cy="136.6" rx="3.1" ry="3.6"/>
</g>
<g>
	<ellipse style="fill:#ACB3BA;" cx="217.8" cy="134.9" rx="1.4" ry="1.8"/>
	<ellipse style="fill:#ACB3BA;" cx="288.5" cy="134.9" rx="1.4" ry="1.8"/>
</g>
<g>
</g>
<g>
</g>
<g>
</g>
<g>
</g>
<g>
</g>
<g>
</g>
<g>
</g>
<g>
</g>
<g>
</g>
<g>
</g>
<g>
</g>
<g>
</g>
<g>
</g>
<g>
</g>
<g>
</g>
</svg>
