<?xml version="1.0" encoding="iso-8859-1"?>
<!-- Generator: Adobe Illustrator 19.0.0, SVG Export Plug-In . SVG Version: 6.00 Build 0)  -->
<svg xmlns="http://www.w3.org/2000/svg" xmlns:xlink="http://www.w3.org/1999/xlink" version="1.1" id="Layer_1" x="0px" y="0px" viewBox="0 0 505 505" style="enable-background:new 0 0 505 505;" xml:space="preserve">
<circle style="fill:#54C0EB;" cx="252.5" cy="252.5" r="252.5"/>
<path style="fill:#E6E9EE;" d="M361.6,140.9c-0.9,12.3-0.7,20.5-0.7,20.5c0.1,0.8,0.1,1.7,0.1,2.5v0.5c0,0.7,0,1.4-0.1,2.1  c0,0.2,0,0.4,0,0.6c-0.1,0.8-0.1,1.6-0.3,2.4c0,0.1,0,0.2,0,0.3c-0.3,1.8-0.7,3.7-1.2,5.7c-0.1,0.2-0.1,0.4-0.1,0.5  c-0.2,0.8-0.4,1.6-0.7,2.4c-0.1,0.2-0.1,0.4-0.2,0.5c-0.6,1.9-1.3,3.9-2.1,5.9c-0.1,0.1-0.1,0.3-0.2,0.4c-0.3,0.8-0.7,1.7-1,2.5  c-0.1,0.2-0.2,0.5-0.3,0.7c-0.4,0.8-0.7,1.6-1.1,2.4c-0.1,0.2-0.2,0.4-0.3,0.6c-0.9,2-1.9,3.9-3,5.9c-0.1,0.2-0.2,0.4-0.3,0.6  c-0.2,0.4-0.4,0.8-0.7,1.3l-0.4,0.7c-0.4,0.8-0.8,1.5-1.3,2.3c-0.2,0.4-0.4,0.7-0.6,1c-1.4,2.4-2.8,4.7-4.2,6.9  c-0.7,1.1-1.5,2.3-2.2,3.4v0.1c-8.8,13.3-17,23.2-17,23.2c9.3,14.4,11.9,29.6,11.5,43.1c-0.4,14.7-4.5,27.4-7.5,35  c-1.9,4.8-3.4,7.5-3.4,7.5c3.6,6.9,6.5,13.4,8.8,19.5c5.2,13.6,7.6,25.3,8.2,35.1c1.8,26.2-8.5,38.9-8.5,38.9  c-8.5,14.2-19,23.8-29.6,30.3c-25.1,15.3-50.8,13.1-50.8,13.1c-0.1,0-51.9,4.5-80.4-43.4c0,0-10.8-13.3-8.4-40.6  c0.7-8.8,2.8-19,7.1-30.7c2.5-6.9,5.7-14.3,9.9-22.2c0,0-9.8-17.8-10.9-40.9c-0.7-13.9,1.8-29.6,11.5-44.6c0,0-8.3-9.8-17-23.2  c0,0,0,0,0-0.1c-2.1-3.3-4.3-6.7-6.4-10.3c-0.2-0.3-0.4-0.7-0.6-1c-0.4-0.8-0.9-1.5-1.3-2.3l-0.4-0.7c-0.2-0.4-0.4-0.8-0.7-1.3  c-0.1-0.2-0.2-0.4-0.3-0.6c-1-1.9-2-3.9-2.9-5.9c-0.1-0.2-0.2-0.4-0.3-0.6c-0.4-0.8-0.7-1.6-1.1-2.4c-0.1-0.2-0.2-0.5-0.3-0.7  c-0.4-0.8-0.7-1.7-1-2.5c-0.1-0.1-0.1-0.3-0.2-0.4c-0.8-2-1.5-3.9-2.1-5.9c-0.1-0.2-0.1-0.4-0.2-0.5c-0.2-0.8-0.5-1.6-0.7-2.4  c-0.1-0.2-0.1-0.4-0.1-0.6c-0.2-0.9-0.5-1.9-0.7-2.8c-0.2-1-0.4-1.9-0.5-2.9c0-0.1,0-0.2,0-0.3c-0.1-0.8-0.2-1.6-0.3-2.4  c0-0.2,0-0.4,0-0.6c0-0.7-0.1-1.4-0.1-2.1v-0.5c0-0.9,0.1-1.7,0.1-2.5c0,0,0.2-7.8-0.7-19.7c-1.4-19-5.3-48.5-16.7-73.3  c0,0,30.9-11.2,58.5,19.6c17.4,19.4,33.5,55.4,39.7,121.3L236,219l1.9,1.6h29.2l2-1.7l11-9.6c5.7-60.6,19.8-95.9,35.6-116.2  c0.2-0.2,0.4-0.5,0.5-0.7c1.2-1.5,2.4-3,3.6-4.3c27.6-30.8,58.5-19.6,58.5-19.6C367,92.8,363,121.9,361.6,140.9z"/>
<path style="fill:#324A5E;" d="M291.6,429.9c-17.4,11.2-39,2.7-39.1,2.6l0,0l0,0l0,0l0,0c-0.1,0.1-21.7,8.6-39.1-2.6  c0,0,10.3,13,39.1,15.4l0,0l0,0l0,0l0,0C281.3,443,291.6,429.9,291.6,429.9z"/>
<g>
	<path style="fill:#CED5E0;" d="M144.2,161.4c-1.1,11,4.3,24.9,11.4,37.8c17.3,10.3,34.1,39.7,34.1,39.7   c5.7-19.4-10.5-79.9-10.5-79.9c13-95.5-52.3-90.7-52.3-90.7C145.3,108.7,144.2,161.4,144.2,161.4z"/>
	<path style="fill:#CED5E0;" d="M360.8,161.4c1.1,11-4.3,24.9-11.4,37.8c-17.3,10.3-34.1,39.7-34.1,39.7   c-5.7-19.4,10.5-79.9,10.5-79.9c-13-95.5,52.3-90.7,52.3-90.7C359.7,108.7,360.8,161.4,360.8,161.4z"/>
	<path style="fill:#CED5E0;" d="M341.4,376.9c-0.7-9.8-3-21.5-8.2-35.1c-2.3-6.1-5.2-12.6-8.8-19.5c0,0,1.2-2.2,2.8-6.1   c1.6-3.9,3.6-9.4,5.3-16c0-2.4-0.2-4.8-0.3-7.1c-0.4-5.3-0.9-10.8-3.3-15.5c-1.5-3-4.5-5.9-7.8-5.1c-2,4.9-5.4,9.3-9.7,12.5   c-2.8,2.1-12.8,6.3-12.8,23.8c0,3.8-0.4,7.6-1.5,11.2c-1.1,3.5-0.9,3.2-3,6.2c2-1.6,3.8-2.2,5.5-2.3c1.2,17.3,23,62.2,3.6,122.3   c10.6-6.5,21.1-16,29.6-30.3C332.9,415.8,343.2,403.1,341.4,376.9z"/>
	<path style="fill:#CED5E0;" d="M163.3,376.9c0.7-9.8,3-21.5,8.2-35.1c2.3-6.1,5.2-12.6,8.8-19.5c0,0-1.2-2.2-2.8-6.1   s-3.6-9.4-5.3-16c0-2.4,0.2-4.8,0.3-7.1c0.4-5.3,0.9-10.8,3.3-15.5c1.5-3,4.5-5.9,7.8-5.1c2,4.9,5.4,9.3,9.7,12.5   c2.8,2.1,12.8,6.3,12.8,23.8c0,3.8,0.4,7.6,1.5,11.2c1.1,3.5,0.9,3.2,3,6.2c-2-1.6-3.8-2.2-5.5-2.3c-1.2,17.3-23,62.2-3.6,122.3   c-10.6-6.5-21.1-16-29.6-30.3C171.8,415.8,161.5,403.1,163.3,376.9z"/>
</g>
<path style="fill:#FFFFFF;" d="M325.4,311.4c0,4.4-0.9,8.5-2.5,11.8c-0.6,0.4-1.2,0.7-1.9,1.1c-6.3,3.2-10.9,1.7-15.1,0.5  c-0.5-0.1-1-0.3-1.5-0.4c-2-3.4-3.2-7.9-3.2-12.9c0-10.6,5.4-19.2,12.1-19.2C320,292.2,325.4,300.8,325.4,311.4z"/>
<path style="fill:#324A5E;" d="M322.7,315.6c0,3.2-0.6,6.1-1.7,8.6c-6.3,3.2-10.9,1.7-15.1,0.5c-1.2-2.5-2-5.7-2-9.1  c0-8.3,4.2-15,9.4-15C318.5,300.7,322.7,307.4,322.7,315.6z"/>
<g>
	<ellipse style="fill:#FFFFFF;" cx="310.7" cy="309.3" rx="2.1" ry="3"/>
	<path style="fill:#FFFFFF;" d="M179.6,311.4c0,4.4,0.9,8.5,2.5,11.8c0.6,0.4,1.2,0.7,1.9,1.1c6.3,3.2,10.9,1.7,15.1,0.5   c0.5-0.1,1-0.3,1.5-0.4c2-3.4,3.2-7.9,3.2-12.9c0-10.6-5.4-19.2-12.1-19.2C185,292.2,179.6,300.8,179.6,311.4z"/>
</g>
<path style="fill:#324A5E;" d="M182.3,315.6c0,3.2,0.6,6.1,1.7,8.6c6.3,3.2,10.9,1.7,15.1,0.5c1.2-2.5,2-5.7,2-9.1  c0-8.3-4.2-15-9.4-15C186.5,300.7,182.3,307.4,182.3,315.6z"/>
<ellipse style="fill:#FFFFFF;" cx="194.3" cy="309.3" rx="2.1" ry="3"/>
<path style="fill:#CED5E0;" d="M278,380.4c8-17.5,10.1-34.9,6.4-50.7c-0.9,13.1-5.3,26.3-12.8,38.8c-1.7,2.9-5.3,4.4-8.5,3.4  c-1.1-0.3-2.3-0.5-3.4-0.5c-1.4,0-2.6,0.3-3.7,0.8c-2.5,1.3-5.5,1.3-8,0c-1.1-0.5-2.3-0.8-3.7-0.8c-0.9,0-1.8,0.1-2.7,0.4  c-3.2,0.8-6.7-0.6-8.4-3.4c-7.4-12.4-11.8-25.5-12.7-38.5c-3.6,15.5-1.7,32.6,6,49.8c0.9,2.1,0.8,4.4-0.2,6.5  c-0.5,1.1-1,2.2-1.4,3.4c-3.4,9.9-0.2,17.9,7,18.1l0,0h40.2l0,0c7.2-0.1,10.4-8.1,7-18.1c-0.3-1-0.7-1.9-1.1-2.8  C277.1,384.6,277.1,382.3,278,380.4z"/>
<path style="fill:#324A5E;" d="M289,386c-9.4,16-21.7,13-21.7,13c-0.4-10.6-14.8-16.4-14.9-16.4l0,0l0,0l0,0l0,0  c-0.1,0-14.5,5.8-14.9,16.4c0,0-12.2,3-21.7-13c0,0-0.7,20.3,36.5,41.1l0,0l0,0l0,0l0,0C289.8,406.3,289,386,289,386z"/>
<g>
	<path style="fill:#FFFFFF;" d="M370,416.4c0,0-4.4-0.2-11-0.7c-3.3-0.3-7.2-0.6-11.3-1.2c-4.1-0.6-8.5-1.2-12.8-2.1   c-2.2-0.4-4.4-0.9-6.5-1.3c-2.2-0.4-4.2-1-6.3-1.5c-2-0.6-3.9-1.3-5.7-2c-1.8-0.7-3.4-1.5-5-2.2c-1.5-0.7-2.8-1.6-4-2.3   c-0.6-0.4-1.1-0.7-1.6-1c-0.5-0.4-0.9-0.7-1.3-1c-1.6-1.2-2.4-1.9-2.4-1.9l0.2-0.3c0,0,1.1,0.4,2.8,1.1c0.9,0.4,1.9,0.8,3.2,1.2   c1.3,0.4,2.6,1,4.2,1.5s3.2,1,5,1.6c1.8,0.5,3.7,1.1,5.6,1.7c2,0.6,3.9,1.3,6,1.9s4.2,1.2,6.3,1.8c4.2,1.1,8.5,2,12.6,2.8   c2,0.4,4,0.7,5.8,1.1c1.9,0.3,3.6,0.6,5.2,0.9c6.5,1.1,10.9,1.6,10.9,1.6L370,416.4z"/>
	<path style="fill:#FFFFFF;" d="M352.6,440.9c0,0-3.6-0.8-8.9-2.4c-2.7-0.8-5.8-1.8-9-3c-3.3-1.2-6.7-2.5-10.2-4   c-1.7-0.7-3.4-1.5-5.1-2.2s-3.3-1.6-4.9-2.4c-1.5-0.9-3-1.8-4.3-2.7c-1.3-1-2.5-1.9-3.6-2.8s-2-1.9-2.8-2.7c-0.8-0.8-1.4-1.6-2-2.3   c-1-1.3-1.6-2.1-1.6-2.1l0.3-0.3c0,0,0.8,0.5,2.2,1.4c0.7,0.4,1.5,1,2.4,1.5c0.9,0.6,2,1.2,3.2,1.9c1.2,0.7,2.5,1.4,3.8,2.2   c1.4,0.7,2.8,1.5,4.3,2.4c1.5,0.8,3,1.8,4.5,2.7c1.6,0.9,3.1,1.8,4.8,2.6c3.3,1.7,6.6,3.3,9.7,4.7c3.1,1.4,6.1,2.7,8.7,3.7   c5.1,2.1,8.6,3.3,8.6,3.3L352.6,440.9z"/>
	<path style="fill:#FFFFFF;" d="M135,416.1c0,0,4.4-0.5,10.9-1.6c1.6-0.3,3.4-0.6,5.2-0.9c1.9-0.4,3.8-0.7,5.8-1.1   c4-0.8,8.3-1.7,12.6-2.8c2.1-0.5,4.2-1.1,6.3-1.8c2.1-0.6,4.1-1.3,6-1.9c2-0.6,3.8-1.2,5.6-1.7c1.8-0.6,3.5-1.1,5-1.6   c1.6-0.5,2.9-1,4.2-1.5c1.3-0.4,2.3-0.9,3.2-1.2c1.8-0.7,2.8-1.1,2.8-1.1l0.2,0.3c0,0-0.8,0.7-2.4,1.9c-0.4,0.3-0.8,0.6-1.3,1   s-1,0.7-1.6,1c-1.2,0.7-2.5,1.6-4,2.3c-1.5,0.7-3.2,1.5-5,2.2s-3.7,1.4-5.7,2c-2,0.5-4.1,1.1-6.3,1.5s-4.3,0.9-6.5,1.3   c-4.4,0.8-8.7,1.5-12.8,2.1s-8,0.9-11.3,1.2c-6.6,0.6-11,0.7-11,0.7L135,416.1z"/>
	<path style="fill:#FFFFFF;" d="M152.3,440.6c0,0,3.5-1.2,8.6-3.3c2.6-1.1,5.5-2.3,8.7-3.7c3.2-1.4,6.5-3,9.7-4.7   c1.6-0.8,3.2-1.7,4.8-2.6c1.5-0.9,3-1.9,4.5-2.7c1.5-0.9,2.9-1.7,4.3-2.4c1.3-0.8,2.6-1.5,3.8-2.2s2.2-1.4,3.2-1.9s1.8-1.1,2.4-1.5   c1.4-0.9,2.2-1.4,2.2-1.4l0.3,0.3c0,0-0.5,0.8-1.6,2.1c-0.5,0.6-1.1,1.5-2,2.3c-0.8,0.8-1.7,1.7-2.8,2.7c-1.1,0.9-2.3,1.8-3.6,2.8   c-1.3,0.9-2.8,1.8-4.3,2.7c-1.6,0.8-3.2,1.7-4.9,2.4c-1.7,0.7-3.4,1.5-5.1,2.2c-3.4,1.5-6.9,2.8-10.2,4s-6.4,2.1-9,3   c-5.3,1.6-8.9,2.4-8.9,2.4L152.3,440.6z"/>
</g>
<path style="fill:#CED5E0;" d="M281.9,254.7c0.4-7.1,3.4-14.3,6.6-21.7c-4.1,4.4-9.1,7.6-14.5,9.6c-2.1,0.8-4.3,1-6.5,0.9  s-4.6,0-6.8-0.5c-2.3-0.5-4.3-1.8-5.6-3.4c-0.9-1.2-1.4-2.5-2.2-3.7c-0.1-0.2-0.2-0.3-0.4-0.5c-0.1,0.2-0.2,0.3-0.4,0.5  c-0.8,1.2-1.3,2.5-2.2,3.7c-1.3,1.6-3.3,2.9-5.6,3.4c-2.2,0.5-4.5,0.4-6.8,0.5c-2.2,0.1-4.4-0.1-6.5-0.9c-5.4-2.1-10.4-5.2-14.5-9.6  c3.1,7.4,6.2,14.7,6.6,21.7c0.3,5.2-0.9,10.1-1.3,14.9c-0.1,0.7-0.1,1.5,0.2,2.2s0.9,1.4,1.6,1.9c4.8,3.4,11.5,1.6,17.3,2.9  c3.2,0.7,6.1,2.5,7.9,4.8c1.3,1.7,2,3.5,3.2,5.2c0.1,0.2,0.3,0.4,0.5,0.6c0.2-0.2,0.4-0.4,0.5-0.6c1.1-1.7,1.9-3.6,3.2-5.2  c1.8-2.3,4.7-4.1,7.9-4.8c5.8-1.3,12.5,0.4,17.3-2.9c0.7-0.5,1.3-1.1,1.6-1.9c0.3-0.7,0.2-1.4,0.2-2.2  C282.7,264.9,281.6,260,281.9,254.7z"/>
<g>
	<path style="fill:#324A5E;" d="M208.7,325.4c0,0-0.1-0.2-0.4-0.6c-0.2-0.4-0.7-0.9-1.1-1.7c-0.9-1.6-1.9-4-2.6-7   c-0.7-3-1.2-6.6-1.8-10.2s-1.3-7.4-3.2-10.5c-0.8-1.6-2-3-3.3-4.2c-1.4-1.2-2.8-2.3-4.4-3.3c-1.5-1-3.1-2.1-4.5-3.2   s-2.7-2.4-3.7-3.6c-2-2.5-2.9-5.2-3-7c-0.1-0.9,0-1.6,0.1-2.1s0.2-0.7,0.2-0.7s0,1.1,0.5,2.7s1.8,3.7,3.9,5.6   c1.1,1,2.3,1.8,3.7,2.7c1.5,0.9,3,1.7,4.7,2.7c1.6,1,3.4,2,5,3.4c1.7,1.4,3.1,3.1,4.2,5.1c1.1,1.9,1.8,4,2.3,6.1   c0.5,2,0.7,4.1,0.9,6c0.3,3.8,0.3,7.3,0.5,10.3c0.2,2.9,0.5,5.4,1,7.1C208.3,324.4,208.7,325.4,208.7,325.4z"/>
	<path style="fill:#324A5E;" d="M296.3,325.4c0,0,0.1-0.2,0.4-0.6c0.2-0.4,0.7-0.9,1.1-1.7c0.9-1.6,1.9-4,2.6-7s1.2-6.6,1.8-10.2   c0.6-3.6,1.3-7.4,3.2-10.5c0.8-1.6,2-3,3.3-4.2c1.4-1.2,2.8-2.3,4.4-3.3c1.5-1,3.1-2.1,4.5-3.2s2.7-2.4,3.7-3.6   c2.1-2.5,2.9-5.2,3-7c0.1-0.9,0-1.6-0.1-2.1s-0.2-0.7-0.2-0.7s0,1.1-0.5,2.7s-1.8,3.7-3.9,5.6c-1.1,1-2.3,1.8-3.7,2.7   c-1.5,0.9-3,1.7-4.7,2.7c-1.6,1-3.4,2-5,3.4c-1.7,1.4-3.1,3.1-4.2,5.1c-1.1,1.9-1.8,4-2.3,6.1c-0.5,2-0.7,4.1-0.9,6   c-0.3,3.8-0.3,7.3-0.5,10.3c-0.2,2.9-0.5,5.4-1,7.1C296.7,324.4,296.3,325.4,296.3,325.4z"/>
</g>
<g>
</g>
<g>
</g>
<g>
</g>
<g>
</g>
<g>
</g>
<g>
</g>
<g>
</g>
<g>
</g>
<g>
</g>
<g>
</g>
<g>
</g>
<g>
</g>
<g>
</g>
<g>
</g>
<g>
</g>
</svg>
