<?xml version="1.0" encoding="iso-8859-1"?>
<!-- Generator: Adobe Illustrator 19.0.0, SVG Export Plug-In . SVG Version: 6.00 Build 0)  -->
<svg xmlns="http://www.w3.org/2000/svg" xmlns:xlink="http://www.w3.org/1999/xlink" version="1.1" id="Layer_1" x="0px" y="0px" viewBox="0 0 505 505" style="enable-background:new 0 0 505 505;" xml:space="preserve">
<circle style="fill:#FD8469;" cx="252.5" cy="252.5" r="252.5"/>
<path style="fill:#2B3B4E;" d="M406.5,165.1c0,11.7-4,23.4-11.4,32.5c-1.6,2-3.3,3.9-4.1,6.2c-0.8,2.3-0.6,4.8-0.6,7.2  c0,7.2-1.5,14.4-4.3,21c-1.1,2.7-2.5,5.3-4.4,7.6c-4.5,5.5-11.6,8.6-18.8,8.9c-0.1,0-0.2,0-0.4,0c4.1-14,6.8-28,2.1-41.5  c-1.9,8.5-5.2,16.7-9.6,24.4c6.6-25.4,7.6-52,3-77.8c-0.2-1.3-0.5-2.7-0.8-4c-0.2-1.1-0.5-2.1-0.7-3.2c2.4-4.1,4.9-8.2,6.5-12.7  c2.6-7.1,3.5-15.8,9.9-19.8c3.9-2.4,9-2.2,13.1-0.4c4.2,1.8,7.6,4.9,10.7,8.4c0.3,0.4,0.6,0.7,0.9,1.1c1.4,1.6,2.6,3.3,3.4,5.3  c0.9,2.1,1.4,4.3,1.8,6.6c0.1,0.6,0.2,1.3,0.3,2c0,0.2,0,0.3,0.1,0.5c0.6,4.5,1.3,8.9,1.9,13.4C405.8,155.5,406.5,160.3,406.5,165.1  z"/>
<path style="fill:#324A5E;" d="M397.7,123c-0.3-0.4-0.6-0.7-0.9-1.1c-3-3.4-6.5-6.6-10.7-8.4s-9.3-2-13.1,0.4  c-6.4,3.9-7.3,12.7-9.9,19.8c-1.6,4.5-4.1,8.6-6.5,12.7c-2.1-9.1-5.2-18.1-10-26.3c1.3-1,2.7-2.1,4-3.1c2.1-1.7,4.2-3.4,6.5-4.8  c5.9-3.7,13-5.5,19.9-4.7s13.5,4.4,17.6,10C395.8,119.2,396.8,121.1,397.7,123z"/>
<path style="fill:#2B3B4E;" d="M98.5,165.1c0,11.7,4,23.4,11.4,32.5c1.6,2,3.3,3.9,4.1,6.2c0.8,2.3,0.6,4.8,0.6,7.2  c0,7.2,1.5,14.4,4.3,21c1.1,2.7,2.5,5.3,4.4,7.6c4.5,5.5,11.6,8.6,18.8,8.9c0.1,0,0.2,0,0.4,0c-4.1-14-6.8-28-2.1-41.5  c1.9,8.5,5.2,16.7,9.6,24.4c-6.6-25.4-7.6-52-3-77.8c0.2-1.3,0.5-2.7,0.8-4c0.2-1.1,0.5-2.1,0.7-3.2c-2.4-4.1-4.9-8.2-6.5-12.7  c-2.6-7.1-3.5-15.8-9.9-19.8c-3.9-2.4-9-2.2-13.1-0.4c-4.2,1.8-7.6,4.9-10.7,8.4c-0.3,0.4-0.6,0.7-0.9,1.1c-1.4,1.6-2.6,3.3-3.4,5.3  c-0.9,2.1-1.4,4.3-1.8,6.6c-0.1,0.6-0.2,1.3-0.3,2c0,0.2,0,0.3-0.1,0.5c-0.6,4.5-1.3,8.9-1.9,13.4C99.2,155.5,98.5,160.3,98.5,165.1  z"/>
<g>
	<path style="fill:#324A5E;" d="M107.3,123c0.3-0.4,0.6-0.7,0.9-1.1c3-3.4,6.5-6.6,10.7-8.4s9.3-2,13.1,0.4   c6.4,3.9,7.3,12.7,9.9,19.8c1.6,4.5,4.1,8.6,6.5,12.7c2.1-9.1,5.2-18.1,10-26.3c-1.3-1-2.7-2.1-4-3.1c-2.1-1.7-4.2-3.4-6.5-4.8   c-5.9-3.7-13-5.5-19.9-4.7c-6.9,0.8-13.5,4.4-17.6,10C109.2,119.2,108.2,121.1,107.3,123z"/>
	<path style="fill:#324A5E;" d="M404.2,137.1c-0.3,0.1-0.6,0.1-1,0.2c0-0.2,0-0.3-0.1-0.5c-0.1-0.6-0.2-1.3-0.3-2   C403.3,135.6,403.7,136.4,404.2,137.1z"/>
	<path style="fill:#324A5E;" d="M386.4,196.1c-0.4-3.5-0.8-7-1.2-10.5c-0.5-4.7-1.1-9.4-1.8-14.1c-1.9-11.7-5.2-23.2-9.8-34.1   c-1.1-2.6-18.5-43.8-53.2-45.5c9.4-4.9,18.8-9.8,28.2-14.7c-20.7,8-45.7,9.1-67.4,3c-9.7-2.8-18.9-6.9-28.7-9.3   c-9.8,2.5-18.9,6.6-28.7,9.3c-21.7,6.1-46.8,5-67.4-3c9.4,4.9,18.8,9.8,28.2,14.7c-32,0-52.1,42.9-53.2,45.5   c-4.6,10.9-7.9,22.4-9.8,34.1c-0.8,4.7-1.3,9.4-1.8,14.1c-0.4,3.5-0.8,7-1.2,10.5c-1,8.8-2,17.6-0.9,26.4c0.7,6.2,2.5,12.3,5.2,18   c0.6,1.2,1.2,2.3,1.8,3.5c0.5,1.5,1,3.1,1.5,4.6c2.9,8.5,6.4,17.1,8.9,25.5c2.9,9.5,4.5,19.3,5.9,29c1.2,8.4,2.1,16.9,0.4,25.2   c-1.7,8.3-6.3,16.6-14.6,22.1c7.6-0.7,15.1-3.5,20.8-7.6c-0.3,2.6-0.5,5.2-0.4,7.8c0.5,12.2,6.8,24.1,16.6,31.4   c2.7,2,5.8,3.7,8.1,6.3c6.2,6.7,6.1,17.9,12.9,23.9c-0.5-3.7-1.1-7.4-1.6-11.1c5.2,12.4,17.5,21.4,30.9,22.6   c-3.6-0.4-5.3-4.6-6.2-8.1c10.6,11.8,26.3,18.8,42.2,18.7c-6.9-1.1-11.2-8.1-13.2-14.8c-0.2-0.7-0.3-1.3-0.5-2   c1.7,0.9,3.3,1.8,4.8,2.9c5,3.5,8.6,7.9,11.2,12.7c2.6-4.8,6.2-9.1,11.2-12.7c1.5-1.1,3.1-2,4.8-2.9c-0.1,0.7-0.3,1.3-0.5,2   c-2,6.7-6.3,13.7-13.2,14.8c15.8,0.1,31.6-6.9,42.2-18.7c-0.9,3.5-2.6,7.7-6.2,8.1c13.3-1.2,25.7-10.2,30.9-22.6   c-0.5,3.7-1.1,7.4-1.6,11.1c6.8-6.1,6.7-17.2,12.9-23.9c2.3-2.5,5.3-4.2,8.1-6.3c9.8-7.3,16.1-19.2,16.6-31.4   c0.1-2.6,0-5.2-0.4-7.8c5.7,4.1,13.2,6.9,20.8,7.6c-8.3-5.5-12.9-13.8-14.6-22.1c-1.7-8.3-0.8-16.8,0.4-25.2c1.4-9.7,3-19.5,5.9-29   c2.5-8.4,6-17,8.9-25.5c0.5-1.5,1-3.1,1.5-4.6c0.6-1.1,1.3-2.3,1.8-3.5c2.7-5.7,4.4-11.8,5.2-18   C388.3,213.7,387.4,204.8,386.4,196.1z"/>
</g>
<path style="fill:#ACB3BA;" d="M333.6,309.8c-0.6-2.7-1.3-5.4-3.7-6.8c-2-6.2-7.3-10.6-12.1-14.9c-4.8-4.3-9.7-9.4-10.4-15.8  c-0.2-1.9,0-3.9,0.2-5.8c1.8-13.6,7.1-26.7,15.2-37.7c1.5-2.1,3.2-4.1,4.4-6.4c1.3-2.4,2-5,2.6-7.6c0.1-0.3,0.2-0.6,0.2-0.9  c2.7-10.7,5-21.8,2.6-32.6c-2.8-12.4-12-22.9-23.5-28.4c-11.5-5.4-25-6.1-37.3-2.8c-6.3,1.6-12.9,4.3-19.4,4.3s-13.1-2.7-19.4-4.3  c-12.3-3.2-25.8-2.6-37.3,2.8c-11.5,5.5-20.7,16-23.5,28.4c-2.4,10.7-0.1,21.9,2.6,32.6c0.1,0.3,0.2,0.6,0.2,0.9  c0.6,2.6,1.4,5.2,2.6,7.6c1.2,2.3,2.9,4.3,4.4,6.4c8.1,11,13.4,24.1,15.2,37.7c0.3,1.9,0.5,3.9,0.2,5.8c-0.7,6.4-5.6,11.5-10.4,15.8  c-4.8,4.3-10.1,8.7-12.1,14.9c-2.4,1.4-3.1,4.1-3.7,6.8c-1.4,6.7,0.9,13.5,3.3,19.8c4.7,12.2,10.4,24.1,17,35.5  c1.8,3.1,3.6,6.2,6,8.9c3.1,3.6,7,6.4,10.8,9.3c3.9,2.9,7.9,5.8,11.9,8.7c2.3,1.7,4.6,3.4,7.3,4.4c2.4,0.9,5,1.3,7.6,1.6  c5.7,0.7,11.5,1.1,17.2,1.3c5.8-0.2,11.5-0.6,17.2-1.3c2.6-0.3,5.2-0.7,7.6-1.6c2.7-1,5-2.7,7.3-4.4c4-2.9,7.9-5.8,11.9-8.7  c3.8-2.8,7.7-5.7,10.8-9.3c2.3-2.7,4.2-5.8,6-8.9c6.6-11.4,12.3-23.3,17-35.5C332.7,323.3,335,316.4,333.6,309.8z"/>
<path style="fill:#324A5E;" d="M294.7,259.9c-2.1-6.8-6.6-12.6-12-17.2c-3.3-2.9-7.1-5.4-11.3-6.6c-4.3-1.1-9.1-0.8-12.7,1.8  c-2.7,1.9-4.4,4.7-6.2,7.4c-1.9-2.7-3.6-5.6-6.2-7.4c-3.6-2.6-8.4-3-12.7-1.8s-8,3.7-11.3,6.6c-5.4,4.6-9.9,10.5-12,17.2  c-2.1,6.8-1.3,14.6,2.9,20.3c4.2,5.7,12.2,8.6,18.8,6c1.3-0.5,2.5-1.2,3.9-1.3c2.7-0.2,5,1.9,7.3,3.3c2.8,1.7,6.1,2.2,9.3,1.9  c3.2,0.3,6.5-0.2,9.3-1.9c2.3-1.4,4.6-3.5,7.3-3.3c1.4,0.1,2.6,0.8,3.9,1.3c6.6,2.6,14.6-0.3,18.8-6  C296,274.5,296.8,266.7,294.7,259.9z"/>
<g>
	<path style="fill:#2B3B4E;" d="M277.2,270.1c0.6,1.3,1.9,2.2,2.3,3.6c0.5,1.6-0.7,3.5-2.3,3.8c-1.2,0.2-2.5-0.3-3.6,0.1   c-1.9,0.6-2.5,3.3-4.4,4.1c-1.5,0.7-3.2-0.1-4.9-0.2c-1.7-0.1-3.3,0.7-5,0.6c-2.7-0.1-5.1-2.6-5.2-5.3c0-0.9,0.2-1.8,0.9-2.4   c0.5-0.4,1.1-0.6,1.7-0.8c1.9-0.7,3.6-2,5.2-3.3c2.7-2.1,5.5-4.3,7.6-7.1c0.4-0.6,0.8-1.2,1.4-1.6c0.4-0.3,0.9-0.5,1.3-0.6   c1-0.3,2-0.5,3-0.6s2.1,0,2.6,0.8c0.3,0.5,0.3,1.1,0.2,1.7C277.6,265.4,276.2,267.8,277.2,270.1z"/>
	<path style="fill:#2B3B4E;" d="M313.1,201.5c0,0-3.9,5.5-12.2,8.7c-3.2,1.2-7.1,2.1-11.7,2.2c-5.1,0.1-11.2-0.9-18.1-3.5   c0,0,5.2-9,13.6-13.7c4.2-2.4,9.3-3.6,15-2.1C303.9,194.1,308.4,196.7,313.1,201.5z"/>
</g>
<path style="fill:#FFD05B;" d="M304.4,202.1c0,3.2-1.4,6.1-3.5,8.1c-3.2,1.2-7.1,2.1-11.7,2.2c-4.1-1.6-6.9-5.6-6.9-10.3  c0-2.6,0.9-5,2.4-6.9c4.2-2.4,9.3-3.6,15-2.1C302.6,195,304.4,198.3,304.4,202.1z"/>
<g>
	<ellipse style="fill:#2B3B4E;" cx="293.2" cy="200.9" rx="2.6" ry="3.9"/>
	<path style="fill:#2B3B4E;" d="M227.8,270.1c-0.6,1.3-1.9,2.2-2.3,3.6c-0.5,1.6,0.7,3.5,2.3,3.8c1.2,0.2,2.5-0.3,3.6,0.1   c1.9,0.6,2.5,3.3,4.4,4.1c1.5,0.7,3.2-0.1,4.9-0.2s3.3,0.7,5,0.6c2.7-0.1,5.1-2.6,5.2-5.3c0-0.9-0.2-1.8-0.9-2.4   c-0.5-0.4-1.1-0.6-1.7-0.8c-1.9-0.7-3.6-2-5.2-3.3c-2.7-2.1-5.5-4.3-7.6-7.1c-0.4-0.6-0.8-1.2-1.4-1.6c-0.4-0.3-0.9-0.5-1.3-0.6   c-1-0.3-2-0.5-3-0.6s-2.1,0-2.6,0.8c-0.3,0.5-0.3,1.1-0.2,1.7C227.4,265.4,228.8,267.8,227.8,270.1z"/>
	<path style="fill:#2B3B4E;" d="M191.9,201.5c0,0,3.9,5.5,12.2,8.7c3.2,1.2,7.1,2.1,11.7,2.2c5.1,0.1,11.2-0.9,18.1-3.5   c0,0-5.2-9-13.6-13.7c-4.2-2.4-9.3-3.6-15-2.1C201.1,194.1,196.6,196.7,191.9,201.5z"/>
</g>
<path style="fill:#FFD05B;" d="M200.6,202.1c0,3.2,1.4,6.1,3.5,8.1c3.2,1.2,7.1,2.1,11.7,2.2c4.1-1.6,6.9-5.6,6.9-10.3  c0-2.6-0.9-5-2.4-6.9c-4.2-2.4-9.3-3.6-15-2.1C202.4,195,200.6,198.3,200.6,202.1z"/>
<path style="fill:#324A5E;" d="M252.5,339.7c-5.6,1.2-34.1,6.6-56.8,2.1c0,0,4.8,13.7,56.8,10.3c52.1,3.4,56.8-10.3,56.8-10.3  C286.6,346.3,258.1,340.8,252.5,339.7z"/>
<path style="fill:#E6E9EE;" d="M332.7,181.3c-2.8-12.4-12-22.9-23.5-28.4c-11.5-5.4-25-6.1-37.3-2.8c-6.3,1.6-12.9,4.3-19.4,4.3  s-13.1-2.7-19.4-4.3c-12.3-3.2-25.8-2.6-37.3,2.8c-11.5,5.5-20.7,16-23.5,28.4c-2.4,10.7-0.1,21.9,2.6,32.6c0.1,0.3,0.2,0.6,0.2,0.9  c-0.1-2.9-0.2-5.8-0.2-8.7c0-5.4,0.2-11,3.1-15.5c2.1-3.3,5.3-5.6,8.4-7.8c3.4-2.4,6.9-4.9,10.8-6.6c3.8-1.6,7.8-2.4,11.8-3  c14.7-1.9,29.8,0,43.5,5.4c13.8-5.4,28.9-7.3,43.5-5.4c4,0.5,8.1,1.4,11.8,3c3.9,1.7,7.3,4.1,10.8,6.6c3.1,2.2,6.4,4.6,8.4,7.8  c2.9,4.5,3.1,10.2,3.1,15.5c0,2.9-0.1,5.8-0.2,8.7c0.1-0.3,0.2-0.6,0.2-0.9C332.8,203.2,335.1,192,332.7,181.3z"/>
<ellipse style="fill:#2B3B4E;" cx="211.9" cy="200.9" rx="2.6" ry="3.9"/>
<g>
	<path style="fill:#324A5E;" d="M313.1,201.5c0,0-0.7-0.5-1.8-1.2c-1.2-0.8-2.8-1.8-4.9-2.9c-1-0.5-2.2-1.1-3.4-1.5   c-1.2-0.5-2.6-0.9-3.8-1.1c-1.5-0.3-2.7-0.4-4.2-0.4c-1.4,0-2.8,0.2-4.2,0.6c-1.4,0.3-2.8,0.8-4.1,1.4c-1.3,0.6-2.7,1.4-3.8,2.1   c-2.4,1.5-4.5,3.3-6.2,4.9c-3.5,3.2-5.6,5.7-5.6,5.7s1-3.2,3.9-7.2c1.5-2,3.4-4.2,5.9-6.2c1.3-1,2.5-1.9,4.1-2.7   c1.5-0.8,3.1-1.4,4.8-1.8c1.7-0.4,3.5-0.6,5.2-0.5c1.7,0,3.5,0.4,4.9,0.8c3.2,1,5.7,2.6,7.6,4.2c1.9,1.6,3.3,3.1,4.2,4.2   C312.7,200.8,313.1,201.5,313.1,201.5z"/>
	<path style="fill:#324A5E;" d="M191.9,201.5c0,0,0.4-0.7,1.3-1.8c0.9-1.1,2.2-2.7,4.2-4.2c1.9-1.6,4.4-3.2,7.6-4.2   c1.4-0.4,3.3-0.8,4.9-0.8c1.7,0,3.5,0.1,5.2,0.5s3.3,1.1,4.8,1.8c1.6,0.8,2.8,1.7,4.1,2.7c2.5,2,4.4,4.2,5.9,6.2   c2.9,4,3.9,7.2,3.9,7.2s-2.2-2.5-5.6-5.7c-1.7-1.6-3.8-3.3-6.2-4.9c-1.1-0.7-2.5-1.5-3.8-2.1s-2.7-1.1-4.1-1.4   c-1.4-0.4-2.8-0.6-4.2-0.6c-1.5,0-2.7,0.1-4.2,0.4c-1.2,0.3-2.6,0.7-3.8,1.1c-1.2,0.5-2.3,1-3.4,1.5c-2,1.1-3.7,2.2-4.9,2.9   C192.5,201.1,191.9,201.5,191.9,201.5z"/>
</g>
<g>
</g>
<g>
</g>
<g>
</g>
<g>
</g>
<g>
</g>
<g>
</g>
<g>
</g>
<g>
</g>
<g>
</g>
<g>
</g>
<g>
</g>
<g>
</g>
<g>
</g>
<g>
</g>
<g>
</g>
</svg>
