<?xml version="1.0" encoding="iso-8859-1"?>
<!-- Generator: Adobe Illustrator 19.0.0, SVG Export Plug-In . SVG Version: 6.00 Build 0)  -->
<svg xmlns="http://www.w3.org/2000/svg" xmlns:xlink="http://www.w3.org/1999/xlink" version="1.1" id="Layer_1" x="0px" y="0px" viewBox="0 0 505.1 505.1" style="enable-background:new 0 0 505.1 505.1;" xml:space="preserve">
<path style="fill:#84DBFF;" d="M252.5,0.05C113,0.05,0,113.05,0,252.55c0,51.8,15.6,99.9,42.3,139.9c0.8-0.4,1.9-0.4,2.6,0.7  c45.8,74.1,136.4,109.9,220.6,110.4c0.8,0,1.4,0.5,1.7,1c132.6-7.6,237.9-117.5,237.9-252C505,113.05,391.9,0.05,252.5,0.05z"/>
<g>
	<path style="fill:#324A5E;" d="M329.7,115.95c-2,0.7-3.9,1.4-5.8,2.1c-3.9,1.5-7.8,3-11.6,4.6c-2.4,1-4.8,2-7.2,3   c-3.4,1.4-6.7,2.9-10.1,4.3c-3.8,1.6-7.7,3.2-11.5,4.8c-9.9,3.9-19.9,7.5-30.3,9.9c-41.5,9.7-86.4,1.3-126.6,15.4   c-25.1,8.8-46.9,26.3-61,48.8c-2,3.1-3.7,6.4-5.4,9.6c-1.9,3.8-3.7,7.7-5.2,11.6s-3,8-4.3,12.1c-0.4,1.3-0.9,2.7-1.3,4.1   c-0.4,1.4-0.8,2.8-1.2,4.1c-0.7,2.7-1.5,5.5-2.2,8.3c-1.9,7.6-3.4,15.3-4.9,23c-0.3,1.7-0.6,3.4-0.9,5.1c-2.2,12-4.3,24-6.9,35.7   c-0.6,2.8-1.3,5.6-2,8.4c-0.4,1.4-0.7,2.8-1.1,4.1c-0.4,1.4-0.7,2.8-1.1,4.1c-0.4,1.3-0.8,2.7-1.2,4.1c-0.4,1.4-0.9,2.7-1.3,4.1   c-1.1,3.4-2.3,6.7-3.7,10.1c5.6,12.2,12.1,23.9,19.5,34.9c0.1,0.2,0.3,0.3,0.4,0.5c1.5-1.2,3.8-1.3,5,0.9   c9.5,17.3,24.9,30.3,39,43.6c16.3,15.5,35.1,25.5,52.8,38.8c0.2,0.2,0.4,0.4,0.5,0.6c15.7-0.8,31.2-2.8,45.6-9   c19.5-8.5,36.3-26.8,36.3-48.1l-29.6-50.7c-5.4-9.2-10.8-18.7-12.5-29.2c-0.7-4.3-0.7-8.6-0.2-12.8c1.5-12.9,7.7-25.4,14.6-36.8   c17.4-28.9,39.1-54.8,60.6-80.7c1.2-1.4,2.3-2.7,3.5-4.1c7.5-8.8,15.2-17.6,24.3-24.7c6.2-4.9,13-9,19.9-12.7   c2.2-1.2,4.3-2.3,6.5-3.4c2.2-1.1,4.4-2.3,6.6-3.4c0.9-0.5,1.9-0.9,2.9-1.4c0,0,0,0,0.1,0c29.9-15,59.8-30.1,89.8-45.1   c0.3-0.2,0.7-0.4,1-0.5C384.8,102.35,355.4,106.85,329.7,115.95z"/>
	<path style="fill:#324A5E;" d="M408.4,114.65c-29.9,15-59.9,30.1-89.8,45.1c-1,0.5-1.9,1-2.9,1.5c-4.4,2.2-8.8,4.4-13.1,6.7   c-10.4,2.7-20.4,6.4-29.8,11.6c-9.3,5.1-17.8,11.7-26.8,17.4c-7.1,4.5-14.4,8.5-22.4,10.8c-5.2,1.5-10.8,2.2-15.9,0.4   c-5.1-1.8-9.3-6.8-8.9-12.2c0.5-6.1,6.3-10.2,11.7-13.2c9.7-5.3,19.9-9.6,30-13.9c6-2.5,11.9-5,17.9-7.6c21-8.8,42-17.6,63.1-26.4   c8-3.3,16.1-6.7,24.2-10c8.1-3.4,16.3-6.7,25-8.5C383,113.85,395.7,114.65,408.4,114.65z"/>
</g>
<path style="fill:#2B3B4E;" d="M409.4,114.15c-0.3,0.2-0.7,0.3-1,0.5c-12.7,0-25.4-0.8-37.8,1.7c-8.6,1.8-16.8,5.1-25,8.5  c-29.1,12-58.2,24.1-87.2,36.3c1.1-0.6,2.1-1.3,3.1-2.1c8.8-6.6,13.4-17.5,21.9-24.4c15.4-6.1,30.6-13.3,46.2-18.8  C355.4,106.85,384.7,102.35,409.4,114.15z"/>
<g>
	<path style="fill:#FFFFFF;" d="M271.4,504.35c-6.2,0.5-12.5,0.7-18.9,0.7c-41.8,0-81.2-10.1-115.9-28.2   c-38.2-19.7-70.7-49-94.5-84.6c-7.4-11-13.9-22.7-19.5-34.9c1.3-3.3,2.6-6.7,3.7-10.1c0.4-1.3,0.9-2.7,1.3-4.1   c0.4-1.3,0.8-2.7,1.2-4.1c0.4-1.4,0.8-2.8,1.1-4.1c0.4-1.4,0.7-2.8,1.1-4.1c0.7-2.8,1.3-5.6,2-8.4c2.6-11.8,4.7-23.8,6.9-35.7   c0.3-1.7,0.6-3.4,0.9-5.1c1.5-7.7,3-15.4,4.9-23c0.7-2.8,1.4-5.6,2.2-8.3c0.4-1.4,0.8-2.8,1.2-4.1s0.8-2.7,1.3-4.1   c1.3-4.1,2.8-8.1,4.3-12.1c1.6-4,3.4-7.9,5.2-11.6c2.4-1.3,4.9-2.6,7.3-3.8c4-2.2,8.2-4.3,12.7-5c4.6-0.7,9.7,0.5,12.7,3.9   c2.5,3,3.1,7.1,3.3,11c1.4,21.7-4.3,44.9,5.8,64.1c3.6,6.9,9.1,12.9,15.8,17c5.2,3.2,11.1,5.3,16.9,7.3c8.1,2.8,16.2,5.6,24.3,8.4   c3.9,1.3,7.7,2.8,11.7,3.7c3,0.7,6,1.3,9,1.7c-0.5,4.2-0.5,8.5,0.2,12.8c1.6,10.5,7.1,20,12.5,29.2c9.6,16.5,21.1,32.9,29.7,49.9   c0.1,0.2,0.2,0.4,0.3,0.6c6.8,13.6,10.7,26.5,20.6,38.8c9.3,11.6,19.7,22.7,25.6,36.4C269.7,497.75,270.7,500.95,271.4,504.35z"/>
	<path style="fill:#FFFFFF;" d="M271.8,155.55c-4.3,1.8-9.1,3.8-13.4,5.6c-6,2.5-12,5-17.9,7.6c-10.2,4.3-20.3,8.6-30,13.9   c-5.4,2.9-11.2,7.1-11.7,13.2c-0.4,5.4,3.8,10.3,8.9,12.2c5.1,1.8,10.7,1.1,15.9-0.4c8.1-2.3,15.4-6.3,22.4-10.8   c8.9-5.7,17.5-12.2,26.8-17.4c2.2-1.2,4.5-2.4,6.7-3.4c7.8-5.3,16.6-9.6,24.5-14.5c10.4-6.5,25.2-17.9,30.9-29.2   c-0.2-0.3-3.1,1.2-3.3,1C311,139.25,292.5,148.85,271.8,155.55z"/>
</g>
<path style="fill:#324A5E;" d="M154.4,331.55c-0.2,1.3-0.7,2.5-1.4,3.6c-4.2,7-11.2,11.9-18,16.5c-11.6,7.9-23.3,15.9-36.5,20.8  c-7.5,2.8-15.3,4.6-23,6.9c-7.3,2.2-14.4,5.1-21.5,7.9c-4,1.6-8,3.2-11.8,5.1c-7.4-11-13.9-22.7-19.5-34.9c1.3-3.3,2.6-6.7,3.7-10.1  c0.4-1.3,0.9-2.7,1.3-4.1c0.4-1.3,0.8-2.7,1.2-4.1c0.4-1.4,0.8-2.8,1.1-4.1c0.4-1.4,0.7-2.8,1.1-4.1c0.7-2.8,1.3-5.6,2-8.4  c2.6-11.8,4.7-23.8,6.9-35.7c0.3-1.7,0.6-3.4,0.9-5.1c1.5-7.7,3-15.4,4.9-23c0.7-2.8,1.4-5.6,2.2-8.3c0.4-1.4,0.8-2.8,1.2-4.1  s0.8-2.7,1.3-4.1c1.5,3.6,3.1,7.3,4.6,10.8c1.4,3.3,2.8,6.6,4.6,9.8c6.2,11,16.1,19.5,25.9,27.5c10.4,8.7,21,17.5,33.3,23.2  c8.3,3.9,17.2,6.3,25.9,9C149.4,323.95,154.9,326.85,154.4,331.55z"/>
<path style="fill:#F9B54C;" d="M150.8,191.05c-0.1,0.7-0.3,1.3-0.3,2c0,6.1,5,11.1,11.1,11.1s11.1-5,11.1-11.1  c0-1.7-0.4-3.3-1.1-4.8C163.1,185.75,154.6,189.15,150.8,191.05z"/>
<circle style="fill:#324A5E;" cx="161.7" cy="193.15" r="3.4"/>
<path style="fill:#ACB3BA;" d="M140,200.15c2.2-0.4,3.2-0.2,5.3,0.7s4.1,2.1,6.1,3.1c3.7,1.8,7.8,2.8,11.9,2.5c4.1-0.3,8.1-2,10.9-5  c2.7-3,4.3-7.2,7.9-9c-2.7,1.4-5.2,3.4-7.1,5.8c-0.9,1.1-1.8,2.4-2.9,3.2c-1.1,0.8-2.3,1.2-3.6,1.6c-4,1.2-8.5,2.2-12.4,0.6  c-1.3-0.5-2.4-1.3-3.5-2c-2.4-1.6-4.7-3.3-7-5.1c2.3-1.6,4.6-3.2,6.9-4.8c1.1-0.8,2.3-1.6,3.6-2.1c1.1-0.5,2.3-0.7,3.5-0.9  c4.2-0.6,8.6-0.2,12.8,0.8c3.3,0.8,6.6,2.1,10,1.7c-4.1-0.4-7.8-2.9-11.7-4.3c-4.6-1.6-9.6-1.7-14.2-0.3c-2.5,0.8-4.8,2-7.1,3.2  c-1.5,0.8-3,1.6-4.3,2.6c-3.8,2.8-6.4,7-8.8,11.1c0.9-0.9,1.7-1.7,2.6-2.6L140,200.15z"/>
<path style="fill:#CED5E0;" d="M285.2,150.75c0,0,97.3-41.4,121.8-35.9C407,114.95,385.7,98.15,285.2,150.75z"/>
<g>
</g>
<g>
</g>
<g>
</g>
<g>
</g>
<g>
</g>
<g>
</g>
<g>
</g>
<g>
</g>
<g>
</g>
<g>
</g>
<g>
</g>
<g>
</g>
<g>
</g>
<g>
</g>
<g>
</g>
</svg>
