<?xml version="1.0" encoding="iso-8859-1"?>
<!-- Generator: Adobe Illustrator 19.0.0, SVG Export Plug-In . SVG Version: 6.00 Build 0)  -->
<svg xmlns="http://www.w3.org/2000/svg" xmlns:xlink="http://www.w3.org/1999/xlink" version="1.1" id="Layer_1" x="0px" y="0px" viewBox="0 0 505 505" style="enable-background:new 0 0 505 505;" xml:space="preserve">
<circle style="fill:#324A5E;" cx="252.5" cy="252.5" r="252.5"/>
<path style="fill:#CED5E0;" d="M437,164.5l9.5-5.2c-11.5-23-28.6-20.6-28.6-20.6l13.1-5.2c-49.6-28.6-86.2,17.1-86.2,17.1  c3.6-9.1,1.6-15.1,1.6-15.1c-12,9.2-17.9,19.6-20.9,27.8c-8.1,12.2-12.5,26.7-12.5,41.4c0,0.8,0,1.7,0.4,2.4c0.6,1,1.7,1.4,2.8,1.7  c3.2,0.8,6.6,0.5,9.8-0.6l7.6,67.1c7.9,24.6,50.8,15.9,50.8,15.9c-7.1-4.4-5.6-14.3-5.6-14.3s15.5,18.3,38.9,9.5  c23.4-8.7,8.7-27.4,8.7-27.4l13.1,6.4c-5.2-8.3,7.1-20.3,7.1-20.3c13.9-20.6-4-35.3-4-35.3l11.1,2.8  C463.6,171.7,437,164.5,437,164.5z"/>
<path style="fill:#ACB3BA;" d="M431.5,226.4c-1.8-5.1-5.9-9.1-7.2-14.4c1.8,2.4,3.9,4.6,6.2,6.6c0.6-7.1,1.1-14.4,0-21.4  c-1.2-7.1-4.3-14.1-9.9-18.6c-3.8-3-8.7-5-11-9.2h15c-6.9-8.8-18.2-13.9-29.3-13.2c2.3-3.7,4.1-7.6,5.6-11.7  c-17.6-1.2-36.8,3.6-49,16.4c-27.8,29.3-18.4,41.8-21.3,44.7c-1.6,4.3-8.2,4.4-8,8.7c0.2,2.8,16.2,4.6,15.5,7.3  c-0.6,2.3-1.8,4.4-2.6,6.6c-3.4,9.5,1.1,20,6.3,28.6c2.7,4.4,5.5,8.7,8.6,12.9c1.9,2.6,4.3,5.4,7.5,5.8c4,0.5,7.4-2.8,10-5.9  s5.5-6.7,9.5-7c4.2-0.4,7.7,2.9,11.4,5c6.8,3.8,15.1,3.4,22.9,3c1-0.1,2-0.1,2.9-0.6c2.7-1.6,1.5-5.7,1.5-8.8c0-4,2.5-7.6,5.3-10.4  c2.8-2.9,6-5.3,8.2-8.7C432.6,237.4,433.3,231.5,431.5,226.4z"/>
<path style="fill:#CED5E0;" d="M68,164.5l-9.5-5.2c11.5-23,28.6-20.6,28.6-20.6L74,133.5c49.6-28.6,86.2,17.1,86.2,17.1  c-3.6-9.1-1.7-15.1-1.7-15.1c12,9.2,17.9,19.6,20.9,27.8c8.1,12.2,12.5,26.7,12.5,41.4c0,0.8,0,1.7-0.4,2.4c-0.6,1-1.7,1.4-2.8,1.7  c-3.2,0.8-6.6,0.5-9.8-0.6l-7.6,67.1c-7.9,24.6-50.8,15.9-50.8,15.9c7.1-4.4,5.6-14.3,5.6-14.3s-15.5,18.3-38.9,9.5  c-23.4-8.7-8.7-27.4-8.7-27.4l-13.1,6.4c5.2-8.3-7.1-20.3-7.1-20.3c-13.9-20.6,4-35.3,4-35.3l-11.1,2.8  C41.4,171.7,68,164.5,68,164.5z"/>
<path style="fill:#ACB3BA;" d="M73.5,226.4c1.8-5.1,5.9-9.1,7.2-14.4c-1.8,2.4-3.9,4.6-6.2,6.6c-0.6-7.1-1.1-14.4,0-21.4  c1.2-7.1,4.3-14.1,9.9-18.6c3.8-3,8.7-5,11-9.2h-15c6.9-8.8,18.2-13.9,29.3-13.2c-2.3-3.7-4.1-7.6-5.6-11.7  c17.6-1.2,36.8,3.6,49,16.4c27.8,29.3,18.4,41.8,21.3,44.7c1.6,4.3,8.2,4.4,8,8.7c-0.2,2.8-16.2,4.6-15.5,7.3  c0.6,2.3,1.8,4.4,2.6,6.6c3.4,9.5-1.1,20-6.3,28.6c-2.7,4.4-5.5,8.7-8.6,12.9c-1.9,2.6-4.3,5.4-7.5,5.8c-4,0.5-7.4-2.8-10-5.9  s-5.5-6.7-9.5-7c-4.2-0.4-7.7,2.9-11.4,5c-6.8,3.8-15.1,3.4-22.9,3c-1-0.1-2-0.1-2.9-0.6c-2.7-1.6-1.5-5.7-1.5-8.8  c0-4-2.5-7.6-5.3-10.4c-2.8-2.9-6-5.3-8.2-8.7C72.4,237.4,71.7,231.5,73.5,226.4z"/>
<g>
	<path style="fill:#E6E9EE;" d="M371.6,286.3c-0.9-19.8-4.8-39.7-14.2-57.5c-9.4-17.8-24.6-33.5-44.1-42c-14.2-6.2-30-8.3-45.6-10.4   c-5-0.7-10.1-1.3-15.2-1.1c-5.1-0.2-10.2,0.4-15.2,1.1c-15.6,2.1-31.4,4.2-45.6,10.4c-19.5,8.5-34.7,24.1-44.1,42   c-9.4,17.8-13.3,37.7-14.2,57.5c-0.3,7.4-0.3,14.9,1.1,22.2c1.6,8.5,6.1,16.4,8.1,24.8c20.9,84.6,88,76.8,109.9,79.8   c21.8-2.9,89,4.9,109.9-79.8c2.1-8.5,6.6-16.3,8.1-24.8C371.9,301.1,372,293.7,371.6,286.3z"/>
	<path style="fill:#E6E9EE;" d="M370.5,308.5c-0.3,1.4-0.6,2.9-1,4.3c-2,6.9-5.4,13.5-7.1,20.6c-10.9,44.3-34.6,63.3-57.7,71.7   c-21.1,7.7-41.8,6.6-52.2,8c-10.4-1.4-31.1-0.4-52.2-8c-23.2-8.5-46.8-27.4-57.7-71.7c-1.7-7.1-5.1-13.7-7.1-20.6l0,0   c-0.4-1.4-0.8-2.7-1-4.2c-1.3-7.3-1.4-14.8-1.1-22.2c0.9-19.8,4.8-39.7,14.2-57.5s24.6-33.5,44.1-42c14.2-6.2,30-8.3,45.6-10.4   c5-0.7,10.1-1.3,15.2-1.1c5.1-0.2,10.2,0.4,15.2,1.1c15.6,2.1,31.4,4.2,45.6,10.4c19.5,8.5,34.7,24.1,44.1,42   c9.4,17.8,13.3,37.7,14.2,57.5C372,293.7,371.9,301.1,370.5,308.5z"/>
</g>
<g>
	<path style="fill:#CED5E0;" d="M369.5,312.7c-2,6.9-5.4,13.5-7.1,20.6c-10.9,44.3-34.6,63.3-57.7,71.7c-0.8-1.1-1.3-2.4-1.7-4   c-1-5.2,1.6-9.9,3.7-14.1c5.5-11.3,7.3-24.8,8.8-37.7c0.9-7.6,1.6-15.4-0.1-22.7c-1.2-4.8-3.3-9.2-5.3-13.6   c-6.5-14.9-10.4-30.8-11.3-46.2c-0.2-4-0.2-8.2,1.9-11.2c1.5-2,3.7-3.1,6-3.6c11.5-2.6,23.3,6.6,33.6,15.6   c8,6.9,16.4,14.3,21.6,24.7c2.2,4.4,3.8,9.1,5.4,14C368.1,308.3,368.8,310.5,369.5,312.7z"/>
	<path style="fill:#CED5E0;" d="M189.6,326.4c-1.7,7.3-1,15.1-0.1,22.7c1.5,12.9,3.3,26.4,8.8,37.7c2.1,4.2,4.7,8.9,3.7,14.1   c-0.3,1.6-0.9,2.9-1.7,4c-23.2-8.5-46.8-27.4-57.7-71.7c-1.7-7.1-5.1-13.7-7.1-20.6l0,0c0.7-2.2,1.4-4.4,2.1-6.5   c1.6-4.8,3.2-9.5,5.4-14c5.3-10.4,13.7-17.8,21.6-24.7c10.3-8.9,22-18.2,33.6-15.6c2.3,0.5,4.5,1.6,6,3.6c2.1,2.9,2.1,7.2,1.9,11.2   c-0.9,15.4-4.7,31.2-11.3,46.2C193,317.3,190.8,321.6,189.6,326.4z"/>
</g>
<g>
	<circle style="fill:#324A5E;" cx="317.1" cy="276.6" r="13"/>
	<circle style="fill:#324A5E;" cx="187.9" cy="276.6" r="13"/>
</g>
<g>
	<ellipse style="fill:#2B3B4E;" cx="317.1" cy="276.6" rx="1.8" ry="6.5"/>
	<ellipse style="fill:#2B3B4E;" cx="187.9" cy="276.6" rx="1.8" ry="6.5"/>
</g>
<path style="fill:#324A5E;" d="M277.5,317.8c-0.8-1-2.2-1.6-2.7-2.9c-0.8-1.8,0.7-3.8,2-5.4c5.9-7,9.2-16,9.3-25.2  c0-2.6-0.2-5.3-1.1-7.7c-1.4-3.9-4.5-7.1-7.9-9.4c-3.5-2.3-7.4-3.9-11.2-5.4c0,0,0,0-0.1,0c-4-1.6-8.2-2.4-12.5-2.4h-1.5  c-4.3,0-8.5,0.8-12.5,2.4c0,0,0,0-0.1,0c-3.9,1.5-7.8,3.1-11.2,5.4c-3.5,2.3-6.5,5.5-7.9,9.4c-0.9,2.4-1.1,5.1-1.1,7.7  c0.1,9.1,3.5,18.1,9.3,25.2c1.3,1.5,2.8,3.5,2,5.4c-0.5,1.2-1.9,1.8-2.7,2.9c-0.6,0.8-0.8,1.7-1,2.7c-1.1,4.9-1.1,10.2,0.2,15.1  c1.4,4.9,4.2,9.4,8.3,12.4c5,3.7,11.3,4.9,17.5,5.7c6.2-0.8,12.5-2,17.5-5.7c4.1-3,6.9-7.6,8.3-12.4c1.4-4.9,1.3-10.1,0.2-15.1  C278.3,319.6,278,318.6,277.5,317.8z"/>
<g>
	
		<ellipse transform="matrix(0.6443 -0.7648 0.7648 0.6443 -163.7919 322.5062)" style="fill:#2B3B4E;" cx="264.798" cy="337.329" rx="11.7" ry="5.3"/>
	
		<ellipse transform="matrix(0.6443 0.7648 -0.7648 0.6443 343.3967 -63.779)" style="fill:#2B3B4E;" cx="240.261" cy="337.262" rx="11.7" ry="5.3"/>
</g>
<path style="fill:#324A5E;" d="M280.1,357.3c-5.9,8.9-16.1,14.7-27.6,14.7s-21.6-5.8-27.6-14.7c8.1,4.8,17.5,7.5,27.6,7.5  S272,362,280.1,357.3z"/>
<g>
	<circle style="fill:#FFFFFF;" cx="314.9" cy="273.8" r="2.3"/>
	<circle style="fill:#FFFFFF;" cx="189.7" cy="273.8" r="2.3"/>
</g>
<g>
</g>
<g>
</g>
<g>
</g>
<g>
</g>
<g>
</g>
<g>
</g>
<g>
</g>
<g>
</g>
<g>
</g>
<g>
</g>
<g>
</g>
<g>
</g>
<g>
</g>
<g>
</g>
<g>
</g>
</svg>
