<?xml version="1.0" encoding="iso-8859-1"?>
<!-- Generator: Adobe Illustrator 19.0.0, SVG Export Plug-In . SVG Version: 6.00 Build 0)  -->
<svg xmlns="http://www.w3.org/2000/svg" xmlns:xlink="http://www.w3.org/1999/xlink" version="1.1" id="Layer_1" x="0px" y="0px" viewBox="0 0 505 505" style="enable-background:new 0 0 505 505;" xml:space="preserve">
<circle style="fill:#FFD05B;" cx="252.5" cy="252.5" r="252.5"/>
<g>
	<path style="fill:#ACB3BA;" d="M277,406c-0.5,2.5-0.5,5.1-1.1,7.6s-2.2,5-4.7,5.4c-2.5,0.5-5-1.5-6.1-3.9s-1.1-5.2-1.2-7.8   c0-3.7,0-7.5-0.1-11.2c0-2.7,0-5.4,0.5-8c0.3-1.6,0.8-3.2,1.3-4.8c1.1-3.5,2.2-6.9,3.6-10.3c0.6-1.4,1.8-3.2,3.2-2.5   c0.4,0.2,0.7,0.6,1,1c1.6,2.2,3.3,4.4,4.4,6.8c2.1,4.6,2.4,9.8,2.6,14.8c0.1,1.9,0.2,3.9-0.5,5.6c-0.4,1.1-1.1,2.1-1.7,3.2   C277.8,403.2,277.3,404.6,277,406z"/>
	<path style="fill:#ACB3BA;" d="M447.2,188.7c0-6.7-0.1-13.6-1.9-20.1c-1.1-3.9-2.7-7.7-4.1-11.5c-1.6-1.5-3.2-3-4.7-4.4   c-5.3-4.8-10.6-9.6-16-14.4c-5.5-5-11.1-10.1-17.6-13.8c-3.1-1.8-6.4-3.3-9.6-4.7c-10.5-4.7-21.1-9.4-32.3-11.9   c-11.3-2.4-22.9-2.5-34.4-2.5c-12.7,0-26.5,0.3-36.9,7.1c6.7,2.7,13,6.2,18.8,10.4c2.6,1.9,5.3,4,6.9,6.8   c4.4,7.6,0.4,17.1-3.1,25.2c-1.5,3.5-3,7.8-1,11.1c0.9,1.5,2.3,2.5,3.4,3.8c2.3,2.7,3.1,6.5,3.8,10c1.1,5.7,2.2,11.7,0.6,17.3   c-0.6,2.1-1.6,4-2.4,6.1s-1.4,4.3-2.1,6.4c-2.4,6.8-6.6,12.8-10.1,19.1s-6.3,13.4-5.5,20.6c0.5,3.9,2,7.5,3.4,11.1   c1.8,4.3,3.5,8.5,5.3,12.8c-6.1,6.5-11.6,13.5-16.6,20.9c-0.3-1.6-0.6-3.2-0.9-4.8c-5.1,3.4-5.7,9.5-6.7,15.5   c0.6,0.3,1.3,0.5,2,0.7c9,3,18.9,1.6,28.2-0.2c9.2-1.8,18.3-3.9,27.3-6.3c4.9-1.3,10-2.9,13.8-6.2c2.8-2.4,4.7-5.7,7.2-8.5   c9-10.5,23.6-14.7,33.2-24.7c-4.7-0.4,8.1-5.2,18.3-9.9c10.3-4.7,19.6-12.3,24.2-22.6c4.3-9.6,4.1-20.5,7.2-30.6   c0.8-2.5,1.7-5,2.4-7.5C447.3,189,447.2,188.9,447.2,188.7z"/>
</g>
<path style="fill:#FFFFFF;" d="M330.1,338.9c-13-9.5-29-25.3-36.6-48.4c3.2-4.5,6.6-8.9,10.2-13c0.2,0.5,13.6,34.2,30.6,57.1  C336.5,337.4,333,341,330.1,338.9z"/>
<path style="fill:#E6E9EE;" d="M319.1,197c-0.6,2.1-1.6,4-2.4,6.1s-1.4,4.3-2.1,6.4c-2.4,6.8-6.6,12.8-10.1,19.1  c-2.6,4.7-4.8,9.8-5.4,15.1c-0.2,1.8-0.2,3.7,0,5.5c0.5,3.9,2,7.5,3.4,11.1c1.8,4.3,3.5,8.5,5.3,12.8c-1.3,1.4-2.6,2.8-3.8,4.3  c-3.6,4.2-7,8.5-10.2,13c-0.9,1.2-1.7,2.4-2.5,3.7c-0.3-1.6-0.6-3.2-0.9-4.8c-5.8,3.9-5.8,11.4-7.1,18.3c-0.6,3.3-9.7,51.2-9.7,51.2  c-0.7,9.8-1.9,19.6-3.6,29.3c-0.4,2.4-0.9,4.8-1.2,7.3c-0.8,6.6-0.3,13.3,1.4,19.6c0.2,0.6,0.4,1.3,0.8,1.8c0.5,0.5,1.3,0.6,1.7,0.1  c1.8-2.4,3-5.4,3.4-8.4c0.7-0.3,1,0.9,0.9,1.7c-0.4,2.2-0.8,4.4-1.1,6.5c-0.3,1.9-0.7,3.8-1.5,5.5c-0.6,1.2-1.3,2.2-1.9,3.4  c-0.7,1.5-1,3.3-1.8,4.8c-1.5,3.1-4.6,5.1-7.9,5.9c-3.2,0.8-6.6,0.7-10,0.4c-1.5-0.1-3-0.2-4.4-0.8c-2.3-1-4-3.2-5-5.6  s-1.3-5-1.6-7.6c-0.7-5.5-1.4-11.1-2.2-16.6c-0.4-3.4-0.9-6.8-0.6-10.2c0.3-3.6,1.4-7.1,1.2-10.7c-0.1-1.8-0.5-3.6-0.9-5.3  c-1.4-6.9-1.5-14.1-1.6-21.1h-0.2c-1-14.2-2.2-28.3-6.9-41.7c-1.1-3.1-2.4-6.2-3-9.5c-1.3-6.9-1.3-14.4-7.1-18.3  c-0.3,1.6-0.6,3.2-0.9,4.8c-0.8-1.2-1.7-2.4-2.5-3.7c-3.2-4.5-6.6-8.9-10.2-13c-1.2-1.4-2.5-2.9-3.8-4.3c1.8-4.3,3.5-8.5,5.3-12.8  c1.5-3.6,3-7.3,3.4-11.1c0.2-1.8,0.2-3.7,0-5.5c-0.6-5.3-2.8-10.4-5.4-15.1c-3.5-6.3-7.7-12.3-10.1-19.1c-0.7-2.1-1.3-4.3-2.1-6.4  c-0.8-2-1.8-4-2.4-6.1c-1.7-5.6-0.6-11.6,0.6-17.3c0.4-1.9,0.8-3.8,1.4-5.6c0.6-1.6,1.3-3.1,2.4-4.4c1.1-1.3,2.5-2.3,3.4-3.8  c2-3.3,0.6-7.5-1-11.1c-3.5-8.1-7.5-17.6-3.1-25.2c1.6-2.8,4.2-4.9,6.9-6.8c15-10.8,34.6-16.9,53.1-17.4  c18.5,0.5,38.1,6.6,53.1,17.4c2.6,1.9,5.3,4,6.9,6.8c4.4,7.6,0.4,17.1-3.1,25.2c-1.5,3.5-3,7.8-1,11.1c0.9,1.5,2.3,2.5,3.4,3.8  s1.9,2.8,2.4,4.4c0.6,1.8,1,3.8,1.4,5.6C319.6,185.4,320.7,191.4,319.1,197z"/>
<path style="fill:#ACB3BA;" d="M220.5,289.3c-0.3,1.6-0.6,3.2-0.9,4.8c-5-7.4-10.5-14.4-16.6-20.9c1.8-4.3,3.5-8.5,5.3-12.8  c1.5-3.6,3-7.3,3.4-11.1c0.8-7.2-2-14.3-5.5-20.6s-7.7-12.3-10.1-19.1c-0.8-2.1-1.3-4.3-2.1-6.4c-0.8-2-1.8-4-2.4-6.1  c-1.7-5.6-0.6-11.6,0.6-17.3c0.7-3.5,1.5-7.3,3.8-10c1.1-1.3,2.5-2.3,3.4-3.8c2-3.3,0.6-7.5-1-11.1c-3.5-8.1-7.5-17.6-3.1-25.2  c1.6-2.8,4.2-4.9,6.9-6.8c5.8-4.2,12.2-7.7,18.8-10.4c-10.4-6.8-24.2-7.2-36.9-7.1c-11.5,0-23.2,0.1-34.4,2.5s-21.8,7.2-32.3,11.9  c-3.3,1.5-6.5,2.9-9.6,4.7c-6.5,3.7-12.1,8.8-17.6,13.8c-5.3,4.8-10.6,9.6-16,14.4c-3,2.7-6,5.4-8.7,8.4c-0.9,2.3-1.3,5.1-1.6,7.2  c-1,5.5-1.3,11-1.3,16.5c0,0.2-0.1,0.3-0.1,0.5c0.5,3.9,2.1,7.6,3.3,11.4c3.1,10,2.9,21,7.2,30.6c4.6,10.3,13.9,17.9,24.2,22.6  c10.2,4.7,23.1,9.5,18.3,9.9c9.6,10,24.2,14.1,33.2,24.7c2.4,2.8,4.4,6,7.2,8.5c3.8,3.3,8.9,4.9,13.8,6.2c9,2.5,18.2,4.6,27.3,6.3  c9.3,1.8,19.2,3.2,28.2,0.2c0.7-0.2,1.3-0.5,2-0.7C226.2,298.8,225.6,292.7,220.5,289.3z"/>
<path style="fill:#FFFFFF;" d="M180.5,338.9c13-9.5,29-25.3,36.6-48.4c-3.2-4.5-6.6-8.9-10.2-13c-0.2,0.5-13.6,34.2-30.6,57.1  C174.2,337.4,177.7,341,180.5,338.9z"/>
<g>
	<path style="fill:#CED5E0;" d="M191.6,197c0.6,2.1,1.6,4,2.4,6.1c0.8,2.1,1.4,4.3,2.1,6.4c2.4,6.8,6.6,12.8,10.1,19.1   c2.6,4.7,4.8,9.8,5.4,15.1l0,0c1.5-3.2,2.3-6.7,3.1-10.2c0.9-3.8,1.8-7.5,2.6-11.2c1.5-6.2,3-12.7,1.9-19   c-1.2-7.2-5.4-13.4-9.6-19.4c-1.8-2.6-3.7-5.3-6.1-7.3c-2.5-2-5.7-3.4-8.8-2.9c-0.4,0.1-0.9,0.2-1.3,0.3c-0.6,1.8-1,3.8-1.4,5.6   C191.1,185.4,190,191.4,191.6,197z"/>
	<path style="fill:#CED5E0;" d="M319.1,197c-0.6,2.1-1.6,4-2.4,6.1s-1.4,4.3-2.1,6.4c-2.4,6.8-6.6,12.8-10.1,19.1   c-2.6,4.7-4.8,9.8-5.4,15.1l0,0c-1.5-3.2-2.3-6.7-3.1-10.2c-0.9-3.8-1.8-7.5-2.6-11.2c-1.5-6.2-3-12.7-1.9-19   c1.2-7.2,5.4-13.4,9.6-19.4c1.8-2.6,3.7-5.3,6.1-7.3c2.5-2,5.7-3.4,8.8-2.9c0.4,0.1,0.9,0.2,1.3,0.3c0.6,1.8,1,3.8,1.4,5.6   C319.6,185.4,320.7,191.4,319.1,197z"/>
</g>
<path style="fill:#2B3B4E;" d="M313.9,189.3c0,0-0.7,3.4-3.5,5.6c-1.2,0.9-2.8,1.6-4.8,1.6c-1.8,0.1-3.9-0.3-6.4-1.3  C299.2,195.3,307.7,184.4,313.9,189.3z"/>
<path style="fill:#FFFFFF;" d="M310.8,193.2c0,0.6-0.2,1.2-0.4,1.7c-1.2,0.9-2.8,1.6-4.8,1.6c-1.3-0.6-2.2-1.9-2.2-3.4  c0-2,1.7-3.7,3.7-3.7C309.1,189.5,310.8,191.1,310.8,193.2z"/>
<path style="fill:#324A5E;" d="M315.4,180.8c0,0-16.4,4.9-19.4,18.3c0,0,12.6-13.1,18.2-7.9C314.3,191.3,318,186.7,315.4,180.8z"/>
<path style="fill:#2B3B4E;" d="M196.8,189.3c0,0,0.7,3.4,3.5,5.6c1.2,0.9,2.8,1.6,4.8,1.6c1.8,0.1,3.9-0.3,6.4-1.3  C211.5,195.3,203,184.4,196.8,189.3z"/>
<path style="fill:#FFFFFF;" d="M199.9,193.2c0,0.6,0.2,1.2,0.4,1.7c1.2,0.9,2.8,1.6,4.8,1.6c1.3-0.6,2.2-1.9,2.2-3.4  c0-2-1.7-3.7-3.7-3.7C201.5,189.5,199.9,191.1,199.9,193.2z"/>
<path style="fill:#324A5E;" d="M195.2,180.8c0,0,16.4,4.9,19.4,18.3c0,0-12.6-13.1-18.2-7.9C196.4,191.3,192.7,186.7,195.2,180.8z"/>
<g>
	<path style="fill:#CED5E0;" d="M285.3,207.4c0,0-0.2-0.2-0.6-0.5c-0.2-0.1-0.4-0.3-0.7-0.5c-0.3-0.2-0.6-0.4-1-0.7   c-0.7-0.5-1.6-1-2.7-1.6s-2.3-1.1-3.7-1.7c-1.4-0.5-2.9-1-4.6-1.5c-1.6-0.5-3.4-0.8-5.2-1.2c-1.8-0.3-3.7-0.5-5.7-0.7   c-1.9-0.2-3.9-0.2-5.8-0.2c-2.1,0-4,0.1-5.9,0.3s-3.8,0.4-5.7,0.7c-1.8,0.4-3.6,0.7-5.2,1.2c-1.6,0.4-3.2,1-4.6,1.5   c-1.4,0.6-2.6,1.1-3.7,1.7c-1.1,0.6-2,1.1-2.7,1.6c-0.4,0.2-0.7,0.5-1,0.7s-0.5,0.4-0.7,0.5c-0.4,0.3-0.6,0.5-0.6,0.5   s0.2-0.2,0.4-0.6c0.3-0.4,0.7-1,1.3-1.6c0.6-0.7,1.4-1.4,2.4-2.2s2.2-1.6,3.6-2.4c0.7-0.4,1.4-0.8,2.2-1.1s1.6-0.7,2.4-1   c1.7-0.7,3.5-1.2,5.4-1.7c1.9-0.4,3.9-0.9,6-1.1c1-0.1,2.1-0.2,3.1-0.3c1.1-0.1,2-0.1,3.1-0.1c2.2,0.1,4.2,0.1,6.3,0.4   c2.1,0.2,4,0.6,6,1.1c1.9,0.5,3.7,1,5.4,1.7c1.7,0.6,3.2,1.4,4.6,2.2s2.6,1.6,3.6,2.4c1,0.8,1.8,1.6,2.4,2.2   c0.6,0.7,1.1,1.2,1.3,1.6C285.2,207.2,285.3,207.4,285.3,207.4z"/>
	<path style="fill:#CED5E0;" d="M276.9,293.1c0,0-0.1-0.1-0.4-0.3c-0.1-0.1-0.3-0.2-0.5-0.4c-0.2-0.1-0.4-0.3-0.7-0.5   c-0.5-0.3-1.2-0.7-2-1.1s-1.7-0.8-2.7-1.2c-1-0.4-2.1-0.7-3.3-1.1c-1.2-0.3-2.4-0.6-3.7-0.8c-1.3-0.2-2.7-0.4-4.1-0.5   s-2.8-0.2-4.2-0.2c-1.5,0-2.9,0.1-4.2,0.2c-1.4,0.1-2.8,0.3-4.1,0.5c-1.3,0.3-2.6,0.5-3.7,0.8c-1.2,0.3-2.3,0.7-3.3,1.1   s-1.9,0.8-2.7,1.2c-0.8,0.4-1.4,0.8-2,1.1c-0.3,0.2-0.5,0.3-0.7,0.5s-0.4,0.3-0.5,0.4c-0.3,0.2-0.4,0.3-0.4,0.3s0.1-0.1,0.3-0.4   s0.5-0.7,1-1.2c0.4-0.5,1-1,1.7-1.6s1.6-1.2,2.6-1.7c0.5-0.3,1-0.5,1.6-0.8c0.6-0.2,1.1-0.5,1.7-0.7c1.2-0.5,2.5-0.9,3.9-1.2   c1.4-0.3,2.8-0.6,4.3-0.8c0.7-0.1,1.5-0.2,2.2-0.2c0.8-0.1,1.5,0,2.2-0.1c1.6,0,3,0.1,4.5,0.3c1.5,0.1,2.9,0.5,4.3,0.8   s2.7,0.8,3.9,1.2c1.2,0.5,2.3,1,3.3,1.6s1.8,1.1,2.6,1.7c0.7,0.6,1.3,1.1,1.8,1.6s0.8,0.9,1,1.2C276.8,293,276.9,293.1,276.9,293.1   z"/>
	<path style="fill:#CED5E0;" d="M275.2,313.6c0,0-0.1-0.1-0.4-0.3c-0.1-0.1-0.3-0.2-0.5-0.4c-0.2-0.1-0.4-0.3-0.6-0.4   c-0.5-0.3-1.1-0.7-1.8-1.1c-0.7-0.4-1.5-0.7-2.5-1.1c-0.9-0.3-1.9-0.7-3-1s-2.2-0.5-3.4-0.8c-1.2-0.2-2.5-0.4-3.7-0.5   c-1.3-0.1-2.6-0.2-3.9-0.2c-1.4,0-2.6,0.1-3.9,0.2c-1.3,0.1-2.5,0.3-3.7,0.5s-2.4,0.5-3.4,0.8c-1.1,0.3-2.1,0.6-3,1   s-1.7,0.7-2.5,1.1c-0.7,0.4-1.3,0.7-1.8,1.1c-0.2,0.2-0.5,0.3-0.6,0.4c-0.2,0.1-0.3,0.3-0.5,0.4c-0.3,0.2-0.4,0.3-0.4,0.3   s0.1-0.1,0.3-0.4s0.5-0.6,0.9-1.1c0.4-0.4,0.9-1,1.6-1.5c0.7-0.5,1.5-1.1,2.4-1.6c0.5-0.3,0.9-0.5,1.4-0.8c0.5-0.2,1-0.5,1.6-0.7   c1.1-0.5,2.3-0.8,3.6-1.1c1.3-0.3,2.6-0.6,4-0.7c0.7-0.1,1.4-0.1,2.1-0.2c0.7,0,1.4,0,2-0.1c1.4,0,2.8,0.1,4.2,0.3   c1.4,0.1,2.7,0.4,4,0.7c1.3,0.3,2.5,0.7,3.6,1.1s2.1,0.9,3,1.4s1.7,1.1,2.4,1.6c0.7,0.5,1.2,1,1.6,1.5c0.4,0.4,0.7,0.8,0.9,1.1   C275.1,313.5,275.2,313.6,275.2,313.6z"/>
	<path style="fill:#CED5E0;" d="M271.2,333.7c0,0-0.1-0.1-0.3-0.2c-0.1-0.1-0.2-0.2-0.4-0.3c-0.1-0.1-0.3-0.2-0.5-0.4   c-0.4-0.3-0.9-0.5-1.4-0.8c-0.6-0.3-1.2-0.6-2-0.9c-0.7-0.3-1.5-0.5-2.4-0.8s-1.8-0.4-2.8-0.6s-2-0.3-3-0.4s-2.1-0.1-3.1-0.1   c-1.1,0-2.1,0-3.1,0.1s-2,0.2-3,0.4c-1,0.2-1.9,0.4-2.7,0.6c-0.9,0.2-1.7,0.5-2.4,0.8s-1.4,0.6-2,0.9s-1.1,0.6-1.4,0.8   c-0.2,0.1-0.4,0.2-0.5,0.4c-0.1,0.1-0.3,0.2-0.4,0.3c-0.2,0.2-0.3,0.2-0.3,0.2s0.1-0.1,0.2-0.3c0.1-0.2,0.4-0.5,0.7-0.9   c0.3-0.3,0.8-0.8,1.3-1.2c0.5-0.4,1.2-0.9,1.9-1.3c0.4-0.2,0.7-0.4,1.1-0.6c0.4-0.2,0.8-0.4,1.3-0.5c0.9-0.4,1.8-0.7,2.9-0.9   c1-0.2,2.1-0.5,3.2-0.6c0.5-0.1,1.1-0.1,1.7-0.1s1.1,0,1.6-0.1c1.1,0,2.2,0.1,3.3,0.2c1.1,0.1,2.1,0.3,3.2,0.6c1,0.3,2,0.6,2.9,0.9   s1.7,0.7,2.4,1.2c0.7,0.4,1.4,0.8,1.9,1.3c0.5,0.4,1,0.8,1.3,1.2c0.3,0.4,0.6,0.6,0.7,0.9C271.1,333.6,271.2,333.7,271.2,333.7z"/>
	<path style="fill:#CED5E0;" d="M271.2,356.4c0,0-0.1-0.1-0.3-0.2c-0.1-0.1-0.2-0.2-0.4-0.3c-0.1-0.1-0.3-0.2-0.5-0.4   c-0.4-0.3-0.9-0.5-1.4-0.8c-0.6-0.3-1.2-0.6-2-0.9c-0.7-0.3-1.5-0.5-2.4-0.8s-1.8-0.4-2.8-0.6s-2-0.3-3-0.4s-2.1-0.1-3.1-0.1   c-1.1,0-2.1,0-3.1,0.1s-2,0.2-3,0.4c-1,0.2-1.9,0.4-2.7,0.6c-0.9,0.2-1.7,0.5-2.4,0.8s-1.4,0.6-2,0.9s-1.1,0.6-1.4,0.8   c-0.2,0.1-0.4,0.2-0.5,0.4c-0.1,0.1-0.3,0.2-0.4,0.3c-0.2,0.2-0.3,0.2-0.3,0.2s0.1-0.1,0.2-0.3c0.1-0.2,0.4-0.5,0.7-0.9   c0.3-0.3,0.8-0.8,1.3-1.2c0.5-0.4,1.2-0.9,1.9-1.3c0.4-0.2,0.7-0.4,1.1-0.6c0.4-0.2,0.8-0.4,1.3-0.5c0.9-0.4,1.8-0.7,2.9-0.9   c1-0.2,2.1-0.5,3.2-0.6c0.5-0.1,1.1-0.1,1.7-0.1s1.1,0,1.6-0.1c1.1,0,2.2,0.1,3.3,0.2c1.1,0.1,2.1,0.3,3.2,0.6c1,0.3,2,0.6,2.9,0.9   s1.7,0.7,2.4,1.1c0.7,0.4,1.4,0.8,1.9,1.3c0.5,0.4,1,0.8,1.3,1.2c0.3,0.4,0.6,0.6,0.7,0.9C271.1,356.3,271.2,356.4,271.2,356.4z"/>
	<path style="fill:#CED5E0;" d="M267.7,377.3c0,0-0.1-0.1-0.2-0.2s-0.2-0.1-0.3-0.2c-0.1-0.1-0.3-0.2-0.4-0.3   c-0.3-0.2-0.7-0.4-1.1-0.7c-0.4-0.2-1-0.5-1.5-0.7c-0.6-0.2-1.2-0.4-1.9-0.6c-0.7-0.2-1.4-0.3-2.1-0.5c-0.7-0.1-1.5-0.2-2.3-0.3   c-0.8-0.1-1.6-0.1-2.4-0.1c-0.9,0-1.6,0-2.4,0.1c-0.8,0.1-1.6,0.2-2.3,0.3c-0.7,0.1-1.5,0.3-2.1,0.5c-0.7,0.2-1.3,0.4-1.9,0.6   c-0.6,0.2-1.1,0.4-1.5,0.7c-0.4,0.2-0.8,0.5-1.1,0.7c-0.2,0.1-0.3,0.2-0.4,0.3c-0.1,0.1-0.2,0.2-0.3,0.2c-0.2,0.1-0.2,0.2-0.2,0.2   s0.1-0.1,0.2-0.2c0.1-0.2,0.3-0.4,0.6-0.7c0.3-0.3,0.6-0.6,1-0.9s0.9-0.7,1.5-1c0.3-0.2,0.6-0.3,0.9-0.5c0.3-0.1,0.6-0.3,1-0.4   c0.7-0.3,1.4-0.5,2.2-0.7s1.6-0.4,2.5-0.4c0.4-0.1,0.9-0.1,1.3-0.1s0.8,0,1.3,0c0.9,0,1.7,0.1,2.6,0.2c0.8,0.1,1.7,0.3,2.5,0.4   c0.8,0.2,1.5,0.4,2.2,0.7c0.7,0.3,1.3,0.6,1.9,0.9s1.1,0.7,1.5,1s0.7,0.6,1,0.9s0.4,0.5,0.6,0.7   C267.6,377.2,267.7,377.3,267.7,377.3z"/>
	<path style="fill:#CED5E0;" d="M263.1,389.6c0,0-0.1,0-0.2-0.1c0,0-0.1-0.1-0.2-0.1c-0.1-0.1-0.2-0.1-0.3-0.2   c-0.2-0.1-0.4-0.3-0.7-0.4c-0.3-0.1-0.6-0.3-1-0.4s-0.8-0.3-1.2-0.4c-0.4-0.1-0.9-0.2-1.3-0.3c-0.5-0.1-1-0.1-1.5-0.2   s-1-0.1-1.5-0.1s-1,0-1.5,0.1c-0.5,0-1,0.1-1.5,0.2s-0.9,0.2-1.3,0.3c-0.4,0.1-0.8,0.2-1.2,0.4c-0.4,0.1-0.7,0.3-1,0.4   s-0.5,0.3-0.7,0.4c-0.1,0.1-0.2,0.1-0.3,0.2s-0.1,0.1-0.2,0.1c-0.1,0.1-0.2,0.1-0.2,0.1s0-0.1,0.1-0.2s0.2-0.2,0.3-0.4   c0.2-0.2,0.4-0.4,0.6-0.6c0.3-0.2,0.6-0.4,0.9-0.6c0.2-0.1,0.4-0.2,0.6-0.3c0.2-0.1,0.4-0.2,0.6-0.3c0.4-0.2,0.9-0.3,1.4-0.4   s1-0.2,1.5-0.3c0.3,0,0.5-0.1,0.8-0.1s0.5,0,0.8,0c0.6,0,1.1,0,1.6,0.1s1,0.2,1.5,0.3c0.5,0.1,1,0.3,1.4,0.4   c0.4,0.2,0.8,0.4,1.2,0.6c0.4,0.2,0.7,0.4,0.9,0.6c0.3,0.2,0.5,0.4,0.6,0.6c0.2,0.2,0.3,0.3,0.3,0.4   C263.1,389.5,263.1,389.6,263.1,389.6z"/>
	<path style="fill:#CED5E0;" d="M267.4,408.5c0,0-0.1-0.1-0.2-0.2s-0.2-0.1-0.3-0.2c-0.1-0.1-0.2-0.2-0.4-0.3   c-0.3-0.2-0.7-0.4-1.1-0.6s-0.9-0.4-1.5-0.7c-0.6-0.2-1.2-0.4-1.8-0.6c-0.7-0.2-1.4-0.3-2.1-0.5c-0.7-0.1-1.5-0.2-2.3-0.3   c-0.8-0.1-1.6-0.1-2.4-0.1s-1.6,0-2.4,0.1c-0.8,0.1-1.5,0.2-2.3,0.3c-0.7,0.1-1.4,0.3-2.1,0.5c-0.7,0.2-1.3,0.4-1.8,0.6   c-0.6,0.2-1.1,0.4-1.5,0.7c-0.4,0.2-0.8,0.4-1.1,0.6c-0.1,0.1-0.3,0.2-0.4,0.3c-0.1,0.1-0.2,0.2-0.3,0.2c-0.2,0.1-0.2,0.2-0.2,0.2   s0.1-0.1,0.2-0.2c0.1-0.2,0.3-0.4,0.5-0.7c0.3-0.3,0.6-0.6,1-0.9s0.9-0.6,1.4-1c0.3-0.2,0.6-0.3,0.9-0.5c0.3-0.1,0.6-0.3,1-0.4   c0.7-0.3,1.4-0.5,2.2-0.7s1.6-0.4,2.4-0.4c0.4-0.1,0.8-0.1,1.3-0.1c0.4,0,0.8,0,1.2,0c0.9,0,1.7,0.1,2.5,0.2s1.6,0.3,2.4,0.4   c0.8,0.2,1.5,0.4,2.2,0.7c0.7,0.3,1.3,0.6,1.9,0.9s1,0.6,1.4,1c0.4,0.3,0.7,0.6,1,0.9s0.4,0.5,0.5,0.7   C267.4,408.4,267.4,408.5,267.4,408.5z"/>
	<path style="fill:#CED5E0;" d="M281.4,222.9c0,0-0.2-0.1-0.5-0.4c-0.3-0.3-0.8-0.6-1.5-1c-0.6-0.4-1.4-0.9-2.4-1.3   c-0.9-0.5-2-0.9-3.2-1.4c-1.2-0.4-2.5-0.9-4-1.2c-1.4-0.4-2.9-0.7-4.5-1s-3.2-0.4-4.9-0.6c-1.7-0.2-3.4-0.2-5.1-0.2   c-0.8,0-1.8,0-2.6,0.1c-0.8,0-1.7,0.1-2.5,0.2c-1.7,0.1-3.3,0.3-4.9,0.6c-1.6,0.3-3.1,0.6-4.5,1s-2.7,0.8-4,1.2   c-1.2,0.5-2.3,0.9-3.2,1.4s-1.7,0.9-2.4,1.3c-0.6,0.4-1.2,0.8-1.5,1s-0.5,0.4-0.5,0.4s0.1-0.2,0.4-0.5c0.2-0.4,0.6-0.9,1.1-1.4   c0.5-0.6,1.2-1.3,2.1-2c0.9-0.7,1.9-1.4,3.1-2.1c1.2-0.7,2.5-1.4,4-1.9c1.5-0.6,3-1.1,4.7-1.5s3.4-0.8,5.2-1   c0.9-0.1,1.8-0.2,2.7-0.2c1-0.1,1.7-0.1,2.7-0.1c1.8,0,3.7,0.1,5.5,0.3s3.5,0.6,5.2,1s3.3,0.9,4.7,1.5c1.5,0.6,2.8,1.3,4,1.9   c1.2,0.7,2.2,1.4,3.1,2.1c0.9,0.7,1.6,1.4,2.1,2c0.6,0.6,0.9,1.1,1.1,1.4C281.3,222.7,281.4,222.9,281.4,222.9z"/>
	<path style="fill:#CED5E0;" d="M275.3,235c0,0-0.1-0.1-0.4-0.3s-0.7-0.4-1.2-0.7s-1.1-0.6-1.9-1c-0.7-0.3-1.6-0.7-2.5-1   s-1.9-0.6-3-0.9c-1.1-0.3-2.2-0.5-3.4-0.7c-1.2-0.2-2.4-0.3-3.7-0.4c-1.3-0.1-2.6-0.1-3.8-0.1c-1.4,0-2.6,0-3.9,0.1   c-1.3,0.1-2.5,0.2-3.7,0.4s-2.4,0.4-3.4,0.7c-1.1,0.3-2.1,0.6-3,0.9c-0.9,0.3-1.8,0.6-2.5,1c-0.7,0.3-1.4,0.7-1.9,1   s-0.9,0.5-1.2,0.7s-0.4,0.3-0.4,0.3s0.1-0.1,0.3-0.4c0.2-0.3,0.4-0.7,0.8-1.1c0.4-0.5,0.9-1,1.6-1.6c0.6-0.6,1.4-1.2,2.3-1.7   c0.9-0.6,1.9-1.1,3.1-1.6c1.1-0.5,2.3-0.9,3.6-1.3c1.3-0.3,2.6-0.6,4-0.8c0.7-0.1,1.4-0.2,2.1-0.2c0.7-0.1,1.4,0,2.1-0.1   c1.5,0,2.9,0.1,4.3,0.3s2.7,0.4,4,0.8c1.3,0.3,2.5,0.8,3.6,1.3s2.2,1,3.1,1.6s1.7,1.1,2.3,1.7c0.7,0.5,1.2,1.1,1.6,1.6   s0.7,0.9,0.8,1.1C275.2,234.8,275.3,235,275.3,235z"/>
	<path style="fill:#CED5E0;" d="M369,116.4c23.8,4.9,46,17.7,62.1,35.9c4.2,4.8,8.1,10.1,9.7,16.3c1.3,5.1,0.9,10.5,0.4,15.8   c-0.8,9.3-1.6,18.6-4.6,27.4c-4.8,14-15.5,26-28.9,32.3c-1.9,0.9-3.8,1.7-5.2,3.2c-1.3,1.4-2.1,3.3-3.4,4.6   c-3.5,3.5-10.1,2.7-12.7,6.8c-0.7,1.2-1,2.6-1.7,3.8c-1.3,2.2-3.7,3.4-5.9,4.6c-7.9,4-15.6,8.5-22,14.6c-2.4,2.3-4.6,4.8-7.3,6.9   c-8.8,6.9-20.7,7.7-31.9,8.2c-0.6-7.6-1.3-15.3-1.9-22.9c-0.3-4-0.7-8-1.7-11.9c-0.8-3.2-2.1-6.3-3.8-9.2c4.6,2.7,3.5,10,6.9,14.1   c1.3,1.5,3.1,2.5,4.2,4.1c3.6,4.8-0.2,12.3,3.1,17.3c5.1,0.9,10.4,0.2,15.2-1.8c1-0.4,2.1-1,2.7-2c0.6-1.1,0.4-2.4,0.2-3.7   c-1.5-9.3-3-18.9-8.2-26.8c-1.8-2.7-4-5.2-4.8-8.3c-0.5-1.9-0.6-3.8-0.7-5.8c-0.5-5.9-2.5-11.7-5.8-16.7c5.3,3.7,9,9.3,11.5,15.3   c2.8,6.8,4.1,14.1,7.6,20.6c3.4,6.5,9.8,12.3,17.1,11.9c2.1-0.1,4.3-0.8,5.7-2.3c2.6-2.7,2.3-7.2,0.7-10.7c-1.5-3.5-4-6.5-5.3-10   c-0.6-1.8-0.9-3.7-1.7-5.4c-2.9-6.5-11.8-10.6-11-17.7c3.6,1.1,7.3,2.2,10.2,4.6c6.3,5.3,7.3,15.6,14.4,19.7c6.6,3.9,15,0.4,21.9-3   c1.1-0.6,2.4-1.3,2.6-2.5c0.2-0.9-0.2-1.8-0.6-2.6c-1.5-3.1-3.1-6.3-4.6-9.4c-1.2-2.4-2.3-4.8-3.6-7.1   c-10.8-19.1-31.3-32.4-53.2-34.3c18.2-0.4,36.5,7.1,49.2,20.2c5.1,5.3,9.4,11.5,15.4,15.8s14.5,6.2,20.7,2.1   c2.9-3.6,3.4-8.7,2.2-13.2c-1.2-4.5-3.9-8.4-6.9-11.9c-15.4-17.5-39.7-24.3-63-26.1c22-4.4,45.9,1.3,63.6,15.1   c2.9,2.2,6.3,4.8,9.8,3.6c3-1,4.4-4.7,3.9-7.8s-2.3-5.8-4.1-8.4c-1.8-2.6-3.6-5.2-5.5-7.8c-1.5-2.1-3-4.2-4.8-6.1   c-3-3.1-6.7-5.4-10.6-7.3c-22.4-11.4-48.6-13.1-73.7-12c6.9-5.4,15.9-7.4,24.7-7.1c8.7,0.3,17.2,2.7,25.6,5.4   c15.6,5.1,31,11.1,46.2,17.2c-8.6-14.7-21.8-26.7-37.2-33.9c-7.3-3.4-15.5-6-20.4-12.4"/>
	<path style="fill:#CED5E0;" d="M141.1,116.4c-23.8,4.9-46,17.7-62.1,35.9c-4.2,4.8-8.1,10.1-9.7,16.3c-1.3,5.1-0.9,10.5-0.4,15.8   c0.8,9.3,1.6,18.6,4.6,27.4c4.8,14,15.5,26,28.9,32.3c1.9,0.9,3.8,1.7,5.2,3.2c1.3,1.4,2.1,3.3,3.4,4.6c3.5,3.5,10.1,2.7,12.7,6.8   c0.7,1.2,1,2.6,1.7,3.8c1.3,2.2,3.7,3.4,5.9,4.6c7.9,4,15.6,8.5,22,14.6c2.4,2.3,4.6,4.8,7.3,6.9c8.8,6.9,20.7,7.7,31.9,8.2   c0.6-7.6,1.3-15.3,1.9-22.9c0.3-4,0.7-8,1.7-11.9c0.8-3.2,2.1-6.3,3.8-9.2c-4.6,2.7-3.5,10-6.9,14.1c-1.3,1.5-3.1,2.5-4.2,4.1   c-3.6,4.8,0.2,12.3-3.1,17.3c-5.1,0.9-10.4,0.2-15.2-1.8c-1-0.4-2.1-1-2.7-2c-0.6-1.1-0.4-2.4-0.2-3.7c1.5-9.3,3-18.9,8.2-26.8   c1.8-2.7,4-5.2,4.8-8.3c0.5-1.9,0.6-3.8,0.7-5.8c0.5-5.9,2.5-11.7,5.8-16.7c-5.3,3.7-9,9.3-11.5,15.3c-2.8,6.8-4.1,14.1-7.6,20.6   c-3.4,6.5-9.8,12.3-17.1,11.9c-2.1-0.1-4.3-0.8-5.7-2.3c-2.6-2.7-2.3-7.2-0.7-10.7c1.5-3.5,4-6.5,5.3-10c0.6-1.8,0.9-3.7,1.7-5.4   c2.9-6.5,11.8-10.6,11-17.7c-3.6,1.1-7.3,2.2-10.2,4.6c-6.3,5.3-7.3,15.6-14.4,19.7c-6.6,3.9-15,0.4-21.9-3   c-1.1-0.6-2.4-1.3-2.6-2.5c-0.2-0.9,0.2-1.8,0.6-2.6c1.5-3.1,3.1-6.3,4.6-9.4c1.2-2.4,2.3-4.8,3.6-7.1   c10.8-19.1,31.3-32.4,53.2-34.3c-18.2-0.4-36.5,7.1-49.2,20.2c-5.1,5.3-9.4,11.5-15.4,15.8s-14.5,6.2-20.7,2.1   c-2.9-3.6-3.4-8.7-2.2-13.2c1.2-4.5,3.9-8.4,6.9-11.9c15.4-17.5,39.7-24.3,63-26.1c-22-4.4-45.9,1.3-63.6,15.1   c-2.9,2.2-6.3,4.8-9.8,3.6c-3-1-4.4-4.7-3.9-7.8s2.3-5.8,4.1-8.4c1.8-2.6,3.6-5.2,5.5-7.8c1.5-2.1,3-4.2,4.8-6.1   c3-3.1,6.7-5.4,10.6-7.3c22.4-11.4,48.6-13.1,73.7-12c-6.9-5.4-15.9-7.4-24.7-7.1c-8.7,0.3-17.2,2.7-25.6,5.4   c-15.6,5.1-31,11.1-46.2,17.2c8.6-14.7,21.8-26.7,37.2-33.9c7.3-3.4,15.5-6,20.4-12.4"/>
</g>
<g>
</g>
<g>
</g>
<g>
</g>
<g>
</g>
<g>
</g>
<g>
</g>
<g>
</g>
<g>
</g>
<g>
</g>
<g>
</g>
<g>
</g>
<g>
</g>
<g>
</g>
<g>
</g>
<g>
</g>
</svg>
