<?xml version="1.0" encoding="iso-8859-1"?>
<!-- Generator: Adobe Illustrator 19.0.0, SVG Export Plug-In . SVG Version: 6.00 Build 0)  -->
<svg xmlns="http://www.w3.org/2000/svg" xmlns:xlink="http://www.w3.org/1999/xlink" version="1.1" id="Layer_1" x="0px" y="0px" viewBox="0 0 505.1 505.1" style="enable-background:new 0 0 505.1 505.1;" xml:space="preserve">
<circle style="fill:#54C0EB;" cx="252.55" cy="252.5" r="252.5"/>
<g>
	<path style="fill:#F9B54C;" d="M298.55,500.8c-14.9,2.8-30.3,4.2-46,4.2s-31.1-1.4-46-4.2l6.3-170.9h79.5L298.55,500.8z"/>
	<path style="fill:#F9B54C;" d="M298.55,500.8c-1,0.2-2,0.4-3,0.6l0,0c-8.7,1.5-17.5,2.5-26.5,3.1c-5.4,0.4-11,0.6-16.5,0.6   c-5.5,0-11-0.2-16.5-0.6c-9-0.6-17.8-1.6-26.5-3.1l0,0c-1-0.2-2-0.4-3-0.6v-1.4l0.4-9.8l0,0l0.2-5.7l0,0l2.3-62.1l0.2-4.9l0.7-20.6   l2.4-66.3h79.5l2.4,66.3l0.7,20.6l0.2,4.9l2.3,62.1l0.2,5.7l0,0l0.4,9.8L298.55,500.8z"/>
	<path style="fill:#F9B54C;" d="M301.65,190.9c0,0,36.9-11.7,59.3-34.3c4.5-4.6,10.1-8,16.2-9.8c15.4-4.6,44.1-10.1,64.4,3.8   c0,0-35.8,113.6-128.2,78.1L301.65,190.9z"/>
	<path style="fill:#F9B54C;" d="M441.55,150.6c0,0-35.8,113.6-128.1,78.1l-11.6-37.3l-0.1-0.5c0,0,36.9-11.7,59.3-34.3   c4.5-4.6,10.1-8,16.2-9.8C392.55,142.3,421.25,136.8,441.55,150.6z"/>
</g>
<path style="fill:#FFD05B;" d="M441.55,150.6c0,0-98.6,12.1-113.7,78.1l-2.2-0.1l-23.8-37.2l-0.1-0.5c0,0,36.9-11.7,59.3-34.3  c4.5-4.6,10.1-8,16.2-9.8C392.55,142.3,421.25,136.8,441.55,150.6z"/>
<g>
	<path style="fill:#F9B54C;" d="M203.45,190.9c0,0-36.9-11.7-59.3-34.3c-4.5-4.6-10.1-8-16.2-9.8c-15.4-4.6-44.1-10.1-64.4,3.8   c0,0,35.8,113.6,128.2,78.1L203.45,190.9z"/>
	<path style="fill:#F9B54C;" d="M63.55,150.6c0,0,35.8,113.6,128.1,78.1l11.6-37.3l0.1-0.5c0,0-36.9-11.7-59.3-34.3   c-4.5-4.6-10.1-8-16.2-9.8C112.55,142.3,83.85,136.8,63.55,150.6z"/>
</g>
<path style="fill:#FFD05B;" d="M63.55,150.6c0,0,98.6,12.1,113.7,78.1l2.2-0.1l23.8-37.2l0.1-0.5c0,0-36.9-11.7-59.3-34.3  c-4.5-4.6-10.1-8-16.2-9.8C112.55,142.3,83.85,136.8,63.55,150.6z"/>
<g>
	<path style="fill:#F9B54C;" d="M303.25,176.6c0,0,25.7-87.4,7.6-110.5l-1.3,2.2c-1,1.7-3.2,2.2-4.9,1.1l-2.4-1.6   c-1.4-1-3.3-0.8-4.4,0.5l0,0c-1.4,1.5-3.8,1.4-5.1-0.1l-0.4-0.5c-1.5-1.8-4.2-1.6-5.5,0.3l-1.9,3c-0.4,0.6-0.6,1.4-0.5,2.2   c0.8,7.6,3.9,51.2-31.9,58.1v26.5L303.25,176.6z"/>
	<path style="fill:#F9B54C;" d="M201.85,176.6c0,0-25.7-87.4-7.6-110.5l1.3,2.2c1,1.7,3.2,2.2,4.9,1.1l2.4-1.6   c1.4-1,3.3-0.8,4.4,0.5l0,0c1.4,1.5,3.8,1.4,5.1-0.1l0.4-0.5c1.5-1.8,4.2-1.6,5.5,0.3l1.9,3c0.4,0.6,0.6,1.4,0.5,2.2   c-0.8,7.6-3.9,51.2,31.9,58.1v26.5L201.85,176.6z"/>
</g>
<path style="fill:#FFD05B;" d="M345.65,204.3c-6.8-7.7-19.4-7.2-27-14.2c-8.6-7.9-7.5-22.3-15-31.2c-5.8-6.9-15.5-9.2-24.5-9.4  c-8.9-0.2-17.9,1.1-26.6-0.3c-8.8,1.4-17.7,0.1-26.6,0.3c-9,0.2-18.7,2.4-24.5,9.4c-7.5,9-6.4,23.3-15,31.2  c-7.6,6.9-20.2,6.4-27,14.2c-3.8,4.3-4.9,10.5-4.3,16.2c0.6,5.7,2.8,11.1,5,16.4c13.2,32.7,26.1,65.6,34.7,99.8  c1.1,4.3,2.1,8.6,3.7,12.7c3,7.5,7.9,14,13.5,19.8c2.7,2.8,5.6,5.5,8.8,7.8c9.1,6.6,20.6,9.8,31.8,9.2c11.2,0.6,22.6-2.6,31.8-9.2  c3.2-2.3,6.1-4.9,8.8-7.8c5.6-5.8,10.5-12.3,13.5-19.8c1.6-4.1,2.6-8.4,3.7-12.7c8.6-34.2,21.5-67.1,34.7-99.8  c2.2-5.3,4.3-10.7,5-16.4C350.65,214.7,349.45,208.6,345.65,204.3z"/>
<g>
	<path style="fill:#F9B54C;" d="M342.45,243.3c-11.4,28.4-22.4,57.1-30.3,86.7c-6.5-15.8-14.4-24-14.4-24   c-24.7-27.1-24.3-72.1-21.7-97c0.5-5.1,7-7.2,10.3-3.3C294.15,215,310.15,228,342.45,243.3z"/>
	<path style="fill:#F9B54C;" d="M265.45,326.7l8,13.6c0.6,1.1,1.8,0.6,2-0.8l5-34.2c0.3-1.8-1.1-3-2-1.7l-13,20.6   C264.95,324.8,264.95,326,265.45,326.7z"/>
</g>
<path style="fill:#FFFFFF;" d="M345.45,235.8c-0.2,0.4-0.3,0.7-0.5,1.1c-4.5,11.2-9,22.4-13.3,33.7c-0.3-0.1-0.5-0.2-0.8-0.3  c-1.4-0.7-2.3-2.1-3.1-3.4c-2.8-4.4-5.3-9-7.4-13.7c-0.5-1.1-0.9-2.1-1.6-3c-1.8-2.3-4.8-3.3-7.7-3.9c-2.9-0.6-5.3-0.7-7.9-2.1  c4.9,0.7,9.8-0.7,14.4-2.4c2.1-0.8,4.2-1.6,5.9-3.1c1.1-1,1.9-2.1,2.8-3.3c1.1-1.5,2.4-2.8,3.7-4.1c1.1-1.1,2.3-2.1,3.8-2.5  c2-0.5,4.1,0.4,5.7,1.7c1.6,1.3,2.9,2.9,4.5,4.3C344.55,235.1,344.95,235.4,345.45,235.8z"/>
<g>
	<path style="fill:#F9B54C;" d="M162.65,243.3c11.4,28.4,22.4,57.1,30.3,86.7c6.5-15.8,14.4-24,14.4-24c24.7-27.1,24.3-72.1,21.7-97   c-0.5-5.1-7-7.2-10.3-3.3C210.95,215,194.95,228,162.65,243.3z"/>
	<path style="fill:#F9B54C;" d="M239.65,326.7l-8,13.6c-0.6,1.1-1.8,0.6-2-0.8l-5-34.2c-0.3-1.8,1.1-3,2-1.7l13,20.6   C240.15,324.8,240.15,326,239.65,326.7z"/>
</g>
<path style="fill:#FFFFFF;" d="M159.65,235.8c0.2,0.4,0.3,0.7,0.5,1.1c4.5,11.2,9,22.4,13.3,33.7c0.3-0.1,0.5-0.2,0.8-0.3  c1.4-0.7,2.3-2.1,3.1-3.4c2.8-4.4,5.3-9,7.4-13.7c0.5-1.1,0.9-2.1,1.6-3c1.8-2.3,4.8-3.3,7.7-3.9c2.9-0.6,5.3-0.7,7.9-2.1  c-4.9,0.7-9.8-0.7-14.4-2.4c-2.1-0.8-4.2-1.6-5.9-3.1c-1.1-1-1.9-2.1-2.8-3.3c-1.1-1.5-2.4-2.8-3.7-4.1c-1.1-1.1-2.3-2.1-3.8-2.5  c-2-0.5-4.1,0.4-5.7,1.7c-1.6,1.3-2.9,2.9-4.5,4.3C160.55,235.1,160.15,235.4,159.65,235.8z"/>
<g>
	<path style="fill:#F9B54C;" d="M233.75,171.3l13.5,19.6c3.2,4.6,10,4.6,13.1,0l13.5-19.6c3.7-5.3-0.1-12.5-6.6-12.5h-27   C233.85,158.8,230.05,166,233.75,171.3z"/>
	<path style="fill:#F9B54C;" d="M283.25,169.4l-6.6,14c-1.6,3.3,0.6,7.1,4.3,7.4l15.4,1.2c4.2,0.3,7-4.1,4.9-7.8l-8.8-15.2   C290.35,165.4,285.05,165.6,283.25,169.4z"/>
	<path style="fill:#F9B54C;" d="M221.85,169.4l6.6,14c1.6,3.3-0.6,7.1-4.3,7.4l-15.4,1.2c-4.2,0.3-7-4.1-4.9-7.8l8.8-15.2   C214.75,165.4,220.05,165.6,221.85,169.4z"/>
</g>
<g>
	<path style="fill:#FFD05B;" d="M297.95,483.9c-1.3-0.3-2.6-0.9-3.9-1.7l-29-20c-6.8-4.7-6.8-14.8,0-19.4l29-20   c0.5-0.4,1-0.7,1.6-0.9L297.95,483.9z"/>
	<path style="fill:#FFD05B;" d="M240.05,462.1l-29,20c-1.2,0.9-2.5,1.4-3.9,1.7l2.3-62.1c0.6,0.2,1.1,0.6,1.6,0.9l29,20   C246.85,447.4,246.85,457.4,240.05,462.1z"/>
	<path style="fill:#FFD05B;" d="M298.55,499.4c-0.3,0.3-0.7,0.6-1.1,0.8l-1.9,1.1l0,0c-8.7,1.5-17.5,2.5-26.5,3.1l1.5-18.5   c0.4-4.5,5.1-7.2,9.2-5.3l17.3,8.2c0.4,0.2,0.8,0.4,1.1,0.7l0,0L298.55,499.4z"/>
	<path style="fill:#FFD05B;" d="M236.05,504.4c-9-0.6-17.8-1.6-26.5-3.1l0,0l-1.9-1.1c-0.4-0.2-0.8-0.5-1.1-0.8l0.4-9.8l0,0   c0.4-0.3,0.7-0.5,1.1-0.7l17.3-8.2c4.1-1.9,8.8,0.8,9.2,5.3L236.05,504.4z"/>
</g>
<path style="fill:#F9B54C;" d="M267.65,217.8l-9.3-13.5c-2.2-3.2-6.9-3.2-9.1,0l-9.3,13.5c-2.5,3.7,0.1,8.7,4.5,8.7h18.7  C267.55,226.4,270.25,221.4,267.65,217.8z"/>
<g>
	<path style="fill:#FFD05B;" d="M239.45,423.4l9.9,16.4c1.5,2.5,5.2,2.5,6.7,0l9.9-16.4c1.6-2.6-0.3-6-3.4-6h-19.8   C239.75,417.5,237.85,420.8,239.45,423.4z"/>
	<path style="fill:#FFD05B;" d="M266.05,484.7l-9.9-16.4c-1.5-2.5-5.2-2.5-6.7,0l-9.9,16.4c-1.6,2.6,0.3,6,3.4,6h19.8   C265.75,490.7,267.65,487.3,266.05,484.7z"/>
</g>
<path style="fill:#E59730;" d="M184.25,240.8c-6.7-2-12.2-7.7-19.3-8.5c-0.4,2.7-0.4,5.6-0.1,8.7c1.1,11.3,6.5,20.1,12.1,19.5  c5.3-0.5,8.8-9.2,8.2-19.7C184.85,240.9,184.55,240.9,184.25,240.8z"/>
<path style="fill:#20303F;" d="M177.55,237.7c-2.4-1.4-4.9-2.9-7.4-4c-1.1,1.8-1.6,4.8-1.3,8.1c0.5,5.2,3,9.3,5.6,9s4.3-4.7,3.7-9.9  C178.05,239.7,177.85,238.7,177.55,237.7z"/>
<ellipse style="fill:#FFFFFF;" cx="177.15" cy="247.4" rx="2.3" ry="5.1"/>
<path style="fill:#E59730;" d="M320.85,240.8c6.7-2,12.2-7.7,19.3-8.5c0.4,2.7,0.4,5.6,0.1,8.7c-1.1,11.3-6.5,20.1-12.1,19.5  c-5.3-0.5-8.8-9.2-8.2-19.7C320.25,240.9,320.55,240.9,320.85,240.8z"/>
<path style="fill:#20303F;" d="M327.55,237.7c2.4-1.4,4.9-2.9,7.4-4c1.1,1.8,1.6,4.8,1.3,8.1c-0.5,5.2-3,9.3-5.6,9  c-2.6-0.3-4.3-4.7-3.7-9.9C327.05,239.7,327.25,238.7,327.55,237.7z"/>
<ellipse style="fill:#FFFFFF;" cx="327.95" cy="247.4" rx="2.3" ry="5.1"/>
<g>
	<path style="fill:#2B3B4E;" d="M298.95,242.9c0,0,1-0.1,2.5-0.2c1.6-0.2,3.7-0.5,6.3-1.1c2.5-0.6,5.4-1.4,8.6-2.4   c1.6-0.5,3.1-0.9,4.4-1.5s2.2-1.3,3.5-2.4c1.1-1.1,2.8-2.6,4.3-3.6c0.7-0.5,1.4-1,2.1-1.5l0.3-0.2l0.2-0.1h0.1l0.1-0.1   c0.2-0.1,0.3-0.2,0.7-0.4c0.7-0.4,1.3-0.6,1.9-0.8c2.6-0.6,4.9,0.3,6.4,1.2c1.6,1,2.7,2.2,3.7,3.2c1,1.1,1.7,2.2,2.3,3.1   c0.6,0.9,1.1,1.8,1.5,2.5c0.7,1.4,1.2,2.2,1.2,2.2s-0.2-0.1-0.6-0.4c-0.3-0.3-0.9-0.6-1.5-1.1c-1.3-1-3-2.4-5.1-3.8   c-1-0.7-2.2-1.4-3.4-1.8c-1.2-0.4-2.3-0.5-2.9-0.1c-0.2,0.1-0.4,0.2-0.4,0.3c0,0-0.3,0.2-0.4,0.3l-0.1,0.1l-0.1,0.1l0,0   c0,0,0.2-0.2,0.1-0.1l0,0l-0.2,0.2c-0.7,0.6-1.3,1.2-2,1.8c-1.4,1.2-2.3,2.1-3.8,3.5c-1.3,1.3-3.4,2.8-5.4,3.5   c-2,0.8-3.8,1.1-5.5,1.4c-3.4,0.5-6.7,0.8-9.6,0.5c-2.8-0.2-5.2-0.8-6.7-1.3C299.75,243.3,298.95,242.9,298.95,242.9z"/>
	<path style="fill:#2B3B4E;" d="M206.15,242.9c0,0-0.8,0.5-2.3,1.1s-3.9,1.2-6.7,1.3c-2.8,0.2-6.1,0-9.6-0.5   c-1.7-0.3-3.6-0.6-5.5-1.4c-2-0.7-4-2.1-5.4-3.5s-2.4-2.4-3.8-3.5c-0.7-0.6-1.3-1.2-2-1.8l-0.2-0.2l0,0c-0.1-0.1,0.1,0.1,0.1,0.1   l0,0l-0.1-0.1l-0.1-0.1c-0.1-0.1-0.4-0.3-0.4-0.3c-0.1-0.1-0.2-0.2-0.4-0.3c-0.7-0.4-1.7-0.3-2.9,0.1c-1.2,0.4-2.4,1.1-3.4,1.8   c-2.1,1.4-3.9,2.9-5.1,3.8c-0.6,0.5-1.1,0.9-1.5,1.1c-0.4,0.3-0.6,0.4-0.6,0.4s0.4-0.8,1.2-2.2c0.4-0.7,0.8-1.6,1.5-2.5   c0.6-0.9,1.3-2,2.3-3.1s2.1-2.2,3.7-3.2c1.5-1,3.8-1.9,6.4-1.2c0.6,0.2,1.2,0.4,1.9,0.8c0.4,0.2,0.4,0.3,0.7,0.4l0.1,0.1h0.1   l0.2,0.1l0.3,0.2c0.7,0.5,1.4,1,2.1,1.5c1.4,1,3.1,2.5,4.3,3.6c1.3,1.1,2.2,1.8,3.5,2.4c1.3,0.6,2.8,1.1,4.4,1.5   c3.2,0.9,6.1,1.8,8.6,2.4c2.5,0.6,4.7,0.9,6.3,1.1C205.15,242.8,206.15,242.9,206.15,242.9z"/>
</g>
<g>
</g>
<g>
</g>
<g>
</g>
<g>
</g>
<g>
</g>
<g>
</g>
<g>
</g>
<g>
</g>
<g>
</g>
<g>
</g>
<g>
</g>
<g>
</g>
<g>
</g>
<g>
</g>
<g>
</g>
</svg>
