<?xml version="1.0" encoding="iso-8859-1"?>
<!-- Generator: Adobe Illustrator 19.0.0, SVG Export Plug-In . SVG Version: 6.00 Build 0)  -->
<svg xmlns="http://www.w3.org/2000/svg" xmlns:xlink="http://www.w3.org/1999/xlink" version="1.1" id="Layer_1" x="0px" y="0px" viewBox="0 0 505 505" style="enable-background:new 0 0 505 505;" xml:space="preserve">
<circle style="fill:#FD8469;" cx="252.5" cy="252.5" r="252.5"/>
<path style="fill:#FFD05B;" d="M409,110.1c-1.4,6.4-4.9,12.1-7.4,18.1c-0.2,0.5-0.4,1-0.6,1.5c-1.4,3.8-2.4,7.7-3.3,11.6  c-1.8,7.5-3.6,15.1-5.5,22.6c-2.3,9.7-4.7,19.3-5.7,29.2c-0.4,4-0.6,8-1.8,11.7c-2.4,7.4-8.7,12.9-16.1,15.7  c-0.1-0.1-0.1-0.3-0.2-0.4c-7.1-16.5-16.9-42.7-42.5-61.3c-5.9-4.3-12.5-8.1-20.2-11.3c0.7-2.6,1.6-5,3.2-7.1  c2.7-3.6,7-5.5,10.7-8.2c2.6-1.9,4.9-4.1,7.5-5.9c2.2-1.6,4.6-2.9,7-4.2c7.4-4,14.8-8.1,22.3-12.1c8.9-4.8,17.8-9.7,26.7-14.5  c5.8-3.2,12.8-6.4,18.9-3.7C408.5,94.7,410.5,103.2,409,110.1z"/>
<path style="fill:#F9B54C;" d="M401.7,128.2c-0.2,0.5-0.4,1-0.6,1.5c-1.4,3.8-2.4,7.7-3.3,11.6c-1.8,7.5-3.6,15.1-5.5,22.6  c-2.3,9.7-4.7,19.3-5.7,29.2c-0.4,4-0.6,8-1.8,11.7c-2.4,7.4-8.7,12.9-16.1,15.7c-0.1-0.1-0.1-0.3-0.2-0.4  c-7.1-16.5-16.9-42.7-42.5-61.3c0.8-2.4,18.5-39,61.9-50.6c2-0.5,4.2-0.8,6.3-0.2c5.1,1.5,6.5,8,6.9,13.3  C401.3,123.6,401.5,125.9,401.7,128.2z"/>
<path style="fill:#FFD05B;" d="M96,110.1c1.4,6.4,4.9,12.1,7.4,18.1c0.2,0.5,0.4,1,0.6,1.5c1.4,3.8,2.4,7.7,3.3,11.6  c1.8,7.5,3.6,15.1,5.5,22.6c2.3,9.7,4.7,19.3,5.7,29.2c0.4,4,0.6,8,1.8,11.7c2.4,7.4,8.7,12.9,16.1,15.7c0.1-0.1,0.1-0.3,0.2-0.4  c7.1-16.5,16.9-42.7,42.5-61.3c5.9-4.3,12.5-8.1,20.2-11.3c-0.7-2.6-1.6-5-3.2-7.1c-2.7-3.6-7-5.5-10.7-8.2  c-2.6-1.9-4.9-4.1-7.5-5.9c-2.2-1.6-4.6-2.9-7-4.2c-7.4-4-14.8-8.1-22.3-12.1c-8.9-4.8-17.8-9.7-26.7-14.5  c-5.8-3.2-12.8-6.4-18.9-3.7C96.5,94.7,94.5,103.2,96,110.1z"/>
<path style="fill:#F9B54C;" d="M103.3,128.2c0.2,0.5,0.4,1,0.6,1.5c1.4,3.8,2.4,7.7,3.3,11.6c1.8,7.5,3.6,15.1,5.5,22.6  c2.3,9.7,4.7,19.3,5.7,29.2c0.4,4,0.6,8,1.8,11.7c2.4,7.4,8.7,12.9,16.1,15.7c0.1-0.1,0.1-0.3,0.2-0.4c7.1-16.5,16.9-42.7,42.5-61.3  c-0.8-2.4-18.5-39-61.9-50.6c-2-0.5-4.2-0.8-6.3-0.2c-5.1,1.5-6.5,8-6.9,13.3C103.7,123.6,103.5,125.9,103.3,128.2z"/>
<path style="fill:#FFD05B;" d="M392,298.1C392,298.2,392,298.2,392,298.1C392,298.2,391.9,298.2,392,298.1  c-2.6-5.6-5.2-11.1-7.7-16.6l0.9,16.6l0.5,8.7c0.2,3.6,0.4,7.2,0.2,10.8c-0.1,2.3-0.4,4.5-0.9,6.8c-1.1,4.9-3.5,9.4-6.2,13.8  c-1.8,3-3.8,5.8-5.7,8.8c-8.5,13-15.9,27.1-21.8,42.2c-0.3-8.2-1.3-16.4-3-24.4c2,9.4-3.7,18.5-11.2,24.3  c-7.5,5.9-16.6,9.4-24.6,14.6c-6.7,4.4-12.9,10.6-15.3,18.3c1.1-8.2,0.4-16.6-2.2-24.3c-1.6,7.6-4,16.4-11.2,19.5  c-2.8,1.2-6,1.3-9,1.6c-7.5,0.7-14.9,2.8-21.8,6c0,0-0.1,0-0.2,0.1v0.2c-0.1,0-0.2-0.1-0.3-0.1c-0.1,0-0.2,0.1-0.3,0.1v-0.2  c0,0-0.1,0-0.2-0.1c-6.9-3.2-14.2-5.3-21.8-6c-3.1-0.3-6.2-0.4-9.1-1.6c-7.1-3.1-9.6-11.8-11.2-19.5c-2.6,7.7-3.4,16.1-2.2,24.3  c-2.3-7.7-8.6-14-15.3-18.3c-8-5.2-17.2-8.8-24.6-14.6c-7.4-5.8-13.1-14.9-11.2-24.3c-1.7,8-2.8,16.1-3,24.4  c-5.9-15.1-13.2-29.2-21.8-42.2c-1.9-2.9-3.9-5.8-5.7-8.8c-2.7-4.3-5-8.8-6.1-13.8c-0.5-2.3-0.8-4.5-0.9-6.8  c-0.2-3.6,0-7.2,0.2-10.8l0.5-8.7l0.9-16.6c-2.6,5.5-5.1,11.1-7.7,16.6c0,0,0,0,0,0.1c0,0,0,0,0-0.1c1.1-26.1,2-51.8,11.4-75  c1.6-3.9,3.4-7.7,5.5-11.5c0.1-0.2,0.2-0.3,0.2-0.4c10.7-18.8,26.2-50.2,68.7-65.3c14.3-5.1,31.8-8.3,53.4-8.8l0,0h0.4l0,0  c21.7,0.4,39.1,3.7,53.4,8.8c42.5,15.1,58,46.4,68.7,65.3c0,0.2,0.2,0.3,0.2,0.4c2.1,3.7,3.9,7.6,5.6,11.5  C390,246.3,390.9,272,392,298.1z"/>
<path style="fill:#FFFFFF;" d="M362.5,331.7c-0.2-4.2-0.3-8.3-0.5-12.5c-9.4,19-23,36.6-41.7,46.4c-1.2,0.6-2.5,1.2-3.7,1.8l0,0  c3.9-7.1,7.8-15.2,5.6-23c-1.6,9.2-7.4,17.4-15.1,22.6s-17.2,7.5-26.5,7.3c-0.6,0-1.3,0-1.9,0.3c-0.4,0.3-0.6,0.7-0.8,1.2  c-8.3,0.4-16.7,0.3-25,0h-0.8c-4.7,0.2-9.4,0.3-14.1,0.3c-3.6,0-7.3-0.1-10.9-0.3c-0.2-0.5-0.4-0.9-0.8-1.2  c-0.5-0.4-1.2-0.3-1.9-0.3c-9.3,0.2-18.8-2.1-26.5-7.3c-7.7-5.2-13.6-13.4-15.1-22.6c-2.3,7.7,1.7,15.8,5.5,22.9  c-1.2-0.6-2.4-1.1-3.6-1.7c-18.7-9.8-32.3-27.4-41.7-46.4c-0.2,4.2-0.3,8.3-0.5,12.5c-8.4-3.4-16.3-8.2-23.3-14.1  c0.1,2.3,0.4,4.5,0.9,6.8c1.1,4.9,3.4,9.4,6.1,13.8c1.8,3,3.8,5.8,5.7,8.8c8.6,13,15.9,27.1,21.8,42.2c0.3-8.2,1.3-16.4,3-24.4  c-1.9,9.4,3.8,18.5,11.2,24.3c7.5,5.9,16.6,9.4,24.6,14.6c6.7,4.4,12.9,10.6,15.3,18.3c-1.1-8.2-0.4-16.6,2.2-24.3  c1.6,7.6,4,16.4,11.2,19.5c2.8,1.2,6,1.3,9.1,1.6c7.5,0.7,14.9,2.8,21.8,6c0,0,0.1,0,0.2,0.1v0.2c0.1,0,0.2-0.1,0.3-0.1  c0.1,0,0.2,0.1,0.3,0.1v-0.2c0,0,0.1,0,0.2-0.1c6.9-3.2,14.3-5.3,21.8-6c3.1-0.3,6.2-0.4,9-1.6c7.2-3.1,9.6-11.8,11.2-19.5  c2.6,7.7,3.3,16.1,2.2,24.3c2.3-7.7,8.6-14,15.3-18.3c8-5.2,17.2-8.8,24.6-14.6c7.4-5.8,13.1-14.9,11.2-24.3c1.7,8,2.8,16.1,3,24.4  c5.9-15.1,13.3-29.2,21.8-42.2c1.9-2.9,3.9-5.8,5.7-8.8c2.7-4.3,5-8.8,6.2-13.8c0.5-2.3,0.7-4.5,0.9-6.8  C378.8,323.5,370.9,328.3,362.5,331.7z"/>
<g>
	<path style="fill:#F9B54C;" d="M251.6,399.9h-0.1h-0.1H251.6z"/>
	<path style="fill:#F9B54C;" d="M282.1,315.8c-1.1-4.6-1.9-9.2-2.2-13.9c-0.3-4.5-0.3-9.1,1.1-13.4s4.5-8.2,8.7-9.8h-4   c-0.2-1.7-0.6-3.4-1.2-5c-0.5-1.1-1.1-2.1-1.7-3c-1.9-2.9-4.1-5.6-6.6-8c-4.8-4.5-10.9-7.7-17.6-8.9c-6.7-1.2-13.9-0.4-20.5,2.4   c-1.8,0.8-3.6,1.8-5.3,2.8c-1.1,0.6-2.1,1.3-3,2.2c-0.6,0.6-1.1,1.2-1.6,1.9c-2.6,3.6-4.6,7.5-5.9,11.7c-0.4,1.2-0.7,2.5-1.3,3.6   c-0.1,0.1-0.1,0.2-0.2,0.4h-7.5c4.2,1.6,7.2,5.5,8.7,9.8c1.4,4.3,1.5,8.9,1.1,13.4c-0.4,4.7-1.1,9.4-2.2,13.9   c-4.3,17.5-14.2,34.6-11.3,52.4c1.5,8.9,1.8,29.5,41.9,31.7c40.1-2.2,40.4-22.8,41.9-31.7C296.3,350.4,286.4,333.3,282.1,315.8z"/>
</g>
<path style="fill:#324A5E;" d="M295.2,359.6c0-1.7-0.3-3.3-0.5-4.9c-0.3-1.6-0.5-3.2-0.9-4.8c-0.7-3.2-1.6-6.3-2.6-9.4  s-2.1-6.1-3.2-9.1s-2.2-6-3.2-9.1c-1-3-1.9-6.1-2.6-9.2s-1.3-6.2-1.6-9.4c-0.4-3.2-0.6-6.3-0.4-9.5c0.2-3.1,1-6.3,2.5-9.1  c1.5-2.8,3.9-5.2,6.8-6.4c-3,1.1-5.6,3.4-7.3,6.2c-1.7,2.8-2.6,6-3,9.2s-0.2,6.5,0,9.7c0.3,3.2,0.7,6.4,1.3,9.6  c0.6,3.2,1.5,6.3,2.4,9.4s1.9,6.2,2.9,9.2s2,6.1,2.9,9.1s1.8,6.1,2.4,9.2c0.3,1.5,0.5,3.1,0.8,4.6c0.1,1.6,0.4,3.1,0.3,4.7  c0,0.8,0.1,1.6,0,2.3l-0.1,2.3c0,0.8-0.2,1.6-0.3,2.4l-0.2,1.2l-0.2,1.2c-0.5,3.2-1,6.2-2,9.1s-2.5,5.5-4.4,7.8s-4.4,4.2-7,5.7  s-5.5,2.7-8.5,3.6s-6.1,1.5-9.2,2c-3,0.5-6.1,0.7-9.2,0.9c-3.1-0.2-6.2-0.4-9.2-0.9c-3.1-0.5-6.2-1.1-9.2-2s-5.9-2.1-8.5-3.6  s-5-3.4-7-5.7c-2-2.3-3.4-4.9-4.4-7.8s-1.5-5.9-2-9.1l-0.2-1.2l-0.1-1.1c-0.1-0.8-0.2-1.5-0.3-2.3l-0.1-2.3c-0.1-0.8,0-1.6,0-2.3  c0-1.6,0.2-3.1,0.3-4.7c0.2-1.6,0.4-3.1,0.8-4.6c0.6-3.1,1.4-6.2,2.4-9.2c0.9-3.1,1.9-6.1,2.9-9.1s2-6.1,2.9-9.2s1.8-6.2,2.4-9.4  c0.6-3.2,1.1-6.4,1.3-9.6s0.4-6.5,0-9.7s-1.2-6.5-3-9.2c-1.7-2.7-4.2-5.1-7.3-6.2c3,1.2,5.3,3.6,6.8,6.4c1.6,2.8,2.3,5.9,2.5,9.1  s0,6.3-0.4,9.5s-0.9,6.3-1.6,9.4c-0.7,3.1-1.6,6.2-2.6,9.2s-2.1,6-3.2,9.1c-1.1,3-2.2,6-3.2,9.1s-1.9,6.2-2.6,9.4  c-0.4,1.6-0.6,3.2-0.9,4.8c-0.2,1.6-0.4,3.3-0.5,4.9c0,0.8-0.1,1.6-0.1,2.5l0.1,2.5c0,0.8,0.2,1.7,0.3,2.5l0.1,1.2l0.2,1.2  c0.4,3.1,0.9,6.5,2,9.7s2.7,6.3,4.9,8.9s4.9,4.8,7.8,6.5c2.9,1.7,6,3,9.2,3.9c3.2,1,6.4,1.7,9.6,2.2c3.2,0.5,6.4,0.8,9.6,1l0,0h0.3  l0,0c3.2-0.2,6.4-0.5,9.6-1c3.2-0.5,6.5-1.2,9.6-2.2c3.2-1,6.3-2.2,9.2-3.9c2.9-1.7,5.6-3.8,7.8-6.5c2.2-2.6,3.8-5.7,4.9-8.9  c1.1-3.2,1.6-6.5,2-9.7l0.2-1.2l0.1-1.2c0.1-0.8,0.2-1.6,0.2-2.4l0.1-2.5C295.4,361.2,295.3,360.4,295.2,359.6z"/>
<g>
	<path style="fill:#324A5E;" d="M251.6,347c-0.1,0-0.1,0-0.2,0c-0.1,0-0.1,0-0.2,0c-13.8,0-25.1,2.6-25.1,12   c0,9.3,11.2,21.8,25.1,21.8c0.1,0,0.1,0,0.2,0c0.1,0,0.1,0,0.2,0c13.8,0,25.1-12.5,25.1-21.8C276.7,349.6,265.5,347,251.6,347z"/>
	<path style="fill:#324A5E;" d="M281.2,384.7c-4.6,3-26.4,0.4-29.6,0.1v-0.1c0,0-0.1,0-0.2,0c-0.1,0-0.2,0-0.2,0v0.1   c-3.2,0.4-25,3-29.6-0.1c0,0,11.8,9.4,29.8,7.8C269.5,394.1,281.2,384.7,281.2,384.7z"/>
	<path style="fill:#324A5E;" d="M192,262.8c0,0-12.6,36.2,27.6,23.2c0-1.2,0.2-2.6,0-3.8c-0.1-0.9-0.3-1.9-0.4-2.8   c-0.2-1.1-0.4-2.2-0.7-3.3c-0.3-0.9-0.6-1.9-1-2.8c-0.4-1-0.9-2-1.6-2.9c-1.3-1.8-3.2-3.1-5.2-4.2c-1.8-1.1-3.7-2-5.8-2.5   c-1.6-0.4-3.2-0.6-4.8-0.7C197.4,262.7,194.8,262.6,192,262.8z"/>
</g>
<g>
	<path style="fill:#FFFFFF;" d="M113.1,298.1L113.1,298.1C113.1,298.2,113.1,298.2,113.1,298.1C113.1,298.2,113.1,298.2,113.1,298.1   z"/>
	<path style="fill:#FFFFFF;" d="M392,298.1C392,298.2,392,298.2,392,298.1C392,298.2,391.9,298.2,392,298.1L392,298.1z"/>
</g>
<g>
	<circle style="fill:#2B3B4E;" cx="259.8" cy="364.3" r="3.9"/>
	<circle style="fill:#2B3B4E;" cx="243.2" cy="364.3" r="3.9"/>
</g>
<path style="fill:#324A5E;" d="M223.1,307.7c0,0,5.3-34-8.8-44.9c-14-10.9-36.2,4.5-36.2,4.5h9.8c0,0-4.9,14.2,6.3,21.5  s22.8,0,22.8,0S224.1,299.6,223.1,307.7z"/>
<path style="fill:#F9B54C;" d="M191.3,273.6c0,8,6.5,14.4,14.4,14.4c6.4,0,11.7-4.1,13.7-9.8c-3-14.4-14.4-16.3-23.4-15.2  C193.1,265.7,191.3,269.4,191.3,273.6z"/>
<g>
	<ellipse style="fill:#324A5E;" cx="205.3" cy="275.1" rx="3.4" ry="7.8"/>
	<path style="fill:#324A5E;" d="M221.6,281.1l2.4,22.7c0,0-5.7,27.3-8.5,31.2c0,0,6.6-27.9,1.7-46.2L221.6,281.1z"/>
	<path style="fill:#324A5E;" d="M279.8,307.7c0,0-5.3-34,8.8-44.9c14-10.9,36.2,4.5,36.2,4.5H315c0,0,4.9,14.2-6.3,21.5   c-11.2,7.3-22.8,0-22.8,0S278.8,299.6,279.8,307.7z"/>
</g>
<path style="fill:#F9B54C;" d="M311.7,273.6c0,8-6.5,14.4-14.4,14.4c-6.4,0-11.7-4.1-13.7-9.8c3-14.4,14.4-16.3,23.4-15.2  C309.9,265.7,311.7,269.4,311.7,273.6z"/>
<g>
	<ellipse style="fill:#324A5E;" cx="297.6" cy="275.1" rx="3.4" ry="7.8"/>
	<path style="fill:#324A5E;" d="M281.4,281.1l-2.4,22.7c0,0,5.7,27.3,8.5,31.2c0,0-6.6-27.9-1.7-46.2L281.4,281.1z"/>
</g>
<g>
</g>
<g>
</g>
<g>
</g>
<g>
</g>
<g>
</g>
<g>
</g>
<g>
</g>
<g>
</g>
<g>
</g>
<g>
</g>
<g>
</g>
<g>
</g>
<g>
</g>
<g>
</g>
<g>
</g>
</svg>
