<?xml version="1.0" encoding="iso-8859-1"?>
<!-- Generator: Adobe Illustrator 19.0.0, SVG Export Plug-In . SVG Version: 6.00 Build 0)  -->
<svg xmlns="http://www.w3.org/2000/svg" xmlns:xlink="http://www.w3.org/1999/xlink" version="1.1" id="Layer_1" x="0px" y="0px" viewBox="0 0 505 505" style="enable-background:new 0 0 505 505;" xml:space="preserve">
<circle style="fill:#90DFAA;" cx="252.5" cy="252.5" r="252.5"/>
<g>
	<path style="fill:#ACB3BA;" d="M393.6,162.7c-1.8,4.6-24.4,35.6-27.2,39.3c-0.9,1.2-1.7,2.4-2.3,3.6c-0.5-0.5-1-1-1.5-1.5   c-0.3-0.3-0.6-0.6-0.9-0.8c-0.3-0.3-0.6-0.6-1-0.8c-4.5-3.6-10.2-6.4-15.2-9.9c-1.4-1-2.7-2-4-3c-3-2.4-6-4.9-9.4-7.2   c-4-2.7-8.3-4.9-13-6.8c-7.3-3-15.4-5.1-23.9-6.7c-1.3-0.2-2.6-0.5-3.9-0.7h-0.1c0,0,0.1,0,0.1-0.1c4.1-2.6,5.2-7.3,6.1-11.6   c2.8-13.9,7.5-30,20.9-41.5c8.3-7.1,19.1-11.5,29.8-13c10.7-1.4,21,0,30.1,3c6.7,2.2,12.9,5.4,16.7,10.5c2,2.7,3.3,5.8,4.2,9.1   C402.1,136.7,398.5,150.4,393.6,162.7z"/>
	<path style="fill:#ACB3BA;" d="M111.4,162.7c1.8,4.6,24.4,35.6,27.2,39.3c0.9,1.2,1.7,2.4,2.3,3.6c0.5-0.5,1-1,1.5-1.5   c0.3-0.3,0.6-0.6,0.9-0.8c0.3-0.3,0.6-0.6,1-0.8c4.5-3.6,10.2-6.4,15.2-9.9c1.4-1,2.7-2,4-3c3-2.4,6-4.9,9.4-7.2   c4-2.7,8.3-4.9,13-6.8c7.3-3,15.4-5.1,23.9-6.7c1.3-0.2,2.6-0.5,3.9-0.7h0.1c0,0-0.1,0-0.1-0.1c-4.1-2.6-5.2-7.3-6.1-11.6   c-2.8-13.9-7.5-30-20.9-41.5c-8.3-7.1-19.1-11.5-29.8-13c-10.7-1.4-21,0-30.1,3c-6.7,2.2-12.9,5.4-16.7,10.5   c-2,2.7-3.3,5.8-4.2,9.1C102.9,136.7,106.4,150.4,111.4,162.7z"/>
</g>
<g>
	<path style="fill:#324A5E;" d="M370.7,143.1c-1.6,2.4-4.2,4.7-6.5,6.8c-4.5,4.3-8.3,8.7-11,12.9c-3.1,4.6-5.1,9.1-9,13.2   c-0.8,0.8-1.7,1.6-2.7,2.4c-2.5-2.1-4.9-4.3-7.8-6.4c-3.5-2.4-7.5-4.5-11.9-6.3c4.2-5.5,8.8-11.4,14.1-17.6   c5.1-5.9,11.7-12.6,20.3-15.6c5.5-1.9,11-1.9,14,0.3C373.2,134.9,373.4,139.1,370.7,143.1z"/>
	<path style="fill:#324A5E;" d="M134.3,143.1c1.6,2.4,4.2,4.7,6.5,6.8c4.5,4.3,8.3,8.7,11,12.9c3.1,4.6,5.1,9.1,9,13.2   c0.8,0.8,1.7,1.6,2.7,2.4c2.5-2.1,4.9-4.3,7.8-6.4c3.5-2.4,7.5-4.5,11.9-6.3c-4.2-5.5-8.8-11.4-14.1-17.6   c-5.1-5.9-11.7-12.6-20.3-15.6c-5.5-1.9-11-1.9-14,0.3C131.8,134.9,131.6,139.1,134.3,143.1z"/>
</g>
<path style="fill:#E6E9EE;" d="M405.9,287.7c2.7,8.9,2.4,18.7,0.9,27.9c-3.5,21-13.3,40.9-27.8,56.6c3.8-7.5,1.3-9.7-0.3-12.6  c-0.6,6.5-19.2,27.7-30.3,31.1c-11,3.4-20.4,10-32,10.5c-20.7,1-43.7-2.6-63.7,2.3h-0.1c-20.1-4.8-43.1-1.2-63.8-2.3  c-11.6-0.6-21-7.2-32-10.5c-11.1-3.4-29.7-24.6-30.4-31.1c-1.6,2.9-4,5-0.3,12.6c-14.5-15.7-24.2-35.7-27.8-56.6  c-1.5-9.2-1.8-19,0.9-27.9c-1.7,3.5-4,6.6-6.8,9.3c4.8-29.8,14.2-58.9,27.8-85.9c4.9-9.8,10.5-19.6,18.2-27.4  c0.1-0.1,0.3-0.3,0.4-0.4c0.6-0.7,1.3-1.3,2-1.9c0.4-0.4,0.8-0.7,1.2-1.1c0.4-0.4,0.8-0.7,1.2-1c5.5-4.6,11.9-8.1,17.7-12.4  c1.5-1.1,3.1-2.4,4.6-3.6c3.5-2.8,6.8-5.8,10.4-8.4c4.2-3,8.7-5.6,13.3-7.7c7.2-3.3,14.8-5.6,22.7-7.3c1.2-0.3,2.4-0.5,3.6-0.7  c0.1,0,0.1,0,0.1,0c0.3-0.1,0.6-0.1,0.9-0.1c11.8-2.2,24.1-3.2,36.1-4h0.1c12,0.9,24.2,1.8,36.1,4c0.3,0,0.6,0.1,0.8,0.1  c0.1,0,0.1,0,0.1,0c1.2,0.2,2.4,0.5,3.6,0.7c7.9,1.7,15.5,4,22.6,7.3c4.7,2.1,9.1,4.7,13.3,7.7c3.6,2.6,7,5.5,10.4,8.4  c1.5,1.2,3,2.5,4.6,3.6c5.8,4.3,12.1,7.8,17.7,12.4c0.4,0.3,0.8,0.7,1.2,1c0.4,0.3,0.8,0.7,1.2,1.1c0.7,0.6,1.3,1.2,2,1.9  c0.1,0.1,0.3,0.3,0.4,0.4c7.7,7.8,13.3,17.6,18.2,27.4c13.5,27.1,22.9,56.1,27.8,85.9C409.9,294.3,407.6,291.2,405.9,287.7z"/>
<path style="fill:#ACB3BA;" d="M334.1,267.1c-10.2,1.6-20.9,0.2-30.3-4.1c-1.1-0.5-2.1-1-3.1-1.6c-2-1.2-3.9-2.6-5.6-4.2  c-3.6-18-13-26.3-22.1-30.1c-0.2-0.9-0.8-1.7-1.3-2.5c-2.7-4.4-9.9-20.2,1.1-30.6c18.7-17.8,28.9,7.5,31.4,9.6  c2.3,2,5.1,3.3,7.9,4.7c3,1.4,5.9,2.9,8.9,4.3c3.2,1.6,6.9,3.2,10.4,2.1c-5.2,1.8-10.7,2.9-16.2,3.1c3.7,3.8,8,7.9,13.3,8.1  c-3.8,3.1-8.7,4.9-13.6,4.8c3.6,4.5,9.2,7.3,14.9,7.7c-5.3,3.8-12.3,5-18.5,3c3.3,1.8,5.8,4.8,8.6,7.3c2.8,2.5,6.3,4.7,10,4.4  c-7.5,1.9-15.9,0.1-21.9-4.7c4.2,3.5,7.6,8.1,11.6,11.9C323.4,264.1,328.6,267.3,334.1,267.1z"/>
<path style="fill:#FFFFFF;" d="M300,295.5c7.5,10.9,10.3,24.9,7.5,37.8c-2.3-6.6-5.9-12.9-10.4-18.3c1.1,4,2.3,8.1,2.2,12.3  c0,5.4-2,10.6-4.3,15.5c-2.6,5.6-5.7,11.1-9.8,15.6c-4.2,4.6-9.5,8.2-15.6,9.5c3.3-5,6.1-10.4,8.3-15.9c-2.1,3.8-5.9,6.6-10,8.3  c-4.8,1.9-10.1,2.4-15.3,2.5h-0.1c-5.2-0.1-10.5-0.5-15.3-2.5c-4.1-1.6-7.8-4.5-10-8.3c2.3,5.5,5,10.9,8.3,15.9  c-6-1.3-11.4-5-15.6-9.5c-4.2-4.6-7.2-10-9.8-15.6c-2.3-4.9-4.3-10.1-4.4-15.5c0-4.2,1.1-8.3,2.2-12.3c-4.5,5.4-8.1,11.7-10.4,18.3  c-2.8-12.9,0-26.9,7.5-37.8c-6,2.6-11,14.2-11.6,15.6c1-5.9,2-11.8,4.3-17.3s5.6-10.1,10.8-13.1c-0.5-9.3,0-17,1.3-23.5  c3.6-18,13-26.3,22.1-30.1c10.4-4.3,20.4-2.6,20.5-2.6c0.1,0,10-1.7,20.5,2.6c9.1,3.8,18.5,12.1,22.1,30.1  c1.3,6.5,1.8,14.3,1.3,23.5c5.2,3,8.5,7.6,10.8,13.1s3.3,11.5,4.3,17.3C311,309.7,306,298.1,300,295.5z"/>
<path style="fill:#ACB3BA;" d="M170.9,267.1c10.2,1.6,20.9,0.2,30.3-4.1c1.1-0.5,2.1-1,3.1-1.6c2-1.2,3.9-2.6,5.6-4.2  c3.6-18,13-26.3,22.1-30.1c0.2-0.9,0.8-1.7,1.3-2.5c2.7-4.4,9.9-20.2-1.1-30.6c-18.7-17.8-28.9,7.5-31.4,9.6c-2.3,2-5.1,3.3-7.9,4.7  c-3,1.4-5.9,2.9-8.9,4.3c-3.3,1.6-6.9,3.2-10.4,2.1c5.2,1.8,10.7,2.9,16.2,3.1c-3.7,3.8-8,7.9-13.3,8.1c3.8,3.1,8.7,4.9,13.6,4.8  c-3.6,4.5-9.2,7.3-14.9,7.7c5.3,3.8,12.3,5,18.5,3c-3.3,1.8-5.8,4.8-8.6,7.3s-6.3,4.7-10,4.4c7.5,1.9,15.9,0.1,21.9-4.7  c-4.2,3.5-7.6,8.1-11.6,11.9C181.5,264.1,176.4,267.3,170.9,267.1z"/>
<g>
	<path style="fill:#2B3B4E;" d="M276.8,301.1c-2.8,1.3-5.9,1.6-8.9,1.1c-1.2-0.2-2.4-0.5-3.5-0.2c-1.4,0.4-2.3,1.7-3.1,2.9   c-0.1,0.1-0.1,0.2-0.2,0.3c-0.8,1.2-1.6,2.5-1.5,3.9s1.2,2.7,1.4,4.1c0.2,1.6-0.9,3.1-2.3,4c-1.4,0.8-3,1.1-4.6,1.3   c-0.5,0.1-1,0.1-1.6,0.2v-32.5c0.1,0,0.3,0,0.4,0c1.6,0,3.2,0,4.8,0c2.7,0,5.4,0,7.9,0.9c3.2,1.2,5.6,3.8,7.8,6.5   c1.5,1.8,2.9,3.6,4.2,5.5c0.1,0.2,0.3,0.4,0.3,0.7C278,300.4,277.3,300.9,276.8,301.1z"/>
	<path style="fill:#2B3B4E;" d="M228.2,301.1c2.8,1.3,5.9,1.6,8.9,1.1c1.2-0.2,2.4-0.5,3.5-0.2c1.4,0.4,2.3,1.7,3.1,2.9   c0.1,0.1,0.1,0.2,0.2,0.3c0.8,1.2,1.6,2.5,1.5,3.9s-1.2,2.7-1.4,4.1c-0.2,1.6,0.9,3.1,2.3,4c1.4,0.8,3,1.1,4.6,1.3   c0.5,0.1,1,0.1,1.6,0.2v-32.5c-0.1,0-0.3,0-0.4,0c-1.6,0-3.2,0-4.8,0c-2.7,0-5.4,0-7.9,0.9c-3.2,1.2-5.6,3.8-7.8,6.5   c-1.5,1.8-2.9,3.6-4.2,5.5c-0.1,0.2-0.3,0.4-0.3,0.7C227,300.4,227.6,300.9,228.2,301.1z"/>
</g>
<g>
	<path style="fill:#324A5E;" d="M252.5,337.5L252.5,337.5c-0.1,0-22.7-1.1-31-5.9c0.8,0.9,13.5,15.9,30.9,15.9h0.1   c17.3,0,30.1-14.9,30.9-15.9C275.1,336.3,252.5,337.5,252.5,337.5z"/>
	<path style="fill:#324A5E;" d="M252.5,275.8L252.5,275.8c-31.7,0-28.9,23.2-27.4,26.8c3.5,8.4,11.4,12.4,13.2,13.3   c12.2,5.9,13.3,18.1,14.1,19.1h0.1c0.8-1,1.9-13.2,14.1-19.1c1.9-0.9,9.7-4.9,13.2-13.3C281.4,299,284.2,275.8,252.5,275.8z"/>
</g>
<path style="fill:#2B3B4E;" d="M302.5,235.1c1-0.8,1.8-1.8,2.4-2.9c0.5-0.9,0.9-1.9,1.2-2.8c0.2-0.6,0.5-1.3,0.3-1.9  c-0.2-0.7-0.9-1.1-1.4-1.4c-0.8-0.5-1.6-1-2.4-1.5c-0.4-0.2-0.8-0.5-1.2-0.6c-0.9-0.4-1.9-0.5-2.9-0.5c-1.7-0.1-3.4-0.2-4.9,0.6  c-0.7,0.3-1.3,0.9-1.9,1.4c-0.8,0.7-1.6,1.4-2.5,2c-0.6,0.5-1.2,1-1.7,1.6s-1,1.4-1.2,2.2c0.2,0,0.4,0.2,0.5,0.4  c0.4,0.5,0.9,0.8,1.4,1.2c0.7,0.5,1.4,1,2.2,1.5c0.9,0.6,1.8,1.3,2.8,1.8c0.4,0.2,0.8,0.4,1.2,0.5c0.4,0.1,0.8,0.2,1.2,0.3  c0.8,0.1,1.5,0.3,2.3,0.3c1.1,0,2.2-0.3,3.1-0.7C301.4,236,302,235.6,302.5,235.1z"/>
<circle style="fill:#FFD05B;" cx="296.9" cy="230.3" r="6.7"/>
<path style="fill:#324A5E;" d="M312.7,229.8c-0.5,0.1-1.1,0-1.6-0.1c-0.4-0.1-0.9-0.3-1.3-0.5c-0.8-0.9-1.6-1.9-2.4-2.8l-1.5-1.3  c-0.5-0.4-1-0.9-1.6-1.2c-1.2-0.7-2.4-1.3-3.8-1.6c-0.7-0.2-1.4-0.2-2.1-0.3s-1.4-0.1-2.1,0.1c-1.4,0.2-2.7,0.7-3.9,1.4  c-1.2,0.7-2.2,1.5-3.1,2.5c-1.8,1.9-3.2,4.1-4,6.5c0.3-0.4,0.7-0.7,1-1.1c0.4,0.5,1.2,1.7,2.7,3.1c1,0.9,2.3,1.9,3.8,2.6  c0.8,0.4,1.6,0.8,2.6,1c0.9,0.3,1.9,0.3,2.9,0.4c1-0.1,2.1-0.2,3-0.7c1-0.3,1.7-1.1,2.4-1.7c0.7-0.6,1.1-1.4,1.5-2.1  c0.4-0.7,0.6-1.4,0.8-2.1c0.5-1.1,0.5-2.1,0.6-2.8l1.8,1.6l0.2,0.2l0,0c0.8,0.3,1.4,0.4,2.2,0.5c0.7,0,1.5-0.1,2.1-0.4  c1.4-0.6,2.3-1.7,2.7-3C314.8,228.9,313.8,229.7,312.7,229.8z M304.5,231.2c-0.4,0.5-0.7,1.1-1.1,1.6c-0.5,0.4-0.9,1-1.5,1.4  s-1.1,0.8-1.8,1c-0.6,0.3-1.3,0.3-2,0.4c-0.7,0-1.4,0-2.2-0.2c-0.7-0.1-1.5-0.3-2.2-0.6c-1.4-0.5-2.7-1.1-3.9-1.6  c-1.7-0.8-3-1.5-3.6-1.8c1.3-1.4,2.7-2.7,4.2-3.8c0.9-0.7,1.9-1.3,3-1.7c1-0.5,2.1-0.8,3.1-0.8c0.5-0.1,1.1-0.1,1.6,0  c0.5,0,1.1,0,1.6,0.3c0.5,0.2,1.1,0.2,1.6,0.5l1.5,0.7c1,0.5,1.9,1.3,2.9,1.9l0.3,0.3C305.7,229.2,305.3,230.2,304.5,231.2z"/>
<g>
	<ellipse style="fill:#2B3B4E;" cx="295.8" cy="229.7" rx="1.9" ry="2.7"/>
	<path style="fill:#2B3B4E;" d="M202.4,235.1c-1-0.8-1.8-1.8-2.4-2.9c-0.5-0.9-0.9-1.9-1.2-2.8c-0.2-0.6-0.5-1.3-0.3-1.9   c0.2-0.7,0.9-1.1,1.4-1.4c0.8-0.5,1.6-1,2.4-1.5c0.4-0.2,0.8-0.5,1.2-0.6c0.9-0.4,1.9-0.5,2.9-0.5c1.7-0.1,3.4-0.2,4.9,0.6   c0.7,0.3,1.3,0.9,1.9,1.4c0.8,0.7,1.6,1.4,2.5,2c0.6,0.5,1.2,1,1.7,1.6s1,1.4,1.2,2.2c-0.2,0-0.4,0.2-0.5,0.4   c-0.4,0.5-0.9,0.8-1.4,1.2c-0.7,0.5-1.4,1-2.2,1.5c-0.9,0.6-1.8,1.3-2.8,1.8c-0.4,0.2-0.8,0.4-1.2,0.5s-0.8,0.2-1.2,0.3   c-0.8,0.1-1.5,0.3-2.3,0.3c-1.1,0-2.2-0.3-3.1-0.7C203.6,236,203,235.6,202.4,235.1z"/>
</g>
<circle style="fill:#FFD05B;" cx="208.1" cy="230.3" r="6.7"/>
<path style="fill:#324A5E;" d="M189.3,228c0.4,1.2,1.3,2.4,2.7,3c0.7,0.3,1.4,0.4,2.1,0.4c0.7,0,1.4-0.2,2.2-0.5l0,0l0.2-0.2  l1.8-1.6c0.1,0.7,0.1,1.8,0.6,2.8c0.2,0.6,0.4,1.4,0.8,2.1c0.5,0.7,0.9,1.5,1.5,2.1c0.7,0.6,1.4,1.4,2.4,1.7c0.9,0.5,2,0.6,3,0.7  c1-0.1,2-0.1,2.9-0.4c0.9-0.2,1.8-0.6,2.6-1c1.6-0.8,2.8-1.7,3.8-2.6c1.5-1.4,2.4-2.6,2.7-3.1c0.3,0.4,0.7,0.7,1,1.1  c-0.8-2.4-2.2-4.6-4-6.5c-0.9-0.9-1.9-1.8-3.1-2.5c-1.2-0.7-2.5-1.2-3.9-1.4c-0.7-0.2-1.4-0.2-2.1-0.1c-0.7,0-1.4,0.1-2.1,0.3  c-1.4,0.3-2.6,0.9-3.8,1.6c-0.6,0.3-1.1,0.7-1.6,1.2l-1.5,1.3c-0.9,0.9-1.6,1.8-2.4,2.8c-0.4,0.2-0.8,0.4-1.3,0.5s-1.1,0.2-1.6,0.1  C191.2,229.7,190.2,228.9,189.3,228z M199,228.6l0.3-0.3c1-0.6,1.9-1.4,2.9-1.9l1.5-0.7c0.5-0.2,1-0.3,1.6-0.5  c0.5-0.2,1-0.2,1.6-0.3c0.5-0.1,1.1-0.1,1.6,0c1.1,0.1,2.1,0.4,3.1,0.8c1,0.4,2,1,3,1.7c1.5,1.1,2.9,2.4,4.2,3.8  c-0.6,0.3-1.8,1-3.6,1.8c-1.1,0.6-2.5,1.1-3.9,1.6c-0.7,0.2-1.4,0.4-2.2,0.6c-0.7,0.2-1.5,0.2-2.2,0.2c-0.7-0.1-1.4-0.1-2-0.4  c-0.7-0.2-1.2-0.6-1.8-1c-0.5-0.4-1-1-1.5-1.4c-0.4-0.5-0.8-1.1-1.1-1.6C199.7,230.2,199.3,229.2,199,228.6z"/>
<ellipse style="fill:#2B3B4E;" cx="209.2" cy="229.7" rx="1.9" ry="2.7"/>
<g>
	<path style="fill:#ACB3BA;" d="M358.5,223.5c8,10.1,14.8,21.6,20.1,34.3c1.9,4.7,3.7,9.6,4.6,14.8c1.7,9.2,1,18.9-0.3,28.2   c-1.3,9.2-3.1,18.5-6.9,26.7c-3.9,8.2-10.1,15.3-17.4,17.7c7.8-7.2,12.9-18.7,13.1-30.1c-8.7,16.9-16.8,33.9-24.3,51.2   c-1.6,3.7-3.3,7.6-6.2,10.3c-1.8,1.7-4,2.7-6.2,3.5c-11.7,4.4-24,1.8-33.1-5c5.5,2.6,12.3,1,17.6-2.9c5.3-3.9,9.1-9.6,12.6-15.4   c7.4-12.3,13.7-25.3,18.8-39c3.7-10.1,6.9-20.8,7.2-31.8c0.4-11-2.3-22.3-8.7-30.3c3-1.1,5.1,3.4,6.3,6.8c2.9,7.7,9.4,15,7.8,23.6   c8.5-22.2,3.6-50.6-11.4-67.9C354.6,218.9,356.6,221.2,358.5,223.5z"/>
	<path style="fill:#ACB3BA;" d="M146.5,223.5c-8,10.1-14.8,21.6-20.1,34.3c-1.9,4.7-3.7,9.6-4.6,14.8c-1.7,9.2-1,18.9,0.3,28.2   c1.3,9.2,3.1,18.5,6.9,26.7c3.9,8.2,10.1,15.3,17.4,17.7c-7.8-7.2-12.9-18.7-13.1-30.1c8.7,16.9,16.8,33.9,24.3,51.2   c1.6,3.7,3.3,7.6,6.2,10.3c1.8,1.7,4,2.7,6.2,3.5c11.7,4.4,24,1.8,33.1-5c-5.5,2.6-12.3,1-17.6-2.9s-9.1-9.6-12.6-15.4   c-7.4-12.3-13.7-25.3-18.8-39c-3.7-10.1-6.9-20.8-7.2-31.8c-0.4-11,2.3-22.3,8.7-30.3c-3-1.1-5.1,3.4-6.3,6.8   c-2.9,7.7-9.4,15-7.8,23.6c-8.5-22.2-3.6-50.6,11.4-67.9C150.4,218.9,148.4,221.2,146.5,223.5z"/>
</g>
<g>
	<circle style="fill:#2B3B4E;" cx="262.5" cy="301" r="6.6"/>
	<circle style="fill:#2B3B4E;" cx="241.2" cy="301" r="6.6"/>
</g>
<g>
</g>
<g>
</g>
<g>
</g>
<g>
</g>
<g>
</g>
<g>
</g>
<g>
</g>
<g>
</g>
<g>
</g>
<g>
</g>
<g>
</g>
<g>
</g>
<g>
</g>
<g>
</g>
<g>
</g>
</svg>
