<?xml version="1.0" encoding="iso-8859-1"?>
<!-- Generator: Adobe Illustrator 19.0.0, SVG Export Plug-In . SVG Version: 6.00 Build 0)  -->
<svg xmlns="http://www.w3.org/2000/svg" xmlns:xlink="http://www.w3.org/1999/xlink" version="1.1" id="Layer_1" x="0px" y="0px" viewBox="0 0 505 505" style="enable-background:new 0 0 505 505;" xml:space="preserve">
<circle style="fill:#FD8469;" cx="252.5" cy="252.5" r="252.5"/>
<g>
	<ellipse style="fill:#ACB3BA;" cx="252.5" cy="417.4" rx="63" ry="39"/>
	<circle style="fill:#ACB3BA;" cx="380.8" cy="137.8" r="43"/>
	<circle style="fill:#ACB3BA;" cx="124.2" cy="137.8" r="43"/>
</g>
<path style="fill:#E6E9EE;" d="M349.1,379.4c28.6-40,46.5-92.3,46.5-134.1c0-79-64.1-143.1-143.1-143.1s-143.1,64.1-143.1,143.1  c0,41.8,17.9,94.1,46.5,134.1H349.1z"/>
<g>
	<path style="fill:#CED5E0;" d="M302.1,321.2c-21.3,0-39.8,11.7-49.6,28.9c-9.8-17.3-28.4-28.9-49.6-28.9   c-31.6,0-57.1,25.6-57.1,57.1c0,31.6,25.6,57.1,57.1,57.1c21.3,0,39.8-11.7,49.6-28.9c9.8,17.3,28.4,28.9,49.6,28.9   c31.6,0,57.1-25.6,57.1-57.1C359.3,346.8,333.7,321.2,302.1,321.2z"/>
	<path style="fill:#CED5E0;" d="M285.7,325.9c0.2-3.8,0.3-7.7,0.3-11.7c0-48.5-15-87.8-33.5-87.8S219,265.7,219,314.2   c0,4,0.1,7.9,0.3,11.7H285.7z"/>
</g>
<path style="fill:#324A5E;" d="M285.7,326.6c0,14.9-14.9,35.3-33.2,35.3s-33.2-20.4-33.2-35.3s14.9-18.6,33.2-18.6  C270.8,308.1,285.7,311.8,285.7,326.6z"/>
<ellipse transform="matrix(0.4282 0.9037 -0.9037 0.4282 375.7384 -146.7622)" style="fill:#FFFFFF;" cx="303.841" cy="223.529" rx="29.8" ry="15.9"/>
<ellipse transform="matrix(0.4282 0.9037 -0.9037 0.4282 380.5703 -144.9628)" style="fill:#54C0EB;" cx="304.835" cy="228.247" rx="19.4" ry="12.5"/>
<ellipse transform="matrix(0.4282 0.9037 -0.9037 0.4282 380.5703 -144.9628)" style="fill:#2B3B4E;" cx="304.835" cy="228.247" rx="9.8" ry="6.3"/>
<ellipse style="fill:#FFFFFF;" cx="300" cy="218.8" rx="3.9" ry="4.7"/>
<path style="fill:#324A5E;" d="M275.2,178.1c0,0,2.8-1.2,6.7-2.2c1-0.3,2-0.4,3.1-0.7c1.1-0.1,2.2-0.4,3.4-0.4  c1.1-0.1,2.3-0.1,3.5,0c1.2,0,2.4,0.3,3.6,0.4c1.2,0.3,2.4,0.4,3.5,0.8c1.1,0.5,2.4,0.6,3.5,1.1c1.1,0.4,2.2,0.9,3.3,1.3  c1,0.5,2,1,3,1.4c1.9,0.8,3.5,1.7,4.7,2.2s1.9,0.8,1.9,0.8s-0.3-0.7-0.9-1.9c-0.3-0.6-0.7-1.3-1.2-2c-0.5-0.8-1.1-1.7-1.9-2.5  s-1.6-1.8-2.6-2.7s-2.2-1.7-3.4-2.5c-1.2-0.9-2.7-1.4-4.1-2.1c-1.4-0.7-3.1-0.9-4.6-1.4c-1.6-0.2-3.3-0.4-4.9-0.3  c-1.6,0.1-3.2,0.3-4.7,0.8c-1.5,0.3-2.8,1-4,1.6c-1.2,0.7-2.3,1.4-3.2,2.1c-1.9,1.4-3,3-3.8,4.1  C275.4,177.4,275.2,178.1,275.2,178.1z"/>
<ellipse transform="matrix(0.4282 -0.9037 0.9037 0.4282 -86.9748 309.5316)" style="fill:#FFFFFF;" cx="201.106" cy="223.494" rx="29.8" ry="15.9"/>
<ellipse transform="matrix(0.4282 -0.9037 0.9037 0.4282 -91.7534 311.4214)" style="fill:#54C0EB;" cx="200.21" cy="228.215" rx="19.4" ry="12.5"/>
<ellipse transform="matrix(0.4282 -0.9037 0.9037 0.4282 -91.7516 311.4203)" style="fill:#2B3B4E;" cx="200.21" cy="228.213" rx="9.8" ry="6.3"/>
<ellipse style="fill:#FFFFFF;" cx="205" cy="218.8" rx="3.9" ry="4.7"/>
<path style="fill:#324A5E;" d="M229.8,178.1c0,0-2.8-1.2-6.7-2.2c-1-0.3-2-0.4-3.1-0.7c-1.1-0.1-2.2-0.4-3.4-0.4  c-1.1-0.1-2.3-0.1-3.5,0c-1.2,0-2.4,0.3-3.6,0.4c-1.2,0.3-2.4,0.4-3.5,0.8c-1.1,0.5-2.4,0.6-3.5,1.1c-1.1,0.4-2.2,0.9-3.3,1.3  c-1,0.5-2,1-3,1.4c-1.9,0.8-3.5,1.7-4.7,2.2s-1.9,0.8-1.9,0.8s0.3-0.7,0.9-1.9c0.3-0.6,0.7-1.3,1.2-2c0.5-0.8,1.1-1.7,1.9-2.5  c0.8-0.8,1.6-1.8,2.6-2.7s2.2-1.7,3.4-2.5c1.2-0.9,2.7-1.4,4.1-2.1c1.4-0.7,3.1-0.9,4.6-1.4c1.6-0.2,3.3-0.4,4.9-0.3  c1.6,0.1,3.2,0.3,4.7,0.8c1.5,0.3,2.8,1,4,1.6c1.2,0.7,2.3,1.4,3.2,2.1c1.9,1.4,3,3,3.8,4.1C229.6,177.4,229.8,178.1,229.8,178.1z"/>
<g>
</g>
<g>
</g>
<g>
</g>
<g>
</g>
<g>
</g>
<g>
</g>
<g>
</g>
<g>
</g>
<g>
</g>
<g>
</g>
<g>
</g>
<g>
</g>
<g>
</g>
<g>
</g>
<g>
</g>
</svg>
