<?xml version="1.0" encoding="iso-8859-1"?>
<!-- Generator: Adobe Illustrator 19.0.0, SVG Export Plug-In . SVG Version: 6.00 Build 0)  -->
<svg xmlns="http://www.w3.org/2000/svg" xmlns:xlink="http://www.w3.org/1999/xlink" version="1.1" id="Layer_1" x="0px" y="0px" viewBox="0 0 505 505" style="enable-background:new 0 0 505 505;" xml:space="preserve">
<circle style="fill:#FFD05B;" cx="252.5" cy="252.5" r="252.5"/>
<path style="fill:#FF7058;" d="M335.8,232.1l-7.4-13L307,181.2c0,0,7.4-83.3,96.8-91.3C403.8,90,469.4,192.3,335.8,232.1z"/>
<path style="fill:#F1543F;" d="M335.8,232.1l-7.4-13c4.5-64.6,75.4-129.2,75.4-129.2S469.4,192.3,335.8,232.1z"/>
<path style="fill:#FF7058;" d="M169.2,232.1l7.4-13l21.4-37.9c0,0-7.4-83.3-96.8-91.3C101.1,90,35.6,192.3,169.2,232.1z"/>
<path style="fill:#F1543F;" d="M169.2,232.1l7.4-13c-4.5-64.6-75.4-129.2-75.4-129.2S35.6,192.3,169.2,232.1z"/>
<ellipse style="fill:#FF7058;" cx="252.5" cy="272.1" rx="119" ry="133"/>
<g>
	<path style="fill:#FFFFFF;" d="M289.1,358.2c0,0,0.1,0,0.3,0c0.3,0,0.5-0.1,0.7-0.1s0.5,0,0.8,0c0.4-0.1,1-0.2,1.5-0.3   c1.1-0.2,2.6-0.6,4.2-1.1c1.6-0.6,3.5-1.2,5.4-2.2c1-0.4,2-0.9,2.9-1.6c0.9-0.6,2.1-1.2,3-1.9c1-0.8,2-1.6,3-2.4   c1.1-0.8,1.8-1.9,2.8-2.8l1.4-1.5c0.4-0.5,0.8-1.1,1.2-1.7c0.8-1.2,1.7-2.4,2.5-3.6c0.6-1.4,1.3-2.8,1.9-4.1l1-2.1l0.6-2.3l1.3-4.7   c0.5-1.6,0.5-3.2,0.7-4.9c0.2-1.7,0.4-3.3,0.6-4.9s0-3.3,0-4.9s-0.1-3.2-0.1-4.8c0-0.8,0-1.6,0-2.4c-0.1-0.8-0.2-1.5-0.3-2.3   c-0.4-3-0.8-5.9-1.2-8.6c-0.3-2.7-1-5.1-1.5-7.2s-1-4-1.4-5.6c-0.8-3.1-1.2-4.9-1.2-4.9s0.9,1.6,2.4,4.4c0.8,1.4,1.7,3.1,2.7,5.1   s2.4,4.2,3.3,6.8c1,2.6,2.2,5.4,3.4,8.4c0.3,0.8,0.6,1.5,0.9,2.3c0.2,0.8,0.4,1.6,0.7,2.4c0.4,1.7,0.9,3.4,1.4,5.1   c0.4,1.7,1,3.5,1.3,5.3c0.2,1.9,0.5,3.8,0.7,5.7c0.2,1.9,0.6,3.9,0.6,5.9l-0.2,6.1l-0.1,3.1l-0.6,3.1c-0.4,2.1-0.8,4.1-1.2,6.2   c-0.6,2-1.4,4-2.1,5.9c-0.4,1-0.7,2-1.1,2.9c-0.5,0.9-1,1.8-1.5,2.7c-1,1.8-1.9,3.7-3.1,5.3c-1.2,1.6-2.4,3.2-3.5,4.7   c-1.2,1.5-2.5,2.8-3.8,4.1c-1.2,1.3-2.5,2.5-3.8,3.6c-2.5,2.2-5,4-7.3,5.5s-4.4,2.7-6.2,3.6c-0.9,0.4-1.7,0.8-2.4,1.2   c-0.9,0.4-1.6,0.7-2.2,0.9c-1,0.4-1.5,0.6-1.5,0.6L289.1,358.2z"/>
	<path style="fill:#FFFFFF;" d="M208.7,386c0,0-0.5-0.2-1.5-0.6c-0.6-0.2-1.3-0.5-2.2-0.9c-0.7-0.3-1.5-0.7-2.4-1.2   c-1.8-0.9-3.9-2.1-6.2-3.6s-4.8-3.3-7.3-5.5c-1.3-1-2.6-2.2-3.8-3.6c-1.2-1.3-2.6-2.6-3.8-4.1c-1.1-1.5-2.3-3.1-3.5-4.7   s-2-3.5-3.1-5.3c-0.5-0.9-1-1.8-1.5-2.7c-0.4-0.9-0.8-1.9-1.1-2.9c-0.7-2-1.5-3.9-2.1-5.9c-0.4-2-0.8-4.1-1.2-6.2l-0.6-3.1   l-0.1-3.1l-0.2-6.1c-0.1-2,0.4-3.9,0.6-5.9c0.2-1.9,0.5-3.8,0.7-5.7c0.3-1.8,0.9-3.6,1.3-5.3c0.5-1.7,0.9-3.4,1.4-5.1   c0.2-0.8,0.5-1.6,0.7-2.4c0.3-0.8,0.6-1.5,0.9-2.3c1.2-3,2.3-5.8,3.4-8.4c0.9-2.6,2.3-4.8,3.3-6.8c1.1-2,2-3.7,2.7-5.1   c1.5-2.8,2.4-4.4,2.4-4.4s-0.4,1.8-1.2,4.9c-0.4,1.5-0.8,3.4-1.4,5.6c-0.5,2.2-1.3,4.5-1.5,7.2c-0.4,2.7-0.8,5.5-1.2,8.6   c-0.1,0.8-0.2,1.5-0.3,2.3c0,0.8,0,1.6,0,2.4c0,1.6-0.1,3.2-0.1,4.8c0,1.6-0.1,3.3,0,4.9c0.2,1.6,0.4,3.3,0.6,4.9   c0.3,1.6,0.3,3.3,0.7,4.9l1.3,4.7l0.6,2.3l1,2.1c0.6,1.4,1.3,2.8,1.9,4.1c0.8,1.2,1.7,2.4,2.5,3.6c0.4,0.6,0.8,1.2,1.2,1.7l1.4,1.5   c1,1,1.7,2,2.8,2.8c1,0.8,2,1.6,3,2.4c0.9,0.8,2.1,1.3,3,1.9s1.9,1.2,2.9,1.6c1.9,1,3.7,1.6,5.4,2.2c1.6,0.5,3.1,0.9,4.2,1.1   c0.6,0.1,1.1,0.2,1.5,0.3c0.3,0,0.6,0,0.8,0c0.1,0,0.4,0,0.7,0.1c0.2,0,0.3,0,0.3,0L208.7,386z"/>
</g>
<path style="fill:#E6E9EE;" d="M313.9,370.5c0,24.6-27.5,44.5-61.4,44.5s-61.4-19.9-61.4-44.5s27.5-57.1,61.4-57.1  S313.9,346,313.9,370.5z"/>
<g>
	<circle style="fill:#ACB3BA;" cx="278.5" cy="369" r="13.3"/>
	<circle style="fill:#ACB3BA;" cx="226.5" cy="369" r="13.3"/>
</g>
<path style="fill:#FFFFFF;" d="M277.8,239c1.4,11,9.9,19.5,19.1,19.1c9.2-0.5,15.5-9.8,14.2-20.8c-1.4-11-9.9-19.5-19.1-19.1  C282.7,218.7,276.4,228,277.8,239z"/>
<path style="fill:#84DBFF;" d="M280.5,242c0.9,7.1,7.5,12.6,14.7,12.3c7.2-0.4,12.3-6.4,11.4-13.6c-0.9-7.1-7.5-12.6-14.7-12.3  C284.7,228.8,279.6,234.9,280.5,242z"/>
<path style="fill:#2B3B4E;" d="M287,241.7c0.5,3.6,3.8,6.4,7.4,6.2c3.7-0.2,6.2-3.3,5.8-6.9c-0.5-3.6-3.8-6.4-7.4-6.2  C289.1,235,286.5,238.1,287,241.7z"/>
<path style="fill:#FFFFFF;" d="M288.5,233.3c-1,1.6,0,3.4,2.1,3.9s4.6-0.4,5.6-2s0-3.4-2.1-3.9S289.4,231.7,288.5,233.3z"/>
<path style="fill:#324A5E;" d="M276.4,210.9c0,0,2.6-1.1,6-2c0.9-0.3,1.8-0.4,2.8-0.6c1-0.1,2-0.3,3-0.3c1-0.1,2.1,0,3.1,0  c1.1,0,2.1,0.2,3.2,0.4c1.1,0.3,2.1,0.4,3.2,0.8c1,0.4,2.1,0.6,3.1,1s2,0.8,3,1.2c0.9,0.5,1.8,0.9,2.7,1.2c1.7,0.7,3.1,1.6,4.2,2  c1.1,0.5,1.7,0.7,1.7,0.7s-0.3-0.6-0.8-1.7c-0.3-0.5-0.6-1.2-1.1-1.8c-0.4-0.7-1-1.5-1.7-2.2c-0.7-0.8-1.4-1.6-2.3-2.4  c-0.9-0.8-1.9-1.5-3-2.2c-1.1-0.8-2.4-1.3-3.7-1.9c-1.3-0.6-2.8-0.8-4.2-1.2c-1.5-0.2-2.9-0.4-4.4-0.3c-1.5,0.1-2.9,0.3-4.2,0.7  c-1.3,0.3-2.5,0.9-3.6,1.4c-1.1,0.6-2.1,1.2-2.9,1.9c-1.7,1.3-2.7,2.7-3.4,3.7C276.6,210.2,276.4,210.9,276.4,210.9z"/>
<path style="fill:#FFFFFF;" d="M227.2,239c-1.4,11-9.9,19.5-19.1,19.1c-9.2-0.5-15.5-9.8-14.2-20.8c1.4-11,9.9-19.5,19.1-19.1  C222.3,218.7,228.6,228,227.2,239z"/>
<path style="fill:#84DBFF;" d="M224.5,242c-0.9,7.1-7.5,12.6-14.7,12.3c-7.2-0.4-12.3-6.4-11.4-13.6c0.9-7.1,7.5-12.6,14.7-12.3  C220.3,228.8,225.4,234.9,224.5,242z"/>
<path style="fill:#2B3B4E;" d="M218,241.7c-0.5,3.6-3.8,6.4-7.4,6.2c-3.7-0.2-6.2-3.3-5.8-6.9c0.5-3.6,3.8-6.4,7.4-6.2  C215.9,235,218.5,238.1,218,241.7z"/>
<path style="fill:#FFFFFF;" d="M216.5,233.3c1,1.6,0,3.4-2.1,3.9s-4.6-0.4-5.6-2s0-3.4,2.1-3.9S215.6,231.7,216.5,233.3z"/>
<path style="fill:#324A5E;" d="M228.6,210.9c0,0-2.6-1.1-6-2c-0.9-0.3-1.8-0.4-2.8-0.6c-1-0.1-2-0.3-3-0.3c-1-0.1-2.1,0-3.1,0  c-1.1,0-2.1,0.2-3.2,0.4c-1.1,0.3-2.1,0.4-3.2,0.8c-1,0.4-2.1,0.6-3.1,1s-2,0.8-3,1.2c-0.9,0.5-1.8,0.9-2.7,1.2  c-1.7,0.7-3.1,1.6-4.2,2c-1.1,0.5-1.7,0.7-1.7,0.7s0.3-0.6,0.8-1.7c0.3-0.5,0.6-1.2,1.1-1.8c0.4-0.7,1-1.5,1.7-2.2  c0.7-0.8,1.4-1.6,2.3-2.4c0.9-0.8,1.9-1.5,3-2.2c1.1-0.8,2.4-1.3,3.7-1.9c1.3-0.6,2.8-0.8,4.1-1.2c1.5-0.2,2.9-0.4,4.4-0.3  c1.5,0.1,2.9,0.3,4.2,0.7c1.3,0.3,2.5,0.9,3.6,1.4c1.1,0.6,2.1,1.2,2.9,1.9c1.7,1.3,2.7,2.7,3.4,3.7  C228.4,210.2,228.6,210.9,228.6,210.9z"/>
<g>
</g>
<g>
</g>
<g>
</g>
<g>
</g>
<g>
</g>
<g>
</g>
<g>
</g>
<g>
</g>
<g>
</g>
<g>
</g>
<g>
</g>
<g>
</g>
<g>
</g>
<g>
</g>
<g>
</g>
</svg>
