<?xml version="1.0" encoding="iso-8859-1"?>
<!-- Generator: Adobe Illustrator 19.0.0, SVG Export Plug-In . SVG Version: 6.00 Build 0)  -->
<svg xmlns="http://www.w3.org/2000/svg" xmlns:xlink="http://www.w3.org/1999/xlink" version="1.1" id="Layer_1" x="0px" y="0px" viewBox="0 0 505 505" style="enable-background:new 0 0 505 505;" xml:space="preserve">
<circle style="fill:#54C0EB;" cx="252.5" cy="252.5" r="252.5"/>
<g>
	<path style="fill:#CED5E0;" d="M296.8,119.7c0,0,65.2-11.8,125.3,14.1c10.5,4.6,15.5,15.7,12,26.1   c-11.9,35.6-48.9,114.4-151.8,147.1L296.8,119.7z"/>
	<path style="fill:#CED5E0;" d="M208.2,119.7c0,0-65.2-11.8-125.3,14.1c-10.5,4.6-15.5,15.7-12,26.1   c11.9,35.6,48.9,114.4,151.8,147.1L208.2,119.7z"/>
</g>
<path style="fill:#FFFFFF;" d="M309.6,317.5c24.9,37.1,67.6,56.3,109.4,50.3c-42.3-3.6-73-31.3-84.6-63.3  C326.2,308.8,317.9,313.1,309.6,317.5z"/>
<path style="fill:#E6E9EE;" d="M335.9,308.8c-7.6,4.4-15.1,8.9-22.7,13.3c-2.1,1.3-5.4-0.4-7.1-3.7c-9.4-18.2-14.4-38.9-13.7-60.9  c11.7,0.4,23.4,0.8,35.1,1.2c-0.5,15.7,3.1,30.6,9.8,43.6C338.5,304.7,338,307.6,335.9,308.8z"/>
<path style="fill:#FFFFFF;" d="M195.4,317.5c-24.9,37.1-67.6,56.3-109.4,50.3c42.3-3.6,73-31.3,84.6-63.3  C178.9,308.8,187.1,313.1,195.4,317.5z"/>
<g>
	<path style="fill:#E6E9EE;" d="M169.1,308.8c7.6,4.4,15.1,8.9,22.7,13.3c2.1,1.3,5.4-0.4,7.1-3.7c9.4-18.2,14.4-38.9,13.7-60.9   c-11.7,0.4-23.4,0.8-35.1,1.2c0.5,15.7-3.1,30.6-9.8,43.6C166.5,304.7,167,307.6,169.1,308.8z"/>
	<path style="fill:#E6E9EE;" d="M352.3,211.8c0-61.1-44.7-110.6-99.8-110.6s-99.8,49.5-99.8,110.6c0,44.7,24,83.1,58.5,100.6   c13,49,23,100.6,29.9,153.4c7.6-2.2,15.3-2.2,22.8,0c6.9-52.9,16.9-104.4,29.9-153.4C328.3,294.9,352.3,256.5,352.3,211.8z"/>
</g>
<g>
	<path style="fill:#CED5E0;" d="M281.9,340c0,0-0.9-0.4-2.4-1s-3.8-1.2-6.6-1.8c-5.5-1.2-12.9-2-20.4-2s-14.9,0.8-20.4,2   c-2.7,0.6-5,1.2-6.6,1.8c-1.6,0.6-2.4,1-2.4,1s0.2-0.2,0.5-0.4c0.3-0.3,0.9-0.7,1.6-1.2c1.4-0.9,3.5-2.2,6.3-3.2   c2.7-1.1,6-2,9.6-2.6s7.5-0.9,11.4-1c3.9,0,7.8,0.3,11.4,1c3.6,0.6,6.9,1.6,9.6,2.6c2.7,1.1,4.8,2.3,6.3,3.2   c0.7,0.5,1.2,0.9,1.6,1.2C281.7,339.8,281.9,340,281.9,340z"/>
	<path style="fill:#CED5E0;" d="M280.2,358.6c0,0-0.8-0.4-2.3-0.9c-1.5-0.6-3.6-1.1-6.2-1.7c-5.2-1.1-12.2-1.8-19.2-1.8   s-14,0.7-19.2,1.8c-2.6,0.6-4.7,1.1-6.2,1.7c-1.5,0.5-2.3,0.9-2.3,0.9s0.6-0.6,2-1.5c1.3-0.9,3.3-2.1,5.9-3.1   c2.6-1,5.7-1.9,9.1-2.5c3.4-0.6,7.1-0.9,10.7-0.9c3.7,0,7.3,0.3,10.7,0.9c3.4,0.6,6.5,1.5,9.1,2.5s4.6,2.2,5.9,3.1   c0.7,0.4,1.2,0.8,1.5,1.1C280,358.5,280.2,358.6,280.2,358.6z"/>
	<path style="fill:#CED5E0;" d="M275.2,377.6c0,0-2.8-1.2-7-2s-10-1.4-15.7-1.3c-5.7,0-11.4,0.5-15.7,1.3c-4.2,0.8-7,1.9-7,1.9   s2.1-2.2,6.4-4c2.1-0.9,4.7-1.7,7.5-2.2s5.9-0.8,8.8-0.8c3,0,6.1,0.3,8.8,0.8c2.8,0.5,5.4,1.3,7.5,2.2c2.1,0.9,3.7,1.9,4.8,2.6   C274.7,377,275.2,377.6,275.2,377.6z"/>
	<path style="fill:#CED5E0;" d="M271.6,395.6c0,0-2.4-0.9-5.9-1.5c-3.6-0.6-8.3-1-13.1-1c-4.8,0-9.6,0.4-13.1,1   c-3.6,0.6-5.9,1.5-5.9,1.5s1.7-2,5.3-3.5c1.8-0.8,3.9-1.5,6.3-1.9c2.3-0.5,5-0.7,7.5-0.7c5.1,0,10.2,1.1,13.7,2.6   c1.8,0.8,3.1,1.6,4,2.3C271.2,395.1,271.6,395.6,271.6,395.6z"/>
	<path style="fill:#CED5E0;" d="M268.5,414c0,0-2-0.7-5-1.1s-7-0.7-10.9-0.7c-4,0-7.9,0.3-10.9,0.7c-3,0.4-5,1.1-5,1.1   s1.4-1.7,4.4-3.1c1.5-0.7,3.3-1.3,5.3-1.7c2-0.4,4.2-0.6,6.3-0.6c4.3,0,8.6,1,11.5,2.4c1.5,0.7,2.6,1.5,3.3,2.1   C268.1,413.6,268.5,414,268.5,414z"/>
</g>
<path style="fill:#FFFFFF;" d="M279.9,201.4c1.1,9.1,8.2,16.2,15.9,15.8c7.6-0.4,12.9-8.1,11.7-17.2c-1.1-9.1-8.2-16.2-15.9-15.8  C284,184.5,278.7,192.2,279.9,201.4z"/>
<path style="fill:#84DBFF;" d="M282.1,203.8c0.7,5.9,6.2,10.5,12.2,10.2s10.2-5.3,9.5-11.3s-6.2-10.5-12.2-10.2  C285.7,192.9,281.4,197.9,282.1,203.8z"/>
<path style="fill:#2B3B4E;" d="M287.5,203.6c0.4,3,3.1,5.3,6.2,5.2c3-0.2,5.2-2.7,4.8-5.7c-0.4-3-3.1-5.3-6.2-5.2  S287.1,200.6,287.5,203.6z"/>
<path style="fill:#FFFFFF;" d="M288.7,196.6c-0.8,1.4,0,2.8,1.7,3.2c1.8,0.4,3.9-0.3,4.7-1.7c0.8-1.4,0-2.8-1.7-3.2  C291.6,194.5,289.6,195.3,288.7,196.6z"/>
<path style="fill:#324A5E;" d="M278.7,178c0,0,2.1-0.9,5-1.7c0.7-0.2,1.5-0.3,2.3-0.5c0.8-0.1,1.6-0.3,2.5-0.3c0.9-0.1,1.7,0,2.6,0  s1.8,0.2,2.6,0.3c0.9,0.2,1.8,0.3,2.6,0.6c0.8,0.3,1.8,0.5,2.6,0.9c0.9,0.3,1.7,0.7,2.5,1c0.8,0.4,1.5,0.7,2.2,1  c1.4,0.6,2.6,1.3,3.5,1.6c0.9,0.4,1.5,0.6,1.5,0.6s-0.2-0.5-0.7-1.4c-0.2-0.4-0.5-1-0.9-1.5c-0.4-0.6-0.8-1.2-1.4-1.8  s-1.2-1.3-1.9-2c-0.7-0.6-1.6-1.2-2.5-1.9s-2-1.1-3-1.5c-1.1-0.5-2.3-0.7-3.4-1c-1.2-0.1-2.4-0.3-3.6-0.2s-2.4,0.2-3.5,0.6  c-1.1,0.2-2.1,0.8-3,1.2c-0.9,0.5-1.7,1-2.4,1.6c-1.4,1.1-2.3,2.2-2.8,3.1C278.9,177.5,278.7,178,278.7,178z"/>
<path style="fill:#FFFFFF;" d="M225.1,201.4c-1.1,9.1-8.2,16.2-15.9,15.8c-7.6-0.4-12.9-8.1-11.7-17.2c1.1-9.1,8.2-16.2,15.9-15.8  C221,184.5,226.3,192.2,225.1,201.4z"/>
<path style="fill:#84DBFF;" d="M222.9,203.8c-0.7,5.9-6.2,10.5-12.2,10.2s-10.2-5.3-9.5-11.3s6.2-10.5,12.2-10.2  C219.3,192.9,223.6,197.9,222.9,203.8z"/>
<path style="fill:#2B3B4E;" d="M217.5,203.6c-0.4,3-3.1,5.3-6.2,5.2c-3-0.2-5.2-2.7-4.8-5.7s3.1-5.3,6.2-5.2  S217.9,200.6,217.5,203.6z"/>
<path style="fill:#FFFFFF;" d="M216.3,196.6c0.8,1.4,0,2.8-1.7,3.2c-1.8,0.4-3.9-0.3-4.7-1.7s0-2.8,1.7-3.2  C213.4,194.5,215.4,195.3,216.3,196.6z"/>
<path style="fill:#324A5E;" d="M226.3,178c0,0-2.1-0.9-5-1.7c-0.7-0.2-1.5-0.3-2.3-0.5c-0.8-0.1-1.6-0.3-2.5-0.3  c-0.9-0.1-1.7,0-2.6,0c-0.9,0-1.8,0.2-2.6,0.3c-0.9,0.2-1.8,0.3-2.6,0.6s-1.8,0.5-2.6,0.9c-0.9,0.3-1.7,0.7-2.5,1  c-0.8,0.4-1.5,0.7-2.2,1c-1.4,0.6-2.6,1.3-3.5,1.6c-0.9,0.4-1.5,0.6-1.5,0.6s0.2-0.5,0.7-1.4c0.2-0.4,0.5-1,0.9-1.5  c0.4-0.6,0.8-1.2,1.4-1.8c0.6-0.6,1.2-1.3,1.9-2c0.7-0.6,1.6-1.2,2.5-1.9s2-1.1,3-1.5c1.1-0.5,2.3-0.7,3.4-1  c1.2-0.1,2.4-0.3,3.6-0.2c1.2,0.1,2.4,0.2,3.5,0.6c1.1,0.2,2.1,0.8,3,1.2c0.9,0.5,1.7,1,2.4,1.6c1.4,1.1,2.3,2.2,2.8,3.1  C226.1,177.5,226.3,178,226.3,178z"/>
<g>
</g>
<g>
</g>
<g>
</g>
<g>
</g>
<g>
</g>
<g>
</g>
<g>
</g>
<g>
</g>
<g>
</g>
<g>
</g>
<g>
</g>
<g>
</g>
<g>
</g>
<g>
</g>
<g>
</g>
</svg>
