<?xml version="1.0" encoding="iso-8859-1"?>
<!-- Generator: Adobe Illustrator 19.0.0, SVG Export Plug-In . SVG Version: 6.00 Build 0)  -->
<svg xmlns="http://www.w3.org/2000/svg" xmlns:xlink="http://www.w3.org/1999/xlink" version="1.1" id="Layer_1" x="0px" y="0px" viewBox="0 0 505 505" style="enable-background:new 0 0 505 505;" xml:space="preserve">
<circle style="fill:#324A5E;" cx="252.5" cy="252.5" r="252.5"/>
<ellipse transform="matrix(-0.7071 -0.7071 0.7071 -0.7071 494.0329 577.3763)" style="fill:#E6E9EE;" cx="366.595" cy="186.371" rx="70.499" ry="61.899"/>
<ellipse transform="matrix(-0.7071 -0.7071 0.7071 -0.7071 462.4659 590.4314)" style="fill:#CED5E0;" cx="353.515" cy="199.436" rx="49.6" ry="43.5"/>
<ellipse transform="matrix(-0.7071 0.7071 -0.7071 -0.7071 368.2092 220.2912)" style="fill:#E6E9EE;" cx="138.481" cy="186.404" rx="70.499" ry="61.899"/>
<ellipse transform="matrix(-0.7071 0.7071 -0.7071 -0.7071 399.4583 233.2568)" style="fill:#CED5E0;" cx="151.42" cy="199.359" rx="49.6" ry="43.5"/>
<circle style="fill:#E6E9EE;" cx="252.5" cy="294.4" r="133.1"/>
<path style="fill:#324A5E;" d="M279.9,322.6c0,26.6-12.3,37.8-27.4,37.8s-27.4-11.2-27.4-37.8c0-26.6,12.3-58.6,27.4-58.6  C267.6,264,279.9,296,279.9,322.6z"/>
<path style="fill:#FFFFFF;" d="M286.1,273.7c1.4,11.5,10.4,20.4,20,19.9s16.2-10.2,14.8-21.7s-10.4-20.4-20-19.9  C291.3,252.4,284.7,262.2,286.1,273.7z"/>
<path style="fill:#F9B54C;" d="M289,276.8c0.9,7.5,7.8,13.2,15.3,12.8c7.5-0.4,12.9-6.7,12-14.2s-7.8-13.2-15.3-12.8  C293.4,263,288.1,269.3,289,276.8z"/>
<path style="fill:#2B3B4E;" d="M295.7,276.5c0.5,3.8,4,6.7,7.8,6.5s6.5-3.4,6.1-7.2c-0.5-3.8-4-6.7-7.8-6.5  C298,269.5,295.3,272.7,295.7,276.5z"/>
<path style="fill:#FFFFFF;" d="M297.3,267.7c-1,1.7-0.1,3.5,2.2,4.1c2.2,0.5,4.9-0.4,5.9-2.1s0.1-3.5-2.2-4.1  C301,265.1,298.4,266,297.3,267.7z"/>
<path style="fill:#324A5E;" d="M284.7,244.3c0,0,2.7-1.2,6.3-2.1c0.9-0.3,1.9-0.4,2.9-0.6c1-0.1,2.1-0.3,3.2-0.3  c1.1-0.1,2.2,0,3.3,0c1.1,0,2.2,0.2,3.3,0.4c1.1,0.3,2.2,0.4,3.3,0.8c1.1,0.4,2.2,0.6,3.2,1.1c1.1,0.4,2.1,0.8,3.1,1.2  c1,0.5,1.9,0.9,2.8,1.3c1.8,0.7,3.3,1.6,4.4,2.1s1.8,0.7,1.8,0.7s-0.3-0.7-0.9-1.7c-0.3-0.5-0.7-1.2-1.2-1.9s-1-1.6-1.8-2.3  c-0.7-0.8-1.5-1.7-2.4-2.5s-2-1.6-3.2-2.3c-1.1-0.8-2.5-1.3-3.8-2c-1.3-0.6-2.9-0.9-4.3-1.3c-1.5-0.2-3.1-0.4-4.6-0.3  c-1.5,0.1-3,0.3-4.4,0.7c-1.4,0.3-2.6,1-3.8,1.5c-1.1,0.7-2.1,1.3-3,2c-1.7,1.3-2.9,2.8-3.5,3.9  C284.9,243.6,284.7,244.3,284.7,244.3z"/>
<path style="fill:#FFFFFF;" d="M218.9,273.7c-1.4,11.5-10.4,20.4-20,19.9s-16.2-10.2-14.8-21.7s10.4-20.4,20-19.9  C213.7,252.4,220.3,262.2,218.9,273.7z"/>
<path style="fill:#F9B54C;" d="M216,276.8c-0.9,7.5-7.8,13.2-15.3,12.8c-7.5-0.4-12.9-6.7-12-14.2s7.8-13.2,15.3-12.8  C211.6,263,216.9,269.3,216,276.8z"/>
<path style="fill:#2B3B4E;" d="M209.3,276.5c-0.5,3.8-4,6.7-7.8,6.5s-6.5-3.4-6.1-7.2c0.5-3.8,4-6.7,7.8-6.5  S209.7,272.7,209.3,276.5z"/>
<path style="fill:#FFFFFF;" d="M207.7,267.7c1,1.7,0.1,3.5-2.2,4.1c-2.2,0.5-4.9-0.4-5.9-2.1s-0.1-3.5,2.2-4.1  C204,265.1,206.6,266,207.7,267.7z"/>
<path style="fill:#324A5E;" d="M220.3,244.3c0,0-2.7-1.2-6.3-2.1c-0.9-0.3-1.9-0.4-2.9-0.6c-1-0.1-2.1-0.3-3.2-0.3  c-1.1-0.1-2.2,0-3.3,0s-2.2,0.2-3.3,0.4c-1.1,0.3-2.2,0.4-3.3,0.8c-1.1,0.4-2.2,0.6-3.2,1.1c-1.1,0.4-2.1,0.8-3.1,1.2  c-1,0.5-1.9,0.9-2.8,1.3c-1.8,0.7-3.3,1.6-4.4,2.1c-1.1,0.5-1.8,0.7-1.8,0.7s0.3-0.7,0.9-1.7c0.3-0.5,0.7-1.2,1.2-1.9s1-1.6,1.8-2.3  c0.7-0.8,1.5-1.7,2.4-2.5s2-1.6,3.2-2.3c1.1-0.8,2.5-1.3,3.8-2c1.3-0.6,2.9-0.9,4.3-1.3c1.5-0.2,3.1-0.4,4.6-0.3  c1.5,0.1,3,0.3,4.4,0.7c1.4,0.3,2.6,1,3.8,1.5c1.1,0.7,2.1,1.3,3,2c1.7,1.3,2.9,2.8,3.5,3.9C220.1,243.6,220.3,244.3,220.3,244.3z"/>
<g>
</g>
<g>
</g>
<g>
</g>
<g>
</g>
<g>
</g>
<g>
</g>
<g>
</g>
<g>
</g>
<g>
</g>
<g>
</g>
<g>
</g>
<g>
</g>
<g>
</g>
<g>
</g>
<g>
</g>
</svg>
