<?xml version="1.0" encoding="iso-8859-1"?>
<!-- Generator: Adobe Illustrator 19.0.0, SVG Export Plug-In . SVG Version: 6.00 Build 0)  -->
<svg xmlns="http://www.w3.org/2000/svg" xmlns:xlink="http://www.w3.org/1999/xlink" version="1.1" id="Layer_1" x="0px" y="0px" viewBox="0 0 505 505" style="enable-background:new 0 0 505 505;" xml:space="preserve">
<circle style="fill:#90DFAA;" cx="252.5" cy="252.5" r="252.5"/>
<g>
	<circle style="fill:#324A5E;" cx="378.1" cy="145.1" r="42.1"/>
	<circle style="fill:#324A5E;" cx="126.9" cy="145.1" r="42.1"/>
</g>
<circle style="fill:#FFFFFF;" cx="252.5" cy="267.1" r="158.5"/>
<path style="fill:#CED5E0;" d="M320.9,357.9c0,34.1-30.6,76.4-68.4,76.4s-68.4-42.3-68.4-76.4s30.6-47.2,68.4-47.2  C290.3,310.7,320.9,323.8,320.9,357.9z"/>
<g>
	<path style="fill:#324A5E;" d="M284.9,384.4c-1.8,0-3.3,1.5-3.3,3.3c0,7.1-5.8,12.8-12.8,12.8c-7.1,0-12.8-5.8-12.8-12.8v-7.1   c16.3-2.1,29-19.3,29-32.7c0-14.3-14.5-19-32.4-19s-32.4,4.6-32.4,19c0,13.4,12.7,30.6,29.1,32.7v7.1c0,7.1-5.8,12.8-12.8,12.8   c-7.1,0-12.8-5.8-12.8-12.8c0-1.8-1.5-3.3-3.3-3.3s-3.3,1.5-3.3,3.3c0,10.8,8.8,19.5,19.5,19.5c6.7,0,12.7-3.4,16.2-8.6   c3.5,5.2,9.5,8.6,16.2,8.6c10.8,0,19.5-8.8,19.5-19.5C288.2,385.9,286.7,384.4,284.9,384.4z"/>
	<path style="fill:#324A5E;" d="M331.2,212.1c19.7,19.3,38.7,56.5,27.3,68.1s-48.9-6.8-68.6-26.1s-14-32.2-2.6-43.8   C298.7,198.7,311.5,192.8,331.2,212.1z"/>
	<path style="fill:#324A5E;" d="M173.8,212.1c-19.7,19.3-38.7,56.5-27.3,68.1s48.9-6.8,68.6-26.1s14-32.2,2.6-43.8   C206.3,198.7,193.5,192.8,173.8,212.1z"/>
</g>
<path style="fill:#FFFFFF;" d="M292.1,234.3c1.6,12.5,11.3,22.3,21.8,21.8s17.7-11.1,16.2-23.7s-11.3-22.3-21.8-21.8  C297.7,211.2,290.5,221.8,292.1,234.3z"/>
<path style="fill:#84DBFF;" d="M295.2,237.7c1,8.1,8.5,14.4,16.7,14s14.1-7.4,13.1-15.5s-8.5-14.4-16.7-14  C300,222.7,294.2,229.6,295.2,237.7z"/>
<path style="fill:#2B3B4E;" d="M302.6,237.4c0.5,4.1,4.3,7.3,8.5,7.1s7.1-3.7,6.6-7.9c-0.5-4.1-4.3-7.3-8.5-7.1  S302,233.2,302.6,237.4z"/>
<g>
	<path style="fill:#FFFFFF;" d="M304.3,227.8c-1.1,1.9-0.1,3.9,2.4,4.5c2.4,0.6,5.3-0.5,6.4-2.3c1.1-1.9,0.1-3.9-2.4-4.5   C308.3,224.9,305.4,226,304.3,227.8z"/>
	<path style="fill:#FFFFFF;" d="M212.9,234.3c-1.6,12.5-11.3,22.3-21.8,21.8s-17.7-11.1-16.2-23.7c1.6-12.5,11.3-22.3,21.8-21.8   C207.3,211.2,214.5,221.8,212.9,234.3z"/>
</g>
<path style="fill:#84DBFF;" d="M209.8,237.7c-1,8.1-8.5,14.4-16.7,14s-14.1-7.4-13.1-15.5s8.5-14.4,16.7-14  C205,222.7,210.8,229.6,209.8,237.7z"/>
<path style="fill:#2B3B4E;" d="M202.4,237.4c-0.5,4.1-4.3,7.3-8.5,7.1s-7.1-3.7-6.6-7.9c0.5-4.1,4.3-7.3,8.5-7.1  C200,229.7,203,233.2,202.4,237.4z"/>
<path style="fill:#FFFFFF;" d="M200.7,227.8c1.1,1.9,0.1,3.9-2.4,4.5s-5.3-0.5-6.4-2.3c-1.1-1.9-0.1-3.9,2.4-4.5  C196.7,224.9,199.6,226,200.7,227.8z"/>
<g>
</g>
<g>
</g>
<g>
</g>
<g>
</g>
<g>
</g>
<g>
</g>
<g>
</g>
<g>
</g>
<g>
</g>
<g>
</g>
<g>
</g>
<g>
</g>
<g>
</g>
<g>
</g>
<g>
</g>
</svg>
