<?xml version="1.0" encoding="iso-8859-1"?>
<!-- Generator: Adobe Illustrator 19.0.0, SVG Export Plug-In . SVG Version: 6.00 Build 0)  -->
<svg xmlns="http://www.w3.org/2000/svg" xmlns:xlink="http://www.w3.org/1999/xlink" version="1.1" id="Layer_1" x="0px" y="0px" viewBox="0 0 505 505" style="enable-background:new 0 0 505 505;" xml:space="preserve">
<path style="fill:#324A5E;" d="M0,252.5C0,113,113,0,252.5,0S505,113,505,252.5S392,505,252.5,505S0,392,0,252.5z"/>
<g>
	<path style="fill:#FFFFFF;" d="M188.1,196.8c0,0,0.1-0.1,0.3-0.4c0.2-0.2,0.1-0.1,0,0.1c0,0.2-0.1,0.4-0.1,0.6c0,0.1-0.1,0.7,0,0.6   c0.1,0,0.2-0.1,0.3-0.1c0.2-0.1,0.5-0.2,0.8-0.6c0.7-0.6,1.3-1.8,2.2-3.3c0.6-1.7,1.6-3.6,2.2-6.2c0.8-2.4,1-5.5,1.6-8.7   c0-3.4,0.5-7,0.1-10.9c-0.1-2-0.3-4-0.4-6.1c-0.3-2.1-0.7-4.2-1.1-6.4c-0.5-4.4-1.9-8.8-3-13.3c-1-4.6-2.9-8.9-4.4-13.4   c-1.4-4.5-3.5-8.7-5.3-12.9c-1.8-4.2-3.6-8.3-5.7-12c-2-3.8-3.9-7.4-5.6-10.7c-1.7-3.4-3.6-6.2-5.2-8.9c-1.6-2.6-3-4.9-4.1-6.8   c-2.3-3.8-3.6-6-3.6-6s2,1.5,5.6,4.1c1.8,1.3,4,2.9,6.5,4.8s5.5,3.8,8.4,6.4c3,2.5,6.2,5.2,9.6,8c3.5,2.8,6.9,6.1,10.4,9.5   s7.4,6.9,10.8,10.9c3.4,4,7.3,7.8,10.5,12.3c3.3,4.4,6.8,8.7,9.7,13.6c1.5,2.4,3,4.8,4.4,7.1c1.3,2.5,2.6,5,3.8,7.5   c2.7,4.8,4.4,10.2,6.4,15.2c1.5,5.3,3.1,10.2,3.8,15.3c1,4.9,1.3,9.8,1.5,14.2c0,4.5-0.2,8.5-0.7,12.1c-0.2,1.7-0.5,3.4-0.9,4.9   c-0.2,0.7-0.3,1.4-0.5,2.1c-0.1,0.6-0.5,1.7-0.7,2.4c-0.3,0.8-0.5,1.4-0.7,2s-0.4,1.1-0.4,1.1c-0.1,0.3-0.1,0.4-0.1,0.4   L188.1,196.8z"/>
	<path style="fill:#FFFFFF;" d="M260.7,225.4c0,0,0-0.2-0.1-0.4c0,0-0.2-0.5-0.4-1.1c-0.2-0.6-0.5-1.3-0.7-2s-0.6-1.8-0.7-2.4   c-0.1-0.6-0.3-1.3-0.5-2.1c-0.3-1.5-0.7-3.2-0.9-4.9c-0.5-3.6-0.7-7.6-0.7-12.1c0.2-4.4,0.5-9.3,1.5-14.2c0.7-5.1,2.3-10,3.8-15.3   c2-4.9,3.7-10.3,6.4-15.2c1.3-2.5,2.5-4.9,3.8-7.5c1.5-2.3,3-4.7,4.4-7.1c2.8-4.8,6.4-9.2,9.7-13.6c3.2-4.5,7.1-8.3,10.5-12.3   s7.2-7.5,10.8-10.9c3.5-3.4,6.9-6.7,10.4-9.5c3.4-2.8,6.6-5.5,9.6-8c2.9-2.5,5.9-4.5,8.4-6.4c2.5-1.8,4.7-3.4,6.5-4.8   c3.6-2.6,5.6-4.1,5.6-4.1s-1.3,2.2-3.6,6c-1.1,1.9-2.5,4.2-4.1,6.8c-1.5,2.7-3.5,5.5-5.2,8.9c-1.7,3.3-3.6,6.9-5.6,10.7   c-2.1,3.7-3.8,7.8-5.7,12c-1.8,4.2-3.8,8.4-5.3,12.9c-1.5,4.5-3.4,8.8-4.4,13.4c-1.1,4.5-2.5,8.9-3,13.3c-0.4,2.1-0.7,4.3-1.1,6.4   c-0.1,2.1-0.3,4.1-0.4,6.1c-0.5,4,0.1,7.6,0.1,10.9c0.6,3.2,0.7,6.3,1.6,8.7c0.5,2.6,1.5,4.5,2.2,6.2c0.9,1.5,1.5,2.7,2.2,3.3   c0.3,0.4,0.6,0.5,0.8,0.6c0.1,0.1,0.2,0.1,0.3,0.1c0.1,0.1,0-0.4,0-0.6c-0.1-0.2-0.1-0.4-0.1-0.6c-0.1-0.2-0.1-0.4,0-0.1   c0.2,0.2,0.3,0.4,0.3,0.4L260.7,225.4z"/>
</g>
<g>
	<path style="fill:#F9B54C;" d="M441.9,167.1c10.5,9.8,12,33.1-34.3,58.7c-47.7,27.3-120.2,12.3-116.6-4.9c3.1-14,58.3-25.6,91-45.6   C415.4,157,430.2,155.3,441.9,167.1z"/>
	<path style="fill:#F9B54C;" d="M63.1,167.1c-10.5,9.8-12,33.1,34.3,58.7c47.7,27.3,120.2,12.3,116.6-4.9c-3.1-14-58.3-25.6-91-45.6   C89.6,157,74.8,155.3,63.1,167.1z"/>
</g>
<path style="fill:#FFD05B;" d="M357.5,268c0,72.7-47,165.6-105,165.6s-105-92.9-105-165.6s47-97.6,105-97.6S357.5,195.3,357.5,268z"/>
<path style="fill:#324A5E;" d="M276.8,395.6c-1.6-1.2-3.9-1-5.1,0.6c-5,6.3-10.8,9.4-15.5,10.5v-41.4h-7.3v41.4  c-4.7-1.1-10.6-4.2-15.5-10.5c-1.2-1.6-3.5-1.9-5.1-0.6c-1.6,1.2-1.9,3.5-0.6,5.1c6.7,8.6,16,13.7,24.9,13.7  c8.8,0,18.1-5.1,24.9-13.7C278.6,399.1,278.4,396.8,276.8,395.6z"/>
<path style="fill:#FF7058;" d="M279.7,354.2c0,15-12.2,27.3-27.2,27.3s-27.2-12.3-27.2-27.3s12.2-2.5,27.2-2.5  S279.7,339.2,279.7,354.2z"/>
<path style="fill:#FFFFFF;" d="M280.3,282.3c1.5,11.6,10.5,20.6,20.2,20.1s16.4-10.3,15-21.9s-10.5-20.6-20.2-20.1  C285.6,260.9,278.9,270.7,280.3,282.3z"/>
<path style="fill:#84DBFF;" d="M283.3,285.5c0.9,7.5,7.9,13.3,15.5,13c7.6-0.4,13-6.8,12.1-14.4c-0.9-7.5-7.9-13.3-15.5-13  C287.7,271.5,282.3,277.9,283.3,285.5z"/>
<path style="fill:#2B3B4E;" d="M290.1,285.1c0.5,3.8,4,6.8,7.9,6.6c3.9-0.2,6.6-3.5,6.1-7.3s-4-6.8-7.9-6.6  C292.3,278.1,289.6,281.3,290.1,285.1z"/>
<path style="fill:#FFFFFF;" d="M291.7,276.3c-1,1.7-0.1,3.6,2.2,4.1c2.2,0.5,4.9-0.4,5.9-2.2c1-1.7,0.1-3.6-2.2-4.1  C295.4,273.6,292.7,274.6,291.7,276.3z"/>
<path style="fill:#324A5E;" d="M278.9,252.6c0,0,2.7-1.2,6.4-2.1c0.9-0.3,1.9-0.4,2.9-0.6c1-0.1,2.1-0.3,3.2-0.3  c1.1-0.1,2.2,0,3.3,0c1.1,0,2.2,0.2,3.4,0.4c1.1,0.3,2.3,0.4,3.4,0.8c1.1,0.4,2.2,0.6,3.3,1.1c1.1,0.4,2.1,0.8,3.1,1.2  c1,0.5,1.9,0.9,2.8,1.3c1.8,0.8,3.3,1.6,4.5,2.1c1.1,0.5,1.8,0.7,1.8,0.7s-0.3-0.7-0.9-1.8c-0.3-0.5-0.7-1.2-1.2-1.9  c-0.5-0.8-1-1.6-1.8-2.3c-0.7-0.8-1.5-1.7-2.4-2.5c-1-0.8-2.1-1.6-3.2-2.4c-1.1-0.8-2.5-1.3-3.9-2c-1.3-0.6-2.9-0.9-4.4-1.3  c-1.5-0.2-3.1-0.4-4.6-0.3c-1.5,0.1-3,0.3-4.4,0.7c-1.4,0.3-2.7,1-3.8,1.5c-1.1,0.7-2.2,1.3-3,2c-1.8,1.4-2.9,2.9-3.6,3.9  C279.1,251.9,278.9,252.6,278.9,252.6z"/>
<path style="fill:#FFFFFF;" d="M224.7,282.3c-1.5,11.6-10.5,20.6-20.2,20.1s-16.4-10.3-15-21.9c1.5-11.6,10.5-20.6,20.2-20.1  S226.1,270.7,224.7,282.3z"/>
<path style="fill:#84DBFF;" d="M221.7,285.5c-0.9,7.5-7.9,13.3-15.5,13c-7.6-0.4-13-6.8-12.1-14.4c0.9-7.5,7.9-13.3,15.5-13  C217.3,271.5,222.7,277.9,221.7,285.5z"/>
<path style="fill:#2B3B4E;" d="M214.9,285.1c-0.5,3.8-4,6.8-7.9,6.6c-3.9-0.2-6.6-3.5-6.1-7.3s4-6.8,7.9-6.6  C212.7,278.1,215.4,281.3,214.9,285.1z"/>
<path style="fill:#FFFFFF;" d="M213.3,276.3c1,1.7,0.1,3.6-2.2,4.1c-2.2,0.5-4.9-0.4-5.9-2.2c-1-1.7-0.1-3.6,2.2-4.1  C209.6,273.6,212.3,274.6,213.3,276.3z"/>
<path style="fill:#324A5E;" d="M226.1,252.6c0,0-2.7-1.2-6.4-2.1c-0.9-0.3-1.9-0.4-2.9-0.6c-1-0.1-2.1-0.3-3.2-0.3  c-1.1-0.1-2.2,0-3.3,0s-2.2,0.2-3.4,0.4c-1.1,0.3-2.3,0.4-3.4,0.8c-1.1,0.4-2.2,0.6-3.3,1.1c-1.1,0.4-2.1,0.8-3.1,1.2  c-1,0.5-1.9,0.9-2.8,1.3c-1.8,0.8-3.3,1.6-4.4,2.1c-1.1,0.5-1.8,0.7-1.8,0.7s0.3-0.7,0.9-1.8c0.3-0.5,0.7-1.2,1.2-1.9  c0.5-0.8,1-1.6,1.8-2.3c0.7-0.8,1.5-1.7,2.4-2.5s2.1-1.6,3.2-2.4c1.1-0.8,2.5-1.3,3.9-2c1.3-0.6,2.9-0.9,4.4-1.3  c1.5-0.2,3.1-0.4,4.6-0.3c1.5,0.1,3,0.3,4.4,0.7c1.4,0.3,2.7,1,3.8,1.5c1.1,0.7,2.2,1.3,3,2c1.8,1.4,2.9,2.9,3.6,3.9  C225.9,251.9,226.1,252.6,226.1,252.6z"/>
<g>
</g>
<g>
</g>
<g>
</g>
<g>
</g>
<g>
</g>
<g>
</g>
<g>
</g>
<g>
</g>
<g>
</g>
<g>
</g>
<g>
</g>
<g>
</g>
<g>
</g>
<g>
</g>
<g>
</g>
</svg>
