<?xml version="1.0" encoding="iso-8859-1"?>
<!-- Generator: Adobe Illustrator 19.0.0, SVG Export Plug-In . SVG Version: 6.00 Build 0)  -->
<svg xmlns="http://www.w3.org/2000/svg" xmlns:xlink="http://www.w3.org/1999/xlink" version="1.1" id="Layer_1" x="0px" y="0px" viewBox="0 0 505 505" style="enable-background:new 0 0 505 505;" xml:space="preserve">
<circle style="fill:#324A5E;" cx="252.5" cy="252.5" r="252.5"/>
<g>
	<path style="fill:#2C9984;" d="M309.1,144.5c0,0,32.4-20.4,50.5-49.1c13.7-21.9,47.9-11.8,46.9,14c-0.8,22.3-15.5,46.8-59.5,68.8   L309.1,144.5z"/>
	<path style="fill:#2C9984;" d="M195.9,144.5c0,0-32.4-20.4-50.5-49.1c-13.7-21.9-47.9-11.8-46.9,14c0.8,22.3,15.5,46.8,59.5,68.8   L195.9,144.5z"/>
</g>
<path style="fill:#4CDBC4;" d="M252.5,104.7c-70.8,0.3-128,28.3-128,123.7c0,95.6,27.6,222.8,128,223.9  c100.4-1.1,128-128.3,128-223.9C380.5,133,323.3,105,252.5,104.7z"/>
<path style="fill:#FFFFFF;" d="M288.1,334.2c-8.5,7.3-21.3,11.9-35.6,11.9c-14.3,0-27.2-4.6-35.6-11.9l11.1-48.4l24.5-107.6  l24.6,107.6L288.1,334.2z"/>
<g>
	<path style="fill:#2C9984;" d="M295,396.6c-4.8,6.9-13.7,9.9-19.9,6.8c-6.2-3.1-7.2-11.2-2.4-18c4.8-6.9,13.7-9.9,19.9-6.8   C298.7,381.7,299.8,389.8,295,396.6z"/>
	<path style="fill:#2C9984;" d="M210,396.6c4.8,6.9,13.7,9.9,19.9,6.8s7.2-11.2,2.4-18c-4.8-6.9-13.7-9.9-19.9-6.8   C206.3,381.7,205.2,389.8,210,396.6z"/>
	<path style="fill:#2C9984;" d="M291.3,412.1c-6.1,15.4-21.2,26.3-38.8,26.3s-32.7-10.9-38.9-26.3c11.3,4,24.6,6.3,38.9,6.3   C266.8,418.3,280.1,416.1,291.3,412.1z"/>
</g>
<path style="fill:#FFFFFF;" d="M287.4,238.4c1.8,14,12.7,24.9,24.4,24.3c11.7-0.6,19.8-12.5,18.1-26.5s-12.7-24.9-24.4-24.3  C293.8,212.5,285.7,224.3,287.4,238.4z"/>
<path style="fill:#F9B54C;" d="M291,242.2c1.1,9.1,9.5,16.1,18.7,15.7c9.2-0.5,15.7-8.2,14.6-17.3s-9.5-16.1-18.7-15.7  C296.3,225.3,289.8,233.1,291,242.2z"/>
<path style="fill:#2B3B4E;" d="M299.2,241.8c0.6,4.6,4.8,8.2,9.5,7.9c4.7-0.2,8-4.2,7.4-8.8s-4.8-8.2-9.5-7.9  C301.9,233.2,298.6,237.2,299.2,241.8z"/>
<path style="fill:#FFFFFF;" d="M301.1,231.1c-1.2,2.1-0.1,4.3,2.7,5c2.7,0.7,5.9-0.5,7.2-2.6c1.2-2.1,0.1-4.3-2.7-5  C305.6,227.9,302.4,229,301.1,231.1z"/>
<path style="fill:#324A5E;" d="M285.7,202.5c0,0,3.3-1.4,7.7-2.6c1.1-0.3,2.3-0.5,3.5-0.8c1.3-0.1,2.5-0.4,3.9-0.4  c1.3-0.1,2.7-0.1,4,0s2.7,0.3,4.1,0.5c1.3,0.4,2.7,0.5,4.1,1c1.3,0.5,2.7,0.7,4,1.3c1.3,0.5,2.6,1,3.8,1.5c1.2,0.6,2.3,1.1,3.4,1.6  c2.2,0.9,4,2,5.4,2.5c1.4,0.6,2.2,0.9,2.2,0.9s-0.3-0.8-1.1-2.1c-0.4-0.7-0.8-1.5-1.4-2.3c-0.6-0.9-1.2-1.9-2.1-2.8  c-0.9-1-1.8-2-2.9-3.1c-1.1-1-2.5-1.9-3.9-2.8c-1.3-1-3-1.6-4.7-2.4c-1.6-0.8-3.5-1.1-5.3-1.6c-1.9-0.2-3.7-0.5-5.6-0.3  c-1.9,0.1-3.7,0.3-5.3,0.9c-1.7,0.4-3.2,1.2-4.6,1.8c-1.4,0.8-2.6,1.6-3.6,2.5c-2.1,1.6-3.5,3.4-4.3,4.7  C285.9,201.6,285.7,202.5,285.7,202.5z"/>
<path style="fill:#FFFFFF;" d="M217.6,238.4c-1.8,14-12.7,24.9-24.4,24.3s-19.8-12.5-18.1-26.5s12.7-24.9,24.4-24.3  C211.2,212.5,219.3,224.3,217.6,238.4z"/>
<path style="fill:#F9B54C;" d="M214,242.2c-1.1,9.1-9.5,16.1-18.7,15.7c-9.2-0.5-15.7-8.2-14.6-17.3c1.1-9.1,9.5-16.1,18.7-15.7  C208.6,225.3,215.2,233.1,214,242.2z"/>
<path style="fill:#2B3B4E;" d="M205.8,241.8c-0.6,4.6-4.8,8.2-9.5,7.9c-4.7-0.2-8-4.2-7.4-8.8s4.8-8.2,9.5-7.9  C203.1,233.2,206.4,237.2,205.8,241.8z"/>
<path style="fill:#FFFFFF;" d="M203.9,231.1c1.2,2.1,0.1,4.3-2.7,5c-2.7,0.7-5.9-0.5-7.2-2.6c-1.2-2.1-0.1-4.3,2.7-5  C199.4,227.9,202.6,229,203.9,231.1z"/>
<path style="fill:#324A5E;" d="M219.3,202.5c0,0-3.3-1.4-7.7-2.6c-1.1-0.3-2.3-0.5-3.5-0.8c-1.3-0.1-2.5-0.4-3.9-0.4  c-1.3-0.1-2.7-0.1-4,0s-2.7,0.3-4.1,0.5c-1.3,0.4-2.7,0.5-4.1,1c-1.3,0.5-2.7,0.7-4,1.3c-1.3,0.5-2.6,1-3.8,1.5  c-1.2,0.6-2.3,1.1-3.4,1.6c-2.2,0.9-4,2-5.4,2.5c-1.4,0.6-2.2,0.9-2.2,0.9s0.3-0.8,1.1-2.1c0.4-0.7,0.8-1.5,1.4-2.3  c0.6-0.9,1.2-1.9,2.1-2.8c0.9-1,1.8-2,2.9-3.1c1.1-1,2.5-1.9,3.9-2.8c1.3-1,3-1.6,4.7-2.4c1.6-0.8,3.5-1.1,5.3-1.6  c1.9-0.2,3.7-0.5,5.6-0.3c1.9,0.1,3.7,0.3,5.3,0.9c1.7,0.4,3.2,1.2,4.6,1.8c1.4,0.8,2.6,1.6,3.6,2.5c2.1,1.6,3.5,3.4,4.3,4.7  C219.1,201.6,219.3,202.5,219.3,202.5z"/>
<g>
</g>
<g>
</g>
<g>
</g>
<g>
</g>
<g>
</g>
<g>
</g>
<g>
</g>
<g>
</g>
<g>
</g>
<g>
</g>
<g>
</g>
<g>
</g>
<g>
</g>
<g>
</g>
<g>
</g>
</svg>
