<?xml version="1.0" encoding="iso-8859-1"?>
<!-- Generator: Adobe Illustrator 19.0.0, SVG Export Plug-In . SVG Version: 6.00 Build 0)  -->
<svg xmlns="http://www.w3.org/2000/svg" xmlns:xlink="http://www.w3.org/1999/xlink" version="1.1" id="Layer_1" x="0px" y="0px" viewBox="0 0 505 505" style="enable-background:new 0 0 505 505;" xml:space="preserve">
<circle style="fill:#FFD05B;" cx="252.5" cy="252.5" r="252.5"/>
<g>
	<ellipse style="fill:#324A5E;" cx="252.5" cy="377" rx="74.2" ry="55.8"/>
	<path style="fill:#324A5E;" d="M351.5,87.1c-7.4,23.2-22.4,49-52.2,64.1l46.1,47.5c0,0,76.2-34.3,44.8-112   C382.2,67.1,357.7,67.6,351.5,87.1z"/>
	<path style="fill:#324A5E;" d="M153.5,87.1c7.4,23.2,22.4,49,52.2,64.1l-46.1,47.5c0,0-76.2-34.3-44.8-112   C122.8,67.1,147.3,67.6,153.5,87.1z"/>
</g>
<path style="fill:#E6E9EE;" d="M390.8,217.4c0-17.2-6-31.6-21.7-36c-13.8-63.1-60.7-97.5-116.6-97.5s-102.8,34.4-116.6,97.5  c-15.7,4.3-21.7,18.8-21.7,36c0,16.5,5.1,30.5,19.8,35.4c11.1,73.2,59.9,133.8,118.5,133.8S359.9,326,371,252.8  C385.7,247.9,390.8,233.9,390.8,217.4z"/>
<path style="fill:#CED5E0;" d="M345.7,301.7c5.4,23.5,7.3,48.3,5.4,73c-0.1,0-0.1,0-0.1,0c-25.1,20.3-59.5,33-98.5,33  s-73.4-12.7-98.5-33c-0.1,0-0.1,0-0.1,0c-1.9-24.6-0.1-49.5,5.4-73c14.9-64.3,54.9-103,93.2-103S330.8,237.4,345.7,301.7z"/>
<g>
	<path style="fill:#324A5E;" d="M292.8,249.6c5.7,7,8.4,14.3-2.3,23c-10.7,8.7-30.7,15.6-36.4,8.6c-5.7-7,5-25.2,15.7-33.9   C280.5,238.5,287.1,242.6,292.8,249.6z"/>
	<path style="fill:#324A5E;" d="M212.2,249.6c-5.7,7-8.4,14.3,2.3,23s30.7,15.6,36.4,8.6c5.7-7-5-25.2-15.7-33.9   C224.5,238.5,217.9,242.6,212.2,249.6z"/>
	<rect x="246.8" y="275.4" style="fill:#324A5E;" width="11.5" height="147"/>
</g>
<path style="fill:#FFFFFF;" d="M333.1,218.3c1.6,13.2,11.9,23.4,22.9,22.9s18.6-11.7,17-24.9s-11.9-23.4-22.9-22.9  C339,194,331.4,205.1,333.1,218.3z"/>
<path style="fill:#F9B54C;" d="M336.4,221.9c1.1,8.6,8.9,15.1,17.6,14.7c8.6-0.4,14.8-7.7,13.7-16.3c-1.1-8.6-8.9-15.1-17.6-14.7  C341.5,206.1,335.3,213.3,336.4,221.9z"/>
<path style="fill:#2B3B4E;" d="M344.1,221.5c0.5,4.3,4.5,7.7,8.9,7.5s7.5-3.9,7-8.3c-0.5-4.3-4.5-7.7-8.9-7.5  C346.7,213.5,343.6,217.2,344.1,221.5z"/>
<g>
	<path style="fill:#FFFFFF;" d="M345.9,211.5c-1.2,2-0.1,4.1,2.5,4.7c2.6,0.6,5.6-0.5,6.7-2.4c1.2-2,0.1-4.1-2.5-4.7   C350.1,208.4,347.1,209.5,345.9,211.5z"/>
	<path style="fill:#FFFFFF;" d="M171.9,218.3c-1.6,13.2-11.9,23.4-22.9,22.9c-11-0.6-18.6-11.7-17-24.9s11.9-23.4,22.9-22.9   C166,194,173.6,205.1,171.9,218.3z"/>
</g>
<path style="fill:#F9B54C;" d="M168.6,221.9c-1.1,8.6-8.9,15.1-17.6,14.7c-8.6-0.4-14.8-7.7-13.7-16.3s8.9-15.1,17.6-14.7  C163.5,206.1,169.7,213.3,168.6,221.9z"/>
<path style="fill:#2B3B4E;" d="M160.9,221.5c-0.5,4.3-4.5,7.7-8.9,7.5s-7.5-3.9-7-8.3c0.5-4.3,4.5-7.7,8.9-7.5  C158.3,213.5,161.4,217.2,160.9,221.5z"/>
<path style="fill:#FFFFFF;" d="M159.1,211.5c1.2,2,0.1,4.1-2.5,4.7c-2.6,0.6-5.6-0.5-6.7-2.4c-1.2-2-0.1-4.1,2.5-4.7  C154.9,208.4,157.9,209.5,159.1,211.5z"/>
<g>
</g>
<g>
</g>
<g>
</g>
<g>
</g>
<g>
</g>
<g>
</g>
<g>
</g>
<g>
</g>
<g>
</g>
<g>
</g>
<g>
</g>
<g>
</g>
<g>
</g>
<g>
</g>
<g>
</g>
</svg>
