<?xml version="1.0" encoding="iso-8859-1"?>
<!-- Generator: Adobe Illustrator 19.0.0, SVG Export Plug-In . SVG Version: 6.00 Build 0)  -->
<svg xmlns="http://www.w3.org/2000/svg" xmlns:xlink="http://www.w3.org/1999/xlink" version="1.1" id="Layer_1" x="0px" y="0px" viewBox="0 0 505 505" style="enable-background:new 0 0 505 505;" xml:space="preserve">
<circle style="fill:#4CDBC4;" cx="252.5" cy="252.5" r="252.5"/>
<path style="fill:#FFFFFF;" d="M440.6,159.3c-2.9-0.3-7-1.2-12-1.6c-2.5-0.2-5.3-0.4-8.2-0.6c-2.4-0.2-5-0.1-7.6-0.1  c-0.9-1.2-1.8-2.5-2.7-3.7c2.5-1,5-2.1,7.4-2.8c2.7-0.8,5.2-1.6,7.5-2.3c4.7-1.5,8.7-2.1,11.5-2.9c2.8-0.6,4.5-1,4.5-1  s-1.6-0.2-4.5-0.7c-2.9-0.3-7-1.2-12-1.6c-2.5-0.2-5.3-0.4-8.2-0.6c-2.9-0.2-6-0.1-9.3-0.1c-2.5-0.1-5.1,0.1-7.8,0.3  c-0.2-0.1-0.3-0.3-0.5-0.4c1.7-0.8,3.4-1.6,5.1-2.2c2.8-1,5.5-2.3,8.1-3.1c2.7-0.8,5.2-1.6,7.5-2.3c4.7-1.5,8.7-2.1,11.5-2.9  c2.8-0.6,4.5-1,4.5-1s-1.6-0.2-4.5-0.7c-2.9-0.3-7-1.2-12-1.6c-2.5-0.2-5.3-0.4-8.2-0.6c-2.9-0.2-6-0.1-9.3-0.1  c-3.3-0.1-6.6,0.2-10.1,0.5c-1.7,0.2-3.5,0.2-5.2,0.5l-5.3,0.9c0,0,0,0-0.1,0c-15.9-8.7-34.9-13.8-55.4-13.8  c-28.6,0-54.4,9.9-72.8,25.9c-18.4-15.9-44.2-25.9-72.8-25.9c-20.5,0-39.5,5.1-55.4,13.8c0,0,0,0-0.1,0l-5.3-0.9  c-1.8-0.3-3.5-0.3-5.2-0.5c-3.5-0.3-6.8-0.6-10.1-0.5c-3.3,0-6.3-0.1-9.3,0.1c-2.9,0.2-5.7,0.4-8.2,0.6c-5,0.3-9.2,1.2-12,1.6  c-2.9,0.4-4.5,0.7-4.5,0.7s1.6,0.4,4.5,1c2.8,0.7,6.9,1.4,11.5,2.9c2.3,0.7,4.8,1.5,7.5,2.3c2.6,0.8,5.3,2,8.1,3.1  c1.7,0.6,3.4,1.4,5.1,2.2c-0.2,0.1-0.3,0.3-0.5,0.4c-2.7-0.2-5.3-0.4-7.8-0.3c-3.3,0-6.3-0.1-9.3,0.1c-2.9,0.2-5.7,0.4-8.2,0.6  c-5,0.3-9.2,1.2-12,1.6c-2.9,0.4-4.5,0.7-4.5,0.7s1.6,0.4,4.5,1c2.8,0.7,6.9,1.4,11.5,2.9c2.3,0.7,4.8,1.5,7.5,2.3  c2.4,0.7,4.9,1.8,7.4,2.8c-0.9,1.2-1.8,2.4-2.7,3.7c-2.6,0-5.2-0.1-7.6,0.1c-2.9,0.2-5.7,0.4-8.2,0.6c-5,0.3-9.2,1.2-12,1.6  c-2.9,0.4-4.5,0.7-4.5,0.7s1.6,0.4,4.5,1c2.8,0.7,6.9,1.4,11.5,2.9c2.3,0.7,4.8,1.5,7.5,2.3c0.9,0.3,1.9,0.7,2.9,1  c-4.8,9.8-7.4,20.5-7.4,31.7c0,16.9,6,32.6,16.4,45.8c-10.5,13.1-16.4,27.8-16.4,43.3c0,56.4,77.8,102.1,173.7,102.1  S426.3,344.4,426.3,288c0-15.5-5.9-30.1-16.4-43.3c10.3-13.2,16.4-28.9,16.4-45.8c0-11.2-2.7-21.9-7.5-31.7c1-0.4,1.9-0.7,2.9-1  c2.7-0.8,5.2-1.6,7.5-2.3c4.7-1.5,8.7-2.1,11.5-2.9c2.8-0.6,4.5-1,4.5-1S443.5,159.7,440.6,159.3z"/>
<g>
	<path style="fill:#324A5E;" d="M438.6,210.1c0,18.8-15.2,34-34.1,34c-15.2,0-28.1-10-32.4-23.8c5.1-8.7,12.9-17.3,23-24.3   c9.8-6.8,20.2-11.3,29.8-13.2C433.2,189,438.6,198.9,438.6,210.1z"/>
	<path style="fill:#324A5E;" d="M66.4,210.1c0,18.8,15.2,34,34.1,34c15.2,0,28.1-10,32.4-23.8c-5.1-8.7-12.9-17.3-23-24.3   c-9.8-6.8-20.2-11.3-29.8-13.2C71.8,189,66.4,198.9,66.4,210.1z"/>
</g>
<g>
	<path style="fill:#F9B54C;" d="M373,303.8c0,0-38.8,23.1-100.8-14.2c0,0,39.6-32.5,76.6-11.2L373,303.8z"/>
	<path style="fill:#F9B54C;" d="M132,303.8c0,0,38.8,23.1,100.8-14.2c0,0-39.6-32.5-76.6-11.2L132,303.8z"/>
</g>
<path style="fill:#FFD05B;" d="M333.5,268.7c-16.3-3.3-34.1-3.7-47.3-17.6c-7.2-7.6-24.8-19.5-33.7-19.6  c-8.9,0.1-26.5,11.9-33.7,19.6c-13.1,13.9-30.9,14.3-47.3,17.6c-16.3,3.3-34.6,13.2-39.5,35.1c22.2-17.4,50.5-18.8,73.6-3.9  c13.5,8.7,36,22.4,46.8,36.7c10.8-14.4,33.3-28,46.8-36.7c23.1-15,51.4-13.5,73.6,3.9C368.1,281.9,349.8,272.1,333.5,268.7z"/>
<g>
	
		<ellipse transform="matrix(-0.3697 -0.9292 0.9292 -0.3697 125.8901 604.0089)" style="fill:#F9B54C;" cx="267.817" cy="259.304" rx="9.5" ry="6.1"/>
	
		<ellipse transform="matrix(-0.3697 0.9292 -0.9292 -0.3697 565.8305 134.6941)" style="fill:#F9B54C;" cx="237.229" cy="259.269" rx="9.5" ry="6.1"/>
</g>
<g>
	<ellipse style="fill:#FFFFFF;" cx="408.9" cy="210.1" rx="6.7" ry="8.5"/>
	<ellipse style="fill:#FFFFFF;" cx="93" cy="210.1" rx="6.7" ry="8.5"/>
</g>
<g>
	<path style="fill:#2C9984;" d="M433.1,178.9c0,0-1.4,0.6-3.8,1.8c-2.4,1.1-5.7,2.8-9.7,4.8c-1.9,1.1-4.1,2.2-6.3,3.4   c-2.2,1.2-4.5,2.6-6.8,4c-2.4,1.3-4.6,3.1-7.1,4.5c-2.3,1.7-4.7,3.3-6.9,5.1c-2.2,1.8-4.6,3.5-6.6,5.5c-1,1-2.1,1.9-3.1,2.8   c-1,0.9-1.9,2-2.8,2.9c-0.9,1-1.8,2-2.7,2.9c-0.9,1-1.6,2-2.4,2.9c-1.5,1.9-3.1,3.7-4.3,5.6c-1.2,1.8-2.4,3.5-3.4,5   c-0.8,1.6-1.6,2.9-2.3,4.1c-1.3,2.3-2.2,3.6-2.2,3.6s0.2-1.5,0.7-4.1c0.3-1.3,0.6-2.9,1-4.8c0.6-1.8,1.3-3.8,2.2-5.9   c0.8-2.2,2-4.4,3.4-6.7c0.7-1.2,1.3-2.4,2.1-3.6c0.8-1.2,1.7-2.3,2.6-3.4c1.7-2.4,3.8-4.6,6-6.8c2.1-2.3,4.6-4.1,7-6.2   c2.4-1.9,5.1-3.6,7.6-5.3c2.7-1.5,5.3-3,7.9-4.2c2.6-1.3,5.2-2.3,7.7-3.2c2.4-1,4.9-1.6,7.1-2.3   C426.9,178.8,433.1,178.9,433.1,178.9z"/>
	<path style="fill:#2C9984;" d="M71.9,178.9c0,0,6.2,0,15.1,2.4c2.2,0.6,4.6,1.3,7.1,2.3c2.5,0.9,5.1,1.9,7.7,3.2   c2.6,1.2,5.2,2.7,7.9,4.2c2.5,1.7,5.2,3.3,7.6,5.3s4.9,3.9,7,6.2c2.2,2.1,4.2,4.4,6,6.8c0.9,1.2,1.8,2.3,2.6,3.4   c0.8,1.2,1.4,2.4,2.1,3.6c1.4,2.3,2.6,4.5,3.4,6.7c0.9,2.2,1.6,4.2,2.2,5.9c0.4,1.8,0.7,3.5,1,4.8c0.5,2.6,0.7,4.1,0.7,4.1   s-0.8-1.3-2.2-3.6c-0.7-1.1-1.5-2.5-2.3-4.1c-1-1.5-2.2-3.1-3.4-5c-1.1-1.9-2.7-3.6-4.3-5.6c-0.8-1-1.5-2-2.4-2.9s-1.8-1.9-2.7-2.9   c-0.9-1-1.8-2-2.8-2.9c-1.1-0.9-2.1-1.8-3.1-2.8c-2-2-4.4-3.7-6.6-5.5s-4.7-3.4-6.9-5.1c-2.4-1.5-4.7-3.2-7.1-4.5   c-2.4-1.4-4.6-2.8-6.8-4c-2.2-1.2-4.3-2.4-6.3-3.4c-4-2-7.3-3.7-9.7-4.8C73.3,179.5,71.9,178.9,71.9,178.9z"/>
</g>
<g>
</g>
<g>
</g>
<g>
</g>
<g>
</g>
<g>
</g>
<g>
</g>
<g>
</g>
<g>
</g>
<g>
</g>
<g>
</g>
<g>
</g>
<g>
</g>
<g>
</g>
<g>
</g>
<g>
</g>
</svg>
