<?xml version="1.0" encoding="iso-8859-1"?>
<!-- Generator: Adobe Illustrator 19.0.0, SVG Export Plug-In . SVG Version: 6.00 Build 0)  -->
<svg xmlns="http://www.w3.org/2000/svg" xmlns:xlink="http://www.w3.org/1999/xlink" version="1.1" id="Layer_1" x="0px" y="0px" viewBox="0 0 505 505" style="enable-background:new 0 0 505 505;" xml:space="preserve">
<circle style="fill:#FF7058;" cx="252.5" cy="252.5" r="252.5"/>
<g>
	<path style="fill:#CED5E0;" d="M425.3,175.2c-17.9,17.9-52.4,29.4-66.6,15.2s-2.7-48.7,15.2-66.6c17.9-17.9,35.4-12.4,49.6,1.8   C437.7,139.8,443.2,157.3,425.3,175.2z"/>
	<path style="fill:#CED5E0;" d="M79.7,175.2c17.9,17.9,52.4,29.4,66.6,15.2c14.2-14.2,2.7-48.7-15.2-66.6s-35.4-12.4-49.6,1.8   C67.3,139.8,61.8,157.3,79.7,175.2z"/>
</g>
<circle style="fill:#E6E9EE;" cx="252.5" cy="267.1" r="158.5"/>
<path style="fill:#CED5E0;" d="M320.9,340.8c0,41.8-30.6,93.5-68.4,93.5s-68.4-51.8-68.4-93.5s30.6-57.7,68.4-57.7  C290.3,283,320.9,299,320.9,340.8z"/>
<path style="fill:#324A5E;" d="M290.7,338.7c0,16.9-17.1,38.9-38.2,38.9s-38.2-22-38.2-38.9s17.1-22.4,38.2-22.4  C273.6,316.4,290.7,321.8,290.7,338.7z"/>
<path style="fill:#FFFFFF;" d="M288.2,235.9c2,15.8,14.2,28,27.4,27.3c13.2-0.7,22.3-14,20.3-29.7c-2-15.8-14.2-28-27.4-27.3  C295.4,206.9,286.3,220.2,288.2,235.9z"/>
<path style="fill:#F9B54C;" d="M292.2,240.2c1.3,10.2,10.7,18.1,21,17.6s17.7-9.2,16.4-19.5c-1.3-10.2-10.7-18.1-21-17.6  C298.2,221.3,290.9,230,292.2,240.2z"/>
<path style="fill:#2B3B4E;" d="M301.4,239.8c0.6,5.2,5.4,9.2,10.7,8.9c5.2-0.3,9-4.7,8.3-9.9c-0.6-5.2-5.4-9.2-10.7-8.9  C304.5,230.2,300.8,234.6,301.4,239.8z"/>
<path style="fill:#FFFFFF;" d="M303.6,227.8c-1.4,2.4-0.1,4.9,3,5.6c3,0.7,6.7-0.6,8.1-2.9c1.4-2.4,0.1-4.9-3-5.6  C308.6,224.1,305,225.5,303.6,227.8z"/>
<path style="fill:#324A5E;" d="M286.2,195.6c0,0,3.7-1.6,8.7-2.9c1.2-0.4,2.6-0.5,4-0.9c1.4-0.1,2.8-0.5,4.3-0.5  c1.5-0.2,3-0.1,4.5,0s3,0.3,4.6,0.5c1.5,0.4,3.1,0.6,4.6,1.1c1.5,0.6,3,0.8,4.5,1.5c1.5,0.6,2.9,1.1,4.2,1.7  c1.3,0.7,2.6,1.2,3.9,1.8c2.5,1,4.5,2.2,6,2.8c1.5,0.7,2.5,1,2.5,1s-0.4-0.9-1.2-2.4c-0.4-0.7-0.9-1.6-1.6-2.6  c-0.6-1-1.4-2.1-2.4-3.2c-1-1.1-2.1-2.3-3.3-3.4c-1.3-1.1-2.8-2.1-4.3-3.2c-1.5-1.1-3.4-1.8-5.2-2.7c-1.8-0.9-3.9-1.2-5.9-1.7  c-2.1-0.2-4.2-0.5-6.3-0.4c-2.1,0.1-4.1,0.4-6,1c-1.9,0.4-3.6,1.3-5.2,2c-1.5,0.9-2.9,1.8-4.1,2.8c-2.4,1.8-3.9,3.9-4.9,5.3  C286.6,194.7,286.2,195.6,286.2,195.6z"/>
<path style="fill:#FFFFFF;" d="M216.8,235.9c-2,15.8-14.2,28-27.4,27.3s-22.3-14-20.3-29.7c2-15.8,14.2-28,27.4-27.3  C209.6,206.9,218.7,220.2,216.8,235.9z"/>
<path style="fill:#F9B54C;" d="M212.8,240.2c-1.3,10.2-10.7,18.1-21,17.6s-17.7-9.2-16.4-19.5c1.3-10.2,10.7-18.1,21-17.6  C206.8,221.3,214.1,230,212.8,240.2z"/>
<path style="fill:#2B3B4E;" d="M203.6,239.8c-0.6,5.2-5.4,9.2-10.7,8.9c-5.2-0.3-9-4.7-8.3-9.9c0.6-5.2,5.4-9.2,10.7-8.9  C200.5,230.2,204.2,234.6,203.6,239.8z"/>
<path style="fill:#FFFFFF;" d="M201.4,227.8c1.4,2.4,0.1,4.9-3,5.6c-3,0.7-6.7-0.6-8.1-2.9c-1.4-2.4-0.1-4.9,3-5.6  S200,225.5,201.4,227.8z"/>
<path style="fill:#324A5E;" d="M218.8,195.6c0,0-3.7-1.6-8.7-2.9c-1.2-0.4-2.6-0.5-4-0.9c-1.4-0.1-2.8-0.5-4.3-0.5  c-1.5-0.2-3-0.1-4.5,0s-3,0.3-4.6,0.5c-1.5,0.4-3.1,0.6-4.6,1.1c-1.5,0.6-3,0.8-4.5,1.5c-1.5,0.6-2.9,1.1-4.2,1.7  c-1.3,0.7-2.6,1.2-3.9,1.8c-2.5,1-4.5,2.2-6,2.8c-1.5,0.7-2.5,1-2.5,1s0.4-0.9,1.2-2.4c0.4-0.7,0.9-1.6,1.6-2.6  c0.6-1,1.4-2.1,2.4-3.2c1-1.1,2.1-2.3,3.3-3.4c1.3-1.1,2.8-2.1,4.3-3.2c1.5-1.1,3.4-1.8,5.2-2.7s3.9-1.2,5.9-1.7  c2.1-0.2,4.2-0.5,6.3-0.4s4.1,0.4,6,1c1.9,0.4,3.6,1.3,5.2,2c1.5,0.9,2.9,1.8,4.1,2.8c2.4,1.8,3.9,3.9,4.9,5.3  C218.4,194.7,218.8,195.6,218.8,195.6z"/>
<g>
</g>
<g>
</g>
<g>
</g>
<g>
</g>
<g>
</g>
<g>
</g>
<g>
</g>
<g>
</g>
<g>
</g>
<g>
</g>
<g>
</g>
<g>
</g>
<g>
</g>
<g>
</g>
<g>
</g>
</svg>
