<?xml version="1.0" encoding="iso-8859-1"?>
<!-- Generator: Adobe Illustrator 19.0.0, SVG Export Plug-In . SVG Version: 6.00 Build 0)  -->
<svg xmlns="http://www.w3.org/2000/svg" xmlns:xlink="http://www.w3.org/1999/xlink" version="1.1" id="Layer_1" x="0px" y="0px" viewBox="0 0 505 505" style="enable-background:new 0 0 505 505;" xml:space="preserve">
<circle style="fill:#324A5E;" cx="252.5" cy="252.5" r="252.5"/>
<path style="fill:#FFD05B;" d="M124.3,285.3h256.4c-10.9-23.6-13.1-42.3-13.3-52.8c0.2-3.1,0.5-6.3,0.5-9.5  c0-65-51.7-117.7-115.4-117.7c-63.8,0-115.4,52.7-115.4,117.7c0,3.2,0.2,6.4,0.5,9.5C137.4,243,135.2,261.7,124.3,285.3z"/>
<path style="fill:#FFFFFF;" d="M316.1,236.1c4.9,20.8-0.7,39.9-12.6,42.7c-11.8,2.8-25.4-11.8-30.3-32.5  c-4.9-20.8,0.7-39.9,12.6-42.7C297.7,200.8,311.2,215.3,316.1,236.1z"/>
<ellipse style="fill:#84DBFF;" cx="294.7" cy="244.2" rx="14.1" ry="15.6"/>
<ellipse style="fill:#324A5E;" cx="295.3" cy="246.4" rx="9.5" ry="10.5"/>
<g>
	<circle style="fill:#FFFFFF;" cx="289.3" cy="237.8" r="3.4"/>
	<circle style="fill:#FFFFFF;" cx="294" cy="242.5" r="1.4"/>
</g>
<path style="fill:#324A5E;" d="M310.1,218.5c0.6,0.1,1.1,0.2,1.8,0.2c2,0.1,3.9-0.6,3.9-0.6s-1.9,0.2-3.7-0.4  c-0.9-0.3-1.7-0.6-2.3-0.9c-0.3-0.1-0.5-0.2-0.6-0.3c-0.2-0.3-0.4-0.7-0.6-1c-0.3-0.5-0.5-0.9-0.8-1.4c0.5,0,0.9,0.1,1.4,0.1  c1.3,0,2.7-0.2,3.6-0.4c1-0.2,1.5-0.5,1.5-0.5s-0.6,0.1-1.6,0c-0.9,0-2.2-0.3-3.3-0.6c-1.2-0.4-2.3-0.9-3.1-1.3  c-0.4-0.2-0.6-0.3-0.8-0.5c-0.5-0.6-1-1.2-1.5-1.8c0.4,0,0.7,0.1,1.1,0.1c2,0.1,4-0.1,5.4-0.4c1.5-0.3,2.4-0.7,2.4-0.7  s-1,0.2-2.4,0.2s-3.3-0.2-5.2-0.7c-1.8-0.4-3.4-1.1-4.7-1.7c-2.6-2.1-5.9-3.9-9.6-4.4c-2.2-0.3-4.6,0-6.6,0.6c-2.2,0.7-4,2-5.5,3.4  c-3,2.9-4.5,6.3-5.5,9.2c-0.9,2.9-1.1,5.5-1.3,7.2c-0.1,1.8,0,2.7,0,2.7s0.3-0.9,0.8-2.6c0.5-1.6,1.4-3.9,2.7-6.5  c1.3-2.5,3.1-5.3,5.7-7.4c1.3-1.1,2.7-1.8,4.2-2.3c1.7-0.5,3.3-0.6,5-0.4c1.7,0.2,3.4,0.7,4.9,1.5c1.6,0.8,3.1,1.7,4.4,2.8  c2.7,2.2,5,4.6,6.9,6.8c1.8,2.2,3.3,4.2,4.2,5.7c0.9,1.5,1.5,2.3,1.5,2.3s-0.3-1-0.8-2.6C311.1,221,310.7,219.8,310.1,218.5z"/>
<path style="fill:#FFFFFF;" d="M188.9,236.1c-4.9,20.8,0.7,39.9,12.6,42.7c11.8,2.8,25.4-11.8,30.3-32.5  c4.9-20.8-0.7-39.9-12.6-42.7C207.3,200.8,193.8,215.3,188.9,236.1z"/>
<ellipse style="fill:#84DBFF;" cx="210.3" cy="244.2" rx="14.1" ry="15.6"/>
<ellipse style="fill:#324A5E;" cx="209.7" cy="246.4" rx="9.5" ry="10.5"/>
<g>
	<circle style="fill:#FFFFFF;" cx="215.7" cy="237.8" r="3.4"/>
	<circle style="fill:#FFFFFF;" cx="211" cy="242.5" r="1.4"/>
</g>
<path style="fill:#324A5E;" d="M194.9,218.5c-0.6,0.1-1.1,0.2-1.8,0.2c-2,0.1-3.9-0.6-3.9-0.6s1.9,0.2,3.7-0.4  c0.9-0.3,1.7-0.6,2.3-0.9c0.3-0.1,0.5-0.2,0.6-0.3c0.2-0.3,0.4-0.7,0.6-1c0.3-0.5,0.5-0.9,0.8-1.4c-0.5,0-0.9,0.1-1.4,0.1  c-1.3,0-2.7-0.2-3.6-0.4c-1-0.2-1.5-0.5-1.5-0.5s0.6,0.1,1.6,0c0.9,0,2.2-0.3,3.3-0.6c1.2-0.4,2.3-0.9,3.1-1.3  c0.4-0.2,0.6-0.3,0.8-0.5c0.5-0.6,1-1.2,1.5-1.8c-0.4,0-0.7,0.1-1.1,0.1c-2,0.1-4-0.1-5.4-0.4c-1.5-0.3-2.4-0.7-2.4-0.7  s1,0.2,2.4,0.2s3.3-0.2,5.2-0.7c1.8-0.4,3.4-1.1,4.7-1.7c2.6-2.1,5.9-3.9,9.6-4.4c2.2-0.3,4.6,0,6.6,0.6c2.2,0.7,4,2,5.5,3.4  c3,2.9,4.5,6.3,5.5,9.2c0.9,2.9,1.1,5.5,1.3,7.2c0.1,1.8,0,2.7,0,2.7s-0.3-0.9-0.8-2.6c-0.5-1.6-1.4-3.9-2.7-6.5  c-1.3-2.5-3.1-5.3-5.7-7.4c-1.3-1.1-2.7-1.8-4.2-2.3c-1.7-0.5-3.3-0.6-5-0.4c-1.7,0.2-3.4,0.7-4.9,1.5c-1.6,0.8-3.1,1.7-4.4,2.8  c-2.7,2.2-5,4.6-6.9,6.8c-1.8,2.2-3.3,4.2-4.2,5.7s-1.5,2.3-1.5,2.3s0.3-1,0.8-2.6C193.9,221,194.3,219.8,194.9,218.5z"/>
<path style="fill:#FFD05B;" d="M386.9,289.2l10,4.5c-21.4-59.4-104.9-29-144.3-10.7c-39.5-18.4-122.9-48.8-144.3,10.7l10-4.5  c0,0-20.5,23.2-6.8,55.4l4.7-11.9c0,0-0.5,30.6,17.8,48.1l4.7-13c0,0-3.8,16,36.6,33c11.7,4.9,24.2,7.7,37,9.1  c5,0.6,11.4,1.8,18.4,4.3c14.1,5.1,29.7,5.1,43.8,0c7-2.5,13.4-3.7,18.4-4.3c12.7-1.4,25.3-4.2,37-9.1c40.4-17,36.6-33,36.6-33  l4.7,13c18.4-17.5,17.8-48.1,17.8-48.1l4.7,11.9C407.3,312.4,386.9,289.2,386.9,289.2z"/>
<g>
	<path style="fill:#F1543F;" d="M304.4,315.5c0,0-4.2,55-37.7,46.5C266.6,362.1,260,317.8,304.4,315.5z"/>
	<path style="fill:#F1543F;" d="M200.6,315.5c0,0,4.2,55,37.7,46.5C238.4,362.1,245,317.8,200.6,315.5z"/>
</g>
<path style="fill:#FF7058;" d="M289.3,304.9c-5.3-19.3-32.9-19.7-36.8-19.6c-3.8,0-31.5,0.3-36.8,19.6c0,0-47.6,2.2-11.3,21.9  c0,0,21.8,4.5,28.2,38.2c2.1,11,10.6,19.1,19.9,16.9c9.3,2.2,17.8-5.9,19.9-16.9c6.4-33.6,28.2-38.2,28.2-38.2  C336.9,307.1,289.3,304.9,289.3,304.9z"/>
<g>
	<ellipse style="fill:#324A5E;" cx="262" cy="319.3" rx="4.3" ry="9.8"/>
	<ellipse style="fill:#324A5E;" cx="243" cy="319.3" rx="4.3" ry="9.8"/>
</g>
<g>
	<path style="fill:#F9B54C;" d="M276.5,167.4c0,0,0.8-0.8,2.4-1.8c0.8-0.5,1.9-1,3.1-1.5c1.3-0.5,2.7-0.9,4.4-1.2   c1.7-0.3,3.5-0.5,5.4-0.4c2-0.1,4,0.3,6.1,0.6c2,0.6,4.2,0.9,6.2,1.9c1,0.4,2,0.9,3.1,1.3c1,0.5,1.9,1.1,2.9,1.6   c0.9,0.6,1.9,1.1,2.8,1.7l2.6,2c1.8,1.3,3.3,2.7,4.7,4.2c1.4,1.4,2.8,2.8,3.9,4.3c1.1,1.4,2.1,2.9,3.1,4.2s1.6,2.6,2.2,3.8   c0.6,1.1,1.1,2.2,1.5,3c0.8,1.7,1.2,2.7,1.2,2.7s-0.9-0.6-2.4-1.7c-0.7-0.6-1.6-1.2-2.6-2s-2-1.7-3.3-2.7c-1.2-0.9-2.5-1.9-3.9-3.1   c-1.3-1.2-2.9-2.1-4.3-3.3c-0.7-0.6-1.5-1.1-2.2-1.7c-0.8-0.5-1.6-1-2.4-1.6c-1.6-1.1-3.2-2.2-4.9-3.1c-1.6-1.1-3.3-1.9-5-2.7   c-1.7-0.9-3.4-1.5-5-2.2c-1.7-0.4-3.3-1.2-4.9-1.5c-1.6-0.4-3.1-0.7-4.6-0.9c-1.4-0.1-2.8-0.3-4-0.3s-2.3,0-3.2,0   C277.6,167.3,276.5,167.4,276.5,167.4z"/>
	<path style="fill:#F9B54C;" d="M228.5,167.4c0,0-1.1-0.2-2.9-0.3c-0.9,0-2,0-3.2,0s-2.6,0.2-4,0.3c-1.5,0.2-3,0.5-4.6,0.9   c-1.6,0.3-3.2,1.1-4.9,1.5c-1.6,0.7-3.4,1.3-5,2.2c-1.7,0.8-3.4,1.6-5,2.7c-1.7,0.9-3.3,2-4.9,3.1c-0.8,0.5-1.6,1.1-2.4,1.6   c-0.8,0.6-1.5,1.2-2.2,1.7c-1.4,1.2-3,2.1-4.3,3.3c-1.3,1.1-2.6,2.1-3.9,3.1c-1.2,0.9-2.3,1.9-3.3,2.7s-1.9,1.5-2.6,2   c-1.5,1.1-2.4,1.7-2.4,1.7s0.4-1,1.2-2.7c0.4-0.8,0.9-1.9,1.5-3s1.3-2.5,2.2-3.8s1.9-2.7,3.1-4.2c1.1-1.5,2.5-2.9,3.9-4.3   c1.4-1.5,2.9-3,4.7-4.2l2.6-2c0.9-0.6,1.9-1.2,2.8-1.7c1-0.5,1.9-1.1,2.9-1.6c1-0.4,2-0.9,3.1-1.3c2-1,4.2-1.3,6.2-1.9   c2.1-0.3,4.1-0.7,6.1-0.6c1.9-0.1,3.8,0.1,5.4,0.4c1.7,0.3,3.1,0.7,4.4,1.2c1.3,0.4,2.3,1,3.1,1.5   C227.7,166.7,228.5,167.4,228.5,167.4z"/>
</g>
<path style="fill:#FFD05B;" d="M248.7,118.7c0,0,0-0.2,0-0.5c0-0.2,0.1-0.7,0.1-1.3c0-1.2,0-3-0.3-5.1s-0.9-4.6-1.8-7.2  c-0.9-2.6-2.2-5.2-3.9-7.7c-0.8-1.3-1.8-2.4-2.7-3.6c-1-1.1-2-2.1-3-3.2c-1.1-0.9-2.1-1.8-3.1-2.7c-1-0.9-2.1-1.5-3.1-2.1  c-1.9-1.4-3.7-2.2-4.9-2.8c-1.2-0.6-1.9-1-1.9-1s0.7,0.3,2,0.7c1.3,0.5,3.2,1,5.3,2.1c1.1,0.5,2.3,1,3.5,1.7s2.4,1.5,3.7,2.3  c1.2,0.9,2.5,1.8,3.7,2.9c1.1,1.1,2.4,2.2,3.5,3.4c2.2,2.4,4.2,5.2,5.7,7.9c1.5,2.8,2.6,5.5,3.4,7.9s1.2,4.6,1.4,6.1  c0.1,0.8,0.2,1.4,0.2,1.9c0,0.4,0,0.6,0,0.6L248.7,118.7z"/>
<g>
</g>
<g>
</g>
<g>
</g>
<g>
</g>
<g>
</g>
<g>
</g>
<g>
</g>
<g>
</g>
<g>
</g>
<g>
</g>
<g>
</g>
<g>
</g>
<g>
</g>
<g>
</g>
<g>
</g>
</svg>
