<?xml version="1.0" encoding="iso-8859-1"?>
<!-- Generator: Adobe Illustrator 19.0.0, SVG Export Plug-In . SVG Version: 6.00 Build 0)  -->
<svg xmlns="http://www.w3.org/2000/svg" xmlns:xlink="http://www.w3.org/1999/xlink" version="1.1" id="Layer_1" x="0px" y="0px" viewBox="0 0 505 505" style="enable-background:new 0 0 505 505;" xml:space="preserve">
<circle style="fill:#90DFAA;" cx="252.5" cy="252.5" r="252.5"/>
<g>
	<path style="fill:#324A5E;" d="M378.3,91C313,109.1,274.8,176.8,293,242.1l0,0C358.3,223.9,396.5,156.2,378.3,91L378.3,91z"/>
	<path style="fill:#324A5E;" d="M126.7,91c65.3,18.1,103.5,85.8,85.3,151.1l0,0C146.7,223.9,108.5,156.2,126.7,91L126.7,91z"/>
</g>
<path style="fill:#E6E9EE;" d="M144.3,331.9h216.5c-9.2-19.9-11.1-35.7-11.2-44.6c0.2-2.7,0.4-5.3,0.4-8c0-54.9-43.6-99.4-97.5-99.4  c-53.8,0-97.5,44.5-97.5,99.4c0,2.7,0.2,5.4,0.4,8C155.3,296.2,153.4,312.1,144.3,331.9z"/>
<path style="fill:#FFFFFF;" d="M323.4,288.2c5.5,18.6-0.8,35.8-14,38.3s-28.3-10.5-33.8-29.2c-5.5-18.6,0.8-35.8,14-38.3  C302.8,256.5,317.9,269.6,323.4,288.2z"/>
<ellipse style="fill:#84DBFF;" cx="299.5" cy="295.4" rx="15.8" ry="14"/>
<ellipse style="fill:#324A5E;" cx="300.2" cy="297.4" rx="10.6" ry="9.4"/>
<g>
	<ellipse style="fill:#FFFFFF;" cx="293.4" cy="289.7" rx="3.8" ry="3.1"/>
	<ellipse style="fill:#FFFFFF;" cx="298.7" cy="293.9" rx="1.5" ry="1.2"/>
</g>
<path style="fill:#324A5E;" d="M316.6,272.4c0.6,0.1,1.3,0.1,1.9,0.1c2.3,0.1,4.3-0.6,4.3-0.6s-2.2,0.2-4.1-0.3  c-1-0.2-1.9-0.6-2.6-0.8c-0.3-0.1-0.5-0.2-0.7-0.3c-0.2-0.3-0.4-0.6-0.6-0.9c-0.3-0.4-0.6-0.8-0.9-1.3c0.5,0,1,0.1,1.5,0.1  c1.5,0,3-0.1,4-0.4c1.1-0.2,1.7-0.5,1.7-0.5s-0.7,0.1-1.8,0c-1.1,0-2.4-0.2-3.7-0.6c-1.3-0.3-2.5-0.8-3.4-1.2  c-0.4-0.2-0.7-0.3-0.9-0.4c-0.5-0.5-1.1-1.1-1.7-1.6c0.4,0,0.8,0.1,1.3,0.1c2.2,0.1,4.5,0,6.1-0.3s2.6-0.6,2.6-0.6s-1.1,0.2-2.7,0.2  s-3.7-0.2-5.8-0.6c-2-0.4-3.8-1-5.2-1.5c-2.9-1.9-6.5-3.5-10.7-4c-2.5-0.3-5.2,0-7.4,0.6c-2.4,0.6-4.5,1.8-6.1,3.1  c-3.3,2.6-5.1,5.7-6.1,8.3c-1,2.6-1.3,4.9-1.4,6.5s-0.1,2.5-0.1,2.5s0.3-0.8,0.9-2.3c0.5-1.5,1.6-3.5,3-5.8c1.5-2.3,3.5-4.8,6.3-6.6  c1.4-1,3.1-1.6,4.7-2.1c1.9-0.5,3.6-0.6,5.5-0.3c1.9,0.2,3.7,0.6,5.5,1.4c1.7,0.7,3.4,1.5,4.9,2.5c3,1.9,5.6,4.1,7.6,6.1  s3.7,3.8,4.7,5.1c1,1.3,1.7,2,1.7,2s-0.3-0.9-0.9-2.4C317.8,274.7,317.3,273.6,316.6,272.4z"/>
<path style="fill:#FFFFFF;" d="M181.6,288.2c-5.5,18.6,0.8,35.8,14,38.3s28.3-10.5,33.8-29.2c5.5-18.6-0.8-35.8-14-38.3  C202.2,256.5,187.1,269.6,181.6,288.2z"/>
<ellipse style="fill:#84DBFF;" cx="205.5" cy="295.4" rx="15.8" ry="14"/>
<ellipse style="fill:#324A5E;" cx="204.8" cy="297.4" rx="10.6" ry="9.4"/>
<g>
	<ellipse style="fill:#FFFFFF;" cx="211.6" cy="289.7" rx="3.8" ry="3.1"/>
	<ellipse style="fill:#FFFFFF;" cx="206.3" cy="293.9" rx="1.5" ry="1.2"/>
</g>
<path style="fill:#324A5E;" d="M188.4,272.4c-0.6,0.1-1.3,0.1-1.9,0.1c-2.3,0.1-4.3-0.6-4.3-0.6s2.2,0.2,4.1-0.3  c1-0.2,1.9-0.6,2.6-0.8c0.3-0.1,0.5-0.2,0.7-0.3c0.2-0.3,0.4-0.6,0.6-0.9c0.3-0.4,0.6-0.8,0.9-1.3c-0.5,0-1,0.1-1.5,0.1  c-1.5,0-3-0.1-4-0.4c-1.1-0.2-1.7-0.5-1.7-0.5s0.7,0.1,1.8,0c1.1,0,2.4-0.2,3.7-0.6c1.3-0.3,2.5-0.8,3.4-1.2  c0.4-0.2,0.7-0.3,0.9-0.4c0.5-0.5,1.1-1.1,1.7-1.6c-0.4,0-0.8,0.1-1.3,0.1c-2.2,0.1-4.5,0-6.1-0.3s-2.6-0.6-2.6-0.6s1.1,0.2,2.7,0.2  c1.6,0,3.7-0.2,5.8-0.6c2-0.4,3.8-1,5.2-1.5c2.9-1.9,6.5-3.5,10.7-4c2.5-0.3,5.2,0,7.4,0.6c2.4,0.6,4.5,1.8,6.1,3.1  c3.3,2.6,5.1,5.7,6.1,8.3c1,2.6,1.3,4.9,1.4,6.5c0.1,1.6,0.1,2.5,0.1,2.5s-0.3-0.8-0.9-2.3c-0.5-1.5-1.6-3.5-3-5.8  c-1.5-2.3-3.5-4.8-6.3-6.6c-1.4-1-3.1-1.6-4.7-2.1c-1.9-0.5-3.6-0.6-5.5-0.3c-1.9,0.2-3.7,0.6-5.5,1.4c-1.7,0.7-3.4,1.5-4.9,2.5  c-3,1.9-5.6,4.1-7.6,6.1s-3.7,3.8-4.7,5.1c-1,1.3-1.7,2-1.7,2s0.3-0.9,0.9-2.4C187.2,274.7,187.7,273.6,188.4,272.4z"/>
<path style="fill:#E6E9EE;" d="M297.1,435.6L297.1,435.6c-3.5,0.7-7,1.2-10.6,1.6c-4.3,0.5-9.6,1.5-15.6,3.6  c-11.9,4.3-25.1,4.3-37,0c-5.9-2.1-11.3-3.2-15.5-3.6c-3.6-0.4-7.1-0.9-10.6-1.6c-107.1-7.8-77.3-96.5-77.3-96.5h0.1  c18.1-50.2,88.5-24.5,121.9-9c27.5-12.9,80.5-32.6,108.2-10.7c5.8,4.6,10.5,11,13.6,19.7C374.3,339.1,404.2,427.8,297.1,435.6z"/>
<path style="fill:#324A5E;" d="M257.2,374.2c-1.6-1-2.7-2.3-3.5-3.8h-2.6c-6.2,6.5-13.8,7.9-22.4,7.7c-0.4,0-0.7-0.1-1.1-0.1  c0,0.7,0,1.5,0,2.3c0,8.2,2.3,15.7,6.2,21.4c4.5,6.8,11.2,11.1,18.7,11.1s14.2-4.3,18.7-11.1c3.9-5.7,6.2-13.2,6.2-21.4  c0-0.7,0-1.3-0.1-1.9C270.7,379.9,262.3,377.4,257.2,374.2z"/>
<path style="fill:#FF7058;" d="M271.2,401.6c-4.5,6.8-11.2,11.1-18.7,11.1s-14.2-4.3-18.7-11.1c5.5-7.6,12.2-11.6,16.9-9.5  c0.7,0.3,1.3,0.8,1.9,1.3c0.5-0.5,1.2-1,1.9-1.3C259,390,265.8,394,271.2,401.6z"/>
<path style="fill:#ACB3BA;" d="M297.1,354c0,1.3,0.1,2.6,0,3.9s-0.4,2.6-0.7,3.9c-0.4,1.3-0.7,2.5-1.3,3.7c-0.5,1.2-1.2,2.4-1.9,3.5  c-2.9,4.5-7.3,8-12.4,10c-1.3,0.5-2.6,0.9-3.9,1.2c-1.3,0.3-2.7,0.4-4.1,0.5c-0.7,0.1-1.4,0-2,0c-0.7,0-1.4-0.1-2.1-0.2  c-1.4-0.1-2.7-0.4-4.1-0.8c-5.3-1.5-10.2-4.7-13.6-9.1h3.1c-3.5,4.3-8.3,7.6-13.6,9.1c-2.7,0.7-5.4,1.1-8.2,0.9l-1.9-0.1l-2.1-0.3  c-1.4-0.3-2.7-0.7-4-1.2c-5.1-1.9-9.5-5.5-12.4-10c-0.7-1.1-1.4-2.3-1.9-3.5c-0.6-1.2-0.9-2.5-1.3-3.7c-0.3-1.3-0.6-2.6-0.7-3.9  c-0.2-1.3-0.1-2.6,0-3.9c0.3,2.6,0.8,5.1,1.7,7.4c0.5,1.2,1,2.3,1.6,3.4s1.3,2.1,2.1,3.1c3,3.9,7.2,6.9,11.9,8.2  c1.1,0.4,2.4,0.6,3.5,0.8l1.7,0.2l1.9,0.1c2.3,0.1,4.8-0.4,7-1c4.6-1.4,8.7-4.2,11.6-7.9c0.7-0.9,1.9-1,2.8-0.3  c0.1,0.1,0.3,0.2,0.3,0.3c2.9,3.8,7,6.5,11.6,7.9c1.1,0.3,2.3,0.6,3.5,0.8c0.6,0.1,1.1,0.1,1.7,0.2c0.7,0,1.2,0.1,1.8,0  c1.2,0,2.4-0.1,3.6-0.3c1.2-0.2,2.4-0.4,3.5-0.8c4.6-1.4,8.8-4.3,11.9-8.2c0.8-1,1.5-2,2.1-3.1c0.7-1.1,1.1-2.2,1.6-3.4  C296.3,359.1,296.8,356.6,297.1,354z"/>
<path style="fill:#324A5E;" d="M275.7,347.5c0,9-10.4,22.8-23.2,22.8c-12.8,0-23.2-13.8-23.2-22.8s10.4-9.8,23.2-9.8  C265.3,337.7,275.7,338.5,275.7,347.5z"/>
<g>
</g>
<g>
</g>
<g>
</g>
<g>
</g>
<g>
</g>
<g>
</g>
<g>
</g>
<g>
</g>
<g>
</g>
<g>
</g>
<g>
</g>
<g>
</g>
<g>
</g>
<g>
</g>
<g>
</g>
</svg>
