<?xml version="1.0" encoding="iso-8859-1"?>
<!-- Generator: Adobe Illustrator 19.0.0, SVG Export Plug-In . SVG Version: 6.00 Build 0)  -->
<svg xmlns="http://www.w3.org/2000/svg" xmlns:xlink="http://www.w3.org/1999/xlink" version="1.1" id="Layer_1" x="0px" y="0px" viewBox="0 0 505 505" style="enable-background:new 0 0 505 505;" xml:space="preserve">
<circle style="fill:#FD8469;" cx="252.5" cy="252.5" r="252.5"/>
<path style="fill:#324A5E;" d="M102,243.4c0,48.6,67.4,102.8,150.5,102.8S403,292,403,243.4s-67.4-73.1-150.5-73.1  C169.4,170.3,102,194.8,102,243.4z"/>
<circle style="fill:#FFFFFF;" cx="345.2" cy="225.3" r="21.3"/>
<ellipse style="fill:#54C0EB;" cx="345.2" cy="232" rx="11.3" ry="12.7"/>
<circle style="fill:#FFFFFF;" cx="166.6" cy="225.3" r="21.3"/>
<ellipse style="fill:#54C0EB;" cx="166.6" cy="232" rx="11.3" ry="12.7"/>
<g>
	<path style="fill:#324A5E;" d="M406.1,406.2c-1.1-2.1-2.7-5-4.7-8.5c-4-7-9.8-16.1-16.1-24.9c-6.4-8.8-13.3-17.4-18.8-23.7   c-2.8-3.1-5.2-5.7-6.9-7.5c-0.9-0.9-1.7-1.7-2.2-2.2s-0.8-0.7-0.8-0.7l-18.1,27.1c0,0,0.3,0.1,0.8,0.3c0.4,0.1,1.2,0.5,2.2,0.9   c1.9,0.9,4.8,2.1,8.2,3.8c6.8,3.3,15.8,8.3,24.5,13.8c8.8,5.5,17.3,11.6,23.5,16.4c3.1,2.4,5.7,4.5,7.5,6s2.8,2.3,2.8,2.3   S407.1,408.3,406.1,406.2z"/>
	<path style="fill:#324A5E;" d="M147.7,339.5c-0.5,0.5-1.2,1.2-2.2,2.2c-1.7,1.8-4.2,4.4-6.9,7.5c-5.6,6.2-12.5,14.8-18.8,23.7   c-6.4,8.8-12.1,18-16.1,24.9c-2,3.5-3.6,6.4-4.7,8.5c-1.1,2-1.7,3.2-1.7,3.2s1-0.8,2.8-2.3s4.3-3.6,7.5-6   c6.2-4.9,14.7-11,23.5-16.4c8.8-5.5,17.7-10.5,24.5-13.8c3.4-1.7,6.2-3,8.2-3.8c1-0.4,1.7-0.7,2.2-0.9c0.5-0.2,0.8-0.3,0.8-0.3   l-18.3-27.2C148.5,338.8,148.2,339,147.7,339.5z"/>
	<path style="fill:#324A5E;" d="M284.1,183L254.4,68.5c-0.5-1.9-3.3-1.9-3.8,0l-29.7,114.4h63.2V183z"/>
</g>
<path style="fill:#E6E9EE;" d="M414.3,239.9c-12-8-29.9-4.8-51.4,1.5c-14.5,4.2-30.1-1.2-38.7-13.6l-42.5-61.3  c-14.1-20.4-44.3-20.4-58.4,0l-42.5,61.3c-8.6,12.4-24.2,17.9-38.7,13.6c-21.5-6.3-39.3-9.5-51.4-1.5c-13,10.5-13.5,50.3,14,91.8  c26.3,40.8,80.6,83.3,147.8,81.8c67.1,1.5,121.5-41,147.8-81.8C427.8,290.1,427.2,250.4,414.3,239.9z"/>
<g>
	<path style="fill:#324A5E;" d="M294.3,221.4c5,7.7,2.1,9.4-1.4,11.7s-6.3,4.2-11.3-3.5s-10.2-22-6.7-24.2   C278.5,203.1,289.4,213.7,294.3,221.4z"/>
	<path style="fill:#324A5E;" d="M210.7,221.4c-5,7.7-2.1,9.4,1.4,11.7s6.3,4.2,11.3-3.5s10.2-22,6.7-24.2   C226.5,203.1,215.6,213.7,210.7,221.4z"/>
	<path style="fill:#324A5E;" d="M360.3,282.3c-2.2,11.3-6.1,22-11.2,31.8c-18.7,35.4-55,59.4-96.6,59.4s-77.9-24-96.6-59.4   c-5.2-9.8-9-20.5-11.3-31.8c2.8,1.4,5.6,2.8,8.5,4.1c27.7,12.6,62.1,20.1,99.4,20.1s71.7-7.5,99.3-20.1l0,0   C354.8,285.1,357.6,283.8,360.3,282.3z"/>
</g>
<g>
	<path style="fill:#FFFFFF;" d="M349.1,314.1c-18.7,35.4-54.9,59.4-96.6,59.4s-77.9-24-96.6-59.4c0.4-0.4,0.8-0.8,1.2-1.2   c4.7-1,9.3-2.3,13.7-3.8c-1.7,5.7-3.2,11.5-4.4,17.6c5-1.8,9.8-3.9,14.5-6.2c-1.2,6.2-2.1,12.5-2.7,19c5.1-2.6,9.9-5.6,14.6-8.9   c-0.5,6.7-0.6,13.5-0.4,20.4c5.1-3.6,9.9-7.6,14.5-11.8c0.4,7.1,1.2,14.2,2.4,21.4c5-4.7,9.6-9.8,13.9-15.2   c1.5,7.3,3.4,14.6,5.9,21.9c4.7-6,9-12.4,12.7-19.1c2.9,7.7,6.5,15.2,10.7,22.4c4.2-7.2,7.8-14.7,10.7-22.4   c3.7,6.7,8,13.1,12.7,19.1c2.5-7.2,4.4-14.5,5.9-21.9c4.2,5.4,8.9,10.5,13.9,15.2c1.2-7.2,2.1-14.3,2.4-21.4   c4.5,4.3,9.4,8.2,14.5,11.8c0.2-6.9,0-13.7-0.4-20.4c4.7,3.3,9.5,6.2,14.6,8.9c-0.6-6.5-1.5-12.9-2.7-19c4.7,2.3,9.5,4.4,14.5,6.2   c-1.2-6-2.7-11.9-4.4-17.6c4.5,1.5,9.1,2.8,13.7,3.8L349.1,314.1z"/>
	<path style="fill:#FFFFFF;" d="M340.2,292c0.2,5.9,0.4,11.8,0.3,17.7c-4.7-3.8-9.2-7.8-13.5-11.9c-0.3,6.2-0.8,12.5-1.4,18.8   c-4.7-4.4-9.2-8.8-13.6-13.5c-0.9,6.6-2.1,13.2-3.6,19.9c-4.8-4.9-9.2-10-13.5-15.2c-1.8,7-3.8,13.9-6.2,20.8   c-4.7-5.6-9.2-11.4-13.3-17.3c-2.8,7.2-6,14.3-9.5,21.4c-4.8-6.8-9.3-13.6-13.4-20.7c-4.1,7-8.5,13.9-13.4,20.7   c-3.5-7.1-6.7-14.2-9.5-21.4c-4.2,5.9-8.6,11.6-13.3,17.3c-2.4-6.9-4.4-13.8-6.2-20.8c-4.3,5.2-8.8,10.3-13.5,15.2   c-1.4-6.6-2.6-13.2-3.6-19.9c-4.3,4.6-8.8,9.1-13.6,13.5c-0.7-6.3-1.2-12.6-1.4-18.8c-4.4,4.1-8.8,8.1-13.5,11.9   c-0.1-6,0-11.8,0.3-17.7c-4.3,3.7-8.8,7.2-13.3,10.6c0.4-5.4,0.9-10.8,1.6-16.2c27.7,12.6,62.1,20.1,99.4,20.1s71.7-7.5,99.3-20.1   c0.7,5.4,1.2,10.7,1.6,16.1C348.9,299.2,344.4,295.7,340.2,292z"/>
</g>
<g>
</g>
<g>
</g>
<g>
</g>
<g>
</g>
<g>
</g>
<g>
</g>
<g>
</g>
<g>
</g>
<g>
</g>
<g>
</g>
<g>
</g>
<g>
</g>
<g>
</g>
<g>
</g>
<g>
</g>
</svg>
