<?xml version="1.0" encoding="iso-8859-1"?>
<!-- Generator: Adobe Illustrator 19.0.0, SVG Export Plug-In . SVG Version: 6.00 Build 0)  -->
<svg xmlns="http://www.w3.org/2000/svg" xmlns:xlink="http://www.w3.org/1999/xlink" version="1.1" id="Layer_1" x="0px" y="0px" viewBox="0 0 505 505" style="enable-background:new 0 0 505 505;" xml:space="preserve">
<circle style="fill:#84DBFF;" cx="252.5" cy="252.5" r="252.5"/>
<g>
	<circle style="fill:#E6E9EE;" cx="389.5" cy="176.7" r="62.9"/>
	<circle style="fill:#E6E9EE;" cx="115.5" cy="176.7" r="62.9"/>
</g>
<path style="fill:#FFFFFF;" d="M392.8,260c0,80.5-62.8,180.3-140.3,180.3S112.2,340.5,112.2,260S175,148.8,252.5,148.8  C330,148.9,392.8,179.5,392.8,260z"/>
<path style="fill:#ACB3BA;" d="M287.6,367.1c0,20.4-15.7,27.1-35.1,27.1s-35.1-6.7-35.1-27.1s15.7-46.9,35.1-46.9  S287.6,346.7,287.6,367.1z"/>
<path style="fill:#CED5E0;" d="M294.8,341.1c0,30.5-19,40.6-42.3,40.6c-23.4,0-42.3-10-42.3-40.6c0-30.5,18.9-70,42.3-70  C275.9,271,294.8,310.5,294.8,341.1z"/>
<path style="fill:#324A5E;" d="M281.9,329.9c0,16.2-13.2,29.6-29.4,29.6s-29.4-13.3-29.4-29.6c0-16.2,13.2-20.8,29.4-20.8  S281.9,313.7,281.9,329.9z"/>
<g>
	<path style="fill:#E6E9EE;" d="M155.7,233.2c3.6-16.8,19.3-28.6,35.5-34.3c5.1-1.8,10.5-3.1,15.8-2.5c8.2,0.9,15.4,6.2,20.4,12.7   s8.2,14.3,11.3,21.9c-3.9,0.2-7.9-0.8-11.2-3c-0.6,4.7,3.1,8.7,5,13c3.7,8.5,0.2,18.3-3.3,26.9c-5.5,13.4-10.9,26.9-16.4,40.3   c0.9-6.1,1.7-12.2,2.6-18.3c0.2-1.1,0.3-2.3-0.1-3.3c-0.9-2.4-4.3-3-6.7-1.9c-2.4,1-4.1,3.1-6.2,4.7c-7,5.5-17.5,5.1-25,0.3   c-7.5-4.8-12.1-13.2-13.8-21.9c-0.7-3.7-1-7.5,0-11.1s3-6.7,5.3-9.6c6.5-8.5,14.7-15.8,23.9-21.2c-12.3-1.1-26.6-1.4-34.8,7.8"/>
	<path style="fill:#E6E9EE;" d="M349.3,233.2c-3.6-16.8-19.3-28.6-35.5-34.3c-5.1-1.8-10.5-3.1-15.8-2.5   c-8.2,0.9-15.4,6.2-20.4,12.7s-8.2,14.3-11.3,21.9c3.9,0.2,7.9-0.8,11.2-3c0.6,4.7-3.1,8.7-5,13c-3.7,8.5-0.2,18.3,3.3,26.9   c5.5,13.4,10.9,26.9,16.4,40.3c-0.9-6.1-1.7-12.2-2.6-18.3c-0.2-1.1-0.3-2.3,0.1-3.3c0.9-2.4,4.3-3,6.7-1.9s4.1,3.1,6.2,4.7   c7,5.5,17.5,5.1,25,0.3c7.5-4.8,12.1-13.2,13.8-21.9c0.7-3.7,1-7.5,0-11.1s-3-6.7-5.3-9.6c-6.5-8.5-14.7-15.8-23.9-21.2   c12.3-1.1,26.6-1.4,34.8,7.8"/>
</g>
<path style="fill:#FFFFFF;" d="M288.1,261.3c2,15.8,14.2,28,27.4,27.3c13.2-0.7,22.3-14,20.3-29.7c-2-15.8-14.2-28-27.4-27.3  C295.2,232.2,286.1,245.5,288.1,261.3z"/>
<path style="fill:#F9B54C;" d="M292,265.6c1.3,10.2,10.7,18.1,21,17.6s17.7-9.2,16.4-19.5c-1.3-10.2-10.7-18.1-21-17.6  S290.7,255.4,292,265.6z"/>
<path style="fill:#2B3B4E;" d="M301.2,265.1c0.6,5.2,5.4,9.2,10.7,8.9c5.2-0.3,9-4.7,8.3-9.9c-0.6-5.2-5.4-9.2-10.7-8.9  C304.3,255.5,300.6,259.9,301.2,265.1z"/>
<path style="fill:#FFFFFF;" d="M303.4,253.2c-1.4,2.4-0.1,4.9,3,5.6c3,0.7,6.7-0.6,8.1-2.9c1.4-2.4,0.1-4.9-3-5.6  C308.4,249.5,304.8,250.8,303.4,253.2z"/>
<path style="fill:#324A5E;" d="M286.1,221c0,0,3.7-1.6,8.7-2.9c1.2-0.4,2.6-0.5,4-0.9c1.4-0.1,2.8-0.5,4.3-0.5c1.5-0.2,3-0.1,4.5,0  s3,0.3,4.6,0.5c1.5,0.4,3.1,0.6,4.6,1.1c1.5,0.6,3,0.8,4.5,1.5c1.5,0.6,2.9,1.1,4.2,1.7c1.3,0.7,2.6,1.2,3.9,1.8  c2.5,1,4.5,2.2,6,2.8c1.5,0.7,2.5,1,2.5,1s-0.4-0.9-1.2-2.4c-0.4-0.7-0.9-1.6-1.6-2.6c-0.6-1-1.4-2.1-2.4-3.2  c-1-1.1-2.1-2.3-3.3-3.4c-1.3-1.1-2.8-2.1-4.3-3.2c-1.5-1.1-3.4-1.8-5.2-2.7c-1.8-0.9-3.9-1.2-5.9-1.7c-2.1-0.2-4.2-0.5-6.3-0.4  c-2.1,0.1-4.1,0.4-6,1c-1.9,0.4-3.6,1.3-5.2,2c-1.5,0.9-2.9,1.8-4.1,2.8c-2.4,1.8-3.9,3.9-4.9,5.3C286.4,220,286.1,221,286.1,221z"/>
<path style="fill:#FFFFFF;" d="M216.9,261.3c-2,15.8-14.2,28-27.4,27.3s-22.3-14-20.3-29.7c2-15.8,14.2-28,27.4-27.3  C209.8,232.2,218.9,245.5,216.9,261.3z"/>
<path style="fill:#F9B54C;" d="M213,265.6c-1.3,10.2-10.7,18.1-21,17.6s-17.7-9.2-16.4-19.5c1.3-10.2,10.7-18.1,21-17.6  C206.9,246.6,214.3,255.4,213,265.6z"/>
<path style="fill:#2B3B4E;" d="M203.8,265.1c-0.6,5.2-5.4,9.2-10.7,8.9c-5.2-0.3-9-4.7-8.3-9.9c0.6-5.2,5.4-9.2,10.7-8.9  C200.7,255.5,204.4,259.9,203.8,265.1z"/>
<path style="fill:#FFFFFF;" d="M201.6,253.2c1.4,2.4,0.1,4.9-3,5.6c-3,0.7-6.7-0.6-8.1-2.9c-1.4-2.4-0.1-4.9,3-5.6  C196.6,249.5,200.2,250.8,201.6,253.2z"/>
<path style="fill:#324A5E;" d="M218.9,221c0,0-3.7-1.6-8.7-2.9c-1.2-0.4-2.6-0.5-4-0.9c-1.4-0.1-2.8-0.5-4.3-0.5  c-1.5-0.2-3-0.1-4.5,0s-3,0.3-4.6,0.5c-1.5,0.4-3.1,0.6-4.6,1.1c-1.5,0.6-3,0.8-4.5,1.5c-1.5,0.6-2.9,1.1-4.2,1.7  c-1.3,0.7-2.6,1.2-3.9,1.8c-2.5,1-4.5,2.2-6,2.8c-1.5,0.7-2.5,1-2.5,1s0.4-0.9,1.2-2.4c0.4-0.7,0.9-1.6,1.6-2.6  c0.6-1,1.4-2.1,2.4-3.2c1-1.1,2.1-2.3,3.3-3.4c1.3-1.1,2.8-2.1,4.3-3.2c1.5-1.1,3.4-1.8,5.2-2.7s3.9-1.2,5.9-1.7  c2.1-0.2,4.2-0.5,6.3-0.4s4.1,0.4,6,1c1.9,0.4,3.6,1.3,5.2,2c1.5,0.9,2.9,1.8,4.1,2.8c2.4,1.8,3.9,3.9,4.9,5.3  C218.6,220,218.9,221,218.9,221z"/>
<g>
</g>
<g>
</g>
<g>
</g>
<g>
</g>
<g>
</g>
<g>
</g>
<g>
</g>
<g>
</g>
<g>
</g>
<g>
</g>
<g>
</g>
<g>
</g>
<g>
</g>
<g>
</g>
<g>
</g>
</svg>
