<?xml version="1.0" encoding="iso-8859-1"?>
<!-- Generator: Adobe Illustrator 19.0.0, SVG Export Plug-In . SVG Version: 6.00 Build 0)  -->
<svg xmlns="http://www.w3.org/2000/svg" xmlns:xlink="http://www.w3.org/1999/xlink" version="1.1" id="Layer_1" x="0px" y="0px" viewBox="0 0 505 505" style="enable-background:new 0 0 505 505;" xml:space="preserve">
<circle style="fill:#54C0EB;" cx="252.5" cy="252.5" r="252.5"/>
<g>
	<path style="fill:#FFFFFF;" d="M267.8,134.7c0,0,59.4-33.2,70.2-66.5c0,0,13.9,64.6-50.7,76L267.8,134.7z"/>
	<path style="fill:#FFFFFF;" d="M237.2,134.7c0,0-59.4-33.2-70.2-66.5c0,0-13.9,64.6,50.7,76L237.2,134.7z"/>
</g>
<path style="fill:#2B3B4E;" d="M319.6,184.2c0,0,52.4-83.2,122.8-44.3c0,0,23.7,15.9-36.1,67.6c0,0-11,20.5-82.8-7.4l-3.9-18.1"/>
<path style="fill:#324A5E;" d="M416.9,130.7c-1,0.3-61.3,20.9-80.2,74.3c-4.1-1.4-8.5-3-13.2-4.8l-3.5-16.5  C323.9,177.7,362.7,121.1,416.9,130.7z"/>
<path style="fill:#2B3B4E;" d="M185.4,184.2c0,0-52.4-83.2-122.8-44.3c0,0-23.7,15.9,36.1,67.6c0,0,11,20.5,82.8-7.4l3.9-18.1"/>
<path style="fill:#324A5E;" d="M88.1,130.7c1,0.3,61.3,20.9,80.2,74.3c4.1-1.4,8.5-3,13.2-4.8l3.5-16.5  C181.1,177.7,142.3,121.1,88.1,130.7z"/>
<path style="fill:#E6E9EE;" d="M324.8,141.8c-4.2-9.2-12.8-15.8-23-17.6l-25.1-4.4c-6.4-1.1-13-1.7-19.5-1.7h-9.3  c-6.5,0-13.1,0.6-19.5,1.7l-25.1,4.4c-10.2,1.8-18.8,8.4-23,17.6c-11.5,25.4-29.9,79.3-8.8,131.3c0,0,32,102.2,16.4,142.5  c0,0,1.3,39.5,64.7,34.6l0,0c63.4,4.9,64.7-34.6,64.7-34.6c-15.7-40.3,16.2-142.5,16.2-142.5C354.7,221.1,336.3,167.2,324.8,141.8z"/>
<g>
	<path style="fill:#CED5E0;" d="M282.8,384.5h-60.3c20.3-162.2-31.2-225.6-31.2-225.6c27.2,0,57.4-18.6,61.1-20.9v-0.2   c0,0,0.1,0,0.2,0.1c0.1-0.1,0.2-0.1,0.2-0.1v0.2c3.7,2.3,33.9,20.9,61.1,20.9C314,158.9,262.6,222.2,282.8,384.5z"/>
	<path style="fill:#CED5E0;" d="M333.5,273.1c0,0-11.4,36.4-17.2,74.3c-42-135.9,4.9-153,24.4-154.6   C344.8,217,344.8,245.3,333.5,273.1z"/>
</g>
<path style="fill:#324A5E;" d="M343.7,220.5c0,0-21.5,2.1-28.4,31.9c0,0,12.1-0.5,21.3-3.7c6.4-2.3,10.2-8.8,9.1-15.5L343.7,220.5z"/>
<path style="fill:#CED5E0;" d="M171.5,273.1c0,0,11.4,36.4,17.2,74.3c42-135.9-4.9-153-24.4-154.6  C160.2,217,160.2,245.3,171.5,273.1z"/>
<g>
	<path style="fill:#324A5E;" d="M161.3,220.5c0,0,21.5,2.1,28.4,31.9c0,0-12.1-0.5-21.3-3.7c-6.4-2.3-10.2-8.8-9.1-15.5L161.3,220.5   z"/>
	<ellipse style="fill:#324A5E;" cx="252.5" cy="412" rx="66" ry="43.4"/>
</g>
<g>
	<path style="fill:#2B3B4E;" d="M208,398.1c0,0,4-11.1,7,0c1.4,5,3.9,9.7,7.3,13.6c2.9,3.4,6.2,7.2,8.6,9.6   c2.8,2.7,4.7,6.3,5.2,10.1c0.8,5.7-1.6,11.2-17.9,4c0,0-3.9-1.2-7.7-9c-3.7-7.6-4.7-16.2-3.3-24.4L208,398.1z"/>
	<path style="fill:#2B3B4E;" d="M297,398.1c0,0-4-11.1-7,0c-1.4,5-3.9,9.7-7.3,13.6c-2.9,3.4-6.2,7.2-8.6,9.6   c-2.8,2.7-4.7,6.3-5.2,10.1c-0.8,5.7,1.6,11.2,17.9,4c0,0,3.9-1.2,7.7-9c3.7-7.6,4.7-16.2,3.3-24.4L297,398.1z"/>
</g>
<path style="fill:#F9B54C;" d="M165.1,221.4c-2,2.8-3.3,7-3.3,11.6c0,8.5,4.2,15.4,9.4,15.4s9.4-6.9,9.4-15.4c0-0.2,0-0.4,0-0.6  C175.1,225.7,169,222.7,165.1,221.4z"/>
<ellipse style="fill:#1A2735;" cx="170" cy="232" rx="4.3" ry="7.1"/>
<path style="fill:#F9B54C;" d="M339.9,221.4c2,2.8,3.3,7,3.3,11.6c0,8.5-4.2,15.4-9.4,15.4c-5.2,0-9.4-6.9-9.4-15.4  c0-0.2,0-0.4,0-0.6C330,225.7,336.1,222.7,339.9,221.4z"/>
<ellipse style="fill:#1A2735;" cx="335" cy="232" rx="4.3" ry="7.1"/>
<g>
</g>
<g>
</g>
<g>
</g>
<g>
</g>
<g>
</g>
<g>
</g>
<g>
</g>
<g>
</g>
<g>
</g>
<g>
</g>
<g>
</g>
<g>
</g>
<g>
</g>
<g>
</g>
<g>
</g>
</svg>
