<?xml version="1.0" encoding="iso-8859-1"?>
<!-- Generator: Adobe Illustrator 19.0.0, SVG Export Plug-In . SVG Version: 6.00 Build 0)  -->
<svg xmlns="http://www.w3.org/2000/svg" xmlns:xlink="http://www.w3.org/1999/xlink" version="1.1" id="Layer_1" x="0px" y="0px" viewBox="0 0 505 505" style="enable-background:new 0 0 505 505;" xml:space="preserve">
<circle style="fill:#4CDBC4;" cx="252.5" cy="252.5" r="252.5"/>
<g>
	<path style="fill:#324A5E;" d="M332.9,208.4c0,0,53.9,47.3,91.8-21.2h-15.6c0,0,56.8-32.8-13.9-89.1l-3.9,8.9l-2.8-15   c0,0-57.3,25.5-36.2,64.3c0,0-2.8,18.7-31.7,32L332.9,208.4z"/>
	<path style="fill:#324A5E;" d="M172.1,208.4c0,0-53.9,47.3-91.8-21.2h15.6c0,0-56.8-32.8,13.9-89.1l3.9,8.9l2.8-15   c0,0,57.3,25.5,36.2,64.3c0,0,2.8,18.7,31.7,32L172.1,208.4z"/>
	<path style="fill:#324A5E;" d="M347.1,254.6l-1.3-37.8c-0.9-25.9-19.8-47.5-45.3-52l-48-8.4l-48,8.4c-25.5,4.5-44.4,26.2-45.3,52   l-1.3,37.8c0,0-12.4,30.1,5.7,71.7c0,0-33.7,100.1,88.9,125c122.6-24.9,88.9-125,88.9-125C359.5,284.7,347.1,254.6,347.1,254.6z"/>
</g>
<g>
	<path style="fill:#2B3B4E;" d="M307.3,329.9c-0.7-51-42.2-51.8-54.8-50.8c-12.6-0.9-54.1-0.2-54.8,50.8c0,0,7.7,21.6-12,30.1   c0,0,39.2-4.9,35.2,35.2l31.6,11l31.6-11c-3.9-40.1,35.2-35.2,35.2-35.2C299.6,351.5,307.3,329.9,307.3,329.9z"/>
	<path style="fill:#2B3B4E;" d="M316.9,373.1c-0.8-6.8-6.7-9.1-13.8-5.1c-7.1,4-13,12.9-13.8,20.7L316.9,373.1z"/>
	<path style="fill:#2B3B4E;" d="M185.7,373.1c0.8-6.8,6.7-9.1,13.8-5.1s13,12.9,13.8,20.7L185.7,373.1z"/>
</g>
<path style="fill:#E6E9EE;" d="M291.1,290.9l-4.3-7.1c-9.9-16.3-16.1-34.6-18.1-53.6L252.5,77.4l-16.2,152.8  c-2,19-8.2,37.3-18.1,53.6l-4.3,7.1c-11.8,19.4,2.2,44.2,24.8,44.2h27.6C289,335,302.9,310.2,291.1,290.9z"/>
<g>
	<path style="fill:#2B3B4E;" d="M390.5,114.8c0,0-17.9,26,8.5,25.3c0,0-22.9,26.4,2.4,29.5c0,0-21.4,10.9-37.7,32.1l-9.8-14.4   c0,0,23.6-21.4,19.2-31.4C373,155.8,353.8,118.5,390.5,114.8z"/>
	<path style="fill:#2B3B4E;" d="M114.5,114.8c0,0,17.9,26-8.5,25.3c0,0,22.9,26.4-2.4,29.5c0,0,21.4,10.9,37.7,32.1l9.8-14.4   c0,0-23.6-21.4-19.2-31.4C132,155.8,151.2,118.5,114.5,114.8z"/>
	<path style="fill:#2B3B4E;" d="M197.2,405.1c0,0,1.9,0.5,5.1,1.5c1.5,0.5,3.5,1.1,5.7,1.9c2.2,0.9,4.6,1.3,7.1,2.1   c1.2,0.4,2.6,0.7,4,1s2.8,0.8,4.3,1c1.5,0.3,3,0.6,4.5,0.9s3.1,0.5,4.7,0.8c1.6,0.3,3.2,0.5,4.9,0.6c1.6,0.2,3.3,0.4,5,0.5   s3.4,0.3,5,0.3c1.7,0,3.4,0.1,5.1,0.1s3.4-0.1,5.1-0.1s3.4-0.2,5-0.3c1.7-0.1,3.3-0.3,5-0.5c1.6-0.2,3.3-0.4,4.9-0.7   c1.6-0.3,3.2-0.5,4.7-0.8s3-0.7,4.5-0.9c1.5-0.2,2.9-0.7,4.3-1c1.4-0.4,2.8-0.6,4-1c2.5-0.8,5-1.4,7.1-2.1c2.2-0.7,4.1-1.3,5.6-1.8   c3.2-1.1,5.1-1.5,5.1-1.5s-1.2,1.6-3.4,4.1c-1.1,1.3-2.6,2.7-4.3,4.4c-1.7,1.7-3.9,3.2-6.3,5c-1.2,0.9-2.5,1.6-3.9,2.5   c-1.4,0.8-2.8,1.7-4.3,2.4c-1.5,0.7-3.1,1.5-4.8,2.2c-1.6,0.7-3.4,1.2-5.2,1.9c-1.8,0.7-3.6,1.1-5.5,1.5c-0.9,0.2-1.9,0.5-2.8,0.7   c-1,0.2-1.9,0.3-2.9,0.5c-2,0.2-3.9,0.7-5.9,0.7c-2,0.1-4,0.2-6,0.3c-2-0.1-4-0.2-6-0.3c-2-0.1-4-0.5-5.9-0.7   c-2-0.2-3.9-0.7-5.7-1.2c-1.9-0.4-3.7-0.9-5.5-1.5s-3.5-1.1-5.2-1.9c-1.6-0.8-3.2-1.5-4.8-2.2c-1.5-0.7-3-1.6-4.3-2.4   c-1.4-0.9-2.7-1.5-3.9-2.5c-2.4-1.8-4.7-3.4-6.3-5.1c-1.7-1.6-3.1-3-4.3-4.3C198.4,406.7,197.2,405.1,197.2,405.1z"/>
	<path style="fill:#2B3B4E;" d="M160.3,282.3c5.7,8.6,15.7,14.2,26.1,14.5c1.7,5.9-1.7,12.9-7.4,15.2c-5.7,2.3-13-0.3-15.9-5.8   C161.6,303.6,156.5,295,160.3,282.3"/>
</g>
<path style="fill:#87560F;" d="M166.5,289.2c-1.4,2.1-2.3,5.1-2.3,8.5c0,6.4,3.2,11.6,7.1,11.6s7.1-5.2,7.1-11.6  c0-0.7-0.1-1.4-0.1-2.1C174,294.3,170,292.1,166.5,289.2z"/>
<ellipse style="fill:#101821;" cx="170.5" cy="298.5" rx="2.3" ry="3.8"/>
<path style="fill:#2B3B4E;" d="M344.7,282.3c-5.7,8.6-15.7,14.2-26.1,14.5c-1.7,5.9,1.7,12.9,7.4,15.2c5.7,2.3,13-0.3,15.9-5.8  C343.4,303.6,348.5,295,344.7,282.3"/>
<path style="fill:#87560F;" d="M338.5,289.2c1.4,2.1,2.3,5.1,2.3,8.5c0,6.4-3.2,11.6-7.1,11.6s-7.1-5.2-7.1-11.6  c0-0.7,0.1-1.4,0.1-2.1C331,294.3,335,292.1,338.5,289.2z"/>
<ellipse style="fill:#101821;" cx="334.5" cy="298.5" rx="2.3" ry="3.8"/>
<g>
	<ellipse style="fill:#FFFFFF;" cx="173.1" cy="300.4" rx="1.8" ry="2.7"/>
	<ellipse style="fill:#FFFFFF;" cx="331.7" cy="300.4" rx="1.8" ry="2.7"/>
</g>
<g>
</g>
<g>
</g>
<g>
</g>
<g>
</g>
<g>
</g>
<g>
</g>
<g>
</g>
<g>
</g>
<g>
</g>
<g>
</g>
<g>
</g>
<g>
</g>
<g>
</g>
<g>
</g>
<g>
</g>
</svg>
