<?xml version="1.0" encoding="iso-8859-1"?>
<!-- Generator: Adobe Illustrator 19.0.0, SVG Export Plug-In . SVG Version: 6.00 Build 0)  -->
<svg xmlns="http://www.w3.org/2000/svg" xmlns:xlink="http://www.w3.org/1999/xlink" version="1.1" id="Layer_1" x="0px" y="0px" viewBox="0 0 508 508" style="enable-background:new 0 0 508 508;" xml:space="preserve">
<circle style="fill:#324A5E;" cx="254" cy="254" r="254"/>
<path style="fill:#FFD05B;" d="M280,118.8v-14.4c0-4.8-4-8.8-8.8-8.8h-34.4c-4.8,0-8.8,4-8.8,8.8v14.4H280z"/>
<path style="fill:#CED5E0;" d="M347.2,128.4v272.8c0,6.4-5.2,11.6-11.6,11.6H172c-6.4,0-11.6-5.2-11.6-11.6V128.4  c0-6.4,5.2-11.6,11.6-11.6h163.6C342,117.2,347.2,122,347.2,128.4z"/>
<rect x="180.4" y="136.8" style="fill:#FFFFFF;" width="146.8" height="256"/>
<polygon style="fill:#54C0EB;" points="228,331.2 247.2,273.2 215.6,273.2 280,198.4 260.8,256.8 292.4,256.8 "/>
<g>
</g>
<g>
</g>
<g>
</g>
<g>
</g>
<g>
</g>
<g>
</g>
<g>
</g>
<g>
</g>
<g>
</g>
<g>
</g>
<g>
</g>
<g>
</g>
<g>
</g>
<g>
</g>
<g>
</g>
</svg>
