<?xml version="1.0" encoding="iso-8859-1"?>
<!-- Generator: Adobe Illustrator 19.0.0, SVG Export Plug-In . SVG Version: 6.00 Build 0)  -->
<svg xmlns="http://www.w3.org/2000/svg" xmlns:xlink="http://www.w3.org/1999/xlink" version="1.1" id="Layer_1" x="0px" y="0px" viewBox="0 0 508 508" style="enable-background:new 0 0 508 508;" xml:space="preserve">
<circle style="fill:#324A5E;" cx="254" cy="254" r="254"/>
<path style="fill:#FFFFFF;" d="M254,432C72.4,344,85.6,140.8,85.6,140.8C165.6,151.2,254,76,254,76s88.4,75.6,168.4,64.8  C422.4,140.8,435.6,344,254,432z"/>
<path style="fill:#F9B54C;" d="M254,400.8c-114.8-62.8-136.4-179.6-140-232c57.6-4.4,112.8-38.4,140-58  c27.6,19.6,82.4,53.6,140.4,58C390.8,221.2,370,337.6,254,400.8z"/>
<circle style="fill:#FFFFFF;" cx="254" cy="256" r="75.6"/>
<path style="fill:#FF7058;" d="M243.2,213.2h21.6v15.2l-3.6,43.6h-14.4l-3.6-43.6L243.2,213.2L243.2,213.2z M246.4,295.6  c-2-2-3.2-4.4-3.2-7.6s1.2-5.6,3.2-7.6s4.4-3.2,7.6-3.2c2.8,0,5.6,1.2,7.6,3.2s3.2,4.4,3.2,7.6s-1.2,5.6-3.2,7.6s-4.4,3.2-7.6,3.2  C251.2,298.8,248.4,297.6,246.4,295.6z"/>
<g>
</g>
<g>
</g>
<g>
</g>
<g>
</g>
<g>
</g>
<g>
</g>
<g>
</g>
<g>
</g>
<g>
</g>
<g>
</g>
<g>
</g>
<g>
</g>
<g>
</g>
<g>
</g>
<g>
</g>
</svg>
