<?xml version="1.0" encoding="iso-8859-1"?>
<!-- Generator: Adobe Illustrator 19.0.0, SVG Export Plug-In . SVG Version: 6.00 Build 0)  -->
<svg xmlns="http://www.w3.org/2000/svg" xmlns:xlink="http://www.w3.org/1999/xlink" version="1.1" id="Layer_1" x="0px" y="0px" viewBox="0 0 508 508" style="enable-background:new 0 0 508 508;" xml:space="preserve">
<circle style="fill:#FD8469;" cx="254" cy="254" r="254"/>
<path style="fill:#FFFFFF;" d="M254,432C72.4,344,85.6,140.8,85.6,140.8C165.6,151.2,254,76,254,76s88.4,75.6,168.4,64.8  C422.4,140.8,435.6,344,254,432z"/>
<path style="fill:#54C0EB;" d="M254,400.8c-114.8-62.8-136.4-179.6-140-232c57.6-4.4,112.8-38.4,140-58  c27.6,19.6,82.4,53.6,140.4,58C390.8,221.2,370,337.6,254,400.8z"/>
<circle style="fill:#FFFFFF;" cx="254" cy="256" r="75.6"/>
<path style="fill:#FF7058;" d="M264,274.8h-19.6v-9.6c0-3.6,0.4-6,1.2-8c0.8-1.6,2.8-4,5.6-7.2l8.8-9.2c1.2-1.6,2-3.6,2-6  s-0.8-4.4-2-6s-3.2-2.4-5.6-2.4s-4,0.8-5.6,2.8s-2.4,4.4-2.8,7.6h-20.4c0.8-8.8,4-15.6,9.6-20.4c5.2-4.8,12-7.2,20-7.2  c8,0,14.8,2.4,19.6,6.4c5.2,4.4,7.6,10.4,7.6,18.4c0,3.6-0.4,6-1.2,7.6c-0.8,1.6-1.6,2.8-2,3.6s-1.2,2-2.4,3.2  c-1.2,1.6-2,2.4-2.4,2.8c-2,2-4,4-6,6s-3.2,3.2-3.6,4.4c-0.8,1.2-0.8,2.8-0.8,5.2C264,266.8,264,274.8,264,274.8z M246.4,299.6  c-2.4-2.4-3.2-4.8-3.2-8s1.2-6,3.2-8c2-2.4,4.8-3.2,8-3.2c3.2,0,6,1.2,8,3.2c2.4,2.4,3.2,4.8,3.2,8s-1.2,6-3.2,8  c-2.4,2-4.8,3.2-8,3.2C251.2,302.8,248.4,301.6,246.4,299.6z"/>
<g>
</g>
<g>
</g>
<g>
</g>
<g>
</g>
<g>
</g>
<g>
</g>
<g>
</g>
<g>
</g>
<g>
</g>
<g>
</g>
<g>
</g>
<g>
</g>
<g>
</g>
<g>
</g>
<g>
</g>
</svg>
