<?xml version="1.0" encoding="iso-8859-1"?>
<!-- Generator: Adobe Illustrator 19.0.0, SVG Export Plug-In . SVG Version: 6.00 Build 0)  -->
<svg xmlns="http://www.w3.org/2000/svg" xmlns:xlink="http://www.w3.org/1999/xlink" version="1.1" id="Layer_1" x="0px" y="0px" viewBox="0 0 508 508" style="enable-background:new 0 0 508 508;" xml:space="preserve">
<circle style="fill:#FFD05B;" cx="254" cy="254" r="254"/>
<path style="fill:#324A5E;" d="M402.8,322.4H105.2c-5.6,0-10-4.4-10-10V118.8c0-5.6,4.4-10,10-10h297.6c5.6,0,10,4.4,10,10v193.6  C412.8,318,408.4,322.4,402.8,322.4z"/>
<g>
	<path style="fill:#2B3B4E;" d="M262.8,181.2c1.6-1.6,3.6-3.2,5.6-4s4.8-0.8,6.8,0.8c2.4,2,2.4,5.6,4.8,7.6c1.6,1.2,3.6,1.2,5.2,0.8   c2.8,0,5.6-0.4,7.2-2.4c0.4-0.8,0.8-1.6,1.6-2.4c1.2-1.6,3.6-2,5.6-2.4c7.6-1.6,14-6.8,17.6-13.6c0.4-0.8,1.2-2,2-2.8   c1.6-1.2,4-0.8,6-0.8c4-0.4,8-4.4,12-2.8c3.2,1.2,3.6,5.6,3.2,8.8c0,0.8-0.4,2,0,2.8s1.6,1.2,2.8,1.2c4.4,0.8,8.8,2.4,12.4,4.8   c-0.4-2.4-0.8-4.8-0.4-6.8c0.8-2,3.2-4,5.2-3.2c3.6,1.2,2.4,7.2,5.6,9.2c1.2,0.8,2.4,0.8,3.6,0.8c7.2,0,14.4,0,20.8,3.6   c4,2,7.2,7.2,4.8,10.8c-0.8,1.2-2,2-3.6,2.8c-6.4,3.6-14,5.6-21.6,5.6c-2.4,0-5.2,0-6.8,1.6c-2.4,2-2.4,5.6-1.6,8.8   c0.4,2,1.2,4,0.4,5.6c-0.8,2-3.2,2.8-4.8,3.2c-3.6,1.2-7.2,2.4-10.8,3.6c-2.8,0.8-6.4,2.4-6.8,5.2c-0.8,2.8,2,5.6,4,8   c3.6,3.6,6.4,8,8.4,12.8c2.4,5.6,2.8,13.6-2.4,17.2c-2,1.6-4.8,2-7.2,2c-4,0.4-8.4,0.8-11.2-2c-2-2-2.4-5.2-2.8-8   c-0.4-4-1.2-8.4-4-11.6c-2.8-3.2-8-4.4-11.2-1.6c-2,2-2.4,5.2-2.4,8c0,1.6,0.4,3.2-0.4,4.4c-1.2,2.4-4.8,2.4-7.2,0.8   c-2.4-1.6-3.6-4-5.2-6c-1.6-2.4-3.2-4.4-6-5.2c-1.6-0.4-3.2,0-4.8,0.4c-1.6,0.8-3.2,2-4,3.6c-1.6,3.2,0.4,6.8,1.2,10   c0.8,3.2,0,8-3.2,8.8c4,2.4,8,5.6,10.8,9.2c-6.4,2.4-12.4,4.8-18.8,7.6c-1.6,0.8-3.2,1.2-4.8,1.6c-3.6,0.4-7.6-1.2-10-4   c-2.8-4-2.8-8.8-2.4-13.6c0-2.8,0.4-5.6,0.4-8.4c0-1.2,0-2.8-0.4-3.6c-2-3.6-8-1.2-11.2-3.6c-2.4-1.6-2.8-5.6-1.6-8.4   c1.2-2.8,3.2-5.6,4.4-8.4c2.4-6.8-0.4-14-4.4-20c3.6-2.8,0.8-8.4,1.2-12.8c0.4-4.4,5.6-8,10-6.4   C252.4,191.2,257.6,185.6,262.8,181.2z"/>
	<path style="fill:#2B3B4E;" d="M160,154.8c0.4-1.6,0.4-3.6,1.2-4.8s2-2,3.2-2.8c3.6-2,7.2-3.6,10.4-5.6c3.2-2.4,6.4-5.2,6.8-9.2   c8.4-1.6,17.2,4.4,25.2,1.2c1.6-0.8,3.2-1.6,4.8-2.4c2.8-1.2,5.6-1.2,8.8-1.2c4.8-0.4,10.4-0.4,14.4,2.8c3.2,2.8,4.4,7.2,5.2,11.2   c0.8,4.4,1.6,9.2,0.8,13.6c-0.8,4.4-2.8,8.8-6.8,11.6c-1.6,0.8-3.2,1.6-4,3.2c-1.2,2-0.8,4.4-0.4,6.4c0.8,6.8-1.2,13.6-5.2,18.8   c-1.2,1.2-2.4,2.8-4,3.2s-2.8,0-4.4-0.4c-3.6-0.8-6.8-2.4-10-4c-2-0.8-3.6-2-4.8-3.6c-1.2-2-1.2-4.4-0.8-6.4   c0-4.4,0.4-8.4,0.4-12.8c0-4,0-8.8-3.6-11.2c-4.4-2.8-10.4,1.6-10.8,6.8c-0.4,5.2,2.8,9.6,6.8,13.2c0.8,0.8,1.2,1.2,1.6,2   c2.4,4-4,8.8-2.4,13.6c1.6,5.6,11.6,4.4,13.6,9.6c0.8,2,0,4.4-1.2,6.4c-4.4,6-12.8,6.4-20,6.8c-0.4,2.4,1.6,4.8,2,7.6   c0.4,2.4-2,6-4,4.4c1.6,4.4,4,8.4,8,10.8c4,2.4,9.2,3.2,13.2,0.8c1.6-0.8,3.2-2.4,5.2-2.4c2.8,0.4,4,3.6,3.6,6c0,6-3.6,12.4-1.2,18   c0.8,1.6,2,3.2,2.4,5.2c2.4,6.4-3.2,12.8-4,19.6c-0.4,2.8,0,6-2,8.4c-2.8,3.2-8.4,2.4-11.2-1.2c-2.8-3.2-3.2-8-3.6-12.4   c-0.4-4.4-0.8-9.2-1.2-13.6c0-1.2,0-2.4-0.8-3.2c-1.2-1.6-2.8-1.6-4.8-2c-4-1.2-6.8-4.8-7.6-8.8c-0.4-4,1.2-8.4-0.4-12   c-1.6-3.6-6-5.2-9.6-6.4c-4-0.8-8-1.6-11.2-4c-3.6-3.2-4.8-8.4-4.8-13.2s0.8-9.6,0-14.4c-1.2-6-5.2-11.6-11.2-14.4   c-1.2-0.4-2.4-0.8-3.6-0.8c-6.4,0-8.4,10.8-15.2,11.6c-1.6,0-3.2-0.4-4.4-0.8c-6-2.8-8.8-11.2-6-17.2c3.2-6.8,12-9.6,18.8-7.2   c2.4,0.8,4.4,2,6.8,2.4c2.4,0.4,5.2-0.4,6.4-2.4c0.8-1.6,0.8-3.2,0.8-4.8c0.4-3.6,2.4-7.2,5.2-9.6C156,164,159.2,159.6,160,154.8z"/>
</g>
<g>
	<path style="fill:#FFFFFF;" d="M135.6,162.4h-12.8v-29.2H134c2,0,3.6,0.4,5.2,0.8c1.6,0.4,2.4,1.2,3.2,2c1.2,1.6,2,3.2,2,5.2   c0,2.4-0.8,4-2,5.2c-0.4,0.4-0.8,0.8-1.2,0.8c0,0-0.4,0.4-1.2,0.4c2,0.4,3.2,1.2,4.4,2.4s1.6,2.8,1.6,4.4c0,2-0.8,4-2,5.2   C142.4,161.2,139.6,162.4,135.6,162.4z M129.2,145.2h3.2c1.6,0,3.2,0,4-0.4s1.2-1.2,1.2-2.4s-0.4-2-1.2-2.4s-2-0.8-4-0.8h-3.2   V145.2z M129.2,156.8h4.4c2,0,3.2-0.4,4-0.8c0.8-0.4,1.2-1.2,1.2-2.8c0-1.2-0.4-2.4-1.6-2.8c-0.8-0.4-2.4-0.8-4.8-0.8h-4v7.2H129.2   z"/>
	<path style="fill:#FFFFFF;" d="M171.6,162.4l-2.8-6.4h-12l-2.8,6.4h-6.8l12.4-29.2h6.4l12.4,29.2H171.6z M162.8,142l-3.6,8.4h7.2   L162.8,142z"/>
	<path style="fill:#FFFFFF;" d="M202.4,133.2h6.4v29.2h-6.4l-14-18.4v18.4H182v-29.2h6l14.4,18.8V133.2z"/>
	<path style="fill:#FFFFFF;" d="M216,133.2h6.4v12l10.8-12h8L230,146c0.8,1.2,2.8,4,5.6,7.6s4.8,6.8,6,8.4H234l-8.4-11.6l-3.2,3.6   v8.4H216V133.2z"/>
</g>
<path style="fill:#FFD05B;" d="M176.8,228.8H130c-2,0-3.6-1.6-3.6-3.6V190c0-2,1.6-3.6,3.6-3.6h46.8c2,0,3.6,1.6,3.6,3.6v34.8  C180.4,227.2,178.8,228.8,176.8,228.8z"/>
<path style="fill:#F9B54C;" d="M180.4,198.4V196H162v-9.2h-2.4v9.2h-12.4v-9.2h-2.4v9.2h-18.4v2.4h18.4v8.8h-18.4v2.4h18.4v7.6  h-18.4v2.4h18.4v9.2h2.4v-9.2h12.4v9.2h2.4v-9.2h18.4v-2.4H162v-7.6h18.4v-2.4H162v-8.8H180.4z M159.6,209.2v7.6h-12.4v-7.6H159.6z   M146.8,206.8V198h12.4v8.8H146.8z"/>
<g>
	<path style="fill:#FFD05B;" d="M124.8,260.4h7.2V278h-3.6v-14h-3.2v-3.6H124.8z"/>
	<path style="fill:#FFD05B;" d="M146.8,260.4v3.2H140v2.8c0.4,0,1.2-0.4,1.6-0.4c1.6,0,3.2,0.4,4.4,1.6s2,2.4,2,4s-0.8,3.2-2,4.4   c-1.2,1.2-2.8,1.6-4.8,1.6c-2.4,0-4.4-0.8-6-2.8l2-2.8l0.4,0.4c0,0,0.8,0.4,1.2,0.8c0.8,0.4,1.2,0.4,2,0.4s1.2,0,1.6-0.4   c0.4-0.4,0.8-0.8,0.8-1.6c0-0.8-0.4-1.2-0.8-2c-0.4-0.4-1.2-0.8-2-0.8s-2,0.4-3.2,0.8l-1.6-1.6v-8.4h11.2V260.4z"/>
	<path style="fill:#FFD05B;" d="M157.6,267.2c0.4-0.8,0.8-1.2,0.8-2s0-1.2-0.4-1.6s-0.8-0.4-1.6-0.4c-1.2,0-2,0.8-3.2,2.4l-3.2-2   c0.8-1.2,1.6-2.4,2.8-2.8c0.8-0.8,2.4-0.8,3.6-0.8c1.6,0,2.8,0.4,4,1.6c1.2,0.8,1.6,2.4,1.6,4c0,0.8-0.4,1.6-0.8,2.4   c-0.4,0.8-1.2,2-2.4,3.2l-3.2,2.8h6.8v3.6H150v-2.8l5.2-5.2C156.4,268.4,157.2,267.6,157.6,267.2z"/>
	<path style="fill:#FFD05B;" d="M166,263.6v-3.2h10.8v2.8l-3.6,4c1.2,0.4,2.4,0.8,3.2,1.6c0.8,0.8,1.2,2,1.2,3.2c0,2-0.8,3.2-2,4.4   c-1.2,1.2-2.8,1.6-4.8,1.6s-4-0.8-6-2l1.6-3.2c1.6,1.2,3.2,1.6,4.4,1.6c0.8,0,1.6,0,2-0.4s0.8-0.8,0.8-1.6c0-0.8-0.4-1.2-0.8-1.6   c-0.8-0.8-1.6-0.8-2.4-0.8c-0.4,0-1.2,0-2.4,0.4v-2.8l3.2-4H166z"/>
	<path style="fill:#FFD05B;" d="M192.8,260.4h7.2V278h-3.6v-14h-3.2v-3.6H192.8z"/>
	<path style="fill:#FFD05B;" d="M203.6,263.6v-3.2h10.8v2.8l-3.6,4c1.2,0.4,2.4,0.8,3.2,1.6c0.8,0.8,1.2,2,1.2,3.2   c0,2-0.8,3.2-2,4.4c-1.2,1.2-2.8,1.6-4.8,1.6s-4-0.8-6-2l1.6-3.2c1.6,1.2,3.2,1.6,4.4,1.6c0.8,0,1.6,0,2-0.4s0.8-0.8,0.8-1.6   c0-0.8-0.4-1.2-0.8-1.6c-0.4-0.8-1.2-0.8-2.4-0.8c-0.4,0-1.2,0-2.4,0.4v-2.8l3.2-4H203.6z"/>
	<path style="fill:#FFD05B;" d="M225.2,267.2c0.4-0.8,0.8-1.2,0.8-2s0-1.2-0.4-1.6s-0.8-0.4-1.6-0.4c-1.2,0-2,0.8-3.2,2.4l-3.2-2   c0.8-1.2,1.6-2.4,2.8-2.8c0.8-0.8,2.4-0.8,3.6-0.8c1.6,0,2.8,0.4,4,1.6c1.2,0.8,1.6,2.4,1.6,4c0,0.8-0.4,1.6-0.8,2.4   c-0.4,0.8-1.2,2-2.4,3.2l-2.8,2.8h6.8v3.6H218v-2.8l5.2-5.2C224,268.4,224.8,267.6,225.2,267.2z"/>
	<path style="fill:#FFD05B;" d="M232.4,260.4h7.2V278H236v-14h-3.2v-3.6H232.4z"/>
	<path style="fill:#FFD05B;" d="M255.6,260.4h7.2V278h-3.6v-14H256v-3.6H255.6z"/>
	<path style="fill:#FFD05B;" d="M273.6,267.2c0.4-0.8,0.8-1.2,0.8-2s0-1.2-0.4-1.6s-0.8-0.4-1.6-0.4c-1.2,0-2,0.8-3.2,2.4l-3.2-2   c0.8-1.2,1.6-2.4,2.8-2.8c0.8-0.8,2.4-0.8,3.6-0.8c1.6,0,2.8,0.4,4,1.6c1.2,0.8,1.6,2.4,1.6,4c0,0.8-0.4,1.6-0.8,2.4   s-1.2,2-2.4,3.2l-3.2,2.8h6.8v3.6H266v-2.8l5.2-5.2C272.4,268.4,273.2,267.6,273.6,267.2z"/>
	<path style="fill:#FFD05B;" d="M282,263.6v-3.2h10.8v2.8l-3.6,4c1.2,0.4,2.4,0.8,3.2,1.6c0.8,0.8,1.2,2,1.2,3.2c0,2-0.8,3.2-2,4.4   c-1.6,0.8-2.8,1.6-4.8,1.6s-4-0.8-6-2l1.6-3.2c1.6,1.2,3.2,1.6,4.4,1.6c0.8,0,1.6,0,2-0.4s0.8-0.8,0.8-1.6c0-0.8-0.4-1.2-0.8-1.6   c-0.8-0.8-1.6-0.8-2.4-0.8c-0.4,0-1.2,0-2.4,0.4v-2.8l3.2-4H282z"/>
	<path style="fill:#FFD05B;" d="M295.6,260.4h7.2V278h-3.6v-14H296v-3.6H295.6z"/>
	<path style="fill:#FFD05B;" d="M333.2,263.2c-1.2,0-2,0.4-2.4,1.2c-0.4,0.8-0.8,1.6-1.2,2.8c1.2-0.8,2.4-1.2,3.6-1.2   c1.6,0,2.8,0.4,4,1.6s1.6,2.4,1.6,4.4c0,1.6-0.4,3.2-1.6,4.4c-1.2,1.2-2.8,1.6-4.4,1.6c-1.2,0-2.4-0.4-3.2-0.8   c-0.8-0.4-1.6-1.2-2-2c-0.8-1.6-1.6-3.6-1.6-6c0-1.6,0-2.8,0.4-4s0.8-2,1.6-2.8c1.2-1.2,2.8-2,4.8-2c0.8,0,1.6,0,2.4,0.4   s1.2,0.4,1.6,0.8s0.8,0.4,1.2,0.8l-2,2.8l-0.4-0.4c0,0-0.4-0.4-1.2-0.8C334.4,263.2,333.6,263.2,333.2,263.2z M332.8,269.6   c-0.8,0-1.6,0.4-2,0.8s-0.8,1.2-0.8,1.6c0,0.8,0.4,1.2,0.8,2c0.4,0.4,1.2,0.8,2,0.8s1.2-0.4,2-0.8c0.4-0.4,0.8-1.2,0.8-2   s-0.4-1.2-0.8-2C334,269.6,333.6,269.6,332.8,269.6z"/>
	<path style="fill:#FFD05B;" d="M352.8,260.4v3.2H346v2.8c0.4,0,1.2-0.4,1.6-0.4c1.6,0,3.2,0.4,4.4,1.6c1.2,1.2,2,2.4,2,4   s-0.8,3.2-2,4.4c-1.2,1.2-2.8,1.6-4.8,1.6c-2.4,0-4.4-0.8-6-2.8l2-2.8l0.4,0.4c0,0,0.8,0.4,1.2,0.8c0.8,0.4,1.2,0.4,2,0.4   s1.2,0,1.6-0.4s0.8-0.8,0.8-1.6c0-0.8-0.4-1.2-0.8-2c-0.4-0.4-1.2-0.8-2-0.8s-2,0.4-3.2,0.8l-1.2-0.8v-8.4H352.8z"/>
	<path style="fill:#FFD05B;" d="M362.8,270v-3.2h3.6v3.2h2v3.2h-2v4h-3.6v-4H356v-2.8l6-10.4h4.4l-6,10H362.8z"/>
	<path style="fill:#FFD05B;" d="M377.6,270v-3.2h3.6v3.2h2v3.2h-2v4h-3.6v-4h-6.8v-2.8l6-10.4h4.4l-6.4,10H377.6z"/>
</g>
<path style="fill:#FFFFFF;" d="M293.2,399.2c-94.8-46.4-88-152.4-88-152.4c42,5.6,88-34,88-34s46,39.6,88,34  C381.2,246.8,388.4,353.2,293.2,399.2z"/>
<path style="fill:#FF7058;" d="M293.2,382.8c-60-32.8-71.2-94-73.2-121.2c30.4-2.4,58.8-20,73.2-30.4c14.4,10.4,43.2,28,73.2,30.4  C364.8,288.8,354,349.6,293.2,382.8z"/>
<g>
</g>
<g>
</g>
<g>
</g>
<g>
</g>
<g>
</g>
<g>
</g>
<g>
</g>
<g>
</g>
<g>
</g>
<g>
</g>
<g>
</g>
<g>
</g>
<g>
</g>
<g>
</g>
<g>
</g>
</svg>
