<?xml version="1.0" encoding="iso-8859-1"?>
<!-- Generator: Adobe Illustrator 19.0.0, SVG Export Plug-In . SVG Version: 6.00 Build 0)  -->
<svg xmlns="http://www.w3.org/2000/svg" xmlns:xlink="http://www.w3.org/1999/xlink" version="1.1" id="Layer_1" x="0px" y="0px" viewBox="0 0 508 508" style="enable-background:new 0 0 508 508;" xml:space="preserve">
<circle style="fill:#84DBFF;" cx="254" cy="254" r="254"/>
<path style="fill:#FFFFFF;" d="M391.2,374H116.8c-6.4,0-11.6-5.2-11.6-11.6V145.6c0-6.4,5.2-11.6,11.6-11.6h274.8  c6.4,0,11.6,5.2,11.6,11.6v217.2C402.8,368.8,397.6,374,391.2,374z"/>
<rect x="118.4" y="184.8" style="fill:#324A5E;" width="270.8" height="176"/>
<circle style="fill:#FF7058;" cx="369.2" cy="159.6" r="10"/>
<circle style="fill:#FFD05B;" cx="331.6" cy="159.6" r="10"/>
<circle style="fill:#ACB3BA;" cx="294" cy="159.6" r="10"/>
<path style="fill:#FFFFFF;" d="M286.4,236l3.2-11.6h20c-4-6.4-10.8-10.4-18.8-10.4c-6,0-11.6,2.4-15.6,6.4s-6.4,9.6-6.4,15.6  c0,2.4,0.4,4.4,0.8,6.4l-46,46c-2-0.8-4-0.8-6.4-0.8c-6,0-11.6,2.4-15.6,6.4c-1.2,1.2-2.4,2.8-3.2,4h20l3.2,11.6l-3.6,11.2h-20  c4,6.4,10.8,10.4,18.8,10.4c6,0,11.6-2.4,15.6-6.4s6.4-9.6,6.4-15.6c0-2.4-0.4-4.4-0.8-6.4l46-46c2,0.8,4,0.8,6.4,0.8  c6,0,11.6-2.4,15.6-6.4c1.2-1.2,2.4-2.8,3.2-4h-20L286.4,236z"/>
<g>
</g>
<g>
</g>
<g>
</g>
<g>
</g>
<g>
</g>
<g>
</g>
<g>
</g>
<g>
</g>
<g>
</g>
<g>
</g>
<g>
</g>
<g>
</g>
<g>
</g>
<g>
</g>
<g>
</g>
</svg>
