<?xml version="1.0" encoding="iso-8859-1"?>
<!-- Generator: Adobe Illustrator 19.0.0, SVG Export Plug-In . SVG Version: 6.00 Build 0)  -->
<svg xmlns="http://www.w3.org/2000/svg" xmlns:xlink="http://www.w3.org/1999/xlink" version="1.1" id="Layer_1" x="0px" y="0px" viewBox="0 0 508 508" style="enable-background:new 0 0 508 508;" xml:space="preserve">
<circle style="fill:#FD8469;" cx="254" cy="254" r="254"/>
<path style="fill:#324A5E;" d="M340.4,412.8H135.6c-9.2,0-16.4-7.2-16.4-16.4V111.6c0-9.2,7.2-16.4,16.4-16.4h204.8  c9.2,0,16.4,7.2,16.4,16.4V396C356.8,405.2,349.2,412.8,340.4,412.8z"/>
<rect x="147.6" y="134" style="fill:#54C0EB;" width="180.4" height="216.8"/>
<g>
	<path style="fill:#2B3B4E;" d="M267.6,121.2H208c-2.8,0-4.8-2-4.8-4.8l0,0c0-2.8,2-4.8,4.8-4.8h59.6c2.8,0,4.8,2,4.8,4.8l0,0   C272.8,118.8,270.4,121.2,267.6,121.2z"/>
	<circle style="fill:#2B3B4E;" cx="238" cy="380.4" r="18"/>
</g>
<path style="fill:#E6E9EE;" d="M376.8,311.2h-176c-6.8,0-12-5.6-12-12V186c0-6.8,5.6-12,12-12h176c6.8,0,12,5.6,12,12v113.2  C388.8,306,383.6,311.2,376.8,311.2z"/>
<path style="fill:#FFFFFF;" d="M385.2,177.2c-2-2-5.2-3.2-8.4-3.2H200.4c-3.2,0-6.4,1.2-8.4,3.2l96.4,88.4L385.2,177.2z"/>
<g>
</g>
<g>
</g>
<g>
</g>
<g>
</g>
<g>
</g>
<g>
</g>
<g>
</g>
<g>
</g>
<g>
</g>
<g>
</g>
<g>
</g>
<g>
</g>
<g>
</g>
<g>
</g>
<g>
</g>
</svg>
