<?xml version="1.0" encoding="iso-8859-1"?>
<!-- Generator: Adobe Illustrator 19.0.0, SVG Export Plug-In . SVG Version: 6.00 Build 0)  -->
<svg xmlns="http://www.w3.org/2000/svg" xmlns:xlink="http://www.w3.org/1999/xlink" version="1.1" id="Layer_1" x="0px" y="0px" viewBox="0 0 508 508" style="enable-background:new 0 0 508 508;" xml:space="preserve">
<circle style="fill:#90DFAA;" cx="254" cy="254" r="254"/>
<path style="fill:#E6E9EE;" d="M157.2,389.6v-218c0-6-4.8-10.8-10.8-10.8H126c-6,0-10.8,4.8-10.8,10.8v218H157.2z"/>
<path style="fill:#FF7058;" d="M216,389.6v-284c0-6-4.8-10.8-10.8-10.8h-20.4c-6,0-10.8,4.8-10.8,10.8v284H216z"/>
<path style="fill:#2C9984;" d="M274.8,389.6V143.2c0-6-4.8-10.8-10.8-10.8h-20.4c-6,0-10.8,4.8-10.8,10.8V390h42V389.6z"/>
<path style="fill:#324A5E;" d="M334,389.6V182.4c0-6-4.8-10.8-10.8-10.8h-20.4c-6,0-10.8,4.8-10.8,10.8v207.2L334,389.6L334,389.6z"/>
<path style="fill:#FFD05B;" d="M392.8,389.6V220c0-6-4.8-10.8-10.8-10.8h-20.4c-6,0-10.8,4.8-10.8,10.8v169.6H392.8z"/>
<path style="fill:#FFFFFF;" d="M407.2,400H100.8c-3.2,0-5.6-2.4-5.6-5.6v-9.2c0-3.2,2.4-5.6,5.6-5.6h306.4c3.2,0,5.6,2.4,5.6,5.6  v9.2C412.8,397.2,410.4,400,407.2,400z"/>
<g>
</g>
<g>
</g>
<g>
</g>
<g>
</g>
<g>
</g>
<g>
</g>
<g>
</g>
<g>
</g>
<g>
</g>
<g>
</g>
<g>
</g>
<g>
</g>
<g>
</g>
<g>
</g>
<g>
</g>
</svg>
