<?xml version="1.0" encoding="iso-8859-1"?>
<!-- Generator: Adobe Illustrator 19.0.0, SVG Export Plug-In . SVG Version: 6.00 Build 0)  -->
<svg xmlns="http://www.w3.org/2000/svg" xmlns:xlink="http://www.w3.org/1999/xlink" version="1.1" id="Layer_1" x="0px" y="0px" viewBox="0 0 508 508" style="enable-background:new 0 0 508 508;" xml:space="preserve">
<circle style="fill:#324A5E;" cx="254" cy="254" r="254"/>
<g>
	<path style="fill:#FFD05B;" d="M323.2,177.2H302v-34h-96v34h-21.2v-44.4c0-6,4.8-10.4,10.4-10.4H312c6,0,10.4,4.8,10.4,10.4v44.4   L323.2,177.2L323.2,177.2z"/>
	<path style="fill:#FFD05B;" d="M394,386H114c-4.4,0-8-3.6-8-8V233.6c0-4.4,3.6-7.6,7.6-7.6H394c4.4,0,7.6,3.6,7.6,7.6V378   C402,382.4,398.4,386,394,386z"/>
</g>
<path style="fill:#FF7058;" d="M405.2,254.8H102.8c-4.4,0-7.6-3.6-7.6-7.6v-70c0-4.4,3.6-7.6,7.6-7.6h302c4.4,0,7.6,3.6,7.6,7.6  v69.6C412.8,251.2,409.2,254.8,405.2,254.8z"/>
<path style="fill:#E6E9EE;" d="M268.4,240.4h-29.2c-4.4,0-8.4,3.6-8.4,8.4v30c0,4.4,3.6,8.4,8.4,8.4h29.2c4.4,0,8.4-3.6,8.4-8.4v-30  C276.8,244,273.2,240.4,268.4,240.4z"/>
<path style="fill:#324A5E;" d="M234.8,268.8v9.2c0,2.8,2.4,5.2,5.2,5.2h28.4c2.8,0,5.2-2.4,5.2-5.2v-9.6c0-2.8-2.4-5.2-5.2-5.2H240  C237.2,263.6,234.8,265.6,234.8,268.8z"/>
<g>
</g>
<g>
</g>
<g>
</g>
<g>
</g>
<g>
</g>
<g>
</g>
<g>
</g>
<g>
</g>
<g>
</g>
<g>
</g>
<g>
</g>
<g>
</g>
<g>
</g>
<g>
</g>
<g>
</g>
</svg>
