<?xml version="1.0" encoding="iso-8859-1"?>
<!-- Generator: Adobe Illustrator 19.0.0, SVG Export Plug-In . SVG Version: 6.00 Build 0)  -->
<svg xmlns="http://www.w3.org/2000/svg" xmlns:xlink="http://www.w3.org/1999/xlink" version="1.1" id="Layer_1" x="0px" y="0px" viewBox="0 0 508 508" style="enable-background:new 0 0 508 508;" xml:space="preserve">
<circle style="fill:#84DBFF;" cx="254" cy="254" r="254"/>
<path style="fill:#54C0EB;" d="M56,413.2c46.8,58,118,94.8,198,94.8s151.2-36.8,198-94.8H56z"/>
<path style="fill:#324A5E;" d="M292.4,136H280v-20c0-4.8-4-8.8-8.8-8.8h-34.8c-4.8,0-8.8,4-8.8,8.8v20h-12.4v-20  c0-11.6,9.2-20.8,20.8-20.8h34.8c11.6,0,20.8,9.2,20.8,20.8v20H292.4z"/>
<path style="fill:#E6E9EE;" d="M336.8,162.8H171.2c-8.8,0-15.6,7.2-15.6,15.6v218.4c0,8.8,7.2,15.6,15.6,15.6h165.6  c8.8,0,15.6-7.2,15.6-15.6V178.4C352.4,169.6,345.6,162.8,336.8,162.8z"/>
<path style="fill:#FFFFFF;" d="M366.8,181.6H141.2c-5.6,0-10.4-4.8-10.4-10.4v-30c0-5.6,4.8-10.4,10.4-10.4h226  c5.6,0,10.4,4.8,10.4,10.4v30C377.2,176.8,372.8,181.6,366.8,181.6z"/>
<g>
	<rect x="177.2" y="202.8" style="fill:#ACB3BA;" width="22.4" height="185.2"/>
	<rect x="220.8" y="202.8" style="fill:#ACB3BA;" width="22.4" height="185.2"/>
	<rect x="264.8" y="202.8" style="fill:#ACB3BA;" width="22.4" height="185.2"/>
	<rect x="308.4" y="202.8" style="fill:#ACB3BA;" width="22.4" height="185.2"/>
</g>
<g>
</g>
<g>
</g>
<g>
</g>
<g>
</g>
<g>
</g>
<g>
</g>
<g>
</g>
<g>
</g>
<g>
</g>
<g>
</g>
<g>
</g>
<g>
</g>
<g>
</g>
<g>
</g>
<g>
</g>
</svg>
