<?xml version="1.0" encoding="iso-8859-1"?>
<!-- Generator: Adobe Illustrator 19.0.0, SVG Export Plug-In . SVG Version: 6.00 Build 0)  -->
<svg xmlns="http://www.w3.org/2000/svg" xmlns:xlink="http://www.w3.org/1999/xlink" version="1.1" id="Layer_1" x="0px" y="0px" viewBox="0 0 508 508" style="enable-background:new 0 0 508 508;" xml:space="preserve">
<circle style="fill:#324A5E;" cx="254" cy="254" r="254"/>
<path style="fill:#E6E9EE;" d="M232,427.2c-30.8,0-55.6-24.8-55.6-55.6V158.4c0-42.8,34.8-77.6,77.6-77.6s77.6,34.8,77.6,77.6V262  c0,5.6-4.4,10-10,10s-10-4.4-10-10V158.4c0-31.6-25.6-57.6-57.6-57.6s-57.6,25.6-57.6,57.6v213.2c0,19.6,16,35.6,35.6,35.6  s35.6-16,35.6-35.6v-210c0-8.8-7.2-16-16-16c-8.8,0-16,7.2-16,16v136c0,5.6-4.4,10-10,10s-10-4.4-10-10v-136c0-20,16-36,36-36  s36,16,36,36v210C287.6,402.4,262.8,427.2,232,427.2z"/>
<g>
</g>
<g>
</g>
<g>
</g>
<g>
</g>
<g>
</g>
<g>
</g>
<g>
</g>
<g>
</g>
<g>
</g>
<g>
</g>
<g>
</g>
<g>
</g>
<g>
</g>
<g>
</g>
<g>
</g>
</svg>
