<?xml version="1.0" encoding="iso-8859-1"?>
<!-- Generator: Adobe Illustrator 19.0.0, SVG Export Plug-In . SVG Version: 6.00 Build 0)  -->
<svg xmlns="http://www.w3.org/2000/svg" xmlns:xlink="http://www.w3.org/1999/xlink" version="1.1" id="Layer_1" x="0px" y="0px" viewBox="0 0 508 508" style="enable-background:new 0 0 508 508;" xml:space="preserve">
<circle style="fill:#90DFAA;" cx="254" cy="254" r="254"/>
<path style="fill:#E6E9EE;" d="M324.4,304.4H100c-4,0-7.6-3.2-7.6-7.6v-146c0-4,3.2-7.6,7.6-7.6h224.8c4,0,7.6,3.2,7.6,7.6v146  C332,301.2,328.8,304.4,324.4,304.4z"/>
<rect x="92.4" y="176.4" style="fill:#2B3B4E;" width="239.6" height="34.8"/>
<rect x="124.8" y="238.4" style="fill:#ACB3BA;" width="85.2" height="8.8"/>
<path style="fill:#324A5E;" d="M408,364.8H183.6c-4,0-7.6-3.2-7.6-7.6v-146c0-4,3.2-7.6,7.6-7.6h224.8c4,0,7.6,3.2,7.6,7.6v146  C415.6,361.6,412.4,364.8,408,364.8z"/>
<g>
	<path style="fill:#2B3B4E;" d="M302.4,258c1.2-1.2,2.8-2.4,4.4-2.8c1.6-0.8,3.6-0.4,4.8,0.8c1.6,1.6,1.6,4.4,3.6,5.6   c1.2,0.8,2.4,0.8,4,0.8c2,0,4.4-0.4,5.6-2c0.4-0.4,0.8-1.2,1.2-1.6c0.8-1.2,2.8-1.6,4-1.6c5.6-1.2,10.4-5.2,13.2-10.4   c0.4-0.8,0.8-1.6,1.6-2c1.2-0.8,2.8-0.4,4.4-0.8c3.2-0.4,6-3.6,9.2-2c2.4,1.2,2.8,4,2.4,6.8c0,0.8-0.4,1.6,0,2   c0.4,0.8,1.2,0.8,2,0.8c3.2,0.4,6.4,1.6,9.2,3.6c-0.4-1.6-0.8-3.6,0-5.2c0.4-1.6,2.4-2.8,4-2.4c2.4,1.2,2,5.2,4.4,6.8   c0.8,0.4,1.6,0.4,2.8,0.4c5.2,0,10.8,0,15.6,2.8c2.8,1.6,5.6,5.2,3.6,8c-0.8,0.8-1.6,1.6-2.8,2c-4.8,2.8-10.8,4.4-16.4,4.4   c-2,0-4,0-5.2,1.2c-2,1.6-2,4.4-1.2,6.8c0.4,1.6,0.8,2.8,0.4,4.4c-0.8,1.6-2.4,2-3.6,2.4c-2.8,0.8-5.6,1.6-8.4,2.8   c-2,0.8-4.8,1.6-5.2,4c-0.4,2.4,1.6,4.4,3.2,6c2.8,2.8,4.8,6,6.4,9.6c1.6,4.4,2,10-1.6,12.8c-1.6,1.2-3.6,1.2-5.6,1.6   c-2.8,0.4-6.4,0.8-8.4-1.6c-1.6-1.6-2-4-2-6c-0.4-3.2-1.2-6.4-3.2-8.8s-6-3.2-8.4-1.2c-1.6,1.6-2,4-2,6c0,1.2,0,2.4-0.4,3.6   c-1.2,1.6-3.6,2-5.2,0.8s-2.8-2.8-4-4.4s-2.4-3.2-4.4-4c-1.2-0.4-2.4,0-3.6,0.4s-2.4,1.6-2.8,2.8c-1.2,2.4,0,5.2,0.8,7.6   s0,6-2.4,6.4c3.2,1.6,6,4,8.4,6.8c-4.8,2-9.6,3.6-14,5.6c-1.2,0.4-2.4,0.8-3.6,1.2c-2.8,0.4-5.6-0.8-7.6-3.2c-2-2.8-2-6.8-2-10.4   c0-2,0-4.4,0.4-6.4c0-0.8,0-2-0.4-2.8c-1.6-2.8-6-0.8-8.4-2.8c-2-1.2-2-4.4-1.2-6.4c0.8-2.4,2.4-4,3.2-6.4c2-5.2-0.4-10.8-3.2-15.2   c2.8-2,0.4-6.4,0.8-9.6c0.4-3.6,4.4-6,7.6-4.8C294.4,265.6,298.8,261.6,302.4,258z"/>
	<path style="fill:#2B3B4E;" d="M224.8,238.4c0-1.2,0-2.4,0.8-3.6c0.4-0.8,1.6-1.6,2.4-2c2.8-1.6,5.6-2.4,8-4.4   c2.4-1.6,4.8-4,5.2-7.2c6.4-1.2,13.2,3.2,19.2,0.8c1.2-0.4,2.4-1.2,3.6-2c2-0.8,4.4-0.8,6.8-1.2c3.6,0,8,0,10.8,2.4   c2.4,2,3.2,5.2,4,8.4c0.8,3.6,1.2,6.8,0.4,10.4c-0.4,3.6-2.4,6.8-5.2,8.8c-1.2,0.8-2.4,1.2-3.2,2.4c-0.8,1.6-0.4,3.2-0.4,4.8   c0.4,5.2-0.8,10-4,14.4c-0.8,1.2-1.6,2-2.8,2.4c-1.2,0.4-2.4,0-3.2-0.4c-2.8-0.8-5.2-1.6-7.6-2.8c-1.2-0.8-2.8-1.6-3.6-2.8   c-0.8-1.6-0.8-3.2-0.8-4.8c0-3.2,0.4-6.4,0.4-9.6c0-3.2,0-6.8-2.8-8.4c-3.2-2-8,1.2-8,5.2c-0.4,4,2.4,7.2,5.2,10   c0.4,0.4,1.2,0.8,1.2,1.6c1.6,3.2-2.8,6.8-2,10.4c1.2,4.4,8.8,3.2,10,7.2c0.8,1.6,0,3.6-0.8,4.8c-3.2,4.4-9.6,4.8-15.2,4.8   c-0.4,2,1.2,3.6,1.6,5.6c0.4,2-1.6,4.4-3.2,3.2c1.2,3.2,3.2,6.4,6,8.4s6.8,2.4,10,0.4c1.2-0.8,2.4-2,4-1.6c2,0.4,2.8,2.8,2.8,4.8   c0,4.8-2.8,9.2-1.2,13.6c0.4,1.2,1.6,2.4,2,4c1.6,4.8-2.4,9.6-3.2,14.8c-0.4,2,0,4.4-1.6,6.4c-2,2.4-6.4,1.6-8.4-0.8   s-2.4-6-2.8-9.2c-0.4-3.6-0.4-6.8-0.8-10.4c0-0.8,0-1.6-0.8-2.4c-0.8-1.2-2.4-1.2-3.6-1.6c-2.8-0.8-5.2-3.6-5.6-6.8   c-0.4-3.2,0.8-6.4-0.4-9.2c-1.2-2.8-4.4-4-7.2-4.8s-6-1.2-8.4-3.2c-2.8-2.4-3.6-6.4-3.6-10s0.8-7.2,0-10.8c-0.8-4.8-4-8.8-8.4-10.8   c-0.8-0.4-1.6-0.8-2.8-0.8c-4.8,0-6.4,8.4-11.2,8.8c-1.2,0-2.4,0-3.2-0.8c-4.4-2.4-6.8-8.4-4.4-12.8c2.4-5.2,8.8-7.2,14.4-5.6   c1.6,0.4,3.2,1.6,5.2,1.6c1.6,0.4,4-0.4,4.8-1.6c0.4-1.2,0.4-2.4,0.8-3.6c0.4-2.8,1.6-5.6,4-7.2C221.6,245.2,224.4,242,224.8,238.4   z"/>
</g>
<g>
	<path style="fill:#FFFFFF;" d="M206.4,244h-9.6v-22h8.4c1.6,0,2.8,0,4,0.4s2,0.8,2.4,1.6c0.8,1.2,1.6,2.4,1.6,4s-0.4,2.8-1.6,4   c-0.4,0.4-0.8,0.4-0.8,0.4s-0.4,0-0.8,0.4c1.2,0.4,2.4,0.8,3.2,2c0.8,0.8,1.2,2,1.2,3.6s-0.4,2.8-1.6,4   C211.6,243.2,209.2,244,206.4,244z M201.6,230.8h2.4c1.2,0,2.4,0,3.2-0.4s0.8-0.8,0.8-2c0-0.8-0.4-1.6-0.8-2   c-0.8-0.4-1.6-0.4-3.2-0.4h-2.4V230.8z M201.6,240h3.2c1.2,0,2.4,0,3.2-0.4s1.2-1.2,1.2-2c0-1.2-0.4-1.6-1.2-2s-2-0.4-3.6-0.4h-2.8   L201.6,240L201.6,240z"/>
	<path style="fill:#FFFFFF;" d="M233.6,244l-2-4.8h-9.2l-2,4.8h-5.2l9.6-22h4.8l9.6,22H233.6z M227.2,228.8l-2.8,6.4h5.6   L227.2,228.8z"/>
	<path style="fill:#FFFFFF;" d="M256.8,222h4.8v22h-4.8l-10.4-13.6V244h-4.8v-22h4.4l10.8,14V222z"/>
	<path style="fill:#FFFFFF;" d="M267.2,222h4.8v9.2l8.4-9.2h6l-8.8,9.6c0.8,1.2,2,2.8,4,6c2,2.8,3.6,4.8,4.4,6.4h-5.6l-6.4-8.8   l-2,2.8v6.4h-4.8V222z"/>
</g>
<path style="fill:#FFD05B;" d="M237.2,294H202c-1.6,0-2.8-1.2-2.8-2.8v-26.4c0-1.6,1.2-2.8,2.8-2.8h35.2c1.6,0,2.8,1.2,2.8,2.8v26.4  C240,292.8,238.8,294,237.2,294z"/>
<path style="fill:#F9B54C;" d="M240,271.2v-2h-13.6v-6.8h-2v6.8h-9.6v-6.8h-2v6.8h-13.6v2h13.6v6.4h-13.6v2h13.6v5.6h-13.6v2h13.6  v6.8h2v-6.8h9.6v6.8h2v-6.8H240v-2h-13.6v-5.6H240v-2h-13.6v-6.4H240z M224.4,279.6v5.6h-9.6v-5.6H224.4z M214.8,277.6v-6.4h9.6v6.4  H214.8z"/>
<g>
	<path style="fill:#FFD05B;" d="M198.4,318h5.2v13.2h-2.8v-10.8h-2.4V318z"/>
	<path style="fill:#FFD05B;" d="M214.8,318v2.4h-5.2v2c0.4,0,0.8,0,1.2,0c1.2,0,2.4,0.4,3.2,1.2c0.8,0.8,1.2,1.6,1.2,3.2   c0,1.2-0.4,2.4-1.6,3.2c-0.8,0.8-2,1.2-3.6,1.2s-3.2-0.8-4.4-2l1.6-2l0.4,0.4c0,0,0.4,0.4,1.2,0.8c0.4,0.4,1.2,0.4,1.6,0.4   c0.4,0,0.8,0,1.2-0.4s0.4-0.8,0.4-1.2c0-0.4-0.4-1.2-0.8-1.2c-0.4-0.4-0.8-0.4-1.6-0.4s-1.6,0.4-2.4,0.8l-1.2-1.2V318H214.8z"/>
	<path style="fill:#FFD05B;" d="M223.2,323.2c0.4-0.4,0.4-0.8,0.4-1.2c0-0.4,0-0.8-0.4-1.2c-0.4-0.4-0.8-0.4-1.2-0.4   c-0.8,0-1.6,0.4-2.4,1.6l-2.4-1.2c0.8-0.8,1.2-1.6,2-2s1.6-0.8,2.8-0.8s2,0.4,2.8,1.2c0.8,0.8,1.2,1.6,1.2,2.8c0,0.8,0,1.2-0.4,2   s-0.8,1.6-2,2.4l-2.4,2.4h5.2v2.8h-9.2v-2l4-4C222,324.4,222.8,323.6,223.2,323.2z"/>
	<path style="fill:#FFD05B;" d="M229.2,320.4V318h8v2l-2.8,3.2c1.2,0,2,0.8,2.4,1.2c0.4,0.8,0.8,1.6,0.8,2.4c0,1.2-0.4,2.4-1.2,3.2   c-0.8,0.8-2,1.2-3.6,1.2s-2.8-0.4-4.4-1.6l1.2-2.4c1.2,0.8,2.4,1.2,3.2,1.2c0.4,0,1.2,0,1.6-0.4c0.4-0.4,0.4-0.8,0.4-1.2   c0-0.4-0.4-0.8-0.8-1.2c-0.4-0.4-1.2-0.4-2-0.4c-0.4,0-0.8,0-1.6,0.4v-2l2.4-2.8h-3.6V320.4z"/>
	<path style="fill:#FFD05B;" d="M249.6,318h5.2v13.2H252v-10.8h-2.4L249.6,318L249.6,318z"/>
	<path style="fill:#FFD05B;" d="M258,320.4V318h8v2l-2.8,3.2c1.2,0,2,0.8,2.4,1.2c0.4,0.8,0.8,1.6,0.8,2.4c0,1.2-0.4,2.4-1.2,3.2   c-0.8,0.8-2,1.2-3.6,1.2s-2.8-0.4-4.4-1.6l1.2-2.4c1.2,0.8,2.4,1.2,3.2,1.2c0.4,0,1.2,0,1.6-0.4s0.4-0.8,0.4-1.2   c0-0.4-0.4-0.8-0.8-1.2c-0.4-0.4-1.2-0.4-2-0.4c-0.4,0-0.8,0-1.6,0.4v-2l2.4-2.8H258V320.4z"/>
	<path style="fill:#FFD05B;" d="M274,323.2c0.4-0.4,0.4-0.8,0.4-1.2c0-0.4,0-0.8-0.4-1.2c-0.4-0.4-0.8-0.4-1.2-0.4   c-0.8,0-1.6,0.4-2.4,1.6l-2.4-1.2c0.8-0.8,1.2-1.6,2-2s1.6-0.8,2.8-0.8c1.2,0,2,0.4,2.8,1.2c0.8,0.8,1.2,1.6,1.2,2.8   c0,0.8,0,1.2-0.4,2s-0.8,1.6-2,2.4l-2.4,2.4h6v2.8h-9.2v-2l4-4C273.2,324.4,274,323.6,274,323.2z"/>
	<path style="fill:#FFD05B;" d="M279.6,318h5.2v13.2H282v-10.8h-2.4V318z"/>
	<path style="fill:#FFD05B;" d="M297.2,318h5.2v13.2h-2.8v-10.8h-2.4L297.2,318L297.2,318z"/>
	<path style="fill:#FFD05B;" d="M310.8,323.2c0.4-0.4,0.4-0.8,0.4-1.2c0-0.4,0-0.8-0.4-1.2c-0.4-0.4-0.8-0.4-1.2-0.4   c-0.8,0-1.6,0.4-2.4,1.6l-2.4-1.2c0.8-0.8,1.2-1.6,2-2s1.6-0.8,2.8-0.8c1.2,0,2,0.4,2.8,1.2c0.8,0.8,1.2,1.6,1.2,2.8   c0,0.8,0,1.2-0.4,2s-0.8,1.6-2,2.4l-2.4,2.4h5.2v2.8h-9.2v-2l4-4C309.6,324.4,310.4,323.6,310.8,323.2z"/>
	<path style="fill:#FFD05B;" d="M316.8,320.4V318h8v2l-2.8,3.2c1.2,0,2,0.8,2.4,1.2c0.4,0.8,0.8,1.6,0.8,2.4c0,1.2-0.4,2.4-1.2,3.2   c-0.8,0.8-2,1.2-3.6,1.2s-2.8-0.4-4.4-1.6l1.2-2.4c1.2,0.8,2.4,1.2,3.2,1.2c0.4,0,1.2,0,1.6-0.4s0.4-0.8,0.4-1.2   c0-0.4-0.4-0.8-0.8-1.2c-0.4-0.4-1.2-0.4-2-0.4c-0.4,0-0.8,0-1.6,0.4v-2l2.4-2.8h-3.6V320.4z"/>
	<path style="fill:#FFD05B;" d="M327.2,318h5.2v13.2h-2.8v-10.8h-2.4L327.2,318L327.2,318z"/>
	<path style="fill:#FFD05B;" d="M355.6,320.4c-0.8,0-1.6,0.4-2,0.8s-0.8,1.2-0.8,2.4c0.8-0.4,1.6-0.8,2.4-0.8c1.2,0,2.4,0.4,3.2,1.2   c0.8,0.8,1.2,2,1.2,3.2s-0.4,2.4-1.2,3.2c-0.8,0.8-2,1.2-3.2,1.2c-0.8,0-1.6,0-2.4-0.4s-1.2-0.8-1.6-1.6c-0.8-1.2-1.2-2.8-1.2-4.8   c0-1.2,0-2.4,0.4-3.2c0.4-0.8,0.8-1.6,1.2-2c1.2-1.2,2.4-1.6,3.6-1.6c0.8,0,1.2,0,1.6,0.4c0.4,0,0.8,0.4,1.2,0.4   c0.4,0,0.8,0.4,0.8,0.8l-0.8,1.6c0,0,0,0-0.4-0.4c0,0-0.4-0.4-0.8-0.4C356.4,320.4,356,320.4,355.6,320.4z M355.2,324.8   c-0.4,0-1.2,0-1.6,0.4s-0.4,0.8-0.4,1.2c0,0.4,0,1.2,0.4,1.6s0.8,0.4,1.6,0.4c0.4,0,1.2,0,1.6-0.4s0.4-0.8,0.4-1.2   c0-0.4,0-1.2-0.4-1.6C356.4,325.2,356,324.8,355.2,324.8z"/>
	<path style="fill:#FFD05B;" d="M370.4,318v2.4h-5.2v2c0.4,0,0.8,0,1.2,0c1.2,0,2.4,0.4,3.2,1.2c0.8,0.8,1.2,1.6,1.2,3.2   c0,1.2-0.4,2.4-1.6,3.2c-0.8,0.8-2,1.2-3.6,1.2s-3.2-0.8-4.4-2l1.6-2l0.4,0.4c0,0,0.4,0.4,1.2,0.8c0.4,0.4,1.2,0.4,1.6,0.4   s0.8,0,1.2-0.4c0.4-0.4,0.4-0.8,0.4-1.2c0-0.4-0.4-1.2-0.8-1.2c-0.4-0.4-0.8-0.4-1.6-0.4c-0.8,0-1.6,0.4-2.4,0.8l-1.2-1.2V318   H370.4z"/>
	<path style="fill:#FFD05B;" d="M378,325.6v-2.4h2.8v2.4h1.6v2.4h-1.6v3.2H378V328h-5.2v-2.4l4.8-7.6h3.2l-4.4,7.6H378z"/>
	<path style="fill:#FFD05B;" d="M389.2,325.6v-2.4h2.8v2.4h1.6v2.4H392v3.2h-2.8V328H384v-2.4l4.8-7.6h3.2l-4.4,7.6H389.2z"/>
</g>
<g>
</g>
<g>
</g>
<g>
</g>
<g>
</g>
<g>
</g>
<g>
</g>
<g>
</g>
<g>
</g>
<g>
</g>
<g>
</g>
<g>
</g>
<g>
</g>
<g>
</g>
<g>
</g>
<g>
</g>
</svg>
