<?xml version="1.0" encoding="iso-8859-1"?>
<!-- Generator: Adobe Illustrator 19.0.0, SVG Export Plug-In . SVG Version: 6.00 Build 0)  -->
<svg xmlns="http://www.w3.org/2000/svg" xmlns:xlink="http://www.w3.org/1999/xlink" version="1.1" id="Layer_1" x="0px" y="0px" viewBox="0 0 508 508" style="enable-background:new 0 0 508 508;" xml:space="preserve">
<circle style="fill:#FD8469;" cx="254" cy="254" r="254"/>
<path style="fill:#F1543F;" d="M60,417.6c46.4,55.2,116.4,90.4,194,90.4s147.6-35.2,194-90.4H60z"/>
<path style="fill:#E6E9EE;" d="M387.6,397.6l8.8-160H111.6l8.8,160c0.8,10.4,9.2,18.4,19.6,18.4h228  C378.4,416,386.8,408,387.6,397.6z"/>
<path style="fill:#FFFFFF;" d="M402,259.2H106c-6,0-10.4-4.8-10.4-10.4V210c0-6,4.8-10.4,10.4-10.4h296c6,0,10.4,4.8,10.4,10.4v38.8  C412.8,254.4,408,259.2,402,259.2z"/>
<g>
	<circle style="fill:#324A5E;" cx="349.2" cy="229.2" r="18.4"/>
	<circle style="fill:#324A5E;" cx="158.8" cy="229.2" r="18.4"/>
</g>
<g>
	<polygon style="fill:#FD8469;" points="372,284 345.6,284 340,397.2 364.8,397.2  "/>
	<polygon style="fill:#FD8469;" points="319.6,284 293.2,284 290.8,397.2 315.6,397.2  "/>
	<polygon style="fill:#FD8469;" points="267.2,284 240.8,284 241.6,397.2 266.4,397.2  "/>
	<polygon style="fill:#FD8469;" points="214.8,284 188.4,284 192.4,397.2 217.2,397.2  "/>
	<polygon style="fill:#FD8469;" points="162.4,284 136,284 143.2,397.2 168,397.2  "/>
</g>
<circle style="fill:#E6E9EE;" cx="293.6" cy="110.8" r="18.4"/>
<path style="fill:#54C0EB;" d="M352.8,234L352.8,234c-4.8,2.4-10.4,0.4-12.8-4.4L285.6,116c-2.4-4.8-0.4-10.4,4.4-12.8l0,0  c4.8-2.4,10.4-0.4,12.8,4.4l54.4,113.2C359.6,226,357.6,231.6,352.8,234z"/>
<circle style="fill:#E6E9EE;" cx="214.4" cy="110.8" r="18.4"/>
<path style="fill:#54C0EB;" d="M155.2,234L155.2,234c4.8,2.4,10.4,0.4,12.8-4.4l54.4-113.2c2.4-4.8,0.4-10.4-4.4-12.8l0,0  c-4.8-2.4-10.4-0.4-12.8,4.4l-54.4,113.2C148.4,226,150.4,231.6,155.2,234z"/>
<g>
</g>
<g>
</g>
<g>
</g>
<g>
</g>
<g>
</g>
<g>
</g>
<g>
</g>
<g>
</g>
<g>
</g>
<g>
</g>
<g>
</g>
<g>
</g>
<g>
</g>
<g>
</g>
<g>
</g>
</svg>
