<?xml version="1.0" encoding="iso-8859-1"?>
<!-- Generator: Adobe Illustrator 19.0.0, SVG Export Plug-In . SVG Version: 6.00 Build 0)  -->
<svg xmlns="http://www.w3.org/2000/svg" xmlns:xlink="http://www.w3.org/1999/xlink" version="1.1" id="Layer_1" x="0px" y="0px" viewBox="0 0 508 508" style="enable-background:new 0 0 508 508;" xml:space="preserve">
<circle style="fill:#FD8469;" cx="254" cy="254" r="254"/>
<path style="fill:#E6E9EE;" d="M246.8,88c-89.2,0-161.6,72.4-161.6,161.6s72.4,161.6,161.6,161.6s161.6-72.4,161.6-161.6  C408,160,336,88,246.8,88z M246.8,271.6c-12.4,0-22.4-10-22.4-22.4s10-22.4,22.4-22.4c12.4,0,22.4,10,22.4,22.4  C268.8,261.6,258.8,271.6,246.8,271.6z"/>
<path style="fill:#ACB3BA;" d="M246.8,200.8c-26.8,0-48.8,21.6-48.8,48.8s22,48.4,48.8,48.4s48.8-21.6,48.8-48.8  S273.6,200.8,246.8,200.8z M246.8,271.6c-12.4,0-22.4-10-22.4-22.4s10-22.4,22.4-22.4c12.4,0,22.4,10,22.4,22.4  C268.8,261.6,258.8,271.6,246.8,271.6z"/>
<path style="fill:#54C0EB;" d="M402.8,420H224c-11.2,0-20-9.2-20-20v-59.6c0-11.2,9.2-20,20-20h178.4c11.2,0,20,9.2,20,20V400  C422.8,411.2,413.6,420,402.8,420z"/>
<g>
	<path style="fill:#FFFFFF;" d="M270.8,348.4c5.6,5.2,8.4,12.4,8.4,21.6s-2.8,16.4-8.4,22c-5.6,5.2-14,8-25.2,8h-20v-59.2h20.8   C257.2,340.8,265.2,343.2,270.8,348.4z M261.2,383.6c3.2-3.2,4.8-7.6,4.8-13.2c0-6-1.6-10.4-4.8-13.2c-3.2-3.2-8.4-4.8-14.8-4.8   h-7.2v36h8.4C253.2,388,258,386.8,261.2,383.6z"/>
	<path style="fill:#FFFFFF;" d="M311.2,378.4l15.2-37.6h14.4L317.2,400H306l-24-59.2h14.4L311.2,378.4z"/>
	<path style="fill:#FFFFFF;" d="M392.8,348.4c5.6,5.2,8.4,12.4,8.4,21.6s-2.8,16.4-8.4,22c-5.6,5.2-14,8-25.2,8h-20v-59.2h20.8   C378.8,340.8,386.8,343.2,392.8,348.4z M382.8,383.6c3.2-3.2,4.8-7.6,4.8-13.2c0-6-1.6-10.4-4.8-13.2c-3.2-3.2-8.4-4.8-14.8-4.8   h-7.2v36h8.4C375.2,388,379.6,386.8,382.8,383.6z"/>
</g>
<g>
</g>
<g>
</g>
<g>
</g>
<g>
</g>
<g>
</g>
<g>
</g>
<g>
</g>
<g>
</g>
<g>
</g>
<g>
</g>
<g>
</g>
<g>
</g>
<g>
</g>
<g>
</g>
<g>
</g>
</svg>
