<?xml version="1.0" encoding="iso-8859-1"?>
<!-- Generator: Adobe Illustrator 19.0.0, SVG Export Plug-In . SVG Version: 6.00 Build 0)  -->
<svg xmlns="http://www.w3.org/2000/svg" xmlns:xlink="http://www.w3.org/1999/xlink" version="1.1" id="Layer_1" x="0px" y="0px" viewBox="0 0 508 508" style="enable-background:new 0 0 508 508;" xml:space="preserve">
<circle style="fill:#84DBFF;" cx="254" cy="254" r="254"/>
<path style="fill:#FF7058;" d="M356.4,186h21.2c2.8,0,5.2-2.4,5.2-5.2v-34c0-2.8-2.4-5.2-5.2-5.2h-21.2c-2.8,0-5.2,2.4-5.2,5.2v34  C350.8,183.6,353.2,186,356.4,186z"/>
<path style="fill:#FFD05B;" d="M360.8,246.8H382c2.8,0,5.2-2.4,5.2-5.2v-34c0-2.8-2.4-5.2-5.2-5.2h-21.2c-2.8,0-5.2,2.4-5.2,5.2v34  C355.2,244.4,357.6,246.8,360.8,246.8z"/>
<path style="fill:#2C9984;" d="M356.4,307.6h21.2c2.8,0,5.2-2.4,5.2-5.2v-34c0-2.8-2.4-5.2-5.2-5.2h-21.2c-2.8,0-5.2,2.4-5.2,5.2  V302C350.8,305.2,353.2,307.6,356.4,307.6z"/>
<path style="fill:#54C0EB;" d="M356.4,368.4h21.2c2.8,0,5.2-2.4,5.2-5.2v-34c0-2.8-2.4-5.2-5.2-5.2h-21.2c-2.8,0-5.2,2.4-5.2,5.2v34  C350.8,366,353.2,368.4,356.4,368.4z"/>
<path style="fill:#324A5E;" d="M338,412.8H134c-7.2,0-13.2-6-13.2-13.2V108.4c0-7.2,6-13.2,13.2-13.2h204  c15.2,0,27.2,12.4,27.2,27.2v262.8C365.2,400.4,352.8,412.8,338,412.8z"/>
<path style="fill:#2B3B4E;" d="M171.6,95.2H134c-7.2,0-12.8,5.6-12.8,12.8v291.6c0,7.2,5.6,12.8,12.8,12.8h37.6V95.2z"/>
<path style="fill:#FFFFFF;" d="M302,277.6c2.8,0,5.6-2,7.6-6.4s3.2-10,3.2-16.4c0-14.4-4.4-26.4-12.8-35.6c-8.8-9.6-20.4-14-34.8-14  s-26.8,4.8-36.8,14.8s-14.8,21.6-14.8,35.6c0,14,4.8,25.2,14,34.4c9.2,9.2,20.8,13.6,34.8,13.6c10.8,0,20.4-3.6,28.4-11.2l6.4,10.8  c-4.4,3.6-9.6,6.4-16.4,8.8c-6.8,2-12.8,3.2-18.8,3.2c-18,0-32.8-5.6-44.8-17.2c-12-11.2-18-25.6-18-42.8s6.4-31.6,18.8-43.6  c12.8-12,28-18,45.6-18c18,0,32.8,6,44.8,17.6s18,26,18,43.2c0,11.2-2.4,20-7.2,26.8c-4.8,6.8-11.2,10-19.2,10  c-4,0-7.6-1.2-11.2-3.6c-3.2-2.4-5.6-5.2-6.8-8.8c-6,7.2-13.2,10.8-22.4,10.8c-9.2,0-16.8-3.2-23.6-9.6s-10-14.8-10-24.8  s3.2-18.4,9.2-25.2s14-10.4,23.6-10.4c3.2,0,6.4,0.8,9.6,2c2.8,1.2,5.2,2.8,6.4,4l2,2v-6.4h20V270  C297.2,275.2,298.8,277.6,302,277.6z M277.2,254.4c0-5.2-1.6-9.2-4.4-12.8c-2.8-3.2-6.4-5.2-11.2-5.2c-4.4,0-8.4,1.6-10.8,5.2  c-2.8,3.2-4,7.6-4,12.4c0,4.8,1.2,9.2,4,12.8s6.4,5.6,11.2,5.6s8.4-1.6,11.2-5.2C276,264,277.2,259.6,277.2,254.4z"/>
<g>
</g>
<g>
</g>
<g>
</g>
<g>
</g>
<g>
</g>
<g>
</g>
<g>
</g>
<g>
</g>
<g>
</g>
<g>
</g>
<g>
</g>
<g>
</g>
<g>
</g>
<g>
</g>
<g>
</g>
</svg>
