<?xml version="1.0" encoding="iso-8859-1"?>
<!-- Generator: Adobe Illustrator 19.0.0, SVG Export Plug-In . SVG Version: 6.00 Build 0)  -->
<svg xmlns="http://www.w3.org/2000/svg" xmlns:xlink="http://www.w3.org/1999/xlink" version="1.1" id="Layer_1" x="0px" y="0px" viewBox="0 0 508 508" style="enable-background:new 0 0 508 508;" xml:space="preserve">
<circle style="fill:#324A5E;" cx="254" cy="254" r="254"/>
<path style="fill:#F1543F;" d="M361.6,403.6c-5.2-16.8-21.2-29.2-40-29.2s-34.4,12.4-40,29.2H361.6z"/>
<path style="fill:#FFD05B;" d="M321.6,331.2H170.8c-4.4,0-8-3.6-8-8V172.4c0-4.4,3.6-8,8-8H322c4.4,0,8,3.6,8,8v151.2  C329.6,328,326,331.2,321.6,331.2z M178.4,315.6H314V180H178.4V315.6z"/>
<path style="fill:#FF7058;" d="M395.2,382H248.4c-5.2,0-9.2-4.4-9.2-9.2v-91.6c0-5.2,4.4-9.2,9.2-9.2h146.8c5.2,0,9.2,4.4,9.2,9.2  v91.2C404.4,377.6,400.4,382,395.2,382z"/>
<rect x="252.4" y="285.2" style="fill:#CED5E0;" width="138.8" height="76.8"/>
<rect x="112.4" y="128.8" style="fill:#ACB3BA;" width="125.2" height="87.6"/>
<g>
	<path style="fill:#E6E9EE;" d="M243.2,144H106.4c-1.6,0-3.2-1.2-3.2-3.2v-33.6c0-1.6,1.2-3.2,3.2-3.2h136.8c1.6,0,3.2,1.2,3.2,3.2   v33.6C246.4,142.8,244.8,144,243.2,144z"/>
	<path style="fill:#E6E9EE;" d="M243.2,194.8H106.4c-1.6,0-3.2-1.2-3.2-3.2V158c0-1.6,1.2-3.2,3.2-3.2h136.8c1.6,0,3.2,1.2,3.2,3.2   v33.6C246.4,193.2,244.8,194.8,243.2,194.8z"/>
	<path style="fill:#E6E9EE;" d="M243.2,245.2H106.4c-1.6,0-3.2-1.2-3.2-3.2v-33.6c0-1.6,1.2-3.2,3.2-3.2h136.8   c1.6,0,3.2,1.2,3.2,3.2V242C246.4,244,244.8,245.2,243.2,245.2z"/>
</g>
<g>
	<circle style="fill:#FF7058;" cx="125.6" cy="124" r="6"/>
	<circle style="fill:#FF7058;" cx="125.6" cy="174.8" r="6"/>
	<circle style="fill:#FF7058;" cx="125.6" cy="225.6" r="6"/>
</g>
<circle style="fill:#F1543F;" cx="321.6" cy="371.6" r="4.8"/>
<g>
</g>
<g>
</g>
<g>
</g>
<g>
</g>
<g>
</g>
<g>
</g>
<g>
</g>
<g>
</g>
<g>
</g>
<g>
</g>
<g>
</g>
<g>
</g>
<g>
</g>
<g>
</g>
<g>
</g>
</svg>
