<?xml version="1.0" encoding="iso-8859-1"?>
<!-- Generator: Adobe Illustrator 19.0.0, SVG Export Plug-In . SVG Version: 6.00 Build 0)  -->
<svg xmlns="http://www.w3.org/2000/svg" xmlns:xlink="http://www.w3.org/1999/xlink" version="1.1" id="Layer_1" x="0px" y="0px" viewBox="0 0 508 508" style="enable-background:new 0 0 508 508;" xml:space="preserve">
<circle style="fill:#90DFAA;" cx="254" cy="254" r="254"/>
<path style="fill:#324A5E;" d="M354.8,422.8H138c-7.6,0-14-6-14-14V99.2c0-7.6,6-14,14-14h216.8c16,0,29.2,12.8,29.2,29.2v279.2  C383.6,409.6,370.8,422.8,354.8,422.8z"/>
<path style="fill:#2B3B4E;" d="M178,85.2h-40c-7.6,0-13.6,6-13.6,13.6v310c0,7.6,6,13.6,13.6,13.6h40V85.2z"/>
<polygon style="fill:#FF7058;" points="328.4,85.2 328.4,216 298.4,185.6 270.4,213.6 270.4,85.2 "/>
<g>
	<rect x="206.8" y="295.6" style="fill:#FFFFFF;" width="139.2" height="7.6"/>
	<rect x="206.8" y="321.2" style="fill:#FFFFFF;" width="139.2" height="7.6"/>
	<rect x="206.8" y="346.8" style="fill:#FFFFFF;" width="139.2" height="7.6"/>
	<rect x="206.8" y="372.4" style="fill:#FFFFFF;" width="139.2" height="7.6"/>
</g>
<g>
</g>
<g>
</g>
<g>
</g>
<g>
</g>
<g>
</g>
<g>
</g>
<g>
</g>
<g>
</g>
<g>
</g>
<g>
</g>
<g>
</g>
<g>
</g>
<g>
</g>
<g>
</g>
<g>
</g>
</svg>
