<?xml version="1.0" encoding="iso-8859-1"?>
<!-- Generator: Adobe Illustrator 19.0.0, SVG Export Plug-In . SVG Version: 6.00 Build 0)  -->
<svg xmlns="http://www.w3.org/2000/svg" xmlns:xlink="http://www.w3.org/1999/xlink" version="1.1" id="Layer_1" x="0px" y="0px" viewBox="0 0 508 508" style="enable-background:new 0 0 508 508;" xml:space="preserve">
<circle style="fill:#324A5E;" cx="254" cy="254" r="254"/>
<path style="fill:#FFD05B;" d="M334.4,116c-34-22-79.6-12.8-101.6,21.2l-26,40l23.6,15.6l26-40C270,132,298,126,318.8,139.6  s26.8,41.6,13.2,62.4l-36,56l23.6,15.6L356,218C378,184,368.4,138.4,334.4,116z"/>
<path style="fill:#CED5E0;" d="M341.2,403.6H150.8c-6,0-10.8-4.8-10.8-10.8V266c0-6,4.8-10.8,10.8-10.8h190.4  c6,0,10.8,4.8,10.8,10.8v127.2C352,398.8,347.2,403.6,341.2,403.6z"/>
<path style="fill:#324A5E;" d="M266,317.2c0-11.2-8.8-20-20-20s-20,8.8-20,20c0,7.2,4,13.6,9.6,17.2l-3.2,27.6h27.2l-3.2-27.6  C262,330.8,266,324.4,266,317.2z"/>
<g>
</g>
<g>
</g>
<g>
</g>
<g>
</g>
<g>
</g>
<g>
</g>
<g>
</g>
<g>
</g>
<g>
</g>
<g>
</g>
<g>
</g>
<g>
</g>
<g>
</g>
<g>
</g>
<g>
</g>
</svg>
