<?xml version="1.0" encoding="iso-8859-1"?>
<!-- Generator: Adobe Illustrator 19.0.0, SVG Export Plug-In . SVG Version: 6.00 Build 0)  -->
<svg xmlns="http://www.w3.org/2000/svg" xmlns:xlink="http://www.w3.org/1999/xlink" version="1.1" id="Layer_1" x="0px" y="0px" viewBox="0 0 508 508" style="enable-background:new 0 0 508 508;" xml:space="preserve">
<circle style="fill:#90DFAA;" cx="254" cy="254" r="254"/>
<rect x="118" y="95.2" style="fill:#E6E9EE;" width="199.2" height="265.2"/>
<g>
	<rect x="150.4" y="129.6" style="fill:#ACB3BA;" width="134.4" height="9.6"/>
	<rect x="150.4" y="166.8" style="fill:#ACB3BA;" width="134.4" height="9.6"/>
	<rect x="150.4" y="204.4" style="fill:#ACB3BA;" width="134.4" height="9.6"/>
	<rect x="150.4" y="241.6" style="fill:#ACB3BA;" width="134.4" height="9.6"/>
	<rect x="150.4" y="278.8" style="fill:#ACB3BA;" width="134.4" height="9.6"/>
	<rect x="150.4" y="316" style="fill:#ACB3BA;" width="49.6" height="9.6"/>
</g>
<path style="fill:#FFFFFF;" d="M294.8,412.8C192.4,362.8,200,248,200,248c45.2,6,95.2-36.8,95.2-36.8S344.8,254,390,248  C390,248,397.6,362.8,294.8,412.8z"/>
<path style="fill:#FF7058;" d="M294.8,395.2C230,359.6,218,293.6,216,264c32.8-2.4,63.6-21.6,79.2-32.8  c15.6,11.2,46.4,30.4,79.2,32.8C372.4,293.6,360.4,359.2,294.8,395.2z"/>
<g>
</g>
<g>
</g>
<g>
</g>
<g>
</g>
<g>
</g>
<g>
</g>
<g>
</g>
<g>
</g>
<g>
</g>
<g>
</g>
<g>
</g>
<g>
</g>
<g>
</g>
<g>
</g>
<g>
</g>
</svg>
