<?xml version="1.0" encoding="iso-8859-1"?>
<!-- Generator: Adobe Illustrator 19.0.0, SVG Export Plug-In . SVG Version: 6.00 Build 0)  -->
<svg xmlns="http://www.w3.org/2000/svg" xmlns:xlink="http://www.w3.org/1999/xlink" version="1.1" id="Layer_1" x="0px" y="0px" viewBox="0 0 508 508" style="enable-background:new 0 0 508 508;" xml:space="preserve">
<circle style="fill:#FD8469;" cx="254" cy="254" r="254"/>
<path style="fill:#FFFFFF;" d="M372,190c0-1.2,0.4-2.8,0.4-4.4c0-29.6-24-53.6-53.6-53.6c-12.8,0-24.4,4.4-33.6,12  c-13.6-26-40.8-44-72-44c-44.8,0-80.8,36-80.8,80.8c0,3.2,0,6,0.4,9.2c-33.2,3.2-59.2,31.2-59.2,65.2c0,36,29.2,65.6,65.6,65.6  h229.6c36,0,65.6-29.2,65.6-65.6C434.4,220,406.8,191.6,372,190z"/>
<g>
	<polygon style="fill:#324A5E;" points="154,350.8 203.2,350.8 203.2,280 297.6,280 297.6,350.8 346.4,350.8 250.4,456  "/>
	<rect x="203.2" y="247.6" style="fill:#324A5E;" width="94.4" height="15.6"/>
	<rect x="203.2" y="210.4" style="fill:#324A5E;" width="94.4" height="15.6"/>
</g>
<g>
</g>
<g>
</g>
<g>
</g>
<g>
</g>
<g>
</g>
<g>
</g>
<g>
</g>
<g>
</g>
<g>
</g>
<g>
</g>
<g>
</g>
<g>
</g>
<g>
</g>
<g>
</g>
<g>
</g>
</svg>
