<?xml version="1.0" encoding="iso-8859-1"?>
<!-- Generator: Adobe Illustrator 19.0.0, SVG Export Plug-In . SVG Version: 6.00 Build 0)  -->
<svg xmlns="http://www.w3.org/2000/svg" xmlns:xlink="http://www.w3.org/1999/xlink" version="1.1" id="Layer_1" x="0px" y="0px" viewBox="0 0 508 508" style="enable-background:new 0 0 508 508;" xml:space="preserve">
<circle style="fill:#FFD05B;" cx="254" cy="254" r="254"/>
<circle style="fill:#FF7058;" cx="254" cy="254" r="178.4"/>
<g>
	<path style="fill:#FFFFFF;" d="M200.4,256.4c-18-48,28-117.6,105.2-96.4c-62.8-41.6-157.6,9.2-157.2,96.4h-23.6   c-6.8,0-10.4,7.6-6,12.8l50,60.4c3.2,3.6,8.8,3.6,12,0l50-60.4c4.4-5.2,0.4-12.8-6-12.8H200.4z"/>
	<path style="fill:#FFFFFF;" d="M390,238.8l-50.4-63.2c-3.2-4-9.2-4-12.4,0l-50,63.2c-4,5.2-0.4,12.8,6,12.8h24.4   c18,48-28,117.6-105.2,96.4c62.8,41.6,157.6-9.2,157.2-96.4h24C390.4,251.6,394.4,244,390,238.8z"/>
</g>
<g>
</g>
<g>
</g>
<g>
</g>
<g>
</g>
<g>
</g>
<g>
</g>
<g>
</g>
<g>
</g>
<g>
</g>
<g>
</g>
<g>
</g>
<g>
</g>
<g>
</g>
<g>
</g>
<g>
</g>
</svg>
