<?xml version="1.0" encoding="iso-8859-1"?>
<!-- Generator: Adobe Illustrator 19.0.0, SVG Export Plug-In . SVG Version: 6.00 Build 0)  -->
<svg xmlns="http://www.w3.org/2000/svg" xmlns:xlink="http://www.w3.org/1999/xlink" version="1.1" id="Layer_1" x="0px" y="0px" viewBox="0 0 508 508" style="enable-background:new 0 0 508 508;" xml:space="preserve">
<circle style="fill:#84DBFF;" cx="254" cy="254" r="254"/>
<path style="fill:#FFFFFF;" d="M120.4,356c-1.2,0-2.4-0.4-3.6-0.8c-4.8-2-6.8-7.2-5.2-12l68.8-170.8c1.2-3.2,4.4-5.2,7.6-5.6  c3.6-0.4,6.8,1.2,8.4,4l100.8,155.6l62.4-154c2-4.8,7.2-6.8,12-5.2c4.8,2,6.8,7.2,5.2,12L307.6,350c-1.2,3.2-4.4,5.2-7.6,5.6  s-6.8-1.2-8.4-4L190.8,196l-62,154.4C127.2,354,124,356,120.4,356z"/>
<g>
	<circle style="fill:#FF7058;" cx="368" cy="176" r="52"/>
	<path style="fill:#FF7058;" d="M301.6,384c-24.4,0-44.4-20-44.4-44.4s20-44.4,44.4-44.4s44.4,19.6,44.4,44S326.4,384,301.6,384z"/>
	<path style="fill:#FF7058;" d="M189.6,214c-21.2,0-38-17.2-38-38s17.2-38,38-38s38,17.2,38,38S210.8,214,189.6,214z"/>
	<path style="fill:#FF7058;" d="M120.4,380.4c-18.4,0-33.2-14.8-33.2-33.2c0-18.4,14.8-33.2,33.2-33.2s33.2,14.8,33.2,33.2   C153.6,365.2,138.4,380.4,120.4,380.4z"/>
</g>
<g>
</g>
<g>
</g>
<g>
</g>
<g>
</g>
<g>
</g>
<g>
</g>
<g>
</g>
<g>
</g>
<g>
</g>
<g>
</g>
<g>
</g>
<g>
</g>
<g>
</g>
<g>
</g>
<g>
</g>
</svg>
