<?xml version="1.0" encoding="iso-8859-1"?>
<!-- Generator: Adobe Illustrator 19.0.0, SVG Export Plug-In . SVG Version: 6.00 Build 0)  -->
<svg xmlns="http://www.w3.org/2000/svg" xmlns:xlink="http://www.w3.org/1999/xlink" version="1.1" id="Layer_1" x="0px" y="0px" viewBox="0 0 508 508" style="enable-background:new 0 0 508 508;" xml:space="preserve">
<circle style="fill:#324A5E;" cx="254" cy="254" r="254"/>
<path style="fill:#84DBFF;" d="M286.4,97.6v22.8c0,9.6-8,17.6-17.6,17.6h-48c-19.2,0-34.8,15.6-34.8,34.8v36.8h17.2v-36.8  c0-9.6,8-17.6,17.6-17.6h48c19.2,0,34.8-15.6,34.8-34.8V97.6C303.6,97.6,286.4,97.6,286.4,97.6z"/>
<path style="fill:#E6E9EE;" d="M416,380.4H92c-4.4,0-7.6-3.6-7.6-7.6V201.6c0-4.4,3.6-7.6,7.6-7.6h324.4c4.4,0,7.6,3.6,7.6,7.6  v171.2C424,376.8,420.4,380.4,416,380.4z"/>
<g>
	<rect x="100" y="217.2" style="fill:#ACB3BA;" width="25.6" height="25.6"/>
	<rect x="139.6" y="217.2" style="fill:#ACB3BA;" width="25.6" height="25.6"/>
	<rect x="179.2" y="217.2" style="fill:#ACB3BA;" width="25.6" height="25.6"/>
	<rect x="218.4" y="217.2" style="fill:#ACB3BA;" width="25.6" height="25.6"/>
	<rect x="258" y="217.2" style="fill:#ACB3BA;" width="25.6" height="25.6"/>
	<rect x="306" y="217.2" style="fill:#ACB3BA;" width="25.6" height="25.6"/>
	<rect x="344" y="217.2" style="fill:#ACB3BA;" width="25.6" height="25.6"/>
	<rect x="382.4" y="217.2" style="fill:#ACB3BA;" width="25.6" height="25.6"/>
	<rect x="100" y="257.6" style="fill:#ACB3BA;" width="25.6" height="25.6"/>
	<rect x="139.6" y="257.6" style="fill:#ACB3BA;" width="25.6" height="25.6"/>
	<rect x="179.2" y="257.6" style="fill:#ACB3BA;" width="25.6" height="25.6"/>
	<rect x="218.4" y="257.6" style="fill:#ACB3BA;" width="25.6" height="25.6"/>
	<rect x="258" y="257.6" style="fill:#ACB3BA;" width="25.6" height="25.6"/>
	<rect x="306" y="257.6" style="fill:#ACB3BA;" width="25.6" height="25.6"/>
	<rect x="344" y="257.6" style="fill:#ACB3BA;" width="25.6" height="25.6"/>
	<rect x="382.4" y="257.6" style="fill:#ACB3BA;" width="25.6" height="25.6"/>
	<rect x="100" y="298.4" style="fill:#ACB3BA;" width="25.6" height="25.6"/>
	<rect x="139.6" y="298.4" style="fill:#ACB3BA;" width="25.6" height="25.6"/>
	<rect x="179.2" y="298.4" style="fill:#ACB3BA;" width="25.6" height="25.6"/>
	<rect x="218.4" y="298.4" style="fill:#ACB3BA;" width="64.8" height="25.6"/>
	<rect x="306" y="298.4" style="fill:#ACB3BA;" width="25.6" height="25.6"/>
	<rect x="344" y="298.4" style="fill:#ACB3BA;" width="25.6" height="25.6"/>
	<rect x="382.4" y="298.4" style="fill:#ACB3BA;" width="25.6" height="25.6"/>
	<rect x="100" y="338.8" style="fill:#ACB3BA;" width="25.6" height="25.6"/>
	<rect x="139.6" y="338.8" style="fill:#ACB3BA;" width="104.4" height="25.6"/>
	<rect x="258" y="338.8" style="fill:#ACB3BA;" width="25.6" height="25.6"/>
	<rect x="306" y="338.8" style="fill:#ACB3BA;" width="63.6" height="25.6"/>
	<rect x="382.4" y="338.8" style="fill:#ACB3BA;" width="25.6" height="25.6"/>
</g>
<g>
</g>
<g>
</g>
<g>
</g>
<g>
</g>
<g>
</g>
<g>
</g>
<g>
</g>
<g>
</g>
<g>
</g>
<g>
</g>
<g>
</g>
<g>
</g>
<g>
</g>
<g>
</g>
<g>
</g>
</svg>
