<?xml version="1.0" encoding="iso-8859-1"?>
<!-- Generator: Adobe Illustrator 19.0.0, SVG Export Plug-In . SVG Version: 6.00 Build 0)  -->
<svg xmlns="http://www.w3.org/2000/svg" xmlns:xlink="http://www.w3.org/1999/xlink" version="1.1" id="Layer_1" x="0px" y="0px" viewBox="0 0 508 508" style="enable-background:new 0 0 508 508;" xml:space="preserve">
<circle style="fill:#FFD05B;" cx="254" cy="254" r="254"/>
<path style="fill:#324A5E;" d="M408.8,128.4v214c0,11.2-9.2,20.4-20.4,20.4H304l-50,66l-50-66.4h-84.4c-11.2,0-20.4-9.2-20.4-20.4  V128.4c0-11.2,9.2-20.4,20.4-20.4h268.8C399.6,108,408.8,117.2,408.8,128.4z"/>
<rect x="124" y="132.8" style="fill:#FFFFFF;" width="259.6" height="204.8"/>
<path style="fill:#FF7058;" d="M321.2,283.2c-12.8,24-38,28.8-67.2,28.8s-54.4-4.4-67.2-28.8c10.8-20,30-34.8,52.8-39.2l14.4,18.4  l14.4-18.4C291.2,248.4,310.8,263.2,321.2,283.2z"/>
<path style="fill:#54C0EB;" d="M286.8,204c0-1.6-0.8-3.2-1.6-4.8c0.8-2.8,1.2-6,1.2-8.8c0-17.6-14.4-32-32-32s-32,14.4-32,32  c0,2.8,0.4,5.6,1.2,8.8c-1.2,1.2-1.6,2.8-1.6,4.8c0,3.6,2.8,6.4,6,7.2c5.6,11.2,15.6,20.4,26.8,20.4c11.2,0,20.8-9.2,26.8-20.4  C284,210.8,286.8,207.6,286.8,204z"/>
<g>
</g>
<g>
</g>
<g>
</g>
<g>
</g>
<g>
</g>
<g>
</g>
<g>
</g>
<g>
</g>
<g>
</g>
<g>
</g>
<g>
</g>
<g>
</g>
<g>
</g>
<g>
</g>
<g>
</g>
</svg>
