<?xml version="1.0" encoding="iso-8859-1"?>
<!-- Generator: Adobe Illustrator 19.0.0, SVG Export Plug-In . SVG Version: 6.00 Build 0)  -->
<svg xmlns="http://www.w3.org/2000/svg" xmlns:xlink="http://www.w3.org/1999/xlink" version="1.1" id="Layer_1" x="0px" y="0px" viewBox="0 0 508 508" style="enable-background:new 0 0 508 508;" xml:space="preserve">
<circle style="fill:#FD8469;" cx="254" cy="254" r="254"/>
<path style="fill:#E6E9EE;" d="M254,402.8c-82,0-148.8-66.8-148.8-148.8S172,105.2,254,105.2S402.8,172,402.8,254  S336,402.8,254,402.8z M254,137.2c-64.4,0-116.8,52.4-116.8,116.8S189.6,370.8,254,370.8S370.8,318.4,370.8,254  S318.4,137.2,254,137.2z"/>
<g>
	<path style="fill:#FFFFFF;" d="M354.4,286.4h70.8c8.4,0,14.8-6.8,14.8-14.8v-34.8c0-8.4-6.8-14.8-14.8-14.8h-70.8   c-8.4,0-14.8,6.8-14.8,14.8v34.8C339.6,279.6,346,286.4,354.4,286.4z"/>
	<path style="fill:#FFFFFF;" d="M82.8,286.4h70.8c8.4,0,14.8-6.8,14.8-14.8v-34.8c0-8.4-6.8-14.8-14.8-14.8H82.8   c-8.4,0-14.8,6.8-14.8,14.8v34.8C67.6,279.6,74.4,286.4,82.8,286.4z"/>
	<path style="fill:#FFFFFF;" d="M221.6,354.4v70.8c0,8.4,6.8,14.8,14.8,14.8h34.8c8.4,0,14.8-6.8,14.8-14.8v-70.8   c0-8.4-6.8-14.8-14.8-14.8h-34.8C228.4,339.6,221.6,346,221.6,354.4z"/>
	<path style="fill:#FFFFFF;" d="M221.6,82.8v70.8c0,8.4,6.8,14.8,14.8,14.8h34.8c8.4,0,14.8-6.8,14.8-14.8V82.8   c0-8.4-6.8-14.8-14.8-14.8h-34.8C228.4,67.6,221.6,74.4,221.6,82.8z"/>
	<circle style="fill:#FFFFFF;" cx="254" cy="254" r="37.2"/>
</g>
<g>
</g>
<g>
</g>
<g>
</g>
<g>
</g>
<g>
</g>
<g>
</g>
<g>
</g>
<g>
</g>
<g>
</g>
<g>
</g>
<g>
</g>
<g>
</g>
<g>
</g>
<g>
</g>
<g>
</g>
</svg>
