<?xml version="1.0" encoding="iso-8859-1"?>
<!-- Generator: Adobe Illustrator 19.0.0, SVG Export Plug-In . SVG Version: 6.00 Build 0)  -->
<svg xmlns="http://www.w3.org/2000/svg" xmlns:xlink="http://www.w3.org/1999/xlink" version="1.1" id="Layer_1" x="0px" y="0px" viewBox="0 0 508 508" style="enable-background:new 0 0 508 508;" xml:space="preserve">
<circle style="fill:#FFD05B;" cx="254" cy="254" r="254"/>
<polygon style="fill:#FF7058;" points="264.4,286.4 264.4,204.8 243.6,204.8 243.6,286.4 169.6,344 181.2,363.2 254,306.4   326.8,363.2 338.4,344 "/>
<path style="fill:#324A5E;" d="M321.6,189.6c-12.8,24-38.4,28.8-67.6,28.8s-54.8-4.4-67.6-28.8c10.8-20,30-34.8,53.2-39.2l14.4,18.4  l14.4-18.4C291.6,154.8,310.8,169.6,321.6,189.6z"/>
<path style="fill:#FFFFFF;" d="M286.4,96.8c0,17.6-14.4,41.2-32.4,41.2c-17.6,0-32.4-23.6-32.4-41.2S236,64.4,254,64.4  C271.6,64.4,286.4,79.2,286.4,96.8z"/>
<path style="fill:#324A5E;" d="M286.4,96.8c0,1.2,0,2,0,3.2c-9.6-0.8-17.6-6.4-22-14c-5.6,12.8-18,21.6-32.8,21.6  c-2.8,0-5.6-0.4-8-0.8c-0.8-3.2-1.2-6.8-1.2-9.6c0-17.6,14.4-32.4,32.4-32.4C271.6,64.4,286.4,79.2,286.4,96.8z"/>
<path style="fill:#54C0EB;" d="M429.2,365.2c-12.8,24-38.4,28.8-67.6,28.8s-54.8-4.4-67.6-28.8c10.8-20,30-34.8,53.2-39.2l14.4,18.4  L376,326C399.2,330.4,418.8,345.2,429.2,365.2z"/>
<path style="fill:#FFFFFF;" d="M394,272.4c0,17.6-14.4,41.2-32.4,41.2c-17.6,0-32.4-23.6-32.4-41.2s14.4-32.4,32.4-32.4  C379.6,240.4,394,254.8,394,272.4z"/>
<path style="fill:#324A5E;" d="M394,272.4c0,1.2,0,2,0,3.2c-9.6-0.8-17.6-6.4-22-14c-5.6,12.8-18,21.6-32.8,21.6  c-2.8,0-5.6-0.4-8-0.8c-0.8-3.2-1.2-6.8-1.2-9.6c0-17.6,14.4-32.4,32.4-32.4C379.6,240.4,394,254.8,394,272.4z"/>
<path style="fill:#4CDBC4;" d="M214,365.2c-12.8,24-38.4,28.8-67.6,28.8s-54.8-4.4-67.6-28.8c10.8-20,30-34.8,53.2-39.2l14.4,18.4  l14.4-18.4C183.6,330.4,203.2,345.2,214,365.2z"/>
<path style="fill:#FFFFFF;" d="M178.4,272.4c0,17.6-14.4,41.2-32.4,41.2c-17.6,0-32.4-23.6-32.4-41.2S128,240,146,240  C164,240.4,178.4,254.8,178.4,272.4z"/>
<path style="fill:#324A5E;" d="M178.4,272.4c0,1.2,0,2,0,3.2c-9.6-0.8-17.6-6.4-22-14c-5.6,12.8-18,21.6-32.8,21.6  c-2.8,0-5.6-0.4-8-0.8c-0.8-3.2-1.2-6.8-1.2-9.6c0-17.6,14.4-32.4,32.4-32.4S178.4,254.8,178.4,272.4z"/>
<g>
</g>
<g>
</g>
<g>
</g>
<g>
</g>
<g>
</g>
<g>
</g>
<g>
</g>
<g>
</g>
<g>
</g>
<g>
</g>
<g>
</g>
<g>
</g>
<g>
</g>
<g>
</g>
<g>
</g>
</svg>
