<?xml version="1.0" encoding="iso-8859-1"?>
<!-- Generator: Adobe Illustrator 19.0.0, SVG Export Plug-In . SVG Version: 6.00 Build 0)  -->
<svg xmlns="http://www.w3.org/2000/svg" xmlns:xlink="http://www.w3.org/1999/xlink" version="1.1" id="Layer_1" x="0px" y="0px" viewBox="0 0 508 508" style="enable-background:new 0 0 508 508;" xml:space="preserve">
<circle style="fill:#FD8469;" cx="254" cy="254" r="254"/>
<path style="fill:#E6E9EE;" d="M407.6,407.6L407.6,407.6c-12,12-32,11.6-43.2-1.6l-89.2-102.4l28-28L406,364.8  C419.2,375.6,420,395.6,407.6,407.6z"/>
<path style="fill:#FFD05B;" d="M293.2,249.2l-44,44l20,20c3.2,3.2,8.4,3.2,11.6,0l32.4-32.4c3.2-3.2,3.2-8.4,0-11.6L293.2,249.2z"/>
<circle style="fill:#324A5E;" cx="205.2" cy="205.2" r="106.4"/>
<circle style="fill:#84DBFF;" cx="205.2" cy="205.2" r="82.8"/>
<path style="fill:#FF7058;" d="M266,261.6c-0.8,0.8-1.6,1.6-2.4,2.4c-32.4,32.4-84.8,32.4-117.2,0c-0.8-0.8-1.6-1.6-2.4-2.4  c11.2-14.8,27.6-25.6,46.4-29.2l14.4,18.4l14.4-18.4C238.4,236,255.2,246.8,266,261.6z"/>
<path style="fill:#FFFFFF;" d="M237.2,179.2c0,17.6-14.4,40.8-32,40.8s-32-23.2-32-40.8s14.4-32,32-32  C222.8,147.6,237.2,161.6,237.2,179.2z"/>
<path style="fill:#324A5E;" d="M237.2,179.2c0,1.2,0,2,0,3.2c-9.2-0.8-17.6-6-22-14c-5.6,12.4-18,21.2-32.4,21.2  c-2.8,0-5.6-0.4-8-0.8c-0.8-3.2-1.2-6.4-1.2-9.6c0-17.6,14.4-32,32-32S237.2,161.6,237.2,179.2z"/>
<g>
</g>
<g>
</g>
<g>
</g>
<g>
</g>
<g>
</g>
<g>
</g>
<g>
</g>
<g>
</g>
<g>
</g>
<g>
</g>
<g>
</g>
<g>
</g>
<g>
</g>
<g>
</g>
<g>
</g>
</svg>
