<?xml version="1.0" encoding="iso-8859-1"?>
<!-- Generator: Adobe Illustrator 19.0.0, SVG Export Plug-In . SVG Version: 6.00 Build 0)  -->
<svg xmlns="http://www.w3.org/2000/svg" xmlns:xlink="http://www.w3.org/1999/xlink" version="1.1" id="Layer_1" x="0px" y="0px" viewBox="0 0 508 508" style="enable-background:new 0 0 508 508;" xml:space="preserve">
<circle style="fill:#FD8469;" cx="254" cy="254" r="254"/>
<path style="fill:#84DBFF;" d="M326.8,389.2h-146c-9.6,0-17.2-7.6-17.2-17.2V136c0-9.6,7.6-17.2,17.2-17.2h146  c9.6,0,17.2,7.6,17.2,17.2v235.6C344.4,381.6,336.4,389.2,326.8,389.2z"/>
<rect x="183.6" y="154.8" style="fill:#324A5E;" width="140.8" height="174.4"/>
<rect x="228.8" y="132.8" style="fill:#54C0EB;" width="50.8" height="9.6"/>
<g>
	<path style="fill:#FFFFFF;" d="M411.6,180c-2-2-5.2-2-7.2,0s-2,5.2,0,7.2c18,18,27.6,41.6,27.6,66.8s-10,49.2-27.6,66.8   c-2,2-2,5.2,0,7.2c0.8,0.8,2.4,1.6,3.6,1.6s2.4-0.4,3.6-1.6c19.6-19.6,30.4-46,30.4-74S431.2,199.6,411.6,180z"/>
	<path style="fill:#FFFFFF;" d="M392.8,198.8c-2-2-5.2-2-7.2,0s-2,5.2,0,7.2c26.8,26.8,26.8,70,0,96.8c-2,2-2,5.2,0,7.2   c0.8,0.8,2.4,1.6,3.6,1.6s2.4-0.4,3.6-1.6C423.2,278.8,423.2,229.2,392.8,198.8z"/>
	<path style="fill:#FFFFFF;" d="M373.2,218.4c-2-2-5.2-2-7.2,0s-2,5.2,0,7.2c16,16,16,41.6,0,57.2c-2,2-2,5.2,0,7.2   c0.8,0.8,2.4,1.6,3.6,1.6s2.4-0.4,3.6-1.6C392.8,270,392.8,238,373.2,218.4z"/>
	<path style="fill:#FFFFFF;" d="M76,254c0-25.2,10-49.2,27.6-66.8c2-2,2-5.2,0-7.2s-5.2-2-7.2,0C76.8,199.6,66,226,66,254   s10.8,54.4,30.8,74c0.8,0.8,2.4,1.6,3.6,1.6s2.4-0.4,3.6-1.6c2-2,2-5.2,0-7.2C85.6,303.2,76,279.2,76,254z"/>
	<path style="fill:#FFFFFF;" d="M102.4,254c0-18.4,7.2-35.6,20-48.4c2-2,2-5.2,0-7.2s-5.2-2-7.2,0c-14.8,14.8-22.8,34.4-22.8,55.2   s8,40.4,22.8,55.2c0.8,0.8,2.4,1.6,3.6,1.6s2.4-0.4,3.6-1.6c2-2,2-5.2,0-7.2C109.2,289.6,102.4,272.4,102.4,254z"/>
	<path style="fill:#FFFFFF;" d="M142,218.4c-2-2-5.2-2-7.2,0C125.2,228,120,240.8,120,254s5.2,26,14.8,35.6c0.8,0.8,2.4,1.6,3.6,1.6   c1.2,0,2.4-0.4,3.6-1.6c2-2,2-5.2,0-7.2c-7.6-7.6-12-18-12-28.8s4.4-21.2,12-28.8C144,223.2,144,220.4,142,218.4z"/>
</g>
<g>
	<rect x="270" y="351.2" style="fill:#54C0EB;" width="35.6" height="17.6"/>
	<rect x="202" y="351.2" style="fill:#54C0EB;" width="35.6" height="17.6"/>
</g>
<polygon style="fill:#2B3B4E;" points="324.4,224.8 183.6,306.8 183.6,328.8 324.4,328.8 "/>
<g>
</g>
<g>
</g>
<g>
</g>
<g>
</g>
<g>
</g>
<g>
</g>
<g>
</g>
<g>
</g>
<g>
</g>
<g>
</g>
<g>
</g>
<g>
</g>
<g>
</g>
<g>
</g>
<g>
</g>
</svg>
