<?xml version="1.0" encoding="iso-8859-1"?>
<!-- Generator: Adobe Illustrator 19.0.0, SVG Export Plug-In . SVG Version: 6.00 Build 0)  -->
<svg xmlns="http://www.w3.org/2000/svg" xmlns:xlink="http://www.w3.org/1999/xlink" version="1.1" id="Layer_1" x="0px" y="0px" viewBox="0 0 508 508" style="enable-background:new 0 0 508 508;" xml:space="preserve">
<circle style="fill:#FFD05B;" cx="254" cy="254" r="254"/>
<path style="fill:#E6E9EE;" d="M356.8,412.8H151.2c-10,0-18.4-8.4-18.4-18.4V113.6c0-10,8.4-18.4,18.4-18.4h205.6  c10,0,18.4,8.4,18.4,18.4v280.8C375.2,404.4,366.8,412.8,356.8,412.8z"/>
<rect x="157.6" y="134.8" style="fill:#324A5E;" width="192.8" height="208.4"/>
<g>
	<circle style="fill:#ACB3BA;" cx="254" cy="378.4" r="16.8"/>
	<path style="fill:#ACB3BA;" d="M273.2,119.6h-38.4c-2,0-3.6-1.6-3.6-3.6l0,0c0-2,1.6-3.6,3.6-3.6h38.4c2,0,3.6,1.6,3.6,3.6l0,0   C276.8,118,275.2,119.6,273.2,119.6z"/>
</g>
<path style="fill:#2B3B4E;" d="M288.4,179.6c-9.6-9.6-22.4-14.4-34.8-14.4V188c6.8,0,13.6,2.4,18.8,7.6c10,10,10,26.4,0,36.8  c-10,10-26.4,10-36.8,0c-4.8-4.8-7.6-11.2-7.6-18h-22.8c0,12.4,4.8,24.4,14.4,34c18.8,18.8,49.6,18.8,68.8,0  C307.2,229.2,307.2,198.4,288.4,179.6z"/>
<g>
	<path style="fill:#FFFFFF;" d="M191.6,310.4v-18.8h4.4v15.2h8v3.6C204,310.4,191.6,310.4,191.6,310.4z"/>
	<path style="fill:#FFFFFF;" d="M222,307.6c-2,2-4.4,2.8-7.2,2.8s-5.2-0.8-7.2-2.8s-2.8-4-2.8-6.8s0.8-5.2,2.8-6.8   c2-2,4.4-2.8,7.2-2.8s5.2,0.8,7.2,2.8s2.8,4,2.8,6.8C225.2,303.6,224,306,222,307.6z M220.8,300.8c0-1.6-0.4-3.2-1.6-4.4   c-1.2-1.2-2.4-1.6-4-1.6s-2.8,0.4-4,1.6s-1.6,2.8-1.6,4.4s0.4,3.2,1.6,4.4c1.2,1.2,2.4,1.6,4,1.6s2.8-0.4,4-1.6   C220.4,304,220.8,302.4,220.8,300.8z"/>
	<path style="fill:#FFFFFF;" d="M241.6,310.4l-1.6-4h-8l-1.6,4H226l8-18.8h4l8,18.8H241.6z M236,297.2l-2.4,5.6h4.4L236,297.2z"/>
	<path style="fill:#FFFFFF;" d="M262.8,294c2,1.6,2.8,4,2.8,6.8s-0.8,5.2-2.8,6.8c-1.6,1.6-4.4,2.4-8,2.4h-6.4v-18.8h6.8   C258.4,291.6,260.8,292.4,262.8,294z M259.6,305.2c1.2-0.8,1.6-2.4,1.6-4.4s-0.4-3.2-1.6-4.4c-1.2-0.8-2.8-1.6-4.8-1.6h-2.4v11.6   h2.8C257.2,306.8,258.4,306,259.6,305.2z"/>
	<path style="fill:#FFFFFF;" d="M269.2,291.6h4.4v18.8h-4.4V291.6z"/>
	<path style="fill:#FFFFFF;" d="M291.2,291.6h4.4v18.8h-4.4l-9.2-12v12h-4v-18.8h4l9.2,12V291.6z"/>
	<path style="fill:#FFFFFF;" d="M312.4,300.8h4.4v6.8c-2,2-4.4,3.2-7.6,3.2c-2.8,0-5.2-0.8-6.8-2.8c-2-2-2.8-4-2.8-6.8   s0.8-5.2,2.8-7.2s4.4-2.8,6.8-2.8c2.8,0,5.2,0.8,7.2,2.8l-2,3.2c-0.8-0.8-1.6-1.2-2.4-1.6s-1.6-0.4-2.4-0.4c-1.6,0-2.8,0.4-4,1.6   s-1.6,2.4-1.6,4.4s0.4,3.2,1.6,4.4c1.2,1.2,2.4,1.6,3.6,1.6c1.6,0,2.8-0.4,3.6-0.8v-5.6L312.4,300.8L312.4,300.8z"/>
</g>
<g>
</g>
<g>
</g>
<g>
</g>
<g>
</g>
<g>
</g>
<g>
</g>
<g>
</g>
<g>
</g>
<g>
</g>
<g>
</g>
<g>
</g>
<g>
</g>
<g>
</g>
<g>
</g>
<g>
</g>
</svg>
