<?xml version="1.0" encoding="iso-8859-1"?>
<!-- Generator: Adobe Illustrator 19.0.0, SVG Export Plug-In . SVG Version: 6.00 Build 0)  -->
<svg xmlns="http://www.w3.org/2000/svg" xmlns:xlink="http://www.w3.org/1999/xlink" version="1.1" id="Layer_1" x="0px" y="0px" viewBox="0 0 508 508" style="enable-background:new 0 0 508 508;" xml:space="preserve">
<circle style="fill:#84DBFF;" cx="254" cy="254" r="254"/>
<path style="fill:#E6E9EE;" d="M356.4,184h18.4c5.6,0,10-4.4,10-10v-30c0-5.6-4.4-10-10-10h-18.4V184z"/>
<path style="fill:#FF7058;" d="M356.4,248.8h18.4c5.6,0,10-4.4,10-10v-30c0-5.6-4.4-10-10-10h-18.4V248.8z"/>
<path style="fill:#FFD05B;" d="M356.4,314h18.4c5.6,0,10-4.4,10-10v-30c0-5.6-4.4-10-10-10h-18.4V314z"/>
<path style="fill:#324A5E;" d="M342.8,409.6H144c-11.6,0-20.8-9.2-20.8-20.8V119.2c0-11.6,9.2-20.8,20.8-20.8h198.8  c11.6,0,20.8,9.2,20.8,20.8v269.6C363.6,400.4,354.4,409.6,342.8,409.6z"/>
<path style="fill:#2B3B4E;" d="M157.2,98.4H144c-11.2,0-20.8,9.2-20.8,20.8v270c0,11.2,9.2,20.8,20.8,20.8h13.2V98.4z"/>
<g>
	<path style="fill:#E6E9EE;" d="M266,261.6l-12,15.6l-12-15.6c-19.2,3.6-35.6,16-44.4,32.8c10.8,20,32,24,56.4,24s45.6-4,56.4-24   C301.6,277.6,285.2,265.2,266,261.6z"/>
	<path style="fill:#E6E9EE;" d="M254,251.2c14.8,0,26.8-19.6,26.8-34.4S268.8,190,254,190s-26.8,12-26.8,26.8   C227.2,231.6,239.2,251.2,254,251.2z"/>
</g>
<g>
</g>
<g>
</g>
<g>
</g>
<g>
</g>
<g>
</g>
<g>
</g>
<g>
</g>
<g>
</g>
<g>
</g>
<g>
</g>
<g>
</g>
<g>
</g>
<g>
</g>
<g>
</g>
<g>
</g>
</svg>
