<?xml version="1.0" encoding="iso-8859-1"?>
<!-- Generator: Adobe Illustrator 19.0.0, SVG Export Plug-In . SVG Version: 6.00 Build 0)  -->
<svg xmlns="http://www.w3.org/2000/svg" xmlns:xlink="http://www.w3.org/1999/xlink" version="1.1" id="Layer_1" x="0px" y="0px" viewBox="0 0 508 508" style="enable-background:new 0 0 508 508;" xml:space="preserve">
<circle style="fill:#FD8469;" cx="254" cy="254" r="254"/>
<rect x="140" y="136.8" style="fill:#324A5E;" width="227.6" height="134.8"/>
<path style="fill:#4CDBC4;" d="M128.8,153.2h250.4c4.4,0,7.6-3.6,7.6-7.6V98.8c0-4.4-3.6-7.6-7.6-7.6H128.8c-4.4,0-7.6,3.6-7.6,7.6  v46.8C121.2,150,124.8,153.2,128.8,153.2z"/>
<g>
	<path style="fill:#FFFFFF;" d="M348,136.4L348,136.4c7.6,0,14-6.4,14-14l0,0c0-7.6-6.4-14-14-14l0,0c-7.6,0-14,6.4-14,14l0,0   C334,130,340.4,136.4,348,136.4z"/>
	<path style="fill:#FFFFFF;" d="M215.2,141.6L215.2,141.6c2.4,0,4.4-2,4.4-4.4v-30c0-2.4-2-4.4-4.4-4.4l0,0c-2.4,0-4.4,2-4.4,4.4v30   C210.8,139.6,212.8,141.6,215.2,141.6z"/>
	<path style="fill:#FFFFFF;" d="M197.2,141.6L197.2,141.6c2.4,0,4.4-2,4.4-4.4v-30c0-2.4-2-4.4-4.4-4.4l0,0c-2.4,0-4.4,2-4.4,4.4v30   C192.8,139.6,194.8,141.6,197.2,141.6z"/>
	<path style="fill:#FFFFFF;" d="M179.2,141.6L179.2,141.6c2.4,0,4.4-2,4.4-4.4v-30c0-2.4-2-4.4-4.4-4.4l0,0c-2.4,0-4.4,2-4.4,4.4v30   C174.8,139.6,176.8,141.6,179.2,141.6z"/>
	<path style="fill:#FFFFFF;" d="M161.2,141.6L161.2,141.6c2.4,0,4.4-2,4.4-4.4v-30c0-2.4-2-4.4-4.4-4.4l0,0c-2.4,0-4.4,2-4.4,4.4v30   C156.8,139.6,158.8,141.6,161.2,141.6z"/>
	<path style="fill:#FFFFFF;" d="M143.2,141.6L143.2,141.6c2.4,0,4.4-2,4.4-4.4v-30c0-2.4-2-4.4-4.4-4.4l0,0c-2.4,0-4.4,2-4.4,4.4v30   C138.8,139.6,140.8,141.6,143.2,141.6z"/>
</g>
<path style="fill:#4CDBC4;" d="M128.8,235.2h250.4c4.4,0,7.6-3.6,7.6-7.6v-46.8c0-4.4-3.6-7.6-7.6-7.6H128.8c-4.4,0-7.6,3.6-7.6,7.6  v46.8C121.2,232,124.8,235.2,128.8,235.2z"/>
<g>
	<path style="fill:#FFFFFF;" d="M348,218.4L348,218.4c7.6,0,14-6.4,14-14l0,0c0-7.6-6.4-14-14-14l0,0c-7.6,0-14,6.4-14,14l0,0   C334,212,340.4,218.4,348,218.4z"/>
	<path style="fill:#FFFFFF;" d="M215.2,223.6L215.2,223.6c2.4,0,4.4-2,4.4-4.4v-30c0-2.4-2-4.4-4.4-4.4l0,0c-2.4,0-4.4,2-4.4,4.4v30   C210.8,221.6,212.8,223.6,215.2,223.6z"/>
	<path style="fill:#FFFFFF;" d="M197.2,223.6L197.2,223.6c2.4,0,4.4-2,4.4-4.4v-30c0-2.4-2-4.4-4.4-4.4l0,0c-2.4,0-4.4,2-4.4,4.4v30   C192.8,221.6,194.8,223.6,197.2,223.6z"/>
	<path style="fill:#FFFFFF;" d="M179.2,223.6L179.2,223.6c2.4,0,4.4-2,4.4-4.4v-30c0-2.4-2-4.4-4.4-4.4l0,0c-2.4,0-4.4,2-4.4,4.4v30   C174.8,221.6,176.8,223.6,179.2,223.6z"/>
	<path style="fill:#FFFFFF;" d="M161.2,223.6L161.2,223.6c2.4,0,4.4-2,4.4-4.4v-30c0-2.4-2-4.4-4.4-4.4l0,0c-2.4,0-4.4,2-4.4,4.4v30   C156.8,221.6,158.8,223.6,161.2,223.6z"/>
	<path style="fill:#FFFFFF;" d="M143.2,223.6L143.2,223.6c2.4,0,4.4-2,4.4-4.4v-30c0-2.4-2-4.4-4.4-4.4l0,0c-2.4,0-4.4,2-4.4,4.4v30   C138.8,221.6,140.8,223.6,143.2,223.6z"/>
</g>
<path style="fill:#4CDBC4;" d="M128.8,317.6h250.4c4.4,0,7.6-3.6,7.6-7.6v-47.2c0-4.4-3.6-7.6-7.6-7.6H128.8c-4.4,0-7.6,3.6-7.6,7.6  V310C121.2,314,124.8,317.6,128.8,317.6z"/>
<g>
	<path style="fill:#FFFFFF;" d="M348,300.4L348,300.4c7.6,0,14-6.4,14-14l0,0c0-7.6-6.4-14-14-14l0,0c-7.6,0-14,6.4-14,14l0,0   C334,294,340.4,300.4,348,300.4z"/>
	<path style="fill:#FFFFFF;" d="M215.2,306L215.2,306c2.4,0,4.4-2,4.4-4.4v-30c0-2.4-2-4.4-4.4-4.4l0,0c-2.4,0-4.4,2-4.4,4.4v30   C210.8,304,212.8,306,215.2,306z"/>
	<path style="fill:#FFFFFF;" d="M197.2,306L197.2,306c2.4,0,4.4-2,4.4-4.4v-30c0-2.4-2-4.4-4.4-4.4l0,0c-2.4,0-4.4,2-4.4,4.4v30   C192.8,304,194.8,306,197.2,306z"/>
	<path style="fill:#FFFFFF;" d="M179.2,306L179.2,306c2.4,0,4.4-2,4.4-4.4v-30c0-2.4-2-4.4-4.4-4.4l0,0c-2.4,0-4.4,2-4.4,4.4v30   C174.8,304,176.8,306,179.2,306z"/>
	<path style="fill:#FFFFFF;" d="M161.2,306L161.2,306c2.4,0,4.4-2,4.4-4.4v-30c0-2.4-2-4.4-4.4-4.4l0,0c-2.4,0-4.4,2-4.4,4.4v30   C156.8,304,158.8,306,161.2,306z"/>
	<path style="fill:#FFFFFF;" d="M143.2,306L143.2,306c2.4,0,4.4-2,4.4-4.4v-30c0-2.4-2-4.4-4.4-4.4l0,0c-2.4,0-4.4,2-4.4,4.4v30   C138.8,304,140.8,306,143.2,306z"/>
</g>
<g>
	<polygon style="fill:#FFD05B;" points="310.4,340.4 338.4,340.4 338.4,376.4 356,376.4 324.4,416.8 292.8,376.4 310.4,376.4  "/>
	<polygon style="fill:#FFD05B;" points="240,340.4 268,340.4 268,376.4 285.6,376.4 254,416.8 222.4,376.4 240,376.4  "/>
	<polygon style="fill:#FFD05B;" points="169.6,340.4 197.6,340.4 197.6,376.4 215.2,376.4 183.6,416.8 152,376.4 169.6,376.4  "/>
</g>
<g>
</g>
<g>
</g>
<g>
</g>
<g>
</g>
<g>
</g>
<g>
</g>
<g>
</g>
<g>
</g>
<g>
</g>
<g>
</g>
<g>
</g>
<g>
</g>
<g>
</g>
<g>
</g>
<g>
</g>
</svg>
