<?xml version="1.0" encoding="iso-8859-1"?>
<!-- Generator: Adobe Illustrator 19.0.0, SVG Export Plug-In . SVG Version: 6.00 Build 0)  -->
<svg xmlns="http://www.w3.org/2000/svg" xmlns:xlink="http://www.w3.org/1999/xlink" version="1.1" id="Layer_1" x="0px" y="0px" viewBox="0 0 508 508" style="enable-background:new 0 0 508 508;" xml:space="preserve">
<circle style="fill:#90DFAA;" cx="254" cy="254" r="254"/>
<path style="fill:#FFFFFF;" d="M328.8,160.4H252c0.8,5.2,0.4,10.8-0.8,16h70V314H182.8v-81.2c-2.8,0.8-6,1.2-9.6,1.2  c-2.4,0-4.4-0.4-6.4-0.4V322c0,4.4,3.6,8,8,8h153.6c4.4,0,8-3.6,8-8V168C336.4,164,333.2,160.4,328.8,160.4z"/>
<path style="fill:#E6E9EE;" d="M243.2,246h-128c-11.2,0-20-9.2-20-20l0,0h168l0,0C263.6,237.2,254.4,246,243.2,246z"/>
<polygon style="fill:#ACB3BA;" points="199.6,233.6 158.8,233.6 151.6,226 207.2,226 "/>
<path style="fill:#324A5E;" d="M251.6,221.2H107.2c-3.2,0-5.6-2.4-5.6-5.6v-94.8c0-3.2,2.4-5.6,5.6-5.6H252c3.2,0,5.6,2.4,5.6,5.6  v94.8C257.2,218.4,254.8,221.2,251.6,221.2z"/>
<rect x="112" y="125.6" style="fill:#84DBFF;" width="135.2" height="85.2"/>
<path style="fill:#FFFFFF;" d="M392.4,392.8h-128c-11.2,0-20-9.2-20-20l0,0h168l0,0C412.8,383.6,403.6,392.8,392.4,392.8z"/>
<polygon style="fill:#ACB3BA;" points="349.2,380.4 308.4,380.4 300.8,372.4 356.4,372.4 "/>
<path style="fill:#324A5E;" d="M400.8,367.6H256.4c-3.2,0-5.6-2.4-5.6-5.6v-94.4c0-3.2,2.4-5.6,5.6-5.6h144.8c3.2,0,5.6,2.4,5.6,5.6  V362C406.4,365.2,404,367.6,400.8,367.6z"/>
<rect x="261.2" y="272.4" style="fill:#84DBFF;" width="135.2" height="85.2"/>
<g>
</g>
<g>
</g>
<g>
</g>
<g>
</g>
<g>
</g>
<g>
</g>
<g>
</g>
<g>
</g>
<g>
</g>
<g>
</g>
<g>
</g>
<g>
</g>
<g>
</g>
<g>
</g>
<g>
</g>
</svg>
