<?xml version="1.0" encoding="iso-8859-1"?>
<!-- Generator: Adobe Illustrator 19.0.0, SVG Export Plug-In . SVG Version: 6.00 Build 0)  -->
<svg xmlns="http://www.w3.org/2000/svg" xmlns:xlink="http://www.w3.org/1999/xlink" version="1.1" id="Layer_1" x="0px" y="0px" viewBox="0 0 508 508" style="enable-background:new 0 0 508 508;" xml:space="preserve">
<circle style="fill:#324A5E;" cx="254" cy="254" r="254"/>
<circle style="fill:#CED5E0;" cx="254" cy="254" r="127.2"/>
<g>
	<path style="fill:#54C0EB;" d="M379.2,260.8c0.8,0,1.2,0.4,2,0.4C378,316,340.4,361.2,290,376c0-0.4,0.4-1.2,0.4-1.6   c0-3.2-1.6-6.4-4.4-8.4s-7.2-3.2-8.4-6.8c-1.6-4.4,2.4-8.4,4-12.4c2-4.8,0-11.2-4.4-14c-2.4-1.6-5.2-2.4-6-5.2   c-1.2-3.2,1.6-6.4,1.6-9.6s-2.4-6-5.2-7.6c-5.6-2.8-12.4-2-18.4-0.4s-12.4,4-18.4,3.2c-8.4-0.8-15.6-6.8-19.2-14.4   c-4-7.6-5.2-16-5.2-24.4c0-3.6,0-7.6,1.6-10.8c0.8-2,2-4,3.6-6c12.8-18,36-27.6,58-24.8c1.2,0,2.8,0.4,4,1.2s1.6,2.4,2.4,3.6   c2,3.2,6,5.2,10,5.2c4,0.4,8-0.4,11.6-1.2c7.2-1.6,14.4-2.8,21.6-4.4c0.8,0,1.6-0.4,2.4-0.8c0.8-0.8,0.8-2,1.2-2.8   c0.8-4.4,0.8-10.4-3.6-12c-2-0.8-4.4,0-6.8,0.8c-2,0.8-4.4,1.6-6.8,1.2c-2.4-0.4-4-3.2-3.2-5.2c0.4-0.8,1.6-1.6,2.4-2   c5.2-2.4,10.4-4.4,16-5.2c1.6-0.4,3.6-0.8,4.4-2c1.6-2.4-1.2-5.6-4-7.6c-3.2-2-6.4-3.6-9.6-4.4c-3.6-0.8-7.6,0.4-9.6,3.2   c-3.2,4.8,0,12.4-4,16.8c-3.6,4-10.8,1.6-14.8-2.4s-6.8-9.2-12-11.6c-3.2,1.6-2.8,6.4-0.4,8.8c2.4,2.4,5.6,3.6,8.8,5.2   c0.8,0.4,2,0.8,2.4,2c1.6,2.4-1.6,6-4.4,5.6c-3.2-0.4-5.2-2.8-7.2-5.2c-0.4-0.8-0.8-1.2-1.2-2c-4.4-6.4-14-6.8-18.4-0.4   c-1.6,2-2.8,4.8-4.4,6.8c-2.4,3.2-6.8,5.2-10.8,5.2s-8-2.8-9.2-6.8s1.2-8.8,4.8-10c2.4-0.8,5.6-0.4,8-0.4c2.8,0,6-2,6-4.8   s-5.2-10,0.8-10.4c4.8-0.4,10.8-1.6,12.4-6c0.4-1.2,0.8-2.4,1.6-3.2c0.8-0.8,1.6-0.8,2.4-0.8c3.6-0.4,6.8,0.4,10.4,0s7.2-2,8.4-5.2   c2.4-6.8-6.8-13.6-4.4-20.4c-5.2,2.8-7.6,10-4.8,15.2c0.8,1.6,2,3.2,1.6,4.8c-0.4,2.4-4,3.2-5.6,1.6c-2-1.6-2.4-4.4-2-6.4   c-2.4,1.6-5.6,0.4-7.2-2s-1.2-5.6,0.4-7.6c2.4-3.2,6.8-4.4,8.8-7.6c0.8-1.2,1.2-2.8,2-4c2-3.2,6-4.4,9.6-4s6.8,2.4,10.4,4   c0.4,1.6-0.4,3.2-2,3.6c2.8,2.8,7.6,0,9.2-3.6c1.2-2.8,0.8-5.6,0-8.4c-1.6-4-5.2-6.4-8-9.6c-1.6-2-3.2-4.8-3.2-7.2   c53.2,14.4,93.2,62.4,95.2,120c-2-6.4-5.2-12.4-9.2-18c-1.6-2-4.4-4.4-6.4-2.8c-0.8,0.4-1.2,1.2-1.2,2c-2,4.4-0.8,10-0.8,14.8   c0,8.4-4.4,16.8-10.8,22c-1.6,1.6-4,2.8-6.4,2c-2.8-0.8-3.6-4.4-4.4-7.2c-1.6-4.8-4-9.6-7.6-13.2c-4.4-4.8-12.4-0.8-11.6,5.2l0,0   c0.8,4,2.8,8,5.2,11.6c3.6,5.2,7.6,10.8,13.6,13.2c6.4,2.8,15.6-0.4,16.8-7.2c2,2.4,1.6,5.6,0.4,8s-3.2,4.8-5.2,6.8   c-5.6,6.8-9.2,15.2-10,24c-1.2-0.8-2.8-1.2-3.6,0c-0.8,1.2-0.8,2.4-1.2,3.6c-0.4,2.4-0.8,5.2-1.2,7.6c-0.4,2-0.4,4,0,6s2,3.6,4,4   c3.6,0.8,6-3.6,7.2-7.2c3.6-10,7.6-20,12.8-30c3.6-6.8,7.2-13.6,8.4-21.2c0.4-2.8,0.4-5.6,1.6-8.4   C372.8,263.2,375.6,260.4,379.2,260.8z"/>
	<path style="fill:#54C0EB;" d="M188.8,152.4c1.6,1.2,2,3.6,0.8,5.2c-0.8,0.8-2,1.2-2.8,2s-1.2,2.4,0,2.8c-1.6,6-5.2,11.6-10,15.2   c0.4,2,1.2,4.4,0.4,6c-0.8,2-2.8,3.6-4.8,2.8c1.6-4.8,3.2-10.8-0.8-14.4c-3.2,2.8-4,7.6-4.4,12c0,1.2-0.4,2.8-1.6,3.6   c-2.4,1.6-5.2-2.4-8-3.2s-5.2,1.6-6.8,3.6c-1.6,2.4-2.8,5.2-5.2,6.8c-1.2,0.8-2.8,1.2-4.4,0.8c8.8-16.8,20.8-31.2,35.6-42.8   c-2,2.4-3.2,4.8-4.4,7.6C178.8,162.8,186.4,158.8,188.8,152.4z"/>
	<path style="fill:#54C0EB;" d="M278,129.2c-0.4,0.4-0.4,0.4-0.8,0.8c-4.4,5.2-11.2,8-18,8.4c-5.2,0-11.2-1.2-15.2,2.4   c-2.8,2.4-3.6,6.8-6.4,9.2c-3.6,3.6-9.6,3.2-14.8,4.8c-8.4,2-15.2,8.8-23.2,12c-0.8-4,1.2-8.4,4-11.2c3.2-2.8,7.2-4.4,11.2-5.2   c2.4-0.4,4.8-0.4,6.4-1.6c3.6-2.4,4.4-7.2,4.4-11.6c0-0.4,0-1.2-0.4-1.6c-0.4-0.4-1.2-0.8-1.6-0.8c-3.6-0.8-8.8-1.2-10.8,2   c-1.6,3.2,0.8,7.2-1.2,10c-0.8,1.2-2,1.6-3.6,2.4c-3.2,1.6-6.8,2.8-10,4.4c-1.2,0.4-2.8,0.8-3.6,0c-0.8-1.2,0-2.8,0-4   c0-2.4-2.4-4.8-4.8-4.8c-0.4,0-0.8,0-1.2,0c18.8-11.2,41.2-17.6,64.8-17.6C262,126.8,270,127.6,278,129.2z"/>
	<path style="fill:#54C0EB;" d="M167.2,334c1.6,2.8-1.6,6.8-5.2,6.8c-0.4,0-0.8,0-1.2,0c-20.8-22.8-34-53.2-34-86.8   c0-4.4,0.4-8.8,0.8-13.2c0.4,0.8,0.8,1.6,0.8,2c0.4,2.4,0.4,4.8,0.4,7.2c0,12,4.8,23.6,9.6,34.8c2.4,6,5.2,12.4,9.6,17.6   c4.4,4.8,10.4,8.4,16.4,10.8c1.2,0.4,2.8,1.2,3.6,2c1.2,1.2,1.2,2.8,1.2,4.4c0.4,2.8,0.4,6.4-1.6,8c-0.8,0.8-2,1.2-2.4,2.4   C164.8,331.6,166.4,332.8,167.2,334z"/>
</g>
<path style="fill:#FF7058;" d="M257.6,299.6l-57.2,2.8c-12-23.6-36.4-40-64.8-40c-40,0-72.8,32.4-72.8,72.8  c0,40,32.4,72.8,72.8,72.8c38.8,0,70.4-30.4,72.4-68.8L257.6,299.6z"/>
<circle style="fill:#FFD05B;" cx="340.8" cy="161.2" r="72.8"/>
<circle style="fill:#FFFFFF;" cx="340.8" cy="161.2" r="60.8"/>
<path style="fill:#324A5E;" d="M380.4,189.2c-7.6,14-22.4,16.8-39.6,16.8s-32-2.8-39.6-16.8c6.4-11.6,17.6-20.4,31.2-22.8l8.4,10.8  l8.4-10.8C362.8,168.8,374,177.6,380.4,189.2z"/>
<path style="fill:#E6E9EE;" d="M359.6,134.8c0,10.4-8.4,24-18.8,24s-18.8-13.6-18.8-24s8.4-18.8,18.8-18.8S359.6,124.4,359.6,134.8z  "/>
<path style="fill:#324A5E;" d="M359.6,134.8c0,0.8,0,1.2,0,2c-5.6-0.4-10.4-3.6-12.8-8.4c-3.2,7.2-10.4,12.4-19.2,12.4  c-1.6,0-3.2,0-4.8-0.4c-0.4-2-0.8-4-0.8-5.6c0-10.4,8.4-18.8,18.8-18.8S359.6,124.4,359.6,134.8z"/>
<polygon style="fill:#FFD05B;" points="298.8,217.2 246,245.2 276.8,182.4 "/>
<circle style="fill:#FFFFFF;" cx="135.2" cy="335.2" r="60.8"/>
<path style="fill:#324A5E;" d="M174.8,363.2c-7.6,14-22.4,16.8-39.6,16.8s-32-2.8-39.6-16.8c6.4-11.6,17.6-20.4,31.2-22.8l8.4,10.8  l8.4-10.8C157.2,342.8,168.4,351.6,174.8,363.2z"/>
<path style="fill:#E6E9EE;" d="M154,309.2c0,10.4-8.4,24-18.8,24s-18.8-13.6-18.8-24s8.4-18.8,18.8-18.8S154,298.8,154,309.2z"/>
<path style="fill:#324A5E;" d="M154,309.2c0,0.8,0,1.2,0,2c-5.6-0.4-10.4-3.6-12.8-8.4c-3.2,7.2-10.8,12.4-19.2,12.4  c-1.6,0-3.2,0-4.8-0.4c-0.4-2-0.8-4-0.8-5.6c0-10.4,8.4-18.8,18.8-18.8S154,298.8,154,309.2z"/>
<g>
</g>
<g>
</g>
<g>
</g>
<g>
</g>
<g>
</g>
<g>
</g>
<g>
</g>
<g>
</g>
<g>
</g>
<g>
</g>
<g>
</g>
<g>
</g>
<g>
</g>
<g>
</g>
<g>
</g>
</svg>
