<?xml version="1.0" encoding="iso-8859-1"?>
<!-- Generator: Adobe Illustrator 19.0.0, SVG Export Plug-In . SVG Version: 6.00 Build 0)  -->
<svg xmlns="http://www.w3.org/2000/svg" xmlns:xlink="http://www.w3.org/1999/xlink" version="1.1" id="Layer_1" x="0px" y="0px" viewBox="0 0 508 508" style="enable-background:new 0 0 508 508;" xml:space="preserve">
<circle style="fill:#90DFAA;" cx="254" cy="254" r="254"/>
<path style="fill:#324A5E;" d="M393.6,159.2v-64c0-4-3.2-6.8-6.8-6.8H162.4c-2,0-3.6,0.8-4.8,2L116.4,132c-1.2,1.2-2,3.2-2,4.8v46  c0,4,3.2,6.8,6.8,6.8h0.8c4,0,6.8,3.2,6.8,6.8v54.8c0,4-3.2,6.8-6.8,6.8h-0.8c-4,0-6.8,3.2-6.8,6.8V412c0,4,3.2,6.8,6.8,6.8h265.6  c4,0,6.8-3.2,6.8-6.8V233.6c0-4-3.2-6.8-6.8-6.8l0,0c-4,0-6.8-3.2-6.8-6.8v-46.8c0-4,3.2-6.8,6.8-6.8l0,0  C390.8,166.4,393.6,163.2,393.6,159.2z"/>
<rect x="154" y="231.2" style="fill:#CED5E0;" width="201.6" height="160.8"/>
<g>
	<rect x="344.8" y="88.4" style="fill:#FFD05B;" width="21.2" height="44.8"/>
	<rect x="303.6" y="88.4" style="fill:#FFD05B;" width="21.2" height="44.8"/>
	<rect x="262.4" y="88.4" style="fill:#FFD05B;" width="21.2" height="44.8"/>
	<rect x="221.2" y="88.4" style="fill:#FFD05B;" width="21.2" height="44.8"/>
	<rect x="180.8" y="88.4" style="fill:#FFD05B;" width="21.2" height="44.8"/>
</g>
<g>
	<path style="fill:#ACB3BA;" d="M326,263.6H184c-2,0-3.6-1.6-3.6-3.6l0,0c0-2,1.6-3.6,3.6-3.6h142c2,0,3.6,1.6,3.6,3.6l0,0   C329.6,262,328,263.6,326,263.6z"/>
	<path style="fill:#ACB3BA;" d="M326,289.6H184c-2,0-3.6-1.6-3.6-3.6l0,0c0-2,1.6-3.6,3.6-3.6h142c2,0,3.6,1.6,3.6,3.6l0,0   C329.6,288,328,289.6,326,289.6z"/>
	<path style="fill:#ACB3BA;" d="M326,315.2H184c-2,0-3.6-1.6-3.6-3.6l0,0c0-2,1.6-3.6,3.6-3.6h142c2,0,3.6,1.6,3.6,3.6l0,0   C329.6,313.6,328,315.2,326,315.2z"/>
	<path style="fill:#ACB3BA;" d="M326,340.8H184c-2,0-3.6-1.6-3.6-3.6l0,0c0-2,1.6-3.6,3.6-3.6h142c2,0,3.6,1.6,3.6,3.6l0,0   C329.6,339.2,328,340.8,326,340.8z"/>
	<path style="fill:#ACB3BA;" d="M326,366.4H184c-2,0-3.6-1.6-3.6-3.6l0,0c0-2,1.6-3.6,3.6-3.6h142c2,0,3.6,1.6,3.6,3.6l0,0   C329.6,364.8,328,366.4,326,366.4z"/>
</g>
<g>
</g>
<g>
</g>
<g>
</g>
<g>
</g>
<g>
</g>
<g>
</g>
<g>
</g>
<g>
</g>
<g>
</g>
<g>
</g>
<g>
</g>
<g>
</g>
<g>
</g>
<g>
</g>
<g>
</g>
</svg>
