<?xml version="1.0" encoding="iso-8859-1"?>
<!-- Generator: Adobe Illustrator 19.0.0, SVG Export Plug-In . SVG Version: 6.00 Build 0)  -->
<svg xmlns="http://www.w3.org/2000/svg" xmlns:xlink="http://www.w3.org/1999/xlink" version="1.1" id="Layer_1" x="0px" y="0px" viewBox="0 0 508 508" style="enable-background:new 0 0 508 508;" xml:space="preserve">
<circle style="fill:#FD8469;" cx="254" cy="254" r="254"/>
<path style="fill:#F9B54C;" d="M218.8,162.8L208,150c-3.2-3.6-7.6-6-12.4-6h-72.8c-8.8,0-16,7.2-16,16v224.4c0,8.8,7.2,16,16,16  h259.6c8.8,0,16-7.2,16-16V184.8c0-8.8-7.2-16-16-16H231.2C226.4,168.8,221.6,166.4,218.8,162.8z"/>
<polygon style="fill:#FFFFFF;" points="127.2,303.6 168.8,125.6 224.8,138.8 238,82.8 378,116 322.8,350 "/>
<polygon style="fill:#E6E9EE;" points="238,82.8 224.8,138.8 168.8,125.6 "/>
<path style="fill:#FFD05B;" d="M420.4,223.2L400,386.4c-0.8,7.6-8.8,14-18,14H122.8c-8.8,0-16.8-6.4-18-14L87.6,247.2  c-1.2-9.6,6-18,16.4-18h97.2c3.2,0,6.4-0.8,9.2-2.4l34.4-19.6c2.8-1.6,6-2.4,9.2-2.4h150C414.4,204.8,421.6,213.2,420.4,223.2z"/>
<g>
</g>
<g>
</g>
<g>
</g>
<g>
</g>
<g>
</g>
<g>
</g>
<g>
</g>
<g>
</g>
<g>
</g>
<g>
</g>
<g>
</g>
<g>
</g>
<g>
</g>
<g>
</g>
<g>
</g>
</svg>
