<?xml version="1.0" encoding="iso-8859-1"?>
<!-- Generator: Adobe Illustrator 19.0.0, SVG Export Plug-In . SVG Version: 6.00 Build 0)  -->
<svg xmlns="http://www.w3.org/2000/svg" xmlns:xlink="http://www.w3.org/1999/xlink" version="1.1" id="Layer_1" x="0px" y="0px" viewBox="0 0 508 508" style="enable-background:new 0 0 508 508;" xml:space="preserve">
<circle style="fill:#84DBFF;" cx="254" cy="254" r="254"/>
<path style="fill:#54C0EB;" d="M37.2,386C81.6,459.2,162,508,254,508s172.4-48.8,216.8-122H37.2z"/>
<path style="fill:#E6E9EE;" d="M374.8,386H133.2c-21.2,0-38-17.2-38-38l0,0h317.6l0,0C412.8,369.2,395.6,386,374.8,386z"/>
<polygon style="fill:#ACB3BA;" points="292.4,362.4 215.6,362.4 201.6,348 306.4,348 "/>
<path style="fill:#324A5E;" d="M390.4,326.4H117.6c-6,0-10.4-4.8-10.4-10.4V137.2c0-6,4.8-10.4,10.4-10.4h272.8  c6,0,10.4,4.8,10.4,10.4V316C401.2,321.6,396.4,326.4,390.4,326.4z"/>
<rect x="126.4" y="146" style="fill:#E6E9EE;" width="254.8" height="160.8"/>
<g>
	<path style="fill:#ACB3BA;" d="M340.8,219.6V214l-7.2-1.2c-0.4-3.2-0.8-6-1.6-8.8l6.4-4l-2-5.2l-7.2,1.6c-1.6-2.8-3.2-5.2-5.2-7.6   l4.4-6l-4-4l-6.4,4.8c-2.4-2-4.8-3.6-7.6-5.2l1.6-7.2l-5.2-2l-4,6.4c-2.8-0.8-6-1.6-8.8-1.6l-1.2-7.2h-5.6L286,174   c-3.2,0.4-6,0.8-8.8,1.6l-4-6.4l-5.2,2l1.6,7.2c-2.8,1.6-5.2,3.2-7.6,5.2l-6-4.4l-4,4l4.4,6c-2,2.4-3.6,4.8-5.2,7.6l-7.2-1.6   l-2,5.2l6.4,4c-0.8,2.8-1.6,6-1.6,8.8l-7.2,0.8v5.6l7.6,1.2c0.4,3.2,0.8,6,1.6,8.8l-6.4,4l2,5.2l7.2-1.6c1.6,2.8,3.2,5.2,5.2,7.6   l-4.4,6l4,4l6-4.4c2.4,2,4.8,3.6,7.6,5.2l-1.6,7.2l5.2,2l4-6.4c2.8,0.8,6,1.6,8.8,1.6l1.2,7.6h5.6l1.2-7.6c3.2-0.4,6-0.8,8.8-1.6   l4,6.4l5.2-2l-1.6-7.2c2.8-1.6,5.2-3.2,7.6-5.2l6,4.4l4-4l-4.4-6c2-2.4,3.6-4.8,5.2-7.6l7.2,1.6l2-5.2l-6.4-4   c0.8-2.8,1.6-6,1.6-8.8L340.8,219.6z M290.4,244c-15.2,0-27.2-12.4-27.2-27.2c0-15.2,12.4-27.2,27.2-27.2   c15.2,0,27.2,12.4,27.2,27.2C317.6,232,305.6,244,290.4,244z"/>
	<path style="fill:#ACB3BA;" d="M244.4,246l-0.4-4.4l-5.6-0.4c-0.4-2.4-1.2-4.4-2-6.8l4.4-3.6l-2-3.6l-5.2,2c-1.2-2-2.8-3.6-4.4-5.2   l2.8-4.8l-3.2-2.8l-4.4,4c-2-1.2-4-2.4-6-3.2l0.8-5.6l-4-1.2l-2.4,5.2c-2.4-0.4-4.4-0.8-6.8-0.8l-1.6-5.6l-4.4,0.4l-0.4,5.6   c-2.4,0.4-4.4,1.2-6.8,2l-3.6-4.4l-3.6,2l2,5.2c-2,1.2-3.6,2.8-5.2,4.4l-5.2-2.4l-2.8,3.2l4,4.4c-1.2,2-2.4,4-3.2,6l-5.6-0.8   l-1.2,4l5.2,2.4c-0.4,2.4-0.8,4.4-0.8,6.8l-5.6,2l0.4,4.4l5.6,0.4c0.4,2.4,1.2,4.4,2,6.8l-4.4,3.6l2,4l5.2-2c1.2,2,2.8,3.6,4.4,5.2   l-2.8,4.8l3.2,2.8l4.4-4c2,1.2,4,2.4,6,3.2l-0.8,5.6l4,1.2l2.4-5.2c2.4,0.4,4.4,0.8,6.8,0.4l1.6,5.6l4.4-0.4l0.4-5.6   c2.4-0.4,4.4-1.2,6.8-2l3.6,4.4l4-2l-2-5.6c2-1.2,3.6-2.8,5.2-4.4l5.2,2.8l2.8-3.2l-4-4.4c1.2-2,2.4-4,3.2-6.4l5.6,0.8l1.2-4   l-5.2-2.4c0.4-2.4,0.8-4.4,0.8-6.8L244.4,246z M207.6,264.8c-9.2,0.8-17.6-5.6-18.8-14.8c-0.8-9.2,5.6-17.6,14.8-18.8   c9.2-0.8,17.6,5.6,18.8,14.8S216.8,263.6,207.6,264.8z"/>
</g>
<g>
</g>
<g>
</g>
<g>
</g>
<g>
</g>
<g>
</g>
<g>
</g>
<g>
</g>
<g>
</g>
<g>
</g>
<g>
</g>
<g>
</g>
<g>
</g>
<g>
</g>
<g>
</g>
<g>
</g>
</svg>
