<?xml version="1.0" encoding="iso-8859-1"?>
<!-- Generator: Adobe Illustrator 19.0.0, SVG Export Plug-In . SVG Version: 6.00 Build 0)  -->
<svg xmlns="http://www.w3.org/2000/svg" xmlns:xlink="http://www.w3.org/1999/xlink" version="1.1" id="Layer_1" x="0px" y="0px" viewBox="0 0 508 508" style="enable-background:new 0 0 508 508;" xml:space="preserve">
<circle style="fill:#84DBFF;" cx="254" cy="254" r="254"/>
<path style="fill:#54C0EB;" d="M27.2,368.4C69.2,451.2,154.8,508,254,508s185.2-56.8,226.8-139.6H27.2z"/>
<g>
	<path style="fill:#324A5E;" d="M331.6,273.6h-36l6.8-156.4c0.4-6,5.2-10.8,11.6-10.8l0,0c6,0,11.2,4.8,11.6,10.8L331.6,273.6z"/>
	<path style="fill:#324A5E;" d="M404,348.4h-43.6v12.4c0,4,3.2,7.6,7.6,7.6h28.4c4,0,7.6-3.2,7.6-7.6V348.4z"/>
	<path style="fill:#324A5E;" d="M147.6,348.4H104v12.4c0,4,3.2,7.6,7.6,7.6H140c4,0,7.6-3.2,7.6-7.6V348.4z"/>
</g>
<path style="fill:#E6E9EE;" d="M414.4,352.8H93.6c-8,0-14.8-6.4-14.8-14.8v-68.8c0-8,6.4-14.8,14.8-14.8H414c8,0,14.8,6.4,14.8,14.8  V338C428.8,346.4,422.4,352.8,414.4,352.8z"/>
<g>
	<rect x="94.8" y="333.2" style="fill:#ACB3BA;" width="318.4" height="6.8"/>
	<rect x="94.8" y="316" style="fill:#ACB3BA;" width="318.4" height="6.8"/>
</g>
<circle style="fill:#FF7058;" cx="109.6" cy="284.4" r="14.8"/>
<circle style="fill:#4CDBC4;" cx="156.4" cy="284.4" r="14.8"/>
<circle style="fill:#FFD05B;" cx="203.6" cy="284.4" r="14.8"/>
<g>
</g>
<g>
</g>
<g>
</g>
<g>
</g>
<g>
</g>
<g>
</g>
<g>
</g>
<g>
</g>
<g>
</g>
<g>
</g>
<g>
</g>
<g>
</g>
<g>
</g>
<g>
</g>
<g>
</g>
</svg>
