<?xml version="1.0" encoding="iso-8859-1"?>
<!-- Generator: Adobe Illustrator 19.0.0, SVG Export Plug-In . SVG Version: 6.00 Build 0)  -->
<svg xmlns="http://www.w3.org/2000/svg" xmlns:xlink="http://www.w3.org/1999/xlink" version="1.1" id="Layer_1" x="0px" y="0px" viewBox="0 0 508 508" style="enable-background:new 0 0 508 508;" xml:space="preserve">
<circle style="fill:#324A5E;" cx="254" cy="254" r="254"/>
<path style="fill:#FFD05B;" d="M283.2,329.2v-38.4c0-0.4,0-0.8,0-1.2c0.4-9.6,5.2-18.4,12.4-24c-3.6-4-5.6-9.2-5.6-14.8  c0-2,0.4-4.4,0.8-6c-16.4,8.4-28,25.2-28.4,44.8c0,0.4,0,0.8,0,1.2v38.4H283.2z"/>
<path style="fill:#FFFFFF;" d="M364.4,167.2c0-1.2,0-2.8,0-4c0-27.6-22.4-50.4-50.4-50.4c-12,0-22.8,4-31.6,11.2  c-12.4-24.4-38-40.8-67.2-40.8c-41.6,0-75.6,34-75.6,75.6c0,2.8,0,5.6,0.4,8.4c-31.2,2.8-55.6,29.2-55.6,60.8  c0,34,27.6,61.2,61.2,61.2h215.2c34,0,61.2-27.6,61.2-61.2C422.8,195.2,396.8,168.8,364.4,167.2z M312.8,273.2  c-12.4,0-22.8-10-22.8-22.8c0-12.4,10-22.8,22.8-22.8c12.4,0,22.8,10,22.8,22.8C335.2,263.2,325.2,273.2,312.8,273.2z"/>
<path style="fill:#FFD05B;" d="M314.4,259.6c6,0,11.6,1.6,16.4,4.8c8.4,5.2,14,14.8,14.4,25.2c0,0.4,0,0.8,0,1.2v38.4h20.4v-38.4  c0-0.4,0-0.8,0-1.2c-0.4-20.8-13.6-38.8-32-46.4c-6-2.4-12.8-4-19.6-4c-8.4,0-16.4,2-23.2,5.6c-0.4,2-0.8,4-0.8,6  c0,5.6,2,10.8,5.6,14.8C300.8,261.6,307.2,259.6,314.4,259.6z"/>
<path style="fill:#FF7058;" d="M378,424.8H250.4c-4,0-6.8-3.2-6.8-6.8v-88c0-4,3.2-6.8,6.8-6.8H378c4,0,6.8,3.2,6.8,6.8v88  C384.8,421.6,382,424.8,378,424.8z"/>
<g>
</g>
<g>
</g>
<g>
</g>
<g>
</g>
<g>
</g>
<g>
</g>
<g>
</g>
<g>
</g>
<g>
</g>
<g>
</g>
<g>
</g>
<g>
</g>
<g>
</g>
<g>
</g>
<g>
</g>
</svg>
