<?xml version="1.0" encoding="iso-8859-1"?>
<!-- Generator: Adobe Illustrator 19.0.0, SVG Export Plug-In . SVG Version: 6.00 Build 0)  -->
<svg xmlns="http://www.w3.org/2000/svg" xmlns:xlink="http://www.w3.org/1999/xlink" version="1.1" id="Layer_1" x="0px" y="0px" viewBox="0 0 508 508" style="enable-background:new 0 0 508 508;" xml:space="preserve">
<circle style="fill:#90DFAA;" cx="254" cy="254" r="254"/>
<g>
	<path style="fill:#FF7058;" d="M254,372.4c-30.4,0-57.2-15.2-73.2-38.8c-2.4,2.4-5.2,4.8-8.4,6.4c17.6,26,47.6,43.2,81.6,43.2   c32,0,60.8-15.2,79.2-39.2c-3.6-1.6-6.4-3.6-8.8-6C308,358.8,282.4,372.4,254,372.4z"/>
	<path style="fill:#FF7058;" d="M254,184.4c-54,0-98.4,43.6-99.2,97.2c1.6,0,2.8-0.4,4.4-0.4c2,0,4,0.4,6,0.4   c0.8-48,40.4-87.2,88.8-87.2c48.8,0,88.8,40,88.8,88.8c0,0.4,0,0.8,0,1.6c0.8,0,1.6,0,2.4,0c2.8,0,5.6,0.4,8,0.8c0-0.8,0-1.6,0-2.4   C353.2,228.8,308.8,184.4,254,184.4z"/>
</g>
<path style="fill:#324A5E;" d="M321.6,190.8c-12.8,24-38.4,28.8-67.6,28.8s-54.8-4.4-67.6-28.8c10.8-20,30-34.8,53.2-39.2L254,170  l14.4-18.4C291.6,155.6,310.8,170.4,321.6,190.8z"/>
<path style="fill:#E6E9EE;" d="M286.4,97.6c0,17.6-14.4,41.2-32.4,41.2s-32.4-23.6-32.4-41.2S236,65.2,254,65.2S286.4,80,286.4,97.6  z"/>
<g>
	<path style="fill:#324A5E;" d="M286.4,97.6c0,1.2,0,2,0,3.2c-9.6-0.8-17.6-6.4-22-14c-5.6,12.8-18,21.6-32.8,21.6   c-2.8,0-5.6-0.4-8-0.8c-0.8-3.2-1.2-6.8-1.2-9.6c0-17.6,14.4-32.4,32.4-32.4S286.4,80,286.4,97.6z"/>
	<path style="fill:#324A5E;" d="M408.8,351.6c-12.8,24-38.4,28.8-67.6,28.8s-54.8-4.4-67.6-28.8c10.8-20,30-34.8,53.2-39.2   l14.4,18.4l14.4-18.4C378.8,316.8,398,331.6,408.8,351.6z"/>
</g>
<path style="fill:#E6E9EE;" d="M373.2,258.8c0,17.6-14.4,41.2-32.4,41.2c-17.6,0-32.4-23.6-32.4-41.2s14.4-32.4,32.4-32.4  C358.8,226.8,373.2,241.2,373.2,258.8z"/>
<g>
	<path style="fill:#324A5E;" d="M373.2,258.8c0,1.2,0,2,0,3.2c-9.6-0.8-17.6-6.4-22-14c-5.6,12.8-18,21.6-32.8,21.6   c-2.8,0-5.6-0.4-8-0.8c-0.8-3.2-1.2-6.8-1.2-9.6c0-17.6,14.4-32.4,32.4-32.4C358.8,226.8,373.2,241.2,373.2,258.8z"/>
	<path style="fill:#324A5E;" d="M234.4,351.6c-12.8,24-38.4,28.8-67.6,28.8S112,376,99.2,351.6c10.8-20,30-34.8,53.2-39.2l14.4,18.4   l14.4-18.4C204.4,316.8,223.6,331.6,234.4,351.6z"/>
</g>
<path style="fill:#E6E9EE;" d="M199.2,258.8c0,17.6-14.4,41.2-32.4,41.2c-17.6,0-32.4-23.6-32.4-41.2s14.4-32.4,32.4-32.4  C184.8,226.8,199.2,241.2,199.2,258.8z"/>
<path style="fill:#324A5E;" d="M199.2,258.8c0,1.2,0,2,0,3.2c-9.6-0.8-17.6-6.4-22-14c-5.6,12.8-18,21.6-32.8,21.6  c-2.8,0-5.6-0.4-8-0.8c-0.8-3.2-1.2-6.8-1.2-9.6c0-17.6,14.4-32.4,32.4-32.4S199.2,241.2,199.2,258.8z"/>
<g>
</g>
<g>
</g>
<g>
</g>
<g>
</g>
<g>
</g>
<g>
</g>
<g>
</g>
<g>
</g>
<g>
</g>
<g>
</g>
<g>
</g>
<g>
</g>
<g>
</g>
<g>
</g>
<g>
</g>
</svg>
