<?xml version="1.0" encoding="iso-8859-1"?>
<!-- Generator: Adobe Illustrator 19.0.0, SVG Export Plug-In . SVG Version: 6.00 Build 0)  -->
<svg xmlns="http://www.w3.org/2000/svg" xmlns:xlink="http://www.w3.org/1999/xlink" version="1.1" id="Layer_1" x="0px" y="0px" viewBox="0 0 508 508" style="enable-background:new 0 0 508 508;" xml:space="preserve">
<circle style="fill:#FFD05B;" cx="254" cy="254" r="254"/>
<rect x="131.2" y="155.6" style="fill:#324A5E;" width="232" height="201.6"/>
<g>
	<path style="fill:#E6E9EE;" d="M386.4,196H108c-6.4,0-12-5.2-12-12v-56c0-6.4,5.2-12,12-12h278.4c6.4,0,12,5.2,12,12v56   C398,190.8,392.8,196,386.4,196z"/>
	<path style="fill:#E6E9EE;" d="M386.4,296.4H108c-6.4,0-12-5.2-12-12v-56c0-6.4,5.2-12,12-12h278.4c6.4,0,12,5.2,12,12v56   C398,290.8,392.8,296.4,386.4,296.4z"/>
	<path style="fill:#E6E9EE;" d="M386.4,396.4H108c-6.4,0-12-5.2-12-12v-56c0-6.4,5.2-12,12-12h278.4c6.4,0,12,5.2,12,12v56   C398,391.2,392.8,396.4,386.4,396.4z"/>
</g>
<g>
	<path style="fill:#ACB3BA;" d="M126,149.6L126,149.6c-4.8,0-8.4-4-8.4-8.4l0,0c0-4.8,4-8.4,8.4-8.4l0,0c4.8,0,8.4,4,8.4,8.4l0,0   C134.8,145.6,130.8,149.6,126,149.6z"/>
	<path style="fill:#ACB3BA;" d="M126,180L126,180c-4.8,0-8.4-4-8.4-8.4l0,0c0-4.8,4-8.4,8.4-8.4l0,0c4.8,0,8.4,4,8.4,8.4l0,0   C134.8,176,130.8,180,126,180z"/>
	<path style="fill:#ACB3BA;" d="M154.4,149.6L154.4,149.6c-4.8,0-8.4-4-8.4-8.4l0,0c0-4.8,4-8.4,8.4-8.4l0,0c4.8,0,8.4,4,8.4,8.4   l0,0C163.2,145.6,159.2,149.6,154.4,149.6z"/>
	<path style="fill:#ACB3BA;" d="M154.4,180L154.4,180c-4.8,0-8.4-4-8.4-8.4l0,0c0-4.8,4-8.4,8.4-8.4l0,0c4.8,0,8.4,4,8.4,8.4l0,0   C163.2,176,159.2,180,154.4,180z"/>
	<path style="fill:#ACB3BA;" d="M182.8,149.6L182.8,149.6c-4.8,0-8.4-4-8.4-8.4l0,0c0-4.8,4-8.4,8.4-8.4l0,0c4.8,0,8.4,4,8.4,8.4   l0,0C191.6,145.6,187.6,149.6,182.8,149.6z"/>
	<path style="fill:#ACB3BA;" d="M182.8,180L182.8,180c-4.8,0-8.4-4-8.4-8.4l0,0c0-4.8,4-8.4,8.4-8.4l0,0c4.8,0,8.4,4,8.4,8.4l0,0   C191.6,176,187.6,180,182.8,180z"/>
	<rect x="280.4" y="136" style="fill:#ACB3BA;" width="97.6" height="5.2"/>
	<rect x="280.4" y="147.6" style="fill:#ACB3BA;" width="97.6" height="5.2"/>
	<rect x="280.4" y="159.6" style="fill:#ACB3BA;" width="97.6" height="5.2"/>
	<rect x="280.4" y="171.2" style="fill:#ACB3BA;" width="97.6" height="5.2"/>
</g>
<circle style="fill:#FF7058;" cx="230.4" cy="156" r="12"/>
<g>
	<path style="fill:#ACB3BA;" d="M126,249.6L126,249.6c-4.8,0-8.4-4-8.4-8.4l0,0c0-4.8,4-8.4,8.4-8.4l0,0c4.8,0,8.4,4,8.4,8.4l0,0   C134.8,246,130.8,249.6,126,249.6z"/>
	<path style="fill:#ACB3BA;" d="M126,280L126,280c-4.8,0-8.4-4-8.4-8.4l0,0c0-4.8,4-8.4,8.4-8.4l0,0c4.8,0,8.4,4,8.4,8.4l0,0   C134.8,276,130.8,280,126,280z"/>
	<path style="fill:#ACB3BA;" d="M154.4,249.6L154.4,249.6c-4.8,0-8.4-4-8.4-8.4l0,0c0-4.8,4-8.4,8.4-8.4l0,0c4.8,0,8.4,4,8.4,8.4   l0,0C163.2,246,159.2,249.6,154.4,249.6z"/>
	<path style="fill:#ACB3BA;" d="M154.4,280L154.4,280c-4.8,0-8.4-4-8.4-8.4l0,0c0-4.8,4-8.4,8.4-8.4l0,0c4.8,0,8.4,4,8.4,8.4l0,0   C163.2,276,159.2,280,154.4,280z"/>
	<path style="fill:#ACB3BA;" d="M182.8,249.6L182.8,249.6c-4.8,0-8.4-4-8.4-8.4l0,0c0-4.8,4-8.4,8.4-8.4l0,0c4.8,0,8.4,4,8.4,8.4   l0,0C191.6,246,187.6,249.6,182.8,249.6z"/>
	<path style="fill:#ACB3BA;" d="M182.8,280L182.8,280c-4.8,0-8.4-4-8.4-8.4l0,0c0-4.8,4-8.4,8.4-8.4l0,0c4.8,0,8.4,4,8.4,8.4l0,0   C191.6,276,187.6,280,182.8,280z"/>
	<rect x="280.4" y="236" style="fill:#ACB3BA;" width="97.6" height="5.2"/>
	<rect x="280.4" y="248" style="fill:#ACB3BA;" width="97.6" height="5.2"/>
	<rect x="280.4" y="259.6" style="fill:#ACB3BA;" width="97.6" height="5.2"/>
	<rect x="280.4" y="271.6" style="fill:#ACB3BA;" width="97.6" height="5.2"/>
</g>
<circle style="fill:#FFD05B;" cx="230.4" cy="256.4" r="12"/>
<g>
	<path style="fill:#ACB3BA;" d="M126,349.6L126,349.6c-4.8,0-8.4-4-8.4-8.4l0,0c0-4.8,4-8.4,8.4-8.4l0,0c4.8,0,8.4,4,8.4,8.4l0,0   C134.8,346,130.8,349.6,126,349.6z"/>
	<path style="fill:#ACB3BA;" d="M126,380L126,380c-4.8,0-8.4-4-8.4-8.4l0,0c0-4.8,4-8.4,8.4-8.4l0,0c4.8,0,8.4,4,8.4,8.4l0,0   C134.8,376.4,130.8,380,126,380z"/>
	<path style="fill:#ACB3BA;" d="M154.4,349.6L154.4,349.6c-4.8,0-8.4-4-8.4-8.4l0,0c0-4.8,4-8.4,8.4-8.4l0,0c4.8,0,8.4,4,8.4,8.4   l0,0C163.2,346,159.2,349.6,154.4,349.6z"/>
	<path style="fill:#ACB3BA;" d="M154.4,380L154.4,380c-4.8,0-8.4-4-8.4-8.4l0,0c0-4.8,4-8.4,8.4-8.4l0,0c4.8,0,8.4,4,8.4,8.4l0,0   C163.2,376.4,159.2,380,154.4,380z"/>
	<path style="fill:#ACB3BA;" d="M182.8,349.6L182.8,349.6c-4.8,0-8.4-4-8.4-8.4l0,0c0-4.8,4-8.4,8.4-8.4l0,0c4.8,0,8.4,4,8.4,8.4   l0,0C191.6,346,187.6,349.6,182.8,349.6z"/>
	<path style="fill:#ACB3BA;" d="M182.8,380L182.8,380c-4.8,0-8.4-4-8.4-8.4l0,0c0-4.8,4-8.4,8.4-8.4l0,0c4.8,0,8.4,4,8.4,8.4l0,0   C191.6,376.4,187.6,380,182.8,380z"/>
	<rect x="280.4" y="336" style="fill:#ACB3BA;" width="97.6" height="5.2"/>
	<rect x="280.4" y="348" style="fill:#ACB3BA;" width="97.6" height="5.2"/>
	<rect x="280.4" y="359.6" style="fill:#ACB3BA;" width="97.6" height="5.2"/>
	<rect x="280.4" y="371.6" style="fill:#ACB3BA;" width="97.6" height="5.2"/>
</g>
<circle style="fill:#4CDBC4;" cx="230.4" cy="356.4" r="12"/>
<circle style="fill:#FF7058;" cx="336.8" cy="355.2" r="75.2"/>
<rect x="290.8" y="344.4" style="fill:#FFFFFF;" width="91.6" height="21.2"/>
<g>
</g>
<g>
</g>
<g>
</g>
<g>
</g>
<g>
</g>
<g>
</g>
<g>
</g>
<g>
</g>
<g>
</g>
<g>
</g>
<g>
</g>
<g>
</g>
<g>
</g>
<g>
</g>
<g>
</g>
</svg>
