<?xml version="1.0" encoding="iso-8859-1"?>
<!-- Generator: Adobe Illustrator 19.0.0, SVG Export Plug-In . SVG Version: 6.00 Build 0)  -->
<svg xmlns="http://www.w3.org/2000/svg" xmlns:xlink="http://www.w3.org/1999/xlink" version="1.1" id="Layer_1" x="0px" y="0px" viewBox="0 0 508 508" style="enable-background:new 0 0 508 508;" xml:space="preserve">
<circle style="fill:#FD8469;" cx="254" cy="254" r="254"/>
<rect x="138" y="153.2" style="fill:#324A5E;" width="232" height="201.6"/>
<g>
	<path style="fill:#E6E9EE;" d="M393.2,193.6H114.8c-6.4,0-12-5.2-12-12v-56c0-6.4,5.2-12,12-12h278.4c6.4,0,12,5.2,12,12v56   C404.8,188.4,399.6,193.6,393.2,193.6z"/>
	<path style="fill:#E6E9EE;" d="M393.2,294H114.8c-6.4,0-12-5.2-12-12v-56c0-6.4,5.2-12,12-12h278.4c6.4,0,12,5.2,12,12v56   C404.8,288.8,399.6,294,393.2,294z"/>
	<path style="fill:#E6E9EE;" d="M393.2,394H114.8c-6.4,0-12-5.2-12-12v-56c0-6.4,5.2-12,12-12h278.4c6.4,0,12,5.2,12,12v56   C404.8,388.8,399.6,394,393.2,394z"/>
</g>
<g>
	<path style="fill:#ACB3BA;" d="M133.2,147.2L133.2,147.2c-4.8,0-8.4-4-8.4-8.4l0,0c0-4.8,4-8.4,8.4-8.4l0,0c4.8,0,8.4,4,8.4,8.4   l0,0C141.6,143.6,138,147.2,133.2,147.2z"/>
	<path style="fill:#ACB3BA;" d="M133.2,177.6L133.2,177.6c-4.8,0-8.4-4-8.4-8.4l0,0c0-4.8,4-8.4,8.4-8.4l0,0c4.8,0,8.4,4,8.4,8.4   l0,0C141.6,173.6,138,177.6,133.2,177.6z"/>
	<path style="fill:#ACB3BA;" d="M161.6,147.2L161.6,147.2c-4.8,0-8.4-4-8.4-8.4l0,0c0-4.8,4-8.4,8.4-8.4l0,0c4.8,0,8.4,4,8.4,8.4   l0,0C170,143.6,166,147.2,161.6,147.2z"/>
	<path style="fill:#ACB3BA;" d="M161.6,177.6L161.6,177.6c-4.8,0-8.4-4-8.4-8.4l0,0c0-4.8,4-8.4,8.4-8.4l0,0c4.8,0,8.4,4,8.4,8.4   l0,0C170,173.6,166,177.6,161.6,177.6z"/>
	<path style="fill:#ACB3BA;" d="M189.6,147.2L189.6,147.2c-4.8,0-8.4-4-8.4-8.4l0,0c0-4.8,4-8.4,8.4-8.4l0,0c4.8,0,8.4,4,8.4,8.4   l0,0C198.4,143.6,194.4,147.2,189.6,147.2z"/>
	<path style="fill:#ACB3BA;" d="M189.6,177.6L189.6,177.6c-4.8,0-8.4-4-8.4-8.4l0,0c0-4.8,4-8.4,8.4-8.4l0,0c4.8,0,8.4,4,8.4,8.4   l0,0C198.4,173.6,194.4,177.6,189.6,177.6z"/>
	<rect x="287.2" y="133.6" style="fill:#ACB3BA;" width="97.6" height="5.2"/>
	<rect x="287.2" y="145.2" style="fill:#ACB3BA;" width="97.6" height="5.2"/>
	<rect x="287.2" y="157.2" style="fill:#ACB3BA;" width="97.6" height="5.2"/>
	<rect x="287.2" y="169.2" style="fill:#ACB3BA;" width="97.6" height="5.2"/>
</g>
<circle style="fill:#FF7058;" cx="237.2" cy="154" r="12"/>
<g>
	<path style="fill:#ACB3BA;" d="M133.2,247.2L133.2,247.2c-4.8,0-8.4-4-8.4-8.4l0,0c0-4.8,4-8.4,8.4-8.4l0,0c4.8,0,8.4,4,8.4,8.4   l0,0C141.6,243.6,138,247.2,133.2,247.2z"/>
	<path style="fill:#ACB3BA;" d="M133.2,277.6L133.2,277.6c-4.8,0-8.4-4-8.4-8.4l0,0c0-4.8,4-8.4,8.4-8.4l0,0c4.8,0,8.4,4,8.4,8.4   l0,0C141.6,274,138,277.6,133.2,277.6z"/>
	<path style="fill:#ACB3BA;" d="M161.6,247.2L161.6,247.2c-4.8,0-8.4-4-8.4-8.4l0,0c0-4.8,4-8.4,8.4-8.4l0,0c4.8,0,8.4,4,8.4,8.4   l0,0C170,243.6,166,247.2,161.6,247.2z"/>
	<path style="fill:#ACB3BA;" d="M161.6,277.6L161.6,277.6c-4.8,0-8.4-4-8.4-8.4l0,0c0-4.8,4-8.4,8.4-8.4l0,0c4.8,0,8.4,4,8.4,8.4   l0,0C170,274,166,277.6,161.6,277.6z"/>
	<path style="fill:#ACB3BA;" d="M189.6,247.2L189.6,247.2c-4.8,0-8.4-4-8.4-8.4l0,0c0-4.8,4-8.4,8.4-8.4l0,0c4.8,0,8.4,4,8.4,8.4   l0,0C198.4,243.6,194.4,247.2,189.6,247.2z"/>
	<path style="fill:#ACB3BA;" d="M189.6,277.6L189.6,277.6c-4.8,0-8.4-4-8.4-8.4l0,0c0-4.8,4-8.4,8.4-8.4l0,0c4.8,0,8.4,4,8.4,8.4   l0,0C198.4,274,194.4,277.6,189.6,277.6z"/>
	<rect x="287.2" y="233.6" style="fill:#ACB3BA;" width="97.6" height="5.2"/>
	<rect x="287.2" y="245.6" style="fill:#ACB3BA;" width="97.6" height="5.2"/>
	<rect x="287.2" y="257.2" style="fill:#ACB3BA;" width="97.6" height="5.2"/>
	<rect x="287.2" y="269.2" style="fill:#ACB3BA;" width="97.6" height="5.2"/>
</g>
<circle style="fill:#FFD05B;" cx="237.2" cy="254" r="12"/>
<g>
	<path style="fill:#ACB3BA;" d="M133.2,347.6L133.2,347.6c-4.8,0-8.4-4-8.4-8.4l0,0c0-4.8,4-8.4,8.4-8.4l0,0c4.8,0,8.4,4,8.4,8.4   l0,0C141.6,343.6,138,347.6,133.2,347.6z"/>
	<path style="fill:#ACB3BA;" d="M133.2,378L133.2,378c-4.8,0-8.4-4-8.4-8.4l0,0c0-4.8,4-8.4,8.4-8.4l0,0c4.8,0,8.4,4,8.4,8.4l0,0   C141.6,374,138,378,133.2,378z"/>
	<path style="fill:#ACB3BA;" d="M161.6,347.6L161.6,347.6c-4.8,0-8.4-4-8.4-8.4l0,0c0-4.8,4-8.4,8.4-8.4l0,0c4.8,0,8.4,4,8.4,8.4   l0,0C170,343.6,166,347.6,161.6,347.6z"/>
	<path style="fill:#ACB3BA;" d="M161.6,378L161.6,378c-4.8,0-8.4-4-8.4-8.4l0,0c0-4.8,4-8.4,8.4-8.4l0,0c4.8,0,8.4,4,8.4,8.4l0,0   C170,374,166,378,161.6,378z"/>
	<path style="fill:#ACB3BA;" d="M189.6,347.6L189.6,347.6c-4.8,0-8.4-4-8.4-8.4l0,0c0-4.8,4-8.4,8.4-8.4l0,0c4.8,0,8.4,4,8.4,8.4   l0,0C198.4,343.6,194.4,347.6,189.6,347.6z"/>
	<path style="fill:#ACB3BA;" d="M189.6,378L189.6,378c-4.8,0-8.4-4-8.4-8.4l0,0c0-4.8,4-8.4,8.4-8.4l0,0c4.8,0,8.4,4,8.4,8.4l0,0   C198.4,374,194.4,378,189.6,378z"/>
	<rect x="287.2" y="333.6" style="fill:#ACB3BA;" width="97.6" height="5.2"/>
	<rect x="287.2" y="345.6" style="fill:#ACB3BA;" width="97.6" height="5.2"/>
	<rect x="287.2" y="357.6" style="fill:#ACB3BA;" width="97.6" height="5.2"/>
	<rect x="287.2" y="369.2" style="fill:#ACB3BA;" width="97.6" height="5.2"/>
</g>
<circle style="fill:#4CDBC4;" cx="237.2" cy="354" r="12"/>
<circle style="fill:#54C0EB;" cx="343.6" cy="352.8" r="75.2"/>
<g>
	<rect x="333.2" y="306.8" style="fill:#FFFFFF;" width="21.2" height="91.6"/>
	<rect x="298" y="342.4" style="fill:#FFFFFF;" width="91.6" height="21.2"/>
</g>
<g>
</g>
<g>
</g>
<g>
</g>
<g>
</g>
<g>
</g>
<g>
</g>
<g>
</g>
<g>
</g>
<g>
</g>
<g>
</g>
<g>
</g>
<g>
</g>
<g>
</g>
<g>
</g>
<g>
</g>
</svg>
