<?xml version="1.0" encoding="iso-8859-1"?>
<!-- Generator: Adobe Illustrator 19.0.0, SVG Export Plug-In . SVG Version: 6.00 Build 0)  -->
<svg xmlns="http://www.w3.org/2000/svg" xmlns:xlink="http://www.w3.org/1999/xlink" version="1.1" id="Layer_1" x="0px" y="0px" viewBox="0 0 508 508" style="enable-background:new 0 0 508 508;" xml:space="preserve">
<circle style="fill:#FFD05B;" cx="254" cy="254" r="254"/>
<path style="fill:#324A5E;" d="M293.6,373.2v132c-12.8,2-25.6,2.8-39.2,2.8c-13.2,0-26.4-1.2-39.2-2.8v-132H293.6z"/>
<path style="fill:#FFFFFF;" d="M335.6,387.2H172.4c-7.6,0-14-6.4-14-14V134.8c0-7.6,6.4-14,14-14h163.2c7.6,0,14,6.4,14,14v238  C349.6,380.8,343.2,387.2,335.6,387.2z"/>
<rect x="182.4" y="271.2" style="fill:#E6E9EE;" width="143.6" height="92"/>
<rect x="310" y="120.8" style="fill:#F1543F;" width="7.6" height="108.4"/>
<rect x="280" y="120.8" style="fill:#4CDBC4;" width="7.6" height="108.4"/>
<rect x="250" y="120.8" style="fill:#FFD05B;" width="7.6" height="108.4"/>
<rect x="220.4" y="120.8" style="fill:#2B3B4E;" width="7.6" height="108.4"/>
<rect x="190.4" y="120.8" style="fill:#F1543F;" width="7.6" height="108.4"/>
<g>
</g>
<g>
</g>
<g>
</g>
<g>
</g>
<g>
</g>
<g>
</g>
<g>
</g>
<g>
</g>
<g>
</g>
<g>
</g>
<g>
</g>
<g>
</g>
<g>
</g>
<g>
</g>
<g>
</g>
</svg>
