<?xml version="1.0" encoding="iso-8859-1"?>
<!-- Generator: Adobe Illustrator 19.0.0, SVG Export Plug-In . SVG Version: 6.00 Build 0)  -->
<svg xmlns="http://www.w3.org/2000/svg" xmlns:xlink="http://www.w3.org/1999/xlink" version="1.1" id="Layer_1" x="0px" y="0px" viewBox="0 0 508 508" style="enable-background:new 0 0 508 508;" xml:space="preserve">
<circle style="fill:#84DBFF;" cx="254" cy="254" r="254"/>
<path style="fill:#54C0EB;" d="M49.6,404.8C95.6,467.2,170,508,254,508s158.4-40.8,204.4-103.2H49.6z"/>
<polygon style="fill:#E6E9EE;" points="298.4,389.6 290,349.2 218,349.2 209.6,389.6 "/>
<path style="fill:#FFFFFF;" d="M409.6,360.4H98.4C92.8,360.4,88,356,88,350V136.8c0-5.6,4.4-10.4,10.4-10.4H410  c5.6,0,10.4,4.4,10.4,10.4V350C420,355.6,415.6,360.4,409.6,360.4z"/>
<rect x="106" y="144.4" style="fill:#324A5E;" width="296" height="184.4"/>
<path style="fill:#FFFFFF;" d="M320.8,404.8H187.2l0,0c0-10.4,8.4-18.8,18.8-18.8h96C312.4,386,320.8,394.4,320.8,404.8L320.8,404.8  z"/>
<g>
	<path style="fill:#ACB3BA;" d="M168.8,168.4h7.2V186h-3.6v-14h-3.2L168.8,168.4L168.8,168.4z"/>
	<path style="fill:#ACB3BA;" d="M186.4,186c-2.4,0-4-0.8-5.2-2.4c-1.2-1.6-1.6-4-1.6-6.4c0-2.8,0.4-4.8,1.6-6.4   c1.2-1.6,2.8-2.4,5.2-2.4s4,0.8,5.2,2.4c1.2,1.6,1.6,4,1.6,6.4c0,2.8-0.4,4.8-1.6,6.4C190.8,185.2,188.8,186,186.4,186z M184,172.8   c-0.4,1.2-0.8,2.4-0.8,4s0.4,3.2,0.8,4c0.4,1.2,1.2,1.6,2.4,1.6s2-0.4,2.4-1.6c0.4-1.2,0.8-2.4,0.8-4s-0.4-3.2-0.8-4   c-0.4-1.2-1.2-1.6-2.4-1.6S184.4,172,184,172.8z"/>
	<path style="fill:#ACB3BA;" d="M196,168.4h7.2V186h-3.6v-14h-3.2L196,168.4L196,168.4z"/>
	<path style="fill:#ACB3BA;" d="M213.6,186c-2.4,0-4-0.8-5.2-2.4c-1.2-1.6-1.6-4-1.6-6.4c0-2.8,0.4-4.8,1.6-6.4   c1.2-1.6,2.8-2.4,5.2-2.4s4,0.8,5.2,2.4c1.2,1.6,1.6,4,1.6,6.4c0,2.8-0.4,4.8-1.6,6.4C218,185.2,216,186,213.6,186z M211.2,172.8   c-0.4,1.2-0.8,2.4-0.8,4s0.4,3.2,0.8,4c0.4,1.2,1.2,1.6,2.4,1.6s2-0.4,2.4-1.6c0.4-1.2,0.8-2.4,0.8-4s-0.4-3.2-0.8-4   c-0.4-1.2-1.2-1.6-2.4-1.6S211.6,172,211.2,172.8z"/>
	<path style="fill:#ACB3BA;" d="M222.8,168.4h7.2V186h-3.6v-14h-3.2L222.8,168.4L222.8,168.4z"/>
	<path style="fill:#ACB3BA;" d="M240.8,186c-2.4,0-4-0.8-5.2-2.4c-1.2-1.6-1.6-4-1.6-6.4c0-2.8,0.4-4.8,1.6-6.4   c1.2-1.6,2.8-2.4,5.2-2.4s4,0.8,5.2,2.4c1.2,1.6,1.6,4,1.6,6.4c0,2.8-0.4,4.8-1.6,6.4C244.8,185.2,243.2,186,240.8,186z M238,172.8   c-0.4,1.2-0.8,2.4-0.8,4s0.4,3.2,0.8,4c0.4,1.2,1.2,1.6,2.4,1.6s2-0.4,2.4-1.6c0.4-1.2,0.8-2.4,0.8-4s-0.4-3.2-0.8-4   c-0.4-1.2-1.2-1.6-2.4-1.6C239.6,171.2,238.8,172,238,172.8z"/>
	<path style="fill:#ACB3BA;" d="M250,168.4h7.2V186h-3.6v-14H250V168.4z"/>
	<path style="fill:#ACB3BA;" d="M268,186c-2.4,0-4-0.8-5.2-2.4c-1.2-1.6-1.6-4-1.6-6.4c0-2.8,0.4-4.8,1.6-6.4   c1.2-1.6,2.8-2.4,5.2-2.4s4,0.8,5.2,2.4c1.2,1.6,1.6,4,1.6,6.4c0,2.8-0.4,4.8-1.6,6.4S270.4,186,268,186z M265.2,172.8   c-0.4,1.2-0.8,2.4-0.8,4s0.4,3.2,0.8,4c0.4,1.2,1.2,1.6,2.4,1.6c1.2,0,2-0.4,2.4-1.6c0.4-1.2,0.8-2.4,0.8-4s-0.4-3.2-0.8-4   c-0.4-1.2-1.2-1.6-2.4-1.6C266.8,171.2,266,172,265.2,172.8z"/>
	<path style="fill:#ACB3BA;" d="M277.2,168.4h7.2V186h-3.6v-14h-3.2L277.2,168.4L277.2,168.4z"/>
	<path style="fill:#ACB3BA;" d="M294.8,186c-2.4,0-4-0.8-5.2-2.4c-1.2-1.6-1.6-4-1.6-6.4c0-2.8,0.4-4.8,1.6-6.4   c1.2-1.6,2.8-2.4,5.2-2.4c2.4,0,4,0.8,5.2,2.4c1.2,1.6,1.6,4,1.6,6.4c0,2.8-0.4,4.8-1.6,6.4C299.2,185.2,297.2,186,294.8,186z    M292.4,172.8c-0.4,1.2-0.8,2.4-0.8,4s0.4,3.2,0.8,4c0.4,1.2,1.2,1.6,2.4,1.6c1.2,0,2-0.4,2.4-1.6c0.4-1.2,0.8-2.4,0.8-4   s-0.4-3.2-0.8-4c-0.4-1.2-1.2-1.6-2.4-1.6C294,171.2,292.8,172,292.4,172.8z"/>
	<path style="fill:#ACB3BA;" d="M304.4,168.4h7.2V186H308v-14h-3.2L304.4,168.4L304.4,168.4z"/>
	<path style="fill:#ACB3BA;" d="M322,186c-2.4,0-4-0.8-5.2-2.4c-1.2-1.6-1.6-4-1.6-6.4c0-2.8,0.4-4.8,1.6-6.4   c1.2-1.6,2.8-2.4,5.2-2.4c2.4,0,4,0.8,5.2,2.4c1.2,1.6,1.6,4,1.6,6.4c0,2.8-0.4,4.8-1.6,6.4C326.4,185.2,324.4,186,322,186z    M319.6,172.8c-0.4,1.2-0.8,2.4-0.8,4s0.4,3.2,0.8,4c0.4,1.2,1.2,1.6,2.4,1.6c1.2,0,2-0.4,2.4-1.6c0.4-1.2,0.8-2.4,0.8-4   s-0.4-3.2-0.8-4c-0.4-1.2-1.2-1.6-2.4-1.6C320.8,171.2,320,172,319.6,172.8z"/>
	<path style="fill:#ACB3BA;" d="M331.6,168.4h7.2V186h-3.6v-14H332L331.6,168.4L331.6,168.4z"/>
	<path style="fill:#ACB3BA;" d="M160,198.4h7.2v17.2h-3.6v-14h-3.2L160,198.4L160,198.4z"/>
	<path style="fill:#ACB3BA;" d="M178,215.6c-2.4,0-4-0.8-5.2-2.4c-1.2-1.6-1.6-4-1.6-6.4c0-2.8,0.4-4.8,1.6-6.4   c1.2-1.6,2.8-2.4,5.2-2.4s4,0.8,5.2,2.4c1.2,1.6,1.6,4,1.6,6.4c0,2.8-0.4,4.8-1.6,6.4C182,214.8,180.4,215.6,178,215.6z    M175.6,202.8c-0.4,1.2-0.8,2.4-0.8,4s0.4,3.2,0.8,4c0.4,1.2,1.2,1.6,2.4,1.6s2-0.4,2.4-1.6c0.4-1.2,0.8-2.4,0.8-4s-0.4-3.2-0.8-4   c-0.4-1.2-1.2-1.6-2.4-1.6S176,201.6,175.6,202.8z"/>
	<path style="fill:#ACB3BA;" d="M187.2,198.4h7.2v17.2h-3.6v-14h-3.2L187.2,198.4L187.2,198.4z"/>
	<path style="fill:#ACB3BA;" d="M205.2,215.6c-2.4,0-4-0.8-5.2-2.4c-1.2-1.6-1.6-4-1.6-6.4c0-2.8,0.4-4.8,1.6-6.4   c1.2-1.6,2.8-2.4,5.2-2.4s4,0.8,5.2,2.4c1.2,1.6,1.6,4,1.6,6.4c0,2.8-0.4,4.8-1.6,6.4C209.2,214.8,207.6,215.6,205.2,215.6z    M202.4,202.8c-0.4,1.2-0.8,2.4-0.8,4s0.4,3.2,0.8,4c0.4,1.2,1.2,1.6,2.4,1.6s2-0.4,2.4-1.6c0.4-1.2,0.8-2.4,0.8-4s-0.4-3.2-0.8-4   c-0.4-1.2-1.2-1.6-2.4-1.6C204,201.2,203.2,201.6,202.4,202.8z"/>
	<path style="fill:#ACB3BA;" d="M214.4,198.4h7.2v17.2H218v-14h-3.2L214.4,198.4L214.4,198.4z"/>
	<path style="fill:#ACB3BA;" d="M232,215.6c-2.4,0-4-0.8-5.2-2.4c-1.2-1.6-1.6-4-1.6-6.4c0-2.8,0.4-4.8,1.6-6.4   c1.2-1.6,2.8-2.4,5.2-2.4s4,0.8,5.2,2.4c1.2,1.6,1.6,4,1.6,6.4c0,2.8-0.4,4.8-1.6,6.4C236.4,214.8,234.4,215.6,232,215.6z    M229.6,202.8c-0.4,1.2-0.8,2.4-0.8,4s0.4,3.2,0.8,4c0.4,1.2,1.2,1.6,2.4,1.6s2-0.4,2.4-1.6c0.4-1.2,0.8-2.4,0.8-4s-0.4-3.2-0.8-4   c-0.4-1.2-1.2-1.6-2.4-1.6C231.2,201.2,230,201.6,229.6,202.8z"/>
	<path style="fill:#ACB3BA;" d="M241.6,198.4h7.2v17.2h-3.6v-14H242L241.6,198.4L241.6,198.4z"/>
	<path style="fill:#ACB3BA;" d="M259.2,215.6c-2.4,0-4-0.8-5.2-2.4c-1.2-1.6-1.6-4-1.6-6.4c0-2.8,0.4-4.8,1.6-6.4   c1.2-1.6,2.8-2.4,5.2-2.4s4,0.8,5.2,2.4c1.2,1.6,1.6,4,1.6,6.4c0,2.8-0.4,4.8-1.6,6.4C263.6,214.8,261.6,215.6,259.2,215.6z    M256.8,202.8c-0.4,1.2-0.8,2.4-0.8,4s0.4,3.2,0.8,4c0.4,1.2,1.2,1.6,2.4,1.6c1.2,0,2-0.4,2.4-1.6c0.4-1.2,0.8-2.4,0.8-4   s-0.4-3.2-0.8-4c-0.4-1.2-1.2-1.6-2.4-1.6S257.2,201.6,256.8,202.8z"/>
	<path style="fill:#ACB3BA;" d="M268.8,198.4h7.2v17.2h-3.6v-14h-3.2L268.8,198.4L268.8,198.4z"/>
	<path style="fill:#ACB3BA;" d="M286.4,215.6c-2.4,0-4-0.8-5.2-2.4c-1.2-1.6-1.6-4-1.6-6.4c0-2.8,0.4-4.8,1.6-6.4   c1.2-1.6,2.8-2.4,5.2-2.4s4,0.8,5.2,2.4c1.2,1.6,1.6,4,1.6,6.4c0,2.8-0.4,4.8-1.6,6.4C290.8,214.8,288.8,215.6,286.4,215.6z    M284,202.8c-0.4,1.2-0.8,2.4-0.8,4s0.4,3.2,0.8,4c0.4,1.2,1.2,1.6,2.4,1.6c1.2,0,2-0.4,2.4-1.6c0.4-1.2,0.8-2.4,0.8-4   s-0.4-3.2-0.8-4c-0.4-1.2-1.2-1.6-2.4-1.6S284.4,201.6,284,202.8z"/>
	<path style="fill:#ACB3BA;" d="M295.6,198.4h7.2v17.2h-3.6v-14H296L295.6,198.4L295.6,198.4z"/>
	<path style="fill:#ACB3BA;" d="M313.6,215.6c-2.4,0-4-0.8-5.2-2.4c-1.2-1.6-1.6-4-1.6-6.4c0-2.8,0.4-4.8,1.6-6.4   c1.2-1.6,2.8-2.4,5.2-2.4c2.4,0,4,0.8,5.2,2.4c1.2,1.6,1.6,4,1.6,6.4c0,2.8-0.4,4.8-1.6,6.4S316,215.6,313.6,215.6z M310.8,202.8   c-0.4,1.2-0.8,2.4-0.8,4s0.4,3.2,0.8,4c0.4,1.2,1.2,1.6,2.4,1.6c1.2,0,2-0.4,2.4-1.6c0.4-1.2,0.8-2.4,0.8-4s-0.4-3.2-0.8-4   c-0.4-1.2-1.2-1.6-2.4-1.6C312.4,201.2,311.6,201.6,310.8,202.8z"/>
	<path style="fill:#ACB3BA;" d="M322.8,198.4h7.2v17.2h-4v-14h-3.2V198.4z"/>
	<path style="fill:#ACB3BA;" d="M340.8,215.6c-2.4,0-4-0.8-5.2-2.4c-1.2-1.6-1.6-4-1.6-6.4c0-2.8,0.4-4.8,1.6-6.4   c1.2-1.6,2.8-2.4,5.2-2.4s4,0.8,5.2,2.4c1.2,1.6,1.6,4,1.6,6.4c0,2.8-0.4,4.8-1.6,6.4S343.2,215.6,340.8,215.6z M338,202.8   c-0.4,1.2-0.8,2.4-0.8,4s0.4,3.2,0.8,4c0.4,1.2,1.2,1.6,2.4,1.6c1.2,0,2-0.4,2.4-1.6c0.4-1.2,0.8-2.4,0.8-4s-0.4-3.2-0.8-4   c-0.4-1.2-1.2-1.6-2.4-1.6C339.6,201.2,338.8,201.6,338,202.8z"/>
	<path style="fill:#ACB3BA;" d="M182.4,228h7.2v17.2H186v-14h-3.2L182.4,228L182.4,228z"/>
	<path style="fill:#ACB3BA;" d="M200,245.6c-2.4,0-4-0.8-5.2-2.4c-1.2-1.6-1.6-4-1.6-6.4c0-2.8,0.4-4.8,1.6-6.4   c1.2-1.6,2.8-2.4,5.2-2.4s4,0.8,5.2,2.4c1.2,1.6,1.6,4,1.6,6.4c0,2.8-0.4,4.8-1.6,6.4C204.4,244.8,202.4,245.6,200,245.6z    M197.6,232.4c-0.4,1.2-0.8,2.4-0.8,4s0.4,3.2,0.8,4c0.4,1.2,1.2,1.6,2.4,1.6s2-0.4,2.4-1.6c0.4-1.2,0.8-2.4,0.8-4s-0.4-3.2-0.8-4   c-0.4-1.2-1.2-1.6-2.4-1.6C198.8,230.8,198,231.2,197.6,232.4z"/>
	<path style="fill:#ACB3BA;" d="M209.6,228h7.2v17.2h-3.6v-14H210L209.6,228L209.6,228z"/>
	<path style="fill:#ACB3BA;" d="M227.2,245.6c-2.4,0-4-0.8-5.2-2.4c-1.2-1.6-1.6-4-1.6-6.4c0-2.8,0.4-4.8,1.6-6.4   c1.2-1.6,2.8-2.4,5.2-2.4s4,0.8,5.2,2.4c1.2,1.6,1.6,4,1.6,6.4c0,2.8-0.4,4.8-1.6,6.4C231.2,244.8,229.6,245.6,227.2,245.6z    M224.8,232.4c-0.4,1.2-0.8,2.4-0.8,4s0.4,3.2,0.8,4c0.4,1.2,1.2,1.6,2.4,1.6s2-0.4,2.4-1.6c0.4-1.2,0.8-2.4,0.8-4s-0.4-3.2-0.8-4   c-0.4-1.2-1.2-1.6-2.4-1.6C226,230.8,225.2,231.2,224.8,232.4z"/>
	<path style="fill:#ACB3BA;" d="M236.4,228h7.2v17.2H240v-14h-3.2L236.4,228L236.4,228z"/>
	<path style="fill:#ACB3BA;" d="M254.4,245.6c-2.4,0-4-0.8-5.2-2.4c-1.2-1.6-1.6-4-1.6-6.4c0-2.8,0.4-4.8,1.6-6.4   c1.2-1.6,2.8-2.4,5.2-2.4s4,0.8,5.2,2.4c1.2,1.6,1.6,4,1.6,6.4c0,2.8-0.4,4.8-1.6,6.4S256.8,245.6,254.4,245.6z M251.6,232.4   c-0.4,1.2-0.8,2.4-0.8,4s0.4,3.2,0.8,4c0.4,1.2,1.2,1.6,2.4,1.6c1.2,0,2-0.4,2.4-1.6c0.4-1.2,0.8-2.4,0.8-4s-0.4-3.2-0.8-4   c-0.4-1.2-1.2-1.6-2.4-1.6C253.2,230.8,252.4,231.2,251.6,232.4z"/>
	<path style="fill:#ACB3BA;" d="M263.6,228h7.2v17.2h-3.6v-14H264L263.6,228L263.6,228z"/>
	<path style="fill:#ACB3BA;" d="M281.6,245.6c-2.4,0-4-0.8-5.2-2.4c-1.2-1.6-1.6-4-1.6-6.4c0-2.8,0.4-4.8,1.6-6.4   c1.2-1.6,2.8-2.4,5.2-2.4s4,0.8,5.2,2.4c1.2,1.6,1.6,4,1.6,6.4c0,2.8-0.4,4.8-1.6,6.4S284,245.6,281.6,245.6z M278.8,232.4   c-0.4,1.2-0.8,2.4-0.8,4s0.4,3.2,0.8,4c0.4,1.2,1.2,1.6,2.4,1.6c1.2,0,2-0.4,2.4-1.6c0.4-1.2,0.8-2.4,0.8-4s-0.4-3.2-0.8-4   c-0.4-1.2-1.2-1.6-2.4-1.6C280.4,230.8,279.6,231.2,278.8,232.4z"/>
	<path style="fill:#ACB3BA;" d="M290.8,228h7.2v17.2h-4v-14h-3.2V228z"/>
	<path style="fill:#ACB3BA;" d="M308.4,245.6c-2.4,0-4-0.8-5.2-2.4c-1.2-1.6-1.6-4-1.6-6.4c0-2.8,0.4-4.8,1.6-6.4   c1.2-1.6,2.8-2.4,5.2-2.4c2.4,0,4,0.8,5.2,2.4c1.2,1.6,1.6,4,1.6,6.4c0,2.8-0.4,4.8-1.6,6.4C312.8,244.8,310.8,245.6,308.4,245.6z    M306,232.4c-0.4,1.2-0.8,2.4-0.8,4s0.4,3.2,0.8,4c0.4,1.2,1.2,1.6,2.4,1.6c1.2,0,2-0.4,2.4-1.6c0.4-1.2,0.8-2.4,0.8-4   s-0.4-3.2-0.8-4c-0.4-1.2-1.2-1.6-2.4-1.6C307.2,230.8,306.4,231.2,306,232.4z"/>
	<path style="fill:#ACB3BA;" d="M318,228h7.2v17.2h-3.6v-14H318V228z"/>
	<path style="fill:#ACB3BA;" d="M146.8,257.6h7.2v17.2h-4v-14h-3.2V257.6z"/>
	<path style="fill:#ACB3BA;" d="M164.4,275.2c-2.4,0-4-0.8-5.2-2.4s-1.6-4-1.6-6.4c0-2.8,0.4-4.8,1.6-6.4c1.2-1.6,2.8-2.4,5.2-2.4   s4,0.8,5.2,2.4s1.6,4,1.6,6.4c0,2.8-0.4,4.8-1.6,6.4C168.4,274.4,166.8,275.2,164.4,275.2z M162,262c-0.4,1.2-0.8,2.4-0.8,4   s0.4,3.2,0.8,4c0.4,1.2,1.2,1.6,2.4,1.6s2-0.4,2.4-1.6s0.8-2.4,0.8-4s-0.4-3.2-0.8-4c-0.4-1.2-1.2-1.6-2.4-1.6S162.4,261.2,162,262   z"/>
	<path style="fill:#ACB3BA;" d="M173.6,257.6h7.2v17.2h-3.6v-14H174L173.6,257.6L173.6,257.6z"/>
	<path style="fill:#ACB3BA;" d="M191.6,275.2c-2.4,0-4-0.8-5.2-2.4s-1.6-4-1.6-6.4c0-2.8,0.4-4.8,1.6-6.4c1.2-1.6,2.8-2.4,5.2-2.4   s4,0.8,5.2,2.4s1.6,4,1.6,6.4c0,2.8-0.4,4.8-1.6,6.4C195.6,274.4,194,275.2,191.6,275.2z M188.8,262c-0.4,1.2-0.8,2.4-0.8,4   s0.4,3.2,0.8,4c0.4,1.2,1.2,1.6,2.4,1.6s2-0.4,2.4-1.6s0.8-2.4,0.8-4s-0.4-3.2-0.8-4c-0.4-1.2-1.2-1.6-2.4-1.6   C190.4,260.4,189.6,261.2,188.8,262z"/>
	<path style="fill:#ACB3BA;" d="M200.8,257.6h7.2v17.2h-3.6v-14h-3.2L200.8,257.6L200.8,257.6z"/>
	<path style="fill:#ACB3BA;" d="M218.8,275.2c-2.4,0-4-0.8-5.2-2.4s-1.6-4-1.6-6.4c0-2.8,0.4-4.8,1.6-6.4c1.2-1.6,2.8-2.4,5.2-2.4   s4,0.8,5.2,2.4s1.6,4,1.6,6.4c0,2.8-0.4,4.8-1.6,6.4C222.8,274.4,221.2,275.2,218.8,275.2z M216,262c-0.4,1.2-0.8,2.4-0.8,4   s0.4,3.2,0.8,4c0.4,1.2,1.2,1.6,2.4,1.6s2-0.4,2.4-1.6s0.8-2.4,0.8-4s-0.4-3.2-0.8-4c-0.4-1.2-1.2-1.6-2.4-1.6   C217.6,260.4,216.8,261.2,216,262z"/>
	<path style="fill:#ACB3BA;" d="M228,257.6h7.2v17.2h-3.6v-14h-3.2L228,257.6L228,257.6z"/>
	<path style="fill:#ACB3BA;" d="M245.6,275.2c-2.4,0-4-0.8-5.2-2.4s-1.6-4-1.6-6.4c0-2.8,0.4-4.8,1.6-6.4c1.2-1.6,2.8-2.4,5.2-2.4   s4,0.8,5.2,2.4s1.6,4,1.6,6.4c0,2.8-0.4,4.8-1.6,6.4C250,274.4,248,275.2,245.6,275.2z M243.2,262c-0.4,1.2-0.8,2.4-0.8,4   s0.4,3.2,0.8,4c0.4,1.2,1.2,1.6,2.4,1.6s2-0.4,2.4-1.6s0.8-2.4,0.8-4s-0.4-3.2-0.8-4c-0.4-1.2-1.2-1.6-2.4-1.6   S243.6,261.2,243.2,262z"/>
	<path style="fill:#ACB3BA;" d="M255.2,257.6h6.8v17.2h-3.6v-14h-3.2C255.2,260.8,255.2,257.6,255.2,257.6z"/>
	<path style="fill:#ACB3BA;" d="M272.8,275.2c-2.4,0-4-0.8-5.2-2.4s-1.6-4-1.6-6.4c0-2.8,0.4-4.8,1.6-6.4s2.8-2.4,5.2-2.4   s4,0.8,5.2,2.4s1.6,4,1.6,6.4c0,2.8-0.4,4.8-1.6,6.4C277.2,274.4,275.2,275.2,272.8,275.2z M270.4,262c-0.4,1.2-0.8,2.4-0.8,4   s0.4,3.2,0.8,4c0.4,1.2,1.2,1.6,2.4,1.6c1.2,0,2-0.4,2.4-1.6s0.8-2.4,0.8-4s-0.4-3.2-0.8-4c-0.4-1.2-1.2-1.6-2.4-1.6   S270.8,261.2,270.4,262z"/>
	<path style="fill:#ACB3BA;" d="M282,257.6h7.2v17.2h-3.6v-14H282V257.6z"/>
	<path style="fill:#ACB3BA;" d="M300,275.2c-2.4,0-4-0.8-5.2-2.4s-1.6-4-1.6-6.4c0-2.8,0.4-4.8,1.6-6.4s2.8-2.4,5.2-2.4   c2.4,0,4,0.8,5.2,2.4s1.6,4,1.6,6.4c0,2.8-0.4,4.8-1.6,6.4C304,274.4,302.4,275.2,300,275.2z M297.6,262c-0.4,1.2-0.8,2.4-0.8,4   s0.4,3.2,0.8,4c0.4,1.2,1.2,1.6,2.4,1.6c1.2,0,2-0.4,2.4-1.6s0.8-2.4,0.8-4s-0.4-3.2-0.8-4c-0.4-1.2-1.2-1.6-2.4-1.6   C298.8,260.4,298,261.2,297.6,262z"/>
	<path style="fill:#ACB3BA;" d="M309.2,257.6h7.2v17.2h-3.6v-14h-3.2L309.2,257.6L309.2,257.6z"/>
	<path style="fill:#ACB3BA;" d="M327.2,275.2c-2.4,0-4-0.8-5.2-2.4s-1.6-4-1.6-6.4c0-2.8,0.4-4.8,1.6-6.4s2.8-2.4,5.2-2.4   c2.4,0,4,0.8,5.2,2.4s1.6,4,1.6,6.4c0,2.8-0.4,4.8-1.6,6.4C331.2,274.4,329.6,275.2,327.2,275.2z M324.4,262   c-0.4,1.2-0.8,2.4-0.8,4s0.4,3.2,0.8,4c0.4,1.2,1.2,1.6,2.4,1.6c1.2,0,2-0.4,2.4-1.6s0.8-2.4,0.8-4s-0.4-3.2-0.8-4   c-0.4-1.2-1.2-1.6-2.4-1.6C326,260.4,325.2,261.2,324.4,262z"/>
	<path style="fill:#ACB3BA;" d="M336.4,257.6h7.2v17.2H340v-14h-3.2L336.4,257.6L336.4,257.6z"/>
	<path style="fill:#ACB3BA;" d="M354.4,275.2c-2.4,0-4-0.8-5.2-2.4s-1.6-4-1.6-6.4c0-2.8,0.4-4.8,1.6-6.4s2.8-2.4,5.2-2.4   s4,0.8,5.2,2.4s1.6,4,1.6,6.4c0,2.8-0.4,4.8-1.6,6.4C358.4,274.4,356.8,275.2,354.4,275.2z M351.6,262c-0.4,1.2-0.8,2.4-0.8,4   s0.4,3.2,0.8,4c0.4,1.2,1.2,1.6,2.4,1.6c1.2,0,2-0.4,2.4-1.6s0.8-2.4,0.8-4s-0.4-3.2-0.8-4c-0.4-1.2-1.2-1.6-2.4-1.6   C353.2,260.4,352.4,261.2,351.6,262z"/>
	<path style="fill:#ACB3BA;" d="M190.8,287.6h7.2v17.2h-4v-14h-3.2V287.6z"/>
	<path style="fill:#ACB3BA;" d="M208.8,305.2c-2.4,0-4-0.8-5.2-2.4s-1.6-4-1.6-6.4c0-2.8,0.4-4.8,1.6-6.4c1.2-1.6,2.8-2.4,5.2-2.4   s4,0.8,5.2,2.4s1.6,4,1.6,6.4c0,2.8-0.4,4.8-1.6,6.4C212.8,304.4,211.2,305.2,208.8,305.2z M206,292c-0.4,1.2-0.8,2.4-0.8,4   s0.4,3.2,0.8,4c0.4,1.2,1.2,1.6,2.4,1.6s2-0.4,2.4-1.6s0.8-2.4,0.8-4s-0.4-3.2-0.8-4c-0.4-1.2-1.2-1.6-2.4-1.6   C207.6,290.4,206.8,290.8,206,292z"/>
	<path style="fill:#ACB3BA;" d="M218,287.6h7.2v17.2h-3.6v-14H218V287.6z"/>
	<path style="fill:#ACB3BA;" d="M228,287.6h7.2v17.2h-3.6v-14h-3.2L228,287.6L228,287.6z"/>
	<path style="fill:#ACB3BA;" d="M245.6,305.2c-2.4,0-4-0.8-5.2-2.4s-1.6-4-1.6-6.4c0-2.8,0.4-4.8,1.6-6.4c1.2-1.6,2.8-2.4,5.2-2.4   s4,0.8,5.2,2.4s1.6,4,1.6,6.4c0,2.8-0.4,4.8-1.6,6.4C250,304.4,248,305.2,245.6,305.2z M243.2,292c-0.4,1.2-0.8,2.4-0.8,4   s0.4,3.2,0.8,4c0.4,1.2,1.2,1.6,2.4,1.6s2-0.4,2.4-1.6s0.8-2.4,0.8-4s-0.4-3.2-0.8-4c-0.4-1.2-1.2-1.6-2.4-1.6   S243.6,290.8,243.2,292z"/>
	<path style="fill:#ACB3BA;" d="M255.2,287.6h6.8v17.2h-3.6v-14h-3.2C255.2,290.8,255.2,287.6,255.2,287.6z"/>
	<path style="fill:#ACB3BA;" d="M272.8,305.2c-2.4,0-4-0.8-5.2-2.4s-1.6-4-1.6-6.4c0-2.8,0.4-4.8,1.6-6.4s2.8-2.4,5.2-2.4   s4,0.8,5.2,2.4s1.6,4,1.6,6.4c0,2.8-0.4,4.8-1.6,6.4C277.2,304.4,275.2,305.2,272.8,305.2z M270.4,292c-0.4,1.2-0.8,2.4-0.8,4   s0.4,3.2,0.8,4c0.4,1.2,1.2,1.6,2.4,1.6c1.2,0,2-0.4,2.4-1.6s0.8-2.4,0.8-4s-0.4-3.2-0.8-4c-0.4-1.2-1.2-1.6-2.4-1.6   S270.8,290.8,270.4,292z"/>
	<path style="fill:#ACB3BA;" d="M282,287.6h7.2v17.2h-3.6v-14H282V287.6z"/>
	<path style="fill:#ACB3BA;" d="M292,287.6h7.2v17.2h-3.6v-14h-3.2L292,287.6L292,287.6z"/>
	<path style="fill:#ACB3BA;" d="M310,305.2c-2.4,0-4-0.8-5.2-2.4s-1.6-4-1.6-6.4c0-2.8,0.4-4.8,1.6-6.4s2.8-2.4,5.2-2.4   c2.4,0,4,0.8,5.2,2.4s1.6,4,1.6,6.4c0,2.8-0.4,4.8-1.6,6.4C314,304.4,312.4,305.2,310,305.2z M307.6,292c-0.4,1.2-0.8,2.4-0.8,4   s0.4,3.2,0.8,4c0.4,1.2,1.2,1.6,2.4,1.6c1.2,0,2-0.4,2.4-1.6s0.8-2.4,0.8-4s-0.4-3.2-0.8-4c-0.4-1.2-1.2-1.6-2.4-1.6   C308.8,290.4,308,290.8,307.6,292z"/>
</g>
<circle style="fill:#E6E9EE;" cx="254" cy="343.2" r="8.4"/>
<g>
</g>
<g>
</g>
<g>
</g>
<g>
</g>
<g>
</g>
<g>
</g>
<g>
</g>
<g>
</g>
<g>
</g>
<g>
</g>
<g>
</g>
<g>
</g>
<g>
</g>
<g>
</g>
<g>
</g>
</svg>
