<?xml version="1.0" encoding="iso-8859-1"?>
<!-- Generator: Adobe Illustrator 19.0.0, SVG Export Plug-In . SVG Version: 6.00 Build 0)  -->
<svg xmlns="http://www.w3.org/2000/svg" xmlns:xlink="http://www.w3.org/1999/xlink" version="1.1" id="Layer_1" x="0px" y="0px" viewBox="0 0 508 508" style="enable-background:new 0 0 508 508;" xml:space="preserve">
<circle style="fill:#FD8469;" cx="254" cy="254" r="254"/>
<path style="fill:#CED5E0;" d="M300,412.8H137.2c-10,0-18.4-8.4-18.4-18.4V113.6c0-10,8.4-18.4,18.4-18.4H300  c10,0,18.4,8.4,18.4,18.4v280.8C318.4,404.4,310,412.8,300,412.8z"/>
<rect x="143.6" y="134.8" style="fill:#324A5E;" width="150" height="208.4"/>
<g>
	<circle style="fill:#ACB3BA;" cx="218.8" cy="378.4" r="16.8"/>
	<rect x="196" y="112.4" style="fill:#ACB3BA;" width="45.6" height="7.2"/>
</g>
<path style="fill:#FFFFFF;" d="M400,217.2c0-0.8,0-1.6,0-2.4c0-16.8-13.6-30.4-30.4-30.4c-7.2,0-14,2.4-19.2,6.8  c-7.6-14.8-23.2-24.8-40.8-24.8c-25.6,0-46,20.8-46,46c0,1.6,0,3.6,0.4,5.2c-18.8,1.6-33.6,17.6-33.6,37.2  c0,20.4,16.8,37.2,37.2,37.2h131.2c20.4,0,37.2-16.8,37.2-37.2C435.6,234.8,420,218.4,400,217.2z"/>
<g>
</g>
<g>
</g>
<g>
</g>
<g>
</g>
<g>
</g>
<g>
</g>
<g>
</g>
<g>
</g>
<g>
</g>
<g>
</g>
<g>
</g>
<g>
</g>
<g>
</g>
<g>
</g>
<g>
</g>
</svg>
