<?xml version="1.0" encoding="iso-8859-1"?>
<!-- Generator: Adobe Illustrator 19.0.0, SVG Export Plug-In . SVG Version: 6.00 Build 0)  -->
<svg xmlns="http://www.w3.org/2000/svg" xmlns:xlink="http://www.w3.org/1999/xlink" version="1.1" id="Layer_1" x="0px" y="0px" viewBox="0 0 508 508" style="enable-background:new 0 0 508 508;" xml:space="preserve">
<circle style="fill:#90DFAA;" cx="254" cy="254" r="254"/>
<polygon style="fill:#E6E9EE;" points="319.6,95.2 124,95.2 124,412.8 384,412.8 384,159.6 319.6,159.6 "/>
<polygon style="fill:#ACB3BA;" points="319.6,95.2 319.6,159.6 384,159.6 "/>
<g>
	<rect x="154.8" y="220.4" style="fill:#CED5E0;" width="198.4" height="18.8"/>
	<rect x="154.8" y="265.6" style="fill:#CED5E0;" width="198.4" height="18.8"/>
	<rect x="154.8" y="310.8" style="fill:#CED5E0;" width="198.4" height="18.8"/>
	<rect x="154.8" y="355.6" style="fill:#CED5E0;" width="142" height="18.8"/>
</g>
<rect x="154.8" y="122.8" style="fill:#84DBFF;" width="57.6" height="69.2"/>
<path style="fill:#F9B54C;" d="M388.8,260.4c-0.8-0.8-1.6-2.4-1.2-4c2.4-14.4,12.8-26.8,26.8-32l2-0.8c4.8-1.6,8.4-5.6,9.6-10.8  c1.2-4.8-0.4-10-4-13.6c-1.6-1.6-1.6-4.4,0-6.4c1.6-1.6,4.4-1.6,6.4,0c5.6,5.6,8,14,6.4,22s-7.2,14.4-15.2,17.2l-2,0.8  c-10.8,4-19.2,13.6-20.8,25.2c-0.4,2.4-2.8,4-5.2,3.6C390.4,261.6,389.6,261.2,388.8,260.4z"/>
<path style="fill:#54C0EB;" d="M234,355.6c9.2-2.8,23.2-4.8,36,1.6c0,0,6.8-25.2,22.4-44.4l-7.6-7.6l-7.6-7.6  C258,313.2,232.8,320,232.8,320C238.8,332.4,236.8,346.4,234,355.6z"/>
<circle style="fill:#FFFFFF;" cx="255.2" cy="334.4" r="4.8"/>
<path style="fill:#2B3B4E;" d="M289.6,314.8c2,2,5.6,2.4,8.4,0.4c27.6-16.8,65.6-47.2,92.8-74.8c44-44,43.6-62.8,32-74.4  s-30.4-12-74.4,32c-26.8,27.6-57.6,65.6-74.4,93.2c-1.6,2.8-1.6,6.4,0.4,8.4L289.6,314.8z"/>
<path style="fill:#324A5E;" d="M371.6,259.2c6.8-6,13.6-12.4,19.6-18.4c44-44,43.6-62.8,32-74.4c-11.6-11.6-30.4-12-74.4,32  c-6,6-12.4,12.8-18.4,19.6L371.6,259.2z"/>
<path style="fill:#FFD05B;" d="M371.6,259.2L330.4,218c-2-2-4.8-2-6.8,0l0,0c-2,2-2,4.8,0,6.8l41.2,41.2c2,2,4.8,2,6.8,0l0,0  C373.2,264,373.2,261.2,371.6,259.2z"/>
<g>
</g>
<g>
</g>
<g>
</g>
<g>
</g>
<g>
</g>
<g>
</g>
<g>
</g>
<g>
</g>
<g>
</g>
<g>
</g>
<g>
</g>
<g>
</g>
<g>
</g>
<g>
</g>
<g>
</g>
</svg>
