<?xml version="1.0" encoding="iso-8859-1"?>
<!-- Generator: Adobe Illustrator 19.0.0, SVG Export Plug-In . SVG Version: 6.00 Build 0)  -->
<svg xmlns="http://www.w3.org/2000/svg" xmlns:xlink="http://www.w3.org/1999/xlink" version="1.1" id="Layer_1" x="0px" y="0px" viewBox="0 0 508 508" style="enable-background:new 0 0 508 508;" xml:space="preserve">
<circle style="fill:#90DFAA;" cx="254" cy="254" r="254"/>
<g>
	<polygon style="fill:#FF7058;" points="257.6,174.8 271.2,233.6 343.6,233.6 357.2,174.8 386.8,174.8 307.2,95.2 228,174.8  "/>
	<polygon style="fill:#FF7058;" points="278,264 336.8,264 340.4,247.6 274.4,247.6  "/>
	<polygon style="fill:#FF7058;" points="282.8,284.4 332,284.4 334.8,272.8 280,272.8  "/>
</g>
<g>
	<polygon style="fill:#FFFFFF;" points="250.4,333.2 236.8,274.4 164.4,274.4 150.8,333.2 121.2,333.2 200.8,412.8 280,333.2  "/>
	<polygon style="fill:#FFFFFF;" points="230,244 171.2,244 167.6,260.4 233.6,260.4  "/>
	<polygon style="fill:#FFFFFF;" points="225.2,223.6 176,223.6 173.2,235.2 228,235.2  "/>
</g>
<g>
</g>
<g>
</g>
<g>
</g>
<g>
</g>
<g>
</g>
<g>
</g>
<g>
</g>
<g>
</g>
<g>
</g>
<g>
</g>
<g>
</g>
<g>
</g>
<g>
</g>
<g>
</g>
<g>
</g>
</svg>
