<?xml version="1.0" encoding="iso-8859-1"?>
<!-- Generator: Adobe Illustrator 19.0.0, SVG Export Plug-In . SVG Version: 6.00 Build 0)  -->
<svg xmlns="http://www.w3.org/2000/svg" xmlns:xlink="http://www.w3.org/1999/xlink" version="1.1" id="Layer_1" x="0px" y="0px" viewBox="0 0 508 508" style="enable-background:new 0 0 508 508;" xml:space="preserve">
<circle style="fill:#324A5E;" cx="254" cy="254" r="254"/>
<path style="fill:#E6E9EE;" d="M427.6,254c0,95.6-78,173.6-173.6,173.6S80.4,349.6,80.4,254S158.4,80.4,254,80.4  C349.6,80.4,427.6,158.4,427.6,254z"/>
<path style="fill:#54C0EB;" d="M254,75.6c-98.4,0-178.4,80-178.4,178.4s80,178.4,178.4,178.4s178.4-80,178.4-178.4  S352.4,75.6,254,75.6z M153.6,263.6c0.4,26.4,4.4,51.2,10.8,73.6c-10.8,6.4-20.8,13.6-30,22c-22.8-26-37.2-59.2-39.2-95.6H153.6z   M244.4,412.4c-22.8-5.6-43.2-30.4-56.4-66c17.2-8,36.4-12.8,56.4-14V412.4z M263.6,332.4c20,1.2,39.2,6,56.4,14  c-13.2,35.6-33.6,60.4-56.4,66V332.4z M263.6,313.2v-49.6h72c-0.8,23.2-4,44.8-9.6,64.4C306.8,319.6,285.6,314.4,263.6,313.2z   M263.6,244.4v-49.6c22-1.2,43.2-6.4,62.4-14.8c5.6,19.6,8.8,41.6,9.6,64.4H263.6z M263.6,175.6v-80c22.8,5.6,43.2,30.4,56.4,66  C302.8,169.6,283.6,174.4,263.6,175.6z M310,104.8c18.8,7.2,35.6,17.6,50,30.4c-7.2,6.4-14.8,12-22.8,17.2  C330,133.6,320.8,117.2,310,104.8z M244.4,95.6v80c-20-1.2-39.2-6-56.4-14C201.2,126.4,221.6,101.2,244.4,95.6z M170.8,152.4  c-8-5.2-16-10.8-22.8-17.2c14.4-13.2,31.6-23.6,50-30.4C187.2,117.2,178,133.6,170.8,152.4z M244.4,194.8v49.6h-72  c0.8-23.2,4-44.8,9.6-64.4C201.2,188.4,222.4,193.6,244.4,194.8z M244.4,263.6v49.6c-22,1.2-43.2,6.4-62.4,14.8  c-5.6-19.6-8.8-41.6-9.6-64.4H244.4z M170.8,355.6c7.2,18.8,16.4,35.2,27.2,47.6c-18.8-7.2-35.6-17.6-50.4-30.4  C154.8,366.4,162.4,360.8,170.8,355.6z M337.2,355.6c8,5.2,16,10.8,22.8,17.2c-14.4,13.2-31.6,23.6-50.4,30.4  C320.8,390.8,330,374.4,337.2,355.6z M343.6,337.2c6.4-22,10.4-47.2,10.8-73.6h58.4c-2,36.4-16.8,69.6-39.6,95.6  C364.4,350.8,354.4,343.2,343.6,337.2z M354.4,244.4c-0.4-26.4-4.4-51.6-10.8-73.6c10.8-6.4,20.8-13.6,30-22  c22.8,26,37.2,59.2,39.6,95.6H354.4z M134.4,148.8c9.2,8.4,19.2,15.6,30,22c-6.4,22-10.4,47.2-10.8,73.6H94.8  C97.2,208,111.6,174.8,134.4,148.8z"/>
<g>
</g>
<g>
</g>
<g>
</g>
<g>
</g>
<g>
</g>
<g>
</g>
<g>
</g>
<g>
</g>
<g>
</g>
<g>
</g>
<g>
</g>
<g>
</g>
<g>
</g>
<g>
</g>
<g>
</g>
</svg>
