<?xml version="1.0" encoding="iso-8859-1"?>
<!-- Generator: Adobe Illustrator 19.0.0, SVG Export Plug-In . SVG Version: 6.00 Build 0)  -->
<svg xmlns="http://www.w3.org/2000/svg" xmlns:xlink="http://www.w3.org/1999/xlink" version="1.1" id="Layer_1" x="0px" y="0px" viewBox="0 0 508 508" style="enable-background:new 0 0 508 508;" xml:space="preserve">
<circle style="fill:#90DFAA;" cx="254" cy="254" r="254"/>
<path style="fill:#FFFFFF;" d="M414.8,212.8c0,70.4-68,127.6-152,127.6c-32.8,0-62.8-8.8-87.6-23.6c-26.8,14.4-57.6,17.2-82.4,6.8  c24.4-6,40-19.2,48.4-34.4c-19.2-21.2-30.4-48-30.4-76.8c0-70.4,68-127.6,152-127.6C346.8,85.2,414.8,142,414.8,212.8z"/>
<g>
	<rect x="188.8" y="156.8" style="fill:#E6E9EE;" width="148.8" height="15.6"/>
	<rect x="188.8" y="204.8" style="fill:#E6E9EE;" width="148.8" height="15.6"/>
	<rect x="188.8" y="252.8" style="fill:#E6E9EE;" width="148.8" height="15.6"/>
</g>
<circle style="fill:#FFD05B;" cx="320.8" cy="352.4" r="70.8"/>
<polygon style="fill:#FFFFFF;" points="346,318.8 307.6,357.2 291.6,341.2 277.2,355.6 293.2,371.6 307.6,386 322,371.6   360.4,333.2 "/>
<g>
</g>
<g>
</g>
<g>
</g>
<g>
</g>
<g>
</g>
<g>
</g>
<g>
</g>
<g>
</g>
<g>
</g>
<g>
</g>
<g>
</g>
<g>
</g>
<g>
</g>
<g>
</g>
<g>
</g>
</svg>
