<?xml version="1.0" encoding="iso-8859-1"?>
<!-- Generator: Adobe Illustrator 19.0.0, SVG Export Plug-In . SVG Version: 6.00 Build 0)  -->
<svg xmlns="http://www.w3.org/2000/svg" xmlns:xlink="http://www.w3.org/1999/xlink" version="1.1" id="Layer_1" x="0px" y="0px" viewBox="0 0 508 508" style="enable-background:new 0 0 508 508;" xml:space="preserve">
<circle style="fill:#FD8469;" cx="254" cy="254" r="254"/>
<path style="fill:#FFFFFF;" d="M342.8,142.8c0-1.2,0-2,0-3.2c0-22.4-18-40.4-40.4-40.4c-9.6,0-18.4,3.2-25.2,8.8  c-10-19.6-30.4-32.8-54-32.8c-33.6,0-60.8,27.2-60.8,60.8c0,2.4,0,4.4,0.4,6.8c-25.2,2.4-44.4,23.2-44.4,48.8  c0,27.2,22,49.2,49.2,49.2h172.8c27.2,0,49.2-22,49.2-49.2C389.6,165.6,368.8,144,342.8,142.8z"/>
<path style="fill:#E6E9EE;" d="M353.2,432.4H154.8c-7.6,0-13.6-6-13.6-13.6V291.6c0-7.6,6-13.6,13.6-13.6h198  c7.6,0,13.6,6,13.6,13.6v127.2C366.8,426.4,360.8,432.4,353.2,432.4z"/>
<path style="fill:#CED5E0;" d="M362.8,281.6c-2.4-2.4-5.6-4-9.6-4H154.8c-3.6,0-6.8,1.6-9.6,4L254,381.2L362.8,281.6z"/>
<polygon style="fill:#324A5E;" points="276,258 276,186.8 232,186.8 232,258 194.8,258 254,317.2 313.2,258 "/>
<g>
</g>
<g>
</g>
<g>
</g>
<g>
</g>
<g>
</g>
<g>
</g>
<g>
</g>
<g>
</g>
<g>
</g>
<g>
</g>
<g>
</g>
<g>
</g>
<g>
</g>
<g>
</g>
<g>
</g>
</svg>
