<?xml version="1.0" encoding="iso-8859-1"?>
<!-- Generator: Adobe Illustrator 19.0.0, SVG Export Plug-In . SVG Version: 6.00 Build 0)  -->
<svg xmlns="http://www.w3.org/2000/svg" xmlns:xlink="http://www.w3.org/1999/xlink" version="1.1" id="Layer_1" x="0px" y="0px" viewBox="0 0 508 508" style="enable-background:new 0 0 508 508;" xml:space="preserve">
<circle style="fill:#FFD05B;" cx="254" cy="254" r="254"/>
<path style="fill:#FFFFFF;" d="M432.8,254c0,66.8-36.4,124.8-90.8,155.6c-26,14.8-56,23.2-88,23.2c-20.4,0-40.4-3.6-58.8-10  c-6.8-2.4-13.2-5.2-19.6-8C116.8,386,76,325.6,75.6,256l0,0c0-0.8,0-1.2,0-2c0-79.2,51.2-146,122.4-169.6h0.4c0.4,0,0.8-0.4,1.2-0.4  c2.8-0.8,6-2,9.2-2.8c14.4-3.6,29.6-6,45.2-6c11.2,0,22.4,1.2,33.2,3.2c30.4,5.6,58,19.2,80.8,38C407.6,149.2,432.8,198.8,432.8,254  z"/>
<path style="fill:#54C0EB;" d="M199.6,84c-0.4,0.4-0.4,0.4-0.4,0.8c-0.4,0-0.4-0.4-0.8-0.4C198.8,84,199.2,84,199.6,84z"/>
<g>
	<path style="fill:#324A5E;" d="M368,116.8c-3.6,3.6-10.8,4.4-13.6,9.2c-2.4,3.6-1.2,8.8-3.2,12.8c-2.4,4-7.2,5.2-10.8,8   c-3.6,2.8-5.6,7.2-4.4,11.2s6,7.2,10,5.6c-1.2,2-1.6,4.8-0.4,7.2c7.2,0.4,16.4-0.8,18.8-7.6c1.2-4-0.8-8.4-2.4-12.4   s-2.8-8.8,0-12.4c2.4-3.6,10-1.6,8.8,2.4c-0.4,1.2-1.2,2-1.6,3.2c-2.8,5.2,3.6,12,8.8,10c1.2-3.6,5.2-6,8.8-5.2   c3.6,0.8,6.4,4.8,5.6,8.8c0,1.2-0.8,2.4-1.6,2.8c-1.2,0.8-2.4,0.4-3.6,0.4c-7.6-0.8-15.2,4-18.4,10.8c-0.4,1.6-1.2,3.2-2.4,3.6   c-1.2,0.4-2.8,0-4-0.4c-6.4-1.6-13.2,2-19.2,5.2c-1.2,0.8-2.8,1.6-3.6,3.2c-0.8,1.6-0.4,3.2-0.8,4.4c-2.8,6-14.4-0.8-17.6,4.8   c-2.8,4.8,5.2,11.6,1.2,15.2c-1.6,1.6-4,1.2-6,1.2c-9.2,0.8-15.2,12.4-10.8,20c7.6,2,16,0,21.6-5.6c5.2-4.8,8-12,14.4-15.2   c8.8-4.4,19.2,0.8,26.4,7.6s13.6,14.8,23.2,17.2c4.4,1.2,9.6,0.8,13.6,3.2s5.6,9.2,1.2,11.6c-1.2,0.8-8-2-10-2   c-6.8-0.8-14.4,0-21.6,0.4c-1.2,0-2.4,0.4-3.6,0.8c-2-2.4-4.8-4.4-6.8-6c-6.8-5.2-15.6-8.4-24.4-8c-6,0.4-11.6,0.8-17.6,1.2   c-2.4,0-5.2,0.4-6.8,2.4c-1.6,2-1.2,5.2-2.4,7.6c-1.2,2-3.2,2.8-5.2,4c-9.2,5.2-15.2,14.4-18.4,24.4c-3.2,10-3.2,20.8-2.4,31.2   c0.8,8,4,17.6,11.6,18.8c3.6,0.4,7.6-1.2,11.2-2.8c10.4-4,22-5.2,33.2-3.2c-1.2,5.2-2.8,10-4.8,14.8c3.2,5.6,6.4,10.8,9.6,16.4   c0.8,1.2,1.6,2.8,1.6,4c0,1.6-0.4,2.8-1.2,4.4c-4.4,12-4.8,24.8-5.6,37.6c-0.4,4.8-0.4,10.4,0.4,15.2c54-30.8,90.8-88.8,90.8-155.6   C432.8,198.8,407.6,149.2,368,116.8z M360.4,248.8c-5.2-0.8-5.2-4-6-7.2l6.8,7.2C360.8,248.8,360.8,248.8,360.4,248.8z"/>
	<path style="fill:#324A5E;" d="M307.2,177.2c0-2.4,0-5.2,0.8-7.6c1.2-2.8,4-4.8,4.8-7.6c0-0.4,0-1.2,0.4-1.6   c0.4-0.4,0.4-0.4,0.8-0.4c5.2-1.6,11.2,1.2,14.4,6c2.8,4.8,3.2,10.8,1.6,16c-4,0.4-8.4,0.4-12.4-0.4c2,2.4,1.2,6.4-1.6,7.6   c-2.8,1.2-6.4-1.2-6.4-4c0-1.6,0.8-3.2,0-4c-0.4-0.4-1.2-0.4-1.6-0.8C307.2,179.6,307.2,178.4,307.2,177.2z"/>
	<path style="fill:#324A5E;" d="M285.6,99.2c-2.4,9.2-5.6,19.2-13.2,24c-4.4,2.8-9.6,4-13.6,6.8c-9.2,6.8-10,22-20,26.8   c-4.4,2-10,1.6-14-1.6c-4-2.8-6-8.4-5.2-13.2c1.2-6,6-11.2,6-17.2c0-6.8-6.4-11.2-11.2-15.6s-9.6-11.6-6-17.2   c-2.8,1.2-6.4,0.4-8.4-1.6c4.4-2.8,10-4,14.8-2.4c-0.4-3.2-2.8-6-5.6-6.8c14.4-3.6,29.6-6,45.2-6c11.2,0,22.4,1.2,33.2,3.2   c0.4,1.2,0.4,2.4,0.8,3.6C288.4,88,287.2,93.6,285.6,99.2z"/>
	<path style="fill:#324A5E;" d="M214.8,201.6c-1.2,1.2-2.8,1.2-4,1.6c-4.4,0.4-8.8,0.4-13.2,0.4c-2.8-0.4-5.6-0.4-8,1.2   c-1.6,1.2-2.4,2.8-3.2,4.4c-4.4,9.6-10,18.4-16.4,27.2c-1.2,1.6-2.8,3.6-4.8,4.4c-1.2,0.4-2,0.4-3.2,1.2c-0.8,0.8-1.2,2-1.6,3.2   c-0.8,4-0.8,8-1.2,11.6c-0.8,4-2.4,8-5.6,10c-3.2,2-8.4,1.6-10-2c-1.6-4,0.8-10-3.2-12c-1.2-0.4-2.4-0.4-3.6-0.4   c-6.4,0.8-13.2,1.2-19.6,2c0,4.8,3.2,9.2,5.2,14c2,4.4,2,10.8-2,13.6c3.6,7.2,15.6,1.2,22,6c3.6,2.4,4.4,7.2,6,11.2s6,7.6,9.6,5.6   c-1.6,5.2-8.4,7.6-12.8,4.8c-2.4-1.2-3.6-3.6-5.6-5.6c-6-6-15.6-6.4-24-8s-17.6-6.8-18-15.6c0-2.8,1.2-6,0-8.8   c-0.8-2.4-3.6-4-5.6-5.6c-5.6-3.2-11.2-6.4-16.4-10l0,0c0-0.8,0-1.2,0-2c0-79.2,51.2-146,122.4-169.6c2.4,3.6,2,10-2.4,10.8   c-2,0.4-4.8-0.4-6.4,1.2c-1.2,1.2-1.2,2.8-0.8,4.4c1.2,10,7.6,19.2,16.4,24c-1.6,4,0.4,8,1.6,12.4c1.2,4,1.2,9.2-2.8,11.2   c-1.6,0.8-3.6,0.8-5.6,0.8c-4.8,0-9.6-0.4-14.4-0.4c-0.8-5.2-0.4-10.4,1.2-15.2c-4.8-5.6-16-3.6-18.8-10.8c-2-5.6,4-10.8,9.6-12.4   c-3.6-1.2-7.2-2.4-10.8-3.2c-0.8-0.4-2-0.4-2.8-0.4c-0.8,0.4-1.6,0.8-2,1.6c-5.6,7.2-4,18.8,3.6,24.4c1.2,0.8,2.8,1.6,4,2   c1.6,5.6-1.2,11.2-5.2,15.6c-4,4.4-8.8,7.6-12,12c-0.8,0.8-1.2,2-1.6,2.8c-0.4,1.6,0.4,2.8,1.2,4.4c5.2,10.8,12.8,23.2,24.8,24   c1.2-12,1.6-24,1.2-36c4-1.6,8.8-0.4,12,2.8c1.6,1.6,2.4,3.2,4.4,4.4c1.6,1.2,4.4,1.2,5.6-0.4c0.4-0.8,0.8-1.6,0.8-2.4   c1.6-5.6,10-7.6,14.4-3.6c2.8,3.2,3.2,7.6,3.2,12c0.4,8.8,0.4,17.2,0.8,26C216,198.4,216,200.4,214.8,201.6z"/>
	<path style="fill:#324A5E;" d="M236.4,364c-1.6,5.2,0,12,5.2,14.4c-0.4,6.4-7.6,9.6-14,10.8c-6,1.2-13.6,2.8-16,8.8   c-1.2,2.8-0.8,6.4-1.2,9.6s-2,6.8-5.2,7.2c-2,0.4-4.4-0.4-6,0.4c-2.4,0.8-2.8,3.6-3.2,6c0,0.4-0.4,1.2-0.4,1.6   c-6.8-2.4-13.2-5.2-19.6-8c0.4-0.8,0.4-1.2,0.4-2c2-7.6-0.4-16-2.8-23.6c-2.4-7.2-4.4-14.4-6.4-21.6c-0.8-2-1.2-4-2.8-5.6   c-1.2-1.2-3.2-2-4.8-2.8c-7.6-4.4-11.2-13.6-10.8-22.4s4-16.8,7.2-24.8c1.2-2.8,2.4-5.6,5.2-7.2c2-1.2,4.4-1.2,6.4-1.6   c14-0.8,30.4-1.2,39.6,10c2,2.8,3.6,6,6.8,8c2.4,1.6,6,3.6,4.8,6c-0.4,1.2-1.6,1.6-2.4,2.8c-0.8,2.4,2.4,4,4.8,4   c4.8,0.4,9.6,0,13.6,2c4.4,2,7.2,7.6,4.4,11.2c2.4,0.8,4.4,1.6,6.8,2.8C242,354.4,238,358.8,236.4,364z"/>
	<path style="fill:#324A5E;" d="M288.4,129.2c2,1.2,3.6-2.8,6-2.4c0.8,0,1.2,0.4,1.6,0.8c4,2.8,3.6,8.8,3.6,13.6c0,0.8,0,1.2-0.4,2   c-0.4,0.4-1.2,0.8-1.6,1.2c-3.2,1.2-7.2,2-10.8,2c-1.2,0-2.4-0.4-3.2-1.2c-0.8-0.8-0.8-2.4-0.8-3.6c0.8-6.4,5.2-12,10.8-14"/>
	<path style="fill:#324A5E;" d="M166.4,275.6c1.2,0.4,2.4,1.2,2.8,2.4c0.4,0.8,0,2,0.8,2.8c0.4,0.4,1.2,0.4,1.6,0.4   c4.4,0,8.8,0,13.2,0c-0.8,2.4,1.2,5.2-0.4,6.8c-0.4,0.4-1.6,0.8-2.4,0.8c-4.8,0.4-9.6,1.2-14,0s-9.2-4-10.4-8.4   c-0.4-1.6-0.4-2.8-1.2-4.4c-0.8-1.2-2.4-2.4-3.6-1.6C157.2,273.2,162,274,166.4,275.6z"/>
</g>
<g>
</g>
<g>
</g>
<g>
</g>
<g>
</g>
<g>
</g>
<g>
</g>
<g>
</g>
<g>
</g>
<g>
</g>
<g>
</g>
<g>
</g>
<g>
</g>
<g>
</g>
<g>
</g>
<g>
</g>
</svg>
