<?xml version="1.0" encoding="iso-8859-1"?>
<!-- Generator: Adobe Illustrator 19.0.0, SVG Export Plug-In . SVG Version: 6.00 Build 0)  -->
<svg xmlns="http://www.w3.org/2000/svg" xmlns:xlink="http://www.w3.org/1999/xlink" version="1.1" id="Layer_1" x="0px" y="0px" viewBox="0 0 508 508" style="enable-background:new 0 0 508 508;" xml:space="preserve">
<circle style="fill:#FD8469;" cx="254" cy="254" r="254"/>
<path style="fill:#84DBFF;" d="M391.2,374H116.8c-6.4,0-11.6-5.2-11.6-11.6V145.6c0-6.4,5.2-11.6,11.6-11.6h274.8  c6.4,0,11.6,5.2,11.6,11.6v217.2C402.8,368.8,397.6,374,391.2,374z"/>
<rect x="118.4" y="184.8" style="fill:#FFFFFF;" width="270.8" height="176"/>
<g>
	<path style="fill:#324A5E;" d="M177.2,346c0.8,5.2,2.4,10,4,14.4h45.6c-7.6-7.2-12.4-17.6-12.4-28.8c0-22,17.6-39.6,39.6-39.6   s39.6,17.6,39.6,39.6c0,11.2-4.8,21.6-12.4,28.8h45.6c1.6-4,2.8-8.4,3.6-12.4l17.2-4v-22.4l-16.8-4c-2-10.4-6-20-11.2-28.4   l9.2-15.2l-16-16l-14.8,9.2c-8.4-5.6-18-10-28-12l-4-17.2h-22.4l-4,16.8c-10.4,2-20,6-28.4,11.2l-15.2-9.2l-16,16l9.2,14.8   c-5.6,8.4-10,18-12,28l-17.2,4V342L177.2,346z"/>
	<circle style="fill:#324A5E;" cx="254" cy="332" r="15.6"/>
	<circle style="fill:#324A5E;" cx="369.2" cy="159.6" r="10"/>
	<circle style="fill:#324A5E;" cx="331.6" cy="159.6" r="10"/>
	<circle style="fill:#324A5E;" cx="294" cy="159.6" r="10"/>
</g>
<g>
</g>
<g>
</g>
<g>
</g>
<g>
</g>
<g>
</g>
<g>
</g>
<g>
</g>
<g>
</g>
<g>
</g>
<g>
</g>
<g>
</g>
<g>
</g>
<g>
</g>
<g>
</g>
<g>
</g>
</svg>
