<?xml version="1.0" encoding="iso-8859-1"?>
<!-- Generator: Adobe Illustrator 19.0.0, SVG Export Plug-In . SVG Version: 6.00 Build 0)  -->
<svg xmlns="http://www.w3.org/2000/svg" xmlns:xlink="http://www.w3.org/1999/xlink" version="1.1" id="Layer_1" x="0px" y="0px" viewBox="0 0 508 508" style="enable-background:new 0 0 508 508;" xml:space="preserve">
<circle style="fill:#324A5E;" cx="254" cy="254" r="254"/>
<path style="fill:#E6E9EE;" d="M391.2,374H116.8c-6.4,0-11.6-5.2-11.6-11.6V145.6c0-6.4,5.2-11.6,11.6-11.6h274.8  c6.4,0,11.6,5.2,11.6,11.6v217.2C402.8,368.8,397.6,374,391.2,374z"/>
<rect x="118.4" y="184.8" style="fill:#84DBFF;" width="270.8" height="176"/>
<circle style="fill:#FF7058;" cx="369.2" cy="159.6" r="10"/>
<circle style="fill:#FFD05B;" cx="331.6" cy="159.6" r="10"/>
<circle style="fill:#ACB3BA;" cx="294" cy="159.6" r="10"/>
<path style="fill:#FFFFFF;" d="M343.6,310.8c0,18.4-5.6,35.6-15.2,50H179.6c-9.6-14.4-15.2-31.6-15.2-50c0-49.6,40-89.6,89.6-89.6  C303.6,221.2,343.6,261.2,343.6,310.8z"/>
<path style="fill:#FF7058;" d="M184.4,360.8c-9.6-13.6-15.2-30.4-15.2-48.4c0-46.8,38-84.8,84.8-84.8s84.8,38,84.8,84.8  c0,18-5.6,34.8-15.2,48.4h17.2c8-14.4,12.8-30.8,12.8-48.4c0-54.8-44.4-99.6-99.6-99.6c-54.8,0-99.6,44.4-99.6,99.6  c0,17.6,4.8,34.4,12.8,48.4H184.4z"/>
<path id="SVGCleanerId_0" style="fill:#2B3B4E;" d="M268,265.6c-7.6-7.2-12.8-19.6-14-23.2c-1.2,3.6-6.4,15.6-14,23.2  c0,0,6.8-4.4,12-2.4V312h4.4v-48.8C261.2,261.2,268,265.6,268,265.6z"/>
<g>
	<path id="SVGCleanerId_0_1_" style="fill:#2B3B4E;" d="M268,265.6c-7.6-7.2-12.8-19.6-14-23.2c-1.2,3.6-6.4,15.6-14,23.2   c0,0,6.8-4.4,12-2.4V312h4.4v-48.8C261.2,261.2,268,265.6,268,265.6z"/>
</g>
<path style="fill:#2B3B4E;" d="M288.8,326c7.2-7.6,19.6-12.8,23.2-14c-3.6-1.2-15.6-6.4-23.2-14c0,0,4.4,6.8,2.4,12H254v4h37.2  C293.2,319.2,288.8,326,288.8,326z"/>
<circle style="fill:#324A5E;" cx="254" cy="312" r="9.6"/>
<g>
</g>
<g>
</g>
<g>
</g>
<g>
</g>
<g>
</g>
<g>
</g>
<g>
</g>
<g>
</g>
<g>
</g>
<g>
</g>
<g>
</g>
<g>
</g>
<g>
</g>
<g>
</g>
<g>
</g>
</svg>
