<?xml version="1.0" encoding="iso-8859-1"?>
<!-- Generator: Adobe Illustrator 19.0.0, SVG Export Plug-In . SVG Version: 6.00 Build 0)  -->
<svg xmlns="http://www.w3.org/2000/svg" xmlns:xlink="http://www.w3.org/1999/xlink" version="1.1" id="Layer_1" x="0px" y="0px" viewBox="0 0 508 508" style="enable-background:new 0 0 508 508;" xml:space="preserve">
<circle style="fill:#90DFAA;" cx="254" cy="254" r="254"/>
<path style="fill:#FFFFFF;" d="M324,323.6H172.8c-4.4,0-8-3.6-8-8V164.4c0-4.4,3.6-8,8-8H324c4.4,0,8,3.6,8,8v151.2  C332,320,328.4,323.6,324,323.6z M180.8,307.6H316V172.4H180.8V307.6z"/>
<g>
	<path style="fill:#2B3B4E;" d="M223.6,244.8c-5.2-16.8-21.2-29.2-40-29.2s-34.4,12.4-40,29.2H223.6z"/>
	<path style="fill:#2B3B4E;" d="M364,395.2c-5.2-16.8-21.2-29.2-40-29.2s-34.4,12.4-40,29.2H364z"/>
</g>
<path style="fill:#324A5E;" d="M257.2,222.8H110.4c-5.2,0-9.2-4.4-9.2-9.2V122c0-5.2,4.4-9.2,9.2-9.2h146.8c5.2,0,9.2,4.4,9.2,9.2  v91.2C266.8,218.8,262.4,222.8,257.2,222.8z"/>
<rect x="114.4" y="126" style="fill:#84DBFF;" width="138.8" height="76.8"/>
<path style="fill:#324A5E;" d="M397.6,374H250.8c-5.2,0-9.2-4.4-9.2-9.2v-91.6c0-5.2,4.4-9.2,9.2-9.2h146.8c5.2,0,9.2,4.4,9.2,9.2  v91.2C406.8,370,402.4,374,397.6,374z"/>
<rect x="254.8" y="277.2" style="fill:#84DBFF;" width="138.8" height="76.8"/>
<g>
</g>
<g>
</g>
<g>
</g>
<g>
</g>
<g>
</g>
<g>
</g>
<g>
</g>
<g>
</g>
<g>
</g>
<g>
</g>
<g>
</g>
<g>
</g>
<g>
</g>
<g>
</g>
<g>
</g>
</svg>
