<?xml version="1.0" encoding="iso-8859-1"?>
<!-- Generator: Adobe Illustrator 19.0.0, SVG Export Plug-In . SVG Version: 6.00 Build 0)  -->
<svg xmlns="http://www.w3.org/2000/svg" xmlns:xlink="http://www.w3.org/1999/xlink" version="1.1" id="Layer_1" x="0px" y="0px" viewBox="0 0 508 508" style="enable-background:new 0 0 508 508;" xml:space="preserve">
<circle style="fill:#FFD05B;" cx="254" cy="254" r="254"/>
<path style="fill:#FFFFFF;" d="M248,322v-18.4l-13.6-3.2c-1.6-8.4-4.8-16-9.2-22.8l7.6-12.4L220,252.4l-12,7.2  c-6.8-4.8-14.4-8-22.8-9.6l-3.2-14h-18.4l-3.2,14c-8.4,1.6-16,4.8-22.8,9.2l-12.4-7.6l-12.8,12.8l7.2,12c-4.8,6.8-8,14.4-9.6,22.8  l-14,3.2v18.4l13.6,3.2c1.6,8.4,4.8,16,9.2,22.8l-7.6,12.4L124,372l12-7.2c6.8,4.8,14.4,8,22.8,9.6l3.2,14h18.4l3.2-13.6  c8.4-1.6,16-4.8,23.2-9.2l12.4,7.6l12.8-12.8l-7.2-12c4.8-6.8,8-14.4,9.6-22.8L248,322z M172,344.4c-17.6,0-32.4-14.4-32.4-32.4  s14.4-32.4,32.4-32.4c17.6,0,32.4,14.4,32.4,32.4C204,330,189.6,344.4,172,344.4z"/>
<path style="fill:#324A5E;" d="M350.8,364.4l3.2-11.6l-8.4-4.8c0.4-5.6,0-11.2-1.6-16.4l7.2-6.4l-6-10.8l-9.2,2.4  c-3.6-4.4-8-8-12.8-10.4l0.4-9.6l-11.6-3.2l-4.8,8c-5.6-0.4-11.2,0-16.4,1.6l-6.4-7.2l-10.4,6l2.4,9.2c-4.4,3.6-8,8-10.4,12.8  l-9.6-0.4l-3.2,11.6l8.4,4.8c-0.4,5.6,0,11.2,1.6,16.4l-7.2,6.4l6,10.8l9.2-2.4c3.6,4.4,8,8,12.8,10.4l-0.4,9.6l11.6,3.2l4.8-8  c5.6,0.4,11.2,0,16.4-1.6l6.4,7.2l10.8-6l-2.4-9.2c4.4-3.6,8-8,10.4-12.8L350.8,364.4z M297.6,364.4c-11.6-3.2-18-15.2-14.8-26.8  c3.2-11.6,15.2-18,26.8-14.8c11.6,3.2,18,15.2,14.8,26.8C320.8,361.2,308.8,368,297.6,364.4z"/>
<g>
	<path style="fill:#FF7058;" d="M384,228l7.6-22.8l-15.6-10c1.6-11.2,1.2-22-1.6-32.4l14.8-12l-10.4-21.6l-18,4   c-6.4-8.8-14.4-16-24-22l2-18.8L316,84.8l-10,16c-11.2-1.6-22-1.2-32.4,1.6l-12-14.8L240,98l4,18c-8.8,6.4-16,14.4-22,24l-18.8-2   l-7.6,22.8l15.6,10c-1.6,11.2-1.2,22,1.6,32.4l-14.8,12l10.4,21.6l18-4c6.4,8.8,14.4,16,24,22l-2,18.8l22.8,7.6l10-15.6   c11.2,1.6,22,1.2,32.4-1.6l12,14.8l21.6-10.4l-4-18c8.8-6.4,16-14.4,22-24L384,228z M280,223.6c-22-7.6-34-31.6-26.4-53.6   s31.6-34,53.6-26.4s34,31.6,26.4,53.6S302,231.2,280,223.6z"/>
	<circle style="fill:#FF7058;" cx="293.6" cy="183.6" r="16.8"/>
</g>
<g>
</g>
<g>
</g>
<g>
</g>
<g>
</g>
<g>
</g>
<g>
</g>
<g>
</g>
<g>
</g>
<g>
</g>
<g>
</g>
<g>
</g>
<g>
</g>
<g>
</g>
<g>
</g>
<g>
</g>
</svg>
