<?xml version="1.0" encoding="iso-8859-1"?>
<!-- Generator: Adobe Illustrator 19.0.0, SVG Export Plug-In . SVG Version: 6.00 Build 0)  -->
<svg xmlns="http://www.w3.org/2000/svg" xmlns:xlink="http://www.w3.org/1999/xlink" version="1.1" id="Layer_1" x="0px" y="0px" viewBox="0 0 508 508" style="enable-background:new 0 0 508 508;" xml:space="preserve">
<circle style="fill:#90DFAA;" cx="254" cy="254" r="254"/>
<rect x="106.8" y="105.2" style="fill:#FFFFFF;" width="294" height="297.6"/>
<g>
	<rect x="172.4" y="264.4" style="fill:#324A5E;" width="163.2" height="138.4"/>
	<rect x="172.4" y="105.2" style="fill:#324A5E;" width="163.2" height="138.4"/>
</g>
<g>
	<rect x="353.2" y="105.2" style="fill:#2B3B4E;" width="30" height="32.4"/>
	<rect x="353.2" y="158.4" style="fill:#2B3B4E;" width="30" height="32.4"/>
	<rect x="353.2" y="211.2" style="fill:#2B3B4E;" width="30" height="32.4"/>
	<rect x="353.2" y="264.4" style="fill:#2B3B4E;" width="30" height="32.4"/>
	<rect x="353.2" y="317.6" style="fill:#2B3B4E;" width="30" height="32.4"/>
	<rect x="353.2" y="370.4" style="fill:#2B3B4E;" width="30" height="32.4"/>
</g>
<g>
	<rect x="124.8" y="105.2" style="fill:#324A5E;" width="30" height="32.4"/>
	<rect x="124.8" y="158.4" style="fill:#324A5E;" width="30" height="32.4"/>
	<rect x="124.8" y="211.2" style="fill:#324A5E;" width="30" height="32.4"/>
	<rect x="124.8" y="264.4" style="fill:#324A5E;" width="30" height="32.4"/>
	<rect x="124.8" y="317.6" style="fill:#324A5E;" width="30" height="32.4"/>
	<rect x="124.8" y="370.4" style="fill:#324A5E;" width="30" height="32.4"/>
</g>
<g>
</g>
<g>
</g>
<g>
</g>
<g>
</g>
<g>
</g>
<g>
</g>
<g>
</g>
<g>
</g>
<g>
</g>
<g>
</g>
<g>
</g>
<g>
</g>
<g>
</g>
<g>
</g>
<g>
</g>
</svg>
