<?xml version="1.0" encoding="iso-8859-1"?>
<!-- Generator: Adobe Illustrator 19.0.0, SVG Export Plug-In . SVG Version: 6.00 Build 0)  -->
<svg xmlns="http://www.w3.org/2000/svg" xmlns:xlink="http://www.w3.org/1999/xlink" version="1.1" id="Layer_1" x="0px" y="0px" viewBox="0 0 508 508" style="enable-background:new 0 0 508 508;" xml:space="preserve">
<circle style="fill:#324A5E;" cx="254" cy="254" r="254"/>
<path style="fill:#FFFFFF;" d="M364.4,159.2c0-1.2,0.4-2.8,0.4-4c0-27.6-22.4-50.4-50.4-50.4c-12,0-22.8,4-31.6,11.2  c-12.4-24.4-38-40.8-67.2-40.8c-41.6,0-75.6,34-75.6,75.6c0,2.8,0,5.6,0.4,8.4c-31.2,2.8-55.6,29.2-55.6,60.8  c0,34,27.6,61.2,61.2,61.2h215.2c34,0,61.2-27.6,61.2-61.2C422.8,187.6,396.8,160.8,364.4,159.2z"/>
<rect x="154.4" y="274.4" style="fill:#2C9984;" width="199.2" height="118"/>
<path style="fill:#4CDBC4;" d="M363.6,288.8H144.4c-3.6,0-6.4-2.8-6.4-6.8v-40.8c0-3.6,3.2-6.8,6.8-6.8h218.8c3.6,0,6.8,3.2,6.8,6.8  V282C370,286,367.2,288.8,363.6,288.8z"/>
<path style="fill:#FF7058;" d="M171.6,274L171.6,274c-6.8,0-12.4-5.6-12.4-12.4l0,0c0-6.8,5.6-12.4,12.4-12.4l0,0  c6.8,0,12.4,5.6,12.4,12.4l0,0C184,268.4,178.4,274,171.6,274z"/>
<g>
	<path style="fill:#FFFFFF;" d="M288,278.8L288,278.8c-2,0-4-1.6-4-4v-26.4c0-2,1.6-4,4-4l0,0c2,0,4,1.6,4,4v26.4   C291.6,276.8,290,278.8,288,278.8z"/>
	<path style="fill:#FFFFFF;" d="M303.6,278.8L303.6,278.8c-2,0-4-1.6-4-4v-26.4c0-2,1.6-4,4-4l0,0c2,0,4,1.6,4,4v26.4   C307.6,276.8,305.6,278.8,303.6,278.8z"/>
	<path style="fill:#FFFFFF;" d="M319.6,278.8L319.6,278.8c-2,0-4-1.6-4-4v-26.4c0-2,1.6-4,4-4l0,0c2,0,4,1.6,4,4v26.4   C323.2,276.8,321.6,278.8,319.6,278.8z"/>
	<path style="fill:#FFFFFF;" d="M335.2,278.8L335.2,278.8c-2,0-4-1.6-4-4v-26.4c0-2,1.6-4,4-4l0,0c2,0,4,1.6,4,4v26.4   C339.2,276.8,337.2,278.8,335.2,278.8z"/>
	<path style="fill:#FFFFFF;" d="M351.2,278.8L351.2,278.8c-2,0-4-1.6-4-4v-26.4c0-2,1.6-4,4-4l0,0c2,0,4,1.6,4,4v26.4   C354.8,276.8,353.2,278.8,351.2,278.8z"/>
</g>
<path style="fill:#4CDBC4;" d="M363.6,360.8H144.4c-3.6,0-6.8-3.2-6.8-6.8v-40.8c0-3.6,3.2-6.8,6.8-6.8h218.8c3.6,0,6.8,3.2,6.8,6.8  V354C370,357.6,367.2,360.8,363.6,360.8z"/>
<path style="fill:#FF7058;" d="M171.6,346L171.6,346c-6.8,0-12.4-5.6-12.4-12.4l0,0c0-6.8,5.6-12.4,12.4-12.4l0,0  c6.8,0,12.4,5.6,12.4,12.4l0,0C184,340.4,178.4,346,171.6,346z"/>
<g>
	<path style="fill:#FFFFFF;" d="M288,350.4L288,350.4c-2,0-4-1.6-4-4V320c0-2,1.6-4,4-4l0,0c2,0,4,1.6,4,4v26.4   C291.6,348.8,290,350.4,288,350.4z"/>
	<path style="fill:#FFFFFF;" d="M303.6,350.4L303.6,350.4c-2,0-4-1.6-4-4V320c0-2,1.6-4,4-4l0,0c2,0,4,1.6,4,4v26.4   C307.6,348.8,305.6,350.4,303.6,350.4z"/>
	<path style="fill:#FFFFFF;" d="M319.6,350.4L319.6,350.4c-2,0-4-1.6-4-4V320c0-2,1.6-4,4-4l0,0c2,0,4,1.6,4,4v26.4   C323.2,348.8,321.6,350.4,319.6,350.4z"/>
	<path style="fill:#FFFFFF;" d="M335.2,350.4L335.2,350.4c-2,0-4-1.6-4-4V320c0-2,1.6-4,4-4l0,0c2,0,4,1.6,4,4v26.4   C339.2,348.8,337.2,350.4,335.2,350.4z"/>
	<path style="fill:#FFFFFF;" d="M351.2,350.4L351.2,350.4c-2,0-4-1.6-4-4V320c0-2,1.6-4,4-4l0,0c2,0,4,1.6,4,4v26.4   C354.8,348.8,353.2,350.4,351.2,350.4z"/>
</g>
<path style="fill:#4CDBC4;" d="M363.6,432.4H144.4c-3.6,0-6.8-3.2-6.8-6.8v-40.8c0-3.6,3.2-6.8,6.8-6.8h218.8c3.6,0,6.8,3.2,6.8,6.8  V426C370,429.6,367.2,432.4,363.6,432.4z"/>
<path style="fill:#FF7058;" d="M171.6,417.6L171.6,417.6c-6.8,0-12.4-5.6-12.4-12.4l0,0c0-6.8,5.6-12.4,12.4-12.4l0,0  c6.8,0,12.4,5.6,12.4,12.4l0,0C184,412,178.4,417.6,171.6,417.6z"/>
<g>
	<path style="fill:#FFFFFF;" d="M288,422.4L288,422.4c-2,0-4-1.6-4-4V392c0-2,1.6-4,4-4l0,0c2,0,4,1.6,4,4v26.4   C291.6,420.8,290,422.4,288,422.4z"/>
	<path style="fill:#FFFFFF;" d="M303.6,422.4L303.6,422.4c-2,0-4-1.6-4-4V392c0-2,1.6-4,4-4l0,0c2,0,4,1.6,4,4v26.4   C307.6,420.8,305.6,422.4,303.6,422.4z"/>
	<path style="fill:#FFFFFF;" d="M319.6,422.4L319.6,422.4c-2,0-4-1.6-4-4V392c0-2,1.6-4,4-4l0,0c2,0,4,1.6,4,4v26.4   C323.2,420.8,321.6,422.4,319.6,422.4z"/>
	<path style="fill:#FFFFFF;" d="M335.2,422.4L335.2,422.4c-2,0-4-1.6-4-4V392c0-2,1.6-4,4-4l0,0c2,0,4,1.6,4,4v26.4   C339.2,420.8,337.2,422.4,335.2,422.4z"/>
	<path style="fill:#FFFFFF;" d="M351.2,422.4L351.2,422.4c-2,0-4-1.6-4-4V392c0-2,1.6-4,4-4l0,0c2,0,4,1.6,4,4v26.4   C354.8,420.8,353.2,422.4,351.2,422.4z"/>
</g>
<g>
</g>
<g>
</g>
<g>
</g>
<g>
</g>
<g>
</g>
<g>
</g>
<g>
</g>
<g>
</g>
<g>
</g>
<g>
</g>
<g>
</g>
<g>
</g>
<g>
</g>
<g>
</g>
<g>
</g>
</svg>
