<?xml version="1.0" encoding="iso-8859-1"?>
<!-- Generator: Adobe Illustrator 19.0.0, SVG Export Plug-In . SVG Version: 6.00 Build 0)  -->
<svg xmlns="http://www.w3.org/2000/svg" xmlns:xlink="http://www.w3.org/1999/xlink" version="1.1" id="Layer_1" x="0px" y="0px" viewBox="0 0 508 508" style="enable-background:new 0 0 508 508;" xml:space="preserve">
<circle style="fill:#FD8469;" cx="254" cy="254" r="254"/>
<path style="fill:#324A5E;" d="M402.8,357.2H105.2c-5.6,0-10-4.4-10-10V160.8c0-5.6,4.4-10,10-10h297.6c5.6,0,10,4.4,10,10v186.4  C412.8,352.8,408.4,357.2,402.8,357.2z"/>
<rect x="119.6" y="175.2" style="fill:#E6E9EE;" width="269.2" height="150.8"/>
<rect x="164" y="192.4" style="fill:#4CDBC4;" width="51.2" height="51.2"/>
<rect x="164" y="257.2" style="fill:#FF7058;" width="51.2" height="51.2"/>
<rect x="226" y="234.8" style="fill:#54C0EB;" width="73.6" height="73.6"/>
<rect x="226" y="192.4" style="fill:#FF7058;" width="30" height="30"/>
<rect x="270" y="192.4" style="fill:#FFD05B;" width="30" height="30"/>
<rect x="314.4" y="192.4" style="fill:#FF7058;" width="30" height="30"/>
<rect x="314.4" y="236.4" style="fill:#ACB3BA;" width="30" height="30"/>
<rect x="314.4" y="278.4" style="fill:#FFFFFF;" width="30" height="30"/>
<g>
	<rect x="229.2" y="338" style="fill:#2B3B4E;" width="49.6" height="6.4"/>
	<circle style="fill:#2B3B4E;" cx="254" cy="161.6" r="4.4"/>
</g>
<g>
</g>
<g>
</g>
<g>
</g>
<g>
</g>
<g>
</g>
<g>
</g>
<g>
</g>
<g>
</g>
<g>
</g>
<g>
</g>
<g>
</g>
<g>
</g>
<g>
</g>
<g>
</g>
<g>
</g>
</svg>
