<?xml version="1.0" encoding="iso-8859-1"?>
<!-- Generator: Adobe Illustrator 19.0.0, SVG Export Plug-In . SVG Version: 6.00 Build 0)  -->
<svg xmlns="http://www.w3.org/2000/svg" xmlns:xlink="http://www.w3.org/1999/xlink" version="1.1" id="Layer_1" x="0px" y="0px" viewBox="0 0 508 508" style="enable-background:new 0 0 508 508;" xml:space="preserve">
<circle style="fill:#FFD05B;" cx="254" cy="254" r="254"/>
<path style="fill:#FFFFFF;" d="M391.2,374H116.8c-6.4,0-11.6-5.2-11.6-11.6V145.6c0-6.4,5.2-11.6,11.6-11.6h274.8  c6.4,0,11.6,5.2,11.6,11.6v217.2C402.8,368.8,397.6,374,391.2,374z"/>
<rect x="129.2" y="184.8" style="fill:#324A5E;" width="249.6" height="163.6"/>
<circle style="fill:#FF7058;" cx="369.2" cy="159.6" r="10"/>
<circle style="fill:#FFD05B;" cx="331.6" cy="159.6" r="10"/>
<circle style="fill:#ACB3BA;" cx="294" cy="159.6" r="10"/>
<path style="fill:#FFFFFF;" d="M314.8,316.4l-5.6-5.6l11.6-11.6l-6.8-6.8L302.4,304l-4.4-4.4l10-10l-6.8-6.8l-10,10L256,257.6  c9.2-15.6,6-36.4-9.2-48c-13.2-10.4-32.4-10.4-45.6,0.4c-17.6,14-18.4,39.6-3.2,55.2c12.4,12.4,30.8,14,45.2,5.6l58.8,58.4  c3.6,3.6,9.2,3.6,12.8,0S318.4,320,314.8,316.4z M210.8,252c-7.2-7.2-7.6-19.2,0-26.8c7.2-7.2,19.6-7.2,26.8,0  c7.6,7.6,7.2,19.6,0,26.8C230,259.2,218,259.2,210.8,252z"/>
<g>
</g>
<g>
</g>
<g>
</g>
<g>
</g>
<g>
</g>
<g>
</g>
<g>
</g>
<g>
</g>
<g>
</g>
<g>
</g>
<g>
</g>
<g>
</g>
<g>
</g>
<g>
</g>
<g>
</g>
</svg>
