<?xml version="1.0" encoding="iso-8859-1"?>
<!-- Generator: Adobe Illustrator 19.0.0, SVG Export Plug-In . SVG Version: 6.00 Build 0)  -->
<svg xmlns="http://www.w3.org/2000/svg" xmlns:xlink="http://www.w3.org/1999/xlink" version="1.1" id="Layer_1" x="0px" y="0px" viewBox="0 0 508 508" style="enable-background:new 0 0 508 508;" xml:space="preserve">
<circle style="fill:#324A5E;" cx="254" cy="254" r="254"/>
<path style="fill:#F9B54C;" d="M316.8,253.6l22.4,20.4c2,2,3.2,4.8,3.2,7.6v94.8c0,5.6-4.8,10.4-10.4,10.4h-18.4H134  c-5.6,0-10.4-4.8-10.4-10.4v-252c0-5.6,4.8-10.4,10.4-10.4h169.2c5.6,0,10.4,4.8,10.4,10.4V246C313.6,248.8,314.8,251.6,316.8,253.6  z"/>
<path style="fill:#E6E9EE;" d="M400.4,202c-34-50-102.4-63.2-152.4-29.2s-63.2,102.4-29.2,152.4s102.4,63.2,152.4,29.2  S434.4,252,400.4,202z M297.2,272c-4.8-6.8-2.8-16.4,4-20.8c6.8-4.8,16.4-2.8,20.8,4c4.8,6.8,2.8,16.4-4,20.8  C311.2,280.8,301.6,278.8,297.2,272z"/>
<g>
	<path style="fill:#CED5E0;" d="M368.8,342.8c18.8-14,31.6-33.6,36.8-55.2l-52.8-10c-2.4,8-7.2,15.2-14,20.8L368.8,342.8z    M306.4,308.4l-10,52.8c22,3.2,44.8-1.2,64.8-13.6l-30-44.4C323.2,307.2,314.8,309.2,306.4,308.4z M250.4,184.4   c-18.8,14-31.6,33.6-36.8,55.2l53.2,10.4c2.4-8,7.2-15.2,14-20.8L250.4,184.4z M312.8,218.8l10-52.8c-22-3.2-44.8,1.2-64.8,13.6   l30,44.4C296,220,304.4,218,312.8,218.8z"/>
	<path style="fill:#CED5E0;" d="M336.8,245.2c-10-15.2-30.8-19.2-45.6-8.8c-15.2,10.4-19.2,30.8-8.8,46c10.4,15.2,30.8,19.2,46,8.8   C343.2,280.8,347.2,260,336.8,245.2z M297.2,272c-4.8-6.8-2.8-16.4,4-20.8c6.8-4.8,16.4-2.8,20.8,4c4.8,6.8,2.8,16.4-4,20.8   C311.2,280.8,301.6,278.8,297.2,272z"/>
</g>
<path style="fill:#FFD05B;" d="M272.4,412.8l-136.8-25.6c-6.4-1.2-11.6-6.8-11.6-12.4v-252c0-5.6,5.2-9.2,11.6-8l136.8,25.6  c6.4,1.2,11.6,6.8,11.6,12.4v252C284,410.4,278.8,414,272.4,412.8z"/>
<g>
</g>
<g>
</g>
<g>
</g>
<g>
</g>
<g>
</g>
<g>
</g>
<g>
</g>
<g>
</g>
<g>
</g>
<g>
</g>
<g>
</g>
<g>
</g>
<g>
</g>
<g>
</g>
<g>
</g>
</svg>
