<?xml version="1.0" encoding="iso-8859-1"?>
<!-- Generator: Adobe Illustrator 19.0.0, SVG Export Plug-In . SVG Version: 6.00 Build 0)  -->
<svg xmlns="http://www.w3.org/2000/svg" xmlns:xlink="http://www.w3.org/1999/xlink" version="1.1" id="Layer_1" x="0px" y="0px" viewBox="0 0 508 508" style="enable-background:new 0 0 508 508;" xml:space="preserve">
<circle style="fill:#90DFAA;" cx="254" cy="254" r="254"/>
<path style="fill:#2C9984;" d="M57.6,415.2C104,472,174.8,508,254,508s149.6-36,196.4-92.8H57.6z"/>
<polygon style="fill:#2B3B4E;" points="300,361.6 208,361.6 192,415.2 316,415.2 "/>
<path style="fill:#324A5E;" d="M394.8,361.6H113.2c-10,0-18-8-18-18V168.4c0-10,8-18,18-18h281.6c10,0,18,8,18,18v175.2  C412.8,353.6,404.8,361.6,394.8,361.6z"/>
<rect x="120.8" y="176" style="fill:#84DBFF;" width="266.4" height="147.6"/>
<path style="fill:#FF7058;" d="M293.2,98.8c-16,0-30,7.2-39.2,18.4c-9.2-11.2-23.6-18.4-39.2-18.4c-28.4,0-51.2,22.8-51.2,51.2  c0,80.4,90.4,113.6,90.4,113.6s90.4-33.6,90.4-114C344.4,121.6,321.6,98.8,293.2,98.8z"/>
<g>
</g>
<g>
</g>
<g>
</g>
<g>
</g>
<g>
</g>
<g>
</g>
<g>
</g>
<g>
</g>
<g>
</g>
<g>
</g>
<g>
</g>
<g>
</g>
<g>
</g>
<g>
</g>
<g>
</g>
</svg>
