<?xml version="1.0" encoding="iso-8859-1"?>
<!-- Generator: Adobe Illustrator 19.0.0, SVG Export Plug-In . SVG Version: 6.00 Build 0)  -->
<svg xmlns="http://www.w3.org/2000/svg" xmlns:xlink="http://www.w3.org/1999/xlink" version="1.1" id="Layer_1" x="0px" y="0px" viewBox="0 0 508.003 508.003" style="enable-background:new 0 0 508.003 508.003;" xml:space="preserve">
<circle style="fill:#FD8469;" cx="254.002" cy="254" r="254"/>
<path style="fill:#F1543F;" d="M57.602,414.4c46.4,56.8,116.8,93.2,196,93.6c79.2,0.4,150-35.6,196.8-92L57.602,414.4z"/>
<polygon style="fill:#2B3B4E;" points="300.002,362 208.402,361.6 192.002,391.2 316.402,391.6 "/>
<g>
	<path style="fill:#324A5E;" d="M333.602,416.4l-159.6-0.8c-6.8,0-12.4-5.6-12.4-12.4l0,0c0-6.8,5.6-12.4,12.4-12.4l160,0.8   c6.8,0,12.4,5.6,12.4,12.4l0,0C346.002,410.8,340.402,416.4,333.602,416.4z"/>
	<path style="fill:#324A5E;" d="M394.802,362.4l-281.6-1.2c-10,0-18-8-18-18l0.8-175.2c0-10,8-18,18-18l281.6,1.2c10,0,18,8,18,18   l-0.8,175.2C413.202,354.4,404.802,362.4,394.802,362.4z"/>
</g>
<rect x="181.07" y="116.701" transform="matrix(0.0047 -1 1 0.0047 3.7706 503.5943)" style="fill:#84DBFF;" width="147.602" height="266.403"/>
<path style="fill:#FFFFFF;" d="M302.002,91.2c-41.6,0-75.6,33.2-75.6,74.8c0,16.4,5.2,31.6,14,44l-14.4,52l48-25.6  c8.4,3.2,17.6,5.2,27.2,5.2c41.6,0,75.6-33.2,75.6-74.8C377.202,125.2,343.602,91.6,302.002,91.2z"/>
<g>
	<circle style="fill:#FF7058;" cx="336.402" cy="166.8" r="10.8"/>
	<circle style="fill:#FF7058;" cx="301.602" cy="166.4" r="10.8"/>
	<circle style="fill:#FF7058;" cx="266.402" cy="166.4" r="10.8"/>
</g>
<g>
</g>
<g>
</g>
<g>
</g>
<g>
</g>
<g>
</g>
<g>
</g>
<g>
</g>
<g>
</g>
<g>
</g>
<g>
</g>
<g>
</g>
<g>
</g>
<g>
</g>
<g>
</g>
<g>
</g>
</svg>
