<?xml version="1.0" encoding="iso-8859-1"?>
<!-- Generator: Adobe Illustrator 19.0.0, SVG Export Plug-In . SVG Version: 6.00 Build 0)  -->
<svg xmlns="http://www.w3.org/2000/svg" xmlns:xlink="http://www.w3.org/1999/xlink" version="1.1" id="Layer_1" x="0px" y="0px" viewBox="0 0 508 508" style="enable-background:new 0 0 508 508;" xml:space="preserve">
<circle style="fill:#84DBFF;" cx="254" cy="254" r="254"/>
<polygon style="fill:#FFFFFF;" points="275.6,241.2 232.4,241.2 240.4,249.2 111.6,249.2 111.6,260.4 240.4,260.4 149.2,351.6   157.2,359.6 248.4,268.4 248.4,397.2 259.6,397.2 259.6,268.4 350.8,359.6 358.8,351.6 267.6,260.4 396.4,260.4 396.4,249.2   267.6,249.2 "/>
<path style="fill:#324A5E;" d="M349.2,272.4c3.6,8-1.2,17.6-10,20c-25.2,6.8-54.4,10.4-85.2,10.4s-60-4-85.2-10.8  c-8.4-2.4-13.2-11.6-10-20c15.6-37.2,52.4-63.2,95.2-63.2C296.8,209.2,333.6,235.2,349.2,272.4z"/>
<path style="fill:#F9B54C;" d="M274.4,210c2.4,9.6-6.4,21.2-20.4,21.2c-13.6,0-22.8-11.6-20.4-21.2c2.8-9.2,13.6-29.2,20.4-29.6  C260.8,180.8,271.6,200.8,274.4,210z"/>
<path style="fill:#324A5E;" d="M278.8,98.8c0.4-1.2,0.8-2.8,0.8-4.4c0-10.4-11.6-19.2-25.6-19.2s-25.6,8.4-25.6,19.2  c0,1.6,0.4,2.8,0.8,4.4c-21.2,8.8-36,28-36,50.4c0,30.4,27.2,55.2,60.8,55.2s60.8-24.8,60.8-55.2C314.8,126.8,300,107.2,278.8,98.8z  "/>
<path style="fill:#FFD05B;" d="M300.8,165.6c0,24-20.8,43.2-46.8,43.2c-25.6,0-46.8-19.2-46.8-43.2c0-2,0-4.4,0.4-6.4  c8.4-2,19.2-7.2,30-14.4c9.6-6.4,17.6-14,22.8-20.8c5.6,6.8,13.2,14,22.8,20.8c5.2,3.6,10.4,6.4,15.2,8.8  C300,157.6,300.8,161.6,300.8,165.6z"/>
<g>
	<circle style="fill:#FF7058;" cx="149.2" cy="359.2" r="30"/>
	<circle style="fill:#FF7058;" cx="106" cy="254.8" r="30"/>
	<circle style="fill:#FF7058;" cx="402" cy="254.8" r="30"/>
	<circle style="fill:#FF7058;" cx="358.8" cy="359.2" r="30"/>
	<circle style="fill:#FF7058;" cx="254" cy="402.8" r="30"/>
</g>
<g>
</g>
<g>
</g>
<g>
</g>
<g>
</g>
<g>
</g>
<g>
</g>
<g>
</g>
<g>
</g>
<g>
</g>
<g>
</g>
<g>
</g>
<g>
</g>
<g>
</g>
<g>
</g>
<g>
</g>
</svg>
