<?xml version="1.0" encoding="iso-8859-1"?>
<!-- Generator: Adobe Illustrator 19.0.0, SVG Export Plug-In . SVG Version: 6.00 Build 0)  -->
<svg xmlns="http://www.w3.org/2000/svg" xmlns:xlink="http://www.w3.org/1999/xlink" version="1.1" id="Layer_1" x="0px" y="0px" viewBox="0 0 508 508" style="enable-background:new 0 0 508 508;" xml:space="preserve">
<circle style="fill:#324A5E;" cx="254" cy="254" r="254"/>
<path style="fill:#E6E9EE;" d="M280.8,254c28-16.8,67.6-46.4,67.6-80.4c0-15.6-3.6-30-10.4-43.2H170c-6.8,12.8-10.4,27.6-10.4,43.2  c0,34,39.6,63.6,67.6,80.4c-28,16.8-67.6,46.4-67.6,80.4c0,15.6,3.6,30,10.4,43.2h168.4c6.8-12.8,10.4-27.6,10.4-43.2  C348.4,300.4,308.8,270.8,280.8,254z"/>
<g>
	<path style="fill:#FF7058;" d="M306.4,298.8H201.6C188,311.6,180.4,324,180.4,334c0,7.6,1.2,14.8,3.2,21.6h140   c2-7.2,3.2-14.4,3.2-21.6C327.2,324,319.6,311.6,306.4,298.8z"/>
	<path style="fill:#FF7058;" d="M180.8,173.2c0,0.4,0,0.4,0,0.8c0,17.2,21.2,40.4,57.2,62l16,9.6l16-9.6c36-21.6,57.2-44.4,57.2-62   c0-0.4,0-0.4,0-0.8H180.8z"/>
</g>
<g>
	<path style="fill:#FFFFFF;" d="M357.6,130.8H150.4c-4.4,0-8-3.6-8-8v-19.2c0-4.4,3.6-8,8-8H358c4.4,0,8,3.6,8,8v19.2   C366,127.2,362.4,130.8,357.6,130.8z"/>
	<path style="fill:#FFFFFF;" d="M357.6,412.8H150.4c-4.4,0-8-3.6-8-8v-19.2c0-4.4,3.6-8,8-8H358c4.4,0,8,3.6,8,8v19.2   C366,409.2,362.4,412.8,357.6,412.8z"/>
</g>
<g>
	<circle style="fill:#FF7058;" cx="254" cy="263.2" r="4.8"/>
	<circle style="fill:#FF7058;" cx="254" cy="283.6" r="4.8"/>
</g>
<g>
</g>
<g>
</g>
<g>
</g>
<g>
</g>
<g>
</g>
<g>
</g>
<g>
</g>
<g>
</g>
<g>
</g>
<g>
</g>
<g>
</g>
<g>
</g>
<g>
</g>
<g>
</g>
<g>
</g>
</svg>
