<?xml version="1.0" encoding="iso-8859-1"?>
<!-- Generator: Adobe Illustrator 19.0.0, SVG Export Plug-In . SVG Version: 6.00 Build 0)  -->
<svg xmlns="http://www.w3.org/2000/svg" xmlns:xlink="http://www.w3.org/1999/xlink" version="1.1" id="Layer_1" x="0px" y="0px" viewBox="0 0 508 508" style="enable-background:new 0 0 508 508;" xml:space="preserve">
<circle style="fill:#84DBFF;" cx="254" cy="254" r="254"/>
<path style="fill:#2B3B4E;" d="M280,129.2v-24.8c0-5.2-4-9.2-9.2-9.2h-34c-5.2,0-9.2,4-9.2,9.2v24.8H280z"/>
<path style="fill:#324A5E;" d="M347.2,128.4v272.8c0,6.4-5.2,11.6-11.6,11.6H172c-6.4,0-11.6-5.2-11.6-11.6V128.4  c0-6.4,5.2-11.6,11.6-11.6h163.6C342,117.2,347.2,122,347.2,128.4z"/>
<rect x="180.4" y="136.8" style="fill:#FFFFFF;" width="146.8" height="256"/>
<rect x="180.8" y="320.4" style="fill:#FF7058;" width="146.4" height="72.8"/>
<g>
</g>
<g>
</g>
<g>
</g>
<g>
</g>
<g>
</g>
<g>
</g>
<g>
</g>
<g>
</g>
<g>
</g>
<g>
</g>
<g>
</g>
<g>
</g>
<g>
</g>
<g>
</g>
<g>
</g>
</svg>
