<?xml version="1.0" encoding="iso-8859-1"?>
<!-- Generator: Adobe Illustrator 19.0.0, SVG Export Plug-In . SVG Version: 6.00 Build 0)  -->
<svg version="1.1" id="Layer_1" xmlns="http://www.w3.org/2000/svg" xmlns:xlink="http://www.w3.org/1999/xlink" x="0px" y="0px"
	 viewBox="0 0 508 508" style="enable-background:new 0 0 508 508;" xml:space="preserve">
<circle style="fill:#90DFAA;" cx="254" cy="254" r="254"/>
<path style="fill:#FFFFFF;" d="M398.8,88.8v330c0,7.6-6,13.6-13.6,13.6H177.6v-47.2c0-7.6-6-13.6-13.6-13.6h-46.8V88.8
	c0-7.6,6-13.6,13.6-13.6h254.8C392.8,75.6,398.8,81.6,398.8,88.8z"/>
<path style="fill:#E6E9EE;" d="M177.6,432.4h-47.2c-7.6,0-13.6-6-13.6-13.6V372H164c7.6,0,13.6,6,13.6,13.6V432.4z"/>
<g>
	<path style="fill:#CED5E0;" d="M177.6,432.4h-47.2c-7.6,0-13.6-6-13.6-13.6V372L177.6,432.4z"/>
	<rect x="298.8" y="156.4" style="fill:#CED5E0;" width="25.2" height="47.2"/>
</g>
<rect x="263.2" y="119.2" style="fill:#FFD05B;" width="25.2" height="84.4"/>
<rect x="227.6" y="134.8" style="fill:#84DBFF;" width="25.2" height="68.4"/>
<rect x="192" y="105.2" style="fill:#FF7058;" width="25.2" height="98"/>
<rect x="183.2" y="203.6" style="fill:#324A5E;" width="149.6" height="7.2"/>
<g>
	<rect x="152.4" y="292" style="fill:#E6E9EE;" width="210.8" height="10.4"/>
	<rect x="152.4" y="266.8" style="fill:#E6E9EE;" width="210.8" height="10.4"/>
	<rect x="152.4" y="241.6" style="fill:#E6E9EE;" width="210.8" height="10.4"/>
	<rect x="152.4" y="316.8" style="fill:#E6E9EE;" width="210.8" height="10.4"/>
	<rect x="211.6" y="342" style="fill:#E6E9EE;" width="152" height="10.4"/>
</g>
<circle style="fill:#FF7058;" cx="368" cy="328" r="76"/>
<path style="fill:#FFFFFF;" d="M405.2,350l-22-22l22-22c4-4,4-10.8,0-15.2c-4-4-10.8-4-15.2,0l-22,22l-22-22c-4-4-10.8-4-15.2,0
	c-4,4-4,10.8,0,15.2l22,22l-22,22c-4,4-4,10.8,0,15.2c4,4,10.8,4,15.2,0l22-22l22,22c4,4,10.8,4,15.2,0S409.2,354.4,405.2,350z"/>
<g>
</g>
<g>
</g>
<g>
</g>
<g>
</g>
<g>
</g>
<g>
</g>
<g>
</g>
<g>
</g>
<g>
</g>
<g>
</g>
<g>
</g>
<g>
</g>
<g>
</g>
<g>
</g>
<g>
</g>
</svg>
