<?xml version="1.0" encoding="iso-8859-1"?>
<!-- Generator: Adobe Illustrator 19.0.0, SVG Export Plug-In . SVG Version: 6.00 Build 0)  -->
<svg version="1.1" id="Layer_1" xmlns="http://www.w3.org/2000/svg" xmlns:xlink="http://www.w3.org/1999/xlink" x="0px" y="0px"
	 viewBox="0 0 508 508" style="enable-background:new 0 0 508 508;" xml:space="preserve">
<circle style="fill:#54C0EB;" cx="254" cy="254" r="254"/>
<path style="fill:#FFFFFF;" d="M166.8,382H92.4c-6.4,0-11.2-5.2-11.2-11.2V137.2c0-6.4,5.2-11.2,11.2-11.2h74.4
	c6.4,0,11.2,5.2,11.2,11.2v233.2C178.4,376.8,173.2,382,166.8,382z"/>
<rect x="92.4" y="141.2" style="fill:#4CDBC4;" width="74.8" height="147.2"/>
<circle style="fill:#E6E9EE;" cx="129.6" cy="333.6" r="28.8"/>
<circle style="fill:#324A5E;" cx="129.6" cy="333.6" r="20"/>
<path style="fill:#FFFFFF;" d="M273.2,382h-74.4c-6.4,0-11.2-5.2-11.2-11.2V137.2c0-6.4,5.2-11.2,11.2-11.2h74.4
	c6.4,0,11.2,5.2,11.2,11.2v233.2C284.4,376.8,279.6,382,273.2,382z"/>
<rect x="198.4" y="141.2" style="fill:#FF7058;" width="74.8" height="147.2"/>
<circle style="fill:#E6E9EE;" cx="236" cy="333.6" r="28.8"/>
<circle style="fill:#324A5E;" cx="236" cy="333.6" r="20"/>
<path style="fill:#FFFFFF;" d="M434,368.8l-72,18.4c-6,1.6-12.4-2-14-8.4l-57.2-226c-1.6-6,2-12.4,8.4-14l72-18.4
	c6-1.6,12.4,2,14,8.4l57.2,226C444,361.2,440.4,367.6,434,368.8z"/>
<rect x="319.563" y="142.438" transform="matrix(-0.9695 0.2452 -0.2452 -0.9695 756.0032 337.9603)" style="fill:#FFD05B;" width="74.802" height="147.204"/>
<circle style="fill:#E6E9EE;" cx="386" cy="330.8" r="28.8"/>
<circle style="fill:#324A5E;" cx="386" cy="330.8" r="20"/>
<g>
</g>
<g>
</g>
<g>
</g>
<g>
</g>
<g>
</g>
<g>
</g>
<g>
</g>
<g>
</g>
<g>
</g>
<g>
</g>
<g>
</g>
<g>
</g>
<g>
</g>
<g>
</g>
<g>
</g>
</svg>
