<?xml version="1.0" encoding="iso-8859-1"?>
<!-- Generator: Adobe Illustrator 19.0.0, SVG Export Plug-In . SVG Version: 6.00 Build 0)  -->
<svg version="1.1" id="Layer_1" xmlns="http://www.w3.org/2000/svg" xmlns:xlink="http://www.w3.org/1999/xlink" x="0px" y="0px"
	 viewBox="0 0 508 508" style="enable-background:new 0 0 508 508;" xml:space="preserve">
<circle style="fill:#90DFAA;" cx="254" cy="254" r="254"/>
<path style="fill:#FFFFFF;" d="M381.2,75.6H126.8c-7.6,0-13.6,6-13.6,13.6v330c0,7.6,6,13.6,13.6,13.6h254.8c7.6,0,13.6-6,13.6-13.6
	V88.8C394.8,81.6,388.8,75.6,381.2,75.6z"/>
<polygon style="fill:#324A5E;" points="352,358.8 170,358.8 170,134.8 156,134.8 156,373.2 352,373.2 "/>
<rect x="190" y="163.2" style="fill:#FF7058;" width="19.6" height="179.2"/>
<rect x="230.4" y="189.2" style="fill:#84DBFF;" width="19.6" height="153.2"/>
<rect x="271.2" y="217.6" style="fill:#FFD05B;" width="19.6" height="124.8"/>
<rect x="311.6" y="251.2" style="fill:#CED5E0;" width="19.6" height="90.8"/>
<g>
</g>
<g>
</g>
<g>
</g>
<g>
</g>
<g>
</g>
<g>
</g>
<g>
</g>
<g>
</g>
<g>
</g>
<g>
</g>
<g>
</g>
<g>
</g>
<g>
</g>
<g>
</g>
<g>
</g>
</svg>
