<?xml version="1.0" encoding="iso-8859-1"?>
<!-- Generator: Adobe Illustrator 19.0.0, SVG Export Plug-In . SVG Version: 6.00 Build 0)  -->
<svg version="1.1" id="Layer_1" xmlns="http://www.w3.org/2000/svg" xmlns:xlink="http://www.w3.org/1999/xlink" x="0px" y="0px"
	 viewBox="0 0 508 508" style="enable-background:new 0 0 508 508;" xml:space="preserve">
<circle style="fill:#FD8469;" cx="254" cy="254" r="254"/>
<path style="fill:#FFFFFF;" d="M427.6,395.2H80.4c-8.4,0-15.6-6.8-15.6-15.6V128c0-8.4,6.8-15.6,15.6-15.6H428
	c8.4,0,15.6,6.8,15.6,15.6v251.6C443.2,388.4,436.4,395.2,427.6,395.2z"/>
<path style="fill:#324A5E;" d="M443.2,162.8V128c0-8.4-6.8-15.6-15.6-15.6h-348c-8.4,0-15.6,6.8-15.6,15.6v34.8H443.2z"/>
<circle style="fill:#FF7058;" cx="418" cy="137.6" r="10.4"/>
<circle style="fill:#4CDBC4;" cx="390" cy="137.6" r="10.4"/>
<path style="fill:#FFFFFF;" d="M89.2,126.4h260c6.4,0,11.6,5.2,11.6,11.6l0,0c0,6.4-5.2,11.6-11.6,11.6h-260
	c-6.4,0-11.6-5.2-11.6-11.6l0,0C77.6,131.2,82.8,126.4,89.2,126.4z"/>
<path style="fill:#CED5E0;" d="M349.2,126.4h-33.6v23.2h33.6c6.4,0,11.6-5.2,11.6-11.6C360.8,131.2,355.6,126.4,349.2,126.4z"/>
<rect x="117.2" y="213.2" style="fill:#E6E9EE;" width="273.2" height="138"/>
<g>
	<path style="fill:#2C9984;" d="M126,222v120h256V222H126z M134.8,316v-68c9.6,0,17.6-8,17.6-17.6H226c-15.6,10.4-26,29.6-26,51.6
		c0,21.6,10.4,40.8,26,51.6h-73.6C152.4,323.6,144.4,316,134.8,316z M373.2,316c-9.6,0-17.6,8-17.6,17.6H282
		c15.6-10.4,26-29.6,26-51.6s-10.4-40.8-26-51.6h73.6c0,9.6,8,17.6,17.6,17.6V316z"/>
	<circle style="fill:#2C9984;" cx="341.6" cy="282" r="18.8"/>
	<circle style="fill:#2C9984;" cx="166.4" cy="282" r="18.8"/>
</g>
<path style="fill:#E6E9EE;" d="M254,276c-4.8,0-8.8-4-8.8-8.8s4-8.8,8.8-8.8c2.4,0,4.8,1.2,6.4,2.8c2.4,2.4,6,2.4,8.4,0.4
	c2.4-2.4,2.4-6,0.4-8.4c-2.4-2.8-5.6-4.8-9.2-5.6v-4c0-3.2-2.8-6-6-6s-6,2.8-6,6v4c-8.8,2.4-14.8,10.4-14.8,20
	c0,11.6,9.2,20.8,20.8,20.8c4.8,0,8.8,4,8.8,8.8s-4,8.8-8.8,8.8c-2.4,0-4.8-1.2-6.4-2.8c-2.4-2.4-6-2.4-8.4-0.4
	c-2.4,2.4-2.4,6-0.4,8.4c2.4,2.8,5.6,4.8,9.2,5.6v4c0,3.2,2.8,6,6,6c3.2,0,6-2.8,6-6v-4c8.8-2.4,14.8-10.4,14.8-20
	C274.8,285.6,265.6,276,254,276z"/>
<polygon style="fill:#FFD05B;" points="188.8,337.6 167.6,337.6 167.2,359.6 156.4,359.6 177.6,381.2 199.6,359.2 188.8,359.2 "/>
<polygon style="fill:#FF7058;" points="330.8,227.2 352.4,227.2 352.4,205.2 363.2,204.8 342,183.6 320.4,205.2 331.2,205.2 "/>
<g>
</g>
<g>
</g>
<g>
</g>
<g>
</g>
<g>
</g>
<g>
</g>
<g>
</g>
<g>
</g>
<g>
</g>
<g>
</g>
<g>
</g>
<g>
</g>
<g>
</g>
<g>
</g>
<g>
</g>
</svg>
