<?xml version="1.0" encoding="iso-8859-1"?>
<!-- Generator: Adobe Illustrator 19.0.0, SVG Export Plug-In . SVG Version: 6.00 Build 0)  -->
<svg version="1.1" id="Layer_1" xmlns="http://www.w3.org/2000/svg" xmlns:xlink="http://www.w3.org/1999/xlink" x="0px" y="0px"
	 viewBox="0 0 508 508" style="enable-background:new 0 0 508 508;" xml:space="preserve">
<circle style="fill:#FFD05B;" cx="254" cy="254" r="254"/>
<path style="fill:#FFFFFF;" d="M428,112.8H80c-8.4,0-15.6,6.8-15.6,15.6v252c0,8.4,6.8,15.6,15.6,15.6h348c8.4,0,15.6-6.8,15.6-15.6
	v-252C443.2,119.6,436.4,112.8,428,112.8z"/>
<path style="fill:#FF7058;" d="M428,112.8H80c-8.4,0-15.6,6.8-15.6,15.6v34.8h378.8v-34.8C443.2,119.6,436.4,112.8,428,112.8z"/>
<circle style="fill:#324A5E;" cx="418" cy="137.6" r="10.4"/>
<circle style="fill:#84DBFF;" cx="390" cy="137.6" r="10.4"/>
<path style="fill:#FFFFFF;" d="M89.2,126.4h260c6.4,0,11.6,5.2,11.6,11.6l0,0c0,6.4-5.2,11.6-11.6,11.6h-260
	c-6.4,0-11.6-5.2-11.6-11.6l0,0C77.6,131.2,82.8,126.4,89.2,126.4z"/>
<path style="fill:#E6E9EE;" d="M349.2,126.4h-33.6v23.2h33.6c6.4,0,11.6-5.2,11.6-11.6C360.8,131.2,355.6,126.4,349.2,126.4z"/>
<g>
	<polygon style="fill:#324A5E;" points="378.4,183.2 378.4,191.2 414.4,191.2 414.4,227.2 422.4,227.2 422.4,183.2 	"/>
	<polygon style="fill:#324A5E;" points="414.4,366 378.4,366 378.4,374 422.4,374 422.4,330 414.4,330 	"/>
	<polygon style="fill:#324A5E;" points="85.6,227.2 93.6,227.2 93.6,191.2 129.6,191.2 129.6,183.2 85.6,183.2 	"/>
	<polygon style="fill:#324A5E;" points="93.6,330 85.6,330 85.6,374 129.6,374 129.6,366 93.6,366 	"/>
</g>
<path style="fill:#E6E9EE;" d="M148.4,278.4L148.4,278.4c58.4,68.4,152.8,68.4,210.8,0l0,0C301.2,210,206.8,210,148.4,278.4z"/>
<circle style="fill:#FFFFFF;" cx="254" cy="278.4" r="42.4"/>
<circle style="fill:#84DBFF;" cx="254" cy="278.4" r="24.8"/>
<circle style="fill:#54C0EB;" cx="254" cy="278.4" r="18"/>
<g>
	<circle style="fill:#FFFFFF;" cx="240.8" cy="263.6" r="8.4"/>
	<circle style="fill:#FFFFFF;" cx="253.2" cy="276" r="4.8"/>
</g>
<g>
</g>
<g>
</g>
<g>
</g>
<g>
</g>
<g>
</g>
<g>
</g>
<g>
</g>
<g>
</g>
<g>
</g>
<g>
</g>
<g>
</g>
<g>
</g>
<g>
</g>
<g>
</g>
<g>
</g>
</svg>
