<?xml version="1.0" encoding="iso-8859-1"?>
<!-- Generator: Adobe Illustrator 19.0.0, SVG Export Plug-In . SVG Version: 6.00 Build 0)  -->
<svg version="1.1" id="Layer_1" xmlns="http://www.w3.org/2000/svg" xmlns:xlink="http://www.w3.org/1999/xlink" x="0px" y="0px"
	 viewBox="0 0 508 508" style="enable-background:new 0 0 508 508;" xml:space="preserve">
<circle style="fill:#54C0EB;" cx="254" cy="254" r="254"/>
<polygon style="fill:#FFFFFF;" points="331.6,134.4 278.4,185.6 64.8,185.6 118,134.4 "/>
<g>
	<polygon style="fill:#E6E9EE;" points="278.4,185.6 331.6,134.4 384.8,185.6 	"/>
	<polygon style="fill:#E6E9EE;" points="171.6,185.6 224.8,134.4 278.4,185.6 	"/>
	<polygon style="fill:#E6E9EE;" points="171.6,185.6 64.8,185.6 118,134.4 	"/>
</g>
<polygon style="fill:#CED5E0;" points="384.8,185.6 224.8,415.2 64.8,185.6 "/>
<polygon style="fill:#FFFFFF;" points="171.6,185.6 224.8,415.2 278.4,185.6 "/>
<polygon style="fill:#E6E9EE;" points="435.2,239.6 404,269.6 278.8,269.6 310,239.6 "/>
<g>
	<polygon style="fill:#FFFFFF;" points="404,269.6 435.2,239.6 466.8,269.6 	"/>
	<polygon style="fill:#FFFFFF;" points="341.6,269.6 278.8,269.6 310,239.6 	"/>
</g>
<polygon style="fill:#E6E9EE;" points="466.8,269.6 372.8,404.4 278.8,269.6 "/>
<polygon style="fill:#FFFFFF;" points="372.8,239.6 341.6,269.6 341.6,269.6 372.8,404.4 404,269.6 "/>
<g>
</g>
<g>
</g>
<g>
</g>
<g>
</g>
<g>
</g>
<g>
</g>
<g>
</g>
<g>
</g>
<g>
</g>
<g>
</g>
<g>
</g>
<g>
</g>
<g>
</g>
<g>
</g>
<g>
</g>
</svg>
