<?xml version="1.0" encoding="iso-8859-1"?>
<!-- Generator: Adobe Illustrator 19.0.0, SVG Export Plug-In . SVG Version: 6.00 Build 0)  -->
<svg version="1.1" id="Layer_1" xmlns="http://www.w3.org/2000/svg" xmlns:xlink="http://www.w3.org/1999/xlink" x="0px" y="0px"
	 viewBox="0 0 508 508" style="enable-background:new 0 0 508 508;" xml:space="preserve">
<circle style="fill:#324A5E;" cx="254" cy="254" r="254"/>
<circle style="fill:#FFFFFF;" cx="254" cy="254" r="117.2"/>
<path style="fill:#FF7058;" d="M98,254c0-86,70-156,156-156c43.2,0,82,17.6,110.4,45.6l28.4-28.4C357.2,80,308,58,254,58
	C145.6,58,58,145.6,58,254H34l44,44l44-44H98z"/>
<path style="fill:#FFD05B;" d="M430,210l-44,44h24c0,86-70,156-156,156c-43.2,0-82-17.6-110.4-45.6l-28.4,28.4
	C150.8,428,200,450,254,450c108.4,0,196-87.6,196-196h24L430,210z"/>
<path style="fill:#4CDBC4;" d="M308.4,301.2c-3.2-5.2-10-6.4-15.2-3.2c-10.4,6.8-17.6,4.8-29.6,1.2c-1.6-0.4-3.2-0.8-5.2-1.2
	c-6.4-1.6-14.8-1.2-22.8-0.4c1.2-2.8,2.4-5.6,3.2-8.4c2.4-8,3.6-15.6,4-23.2H266c6,0,10.8-4.8,10.8-10.8s-4.8-10.8-10.8-10.8h-26.4
	c0,0,0,0,0-0.4c-5.2-14-5.6-28-0.8-34.8c0.8-1.2,4-5.6,14-5.6c9.6,0,16.4,3.2,20.8,10c3.2,5.2,10,6.8,14.8,3.6
	c5.2-3.2,6.8-10,3.6-14.8c-8-13.2-22-20.4-39.2-20.4c-17.6,0-27.2,8-31.6,14.8c-10.4,15.2-7.2,35.6-4,47.2h-7.6
	c-6,0-10.8,4.8-10.8,10.8s4.8,10.8,10.8,10.8H222c-0.4,16-8.4,34-18,40c-4.8,2.8-6.4,8.8-4,14c2,4,5.6,6,10,6c1.2,0,2.4,0,3.6-0.4
	c12-4,32.8-8.8,40.8-6.8c1.6,0.4,3.2,0.8,4.8,1.2c13.6,3.6,28.8,8,47.2-4C310,312.8,311.6,306,308.4,301.2z"/>
<g>
</g>
<g>
</g>
<g>
</g>
<g>
</g>
<g>
</g>
<g>
</g>
<g>
</g>
<g>
</g>
<g>
</g>
<g>
</g>
<g>
</g>
<g>
</g>
<g>
</g>
<g>
</g>
<g>
</g>
</svg>
