<?xml version="1.0" encoding="iso-8859-1"?>
<!-- Generator: Adobe Illustrator 19.0.0, SVG Export Plug-In . SVG Version: 6.00 Build 0)  -->
<svg version="1.1" id="Layer_1" xmlns="http://www.w3.org/2000/svg" xmlns:xlink="http://www.w3.org/1999/xlink" x="0px" y="0px"
	 viewBox="0 0 508 508" style="enable-background:new 0 0 508 508;" xml:space="preserve">
<circle style="fill:#84DBFF;" cx="254" cy="254" r="254"/>
<circle style="fill:#FFFFFF;" cx="254" cy="254" r="130.8"/>
<path style="fill:#324A5E;" d="M80,254c0-96,78-174,174-174c48,0,91.6,19.6,122.8,50.8l31.6-31.6c-39.6-39.6-94-64-154.4-64
	C133.2,35.6,35.6,133.2,35.6,254H8.8L58,303.2l48.8-49.2H80z"/>
<path style="fill:#FF7058;" d="M450.4,204.8L401.2,254H428c0,96-78,174-174,174c-48,0-91.6-19.6-122.8-50.8l-31.6,31.6
	c39.6,39.6,94.4,64,154.4,64c120.8,0,218.4-98,218.4-218.4h26.8L450.4,204.8z"/>
<path style="fill:#FFD05B;" d="M291.6,171.6c-8.8-3.6-18-5.2-27.6-5.2c-34,0-62.8,22.4-75.2,54.4H168c-6.8,0-12,5.6-12,12
	c0,6.8,5.6,12,12,12h15.2c-0.4,2.8-0.4,6-0.4,8.8s0,6,0.4,8.8H168c-6.8,0-12,5.6-12,12s5.6,12,12,12h20.8c12,32,41.2,54.4,75.2,54.4
	c7.6,0,15.2-1.2,22.8-3.6c6.4-2,10-8.8,8-15.2c-2-6.4-8.8-10-15.2-8c-5.2,1.6-10.4,2.4-15.6,2.4c-20.4,0-38.4-12-48.4-30h51.2
	c6.8,0,12-5.6,12-12s-5.6-12-12-12H208c-0.4-2.8-0.8-6-0.8-8.8c0-3.2,0.4-6,0.8-8.8h59.2c6.8,0,12-5.6,12-12c0-6.8-5.6-12-12-12
	h-51.6c10-18,28-30,48.4-30c6.4,0,12.8,1.2,18.8,3.6c6.4,2.4,13.2-0.8,15.6-6.8C300.8,181.2,298,174,291.6,171.6z"/>
<g>
</g>
<g>
</g>
<g>
</g>
<g>
</g>
<g>
</g>
<g>
</g>
<g>
</g>
<g>
</g>
<g>
</g>
<g>
</g>
<g>
</g>
<g>
</g>
<g>
</g>
<g>
</g>
<g>
</g>
</svg>
