<?xml version="1.0" encoding="iso-8859-1"?>
<!-- Generator: Adobe Illustrator 19.0.0, SVG Export Plug-In . SVG Version: 6.00 Build 0)  -->
<svg version="1.1" id="Layer_1" xmlns="http://www.w3.org/2000/svg" xmlns:xlink="http://www.w3.org/1999/xlink" x="0px" y="0px"
	 viewBox="0 0 508 508" style="enable-background:new 0 0 508 508;" xml:space="preserve">
<circle style="fill:#324A5E;" cx="254" cy="254" r="254"/>
<path style="fill:#2B3B4E;" d="M84.4,442.8C129.2,483.2,188.8,508,254,508s124.8-24.8,169.6-65.2H84.4z"/>
<path style="fill:#E6E9EE;" d="M285.6,442.8H114l0,0c0-14,11.2-25.2,25.2-25.2h121.2C274,417.6,285.6,428.8,285.6,442.8L285.6,442.8
	z"/>
<path style="fill:#FFD05B;" d="M215.6,67.6c0-8.8-7.2-15.6-15.6-15.6s-15.6,7.2-15.6,15.6c0,6,3.6,11.2,8.4,14v336h14.8v-336
	C212,78.8,215.6,73.6,215.6,67.6z"/>
<path style="fill:#FF7058;" d="M338,101.2c-43.6,16.8-87.2,47.6-131.2,9.2c0,38,0,76,0,114c72.8,63.6,145.6-63.6,218.8,0
	C425.6,158.8,386.4,76.4,338,101.2z"/>
<g>
</g>
<g>
</g>
<g>
</g>
<g>
</g>
<g>
</g>
<g>
</g>
<g>
</g>
<g>
</g>
<g>
</g>
<g>
</g>
<g>
</g>
<g>
</g>
<g>
</g>
<g>
</g>
<g>
</g>
</svg>
