<?xml version="1.0" encoding="iso-8859-1"?>
<!-- Generator: Adobe Illustrator 19.0.0, SVG Export Plug-In . SVG Version: 6.00 Build 0)  -->
<svg version="1.1" id="Layer_1" xmlns="http://www.w3.org/2000/svg" xmlns:xlink="http://www.w3.org/1999/xlink" x="0px" y="0px"
	 viewBox="0 0 508 508" style="enable-background:new 0 0 508 508;" xml:space="preserve">
<circle style="fill:#90DFAA;" cx="254" cy="254" r="254"/>
<path style="fill:#FFFFFF;" d="M374.8,103.6v115.6H253.2c-11.2,0-22-3.6-31.2-10.8l-14.4-11.2c-8.8-6.8-19.6-10.8-31.2-10.8H120V76
	c0-7.2,5.6-12.8,12.8-12.8h201.6v27.6c0,7.2,5.6,12.8,12.8,12.8H374.8z"/>
<g>
	<path style="fill:#E6E9EE;" d="M334.4,63.2v27.6c0,7.2,5.6,12.8,12.8,12.8h27.6L334.4,63.2z"/>
	<rect x="158" y="119.6" style="fill:#E6E9EE;" width="179.2" height="12.4"/>
	<rect x="158" y="148.8" style="fill:#E6E9EE;" width="179.2" height="12.4"/>
	<rect x="158" y="177.6" style="fill:#E6E9EE;" width="179.2" height="12.4"/>
</g>
<path style="fill:#324A5E;" d="M222.4,208.8L208,197.6c-8.8-6.8-19.6-10.8-31.2-10.8h-71.2c-6.8,0-12.4,5.6-12.4,12.4v203.6
	c0,6.8,5.6,12.4,12.4,12.4h283.6c6.8,0,12.4-5.6,12.4-12.4V231.6c0-6.8-5.6-12.4-12.4-12.4h-136C242,219.2,231.2,215.6,222.4,208.8z
	"/>
<circle style="fill:#FFFFFF;" cx="374.8" cy="322" r="77.6"/>
<circle style="fill:#FF7058;" cx="374.8" cy="322" r="60"/>
<path style="fill:#FFFFFF;" d="M397.6,338.4c0-12.4-10-22.8-22.8-22.8c-5.2,0-9.6-4.4-9.6-9.6s4.4-9.6,9.6-9.6
	c2.8,0,5.2,1.2,7.2,3.2c2.4,2.4,6.4,2.8,9.2,0.4c2.4-2.4,2.8-6.4,0.4-9.2c-2.8-2.8-6.4-5.2-10-6v-4.4c0-3.6-2.8-6.4-6.4-6.4
	s-6.4,2.8-6.4,6.4v4.4c-9.2,2.8-16,11.6-16,21.6c0,12.4,10,22.8,22.8,22.8c5.2,0,9.6,4.4,9.6,9.6s-4.4,9.6-9.6,9.6
	c-2.8,0-5.2-1.2-7.2-3.2c-2.4-2.4-6.4-2.8-9.2-0.4c-2.4,2.4-2.8,6.4-0.4,9.2c2.8,2.8,6.4,5.2,10,6v4.4c0,3.6,2.8,6.4,6.4,6.4
	s6.4-2.8,6.4-6.4V360C390.8,357.2,397.6,348.4,397.6,338.4z"/>
<g>
</g>
<g>
</g>
<g>
</g>
<g>
</g>
<g>
</g>
<g>
</g>
<g>
</g>
<g>
</g>
<g>
</g>
<g>
</g>
<g>
</g>
<g>
</g>
<g>
</g>
<g>
</g>
<g>
</g>
</svg>
