<?xml version="1.0" encoding="iso-8859-1"?>
<!-- Generator: Adobe Illustrator 19.0.0, SVG Export Plug-In . SVG Version: 6.00 Build 0)  -->
<svg version="1.1" id="Layer_1" xmlns="http://www.w3.org/2000/svg" xmlns:xlink="http://www.w3.org/1999/xlink" x="0px" y="0px"
	 viewBox="0 0 508 508" style="enable-background:new 0 0 508 508;" xml:space="preserve">
<circle style="fill:#FD8469;" cx="254" cy="254" r="254"/>
<circle style="fill:#FFD05B;" cx="257.6" cy="86.8" r="86.8"/>
<circle style="fill:#F9B54C;" cx="257.6" cy="86.8" r="67.2"/>
<path style="fill:#FFD05B;" d="M282.8,105.2c0-14-11.2-25.2-25.2-25.2c-6,0-10.8-4.8-10.8-10.8s4.8-10.8,10.8-10.8
	c3.2,0,6,1.2,8,3.6c2.8,2.8,7.2,3.2,10.4,0.4c2.8-2.8,3.2-7.2,0.4-10.4c-3.2-3.2-6.8-5.6-11.2-6.8V40c0-4-3.2-7.2-7.2-7.2
	s-7.2,3.2-7.2,7.2v5.2c-10.4,3.2-18,12.8-18,24.4c0,14,11.2,25.2,25.2,25.2c6,0,10.8,4.8,10.8,10.8s-4.8,10.8-10.8,10.8
	c-3.2,0-6-1.2-8-3.6c-2.8-2.8-7.2-3.2-10.4-0.4c-2.8,2.8-3.2,7.2-0.4,10.4c3.2,3.2,6.8,5.6,11.2,6.8v5.2c0,4,3.2,7.2,7.2,7.2
	s7.2-3.2,7.2-7.2v-5.2C275.2,126,282.8,116.4,282.8,105.2z"/>
<circle style="fill:#324A5E;" cx="343.2" cy="207.6" r="42"/>
<circle style="fill:#2B3B4E;" cx="343.2" cy="207.6" r="32.4"/>
<path style="fill:#324A5E;" d="M355.6,216c0-6.8-5.6-12-12-12c-2.8,0-5.2-2.4-5.2-5.2s2.4-5.2,5.2-5.2c1.6,0,2.8,0.4,4,1.6
	c1.2,1.6,3.6,1.6,4.8,0c1.6-1.2,1.6-3.6,0-4.8c-1.6-1.6-3.2-2.8-5.2-3.2v-2.4c0-2-1.6-3.6-3.6-3.6s-3.6,1.6-3.6,3.6v2.4
	c-5.2,1.6-8.8,6-8.8,11.6c0,6.8,5.6,12,12,12c2.8,0,5.2,2.4,5.2,5.2s-2.4,5.2-5.2,5.2c-1.6,0-2.8-0.4-4-1.6c-1.2-1.6-3.6-1.6-4.8,0
	c-1.6,1.2-1.6,3.6,0,4.8c1.6,1.6,3.2,2.8,5.2,3.2v2.4c0,2,1.6,3.6,3.6,3.6s3.6-1.6,3.6-3.6v-2.4C351.6,226.4,355.6,221.6,355.6,216z
	"/>
<path style="fill:#84DBFF;" d="M228.8,263.2c6.4-9.2,10.4-20.8,10.4-33.2c0-32-26-58-58-58s-58,26-58,58c0,12.4,4,23.6,10.4,33.2
	H228.8z"/>
<path style="fill:#54C0EB;" d="M150.8,263.2h60.4c8.8-8.4,14.8-20,14.8-33.2c0-24.8-20-44.8-44.8-44.8s-44.8,20-44.8,44.8
	C136,243.2,141.6,255.2,150.8,263.2z"/>
<path style="fill:#84DBFF;" d="M180.8,235.2c4,0,7.2,3.2,7.2,7.2s-3.2,7.2-7.2,7.2c-2,0-4-0.8-5.2-2.4c-2-2-4.8-2-6.8-0.4
	s-2,4.8-0.4,6.8c2,2,4.8,3.6,7.6,4.8v3.6c0,0.4,0,1.2,0.4,1.6h9.2c0-0.4,0.4-0.8,0.4-1.6v-3.2c6.8-2,12-8.4,12-16
	c0-9.2-7.6-16.8-16.8-16.8c-4,0-7.2-3.2-7.2-7.2s3.2-7.2,7.2-7.2c2,0,4,0.8,5.2,2.4c2,2,4.8,2,6.8,0.4c2-2,2-4.8,0.4-6.8
	c-2-2-4.8-3.6-7.6-4.8v-3.2c0-2.8-2-4.8-4.8-4.8s-4.8,2-4.8,4.8v2.4c-6.8,2-12,8.4-12,16C164,227.6,171.6,235.2,180.8,235.2z"/>
<path style="fill:#FFFFFF;" d="M376,304.4H132c-11.2,0-20.4-9.2-20.4-20.4l0,0c0-11.2,9.2-20.4,20.4-20.4h244.4
	c11.2,0,20.4,9.2,20.4,20.4l0,0C396.8,295.2,387.6,304.4,376,304.4z"/>
<polygon style="fill:#E6E9EE;" points="377.6,304.4 130.4,304.4 228.4,452.8 228.4,508 279.6,489.2 279.6,452.8 "/>
<g>
</g>
<g>
</g>
<g>
</g>
<g>
</g>
<g>
</g>
<g>
</g>
<g>
</g>
<g>
</g>
<g>
</g>
<g>
</g>
<g>
</g>
<g>
</g>
<g>
</g>
<g>
</g>
<g>
</g>
</svg>
