<?xml version="1.0" encoding="iso-8859-1"?>
<!-- Generator: Adobe Illustrator 19.0.0, SVG Export Plug-In . SVG Version: 6.00 Build 0)  -->
<svg version="1.1" id="Layer_1" xmlns="http://www.w3.org/2000/svg" xmlns:xlink="http://www.w3.org/1999/xlink" x="0px" y="0px"
	 viewBox="0 0 508 508" style="enable-background:new 0 0 508 508;" xml:space="preserve">
<circle style="fill:#324A5E;" cx="254" cy="254" r="254"/>
<path style="fill:#2B3B4E;" d="M12.8,334C46.4,435.2,141.6,508,254,508s207.6-72.8,241.2-174H12.8z"/>
<path style="fill:#FFD05B;" d="M166,334H62.8c-6,0-10-5.2-9.2-11.2l8.4-42.4c0.8-4.4,4.8-7.6,9.2-7.6h86.4c4.4,0,8,3.2,9.2,7.6
	l8.4,42.4C176.4,328.8,172,334,166,334z"/>
<path style="fill:#F9B54C;" d="M175.2,323.2l-8.4-42.4c-0.8-4.4-4.8-7.6-9.2-7.6H140L88,334h78C172,334,176.4,328.8,175.2,323.2z"/>
<path style="fill:#FFD05B;" d="M305.6,334H202.4c-6,0-10-5.2-9.2-11.2l8.8-42.4c0.8-4.4,4.8-7.6,9.2-7.6h86.4c4.4,0,8,3.2,9.2,7.6
	l8.4,42.4C316,328.8,311.6,334,305.6,334z"/>
<path style="fill:#F9B54C;" d="M314.8,323.2l-8.8-42.8c-0.8-4.4-4.8-7.6-9.2-7.6h-17.6L227.6,334h78
	C311.6,334,316,328.8,314.8,323.2z"/>
<path style="fill:#FFD05B;" d="M445.2,334H342c-6,0-10-5.2-9.2-11.2l8.4-42.4c0.8-4.4,4.8-7.6,9.2-7.6h86.4c4.4,0,8,3.2,9.2,7.6
	l8.4,42.4C455.2,328.8,451.2,334,445.2,334z"/>
<path style="fill:#F9B54C;" d="M454.4,323.2l-8.4-42.4c-0.8-4.4-4.8-7.6-9.2-7.6h-17.6l-52,60.8h78
	C451.2,334,455.2,328.8,454.4,323.2z"/>
<path style="fill:#FFD05B;" d="M236,250.4H132.4c-6,0-10-5.2-9.2-11.2l8.4-42.4c0.8-4.4,4.8-7.2,9.2-7.2h86.4c4.4,0,8,3.2,9.2,7.2
	l8.4,42.4C246,244.8,241.6,250.4,236,250.4z"/>
<path style="fill:#F9B54C;" d="M244.8,239.2l-8.4-42.4c-0.8-4.4-4.8-7.6-9.2-7.6h-17.6l-52,60.8h78
	C241.6,250.4,246,244.8,244.8,239.2z"/>
<path style="fill:#FFD05B;" d="M375.6,250.4H272c-6,0-10-5.2-9.2-11.2l8.4-42.4c0.8-4.4,4.8-7.2,9.2-7.2h86.4c4.4,0,8,3.2,9.2,7.2
	l8.4,42.4C385.6,244.8,381.2,250.4,375.6,250.4z"/>
<path style="fill:#F9B54C;" d="M384.4,239.2l-8.4-42.4c-0.8-4.4-4.8-7.6-9.2-7.6h-17.6l-52,60.8h78
	C381.2,250.4,385.6,244.8,384.4,239.2z"/>
<path style="fill:#FFD05B;" d="M305.6,166.4H202.4c-6,0-10-5.2-9.2-11.2l8.8-42.4c0.8-4.4,4.8-7.2,9.2-7.2h86.4c4.4,0,8,3.2,9.2,7.2
	l8.4,42.4C316,161.2,311.6,166.4,305.6,166.4z"/>
<path style="fill:#F9B54C;" d="M314.8,155.6l-8.8-42.8c-0.8-4.4-4.8-7.6-9.2-7.6h-17.6l-52,60.8h78
	C311.6,166.4,316,161.2,314.8,155.6z"/>
<g>
	<polygon style="fill:#FFFFFF;" points="303.2,109.2 330.4,105.6 303.2,102 312.4,89.6 300.4,98.8 296.4,71.6 292.8,98.8 
		280.4,89.6 290,102 262.4,105.6 290,109.2 280.4,121.6 292.8,112 296.4,139.6 300.4,112 312.4,121.6 	"/>
	<polygon style="fill:#FFFFFF;" points="140.8,193.2 168,189.2 140.8,185.6 150,173.2 137.6,182.8 134,155.2 130.4,182.8 118,173.2 
		127.6,185.6 100,189.2 127.6,193.2 118,205.2 130.4,196 134,223.2 137.6,196 150,205.2 	"/>
	<polygon style="fill:#FFFFFF;" points="442,281.6 469.6,278 442,274.4 451.2,262 439.2,271.2 435.2,244 431.6,271.2 419.2,262 
		428.8,274.4 401.2,278 428.8,281.6 419.2,294 431.6,284.8 435.2,312 439.2,284.8 451.2,294 	"/>
</g>
<g>
</g>
<g>
</g>
<g>
</g>
<g>
</g>
<g>
</g>
<g>
</g>
<g>
</g>
<g>
</g>
<g>
</g>
<g>
</g>
<g>
</g>
<g>
</g>
<g>
</g>
<g>
</g>
<g>
</g>
</svg>
