<?xml version="1.0" encoding="iso-8859-1"?>
<!-- Generator: Adobe Illustrator 19.0.0, SVG Export Plug-In . SVG Version: 6.00 Build 0)  -->
<svg version="1.1" id="Layer_1" xmlns="http://www.w3.org/2000/svg" xmlns:xlink="http://www.w3.org/1999/xlink" x="0px" y="0px"
	 viewBox="0 0 508 508" style="enable-background:new 0 0 508 508;" xml:space="preserve">
<circle style="fill:#324A5E;" cx="254" cy="254" r="254"/>
<path style="fill:#FFFFFF;" d="M396,88.8v330c0,7.6-6,13.6-13.6,13.6H175.2v-47.2c0-7.6-6-13.6-13.6-13.6h-47.2V88.8
	c0-7.6,6-13.6,13.6-13.6h254.8C390,75.6,396,81.6,396,88.8z"/>
<path style="fill:#E6E9EE;" d="M175.2,432.4H128c-7.6,0-13.6-6-13.6-13.6V372h47.2c7.6,0,13.6,6,13.6,13.6L175.2,432.4L175.2,432.4z
	"/>
<g>
	<path style="fill:#CED5E0;" d="M175.2,432.4H128c-7.6,0-13.6-6-13.6-13.6V372L175.2,432.4z"/>
	<rect x="296" y="156.4" style="fill:#CED5E0;" width="25.2" height="47.2"/>
</g>
<rect x="260.4" y="119.2" style="fill:#FFD05B;" width="25.2" height="84.4"/>
<rect x="224.8" y="134.8" style="fill:#84DBFF;" width="25.2" height="68.4"/>
<rect x="189.6" y="105.2" style="fill:#FF7058;" width="25.2" height="98"/>
<rect x="180.4" y="203.6" style="fill:#324A5E;" width="149.6" height="7.2"/>
<g>
	<rect x="150" y="292" style="fill:#E6E9EE;" width="210.8" height="10.4"/>
	<rect x="150" y="266.8" style="fill:#E6E9EE;" width="210.8" height="10.4"/>
	<rect x="150" y="241.6" style="fill:#E6E9EE;" width="210.8" height="10.4"/>
	<rect x="150" y="316.8" style="fill:#E6E9EE;" width="210.8" height="10.4"/>
	<rect x="208.8" y="342" style="fill:#E6E9EE;" width="152" height="10.4"/>
</g>
<circle style="fill:#4CDBC4;" cx="365.2" cy="328" r="76"/>
<path style="fill:#FFFFFF;" d="M413.2,290.8c-4-4-10.8-4-15.2,0l-51.6,52l-14-14c-4-4-10.8-4-15.2,0c-4,4-4,10.8,0,15.2l14,14
	c0,0,3.2,3.2,7.6,7.6c4,4,10.8,4,15.2,0l59.2-59.6C417.6,301.6,417.6,295.2,413.2,290.8z"/>
<g>
</g>
<g>
</g>
<g>
</g>
<g>
</g>
<g>
</g>
<g>
</g>
<g>
</g>
<g>
</g>
<g>
</g>
<g>
</g>
<g>
</g>
<g>
</g>
<g>
</g>
<g>
</g>
<g>
</g>
</svg>
