<?xml version="1.0" encoding="iso-8859-1"?>
<!-- Generator: Adobe Illustrator 19.0.0, SVG Export Plug-In . SVG Version: 6.00 Build 0)  -->
<svg version="1.1" id="Layer_1" xmlns="http://www.w3.org/2000/svg" xmlns:xlink="http://www.w3.org/1999/xlink" x="0px" y="0px"
	 viewBox="0 0 508 508" style="enable-background:new 0 0 508 508;" xml:space="preserve">
<circle style="fill:#324A5E;" cx="254" cy="254" r="254"/>
<path style="fill:#E6E9EE;" d="M420,147.2H88c-8,0-14.8,6.8-14.8,14.8v217.6c0,8,6.8,14.8,14.8,14.8h331.6c8,0,14.8-6.8,14.8-14.8
	V162C434.4,154,428,147.2,420,147.2z M288.4,178.4h-68.8c-4,0-7.2-3.2-7.2-7.2s3.2-7.2,7.2-7.2h69.2c4,0,7.2,3.2,7.2,7.2
	S292.8,178.4,288.4,178.4z"/>
<rect x="89.2" y="200" style="fill:#FFFFFF;" width="329.6" height="178.8"/>
<rect x="109.2" y="223.6" style="fill:#84DBFF;" width="115.6" height="131.6"/>
<path style="fill:#54C0EB;" d="M193.6,324.8c-2.4-4.8-6.4-10-6.4-10V312c3.6-2,4.4-13.6,4.4-13.6c6.4,1.2,6.4-12.8,6.4-12.8
	c1.2-10.8-4.8-6.8-4.8-6.8c5.2-4.8,4.8-12,4.8-12c7.6-20-8.4-21.2-8.4-21.2c-0.8-17.6-24-15.6-24-15.6c-23.6-1.6-27.2,26-27.2,26
	c-1.2,10.8,6,22.8,6,22.8c-7.6-3.2-5.2,4.8-5.2,4.8c4,22,7.6,14.8,7.6,14.8c-1.2,5.6,4,10.8,4,10.8l-0.8,3.2c-2,0.8-8.4,12-8.4,12
	c-2.8,0-32.4,13.2-32.4,13.2v17.6h115.6v-14.4C215.6,335.6,193.6,324.8,193.6,324.8z"/>
<rect x="224.8" y="86.4" style="fill:#FFD05B;" width="58.4" height="84.8"/>
<circle style="fill:#FFFFFF;" cx="254" cy="114" r="16.8"/>
<g>
	
		<ellipse transform="matrix(0.7464 -0.6655 0.6655 0.7464 -8.9712 192.625)" style="fill:#E6E9EE;" cx="248.257" cy="108.084" rx="7.2" ry="3.2"/>
	<rect x="242" y="232.8" style="fill:#E6E9EE;" width="150.8" height="13.6"/>
	<rect x="242" y="264.4" style="fill:#E6E9EE;" width="150.8" height="13.6"/>
	<rect x="242" y="298.4" style="fill:#E6E9EE;" width="150.8" height="13.6"/>
	<rect x="242" y="332" style="fill:#E6E9EE;" width="150.8" height="13.6"/>
</g>
<g>
</g>
<g>
</g>
<g>
</g>
<g>
</g>
<g>
</g>
<g>
</g>
<g>
</g>
<g>
</g>
<g>
</g>
<g>
</g>
<g>
</g>
<g>
</g>
<g>
</g>
<g>
</g>
<g>
</g>
</svg>
