<?xml version="1.0" encoding="iso-8859-1"?>
<!-- Generator: Adobe Illustrator 19.0.0, SVG Export Plug-In . SVG Version: 6.00 Build 0)  -->
<svg version="1.1" id="Layer_1" xmlns="http://www.w3.org/2000/svg" xmlns:xlink="http://www.w3.org/1999/xlink" x="0px" y="0px"
	 viewBox="0 0 508 508" style="enable-background:new 0 0 508 508;" xml:space="preserve">
<circle style="fill:#FD8469;" cx="254" cy="254" r="254"/>
<g>
	<path style="fill:#2B3B4E;" d="M169.6,309.2c-2,4-3.6,8.4-4.4,13.2l-40.8-15.6c2.4-4,4-8.4,5.2-12.8L169.6,309.2z"/>
	<path style="fill:#2B3B4E;" d="M278,222.4l-36.4,68c-4-2.8-8-4.8-12.4-6L266,216C269.6,218.8,274,220.8,278,222.4z"/>
	<path style="fill:#2B3B4E;" d="M380.8,198.4c-2,4-3.6,8.4-4.8,13.2l-37.2-13.2c2-4,3.6-8.4,4.8-13.2L380.8,198.4z"/>
</g>
<g>
	<circle style="fill:#FFFFFF;" cx="80.8" cy="282.4" r="49.6"/>
	<circle style="fill:#FFFFFF;" cx="214" cy="331.6" r="49.6"/>
	<circle style="fill:#FFFFFF;" cx="295.2" cy="176" r="49.6"/>
	<circle style="fill:#FFFFFF;" cx="425.2" cy="221.6" r="49.6"/>
</g>
<circle style="fill:#FFD05B;" cx="425.2" cy="221.6" r="28.8"/>
<circle style="fill:#84DBFF;" cx="295.2" cy="176" r="28.8"/>
<circle style="fill:#4CDBC4;" cx="214" cy="331.6" r="28.8"/>
<circle style="fill:#324A5E;" cx="80.8" cy="282.4" r="28.8"/>
<g>
</g>
<g>
</g>
<g>
</g>
<g>
</g>
<g>
</g>
<g>
</g>
<g>
</g>
<g>
</g>
<g>
</g>
<g>
</g>
<g>
</g>
<g>
</g>
<g>
</g>
<g>
</g>
<g>
</g>
</svg>
