<?xml version="1.0" encoding="iso-8859-1"?>
<!-- Generator: Adobe Illustrator 19.0.0, SVG Export Plug-In . SVG Version: 6.00 Build 0)  -->
<svg version="1.1" id="Layer_1" xmlns="http://www.w3.org/2000/svg" xmlns:xlink="http://www.w3.org/1999/xlink" x="0px" y="0px"
	 viewBox="0 0 508 508" style="enable-background:new 0 0 508 508;" xml:space="preserve">
<circle style="fill:#F1543F;" cx="254" cy="254" r="254"/>
<path style="fill:#FFFFFF;" d="M126.4,420h254.8c7.6,0,13.6-6,13.6-13.6V102c0-7.6-6-13.6-13.6-13.6H126.4c-7.6,0-13.6,6-13.6,13.6
	v304.4C113.2,413.6,119.2,420,126.4,420z"/>
<path style="fill:#FF7058;" d="M265.6,254.8l-30-39.6c-2-2.4-5.6-3.2-8-1.2L164,262l2.8,12.4l63.2-47.6l30,39.6c2,2.4,5.6,3.2,8,1.2
	l73.6-55.6c2-1.2,2.8-3.6,2-6l0,0c-0.8-4-6-6-9.2-3.2L265.6,254.8z"/>
<polygon style="fill:#324A5E;" points="352,338 352,352 156,352 156,156 170,156 170,338 "/>
<g>
</g>
<g>
</g>
<g>
</g>
<g>
</g>
<g>
</g>
<g>
</g>
<g>
</g>
<g>
</g>
<g>
</g>
<g>
</g>
<g>
</g>
<g>
</g>
<g>
</g>
<g>
</g>
<g>
</g>
</svg>
