<?xml version="1.0" encoding="iso-8859-1"?>
<!-- Generator: Adobe Illustrator 19.0.0, SVG Export Plug-In . SVG Version: 6.00 Build 0)  -->
<svg version="1.1" id="Layer_1" xmlns="http://www.w3.org/2000/svg" xmlns:xlink="http://www.w3.org/1999/xlink" x="0px" y="0px"
	 viewBox="0 0 508 508" style="enable-background:new 0 0 508 508;" xml:space="preserve">
<circle style="fill:#FFD05B;" cx="254" cy="254" r="254"/>
<path style="fill:#E6E9EE;" d="M322.8,300l-13.6,16l-23.6-20.4c4.8-5.2,8.8-10.8,12.8-16.8L322.8,300z"/>
<path style="fill:#FFFFFF;" d="M432.8,390.8l-18,20.8c-2.8,3.2-7.6,3.6-11.2,0.8l-96-82.8c-3.2-2.8-3.6-7.6-0.8-11.2l18-20.8
	c2.8-3.2,7.6-3.6,11.2-0.8l96.4,82.4C435.2,382.4,435.6,387.2,432.8,390.8z"/>
<rect x="326.779" y="333.082" transform="matrix(-0.7589 -0.6512 0.6512 -0.7589 419.0843 864.5215)" style="fill:#FD8469;" width="85.6" height="43.2"/>
<circle style="fill:#FFFFFF;" cx="190.8" cy="211.2" r="127.2"/>
<circle style="fill:#84DBFF;" cx="190.8" cy="211.2" r="99.6"/>
<path style="fill:#2B3B4E;" d="M265.2,244.4l-54.4-28h-20h-20l-54.4,28l-4.4,27.2c18,23.6,46.8,38.8,78.8,38.8s60.8-15.2,78.8-38.8
	L265.2,244.4z"/>
<g>
	<polygon style="fill:#324A5E;" points="210.8,216.4 225.6,232.8 217.2,239.2 227.6,244.8 190.8,303.6 	"/>
	<polygon style="fill:#324A5E;" points="170.4,216.4 155.6,232.8 164,239.2 153.6,244.8 190.8,303.6 	"/>
</g>
<polygon style="fill:#E6E9EE;" points="210.8,216.4 190.8,303.6 170.4,216.4 "/>
<polygon style="fill:#CED5E0;" points="210.8,216.4 198.4,268.8 190.8,303.6 182.8,268.8 170.4,216.4 "/>
<g>
	<path style="fill:#F1543F;" d="M190.8,229.6L190.8,229.6C190.4,229.6,190.4,229.6,190.8,229.6L190.8,229.6z"/>
	<path style="fill:#F1543F;" d="M200,231.6l-3.6,7.6h-11.6l-3.6-7.6c4.8-2.8,9.2-2,9.2-2S195.2,228.8,200,231.6z"/>
</g>
<polygon style="fill:#FF7058;" points="198.4,268.8 190.8,303.6 182.8,268.8 184.8,239.2 196.4,239.2 "/>
<path style="fill:#F9B54C;" d="M207.2,207.2c-0.8,3.2-3.6,10.8-16.4,22c-11.2-10.4-14.8-18-16-21.6c4.4,6,10,9.6,16,9.6
	C196.8,217.6,202.4,213.6,207.2,207.2z"/>
<g>
	<path style="fill:#E6E9EE;" d="M207.2,205.2c0,0,2,7.6-16.4,24.4c0,0,12-1.2,16.4,10.8C207.2,240.4,217.6,217.2,207.2,205.2z"/>
	<path style="fill:#E6E9EE;" d="M174,205.2c-10.4,12.4,0,35.2,0,35.2c4.4-12,16.4-10.8,16.4-10.8C174,213.6,174,205.2,174,205.2z"/>
</g>
<path style="fill:#FFD05B;" d="M218.8,190.4c-1.2,2.4-3.2,3.6-4.8,4.4c-4.4,12.4-13.2,22.8-23.2,22.8s-18.4-10.4-23.2-22.8
	c-1.6-0.8-3.6-2-4.8-4.4c-2.4-3.6-2.4-8,0-9.2c0.4,0,0.4-0.4,0.8-0.4c0.4,2.8,1.2,5.2,2,7.2c0,0,2,3.6,2.4,7.2
	c0-3.6-0.4-11.6,0.8-13.2c0,0,5.6-9.6,1.6-18c0,0,0.8-12.4,14.8-6.8c0,0,2.8,0.4,5.6,0.8l0,0l0,0l0,0l0,0c2.8-0.4,5.6-0.8,5.6-0.8
	c14-6,14.8,6.8,14.8,6.8c-4,8.4,1.6,18,1.6,18c1.2,1.6,1.2,9.2,0.8,13.2c0.4-3.2,2.4-7.2,2.4-7.2c0.8-2,1.6-4.8,2-7.2
	c0.4,0,0.4,0,0.8,0.4C220.8,182.4,220.8,186.4,218.8,190.4z"/>
<path style="fill:#324A5E;" d="M220.4,152c-0.8-1.2-4.4,0.8-4.4,0.8c0.4-2.8-1.2-9.2-1.2-9.2c-0.8,2-3.2,2.4-3.2,2.4
	c0.4-2-2-7.6-2-7.6c0.4,2.4-3.2,4.8-3.2,4.8c0.4-2-4.4-9.2-4.4-9.2c0.8,1.2,0.4,4,0.4,4c-1.6-3.6-6.4-7.2-6.4-7.2
	c0,0.8-0.4,2-1.2,2.8c-1.2-2.4-3.6-3.6-4-3.6l0,0l0,0l0,0l0,0l0,0l0,0l0,0l0,0l0,0c-0.4,0.4-2.8,1.6-4,3.6c-0.8-0.8-1.2-1.6-1.2-2.8
	c0,0-4.8,3.6-6.4,7.2c0,0-0.4-3.2,0.4-4c0,0-4.8,7.2-4.4,9.2c0,0-3.6-2.4-3.2-4.8c0,0-2.4,5.6-2,7.6c0,0-2.4-0.4-3.2-2.4
	c0,0-1.6,6.4-1.2,9.2c0,0-3.6-2-4.4-0.8c0,0,3.6,3.6,1.6,7.2c0,0-1.2,19.2,2.8,28.8c0,0,2,3.6,2.4,7.2c0-3.6-0.4-11.6,0.8-13.2
	c0,0,5.6-9.6,1.6-18c0,0,0.8-12.4,14.8-6.8c0,0,2.8,0.4,5.6,0.8l0,0l0,0l0,0l0,0c2.8-0.4,5.6-0.8,5.6-0.8c14-6,14.8,6.8,14.8,6.8
	c-4,8.4,1.6,18,1.6,18c1.2,1.6,1.2,9.2,0.8,13.2c0.4-3.2,2.4-7.2,2.4-7.2c4-10,2.8-28.8,2.8-28.8C216.8,155.6,220.4,152,220.4,152z"
	/>
<g>
</g>
<g>
</g>
<g>
</g>
<g>
</g>
<g>
</g>
<g>
</g>
<g>
</g>
<g>
</g>
<g>
</g>
<g>
</g>
<g>
</g>
<g>
</g>
<g>
</g>
<g>
</g>
<g>
</g>
</svg>
