<?xml version="1.0" encoding="iso-8859-1"?>
<!-- Generator: Adobe Illustrator 19.0.0, SVG Export Plug-In . SVG Version: 6.00 Build 0)  -->
<svg version="1.1" id="Layer_1" xmlns="http://www.w3.org/2000/svg" xmlns:xlink="http://www.w3.org/1999/xlink" x="0px" y="0px"
	 viewBox="0 0 508.214 508.214" style="enable-background:new 0 0 508.214 508.214;" xml:space="preserve">
<circle style="fill:#324A5E;" cx="254.214" cy="254.107" r="254"/>
<rect x="126.214" y="261.707" style="fill:#E6E9EE;" width="382" height="192.8"/>
<g>
	<path style="fill:#2C9984;" d="M138.614,274.107v168.4h357.6v-168.4H138.614z M150.614,405.707v-94.8c13.6,0,24.4-10.8,24.4-24.4
		h103.2c-21.6,14.8-36.4,41.6-36.4,72s14.4,57.2,36.4,72h-103.2C175.014,416.507,164.214,405.707,150.614,405.707z M483.814,405.707
		c-13.6,0-24.4,10.8-24.4,24.4h-102.8c21.6-14.8,36.4-41.6,36.4-72s-14.4-57.2-36.4-72h102.8c0,13.6,10.8,24.4,24.4,24.4V405.707z"
		/>
	<circle style="fill:#2C9984;" cx="439.814" cy="358.107" r="26"/>
	<circle style="fill:#2C9984;" cx="194.614" cy="358.107" r="26"/>
</g>
<path style="fill:#E6E9EE;" d="M317.414,349.707c-6.8,0-12.4-5.6-12.4-12.4s5.6-12.4,12.4-12.4c3.6,0,6.8,1.6,9.2,4
	c3.2,3.2,8.4,3.6,12,0.4c3.2-3.2,3.6-8.4,0.4-12c-3.6-3.6-8-6.4-12.8-8v-6c0-4.8-3.6-8.4-8.4-8.4s-8.4,3.6-8.4,8.4v6
	c-12,3.6-20.8,14.8-20.8,28c0,16,13.2,29.2,29.2,29.2c6.8,0,12.4,5.6,12.4,12.4s-5.6,12.4-12.4,12.4c-3.6,0-6.8-1.6-9.2-4
	c-3.2-3.2-8.4-3.6-12-0.4c-3.2,3.2-3.6,8.4-0.4,12c3.6,3.6,8,6.4,12.8,8v6c0,4.8,3.6,8.4,8.4,8.4s8.4-3.6,8.4-8.4v-6
	c12-3.6,20.8-14.8,20.8-28C346.614,362.907,333.414,349.707,317.414,349.707z"/>
<rect x="109.23" y="63.278" transform="matrix(-0.6796 -0.7336 0.7336 -0.6796 158.8386 577.9357)" style="fill:#FFFFFF;" width="192.802" height="382.005"/>
<g>
	<path style="fill:#4CDBC4;" d="M17.414,313.707l114.4,123.6l262.4-242.8l-114.4-123.6L17.414,313.707z M115.814,402.107l-64.4-69.6
		c10-9.2,10.4-24.8,1.2-34.4l75.6-70c-6,25.6,1.6,55.2,22.4,77.6s49.6,32,75.6,28l-76,69.6
		C141.414,393.707,125.814,392.907,115.814,402.107z M360.214,175.707c-10,9.2-10.4,24.8-1.2,34.4l-75.6,70
		c6-25.6-1.6-55.2-22.4-77.6s-49.6-32-75.6-28l75.6-70c9.2,10,24.8,10.4,34.4,1.2L360.214,175.707z"/>
	<circle style="fill:#4CDBC4;" cx="295.814" cy="170.907" r="26"/>
	<circle style="fill:#4CDBC4;" cx="115.814" cy="337.307" r="26"/>
</g>
<path style="fill:#FFFFFF;" d="M200.214,248.107c-5.2,4.8-13.2,4.4-17.6-0.8c-4.8-5.2-4.4-13.2,0.8-17.6c2.4-2.4,6-3.6,9.2-3.2
	c4.8,0.4,8.8-3.2,8.8-7.6c0.4-4.8-3.2-8.8-7.6-8.8c-5.2-0.4-10.4,0.8-14.8,2.8l-4-4.4c-3.2-3.2-8.4-3.6-12-0.4
	c-3.2,3.2-3.6,8.4-0.4,12l4,4.4c-6.4,10.8-5.2,25.2,3.6,34.8c10.8,12,29.6,12.4,41.2,1.6c5.2-4.8,13.2-4.4,17.6,0.8
	c4.8,5.2,4.4,13.2-0.8,17.6c-2.4,2.4-6,3.6-9.2,3.2c-4.8-0.4-8.8,3.2-8.8,7.6c-0.4,4.8,3.2,8.8,7.6,8.8c5.2,0.4,10.4-0.8,14.8-2.8
	l4,4.4c3.2,3.2,8.4,3.6,12,0.4c3.2-3.2,3.6-8.4,0.4-12l-4-4.4c6.4-10.8,5.2-25.2-3.6-34.8
	C230.614,237.707,211.814,236.907,200.214,248.107z"/>
<g>
</g>
<g>
</g>
<g>
</g>
<g>
</g>
<g>
</g>
<g>
</g>
<g>
</g>
<g>
</g>
<g>
</g>
<g>
</g>
<g>
</g>
<g>
</g>
<g>
</g>
<g>
</g>
<g>
</g>
</svg>
