<?xml version="1.0" encoding="iso-8859-1"?>
<!-- Generator: Adobe Illustrator 19.0.0, SVG Export Plug-In . SVG Version: 6.00 Build 0)  -->
<svg version="1.1" id="Layer_1" xmlns="http://www.w3.org/2000/svg" xmlns:xlink="http://www.w3.org/1999/xlink" x="0px" y="0px"
	 viewBox="0 0 508 508" style="enable-background:new 0 0 508 508;" xml:space="preserve">
<circle style="fill:#FD8469;" cx="254" cy="254" r="254"/>
<rect x="167.205" y="20.393" transform="matrix(-0.3244 -0.9459 0.9459 -0.3244 154.4188 495.0686)" style="fill:#FFFFFF;" width="173.597" height="343.993"/>
<g>
	<path style="fill:#4CDBC4;" d="M77.2,172.8L126.4,316l304.4-104.4L381.6,68.4L77.2,172.8z M126,281.6l-27.6-80.8
		c11.6-4,17.6-16.4,13.6-28l87.6-30c-14.4,18.8-18.8,46-10,72s29.2,44.4,52,50.8L154,295.2C150,283.6,137.6,277.6,126,281.6z
		 M409.6,184c-11.6,4-17.6,16.4-13.6,28l-87.6,30c14.4-18.8,18.8-46,10-72s-29.2-44.4-52-50.8L354,89.6c4,11.6,16.4,17.6,28,13.6
		L409.6,184z"/>
	<circle style="fill:#4CDBC4;" cx="254" cy="156.4" r="23.6"/>
	<circle style="fill:#4CDBC4;" cx="129.2" cy="228.4" r="23.6"/>
</g>
<path style="fill:#FFFFFF;" d="M231.2,185.2c-6,2-12.4-1.2-14.4-7.2s1.2-12.4,7.2-14.4c2.8-1.2,6-0.8,8.8,0.8c3.6,2,8.4,0.4,10-3.2
	c2-3.6,0.4-8.4-3.2-10c-4-2-8.8-3.2-13.2-2.8l-1.6-4.8c-1.2-4-5.6-6-9.6-4.8s-6,5.6-4.8,9.6l1.6,4.8c-9.2,6.8-13.6,18.8-9.6,30
	c4.8,13.6,19.6,21.2,33.6,16.4c6-2,12.4,1.2,14.4,7.2s-1.2,12.4-7.2,14.4c-2.8,1.2-6,0.8-8.8-0.8c-3.6-2-8.4-0.4-10,3.2
	c-2,3.6-0.4,8.4,3.2,10c4,2,8.8,3.2,13.2,2.8l1.6,4.8c1.2,4,5.6,6,9.6,4.8s6-5.6,4.8-9.6l-1.6-4.8c9.2-6.8,13.6-18.8,9.6-30
	C260,188,245.2,180.4,231.2,185.2z"/>
<circle style="fill:#FFD05B;" cx="254" cy="380.8" r="72.8"/>
<circle style="fill:#F9B54C;" cx="254" cy="360.8" r="72.8"/>
<circle style="fill:#FFD05B;" cx="254" cy="340.8" r="72.8"/>
<circle style="fill:#F9B54C;" cx="254" cy="320.8" r="72.8"/>
<circle style="fill:#FFD05B;" cx="254" cy="300.8" r="72.8"/>
<circle style="fill:#F9B54C;" cx="254" cy="280.8" r="72.8"/>
<circle style="fill:#FFD05B;" cx="254" cy="261.2" r="72.8"/>
<circle style="fill:#F9B54C;" cx="254" cy="261.2" r="56"/>
<path style="fill:#FFD05B;" d="M275.2,276c0-11.6-9.6-21.2-21.2-21.2c-4.8,0-9.2-4-9.2-9.2c0-4.8,4-9.2,9.2-9.2
	c2.4,0,4.8,1.2,6.4,2.8c2.4,2.4,6,2.4,8.4,0.4c2.4-2.4,2.4-6,0.4-8.4c-2.4-2.8-6-4.8-9.2-5.6v-4c0-3.2-2.8-6-6-6c-3.2,0-6,2.8-6,6v4
	c-8.8,2.8-15.2,10.8-15.2,20.4c0,11.6,9.6,21.2,21.2,21.2c4.8,0,9.2,4,9.2,9.2c0,4.8-4,9.2-9.2,9.2c-2.4,0-4.8-1.2-6.4-2.8
	c-2.4-2.4-6-2.4-8.4-0.4c-2.4,2.4-2.4,6-0.4,8.4c2.4,2.8,6,4.8,9.2,5.6v4c0,3.2,2.8,6,6,6c3.2,0,6-2.8,6-6v-4
	C268.8,293.6,275.2,285.6,275.2,276z"/>
<circle style="fill:#F9B54C;" cx="184" cy="380.8" r="72.8"/>
<circle style="fill:#FFD05B;" cx="184" cy="360.8" r="72.8"/>
<circle style="fill:#F9B54C;" cx="184" cy="340.8" r="72.8"/>
<circle style="fill:#FFD05B;" cx="184" cy="320.8" r="72.8"/>
<circle style="fill:#F9B54C;" cx="184" cy="320.8" r="56"/>
<path style="fill:#FFD05B;" d="M205.2,336c0-11.6-9.6-21.2-21.2-21.2c-4.8,0-9.2-4-9.2-9.2c0-4.8,4-9.2,9.2-9.2
	c2.4,0,4.8,1.2,6.4,2.8c2.4,2.4,6,2.4,8.4,0.4c2.4-2.4,2.4-6,0.4-8.4c-2.4-2.8-6-4.8-9.2-5.6v-4c0-3.2-2.8-6-6-6s-6,2.8-6,6v4
	c-8.8,2.8-15.2,10.8-15.2,20.4c0,11.6,9.6,21.2,21.2,21.2c4.8,0,9.2,4,9.2,9.2c0,4.8-4,9.2-9.2,9.2c-2.4,0-4.8-1.2-6.4-2.8
	c-2.4-2.4-6-2.4-8.4-0.4c-2.4,2.4-2.4,6-0.4,8.4c2.4,2.8,6,4.8,9.2,5.6v4c0,3.2,2.8,6,6,6s6-2.8,6-6v-4
	C198.8,353.6,205.2,345.6,205.2,336z"/>
<g>
</g>
<g>
</g>
<g>
</g>
<g>
</g>
<g>
</g>
<g>
</g>
<g>
</g>
<g>
</g>
<g>
</g>
<g>
</g>
<g>
</g>
<g>
</g>
<g>
</g>
<g>
</g>
<g>
</g>
</svg>
