<?xml version="1.0" encoding="iso-8859-1"?>
<!-- Generator: Adobe Illustrator 19.0.0, SVG Export Plug-In . SVG Version: 6.00 Build 0)  -->
<svg version="1.1" id="Layer_1" xmlns="http://www.w3.org/2000/svg" xmlns:xlink="http://www.w3.org/1999/xlink" x="0px" y="0px"
	 viewBox="0 0 508 508" style="enable-background:new 0 0 508 508;" xml:space="preserve">
<circle style="fill:#84DBFF;" cx="254" cy="254" r="254"/>
<polygon style="fill:#E6E9EE;" points="362,398 120,426.8 120,88 362,59.2 "/>
<rect x="120" y="88" style="fill:#FFFFFF;" width="268.4" height="338.8"/>
<g>
	<path style="fill:#FF7058;" d="M183.6,158l-19.2-28v25.6c0,2-1.6,3.6-3.6,3.6s-3.6-1.6-3.6-3.6V118c0-2,1.6-3.6,3.6-3.6
		c1.2,0,2.4,0.4,3.2,1.6l19.2,27.6V118c0-2,1.6-3.6,3.6-3.6s3.6,1.6,3.6,3.6v37.6c0,2-1.6,3.6-3.6,3.6
		C185.6,159.6,184.4,158.8,183.6,158z"/>
	<path style="fill:#FF7058;" d="M236.8,155.6c0,2-1.6,3.6-3.6,3.6h-20.4c-2,0-3.6-1.6-3.6-3.6V118c0-2,1.6-3.6,3.6-3.6h20.4
		c2,0,3.6,1.6,3.6,3.6s-1.6,3.6-3.6,3.6h-16.8v11.2h13.2c2,0,3.6,1.6,3.6,3.6s-1.6,3.6-3.6,3.6h-13.2v11.2h16.8
		C234.8,152,236.8,153.6,236.8,155.6z"/>
	<path style="fill:#FF7058;" d="M310,118.4c0,0.4,0,0.8-0.4,1.6L294,157.2c-0.4,1.6-2,2.4-3.2,2.4c-1.6,0-2.8-0.8-3.6-2.4l-4.8-12
		l-5.2,12c-0.4,1.6-2,2.4-3.2,2.4c-1.6,0-2.8-0.8-3.6-2.4L254.8,120c0-0.4-0.4-0.8-0.4-1.6c0-2,1.6-3.6,3.6-3.6
		c1.6,0,2.8,0.8,3.2,2.4l12,29.2l4.4-10.4l-6.4-15.6c0-0.4-0.4-0.8-0.4-1.6c0-2,1.6-3.6,3.6-3.6c1.6,0,2.8,0.8,3.2,2.4l3.6,8.8
		l3.6-8.8c0.4-1.6,2-2.4,3.2-2.4c2.4,0,3.6,2,3.6,3.6c0,0.4,0,0.8-0.4,1.6l-6.8,15.6l4.4,10.4l12-29.2c0.4-1.6,2-2.4,3.2-2.4
		c0.4,0,1.2,0,1.6,0.4C309.2,115.6,310,116.8,310,118.4z"/>
	<path style="fill:#FF7058;" d="M351.2,144.4v0.8c0,3.6-1.6,7.2-4,10c-2.8,2.8-6.8,4.4-10.8,4.4H336c-5.6,0-10-3.2-12.4-8
		c-0.4-0.4-0.4-1.2-0.4-1.6c0-1.6,0.8-2.8,2-3.2c0.4-0.8,0.8-0.8,1.6-0.8c1.6,0,2.8,0.8,3.6,2c1.2,2.4,3.2,3.6,6,3.6h0.4
		c2.4,0,4-0.8,5.6-2c1.2-1.2,2-2.8,2-4.8v-0.4c0-2.8-5.6-5.6-8.4-6.4h-0.4c-6.8-2.4-10-6.4-10-12.4v-0.4c0-3.2,1.6-6.4,4.4-8.4
		c2.4-1.6,5.6-2.8,8.8-2.8h0.4c2.8,0,5.6,1.2,7.6,2.8c0.8,0.8,1.6,2,1.6,2.8s-0.4,1.6-0.8,2.4c-0.8,0.8-2,1.6-3.2,1.6
		c-0.8,0-1.6,0-2.4-0.8s-2.4-1.2-3.2-1.2h-0.4c-3.2,0-5.6,1.6-5.6,4v0.4c0,3.2,2.4,4.4,4.8,5.2C339.6,132,350.8,135.6,351.2,144.4z"
		/>
</g>
<g>
	<rect x="138.4" y="185.2" style="fill:#E6E9EE;" width="100" height="9.2"/>
	<rect x="269.6" y="185.2" style="fill:#E6E9EE;" width="100" height="9.2"/>
	<rect x="138.4" y="211.6" style="fill:#E6E9EE;" width="100" height="9.2"/>
	<rect x="138.4" y="238.4" style="fill:#E6E9EE;" width="100" height="9.2"/>
	<rect x="138.4" y="264.8" style="fill:#E6E9EE;" width="100" height="9.2"/>
</g>
<g>
	<rect x="269.6" y="212.8" style="fill:#ACB3BA;" width="100" height="80"/>
	<rect x="138.4" y="300.4" style="fill:#ACB3BA;" width="100" height="80"/>
</g>
<g>
	<rect x="269.6" y="318.4" style="fill:#E6E9EE;" width="100" height="9.2"/>
	<rect x="269.6" y="344.8" style="fill:#E6E9EE;" width="100" height="9.2"/>
	<rect x="269.6" y="371.6" style="fill:#E6E9EE;" width="100" height="9.2"/>
	<rect x="138.4" y="398" style="fill:#E6E9EE;" width="100" height="9.2"/>
	<rect x="269.6" y="398" style="fill:#E6E9EE;" width="100" height="9.2"/>
</g>
<g>
</g>
<g>
</g>
<g>
</g>
<g>
</g>
<g>
</g>
<g>
</g>
<g>
</g>
<g>
</g>
<g>
</g>
<g>
</g>
<g>
</g>
<g>
</g>
<g>
</g>
<g>
</g>
<g>
</g>
</svg>
