<?xml version="1.0" encoding="iso-8859-1"?>
<!-- Generator: Adobe Illustrator 19.0.0, SVG Export Plug-In . SVG Version: 6.00 Build 0)  -->
<svg version="1.1" id="Layer_1" xmlns="http://www.w3.org/2000/svg" xmlns:xlink="http://www.w3.org/1999/xlink" x="0px" y="0px"
	 viewBox="0 0 508 508" style="enable-background:new 0 0 508 508;" xml:space="preserve">
<circle style="fill:#90DFAA;" cx="254" cy="254" r="254"/>
<path style="fill:#324A5E;" d="M113.6,97.2v314.4c0,15.2,12.4,27.6,27.6,27.6h225.2c15.2,0,27.6-12.4,27.6-27.6V97.2
	c0-15.2-12.4-27.6-27.6-27.6H141.2C126,69.2,113.6,81.6,113.6,97.2z"/>
<path style="fill:#FFFFFF;" d="M135.2,104.8v278c0,6.4,5.2,11.2,11.2,11.2h174.8v-39.6c0-6.4,5.2-11.2,11.2-11.2H372V104.8
	c0-6.4-5.2-11.2-11.2-11.2h-214C140.4,93.6,135.2,98.4,135.2,104.8z"/>
<path style="fill:#E6E9EE;" d="M321.6,394h39.6c6.4,0,11.2-5.2,11.2-11.2v-39.6h-39.6c-6.4,0-11.2,5.2-11.2,11.2V394z"/>
<path style="fill:#CED5E0;" d="M321.6,394h39.6c6.4,0,11.2-5.2,11.2-11.2v-39.6L321.6,394z"/>
<g>
	<rect x="158.8" y="281.6" style="fill:#E6E9EE;" width="190.4" height="8.4"/>
	<rect x="158.8" y="255.6" style="fill:#E6E9EE;" width="190.4" height="8.4"/>
	<rect x="158.8" y="229.2" style="fill:#E6E9EE;" width="190.4" height="8.4"/>
	<rect x="158.8" y="202.8" style="fill:#E6E9EE;" width="190.4" height="8.4"/>
	<rect x="158.8" y="176.4" style="fill:#E6E9EE;" width="190.4" height="8.4"/>
	<rect x="158.8" y="150" style="fill:#E6E9EE;" width="190.4" height="8.4"/>
	<rect x="158.8" y="308" style="fill:#E6E9EE;" width="190.4" height="8.4"/>
	<rect x="158.8" y="334.4" style="fill:#E6E9EE;" width="103.2" height="8.4"/>
</g>
<path style="fill:#FF7058;" d="M284,62.8c0-16.8-13.6-30-30-30s-30,13.6-30,30h-44v39.6h148.4V62.8H284z"/>
<circle style="fill:#FFFFFF;" cx="254" cy="62.8" r="14.8"/>
<g>
</g>
<g>
</g>
<g>
</g>
<g>
</g>
<g>
</g>
<g>
</g>
<g>
</g>
<g>
</g>
<g>
</g>
<g>
</g>
<g>
</g>
<g>
</g>
<g>
</g>
<g>
</g>
<g>
</g>
</svg>
