<?xml version="1.0" encoding="iso-8859-1"?>
<!-- Generator: Adobe Illustrator 19.0.0, SVG Export Plug-In . SVG Version: 6.00 Build 0)  -->
<svg version="1.1" id="Layer_1" xmlns="http://www.w3.org/2000/svg" xmlns:xlink="http://www.w3.org/1999/xlink" x="0px" y="0px"
	 viewBox="0 0 508 508" style="enable-background:new 0 0 508 508;" xml:space="preserve">
<circle style="fill:#90DFAA;" cx="254" cy="254" r="254"/>
<path style="fill:#FFFFFF;" d="M428,112.8H80c-8.4,0-15.6,6.8-15.6,15.6v252c0,8.4,6.8,15.6,15.6,15.6h348c8.4,0,15.6-6.8,15.6-15.6
	v-252C443.2,119.6,436.4,112.8,428,112.8z"/>
<path style="fill:#324A5E;" d="M428,112.8H80c-8.4,0-15.6,6.8-15.6,15.6v34.8h378.8v-34.8C443.2,119.6,436.4,112.8,428,112.8z"/>
<circle style="fill:#FF7058;" cx="418" cy="137.6" r="10.4"/>
<circle style="fill:#4CDBC4;" cx="390" cy="137.6" r="10.4"/>
<path style="fill:#FFFFFF;" d="M89.2,126.4h260c6.4,0,11.6,5.2,11.6,11.6l0,0c0,6.4-5.2,11.6-11.6,11.6h-260
	c-6.4,0-11.6-5.2-11.6-11.6l0,0C77.6,131.2,82.8,126.4,89.2,126.4z"/>
<path style="fill:#CED5E0;" d="M349.2,126.4h-33.6v23.2h33.6c6.4,0,11.6-5.2,11.6-11.6C360.8,131.2,355.6,126.4,349.2,126.4z"/>
<polygon style="fill:#FF7058;" points="314.8,201.6 326.4,213.2 252.8,286.4 215.2,248.8 150.4,314 150.4,329.6 215.2,264.8 
	252.8,302.4 334,221.2 346,232.8 357.6,190 "/>
<g>
	<polygon style="fill:#4CDBC4;" points="202,366.4 202,292.4 169.2,325.2 169.2,366.4 	"/>
	<polygon style="fill:#4CDBC4;" points="245.6,366.4 245.6,306 216.8,277.6 212.8,282 212.8,366.4 	"/>
	<polygon style="fill:#4CDBC4;" points="288.8,366.4 288.8,280.8 256,313.6 256,366.4 	"/>
	<polygon style="fill:#4CDBC4;" points="332.4,366.4 332.4,237.2 299.6,270.4 299.6,366.4 	"/>
</g>
<g>
</g>
<g>
</g>
<g>
</g>
<g>
</g>
<g>
</g>
<g>
</g>
<g>
</g>
<g>
</g>
<g>
</g>
<g>
</g>
<g>
</g>
<g>
</g>
<g>
</g>
<g>
</g>
<g>
</g>
</svg>
