<?xml version="1.0" encoding="iso-8859-1"?>
<!-- Generator: Adobe Illustrator 19.0.0, SVG Export Plug-In . SVG Version: 6.00 Build 0)  -->
<svg version="1.1" id="Layer_1" xmlns="http://www.w3.org/2000/svg" xmlns:xlink="http://www.w3.org/1999/xlink" x="0px" y="0px"
	 viewBox="0 0 508 508" style="enable-background:new 0 0 508 508;" xml:space="preserve">
<circle style="fill:#FFD05B;" cx="254" cy="254" r="254"/>
<path style="fill:#F9B54C;" d="M95.6,452.4C139.2,487.2,194,508,254,508s114.8-20.8,158.4-55.6H95.6z"/>
<polygon style="fill:#2B3B4E;" points="264.8,361.2 275.6,392.8 232.8,392.8 243.2,361.2 226,361.2 195.2,451.6 214,451.6 
	228.8,407.2 279.2,407.2 294.4,451.6 314,451.6 283.2,361.2 "/>
<rect x="80" y="137.6" style="fill:#FFFFFF;" width="348.8" height="210"/>
<g>
	<path style="fill:#324A5E;" d="M434.8,137.6H73.2c-2.8,0-5.2-2.4-5.2-5.2v-17.2c0-2.8,2.4-5.2,5.2-5.2h361.6c2.8,0,5.2,2.4,5.2,5.2
		v17.2C440,135.6,437.6,137.6,434.8,137.6z"/>
	<path style="fill:#324A5E;" d="M434.8,374.8H73.2c-2.8,0-5.2-2.4-5.2-5.2v-17.2c0-2.8,2.4-5.2,5.2-5.2h361.6c2.8,0,5.2,2.4,5.2,5.2
		V370C440,372.8,437.6,374.8,434.8,374.8z"/>
</g>
<polygon style="fill:#FF7058;" points="348,230.4 226,292 202.8,246 144.4,275.6 138,262.8 209.2,227.2 232.4,273.2 341.6,218 
	330,195.2 374,209.6 359.6,253.6 "/>
<g>
</g>
<g>
</g>
<g>
</g>
<g>
</g>
<g>
</g>
<g>
</g>
<g>
</g>
<g>
</g>
<g>
</g>
<g>
</g>
<g>
</g>
<g>
</g>
<g>
</g>
<g>
</g>
<g>
</g>
</svg>
