<?xml version="1.0" encoding="iso-8859-1"?>
<!-- Generator: Adobe Illustrator 19.0.0, SVG Export Plug-In . SVG Version: 6.00 Build 0)  -->
<svg version="1.1" id="Layer_1" xmlns="http://www.w3.org/2000/svg" xmlns:xlink="http://www.w3.org/1999/xlink" x="0px" y="0px"
	 viewBox="0 0 508 508" style="enable-background:new 0 0 508 508;" xml:space="preserve">
<circle style="fill:#FFD05B;" cx="254" cy="254" r="254"/>
<path style="fill:#E6E9EE;" d="M161.2,174.4l-3.2,8l2.4,9.6l7.2-17.2L161.2,174.4z M417.6,197.2l1.2-2.4L410,194l1.2,3.2L398.4,228
	l-12.8-30.8l2-4.8l-11.2-0.8l2.4,6L366,228.4l-12.8-30.8l3.2-7.6l-6.4-0.4l0,0l0,0l-6.8-0.4l3.6,8.4L334,228.4l-12.8-30.8l4-10
	l-7.2-0.8l-1.2,2.8l-1.2-2.8l-6.8-0.8l4.8,11.2L300.8,228L288,197.2l5.2-12.4l-6.4-0.4l-2,5.2l-2.4-5.6l-6.8-0.4l6,14l-12.8,30.8
	L256,197.6l6.4-14.8l-7.2-0.8l-3.2,7.6l-3.6-8l-6.4-0.8l6.8,16.4L236,228l-12.8-30.8l7.2-17.6l-6.4-0.4l-4.4,10l-4.4-10.8l-6.8-0.4
	l8,19.2L203.6,228l-12.8-30.8l8.4-20l-6.4-0.4l-5.2,12.8L182,176l-6.8-0.4l9.2,22l-12.8,30.8l-2.8-6.8l11.2,42.8l4.4,10.8l-1.2,2.4
	l2.4,9.6l1.6-4.4l12.8,30.8l-2,5.2h10.8l-2-5.2l12.8-30.8l12.8,30.8l-2,5.2h10.8l-2-5.2l12.8-30.8l12.8,30.8l-2,5.2h10.8l-2-5.2
	l12.8-30.8l12.8,30.8l-2,5.2H306l-2-5.2l12.8-30.8l12.8,30.8l-2,5.2h10.8l-2-5.2l12.8-30.8l12.8,30.8l-2,5.2h10.8l-2-5.2l12.8-30.8
	l12.8,30.8l-2,5.2h9.2l0.4-3.2l-0.8-2l2-4.8l4.8-27.2L398,306l-12.8-30.8l12.8-30.8l12,28l2-11.2l-10.4-24.8l12.8-30.8l5.2,12.4
	l2-11.2L417.6,197.2z M174.4,236l12.8-30.8L200,236l-12.8,30.8L174.4,236z M203.2,305.6l-12.8-30.8l12.8-30.8l12.8,30.8L203.2,305.6
	z M206.8,236l12.8-30.8l12.8,30.8l-12.8,30.8L206.8,236z M236,305.6l-12.8-30.8L236,244l12.8,30.8L236,305.6z M239.2,236l12.8-30.8
	l12.8,30.8L252,266.8L239.2,236z M268.4,305.6l-12.8-30.8l12.8-30.8l12.8,30.8L268.4,305.6z M271.6,236l12.8-30.8l12.8,30.8
	l-12.8,30.8L271.6,236z M300.8,305.6L288,274.8l12.8-30.8l12.8,30.8L300.8,305.6z M304,236l12.8-30.8l12.8,30.8l-12.8,30.8L304,236z
	 M333.2,305.6l-12.8-30.8l12.8-30.8l12.8,30.8L333.2,305.6z M336.4,236l12.8-30.8L362,236l-12.8,30.8L336.4,236z M365.6,305.6
	l-12.8-30.8l12.8-30.8l12.8,30.8L365.6,305.6z M382,266.8L369.2,236l12.8-30.8l12.8,30.8L382,266.8z"/>
<g>
	<path style="fill:#FFFFFF;" d="M431.6,188.8c-0.8-0.8-1.6-1.6-2.8-1.6l-275.6-22L142.4,124c-0.4-1.2-1.2-2.4-2.4-2.8l-54.8-20.4
		c-2-0.8-4.4,0.4-5.2,2.4c-0.8,2,0.4,4.4,2.4,5.2l52.8,19.6l10.8,42.4L198.4,368c0.4,2,2,3.2,4,3.2h202c2.4,0,4-2,4-4c0-2.4-2-4-4-4
		H205.6l-9.6-36h209.2c2,0,3.6-1.6,4-3.6l23.2-131.2C432.8,191.2,432.4,190,431.6,188.8z M401.6,318.8h-208l-12.8-48.4L155.6,174
		l268,21.2L401.6,318.8z"/>
	<path style="fill:#FFFFFF;" d="M160.4,192l-2.4,5.2l10,24L160.4,192z M160.4,192l-2.4,5.2l10,24L160.4,192z"/>
</g>
<circle style="fill:#324A5E;" cx="374.8" cy="389.6" r="22.4"/>
<circle style="fill:#E6E9EE;" cx="374.8" cy="389.6" r="13.6"/>
<circle style="fill:#324A5E;" cx="231.6" cy="389.6" r="22.4"/>
<circle style="fill:#E6E9EE;" cx="231.6" cy="389.6" r="13.6"/>
<path style="fill:#324A5E;" d="M126.4,117.6c0-3.6-2-6.4-5.2-7.6L86.8,97.2c-6.8-2.4-8.8,1.2-10,3.2c-4,8,2,11.6,4,12.4l34.4,12.8
	C120.4,127.2,126.4,123.2,126.4,117.6L126.4,117.6z"/>
<g>
</g>
<g>
</g>
<g>
</g>
<g>
</g>
<g>
</g>
<g>
</g>
<g>
</g>
<g>
</g>
<g>
</g>
<g>
</g>
<g>
</g>
<g>
</g>
<g>
</g>
<g>
</g>
<g>
</g>
</svg>
