<?xml version="1.0" encoding="iso-8859-1"?>
<!-- Generator: Adobe Illustrator 19.0.0, SVG Export Plug-In . SVG Version: 6.00 Build 0)  -->
<svg version="1.1" id="Layer_1" xmlns="http://www.w3.org/2000/svg" xmlns:xlink="http://www.w3.org/1999/xlink" x="0px" y="0px"
	 viewBox="0 0 508 508" style="enable-background:new 0 0 508 508;" xml:space="preserve">
<circle style="fill:#84DBFF;" cx="254" cy="254" r="254"/>
<path style="fill:#2B3B4E;" d="M268.4,85.2v23.6c-4.8-0.4-9.6-0.8-14.4-0.8c-4.8,0-9.6,0-14.4,0.8V85.2H268.4z"/>
<g>
	<path style="fill:#324A5E;" d="M303.6,85.2h-99.2c-3.2,0-6-2.8-6-6l0,0c0-14.4,11.6-26.4,26.4-26.4h58.8
		c14.4,0,26.4,11.6,26.4,26.4l0,0C309.6,82.4,306.8,85.2,303.6,85.2z"/>
	<circle style="fill:#324A5E;" cx="254" cy="281.6" r="173.6"/>
</g>
<circle style="fill:#FFFFFF;" cx="254" cy="281.6" r="144"/>
<path style="fill:#84DBFF;" d="M254,156L254,156L254,156L254,156c-69.2,0-125.6,56.4-125.6,125.6S184.8,407.2,254,407.2
	s125.6-56.4,125.6-125.6S323.2,156,254,156z M257.2,400.4v-14c0-2-1.6-3.2-3.2-3.2s-3.2,1.6-3.2,3.2v14
	c-62.8-1.6-114-52.8-115.6-115.6h14c2,0,3.2-1.6,3.2-3.2c0-2-1.6-3.2-3.2-3.2h-14c1.6-62.8,52.8-114,115.6-115.6v14
	c0,2,1.6,3.2,3.2,3.2s3.2-1.6,3.2-3.2v-14c62.8,1.6,114,52.8,115.6,115.6h-14c-2,0-3.2,1.6-3.2,3.2c0,2,1.6,3.2,3.2,3.2h14
	C371.2,348,320.4,398.8,257.2,400.4z"/>
<g>
	<path style="fill:#F1543F;" d="M268,219.6h-7.6l-3.2,45.2c-1.2-0.4-2.4-0.4-3.6-0.4c-1.2,0-2.4,0-3.6,0.4l-3.2-45.2h-7.6l14-22.8
		L268,219.6z"/>
	<path style="fill:#F1543F;" d="M277.2,322l4.4-4.4L262.8,296c2-1.2,4-3.2,5.2-5.6l21.6,18.8l4.4-4.4l5.2,22.8L277.2,322z"/>
</g>
<circle style="fill:#FF7058;" cx="254" cy="281.6" r="16.8"/>
<g>
</g>
<g>
</g>
<g>
</g>
<g>
</g>
<g>
</g>
<g>
</g>
<g>
</g>
<g>
</g>
<g>
</g>
<g>
</g>
<g>
</g>
<g>
</g>
<g>
</g>
<g>
</g>
<g>
</g>
</svg>
