<?xml version="1.0" encoding="iso-8859-1"?>
<!-- Generator: Adobe Illustrator 19.0.0, SVG Export Plug-In . SVG Version: 6.00 Build 0)  -->
<svg version="1.1" id="Layer_1" xmlns="http://www.w3.org/2000/svg" xmlns:xlink="http://www.w3.org/1999/xlink" x="0px" y="0px"
	 viewBox="0 0 508 508" style="enable-background:new 0 0 508 508;" xml:space="preserve">
<circle style="fill:#FFD05B;" cx="254" cy="254" r="254"/>
<path style="fill:#324A5E;" d="M347.2,445.6H160.8c-14.8,0-26.8-12-26.8-26.8V89.2c0-14.8,12-26.8,26.8-26.8h186
	c14.8,0,26.8,12,26.8,26.8v329.6C374,433.6,362,445.6,347.2,445.6z"/>
<path style="fill:#2B3B4E;" d="M374,88.8v330c0,14.8-12,26.8-26.8,26.8h-178L332.4,62h14.8C362,62.4,374,74,374,88.8z"/>
<rect x="143.6" y="109.2" style="fill:#84DBFF;" width="220.4" height="285.6"/>
<polygon style="fill:#54C0EB;" points="364.4,109.2 364.4,394.4 191.2,394.4 312.8,109.2 "/>
<path style="fill:#2B3B4E;" d="M274.8,88.4h-41.6c-1.6,0-2.8-1.2-2.8-2.8l0,0c0-1.6,1.2-2.8,2.8-2.8h41.6c1.6,0,2.8,1.2,2.8,2.8l0,0
	C277.6,87.2,276.4,88.4,274.8,88.4z"/>
<circle style="fill:#1E2B38;" cx="254" cy="419.2" r="16.4"/>
<g>
</g>
<g>
</g>
<g>
</g>
<g>
</g>
<g>
</g>
<g>
</g>
<g>
</g>
<g>
</g>
<g>
</g>
<g>
</g>
<g>
</g>
<g>
</g>
<g>
</g>
<g>
</g>
<g>
</g>
</svg>
