<?xml version="1.0" encoding="iso-8859-1"?>
<!-- Generator: Adobe Illustrator 19.0.0, SVG Export Plug-In . SVG Version: 6.00 Build 0)  -->
<svg version="1.1" id="Layer_1" xmlns="http://www.w3.org/2000/svg" xmlns:xlink="http://www.w3.org/1999/xlink" x="0px" y="0px"
	 viewBox="0 0 508 508" style="enable-background:new 0 0 508 508;" xml:space="preserve">
<circle style="fill:#84DBFF;" cx="254" cy="254" r="254"/>
<path style="fill:#54C0EB;" d="M87.2,445.6C132,484.4,190,508,254,508c63.6,0,122-23.6,166.8-62.4H87.2z"/>
<path style="fill:#324A5E;" d="M192,445.6l16-70h63.6l16,70H314l-61.2-222h-26.4l-61.2,222H192z M239.6,237.2L264,344h-48.8
	L239.6,237.2z"/>
<circle style="fill:#FF7058;" cx="239.6" cy="230" r="152"/>
<circle style="fill:#FFFFFF;" cx="239.6" cy="230" r="116.4"/>
<circle style="fill:#FF7058;" cx="239.6" cy="230" r="83.6"/>
<circle style="fill:#FFFFFF;" cx="239.6" cy="230" r="53.2"/>
<circle style="fill:#FF7058;" cx="239.6" cy="230" r="23.6"/>
<g>
	<path style="fill:#324A5E;" d="M475.6,228c16-3.2,16-13.6,14.8-26.4c-1.2-12.4-3.6-22.4-19.2-19.2c-16,3.2-39.2,18.8-38,31.2
		C434.4,226.4,460,231.2,475.6,228z"/>
	<path style="fill:#324A5E;" d="M475.6,232c-16-3.2-41.2,1.6-42.8,14c-1.2,12.4,22,28,38,31.2s18-6.4,19.2-19.2
		C491.6,245.6,491.6,235.2,475.6,232z"/>
</g>
<path style="fill:#FFD05B;" d="M348.4,208.8c-23.6,0-39.2,1.2-50,3.6v34.8c10.4,2.4,26.4,3.6,50,3.6c62.4,0,156-9.6,156-21.2
	C504.4,218.4,410.8,208.8,348.4,208.8z"/>
<path style="fill:#324A5E;" d="M278.4,226h-34.8c-2,0-4,1.6-4,4c0,2,1.6,4,4,4h34.8c1.2,5.6,6,10.4,20.4,13.6v-34.8
	C284.4,215.6,279.6,220.4,278.4,226z"/>
<g>
</g>
<g>
</g>
<g>
</g>
<g>
</g>
<g>
</g>
<g>
</g>
<g>
</g>
<g>
</g>
<g>
</g>
<g>
</g>
<g>
</g>
<g>
</g>
<g>
</g>
<g>
</g>
<g>
</g>
</svg>
