<?xml version="1.0" encoding="iso-8859-1"?>
<!-- Generator: Adobe Illustrator 19.0.0, SVG Export Plug-In . SVG Version: 6.00 Build 0)  -->
<svg version="1.1" id="Layer_1" xmlns="http://www.w3.org/2000/svg" xmlns:xlink="http://www.w3.org/1999/xlink" x="0px" y="0px"
	 viewBox="0 0 508 508" style="enable-background:new 0 0 508 508;" xml:space="preserve">
<circle style="fill:#84DBFF;" cx="254" cy="254" r="254"/>
<path style="fill:#2B3B4E;" d="M504.8,295.2l-54.8-28h-32h-32L298,312l-6.8,43.2c29.2,38,74.8,62.4,126.4,62.4
	c11.6,0,22.4-1.2,33.2-3.6C478.4,380.8,497.2,340,504.8,295.2z"/>
<g>
	<polygon style="fill:#E6E9EE;" points="450,267.2 417.6,406.8 385.6,267.2 	"/>
	<polygon style="fill:#E6E9EE;" points="450,267.2 430.4,351.2 417.6,406.8 405.2,351.2 385.6,267.2 	"/>
</g>
<g>
	<path style="fill:#F1543F;" d="M418,287.6C418,288,418,288,418,287.6C417.6,288,417.6,288,418,287.6L418,287.6z"/>
	<path style="fill:#F1543F;" d="M432.8,291.2l-5.6,12h-18.8l-5.6-12c7.6-4.4,15.2-3.2,15.2-3.2S425.2,287.2,432.8,291.2z"/>
</g>
<polygon style="fill:#FF7058;" points="430.4,351.2 417.6,406.8 405.2,351.2 408.4,303.2 427.2,303.2 "/>
<path style="fill:#F9B54C;" d="M444,252.4c-0.8,5.6-5.6,17.2-26.4,35.6c-18-16.8-23.6-28.8-25.6-34.4c7.2,9.2,16,15.6,25.6,15.6
	C427.6,268.8,436.8,262.4,444,252.4z"/>
<g>
	<path style="fill:#FFFFFF;" d="M444,248.8c0,0,3.2,12.4-26.4,39.2c0,0,19.2-2,26.4,17.2C444,305.2,460.8,268.4,444,248.8z"/>
	<path style="fill:#FFFFFF;" d="M391.2,248.8c-16.8,19.6,0.4,56.4,0.4,56.4C398.8,285.6,418,288,418,288
		C390.8,262.4,391.2,248.8,391.2,248.8z"/>
</g>
<path style="fill:#FFD05B;" d="M462.8,225.2c-2,3.6-5.2,6-8,7.2c-7.2,20-21.2,36.8-36.8,36.8c-16,0-29.6-16.8-36.8-36.8
	c-2.8-0.8-6-3.6-8-7.2c-3.6-6-3.6-12.8,0-14.8c0.4-0.4,0.8-0.4,1.2-0.4c0.8,4.4,1.6,8.4,3.2,11.6c0,0,3.2,6,4,11.2
	c-0.4-6-0.4-18.8,1.6-21.2c0,0,8.8-15.6,2.4-28.8c0,0,1.6-20,24-10.8c0,0,4.4,0.8,8.8,1.2l0,0l0,0l0,0l0,0c4.4-0.4,8.8-1.2,8.8-1.2
	c22.4-9.2,24,10.8,24,10.8c-6.4,13.6,2.4,28.8,2.4,28.8c2,2.4,1.6,15.2,1.6,21.2c0.8-5.2,4-11.2,4-11.2c1.2-3.2,2.4-7.6,3.2-11.6
	c0.4,0,0.8,0.4,1.2,0.4C466.4,212.4,466.4,219.2,462.8,225.2z"/>
<path style="fill:#324A5E;" d="M465.6,163.2c-1.2-2-7.2,1.2-7.2,1.2c0.8-4.4-2-14.8-2-14.8c-0.8,3.6-4.8,4-4.8,4
	c0.4-3.2-3.6-12-3.6-12c0.8,4-4.8,8-4.8,8c0.8-3.2-6.8-14.8-6.8-14.8c1.2,1.6,0.8,6.8,0.8,6.8c-2.8-6-10.4-11.6-10.4-11.6
	c0,1.6-0.8,2.8-2,4.4c-2-3.6-6-5.6-6.8-6l0,0l0,0l0,0l0,0l0,0l0,0l0,0l0,0l0,0c-0.8,0.4-4.8,2.4-6.8,6c-1.2-1.2-2-2.8-2-4.4
	c0,0-8,5.6-10.4,11.6c0,0-0.4-4.8,0.8-6.8c0,0-8,11.6-6.8,14.8c0,0-5.6-4-4.8-8c0,0-4,8.8-3.6,12c0,0-4-0.4-4.8-4c0,0-2.8,10-2,14.8
	c0,0-6-3.6-7.2-1.2c0,0,5.6,6,2.8,11.6c0,0-2,30.8,4.4,46.4c0,0,3.2,6,4,11.2c-0.4-6-0.4-18.8,1.6-21.2c0,0,8.8-15.6,2.4-28.8
	c0,0,1.6-20,24-10.8c0,0,4.4,0.8,8.8,1.2l0,0l0,0l0,0l0,0c4.4-0.4,8.8-1.2,8.8-1.2c22.4-9.2,24,10.8,24,10.8
	c-6.4,13.6,2.4,28.8,2.4,28.8c2,2.4,1.6,15.2,1.6,21.2c0.8-5.2,4-11.2,4-11.2c6.4-15.6,4.4-46.4,4.4-46.4
	C459.6,169.6,465.6,163.2,465.6,163.2z"/>
<path style="fill:#2B3B4E;" d="M122.4,267.2h-32h-32l-54.8,28C10.8,340,30,380.4,57.2,414c10.8,2.4,22,3.6,33.2,3.6
	c51.6,0,97.2-24.4,126.4-62.4L210,312L122.4,267.2z"/>
<g>
	<polygon style="fill:#E6E9EE;" points="122.4,267.2 90.4,406.8 58,267.2 	"/>
	<polygon style="fill:#E6E9EE;" points="122.4,267.2 102.8,351.2 90.4,406.8 77.6,351.2 58,267.2 	"/>
</g>
<g>
	<path style="fill:#F1543F;" d="M90.4,287.6C90.4,288,90.4,288,90.4,287.6C90,288,90,288,90.4,287.6L90.4,287.6z"/>
	<path style="fill:#F1543F;" d="M105.2,291.2l-5.6,12H80.8l-5.6-12c7.6-4.4,15.2-3.2,15.2-3.2S98,287.2,105.2,291.2z"/>
</g>
<polygon style="fill:#FF7058;" points="102.8,351.2 90.4,406.8 77.6,351.2 80.8,303.2 99.6,303.2 "/>
<path style="fill:#F9B54C;" d="M116.4,252.4c-0.8,5.6-5.6,17.2-26.4,35.6c-18-16.8-23.6-28.8-25.6-34.4c7.2,9.2,16,15.6,25.6,15.6
	C100,268.8,109.2,262.4,116.4,252.4z"/>
<g>
	<path style="fill:#FFFFFF;" d="M116.8,248.8c0,0,3.2,12.4-26.4,39.2c0,0,19.2-2,26.4,17.2C116.4,305.2,133.2,268.4,116.8,248.8z"/>
	<path style="fill:#FFFFFF;" d="M63.6,248.8c-16.8,19.6,0.4,56.4,0.4,56.4c7.2-19.6,26.4-17.2,26.4-17.2
		C63.2,262.4,63.6,248.8,63.6,248.8z"/>
</g>
<path style="fill:#FFD05B;" d="M135.2,225.2c-2,3.6-5.2,6-8,7.2c-7.2,20-21.2,36.8-36.8,36.8c-16,0-29.6-16.8-36.8-36.8
	c-2.8-0.8-6-3.6-8-7.2c-3.6-6-3.6-12.8,0-14.8c0.4-0.4,0.8-0.4,1.2-0.4c0.8,4.4,1.6,8.4,3.2,11.6c0,0,3.2,6,4,11.2
	c-0.4-6-0.4-18.8,1.6-21.2c0,0,8.8-15.6,2.4-28.8c0,0,1.6-20,24-10.8c0,0,4.4,0.8,8.8,1.2l0,0l0,0l0,0l0,0c4.4-0.4,8.8-1.2,8.8-1.2
	c22.4-9.2,24,10.8,24,10.8c-6.4,13.6,2.4,28.8,2.4,28.8c2,2.4,1.6,15.2,1.6,21.2c0.8-5.2,4-11.2,4-11.2c1.2-3.2,2.4-7.6,3.2-11.6
	c0.4,0,0.8,0.4,1.2,0.4C138.8,212.4,138.8,219.2,135.2,225.2z"/>
<g>
	<path style="fill:#324A5E;" d="M138,163.2c-1.2-2-7.2,1.2-7.2,1.2c0.8-4.4-2-14.8-2-14.8c-0.8,3.6-4.8,4-4.8,4
		c0.4-3.2-3.6-12-3.6-12c0.8,4-4.8,8-4.8,8c0.8-3.2-6.8-14.8-6.8-14.8c1.2,1.6,0.8,6.8,0.8,6.8c-2.8-6-10.4-11.6-10.4-11.6
		c0,1.6-0.8,2.8-2,4.4c-2-3.6-6-5.6-6.8-6l0,0l0,0l0,0l0,0l0,0l0,0l0,0l0,0l0,0c-0.8,0.4-4.8,2.4-6.8,6c-1.2-1.2-2-2.8-2-4.4
		c0,0-8,5.6-10.4,11.6c0,0-0.4-4.8,0.8-6.8c0,0-8,11.6-6.8,14.8c0,0-5.6-4-4.8-8c0,0-4,8.8-3.6,12c0,0-4-0.4-4.8-4
		c0,0-2.8,10-2,14.8c0,0-6-3.6-7.2-1.2c0,0,5.6,6,2.8,11.6c0,0-2,30.8,4.4,46.4c0,0,3.2,6,4,11.2c-0.4-6-0.4-18.8,1.6-21.2
		c0,0,8.8-15.6,2.4-28.8c0,0,1.6-20,24-10.8c0,0,4.4,0.8,8.8,1.2l0,0l0,0l0,0l0,0c4.4-0.4,8.8-1.2,8.8-1.2c22.4-9.2,24,10.8,24,10.8
		c-6.4,13.6,2.4,28.8,2.4,28.8c2,2.4,1.6,15.2,1.6,21.2c0.8-5.2,4-11.2,4-11.2c6.4-15.6,4.4-46.4,4.4-46.4
		C132.4,169.6,138,163.2,138,163.2z"/>
	<path style="fill:#324A5E;" d="M444.4,339.6L305.2,268H254h-51.2L63.6,339.6l-10.8,69.2C99.2,469.2,172.4,508,254.4,508
		s155.2-38.8,201.6-99.2L444.4,339.6z"/>
</g>
<g>
	<polygon style="fill:#2B3B4E;" points="305.2,268 343.6,309.6 321.6,326 348.8,340.8 254,490 	"/>
	<polygon style="fill:#2B3B4E;" points="202.8,268 164.4,309.6 186.4,326 159.2,340.8 254,490 	"/>
</g>
<g>
	<polygon style="fill:#E6E9EE;" points="305.2,268 254,490 202.8,268 	"/>
	<polygon style="fill:#E6E9EE;" points="305.2,268 274.4,402 254,490 233.6,402 202.8,268 	"/>
</g>
<g>
	<path style="fill:#F1543F;" d="M254.4,300.8C254,300.8,254,300.8,254.4,300.8c-0.4,0-0.4,0-0.4,0H254.4z"/>
	<path style="fill:#F1543F;" d="M278,306.4l-8.8,19.2h-30l-9.2-19.2c12-6.8,24-5.6,24-5.6S266,299.6,278,306.4z"/>
</g>
<polygon style="fill:#FF7058;" points="274.4,402 254,490 233.6,402 239.2,325.6 268.8,325.6 "/>
<path style="fill:#F9B54C;" d="M296,244.4c-1.6,8.8-9.2,27.2-42,56.8c-28.4-27.2-37.6-46-40.8-55.2c11.2,14.8,25.6,24.8,40.8,24.8
	C270,270.8,284.4,260,296,244.4z"/>
<g>
	<path style="fill:#FFFFFF;" d="M296,238.4c0,0,5.2,20-42,62.4c0,0,30.4-3.6,42,27.6C296,328.4,322.8,270,296,238.4z"/>
	<path style="fill:#FFFFFF;" d="M211.6,238.4c-26.8,31.6,0.4,90,0.4,90c11.6-31.2,42-27.6,42-27.6
		C211.2,260.4,211.6,238.4,211.6,238.4z"/>
</g>
<path style="fill:#FFD05B;" d="M325.6,200.8c-3.6,5.6-8.4,9.6-12.8,11.2c-11.6,31.6-33.6,58.4-58.8,58.4s-47.2-26.8-58.8-58.4
	c-4.4-1.6-9.2-5.6-12.8-11.2c-6-9.6-6-20.4,0-24c0.4-0.4,1.2-0.4,2-0.8c1.2,6.8,2.8,13.2,4.8,18.8c0,0,5.2,9.6,6.4,18
	c-0.4-9.6-0.8-29.6,2.4-33.6c0,0,14-24.4,3.6-46c0,0,2.4-32,38.4-17.2c0,0,6.8,1.6,14,2l0,0l0,0l0,0l0,0c6.8-0.4,14-2,14-2
	c35.6-14.8,38.4,17.2,38.4,17.2c-10.4,21.6,3.6,46,3.6,46c3.2,4,2.8,24,2.4,33.6c1.2-8.4,6.4-18,6.4-18c2.4-5.6,4-12,4.8-18.8
	c0.8,0,1.2,0.4,2,0.8C331.6,180.8,331.6,191.2,325.6,200.8z"/>
<path style="fill:#324A5E;" d="M330,102.4c-2-3.2-11.6,2-11.6,2c1.2-7.2-3.2-23.2-3.2-23.2c-1.6,5.6-8,6.4-8,6.4
	c0.8-5.2-5.6-19.2-5.6-19.2c1.2,6.4-8,12.8-8,12.8C295.2,76,282.8,58,282.8,58c2,2.8,1.2,10.8,1.2,10.8
	c-4.4-9.6-16.8-18.4-16.8-18.4c0,2.4-1.2,4.8-3.2,6.8c-3.2-6-9.2-8.8-10.4-9.6l0,0l0,0l0,0l0,0l0,0l0,0l0,0l0,0l0,0
	c-1.2,0.4-7.6,3.6-10.4,9.6c-1.6-2-3.2-4.4-3.2-6.8c0,0-12.4,9.2-16.8,18.4c0,0-0.8-8,1.2-10.8c0,0-12.4,18-10.8,23.2
	c0,0-9.2-6.4-8-12.8c0,0-6.4,14-5.6,19.2c0,0-6.4-0.8-8-6.4c0,0-4.4,16-3.2,23.2c0,0-9.6-5.6-11.6-2c0,0,9.2,9.6,4.4,18.4
	c0,0-3.2,48.8,6.8,74c0,0,5.2,9.6,6.8,18c-0.4-9.6-0.8-29.6,2.4-33.6c0,0,14-24.4,3.6-46c0,0,2.4-32,38.4-17.2c0,0,6.8,1.6,14,2l0,0
	l0,0l0,0l0,0c7.2-0.4,14-2,14-2c35.6-14.8,38.4,17.2,38.4,17.2c-10.4,21.6,3.6,46,3.6,46c3.2,4,2.8,24,2.4,33.6
	c1.2-8.4,6.8-18,6.8-18c10.4-24.8,7.2-73.6,7.2-73.6C320.8,112.4,330,102.4,330,102.4z"/>
<g>
</g>
<g>
</g>
<g>
</g>
<g>
</g>
<g>
</g>
<g>
</g>
<g>
</g>
<g>
</g>
<g>
</g>
<g>
</g>
<g>
</g>
<g>
</g>
<g>
</g>
<g>
</g>
<g>
</g>
</svg>
