<?xml version="1.0" encoding="iso-8859-1"?>
<!-- Generator: Adobe Illustrator 19.0.0, SVG Export Plug-In . SVG Version: 6.00 Build 0)  -->
<svg version="1.1" id="Layer_1" xmlns="http://www.w3.org/2000/svg" xmlns:xlink="http://www.w3.org/1999/xlink" x="0px" y="0px"
	 viewBox="0 0 508 508" style="enable-background:new 0 0 508 508;" xml:space="preserve">
<circle style="fill:#84DBFF;" cx="254" cy="254" r="254"/>
<path style="fill:#E6E9EE;" d="M313.6,252.4L295.2,176h-40h-2.8h-40L194,252.4C213.6,245.2,294.4,245.2,313.6,252.4z"/>
<path style="fill:#2B3B4E;" d="M259.2,338.8v-246c0-2-1.6-3.6-3.6-3.6s-3.6,1.6-3.6,3.6v245.6h7.2V338.8z"/>
<path style="fill:#324A5E;" d="M248.8,337.2v44.4c0,13.2-10.8,24-24,24c-0.4,0-0.8,0-0.8,0c-12.8-0.4-22.8-11.6-22.8-24.4v-6
	c0-3.6-2.8-6.8-6.8-6.8c-3.6,0-6.8,2.8-6.8,6.8v5.6c0,20.4,16,37.2,35.6,38c0.4,0,0.8,0,1.6,0c20.4,0,37.2-16.8,37.2-37.2v-44.4
	H248.8z"/>
<path style="fill:#E6E9EE;" d="M70.4,243.2l48.4-58.8L32,218.8C32,218.8,73.6,223.2,70.4,243.2z"/>
<path style="fill:#F1543F;" d="M70.4,243.2l52.8-64.4h89.6l-18.4,73.6C194.4,252.4,116,226.4,70.4,243.2z"/>
<path style="fill:#E6E9EE;" d="M437.6,243.2l-48-59.2l86.4,34.4C476,218.8,434.4,223.2,437.6,243.2z"/>
<path style="fill:#F1543F;" d="M437.6,243.2l-52.8-64.4h-89.6l18.4,73.6C313.6,252.4,392,226.4,437.6,243.2z"/>
<path style="fill:#FF7058;" d="M254,117.6C109.6,105.2,32,218.8,32,218.8s59.6-24,100.4-21.6c0,0,33.6-12,121.6-9.6
	c87.6-2.4,121.6,9.6,121.6,9.6c40.8-2.4,100.4,21.6,100.4,21.6S398.4,105.2,254,117.6z"/>
<path style="fill:#FFFFFF;" d="M244.8,111.2c-66.4-19.6-112,84.4-112.4,85.6c0.8-0.4,34.8-12,121.6-9.6
	c86.4-2.4,120.4,9.2,121.6,9.6c-0.8-1.6-46.4-105.2-112.4-85.6C257.2,112.8,250.8,112.8,244.8,111.2z"/>
<g>
</g>
<g>
</g>
<g>
</g>
<g>
</g>
<g>
</g>
<g>
</g>
<g>
</g>
<g>
</g>
<g>
</g>
<g>
</g>
<g>
</g>
<g>
</g>
<g>
</g>
<g>
</g>
<g>
</g>
</svg>
