<?xml version="1.0" encoding="iso-8859-1"?>
<!-- Generator: Adobe Illustrator 19.0.0, SVG Export Plug-In . SVG Version: 6.00 Build 0)  -->
<svg version="1.1" id="Layer_1" xmlns="http://www.w3.org/2000/svg" xmlns:xlink="http://www.w3.org/1999/xlink" x="0px" y="0px"
	 viewBox="0 0 508 508" style="enable-background:new 0 0 508 508;" xml:space="preserve">
<circle style="fill:#FD8469;" cx="254" cy="254" r="254"/>
<path style="fill:#2C9984;" d="M360.4,196.8l40.4-103.2c1.6-4-0.4-8-4.4-9.6L287.2,40.8c-4-1.6-8,0.4-9.6,4.4L218,196.8H360.4z"/>
<path style="fill:#FFFFFF;" d="M346.4,196.8l33.6-85.2c-9.6-4-14.4-14.8-10.8-24.4l-64-25.2c-4,9.6-14.8,14.4-24.4,10.8l-48.8,124
	H346.4z"/>
<g>
	<path style="fill:#2C9984;" d="M335.6,196.8c0.4-1.2,0.8-2,1.6-3.2c8.8-22.4-2.4-47.6-24.4-56.4c-22.4-8.8-47.6,2.4-56.4,24.4
		c-4.8,11.6-3.6,24.4,1.6,34.8h77.6V196.8z"/>
	<circle style="fill:#2C9984;" cx="324" cy="108" r="14.8"/>
</g>
<path style="fill:#FFFFFF;" d="M267.6,171.2l2.8,1.2c-0.4,6.8,3.2,13.6,10,16c8,3.2,17.2-0.8,20.4-8.8c1.2-3.6,5.2-5.2,8.8-4
	c3.2,1.2,5.2,4.8,4,8.4c0,0,0,0.4-0.4,0.4v0.4c-0.8,1.6-2,2.8-3.6,3.2c-2.4,0.8-3.6,3.6-2.4,6c0.4,1.2,1.6,2.4,2.8,2.8h2.4h0.4
	c2.8-1.2,4.8-2.8,6.4-4.8l2.8,1.2c2.4,0.8,4.8-0.4,6-2.4c0.8-2.4-0.4-4.8-2.4-6l-2.8-1.2c0.4-6.8-3.2-13.6-10-16
	c-8-3.2-17.2,0.8-20.4,8.8c-1.2,3.6-5.2,5.2-8.8,4c-3.2-1.2-5.2-4.8-4-8.4c0,0,0-0.4,0.4-0.4v-0.4c0.8-1.6,2-2.8,3.6-3.2
	c2.4-0.8,3.6-3.6,2.4-6c-0.8-2.4-3.6-3.6-6-2.4c-2.8,1.2-4.8,2.8-6.4,4.8l-2.8-1.2c-2.4-0.8-4.8,0.4-6,2.4
	C264,167.6,265.2,170,267.6,171.2z"/>
<path style="fill:#4CDBC4;" d="M267.2,196.8l30-76.8c1.6-4-0.4-8-4.4-9.6L183.6,67.6c-4-1.6-8,0.4-9.6,4.4l-49.2,124.8H267.2z"/>
<path style="fill:#FFFFFF;" d="M252.8,196.8L276,138c-9.6-4-14.4-14.8-10.8-24.4l-63.6-25.2c-4,9.6-14.8,14.4-24.4,10.8l-38.4,97.6
	L252.8,196.8L252.8,196.8z"/>
<g>
	<path style="fill:#4CDBC4;" d="M235.6,196.8c-2.4-14.4-12.4-27.2-26.8-32.8c-22.4-8.8-47.6,2.4-56.4,24.4c-1.2,2.8-2,5.6-2.4,8.4
		L235.6,196.8L235.6,196.8z"/>
	<circle style="fill:#4CDBC4;" cx="220.4" cy="134.4" r="14.8"/>
</g>
<path style="fill:#2B3B4E;" d="M380.4,418.8H97.2V188h283.2c16.8,0,30.8,13.6,30.8,30.8v169.6C410.8,405.2,397.2,418.8,380.4,418.8z
	"/>
<g>
	<path style="fill:#ACB3BA;" d="M224,396.8h-15.6c-1.6,0-3.2,1.6-3.2,3.2s1.6,3.2,3.2,3.2H224c1.6,0,3.2-1.6,3.2-3.2
		S226,396.8,224,396.8z"/>
	<path style="fill:#ACB3BA;" d="M208.4,210H224c1.6,0,3.2-1.6,3.2-3.2c0-1.6-1.6-3.2-3.2-3.2h-15.6c-1.6,0-3.2,1.6-3.2,3.2
		C205.2,208.8,206.8,210,208.4,210z"/>
	<path style="fill:#ACB3BA;" d="M240,210h15.6c1.6,0,3.2-1.6,3.2-3.2c0-1.6-1.6-3.2-3.2-3.2H240c-1.6,0-3.2,1.6-3.2,3.2
		C236.8,208.8,238,210,240,210z"/>
	<path style="fill:#ACB3BA;" d="M255.6,396.8H240c-1.6,0-3.2,1.6-3.2,3.2s1.6,3.2,3.2,3.2h15.6c1.6,0,3.2-1.6,3.2-3.2
		S257.2,396.8,255.6,396.8z"/>
	<path style="fill:#ACB3BA;" d="M271.2,210h15.6c1.6,0,3.2-1.6,3.2-3.2c0-1.6-1.6-3.2-3.2-3.2h-15.6c-1.6,0-3.2,1.6-3.2,3.2
		C268,208.8,269.6,210,271.2,210z"/>
	<path style="fill:#ACB3BA;" d="M287.2,396.8h-15.6c-1.6,0-3.2,1.6-3.2,3.2s1.6,3.2,3.2,3.2h15.6c1.6,0,3.2-1.6,3.2-3.2
		S288.8,396.8,287.2,396.8z"/>
	<path style="fill:#ACB3BA;" d="M130,396.8h-16c-1.6,0-3.2,1.6-3.2,3.2s1.6,3.2,3.2,3.2h16c1.6,0,3.2-1.6,3.2-3.2
		S131.6,396.8,130,396.8z"/>
	<path style="fill:#ACB3BA;" d="M114,210h15.6c1.6,0,3.2-1.6,3.2-3.2c0-1.6-1.6-3.2-3.2-3.2H114c-1.6,0-3.2,1.6-3.2,3.2
		C110.8,208.8,112.4,210,114,210z"/>
	<path style="fill:#ACB3BA;" d="M145.6,210h15.6c1.6,0,3.2-1.6,3.2-3.2c0-1.6-1.6-3.2-3.2-3.2h-15.6c-1.6,0-3.2,1.6-3.2,3.2
		C142.4,208.8,143.6,210,145.6,210z"/>
	<path style="fill:#ACB3BA;" d="M192.8,396.8h-15.6c-1.6,0-3.2,1.6-3.2,3.2s1.6,3.2,3.2,3.2h15.6c1.6,0,3.2-1.6,3.2-3.2
		S194.4,396.8,192.8,396.8z"/>
	<path style="fill:#ACB3BA;" d="M176.8,210h15.6c1.6,0,3.2-1.6,3.2-3.2c0-1.6-1.6-3.2-3.2-3.2h-15.6c-1.6,0-3.2,1.6-3.2,3.2
		C173.6,208.8,175.2,210,176.8,210z"/>
	<path style="fill:#ACB3BA;" d="M161.2,396.8h-15.6c-1.6,0-3.2,1.6-3.2,3.2s1.6,3.2,3.2,3.2h15.6c1.6,0,3.2-1.6,3.2-3.2
		S163.2,396.8,161.2,396.8z"/>
	<path style="fill:#ACB3BA;" d="M365.6,210h14.8h0.4c0,0,0,0,0.4,0c1.6,0,3.2-1.2,3.2-2.8s-1.2-3.2-2.8-3.2c-0.4,0-0.8,0-0.8,0H366
		c-1.6,0-3.2,1.6-3.2,3.2C362.4,208.8,364,210,365.6,210z"/>
	<path style="fill:#ACB3BA;" d="M392,339.6c-1.6,0-3.2,1.6-3.2,3.2v15.6c0,1.6,1.6,3.2,3.2,3.2s3.2-1.6,3.2-3.2v-15.6
		C395.2,340.8,393.6,339.6,392,339.6z"/>
	<path style="fill:#ACB3BA;" d="M392,308c-1.6,0-3.2,1.6-3.2,3.2v15.6c0,1.6,1.6,3.2,3.2,3.2s3.2-1.6,3.2-3.2v-15.6
		C395.2,309.6,393.6,308,392,308z"/>
	<path style="fill:#ACB3BA;" d="M392,276.8c-1.6,0-3.2,1.6-3.2,3.2v15.6c0,1.6,1.6,3.2,3.2,3.2s3.2-1.6,3.2-3.2V280
		C395.2,278,393.6,276.8,392,276.8z"/>
	<path style="fill:#ACB3BA;" d="M392,245.2c-1.6,0-3.2,1.6-3.2,3.2V264c0,1.6,1.6,3.2,3.2,3.2s3.2-1.6,3.2-3.2v-15.6
		C395.2,246.8,393.6,245.2,392,245.2z"/>
	<path style="fill:#ACB3BA;" d="M395.2,216.4c-0.4-1.6-1.6-2.8-3.6-2.8c-1.6,0.4-2.8,2-2.8,3.6c0,0.4,0,0.8,0,1.2v14.4
		c0,1.6,1.6,3.2,3.2,3.2s3.2-1.6,3.2-3.2v-14.4C395.2,217.6,395.2,217.2,395.2,216.4z"/>
	<path style="fill:#ACB3BA;" d="M302.8,210h15.6c1.6,0,3.2-1.6,3.2-3.2c0-1.6-1.6-3.2-3.2-3.2h-15.6c-1.6,0-3.2,1.6-3.2,3.2
		C299.6,208.8,300.8,210,302.8,210z"/>
	<path style="fill:#ACB3BA;" d="M334,210h16c1.6,0,3.2-1.6,3.2-3.2c0-1.6-1.6-3.2-3.2-3.2h-16c-1.6,0-3.2,1.6-3.2,3.2
		C331.2,208.8,332.4,210,334,210z"/>
	<path style="fill:#ACB3BA;" d="M392,370.8c-1.6,0-3.2,1.6-3.2,3.2v14.4c0,0.4,0,0.8,0,1.2c-0.4,1.6,1.2,3.2,2.8,3.6h0.4
		c1.6,0,2.8-1.2,3.2-2.8c0-0.4,0-1.2,0-1.6V374C395.2,372.4,393.6,370.8,392,370.8z"/>
	<path style="fill:#ACB3BA;" d="M318.4,396.8h-15.6c-1.6,0-3.2,1.6-3.2,3.2s1.6,3.2,3.2,3.2h15.6c1.6,0,3.2-1.6,3.2-3.2
		S320.4,396.8,318.4,396.8z"/>
	<path style="fill:#ACB3BA;" d="M350,396.8h-15.6c-1.6,0-3.2,1.6-3.2,3.2s1.6,3.2,3.2,3.2H350c1.6,0,3.2-1.6,3.2-3.2
		S351.6,396.8,350,396.8z"/>
	<path style="fill:#ACB3BA;" d="M381.2,396.8c-0.4,0-0.4,0-0.8,0h-14.8c-1.6,0-3.2,1.6-3.2,3.2s1.6,3.2,3.2,3.2h14.8
		c0.4,0,0.8,0,1.2,0c1.6,0,3.2-1.6,2.8-3.2C384.4,398,382.8,396.8,381.2,396.8z"/>
</g>
<path style="fill:#324A5E;" d="M410.8,268.4h-62.4c-19.2,0-34.8,15.6-34.8,34.8c0,19.2,15.6,34.8,34.8,34.8h62.8v-69.6H410.8z"/>
<circle style="fill:#E6E9EE;" cx="348.8" cy="303.6" r="20.8"/>
<ellipse transform="matrix(0.7073 -0.7069 0.7069 0.7073 -109.7939 326.5998)" style="fill:#FFFFFF;" cx="339.502" cy="295.886" rx="8.4" ry="4"/>
<g>
</g>
<g>
</g>
<g>
</g>
<g>
</g>
<g>
</g>
<g>
</g>
<g>
</g>
<g>
</g>
<g>
</g>
<g>
</g>
<g>
</g>
<g>
</g>
<g>
</g>
<g>
</g>
<g>
</g>
</svg>
