<?xml version="1.0" encoding="iso-8859-1"?>
<!-- Generator: Adobe Illustrator 19.0.0, SVG Export Plug-In . SVG Version: 6.00 Build 0)  -->
<svg xmlns="http://www.w3.org/2000/svg" xmlns:xlink="http://www.w3.org/1999/xlink" version="1.1" id="Layer_1" x="0px" y="0px" viewBox="0 0 506 506" style="enable-background:new 0 0 506 506;" xml:space="preserve">
<circle style="fill:#FFD05B;" cx="253" cy="253" r="253"/>
<path style="fill:#FFFFFF;" d="M355.2,174.1c-9.8-46.6-51.8-81.6-102.2-81.6s-92.4,35-102.2,81.6c-32.4,12-55.5,42.7-55.5,78.7  c0,46.5,38.4,84.2,85.7,84.2h143.8c47.3,0,85.7-37.7,85.7-84.2C410.6,216.8,387.5,186.2,355.2,174.1z"/>
<path style="fill:#324A5E;" d="M364.9,349.5l-19-18.9c17.8-27.7,14.5-64.9-9.7-89.1c-28.1-28-73.5-28-101.6,0s-28.1,73.3,0,101.2  c24.3,24.2,61.6,27.4,89.4,9.7l19,18.9L364.9,349.5z M245.1,332.3c-22.3-22.2-22.3-58.3,0-80.4c22.3-22.2,58.5-22.2,80.7,0  c18.5,18.4,21.6,46.3,9.4,68l-4-4l-21.9,21.8l4,4C291.6,353.8,263.5,350.7,245.1,332.3z"/>
<path style="fill:#FFFFFF;" d="M245.1,251.9c-22.3,22.2-22.3,58.3,0,80.4c22.3,22.2,58.5,22.2,80.7,0c22.3-22.2,22.3-58.3,0-80.4  C303.6,229.7,267.4,229.7,245.1,251.9z"/>
<path style="fill:#F1543F;" d="M358.8,335.1l-30.3,30.2l41.7,41.6c8.3,8.2,20.9,9,28.2,1.7l3.8-3.8c7.3-7.3,6.5-19.9-1.7-28.1  L358.8,335.1z"/>
<path style="fill:#54C0EB;" d="M252.6,286h65.5v12.5h-65.5V286z"/>
<g>
</g>
<g>
</g>
<g>
</g>
<g>
</g>
<g>
</g>
<g>
</g>
<g>
</g>
<g>
</g>
<g>
</g>
<g>
</g>
<g>
</g>
<g>
</g>
<g>
</g>
<g>
</g>
<g>
</g>
</svg>
