<?xml version="1.0" encoding="iso-8859-1"?>
<!-- Generator: Adobe Illustrator 19.0.0, SVG Export Plug-In . SVG Version: 6.00 Build 0)  -->
<svg xmlns="http://www.w3.org/2000/svg" xmlns:xlink="http://www.w3.org/1999/xlink" version="1.1" id="Layer_1" x="0px" y="0px" viewBox="0 0 506 506" style="enable-background:new 0 0 506 506;" xml:space="preserve">
<circle style="fill:#84DBFF;" cx="253" cy="253" r="253"/>
<g>
	<polygon style="fill:#2B3B4E;" points="184,365.2 131.4,365.2 131.4,261.2 151.1,261.2 151.1,345.4 184,345.4  "/>
	<polygon style="fill:#2B3B4E;" points="367.2,254.5 351.4,254.5 351.4,170.2 314.6,170.2 314.6,150.5 367.2,150.5  "/>
</g>
<path style="fill:#FF7058;" d="M253.9,144.8c-6-28.5-31.7-50-62.5-50s-56.5,21.4-62.5,50C109.1,152.2,95,170.9,95,193  c0,28.5,23.5,51.5,52.4,51.5h88c29,0,52.4-23.1,52.4-51.5C287.8,170.9,273.7,152.2,253.9,144.8z"/>
<path style="fill:#FFFFFF;" d="M377.2,311.4c-6-28.5-31.7-50-62.5-50s-56.5,21.4-62.5,50c-19.8,7.4-33.9,26.1-33.9,48.2  c0,28.5,23.5,51.5,52.4,51.5h88c29,0,52.4-23.1,52.4-51.5C411.1,337.6,397,318.8,377.2,311.4z"/>
<g>
</g>
<g>
</g>
<g>
</g>
<g>
</g>
<g>
</g>
<g>
</g>
<g>
</g>
<g>
</g>
<g>
</g>
<g>
</g>
<g>
</g>
<g>
</g>
<g>
</g>
<g>
</g>
<g>
</g>
</svg>
