<?xml version="1.0" encoding="iso-8859-1"?>
<!-- Generator: Adobe Illustrator 19.0.0, SVG Export Plug-In . SVG Version: 6.00 Build 0)  -->
<svg xmlns="http://www.w3.org/2000/svg" xmlns:xlink="http://www.w3.org/1999/xlink" version="1.1" id="Layer_1" x="0px" y="0px" viewBox="0 0 506 506" style="enable-background:new 0 0 506 506;" xml:space="preserve">
<circle style="fill:#324A5E;" cx="253" cy="253" r="253"/>
<path style="fill:#FFFFFF;" d="M356.5,193.5c1-5,1.5-10.1,1.5-15.3c0-46.4-40.7-84-90.8-84c-31.6,0-59.5,15-75.8,37.7  c-1.2-0.1-2.4-0.2-3.7-0.2c-36.3,0-65.8,27.2-65.8,60.9c0,3.7,0.4,7.4,1.1,11c-17,11-28.2,29.2-28.2,49.9  c0,33.6,29.5,60.9,65.8,60.9s151.3,0,184.7,0c36.3,0,65.8-27.2,65.8-60.9C411.1,223.3,387.5,198.4,356.5,193.5z"/>
<path style="fill:#54C0EB;" d="M304.9,342.1H201.1c-0.2,0-0.4-0.2-0.4-0.4V172.5c0-0.2,0.2-0.4,0.4-0.4H305c0.2,0,0.4,0.2,0.4,0.4  v169.1C305.4,341.9,305.2,342.1,304.9,342.1z"/>
<polygon style="fill:#FFD05B;" points="262.9,378.1 262.9,342.1 242.6,342.1 242.6,378.1 132.4,378.1 132.4,398.4 242.6,398.4   262.9,398.4 373.1,398.4 373.1,378.1 "/>
<rect x="229.2" y="364.7" style="fill:#FF7058;" width="47.1" height="47.1"/>
<g>
	<rect x="214.5" y="185.1" style="fill:#324A5E;" width="76.9" height="24.2"/>
	<rect x="214.5" y="219.7" style="fill:#324A5E;" width="76.9" height="12.1"/>
	<circle style="fill:#324A5E;" cx="253" cy="290.8" r="11.7"/>
</g>
<g>
</g>
<g>
</g>
<g>
</g>
<g>
</g>
<g>
</g>
<g>
</g>
<g>
</g>
<g>
</g>
<g>
</g>
<g>
</g>
<g>
</g>
<g>
</g>
<g>
</g>
<g>
</g>
<g>
</g>
</svg>
