<?xml version="1.0" encoding="iso-8859-1"?>
<!-- Generator: Adobe Illustrator 19.0.0, SVG Export Plug-In . SVG Version: 6.00 Build 0)  -->
<svg xmlns="http://www.w3.org/2000/svg" xmlns:xlink="http://www.w3.org/1999/xlink" version="1.1" id="Layer_1" x="0px" y="0px" viewBox="0 0 506 506" style="enable-background:new 0 0 506 506;" xml:space="preserve">
<circle style="fill:#84DBFF;" cx="253" cy="253" r="253"/>
<path style="fill:#FFFFFF;" d="M382,190.7L382,190.7c-0.1-28-22.8-50.7-50.8-50.7c-11.4,0-21.9,3.8-30.4,10.2  c-10.8-38.3-45.9-66.5-87.7-66.5c-50.3,0-91.1,40.8-91.1,91.1c0,5.4,0.6,10.7,1.5,15.9C88,191,59.3,219.8,59.3,255.4  c0,35.8,29,64.8,64.8,64.8h258c35.8,0,64.8-29,64.8-64.8C446.7,219.7,417.8,190.7,382,190.7z"/>
<polygon style="fill:#F1543F;" points="299.2,438.9 253,412.2 206.8,438.9 206.8,302.7 299.2,302.7 "/>
<polygon style="fill:#F9B54C;" points="253,192.4 272.5,184.4 287.1,199.6 308.2,200.3 315.3,220.1 334.3,229.3 332.7,250.3   346.4,266.4 336.4,285 342.3,305.3 325.6,318.2 322.8,339.1 302.3,344.1 291.2,362 270.4,358.3 253,370.1 235.6,358.3 214.8,362   203.7,344.1 183.2,339.1 180.4,318.2 163.7,305.3 169.6,285 159.6,266.4 173.3,250.3 171.7,229.3 190.7,220.1 197.8,200.3   218.9,199.6 233.5,184.4 "/>
<circle style="fill:#FFD05B;" cx="253" cy="277.3" r="53.2"/>
<g>
</g>
<g>
</g>
<g>
</g>
<g>
</g>
<g>
</g>
<g>
</g>
<g>
</g>
<g>
</g>
<g>
</g>
<g>
</g>
<g>
</g>
<g>
</g>
<g>
</g>
<g>
</g>
<g>
</g>
</svg>
