<?xml version="1.0" encoding="iso-8859-1"?>
<!-- Generator: Adobe Illustrator 19.0.0, SVG Export Plug-In . SVG Version: 6.00 Build 0)  -->
<svg xmlns="http://www.w3.org/2000/svg" xmlns:xlink="http://www.w3.org/1999/xlink" version="1.1" id="Layer_1" x="0px" y="0px" viewBox="0 0 506 506" style="enable-background:new 0 0 506 506;" xml:space="preserve">
<circle style="fill:#324A5E;" cx="253" cy="253" r="253"/>
<path style="fill:#FFFFFF;" d="M376.2,193.8L376.2,193.8c0-26.7-21.7-48.4-48.5-48.4c-10.9,0-20.9,3.6-29,9.7  c-10.3-36.6-43.8-63.5-83.7-63.5c-48.1,0-87,39-87,87c0,5.2,0.5,10.2,1.4,15.2c-34,0.3-61.4,27.9-61.4,61.9  c0,34.1,27.7,61.8,61.8,61.8h246.3c34.1,0,61.8-27.7,61.8-61.8C438,221.5,410.3,193.8,376.2,193.8z"/>
<path style="fill:#FF7058;" d="M299.7,238c-19.2,0-36.1,10.6-46.7,26.8c-10.5-16.2-27.5-26.8-46.7-26.8c-32,0-63.3,29.1-57.9,65.4  C153.8,339,253,448.2,253,448.2s99.5-109.1,104.5-144.9C362.8,266.2,331.6,238,299.7,238z"/>
<g>
</g>
<g>
</g>
<g>
</g>
<g>
</g>
<g>
</g>
<g>
</g>
<g>
</g>
<g>
</g>
<g>
</g>
<g>
</g>
<g>
</g>
<g>
</g>
<g>
</g>
<g>
</g>
<g>
</g>
</svg>
