<?xml version="1.0" encoding="iso-8859-1"?>
<!-- Generator: Adobe Illustrator 19.0.0, SVG Export Plug-In . SVG Version: 6.00 Build 0)  -->
<svg xmlns="http://www.w3.org/2000/svg" xmlns:xlink="http://www.w3.org/1999/xlink" version="1.1" id="Layer_1" x="0px" y="0px" viewBox="0 0 506 506" style="enable-background:new 0 0 506 506;" xml:space="preserve">
<circle style="fill:#90DFAA;" cx="253" cy="253" r="253"/>
<path style="fill:#FFFFFF;" d="M356.5,194.2c1-5,1.5-10.1,1.5-15.3c0-46.4-40.7-84-90.8-84c-31.6,0-59.5,15-75.8,37.7  c-1.2-0.1-2.4-0.2-3.7-0.2c-36.3,0-65.8,27.2-65.8,60.9c0,3.7,0.4,7.4,1.1,11c-17,11-28.2,29.2-28.2,49.9  c0,33.6,29.5,60.9,65.8,60.9s151.3,0,184.7,0c36.3,0,65.8-27.2,65.8-60.9C411.1,224,387.5,199.1,356.5,194.2z"/>
<path style="fill:#324A5E;" d="M327.2,360.7c-7,0-13.4,2.9-17.9,7.5l-79.1-43.7c0.8-3.1,1.2-6.2,1.2-9.5c0-3.8-0.6-7.5-1.6-11.1  l82.7-50.1c4.1,3,9.2,4.8,14.7,4.8c13.9,0,25.2-11.3,25.2-25.2s-11.3-25.2-25.2-25.2c-13.9,0-25.2,11.3-25.2,25.2  c0,1.2,0.1,2.4,0.3,3.5L219.6,287c-7-6.8-16.6-11-27.1-11c-21.5,0-39,17.4-39,39c0,21.5,17.4,39,39,39c11.1,0,21.1-4.7,28.2-12.1  l81.4,44.9c0.4,13.5,11.5,24.4,25.2,24.4c13.9,0,25.2-11.3,25.2-25.2C352.5,372,341.2,360.7,327.2,360.7z"/>
<g>
</g>
<g>
</g>
<g>
</g>
<g>
</g>
<g>
</g>
<g>
</g>
<g>
</g>
<g>
</g>
<g>
</g>
<g>
</g>
<g>
</g>
<g>
</g>
<g>
</g>
<g>
</g>
<g>
</g>
</svg>
