<?xml version="1.0" encoding="iso-8859-1"?>
<!-- Generator: Adobe Illustrator 19.0.0, SVG Export Plug-In . SVG Version: 6.00 Build 0)  -->
<svg xmlns="http://www.w3.org/2000/svg" xmlns:xlink="http://www.w3.org/1999/xlink" version="1.1" id="Layer_1" x="0px" y="0px" viewBox="0 0 506 506" style="enable-background:new 0 0 506 506;" xml:space="preserve">
<circle style="fill:#FFD05B;" cx="253" cy="253" r="253"/>
<path style="fill:#FFFFFF;" d="M376.2,179L376.2,179c0-26.7-21.7-48.4-48.5-48.4c-10.9,0-20.9,3.6-29,9.7  c-10.3-36.6-43.8-63.5-83.7-63.5c-48.1,0-87,39-87,87c0,5.2,0.5,10.2,1.4,15.2c-34,0.3-61.4,27.9-61.4,61.9  c0,34.1,27.7,61.8,61.8,61.8h246.3c34.1,0,61.8-27.7,61.8-61.8C438,206.7,410.3,179,376.2,179z"/>
<path style="fill:#FF7058;" d="M328.1,247.9c-41.5-41.5-108.7-41.5-150.1,0c-41.5,41.5-41.5,108.7,0,150.1  c41.5,41.5,108.7,41.5,150.1,0S369.5,289.3,328.1,247.9z M264.4,334.4c-6.3,6.3-16.6,6.3-22.9,0c-6.3-6.3-6.3-16.6,0-22.9  s16.6-6.3,22.9,0C270.8,317.8,270.8,328.1,264.4,334.4z"/>
<path style="fill:#2B3B4E;" d="M279.6,296.3c-14.7-14.7-38.6-14.7-53.3,0s-14.7,38.6,0,53.3c14.7,14.7,38.6,14.7,53.3,0  C294.3,334.9,294.3,311,279.6,296.3z M264.4,334.4c-6.3,6.3-16.6,6.3-22.9,0c-6.3-6.3-6.3-16.6,0-22.9s16.6-6.3,22.9,0  C270.8,317.8,270.8,328.1,264.4,334.4z"/>
<path style="fill:#324A5E;" d="M277.6,298.4c-13.6-13.6-35.5-13.6-49.1,0s-13.6,35.5,0,49.1s35.5,13.6,49.1,0  C291.1,333.9,291.1,311.9,277.6,298.4z M265.3,335.2c-6.8,6.8-17.8,6.8-24.6,0s-6.8-17.8,0-24.6c6.8-6.8,17.8-6.8,24.6,0  S272.1,328.5,265.3,335.2z"/>
<g>
	<path style="fill:#FFFFFF;" d="M218.3,357.7c-5.2-5.2-8.9-11.2-11.3-17.6L164.2,356c4.6,12.4,11.8,24.1,21.8,34   c10,10,21.6,17.2,34,21.8l15.9-42.8C229.5,366.6,223.4,362.8,218.3,357.7z"/>
	<path style="fill:#FFFFFF;" d="M287.7,288.2c5.2,5.2,8.9,11.2,11.3,17.6l42.8-15.9c-4.6-12.4-11.8-24.1-21.8-34   c-10-10-21.6-17.2-34-21.8l-15.9,42.8C276.5,279.3,282.6,283.1,287.7,288.2z"/>
</g>
<g>
</g>
<g>
</g>
<g>
</g>
<g>
</g>
<g>
</g>
<g>
</g>
<g>
</g>
<g>
</g>
<g>
</g>
<g>
</g>
<g>
</g>
<g>
</g>
<g>
</g>
<g>
</g>
<g>
</g>
</svg>
