<?xml version="1.0" encoding="iso-8859-1"?>
<!-- Generator: Adobe Illustrator 19.0.0, SVG Export Plug-In . SVG Version: 6.00 Build 0)  -->
<svg xmlns="http://www.w3.org/2000/svg" xmlns:xlink="http://www.w3.org/1999/xlink" version="1.1" id="Layer_1" x="0px" y="0px" viewBox="0 0 506 506" style="enable-background:new 0 0 506 506;" xml:space="preserve">
<circle style="fill:#FD8469;" cx="253" cy="253" r="253"/>
<path style="fill:#FFFFFF;" d="M376.2,197L376.2,197c0-26.7-21.7-48.4-48.5-48.4c-10.9,0-20.9,3.6-29,9.7  c-10.3-36.6-43.8-63.5-83.7-63.5c-48.1,0-87,39-87,87c0,5.2,0.5,10.2,1.4,15.2c-34,0.3-61.4,27.9-61.4,61.9  c0,34.1,27.7,61.8,61.8,61.8h246.3c34.1,0,61.8-27.7,61.8-61.8C438,224.7,410.3,197,376.2,197z"/>
<path style="fill:#54C0EB;" d="M351.1,271.3H154.9c-3.2,0-5.7,2.7-5.7,6v27.3c0,3.3,2.6,6,5.7,6h196.2c3.2,0,5.7-2.7,5.7-6v-27.3  C356.8,274,354.3,271.3,351.1,271.3z"/>
<path style="fill:#84DBFF;" d="M325.6,411.1H180.4c-6.8,0-12.5-5.3-12.9-12.2l-5.1-88.5h181.3l-5.1,88.5  C338.1,405.8,332.4,411.1,325.6,411.1z"/>
<g>
	<path style="fill:#324A5E;" d="M205.2,289.6c-3.6-3.6-9.7-3.3-13.7,0.6l-38.9,38.9c-4,4-4.3,10.1-0.6,13.7   c3.6,3.6,9.7,3.3,13.7-0.6l38.9-38.9C208.5,299.4,208.8,293.2,205.2,289.6z"/>
	<path style="fill:#324A5E;" d="M301,289.6c3.6-3.6,9.7-3.3,13.7,0.6l38.9,38.9c4,4,4.3,10.1,0.6,13.7c-3.6,3.6-9.7,3.3-13.7-0.6   l-38.9-38.9C297.7,299.4,297.4,293.2,301,289.6z"/>
</g>
<g>
	<path style="fill:#54C0EB;" d="M198.2,336.2c-3.6,0-6.5,2.9-6.5,6.5v48.4c0,3.6,2.9,6.5,6.5,6.5s6.5-2.9,6.5-6.5v-48.4   C204.7,339.2,201.8,336.2,198.2,336.2z"/>
	<path style="fill:#54C0EB;" d="M225.6,336.2c-3.6,0-6.5,2.9-6.5,6.5v48.4c0,3.6,2.9,6.5,6.5,6.5s6.5-2.9,6.5-6.5v-48.4   C232.1,339.2,229.2,336.2,225.6,336.2z"/>
	<path style="fill:#54C0EB;" d="M253,336.2c-3.6,0-6.5,2.9-6.5,6.5v48.4c0,3.6,2.9,6.5,6.5,6.5s6.5-2.9,6.5-6.5v-48.4   C259.5,339.2,256.6,336.2,253,336.2z"/>
	<path style="fill:#54C0EB;" d="M280.4,336.2c-3.6,0-6.5,2.9-6.5,6.5v48.4c0,3.6,2.9,6.5,6.5,6.5s6.5-2.9,6.5-6.5v-48.4   C286.9,339.2,284,336.2,280.4,336.2z"/>
	<path style="fill:#54C0EB;" d="M307.8,336.2c-3.6,0-6.5,2.9-6.5,6.5v48.4c0,3.6,2.9,6.5,6.5,6.5s6.5-2.9,6.5-6.5v-48.4   C314.4,339.2,311.4,336.2,307.8,336.2z"/>
</g>
<g>
</g>
<g>
</g>
<g>
</g>
<g>
</g>
<g>
</g>
<g>
</g>
<g>
</g>
<g>
</g>
<g>
</g>
<g>
</g>
<g>
</g>
<g>
</g>
<g>
</g>
<g>
</g>
<g>
</g>
</svg>
