<?xml version="1.0" encoding="iso-8859-1"?>
<!-- Generator: Adobe Illustrator 19.0.0, SVG Export Plug-In . SVG Version: 6.00 Build 0)  -->
<svg xmlns="http://www.w3.org/2000/svg" xmlns:xlink="http://www.w3.org/1999/xlink" version="1.1" id="Layer_1" x="0px" y="0px" viewBox="0 0 506 506" style="enable-background:new 0 0 506 506;" xml:space="preserve">
<circle style="fill:#FFD05B;" cx="253" cy="253" r="253"/>
<path style="fill:#FFFFFF;" d="M364.4,189.7c1.1-5.3,1.6-10.8,1.6-16.5c0-50-43.8-90.5-97.8-90.5c-34.1,0-64.1,16.1-81.6,40.6  c-1.3-0.1-2.6-0.2-4-0.2c-39.1,0-70.9,29.4-70.9,65.6c0,4,0.5,8,1.2,11.8c-18.3,11.8-30.4,31.5-30.4,53.8  c0,36.2,31.7,65.6,70.9,65.6c39.1,0,163,0,198.9,0c39.1,0,70.9-29.4,70.9-65.6C423.3,221.8,397.9,194.9,364.4,189.7z"/>
<circle style="fill:#324A5E;" cx="241" cy="312.2" r="111.2"/>
<path style="fill:#2C9984;" d="M232.6,303.8v-85.1c-45.2,3.9-81.2,39.9-85.1,85.1H232.6z"/>
<path style="fill:#F9B54C;" d="M248.9,308.6l63.5,63.5c13.7-16.3,21.9-37.2,21.9-60.2c0-48.9-37.6-89.1-85.4-93.2V308.6z"/>
<path style="fill:#F1543F;" d="M237.4,320.1h-89.8c4.1,47.9,44.3,85.4,93.2,85.4c22.9,0,43.9-8.2,60.2-21.9L237.4,320.1z"/>
<g>
</g>
<g>
</g>
<g>
</g>
<g>
</g>
<g>
</g>
<g>
</g>
<g>
</g>
<g>
</g>
<g>
</g>
<g>
</g>
<g>
</g>
<g>
</g>
<g>
</g>
<g>
</g>
<g>
</g>
</svg>
