<?xml version="1.0" encoding="iso-8859-1"?>
<!-- Generator: Adobe Illustrator 19.0.0, SVG Export Plug-In . SVG Version: 6.00 Build 0)  -->
<svg xmlns="http://www.w3.org/2000/svg" xmlns:xlink="http://www.w3.org/1999/xlink" version="1.1" id="Layer_1" x="0px" y="0px" viewBox="0 0 506 506" style="enable-background:new 0 0 506 506;" xml:space="preserve">
<circle style="fill:#90DFAA;" cx="253" cy="253" r="253"/>
<path style="fill:#324A5E;" d="M355.5,175.2c-9.8-45.8-52-80.3-102.5-80.3s-92.6,34.5-102.5,80.3c-32.5,11.8-55.6,42-55.6,77.4  c0,16.5,5.1,31.9,13.7,44.9c15.3,22.8,41.9,38,72.3,38h144.3c30.3,0,56.9-15.1,72.3-38c8.7-12.9,13.7-28.3,13.7-44.9  C411.1,217.2,388,187,355.5,175.2z"/>
<g>
	<polygon style="fill:#FFD05B;" points="152.2,258.5 156.6,262.2 172.3,275.7 172.3,240  "/>
	<polygon style="fill:#FFD05B;" points="148.2,270.7 148.2,402.7 225.1,336.7  "/>
	<polygon style="fill:#FFD05B;" points="253,360.6 234.2,344.5 156.6,411.1 349.4,411.1 271.8,344.5  "/>
	<polygon style="fill:#FFD05B;" points="357.8,402.7 357.8,270.7 280.9,336.7  "/>
</g>
<polygon style="fill:#F9B54C;" points="357.8,402.7 280.9,336.7 357.8,270.7 357.8,262.2 353.8,258.5 253,345 152.2,258.5   148.2,262.2 148.2,270.7 225.1,336.7 148.2,402.7 148.2,411.1 156.6,411.1 234.2,344.5 253,360.6 271.8,344.5 349.4,411.1   357.8,411.1 "/>
<g>
	<polygon style="fill:#FFD05B;" points="253,165.4 206.4,208.4 299.6,208.4  "/>
	<polygon style="fill:#FFD05B;" points="353.8,258.5 333.7,240 333.7,275.7 349.4,262.2  "/>
</g>
<polygon style="fill:#FFFFFF;" points="172.3,196.6 172.3,240 172.3,275.7 253,345 333.7,275.7 333.7,240 333.7,196.6 "/>
<path style="fill:#F1543F;" d="M281.4,279c2.1,0,4-1.7,5.6-5c1.6-3.4,2.4-7.6,2.4-12.7c0-11-3.2-20.1-9.5-27.4  c-6.3-7.2-14.8-10.8-25.4-10.8s-19.6,3.8-26.8,11.4c-7.3,7.6-10.9,16.7-10.9,27.2c0,10.6,3.4,19.4,10.2,26.4s15.3,10.5,25.4,10.5  c7.9,0,14.8-2.9,20.8-8.7l4.8,8.3c-3.1,2.7-7.1,4.9-12,6.6c-4.8,1.7-9.4,2.5-13.7,2.5c-13,0-24-4.4-32.7-13.1  c-8.8-8.7-13.2-19.6-13.2-32.7s4.6-24.2,13.9-33.5c9.3-9.3,20.4-13.9,33.4-13.9c13,0,23.9,4.5,32.7,13.4c8.7,8.9,13.1,20,13.1,33.3  c0,8.6-1.8,15.5-5.3,20.7c-3.6,5.2-8.2,7.8-14,7.8c-3,0-5.7-0.9-8.1-2.7c-2.5-1.8-4.2-4.1-5.1-6.8c-4.3,5.5-9.7,8.3-16.3,8.3  c-6.6,0-12.3-2.5-17.2-7.5s-7.3-11.3-7.3-19s2.2-14.2,6.6-19.4c4.4-5.3,10.2-7.9,17.4-7.9c2.4,0,4.7,0.5,6.9,1.6s3.7,2.1,4.7,3.1  l1.5,1.5v-4.8h14.6v37.4C277.9,277.1,279.1,279,281.4,279z M263.4,261.4c0-3.9-1-7.1-3.1-9.7c-2.1-2.6-4.8-3.9-8.1-3.9  c-3.4,0-6,1.3-8,3.9s-3,5.8-3,9.5c0,3.8,1,7.1,3,9.9s4.7,4.2,8.1,4.2c3.4,0,6.2-1.3,8.1-4C262.4,268.6,263.4,265.3,263.4,261.4z"/>
<g>
</g>
<g>
</g>
<g>
</g>
<g>
</g>
<g>
</g>
<g>
</g>
<g>
</g>
<g>
</g>
<g>
</g>
<g>
</g>
<g>
</g>
<g>
</g>
<g>
</g>
<g>
</g>
<g>
</g>
</svg>
