<?xml version="1.0" encoding="iso-8859-1"?>
<!-- Generator: Adobe Illustrator 19.0.0, SVG Export Plug-In . SVG Version: 6.00 Build 0)  -->
<svg xmlns="http://www.w3.org/2000/svg" xmlns:xlink="http://www.w3.org/1999/xlink" version="1.1" id="Layer_1" x="0px" y="0px" viewBox="0 0 506 506" style="enable-background:new 0 0 506 506;" xml:space="preserve">
<circle style="fill:#FFD05B;" cx="253" cy="253" r="253"/>
<path style="fill:#324A5E;" d="M277,421.6v-15.8c19.7,0,35.7-16,35.7-35.7V171.7h15.8v198.5C328.5,398.5,305.4,421.6,277,421.6z"/>
<path style="fill:#FFFFFF;" d="M364.4,241.8L364.4,241.8c0-24.2-19.7-43.8-43.9-43.8c-9.9,0-18.9,3.3-26.3,8.8  c-9.3-33.1-39.6-57.4-75.7-57.4c-43.5,0-78.7,35.2-78.7,78.7c0,4.7,0.5,9.3,1.3,13.7c-30.7,0.2-55.5,25.2-55.5,55.9  c0,30.9,25,55.9,55.9,55.9h222.9c30.9,0,55.9-25,55.9-55.9C420.4,266.9,395.3,241.8,364.4,241.8z"/>
<rect x="296.8" y="84.4" style="fill:#ACB3BA;" width="47.4" height="30.4"/>
<polygon style="fill:#324A5E;" points="285.4,114.8 285.4,154.3 296.8,178.3 344.3,178.3 355.8,154.3 355.8,114.8 "/>
<g>
	<rect x="307.6" y="93.2" style="fill:#FFFFFF;" width="5.9" height="12.8"/>
	<rect x="327.6" y="93.2" style="fill:#FFFFFF;" width="5.9" height="12.8"/>
</g>
<path style="fill:#324A5E;" d="M277,421.6c-28.4,0-51.5-23.1-51.5-51.5V257.3c0-13.5-11-24.5-24.5-24.5s-24.5,11-24.5,24.5v55.2  h-15.8v-55.2c0-22.2,18.1-40.3,40.3-40.3s40.3,18.1,40.3,40.3v112.8c0,19.7,16,35.7,35.7,35.7V421.6z"/>
<rect x="156.2" y="327.6" style="fill:#ACB3BA;" width="24.8" height="15.9"/>
<polygon style="fill:#324A5E;" points="187,327.6 187,307 181,294.4 156.2,294.4 150.2,307 150.2,327.6 "/>
<g>
	<rect x="172.3" y="332.2" style="fill:#FFFFFF;" width="3.1" height="6.7"/>
	<rect x="161.9" y="332.2" style="fill:#FFFFFF;" width="3.1" height="6.7"/>
</g>
<g>
</g>
<g>
</g>
<g>
</g>
<g>
</g>
<g>
</g>
<g>
</g>
<g>
</g>
<g>
</g>
<g>
</g>
<g>
</g>
<g>
</g>
<g>
</g>
<g>
</g>
<g>
</g>
<g>
</g>
</svg>
