<?xml version="1.0" encoding="iso-8859-1"?>
<!-- Generator: Adobe Illustrator 19.0.0, SVG Export Plug-In . SVG Version: 6.00 Build 0)  -->
<svg xmlns="http://www.w3.org/2000/svg" xmlns:xlink="http://www.w3.org/1999/xlink" version="1.1" id="Layer_1" x="0px" y="0px" viewBox="0 0 506 506" style="enable-background:new 0 0 506 506;" xml:space="preserve">
<circle style="fill:#FD8469;" cx="253" cy="253" r="253"/>
<path style="fill:#FFFFFF;" d="M382,173.3L382,173.3c-0.1-28-22.8-50.7-50.8-50.7c-11.4,0-21.9,3.8-30.4,10.2  c-10.8-38.3-45.9-66.5-87.7-66.5c-50.3,0-91.1,40.8-91.1,91.1c0,5.4,0.6,10.7,1.5,15.9C88,173.6,59.3,202.4,59.3,238  c0,35.8,29,64.8,64.8,64.8h258c35.8,0,64.8-29,64.8-64.8C446.7,202.3,417.8,173.3,382,173.3z"/>
<path style="fill:#4CDBC4;" d="M242.8,169.6c-41.3,4.6-74.6,38.5-78.6,79.9c-2.7,28.2,7.9,54.1,26.1,72.1  c11.7,11.6,18.7,27.1,18.7,43.6h89.1v-1.5c0-15.9,6.3-31.2,17.6-42.5c16.2-16.1,26.2-38.4,26.2-63  C342.1,205.6,296.6,163.7,242.8,169.6z"/>
<g>
	<rect x="209.2" y="375.6" style="fill:#2B3B4E;" width="89.1" height="9.7"/>
	<rect x="209.2" y="395.7" style="fill:#2B3B4E;" width="89.1" height="9.7"/>
</g>
<g>
	<rect x="209.2" y="365.2" style="fill:#324A5E;" width="89.1" height="10.4"/>
	<rect x="209.2" y="385.3" style="fill:#324A5E;" width="89.1" height="10.4"/>
	<rect x="209.2" y="405.4" style="fill:#324A5E;" width="89.1" height="10.4"/>
</g>
<path style="fill:#2B3B4E;" d="M209.2,415.8v4.8c0,2.8,2.3,5.1,5.1,5.1h14.5c2.2,0,4.4,1,5.5,2.9c2.5,4.6,10.9,7.9,20.8,7.9  c9.9,0,18.3-3.4,20.8-7.9c1.1-1.9,3.3-2.9,5.5-2.9h11.9c2.8,0,5.1-2.3,5.1-5.1v-4.8H209.2z"/>
<path style="fill:#FFFFFF;" d="M275.9,247.8h-45.8c-5.1,0-9.2,4.1-9.2,9.2l0,0c0,5.1,4.1,9.2,9.2,9.2h13.7v99.1h18.3v-99.1h13.7  c5.1,0,9.2-4.1,9.2-9.2S280.9,247.8,275.9,247.8z"/>
<g>
</g>
<g>
</g>
<g>
</g>
<g>
</g>
<g>
</g>
<g>
</g>
<g>
</g>
<g>
</g>
<g>
</g>
<g>
</g>
<g>
</g>
<g>
</g>
<g>
</g>
<g>
</g>
<g>
</g>
</svg>
