<?xml version="1.0" encoding="iso-8859-1"?>
<!-- Generator: Adobe Illustrator 19.0.0, SVG Export Plug-In . SVG Version: 6.00 Build 0)  -->
<svg xmlns="http://www.w3.org/2000/svg" xmlns:xlink="http://www.w3.org/1999/xlink" version="1.1" id="Layer_1" x="0px" y="0px" viewBox="0 0 506 506" style="enable-background:new 0 0 506 506;" xml:space="preserve">
<circle style="fill:#84DBFF;" cx="253" cy="253" r="253"/>
<path style="fill:#FFFFFF;" d="M382,177.8L382,177.8c-0.1-28-22.8-50.7-50.8-50.7c-11.4,0-21.9,3.8-30.4,10.2  C290,99,254.9,70.8,213.2,70.8c-50.3,0-91.1,40.8-91.1,91.1c0,5.4,0.6,10.7,1.5,15.9C88,178.1,59.3,207,59.3,242.6  c0,35.8,29,64.8,64.8,64.8h258c35.8,0,64.8-29,64.8-64.8C446.7,206.8,417.8,177.8,382,177.8z"/>
<circle style="fill:#FF7058;" cx="253" cy="325.1" r="107.2"/>
<circle style="fill:#FFFFFF;" cx="253" cy="325.1" r="83.9"/>
<polygon style="fill:#324A5E;" points="290.2,332.5 245.6,332.5 245.6,256.3 260.4,256.3 260.4,317.7 290.2,317.7 "/>
<g>
</g>
<g>
</g>
<g>
</g>
<g>
</g>
<g>
</g>
<g>
</g>
<g>
</g>
<g>
</g>
<g>
</g>
<g>
</g>
<g>
</g>
<g>
</g>
<g>
</g>
<g>
</g>
<g>
</g>
</svg>
