<?xml version="1.0" encoding="iso-8859-1"?>
<!-- Generator: Adobe Illustrator 19.0.0, SVG Export Plug-In . SVG Version: 6.00 Build 0)  -->
<svg xmlns="http://www.w3.org/2000/svg" xmlns:xlink="http://www.w3.org/1999/xlink" version="1.1" id="Layer_1" x="0px" y="0px" viewBox="0 0 506 506" style="enable-background:new 0 0 506 506;" xml:space="preserve">
<circle style="fill:#324A5E;" cx="253" cy="253" r="253"/>
<path style="fill:#FFFFFF;" d="M357.9,187.6c0-0.5,0.1-0.9,0.1-1.4c0-35.7-30-64.7-67-64.7c-7.5,0-14.7,1.2-21.5,3.4  c-13.6-17.4-35.2-28.7-59.5-28.7c-41.2,0-74.6,32.2-74.6,72c0,7.6,1.3,15,3.5,21.9c-25.7,9.1-44,32.8-44,60.7  c0,35.7,30,64.7,67,64.7s145.1,0,182.2,0s67-29,67-64.7C411.1,219.7,388.3,193.7,357.9,187.6z"/>
<polygon style="fill:#FFD05B;" points="309.2,349.3 220.2,349.3 199,270.6 330.5,270.6 "/>
<path style="fill:#F1543F;" d="M212.2,357.5l-22.8-84.7c-2.4-9-10.6-15.3-19.9-15.3h-13.6v10.2h13.6c4.7,0,8.8,3.2,10.1,7.7  l24.8,92.2h106.9v-10.2h-99.1V357.5z"/>
<g>
	<circle style="fill:#CED5E0;" cx="226.5" cy="393.9" r="18.6"/>
	<circle style="fill:#CED5E0;" cx="288.6" cy="393.9" r="18.6"/>
</g>
<g>
	<path style="fill:#E29A3B;" d="M235.1,286.3c-2.5,0-4.5,2-4.5,4.5v38.3c0,2.5,2,4.5,4.5,4.5s4.5-2,4.5-4.5v-38.3   C239.5,288.3,237.5,286.3,235.1,286.3z"/>
	<path style="fill:#E29A3B;" d="M254.8,286.3c-2.5,0-4.5,2-4.5,4.5v38.3c0,2.5,2,4.5,4.5,4.5s4.5-2,4.5-4.5v-38.3   C259.3,288.3,257.3,286.3,254.8,286.3z"/>
	<path style="fill:#E29A3B;" d="M274.6,286.3c-2.5,0-4.5,2-4.5,4.5v38.3c0,2.5,2,4.5,4.5,4.5s4.5-2,4.5-4.5v-38.3   C279.1,288.3,277.1,286.3,274.6,286.3z"/>
	<path style="fill:#E29A3B;" d="M294.4,286.3c-2.5,0-4.5,2-4.5,4.5v38.3c0,2.5,2,4.5,4.5,4.5s4.5-2,4.5-4.5v-38.3   C298.9,288.3,296.8,286.3,294.4,286.3z"/>
</g>
<g>
</g>
<g>
</g>
<g>
</g>
<g>
</g>
<g>
</g>
<g>
</g>
<g>
</g>
<g>
</g>
<g>
</g>
<g>
</g>
<g>
</g>
<g>
</g>
<g>
</g>
<g>
</g>
<g>
</g>
</svg>
