<?xml version="1.0" encoding="iso-8859-1"?>
<!-- Generator: Adobe Illustrator 19.0.0, SVG Export Plug-In . SVG Version: 6.00 Build 0)  -->
<svg xmlns="http://www.w3.org/2000/svg" xmlns:xlink="http://www.w3.org/1999/xlink" version="1.1" id="Layer_1" x="0px" y="0px" viewBox="0 0 506 506" style="enable-background:new 0 0 506 506;" xml:space="preserve">
<circle style="fill:#90DFAA;" cx="253" cy="253" r="253"/>
<path style="fill:#FF7058;" d="M355.5,176.6c-9.8-45.8-52-80.3-102.5-80.3s-92.6,34.5-102.5,80.3c-32.5,11.8-55.6,42-55.6,77.4  c0,16.5,5.1,31.9,13.7,44.9c15.3,22.8,41.9,38,72.3,38h144.3c30.3,0,56.9-15.1,72.3-38c8.7-12.9,13.7-28.3,13.7-44.9  C411.1,218.6,388,188.4,355.5,176.6z"/>
<path style="fill:#2B3B4E;" d="M333.9,363.1V209.6L190,241.3V367c-6.1-0.8-13.1,0.2-19.7,3.5c-14.2,7-21.6,21.2-16.4,31.7  c5.2,10.6,20.9,13.5,35.1,6.5c12.5-6.1,19.7-17.9,17.7-27.8V288l110.5-24.3v84.6c-6.1-0.9-13.2,0.2-19.9,3.5  c-14.2,7-21.6,21.2-16.4,31.7c5.2,10.6,20.9,13.5,35.1,6.5C328.1,384.1,335.2,372.9,333.9,363.1z"/>
<g>
</g>
<g>
</g>
<g>
</g>
<g>
</g>
<g>
</g>
<g>
</g>
<g>
</g>
<g>
</g>
<g>
</g>
<g>
</g>
<g>
</g>
<g>
</g>
<g>
</g>
<g>
</g>
<g>
</g>
</svg>
