<?xml version="1.0" encoding="iso-8859-1"?>
<!-- Generator: Adobe Illustrator 19.0.0, SVG Export Plug-In . SVG Version: 6.00 Build 0)  -->
<svg xmlns="http://www.w3.org/2000/svg" xmlns:xlink="http://www.w3.org/1999/xlink" version="1.1" id="Layer_1" x="0px" y="0px" viewBox="0 0 506 506" style="enable-background:new 0 0 506 506;" xml:space="preserve">
<circle style="fill:#FD8469;" cx="253" cy="253" r="253"/>
<path style="fill:#FFFFFF;" d="M365.5,192.2c-2.8,0-5.6,0.2-8.3,0.5c-1.9-29.6-26.4-53-56.4-53c-9.4,0-18.2,2.3-26,6.4  c-10.9-18.4-30.9-30.7-53.8-30.7c-34.7,0-62.8,28.1-62.8,62.8c0,5.9,0.9,11.7,2.4,17.1c-6.3-2-13.1-3.1-20.1-3.1  c-36.6,0-66.2,29.7-66.2,66.2c0,35.3,27.7,64.1,62.6,66v0.2h17c2.9,15.3,15.9,27,31.9,27.9c8.4,22.2,29.8,38,54.9,38  c16.4,0,31.2-6.7,41.8-17.5c5.9,2,12.1,3.2,18.7,3.2c29.7,0,54-22.7,56.8-51.6h7.6c36.6,0,66.2-29.7,66.2-66.2  C431.7,221.8,402.1,192.2,365.5,192.2z"/>
<ellipse style="fill:#F9B54C;" cx="253" cy="253" rx="81" ry="80.8"/>
<ellipse style="fill:#FFD05B;" cx="253" cy="253" rx="66.4" ry="66.3"/>
<path style="fill:#F9B54C;" d="M250.2,305.4v-9.2c-11.6-1.2-22-5.8-31.2-13.8l9.2-11c7.1,6.2,14.4,9.8,21.9,11v-24.5  c-9.5-2.3-16.5-5.3-21-9c-4.4-3.7-6.6-9.2-6.6-16.5s2.5-13.3,7.7-17.9c5.1-4.6,11.8-7.2,20-7.6v-6.3h8.1v6.4  c9.3,0.7,18.1,3.8,26.3,9.5l-8.2,11.6c-5.6-4-11.6-6.4-18.1-7.3v23.8h0.4c9.7,2.3,16.8,5.4,21.4,9.2c4.6,3.9,6.8,9.5,6.8,16.9  s-2.6,13.4-7.9,18c-5.2,4.6-12.2,7.2-20.8,7.6v9.1H250.2z M241.3,223.8c-2.2,1.9-3.2,4.3-3.2,7.1s0.8,5.1,2.5,6.7  c1.7,1.6,4.9,3.2,9.6,4.7v-21.9C246.4,220.8,243.4,221.9,241.3,223.8z M267.9,279.2c2.4-1.9,3.5-4.4,3.5-7.3s-0.9-5.3-2.8-7  s-5.3-3.4-10.4-4.9v22.8C262.4,282.4,265.6,281.2,267.9,279.2z"/>
<g>
</g>
<g>
</g>
<g>
</g>
<g>
</g>
<g>
</g>
<g>
</g>
<g>
</g>
<g>
</g>
<g>
</g>
<g>
</g>
<g>
</g>
<g>
</g>
<g>
</g>
<g>
</g>
<g>
</g>
</svg>
