<?xml version="1.0" encoding="iso-8859-1"?>
<!-- Generator: Adobe Illustrator 19.0.0, SVG Export Plug-In . SVG Version: 6.00 Build 0)  -->
<svg xmlns="http://www.w3.org/2000/svg" xmlns:xlink="http://www.w3.org/1999/xlink" version="1.1" id="Layer_1" x="0px" y="0px" viewBox="0 0 506 506" style="enable-background:new 0 0 506 506;" xml:space="preserve">
<circle style="fill:#324A5E;" cx="253" cy="253" r="253"/>
<path style="fill:#84DBFF;" d="M252.4,150.4L252.4,150.4c0-14.5-11.8-26.3-26.4-26.3c-5.9,0-11.4,2-15.8,5.3  c-5.6-19.9-23.8-34.5-45.5-34.5c-26.1,0-47.3,21.2-47.3,47.3c0,2.8,0.3,5.6,0.8,8.2c-18.5,0.1-33.4,15.1-33.4,33.6  c0,18.6,15.1,33.6,33.6,33.6h134c18.6,0,33.6-15.1,33.6-33.6S271,150.4,252.4,150.4z"/>
<path style="fill:#FFFFFF;" d="M379.9,258.9L379.9,258.9c0-23.6-19.2-42.6-42.7-42.6c-9.6,0-18.4,3.2-25.6,8.6  c-9.1-32.2-38.6-55.9-73.8-55.9c-42.3,0-76.7,34.3-76.7,76.7c0,4.6,0.5,9,1.2,13.4c-29.9,0.2-54.1,24.5-54.1,54.5  c0,30.1,24.4,54.5,54.5,54.5h217.1c30.1,0,54.5-24.4,54.5-54.5C434.4,283.3,410,258.9,379.9,258.9z"/>
<g>
</g>
<g>
</g>
<g>
</g>
<g>
</g>
<g>
</g>
<g>
</g>
<g>
</g>
<g>
</g>
<g>
</g>
<g>
</g>
<g>
</g>
<g>
</g>
<g>
</g>
<g>
</g>
<g>
</g>
</svg>
