<?xml version="1.0" encoding="iso-8859-1"?>
<!-- Generator: Adobe Illustrator 19.0.0, SVG Export Plug-In . SVG Version: 6.00 Build 0)  -->
<svg xmlns="http://www.w3.org/2000/svg" xmlns:xlink="http://www.w3.org/1999/xlink" version="1.1" id="Layer_1" x="0px" y="0px" viewBox="0 0 506 506" style="enable-background:new 0 0 506 506;" xml:space="preserve">
<circle style="fill:#FFD05B;" cx="253" cy="253" r="253"/>
<path style="fill:#FFFFFF;" d="M379.7,208.6c5.9-9.9,9.3-21.5,9.3-33.8c0-36.8-29.9-66.7-66.7-66.7c-12.4,0-23.9,3.4-33.8,9.3  c-15.1-14-35.3-22.5-57.5-22.5c-46.9,0-84.9,38-84.9,84.9c0,6.9,0.9,13.6,2.5,20c-30.6,6.1-53.6,33-53.6,65.4  c0,36.8,29.9,66.7,66.7,66.7s146,0,182.8,0s66.7-29.9,66.7-66.7C411.1,241.3,398.5,220.4,379.7,208.6z"/>
<rect x="166.5" y="275.8" style="fill:#2B3B4E;" width="173" height="135.4"/>
<rect x="180.5" y="288.3" style="fill:#84DBFF;" width="145" height="110.2"/>
<polygon style="fill:#F1543F;" points="213,343.1 180.4,398.6 245.7,398.6 "/>
<polygon style="fill:#FF7058;" points="278.4,318.5 231.3,398.6 325.5,398.6 "/>
<g>
	<circle style="fill:#FFFFFF;" cx="214.4" cy="312.3" r="7.8"/>
	<rect x="212.2" y="295.5" style="fill:#FFFFFF;" width="4.4" height="5.5"/>
	<rect x="212.2" y="323.6" style="fill:#FFFFFF;" width="4.4" height="5.5"/>
	<rect x="225.7" y="310.1" style="fill:#FFFFFF;" width="5.5" height="4.4"/>
	<rect x="197.6" y="310.1" style="fill:#FFFFFF;" width="5.5" height="4.4"/>
	
		<rect x="222.125" y="299.598" transform="matrix(-0.7066 -0.7076 0.7076 -0.7066 168.8904 674.7223)" style="fill:#FFFFFF;" width="4.4" height="5.5"/>
	<polygon style="fill:#FFFFFF;" points="200.9,322.6 204.1,325.8 208,321.9 204.8,318.7  "/>
	
		<rect x="221.517" y="320.039" transform="matrix(0.707 0.7073 -0.7073 0.707 293.6258 -64.1848)" style="fill:#FFFFFF;" width="5.5" height="4.4"/>
	<polygon style="fill:#FFFFFF;" points="200.9,302 204.8,305.9 208,302.8 204.1,298.9  "/>
</g>
<g>
</g>
<g>
</g>
<g>
</g>
<g>
</g>
<g>
</g>
<g>
</g>
<g>
</g>
<g>
</g>
<g>
</g>
<g>
</g>
<g>
</g>
<g>
</g>
<g>
</g>
<g>
</g>
<g>
</g>
</svg>
