<?xml version="1.0" encoding="iso-8859-1"?>
<!-- Generator: Adobe Illustrator 19.0.0, SVG Export Plug-In . SVG Version: 6.00 Build 0)  -->
<svg xmlns="http://www.w3.org/2000/svg" xmlns:xlink="http://www.w3.org/1999/xlink" version="1.1" id="Layer_1" x="0px" y="0px" viewBox="0 0 506 506" style="enable-background:new 0 0 506 506;" xml:space="preserve">
<circle style="fill:#84DBFF;" cx="253" cy="253" r="253"/>
<path style="fill:#FFFFFF;" d="M356.8,186.2c0-0.5,0.1-0.9,0.1-1.4c0-35.7-29.7-64.7-66.3-64.7c-7.4,0-14.6,1.2-21.2,3.4  c-13.5-17.4-34.8-28.7-58.9-28.7c-40.8,0-73.8,32.2-73.8,72c0,7.6,1.2,15,3.5,21.9c-25.4,9.1-43.6,32.8-43.6,60.7  c0,35.7,29.7,64.7,66.3,64.7s143.6,0,180.3,0s66.3-29,66.3-64.7C409.5,218.3,386.9,192.3,356.8,186.2z"/>
<path style="fill:#324A5E;" d="M297.8,279.6V255c0-4.4-3.5-7.9-7.9-7.9h-73.7c-4.4,0-7.9,3.5-7.9,7.9v24.6h-44.1v131.5h177.7V279.6  H297.8z M220.1,258.9h65.8v20.7h-65.8L220.1,258.9L220.1,258.9z"/>
<g>
</g>
<g>
</g>
<g>
</g>
<g>
</g>
<g>
</g>
<g>
</g>
<g>
</g>
<g>
</g>
<g>
</g>
<g>
</g>
<g>
</g>
<g>
</g>
<g>
</g>
<g>
</g>
<g>
</g>
</svg>
