<?xml version="1.0" encoding="iso-8859-1"?>
<!-- Generator: Adobe Illustrator 19.0.0, SVG Export Plug-In . SVG Version: 6.00 Build 0)  -->
<svg xmlns="http://www.w3.org/2000/svg" xmlns:xlink="http://www.w3.org/1999/xlink" version="1.1" id="Layer_1" x="0px" y="0px" viewBox="0 0 506 506" style="enable-background:new 0 0 506 506;" xml:space="preserve">
<circle style="fill:#324A5E;" cx="253" cy="253" r="253"/>
<path style="fill:#84DBFF;" d="M408.5,383.1h-311c-1.4,0-2.6-1.2-2.6-2.6v-76.9c0-1.4,1.2-2.6,2.6-2.6h311c1.4,0,2.6,1.2,2.6,2.6  v76.9C411.1,381.9,410,383.1,408.5,383.1z"/>
<rect x="114.8" y="318.7" style="fill:#F1543F;" width="141.3" height="46.7"/>
<g>
	<rect x="369" y="318.7" style="fill:#324A5E;" width="22.2" height="46.7"/>
	<rect x="329.1" y="318.7" style="fill:#324A5E;" width="22.2" height="46.7"/>
	<rect x="289.2" y="318.7" style="fill:#324A5E;" width="22.2" height="46.7"/>
</g>
<path style="fill:#FFFFFF;" d="M343.1,143.2c0-0.4,0.1-0.8,0.1-1.2c0-29.9-25.8-54.1-57.6-54.1c-6.5,0-12.6,1-18.4,2.9  c-11.7-14.5-30.2-24-51.1-24c-35.4,0-64.1,27-64.1,60.2c0,6.4,1.1,12.5,3,18.3c-22,7.6-37.8,27.4-37.8,50.8  c0,29.9,25.8,54.1,57.6,54.1s124.6,0,156.4,0s57.6-24.2,57.6-54.1C388.7,170.1,369.2,148.4,343.1,143.2z"/>
<polygon style="fill:#FFD05B;" points="272.8,257.9 272.8,210.3 233.2,210.3 233.2,257.9 220.7,257.9 253,288.3 285.3,257.9 "/>
<g>
</g>
<g>
</g>
<g>
</g>
<g>
</g>
<g>
</g>
<g>
</g>
<g>
</g>
<g>
</g>
<g>
</g>
<g>
</g>
<g>
</g>
<g>
</g>
<g>
</g>
<g>
</g>
<g>
</g>
</svg>
