<?xml version="1.0" encoding="iso-8859-1"?>
<!-- Generator: Adobe Illustrator 19.0.0, SVG Export Plug-In . SVG Version: 6.00 Build 0)  -->
<svg xmlns="http://www.w3.org/2000/svg" xmlns:xlink="http://www.w3.org/1999/xlink" version="1.1" id="Layer_1" x="0px" y="0px" viewBox="0 0 506 506" style="enable-background:new 0 0 506 506;" xml:space="preserve">
<circle style="fill:#324A5E;" cx="253" cy="253" r="253"/>
<path style="fill:#E6E9EE;" d="M158.7,283.2c0-0.5-0.1-0.9-0.1-1.4c0-35.7,29.7-64.7,66.3-64.7c7.4,0,14.6,1.2,21.2,3.4  c13.5-17.4,34.8-28.7,58.9-28.7c40.8,0,73.8,32.2,73.8,72c0,7.6-1.2,15-3.5,21.9c25.4,9.1,43.6,32.8,43.6,60.7  c0,35.7-29.7,64.7-66.3,64.7s-143.6,0-180.3,0c-36.6,0-66.3-29-66.3-64.7C106.1,315.3,128.7,289.3,158.7,283.2z"/>
<path style="fill:#FF7058;" d="M280.8,94.9H114.6c-6.5,0-11.9,5.3-11.9,11.9v113.7c0,6.5,5.3,11.9,11.9,11.9h116.3l38.3,38.3v-38.3  h11.6c6.5,0,11.9-5.3,11.9-11.9V106.7C292.6,100.2,287.3,94.9,280.8,94.9z"/>
<g>
	<circle style="fill:#FFFFFF;" cx="141.1" cy="163.6" r="18.6"/>
	<circle style="fill:#FFFFFF;" cx="197.7" cy="163.6" r="18.6"/>
	<circle style="fill:#FFFFFF;" cx="254.3" cy="163.6" r="18.6"/>
</g>
<g>
</g>
<g>
</g>
<g>
</g>
<g>
</g>
<g>
</g>
<g>
</g>
<g>
</g>
<g>
</g>
<g>
</g>
<g>
</g>
<g>
</g>
<g>
</g>
<g>
</g>
<g>
</g>
<g>
</g>
</svg>
