<?xml version="1.0" encoding="iso-8859-1"?>
<!-- Generator: Adobe Illustrator 19.0.0, SVG Export Plug-In . SVG Version: 6.00 Build 0)  -->
<svg xmlns="http://www.w3.org/2000/svg" xmlns:xlink="http://www.w3.org/1999/xlink" version="1.1" id="Layer_1" x="0px" y="0px" viewBox="0 0 506 506" style="enable-background:new 0 0 506 506;" xml:space="preserve">
<circle style="fill:#90DFAA;" cx="253" cy="253" r="253"/>
<path style="fill:#FFFFFF;" d="M355.5,175.2c-9.8-45.8-52-80.3-102.5-80.3s-92.6,34.5-102.5,80.3c-32.5,11.8-55.6,42-55.6,77.4  c0,16.5,5.1,31.9,13.7,44.9c15.3,22.8,41.9,38,72.3,38h144.3c30.3,0,56.9-15.1,72.3-38c8.7-12.9,13.7-28.3,13.7-44.9  C411.1,217.2,388,187,355.5,175.2z"/>
<path style="fill:#F1543F;" d="M253,383.4c-40.7,0-73.7-10.8-73.7-24.1V387c0,13.3,33,24.1,73.7,24.1s73.7-10.8,73.7-24.1v-27.7  C326.7,372.6,293.7,383.4,253,383.4z"/>
<ellipse style="fill:#FF7058;" cx="253" cy="359.3" rx="73.7" ry="24.1"/>
<path style="fill:#F1543F;" d="M253,338.3c-40.7,0-73.7-10.8-73.7-24.1v27.7c0,13.3,33,24.1,73.7,24.1s73.7-10.8,73.7-24.1v-27.7  C326.7,327.5,293.7,338.3,253,338.3z"/>
<ellipse style="fill:#FF7058;" cx="253" cy="314.2" rx="73.7" ry="24.1"/>
<path style="fill:#F1543F;" d="M253,293.2c-40.7,0-73.7-10.8-73.7-24.1v27.7c0,13.3,33,24.1,73.7,24.1s73.7-10.8,73.7-24.1v-27.7  C326.7,282.4,293.7,293.2,253,293.2z"/>
<ellipse style="fill:#FF7058;" cx="253" cy="269.1" rx="73.7" ry="24.1"/>
<g>
</g>
<g>
</g>
<g>
</g>
<g>
</g>
<g>
</g>
<g>
</g>
<g>
</g>
<g>
</g>
<g>
</g>
<g>
</g>
<g>
</g>
<g>
</g>
<g>
</g>
<g>
</g>
<g>
</g>
</svg>
