<?xml version="1.0" encoding="iso-8859-1"?>
<!-- Generator: Adobe Illustrator 19.0.0, SVG Export Plug-In . SVG Version: 6.00 Build 0)  -->
<svg xmlns="http://www.w3.org/2000/svg" xmlns:xlink="http://www.w3.org/1999/xlink" version="1.1" id="Layer_1" x="0px" y="0px" viewBox="0 0 506 506" style="enable-background:new 0 0 506 506;" xml:space="preserve">
<circle style="fill:#FFD05B;" cx="253" cy="253" r="253"/>
<path style="fill:#FFFFFF;" d="M361.9,234c0-0.5,0.1-1,0.1-1.4c0-37.1-31.1-67.1-69.6-67.1c-7.8,0-15.3,1.3-22.3,3.6  c-14.1-18-36.5-29.7-61.7-29.7c-42.8,0-77.4,33.5-77.4,74.7c0,7.9,1.3,15.6,3.7,22.7c-26.6,9.4-45.7,34-45.7,63  c0,37.1,31.1,67.1,69.6,67.1s150.6,0,189,0s69.6-30.1,69.6-67.1C417.1,267.3,393.4,240.4,361.9,234z"/>
<rect x="310.9" y="220.8" style="fill:#F1543F;" width="27.6" height="126.4"/>
<rect x="263.1" y="252.4" style="fill:#F9B54C;" width="27.6" height="94.8"/>
<rect x="215.3" y="283.9" style="fill:#2C9984;" width="27.6" height="63.2"/>
<rect x="167.6" y="315.5" style="fill:#ACB3BA;" width="27.6" height="31.6"/>
<polygon style="fill:#2B3B4E;" points="240.4,198.3 242.2,208.4 261.5,205 169.8,290.1 176.8,297.6 268.5,212.5 263.7,231.5   273.6,234 284.6,190.6 "/>
<g>
</g>
<g>
</g>
<g>
</g>
<g>
</g>
<g>
</g>
<g>
</g>
<g>
</g>
<g>
</g>
<g>
</g>
<g>
</g>
<g>
</g>
<g>
</g>
<g>
</g>
<g>
</g>
<g>
</g>
</svg>
