<?xml version="1.0" encoding="iso-8859-1"?>
<!-- Generator: Adobe Illustrator 19.0.0, SVG Export Plug-In . SVG Version: 6.00 Build 0)  -->
<svg xmlns="http://www.w3.org/2000/svg" xmlns:xlink="http://www.w3.org/1999/xlink" version="1.1" id="Layer_1" x="0px" y="0px" viewBox="0 0 506 506" style="enable-background:new 0 0 506 506;" xml:space="preserve">
<circle style="fill:#FD8469;" cx="253" cy="253" r="253"/>
<path style="fill:#FFFFFF;" d="M357.9,186.2c0-0.5,0.1-0.9,0.1-1.4c0-35.7-30-64.7-67-64.7c-7.5,0-14.7,1.2-21.5,3.4  c-13.6-17.4-35.2-28.7-59.5-28.7c-41.2,0-74.6,32.2-74.6,72c0,7.6,1.3,15,3.5,21.9c-25.7,9.1-44,32.8-44,60.7  c0,35.7,30,64.7,67,64.7s145.1,0,182.2,0c37,0,67-29,67-64.7C411.1,218.3,388.3,192.3,357.9,186.2z"/>
<circle style="fill:#324A5E;" cx="253" cy="331.5" r="79.6"/>
<path style="fill:#FFFFFF;" d="M253,398.2c-36.8,0-66.7-29.9-66.7-66.7s29.9-66.7,66.7-66.7s66.7,29.9,66.7,66.7  S289.8,398.2,253,398.2z M253,275.7c-30.8,0-55.8,25-55.8,55.8s25,55.8,55.8,55.8s55.8-25,55.8-55.8S283.8,275.7,253,275.7z"/>
<polygon style="fill:#FFD05B;" points="286.4,306 278.6,298.1 253,323.7 227.4,298.1 219.6,306 245.2,331.5 219.6,357.1   227.4,364.9 253,339.3 278.6,364.9 286.4,357.1 260.8,331.5 "/>
<g>
</g>
<g>
</g>
<g>
</g>
<g>
</g>
<g>
</g>
<g>
</g>
<g>
</g>
<g>
</g>
<g>
</g>
<g>
</g>
<g>
</g>
<g>
</g>
<g>
</g>
<g>
</g>
<g>
</g>
</svg>
