<?xml version="1.0" encoding="iso-8859-1"?>
<!-- Generator: Adobe Illustrator 19.0.0, SVG Export Plug-In . SVG Version: 6.00 Build 0)  -->
<svg xmlns="http://www.w3.org/2000/svg" xmlns:xlink="http://www.w3.org/1999/xlink" version="1.1" id="Layer_1" x="0px" y="0px" viewBox="0 0 506 506" style="enable-background:new 0 0 506 506;" xml:space="preserve">
<circle style="fill:#FFD05B;" cx="253" cy="253" r="253"/>
<path style="fill:#FFFFFF;" d="M365.5,181.3c0-0.5,0.1-1,0.1-1.5c0-38.3-32.2-69.4-71.9-69.4c-8.1,0-15.8,1.3-23,3.7  c-14.6-18.6-37.7-30.7-63.8-30.7c-44.2,0-80,34.6-80,77.2c0,8.2,1.3,16.1,3.8,23.5c-27.5,9.7-47.2,35.2-47.2,65.1  c0,38.3,32.2,69.4,71.9,69.4s155.7,0,195.4,0s71.9-31.1,71.9-69.4C422.6,215.8,398.1,187.9,365.5,181.3z"/>
<circle style="fill:#FF7058;" cx="253" cy="337.2" r="85.4"/>
<g>
	<path style="fill:#FFFFFF;" d="M253,405.8c-37.8,0-68.6-30.8-68.6-68.6s30.8-68.6,68.6-68.6s68.6,30.8,68.6,68.6   S290.8,405.8,253,405.8z M253,279.8c-31.7,0-57.4,25.8-57.4,57.4c0,31.7,25.8,57.4,57.4,57.4c31.7,0,57.4-25.8,57.4-57.4   C310.4,305.5,284.7,279.8,253,279.8z"/>
	<path style="fill:#FFFFFF;" d="M227.6,373l-22.1-25l8.4-7.4l11.2,12.7c8.4-13.6,30.1-41.6,67.1-44.4l0.8,11.2   c-41.6,3.1-61.7,44.9-61.9,45.3L227.6,373z"/>
</g>
<g>
</g>
<g>
</g>
<g>
</g>
<g>
</g>
<g>
</g>
<g>
</g>
<g>
</g>
<g>
</g>
<g>
</g>
<g>
</g>
<g>
</g>
<g>
</g>
<g>
</g>
<g>
</g>
<g>
</g>
</svg>
