<?xml version="1.0" encoding="iso-8859-1"?>
<!-- Generator: Adobe Illustrator 19.0.0, SVG Export Plug-In . SVG Version: 6.00 Build 0)  -->
<svg xmlns="http://www.w3.org/2000/svg" xmlns:xlink="http://www.w3.org/1999/xlink" version="1.1" id="Layer_1" x="0px" y="0px" viewBox="0 0 506 506" style="enable-background:new 0 0 506 506;" xml:space="preserve">
<circle style="fill:#84DBFF;" cx="253" cy="253" r="253"/>
<path style="fill:#FFFFFF;" d="M362.2,183c-10.5-51.9-55.4-90.9-109.2-90.9s-98.7,39-109.2,90.9c-34.6,13.4-59.3,47.5-59.3,87.6  c0,18.7,5.4,36.1,14.6,50.8c16.3,25.8,44.7,43,77,43h153.7c32.3,0,60.6-17.1,77-43c9.2-14.6,14.6-32.1,14.6-50.8  C421.4,230.5,396.8,196.4,362.2,183z"/>
<polygon style="fill:#FF7058;" points="225.9,269.4 273.4,269.5 262,258.1 293.5,226.6 268.7,201.8 237.2,233.3 225.9,221.9 "/>
<polygon style="fill:#4CDBC4;" points="366.7,246.6 319.2,246.5 330.6,257.9 299.1,289.4 323.9,314.2 355.4,282.7 366.8,294.1 "/>
<path style="fill:#324A5E;" d="M269.8,357.2c-10.2,13.9-37.4,8.1-59.7-14.2c-22.3-22.3-28.1-49.5-14.2-59.7l9.9-7.3l-49.7-49.7  l-6.3,6.3c-24.3,24.3-5.7,82.1,41.4,129.3c47.1,47.1,105,65.7,129.3,41.4l6.3-6.3l-49.7-49.7L269.8,357.2z"/>
<g>
	<path style="fill:#2B3B4E;" d="M214.3,267.3l-8.6,8.6l-49.6-49.6l8.6-8.6c1.5-1.5,3.9-1.5,5.3,0l44.3,44.3   C215.8,263.4,215.8,265.8,214.3,267.3z"/>
	<path style="fill:#2B3B4E;" d="M335.4,388.4l-8.6,8.6l-49.6-49.6l8.6-8.6c1.5-1.5,3.9-1.5,5.3,0l44.3,44.3   C336.9,384.5,336.9,386.9,335.4,388.4z"/>
</g>
<g>
</g>
<g>
</g>
<g>
</g>
<g>
</g>
<g>
</g>
<g>
</g>
<g>
</g>
<g>
</g>
<g>
</g>
<g>
</g>
<g>
</g>
<g>
</g>
<g>
</g>
<g>
</g>
<g>
</g>
</svg>
