<?xml version="1.0" encoding="iso-8859-1"?>
<!-- Generator: Adobe Illustrator 19.0.0, SVG Export Plug-In . SVG Version: 6.00 Build 0)  -->
<svg xmlns="http://www.w3.org/2000/svg" xmlns:xlink="http://www.w3.org/1999/xlink" version="1.1" id="Layer_1" x="0px" y="0px" viewBox="0 0 506 506" style="enable-background:new 0 0 506 506;" xml:space="preserve">
<circle style="fill:#FD8469;" cx="253" cy="253" r="253"/>
<path style="fill:#FFFFFF;" d="M373.6,238.3c4.4-8.4,6.9-18,6.9-28.2c0-33.9-27.5-61.4-61.4-61.4c-13.2,0-25.5,4.2-35.5,11.4  c-4.6-29.4-29.9-51.9-60.6-51.9c-33.3,0-60.4,26.6-61.3,59.7c-25,7.8-43.1,31.1-43.1,58.6c0,5.4,0.8,10.5,2.1,15.5  c-21.7,9.4-36.9,31.1-36.9,56.3c0,33.9,27.5,61.4,61.4,61.4s181.8,0,215.7,0s61.4-27.5,61.4-61.4  C422.2,268.8,401.4,244.1,373.6,238.3z"/>
<g>
	<path style="fill:#324A5E;" d="M253,324.4c-40.5,0-73.4,32.8-73.4,73.4h146.7C326.4,357.3,293.5,324.4,253,324.4z"/>
	<circle style="fill:#324A5E;" cx="253" cy="287.5" r="36.9"/>
</g>
<g>
</g>
<g>
</g>
<g>
</g>
<g>
</g>
<g>
</g>
<g>
</g>
<g>
</g>
<g>
</g>
<g>
</g>
<g>
</g>
<g>
</g>
<g>
</g>
<g>
</g>
<g>
</g>
<g>
</g>
</svg>
