<?xml version="1.0" encoding="iso-8859-1"?>
<!-- Generator: Adobe Illustrator 19.0.0, SVG Export Plug-In . SVG Version: 6.00 Build 0)  -->
<svg xmlns="http://www.w3.org/2000/svg" xmlns:xlink="http://www.w3.org/1999/xlink" version="1.1" id="Layer_1" x="0px" y="0px" viewBox="0 0 506 506" style="enable-background:new 0 0 506 506;" xml:space="preserve">
<circle style="fill:#90DFAA;" cx="253" cy="253" r="253"/>
<path style="fill:#FF7058;" d="M355.5,175.2c-9.8-45.8-52-80.3-102.5-80.3s-92.6,34.5-102.5,80.3c-32.5,11.8-55.6,42-55.6,77.4  c0,16.5,5.1,31.9,13.7,44.9c15.3,22.8,41.9,38,72.3,38h144.3c30.3,0,56.9-15.1,72.3-38c8.7-12.9,13.7-28.3,13.7-44.9  C411.1,217.2,388,187,355.5,175.2z"/>
<polygon style="fill:#FFFFFF;" points="287,215.2 173.9,215.2 173.9,411.1 332.1,411.1 332.1,260.2 "/>
<polygon style="fill:#ACB3BA;" points="287,260.2 332.1,260.2 287,215.2 "/>
<rect x="203.1" y="250.6" style="fill:#FF7058;" width="57.5" height="10.2"/>
<g>
	<rect x="203.1" y="288.1" style="fill:#CED5E0;" width="99.7" height="10.2"/>
	<rect x="203.1" y="325.7" style="fill:#CED5E0;" width="99.7" height="10.2"/>
	<rect x="203.1" y="363.3" style="fill:#CED5E0;" width="99.7" height="10.2"/>
</g>
<g>
</g>
<g>
</g>
<g>
</g>
<g>
</g>
<g>
</g>
<g>
</g>
<g>
</g>
<g>
</g>
<g>
</g>
<g>
</g>
<g>
</g>
<g>
</g>
<g>
</g>
<g>
</g>
<g>
</g>
</svg>
