<?xml version="1.0" encoding="iso-8859-1"?>
<!-- Generator: Adobe Illustrator 19.0.0, SVG Export Plug-In . SVG Version: 6.00 Build 0)  -->
<svg xmlns="http://www.w3.org/2000/svg" xmlns:xlink="http://www.w3.org/1999/xlink" version="1.1" id="Layer_1" x="0px" y="0px" viewBox="0 0 506 506" style="enable-background:new 0 0 506 506;" xml:space="preserve">
<circle style="fill:#324A5E;" cx="253" cy="253" r="253"/>
<path style="fill:#FFFFFF;" d="M355.5,181c-9.8-47.1-52-82.6-102.5-82.6s-92.6,35.4-102.5,82.6c-32.5,12.2-55.6,43.2-55.6,79.6  c0,17,5.1,32.8,13.7,46.1c15.3,23.5,41.9,39,72.3,39h144.3c30.3,0,56.9-15.6,72.3-39c8.7-13.3,13.7-29.1,13.7-46.1  C411.1,224.2,388,193.2,355.5,181z"/>
<path style="fill:#ACB3BA;" d="M324.7,238.8H181.3c-7,0-12.6,5.7-12.6,12.6v143.5c0,7,5.7,12.6,12.6,12.6h143.5  c7,0,12.6-5.7,12.6-12.6V251.4C337.4,244.5,331.7,238.8,324.7,238.8z"/>
<polygon style="fill:#324A5E;" points="317,259.1 189,259.1 189,348.8 211.7,348.8 211.7,368.2 231.2,368.2 231.2,387.2   274.8,387.2 274.8,368.2 294.3,368.2 294.3,348.8 317,348.8 "/>
<g>
	<rect x="203.4" y="272.5" style="fill:#FFD05B;" width="13.3" height="25.3"/>
	<rect x="232" y="272.5" style="fill:#FFD05B;" width="13.3" height="25.3"/>
	<rect x="260.7" y="272.5" style="fill:#FFD05B;" width="13.3" height="25.3"/>
	<rect x="289.3" y="272.5" style="fill:#FFD05B;" width="13.3" height="25.3"/>
</g>
<g>
</g>
<g>
</g>
<g>
</g>
<g>
</g>
<g>
</g>
<g>
</g>
<g>
</g>
<g>
</g>
<g>
</g>
<g>
</g>
<g>
</g>
<g>
</g>
<g>
</g>
<g>
</g>
<g>
</g>
</svg>
