<?xml version="1.0" encoding="iso-8859-1"?>
<!-- Generator: Adobe Illustrator 19.0.0, SVG Export Plug-In . SVG Version: 6.00 Build 0)  -->
<svg xmlns="http://www.w3.org/2000/svg" xmlns:xlink="http://www.w3.org/1999/xlink" version="1.1" id="Layer_1" x="0px" y="0px" viewBox="0 0 499.2 499.2" style="enable-background:new 0 0 499.2 499.2;" xml:space="preserve">
<circle style="fill:#84DBFF;" cx="249.6" cy="249.6" r="249.6"/>
<path style="fill:#FFFFFF;" d="M355.2,169.5c-10.2-47.3-53.6-82.8-105.6-82.8s-95.4,35.5-105.6,82.7c-33.4,12.2-57.3,43.3-57.3,79.8  c0,17,5.2,32.9,14.1,46.2c15.8,23.5,43.2,39.1,74.4,39.1h148.6c31.2,0,58.7-15.6,74.4-39.1c8.9-13.3,14.1-29.2,14.1-46.2  C412.5,212.7,388.6,181.6,355.2,169.5z"/>
<polygon style="fill:#324A5E;" points="344.2,241.1 155,241.1 155,382.8 213.2,382.8 197.9,412.5 301.3,412.5 286,382.8   344.2,382.8 "/>
<rect x="168.9" y="255" style="fill:#ACB3BA;" width="161.3" height="113.9"/>
<g>
</g>
<g>
</g>
<g>
</g>
<g>
</g>
<g>
</g>
<g>
</g>
<g>
</g>
<g>
</g>
<g>
</g>
<g>
</g>
<g>
</g>
<g>
</g>
<g>
</g>
<g>
</g>
<g>
</g>
</svg>
