<?xml version="1.0" encoding="iso-8859-1"?>
<!-- Generator: Adobe Illustrator 19.0.0, SVG Export Plug-In . SVG Version: 6.00 Build 0)  -->
<svg xmlns="http://www.w3.org/2000/svg" xmlns:xlink="http://www.w3.org/1999/xlink" version="1.1" id="Layer_1" x="0px" y="0px" viewBox="0 0 506 506" style="enable-background:new 0 0 506 506;" xml:space="preserve">
<circle style="fill:#90DFAA;" cx="253" cy="253" r="253"/>
<rect x="130.1" y="128.3" style="fill:#324A5E;" width="245.7" height="208.7"/>
<rect x="150.2" y="148.3" style="fill:#ACB3BA;" width="205.6" height="168.7"/>
<path style="fill:#2B3B4E;" d="M94.9,336.6c0,19.6,15.9,35.4,35.6,35.4h245.1c19.7,0,35.6-15.9,35.6-35.4H94.9z"/>
<path style="fill:#E6E9EE;" d="M270,351.2h-34c-1.7,0-3.2,1.4-3.2,3.2c0,1.7,1.4,3.2,3.2,3.2h34c1.7,0,3.2-1.4,3.2-3.2  C273.1,352.6,271.7,351.2,270,351.2z"/>
<path style="fill:#FFFFFF;" d="M301.7,223.8c0-0.2,0-0.4,0-0.7c0-17.2-13.9-31.1-31.1-31.1c-3.5,0-6.8,0.6-10,1.7  c-6.3-8.4-16.3-13.8-27.6-13.8c-19.1,0-34.6,15.5-34.6,34.6c0,3.7,0.6,7.2,1.6,10.5c-11.9,4.4-20.4,15.8-20.4,29.2  c0,17.2,13.9,31.1,31.1,31.1s67.3,0,84.5,0s31.1-13.9,31.1-31.1C326.3,239.3,315.8,226.8,301.7,223.8z"/>
<g>
</g>
<g>
</g>
<g>
</g>
<g>
</g>
<g>
</g>
<g>
</g>
<g>
</g>
<g>
</g>
<g>
</g>
<g>
</g>
<g>
</g>
<g>
</g>
<g>
</g>
<g>
</g>
<g>
</g>
</svg>
