<?xml version="1.0" encoding="iso-8859-1"?>
<!-- Generator: Adobe Illustrator 19.0.0, SVG Export Plug-In . SVG Version: 6.00 Build 0)  -->
<svg xmlns="http://www.w3.org/2000/svg" xmlns:xlink="http://www.w3.org/1999/xlink" version="1.1" id="Layer_1" x="0px" y="0px" viewBox="0 0 499.2 499.2" style="enable-background:new 0 0 499.2 499.2;" xml:space="preserve">
<circle style="fill:#324A5E;" cx="249.6" cy="249.6" r="249.6"/>
<path style="fill:#FFFFFF;" d="M203.6,292.9H191c0-6.8-7.6-12.4-16.8-12.4h-24.1c-29.6,0-53.7-18.3-53.7-40.7v-1.5  c0-22.5,24.1-40.7,53.7-40.7h4.3v10.1h-4.3c-22.7,0-41.1,13.7-41.1,30.6v1.5c0,16.9,18.4,30.6,41.1,30.6h24.1  C190.4,270.4,203.6,280.5,203.6,292.9z"/>
<path style="fill:#E6E9EE;" d="M317.7,393.9H94.8c-0.6,0-1.2-0.5-1.2-1.2v-98.6c0-0.6,0.5-1.2,1.2-1.2h222.9c0.6,0,1.2,0.5,1.2,1.2  v98.6C318.9,393.3,318.4,393.9,317.7,393.9z"/>
<rect x="103.6" y="299.9" style="fill:#F1543F;" width="17.8" height="10.3"/>
<g>
	<rect x="134.9" y="299.9" style="fill:#ACB3BA;" width="17.8" height="10.3"/>
	<rect x="166.1" y="299.9" style="fill:#ACB3BA;" width="17.8" height="10.3"/>
	<rect x="197.4" y="299.9" style="fill:#ACB3BA;" width="17.8" height="10.3"/>
	<rect x="228.6" y="299.9" style="fill:#ACB3BA;" width="17.8" height="10.3"/>
	<rect x="259.8" y="299.9" style="fill:#ACB3BA;" width="17.8" height="10.3"/>
	<rect x="291.1" y="299.9" style="fill:#ACB3BA;" width="17.8" height="10.3"/>
	<rect x="145.7" y="353.3" style="fill:#ACB3BA;" width="16.1" height="15"/>
	<rect x="166.7" y="353.3" style="fill:#ACB3BA;" width="16.1" height="15"/>
	<rect x="187.7" y="353.3" style="fill:#ACB3BA;" width="16.1" height="15"/>
	<rect x="208.8" y="353.3" style="fill:#ACB3BA;" width="16.1" height="15"/>
	<rect x="229.8" y="353.3" style="fill:#ACB3BA;" width="16.1" height="15"/>
	<rect x="250.8" y="353.3" style="fill:#ACB3BA;" width="16.1" height="15"/>
	<rect x="103.6" y="353.3" style="fill:#ACB3BA;" width="16.1" height="15"/>
	<rect x="124.7" y="353.3" style="fill:#ACB3BA;" width="16.1" height="15"/>
	<rect x="145.7" y="334.8" style="fill:#ACB3BA;" width="16.1" height="15"/>
	<rect x="166.7" y="334.8" style="fill:#ACB3BA;" width="16.1" height="15"/>
	<rect x="187.7" y="334.8" style="fill:#ACB3BA;" width="16.1" height="15"/>
	<rect x="208.8" y="334.8" style="fill:#ACB3BA;" width="16.1" height="15"/>
	<rect x="229.8" y="334.8" style="fill:#ACB3BA;" width="16.1" height="15"/>
	<rect x="250.8" y="334.8" style="fill:#ACB3BA;" width="16.1" height="15"/>
	<rect x="103.6" y="334.8" style="fill:#ACB3BA;" width="16.1" height="15"/>
	<rect x="124.7" y="334.8" style="fill:#ACB3BA;" width="16.1" height="15"/>
	<rect x="271.8" y="334.8" style="fill:#ACB3BA;" width="16.1" height="15"/>
	<rect x="145.7" y="316.2" style="fill:#ACB3BA;" width="16.1" height="15"/>
	<rect x="166.7" y="316.2" style="fill:#ACB3BA;" width="16.1" height="15"/>
	<rect x="187.7" y="316.2" style="fill:#ACB3BA;" width="16.1" height="15"/>
	<rect x="208.8" y="316.2" style="fill:#ACB3BA;" width="16.1" height="15"/>
	<rect x="229.8" y="316.2" style="fill:#ACB3BA;" width="16.1" height="15"/>
	<rect x="250.8" y="316.2" style="fill:#ACB3BA;" width="16.1" height="15"/>
	<rect x="103.6" y="316.2" style="fill:#ACB3BA;" width="16.1" height="15"/>
	<rect x="124.7" y="316.2" style="fill:#ACB3BA;" width="16.1" height="15"/>
	<rect x="271.8" y="316.2" style="fill:#ACB3BA;" width="16.1" height="15"/>
	<rect x="292.8" y="316.2" style="fill:#ACB3BA;" width="16.1" height="15"/>
	<polygon style="fill:#ACB3BA;" points="292.8,334.8 292.8,353.3 271.8,353.3 271.8,368.3 308.9,368.3 308.9,353.3 308.9,334.8  "/>
	<rect x="103.6" y="371.9" style="fill:#ACB3BA;" width="16.1" height="15"/>
	<rect x="124.7" y="371.9" style="fill:#ACB3BA;" width="16.1" height="15"/>
	<rect x="145.7" y="371.9" style="fill:#ACB3BA;" width="16.1" height="15"/>
	<rect x="250.8" y="371.9" style="fill:#ACB3BA;" width="16.1" height="15"/>
	<rect x="271.8" y="371.9" style="fill:#ACB3BA;" width="16.1" height="15"/>
	<rect x="292.8" y="371.9" style="fill:#ACB3BA;" width="16.1" height="15"/>
</g>
<rect x="166.7" y="371.9" style="fill:#324A5E;" width="79.1" height="15"/>
<path style="fill:#4CDBC4;" d="M349.9,141.5c0-30.5-24.9-55.2-55.7-55.2c-12.3,0-23.7,4-32.9,10.7c-10-9.3-23.4-15-38.2-15  c-30.8,0-55.7,24.7-55.7,55.2c0,3.8,0.4,7.5,1.1,11.1c-17.3,9.4-29,27.6-29,48.4c0,30.5,24.9,55.2,55.7,55.2s123.9,0,154.6,0  c30.8,0,55.7-24.7,55.7-55.2C405.6,166.2,380.6,141.5,349.9,141.5z"/>
<g>
</g>
<g>
</g>
<g>
</g>
<g>
</g>
<g>
</g>
<g>
</g>
<g>
</g>
<g>
</g>
<g>
</g>
<g>
</g>
<g>
</g>
<g>
</g>
<g>
</g>
<g>
</g>
<g>
</g>
</svg>
