<?xml version="1.0" encoding="iso-8859-1"?>
<!-- Generator: Adobe Illustrator 19.0.0, SVG Export Plug-In . SVG Version: 6.00 Build 0)  -->
<svg xmlns="http://www.w3.org/2000/svg" xmlns:xlink="http://www.w3.org/1999/xlink" version="1.1" id="Layer_1" x="0px" y="0px" viewBox="0 0 499.2 499.2" style="enable-background:new 0 0 499.2 499.2;" xml:space="preserve">
<circle style="fill:#90DFAA;" cx="249.6" cy="249.6" r="249.6"/>
<rect x="105.3" y="164.5" style="fill:#324A5E;" width="118.5" height="233.2"/>
<g>
	<path style="fill:#FFFFFF;" d="M384.8,130.5c-5.7-25.5-30.4-44.7-59.9-44.7S270.8,105,265,130.5c-19,6.6-32.5,23.4-32.5,43.1   c0,9.2,3,17.8,8,25c8.9,12.7,24.5,21.1,42.2,21.1H367c17.7,0,33.3-8.4,42.2-21.1c5.1-7.2,8-15.8,8-25   C417.3,153.8,403.7,137.1,384.8,130.5z"/>
	<rect x="119.3" y="179.7" style="fill:#FFFFFF;" width="90.6" height="29.2"/>
	<rect x="119.3" y="219.6" style="fill:#FFFFFF;" width="90.6" height="14.6"/>
</g>
<g>
	<rect x="155.4" y="328.3" style="fill:#2B3B4E;" width="4" height="57"/>
	<rect x="119.3" y="328.4" style="fill:#2B3B4E;" width="3.9" height="57"/>
	<rect x="131.3" y="328.4" style="fill:#2B3B4E;" width="3.9" height="57"/>
	<rect x="143.4" y="328.4" style="fill:#2B3B4E;" width="4" height="57"/>
	<rect x="203.7" y="328.3" style="fill:#2B3B4E;" width="3.9" height="57"/>
	<rect x="167.5" y="328.4" style="fill:#2B3B4E;" width="4" height="57"/>
	<rect x="179.5" y="328.4" style="fill:#2B3B4E;" width="4" height="57"/>
	<rect x="191.6" y="328.4" style="fill:#2B3B4E;" width="3.9" height="57"/>
</g>
<ellipse style="fill:#FFFFFF;" cx="164.6" cy="292.5" rx="16.6" ry="16.6"/>
<ellipse style="fill:#F1543F;" cx="164.6" cy="292.5" rx="8.2" ry="8.2"/>
<polygon style="fill:#FF7058;" points="301.2,320.7 325.2,296.8 313.7,296.8 313.7,265.1 288.7,265.1 288.7,296.8 277.3,296.8 "/>
<polygon style="fill:#324A5E;" points="360.7,238.3 336.7,262.2 348.2,262.2 348.2,294 373.2,294 373.2,262.2 384.7,262.2 "/>
<g>
</g>
<g>
</g>
<g>
</g>
<g>
</g>
<g>
</g>
<g>
</g>
<g>
</g>
<g>
</g>
<g>
</g>
<g>
</g>
<g>
</g>
<g>
</g>
<g>
</g>
<g>
</g>
<g>
</g>
</svg>
