<?xml version="1.0" encoding="iso-8859-1"?>
<!-- Generator: Adobe Illustrator 19.0.0, SVG Export Plug-In . SVG Version: 6.00 Build 0)  -->
<svg xmlns="http://www.w3.org/2000/svg" xmlns:xlink="http://www.w3.org/1999/xlink" version="1.1" id="Layer_1" x="0px" y="0px" viewBox="0 0 499.2 499.2" style="enable-background:new 0 0 499.2 499.2;" xml:space="preserve">
<circle style="fill:#FFD05B;" cx="249.6" cy="249.6" r="249.6"/>
<path style="fill:#FFFFFF;" d="M350.7,171.7c-9.7-48.8-51.3-85.5-101.1-85.5s-91.4,36.7-101.1,85.5c-32,12.6-54.9,44.7-54.9,82.4  c0,17.6,5,34,13.5,47.8c15.1,24.3,41.4,40.4,71.3,40.4h142.3c29.9,0,56.2-16.1,71.3-40.4c8.6-13.8,13.5-30.2,13.5-47.8  C405.6,216.4,382.7,184.3,350.7,171.7z"/>
<path style="fill:#324A5E;" d="M274.3,360.3v-85.9c10.7-7.7,17.6-20.2,17.6-34.3c0-16.3-9.2-30.4-22.7-37.5v34h-39.1v-34  c-13.5,7.1-22.7,21.2-22.7,37.5c0,14.1,7,26.6,17.6,34.3v85.9c-10.7,7.7-17.6,20.2-17.6,34.3c0,16.3,9.2,30.4,22.7,37.5v-34h39.1v34  c13.5-7.1,22.7-21.2,22.7-37.5C291.9,380.4,284.9,367.9,274.3,360.3z"/>
<g>
</g>
<g>
</g>
<g>
</g>
<g>
</g>
<g>
</g>
<g>
</g>
<g>
</g>
<g>
</g>
<g>
</g>
<g>
</g>
<g>
</g>
<g>
</g>
<g>
</g>
<g>
</g>
<g>
</g>
</svg>
