<?xml version="1.0" encoding="iso-8859-1"?>
<!-- Generator: Adobe Illustrator 19.0.0, SVG Export Plug-In . SVG Version: 6.00 Build 0)  -->
<svg xmlns="http://www.w3.org/2000/svg" xmlns:xlink="http://www.w3.org/1999/xlink" version="1.1" id="Layer_1" x="0px" y="0px" viewBox="0 0 499.2 499.2" style="enable-background:new 0 0 499.2 499.2;" xml:space="preserve">
<circle style="fill:#FD8469;" cx="249.6" cy="249.6" r="249.6"/>
<path style="fill:#FFFFFF;" d="M340.2,167.3c0-35.7-29.2-64.7-65.3-64.7c-14.5,0-27.8,4.7-38.6,12.6c-11.7-10.9-27.4-17.6-44.7-17.6  c-36.1,0-65.3,29-65.3,64.7c0,4.4,0.5,8.8,1.3,13c-20.2,11-34,32.3-34,56.7c0,35.7,29.2,64.7,65.3,64.7s145.2,0,181.3,0  s65.3-29,65.3-64.7S376.3,167.3,340.2,167.3z"/>
<path style="fill:#324A5E;" d="M258.2,223.5c2.1-7,8.5-12.1,16.1-12.1h13.6c15.9,0,28.9-13,28.9-28.9s-13-28.9-28.9-28.9h-44.7  c-15.5,0-28.2-12.6-28.2-28.2V72.3h-15.6v53.2c0,24.1,19.6,43.8,43.8,43.8h44.7c7.3,0,13.3,6,13.3,13.3s-6,13.3-13.3,13.3h-13.6  c-16.2,0-29.7,12-32.1,27.5c-36.1,3.7-64.3,34.2-64.3,71.3V353c0,39.6,32.1,71.7,71.7,71.7l0,0c39.6,0,71.7-32.1,71.7-71.7v-58.4  C321.3,257.9,293.7,227.7,258.2,223.5z"/>
<path style="fill:#CED5E0;" d="M249.6,251.1c-5,0-9,4-9,9v27.1c0,5,4,9,9,9s9-4,9-9v-27.1C258.6,255.2,254.6,251.1,249.6,251.1z"/>
<g>
</g>
<g>
</g>
<g>
</g>
<g>
</g>
<g>
</g>
<g>
</g>
<g>
</g>
<g>
</g>
<g>
</g>
<g>
</g>
<g>
</g>
<g>
</g>
<g>
</g>
<g>
</g>
<g>
</g>
</svg>
