<?xml version="1.0" encoding="iso-8859-1"?>
<!-- Generator: Adobe Illustrator 19.0.0, SVG Export Plug-In . SVG Version: 6.00 Build 0)  -->
<svg xmlns="http://www.w3.org/2000/svg" xmlns:xlink="http://www.w3.org/1999/xlink" version="1.1" id="Layer_1" x="0px" y="0px" viewBox="0 0 506 506" style="enable-background:new 0 0 506 506;" xml:space="preserve">
<circle style="fill:#FFD05B;" cx="253" cy="253" r="253"/>
<path style="fill:#FFFFFF;" d="M373.1,211.2c4.4-8.4,6.9-18,6.9-28.1c0-33.8-27.4-61.1-61.1-61.1c-13.2,0-25.4,4.2-35.4,11.3  c-4.6-29.3-29.8-51.7-60.3-51.7c-33.2,0-60.2,26.5-61.1,59.5c-24.9,7.7-43,31-43,58.4c0,5.3,0.8,10.5,2,15.5  c-21.7,9.4-36.8,31-36.8,56.1c0,33.8,27.4,61.1,61.1,61.1c33.8,0,181.2,0,215,0s61.1-27.4,61.1-61.1  C421.6,241.6,400.8,217.1,373.1,211.2z"/>
<path style="fill:#FF7058;" d="M267.9,416.3V290.7c19.8-6.3,34.2-24.9,34.2-46.8c0-27.2-22-49.2-49.2-49.2s-49.2,22-49.2,49.2  c0,21.9,14.4,40.5,34.2,46.8v2.9c0,1.9,1,3.8,2.8,5.1l7,5.1c3.8,2.7,3.8,7.4,0,10.1l-6.5,4.7c-2.1,1.5-3.3,3.6-3.3,5.9  c0,2.2,1.2,4.4,3.3,5.9l5.4,3.9c4.4,3.2,4.4,8.6,0,11.8l-5.4,3.9c-2.1,1.5-3.3,3.6-3.3,5.9s1.2,4.4,3.3,5.9l5.4,3.9  c4.4,3.2,4.4,8.6,0,11.8l-5.4,3.9c-2.1,1.5-3.3,3.6-3.3,5.9c0,2.2,1.2,4.4,3.3,5.9l5.4,3.9c4.4,3.2,4.4,8.6,0,11.8l-2.1,1.5  c-3.3,2.4-3,6.7,0.7,8.7l6.9,3.8C258.9,426.6,267.9,422.8,267.9,416.3z M239.4,222.8c0-7.5,6.1-13.6,13.6-13.6s13.6,6.1,13.6,13.6  s-6.1,13.6-13.6,13.6S239.4,230.3,239.4,222.8z"/>
<g>
</g>
<g>
</g>
<g>
</g>
<g>
</g>
<g>
</g>
<g>
</g>
<g>
</g>
<g>
</g>
<g>
</g>
<g>
</g>
<g>
</g>
<g>
</g>
<g>
</g>
<g>
</g>
<g>
</g>
</svg>
