<?xml version="1.0" encoding="iso-8859-1"?>
<!-- Generator: Adobe Illustrator 19.0.0, SVG Export Plug-In . SVG Version: 6.00 Build 0)  -->
<svg xmlns="http://www.w3.org/2000/svg" xmlns:xlink="http://www.w3.org/1999/xlink" version="1.1" id="Layer_1" x="0px" y="0px" viewBox="0 0 506 506" style="enable-background:new 0 0 506 506;" xml:space="preserve">
<circle style="fill:#84DBFF;" cx="253" cy="253" r="253"/>
<path style="fill:#FFFFFF;" d="M356.5,194.2c1-5,1.5-10.1,1.5-15.3c0-46.4-40.7-84-90.8-84c-31.6,0-59.5,15-75.8,37.7  c-1.2-0.1-2.4-0.2-3.7-0.2c-36.3,0-65.8,27.2-65.8,60.9c0,3.7,0.4,7.4,1.1,11c-17,11-28.2,29.2-28.2,49.9  c0,33.6,29.5,60.9,65.8,60.9s151.3,0,184.7,0c36.3,0,65.8-27.2,65.8-60.9C411.1,224,387.5,199.1,356.5,194.2z"/>
<path style="fill:#324A5E;" d="M314.6,229.1H169c-2.8,0-5.1,2.3-5.1,5.1V406c0,2.8,2.3,5.1,5.1,5.1h168c2.8,0,5.1-2.3,5.1-5.1V256.5  c0-1.4-0.5-2.6-1.5-3.6l-22.4-22.4C317.3,229.6,316,229.1,314.6,229.1z"/>
<rect x="198.3" y="229.1" style="fill:#E6E9EE;" width="109.3" height="60.3"/>
<rect x="279.6" y="239.3" style="fill:#ACB3BA;" width="16.2" height="39.9"/>
<circle style="fill:#CED5E0;" cx="253" cy="332.7" r="26.4"/>
<circle style="fill:#ACB3BA;" cx="253" cy="332.7" r="6.7"/>
<g>
</g>
<g>
</g>
<g>
</g>
<g>
</g>
<g>
</g>
<g>
</g>
<g>
</g>
<g>
</g>
<g>
</g>
<g>
</g>
<g>
</g>
<g>
</g>
<g>
</g>
<g>
</g>
<g>
</g>
</svg>
