<?xml version="1.0" encoding="iso-8859-1"?>
<!-- Generator: Adobe Illustrator 19.0.0, SVG Export Plug-In . SVG Version: 6.00 Build 0)  -->
<svg xmlns="http://www.w3.org/2000/svg" xmlns:xlink="http://www.w3.org/1999/xlink" version="1.1" id="Layer_1" x="0px" y="0px" viewBox="0 0 506 506" style="enable-background:new 0 0 506 506;" xml:space="preserve">
<circle style="fill:#324A5E;" cx="253" cy="253" r="253"/>
<path style="fill:#FFD05B;" d="M114.3,230.9c7.2-58.2,37.2-100.3,91.3-123.4c55.8-23.9,130.5-16.4,186.9,46.3  c5.5-2.9,11.1-5.8,18.7-9.7c0,16.4,0,31.3,0,46.2c0,14.7,0,29.4,0,46.3c-27.4-15.7-53.3-30.5-80.6-46.1c7-4.5,12.8-8.3,18.6-12  c-18.6-34.2-70.8-59-112.8-54C174.9,131.6,132.2,169.2,114.3,230.9z"/>
<path style="fill:#FF7058;" d="M267.3,381c-46.4,4.3-84.2-14.8-112.8-53.1c6.8-4.3,12.7-8,19.8-12.5c-27.2-15.6-53.1-30.4-79.4-45.5  c0,31.3,0,60.8,0,91.3c6.6-3.5,11.9-6.3,17.4-9.3c52.2,54.5,113.8,74.7,185.5,46.6c55.7-21.8,85.7-65.5,93-124.1  C372.1,335.8,332.9,374.8,267.3,381z"/>
<path style="fill:#4CDBC4;" d="M324.1,219.8c0-24.2-19.8-43.9-44.3-43.9c-9.8,0-18.8,3.2-26.1,8.5c-7.9-7.4-18.6-12-30.3-12  c-24.4,0-44.3,19.6-44.3,43.9c0,3,0.3,6,0.9,8.8c-13.7,7.4-23,21.9-23,38.5c0,24.2,19.8,43.9,44.3,43.9c24.4,0,98.4,0,122.8,0  s44.3-19.6,44.3-43.9C368.4,239.5,348.5,219.8,324.1,219.8z"/>
<g>
</g>
<g>
</g>
<g>
</g>
<g>
</g>
<g>
</g>
<g>
</g>
<g>
</g>
<g>
</g>
<g>
</g>
<g>
</g>
<g>
</g>
<g>
</g>
<g>
</g>
<g>
</g>
<g>
</g>
</svg>
