<?xml version="1.0" encoding="iso-8859-1"?>
<!-- Generator: Adobe Illustrator 19.0.0, SVG Export Plug-In . SVG Version: 6.00 Build 0)  -->
<svg xmlns="http://www.w3.org/2000/svg" xmlns:xlink="http://www.w3.org/1999/xlink" version="1.1" id="Layer_1" x="0px" y="0px" viewBox="0 0 506 506" style="enable-background:new 0 0 506 506;" xml:space="preserve">
<circle style="fill:#90DFAA;" cx="253" cy="253" r="253"/>
<path style="fill:#324A5E;" d="M331.1,411.1H125.7c-1.7,0-3.1-1.4-3.1-3.1V98c0-1.7,1.4-3.1,3.1-3.1h205.5c1.7,0,3.1,1.4,3.1,3.1  v310C334.3,409.7,332.9,411.1,331.1,411.1z"/>
<rect x="146" y="121.8" style="fill:#E6E9EE;" width="164.9" height="233.3"/>
<ellipse style="fill:#2B3B4E;" cx="228.4" cy="383" rx="17.7" ry="17.5"/>
<path style="fill:#FF7058;" d="M387.5,201.6c0-28.1-23-50.9-51.3-50.9c-11.4,0-21.8,3.7-30.3,9.9c-9.2-8.6-21.5-13.9-35.2-13.9  c-28.4,0-51.3,22.8-51.3,50.9c0,3.5,0.4,6.9,1,10.2c-15.9,8.6-26.7,25.4-26.7,44.6c0,28.1,23,50.9,51.3,50.9s114.1,0,142.5,0  s51.3-22.8,51.3-50.9S415.8,201.6,387.5,201.6z"/>
<g>
</g>
<g>
</g>
<g>
</g>
<g>
</g>
<g>
</g>
<g>
</g>
<g>
</g>
<g>
</g>
<g>
</g>
<g>
</g>
<g>
</g>
<g>
</g>
<g>
</g>
<g>
</g>
<g>
</g>
</svg>
