<?xml version="1.0" encoding="iso-8859-1"?>
<!-- Generator: Adobe Illustrator 19.0.0, SVG Export Plug-In . SVG Version: 6.00 Build 0)  -->
<svg xmlns="http://www.w3.org/2000/svg" xmlns:xlink="http://www.w3.org/1999/xlink" version="1.1" id="Layer_1" x="0px" y="0px" viewBox="0 0 506 506" style="enable-background:new 0 0 506 506;" xml:space="preserve">
<circle style="fill:#324A5E;" cx="253" cy="253" r="253"/>
<path style="fill:#FFFFFF;" d="M149.5,193.3c-1-4.9-1.5-10-1.5-15.2c0-46,40.7-83.3,90.8-83.3c31.6,0,59.5,14.9,75.8,37.4  c1.2-0.1,2.4-0.2,3.7-0.2c36.3,0,65.8,27,65.8,60.3c0,3.7-0.4,7.3-1.1,10.9c17,10.9,28.2,29,28.2,49.5c0,33.3-29.5,60.3-65.8,60.3  s-151.3,0-184.7,0c-36.3,0-65.8-27-65.8-60.3C94.9,222.9,118.5,198.2,149.5,193.3z"/>
<rect x="172.6" y="246.7" style="fill:#E6E9EE;" width="164.8" height="109.4"/>
<rect x="188.5" y="262.4" style="fill:#54C0EB;" width="133.1" height="78.1"/>
<path style="fill:#CED5E0;" d="M367.1,398.2H143c-2.7,0-4.2-3.2-2.4-5.3l31.1-35.7c0.6-0.7,1.5-1.1,2.4-1.1H336  c0.9,0,1.8,0.4,2.4,1.1l31.1,35.7C371.3,395,369.8,398.2,367.1,398.2z"/>
<g>
</g>
<g>
</g>
<g>
</g>
<g>
</g>
<g>
</g>
<g>
</g>
<g>
</g>
<g>
</g>
<g>
</g>
<g>
</g>
<g>
</g>
<g>
</g>
<g>
</g>
<g>
</g>
<g>
</g>
</svg>
