<?xml version="1.0" encoding="iso-8859-1"?>
<!-- Generator: Adobe Illustrator 19.0.0, SVG Export Plug-In . SVG Version: 6.00 Build 0)  -->
<svg xmlns="http://www.w3.org/2000/svg" xmlns:xlink="http://www.w3.org/1999/xlink" version="1.1" id="Layer_1" x="0px" y="0px" viewBox="0 0 506 506" style="enable-background:new 0 0 506 506;" xml:space="preserve">
<circle style="fill:#FF7058;" cx="253" cy="253" r="253"/>
<path style="fill:#FFFFFF;" d="M354.7,174.5c-9.8-46.2-51.8-81-102.2-81s-92.4,34.7-102.2,81c-32.4,11.9-55.5,42.3-55.5,78.1  c0,46.1,38.4,83.5,85.7,83.5h143.8c47.3,0,85.7-37.4,85.7-83.5C410.1,216.9,387,186.5,354.7,174.5z"/>
<path style="fill:#324A5E;" d="M330.9,206.4c-32.6,0-59.2,25.7-60.4,57.7h15.3c1.2-23.6,20.9-42.5,45.1-42.5  c24.9,0,45.2,20.1,45.2,44.8v33.8h15.3v-33.8C391.4,233.4,364.3,206.4,330.9,206.4z"/>
<rect x="250.6" y="297.2" style="fill:#FFD05B;" width="160.5" height="112.6"/>
<path style="fill:#324A5E;" d="M347.7,341.5c0-9.2-7.5-16.7-16.8-16.7s-16.8,7.5-16.8,16.7c0,6.8,4.1,12.6,10,15.2l-1.7,26.5h17.2  l-1.7-26.5C343.6,354.1,347.7,348.3,347.7,341.5z"/>
<g>
</g>
<g>
</g>
<g>
</g>
<g>
</g>
<g>
</g>
<g>
</g>
<g>
</g>
<g>
</g>
<g>
</g>
<g>
</g>
<g>
</g>
<g>
</g>
<g>
</g>
<g>
</g>
<g>
</g>
</svg>
