<?xml version="1.0" encoding="iso-8859-1"?>
<!-- Generator: Adobe Illustrator 19.0.0, SVG Export Plug-In . SVG Version: 6.00 Build 0)  -->
<svg xmlns="http://www.w3.org/2000/svg" xmlns:xlink="http://www.w3.org/1999/xlink" version="1.1" id="Layer_1" x="0px" y="0px" viewBox="0 0 506 506" style="enable-background:new 0 0 506 506;" xml:space="preserve">
<circle style="fill:#90DFAA;" cx="253" cy="253" r="253"/>
<path style="fill:#324A5E;" d="M361.5,202.8c-10.4-48.5-55.1-85.1-108.5-85.1c-53.5,0-98.1,36.5-108.5,85.1  c-34.4,12.5-58.9,44.5-58.9,82c0,17.5,5.4,33.8,14.5,47.5c16.2,24.2,44.4,40.2,76.5,40.2h152.8c32.1,0,60.3-16,76.5-40.2  c9.2-13.7,14.5-30,14.5-47.5C420.5,247.2,395.9,215.3,361.5,202.8z"/>
<circle style="fill:#FFFFFF;" cx="253" cy="274.4" r="58.6"/>
<polygon style="fill:#F1543F;" points="235.4,235.3 235.4,313.5 291.3,274.4 "/>
<g>
</g>
<g>
</g>
<g>
</g>
<g>
</g>
<g>
</g>
<g>
</g>
<g>
</g>
<g>
</g>
<g>
</g>
<g>
</g>
<g>
</g>
<g>
</g>
<g>
</g>
<g>
</g>
<g>
</g>
</svg>
