<?xml version="1.0" encoding="iso-8859-1"?>
<!-- Generator: Adobe Illustrator 19.0.0, SVG Export Plug-In . SVG Version: 6.00 Build 0)  -->
<svg xmlns="http://www.w3.org/2000/svg" xmlns:xlink="http://www.w3.org/1999/xlink" version="1.1" id="Layer_1" x="0px" y="0px" viewBox="0 0 506 506" style="enable-background:new 0 0 506 506;" xml:space="preserve">
<circle style="fill:#FFD05B;" cx="253" cy="253" r="253"/>
<path style="fill:#FFFFFF;" d="M361.5,191.3c1-5.2,1.6-10.6,1.6-16c0-48.7-42.6-88.1-95.3-88.1c-33.2,0-62.4,15.7-79.5,39.5  c-1.3-0.1-2.6-0.2-3.9-0.2c-38.1,0-69,28.6-69,63.8c0,3.9,0.4,7.8,1.2,11.5C98.7,213.3,87,232.5,87,254.1c0,35.3,30.9,63.8,69,63.8  s158.7,0,193.7,0c38.1,0,69-28.6,69-63.8C418.8,222.6,394.1,196.5,361.5,191.3z"/>
<path style="fill:#FF7058;" d="M268.5,323.4c23.1-8.4,40-35.1,40-66.7h-111c0,31.7,16.9,58.3,40,66.7c-23.1,8.4-40,35.1-40,66.7h111  C308.5,358.5,291.6,331.8,268.5,323.4z"/>
<g>
	<path style="fill:#84DBFF;" d="M211.7,286.3c6,14,16.2,24.8,28.6,29.4l12.7,4.6l12.7-4.6c12.5-4.5,22.6-15.4,28.6-29.4H211.7z"/>
	<path style="fill:#84DBFF;" d="M289.4,359.8c-18.4,0-33.4-14.4-34.4-32.5l-2-0.7l-2,0.7c-1.1,18.1-16.1,32.5-34.4,32.5   c-1.5,0-2.9-0.1-4.3-0.3c-3.1,6.8-5.2,14.4-6,22.4v22.6h93.5v-22.6c-0.9-8-2.9-15.6-6-22.4C292.3,359.7,290.9,359.8,289.4,359.8z"/>
</g>
<g>
	<path style="fill:#324A5E;" d="M196.2,256.7h113.5c7.9,0,14.3-6.4,14.3-14.3c0-7.9-6.4-14.3-14.3-14.3H196.2   c-7.9,0-14.3,6.4-14.3,14.3C181.9,250.3,188.3,256.7,196.2,256.7z"/>
	<path style="fill:#324A5E;" d="M309.8,390.2H196.2c-7.9,0-14.3,6.4-14.3,14.3s6.4,14.3,14.3,14.3h113.5c7.9,0,14.3-6.4,14.3-14.3   C324.1,396.6,317.7,390.2,309.8,390.2z"/>
</g>
<g>
</g>
<g>
</g>
<g>
</g>
<g>
</g>
<g>
</g>
<g>
</g>
<g>
</g>
<g>
</g>
<g>
</g>
<g>
</g>
<g>
</g>
<g>
</g>
<g>
</g>
<g>
</g>
<g>
</g>
</svg>
