<?xml version="1.0" encoding="iso-8859-1"?>
<!-- Generator: Adobe Illustrator 19.0.0, SVG Export Plug-In . SVG Version: 6.00 Build 0)  -->
<svg xmlns="http://www.w3.org/2000/svg" xmlns:xlink="http://www.w3.org/1999/xlink" version="1.1" id="Layer_1" x="0px" y="0px" viewBox="0 0 506 506" style="enable-background:new 0 0 506 506;" xml:space="preserve">
<circle style="fill:#FD8469;" cx="253" cy="253" r="253"/>
<polygon style="fill:#324A5E;" points="262.9,314.7 262.9,281.3 243.1,281.3 243.1,314.7 117.8,314.7 117.8,378.3 137.5,378.3   137.5,334.5 243.1,334.5 243.1,378.3 262.9,378.3 262.9,334.5 368.5,334.5 368.5,378.3 388.2,378.3 388.2,314.7 "/>
<rect x="99.4" y="354.8" style="fill:#CED5E0;" width="56.3" height="56.3"/>
<rect x="350.2" y="354.8" style="fill:#4CDBC4;" width="56.3" height="56.3"/>
<rect x="224.9" y="354.8" style="fill:#FFD05B;" width="56.3" height="56.3"/>
<path style="fill:#FFFFFF;" d="M357.9,177.4c0-0.4,0.1-0.8,0.1-1.3c0-32.3-30-58.5-67-58.5c-7.5,0-14.7,1.1-21.5,3.1  C255.9,105,234.3,94.8,210,94.8c-41.2,0-74.6,29.1-74.6,65.1c0,6.9,1.3,13.5,3.5,19.8c-25.7,8.2-44,29.6-44,54.9  c0,32.3,30,58.5,67,58.5s145.1,0,182.2,0s67-26.2,67-58.5C411.1,206.5,388.3,183,357.9,177.4z"/>
<g>
</g>
<g>
</g>
<g>
</g>
<g>
</g>
<g>
</g>
<g>
</g>
<g>
</g>
<g>
</g>
<g>
</g>
<g>
</g>
<g>
</g>
<g>
</g>
<g>
</g>
<g>
</g>
<g>
</g>
</svg>
