<?xml version="1.0" encoding="iso-8859-1"?>
<!-- Generator: Adobe Illustrator 19.0.0, SVG Export Plug-In . SVG Version: 6.00 Build 0)  -->
<svg xmlns="http://www.w3.org/2000/svg" xmlns:xlink="http://www.w3.org/1999/xlink" version="1.1" id="Layer_1" x="0px" y="0px" viewBox="0 0 506 506" style="enable-background:new 0 0 506 506;" xml:space="preserve">
<circle style="fill:#324A5E;" cx="253" cy="253" r="253"/>
<path style="fill:#FFFFFF;" d="M382,182.4L382,182.4c-0.1-28-22.8-50.7-50.8-50.7c-11.4,0-21.9,3.8-30.4,10.2  c-10.8-38.3-45.9-66.5-87.7-66.5c-50.3,0-91.1,40.8-91.1,91.1c0,5.4,0.6,10.7,1.5,15.9c-35.5,0.3-64.2,29.1-64.2,64.7  c0,35.8,29,64.8,64.8,64.8h258c35.8,0,64.8-29,64.8-64.8C446.7,211.4,417.8,182.4,382,182.4z"/>
<path style="fill:#54C0EB;" d="M208.8,347.2h-49.2c-2.6,0-4.7-2.1-4.7-4.7v-72.6c0-2.6,2.1-4.7,4.7-4.7h49.2V347.2z"/>
<path style="fill:#CED5E0;" d="M297.5,221l-88.7,44.2v82l88.7,44.2c10.9,5.4,23.8-2.5,23.8-14.7v-141  C321.3,223.5,308.4,215.6,297.5,221z"/>
<path style="fill:#54C0EB;" d="M321.3,276.3V336c16.5,0,29.9-13.4,29.9-29.9C351.1,289.7,337.7,276.3,321.3,276.3z"/>
<polygon style="fill:#CED5E0;" points="176.2,347.2 191,430.5 226.6,430.5 208.8,347.2 "/>
<g>
</g>
<g>
</g>
<g>
</g>
<g>
</g>
<g>
</g>
<g>
</g>
<g>
</g>
<g>
</g>
<g>
</g>
<g>
</g>
<g>
</g>
<g>
</g>
<g>
</g>
<g>
</g>
<g>
</g>
</svg>
