<?xml version="1.0" encoding="iso-8859-1"?>
<!-- Generator: Adobe Illustrator 19.0.0, SVG Export Plug-In . SVG Version: 6.00 Build 0)  -->
<svg xmlns="http://www.w3.org/2000/svg" xmlns:xlink="http://www.w3.org/1999/xlink" version="1.1" id="Layer_1" x="0px" y="0px" viewBox="0 0 506 506" style="enable-background:new 0 0 506 506;" xml:space="preserve">
<circle style="fill:#84DBFF;" cx="253" cy="253" r="253"/>
<path style="fill:#FFFFFF;" d="M356.5,194.2c1-5,1.5-10.1,1.5-15.3c0-46.4-40.7-84-90.8-84c-31.6,0-59.5,15-75.8,37.7  c-1.2-0.1-2.4-0.2-3.7-0.2c-36.3,0-65.8,27.2-65.8,60.9c0,3.7,0.4,7.4,1.1,11c-17,11-28.2,29.2-28.2,49.9  c0,33.6,29.4,60.9,65.8,60.9c36.3,0,151.3,0,184.7,0c36.3,0,65.8-27.2,65.8-60.9C411.1,224,387.5,199.1,356.5,194.2z"/>
<path style="fill:#324A5E;" d="M311.4,411.1H194.6c-1.4,0-2.5-1.1-2.5-2.5v-221c0-1.4,1.1-2.5,2.5-2.5h116.9c1.4,0,2.5,1.1,2.5,2.5  v221C313.9,410,312.8,411.1,311.4,411.1z"/>
<g>
	<rect x="207.7" y="202.8" style="fill:#FFFFFF;" width="90.6" height="27"/>
	<rect x="207.7" y="246.3" style="fill:#FFFFFF;" width="90.6" height="13.4"/>
	<circle style="fill:#FFFFFF;" cx="253" cy="323.8" r="17.8"/>
</g>
<circle style="fill:#F1543F;" cx="253" cy="323.8" r="8.5"/>
<g>
</g>
<g>
</g>
<g>
</g>
<g>
</g>
<g>
</g>
<g>
</g>
<g>
</g>
<g>
</g>
<g>
</g>
<g>
</g>
<g>
</g>
<g>
</g>
<g>
</g>
<g>
</g>
<g>
</g>
</svg>
