<?xml version="1.0" encoding="iso-8859-1"?>
<!-- Generator: Adobe Illustrator 19.0.0, SVG Export Plug-In . SVG Version: 6.00 Build 0)  -->
<svg xmlns="http://www.w3.org/2000/svg" xmlns:xlink="http://www.w3.org/1999/xlink" version="1.1" id="Layer_1" x="0px" y="0px" viewBox="0 0 506 506" style="enable-background:new 0 0 506 506;" xml:space="preserve">
<circle style="fill:#324A5E;" cx="253" cy="253" r="253"/>
<path style="fill:#FFFFFF;" d="M355.5,175.2c-9.8-45.8-52-80.3-102.5-80.3s-92.6,34.5-102.5,80.3c-32.5,11.8-55.6,42-55.6,77.4  c0,16.5,5.1,31.9,13.7,44.9c15.3,22.8,41.9,38,72.3,38h144.3c30.3,0,56.9-15.1,72.3-38c8.7-12.9,13.7-28.3,13.7-44.9  C411.1,217.2,388,187,355.5,175.2z"/>
<polygon style="fill:#FF7058;" points="211.7,198 189.3,227.4 200.4,227.4 200.4,260.1 211.7,260.1 223.1,260.1 223.1,227.4   234.1,227.4 "/>
<polygon style="fill:#2C9984;" points="281.5,260.1 303.9,230.7 292.8,230.7 292.8,198 281.5,198 270.2,198 270.2,230.7   259.1,230.7 "/>
<rect x="165.5" y="285" style="fill:#FFD05B;" width="172.2" height="125.4"/>
<polygon style="fill:#F9B54C;" points="337.7,403.5 274.5,349.3 337.7,295 337.7,285 334.4,285 251.6,356.1 168.8,285 165.5,285   165.5,295 228.7,349.3 165.5,403.5 165.5,410.4 172.4,410.4 236.2,355.7 251.6,368.9 267.1,355.7 330.8,410.4 337.7,410.4 "/>
<g>
</g>
<g>
</g>
<g>
</g>
<g>
</g>
<g>
</g>
<g>
</g>
<g>
</g>
<g>
</g>
<g>
</g>
<g>
</g>
<g>
</g>
<g>
</g>
<g>
</g>
<g>
</g>
<g>
</g>
</svg>
