<?xml version="1.0" encoding="iso-8859-1"?>
<!-- Generator: Adobe Illustrator 19.0.0, SVG Export Plug-In . SVG Version: 6.00 Build 0)  -->
<svg xmlns="http://www.w3.org/2000/svg" xmlns:xlink="http://www.w3.org/1999/xlink" version="1.1" id="Layer_1" x="0px" y="0px" viewBox="0 0 506 506" style="enable-background:new 0 0 506 506;" xml:space="preserve">
<circle style="fill:#90DFAA;" cx="253" cy="253" r="253"/>
<path style="fill:#FFFFFF;" d="M355.5,177.1c-9.8-46.9-52-82.2-102.5-82.2s-92.6,35.3-102.5,82.2c-32.5,12.1-55.6,43-55.6,79.2  c0,46.8,38.5,84.8,86,84.8h144.3c47.5,0,86-37.9,86-84.8C411.1,220,388,189.2,355.5,177.1z"/>
<g>
	<path style="fill:#324A5E;" d="M230,380.6c-1.4,0-2.6-1.2-2.6-2.6s1.2-2.6,2.6-2.6h15.2c7.2,0,13-5.8,13-13v-14.2h-10.4v14.2   c0,1.4-1.2,2.6-2.6,2.6H230c-3.9,0-7.6,1.7-10,4.7c-2.5,3-3.5,6.9-2.7,10.8c1.2,6,6.7,10.4,13.2,10.4h42.9c0.8,0,1.5,0.3,2.1,0.9   s0.9,1.3,0.9,2.1c0,1.7-1.3,3-3,3h-47.9c-1.4,0-2.7,0.5-3.7,1.5l0,0c-1,1-1.5,2.3-1.5,3.7c0,1.4,0.5,2.7,1.5,3.7s2.3,1.5,3.7,1.5   H273c3.9,0,7.5-1.6,10-4.1c1.8-1.8,3.1-4.1,3.6-6.6c0.8-4-0.2-8.1-2.8-11.2c-2.6-3.1-6.3-4.9-10.3-4.9L230,380.6z"/>
	<path style="fill:#324A5E;" d="M306.6,261.9l-5.9,67.6c-0.3,3.9-3.5,6.9-7.4,6.9h-80.5c-3.9,0-7.1-3-7.4-6.9l-5.9-67.6H306.6z"/>
</g>
<g>
	<path style="fill:#2B3B4E;" d="M314.1,237.4v22.7c0,1-0.8,1.7-1.7,1.7H193.7c-1,0-1.7-0.8-1.7-1.7v-22.7c0-1,0.8-1.7,1.7-1.7h118.7   C313.3,235.7,314.1,236.5,314.1,237.4z"/>
	<path style="fill:#2B3B4E;" d="M267.7,336.4v13c0,0.4-0.4,0.8-0.8,0.8h-27.8c-0.4,0-0.8-0.4-0.8-0.8v-13H267.7z"/>
</g>
<g>
	<path style="fill:#ACB3BA;" d="M228.5,235.7h-14.2v-47.3c0-3.9,3.2-7.1,7.1-7.1l0,0c3.9,0,7.1,3.2,7.1,7.1L228.5,235.7L228.5,235.7   z"/>
	<path style="fill:#ACB3BA;" d="M291.7,235.7h-14.2v-47.3c0-3.9,3.2-7.1,7.1-7.1l0,0c3.9,0,7.1,3.2,7.1,7.1V235.7z"/>
</g>
<g>
	<path style="fill:#2B3B4E;" d="M220.1,275.5c-2.6,0-4.8,2.1-4.8,4.8V318c0,2.6,2.1,4.8,4.8,4.8c2.6,0,4.8-2.1,4.8-4.8v-37.7   C224.8,277.7,222.7,275.5,220.1,275.5z"/>
	<path style="fill:#2B3B4E;" d="M242,275.5c-2.6,0-4.8,2.1-4.8,4.8V318c0,2.6,2.1,4.8,4.8,4.8c2.6,0,4.8-2.1,4.8-4.8v-37.7   C246.8,277.7,244.7,275.5,242,275.5z"/>
	<path style="fill:#2B3B4E;" d="M264,275.5c-2.6,0-4.8,2.1-4.8,4.8V318c0,2.6,2.1,4.8,4.8,4.8c2.6,0,4.8-2.1,4.8-4.8v-37.7   C268.7,277.7,266.6,275.5,264,275.5z"/>
	<path style="fill:#2B3B4E;" d="M285.9,275.5c-2.6,0-4.8,2.1-4.8,4.8V318c0,2.6,2.1,4.8,4.8,4.8c2.6,0,4.8-2.1,4.8-4.8v-37.7   C290.7,277.7,288.6,275.5,285.9,275.5z"/>
</g>
<g>
</g>
<g>
</g>
<g>
</g>
<g>
</g>
<g>
</g>
<g>
</g>
<g>
</g>
<g>
</g>
<g>
</g>
<g>
</g>
<g>
</g>
<g>
</g>
<g>
</g>
<g>
</g>
<g>
</g>
</svg>
