<?xml version="1.0" encoding="iso-8859-1"?>
<!-- Generator: Adobe Illustrator 19.0.0, SVG Export Plug-In . SVG Version: 6.00 Build 0)  -->
<svg xmlns="http://www.w3.org/2000/svg" xmlns:xlink="http://www.w3.org/1999/xlink" version="1.1" id="Layer_1" x="0px" y="0px" viewBox="0 0 506 506" style="enable-background:new 0 0 506 506;" xml:space="preserve">
<circle style="fill:#FFD05B;" cx="253" cy="253" r="253"/>
<path style="fill:#FFFFFF;" d="M374.1,249.4c4.4-8.5,6.9-18.1,6.9-28.3c0-34-27.6-61.6-61.6-61.6c-13.3,0-25.6,4.3-35.6,11.4  c-4.6-29.5-30-52.1-60.8-52.1c-33.5,0-60.7,26.7-61.6,60c-25.1,7.8-43.3,31.2-43.3,58.9c0,5.4,0.8,10.6,2.1,15.6  c-21.8,9.5-37.1,31.2-37.1,56.5c0,34,27.6,61.6,61.6,61.6s182.7,0,216.7,0s61.6-27.6,61.6-61.6C423,280.1,402,255.3,374.1,249.4z"/>
<path style="fill:#FF7058;" d="M254.2,313v-21H243c-1-4-2.6-7.8-4.7-11.3l7.9-7.9L231.4,258l-7.9,7.9c-3.5-2.1-7.3-3.7-11.3-4.7V250  h-21v11.2c-4,1-7.8,2.6-11.3,4.7L172,258l-14.8,14.8l7.9,7.9c-2.1,3.5-3.7,7.3-4.7,11.3h-11.2v21h11.2c1,4,2.6,7.8,4.7,11.3  l-7.9,7.9L172,347l7.9-7.9c3.5,2.1,7.3,3.7,11.3,4.7V355h21v-11.2c4-1,7.8-2.6,11.3-4.7l7.9,7.9l14.8-14.8l-7.9-7.9  c2.1-3.5,3.7-7.3,4.7-11.3H254.2z M201.8,331.5c-16,0-29-13-29-29s13-29,29-29s29,13,29,29S217.8,331.5,201.8,331.5z"/>
<path style="fill:#2C9984;" d="M334.2,256.3V240h-8.7c-0.8-3.1-2-6.1-3.6-8.8l6.1-6.1l-11.5-11.5l-6.1,6.1c-2.7-1.6-5.6-2.8-8.8-3.6  v-8.7h-16.3v8.7c-3.1,0.8-6.1,2-8.8,3.6l-6.1-6.1l-11.5,11.5l6.1,6.1c-1.6,2.7-2.8,5.6-3.6,8.8h-8.7v16.3h8.7c0.8,3.1,2,6.1,3.6,8.8  l-6.1,6.1l11.5,11.5l6.1-6.1c2.7,1.6,5.6,2.8,8.8,3.6v8.7h16.3v-8.7c3.1-0.8,6.1-2,8.8-3.6l6.1,6.1l11.5-11.5l-6.1-6.1  c1.6-2.7,2.8-5.6,3.6-8.8H334.2z M293.4,270.7c-12.4,0-22.5-10.1-22.5-22.5s10.1-22.5,22.5-22.5s22.5,10.1,22.5,22.5  C316,260.6,305.9,270.7,293.4,270.7z"/>
<g>
</g>
<g>
</g>
<g>
</g>
<g>
</g>
<g>
</g>
<g>
</g>
<g>
</g>
<g>
</g>
<g>
</g>
<g>
</g>
<g>
</g>
<g>
</g>
<g>
</g>
<g>
</g>
<g>
</g>
</svg>
