<?xml version="1.0" encoding="iso-8859-1"?>
<!-- Generator: Adobe Illustrator 19.0.0, SVG Export Plug-In . SVG Version: 6.00 Build 0)  -->
<svg xmlns="http://www.w3.org/2000/svg" xmlns:xlink="http://www.w3.org/1999/xlink" version="1.1" id="Layer_1" x="0px" y="0px" viewBox="0 0 506 506" style="enable-background:new 0 0 506 506;" xml:space="preserve">
<circle style="fill:#FD8469;" cx="253" cy="253" r="253"/>
<path style="fill:#FFFFFF;" d="M355.5,175.4c-9.8-46-52-80.5-102.5-80.5s-92.6,34.6-102.5,80.5C118,187.3,94.9,217.5,94.9,253  c0,16.6,5.1,32,13.7,45c15.3,22.9,41.9,38.1,72.3,38.1h144.3c30.3,0,56.9-15.2,72.3-38.1c8.7-13,13.7-28.4,13.7-45  C411.1,217.5,388,187.3,355.5,175.4z"/>
<rect x="144.7" y="221.3" style="fill:#84DBFF;" width="216.6" height="56.7"/>
<rect x="144.7" y="305.2" style="fill:#FFD05B;" width="216.6" height="56.7"/>
<g>
	<rect x="206.5" y="278" style="fill:#324A5E;" width="93.1" height="27.2"/>
	<polygon style="fill:#324A5E;" points="262,384.4 262,361.9 244,361.9 244,384.4 161.1,384.4 161.1,402.5 244,402.5 262,402.5    344.9,402.5 344.9,384.4  "/>
</g>
<rect x="235.4" y="375.8" style="fill:#2B3B4E;" width="35.2" height="35.3"/>
<circle style="fill:#F1543F;" cx="174.1" cy="249.7" r="10"/>
<circle style="fill:#324A5E;" cx="210.2" cy="249.7" r="10"/>
<rect x="255.7" y="243.1" style="fill:#FF7058;" width="22.2" height="13.1"/>
<rect x="287.7" y="243.1" style="fill:#2C9984;" width="22.2" height="13.1"/>
<rect x="319.7" y="243.1" style="fill:#F9B54C;" width="22.2" height="13.1"/>
<circle style="fill:#E6E9EE;" cx="174.1" cy="333.6" r="10"/>
<circle style="fill:#2C9984;" cx="210.2" cy="333.6" r="10"/>
<rect x="255.7" y="327" style="fill:#F9B54C;" width="22.2" height="13.1"/>
<rect x="287.7" y="327" style="fill:#54C0EB;" width="22.2" height="13.1"/>
<rect x="319.7" y="327" style="fill:#F1543F;" width="22.2" height="13.1"/>
<g>
</g>
<g>
</g>
<g>
</g>
<g>
</g>
<g>
</g>
<g>
</g>
<g>
</g>
<g>
</g>
<g>
</g>
<g>
</g>
<g>
</g>
<g>
</g>
<g>
</g>
<g>
</g>
<g>
</g>
</svg>
