<?xml version="1.0" encoding="iso-8859-1"?>
<!-- Generator: Adobe Illustrator 19.0.0, SVG Export Plug-In . SVG Version: 6.00 Build 0)  -->
<svg xmlns="http://www.w3.org/2000/svg" xmlns:xlink="http://www.w3.org/1999/xlink" version="1.1" id="Layer_1" x="0px" y="0px" viewBox="0 0 506 506" style="enable-background:new 0 0 506 506;" xml:space="preserve">
<circle style="fill:#FFD05B;" cx="253" cy="253" r="253"/>
<polygon style="fill:#2B3B4E;" points="145.8,426.9 360.2,426.9 320.3,373.6 185.7,373.6 "/>
<rect x="94.9" y="110.7" style="fill:#324A5E;" width="316.3" height="262.9"/>
<rect x="126.5" y="142.3" style="fill:#E6E9EE;" width="253" height="199.7"/>
<path style="fill:#FF7058;" d="M307.9,200.2c-5.3-24.4-27.8-42.7-54.9-42.7c-27,0-49.6,18.3-54.9,42.7  c-17.4,6.3-29.8,22.3-29.8,41.2c0,8.8,2.7,17,7.3,23.8c8.2,12.1,22.5,20.2,38.7,20.2h77.3c16.2,0,30.5-8,38.7-20.2  c4.6-6.9,7.3-15.1,7.3-23.8C337.7,222.5,325.3,206.5,307.9,200.2z"/>
<polygon style="fill:#FFFFFF;" points="253,224.1 216.7,269.1 231.4,269.1 231.4,325.3 274.6,325.3 274.6,269.1 289.3,269.1 "/>
<g>
</g>
<g>
</g>
<g>
</g>
<g>
</g>
<g>
</g>
<g>
</g>
<g>
</g>
<g>
</g>
<g>
</g>
<g>
</g>
<g>
</g>
<g>
</g>
<g>
</g>
<g>
</g>
<g>
</g>
</svg>
