<?xml version="1.0" encoding="iso-8859-1"?>
<!-- Generator: Adobe Illustrator 19.0.0, SVG Export Plug-In . SVG Version: 6.00 Build 0)  -->
<svg xmlns="http://www.w3.org/2000/svg" xmlns:xlink="http://www.w3.org/1999/xlink" version="1.1" id="Layer_1" x="0px" y="0px" viewBox="0 0 506 506" style="enable-background:new 0 0 506 506;" xml:space="preserve">
<circle style="fill:#84DBFF;" cx="253" cy="253" r="253"/>
<path style="fill:#FFFFFF;" d="M360,171.7c-10.3-47.8-54.3-83.8-107-83.8s-96.8,36-107,83.8c-34,12.3-58.2,43.8-58.2,80.8  c0,17.3,5.3,33.3,14.3,46.8c16,23.8,43.8,39.6,75.5,39.6h150.7c31.7,0,59.5-15.8,75.5-39.6c9.1-13.5,14.3-29.6,14.3-46.8  C418.2,215.5,394,184,360,171.7z"/>
<path style="fill:#FF7058;" d="M278.5,273.1L278.5,273.1c0-7.9-6.4-14.2-14.3-14.2H221c-7.9,0-14.3,6.4-14.3,14.2v116.6v14.2  c0,7.9,6.4,14.2,14.3,14.2h167c7.9,0,14.3-6.4,14.3-14.2V301.6c0-7.9-6.4-14.2-14.3-14.2h-95.3C284.8,287.3,278.5,280.9,278.5,273.1  z"/>
<path style="fill:#324A5E;" d="M123.2,320.5c-2.3-24.2,7.8-44,27.9-58.9c2.3,3.5,4.2,6.6,6.6,10.3c8.2-14.2,15.9-27.7,23.9-41.4  c-16.4,0-31.9,0-47.9,0c1.8,3.5,3.3,6.2,4.9,9.1c-28.6,27.2-39.2,59.4-24.5,96.8c11.4,29.1,34.3,44.7,65.1,48.5  C146.9,375.1,126.4,354.7,123.2,320.5z"/>
<g>
</g>
<g>
</g>
<g>
</g>
<g>
</g>
<g>
</g>
<g>
</g>
<g>
</g>
<g>
</g>
<g>
</g>
<g>
</g>
<g>
</g>
<g>
</g>
<g>
</g>
<g>
</g>
<g>
</g>
</svg>
