<?xml version="1.0" encoding="iso-8859-1"?>
<!-- Generator: Adobe Illustrator 19.0.0, SVG Export Plug-In . SVG Version: 6.00 Build 0)  -->
<svg xmlns="http://www.w3.org/2000/svg" xmlns:xlink="http://www.w3.org/1999/xlink" version="1.1" id="Layer_1" x="0px" y="0px" viewBox="0 0 506 506" style="enable-background:new 0 0 506 506;" xml:space="preserve">
<circle style="fill:#FD8469;" cx="253" cy="253" r="253"/>
<path style="fill:#FFFFFF;" d="M383.7,222.1c4.8-9.2,7.5-19.5,7.5-30.6c0-36.7-29.8-66.5-66.5-66.5c-14.3,0-27.6,4.6-38.5,12.3  c-5-31.8-32.4-56.2-65.6-56.2c-36.1,0-65.5,28.8-66.4,64.7c-27.1,8.4-46.8,33.7-46.8,63.5c0,5.8,0.8,11.4,2.2,16.8  c-23.6,10.2-40.1,33.7-40.1,61c0,36.7,29.8,66.5,66.5,66.5s197.1,0,233.9,0s66.5-29.8,66.5-66.5  C436.5,255.2,413.8,228.5,383.7,222.1z"/>
<path style="fill:#54C0EB;" d="M199.5,352.1c0,30.6,23.5,55.5,52.5,55.5s52.5-24.8,52.5-55.5v-96.5h-105V352.1z"/>
<rect x="220.9" y="205" style="fill:#2B3B4E;" width="62.4" height="50.6"/>
<g>
	<rect x="232.9" y="213.1" style="fill:#CED5E0;" width="11.5" height="34.5"/>
	<rect x="259.7" y="213.1" style="fill:#CED5E0;" width="11.5" height="34.5"/>
</g>
<g>
</g>
<g>
</g>
<g>
</g>
<g>
</g>
<g>
</g>
<g>
</g>
<g>
</g>
<g>
</g>
<g>
</g>
<g>
</g>
<g>
</g>
<g>
</g>
<g>
</g>
<g>
</g>
<g>
</g>
</svg>
