<?xml version="1.0" encoding="iso-8859-1"?>
<!-- Generator: Adobe Illustrator 19.0.0, SVG Export Plug-In . SVG Version: 6.00 Build 0)  -->
<svg xmlns="http://www.w3.org/2000/svg" xmlns:xlink="http://www.w3.org/1999/xlink" version="1.1" id="Layer_1" x="0px" y="0px" viewBox="0 0 506 506" style="enable-background:new 0 0 506 506;" xml:space="preserve">
<circle style="fill:#90DFAA;" cx="253" cy="253" r="253"/>
<polygon style="fill:#324A5E;" points="265.3,369.4 265.3,275.4 240.7,275.4 240.7,369.4 94.9,369.4 94.9,394 411.1,394   411.1,369.4 "/>
<rect x="223.6" y="352.2" style="fill:#F1543F;" width="58.9" height="58.9"/>
<path style="fill:#FFFFFF;" d="M148.1,182.9c0-0.5-0.1-0.9-0.1-1.3c0-34.4,30-62.3,67-62.3c7.5,0,14.7,1.2,21.5,3.3  C250.1,105.8,271.7,95,296,95c41.2,0,74.6,31.1,74.6,69.4c0,7.4-1.3,14.4-3.5,21.1c25.7,8.7,44,31.6,44,58.5c0,34.4-30,62.3-67,62.3  s-145.1,0-182.2,0s-67-27.9-67-62.3C94.9,213.8,117.7,188.8,148.1,182.9z"/>
<g>
</g>
<g>
</g>
<g>
</g>
<g>
</g>
<g>
</g>
<g>
</g>
<g>
</g>
<g>
</g>
<g>
</g>
<g>
</g>
<g>
</g>
<g>
</g>
<g>
</g>
<g>
</g>
<g>
</g>
</svg>
