<?xml version="1.0" encoding="iso-8859-1"?>
<!-- Generator: Adobe Illustrator 19.0.0, SVG Export Plug-In . SVG Version: 6.00 Build 0)  -->
<svg xmlns="http://www.w3.org/2000/svg" xmlns:xlink="http://www.w3.org/1999/xlink" version="1.1" id="Layer_1" x="0px" y="0px" viewBox="0 0 506 506" style="enable-background:new 0 0 506 506;" xml:space="preserve">
<circle style="fill:#324A5E;" cx="253" cy="253" r="253"/>
<path style="fill:#4CDBC4;" d="M365.7,216.4c4.1-7.9,6.4-16.8,6.4-26.3c0-31.7-25.7-57.3-57.3-57.3c-12.4,0-23.8,4-33.2,10.6  c-4.3-27.4-27.9-48.5-56.6-48.5c-31.1,0-56.4,24.8-57.3,55.8c-23.3,7.3-40.3,29-40.3,54.8c0,5,0.7,9.9,1.9,14.5  c-20.3,8.8-34.5,29-34.5,52.6c0,31.7,25.7,57.3,57.3,57.3s169.9,0,201.6,0s57.3-25.7,57.3-57.3C411.1,244.9,391.6,221.9,365.7,216.4  z"/>
<polygon style="fill:#FFFFFF;" points="294.5,196.6 172.3,196.6 172.3,411.1 333.7,411.1 333.7,235.8 "/>
<rect x="222.9" y="224" style="fill:#F1543F;" width="60.2" height="13.1"/>
<g>
	<rect x="191.2" y="323.2" style="fill:#ACB3BA;" width="123.6" height="8.4"/>
	<rect x="191.2" y="353" style="fill:#ACB3BA;" width="123.6" height="8.4"/>
	<rect x="191.2" y="263.7" style="fill:#ACB3BA;" width="123.6" height="8.4"/>
	<rect x="191.2" y="293.5" style="fill:#ACB3BA;" width="123.6" height="8.4"/>
	<rect x="191.2" y="382.7" style="fill:#ACB3BA;" width="64.4" height="8.4"/>
	<polygon style="fill:#ACB3BA;" points="294.5,235.8 333.7,235.8 294.5,196.6  "/>
</g>
<g>
</g>
<g>
</g>
<g>
</g>
<g>
</g>
<g>
</g>
<g>
</g>
<g>
</g>
<g>
</g>
<g>
</g>
<g>
</g>
<g>
</g>
<g>
</g>
<g>
</g>
<g>
</g>
<g>
</g>
</svg>
