<?xml version="1.0" encoding="iso-8859-1"?>
<!-- Generator: Adobe Illustrator 19.0.0, SVG Export Plug-In . SVG Version: 6.00 Build 0)  -->
<svg xmlns="http://www.w3.org/2000/svg" xmlns:xlink="http://www.w3.org/1999/xlink" version="1.1" id="Layer_1" x="0px" y="0px" viewBox="0 0 506 506" style="enable-background:new 0 0 506 506;" xml:space="preserve">
<circle style="fill:#90DFAA;" cx="253" cy="253" r="253"/>
<path style="fill:#FFFFFF;" d="M382,188.8L382,188.8c-0.1-28-22.8-50.7-50.8-50.7c-11.4,0-21.9,3.8-30.4,10.2  C290,110,254.9,81.8,213.2,81.8c-50.3,0-91.1,40.8-91.1,91.1c0,5.4,0.6,10.7,1.5,15.9c-35.5,0.3-64.2,29.1-64.2,64.7  c0,35.8,29,64.8,64.8,64.8h258c35.8,0,64.8-29,64.8-64.8C446.7,217.8,417.8,188.8,382,188.8z"/>
<path style="fill:#324A5E;" d="M326,411.1H180c-1.1,0-1.9-0.9-1.9-1.9v-192c0-1.1,0.9-1.9,1.9-1.9h146c1.1,0,1.9,0.9,1.9,1.9v192  C327.9,410.3,327.1,411.1,326,411.1z"/>
<rect x="194.7" y="232.4" style="fill:#E6E9EE;" width="116.5" height="146.2"/>
<circle style="fill:#2B3B4E;" cx="253" cy="394.9" r="10.4"/>
<polygon style="fill:#2C9984;" points="267.8,293.6 267.8,327.8 284,327.8 284,293.6 293.7,293.6 275.9,275.9 258.2,293.6 "/>
<polygon style="fill:#FF7058;" points="238.2,317.3 238.2,283.1 222,283.1 222,317.3 212.3,317.3 230.1,335.1 247.8,317.3 "/>
<g>
</g>
<g>
</g>
<g>
</g>
<g>
</g>
<g>
</g>
<g>
</g>
<g>
</g>
<g>
</g>
<g>
</g>
<g>
</g>
<g>
</g>
<g>
</g>
<g>
</g>
<g>
</g>
<g>
</g>
</svg>
