<?xml version="1.0" encoding="iso-8859-1"?>
<!-- Generator: Adobe Illustrator 19.0.0, SVG Export Plug-In . SVG Version: 6.00 Build 0)  -->
<svg xmlns="http://www.w3.org/2000/svg" xmlns:xlink="http://www.w3.org/1999/xlink" version="1.1" id="Layer_1" x="0px" y="0px" viewBox="0 0 506 506" style="enable-background:new 0 0 506 506;" xml:space="preserve">
<circle style="fill:#324A5E;" cx="253" cy="253" r="253"/>
<path style="fill:#84DBFF;" d="M149.5,194.2c-1-5-1.5-10.1-1.5-15.3c0-46.4,40.7-84,90.8-84c31.6,0,59.5,15,75.8,37.7  c1.2-0.1,2.4-0.2,3.7-0.2c36.3,0,65.8,27.2,65.8,60.9c0,3.7-0.4,7.4-1.1,11c17,11,28.2,29.2,28.2,49.9c0,33.6-29.5,60.9-65.8,60.9  s-151.3,0-184.7,0c-36.3,0-65.8-27.2-65.8-60.9C94.9,224,118.5,199.1,149.5,194.2z"/>
<path style="fill:#FFFFFF;" d="M338.6,411.1H167.4c-0.9,0-1.7-0.8-1.7-1.7V262.3c0-0.9,0.8-1.7,1.7-1.7h171.1c0.9,0,1.7,0.8,1.7,1.7  v147.1C340.3,410.4,339.5,411.1,338.6,411.1z"/>
<rect x="184.8" y="277" style="fill:#FF7058;" width="10.2" height="117.7"/>
<rect x="179.9" y="294.9" style="fill:#324A5E;" width="19.9" height="9.2"/>
<rect x="216.3" y="277" style="fill:#CED5E0;" width="10.2" height="117.7"/>
<rect x="211.5" y="359.5" style="fill:#324A5E;" width="19.9" height="9.2"/>
<rect x="247.9" y="277" style="fill:#84DBFF;" width="10.2" height="117.7"/>
<rect x="243.1" y="312.3" style="fill:#324A5E;" width="19.9" height="9.2"/>
<rect x="279.5" y="277" style="fill:#4CDBC4;" width="10.2" height="117.7"/>
<rect x="274.6" y="346.4" style="fill:#324A5E;" width="19.9" height="9.2"/>
<rect x="311" y="277" style="fill:#FFD05B;" width="10.2" height="117.7"/>
<rect x="306.2" y="301.6" style="fill:#324A5E;" width="19.9" height="9.2"/>
<g>
</g>
<g>
</g>
<g>
</g>
<g>
</g>
<g>
</g>
<g>
</g>
<g>
</g>
<g>
</g>
<g>
</g>
<g>
</g>
<g>
</g>
<g>
</g>
<g>
</g>
<g>
</g>
<g>
</g>
</svg>
