<?xml version="1.0" encoding="iso-8859-1"?>
<!-- Generator: Adobe Illustrator 19.0.0, SVG Export Plug-In . SVG Version: 6.00 Build 0)  -->
<svg xmlns="http://www.w3.org/2000/svg" xmlns:xlink="http://www.w3.org/1999/xlink" version="1.1" id="Layer_1" x="0px" y="0px" viewBox="0 0 506 506" style="enable-background:new 0 0 506 506;" xml:space="preserve">
<circle style="fill:#90DFAA;" cx="253" cy="253" r="253"/>
<path style="fill:#FFFFFF;" d="M356.5,241.4c1-5.4,1.5-10.9,1.5-16.5c0-50.2-40.7-90.8-90.8-90.8c-31.6,0-59.5,16.2-75.8,40.7  c-1.2-0.1-2.4-0.2-3.7-0.2c-36.3,0-65.8,29.4-65.8,65.8c0,4,0.4,8,1.1,11.8c-17,11.9-28.2,31.6-28.2,53.9  c0,36.3,29.5,65.8,65.8,65.8s151.3,0,184.7,0c36.3,0,65.8-29.4,65.8-65.8C411.1,273.6,387.5,246.7,356.5,241.4z"/>
<path style="fill:#324A5E;" d="M317.2,207.2l-16.6-16.6c-3.9-3.9-9-6-14.5-6s-10.7,2.1-14.5,6L240,222.2c-3.9,3.9-6,9-6,14.5  s2.1,10.7,6,14.5l3.4,3.4L233,265l-3.4-3.4c-3.9-3.9-9-6-14.5-6s-10.7,2.1-14.5,6L169,293.2c-8,8-8,21.1,0,29.1l16.6,16.6  c3.9,3.9,9,6,14.5,6s10.7-2.1,14.5-6l31.6-31.6c3.9-3.9,6-9,6-14.5s-2.1-10.7-6-14.5l-3.4-3.4l10.4-10.4l3.4,3.4c3.9,3.9,9,6,14.5,6  s10.7-2.1,14.5-6l31.6-31.6c3.9-3.9,6-9,6-14.5C323.2,216.2,321.1,211.1,317.2,207.2z M236.3,288.1c1.3,1.3,2,3,2,4.8  s-0.7,3.5-2,4.8l-31.6,31.6c-2.6,2.6-6.9,2.6-9.5,0l-16.6-16.6c-2.6-2.6-2.6-6.9,0-9.5l31.6-31.6l0,0c1.3-1.3,3-2,4.8-2  s3.5,0.7,4.8,2l3.4,3.4l-19.6,19.6c-2.7,2.7-2.7,7.1,0,9.8l0,0c2.7,2.7,7.1,2.7,9.8,0l19.6-19.6L236.3,288.1z M307.4,226.5  l-31.6,31.6c-2.6,2.6-6.9,2.6-9.5,0l-3.4-3.4l19.6-19.6c2.7-2.7,2.7-7.1,0-9.8l0,0c-2.7-2.7-7.1-2.7-9.8,0l-19.6,19.6l-3.4-3.4  c-1.3-1.3-2-3-2-4.8s0.7-3.5,2-4.8l31.6-31.6l0,0c1.3-1.3,3-2,4.8-2s3.5,0.7,4.8,2l16.6,16.6c1.3,1.3,2,3,2,4.8  C309.4,223.5,308.7,225.2,307.4,226.5z"/>
<g>
</g>
<g>
</g>
<g>
</g>
<g>
</g>
<g>
</g>
<g>
</g>
<g>
</g>
<g>
</g>
<g>
</g>
<g>
</g>
<g>
</g>
<g>
</g>
<g>
</g>
<g>
</g>
<g>
</g>
</svg>
