<?xml version="1.0" encoding="iso-8859-1"?>
<!-- Generator: Adobe Illustrator 19.0.0, SVG Export Plug-In . SVG Version: 6.00 Build 0)  -->
<svg xmlns="http://www.w3.org/2000/svg" xmlns:xlink="http://www.w3.org/1999/xlink" version="1.1" id="Layer_1" x="0px" y="0px" viewBox="0 0 506 506" style="enable-background:new 0 0 506 506;" xml:space="preserve">
<circle style="fill:#FFD05B;" cx="253" cy="253" r="253"/>
<path style="fill:#FFFFFF;" d="M357.9,182.9c0-0.5,0.1-0.9,0.1-1.3c0-34.4-30-62.3-67-62.3c-7.5,0-14.7,1.2-21.5,3.3  C255.9,105.8,234.3,95,210,95c-41.2,0-74.6,31.1-74.6,69.4c0,7.4,1.3,14.4,3.5,21.1c-25.7,8.7-44,31.6-44,58.5  c0,34.4,30,62.3,67,62.3s145.1,0,182.2,0s67-27.9,67-62.3C411.1,213.8,388.3,188.8,357.9,182.9z"/>
<polygon style="fill:#324A5E;" points="327.7,354 327.7,290.5 287,290.5 287,354 267,354 307.3,411.1 347.6,354 "/>
<polygon style="fill:#FF7058;" points="190.6,347.6 190.6,411.1 231.3,411.1 231.3,347.6 251.3,347.6 211,290.5 170.7,347.6 "/>
<g>
</g>
<g>
</g>
<g>
</g>
<g>
</g>
<g>
</g>
<g>
</g>
<g>
</g>
<g>
</g>
<g>
</g>
<g>
</g>
<g>
</g>
<g>
</g>
<g>
</g>
<g>
</g>
<g>
</g>
</svg>
