<?xml version="1.0" encoding="iso-8859-1"?>
<!-- Generator: Adobe Illustrator 19.0.0, SVG Export Plug-In . SVG Version: 6.00 Build 0)  -->
<svg xmlns="http://www.w3.org/2000/svg" xmlns:xlink="http://www.w3.org/1999/xlink" version="1.1" id="Layer_1" x="0px" y="0px" viewBox="0 0 506 506" style="enable-background:new 0 0 506 506;" xml:space="preserve">
<circle style="fill:#FD8469;" cx="253" cy="253" r="253"/>
<path style="fill:#FFFFFF;" d="M369.3,242.3c1-5.1,1.5-10.3,1.5-15.7c0-45.5-36.9-82.4-82.4-82.4c-15,0-29,4.1-41.1,11.1  c-15.1-16.3-36.6-26.6-60.5-26.6c-45.5,0-82.4,36.9-82.4,82.4c0,16.6,5,32,13.4,45c-14,11.4-22.9,28.8-22.9,48.2  c0,34.4,27.9,62.3,62.3,62.3s173.4,0,206.7,0c34.4,0,62.3-27.9,62.3-62.3C426.1,271.8,401.1,245.1,369.3,242.3z"/>
<path style="fill:#F9B54C;" d="M178.6,261.4c3.6-29,18.4-50,45.3-61.5c27.7-11.9,64.7-8.2,92.6,23.1c2.7-1.4,5.5-2.9,9.3-4.8  c0,8.2,0,15.6,0,23c0,7.3,0,14.6,0,23.1c-13.6-7.8-26.4-15.2-39.9-23c3.5-2.2,6.4-4.1,9.2-6c-9.2-17-35.1-29.4-55.9-26.9  C208.7,212,187.5,230.7,178.6,261.4z"/>
<path style="fill:#324A5E;" d="M264.3,336.2c-23,2.2-41.8-7.4-55.9-26.5c3.4-2.2,6.3-4,9.8-6.3c-13.5-7.8-26.3-15.1-39.4-22.7  c0,15.6,0,30.3,0,45.5c3.3-1.8,5.9-3.2,8.6-4.6c25.9,27.2,56.4,37.2,91.9,23.2c27.6-10.9,42.5-32.6,46.1-61.9  C316.3,313.7,296.8,333.2,264.3,336.2z"/>
<g>
</g>
<g>
</g>
<g>
</g>
<g>
</g>
<g>
</g>
<g>
</g>
<g>
</g>
<g>
</g>
<g>
</g>
<g>
</g>
<g>
</g>
<g>
</g>
<g>
</g>
<g>
</g>
<g>
</g>
</svg>
