<?xml version="1.0" encoding="iso-8859-1"?>
<!-- Generator: Adobe Illustrator 19.0.0, SVG Export Plug-In . SVG Version: 6.00 Build 0)  -->
<svg xmlns="http://www.w3.org/2000/svg" xmlns:xlink="http://www.w3.org/1999/xlink" version="1.1" id="Layer_1" x="0px" y="0px" viewBox="0 0 506 506" style="enable-background:new 0 0 506 506;" xml:space="preserve">
<circle style="fill:#FD8469;" cx="253" cy="253" r="253"/>
<path style="fill:#FFFFFF;" d="M357.9,171.1c0-0.5,0.1-0.9,0.1-1.3c0-34.5-30-62.4-67-62.4c-7.5,0-14.7,1.2-21.5,3.3  C255.9,93.9,234.3,83,210,83c-41.2,0-74.6,31.1-74.6,69.5c0,7.4,1.3,14.5,3.5,21.1c-25.7,8.7-44,31.6-44,58.6  c0,34.5,30,62.4,67,62.4s145.1,0,182.2,0s67-28,67-62.4C411.1,202.2,388.3,177.1,357.9,171.1z"/>
<rect x="94.9" y="318.5" style="fill:#84DBFF;" width="316.3" height="80.8"/>
<g>
	<polygon style="fill:#324A5E;" points="167.9,348.2 160,336.2 145.9,345.5 145.9,328.7 131.6,328.7 131.6,345.5 117.5,336.2    109.6,348.2 125.7,358.9 109.6,369.5 117.5,381.5 131.6,372.2 131.6,389.1 145.9,389.1 145.9,372.2 160,381.5 167.9,369.5    151.8,358.9  "/>
	<polygon style="fill:#324A5E;" points="244.1,348.2 236.2,336.2 222.1,345.5 222.1,328.7 207.7,328.7 207.7,345.5 193.6,336.2    185.7,348.2 201.9,358.9 185.7,369.5 193.6,381.5 207.7,372.2 207.7,389.1 222.1,389.1 222.1,372.2 236.2,381.5 244.1,369.5    228,358.9  "/>
	<polygon style="fill:#324A5E;" points="320.3,348.2 312.4,336.2 298.3,345.5 298.3,328.7 283.9,328.7 283.9,345.5 269.8,336.2    261.9,348.2 278,358.9 261.9,369.5 269.8,381.5 283.9,372.2 283.9,389.1 298.3,389.1 298.3,372.2 312.4,381.5 320.3,369.5    304.1,358.9  "/>
	<polygon style="fill:#324A5E;" points="396.4,348.2 388.5,336.2 374.4,345.5 374.4,328.7 360.1,328.7 360.1,345.5 346,336.2    338.1,348.2 354.2,358.9 338.1,369.5 346,381.5 360.1,372.2 360.1,389.1 374.4,389.1 374.4,372.2 388.5,381.5 396.4,369.5    380.3,358.9  "/>
</g>
<g>
</g>
<g>
</g>
<g>
</g>
<g>
</g>
<g>
</g>
<g>
</g>
<g>
</g>
<g>
</g>
<g>
</g>
<g>
</g>
<g>
</g>
<g>
</g>
<g>
</g>
<g>
</g>
<g>
</g>
</svg>
