<?xml version="1.0" encoding="iso-8859-1"?>
<!-- Generator: Adobe Illustrator 19.0.0, SVG Export Plug-In . SVG Version: 6.00 Build 0)  -->
<svg xmlns="http://www.w3.org/2000/svg" xmlns:xlink="http://www.w3.org/1999/xlink" version="1.1" id="Layer_1" x="0px" y="0px" viewBox="0 0 504 504" style="enable-background:new 0 0 504 504;" xml:space="preserve">
<circle style="fill:#FFD05B;" cx="252" cy="252" r="252"/>
<path style="fill:#2B3B4E;" d="M354.8,409.2H149.2c-6,0-10.8-4.8-10.8-10.8V105.2c0-6,4.8-10.8,10.8-10.8h205.6  c6,0,10.8,4.8,10.8,10.8v293.2C365.6,404.4,360.8,409.2,354.8,409.2z"/>
<rect x="162" y="118" style="fill:#84DBFF;" width="180" height="233.6"/>
<circle style="fill:#324A5E;" cx="252" cy="378.4" r="18.8"/>
<path style="fill:#FFFFFF;" d="M298.4,218c-4.4-21.6-23.6-37.6-46.4-37.6s-42,16-46.4,37.6c-14.8,5.6-25.2,19.6-25.2,36.4  c0,21.6,17.6,38.8,38.8,38.8h65.6c21.6,0,38.8-17.2,38.8-38.8C323.6,237.6,313.2,223.6,298.4,218z"/>
<g>
	<path style="fill:#F1543F;" d="M249.2,152h-2v13.2h2c37.6,0,68.4,30.8,68.4,68.4v2h13.2v-2C330.8,188.8,294,152,249.2,152z"/>
	<path style="fill:#F1543F;" d="M249.2,176.8h-2V190h2c24,0,44,19.6,44,44v2h13.2v-2C306,202,280.4,176.8,249.2,176.8z"/>
	<path style="fill:#F1543F;" d="M249.2,201.2h-2v13.2h2c10.4,0,19.2,8.8,19.2,19.2v2h13.2v-2C281.6,215.6,266.8,201.2,249.2,201.2z"/>
	<path style="fill:#F1543F;" d="M249.2,224.4c-4.8,0-9.2,4.4-9.2,9.2c0,4.8,4.4,9.2,9.2,9.2c4.8,0,9.2-4.4,9.2-9.2   C258.4,228.8,254,224.4,249.2,224.4z"/>
</g>
<g>
	<path style="fill:#324A5E;" d="M191.6,387.6h-20.4c-5.2,0-9.2-4-9.2-9.2l0,0c0-5.2,4-9.2,9.2-9.2h20.4c5.2,0,9.2,4,9.2,9.2l0,0   C200.8,383.6,196.8,387.6,191.6,387.6z"/>
	<path style="fill:#324A5E;" d="M333.2,387.6h-20.4c-5.2,0-9.2-4-9.2-9.2l0,0c0-5.2,4-9.2,9.2-9.2h20.4c5.2,0,9.2,4,9.2,9.2l0,0   C342,383.6,338,387.6,333.2,387.6z"/>
</g>
<g>
</g>
<g>
</g>
<g>
</g>
<g>
</g>
<g>
</g>
<g>
</g>
<g>
</g>
<g>
</g>
<g>
</g>
<g>
</g>
<g>
</g>
<g>
</g>
<g>
</g>
<g>
</g>
<g>
</g>
</svg>
