<?xml version="1.0" encoding="iso-8859-1"?>
<!-- Generator: Adobe Illustrator 19.0.0, SVG Export Plug-In . SVG Version: 6.00 Build 0)  -->
<svg version="1.1" id="Layer_1" xmlns="http://www.w3.org/2000/svg" xmlns:xlink="http://www.w3.org/1999/xlink" x="0px" y="0px"
	 viewBox="0 0 504.123 504.123" style="enable-background:new 0 0 504.123 504.123;" xml:space="preserve">
<circle style="fill:#FD8469;" cx="252.062" cy="252.062" r="252.062"/>
<path style="fill:#324A5E;" d="M326.892,306.018l-28.751-28.751c33.871-44.111,30.326-107.126-9.846-147.298
	c-43.717-43.717-114.609-43.717-158.326,0s-43.717,114.609,0,158.326c40.172,40.172,103.188,43.323,147.298,9.846l28.751,28.751
	L326.892,306.018z"/>
<circle style="fill:#FFFFFF;" cx="209.132" cy="209.132" r="92.554"/>
<path style="fill:#2B3B4E;" d="M332.8,293.415L293.415,332.8l66.954,66.954c9.452,9.452,24.812,9.452,34.265,0l5.12-5.12
	c9.452-9.452,9.452-24.812,0-34.265L332.8,293.415z"/>
<path style="fill:#ACB3BA;" d="M278.843,198.498c0-16.935-6.302-33.871-19.298-46.868c-25.994-25.994-68.135-25.994-94.129,0
	l46.868,46.868H278.843z"/>
<path style="fill:#F1543F;" d="M214.646,216.222l-46.868,46.868c25.994,25.994,68.135,25.994,94.129,0
	c12.997-12.997,19.298-29.932,19.298-46.868H214.646z"/>
<path style="fill:#4CDBC4;" d="M155.175,161.871c-25.994,25.994-25.994,68.135,0,94.129l46.868-47.262L155.175,161.871z"/>
<g>
</g>
<g>
</g>
<g>
</g>
<g>
</g>
<g>
</g>
<g>
</g>
<g>
</g>
<g>
</g>
<g>
</g>
<g>
</g>
<g>
</g>
<g>
</g>
<g>
</g>
<g>
</g>
<g>
</g>
</svg>
