<?xml version="1.0" encoding="iso-8859-1"?>
<!-- Generator: Adobe Illustrator 19.0.0, SVG Export Plug-In . SVG Version: 6.00 Build 0)  -->
<svg version="1.1" id="Layer_1" xmlns="http://www.w3.org/2000/svg" xmlns:xlink="http://www.w3.org/1999/xlink" x="0px" y="0px"
	 viewBox="0 0 504.123 504.123" style="enable-background:new 0 0 504.123 504.123;" xml:space="preserve">
<circle style="fill:#84DBFF;" cx="252.062" cy="252.062" r="252.062"/>
<rect x="94.523" y="174.868" style="fill:#324A5E;" width="315.077" height="213.465"/>
<polygon style="fill:#FFFFFF;" points="252.062,174.868 110.277,174.868 110.277,372.578 252.062,372.578 393.846,372.578 
	393.846,174.868 "/>
<rect x="94.523" y="115.791" style="fill:#324A5E;" width="315.077" height="59.077"/>
<rect x="212.283" y="194.166" style="fill:#F9B54C;" width="35.052" height="159.114"/>
<rect x="168.172" y="233.551" style="fill:#2C9984;" width="35.052" height="119.729"/>
<rect x="123.668" y="272.935" style="fill:#FF7058;" width="35.052" height="80.345"/>
<path style="fill:#CED5E0;" d="M323.348,216.615c-29.538,0-53.169,23.631-53.169,53.169c0,14.572,5.908,27.963,15.754,37.415
	l37.415-37.415V216.615z"/>
<path style="fill:#F1543F;" d="M331.225,216.615v53.169h53.169C384.394,240.246,360.369,216.615,331.225,216.615z"/>
<g>
	<rect x="110.277" y="137.058" style="fill:#FFFFFF;" width="22.843" height="16.935"/>
	<rect x="156.751" y="137.058" style="fill:#FFFFFF;" width="22.843" height="16.935"/>
	<rect x="202.831" y="137.058" style="fill:#FFFFFF;" width="22.843" height="16.935"/>
</g>
<path style="fill:#84DBFF;" d="M285.538,319.015c9.452,9.452,22.843,15.754,37.415,15.754c6.695,0,13.391-1.182,19.298-3.545
	L322.954,281.6L285.538,319.015z"/>
<path style="fill:#2C9984;" d="M384.394,277.662h-53.169l19.298,49.625C370.215,319.409,384.394,300.111,384.394,277.662z"/>
<g>
</g>
<g>
</g>
<g>
</g>
<g>
</g>
<g>
</g>
<g>
</g>
<g>
</g>
<g>
</g>
<g>
</g>
<g>
</g>
<g>
</g>
<g>
</g>
<g>
</g>
<g>
</g>
<g>
</g>
</svg>
