<?xml version="1.0" encoding="iso-8859-1"?>
<!-- Generator: Adobe Illustrator 19.0.0, SVG Export Plug-In . SVG Version: 6.00 Build 0)  -->
<svg version="1.1" id="Layer_1" xmlns="http://www.w3.org/2000/svg" xmlns:xlink="http://www.w3.org/1999/xlink" x="0px" y="0px"
	 viewBox="0 0 504.123 504.123" style="enable-background:new 0 0 504.123 504.123;" xml:space="preserve">
<circle style="fill:#84DBFF;" cx="252.062" cy="252.062" r="252.062"/>
<polygon style="fill:#FFD05B;" points="408.025,213.465 407.631,213.465 96.492,213.465 96.098,213.465 95.705,213.465 
	95.705,396.603 408.418,396.603 408.418,213.465 "/>
<g>
	<polygon style="fill:#F9B54C;" points="281.6,309.169 281.206,308.775 252.062,330.831 223.311,309.169 222.917,308.775 
		94.523,396.603 409.6,396.603 	"/>
	<polygon style="fill:#F9B54C;" points="252.455,83.889 252.062,83.889 95.311,213.465 251.668,332.012 252.062,332.012 
		408.418,213.858 408.812,213.465 	"/>
</g>
<polygon style="fill:#FFFFFF;" points="314.289,114.609 314.289,114.609 144.935,114.609 144.935,250.88 251.668,332.012 
	252.062,332.012 358.794,251.274 359.188,250.88 359.188,156.357 "/>
<polygon style="fill:#ACB3BA;" points="314.289,156.357 359.188,156.357 314.289,114.609 "/>
<rect x="164.628" y="132.332" style="fill:#2FB5A0;" width="25.206" height="72.468"/>
<rect x="198.892" y="159.114" style="fill:#324A5E;" width="25.206" height="45.686"/>
<rect x="233.551" y="185.502" style="fill:#FF7058;" width="25.206" height="18.905"/>
<g>
	<rect x="274.511" y="170.929" style="fill:#CED5E0;" width="62.228" height="7.877"/>
	<rect x="274.511" y="196.923" style="fill:#CED5E0;" width="62.228" height="7.877"/>
	<rect x="164.234" y="222.523" style="fill:#CED5E0;" width="172.505" height="7.877"/>
	<rect x="164.234" y="248.123" style="fill:#CED5E0;" width="172.505" height="7.877"/>
</g>
<g>
</g>
<g>
</g>
<g>
</g>
<g>
</g>
<g>
</g>
<g>
</g>
<g>
</g>
<g>
</g>
<g>
</g>
<g>
</g>
<g>
</g>
<g>
</g>
<g>
</g>
<g>
</g>
<g>
</g>
</svg>
