<?xml version="1.0" encoding="iso-8859-1"?>
<!-- Generator: Adobe Illustrator 19.0.0, SVG Export Plug-In . SVG Version: 6.00 Build 0)  -->
<svg version="1.1" id="Layer_1" xmlns="http://www.w3.org/2000/svg" xmlns:xlink="http://www.w3.org/1999/xlink" x="0px" y="0px"
	 viewBox="0 0 504.123 504.123" style="enable-background:new 0 0 504.123 504.123;" xml:space="preserve">
<circle style="fill:#84DBFF;" cx="252.062" cy="252.062" r="252.062"/>
<path style="fill:#324A5E;" d="M365.883,409.6H138.24c-9.846,0-17.723-7.877-17.723-17.723V112.246
	c0-9.846,7.877-17.723,17.723-17.723h228.037c9.846,0,17.723,7.877,17.723,17.723v279.237C384,401.723,376.123,409.6,365.883,409.6z
	"/>
<rect x="144.542" y="120.911" style="fill:#EFEFEF;" width="214.646" height="233.945"/>
<circle style="fill:#2B3B4E;" cx="252.062" cy="381.243" r="15.36"/>
<g>
	<path style="fill:#F9B54C;" d="M312.714,173.292v-11.815c-3.545-1.182-6.302-2.757-7.877-4.726
		c-1.575-1.969-2.363-4.726-2.363-7.483c0-3.151,0.788-5.514,2.757-7.483c1.969-1.969,4.332-3.151,7.483-3.545v-2.757h3.938v2.363
		c2.757,0.394,5.12,1.182,7.089,3.151c1.575,1.575,2.757,3.938,3.151,6.695l-7.089,0.788c-0.394-2.363-1.575-3.545-3.151-4.332
		v11.028c4.332,1.182,7.483,2.757,9.058,4.726c1.575,1.969,2.363,4.332,2.363,7.483c0,3.545-1.182,6.302-3.151,8.665
		c-1.969,2.363-4.726,3.545-8.665,4.332v4.726h-3.938v-5.12c-3.151-0.394-5.908-1.575-7.877-3.545
		c-1.969-1.969-3.151-4.726-3.938-8.665l7.089-0.788c0.394,1.575,0.788,2.757,1.575,3.938
		C310.745,171.717,311.532,172.505,312.714,173.292z M312.714,143.754c-1.182,0.394-1.969,1.182-2.757,1.969
		c-0.788,0.788-0.788,1.969-0.788,2.757c0,1.182,0.394,1.969,0.788,2.757c0.788,0.788,1.575,1.575,2.757,1.969V143.754z
		 M316.652,173.686c1.575-0.394,2.363-0.788,3.545-1.969c0.788-1.182,1.182-2.363,1.182-3.545s-0.394-2.363-1.182-3.151
		c-0.788-0.788-1.969-1.575-3.545-1.969V173.686z"/>
	<rect x="159.508" y="317.834" style="fill:#F9B54C;" width="185.502" height="11.028"/>
</g>
<rect x="170.929" y="226.462" style="fill:#54C0EB;" width="30.72" height="83.495"/>
<rect x="213.858" y="268.603" style="fill:#FF7058;" width="30.72" height="40.96"/>
<rect x="256.394" y="240.64" style="fill:#F9B54C;" width="30.72" height="68.923"/>
<rect x="299.323" y="196.135" style="fill:#2C9984;" width="30.72" height="113.428"/>
<g>
</g>
<g>
</g>
<g>
</g>
<g>
</g>
<g>
</g>
<g>
</g>
<g>
</g>
<g>
</g>
<g>
</g>
<g>
</g>
<g>
</g>
<g>
</g>
<g>
</g>
<g>
</g>
<g>
</g>
</svg>
