<?xml version="1.0" encoding="iso-8859-1"?>
<!-- Generator: Adobe Illustrator 19.0.0, SVG Export Plug-In . SVG Version: 6.00 Build 0)  -->
<svg version="1.1" id="Layer_1" xmlns="http://www.w3.org/2000/svg" xmlns:xlink="http://www.w3.org/1999/xlink" x="0px" y="0px"
	 viewBox="0 0 504.123 504.123" style="enable-background:new 0 0 504.123 504.123;" xml:space="preserve">
<circle style="fill:#84DBFF;" cx="252.062" cy="252.062" r="252.062"/>
<circle style="fill:#324A5E;" cx="120.517" cy="283.175" r="29.538"/>
<circle style="fill:#E6E9EE;" cx="120.517" cy="283.175" r="24.812"/>
<path style="fill:#324A5E;" d="M119.729,303.262v-3.545c-4.332-0.394-8.271-2.363-11.815-5.12l3.545-4.332
	c2.757,2.363,5.514,3.545,8.271,4.332v-9.452c-3.545-0.788-6.302-1.969-7.877-3.545c-1.575-1.575-2.363-3.545-2.363-6.302
	c0-2.757,0.788-5.12,2.757-6.695s4.332-2.757,7.483-2.757v-2.363h3.151v2.363c3.545,0.394,6.695,1.575,9.846,3.545l-3.151,4.332
	c-1.969-1.575-4.332-2.363-6.695-2.757v9.058l0,0c3.545,0.788,6.302,1.969,8.271,3.545c1.575,1.575,2.757,3.545,2.757,6.302
	c0,2.757-1.182,5.12-3.151,6.695c-1.969,1.575-4.726,2.757-7.877,2.757v3.938H119.729z M116.185,272.148
	c-0.788,0.788-1.182,1.575-1.182,2.757s0.394,1.969,0.788,2.363c0.788,0.788,1.969,1.182,3.545,1.969v-8.271
	C118.154,270.966,116.972,271.36,116.185,272.148z M126.425,293.022c0.788-0.788,1.182-1.575,1.182-2.757
	c0-1.182-0.394-1.969-1.182-2.757c-0.788-0.788-1.969-1.182-3.938-1.969v8.665C124.062,294.203,125.243,293.809,126.425,293.022z"/>
<path style="fill:#F9B54C;" d="M120.517,174.474L66.166,305.625v1.575c0,29.932,24.418,54.351,54.351,54.351
	s54.351-24.418,54.351-54.351v-1.969L120.517,174.474z M74.043,305.625l46.474-107.914l46.474,107.914H74.043z"/>
<circle style="fill:#F1543F;" cx="387.545" cy="226.068" r="29.538"/>
<circle style="fill:#FF7058;" cx="387.545" cy="226.068" r="24.418"/>
<path style="fill:#FFFFFF;" d="M386.363,246.548v-3.545c-4.332-0.394-8.665-2.363-12.209-5.514l3.545-4.332
	c2.757,2.363,5.514,3.938,8.665,4.332v-9.452c-3.545-0.788-6.302-1.969-8.271-3.545c-1.575-1.575-2.757-3.545-2.757-6.302
	c0-2.757,1.182-5.12,3.151-7.089c1.969-1.969,4.726-2.757,7.877-2.757v-2.363h3.151v2.363c3.545,0.394,7.089,1.575,10.24,3.545
	l-3.151,4.332c-1.969-1.575-4.332-2.363-7.089-2.757v9.058l0,0c3.938,0.788,6.695,1.969,8.271,3.545
	c1.575,1.575,2.757,3.545,2.757,6.695c0,2.757-1.182,5.12-3.151,7.089c-1.969,1.969-4.726,2.757-7.877,2.757v3.545h-3.151V246.548z
	 M382.818,214.646c-0.788,0.788-1.182,1.575-1.182,2.757s0.394,1.969,1.182,2.757c0.788,0.788,1.969,1.182,3.545,1.969v-8.665
	C384.788,213.465,383.606,213.858,382.818,214.646z M393.058,236.308c0.788-0.788,1.182-1.575,1.182-2.757s-0.394-1.969-1.182-2.757
	c-0.788-0.788-1.969-1.182-3.938-1.969v8.665C391.089,237.489,392.271,237.095,393.058,236.308z"/>
<path style="fill:#F9B54C;" d="M387.545,117.366l-54.351,131.151v1.969c0,29.932,24.418,54.351,54.351,54.351
	s54.351-24.418,54.351-54.351v-1.969L387.545,117.366z M341.071,248.517l46.474-107.914l46.474,107.914H341.071z"/>
<rect x="239.065" y="142.572" style="fill:#324A5E;" width="27.175" height="239.458"/>
<g>
	<path style="fill:#2B3B4E;" d="M100.825,174.474L100.825,174.474c1.575,7.089,8.271,11.422,15.36,9.846l277.662-58.683
		c7.089-1.575,11.422-8.271,9.846-15.36l0,0c-1.575-7.089-8.271-11.422-15.36-9.846l-277.662,58.683
		C103.582,160.689,99.249,167.385,100.825,174.474z"/>
	<path style="fill:#2B3B4E;" d="M191.015,403.692L191.015,403.692h123.274l0,0c0-16.935-13.785-30.326-30.72-30.326h-61.834
		C204.8,373.366,191.015,387.151,191.015,403.692z"/>
</g>
<g>
</g>
<g>
</g>
<g>
</g>
<g>
</g>
<g>
</g>
<g>
</g>
<g>
</g>
<g>
</g>
<g>
</g>
<g>
</g>
<g>
</g>
<g>
</g>
<g>
</g>
<g>
</g>
<g>
</g>
</svg>
