<?xml version="1.0" encoding="iso-8859-1"?>
<!-- Generator: Adobe Illustrator 19.0.0, SVG Export Plug-In . SVG Version: 6.00 Build 0)  -->
<svg version="1.1" id="Layer_1" xmlns="http://www.w3.org/2000/svg" xmlns:xlink="http://www.w3.org/1999/xlink" x="0px" y="0px"
	 viewBox="0 0 504.123 504.123" style="enable-background:new 0 0 504.123 504.123;" xml:space="preserve">
<circle style="fill:#FD8469;" cx="252.062" cy="252.062" r="252.062"/>
<polygon style="fill:#FFFFFF;" points="289.083,99.643 121.698,99.643 121.698,379.668 340.283,379.668 340.283,150.843 "/>
<polygon style="fill:#B7B7B7;" points="289.083,150.843 340.283,150.843 289.083,99.643 "/>
<rect x="163.84" y="112.246" style="fill:#54C0EB;" width="66.954" height="7.483"/>
<g>
	<rect x="138.24" y="143.36" style="fill:#EDEDED;" width="126.425" height="7.483"/>
	<rect x="138.24" y="173.292" style="fill:#EDEDED;" width="76.012" height="7.483"/>
</g>
<rect x="257.969" y="222.523" style="fill:#84DBFF;" width="31.114" height="135.483"/>
<rect x="217.797" y="261.908" style="fill:#4CDBC4;" width="31.114" height="96.098"/>
<rect x="177.625" y="301.292" style="fill:#FFD05B;" width="31.114" height="56.714"/>
<g>
	<rect x="137.452" y="340.677" style="fill:#324A5E;" width="31.114" height="17.329"/>
	<polygon style="fill:#324A5E;" points="224.886,196.529 227.249,204.012 246.548,198.105 134.695,309.957 140.209,315.471 
		252.062,203.618 246.154,222.917 253.637,225.28 266.634,183.532 	"/>
	<path style="fill:#324A5E;" d="M402.511,315.471c0,3.151-0.394,6.302-0.788,9.452c-2.363,18.511-12.603,36.234-28.751,50.806
		l-32.689,28.751l-32.689-28.751c-16.542-14.572-26.388-32.295-28.751-50.806c-0.394-3.151-0.788-6.302-0.788-9.452v-48.049
		c0,0,50.806-11.815,62.228-22.055c11.422,10.24,62.228,22.055,62.228,22.055V315.471z"/>
</g>
<path style="fill:#E6E9EE;" d="M391.877,324.923c0.394-2.757,0.394-5.12,0.394-7.877v-40.172c0,0-42.535-9.846-51.988-18.511v66.56
	L391.877,324.923L391.877,324.923z"/>
<path style="fill:#F1543F;" d="M340.677,258.363c-9.452,8.665-51.988,18.511-51.988,18.511v40.566c0,2.757,0,5.12,0.394,7.877
	h51.594V258.363z"/>
<path style="fill:#E6E9EE;" d="M289.083,324.923c1.969,15.754,10.634,30.326,24.025,42.535l27.175,24.025v-66.56H289.083z"/>
<path style="fill:#F1543F;" d="M391.877,324.923c-1.969,15.754-10.634,30.326-24.025,42.535l-27.175,24.025v-66.56H391.877z"/>
<g>
</g>
<g>
</g>
<g>
</g>
<g>
</g>
<g>
</g>
<g>
</g>
<g>
</g>
<g>
</g>
<g>
</g>
<g>
</g>
<g>
</g>
<g>
</g>
<g>
</g>
<g>
</g>
<g>
</g>
</svg>
