<?xml version="1.0" encoding="iso-8859-1"?>
<!-- Generator: Adobe Illustrator 19.0.0, SVG Export Plug-In . SVG Version: 6.00 Build 0)  -->
<svg version="1.1" id="Layer_1" xmlns="http://www.w3.org/2000/svg" xmlns:xlink="http://www.w3.org/1999/xlink" x="0px" y="0px"
	 viewBox="0 0 504.123 504.123" style="enable-background:new 0 0 504.123 504.123;" xml:space="preserve">
<circle style="fill:#324A5E;" cx="252.062" cy="252.062" r="252.062"/>
<path style="fill:#54C0EB;" d="M155.569,94.523c-11.422,0-21.268,9.452-22.055,20.874l-16.542,259.545l1.575-0.788
	c3.938-12.603,14.966-22.055,26.782-22.055h9.846l8.665-257.575H155.569z"/>
<polygon style="fill:#84DBFF;" points="386.757,348.948 369.034,94.523 163.84,94.523 155.569,352.098 198.105,352.098 "/>
<path style="fill:#54C0EB;" d="M386.757,402.905H144.542c-14.966,0-27.175-12.209-27.175-27.175l0,0
	c0-14.966,12.209-27.175,27.175-27.175h242.215V402.905z"/>
<path style="fill:#E6E9EE;" d="M148.48,395.422c-12.603,0-22.843-8.665-22.843-19.692c0-10.634,10.24-19.692,22.843-19.692h238.277
	v38.991L148.48,395.422z"/>
<path style="fill:#FFFFFF;" d="M117.366,376.517v-0.394V376.517L117.366,376.517z"/>
<path style="fill:#324A5E;" d="M256,158.72c-27.175,0-53.169,18.905-59.077,47.262c-3.545,16.542,0.394,33.477,10.24,46.868
	L256,205.982V158.72z"/>
<path style="fill:#FFFFFF;" d="M207.163,253.243c11.028,14.572,28.357,24.418,48.837,24.418c40.96,0,66.56-35.84,59.077-71.286H256
	L207.163,253.243z"/>
<path style="fill:#FF7058;" d="M256,158.72v47.262h59.077C309.169,178.018,283.175,158.72,256,158.72z"/>
<g>
	<rect x="259.545" y="365.095" style="fill:#54C0EB;" width="127.212" height="7.089"/>
	<rect x="226.068" y="379.274" style="fill:#54C0EB;" width="160.689" height="7.089"/>
</g>
<g>
</g>
<g>
</g>
<g>
</g>
<g>
</g>
<g>
</g>
<g>
</g>
<g>
</g>
<g>
</g>
<g>
</g>
<g>
</g>
<g>
</g>
<g>
</g>
<g>
</g>
<g>
</g>
<g>
</g>
</svg>
