<?xml version="1.0" encoding="iso-8859-1"?>
<!-- Generator: Adobe Illustrator 19.0.0, SVG Export Plug-In . SVG Version: 6.00 Build 0)  -->
<svg version="1.1" id="Layer_1" xmlns="http://www.w3.org/2000/svg" xmlns:xlink="http://www.w3.org/1999/xlink" x="0px" y="0px"
	 viewBox="0 0 504.123 504.123" style="enable-background:new 0 0 504.123 504.123;" xml:space="preserve">
<circle style="fill:#84DBFF;" cx="252.062" cy="252.062" r="252.062"/>
<rect x="98.462" y="148.48" style="fill:#FFD05B;" width="280.418" height="190.228"/>
<rect x="117.76" y="167.385" style="fill:#FFFFFF;" width="241.822" height="152.418"/>
<rect x="98.462" y="99.643" style="fill:#324A5E;" width="280.418" height="48.837"/>
<g>
	<path style="fill:#FFFFFF;" d="M268.603,130.363h-11.815c-3.545,0-6.302-2.757-6.302-6.302l0,0c0-3.545,2.757-6.302,6.302-6.302
		h11.815c3.545,0,6.302,2.757,6.302,6.302l0,0C274.905,127.606,272.148,130.363,268.603,130.363z"/>
	<path style="fill:#FFFFFF;" d="M311.138,130.363h-11.815c-3.545,0-6.302-2.757-6.302-6.302l0,0c0-3.545,2.757-6.302,6.302-6.302
		h11.815c3.545,0,6.302,2.757,6.302,6.302l0,0C317.046,127.606,314.289,130.363,311.138,130.363z"/>
	<path style="fill:#FFFFFF;" d="M353.28,130.363h-11.815c-3.545,0-6.302-2.757-6.302-6.302l0,0c0-3.545,2.757-6.302,6.302-6.302
		h11.815c3.545,0,6.302,2.757,6.302,6.302l0,0C359.582,127.606,356.825,130.363,353.28,130.363z"/>
</g>
<rect x="144.935" y="194.56" style="fill:#54C0EB;" width="35.84" height="35.446"/>
<rect x="194.954" y="205.588" style="fill:#324A5E;" width="137.058" height="13.391"/>
<rect x="144.935" y="257.182" style="fill:#F1543F;" width="35.84" height="35.446"/>
<rect x="194.954" y="268.603" style="fill:#ACB3BA;" width="137.058" height="13.391"/>
<path style="fill:#324A5E;" d="M407.631,259.938c-20.48-4.726-51.988-14.178-58.683-20.48l-5.12-4.726l-5.12,5.12
	c-6.695,6.302-38.203,15.36-58.683,20.48l-5.908,1.575v54.351c0,3.151,0.394,6.695,0.788,10.24
	c2.757,20.48,13.785,39.778,31.508,55.532l37.809,33.477l37.809-33.477c17.723-15.754,28.751-34.658,31.508-55.532
	c0.394-3.545,0.788-7.089,0.788-10.24v-54.745L407.631,259.938z M405.662,315.865c0,3.151-0.394,6.302-0.788,9.452
	c-2.363,18.511-12.603,36.234-28.751,50.806l-32.689,28.751l-32.295-29.145c-16.542-14.572-26.388-32.295-28.751-50.806
	c-0.394-3.151-0.788-6.302-0.788-9.452v-48.049c0,0,50.806-11.815,62.228-22.055c11.422,10.24,62.228,22.055,62.228,22.055v48.443
	H405.662z"/>
<path style="fill:#FFFFFF;" d="M405.662,315.865c0,3.151-0.394,6.302-0.788,9.452c-2.363,18.511-12.603,36.234-28.751,50.806
	l-32.689,28.751l-32.295-29.145c-16.542-14.572-26.388-32.295-28.751-50.806c-0.394-3.151-0.788-6.302-0.788-9.452v-48.049
	c0,0,50.806-11.815,62.228-22.055c11.422,10.24,62.228,22.055,62.228,22.055v48.443H405.662z"/>
<path style="fill:#E6E9EE;" d="M395.422,324.923c0.394-2.757,0.394-5.12,0.394-7.877v-40.172c0,0-42.535-9.846-51.988-18.511v66.56
	L395.422,324.923L395.422,324.923z"/>
<path style="fill:#F1543F;" d="M343.828,258.363c-9.452,8.665-51.988,18.511-51.988,18.511v40.566c0,2.757,0,5.12,0.394,7.877
	h51.594V258.363z"/>
<path style="fill:#E6E9EE;" d="M292.234,324.923c1.969,15.754,10.634,30.326,24.025,42.535l27.175,24.025v-66.56H292.234z"/>
<path style="fill:#F1543F;" d="M395.422,324.923c-1.969,15.754-10.634,30.326-24.025,42.535l-27.175,24.025v-66.56H395.422z"/>
<g>
</g>
<g>
</g>
<g>
</g>
<g>
</g>
<g>
</g>
<g>
</g>
<g>
</g>
<g>
</g>
<g>
</g>
<g>
</g>
<g>
</g>
<g>
</g>
<g>
</g>
<g>
</g>
<g>
</g>
</svg>
