<?xml version="1.0" encoding="iso-8859-1"?>
<!-- Generator: Adobe Illustrator 19.0.0, SVG Export Plug-In . SVG Version: 6.00 Build 0)  -->
<svg version="1.1" id="Layer_1" xmlns="http://www.w3.org/2000/svg" xmlns:xlink="http://www.w3.org/1999/xlink" x="0px" y="0px"
	 viewBox="0 0 504.123 504.123" style="enable-background:new 0 0 504.123 504.123;" xml:space="preserve">
<circle style="fill:#84DBFF;" cx="252.062" cy="252.062" r="252.062"/>
<path style="fill:#2B3B4E;" d="M392.271,158.72h-27.175v-13.785c0-3.938,3.151-7.483,7.483-7.483h12.209
	c3.938,0,7.483,3.151,7.483,7.483V158.72z"/>
<polygon style="fill:#F1543F;" points="417.477,248.911 410.388,248.911 410.388,180.382 400.542,180.382 400.542,173.292 
	417.477,173.292 "/>
<path style="fill:#F1543F;" d="M400.542,309.169V163.446c0-2.757-1.969-4.726-4.726-4.726h-33.871c-2.757,0-4.726,1.969-4.726,4.726
	v145.329c0,11.815,1.575,23.631,4.332,35.052h34.658C398.966,332.8,400.542,320.985,400.542,309.169z"/>
<g>
	<path style="fill:#FFFFFF;" d="M361.157,344.222c2.757,12.209,7.089,24.025,12.997,35.052c1.575,2.757,2.757,5.514,4.332,8.271
		c1.575-2.757,3.151-5.514,4.332-8.271c5.908-11.028,10.24-22.843,12.997-35.052H361.157z"/>
	<rect x="367.458" y="191.803" style="fill:#FFFFFF;" width="10.634" height="119.335"/>
</g>
<rect x="102.4" y="94.523" style="fill:#324A5E;" width="244.972" height="315.077"/>
<rect x="118.154" y="113.428" style="fill:#CED5E0;" width="213.465" height="66.954"/>
<rect x="118.154" y="215.828" style="fill:#F1543F;" width="38.203" height="17.329"/>
<rect x="176.443" y="215.828" style="fill:#2C9984;" width="38.203" height="17.329"/>
<rect x="234.732" y="215.828" style="fill:#FFFFFF;" width="38.203" height="17.329"/>
<rect x="293.415" y="215.828" style="fill:#F9B54C;" width="38.203" height="17.329"/>
<g>
	<rect x="118.154" y="243.397" style="fill:#CED5E0;" width="38.203" height="38.203"/>
	<rect x="176.443" y="243.397" style="fill:#CED5E0;" width="38.203" height="38.203"/>
	<rect x="234.732" y="243.397" style="fill:#CED5E0;" width="38.203" height="38.203"/>
	<rect x="293.415" y="243.397" style="fill:#CED5E0;" width="38.203" height="38.203"/>
	<rect x="118.154" y="297.748" style="fill:#CED5E0;" width="38.203" height="38.203"/>
	<rect x="176.443" y="297.748" style="fill:#CED5E0;" width="38.203" height="38.203"/>
	<rect x="234.732" y="297.748" style="fill:#CED5E0;" width="38.203" height="38.203"/>
	<rect x="293.415" y="297.748" style="fill:#CED5E0;" width="38.203" height="38.203"/>
	<rect x="118.154" y="352.492" style="fill:#CED5E0;" width="38.203" height="38.203"/>
</g>
<rect x="176.443" y="352.492" style="fill:#2C9984;" width="38.203" height="38.203"/>
<rect x="234.732" y="352.492" style="fill:#CED5E0;" width="38.203" height="38.203"/>
<rect x="293.415" y="352.492" style="fill:#F1543F;" width="38.203" height="38.203"/>
<rect x="102.4" y="195.348" style="fill:#2B3B4E;" width="244.972" height="5.908"/>
<g>
</g>
<g>
</g>
<g>
</g>
<g>
</g>
<g>
</g>
<g>
</g>
<g>
</g>
<g>
</g>
<g>
</g>
<g>
</g>
<g>
</g>
<g>
</g>
<g>
</g>
<g>
</g>
<g>
</g>
</svg>
