<?xml version="1.0" encoding="iso-8859-1"?>
<!-- Generator: Adobe Illustrator 19.0.0, SVG Export Plug-In . SVG Version: 6.00 Build 0)  -->
<svg version="1.1" id="Layer_1" xmlns="http://www.w3.org/2000/svg" xmlns:xlink="http://www.w3.org/1999/xlink" x="0px" y="0px"
	 viewBox="0 0 504.123 504.123" style="enable-background:new 0 0 504.123 504.123;" xml:space="preserve">
<circle style="fill:#FFD05B;" cx="252.062" cy="252.062" r="252.062"/>
<path style="fill:#F4F4F4;" d="M395.028,114.215H109.095c-7.877,0-14.572,6.302-14.572,14.572v217.797
	c0,7.877,6.302,14.572,14.572,14.572h11.815v68.135l92.948-68.135l0,0h181.563c7.877,0,14.572-6.302,14.572-14.572V128.788
	C409.6,120.517,403.298,114.215,395.028,114.215z"/>
<path style="fill:#2C9984;" d="M185.895,157.538c-35.84,0-64.985,29.145-64.985,64.985h64.985V157.538z"/>
<path style="fill:#F1543F;" d="M191.803,157.538v64.985l46.08,46.08c11.815-11.815,18.905-27.963,18.905-46.08
	C256.788,186.683,228.037,157.538,191.803,157.538z"/>
<path style="fill:#324A5E;" d="M120.911,228.431c0,35.84,29.145,64.985,64.985,64.985c18.117,0,34.265-7.089,46.08-18.905
	l-46.08-46.08H120.911z"/>
<g>
	<rect x="296.566" y="151.631" style="fill:#ACB3BA;" width="85.858" height="11.815"/>
	<rect x="296.566" y="191.803" style="fill:#ACB3BA;" width="85.858" height="11.815"/>
	<rect x="296.566" y="232.369" style="fill:#ACB3BA;" width="85.858" height="11.815"/>
	<rect x="296.566" y="272.542" style="fill:#ACB3BA;" width="85.858" height="11.815"/>
	<rect x="122.88" y="313.108" style="fill:#ACB3BA;" width="258.363" height="11.815"/>
</g>
<g>
</g>
<g>
</g>
<g>
</g>
<g>
</g>
<g>
</g>
<g>
</g>
<g>
</g>
<g>
</g>
<g>
</g>
<g>
</g>
<g>
</g>
<g>
</g>
<g>
</g>
<g>
</g>
<g>
</g>
</svg>
