<?xml version="1.0" encoding="iso-8859-1"?>
<!-- Generator: Adobe Illustrator 19.0.0, SVG Export Plug-In . SVG Version: 6.00 Build 0)  -->
<svg version="1.1" id="Layer_1" xmlns="http://www.w3.org/2000/svg" xmlns:xlink="http://www.w3.org/1999/xlink" x="0px" y="0px"
	 viewBox="0 0 504.123 504.123" style="enable-background:new 0 0 504.123 504.123;" xml:space="preserve">
<circle style="fill:#FFD05B;" cx="252.062" cy="252.062" r="252.062"/>
<path style="fill:#F2F2F2;" d="M268.997,100.037H115.003c-3.938,0-7.483,3.151-7.483,7.483v281.6c0,3.938,3.151,7.483,7.483,7.483
	H317.44c3.938,0,7.483-3.151,7.483-7.483V155.963c0-1.969-0.788-3.938-2.363-5.12l-48.049-48.837
	C272.935,100.825,270.966,100.037,268.997,100.037z"/>
<path style="fill:#4CDBC4;" d="M380.455,125.243h-25.6V107.52c0-3.938,3.151-7.483,7.483-7.483h10.634
	c3.938,0,7.483,3.151,7.483,7.483V125.243z"/>
<polygon style="fill:#FF7058;" points="404.086,232.369 397.391,232.369 397.391,150.843 388.332,150.843 388.332,142.178 
	404.086,142.178 "/>
<path style="fill:#324A5E;" d="M388.332,303.655V130.757c0-3.151-1.969-5.514-4.332-5.514h-31.902c-2.363,0-4.332,2.363-4.332,5.514
	v172.898c0,14.178,1.575,27.963,3.938,41.748h32.689C386.757,331.618,388.332,317.834,388.332,303.655z"/>
<path style="fill:#2B3B4E;" d="M367.852,396.209c1.575-3.151,2.757-6.302,4.332-9.452h-8.271
	C365.095,389.908,366.277,393.058,367.852,396.209z"/>
<path style="fill:#E6E9EE;" d="M351.311,345.403c2.757,14.178,6.695,28.357,12.209,41.354h8.271
	c5.514-12.997,9.452-27.175,12.209-41.354H351.311z"/>
<rect x="354.855" y="159.902" style="fill:#ACB3BA;" width="9.452" height="150.843"/>
<path style="fill:#CCCCCC;" d="M279.631,152.812h42.929c0.788,0,1.182-1.182,0.788-1.575l-49.625-49.625
	c-0.788-0.788-1.575,0-1.575,0.788v42.929C272.148,149.268,275.298,152.812,279.631,152.812z"/>
<rect x="125.243" y="126.818" style="fill:#4CDBC4;" width="108.308" height="15.36"/>
<g>
	<rect x="125.243" y="177.231" style="fill:#DBDBDB;" width="181.563" height="7.483"/>
	<rect x="125.243" y="198.105" style="fill:#DBDBDB;" width="181.563" height="7.483"/>
	<rect x="125.243" y="219.372" style="fill:#DBDBDB;" width="132.332" height="7.483"/>
	<rect x="125.243" y="240.64" style="fill:#DBDBDB;" width="163.84" height="7.483"/>
	<rect x="125.243" y="261.908" style="fill:#DBDBDB;" width="174.868" height="7.483"/>
	<rect x="125.243" y="283.175" style="fill:#DBDBDB;" width="132.332" height="7.483"/>
	<rect x="125.243" y="304.049" style="fill:#DBDBDB;" width="181.563" height="7.483"/>
</g>
<polygon style="fill:#F1543F;" points="179.988,355.249 174.868,350.129 177.625,342.646 170.929,340.283 170.929,333.194 
	163.446,333.194 160.295,326.498 153.994,329.255 148.874,324.135 143.754,329.649 136.271,326.892 133.908,333.194 
	127.212,333.194 127.212,341.071 120.123,344.222 122.88,350.523 117.76,355.249 123.274,360.763 120.517,367.852 127.212,370.609 
	127.212,377.305 134.695,377.305 137.846,384.394 144.148,381.637 148.874,386.363 154.388,380.849 161.477,384 164.234,377.305 
	170.929,377.305 170.929,369.822 178.018,366.671 175.262,360.369 "/>
<circle style="fill:#FF7058;" cx="148.874" cy="355.249" r="22.843"/>
<path style="fill:#54C0EB;" d="M231.582,376.911L231.582,376.911c-1.969,0-3.151-0.788-3.938-2.363
	c-1.182-1.969-0.394-5.12,1.575-6.695c0.394-0.394,1.182-0.788,1.575-1.182c0.394,0,0.394-0.394,0.788-0.394
	c1.969-1.575,2.757-4.332,3.545-7.089c1.575-7.089,2.757-14.178,3.545-22.449c0-0.788,0.788-1.575,1.575-1.575
	s1.575,0.394,1.969,1.575c1.575,6.695,2.757,13.391,3.938,20.086c0.788-0.788,1.575-1.182,2.757-1.969
	c0.788-0.788,1.969-0.394,2.363,0c0,0,0,0,0,0.394l5.908-3.545c0.394-0.394,1.182-0.394,1.969,0
	c0.394,0.394,0.788,0.788,0.788,1.575c0,0.788,0,1.182,0,1.969c0.394,0,0.788,0,0.788,0.394c0.394,0.394,0.788,1.182,0.788,1.575
	c0,0.394,0,0.788-0.394,1.575c3.151-2.363,5.908-4.726,8.665-7.089c6.302-5.514,12.997-11.028,20.874-14.966
	c0.788-0.394,1.969,0,2.363,0.788c0.394,0.788,0,1.969-0.788,2.363c-7.089,3.938-13.785,9.452-20.086,14.572
	c-4.726,3.938-9.452,7.877-14.966,11.422c-1.182,1.182-2.757,2.363-4.332,3.545c-3.151,1.969-7.089,3.151-11.422,3.545
	c-0.788,0-1.575,0-1.969,0l0,0c-1.182,0-1.969-0.788-1.969-1.969c0-1.182,0.788-1.969,1.575-1.969c0.788,0,1.182,0,1.969,0
	c1.969-0.394,3.938-1.182,6.695-2.363c1.575-0.788,2.757-1.575,4.332-2.363c-0.394-0.394-0.394-0.788,0-1.182
	c0.394-2.363,1.575-4.332,3.545-5.908c0-0.394,0-0.394,0-0.788l-3.151,1.969c-0.394,0.394-1.575,0.788-2.757,0.788
	c-0.394,0-0.394,0-0.788-0.394c-1.969,1.575-4.332,3.151-6.695,4.726c-0.788,0.394-1.969,0.394-2.363-0.394
	c-0.394-0.394-0.788-1.182-0.394-1.969c0-0.788,0.788-1.969,1.575-2.363c0.394,0,0.394-0.394,0.788-0.394l0.394-0.394v-0.394
	c-0.394-2.757-0.788-5.514-1.575-8.665c-0.394,3.938-1.182,7.877-2.363,11.422c-0.788,3.545-1.969,7.089-5.12,9.058
	c-0.394,0.394-0.788,0.394-1.182,0.788c-0.394,0.394-0.788,0.394-1.182,0.788c-0.788,0.788-0.788,1.575-0.788,2.363
	c0,0,0.394,0.394,0.788,0.394c0.394-0.788,1.969-1.182,2.757-0.394c0.788,0.394,1.182,1.575,0.788,2.363
	C234.338,376.517,233.157,376.911,231.582,376.911z"/>
<g>
</g>
<g>
</g>
<g>
</g>
<g>
</g>
<g>
</g>
<g>
</g>
<g>
</g>
<g>
</g>
<g>
</g>
<g>
</g>
<g>
</g>
<g>
</g>
<g>
</g>
<g>
</g>
<g>
</g>
</svg>
