<?xml version="1.0" encoding="iso-8859-1"?>
<!-- Generator: Adobe Illustrator 19.0.0, SVG Export Plug-In . SVG Version: 6.00 Build 0)  -->
<svg version="1.1" id="Layer_1" xmlns="http://www.w3.org/2000/svg" xmlns:xlink="http://www.w3.org/1999/xlink" x="0px" y="0px"
	 viewBox="0 0 504.123 504.123" style="enable-background:new 0 0 504.123 504.123;" xml:space="preserve">
<circle style="fill:#324A5E;" cx="252.062" cy="252.062" r="252.062"/>
<g>
	<polygon style="fill:#F9B54C;" points="252.455,70.498 252.062,70.105 94.523,201.255 409.6,201.255 	"/>
	<polygon style="fill:#F9B54C;" points="94.523,201.255 94.523,201.255 252.062,320.197 409.206,201.649 409.6,201.255 
		409.6,201.255 	"/>
</g>
<path style="fill:#54C0EB;" d="M172.898,301.292l63.015-124.455c1.969-3.938,7.089-5.514,11.028-3.545l80.738,40.96
	c3.938,1.969,5.514,7.089,3.545,11.028l-63.015,124.455c-1.969,3.938-7.089,5.514-11.028,3.545l-80.738-40.96
	C172.111,309.957,170.535,305.231,172.898,301.292z"/>
<polygon style="fill:#2B3B4E;" points="275.692,201.649 284.751,198.498 287.902,207.557 "/>
<g>
	
		<rect x="234.597" y="196.103" transform="matrix(0.4527 -0.8917 0.8917 0.4527 -45.4457 326.0437)" style="fill:#FFFFFF;" width="16.542" height="7.877"/>
	
		<rect x="222.809" y="219.391" transform="matrix(0.4527 -0.8917 0.8917 0.4527 -72.6625 328.2789)" style="fill:#FFFFFF;" width="16.542" height="7.877"/>
	
		<rect x="211.022" y="242.679" transform="matrix(0.4527 -0.8917 0.8917 0.4527 -99.8792 330.5142)" style="fill:#FFFFFF;" width="16.542" height="7.877"/>
	
		<rect x="199.234" y="265.971" transform="matrix(0.4527 -0.8917 0.8917 0.4527 -127.0994 332.7516)" style="fill:#FFFFFF;" width="16.542" height="7.877"/>
	
		<rect x="187.447" y="289.263" transform="matrix(0.4527 -0.8917 0.8917 0.4527 -154.3196 334.989)" style="fill:#FFFFFF;" width="16.542" height="7.877"/>
</g>
<g>
	
		<rect x="249.485" y="219.914" transform="matrix(0.4527 -0.8917 0.8917 0.4527 -53.0322 361.3074)" style="fill:#324A5E;" width="36.629" height="7.877"/>
	
		<rect x="223.028" y="219.549" transform="matrix(0.4527 -0.8917 0.8917 0.4527 -62.8753 344.54)" style="fill:#324A5E;" width="52.383" height="7.877"/>
</g>
<path style="fill:#FFD05B;" d="M276.086,235.126l9.058-17.723c1.182-2.363,3.938-3.151,6.302-1.969l17.723,9.058
	c2.363,1.182,3.151,3.938,1.969,6.302l-9.452,17.329c-1.182,2.363-3.938,3.151-6.302,1.969l-17.723-9.058
	C275.692,239.852,274.905,237.095,276.086,235.126z"/>
<g>
	<polygon style="fill:#324A5E;" points="308.382,235.126 309.563,232.763 301.292,228.825 304.443,222.129 302.08,220.948 
		297.354,230.006 	"/>
	<polygon style="fill:#324A5E;" points="294.991,241.034 303.262,245.366 304.443,243.003 293.809,237.489 289.083,246.548 
		291.446,248.123 	"/>
	<polygon style="fill:#324A5E;" points="295.385,217.403 289.477,229.218 280.812,224.886 279.631,227.249 288.295,231.582 
		282.388,243.397 284.751,244.578 297.748,218.585 	"/>
</g>
<polygon style="fill:#FFD55C;" points="252.062,320.197 94.917,201.649 94.917,386.757 409.206,386.757 409.206,201.649 
	409.206,201.649 "/>
<polygon style="fill:#F9B54C;" points="409.206,385.969 281.6,298.142 281.206,297.748 252.062,320.197 222.917,298.142 
	222.917,297.748 94.917,385.969 94.917,386.757 409.206,386.757 409.206,385.969 "/>
<g>
</g>
<g>
</g>
<g>
</g>
<g>
</g>
<g>
</g>
<g>
</g>
<g>
</g>
<g>
</g>
<g>
</g>
<g>
</g>
<g>
</g>
<g>
</g>
<g>
</g>
<g>
</g>
<g>
</g>
</svg>
