<?xml version="1.0" encoding="iso-8859-1"?>
<!-- Generator: Adobe Illustrator 19.0.0, SVG Export Plug-In . SVG Version: 6.00 Build 0)  -->
<svg version="1.1" id="Layer_1" xmlns="http://www.w3.org/2000/svg" xmlns:xlink="http://www.w3.org/1999/xlink" x="0px" y="0px"
	 viewBox="0 0 504.123 504.123" style="enable-background:new 0 0 504.123 504.123;" xml:space="preserve">
<circle style="fill:#FFD05B;" cx="252.062" cy="252.062" r="252.062"/>
<path style="fill:#324A5E;" d="M346.978,409.206H115.003c-11.422,0-20.874-9.452-20.874-20.874V242.215
	c0-11.422,9.452-20.874,20.874-20.874h231.975c11.422,0,20.874,9.452,20.874,20.874v146.117
	C367.852,400.148,358.4,409.206,346.978,409.206z"/>
<rect x="115.791" y="307.594" style="fill:#FFFFFF;" width="83.495" height="14.966"/>
<path style="fill:#FFD05B;" d="M153.994,289.477h-33.477c-2.363,0-4.726-1.969-4.726-4.726v-33.477c0-2.363,1.969-4.726,4.726-4.726
	h33.477c2.363,0,4.726,1.969,4.726,4.726v33.477C158.72,287.114,156.357,289.477,153.994,289.477z"/>
<g>
	<polygon style="fill:#F9B54C;" points="153.994,269.785 142.178,269.785 142.178,258.757 158.72,258.757 158.72,256.394 
		136.271,256.394 136.271,246.548 133.908,246.548 133.908,258.757 139.422,258.757 139.422,272.148 151.631,272.148 
		151.631,289.477 153.994,289.477 	"/>
	<polygon style="fill:#F9B54C;" points="129.969,275.692 129.969,265.452 135.089,265.452 135.089,262.695 125.243,262.695 
		125.243,246.548 122.486,246.548 122.486,265.452 127.212,265.452 127.212,274.511 115.791,274.511 115.791,276.874 
		127.212,276.874 127.212,289.477 129.969,289.477 129.969,276.874 	"/>
</g>
<polygon style="fill:#324A5E;" points="348.948,305.625 348.948,325.317 363.52,315.471 "/>
<rect x="115.791" y="340.677" style="fill:#FFFFFF;" width="24.812" height="14.572"/>
<rect x="155.963" y="340.677" style="fill:#54C0EB;" width="24.812" height="14.572"/>
<rect x="196.135" y="340.677" style="fill:#2C9984;" width="24.812" height="14.572"/>
<g>
	<rect x="236.702" y="340.677" style="fill:#F1543F;" width="24.812" height="14.572"/>
	<path style="fill:#F1543F;" d="M335.557,94.917c-40.96,0-74.043,25.6-74.043,56.714c0,15.36,7.877,29.145,20.874,39.385
		l-9.059,24.025l27.963-13.391c10.24,4.332,22.055,6.695,34.265,6.695c40.96,0,74.043-25.6,74.043-56.714
		S376.517,94.917,335.557,94.917z"/>
</g>
<path style="fill:#FFFFFF;" d="M376.911,166.991h-82.708c-8.271,0-14.966-6.695-14.966-14.966v-1.182
	c0-8.271,6.695-14.966,14.966-14.966h82.314c8.271,0,14.966,6.695,14.966,14.966v1.182
	C391.877,160.295,385.182,166.991,376.911,166.991z"/>
<g>
	<polygon style="fill:#324A5E;" points="333.194,146.117 330.437,143.36 326.498,147.298 326.498,141.785 322.954,141.785 
		322.954,147.298 319.015,143.36 316.258,146.117 320.197,150.055 314.683,150.055 314.683,153.6 320.197,153.6 316.258,157.538 
		319.015,159.902 322.954,155.963 322.954,161.477 326.498,161.477 326.498,155.963 330.437,159.902 333.194,157.538 329.255,153.6 
		334.769,153.6 334.769,150.055 329.255,150.055 	"/>
	<polygon style="fill:#324A5E;" points="356.431,146.117 354.068,143.36 350.129,147.298 350.129,141.785 346.585,141.785 
		346.585,147.298 342.252,143.36 339.889,146.117 343.828,150.055 338.314,150.055 338.314,153.6 343.828,153.6 339.889,157.538 
		342.252,159.902 346.585,155.963 346.585,161.477 350.129,161.477 350.129,155.963 354.068,159.902 356.431,157.538 352.492,153.6 
		358.006,153.6 358.006,150.055 352.492,150.055 	"/>
	<polygon style="fill:#324A5E;" points="381.637,150.055 376.123,150.055 380.062,146.117 377.305,143.36 373.366,147.298 
		373.366,141.785 369.822,141.785 369.822,147.298 365.883,143.36 363.52,146.117 367.458,150.055 361.551,150.055 361.551,153.6 
		367.458,153.6 363.52,157.538 365.883,159.902 369.822,155.963 369.822,161.477 373.366,161.477 373.366,155.963 377.305,159.902 
		380.062,157.538 376.123,153.6 381.637,153.6 	"/>
	<polygon style="fill:#324A5E;" points="309.563,146.117 307.2,143.36 303.262,147.298 303.262,141.785 299.323,141.785 
		299.323,147.298 295.385,143.36 293.022,146.117 296.96,150.055 291.446,150.055 291.446,153.6 296.96,153.6 293.022,157.538 
		295.385,159.902 299.323,155.963 299.323,161.477 303.262,161.477 303.262,155.963 307.2,159.902 309.563,157.538 305.625,153.6 
		311.138,153.6 311.138,150.055 305.625,150.055 	"/>
</g>
<circle style="fill:#4CDBC4;" cx="290.265" cy="368.246" r="21.662"/>
<circle style="fill:#FFFFFF;" cx="324.923" cy="368.246" r="21.662"/>
<g>
</g>
<g>
</g>
<g>
</g>
<g>
</g>
<g>
</g>
<g>
</g>
<g>
</g>
<g>
</g>
<g>
</g>
<g>
</g>
<g>
</g>
<g>
</g>
<g>
</g>
<g>
</g>
<g>
</g>
</svg>
