<?xml version="1.0" encoding="iso-8859-1"?>
<!-- Generator: Adobe Illustrator 19.0.0, SVG Export Plug-In . SVG Version: 6.00 Build 0)  -->
<svg version="1.1" id="Layer_1" xmlns="http://www.w3.org/2000/svg" xmlns:xlink="http://www.w3.org/1999/xlink" x="0px" y="0px"
	 viewBox="0 0 504.123 504.123" style="enable-background:new 0 0 504.123 504.123;" xml:space="preserve">
<circle style="fill:#FFD05B;" cx="252.062" cy="252.062" r="252.062"/>
<polygon style="fill:#2B3B4E;" points="223.705,391.089 133.12,235.126 252.062,118.548 265.846,132.726 156.357,240.246 
	242.215,384 "/>
<path style="fill:#F1543F;" d="M333.982,372.972H194.56c-26.388,0-48.049,19.692-48.049,43.717l0,0h227.643v-7.483
	C373.76,389.12,356.037,372.972,333.982,372.972z"/>
<path style="fill:#324A5E;" d="M149.268,205.194c-19.692,0-35.446,16.148-35.446,35.446c0,19.692,16.148,35.446,35.446,35.446
	s35.446-16.148,35.446-35.446C184.714,220.948,168.96,205.194,149.268,205.194z"/>
<circle style="fill:#ACB3BA;" cx="149.268" cy="240.64" r="17.329"/>
<path style="fill:#324A5E;" d="M324.529,372.972h-40.172v-9.846c0-2.363,1.575-3.938,3.938-3.938h32.295
	c2.363,0,3.938,1.575,3.938,3.938L324.529,372.972L324.529,372.972z"/>
<circle style="fill:#FFFFFF;" cx="333.194" cy="192.985" r="32.295"/>
<path style="fill:#ACB3BA;" d="M311.138,125.243l-45.292,45.686l-31.508-31.508c-8.271-8.271-8.271-21.268,0-29.538l15.754-15.754
	c8.271-8.271,21.268-8.271,29.538,0L311.138,125.243z"/>
<path style="fill:#324A5E;" d="M381.243,129.969c-30.72-29.538-79.557-29.538-109.883,0.788s-30.72,79.163-0.788,109.883
	L381.243,129.969z"/>
<g>
</g>
<g>
</g>
<g>
</g>
<g>
</g>
<g>
</g>
<g>
</g>
<g>
</g>
<g>
</g>
<g>
</g>
<g>
</g>
<g>
</g>
<g>
</g>
<g>
</g>
<g>
</g>
<g>
</g>
</svg>
