<?xml version="1.0" encoding="iso-8859-1"?>
<!-- Generator: Adobe Illustrator 19.0.0, SVG Export Plug-In . SVG Version: 6.00 Build 0)  -->
<svg version="1.1" id="Layer_1" xmlns="http://www.w3.org/2000/svg" xmlns:xlink="http://www.w3.org/1999/xlink" x="0px" y="0px"
	 viewBox="0 0 504.123 504.123" style="enable-background:new 0 0 504.123 504.123;" xml:space="preserve">
<circle style="fill:#90DFAA;" cx="252.062" cy="252.062" r="252.062"/>
<g>
	<path style="fill:#FF7058;" d="M291.446,215.828h-78.769c-11.028,0-19.298-9.452-18.117-20.086l9.846-97.28
		c1.182-12.209,11.422-21.662,23.631-21.662h47.655c12.209,0,22.449,9.452,23.631,21.662l9.846,97.28
		C310.745,206.375,302.474,215.828,291.446,215.828z"/>
	<path style="fill:#FF7058;" d="M339.495,293.809H164.628c-4.726,0-8.271-3.938-8.271-8.271v-16.148
		c0-4.726,3.938-8.271,8.271-8.271h174.474c4.726,0,8.271,3.938,8.271,8.271v16.148
		C347.766,289.871,343.828,293.809,339.495,293.809z"/>
</g>
<g>
	<path style="fill:#324A5E;" d="M162.658,219.372c-5.12,0-9.452,4.332-9.452,9.452l0,0c0,5.12,4.332,9.452,9.452,9.452h12.209
		v22.449h12.603v-30.72c0-5.908-4.726-10.634-10.634-10.634L162.658,219.372L162.658,219.372z"/>
	<path style="fill:#324A5E;" d="M341.465,219.372c5.12,0,9.452,4.332,9.452,9.452l0,0c0,5.12-4.332,9.452-9.452,9.452h-12.209
		v22.449h-12.603v-30.72c0-5.908,4.726-10.634,10.634-10.634L341.465,219.372L341.465,219.372z"/>
</g>
<g>
	<circle style="fill:#F1543F;" cx="222.917" cy="108.308" r="7.089"/>
	<circle style="fill:#F1543F;" cx="252.062" cy="108.308" r="7.089"/>
	<circle style="fill:#F1543F;" cx="281.206" cy="108.308" r="7.089"/>
	<circle style="fill:#F1543F;" cx="222.917" cy="135.483" r="7.089"/>
	<circle style="fill:#F1543F;" cx="252.062" cy="135.483" r="7.089"/>
	<circle style="fill:#F1543F;" cx="281.206" cy="135.483" r="7.089"/>
	<circle style="fill:#F1543F;" cx="222.917" cy="163.052" r="7.089"/>
	<circle style="fill:#F1543F;" cx="252.062" cy="163.052" r="7.089"/>
	<circle style="fill:#F1543F;" cx="281.206" cy="163.052" r="7.089"/>
	<circle style="fill:#F1543F;" cx="222.917" cy="190.228" r="7.089"/>
	<circle style="fill:#F1543F;" cx="252.062" cy="190.228" r="7.089"/>
	<circle style="fill:#F1543F;" cx="281.206" cy="190.228" r="7.089"/>
	<rect x="217.403" y="293.809" style="fill:#F1543F;" width="69.317" height="18.511"/>
</g>
<g>
	<polygon style="fill:#324A5E;" points="270.572,328.468 264.665,328.468 264.665,312.32 239.458,312.32 239.458,328.468 
		233.551,328.468 233.551,346.978 239.458,346.978 239.458,363.126 264.665,363.126 264.665,346.978 270.572,346.978 	"/>
	<path style="fill:#324A5E;" d="M307.2,355.249H196.923c-20.874,0-37.415,16.935-37.415,37.415h15.754
		c0-12.209,9.846-22.055,22.055-22.055h47.262v28.357h15.754v-28.357h47.262c12.209,0,22.055,9.846,22.055,22.055h15.754
		C344.615,372.185,327.68,355.249,307.2,355.249z"/>
	<rect x="222.917" y="225.28" style="fill:#324A5E;" width="58.289" height="25.6"/>
</g>
<circle style="fill:#2B3B4E;" cx="166.991" cy="408.812" r="18.511"/>
<circle style="fill:#324A5E;" cx="166.991" cy="408.812" r="13.785"/>
<circle style="fill:#2B3B4E;" cx="252.062" cy="408.812" r="18.511"/>
<circle style="fill:#324A5E;" cx="252.062" cy="408.812" r="13.785"/>
<circle style="fill:#2B3B4E;" cx="337.132" cy="408.812" r="18.511"/>
<circle style="fill:#324A5E;" cx="337.132" cy="408.812" r="13.785"/>
<g>
</g>
<g>
</g>
<g>
</g>
<g>
</g>
<g>
</g>
<g>
</g>
<g>
</g>
<g>
</g>
<g>
</g>
<g>
</g>
<g>
</g>
<g>
</g>
<g>
</g>
<g>
</g>
<g>
</g>
</svg>
