<?xml version="1.0" encoding="iso-8859-1"?>
<!-- Generator: Adobe Illustrator 19.0.0, SVG Export Plug-In . SVG Version: 6.00 Build 0)  -->
<svg version="1.1" id="Layer_1" xmlns="http://www.w3.org/2000/svg" xmlns:xlink="http://www.w3.org/1999/xlink" x="0px" y="0px"
	 viewBox="0 0 504.123 504.123" style="enable-background:new 0 0 504.123 504.123;" xml:space="preserve">
<circle style="fill:#FFD05B;" cx="252.062" cy="252.062" r="252.062"/>
<polygon style="fill:#324A5E;" points="94.523,102.4 94.523,167.385 94.523,401.723 409.6,401.723 409.6,167.385 409.6,102.4 "/>
<g>
	<rect x="111.065" y="167.385" style="fill:#FFFFFF;" width="282.388" height="218.191"/>
	<rect x="111.065" y="125.637" style="fill:#FFFFFF;" width="35.446" height="17.329"/>
</g>
<rect x="165.809" y="125.637" style="fill:#54C0EB;" width="35.446" height="17.329"/>
<rect x="220.554" y="125.637" style="fill:#F1543F;" width="35.446" height="17.329"/>
<polygon style="fill:#FF7058;" points="371.003,212.283 326.892,179.2 326.892,198.498 265.846,198.498 265.846,226.068 
	326.892,226.068 326.892,244.972 "/>
<polygon style="fill:#ACB3BA;" points="124.849,336.345 168.566,369.428 168.566,350.129 232.763,350.129 232.763,322.56 
	168.566,322.56 168.566,303.262 "/>
<circle style="fill:#2C9984;" cx="317.046" cy="315.471" r="53.957"/>
<path style="fill:#4CDBC4;" d="M317.046,361.551c-25.6,0-46.08-20.874-46.08-46.08s20.48-46.08,46.08-46.08
	c25.6,0,46.08,20.874,46.08,46.08S342.646,361.551,317.046,361.551z"/>
<circle style="fill:#F9B54C;" cx="178.412" cy="232.763" r="53.957"/>
<path style="fill:#FFD05B;" d="M178.412,278.449c-25.206,0-45.292-20.48-45.292-45.292s20.48-45.292,45.292-45.292
	c25.206,0,45.292,20.48,45.292,45.292C223.705,257.969,203.618,278.449,178.412,278.449z"/>
<path style="fill:#F9B54C;" d="M176.443,268.209v-6.302c-7.877-0.788-14.966-3.938-20.874-9.452l6.302-7.483
	c4.726,4.332,9.846,6.695,14.966,7.483v-16.148c-6.302-1.575-11.028-3.545-14.178-5.908c-3.151-2.363-4.332-6.302-4.332-11.028
	c0-5.12,1.575-9.058,5.12-12.209c3.545-3.151,7.877-4.726,13.391-5.12v-4.332h5.514v4.332c6.302,0.394,12.209,2.757,17.723,6.302
	l-5.514,7.877c-3.938-2.757-7.877-4.332-12.209-5.12v16.148h0.394c6.695,1.575,11.422,3.545,14.572,6.302
	c3.151,2.757,4.726,6.302,4.726,11.422c0,5.12-1.575,9.058-5.12,12.209c-3.545,3.151-8.271,4.726-14.178,5.12v6.302h-6.302V268.209z
	 M170.535,213.071c-1.575,1.182-2.363,2.757-2.363,4.726c0,1.969,0.394,3.545,1.575,4.726c1.182,1.182,3.151,2.363,6.302,3.151
	v-14.966C174.08,211.102,172.111,211.889,170.535,213.071z M188.652,250.486c1.575-1.182,2.363-3.151,2.363-5.12
	c0-1.969-0.788-3.545-1.969-4.726s-3.545-2.363-7.089-3.151v15.36C184.714,252.849,187.077,252.062,188.652,250.486z"/>
<path style="fill:#2C9984;" d="M313.108,303.262v11.028h14.178v8.271h-14.178v15.36h25.206v9.058h-42.535v-9.058h7.089v-15.36
	h-7.483v-8.271h7.483v-10.634c0-6.695,1.575-11.815,5.12-14.966s7.877-4.726,13.785-4.726c7.483,0,12.997,3.151,16.935,9.452
	l-7.089,5.514c-2.363-3.938-5.514-5.908-9.058-5.908c-2.757,0-5.12,0.788-6.695,2.363
	C313.895,296.96,313.108,299.717,313.108,303.262z"/>
<g>
</g>
<g>
</g>
<g>
</g>
<g>
</g>
<g>
</g>
<g>
</g>
<g>
</g>
<g>
</g>
<g>
</g>
<g>
</g>
<g>
</g>
<g>
</g>
<g>
</g>
<g>
</g>
<g>
</g>
</svg>
