<?xml version="1.0" encoding="iso-8859-1"?>
<!-- Generator: Adobe Illustrator 19.0.0, SVG Export Plug-In . SVG Version: 6.00 Build 0)  -->
<svg version="1.1" id="Layer_1" xmlns="http://www.w3.org/2000/svg" xmlns:xlink="http://www.w3.org/1999/xlink" x="0px" y="0px"
	 viewBox="0 0 504.123 504.123" style="enable-background:new 0 0 504.123 504.123;" xml:space="preserve">
<circle style="fill:#324A5E;" cx="252.062" cy="252.062" r="252.062"/>
<circle style="fill:#E6E9EE;" cx="196.529" cy="174.08" r="53.957"/>
<polygon style="fill:#54C0EB;" points="117.76,228.431 223.311,362.338 223.311,413.538 280.812,387.938 280.812,362.338 
	386.363,228.431 "/>
<circle style="fill:#FFFFFF;" cx="252.062" cy="286.326" r="44.111"/>
<path style="fill:#F1543F;" d="M250.486,313.895v-4.726c-5.908-0.788-11.422-3.151-16.542-7.089l4.726-5.908
	c3.545,3.151,7.483,5.12,11.422,5.908v-12.997c-5.12-1.182-8.665-2.757-11.028-4.726c-2.363-1.969-3.545-4.726-3.545-8.665
	c0-3.938,1.182-7.089,3.938-9.452c2.757-2.363,6.302-3.938,10.634-3.938v-3.151h4.332v3.545c4.726,0.394,9.452,1.969,13.785,5.12
	l-4.332,6.302c-2.757-1.969-6.302-3.545-9.452-3.938v12.603l0,0c5.12,1.182,9.058,2.757,11.422,4.726s3.545,5.12,3.545,9.058
	c0,3.938-1.575,7.089-4.332,9.452c-2.757,2.363-6.302,3.938-11.028,3.938v4.726h-3.545V313.895z M245.76,270.572
	c-1.182,1.182-1.575,2.363-1.575,3.938s0.394,2.757,1.182,3.545c0.788,0.788,2.757,1.575,5.12,2.363v-11.422
	C248.517,268.997,246.942,269.785,245.76,270.572z M259.938,300.111c1.182-1.182,1.969-2.363,1.969-3.938
	c0-1.575-0.394-2.757-1.575-3.545c-0.788-0.788-2.757-1.575-5.514-2.757v11.815C257.182,301.686,258.757,300.898,259.938,300.111z"
	/>
<circle style="fill:#ACB3BA;" cx="196.529" cy="174.08" r="42.535"/>
<circle style="fill:#F9B54C;" cx="306.412" cy="139.815" r="41.354"/>
<circle style="fill:#FFD05B;" cx="306.412" cy="139.815" r="33.871"/>
<path style="fill:#324A5E;" d="M294.203,147.298h9.058v-2.757v-0.394h-8.665v-4.726h6.302l-9.452-17.723h5.908l9.058,16.935h0.394
	l9.058-16.935h5.908l-9.846,17.723h6.302v4.726h-8.665v0.394v2.757h9.058v4.726h-9.058v6.695h-6.302v-6.695h-9.058V147.298z"/>
<path style="fill:#FFFFFF;" d="M190.228,165.809l3.151,8.271l10.634-3.938l2.363,6.302l-10.634,3.938l4.332,11.422l18.905-6.695
	l2.363,6.695l-31.508,11.422l-2.363-6.695l5.12-1.969l-4.332-11.422l-5.514,1.969l-2.363-6.302l5.514-1.969l-2.757-7.877
	c-1.969-5.12-1.969-9.452,0-12.603c1.575-3.151,4.726-5.514,9.058-7.089c5.514-1.969,10.634-1.182,14.966,2.757l-3.938,5.908
	c-2.757-2.363-5.514-2.757-8.271-1.969c-1.969,0.788-3.545,1.969-4.332,3.545C189.44,161.083,189.44,163.446,190.228,165.809z"/>
<rect x="117.76" y="192.591" style="fill:#F1543F;" width="268.997" height="35.84"/>
<g>
</g>
<g>
</g>
<g>
</g>
<g>
</g>
<g>
</g>
<g>
</g>
<g>
</g>
<g>
</g>
<g>
</g>
<g>
</g>
<g>
</g>
<g>
</g>
<g>
</g>
<g>
</g>
<g>
</g>
</svg>
