<?xml version="1.0" encoding="iso-8859-1"?>
<!-- Generator: Adobe Illustrator 19.0.0, SVG Export Plug-In . SVG Version: 6.00 Build 0)  -->
<svg version="1.1" id="Layer_1" xmlns="http://www.w3.org/2000/svg" xmlns:xlink="http://www.w3.org/1999/xlink" x="0px" y="0px"
	 viewBox="0 0 504.123 504.123" style="enable-background:new 0 0 504.123 504.123;" xml:space="preserve">
<circle style="fill:#84DBFF;" cx="252.062" cy="252.062" r="252.062"/>
<circle style="fill:#F8D97F;" cx="178.018" cy="178.018" r="91.372"/>
<g>
	<path style="fill:#F5B947;" d="M178.018,95.705c-45.292,0-82.314,37.022-82.314,82.314s37.022,82.314,82.314,82.314
		s82.314-37.022,82.314-82.314S223.311,95.705,178.018,95.705z M178.018,251.274c-40.172,0-72.862-32.689-72.862-72.862
		s32.689-73.255,72.862-73.255s73.255,32.689,73.255,72.862S218.191,251.274,178.018,251.274z"/>
	<path style="fill:#F5B947;" d="M172.898,206.769v-26.782c-8.271-2.363-14.572-5.908-18.511-10.634
		c-3.938-4.726-5.908-10.634-5.908-17.723s2.363-12.997,6.695-17.723c4.332-4.726,10.24-7.483,17.723-8.271v-6.302h9.058v6.695
		c6.695,0.788,12.209,3.151,16.148,7.089s6.695,9.058,7.483,15.36l-16.148,1.969c-0.788-5.12-3.545-8.271-7.483-10.24v24.812
		c10.24,2.757,17.329,6.302,20.874,10.634c3.545,4.332,5.514,10.24,5.514,16.935c0,7.877-2.363,14.178-7.089,19.298
		c-4.726,5.12-11.028,8.665-19.298,9.846v11.815h-9.058v-11.422c-7.483-0.788-13.391-3.545-18.117-8.271
		c-4.726-4.726-7.483-11.028-8.665-19.298l16.542-1.969c0.788,3.545,1.969,6.302,3.938,8.665
		C168.172,204.012,170.535,205.982,172.898,206.769z M172.898,139.815c-2.363,0.788-4.332,2.363-5.908,4.332
		c-1.575,1.969-2.363,4.332-2.363,6.695c0,2.363,0.788,4.332,1.969,6.302c1.182,1.969,3.545,3.545,6.302,4.726V139.815z
		 M181.957,207.951c3.151-0.788,5.908-1.969,7.877-4.332c1.969-2.363,3.151-5.12,3.151-8.271c0-2.757-0.788-5.12-2.363-7.483
		c-1.575-1.969-4.332-3.545-8.271-4.726v24.812H181.957z"/>
</g>
<circle style="fill:#E6E9EE;" cx="326.105" cy="326.105" r="91.372"/>
<path style="fill:#ACB3BA;" d="M326.105,243.791c-45.292,0-82.314,37.022-82.314,82.314s37.022,82.314,82.314,82.314
	s82.314-37.022,82.314-82.314S371.397,243.791,326.105,243.791z M326.105,398.966c-40.172,0-72.862-32.689-72.862-72.862
	s32.689-72.862,72.862-72.862s72.862,32.689,72.862,72.862S366.277,398.966,326.105,398.966z"/>
<g>
	<path style="fill:#2B3B4E;" d="M142.572,361.551v-77.194c-8.665-2.757-16.935-7.089-24.812-11.815v113.822h113.822
		c-4.726-7.877-9.058-16.148-11.815-24.812L142.572,361.551L142.572,361.551z"/>
	<path style="fill:#2B3B4E;" d="M361.551,142.572v77.194c8.665,2.757,16.935,7.089,24.812,11.815V117.76H272.542
		c4.726,7.877,9.058,16.148,11.815,24.812H361.551z"/>
</g>
<path style="fill:#ACB3BA;" d="M350.917,276.48l-3.938,18.905c-3.938-3.938-9.452-5.908-16.935-5.908s-13.391,2.757-18.117,7.877
	c-2.757,3.151-4.332,6.695-5.514,11.422h37.809l-2.363,10.634h-37.022c0,1.182,0,2.363,0,3.938s0,3.151,0,5.12h35.052l-2.363,10.634
	h-31.508c1.182,4.726,2.757,8.665,5.12,11.422c4.726,5.514,10.634,8.271,17.723,8.271c8.665,0,15.754-2.757,20.874-8.271v20.874
	c-5.908,3.151-12.997,4.332-20.874,4.332c-13.391,0-24.418-4.726-33.083-13.785c-5.908-6.302-9.846-14.178-11.422-23.237h-10.24
	l2.363-10.634h6.695c0-1.182,0-2.363,0-3.545c0-1.969,0-3.938,0-5.514h-9.058l2.363-10.634h8.271
	c1.969-9.058,5.908-16.542,11.422-22.843c8.665-9.058,20.086-13.785,34.265-13.785C338.708,272.542,345.403,273.723,350.917,276.48z
	"/>
<g>
</g>
<g>
</g>
<g>
</g>
<g>
</g>
<g>
</g>
<g>
</g>
<g>
</g>
<g>
</g>
<g>
</g>
<g>
</g>
<g>
</g>
<g>
</g>
<g>
</g>
<g>
</g>
<g>
</g>
</svg>
