<?xml version="1.0" encoding="iso-8859-1"?>
<!-- Generator: Adobe Illustrator 19.0.0, SVG Export Plug-In . SVG Version: 6.00 Build 0)  -->
<svg version="1.1" id="Layer_1" xmlns="http://www.w3.org/2000/svg" xmlns:xlink="http://www.w3.org/1999/xlink" x="0px" y="0px"
	 viewBox="0 0 504.123 504.123" style="enable-background:new 0 0 504.123 504.123;" xml:space="preserve">
<circle style="fill:#FFD05B;" cx="252.062" cy="252.062" r="252.062"/>
<rect x="118.548" y="210.314" style="fill:#E6E9EE;" width="276.874" height="197.317"/>
<rect x="232.369" y="210.314" style="fill:#FF7058;" width="49.231" height="197.317"/>
<rect x="99.643" y="161.871" style="fill:#ACB3BA;" width="315.077" height="48.443"/>
<rect x="232.369" y="161.871" style="fill:#FF7058;" width="49.231" height="48.443"/>
<g>
	<path style="fill:#F1543F;" d="M309.957,92.554c-14.178,0-38.991,19.298-50.412,37.022c-11.815-17.723-36.234-37.022-50.412-37.022
		c-18.905,0-34.265,15.36-34.265,34.658s15.36,34.658,34.265,34.658c7.877,0,18.905,0.788,29.145,0h42.929
		c10.24,0.788,21.268,0,29.145,0c18.905,0,34.265-15.36,34.265-34.658S328.862,92.554,309.957,92.554z M192.591,127.212
		c0-9.058,7.483-16.542,16.542-16.542c9.058,0.394,31.508,20.48,37.415,31.902c-3.151,0.788-9.058,1.575-18.905,1.575
		c-3.545,0-7.089,0-10.24,0c-3.151,0-5.908,0-8.665,0C200.074,143.754,192.591,136.271,192.591,127.212z M309.957,143.754
		c-2.363,0-5.514,0-8.665,0s-6.695,0-10.24,0c-9.846,0-15.36-0.788-18.905-1.575c5.908-11.422,28.357-31.508,37.415-31.902
		c9.058,0,16.542,7.483,16.542,16.542S319.015,143.754,309.957,143.754z"/>
	<polygon style="fill:#F1543F;" points="215.828,151.237 186.289,198.105 209.526,198.105 219.766,219.372 255.606,161.871 
		238.671,151.237 	"/>
	<polygon style="fill:#F1543F;" points="298.929,151.237 276.48,151.237 259.545,161.871 314.683,252.062 324.923,230.794 
		348.16,230.794 	"/>
</g>
<g>
</g>
<g>
</g>
<g>
</g>
<g>
</g>
<g>
</g>
<g>
</g>
<g>
</g>
<g>
</g>
<g>
</g>
<g>
</g>
<g>
</g>
<g>
</g>
<g>
</g>
<g>
</g>
<g>
</g>
</svg>
