<?xml version="1.0" encoding="iso-8859-1"?>
<!-- Generator: Adobe Illustrator 19.0.0, SVG Export Plug-In . SVG Version: 6.00 Build 0)  -->
<svg version="1.1" id="Layer_1" xmlns="http://www.w3.org/2000/svg" xmlns:xlink="http://www.w3.org/1999/xlink" x="0px" y="0px"
	 viewBox="0 0 504.123 504.123" style="enable-background:new 0 0 504.123 504.123;" xml:space="preserve">
<circle style="fill:#84DBFF;" cx="252.062" cy="252.062" r="252.062"/>
<path style="fill:#FFFFFF;" d="M156.357,196.529c0-35.052-9.846-44.505-44.505-44.505c34.658,0,44.505-9.846,44.505-44.505
	c0,35.052,9.846,44.505,44.505,44.505C166.203,152.025,156.357,161.871,156.357,196.529z"/>
<g>
	<polygon style="fill:#FFD05B;" points="252.062,372.972 94.523,372.972 132.726,268.603 213.858,268.603 	"/>
	<polygon style="fill:#FFD05B;" points="409.6,372.972 252.062,372.972 290.265,268.209 371.397,268.209 	"/>
</g>
<g>
	<polygon style="fill:#FFFFFF;" points="205.982,280.025 140.997,280.025 111.852,361.157 144.935,283.963 	"/>
	<polygon style="fill:#FFFFFF;" points="363.126,280.025 298.535,280.025 268.997,361.157 302.474,283.963 	"/>
</g>
<polygon style="fill:#FFD05B;" points="330.831,268.209 173.686,268.209 211.495,163.84 293.022,163.84 "/>
<g>
	<polygon style="fill:#FFFFFF;" points="284.751,175.655 219.766,175.655 190.228,256.394 223.705,179.594 	"/>
	<path style="fill:#FFFFFF;" d="M375.335,225.28c0-26.782-7.483-34.265-34.265-34.265c26.782,0,34.265-7.483,34.265-34.265
		c0,26.782,7.483,34.265,34.265,34.265C382.818,191.015,375.335,198.498,375.335,225.28z"/>
	<path style="fill:#FFFFFF;" d="M134.695,317.046c0-31.114-8.665-40.172-39.778-40.172c31.114,0,39.778-8.665,39.778-40.172
		c0,31.114,8.665,40.172,39.778,40.172C143.754,276.874,134.695,285.932,134.695,317.046z"/>
	<path style="fill:#FFFFFF;" d="M115.003,296.566c15.36-15.36,15.36-24.025,0-39.385c15.36,15.36,24.025,15.36,39.385,0
		c-15.36,15.36-15.36,24.025,0,39.385C139.028,281.206,130.363,281.206,115.003,296.566z"/>
</g>
<g>
</g>
<g>
</g>
<g>
</g>
<g>
</g>
<g>
</g>
<g>
</g>
<g>
</g>
<g>
</g>
<g>
</g>
<g>
</g>
<g>
</g>
<g>
</g>
<g>
</g>
<g>
</g>
<g>
</g>
</svg>
