<?xml version="1.0" encoding="iso-8859-1"?>
<!-- Generator: Adobe Illustrator 19.0.0, SVG Export Plug-In . SVG Version: 6.00 Build 0)  -->
<svg version="1.1" id="Layer_1" xmlns="http://www.w3.org/2000/svg" xmlns:xlink="http://www.w3.org/1999/xlink" x="0px" y="0px"
	 viewBox="0 0 504.123 504.123" style="enable-background:new 0 0 504.123 504.123;" xml:space="preserve">
<circle style="fill:#90DFAA;" cx="252.062" cy="252.062" r="252.062"/>
<g>
	<path style="fill:#FFFFFF;" d="M319.803,267.422L319.803,267.422L319.803,267.422c-7.089,25.6-31.114,34.265-53.563,20.086l0,0l0,0
		"/>
	<path style="fill:#FFFFFF;" d="M266.24,287.902c7.089-25.6,31.114-34.265,53.563-20.086"/>
</g>
<g>
	<path style="fill:#324A5E;" d="M244.972,292.234c-8.665-33.083-38.991-44.111-67.348-25.206"/>
	<path style="fill:#324A5E;" d="M177.625,267.028L177.625,267.028L177.625,267.028c8.665,33.083,38.597,44.505,67.348,25.206l0,0
		l0,0"/>
</g>
<path style="fill:#F1543F;" d="M299.323,409.6h-87.434c-3.938,0-7.089-2.757-7.877-6.695l-9.452-68.529h122.092l-9.452,68.529
	C306.806,406.843,303.262,409.6,299.323,409.6z"/>
<rect x="244.185" y="218.585" style="fill:#324A5E;" width="22.843" height="92.948"/>
<g>
	<path style="fill:#FF7058;" d="M319.409,335.557H192.197c-3.545,0-6.695-3.151-6.695-6.695v-13.785
		c0-3.545,3.151-6.695,6.695-6.695h127.212c3.545,0,6.695,3.151,6.695,6.695v13.785
		C326.105,332.406,322.954,335.557,319.409,335.557z"/>
	<path style="fill:#FF7058;" d="M220.554,394.24L220.554,394.24c-3.545,0-6.302-2.757-6.302-6.302v-31.902
		c0-3.545,2.757-6.302,6.302-6.302l0,0c3.545,0,6.302,2.757,6.302,6.302v31.902C226.855,391.089,224.098,394.24,220.554,394.24z"/>
	<path style="fill:#FF7058;" d="M243.791,394.24L243.791,394.24c-3.545,0-6.302-2.757-6.302-6.302v-31.902
		c0-3.545,2.757-6.302,6.302-6.302l0,0c3.545,0,6.302,2.757,6.302,6.302v31.902C250.486,391.089,247.335,394.24,243.791,394.24z"/>
	<path style="fill:#FF7058;" d="M267.422,394.24L267.422,394.24c-3.545,0-6.302-2.757-6.302-6.302v-31.902
		c0-3.545,2.757-6.302,6.302-6.302l0,0c3.545,0,6.302,2.757,6.302,6.302v31.902C273.723,391.089,270.966,394.24,267.422,394.24z"/>
	<path style="fill:#FF7058;" d="M291.052,394.24L291.052,394.24c-3.545,0-6.302-2.757-6.302-6.302v-31.902
		c0-3.545,2.757-6.302,6.302-6.302l0,0c3.545,0,6.302,2.757,6.302,6.302v31.902C297.354,391.089,294.597,394.24,291.052,394.24z"/>
</g>
<path style="fill:#FFFFFF;" d="M307.988,139.815c0.788-3.151,1.182-6.302,1.182-9.452c0.394-28.751-22.449-52.775-51.594-53.169
	c-29.145-0.394-52.775,22.843-53.169,51.594c0,3.151,0.394,6.302,0.788,9.452c-23.631,4.726-41.748,25.206-42.142,50.412
	c-0.394,28.751,22.449,52.775,51.594,53.169l80.738,1.182c28.751,0.394,52.775-22.449,53.169-51.594
	C348.948,166.597,331.618,145.329,307.988,139.815z"/>
<circle style="fill:#FFD161;" cx="254.031" cy="179.2" r="45.686"/>
<g>
	<path style="fill:#F3B44B;" d="M254.031,138.24c-22.843,0-40.96,18.511-40.96,40.96s18.511,41.354,40.96,41.354
		c22.449,0,41.354-18.511,41.354-41.354S276.874,138.24,254.031,138.24z M254.031,215.828c-20.086,0-36.628-16.542-36.628-36.628
		s16.542-36.628,36.628-36.628s36.628,16.542,36.628,36.628S274.117,215.828,254.031,215.828z"/>
	<path style="fill:#F3B44B;" d="M268.603,155.175l-1.969,9.452c-1.969-1.969-4.726-2.757-8.665-2.757
		c-3.938,0-6.695,1.182-9.058,3.938c-1.182,1.575-2.363,3.545-2.757,5.514h18.905l-1.182,5.514h-18.511c0,0.394,0,1.182,0,1.969
		c0,0.788,0,1.575,0,2.363h17.723l-1.182,5.514h-15.754c0.394,2.363,1.575,4.332,2.757,5.908c2.363,2.757,5.12,3.938,9.058,3.938
		c4.332,0,7.877-1.182,10.634-3.938v10.634c-3.151,1.575-6.302,2.363-10.634,2.363c-6.695,0-12.209-2.363-16.542-7.089
		c-2.757-3.151-4.726-7.089-5.908-11.815h-5.12l1.182-5.514h3.545c0-0.394,0-1.182,0-1.575c0-1.182,0-1.969,0-2.757H230.4
		l1.182-5.514h3.938c0.788-4.726,2.757-8.271,5.908-11.422c4.332-4.726,10.24-7.089,17.329-7.089
		C262.302,153.206,265.452,153.6,268.603,155.175z"/>
</g>
<g>
</g>
<g>
</g>
<g>
</g>
<g>
</g>
<g>
</g>
<g>
</g>
<g>
</g>
<g>
</g>
<g>
</g>
<g>
</g>
<g>
</g>
<g>
</g>
<g>
</g>
<g>
</g>
<g>
</g>
</svg>
