<?xml version="1.0" encoding="iso-8859-1"?>
<!-- Generator: Adobe Illustrator 19.0.0, SVG Export Plug-In . SVG Version: 6.00 Build 0)  -->
<svg version="1.1" id="Layer_1" xmlns="http://www.w3.org/2000/svg" xmlns:xlink="http://www.w3.org/1999/xlink" x="0px" y="0px"
	 viewBox="0 0 504.123 504.123" style="enable-background:new 0 0 504.123 504.123;" xml:space="preserve">
<circle style="fill:#90DFAA;" cx="252.062" cy="252.062" r="252.062"/>
<path style="fill:#FFFFFF;" d="M264.271,285.932L264.271,285.932c42.535,27.175,88.222,10.24,102.006-38.597
	C323.742,220.16,278.055,237.095,264.271,285.932z"/>
<path style="fill:#324A5E;" d="M239.065,285.932L239.065,285.932c-42.535,27.175-88.222,10.24-102.006-38.597
	C179.594,220.16,225.28,237.095,239.065,285.932z"/>
<path style="fill:#F1543F;" d="M301.292,429.292h-98.462c-4.332,0-8.271-3.151-8.665-7.483l-10.634-76.8h137.452l-10.634,76.8
	C309.563,426.142,305.625,429.292,301.292,429.292z"/>
<rect x="239.065" y="214.252" style="fill:#324A5E;" width="25.994" height="104.763"/>
<path style="fill:#FF7058;" d="M324.529,346.191H179.594c-3.545,0-6.695-3.151-6.695-6.695V322.56c0-3.545,3.151-6.695,6.695-6.695
	h144.935c3.545,0,6.695,3.151,6.695,6.695v16.935C331.225,343.04,328.074,346.191,324.529,346.191z"/>
<circle style="fill:#FFB734;" cx="252.062" cy="154.782" r="79.557"/>
<path style="fill:#FFD663;" d="M252.062,223.311c-37.809,0-68.923-30.72-68.923-68.923s31.114-68.529,68.923-68.529
	s68.923,30.72,68.923,68.923S289.871,223.311,252.062,223.311z"/>
<g>
	<path style="fill:#FF7058;" d="M213.465,411.963h-1.575c-3.545,0-6.302-2.757-6.302-6.302v-37.415c0-3.545,2.757-6.302,6.302-6.302
		h1.575c3.545,0,6.302,2.757,6.302,6.302v37.415C219.766,409.206,217.009,411.963,213.465,411.963z"/>
	<path style="fill:#FF7058;" d="M239.852,411.963h-1.575c-3.545,0-6.302-2.757-6.302-6.302v-37.415c0-3.545,2.757-6.302,6.302-6.302
		h1.575c3.545,0,6.302,2.757,6.302,6.302v37.415C246.154,409.206,243.397,411.963,239.852,411.963z"/>
	<path style="fill:#FF7058;" d="M266.24,411.963h-1.575c-3.545,0-6.302-2.757-6.302-6.302v-37.415c0-3.545,2.757-6.302,6.302-6.302
		h1.575c3.545,0,6.302,2.757,6.302,6.302v37.415C272.542,409.206,269.785,411.963,266.24,411.963z"/>
	<path style="fill:#FF7058;" d="M292.628,411.963h-1.575c-3.545,0-6.302-2.757-6.302-6.302v-37.415c0-3.545,2.757-6.302,6.302-6.302
		h1.575c3.545,0,6.302,2.757,6.302,6.302v37.415C298.929,409.206,296.172,411.963,292.628,411.963z"/>
</g>
<path style="fill:#FFB734;" d="M249.305,209.526v-9.846c-12.603-1.182-23.631-6.302-33.477-14.966l9.846-11.815
	c7.483,6.695,15.36,10.634,23.631,11.815v-26.388c-10.24-2.363-17.723-5.514-22.449-9.846c-4.726-3.938-7.089-9.846-7.089-17.723
	s2.757-14.178,8.271-19.298s12.603-7.877,21.662-8.271v-6.695h8.665v7.089c9.846,0.788,19.298,3.938,28.357,10.24l-8.665,12.603
	c-5.908-4.332-12.603-7.089-19.298-7.877v25.6h0.394c10.634,2.363,18.117,5.908,22.843,9.846c4.726,4.332,7.483,10.24,7.483,18.117
	s-2.757,14.572-8.271,19.298c-5.514,5.12-12.997,7.877-22.449,8.271v9.846L249.305,209.526L249.305,209.526z M239.458,121.698
	c-2.363,1.969-3.545,4.726-3.545,7.483c0,3.151,0.788,5.514,2.757,7.089c1.969,1.575,5.12,3.545,10.24,5.12V117.76
	C244.972,118.154,241.822,119.335,239.458,121.698z M268.209,181.169c2.363-1.969,3.938-4.726,3.938-7.877
	c0-3.151-1.182-5.514-3.151-7.483c-1.969-1.969-5.908-3.545-11.028-5.12v24.418C262.302,184.714,265.452,183.532,268.209,181.169z"
	/>
<g>
</g>
<g>
</g>
<g>
</g>
<g>
</g>
<g>
</g>
<g>
</g>
<g>
</g>
<g>
</g>
<g>
</g>
<g>
</g>
<g>
</g>
<g>
</g>
<g>
</g>
<g>
</g>
<g>
</g>
</svg>
