<?xml version="1.0" encoding="iso-8859-1"?>
<!-- Generator: Adobe Illustrator 19.0.0, SVG Export Plug-In . SVG Version: 6.00 Build 0)  -->
<svg version="1.1" id="Layer_1" xmlns="http://www.w3.org/2000/svg" xmlns:xlink="http://www.w3.org/1999/xlink" x="0px" y="0px"
	 viewBox="0 0 504.123 504.123" style="enable-background:new 0 0 504.123 504.123;" xml:space="preserve">
<circle style="fill:#FD8469;" cx="252.062" cy="252.062" r="252.062"/>
<path style="fill:#324A5E;" d="M397.785,380.849H106.338c-6.695,0-11.815-5.12-11.815-11.815V163.052
	c0-6.695,5.12-11.815,11.815-11.815h291.446c6.695,0,11.815,5.12,11.815,11.815v205.982
	C409.6,375.729,404.48,380.849,397.785,380.849z"/>
<rect x="122.092" y="201.649" style="fill:#FFFFFF;" width="260.332" height="154.388"/>
<g>
	<circle style="fill:#54C0EB;" cx="190.622" cy="252.455" r="18.905"/>
	<path style="fill:#54C0EB;" d="M190.622,281.994c-23.631,0-42.535,18.905-42.535,42.535h85.071
		C233.157,300.898,214.252,281.994,190.622,281.994z"/>
</g>
<g>
	<rect x="261.12" y="227.249" style="fill:#ACB3BA;" width="90.191" height="14.178"/>
	<rect x="261.12" y="271.754" style="fill:#ACB3BA;" width="90.191" height="14.178"/>
	<rect x="261.12" y="316.258" style="fill:#ACB3BA;" width="90.191" height="14.178"/>
</g>
<rect x="209.526" y="168.96" style="fill:#2B3B4E;" width="84.677" height="14.178"/>
<rect x="225.28" y="123.274" style="fill:#84DBFF;" width="53.563" height="53.169"/>
<g>
</g>
<g>
</g>
<g>
</g>
<g>
</g>
<g>
</g>
<g>
</g>
<g>
</g>
<g>
</g>
<g>
</g>
<g>
</g>
<g>
</g>
<g>
</g>
<g>
</g>
<g>
</g>
<g>
</g>
</svg>
