<?xml version="1.0" encoding="iso-8859-1"?>
<!-- Generator: Adobe Illustrator 19.0.0, SVG Export Plug-In . SVG Version: 6.00 Build 0)  -->
<svg version="1.1" id="Layer_1" xmlns="http://www.w3.org/2000/svg" xmlns:xlink="http://www.w3.org/1999/xlink" x="0px" y="0px"
	 viewBox="0 0 504.123 504.123" style="enable-background:new 0 0 504.123 504.123;" xml:space="preserve">
<circle style="fill:#90DFAA;" cx="252.062" cy="252.062" r="252.062"/>
<path style="fill:#324A5E;" d="M183.532,185.502l24.812-28.357c2.363-2.757,2.363-7.089-0.788-9.452l-2.757-2.363
	c-2.757-2.363-7.089-2.363-9.452,0.788l-24.812,28.357l-10.634-9.452l14.572-16.542c2.363-2.757,2.363-7.089-0.788-9.452
	l-2.757-2.363c-2.757-2.363-7.089-2.363-9.452,0.788L147.298,153.6l-10.634-9.452l24.812-28.357
	c2.363-2.757,2.363-7.089-0.788-9.452l-2.757-2.363c-2.757-2.363-7.089-2.363-9.452,0.788l-24.812,28.357l-3.545-3.151
	c-5.12-4.332-12.603-3.938-16.935,1.182l0,0c-4.332,5.12-3.938,12.603,1.182,16.935l174.868,153.206l15.754-18.117L183.532,185.502z
	"/>
<circle style="fill:#2C9984;" cx="320.985" cy="316.258" r="93.342"/>
<circle style="fill:#4CDBC4;" cx="320.985" cy="316.258" r="67.348"/>
<path style="fill:#FFFFFF;" d="M318.228,368.246v-9.058c-11.422-1.182-21.662-5.908-31.114-13.785l9.058-11.028
	c7.089,6.302,14.178,9.846,21.662,11.028v-24.418c-9.452-2.363-16.542-5.12-20.874-9.058c-4.332-3.545-6.695-9.058-6.695-16.542
	s2.363-12.997,7.483-17.723c5.12-4.726,11.815-7.089,19.692-7.483v-6.302h7.877v6.302c9.058,0.788,18.117,3.938,25.994,9.452
	l-7.089,11.815c-5.514-3.938-11.422-6.302-18.117-7.483v23.631h0.394c9.452,2.363,16.542,5.514,21.268,9.058
	c4.726,3.938,6.695,9.452,6.695,16.935s-2.757,13.391-7.877,17.723c-5.12,4.726-12.209,7.089-20.48,7.483v9.058h-7.877V368.246z
	 M309.563,287.114c-1.969,1.969-3.151,4.332-3.151,7.089c0,2.757,0.788,5.12,2.363,6.695c1.575,1.575,4.726,3.151,9.452,4.726
	v-21.662C314.289,284.357,311.532,285.145,309.563,287.114z M335.951,342.252c2.363-1.969,3.545-4.332,3.545-7.483
	c0-2.757-0.788-5.12-2.757-7.089c-1.969-1.575-5.12-3.151-10.24-4.726v22.449C330.437,345.403,333.588,344.222,335.951,342.252z"/>
<g>
</g>
<g>
</g>
<g>
</g>
<g>
</g>
<g>
</g>
<g>
</g>
<g>
</g>
<g>
</g>
<g>
</g>
<g>
</g>
<g>
</g>
<g>
</g>
<g>
</g>
<g>
</g>
<g>
</g>
</svg>
