<?xml version="1.0" encoding="iso-8859-1"?>
<!-- Generator: Adobe Illustrator 19.0.0, SVG Export Plug-In . SVG Version: 6.00 Build 0)  -->
<svg version="1.1" id="Layer_1" xmlns="http://www.w3.org/2000/svg" xmlns:xlink="http://www.w3.org/1999/xlink" x="0px" y="0px"
	 viewBox="0 0 504.123 504.123" style="enable-background:new 0 0 504.123 504.123;" xml:space="preserve">
<circle style="fill:#FFD05B;" cx="252.062" cy="252.062" r="252.062"/>
<g>
	<polygon style="fill:#2B3B4E;" points="94.523,363.52 94.523,382.031 102.4,393.846 401.723,393.846 409.6,382.031 409.6,363.52 	
		"/>
	<rect x="113.428" y="110.277" style="fill:#2B3B4E;" width="276.874" height="235.126"/>
</g>
<rect x="133.12" y="129.969" style="fill:#E6E9EE;" width="237.489" height="195.742"/>
<g>
	<rect x="224.492" y="371.003" style="fill:#324A5E;" width="55.138" height="7.877"/>
	<polygon style="fill:#324A5E;" points="348.16,165.809 306.018,209.526 261.12,182.351 224.492,228.037 176.049,209.92 
		148.874,250.88 157.145,256.394 179.988,221.735 228.037,239.852 263.483,195.348 307.988,221.735 355.249,172.898 	"/>
</g>
<circle style="fill:#F9B54C;" cx="179.988" cy="217.403" r="12.209"/>
<circle style="fill:#F1543F;" cx="264.271" cy="190.228" r="12.209"/>
<g>
	<circle style="fill:#2C9984;" cx="226.068" cy="234.338" r="12.209"/>
	<circle style="fill:#2C9984;" cx="306.806" cy="215.04" r="12.209"/>
</g>
<g>
	<rect x="148.874" y="272.148" style="fill:#ACB3BA;" width="92.554" height="7.877"/>
	<rect x="148.874" y="301.686" style="fill:#ACB3BA;" width="92.554" height="7.877"/>
	<rect x="264.271" y="272.148" style="fill:#ACB3BA;" width="92.554" height="7.877"/>
	<rect x="264.271" y="301.686" style="fill:#ACB3BA;" width="92.554" height="7.877"/>
</g>
<path style="fill:#F1543F;" d="M210.314,202.437v-5.12c-6.695-0.788-12.603-3.151-17.723-7.877l5.12-6.302
	c3.938,3.545,8.271,5.514,12.603,6.302v-14.178c-5.514-1.182-9.452-3.151-11.815-5.12c-2.363-1.969-3.938-5.12-3.938-9.452
	c0-4.332,1.575-7.483,4.332-10.24c2.757-2.757,6.695-3.938,11.422-4.332v-3.545h4.726v3.545c5.12,0.394,10.24,2.363,14.966,5.514
	l-4.726,6.695c-3.151-2.363-6.695-3.545-10.24-4.332v13.391h0.394c5.514,1.182,9.452,3.151,12.209,5.12
	c2.757,2.363,3.938,5.514,3.938,9.452s-1.575,7.483-4.332,10.24c-3.151,2.757-7.089,3.938-11.815,4.332v5.12h-5.12V202.437z
	 M205.194,155.963c-1.182,1.182-1.969,2.363-1.969,3.938s0.394,2.757,1.575,3.938c0.788,0.788,2.757,1.969,5.514,2.757v-12.603
	C207.951,154.388,206.375,154.782,205.194,155.963z M220.554,187.471c1.182-1.182,1.969-2.363,1.969-4.332
	c0-1.575-0.394-3.151-1.575-3.938c-1.182-0.788-3.151-1.969-5.908-2.757v12.997C217.403,189.44,218.978,188.652,220.554,187.471z"/>
<g>
</g>
<g>
</g>
<g>
</g>
<g>
</g>
<g>
</g>
<g>
</g>
<g>
</g>
<g>
</g>
<g>
</g>
<g>
</g>
<g>
</g>
<g>
</g>
<g>
</g>
<g>
</g>
<g>
</g>
</svg>
