<?xml version="1.0" encoding="iso-8859-1"?>
<!-- Generator: Adobe Illustrator 19.0.0, SVG Export Plug-In . SVG Version: 6.00 Build 0)  -->
<svg version="1.1" id="Layer_1" xmlns="http://www.w3.org/2000/svg" xmlns:xlink="http://www.w3.org/1999/xlink" x="0px" y="0px"
	 viewBox="0 0 504.123 504.123" style="enable-background:new 0 0 504.123 504.123;" xml:space="preserve">
<circle style="fill:#324A5E;" cx="252.062" cy="252.062" r="252.062"/>
<g>
	<polygon style="fill:#54C0EB;" points="165.415,315.865 315.865,315.865 315.865,199.68 113.822,199.68 107.914,259.545 
		165.415,259.545 	"/>
	<polygon style="fill:#54C0EB;" points="395.815,254.818 390.302,199.68 323.742,199.68 323.742,254.818 	"/>
	<polygon style="fill:#54C0EB;" points="157.538,267.422 107.126,267.422 100.431,334.375 157.538,334.375 	"/>
	<polygon style="fill:#54C0EB;" points="323.742,315.865 401.723,315.865 396.603,262.695 323.742,262.695 	"/>
	<polygon style="fill:#54C0EB;" points="323.742,393.846 409.6,393.846 402.511,323.742 323.742,323.742 	"/>
	<polygon style="fill:#54C0EB;" points="165.415,323.742 165.415,334.375 209.132,334.375 266.24,393.846 315.865,393.846 
		315.865,323.742 	"/>
	<polygon style="fill:#54C0EB;" points="99.643,342.252 94.523,393.846 255.606,393.846 205.588,342.252 	"/>
</g>
<polygon style="fill:#FFFFFF;" points="401.723,315.865 323.742,315.865 323.742,262.695 396.603,262.695 395.815,254.818 
	323.742,254.818 323.742,199.68 315.865,199.68 315.865,315.865 165.415,315.865 165.415,259.545 107.914,259.545 107.126,267.422 
	157.538,267.422 157.538,334.375 100.431,334.375 99.643,342.252 205.588,342.252 255.606,393.846 266.24,393.846 209.132,334.375 
	165.415,334.375 165.415,323.742 315.865,323.742 315.865,393.846 323.742,393.846 323.742,323.742 402.511,323.742 "/>
<path style="fill:#FF7058;" d="M300.111,142.572c0,35.84-64.591,128.394-64.591,128.394s-64.591-92.554-64.591-128.394
	s28.751-64.591,64.591-64.591S300.111,107.126,300.111,142.572z"/>
<circle style="fill:#FFFFFF;" cx="235.52" cy="142.572" r="42.142"/>
<path style="fill:#324A5E;" d="M231.975,128.788c0,2.757-1.182,5.12-3.151,7.089c-1.969,1.969-4.332,2.757-7.483,2.757
	c-3.151,0-5.514-0.788-7.483-2.757c-1.969-1.969-3.151-4.332-3.151-7.089c0-2.757,1.182-5.12,3.151-7.089
	c1.969-1.969,4.332-2.757,7.483-2.757c3.151,0,5.514,0.788,7.483,2.757C230.794,123.668,231.975,126.031,231.975,128.788z
	 M259.151,117.366l-35.84,49.625h-12.209l35.84-49.625C246.942,117.366,259.151,117.366,259.151,117.366z M219.372,131.151
	c0.394,0.788,1.182,0.788,1.969,0.788c0.788,0,1.575-0.394,1.969-0.788c0.394-0.788,0.788-1.575,0.788-2.363
	c0-1.182-0.394-1.969-0.788-2.757s-1.182-1.182-1.969-1.182c-0.788,0-1.575,0.394-1.969,1.182c-0.394,0.788-0.788,1.575-0.788,2.757
	C218.585,129.969,218.585,130.757,219.372,131.151z M259.938,157.932c0,2.757-1.182,5.12-3.151,7.089
	c-1.969,1.969-4.332,2.757-7.483,2.757c-3.151,0-5.514-0.788-7.483-2.757c-1.969-1.969-3.151-4.332-3.151-7.089
	s1.182-5.12,3.151-7.089c1.969-1.969,4.332-2.757,7.483-2.757c3.151,0,5.514,0.788,7.483,2.757
	C258.757,152.812,259.938,155.175,259.938,157.932z M247.335,160.295c0.394,0.788,1.182,0.788,1.969,0.788
	c0.788,0,1.575-0.394,1.969-0.788c0.394-0.788,0.788-1.575,0.788-2.363c0-1.182-0.394-1.969-0.788-2.757
	c-0.394-0.788-1.182-1.182-1.969-1.182s-1.575,0.394-1.969,1.182c-0.394,0.788-0.788,1.575-0.788,2.757
	C246.548,159.114,246.548,159.902,247.335,160.295z"/>
<g>
</g>
<g>
</g>
<g>
</g>
<g>
</g>
<g>
</g>
<g>
</g>
<g>
</g>
<g>
</g>
<g>
</g>
<g>
</g>
<g>
</g>
<g>
</g>
<g>
</g>
<g>
</g>
<g>
</g>
</svg>
