<?xml version="1.0" encoding="iso-8859-1"?>
<!-- Generator: Adobe Illustrator 19.0.0, SVG Export Plug-In . SVG Version: 6.00 Build 0)  -->
<svg version="1.1" id="Layer_1" xmlns="http://www.w3.org/2000/svg" xmlns:xlink="http://www.w3.org/1999/xlink" x="0px" y="0px"
	 viewBox="0 0 504.123 504.123" style="enable-background:new 0 0 504.123 504.123;" xml:space="preserve">
<circle style="fill:#FD8469;" cx="252.062" cy="252.062" r="252.062"/>
<polygon style="fill:#CED5E0;" points="409.6,213.071 252.455,82.314 252.062,81.92 94.523,213.071 94.523,213.071 252.062,332.012 
	409.206,213.465 "/>
<rect x="123.334" y="197.199" transform="matrix(-0.3898 0.9209 -0.9209 -0.3898 568.3169 144.2493)" style="fill:#54C0EB;" width="226.068" height="126.425"/>
<g>
	<path style="fill:#FFFFFF;" d="M318.622,199.68l-68.529,162.265l-2.363-1.182c-5.514-2.363-12.209,0.394-14.572,5.908l-1.182,2.363
		l-70.498-29.932l1.182-2.363c2.363-5.514-0.394-12.209-5.908-14.572l-2.363-1.182l68.923-162.265l2.363,1.182
		c5.514,2.363,12.209-0.394,14.572-5.908l1.182-2.363l70.498,29.932l-1.182,2.363c-2.363,5.514,0.394,12.209,5.908,14.572
		L318.622,199.68z M246.942,354.855l64.591-152.812c-5.908-3.938-8.665-11.028-7.089-17.723l-60.652-25.6
		c-3.938,5.908-11.028,8.665-17.723,7.089l-64.985,152.812c5.908,3.938,8.665,11.028,7.089,17.723l61.046,25.994
		C232.763,356.431,240.246,353.28,246.942,354.855z"/>
	
		<ellipse transform="matrix(-0.9209 -0.3898 0.3898 -0.9209 352.2117 592.1428)" style="fill:#FFFFFF;" cx="236.186" cy="260.335" rx="40.96" ry="34.265"/>
	
		<rect x="197.131" y="298.474" transform="matrix(0.9209 0.3898 -0.3898 0.9209 136.8389 -53.3569)" style="fill:#FFFFFF;" width="5.514" height="24.025"/>
	
		<rect x="192.467" y="318.726" transform="matrix(0.3898 -0.9209 0.9209 0.3898 -167.5551 390.0953)" style="fill:#FFFFFF;" width="36.234" height="5.514"/>
	
		<rect x="213.574" y="318.523" transform="matrix(0.3898 -0.9209 0.9209 0.3898 -158.2135 403.7874)" style="fill:#FFFFFF;" width="24.025" height="5.514"/>
	
		<rect x="269.889" y="198.084" transform="matrix(-0.9209 -0.3898 0.3898 -0.9209 441.8301 509.8521)" style="fill:#FFFFFF;" width="5.514" height="24.025"/>
	
		<rect x="243.999" y="196.414" transform="matrix(-0.3898 0.9209 -0.9209 -0.3898 547.7057 35.4256)" style="fill:#FFFFFF;" width="36.234" height="5.514"/>
	
		<rect x="235.021" y="197.031" transform="matrix(-0.3898 0.9209 -0.9209 -0.3898 527.3114 50.1722)" style="fill:#FFFFFF;" width="24.025" height="5.514"/>
</g>
<path style="fill:#54C0EB;" d="M263.483,273.723l-4.726-1.969c-3.151,5.908-7.877,10.24-14.572,13.391l-3.938-7.483
	c4.726-2.363,8.665-5.514,10.634-9.058l-12.997-5.514c-3.545,4.726-6.695,7.483-9.452,9.058c-3.151,1.575-6.302,1.575-10.24,0
	c-3.938-1.575-6.695-4.332-7.877-8.271c-1.182-3.938-1.182-7.877,0.394-12.209l-3.545-1.575l1.969-4.332l3.545,1.575
	c2.363-4.726,6.302-8.665,11.028-11.815l4.332,7.089c-3.545,1.969-5.908,4.726-7.877,7.877L232.763,256v-0.394
	c3.545-4.726,6.695-7.877,9.846-9.452c3.151-1.575,6.695-1.575,10.634,0c3.938,1.575,6.695,4.332,7.877,8.271
	s1.182,8.271-0.788,12.603l4.726,1.969L263.483,273.723z M218.191,259.938c0.394,1.575,1.575,2.757,3.151,3.151
	c1.575,0.394,2.757,0.788,4.332,0c1.182-0.394,2.757-1.969,4.726-3.938l-11.815-5.12
	C217.403,256.788,217.403,258.363,218.191,259.938z M253.637,258.363c-0.394-1.575-1.575-2.757-3.151-3.545
	c-1.575-0.788-3.151-0.788-4.332,0c-1.182,0.788-3.151,1.969-5.12,4.332l12.209,5.12
	C254.031,261.908,254.031,259.938,253.637,258.363z"/>
<polygon style="fill:#FFFFFF;" points="252.062,332.012 94.917,213.465 94.917,398.572 409.206,398.572 409.206,213.465 
	409.206,213.465 "/>
<polygon style="fill:#CED5E0;" points="409.206,397.785 281.6,309.957 281.206,309.563 252.062,332.012 222.917,309.957 
	222.917,309.563 94.917,397.785 94.917,398.572 409.206,398.572 409.206,397.785 "/>
<g>
</g>
<g>
</g>
<g>
</g>
<g>
</g>
<g>
</g>
<g>
</g>
<g>
</g>
<g>
</g>
<g>
</g>
<g>
</g>
<g>
</g>
<g>
</g>
<g>
</g>
<g>
</g>
<g>
</g>
</svg>
