<?xml version="1.0" encoding="iso-8859-1"?>
<!-- Generator: Adobe Illustrator 19.0.0, SVG Export Plug-In . SVG Version: 6.00 Build 0)  -->
<svg version="1.1" id="Layer_1" xmlns="http://www.w3.org/2000/svg" xmlns:xlink="http://www.w3.org/1999/xlink" x="0px" y="0px"
	 viewBox="0 0 504.123 504.123" style="enable-background:new 0 0 504.123 504.123;" xml:space="preserve">
<circle style="fill:#90DFAA;" cx="252.062" cy="252.062" r="252.062"/>
<path style="fill:#324A5E;" d="M292.234,158.326h-80.345c-44.111,40.96-88.222,126.031-88.222,185.108
	c0,76.012,64.591,78.769,128.394,78.769s128.394-2.757,128.394-78.769C380.455,284.357,336.345,199.68,292.234,158.326z"/>
<path style="fill:#2B3B4E;" d="M196.529,98.462L196.529,98.462c2.757,2.757,19.298,2.363,21.662-0.394l9.452-11.028
	c2.363-3.151,6.695-3.151,9.058-0.394l11.028,11.815c2.363,2.757,6.302,2.757,9.058,0l11.028-11.815
	c2.757-2.757,6.695-2.757,9.058,0.394l9.452,11.028c2.363,2.757,18.905,3.151,21.662,0.394l0,0c5.12-5.12,12.603,0.788,10.634,8.665
	l-26.388,51.988h-79.951l-26.388-51.988C183.926,99.643,191.409,93.735,196.529,98.462z"/>
<circle style="fill:#FFD55C;" cx="252.062" cy="305.231" r="84.283"/>
<g>
	<path style="fill:#FFB82C;" d="M252.062,229.612c-41.748,0-75.618,33.871-75.618,75.618s33.871,75.618,75.618,75.618
		s75.618-33.871,75.618-75.618S293.809,229.612,252.062,229.612z M252.062,372.185c-37.022,0-67.348-30.326-67.348-67.348
		s30.326-66.954,67.348-66.954s67.348,30.326,67.348,67.348S289.083,372.185,252.062,372.185z"/>
	<path style="fill:#FFB82C;" d="M277.662,259.151l-3.938,17.723c-3.545-3.545-9.058-5.514-15.754-5.514
		c-7.089,0-12.603,2.363-16.935,7.483c-2.363,2.757-4.332,6.302-5.12,10.634h35.052l-1.575,9.846h-34.265c0,0.788,0,2.363,0,3.938
		c0,1.575,0,3.151,0,4.726h32.295l-1.969,9.846h-29.145c1.182,4.726,2.757,8.271,4.726,10.634c4.332,5.12,9.846,7.483,16.542,7.483
		c8.271,0,14.572-2.363,19.692-7.483v19.692c-5.514,2.757-11.815,4.332-19.298,4.332c-12.603,0-22.449-4.332-30.72-12.603
		c-5.514-5.908-9.058-12.997-10.634-21.662h-9.452l1.969-9.846h6.302c0-1.182,0-1.969,0-3.151c0-1.969,0-3.545,0-5.12h-8.271
		l1.969-9.846h7.483c1.969-8.271,5.514-15.36,10.634-21.268C235.126,260.332,245.76,256,258.757,256
		C266.24,255.212,272.542,256.394,277.662,259.151z"/>
</g>
<path style="fill:#FFD55C;" d="M335.951,177.231c-0.788,0-1.575,0-2.363-0.394c-1.575-0.788-3.545-1.575-5.514-2.757
	c-3.938-1.969-8.271-3.938-12.209-5.12c-7.483-1.969-21.662-4.332-23.631-4.332h-80.345c-3.545,0-6.302-2.757-6.302-6.302
	c0-3.545,2.757-6.302,6.302-6.302h80.345c3.938,0,20.086,2.757,26.782,4.726c5.12,1.182,10.24,3.938,14.572,5.908
	c1.575,0.788,3.545,1.575,5.12,2.363c3.151,1.575,4.726,5.12,3.151,8.271C340.677,175.655,338.314,177.231,335.951,177.231z"/>
<g>
</g>
<g>
</g>
<g>
</g>
<g>
</g>
<g>
</g>
<g>
</g>
<g>
</g>
<g>
</g>
<g>
</g>
<g>
</g>
<g>
</g>
<g>
</g>
<g>
</g>
<g>
</g>
<g>
</g>
</svg>
