<?xml version="1.0" encoding="iso-8859-1"?>
<!-- Generator: Adobe Illustrator 19.0.0, SVG Export Plug-In . SVG Version: 6.00 Build 0)  -->
<svg version="1.1" id="Layer_1" xmlns="http://www.w3.org/2000/svg" xmlns:xlink="http://www.w3.org/1999/xlink" x="0px" y="0px"
	 viewBox="0 0 504.123 504.123" style="enable-background:new 0 0 504.123 504.123;" xml:space="preserve">
<circle style="fill:#90DFAA;" cx="252.062" cy="252.062" r="252.062"/>
<path style="fill:#324A5E;" d="M401.723,379.668H102.4c-4.332,0-7.877-3.545-7.877-7.877V131.938c0-4.332,3.545-7.877,7.877-7.877
	h299.323c4.332,0,7.877,3.545,7.877,7.877v239.852C409.6,376.123,406.055,379.668,401.723,379.668z"/>
<rect x="118.154" y="147.692" style="fill:#FFFFFF;" width="267.815" height="208.345"/>
<path style="fill:#F1543F;" d="M326.498,396.603v-16.935H177.625v16.935c0,7.089-5.908,12.603-12.997,12.603l0,0
	c-7.089,0-12.603,5.908-12.603,12.997l0,0c0,2.757,2.363,5.12,5.12,5.12h189.834c2.757,0,5.12-2.363,5.12-5.12l0,0
	c0-7.089-5.908-12.997-12.997-12.997l0,0C332.406,409.206,326.498,403.692,326.498,396.603z"/>
<rect x="316.652" y="171.323" style="fill:#2C9984;" width="46.474" height="161.083"/>
<rect x="258.363" y="216.222" style="fill:#F9B54C;" width="46.474" height="116.185"/>
<rect x="199.68" y="260.726" style="fill:#54C0EB;" width="46.474" height="71.68"/>
<rect x="140.997" y="305.625" style="fill:#4CDBC4;" width="46.474" height="26.782"/>
<g>
</g>
<g>
</g>
<g>
</g>
<g>
</g>
<g>
</g>
<g>
</g>
<g>
</g>
<g>
</g>
<g>
</g>
<g>
</g>
<g>
</g>
<g>
</g>
<g>
</g>
<g>
</g>
<g>
</g>
</svg>
