<?xml version="1.0" encoding="iso-8859-1"?>
<!-- Generator: Adobe Illustrator 19.0.0, SVG Export Plug-In . SVG Version: 6.00 Build 0)  -->
<svg version="1.1" id="Layer_1" xmlns="http://www.w3.org/2000/svg" xmlns:xlink="http://www.w3.org/1999/xlink" x="0px" y="0px"
	 viewBox="0 0 504.123 504.123" style="enable-background:new 0 0 504.123 504.123;" xml:space="preserve">
<circle style="fill:#90DFAA;" cx="252.062" cy="252.062" r="252.062"/>
<g>
	<rect x="102.794" y="132.332" style="fill:#324A5E;" width="298.929" height="95.311"/>
	<rect x="94.523" y="116.185" style="fill:#324A5E;" width="315.077" height="16.148"/>
	<rect x="102.794" y="233.945" style="fill:#324A5E;" width="298.929" height="104.369"/>
</g>
<g>
	<rect x="120.911" y="237.883" style="fill:#F9B54C;" width="262.695" height="84.283"/>
	<rect x="120.911" y="132.332" style="fill:#F9B54C;" width="262.695" height="89.797"/>
</g>
<g>
	<rect x="102.794" y="227.643" style="fill:#324A5E;" width="298.929" height="6.302"/>
	<rect x="102.794" y="318.622" style="fill:#324A5E;" width="18.117" height="69.317"/>
	<rect x="384" y="318.622" style="fill:#324A5E;" width="17.329" height="69.317"/>
</g>
<g>
	<polygon style="fill:#FFFFFF;" points="292.234,296.566 211.495,296.566 211.495,270.572 223.311,270.572 223.311,284.751 
		280.418,284.751 280.418,270.572 292.234,270.572 	"/>
	<polygon style="fill:#FFFFFF;" points="292.234,196.923 211.495,196.923 211.495,170.929 223.311,170.929 223.311,185.108 
		280.418,185.108 280.418,170.929 292.234,170.929 	"/>
</g>
<g>
</g>
<g>
</g>
<g>
</g>
<g>
</g>
<g>
</g>
<g>
</g>
<g>
</g>
<g>
</g>
<g>
</g>
<g>
</g>
<g>
</g>
<g>
</g>
<g>
</g>
<g>
</g>
<g>
</g>
</svg>
