<?xml version="1.0" encoding="iso-8859-1"?>
<!-- Generator: Adobe Illustrator 19.0.0, SVG Export Plug-In . SVG Version: 6.00 Build 0)  -->
<svg version="1.1" id="Layer_1" xmlns="http://www.w3.org/2000/svg" xmlns:xlink="http://www.w3.org/1999/xlink" x="0px" y="0px"
	 viewBox="0 0 504.123 504.123" style="enable-background:new 0 0 504.123 504.123;" xml:space="preserve">
<circle style="fill:#84DBFF;" cx="252.062" cy="252.062" r="252.062"/>
<rect x="159.902" y="94.523" style="fill:#324A5E;" width="233.945" height="315.077"/>
<rect x="110.277" y="94.523" style="fill:#F1543F;" width="49.231" height="315.077"/>
<g>
	<path style="fill:#FFFFFF;" d="M167.385,131.545h-15.36c-3.545,0-6.302-2.757-6.302-6.302l0,0c0-3.545,2.757-6.302,6.302-6.302
		h15.36c3.545,0,6.302,2.757,6.302,6.302l0,0C173.686,128.394,170.929,131.545,167.385,131.545z"/>
	<path style="fill:#FFFFFF;" d="M167.385,173.686h-15.36c-3.545,0-6.302-2.757-6.302-6.302l0,0c0-3.545,2.757-6.302,6.302-6.302
		h15.36c3.545,0,6.302,2.757,6.302,6.302l0,0C173.686,170.929,170.929,173.686,167.385,173.686z"/>
	<path style="fill:#FFFFFF;" d="M167.385,216.222h-15.36c-3.545,0-6.302-2.757-6.302-6.302l0,0c0-3.545,2.757-6.302,6.302-6.302
		h15.36c3.545,0,6.302,2.757,6.302,6.302l0,0C173.686,213.071,170.929,216.222,167.385,216.222z"/>
	<path style="fill:#FFFFFF;" d="M167.385,258.363h-15.36c-3.545,0-6.302-2.757-6.302-6.302l0,0c0-3.545,2.757-6.302,6.302-6.302
		h15.36c3.545,0,6.302,2.757,6.302,6.302l0,0C173.686,255.606,170.929,258.363,167.385,258.363z"/>
	<path style="fill:#FFFFFF;" d="M167.385,300.898h-15.36c-3.545,0-6.302-2.757-6.302-6.302l0,0c0-3.545,2.757-6.302,6.302-6.302
		h15.36c3.545,0,6.302,2.757,6.302,6.302l0,0C173.686,297.748,170.929,300.898,167.385,300.898z"/>
	<path style="fill:#FFFFFF;" d="M167.385,343.04h-15.36c-3.545,0-6.302-2.757-6.302-6.302l0,0c0-3.545,2.757-6.302,6.302-6.302
		h15.36c3.545,0,6.302,2.757,6.302,6.302l0,0C173.686,340.283,170.929,343.04,167.385,343.04z"/>
	<path style="fill:#FFFFFF;" d="M167.385,385.575h-15.36c-3.545,0-6.302-2.757-6.302-6.302l0,0c0-3.545,2.757-6.302,6.302-6.302
		h15.36c3.545,0,6.302,2.757,6.302,6.302l0,0C173.686,382.425,170.929,385.575,167.385,385.575z"/>
	<path style="fill:#FFFFFF;" d="M192.985,221.342v-84.677c0-4.332,3.545-7.877,7.877-7.877h151.631c4.332,0,7.877,3.545,7.877,7.877
		v85.071c0,4.332-3.545,7.877-7.877,7.877H200.862C196.529,229.218,192.985,225.674,192.985,221.342z"/>
</g>
<path style="fill:#F9B54C;" d="M300.111,193.772c1.575,0,3.151-1.575,4.726-4.332c1.182-2.757,1.969-6.302,1.969-10.634
	c0-9.058-2.757-16.542-7.877-22.449c-5.12-5.908-12.209-9.058-20.874-9.058s-16.148,3.151-22.055,9.452
	c-5.908,6.302-9.058,13.785-9.058,22.449c0,8.665,2.757,16.148,8.665,21.662c5.514,5.908,12.603,8.665,20.874,8.665
	c6.695,0,12.209-2.363,17.329-7.089l3.938,6.695c-2.757,2.363-5.908,3.938-9.846,5.514c-3.938,1.575-7.877,1.969-11.422,1.969
	c-10.634,0-19.692-3.545-27.175-10.634c-7.089-7.089-11.028-16.148-11.028-27.175c0-11.028,3.938-20.086,11.422-27.569
	c7.483-7.483,16.935-11.422,27.569-11.422c10.634,0,19.692,3.545,27.175,11.028c7.089,7.483,11.028,16.542,11.028,27.569
	c0,7.089-1.575,12.997-4.332,16.935c-2.757,4.332-6.695,6.302-11.422,6.302c-2.363,0-4.726-0.788-6.695-2.363
	c-1.969-1.575-3.545-3.545-4.332-5.514c-3.545,4.726-7.877,6.695-13.391,6.695s-10.24-1.969-14.178-6.302
	c-3.938-3.938-5.908-9.452-5.908-15.754s1.969-11.815,5.514-16.148s8.271-6.695,14.572-6.695c1.969,0,3.938,0.394,5.908,1.182
	c1.969,0.788,3.151,1.575,3.938,2.757l1.182,1.182v-3.938h12.209v32.295C297.354,192.197,298.142,193.772,300.111,193.772z
	 M285.538,179.2c0-3.151-0.788-5.908-2.757-7.877c-1.575-1.969-3.938-3.151-6.695-3.151c-2.757,0-5.12,1.182-6.695,3.151
	c-1.575,1.969-2.363,4.726-2.363,7.877c0,3.151,0.788,5.908,2.363,8.271s3.938,3.545,6.695,3.545c2.757,0,5.12-1.182,6.695-3.151
	C284.357,185.108,285.538,182.351,285.538,179.2z"/>
<g>
</g>
<g>
</g>
<g>
</g>
<g>
</g>
<g>
</g>
<g>
</g>
<g>
</g>
<g>
</g>
<g>
</g>
<g>
</g>
<g>
</g>
<g>
</g>
<g>
</g>
<g>
</g>
<g>
</g>
</svg>
