<?xml version="1.0" encoding="iso-8859-1"?>
<!-- Generator: Adobe Illustrator 19.0.0, SVG Export Plug-In . SVG Version: 6.00 Build 0)  -->
<svg version="1.1" id="Layer_1" xmlns="http://www.w3.org/2000/svg" xmlns:xlink="http://www.w3.org/1999/xlink" x="0px" y="0px"
	 viewBox="0 0 504.123 504.123" style="enable-background:new 0 0 504.123 504.123;" xml:space="preserve">
<circle style="fill:#90DFAA;" cx="252.062" cy="252.062" r="252.062"/>
<polygon style="fill:#2B3B4E;" points="94.523,363.52 94.523,382.031 102.4,393.846 401.723,393.846 409.6,382.031 409.6,363.52 "/>
<path style="fill:#324A5E;" d="M382.818,345.403H121.305c-4.332,0-7.877-3.545-7.877-7.877V118.154c0-4.332,3.545-7.877,7.877-7.877
	h261.12c4.332,0,7.877,3.545,7.877,7.877v219.372C390.695,341.858,387.151,345.403,382.818,345.403z"/>
<rect x="133.12" y="129.969" style="fill:#FFFFFF;" width="237.489" height="195.742"/>
<rect x="224.492" y="371.003" style="fill:#ACB3BA;" width="55.138" height="7.877"/>
<path style="fill:#54C0EB;" d="M248.911,273.329c0,2.757-0.788,4.726-2.757,6.695c-1.969,1.969-4.332,2.757-7.089,2.757
	s-5.12-0.788-7.089-2.757c-1.969-1.969-2.757-3.938-2.757-6.695c0-2.757,0.788-4.726,2.757-6.695
	c1.969-1.969,4.332-2.757,7.089-2.757s5.12,0.788,7.089,2.757C247.729,268.603,248.911,270.572,248.911,273.329z M274.117,263.089
	l-33.083,46.08h-11.422l33.083-46.08H274.117z M237.095,275.692c0.394,0.788,1.182,0.788,1.969,0.788
	c0.788,0,1.575-0.394,1.969-0.788c0.394-0.788,0.788-1.182,0.788-2.363c0-1.182-0.394-1.575-0.788-2.363
	c-0.394-0.788-1.182-0.788-1.969-0.788c-0.788,0-1.575,0.394-1.969,0.788c-0.394,0.788-0.788,1.575-0.788,2.363
	C236.308,274.117,236.702,274.905,237.095,275.692z M274.905,300.505c0,2.757-0.788,4.726-2.757,6.695
	c-1.969,1.969-4.332,2.757-7.089,2.757c-2.757,0-5.12-0.788-7.089-2.757c-1.969-1.969-2.757-3.938-2.757-6.695
	c0-2.757,0.788-4.726,2.757-6.695c1.969-1.969,4.332-2.757,7.089-2.757s5.12,0.788,7.089,2.757
	C273.723,295.385,274.905,297.748,274.905,300.505z M263.089,302.868c0.394,0.788,1.182,0.788,1.969,0.788s1.575-0.394,1.969-0.788
	c0.394-0.788,0.788-1.182,0.788-2.363c0-0.788-0.394-1.575-0.788-2.363c-0.394-0.788-1.182-0.788-1.969-0.788
	s-1.575,0.394-1.969,0.788c-0.394,0.788-0.788,1.575-0.788,2.363C262.302,301.292,262.695,302.08,263.089,302.868z"/>
<path style="fill:#ACB3BA;" d="M123.668,178.018v8.271c0,8.665,7.089,16.148,16.148,16.148c8.665,0,16.148-7.089,16.148-16.148
	v-8.271H123.668z"/>
<polygon style="fill:#E6E9EE;" points="179.988,129.969 155.963,129.969 123.668,178.018 155.963,178.018 "/>
<path style="fill:#F1543F;" d="M155.963,178.018v8.271c0,8.665,7.089,16.148,16.148,16.148c8.665,0,16.148-7.089,16.148-16.148
	v-8.271H155.963z"/>
<polygon style="fill:#FF7058;" points="187.865,178.018 204.012,129.969 179.988,129.969 155.963,178.018 "/>
<path style="fill:#ACB3BA;" d="M187.865,178.018v8.271c0,8.665,7.089,16.148,16.148,16.148c8.665,0,16.148-7.089,16.148-16.148
	v-8.271H187.865z"/>
<polygon style="fill:#E6E9EE;" points="220.16,178.018 228.037,129.969 204.012,129.969 187.865,178.018 "/>
<polygon style="fill:#FF7058;" points="252.062,178.018 252.062,129.969 228.037,129.969 220.16,178.018 "/>
<path style="fill:#F1543F;" d="M220.16,178.018v8.271c0,8.665,7.089,16.148,16.148,16.148c8.665,0,16.148-7.089,16.148-16.148
	v-8.271H220.16z"/>
<polygon style="fill:#E6E9EE;" points="283.963,178.018 276.086,129.969 252.062,129.969 252.062,178.018 "/>
<path style="fill:#ACB3BA;" d="M252.062,178.018v8.271c0,8.665,7.089,16.148,16.148,16.148c8.665,0,16.148-7.089,16.148-16.148
	v-8.271H252.062z"/>
<path style="fill:#F1543F;" d="M283.963,178.018v8.271c0,8.665,7.089,16.148,16.148,16.148c8.665,0,16.148-7.089,16.148-16.148
	v-8.271H283.963z"/>
<polygon style="fill:#FF7058;" points="316.258,178.018 300.111,129.969 276.086,129.969 283.963,178.018 "/>
<path style="fill:#ACB3BA;" d="M316.258,178.018v8.271c0,8.665,7.089,16.148,16.148,16.148c8.665,0,16.148-7.089,16.148-16.148
	v-8.271H316.258z"/>
<polygon style="fill:#E6E9EE;" points="348.16,178.018 324.135,129.969 300.111,129.969 316.258,178.018 "/>
<polygon style="fill:#FF7058;" points="380.455,178.018 348.16,129.969 324.135,129.969 348.16,178.018 "/>
<g>
	<path style="fill:#F1543F;" d="M348.16,178.018v8.271c0,8.665,7.089,16.148,16.148,16.148c8.665,0,16.148-7.089,16.148-16.148
		v-8.271H348.16z"/>
	<path style="fill:#F1543F;" d="M205.982,221.342c-1.575,0-3.151,0.394-3.938,1.182c-1.182,0.788-1.575,1.575-1.575,3.151
		c0,1.182,0.394,2.363,1.575,3.151c1.182,0.788,3.151,1.575,6.695,2.363s5.908,1.969,7.483,3.545s2.757,3.545,2.757,6.695
		s-1.182,5.12-3.151,7.089c-2.363,1.969-5.12,2.757-8.665,2.757c-5.12,0-9.846-1.969-13.785-5.514l3.545-4.332
		c3.151,2.757,6.695,4.332,10.24,4.332c1.969,0,3.151-0.394,4.332-1.182c1.182-0.788,1.575-1.969,1.575-3.151
		s-0.394-2.363-1.575-3.151c-1.182-0.788-2.757-1.182-5.12-1.969c-2.363-0.788-4.332-1.182-5.514-1.575
		c-1.182-0.394-2.363-1.182-3.545-1.969c-1.969-1.575-2.757-3.938-2.757-6.695s1.182-5.514,3.151-7.089
		c1.969-1.575,5.12-2.363,8.271-2.363c1.969,0,4.332,0.394,6.302,1.182c1.969,0.788,3.938,1.575,5.514,2.757l-3.151,3.938
		c-0.788-0.788-2.363-1.575-3.938-2.363C209.132,221.735,207.557,221.342,205.982,221.342z"/>
	<path style="fill:#F1543F;" d="M230.006,242.609l-3.151,7.483h-5.908l14.572-33.083h5.908L256,250.092h-5.908l-3.151-7.483H230.006
		z M244.185,237.489l-5.908-13.785l-5.908,13.785H244.185z"/>
	<path style="fill:#F1543F;" d="M260.332,250.092v-33.083h5.514v27.569h14.966v5.12h-20.48V250.092z"/>
	<path style="fill:#F1543F;" d="M310.351,217.009v5.12h-17.723v8.665h15.754v5.12h-15.754v8.665h18.117v5.12h-23.631v-33.083h23.237
		V217.009z"/>
</g>
<g>
</g>
<g>
</g>
<g>
</g>
<g>
</g>
<g>
</g>
<g>
</g>
<g>
</g>
<g>
</g>
<g>
</g>
<g>
</g>
<g>
</g>
<g>
</g>
<g>
</g>
<g>
</g>
<g>
</g>
</svg>
