<?xml version="1.0" encoding="iso-8859-1"?>
<!-- Generator: Adobe Illustrator 19.0.0, SVG Export Plug-In . SVG Version: 6.00 Build 0)  -->
<svg version="1.1" id="Layer_1" xmlns="http://www.w3.org/2000/svg" xmlns:xlink="http://www.w3.org/1999/xlink" x="0px" y="0px"
	 viewBox="0 0 504.123 504.123" style="enable-background:new 0 0 504.123 504.123;" xml:space="preserve">
<circle style="fill:#FFD05B;" cx="252.062" cy="252.062" r="252.062"/>
<path style="fill:#324A5E;" d="M252.062,90.585c-50.018,0-90.585,40.566-90.585,90.585v39.385h181.169v-39.385
	C342.646,131.151,302.08,90.585,252.062,90.585z M319.409,216.615H184.714v-35.446c0-37.022,30.326-66.954,67.348-66.954l0,0
	c37.022,0,67.348,29.932,67.348,67.348V216.615z"/>
<path style="fill:#F1543F;" d="M359.582,216.615h-215.04c-6.695,0-11.815,5.12-11.815,11.815v169.354
	c0,6.695,5.12,11.815,11.815,11.815h215.04c6.695,0,11.815-5.12,11.815-11.815V228.431
	C371.397,221.735,366.277,216.615,359.582,216.615z"/>
<circle style="fill:#E6E9EE;" cx="252.062" cy="313.108" r="77.588"/>
<circle style="fill:#ACB3BA;" cx="252.062" cy="313.108" r="61.046"/>
<path style="fill:#FFFFFF;" d="M249.305,365.883v-9.452c-11.815-1.182-22.055-5.908-31.508-13.785l9.452-11.028
	c7.089,6.302,14.572,9.846,22.055,11.028v-24.812c-9.452-2.363-16.542-5.12-20.874-9.058c-4.332-3.545-6.695-9.452-6.695-16.542
	c0-7.483,2.757-13.391,7.877-18.117s11.815-7.089,20.086-7.483v-6.302h8.271v6.695c9.452,0.788,18.117,3.938,26.388,9.452
	l-8.271,11.815c-5.514-3.938-11.815-6.302-18.117-7.483v24.025h0.394c9.846,2.363,16.935,5.514,21.662,9.452
	c4.726,3.938,6.695,9.452,6.695,16.935s-2.757,13.391-7.877,18.117c-5.12,4.726-12.209,7.089-20.874,7.483v9.058H249.305z
	 M241.428,286.72c-1.969,1.575-2.757,3.938-2.757,6.302s0.788,4.726,2.363,5.908c1.575,1.575,4.332,2.757,8.665,4.332v-19.692
	C246.154,283.963,243.397,284.751,241.428,286.72z M265.452,336.738c1.969-1.575,3.151-3.938,3.151-6.695
	c0-2.757-0.788-4.726-2.363-6.302c-1.575-1.575-4.726-3.151-9.452-4.332v20.48C260.726,339.889,263.483,338.708,265.452,336.738z"/>
<g>
</g>
<g>
</g>
<g>
</g>
<g>
</g>
<g>
</g>
<g>
</g>
<g>
</g>
<g>
</g>
<g>
</g>
<g>
</g>
<g>
</g>
<g>
</g>
<g>
</g>
<g>
</g>
<g>
</g>
</svg>
