<?xml version="1.0" encoding="iso-8859-1"?>
<!-- Generator: Adobe Illustrator 19.0.0, SVG Export Plug-In . SVG Version: 6.00 Build 0)  -->
<svg version="1.1" id="Layer_1" xmlns="http://www.w3.org/2000/svg" xmlns:xlink="http://www.w3.org/1999/xlink" x="0px" y="0px"
	 viewBox="0 0 504.123 504.123" style="enable-background:new 0 0 504.123 504.123;" xml:space="preserve">
<circle style="fill:#FD8469;" cx="252.062" cy="252.062" r="252.062"/>
<polygon style="fill:#2B3B4E;" points="94.523,363.52 94.523,382.031 102.4,393.846 401.723,393.846 409.6,382.031 409.6,363.52 "/>
<path style="fill:#324A5E;" d="M378.88,345.403H125.243c-6.695,0-11.815-5.12-11.815-11.815V122.092
	c0-6.695,5.12-11.815,11.815-11.815h253.243c6.695,0,11.815,5.12,11.815,11.815v211.495
	C390.695,339.889,385.182,345.403,378.88,345.403z"/>
<rect x="133.12" y="129.969" style="fill:#E6E9EE;" width="237.489" height="195.742"/>
<rect x="224.492" y="371.003" style="fill:#ACB3BA;" width="55.138" height="7.877"/>
<circle style="fill:#F5B947;" cx="211.102" cy="206.769" r="62.622"/>
<path style="fill:#F3D479;" d="M211.102,260.726c-29.932,0-53.957-24.025-53.957-53.957s24.025-53.957,53.957-53.957
	s53.957,24.418,53.957,53.957S241.034,260.726,211.102,260.726z"/>
<path style="fill:#F5B947;" d="M208.738,250.092v-7.877c-9.846-1.182-18.511-4.726-26.388-11.815l7.877-9.452
	c5.908,5.12,12.209,8.271,18.511,9.452v-20.874c-7.877-1.969-13.785-4.332-17.723-7.483c-3.545-3.151-5.514-7.877-5.514-13.785
	c0-5.908,1.969-11.028,6.302-14.966c4.332-3.938,9.846-5.908,16.935-6.302v-5.514h6.695v5.514c7.877,0.394,15.36,3.151,22.055,7.877
	l-7.089,9.846c-4.726-3.545-9.846-5.514-15.36-6.302v20.086h0.394c8.271,1.969,14.178,4.332,18.117,7.877
	c3.938,3.151,5.908,7.877,5.908,14.178s-2.363,11.422-6.695,15.36s-10.24,5.908-17.723,6.302v7.877H208.738z M201.255,180.775
	c-1.969,1.575-2.757,3.545-2.757,5.908c0,2.363,0.788,4.332,1.969,5.514c1.575,1.575,3.938,2.757,8.271,3.938v-18.511
	C205.588,178.412,203.225,179.2,201.255,180.775z M223.705,227.643c1.969-1.575,3.151-3.545,3.151-6.302
	c0-2.363-0.788-4.332-2.363-5.908c-1.575-1.575-4.332-2.757-8.665-3.938v19.298C218.978,230.4,221.735,229.612,223.705,227.643z"/>
<polygon style="fill:#324A5E;" points="346.191,266.634 273.723,239.065 301.292,311.138 313.502,289.871 327.68,304.443 
	339.102,293.022 324.923,278.449 "/>
<g>
</g>
<g>
</g>
<g>
</g>
<g>
</g>
<g>
</g>
<g>
</g>
<g>
</g>
<g>
</g>
<g>
</g>
<g>
</g>
<g>
</g>
<g>
</g>
<g>
</g>
<g>
</g>
<g>
</g>
</svg>
