<?xml version="1.0" encoding="iso-8859-1"?>
<!-- Generator: Adobe Illustrator 19.0.0, SVG Export Plug-In . SVG Version: 6.00 Build 0)  -->
<svg version="1.1" id="Layer_1" xmlns="http://www.w3.org/2000/svg" xmlns:xlink="http://www.w3.org/1999/xlink" x="0px" y="0px"
	 viewBox="0 0 504.123 504.123" style="enable-background:new 0 0 504.123 504.123;" xml:space="preserve">
<circle style="fill:#324A5E;" cx="252.062" cy="252.062" r="252.062"/>
<polygon style="fill:#F1543F;" points="363.52,298.142 409.6,252.062 363.52,205.982 363.52,140.603 298.142,140.603 
	252.062,94.523 205.982,140.603 140.603,140.603 140.603,205.982 94.523,252.062 140.603,298.142 140.603,363.52 205.982,363.52 
	252.062,409.6 298.142,363.52 363.52,363.52 "/>
<polygon style="fill:#FFFFFF;" points="214.646,341.858 162.265,341.858 162.265,289.477 124.849,252.062 162.265,214.646 
	162.265,162.265 214.646,162.265 252.062,124.849 289.477,162.265 341.858,162.265 341.858,214.646 379.274,252.062 
	341.858,289.477 341.858,341.858 289.477,341.858 252.062,379.274 "/>
<path style="fill:#2B3B4E;" d="M235.52,193.772c5.12,5.908,7.877,12.603,7.877,20.874c0,8.271-2.757,14.966-7.877,20.874
	c-5.514,5.908-11.815,8.665-20.086,8.665c-7.877,0-14.572-2.757-19.692-8.665c-5.12-5.908-7.877-12.603-7.877-20.874
	c0-8.271,2.757-14.966,7.877-20.874c5.514-5.908,11.815-8.665,20.086-8.665C223.311,185.502,230.006,188.258,235.52,193.772z
	 M310.351,188.652L215.828,317.44h-23.631l94.523-128.788L310.351,188.652L310.351,188.652z M222.917,224.492
	c1.969-2.363,3.151-5.514,3.151-9.452c0-3.545-1.182-6.695-3.151-9.452c-1.969-2.363-4.726-3.938-7.483-3.938
	c-3.151,0-5.514,1.182-7.483,3.938c-1.969,2.363-3.151,5.514-3.151,9.452c0,3.545,1.182,6.695,3.151,9.452
	c1.969,2.363,4.726,3.938,7.483,3.938C218.585,228.037,220.948,226.855,222.917,224.492z M308.382,268.603
	c5.12,5.908,7.877,12.603,7.877,20.874c0,8.271-2.757,14.966-7.877,20.874c-5.514,5.908-11.815,8.665-20.086,8.665
	c-7.877,0-14.572-2.757-19.692-8.665c-5.12-5.908-7.877-12.603-7.877-20.874s2.757-14.966,7.877-20.874
	c5.514-5.908,11.815-8.665,20.086-8.665C296.566,259.938,303.262,262.695,308.382,268.603z M296.566,299.323
	c1.969-2.363,2.757-5.514,2.757-9.452c0-3.545-1.182-6.695-3.151-9.452c-1.969-2.363-4.726-3.938-7.483-3.938
	c-3.151,0-5.514,1.182-7.483,3.938c-1.969,2.363-3.151,5.514-3.151,9.452c0,3.545,1.182,6.695,3.151,9.452
	c1.969,2.363,4.726,3.938,7.483,3.938C291.446,303.262,294.597,301.686,296.566,299.323z"/>
<g>
</g>
<g>
</g>
<g>
</g>
<g>
</g>
<g>
</g>
<g>
</g>
<g>
</g>
<g>
</g>
<g>
</g>
<g>
</g>
<g>
</g>
<g>
</g>
<g>
</g>
<g>
</g>
<g>
</g>
</svg>
