<?xml version="1.0" encoding="iso-8859-1"?>
<!-- Generator: Adobe Illustrator 19.0.0, SVG Export Plug-In . SVG Version: 6.00 Build 0)  -->
<svg version="1.1" id="Layer_1" xmlns="http://www.w3.org/2000/svg" xmlns:xlink="http://www.w3.org/1999/xlink" x="0px" y="0px"
	 viewBox="0 0 504.123 504.123" style="enable-background:new 0 0 504.123 504.123;" xml:space="preserve">
<circle style="fill:#84DBFF;" cx="252.062" cy="252.062" r="252.062"/>
<path style="fill:#2C9984;" d="M395.815,323.348c12.209-20.874,18.905-45.292,18.905-71.286c0-33.083-11.028-63.409-29.932-87.828
	l-113.822,87.828L395.815,323.348z"/>
<path style="fill:#324A5E;" d="M381.243,139.028c-25.994-34.265-67.348-56.32-113.822-56.32v144.148L381.243,139.028z"/>
<path style="fill:#F9B54C;" d="M259.938,273.329l-61.44,130.363c18.511,8.665,39.385,13.785,61.44,13.785
	c53.563,0,100.431-29.145,125.243-72.468L259.938,273.329z"/>
<path style="fill:#FF7058;" d="M252.849,107.914c-79.557,0-143.754,64.591-143.754,144.148c0,57.502,33.871,107.126,82.708,130.363
	l61.046-130.363V107.914z"/>
<g>
</g>
<g>
</g>
<g>
</g>
<g>
</g>
<g>
</g>
<g>
</g>
<g>
</g>
<g>
</g>
<g>
</g>
<g>
</g>
<g>
</g>
<g>
</g>
<g>
</g>
<g>
</g>
<g>
</g>
</svg>
