<?xml version="1.0" encoding="iso-8859-1"?>
<!-- Generator: Adobe Illustrator 19.0.0, SVG Export Plug-In . SVG Version: 6.00 Build 0)  -->
<svg version="1.1" id="Layer_1" xmlns="http://www.w3.org/2000/svg" xmlns:xlink="http://www.w3.org/1999/xlink" x="0px" y="0px"
	 viewBox="0 0 504.123 504.123" style="enable-background:new 0 0 504.123 504.123;" xml:space="preserve">
<circle style="fill:#FFD05B;" cx="252.062" cy="252.062" r="252.062"/>
<path style="fill:#ACB3BA;" d="M138.24,94.523h-31.902c-6.695,0-11.815,5.12-11.815,11.815v268.997
	c0,6.695,5.12,11.815,11.815,11.815h31.902h259.545c6.695,0,11.815-5.12,11.815-11.815V106.338c0-6.695-5.12-11.815-11.815-11.815
	H138.24z"/>
<path style="fill:#E6E9EE;" d="M129.575,345.403V135.877c0-6.695,5.12-11.815,11.815-11.815h221.342
	c6.695,0,11.815,5.12,11.815,11.815v209.526c0,6.695-5.12,11.815-11.815,11.815H141.391
	C134.695,357.218,129.575,352.098,129.575,345.403z"/>
<g>
	<rect x="123.274" y="387.151" style="fill:#2B3B4E;" width="50.806" height="15.754"/>
	<rect x="330.043" y="387.151" style="fill:#2B3B4E;" width="50.806" height="15.754"/>
</g>
<g>
	<path style="fill:#324A5E;" d="M327.286,242.609v-3.938c0-2.757-2.363-5.12-5.12-5.12h-9.058
		c-1.182-11.815-5.908-22.449-12.997-31.508l6.302-6.302c1.969-1.969,1.969-5.12,0-7.089l-2.757-2.757
		c-1.969-1.969-5.12-1.969-7.089,0l-6.302,6.302c-8.665-7.089-19.692-11.815-31.508-12.997v-9.058c0-2.757-2.363-5.12-5.12-5.12
		h-3.938c-2.757,0-5.12,2.363-5.12,5.12v9.058c-11.815,1.182-22.449,5.908-31.508,12.997l-6.302-6.302
		c-1.969-1.969-5.12-1.969-7.089,0l-2.363,3.151c-1.969,1.969-1.969,5.12,0,7.089l6.302,6.302
		c-7.089,8.665-11.815,19.692-12.997,31.508h-9.058c-2.757,0-5.12,2.363-5.12,5.12v3.938c0,2.757,2.363,5.12,5.12,5.12h9.058
		c1.182,11.815,5.908,22.449,12.997,31.508l-6.302,6.302c-1.969,1.969-1.969,5.12,0,7.089l2.757,2.757
		c1.969,1.969,5.12,1.969,7.089,0l6.302-6.302c8.665,7.089,19.692,11.815,31.508,12.997v8.665c0,2.757,2.363,5.12,5.12,5.12h3.938
		c2.757,0,5.12-2.363,5.12-5.12v-9.058c11.815-1.182,22.449-5.908,31.508-12.997l6.302,6.302c1.969,1.969,5.12,1.969,7.089,0
		l2.757-2.757c1.969-1.969,1.969-5.12,0-7.089l-6.302-6.302c7.089-8.665,11.815-19.692,12.997-31.508h9.058
		C325.317,247.729,327.286,245.366,327.286,242.609z M298.929,231.582c6.302,33.477-22.843,62.622-56.32,56.32
		c-18.905-3.545-33.871-18.905-37.415-37.415c-6.302-33.477,22.843-62.622,56.32-56.32
		C280.418,197.317,295.385,212.677,298.929,231.582z"/>
	<path style="fill:#324A5E;" d="M287.902,240.64c0,19.692-16.148,35.84-35.84,35.84s-35.84-16.148-35.84-35.84
		s16.148-35.84,35.84-35.84S287.902,220.948,287.902,240.64z"/>
</g>
<path style="fill:#FFFFFF;" d="M250.486,266.634v-4.726c-5.908-0.394-11.028-2.757-15.36-6.695l4.726-5.514
	c3.545,3.151,7.089,4.726,11.028,5.514v-12.209c-4.726-1.182-8.271-2.757-10.24-4.332c-1.969-1.575-3.151-4.726-3.151-8.271
	c0-3.545,1.182-6.695,3.938-9.058c2.363-2.363,5.908-3.545,9.846-3.938v-3.151h3.938v3.151c4.726,0.394,9.058,1.969,12.997,4.726
	l-3.938,5.908c-2.757-1.969-5.908-3.151-9.058-3.545v11.815l0,0c4.726,1.182,8.271,2.757,10.634,4.726
	c2.363,1.969,3.545,4.726,3.545,8.271s-1.182,6.695-3.938,9.058c-2.757,2.363-5.908,3.545-10.24,3.938v4.332L250.486,266.634
	L250.486,266.634z M246.154,226.462c-1.182,0.788-1.575,1.969-1.575,3.545s0.394,2.363,1.182,3.151
	c0.788,0.788,2.363,1.575,4.726,2.363v-11.028C248.911,224.886,247.335,225.28,246.154,226.462z M259.545,253.637
	c1.182-0.788,1.575-2.363,1.575-3.545c0-1.575-0.394-2.757-1.575-3.545c-0.788-0.788-2.757-1.575-5.12-2.363v11.422
	C256.788,255.212,258.363,254.818,259.545,253.637z"/>
<g>
	<rect x="123.274" y="167.385" style="fill:#2B3B4E;" width="12.209" height="33.083"/>
	<rect x="123.274" y="281.206" style="fill:#2B3B4E;" width="12.209" height="33.083"/>
</g>
<g>
</g>
<g>
</g>
<g>
</g>
<g>
</g>
<g>
</g>
<g>
</g>
<g>
</g>
<g>
</g>
<g>
</g>
<g>
</g>
<g>
</g>
<g>
</g>
<g>
</g>
<g>
</g>
<g>
</g>
</svg>
