<?xml version="1.0" encoding="iso-8859-1"?>
<!-- Generator: Adobe Illustrator 19.0.0, SVG Export Plug-In . SVG Version: 6.00 Build 0)  -->
<svg version="1.1" id="Layer_1" xmlns="http://www.w3.org/2000/svg" xmlns:xlink="http://www.w3.org/1999/xlink" x="0px" y="0px"
	 viewBox="0 0 504.123 504.123" style="enable-background:new 0 0 504.123 504.123;" xml:space="preserve">
<circle style="fill:#324A5E;" cx="252.062" cy="252.062" r="252.062"/>
<rect x="94.523" y="155.963" style="fill:#F9B54C;" width="315.077" height="230.794"/>
<rect x="118.154" y="179.594" style="fill:#FFD05B;" width="267.815" height="183.532"/>
<circle style="fill:#E6E9EE;" cx="170.142" cy="204.012" r="11.422"/>
<path style="fill:#ACB3BA;" d="M170.929,214.252c-6.302,0-11.422-5.12-11.422-11.422c0-1.182,0.394-2.757,0.788-3.938
	c-0.788,1.575-1.182,3.151-1.182,5.12c0,6.302,5.12,11.422,11.422,11.422c5.12,0,9.058-3.151,10.634-7.483
	C179.2,211.495,175.262,214.252,170.929,214.252z"/>
<circle style="fill:#E6E9EE;" cx="333.588" cy="204.012" r="11.422"/>
<path style="fill:#ACB3BA;" d="M333.194,214.252c6.302,0,11.422-5.12,11.422-11.422c0-1.182-0.394-2.757-0.788-3.938
	c0.788,1.575,1.182,3.151,1.182,5.12c0,6.302-5.12,11.422-11.422,11.422c-5.12,0-9.058-3.151-10.634-7.483
	C324.923,211.495,328.862,214.252,333.194,214.252z"/>
<g>
	<path style="fill:#F1543F;" d="M153.6,287.508c-1.575,1.182-1.969,2.757-1.969,4.726c0,1.969,0.788,3.545,2.757,4.726
		c1.575,1.182,5.908,2.363,11.815,3.938c6.302,1.575,11.028,3.938,14.572,7.089c3.545,3.151,5.12,7.483,5.12,13.391
		c0,5.908-2.363,10.634-6.695,14.572c-4.332,3.545-10.24,5.514-17.723,5.514c-10.634,0-19.692-3.938-28.357-11.815l8.665-10.634
		c7.089,6.302,15.754,9.452,21.662,9.452c2.757,0,2.757-0.394,4.332-1.575c1.575-1.182,2.363-2.757,2.363-4.726
		s-0.788-3.545-2.363-4.726c-1.575-1.182-4.726-2.363-9.846-3.545c-7.877-1.969-13.391-4.332-16.935-7.089
		c-3.545-2.757-5.514-7.483-5.514-13.785s2.363-11.028,6.695-14.572c4.332-3.545,10.24-5.12,16.935-5.12
		c4.332,0,8.665,0.788,13.391,2.363c4.332,1.575,8.271,3.545,11.422,6.302l-6.695,10.24c-5.908-4.332-11.815-6.695-17.723-6.695
		C157.145,285.538,155.175,286.326,153.6,287.508z"/>
	<path style="fill:#F1543F;" d="M246.548,340.283l-6.302-14.178h-27.569l-6.302,14.178h-15.754l28.357-66.166h14.178l28.357,66.166
		L246.548,340.283L246.548,340.283z M226.855,293.809l-8.271,19.298h16.542L226.855,293.809z"/>
	<path style="fill:#F1543F;" d="M270.178,340.283v-66.166h12.997v52.775h27.963v12.997h-40.96V340.283z"/>
	<path style="fill:#F1543F;" d="M371.397,274.117v12.997h-32.689v13.785h29.538v12.603h-29.538v13.785h33.871v12.997h-48.837
		v-66.166H371.397z"/>
</g>
<path style="fill:#2B3B4E;" d="M333.982,209.92c-1.575,0-3.151-0.788-4.332-1.969l-77.588-91.372l-77.194,91.372
	c-1.969,2.363-5.908,2.757-8.271,0.788c-2.363-1.969-2.757-5.908-0.788-8.271l81.92-96.492c2.363-2.757,6.695-2.757,9.058,0
	l81.92,96.492c1.969,2.363,1.969,6.302-0.788,8.271C336.345,209.526,335.163,209.92,333.982,209.92z"/>
<circle style="fill:#F1543F;" cx="252.062" cy="134.302" r="11.422"/>
<path style="fill:#FF7058;" d="M259.545,130.757c0,0.394,0,1.182,0,1.575c0,5.12-4.332,9.452-9.452,9.452
	c-0.788,0-1.575,0-2.363-0.394c1.182,0.788,2.363,1.182,3.938,1.182c4.726,0,8.271-3.545,8.271-8.271
	C260.332,133.12,259.938,131.938,259.545,130.757z"/>
<g>
</g>
<g>
</g>
<g>
</g>
<g>
</g>
<g>
</g>
<g>
</g>
<g>
</g>
<g>
</g>
<g>
</g>
<g>
</g>
<g>
</g>
<g>
</g>
<g>
</g>
<g>
</g>
<g>
</g>
</svg>
