<?xml version="1.0" encoding="iso-8859-1"?>
<!-- Generator: Adobe Illustrator 19.0.0, SVG Export Plug-In . SVG Version: 6.00 Build 0)  -->
<svg version="1.1" id="Layer_1" xmlns="http://www.w3.org/2000/svg" xmlns:xlink="http://www.w3.org/1999/xlink" x="0px" y="0px"
	 viewBox="0 0 504.123 504.123" style="enable-background:new 0 0 504.123 504.123;" xml:space="preserve">
<circle style="fill:#90DFAA;" cx="252.062" cy="252.062" r="252.062"/>
<circle style="fill:#324A5E;" cx="288.689" cy="215.434" r="63.409"/>
<path style="fill:#FFFFFF;" d="M409.6,235.52v-40.172h-25.206c-2.363-11.422-7.089-22.843-13.785-33.083l18.117-18.117
	l-28.751-28.751l-18.117,18.117c-10.24-6.695-21.662-11.422-33.083-13.785V94.523h-40.566v25.206
	c-11.422,2.363-22.843,7.089-33.083,13.785l-18.117-18.117l-28.751,28.751l18.117,18.117c-6.695,10.24-11.422,21.662-13.785,33.083
	h-25.206v40.566h25.206c2.363,11.422,7.089,22.843,13.785,33.083l-38.991,38.991l28.751,28.751l38.991-38.991
	c10.24,6.695,21.662,11.422,33.083,13.785v25.206h40.566v-25.6c11.422-2.363,22.843-7.089,33.083-13.785l18.117,18.117
	l28.751-28.751l-18.117-18.117c6.695-10.24,11.422-21.662,13.785-33.083L409.6,235.52L409.6,235.52z M345.797,272.542
	c-31.508,31.508-82.708,31.508-114.215,0s-31.508-82.708,0-114.215s82.708-31.508,114.215,0S377.305,241.034,345.797,272.542z"/>
<path style="fill:#F1543F;" d="M200.468,340.283l-36.628-36.628l-62.228,62.228c-9.452,9.452-9.452,25.206,0,35.052l1.575,1.575
	c9.452,9.452,25.206,9.452,35.052,0L200.468,340.283z"/>
<path style="fill:#FFFFFF;" d="M285.932,265.452v-8.665c-11.028-1.182-20.874-5.514-29.538-12.997l8.665-10.634
	c6.695,5.908,13.785,9.452,20.874,10.634v-23.237c-9.058-2.363-15.754-5.12-20.086-8.665c-4.332-3.545-6.302-8.665-6.302-15.754
	c0-7.089,2.363-12.603,7.483-16.935c4.726-4.332,11.028-6.695,18.905-7.089v-6.695h7.877v6.302
	c8.665,0.788,17.329,3.545,25.206,9.058l-7.877,11.028c-5.12-3.938-11.028-6.302-17.329-7.089v22.843h0.394
	c9.058,2.363,16.148,5.12,20.48,8.665s6.695,9.058,6.695,16.148s-2.363,12.603-7.483,17.329c-5.12,4.332-11.422,6.695-19.692,7.089
	v8.665L285.932,265.452L285.932,265.452z M277.662,187.471c-1.969,1.969-3.151,3.938-3.151,6.695s0.788,4.726,2.363,6.302
	c1.575,1.575,4.726,3.151,9.058,4.332v-20.874C282.388,184.714,279.631,185.895,277.662,187.471z M302.868,240.64
	c2.363-1.969,3.545-4.332,3.545-7.089s-0.788-5.12-2.757-6.695c-1.969-1.575-5.12-3.151-9.846-4.726v21.662
	C297.748,243.397,300.505,242.215,302.868,240.64z"/>
<g>
</g>
<g>
</g>
<g>
</g>
<g>
</g>
<g>
</g>
<g>
</g>
<g>
</g>
<g>
</g>
<g>
</g>
<g>
</g>
<g>
</g>
<g>
</g>
<g>
</g>
<g>
</g>
<g>
</g>
</svg>
