<?xml version="1.0" encoding="iso-8859-1"?>
<!-- Generator: Adobe Illustrator 19.0.0, SVG Export Plug-In . SVG Version: 6.00 Build 0)  -->
<svg version="1.1" id="Layer_1" xmlns="http://www.w3.org/2000/svg" xmlns:xlink="http://www.w3.org/1999/xlink" x="0px" y="0px"
	 viewBox="0 0 504.123 504.123" style="enable-background:new 0 0 504.123 504.123;" xml:space="preserve">
<circle style="fill:#84DBFF;" cx="252.062" cy="252.062" r="252.062"/>
<path style="fill:#FF7058;" d="M409.6,187.471v-35.84h-16.935c-1.182-3.545-2.757-7.089-4.332-10.24l11.815-11.815l-25.6-25.6
	l-11.815,11.815c-3.151-1.575-6.695-3.151-10.24-4.332V94.523h-35.84v16.935c-3.545,1.182-7.089,2.757-10.24,4.332l-11.815-11.815
	l-25.6,25.6l11.815,11.815c-1.575,3.151-3.151,6.695-4.332,10.24h-16.542v35.84h16.935c1.182,3.545,2.757,7.089,4.332,10.24
	l-11.815,11.815l25.6,25.6l11.815-11.815c3.151,1.575,6.695,3.151,10.24,4.332v16.542h35.84v-16.935
	c3.545-1.182,7.089-2.757,10.24-4.332l11.815,11.815l25.6-25.6l-11.815-11.815c1.575-3.151,3.151-6.695,4.332-10.24H409.6V187.471z"
	/>
<path style="fill:#324A5E;" d="M301.686,330.437V281.6h-22.843c-1.575-5.514-3.938-10.634-6.302-15.36l16.148-16.148l-34.265-34.265
	l-16.148,16.148c-4.726-2.757-10.24-4.726-15.36-6.302v-22.843h-49.231v22.843c-5.514,1.575-10.634,3.938-15.36,6.302
	l-16.148-16.148l-34.265,34.265l16.148,16.148c-2.757,4.726-4.726,10.24-6.302,15.36H94.523v48.837h22.843
	c1.575,5.514,3.938,10.634,6.302,15.36l-16.148,16.148l34.265,34.265l16.148-16.148c4.726,2.757,10.24,4.726,15.36,6.302v22.843
	h48.837v-22.843c5.514-1.575,10.634-3.938,15.36-6.302l16.148,16.148l34.265-34.265l-16.148-16.148
	c2.757-4.726,4.726-10.24,6.302-15.36H301.686z"/>
<circle style="fill:#FFFFFF;" cx="198.105" cy="306.018" r="64.985"/>
<circle style="fill:#F5B947;" cx="198.105" cy="306.018" r="58.289"/>
<path style="fill:#FDDA7E;" d="M198.105,356.431c-27.963,0-50.412-22.843-50.412-50.412c0-27.569,22.843-50.412,50.412-50.412
	s50.412,22.843,50.412,50.412C248.517,333.588,226.068,356.431,198.105,356.431z"/>
<path style="fill:#F5B947;" d="M196.135,346.191v-7.483c-9.058-0.788-17.329-4.726-24.418-11.028l7.483-8.665
	c5.514,4.726,11.422,7.877,17.329,8.665v-19.298c-7.483-1.969-12.997-4.332-16.542-7.089c-3.545-2.757-5.12-7.483-5.12-12.997
	c0-5.908,1.969-10.634,5.908-14.178s9.452-5.514,15.754-5.908v-5.12h6.302v5.12c7.483,0.394,14.178,3.151,20.874,7.483l-7.089,9.452
	c-4.332-3.151-9.058-5.12-14.178-5.908v18.905h0.394c7.483,1.969,13.391,4.332,16.935,7.483c3.545,3.151,5.514,7.483,5.514,13.391
	s-1.969,10.634-6.302,14.178s-9.452,5.514-16.542,5.908v7.089L196.135,346.191L196.135,346.191z M189.046,281.6
	c-1.575,1.575-2.363,3.545-2.363,5.514c0,2.363,0.788,3.938,1.969,5.12s3.938,2.363,7.483,3.938v-17.329
	C192.985,279.237,190.622,280.025,189.046,281.6z M209.92,325.317c1.969-1.575,2.757-3.545,2.757-5.908
	c0-2.363-0.788-4.332-2.363-5.514c-1.575-1.182-4.332-2.757-8.271-3.938v18.117C205.588,328.074,207.951,326.892,209.92,325.317z"/>
<circle style="fill:#FFFFFF;" cx="334.769" cy="169.354" r="45.686"/>
<circle style="fill:#F5B947;" cx="334.769" cy="169.354" r="39.778"/>
<path style="fill:#FDDA7E;" d="M334.769,203.618c-18.905,0-34.265-15.36-34.265-34.265s15.36-34.265,34.265-34.265
	c18.905,0,34.265,15.36,34.265,34.265S353.674,203.618,334.769,203.618z"/>
<path style="fill:#F5B947;" d="M348.948,145.329l-1.969,9.452c-1.969-1.969-4.726-2.757-8.665-2.757
	c-3.938,0-6.695,1.182-9.058,3.938c-1.182,1.575-2.363,3.545-2.757,5.514h18.905l-1.182,5.12h-18.511c0,0.394,0,1.182,0,1.969
	c0,0.788,0,1.575,0,2.363h17.329l-1.182,5.12h-15.754c0.394,2.363,1.575,4.332,2.757,5.908c2.363,2.757,5.12,3.938,9.058,3.938
	c4.332,0,7.877-1.182,10.634-3.938v11.028c-3.151,1.575-6.302,2.363-10.24,2.363c-6.695,0-12.209-2.363-16.542-6.695
	c-2.757-3.151-4.726-7.089-5.908-11.422h-4.726l1.182-5.12h3.545c0-0.394,0-1.182,0-1.575c0-1.182,0-1.969,0-2.757h-4.726
	l1.182-5.12h3.938c0.788-4.726,2.757-8.271,5.908-11.422c4.332-4.726,9.846-7.089,16.935-7.089
	C342.646,143.36,346.191,144.148,348.948,145.329z"/>
<g>
</g>
<g>
</g>
<g>
</g>
<g>
</g>
<g>
</g>
<g>
</g>
<g>
</g>
<g>
</g>
<g>
</g>
<g>
</g>
<g>
</g>
<g>
</g>
<g>
</g>
<g>
</g>
<g>
</g>
</svg>
