<?xml version="1.0" encoding="iso-8859-1"?>
<!-- Generator: Adobe Illustrator 19.0.0, SVG Export Plug-In . SVG Version: 6.00 Build 0)  -->
<svg version="1.1" id="Layer_1" xmlns="http://www.w3.org/2000/svg" xmlns:xlink="http://www.w3.org/1999/xlink" x="0px" y="0px"
	 viewBox="0 0 504.123 504.123" style="enable-background:new 0 0 504.123 504.123;" xml:space="preserve">
<circle style="fill:#FFD05B;" cx="252.062" cy="252.062" r="252.062"/>
<path style="fill:#84DBFF;" d="M300.898,94.523h-97.674l-68.529,54.351v137.452c0,0,0,95.705,117.366,123.274
	c117.366-27.569,117.366-123.274,117.366-123.274V148.874L300.898,94.523z"/>
<circle style="fill:#FFFFFF;" cx="252.062" cy="242.609" r="67.742"/>
<path style="fill:#324A5E;" d="M300.898,94.523h-97.674l-68.529,54.351v137.452c0,0,0,95.705,117.366,123.274
	c117.366-27.569,117.366-123.274,117.366-123.274V148.874L300.898,94.523z M349.735,286.326c0,3.151-2.363,77.982-97.674,102.794
	c-96.492-25.206-97.674-102.006-97.674-102.794v-128l55.926-44.111h83.495l55.926,44.111V286.326z"/>
<path style="fill:#F9B54C;" d="M248.911,300.111v-10.24c-12.603-1.182-24.025-6.302-33.871-14.966l10.24-12.209
	c7.877,6.695,15.754,10.634,24.025,12.209v-26.782c-10.24-2.363-18.117-5.908-22.843-9.846c-4.726-3.938-7.089-10.24-7.089-18.117
	s2.757-14.572,8.271-19.692s12.997-7.877,21.662-8.271v-7.089h8.665v7.089c10.24,0.788,19.692,4.332,28.751,10.24l-9.058,12.603
	c-5.908-4.332-12.603-7.089-19.692-7.877v25.994h0.394c10.634,2.363,18.511,5.908,23.237,10.24c5.12,4.332,7.483,10.24,7.483,18.511
	c0,7.877-2.757,14.572-8.665,19.692c-5.908,5.12-13.391,7.877-22.843,8.271v9.846h-8.665V300.111z M239.065,210.708
	c-2.363,1.969-3.545,4.726-3.545,7.877c0,3.151,0.788,5.514,2.757,7.483c1.969,1.969,5.514,3.545,10.634,5.12v-24.025
	C244.972,207.557,241.428,208.738,239.065,210.708z M268.209,271.36c2.757-1.969,3.938-4.726,3.938-7.877
	c0-3.151-1.182-5.908-3.151-7.877c-1.969-1.969-5.908-3.545-11.422-5.514v24.812C262.302,274.905,265.846,273.329,268.209,271.36z"
	/>
<g>
</g>
<g>
</g>
<g>
</g>
<g>
</g>
<g>
</g>
<g>
</g>
<g>
</g>
<g>
</g>
<g>
</g>
<g>
</g>
<g>
</g>
<g>
</g>
<g>
</g>
<g>
</g>
<g>
</g>
</svg>
