<?xml version="1.0" encoding="iso-8859-1"?>
<!-- Generator: Adobe Illustrator 19.0.0, SVG Export Plug-In . SVG Version: 6.00 Build 0)  -->
<svg version="1.1" id="Layer_1" xmlns="http://www.w3.org/2000/svg" xmlns:xlink="http://www.w3.org/1999/xlink" x="0px" y="0px"
	 viewBox="0 0 504.123 504.123" style="enable-background:new 0 0 504.123 504.123;" xml:space="preserve">
<circle style="fill:#90DFAA;" cx="252.062" cy="252.062" r="252.062"/>
<path style="fill:#FFFFFF;" d="M356.825,252.062c0.788-5.908,1.182-12.209,1.182-18.511V138.24c0,0-99.643-23.631-122.092-43.717
	v157.538H356.825z"/>
<path style="fill:#324A5E;" d="M236.308,94.523c-22.055,20.086-122.092,43.717-122.092,43.717v95.311
	c0,6.302,0.394,12.209,1.182,18.511h120.911V94.523z"/>
<path style="fill:#FFFFFF;" d="M115.397,252.062c5.12,37.022,24.418,72.074,56.714,100.431l64.197,57.108V252.062H115.397z"/>
<path style="fill:#324A5E;" d="M269.391,349.342c0-33.477,27.175-60.258,60.258-60.258c5.514,0,11.028,0.788,16.148,2.363
	c5.514-12.603,9.452-25.994,11.028-39.385H236.308V409.6l38.991-34.658C271.36,367.065,269.391,358.4,269.391,349.342z"/>
<circle style="fill:#FF7058;" cx="321.772" cy="341.465" r="68.135"/>
<circle style="fill:#F1543F;" cx="321.772" cy="341.465" r="55.926"/>
<path style="fill:#FFFFFF;" d="M298.142,375.729l-18.117-33.083l11.815-6.695l9.452,16.935
	c11.422-10.634,35.84-30.326,58.289-33.083l1.575,13.391c-25.206,3.151-56.32,35.052-56.714,35.446L298.142,375.729z"/>
<g>
</g>
<g>
</g>
<g>
</g>
<g>
</g>
<g>
</g>
<g>
</g>
<g>
</g>
<g>
</g>
<g>
</g>
<g>
</g>
<g>
</g>
<g>
</g>
<g>
</g>
<g>
</g>
<g>
</g>
</svg>
