<?xml version="1.0" encoding="iso-8859-1"?>
<!-- Generator: Adobe Illustrator 19.0.0, SVG Export Plug-In . SVG Version: 6.00 Build 0)  -->
<svg version="1.1" id="Layer_1" xmlns="http://www.w3.org/2000/svg" xmlns:xlink="http://www.w3.org/1999/xlink" x="0px" y="0px"
	 viewBox="0 0 504.123 504.123" style="enable-background:new 0 0 504.123 504.123;" xml:space="preserve">
<circle style="fill:#324A5E;" cx="252.062" cy="252.062" r="252.062"/>
<path style="fill:#CED5E0;" d="M349.342,406.843H158.326c-6.695,0-11.815-5.12-11.815-11.815V103.582
	c0-6.695,5.12-11.815,11.815-11.815h191.015c6.695,0,11.815,5.12,11.815,11.815v291.446
	C361.157,401.329,355.643,406.843,349.342,406.843z"/>
<rect x="163.052" y="129.575" style="fill:#FFFFFF;" width="181.169" height="210.708"/>
<g>
	<circle style="fill:#ACB3BA;" cx="253.637" cy="372.972" r="20.874"/>
	<path style="fill:#ACB3BA;" d="M285.145,116.578h-63.015c-2.363,0-3.938-1.969-3.938-3.938l0,0c0-2.363,1.969-3.938,3.938-3.938
		h63.409c2.363,0,3.938,1.969,3.938,3.938l0,0C289.477,115.003,287.508,116.578,285.145,116.578z"/>
</g>
<circle style="fill:#54C0EB;" cx="186.683" cy="112.64" r="6.302"/>
<g>
	<path style="fill:#FFD05B;" d="M255.212,322.954V312.32c-13.391-1.182-25.206-6.695-35.446-15.754l10.634-12.603
		c8.271,7.089,16.542,11.422,25.206,12.603v-27.963c-11.028-2.757-18.905-5.908-24.025-10.24c-5.12-4.332-7.483-10.634-7.483-18.905
		c0-8.271,2.757-15.36,8.665-20.48c5.908-5.12,13.391-8.271,22.843-8.665v-7.089h9.452v7.483
		c10.634,0.788,20.48,4.332,30.326,11.028l-9.452,13.391c-6.302-4.726-13.391-7.483-20.874-8.271v27.175h0.394
		c11.028,2.757,19.298,6.302,24.418,10.634c5.12,4.332,7.877,11.028,7.877,19.298s-3.151,15.36-9.058,20.48
		c-5.908,5.12-13.785,8.271-23.631,8.665v9.846H255.212z M244.972,229.612c-2.363,2.363-3.545,4.726-3.545,8.271
		c0,3.151,0.788,5.908,2.757,7.483c1.969,1.969,5.514,3.545,11.028,5.514v-25.206C250.88,226.068,247.729,227.249,244.972,229.612z
		 M275.692,293.022c2.757-2.363,3.938-5.12,3.938-8.271c0-3.545-1.182-5.908-3.151-7.877c-1.969-1.969-5.908-3.938-11.815-5.514
		v25.994C269.391,296.566,272.935,295.385,275.692,293.022z"/>
	<path style="fill:#FFD05B;" d="M189.046,194.166v-3.151c-3.938-0.394-7.089-1.969-10.24-4.726l3.151-3.545
		c2.363,1.969,4.726,3.151,7.089,3.545v-8.271c-3.151-0.788-5.514-1.575-7.089-3.151c-1.575-1.182-2.363-3.151-2.363-5.514
		s0.788-4.332,2.363-5.908c1.575-1.575,3.938-2.363,6.695-2.363v-1.969h2.757v2.363c3.151,0.394,5.908,1.182,8.665,3.151
		l-2.757,3.938c-1.969-1.182-3.938-1.969-5.908-2.363v7.877l0,0c3.151,0.788,5.514,1.575,7.089,3.151
		c1.575,1.182,2.363,3.151,2.363,5.514c0,2.363-0.788,4.332-2.757,5.908c-1.575,1.575-3.938,2.363-6.695,2.363v3.151H189.046z
		 M186.289,166.991c-0.788,0.788-1.182,1.575-1.182,2.363c0,0.788,0.394,1.575,0.788,2.363c0.394,0.394,1.575,1.182,3.151,1.575
		v-7.089C187.865,166.203,187.077,166.597,186.289,166.991z M194.954,185.502c0.788-0.788,1.182-1.575,1.182-2.363
		s-0.394-1.575-0.788-2.363c-0.788-0.394-1.575-1.182-3.545-1.575v7.483C193.378,186.289,194.166,185.895,194.954,185.502z"/>
	<path style="fill:#FFD05B;" d="M304.443,181.169v-3.151c-3.938-0.394-7.089-1.969-10.24-4.726l3.151-3.545
		c2.363,1.969,4.726,3.151,7.089,3.545v-7.877c-3.151-0.788-5.514-1.575-7.089-3.151c-1.575-1.182-2.363-3.151-2.363-5.514
		c0-2.363,0.788-4.332,2.363-5.908c1.575-1.575,3.938-2.363,6.695-2.363v-1.969h3.151v1.969c3.151,0.394,5.908,1.182,8.665,3.151
		l-2.757,3.938c-1.969-1.182-3.938-1.969-5.908-2.363v7.877l0,0c3.151,0.788,5.514,1.575,7.089,3.151
		c1.575,1.182,2.363,3.151,2.363,5.514s-0.788,4.332-2.757,5.908c-1.575,1.575-3.938,2.363-6.695,2.363v3.151H304.443z
		 M301.292,153.994c-0.788,0.788-1.182,1.575-1.182,2.363s0.394,1.575,0.788,2.363c0.394,0.394,1.575,1.182,3.151,1.575v-7.089
		C303.262,153.206,302.08,153.206,301.292,153.994z M310.351,172.505c0.788-0.788,1.182-1.575,1.182-2.363
		c0-0.788-0.394-1.575-0.788-2.363c-0.788-0.394-1.575-1.182-3.545-1.575v7.483C308.382,173.292,309.563,172.898,310.351,172.505z"
		/>
	<path style="fill:#FFD05B;" d="M188.258,263.089v-2.363c-2.757-0.394-5.514-1.575-7.877-3.545l2.363-2.757
		c1.969,1.575,3.545,2.363,5.514,2.757v-6.302c-2.363-0.394-4.332-1.182-5.514-2.363c-1.182-0.788-1.575-2.363-1.575-4.332
		c0-1.969,0.788-3.545,1.969-4.726c1.182-1.182,3.151-1.969,5.12-1.969v-1.182h1.969v1.575c2.363,0,4.726,0.788,6.695,2.363
		l-1.969,3.151c-1.575-1.182-2.757-1.575-4.726-1.969v5.908l0,0c2.363,0.394,4.332,1.182,5.514,2.363
		c1.182,1.182,1.575,2.363,1.575,4.332c0,1.969-0.788,3.545-1.969,4.726c-1.182,1.182-3.151,1.969-5.12,1.969v2.363L188.258,263.089
		L188.258,263.089z M185.895,242.215c-0.394,0.394-0.788,1.182-0.788,1.969s0.394,1.182,0.788,1.575
		c0.394,0.394,1.182,0.788,2.363,1.182v-5.514C187.471,241.428,186.683,241.822,185.895,242.215z M192.985,256.394
		c0.788-0.394,0.788-1.182,0.788-1.969c0-0.788-0.394-1.182-0.788-1.969c-0.394-0.394-1.182-0.788-2.757-1.182v5.908
		C191.409,257.182,192.197,256.788,192.985,256.394z"/>
	<path style="fill:#FFD05B;" d="M233.551,189.834v-1.969c-2.363-0.394-4.726-1.182-6.695-2.757l1.969-2.363
		c1.575,1.182,3.151,1.969,4.726,2.363v-5.12c-1.969-0.394-3.545-1.182-4.332-1.969c-0.788-0.788-1.575-1.969-1.575-3.545
		s0.394-2.757,1.575-3.938c1.182-0.788,2.363-1.575,4.332-1.575v-1.182h1.575v1.575c1.969,0,3.938,0.788,5.514,1.969l-1.575,2.363
		c-1.182-0.788-2.363-1.182-3.938-1.575v5.12l0,0c1.969,0.394,3.545,1.182,4.332,1.969c0.788,0.788,1.575,1.969,1.575,3.545
		c0,1.575-0.394,2.757-1.575,3.938c-1.182,0.788-2.363,1.575-4.332,1.575v1.969h-1.575V189.834z M231.582,172.898
		c-0.394,0.394-0.788,0.788-0.788,1.575c0,0.788,0,1.182,0.394,1.575c0.394,0.394,1.182,0.788,1.969,1.182v-4.726
		C232.763,172.111,231.975,172.505,231.582,172.898z M237.095,184.32c0.394-0.394,0.788-0.788,0.788-1.575
		c0-0.788,0-1.182-0.394-1.575s-1.182-0.788-2.363-1.182v5.12C235.914,185.108,236.702,184.714,237.095,184.32z"/>
	<path style="fill:#FFD05B;" d="M325.711,230.4v-2.757c-3.545-0.394-6.302-1.575-9.058-3.938l2.363-3.151
		c1.969,1.969,4.332,2.757,6.302,3.151v-7.089c-2.757-0.788-4.726-1.575-6.302-2.757c-1.182-1.182-1.969-2.757-1.969-4.726
		c0-1.969,0.788-3.938,2.363-5.12c1.575-1.182,3.545-1.969,5.908-2.363v-1.969h2.363v1.969c2.757,0.394,5.514,1.182,7.877,2.757
		l-2.363,3.545c-1.575-1.182-3.545-1.969-5.514-2.363v7.089l0,0c2.757,0.788,5.12,1.575,6.302,2.757
		c1.182,1.182,1.969,2.757,1.969,5.12s-0.788,3.938-2.363,5.514c-1.575,1.182-3.545,1.969-6.302,2.363v2.757h-1.575V230.4z
		 M322.954,206.375c-0.788,0.394-0.788,1.182-0.788,1.969c0,0.788,0.394,1.575,0.788,1.969c0.394,0.394,1.575,0.788,2.757,1.575
		v-6.302C324.529,205.588,323.348,205.982,322.954,206.375z M330.831,222.917c0.788-0.394,1.182-1.182,1.182-2.363
		c0-0.788-0.394-1.575-0.788-1.969c-0.394-0.394-1.575-1.182-3.151-1.575v6.695C329.255,223.705,330.043,223.311,330.831,222.917z"
		/>
</g>
<g>
</g>
<g>
</g>
<g>
</g>
<g>
</g>
<g>
</g>
<g>
</g>
<g>
</g>
<g>
</g>
<g>
</g>
<g>
</g>
<g>
</g>
<g>
</g>
<g>
</g>
<g>
</g>
<g>
</g>
</svg>
