<?xml version="1.0" encoding="iso-8859-1"?>
<!-- Generator: Adobe Illustrator 19.0.0, SVG Export Plug-In . SVG Version: 6.00 Build 0)  -->
<svg version="1.1" id="Layer_1" xmlns="http://www.w3.org/2000/svg" xmlns:xlink="http://www.w3.org/1999/xlink" x="0px" y="0px"
	 viewBox="0 0 504.123 504.123" style="enable-background:new 0 0 504.123 504.123;" xml:space="preserve">
<circle style="fill:#FD8469;" cx="252.062" cy="252.062" r="252.062"/>
<path style="fill:#324A5E;" d="M319.015,409.6H106.338c-6.695,0-11.815-5.12-11.815-11.815V106.338
	c0-6.695,5.12-11.815,11.815-11.815h212.677c6.695,0,11.815,5.12,11.815,11.815v291.446C330.831,404.48,325.317,409.6,319.015,409.6
	z"/>
<rect x="118.154" y="125.243" style="fill:#E6E9EE;" width="189.046" height="219.766"/>
<g>
	<circle style="fill:#2B3B4E;" cx="212.677" cy="381.243" r="18.117"/>
	<path style="fill:#2B3B4E;" d="M228.037,117.366h-30.72c-3.545,0-6.302-2.757-6.302-6.302l0,0c0-3.545,2.757-6.302,6.302-6.302
		h30.72c3.545,0,6.302,2.757,6.302,6.302l0,0C234.338,114.609,231.582,117.366,228.037,117.366z"/>
</g>
<circle style="fill:#F9B54C;" cx="347.766" cy="187.471" r="62.228"/>
<circle style="fill:#FFD05B;" cx="347.766" cy="187.471" r="51.594"/>
<path style="fill:#F9B54C;" d="M345.797,222.129v-5.908c-7.483-0.788-14.572-3.938-20.48-9.058l5.908-7.089
	c4.726,3.938,9.452,6.302,14.572,7.089v-16.148c-6.302-1.575-11.028-3.545-13.785-5.908c-2.757-2.363-4.332-5.908-4.332-11.028
	s1.575-8.665,5.12-11.815c3.545-3.151,7.877-4.726,12.997-5.12v-4.332h5.514v4.332c6.302,0.394,11.815,2.363,17.329,6.302
	l-5.514,7.877c-3.545-2.757-7.483-4.332-11.815-4.726v15.754h0.394c6.302,1.575,11.028,3.545,14.178,5.908
	c3.151,2.757,4.332,6.302,4.332,11.028s-1.575,8.665-5.12,11.815s-7.877,4.726-13.785,5.12v5.908H345.797z M339.889,168.172
	c-1.575,1.182-1.969,2.757-1.969,4.726c0,1.969,0.394,3.151,1.575,4.332s3.151,1.969,6.302,3.151v-14.572
	C343.04,166.203,341.071,166.991,339.889,168.172z M357.612,204.8c1.575-1.182,2.363-2.757,2.363-4.726
	c0-1.969-0.788-3.545-1.969-4.726s-3.545-2.363-6.695-3.151v14.966C353.674,206.769,356.037,205.982,357.612,204.8z"/>
<path style="fill:#2C9984;" d="M335.557,317.44c-24.812,7.089-47.262,0.394-66.56-17.723c3.151-3.151,5.908-5.514,9.452-8.665
	c-16.542-5.908-31.902-11.422-47.655-16.935c3.151,16.935,6.302,33.083,9.058,50.018c3.151-2.757,5.908-4.726,8.665-6.695
	c33.871,24.418,69.317,29.538,105.551,6.695c27.963-17.723,39.779-44.505,37.809-77.588
	C387.938,281.994,370.609,307.2,335.557,317.44z"/>
<circle style="fill:#2B3B4E;" cx="171.717" cy="111.065" r="5.908"/>
<g>
</g>
<g>
</g>
<g>
</g>
<g>
</g>
<g>
</g>
<g>
</g>
<g>
</g>
<g>
</g>
<g>
</g>
<g>
</g>
<g>
</g>
<g>
</g>
<g>
</g>
<g>
</g>
<g>
</g>
</svg>
