<?xml version="1.0" encoding="iso-8859-1"?>
<!-- Generator: Adobe Illustrator 19.0.0, SVG Export Plug-In . SVG Version: 6.00 Build 0)  -->
<svg version="1.1" id="Layer_1" xmlns="http://www.w3.org/2000/svg" xmlns:xlink="http://www.w3.org/1999/xlink" x="0px" y="0px"
	 viewBox="0 0 504.123 504.123" style="enable-background:new 0 0 504.123 504.123;" xml:space="preserve">
<circle style="fill:#90DFAA;" cx="252.062" cy="252.062" r="252.062"/>
<path style="fill:#324A5E;" d="M365.883,406.843H138.24c-9.846,0-17.723-7.877-17.723-17.723V109.883
	c0-9.846,7.877-17.723,17.723-17.723h228.037c9.846,0,17.723,7.877,17.723,17.723V389.12
	C384,398.966,376.123,406.843,365.883,406.843z"/>
<rect x="144.542" y="118.154" style="fill:#FFFFFF;" width="214.646" height="233.945"/>
<circle style="fill:#2B3B4E;" cx="252.062" cy="378.486" r="15.36"/>
<circle style="fill:#FFD455;" cx="223.705" cy="196.923" r="64.197"/>
<g>
	<path style="fill:#FFB734;" d="M223.705,139.028c-31.902,0-57.895,25.994-57.895,57.895s25.994,57.895,57.895,57.895
		s57.895-25.994,57.895-57.895S255.606,139.028,223.705,139.028z M223.705,248.123c-28.357,0-51.594-23.237-51.594-51.594
		s23.237-51.594,51.594-51.594s51.2,23.631,51.2,51.988S252.062,248.123,223.705,248.123z"/>
	<path style="fill:#FFB734;" d="M219.766,217.009v-18.905c-5.908-1.575-10.24-4.332-12.997-7.483
		c-2.757-3.545-3.938-7.483-3.938-12.209c0-4.726,1.575-9.058,4.726-12.209c3.151-3.151,7.089-5.12,12.209-5.908v-4.332h6.695v4.332
		c4.726,0.394,8.665,2.363,11.422,4.726c2.757,2.757,4.726,6.302,5.514,10.634l-11.422,1.575c-0.788-3.545-2.363-5.908-5.514-7.089
		v17.723c7.089,1.969,12.209,4.332,14.572,7.483c2.757,3.151,3.938,7.089,3.938,11.815c0,5.514-1.575,9.846-4.726,13.785
		c-3.151,3.545-7.877,5.908-13.785,6.695v8.271h-6.695v-8.271c-5.12-0.788-9.452-2.363-12.603-5.908s-5.12-7.877-6.302-13.785
		l11.815-1.182c0.394,2.363,1.575,4.332,2.757,6.302C216.615,215.04,218.191,216.222,219.766,217.009z M219.766,169.748
		c-1.575,0.788-3.151,1.575-4.332,3.151c-1.182,1.575-1.575,3.151-1.575,4.726c0,1.575,0.394,3.151,1.575,4.332
		c0.788,1.182,2.363,2.363,4.332,3.151V169.748z M226.462,217.797c2.363-0.394,3.938-1.575,5.514-3.151
		c1.575-1.575,1.969-3.545,1.969-5.908c0-1.969-0.788-3.545-1.969-5.12c-1.182-1.575-3.151-2.757-5.908-3.151v17.329H226.462z"/>
</g>
<polygon style="fill:#FF7058;" points="340.283,294.203 261.908,261.908 294.597,340.283 305.625,317.834 320.197,332.406 
	332.406,320.197 317.834,305.625 "/>
<g>
</g>
<g>
</g>
<g>
</g>
<g>
</g>
<g>
</g>
<g>
</g>
<g>
</g>
<g>
</g>
<g>
</g>
<g>
</g>
<g>
</g>
<g>
</g>
<g>
</g>
<g>
</g>
<g>
</g>
</svg>
