<?xml version="1.0" encoding="iso-8859-1"?>
<!-- Generator: Adobe Illustrator 19.0.0, SVG Export Plug-In . SVG Version: 6.00 Build 0)  -->
<svg version="1.1" id="Layer_1" xmlns="http://www.w3.org/2000/svg" xmlns:xlink="http://www.w3.org/1999/xlink" x="0px" y="0px"
	 viewBox="0 0 504.123 504.123" style="enable-background:new 0 0 504.123 504.123;" xml:space="preserve">
<circle style="fill:#324A5E;" cx="252.062" cy="252.062" r="252.062"/>
<g>
	<polygon style="fill:#CED5E0;" points="94.523,381.637 106.732,409.6 397.391,409.6 409.6,381.637 	"/>
	<path style="fill:#CED5E0;" d="M382.031,320.985h-35.446v-16.935h35.446c1.182,0,1.969-0.788,1.969-1.969V157.932
		c0-1.182-0.788-1.969-1.969-1.969h-35.446v-16.935h35.446c10.24,0,18.905,8.665,18.905,18.905V302.08
		C400.935,312.714,392.271,320.985,382.031,320.985z"/>
</g>
<path style="fill:#E6E9EE;" d="M142.572,94.523v241.034c0,16.542,13.391,29.932,29.932,29.932h145.723
	c16.542,0,29.932-13.391,29.932-29.932V94.523H142.572z"/>
<rect x="203.618" y="94.523" style="fill:#2B3B4E;" width="10.24" height="107.914"/>
<path style="fill:#FF7058;" d="M230.794,196.529h-43.717c-5.12,0-9.452,4.332-9.452,9.452v46.08c0,5.12,4.332,9.452,9.452,9.452
	h43.717c5.12,0,9.452-4.332,9.452-9.452v-46.08C240.246,200.862,236.308,196.529,230.794,196.529z"/>
<path style="fill:#FFD05B;" d="M275.298,179.988L275.298,179.988c-6.302,0-11.422-5.12-11.422-11.422V94.523h22.843v74.043
	C286.72,174.868,281.6,179.988,275.298,179.988z"/>
<path style="fill:#F9B54C;" d="M298.142,164.234L298.142,164.234c-6.302,0-11.422-5.12-11.422-11.422V94.523h22.843v58.289
	C309.563,159.114,304.443,164.234,298.142,164.234z"/>
<g>
</g>
<g>
</g>
<g>
</g>
<g>
</g>
<g>
</g>
<g>
</g>
<g>
</g>
<g>
</g>
<g>
</g>
<g>
</g>
<g>
</g>
<g>
</g>
<g>
</g>
<g>
</g>
<g>
</g>
</svg>
