<?xml version="1.0" encoding="iso-8859-1"?>
<!-- Generator: Adobe Illustrator 19.0.0, SVG Export Plug-In . SVG Version: 6.00 Build 0)  -->
<svg version="1.1" id="Layer_1" xmlns="http://www.w3.org/2000/svg" xmlns:xlink="http://www.w3.org/1999/xlink" x="0px" y="0px"
	 viewBox="0 0 504.123 504.123" style="enable-background:new 0 0 504.123 504.123;" xml:space="preserve">
<circle style="fill:#FFD05B;" cx="252.062" cy="252.062" r="252.062"/>
<polygon style="fill:#F1543F;" points="137.452,281.6 154.388,332.8 172.898,328.074 182.351,317.834 161.477,254.425 "/>
<g>
	<polygon style="fill:#FF7058;" points="129.969,290.265 124.849,339.889 154.388,332.8 137.452,281.6 	"/>
	<polygon style="fill:#FF7058;" points="161.477,254.425 182.351,317.834 206.375,290.265 185.502,227.249 	"/>
</g>
<polygon style="fill:#F1543F;" points="209.526,199.68 185.502,227.249 206.375,290.265 230.4,263.089 "/>
<polygon style="fill:#FF7058;" points="254.425,235.52 240.246,192.591 226.462,180.382 209.526,199.68 230.4,263.089 "/>
<g>
	<polygon style="fill:#F1543F;" points="269.391,218.191 240.246,192.591 254.425,235.52 	"/>
	<polygon style="fill:#F1543F;" points="227.249,433.231 319.015,345.797 311.138,290.658 195.742,400.542 	"/>
</g>
<g>
	<polygon style="fill:#FF7058;" points="182.745,387.151 195.742,400.542 311.138,290.658 302.868,235.52 189.046,344.222 	"/>
	<polygon style="fill:#FF7058;" points="254.031,461.194 324.923,387.151 319.015,345.797 227.249,433.231 	"/>
</g>
<polygon style="fill:#F1543F;" points="189.046,344.222 302.868,235.52 294.991,180.382 199.68,271.36 "/>
<polygon style="fill:#FF7058;" points="210.314,198.498 199.68,271.36 294.991,180.382 287.114,125.637 "/>
<polygon style="fill:#ACB3BA;" points="220.948,125.243 220.948,125.637 221.735,125.243 "/>
<polygon style="fill:#F1543F;" points="287.114,125.243 221.735,125.243 220.948,125.637 210.314,198.498 287.114,125.637 "/>
<polygon style="fill:#FF7058;" points="287.114,56.32 220.554,56.32 199.68,84.283 220.948,125.243 221.735,125.243 
	287.114,125.243 308.382,84.283 "/>
<g>
</g>
<g>
</g>
<g>
</g>
<g>
</g>
<g>
</g>
<g>
</g>
<g>
</g>
<g>
</g>
<g>
</g>
<g>
</g>
<g>
</g>
<g>
</g>
<g>
</g>
<g>
</g>
<g>
</g>
</svg>
