<?xml version="1.0" encoding="iso-8859-1"?>
<!-- Generator: Adobe Illustrator 19.0.0, SVG Export Plug-In . SVG Version: 6.00 Build 0)  -->
<svg version="1.1" id="Layer_1" xmlns="http://www.w3.org/2000/svg" xmlns:xlink="http://www.w3.org/1999/xlink" x="0px" y="0px"
	 viewBox="0 0 504.123 504.123" style="enable-background:new 0 0 504.123 504.123;" xml:space="preserve">
<circle style="fill:#FD8469;" cx="252.062" cy="252.062" r="252.062"/>
<circle style="fill:#F8D97F;" cx="191.409" cy="252.062" r="104.763"/>
<g>
	<path style="fill:#F5B947;" d="M191.409,342.646c-50.018,0-90.585-40.566-90.585-90.585s40.566-90.585,90.585-90.585
		s90.585,40.566,90.585,90.585S241.428,342.646,191.409,342.646z M191.409,173.292c-43.323,0-78.769,35.446-78.769,78.769
		s35.446,78.769,78.769,78.769s78.769-35.446,78.769-78.769C270.572,208.738,235.126,173.292,191.409,173.292z"/>
	<path style="fill:#F5B947;" d="M188.258,313.895v-11.028c-13.785-1.575-25.994-6.695-36.628-16.148l11.028-12.997
		c8.271,7.089,16.935,11.422,25.6,12.997v-28.751c-11.028-2.757-19.298-6.302-24.812-10.634c-5.12-4.332-7.877-11.028-7.877-19.298
		c0-8.665,3.151-15.754,9.058-20.874c5.908-5.514,13.785-8.271,23.631-9.058v-7.483h9.452v7.483
		c11.028,0.788,21.268,4.332,31.114,11.028l-9.846,13.785c-6.695-4.726-13.785-7.483-21.268-8.665v27.963h0.394
		c11.422,2.757,19.692,6.302,25.206,11.028c5.514,4.726,7.877,11.028,7.877,19.692s-3.151,15.754-9.058,21.268
		c-6.302,5.514-14.178,8.271-24.418,9.058v10.634L188.258,313.895L188.258,313.895z M179.2,221.735
		c-2.363,1.969-3.545,4.332-3.545,7.483c0,3.151,0.788,5.12,2.757,7.089c1.575,1.575,5.12,3.545,9.846,5.12v-22.843
		C184.714,218.585,181.563,219.372,179.2,221.735z M207.163,279.631c2.363-1.969,3.545-4.726,3.545-7.483
		c0-3.151-0.788-5.514-2.757-7.483c-1.969-1.969-5.514-3.545-11.028-5.12v23.631C201.255,282.782,204.8,281.6,207.163,279.631z"/>
</g>
<path style="fill:#FFFFFF;" d="M342.646,201.255c15.754-14.966,24.418-34.658,24.418-55.138v-20.48H210.314v20.48
	c0,20.48,8.665,40.566,24.418,55.138l32.689,30.72c5.514,5.514,9.058,12.603,9.058,20.086l0,0c0,7.483-3.151,14.572-9.058,20.086
	l-32.689,30.72c-15.754,14.966-24.418,34.658-24.418,55.138v20.48h157.145v-20.48c0-20.48-8.665-40.566-24.418-55.138l-32.689-30.72
	c-5.514-5.514-9.058-12.603-9.058-20.086l0,0c0-7.483,3.151-14.572,9.058-20.086L342.646,201.255z"/>
<g>
	<path style="fill:#2B3B4E;" d="M199.286,125.637h178.806c8.665,0,15.754-7.089,15.754-15.754s-7.089-15.754-15.754-15.754H199.286
		c-8.665,0-15.754,7.089-15.754,15.754S190.622,125.637,199.286,125.637z"/>
	<path style="fill:#2B3B4E;" d="M378.092,378.486H199.286c-8.665,0-15.754,7.089-15.754,15.754s7.089,15.754,15.754,15.754h178.806
		c8.665,0,15.754-7.089,15.754-15.754S386.757,378.486,378.092,378.486z"/>
</g>
<g>
	<path style="fill:#54C0EB;" d="M306.806,309.563c-0.394,0-0.394,0-0.788,0c-8.271-1.969-13.785-9.058-13.785-17.723v-64.591
		l35.052-36.234c4.332-4.332,7.877-9.452,10.634-14.966h-98.855c2.757,5.514,6.302,10.634,10.634,14.966l35.052,36.234v64.591
		c0,8.271-5.514,15.754-13.785,17.723l0,0c-20.874,4.726-37.415,21.662-39.385,43.323c0,1.969-0.394,3.938-0.394,5.514v5.514
		h114.215V358.4c0-1.969,0-3.938-0.394-5.908C343.828,330.831,327.68,314.289,306.806,309.563z"/>
	<circle style="fill:#54C0EB;" cx="267.028" cy="297.748" r="4.332"/>
	<circle style="fill:#54C0EB;" cx="309.563" cy="298.929" r="5.908"/>
	<circle style="fill:#54C0EB;" cx="276.48" cy="283.963" r="2.757"/>
</g>
<g>
</g>
<g>
</g>
<g>
</g>
<g>
</g>
<g>
</g>
<g>
</g>
<g>
</g>
<g>
</g>
<g>
</g>
<g>
</g>
<g>
</g>
<g>
</g>
<g>
</g>
<g>
</g>
<g>
</g>
</svg>
