<?xml version="1.0" encoding="iso-8859-1"?>
<!-- Generator: Adobe Illustrator 19.0.0, SVG Export Plug-In . SVG Version: 6.00 Build 0)  -->
<svg version="1.1" id="Layer_1" xmlns="http://www.w3.org/2000/svg" xmlns:xlink="http://www.w3.org/1999/xlink" x="0px" y="0px"
	 viewBox="0 0 504.123 504.123" style="enable-background:new 0 0 504.123 504.123;" xml:space="preserve">
<circle style="fill:#FFD05B;" cx="252.062" cy="252.062" r="252.062"/>
<path style="fill:#2B3B4E;" d="M391.877,293.022H181.563L148.48,162.265c-2.757-10.634-12.209-17.723-22.843-17.723H96.886
	c-5.514,0-9.846-4.332-9.846-9.846l0,0c0-5.514,4.332-9.846,9.846-9.846h28.751c19.692,0,37.022,13.391,42.142,32.689
	l29.145,115.791h194.954c5.514,0,9.846,4.332,9.846,9.846l0,0C401.723,288.689,397.391,293.022,391.877,293.022z"/>
<path style="fill:#FFFFFF;" d="M367.458,258.757H222.917c-3.938,0-6.695-3.151-6.695-6.695V107.52c0-3.938,3.151-6.695,6.695-6.695
	h144.542c3.938,0,6.695,3.151,6.695,6.695v144.542C374.154,256,371.397,258.757,367.458,258.757z"/>
<circle style="fill:#2B3B4E;" cx="234.338" cy="364.702" r="38.597"/>
<circle style="fill:#CED5E0;" cx="234.338" cy="364.702" r="25.6"/>
<circle style="fill:#2B3B4E;" cx="354.068" cy="364.702" r="38.597"/>
<circle style="fill:#CED5E0;" cx="354.068" cy="364.702" r="25.6"/>
<path style="fill:#FF7058;" d="M293.022,232.763v-7.089c-8.665-0.788-16.935-4.332-24.025-10.634l7.089-8.271
	c5.514,4.726,11.028,7.483,16.935,8.271v-18.905c-7.483-1.575-12.603-3.938-16.148-6.695c-3.545-2.757-5.12-7.089-5.12-12.603
	s1.969-10.24,5.908-13.785c3.938-3.545,9.058-5.514,15.36-5.908v-4.726h6.302v5.12c7.089,0.394,13.785,2.757,20.086,7.089
	l-6.302,9.058c-4.332-3.151-9.058-4.726-13.785-5.514v18.117h0.394c7.483,1.575,12.997,3.938,16.542,7.089
	c3.545,3.151,5.12,7.483,5.12,12.997s-1.969,10.24-5.908,13.785c-3.938,3.545-9.452,5.514-15.754,5.908v7.089h-6.695V232.763z
	 M286.326,170.535c-1.575,1.575-2.363,3.151-2.363,5.514c0,2.363,0.788,3.938,1.969,5.12s3.938,2.363,7.483,3.545v-16.935
	C290.265,168.172,287.902,168.96,286.326,170.535z M306.806,213.071c1.969-1.575,2.757-3.545,2.757-5.514
	c0-2.363-0.788-3.938-1.969-5.514c-1.575-1.182-3.938-2.757-7.877-3.545v17.329C302.474,215.434,304.837,214.252,306.806,213.071z"
	/>
<g>
	<circle style="fill:#2B3B4E;" cx="354.068" cy="364.702" r="11.422"/>
	<circle style="fill:#2B3B4E;" cx="234.338" cy="364.702" r="11.422"/>
</g>
<polygon style="fill:#EF9F35;" points="279.631,126.031 284.751,131.545 290.265,126.031 295.385,131.545 300.505,126.031 
	305.625,131.545 310.745,126.031 315.471,131.545 315.471,100.825 274.905,100.825 274.905,131.545 "/>
<g>
</g>
<g>
</g>
<g>
</g>
<g>
</g>
<g>
</g>
<g>
</g>
<g>
</g>
<g>
</g>
<g>
</g>
<g>
</g>
<g>
</g>
<g>
</g>
<g>
</g>
<g>
</g>
<g>
</g>
</svg>
