<?xml version="1.0" encoding="iso-8859-1"?>
<!-- Generator: Adobe Illustrator 19.0.0, SVG Export Plug-In . SVG Version: 6.00 Build 0)  -->
<svg version="1.1" id="Layer_1" xmlns="http://www.w3.org/2000/svg" xmlns:xlink="http://www.w3.org/1999/xlink" x="0px" y="0px"
	 viewBox="0 0 504.123 504.123" style="enable-background:new 0 0 504.123 504.123;" xml:space="preserve">
<circle style="fill:#84DBFF;" cx="252.062" cy="252.062" r="252.062"/>
<circle style="fill:#FF7058;" cx="252.062" cy="252.062" r="98.462"/>
<path style="fill:#F1543F;" d="M252.062,170.142c-45.292,0-81.92,36.628-81.92,81.92s36.628,81.92,81.92,81.92
	s81.92-36.628,81.92-81.92S297.354,170.142,252.062,170.142z M252.062,327.286c-41.354,0-75.225-33.871-75.225-75.225
	s33.871-75.225,75.225-75.225s75.225,33.871,75.225,75.225S293.415,327.286,252.062,327.286z"/>
<path style="fill:#FFFFFF;" d="M135.483,219.372c6.695-53.563,33.871-92.16,83.495-113.428
	c51.2-22.055,119.335-14.966,170.929,42.535c5.12-2.757,10.24-5.514,16.935-9.058c0,14.966,0,28.751,0,42.535
	c0,13.391,0,27.175,0,42.535c-24.812-14.178-48.443-27.963-73.649-42.142c6.302-4.332,11.815-7.483,16.935-11.028
	c-16.935-31.508-64.591-54.351-103.188-49.625C191.015,128.394,152.025,162.658,135.483,219.372z"/>
<path style="fill:#F9B54C;" d="M254.818,382.031c-42.535,3.938-77.194-13.785-103.188-48.837
	c6.302-3.938,11.422-7.483,18.117-11.422c-24.812-14.572-48.443-28.357-72.468-42.142c0,28.751,0,55.926,0,83.889
	c5.908-3.151,11.028-5.908,15.754-8.665c47.655,50.018,103.975,68.529,169.748,42.929c50.806-20.086,78.375-60.258,85.071-114.215
	C350.523,340.283,314.683,376.123,254.818,382.031z"/>
<path style="fill:#F1543F;" d="M214.646,272.148h27.569v-7.877l-0.394-0.788h-27.175v-12.997h19.692L204.8,201.255h18.905
	l27.569,46.868h0.788l28.751-46.868h18.511l-30.326,49.625h18.905v12.997H261.12l-0.394,0.788v7.877h27.569v12.997h-27.569v18.117
	h-18.117v-18.117H215.04v-13.391H214.646z"/>
<g>
</g>
<g>
</g>
<g>
</g>
<g>
</g>
<g>
</g>
<g>
</g>
<g>
</g>
<g>
</g>
<g>
</g>
<g>
</g>
<g>
</g>
<g>
</g>
<g>
</g>
<g>
</g>
<g>
</g>
</svg>
