<?xml version="1.0" encoding="iso-8859-1"?>
<!-- Generator: Adobe Illustrator 19.0.0, SVG Export Plug-In . SVG Version: 6.00 Build 0)  -->
<svg version="1.1" id="Layer_1" xmlns="http://www.w3.org/2000/svg" xmlns:xlink="http://www.w3.org/1999/xlink" x="0px" y="0px"
	 viewBox="0 0 508 508" style="enable-background:new 0 0 508 508;" xml:space="preserve">
<circle style="fill:#324A5E;" cx="254" cy="254" r="254"/>
<path style="fill:#E6E9EE;" d="M417.2,118H90.8c-10.4,0-18.8,8.4-18.8,18.8v80.4c0,10.4,8.4,18.8,18.8,18.8h326.4
	c10.4,0,18.8-8.4,18.8-18.8v-80C436.4,126.8,427.6,118,417.2,118z"/>
<rect x="99.6" y="163.2" style="fill:#2B3B4E;" width="308.8" height="46.4"/>
<polygon style="fill:#4CDBC4;" points="442,371.2 66,371.2 164,182.4 344,182.4 "/>
<path style="fill:#FFFFFF;" d="M126.8,316.4l48.8-118c10.8,0,21.2-4.8,22.8-10.4h110.8c1.6,5.6,12,10.4,22.8,10.4l48.8,118
	c-17.6,0-28,13.2-22.4,31.2H149.2C154.8,330,144.8,316.4,126.8,316.4z"/>
<path style="fill:#4CDBC4;" d="M329.2,243.6c6,18.8-27.2,36-75.2,36s-81.2-17.6-75.2-36c5.2-16,38.4-27.6,75.2-27.6
	S324,227.6,329.2,243.6z"/>
<path style="fill:#FFFFFF;" d="M248,243.6c0,1.6-1.6,3.6-4.8,4.8s-7.2,2-11.6,2c-8.8,0-16-3.2-15.2-6.8c0.4-3.6,8-6.4,16.4-6.4
	c3.2,0,6-1.2,6-2.4s-2.4-2.4-5.6-2.4c-12.8,0-24,3.6-27.6,8.4h-3.2c-3.2,0-6,1.2-6.4,2.4c-0.4,1.6,2,2.8,5.6,2.8h3.2
	c1.6,5.6,12.4,9.6,26.4,9.6c8,0,15.2-1.2,20.8-3.6s8.4-5.2,8.4-8.4c0-3.6,6.8-6.4,15.2-6.4c8.4,0,16,2.8,16.4,6.4
	c0.4,3.6-6.4,6.8-15.2,6.8c-3.2,0-6,1.2-6,2.8s2.8,2.8,6.4,2.8c14,0,24.8-4.4,26.4-9.6h3.2c3.2,0,5.6-1.2,5.6-2.4
	c-0.4-1.2-3.2-2.4-6.4-2.4h-3.2c-3.6-4.8-14.8-8.4-27.6-8.4C260,232.4,248,237.2,248,243.6z"/>
<g>
	<path style="fill:#4CDBC4;" d="M287.2,308c1.2,10-13.6,18.8-33.2,18.8s-34.4-8.8-33.2-18.8c1.2-9.6,16-16.8,33.2-16.8
		C271.2,291.6,286,298.8,287.2,308z"/>
	<path style="fill:#4CDBC4;" d="M275.2,202c0.4,4-9.2,7.6-21.2,7.6c-12.4,0-22-3.6-21.2-7.6c0.4-4,10-7.2,21.2-7.2
		C265.2,194.8,274.8,198,275.2,202z"/>
</g>
<circle style="fill:#FF7058;" cx="399.2" cy="139.2" r="9.2"/>
<circle style="fill:#84DBFF;" cx="367.6" cy="139.2" r="9.2"/>
<g>
</g>
<g>
</g>
<g>
</g>
<g>
</g>
<g>
</g>
<g>
</g>
<g>
</g>
<g>
</g>
<g>
</g>
<g>
</g>
<g>
</g>
<g>
</g>
<g>
</g>
<g>
</g>
<g>
</g>
</svg>
