<?xml version="1.0" encoding="iso-8859-1"?>
<!-- Generator: Adobe Illustrator 19.0.0, SVG Export Plug-In . SVG Version: 6.00 Build 0)  -->
<svg version="1.1" id="Layer_1" xmlns="http://www.w3.org/2000/svg" xmlns:xlink="http://www.w3.org/1999/xlink" x="0px" y="0px"
	 viewBox="0 0 508 508" style="enable-background:new 0 0 508 508;" xml:space="preserve">
<circle style="fill:#84DBFF;" cx="254" cy="254" r="254"/>
<polygon style="fill:#FFFFFF;" points="416.4,246.8 375.2,434.8 132.8,434.8 91.6,246.8 254,114 "/>
<rect x="167.6" y="337.6" style="fill:#2C9984;" width="41.6" height="58.8"/>
<rect x="233.2" y="280.4" style="fill:#FFD05B;" width="41.6" height="116"/>
<rect x="298.8" y="234" style="fill:#FF7058;" width="41.6" height="162.4"/>
<path style="fill:#324A5E;" d="M453.6,231.6L265.2,77.2c-3.2-2.4-7.2-4-11.2-4l0,0l0,0c-4,0-8,1.6-11.2,4L54,231.6
	c-8,6.4-8.8,18.8-1.2,26c6.4,6.4,16,6.8,23.2,1.6l0.4-0.4L253.6,114l0,0l0,0l177.6,144.8l0.4,0.4c6.8,5.2,16.8,4.8,23.2-1.6
	C462.4,250.4,462,238.4,453.6,231.6z"/>
<g>
</g>
<g>
</g>
<g>
</g>
<g>
</g>
<g>
</g>
<g>
</g>
<g>
</g>
<g>
</g>
<g>
</g>
<g>
</g>
<g>
</g>
<g>
</g>
<g>
</g>
<g>
</g>
<g>
</g>
</svg>
