<?xml version="1.0" encoding="iso-8859-1"?>
<!-- Generator: Adobe Illustrator 19.0.0, SVG Export Plug-In . SVG Version: 6.00 Build 0)  -->
<svg version="1.1" id="Layer_1" xmlns="http://www.w3.org/2000/svg" xmlns:xlink="http://www.w3.org/1999/xlink" x="0px" y="0px"
	 viewBox="0 0 508 508" style="enable-background:new 0 0 508 508;" xml:space="preserve">
<circle style="fill:#FFD05B;" cx="254" cy="254" r="254"/>
<path style="fill:#FFFFFF;" d="M381.6,84.4H126.4c-11.6,0-20.8,9.2-20.8,20.8v297.6c0,11.6,9.2,20.8,20.8,20.8h255.2
	c11.6,0,20.8-9.2,20.8-20.8V105.2C402.4,93.6,393.2,84.4,381.6,84.4z"/>
<rect x="147.6" y="301.6" style="fill:#324A5E;" width="16.8" height="92.8"/>
<rect x="186.8" y="314.4" style="fill:#2C9984;" width="16.8" height="80.4"/>
<rect x="226" y="260" style="fill:#54C0EB;" width="16.8" height="134.4"/>
<rect x="265.2" y="242.4" style="fill:#ACB3BA;" width="16.8" height="152"/>
<rect x="304" y="288.4" style="fill:#4CDBC4;" width="16.8" height="106.4"/>
<rect x="343.2" y="208.4" style="fill:#FF7058;" width="16.8" height="186"/>
<path style="fill:#E6E9EE;" d="M380.4,110l-47.6,17.2l10.8,10.8l-56.8,56.4l-48-48c-2.4-2.4-7.2-2.4-9.6,0l-94.8,94.4
	c-2.8,2.8-2.8,6.8,0,9.6c1.2,1.2,3.2,2,4.8,2s3.6-0.8,4.8-2l89.6-89.6l48,48c2.8,2.8,6.8,2.8,9.6,0l61.2-61.2l10.4,10.4L380.4,110z"
	/>
<g>
</g>
<g>
</g>
<g>
</g>
<g>
</g>
<g>
</g>
<g>
</g>
<g>
</g>
<g>
</g>
<g>
</g>
<g>
</g>
<g>
</g>
<g>
</g>
<g>
</g>
<g>
</g>
<g>
</g>
</svg>
