<?xml version="1.0" encoding="iso-8859-1"?>
<!-- Generator: Adobe Illustrator 19.0.0, SVG Export Plug-In . SVG Version: 6.00 Build 0)  -->
<svg version="1.1" id="Layer_1" xmlns="http://www.w3.org/2000/svg" xmlns:xlink="http://www.w3.org/1999/xlink" x="0px" y="0px"
	 viewBox="0 0 508 508" style="enable-background:new 0 0 508 508;" xml:space="preserve">
<circle style="fill:#324A5E;" cx="254" cy="254" r="254"/>
<g>
	<rect x="390.8" y="134.8" style="fill:#E6E9EE;" width="20.8" height="298.8"/>
	<rect x="96.4" y="134.8" style="fill:#E6E9EE;" width="20.8" height="298.8"/>
</g>
<path style="fill:#2B3B4E;" d="M74.4,433.6c46,46,109.2,74.4,179.6,74.4s133.6-28.4,179.6-74.4H74.4z"/>
<path style="fill:#FFFFFF;" d="M438.4,156H69.6c-5.6,0-10,4.4-10,10v72.4c0,5.6,4.4,10,10,10h369.2c5.6,0,10-4.4,10-10V166
	C448.8,160.4,444,156,438.4,156z"/>
<g>
	<path style="fill:#FF7058;" d="M90.8,156l-31.2,81.6v1.6c0,4.8,5.2,8.8,11.6,8.8h15.6l34.8-92H90.8z"/>
	<polygon style="fill:#FF7058;" points="152.4,248.4 121.6,248.4 156.8,156 187.6,156 	"/>
	<polygon style="fill:#FF7058;" points="218.8,248.4 187.6,248.4 223.2,156 254,156 	"/>
	<polygon style="fill:#FF7058;" points="284.8,248.4 254,248.4 289.2,156 320.4,156 	"/>
	<polygon style="fill:#FF7058;" points="351.2,248.4 320.4,248.4 355.6,156 386.4,156 	"/>
	<path style="fill:#FF7058;" d="M448.8,164.8c0-4.8-5.2-8.8-11.6-8.8h-15.6l-35.2,92.4h30.8l31.2-81.6v-2H448.8z"/>
</g>
<g>
</g>
<g>
</g>
<g>
</g>
<g>
</g>
<g>
</g>
<g>
</g>
<g>
</g>
<g>
</g>
<g>
</g>
<g>
</g>
<g>
</g>
<g>
</g>
<g>
</g>
<g>
</g>
<g>
</g>
</svg>
