<?xml version="1.0" encoding="iso-8859-1"?>
<!-- Generator: Adobe Illustrator 19.0.0, SVG Export Plug-In . SVG Version: 6.00 Build 0)  -->
<svg version="1.1" id="Layer_1" xmlns="http://www.w3.org/2000/svg" xmlns:xlink="http://www.w3.org/1999/xlink" x="0px" y="0px"
	 viewBox="0 0 508 508" style="enable-background:new 0 0 508 508;" xml:space="preserve">
<circle style="fill:#90DFAA;" cx="254" cy="254" r="254"/>
<path style="fill:#2C9984;" d="M35.6,384C80,458.4,161.2,508,254,508s174-50,218.4-124H35.6z"/>
<polygon style="fill:#FFFFFF;" points="71.2,288.4 113.6,228.8 394.4,228.8 436.8,288.4 "/>
<g>
	<path style="fill:#324A5E;" d="M410,246H98c-14.8,0-27.2,12-27.2,27.2V364h366v-91.2C436.8,258,424.8,246,410,246z"/>
	<path style="fill:#324A5E;" d="M373.6,108.8H134.4c-11.6,0-20.8,9.2-20.8,20.8v98.8h280.8v-98.8C394.4,118,385.2,108.8,373.6,108.8
		z"/>
</g>
<g>
	<polygon style="fill:#2B3B4E;" points="436.8,364 396,364 407.6,384 436.8,384 	"/>
	<polygon style="fill:#2B3B4E;" points="71.2,364 112,364 100.4,384 71.2,384 	"/>
</g>
<g>
	<path style="fill:#E6E9EE;" d="M335.2,216h-44.4c-6.8,0-12.8,5.6-12.8,12.8c0,6.8,5.6,12.8,12.8,12.8h44.4
		c6.8,0,12.8-5.6,12.8-12.8C348,221.6,342.4,216,335.2,216z"/>
	<path style="fill:#E6E9EE;" d="M217.2,216h-44.4c-6.8,0-12.8,5.6-12.8,12.8c0,6.8,5.6,12.8,12.8,12.8h44.4
		c6.8,0,12.8-5.6,12.8-12.8C230,221.6,224,216,217.2,216z"/>
</g>
<g>
</g>
<g>
</g>
<g>
</g>
<g>
</g>
<g>
</g>
<g>
</g>
<g>
</g>
<g>
</g>
<g>
</g>
<g>
</g>
<g>
</g>
<g>
</g>
<g>
</g>
<g>
</g>
<g>
</g>
</svg>
