<?xml version="1.0" encoding="iso-8859-1"?>
<!-- Generator: Adobe Illustrator 19.0.0, SVG Export Plug-In . SVG Version: 6.00 Build 0)  -->
<svg version="1.1" id="Layer_1" xmlns="http://www.w3.org/2000/svg" xmlns:xlink="http://www.w3.org/1999/xlink" x="0px" y="0px"
	 viewBox="0 0 508 508" style="enable-background:new 0 0 508 508;" xml:space="preserve">
<circle style="fill:#FFD05B;" cx="254" cy="254" r="254"/>
<rect x="97.2" y="97.2" style="fill:#FFFFFF;" width="313.2" height="313.2"/>
<path style="fill:#2B3B4E;" d="M388.8,388.4h-270v-270h270V388.4z M126.8,380.4h254v-254h-254V380.4z"/>
<g>
	<rect x="236" y="145.2" style="fill:#E6E9EE;" width="39.6" height="8"/>
	<rect x="145.6" y="161.6" style="fill:#E6E9EE;" width="8" height="41.2"/>
	<rect x="145.6" y="234" style="fill:#E6E9EE;" width="8" height="28.8"/>
	<rect x="145.6" y="308.8" style="fill:#E6E9EE;" width="8" height="42"/>
	<rect x="218.4" y="353.6" style="fill:#E6E9EE;" width="35.6" height="8"/>
	<rect x="303.2" y="353.6" style="fill:#E6E9EE;" width="58.8" height="8"/>
	<rect x="354" y="293.2" style="fill:#E6E9EE;" width="8" height="68.8"/>
	<rect x="354" y="236" style="fill:#E6E9EE;" width="8" height="41.6"/>
</g>
<g>
	<polygon style="fill:#2B3B4E;" points="153.6,153.2 236.4,153.2 236.4,145.2 145.6,145.2 145.6,161.6 153.6,161.6 	"/>
	<polygon style="fill:#2B3B4E;" points="153.6,202.8 145.6,202.8 145.6,234 153.6,234 153.6,230 249.6,230 249.6,222 153.6,222 	"/>
	<polygon style="fill:#2B3B4E;" points="153.6,262.8 145.6,262.8 145.6,308.8 153.6,308.8 153.6,274 249.6,274 249.6,266.4 
		153.6,266.4 	"/>
	<polygon style="fill:#2B3B4E;" points="153.6,307.6 175.2,307.6 175.2,299.6 145.6,299.6 145.6,308.8 153.6,308.8 	"/>
	<polygon style="fill:#2B3B4E;" points="202.8,303.6 194.8,303.6 194.8,353.6 153.6,353.6 153.6,350.8 145.6,350.8 145.6,361.6 
		218.4,361.6 218.4,353.6 202.8,353.6 	"/>
	<polygon style="fill:#2B3B4E;" points="295.2,353.6 254,353.6 254,361.6 303.2,361.6 303.2,344.8 295.2,344.8 	"/>
	<polygon style="fill:#2B3B4E;" points="276.8,266.4 276.8,274 282.8,274 295.2,284.8 295.2,303.6 303.2,303.6 303.2,281.2 
		285.6,266.4 	"/>
	<polygon style="fill:#2B3B4E;" points="276,145.2 276,187.6 283.6,187.6 283.6,153.2 354,153.2 354,184 304.4,184 304.4,191.6 
		354,191.6 354,222 283.6,222 283.6,212 276,212 276,230 354,230 354,236 362,236 362,191.6 362,187.6 362,145.2 	"/>
	<polygon style="fill:#2B3B4E;" points="354,285.2 325.2,285.2 325.2,293.2 362,293.2 362,277.2 354,277.2 	"/>
</g>
<g>
</g>
<g>
</g>
<g>
</g>
<g>
</g>
<g>
</g>
<g>
</g>
<g>
</g>
<g>
</g>
<g>
</g>
<g>
</g>
<g>
</g>
<g>
</g>
<g>
</g>
<g>
</g>
<g>
</g>
</svg>
