<?xml version="1.0" encoding="iso-8859-1"?>
<!-- Generator: Adobe Illustrator 19.0.0, SVG Export Plug-In . SVG Version: 6.00 Build 0)  -->
<svg version="1.1" id="Layer_1" xmlns="http://www.w3.org/2000/svg" xmlns:xlink="http://www.w3.org/1999/xlink" x="0px" y="0px"
	 viewBox="0 0 508 508" style="enable-background:new 0 0 508 508;" xml:space="preserve">
<circle style="fill:#90DFAA;" cx="254" cy="254" r="254"/>
<path style="fill:#FFFFFF;" d="M328.8,414.4v-48c0-7.2,6-13.2,13.2-13.2h47.6V106.4c0-7.2-6-13.2-13.2-13.2H131.2
	c-7.2,0-13.2,6-13.2,13.2v294.4c0,7.2,6,13.2,13.2,13.2L328.8,414.4z"/>
<path style="fill:#CED5E0;" d="M328.8,414.4h47.6c7.2,0,13.2-6,13.2-13.2v-47.6H342c-7.2,0-13.2,6-13.2,13.2V414.4z"/>
<path style="fill:#E6E9EE;" d="M328.8,414.4l60.8-60.8H342c-7.2,0-13.2,6-13.2,13.2L328.8,414.4L328.8,414.4z"/>
<path style="fill:#324A5E;" d="M331.2,122.4H176.8c-2,0-4,1.6-4,4v154.4c0,2,1.6,4,4,4h154.4c2,0,4-1.6,4-4V126.4
	C335.2,124,333.6,122.4,331.2,122.4z M180.8,276.8v-73.6c39.6,2,71.6,34,73.6,73.6H180.8z M327.2,276.8H262
	c-0.8-17.6-6.8-34-16.8-47.2h82V276.8z M327.2,222h-88.8c-14.8-15.6-35.2-25.2-58-26.4v-65.2h66.8v59.2c0,2,1.6,4,4,4h75.6V222
	H327.2z M327.2,185.6h-71.6v-55.2h71.6V185.6z"/>
<g>
	<path style="fill:#84DBFF;" d="M333.2,300.8c0-1.2-0.8-2-2-2s-2,0.8-2,2v14.4H178.8v-14.4c0-1.2-0.8-2-2-2s-2,0.8-2,2v16.4
		c0,1.2,0.8,2,2,2h154.4c1.2,0,2-0.8,2-2l0,0l0,0V300.8z"/>
	<path style="fill:#84DBFF;" d="M163.2,278.8h-14.4V128.4h14.4c1.2,0,2-0.8,2-2s-0.8-2-2-2h-16.4c-1.2,0-2,0.8-2,2v154.4
		c0,1.2,0.8,2,2,2h16.4c1.2,0,2-0.8,2-2S164.4,278.8,163.2,278.8z"/>
</g>
<g>
</g>
<g>
</g>
<g>
</g>
<g>
</g>
<g>
</g>
<g>
</g>
<g>
</g>
<g>
</g>
<g>
</g>
<g>
</g>
<g>
</g>
<g>
</g>
<g>
</g>
<g>
</g>
<g>
</g>
</svg>
