<?xml version="1.0" encoding="iso-8859-1"?>
<!-- Generator: Adobe Illustrator 19.0.0, SVG Export Plug-In . SVG Version: 6.00 Build 0)  -->
<svg version="1.1" id="Layer_1" xmlns="http://www.w3.org/2000/svg" xmlns:xlink="http://www.w3.org/1999/xlink" x="0px" y="0px"
	 viewBox="0 0 508 508" style="enable-background:new 0 0 508 508;" xml:space="preserve">
<circle style="fill:#FD8469;" cx="254" cy="254" r="254"/>
<path style="fill:#E6E9EE;" d="M426,122.8H82c-7.2,0-13.2,6-13.2,13.2v236.4c0,7.2,6,13.2,13.2,13.2h344c7.2,0,13.2-6,13.2-13.2
	V135.6C439.2,128.4,433.2,122.8,426,122.8z"/>
<g>
	<rect x="87.6" y="166" style="fill:#FFFFFF;" width="332.4" height="204.4"/>
	<polygon style="fill:#FFFFFF;" points="188,166 113.6,166 122.8,149.6 178.8,149.6 	"/>
</g>
<polygon style="fill:#CED5E0;" points="262.4,166 188,166 197.2,149.6 253.6,149.6 "/>
<circle style="fill:#FF7058;" cx="411.6" cy="145.2" r="8.8"/>
<circle style="fill:#84DBFF;" cx="383.6" cy="145.2" r="8.8"/>
<circle style="fill:#FFD05B;" cx="352.8" cy="145.2" r="8.8"/>
<polygon style="fill:#54C0EB;" points="386.8,261.6 370.8,333.2 278.8,333.2 262.8,261.6 324.8,210.8 "/>
<path style="fill:#324A5E;" d="M401.2,255.6l-72-58.8c-1.2-0.8-2.8-1.6-4.4-1.6l0,0l0,0c-1.6,0-3.2,0.4-4.4,1.6l-72,58.8
	c-3.2,2.4-3.2,7.2-0.4,10c2.4,2.4,6,2.8,8.8,0.4l0,0l67.6-55.2l0,0l0,0l68,55.2l0,0c2.8,2,6.4,2,8.8-0.4
	C404.4,262.8,404,258,401.2,255.6z"/>
<rect x="305.2" y="278.8" style="fill:#84DBFF;" width="39.6" height="54.4"/>
<g>
	<rect x="113.6" y="205.6" style="fill:#E6E9EE;" width="104.4" height="8.8"/>
	<rect x="113.6" y="227.2" style="fill:#E6E9EE;" width="104.4" height="8.8"/>
	<rect x="113.6" y="249.2" style="fill:#E6E9EE;" width="104.4" height="8.8"/>
	<rect x="113.6" y="270.8" style="fill:#E6E9EE;" width="104.4" height="8.8"/>
	<rect x="113.6" y="292.4" style="fill:#E6E9EE;" width="104.4" height="8.8"/>
	<rect x="113.6" y="314" style="fill:#E6E9EE;" width="52.8" height="8.8"/>
</g>
<g>
</g>
<g>
</g>
<g>
</g>
<g>
</g>
<g>
</g>
<g>
</g>
<g>
</g>
<g>
</g>
<g>
</g>
<g>
</g>
<g>
</g>
<g>
</g>
<g>
</g>
<g>
</g>
<g>
</g>
</svg>
