<?xml version="1.0" encoding="iso-8859-1"?>
<!-- Generator: Adobe Illustrator 19.0.0, SVG Export Plug-In . SVG Version: 6.00 Build 0)  -->
<svg version="1.1" id="Layer_1" xmlns="http://www.w3.org/2000/svg" xmlns:xlink="http://www.w3.org/1999/xlink" x="0px" y="0px"
	 viewBox="0 0 508 508" style="enable-background:new 0 0 508 508;" xml:space="preserve">
<circle style="fill:#54C0EB;" cx="254" cy="254" r="254"/>
<path style="fill:#324A5E;" d="M376,80.4H132c-8.8,0-16.4,7.2-16.4,16.4v314.4c0,8.8,7.2,16.4,16.4,16.4h244
	c8.8,0,16.4-7.2,16.4-16.4V96.8C392,87.6,384.8,80.4,376,80.4z"/>
<path style="fill:#2B3B4E;" d="M392,164V96.8c0-8.8-7.2-16.4-16.4-16.4h-244c-8.8,0-16.4,7.2-16.4,16.4V164H392z"/>
<rect x="133.2" y="97.2" style="fill:#84DBFF;" width="241.6" height="51.2"/>
<rect x="132.8" y="179.2" style="fill:#FF7058;" width="45.2" height="42"/>
<g>
	<rect x="198" y="179.2" style="fill:#FFFFFF;" width="45.2" height="42"/>
	<rect x="262.8" y="179.2" style="fill:#FFFFFF;" width="45.2" height="42"/>
	<rect x="328" y="179.2" style="fill:#FFFFFF;" width="45.2" height="42"/>
	<rect x="132.8" y="239.2" style="fill:#FFFFFF;" width="45.2" height="42"/>
	<rect x="198" y="239.2" style="fill:#FFFFFF;" width="45.2" height="42"/>
	<rect x="262.8" y="239.2" style="fill:#FFFFFF;" width="45.2" height="42"/>
	<rect x="328" y="239.2" style="fill:#FFFFFF;" width="45.2" height="42"/>
	<rect x="132.8" y="298.8" style="fill:#FFFFFF;" width="45.2" height="42"/>
	<rect x="198" y="298.8" style="fill:#FFFFFF;" width="45.2" height="42"/>
	<rect x="262.8" y="298.8" style="fill:#FFFFFF;" width="45.2" height="42"/>
	<rect x="328" y="298.8" style="fill:#FFFFFF;" width="45.2" height="42"/>
	<rect x="132.8" y="358.8" style="fill:#FFFFFF;" width="45.2" height="42"/>
	<rect x="198" y="358.8" style="fill:#FFFFFF;" width="45.2" height="42"/>
	<rect x="262.8" y="358.8" style="fill:#FFFFFF;" width="45.2" height="42"/>
	<rect x="328" y="358.8" style="fill:#FFFFFF;" width="45.2" height="42"/>
</g>
<g>
</g>
<g>
</g>
<g>
</g>
<g>
</g>
<g>
</g>
<g>
</g>
<g>
</g>
<g>
</g>
<g>
</g>
<g>
</g>
<g>
</g>
<g>
</g>
<g>
</g>
<g>
</g>
<g>
</g>
</svg>
