<?xml version="1.0" encoding="iso-8859-1"?>
<!-- Generator: Adobe Illustrator 19.0.0, SVG Export Plug-In . SVG Version: 6.00 Build 0)  -->
<svg version="1.1" id="Layer_1" xmlns="http://www.w3.org/2000/svg" xmlns:xlink="http://www.w3.org/1999/xlink" x="0px" y="0px"
	 viewBox="0 0 508 508" style="enable-background:new 0 0 508 508;" xml:space="preserve">
<circle style="fill:#FFD05B;" cx="254" cy="254" r="254"/>
<rect x="83.2" y="241.2" style="fill:#FFFFFF;" width="341.6" height="142.8"/>
<rect x="83.2" y="241.2" style="fill:#FF7058;" width="45.2" height="142.8"/>
<g>
	<rect x="148.4" y="266.8" style="fill:#E6E9EE;" width="248.4" height="8.8"/>
	<rect x="148.4" y="294.4" style="fill:#E6E9EE;" width="248.4" height="8.8"/>
	<rect x="148.4" y="322" style="fill:#E6E9EE;" width="248.4" height="8.8"/>
	<rect x="148.4" y="349.2" style="fill:#E6E9EE;" width="126" height="8.8"/>
</g>
<rect x="310.049" y="153.563" transform="matrix(0.7071 0.7071 -0.7071 0.7071 271.407 -153.7108)" style="fill:#324A5E;" width="22.4" height="194.398"/>
<rect x="294.006" y="137.827" transform="matrix(0.7071 0.7071 -0.7071 0.7071 255.5814 -146.9756)" style="fill:#2B3B4E;" width="22.4" height="194.398"/>
<rect x="278.529" y="122.131" transform="matrix(0.7071 0.7071 -0.7071 0.7071 239.9497 -140.6288)" style="fill:#324A5E;" width="22.4" height="194.398"/>
<polygon style="fill:#FFD05B;" points="213.2,280.4 191.2,349.2 260.4,327.6 "/>
<polygon style="fill:#324A5E;" points="199.2,324.4 191.2,349.2 216,341.6 "/>
<path style="fill:#FF7058;" d="M412.8,157.6l-30-30c-4.8-4.8-12.4-4.8-17.2,0l-15.2,15.2l47.2,47.2l15.2-15.2
	C417.6,170,417.6,162.4,412.8,157.6z"/>
<g>
</g>
<g>
</g>
<g>
</g>
<g>
</g>
<g>
</g>
<g>
</g>
<g>
</g>
<g>
</g>
<g>
</g>
<g>
</g>
<g>
</g>
<g>
</g>
<g>
</g>
<g>
</g>
<g>
</g>
</svg>
