<?xml version="1.0" encoding="iso-8859-1"?>
<!-- Generator: Adobe Illustrator 19.0.0, SVG Export Plug-In . SVG Version: 6.00 Build 0)  -->
<svg version="1.1" id="Layer_1" xmlns="http://www.w3.org/2000/svg" xmlns:xlink="http://www.w3.org/1999/xlink" x="0px" y="0px"
	 viewBox="0 0 508 508" style="enable-background:new 0 0 508 508;" xml:space="preserve">
<circle style="fill:#90DFAA;" cx="254" cy="254" r="254"/>
<path style="fill:#FFFFFF;" d="M376.8,106.8c0-7.2-6-13.2-13.2-13.2H118.4c-7.2,0-13.2,6-13.2,13.2v294.4c0,7.2,6,13.2,13.2,13.2
	H316v-48c0-7.2,6-13.2,13.2-13.2h47.6L376.8,106.8L376.8,106.8z"/>
<path style="fill:#CED5E0;" d="M329.2,353.6c-7.2,0-13.2,6-13.2,13.2v47.6h47.6c7.2,0,13.2-6,13.2-13.2v-47.6H329.2z"/>
<g>
	<path style="fill:#E6E9EE;" d="M329.2,353.6c-7.2,0-13.2,6-13.2,13.2v47.6l60.8-60.8L329.2,353.6L329.2,353.6z"/>
	<rect x="136" y="149.6" style="fill:#E6E9EE;" width="210.8" height="7.2"/>
	<rect x="136" y="174.4" style="fill:#E6E9EE;" width="210.8" height="7.2"/>
	<rect x="136" y="198.8" style="fill:#E6E9EE;" width="210.8" height="7.2"/>
	<rect x="136" y="223.2" style="fill:#E6E9EE;" width="210.8" height="7.2"/>
	<rect x="136" y="248" style="fill:#E6E9EE;" width="210.8" height="7.2"/>
	<rect x="136" y="272.4" style="fill:#E6E9EE;" width="210.8" height="7.2"/>
	<rect x="136" y="297.2" style="fill:#E6E9EE;" width="93.2" height="7.2"/>
</g>
<path style="fill:#FFD05B;" d="M206.4,339.2c3.2,23.6-5.2,44.8-5.2,45.2l0,0l0,0l0,0l0,0c0.4,0,21.6-8.8,45.2-5.2
	c0,0,8-24.4,28.4-53.6l0,0l0,0l-14.4-14.4l0,0l0,0C230.8,331.6,206.4,339.2,206.4,339.2z"/>
<rect x="246.838" y="309.196" transform="matrix(0.7071 0.7071 -0.7071 0.7071 310.6089 -77.4855)" style="fill:#F9B54C;" width="4" height="53.999"/>
<circle style="fill:#FFFFFF;" cx="228.4" cy="356.8" r="6.8"/>
<path style="fill:#324A5E;" d="M269.6,335.2c22.4-14.8,53.6-41.2,85.6-73.6c56-56,94.4-108.4,85.6-117.2
	C432.4,135.6,380,174,324,230c-32.4,32.4-58.8,63.6-73.6,85.6L269.6,335.2z"/>
<g>
	<path style="fill:#FFD05B;" d="M321.2,232.4l31.6,31.6c0.8-0.8,1.6-1.6,2.8-2.8c2.4-2.4,5.2-5.2,7.6-7.6L331.6,222
		c-2.4,2.4-5.2,4.8-7.6,7.6C323.2,230.8,322,231.6,321.2,232.4z"/>
	<path style="fill:#FFD05B;" d="M387.6,193.2c-2.8,1.6-6.4,4-9.6,7.6c-6.4,6.4-10.4,13.2-8.4,15.2s8.4-2,15.2-8.4
		c3.6-3.6,6-6.8,7.6-9.6l33.6-33.6l6.8,6.8c8.4-13.6,12-23.2,8.8-26.4s-12.8,0-26.4,8.8l6.8,6.8L387.6,193.2z"/>
</g>
<g>
</g>
<g>
</g>
<g>
</g>
<g>
</g>
<g>
</g>
<g>
</g>
<g>
</g>
<g>
</g>
<g>
</g>
<g>
</g>
<g>
</g>
<g>
</g>
<g>
</g>
<g>
</g>
<g>
</g>
</svg>
