<?xml version="1.0" encoding="iso-8859-1"?>
<!-- Generator: Adobe Illustrator 19.0.0, SVG Export Plug-In . SVG Version: 6.00 Build 0)  -->
<svg version="1.1" id="Layer_1" xmlns="http://www.w3.org/2000/svg" xmlns:xlink="http://www.w3.org/1999/xlink" x="0px" y="0px"
	 viewBox="0 0 508 508" style="enable-background:new 0 0 508 508;" xml:space="preserve">
<circle style="fill:#90DFAA;" cx="254" cy="254" r="254"/>
<path style="fill:#324A5E;" d="M412.4,370.8H95.6c-10.4,0-18.8-8.4-18.8-18.8V156.4c0-10.4,8.4-18.8,18.8-18.8h316.8
	c10.4,0,18.8,8.4,18.8,18.8V352C431.6,362.4,422.8,370.8,412.4,370.8z"/>
<path style="fill:#FFD05B;" d="M152.4,265.2H110c-2,0-3.2-1.6-3.2-3.2v-34.8c0-2,1.6-3.2,3.2-3.2h42c2,0,3.2,1.6,3.2,3.2V262
	C155.6,263.6,154,265.2,152.4,265.2z"/>
<g>
	<rect x="139.6" y="224" style="fill:#F9B54C;" width="2.8" height="41.6"/>
	<rect x="120.4" y="224" style="fill:#F9B54C;" width="2.8" height="41.6"/>
	<rect x="106.8" y="232.8" style="fill:#F9B54C;" width="48.8" height="2.8"/>
	<rect x="106.8" y="243.2" style="fill:#F9B54C;" width="48.8" height="2.8"/>
	<rect x="106.8" y="253.6" style="fill:#F9B54C;" width="48.8" height="2.8"/>
</g>
<g>
	<path style="fill:#FFFFFF;" d="M122.8,176.8c0.8-1.2,1.2-2.8,1.2-4.8c0-3.2-1.6-5.6-4-7.2c-1.6-0.8-3.6-0.8-4-0.8h-6.8
		c-1.2,0-2.4,1.2-2.4,2.4v24.8c0,1.2,1.2,2.4,2.4,2.4h8.8c4,0,8.8-3.6,8.8-9.2C126.8,180.8,125.2,178.4,122.8,176.8z M112,168.8h4.4
		c1.6,0,3.2,1.2,3.2,3.2c0,1.6-1.2,3.2-3.2,3.2H112V168.8z M117.2,188.8H112V180h5.2c2.4,0,4.4,2,4.4,4.4
		C121.6,186.8,119.6,188.8,117.2,188.8z"/>
	<path style="fill:#FFFFFF;" d="M182.8,192.4l-12.8-18v16.8c0,1.2-1.2,2.4-2.4,2.4s-2.4-1.2-2.4-2.4v-24.8c0-1.2,1.2-2.4,2.4-2.4
		c0.8,0,1.6,0.4,2,1.2l12.8,18.4v-16.8c0-1.2,1.2-2.4,2.4-2.4s2.4,1.2,2.4,2.4v24.8c0,1.2-1.2,2.4-2.4,2.4
		C184,193.6,183.2,193.2,182.8,192.4z"/>
	<path style="fill:#FFFFFF;" d="M213.6,189.6c0.4,0.4,0.8,1.2,0.8,1.6c0,1.2-1.2,2.4-2.4,2.4c-0.8,0-1.2-0.4-2-0.8l-10.4-11.6v10
		c0,1.2-1.2,2.4-2.4,2.4s-2.4-1.2-2.4-2.4v-24.8c0-1.2,1.2-2.4,2.4-2.4s2.4,1.2,2.4,2.4v10l10.4-11.6c0.4-0.4,1.2-0.8,2-0.8
		c1.2,0,2.4,1.2,2.4,2.4c0,0.8-0.4,1.2-0.8,1.6l-9.6,10.8L213.6,189.6z"/>
</g>
<path style="fill:#2B3B4E;" d="M365.6,152c-64.4,0-116.8,52.4-116.8,116.8c0,43.6,24,81.6,59.6,101.6h104.4
	c10.4,0,18.8-8.4,18.8-18.8V172.4C412.8,159.6,390,152,365.6,152z"/>
<path style="fill:#324A5E;" d="M431.6,288.4c-2,0.4-4.4,0.8-6.4,0.8c-6.8,0-12.8-4.4-17.2-9.2c-8.8-9.2-14.4-21.2-16.8-33.6
	c11.6,7.2,20.8,18,26,30.4c0.8,2,9.6,6.8,12.4,4.8c0.8-0.4,1.6-1.2,2-1.6v-32c-4-0.4-8.8-3.6-8-7.6c2.8,0.4,5.2,0.8,8,1.2v-53.2
	c-11.2-9.2-24-16.4-38.4-20.4c-2.8,0-23.6-2.8-25.2-1.6c-8.8,4.4-17.2,8.8-26,13.6c-1.6,2.8,0.4,12.8-2,13.6
	c-5.2,1.6-22,15.2-25.6,15.2s-7.6-0.8-10.8,0.4c-4,1.6-6,7.6-4,11.2c9.2,1.2,20.8,1.2,25.2-7.2c0.4-1.2,8-2.8,10.8-4.4
	c1.6-0.8,7.2-3.2,8.4-2.4c4.4,2.4,9.2,6,9.2,11.2c3.2-1.2,6.4-2.4,9.6-2.8c1.2,0,4.8,3.2,5.2,4.4c1.2,4,5.6,5.6,9.6,6.4
	c4,0.4,8.4,0.4,12,2.4s6,7.2,3.2,10c-1.2,1.2-2.8,1.6-4.4,2.4c-6,2-12.4,3.6-18.8,3.2c-9.2-0.8-17.2-6.4-25.6-10.4
	c-16-7.6-36.4-9.2-50.4,1.6c-8.4,6.4-13.6,16.4-18,26.4c-3.6,7.2-6.4,16.4-1.6,23.2c1.6,2,8.8,16.4,12.8,20.4
	c4.8,4.4,12.8,2.8,19.6,3.2c12,0.8,22.8,10.8,24.4,22.4c0.4,2.8,10,12.8,11.6,17.2c0.8,2.4,0,4.8-0.4,7.2c-0.8,5.6,0.8,11.6,4.4,16
	h39.2c6-3.6,11.2-8,16.4-12.8c1.6-1.6,6-11.2,6.8-14c2.8-16.8,11.2-32.4,23.2-44.4v-11.2L431.6,288.4L431.6,288.4z"/>
<g>
	<path style="fill:#FFFFFF;" d="M108,330.4v-13.2c-0.8,0-1.6-0.8-1.6-1.6c0-0.8,0.8-1.6,1.6-1.6h1.6c0.8,0,1.6,0.8,1.6,1.6v14.8
		c0,0.8-0.8,1.6-1.6,1.6S108,331.2,108,330.4z"/>
	<path style="fill:#FFFFFF;" d="M137.6,330.4V328h-5.2c-0.4,0-0.8-0.4-1.2-0.8c0-0.4-0.4-0.4-0.4-0.8s0-0.4,0-0.8l6-11.2
		c0.4-0.4,0.8-0.8,1.2-0.8h0.8c0.8,0,1.6,0.8,1.6,1.6v9.6h0.8c0.8,0,1.6,0.8,1.6,1.6c0,0.8-0.8,1.6-1.6,1.6h-0.8v2.4
		c0,0.8-0.8,1.6-1.6,1.6C138,332,137.6,331.2,137.6,330.4z M134.8,325.2h2.8V320L134.8,325.2z"/>
	<path style="fill:#FFFFFF;" d="M121.6,330.4V328h-5.2c-0.4,0-0.8-0.4-1.2-0.8c0-0.4-0.4-0.4-0.4-0.8s0-0.4,0-0.8l6-11.2
		c0.4-0.4,0.8-0.8,1.2-0.8h0.8c0.8,0,1.6,0.8,1.6,1.6v9.6h0.8c0.8,0,1.6,0.8,1.6,1.6c0,0.8-0.8,1.6-1.6,1.6h-0.8v2.4
		c0,0.8-0.8,1.6-1.6,1.6C122,332,121.6,331.2,121.6,330.4z M118.8,325.2h2.8V320L118.8,325.2z"/>
	<path style="fill:#FFFFFF;" d="M159.2,326c0,3.2-2.8,6-6,6s-6-2.8-6-6c0-0.8,0.8-1.6,1.6-1.6s1.6,0.8,1.6,1.6
		c0,1.6,1.2,2.8,2.8,2.8s2.8-1.2,2.8-2.8c0-1.6-1.2-2.8-2.8-2.8c-0.8,0-1.6-0.8-1.6-1.6c0-2,2.8-0.8,2.8-2.8c0-0.8-0.8-1.6-1.6-1.6
		H150c-0.8,0-1.6-0.8-1.6-1.6c0-0.8,0.8-1.6,1.6-1.6h2.8c2.4,0,4.4,2,4.4,4.4c0,0.8-0.4,2-0.8,2.8C158,322.4,159.2,324,159.2,326z"
		/>
	<path style="fill:#FFFFFF;" d="M184.8,326c0,3.2-2.8,6-6,6s-6-2.8-6-6c0-0.8,0.8-1.6,1.6-1.6s1.6,0.8,1.6,1.6
		c0,1.6,1.2,2.8,2.8,2.8s2.8-1.2,2.8-2.8c0-1.6-1.2-2.8-2.8-2.8c-0.8,0-1.6-0.8-1.6-1.6c0-2,2.8-0.8,2.8-2.8c0-0.8-0.8-1.6-1.6-1.6
		h-2.8c-0.8,0-1.6-0.8-1.6-1.6c0-0.8,0.8-1.6,1.6-1.6h2.8c2.4,0,4.4,2,4.4,4.4c0,0.8-0.4,2-0.8,2.8C184,322.4,184.8,324,184.8,326z"
		/>
	<path style="fill:#FFFFFF;" d="M196,330.4V328h-5.2c-0.4,0-0.8-0.4-1.2-0.8c0-0.4-0.4-0.4-0.4-0.8s0-0.4,0-0.8l6-11.2
		c0.4-0.4,0.8-0.8,1.2-0.8h0.8c0.8,0,1.6,0.8,1.6,1.6v9.6h0.8c0.8,0,1.6,0.8,1.6,1.6c0,0.8-0.8,1.6-1.6,1.6h-0.8v2.4
		c0,0.8-0.8,1.6-1.6,1.6C196.8,332,196,331.2,196,330.4z M193.2,325.2h2.8V320L193.2,325.2z"/>
	<path style="fill:#FFFFFF;" d="M220.4,330.4V328h-5.2c-0.4,0-0.8-0.4-1.2-0.8c0-0.4-0.4-0.4-0.4-0.8s0-0.4,0-0.8l6-11.2
		c0.4-0.4,0.8-0.8,1.2-0.8h1.2c0.8,0,1.6,0.8,1.6,1.6v9.6h0.8c0.8,0,1.6,0.8,1.6,1.6c0,0.8-0.8,1.6-1.6,1.6h-0.8v2.4
		c0,0.8-0.8,1.6-1.6,1.6C221.2,332,220.4,331.2,220.4,330.4z M218,325.2h2.8V320L218,325.2z"/>
	<path style="fill:#FFFFFF;" d="M207.2,330.4v-13.2c-0.8,0-1.6-0.8-1.6-1.6c0-0.8,0.8-1.6,1.6-1.6h1.6c0.8,0,1.6,0.8,1.6,1.6v14.8
		c0,0.8-0.8,1.6-1.6,1.6C208,332,207.2,331.2,207.2,330.4z"/>
	<path style="fill:#FFFFFF;" d="M246,330.4V328h-5.2c-0.4,0-0.8-0.4-1.2-0.8c0-0.4-0.4-0.4-0.4-0.8s0-0.4,0-0.8l6-11.2
		c0.4-0.4,0.8-0.8,1.2-0.8h0.8c0.8,0,1.6,0.8,1.6,1.6v9.6h0.8c0.8,0,1.6,0.8,1.6,1.6c0,0.8-0.8,1.6-1.6,1.6h-0.8v2.4
		c0,0.8-0.8,1.6-1.6,1.6C246.4,332,246,331.2,246,330.4z M243.2,325.2h2.8V320L243.2,325.2z"/>
	<path style="fill:#FFFFFF;" d="M271.6,330.4v-13.2c-0.8,0-1.6-0.8-1.6-1.6c0-0.8,0.8-1.6,1.6-1.6h1.6c0.8,0,1.6,0.8,1.6,1.6v14.8
		c0,0.8-0.8,1.6-1.6,1.6C272.4,332,271.6,331.2,271.6,330.4z"/>
	<path style="fill:#FFFFFF;" d="M290.8,326c0,3.2-2.8,6-6,6s-6-2.8-6-6c0-0.8,0.8-1.6,1.6-1.6c0.8,0,1.6,0.8,1.6,1.6
		c0,1.6,1.2,2.8,2.8,2.8c1.6,0,2.8-1.2,2.8-2.8c0-1.6-1.2-2.8-2.8-2.8c-0.8,0-1.6-0.8-1.6-1.6c0-2,2.8-0.8,2.8-2.8
		c0-0.8-0.8-1.6-1.6-1.6H282c-0.8,0-1.6-0.8-1.6-1.6c0-0.8,0.8-1.6,1.6-1.6h2.8c2.4,0,4.4,2,4.4,4.4c0,0.8-0.4,2-0.8,2.8
		C290,322.4,290.8,324,290.8,326z"/>
	<path style="fill:#FFFFFF;" d="M266,326c0,3.2-2.8,6-6,6s-6-2.8-6-6c0-0.8,0.8-1.6,1.6-1.6c0.8,0,1.6,0.8,1.6,1.6
		c0,1.6,1.2,2.8,2.8,2.8c1.6,0,2.8-1.2,2.8-2.8c0-1.6-1.2-2.8-2.8-2.8c-0.8,0-1.6-0.8-1.6-1.6c0-2,2.8-0.8,2.8-2.8
		c0-0.8-0.8-1.6-1.6-1.6h-2.8c-0.8,0-1.6-0.8-1.6-1.6c0-0.8,0.8-1.6,1.6-1.6h2.8c2.4,0,4.4,2,4.4,4.4c0,0.8-0.4,2-0.8,2.8
		C264.8,322.4,266,324,266,326z"/>
	<path style="fill:#FFFFFF;" d="M147.2,165.6c-0.4-0.8-1.2-1.6-2.4-1.6s-2,0.8-2.4,1.6l-9.2,24.4c-0.4,1.2,0,2.8,1.6,3.2
		c0.4,0,2.4,0.8,3.2-1.6l2.4-5.6h9.6l2.4,5.6c0.4,1.2,2,2,3.2,1.6s2-2,1.6-3.2L147.2,165.6z M142,181.2l2.8-7.6l2.8,7.6H142z"/>
</g>
<g>
</g>
<g>
</g>
<g>
</g>
<g>
</g>
<g>
</g>
<g>
</g>
<g>
</g>
<g>
</g>
<g>
</g>
<g>
</g>
<g>
</g>
<g>
</g>
<g>
</g>
<g>
</g>
<g>
</g>
</svg>
