<?xml version="1.0" encoding="iso-8859-1"?>
<!-- Generator: Adobe Illustrator 19.0.0, SVG Export Plug-In . SVG Version: 6.00 Build 0)  -->
<svg version="1.1" id="Layer_1" xmlns="http://www.w3.org/2000/svg" xmlns:xlink="http://www.w3.org/1999/xlink" x="0px" y="0px"
	 viewBox="0 0 508 508" style="enable-background:new 0 0 508 508;" xml:space="preserve">
<circle style="fill:#324A5E;" cx="254" cy="254" r="254"/>
<path style="fill:#2B3B4E;" d="M85.2,443.6c44.8,40,104,64.4,168.8,64.4s124-24.4,168.8-64.4H85.2z"/>
<polygon style="fill:#E6E9EE;" points="356,73.6 356,116.4 314.4,91.6 314.4,73.6 "/>
<polygon style="fill:#FFFFFF;" points="377.2,443.6 377.2,138.4 254,65.2 130.8,138.4 130.8,443.6 "/>
<path style="fill:#FF7058;" d="M393.2,156.8L254,74.4l-139.2,82.4c-3.6,2.4-8.4,0.8-10.8-2.8s-0.8-8.4,2.8-10.8L250,58.4
	c2.4-1.6,5.6-1.6,8,0l143.2,84.8c3.6,2.4,4.8,7.2,2.8,10.8C402.4,156.4,398.8,160,393.2,156.8z"/>
<rect x="210" y="151.6" style="fill:#84DBFF;" width="88" height="63.2"/>
<polygon style="fill:#54C0EB;" points="274.8,151.6 242.8,214.8 298,214.8 298,151.6 "/>
<rect x="202" y="214.8" style="fill:#CED5E0;" width="104" height="10.4"/>
<rect x="308.8" y="62" style="fill:#FFFFFF;" width="53.2" height="11.6"/>
<rect x="310.8" y="321.6" style="fill:#84DBFF;" width="36.4" height="79.6"/>
<rect x="306.4" y="401.2" style="fill:#E6E9EE;" width="45.2" height="8"/>
<polygon style="fill:#54C0EB;" points="347.2,321.6 310.8,401.2 347.2,401.2 "/>
<rect x="160.8" y="321.6" style="fill:#84DBFF;" width="36.4" height="79.6"/>
<rect x="156.4" y="401.2" style="fill:#E6E9EE;" width="45.2" height="8"/>
<polygon style="fill:#54C0EB;" points="197.2,321.6 160.8,401.2 197.2,401.2 "/>
<rect x="215.2" y="302.8" style="fill:#FFD05B;" width="77.6" height="140.8"/>
<rect x="224" y="311.2" style="fill:#F9B54C;" width="60" height="87.6"/>
<rect x="130.8" y="250.4" style="fill:#CED5E0;" width="246.8" height="17.2"/>
<g>
</g>
<g>
</g>
<g>
</g>
<g>
</g>
<g>
</g>
<g>
</g>
<g>
</g>
<g>
</g>
<g>
</g>
<g>
</g>
<g>
</g>
<g>
</g>
<g>
</g>
<g>
</g>
<g>
</g>
</svg>
