<?xml version="1.0" encoding="iso-8859-1"?>
<!-- Generator: Adobe Illustrator 19.0.0, SVG Export Plug-In . SVG Version: 6.00 Build 0)  -->
<svg version="1.1" id="Layer_1" xmlns="http://www.w3.org/2000/svg" xmlns:xlink="http://www.w3.org/1999/xlink" x="0px" y="0px"
	 viewBox="0 0 508 508" style="enable-background:new 0 0 508 508;" xml:space="preserve">
<circle style="fill:#324A5E;" cx="254" cy="254" r="254"/>
<g>
	<rect x="83.2" y="198.8" style="fill:#F9B54C;" width="341.6" height="21.6"/>
	<rect x="83.2" y="342.8" style="fill:#F9B54C;" width="341.6" height="21.6"/>
</g>
<g>
	<polygon style="fill:#FFD05B;" points="132,115.2 104,158 104,392.8 160,392.8 160,158 	"/>
	<polygon style="fill:#FFD05B;" points="213.2,115.2 185.2,158 185.2,392.8 241.2,392.8 241.2,158 	"/>
	<polygon style="fill:#FFD05B;" points="294.8,115.2 266.8,158 266.8,392.8 322.8,392.8 322.8,158 	"/>
	<polygon style="fill:#FFD05B;" points="376,115.2 348,158 348,392.8 404,392.8 404,158 	"/>
</g>
<g>
	<circle style="fill:#FFFFFF;" cx="376" cy="209.6" r="8.8"/>
	<circle style="fill:#FFFFFF;" cx="376" cy="353.6" r="8.8"/>
	<circle style="fill:#FFFFFF;" cx="294.8" cy="209.6" r="8.8"/>
	<circle style="fill:#FFFFFF;" cx="294.8" cy="353.6" r="8.8"/>
	<circle style="fill:#FFFFFF;" cx="213.2" cy="209.6" r="8.8"/>
	<circle style="fill:#FFFFFF;" cx="213.2" cy="353.6" r="8.8"/>
	<circle style="fill:#FFFFFF;" cx="132" cy="209.6" r="8.8"/>
	<circle style="fill:#FFFFFF;" cx="132" cy="353.6" r="8.8"/>
</g>
<g>
</g>
<g>
</g>
<g>
</g>
<g>
</g>
<g>
</g>
<g>
</g>
<g>
</g>
<g>
</g>
<g>
</g>
<g>
</g>
<g>
</g>
<g>
</g>
<g>
</g>
<g>
</g>
<g>
</g>
</svg>
