<?xml version="1.0" encoding="iso-8859-1"?>
<!-- Generator: Adobe Illustrator 19.0.0, SVG Export Plug-In . SVG Version: 6.00 Build 0)  -->
<svg version="1.1" id="Layer_1" xmlns="http://www.w3.org/2000/svg" xmlns:xlink="http://www.w3.org/1999/xlink" x="0px" y="0px"
	 viewBox="0 0 508 508" style="enable-background:new 0 0 508 508;" xml:space="preserve">
<circle style="fill:#FD8469;" cx="254" cy="254" r="254"/>
<path style="fill:#FFD05B;" d="M114.4,93.6c-10,0-18.4,8.4-18.4,18.4v340.8c11.6,9.2,24,17.6,36.8,24.4V112
	C132.8,102,124.4,93.6,114.4,93.6z"/>
<path style="fill:#F9B54C;" d="M72.8,155.6L72.8,155.6c0,4.4,3.6,8.4,8.4,8.4h346.4c4.4,0,8.4-3.6,8.4-8.4l0,0
	c0-4.4-3.6-8.4-8.4-8.4H80.8C76.4,147.6,72.8,151.2,72.8,155.6z"/>
<path style="fill:#FFFFFF;" d="M420,374H171.2c-8.4,0-15.2-6.8-15.2-15.2V205.6c0-8.4,6.8-15.2,15.2-15.2H420
	c8.4,0,15.2,6.8,15.2,15.2v152.8C435.2,366.8,428.4,374,420,374z"/>
<g>
	<path style="fill:#324A5E;" d="M253.2,220.4c2.4,0,4.8,2,4.8,4.4s-2,4.8-4.8,4.8h-22.8v13.6h18.4c2.4,0,4.4,2,4.4,4.4
		s-2,4.4-4.4,4.4h-18.4v18.4c0,2.4-2,4.4-4.8,4.4c-2.4,0-4.4-2-4.4-4.4v-45.6c0-2.4,2-4.4,4.4-4.4L253.2,220.4L253.2,220.4z"/>
	<path style="fill:#324A5E;" d="M268,247.6c0-15.2,11.6-27.6,26.4-27.6s26.4,12.4,26.4,27.6s-12,27.6-26.4,27.6S268,262.8,268,247.6
		z M277.2,247.6c0,10,7.6,18.4,17.2,18.4s17.2-8,17.2-18.4c0-10-7.6-18.4-17.2-18.4C284.8,229.6,277.2,237.6,277.2,247.6z"/>
	<path style="fill:#324A5E;" d="M314,344c-2.4,0-4.8-2-4.8-4.4v-46c0-2.4,2-4.4,4.8-4.4c2.4,0,4.4,2,4.4,4.4v41.2h16
		c2.4,0,4.8,2,4.8,4.8c0,2.4-2,4.4-4.8,4.4H314z"/>
	<path style="fill:#324A5E;" d="M388,339.2c0,2.4-2,4.4-4.8,4.4H358c-2.4,0-4.8-2-4.8-4.4v-45.6c0-2.4,2-4.4,4.8-4.4h25.2
		c2.4,0,4.8,2,4.8,4.4s-2,4.8-4.8,4.8h-20.4V312h16c2.4,0,4.4,2,4.4,4.4s-2,4.4-4.4,4.4h-16v13.6h20.4
		C385.6,334.8,388,336.8,388,339.2z"/>
	<path style="fill:#324A5E;" d="M370.8,238.8L370.8,238.8c0-4.8-1.6-8.8-4.4-12l0,0c-3.2-4-8.4-6.8-14-6.8h-13.2
		c-2.4,0-4.4,2-4.4,4.4V270c0,2.4,2,4.4,4.4,4.4s4.8-2,4.8-4.4v-13.2h8l10,15.6c2,3.6,5.6,2,6.4,1.6c1.6-0.8,3.2-3.2,1.6-6.4
		l-8.4-13.2C366.8,252,370.8,246,370.8,238.8z M352,247.6h-8v-18.4h8c5.2,0,9.2,4,9.2,9.2S356.8,247.6,352,247.6z"/>
	<path style="fill:#324A5E;" d="M220.8,311.6L220.8,311.6c-3.6,0-6.8-3.2-6.8-6.8c0-3.6,3.2-6.8,6.8-6.8c2,0,3.6,0.8,4.8,2
		c1.6,2,4.8,2,6.4,0c2-1.6,2-4.8,0-6.4c-3.2-3.2-7.2-5.2-11.6-5.2c-8.8,0-16,7.2-16,16s7.2,16,16,16c3.6,0,6.8,3.2,6.8,6.8
		c0,3.6-3.2,6.8-6.8,6.8c-2,0-3.6-0.8-4.8-2c-1.6-2-4.8-2-6.4,0c-2,1.6-2,4.8,0,6.4c3.2,3.2,7.2,5.2,11.6,5.2c8.8,0,16-7.2,16-16
		C236.8,318.8,229.6,311.6,220.8,311.6z"/>
	<path style="fill:#324A5E;" d="M276.8,292c-0.8-1.6-2.4-2.8-4.4-2.8s-3.6,1.2-4.4,2.8l-17.6,45.6c-0.8,2.4,0.4,5.2,2.8,6
		c0.4,0.4,4.4,1.2,6-2.8l4-10.8h18l4,10.8c0.8,2.4,3.6,3.6,6,2.8c2.4-0.8,3.6-3.6,2.8-6L276.8,292z M267.2,320.8l5.6-14.4l5.6,14.4
		H267.2z"/>
</g>
<g>
</g>
<g>
</g>
<g>
</g>
<g>
</g>
<g>
</g>
<g>
</g>
<g>
</g>
<g>
</g>
<g>
</g>
<g>
</g>
<g>
</g>
<g>
</g>
<g>
</g>
<g>
</g>
<g>
</g>
</svg>
