<?xml version="1.0" encoding="iso-8859-1"?>
<!-- Generator: Adobe Illustrator 19.0.0, SVG Export Plug-In . SVG Version: 6.00 Build 0)  -->
<svg version="1.1" id="Layer_1" xmlns="http://www.w3.org/2000/svg" xmlns:xlink="http://www.w3.org/1999/xlink" x="0px" y="0px"
	 viewBox="0 0 508 508" style="enable-background:new 0 0 508 508;" xml:space="preserve">
<circle style="fill:#90DFAA;" cx="254" cy="254" r="254"/>
<polygon style="fill:#FFFFFF;" points="440.4,216 397.6,216 397.6,408.8 110.4,408.8 110.4,216 67.6,216 135.6,161.2 135.6,100.4 
	182,100.4 182,123.2 254,64.8 "/>
<g>
	<circle style="fill:#324A5E;" cx="312.8" cy="196.8" r="19.2"/>
	<path style="fill:#324A5E;" d="M290.8,225.2h44.8c12.8,0,23.6,10.4,23.6,23.6v77.6c0,2-0.8,4-2,5.2s-3.2,2-5.2,2
		c-4,0-7.6-3.6-7.6-7.6v-72.8h-6V398c0,6-4.8,10.8-10.8,10.8l0,0c-6,0-10.8-4.8-10.8-10.8v-76.8H310V398c0,6-4.8,10.8-10.8,10.8
		h-0.4c-6,0-10.8-4.8-10.8-10.8V253.2h-6v73.2c0,4-3.2,7.6-7.6,7.6l0,0c-4,0-7.6-3.2-7.6-7.6v-77.6
		C267.2,235.6,277.6,225.2,290.8,225.2z"/>
</g>
<g>
	<circle style="fill:#FF7058;" cx="201.2" cy="196.8" r="19.2"/>
	<path style="fill:#FF7058;" d="M149.2,352.4h27.2V398c0,6,4.8,10.8,10.8,10.8h0.4c6,0,10.8-4.8,10.8-10.8v-45.6h5.6V398
		c0,6,4.8,10.8,10.8,10.8l0,0c6,0,10.8-4.8,10.8-10.8v-45.6h27.2l-12.4-38c1.6-0.4,2.8-1.2,4-2c1.2-1.2,2-3.2,2-5.2v-58.4
		c0-12.8-10.4-23.6-23.6-23.6h-44c-12.8,0-23.6,10.4-23.6,23.6v58.4c0,3.6,2.8,6.8,6,7.2L149.2,352.4z M226,253.2h6v34l-6-18.4
		V253.2z M176.4,268.8l-6,18.4v-34h6V268.8z"/>
</g>
<g>
</g>
<g>
</g>
<g>
</g>
<g>
</g>
<g>
</g>
<g>
</g>
<g>
</g>
<g>
</g>
<g>
</g>
<g>
</g>
<g>
</g>
<g>
</g>
<g>
</g>
<g>
</g>
<g>
</g>
</svg>
