<?xml version="1.0" encoding="iso-8859-1"?>
<!-- Generator: Adobe Illustrator 19.0.0, SVG Export Plug-In . SVG Version: 6.00 Build 0)  -->
<svg version="1.1" id="Layer_1" xmlns="http://www.w3.org/2000/svg" xmlns:xlink="http://www.w3.org/1999/xlink" x="0px" y="0px"
	 viewBox="0 0 508 508" style="enable-background:new 0 0 508 508;" xml:space="preserve">
<circle style="fill:#90DFAA;" cx="254" cy="254" r="254"/>
<path style="fill:#324A5E;" d="M386.8,210.8H121.2L254,77.6L386.8,210.8z M150,198.8h208l-104-104L150,198.8z"/>
<path style="fill:#FFFFFF;" d="M404.4,399.6H103.6c-9.6,0-17.2-7.6-17.2-17.2V208c0-9.6,7.6-17.2,17.2-17.2H404
	c9.6,0,17.2,7.6,17.2,17.2v174.4C421.6,391.6,413.6,399.6,404.4,399.6z"/>
<g>
	<path style="fill:#54C0EB;" d="M170.4,266.4v57.2c0,3.2-2.4,5.6-5.6,5.6c-3.2,0-5.6-2.4-5.6-5.6v-22.8h-25.6v22.8
		c0,3.2-2.8,5.6-5.6,5.6c-3.2,0-5.6-2.4-5.6-5.6v-57.2c0-3.2,2.4-5.6,5.6-5.6s5.6,2.4,5.6,5.6v22.8h25.6v-22.8
		c0-3.2,2.4-5.6,5.6-5.6C167.6,260.8,170.4,263.2,170.4,266.4z"/>
	<path style="fill:#54C0EB;" d="M178,295.2c0-18.8,14.8-34.4,32.8-34.4s32.8,15.2,32.8,34.4c0,18.8-14.8,34.4-32.8,34.4
		S178,314,178,295.2z M189.6,295.2c0,12.8,9.6,22.8,21.2,22.8c12,0,21.6-10,21.6-22.8s-9.6-22.8-21.6-22.8
		C199.2,272.4,189.6,282.4,189.6,295.2z"/>
	<path style="fill:#54C0EB;" d="M284.8,260.8c3.2,0,5.6,2.4,5.6,5.6s-2.8,5.6-5.6,5.6h-11.2v51.6c0,3.2-2.8,5.6-5.6,5.6
		c-3.2,0-5.6-2.4-5.6-5.6v-51.2h-11.6c-3.2,0-5.6-2.4-5.6-5.6s2.4-5.6,5.6-5.6h34V260.8z"/>
	<path style="fill:#54C0EB;" d="M341.2,323.6c0,3.2-2.4,5.6-5.6,5.6h-31.2c-3.2,0-5.6-2.4-5.6-5.6v-57.2c0-3.2,2.4-5.6,5.6-5.6h31.2
		c3.2,0,5.6,2.4,5.6,5.6s-2.4,5.6-5.6,5.6H310v17.2h20c3.2,0,5.6,2.4,5.6,5.6s-2.4,5.6-5.6,5.6h-20V318h25.6
		C338.8,318,341.2,320.4,341.2,323.6z"/>
	<path style="fill:#54C0EB;" d="M354.8,329.2c-3.2,0-5.6-2.4-5.6-5.6v-57.2c0-3.2,2.4-5.6,5.6-5.6s5.6,2.4,5.6,5.6V318h20
		c3.2,0,5.6,2.4,5.6,5.6s-2.8,5.6-5.6,5.6H354.8z"/>
</g>
<circle style="fill:#FFFFFF;" cx="254" cy="86" r="34.4"/>
<circle style="fill:#FF7058;" cx="254" cy="86" r="22.4"/>
<g>
</g>
<g>
</g>
<g>
</g>
<g>
</g>
<g>
</g>
<g>
</g>
<g>
</g>
<g>
</g>
<g>
</g>
<g>
</g>
<g>
</g>
<g>
</g>
<g>
</g>
<g>
</g>
<g>
</g>
</svg>
