<?xml version="1.0" encoding="iso-8859-1"?>
<!-- Generator: Adobe Illustrator 19.0.0, SVG Export Plug-In . SVG Version: 6.00 Build 0)  -->
<svg version="1.1" id="Layer_1" xmlns="http://www.w3.org/2000/svg" xmlns:xlink="http://www.w3.org/1999/xlink" x="0px" y="0px"
	 viewBox="0 0 508 508" style="enable-background:new 0 0 508 508;" xml:space="preserve">
<circle style="fill:#90DFAA;" cx="254" cy="254" r="254"/>
<polygon style="fill:#324A5E;" points="344.8,230 322.8,230 322.8,328.4 274,328.4 274,271.2 226.4,271.2 226.4,328.4 177.2,328.4 
	177.2,230 155.6,230 190,202 190,171.2 213.6,171.2 213.6,183.2 250,153.6 "/>
<g>
	<path style="fill:#FFFFFF;" d="M356.8,356.8l29.6,29.6c-34,34-80.8,54.8-132.4,54.8c-103.2,0-187.2-84-187.2-187.2H35.6l55.2-55.2
		l55.6,55.2h-38c0,80.4,65.2,145.6,145.6,145.6C294,399.6,330.4,383.2,356.8,356.8z"/>
	<path style="fill:#FFFFFF;" d="M472.4,254l-55.6,55.2L361.6,254h38c0-80.4-65.2-145.6-145.6-145.6c-40,0-76.4,16.4-102.8,42.8
		l-29.6-29.6c34-34,80.8-54.8,132.4-54.8c103.2,0,187.2,84,187.2,187.2H472.4z"/>
</g>
<g>
</g>
<g>
</g>
<g>
</g>
<g>
</g>
<g>
</g>
<g>
</g>
<g>
</g>
<g>
</g>
<g>
</g>
<g>
</g>
<g>
</g>
<g>
</g>
<g>
</g>
<g>
</g>
<g>
</g>
</svg>
