<?xml version="1.0" encoding="iso-8859-1"?>
<!-- Generator: Adobe Illustrator 19.0.0, SVG Export Plug-In . SVG Version: 6.00 Build 0)  -->
<svg version="1.1" id="Layer_1" xmlns="http://www.w3.org/2000/svg" xmlns:xlink="http://www.w3.org/1999/xlink" x="0px" y="0px"
	 viewBox="0 0 508 508" style="enable-background:new 0 0 508 508;" xml:space="preserve">
<circle style="fill:#324A5E;" cx="254" cy="254" r="254"/>
<path style="fill:#2B3B4E;" d="M60,417.6c46.4,55.2,116.4,90.4,194,90.4s147.6-35.2,194-90.4H60z"/>
<path style="fill:#E6E9EE;" d="M88.4,417.6L88.4,417.6h331.2l0,0c0-13.2-10.8-23.6-23.6-23.6H112C99.2,394,88.4,404.8,88.4,417.6z"
	/>
<polygon style="fill:#FFFFFF;" points="397.2,182.4 397.2,394 110.8,394 110.8,182.4 254,90.8 "/>
<polygon style="fill:#FF7058;" points="427.6,177.6 254,66.4 254,66.4 254,66.4 254,66.4 254,66.4 80.4,177.6 80.4,202 254,90.8 
	427.6,202 "/>
<rect x="141.2" y="247.6" style="fill:#324A5E;" width="91.6" height="147.2"/>
<rect x="148.8" y="255.6" style="fill:#84DBFF;" width="76" height="65.6"/>
<polygon style="fill:#54C0EB;" points="215.6,255.6 169.2,321.2 224.8,321.2 224.8,255.6 "/>
<rect x="244.8" y="247.6" style="fill:#324A5E;" width="135.2" height="101.6"/>
<rect x="253.2" y="256" style="fill:#84DBFF;" width="118.4" height="84.4"/>
<polygon style="fill:#54C0EB;" points="331.2,256 288.4,340.8 371.6,340.8 371.6,256 "/>
<circle style="fill:#E6E9EE;" cx="254" cy="166.8" r="27.2"/>
<g>
</g>
<g>
</g>
<g>
</g>
<g>
</g>
<g>
</g>
<g>
</g>
<g>
</g>
<g>
</g>
<g>
</g>
<g>
</g>
<g>
</g>
<g>
</g>
<g>
</g>
<g>
</g>
<g>
</g>
</svg>
