<?xml version="1.0" encoding="iso-8859-1"?>
<!-- Generator: Adobe Illustrator 19.0.0, SVG Export Plug-In . SVG Version: 6.00 Build 0)  -->
<svg version="1.1" id="Layer_1" xmlns="http://www.w3.org/2000/svg" xmlns:xlink="http://www.w3.org/1999/xlink" x="0px" y="0px"
	 viewBox="0 0 508 508" style="enable-background:new 0 0 508 508;" xml:space="preserve">
<circle style="fill:#90DFAA;" cx="254" cy="254" r="254"/>
<path style="fill:#2C9984;" d="M68.8,428c46.4,49.2,112,80,185.2,80s138.8-30.8,185.2-80H68.8z"/>
<polyline style="fill:#2B3B4E;" points="305.6,433.6 298,428 210,428 202.4,433.6 305.6,433.6 "/>
<polygon style="fill:#FFFFFF;" points="418.8,231.2 375.2,428 132.8,428 89.2,231.2 254,96.8 "/>
<path style="fill:#FF7058;" d="M449.2,230.4l-188.8-154c-3.6-2.8-8.8-2.8-12.4,0l-189.2,154c-4.4,3.6-4.8,9.6-1.6,14
	c3.6,4.4,9.6,4.8,14,1.6L254,96.8l182.4,148.8c6.4,6.4,12,0.8,14-1.6C454,240,453.2,233.6,449.2,230.4z"/>
<rect x="278" y="188" style="fill:#E6E9EE;" width="58.8" height="76.4"/>
<g>
	<rect x="308.8" y="192.4" style="fill:#54C0EB;" width="23.6" height="20"/>
	<rect x="308.8" y="216.4" style="fill:#54C0EB;" width="23.6" height="20"/>
	<rect x="282" y="192.4" style="fill:#54C0EB;" width="23.6" height="20"/>
	<rect x="282" y="216.4" style="fill:#54C0EB;" width="23.6" height="20"/>
	<rect x="282" y="240.4" style="fill:#54C0EB;" width="23.6" height="20"/>
	<rect x="308.8" y="240.4" style="fill:#54C0EB;" width="23.6" height="20"/>
</g>
<rect x="272.8" y="264.8" style="fill:#CED5E0;" width="70" height="7.6"/>
<rect x="170.8" y="188" style="fill:#E6E9EE;" width="58.8" height="76.4"/>
<g>
	<rect x="174.8" y="192.4" style="fill:#54C0EB;" width="23.6" height="20"/>
	<rect x="201.6" y="192.4" style="fill:#54C0EB;" width="23.6" height="20"/>
	<rect x="174.8" y="216.4" style="fill:#54C0EB;" width="23.6" height="20"/>
	<rect x="201.6" y="216.4" style="fill:#54C0EB;" width="23.6" height="20"/>
	<rect x="174.8" y="240.4" style="fill:#54C0EB;" width="23.6" height="20"/>
	<rect x="201.6" y="240.4" style="fill:#54C0EB;" width="23.6" height="20"/>
</g>
<rect x="165.2" y="264.8" style="fill:#CED5E0;" width="70" height="7.6"/>
<rect x="216" y="304" style="fill:#FFD05B;" width="76.4" height="124"/>
<g>
	<path style="fill:#F9B54C;" d="M246.8,364.4h-19.6c-0.4,0-0.8-0.4-0.8-0.8c0-2-1.6-3.6-3.6-3.6c-0.4,0-0.8-0.4-0.8-0.8v-42
		c0-0.4,0.4-0.8,0.8-0.8c2,0,3.6-1.6,3.6-3.6c0-0.4,0.4-0.8,0.8-0.8h19.6c0.4,0,0.8,0.4,0.8,0.8c0,2,1.6,3.6,3.6,3.6
		c0.4,0,0.8,0.4,0.8,0.8v42c0,0.4-0.4,0.8-0.8,0.8c-2,0-3.6,1.6-3.6,3.6C248,364,247.6,364.4,246.8,364.4z M228,362.4h18
		c0.4-2,2-4,4.4-4.4v-40c-2-0.4-4-2-4.4-4.4h-18c-0.4,2-2,4-4.4,4.4v40C226,358.4,227.6,360,228,362.4z"/>
	<path style="fill:#F9B54C;" d="M280.8,364.4h-19.6c-0.4,0-0.8-0.4-0.8-0.8c0-2-1.6-3.6-3.6-3.6c-0.4,0-0.8-0.4-0.8-0.8v-42
		c0-0.4,0.4-0.8,0.8-0.8c2,0,3.6-1.6,3.6-3.6c0-0.4,0.4-0.8,0.8-0.8h19.6c0.4,0,0.8,0.4,0.8,0.8c0,2,1.6,3.6,3.6,3.6
		c0.4,0,0.8,0.4,0.8,0.8v42c0,0.4-0.4,0.8-0.8,0.8c-2,0-3.6,1.6-3.6,3.6C281.6,364,281.2,364.4,280.8,364.4z M262,362.4h18
		c0.4-2,2-4,4.4-4.4v-40c-2-0.4-4-2-4.4-4.4h-18c-0.4,2-2,4-4.4,4.4v40C260,358.4,261.6,360,262,362.4z"/>
	<path style="fill:#F9B54C;" d="M280.8,415.2h-53.6c-0.4,0-0.8-0.4-0.8-0.8c0-2-1.6-3.6-3.6-3.6c-0.4,0-0.8-0.4-0.8-0.8v-25.2
		c0-0.4,0.4-0.8,0.8-0.8c2,0,3.6-1.6,3.6-3.6c0-0.4,0.4-0.8,0.8-0.8h53.6c0.4,0,0.8,0.4,0.8,0.8c0,2,1.6,3.6,3.6,3.6
		c0.4,0,0.8,0.4,0.8,0.8V410c0,0.4-0.4,0.8-0.8,0.8c-2,0-3.6,1.6-3.6,3.6C281.6,414.8,281.2,415.2,280.8,415.2z M228,413.2h51.6
		c0.4-2,2-4,4.4-4.4v-23.2c-2-0.4-4-2-4.4-4.4H228c-0.4,2-2,4-4.4,4.4v23.2C226,409.6,227.6,411.2,228,413.2z"/>
</g>
<circle style="fill:#FF7058;" cx="284.8" cy="372.8" r="4"/>
<rect x="202.4" y="433.6" style="fill:#324A5E;" width="103.6" height="10"/>
<g>
</g>
<g>
</g>
<g>
</g>
<g>
</g>
<g>
</g>
<g>
</g>
<g>
</g>
<g>
</g>
<g>
</g>
<g>
</g>
<g>
</g>
<g>
</g>
<g>
</g>
<g>
</g>
<g>
</g>
</svg>
