<?xml version="1.0" encoding="iso-8859-1"?>
<!-- Generator: Adobe Illustrator 19.0.0, SVG Export Plug-In . SVG Version: 6.00 Build 0)  -->
<svg version="1.1" id="Layer_1" xmlns="http://www.w3.org/2000/svg" xmlns:xlink="http://www.w3.org/1999/xlink" x="0px" y="0px"
	 viewBox="0 0 508 508" style="enable-background:new 0 0 508 508;" xml:space="preserve">
<circle style="fill:#FFD05B;" cx="254" cy="254" r="254"/>
<polygon style="fill:#FFFFFF;" points="416.8,251.2 375.2,439.2 133.2,439.2 91.6,251.2 254,118.8 "/>
<path style="fill:#324A5E;" d="M454,236.4L265.6,81.6c-3.2-2.4-7.2-4-11.2-4l0,0l0,0c-4,0-8,1.6-11.2,4L54,236.4
	c-8,6.4-8.8,18.8-1.2,26c6.4,6.4,16,6.8,23.2,1.6l0.4-0.4L254,118.8l0,0l0,0l177.2,144.8l0.4,0.4c6.8,5.2,16.8,4.8,23.2-1.6
	C462.8,254.8,462,242.8,454,236.4z"/>
<g>
	<circle style="fill:#4CDBC4;" cx="254" cy="296.8" r="64.4"/>
	<circle style="fill:#4CDBC4;" cx="355.6" cy="296.8" r="16.4"/>
	<circle style="fill:#4CDBC4;" cx="152.4" cy="296.8" r="16.4"/>
</g>
<path style="fill:#FFFFFF;" d="M276.4,312.8c0-12.4-10-22.4-22.4-22.4c-5.2,0-9.6-4.4-9.6-9.6s4.4-9.6,9.6-9.6
	c2.8,0,5.2,1.2,6.8,3.2c2.4,2.4,6.4,2.8,9.2,0.4c2.4-2.4,2.8-6.4,0.4-9.2c-2.8-2.8-6-4.8-10-6v-4.4c0-3.6-2.8-6.4-6.4-6.4
	s-6.4,2.8-6.4,6.4v4.4c-9.2,2.8-16,11.2-16,21.6c0,12.4,10,22.4,22.4,22.4c5.2,0,9.6,4.4,9.6,9.6s-4.4,9.6-9.6,9.6
	c-2.8,0-5.2-1.2-6.8-3.2c-2.4-2.4-6.4-2.8-9.2-0.4c-2.4,2.4-2.8,6.4-0.4,9.2c2.8,2.8,6,4.8,10,6v4.4c0,3.6,2.8,6.4,6.4,6.4
	c3.6,0,6.4-2.8,6.4-6.4v-4.4C269.6,331.6,276.4,323.2,276.4,312.8z"/>
<g>
</g>
<g>
</g>
<g>
</g>
<g>
</g>
<g>
</g>
<g>
</g>
<g>
</g>
<g>
</g>
<g>
</g>
<g>
</g>
<g>
</g>
<g>
</g>
<g>
</g>
<g>
</g>
<g>
</g>
</svg>
