<?xml version="1.0" encoding="iso-8859-1"?>
<!-- Generator: Adobe Illustrator 19.0.0, SVG Export Plug-In . SVG Version: 6.00 Build 0)  -->
<svg version="1.1" id="Layer_1" xmlns="http://www.w3.org/2000/svg" xmlns:xlink="http://www.w3.org/1999/xlink" x="0px" y="0px"
	 viewBox="0 0 508 508" style="enable-background:new 0 0 508 508;" xml:space="preserve">
<circle style="fill:#FFD05B;" cx="254" cy="254" r="254"/>
<polygon style="fill:#324A5E;" points="266.4,332.4 276.8,356.4 231.2,356.4 241.6,332.4 219.2,332.4 187.2,404.8 210,404.8 
	222.4,376 285.6,376 298,404.8 320.8,404.8 288.8,332.4 "/>
<path style="fill:#FFFFFF;" d="M411.6,336.4H96.4c-7.6,0-14-6.4-14-14V117.2c0-7.6,6.4-14,14-14H412c7.6,0,14,6.4,14,14v205.2
	C425.6,330,419.6,336.4,411.6,336.4z"/>
<polygon style="fill:#E6E9EE;" points="328.4,302.8 328.4,189.2 254,143.2 179.6,189.2 179.6,302.8 "/>
<rect x="179.6" y="284" style="fill:#CED5E0;" width="148.8" height="18.8"/>
<path style="fill:#FF7058;" d="M159.6,201.2c-1.6-2.8-0.8-6.8,2-8.4l89.2-54.8c2-1.2,4.4-1.2,6.4,0l89.2,54.8c2.8,1.6,3.6,5.6,2,8.4
	c-1.6,2.8-5.6,3.6-8.4,2l-86-52.8l-86,52.8C166.8,204,162,205.6,159.6,201.2z"/>
<rect x="226.4" y="221.6" style="fill:#324A5E;" width="54.8" height="80.8"/>
<rect x="232.8" y="228" style="fill:#84DBFF;" width="42.4" height="36.4"/>
<g>
</g>
<g>
</g>
<g>
</g>
<g>
</g>
<g>
</g>
<g>
</g>
<g>
</g>
<g>
</g>
<g>
</g>
<g>
</g>
<g>
</g>
<g>
</g>
<g>
</g>
<g>
</g>
<g>
</g>
</svg>
