<?xml version="1.0" encoding="iso-8859-1"?>
<!-- Generator: Adobe Illustrator 19.0.0, SVG Export Plug-In . SVG Version: 6.00 Build 0)  -->
<svg version="1.1" id="Layer_1" xmlns="http://www.w3.org/2000/svg" xmlns:xlink="http://www.w3.org/1999/xlink" x="0px" y="0px"
	 viewBox="0 0 508 508" style="enable-background:new 0 0 508 508;" xml:space="preserve">
<circle style="fill:#F1543F;" cx="254" cy="254" r="254"/>
<g>
	<rect x="202.8" y="112" style="fill:#E6E9EE;" width="102.8" height="12.8"/>
	<rect x="202.8" y="166.4" style="fill:#E6E9EE;" width="102.8" height="12.8"/>
	<rect x="202.8" y="220.4" style="fill:#E6E9EE;" width="102.8" height="12.8"/>
	<rect x="202.8" y="274.8" style="fill:#E6E9EE;" width="102.8" height="12.8"/>
	<rect x="202.8" y="328.8" style="fill:#E6E9EE;" width="102.8" height="12.8"/>
	<rect x="202.8" y="383.2" style="fill:#E6E9EE;" width="102.8" height="12.8"/>
</g>
<g>
	<path style="fill:#FFFFFF;" d="M191.6,437.6L191.6,437.6c-6,0-11.2-4.8-11.2-11.2V81.6c0-6,4.8-11.2,11.2-11.2l0,0
		c6,0,11.2,4.8,11.2,11.2v344.8C202.8,432.4,197.6,437.6,191.6,437.6z"/>
	<path style="fill:#FFFFFF;" d="M316.4,437.6L316.4,437.6c-6,0-11.2-4.8-11.2-11.2V81.6c0-6,4.8-11.2,11.2-11.2l0,0
		c6,0,11.2,4.8,11.2,11.2v344.8C327.6,432.4,322.4,437.6,316.4,437.6z"/>
</g>
<g>
</g>
<g>
</g>
<g>
</g>
<g>
</g>
<g>
</g>
<g>
</g>
<g>
</g>
<g>
</g>
<g>
</g>
<g>
</g>
<g>
</g>
<g>
</g>
<g>
</g>
<g>
</g>
<g>
</g>
</svg>
