<?xml version="1.0" encoding="iso-8859-1"?>
<!-- Generator: Adobe Illustrator 19.0.0, SVG Export Plug-In . SVG Version: 6.00 Build 0)  -->
<svg version="1.1" id="Layer_1" xmlns="http://www.w3.org/2000/svg" xmlns:xlink="http://www.w3.org/1999/xlink" x="0px" y="0px"
	 viewBox="0 0 508 508" style="enable-background:new 0 0 508 508;" xml:space="preserve">
<circle style="fill:#90DFAA;" cx="254" cy="254" r="254"/>
<path style="fill:#E6E9EE;" d="M75.2,387.2c-0.8,8,5.6,15.2,13.6,15.2h330.4c8,0,14.4-7.2,13.6-15.2H75.2z"/>
<path style="fill:#324A5E;" d="M384,105.6H124c-6.4,0-12,5.2-12,12V288c0,6.4,5.2,12,12,12h260.4c6.4,0,12-5.2,12-12V117.6
	C396,111.2,390.8,105.6,384,105.6z"/>
<g>
	<rect x="121.6" y="121.6" style="fill:#FFFFFF;" width="264.4" height="162.4"/>
	<path style="fill:#FFFFFF;" d="M432.8,387.2L397.6,304c-0.8-2-5.2-4-9.6-4H120c-4.4,0-8.8,1.6-9.6,4l-35.2,83.2c-1.6,3.2,2,6,7.6,6
		h342.4C430.8,393.2,434.4,390.4,432.8,387.2z"/>
</g>
<g>
	<polygon style="fill:#E6E9EE;" points="132.4,312.8 117.2,312.8 120,305.2 135.2,305.2 	"/>
	<polygon style="fill:#E6E9EE;" points="156,312.8 140.8,312.8 143.2,305.2 158,305.2 	"/>
	<polygon style="fill:#E6E9EE;" points="179.6,312.8 164,312.8 166,305.2 181.2,305.2 	"/>
	<polygon style="fill:#E6E9EE;" points="202.8,312.8 187.6,312.8 188.8,305.2 204,305.2 	"/>
	<polygon style="fill:#E6E9EE;" points="226.4,312.8 211.2,312.8 212,305.2 227.2,305.2 	"/>
	<polygon style="fill:#E6E9EE;" points="250,312.8 234.4,312.8 234.8,305.2 250,305.2 	"/>
	<polygon style="fill:#E6E9EE;" points="273.6,312.8 258,312.8 258,305.2 273.2,305.2 	"/>
	<polygon style="fill:#E6E9EE;" points="296.8,312.8 281.6,312.8 280.8,305.2 296,305.2 	"/>
	<polygon style="fill:#E6E9EE;" points="320.4,312.8 305.2,312.8 304,305.2 319.2,305.2 	"/>
	<polygon style="fill:#E6E9EE;" points="344,312.8 328.4,312.8 326.8,305.2 342,305.2 	"/>
	<polygon style="fill:#E6E9EE;" points="367.2,312.8 352,312.8 350,305.2 364.8,305.2 	"/>
	<polygon style="fill:#E6E9EE;" points="390.8,312.8 375.6,312.8 372.8,305.2 388,305.2 	"/>
	<polygon style="fill:#E6E9EE;" points="128,325.6 112,325.6 115.2,317.6 130.8,317.6 	"/>
	<polygon style="fill:#E6E9EE;" points="152.4,325.6 136.4,325.6 139.2,317.6 154.4,317.6 	"/>
	<polygon style="fill:#E6E9EE;" points="176.8,325.6 160.8,325.6 162.8,317.6 178.4,317.6 	"/>
	<polygon style="fill:#E6E9EE;" points="201.2,325.6 185.2,325.6 186.8,317.6 202.4,317.6 	"/>
	<polygon style="fill:#E6E9EE;" points="225.6,325.6 209.6,325.6 210.4,317.6 226,317.6 	"/>
	<polygon style="fill:#E6E9EE;" points="249.6,325.6 234,325.6 234.4,317.6 250,317.6 	"/>
	<polygon style="fill:#E6E9EE;" points="274,325.6 258.4,325.6 258,317.6 273.6,317.6 	"/>
	<polygon style="fill:#E6E9EE;" points="298.4,325.6 282.4,325.6 282,317.6 297.6,317.6 	"/>
	<polygon style="fill:#E6E9EE;" points="322.8,325.6 306.8,325.6 305.6,317.6 321.2,317.6 	"/>
	<polygon style="fill:#E6E9EE;" points="347.2,325.6 331.2,325.6 329.6,317.6 345.2,317.6 	"/>
	<polygon style="fill:#E6E9EE;" points="371.6,325.6 355.6,325.6 353.6,317.6 368.8,317.6 	"/>
	<polygon style="fill:#E6E9EE;" points="396,325.6 380,325.6 377.2,317.6 392.8,317.6 	"/>
	<polygon style="fill:#E6E9EE;" points="123.2,339.2 106.8,339.2 110,330.4 126.4,330.4 	"/>
	<polygon style="fill:#E6E9EE;" points="148.4,339.2 132,339.2 134.8,330.4 150.8,330.4 	"/>
	<polygon style="fill:#E6E9EE;" points="173.6,339.2 157.2,339.2 159.6,330.4 175.6,330.4 	"/>
	<polygon style="fill:#E6E9EE;" points="199.2,339.2 182.4,339.2 184,330.4 200.4,330.4 	"/>
	<polygon style="fill:#E6E9EE;" points="224.4,339.2 208,339.2 208.8,330.4 225.2,330.4 	"/>
	<polygon style="fill:#E6E9EE;" points="249.6,339.2 233.2,339.2 233.6,330.4 249.6,330.4 	"/>
	<polygon style="fill:#E6E9EE;" points="274.8,339.2 258.4,339.2 258.4,330.4 274.4,330.4 	"/>
	<polygon style="fill:#E6E9EE;" points="300,339.2 283.6,339.2 282.8,330.4 299.2,330.4 	"/>
	<polygon style="fill:#E6E9EE;" points="325.6,339.2 308.8,339.2 307.6,330.4 324,330.4 	"/>
	<polygon style="fill:#E6E9EE;" points="350.8,339.2 334.4,339.2 332.4,330.4 348.4,330.4 	"/>
	<polygon style="fill:#E6E9EE;" points="376,339.2 359.6,339.2 357.2,330.4 373.2,330.4 	"/>
	<polygon style="fill:#E6E9EE;" points="401.2,339.2 384.8,339.2 381.6,330.4 398,330.4 	"/>
	<polygon style="fill:#E6E9EE;" points="144.4,354 127.2,354 130,344.8 146.8,344.8 	"/>
	<polygon style="fill:#E6E9EE;" points="275.6,354 153.6,354 156,344.8 275.2,344.8 	"/>
	<polygon style="fill:#E6E9EE;" points="302,354 284.8,354 284,344.8 300.8,344.8 	"/>
	<polygon style="fill:#E6E9EE;" points="328.4,354 311.2,354 309.6,344.8 326.4,344.8 	"/>
	<polygon style="fill:#E6E9EE;" points="354.4,354 337.2,354 335.6,344.8 352,344.8 	"/>
	<polygon style="fill:#E6E9EE;" points="380.8,354 363.6,354 361.2,344.8 378,344.8 	"/>
	<polygon style="fill:#E6E9EE;" points="407.2,354 390,354 386.8,344.8 403.6,344.8 	"/>
	<polygon style="fill:#E6E9EE;" points="290.4,384 217.6,384 219.6,359.6 288.4,359.6 	"/>
	<polygon style="fill:#E6E9EE;" points="118,354 100.8,354 104.4,344.8 121.2,344.8 	"/>
	<polygon style="fill:#E6E9EE;" points="313.2,184 313.2,268.8 194.8,268.8 194.8,184 254,147.6 	"/>
</g>
<rect x="194.8" y="254" style="fill:#CED5E0;" width="118.4" height="14.8"/>
<path style="fill:#FF7058;" d="M182.8,190.4c-1.6,0-3.2-0.8-4-2.4c-1.6-2.4-0.8-5.2,1.6-6.8l71.2-43.6c1.6-0.8,3.6-0.8,5.2,0
	l71.2,43.6c2.4,1.6,3.2,4.4,1.6,6.8c-1.6,2.4-4.4,3.2-6.8,1.6l-68.8-42l-68.4,42C184.8,190.4,184,190.4,182.8,190.4z"/>
<rect x="232" y="204.4" style="fill:#324A5E;" width="43.6" height="64.4"/>
<rect x="237.2" y="209.2" style="fill:#84DBFF;" width="34" height="28.8"/>
<g>
</g>
<g>
</g>
<g>
</g>
<g>
</g>
<g>
</g>
<g>
</g>
<g>
</g>
<g>
</g>
<g>
</g>
<g>
</g>
<g>
</g>
<g>
</g>
<g>
</g>
<g>
</g>
<g>
</g>
</svg>
