<?xml version="1.0" encoding="iso-8859-1"?>
<!-- Generator: Adobe Illustrator 19.0.0, SVG Export Plug-In . SVG Version: 6.00 Build 0)  -->
<svg version="1.1" id="Layer_1" xmlns="http://www.w3.org/2000/svg" xmlns:xlink="http://www.w3.org/1999/xlink" x="0px" y="0px"
	 viewBox="0 0 508 508" style="enable-background:new 0 0 508 508;" xml:space="preserve">
<circle style="fill:#FD8469;" cx="254" cy="254" r="254"/>
<path style="fill:#E6E9EE;" d="M417.6,408.8H90.4c-20,0-36-16-36-36l0,0H454l0,0C453.6,392.8,437.6,408.8,417.6,408.8z"/>
<polygon style="fill:#CED5E0;" points="310,372.8 198,372.8 208,387.6 300,387.6 "/>
<path style="fill:#324A5E;" d="M416.8,135.6H91.2c-9.6,0-17.6,8-17.6,17.6V346c0,9.6,8,17.6,17.6,17.6h325.2c9.6,0,17.6-8,17.6-17.6
	V153.6C434.4,143.6,426.4,135.6,416.8,135.6z"/>
<rect x="89.6" y="156.8" style="fill:#54C0EB;" width="328.8" height="185.6"/>
<rect x="146" y="99.2" style="fill:#FFFFFF;" width="216" height="243.6"/>
<rect x="146" y="99.2" style="fill:#54C0EB;" width="216" height="26"/>
<g>
	<circle style="fill:#FFFFFF;" cx="342.8" cy="112" r="5.2"/>
	<circle style="fill:#FFFFFF;" cx="324" cy="112" r="5.2"/>
	<circle style="fill:#FFFFFF;" cx="305.6" cy="112" r="5.2"/>
</g>
<polygon style="fill:#FFD05B;" points="197.6,292.8 310.4,292.8 310.4,216.8 327.6,216.8 254,157.2 225.6,180 225.6,171.2 
	207.2,171.2 207.2,194.8 180.4,216.8 197.6,216.8 "/>
<g>
	<circle style="fill:#FFFFFF;" cx="240" cy="226" r="9.2"/>
	<circle style="fill:#FFFFFF;" cx="268" cy="226" r="9.2"/>
	<circle style="fill:#FFFFFF;" cx="240" cy="252.4" r="9.2"/>
	<circle style="fill:#FFFFFF;" cx="268" cy="252.4" r="9.2"/>
</g>
<g>
</g>
<g>
</g>
<g>
</g>
<g>
</g>
<g>
</g>
<g>
</g>
<g>
</g>
<g>
</g>
<g>
</g>
<g>
</g>
<g>
</g>
<g>
</g>
<g>
</g>
<g>
</g>
<g>
</g>
</svg>
