<?xml version="1.0" encoding="iso-8859-1"?>
<!-- Generator: Adobe Illustrator 19.0.0, SVG Export Plug-In . SVG Version: 6.00 Build 0)  -->
<svg version="1.1" id="Layer_1" xmlns="http://www.w3.org/2000/svg" xmlns:xlink="http://www.w3.org/1999/xlink" x="0px" y="0px"
	 viewBox="0 0 508 508" style="enable-background:new 0 0 508 508;" xml:space="preserve">
<circle style="fill:#4CDBC4;" cx="254" cy="254" r="254"/>
<path style="fill:#2C9984;" d="M30.8,374.8C74,454,157.6,508,254,508s180.4-53.6,223.2-133.2H30.8z"/>
<path style="fill:#324A5E;" d="M444,395.2c6.8-6.8,18.4-12.4,13.2-20.4H296.8c0.8,8-14.8,13.6-25.2,20.4
	c-19.2,12-26.4,30.8-30.4,50.4c-3.6,18-5.6,38.4-16,60.4c9.6,1.2,19.2,1.6,28.8,1.6c72.4,0,137.6-30.4,183.6-78.8
	C434.8,416,435.2,404,444,395.2z"/>
<rect x="62.4" y="205.2" style="fill:#CED5E0;" width="234.4" height="169.6"/>
<polygon style="fill:#F1543F;" points="288.4,162 71.2,162 48,205.2 311.2,205.2 "/>
<g>
	<polygon style="fill:#FF7058;" points="296.8,265.2 62.4,265.2 48,292.4 311.2,292.4 	"/>
	<polygon style="fill:#FF7058;" points="128.4,205.2 179.6,149.2 230.8,205.2 239.6,205.2 179.6,139.6 119.6,205.2 	"/>
</g>
<polygon style="fill:#E6E9EE;" points="179.6,149.2 128.4,205.2 128.4,374.8 230.8,374.8 230.8,205.2 "/>
<path style="fill:#FFFFFF;" d="M206.4,247.6h-53.6v-44c0-14.8,12-26.8,26.8-26.8l0,0c14.8,0,26.8,12,26.8,26.8L206.4,247.6
	L206.4,247.6z"/>
<g>
	<path style="fill:#54C0EB;" d="M202,201.6h-44.8c1.2-11.6,10.8-20.4,22.4-20.4C191.2,181.2,201.2,190,202,201.6z"/>
	<rect x="156.8" y="205.6" style="fill:#54C0EB;" width="45.2" height="38.4"/>
</g>
<g>
	<rect x="187.2" y="203.6" style="fill:#FFFFFF;" width="1.6" height="42"/>
	<rect x="170.4" y="203.6" style="fill:#FFFFFF;" width="1.6" height="42"/>
	<rect x="155.2" y="231.2" style="fill:#FFFFFF;" width="48.8" height="1.6"/>
	<rect x="155.2" y="216.4" style="fill:#FFFFFF;" width="48.8" height="1.6"/>
	<rect x="252" y="303.6" style="fill:#FFFFFF;" width="23.2" height="35.6"/>
</g>
<rect x="255.2" y="306.4" style="fill:#54C0EB;" width="17.2" height="29.2"/>
<g>
	<rect x="263.2" y="304.8" style="fill:#FFFFFF;" width="1.6" height="32.8"/>
	<rect x="254.4" y="320.4" style="fill:#FFFFFF;" width="18.8" height="1.6"/>
	<rect x="254.4" y="312.8" style="fill:#FFFFFF;" width="18.8" height="1.6"/>
	<rect x="254.4" y="328" style="fill:#FFFFFF;" width="18.8" height="1.6"/>
	<rect x="252" y="214.4" style="fill:#FFFFFF;" width="23.2" height="35.6"/>
</g>
<rect x="255.2" y="217.6" style="fill:#54C0EB;" width="17.2" height="29.2"/>
<g>
	<rect x="263.2" y="215.6" style="fill:#FFFFFF;" width="1.6" height="32.8"/>
	<rect x="254.4" y="231.2" style="fill:#FFFFFF;" width="18.8" height="1.6"/>
	<rect x="254.4" y="223.6" style="fill:#FFFFFF;" width="18.8" height="1.6"/>
	<rect x="254.4" y="238.8" style="fill:#FFFFFF;" width="18.8" height="1.6"/>
	<rect x="84" y="214.4" style="fill:#FFFFFF;" width="23.2" height="35.6"/>
</g>
<rect x="87.2" y="217.6" style="fill:#54C0EB;" width="17.2" height="29.2"/>
<g>
	<rect x="94.8" y="215.6" style="fill:#FFFFFF;" width="1.6" height="32.8"/>
	<rect x="86.4" y="231.2" style="fill:#FFFFFF;" width="18.8" height="1.6"/>
	<rect x="86.4" y="223.6" style="fill:#FFFFFF;" width="18.8" height="1.6"/>
	<rect x="86.4" y="238.8" style="fill:#FFFFFF;" width="18.8" height="1.6"/>
	<rect x="84" y="303.6" style="fill:#FFFFFF;" width="23.2" height="35.6"/>
</g>
<rect x="87.2" y="306.4" style="fill:#54C0EB;" width="17.2" height="29.2"/>
<g>
	<rect x="94.8" y="304.8" style="fill:#FFFFFF;" width="1.6" height="32.8"/>
	<rect x="86.4" y="320.4" style="fill:#FFFFFF;" width="18.8" height="1.6"/>
	<rect x="86.4" y="312.8" style="fill:#FFFFFF;" width="18.8" height="1.6"/>
	<rect x="86.4" y="328" style="fill:#FFFFFF;" width="18.8" height="1.6"/>
</g>
<rect x="153.6" y="307.6" style="fill:#324A5E;" width="52" height="67.2"/>
<polygon style="fill:#FF7058;" points="132.8,307.6 148.4,290 210.8,290 226.4,307.6 "/>
<g>
	<path style="fill:#FFFFFF;" d="M242,99.2c0-0.8,0-1.2,0-2c0-6-3.2-11.2-8-14c0.4-1.6,0.8-2.8,0.8-4.4c0-8.8-7.2-16.4-16.4-16.4
		c-5.2,0-9.6,2.4-12.4,6c-2.4-6-8.4-10-15.2-10c-8.8,0-16.4,7.2-16.4,16.4c0,0.8,0,1.6,0,2c-0.4,0-1.2,0-1.6,0
		c-8.8,0-16.4,7.2-16.4,16.4c0,2,0.4,4,1.2,6H242z"/>
	<path style="fill:#FFFFFF;" d="M419.2,149.2c0-0.8,0-1.2,0-2c0-6-3.2-11.2-8-14c0.4-1.6,0.8-2.8,0.8-4.4c0-8.8-7.2-16.4-16.4-16.4
		c-5.2,0-9.6,2.4-12.4,6c-2.4-6-8.4-10-15.2-10c-8.8,0-16.4,7.2-16.4,16.4c0,0.8,0,1.6,0,2c-0.4,0-1.2,0-1.6,0
		c-8.8,0-16.4,7.2-16.4,16.4c0,2,0.4,4,1.2,6H419.2z"/>
</g>
<polygon style="fill:#E6E9EE;" points="456.8,301.6 456.8,374.8 296.4,374.8 296.4,302 376.8,237.2 "/>
<polygon style="fill:#F1543F;" points="376.8,228.8 285.2,302.4 285.2,310.8 376.8,237.2 468,310.8 468,302.4 "/>
<rect x="331.2" y="314.8" style="fill:#CED5E0;" width="91.2" height="60"/>
<g>
	<rect x="213.6" y="307.6" style="fill:#FFFFFF;" width="3.6" height="67.2"/>
	<rect x="142" y="307.6" style="fill:#FFFFFF;" width="3.6" height="67.2"/>
</g>
<g>
</g>
<g>
</g>
<g>
</g>
<g>
</g>
<g>
</g>
<g>
</g>
<g>
</g>
<g>
</g>
<g>
</g>
<g>
</g>
<g>
</g>
<g>
</g>
<g>
</g>
<g>
</g>
<g>
</g>
</svg>
