<?xml version="1.0" encoding="iso-8859-1"?>
<!-- Generator: Adobe Illustrator 19.0.0, SVG Export Plug-In . SVG Version: 6.00 Build 0)  -->
<svg version="1.1" id="Layer_1" xmlns="http://www.w3.org/2000/svg" xmlns:xlink="http://www.w3.org/1999/xlink" x="0px" y="0px"
	 viewBox="0 0 508 508" style="enable-background:new 0 0 508 508;" xml:space="preserve">
<circle style="fill:#324A5E;" cx="254" cy="254" r="254"/>
<rect x="116.4" y="93.6" style="fill:#FFFFFF;" width="274.8" height="334.8"/>
<rect x="138.8" y="112.8" style="fill:#324A5E;" width="24.8" height="10"/>
<rect x="144.4" y="80" style="fill:#E6E9EE;" width="13.2" height="38"/>
<rect x="190" y="112.8" style="fill:#324A5E;" width="24.8" height="10"/>
<rect x="196" y="80" style="fill:#E6E9EE;" width="13.2" height="38"/>
<rect x="241.6" y="112.8" style="fill:#324A5E;" width="24.8" height="10"/>
<rect x="247.6" y="80" style="fill:#E6E9EE;" width="13.2" height="38"/>
<rect x="293.2" y="112.8" style="fill:#324A5E;" width="24.8" height="10"/>
<rect x="298.8" y="80" style="fill:#E6E9EE;" width="13.2" height="38"/>
<rect x="344.8" y="112.8" style="fill:#324A5E;" width="24.8" height="10"/>
<g>
	<rect x="350.4" y="80" style="fill:#E6E9EE;" width="13.2" height="38"/>
	<rect x="131.6" y="154" style="fill:#E6E9EE;" width="244" height="2"/>
	<rect x="131.6" y="175.2" style="fill:#E6E9EE;" width="244" height="2"/>
	<rect x="131.6" y="196.8" style="fill:#E6E9EE;" width="244" height="2"/>
	<rect x="131.6" y="218" style="fill:#E6E9EE;" width="244" height="2"/>
	<rect x="131.6" y="260.8" style="fill:#E6E9EE;" width="244" height="2"/>
	<rect x="131.6" y="303.6" style="fill:#E6E9EE;" width="244" height="2"/>
	<rect x="131.6" y="346.4" style="fill:#E6E9EE;" width="244" height="2"/>
	<rect x="131.6" y="324.8" style="fill:#E6E9EE;" width="244" height="2"/>
	<rect x="131.6" y="282" style="fill:#E6E9EE;" width="244" height="2"/>
	<rect x="131.6" y="239.6" style="fill:#E6E9EE;" width="244" height="2"/>
	<rect x="131.6" y="367.6" style="fill:#E6E9EE;" width="244" height="2"/>
	<rect x="131.6" y="389.2" style="fill:#E6E9EE;" width="244" height="2"/>
</g>
<polygon style="fill:#FFD05B;" points="318,214.8 303.2,214.8 303.2,284.4 270.4,284.4 270.4,242 237.6,242 237.6,284.4 
	204.8,284.4 204.8,214.8 190,214.8 254,155.6 "/>
<path style="fill:#FF7058;" d="M353.6,282l-6.4,33.2l-9.2-8.8L284.8,360c-2.4,2.4-6,2.4-8.4,0l-42-42l-71.2,70.8l-8.4-8.4l75.2-75.2
	c2.4-2.4,6-2.4,8.4,0l42,42l49.2-49.2l-9.2-9.2L353.6,282z"/>
<g>
</g>
<g>
</g>
<g>
</g>
<g>
</g>
<g>
</g>
<g>
</g>
<g>
</g>
<g>
</g>
<g>
</g>
<g>
</g>
<g>
</g>
<g>
</g>
<g>
</g>
<g>
</g>
<g>
</g>
</svg>
