<?xml version="1.0" encoding="iso-8859-1"?>
<!-- Generator: Adobe Illustrator 19.0.0, SVG Export Plug-In . SVG Version: 6.00 Build 0)  -->
<svg version="1.1" id="Layer_1" xmlns="http://www.w3.org/2000/svg" xmlns:xlink="http://www.w3.org/1999/xlink" x="0px" y="0px"
	 viewBox="0 0 508 508" style="enable-background:new 0 0 508 508;" xml:space="preserve">
<circle style="fill:#324A5E;" cx="254" cy="254" r="254"/>
<polygon style="fill:#FFFFFF;" points="420,223.2 254,88.8 190,140.8 190,120.4 148.4,120.4 148.4,174.4 88,223.2 126,223.2 
	126,419.2 382,419.2 382,223.2 "/>
<circle style="fill:#FFD05B;" cx="254" cy="280.4" r="98.8"/>
<circle style="fill:#F9B54C;" cx="254" cy="280.4" r="84"/>
<circle style="fill:#FFD05B;" cx="254" cy="280.4" r="73.6"/>
<path style="fill:#FFFFFF;" d="M254,275.2c-10.8,0-19.2-8.8-19.2-19.2c0-10.8,8.8-19.2,19.2-19.2l0,0l0,0c10.8,0,19.2,8.8,19.2,19.2
	c0,2.8,2.4,5.2,5.2,5.2c2.8,0,5.2-2.4,5.2-5.2c0-14.8-10.8-26.8-24.4-29.2v-3.6c0-2.8-2.4-5.2-5.2-5.2s-5.2,2.4-5.2,5.2v3.6
	c-14,2.4-24.4,14.8-24.4,29.2c0,16.4,13.2,30,30,30c10.8,0,19.2,8.8,19.2,19.2s-8.8,19.2-19.2,19.2c-10.8,0-19.2-8.8-19.2-19.2
	c0-2.8-2.4-5.2-5.2-5.2s-5.2,2.4-5.2,5.2c0,14.8,10.8,26.8,24.4,29.2v3.6c0,2.8,2.4,5.2,5.2,5.2c2.8,0,5.2-2.4,5.2-5.2v-3.6
	c14-2.4,24.4-14.8,24.4-29.2C284,288.8,270.4,275.2,254,275.2z"/>
<g>
</g>
<g>
</g>
<g>
</g>
<g>
</g>
<g>
</g>
<g>
</g>
<g>
</g>
<g>
</g>
<g>
</g>
<g>
</g>
<g>
</g>
<g>
</g>
<g>
</g>
<g>
</g>
<g>
</g>
</svg>
