<?xml version="1.0" encoding="iso-8859-1"?>
<!-- Generator: Adobe Illustrator 19.0.0, SVG Export Plug-In . SVG Version: 6.00 Build 0)  -->
<svg version="1.1" id="Layer_1" xmlns="http://www.w3.org/2000/svg" xmlns:xlink="http://www.w3.org/1999/xlink" x="0px" y="0px"
	 viewBox="0 0 508 508" style="enable-background:new 0 0 508 508;" xml:space="preserve">
<circle style="fill:#324A5E;" cx="254" cy="254" r="254"/>
<path style="fill:#FFFFFF;" d="M262,259.2v16h11.2v-16c0-26-17.6-48.4-42.8-54.4L146,183.6c-16-4-27.2-18.4-27.2-34.8
	c0-19.6,16-35.6,35.6-35.6h19.2V102h-19.2c-26,0-46.8,21.2-46.8,46.8c0,21.6,14.8,40.4,35.6,45.6l84.4,20.8
	C248,220.4,262,238.4,262,259.2z"/>
<path style="fill:#FF7058;" d="M388.8,77.2h-204c-6.4,0-11.6,5.2-11.6,11.6v38.4c0,6.4,5.2,11.6,11.6,11.6h204
	c6.4,0,11.6-5.2,11.6-11.6V88.8C400.4,82,395.2,77.2,388.8,77.2z"/>
<path style="fill:#54C0EB;" d="M267.6,270c-10.8,0-19.6,8.8-19.6,19.6v121.6c0,10.8,8.8,19.6,19.6,19.6c10.8,0,19.6-8.8,19.6-19.6
	V289.6C287.2,278.8,278.4,270,267.6,270z"/>
<g>
</g>
<g>
</g>
<g>
</g>
<g>
</g>
<g>
</g>
<g>
</g>
<g>
</g>
<g>
</g>
<g>
</g>
<g>
</g>
<g>
</g>
<g>
</g>
<g>
</g>
<g>
</g>
<g>
</g>
</svg>
