<?xml version="1.0" encoding="iso-8859-1"?>
<!-- Generator: Adobe Illustrator 19.0.0, SVG Export Plug-In . SVG Version: 6.00 Build 0)  -->
<svg version="1.1" id="Layer_1" xmlns="http://www.w3.org/2000/svg" xmlns:xlink="http://www.w3.org/1999/xlink" x="0px" y="0px"
	 viewBox="0 0 508 508" style="enable-background:new 0 0 508 508;" xml:space="preserve">
<circle style="fill:#324A5E;" cx="254" cy="254" r="254"/>
<path style="fill:#FFD05B;" d="M254,70.4c-7.6,0-13.6,6-13.6,13.6v423.6c4.4,0.4,8.8,0.4,13.6,0.4c4.8,0,8.8,0,13.6-0.4V84
	C267.6,76.4,261.6,70.4,254,70.4z"/>
<path style="fill:#FF7058;" d="M111.6,127.6C85.2,124.8,62,146,62,172.8s23.2,48,50,45.2l128.8-12.4v-66L111.6,127.6z"/>
<path style="fill:#4CDBC4;" d="M396.4,200.4l-128.8,12.4v66l128.8,12.4c26.8,2.4,50-18.4,50-45.2l0,0
	C446,218.8,422.8,198,396.4,200.4z"/>
<g>
	<path style="fill:#FFFFFF;" d="M124.4,172.8c0-9.6,7.2-17.2,16.4-17.2s16.4,7.6,16.4,17.2c0,9.6-7.2,17.2-16.4,17.2
		C132,190,124.4,182,124.4,172.8z M130.4,172.8c0,6.4,4.8,11.2,10.8,11.2s10.8-5.2,10.8-11.2c0-6.4-4.8-11.2-10.8-11.2
		C135.2,161.2,130.4,166.4,130.4,172.8z"/>
	<path style="fill:#FFFFFF;" d="M169.2,190c-1.6,0-2.8-1.2-2.8-2.8v-28.4c0-1.6,1.2-2.8,2.8-2.8s2.8,1.2,2.8,2.8V184h10
		c1.6,0,2.8,1.2,2.8,2.8s-1.2,2.8-2.8,2.8h-12.8V190z"/>
	<path style="fill:#FFFFFF;" d="M196.4,190c-1.6,0-2.8-1.2-2.8-2.8v-28.4c0-1.6,1.2-2.8,2.8-2.8h8.4c0,0,14.4,0,14.4,17.2
		s-14.4,17.2-14.4,17.2h-8.4V190z M199.2,184h5.6c0,0,2.4,0,4.4-1.6c2.8-2,4.4-5.2,4.4-10s-1.6-8.4-4.4-10c-2-1.2-4.4-1.2-4.4-1.2
		h-5.6V184z"/>
	<path style="fill:#FFFFFF;" d="M336.8,216.4c1.2,0,2,0.8,2,2s-1.2,2-2,2H326v6.4h8.8c1.2,0,2,0.8,2,2s-0.8,2-2,2H326v9.2
		c0,1.2-1.2,2-2,2c-1.2,0-2-0.8-2-2v-21.6c0-1.2,0.8-2,2-2H336.8z"/>
	<path style="fill:#FFFFFF;" d="M343.6,229.2c0-7.2,5.6-12.8,12.4-12.8s12.4,6,12.4,12.8c0,7.2-5.6,12.8-12.4,12.8
		S343.6,236.4,343.6,229.2z M348,229.2c0,4.8,3.6,8.8,8,8.8s8-4,8-8.8s-3.6-8.8-8-8.8S348,224.4,348,229.2z"/>
	<path style="fill:#FFFFFF;" d="M365.6,275.2c-1.2,0-2-0.8-2-2v-21.6c0-1.2,0.8-2,2-2s2,0.8,2,2v19.6h7.6c1.2,0,2,0.8,2,2
		s-1.2,2-2,2H365.6z"/>
	<path style="fill:#FFFFFF;" d="M400.4,273.2c0,1.2-0.8,2-2,2h-12c-1.2,0-2-0.8-2-2v-21.6c0-1.2,0.8-2,2-2h12c1.2,0,2,0.8,2,2
		s-0.8,2-2,2h-9.6v6.4h7.6c1.2,0,2,0.8,2,2s-0.8,2-2,2h-7.6v6.4h9.6C399.2,270.8,400.4,272,400.4,273.2z"/>
	<path style="fill:#FFFFFF;" d="M348,250.8c-0.4-0.8-1.2-1.6-2-1.6s-1.6,0.4-2,1.6l-8.4,21.6c-0.4,1.2,0,2.4,1.2,2.8
		c0.4,0,2,0.4,2.8-1.2l2-5.2h8.4l2,5.2c0.4,1.2,1.6,1.6,2.8,1.2c1.2-0.4,1.6-1.6,1.2-2.8L348,250.8z M343.2,264.4l2.8-6.8l2.8,6.8
		H343.2z"/>
	<path style="fill:#FFFFFF;" d="M386.8,230.8c2.4-1.2,4.4-4,4.4-6.8c0-4-3.2-7.6-7.6-7.6h-5.2c-1.2,0-2,0.8-2,2V240c0,1.2,0.8,2,2,2
		s2-0.8,2-2v-8.8h2l4.8,9.2c1.2,2,2.4,1.2,2.8,0.8c1.2-0.4,1.6-2,0.8-2.8L386.8,230.8z M380.4,220.4h3.2c1.6,0,3.2,1.6,3.2,3.2
		s-1.6,3.2-3.2,3.2h-3.2V220.4z"/>
	<path style="fill:#FFFFFF;" d="M105.6,170L105.6,170c-2.4,0-4.4-2-4.4-4.4s2-4.4,4.4-4.4c1.2,0,2.4,0.4,3.2,1.2
		c1.2,1.2,2.8,1.2,4,0s1.2-2.8,0-4c-2-2-4.4-3.2-7.2-3.2c-5.6,0-10,4.4-10,10s4.4,10,10,10c2.4,0,4.4,2,4.4,4.4s-2,4.4-4.4,4.4
		c-1.2,0-2.4-0.4-3.2-1.2c-1.2-1.2-2.8-1.2-4,0s-1.2,2.8,0,4c2,2,4.4,3.2,7.2,3.2c5.6,0,10-4.4,10-10S111.2,170,105.6,170z"/>
	<path style="fill:#FFFFFF;" d="M321.2,260L321.2,260c-1.6,0-3.2-1.6-3.2-3.2s1.6-3.2,3.2-3.2c0.8,0,1.6,0.4,2.4,1.2s2,0.8,3.2,0
		c0.8-0.8,0.8-2,0-3.2c-1.6-1.6-3.6-2.4-5.6-2.4c-4,0-7.6,3.2-7.6,7.6s3.2,7.6,7.6,7.6c1.6,0,3.2,1.6,3.2,3.2s-1.6,3.2-3.2,3.2
		c-0.8,0-1.6-0.4-2.4-1.2c-0.8-0.8-2-0.8-3.2,0c-0.8,0.8-0.8,2,0,3.2c1.6,1.6,3.6,2.4,5.6,2.4c4,0,7.6-3.2,7.6-7.6
		S325.6,260,321.2,260z"/>
</g>
<g>
</g>
<g>
</g>
<g>
</g>
<g>
</g>
<g>
</g>
<g>
</g>
<g>
</g>
<g>
</g>
<g>
</g>
<g>
</g>
<g>
</g>
<g>
</g>
<g>
</g>
<g>
</g>
<g>
</g>
</svg>
