<?xml version="1.0" encoding="iso-8859-1"?>
<!-- Generator: Adobe Illustrator 19.0.0, SVG Export Plug-In . SVG Version: 6.00 Build 0)  -->
<svg version="1.1" id="Layer_1" xmlns="http://www.w3.org/2000/svg" xmlns:xlink="http://www.w3.org/1999/xlink" x="0px" y="0px"
	 viewBox="0 0 508 508" style="enable-background:new 0 0 508 508;" xml:space="preserve">
<circle style="fill:#FD8469;" cx="254" cy="254" r="254"/>
<path style="fill:#FFFFFF;" d="M412.4,117.2H95.6c-5.6,0-10.4,4.8-10.4,10.4v252.8c0,5.6,4.8,10.4,10.4,10.4H412
	c5.6,0,10.4-4.8,10.4-10.4V127.6C422.8,122,418,117.2,412.4,117.2z"/>
<g>
	<path style="fill:#324A5E;" d="M162.8,167.6c0,1.2-1.2,2.4-2.4,2.4h-14c-1.6,0-2.4-1.2-2.4-2.4V142c0-1.2,1.2-2.4,2.4-2.4h14
		c1.6,0,2.4,1.2,2.4,2.4c0,1.6-1.2,2.4-2.4,2.4h-11.2v7.6h8.8c1.2,0,2.4,1.2,2.4,2.4s-1.2,2.4-2.4,2.4h-8.8v7.6h11.2
		C161.6,164.8,162.8,166,162.8,167.6z"/>
	<path style="fill:#324A5E;" d="M206.4,170c-1.6,0-2.4-1.2-2.4-2.4V142c0-1.2,1.2-2.4,2.4-2.4s2.4,1.2,2.4,2.4v22.8h8.8
		c1.2,0,2.4,1.2,2.4,2.4s-1.2,2.4-2.4,2.4h-11.2V170z"/>
	<path style="fill:#324A5E;" d="M262.8,167.6c0,1.2-1.2,2.4-2.4,2.4h-14c-1.6,0-2.4-1.2-2.4-2.4V142c0-1.2,1.2-2.4,2.4-2.4h14
		c1.6,0,2.4,1.2,2.4,2.4c0,1.6-1.2,2.4-2.4,2.4h-11.2v7.6h8.8c1.2,0,2.4,1.2,2.4,2.4s-1.2,2.4-2.4,2.4h-8.8v7.6h11.2
		C261.6,164.8,262.8,166,262.8,167.6z"/>
	<path style="fill:#324A5E;" d="M312.8,139.6c1.2,0,2.4,1.2,2.4,2.4c0,1.6-1.2,2.4-2.4,2.4h-5.2v22.8c0,1.2-1.2,2.4-2.4,2.4
		c-1.2,0-2.4-1.2-2.4-2.4v-22.8h-5.2c-1.2,0-2.4-1.2-2.4-2.4s1.2-2.4,2.4-2.4H312.8z"/>
	<path style="fill:#324A5E;" d="M362,139.6c1.2,0,2.4,1.2,2.4,2.4c0,1.6-1.2,2.4-2.4,2.4h-5.2v22.8c0,1.2-1.2,2.4-2.4,2.4
		c-1.2,0-2.4-1.2-2.4-2.4v-22.8h-5.2c-1.2,0-2.4-1.2-2.4-2.4s1.2-2.4,2.4-2.4H362z"/>
	<path style="fill:#324A5E;" d="M391.2,167.6c0,1.2-1.2,2.4-2.4,2.4h-14c-1.6,0-2.4-1.2-2.4-2.4V142c0-1.2,1.2-2.4,2.4-2.4h14
		c1.6,0,2.4,1.2,2.4,2.4c0,1.6-1.2,2.4-2.4,2.4h-11.2v7.6h8.8c1.2,0,2.4,1.2,2.4,2.4s-1.2,2.4-2.4,2.4h-8.8v7.6h11.2
		C390.4,164.8,391.2,166,391.2,167.6z"/>
</g>
<rect x="100" y="183.2" style="fill:#FFD05B;" width="307.6" height="4.8"/>
<g>
	<rect x="209.6" y="206" style="fill:#E6E9EE;" width="88.4" height="4.8"/>
	<rect x="319.6" y="206" style="fill:#E6E9EE;" width="88.4" height="4.8"/>
</g>
<rect x="100" y="206" style="fill:#4CDBC4;" width="88.4" height="58"/>
<g>
	<rect x="209.6" y="219.2" style="fill:#E6E9EE;" width="88.4" height="4.8"/>
	<rect x="319.6" y="219.2" style="fill:#E6E9EE;" width="88.4" height="4.8"/>
	<rect x="209.6" y="232.4" style="fill:#E6E9EE;" width="88.4" height="4.8"/>
	<rect x="319.6" y="232.4" style="fill:#E6E9EE;" width="88.4" height="4.8"/>
	<rect x="209.6" y="245.6" style="fill:#E6E9EE;" width="88.4" height="4.8"/>
	<rect x="319.6" y="245.6" style="fill:#E6E9EE;" width="88.4" height="4.8"/>
	<rect x="209.6" y="258.8" style="fill:#E6E9EE;" width="88.4" height="4.8"/>
	<rect x="319.6" y="258.8" style="fill:#E6E9EE;" width="88.4" height="4.8"/>
	<rect x="100" y="272" style="fill:#E6E9EE;" width="88.4" height="4.8"/>
	<rect x="209.6" y="272" style="fill:#E6E9EE;" width="88.4" height="4.8"/>
	<rect x="319.6" y="272" style="fill:#E6E9EE;" width="88.4" height="4.8"/>
	<rect x="100" y="285.6" style="fill:#E6E9EE;" width="88.4" height="4.8"/>
	<rect x="209.6" y="285.6" style="fill:#E6E9EE;" width="88.4" height="4.8"/>
	<rect x="319.6" y="285.6" style="fill:#E6E9EE;" width="88.4" height="4.8"/>
	<rect x="100" y="298.8" style="fill:#E6E9EE;" width="88.4" height="4.8"/>
	<rect x="209.6" y="298.8" style="fill:#E6E9EE;" width="88.4" height="4.8"/>
	<rect x="319.6" y="298.8" style="fill:#E6E9EE;" width="88.4" height="4.8"/>
	<rect x="100" y="312" style="fill:#E6E9EE;" width="88.4" height="4.8"/>
	<rect x="209.6" y="312" style="fill:#E6E9EE;" width="88.4" height="4.8"/>
	<rect x="319.6" y="312" style="fill:#E6E9EE;" width="88.4" height="4.8"/>
	<rect x="100" y="325.2" style="fill:#E6E9EE;" width="88.4" height="4.8"/>
	<rect x="209.6" y="325.2" style="fill:#E6E9EE;" width="88.4" height="4.8"/>
	<rect x="319.6" y="325.2" style="fill:#E6E9EE;" width="88.4" height="4.8"/>
	<rect x="100" y="338.4" style="fill:#E6E9EE;" width="88.4" height="4.8"/>
	<rect x="209.6" y="338.4" style="fill:#E6E9EE;" width="88.4" height="4.8"/>
	<rect x="319.6" y="338.4" style="fill:#E6E9EE;" width="88.4" height="4.8"/>
	<rect x="100" y="351.6" style="fill:#E6E9EE;" width="88.4" height="4.8"/>
	<rect x="209.6" y="351.6" style="fill:#E6E9EE;" width="88.4" height="4.8"/>
	<rect x="319.6" y="351.6" style="fill:#E6E9EE;" width="88.4" height="4.8"/>
</g>
<rect x="319.6" y="258.8" style="fill:#4CDBC4;" width="88.4" height="58"/>
<g>
	<path style="fill:#324A5E;" d="M185.6,141.2c-0.4-0.8-1.2-1.6-2.4-1.6s-2,0.8-2.4,1.6l-9.6,25.2c-0.4,1.2,0,2.8,1.6,3.2
		c0.4,0,2.4,0.8,3.2-1.6l2.4-6h10l2.4,6c0.4,1.2,2,2,3.2,1.6s2-2,1.6-3.2L185.6,141.2z M180.4,157.2l3.2-8l3.2,8H180.4z"/>
	<path style="fill:#324A5E;" d="M332.4,141.2c-0.4-0.8-1.2-1.6-2.4-1.6c-1.2,0-2,0.8-2.4,1.6l-9.6,25.2c-0.4,1.2,0,2.8,1.6,3.2
		c0.4,0,2.4,0.8,3.2-1.6l2.4-6h10l2.4,6c0.4,1.2,2,2,3.2,1.6s2-2,1.6-3.2L332.4,141.2z M326.8,157.2l3.2-8l3.2,8H326.8z"/>
	<path style="fill:#324A5E;" d="M129.6,156.4c2.8-1.6,5.2-4.4,5.2-8c0-4.8-4-8.8-8.8-8.8h-6c-1.2,0-2.4,1.2-2.4,2.4v25.2
		c0,1.2,1.2,2.4,2.4,2.4s2.4-1.2,2.4-2.4v-10h2L130,168c1.2,2.4,3.2,1.2,3.2,1.2c1.2-0.8,1.6-2,1.2-3.2L129.6,156.4z M122,144.8h3.6
		c2,0,3.6,1.6,3.6,3.6s-1.6,3.6-3.6,3.6H122V144.8z"/>
	<path style="fill:#324A5E;" d="M280.4,152.4L280.4,152.4c-2,0-4-1.6-4-4c0-2,1.6-4,4-4c1.2,0,2,0.4,2.8,1.2c0.8,1.2,2.8,1.2,3.6,0
		c1.2-0.8,1.2-2.8,0-3.6c-1.6-1.6-4-2.8-6.4-2.8c-4.8,0-8.8,4-8.8,8.8s4,8.8,8.8,8.8c2,0,4,1.6,4,4c0,2-1.6,4-4,4
		c-1.2,0-2-0.4-2.8-1.2c-0.8-1.2-2.8-1.2-3.6,0c-1.2,0.8-1.2,2.8,0,3.6c1.6,1.6,4,2.8,6.4,2.8c4.8,0,8.8-4,8.8-8.8
		C289.6,156.4,285.6,152.4,280.4,152.4z"/>
</g>
<g>
</g>
<g>
</g>
<g>
</g>
<g>
</g>
<g>
</g>
<g>
</g>
<g>
</g>
<g>
</g>
<g>
</g>
<g>
</g>
<g>
</g>
<g>
</g>
<g>
</g>
<g>
</g>
<g>
</g>
</svg>
