<?xml version="1.0" encoding="iso-8859-1"?>
<!-- Generator: Adobe Illustrator 19.0.0, SVG Export Plug-In . SVG Version: 6.00 Build 0)  -->
<svg version="1.1" id="Layer_1" xmlns="http://www.w3.org/2000/svg" xmlns:xlink="http://www.w3.org/1999/xlink" x="0px" y="0px"
	 viewBox="0 0 508 508" style="enable-background:new 0 0 508 508;" xml:space="preserve">
<circle style="fill:#FD8469;" cx="254" cy="254" r="254"/>
<path style="fill:#FFFFFF;" d="M162.4,236.8l-55.6,55.6c-30,30-30,78.8,0,108.8s78.8,30,108.8,0l55.6-55.6L162.4,236.8z"/>
<path style="fill:#E6E9EE;" d="M208.8,283.2C164,328.8,132,367.6,136,372c4,4,43.2-28,88.4-72.8L208.8,283.2z"/>
<rect x="188.062" y="210.724" transform="matrix(-0.7071 0.7071 -0.7071 -0.7071 645.6015 176.4315)" style="fill:#324A5E;" width="196.398" height="22.4"/>
<path style="fill:#FFD05B;" d="M421.2,150.4l-63.6-63.6c-3.2-3.2-8-3.2-11.2,0c-20.8,20.8-20.8,54,0,74.8s54,20.8,74.8,0
	C424.4,158.4,424.4,153.2,421.2,150.4z M357.6,150.4c-12.4-12.4-14-31.6-5.2-46l51.2,51.2C389.6,164.4,370.4,162.8,357.6,150.4z"/>
<g>
</g>
<g>
</g>
<g>
</g>
<g>
</g>
<g>
</g>
<g>
</g>
<g>
</g>
<g>
</g>
<g>
</g>
<g>
</g>
<g>
</g>
<g>
</g>
<g>
</g>
<g>
</g>
<g>
</g>
</svg>
