<?xml version="1.0" encoding="iso-8859-1"?>
<!-- Generator: Adobe Illustrator 19.0.0, SVG Export Plug-In . SVG Version: 6.00 Build 0)  -->
<svg version="1.1" id="Layer_1" xmlns="http://www.w3.org/2000/svg" xmlns:xlink="http://www.w3.org/1999/xlink" x="0px" y="0px"
	 viewBox="0 0 508 508" style="enable-background:new 0 0 508 508;" xml:space="preserve">
<circle style="fill:#324A5E;" cx="254" cy="254" r="254"/>
<path style="fill:#FF7058;" d="M401.2,376H106.8V168.4c0-39.2,31.6-70.8,70.8-70.8h153.2c39.2,0,70.8,31.6,70.8,70.8V376H401.2z"/>
<path style="fill:#F1543F;" d="M398,211.2c-30.4,0-55.2,24.8-55.2,55.2c0,0.4,0,0.4,0,0.8v33.2h-178V266l0,0l0,0
	c0-30.4-24.8-55.2-55.2-55.2S54.8,235.6,54.8,266c0,29.2,22.8,53.2,51.6,54.8v78.4l0,0v22.4h48.4l9.6-22.4h178l13.6,22.4h44.4v-22.4
	v-78.4c28.8-1.6,51.6-25.6,51.6-54.8C453.2,235.6,428.4,211.2,398,211.2z"/>
<path style="fill:#2B3B4E;" d="M63.6,422C110,474.8,178,508,254,508s144-33.2,190.4-86H63.6z"/>
<polygon style="fill:#F1543F;" points="308,174 328,169.6 308,165.2 313.2,157.2 305.2,162.4 301.2,142.4 296.8,162.4 288.8,157.2 
	294,165.2 274,169.6 294,174 288.8,182 296.8,176.8 301.2,196.8 305.2,176.8 313.2,182 "/>
<circle style="fill:#FF7058;" cx="301.2" cy="169.6" r="6"/>
<polygon style="fill:#F1543F;" points="217.2,174 237.2,169.6 217.2,165.2 222.4,157.2 214.4,162.4 210.4,142.4 206,162.4 
	198,157.2 203.2,165.2 183.2,169.6 203.2,174 198,182 206,176.8 210.4,196.8 214.4,176.8 222.4,182 "/>
<circle style="fill:#FF7058;" cx="210.4" cy="169.6" r="6"/>
<polygon style="fill:#F1543F;" points="308,249.6 328,245.2 308,241.2 313.2,233.2 305.2,238.4 301.2,218 296.8,238.4 288.8,233.2 
	294,241.2 274,245.2 294,249.6 288.8,257.6 296.8,252.4 301.2,272.4 305.2,252.4 313.2,257.6 "/>
<circle style="fill:#FF7058;" cx="301.2" cy="245.2" r="6"/>
<polygon style="fill:#F1543F;" points="217.2,249.6 237.2,245.2 217.2,241.2 222.4,233.2 214.4,238.4 210.4,218 206,238.4 
	198,233.2 203.2,241.2 183.2,245.2 203.2,249.6 198,257.6 206,252.4 210.4,272.4 214.4,252.4 222.4,257.6 "/>
<g>
	<circle style="fill:#FF7058;" cx="210.4" cy="245.2" r="6"/>
	<circle style="fill:#FF7058;" cx="398" cy="266" r="29.2"/>
	<circle style="fill:#FF7058;" cx="110" cy="266" r="29.2"/>
</g>
<g>
</g>
<g>
</g>
<g>
</g>
<g>
</g>
<g>
</g>
<g>
</g>
<g>
</g>
<g>
</g>
<g>
</g>
<g>
</g>
<g>
</g>
<g>
</g>
<g>
</g>
<g>
</g>
<g>
</g>
</svg>
