<?xml version="1.0" encoding="iso-8859-1"?>
<!-- Generator: Adobe Illustrator 19.0.0, SVG Export Plug-In . SVG Version: 6.00 Build 0)  -->
<svg version="1.1" id="Layer_1" xmlns="http://www.w3.org/2000/svg" xmlns:xlink="http://www.w3.org/1999/xlink" x="0px" y="0px"
	 viewBox="0 0 508 508" style="enable-background:new 0 0 508 508;" xml:space="preserve">
<circle style="fill:#84DBFF;" cx="254" cy="254" r="254"/>
<path style="fill:#324A5E;" d="M362,75.2H146c-15.2,0-27.2,12-27.2,27.2v302.8c0,15.2,12,27.2,27.2,27.2h216
	c15.2,0,27.2-12,27.2-27.2V102.4C389.2,87.6,377.2,75.2,362,75.2z"/>
<rect x="128.4" y="117.6" style="fill:#FFFFFF;" width="251.6" height="253.2"/>
<g>
	<circle style="fill:#2B3B4E;" cx="254" cy="401.2" r="18"/>
	<path style="fill:#2B3B4E;" d="M286,102.4h-64c-2.8,0-5.6-2.4-5.6-5.6l0,0c0-2.8,2.4-5.6,5.6-5.6h64c2.8,0,5.6,2.4,5.6,5.6l0,0
		C291.6,100,289.2,102.4,286,102.4z"/>
</g>
<polygon style="fill:#E6E9EE;" points="332.8,210 332.8,322.8 175.2,322.8 175.2,210 254,161.2 "/>
<rect x="175.2" y="302.8" style="fill:#CED5E0;" width="157.6" height="19.6"/>
<path style="fill:#FF7058;" d="M159.6,218.4c-2,0-4.4-1.2-5.6-3.2c-2-3.2-0.8-7.2,2-8.8l94.8-58.4c2-1.2,4.8-1.2,6.8,0l94.4,58
	c3.2,2,4,6,2,8.8c-2,3.2-6,4-8.8,2L254,161.2l-91.2,56C162,218,160.8,218.4,159.6,218.4z"/>
<rect x="225.2" y="236.8" style="fill:#324A5E;" width="58" height="85.6"/>
<rect x="231.6" y="243.2" style="fill:#84DBFF;" width="45.2" height="38.4"/>
<g>
</g>
<g>
</g>
<g>
</g>
<g>
</g>
<g>
</g>
<g>
</g>
<g>
</g>
<g>
</g>
<g>
</g>
<g>
</g>
<g>
</g>
<g>
</g>
<g>
</g>
<g>
</g>
<g>
</g>
</svg>
