<?xml version="1.0" encoding="iso-8859-1"?>
<!-- Generator: Adobe Illustrator 19.0.0, SVG Export Plug-In . SVG Version: 6.00 Build 0)  -->
<svg version="1.1" id="Layer_1" xmlns="http://www.w3.org/2000/svg" xmlns:xlink="http://www.w3.org/1999/xlink" x="0px" y="0px"
	 viewBox="0 0 508 508" style="enable-background:new 0 0 508 508;" xml:space="preserve">
<circle style="fill:#324A5E;" cx="254" cy="254" r="254"/>
<rect x="245.963" y="99.206" transform="matrix(-0.9533 -0.302 0.302 -0.9533 536.3484 506.9352)" style="fill:#2C9984;" width="122.799" height="225.598"/>
<path style="fill:#FFFFFF;" d="M237.2,274.4L286,120c9.6,3.2,20-2.4,22.8-12l56.4,18c-3.2,9.6,2.4,20,12,22.8l-48.8,154.8
	c-9.6-3.2-20,2.4-22.8,12l-56.4-18C252.4,288,246.8,277.6,237.2,274.4z"/>
<circle style="fill:#2C9984;" cx="307.2" cy="212" r="38.8"/>
<path style="fill:#FFFFFF;" d="M304.8,211.2c-1.6,5.2-7.2,8-12.4,6.4c-5.2-1.6-8-7.2-6.4-12l0,0l0,0c1.6-5.2,7.2-8,12-6.4
	c1.2,0.4,2.8-0.4,3.2-1.6c0.4-1.2-0.4-2.8-1.6-3.2c-7.2-2.4-14.4,1.2-17.6,7.2l-1.6-0.4c-1.2-0.4-2.8,0.4-3.2,1.6
	c-0.4,1.2,0.4,2.8,1.6,3.2l1.6,0.4c-0.8,7.2,3.2,14,10.4,16.4c8,2.4,16.4-2,18.8-9.6c1.6-5.2,7.2-8,12.4-6.4c5.2,1.6,8,7.2,6.4,12.4
	s-7.2,8-12.4,6.4c-1.2-0.4-2.8,0.4-3.2,1.6c-0.4,1.2,0.4,2.8,1.6,3.2c7.2,2.4,14.4-1.2,17.6-7.2l1.6,0.4c1.2,0.4,2.8-0.4,3.2-1.6
	c0.4-1.2-0.4-2.8-1.6-3.2l-1.2-1.2c0.8-7.2-3.2-14-10.4-16.4C315.6,198.8,307.2,203.2,304.8,211.2z"/>
<rect x="142.741" y="88.863" transform="matrix(-0.9396 0.3423 -0.3423 -0.9396 464.9809 321.2693)" style="fill:#4CDBC4;" width="122.801" height="225.602"/>
<path style="fill:#FFFFFF;" d="M187.2,294l-55.6-152c9.6-3.6,14.4-14,10.8-23.6l55.6-20c3.6,9.6,14,14.4,23.6,10.8l55.6,152
	c-9.6,3.6-14.4,14-10.8,23.6l-55.6,20C207.2,295.6,196.8,290.8,187.2,294z"/>
<circle style="fill:#4CDBC4;" cx="204.4" cy="202" r="38.8"/>
<path style="fill:#FFFFFF;" d="M202,202.8c2,5.2-0.8,10.8-6,12.4c-5.2,2-10.4-0.8-12.4-5.6l0,0l0,0c-1.6-5.2,0.8-10.4,6-12.4
	c1.2-0.4,2-2,1.6-3.2s-2-2-3.2-1.6c-6.8,2.4-10.8,9.6-9.6,16.8l-1.6,0.8c-1.2,0.4-2,2-1.6,3.2s2,2,3.2,1.6l1.6-0.8
	c3.6,6,11.2,9.2,18,6.4c7.6-2.8,11.6-11.6,8.8-19.2c-2-5.2,0.8-10.8,6-12.4c5.2-2,10.8,0.8,12.4,6c2,5.2-0.8,10.8-6,12.4
	c-1.2,0.4-2,2-1.6,3.2s2,2,3.2,1.6c6.8-2.4,10.8-9.6,9.6-16.8l1.6-0.8c1.2-0.4,2-2,1.6-3.2s-2-2-3.2-1.6l-1.6,0.4
	c-3.6-6-11.2-9.2-18-6.4C203.2,186.4,199.2,194.8,202,202.8z"/>
<path style="fill:#E6E9EE;" d="M378.8,433.2H130.4c-6.4,0-11.6-5.2-11.6-11.6V246c0-6.4,5.2-11.6,11.6-11.6h248.4
	c6.4,0,11.6,5.2,11.6,11.6v175.2C390.4,428,385.2,433.2,378.8,433.2z"/>
<g>
	<path style="fill:#CED5E0;" d="M139.6,416.8h-4.4v-4.4c0-0.8,0.8-1.6,1.6-1.6s1.6,0.8,1.6,1.6v1.6h1.6c0.8,0,1.6,0.8,1.6,1.6
		S140.4,416.8,139.6,416.8z"/>
	<path style="fill:#CED5E0;" d="M136.4,408c-0.8,0-1.6-0.8-1.6-1.6v-6c0-0.8,0.8-1.6,1.6-1.6s1.6,0.8,1.6,1.6v6
		C138,407.2,137.2,408,136.4,408z M136.4,396.4c-0.8,0-1.6-0.8-1.6-1.6v-6c0-0.8,0.8-1.6,1.6-1.6s1.6,0.8,1.6,1.6v6
		C138,395.6,137.2,396.4,136.4,396.4z M136.4,384.8c-0.8,0-1.6-0.8-1.6-1.6v-6c0-0.8,0.8-1.6,1.6-1.6s1.6,0.8,1.6,1.6v6
		C138,384,137.2,384.8,136.4,384.8z M136.4,373.2c-0.8,0-1.6-0.8-1.6-1.6v-6c0-0.8,0.8-1.6,1.6-1.6s1.6,0.8,1.6,1.6v6
		C138,372.4,137.2,373.2,136.4,373.2z M136.4,361.6c-0.8,0-1.6-0.8-1.6-1.6v-6c0-0.8,0.8-1.6,1.6-1.6s1.6,0.8,1.6,1.6v6
		C138,360.8,137.2,361.6,136.4,361.6z M136.4,350c-0.8,0-1.6-0.8-1.6-1.6v-6c0-0.8,0.8-1.6,1.6-1.6s1.6,0.8,1.6,1.6v6
		C138,349.2,137.2,350,136.4,350z M136.4,338c-0.8,0-1.6-0.8-1.6-1.6v-6c0-0.8,0.8-1.6,1.6-1.6s1.6,0.8,1.6,1.6v6
		C138,337.6,137.2,338,136.4,338z M136.4,326.4c-0.8,0-1.6-0.8-1.6-1.6v-6c0-0.8,0.8-1.6,1.6-1.6s1.6,0.8,1.6,1.6v6
		C138,326,137.2,326.4,136.4,326.4z M136.4,314.8c-0.8,0-1.6-0.8-1.6-1.6v-6c0-0.8,0.8-1.6,1.6-1.6s1.6,0.8,1.6,1.6v6
		C138,314.4,137.2,314.8,136.4,314.8z M136.4,303.2c-0.8,0-1.6-0.8-1.6-1.6v-6c0-0.8,0.8-1.6,1.6-1.6s1.6,0.8,1.6,1.6v6
		C138,302.8,137.2,303.2,136.4,303.2z M136.4,291.6c-0.8,0-1.6-0.8-1.6-1.6v-6c0-0.8,0.8-1.6,1.6-1.6s1.6,0.8,1.6,1.6v6
		C138,290.8,137.2,291.6,136.4,291.6z M136.4,280c-0.8,0-1.6-0.8-1.6-1.6v-6c0-0.8,0.8-1.6,1.6-1.6s1.6,0.8,1.6,1.6v6
		C138,279.2,137.2,280,136.4,280z M136.4,268.4c-0.8,0-1.6-0.8-1.6-1.6v-6c0-0.8,0.8-1.6,1.6-1.6s1.6,0.8,1.6,1.6v6
		C138,267.6,137.2,268.4,136.4,268.4z"/>
	<path style="fill:#CED5E0;" d="M136.4,256.8c-0.8,0-1.6-0.8-1.6-1.6v-4.4h4.4c0.8,0,1.6,0.8,1.6,1.6s-0.8,1.6-1.6,1.6H138v1.6
		C138,256,137.2,256.8,136.4,256.8z"/>
	<path style="fill:#CED5E0;" d="M363.6,253.6H358c-0.8,0-1.6-0.8-1.6-1.6s0.8-1.6,1.6-1.6h6c0.8,0,1.6,0.8,1.6,1.6
		C365.2,253.2,364.4,253.6,363.6,253.6z M352,253.6h-6c-0.8,0-1.6-0.8-1.6-1.6s0.8-1.6,1.6-1.6h6c0.8,0,1.6,0.8,1.6,1.6
		C353.6,253.2,352.8,253.6,352,253.6z M340,253.6h-6c-0.8,0-1.6-0.8-1.6-1.6s0.8-1.6,1.6-1.6h6c0.8,0,1.6,0.8,1.6,1.6
		C341.6,253.2,340.8,253.6,340,253.6z M328.4,253.6h-6c-0.8,0-1.6-0.8-1.6-1.6s0.8-1.6,1.6-1.6h6c0.8,0,1.6,0.8,1.6,1.6
		C330,253.2,329.2,253.6,328.4,253.6z M316.4,253.6h-6c-0.8,0-1.6-0.8-1.6-1.6s0.8-1.6,1.6-1.6h6c0.8,0,1.6,0.8,1.6,1.6
		C318,253.2,317.2,253.6,316.4,253.6z M304.8,253.6h-6c-0.8,0-1.6-0.8-1.6-1.6s0.8-1.6,1.6-1.6h6c0.8,0,1.6,0.8,1.6,1.6
		C306.4,253.2,305.6,253.6,304.8,253.6z M292.8,253.6h-6c-0.8,0-1.6-0.8-1.6-1.6s0.8-1.6,1.6-1.6h6c0.8,0,1.6,0.8,1.6,1.6
		C294.4,253.2,293.6,253.6,292.8,253.6z M281.2,253.6h-6c-0.8,0-1.6-0.8-1.6-1.6s0.8-1.6,1.6-1.6h6c0.8,0,1.6,0.8,1.6,1.6
		C282.8,253.2,282,253.6,281.2,253.6z M269.2,253.6h-6c-0.8,0-1.6-0.8-1.6-1.6s0.8-1.6,1.6-1.6h6c0.8,0,1.6,0.8,1.6,1.6
		C270.8,253.2,270,253.6,269.2,253.6z M257.6,253.6h-6c-0.8,0-1.6-0.8-1.6-1.6s0.8-1.6,1.6-1.6h6c0.8,0,1.6,0.8,1.6,1.6
		C259.2,253.2,258.4,253.6,257.6,253.6z M245.6,253.6h-6c-0.8,0-1.6-0.8-1.6-1.6s0.8-1.6,1.6-1.6h6c0.8,0,1.6,0.8,1.6,1.6
		C247.2,253.2,246.4,253.6,245.6,253.6z M234,253.6h-6c-0.8,0-1.6-0.8-1.6-1.6s0.8-1.6,1.6-1.6h6c0.8,0,1.6,0.8,1.6,1.6
		C235.6,253.2,234.8,253.6,234,253.6z M222,253.6h-6c-0.8,0-1.6-0.8-1.6-1.6s0.8-1.6,1.6-1.6h6c0.8,0,1.6,0.8,1.6,1.6
		C223.6,253.2,222.8,253.6,222,253.6z M210.4,253.6h-6c-0.8,0-1.6-0.8-1.6-1.6s0.8-1.6,1.6-1.6h6c0.8,0,1.6,0.8,1.6,1.6
		C212,253.2,211.2,253.6,210.4,253.6z M198.4,253.6h-6c-0.8,0-1.6-0.8-1.6-1.6s0.8-1.6,1.6-1.6h6c0.8,0,1.6,0.8,1.6,1.6
		C200,253.2,199.2,253.6,198.4,253.6z M186.8,253.6h-6c-0.8,0-1.6-0.8-1.6-1.6s0.8-1.6,1.6-1.6h6c0.8,0,1.6,0.8,1.6,1.6
		C188.4,253.2,187.6,253.6,186.8,253.6z M174.8,253.6h-6c-0.8,0-1.6-0.8-1.6-1.6s0.8-1.6,1.6-1.6h6c0.8,0,1.6,0.8,1.6,1.6
		C176.4,253.2,175.6,253.6,174.8,253.6z M163.2,253.6h-6c-0.8,0-1.6-0.8-1.6-1.6s0.8-1.6,1.6-1.6h6c0.8,0,1.6,0.8,1.6,1.6
		C164.4,253.2,164,253.6,163.2,253.6z M151.2,253.6h-6c-0.8,0-1.6-0.8-1.6-1.6s0.8-1.6,1.6-1.6h6c0.8,0,1.6,0.8,1.6,1.6
		C152.8,253.2,152,253.6,151.2,253.6z"/>
	<path style="fill:#CED5E0;" d="M372.8,256.8c-0.8,0-1.6-0.8-1.6-1.6v-1.6h-1.6c-0.8,0-1.6-0.8-1.6-1.6s0.8-1.6,1.6-1.6h4.4v4.4
		C374,256,373.6,256.8,372.8,256.8z"/>
	<path style="fill:#CED5E0;" d="M372.8,408c-0.8,0-1.6-0.8-1.6-1.6v-6c0-0.8,0.8-1.6,1.6-1.6c0.8,0,1.6,0.8,1.6,1.6v6
		C374,407.2,373.6,408,372.8,408z M372.8,396.4c-0.8,0-1.6-0.8-1.6-1.6v-6c0-0.8,0.8-1.6,1.6-1.6c0.8,0,1.6,0.8,1.6,1.6v6
		C374,395.6,373.6,396.4,372.8,396.4z M372.8,384.8c-0.8,0-1.6-0.8-1.6-1.6v-6c0-0.8,0.8-1.6,1.6-1.6c0.8,0,1.6,0.8,1.6,1.6v6
		C374,384,373.6,384.8,372.8,384.8z M372.8,373.2c-0.8,0-1.6-0.8-1.6-1.6v-6c0-0.8,0.8-1.6,1.6-1.6c0.8,0,1.6,0.8,1.6,1.6v6
		C374,372.4,373.6,373.2,372.8,373.2z M372.8,361.6c-0.8,0-1.6-0.8-1.6-1.6v-6c0-0.8,0.8-1.6,1.6-1.6c0.8,0,1.6,0.8,1.6,1.6v6
		C374,360.8,373.6,361.6,372.8,361.6z M372.8,350c-0.8,0-1.6-0.8-1.6-1.6v-6c0-0.8,0.8-1.6,1.6-1.6c0.8,0,1.6,0.8,1.6,1.6v6
		C374,349.2,373.6,350,372.8,350z M372.8,338c-0.8,0-1.6-0.8-1.6-1.6v-6c0-0.8,0.8-1.6,1.6-1.6c0.8,0,1.6,0.8,1.6,1.6v6
		C374,337.6,373.6,338,372.8,338z M372.8,326.4c-0.8,0-1.6-0.8-1.6-1.6v-6c0-0.8,0.8-1.6,1.6-1.6c0.8,0,1.6,0.8,1.6,1.6v6
		C374,326,373.6,326.4,372.8,326.4z M372.8,314.8c-0.8,0-1.6-0.8-1.6-1.6v-6c0-0.8,0.8-1.6,1.6-1.6c0.8,0,1.6,0.8,1.6,1.6v6
		C374,314.4,373.6,314.8,372.8,314.8z M372.8,303.2c-0.8,0-1.6-0.8-1.6-1.6v-6c0-0.8,0.8-1.6,1.6-1.6c0.8,0,1.6,0.8,1.6,1.6v6
		C374,302.8,373.6,303.2,372.8,303.2z M372.8,291.6c-0.8,0-1.6-0.8-1.6-1.6v-6c0-0.8,0.8-1.6,1.6-1.6c0.8,0,1.6,0.8,1.6,1.6v6
		C374,290.8,373.6,291.6,372.8,291.6z M372.8,280c-0.8,0-1.6-0.8-1.6-1.6v-6c0-0.8,0.8-1.6,1.6-1.6c0.8,0,1.6,0.8,1.6,1.6v6
		C374,279.2,373.6,280,372.8,280z M372.8,268.4c-0.8,0-1.6-0.8-1.6-1.6v-6c0-0.8,0.8-1.6,1.6-1.6c0.8,0,1.6,0.8,1.6,1.6v6
		C374,267.6,373.6,268.4,372.8,268.4z"/>
	<path style="fill:#CED5E0;" d="M374,416.8h-4.4c-0.8,0-1.6-0.8-1.6-1.6s0.8-1.6,1.6-1.6h1.6V412c0-0.8,0.8-1.6,1.6-1.6
		c0.8,0,1.6,0.8,1.6,1.6v4.8H374z"/>
	<path style="fill:#CED5E0;" d="M363.6,416.8H358c-0.8,0-1.6-0.8-1.6-1.6s0.8-1.6,1.6-1.6h6c0.8,0,1.6,0.8,1.6,1.6
		S364.4,416.8,363.6,416.8z M352,416.8h-6c-0.8,0-1.6-0.8-1.6-1.6s0.8-1.6,1.6-1.6h6c0.8,0,1.6,0.8,1.6,1.6S352.8,416.8,352,416.8z
		 M340,416.8h-6c-0.8,0-1.6-0.8-1.6-1.6s0.8-1.6,1.6-1.6h6c0.8,0,1.6,0.8,1.6,1.6S340.8,416.8,340,416.8z M328.4,416.8h-6
		c-0.8,0-1.6-0.8-1.6-1.6s0.8-1.6,1.6-1.6h6c0.8,0,1.6,0.8,1.6,1.6S329.2,416.8,328.4,416.8z M316.4,416.8h-6
		c-0.8,0-1.6-0.8-1.6-1.6s0.8-1.6,1.6-1.6h6c0.8,0,1.6,0.8,1.6,1.6S317.2,416.8,316.4,416.8z M304.8,416.8h-6
		c-0.8,0-1.6-0.8-1.6-1.6s0.8-1.6,1.6-1.6h6c0.8,0,1.6,0.8,1.6,1.6S305.6,416.8,304.8,416.8z M292.8,416.8h-6
		c-0.8,0-1.6-0.8-1.6-1.6s0.8-1.6,1.6-1.6h6c0.8,0,1.6,0.8,1.6,1.6S293.6,416.8,292.8,416.8z M281.2,416.8h-6
		c-0.8,0-1.6-0.8-1.6-1.6s0.8-1.6,1.6-1.6h6c0.8,0,1.6,0.8,1.6,1.6S282,416.8,281.2,416.8z M269.2,416.8h-6c-0.8,0-1.6-0.8-1.6-1.6
		s0.8-1.6,1.6-1.6h6c0.8,0,1.6,0.8,1.6,1.6S270,416.8,269.2,416.8z M257.6,416.8h-6c-0.8,0-1.6-0.8-1.6-1.6s0.8-1.6,1.6-1.6h6
		c0.8,0,1.6,0.8,1.6,1.6S258.4,416.8,257.6,416.8z M245.6,416.8h-6c-0.8,0-1.6-0.8-1.6-1.6s0.8-1.6,1.6-1.6h6c0.8,0,1.6,0.8,1.6,1.6
		S246.4,416.8,245.6,416.8z M234,416.8h-6c-0.8,0-1.6-0.8-1.6-1.6s0.8-1.6,1.6-1.6h6c0.8,0,1.6,0.8,1.6,1.6S234.8,416.8,234,416.8z
		 M222,416.8h-6c-0.8,0-1.6-0.8-1.6-1.6s0.8-1.6,1.6-1.6h6c0.8,0,1.6,0.8,1.6,1.6S222.8,416.8,222,416.8z M210.4,416.8h-6
		c-0.8,0-1.6-0.8-1.6-1.6s0.8-1.6,1.6-1.6h6c0.8,0,1.6,0.8,1.6,1.6S211.2,416.8,210.4,416.8z M198.4,416.8h-6
		c-0.8,0-1.6-0.8-1.6-1.6s0.8-1.6,1.6-1.6h6c0.8,0,1.6,0.8,1.6,1.6S199.2,416.8,198.4,416.8z M186.8,416.8h-6
		c-0.8,0-1.6-0.8-1.6-1.6s0.8-1.6,1.6-1.6h6c0.8,0,1.6,0.8,1.6,1.6S187.6,416.8,186.8,416.8z M174.8,416.8h-6
		c-0.8,0-1.6-0.8-1.6-1.6s0.8-1.6,1.6-1.6h6c0.8,0,1.6,0.8,1.6,1.6S175.6,416.8,174.8,416.8z M163.2,416.8h-6
		c-0.8,0-1.6-0.8-1.6-1.6s0.8-1.6,1.6-1.6h6c0.8,0,1.6,0.8,1.6,1.6S164,416.8,163.2,416.8z M151.2,416.8h-6c-0.8,0-1.6-0.8-1.6-1.6
		s0.8-1.6,1.6-1.6h6c0.8,0,1.6,0.8,1.6,1.6S152,416.8,151.2,416.8z"/>
</g>
<path style="fill:#ACB3BA;" d="M332.4,363.2h58.8c4.8,0,8.8-4,8.8-8.8v-41.2c0-4.8-4-8.8-8.8-8.8h-58.8c-16.4,0-29.2,13.2-29.2,29.2
	l0,0C302.8,350,316,363.2,332.4,363.2z"/>
<circle style="fill:#FFFFFF;" cx="331.6" cy="333.6" r="18"/>
<g>
</g>
<g>
</g>
<g>
</g>
<g>
</g>
<g>
</g>
<g>
</g>
<g>
</g>
<g>
</g>
<g>
</g>
<g>
</g>
<g>
</g>
<g>
</g>
<g>
</g>
<g>
</g>
<g>
</g>
</svg>
