<?xml version="1.0" encoding="iso-8859-1"?>
<!-- Generator: Adobe Illustrator 19.0.0, SVG Export Plug-In . SVG Version: 6.00 Build 0)  -->
<svg version="1.1" id="Layer_1" xmlns="http://www.w3.org/2000/svg" xmlns:xlink="http://www.w3.org/1999/xlink" x="0px" y="0px"
	 viewBox="0 0 508 508" style="enable-background:new 0 0 508 508;" xml:space="preserve">
<circle style="fill:#324A5E;" cx="254" cy="254" r="254"/>
<g>
	<rect x="83.2" y="213.2" style="fill:#FFD05B;" width="85.6" height="40.8"/>
	<rect x="168.4" y="213.2" style="fill:#FFD05B;" width="85.6" height="40.8"/>
	<rect x="254" y="213.2" style="fill:#FFD05B;" width="85.6" height="40.8"/>
	<rect x="339.6" y="213.2" style="fill:#FFD05B;" width="85.6" height="40.8"/>
	<rect x="126" y="254" style="fill:#FFD05B;" width="85.6" height="40.8"/>
	<rect x="211.2" y="254" style="fill:#FFD05B;" width="85.6" height="40.8"/>
	<rect x="296.8" y="254" style="fill:#FFD05B;" width="85.6" height="40.8"/>
	<rect x="83.2" y="294.8" style="fill:#FFD05B;" width="85.6" height="40.8"/>
	<rect x="168.4" y="294.8" style="fill:#FFD05B;" width="85.6" height="40.8"/>
	<rect x="254" y="294.8" style="fill:#FFD05B;" width="85.6" height="40.8"/>
	<rect x="339.6" y="294.8" style="fill:#FFD05B;" width="85.6" height="40.8"/>
	<rect x="126" y="335.6" style="fill:#FFD05B;" width="85.6" height="40.8"/>
	<rect x="211.2" y="335.6" style="fill:#FFD05B;" width="85.6" height="40.8"/>
	<rect x="296.8" y="335.6" style="fill:#FFD05B;" width="85.6" height="40.8"/>
	<rect x="382" y="335.6" style="fill:#FFD05B;" width="42.8" height="40.8"/>
	<rect x="382" y="254" style="fill:#FFD05B;" width="42.8" height="40.8"/>
	<rect x="83.2" y="335.6" style="fill:#FFD05B;" width="42.8" height="40.8"/>
	<rect x="83.2" y="254" style="fill:#FFD05B;" width="42.8" height="40.8"/>
	<rect x="83.2" y="131.2" style="fill:#FFD05B;" width="85.6" height="40.8"/>
	<rect x="168.4" y="131.2" style="fill:#FFD05B;" width="85.6" height="40.8"/>
	<rect x="254" y="131.2" style="fill:#FFD05B;" width="85.6" height="40.8"/>
	<rect x="339.6" y="131.2" style="fill:#FFD05B;" width="85.6" height="40.8"/>
	<rect x="126" y="172.4" style="fill:#FFD05B;" width="85.6" height="40.8"/>
	<rect x="211.2" y="172.4" style="fill:#FFD05B;" width="85.6" height="40.8"/>
	<rect x="296.8" y="172.4" style="fill:#FFD05B;" width="85.6" height="40.8"/>
	<rect x="382" y="172.4" style="fill:#FFD05B;" width="42.8" height="40.8"/>
	<rect x="83.2" y="172.4" style="fill:#FFD05B;" width="42.8" height="40.8"/>
</g>
<g>
	<path id="SVGCleanerId_0" style="fill:#F9B54C;" d="M80,128.4v251.2h347.6V128.4H80z M379.2,210h-79.6v-34.8h79.2V210H379.2z
		 M379.2,292h-79.6v-34.8h79.2V292H379.2z M336.4,332.8h-79.2V298h79.2L336.4,332.8L336.4,332.8z M128.8,257.2H208V292h-79.2V257.2z
		 M128.8,175.2H208V210h-79.2V175.2z M293.6,210h-79.2v-34.8h79.2L293.6,210L293.6,210z M171.6,216h79.2v34.8h-79.2V216z M293.6,292
		h-79.2v-34.8h79.2L293.6,292L293.6,292z M171.6,298h79.2v34.8h-79.2V298z M336.4,250.8h-79.2V216h79.2L336.4,250.8L336.4,250.8z
		 M257.2,134.4h79.2v34.8h-79.2V134.4z M171.6,134.4h79.2v34.8h-79.2V134.4z M86,134.4h79.2v34.8H86V134.4z M86,175.2h36.8V210H86
		V175.2z M86,216h79.2v34.8H86V216z M86,257.2h36.8V292H86V257.2z M86,298h79.2v34.8H86V298z M122.8,373.6H86v-34.8h36.8V373.6z
		 M208.4,373.6h-79.6v-34.8H208v34.8H208.4z M293.6,373.6h-79.2v-34.8h79.2L293.6,373.6L293.6,373.6z M379.2,373.6h-79.6v-34.8h79.2
		v34.8H379.2z M422,373.6h-36.8v-34.8H422V373.6z M422,332.8h-79.6V298H422V332.8z M422,292h-36.8v-34.8H422V292z M422,250.8h-79.6
		V216H422V250.8z M422,210h-36.8v-34.8H422V210z M342.4,169.2v-34.8H422v34.8H342.4z"/>
</g>
<g>
	<path id="SVGCleanerId_0_1_" style="fill:#F9B54C;" d="M80,128.4v251.2h347.6V128.4H80z M379.2,210h-79.6v-34.8h79.2V210H379.2z
		 M379.2,292h-79.6v-34.8h79.2V292H379.2z M336.4,332.8h-79.2V298h79.2L336.4,332.8L336.4,332.8z M128.8,257.2H208V292h-79.2V257.2z
		 M128.8,175.2H208V210h-79.2V175.2z M293.6,210h-79.2v-34.8h79.2L293.6,210L293.6,210z M171.6,216h79.2v34.8h-79.2V216z M293.6,292
		h-79.2v-34.8h79.2L293.6,292L293.6,292z M171.6,298h79.2v34.8h-79.2V298z M336.4,250.8h-79.2V216h79.2L336.4,250.8L336.4,250.8z
		 M257.2,134.4h79.2v34.8h-79.2V134.4z M171.6,134.4h79.2v34.8h-79.2V134.4z M86,134.4h79.2v34.8H86V134.4z M86,175.2h36.8V210H86
		V175.2z M86,216h79.2v34.8H86V216z M86,257.2h36.8V292H86V257.2z M86,298h79.2v34.8H86V298z M122.8,373.6H86v-34.8h36.8V373.6z
		 M208.4,373.6h-79.6v-34.8H208v34.8H208.4z M293.6,373.6h-79.2v-34.8h79.2L293.6,373.6L293.6,373.6z M379.2,373.6h-79.6v-34.8h79.2
		v34.8H379.2z M422,373.6h-36.8v-34.8H422V373.6z M422,332.8h-79.6V298H422V332.8z M422,292h-36.8v-34.8H422V292z M422,250.8h-79.6
		V216H422V250.8z M422,210h-36.8v-34.8H422V210z M342.4,169.2v-34.8H422v34.8H342.4z"/>
</g>
<g>
	<path id="SVGCleanerId_0_2_" style="fill:#F9B54C;" d="M80,128.4v251.2h347.6V128.4H80z M379.2,210h-79.6v-34.8h79.2V210H379.2z
		 M379.2,292h-79.6v-34.8h79.2V292H379.2z M336.4,332.8h-79.2V298h79.2L336.4,332.8L336.4,332.8z M128.8,257.2H208V292h-79.2V257.2z
		 M128.8,175.2H208V210h-79.2V175.2z M293.6,210h-79.2v-34.8h79.2L293.6,210L293.6,210z M171.6,216h79.2v34.8h-79.2V216z M293.6,292
		h-79.2v-34.8h79.2L293.6,292L293.6,292z M171.6,298h79.2v34.8h-79.2V298z M336.4,250.8h-79.2V216h79.2L336.4,250.8L336.4,250.8z
		 M257.2,134.4h79.2v34.8h-79.2V134.4z M171.6,134.4h79.2v34.8h-79.2V134.4z M86,134.4h79.2v34.8H86V134.4z M86,175.2h36.8V210H86
		V175.2z M86,216h79.2v34.8H86V216z M86,257.2h36.8V292H86V257.2z M86,298h79.2v34.8H86V298z M122.8,373.6H86v-34.8h36.8V373.6z
		 M208.4,373.6h-79.6v-34.8H208v34.8H208.4z M293.6,373.6h-79.2v-34.8h79.2L293.6,373.6L293.6,373.6z M379.2,373.6h-79.6v-34.8h79.2
		v34.8H379.2z M422,373.6h-36.8v-34.8H422V373.6z M422,332.8h-79.6V298H422V332.8z M422,292h-36.8v-34.8H422V292z M422,250.8h-79.6
		V216H422V250.8z M422,210h-36.8v-34.8H422V210z M342.4,169.2v-34.8H422v34.8H342.4z"/>
</g>
<g>
</g>
<g>
</g>
<g>
</g>
<g>
</g>
<g>
</g>
<g>
</g>
<g>
</g>
<g>
</g>
<g>
</g>
<g>
</g>
<g>
</g>
<g>
</g>
<g>
</g>
<g>
</g>
<g>
</g>
</svg>
