<?xml version="1.0" encoding="iso-8859-1"?>
<!-- Generator: Adobe Illustrator 19.0.0, SVG Export Plug-In . SVG Version: 6.00 Build 0)  -->
<svg version="1.1" id="Layer_1" xmlns="http://www.w3.org/2000/svg" xmlns:xlink="http://www.w3.org/1999/xlink" x="0px" y="0px"
	 viewBox="0 0 508 508" style="enable-background:new 0 0 508 508;" xml:space="preserve">
<circle style="fill:#84DBFF;" cx="254" cy="254" r="254"/>
<path style="fill:#54C0EB;" d="M40,390.4C85.2,461.2,164,508,254,508s169.2-46.8,214-117.6H40z"/>
<g>
	<path style="fill:#FFFFFF;" d="M426.4,231.2l-10,60c-2-0.4-4-0.4-6.4-0.4l8.4-50.8L426.4,231.2z"/>
	<path style="fill:#FFFFFF;" d="M326.4,316l-49.2,67.6c-3.2,4.4-8,6.8-13.6,6.8H254c-8.8,0-16-6.8-16.8-15.6l-6.4-94.8l6.4,2.4
		l6.4,91.6c0.4,5.6,4.8,9.6,10.4,9.6h9.6c3.2,0,6.4-1.6,8.4-4.4l48-66L326.4,316z"/>
</g>
<path style="fill:#F1543F;" d="M448.8,206.8l-86,96c-6.8,7.2-17.2,10-26.4,6.4l-118-44.8c-6.8-2.4-12.4-8.4-14.4-15.2l-16.4-52.8
	l260.8,10.4L448.8,206.8z"/>
<path style="fill:#FF7058;" d="M462.4,192l-290.8-11.6c-4,0-7.6,3.2-8,7.2c0,4,3.2,7.6,7.2,8l290.8,11.6c4,0,7.6-3.2,8-7.2
	C470,195.6,466.8,192,462.4,192z"/>
<circle style="fill:#324A5E;" cx="408.8" cy="340.8" r="50"/>
<circle style="fill:#E6E9EE;" cx="408.8" cy="340.8" r="30.4"/>
<circle style="fill:#324A5E;" cx="408.8" cy="340.8" r="9.2"/>
<path style="fill:#FFD05B;" d="M408.4,335.6L45.6,199.2c-2.8-1.2-5.6,0.4-6.8,3.2s0.4,5.6,3.2,6.8l362.8,136.4
	c0.8,0.4,1.2,0.4,2,0.4c2,0,4-1.2,4.8-3.6C412.4,340,411.2,336.8,408.4,335.6z"/>
<g>
</g>
<g>
</g>
<g>
</g>
<g>
</g>
<g>
</g>
<g>
</g>
<g>
</g>
<g>
</g>
<g>
</g>
<g>
</g>
<g>
</g>
<g>
</g>
<g>
</g>
<g>
</g>
<g>
</g>
</svg>
