<?xml version="1.0" encoding="iso-8859-1"?>
<!-- Generator: Adobe Illustrator 19.0.0, SVG Export Plug-In . SVG Version: 6.00 Build 0)  -->
<svg xmlns="http://www.w3.org/2000/svg" xmlns:xlink="http://www.w3.org/1999/xlink" version="1.1" id="Layer_1" x="0px" y="0px" viewBox="0 0 508 508" style="enable-background:new 0 0 508 508;" xml:space="preserve">
<circle style="fill:#84DBFF;" cx="254" cy="254" r="254"/>
<g>
	<rect x="246.8" y="364.8" style="fill:#2B3B4E;" width="14.4" height="57.6"/>
	<rect x="164.4" y="417.6" style="fill:#2B3B4E;" width="179.2" height="14.4"/>
</g>
<rect x="138" y="131.6" style="fill:#324A5E;" width="232" height="201.6"/>
<g>
	<path style="fill:#E6E9EE;" d="M393.2,172.4H114.8c-6.4,0-12-5.2-12-12v-56c0-6.4,5.2-12,12-12h278.4c6.4,0,12,5.2,12,12v56   C404.8,166.8,399.6,172.4,393.2,172.4z"/>
	<path style="fill:#E6E9EE;" d="M393.2,272.4H114.8c-6.4,0-12-5.2-12-12v-56c0-6.4,5.2-12,12-12h278.4c6.4,0,12,5.2,12,12v56   C404.8,267.2,399.6,272.4,393.2,272.4z"/>
	<path style="fill:#E6E9EE;" d="M393.2,372.4H114.8c-6.4,0-12-5.2-12-12v-56c0-6.4,5.2-12,12-12h278.4c6.4,0,12,5.2,12,12v56   C404.8,367.2,399.6,372.4,393.2,372.4z"/>
</g>
<g>
	<path style="fill:#ACB3BA;" d="M133.2,125.6L133.2,125.6c-4.8,0-8.4-4-8.4-8.4l0,0c0-4.8,4-8.4,8.4-8.4l0,0c4.8,0,8.4,4,8.4,8.4   l0,0C141.6,122,138,125.6,133.2,125.6z"/>
	<path style="fill:#ACB3BA;" d="M133.2,156L133.2,156c-4.8,0-8.4-4-8.4-8.4l0,0c0-4.8,4-8.4,8.4-8.4l0,0c4.8,0,8.4,4,8.4,8.4l0,0   C141.6,152.4,138,156,133.2,156z"/>
	<path style="fill:#ACB3BA;" d="M161.6,125.6L161.6,125.6c-4.8,0-8.4-4-8.4-8.4l0,0c0-4.8,4-8.4,8.4-8.4l0,0c4.8,0,8.4,4,8.4,8.4   l0,0C170,122,166,125.6,161.6,125.6z"/>
	<path style="fill:#ACB3BA;" d="M161.6,156L161.6,156c-4.8,0-8.4-4-8.4-8.4l0,0c0-4.8,4-8.4,8.4-8.4l0,0c4.8,0,8.4,4,8.4,8.4l0,0   C170,152.4,166,156,161.6,156z"/>
	<path style="fill:#ACB3BA;" d="M189.6,125.6L189.6,125.6c-4.8,0-8.4-4-8.4-8.4l0,0c0-4.8,4-8.4,8.4-8.4l0,0c4.8,0,8.4,4,8.4,8.4   l0,0C198.4,122,194.4,125.6,189.6,125.6z"/>
	<path style="fill:#ACB3BA;" d="M189.6,156L189.6,156c-4.8,0-8.4-4-8.4-8.4l0,0c0-4.8,4-8.4,8.4-8.4l0,0c4.8,0,8.4,4,8.4,8.4l0,0   C198.4,152.4,194.4,156,189.6,156z"/>
	<rect x="287.2" y="112" style="fill:#ACB3BA;" width="97.6" height="5.2"/>
	<rect x="287.2" y="124" style="fill:#ACB3BA;" width="97.6" height="5.2"/>
	<rect x="287.2" y="135.6" style="fill:#ACB3BA;" width="97.6" height="5.2"/>
	<rect x="287.2" y="147.6" style="fill:#ACB3BA;" width="97.6" height="5.2"/>
</g>
<circle style="fill:#FF7058;" cx="237.2" cy="132.4" r="12"/>
<g>
	<path style="fill:#ACB3BA;" d="M133.2,226L133.2,226c-4.8,0-8.4-4-8.4-8.4l0,0c0-4.8,4-8.4,8.4-8.4l0,0c4.8,0,8.4,4,8.4,8.4l0,0   C141.6,222,138,226,133.2,226z"/>
	<path style="fill:#ACB3BA;" d="M133.2,256L133.2,256c-4.8,0-8.4-4-8.4-8.4l0,0c0-4.8,4-8.4,8.4-8.4l0,0c4.8,0,8.4,4,8.4,8.4l0,0   C141.6,252.4,138,256,133.2,256z"/>
	<path style="fill:#ACB3BA;" d="M161.6,226L161.6,226c-4.8,0-8.4-4-8.4-8.4l0,0c0-4.8,4-8.4,8.4-8.4l0,0c4.8,0,8.4,4,8.4,8.4l0,0   C170,222,166,226,161.6,226z"/>
	<path style="fill:#ACB3BA;" d="M161.6,256L161.6,256c-4.8,0-8.4-4-8.4-8.4l0,0c0-4.8,4-8.4,8.4-8.4l0,0c4.8,0,8.4,4,8.4,8.4l0,0   C170,252.4,166,256,161.6,256z"/>
	<path style="fill:#ACB3BA;" d="M189.6,226L189.6,226c-4.8,0-8.4-4-8.4-8.4l0,0c0-4.8,4-8.4,8.4-8.4l0,0c4.8,0,8.4,4,8.4,8.4l0,0   C198.4,222,194.4,226,189.6,226z"/>
	<path style="fill:#ACB3BA;" d="M189.6,256L189.6,256c-4.8,0-8.4-4-8.4-8.4l0,0c0-4.8,4-8.4,8.4-8.4l0,0c4.8,0,8.4,4,8.4,8.4l0,0   C198.4,252.4,194.4,256,189.6,256z"/>
	<rect x="287.2" y="212" style="fill:#ACB3BA;" width="97.6" height="5.2"/>
	<rect x="287.2" y="224" style="fill:#ACB3BA;" width="97.6" height="5.2"/>
	<rect x="287.2" y="236" style="fill:#ACB3BA;" width="97.6" height="5.2"/>
	<rect x="287.2" y="247.6" style="fill:#ACB3BA;" width="97.6" height="5.2"/>
</g>
<circle style="fill:#FFD05B;" cx="237.2" cy="232.4" r="12"/>
<g>
	<path style="fill:#ACB3BA;" d="M133.2,326L133.2,326c-4.8,0-8.4-4-8.4-8.4l0,0c0-4.8,4-8.4,8.4-8.4l0,0c4.8,0,8.4,4,8.4,8.4l0,0   C141.6,322,138,326,133.2,326z"/>
	<path style="fill:#ACB3BA;" d="M133.2,356.4L133.2,356.4c-4.8,0-8.4-4-8.4-8.4l0,0c0-4.8,4-8.4,8.4-8.4l0,0c4.8,0,8.4,4,8.4,8.4   l0,0C141.6,352.4,138,356.4,133.2,356.4z"/>
	<path style="fill:#ACB3BA;" d="M161.6,326L161.6,326c-4.8,0-8.4-4-8.4-8.4l0,0c0-4.8,4-8.4,8.4-8.4l0,0c4.8,0,8.4,4,8.4,8.4l0,0   C170,322,166,326,161.6,326z"/>
	<path style="fill:#ACB3BA;" d="M161.6,356.4L161.6,356.4c-4.8,0-8.4-4-8.4-8.4l0,0c0-4.8,4-8.4,8.4-8.4l0,0c4.8,0,8.4,4,8.4,8.4   l0,0C170,352.4,166,356.4,161.6,356.4z"/>
	<path style="fill:#ACB3BA;" d="M189.6,326L189.6,326c-4.8,0-8.4-4-8.4-8.4l0,0c0-4.8,4-8.4,8.4-8.4l0,0c4.8,0,8.4,4,8.4,8.4l0,0   C198.4,322,194.4,326,189.6,326z"/>
	<path style="fill:#ACB3BA;" d="M189.6,356.4L189.6,356.4c-4.8,0-8.4-4-8.4-8.4l0,0c0-4.8,4-8.4,8.4-8.4l0,0c4.8,0,8.4,4,8.4,8.4   l0,0C198.4,352.4,194.4,356.4,189.6,356.4z"/>
	<rect x="287.2" y="312.4" style="fill:#ACB3BA;" width="97.6" height="5.2"/>
	<rect x="287.2" y="324" style="fill:#ACB3BA;" width="97.6" height="5.2"/>
	<rect x="287.2" y="336" style="fill:#ACB3BA;" width="97.6" height="5.2"/>
	<rect x="287.2" y="348" style="fill:#ACB3BA;" width="97.6" height="5.2"/>
</g>
<circle style="fill:#4CDBC4;" cx="237.2" cy="332.8" r="12"/>
<circle style="fill:#324A5E;" cx="254" cy="424.8" r="24.8"/>
<g>
</g>
<g>
</g>
<g>
</g>
<g>
</g>
<g>
</g>
<g>
</g>
<g>
</g>
<g>
</g>
<g>
</g>
<g>
</g>
<g>
</g>
<g>
</g>
<g>
</g>
<g>
</g>
<g>
</g>
</svg>
