<?xml version="1.0" encoding="iso-8859-1"?>
<!-- Generator: Adobe Illustrator 19.0.0, SVG Export Plug-In . SVG Version: 6.00 Build 0)  -->
<svg xmlns="http://www.w3.org/2000/svg" xmlns:xlink="http://www.w3.org/1999/xlink" version="1.1" id="Layer_1" x="0px" y="0px" viewBox="0 0 508 508" style="enable-background:new 0 0 508 508;" xml:space="preserve">
<circle style="fill:#90DFAA;" cx="254" cy="254" r="254"/>
<path style="fill:#324A5E;" d="M317.2,133.6H300V98.8h-92v34.8h-17.2V90.4c0-4.8,4-8.8,8.8-8.8h109.6c4.8,0,8.8,4,8.8,8.8v43.2  H317.2z"/>
<path style="fill:#FF7058;" d="M414.8,365.6H93.2c-6,0-10.8-4.8-10.8-10.8V139.2c0-6,4.8-10.8,10.8-10.8h321.6  c6,0,10.8,4.8,10.8,10.8v215.6C425.6,360.8,420.8,365.6,414.8,365.6z"/>
<path style="fill:#324A5E;" d="M344.4,374L230.8,270.4l-32,32l103.2,114c11.6,12.8,31.2,13.2,43.6,1.2c6-6,8.8-13.6,8.8-21.2  C354.4,388,351.2,380,344.4,374z M337.2,408.8c-7.2,7.2-18.4,7.2-25.6,0s-7.2-18.4,0-25.6s18.4-7.2,25.6,0  C344,390.4,344,402,337.2,408.8z"/>
<path style="fill:#FFFFFF;" d="M226.8,218.4c11.2,11.2,16.8,26,16.8,40.8s-5.6,29.6-16.8,40.8c-11.2,11.2-26,16.8-40.8,16.8  s-29.6-5.6-40.8-16.8c-15.6-15.6-20.4-38-14.4-58l34.8,34.8l29.6-8.8l8.8-29.6l-34.8-34.8c5.6-1.6,11.2-2.4,16.8-2.4  C200.4,201.2,215.2,206.8,226.8,218.4z"/>
<g>
</g>
<g>
</g>
<g>
</g>
<g>
</g>
<g>
</g>
<g>
</g>
<g>
</g>
<g>
</g>
<g>
</g>
<g>
</g>
<g>
</g>
<g>
</g>
<g>
</g>
<g>
</g>
<g>
</g>
</svg>
