<?xml version="1.0" encoding="iso-8859-1"?>
<!-- Generator: Adobe Illustrator 19.0.0, SVG Export Plug-In . SVG Version: 6.00 Build 0)  -->
<svg xmlns="http://www.w3.org/2000/svg" xmlns:xlink="http://www.w3.org/1999/xlink" version="1.1" id="Layer_1" x="0px" y="0px" viewBox="0 0 508 508" style="enable-background:new 0 0 508 508;" xml:space="preserve">
<circle style="fill:#FFD05B;" cx="254" cy="254" r="254"/>
<rect x="123.2" y="89.2" style="fill:#FFFFFF;" width="261.2" height="329.6"/>
<rect x="123.2" y="89.2" style="fill:#FF7058;" width="261.2" height="38.8"/>
<g>
	<path style="fill:#E6E9EE;" d="M165.6,142.4h8.4v23.2h-4.4v-18.8h-4V142.4z"/>
	<path style="fill:#E6E9EE;" d="M187.6,166c-2.8,0-5.2-1.2-6.8-3.2s-2.4-5.2-2.4-8.8s0.8-6.4,2.4-8.8c1.6-2,3.6-3.2,6.8-3.2   c2.8,0,5.2,1.2,6.8,3.2s2.4,5.2,2.4,8.8s-0.8,6.4-2.4,8.8C192.8,164.8,190.4,166,187.6,166z M184.4,148.4c-0.8,1.6-1.2,3.2-1.2,5.6   c0,2.4,0.4,4,1.2,5.6s1.6,2,3.2,2c1.6,0,2.4-0.8,3.2-2c0.8-1.6,1.2-3.2,1.2-5.6c0-2.4-0.4-4-1.2-5.6c-0.8-1.6-2-2.4-3.2-2.4   C186,146,184.8,146.8,184.4,148.4z"/>
	<path style="fill:#E6E9EE;" d="M198.8,142.4h8.8v23.2h-4.4v-18.8h-4v-4.4H198.8z"/>
	<path style="fill:#E6E9EE;" d="M220.8,166c-2.8,0-5.2-1.2-6.8-3.2s-2.4-5.2-2.4-8.8s0.8-6.4,2.4-8.8c1.6-2,3.6-3.2,6.8-3.2   c2.8,0,5.2,1.2,6.8,3.2s2.4,5.2,2.4,8.8s-0.8,6.4-2.4,8.8C226,164.8,224,166,220.8,166z M217.6,148.4c-0.8,1.6-1.2,3.2-1.2,5.6   c0,2.4,0.4,4,1.2,5.6s1.6,2,3.2,2c1.6,0,2.4-0.8,3.2-2c0.8-1.6,1.2-3.2,1.2-5.6c0-2.4-0.4-4-1.2-5.6s-1.6-2-3.2-2   C219.6,146,218.4,146.8,217.6,148.4z"/>
	<path style="fill:#E6E9EE;" d="M232.4,142.4h8.8v23.2h-4.4v-18.8h-4v-4.4H232.4z"/>
	<path style="fill:#E6E9EE;" d="M254.4,166c-2.8,0-5.2-1.2-6.8-3.2s-2.4-5.2-2.4-8.8s0.8-6.4,2.4-8.8c1.6-2,3.6-3.2,6.8-3.2   c2.8,0,5.2,1.2,6.8,3.2c1.6,2,2.4,5.2,2.4,8.8s-0.8,6.4-2.4,8.8C259.6,164.8,257.2,166,254.4,166z M251.2,148.4   c-0.8,1.6-1.2,3.2-1.2,5.6c0,2.4,0.4,4,1.2,5.6s1.6,2,3.2,2c1.6,0,2.4-0.8,3.2-2c0.8-1.6,1.2-3.2,1.2-5.6c0-2.4-0.4-4-1.2-5.6   c-0.8-1.6-1.6-2-3.2-2C252.8,146,252,146.8,251.2,148.4z"/>
	<path style="fill:#E6E9EE;" d="M266,142.4h8.8v23.2H270v-18.8h-4V142.4z"/>
	<path style="fill:#E6E9EE;" d="M288,166c-2.8,0-5.2-1.2-6.8-3.2c-1.6-2-2.4-5.2-2.4-8.8s0.8-6.4,2.4-8.8c1.6-2,3.6-3.2,6.8-3.2   c2.8,0,5.2,1.2,6.8,3.2c1.6,2,2.4,5.2,2.4,8.8s-0.8,6.4-2.4,8.8C293.2,164.8,290.8,166,288,166z M284.8,148.4   c-0.8,1.6-1.2,3.2-1.2,5.6c0,2.4,0.4,4,1.2,5.6c0.8,1.6,1.6,2,3.2,2s2.4-0.8,3.2-2c0.8-1.6,1.2-3.2,1.2-5.6c0-2.4-0.4-4-1.2-5.6   c-0.8-1.6-1.6-2-3.2-2C286.4,146,285.2,146.8,284.8,148.4z"/>
	<path style="fill:#E6E9EE;" d="M299.2,142.4h8.8v23.2h-4.4v-18.8h-4v-4.4H299.2z"/>
	<path style="fill:#E6E9EE;" d="M321.2,166c-2.8,0-5.2-1.2-6.8-3.2c-1.6-2-2.4-5.2-2.4-8.8s0.8-6.4,2.4-8.8c1.6-2,3.6-3.2,6.8-3.2   c2.8,0,5.2,1.2,6.8,3.2c1.6,2,2.4,5.2,2.4,8.8s-0.8,6.4-2.4,8.8C326.4,164.8,324.4,166,321.2,166z M318,148.4   c-0.8,1.6-1.2,3.2-1.2,5.6c0,2.4,0.4,4,1.2,5.6c0.8,1.6,1.6,2,3.2,2s2.4-0.8,3.2-2c0.8-1.6,1.2-3.2,1.2-5.6c0-2.4-0.4-4-1.2-5.6   c-0.8-1.6-1.6-2-3.2-2C320,146,318.8,146.8,318,148.4z"/>
	<path style="fill:#E6E9EE;" d="M332.8,142.4h8.8v23.2h-4.4v-18.8h-4v-4.4H332.8z"/>
	<path style="fill:#E6E9EE;" d="M159.2,182h8.8v23.2h-4.4v-18.8h-4V182H159.2z"/>
	<path style="fill:#E6E9EE;" d="M181.2,205.6c-2.8,0-5.2-1.2-6.8-3.2s-2.4-5.2-2.4-8.8s0.8-6.4,2.4-8.8c1.6-2,3.6-3.2,6.8-3.2   c2.8,0,5.2,1.2,6.8,3.2s2.4,5.2,2.4,8.8s-0.8,6.4-2.4,8.8C186.4,204.4,184.4,205.6,181.2,205.6z M178,188c-0.8,1.6-1.2,3.2-1.2,5.6   c0,2.4,0.4,4,1.2,5.6s1.6,2,3.2,2c1.6,0,2.4-0.8,3.2-2c0.8-1.6,1.2-3.2,1.2-5.6c0-2.4-0.4-4-1.2-5.6s-1.6-2-3.2-2   C180,186,178.8,186.4,178,188z"/>
	<path style="fill:#E6E9EE;" d="M192.8,182h8.8v23.2h-4.4v-18.8h-4V182H192.8z"/>
	<path style="fill:#E6E9EE;" d="M205.2,182h8.8v23.2h-4.4v-18.8h-4V182H205.2z"/>
	<path style="fill:#E6E9EE;" d="M217.6,182h8.4v23.2h-4.4v-18.8h-4V182z"/>
	<path style="fill:#E6E9EE;" d="M239.6,205.6c-2.8,0-5.2-1.2-6.8-3.2s-2.4-5.2-2.4-8.8s0.8-6.4,2.4-8.8c1.6-2,3.6-3.2,6.8-3.2   c2.8,0,5.2,1.2,6.8,3.2s2.4,5.2,2.4,8.8s-0.8,6.4-2.4,8.8C244.8,204.4,242.4,205.6,239.6,205.6z M236.4,188   c-0.8,1.6-1.2,3.2-1.2,5.6c0,2.4,0.4,4,1.2,5.6s1.6,2,3.2,2c1.6,0,2.4-0.8,3.2-2c0.8-1.6,1.2-3.2,1.2-5.6c0-2.4-0.4-4-1.2-5.6   c-0.8-1.6-2-2-3.2-2C238,186,236.8,186.4,236.4,188z"/>
	<path style="fill:#E6E9EE;" d="M250.8,182h8.8v23.2h-4.4v-18.8h-4V182H250.8z"/>
	<path style="fill:#E6E9EE;" d="M272.8,205.6c-2.8,0-5.2-1.2-6.8-3.2c-1.6-2-2.4-5.2-2.4-8.8s0.8-6.4,2.4-8.8c1.6-2,3.6-3.2,6.8-3.2   c2.8,0,5.2,1.2,6.8,3.2c1.6,2,2.4,5.2,2.4,8.8s-0.8,6.4-2.4,8.8C278,204.4,276,205.6,272.8,205.6z M269.6,188   c-0.8,1.6-1.2,3.2-1.2,5.6c0,2.4,0.4,4,1.2,5.6c0.8,1.6,1.6,2,3.2,2s2.4-0.8,3.2-2c0.8-1.6,1.2-3.2,1.2-5.6c0-2.4-0.4-4-1.2-5.6   c-0.8-1.6-1.6-2-3.2-2C271.6,186,270.4,186.4,269.6,188z"/>
	<path style="fill:#E6E9EE;" d="M284.4,182h8.8v23.2h-4.4v-18.8h-4V182H284.4z"/>
	<path style="fill:#E6E9EE;" d="M306.4,205.6c-2.8,0-5.2-1.2-6.8-3.2c-1.6-2-2.4-5.2-2.4-8.8s0.8-6.4,2.4-8.8c1.6-2,3.6-3.2,6.8-3.2   c2.8,0,5.2,1.2,6.8,3.2c1.6,2,2.4,5.2,2.4,8.8s-0.8,6.4-2.4,8.8C311.6,204.4,309.2,205.6,306.4,205.6z M303.2,188   c-0.8,1.6-1.2,3.2-1.2,5.6c0,2.4,0.4,4,1.2,5.6c0.8,1.6,1.6,2,3.2,2s2.4-0.8,3.2-2c0.8-1.6,1.2-3.2,1.2-5.6c0-2.4-0.4-4-1.2-5.6   c-0.8-1.6-1.6-2-3.2-2C304.8,186,304,186.4,303.2,188z"/>
	<path style="fill:#E6E9EE;" d="M318,182h8.8v23.2H322v-18.8h-4V182z"/>
	<path style="fill:#E6E9EE;" d="M340,205.6c-2.8,0-5.2-1.2-6.8-3.2c-1.6-2-2.4-5.2-2.4-8.8s0.8-6.4,2.4-8.8c1.6-2,3.6-3.2,6.8-3.2   c2.8,0,5.2,1.2,6.8,3.2c1.6,2,2.4,5.2,2.4,8.8s-0.8,6.4-2.4,8.8C344.8,204.4,342.8,205.6,340,205.6z M336.8,188   c-0.8,1.6-1.2,3.2-1.2,5.6c0,2.4,0.4,4,1.2,5.6c0.8,1.6,1.6,2,3.2,2s2.4-0.8,3.2-2c0.8-1.6,1.2-3.2,1.2-5.6c0-2.4-0.4-4-1.2-5.6   c-0.8-1.6-1.6-2-3.2-2S337.2,186.4,336.8,188z"/>
	<path style="fill:#E6E9EE;" d="M154.8,222h8.8v23.2h-4.4v-18.8h-4V222H154.8z"/>
	<path style="fill:#E6E9EE;" d="M176.8,245.2c-2.8,0-5.2-1.2-6.8-3.2s-2.4-5.2-2.4-8.8s0.8-6.4,2.4-8.8c1.6-2,3.6-3.2,6.8-3.2   c2.8,0,5.2,1.2,6.8,3.2s2.4,5.2,2.4,8.8s-0.8,6.4-2.4,8.8C182,244,180,245.2,176.8,245.2z M173.6,227.6c-0.8,1.6-1.2,3.2-1.2,5.6   c0,2.4,0.4,4,1.2,5.6s1.6,2,3.2,2c1.6,0,2.4-0.8,3.2-2c0.8-1.6,1.2-3.2,1.2-5.6c0-2.4-0.4-4-1.2-5.6s-1.6-2-3.2-2   C175.6,225.6,174.4,226.4,173.6,227.6z"/>
	<path style="fill:#E6E9EE;" d="M188.4,222h8.8v23.2h-4.4v-18.8h-4V222H188.4z"/>
	<path style="fill:#E6E9EE;" d="M210.4,245.2c-2.8,0-5.2-1.2-6.8-3.2s-2.4-5.2-2.4-8.8s0.8-6.4,2.4-8.8c1.6-2,3.6-3.2,6.8-3.2   c2.8,0,5.2,1.2,6.8,3.2s2.4,5.2,2.4,8.8s-0.8,6.4-2.4,8.8C215.6,244,213.2,245.2,210.4,245.2z M207.2,227.6   c-0.8,1.6-1.2,3.2-1.2,5.6c0,2.4,0.4,4,1.2,5.6s1.6,2,3.2,2c1.6,0,2.4-0.8,3.2-2c0.8-1.6,1.2-3.2,1.2-5.6c0-2.4-0.4-4-1.2-5.6   s-1.6-2-3.2-2S208,226.4,207.2,227.6z"/>
	<path style="fill:#E6E9EE;" d="M222,222h8.8v23.2H226v-18.8h-4V222z"/>
	<path style="fill:#E6E9EE;" d="M244,245.2c-2.8,0-5.2-1.2-6.8-3.2s-2.4-5.2-2.4-8.8s0.8-6.4,2.4-8.8c1.6-2,3.6-3.2,6.8-3.2   c2.8,0,5.2,1.2,6.8,3.2s2.4,5.2,2.4,8.8s-0.8,6.4-2.4,8.8C248.8,244,246.8,245.2,244,245.2z M240.8,227.6c-0.8,1.6-1.2,3.2-1.2,5.6   c0,2.4,0.4,4,1.2,5.6s1.6,2,3.2,2c1.6,0,2.4-0.8,3.2-2c0.8-1.6,1.2-3.2,1.2-5.6c0-2.4-0.4-4-1.2-5.6s-1.6-2-3.2-2   C242.4,225.6,241.2,226.4,240.8,227.6z"/>
	<path style="fill:#E6E9EE;" d="M255.2,222h8.8v23.2h-4.4v-18.8h-4V222H255.2z"/>
	<path style="fill:#E6E9EE;" d="M277.2,245.2c-2.8,0-5.2-1.2-6.8-3.2c-1.6-2-2.4-5.2-2.4-8.8s0.8-6.4,2.4-8.8c1.6-2,3.6-3.2,6.8-3.2   c2.8,0,5.2,1.2,6.8,3.2c1.6,2,2.4,5.2,2.4,8.8s-0.8,6.4-2.4,8.8C282.4,244,280.4,245.2,277.2,245.2z M274,227.6   c-0.8,1.6-1.2,3.2-1.2,5.6c0,2.4,0.4,4,1.2,5.6c0.8,1.6,1.6,2,3.2,2s2.4-0.8,3.2-2c0.8-1.6,1.2-3.2,1.2-5.6c0-2.4-0.4-4-1.2-5.6   c-0.8-1.6-1.6-2-3.2-2C276,225.6,274.8,226.4,274,227.6z"/>
	<path style="fill:#E6E9EE;" d="M288.8,222h8.8v23.2h-4.4v-18.8h-4V222H288.8z"/>
	<path style="fill:#E6E9EE;" d="M310.8,245.2c-2.8,0-5.2-1.2-6.8-3.2c-1.6-2-2.4-5.2-2.4-8.8s0.8-6.4,2.4-8.8c1.6-2,3.6-3.2,6.8-3.2   c2.8,0,5.2,1.2,6.8,3.2c1.6,2,2.4,5.2,2.4,8.8s-0.8,6.4-2.4,8.8C316,244,313.6,245.2,310.8,245.2z M307.6,227.6   c-0.8,1.6-1.2,3.2-1.2,5.6c0,2.4,0.4,4,1.2,5.6c0.8,1.6,1.6,2,3.2,2s2.4-0.8,3.2-2c0.8-1.6,1.2-3.2,1.2-5.6c0-2.4-0.4-4-1.2-5.6   c-0.8-1.6-1.6-2-3.2-2S308.4,226.4,307.6,227.6z"/>
	<path style="fill:#E6E9EE;" d="M322.4,222h8.8v23.2h-4.4v-18.8h-4V222H322.4z"/>
	<path style="fill:#E6E9EE;" d="M344.4,245.2c-2.8,0-5.2-1.2-6.8-3.2c-1.6-2-2.4-5.2-2.4-8.8s0.8-6.4,2.4-8.8c1.6-2,3.6-3.2,6.8-3.2   c2.8,0,5.2,1.2,6.8,3.2c1.6,2,2.4,5.2,2.4,8.8s-0.8,6.4-2.4,8.8C349.2,244,347.2,245.2,344.4,245.2z M341.2,227.6   c-0.8,1.6-1.2,3.2-1.2,5.6c0,2.4,0.4,4,1.2,5.6c0.8,1.6,1.6,2,3.2,2s2.4-0.8,3.2-2c0.8-1.6,1.2-3.2,1.2-5.6c0-2.4-0.4-4-1.2-5.6   c-0.8-1.6-1.6-2-3.2-2C342.8,225.6,341.6,226.4,341.2,227.6z"/>
	<path style="fill:#E6E9EE;" d="M148.8,261.6h8.8v23.2h-4.4V266h-4v-4.4H148.8z"/>
	<path style="fill:#E6E9EE;" d="M170.8,284.8c-2.8,0-5.2-1.2-6.8-3.2s-2.4-5.2-2.4-8.8c0-3.6,0.8-6.4,2.4-8.8c1.6-2,3.6-3.2,6.8-3.2   c2.8,0,5.2,1.2,6.8,3.2s2.4,5.2,2.4,8.8c0,3.6-0.8,6.4-2.4,8.8C176,284,173.6,284.8,170.8,284.8z M167.6,267.6   c-0.8,1.6-1.2,3.2-1.2,5.6s0.4,4,1.2,5.6s1.6,2,3.2,2c1.6,0,2.4-0.8,3.2-2c0.8-1.6,1.2-3.2,1.2-5.6s-0.4-4-1.2-5.6s-1.6-2-3.2-2   C169.2,265.2,168.4,266,167.6,267.6z"/>
	<path style="fill:#E6E9EE;" d="M182.4,261.6h8.8v23.2h-4.4V266h-4v-4.4H182.4z"/>
	<path style="fill:#E6E9EE;" d="M204,284.8c-2.8,0-5.2-1.2-6.8-3.2s-2.4-5.2-2.4-8.8c0-3.6,0.8-6.4,2.4-8.8c1.6-2,3.6-3.2,6.8-3.2   c2.8,0,5.2,1.2,6.8,3.2s2.4,5.2,2.4,8.8c0,3.6-0.8,6.4-2.4,8.8C209.2,284,207.2,284.8,204,284.8z M201.2,267.6   c-0.8,1.6-1.2,3.2-1.2,5.6s0.4,4,1.2,5.6s1.6,2,3.2,2c1.6,0,2.4-0.8,3.2-2c0.8-1.6,1.2-3.2,1.2-5.6s-0.4-4-1.2-5.6s-1.6-2-3.2-2   C202.8,265.2,201.6,266,201.2,267.6z"/>
	<path style="fill:#E6E9EE;" d="M215.6,261.6h8.8v23.2H220V266h-4v-4.4H215.6z"/>
	<path style="fill:#E6E9EE;" d="M237.6,284.8c-2.8,0-5.2-1.2-6.8-3.2s-2.4-5.2-2.4-8.8c0-3.6,0.8-6.4,2.4-8.8c1.6-2,3.6-3.2,6.8-3.2   c2.8,0,5.2,1.2,6.8,3.2s2.4,5.2,2.4,8.8c0,3.6-0.8,6.4-2.4,8.8C242.8,284,240.8,284.8,237.6,284.8z M234.4,267.6   c-0.8,1.6-1.2,3.2-1.2,5.6s0.4,4,1.2,5.6s1.6,2,3.2,2c1.6,0,2.4-0.8,3.2-2c0.8-1.6,1.2-3.2,1.2-5.6s-0.4-4-1.2-5.6s-1.6-2-3.2-2   C236.4,265.2,235.2,266,234.4,267.6z"/>
	<path style="fill:#E6E9EE;" d="M249.2,261.6h8.8v23.2h-4.4V266h-4v-4.4H249.2z"/>
	<path style="fill:#E6E9EE;" d="M271.2,284.8c-2.8,0-5.2-1.2-6.8-3.2c-1.6-2-2.4-5.2-2.4-8.8c0-3.6,0.8-6.4,2.4-8.8   c1.6-2,3.6-3.2,6.8-3.2c2.8,0,5.2,1.2,6.8,3.2c1.6,2,2.4,5.2,2.4,8.8c0,3.6-0.8,6.4-2.4,8.8C276.4,284,274,284.8,271.2,284.8z    M268,267.6c-0.8,1.6-1.2,3.2-1.2,5.6s0.4,4,1.2,5.6c0.8,1.6,1.6,2,3.2,2s2.4-0.8,3.2-2c0.8-1.6,1.2-3.2,1.2-5.6s-0.4-4-1.2-5.6   c-0.8-1.6-1.6-2-3.2-2C269.6,265.2,268.8,266,268,267.6z"/>
	<path style="fill:#E6E9EE;" d="M282.8,261.6h8.8v23.2h-4.4V266h-4v-4.4H282.8z"/>
	<path style="fill:#E6E9EE;" d="M304.4,284.8c-2.8,0-5.2-1.2-6.8-3.2c-1.6-2-2.4-5.2-2.4-8.8c0-3.6,0.8-6.4,2.4-8.8   c1.6-2,3.6-3.2,6.8-3.2c2.8,0,5.2,1.2,6.8,3.2c1.6,2,2.4,5.2,2.4,8.8c0,3.6-0.8,6.4-2.4,8.8C309.6,284,307.6,284.8,304.4,284.8z    M301.6,267.6c-0.8,1.6-1.2,3.2-1.2,5.6s0.4,4,1.2,5.6c0.8,1.6,1.6,2,3.2,2s2.4-0.8,3.2-2c0.8-1.6,1.2-3.2,1.2-5.6s-0.4-4-1.2-5.6   c-0.8-1.6-1.6-2-3.2-2C303.2,265.2,302,266,301.6,267.6z"/>
	<path style="fill:#E6E9EE;" d="M316,261.6h8.8v23.2h-4.4V266h-4v-4.4H316z"/>
	<path style="fill:#E6E9EE;" d="M328.4,261.6h8.8v23.2h-4.4V266h-4v-4.4H328.4z"/>
	<path style="fill:#E6E9EE;" d="M350.4,284.8c-2.8,0-5.2-1.2-6.8-3.2c-1.6-2-2.4-5.2-2.4-8.8c0-3.6,0.8-6.4,2.4-8.8   c1.6-2,3.6-3.2,6.8-3.2c2.8,0,5.2,1.2,6.8,3.2c1.6,2,2.4,5.2,2.4,8.8c0,3.6-0.8,6.4-2.4,8.8C355.6,284,353.2,284.8,350.4,284.8z    M347.2,267.6c-0.8,1.6-1.2,3.2-1.2,5.6s0.4,4,1.2,5.6c0.8,1.6,1.6,2,3.2,2s2.4-0.8,3.2-2c0.8-1.6,1.2-3.2,1.2-5.6s-0.4-4-1.2-5.6   c-0.8-1.6-1.6-2-3.2-2C348.8,265.2,348,266,347.2,267.6z"/>
</g>
<g>
	<path style="fill:#324A5E;" d="M274,341.2v-16.8l-16.4-4.4c-1.2-4.4-2.8-8.8-5.2-12.4l8.4-14.8l-11.6-11.6l-14.4,8.8   c-4-2.4-8-4-12.4-5.2l-4.4-16.4h-16.8l-4.4,16.4c-4.4,1.2-8.8,2.8-12.4,5.2l-14.4-8.8l-12,12l8.4,14.8c-2.4,4-4,8-5.2,12.4   l-16.4,4.4v16.8l16.4,4.4c1.2,4.4,2.8,8.8,5.2,12.4l-8.4,14l11.6,11.6l14.8-8.4c4,2.4,8,4,12.4,5.2l4.4,16.4H218l4.4-16.4   c4.4-1.2,8.8-2.8,12.4-5.2l14.8,8.4l11.6-11.6l-8.8-14.4c2.4-4,4-8,5.2-12.4L274,341.2z M209.6,359.6c-14.8,0-26.8-12-26.8-26.8   s12-26.8,26.8-26.8s26.8,12,26.8,26.8C236.4,347.6,224.4,359.6,209.6,359.6z"/>
	<path style="fill:#324A5E;" d="M361.2,269.2l-5.6-11.2l-12.4,2.4c-2.4-2.8-4.8-4.8-7.6-6.8l0.8-12.8l-12-4l-7.2,10.8   c-3.2-0.4-6.8,0-10,0.8l-8.4-9.6l-11.2,5.6l2.4,12.4c-2.8,2.4-4.8,4.8-6.8,7.6l-12.8-0.8l-4,12l10.8,7.2c-0.4,3.2,0,6.8,0.8,10   l-9.6,8.4l5.6,11.2l12.4-2.4c2.4,2.8,4.8,4.8,7.6,6.8l-0.8,12.8l12,4l7.2-10.8c3.2,0.4,6.8,0,10-0.8l8.4,9.6L342,326l-2.4-12.4   c2.8-2.4,4.8-4.8,6.8-7.6l12.8,0.8l4-12l-10.8-7.2c0.4-3.2,0-6.8-0.8-10L361.2,269.2z M323.6,302.8c-10,4.8-22,0.8-26.8-9.2   s-0.8-22,9.2-26.8s22-0.8,26.8,9.2C338,286,333.6,298,323.6,302.8z"/>
</g>
<circle style="fill:#84DBFF;" cx="360.4" cy="108.4" r="11.2"/>
<circle style="fill:#FFD05B;" cx="326.8" cy="108.4" r="11.2"/>
<circle style="fill:#CED5E0;" cx="293.2" cy="108.4" r="11.2"/>
<g>
</g>
<g>
</g>
<g>
</g>
<g>
</g>
<g>
</g>
<g>
</g>
<g>
</g>
<g>
</g>
<g>
</g>
<g>
</g>
<g>
</g>
<g>
</g>
<g>
</g>
<g>
</g>
<g>
</g>
</svg>
