<?xml version="1.0" encoding="iso-8859-1"?>
<!-- Generator: Adobe Illustrator 19.0.0, SVG Export Plug-In . SVG Version: 6.00 Build 0)  -->
<svg xmlns="http://www.w3.org/2000/svg" xmlns:xlink="http://www.w3.org/1999/xlink" version="1.1" id="Layer_1" x="0px" y="0px" viewBox="0 0 508 508" style="enable-background:new 0 0 508 508;" xml:space="preserve">
<circle style="fill:#FD8469;" cx="254" cy="254" r="254"/>
<path style="fill:#FFFFFF;" d="M120,117.2V292c0,4,3.2,7.2,7.2,7.2h254c4,0,7.2-3.2,7.2-7.2V117.2c0-4-3.2-7.2-7.2-7.2h-254  C123.2,110,120,113.2,120,117.2z"/>
<rect x="135.6" y="125.6" style="fill:#324A5E;" width="237.2" height="158"/>
<path style="fill:#E6E9EE;" d="M377.6,309.2H130.4c-5.6,0-11.6,2.8-13.6,6.4l-33.2,71.6c-2.8,5.6,1.2,10.4,8.8,10.4h323.2  c7.6,0,11.6-4.8,8.8-10.4l-33.2-71.6C389.2,312,383.2,309.2,377.6,309.2z"/>
<g>
	<path style="fill:#ACB3BA;" d="M398.8,354.8c-8.4-18-16.8-36.4-16.8-36.4c-0.4-0.4-2.4-1.6-4.4-1.6H130.4c-2,0-4,1.2-4.4,1.6   c0,0-8.4,18.4-16.8,36.4H398.8z"/>
	<polygon style="fill:#ACB3BA;" points="303.6,391.6 204.4,391.6 215.2,360.4 292.8,360.4  "/>
</g>
<path style="fill:#FFFFFF;" d="M303.2,191.6c-6,0-11.2,4.4-12.8,10h-28l20-20c4.8,2.8,11.2,2,15.6-2c5.2-5.2,5.2-13.2,0-18.4  s-13.2-5.2-18.4,0c-4.4,4.4-4.8,10.8-2,16l-20,20v-28.4c5.6-1.6,9.6-6.4,9.6-12.4c0-7.2-6-13.2-13.2-13.2c-7.2,0-13.2,6-13.2,13.2  c0,6,4.4,11.2,10,12.8v28.4l-20.4-20.4c2.8-4.8,2.4-11.6-2-15.6c-5.2-5.2-13.2-5.2-18.4,0s-5.2,13.2,0,18.4c4.4,4.4,10.8,4.8,15.6,2  l20.4,20.4h-28c-1.2-5.6-6.4-10-12.8-10c-7.2,0-13.2,6-13.2,13.2s6,13.2,13.2,13.2c6,0,10.8-4,12.4-9.6H246l-20,20  c-5.2-3.2-11.6-2.4-16,2c-5.2,5.2-5.2,13.2,0,18.4s13.2,5.2,18.4,0c4-4,4.8-10.4,2-15.6l20-20v28c-5.6,1.2-10,6.4-10,12.8  c0,7.2,6,13.2,13.2,13.2c7.2,0,13.2-6,13.2-13.2c0-6-4-10.8-9.6-12.4v-28l19.6,19.6c-2.8,4.8-2.4,11.6,2,15.6  c5.2,5.2,13.2,5.2,18.4,0c5.2-5.2,5.2-13.2,0-18.4c-4.4-4.4-10.8-4.8-15.6-2L262,209.6h28c1.6,5.6,6.4,9.6,12.4,9.6  c7.2,0,13.2-6,13.2-13.2C316,197.2,310.4,191.6,303.2,191.6z"/>
<g>
</g>
<g>
</g>
<g>
</g>
<g>
</g>
<g>
</g>
<g>
</g>
<g>
</g>
<g>
</g>
<g>
</g>
<g>
</g>
<g>
</g>
<g>
</g>
<g>
</g>
<g>
</g>
<g>
</g>
</svg>
