<?xml version="1.0" encoding="iso-8859-1"?>
<!-- Generator: Adobe Illustrator 19.0.0, SVG Export Plug-In . SVG Version: 6.00 Build 0)  -->
<svg xmlns="http://www.w3.org/2000/svg" xmlns:xlink="http://www.w3.org/1999/xlink" version="1.1" id="Layer_1" x="0px" y="0px" viewBox="0 0 508 508" style="enable-background:new 0 0 508 508;" xml:space="preserve">
<circle style="fill:#FFD05B;" cx="254" cy="254" r="254"/>
<polygon style="fill:#324A5E;" points="322.8,412.8 342.8,412.8 352.8,377.6 338.8,362 338.8,250.4 326.4,250.4 326.4,362   312.4,377.6 "/>
<path style="fill:#84DBFF;" d="M302.4,237.6c2.4-2.4,3.6-5.2,3.6-8.8s-1.2-6.4-3.6-8.8c-2.4-2.4-5.2-3.6-8.8-3.6v-108  c0-7.2,6-13.2,13.2-13.2h51.6c7.2,0,13.2,6,13.2,13.2v108c-6.8,0-12.4,5.6-12.4,12.4c0,3.6,1.2,6.4,3.6,8.8c2.4,2.4,5.2,3.6,8.8,3.6  v16h-78v-16C297.2,241.2,300.4,239.6,302.4,237.6z"/>
<g>
	<path style="fill:#54C0EB;" d="M332.8,111.2L332.8,111.2c2.4,0,4.4,2,4.4,4.4v82.8c0,2.4-2,4.4-4.4,4.4l0,0c-2.4,0-4.4-2-4.4-4.4   v-82.8C328.4,113.2,330.4,111.2,332.8,111.2z"/>
	<path style="fill:#54C0EB;" d="M353.2,111.2L353.2,111.2c2.4,0,4.4,2,4.4,4.4V198c0,2.4-2,4.4-4.4,4.4l0,0c-2.4,0-4.4-2-4.4-4.4   v-82.8C348.8,113.2,350.8,111.2,353.2,111.2z"/>
	<path style="fill:#54C0EB;" d="M312.4,111.2L312.4,111.2c2.4,0,4.4,2,4.4,4.4v82.8c0,2.4-2,4.4-4.4,4.4l0,0c-2.4,0-4.4-2-4.4-4.4   v-82.8C307.6,113.2,309.6,111.2,312.4,111.2z"/>
</g>
<rect x="162" y="179.2" style="fill:#CED5E0;" width="48.8" height="146.4"/>
<g>
	<path style="fill:#FFFFFF;" d="M224.4,177.6c-18.8,18.8-49.6,18.8-68.4,0s-18.8-49.6,0-68.4c12.4-12.4,30.4-16.8,46.4-12.4l-28,28   l0,0l12,22.4l22.4,12l0,0l28-28C241.2,147.6,237.2,165.2,224.4,177.6z"/>
	<path style="fill:#FFFFFF;" d="M184.8,316c-26.8,0-48.4,21.6-48.4,48.4s21.6,48.4,48.4,48.4s48.4-21.6,48.4-48.4   C232.8,337.6,211.2,316,184.8,316z M218,378.4l-8,3.2v8.4h-8.4l-3.2,8l-8-3.2l-6,6l-6-6l-8,3.2l-3.2-8h-8.4v-8.4l-8-3.2l3.2-8l-6-6   l6-6l-3.2-8l8-3.2v-8.4h8.4l3.2-8l8,3.2l6-6l6,6l8-3.2l3.2,8h8.4v8.4l8,3.2l-3.2,8l6,6l-6,6L218,378.4z"/>
</g>
<g>
</g>
<g>
</g>
<g>
</g>
<g>
</g>
<g>
</g>
<g>
</g>
<g>
</g>
<g>
</g>
<g>
</g>
<g>
</g>
<g>
</g>
<g>
</g>
<g>
</g>
<g>
</g>
<g>
</g>
</svg>
