<?xml version="1.0" encoding="iso-8859-1"?>
<!-- Generator: Adobe Illustrator 19.0.0, SVG Export Plug-In . SVG Version: 6.00 Build 0)  -->
<svg xmlns="http://www.w3.org/2000/svg" xmlns:xlink="http://www.w3.org/1999/xlink" version="1.1" id="Layer_1" x="0px" y="0px" viewBox="0 0 508 508" style="enable-background:new 0 0 508 508;" xml:space="preserve">
<circle style="fill:#324A5E;" cx="254" cy="254" r="254"/>
<path style="fill:#FF7058;" d="M388.8,384l-10-248.8H129.2l-10,248.8c-0.4,11.6,8.8,20.8,20,20.8h229.2  C380,404.8,389.2,395.2,388.8,384z"/>
<polygon style="fill:#E6E9EE;" points="378.8,135.2 336.8,114 336.8,135.2 "/>
<polygon style="fill:#F1543F;" points="336.8,114 372,103.2 372,132 "/>
<polygon style="fill:#E6E9EE;" points="129.2,135.2 171.2,114 171.2,135.2 "/>
<polygon style="fill:#F1543F;" points="171.2,114 136,103.2 136,132 "/>
<polygon style="fill:#FFFFFF;" points="136,103.2 372,103.2 336.8,114 336.8,135.2 171.2,135.2 171.2,114 "/>
<path style="fill:#E6E9EE;" d="M254,320.4c-37.2,0-67.6-30.4-67.6-67.6v-49.2h16v49.2c0,28.4,23.2,51.6,51.6,51.6  s51.6-23.2,51.6-51.6v-49.2h16v49.2C321.6,290,291.2,320.4,254,320.4z"/>
<g>
	<circle style="fill:#FFFFFF;" cx="313.6" cy="203.6" r="16.4"/>
	<circle style="fill:#FFFFFF;" cx="194.4" cy="203.6" r="16.4"/>
</g>
<g>
</g>
<g>
</g>
<g>
</g>
<g>
</g>
<g>
</g>
<g>
</g>
<g>
</g>
<g>
</g>
<g>
</g>
<g>
</g>
<g>
</g>
<g>
</g>
<g>
</g>
<g>
</g>
<g>
</g>
</svg>
