<?xml version="1.0" encoding="iso-8859-1"?>
<!-- Generator: Adobe Illustrator 19.0.0, SVG Export Plug-In . SVG Version: 6.00 Build 0)  -->
<svg xmlns="http://www.w3.org/2000/svg" xmlns:xlink="http://www.w3.org/1999/xlink" version="1.1" id="Layer_1" x="0px" y="0px" viewBox="0 0 508 508" style="enable-background:new 0 0 508 508;" xml:space="preserve">
<circle style="fill:#FD8469;" cx="254" cy="254" r="254"/>
<g>
	<path style="fill:#324A5E;" d="M334,335.6v-66h-16v74c0,4.4,3.6,8,8,8h99.6v-16H334z"/>
	<path style="fill:#324A5E;" d="M304.8,269.6h-16v106c0,4.4,3.6,8,8,8h99.6v-16h-91.6V269.6z"/>
	<path style="fill:#324A5E;" d="M189.6,343.6v-74h-16v66H82.4v16H182C186,351.6,189.6,348,189.6,343.6z"/>
	<path style="fill:#324A5E;" d="M203.2,367.2h-91.6v16h99.6c4.4,0,8-3.6,8-8V269.6h-16V367.2z"/>
	<rect x="246" y="269.6" style="fill:#324A5E;" width="16" height="149.2"/>
</g>
<path style="fill:#E6E9EE;" d="M358.4,168.8c0-1.2,0-2.4,0-3.6c0-26-21.2-47.2-47.2-47.2c-11.2,0-21.6,4-29.6,10.4  c-12-22.8-36-38.8-63.6-38.8c-39.6,0-71.2,32-71.2,71.2c0,2.8,0,5.2,0.4,8c-29.2,2.8-52.4,27.6-52.4,57.6c0,32,26,57.6,57.6,57.6  h202.8c32,0,57.6-26,57.6-57.6C413.2,195.6,388.8,170.4,358.4,168.8z"/>
<g>
</g>
<g>
</g>
<g>
</g>
<g>
</g>
<g>
</g>
<g>
</g>
<g>
</g>
<g>
</g>
<g>
</g>
<g>
</g>
<g>
</g>
<g>
</g>
<g>
</g>
<g>
</g>
<g>
</g>
</svg>
