<?xml version="1.0" encoding="iso-8859-1"?>
<!-- Generator: Adobe Illustrator 19.0.0, SVG Export Plug-In . SVG Version: 6.00 Build 0)  -->
<svg xmlns="http://www.w3.org/2000/svg" xmlns:xlink="http://www.w3.org/1999/xlink" version="1.1" id="Layer_1" x="0px" y="0px" viewBox="0 0 508 508" style="enable-background:new 0 0 508 508;" xml:space="preserve">
<circle style="fill:#90DFAA;" cx="254" cy="254" r="254"/>
<path style="fill:#2C9984;" d="M50.4,406C96.8,468,170.8,508,254,508s157.2-40,203.6-102H50.4z"/>
<rect x="204.4" y="357.6" style="fill:#2B3B4E;" width="99.2" height="32"/>
<g>
	<path style="fill:#324A5E;" d="M324,389.6H184c-5.2,0-9.2,4-9.2,9.2l0,0c0,5.2,4,9.2,9.2,9.2h139.6c5.2,0,9.2-4,9.2-9.2l0,0   C332.8,393.6,328.8,389.6,324,389.6z"/>
	<path style="fill:#324A5E;" d="M395.6,361.6H112.4c-13.6,0-24.8-11.2-24.8-24.8v-190c0-13.6,11.2-24.8,24.8-24.8h283.2   c13.6,0,24.8,11.2,24.8,24.8v189.6C420.4,350.4,409.2,361.6,395.6,361.6z"/>
</g>
<rect x="105.2" y="139.6" style="fill:#E6E9EE;" width="297.6" height="179.2"/>
<circle style="fill:#ACB3BA;" cx="254" cy="339.2" r="10"/>
<path style="fill:#FFD05B;" d="M435.6,329.6c13.2,13.2,16,31.2,6.8,40.4c-9.2,9.2-27.2,6.4-40.4-6.8s-79.2-94-69.6-103.2  C341.6,250.8,422.4,316.4,435.6,329.6z"/>
<path style="fill:#F9B54C;" d="M365.6,262l-31.2,31.2l10,10c2.8,2.8,7.6,2.8,10.4,0l20.8-20.8c2.8-2.8,2.8-7.6,0-10.4L365.6,262z"/>
<circle style="fill:#54C0EB;" cx="302" cy="229.6" r="74.8"/>
<circle style="fill:#FFFFFF;" cx="302" cy="229.6" r="57.6"/>
<ellipse style="fill:#E6E9EE;" cx="302" cy="193.2" rx="18.8" ry="9.2"/>
<g>
</g>
<g>
</g>
<g>
</g>
<g>
</g>
<g>
</g>
<g>
</g>
<g>
</g>
<g>
</g>
<g>
</g>
<g>
</g>
<g>
</g>
<g>
</g>
<g>
</g>
<g>
</g>
<g>
</g>
</svg>
