<?xml version="1.0" encoding="iso-8859-1"?>
<!-- Generator: Adobe Illustrator 19.0.0, SVG Export Plug-In . SVG Version: 6.00 Build 0)  -->
<svg xmlns="http://www.w3.org/2000/svg" xmlns:xlink="http://www.w3.org/1999/xlink" version="1.1" id="Layer_1" x="0px" y="0px" viewBox="0 0 508 508" style="enable-background:new 0 0 508 508;" xml:space="preserve">
<circle style="fill:#324A5E;" cx="254" cy="254" r="254"/>
<path style="fill:#E6E9EE;" d="M194,381.6h-63.2c-9.2,0-16.8-7.6-16.8-16.8V216c0-9.2,7.6-16.8,16.8-16.8H194  c9.2,0,16.8,7.6,16.8,16.8v149.2C210.8,374,203.6,381.6,194,381.6z"/>
<path style="fill:#FFD05B;" d="M376.8,256h-8.4c9.2,0,16.8,7.6,16.8,16.8c0,4.8-2,8.8-4.8,12c-3.2,3.2-7.2,4.8-12,4.8h-7.6  c9.2,0,16.8,7.6,16.8,16.8c0,4.8-2,8.8-4.8,12c-3.2,3.2-7.2,4.8-12,4.8H354c9.2,0,16.8,7.6,16.8,16.8c0,4.8-2,8.8-4.8,12  c-3.2,3.2-7.2,4.8-12,4.8H234.8c-13.2,0-23.6-10.8-23.6-23.6v-90.8c0-7.2,3.2-14,8.8-18.4l19.6-15.6c22-17.6,28.8-22.4,28.8-49.6  c0-10-1.6-20-5.2-30c1.2-0.4,2.4-0.8,3.6-1.2c33.6-8,50,24.8,40.8,58.4l-4.8,15.2c-2.8,10.8,5.2,21.2,16,21.2h58  c9.2,0,16.8,7.6,16.8,16.8c0,4.8-2,8.8-4.8,12C385.6,254.4,381.6,256,376.8,256z"/>
<circle style="fill:#324A5E;" cx="152" cy="347.6" r="15.2"/>
<g>
</g>
<g>
</g>
<g>
</g>
<g>
</g>
<g>
</g>
<g>
</g>
<g>
</g>
<g>
</g>
<g>
</g>
<g>
</g>
<g>
</g>
<g>
</g>
<g>
</g>
<g>
</g>
<g>
</g>
</svg>
