<?xml version="1.0" encoding="iso-8859-1"?>
<!-- Generator: Adobe Illustrator 19.0.0, SVG Export Plug-In . SVG Version: 6.00 Build 0)  -->
<svg xmlns="http://www.w3.org/2000/svg" xmlns:xlink="http://www.w3.org/1999/xlink" version="1.1" id="Layer_1" x="0px" y="0px" viewBox="0 0 508 508" style="enable-background:new 0 0 508 508;" xml:space="preserve">
<circle style="fill:#84DBFF;" cx="254" cy="254" r="254"/>
<path style="fill:#E6E9EE;" d="M394,389.6H114c-5.2,0-9.2-4-9.2-9.2V127.6c0-5.2,4-9.2,9.2-9.2h280c5.2,0,9.2,4,9.2,9.2V380  C403.2,385.2,399.2,389.6,394,389.6z"/>
<polygon style="fill:#324A5E;" points="374.8,146.8 374.8,306.4 310.8,306.4 310.8,334 287.6,334 287.6,361.2 220.4,361.2   220.4,334 197.2,334 197.2,306.4 133.2,306.4 133.2,146.8 "/>
<g>
	<rect x="158.4" y="169.6" style="fill:#FFD05B;" width="12" height="38.4"/>
	<rect x="184" y="169.6" style="fill:#FFD05B;" width="12" height="38.4"/>
	<rect x="209.6" y="169.6" style="fill:#FFD05B;" width="12" height="38.4"/>
	<rect x="235.2" y="169.6" style="fill:#FFD05B;" width="12" height="38.4"/>
	<rect x="260.8" y="169.6" style="fill:#FFD05B;" width="12" height="38.4"/>
	<rect x="286.4" y="169.6" style="fill:#FFD05B;" width="12" height="38.4"/>
	<rect x="312" y="169.6" style="fill:#FFD05B;" width="12" height="38.4"/>
	<rect x="337.6" y="169.6" style="fill:#FFD05B;" width="12" height="38.4"/>
</g>
<g>
</g>
<g>
</g>
<g>
</g>
<g>
</g>
<g>
</g>
<g>
</g>
<g>
</g>
<g>
</g>
<g>
</g>
<g>
</g>
<g>
</g>
<g>
</g>
<g>
</g>
<g>
</g>
<g>
</g>
</svg>
