<?xml version="1.0" encoding="iso-8859-1"?>
<!-- Generator: Adobe Illustrator 19.0.0, SVG Export Plug-In . SVG Version: 6.00 Build 0)  -->
<svg xmlns="http://www.w3.org/2000/svg" xmlns:xlink="http://www.w3.org/1999/xlink" version="1.1" id="Layer_1" x="0px" y="0px" viewBox="0 0 508 508" style="enable-background:new 0 0 508 508;" xml:space="preserve">
<circle style="fill:#324A5E;" cx="254" cy="254" r="254"/>
<path style="fill:#FFD05B;" d="M248.8,238.4c-2.8-2.8-2.8-6.8,0-9.6c22.8-22.8,35.6-53.6,35.6-86v-0.4c0-22,18-39.6,39.6-39.6  c22,0,39.6,17.6,39.6,39.6v36.4c0,15.2,6,29.6,16.8,40.4c10.8,10.8,25.2,16.8,40.4,16.8c3.6,0,6.8,3.2,6.8,6.8s-3.2,6.8-6.8,6.8  c-18.8,0-36.4-7.2-50-20.8c-13.2-13.2-20.8-31.2-20.8-50v-36.4c0-14.4-11.6-26-26-26s-26,11.6-26,26v0.4c0,36-14,70-39.6,95.6  C256,241.2,251.6,241.2,248.8,238.4z"/>
<path style="fill:#CED5E0;" d="M101.2,384.4L101.2,384.4c-28-28-28-72.8,0-100.8l60.4-60.4c28-28,72.8-28,100.8,0l0,0  c28,28,28,72.8,0,100.8L202,384.4C174.4,412,129.2,412,101.2,384.4z"/>
<path style="fill:#ACB3BA;" d="M264,224.8l-69.6,69.6l-3.2-3.2l69.6-69.6c0.4,0.4,1.2,1.2,1.6,1.6C262.8,224,263.6,224.4,264,224.8z  "/>
<path style="fill:#FFFFFF;" d="M241.6,244L241.6,244c-4-4-10.8-4-14.8,0l-22,22c-4,4-4,10.8,0,14.8l0,0c4,4,10.8,4,14.8,0l22-22  C245.6,254.8,245.6,248,241.6,244z"/>
<g>
</g>
<g>
</g>
<g>
</g>
<g>
</g>
<g>
</g>
<g>
</g>
<g>
</g>
<g>
</g>
<g>
</g>
<g>
</g>
<g>
</g>
<g>
</g>
<g>
</g>
<g>
</g>
<g>
</g>
</svg>
