<?xml version="1.0" encoding="iso-8859-1"?>
<!-- Generator: Adobe Illustrator 19.0.0, SVG Export Plug-In . SVG Version: 6.00 Build 0)  -->
<svg xmlns="http://www.w3.org/2000/svg" xmlns:xlink="http://www.w3.org/1999/xlink" version="1.1" id="Layer_1" x="0px" y="0px" viewBox="0 0 508 508" style="enable-background:new 0 0 508 508;" xml:space="preserve">
<circle style="fill:#90DFAA;" cx="254" cy="254" r="254"/>
<path style="fill:#2C9984;" d="M37.6,386.8C82,459.6,162.4,508,254,508s172-48.4,216.4-121.2H37.6z"/>
<path style="fill:#324A5E;" d="M90.8,128.8v212.8c0,4.8,4,8.8,8.8,8.8h309.2c4.8,0,8.8-4,8.8-8.8V128.8c0-4.8-4-8.8-8.8-8.8H99.2  C94.4,120.4,90.8,124,90.8,128.8z"/>
<rect x="109.6" y="139.2" style="fill:#54C0EB;" width="288.8" height="192.4"/>
<path style="fill:#E6E9EE;" d="M408.8,387.6H99.2c-12.8,0-23.2-10.4-23.2-23.2V350h356v14.4C432,377.2,421.6,387.6,408.8,387.6z"/>
<polygon style="fill:#ACB3BA;" points="308,350.4 204.4,350.4 216.8,366.8 295.6,366.8 "/>
<g>
</g>
<g>
</g>
<g>
</g>
<g>
</g>
<g>
</g>
<g>
</g>
<g>
</g>
<g>
</g>
<g>
</g>
<g>
</g>
<g>
</g>
<g>
</g>
<g>
</g>
<g>
</g>
<g>
</g>
</svg>
