<?xml version="1.0" encoding="iso-8859-1"?>
<!-- Generator: Adobe Illustrator 19.0.0, SVG Export Plug-In . SVG Version: 6.00 Build 0)  -->
<svg xmlns="http://www.w3.org/2000/svg" xmlns:xlink="http://www.w3.org/1999/xlink" version="1.1" id="Layer_1" x="0px" y="0px" viewBox="0 0 508 508" style="enable-background:new 0 0 508 508;" xml:space="preserve">
<circle style="fill:#FFD05B;" cx="254" cy="254" r="254"/>
<rect x="110.4" y="96.4" style="fill:#FFFFFF;" width="287.2" height="315.2"/>
<g>
	<rect x="150" y="154.8" style="fill:#ACB3BA;" width="208" height="43.6"/>
	<rect x="150" y="232.4" style="fill:#ACB3BA;" width="208" height="43.6"/>
</g>
<rect x="150" y="309.6" style="fill:#54C0EB;" width="208" height="43.6"/>
<g>
	<path style="fill:#2B3B4E;" d="M193.2,180.8c0.8,0.8,1.6,1.2,3.2,1.2c1.2,0,2.4-0.4,3.2-1.2s1.2-2,1.2-3.6V168h2.8v9.2   c0,2.4-0.8,4.4-2,5.6c-1.2,1.2-2.8,2-5.2,2c-2,0-3.6-0.8-5.2-2c-1.2-1.2-2-3.2-2-5.6V168h2.8v9.2C192,178.8,192.4,180,193.2,180.8z   "/>
	<path style="fill:#2B3B4E;" d="M216,180.8c0,1.2-0.4,2-1.2,2.8s-2,1.2-3.2,1.2c-0.8,0-2,0-2.8-0.4s-2-0.8-2.8-1.2l1.2-2   c1.6,1.2,2.8,1.6,4.4,1.6c0.4,0,1.2,0,1.6-0.4c0.4-0.4,0.4-0.8,0.4-1.2c0-0.8-0.8-1.2-2.4-1.6h-0.4c-2.8-0.8-4-2-4-3.6   c0-1.2,0.4-2,1.2-2.8s2-1.2,3.6-1.2s2.8,0.4,4,1.2l-0.8,2c-1.2-0.8-2-1.2-3.2-1.2c-0.8,0-1.2,0-1.6,0.4c-0.4,0.4-0.4,0.4-0.4,1.2   c0,0.4,0.4,0.8,0.8,0.8c0.4,0,0.8,0.4,1.2,0.4s0.8,0.4,1.2,0.4s0.8,0.4,1.2,0.4s0.8,0.4,1.2,0.8C215.6,178.8,216,179.6,216,180.8z"/>
	<path style="fill:#2B3B4E;" d="M230.8,179.6h-10c0,0.8,0.4,1.6,1.2,2.4c0.8,0.4,1.6,0.8,2.8,0.8c1.6,0,2.8-0.4,3.6-1.6l1.6,1.6   c-1.2,1.6-3.2,2-5.2,2c-1.6,0-3.2-0.4-4.4-1.6c-1.6-1.2-2.4-2.8-2.4-4.8s0.8-3.6,2-4.8s2.8-1.6,4.4-1.6c1.6,0,3.2,0.4,4.4,1.6   c1.2,1.2,1.6,2.4,1.6,4.4v1.6H230.8z M220.8,177.6h7.2c0-1.2-0.4-2-0.8-2.4c-0.8-0.4-1.6-0.8-2.4-0.8c-0.8,0-2,0.4-2.8,0.8   C221.2,175.6,220.8,176.4,220.8,177.6z"/>
	<path style="fill:#2B3B4E;" d="M240,174.4c-1.2,0-2.4,0.4-2.8,1.2c-0.8,0.8-0.8,2-0.8,3.6v5.2h-2.8V172h2.8v2.4   c0.4-0.8,1.2-1.6,1.6-2c0.8-0.4,1.6-0.8,2.4-0.8L240,174.4C240.4,174.4,240,174.4,240,174.4z"/>
	<path style="fill:#2B3B4E;" d="M262,168h2.8v16.4H262l-9.2-12v12H250V168h2.8l9.6,12.4V168H262z"/>
	<path style="fill:#2B3B4E;" d="M279.2,184.8h-2.4v-1.6c-1.2,1.2-2.4,2-4,2c-1.2,0-2.4-0.4-3.2-1.2c-0.8-0.8-1.2-1.6-1.2-2.8   s0.4-2,1.2-2.8c0.8-0.8,2-0.8,3.6-0.8h3.6v-0.4c0-1.6-0.8-2.4-2.8-2.4c-1.2,0-2.4,0.4-3.6,1.2l-1.2-1.6c1.6-1.2,3.2-2,5.2-2   c1.6,0,2.8,0.4,3.6,1.2c0.8,0.8,1.6,2,1.6,3.6v7.6H279.2z M276.8,180v-1.2H274c-2,0-2.8,0.4-2.8,1.6c0,0.8,0.4,1.2,0.8,1.6   c0.4,0.4,1.2,0.4,2,0.4s1.6-0.4,2.4-0.8C276.4,181.6,276.8,180.8,276.8,180z"/>
	<path style="fill:#2B3B4E;" d="M285.6,178v6.8h-2.8v-12.4h2.8v2.4c0.4-0.8,0.8-1.2,1.6-2c0.8-0.4,1.6-0.8,2.4-0.8   c2,0,3.2,0.8,4,2.4c1.2-1.6,2.8-2.4,4.8-2.4c1.6,0,2.4,0.4,3.6,1.2c0.8,0.8,1.2,2,1.2,3.6v7.6h-2.8v-6.8c0-2.4-0.8-3.6-2.8-3.6   c-0.8,0-1.6,0.4-2.4,0.8c-0.8,0.4-1.2,1.6-1.2,2.4v6.8h-2.8v-6.8c0-1.2-0.4-2-0.8-2.8c-0.4-0.4-1.2-0.8-2-0.8s-1.6,0.4-2.4,0.8   C286,176,285.6,176.8,285.6,178z"/>
	<path style="fill:#2B3B4E;" d="M318.8,179.6h-10c0,0.8,0.4,1.6,1.2,2.4c0.8,0.4,1.6,0.8,2.8,0.8c1.6,0,2.8-0.4,3.6-1.6l1.6,1.6   c-1.2,1.6-3.2,2-5.2,2c-1.6,0-3.2-0.4-4.4-1.6c-1.6-1.2-2.4-2.8-2.4-4.8s0.8-3.6,2-4.8s2.8-1.6,4.4-1.6s3.2,0.4,4.4,1.6   c1.2,1.2,1.6,2.4,1.6,4.4v1.6H318.8z M308.8,177.6h7.2c0-1.2-0.4-2-0.8-2.4c-0.8-0.4-1.6-0.8-2.4-0.8s-2,0.4-2.8,0.8   C309.2,175.6,308.8,176.4,308.8,177.6z"/>
</g>
<g>
	<polygon style="fill:#FFFFFF;" points="220,322 217.6,322 217.6,338.4 227.6,338.4 227.6,336 220,336  "/>
	<path style="fill:#FFFFFF;" d="M238,321.6c-2.4,0-4.4,0.8-6,2.4s-2.4,3.6-2.4,6s0.8,4.4,2.4,6c1.6,1.6,3.6,2.4,6,2.4s4.4-0.8,6-2.4   s2.4-3.6,2.4-6s-0.8-4.4-2.4-6C242.4,322.4,240.4,321.6,238,321.6z M242,334.4c-1.2,1.2-2.4,1.6-4,1.6s-3.2-0.4-4-1.6   c-1.2-1.2-1.6-2.4-1.6-4.4c0-1.6,0.4-3.2,1.6-4.4c1.2-1.2,2.4-1.6,4-1.6s3.2,0.4,4,1.6c1.2,1.2,1.6,2.4,1.6,4.4   S243.2,333.2,242,334.4z"/>
	<path style="fill:#FFFFFF;" d="M261.6,335.2c-1.2,0.8-2.4,1.2-4,1.2s-2.8-0.4-4-1.6c-1.2-1.2-1.6-2.4-1.6-4.4   c0-1.6,0.4-3.2,1.6-4.4c1.2-1.2,2.4-1.6,4.4-1.6c0.8,0,1.6,0,2.4,0.4s1.2,0.4,2,1.2l1.6-2c-1.6-1.2-3.6-2-6-2s-4.4,0.8-6,2.4   s-2.4,3.6-2.4,6s0.8,4.4,2.4,6c1.6,1.6,3.6,2.4,6,2.4c2.8,0,5.2-0.8,6.8-2.4v-5.6H262v4.4H261.6z"/>
	<rect x="268" y="322" style="fill:#FFFFFF;" width="2.8" height="16.4"/>
	<polygon style="fill:#FFFFFF;" points="288,322 288,334.4 278.4,322 275.6,322 275.6,338.4 278.4,338.4 278.4,326.4 287.6,338.4    290.4,338.4 290.4,322  "/>
</g>
<g>
	<path style="fill:#324A5E;" d="M199.6,259.2l-4.4-3.2l0.4,5.6h-3.2l0.4-5.6l-4.4,3.2l-1.6-2.8l4.8-2.4l-4.8-2.4l1.6-2.8l4.4,2.8   l-0.4-5.2h3.2l-0.4,5.2l4.4-2.8l1.6,2.8l-4.8,2.4l4.8,2.4L199.6,259.2z"/>
	<path style="fill:#324A5E;" d="M223.6,259.2l-4.4-3.2l0.4,5.6h-3.2l0.4-5.6l-4.4,3.2l-1.6-2.8l4.8-2.4l-4.8-2.4l1.6-2.8l4.4,2.8   l-0.4-5.2h3.2l-0.4,5.2l4.4-2.8l1.6,2.8l-4.8,2.4l4.8,2.4L223.6,259.2z"/>
	<path style="fill:#324A5E;" d="M247.6,259.2l-4.4-3.2l0.4,5.6h-3.2l0.4-5.6l-4.4,3.2l-1.6-2.8l4.8-2.4l-4.8-2.4l1.6-2.8l4.4,2.8   l-0.4-5.2h3.2l-0.4,5.2l4.4-2.8l1.6,2.8l-4.8,2.4l4.8,2.4L247.6,259.2z"/>
	<path style="fill:#324A5E;" d="M271.6,259.2l-4.4-3.2l0.4,5.6h-3.2l0.4-5.6l-4.4,3.2l-1.6-2.8l4.8-2.4l-4.8-2.4l1.6-2.8l4.4,2.8   l-0.4-5.2h3.2l-0.4,5.2l4.4-2.8l1.6,2.8l-4.8,2.4l4.8,2.4L271.6,259.2z"/>
	<path style="fill:#324A5E;" d="M296,259.2l-4.4-3.2l0.4,5.6h-3.2l0.4-5.6l-4.4,3.2l-1.6-2.8l4.8-2.4l-4.8-2.4l1.6-2.8l4.4,2.8   l-0.4-5.2h3.2l-0.4,5.2l4.4-2.8l1.6,2.8l-5.2,2.4l4.8,2.4L296,259.2z"/>
	<path style="fill:#324A5E;" d="M320,259.2l-4.4-3.2l0.4,5.6h-3.2l0.4-5.6l-4.4,3.2l-1.6-2.8l4.8-2.4l-4.8-2.4l1.6-2.8l4.4,2.8   l-0.4-5.2h3.2l-0.4,5.2l4.4-2.8l1.6,2.8l-5.2,2.4l4.8,2.4L320,259.2z"/>
</g>
<g>
</g>
<g>
</g>
<g>
</g>
<g>
</g>
<g>
</g>
<g>
</g>
<g>
</g>
<g>
</g>
<g>
</g>
<g>
</g>
<g>
</g>
<g>
</g>
<g>
</g>
<g>
</g>
<g>
</g>
</svg>
