<?xml version="1.0" encoding="iso-8859-1"?>
<!-- Generator: Adobe Illustrator 19.0.0, SVG Export Plug-In . SVG Version: 6.00 Build 0)  -->
<svg xmlns="http://www.w3.org/2000/svg" xmlns:xlink="http://www.w3.org/1999/xlink" version="1.1" id="Layer_1" x="0px" y="0px" viewBox="0 0 508 508" style="enable-background:new 0 0 508 508;" xml:space="preserve">
<circle style="fill:#FD8469;" cx="254" cy="254" r="254"/>
<path style="fill:#E6E9EE;" d="M188.4,223.6v-70.4c0-36,29.6-65.6,65.6-65.6s65.6,29.6,65.6,65.6v70.4h30.8v-70.4  c0-53.2-43.2-96.4-96.4-96.4s-96.4,43.2-96.4,96.4v70.4H188.4z"/>
<path style="fill:#324A5E;" d="M365.2,414H142.8c-6,0-11.2-4.8-11.2-11.2V228c0-6,4.8-11.2,11.2-11.2h222.4c6,0,11.2,4.8,11.2,11.2  v174.8C376.4,408.8,371.6,414,365.2,414z"/>
<g>
	<rect x="320.8" y="253.2" style="fill:#FFFFFF;" width="55.6" height="27.6"/>
	<rect x="320.8" y="301.6" style="fill:#FFFFFF;" width="55.6" height="27.6"/>
	<rect x="320.8" y="349.6" style="fill:#FFFFFF;" width="55.6" height="27.6"/>
</g>
<g>
</g>
<g>
</g>
<g>
</g>
<g>
</g>
<g>
</g>
<g>
</g>
<g>
</g>
<g>
</g>
<g>
</g>
<g>
</g>
<g>
</g>
<g>
</g>
<g>
</g>
<g>
</g>
<g>
</g>
</svg>
