<?xml version="1.0" encoding="iso-8859-1"?>
<!-- Generator: Adobe Illustrator 19.0.0, SVG Export Plug-In . SVG Version: 6.00 Build 0)  -->
<svg xmlns="http://www.w3.org/2000/svg" xmlns:xlink="http://www.w3.org/1999/xlink" version="1.1" id="Layer_1" x="0px" y="0px" viewBox="0 0 508 508" style="enable-background:new 0 0 508 508;" xml:space="preserve">
<circle style="fill:#FD8469;" cx="254" cy="254" r="254"/>
<path style="fill:#324A5E;" d="M396.8,370H111.2c-8.8,0-16-7.2-16-16V154c0-8.8,7.2-16,16-16h285.6c8.8,0,16,7.2,16,16v200  C412.8,362.8,405.6,370,396.8,370z"/>
<rect x="122.8" y="165.6" style="fill:#4CDBC4;" width="262.4" height="177.2"/>
<g>
	<rect x="155.2" y="165.6" style="fill:#FFFFFF;" width="4" height="177.2"/>
	<rect x="194" y="165.6" style="fill:#FFFFFF;" width="4" height="177.2"/>
	<rect x="232.8" y="165.6" style="fill:#FFFFFF;" width="4" height="177.2"/>
	<rect x="271.2" y="165.6" style="fill:#FFFFFF;" width="4" height="177.2"/>
	<rect x="310" y="165.6" style="fill:#FFFFFF;" width="4" height="177.2"/>
	<rect x="348.8" y="165.6" style="fill:#FFFFFF;" width="4" height="177.2"/>
	<rect x="122.8" y="194" style="fill:#FFFFFF;" width="262.4" height="4"/>
	<rect x="122.8" y="232.8" style="fill:#FFFFFF;" width="262.4" height="4"/>
	<rect x="122.8" y="271.2" style="fill:#FFFFFF;" width="262.4" height="4"/>
	<rect x="122.8" y="310" style="fill:#FFFFFF;" width="262.4" height="4"/>
</g>
<path style="fill:#FF7058;" d="M204.8,331.2L204.8,331.2c-2.4,0-4-1.6-4.4-3.6L183.6,230l-14,40h-46.8v-8H164l22.4-63.6L206,311.6  l44-140c0.4-2,2.4-3.2,4-3.2l0,0c2,0,3.6,1.6,4,3.2l27.2,110.8l8-21.2h91.6v8h-86l-15.2,40.4l-30-123.6l-44.4,142  C208.4,330,206.8,331.2,204.8,331.2z"/>
<g>
</g>
<g>
</g>
<g>
</g>
<g>
</g>
<g>
</g>
<g>
</g>
<g>
</g>
<g>
</g>
<g>
</g>
<g>
</g>
<g>
</g>
<g>
</g>
<g>
</g>
<g>
</g>
<g>
</g>
</svg>
