<?xml version="1.0" encoding="iso-8859-1"?>
<!-- Generator: Adobe Illustrator 19.0.0, SVG Export Plug-In . SVG Version: 6.00 Build 0)  -->
<svg xmlns="http://www.w3.org/2000/svg" xmlns:xlink="http://www.w3.org/1999/xlink" version="1.1" id="Layer_1" x="0px" y="0px" viewBox="0 0 508 508" style="enable-background:new 0 0 508 508;" xml:space="preserve">
<circle style="fill:#90DFAA;" cx="254" cy="254" r="254"/>
<path style="fill:#F9B54C;" d="M320.8,321.2c-4.8-5.2-10-10.4-14.4-16.4c-2.4-3.2-3.2-6.8-3.2-10.8c-17.2-14-23.6-31.2-23.6-31.2  h-51.2c0,0-6.8,18.4-25.6,32.8c0,0.4,0,1.2,0,1.6c-0.4,15.6-8.8,24.4-20.8,29.6l4,44.8l68,7.6l67.6-7.6l4-46.8  C323.6,323.6,322,322.4,320.8,321.2z"/>
<path style="fill:#FFFFFF;" d="M338,328c-10,0-16.8-5.2-20.8-12.4c-39.6,21.6-86.4,22-126,0.4c-4,7.2-10.8,12.4-20.8,12.4  c-4,0-7.6-0.8-10.8-2.4c0,54.4,0,108.8,0,163.2c62.8,0,125.6,0,188.4,0c0-54.4,0-108.8,0-163.2C345.2,327.2,342,328,338,328z"/>
<path style="fill:#FFD05B;" d="M340.4,194c-1.6-0.8-4-0.4-6,0.4c2-10,3.2-20.4,3.2-30.8c0-59.6-38-71.2-85.2-71.2  s-85.2,12-85.2,71.2c0,10.4,1.2,20.8,3.2,30.8c-2-0.8-4-1.2-6-0.4c-5.6,2.4-6,12-1.2,22s13.2,16.4,18.8,14c0.4,0,0.8-0.4,1.2-0.4  c15.6,30.4,40.8,52,69.2,52s54-21.6,69.2-52c0.4,0.4,0.8,0.4,1.2,0.4c5.6,2.4,14-4,18.8-14C346.8,206,346,196,340.4,194z"/>
<path style="fill:#2B3B4E;" d="M312,82.8c11.6-7.2,25.2-13.2,37.6-13.2c0,0-40-13.2-70.8,1.2c6.8-5.6,14-10.8,22-14.8  c0,0-30.4,1.6-50.8,16.8c-2.4,0-4.4,0-6.4,0C244.8,68,246,62.4,246,56c0,0-14,5.6-22.4,18.4C118,89.2,172,205.2,172.8,205.2  c2.4-0.4,8-25.2,8.4-28c4-13.6,5.6-28.4,20.4-36c8.8-4.8,20-4.4,30-4c6.4,0.4,14.8,2.8,21.2,2s12.8-1.2,19.2-2  c6-0.4,12.4-0.8,18.4-0.8c4.4,0,12.4-1.6,16,0.8c1.2,0.8,2,2,2.8,3.2c4.4,6,6.4,12.4,8,19.6c1.2,6,4.8,10.8,6.4,17.2  c0.8,2,6.8,28,8.8,28C333.2,205.2,376,114,312,82.8z"/>
<path style="fill:#324A5E;" d="M442.8,423.6c-18.4,20.4-40,38-64,51.6c-0.4,2.8-4.8-5.2-4.8-5.2l28-102.8l9.2-33.2  c0-0.4,0.4-0.8,0.4-0.8S433.6,344,442.8,423.6z"/>
<path style="fill:#2B3B4E;" d="M378.8,475.2c6-38.8,16-80,23.2-108c4.8-17.6,8-30,9.2-33.2c0-0.4,0.4-0.8,0.4-0.8  c-21.2-0.8-39.2-4.4-53.6-8.8c-5.6-1.6-10.8-3.6-15.6-5.6c-2.8,0.8-5.2,1.2-8.4,1.2c-3.6,0-6.8-0.4-9.6-1.6  c-2.4-0.4-4.8-1.6-6.8-2.8c0,0,0,0-0.4,0c0,0-0.4,0-0.4-0.4c0,0,0,0.4,0,0.8v0.4c0,0.4,0,0.4,0,0.8c-0.8,1.6-1.6,2.8-2.4,4.4  c-1.2,2-3.2,3.2-5.2,4.8c0,0.8,0.4,2,0,3.2c0,9.2-5.2,17.2-8.8,25.6c-2.8,6.4-5.6,13.2-8,20c-4,10.8-6.8,22-10,33.2  c-4.8,18-11.6,34.8-18.4,52c-2.4,6-4.8,12-9.2,16.8l-0.8,2.4v0.4v0.4v1.2V508l0,0l0,0c2.4,0,4.8,0,7.2,0c1.2,0,2,0,3.2,0  c1.6,0,3.2,0,4.4-0.4c1.2,0,2.4,0,3.6-0.4c2,0,4-0.4,6-0.4c2.8-0.4,5.2-0.4,7.6-0.8s4.4-0.4,6.8-0.8c1.2,0,2.8-0.4,4-0.8  c1.2,0,2-0.4,3.2-0.4s2.4-0.4,3.6-0.8c2-0.4,4.4-0.8,6.4-1.2c2.4-0.4,4.8-1.2,7.2-1.6c0.4,0,1.2-0.4,1.6-0.4c2-0.4,4-1.2,6-1.6  c0.4,0,0.8,0,1.2-0.4c1.6-0.4,3.2-0.8,4.8-1.6c0.8-0.4,2-0.4,2.8-0.8c1.6-0.4,3.2-1.2,4.4-1.6c0.8-0.4,2-0.8,2.8-0.8  c2-0.8,4.4-1.6,6.4-2.4c2.4-0.8,4.4-1.6,6.8-2.8c0.4-0.4,0.8-0.4,1.6-0.8c2-0.8,4-2,6-2.8s4-2,6-3.2c0.4-0.4,1.2-0.4,1.6-0.8  c2-0.8,4-2,6-3.2L378.8,475.2z"/>
<path style="fill:#84DBFF;" d="M302.8,294c5.2,50.8-39.2,162-48.8,184.4v2.8c53.6-38,106-161.6,106-161.6  C329.2,318.8,302.8,294,302.8,294z"/>
<path style="fill:#324A5E;" d="M134,470.4c0,0-4.4,7.6-4.8,4.8c-24-13.6-45.6-31.2-64-51.6c9.6-80,31.6-90.4,31.6-90.4  s0,0.4,0.4,0.8l8.4,31.2c0,0,0,0,0,0.4L134,470.4z"/>
<path style="fill:#2B3B4E;" d="M254,480v28l0,0l0,0c-2.4,0-4.8,0-7.2,0c-1.2,0-2,0-3.2,0c-1.6,0-2.8,0-4.4-0.4c-1.2,0-2.4,0-3.6-0.4  c-2,0-4-0.4-6-0.4c-2.8-0.4-5.2-0.4-7.6-0.8c-2.4-0.4-4.4-0.8-6.8-0.8c-1.2,0-2.4-0.4-4-0.8c-1.2,0-2.4-0.4-3.6-0.8  c-0.8,0-2-0.4-2.8-0.4c-2.4-0.4-4.4-0.8-6.8-1.6c-2.4-0.4-4.8-1.2-7.2-1.6h-0.4c-2.4-0.8-5.2-1.2-7.6-2c-2.4-0.8-4.4-1.2-6.4-2  c-0.4,0-0.8-0.4-1.6-0.4c-2-0.8-4.4-1.6-6.4-2.4c-0.4,0-0.8-0.4-1.2-0.4c-2-0.8-4.4-1.6-6.4-2.4c-2.4-0.8-4.8-2-7.2-2.8  c-2.4-1.2-4.8-2-7.2-3.2s-4.8-2.4-6.8-3.6c0,0-0.4,0-0.8-0.4c-2-1.2-4-2-6-3.2c-0.8-0.4-2-1.2-2.8-1.6  c-6.4-39.2-16.4-81.2-23.6-109.2c0,0,0,0,0-0.4c-4.4-16.8-7.6-28.4-8.4-31.2c0-0.4-0.4-0.8-0.4-0.8c21.2-0.8,39.2-4.4,53.6-8.8  c5.6-1.6,10.8-3.6,15.6-5.6c2.8,0.8,5.2,1.2,8.4,1.2c3.6,0,6.8-0.4,9.6-1.6c2.8-0.8,5.2-1.6,7.2-3.2c0,0.4,0,0.4,0,0.8  s0,0.8,0.4,1.2c0.4,0.8,1.2,2,1.6,2.8c0.4,0.4,0.8,1.2,0.8,1.6c1.2,2,3.2,3.2,5.2,4.8c0,0.8,0,2,0,3.2c0,9.2,5.2,17.2,8.8,25.6  c2.8,6.4,5.6,13.2,8,20c4,10.8,6.8,22,10,33.2c4.8,18,11.6,34.8,18.4,52c2.4,6,5.2,12,9.2,16.8l0.8,2.4L254,480L254,480z"/>
<path style="fill:#84DBFF;" d="M205.2,294c-5.2,50.8,39.2,162,48.8,184.4v2.8c-53.6-38-106-161.6-106-161.6  C178.8,318.8,205.2,294,205.2,294z"/>
<g>
</g>
<g>
</g>
<g>
</g>
<g>
</g>
<g>
</g>
<g>
</g>
<g>
</g>
<g>
</g>
<g>
</g>
<g>
</g>
<g>
</g>
<g>
</g>
<g>
</g>
<g>
</g>
<g>
</g>
</svg>
