<?xml version="1.0" encoding="iso-8859-1"?>
<!-- Generator: Adobe Illustrator 19.0.0, SVG Export Plug-In . SVG Version: 6.00 Build 0)  -->
<svg xmlns="http://www.w3.org/2000/svg" xmlns:xlink="http://www.w3.org/1999/xlink" version="1.1" id="Layer_1" x="0px" y="0px" viewBox="0 0 508 508" style="enable-background:new 0 0 508 508;" xml:space="preserve">
<circle style="fill:#FD8469;" cx="254" cy="254" r="254"/>
<path style="fill:#2B3B4E;" d="M195.6,280c0,0,49.2-32.8,116.8,0l-12.8,29.2H208L195.6,280z"/>
<path style="fill:#F9B54C;" d="M275.2,250.4h-42.4c-10.4,21.6-25.2,41.6-44,46.8l36.8,71.6h56.8l36.8-71.6  C300,292,285.6,272,275.2,250.4z"/>
<path style="fill:#FFFFFF;" d="M311.6,300.4c-33.6,29.6-84.4,29.2-117.2-1.6c-27.6,29.2-54.8,58.4-82.4,87.6  c55.2,51.6,131.6,67.6,199.6,48V300.4z"/>
<path style="fill:#324A5E;" d="M338,178L338,178c-10.8-8.8-16-21.6-15.2-35.2c1.6-25.6-4.8-68.8-68.4-68  c-63.6-0.8-70.4,42.4-68.4,68c0.8,13.2-4.8,26.4-15.2,35.2l0,0c-34,24.4-16,76.4,26.4,76.4H254h57.6C354,254.4,371.6,202.4,338,178z  "/>
<path style="fill:#FFD05B;" d="M316,180c-0.4,47.2-27.2,85.6-60,85.6c-33.2,0-60-38.8-60-86.4c0-3.2,0-6.8,0.4-10  c24.4-8.4,44-24.8,57.2-38.8C270.4,151.2,292,171.6,316,180z"/>
<path style="fill:#54C0EB;" d="M342.4,306.4l-23.2-8.8l-3.6-1.2l-1.2-0.4l-2.8,5.2L276,369.6L254,412l-22.4-42.8l-36-69.2l-2.4-4.4  L192,296l-3.6,1.2l-23.2,8.8l-58.4,22.4l0,0c0.4,1.2,8,18.8,17.2,44.8c3.2,9.6,6.8,20,10.4,31.6l0,0c4.4,14.4,8.8,30,12.8,45.6l0,0  c3.2,12.4,5.6,25.2,7.6,37.6c27.6,11.6,57.2,18.4,88.8,19.6c2.4-2,6-3.2,10-3.2c4,0,7.6,1.2,10,3.2c31.2-1.2,61.2-8,88.8-19.6  c2-12.4,4.8-25.2,7.6-37.6l0,0c15.2-62.4,39.2-119.2,40.4-122l0,0L342.4,306.4z"/>
<path style="fill:#324A5E;" d="M195.6,280c0,0-32.4,11.6-35.6,45.6h23.2l-17.6,26.8L254,412L195.6,280z"/>
<path style="fill:#84DBFF;" d="M147.6,450.4L147.6,450.4c0,0-2.8,12.8-5.6,31.6c-20.4-10-39.2-22.4-56-37.2c3.6-40,10-80.8,20.8-116  l0,0c0.8,1.2,12,16.8,22.4,39.2c6,12.8,11.6,28,15.2,43.6C147.6,424.4,148.8,437.6,147.6,450.4z"/>
<path style="fill:#324A5E;" d="M312.4,280c0,0,32.4,11.6,35.6,45.6h-23.2l17.6,26.8L254,412L312.4,280z"/>
<path style="fill:#84DBFF;" d="M422,444.4c-16.8,14.8-35.6,27.6-56,37.2c-2.8-18.8-5.6-31.2-5.6-31.2l0,0c-6-56,38.8-119.2,40.4-122  l0,0C411.6,363.6,418,404.8,422,444.4z"/>
<g>
	<circle style="fill:#324A5E;" cx="254" cy="445.2" r="14.4"/>
	<path style="fill:#324A5E;" d="M268.4,497.6c0,4-1.6,7.6-4.4,10.4c-3.2,0-6.4,0-9.6,0c-3.2,0-6.4,0-9.6,0   c-2.8-2.4-4.4-6.4-4.4-10.4c0-8,6.4-14.4,14.4-14.4C262,483.2,268.4,489.6,268.4,497.6z"/>
</g>
<g>
</g>
<g>
</g>
<g>
</g>
<g>
</g>
<g>
</g>
<g>
</g>
<g>
</g>
<g>
</g>
<g>
</g>
<g>
</g>
<g>
</g>
<g>
</g>
<g>
</g>
<g>
</g>
<g>
</g>
</svg>
