<?xml version="1.0" encoding="iso-8859-1"?>
<!-- Generator: Adobe Illustrator 19.0.0, SVG Export Plug-In . SVG Version: 6.00 Build 0)  -->
<svg xmlns="http://www.w3.org/2000/svg" xmlns:xlink="http://www.w3.org/1999/xlink" version="1.1" id="Layer_1" x="0px" y="0px" viewBox="0 0 508 508" style="enable-background:new 0 0 508 508;" xml:space="preserve">
<circle style="fill:#84DBFF;" cx="254" cy="254" r="254"/>
<path style="fill:#E6E9EE;" d="M387.2,404.8H120.8c-10,0-18-8-18-18v-266c0-10,8-18,18-18h266c10,0,18,8,18,18v266  C404.8,396.8,396.8,404.8,387.2,404.8z"/>
<rect x="132" y="132" style="fill:#ACB3BA;" width="244" height="244"/>
<polygon style="fill:#324A5E;" points="338.8,169.2 338.8,284 320.4,284 320.4,302 302,302 302,320.4 284,320.4 284,338.8   224,338.8 224,320.4 206,320.4 206,302 187.6,302 187.6,284 169.2,284 169.2,169.2 "/>
<g>
	<rect x="189.2" y="190" style="fill:#FFD05B;" width="15.2" height="28.4"/>
	<rect x="227.2" y="190" style="fill:#FFD05B;" width="15.2" height="28.4"/>
	<rect x="265.6" y="190" style="fill:#FFD05B;" width="15.2" height="28.4"/>
	<rect x="303.6" y="190" style="fill:#FFD05B;" width="15.2" height="28.4"/>
</g>
<g>
</g>
<g>
</g>
<g>
</g>
<g>
</g>
<g>
</g>
<g>
</g>
<g>
</g>
<g>
</g>
<g>
</g>
<g>
</g>
<g>
</g>
<g>
</g>
<g>
</g>
<g>
</g>
<g>
</g>
</svg>
