<?xml version="1.0" encoding="iso-8859-1"?>
<!-- Generator: Adobe Illustrator 19.0.0, SVG Export Plug-In . SVG Version: 6.00 Build 0)  -->
<svg xmlns="http://www.w3.org/2000/svg" xmlns:xlink="http://www.w3.org/1999/xlink" version="1.1" id="Layer_1" x="0px" y="0px" viewBox="0 0 508 508" style="enable-background:new 0 0 508 508;" xml:space="preserve">
<circle style="fill:#324A5E;" cx="254" cy="254" r="254"/>
<path style="fill:#E6E9EE;" d="M254,432C72.4,344,85.6,140.8,85.6,140.8C165.6,151.2,254,76,254,76s88.4,75.6,168.4,64.8  C422.4,140.8,435.6,344,254,432z"/>
<path style="fill:#FF7058;" d="M387.6,174.4c-1.6,18.4-5.2,43.6-14,71.2c-1.2,4-2.8,8-4,12H254V118  C282,137.6,333.2,168.4,387.6,174.4z"/>
<g>
	<path style="fill:#FFFFFF;" d="M369.2,257.2c-22,60.4-60.8,106.4-115.2,137.2V257.2H369.2z"/>
	<path style="fill:#FFFFFF;" d="M254,257.2H138.8c-12-32-16.8-61.6-18.4-82.8c54.4-6,105.6-36.8,133.6-56.4V257.2z"/>
</g>
<path style="fill:#FF7058;" d="M254,257.2V394c-63.6-36-97.6-88.8-115.2-136.8H254z"/>
<g>
</g>
<g>
</g>
<g>
</g>
<g>
</g>
<g>
</g>
<g>
</g>
<g>
</g>
<g>
</g>
<g>
</g>
<g>
</g>
<g>
</g>
<g>
</g>
<g>
</g>
<g>
</g>
<g>
</g>
</svg>
