<?xml version="1.0" encoding="iso-8859-1"?>
<!-- Generator: Adobe Illustrator 19.0.0, SVG Export Plug-In . SVG Version: 6.00 Build 0)  -->
<svg xmlns="http://www.w3.org/2000/svg" xmlns:xlink="http://www.w3.org/1999/xlink" version="1.1" id="Layer_1" x="0px" y="0px" viewBox="0 0 508 508" style="enable-background:new 0 0 508 508;" xml:space="preserve">
<circle style="fill:#90DFAA;" cx="254" cy="254" r="254"/>
<path style="fill:#FFFFFF;" d="M243.6,428L80,264.4c-6-6-6-15.2,0-21.2L243.6,79.6c6-6,15.2-6,21.2,0l163.6,163.6c6,6,6,15.2,0,21.2  L264.8,428C258.8,434,249.2,434,243.6,428z"/>
<rect x="149.289" y="149.001" transform="matrix(0.7071 -0.7071 0.7071 0.7071 -105.126 254.2034)" style="fill:#FFD05B;" width="209.998" height="209.998"/>
<polygon style="fill:#FFFFFF;" points="307.6,244.4 263.2,244.4 275.2,178 200.4,263.6 244.8,263.6 232.8,330 "/>
<g>
</g>
<g>
</g>
<g>
</g>
<g>
</g>
<g>
</g>
<g>
</g>
<g>
</g>
<g>
</g>
<g>
</g>
<g>
</g>
<g>
</g>
<g>
</g>
<g>
</g>
<g>
</g>
<g>
</g>
</svg>
