<?xml version="1.0" encoding="iso-8859-1"?>
<!-- Generator: Adobe Illustrator 19.0.0, SVG Export Plug-In . SVG Version: 6.00 Build 0)  -->
<svg xmlns="http://www.w3.org/2000/svg" xmlns:xlink="http://www.w3.org/1999/xlink" version="1.1" id="Layer_1" x="0px" y="0px" viewBox="0 0 508 508" style="enable-background:new 0 0 508 508;" xml:space="preserve">
<circle style="fill:#90DFAA;" cx="254" cy="254" r="254"/>
<g>
	<rect x="247.2" y="360" style="fill:#FFFFFF;" width="13.6" height="51.6"/>
	<rect x="142" y="409.2" style="fill:#FFFFFF;" width="224.4" height="13.6"/>
</g>
<circle style="fill:#ACB3BA;" cx="254" cy="416" r="16.4"/>
<path style="fill:#324A5E;" d="M345.2,369.6H162.8c-6,0-10.8-4.8-10.8-10.8V86.4c0-6,4.8-10.8,10.8-10.8h182.4  c6,0,10.8,4.8,10.8,10.8v272.4C356.4,364.8,351.2,369.6,345.2,369.6z"/>
<rect x="176" y="113.6" style="fill:#54C0EB;" width="155.6" height="188.4"/>
<g>
	<circle style="fill:#2B3B4E;" cx="254" cy="334.4" r="16"/>
	<path style="fill:#2B3B4E;" d="M279.2,100.4h-50.4c-3.2,0-5.6-2.4-5.6-5.6l0,0c0-3.2,2.4-5.6,5.6-5.6h50.4c3.2,0,5.6,2.4,5.6,5.6   l0,0C284.8,97.6,282.4,100.4,279.2,100.4z"/>
</g>
<g>
</g>
<g>
</g>
<g>
</g>
<g>
</g>
<g>
</g>
<g>
</g>
<g>
</g>
<g>
</g>
<g>
</g>
<g>
</g>
<g>
</g>
<g>
</g>
<g>
</g>
<g>
</g>
<g>
</g>
</svg>
