<?xml version="1.0" encoding="iso-8859-1"?>
<!-- Generator: Adobe Illustrator 19.0.0, SVG Export Plug-In . SVG Version: 6.00 Build 0)  -->
<svg xmlns="http://www.w3.org/2000/svg" xmlns:xlink="http://www.w3.org/1999/xlink" version="1.1" id="Layer_1" x="0px" y="0px" viewBox="0 0 508 508" style="enable-background:new 0 0 508 508;" xml:space="preserve">
<circle style="fill:#FD8469;" cx="254" cy="254" r="254"/>
<g>
	<rect x="247.2" y="360" style="fill:#FFFFFF;" width="13.6" height="51.6"/>
	<rect x="142" y="409.2" style="fill:#FFFFFF;" width="224.4" height="13.6"/>
</g>
<circle style="fill:#ACB3BA;" cx="254" cy="416" r="16.4"/>
<path style="fill:#324A5E;" d="M353.2,367.6H154.8c-8,0-14.8-6.8-14.8-14.8V90.4c0-8,6.8-14.8,14.8-14.8h198.4  c8,0,14.8,6.8,14.8,14.8v262.4C368,360.8,361.6,367.6,353.2,367.6z"/>
<g>
	<rect x="159.6" y="99.6" style="fill:#2B3B4E;" width="188.8" height="36.4"/>
	<rect x="159.6" y="157.2" style="fill:#2B3B4E;" width="188.8" height="36.4"/>
	<rect x="159.6" y="214.8" style="fill:#2B3B4E;" width="188.8" height="36.4"/>
</g>
<circle style="fill:#54C0EB;" cx="254" cy="310" r="15.2"/>
<g>
</g>
<g>
</g>
<g>
</g>
<g>
</g>
<g>
</g>
<g>
</g>
<g>
</g>
<g>
</g>
<g>
</g>
<g>
</g>
<g>
</g>
<g>
</g>
<g>
</g>
<g>
</g>
<g>
</g>
</svg>
