<?xml version="1.0" encoding="iso-8859-1"?>
<!-- Generator: Adobe Illustrator 19.0.0, SVG Export Plug-In . SVG Version: 6.00 Build 0)  -->
<svg xmlns="http://www.w3.org/2000/svg" xmlns:xlink="http://www.w3.org/1999/xlink" version="1.1" id="Layer_1" x="0px" y="0px" viewBox="0 0 508 508" style="enable-background:new 0 0 508 508;" xml:space="preserve">
<circle style="fill:#84DBFF;" cx="254" cy="254" r="254"/>
<g>
	<rect x="247.2" y="337.6" style="fill:#324A5E;" width="14" height="53.2"/>
	<rect x="138" y="388.8" style="fill:#324A5E;" width="232.4" height="14"/>
</g>
<circle style="fill:#FF7058;" cx="254" cy="395.6" r="17.2"/>
<circle style="fill:#FFFFFF;" cx="254" cy="224.8" r="124"/>
<path style="fill:#324A5E;" d="M254,95.2c-71.6,0-129.6,58.4-129.6,129.6c0,71.6,58.4,129.6,129.6,129.6  c71.6,0,129.6-58.4,129.6-129.6S325.6,95.2,254,95.2z M288.8,277.6c1.6-14.8,2.8-31.2,2.8-47.2H328c-0.8,21.6-4.8,41.6-11.6,58.4  C307.6,284.4,298.4,280.4,288.8,277.6z M311.6,299.2c-10,19.6-23.6,34-39.2,40.8c6.4-12,11.6-30,14.8-50.8  C296,291.6,304,294.8,311.6,299.2z M191.6,289.2c-6.8-17.2-11.2-37.2-11.6-58.4h36.4c0,16,1.2,32.4,2.8,47.2  C209.6,280.4,200.4,284.4,191.6,289.2z M220.8,288.8c3.2,21.2,8,39.2,14.8,50.8c-15.6-6.4-29.6-21.2-39.2-40.8  C204,294.8,212,291.6,220.8,288.8z M219.2,172.4c-1.6,14.8-2.8,31.2-2.8,47.2H180c0.8-21.6,4.8-41.6,11.6-58.4  C200.4,165.6,209.6,169.6,219.2,172.4z M196.4,150.8c10-19.6,23.6-34,39.2-40.8c-6.4,12-11.6,30-14.8,50.8  C212,158.4,204,155.2,196.4,150.8z M230.4,174.8c7.6,1.6,15.6,2.4,23.6,2.4s16-0.8,23.6-2.4c1.6,13.2,2.4,28.4,2.8,44.8h-52.8  C227.6,203.2,228.8,188,230.4,174.8z M227.6,230.4h53.2c0,16.4-1.2,31.2-2.8,44.8c-8-1.2-16-2-24-2s-16,0.8-23.6,2.4  C228.8,262,227.6,246.8,227.6,230.4z M291.6,219.6c0-16-1.2-32.4-2.8-47.2c9.6-2.8,19.2-6.4,27.6-11.2c6.8,17.2,11.2,37.2,11.6,58.4  H291.6z M287.2,161.2c-3.2-21.2-8-39.2-14.8-50.8c15.6,6.4,29.6,20.8,39.2,40.8C304,155.2,296,158.4,287.2,161.2z M299.6,115.6  c12,5.2,23.2,12,32.8,20.4c-3.6,3.2-7.2,6-11.2,8.8C315.2,133.6,308,123.6,299.6,115.6z M276.4,163.6c-7.2,1.6-14.8,2.4-22.4,2.4  s-15.2-0.8-22.4-2c5.6-36,14.8-57.2,22.4-57.2C261.2,106.4,270.8,127.6,276.4,163.6z M186.8,144.8c-4-2.8-7.6-5.6-11.2-8.8  c9.6-8.4,20.8-15.6,32.8-20.4C200,123.6,192.8,133.6,186.8,144.8z M182,155.2c-8,18.8-12.8,40.8-13.2,64.4h-33.2  c1.2-29.2,13.2-55.6,32-75.6C172,148,177.2,151.6,182,155.2z M168.8,230.4c0.8,23.6,5.6,45.6,13.2,64.4c-5.2,3.6-10,7.2-14.4,11.2  c-18.8-20-30.8-46.4-32-75.6H168.8z M186.8,305.2c6,11.6,13.2,21.6,21.2,29.6c-12-5.2-23.2-12-32.8-20.4  C179.2,310.8,182.8,307.6,186.8,305.2z M231.6,286.4c7.2-1.2,14.8-2,22.4-2c7.6,0,15.2,0.8,22.4,2c-5.6,36-14.8,57.2-22.4,57.2  C246.8,343.6,237.2,322.4,231.6,286.4z M321.2,305.2c4,2.8,7.6,5.6,11.2,8.8c-9.6,8.4-20.8,15.6-32.8,20.4  C308,326.4,315.2,316.4,321.2,305.2z M326,294.8c8-18.8,12.8-40.8,13.2-64.4h33.2c-1.2,29.2-13.2,55.6-32,75.6  C336,302,330.8,298.4,326,294.8z M372.4,219.6h-33.2c-0.8-23.6-5.6-45.6-13.2-64.4c5.2-3.6,10-7.2,14.4-11.2  C359.2,164,371.2,190.4,372.4,219.6z"/>
<g>
</g>
<g>
</g>
<g>
</g>
<g>
</g>
<g>
</g>
<g>
</g>
<g>
</g>
<g>
</g>
<g>
</g>
<g>
</g>
<g>
</g>
<g>
</g>
<g>
</g>
<g>
</g>
<g>
</g>
</svg>
