<?xml version="1.0" encoding="iso-8859-1"?>
<!-- Generator: Adobe Illustrator 19.0.0, SVG Export Plug-In . SVG Version: 6.00 Build 0)  -->
<svg xmlns="http://www.w3.org/2000/svg" xmlns:xlink="http://www.w3.org/1999/xlink" version="1.1" id="Layer_1" x="0px" y="0px" viewBox="0 0 508 508" style="enable-background:new 0 0 508 508;" xml:space="preserve">
<circle style="fill:#84DBFF;" cx="254" cy="254" r="254"/>
<g>
	<rect x="247.2" y="345.6" style="fill:#324A5E;" width="14" height="53.2"/>
	<rect x="138" y="396.4" style="fill:#324A5E;" width="231.6" height="14"/>
</g>
<circle style="fill:#FF7058;" cx="254" cy="403.6" r="17.2"/>
<path style="fill:#FFFFFF;" d="M366,299.6H140.8c-8.4,0-14.8-6.8-14.8-14.8V118c0-8.4,6.8-14.8,14.8-14.8H366  c8.4,0,14.8,6.8,14.8,14.8v166.8C381.2,293.2,374.4,299.6,366,299.6z"/>
<rect x="146.4" y="122.4" style="fill:#2B3B4E;" width="214.4" height="158.4"/>
<polygon style="fill:#324A5E;" points="271.2,122.4 146.4,122.4 146.4,280.4 195.6,280.4 "/>
<path style="fill:#E6E9EE;" d="M104.4,313.6v20c0,9.6,7.6,17.6,17.6,17.6h264.8c9.6,0,17.6-7.6,17.6-17.6v-20H104.4z"/>
<polygon style="fill:#ACB3BA;" points="292.4,325.6 215.6,325.6 207.2,313.6 300.8,313.6 "/>
<g>
</g>
<g>
</g>
<g>
</g>
<g>
</g>
<g>
</g>
<g>
</g>
<g>
</g>
<g>
</g>
<g>
</g>
<g>
</g>
<g>
</g>
<g>
</g>
<g>
</g>
<g>
</g>
<g>
</g>
</svg>
