<?xml version="1.0" encoding="iso-8859-1"?>
<!-- Generator: Adobe Illustrator 19.0.0, SVG Export Plug-In . SVG Version: 6.00 Build 0)  -->
<svg xmlns="http://www.w3.org/2000/svg" xmlns:xlink="http://www.w3.org/1999/xlink" version="1.1" id="Layer_1" x="0px" y="0px" viewBox="0 0 508 508" style="enable-background:new 0 0 508 508;" xml:space="preserve">
<circle style="fill:#324A5E;" cx="254" cy="254" r="254"/>
<circle style="fill:#54C0EB;" cx="254" cy="254" r="178.4"/>
<circle style="fill:#FFFFFF;" cx="254" cy="254" r="150"/>
<path style="fill:#FF7058;" d="M256.8,251.2c-1.6-1.6-4-1.6-5.6,0l-69.6,69.6c-1.6,1.6-1.6,4,0,5.6c0.8,0.8,1.6,1.2,2.8,1.2  s2-0.4,2.8-1.2l69.6-69.6C258.4,255.2,258.4,252.8,256.8,251.2z"/>
<g>
	<path style="fill:#324A5E;" d="M254,156.8c-4.4,0-8,3.6-8,8V254c0,4.4,3.6,8,8,8s8-3.6,8-8v-89.2C262,160.4,258.4,156.8,254,156.8z   "/>
	<path style="fill:#324A5E;" d="M317.2,306l-57.6-57.6c-3.2-3.2-8-3.2-11.2,0s-3.2,8,0,11.2l57.6,57.6c1.6,1.6,3.6,2.4,5.6,2.4   s4-0.8,5.6-2.4C320.4,314.4,320.4,309.2,317.2,306z"/>
</g>
<g>
	<path style="fill:#ACB3BA;" d="M386.8,260h-10c-3.2,0-6-2.8-6-6l0,0c0-3.2,2.8-6,6-6h10c3.2,0,6,2.8,6,6l0,0   C392.4,257.2,390,260,386.8,260z"/>
	<path style="fill:#ACB3BA;" d="M131.2,260h-10c-3.2,0-6-2.8-6-6l0,0c0-3.2,2.8-6,6-6h10c3.2,0,6,2.8,6,6l0,0   C137.2,257.2,134.8,260,131.2,260z"/>
	<path style="fill:#ACB3BA;" d="M248,386.8v-10c0-3.2,2.8-6,6-6l0,0c3.2,0,6,2.8,6,6v10c0,3.2-2.8,6-6,6l0,0   C250.8,392.4,248,390,248,386.8z"/>
	<path style="fill:#ACB3BA;" d="M248,131.2v-10c0-3.2,2.8-6,6-6l0,0c3.2,0,6,2.8,6,6v10c0,3.2-2.8,6-6,6l0,0   C250.8,137.2,248,134.8,248,131.2z"/>
</g>
<circle style="fill:#84DBFF;" cx="254" cy="254" r="18.4"/>
<g>
</g>
<g>
</g>
<g>
</g>
<g>
</g>
<g>
</g>
<g>
</g>
<g>
</g>
<g>
</g>
<g>
</g>
<g>
</g>
<g>
</g>
<g>
</g>
<g>
</g>
<g>
</g>
<g>
</g>
</svg>
