<?xml version="1.0" encoding="iso-8859-1"?>
<!-- Generator: Adobe Illustrator 19.0.0, SVG Export Plug-In . SVG Version: 6.00 Build 0)  -->
<svg xmlns="http://www.w3.org/2000/svg" xmlns:xlink="http://www.w3.org/1999/xlink" version="1.1" id="Layer_1" x="0px" y="0px" viewBox="0 0 508 508" style="enable-background:new 0 0 508 508;" xml:space="preserve">
<circle style="fill:#324A5E;" cx="254" cy="254" r="254"/>
<path style="fill:#ACB3BA;" d="M160.4,377.2v-87.6c0-6.8-5.6-12.4-12.4-12.4h-20.8c-6.8,0-12.4,5.6-12.4,12.4v87.2h45.6V377.2z"/>
<path style="fill:#CED5E0;" d="M238,377.2V242c0-6.8-5.6-12.4-12.4-12.4h-20.8c-6.8,0-12.4,5.6-12.4,12.4v135.2H238z"/>
<path style="fill:#E6E9EE;" d="M315.6,377.2V194c0-6.8-5.6-12.4-12.4-12.4h-20.8c-6.8,0-12.4,5.6-12.4,12.4v183.2H315.6z"/>
<path style="fill:#FFFFFF;" d="M392.8,377.2V146c0-6.8-5.6-12.4-12.4-12.4h-20.8c-6.8,0-12.4,5.6-12.4,12.4v230.8h45.6V377.2z"/>
<g>
</g>
<g>
</g>
<g>
</g>
<g>
</g>
<g>
</g>
<g>
</g>
<g>
</g>
<g>
</g>
<g>
</g>
<g>
</g>
<g>
</g>
<g>
</g>
<g>
</g>
<g>
</g>
<g>
</g>
</svg>
