<?xml version="1.0" encoding="iso-8859-1"?>
<!-- Generator: Adobe Illustrator 19.0.0, SVG Export Plug-In . SVG Version: 6.00 Build 0)  -->
<svg xmlns="http://www.w3.org/2000/svg" xmlns:xlink="http://www.w3.org/1999/xlink" version="1.1" id="Layer_1" x="0px" y="0px" viewBox="0 0 508 508" style="enable-background:new 0 0 508 508;" xml:space="preserve">
<circle style="fill:#90DFAA;" cx="254" cy="254" r="254"/>
<path style="fill:#E6E9EE;" d="M254,103.6L254,103.6c-79.6,0-144.4,64.8-144.4,144.4v42.4v2.8V346l55.2-55.2l0,0  c-13.6,0-24.8-11.2-24.8-24.8v-16c0-62.4,49.2-114.8,111.2-116c64-1.6,116.8,50,116.8,114v17.6c0,13.6-11.2,24.8-24.8,24.8l0,0  l55.2,55.2v-52.4v-2.8V248C398.4,168,333.6,103.6,254,103.6z"/>
<path style="fill:#FF7058;" d="M343.2,290.4v110.8c30.4,0,55.2-24.8,55.2-55.2C398.4,315.2,373.6,290.4,343.2,290.4z"/>
<path style="fill:#324A5E;" d="M330.8,412.8L330.8,412.8c-6.8,0-12-5.6-12-12v-110c0-6.8,5.6-12,12-12l0,0c6.8,0,12,5.6,12,12v109.6  C343.2,407.2,337.6,412.8,330.8,412.8z"/>
<path style="fill:#FF7058;" d="M164.8,290.4v110.8c-30.4,0-55.2-24.8-55.2-55.2C109.6,315.2,134.4,290.4,164.8,290.4z"/>
<g>
	<path style="fill:#324A5E;" d="M177.2,412.8L177.2,412.8c6.8,0,12-5.6,12-12v-110c0-6.8-5.6-12-12-12l0,0c-6.8,0-12,5.6-12,12   v109.6C164.8,407.2,170.4,412.8,177.2,412.8z"/>
	<path style="fill:#324A5E;" d="M356.8,135.2l-33.2,33.2c-18.4-16.4-42.8-26-69.6-26c-0.8,0-1.6,0-2.4,0c-28,0.8-53.2,12.8-72,31.6   L146,140c27.6-27.6,66-44.8,108-44.8C293.6,95.2,329.6,110.4,356.8,135.2z"/>
</g>
<path style="fill:#FFFFFF;" d="M234.4,316v59.6c0,3.2,3.6,4.8,6,2.8l39.2-30c2-1.6,2-4.4,0-6l-39.2-30  C238,311.2,234.4,312.8,234.4,316z"/>
<g>
</g>
<g>
</g>
<g>
</g>
<g>
</g>
<g>
</g>
<g>
</g>
<g>
</g>
<g>
</g>
<g>
</g>
<g>
</g>
<g>
</g>
<g>
</g>
<g>
</g>
<g>
</g>
<g>
</g>
</svg>
