<?xml version="1.0" encoding="iso-8859-1"?>
<!-- Generator: Adobe Illustrator 19.0.0, SVG Export Plug-In . SVG Version: 6.00 Build 0)  -->
<svg xmlns="http://www.w3.org/2000/svg" xmlns:xlink="http://www.w3.org/1999/xlink" version="1.1" id="Layer_1" x="0px" y="0px" viewBox="0 0 508 508" style="enable-background:new 0 0 508 508;" xml:space="preserve">
<circle style="fill:#FFD05B;" cx="254" cy="254" r="254"/>
<path style="fill:#FFFFFF;" d="M398.4,412.8H109.6c-8,0-14.4-6.4-14.4-14.4V109.6c0-8,6.4-14.4,14.4-14.4h288.8  c8,0,14.4,6.4,14.4,14.4v288.8C412.8,406.4,406.4,412.8,398.4,412.8z"/>
<rect id="SVGCleanerId_0" x="123.2" y="123.2" style="fill:#84DBFF;" width="261.6" height="261.6"/>
<g>
	<rect id="SVGCleanerId_0_1_" x="123.2" y="123.2" style="fill:#84DBFF;" width="261.6" height="261.6"/>
</g>
<rect x="123.2" y="123.2" style="fill:#54C0EB;" width="261.6" height="103.2"/>
<path style="fill:#FFD05B;" d="M219.6,226.8c3.2-4.8,5.2-10.4,5.2-16.4c0-16-13.2-29.2-29.2-29.2s-29.2,13.2-29.2,29.2  c0,6,2,11.6,5.2,16.4H219.6z"/>
<path style="fill:#FF7058;" d="M318.8,302.8h18c2.8,0,5.2-1.6,6-4.4l3.2-8.4h-46l0,0C302.8,297.6,310.4,302.8,318.8,302.8z"/>
<g>
	<path style="fill:#FFFFFF;" d="M345.2,281.6c0.4-2,0.4-4.4,0.4-6.8c0-17.6-9.2-33.2-22.8-39.6v46.4H345.2z"/>
	<path style="fill:#FFFFFF;" d="M300.8,281.6c-0.4-1.6-0.4-3.6-0.4-5.2c0-13.6,7.2-25.6,17.6-30.8v36L300.8,281.6L300.8,281.6z"/>
</g>
<path style="fill:#FF7058;" d="M204.4,365.2h-30c-4.4,0-8.4-2.8-10-7.2l-5.2-14.8H236l0,0C231.2,356.4,218.4,365.2,204.4,365.2z"/>
<g>
	<path style="fill:#FFFFFF;" d="M154.4,336c-0.4-4-0.8-8-0.8-12c0-32,18-59.2,44-71.6V336H154.4z"/>
	<path style="fill:#FFFFFF;" d="M240.8,336c0.4-3.2,0.8-6,0.8-9.2c0-24.8-14-46-34-55.6V336H240.8z"/>
</g>
<g>
	<path style="fill:#324A5E;" d="M288.4,147.6c-0.4-0.4-1.2-0.8-2-1.2c-0.4-0.4-1.2-0.4-2-0.4c-0.8,0-1.6-0.4-2.4-0.4s-1.6,0-2.4,0   L278,146c-0.8,0.4-1.2,0.4-2,0.8c-0.8,0.4-1.2,0.4-2,0.8c-2.8,1.2-5.2,2.8-7.2,4.8c-1.2,0.8-2,2-3.2,2.8l0,0c0,0,0,0-0.4,0l-2-1.2   c-0.8-0.4-1.6-0.8-2-1.2c-0.8-0.4-1.6-0.8-2.4-0.8s-1.6-0.4-2.4-0.4c-0.8,0-1.6,0-2.4,0c-0.8,0-1.6,0-2.4,0.4   c-0.8,0-1.6,0.4-2.4,0.4c-0.8,0-1.6,0.4-2,0.8c-1.2,0.4-2.8,1.2-3.6,2c-1.2,0.8-2.4,1.6-3.2,2.8c-0.8,0.8-2,2-2.4,3.2   c1.2-0.4,2.4-1.2,3.6-1.6c1.2-0.4,2.4-0.8,3.6-1.2c1.2-0.4,2.4-0.4,3.6-0.8c0.4,0,1.2,0,1.6,0c0.4,0,1.2,0,1.6,0c0.4,0,1.2,0,1.6,0   c0.4,0,0.8,0.4,1.6,0.4c0.4,0,0.8,0.4,1.6,0.4c0.4,0,0.8,0.4,1.2,0.8c0.4,0.4,0.8,0.4,1.2,0.8l1.2,0.8c0.4,0.4,0.8,0.8,1.2,1.2   l1.2,1.2l0,0l0.4,0.4c1.6,1.6,4,1.2,5.6-0.4l1.2-1.2l1.2-1.2c0.8-0.8,1.6-1.6,2.4-2.8c0.8-0.8,1.6-1.6,2.8-2.4   c0.4-0.4,0.8-0.8,1.2-1.2c0.4-0.4,0.8-0.8,1.2-1.2c0.4-0.4,0.8-0.8,1.6-1.2l1.6-0.8l1.6-0.8c0.4-0.4,1.2-0.4,1.6-0.8   c0.4-0.4,1.2-0.4,1.6-0.4s1.2-0.4,1.6-0.4s1.2,0,2,0l2,0.4C289.6,148.4,289.2,148,288.4,147.6z"/>
	<path style="fill:#324A5E;" d="M328.8,169.2c-0.4-0.4-0.8-0.4-1.2-0.8c-0.4-0.4-0.8-0.4-1.6-0.4c-0.4,0-1.2-0.4-1.6,0   c-0.4,0-1.2,0-1.6,0l-1.6,0.4c-0.4,0-1.2,0.4-1.6,0.4s-0.8,0.4-1.6,0.8c-2,0.8-3.6,2-5.2,3.2c-0.8,0.8-1.6,1.2-2.4,2l0,0l0,0   l-1.6-0.8c-0.4-0.4-1.2-0.4-1.6-0.8c-0.4-0.4-1.2-0.4-1.6-0.4s-1.2-0.4-1.6-0.4s-1.2,0-1.6,0s-1.2,0-1.6,0s-1.2,0.4-1.6,0.4   s-1.2,0.4-1.6,0.4c-0.8,0.4-2,0.8-2.8,1.6c-0.8,0.4-1.6,1.2-2.4,2s-1.2,1.6-2,2.4c0.8-0.4,1.6-0.8,2.8-1.2c0.8-0.4,1.6-0.4,2.8-0.8   c0.8-0.4,1.6-0.4,2.4-0.4c0.4,0,0.8,0,1.2,0c0.4,0,0.8,0,1.2,0c0.4,0,0.8,0,1.2,0c0.4,0,0.8,0,1.2,0.4c0.4,0,0.8,0.4,1.2,0.4   c0.4,0,0.8,0.4,0.8,0.4c0.4,0,0.4,0,0.8,0l0.8,0.8c0.4,0,0.4,0.4,0.8,0.8l0.8,0.8l0,0l0,0c1.2,1.2,3.2,0.8,4-0.4l0.8-0.8l0.8-0.8   c0.4-0.8,1.2-1.2,2-2s1.2-1.2,2-2c0.4-0.4,0.8-0.4,0.8-0.8c0.4-0.4,0.8-0.4,0.8-0.8c0.4-0.4,0.8-0.4,1.2-0.8l1.2-0.8l1.2-0.4   c0.4-0.4,0.8-0.4,1.2-0.4c0.4-0.4,0.8-0.4,1.2-0.4c0.4,0,0.8,0,1.2,0c0.4,0,0.8,0,1.2,0h1.6C329.6,169.6,329.2,169.6,328.8,169.2z"/>
</g>
<g>
</g>
<g>
</g>
<g>
</g>
<g>
</g>
<g>
</g>
<g>
</g>
<g>
</g>
<g>
</g>
<g>
</g>
<g>
</g>
<g>
</g>
<g>
</g>
<g>
</g>
<g>
</g>
<g>
</g>
</svg>
