<?xml version="1.0" encoding="iso-8859-1"?>
<!-- Generator: Adobe Illustrator 19.0.0, SVG Export Plug-In . SVG Version: 6.00 Build 0)  -->
<svg xmlns="http://www.w3.org/2000/svg" xmlns:xlink="http://www.w3.org/1999/xlink" version="1.1" id="Layer_1" x="0px" y="0px" viewBox="0 0 508 508" style="enable-background:new 0 0 508 508;" xml:space="preserve">
<circle style="fill:#FD8469;" cx="254" cy="254" r="254"/>
<path style="fill:#E6E9EE;" d="M384.4,200.8c0-1.2,0-2,0-3.2c0-22.8-18.4-41.6-41.6-41.6c-10,0-18.8,3.6-26,9.2  c-10.4-20-31.2-34-55.6-34c-34.4,0-62.4,28-62.4,62.4c0,2.4,0,4.8,0.4,6.8c-25.6,2.4-46,24-46,50.4c0,28,22.8,50.8,50.8,50.8h178  c28,0,50.8-22.8,50.8-50.8C432.4,224.4,411.2,202.4,384.4,200.8z"/>
<path style="fill:#FFFFFF;" d="M339.2,261.2c0-1.2,0-2.4,0-3.6c0-26.4-21.2-47.6-47.2-47.6c-11.2,0-21.6,4-29.6,10.4  c-12-22.8-36-38.8-63.6-38.8c-39.6,0-71.2,32-71.2,71.2c0,2.8,0,5.2,0.4,8c-29.2,2.8-52.4,27.6-52.4,57.6c0,32,26,57.6,57.6,57.6  H336c32,0,57.6-26,57.6-57.6C394,287.6,369.6,262.4,339.2,261.2z"/>
<g>
</g>
<g>
</g>
<g>
</g>
<g>
</g>
<g>
</g>
<g>
</g>
<g>
</g>
<g>
</g>
<g>
</g>
<g>
</g>
<g>
</g>
<g>
</g>
<g>
</g>
<g>
</g>
<g>
</g>
</svg>
