<?xml version="1.0" encoding="iso-8859-1"?>
<!-- Generator: Adobe Illustrator 19.0.0, SVG Export Plug-In . SVG Version: 6.00 Build 0)  -->
<svg xmlns="http://www.w3.org/2000/svg" xmlns:xlink="http://www.w3.org/1999/xlink" version="1.1" id="Layer_1" x="0px" y="0px" viewBox="0 0 508 508" style="enable-background:new 0 0 508 508;" xml:space="preserve">
<circle style="fill:#FFD05B;" cx="254" cy="254" r="254"/>
<path style="fill:#FF7058;" d="M375.2,385.6c-31.6,29.2-74.4,47.2-120.8,47.2c-98.8,0-178.8-80-178.8-178.8  c0-96,76-174.8,171.2-178.4v181.6L375.2,385.6z"/>
<path style="fill:#FFFFFF;" d="M375.2,122.4L261.6,236V75.6C305.2,77.2,344.8,94.8,375.2,122.4z"/>
<path style="fill:#54C0EB;" d="M432.4,246.4H272l113.6-113.6C413.2,163.2,430.8,202.8,432.4,246.4z"/>
<path style="fill:#324A5E;" d="M272,261.2h160.4c-1.6,43.6-19.2,83.6-47.2,113.6L272,261.2z"/>
<g>
</g>
<g>
</g>
<g>
</g>
<g>
</g>
<g>
</g>
<g>
</g>
<g>
</g>
<g>
</g>
<g>
</g>
<g>
</g>
<g>
</g>
<g>
</g>
<g>
</g>
<g>
</g>
<g>
</g>
</svg>
