<?xml version="1.0" encoding="iso-8859-1"?>
<!-- Generator: Adobe Illustrator 19.0.0, SVG Export Plug-In . SVG Version: 6.00 Build 0)  -->
<svg xmlns="http://www.w3.org/2000/svg" xmlns:xlink="http://www.w3.org/1999/xlink" version="1.1" id="Layer_1" x="0px" y="0px" viewBox="0 0 508 508" style="enable-background:new 0 0 508 508;" xml:space="preserve">
<circle style="fill:#FD8469;" cx="254" cy="254" r="254"/>
<path style="fill:#2B3B4E;" d="M268.4,238.8l-29.6,29.6L378,407.6c6.8,6.8,18,6.8,24.8,0l4.8-4.8c6.8-6.8,6.8-18,0-24.8L268.4,238.8  z"/>
<rect x="294.779" y="324.296" transform="matrix(-0.7071 -0.7071 0.7071 -0.7071 345.0958 833.5346)" style="fill:#FFD05B;" width="100.799" height="42"/>
<circle style="fill:#324A5E;" cx="202" cy="202" r="125.2"/>
<circle style="fill:#84DBFF;" cx="202" cy="202" r="91.2"/>
<path style="fill:#FFFFFF;" d="M162.8,247.6c-2,2-4.8,2-6.8,0c-25.2-25.2-25.2-66.4,0-91.6c2-2,4.8-2,6.8,0s2,4.8,0,6.8  c-21.6,21.6-21.6,56.8,0,78C164.8,242.8,164.8,246,162.8,247.6z"/>
<g>
</g>
<g>
</g>
<g>
</g>
<g>
</g>
<g>
</g>
<g>
</g>
<g>
</g>
<g>
</g>
<g>
</g>
<g>
</g>
<g>
</g>
<g>
</g>
<g>
</g>
<g>
</g>
<g>
</g>
</svg>
