<?xml version="1.0" encoding="iso-8859-1"?>
<!-- Generator: Adobe Illustrator 19.0.0, SVG Export Plug-In . SVG Version: 6.00 Build 0)  -->
<svg xmlns="http://www.w3.org/2000/svg" xmlns:xlink="http://www.w3.org/1999/xlink" version="1.1" id="Layer_1" x="0px" y="0px" viewBox="0 0 508 508" style="enable-background:new 0 0 508 508;" xml:space="preserve">
<circle style="fill:#324A5E;" cx="254" cy="254" r="254"/>
<path style="fill:#CED5E0;" d="M408.8,396.8c-26.8-70.8-86-120-154.8-120S126,326,99.2,396.8H408.8z"/>
<polygon style="fill:#54C0EB;" points="205.2,294.8 302.4,294.8 268.8,375.2 254,396.8 208.8,310.8 "/>
<g>
	<path style="fill:#ACB3BA;" d="M296,277.6c0,0,30,5.6,35.2,28L300.8,316l22,10.8l-68.8,70L296,277.6z"/>
	<path style="fill:#ACB3BA;" d="M212,277.6c0,0-30,5.6-35.2,28l30.4,10.4l-22,10.8l68.8,70L212,277.6z"/>
</g>
<path style="fill:#F9B54C;" d="M239.6,310.8c4.4-1.2,9.2-1.6,14.4-1.6c5.2,0,10,0.8,14.4,1.6c14-6,22.4-20,19.2-32  c-4.4-15.2-22.8-48.4-33.6-48.8c-10.8,0.4-29.2,33.6-33.6,48.8C217.6,290.8,225.6,305.2,239.6,310.8z"/>
<path style="fill:#FF7058;" d="M295.2,94.8c0.8-2.4,1.2-4.8,1.2-7.2c0-17.2-18.8-31.2-42.4-31.2c-23.2,0-42.4,14-42.4,31.2  c0,2.4,0.4,4.8,1.2,7.2c-34.8,14.4-59.2,46.4-59.2,83.2c0,50.4,44.8,91.2,100.4,91.2s100.4-40.8,100.4-91.2  C354.4,141.2,330,109.2,295.2,94.8z"/>
<path style="fill:#FFD05B;" d="M331.2,205.6c0,39.6-34.4,71.6-77.2,71.6c-42.4,0-76.8-32-76.8-71.6c0-3.6,0.4-6.8,0.8-10.4  c14-3.6,31.6-11.6,49.2-24c15.6-10.8,28.8-22.8,38-34c8.8,11.2,22,23.2,38,34c8.4,6,16.8,10.8,25.2,14.8  C330,192.4,331.2,198.8,331.2,205.6z"/>
<g>
	<path style="fill:#E6E9EE;" d="M214,275.6l40,33.6l-21.6,17.6l-24-28c-4.4-5.2-4.4-12.4,0.4-17.6L214,275.6z"/>
	<path style="fill:#E6E9EE;" d="M294,275.6l-40,33.6l21.6,17.6l24-28c4.4-5.2,4.4-12.4-0.4-17.6L294,275.6z"/>
</g>
<path style="fill:#FFFFFF;" d="M331.2,439.6c-74.8-36.4-69.2-120-69.2-120c33.2,4.4,69.2-26.8,69.2-26.8s36.4,31.2,69.2,26.8  C400.4,319.6,405.6,403.6,331.2,439.6z"/>
<path style="fill:#2C9984;" d="M331.2,426.8c-47.2-26-56-74-57.6-95.6c23.6-2,46.4-16,57.6-24c11.2,8,34,22,57.6,24  C387.2,352.8,378.8,400.8,331.2,426.8z"/>
<g>
</g>
<g>
</g>
<g>
</g>
<g>
</g>
<g>
</g>
<g>
</g>
<g>
</g>
<g>
</g>
<g>
</g>
<g>
</g>
<g>
</g>
<g>
</g>
<g>
</g>
<g>
</g>
<g>
</g>
</svg>
