<?xml version="1.0" encoding="iso-8859-1"?>
<!-- Generator: Adobe Illustrator 19.0.0, SVG Export Plug-In . SVG Version: 6.00 Build 0)  -->
<svg xmlns="http://www.w3.org/2000/svg" xmlns:xlink="http://www.w3.org/1999/xlink" version="1.1" id="Layer_1" x="0px" y="0px" viewBox="0 0 508 508" style="enable-background:new 0 0 508 508;" xml:space="preserve">
<circle style="fill:#FD8469;" cx="254" cy="254" r="254"/>
<path style="fill:#F1543F;" d="M58,415.6C104.4,472,175.2,508,254,508s149.2-36,196-92.4H58z"/>
<polygon style="fill:#ACB3BA;" points="300,361.6 208,361.6 166.8,415.2 341.2,415.2 "/>
<path style="fill:#CED5E0;" d="M394.8,361.6H113.2c-10,0-18-8-18-18V168.4c0-10,8-18,18-18h281.6c10,0,18,8,18,18v175.2  C412.8,353.6,404.8,361.6,394.8,361.6z"/>
<rect x="120.8" y="176" style="fill:#FFFFFF;" width="266.4" height="147.6"/>
<path style="fill:#F9B54C;" d="M298.8,268.8c-3.2-3.6-6.8-7.2-9.6-11.2c-1.6-2-2.4-4.8-2.4-7.2c-11.6-9.6-16-21.2-16-21.2h-34.4  c0,0-4.4,12.4-17.2,22c0,0.4,0,0.8,0,1.2c0,10.4-6,16.4-14,20l2.4,30L254,308l45.6-5.2l2.8-31.6C300.8,270.8,300,270,298.8,268.8z"/>
<path style="fill:#324A5E;" d="M317.6,323.6V272c-2,0.8-4.4,1.6-6.8,1.6c-6.8,0-11.6-3.6-14-8.4c-26.4,14.8-58.4,14.8-84.8,0  c-2.4,4.8-7.2,8.4-14,8.4c-2.8,0-5.2-0.4-7.2-1.6v51.2h126.8V323.6z"/>
<path style="fill:#FFD05B;" d="M312.4,183.2c-1.2-0.4-2.4-0.4-4,0.4c1.6-6.8,2.4-13.6,2.4-20.8c0-40-25.6-48-57.6-48  c-31.6,0-57.6,8-57.6,48c0,7.2,0.8,14,2.4,20.8c-1.6-0.4-2.8-0.8-4-0.4c-3.6,1.6-4,8-0.8,14.8s8.8,10.8,12.8,9.6  c0.4,0,0.4-0.4,0.8-0.4c10,20.4,27.2,34.8,46.4,34.8s36.4-14.4,46.8-34.8c0.4,0,0.4,0.4,0.8,0.4c3.6,1.6,9.6-2.8,12.8-9.6  C316.4,191.2,316,184.4,312.4,183.2z"/>
<path style="fill:#2B3B4E;" d="M293.2,108c8-4.8,16.8-8.8,25.2-8.8c0,0-27.2-9.2-47.6,0.8c4.4-3.6,9.6-7.2,14.8-10  c0,0-20.4,1.2-34.4,11.2c-1.6,0-2.8,0-4.4,0c0.8-3.2,1.6-6.8,1.6-11.2c0,0-9.6,4-15.2,12.4c-71.2,10-34.4,88-34,88  c1.6,0,5.2-17.2,5.6-18.8c2.8-9.2,3.6-19.2,13.6-24.4c6-3.2,13.2-2.8,20-2.4c4.4,0.4,10,2,14.4,1.2c4.4-0.4,8.8-0.8,13.2-1.2  c4-0.4,8.4-0.4,12.4-0.4c2.8,0,8.4-1.2,10.8,0.4c0.8,0.4,1.6,1.2,2,2c2.8,4,4.4,8.4,5.6,13.2c0.8,4,3.2,7.2,4.4,11.6  c0.4,1.6,4.4,18.8,6,18.8C307.6,190.4,336.4,129.2,293.2,108z"/>
<path style="fill:#84DBFF;" d="M379.2,323.6c-7.2-40.4-19.2-46.4-19.2-46.4s0,0,0,0.4l-6,22.4l-6.4,23.2h31.6V323.6z"/>
<path style="fill:#54C0EB;" d="M348,323.6c2-8.8,4-16.4,5.6-23.2c3.2-12,5.6-20,6-22.4c0-0.4,0-0.4,0-0.4c-14.4-0.8-26.4-2.8-36-6  c-4-1.2-7.6-2.4-10.8-3.6c-1.6,0.4-3.6,0.8-5.6,0.8c-2.4,0-4.4-0.4-6.4-1.2c-1.6-0.4-3.2-1.2-4.4-2l0,0c0,0,0,0-0.4,0v0.4v0.4v0.4  c-0.4,0.8-1.2,2-1.6,2.8c-0.8,1.2-2,2.4-3.6,3.2c0,0.8,0,1.2,0,2c0,6.4-3.2,11.6-6,17.2c-2,4.4-3.6,8.8-5.2,13.6c-2,6-4,12-5.6,18  L348,323.6L348,323.6z"/>
<g>
	<path style="fill:#84DBFF;" d="M273.2,323.6h24c16.4-28,28-55.2,28-55.2c-20.4-0.8-38.4-17.6-38.4-17.6   C288.8,268.8,281.2,297.6,273.2,323.6z"/>
	<path style="fill:#84DBFF;" d="M160.4,323.6l-6.4-24.4l0,0l-5.6-21.2c0-0.4,0-0.4,0-0.4s-12,5.6-19.2,46.4h31.2V323.6z"/>
</g>
<path style="fill:#54C0EB;" d="M153.6,298.8C154,298.8,154,299.2,153.6,298.8c2,7.2,4,15.6,6,24.4H234c-1.6-6-3.6-12-5.6-18  c-1.6-4.8-3.2-9.2-5.2-13.6c-2.4-5.6-6-11.2-6-17.2c0-0.8,0-1.2,0-2c-1.6-0.8-2.8-2-3.6-3.2c-0.4-0.4-0.4-0.8-0.8-1.2  c-0.4-0.8-0.8-1.2-1.2-2c0-0.4,0-0.4-0.4-0.8v-0.4c-1.6,1.2-3.2,1.6-4.8,2.4c-2,0.8-4.4,1.2-6.4,1.2s-4-0.4-5.6-0.8  c-3.2,1.2-6.8,2.4-10.8,3.6c-9.6,2.8-21.6,5.2-36,6c0,0,0,0,0,0.4C148.8,280,150.8,287.6,153.6,298.8z"/>
<path style="fill:#84DBFF;" d="M234.8,323.6c-8.4-25.6-15.6-54.8-14-72.8c0,0-18,16.8-38.4,17.6c0,0,11.6,27.2,28,55.2H234.8z"/>
<g>
</g>
<g>
</g>
<g>
</g>
<g>
</g>
<g>
</g>
<g>
</g>
<g>
</g>
<g>
</g>
<g>
</g>
<g>
</g>
<g>
</g>
<g>
</g>
<g>
</g>
<g>
</g>
<g>
</g>
</svg>
