<?xml version="1.0" encoding="iso-8859-1"?>
<!-- Generator: Adobe Illustrator 19.0.0, SVG Export Plug-In . SVG Version: 6.00 Build 0)  -->
<svg xmlns="http://www.w3.org/2000/svg" xmlns:xlink="http://www.w3.org/1999/xlink" version="1.1" id="Layer_1" x="0px" y="0px" viewBox="0 0 508 508" style="enable-background:new 0 0 508 508;" xml:space="preserve">
<circle style="fill:#324A5E;" cx="254" cy="254" r="254"/>
<g>
	<path style="fill:#E6E9EE;" d="M432.4,277.2v-46l-45.2-12c-3.2-12.4-8-24-14.4-34.4l23.6-40.4L364,112l-40.4,23.6   c-10.8-6.4-22.4-11.2-34.4-14.4l-12-45.2h-46.4l-12,45.2c-12.4,3.2-24,8-34.4,14.4L144,112l-32.4,32.4l23.6,40.4   c-6.4,10.8-11.2,22.4-14.4,34.4l-45.2,12v46l45.2,12c3.2,12.4,8,24,14.4,34.4L111.6,364l32.4,32.4l40.4-23.6   c10.8,6.4,22.4,11.2,34.4,14.4l12,45.2h46l12-45.2c12.4-3.2,24-8,34.4-14.4l40.4,23.6L396,364l-23.6-40.4   c6.4-10.8,11.2-22.4,14.4-34.4L432.4,277.2z M254,345.2c-50.4,0-91.2-40.8-91.2-91.2s40.8-91.2,91.2-91.2s91.2,40.8,91.2,91.2   S304.4,345.2,254,345.2z"/>
	<circle style="fill:#E6E9EE;" cx="254" cy="254" r="42"/>
</g>
<g>
</g>
<g>
</g>
<g>
</g>
<g>
</g>
<g>
</g>
<g>
</g>
<g>
</g>
<g>
</g>
<g>
</g>
<g>
</g>
<g>
</g>
<g>
</g>
<g>
</g>
<g>
</g>
<g>
</g>
</svg>
