<?xml version="1.0" encoding="iso-8859-1"?>
<!-- Generator: Adobe Illustrator 19.0.0, SVG Export Plug-In . SVG Version: 6.00 Build 0)  -->
<svg xmlns="http://www.w3.org/2000/svg" xmlns:xlink="http://www.w3.org/1999/xlink" version="1.1" id="Layer_1" x="0px" y="0px" viewBox="0 0 508 508" style="enable-background:new 0 0 508 508;" xml:space="preserve">
<circle style="fill:#90DFAA;" cx="254" cy="254" r="254"/>
<path style="fill:#FF7058;" d="M172.4,390.4c-28.8,28.8-50.8,26.4-66,11.2c-15.2-15.2-17.6-37.6,11.2-66  c28.8-28.8,77.6-53.2,92.8-38C225.2,312.8,201.2,361.6,172.4,390.4z"/>
<path style="fill:#2B3B4E;" d="M268.4,294.4l-54.8-54.8L171.2,282c-3.6,3.6-3.6,9.6,0,13.2l41.6,41.6c3.6,3.6,9.6,3.6,13.2,0  L268.4,294.4z"/>
<circle style="fill:#324A5E;" cx="294" cy="214" r="118.8"/>
<circle style="fill:#84DBFF;" cx="294" cy="214" r="93.2"/>
<ellipse style="fill:#FFFFFF;" cx="296.4" cy="157.2" rx="26.4" ry="16.4"/>
<g>
</g>
<g>
</g>
<g>
</g>
<g>
</g>
<g>
</g>
<g>
</g>
<g>
</g>
<g>
</g>
<g>
</g>
<g>
</g>
<g>
</g>
<g>
</g>
<g>
</g>
<g>
</g>
<g>
</g>
</svg>
