<?xml version="1.0" encoding="iso-8859-1"?>
<!-- Generator: Adobe Illustrator 19.0.0, SVG Export Plug-In . SVG Version: 6.00 Build 0)  -->
<svg xmlns="http://www.w3.org/2000/svg" xmlns:xlink="http://www.w3.org/1999/xlink" version="1.1" id="Layer_1" x="0px" y="0px" viewBox="0 0 508 508" style="enable-background:new 0 0 508 508;" xml:space="preserve">
<circle style="fill:#324A5E;" cx="254" cy="254" r="254"/>
<circle style="fill:#FF7058;" cx="254" cy="396" r="28.4"/>
<path style="fill:#F9B54C;" d="M254,67.6c-18.8,0-34,15.2-34,34s15.2,34,34,34s34-15.2,34-34S272.8,67.6,254,67.6z M254,117.6  c-8.8,0-16-7.2-16-16s7.2-16,16-16c8.8,0,16,7.2,16,16S262.8,117.6,254,117.6z"/>
<path style="fill:#FFD05B;" d="M364.8,339.6H143.2V234.4c0-61.2,49.6-110.8,110.8-110.8l0,0c61.2,0,110.8,49.6,110.8,110.8V339.6z"/>
<g>
	<rect x="143.2" y="250" style="fill:#FF7058;" width="221.6" height="13.6"/>
	<rect x="143.2" y="288" style="fill:#FF7058;" width="221.6" height="13.6"/>
</g>
<polygon style="fill:#F9B54C;" points="118.4,381.2 143.2,339.6 364.8,339.6 389.6,381.2 "/>
<g>
</g>
<g>
</g>
<g>
</g>
<g>
</g>
<g>
</g>
<g>
</g>
<g>
</g>
<g>
</g>
<g>
</g>
<g>
</g>
<g>
</g>
<g>
</g>
<g>
</g>
<g>
</g>
<g>
</g>
</svg>
