<?xml version="1.0" encoding="iso-8859-1"?>
<!-- Generator: Adobe Illustrator 19.0.0, SVG Export Plug-In . SVG Version: 6.00 Build 0)  -->
<svg xmlns="http://www.w3.org/2000/svg" xmlns:xlink="http://www.w3.org/1999/xlink" version="1.1" id="Layer_1" x="0px" y="0px" viewBox="0 0 508 508" style="enable-background:new 0 0 508 508;" xml:space="preserve">
<circle style="fill:#90DFAA;" cx="254" cy="254" r="254"/>
<g>
	<path style="fill:#324A5E;" d="M379.2,233.6c-38,38-90.8,44.8-120,15.6s-22.4-82,15.6-120s90.8-44.8,120-15.6   S417.2,195.6,379.2,233.6z M300,154.8c-22.8,22.8-30,54.4-15.6,68.8s46,7.2,68.8-15.6c22.8-22.8,30-54.4,15.6-68.8   C354.4,124.4,323.2,131.6,300,154.8z"/>
	<path style="fill:#324A5E;" d="M233.6,379.2c-38,38-90.8,44.8-120,15.6c-29.2-29.2-22.4-82,15.6-120s90.8-44.8,120-15.6   S271.6,340.8,233.6,379.2z M154.8,300c-22.8,22.8-30,54.4-15.6,68.8s46,7.2,68.8-15.6s30-54.4,15.6-68.8   C209.2,270,177.6,277.2,154.8,300z"/>
</g>
<path style="fill:#E6E9EE;" d="M318.4,215.2L215.2,318.4c-7.2,7.2-18.4,7.2-25.6,0c-7.2-7.2-7.2-18.4,0-25.6l103.2-103.2  c7.2-7.2,18.4-7.2,25.6,0C325.6,196.8,325.6,208,318.4,215.2z"/>
<g>
</g>
<g>
</g>
<g>
</g>
<g>
</g>
<g>
</g>
<g>
</g>
<g>
</g>
<g>
</g>
<g>
</g>
<g>
</g>
<g>
</g>
<g>
</g>
<g>
</g>
<g>
</g>
<g>
</g>
</svg>
