<?xml version="1.0" encoding="iso-8859-1"?>
<!-- Generator: Adobe Illustrator 19.0.0, SVG Export Plug-In . SVG Version: 6.00 Build 0)  -->
<svg xmlns="http://www.w3.org/2000/svg" xmlns:xlink="http://www.w3.org/1999/xlink" version="1.1" id="Layer_1" x="0px" y="0px" viewBox="0 0 508 508" style="enable-background:new 0 0 508 508;" xml:space="preserve">
<circle style="fill:#FD8469;" cx="254" cy="254" r="254"/>
<path style="fill:#2B3B4E;" d="M192.8,233.2v-84.4c0-33.6,27.6-61.2,61.2-61.2s61.2,27.6,61.2,61.2v84.4h30.4v-84.4  c0-50.4-40.8-91.2-91.2-91.2s-91.2,40.8-91.2,91.2v84.4L192.8,233.2L192.8,233.2z"/>
<path style="fill:#CED5E0;" d="M367.6,414.4H140.4c-8,0-14.4-6.4-14.4-14.4V239.6c0-8,6.4-14.4,14.4-14.4h227.2  c8,0,14.4,6.4,14.4,14.4V400C382,408,375.6,414.4,367.6,414.4z"/>
<path style="fill:#324A5E;" d="M254,274.4c-14,0-25.2,11.2-25.2,25.2c0,9.6,5.6,18,13.2,22v32c0,6.4,5.2,11.6,11.6,11.6  c6.4,0,11.6-5.2,11.6-11.6v-32c8-4.4,13.2-12.4,13.2-22C279.2,285.6,268,274.4,254,274.4z"/>
<g>
</g>
<g>
</g>
<g>
</g>
<g>
</g>
<g>
</g>
<g>
</g>
<g>
</g>
<g>
</g>
<g>
</g>
<g>
</g>
<g>
</g>
<g>
</g>
<g>
</g>
<g>
</g>
<g>
</g>
</svg>
