<?xml version="1.0" encoding="iso-8859-1"?>
<!-- Generator: Adobe Illustrator 19.0.0, SVG Export Plug-In . SVG Version: 6.00 Build 0)  -->
<svg xmlns="http://www.w3.org/2000/svg" xmlns:xlink="http://www.w3.org/1999/xlink" version="1.1" id="Layer_1" x="0px" y="0px" viewBox="0 0 508 508" style="enable-background:new 0 0 508 508;" xml:space="preserve">
<circle style="fill:#FD8469;" cx="254" cy="254" r="254"/>
<path id="SVGCleanerId_0" style="fill:#F9B54C;" d="M259.2,189.2l-21.6-23.6c-2-2.4-4.8-3.6-8-3.6H128.8c-6,0-10.8,4.8-10.8,10.8  v19.6v190.8c0,6,4.8,10.8,10.8,10.8h268c6,0,10.8-4.8,10.8-10.8v-180c0-6-4.8-10.8-10.8-10.8H267.6  C264.4,192.8,261.6,191.6,259.2,189.2z"/>
<rect id="SVGCleanerId_1" x="145.2" y="113.6" style="fill:#FFFFFF;" width="221.6" height="235.6"/>
<path id="SVGCleanerId_2" style="fill:#FFD05B;" d="M90.4,254.4l27.2,129.2c1.2,6,7.2,10.8,13.2,10.8h268c6,0,10-4.8,8.8-10.8  l-27.2-129.2c-1.2-6-7.2-10.8-13.2-10.8h-268C92.8,243.2,89.2,248.4,90.4,254.4z"/>
<rect id="SVGCleanerId_3" x="159.2" y="130.4" style="fill:#FF7058;" width="56.8" height="56.8"/>
<rect id="SVGCleanerId_4" x="234" y="139.2" style="fill:#ACB3BA;" width="115.6" height="9.2"/>
<rect id="SVGCleanerId_5" x="234" y="168.8" style="fill:#ACB3BA;" width="115.6" height="9.2"/>
<rect id="SVGCleanerId_6" x="171.6" y="207.6" style="fill:#ACB3BA;" width="138.8" height="9.2"/>
<g>
	<path id="SVGCleanerId_0_1_" style="fill:#F9B54C;" d="M259.2,189.2l-21.6-23.6c-2-2.4-4.8-3.6-8-3.6H128.8   c-6,0-10.8,4.8-10.8,10.8v19.6v190.8c0,6,4.8,10.8,10.8,10.8h268c6,0,10.8-4.8,10.8-10.8v-180c0-6-4.8-10.8-10.8-10.8H267.6   C264.4,192.8,261.6,191.6,259.2,189.2z"/>
</g>
<g>
	<rect id="SVGCleanerId_1_1_" x="145.2" y="113.6" style="fill:#FFFFFF;" width="221.6" height="235.6"/>
</g>
<g>
	<path id="SVGCleanerId_2_1_" style="fill:#FFD05B;" d="M90.4,254.4l27.2,129.2c1.2,6,7.2,10.8,13.2,10.8h268c6,0,10-4.8,8.8-10.8   l-27.2-129.2c-1.2-6-7.2-10.8-13.2-10.8h-268C92.8,243.2,89.2,248.4,90.4,254.4z"/>
</g>
<g>
	<rect id="SVGCleanerId_3_1_" x="159.2" y="130.4" style="fill:#FF7058;" width="56.8" height="56.8"/>
</g>
<g>
	<rect id="SVGCleanerId_4_1_" x="234" y="139.2" style="fill:#ACB3BA;" width="115.6" height="9.2"/>
</g>
<g>
	<rect id="SVGCleanerId_5_1_" x="234" y="168.8" style="fill:#ACB3BA;" width="115.6" height="9.2"/>
</g>
<g>
	<rect id="SVGCleanerId_6_1_" x="171.6" y="207.6" style="fill:#ACB3BA;" width="138.8" height="9.2"/>
</g>
<g>
</g>
<g>
</g>
<g>
</g>
<g>
</g>
<g>
</g>
<g>
</g>
<g>
</g>
<g>
</g>
<g>
</g>
<g>
</g>
<g>
</g>
<g>
</g>
<g>
</g>
<g>
</g>
<g>
</g>
</svg>
