<?xml version="1.0" encoding="iso-8859-1"?>
<!-- Generator: Adobe Illustrator 19.0.0, SVG Export Plug-In . SVG Version: 6.00 Build 0)  -->
<svg xmlns="http://www.w3.org/2000/svg" xmlns:xlink="http://www.w3.org/1999/xlink" version="1.1" id="Layer_1" x="0px" y="0px" viewBox="0 0 508 508" style="enable-background:new 0 0 508 508;" xml:space="preserve">
<circle style="fill:#FFD05B;" cx="254" cy="254" r="254"/>
<path style="fill:#FF7058;" d="M254,75.6c-98.8,0-178.4,80-178.4,178.4c0,98.8,80,178.4,178.4,178.4c98.8,0,178.4-80,178.4-178.4  C432.4,155.2,352.8,75.6,254,75.6z M254,380.8c-70,0-126.8-56.8-126.8-126.8S184,127.2,254,127.2S380.8,184,380.8,254  S324,380.8,254,380.8z"/>
<path style="fill:#324A5E;" d="M222,195.6V312c0,4.4,4.8,7.2,8.8,4.4l82.4-58.4c3.2-2,3.2-6.8,0-8.8l-82.8-58  C226.8,188.8,222,191.2,222,195.6z"/>
<path style="fill:#FF7058;" d="M254,75.6c-98.8,0-178.4,80-178.4,178.4c0,98.8,80,178.4,178.4,178.4c98.8,0,178.4-80,178.4-178.4  C432.4,155.2,352.8,75.6,254,75.6z M254,380.8c-70,0-126.8-56.8-126.8-126.8S184,127.2,254,127.2S380.8,184,380.8,254  S324,380.8,254,380.8z"/>
<path style="fill:#324A5E;" d="M222,195.6V312c0,4.4,4.8,7.2,8.8,4.4l82.4-58.4c3.2-2,3.2-6.8,0-8.8l-82.8-58  C226.8,188.8,222,191.2,222,195.6z"/>
<g>
</g>
<g>
</g>
<g>
</g>
<g>
</g>
<g>
</g>
<g>
</g>
<g>
</g>
<g>
</g>
<g>
</g>
<g>
</g>
<g>
</g>
<g>
</g>
<g>
</g>
<g>
</g>
<g>
</g>
</svg>
