<?xml version="1.0" encoding="iso-8859-1"?>
<!-- Generator: Adobe Illustrator 19.0.0, SVG Export Plug-In . SVG Version: 6.00 Build 0)  -->
<svg xmlns="http://www.w3.org/2000/svg" xmlns:xlink="http://www.w3.org/1999/xlink" version="1.1" id="Layer_1" x="0px" y="0px" viewBox="0 0 508 508" style="enable-background:new 0 0 508 508;" xml:space="preserve">
<circle style="fill:#324A5E;" cx="254" cy="254" r="254"/>
<path style="fill:#E6E9EE;" d="M171.2,265.6l74,74.4c9.2,9.2,24.4,7.6,31.6-3.2l9.6-15.2c7.2-10.8,22.4-12.4,31.6-3.2l52.4,52.4  c8,8,8,20.8,0,28.4l0,0l-0.8,0.8c-44.4,43.6-116,42.8-160-1.2l-97.2-97.6c-44-44-45.2-115.6-1.2-160l0.8-0.8l0,0  c8-8,20.8-7.6,28.4,0l52.4,52.4c9.2,9.2,7.6,24.4-3.2,31.6l-14.8,9.6C163.6,241.2,162,256.4,171.2,265.6z"/>
<circle style="fill:#FF7058;" cx="312.4" cy="189.2" r="74.4"/>
<path style="fill:#FFFFFF;" d="M336.8,147.6v16h-32.4v14c2.4-0.8,5.2-1.2,8.4-1.2c8,0,14.8,2.4,20.4,7.2s8.8,11.2,8.8,19.6  c0,8-2.8,14.8-8.8,20s-13.2,8-22,8c-11.2,0-20.4-4-28-12.4l9.6-13.6c0.8,0.8,1.6,1.6,2.8,2.4c1.2,1.2,3.2,2.4,6.4,4  c3.2,1.6,6.4,2.4,9.6,2.4s6-0.8,8.4-2.8s3.6-4.8,3.6-8.4c0-3.6-1.2-6.4-4-8.4s-6-3.2-10.4-3.2c-4,0-9.2,1.6-14.4,4.4l-7.6-8.4v-39.6  H336.8z"/>
<g>
</g>
<g>
</g>
<g>
</g>
<g>
</g>
<g>
</g>
<g>
</g>
<g>
</g>
<g>
</g>
<g>
</g>
<g>
</g>
<g>
</g>
<g>
</g>
<g>
</g>
<g>
</g>
<g>
</g>
</svg>
