<?xml version="1.0" encoding="iso-8859-1"?>
<!-- Generator: Adobe Illustrator 19.0.0, SVG Export Plug-In . SVG Version: 6.00 Build 0)  -->
<svg xmlns="http://www.w3.org/2000/svg" xmlns:xlink="http://www.w3.org/1999/xlink" version="1.1" id="Layer_1" x="0px" y="0px" viewBox="0 0 508 508" style="enable-background:new 0 0 508 508;" xml:space="preserve">
<path style="fill:#90DFAA;" d="M508,254c0,134-104,244-235.6,253.2c-6,0.4-12,0.8-18.4,0.8c-6,0-12.4-0.4-18.4-0.8  C104,498,0,388,0,254C0,113.6,113.6,0,254,0S508,113.6,508,254z"/>
<path style="fill:#324A5E;" d="M378.4,412.8H129.6c-5.6,0-10.4-4.4-10.4-10.4V105.6c0-5.6,4.4-10.4,10.4-10.4h248.8  c5.6,0,10.4,4.4,10.4,10.4v297.2C388.8,408,384,412.8,378.4,412.8z"/>
<g>
	<rect x="268" y="314" style="fill:#E6E9EE;" width="96.4" height="70.8"/>
	<rect x="143.6" y="314" style="fill:#E6E9EE;" width="96.4" height="70.8"/>
	<rect x="268" y="217.6" style="fill:#E6E9EE;" width="96.4" height="70.8"/>
	<rect x="143.6" y="217.6" style="fill:#E6E9EE;" width="96.4" height="70.8"/>
</g>
<rect x="143.6" y="123.2" style="fill:#54C0EB;" width="220.8" height="66.4"/>
<g>
	<rect x="292.4" y="333.2" style="fill:#FF7058;" width="47.2" height="11.6"/>
	<rect x="292.4" y="354" style="fill:#FF7058;" width="47.2" height="11.6"/>
</g>
<rect x="168" y="247.2" style="fill:#4CDBC4;" width="47.2" height="11.6"/>
<g>
	<polygon style="fill:#F9B54C;" points="336.8,265.6 324.4,252.8 336.8,240 328.8,232 316,244.8 303.6,232 295.6,240 308,252.8    295.6,265.6 303.6,273.6 316,260.8 328.8,273.6  "/>
	<polygon style="fill:#F9B54C;" points="197.6,325.6 186,325.6 186,343.6 168,343.6 168,354.8 186,354.8 186,372.8 197.6,372.8    197.6,354.8 215.6,354.8 215.6,343.6 197.6,343.6  "/>
</g>
<g>
</g>
<g>
</g>
<g>
</g>
<g>
</g>
<g>
</g>
<g>
</g>
<g>
</g>
<g>
</g>
<g>
</g>
<g>
</g>
<g>
</g>
<g>
</g>
<g>
</g>
<g>
</g>
<g>
</g>
</svg>
