<?xml version="1.0" encoding="iso-8859-1"?>
<!-- Generator: Adobe Illustrator 19.0.0, SVG Export Plug-In . SVG Version: 6.00 Build 0)  -->
<svg xmlns="http://www.w3.org/2000/svg" xmlns:xlink="http://www.w3.org/1999/xlink" version="1.1" id="Layer_1" x="0px" y="0px" viewBox="0 0 508 508" style="enable-background:new 0 0 508 508;" xml:space="preserve">
<circle style="fill:#324A5E;" cx="254" cy="254" r="254"/>
<path style="fill:#FF7058;" d="M422.8,379.6c-16-8.8-28-20.4-36.4-32.8c17.2-16.4,28-38.4,28-62c0-52-50-94-111.6-94  s-111.6,42-111.6,94s50,94,111.6,94c14.4,0,28.4-2.4,41.2-6.8C370.4,383.2,398.8,385.2,422.8,379.6z"/>
<path style="fill:#CED5E0;" d="M230.4,105.2c-74.4,0-134.8,50.8-134.8,114c0,28.8,12.8,55.2,33.6,75.2c-10,15.2-24.8,29.2-44,40  c29.2,6.8,63.2,4.4,95.6-9.2c15.2,5.2,32,8,49.6,8c74.4,0,134.8-50.8,134.8-114S304.8,105.2,230.4,105.2z"/>
<g>
	<circle style="fill:#FFFFFF;" cx="162.8" cy="218.8" r="21.2"/>
	<circle style="fill:#FFFFFF;" cx="230.4" cy="218.8" r="21.2"/>
	<circle style="fill:#FFFFFF;" cx="298.4" cy="218.8" r="21.2"/>
</g>
<g>
</g>
<g>
</g>
<g>
</g>
<g>
</g>
<g>
</g>
<g>
</g>
<g>
</g>
<g>
</g>
<g>
</g>
<g>
</g>
<g>
</g>
<g>
</g>
<g>
</g>
<g>
</g>
<g>
</g>
</svg>
