<?xml version="1.0" encoding="iso-8859-1"?>
<!-- Generator: Adobe Illustrator 19.0.0, SVG Export Plug-In . SVG Version: 6.00 Build 0)  -->
<svg xmlns="http://www.w3.org/2000/svg" xmlns:xlink="http://www.w3.org/1999/xlink" version="1.1" id="Layer_1" x="0px" y="0px" viewBox="0 0 508 508" style="enable-background:new 0 0 508 508;" xml:space="preserve">
<circle style="fill:#FF7058;" cx="254" cy="254" r="254"/>
<path style="fill:#324A5E;" d="M352.4,412.8H155.6c-6.4,0-11.6-5.2-11.6-11.6v-294c0-6.4,5.2-11.6,11.6-11.6h196.8  c6.4,0,11.6,5.2,11.6,11.6v294C364.4,407.6,359.2,412.8,352.4,412.8z"/>
<rect x="170" y="136.4" style="fill:#FFFFFF;" width="168" height="203.2"/>
<rect x="170" y="136.4" style="fill:#84DBFF;" width="168" height="22"/>
<g>
	<circle style="fill:#2B3B4E;" cx="254" cy="374.8" r="17.2"/>
	<path style="fill:#2B3B4E;" d="M281.2,122h-54.4c-3.2,0-6-2.8-6-6l0,0c0-3.2,2.8-6,6-6h54.4c3.2,0,6,2.8,6,6l0,0   C287.2,119.2,284.4,122,281.2,122z"/>
</g>
<rect x="178.8" y="167.6" style="fill:#CED5E0;" width="107.6" height="159.6"/>
<g>
	<rect x="296.4" y="184.8" style="fill:#4CDBC4;" width="31.2" height="3.6"/>
	<rect x="296.4" y="200" style="fill:#4CDBC4;" width="31.2" height="3.6"/>
	<rect x="296.4" y="215.2" style="fill:#4CDBC4;" width="31.2" height="3.6"/>
	<rect x="296.4" y="230.4" style="fill:#4CDBC4;" width="31.2" height="3.6"/>
	<rect x="296.4" y="245.6" style="fill:#4CDBC4;" width="31.2" height="3.6"/>
	<rect x="296.4" y="260.8" style="fill:#4CDBC4;" width="31.2" height="3.6"/>
	<rect x="296.4" y="276" style="fill:#4CDBC4;" width="31.2" height="3.6"/>
	<rect x="296.4" y="291.2" style="fill:#4CDBC4;" width="31.2" height="3.6"/>
	<rect x="296.4" y="306.8" style="fill:#4CDBC4;" width="31.2" height="3.6"/>
</g>
<g>
</g>
<g>
</g>
<g>
</g>
<g>
</g>
<g>
</g>
<g>
</g>
<g>
</g>
<g>
</g>
<g>
</g>
<g>
</g>
<g>
</g>
<g>
</g>
<g>
</g>
<g>
</g>
<g>
</g>
</svg>
