<?xml version="1.0" encoding="iso-8859-1"?>
<!-- Generator: Adobe Illustrator 19.0.0, SVG Export Plug-In . SVG Version: 6.00 Build 0)  -->
<svg xmlns="http://www.w3.org/2000/svg" xmlns:xlink="http://www.w3.org/1999/xlink" version="1.1" id="Layer_1" x="0px" y="0px" viewBox="0 0 508 508" style="enable-background:new 0 0 508 508;" xml:space="preserve">
<circle style="fill:#90DFAA;" cx="254" cy="254" r="254"/>
<path style="fill:#FFFFFF;" d="M376.4,265.6c-3.2-17.2-10-33.6-19.6-47.6l13.2-17.6l-28-27.6L324.4,186c-14-9.6-30-16.4-47.6-19.6  l-3.2-22h-39.2l-3.2,22c-17.2,3.2-33.6,10-47.6,19.6L166,172.8l-27.6,27.6l13.2,17.6c-9.6,14-16.4,30-19.6,47.6l-22,3.2V308l22,3.2  c3.2,17.2,10,33.6,19.6,47.6l-13.2,17.6L166,404l17.6-13.2c14,9.6,30,16.4,47.6,19.6l3.2,22h39.2l3.2-22c17.2-3.2,33.6-10,47.6-19.6  L342,404l27.6-27.6l-13.2-17.6c9.6-14,16.4-30,19.6-47.6l22-3.2v-39.2L376.4,265.6z M254,372.4c-46.4,0-83.6-37.6-83.6-83.6  c0-46.4,37.6-83.6,83.6-83.6s83.6,37.6,83.6,83.6S300.4,372.4,254,372.4z"/>
<polygon style="fill:#FF7058;" points="186.8,153.6 224,153.6 224,296 284,296 284,153.6 321.2,153.6 321.2,153.6 254,75.6   254,75.6 "/>
<g>
</g>
<g>
</g>
<g>
</g>
<g>
</g>
<g>
</g>
<g>
</g>
<g>
</g>
<g>
</g>
<g>
</g>
<g>
</g>
<g>
</g>
<g>
</g>
<g>
</g>
<g>
</g>
<g>
</g>
</svg>
