<?xml version="1.0" encoding="iso-8859-1"?>
<!-- Generator: Adobe Illustrator 19.0.0, SVG Export Plug-In . SVG Version: 6.00 Build 0)  -->
<svg xmlns="http://www.w3.org/2000/svg" xmlns:xlink="http://www.w3.org/1999/xlink" version="1.1" id="Layer_1" x="0px" y="0px" viewBox="0 0 508 508" style="enable-background:new 0 0 508 508;" xml:space="preserve">
<circle style="fill:#FD8469;" cx="254" cy="254" r="254"/>
<path style="fill:#FFFFFF;" d="M378,402.8H130c-13.6,0-24.8-11.2-24.8-24.8V170.8h297.6V378C402.8,391.6,391.6,402.8,378,402.8z"/>
<path style="fill:#324A5E;" d="M402.8,170.8V130c0-13.6-11.2-24.8-24.8-24.8H130c-13.6,0-24.8,11.2-24.8,24.8v40.8H402.8z"/>
<g>
	<circle style="fill:#FD8469;" cx="342.4" cy="138" r="15.2"/>
	<circle style="fill:#FD8469;" cx="165.6" cy="138" r="15.2"/>
</g>
<g>
	<rect x="268.8" y="207.2" style="fill:#4CDBC4;" width="36.8" height="36.8"/>
	<rect x="336" y="207.2" style="fill:#4CDBC4;" width="36.8" height="36.8"/>
	<rect x="135.2" y="271.2" style="fill:#4CDBC4;" width="36.8" height="36.8"/>
	<rect x="202" y="271.2" style="fill:#4CDBC4;" width="36.8" height="36.8"/>
	<rect x="268.8" y="271.2" style="fill:#4CDBC4;" width="36.8" height="36.8"/>
	<rect x="336" y="271.2" style="fill:#4CDBC4;" width="36.8" height="36.8"/>
	<rect x="135.2" y="335.6" style="fill:#4CDBC4;" width="36.8" height="36.8"/>
	<rect x="202" y="335.6" style="fill:#4CDBC4;" width="36.8" height="36.8"/>
	<rect x="268.8" y="335.6" style="fill:#4CDBC4;" width="36.8" height="36.8"/>
</g>
<g>
</g>
<g>
</g>
<g>
</g>
<g>
</g>
<g>
</g>
<g>
</g>
<g>
</g>
<g>
</g>
<g>
</g>
<g>
</g>
<g>
</g>
<g>
</g>
<g>
</g>
<g>
</g>
<g>
</g>
</svg>
