<?xml version="1.0" encoding="iso-8859-1"?>
<!-- Generator: Adobe Illustrator 19.0.0, SVG Export Plug-In . SVG Version: 6.00 Build 0)  -->
<svg xmlns="http://www.w3.org/2000/svg" xmlns:xlink="http://www.w3.org/1999/xlink" version="1.1" id="Layer_1" x="0px" y="0px" viewBox="0 0 508 508" style="enable-background:new 0 0 508 508;" xml:space="preserve">
<circle style="fill:#54C0EB;" cx="254" cy="254" r="254"/>
<polygon style="fill:#2B3B4E;" points="300,361.6 208,361.6 166.8,415.2 341.2,415.2 "/>
<path style="fill:#324A5E;" d="M394.8,361.6H113.2c-10,0-18-8-18-18V168.4c0-10,8-18,18-18h281.6c10,0,18,8,18,18v175.2  C412.8,353.6,404.8,361.6,394.8,361.6z"/>
<rect x="120.8" y="176" style="fill:#FFFFFF;" width="266.4" height="147.6"/>
<path style="fill:#2B3B4E;" d="M228.4,277.6c0,0,21.6-14.4,50.8,0l-5.2,12.8h-40L228.4,277.6z"/>
<path style="fill:#F9B54C;" d="M263.2,264.8h-18.4c-4.4,9.2-10.8,18-19.2,20.4l16,31.2h24.8l16-31.2  C274,282.8,267.6,274,263.2,264.8z"/>
<path style="fill:#FFFFFF;" d="M279.2,323.6v-36.8c-14.4,12.8-36.8,12.8-50.8-0.8c-12,12.4-23.6,25.2-35.6,37.6L279.2,323.6  L279.2,323.6z"/>
<path style="fill:#324A5E;" d="M290.4,233.2L290.4,233.2c-4.8-3.6-7.2-9.6-6.8-15.2c0.8-11.2-2-30-29.6-29.6  c-27.6-0.4-30.4,18.4-29.6,29.6c0.4,6-2,11.6-6.8,15.2l0,0c-14.8,10.8-6.8,33.2,11.6,33.2H254h24.8  C297.2,266.4,305.2,244,290.4,233.2z"/>
<path style="fill:#FFD05B;" d="M280.8,234.4c0,20.4-11.6,37.2-26,37.2s-26-16.8-26-37.6c0-1.6,0-2.8,0-4.4  c10.4-3.6,19.2-10.8,24.8-16.8C261.2,221.6,270.4,230.4,280.8,234.4z"/>
<g>
	<path style="fill:#54C0EB;" d="M308.8,323.6c4.8-14,8.8-24,9.2-24.8l0,0l-25.2-9.6l-10-4l-1.6-0.4l-0.8-0.4l-1.2,2.4L264,316.4   l-3.6,7.2L308.8,323.6L308.8,323.6z"/>
	<path style="fill:#54C0EB;" d="M197.6,318.4c0.4,1.6,1.2,3.6,1.6,5.2H248l-3.6-7.2l-15.6-30l-0.8-2l-0.8,0.4l-1.6,0.4l-10,4   l-25.6,9.6l0,0C190.4,299.6,193.6,307.2,197.6,318.4z"/>
</g>
<path style="fill:#324A5E;" d="M215.6,308.8l21.2,14.4h12l-20.4-46c0,0-14,5.2-15.6,19.6h10L215.6,308.8z"/>
<path style="fill:#84DBFF;" d="M203.2,323.6c-0.8-2.8-2-5.2-3.2-7.6c-4.4-9.6-9.2-16.4-9.6-17.2l0,0c-2.4,7.6-4.4,16-5.6,24.8  L203.2,323.6L203.2,323.6z"/>
<path style="fill:#324A5E;" d="M270.8,323.6l21.2-14.4l-7.6-11.6h10c-1.6-14.8-15.6-19.6-15.6-19.6l-20.4,46h12.4V323.6z"/>
<path style="fill:#84DBFF;" d="M323.6,323.6c-1.6-8.8-3.2-16.8-5.6-24.8l0,0c-0.4,0.8-7.6,11.2-12.8,24.8H323.6z"/>
<g>
</g>
<g>
</g>
<g>
</g>
<g>
</g>
<g>
</g>
<g>
</g>
<g>
</g>
<g>
</g>
<g>
</g>
<g>
</g>
<g>
</g>
<g>
</g>
<g>
</g>
<g>
</g>
<g>
</g>
</svg>
