<?xml version="1.0" encoding="iso-8859-1"?>
<!-- Generator: Adobe Illustrator 19.0.0, SVG Export Plug-In . SVG Version: 6.00 Build 0)  -->
<svg xmlns="http://www.w3.org/2000/svg" xmlns:xlink="http://www.w3.org/1999/xlink" version="1.1" id="Layer_1" x="0px" y="0px" viewBox="0 0 508 508" style="enable-background:new 0 0 508 508;" xml:space="preserve">
<circle style="fill:#FFD05B;" cx="254" cy="254" r="254"/>
<path style="fill:#324A5E;" d="M356.4,412.8H151.6c-9.2,0-16.4-7.2-16.4-16.4V111.6c0-9.2,7.2-16.4,16.4-16.4h204.8  c9.2,0,16.4,7.2,16.4,16.4V396C372.8,405.2,365.6,412.8,356.4,412.8z"/>
<rect x="163.6" y="134" style="fill:#54C0EB;" width="180.4" height="216.8"/>
<g>
	<path style="fill:#2B3B4E;" d="M284,121.2h-60c-2.8,0-4.8-2-4.8-4.8l0,0c0-2.8,2-4.8,4.8-4.8h59.6c2.8,0,4.8,2,4.8,4.8l0,0   C288.8,118.8,286.4,121.2,284,121.2z"/>
	<circle style="fill:#2B3B4E;" cx="254" cy="380.4" r="18"/>
</g>
<path style="fill:#E6E9EE;" d="M266.8,242.4c13.2-8,32-22,32-38c0-7.2-1.6-14.4-4.8-20.4h-79.6c-3.2,6-4.8,13.2-4.8,20.4  c0,16,18.8,30,32,38c-13.2,8-32,22-32,38c0,7.2,1.6,14.4,4.8,20.4H294c3.2-6,4.8-13.2,4.8-20.4C298.8,264.4,280,250.4,266.8,242.4z"/>
<g>
	<path style="fill:#FF7058;" d="M278.8,264h-49.6c-6.4,6-10,12-10,16.8c0,3.6,0.4,6.8,1.6,10.4h66c1.2-3.2,1.6-6.8,1.6-10.4   C288.8,275.6,285.2,270,278.8,264z"/>
	<path style="fill:#FF7058;" d="M219.2,204.4L219.2,204.4c0,8.4,10,19.6,27.2,29.6l7.6,4.4l7.6-4.4c16.8-10,27.2-21.2,27.2-29.2   v-0.4L219.2,204.4L219.2,204.4z"/>
</g>
<g>
	<path style="fill:#FFFFFF;" d="M303.2,184.4h-98.4c-2,0-4-1.6-4-4v-9.2c0-2,1.6-4,4-4h98c2,0,4,1.6,4,4v9.2   C306.8,182.4,305.2,184.4,303.2,184.4z"/>
	<path style="fill:#FFFFFF;" d="M303.2,317.6h-98.4c-2,0-4-1.6-4-4v-9.2c0-2,1.6-4,4-4h98c2,0,4,1.6,4,4v9.2   C306.8,316,305.2,317.6,303.2,317.6z"/>
</g>
<g>
	<circle style="fill:#FF7058;" cx="254" cy="246.8" r="2.4"/>
	<circle style="fill:#FF7058;" cx="254" cy="256.4" r="2.4"/>
</g>
<g>
</g>
<g>
</g>
<g>
</g>
<g>
</g>
<g>
</g>
<g>
</g>
<g>
</g>
<g>
</g>
<g>
</g>
<g>
</g>
<g>
</g>
<g>
</g>
<g>
</g>
<g>
</g>
<g>
</g>
</svg>
