<?xml version="1.0" encoding="iso-8859-1"?>
<!-- Generator: Adobe Illustrator 19.0.0, SVG Export Plug-In . SVG Version: 6.00 Build 0)  -->
<svg xmlns="http://www.w3.org/2000/svg" xmlns:xlink="http://www.w3.org/1999/xlink" version="1.1" id="Layer_1" x="0px" y="0px" viewBox="0 0 508 508" style="enable-background:new 0 0 508 508;" xml:space="preserve">
<circle style="fill:#324A5E;" cx="254" cy="254" r="254"/>
<g>
	<path style="fill:#FFFFFF;" d="M457.2,406c5.2-7.2,10-14.4,14.8-22l-58.4-110.8L314.4,290l2,11.2l9.6,53.6l3.2,17.6l4,22.8   l3.2,17.6l13.6,76c31.6-12.8,59.6-31.6,83.2-55.2c4.8-4.4,8.8-9.2,13.2-14.4L457.2,406z"/>
	<path style="fill:#FFFFFF;" d="M208.8,273.2l-1.6,10l-2,10.8l-4.8,29.6l0,0l-2,11.2l-15.6,94l-2.4,14.8L176,470l-4,24   c-11.6-4-23.2-8.8-34-14.4l0,0c-8-4-15.2-8.4-22.8-13.2c-6-4-12-8-17.6-12.8c-14-10.8-26.8-23.2-38-36.8c-5.6-6.8-11.2-14-16-21.2   l54.4-106L208.8,273.2z"/>
</g>
<path style="fill:#E6E9EE;" d="M350,489.2L350,489.2c-16.4,6.8-33.6,11.6-51.2,14.8l0,0c-14.8,2.8-29.6,4-44.8,4  c-28.8,0-56-4.8-82-13.6l4-24l4.4-26.4l2.4-14.8l15.6-94l2-11.2l0,0l4.8-29.6l2-10.8l1.6-10l105.6,16.8l2,11.2l9.6,53.2l3.2,17.6  l4,22.8l3.2,17.6L350,489.2z"/>
<polygon style="fill:#4CDBC4;" points="401.6,286.4 316.4,301.6 326,355.2 410.4,305.2 "/>
<g>
	<polygon style="fill:#84DBFF;" points="457.2,406 416,317.2 329.2,372.8 333.2,395.6 446.8,419.6  "/>
	<path style="fill:#84DBFF;" d="M433.2,434c-23.6,23.6-52,42.4-83.2,55.2c0,0,0,0-0.4,0l-14.4-76.4h0.8L433.2,434z"/>
</g>
<polygon style="fill:#2C9984;" points="316.4,301.6 207.2,283.2 200.4,324 326,355.2 "/>
<g>
	<polygon style="fill:#54C0EB;" points="329.2,372.8 198.8,335.2 182.8,429.2 333.2,395.6  "/>
	<path style="fill:#54C0EB;" d="M350,489.2c-16,6.8-33.2,11.6-50.8,14.8l0,0l-122.8-33.6l4.4-26.4L336,412.8L350,489.2z"/>
</g>
<polygon style="fill:#4CDBC4;" points="200.4,324 72.4,389.2 113.2,298 207.2,283.2 "/>
<g>
	<path style="fill:#84DBFF;" d="M198.8,335.2l-15.6,94L97.6,454c-14-10.8-26.8-23.2-38-36.8l2-4.8L198.8,335.2z"/>
	<path style="fill:#84DBFF;" d="M180.4,444l-4.4,26.4l-38,9.6l0,0c-8-4-15.2-8.4-22.8-13.2L180.4,444z"/>
</g>
<path style="fill:#FF7058;" d="M329.6,158.8c0,42-75.6,154.8-75.6,154.8s-75.6-112.8-75.6-154.8s34-75.6,75.6-75.6  S329.6,117.2,329.6,158.8z"/>
<circle style="fill:#FFFFFF;" cx="254" cy="156.8" r="56"/>
<circle style="fill:#FF7058;" cx="254" cy="156.8" r="23.6"/>
<g>
</g>
<g>
</g>
<g>
</g>
<g>
</g>
<g>
</g>
<g>
</g>
<g>
</g>
<g>
</g>
<g>
</g>
<g>
</g>
<g>
</g>
<g>
</g>
<g>
</g>
<g>
</g>
<g>
</g>
</svg>
