<?xml version="1.0" encoding="iso-8859-1"?>
<!-- Generator: Adobe Illustrator 19.0.0, SVG Export Plug-In . SVG Version: 6.00 Build 0)  -->
<svg xmlns="http://www.w3.org/2000/svg" xmlns:xlink="http://www.w3.org/1999/xlink" version="1.1" id="Layer_1" x="0px" y="0px" viewBox="0 0 508 508" style="enable-background:new 0 0 508 508;" xml:space="preserve">
<circle style="fill:#4CDBC4;" cx="254" cy="254" r="254"/>
<rect x="117.2" y="142" style="fill:#324A5E;" width="44.8" height="19.6"/>
<path style="fill:#E6E9EE;" d="M409.6,366H98.4c-7.2,0-12.8-5.6-12.8-12.8V168c0-7.2,5.6-12.8,12.8-12.8h310.8  c7.2,0,12.8,5.6,12.8,12.8v185.6C422,360.4,416.4,366,409.6,366z"/>
<path style="fill:#324A5E;" d="M86,206.4v147.2c0,6.8,5.6,12.8,12.8,12.8H410c6.8,0,12.8-5.6,12.8-12.8V206.4H86z"/>
<circle style="fill:#2B3B4E;" cx="254" cy="260.8" r="84.8"/>
<circle style="fill:#E6E9EE;" cx="254" cy="260.8" r="61.6"/>
<circle style="fill:#ACB3BA;" cx="254" cy="260.8" r="36.8"/>
<circle style="fill:#FFFFFF;" cx="240.4" cy="249.2" r="13.6"/>
<circle style="fill:#FF7058;" cx="152.4" cy="237.2" r="6.4"/>
<rect x="338.8" y="171.6" style="fill:#54C0EB;" width="46.8" height="20.4"/>
<g>
</g>
<g>
</g>
<g>
</g>
<g>
</g>
<g>
</g>
<g>
</g>
<g>
</g>
<g>
</g>
<g>
</g>
<g>
</g>
<g>
</g>
<g>
</g>
<g>
</g>
<g>
</g>
<g>
</g>
</svg>
