<?xml version="1.0" encoding="iso-8859-1"?>
<!-- Generator: Adobe Illustrator 19.0.0, SVG Export Plug-In . SVG Version: 6.00 Build 0)  -->
<svg xmlns="http://www.w3.org/2000/svg" xmlns:xlink="http://www.w3.org/1999/xlink" version="1.1" id="Layer_1" x="0px" y="0px" viewBox="0 0 508 508" style="enable-background:new 0 0 508 508;" xml:space="preserve">
<circle style="fill:#FFD05B;" cx="254" cy="254" r="254"/>
<path style="fill:#FFFFFF;" d="M370.4,412.8H137.6c-6,0-10.8-4.8-10.8-10.8V106c0-6,4.8-10.8,10.8-10.8h232.8  c6,0,10.8,4.8,10.8,10.8v296C381.2,408,376.4,412.8,370.4,412.8z"/>
<path style="fill:#54C0EB;" d="M381.2,134v-28c0-6-4.8-10.8-10.8-10.8H137.6c-6,0-10.8,4.8-10.8,10.8v28H381.2z"/>
<g>
	<circle style="fill:#FFFFFF;" cx="354" cy="114.4" r="8.4"/>
	<circle style="fill:#FFFFFF;" cx="323.6" cy="114.4" r="8.4"/>
	<circle style="fill:#FFFFFF;" cx="293.2" cy="114.4" r="8.4"/>
</g>
<rect x="151.2" y="155.6" style="fill:#4CDBC4;" width="205.6" height="66.8"/>
<rect x="151.2" y="240" style="fill:#324A5E;" width="94" height="66.8"/>
<rect x="262.8" y="240" style="fill:#FD8469;" width="94" height="66.8"/>
<rect x="151.2" y="324.4" style="fill:#CED5E0;" width="94" height="66.8"/>
<rect x="262.8" y="324.4" style="fill:#FFD05B;" width="94" height="66.8"/>
<g>
</g>
<g>
</g>
<g>
</g>
<g>
</g>
<g>
</g>
<g>
</g>
<g>
</g>
<g>
</g>
<g>
</g>
<g>
</g>
<g>
</g>
<g>
</g>
<g>
</g>
<g>
</g>
<g>
</g>
</svg>
