<?xml version="1.0" encoding="iso-8859-1"?>
<!-- Generator: Adobe Illustrator 19.0.0, SVG Export Plug-In . SVG Version: 6.00 Build 0)  -->
<svg xmlns="http://www.w3.org/2000/svg" xmlns:xlink="http://www.w3.org/1999/xlink" version="1.1" id="Layer_1" x="0px" y="0px" viewBox="0 0 508 508" style="enable-background:new 0 0 508 508;" xml:space="preserve">
<circle style="fill:#FD8469;" cx="254" cy="254" r="254"/>
<g>
	<rect x="150" y="373.6" style="fill:#324A5E;" width="208" height="15.6"/>
	<rect x="246.4" y="295.2" style="fill:#324A5E;" width="15.6" height="87.2"/>
</g>
<path style="fill:#FFFFFF;" d="M372.8,185.6c0-1.6,0.4-2.8,0.4-4.4c0-30-24-54-54-54c-12.8,0-24.4,4.4-34,12c-13.6-26-40.8-44-72-44  c-44.8,0-81.2,36.4-81.2,81.2c0,3.2,0,6,0.4,9.2c-33.6,3.2-59.6,31.2-59.6,65.6c0,36.4,29.6,65.6,65.6,65.6h231.2  c36.4,0,65.6-29.6,65.6-65.6C435.2,216,407.6,187.2,372.8,185.6z"/>
<circle style="fill:#E6E9EE;" cx="254" cy="381.2" r="31.6"/>
<g>
</g>
<g>
</g>
<g>
</g>
<g>
</g>
<g>
</g>
<g>
</g>
<g>
</g>
<g>
</g>
<g>
</g>
<g>
</g>
<g>
</g>
<g>
</g>
<g>
</g>
<g>
</g>
<g>
</g>
</svg>
