<?xml version="1.0" encoding="iso-8859-1"?>
<!-- Generator: Adobe Illustrator 19.0.0, SVG Export Plug-In . SVG Version: 6.00 Build 0)  -->
<svg xmlns="http://www.w3.org/2000/svg" xmlns:xlink="http://www.w3.org/1999/xlink" version="1.1" id="Layer_1" x="0px" y="0px" viewBox="0 0 508 508" style="enable-background:new 0 0 508 508;" xml:space="preserve">
<circle style="fill:#84DBFF;" cx="254" cy="254" r="254"/>
<path style="fill:#2B3B4E;" d="M368.4,473.6v7.2c-5.2,2.8-10.4,5.2-16,7.2v-14.4c0-18-14.8-32.8-32.8-32.8h-26.4  c-26.8,0-48.4-21.6-48.4-48.4v-27.2h16v27.2c0,18,14.8,32.8,32.8,32.8H320C346.8,425.2,368.4,446.8,368.4,473.6z"/>
<g>
	<path style="fill:#FFFFFF;" d="M212.4,178.8h-25.2v-96c0-6.8,5.6-12.4,12.4-12.4l0,0c6.8,0,12.4,5.6,12.4,12.4v96H212.4z"/>
	<path style="fill:#FFFFFF;" d="M320.8,178.8h-25.2v-96c0-6.8,5.6-12.4,12.4-12.4l0,0c6.8,0,12.4,5.6,12.4,12.4v96H320.8z"/>
</g>
<polygon style="fill:#324A5E;" points="351.2,187.2 156.8,187.2 177.6,314 330.4,314 "/>
<g>
	<polygon style="fill:#2B3B4E;" points="293.2,361.6 214.8,361.6 177.6,314 330.4,314  "/>
	<path style="fill:#2B3B4E;" d="M356,200.8H152c-9.2,0-16.4-7.6-16.4-16.4l0,0c0-9.2,7.6-16.4,16.4-16.4h204.4   c9.2,0,16.4,7.6,16.4,16.4l0,0C372.8,193.2,365.2,200.8,356,200.8z"/>
</g>
<path style="fill:#324A5E;" d="M294.8,356.4h-83.6c-4.8,0-8.8,4-8.8,8.8l0,0c0,4.8,4,8.8,8.8,8.8h83.6c4.8,0,8.8-4,8.8-8.8l0,0  C303.6,360.4,299.6,356.4,294.8,356.4z"/>
<circle style="fill:#ACB3BA;" cx="254" cy="258.8" r="18.4"/>
<g>
</g>
<g>
</g>
<g>
</g>
<g>
</g>
<g>
</g>
<g>
</g>
<g>
</g>
<g>
</g>
<g>
</g>
<g>
</g>
<g>
</g>
<g>
</g>
<g>
</g>
<g>
</g>
<g>
</g>
</svg>
