<?xml version="1.0" encoding="iso-8859-1"?>
<!-- Generator: Adobe Illustrator 19.0.0, SVG Export Plug-In . SVG Version: 6.00 Build 0)  -->
<svg xmlns="http://www.w3.org/2000/svg" xmlns:xlink="http://www.w3.org/1999/xlink" version="1.1" id="Layer_1" x="0px" y="0px" viewBox="0 0 508 508" style="enable-background:new 0 0 508 508;" xml:space="preserve">
<circle style="fill:#84DBFF;" cx="254" cy="254" r="254"/>
<path style="fill:#324A5E;" d="M398.4,145.6H109.6c-8,0-14.4,6.4-14.4,14.4v178.8c0,8,6.4,14.4,14.4,14.4h19.6v52.4l52.4-52.4h216.8  c8,0,14.4-6.4,14.4-14.4V160C412.8,152,406.4,145.6,398.4,145.6z"/>
<circle style="fill:#E6E9EE;" cx="254" cy="249.6" r="76.4"/>
<path style="fill:#FF7058;" d="M236,226v47.6c0,3.6,3.6,5.6,6.8,4l42.8-23.6c3.2-1.6,3.2-6,0-8l-43.2-24  C239.6,220.4,236,222.4,236,226z"/>
<g>
</g>
<g>
</g>
<g>
</g>
<g>
</g>
<g>
</g>
<g>
</g>
<g>
</g>
<g>
</g>
<g>
</g>
<g>
</g>
<g>
</g>
<g>
</g>
<g>
</g>
<g>
</g>
<g>
</g>
</svg>
