<?xml version="1.0" encoding="iso-8859-1"?>
<!-- Generator: Adobe Illustrator 19.0.0, SVG Export Plug-In . SVG Version: 6.00 Build 0)  -->
<svg xmlns="http://www.w3.org/2000/svg" xmlns:xlink="http://www.w3.org/1999/xlink" version="1.1" id="Layer_1" x="0px" y="0px" viewBox="0 0 508 508" style="enable-background:new 0 0 508 508;" xml:space="preserve">
<circle style="fill:#FFD05B;" cx="254" cy="254" r="254"/>
<path style="fill:#FFFFFF;" d="M360.8,168.4c0-1.2,0-2.4,0-4c0-26.8-21.6-48.4-48.4-48.4c-11.6,0-22,4-30.4,10.8  c-12-23.6-36.8-39.6-64.8-39.6c-40.4,0-73.2,32.8-73.2,73.2c0,2.8,0,5.6,0.4,8c-30,2.8-53.6,28-53.6,58.8  c0,32.8,26.4,59.2,59.2,59.2h208c32.8,0,59.2-26.4,59.2-59.2C417.2,195.6,392,170,360.8,168.4z"/>
<rect x="212" y="370.8" style="fill:#2B3B4E;" width="84.4" height="38.8"/>
<g>
	<rect x="196.4" y="409.2" style="fill:#324A5E;" width="114.8" height="11.6"/>
	<path style="fill:#324A5E;" d="M351.2,394H156.8c-5.6,0-10.4-4.8-10.4-10.4V246c0-5.6,4.8-10.4,10.4-10.4h194.8   c5.6,0,10.4,4.8,10.4,10.4v137.6C362,389.2,357.2,394,351.2,394z"/>
</g>
<rect x="162" y="251.2" style="fill:#54C0EB;" width="184" height="110.8"/>
<polygon style="fill:#84DBFF;" points="301.2,251.2 162,251.2 162,362 200.4,362 "/>
<g>
</g>
<g>
</g>
<g>
</g>
<g>
</g>
<g>
</g>
<g>
</g>
<g>
</g>
<g>
</g>
<g>
</g>
<g>
</g>
<g>
</g>
<g>
</g>
<g>
</g>
<g>
</g>
<g>
</g>
</svg>
