<?xml version="1.0" encoding="iso-8859-1"?>
<!-- Generator: Adobe Illustrator 19.0.0, SVG Export Plug-In . SVG Version: 6.00 Build 0)  -->
<svg xmlns="http://www.w3.org/2000/svg" xmlns:xlink="http://www.w3.org/1999/xlink" version="1.1" id="Layer_1" x="0px" y="0px" viewBox="0 0 508 508" style="enable-background:new 0 0 508 508;" xml:space="preserve">
<circle style="fill:#F1543F;" cx="254" cy="254" r="254"/>
<polygon style="fill:#FFD05B;" points="412.8,203.2 412.8,389.2 95.2,389.2 95.2,203.2 254,318.8 "/>
<g>
	<polygon style="fill:#F9B54C;" points="412.8,389.2 95.6,389.6 208.8,286 254,318.8 299.6,285.6  "/>
	<polygon style="fill:#F9B54C;" points="412.8,203.2 299.6,285.6 254,318.8 208.8,286 95.2,203.2 254,88  "/>
</g>
<polygon style="fill:#FFFFFF;" points="354.8,111.2 354.8,245.6 299.6,285.6 254,318.8 208.8,286 153.2,245.6 153.2,111.2 "/>
<g>
	<rect x="186" y="156.8" style="fill:#ACB3BA;" width="130" height="13.6"/>
	<rect x="186" y="194.4" style="fill:#ACB3BA;" width="130" height="13.6"/>
	<rect x="186" y="232" style="fill:#ACB3BA;" width="82.8" height="13.6"/>
</g>
<g>
</g>
<g>
</g>
<g>
</g>
<g>
</g>
<g>
</g>
<g>
</g>
<g>
</g>
<g>
</g>
<g>
</g>
<g>
</g>
<g>
</g>
<g>
</g>
<g>
</g>
<g>
</g>
<g>
</g>
</svg>
