<?xml version="1.0" encoding="iso-8859-1"?>
<!-- Generator: Adobe Illustrator 19.0.0, SVG Export Plug-In . SVG Version: 6.00 Build 0)  -->
<svg xmlns="http://www.w3.org/2000/svg" xmlns:xlink="http://www.w3.org/1999/xlink" version="1.1" id="Layer_1" x="0px" y="0px" viewBox="0 0 508 508" style="enable-background:new 0 0 508 508;" xml:space="preserve">
<circle style="fill:#4CDBC4;" cx="254" cy="254" r="254"/>
<path style="fill:#2B3B4E;" d="M351.6,306.8l-91.2-91.2c-4-4-11.2-4-15.2,0l-86,86.4L136,278.8l86-86c8-8,19.2-12.8,30.8-12.8  c11.6,0,22.4,4.4,30.8,12.8l91.2,91.2L351.6,306.8z"/>
<path style="fill:#324A5E;" d="M197.2,198.8l40.8,40.8c3.6,3.6,3.6,9.6,0,13.2L206.8,284l-54-54l31.2-31.2  C187.6,195.2,193.6,195.2,197.2,198.8z"/>
<circle style="fill:#FFFFFF;" cx="148" cy="277.2" r="72.4"/>
<path style="fill:#324A5E;" d="M310.8,198.8L270,239.6c-3.6,3.6-3.6,9.6,0,13.2l31.2,31.2l54-54L324,198.8  C320.4,195.2,314.4,195.2,310.8,198.8z"/>
<circle style="fill:#FFFFFF;" cx="360" cy="277.2" r="72.4"/>
<g>
	<circle style="fill:#54C0EB;" cx="360" cy="277.2" r="55.2"/>
	<circle style="fill:#54C0EB;" cx="148" cy="277.2" r="55.2"/>
</g>
<circle style="fill:#E6E9EE;" cx="255.6" cy="196.4" r="28"/>
<circle style="fill:#ACB3BA;" cx="255.6" cy="196.4" r="14.4"/>
<g>
</g>
<g>
</g>
<g>
</g>
<g>
</g>
<g>
</g>
<g>
</g>
<g>
</g>
<g>
</g>
<g>
</g>
<g>
</g>
<g>
</g>
<g>
</g>
<g>
</g>
<g>
</g>
<g>
</g>
</svg>
