<?xml version="1.0" encoding="iso-8859-1"?>
<!-- Generator: Adobe Illustrator 19.0.0, SVG Export Plug-In . SVG Version: 6.00 Build 0)  -->
<svg xmlns="http://www.w3.org/2000/svg" xmlns:xlink="http://www.w3.org/1999/xlink" version="1.1" id="Layer_1" x="0px" y="0px" viewBox="0 0 508 508" style="enable-background:new 0 0 508 508;" xml:space="preserve">
<circle style="fill:#FFD05B;" cx="254" cy="254" r="254"/>
<g>
	<path style="fill:#FFFFFF;" d="M241.6,126.8c-29.2,0-53.2,23.6-53.2,53.2s23.6,53.2,53.2,53.2s53.2-23.6,53.2-53.2   S270.8,126.8,241.6,126.8z M241.6,214c-18.8,0-34.4-15.6-34.4-34.4s15.6-34.4,34.4-34.4s34.4,15.6,34.4,34.4   C276,198.8,260.4,214,241.6,214z"/>
	<path style="fill:#FFFFFF;" d="M241.6,86.8c-51.2,0-93.2,41.6-93.2,93.2s41.6,92.8,93.2,92.8s93.2-41.6,93.2-93.2   S292.8,86.8,241.6,86.8z M241.6,254.4c-41.2,0-74.4-33.6-74.4-74.4s33.6-74.4,74.4-74.4S316,139.2,316,180S282.4,254.4,241.6,254.4   z"/>
</g>
<path style="fill:#324A5E;" d="M246.4,421.2h83.2c16.8,0,30-13.6,30-30V306c0-9.2-6.8-16.8-16-17.6c-10-0.8-18,7.2-18,16.8v-6  c0-9.2-7.6-16.8-16.8-16.8l0,0c-9.2,0-16.8,7.6-16.8,16.8v-5.6c0-9.2-6.8-16.8-16-17.6c-10-0.4-18,7.6-18,17.2V190  c0-9.2-6.8-16.8-16-17.6c-10-0.8-18,7.2-18,16.8v106l-5.6-8c-10.8-15.2-29.2-17.2-42-4.8l0,0c13.2,18,22.4,38.4,27.6,60l13.6,55.6  C220.4,412,232.8,421.2,246.4,421.2z"/>
<g>
</g>
<g>
</g>
<g>
</g>
<g>
</g>
<g>
</g>
<g>
</g>
<g>
</g>
<g>
</g>
<g>
</g>
<g>
</g>
<g>
</g>
<g>
</g>
<g>
</g>
<g>
</g>
<g>
</g>
</svg>
