<?xml version="1.0" encoding="iso-8859-1"?>
<!-- Generator: Adobe Illustrator 19.0.0, SVG Export Plug-In . SVG Version: 6.00 Build 0)  -->
<svg xmlns="http://www.w3.org/2000/svg" xmlns:xlink="http://www.w3.org/1999/xlink" version="1.1" id="Layer_1" x="0px" y="0px" viewBox="0 0 508 508" style="enable-background:new 0 0 508 508;" xml:space="preserve">
<circle style="fill:#90DFAA;" cx="254" cy="254" r="254"/>
<g>
	<polygon style="fill:#324A5E;" points="184,372.4 184,321.2 159.6,321.2 159.6,372.4 139.2,372.4 171.6,414.8 204,372.4  "/>
	<polygon style="fill:#324A5E;" points="266,372.4 266,321.2 242,321.2 242,372.4 221.6,372.4 254,414.8 286.4,372.4  "/>
	<polygon style="fill:#324A5E;" points="348.4,372.4 348.4,321.2 324,321.2 324,372.4 304,372.4 336.4,414.8 368.8,372.4  "/>
</g>
<path style="fill:#FFFFFF;" d="M360.8,174.4c0-1.2,0-2.4,0-4c0-26.8-21.6-48.4-48.4-48.4c-11.6,0-22,4-30.4,10.8  c-12-23.6-36.8-39.6-64.8-39.6c-40.4,0-73.2,32.8-73.2,73.2c0,2.8,0,5.6,0.4,8c-30,2.8-53.6,28-53.6,58.8  c0,32.8,26.4,59.2,59.2,59.2h208c32.8,0,59.2-26.4,59.2-59.2C417.2,201.6,392,176,360.8,174.4z"/>
<g>
</g>
<g>
</g>
<g>
</g>
<g>
</g>
<g>
</g>
<g>
</g>
<g>
</g>
<g>
</g>
<g>
</g>
<g>
</g>
<g>
</g>
<g>
</g>
<g>
</g>
<g>
</g>
<g>
</g>
</svg>
