<?xml version="1.0" encoding="iso-8859-1"?>
<!-- Generator: Adobe Illustrator 19.0.0, SVG Export Plug-In . SVG Version: 6.00 Build 0)  -->
<svg xmlns="http://www.w3.org/2000/svg" xmlns:xlink="http://www.w3.org/1999/xlink" version="1.1" id="Layer_1" x="0px" y="0px" viewBox="0 0 508 508" style="enable-background:new 0 0 508 508;" xml:space="preserve">
<circle style="fill:#84DBFF;" cx="254" cy="254" r="254"/>
<path style="fill:#54C0EB;" d="M33.2,380c43.6,76.4,126,128,220.8,128c94.4,0,176.8-51.6,220.8-128H33.2z"/>
<g>
	<path style="fill:#324A5E;" d="M106,145.2c-1.2-3.2-4.4-4.8-7.6-3.6s-4.8,4.4-3.6,7.6l48.4,137.6c0.8,2.4,3.2,4,5.6,4   c0.8,0,1.2,0,2-0.4c3.2-1.2,4.8-4.4,3.6-7.6L106,145.2z"/>
	<path style="fill:#324A5E;" d="M409.2,141.6c-3.2-1.2-6.4,0.4-7.6,3.6l-48.4,137.2c-1.2,3.2,0.4,6.4,3.6,7.6c0.8,0.4,1.2,0.4,2,0.4   c2.4,0,4.8-1.6,5.6-4l48.4-137.6C414,146,412.4,142.4,409.2,141.6z"/>
</g>
<g>
	<path style="fill:#2B3B4E;" d="M411.6,360.8h-46.8v13.6c0,2.8,2.4,5.2,5.2,5.2h36c2.8,0,5.2-2.4,5.2-5.2v-13.6H411.6z"/>
	<path style="fill:#2B3B4E;" d="M143.2,360.8H96.4v13.6c0,2.8,2.4,5.2,5.2,5.2h36c2.8,0,5.2-2.4,5.2-5.2v-13.6H143.2z"/>
</g>
<path style="fill:#FFFFFF;" d="M421.2,370H86.8c-6,0-11.2-5.2-11.2-11.2v-70c0-6,5.2-11.2,11.2-11.2h334.8c6,0,11.2,5.2,11.2,11.2  v70C432.4,365.2,427.6,370,421.2,370z"/>
<rect x="75.6" y="301.2" style="fill:#324A5E;" width="357.2" height="37.6"/>
<circle style="fill:#FFD05B;" cx="131.6" cy="324" r="12.8"/>
<path style="fill:#F9B54C;" d="M122.8,314.8c-4.8,4.8-4.8,12.8,0,18l18-18C135.6,310,127.6,310,122.8,314.8z"/>
<circle style="fill:#FFFFFF;" cx="266.8" cy="324" r="10"/>
<circle style="fill:#4CDBC4;" cx="308.8" cy="324" r="10"/>
<circle style="fill:#FFD05B;" cx="351.2" cy="324" r="10"/>
<circle style="fill:#FF7058;" cx="393.2" cy="324" r="10"/>
<g>
</g>
<g>
</g>
<g>
</g>
<g>
</g>
<g>
</g>
<g>
</g>
<g>
</g>
<g>
</g>
<g>
</g>
<g>
</g>
<g>
</g>
<g>
</g>
<g>
</g>
<g>
</g>
<g>
</g>
</svg>
