<?xml version="1.0" encoding="iso-8859-1"?>
<!-- Generator: Adobe Illustrator 19.0.0, SVG Export Plug-In . SVG Version: 6.00 Build 0)  -->
<svg xmlns="http://www.w3.org/2000/svg" xmlns:xlink="http://www.w3.org/1999/xlink" version="1.1" id="Layer_1" x="0px" y="0px" viewBox="0 0 508 508" style="enable-background:new 0 0 508 508;" xml:space="preserve">
<circle style="fill:#90DFAA;" cx="254" cy="254" r="254"/>
<path style="fill:#324A5E;" d="M160.4,490.4c-16.4-6.4-32.4-14.8-46.8-24.8c-9.2-6-18-12.8-26-20V164.4c0-8.4,6.8-15.2,15.2-15.2  H406c8.4,0,15.2,6.8,15.2,15.2v281.2c-8.4,7.2-16.8,14-26,20c-14.8,9.6-30.4,18-46.8,24.8l-7.6,2.8c-26.8,9.6-56,14.8-86,14.8  s-59.2-5.2-86-14.8L160.4,490.4z"/>
<path style="fill:#FFFFFF;" d="M160.4,490.4c-16.4-6.4-32.4-14.8-46.8-24.8V197.2h60h161.2h60v268.4c-14.8,9.6-30.4,18-46.8,24.8  l-7.6,2.8c-26.8,9.6-56,14.8-86,14.8s-59.2-5.2-86-14.8L160.4,490.4z"/>
<polygon style="fill:#FF7058;" points="339.2,210 168.8,210 185.2,165.6 322.8,165.6 "/>
<g>
	<rect x="138.4" y="244.4" style="fill:#E6E9EE;" width="231.2" height="2.8"/>
	<rect x="138.4" y="266.8" style="fill:#E6E9EE;" width="231.2" height="2.8"/>
	<rect x="138.4" y="289.2" style="fill:#E6E9EE;" width="231.2" height="2.8"/>
	<rect x="138.4" y="311.6" style="fill:#E6E9EE;" width="231.2" height="2.8"/>
	<rect x="138.4" y="333.6" style="fill:#E6E9EE;" width="231.2" height="2.8"/>
	<rect x="138.4" y="356" style="fill:#E6E9EE;" width="231.2" height="2.8"/>
	<rect x="138.4" y="378.4" style="fill:#E6E9EE;" width="231.2" height="2.8"/>
	<rect x="138.4" y="400.8" style="fill:#E6E9EE;" width="231.2" height="2.8"/>
	<rect x="138.4" y="423.2" style="fill:#E6E9EE;" width="231.2" height="2.8"/>
	<rect x="138.4" y="445.6" style="fill:#E6E9EE;" width="231.2" height="2.8"/>
	<rect x="138.4" y="468" style="fill:#E6E9EE;" width="231.2" height="2.8"/>
	<polygon style="fill:#E6E9EE;" points="160.4,490.4 347.6,490.4 340,493.2 168,493.2  "/>
</g>
<g>
</g>
<g>
</g>
<g>
</g>
<g>
</g>
<g>
</g>
<g>
</g>
<g>
</g>
<g>
</g>
<g>
</g>
<g>
</g>
<g>
</g>
<g>
</g>
<g>
</g>
<g>
</g>
<g>
</g>
</svg>
