<?xml version="1.0" encoding="iso-8859-1"?>
<!-- Generator: Adobe Illustrator 19.0.0, SVG Export Plug-In . SVG Version: 6.00 Build 0)  -->
<svg xmlns="http://www.w3.org/2000/svg" xmlns:xlink="http://www.w3.org/1999/xlink" version="1.1" id="Layer_1" x="0px" y="0px" viewBox="0 0 508 508" style="enable-background:new 0 0 508 508;" xml:space="preserve">
<circle style="fill:#FFD05B;" cx="254" cy="254" r="254"/>
<g>
	<polygon style="fill:#FFFFFF;" points="269.2,336 209.2,396.4 209.2,365.2 131.6,365.2 95.2,308.8 167.2,306 209.2,306 209.2,276     "/>
	<polygon style="fill:#FFFFFF;" points="412.8,308.8 376.4,365.2 281.2,365.2 281.2,306 340.8,306  "/>
</g>
<g>
	<polygon style="fill:#E6E9EE;" points="332.8,182.8 283.6,215.6 254,168.8 288,111.6  "/>
	<polygon style="fill:#E6E9EE;" points="188.8,272 167.2,306 95.2,308.8 134.4,246.4  "/>
</g>
<polygon style="fill:#FFFFFF;" points="254,168.8 227.6,210.4 249.2,220.4 169.2,249.6 140,169.6 173.2,185.2 220,111.6 288,111.6   "/>
<polygon style="fill:#E6E9EE;" points="412.8,308.8 340.8,306 322.4,276.8 298.8,292 315.6,208.8 398.8,225.2 371.6,243.6 "/>
<g>
</g>
<g>
</g>
<g>
</g>
<g>
</g>
<g>
</g>
<g>
</g>
<g>
</g>
<g>
</g>
<g>
</g>
<g>
</g>
<g>
</g>
<g>
</g>
<g>
</g>
<g>
</g>
<g>
</g>
</svg>
