<?xml version="1.0" encoding="iso-8859-1"?>
<!-- Generator: Adobe Illustrator 19.0.0, SVG Export Plug-In . SVG Version: 6.00 Build 0)  -->
<svg xmlns="http://www.w3.org/2000/svg" xmlns:xlink="http://www.w3.org/1999/xlink" version="1.1" id="Layer_1" x="0px" y="0px" viewBox="0 0 508 508" style="enable-background:new 0 0 508 508;" xml:space="preserve">
<circle style="fill:#FD8469;" cx="254" cy="254" r="254"/>
<path style="fill:#FFFFFF;" d="M254.4,93.6c-88.4,0-160,72-160,160s72,160,160,160s160-72,160-160S342.8,93.6,254.4,93.6z   M175.2,318.8c-40-12.8-67.2-34.8-70.4-60h63.6C168.4,280,170.8,300.4,175.2,318.8z M259.6,177.6c22.8,0.4,44,3.2,63.2,8.4  c4.8,19.2,8,40.4,8.4,63.2h-71.6V177.6z M249.6,248.8H178c0.4-22.8,3.2-44,8.4-63.2c19.2-4.8,40.4-8,63.2-8.4L249.6,248.8  L249.6,248.8z M168,248.8h-63.2c3.2-25.2,30.8-47.2,70.4-60C170.8,207.2,168.4,227.2,168,248.8z M249.6,258.8V330  c-22.8-0.4-44-3.2-63.2-8.4c-4.8-19.2-8-40.4-8.4-63.2h71.6V258.8z M259.6,258.8h71.2c-0.4,22.8-3.2,44-8.4,63.2  c-19.2,4.8-40.4,8-63.2,8.4v-71.6H259.6z M340.8,258.8h63.6c-3.2,25.2-30.8,47.2-70.4,60C338,300.4,340.4,280,340.8,258.8z   M340.8,248.8c-0.4-21.2-2.8-41.6-7.2-60c40,12.8,67.2,34.8,70.4,60H340.8z M400,217.2c-14.4-17.2-38.8-30.8-69.2-39.6  c-8.8-30.4-22.8-54.8-40-69.2C344.4,121.6,386.8,163.6,400,217.2z M319.2,174.4c-18.4-4.4-38.4-6.8-60-7.2V104  C284.8,107.2,306.8,134.4,319.2,174.4z M249.6,104v63.6c-21.2,0.4-41.6,2.8-60,7.2C202.4,134.4,224.4,107.2,249.6,104z M218,108  c-17.2,14.4-31.2,38.8-40,69.2c-30.4,8.8-54.8,22.8-69.2,39.6C122.4,163.6,164.4,121.6,218,108z M108.8,290.4  c14.4,17.2,38.8,31.2,69.2,39.6c8.8,30.4,22.8,54.8,39.6,69.2C164.4,386,122.4,344,108.8,290.4z M189.6,333.2  c18.4,4.4,38.4,6.8,60,7.2V404C224.4,400.4,202.4,372.8,189.6,333.2z M259.6,403.6V340c21.2-0.4,41.6-2.8,60-7.2  C306.8,372.8,284.8,400.4,259.6,403.6z M291.2,399.6c17.2-14.4,31.2-38.8,39.6-69.2c30.4-8.8,54.8-22.8,69.2-39.6  C386.8,344,344.4,386,291.2,399.6z"/>
<circle style="fill:#324A5E;" cx="256.4" cy="253.6" r="24"/>
<g>
	<circle style="fill:#4CDBC4;" cx="408.8" cy="253.6" r="24"/>
	<circle style="fill:#4CDBC4;" cx="99.2" cy="253.6" r="24"/>
</g>
<g>
	<path style="fill:#FFD05B;" d="M254,123.6c13.2,0,24-10.8,24-24s-10.8-24-24-24c-13.2,0-24,10.8-24,24S240.8,123.6,254,123.6z"/>
	<path style="fill:#FFD05B;" d="M254,432.4c13.2,0,24-10.8,24-24s-10.8-24-24-24c-13.2,0-24,10.8-24,24S240.8,432.4,254,432.4z"/>
</g>
<g>
</g>
<g>
</g>
<g>
</g>
<g>
</g>
<g>
</g>
<g>
</g>
<g>
</g>
<g>
</g>
<g>
</g>
<g>
</g>
<g>
</g>
<g>
</g>
<g>
</g>
<g>
</g>
<g>
</g>
</svg>
