<?xml version="1.0" encoding="iso-8859-1"?>
<!-- Generator: Adobe Illustrator 19.0.0, SVG Export Plug-In . SVG Version: 6.00 Build 0)  -->
<svg xmlns="http://www.w3.org/2000/svg" xmlns:xlink="http://www.w3.org/1999/xlink" version="1.1" id="Layer_1" x="0px" y="0px" viewBox="0 0 508 508" style="enable-background:new 0 0 508 508;" xml:space="preserve">
<circle style="fill:#FFD05B;" cx="254" cy="254" r="254"/>
<path style="fill:#F9B54C;" d="M49.6,404.4C95.6,467.2,170,508,254,508s158.4-40.8,204.4-103.6H49.6z"/>
<polygon style="fill:#CED5E0;" points="321.6,395.6 186.4,395.6 201.6,348.8 306.4,348.8 "/>
<path style="fill:#FFFFFF;" d="M424,342v-26H84v26c0,8.4,6.8,15.2,15.2,15.2h309.2C416.8,357.6,424,350.8,424,342z"/>
<path style="fill:#324A5E;" d="M424,142v174.4H84V142c0-8.4,6.8-15.2,15.2-15.2h309.2C416.8,126.8,424,133.6,424,142z"/>
<rect x="98.8" y="141.2" style="fill:#FFFFFF;" width="310.4" height="160.4"/>
<rect x="98.8" y="141.2" style="fill:#54C0EB;" width="310.4" height="19.2"/>
<rect x="163.6" y="386.4" style="fill:#FFFFFF;" width="180.4" height="18"/>
<circle style="fill:#324A5E;" cx="254" cy="336" r="10"/>
<circle style="fill:#FF7058;" cx="397.6" cy="150.8" r="5.2"/>
<circle style="fill:#E6E9EE;" cx="380.8" cy="150.8" r="5.2"/>
<circle style="fill:#FFFFFF;" cx="364.8" cy="150.8" r="5.2"/>
<rect x="108.8" y="166.8" style="fill:#E6E9EE;" width="186" height="126.4"/>
<rect x="304.8" y="166.8" style="fill:#FF7058;" width="94.4" height="126.4"/>
<g>
	<rect x="118" y="174.8" style="fill:#CED5E0;" width="167.2" height="2.8"/>
	<rect x="118" y="190.4" style="fill:#CED5E0;" width="167.2" height="2.8"/>
	<rect x="118" y="205.6" style="fill:#CED5E0;" width="167.2" height="2.8"/>
	<rect x="118" y="220.8" style="fill:#CED5E0;" width="167.2" height="2.8"/>
	<rect x="118" y="236" style="fill:#CED5E0;" width="167.2" height="2.8"/>
	<rect x="118" y="251.6" style="fill:#CED5E0;" width="167.2" height="2.8"/>
	<rect x="118" y="266.8" style="fill:#CED5E0;" width="167.2" height="2.8"/>
	<rect x="118" y="282" style="fill:#CED5E0;" width="167.2" height="2.8"/>
</g>
<g>
	<rect x="313.2" y="174.8" style="fill:#F1543F;" width="77.2" height="2.8"/>
	<rect x="313.2" y="190.4" style="fill:#F1543F;" width="77.2" height="2.8"/>
	<rect x="313.2" y="205.6" style="fill:#F1543F;" width="77.2" height="2.8"/>
	<rect x="313.2" y="220.8" style="fill:#F1543F;" width="77.2" height="2.8"/>
	<rect x="313.2" y="236" style="fill:#F1543F;" width="77.2" height="2.8"/>
	<rect x="313.2" y="251.6" style="fill:#F1543F;" width="77.2" height="2.8"/>
	<rect x="313.2" y="266.8" style="fill:#F1543F;" width="77.2" height="2.8"/>
	<rect x="313.2" y="282" style="fill:#F1543F;" width="77.2" height="2.8"/>
</g>
<g>
</g>
<g>
</g>
<g>
</g>
<g>
</g>
<g>
</g>
<g>
</g>
<g>
</g>
<g>
</g>
<g>
</g>
<g>
</g>
<g>
</g>
<g>
</g>
<g>
</g>
<g>
</g>
<g>
</g>
</svg>
