<?xml version="1.0" encoding="iso-8859-1"?>
<!-- Generator: Adobe Illustrator 19.0.0, SVG Export Plug-In . SVG Version: 6.00 Build 0)  -->
<svg xmlns="http://www.w3.org/2000/svg" xmlns:xlink="http://www.w3.org/1999/xlink" version="1.1" id="Layer_1" x="0px" y="0px" viewBox="0 0 505 505" style="enable-background:new 0 0 505 505;" xml:space="preserve">
<circle style="fill:#324A5E;" cx="252.5" cy="252.5" r="252.5"/>
<path style="fill:#E6E9EE;" d="M364.3,289.1c-41.8-4.7-66.6-33.1-69.7-36.7l9.5-41.1c1,0.6,2.1,1,3.2,1.1c6.6,0.6,12.8-7.4,13.7-18  c0.9-9.6-2.9-17.9-8.5-19.7l1.3-5.5c0.3-2.3,0.6-4.6,0.6-7c0-30-27.2-54.4-60.8-54.4s-60.8,24.4-60.8,54.4c0,2.4,0.2,4.7,0.6,7  l1.2,5.6c-5.3,2.3-8.8,10.3-7.9,19.6c1,10.5,7.1,18.6,13.7,18c0.7-0.1,1.4-0.3,2.1-0.5l8.6,40.2l-0.2-0.1l0.5,1.6l0.3,1.4l-1-3  c0,0-25.3,32.1-70,37.1C96,294.2,101.9,380,101.9,380h150.7h150.5C403.1,380,409,294.1,364.3,289.1z"/>
<g>
	<path style="fill:#4CDBC4;" d="M269.7,241.4c-4.2,0-8.5-0.1-13-0.4l0.4-7.5c42,2.4,60-7.3,67.7-15.9c8.3-9.2,6.8-19,6.7-19.4   l7.4-1.3c0.1,0.6,2.2,13.6-8.4,25.5C319.3,235.1,298.9,241.4,269.7,241.4z"/>
	<path style="fill:#4CDBC4;" d="M341.3,172.9h-11.2v-23.4c0-42.2-34.3-76.5-76.5-76.5s-76.5,34.3-76.5,76.5v12.4h-11.2v-12.4   c0-48.4,39.3-87.7,87.7-87.7s87.7,39.3,87.7,87.7V172.9z"/>
</g>
<g>
	<path style="fill:#FF7058;" d="M328.7,155.7H326v63.6h2.7c17.6,0,31.8-14.2,31.8-31.8C360.5,170,346.2,155.7,328.7,155.7z"/>
	<path style="fill:#FF7058;" d="M178.6,155.7h2.7v63.6h-2.7c-17.6,0-31.8-14.2-31.8-31.8C146.8,170,161.1,155.7,178.6,155.7z"/>
</g>
<path style="fill:#324A5E;" d="M264.6,228.7h-17.7c-2.4,0-4.4,2-4.4,4.4v7.5c0,2.4,2,4.4,4.4,4.4h17.7c2.4,0,4.4-2,4.4-4.4v-7.5  C269,230.7,267,228.7,264.6,228.7z"/>
<g>
</g>
<g>
</g>
<g>
</g>
<g>
</g>
<g>
</g>
<g>
</g>
<g>
</g>
<g>
</g>
<g>
</g>
<g>
</g>
<g>
</g>
<g>
</g>
<g>
</g>
<g>
</g>
<g>
</g>
</svg>
