<?xml version="1.0" encoding="iso-8859-1"?>
<!-- Generator: Adobe Illustrator 19.0.0, SVG Export Plug-In . SVG Version: 6.00 Build 0)  -->
<svg xmlns="http://www.w3.org/2000/svg" xmlns:xlink="http://www.w3.org/1999/xlink" version="1.1" id="Layer_1" x="0px" y="0px" viewBox="0 0 505 505" style="enable-background:new 0 0 505 505;" xml:space="preserve">
<circle style="fill:#FFD05B;" cx="252.5" cy="252.5" r="252.5"/>
<path style="fill:#324A5E;" d="M358.9,96.2h-224c-4.7,0-8.5,3.8-8.5,8.5v295.6c0,4.7,3.8,8.5,8.5,8.5h224c4.7,0,8.5-3.8,8.5-8.5  V104.7C367.4,100,363.6,96.2,358.9,96.2z"/>
<path style="fill:#FF7058;" d="M387.5,156h-20.1v48.2h20.1c3.8,0,6.9-3.1,6.9-6.9v-34.4C394.4,159.1,391.3,156,387.5,156z"/>
<path style="fill:#4CDBC4;" d="M387.5,204.3h-20.1v48.2h20.1c3.8,0,6.9-3.1,6.9-6.9v-34.4C394.4,207.4,391.3,204.3,387.5,204.3z"/>
<path style="fill:#FFFFFF;" d="M387.5,252.5h-20.1v48.2h20.1c3.8,0,6.9-3.1,6.9-6.9v-34.4C394.4,255.6,391.3,252.5,387.5,252.5z"/>
<path style="fill:#2C9984;" d="M387.5,300.7h-20.1v48.2h20.1c3.8,0,6.9-3.1,6.9-6.9v-34.4C394.4,303.8,391.3,300.7,387.5,300.7z"/>
<g>
	<rect x="179.2" y="137.8" style="fill:#E6E9EE;" width="135.5" height="58.6"/>
	<circle style="fill:#E6E9EE;" cx="246.9" cy="276.4" r="24.3"/>
	<path style="fill:#E6E9EE;" d="M297.3,362.7c-1.5-26.6-23.5-47.8-50.4-47.8s-49,21.1-50.4,47.8H297.3z"/>
</g>
<g>
</g>
<g>
</g>
<g>
</g>
<g>
</g>
<g>
</g>
<g>
</g>
<g>
</g>
<g>
</g>
<g>
</g>
<g>
</g>
<g>
</g>
<g>
</g>
<g>
</g>
<g>
</g>
<g>
</g>
</svg>
