<?xml version="1.0" encoding="iso-8859-1"?>
<!-- Generator: Adobe Illustrator 19.0.0, SVG Export Plug-In . SVG Version: 6.00 Build 0)  -->
<svg xmlns="http://www.w3.org/2000/svg" xmlns:xlink="http://www.w3.org/1999/xlink" version="1.1" id="Layer_1" x="0px" y="0px" viewBox="0 0 505 505" style="enable-background:new 0 0 505 505;" xml:space="preserve">
<circle style="fill:#FD8469;" cx="252.5" cy="252.5" r="252.5"/>
<path style="fill:#FFFFFF;" d="M229.8,107.5c-56,0-103.3,37.1-118.8,88.1l0,0l-32,72.7c-3.2,6.1,1.2,13.4,8.1,13.4h29.2v57.8h49.8  v72.1h134.3v-78c32.3-22.4,53.4-59.7,53.4-102C353.9,163.1,298.3,107.5,229.8,107.5z"/>
<path style="fill:#4CDBC4;" d="M374.1,93.4H222.7c-3.1,0-5.6,2.5-5.6,5.6v95c0,3.1,2.5,5.6,5.6,5.6h11.8l-1.8,37.1l40.1-37.1h101.3  c3.1,0,5.6-2.5,5.6-5.6V99C379.7,95.9,377.2,93.4,374.1,93.4z"/>
<g>
	<circle style="fill:#324A5E;" cx="259.4" cy="146.5" r="11.9"/>
	<circle style="fill:#324A5E;" cx="298.4" cy="146.5" r="11.9"/>
	<circle style="fill:#324A5E;" cx="337.4" cy="146.5" r="11.9"/>
</g>
<g>
</g>
<g>
</g>
<g>
</g>
<g>
</g>
<g>
</g>
<g>
</g>
<g>
</g>
<g>
</g>
<g>
</g>
<g>
</g>
<g>
</g>
<g>
</g>
<g>
</g>
<g>
</g>
<g>
</g>
</svg>
