<?xml version="1.0" encoding="iso-8859-1"?>
<!-- Generator: Adobe Illustrator 19.0.0, SVG Export Plug-In . SVG Version: 6.00 Build 0)  -->
<svg xmlns="http://www.w3.org/2000/svg" xmlns:xlink="http://www.w3.org/1999/xlink" version="1.1" id="Layer_1" x="0px" y="0px" viewBox="0 0 505 505" style="enable-background:new 0 0 505 505;" xml:space="preserve">
<circle style="fill:#90DFAA;" cx="252.5" cy="252.5" r="252.5"/>
<path style="fill:#2C9984;" d="M18.3,346.9C55.7,439.6,146.4,505,252.5,505s196.8-65.4,234.2-158.1H18.3z"/>
<rect x="118.6" y="264.6" style="fill:#E6E9EE;" width="267.7" height="81.9"/>
<rect x="141.1" y="293.6" style="fill:#324A5E;" width="104.2" height="23.8"/>
<circle style="fill:#FF7058;" cx="336.4" cy="305.5" r="14.6"/>
<rect x="197.8" y="247.4" style="fill:#FFFFFF;" width="109.5" height="17.2"/>
<rect x="220.6" y="212.4" style="fill:#E6E9EE;" width="63.9" height="35"/>
<path style="fill:#FFFFFF;" d="M356.4,74.1H148.6c-1.9,0-3.4,1.5-3.4,3.4v148.1c0,1.9,1.5,3.4,3.4,3.4h207.7c1.9,0,3.4-1.5,3.4-3.4  V77.5C359.8,75.7,358.2,74.1,356.4,74.1z"/>
<rect x="160.1" y="89" style="fill:#324A5E;" width="184.7" height="125.1"/>
<g>
</g>
<g>
</g>
<g>
</g>
<g>
</g>
<g>
</g>
<g>
</g>
<g>
</g>
<g>
</g>
<g>
</g>
<g>
</g>
<g>
</g>
<g>
</g>
<g>
</g>
<g>
</g>
<g>
</g>
</svg>
