<?xml version="1.0" encoding="iso-8859-1"?>
<!-- Generator: Adobe Illustrator 19.0.0, SVG Export Plug-In . SVG Version: 6.00 Build 0)  -->
<svg xmlns="http://www.w3.org/2000/svg" xmlns:xlink="http://www.w3.org/1999/xlink" version="1.1" id="Layer_1" x="0px" y="0px" viewBox="0 0 505 505" style="enable-background:new 0 0 505 505;" xml:space="preserve">
<circle style="fill:#84DBFF;" cx="252.5" cy="252.5" r="252.5"/>
<rect x="95" y="338.7" style="fill:#FF7058;" width="229.3" height="35.2"/>
<g>
	<path style="fill:#324A5E;" d="M258.1,167.4c0-29.9-24.8-53.9-54.9-52.8c-27.3,1-49.8,23.7-50.7,50.9c-0.2,6.6,0.8,12.9,2.7,18.7   c13.3,39.3,22.2,79.9,22.2,121.4v12.3h55.7v-5.4c0-42.9,5.7-86,21.4-126C256.8,180.6,258.1,174.2,258.1,167.4z"/>
	<rect x="108.7" y="314.9" style="fill:#324A5E;" width="201.9" height="23.8"/>
</g>
<path style="fill:#FF7058;" d="M425.3,184.8c-4.7-5.6-7.6-12.6-8.2-19.9c-0.5-5.6-2.8-11-7.1-15.3l0,0c-4.3-4.3-9.7-6.6-15.3-7.1  c-7.3-0.6-14.3-3.5-19.9-8.3c-4.3-3.6-9.8-5.8-15.8-5.8l0,0c-6,0-11.5,2.2-15.8,5.8c-5.6,4.7-12.6,7.6-19.9,8.2  c-5.6,0.5-11,2.8-15.3,7.1l0,0c-4.3,4.3-6.6,9.7-7.1,15.3c-0.6,7.3-3.5,14.3-8.2,19.9c-3.6,4.3-5.8,9.8-5.8,15.8l0,0  c0,6,2.2,11.5,5.8,15.8c4.7,5.6,7.6,12.6,8.2,19.9c0.5,5.6,2.8,11,7.1,15.3l0,0c4.3,4.3,9.7,6.6,15.3,7.1c7.3,0.6,14.3,3.5,19.9,8.2  c4.3,3.6,9.8,5.8,15.8,5.8l0,0c6,0,11.5-2.2,15.8-5.8c5.6-4.7,12.6-7.6,19.9-8.2c5.6-0.5,11-2.8,15.3-7.1l0,0  c4.3-4.3,6.6-9.7,7.1-15.3c0.6-7.3,3.5-14.3,8.2-19.9c3.6-4.3,5.8-9.8,5.8-15.8l0,0C431.1,194.6,428.9,189.1,425.3,184.8z"/>
<circle style="fill:#F1543F;" cx="359" cy="200.7" r="44.7"/>
<g>
</g>
<g>
</g>
<g>
</g>
<g>
</g>
<g>
</g>
<g>
</g>
<g>
</g>
<g>
</g>
<g>
</g>
<g>
</g>
<g>
</g>
<g>
</g>
<g>
</g>
<g>
</g>
<g>
</g>
</svg>
