<?xml version="1.0" encoding="iso-8859-1"?>
<!-- Generator: Adobe Illustrator 19.0.0, SVG Export Plug-In . SVG Version: 6.00 Build 0)  -->
<svg xmlns="http://www.w3.org/2000/svg" xmlns:xlink="http://www.w3.org/1999/xlink" version="1.1" id="Layer_1" x="0px" y="0px" viewBox="0 0 505 505" style="enable-background:new 0 0 505 505;" xml:space="preserve">
<circle style="fill:#FFD05B;" cx="252.5" cy="252.5" r="252.5"/>
<path style="fill:#FF7058;" d="M323.2,95.9c-69.1,0-125.2,56.2-125.2,125.2c0,69.1,56.2,125.2,125.2,125.2  c69.1,0,125.2-56.2,125.2-125.2C448.4,152.1,392.2,95.9,323.2,95.9z M385,213.8c-0.3-11.4-1.3-22.3-3-32.6  c27.1,7.5,45.2,19.9,50.3,32.6L385,213.8L385,213.8z M370.4,213.8h-39.9v-39.9c13,0.4,25.1,1.7,36.2,3.8  C368.7,188.7,370,200.8,370.4,213.8z M330.5,159.3V112c12.7,5.1,25.1,23.2,32.6,50.3C352.8,160.7,341.8,159.6,330.5,159.3z   M315.9,112v47.3c-11.4,0.3-22.3,1.3-32.6,3C290.8,135.2,303.1,117.1,315.9,112z M315.9,173.9v39.9H276c0.4-13,1.7-25.2,3.8-36.2  C290.7,175.6,302.8,174.3,315.9,173.9z M261.3,213.8H214c5.1-12.7,23.2-25.1,50.3-32.6C262.7,191.5,261.6,202.5,261.3,213.8z   M261.3,228.5c0.3,11.4,1.3,22.3,3,32.6c-27.1-7.5-45.2-19.9-50.3-32.6H261.3z M275.9,228.5h39.9v39.9c-13-0.4-25.1-1.7-36.2-3.7  C277.6,253.6,276.3,241.5,275.9,228.5z M315.9,283v47.3c-12.7-5.1-25.1-23.2-32.6-50.3C293.5,281.6,304.5,282.7,315.9,283z   M330.5,330.3V283c11.4-0.3,22.3-1.3,32.6-3C355.5,307.1,343.2,325.2,330.5,330.3z M330.5,268.4v-39.9h39.9  c-0.4,13-1.7,25.1-3.7,36.2C355.6,266.7,343.5,268,330.5,268.4z M385,228.5h47.3c-5.1,12.7-23.2,25.1-50.3,32.6  C383.6,250.8,384.7,239.8,385,228.5z M428.4,187.2c-12.1-9.3-29.2-16.8-49.6-21.7c-4.9-20.4-12.4-37.4-21.7-49.6  C390.8,126.8,417.5,153.5,428.4,187.2z M289.2,115.9c-9.3,12.1-16.8,29.2-21.7,49.6c-20.4,4.9-37.4,12.4-49.6,21.7  C228.8,153.5,255.5,126.8,289.2,115.9z M217.9,255.1c12.2,9.3,29.2,16.8,49.6,21.7c4.9,20.4,12.4,37.4,21.7,49.6  C255.5,315.5,228.8,288.8,217.9,255.1z M357.1,326.4c9.3-12.2,16.8-29.2,21.7-49.6c20.4-4.9,37.4-12.4,49.6-21.7  C417.5,288.8,390.8,315.5,357.1,326.4z"/>
<polygon style="fill:#FFFFFF;" points="96.1,253 96.1,377.5 186,315.2 "/>
<polygon style="fill:#E6E9EE;" points="96.1,377.5 275.9,377.5 186,315.2 "/>
<polygon style="fill:#FFFFFF;" points="186,315.2 275.9,377.5 275.9,253 "/>
<path style="fill:#4CDBC4;" d="M96.1,253l83.8,77c3.4,3.1,8.7,3.1,12.1,0l83.8-77H96.1z"/>
<g>
</g>
<g>
</g>
<g>
</g>
<g>
</g>
<g>
</g>
<g>
</g>
<g>
</g>
<g>
</g>
<g>
</g>
<g>
</g>
<g>
</g>
<g>
</g>
<g>
</g>
<g>
</g>
<g>
</g>
</svg>
