<?xml version="1.0" encoding="iso-8859-1"?>
<!-- Generator: Adobe Illustrator 19.0.0, SVG Export Plug-In . SVG Version: 6.00 Build 0)  -->
<svg xmlns="http://www.w3.org/2000/svg" xmlns:xlink="http://www.w3.org/1999/xlink" version="1.1" id="Layer_1" x="0px" y="0px" viewBox="0 0 505 505" style="enable-background:new 0 0 505 505;" xml:space="preserve">
<circle style="fill:#90DFAA;" cx="252.5" cy="252.5" r="252.5"/>
<path style="fill:#324A5E;" d="M352.7,92H140.3c-7.9,0-14.3,6.4-14.3,14.3v260.2c0,7.9,6.4,14.3,14.3,14.3h212.4  c7.9,0,14.3-6.4,14.3-14.3V106.3C367.1,98.4,360.6,92,352.7,92z"/>
<rect x="152.4" y="117.9" style="fill:#84DBFF;" width="188.2" height="55.5"/>
<g>
	<path style="fill:#E6E9EE;" d="M183.7,204h-27.5c-2.1,0-3.8,1.7-3.8,3.8v24.7c0,2.1,1.7,3.8,3.8,3.8h27.5c2.1,0,3.8-1.7,3.8-3.8   v-24.7C187.5,205.7,185.8,204,183.7,204z"/>
	<path style="fill:#E6E9EE;" d="M262.5,204H235c-2.1,0-3.8,1.7-3.8,3.8v24.7c0,2.1,1.7,3.8,3.8,3.8h27.5c2.1,0,3.8-1.7,3.8-3.8   v-24.7C266.3,205.7,264.6,204,262.5,204z"/>
	<path style="fill:#E6E9EE;" d="M336.8,204h-27.5c-2.1,0-3.8,1.7-3.8,3.8v24.7c0,2.1,1.7,3.8,3.8,3.8h27.5c2.1,0,3.8-1.7,3.8-3.8   v-24.7C340.6,205.7,338.9,204,336.8,204z"/>
	<path style="fill:#E6E9EE;" d="M183.7,259.6h-27.5c-2.1,0-3.8,1.7-3.8,3.8v24.7c0,2.1,1.7,3.8,3.8,3.8h27.5c2.1,0,3.8-1.7,3.8-3.8   v-24.7C187.5,261.3,185.8,259.6,183.7,259.6z"/>
	<path style="fill:#E6E9EE;" d="M262.5,259.6H235c-2.1,0-3.8,1.7-3.8,3.8v24.7c0,2.1,1.7,3.8,3.8,3.8h27.5c2.1,0,3.8-1.7,3.8-3.8   v-24.7C266.3,261.3,264.6,259.6,262.5,259.6z"/>
	<path style="fill:#E6E9EE;" d="M336.8,259.6h-27.5c-2.1,0-3.8,1.7-3.8,3.8v24.7c0,2.1,1.7,3.8,3.8,3.8h27.5c2.1,0,3.8-1.7,3.8-3.8   v-24.7C340.6,261.3,338.9,259.6,336.8,259.6z"/>
	<path style="fill:#E6E9EE;" d="M183.7,315.2h-27.5c-2.1,0-3.8,1.7-3.8,3.8v24.7c0,2.1,1.7,3.8,3.8,3.8h27.5c2.1,0,3.8-1.7,3.8-3.8   V319C187.5,316.9,185.8,315.2,183.7,315.2z"/>
	<path style="fill:#E6E9EE;" d="M262.5,315.2H235c-2.1,0-3.8,1.7-3.8,3.8v24.7c0,2.1,1.7,3.8,3.8,3.8h27.5c2.1,0,3.8-1.7,3.8-3.8   V319C266.3,316.9,264.6,315.2,262.5,315.2z"/>
	<path style="fill:#E6E9EE;" d="M336.8,315.2h-27.5c-2.1,0-3.8,1.7-3.8,3.8v24.7c0,2.1,1.7,3.8,3.8,3.8h27.5c2.1,0,3.8-1.7,3.8-3.8   V319C340.6,316.9,338.9,315.2,336.8,315.2z"/>
</g>
<path style="fill:#FFFFFF;" d="M225.6,442.7l0.3-0.1l-0.1,0.3c16.7-9.2,33.6-6.9,33.6-6.9c0.8-8.4,4.6-16.3,10.6-22.3l4.3-4.3  l-7.6-7.6l-7.6-7.6l-4.3,4.3c-6,6-13.9,9.7-22.3,10.6C232.5,409.1,234.7,426,225.6,442.7z"/>
<g>
	<circle style="fill:#324A5E;" cx="226.1" cy="442.4" r="2.2"/>
	
		<rect x="236.226" y="417.849" transform="matrix(0.7071 0.7071 -0.7071 0.7071 374.5309 -41.099)" style="fill:#324A5E;" width="1.3" height="27.4"/>
	<circle style="fill:#324A5E;" cx="246.7" cy="421.7" r="3.7"/>
</g>
<rect x="251.585" y="390.91" transform="matrix(-0.7071 -0.7071 0.7071 -0.7071 182.0007 870.0072)" style="fill:#E6E9EE;" width="39.2" height="12.8"/>
<path style="fill:#FF7058;" d="M289.5,406.6c48-48.2,152.5-163.7,144.3-172c-8.2-8.2-123.7,96.3-172,144.3L289.5,406.6z"/>
<g>
</g>
<g>
</g>
<g>
</g>
<g>
</g>
<g>
</g>
<g>
</g>
<g>
</g>
<g>
</g>
<g>
</g>
<g>
</g>
<g>
</g>
<g>
</g>
<g>
</g>
<g>
</g>
<g>
</g>
</svg>
