<?xml version="1.0" encoding="iso-8859-1"?>
<!-- Generator: Adobe Illustrator 19.0.0, SVG Export Plug-In . SVG Version: 6.00 Build 0)  -->
<svg xmlns="http://www.w3.org/2000/svg" xmlns:xlink="http://www.w3.org/1999/xlink" version="1.1" id="Layer_1" x="0px" y="0px" viewBox="0 0 505 505" style="enable-background:new 0 0 505 505;" xml:space="preserve">
<circle style="fill:#FD8469;" cx="252.5" cy="252.5" r="252.5"/>
<rect x="78.8" y="171.3" style="fill:#FFFFFF;" width="347.3" height="34.3"/>
<polygon style="fill:#E6E9EE;" points="100.2,205.5 100.2,375.9 136.5,375.9 136.5,236.4 368.5,236.4 368.5,375.9 404.8,375.9   404.8,205.5 "/>
<path style="fill:#4CDBC4;" d="M312.5,286.6H190.8c-2.4,0-4.4,2-4.4,4.4v17.3c0,2.4,2,4.4,4.4,4.4h121.7c2.4,0,4.4-2,4.4-4.4V291  C316.9,288.5,314.9,286.6,312.5,286.6z"/>
<rect x="243.3" y="312.7" style="fill:#2B3B4E;" width="16.6" height="63.2"/>
<path style="fill:#334A5E;" d="M306.2,375.9h-16.6V359c0-1.4-1.2-2.6-2.6-2.6h-70.7c-1.4,0-2.6,1.2-2.6,2.6v16.9h-16.6V359  c0-10.6,8.6-19.2,19.2-19.2H287c10.6,0,19.2,8.6,19.2,19.2V375.9z"/>
<rect x="237.7" y="254.5" style="fill:#324A5E;" width="27.9" height="58.2"/>
<path style="fill:#4CDBC4;" d="M306.3,104.5c-0.2-3.9-3.4-6.9-7.3-6.9h-93c-3.9,0-7.1,3-7.3,6.9l-7.6,144.7  c-0.2,4.2,3.1,7.7,7.3,7.7h108.1c4.2,0,7.5-3.5,7.3-7.7L306.3,104.5z"/>
<g>
</g>
<g>
</g>
<g>
</g>
<g>
</g>
<g>
</g>
<g>
</g>
<g>
</g>
<g>
</g>
<g>
</g>
<g>
</g>
<g>
</g>
<g>
</g>
<g>
</g>
<g>
</g>
<g>
</g>
</svg>
