<?xml version="1.0" encoding="iso-8859-1"?>
<!-- Generator: Adobe Illustrator 19.0.0, SVG Export Plug-In . SVG Version: 6.00 Build 0)  -->
<svg xmlns="http://www.w3.org/2000/svg" xmlns:xlink="http://www.w3.org/1999/xlink" version="1.1" id="Layer_1" x="0px" y="0px" viewBox="0 0 505 505" style="enable-background:new 0 0 505 505;" xml:space="preserve">
<circle style="fill:#FD8469;" cx="252.5" cy="252.5" r="252.5"/>
<g>
	<path style="fill:#2B3B4E;" d="M64.7,229.3L180.3,148c7-4.9,16.8-0.6,17.8,7.9l4.5,35.8c0.3,2.6-1.2,5.2-3.6,6.2l-4.9,1   c-4.6,1.1-6.3-1.8-7.2-5.2l-2.8-10.3c-1.2-4.2-7.1-6.1-13,0.6l-35.2,31.6"/>
	<path style="fill:#2B3B4E;" d="M439.4,229.3L323.8,148c-7-4.9-16.8-0.6-17.8,7.9l-4.5,35.8c-0.3,2.6,1.2,5.2,3.6,6.2l4.9,1   c4.6,1.1,6.3-1.8,7.2-5.2l2.8-10.3c1.2-4.2,7.1-6.1,13,0.6l35.2,31.6"/>
</g>
<path style="fill:#324A5E;" d="M283.2,273.2c-31.1-19-62.3,0-62.3,0v-24.9h62.3V273.2z"/>
<path style="fill:#FFFFFF;" d="M348.7,227.9l-78.6,22.8l18.6,78c1.6,8.5,9,14.6,17.6,14.6h88.8c8.5,0,15.9-6,17.5-14.4l15-74.6  L348.7,227.9z"/>
<path style="fill:#324A5E;" d="M447,242.1c-0.3-7-5-13.4-12.1-15.5c0,0-2.8-0.8-7.7-2.2c-2.4-0.7-5.4-1.5-8.7-2.5  c-3.3-1.1-7.3-1.6-11.5-2.5c-4.3-0.7-8.8-1.9-13.7-2.3c-4.9-0.4-10.1-1.2-15.5-1.4c-5.4,0-10.9-0.4-16.5-0.1  c-2.8,0.2-5.6,0.4-8.5,0.5c-2.8,0.1-5.7,0.4-8.5,0.8c-5.6,0.8-11.2,1.5-16.7,2.8c-2.7,0.6-5.4,1.1-8,1.8c-2.6,0.8-5.2,1.5-7.7,2.2  c-5,1.4-9.7,3.3-14.2,4.9c-0.1,0-0.2,0.1-0.3,0.1c-4.4,1.9-8.5,3.5-12.2,5.4c-3.8,1.8-7.1,3.6-10.1,5.3s-5.5,3.2-7.5,4.5  s-3.6,2.4-4.8,3.3c-1.2,0.8-1.6,1.2-1.6,1.2l-0.3,0.2c-1.9,1.6-2.3,4.3-1,6.4c1.4,2.3,4.5,3.1,6.9,1.6c0,0,0.6-0.4,1.6-0.9  s2.5-1.3,4.6-2.3c2-0.9,4.5-2.1,7.5-3.2c2.9-1.1,6.2-2.4,9.9-3.5c3.6-1.3,7.6-2.2,11.8-3.4c0.1,0,0.2-0.1,0.3-0.1  c4.3-0.9,8.7-2,13.4-2.6c2.4-0.3,4.8-0.7,7.2-1c2.4-0.3,4.9-0.4,7.4-0.6c5-0.5,10-0.4,15.1-0.5c2.5-0.1,5,0.1,7.5,0.3s5,0.4,7.4,0.6  c4.9,0.4,9.7,1.4,14.3,2.1c4.6,0.8,9,2.1,13.1,3.1c4.2,0.8,7.9,2.5,11.5,3.6c1.6,0.6,6,2.3,10.2,4.1c4.8,2,8.3,6.1,9.5,11  c0.6,2.3,2.8,3.8,5.1,3.8h5.9c9.4,0,17-7.6,17-17L447,242.1L447,242.1z"/>
<path style="fill:#FFFFFF;" d="M156.3,227.9l78.6,22.8l-18.6,78c-1.6,8.5-9,14.6-17.6,14.6h-88.8c-8.5,0-15.9-6-17.5-14.4l-15-74.6  L156.3,227.9z"/>
<path style="fill:#324A5E;" d="M58,242.1c0.3-7,5-13.4,12.1-15.5c0,0,2.8-0.8,7.7-2.2c2.4-0.7,5.4-1.5,8.7-2.5  c3.3-1.1,7.3-1.6,11.5-2.5c4.3-0.7,8.8-1.9,13.7-2.3c4.9-0.4,10.1-1.2,15.5-1.4c5.4,0,10.9-0.4,16.5-0.1c2.8,0.2,5.6,0.4,8.5,0.5  c2.8,0.1,5.7,0.4,8.5,0.8c5.6,0.8,11.2,1.5,16.7,2.8c2.7,0.6,5.4,1.1,8,1.8c2.6,0.8,5.2,1.5,7.7,2.2c5,1.4,9.7,3.3,14.2,4.9  c0.1,0,0.2,0.1,0.3,0.1c4.4,1.9,8.5,3.5,12.2,5.4c3.8,1.8,7.1,3.6,10.1,5.3s5.5,3.2,7.5,4.5s3.6,2.4,4.8,3.3  c1.2,0.8,1.6,1.2,1.6,1.2l0.3,0.2c1.9,1.6,2.3,4.3,1,6.4c-1.4,2.3-4.5,3.1-6.9,1.6c0,0-0.6-0.4-1.6-0.9s-2.5-1.3-4.6-2.3  c-2-0.9-4.5-2.1-7.5-3.2c-2.9-1.1-6.2-2.4-9.9-3.5c-3.6-1.3-7.6-2.2-11.8-3.4c-0.1,0-0.2-0.1-0.3-0.1c-4.3-0.9-8.7-2-13.4-2.6  c-2.4-0.3-4.8-0.7-7.2-1s-4.9-0.4-7.4-0.6c-5-0.5-10-0.4-15.1-0.5c-2.5-0.1-5,0.1-7.5,0.3s-5,0.4-7.4,0.6c-4.9,0.4-9.7,1.4-14.3,2.1  c-4.6,0.8-9,2.1-13.1,3.1c-4.2,0.8-7.9,2.5-11.5,3.6c-1.6,0.6-6,2.3-10.2,4.1c-4.8,2-8.3,6.1-9.5,11c-0.6,2.3-2.8,3.8-5.1,3.8h-5.9  c-9.4,0-17-7.6-17-17L58,242.1L58,242.1z"/>
<g>
</g>
<g>
</g>
<g>
</g>
<g>
</g>
<g>
</g>
<g>
</g>
<g>
</g>
<g>
</g>
<g>
</g>
<g>
</g>
<g>
</g>
<g>
</g>
<g>
</g>
<g>
</g>
<g>
</g>
</svg>
