<?xml version="1.0" encoding="iso-8859-1"?>
<!-- Generator: Adobe Illustrator 19.0.0, SVG Export Plug-In . SVG Version: 6.00 Build 0)  -->
<svg xmlns="http://www.w3.org/2000/svg" xmlns:xlink="http://www.w3.org/1999/xlink" version="1.1" id="Layer_1" x="0px" y="0px" viewBox="0 0 505 505" style="enable-background:new 0 0 505 505;" xml:space="preserve">
<circle style="fill:#FFD05B;" cx="252.5" cy="252.5" r="252.5"/>
<polygon style="fill:#324A5E;" points="252.5,257.7 280.1,313.6 341.8,322.6 297.1,366.1 307.7,427.5 252.5,398.5 197.3,427.5   207.9,366.1 163.2,322.6 224.9,313.6 "/>
<polygon style="fill:#E6E9EE;" points="252.5,371.2 230.1,383 234.4,358 216.2,340.3 241.3,336.7 252.5,314 263.7,336.7   288.8,340.3 270.6,358 274.9,383 "/>
<g>
	<circle style="fill:#324A5E;" cx="252.5" cy="251.1" r="18.9"/>
	<circle style="fill:#324A5E;" cx="252.5" cy="216" r="16.2"/>
</g>
<rect x="160.4" y="77.5" style="fill:#FF7058;" width="184.1" height="128.1"/>
<g>
	<rect x="154.9" y="77.5" style="fill:#FFFFFF;" width="195.2" height="16.9"/>
	<rect x="154.9" y="188.7" style="fill:#FFFFFF;" width="195.2" height="16.9"/>
</g>
<g>
</g>
<g>
</g>
<g>
</g>
<g>
</g>
<g>
</g>
<g>
</g>
<g>
</g>
<g>
</g>
<g>
</g>
<g>
</g>
<g>
</g>
<g>
</g>
<g>
</g>
<g>
</g>
<g>
</g>
</svg>
