<?xml version="1.0" encoding="iso-8859-1"?>
<!-- Generator: Adobe Illustrator 19.0.0, SVG Export Plug-In . SVG Version: 6.00 Build 0)  -->
<svg xmlns="http://www.w3.org/2000/svg" xmlns:xlink="http://www.w3.org/1999/xlink" version="1.1" id="Layer_1" x="0px" y="0px" viewBox="0 0 505 505" style="enable-background:new 0 0 505 505;" xml:space="preserve">
<circle style="fill:#84DBFF;" cx="252.5" cy="252.5" r="252.5"/>
<path style="fill:#FF7058;" d="M227,400.8h-77.2c-22.6,0-41.1-18.4-41.1-41.1v-90.6c0-22.6,18.4-41.1,41.1-41.1h231.9v15.9H149.8  c-13.9,0-25.1,11.3-25.1,25.1v90.6c0,13.9,11.3,25.1,25.1,25.1H227c13.9,0,25.1-11.3,25.1-25.1v-5.5H268v5.5  C268.1,382.4,249.7,400.8,227,400.8z"/>
<path style="fill:#FFFFFF;" d="M254.6,74.3c-44,2.8-79.2,39.6-80.1,83.7c-0.4,21.2,6.9,40.7,19.4,55.8  c18.4,22.4,29.4,49.8,29.4,78.8v1.9h73.5v-1.9c0-28.8,10.8-56.3,29.2-78.4c12.3-14.8,19.7-33.8,19.7-54.5  C345.7,110.6,304.4,71.2,254.6,74.3z"/>
<g>
	<path style="fill:#324A5E;" d="M236,347.1c0,7.9,6.4,14.4,14.4,14.4h19.4c7.9,0,14.4-6.4,14.4-14.4H236z"/>
	<path style="fill:#324A5E;" d="M292.5,303.2h-64.7c-4,0-7.3,3.3-7.3,7.3s3.3,7.3,7.3,7.3h64.7c4,0,7.3-3.3,7.3-7.3   C299.7,306.5,296.5,303.2,292.5,303.2z"/>
	<path style="fill:#324A5E;" d="M292.5,326.8h-64.7c-4,0-7.3,3.3-7.3,7.3s3.3,7.3,7.3,7.3h64.7c4,0,7.3-3.3,7.3-7.3   C299.7,330,296.5,326.8,292.5,326.8z"/>
</g>
<path style="fill:#FFD05B;" d="M384.3,206.4c-16.3,0-29.6,13.2-29.6,29.6l0,0c0,16.3,13.2,29.6,29.6,29.6h17.4v-59.2L384.3,206.4  L384.3,206.4z"/>
<g>
	<path style="fill:#324A5E;" d="M422.5,215.5h-20.9v10.7h20.9c2.9,0,5.3-2.4,5.3-5.3C427.9,217.9,425.5,215.5,422.5,215.5z"/>
	<path style="fill:#324A5E;" d="M422.5,245.9h-20.9v10.6h20.9c2.9,0,5.3-2.4,5.3-5.3C427.9,248.3,425.5,245.9,422.5,245.9z"/>
</g>
<g>
</g>
<g>
</g>
<g>
</g>
<g>
</g>
<g>
</g>
<g>
</g>
<g>
</g>
<g>
</g>
<g>
</g>
<g>
</g>
<g>
</g>
<g>
</g>
<g>
</g>
<g>
</g>
<g>
</g>
</svg>
