<?xml version="1.0" encoding="iso-8859-1"?>
<!-- Generator: Adobe Illustrator 19.0.0, SVG Export Plug-In . SVG Version: 6.00 Build 0)  -->
<svg xmlns="http://www.w3.org/2000/svg" xmlns:xlink="http://www.w3.org/1999/xlink" version="1.1" id="Layer_1" x="0px" y="0px" viewBox="0 0 505 505" style="enable-background:new 0 0 505 505;" xml:space="preserve">
<circle style="fill:#324A5E;" cx="252.5" cy="252.5" r="252.5"/>
<path style="fill:#E6E9EE;" d="M134.7,125.1v262.5c0,7.3,6,13.3,13.3,13.3h209.1c7.3,0,13.3-6,13.3-13.3V125.1H134.7z"/>
<path style="fill:#FFFFFF;" d="M379.4,125.1H125.6c-3.4,0-6.2,2.8-6.2,6.2v36.9c0,3.4,2.8,6.2,6.2,6.2h253.9c3.4,0,6.2-2.8,6.2-6.2  v-36.9C385.6,127.9,382.9,125.1,379.4,125.1z"/>
<path style="fill:#E6E9EE;" d="M296.5,96.2h-88c-5.2,0-9.4,3.7-9.4,8.2v20.7h106.8v-20.7C305.9,99.9,301.7,96.2,296.5,96.2z"/>
<g>
	<path style="fill:#FF7058;" d="M237.7,347.1c-1.5-0.8-3.2-1.9-5.2-3.2c-2-1.2-4.1-2.8-6.3-4.6c-2.3-1.7-4.4-3.8-6.7-6   c-2.2-2.2-4.2-4.7-6.1-7.3c-1.7-2.7-3.3-5.5-4.4-8.5c-1.3-2.9-1.8-6-2.3-9c-1.5-12.2,3.1-24.5,7.9-33c2.4-4.3,4.8-7.7,6.4-9.8   c0.4-0.5,0.7-0.8,1-1.2l16.4,10.4l-12.7-56.5l-56.5,12.7l16.2,10.2c0,0.1-0.1,0.2-0.1,0.3c-0.5,1.2-1.2,2.8-1.9,4.8   c-1.5,4.1-3.3,9.8-4.8,16.8c-1.4,7.1-2.6,15.5-2.2,24.7c0.1,4.6,0.7,9.4,1.8,14.2c1,4.8,2.7,9.6,4.7,14.2c2.2,4.5,4.7,8.8,7.8,12.5   c3,3.8,6.3,6.9,9.7,9.7c3.4,2.7,6.9,5,10.2,6.8c3.4,1.8,6.6,3.4,9.6,4.5c3,1.2,5.7,2.2,8.2,2.8c2.5,0.8,4.6,1.4,6.4,1.7   c3.5,0.8,5.6,1.2,5.6,1.2l2.1-6C242.4,349.7,240.7,348.8,237.7,347.1z"/>
	<path style="fill:#FF7058;" d="M266.6,227.1c1.5,0.8,3.2,1.9,5.2,3.2c2,1.2,4.1,2.8,6.3,4.6c2.3,1.7,4.4,3.8,6.7,6   c2.2,2.2,4.2,4.7,6.1,7.3c1.7,2.7,3.3,5.5,4.4,8.5c1.3,2.9,1.8,6,2.3,9c1.5,12.2-3.1,24.5-7.9,33c-2.4,4.3-4.8,7.7-6.4,9.8   c-0.4,0.5-0.7,0.8-1,1.2l-16.4-10.4l12.7,56.5l56.5-12.7l-16.2-10.2c0-0.1,0.1-0.2,0.1-0.3c0.5-1.2,1.2-2.8,1.9-4.8   c1.5-4.1,3.3-9.8,4.8-16.8c1.4-7.1,2.6-15.5,2.2-24.7c-0.1-4.6-0.7-9.4-1.8-14.2c-1-4.8-2.7-9.6-4.7-14.2   c-2.2-4.5-4.7-8.8-7.8-12.5c-3-3.8-6.3-6.9-9.7-9.7c-3.4-2.7-6.9-5-10.2-6.8c-3.4-1.8-6.6-3.4-9.6-4.5c-3-1.2-5.7-2.2-8.2-2.8   c-2.5-0.8-4.6-1.4-6.4-1.7c-3.5-0.8-5.6-1.2-5.6-1.2l-2.1,6C261.9,224.4,263.6,225.4,266.6,227.1z"/>
</g>
<g>
</g>
<g>
</g>
<g>
</g>
<g>
</g>
<g>
</g>
<g>
</g>
<g>
</g>
<g>
</g>
<g>
</g>
<g>
</g>
<g>
</g>
<g>
</g>
<g>
</g>
<g>
</g>
<g>
</g>
</svg>
