<?xml version="1.0" encoding="iso-8859-1"?>
<!-- Generator: Adobe Illustrator 19.0.0, SVG Export Plug-In . SVG Version: 6.00 Build 0)  -->
<svg xmlns="http://www.w3.org/2000/svg" xmlns:xlink="http://www.w3.org/1999/xlink" version="1.1" id="Layer_1" x="0px" y="0px" viewBox="0 0 505 505" style="enable-background:new 0 0 505 505;" xml:space="preserve">
<circle style="fill:#90DFAA;" cx="252.5" cy="252.5" r="252.5"/>
<path style="fill:#324A5E;" d="M411.2,200.7H85.9c-6.3,0-11.3,5.1-11.3,11.3v100.5c0,6.3,5.1,11.3,11.3,11.3h325.4  c6.3,0,11.3-5.1,11.3-11.3V212.1C422.6,205.8,417.5,200.7,411.2,200.7z"/>
<circle style="fill:#2B3B4E;" cx="315.2" cy="207.5" r="66.6"/>
<path style="fill:#CED5E0;" d="M315.2,248.9c-22.8,0-41.4-18.6-41.4-41.4s18.6-41.4,41.4-41.4s41.4,18.6,41.4,41.4  S338,248.9,315.2,248.9z"/>
<path style="fill:#ACB3BA;" d="M315.2,237.8c-16.7,0-30.3-13.6-30.3-30.4s13.6-30.4,30.3-30.4c16.7,0,30.4,13.6,30.4,30.4  S331.9,237.8,315.2,237.8z"/>
<g>
	<rect x="348.7" y="323.9" style="fill:#2B3B4E;" width="33.9" height="16.6"/>
	<rect x="114.6" y="323.9" style="fill:#2B3B4E;" width="33.9" height="16.6"/>
</g>
<circle style="fill:#FF7058;" cx="103.7" cy="228.4" r="12.3"/>
<circle style="fill:#FFD05B;" cx="138.6" cy="228.4" r="12.3"/>
<circle style="fill:#4CDBC4;" cx="173.5" cy="228.4" r="12.3"/>
<ellipse transform="matrix(0.453 -0.8915 0.8915 0.453 -14.1204 377.6268)" style="fill:#FFFFFF;" cx="300.673" cy="200.32" rx="9.8" ry="5.8"/>
<g>
</g>
<g>
</g>
<g>
</g>
<g>
</g>
<g>
</g>
<g>
</g>
<g>
</g>
<g>
</g>
<g>
</g>
<g>
</g>
<g>
</g>
<g>
</g>
<g>
</g>
<g>
</g>
<g>
</g>
</svg>
