<?xml version="1.0" encoding="iso-8859-1"?>
<!-- Generator: Adobe Illustrator 19.0.0, SVG Export Plug-In . SVG Version: 6.00 Build 0)  -->
<svg xmlns="http://www.w3.org/2000/svg" xmlns:xlink="http://www.w3.org/1999/xlink" version="1.1" id="Layer_1" x="0px" y="0px" viewBox="0 0 505 505" style="enable-background:new 0 0 505 505;" xml:space="preserve">
<circle style="fill:#FD8469;" cx="252.5" cy="252.5" r="252.5"/>
<path style="fill:#2B3B4E;" d="M143.7,399.7l0.9,19.1c0.1,2.5,2.2,4.5,4.7,4.5h206.4c2.5,0,4.6-2,4.7-4.5l0.9-19.1H143.7z"/>
<path style="fill:#324A5E;" d="M338.3,227H166.7l-23.1,172.8c-0.3,2.3,1.5,4.4,3.9,4.4h210c2.4,0,4.2-2.1,3.9-4.4L338.3,227z"/>
<polygon style="fill:#84DBFF;" points="169.8,375 183.3,246.1 321.7,246.1 335.2,375 "/>
<path style="fill:#2B3B4E;" d="M348.3,81.7H156.7c-2.3,0-4.1,2-3.9,4.3l14.1,141h171.2l14.1-141C352.4,83.7,350.6,81.7,348.3,81.7z"/>
<g>
</g>
<g>
</g>
<g>
</g>
<g>
</g>
<g>
</g>
<g>
</g>
<g>
</g>
<g>
</g>
<g>
</g>
<g>
</g>
<g>
</g>
<g>
</g>
<g>
</g>
<g>
</g>
<g>
</g>
</svg>
