<?xml version="1.0" encoding="iso-8859-1"?>
<!-- Generator: Adobe Illustrator 19.0.0, SVG Export Plug-In . SVG Version: 6.00 Build 0)  -->
<svg xmlns="http://www.w3.org/2000/svg" xmlns:xlink="http://www.w3.org/1999/xlink" version="1.1" id="Layer_1" x="0px" y="0px" viewBox="0 0 505 505" style="enable-background:new 0 0 505 505;" xml:space="preserve">
<circle style="fill:#84DBFF;" cx="252.5" cy="252.5" r="252.5"/>
<polygon style="fill:#FFFFFF;" points="377.7,100.5 127.3,100.5 127.3,404.5 301.3,404.5 377.7,328 "/>
<path style="fill:#324A5E;" d="M274.1,151.7l0.5-2c0.1-0.8,0.2-1.7,0.2-2.5c0-10.8-9.8-19.6-21.9-19.6s-21.9,8.8-21.9,19.6  c0,0.9,0.1,1.7,0.2,2.5l0.4,2c-1.9,0.8-3.2,3.7-2.8,7c0.3,3.8,2.6,6.7,4.9,6.5c0.3,0,0.5-0.1,0.7-0.2l6.2,28.9h23.7l6.7-29.2  c0.4,0.2,0.7,0.4,1.2,0.4c2.4,0.2,4.6-2.7,4.9-6.5C277.5,155.4,276.2,152.4,274.1,151.7z"/>
<polygon style="fill:#CED5E0;" points="252.5,189.9 237.5,179.5 252.5,225.6 267.6,179.5 "/>
<polygon style="fill:#FFFFFF;" points="258.3,200.6 252.5,194.9 246.8,200.6 251.2,205 248.3,221.4 252.5,225.6 256.7,221.4   253.8,205.1 "/>
<g>
	<path style="fill:#FF7058;" d="M292.8,192.9c-16.1-1.8-25.2-13.4-25.2-13.4l-15,46.1h54.2C306.7,225.6,308.9,194.7,292.8,192.9z"/>
	<path style="fill:#FF7058;" d="M237.4,179.5c0,0-9.1,11.5-25.2,13.4c-16.1,1.8-14,32.7-14,32.7h54.3L237.4,179.5z"/>
</g>
<g>
	<rect x="160.1" y="255.5" style="fill:#CED5E0;" width="184.9" height="12.6"/>
	<rect x="160.1" y="289.8" style="fill:#CED5E0;" width="184.9" height="12.6"/>
	<rect x="160.1" y="324" style="fill:#CED5E0;" width="106.7" height="12.6"/>
	<rect x="160.1" y="358.2" style="fill:#CED5E0;" width="89.2" height="12.6"/>
</g>
<polygon style="fill:#ACB3BA;" points="301.3,404.5 377.7,328 301.3,328 "/>
<g>
</g>
<g>
</g>
<g>
</g>
<g>
</g>
<g>
</g>
<g>
</g>
<g>
</g>
<g>
</g>
<g>
</g>
<g>
</g>
<g>
</g>
<g>
</g>
<g>
</g>
<g>
</g>
<g>
</g>
</svg>
