<?xml version="1.0" encoding="iso-8859-1"?>
<!-- Generator: Adobe Illustrator 19.0.0, SVG Export Plug-In . SVG Version: 6.00 Build 0)  -->
<svg xmlns="http://www.w3.org/2000/svg" xmlns:xlink="http://www.w3.org/1999/xlink" version="1.1" id="Layer_1" x="0px" y="0px" viewBox="0 0 505 505" style="enable-background:new 0 0 505 505;" xml:space="preserve">
<circle style="fill:#FFD05B;" cx="252.5" cy="252.5" r="252.5"/>
<rect x="176.8" y="138.4" style="fill:#E6E9EE;" width="208.6" height="253.1"/>
<g>
	<rect x="200.1" y="167.9" style="fill:#324A5E;" width="162.1" height="13.9"/>
	<rect x="200.1" y="213" style="fill:#324A5E;" width="162.1" height="13.9"/>
	<rect x="200.1" y="258.1" style="fill:#324A5E;" width="162.1" height="13.9"/>
	<rect x="200.1" y="303.1" style="fill:#324A5E;" width="162.1" height="13.9"/>
	<rect x="200.1" y="348.2" style="fill:#324A5E;" width="162.1" height="13.9"/>
</g>
<rect x="124.901" y="139.997" transform="matrix(-0.9665 -0.2565 0.2565 -0.9665 382.3539 582.9571)" style="fill:#FFFFFF;" width="208.591" height="253.089"/>
<g>
	
		<rect x="171.296" y="172.507" transform="matrix(-0.9665 -0.2565 0.2565 -0.9665 450.2091 417.6376)" style="fill:#4CDBC4;" width="162.093" height="13.899"/>
	
		<rect x="159.691" y="216.091" transform="matrix(-0.9665 -0.2565 0.2565 -0.9665 416.2079 500.3706)" style="fill:#4CDBC4;" width="162.093" height="13.899"/>
	
		<rect x="148.173" y="259.702" transform="matrix(-0.9665 -0.2565 0.2565 -0.9665 382.3704 583.1782)" style="fill:#4CDBC4;" width="162.093" height="13.899"/>
	
		<rect x="136.594" y="303.188" transform="matrix(-0.9665 -0.2565 0.2565 -0.9665 348.4448 665.7257)" style="fill:#4CDBC4;" width="162.093" height="13.899"/>
	
		<rect x="124.989" y="346.778" transform="matrix(-0.9665 -0.2565 0.2565 -0.9665 314.4422 748.4705)" style="fill:#4CDBC4;" width="162.093" height="13.899"/>
</g>
<path style="fill:#FF7058;" d="M248.9,65.6c-16,0-29,13-29,29v38.6l7.9,2.1V94.6c0-11.6,9.4-21.1,21.1-21.1S270,82.9,270,94.6v74.5  c0,7.3-6,13.3-13.3,13.3c-7.3,0-13.3-6-13.3-13.3v-58.8c0-3.7,3-6.7,6.7-6.7c3.7,0,6.7,3,6.7,6.7v28h7.9v-28c0-8-6.5-14.5-14.6-14.5  c-8,0-14.6,6.5-14.6,14.5v58.8c0,11.7,9.5,21.2,21.2,21.2s21.2-9.5,21.2-21.2V94.6C277.8,78.6,264.8,65.6,248.9,65.6z"/>
<g>
</g>
<g>
</g>
<g>
</g>
<g>
</g>
<g>
</g>
<g>
</g>
<g>
</g>
<g>
</g>
<g>
</g>
<g>
</g>
<g>
</g>
<g>
</g>
<g>
</g>
<g>
</g>
<g>
</g>
</svg>
