<?xml version="1.0" encoding="iso-8859-1"?>
<!-- Generator: Adobe Illustrator 19.0.0, SVG Export Plug-In . SVG Version: 6.00 Build 0)  -->
<svg xmlns="http://www.w3.org/2000/svg" xmlns:xlink="http://www.w3.org/1999/xlink" version="1.1" id="Layer_1" x="0px" y="0px" viewBox="0 0 505 505" style="enable-background:new 0 0 505 505;" xml:space="preserve">
<circle style="fill:#84DBFF;" cx="252.5" cy="252.5" r="252.5"/>
<rect x="111.8" y="105.9" style="fill:#324A5E;" width="281.3" height="293.1"/>
<circle style="fill:#E6E9EE;" cx="252.5" cy="252.5" r="112.5"/>
<g>
	<rect x="248.2" y="150.1" style="fill:#324A5E;" width="8.6" height="16.1"/>
	<rect x="248.2" y="338.8" style="fill:#324A5E;" width="8.6" height="16.1"/>
	<rect x="338.8" y="248.2" style="fill:#324A5E;" width="16.1" height="8.6"/>
	<rect x="150.1" y="248.2" style="fill:#324A5E;" width="16.1" height="8.6"/>
	
		<rect x="314.923" y="177.72" transform="matrix(-0.7071 -0.7071 0.7071 -0.7071 413.5878 542.8533)" style="fill:#324A5E;" width="8.6" height="16.1"/>
	
		<rect x="181.528" y="311.11" transform="matrix(-0.7071 -0.7071 0.7071 -0.7071 91.5485 676.2403)" style="fill:#324A5E;" width="8.6" height="16.1"/>
	
		<rect x="314.933" y="311.185" transform="matrix(0.7071 -0.7071 0.7071 0.7071 -132.2323 319.2337)" style="fill:#324A5E;" width="8.6" height="16.1"/>
	
		<rect x="181.547" y="177.795" transform="matrix(0.7071 -0.7071 0.7071 0.7071 -76.9791 185.8467)" style="fill:#324A5E;" width="8.6" height="16.1"/>
</g>
<g>
	<polygon style="fill:#FF7058;" points="264.5,194.6 252.5,174.7 240.5,194.6 248.2,190.7 248.2,263 256.8,263 256.8,190.7  "/>
	<polygon style="fill:#FF7058;" points="320.8,251 292.1,233.7 297.7,244.7 238.5,244.7 238.5,257.2 297.7,257.2 292.1,268.3  "/>
</g>
<g>
</g>
<g>
</g>
<g>
</g>
<g>
</g>
<g>
</g>
<g>
</g>
<g>
</g>
<g>
</g>
<g>
</g>
<g>
</g>
<g>
</g>
<g>
</g>
<g>
</g>
<g>
</g>
<g>
</g>
</svg>
