<?xml version="1.0" encoding="iso-8859-1"?>
<!-- Generator: Adobe Illustrator 19.0.0, SVG Export Plug-In . SVG Version: 6.00 Build 0)  -->
<svg xmlns="http://www.w3.org/2000/svg" xmlns:xlink="http://www.w3.org/1999/xlink" version="1.1" id="Layer_1" x="0px" y="0px" viewBox="0 0 505 505" style="enable-background:new 0 0 505 505;" xml:space="preserve">
<circle style="fill:#324A5E;" cx="252.5" cy="252.5" r="252.5"/>
<path style="fill:#CED5E0;" d="M343.6,86.1l-112,171.2c-10.2,15.6-5.8,36.4,9.7,46.6l0,0L207,356.3c-4.1-10.1-12-18.8-23.2-23.7  c-17.6-7.7-38.7-2.7-51,12.1c-17.1,20.5-12.1,50.8,9.6,65c19.7,12.9,45.9,7.8,59.5-11l0.1,0.1l133.7-204.4  C359.8,157.5,355.9,109.3,343.6,86.1z M153.2,393.2c-11.2-7.3-14.4-22.4-7-33.6c7.3-11.2,22.4-14.4,33.6-7  c11.2,7.3,14.4,22.4,7,33.6C179.5,397.4,164.4,400.5,153.2,393.2z"/>
<path style="fill:#FF7058;" d="M224.2,326.3L207.4,352c-3.6-7.1-9-13.1-15.7-17.6c-21.2-13.9-49.8-7.9-63.7,13.3  c-13.9,21.2-7.9,49.8,13.3,63.7c20,13.1,46.4,8.6,61.2-9.9l0.2,0.1l41-62.6L224.2,326.3z M154.4,391.4c-10.2-6.7-13.1-20.5-6.4-30.7  c6.7-10.2,20.5-13.1,30.7-6.4s13.1,20.5,6.4,30.7C178.4,395.3,164.6,398.1,154.4,391.4z"/>
<path style="fill:#E6E9ED;" d="M156.3,198.1L305,391.9l0.1-0.1c16.2,19.1,45.7,21.2,64.3,2.9c14.3-14,17.1-36.6,6.8-53.7  c-13.7-22.8-43.9-28.1-64.4-12.3c-7.3,5.6-12.4,13.1-15,21.3l-38.1-49.7l0,0c14.7-11.3,17.5-32.4,6.2-47.2L140.3,90.8  C129.8,114.9,129.5,163.2,156.3,198.1z M319.2,378.2c-8.2-10.6-6.1-25.9,4.5-34c10.6-8.2,25.9-6.1,34,4.5c8.2,10.6,6.1,25.9-4.5,34  C342.7,390.9,327.4,388.8,319.2,378.2z"/>
<path style="fill:#FF7058;" d="M259,335.4l45.6,59.4l0.2-0.2c16.1,17.4,42.8,19.8,61.7,5.3c20.1-15.4,23.9-44.4,8.5-64.5  s-44.4-23.9-64.5-8.5c-6.4,4.9-11.3,11.3-14.4,18.7l-18.7-24.3L259,335.4z M320.9,376.9c-7.4-9.7-5.6-23.6,4.1-31.1  c9.7-7.4,23.6-5.6,31.1,4.1c7.4,9.7,5.6,23.6-4.1,31.1S328.4,386.6,320.9,376.9z"/>
<circle style="fill:#324A5E;" cx="247.6" cy="271.4" r="8.8"/>
<g>
</g>
<g>
</g>
<g>
</g>
<g>
</g>
<g>
</g>
<g>
</g>
<g>
</g>
<g>
</g>
<g>
</g>
<g>
</g>
<g>
</g>
<g>
</g>
<g>
</g>
<g>
</g>
<g>
</g>
</svg>
