<?xml version="1.0" encoding="iso-8859-1"?>
<!-- Generator: Adobe Illustrator 19.0.0, SVG Export Plug-In . SVG Version: 6.00 Build 0)  -->
<svg xmlns="http://www.w3.org/2000/svg" xmlns:xlink="http://www.w3.org/1999/xlink" version="1.1" id="Layer_1" x="0px" y="0px" viewBox="0 0 505.063 505.063" style="enable-background:new 0 0 505.063 505.063;" xml:space="preserve">
<path style="fill:#324A5E;" d="M504.929,244.279c4.7,146-114.6,265.3-260.6,260.6c-132.3-4.1-239.9-111.8-244.2-244  c-4.6-146,114.7-265.3,260.7-260.7C393.029,4.479,500.629,112.079,504.929,244.279z"/>
<path style="fill:#FFD05B;" d="M312.529,179.979h-20.1l4.3-109.5c0.1-3.1,2.7-5.5,5.7-5.5l0,0c3.1,0,5.6,2.4,5.7,5.5  L312.529,179.979z"/>
<path style="fill:#FF7058;" d="M361.629,390.379l-25.2-88.3c-1.4-4.8-5.7-8.1-10.7-8.1h-157.2c-5,0-9.3,3.3-10.7,8.1l-25.2,88.3  c-2,7.1,3.3,14.2,10.7,14.2h207.6C358.329,404.579,363.629,397.479,361.629,390.379z"/>
<path style="fill:#E6E9EE;" d="M285.329,114.579h-76.5c-15,0-27.2,12.2-27.2,27.2v200.3c0,6.5,5.2,11.7,11.7,11.7h107.4  c6.5,0,11.7-5.2,11.7-11.7v-200.3C312.529,126.679,300.329,114.579,285.329,114.579z"/>
<rect x="202.229" y="141.179" style="fill:#54C0EB;" width="89.8" height="56.7"/>
<g>
	<rect x="202.229" y="215.879" style="fill:#CED5E0;" width="19.9" height="19.9"/>
	<rect x="237.129" y="215.879" style="fill:#CED5E0;" width="19.9" height="19.9"/>
	<rect x="272.129" y="215.879" style="fill:#CED5E0;" width="19.9" height="19.9"/>
	<rect x="202.229" y="247.279" style="fill:#CED5E0;" width="19.9" height="19.9"/>
	<rect x="237.129" y="247.279" style="fill:#CED5E0;" width="19.9" height="19.9"/>
	<rect x="272.129" y="247.279" style="fill:#CED5E0;" width="19.9" height="19.9"/>
	<rect x="202.229" y="278.779" style="fill:#CED5E0;" width="19.9" height="19.9"/>
	<rect x="237.129" y="278.779" style="fill:#CED5E0;" width="19.9" height="19.9"/>
	<rect x="272.129" y="278.779" style="fill:#CED5E0;" width="19.9" height="19.9"/>
	<rect x="202.229" y="310.179" style="fill:#CED5E0;" width="19.9" height="19.9"/>
	<rect x="237.129" y="310.179" style="fill:#CED5E0;" width="19.9" height="19.9"/>
	<rect x="272.129" y="310.179" style="fill:#CED5E0;" width="19.9" height="19.9"/>
</g>
<g>
</g>
<g>
</g>
<g>
</g>
<g>
</g>
<g>
</g>
<g>
</g>
<g>
</g>
<g>
</g>
<g>
</g>
<g>
</g>
<g>
</g>
<g>
</g>
<g>
</g>
<g>
</g>
<g>
</g>
</svg>
