<?xml version="1.0" encoding="iso-8859-1"?>
<!-- Generator: Adobe Illustrator 19.0.0, SVG Export Plug-In . SVG Version: 6.00 Build 0)  -->
<svg xmlns="http://www.w3.org/2000/svg" xmlns:xlink="http://www.w3.org/1999/xlink" version="1.1" id="Layer_1" x="0px" y="0px" viewBox="0 0 505 505" style="enable-background:new 0 0 505 505;" xml:space="preserve">
<circle style="fill:#FD8469;" cx="252.5" cy="252.5" r="252.5"/>
<path style="fill:#324A5E;" d="M216.6,349.9v21.9c0,3.1,2.5,5.6,5.6,5.6h60.5c3.1,0,5.6-2.5,5.6-5.6v-21.9H216.6z"/>
<path style="fill:#4CDBC4;" d="M315.1,302.5H189.7l0,0c-3.8,0.3-61.8,6.8-52.8,107.4c0,0,16.8-45.4,53-45.4h125.3  c36.2,0,53,45.4,53,45.4C377.5,306,315.1,302.5,315.1,302.5z"/>
<path style="fill:#FFFFFF;" d="M250,59.7c-2,0.1-55.4,40.1-55.4,107.7c0,52.4,15.1,173.2,29.6,197.2h52.5  c14.6-24,29.6-144.8,29.6-197.2C306.3,99.8,252.3,59.5,250,59.7z"/>
<ellipse style="fill:#324A5E;" cx="250.4" cy="160.1" rx="22.6" ry="28.3"/>
<polygon style="fill:#FFFFFF;" points="292.8,436.9 269,408 252.5,437.4 236.9,408 208.8,436.9 212.6,390.5 289.7,390.5 "/>
<g>
</g>
<g>
</g>
<g>
</g>
<g>
</g>
<g>
</g>
<g>
</g>
<g>
</g>
<g>
</g>
<g>
</g>
<g>
</g>
<g>
</g>
<g>
</g>
<g>
</g>
<g>
</g>
<g>
</g>
</svg>
