<?xml version="1.0" encoding="iso-8859-1"?>
<!-- Generator: Adobe Illustrator 19.0.0, SVG Export Plug-In . SVG Version: 6.00 Build 0)  -->
<svg xmlns="http://www.w3.org/2000/svg" xmlns:xlink="http://www.w3.org/1999/xlink" version="1.1" id="Layer_1" x="0px" y="0px" viewBox="0 0 505 505" style="enable-background:new 0 0 505 505;" xml:space="preserve">
<circle style="fill:#FFD05B;" cx="252.5" cy="252.5" r="252.5"/>
<path style="fill:#FF7058;" d="M354.2,113.9H128c-3.8,0-6.9,3.1-6.9,6.8v274.8c0,3.8,3.1,6.9,6.9,6.9h226.2c3.8,0,6.9-3.1,6.9-6.9  V120.7C361.1,117,358,113.9,354.2,113.9z"/>
<rect x="138.9" y="131.6" style="fill:#FFFFFF;" width="204.5" height="253"/>
<path style="fill:#334A5E;" d="M298,152.8H181.8c-2.5,0-4.4-2-4.4-4.4V95.3c0-2.5,2-4.4,4.4-4.4H298c2.5,0,4.4,2,4.4,4.4v53.1  C302.4,150.8,300.4,152.8,298,152.8z M186.2,143.9h107.3V99.7H186.2V143.9z"/>
<rect x="195.5" y="86.8" style="fill:#FF7058;" width="88.7" height="15.6"/>
<g>
	<rect x="154.8" y="174.5" style="fill:#CED5E0;" width="172.6" height="11.5"/>
	<rect x="154.8" y="213.5" style="fill:#CED5E0;" width="172.6" height="11.5"/>
	<rect x="154.8" y="252.4" style="fill:#CED5E0;" width="172.6" height="11.5"/>
	<rect x="154.8" y="291.4" style="fill:#CED5E0;" width="172.6" height="11.5"/>
	<rect x="154.8" y="330.3" style="fill:#CED5E0;" width="172.6" height="11.5"/>
</g>
<rect x="305.817" y="263.494" transform="matrix(-0.7071 0.7071 -0.7071 -0.7071 741.1555 257.8906)" style="fill:#2B3B4E;" width="22.7" height="37.9"/>
<g>
	<path style="fill:#324A5E;" d="M227.2,192.5c-23.9,23.9-23.9,62.7,0,86.7c23.9,23.9,62.7,23.9,86.7,0s23.9-62.7,0-86.7   C289.9,168.5,251.1,168.5,227.2,192.5z M301.3,266.6c-17,17-44.6,17-61.6,0s-17-44.6,0-61.6s44.6-17,61.6,0   S318.3,249.6,301.3,266.6z"/>
	<path style="fill:#324A5E;" d="M338.9,281.2L316,304.1c-2,2-2,5.3,0,7.4l59.8,59.8c2,2,5.3,2,7.4,0l22.9-22.9c2-2,2-5.3,0-7.4   l-59.8-59.8C344.2,279.2,340.9,279.2,338.9,281.2z"/>
</g>
<g>
</g>
<g>
</g>
<g>
</g>
<g>
</g>
<g>
</g>
<g>
</g>
<g>
</g>
<g>
</g>
<g>
</g>
<g>
</g>
<g>
</g>
<g>
</g>
<g>
</g>
<g>
</g>
<g>
</g>
</svg>
