<?xml version="1.0" encoding="iso-8859-1"?>
<!-- Generator: Adobe Illustrator 19.0.0, SVG Export Plug-In . SVG Version: 6.00 Build 0)  -->
<svg xmlns="http://www.w3.org/2000/svg" xmlns:xlink="http://www.w3.org/1999/xlink" version="1.1" id="Layer_1" x="0px" y="0px" viewBox="0 0 505 505" style="enable-background:new 0 0 505 505;" xml:space="preserve">
<circle style="fill:#84DBFF;" cx="252.5" cy="252.5" r="252.5"/>
<path style="fill:#324A5E;" d="M382.2,91.1H124.9c-3,0-5.4,2.4-5.4,5.4v170.3c0,3,2.4,5.4,5.4,5.4h257.3c3,0,5.4-2.4,5.4-5.4V96.5  C387.6,93.5,385.2,91.1,382.2,91.1z"/>
<rect x="136" y="107.6" style="fill:#E6E9EE;" width="235.2" height="148.1"/>
<g>
	<rect x="224.6" y="272.2" style="fill:#2B3B4E;" width="57.9" height="38.1"/>
	<rect x="195.4" y="302" style="fill:#2B3B4E;" width="116.4" height="15.4"/>
</g>
<path style="fill:#324A5E;" d="M372.1,330.4c-0.2-1.2-1.3-2-2.5-2H135.3c-1.2,0-2.2,0.8-2.5,2l-16.1,80.5c-0.3,1.6,0.9,3,2.5,3  h266.5c1.6,0,2.8-1.4,2.5-3L372.1,330.4z"/>
<g>
	<polygon style="fill:#FFFFFF;" points="151.2,346.8 138.8,346.8 140.5,337.3 152.7,337.3  "/>
	<polygon style="fill:#FFFFFF;" points="175.1,346.8 162.6,346.8 164,337.3 176.3,337.3  "/>
	<polygon style="fill:#FFFFFF;" points="199,346.8 186.5,346.8 187.6,337.3 199.8,337.3  "/>
	<polygon style="fill:#FFFFFF;" points="222.9,346.8 210.4,346.8 211.1,337.3 223.3,337.3  "/>
	<polygon style="fill:#FFFFFF;" points="246.8,346.8 234.3,346.8 234.6,337.3 246.9,337.3  "/>
	<polygon style="fill:#FFFFFF;" points="270.7,346.8 258.2,346.8 258.1,337.3 270.4,337.3  "/>
	<polygon style="fill:#FFFFFF;" points="294.6,346.8 282.1,346.8 281.7,337.3 293.9,337.3  "/>
	<polygon style="fill:#FFFFFF;" points="318.5,346.8 306,346.8 305.2,337.3 317.4,337.3  "/>
	<polygon style="fill:#FFFFFF;" points="342.4,346.8 329.9,346.8 328.7,337.3 341,337.3  "/>
	<polygon style="fill:#FFFFFF;" points="366.2,346.8 353.8,346.8 352.3,337.3 364.5,337.3  "/>
	<polygon style="fill:#FFFFFF;" points="148.3,364.3 135.5,364.3 137.4,354.3 150,354.3  "/>
	<polygon style="fill:#FFFFFF;" points="172.9,364.3 160.1,364.3 161.6,354.3 174.1,354.3  "/>
	<polygon style="fill:#FFFFFF;" points="197.5,364.3 184.7,364.3 185.7,354.3 198.3,354.3  "/>
	<polygon style="fill:#FFFFFF;" points="222,364.3 209.2,364.3 209.9,354.3 222.5,354.3  "/>
	<polygon style="fill:#FFFFFF;" points="246.6,364.3 233.8,364.3 234.1,354.3 246.7,354.3  "/>
	<polygon style="fill:#FFFFFF;" points="271.2,364.3 258.4,364.3 258.3,354.3 270.9,354.3  "/>
	<polygon style="fill:#FFFFFF;" points="295.8,364.3 283,364.3 282.5,354.3 295.1,354.3  "/>
	<polygon style="fill:#FFFFFF;" points="320.3,364.3 307.5,364.3 306.7,354.3 319.3,354.3  "/>
	<polygon style="fill:#FFFFFF;" points="344.9,364.3 332.1,364.3 330.9,354.3 343.4,354.3  "/>
	<polygon style="fill:#FFFFFF;" points="369.5,364.3 356.7,364.3 355,354.3 367.6,354.3  "/>
	<polygon style="fill:#FFFFFF;" points="145.2,382.9 132.1,382.9 134,372.3 147,372.3  "/>
	<polygon style="fill:#FFFFFF;" points="170.5,382.9 157.4,382.9 158.9,372.3 171.9,372.3  "/>
	<polygon style="fill:#FFFFFF;" points="195.8,382.9 182.7,382.9 183.8,372.3 196.8,372.3  "/>
	<polygon style="fill:#FFFFFF;" points="221.1,382.9 208,382.9 208.7,372.3 221.6,372.3  "/>
	<polygon style="fill:#FFFFFF;" points="246.4,382.9 233.3,382.9 233.6,372.3 246.5,372.3  "/>
	<polygon style="fill:#FFFFFF;" points="297,382.9 283.9,382.9 283.4,372.3 296.3,372.3  "/>
	<polygon style="fill:#FFFFFF;" points="347.6,382.9 334.5,382.9 333.1,372.3 346.1,372.3  "/>
	<polygon style="fill:#FFFFFF;" points="142,402.6 128.4,402.6 130.5,391.3 143.9,391.3  "/>
	<polygon style="fill:#FFFFFF;" points="168.1,402.6 154.5,402.6 156.2,391.3 169.5,391.3  "/>
	<polygon style="fill:#FFFFFF;" points="181.8,391.3 180.6,402.6 246.3,402.6 246.4,391.3  "/>
	<polygon style="fill:#FFFFFF;" points="272.3,402.6 258.7,402.6 258.6,391.3 272,391.3  "/>
	<polygon style="fill:#FFFFFF;" points="298.4,402.6 284.8,402.6 284.3,391.3 297.6,391.3  "/>
	<polygon style="fill:#FFFFFF;" points="324.4,402.6 310.9,402.6 309.9,391.3 323.2,391.3  "/>
	<polygon style="fill:#FFFFFF;" points="350.5,402.6 336.9,402.6 335.5,391.3 348.8,391.3  "/>
	<polygon style="fill:#FFFFFF;" points="358,372.3 363,402.6 376.6,402.6 371,372.3  "/>
</g>
<g>
</g>
<g>
</g>
<g>
</g>
<g>
</g>
<g>
</g>
<g>
</g>
<g>
</g>
<g>
</g>
<g>
</g>
<g>
</g>
<g>
</g>
<g>
</g>
<g>
</g>
<g>
</g>
<g>
</g>
</svg>
