<?xml version="1.0" encoding="iso-8859-1"?>
<!-- Generator: Adobe Illustrator 19.0.0, SVG Export Plug-In . SVG Version: 6.00 Build 0)  -->
<svg xmlns="http://www.w3.org/2000/svg" xmlns:xlink="http://www.w3.org/1999/xlink" version="1.1" id="Layer_1" x="0px" y="0px" viewBox="0 0 505 505" style="enable-background:new 0 0 505 505;" xml:space="preserve">
<circle style="fill:#90DFAA;" cx="252.5" cy="252.5" r="252.5"/>
<rect x="170.2" y="89.4" style="fill:#FFFFFF;" width="164.7" height="168.2"/>
<path style="fill:#FF7058;" d="M387.4,231.1h-15.9c-1.3,0-2.3,1-2.3,2.3v12.8H135.8v-12.8c0-1.3-1-2.3-2.3-2.3h-15.9  c-1.3,0-2.3,1-2.3,2.3v41.5c0,1.3,1,2.3,2.3,2.3h15.9c1.3,0,2.3-1,2.3-2.3v-12.8h233.4v12.8c0,1.3,1,2.3,2.3,2.3h15.9  c1.3,0,2.3-1,2.3-2.3v-41.5C389.7,232.2,388.7,231.1,387.4,231.1z"/>
<path style="fill:#2B3B4E;" d="M304.4,215.4c-8.5,16.4-28.6,27.9-51.9,27.9c-23.4,0-43.4-11.5-51.9-27.9h-50.7V273h205.3v-57.6  H304.4z"/>
<polygon style="fill:#324A5E;" points="372,397.3 133.1,397.3 149.9,273 355.2,273 "/>
<g>
	<path style="fill:#E6E9EE;" d="M181.7,293.7h-12.2c-1.4,0-2.6,1-2.8,2.2l-1.2,10.7c-0.1,1.2,0.9,2.3,2.3,2.3h12.4   c1.4,0,2.7-1,2.8-2.3l0.9-10.7C184.1,294.7,183.1,293.7,181.7,293.7z"/>
	<path style="fill:#E6E9EE;" d="M220.2,293.7H208c-1.4,0-2.6,1-2.7,2.2l-0.6,10.7c-0.1,1.2,1,2.3,2.4,2.3h12.4c1.4,0,2.6-1,2.7-2.3   l0.4-10.7C222.6,294.7,221.6,293.7,220.2,293.7z"/>
	<path style="fill:#E6E9EE;" d="M258.6,293.7h-12.2c-1.4,0-2.5,1-2.6,2.2l-0.1,10.7c0,1.2,1.1,2.3,2.6,2.3h12.4c1.4,0,2.6-1,2.6-2.3   l-0.1-10.7C261.2,294.7,260,293.7,258.6,293.7z"/>
	<path style="fill:#E6E9EE;" d="M297.1,293.7h-12.2c-1.4,0-2.5,1-2.4,2.2l0.4,10.7c0,1.2,1.2,2.3,2.7,2.3H298c1.4,0,2.5-1,2.4-2.3   l-0.6-10.7C299.7,294.7,298.5,293.7,297.1,293.7z"/>
	<path style="fill:#E6E9EE;" d="M335.5,293.7h-12.2c-1.4,0-2.4,1-2.3,2.2l0.9,10.7c0.1,1.2,1.4,2.3,2.8,2.3h12.4   c1.4,0,2.5-1,2.3-2.3l-1.2-10.7C338.2,294.7,336.9,293.7,335.5,293.7z"/>
	<path style="fill:#E6E9EE;" d="M176.3,353.3h-13.1c-1.5,0-2.8,1.1-3,2.5l-1.4,12.4c-0.2,1.4,1,2.6,2.5,2.6h13.4   c1.5,0,2.9-1.2,3-2.6l1.1-12.4C178.9,354.4,177.8,353.3,176.3,353.3z"/>
	<path style="fill:#E6E9EE;" d="M217.7,353.3h-13.1c-1.5,0-2.8,1.1-2.9,2.5l-0.7,12.4c-0.1,1.4,1.1,2.6,2.6,2.6H217   c1.5,0,2.8-1.2,2.9-2.6l0.5-12.4C220.4,354.4,219.2,353.3,217.7,353.3z"/>
	<path style="fill:#E6E9EE;" d="M259.1,353.3H246c-1.5,0-2.7,1.1-2.7,2.5l-0.1,12.4c0,1.4,1.2,2.6,2.7,2.6h13.4   c1.5,0,2.8-1.2,2.7-2.6l-0.1-12.4C261.8,354.4,260.6,353.3,259.1,353.3z"/>
	<path style="fill:#E6E9EE;" d="M300.5,353.3h-13.1c-1.5,0-2.7,1.1-2.6,2.5l0.5,12.4c0.1,1.4,1.3,2.6,2.9,2.6h13.3   c1.5,0,2.7-1.2,2.6-2.6l-0.7-12.4C303.3,354.4,302,353.3,300.5,353.3z"/>
	<path style="fill:#E6E9EE;" d="M341.9,353.3h-13.1c-1.5,0-2.6,1.1-2.5,2.5l1.1,12.4c0.1,1.4,1.5,2.6,3,2.6h13.4   c1.5,0,2.6-1.2,2.5-2.6l-1.4-12.4C344.7,354.4,343.4,353.3,341.9,353.3z"/>
	<path style="fill:#E6E9EE;" d="M199,322.4h-12.6c-1.4,0-2.7,1.1-2.8,2.4l-1,11.5c-0.1,1.3,1,2.4,2.5,2.4H198c1.5,0,2.7-1.1,2.8-2.4   l0.7-11.5C201.6,323.5,200.5,322.4,199,322.4z"/>
	<path style="fill:#E6E9EE;" d="M238.9,322.4h-12.6c-1.4,0-2.7,1.1-2.7,2.4l-0.4,11.5c0,1.3,1.1,2.4,2.6,2.4h12.9   c1.5,0,2.7-1.1,2.7-2.4l0.2-11.5C241.5,323.5,240.4,322.4,238.9,322.4z"/>
	<path style="fill:#E6E9EE;" d="M278.8,322.4h-12.6c-1.4,0-2.6,1.1-2.6,2.4l0.2,11.5c0,1.3,1.2,2.4,2.7,2.4h12.9   c1.5,0,2.6-1.1,2.6-2.4l-0.4-11.5C281.4,323.5,280.2,322.4,278.8,322.4z"/>
	<path style="fill:#E6E9EE;" d="M318.6,322.4H306c-1.4,0-2.6,1.1-2.5,2.4l0.7,11.5c0.1,1.3,1.3,2.4,2.8,2.4h12.9   c1.5,0,2.6-1.1,2.5-2.4l-1-11.5C321.3,323.5,320.1,322.4,318.6,322.4z"/>
</g>
<polygon style="fill:#2B3B4E;" points="368.6,415.6 136.4,415.6 133.1,397.3 372,397.3 "/>
<g>
	<rect x="188.8" y="112.4" style="fill:#E6E9EE;" width="127.4" height="9.8"/>
	<rect x="188.8" y="140.1" style="fill:#E6E9EE;" width="127.4" height="9.8"/>
	<rect x="188.8" y="167.7" style="fill:#E6E9EE;" width="127.4" height="9.8"/>
	<rect x="188.8" y="195.4" style="fill:#E6E9EE;" width="127.4" height="9.8"/>
</g>
<g>
</g>
<g>
</g>
<g>
</g>
<g>
</g>
<g>
</g>
<g>
</g>
<g>
</g>
<g>
</g>
<g>
</g>
<g>
</g>
<g>
</g>
<g>
</g>
<g>
</g>
<g>
</g>
<g>
</g>
</svg>
