<?xml version="1.0" encoding="iso-8859-1"?>
<!-- Generator: Adobe Illustrator 19.0.0, SVG Export Plug-In . SVG Version: 6.00 Build 0)  -->
<svg xmlns="http://www.w3.org/2000/svg" xmlns:xlink="http://www.w3.org/1999/xlink" version="1.1" id="Layer_1" x="0px" y="0px" viewBox="0 0 505 505" style="enable-background:new 0 0 505 505;" xml:space="preserve">
<circle style="fill:#84DBFF;" cx="252.5" cy="252.5" r="252.5"/>
<g>
	<path style="fill:#324A5E;" d="M252.5,422.4c-93.7,0-169.9-76.2-169.9-169.9S158.8,82.6,252.5,82.6s169.9,76.2,169.9,169.9   S346.2,422.4,252.5,422.4z M252.5,106.1c-80.7,0-146.4,65.7-146.4,146.4s65.7,146.4,146.4,146.4s146.4-65.7,146.4-146.4   S333.2,106.1,252.5,106.1z"/>
	<path style="fill:#324A5E;" d="M252.5,348.2c-52.8,0-95.7-42.9-95.7-95.7s42.9-95.7,95.7-95.7s95.7,42.9,95.7,95.7   S305.3,348.2,252.5,348.2z M252.5,180.3c-39.8,0-72.2,32.4-72.2,72.2s32.4,72.2,72.2,72.2s72.2-32.4,72.2-72.2   S292.3,180.3,252.5,180.3z"/>
</g>
<g>
	<rect x="240.8" y="49.6" style="fill:#FF7058;" width="23.4" height="163.4"/>
	<rect x="240.8" y="292" style="fill:#FF7058;" width="23.4" height="163.4"/>
	<rect x="292" y="240.8" style="fill:#FF7058;" width="163.4" height="23.4"/>
	<rect x="49.6" y="240.8" style="fill:#FF7058;" width="163.4" height="23.4"/>
</g>
<g>
</g>
<g>
</g>
<g>
</g>
<g>
</g>
<g>
</g>
<g>
</g>
<g>
</g>
<g>
</g>
<g>
</g>
<g>
</g>
<g>
</g>
<g>
</g>
<g>
</g>
<g>
</g>
<g>
</g>
</svg>
