<?xml version="1.0" encoding="iso-8859-1"?>
<!-- Generator: Adobe Illustrator 19.0.0, SVG Export Plug-In . SVG Version: 6.00 Build 0)  -->
<svg xmlns="http://www.w3.org/2000/svg" xmlns:xlink="http://www.w3.org/1999/xlink" version="1.1" id="Layer_1" x="0px" y="0px" viewBox="0 0 505 505" style="enable-background:new 0 0 505 505;" xml:space="preserve">
<circle style="fill:#84DBFF;" cx="252.5" cy="252.5" r="252.5"/>
<g>
	<path style="fill:#FFFFFF;" d="M448.4,195.4c-5.5-9.7-15.4-5-23.5-7.3c-3.3-1-6.4-3.1-9.6-4.4c-4.8-1.9-9.9-1.9-14.9-1.8   c-20.7,0.3-41.5,1.8-61.9-1.7c-6.4-1.1-12.9-2.7-19.3-1.2c-6.9,1.6-13.5,6.9-20.5,5.8c-0.7,4.9-7.4,7.6-11.4,6.5s-7.5-4.2-11.3-6.1   c-10-4.8-22.3,1.3-27.6,12.2c-1.7,3.5-0.7,7.9,2.3,9.9l0,0c4.2,2.9,9.5-0.6,9.4-6.4c0-1.6-0.2-3.1-0.4-4.7c2.4-1,4.9-1.2,7.4-0.6   c3.9,11.6-5,26.4-15.3,25.5c-4.5-0.4-8.8-3.1-13.3-2.4c-4.5,0.7-8.3,8-4.8,11.4c-1.5,1-3,1.7-4.6,2.2c-5,1.6-6.4,9.7-1.9,12.7   c1.2,0.8,2.5,1,3.9,0.3c1.3-0.6,2.3-1.9,3.3-3.1c3-3.8,6-7.6,9-11.4c6.9,1.8,13.2,6,19.2,10.7c2.5,1.9,5.5,1.8,8.2,0.3   c1.4-0.8,3.2-0.7,4.3,0.7c4.1,0.2,7.7,4.5,8.1,9.4c-8.5,3.5-17.8,7-26.1,3.1c-4.1-1.9-7.7-5.6-12-6c-8-0.8-14.6,9.4-22.6,8.4   c-5.2,9.1-10.6,18.6-10.2,30.2c0.1,3.6,1,7.1,2.6,10.1c5.6,10.7,14,8,21.7,8.6c5.3,0.4,11.4,3.6,12.1,10c0.3,2.6-0.4,5.3,0.1,7.8   c0.3,1.8,1.2,3.4,1.9,5c2.3,5.3,2.8,11.4,3,17.4c0.3,8.7,0,17.6,1.9,26c0.8,3.6,2.3,7,4.3,9.9c4.2,6.2,12.2,6.2,16.6,0.2l2.5-3.3   c1.1-1.5,2.3-3.1,2.8-5.1c0.5-1.7,0.4-3.6,0.7-5.4c1.3-8.6,10-13.3,11.6-21.8c0.9-4.9-0.7-10.1,0.3-15c1-4.8,4.2-8.3,7.3-11.5   c3-3.3,6.2-7,6.9-11.8c0.6-4.8-2.8-10.6-6.8-9.4c-7.6-11-13.7-23.4-18.1-36.6c2.4-1,1.5-0.7,4-1.7c5.3,9.9,11.5,19,18.5,27.4   c1.2,0.7,2.4,1,3.6,0.8c6-0.7,8.2-10.7,3.4-15.1c-3.3-3.1,18-7.6,25.5,3.3c0.2,0.3,0.4,0.6,0.6,0.8c4.5,7,12.2,10.4,19.2,7.4   c1.4-0.6,1.9-1.3,2.4-1.9c3.4-4.2,8-8.8,12.6-6.7c2.6,1.1,4.2,4.1,5.6,6.9c2.1,4.6-0.3-1.6,2.6,2.3c0,0,8.7,5.1,7.7-1.1   c-0.7-4.5,5.3-1.6,3.5-5.7c5.1,0.6,10.5-0.9,14.1-5.1c3.7-4.2,5.2-11.4,2.7-16.7c-2.4-5.2-8.3-10.2-5.8-15.3   c5.4-2.4,7.8-4.8,9.7,1.8c3.2-1.1,4-0.9,4.9-4.7c0.4-1.8,1.8-2.9,2.9-4.2c4-5,2.6-14.6-2.6-17.6c-2.1-1.2-4.5-1.4-6.5-2.6   c-2.1-1.2-3.9-4-3-6.6c5.3-2.5,10.7-5,16-7.5c1.4-0.6,2.8-1.3,4.3-1.3c5.1,0.1,7.3,1.7,8.5,7.7c1.2-2.2,1.9,0.7,1.3-1.8   c1.5-0.9,3.1-1.5,4.8-1.6C445.8,200.1,446.4,199.1,448.4,195.4z"/>
	<path style="fill:#FFFFFF;" d="M158.1,427.6c1.2-8,0.5-16.4-1.8-24c3.9-1.7,6-7.9,4.1-12.3c4.3-0.5,8.1-4.7,8.8-9.7   c0.3-2.2,0.2-4.7,1.1-6.6c2.5-5.2,10.6-3.3,12.5-8.9c1-2.9-0.5-6.2-0.5-9.3c-0.1-7.6,7.7-14.1,5.2-21.1c-0.9-2.4-2.8-4-4.7-5.4   c-9.6-7.4-19.1-14.9-28.7-22.3c-5.4-4.2-11.5-8.6-17.9-7.7c-5.6,0.8-11.3,5.7-16.4,2.9c0.5-3.7,0.9-7.5-0.3-11   c-1.2-3.4-4.6-6-7.4-4.3l0,0c-0.1-4.2-3.3-7.2-6.6-6.4l-4.7,1.2c-4.1-5.5-1.1-15.1,4.3-18.6s12-2.6,18.1-1.2c-1.1,1.8,1.5,4,3.2,3   c1.7-0.9,2.5-3.2,3.8-4.8c2-2.6,5-3.5,7.5-5.2c2.2-1.5,4.3-4.2,4.2-7.1c-0.2-5,1.6-9.9,5-12.7c2.1-1.7,4.4-2.8,6.8-3.5   c3.8-1.2,6.1-5,6.5-9.7c0-0.5,0.1-0.9,0.2-1.3c1-3.5,5.3-5.2,7.4-2.5c0.7,2,1.4,3.9,2.1,5.9c1,1,2.5,1.3,3.8,0.9   c0.9-2.3,1.8-4.6,2.8-6.9l-8.1-15.8c-1.7-3.3-4.7-5.5-7.9-5.1c-6.2,0.8-6.2,10.5-10.8,14.2c-4.3,3.4-10,0-14.3-3.4   c-1.9-1.5-4-4-2.9-6.4c3,2.7,5.9-4,9.4-5.1c1.7-0.5,3.4,0.3,5.1-0.1c4.7-1.1,5.8-10,10.4-11.2c5.4-1.4,10.2,8.8,15.2,5.7   c1.7-1.8,0.3-5.3-1.6-6.9c-1.8-1.6-4.2-3.1-4.5-5.9c3.9-1.1,7.5-3.5,11.4-4.2c3.9-0.8,8.6,0.5,10.4,4.8c2.2,5.2-0.6,12.1,1.9,17   c2.6,5,10.3,3.3,11.2-2.5c9.5-4.3,19.9-9.7,25.5-19.3c1.7-2.9,0.2-6.9-2.7-7.3c-10.3-1.5-20.6-2.5-31-2.9   c-7.3-0.3-14.7-0.4-21.9,1.5c-11.9,3.1-22.9,11.5-35.1,12.1c-3.2,0.1-6.6-0.2-9.5,1.5s-4.8,6.5-2.8,9.5   c-14.9-0.5-29.8-0.9-44.7-1.4c-7.7-0.2-16.5,0.1-21.4,7.3c-0.8,1.2-1.4,2.5-1.5,4c-0.1,3.9,3.9,6.1,7.1,6s6.6-1.3,9.6,0.2   c4,2,5.4,8.3,4.8,13.5s-2.7,10-3.6,15.2c-1.8,10.9,2.2,21.9,6.3,31.9c3.3,8.1,7.1,16.5,13.4,21.6c3.8,3.1,8.3,4.7,12.2,7.6   c2.2,1.6,4.2,3.9,5.4,6.6c1.9,4.1,5.3,7,9.2,7c1.6,0,3.1,0,4.7,0.1c4,6.7-3.7,15-4,23.3c-0.5,11.7,13.1,16.4,17.4,27   c1.7,4.2,1.8,9.2,2,13.9c0.8,17.7,3.8,35.3,8.9,52c0.7,2.2,1.6,4.7,3.3,5.8C155.3,431.7,157.7,430.2,158.1,427.6z"/>
</g>
<path style="fill:#FF7058;" d="M245.4,74.1c-33,0-59.8,26.8-59.8,59.8s59.8,133.7,59.8,133.7s59.8-100.7,59.8-133.7  S278.4,74.1,245.4,74.1z"/>
<circle style="fill:#E6E9EE;" cx="245.4" cy="133.9" r="35.4"/>
<g>
</g>
<g>
</g>
<g>
</g>
<g>
</g>
<g>
</g>
<g>
</g>
<g>
</g>
<g>
</g>
<g>
</g>
<g>
</g>
<g>
</g>
<g>
</g>
<g>
</g>
<g>
</g>
<g>
</g>
</svg>
