<?xml version="1.0" encoding="iso-8859-1"?>
<!-- Generator: Adobe Illustrator 19.0.0, SVG Export Plug-In . SVG Version: 6.00 Build 0)  -->
<svg xmlns="http://www.w3.org/2000/svg" xmlns:xlink="http://www.w3.org/1999/xlink" version="1.1" id="Layer_1" x="0px" y="0px" viewBox="0 0 505 505" style="enable-background:new 0 0 505 505;" xml:space="preserve">
<circle style="fill:#324A5E;" cx="252.5" cy="252.5" r="252.5"/>
<circle style="fill:#4CDBC4;" cx="313.9" cy="201" r="115.9"/>
<g>
	<path style="fill:#2C9984;" d="M360,115c-4.1-0.7-8.2-1.7-12.2-0.7c-4.4,1-8.5,4.4-13,3.7c-0.4,3.1-4.7,4.8-7.2,4.1   c-2.6-0.7-4.7-2.7-7.2-3.9c-6.3-3.1-14.1,0.8-17.5,7.7c-1.1,2.2-0.4,5,1.4,6.3l0,0c2.7,1.8,6-0.4,5.9-4.1c0-1-0.1-2-0.2-3   c1.5-0.6,3.1-0.7,4.7-0.4c2.5,7.4-3.1,16.7-9.7,16.2c-2.8-0.2-5.6-2-8.4-1.5c-2.8,0.4-5.3,5.1-3,7.2c-0.9,0.6-1.9,1.1-2.9,1.4   c-3.1,1-4.1,6.2-1.2,8.1c0.7,0.5,1.6,0.6,2.5,0.2c0.8-0.4,1.5-1.2,2.1-2c1.9-2.4,3.8-4.8,5.7-7.3c4.4,1.2,8.4,3.8,12.2,6.8   c1.6,1.2,3.5,1.1,5.2,0.2c0.9-0.5,2-0.5,2.7,0.4c2.6,0.1,4.9,2.8,5.1,5.9c-5.4,2.2-11.3,4.4-16.6,1.9c-2.6-1.2-4.9-3.5-7.6-3.8   c-5.1-0.5-9.3,5.9-14.3,5.3c-3.3,5.8-6.7,11.8-6.5,19.2c0.1,2.3,0.6,4.5,1.6,6.4c3.6,6.8,8.9,5.1,13.8,5.4c3.3,0.3,7.2,2.3,7.7,6.3   c0.2,1.6-0.3,3.3,0,5c0.2,1.1,0.8,2.1,1.2,3.2c1.5,3.4,1.8,7.3,1.9,11c0.2,5.5,0,11.2,1.2,16.5c0.5,2.3,1.5,4.4,2.7,6.3   c2.7,4,7.7,3.9,10.5,0.1l1.6-2.1c0.7-1,1.5-2,1.8-3.2c0.3-1.1,0.3-2.3,0.4-3.4c0.8-5.5,6.3-8.4,7.3-13.8c0.6-3.1-0.5-6.4,0.2-9.5   c0.6-3,2.7-5.2,4.6-7.3s3.9-4.4,4.3-7.5s-1.8-6.7-4.3-6c-4.8-6.9-8.7-14.8-11.5-23.2c1.5-0.7,1-0.4,2.5-1.1   c3.4,6.3,7.3,12.1,11.7,17.3c0.7,0.5,1.5,0.6,2.3,0.5c3.8-0.5,5.2-6.8,2.1-9.6c-2.1-2,11.4-4.8,16.1,2.1c0.1,0.2,0.2,0.4,0.4,0.5   c2.9,4.5,7.7,6.6,12.1,4.7c0.9-0.4,1.2-0.8,1.5-1.2c2.2-2.7,5.1-5.6,8-4.3c1.6,0.7,2.7,2.6,3.5,4.4c1.3,2.9-0.2-1,1.7,1.4   c0,0,5.5,3.2,4.9-0.7c-0.5-2.8,3.3-1,2.2-3.6c3.2,0.4,6.6-0.6,9-3.2c2.3-2.7,3.3-7.2,1.7-10.6c-1.5-3.3-5.3-6.5-3.7-9.7   c3.5-1.5,4.9-3,6.2,1.2c2-0.7,2.5-0.5,3.1-3c0.3-1.1,1.1-1.8,1.8-2.6c2.6-3.2,1.6-9.3-1.7-11.2c-1.3-0.7-2.8-0.9-4.1-1.6   c-1.3-0.8-2.5-2.5-1.9-4.2c0.7-0.3,1.4-0.7,2.2-1c-4.2-5.6-8.9-10.8-14-15.6C381.9,116.6,370.9,116.9,360,115z"/>
	<path style="fill:#2C9984;" d="M205.1,183c2.4,1.9,5.3,3,7.7,4.8c1.4,1,2.6,2.5,3.4,4.2c1.2,2.6,3.3,4.4,5.8,4.4c1,0,2,0,3,0   c2.5,4.3-2.4,9.5-2.6,14.8c-0.3,7.4,8.3,10.4,11,17.1c1.1,2.7,1.2,5.8,1.3,8.8c0.5,11.2,2.4,22.4,5.7,33c0.4,1.4,1,3,2.1,3.7   c1.2,0.8,2.7-0.2,3-1.8c0.7-5.1,0.3-10.4-1.2-15.2c2.5-1.1,3.8-5,2.6-7.8c2.7-0.3,5.1-3,5.6-6.2c0.2-1.4,0.1-3,0.7-4.2   c1.6-3.3,6.7-2.1,7.9-5.6c0.6-1.9-0.3-3.9-0.3-5.9c-0.1-4.8,4.9-9,3.3-13.4c-0.6-1.5-1.8-2.5-3-3.5c-6.1-4.7-12.1-9.4-18.2-14.1   c-3.4-2.7-7.3-5.5-11.4-4.9c-3.6,0.5-7.2,3.6-10.4,1.8c0.3-2.3,0.6-4.8-0.2-6.9c-0.8-2.2-2.9-3.8-4.7-2.8c0-2.6-2.1-4.6-4.2-4   l-3,0.8c-2.6-3.5-0.7-9.6,2.7-11.8s7.6-1.7,11.5-0.7c-0.7,1.2,1,2.5,2,1.9c1.1-0.6,1.6-2,2.4-3.1c1.3-1.6,3.2-2.2,4.8-3.3   c1.4-0.9,2.7-2.7,2.7-4.5c-0.1-3.2,1-6.3,3.2-8c1.3-1.1,2.8-1.8,4.3-2.2c2.4-0.7,3.9-3.2,4.1-6.1c0-0.3,0.1-0.6,0.2-0.9   c0.6-2.2,3.4-3.3,4.7-1.6c0.4,1.3,0.9,2.5,1.3,3.8c0.7,0.6,1.6,0.9,2.4,0.6c0.6-1.5,1.2-2.9,1.8-4.4l-5.1-10c-1.1-2.1-3-3.5-5-3.3   c-3.9,0.5-3.9,6.7-6.8,9c-2.7,2.2-6.3,0-9-2.2c-1.2-0.9-2.5-2.6-1.8-4c1.9,1.7,3.7-2.5,6-3.2c1.1-0.3,2.2,0.2,3.2-0.1   c3-0.7,3.7-6.3,6.6-7.1c3.4-0.9,6.5,5.6,9.6,3.6c1.1-1.1,0.2-3.3-1-4.4c-1.2-1-2.7-2-2.8-3.7c2.5-0.7,4.7-2.2,7.2-2.7   s5.4,0.3,6.6,3c1.4,3.3-0.4,7.7,1.2,10.8c1.6,3.2,6.5,2.1,7.1-1.6c6-2.7,12.6-6.1,16.2-12.3c1.1-1.8,0.1-4.4-1.7-4.6   c-6.5-0.9-13.1-1.6-19.7-1.9c-4.6-0.2-9.3-0.2-13.9,0.9c-4.9,1.3-9.5,3.9-14.2,5.7c-19.8,16.4-34.1,39.4-39.5,65.5   C201.8,179.5,203.3,181.5,205.1,183z"/>
	<path style="fill:#2C9984;" d="M347.5,243.5c1.7-1.6,4.6-1.7,5.9-3.6c0.7-1,0.8-2.4,1.2-3.5c1.1-3.6,5.1-5.6,8.8-5.7   c3.7-0.1,7.3,1.4,10.8,2.8c3.6,1.5,7.8,4,7.7,7.9c0,2.3-1.6,4.3-3.5,5.7c-1.8,1.4-3.9,2.4-5.7,3.8c0,3.4,0,6.8-0.1,10.3   c-5.5,2.8-11.4,4.7-17.5,5.7c-4.4,0.7-9.6,0.4-12.1-3.2s-0.9-8.5,0.7-12.5c0.6-1.4,1.2-2.9,1.7-4.3   C346,245.6,346.6,244.4,347.5,243.5z"/>
</g>
<path style="fill:#E6E9EE;" d="M288.9,201H103.1c-2.3,0-4.1,1.9-4.1,4.1v148.7c0,2.3,1.9,4.1,4.1,4.1h185.8c2.3,0,4.1-1.9,4.1-4.1  V205.1C293.1,202.9,291.2,201,288.9,201z"/>
<rect x="113.2" y="215.3" style="fill:#54C0EB;" width="165.5" height="112.3"/>
<rect x="170.5" y="358" style="fill:#CED5E0;" width="51" height="25.8"/>
<rect x="143.3" y="383.9" style="fill:#E6E9EE;" width="105.5" height="20.2"/>
<circle style="fill:#FF7058;" cx="196" cy="342.8" r="5.7"/>
<g>
</g>
<g>
</g>
<g>
</g>
<g>
</g>
<g>
</g>
<g>
</g>
<g>
</g>
<g>
</g>
<g>
</g>
<g>
</g>
<g>
</g>
<g>
</g>
<g>
</g>
<g>
</g>
<g>
</g>
</svg>
