<?xml version="1.0" encoding="iso-8859-1"?>
<!-- Generator: Adobe Illustrator 19.0.0, SVG Export Plug-In . SVG Version: 6.00 Build 0)  -->
<svg xmlns="http://www.w3.org/2000/svg" xmlns:xlink="http://www.w3.org/1999/xlink" version="1.1" id="Layer_1" x="0px" y="0px" viewBox="0 0 505 505" style="enable-background:new 0 0 505 505;" xml:space="preserve">
<circle style="fill:#90DFAA;" cx="252.5" cy="252.5" r="252.5"/>
<path style="fill:#FFFFFF;" d="M387.2,259.8H117.8c-7.3,0-13.2,5.9-13.2,13.2v84.3c0,7.3,5.9,13.2,13.2,13.2h269.4  c7.3,0,13.2-5.9,13.2-13.2V273C400.4,265.7,394.5,259.8,387.2,259.8z"/>
<g>
	<rect x="320.7" y="370.4" style="fill:#2B3B4E;" width="43.4" height="18.1"/>
	<rect x="140.9" y="370.4" style="fill:#2B3B4E;" width="43.4" height="18.1"/>
</g>
<rect x="245.5" y="298" style="fill:#324A5E;" width="126.7" height="27"/>
<circle style="fill:#FF7058;" cx="140" cy="311.5" r="9.7"/>
<circle style="fill:#F9B54C;" cx="175.3" cy="311.5" r="9.7"/>
<circle style="fill:#4CDBC4;" cx="210.7" cy="311.5" r="9.7"/>
<path style="fill:#2B3B4E;" d="M175.4,125.1c-0.2-3.5-3.1-6.2-6.6-6.2s-6.4,2.7-6.6,6.2l-8.8,134.6h31L175.4,125.1z"/>
<g>
	<path style="fill:#FF7058;" d="M262.7,197l-17.2-17.1c6.2-6.2,9.7-14.5,9.7-23.3s-3.4-17.1-9.7-23.3l17.2-17.2   c10.8,10.7,16.8,25.1,16.8,40.4S273.5,186.2,262.7,197z"/>
	<path style="fill:#FF7058;" d="M299.8,234.2L282.6,217c33.3-33.3,33.3-87.6,0-120.9l17.2-17.2C342.6,121.7,342.6,191.4,299.8,234.2   z"/>
</g>
<g>
</g>
<g>
</g>
<g>
</g>
<g>
</g>
<g>
</g>
<g>
</g>
<g>
</g>
<g>
</g>
<g>
</g>
<g>
</g>
<g>
</g>
<g>
</g>
<g>
</g>
<g>
</g>
<g>
</g>
</svg>
