<?xml version="1.0" encoding="iso-8859-1"?>
<!-- Generator: Adobe Illustrator 19.0.0, SVG Export Plug-In . SVG Version: 6.00 Build 0)  -->
<svg xmlns="http://www.w3.org/2000/svg" xmlns:xlink="http://www.w3.org/1999/xlink" version="1.1" id="Layer_1" x="0px" y="0px" viewBox="0 0 505 505" style="enable-background:new 0 0 505 505;" xml:space="preserve">
<circle style="fill:#FFD05B;" cx="252.5" cy="252.5" r="252.5"/>
<path style="fill:#324A5E;" d="M327.2,143.7H151.4c-6.6,0-11.9,5.3-11.9,11.9v193.8c0,6.6,5.3,11.9,11.9,11.9h175.8  c6.6,0,11.9-5.3,11.9-11.9V155.6C339.1,149,333.7,143.7,327.2,143.7z"/>
<rect x="163.2" y="167.4" style="fill:#E6E9EE;" width="152.2" height="170.2"/>
<g>
	<path style="fill:#2B3B4E;" d="M297.9,78.7c-0.8-6.4-7.1-11.2-14.5-11.2h-88.3c-7.4,0-13.7,4.8-14.5,11.2l-8.3,65h134L297.9,78.7z"/>
	<path style="fill:#2B3B4E;" d="M297.9,426.3c-0.8,6.4-7.1,11.2-14.5,11.2h-88.3c-7.4,0-13.7-4.8-14.5-11.2l-8.3-65h134L297.9,426.3   z"/>
	<path style="fill:#2B3B4E;" d="M362.8,236h-14.7c-1.5,0-2.7,1.2-2.7,2.7v5.4h-6.3v16.8h6.3v5.4c0,1.5,1.2,2.7,2.7,2.7h14.7   c1.5,0,2.7-1.2,2.7-2.7v-27.6C365.5,237.2,364.3,236,362.8,236z"/>
	<rect x="235.5" y="176.9" style="fill:#2B3B4E;" width="7.6" height="14.9"/>
	<rect x="235.5" y="313.2" style="fill:#2B3B4E;" width="7.6" height="14.9"/>
	<rect x="292.1" y="248.7" style="fill:#2B3B4E;" width="14.9" height="7.6"/>
	<rect x="171.5" y="248.7" style="fill:#2B3B4E;" width="14.9" height="7.6"/>
</g>
<polygon style="fill:#FF7058;" points="245.5,246.3 245.5,203.5 233,203.5 233,246.3 233,254.3 233,258.7 276.2,258.7 276.2,246.3   "/>
<g>
</g>
<g>
</g>
<g>
</g>
<g>
</g>
<g>
</g>
<g>
</g>
<g>
</g>
<g>
</g>
<g>
</g>
<g>
</g>
<g>
</g>
<g>
</g>
<g>
</g>
<g>
</g>
<g>
</g>
</svg>
