<?xml version="1.0" encoding="iso-8859-1"?>
<!-- Generator: Adobe Illustrator 19.0.0, SVG Export Plug-In . SVG Version: 6.00 Build 0)  -->
<svg xmlns="http://www.w3.org/2000/svg" xmlns:xlink="http://www.w3.org/1999/xlink" version="1.1" id="Layer_1" x="0px" y="0px" viewBox="0 0 505 505" style="enable-background:new 0 0 505 505;" xml:space="preserve">
<circle style="fill:#FD8469;" cx="252.5" cy="252.5" r="252.5"/>
<g>
	<path style="fill:#324A5E;" d="M440.1,205.4c-3.4-25.6-23.1-45.2-46.8-45.2c-23.7,0-43.3,19.6-46.8,45.2c-0.5,3.6,2.4,6.8,6.1,6.8   H434C437.7,212.3,440.6,209,440.1,205.4z"/>
	<path style="fill:#324A5E;" d="M64.9,205.4c3.4-25.6,23.1-45.2,46.8-45.2s43.3,19.6,46.8,45.2c0.5,3.6-2.4,6.8-6.1,6.8H70.9   C67.3,212.3,64.4,209,64.9,205.4z"/>
	<path style="fill:#324A5E;" d="M377.2,366.6l-32.7-139.4c-0.7-3.5-3.7-6-7.1-6H167.6c-3.4,0-6.4,2.5-7.1,6l-32.7,139.3   c-0.8,4.6,2.8,8.7,7.4,8.7h234.6C374.4,375.3,378,371.1,377.2,366.6z"/>
</g>
<g>
	<rect x="312.4" y="375.3" style="fill:#2B3B4E;" width="44.1" height="18.6"/>
	<rect x="148.5" y="375.3" style="fill:#2B3B4E;" width="44.1" height="18.6"/>
</g>
<path style="fill:#324A5E;" d="M336.8,162.1H168.2c-0.8,0-1.4-0.6-1.4-1.4v-48.2c0-0.8,0.6-1.4,1.4-1.4h168.6c0.8,0,1.4,0.6,1.4,1.4  v48.3C338.2,161.5,337.5,162.1,336.8,162.1z"/>
<g>
	<path style="fill:#E6E9ED;" d="M402.5,168h-19c0-12.1-9.8-21.9-21.9-21.9h-23.4v-19h23.4C384.1,127.1,402.5,145.5,402.5,168z"/>
	<path style="fill:#E6E9ED;" d="M102.5,168h19c0-12.1,9.8-21.9,21.9-21.9h23.4v-19h-23.4C120.9,127.1,102.5,145.5,102.5,168z"/>
</g>
<circle style="fill:#4CDBC4;" cx="252.5" cy="298.3" r="51.2"/>
<g>
	<circle style="fill:#FFFFFF;" cx="252.5" cy="265.8" r="7.1"/>
	<circle style="fill:#FFFFFF;" cx="252.5" cy="330.7" r="7.1"/>
	<circle style="fill:#FFFFFF;" cx="284.9" cy="298.3" r="7.1"/>
	<circle style="fill:#FFFFFF;" cx="220.1" cy="298.3" r="7.1"/>
	<circle style="fill:#FFFFFF;" cx="275.4" cy="275.3" r="7.1"/>
	<circle style="fill:#FFFFFF;" cx="229.6" cy="321.2" r="7.1"/>
	<circle style="fill:#FFFFFF;" cx="275.4" cy="321.2" r="7.1"/>
	<circle style="fill:#FFFFFF;" cx="229.6" cy="275.3" r="7.1"/>
</g>
<g>
	<rect x="81.3" y="158.3" style="fill:#2B3B4E;" width="60.8" height="14.2"/>
	<rect x="362.9" y="158.3" style="fill:#2B3B4E;" width="60.8" height="14.2"/>
</g>
<path style="fill:#E6E9ED;" d="M287.2,132.7c-5.2,0-9.5,4.2-9.5,9.5V171h-25.2h-25.2v-28.8c0-5.2-4.2-9.5-9.5-9.5  c-5.2,0-9.5,4.2-9.5,9.5v38.3c0,5.2,4.2,9.5,9.5,9.5H243v14.1l0,0c0,5.2,4.2,9.5,9.5,9.5c5.2,0,9.5-4.2,9.5-9.5l0,0V190h25.2  c5.2,0,9.5-4.2,9.5-9.5v-38.3C296.7,137,292.4,132.7,287.2,132.7z"/>
<path style="fill:#2B3B4E;" d="M305,208.2c-0.1-2.3-1.9-4.1-4.2-4.1h-96.7c-2.3,0-4.1,1.8-4.2,4.1l-0.3,13.1h105.7L305,208.2z"/>
<g>
</g>
<g>
</g>
<g>
</g>
<g>
</g>
<g>
</g>
<g>
</g>
<g>
</g>
<g>
</g>
<g>
</g>
<g>
</g>
<g>
</g>
<g>
</g>
<g>
</g>
<g>
</g>
<g>
</g>
</svg>
