<?xml version="1.0" encoding="iso-8859-1"?>
<!-- Generator: Adobe Illustrator 19.0.0, SVG Export Plug-In . SVG Version: 6.00 Build 0)  -->
<svg xmlns="http://www.w3.org/2000/svg" xmlns:xlink="http://www.w3.org/1999/xlink" version="1.1" id="Layer_1" x="0px" y="0px" viewBox="0 0 505 505" style="enable-background:new 0 0 505 505;" xml:space="preserve">
<circle style="fill:#FD8469;" cx="252.5" cy="252.5" r="252.5"/>
<path style="fill:#FFFFFF;" d="M340.1,109.4v11.7c3.9,1.5,6.6,5.2,6.6,9.6c0,5.7-4.6,10.4-10.4,10.4s-10.4-4.6-10.4-10.4  c0-4.4,2.7-8.1,6.6-9.6v-11.7h-34.4v11.7c3.9,1.5,6.6,5.2,6.6,9.6c0,5.7-4.6,10.4-10.4,10.4s-10.4-4.6-10.4-10.4  c0-4.4,2.7-8.1,6.6-9.6v-11.7h-34.4v11.7c3.9,1.5,6.6,5.2,6.6,9.6c0,5.7-4.6,10.4-10.4,10.4c-5.7,0-10.4-4.6-10.4-10.4  c0-4.4,2.7-8.1,6.6-9.6v-11.7h-34.4v11.7c3.9,1.5,6.6,5.2,6.6,9.6c0,5.7-4.6,10.4-10.4,10.4c-5.7,0-10.4-4.6-10.4-10.4  c0-4.4,2.7-8.1,6.6-9.6v-11.7h-34.4v11.7c3.9,1.5,6.6,5.2,6.6,9.6c0,5.7-4.6,10.4-10.4,10.4c-5.7,0-10.4-4.6-10.4-10.4  c0-4.4,2.7-8.1,6.6-9.6v-11.7H130v286.2h244.2V109.4H340.1z"/>
<rect x="130.4" y="167.2" style="fill:#4CDBC4;" width="244.2" height="13"/>
<g>
	<rect x="130.4" y="210.4" style="fill:#E6E9EE;" width="244.2" height="15.1"/>
	<rect x="130.4" y="255.4" style="fill:#E6E9EE;" width="244.2" height="15.1"/>
	<rect x="130.4" y="300.3" style="fill:#E6E9EE;" width="244.2" height="15.1"/>
	<rect x="130.4" y="345.3" style="fill:#E6E9EE;" width="244.2" height="15.1"/>
</g>
<g>
</g>
<g>
</g>
<g>
</g>
<g>
</g>
<g>
</g>
<g>
</g>
<g>
</g>
<g>
</g>
<g>
</g>
<g>
</g>
<g>
</g>
<g>
</g>
<g>
</g>
<g>
</g>
<g>
</g>
</svg>
