<?xml version="1.0" encoding="iso-8859-1"?>
<!-- Generator: Adobe Illustrator 19.0.0, SVG Export Plug-In . SVG Version: 6.00 Build 0)  -->
<svg xmlns="http://www.w3.org/2000/svg" xmlns:xlink="http://www.w3.org/1999/xlink" version="1.1" id="Layer_1" x="0px" y="0px" viewBox="0 0 505 505" style="enable-background:new 0 0 505 505;" xml:space="preserve">
<circle style="fill:#FFD05B;" cx="252.5" cy="252.5" r="252.5"/>
<path style="fill:#324A5E;" d="M421.4,347L403,138.2H252.5H101.9L83.6,347H214c6,10.3,20.9,17.6,38.5,17.6S285,357.3,291,347H421.4z  "/>
<path style="fill:#E6E9EE;" d="M380.3,317.7c-42.2-5.9-85.9,0.6-127.9,19.2c0-72.2,0-139.5,0-202.6c38-15.2,77.6-20.6,115.7-15.7  C372,180.5,376,246.8,380.3,317.7z"/>
<g>
	<path style="fill:#4CDBC4;" d="M352.7,146.1c-27.5-1.4-55.5,2.5-82.9,11.4c0-2.6,0-5.1-0.1-7.7c27.3-8.8,55.2-12.7,82.6-11.3   C352.4,141,352.5,143.6,352.7,146.1z"/>
	<path style="fill:#4CDBC4;" d="M354.1,173.3c-27.9-1.4-56.3,2.6-84.1,11.7c0-2.6,0-5.3-0.1-7.9c27.7-9.1,56-13,83.7-11.6   C353.8,168.1,354,170.7,354.1,173.3z"/>
	<path style="fill:#4CDBC4;" d="M355.5,201.3c-28.3-1.4-57.1,2.6-85.3,12.1c0-2.7,0-5.4-0.1-8.1c28.1-9.4,56.8-13.4,84.9-12   C355.3,195.9,355.4,198.6,355.5,201.3z"/>
	<path style="fill:#4CDBC4;" d="M357,230c-28.7-1.5-57.9,2.7-86.5,12.4c0-2.8-0.1-5.6-0.1-8.4c28.5-9.6,57.6-13.8,86.2-12.3   C356.8,224.5,356.9,227.3,357,230z"/>
	<path style="fill:#4CDBC4;" d="M358.6,259.7c-29.1-1.5-58.8,2.8-87.8,12.8c0-2.9-0.1-5.7-0.1-8.6c28.9-9.9,58.4-14.2,87.4-12.7   C358.3,254,358.4,256.8,358.6,259.7z"/>
	<path style="fill:#4CDBC4;" d="M360.2,290.2c-29.6-1.6-59.6,2.9-89.1,13.2c0-3-0.1-5.9-0.1-8.9c29.3-10.2,59.3-14.6,88.7-13.1   C359.9,284.3,360,287.3,360.2,290.2z"/>
</g>
<path style="fill:#FFFFFF;" d="M124.7,317.7c42.2-5.9,85.9,0.6,127.9,19.2c0-72.2,0-139.5,0-202.6c-38-15.2-77.6-20.6-115.7-15.7  C133,180.5,129,246.8,124.7,317.7z"/>
<g>
	<path style="fill:#4CDBC4;" d="M152.3,146.1c27.5-1.4,55.5,2.5,82.9,11.4c0-2.6,0-5.1,0.1-7.7c-27.3-8.8-55.2-12.7-82.6-11.3   C152.6,141,152.5,143.6,152.3,146.1z"/>
	<path style="fill:#4CDBC4;" d="M150.9,173.3c27.9-1.4,56.3,2.6,84.1,11.7c0-2.6,0-5.3,0.1-7.9c-27.7-9.1-56-13-83.7-11.6   C151.2,168.1,151,170.7,150.9,173.3z"/>
	<path style="fill:#4CDBC4;" d="M149.5,201.3c28.3-1.4,57.1,2.6,85.3,12.1c0-2.7,0-5.4,0.1-8.1c-28.1-9.4-56.8-13.4-84.9-12   C149.7,195.9,149.6,198.6,149.5,201.3z"/>
	<path style="fill:#4CDBC4;" d="M148,230c28.7-1.5,57.9,2.7,86.5,12.4c0-2.8,0-5.6,0.1-8.4c-28.5-9.6-57.6-13.8-86.2-12.3   C148.2,224.5,148.1,227.3,148,230z"/>
	<path style="fill:#4CDBC4;" d="M146.4,259.7c29.1-1.5,58.8,2.8,87.8,12.8c0-2.9,0.1-5.7,0.1-8.6c-28.9-9.9-58.4-14.2-87.4-12.7   C146.7,254,146.6,256.8,146.4,259.7z"/>
	<path style="fill:#4CDBC4;" d="M144.8,290.2c29.6-1.6,59.6,2.9,89.1,13.2c0-3,0.1-5.9,0.1-8.9c-29.3-10.2-59.3-14.6-88.7-13.1   C145.1,284.3,145,287.3,144.8,290.2z"/>
</g>
<g>
</g>
<g>
</g>
<g>
</g>
<g>
</g>
<g>
</g>
<g>
</g>
<g>
</g>
<g>
</g>
<g>
</g>
<g>
</g>
<g>
</g>
<g>
</g>
<g>
</g>
<g>
</g>
<g>
</g>
</svg>
