<?xml version="1.0" encoding="iso-8859-1"?>
<!-- Generator: Adobe Illustrator 19.0.0, SVG Export Plug-In . SVG Version: 6.00 Build 0)  -->
<svg xmlns="http://www.w3.org/2000/svg" xmlns:xlink="http://www.w3.org/1999/xlink" version="1.1" id="Layer_1" x="0px" y="0px" viewBox="0 0 505 505" style="enable-background:new 0 0 505 505;" xml:space="preserve">
<circle style="fill:#84DBFF;" cx="252.5" cy="252.5" r="252.5"/>
<path style="fill:#FFFFFF;" d="M367.7,106.6H137.3c-6.6,0-11.9,5.3-11.9,11.9v268c0,6.6,5.3,11.9,11.9,11.9h230.5  c6.6,0,11.9-5.3,11.9-11.9v-268C379.6,111.9,374.3,106.6,367.7,106.6z"/>
<path style="fill:#324A5E;" d="M379.6,224.4V118.5c0-6.6-5.3-11.9-11.9-11.9H137.3c-6.6,0-11.9,5.3-11.9,11.9v105.9H379.6z"/>
<rect x="154.3" y="135" style="fill:#E6E9EE;" width="196.5" height="60.5"/>
<g>
	<polygon style="fill:#324A5E;" points="208.2,267.9 188,267.9 188,247.6 174.5,247.6 174.5,267.9 154.3,267.9 154.3,281.3    174.5,281.3 174.5,301.6 188,301.6 188,281.3 208.2,281.3  "/>
	<polygon style="fill:#324A5E;" points="201.9,338.9 192.4,329.4 178.1,343.7 163.8,329.4 154.3,338.9 168.6,353.2 154.3,367.5    163.8,377.1 178.1,362.8 192.4,377.1 201.9,367.5 187.6,353.2  "/>
	<rect x="283" y="267.9" style="fill:#324A5E;" width="53.9" height="13.5"/>
</g>
<g>
	<rect x="293.2" y="332.8" style="fill:#FF7058;" width="53.9" height="13.5"/>
	<rect x="293.2" y="360.2" style="fill:#FF7058;" width="53.9" height="13.5"/>
</g>
<g>
</g>
<g>
</g>
<g>
</g>
<g>
</g>
<g>
</g>
<g>
</g>
<g>
</g>
<g>
</g>
<g>
</g>
<g>
</g>
<g>
</g>
<g>
</g>
<g>
</g>
<g>
</g>
<g>
</g>
</svg>
