<?xml version="1.0" encoding="iso-8859-1"?>
<!-- Generator: Adobe Illustrator 19.0.0, SVG Export Plug-In . SVG Version: 6.00 Build 0)  -->
<svg xmlns="http://www.w3.org/2000/svg" xmlns:xlink="http://www.w3.org/1999/xlink" version="1.1" id="Layer_1" x="0px" y="0px" viewBox="0 0 505 505" style="enable-background:new 0 0 505 505;" xml:space="preserve">
<circle style="fill:#324A5E;" cx="252.5" cy="252.5" r="252.5"/>
<path style="fill:#E6E9EE;" d="M388.4,108.6H116.6c-3.8,0-6.8,3.1-6.8,6.8v199.4c0,3.8,3.1,6.8,6.8,6.8h271.8c3.8,0,6.8-3.1,6.8-6.8  V115.4C395.2,111.6,392.1,108.6,388.4,108.6z"/>
<rect x="132.9" y="131.7" style="fill:#4CDBC4;" width="239.2" height="166.8"/>
<path style="fill:#FFFFFF;" d="M80.7,321.6v22.7c0,7,5.7,12.7,12.7,12.7h318.2c7,0,12.7-5.7,12.7-12.7v-22.7H80.7z"/>
<g>
	<rect x="115.3" y="332.6" style="fill:#E6E9EE;" width="113.9" height="13.3"/>
	<rect x="275" y="332.6" style="fill:#E6E9EE;" width="14.5" height="13.3"/>
	<rect x="308.4" y="332.6" style="fill:#E6E9EE;" width="14.5" height="13.3"/>
	<rect x="341.8" y="332.6" style="fill:#E6E9EE;" width="14.5" height="13.3"/>
	<rect x="375.2" y="332.6" style="fill:#E6E9EE;" width="14.5" height="13.3"/>
</g>
<g>
	<path style="fill:#324A5E;" d="M310.9,216.6c-32.2-32.2-84.7-32.2-116.9,0l-11.2-11.2c38.4-38.4,100.8-38.4,139.2,0L310.9,216.6z"/>
	<path style="fill:#324A5E;" d="M287.1,240.4c-19.1-19.1-50.1-19.1-69.2,0l-11.2-11.2c25.2-25.2,66.3-25.2,91.5,0L287.1,240.4z"/>
	<path style="fill:#324A5E;" d="M264.8,262.7c-6.8-6.8-17.8-6.8-24.6,0L229,251.5c12.9-12.9,34-12.9,46.9,0L264.8,262.7z"/>
</g>
<g>
</g>
<g>
</g>
<g>
</g>
<g>
</g>
<g>
</g>
<g>
</g>
<g>
</g>
<g>
</g>
<g>
</g>
<g>
</g>
<g>
</g>
<g>
</g>
<g>
</g>
<g>
</g>
<g>
</g>
</svg>
