<?xml version="1.0" encoding="iso-8859-1"?>
<!-- Generator: Adobe Illustrator 19.0.0, SVG Export Plug-In . SVG Version: 6.00 Build 0)  -->
<svg xmlns="http://www.w3.org/2000/svg" xmlns:xlink="http://www.w3.org/1999/xlink" version="1.1" id="Layer_1" x="0px" y="0px" viewBox="0 0 505 505" style="enable-background:new 0 0 505 505;" xml:space="preserve">
<circle style="fill:#90DFAA;" cx="252.5" cy="252.5" r="252.5"/>
<path style="fill:#FFFFFF;" d="M396.9,369.4l-34.7-191.8c-0.3-1.6-1.9-2.7-3.5-2.4l-28.3,5.1c-1.6,0.3-2.7,1.9-2.4,3.5l34.7,191.8  c0.3,1.6,1.9,2.7,3.5,2.4l28.3-5.1C396.1,372.6,397.2,371.1,396.9,369.4z"/>
<path style="fill:#324A5E;" d="M403.2,300l-10.7-59.6c-0.4-2-2.2-3.3-4.2-2.9l-14.8,2.7l12.1,66.6l14.8-2.7  C402.3,303.8,403.6,301.9,403.2,300z"/>
<path style="fill:#FFFFFF;" d="M101.7,126.8l12,242.7c0.2,4.8,4.3,8.7,9.1,8.7h173.1c4.8,0,8.8-3.9,9.1-8.7l11.9-242.7H101.7z"/>
<g>
	<polygon style="fill:#324A5E;" points="172.5,342.9 154.2,342.9 149.3,170.1 169.2,170.1  "/>
	<polygon style="fill:#324A5E;" points="218.4,342.9 200.1,342.9 199.3,170.1 219.2,170.1  "/>
	<polygon style="fill:#324A5E;" points="264.3,342.9 246,342.9 249.3,170.1 269.2,170.1  "/>
</g>
<g>
</g>
<g>
</g>
<g>
</g>
<g>
</g>
<g>
</g>
<g>
</g>
<g>
</g>
<g>
</g>
<g>
</g>
<g>
</g>
<g>
</g>
<g>
</g>
<g>
</g>
<g>
</g>
<g>
</g>
</svg>
