<?xml version="1.0" encoding="iso-8859-1"?>
<!-- Generator: Adobe Illustrator 19.0.0, SVG Export Plug-In . SVG Version: 6.00 Build 0)  -->
<svg xmlns="http://www.w3.org/2000/svg" xmlns:xlink="http://www.w3.org/1999/xlink" version="1.1" id="Layer_1" x="0px" y="0px" viewBox="0 0 505 505" style="enable-background:new 0 0 505 505;" xml:space="preserve">
<circle style="fill:#324A5E;" cx="252.5" cy="252.5" r="252.5"/>
<path style="fill:#E6E9EE;" d="M388.6,119.5H116.4c-4.9,0-8.8,4-8.8,8.8v216.3c0,4.9,4,8.8,8.8,8.8h272.2c4.9,0,8.8-4,8.8-8.8V128.3  C397.4,123.4,393.5,119.5,388.6,119.5z"/>
<rect x="128.4" y="140.1" style="fill:#84DBFF;" width="248.2" height="166.8"/>
<rect x="211" y="353.5" style="fill:#CED5E0;" width="83" height="36"/>
<path style="fill:#E6E9EE;" d="M341.1,417.1H163.9l0,0c0-15.3,12.4-27.6,27.6-27.6h122C328.7,389.4,341.1,401.8,341.1,417.1  L341.1,417.1z"/>
<circle style="fill:#324A5E;" cx="252.5" cy="329.6" r="8.3"/>
<rect x="183.3" y="197.8" style="fill:#FFD05B;" width="30" height="88.1"/>
<rect x="237.5" y="163.5" style="fill:#324A5E;" width="30" height="122.3"/>
<rect x="291.8" y="87.9" style="fill:#FF7058;" width="30" height="197.9"/>
<g>
</g>
<g>
</g>
<g>
</g>
<g>
</g>
<g>
</g>
<g>
</g>
<g>
</g>
<g>
</g>
<g>
</g>
<g>
</g>
<g>
</g>
<g>
</g>
<g>
</g>
<g>
</g>
<g>
</g>
</svg>
