<?xml version="1.0" encoding="iso-8859-1"?>
<!-- Generator: Adobe Illustrator 19.0.0, SVG Export Plug-In . SVG Version: 6.00 Build 0)  -->
<svg xmlns="http://www.w3.org/2000/svg" xmlns:xlink="http://www.w3.org/1999/xlink" version="1.1" id="Layer_1" x="0px" y="0px" viewBox="0 0 505 505" style="enable-background:new 0 0 505 505;" xml:space="preserve">
<circle style="fill:#FD8469;" cx="252.5" cy="252.5" r="252.5"/>
<g>
	<rect x="252.5" y="146.7" style="fill:#4CDBC4;" width="159.7" height="211.5"/>
	<rect x="92.8" y="146.7" style="fill:#4CDBC4;" width="159.7" height="211.5"/>
</g>
<g>
	<rect x="111" y="164.9" style="fill:#FFFFFF;" width="123.4" height="175.2"/>
	<rect x="270.7" y="164.9" style="fill:#FFFFFF;" width="123.4" height="175.2"/>
</g>
<g>
	<rect x="128.6" y="190.6" style="fill:#324A5E;" width="88.1" height="7.8"/>
	<rect x="128.6" y="219.6" style="fill:#324A5E;" width="88.1" height="7.8"/>
	<rect x="128.6" y="248.6" style="fill:#324A5E;" width="88.1" height="7.8"/>
	<rect x="128.6" y="277.6" style="fill:#324A5E;" width="88.1" height="7.8"/>
	<rect x="128.6" y="306.5" style="fill:#324A5E;" width="88.1" height="7.8"/>
	<rect x="288.3" y="190.6" style="fill:#324A5E;" width="88.1" height="7.8"/>
	<rect x="288.3" y="219.6" style="fill:#324A5E;" width="88.1" height="7.8"/>
	<rect x="288.3" y="248.6" style="fill:#324A5E;" width="88.1" height="7.8"/>
	<rect x="288.3" y="277.6" style="fill:#324A5E;" width="88.1" height="7.8"/>
	<rect x="288.3" y="306.5" style="fill:#324A5E;" width="88.1" height="7.8"/>
	<circle style="fill:#324A5E;" cx="261.6" cy="183.3" r="4.8"/>
	<circle style="fill:#324A5E;" cx="243.4" cy="183.3" r="4.8"/>
</g>
<path style="fill:#2B3B4E;" d="M260.4,185h-15.2c-1,0-1.8-0.8-1.8-1.8l0,0c0-1,0.8-1.8,1.8-1.8h15.2c1,0,1.8,0.8,1.8,1.8l0,0  C262.3,184.2,261.5,185,260.4,185z"/>
<g>
	<circle style="fill:#324A5E;" cx="261.6" cy="252.5" r="4.8"/>
	<circle style="fill:#324A5E;" cx="243.4" cy="252.5" r="4.8"/>
</g>
<path style="fill:#2B3B4E;" d="M260.4,254.1h-15.2c-1,0-1.8-0.8-1.8-1.8l0,0c0-1,0.8-1.8,1.8-1.8h15.2c1,0,1.8,0.8,1.8,1.8l0,0  C262.3,253.3,261.5,254.1,260.4,254.1z"/>
<g>
	<circle style="fill:#324A5E;" cx="261.6" cy="321.7" r="4.8"/>
	<circle style="fill:#324A5E;" cx="243.4" cy="321.7" r="4.8"/>
</g>
<path style="fill:#2B3B4E;" d="M260.4,323.3h-15.2c-1,0-1.8-0.8-1.8-1.8l0,0c0-1,0.8-1.8,1.8-1.8h15.2c1,0,1.8,0.8,1.8,1.8l0,0  C262.3,322.5,261.5,323.3,260.4,323.3z"/>
<g>
</g>
<g>
</g>
<g>
</g>
<g>
</g>
<g>
</g>
<g>
</g>
<g>
</g>
<g>
</g>
<g>
</g>
<g>
</g>
<g>
</g>
<g>
</g>
<g>
</g>
<g>
</g>
<g>
</g>
</svg>
