<?xml version="1.0" encoding="iso-8859-1"?>
<!-- Generator: Adobe Illustrator 19.0.0, SVG Export Plug-In . SVG Version: 6.00 Build 0)  -->
<svg xmlns="http://www.w3.org/2000/svg" xmlns:xlink="http://www.w3.org/1999/xlink" version="1.1" id="Layer_1" x="0px" y="0px" viewBox="0 0 505 505" style="enable-background:new 0 0 505 505;" xml:space="preserve">
<circle style="fill:#324A5E;" cx="252.5" cy="252.5" r="252.5"/>
<rect x="188.8" y="261.6" style="fill:#4CDBC4;" width="129.8" height="16.7"/>
<path style="fill:#E6E9EE;" d="M335.9,350.6c-3.5,0.9-5.6,4.5-4.7,8.1l14.4,55.1c0.9,3.5,4.5,5.6,8.1,4.7c3.5-0.9,5.6-4.5,4.7-8.1  L344,355.3C343,351.7,339.4,349.6,335.9,350.6z"/>
<path style="fill:#FF7058;" d="M265.8,151.2l56.3,214.9c2.3,8.8,10.7,14.9,19.7,13.4c10.2-1.7,16.6-11.7,14-21.5l-55.3-211.1  c-0.6-2.4-3.1-3.9-5.6-3.3L265.8,151.2z"/>
<path style="fill:#E6E9EE;" d="M169.1,350.6c3.5,0.9,5.6,4.5,4.7,8.1l-14.4,55.1c-0.9,3.5-4.5,5.6-8.1,4.7c-3.5-0.9-5.6-4.5-4.7-8.1  l14.4-55.1C162,351.7,165.6,349.6,169.1,350.6z"/>
<g>
	<path style="fill:#FF7058;" d="M239.2,151.2l-56.3,214.9c-2.3,8.8-10.7,14.9-19.7,13.4c-10.2-1.7-16.6-11.7-14-21.5l55.3-211.1   c0.6-2.4,3.1-3.9,5.6-3.3L239.2,151.2z"/>
	<path style="fill:#FF7058;" d="M252.5,62.7c-8.1,0-14.7,6.6-14.7,14.7v50.8h29.3V77.4C267.2,69.3,260.6,62.7,252.5,62.7z"/>
</g>
<circle style="fill:#E6E9EE;" cx="252.5" cy="159" r="49.3"/>
<path style="fill:#4CDBC4;" d="M252.5,185.4c-14.5,0-26.4-11.8-26.4-26.4s11.8-26.4,26.4-26.4c14.5,0,26.4,11.8,26.4,26.4  S267,185.4,252.5,185.4z"/>
<path style="fill:#FFD05B;" d="M253.6,243.3c-7.3,0-13.3,5.9-13.3,13.3v26.9c0,7.3,5.9,13.3,13.3,13.3c7.3,0,13.3-5.9,13.3-13.3v-27  C266.9,249.2,261,243.3,253.6,243.3z"/>
<g>
</g>
<g>
</g>
<g>
</g>
<g>
</g>
<g>
</g>
<g>
</g>
<g>
</g>
<g>
</g>
<g>
</g>
<g>
</g>
<g>
</g>
<g>
</g>
<g>
</g>
<g>
</g>
<g>
</g>
</svg>
