<?xml version="1.0" encoding="iso-8859-1"?>
<!-- Generator: Adobe Illustrator 19.0.0, SVG Export Plug-In . SVG Version: 6.00 Build 0)  -->
<svg xmlns="http://www.w3.org/2000/svg" xmlns:xlink="http://www.w3.org/1999/xlink" version="1.1" id="Layer_1" x="0px" y="0px" viewBox="0 0 505 505" style="enable-background:new 0 0 505 505;" xml:space="preserve">
<circle style="fill:#FFD05B;" cx="252.5" cy="252.5" r="252.5"/>
<rect x="92" y="255.6" style="fill:#324A5E;" width="321" height="120.6"/>
<rect x="92" y="240.4" style="fill:#2B3B4E;" width="321" height="45.8"/>
<path style="fill:#324A5E;" d="M85.8,139.6V235c0,4.5,2.4,8.7,6.3,10.9c139.3,78.1,286.6,16,320.1-0.1c4.3-2.1,7-6.4,7-11.2v-94.9  H85.8V139.6z"/>
<path style="fill:#334A5E;" d="M323.8,139.6h-20.5v-21.8H201.8v21.8h-20.5v-22.4c0-11,8.9-19.9,19.9-19.9h102.6  c11,0,19.9,8.9,19.9,19.9v22.4H323.8z"/>
<rect x="224" y="263.2" style="fill:#4CDBC4;" width="57" height="40.9"/>
<g>
</g>
<g>
</g>
<g>
</g>
<g>
</g>
<g>
</g>
<g>
</g>
<g>
</g>
<g>
</g>
<g>
</g>
<g>
</g>
<g>
</g>
<g>
</g>
<g>
</g>
<g>
</g>
<g>
</g>
</svg>
