<?xml version="1.0" encoding="iso-8859-1"?>
<!-- Generator: Adobe Illustrator 19.0.0, SVG Export Plug-In . SVG Version: 6.00 Build 0)  -->
<svg xmlns="http://www.w3.org/2000/svg" xmlns:xlink="http://www.w3.org/1999/xlink" version="1.1" id="Layer_1" x="0px" y="0px" viewBox="0 0 505 505" style="enable-background:new 0 0 505 505;" xml:space="preserve">
<circle style="fill:#FFD05B;" cx="252.5" cy="252.5" r="252.5"/>
<path style="fill:#FFFFFF;" d="M354.8,101.7H150.2c-12.1,0-22,9.8-22,22v257.5c0,12.1,9.8,22,22,22h204.6c12.1,0,22-9.8,22-22V123.7  C376.8,111.6,366.9,101.7,354.8,101.7z"/>
<path style="fill:#CED5E0;" d="M150.2,382.4c-0.6,0-1.1-0.5-1.1-1.1V123.7c0-0.6,0.5-1.1,1.1-1.1h204.6c0.6,0,1.1,0.5,1.1,1.1v257.5  c0,0.6-0.5,1.1-1.1,1.1H150.2V382.4z"/>
<circle style="fill:#324A5E;" cx="252.5" cy="223.6" r="86.1"/>
<circle style="fill:#E6E9EE;" cx="252.5" cy="223.6" r="25.5"/>
<g>
	<circle style="fill:#324A5E;" cx="334.5" cy="144.3" r="9.9"/>
	<circle style="fill:#324A5E;" cx="170.5" cy="144.3" r="9.9"/>
	<circle style="fill:#324A5E;" cx="334.5" cy="360.7" r="9.9"/>
	<circle style="fill:#324A5E;" cx="170.5" cy="360.7" r="9.9"/>
</g>
<path style="fill:#FF7058;" d="M271,345.5c0,10.2-8.3,18.5-18.5,18.5c-10.2,0-18.5-8.3-18.5-18.5s18.5-71.6,18.5-71.6  S271,335.3,271,345.5z"/>
<circle style="fill:#324A5E;" cx="252.5" cy="345.4" r="8"/>
<g>
</g>
<g>
</g>
<g>
</g>
<g>
</g>
<g>
</g>
<g>
</g>
<g>
</g>
<g>
</g>
<g>
</g>
<g>
</g>
<g>
</g>
<g>
</g>
<g>
</g>
<g>
</g>
<g>
</g>
</svg>
