<?xml version="1.0" encoding="iso-8859-1"?>
<!-- Generator: Adobe Illustrator 19.0.0, SVG Export Plug-In . SVG Version: 6.00 Build 0)  -->
<svg xmlns="http://www.w3.org/2000/svg" xmlns:xlink="http://www.w3.org/1999/xlink" version="1.1" id="Layer_1" x="0px" y="0px" viewBox="0 0 505 505" style="enable-background:new 0 0 505 505;" xml:space="preserve">
<circle style="fill:#FD8469;" cx="252.5" cy="252.5" r="252.5"/>
<path style="fill:#CED5E0;" d="M108.8,163.1v219.5c0,9,7.3,16.4,16.4,16.4h254.6c9,0,16.4-7.3,16.4-16.4V163.1H108.8z"/>
<path style="fill:#FFFFFF;" d="M396.2,163.1H108.8v219.5c0,9,7.3,16.4,16.4,16.4h195.4l75.6-75.6L396.2,163.1L396.2,163.1z"/>
<path style="fill:#E6E9EE;" d="M396.2,323.4H337c-9,0-16.4,7.3-16.4,16.4V399L396.2,323.4z"/>
<path style="fill:#4CDBC4;" d="M379.8,114.5H125.2c-9,0-16.4,7.3-16.4,16.4v58.2h287.4v-58.2C396.2,121.9,388.9,114.5,379.8,114.5z"/>
<g>
	<path style="fill:#324A5E;" d="M181.1,82.3c-5.8,0-10.5,4.7-10.5,10.5v43.5c0,5.8,4.7,10.5,10.5,10.5s10.5-4.7,10.5-10.5V92.8   C191.6,87,186.9,82.3,181.1,82.3z"/>
	<path style="fill:#324A5E;" d="M323.9,82.3c-5.8,0-10.5,4.7-10.5,10.5v43.5c0,5.8,4.7,10.5,10.5,10.5s10.5-4.7,10.5-10.5V92.8   C334.3,87,329.6,82.3,323.9,82.3z"/>
	<path style="fill:#324A5E;" d="M243.6,325.3h-64.2v-17.7h21v-63.1l-21.6,4.7v-18.1l43.9-8.8v85.5h20.9V325.3z"/>
	<path style="fill:#324A5E;" d="M284,306.4v0.4h41.2v18.5h-66.8v-17.4l29.1-27.8c5.8-5.6,10-10.3,12.3-14.1c2.4-3.8,3.6-7.8,3.6-12   c0-9.3-5-14-15.1-14c-8.7,0-17.1,3.5-25,10.4v-19.7c8.8-5.7,18.8-8.6,29.9-8.6c10.4,0,18.5,2.6,24.3,7.8s8.7,12.3,8.7,21.1   c0,11.8-7.1,24.1-21.3,36.7L284,306.4z"/>
</g>
<g>
</g>
<g>
</g>
<g>
</g>
<g>
</g>
<g>
</g>
<g>
</g>
<g>
</g>
<g>
</g>
<g>
</g>
<g>
</g>
<g>
</g>
<g>
</g>
<g>
</g>
<g>
</g>
<g>
</g>
</svg>
