<?xml version="1.0" encoding="iso-8859-1"?>
<!-- Generator: Adobe Illustrator 19.0.0, SVG Export Plug-In . SVG Version: 6.00 Build 0)  -->
<svg xmlns="http://www.w3.org/2000/svg" xmlns:xlink="http://www.w3.org/1999/xlink" version="1.1" id="Layer_1" x="0px" y="0px" viewBox="0 0 505 505" style="enable-background:new 0 0 505 505;" xml:space="preserve">
<circle style="fill:#FFD05B;" cx="252.5" cy="252.5" r="252.5"/>
<path style="fill:#2B3B4E;" d="M361.2,360.2L361.2,360.2c-30.4,0-55.1-24.7-55.1-55.1v-19.7H198.9v19.7c0,30.4-24.7,55.1-55.1,55.1  l0,0c-7.7,0-13.9,6.2-13.9,13.9v19.5c0,7.7,6.2,13.9,13.9,13.9h217.4c7.7,0,13.9-6.2,13.9-13.9v-19.5  C375.1,366.4,368.9,360.2,361.2,360.2z"/>
<circle style="fill:#324A5E;" cx="252.5" cy="189.7" r="126.1"/>
<circle style="fill:#CED5E0;" cx="252.5" cy="189.7" r="81.1"/>
<ellipse transform="matrix(0.4494 -0.8933 0.8933 0.4494 -36.5622 285.4609)" style="fill:#FFFFFF;" cx="213.298" cy="172.391" rx="28.199" ry="14.8"/>
<g>
</g>
<g>
</g>
<g>
</g>
<g>
</g>
<g>
</g>
<g>
</g>
<g>
</g>
<g>
</g>
<g>
</g>
<g>
</g>
<g>
</g>
<g>
</g>
<g>
</g>
<g>
</g>
<g>
</g>
</svg>
