<?xml version="1.0" encoding="iso-8859-1"?>
<!-- Generator: Adobe Illustrator 19.0.0, SVG Export Plug-In . SVG Version: 6.00 Build 0)  -->
<svg xmlns="http://www.w3.org/2000/svg" xmlns:xlink="http://www.w3.org/1999/xlink" version="1.1" id="Layer_1" x="0px" y="0px" viewBox="0 0 505 505" style="enable-background:new 0 0 505 505;" xml:space="preserve">
<circle style="fill:#90DFAA;" cx="252.5" cy="252.5" r="252.5"/>
<path style="fill:#FF7058;" d="M249.6,123.5v83.2c0,11.2,9.1,20.3,20.3,20.3h64.6c11.2,0,20.3-9.1,20.3-20.3v-83.2H249.6z"/>
<rect x="266.8" y="77.6" style="fill:#FFFFFF;" width="70.7" height="45.8"/>
<g>
	<rect x="281.2" y="86.6" style="fill:#E6E9EE;" width="12.2" height="30.6"/>
	<rect x="310.8" y="86.6" style="fill:#E6E9EE;" width="12.2" height="30.6"/>
</g>
<path style="fill:#334A5E;" d="M302.2,388.3H135.1c-18.7,0-33.9-15.2-33.9-33.9s15.2-33.9,33.9-33.9h205.2  c10.7,0,19.4-8.7,19.4-19.4v-2.2c0-10.7-8.7-19.4-19.4-19.4h-11.5c-18.7,0-33.9-15.2-33.9-33.9v-18.5h14.5v18.5  c0,10.7,8.7,19.4,19.4,19.4h11.5c18.7,0,33.9,15.2,33.9,33.9v2.2c0,18.7-15.2,33.9-33.9,33.9H135.1c-10.7,0-19.4,8.7-19.4,19.4  c0,10.7,8.7,19.4,19.4,19.4h167.1V388.3z"/>
<path style="fill:#FFFFFF;" d="M344.6,381.1c0,3.9,3.1,7,7,7h21.6c3.9,0,7-3.1,7-7s-3.1-7-7-7h-21.6  C347.7,374.1,344.6,377.2,344.6,381.1z"/>
<polygon style="fill:#FF7058;" points="356.1,358.4 356.1,403.7 293.2,396.6 293.2,365.5 "/>
<g>
</g>
<g>
</g>
<g>
</g>
<g>
</g>
<g>
</g>
<g>
</g>
<g>
</g>
<g>
</g>
<g>
</g>
<g>
</g>
<g>
</g>
<g>
</g>
<g>
</g>
<g>
</g>
<g>
</g>
</svg>
