<?xml version="1.0" encoding="iso-8859-1"?>
<!-- Generator: Adobe Illustrator 19.0.0, SVG Export Plug-In . SVG Version: 6.00 Build 0)  -->
<svg xmlns="http://www.w3.org/2000/svg" xmlns:xlink="http://www.w3.org/1999/xlink" version="1.1" id="Layer_1" x="0px" y="0px" viewBox="0 0 505 505" style="enable-background:new 0 0 505 505;" xml:space="preserve">
<circle style="fill:#FD8469;" cx="252.5" cy="252.5" r="252.5"/>
<path style="fill:#FFFFFF;" d="M104.7,349.1l0.8-0.4v0.9c41.3-34.6,89.4-37.6,89.4-37.6c-2.3-23.9,3.8-47.8,17.2-67.7l9.5-14.2  l-25.2-16.9l-25.2-16.9l-9.5,14.2c-13.4,19.9-33.2,34.6-56.1,41.5C105.6,252.2,121.1,297.8,104.7,349.1z"/>
<g>
	<circle style="fill:#324A5E;" cx="106.1" cy="348" r="6.2"/>
	
		<rect x="128.27" y="273.223" transform="matrix(0.8304 0.5571 -0.5571 0.8304 195.9065 -19.6115)" style="fill:#324A5E;" width="3.8" height="77.597"/>
	<circle style="fill:#324A5E;" cx="152" cy="279.5" r="10.6"/>
</g>
<rect x="151.101" y="180.065" transform="matrix(-0.8304 -0.5571 0.5571 -0.8304 267.5531 477.8625)" style="fill:#E6E9EE;" width="110.796" height="36.299"/>
<path style="fill:#4CDBC4;" d="M320.7,124.2c4.2-6.7,2.4-15.4-4.2-19.8l-64.9-43.5c-6.5-4.4-15.4-2.8-19.9,3.7  c-23.2,32.6-44.1,62.6-61.1,87.8l92,61.7C279.5,188.8,299.4,158,320.7,124.2z"/>
<path style="fill:#324A5E;" d="M406.6,374h-266c-4.4,0-7.9-3.5-7.9-7.9s3.5-7.9,7.9-7.9h266c4.4,0,7.9,3.5,7.9,7.9  C414.5,370.4,411,374,406.6,374z"/>
<g>
</g>
<g>
</g>
<g>
</g>
<g>
</g>
<g>
</g>
<g>
</g>
<g>
</g>
<g>
</g>
<g>
</g>
<g>
</g>
<g>
</g>
<g>
</g>
<g>
</g>
<g>
</g>
<g>
</g>
</svg>
