<?xml version="1.0" encoding="iso-8859-1"?>
<!-- Generator: Adobe Illustrator 19.0.0, SVG Export Plug-In . SVG Version: 6.00 Build 0)  -->
<svg xmlns="http://www.w3.org/2000/svg" xmlns:xlink="http://www.w3.org/1999/xlink" version="1.1" id="Layer_1" x="0px" y="0px" viewBox="0 0 505 505" style="enable-background:new 0 0 505 505;" xml:space="preserve">
<circle style="fill:#84DBFF;" cx="252.5" cy="252.5" r="252.5"/>
<rect x="206.9" y="208.6" style="fill:#324A5E;" width="91.3" height="47.5"/>
<path style="fill:#2B3B4E;" d="M182.7,132.8L182.7,132.8c-28.5-5.2-56.7,10.5-67.2,37.5L76.3,266l154.2,27.9l1.9-99.8  C233.3,164.2,212.2,138.1,182.7,132.8z"/>
<circle style="fill:#324A5E;" cx="150.9" cy="293.6" r="79.6"/>
<path id="SVGCleanerId_0" style="fill:#E6E9EE;" d="M141.1,347.9c-29.9-5.4-49.8-34.2-44.4-64.1s34.2-49.8,64.1-44.4  c29.9,5.4,49.8,34.2,44.4,64.1C199.7,333.4,171,353.3,141.1,347.9z"/>
<path style="fill:#2B3B4E;" d="M322.3,132.8L322.3,132.8c28.5-5.2,56.7,10.5,67.2,37.5l39.2,95.7l-154.2,27.9l-1.9-99.8  C271.7,164.2,292.8,138.1,322.3,132.8z"/>
<circle style="fill:#324A5E;" cx="354.1" cy="293.6" r="79.6"/>
<path style="fill:#E6E9EE;" d="M363.9,347.9c29.9-5.4,49.8-34.2,44.4-64.1s-34.2-49.8-64.1-44.4c-29.9,5.4-49.8,34.2-44.4,64.1  C305.3,333.4,334,353.3,363.9,347.9z"/>
<g>
	<path id="SVGCleanerId_0_1_" style="fill:#E6E9EE;" d="M141.1,347.9c-29.9-5.4-49.8-34.2-44.4-64.1s34.2-49.8,64.1-44.4   c29.9,5.4,49.8,34.2,44.4,64.1C199.7,333.4,171,353.3,141.1,347.9z"/>
</g>
<g>
	
		<ellipse transform="matrix(0.6234 -0.7819 0.7819 0.6234 -93.2147 369.6052)" style="fill:#FFFFFF;" cx="337.084" cy="281.57" rx="21.6" ry="13.1"/>
	
		<ellipse transform="matrix(0.6234 -0.7819 0.7819 0.6234 -171.2827 207.6036)" style="fill:#FFFFFF;" cx="129.874" cy="281.612" rx="21.6" ry="13.1"/>
</g>
<g>
</g>
<g>
</g>
<g>
</g>
<g>
</g>
<g>
</g>
<g>
</g>
<g>
</g>
<g>
</g>
<g>
</g>
<g>
</g>
<g>
</g>
<g>
</g>
<g>
</g>
<g>
</g>
<g>
</g>
</svg>
