<?xml version="1.0" encoding="iso-8859-1"?>
<!-- Generator: Adobe Illustrator 19.0.0, SVG Export Plug-In . SVG Version: 6.00 Build 0)  -->
<svg xmlns="http://www.w3.org/2000/svg" xmlns:xlink="http://www.w3.org/1999/xlink" version="1.1" id="Layer_1" x="0px" y="0px" viewBox="0 0 505 505" style="enable-background:new 0 0 505 505;" xml:space="preserve">
<circle style="fill:#FFD05B;" cx="252.5" cy="252.5" r="252.5"/>
<path style="fill:#FFFFFF;" d="M252.5,371.9c-51.6-23.3-110.7-23.3-162.3,0c0-76.4,0-152.8,0-229.2c51.6-23.3,110.7-23.3,162.3,0  C252.5,219.1,252.5,295.5,252.5,371.9z"/>
<g>
	<path style="fill:#E6E9EE;" d="M231,175.2c-38.8-12.3-80.5-12.3-119.3,0c0-2.9,0-5.7,0-8.6c38.8-12.3,80.5-12.3,119.3,0   C231,169.5,231,172.3,231,175.2z"/>
	<path style="fill:#E6E9EE;" d="M231,214.7c-38.8-12.3-80.5-12.3-119.3,0c0-2.9,0-5.7,0-8.6c38.8-12.3,80.5-12.3,119.3,0   C231,208.9,231,211.8,231,214.7z"/>
	<path style="fill:#E6E9EE;" d="M231,254.1c-38.8-12.3-80.5-12.3-119.3,0c0-2.9,0-5.7,0-8.6c38.8-12.3,80.5-12.3,119.3,0   C231,248.4,231,251.3,231,254.1z"/>
	<path style="fill:#E6E9EE;" d="M231,293.6c-38.8-12.3-80.5-12.3-119.3,0c0-2.9,0-5.7,0-8.6c38.8-12.3,80.5-12.3,119.3,0   C231,287.9,231,290.7,231,293.6z"/>
	<path style="fill:#E6E9EE;" d="M231,333.1c-38.8-12.3-80.5-12.3-119.3,0c0-2.9,0-5.7,0-8.6c38.8-12.3,80.5-12.3,119.3,0   C231,327.4,231,330.2,231,333.1z"/>
	<path style="fill:#E6E9EE;" d="M414.8,371.9c-51.6-23.3-110.7-23.3-162.3,0c0-76.4,0-152.8,0-229.2c51.6-23.3,110.7-23.3,162.3,0   C414.8,219.1,414.8,295.5,414.8,371.9z"/>
</g>
<g>
	<path style="fill:#CED5E0;" d="M393.3,175.2c-38.8-12.3-80.5-12.3-119.3,0c0-2.9,0-5.7,0-8.6c38.8-12.3,80.5-12.3,119.3,0   C393.3,169.5,393.3,172.3,393.3,175.2z"/>
	<path style="fill:#CED5E0;" d="M393.3,214.7c-38.8-12.3-80.5-12.3-119.3,0c0-2.9,0-5.7,0-8.6c38.8-12.3,80.5-12.3,119.3,0   C393.3,208.9,393.3,211.8,393.3,214.7z"/>
	<path style="fill:#CED5E0;" d="M393.3,254.1c-38.8-12.3-80.5-12.3-119.3,0c0-2.9,0-5.7,0-8.6c38.8-12.3,80.5-12.3,119.3,0   C393.3,248.4,393.3,251.3,393.3,254.1z"/>
	<path style="fill:#CED5E0;" d="M393.3,293.6c-38.8-12.3-80.5-12.3-119.3,0c0-2.9,0-5.7,0-8.6c38.8-12.3,80.5-12.3,119.3,0   C393.3,287.9,393.3,290.7,393.3,293.6z"/>
	<path style="fill:#CED5E0;" d="M393.3,333.1c-38.8-12.3-80.5-12.3-119.3,0c0-2.9,0-5.7,0-8.6c38.8-12.3,80.5-12.3,119.3,0   C393.3,327.4,393.3,330.2,393.3,333.1z"/>
</g>
<g>
</g>
<g>
</g>
<g>
</g>
<g>
</g>
<g>
</g>
<g>
</g>
<g>
</g>
<g>
</g>
<g>
</g>
<g>
</g>
<g>
</g>
<g>
</g>
<g>
</g>
<g>
</g>
<g>
</g>
</svg>
