<?xml version="1.0" encoding="iso-8859-1"?>
<!-- Generator: Adobe Illustrator 19.0.0, SVG Export Plug-In . SVG Version: 6.00 Build 0)  -->
<svg xmlns="http://www.w3.org/2000/svg" xmlns:xlink="http://www.w3.org/1999/xlink" version="1.1" id="Layer_1" x="0px" y="0px" viewBox="0 0 505 505" style="enable-background:new 0 0 505 505;" xml:space="preserve">
<path style="fill:#324A5E;" d="M0,252.5C0,113,113,0,252.5,0S505,113,505,252.5S392,505,252.5,505S0,392,0,252.5z"/>
<path style="fill:#FF7058;" d="M386.2,220.7l-21.6,21.6l41.2,41.2l21.6-21.6c4.3-4.3,4.3-11.2,0-15.4l-25.7-25.7  C397.3,216.5,390.4,216.5,386.2,220.7z"/>
<rect x="299.49" y="239.535" transform="matrix(0.7071 0.7071 -0.7071 0.7071 322.1512 -138.7735)" style="fill:#4CDBC4;" width="58.199" height="159.898"/>
<polygon style="fill:#FF7058;" points="236.3,411.8 258.8,405.8 242.3,389.3 "/>
<polygon style="fill:#E6E9EE;" points="251.3,355.7 242.3,389.3 258.8,405.8 292.4,396.8 292.6,396.6 251.5,355.4 "/>
<polygon style="fill:#FFD05B;" points="406.1,191.9 406.1,116.4 114.6,116.4 114.6,407.9 190.1,407.9 190.1,191.9 "/>
<g>
	<rect x="381.2" y="127.4" style="fill:#324A5E;" width="7.4" height="26.6"/>
	<rect x="357" y="127.4" style="fill:#324A5E;" width="7.4" height="16.6"/>
	<rect x="333.4" y="127.4" style="fill:#324A5E;" width="7.4" height="26.6"/>
	<rect x="309.2" y="127.4" style="fill:#324A5E;" width="7.4" height="16.6"/>
	<rect x="285.6" y="127.4" style="fill:#324A5E;" width="7.4" height="26.6"/>
	<rect x="261.3" y="127.4" style="fill:#324A5E;" width="7.4" height="16.6"/>
	<rect x="237.8" y="127.4" style="fill:#324A5E;" width="7.4" height="26.6"/>
	<rect x="213.5" y="127.4" style="fill:#324A5E;" width="7.4" height="16.6"/>
	<rect x="190" y="127.4" style="fill:#324A5E;" width="7.4" height="26.6"/>
	<rect x="165.7" y="127.4" style="fill:#324A5E;" width="7.4" height="16.6"/>
	<rect x="125.6" y="167.5" style="fill:#324A5E;" width="26.6" height="7.4"/>
	<rect x="125.6" y="191.8" style="fill:#324A5E;" width="16.6" height="7.4"/>
	<rect x="125.6" y="215.3" style="fill:#324A5E;" width="26.6" height="7.4"/>
	<rect x="125.6" y="239.6" style="fill:#324A5E;" width="16.6" height="7.4"/>
	<rect x="125.6" y="263.1" style="fill:#324A5E;" width="26.6" height="7.4"/>
	<rect x="125.6" y="287.4" style="fill:#324A5E;" width="16.6" height="7.4"/>
	<rect x="125.6" y="310.9" style="fill:#324A5E;" width="26.6" height="7.4"/>
	<rect x="125.6" y="335.2" style="fill:#324A5E;" width="16.6" height="7.4"/>
	<rect x="125.6" y="358.7" style="fill:#324A5E;" width="26.6" height="7.4"/>
	<rect x="125.6" y="383" style="fill:#324A5E;" width="16.6" height="7.4"/>
</g>
<g>
</g>
<g>
</g>
<g>
</g>
<g>
</g>
<g>
</g>
<g>
</g>
<g>
</g>
<g>
</g>
<g>
</g>
<g>
</g>
<g>
</g>
<g>
</g>
<g>
</g>
<g>
</g>
<g>
</g>
</svg>
