<?xml version="1.0" encoding="iso-8859-1"?>
<!-- Generator: Adobe Illustrator 19.0.0, SVG Export Plug-In . SVG Version: 6.00 Build 0)  -->
<svg xmlns="http://www.w3.org/2000/svg" xmlns:xlink="http://www.w3.org/1999/xlink" version="1.1" id="Layer_1" x="0px" y="0px" viewBox="0 0 505 505" style="enable-background:new 0 0 505 505;" xml:space="preserve">
<circle style="fill:#90DFAA;" cx="252.5" cy="252.5" r="252.5"/>
<path style="fill:#324A5E;" d="M252.5,83.4c0,0-52.8,39.3-140.1,36.4v141.1c0,0,8.3,120.6,140.1,176.4  c131.9-55.8,140.1-176.4,140.1-176.4V119.8C305.3,122.7,252.5,83.4,252.5,83.4z"/>
<path style="fill:#FF7058;" d="M252.5,114.4L252.5,114.4c-20.4,11.2-59.9,28.3-113.6,31.5v113.9c0,0.1,0,0.4,0.1,0.6h113.5V114.4z"/>
<g>
	<path style="fill:#FFFFFF;" d="M366.1,260.4c0-0.2,0-0.4,0.1-0.6V146c-53.8-3.2-93.2-20.3-113.6-31.5v145.9H366.1z"/>
	<path style="fill:#FFFFFF;" d="M138.9,260.4c1.2,11.3,14.1,100.5,113.6,147.9V260.4H138.9z"/>
</g>
<path style="fill:#FF7058;" d="M252.5,260.4v147.9l0,0c99.6-47.5,112.3-136.1,113.6-147.9H252.5z"/>
<g>
</g>
<g>
</g>
<g>
</g>
<g>
</g>
<g>
</g>
<g>
</g>
<g>
</g>
<g>
</g>
<g>
</g>
<g>
</g>
<g>
</g>
<g>
</g>
<g>
</g>
<g>
</g>
<g>
</g>
</svg>
