<?xml version="1.0" encoding="iso-8859-1"?>
<!-- Generator: Adobe Illustrator 19.0.0, SVG Export Plug-In . SVG Version: 6.00 Build 0)  -->
<svg xmlns="http://www.w3.org/2000/svg" xmlns:xlink="http://www.w3.org/1999/xlink" version="1.1" id="Layer_1" x="0px" y="0px" viewBox="0 0 505 505" style="enable-background:new 0 0 505 505;" xml:space="preserve">
<circle style="fill:#FFD05B;" cx="252.5" cy="252.5" r="252.5"/>
<path style="fill:#FF7058;" d="M391.1,159.1H234.7c-1.3,0-2.5-0.6-3.2-1.6l-21.2-29.2c-0.8-1-2-1.6-3.2-1.6h-86.5c-2.2,0-4,1.8-4,4  v254.8h278.6l0,0V163.1C395.1,160.9,393.4,159.1,391.1,159.1z"/>
<path style="fill:#324A5E;" d="M273.2,270.1l52.9-82c20,2.5,40.6-6.4,52.3-24.4c9.9-15.3,11-33.7,4.8-49.5l-18.5,28.7l-37.9,0.7  l-14.9-34.8l18.5-28.7c-16.9,0.8-33.2,9.4-43.1,24.8c-12.2,18.9-11.1,42.4,0.7,59.9l-51.7,80.1c-20.8-3.6-42.7,5.2-54.9,24.1  c-9.9,15.3-11,33.7-4.8,49.5l18.5-28.7l37.9-0.7l14.9,34.8l-18.5,28.6c16.9-0.8,33.2-9.4,43.1-24.8  C284.2,309.7,283.7,287.3,273.2,270.1z"/>
<path style="fill:#FFFFFF;" d="M421.1,203H156.4c-3.3,0-6.1,2.3-6.7,5.6l-33.2,176.8h278.6l32.6-174.3  C428.6,206.9,425.3,203,421.1,203z"/>
<g>
</g>
<g>
</g>
<g>
</g>
<g>
</g>
<g>
</g>
<g>
</g>
<g>
</g>
<g>
</g>
<g>
</g>
<g>
</g>
<g>
</g>
<g>
</g>
<g>
</g>
<g>
</g>
<g>
</g>
</svg>
