<?xml version="1.0" encoding="iso-8859-1"?>
<!-- Generator: Adobe Illustrator 19.0.0, SVG Export Plug-In . SVG Version: 6.00 Build 0)  -->
<svg xmlns="http://www.w3.org/2000/svg" xmlns:xlink="http://www.w3.org/1999/xlink" version="1.1" id="Layer_1" x="0px" y="0px" viewBox="0 0 505 505" style="enable-background:new 0 0 505 505;" xml:space="preserve">
<circle style="fill:#FD8469;" cx="252.5" cy="252.5" r="252.5"/>
<polygon style="fill:#FFFFFF;" points="284.7,93.2 118.7,93.2 118.7,388.2 362.4,388.2 362.4,170.8 "/>
<g>
	<polygon style="fill:#E6E9EE;" points="284.7,170.8 362.4,170.8 284.7,93.2  "/>
	<rect x="149.4" y="196.3" style="fill:#E6E9EE;" width="182.3" height="14.1"/>
	<rect x="149.4" y="240.7" style="fill:#E6E9EE;" width="182.3" height="14.1"/>
	<rect x="149.4" y="285" style="fill:#E6E9EE;" width="182.3" height="14.1"/>
	<rect x="149.4" y="329.3" style="fill:#E6E9EE;" width="182.3" height="14.1"/>
</g>
<path style="fill:#324A5E;" d="M407.6,309h-16.8v54.6h16.8c5.6,0,10.2-4.6,10.2-10.2v-34.1C417.8,313.6,413.3,309,407.6,309z"/>
<rect x="240.9" y="309" style="fill:#4CDBC4;" width="149.9" height="54.6"/>
<polygon style="fill:#324A5E;" points="193.4,336.3 212.3,347.3 212.3,325.4 "/>
<polygon style="fill:#FFD05B;" points="240.6,309 212.3,325.4 212.3,347.3 240.6,363.6 240.9,363.6 240.9,309 "/>
<g>
</g>
<g>
</g>
<g>
</g>
<g>
</g>
<g>
</g>
<g>
</g>
<g>
</g>
<g>
</g>
<g>
</g>
<g>
</g>
<g>
</g>
<g>
</g>
<g>
</g>
<g>
</g>
<g>
</g>
</svg>
