<?xml version="1.0" encoding="iso-8859-1"?>
<!-- Generator: Adobe Illustrator 19.0.0, SVG Export Plug-In . SVG Version: 6.00 Build 0)  -->
<svg xmlns="http://www.w3.org/2000/svg" xmlns:xlink="http://www.w3.org/1999/xlink" version="1.1" id="Layer_1" x="0px" y="0px" viewBox="0 0 505 505" style="enable-background:new 0 0 505 505;" xml:space="preserve">
<circle style="fill:#FD8469;" cx="252.5" cy="252.5" r="252.5"/>
<g>
	<path style="fill:#324A5E;" d="M283,415.8h-18v-51h-24.9v51h-18c-15,0-27.2,12.2-27.2,27.2h115.3C310.1,428,298,415.8,283,415.8z"/>
	<path style="fill:#324A5E;" d="M354.6,341.4L198.2,79.7c0.5-1.4,0.8-2.9,0.8-4.5c0-7.2-5.9-13.1-13.1-13.1s-13.1,5.9-13.1,13.1   c0,5,2.8,9.2,6.8,11.5c-31.2,21.8-53.2,53.7-62.6,91c-10.3,41-4.1,83.6,17.6,120c28.5,47.6,80.6,77.2,136.1,77.2   c24.7,0,49-5.8,71-16.9c1.5,5.7,6.6,9.8,12.7,9.8c7.2,0,13.1-5.9,13.1-13.1C367.6,347.4,361.8,341.5,354.6,341.4z M270.8,359   c-50,0-97-26.6-122.6-69.5c-19.5-32.7-25.2-71.1-15.9-108c8.7-34.4,29.3-63.7,58.5-83.4L337,342.7C316.5,353.3,293.8,359,270.8,359   z"/>
</g>
<circle style="fill:#FFFFFF;" cx="270.7" cy="216.3" r="122.2"/>
<g>
	<path style="fill:#4CDBC4;" d="M319.3,125.6c-4.3-0.7-8.6-1.8-12.9-0.8c-4.6,1.1-9,4.6-13.7,3.9c-0.5,3.3-4.9,5.1-7.6,4.4   c-2.7-0.7-5-2.8-7.6-4.1c-6.7-3.2-14.9,0.8-18.5,8.2c-1.2,2.4-0.5,5.3,1.5,6.7l0,0c2.8,1.9,6.3-0.4,6.3-4.3c0-1.1-0.1-2.1-0.2-3.1   c1.6-0.6,3.3-0.8,4.9-0.4c2.6,7.8-3.3,17.6-10.3,17c-3-0.3-5.9-2.1-8.9-1.6s-5.6,5.3-3.2,7.6c-1,0.7-2,1.2-3.1,1.5   c-3.3,1.1-4.3,6.5-1.3,8.5c0.8,0.5,1.7,0.7,2.6,0.2c0.9-0.4,1.6-1.3,2.2-2.1c2-2.6,4-5.1,6-7.7c4.6,1.2,8.8,4,12.9,7.2   c1.7,1.3,3.7,1.2,5.5,0.2c1-0.5,2.1-0.5,2.9,0.5c2.7,0.2,5.2,3,5.4,6.3c-5.7,2.3-11.9,4.7-17.5,2c-2.7-1.3-5.1-3.7-8-4   c-5.3-0.5-9.8,6.3-15.1,5.6c-3.5,6.1-7.1,12.5-6.8,20.2c0.1,2.4,0.7,4.8,1.7,6.8c3.8,7.1,9.4,5.3,14.5,5.7c3.5,0.3,7.6,2.4,8.1,6.7   c0.2,1.7-0.3,3.5,0,5.2c0.2,1.2,0.8,2.2,1.3,3.3c1.6,3.5,1.9,7.7,2,11.7c0.2,5.8,0,11.8,1.3,17.4c0.5,2.4,1.5,4.7,2.9,6.6   c2.8,4.2,8.1,4.2,11.1,0.1l1.7-2.2c0.8-1,1.5-2.1,1.9-3.4c0.3-1.2,0.3-2.4,0.5-3.6c0.9-5.8,6.7-8.9,7.7-14.6   c0.6-3.3-0.5-6.8,0.2-10.1c0.6-3.2,2.8-5.5,4.9-7.7c2-2.2,4.2-4.7,4.6-7.9s-1.9-7.1-4.5-6.3c-5.1-7.3-9.2-15.6-12.1-24.5   c1.6-0.7,1-0.4,2.6-1.1c3.6,6.6,7.7,12.7,12.3,18.3c0.8,0.5,1.6,0.7,2.4,0.6c4-0.5,5.5-7.1,2.3-10.1c-2.2-2.1,12-5.1,17,2.2   c0.1,0.2,0.3,0.4,0.4,0.6c3,4.7,8.2,7,12.8,4.9c1-0.4,1.3-0.8,1.6-1.3c2.3-2.8,5.4-5.9,8.4-4.5c1.7,0.8,2.8,2.7,3.7,4.6   c1.4,3-0.2-1,1.8,1.5c0,0,5.8,3.4,5.2-0.7c-0.5-3,3.5-1.1,2.4-3.8c3.4,0.4,7-0.6,9.5-3.4c2.5-2.8,3.5-7.6,1.8-11.2   c-1.6-3.5-5.6-6.8-3.9-10.3c3.6-1.6,5.2-3.2,6.5,1.2c2.1-0.7,2.7-0.6,3.3-3.2c0.3-1.2,1.2-1.9,1.9-2.8c2.7-3.3,1.7-9.8-1.8-11.8   c-1.4-0.8-3-0.9-4.4-1.7s-2.6-2.7-2-4.4c0.8-0.4,1.5-0.7,2.3-1.1c-4.4-5.9-9.3-11.4-14.7-16.4C342.4,127.2,330.8,127.6,319.3,125.6   z"/>
	<path style="fill:#4CDBC4;" d="M155.9,197.3c2.6,2.1,5.6,3.1,8.2,5.1c1.4,1.1,2.8,2.6,3.6,4.4c1.3,2.7,3.5,4.7,6.2,4.7   c1,0,2.1,0,3.1,0c2.7,4.5-2.5,10-2.7,15.6c-0.3,7.8,8.8,11,11.6,18c1.2,2.8,1.2,6.1,1.4,9.3c0.5,11.9,2.6,23.6,6,34.8   c0.5,1.5,1,3.1,2.2,3.9c1.3,0.8,2.9-0.2,3.1-1.9c0.8-5.4,0.4-10.9-1.2-16c2.6-1.1,4-5.3,2.8-8.3c2.9-0.3,5.4-3.1,5.9-6.5   c0.2-1.5,0.1-3.1,0.7-4.4c1.7-3.5,7.1-2.2,8.3-5.9c0.7-2-0.3-4.1-0.3-6.2c-0.1-5.1,5.1-9.5,3.5-14.1c-0.6-1.6-1.9-2.7-3.1-3.6   c-6.4-5-12.8-9.9-19.2-14.9c-3.6-2.8-7.7-5.8-12-5.1c-3.7,0.6-7.5,3.8-11,1.9c0.3-2.4,0.6-5-0.2-7.3s-3.1-4-4.9-2.9   c0-2.8-2.2-4.8-4.4-4.3l-3.2,0.8c-2.8-3.7-0.8-10.1,2.9-12.5c3.6-2.3,8-1.7,12.1-0.8c-0.7,1.2,1,2.7,2.2,2c1.1-0.6,1.7-2.1,2.5-3.2   c1.3-1.7,3.3-2.3,5-3.5c1.5-1,2.9-2.8,2.8-4.8c-0.1-3.4,1.1-6.6,3.4-8.5c1.4-1.1,2.9-1.9,4.5-2.4c2.5-0.8,4.1-3.4,4.3-6.5   c0-0.3,0.1-0.6,0.2-0.9c0.7-2.4,3.6-3.5,5-1.7c0.5,1.3,0.9,2.6,1.4,4c0.7,0.7,1.7,0.9,2.5,0.6c0.6-1.5,1.2-3.1,1.9-4.6l-5.4-10.6   c-1.1-2.2-3.1-3.7-5.3-3.4c-4.1,0.5-4.2,7-7.2,9.5c-2.9,2.3-6.7,0-9.5-2.3c-1.2-1-2.6-2.7-1.9-4.3c2,1.8,3.9-2.6,6.3-3.4   c1.1-0.3,2.3,0.2,3.4-0.1c3.1-0.7,3.9-6.7,7-7.5c3.6-1,6.8,5.9,10.2,3.8c1.2-1.2,0.2-3.5-1-4.6s-2.8-2.1-3-3.9   c2.6-0.8,5-2.3,7.6-2.8s5.7,0.4,7,3.2c1.5,3.4-0.4,8.1,1.3,11.4c1.7,3.4,6.9,2.2,7.5-1.7c6.4-2.9,13.3-6.5,17.1-12.9   c1.1-1.9,0.2-4.6-1.8-4.9c-6.9-1-13.8-1.7-20.7-2c-4.9-0.2-9.9-0.3-14.6,1c-5.1,1.3-10,4.1-15,6.1c-20.9,17.3-35.9,41.5-41.7,69.1   C152.4,193.6,154,195.7,155.9,197.3z"/>
	<path style="fill:#4CDBC4;" d="M306.1,261.1c1.8-1.7,4.9-1.8,6.3-3.8c0.7-1.1,0.8-2.5,1.2-3.7c1.2-3.8,5.4-5.9,9.3-6   s7.7,1.4,11.4,3c3.8,1.6,8.2,4.2,8.1,8.4c0,2.4-1.7,4.5-3.7,6c-1.9,1.5-4.2,2.5-6,4c0,3.6,0,7.2-0.1,10.8c-5.8,3-12,5-18.4,6   c-4.6,0.7-10.1,0.4-12.8-3.4c-2.6-3.8-1-8.9,0.7-13.2c0.6-1.5,1.2-3,1.8-4.5C304.6,263.3,305.1,262,306.1,261.1z"/>
</g>
<g>
</g>
<g>
</g>
<g>
</g>
<g>
</g>
<g>
</g>
<g>
</g>
<g>
</g>
<g>
</g>
<g>
</g>
<g>
</g>
<g>
</g>
<g>
</g>
<g>
</g>
<g>
</g>
<g>
</g>
</svg>
