<?xml version="1.0" encoding="iso-8859-1"?>
<!-- Generator: Adobe Illustrator 19.0.0, SVG Export Plug-In . SVG Version: 6.00 Build 0)  -->
<svg xmlns="http://www.w3.org/2000/svg" xmlns:xlink="http://www.w3.org/1999/xlink" version="1.1" id="Layer_1" x="0px" y="0px" viewBox="0 0 505 505" style="enable-background:new 0 0 505 505;" xml:space="preserve">
<circle style="fill:#FFD05B;" cx="252.5" cy="252.5" r="252.5"/>
<rect x="168" y="121.5" style="fill:#FF7058;" width="169.1" height="19.2"/>
<polygon style="fill:#324A5E;" points="388.9,361.8 116.1,361.8 136.2,140.7 368.8,140.7 "/>
<path style="fill:#E6E9EE;" d="M211,324.4c-22.2,8.2-44.3,8.2-65.7,0c7.1-56.3,10.8-108.4,11.5-156.7c19.9-6.5,39.4-6.5,58.6,0  C211.3,216.1,209.7,268.2,211,324.4z"/>
<polygon style="fill:#54C0EB;" points="345.1,194.7 240.1,194.7 240.3,167.1 343.2,167.1 "/>
<g>
	<path style="fill:#E6E9EE;" d="M258.3,210h-16c-1.3,0-2.4,0.9-2.4,2l-0.1,13.2c0,1.1,1.1,2,2.4,2h16.2c1.4,0,2.5-0.9,2.4-2   l-0.1-13.2C260.8,210.9,259.7,210,258.3,210z"/>
	<path style="fill:#E6E9EE;" d="M301.1,210h-16c-1.3,0-2.4,0.9-2.4,2l0.3,13.2c0,1.1,1.1,2,2.5,2h16.2c1.4,0,2.4-0.9,2.4-2   l-0.5-13.2C303.5,210.9,302.4,210,301.1,210z"/>
	<path style="fill:#E6E9EE;" d="M343.8,210h-16c-1.3,0-2.4,0.9-2.3,2l0.7,13.2c0.1,1.1,1.2,2,2.6,2H345c1.4,0,2.4-0.9,2.3-2   l-0.9-13.2C346.3,210.9,345.1,210,343.8,210z"/>
	<path style="fill:#E6E9EE;" d="M258.5,242.5h-16.4c-1.4,0-2.5,0.9-2.5,2.1l-0.1,13.8c0,1.2,1.1,2.1,2.5,2.1h16.6   c1.4,0,2.5-1,2.5-2.1l-0.1-13.8C261,243.4,259.8,242.5,258.5,242.5z"/>
	<path style="fill:#E6E9EE;" d="M302.2,242.5h-16.4c-1.4,0-2.5,0.9-2.4,2.1l0.3,13.8c0,1.2,1.2,2.1,2.6,2.1h16.6   c1.4,0,2.5-1,2.4-2.1l-0.5-13.8C304.7,243.4,303.6,242.5,302.2,242.5z"/>
	<path style="fill:#E6E9EE;" d="M346,242.5h-16.4c-1.4,0-2.4,0.9-2.4,2.1l0.7,13.8c0.1,1.2,1.2,2.1,2.6,2.1h16.6   c1.4,0,2.5-1,2.4-2.1l-1-13.8C348.5,243.4,347.3,242.5,346,242.5z"/>
	<path style="fill:#E6E9EE;" d="M258.6,276.5h-16.8c-1.4,0-2.6,1-2.6,2.2l-0.1,14.5c0,1.2,1.1,2.2,2.6,2.2h17c1.4,0,2.6-1,2.6-2.2   l-0.1-14.5C261.2,277.5,260,276.5,258.6,276.5z"/>
	<path style="fill:#E6E9EE;" d="M303.4,276.5h-16.8c-1.4,0-2.5,1-2.5,2.2l0.3,14.5c0,1.2,1.2,2.2,2.6,2.2h17c1.4,0,2.5-1,2.5-2.2   l-0.5-14.5C306,277.5,304.9,276.5,303.4,276.5z"/>
	<path style="fill:#E6E9EE;" d="M348.3,276.5h-16.8c-1.4,0-2.5,1-2.4,2.2l0.8,14.5c0.1,1.2,1.3,2.2,2.7,2.2h17c1.4,0,2.5-1,2.4-2.2   l-1-14.5C350.9,277.5,349.7,276.5,348.3,276.5z"/>
</g>
<path style="fill:#F9B54C;" d="M258.8,317.9c0,4.2-3.8,7.6-8.6,7.6c-4.8,0-8.6-3.4-8.6-7.6s3.9-7.5,8.6-7.5S258.7,313.8,258.8,317.9  z"/>
<path style="fill:#84DBFF;" d="M304.9,317.9c0.2,4.2-3.6,7.6-8.4,7.6s-8.7-3.4-8.8-7.6c-0.1-4.2,3.6-7.5,8.4-7.5  C300.8,310.4,304.7,313.8,304.9,317.9z"/>
<path style="fill:#FF7058;" d="M351,317.9c0.3,4.2-3.3,7.6-8.1,7.6c-4.8,0-8.8-3.4-9.1-7.6c-0.2-4.2,3.4-7.5,8.1-7.5  C346.7,310.4,350.7,313.8,351,317.9z"/>
<polygon style="fill:#2B3B4E;" points="385.6,390.4 119.4,390.4 116.1,361.8 388.9,361.8 "/>
<rect x="183.4" y="67.3" style="fill:#FFFFFF;" width="138.2" height="73.5"/>
<g>
	<rect x="199.4" y="83" style="fill:#CED5E0;" width="106.3" height="9.3"/>
	<rect x="199.4" y="112.3" style="fill:#CED5E0;" width="106.3" height="9.3"/>
</g>
<g>
</g>
<g>
</g>
<g>
</g>
<g>
</g>
<g>
</g>
<g>
</g>
<g>
</g>
<g>
</g>
<g>
</g>
<g>
</g>
<g>
</g>
<g>
</g>
<g>
</g>
<g>
</g>
<g>
</g>
</svg>
