<?xml version="1.0" encoding="iso-8859-1"?>
<!-- Generator: Adobe Illustrator 19.0.0, SVG Export Plug-In . SVG Version: 6.00 Build 0)  -->
<svg xmlns="http://www.w3.org/2000/svg" xmlns:xlink="http://www.w3.org/1999/xlink" version="1.1" id="Layer_1" x="0px" y="0px" viewBox="0 0 505 505" style="enable-background:new 0 0 505 505;" xml:space="preserve">
<circle style="fill:#324A5E;" cx="252.5" cy="252.5" r="252.5"/>
<path style="fill:#FF7058;" d="M254.7,323.3c-62,0-112.4-50.4-112.4-112.4S192.7,98.5,254.7,98.5s112.4,50.4,112.4,112.4  S316.7,323.3,254.7,323.3z M254.7,114.3c-53.3,0-96.6,43.3-96.6,96.6s43.3,96.6,96.6,96.6s96.6-43.3,96.6-96.6  C351.3,157.6,308,114.3,254.7,114.3z"/>
<path style="fill:#E6E9EE;" d="M310.6,77.2H198.8c-1.5,0-2.8,1.3-2.8,2.8v82c0,1.5,1.3,2.8,2.8,2.8h111.8c1.5,0,2.8-1.3,2.8-2.8V80  C313.4,78.4,312.1,77.2,310.6,77.2z"/>
<rect x="205.5" y="86.7" style="fill:#54C0EB;" width="98.4" height="68.6"/>
<path style="fill:#FFFFFF;" d="M184,164.8v9.3c0,2.9,2.3,5.2,5.2,5.2h130.9c2.9,0,5.2-2.3,5.2-5.2v-9.3H184z"/>
<g>
	<rect x="198.3" y="169.4" style="fill:#E6E9EE;" width="46.8" height="5.5"/>
	<rect x="264" y="169.4" style="fill:#E6E9EE;" width="6" height="5.5"/>
	<rect x="277.7" y="169.4" style="fill:#E6E9EE;" width="6" height="5.5"/>
	<rect x="291.4" y="169.4" style="fill:#E6E9EE;" width="6" height="5.5"/>
	<rect x="305.2" y="169.4" style="fill:#E6E9EE;" width="6" height="5.5"/>
	<path style="fill:#E6E9EE;" d="M409.9,246.7H298.1c-1.5,0-2.8,1.3-2.8,2.8v82c0,1.5,1.3,2.8,2.8,2.8h111.8c1.5,0,2.8-1.3,2.8-2.8   v-82C412.7,248,411.4,246.7,409.9,246.7z"/>
</g>
<rect x="304.8" y="256.2" style="fill:#54C0EB;" width="98.4" height="68.6"/>
<path style="fill:#FFFFFF;" d="M283.3,334.3v9.3c0,2.9,2.3,5.2,5.2,5.2h130.9c2.9,0,5.2-2.3,5.2-5.2v-9.3H283.3z"/>
<g>
	<rect x="297.6" y="338.9" style="fill:#E6E9EE;" width="46.8" height="5.5"/>
	<rect x="363.3" y="338.9" style="fill:#E6E9EE;" width="6" height="5.5"/>
	<rect x="377" y="338.9" style="fill:#E6E9EE;" width="6" height="5.5"/>
	<rect x="390.7" y="338.9" style="fill:#E6E9EE;" width="6" height="5.5"/>
	<rect x="404.5" y="338.9" style="fill:#E6E9EE;" width="6" height="5.5"/>
	<path style="fill:#E6E9EE;" d="M206.9,246.7H95.1c-1.5,0-2.8,1.3-2.8,2.8v82c0,1.5,1.3,2.8,2.8,2.8h111.8c1.5,0,2.8-1.3,2.8-2.8   v-82C209.7,248,208.4,246.7,206.9,246.7z"/>
</g>
<rect x="101.8" y="256.2" style="fill:#54C0EB;" width="98.4" height="68.6"/>
<path style="fill:#FFFFFF;" d="M80.3,334.3v9.3c0,2.9,2.3,5.2,5.2,5.2h130.9c2.9,0,5.2-2.3,5.2-5.2v-9.3H80.3z"/>
<g>
	<rect x="94.6" y="338.9" style="fill:#E6E9EE;" width="46.8" height="5.5"/>
	<rect x="160.3" y="338.9" style="fill:#E6E9EE;" width="6" height="5.5"/>
	<rect x="174" y="338.9" style="fill:#E6E9EE;" width="6" height="5.5"/>
	<rect x="187.7" y="338.9" style="fill:#E6E9EE;" width="6" height="5.5"/>
	<rect x="201.5" y="338.9" style="fill:#E6E9EE;" width="6" height="5.5"/>
</g>
<g>
</g>
<g>
</g>
<g>
</g>
<g>
</g>
<g>
</g>
<g>
</g>
<g>
</g>
<g>
</g>
<g>
</g>
<g>
</g>
<g>
</g>
<g>
</g>
<g>
</g>
<g>
</g>
<g>
</g>
</svg>
