<?xml version="1.0" encoding="iso-8859-1"?>
<!-- Generator: Adobe Illustrator 19.0.0, SVG Export Plug-In . SVG Version: 6.00 Build 0)  -->
<svg xmlns="http://www.w3.org/2000/svg" xmlns:xlink="http://www.w3.org/1999/xlink" version="1.1" id="Layer_1" x="0px" y="0px" viewBox="0 0 505 505" style="enable-background:new 0 0 505 505;" xml:space="preserve">
<circle style="fill:#90DFAA;" cx="252.5" cy="252.5" r="252.5"/>
<g>
	<rect x="353.8" y="117.7" style="fill:#E6E9EE;" width="18.8" height="256.5"/>
	<rect x="132.5" y="117.7" style="fill:#E6E9EE;" width="18.8" height="256.5"/>
</g>
<path style="fill:#FFFFFF;" d="M277.2,258.7c-4.9-2.5-4.9-9.9,0-12.4c40.5-20.7,69.8-77.5,70-124.4H157.7  c0.2,46.9,29.5,103.7,70,124.4c4.9,2.5,4.9,9.9,0,12.4c-40.5,20.7-69.8,77.5-70,124.4h189.6C347.1,336.1,317.8,279.4,277.2,258.7z"/>
<path style="fill:#FF7058;" d="M268.6,275.5c-8.6-4.4-14-13.2-14-23c0-9.8,5.4-18.6,14-23c16.3-8.3,31.3-25,42.2-44.9H194.2  c10.9,19.9,25.9,36.6,42.2,44.9c8.6,4.4,14,13.2,14,23c0,9.8-5.4,18.6-14,23c-27.4,14-51.3,51.8-57.9,88.6h148.1  C320,327.4,296.1,289.5,268.6,275.5z"/>
<g>
	<path style="fill:#324A5E;" d="M372.2,101.6H132.8c-8.6,0-15.6,6.8-15.6,15.2s7,15.2,15.6,15.2h239.5c8.6,0,15.6-6.8,15.6-15.2   C387.8,108.4,380.8,101.6,372.2,101.6z"/>
	<path style="fill:#324A5E;" d="M372.2,373H132.8c-8.6,0-15.6,6.8-15.6,15.2c0,8.4,7,15.2,15.6,15.2h239.5c8.6,0,15.6-6.8,15.6-15.2   C387.8,379.8,380.8,373,372.2,373z"/>
</g>
<g>
</g>
<g>
</g>
<g>
</g>
<g>
</g>
<g>
</g>
<g>
</g>
<g>
</g>
<g>
</g>
<g>
</g>
<g>
</g>
<g>
</g>
<g>
</g>
<g>
</g>
<g>
</g>
<g>
</g>
</svg>
