<?xml version="1.0" encoding="iso-8859-1"?>
<!-- Generator: Adobe Illustrator 19.0.0, SVG Export Plug-In . SVG Version: 6.00 Build 0)  -->
<svg xmlns="http://www.w3.org/2000/svg" xmlns:xlink="http://www.w3.org/1999/xlink" version="1.1" id="Layer_1" x="0px" y="0px" viewBox="0 0 505 505" style="enable-background:new 0 0 505 505;" xml:space="preserve">
<circle style="fill:#324A5E;" cx="252.5" cy="252.5" r="252.5"/>
<path style="fill:#E6E9EE;" d="M340.4,142.6h-236c-2.9,0-5.3,2.4-5.3,5.3v188.9c0,2.9,2.4,5.3,5.3,5.3h236c2.9,0,5.3-2.4,5.3-5.3  V147.9C345.7,145,343.3,142.6,340.4,142.6z"/>
<rect x="117.3" y="160.8" style="fill:#54C0EB;" width="210.2" height="142.6"/>
<rect x="190" y="342" style="fill:#CED5E0;" width="64.7" height="32.8"/>
<rect x="155.4" y="374.9" style="fill:#E6E9EE;" width="134" height="25.7"/>
<circle style="fill:#FF7058;" cx="222.4" cy="322.7" r="7.2"/>
<polygon style="fill:#FFD05B;" points="256.6,111.6 256.6,209.9 327.5,160.8 "/>
<polygon style="fill:#F9B54C;" points="256.6,209.9 398.5,209.9 327.5,160.8 "/>
<polygon style="fill:#FFD05B;" points="327.5,160.8 398.5,209.9 398.5,111.6 "/>
<path style="fill:#E6E9EE;" d="M256.6,111.6l66.2,60.8c2.7,2.5,6.9,2.5,9.6,0l66.2-60.8C398.6,111.6,256.6,111.6,256.6,111.6z"/>
<g>
</g>
<g>
</g>
<g>
</g>
<g>
</g>
<g>
</g>
<g>
</g>
<g>
</g>
<g>
</g>
<g>
</g>
<g>
</g>
<g>
</g>
<g>
</g>
<g>
</g>
<g>
</g>
<g>
</g>
</svg>
