<?xml version="1.0" encoding="iso-8859-1"?>
<!-- Generator: Adobe Illustrator 19.0.0, SVG Export Plug-In . SVG Version: 6.00 Build 0)  -->
<svg xmlns="http://www.w3.org/2000/svg" xmlns:xlink="http://www.w3.org/1999/xlink" version="1.1" id="Layer_1" x="0px" y="0px" viewBox="0 0 505 505" style="enable-background:new 0 0 505 505;" xml:space="preserve">
<circle style="fill:#84DBFF;" cx="252.5" cy="252.5" r="252.5"/>
<rect x="127.1" y="125.5" style="fill:#FFFFFF;" width="250.8" height="181.1"/>
<rect x="112.9" y="101.4" style="fill:#324A5E;" width="279.2" height="23.4"/>
<path style="fill:#334A5E;" d="M304.7,363.7h-38.8v-57.1h-26.7v57.1h-38.8c-16.7,0-30.3,13.6-30.3,30.3v25.4h23.7V394  c0-3.6,3-6.6,6.6-6.6h38.8v32h26.7v-32h38.8c3.6,0,6.6,3,6.6,6.6v25.4H335V394C334.9,377.3,321.3,363.7,304.7,363.7z"/>
<rect x="153.9" y="142.8" style="fill:#FF7058;" width="34.2" height="34.2"/>
<rect x="153.9" y="198.9" style="fill:#F9B54C;" width="34.2" height="34.2"/>
<rect x="153.9" y="255" style="fill:#324A5E;" width="34.2" height="34.2"/>
<g>
	<rect x="203.4" y="154.3" style="fill:#CED5E0;" width="139.8" height="11.3"/>
	<rect x="203.4" y="210.4" style="fill:#CED5E0;" width="139.8" height="11.3"/>
	<rect x="203.4" y="266.5" style="fill:#CED5E0;" width="139.8" height="11.3"/>
</g>
<g>
</g>
<g>
</g>
<g>
</g>
<g>
</g>
<g>
</g>
<g>
</g>
<g>
</g>
<g>
</g>
<g>
</g>
<g>
</g>
<g>
</g>
<g>
</g>
<g>
</g>
<g>
</g>
<g>
</g>
</svg>
