<?xml version="1.0" encoding="iso-8859-1"?>
<!-- Generator: Adobe Illustrator 19.0.0, SVG Export Plug-In . SVG Version: 6.00 Build 0)  -->
<svg xmlns="http://www.w3.org/2000/svg" xmlns:xlink="http://www.w3.org/1999/xlink" version="1.1" id="Layer_1" x="0px" y="0px" viewBox="0 0 505 505" style="enable-background:new 0 0 505 505;" xml:space="preserve">
<circle style="fill:#FF7058;" cx="252.5" cy="252.5" r="252.5"/>
<path style="fill:#324A5E;" d="M176.3,240.2l154,5.4c-3.3-45.8,0.1-100.5,9.7-145.8c2.6-11.9-4.6-23.7-16.3-27.1  C281.2,60.5,238.3,59,195,68.2c-11.9,2.5-19.9,13.8-18.2,25.9C183.3,140,182.9,194.8,176.3,240.2z"/>
<path style="fill:#E6E9EE;" d="M356.4,191L341,246l-176.4-6.2l-11.5-56l-18,3.7l12.6,77.1c1.2,7.4,7.5,13,15,13.2L340,284  c7.5,0.3,14.2-4.8,15.9-12.2l18-76L356.4,191z"/>
<g>
	<path style="fill:#324A5E;" d="M343.6,229.2l26.9,0.9c3.2,0.1,6-2.5,5.8-5.7c-0.5-10.2,0.3-20.4,2.5-30.5c0.6-3-1.1-5.9-4.1-6.7   c-10.7-3-21.4-3.4-32.3-1.1c-3,0.6-5,3.4-4.5,6.4c1.5,10.2,1.6,20.4,0.3,30.6C337.8,226.2,340.4,229.1,343.6,229.2z"/>
	<path style="fill:#324A5E;" d="M163.2,222.8l-26.9-0.9c-3.2-0.1-5.8-2.9-5.4-6.1c1.3-10.2,1.2-20.4-0.3-30.6   c-0.4-3,1.5-5.8,4.5-6.4c10.8-2.2,21.6-1.9,32.3,1.1c2.9,0.8,4.7,3.7,4.1,6.7c-2.2,10.1-3,20.3-2.5,30.5   C169.2,220.3,166.5,222.9,163.2,222.8z"/>
</g>
<polygon style="fill:#2B3B4E;" points="277.8,315.8 279.2,281.9 229.9,280.2 228.5,314 228.4,314 277.9,315.8 "/>
<path style="fill:#324A5E;" d="M359.2,374.2c-21.1-31.3-54.4-48.3-65.7-51.7c-2.8-0.9-5.6-1.9-8.3-3.2l-7.3-3.5l-49.5-1.7l-8.4,3.2  c-2.5,0.9-5,1.7-7.6,2.3c-10.9,2.4-45.5,16.7-69,46.3c-13.9-0.5-25.3,11.9-22.8,26.5c1.5,8.5,8.1,15.6,16.5,17.7  c14.4,3.5,27.5-7,28-20.9c0.1-2.4-0.3-4.7-0.9-6.9c6.4-8.9,17.8-16.2,38.8-27.9c15.6-8.7,34.8,2.9,34.1,20.7l-0.1,3.6  c-6.4,4.7-10.4,12.6-9,21.6c1.3,8.8,8,16.1,16.6,18.2c14.4,3.5,27.5-7,28-21c0.3-7.2-3-13.6-8.1-17.9l0.1-3.6  c0.6-17.8,20.5-28,35.5-18.3c17.1,11.1,27.5,17.3,33.8,26c-3.1,4.8-4.5,10.8-2.9,17.4c2,8.1,8.6,14.7,16.8,16.4  c14.1,3.1,26.9-7.4,27.3-21.1C375.4,386,368.6,377.1,359.2,374.2z"/>
<g>
</g>
<g>
</g>
<g>
</g>
<g>
</g>
<g>
</g>
<g>
</g>
<g>
</g>
<g>
</g>
<g>
</g>
<g>
</g>
<g>
</g>
<g>
</g>
<g>
</g>
<g>
</g>
<g>
</g>
</svg>
