<?xml version="1.0" encoding="iso-8859-1"?>
<!-- Generator: Adobe Illustrator 19.0.0, SVG Export Plug-In . SVG Version: 6.00 Build 0)  -->
<svg xmlns="http://www.w3.org/2000/svg" xmlns:xlink="http://www.w3.org/1999/xlink" version="1.1" id="Layer_1" x="0px" y="0px" viewBox="0 0 505 505" style="enable-background:new 0 0 505 505;" xml:space="preserve">
<circle style="fill:#90DFAA;" cx="252.5" cy="252.5" r="252.5"/>
<path style="fill:#324A5E;" d="M384.5,115.9h-264c-4.5,0-8.2,3.7-8.2,8.2v192.8c0,4.5,3.7,8.2,8.2,8.2h264c4.5,0,8.2-3.7,8.2-8.2  V124.1C392.7,119.6,389.1,115.9,384.5,115.9z"/>
<rect x="132" y="135.6" style="fill:#FFFFFF;" width="241" height="169.7"/>
<path style="fill:#324A5E;" d="M89.6,344.8c0,15.8,12.8,28.5,28.5,28.5h268.6c15.8,0,28.5-12.8,28.5-28.5H89.6z"/>
<rect x="216.7" y="192.7" style="fill:#FF7058;" width="26.7" height="112.6"/>
<rect x="171.9" y="221" style="fill:#4CDBC4;" width="26.7" height="84.3"/>
<rect x="306.4" y="216.5" style="fill:#FFD05B;" width="26.7" height="88.8"/>
<rect x="261.6" y="165" style="fill:#324A5E;" width="26.7" height="140.3"/>
<g>
</g>
<g>
</g>
<g>
</g>
<g>
</g>
<g>
</g>
<g>
</g>
<g>
</g>
<g>
</g>
<g>
</g>
<g>
</g>
<g>
</g>
<g>
</g>
<g>
</g>
<g>
</g>
<g>
</g>
</svg>
