<?xml version="1.0" encoding="iso-8859-1"?>
<!-- Generator: Adobe Illustrator 19.0.0, SVG Export Plug-In . SVG Version: 6.00 Build 0)  -->
<svg xmlns="http://www.w3.org/2000/svg" xmlns:xlink="http://www.w3.org/1999/xlink" version="1.1" id="Layer_1" x="0px" y="0px" viewBox="0 0 505 505" style="enable-background:new 0 0 505 505;" xml:space="preserve">
<circle style="fill:#FFD05B;" cx="252.5" cy="252.5" r="252.5"/>
<path style="fill:#FFFFFF;" d="M252.5,55.7C144,55.7,55.7,144,55.7,252.5S144,449.3,252.5,449.3S449.3,361,449.3,252.5  S361,55.7,252.5,55.7z M355.1,240.7c-0.6-18.6-2.4-36.4-5.4-53.2c38.6,12.3,66.3,31.4,73.8,53.2H355.1z M331.4,240.7h-67.1v-67.1  c21.1,0.7,41.4,3.2,59.9,7.2C328.2,199.3,330.8,219.5,331.4,240.7z M264.3,149.9V81.4c21.8,7.5,40.9,35.3,53.2,73.8  C300.8,152.3,282.9,150.4,264.3,149.9z M240.7,81.4v68.5c-18.6,0.6-36.4,2.4-53.2,5.4C199.7,116.7,218.9,88.9,240.7,81.4z   M240.7,173.6v67.1h-67.1c0.7-21.1,3.2-41.4,7.2-59.9C199.3,176.8,219.5,174.3,240.7,173.6z M149.9,240.7H81.4  c7.5-21.8,35.3-40.9,73.8-53.2C152.3,204.2,150.4,222.1,149.9,240.7z M149.9,264.3c0.6,18.6,2.4,36.4,5.4,53.2  c-38.6-12.3-66.3-31.4-73.8-53.2H149.9z M173.6,264.3h67.1v67.1c-21.1-0.7-41.4-3.2-59.9-7.2C176.8,305.7,174.2,285.5,173.6,264.3z   M240.7,355.1v68.5c-21.8-7.5-40.9-35.3-53.2-73.8C204.2,352.7,222.1,354.6,240.7,355.1z M264.3,423.6v-68.5  c18.6-0.6,36.4-2.4,53.2-5.4C305.3,388.3,286.1,416.1,264.3,423.6z M264.3,331.4v-67.1h67.1c-0.7,21.1-3.2,41.4-7.2,59.9  C305.7,328.2,285.5,330.7,264.3,331.4z M355.1,264.3h68.5c-7.5,21.8-35.3,40.9-73.8,53.2C352.7,300.8,354.6,282.9,355.1,264.3z   M415.5,194.1c-18.1-13.9-42.6-25.3-71.6-33.1c-7.8-28.9-19.1-53.5-33.1-71.6C359.4,107,398,145.6,415.5,194.1z M194.1,89.5  c-13.9,18.1-25.3,42.6-33.1,71.6c-28.9,7.8-53.5,19.1-71.6,33.1C107,145.6,145.6,107,194.1,89.5z M89.5,310.9  c18.1,13.9,42.6,25.3,71.6,33.1c7.8,28.9,19.1,53.5,33.1,71.6C145.6,398,107,359.4,89.5,310.9z M310.9,415.5  c13.9-18.1,25.3-42.6,33.1-71.6c28.9-7.8,53.5-19.1,71.6-33.1C398,359.4,359.4,398,310.9,415.5z"/>
<path style="fill:#FF7058;" d="M380.3,307.3l-18.6-117.8l-117.8,18.6l32.3,23.5c-0.5,1.2-1.6,3.6-3.2,7.1c-1.3,2.5-2.9,5.3-4.8,8.8  c-2.2,3.2-4.4,7.1-7.5,10.9c-1.5,2-3,4.1-4.9,6c-1.8,2-3.5,4.3-5.7,6.2c-4.1,4.2-8.7,8.5-14,12.6c-2.6,2-5.3,4.2-8.3,6.1  c-1.5,1-2.9,2-4.4,3c-1.5,0.9-3.1,1.9-4.6,2.8c-6.2,3.9-13,7.3-19.9,10.6c-7,3.2-14.2,6.1-21.6,8.7c-7.3,2.6-14.8,4.8-22.1,6.7  c-7.3,1.9-14.5,3.5-21.4,4.7c-6.9,1.3-13.5,2.3-19.7,3.1c-12.3,1.6-22.7,2.2-30,2.5c-7.3,0.2-11.5,0.1-11.5,0.1l-0.2,1.1  c0,0,15.8,6.2,41.1,11.7c6.3,1.3,13.2,2.7,20.6,3.8c7.4,1.2,15.3,2.1,23.5,2.9c8.2,0.7,16.8,1.2,25.7,1.2c8.8,0.1,17.9-0.3,27.1-1.1  c9.1-0.9,18.4-2.1,27.5-4c2.3-0.5,4.6-1,6.8-1.4c2.3-0.6,4.5-1.2,6.8-1.7c4.5-1.1,8.9-2.6,13.3-4c8.7-2.9,17.1-6.3,24.9-10  c4-1.7,7.6-3.9,11.3-5.8c3.7-1.9,7-4.1,10.3-6.1c6.7-4,12.3-8.5,17.4-12.2c4.9-4.1,9.2-7.7,12.6-10.8c4.6-4.5,7.8-7.7,9.3-9.2  L380.3,307.3z"/>
<g>
</g>
<g>
</g>
<g>
</g>
<g>
</g>
<g>
</g>
<g>
</g>
<g>
</g>
<g>
</g>
<g>
</g>
<g>
</g>
<g>
</g>
<g>
</g>
<g>
</g>
<g>
</g>
<g>
</g>
</svg>
