<?xml version="1.0" encoding="iso-8859-1"?>
<!-- Generator: Adobe Illustrator 19.0.0, SVG Export Plug-In . SVG Version: 6.00 Build 0)  -->
<svg xmlns="http://www.w3.org/2000/svg" xmlns:xlink="http://www.w3.org/1999/xlink" version="1.1" id="Layer_1" x="0px" y="0px" viewBox="0 0 505 505" style="enable-background:new 0 0 505 505;" xml:space="preserve">
<circle style="fill:#324A5E;" cx="252.5" cy="252.5" r="252.5"/>
<path style="fill:#E6E9EE;" d="M411,343.7c-52.1-6.4-106.6,0.6-158.6,20.4c0-78.1,0-154.3,0-228.7c50.2-18.5,102.7-25,153-19  C407.3,190.4,409.1,266.1,411,343.7z"/>
<g>
	<path style="fill:#4CDBC4;" d="M383.7,149.6c-36-1.6-72.8,3-108.7,13.6c0-3,0-6.1,0-9.1c35.9-10.6,72.6-15.2,108.5-13.6   C383.6,143.6,383.7,146.6,383.7,149.6z"/>
	<path style="fill:#4CDBC4;" d="M384.4,181.9c-36.2-1.6-73.1,3-109.3,13.7c0-3.1,0-6.1,0-9.2c36.1-10.7,73-15.3,109.1-13.7   C384.3,175.7,384.3,178.8,384.4,181.9z"/>
	<path style="fill:#4CDBC4;" d="M385.1,214.4c-36.4-1.6-73.5,3-109.8,13.9c0-3.1,0-6.2,0-9.3c36.3-10.8,73.4-15.5,109.7-13.8   C385,208.2,385,211.3,385.1,214.4z"/>
	<path style="fill:#4CDBC4;" d="M385.8,247.3c-36.5-1.7-73.9,3.1-110.4,14c0-3.1,0-6.3,0-9.4c36.4-10.9,73.7-15.6,110.2-14   C385.6,241,385.7,244.1,385.8,247.3z"/>
	<path style="fill:#4CDBC4;" d="M386.5,280.5c-36.7-1.7-74.3,3.1-110.9,14.2c0-3.2,0-6.3,0-9.5c36.6-11,74.1-15.8,110.8-14.1   C386.3,274.2,386.4,277.3,386.5,280.5z"/>
	<path style="fill:#4CDBC4;" d="M387.2,314c-36.9-1.7-74.6,3.1-111.5,14.3c0-3.2,0-6.4,0-9.6c36.8-11.1,74.5-16,111.4-14.3   C387,307.6,387.1,310.8,387.2,314z"/>
</g>
<path style="fill:#FFFFFF;" d="M94,343.7c52.1-6.4,106.6,0.6,158.6,20.4c0-78.1,0-154.3,0-228.7c-50.2-18.5-102.7-25-153-19  C97.7,190.4,95.9,266.1,94,343.7z"/>
<g>
	<path style="fill:#4CDBC4;" d="M121.3,149.6c36-1.6,72.8,3,108.7,13.6c0-3,0-6.1,0-9.1c-35.9-10.6-72.6-15.2-108.5-13.6   C121.4,143.6,121.3,146.6,121.3,149.6z"/>
	<path style="fill:#4CDBC4;" d="M120.6,181.9c36.2-1.6,73.1,3,109.3,13.7c0-3.1,0-6.1,0-9.2c-36.1-10.7-73-15.3-109.1-13.7   C120.7,175.7,120.7,178.8,120.6,181.9z"/>
	<path style="fill:#4CDBC4;" d="M119.9,214.4c36.4-1.6,73.5,3,109.8,13.9c0-3.1,0-6.2,0-9.3c-36.3-10.8-73.4-15.5-109.7-13.8   C120,208.2,120,211.3,119.9,214.4z"/>
	<path style="fill:#4CDBC4;" d="M119.2,247.3c36.5-1.7,73.9,3.1,110.4,14c0-3.1,0-6.3,0-9.4c-36.4-10.9-73.7-15.6-110.2-14   C119.4,241,119.3,244.1,119.2,247.3z"/>
	<path style="fill:#4CDBC4;" d="M118.5,280.5c36.7-1.7,74.3,3.1,111,14.2c0-3.2,0-6.3,0-9.5c-36.6-11-74.1-15.8-110.8-14.1   C118.7,274.2,118.6,277.3,118.5,280.5z"/>
	<path style="fill:#4CDBC4;" d="M117.8,314c36.9-1.7,74.6,3.1,111.5,14.3c0-3.2,0-6.4,0-9.6c-36.8-11.1-74.5-16-111.4-14.3   C118,307.6,117.9,310.8,117.8,314z"/>
</g>
<path style="fill:#FF7058;" d="M380.9,272.9c-6.4-0.3-11.8,4.8-11.8,11.1v-3.1c0-6-4.5-11.5-10.6-11.8c-6.4-0.3-11.8,4.8-11.8,11.1  v-3.1c0-6-4.5-11.5-10.6-11.8c-6.4-0.3-11.8,4.8-11.8,11.1v-51.9c0-6-4.5-11.5-10.6-11.8c-6.4-0.3-11.8,4.8-11.8,11.1v131.7h-0.1  l-8.2-12.2v-11.2c0-12.1-9.8-21.9-21.9-21.9v45.2l30.1,35h74.7c8.1,0,14.7-6.6,14.7-14.7v-91.4C391.5,278.7,387,273.2,380.9,272.9z"/>
<g>
</g>
<g>
</g>
<g>
</g>
<g>
</g>
<g>
</g>
<g>
</g>
<g>
</g>
<g>
</g>
<g>
</g>
<g>
</g>
<g>
</g>
<g>
</g>
<g>
</g>
<g>
</g>
<g>
</g>
</svg>
