<?xml version="1.0" encoding="iso-8859-1"?>
<!-- Generator: Adobe Illustrator 19.0.0, SVG Export Plug-In . SVG Version: 6.00 Build 0)  -->
<svg xmlns="http://www.w3.org/2000/svg" xmlns:xlink="http://www.w3.org/1999/xlink" version="1.1" id="Layer_1" x="0px" y="0px" viewBox="0 0 505 505" style="enable-background:new 0 0 505 505;" xml:space="preserve">
<circle style="fill:#90DFAA;" cx="252.5" cy="252.5" r="252.5"/>
<path style="fill:#324A5E;" d="M374.3,404H172.2c-22.9,0-41.5-18.6-41.5-41.5V130.7l243.6,29.7V404z"/>
<path style="fill:#2B3B4E;" d="M160.4,101c-16.4,0-29.7,13.3-29.7,29.7s13.3,29.7,29.7,29.7h213.9v-15.9c-3.4-3.2-5.7-8.2-5.7-13.8  s2.2-10.6,5.7-13.8V101C374.3,101,160.4,101,160.4,101z"/>
<path style="fill:#FFFFFF;" d="M368.7,130.7c0-5.6,2.2-10.6,5.7-13.8v-0.3h-214c-7.8,0-14.1,6.3-14.1,14.1s6.3,14.1,14.1,14.1h213.9  v-0.3C370.9,141.3,368.7,136.3,368.7,130.7z"/>
<g>
</g>
<g>
</g>
<g>
</g>
<g>
</g>
<g>
</g>
<g>
</g>
<g>
</g>
<g>
</g>
<g>
</g>
<g>
</g>
<g>
</g>
<g>
</g>
<g>
</g>
<g>
</g>
<g>
</g>
</svg>
