<?xml version="1.0" encoding="iso-8859-1"?>
<!-- Generator: Adobe Illustrator 19.0.0, SVG Export Plug-In . SVG Version: 6.00 Build 0)  -->
<svg xmlns="http://www.w3.org/2000/svg" xmlns:xlink="http://www.w3.org/1999/xlink" version="1.1" id="Layer_1" x="0px" y="0px" viewBox="0 0 505 505" style="enable-background:new 0 0 505 505;" xml:space="preserve">
<circle style="fill:#FFD05B;" cx="252.5" cy="252.5" r="252.5"/>
<rect x="125.3" y="96.1" style="fill:#FFFFFF;" width="254.5" height="280.1"/>
<g>
	<rect x="152.5" y="124.7" style="fill:#4CDBC4;" width="199.9" height="17.3"/>
	<rect x="152.5" y="174.3" style="fill:#4CDBC4;" width="199.9" height="17.3"/>
	<rect x="152.5" y="223.9" style="fill:#4CDBC4;" width="199.9" height="17.3"/>
	<rect x="152.5" y="273.6" style="fill:#4CDBC4;" width="199.9" height="17.3"/>
	<rect x="152.5" y="323.2" style="fill:#4CDBC4;" width="199.9" height="17.3"/>
</g>
<polygon style="fill:#F1543F;" points="337.5,422.2 314.7,401.6 292,422.2 292,323.2 337.5,323.2 "/>
<path style="fill:#FF7058;" d="M358.4,292.2c-3-1.8-4.5-5.5-3.7-8.9c1.2-4.9-0.1-10.4-3.9-14.2c-3.9-3.9-9.3-5.2-14.2-3.9  c-3.4,0.8-7.1-0.7-8.9-3.7c-2.6-4.4-7.4-7.3-12.8-7.3c-5.5,0-10.2,2.9-12.8,7.3c-1.8,3-5.5,4.5-8.9,3.7c-4.9-1.2-10.4,0.1-14.2,3.9  c-3.9,3.9-5.2,9.3-3.9,14.2c0.8,3.4-0.7,7.1-3.7,8.9c-4.4,2.6-7.3,7.4-7.3,12.8c0,5.5,2.9,10.2,7.3,12.8c3,1.8,4.5,5.5,3.7,8.9  c-1.2,4.9,0.1,10.4,3.9,14.2c3.9,3.9,9.3,5.2,14.2,3.9c3.4-0.8,7.1,0.7,8.9,3.7c2.6,4.4,7.4,7.3,12.8,7.3c5.5,0,10.2-2.9,12.8-7.3  c1.8-3,5.5-4.5,8.9-3.7c4.9,1.2,10.4-0.1,14.2-3.9s5.2-9.3,3.9-14.2c-0.8-3.4,0.7-7.1,3.7-8.9c4.4-2.6,7.3-7.4,7.3-12.8  C365.6,299.6,362.7,294.8,358.4,292.2z"/>
<circle style="fill:#E6E9EE;" cx="314.7" cy="305" r="25"/>
<g>
</g>
<g>
</g>
<g>
</g>
<g>
</g>
<g>
</g>
<g>
</g>
<g>
</g>
<g>
</g>
<g>
</g>
<g>
</g>
<g>
</g>
<g>
</g>
<g>
</g>
<g>
</g>
<g>
</g>
</svg>
