<?xml version="1.0" encoding="iso-8859-1"?>
<!-- Generator: Adobe Illustrator 19.0.0, SVG Export Plug-In . SVG Version: 6.00 Build 0)  -->
<svg xmlns="http://www.w3.org/2000/svg" xmlns:xlink="http://www.w3.org/1999/xlink" version="1.1" id="Layer_1" x="0px" y="0px" viewBox="0 0 505 505" style="enable-background:new 0 0 505 505;" xml:space="preserve">
<circle style="fill:#84DBFF;" cx="252.5" cy="252.5" r="252.5"/>
<path style="fill:#FF7058;" d="M284.3,423.8h-94.7c-20.9,0-37.9-17-37.9-37.9v-6.7c0-20.9,17-37.9,37.9-37.9h6.2  c10.4,0,18.9-8.5,18.9-18.9s-8.5-18.9-18.9-18.9h-80.4c-20.9,0-37.9-17-37.9-37.9v-31.5c0-20.9,17-37.9,37.9-37.9h33.3  c10.4,0,18.9-8.5,18.9-18.9v-23.8h19v24c0,20.9-17,37.9-37.9,37.9h-33.3c-10.4,0-18.9,8.5-18.9,18.9v31.5c0,10.4,8.5,18.9,18.9,18.9  h80.4c20.9,0,37.9,17,37.9,37.9s-17,37.9-37.9,37.9h-6.2c-10.4,0-18.9,8.5-18.9,18.9v6.7c0,10.4,8.5,18.9,18.9,18.9h94.7  c10.4,0,18.9-8.5,18.9-18.9v-126h19v126C322.2,406.8,305.2,423.8,284.3,423.8z"/>
<path style="fill:#2B3B4E;" d="M390.8,159.1H234.7c-2.8,0-5.1,2.3-5.1,5.1v22.7c0,2.8,2.3,5.1,5.1,5.1h156.1c2.8,0,5.1-2.3,5.1-5.1  v-22.7C395.9,161.4,393.6,159.1,390.8,159.1z"/>
<path style="fill:#324A5E;" d="M240.4,192c0.3,47.6,32.6,86,72.4,86s72-38.4,72.4-86H240.4z"/>
<g>
	<path style="fill:#FFFFFF;" d="M282.1,159.1h-25v-49.6c0-6.9,5.6-12.5,12.5-12.5l0,0c6.9,0,12.5,5.6,12.5,12.5V159.1z"/>
	<path style="fill:#FFFFFF;" d="M368.3,159.1h-25v-49.6c0-6.9,5.6-12.5,12.5-12.5l0,0c6.9,0,12.5,5.6,12.5,12.5V159.1z"/>
</g>
<g>
</g>
<g>
</g>
<g>
</g>
<g>
</g>
<g>
</g>
<g>
</g>
<g>
</g>
<g>
</g>
<g>
</g>
<g>
</g>
<g>
</g>
<g>
</g>
<g>
</g>
<g>
</g>
<g>
</g>
</svg>
