<?xml version="1.0" encoding="iso-8859-1"?>
<!-- Generator: Adobe Illustrator 19.0.0, SVG Export Plug-In . SVG Version: 6.00 Build 0)  -->
<svg xmlns="http://www.w3.org/2000/svg" xmlns:xlink="http://www.w3.org/1999/xlink" version="1.1" id="Layer_1" x="0px" y="0px" viewBox="0 0 505 505" style="enable-background:new 0 0 505 505;" xml:space="preserve">
<circle style="fill:#324A5E;" cx="252.5" cy="252.5" r="252.5"/>
<g>
	<path style="fill:#FF7058;" d="M227.6,252.4c0,0-44.7,45-52,94.2l21.3-9.7l18.2,18.2c0,0,2.2-55.3,37.3-80.3L227.6,252.4z"/>
	<path style="fill:#FF7058;" d="M275.2,252.4c0,0,44.7,45,52,94.2l-21.3-9.7l-18.2,18.2c0,0-2.2-55.3-37.3-80.3L275.2,252.4z"/>
</g>
<path style="fill:#FFFFFF;" d="M423.3,181.5l-170.1,18.9c-0.4,0-0.9,0-1.3,0L81.7,181.5c-3.6-0.4-6.7,2.4-6.7,6v92.7  c0,3.6,3.1,6.4,6.7,6l170.1-18.9c0.4,0,0.9,0,1.3,0l170.1,18.9c3.6,0.4,6.7-2.4,6.7-6v-92.7C430,183.9,426.9,181.1,423.3,181.5z"/>
<path style="fill:#4CDBC4;" d="M297,222.9c-3.3-3.8-5.3-8.7-5.7-13.7c-0.3-3.8-1.9-7.6-4.9-10.5l0,0c-2.9-2.9-6.7-4.6-10.5-4.9  c-5-0.4-9.8-2.4-13.7-5.7c-2.9-2.5-6.7-4-10.9-4l0,0c-4.1,0-7.9,1.5-10.9,4c-3.8,3.3-8.7,5.3-13.7,5.7c-3.8,0.3-7.6,1.9-10.5,4.9  l0,0c-2.9,2.9-4.6,6.7-4.9,10.5c-0.4,5-2.4,9.8-5.7,13.7c-2.5,2.9-4,6.7-4,10.9l0,0c0,4.1,1.5,7.9,4,10.9c3.3,3.8,5.3,8.7,5.7,13.7  c0.3,3.8,1.9,7.6,4.9,10.5l0,0c2.9,2.9,6.7,4.6,10.5,4.9c5,0.4,9.8,2.4,13.7,5.7c2.9,2.5,6.7,4,10.9,4l0,0c4.1,0,7.9-1.5,10.9-4  c3.8-3.3,8.7-5.3,13.7-5.7c3.8-0.3,7.6-1.9,10.5-4.9l0,0c2.9-2.9,4.5-6.7,4.9-10.5c0.4-5,2.4-9.8,5.7-13.7c2.5-2.9,4-6.7,4-10.9l0,0  C301,229.7,299.5,225.9,297,222.9z"/>
<circle style="fill:#FF7058;" cx="251.4" cy="233.8" r="24.7"/>
<g>
</g>
<g>
</g>
<g>
</g>
<g>
</g>
<g>
</g>
<g>
</g>
<g>
</g>
<g>
</g>
<g>
</g>
<g>
</g>
<g>
</g>
<g>
</g>
<g>
</g>
<g>
</g>
<g>
</g>
</svg>
