<?xml version="1.0" encoding="iso-8859-1"?>
<!-- Generator: Adobe Illustrator 19.0.0, SVG Export Plug-In . SVG Version: 6.00 Build 0)  -->
<svg xmlns="http://www.w3.org/2000/svg" xmlns:xlink="http://www.w3.org/1999/xlink" version="1.1" id="Layer_1" x="0px" y="0px" viewBox="0 0 505 505" style="enable-background:new 0 0 505 505;" xml:space="preserve">
<circle style="fill:#84DBFF;" cx="252.5" cy="252.5" r="252.5"/>
<g>
	<ellipse style="fill:#FFFFFF;" cx="252.5" cy="142.3" rx="133.6" ry="54.5"/>
	<path style="fill:#FFFFFF;" d="M386.1,142.3H118.9l47.9,241.6h0.2c2.1,18.5,39.5,33.3,85.5,33.3s83.4-14.7,85.5-33.3h0.2   L386.1,142.3z"/>
</g>
<path style="fill:#E6E9EE;" d="M252.5,179.2c-71.9,0-115.9-23.9-115.9-36.9c0-13,44-36.9,115.9-36.9s115.9,23.9,115.9,36.9  C368.4,155.3,324.4,179.2,252.5,179.2z"/>
<g>
	<circle style="fill:#84DBFF;" cx="198.8" cy="217.3" r="10.1"/>
	<circle style="fill:#84DBFF;" cx="158.5" cy="207.2" r="10.1"/>
	<circle style="fill:#84DBFF;" cx="173.8" cy="269.4" r="10.1"/>
	<circle style="fill:#84DBFF;" cx="213.8" cy="257.7" r="10.1"/>
	<circle style="fill:#84DBFF;" cx="252.5" cy="227.4" r="10.1"/>
	<circle style="fill:#84DBFF;" cx="262" cy="274.3" r="10.1"/>
	<circle style="fill:#84DBFF;" cx="300.3" cy="244" r="10.1"/>
	<circle style="fill:#84DBFF;" cx="334.2" cy="207.2" r="10.1"/>
	<circle style="fill:#84DBFF;" cx="325.7" cy="284.4" r="10.1"/>
	<circle style="fill:#84DBFF;" cx="285.3" cy="318" r="10.1"/>
	<circle style="fill:#84DBFF;" cx="230.4" cy="307.9" r="10.1"/>
	<circle style="fill:#84DBFF;" cx="188.7" cy="328.1" r="10.1"/>
	<circle style="fill:#84DBFF;" cx="246.2" cy="348.1" r="10.1"/>
	<circle style="fill:#84DBFF;" cx="285.3" cy="381.8" r="10.1"/>
	<circle style="fill:#84DBFF;" cx="315.6" cy="345.5" r="10.1"/>
	<circle style="fill:#84DBFF;" cx="213.8" cy="386.7" r="10.1"/>
</g>
<g>
</g>
<g>
</g>
<g>
</g>
<g>
</g>
<g>
</g>
<g>
</g>
<g>
</g>
<g>
</g>
<g>
</g>
<g>
</g>
<g>
</g>
<g>
</g>
<g>
</g>
<g>
</g>
<g>
</g>
</svg>
