<?xml version="1.0" encoding="iso-8859-1"?>
<!-- Generator: Adobe Illustrator 19.0.0, SVG Export Plug-In . SVG Version: 6.00 Build 0)  -->
<svg version="1.1" id="Layer_1" xmlns="http://www.w3.org/2000/svg" xmlns:xlink="http://www.w3.org/1999/xlink" x="0px" y="0px"
	 viewBox="0 0 508 508" style="enable-background:new 0 0 508 508;" xml:space="preserve">
<circle style="fill:#324A5E;" cx="254" cy="254" r="254"/>
<path style="fill:#FFD05B;" d="M395.6,402.8H112.4c-6.4,0-11.6-5.2-11.6-11.6V116.4c0-6.4,5.2-11.6,11.6-11.6h283.2
	c6.4,0,11.6,5.2,11.6,11.6v274.8C406.8,397.6,402,402.8,395.6,402.8z"/>
<g>
	<polygon style="fill:#F9B54C;" points="165.6,120.4 165.6,130.8 154.8,120.4 	"/>
	<polygon style="fill:#F9B54C;" points="116.8,151.2 165.6,200.4 165.6,387.6 116.8,387.6 	"/>
	<polygon style="fill:#F9B54C;" points="222,120.4 222,187.6 173.2,138.4 173.2,120.4 	"/>
	<polygon style="fill:#F9B54C;" points="173.2,207.6 222,256.8 222,387.6 173.2,387.6 	"/>
	<polygon style="fill:#F9B54C;" points="278.4,120.4 278.4,244 229.6,194.8 229.6,120.4 	"/>
	<polygon style="fill:#F9B54C;" points="229.6,264 278.4,313.2 278.4,387.6 229.6,387.6 	"/>
	<polygon style="fill:#F9B54C;" points="334.8,120.4 334.8,300.4 286,251.2 286,120.4 	"/>
	<polygon style="fill:#F9B54C;" points="286,320.4 334.8,369.6 334.8,387.6 286,387.6 	"/>
	<polygon style="fill:#F9B54C;" points="342.4,376.8 353.2,387.6 342.4,387.6 	"/>
	<polygon style="fill:#F9B54C;" points="391.2,120.4 391.2,356.8 342.4,307.6 342.4,120.4 	"/>
</g>
<g>
</g>
<g>
</g>
<g>
</g>
<g>
</g>
<g>
</g>
<g>
</g>
<g>
</g>
<g>
</g>
<g>
</g>
<g>
</g>
<g>
</g>
<g>
</g>
<g>
</g>
<g>
</g>
<g>
</g>
</svg>
