<?xml version="1.0" encoding="iso-8859-1"?>
<!-- Generator: Adobe Illustrator 19.0.0, SVG Export Plug-In . SVG Version: 6.00 Build 0)  -->
<svg version="1.1" id="Layer_1" xmlns="http://www.w3.org/2000/svg" xmlns:xlink="http://www.w3.org/1999/xlink" x="0px" y="0px"
	 viewBox="0 0 508 508" style="enable-background:new 0 0 508 508;" xml:space="preserve">
<circle style="fill:#FD8469;" cx="254" cy="254" r="254"/>
<path style="fill:#FFFFFF;" d="M391.2,402.8H116.8c-11.2,0-20-9.2-20-20V125.2c0-11.2,9.2-20,20-20h274.8c11.2,0,20,9.2,20,20v257.6
	C411.6,394,402.4,402.8,391.2,402.8z"/>
<polygon style="fill:#FFD05B;" points="254,105.2 220.8,105.2 220.8,170 254,148 287.2,170 287.2,105.2 "/>
<circle style="fill:#324A5E;" cx="272.4" cy="287.2" r="91.6"/>
<circle style="fill:#84DBFF;" cx="272.4" cy="287.2" r="70.8"/>
<path style="fill:#FFD05B;" d="M353.6,354.4L340,368c-2.8,2.8-2.8,7.2,0,10l57.6,57.6c2.8,2.8,7.2,2.8,10,0l13.6-13.6
	c2.8-2.8,2.8-7.2,0-10l-58-57.6C360.8,352,356,352,353.6,354.4z"/>
<ellipse transform="matrix(0.5694 -0.8221 0.8221 0.5694 -110.9317 305.7547)" style="fill:#FFFFFF;" cx="236.385" cy="258.765" rx="17.601" ry="8.4"/>
<path style="fill:#2B3B4E;" d="M354,354.4c0,0-14,14-14.4,14.4l-10-10c5.2-4.4,10-8.8,14.4-14.4L354,354.4z"/>
<g>
</g>
<g>
</g>
<g>
</g>
<g>
</g>
<g>
</g>
<g>
</g>
<g>
</g>
<g>
</g>
<g>
</g>
<g>
</g>
<g>
</g>
<g>
</g>
<g>
</g>
<g>
</g>
<g>
</g>
</svg>
