<?xml version="1.0" encoding="iso-8859-1"?>
<!-- Generator: Adobe Illustrator 19.0.0, SVG Export Plug-In . SVG Version: 6.00 Build 0)  -->
<svg version="1.1" id="Layer_1" xmlns="http://www.w3.org/2000/svg" xmlns:xlink="http://www.w3.org/1999/xlink" x="0px" y="0px"
	 viewBox="0 0 508 508" style="enable-background:new 0 0 508 508;" xml:space="preserve">
<circle style="fill:#FFD05B;" cx="254" cy="254" r="254"/>
<path style="fill:#FFFFFF;" d="M390.4,409.2H117.6c-10.4,0-18.8-8.4-18.8-18.8V117.6c0-10.4,8.4-18.8,18.8-18.8h273.2
	c10.4,0,18.8,8.4,18.8,18.8v273.2C409.2,400.8,400.8,409.2,390.4,409.2z"/>
<path style="fill:#FF7058;" d="M409.2,149.6v-32.4c0-10.4-8.4-18.8-18.8-18.8H117.2c-10.4,0-18.8,8.4-18.8,18.8v32.4H409.2z"/>
<g>
	<path style="fill:#FFFFFF;" d="M316,134.8L316,134.8c-6,0-10.8-4.8-10.8-10.8l0,0c0-6,4.8-10.8,10.8-10.8l0,0
		c6,0,10.8,4.8,10.8,10.8l0,0C326.4,130,321.6,134.8,316,134.8z"/>
	<path style="fill:#FFFFFF;" d="M347.6,134.8L347.6,134.8c-6,0-10.8-4.8-10.8-10.8l0,0c0-6,4.8-10.8,10.8-10.8l0,0
		c6,0,10.8,4.8,10.8,10.8l0,0C358.4,130,353.6,134.8,347.6,134.8z"/>
	<path style="fill:#FFFFFF;" d="M379.2,134.8L379.2,134.8c-6,0-10.8-4.8-10.8-10.8l0,0c0-6,4.8-10.8,10.8-10.8l0,0
		c6,0,10.8,4.8,10.8,10.8l0,0C390,130,385.2,134.8,379.2,134.8z"/>
</g>
<g>
	<path style="fill:#E6E9EE;" d="M360.8,209.2v-8h-35.6V166h-8v35.6H190.8V166h-8v35.6h-35.6v8h35.6V336h-35.6v8h35.6v35.6h8V344
		h126.4v35.6h8V344h35.6v-8h-35.6V209.2H360.8z M317.2,209.2v126.4H190.8V209.2H317.2z"/>
	<polygon style="fill:#E6E9EE;" points="290,268.8 258,268.8 258,236.4 250,236.4 250,268.8 218,268.8 218,276.4 250,276.4 
		250,308.8 258,308.8 258,276.4 290,276.4 	"/>
</g>
<g>
</g>
<g>
</g>
<g>
</g>
<g>
</g>
<g>
</g>
<g>
</g>
<g>
</g>
<g>
</g>
<g>
</g>
<g>
</g>
<g>
</g>
<g>
</g>
<g>
</g>
<g>
</g>
<g>
</g>
</svg>
