<?xml version="1.0" encoding="iso-8859-1"?>
<!-- Generator: Adobe Illustrator 19.0.0, SVG Export Plug-In . SVG Version: 6.00 Build 0)  -->
<svg version="1.1" id="Layer_1" xmlns="http://www.w3.org/2000/svg" xmlns:xlink="http://www.w3.org/1999/xlink" x="0px" y="0px"
	 viewBox="0 0 508 508" style="enable-background:new 0 0 508 508;" xml:space="preserve">
<circle style="fill:#90DFAA;" cx="254" cy="254" r="254"/>
<path style="fill:#324A5E;" d="M376.8,415.6H131.2c-8.8,0-15.6-6.8-15.6-15.6V116.4c0-8.8,6.8-15.6,15.6-15.6h245.2
	c8.8,0,15.6,6.8,15.6,15.6V400C392.4,408.4,385.2,415.6,376.8,415.6z"/>
<polygon style="fill:#FFFFFF;" points="137.6,112.8 137.6,394.8 322,394.8 322,346 370.4,346 370.4,112.8 "/>
<polygon style="fill:#E6E9EE;" points="322,394.8 370.4,346 322,346 "/>
<path style="fill:#FF7058;" d="M275.2,79.2L275.2,79.2c0-11.6-9.6-21.2-21.2-21.2l0,0c-11.6,0-21.2,9.6-21.2,21.2l0,0
	c0,5.2-3.6,10-8.8,11.6c-19.6,6.4-36.4,18.4-48.4,34.8H332c-12-16-28.8-28.4-48.4-34.8C278.4,89.6,275.2,84.8,275.2,79.2z"/>
<circle style="fill:#FFFFFF;" cx="254" cy="80" r="10"/>
<g>
	<path style="fill:#F1543F;" d="M281.2,107.6h-54.4c-1.6,0-2.4-1.2-2.4-2.4l0,0c0-1.6,1.2-2.4,2.4-2.4h54.8c1.6,0,2.4,1.2,2.4,2.4
		l0,0C284,106.4,282.8,107.6,281.2,107.6z"/>
	<path style="fill:#F1543F;" d="M281.2,117.2h-54.4c-1.6,0-2.4-1.2-2.4-2.4l0,0c0-1.6,1.2-2.4,2.4-2.4h54.8c1.6,0,2.4,1.2,2.4,2.4
		l0,0C284,116,282.8,117.2,281.2,117.2z"/>
</g>
<g>
	<rect x="156.4" y="153.2" style="fill:#84DBFF;" width="195.2" height="8.4"/>
	<rect x="156.4" y="184.4" style="fill:#84DBFF;" width="195.2" height="8.4"/>
	<rect x="156.4" y="215.6" style="fill:#84DBFF;" width="195.2" height="8.4"/>
	<rect x="156.4" y="246.8" style="fill:#84DBFF;" width="195.2" height="8.4"/>
	<rect x="156.4" y="278" style="fill:#84DBFF;" width="195.2" height="8.4"/>
	<rect x="156.4" y="309.2" style="fill:#84DBFF;" width="195.2" height="8.4"/>
</g>
<g>
</g>
<g>
</g>
<g>
</g>
<g>
</g>
<g>
</g>
<g>
</g>
<g>
</g>
<g>
</g>
<g>
</g>
<g>
</g>
<g>
</g>
<g>
</g>
<g>
</g>
<g>
</g>
<g>
</g>
</svg>
