<?xml version="1.0" encoding="iso-8859-1"?>
<!-- Generator: Adobe Illustrator 19.0.0, SVG Export Plug-In . SVG Version: 6.00 Build 0)  -->
<svg version="1.1" id="Layer_1" xmlns="http://www.w3.org/2000/svg" xmlns:xlink="http://www.w3.org/1999/xlink" x="0px" y="0px"
	 viewBox="0 0 508 508" style="enable-background:new 0 0 508 508;" xml:space="preserve">
<circle style="fill:#324A5E;" cx="254" cy="254" r="254"/>
<path style="fill:#84DBFF;" d="M375.6,432.4H132.4C122,432.4,114,424,114,414V94c0-10.4,8.4-18.4,18.4-18.4h242.8
	c10.4,0,18.4,8.4,18.4,18.4v320C394,424,385.6,432.4,375.6,432.4z"/>
<polygon style="fill:#FFFFFF;" points="130.8,107.6 130.8,388.8 331.6,388.8 331.6,343.2 377.2,343.2 377.2,107.6 "/>
<g>
	<polygon style="fill:#E6E9EE;" points="331.6,388.8 377.2,343.2 331.6,343.2 	"/>
	<rect x="189.6" y="75.6" style="fill:#E6E9EE;" width="128.8" height="32"/>
</g>
<path style="fill:#324A5E;" d="M326.4,87.2h-72H182c-4,0-7.2,3.2-7.2,7.2v24c0,4,3.2,7.2,7.2,7.2h33.2c11.6,0,16.4,1.6,21.2,2.8
	c4.4,1.2,8.8,2.8,17.6,2.8c8.8,0,13.2-1.2,17.6-2.8c4.8-1.6,9.6-2.8,21.2-2.8H326c4,0,7.2-3.2,7.2-7.2v-24
	C334,90.4,330.4,87.2,326.4,87.2z M330,118.4c0,2-1.6,3.2-3.2,3.2h-33.2c-12.4,0-17.6,1.6-22.4,3.2c-4,1.2-8,2.4-16.4,2.4
	s-12.4-1.2-16.4-2.4c-5.2-1.6-10.4-3.2-22.4-3.2h-34c-2,0-3.2-1.6-3.2-3.2v-24c0-2,1.6-3.2,3.2-3.2h72.4h72.4c2,0,3.2,1.6,3.2,3.2
	V118.4z"/>
<rect x="201.2" y="82.4" style="fill:#FFFFFF;" width="105.2" height="13.2"/>
<path style="fill:#E6E9EE;" d="M320,208h-58.8v-28.4h-61.6v8h53.6V254h-57.6v84h8v-44H320V208z M312,286H203.6v-24.4h57.6v-46H312
	V286z"/>
<g>
	<circle style="fill:#FF7058;" cx="199.6" cy="183.2" r="14.4"/>
	<circle style="fill:#FF7058;" cx="257.6" cy="211.6" r="14.4"/>
	<circle style="fill:#FF7058;" cx="316" cy="252.8" r="14.4"/>
	<circle style="fill:#FF7058;" cx="257.6" cy="257.6" r="14.4"/>
	<circle style="fill:#FF7058;" cx="199.6" cy="290" r="14.4"/>
	<circle style="fill:#FF7058;" cx="199.6" cy="337.6" r="14.4"/>
</g>
<g>
</g>
<g>
</g>
<g>
</g>
<g>
</g>
<g>
</g>
<g>
</g>
<g>
</g>
<g>
</g>
<g>
</g>
<g>
</g>
<g>
</g>
<g>
</g>
<g>
</g>
<g>
</g>
<g>
</g>
</svg>
