<?xml version="1.0" encoding="iso-8859-1"?>
<!-- Generator: Adobe Illustrator 19.0.0, SVG Export Plug-In . SVG Version: 6.00 Build 0)  -->
<svg version="1.1" id="Layer_1" xmlns="http://www.w3.org/2000/svg" xmlns:xlink="http://www.w3.org/1999/xlink" x="0px" y="0px"
	 viewBox="0 0 508 508" style="enable-background:new 0 0 508 508;" xml:space="preserve">
<circle style="fill:#84DBFF;" cx="254" cy="254" r="254"/>
<path style="fill:#FFFFFF;" d="M328,328H180c-5.6,0-10.4-4.8-10.4-10.4V183.2c0-5.6,4.8-10.4,10.4-10.4h147.6
	c5.6,0,10.4,4.8,10.4,10.4v134.4C338.4,323.2,333.6,328,328,328z"/>
<rect x="230" y="172.8" style="fill:#FF7058;" width="48" height="12.8"/>
<g>
	<path style="fill:#2B3B4E;" d="M224.8,100.8c0.8,5.6,3.2,10.8,6.8,14.8l-62.4,44.8V212c0,4.4-3.6,8-8,8s-8-3.6-8-8v-55.6
		c0-2.4,1.2-4.8,3.2-6.4L224.8,100.8z"/>
	<path style="fill:#2B3B4E;" d="M254,0c4.8,0,9.6,0,14.8,0.4v70c-4.4-2.4-9.2-4-14.8-4s-10.4,1.2-14.8,4v-70C244.4,0,249.2,0,254,0z
		"/>
	<path style="fill:#2B3B4E;" d="M354.4,156.4V212c0,4.4-3.6,8-8,8s-8-3.6-8-8v-51.6l-62-45.2c3.6-4,6-9.2,6.8-14.8l68,49.6
		C353.2,151.6,354.4,154,354.4,156.4z"/>
</g>
<circle style="fill:#FFFFFF;" cx="254" cy="96" r="29.6"/>
<g>
	<circle style="fill:#2B3B4E;" cx="254" cy="96" r="14.4"/>
	<path style="fill:#2B3B4E;" d="M405.6,413.2H56c46.8,58,118,94.8,198,94.8c56.8,0,109.2-18.8,151.6-50.4V413.2z"/>
</g>
<path style="fill:#324A5E;" d="M403.2,328.4h-392c9.6,31.2,25.2,60,45.2,84.8h346.8c23.6,0,42.4-18.8,42.4-42.4
	S426.4,328.4,403.2,328.4z"/>
<path style="fill:#2B3B4E;" d="M403.2,344.4H16.4c7.2,18.8,16.4,36.8,27.6,53.2h358.8c14.8,0,26.4-12,26.4-26.4
	S417.6,344.4,403.2,344.4z"/>
<circle style="fill:#E6E9EE;" cx="403.2" cy="370.8" r="26.4"/>
<g>
	<circle style="fill:#324A5E;" cx="294" cy="370.8" r="26.4"/>
	<circle style="fill:#324A5E;" cx="184.8" cy="370.8" r="26.4"/>
</g>
<g>
	<circle style="fill:#ACB3BA;" cx="184.8" cy="370.8" r="13.6"/>
	<circle style="fill:#ACB3BA;" cx="294" cy="370.8" r="13.6"/>
	<circle style="fill:#ACB3BA;" cx="403.2" cy="370.8" r="13.6"/>
</g>
<circle style="fill:#324A5E;" cx="76" cy="370.8" r="26.4"/>
<circle style="fill:#ACB3BA;" cx="76" cy="370.8" r="13.6"/>
<g>
</g>
<g>
</g>
<g>
</g>
<g>
</g>
<g>
</g>
<g>
</g>
<g>
</g>
<g>
</g>
<g>
</g>
<g>
</g>
<g>
</g>
<g>
</g>
<g>
</g>
<g>
</g>
<g>
</g>
</svg>
