<?xml version="1.0" encoding="iso-8859-1"?>
<!-- Generator: Adobe Illustrator 19.0.0, SVG Export Plug-In . SVG Version: 6.00 Build 0)  -->
<svg version="1.1" id="Layer_1" xmlns="http://www.w3.org/2000/svg" xmlns:xlink="http://www.w3.org/1999/xlink" x="0px" y="0px"
	 viewBox="0 0 508 508" style="enable-background:new 0 0 508 508;" xml:space="preserve">
<circle style="fill:#FD8469;" cx="254" cy="254" r="254"/>
<path style="fill:#F9B54C;" d="M290.8,2.8V36c-3.2-1.2-6.8-2-10.4-2s-7.2,0.8-10.4,2V0.4C276.8,0.8,283.6,1.6,290.8,2.8z"/>
<path style="fill:#F1543F;" d="M20.8,354c38.8,90.4,128.8,154,233.6,154S448.8,444.8,488,354H20.8z"/>
<path style="fill:#324A5E;" d="M4,298.4c3.6,19.6,9.2,38,16.8,55.6h396.4c15.2,0,28-12.4,28-28c0-15.2-12.4-28-28-28H4V298.4z"/>
<path style="fill:#2B3B4E;" d="M417.2,310.4H6.4c2.4,10.8,5.6,21.6,9.6,32h401.2c8.8,0,16-7.2,16-16S426,310.4,417.2,310.4z"/>
<circle style="fill:#E6E9EE;" cx="417.2" cy="326.4" r="16"/>
<circle style="fill:#ACB3BA;" cx="417.2" cy="326.4" r="8.4"/>
<circle style="fill:#E6E9EE;" cx="350" cy="326.4" r="16"/>
<circle style="fill:#ACB3BA;" cx="350" cy="326.4" r="8.4"/>
<circle style="fill:#E6E9EE;" cx="282.4" cy="326.4" r="16"/>
<circle style="fill:#ACB3BA;" cx="282.4" cy="326.4" r="8.4"/>
<circle style="fill:#E6E9EE;" cx="215.2" cy="326.4" r="16"/>
<circle style="fill:#ACB3BA;" cx="215.2" cy="326.4" r="8.4"/>
<circle style="fill:#E6E9EE;" cx="147.6" cy="326.4" r="16"/>
<circle style="fill:#ACB3BA;" cx="147.6" cy="326.4" r="8.4"/>
<circle style="fill:#E6E9EE;" cx="52" cy="326.4" r="16"/>
<circle style="fill:#ACB3BA;" cx="52" cy="326.4" r="8.4"/>
<g>
	<path style="fill:#FFFFFF;" d="M382,240.4c0-9.6-2.4-18.8-7.2-27.2l0,0c-4.8-8.4-7.2-17.6-7.2-27.2v-16h-14.4v15.6
		c0,9.6-2.4,18.8-7.2,27.2c-4.8,8.4-7.2,17.6-7.2,27.2v51.2c0,3.6,2.8,6.4,6.4,6.4h29.6c3.6,0,6.4-2.8,6.4-6.4L382,240.4z"/>
	<path style="fill:#FFFFFF;" d="M367.6,170h-14.4c-0.4,0-0.8-0.4-0.8-0.8v-2.8c0-0.4,0.4-0.8,0.8-0.8h14.4c0.4,0,0.8,0.4,0.8,0.8
		v2.8C368.8,169.6,368.4,170,367.6,170z"/>
</g>
<rect x="339.2" y="241.6" style="fill:#84DBFF;" width="42.8" height="38.4"/>
<g>
	<path style="fill:#FFFFFF;" d="M301.6,240.4c0-9.6-2.4-18.8-7.2-27.2l0,0c-4.8-8.4-7.2-17.6-7.2-27.2v-16h-14.4v15.6
		c0,9.6-2.4,18.8-7.2,27.2c-4.8,8.4-7.2,17.6-7.2,27.2v51.2c0,3.6,2.8,6.4,6.4,6.4h29.6c3.6,0,6.4-2.8,6.4-6.4L301.6,240.4z"/>
	<path style="fill:#FFFFFF;" d="M287.6,170h-14.4c-0.4,0-0.8-0.4-0.8-0.8v-2.8c0-0.4,0.4-0.8,0.8-0.8h14.4c0.4,0,0.8,0.4,0.8,0.8
		v2.8C288.4,169.6,288,170,287.6,170z"/>
</g>
<rect x="258.8" y="241.6" style="fill:#84DBFF;" width="42.8" height="38.4"/>
<g>
	<path style="fill:#FFFFFF;" d="M221.2,240.4c0-9.6-2.4-18.8-7.2-27.2l0,0c-4.8-8.4-7.2-17.6-7.2-27.2v-16h-14.4v15.6
		c0,9.6-2.4,18.8-7.2,27.2S178,230.4,178,240v51.2c0,3.6,2.8,6.4,6.4,6.4H214c3.6,0,6.4-2.8,6.4-6.4L221.2,240.4z"/>
	<path style="fill:#FFFFFF;" d="M207.2,170h-14.4c-0.4,0-0.8-0.4-0.8-0.8v-2.8c0-0.4,0.4-0.8,0.8-0.8h14.4c0.4,0,0.8,0.4,0.8,0.8
		v2.8C208,169.6,207.6,170,207.2,170z"/>
</g>
<rect x="178.4" y="241.6" style="fill:#84DBFF;" width="42.8" height="38.4"/>
<g>
	<path style="fill:#FFFFFF;" d="M140.8,240.4c0-9.6-2.4-18.8-7.2-27.2l0,0c-4.8-8.4-7.2-17.6-7.2-27.2v-16H112v15.6
		c0,9.6-2.4,18.8-7.2,27.2c-4.8,8.4-7.2,17.6-7.2,27.2v51.2c0,3.6,2.8,6.4,6.4,6.4h29.6c3.6,0,6.4-2.8,6.4-6.4L140.8,240.4z"/>
	<path style="fill:#FFFFFF;" d="M126.8,170h-14.4c-0.4,0-0.8-0.4-0.8-0.8v-2.8c0-0.4,0.4-0.8,0.8-0.8h14.4c0.4,0,0.8,0.4,0.8,0.8
		v2.8C127.6,169.6,127.2,170,126.8,170z"/>
</g>
<rect x="98" y="241.6" style="fill:#84DBFF;" width="42.8" height="38.4"/>
<g>
	<path style="fill:#324A5E;" d="M292,107.6c-2,6.4-3.2,13.6-3.2,20.4v19.2h-17.6V128c0-6.8-1.2-13.6-3.2-20.4H292z"/>
	<path style="fill:#324A5E;" d="M271.6,147.2h17.6c0.8,0,1.2,0.4,1.2,1.2v3.2c0,0.8-0.4,1.2-1.2,1.2h-17.6c-0.8,0-1.2-0.4-1.2-1.2
		v-3.2C270.4,147.6,270.8,147.2,271.6,147.2z"/>
</g>
<path style="fill:#FFD05B;" d="M296,108c6.8-16,11.2-38,11.2-46.8c0-14.8-12-26.8-26.8-26.8s-26.8,12-26.8,26.8
	c0,8.8,4.4,30.8,11.2,46.8H296z"/>
<g>
	<circle style="fill:#F9B54C;" cx="280.4" cy="60.4" r="16.8"/>
	<circle style="fill:#F9B54C;" cx="280.4" cy="60.4" r="16.8"/>
</g>
<g>
</g>
<g>
</g>
<g>
</g>
<g>
</g>
<g>
</g>
<g>
</g>
<g>
</g>
<g>
</g>
<g>
</g>
<g>
</g>
<g>
</g>
<g>
</g>
<g>
</g>
<g>
</g>
<g>
</g>
</svg>
