<?xml version="1.0" encoding="iso-8859-1"?>
<!-- Generator: Adobe Illustrator 19.0.0, SVG Export Plug-In . SVG Version: 6.00 Build 0)  -->
<svg version="1.1" id="Layer_1" xmlns="http://www.w3.org/2000/svg" xmlns:xlink="http://www.w3.org/1999/xlink" x="0px" y="0px"
	 viewBox="0 0 508 508" style="enable-background:new 0 0 508 508;" xml:space="preserve">
<circle style="fill:#84DBFF;" cx="254" cy="254" r="254"/>
<path style="fill:#54C0EB;" d="M60.4,418c46.4,54.8,116,90,193.6,90s147.2-34.8,193.6-90H60.4z"/>
<path style="fill:#E6E9EE;" d="M389.2,418H292c-10.4-24.8-19.2-50.8-26-76c18-72,20-137.2,20.4-151.6H344
	C344.4,210,348,321.2,389.2,418z"/>
<path style="fill:#FFFFFF;" d="M292,418c-48-113.2-52.8-243.2-53.2-266h-67.2c-0.4,22.8-4.8,152.8-53.2,266H292z"/>
<g>
	<path style="fill:#324A5E;" d="M247.2,50.4c0,0,0.8,23.6-32,25.6c-7.2,0.4-40.8,3.2-34.4,38.8c0,0,5.2-24,37.2-24
		C224.4,90.4,263.6,87.6,247.2,50.4z"/>
	<path style="fill:#324A5E;" d="M257.2,76.4c0,0,0.8,23.6-32,25.6c-7.2,0.4-40.8,3.2-34.4,38.8c0,0,5.2-24,37.2-24
		C234.4,116.4,273.6,113.6,257.2,76.4z"/>
	<path style="fill:#324A5E;" d="M367.6,86.4c0,0,0.8,23.6-32,25.6c-7.2,0.4-40.8,3.2-34.4,38.8c0,0,5.2-24,37.2-24
		C344.8,126.4,383.6,123.6,367.6,86.4z"/>
	<path style="fill:#324A5E;" d="M377.6,112.4c0,0,0.8,23.6-32,25.6c-7.2,0.4-40.8,3.2-34.4,38.8c0,0,5.2-24,37.2-24
		C354.8,152.4,393.6,149.6,377.6,112.4z"/>
</g>
<g>
</g>
<g>
</g>
<g>
</g>
<g>
</g>
<g>
</g>
<g>
</g>
<g>
</g>
<g>
</g>
<g>
</g>
<g>
</g>
<g>
</g>
<g>
</g>
<g>
</g>
<g>
</g>
<g>
</g>
</svg>
