<?xml version="1.0" encoding="iso-8859-1"?>
<!-- Generator: Adobe Illustrator 19.0.0, SVG Export Plug-In . SVG Version: 6.00 Build 0)  -->
<svg version="1.1" id="Layer_1" xmlns="http://www.w3.org/2000/svg" xmlns:xlink="http://www.w3.org/1999/xlink" x="0px" y="0px"
	 viewBox="0 0 508 508" style="enable-background:new 0 0 508 508;" xml:space="preserve">
<circle style="fill:#FFD05B;" cx="254" cy="254" r="254"/>
<path style="fill:#FFFFFF;" d="M330.4,291.2c0,42-34,76.4-76.4,76.4c-42,0-76.4-34.4-76.4-76.4H98v17.2l25.2,6.4
	c3.6,19.2,10.8,36.8,21.6,52.4l-13.6,22.4l24.4,24.4l22.4-13.6c15.2,10.8,33.2,18.4,52.4,21.6l6.4,25.6h34.4l6.4-25.6
	c19.2-3.2,36.8-10.8,52.4-21.6l22.4,13.6l24.4-24.4l-13.6-22.4c10.8-15.2,18.4-33.2,21.6-52.4l25.2-6.4v-17.2H330.4z"/>
<path style="fill:#FF7058;" d="M310.4,246c3.6-7.6,5.6-16.4,5.6-25.6c0-34.4-27.6-62-62-62s-62,27.6-62,62c0,9.2,2,17.6,5.6,25.6
	H79.2C79.6,150,157.6,72,254,72s174.4,78,174.8,174H310.4z"/>
<path style="fill:#F1543F;" d="M322.4,121.6l-18.8,61.6c-11.2-15.2-29.2-24.8-49.6-24.8s-38.4,9.6-49.6,24.8l-18.8-61.6
	c-3.6-11.6-4.4-23.6-2.4-34.8c21.6-9.6,45.6-15.2,71.2-15.2s49.2,5.2,70.8,15.2C326.8,98.4,326,110,322.4,121.6z"/>
<path style="fill:#FF7058;" d="M314.4,105.2c0,4.4-0.4,8.8-1.6,13.2l-13.2,60.4c-11.2-12.4-27.6-20-45.6-20s-34.4,7.6-45.6,20
	l-13.2-60.4c-8.4-37.6,20.4-73.6,59.2-73.6C288,44.8,314.4,72.8,314.4,105.2z"/>
<path style="fill:#F1543F;" d="M453.6,268.8c0,6.4-2.4,12-6.8,16c-4,4-9.6,6.8-16,6.8H77.2c-12.4,0-22.8-10-22.8-22.8
	c0-6.4,2.4-12,6.8-16c4-4,10-6.8,16-6.8h120.4c9.6,21.6,31.2,36.4,56.4,36.4s46.8-14.8,56.4-36.4h120.4
	C443.6,246,453.6,256.4,453.6,268.8z"/>
<circle style="fill:#324A5E;" cx="254" cy="220.4" r="62"/>
<circle style="fill:#84DBFF;" cx="254" cy="220.4" r="46.8"/>
<circle style="fill:#54C0EB;" cx="254" cy="220.4" r="27.6"/>
<ellipse transform="matrix(-0.7071 -0.7071 0.7071 -0.7071 257.3958 513.1281)" style="fill:#FFFFFF;" cx="234.97" cy="203.256" rx="7.2" ry="16"/>
<g>
</g>
<g>
</g>
<g>
</g>
<g>
</g>
<g>
</g>
<g>
</g>
<g>
</g>
<g>
</g>
<g>
</g>
<g>
</g>
<g>
</g>
<g>
</g>
<g>
</g>
<g>
</g>
<g>
</g>
</svg>
