<?xml version="1.0" encoding="iso-8859-1"?>
<!-- Generator: Adobe Illustrator 19.0.0, SVG Export Plug-In . SVG Version: 6.00 Build 0)  -->
<svg version="1.1" id="Layer_1" xmlns="http://www.w3.org/2000/svg" xmlns:xlink="http://www.w3.org/1999/xlink" x="0px" y="0px"
	 viewBox="0 0 508 508" style="enable-background:new 0 0 508 508;" xml:space="preserve">
<circle style="fill:#324A5E;" cx="254" cy="254" r="254"/>
<polygon style="fill:#54C0EB;" points="190.4,98.8 190.4,134 151.2,162.8 151.2,98.8 "/>
<path style="fill:#FFFFFF;" d="M382,218.8v156.4c0,9.6-7.6,17.2-17.2,17.2H143.2c-9.6,0-17.2-7.6-17.2-17.2V218.8l128-94L382,218.8z
	"/>
<path style="fill:#84DBFF;" d="M394.4,224.4c-3.2,0-6.4-0.8-8.8-2.8L254,124.4l-131.6,96.8c-6.8,4.8-16,3.6-21.2-3.2
	c-4.8-6.8-3.6-16,3.2-21.2L244.8,93.6c5.2-4,12.4-4,18,0l140.4,103.2c6.8,4.8,8,14.4,3.2,21.2C403.6,222,399.2,224.4,394.4,224.4z"
	/>
<path style="fill:#FF7058;" d="M317.2,260.4c-1.6-6.4-4-12.4-7.2-18l6-12.4l-15.6-15.6l-12.4,6c-5.6-3.2-11.6-5.6-18-7.2l-4.8-13.2
	h-22l-4.8,13.2c-6.4,1.6-12.4,4-18,7.2l-12.4-6L192.4,230l6,12.4c-3.2,5.6-5.6,11.6-7.6,18l-12.8,4.8v22l13.2,4.8
	c1.6,6.4,4,12.4,7.6,18l-6.4,12l15.6,15.6l12.4-6c5.6,3.2,11.6,6,18,7.6l4.8,13.2h22l4.8-13.2c6.4-1.6,12.4-4,18-7.6l12.4,6L316,322
	l-6-12.4c3.2-5.6,5.6-11.6,7.2-18l13.2-4.8v-22L317.2,260.4z M254,320.8c-24.8,0-44.4-20-44.4-44.4c0-24.8,20-44.4,44.4-44.4
	c24.8,0,44.4,20,44.4,44.4S278.8,320.8,254,320.8z"/>
<g>
</g>
<g>
</g>
<g>
</g>
<g>
</g>
<g>
</g>
<g>
</g>
<g>
</g>
<g>
</g>
<g>
</g>
<g>
</g>
<g>
</g>
<g>
</g>
<g>
</g>
<g>
</g>
<g>
</g>
</svg>
