<?xml version="1.0" encoding="iso-8859-1"?>
<!-- Generator: Adobe Illustrator 19.0.0, SVG Export Plug-In . SVG Version: 6.00 Build 0)  -->
<svg version="1.1" id="Layer_1" xmlns="http://www.w3.org/2000/svg" xmlns:xlink="http://www.w3.org/1999/xlink" x="0px" y="0px"
	 viewBox="0 0 508 508" style="enable-background:new 0 0 508 508;" xml:space="preserve">
<circle style="fill:#FD8469;" cx="254" cy="254" r="254"/>
<path style="fill:#F1543F;" d="M56,413.2c46.8,58,118,94.8,198,94.8s151.2-36.8,198-94.8H56z"/>
<path style="fill:#2B3B4E;" d="M122.4,224.8l5.6,45.6c0.4,2.8,4.4,2.8,4.4,0l5.6-45.6H122.4z"/>
<path style="fill:#FFD05B;" d="M406.8,132.4v38c0,5.6-4.4,10-10,10h-13.6c-4.4-20.4-22.4-35.6-44-35.6s-39.6,15.2-44,35.6h-73.6
	c-5.6,0-10-4.4-10-10v-38c0-5.6,4.4-10,10-10h175.2C402.4,122.4,406.8,126.8,406.8,132.4z"/>
<path style="fill:#F9B54C;" d="M101.2,151.2L101.2,151.2c0,10,8.4,18.4,18.4,18.4h92v-36.8h-92C109.2,132.8,101.2,141.2,101.2,151.2
	z"/>
<path style="fill:#FFD05B;" d="M355.6,413.2h-188v-12.4c0-5.6,4.4-10,10-10h168c5.6,0,10,4.4,10,10V413.2z"/>
<path style="fill:#F9B54C;" d="M200.8,362l-9.2,29.2H332l-8.8-29.2c-2-6-7.2-10-13.6-10h-95.2C208,352,202.4,356,200.8,362z"/>
<path style="fill:#FFD05B;" d="M353.2,232.8l-56,119.2h-70.4l69.6-147.2c6,17.6,22.8,30.4,42.8,30.4
	C344,235.2,348.8,234.4,353.2,232.8z"/>
<circle style="fill:#FFFFFF;" cx="339.2" cy="190" r="45.2"/>
<circle style="fill:#FFD05B;" cx="339.2" cy="190" r="23.2"/>
<path style="fill:#324A5E;" d="M142.8,169.6h-25.2v48c0,6.8,5.6,12.4,12.4,12.4l0,0c6.8,0,12.4-5.6,12.4-12.4v-48H142.8z"/>
<circle style="fill:#FFFFFF;" cx="130" cy="151.2" r="10"/>
<g>
</g>
<g>
</g>
<g>
</g>
<g>
</g>
<g>
</g>
<g>
</g>
<g>
</g>
<g>
</g>
<g>
</g>
<g>
</g>
<g>
</g>
<g>
</g>
<g>
</g>
<g>
</g>
<g>
</g>
</svg>
