<?xml version="1.0" encoding="iso-8859-1"?>
<!-- Generator: Adobe Illustrator 19.0.0, SVG Export Plug-In . SVG Version: 6.00 Build 0)  -->
<svg version="1.1" id="Layer_1" xmlns="http://www.w3.org/2000/svg" xmlns:xlink="http://www.w3.org/1999/xlink" x="0px" y="0px"
	 viewBox="0 0 508 508" style="enable-background:new 0 0 508 508;" xml:space="preserve">
<circle style="fill:#90DFAA;" cx="254" cy="254" r="254"/>
<path style="fill:#2C9984;" d="M56,413.2c46.8,58,118,94.8,198,94.8s151.2-36.8,198-94.8H56z"/>
<g>
	<path style="fill:#FFFFFF;" d="M355.2,272h4.4v12H358l-16,20.8l2.8,22.4h6.8c3.2,0,6,2.8,6,6s-2.8,6-6,6h-12c-2.8,0-5.6-2.4-6-5.2
		l-4-30c0-1.6,0-3.2,1.2-4.4l19.2-25.2C351.6,272.8,353.2,272,355.2,272z"/>
	<path style="fill:#FFFFFF;" d="M400.8,303.6l-4,30c-0.4,2.8-2.8,5.2-6,5.2h-12c-3.2,0-6-2.8-6-6s2.8-6,6-6h6.8l2.8-22.4l-15.6-20.8
		h-1.6v-12h4.4c2,0,3.6,0.8,4.8,2.4l19.2,25.2C400.4,300.4,400.8,302,400.8,303.6z"/>
</g>
<path style="fill:#2B3B4E;" d="M371.2,248.8v40.4c0,3.2-2.8,6-6,6s-6-2.8-6-6v-40.4H371.2z"/>
<path style="fill:#324A5E;" d="M387.2,112.4v130.4c0,3.2-2.8,6-6,6h-32c-3.2,0-6-2.8-6-6v-65.6h3.6c14.8-0.8,26-13.6,24.8-28.4
	c-0.8-14.8-13.6-26-28.4-25.2h-0.4v-11.2c0-3.2,2.8-6,6-6h32C384.8,106.4,387.2,109.2,387.2,112.4z"/>
<path style="fill:#2B3B4E;" d="M347.2,176.8l-68,3.6l7.6-13.2c4-5.2,8.4-26-9.6-36.4c-2.8-1.6-5.6-2.8-8.8-3.2l75.2-4
	c14.8-0.8,27.2,10.4,28.4,25.2C372.8,163.2,362,176,347.2,176.8z"/>
<g>
	<path style="fill:#324A5E;" d="M234,341.6v49.6h-80v-49.6l4.4,7.6c2,3.2,5.2,5.2,8.8,5.2h53.6c3.6,0,7.2-2,8.8-5.2L234,341.6z"/>
	<path style="fill:#324A5E;" d="M286.8,167.2l-52,88l-4.8-8.8c-2-3.2-5.2-5.2-8.8-5.2h-39.6l59.6-100.8c7.6-12.8,24-16.8,36.4-9.6
		C294.8,141.2,290.8,162,286.8,167.2z"/>
</g>
<path style="fill:#2B3B4E;" d="M280.8,413.2H107.2v-7.6c0-8,6.4-14.4,14.4-14.4h145.2c8,0,14.4,6.4,14.4,14.4v7.6H280.8z"/>
<path style="fill:#FFFFFF;" d="M158.4,349.2l-26.8-46.4c-2-3.2-2-7.2,0-10.4l26.8-46.4c2-3.2,5.2-5.2,8.8-5.2h53.6
	c3.6,0,7.2,2,8.8,5.2l26.8,46.4c2,3.2,2,7.2,0,10.4L230,349.2c-2,3.2-5.2,5.2-8.8,5.2h-54C163.6,354.4,160.4,352.4,158.4,349.2z"/>
<g>
	<circle style="fill:#E6E9EE;" cx="343.2" cy="150.4" r="13.2"/>
	<circle style="fill:#E6E9EE;" cx="265.6" cy="154.4" r="13.2"/>
</g>
<g>
	<circle style="fill:#324A5E;" cx="194" cy="297.6" r="22.8"/>
	<path style="fill:#324A5E;" d="M194,339.2c-22.8,0-41.2-18.4-41.2-41.2c0-22.8,18.4-41.2,41.2-41.2s41.2,18.4,41.2,41.2
		C235.6,320.4,216.8,339.2,194,339.2z M194,263.6c-18.8,0-34.4,15.2-34.4,34.4c0,18.8,15.2,34.4,34.4,34.4
		c18.8,0,34.4-15.2,34.4-34.4C228.4,278.8,212.8,263.6,194,263.6z"/>
</g>
<g>
</g>
<g>
</g>
<g>
</g>
<g>
</g>
<g>
</g>
<g>
</g>
<g>
</g>
<g>
</g>
<g>
</g>
<g>
</g>
<g>
</g>
<g>
</g>
<g>
</g>
<g>
</g>
<g>
</g>
</svg>
