<?xml version="1.0" encoding="iso-8859-1"?>
<!-- Generator: Adobe Illustrator 19.0.0, SVG Export Plug-In . SVG Version: 6.00 Build 0)  -->
<svg version="1.1" id="Layer_1" xmlns="http://www.w3.org/2000/svg" xmlns:xlink="http://www.w3.org/1999/xlink" x="0px" y="0px"
	 viewBox="0 0 508 508" style="enable-background:new 0 0 508 508;" xml:space="preserve">
<circle style="fill:#FD8469;" cx="254" cy="254" r="254"/>
<path style="fill:#F1543F;" d="M56,413.2c46.8,58,118,94.8,198,94.8s151.2-36.8,198-94.8H56z"/>
<g>
	<path style="fill:#324A5E;" d="M385.6,265.2c-3.2-2-6.8-2.8-10.8-2.8s-7.6,0.8-10.8,2.8l1.6-20.4c2.8,0.8,6,1.6,9.2,1.6
		s6.4-0.4,9.2-1.6L385.6,265.2z"/>
	<path style="fill:#324A5E;" d="M382,154.4v36.4c-2.4-0.8-4.8-0.8-7.2-0.8s-4.8,0-7.2,0.8v-36.4H382z"/>
</g>
<circle style="fill:#FFD05B;" cx="374.8" cy="218" r="28"/>
<circle style="fill:#F9B54C;" cx="374.8" cy="218" r="16.8"/>
<path style="fill:#FFD05B;" d="M369.2,333.6v-30c-4.8-2-7.6-6.8-7.6-12c0-7.6,6-13.6,13.6-13.6s13.6,6,13.6,13.6
	c0,5.2-3.2,10-7.6,12v30h6c6-9.6,10-27.6,10-41.6c0-21.6-9.6-29.6-22-29.6c-12,0-22,8-22,29.6c0,14,4,32,10,41.6H369.2z"/>
<g>
	<rect x="252.8" y="126.4" style="fill:#324A5E;" width="70.4" height="17.2"/>
	<path style="fill:#324A5E;" d="M220,264.4c-25.2,4.4-44.8,24-50,48.8L122,252c-3.6-4.8-6-10.4-6.8-16H198L220,264.4z"/>
</g>
<path style="fill:#FFFFFF;" d="M135.2,404.4v8.8h191.6v-8.8c0-8.4-6.8-15.6-15.6-15.6H150.4C142,389.2,135.2,396,135.2,404.4z"/>
<path style="fill:#324A5E;" d="M152.8,382.4v6.8h156.4v-6.8c0-6.8-5.6-12-12.4-12H165.2C158.4,370,152.8,375.6,152.8,382.4z"/>
<path style="fill:#FFFFFF;" d="M230.8,263.2c-34,0-61.6,27.6-61.6,61.6V370h123.2v-45.2C292.4,290.8,264.8,263.2,230.8,263.2z"/>
<g>
	<circle style="fill:#FFD05B;" cx="230.8" cy="324.4" r="13.6"/>
	<path style="fill:#FFD05B;" d="M207.2,189.2c0-5.2-4-9.2-9.2-9.2c5.2,0,9.2-4,9.2-9.2s-4-9.2-9.2-9.2h-82.8c-5.2,0-9.2,4-9.2,9.2
		s4,9.2,9.2,9.2c-5.2,0-9.2,4-9.2,9.2s4,9.2,9.2,9.2c-5.2,0-9.2,4-9.2,9.2s4,9.2,9.2,9.2c-5.2,0-9.2,4-9.2,9.2s4,9.2,9.2,9.2h82.4
		c5.2,0,9.2-4,9.2-9.2s-4-9.2-9.2-9.2c5.2,0,9.2-4,9.2-9.2s-4-9.2-9.2-9.2C202.8,198.4,207.2,194.4,207.2,189.2z"/>
</g>
<g>
	<path style="fill:#FFFFFF;" d="M235.2,161.2H110c-10,0-18-8-18-18v-16.8c0-10,8-18,18-18h125.2c10,0,18,8,18,18v16.8
		C252.8,153.2,244.8,161.2,235.2,161.2z"/>
	<path style="fill:#FFFFFF;" d="M377.6,115.6h-54v39.2H416v-0.4C416,132.8,398.8,115.6,377.6,115.6z"/>
</g>
<g>
</g>
<g>
</g>
<g>
</g>
<g>
</g>
<g>
</g>
<g>
</g>
<g>
</g>
<g>
</g>
<g>
</g>
<g>
</g>
<g>
</g>
<g>
</g>
<g>
</g>
<g>
</g>
<g>
</g>
</svg>
