<?xml version="1.0" encoding="iso-8859-1"?>
<!-- Generator: Adobe Illustrator 19.0.0, SVG Export Plug-In . SVG Version: 6.00 Build 0)  -->
<svg version="1.1" id="Layer_1" xmlns="http://www.w3.org/2000/svg" xmlns:xlink="http://www.w3.org/1999/xlink" x="0px" y="0px"
	 viewBox="0 0 508 508" style="enable-background:new 0 0 508 508;" xml:space="preserve">
<circle style="fill:#54C0EB;" cx="254" cy="254" r="254"/>
<path style="fill:#84DBFF;" d="M56,413.2c46.8,58,118,94.8,198,94.8s151.2-36.8,198-94.8H56z"/>
<path style="fill:#E6E9EE;" d="M356.8,184.8l-5.2-12c-8.4-20.4-31.6-30.4-52.4-23.2L252.4,166l-5.2-15.6c-5.6-16.8-21.6-28-39.6-28
	h-58v-4H208c19.6,0,36.8,12.4,43.2,30.8l4,11.6L298,146c22.8-8,48,3.2,57.2,25.2l5.2,12L356.8,184.8z"/>
<g>
	<path style="fill:#324A5E;" d="M156,140.8H89.6c0,3.2,0.8,6.4,1.6,9.2l49.2,144c4.4,12.8,18,20,30.8,16c12.8-3.6,20.8-16.8,17.6-30
		L156,140.8z"/>
	
		<rect x="273.57" y="179.569" transform="matrix(-0.9629 -0.2699 0.2699 -0.9629 557.8282 454.6386)" style="fill:#324A5E;" width="73.201" height="18.8"/>
	<path style="fill:#324A5E;" d="M408,238.4c4.4,5.6,12,22.4,16,36.4l-6,4.4l-15.2-20.8c1.6-3.6,1.2-7.6-1.2-10.8
		c-3.6-4.8-10.8-6-15.6-2.4c-4.8,3.6-6,10.8-2.4,15.6c2.4,3.2,6,4.8,10,4.4l15.2,20.8l-6,4.4c-12.4-8-25.6-20.8-30-26.4
		c-7.2-10-5.2-23.6,4.8-30.8C386.8,226.4,400.8,228.4,408,238.4z"/>
	
		<rect x="366.03" y="213.52" transform="matrix(-0.8081 0.589 -0.589 -0.8081 810.1696 193.1172)" style="fill:#324A5E;" width="15.2" height="29.999"/>
</g>
<path style="fill:#FFFFFF;" d="M276.8,152.4l-145.2-42c-17.6-5.2-36.4,4.8-41.2,22.4c-5.2,18.4,6.8,37.2,25.6,40.8l149.6,27.6
	c13.2,2.4,26-6,29.2-19.2C297.2,169.2,289.6,156,276.8,152.4z"/>
<circle style="fill:#E6E9EE;" cx="123.2" cy="142" r="21.6"/>
<circle style="fill:#FFFFFF;" cx="354" cy="200.8" r="26.4"/>
<circle style="fill:#E6E9EE;" cx="354" cy="200.8" r="16.4"/>
<polygon style="fill:#FFFFFF;" points="252.4,398.8 85.2,398.8 106.8,345.2 230.8,345.2 "/>
<g>
	<polygon style="fill:#E6E9EE;" points="236,358.4 230.8,345.2 106.8,345.2 101.2,358.4 	"/>
	<path style="fill:#E6E9EE;" d="M256.8,413.2h-176c-4.8,0-8.8-4-8.8-8.8l0,0c0-4.8,4-8.8,8.8-8.8h176c4.8,0,8.8,4,8.8,8.8l0,0
		C265.6,409.2,261.6,413.2,256.8,413.2z"/>
</g>
<g>
	<path style="fill:#FFFFFF;" d="M233.6,350H104c-4.8,0-8.8-4-8.8-8.8l0,0c0-4.8,4-8.8,8.8-8.8h129.6c4.8,0,8.8,4,8.8,8.8l0,0
		C242,346,238.4,350,233.6,350z"/>
	<path style="fill:#FFFFFF;" d="M217.2,332.8h-96.8v-16.4c0-26.8,21.6-48.4,48.4-48.4l0,0c26.8,0,48.4,21.6,48.4,48.4L217.2,332.8
		L217.2,332.8z"/>
</g>
<g>
	<rect x="120.4" y="329.6" style="fill:#E6E9EE;" width="96.8" height="3.2"/>
	<circle style="fill:#E6E9EE;" cx="168.8" cy="303.6" r="15.6"/>
</g>
<g>
</g>
<g>
</g>
<g>
</g>
<g>
</g>
<g>
</g>
<g>
</g>
<g>
</g>
<g>
</g>
<g>
</g>
<g>
</g>
<g>
</g>
<g>
</g>
<g>
</g>
<g>
</g>
<g>
</g>
</svg>
