<?xml version="1.0" encoding="iso-8859-1"?>
<!-- Generator: Adobe Illustrator 19.0.0, SVG Export Plug-In . SVG Version: 6.00 Build 0)  -->
<svg version="1.1" id="Layer_1" xmlns="http://www.w3.org/2000/svg" xmlns:xlink="http://www.w3.org/1999/xlink" x="0px" y="0px"
	 viewBox="0 0 508 508" style="enable-background:new 0 0 508 508;" xml:space="preserve">
<circle style="fill:#324A5E;" cx="254" cy="254" r="254"/>
<path style="fill:#2B3B4E;" d="M55.6,412.4C102,470.8,173.6,508,254,508s152-37.2,198.4-95.6H55.6z"/>
<path style="fill:#E6E9EE;" d="M166.8,286.8V326l-4.8,12.8h-5.6v-40H118v40h-5.6l-4.8-12.8v-39.6h26v-14.8c1.2,0,2.4,0.4,3.6,0.4
	c1.2,0,2.4,0,3.6-0.4v14.8h26V286.8z"/>
<g>
	<path style="fill:#FFD05B;" d="M428.4,412.4H289.2l34-131.2c8.4,10,21.2,16.8,35.6,16.8c12.8,0,24.4-5.2,32.4-13.6
		c1.2-1.2,2-2,2.8-3.2L428.4,412.4z"/>
	<path style="fill:#FFD05B;" d="M342.8,208.8c-6.4,2.4-12,6-16.4,10.8c-4.8,4.8-8.4,10.4-10.8,16.4l-69.2-69.6l14.4-11.6
		c8-6.4,9.2-17.6,2.8-25.6L342.8,208.8z"/>
</g>
<g>
	<path style="fill:#E6E9EE;" d="M260.8,155.2l-98.8,78c-1.2-3.2-3.2-5.6-5.6-8c-3.2-3.2-7.2-5.6-11.6-6.8l92-90.4
		c7.6-7.2,19.6-6.8,26.4,0.8C270,136.4,268.8,148.8,260.8,155.2z"/>
	<path style="fill:#E6E9EE;" d="M358.8,298L358.8,298c-25.2,0-46-20.4-46-46l0,0c0-25.2,20.4-46,46-46l0,0c25.2,0,46,20.4,46,46l0,0
		C404.8,277.2,384.4,298,358.8,298z"/>
</g>
<path style="fill:#54C0EB;" d="M358.8,268.4L358.8,268.4c-9.2,0-16.8-7.6-16.8-16.8l0,0c0-9.2,7.6-16.8,16.8-16.8l0,0
	c9.2,0,16.8,7.6,16.8,16.8l0,0C375.6,261.2,368,268.4,358.8,268.4z"/>
<path style="fill:#FFFFFF;" d="M137.2,272L137.2,272c-15.2,0-27.2-12.4-27.2-27.2l0,0c0-15.2,12.4-27.2,27.2-27.2l0,0
	c15.2,0,27.2,12.4,27.2,27.2l0,0C164.4,260,152.4,272,137.2,272z"/>
<g>
	<path style="fill:#54C0EB;" d="M137.2,254.8L137.2,254.8c-5.6,0-10-4.4-10-10l0,0c0-5.6,4.4-10,10-10l0,0c5.6,0,10,4.4,10,10l0,0
		C147.2,250,142.8,254.8,137.2,254.8z"/>
	<path style="fill:#54C0EB;" d="M248.8,150.4L248.8,150.4c-5.6,0-10-4.4-10-10l0,0c0-5.6,4.4-10,10-10l0,0c5.6,0,10,4.4,10,10l0,0
		C258.8,146,254,150.4,248.8,150.4z"/>
</g>
<g>
</g>
<g>
</g>
<g>
</g>
<g>
</g>
<g>
</g>
<g>
</g>
<g>
</g>
<g>
</g>
<g>
</g>
<g>
</g>
<g>
</g>
<g>
</g>
<g>
</g>
<g>
</g>
<g>
</g>
</svg>
