<?xml version="1.0" encoding="iso-8859-1"?>
<!-- Generator: Adobe Illustrator 19.0.0, SVG Export Plug-In . SVG Version: 6.00 Build 0)  -->
<svg version="1.1" id="Layer_1" xmlns="http://www.w3.org/2000/svg" xmlns:xlink="http://www.w3.org/1999/xlink" x="0px" y="0px"
	 viewBox="0 0 508 508" style="enable-background:new 0 0 508 508;" xml:space="preserve">
<circle style="fill:#FD8469;" cx="254" cy="254" r="254"/>
<path style="fill:#F1543F;" d="M56,413.2c46.8,58,118,94.8,198,94.8s151.2-36.8,198-94.8H56z"/>
<path style="fill:#FFD05B;" d="M321.6,9.2l-5.2,117.6c-3.2-1.6-6.8-2.4-10.4-2.4s-7.2,0.8-10.4,2.4L290,2.4
	C300.8,4,311.2,6.4,321.6,9.2z"/>
<path style="fill:#2B3B4E;" d="M325.2,223.6h-38.4l0,0c0-4.8,4-8.8,8.8-8.8H316C321.2,214.8,325.2,218.8,325.2,223.6L325.2,223.6z"
	/>
<path style="fill:#324A5E;" d="M209.6,205.2c4,1.2,7.6,2.8,10.8,5.6l5.2,4.8l4.4-4.8l-5.2-4.8c-3.2-2.8-5.6-6.4-6.8-10L209.6,205.2z
	"/>
<g>
	<path style="fill:#FFD05B;" d="M220.8,199.2c-2.8-6-7.6-12.4-10.4-14.8c-4-3.6-10.4-3.2-14,0.8s-3.2,10.4,0.8,14
		c2.4,2.4,9.6,6.4,15.6,8.8L220.8,199.2z"/>
	<polygon style="fill:#FFD05B;" points="91.6,282.8 198.8,188.8 186.4,173.6 54.4,272.4 57.6,289.2 	"/>
	<polygon style="fill:#FFD05B;" points="57.2,289.6 57.2,303.2 132,393.6 171.6,354 94,289.6 	"/>
</g>
<path style="fill:#FFFFFF;" d="M149.2,342.8L149.2,342.8c-20,0-36.4,16.4-36.4,36.4v34.4h72.4v-34.4
	C185.2,358.8,169.2,342.8,149.2,342.8z"/>
<circle style="fill:#E6E9EE;" cx="149.2" cy="378" r="17.6"/>
<circle style="fill:#FFFFFF;" cx="71.6" cy="287.2" r="25.6"/>
<circle style="fill:#E6E9EE;" cx="71.6" cy="287.2" r="14"/>
<circle style="fill:#FFFFFF;" cx="193.2" cy="181.6" r="18.4"/>
<circle style="fill:#E6E9EE;" cx="193.2" cy="181.6" r="10"/>
<path style="fill:#2B3B4E;" d="M408.4,300c-1.6,0.8-4,1.6-6,2.8c-0.4-1.6-1.2-3.2-1.6-4.8l0,0l-1.2-4.8c2-1.2,4.4-2.4,7.2-2.8
	C406,294.4,406.4,298,408.4,300z"/>
<path style="fill:#324A5E;" d="M414.8,302.8c-8.4-1.2-9.2-7.2-8-14.4c0.8-7.2,3.2-12.8,11.6-11.6c8.4,1.2,20,8.8,19.2,16
	C436.4,300,423.2,304,414.8,302.8z"/>
<path id="SVGCleanerId_0" style="fill:#2B3B4E;" d="M198.4,298.4c0,0,15.2,3.2,21.2,15.2l4.4-10c0,0-11.6-16-25.2-12.8L198.4,298.4z
	"/>
<g>
	<path id="SVGCleanerId_0_1_" style="fill:#2B3B4E;" d="M198.4,298.4c0,0,15.2,3.2,21.2,15.2l4.4-10c0,0-11.6-16-25.2-12.8
		L198.4,298.4z"/>
</g>
<path style="fill:#2B3B4E;" d="M211.2,298L211.2,298c-0.8,1.6-1.2,3.2-1.6,4.8c-2-1.2-4.4-2.4-6-2.8c2-2,2.4-5.6,2-9.2
	c2.4,0.4,4.8,1.2,6.8,2.8L211.2,298z"/>
<path style="fill:#324A5E;" d="M197.2,302.8c8.4-1.2,9.2-7.2,8-14.4c-0.8-7.2-3.2-12.8-11.6-11.6c-8.4,1.2-20,8.8-19.2,16
	S188.8,304,197.2,302.8z"/>
<g>
	<path style="fill:#2B3B4E;" d="M402.4,326v33.6c0,4.4-3.6,8-8,8h-26c-4.4,0-8-3.6-8-8v-14h12.4C386.8,345.2,398.4,337.2,402.4,326z
		"/>
	<path style="fill:#2B3B4E;" d="M250.8,345.2v14c0,4.4-3.6,8-8,8h-26c-4.4,0-8-3.6-8-8v-33.6c4,11.2,15.6,19.6,29.2,19.6H250.8z"/>
</g>
<path style="fill:#324A5E;" d="M400.4,298l-13.2-46c-4.8-16.8-20.4-28.4-37.6-28.4h-87.2c-17.6,0-32.8,11.6-37.6,28.4l-13.6,46l0,0
	c-2,5.2-3.6,10.8-3.6,16.4v2.8c0,15.6,14,28,30.8,28h134.4c17.2,0,30.8-12.4,30.8-28v-2.8C404,308.8,402.8,303.2,400.4,298
	L400.4,298z"/>
<path style="fill:#84DBFF;" d="M390.4,284.8c-87.6-16-169.2,0-169.2,0l8.8-31.2c4-14,17.2-24,32-24h87.2c14.8,0,28,10,32,24
	L390.4,284.8z"/>
<path style="fill:#54C0EB;" d="M381.6,253.6c-4-14-17.2-24-32-24h-10l-40,48c26.8-0.4,58.8,1.2,91.2,6.8L381.6,253.6z"/>
<g>
	<path style="fill:#E6E9EE;" d="M264,309.6c0,9.6,8,17.6,17.6,17.6h48.8c9.6,0,17.6-8,17.6-17.6H264z"/>
	<path style="fill:#E6E9EE;" d="M395.6,311.6c2.8,6.4,2,12.8-7.6,17.2c-9.6,4-24,4.4-26.8-2s7.2-16.8,16.4-21.2
		C387.2,301.6,392.8,305.2,395.6,311.6z"/>
	<path style="fill:#E6E9EE;" d="M216.4,311.6c-2.8,6.4-2,12.8,7.6,17.2c9.6,4,24,4.4,26.8-2s-7.2-16.8-16.4-21.2
		C224.8,301.6,219.2,305.2,216.4,311.6z"/>
</g>
<circle style="fill:#FFFFFF;" cx="306" cy="149.2" r="24.4"/>
<g>
	<circle style="fill:#E6E9EE;" cx="306" cy="149.2" r="12"/>
	<circle style="fill:#E6E9EE;" cx="324.4" cy="149.6" r="2.8"/>
	<circle style="fill:#E6E9EE;" cx="287.2" cy="149.6" r="2.8"/>
	<circle style="fill:#E6E9EE;" cx="306" cy="168" r="2.8"/>
	<circle style="fill:#E6E9EE;" cx="306" cy="130.8" r="2.8"/>
	<circle style="fill:#E6E9EE;" cx="319.2" cy="162.8" r="2.8"/>
	<circle style="fill:#E6E9EE;" cx="292.8" cy="136.4" r="2.8"/>
	<circle style="fill:#E6E9EE;" cx="292.8" cy="162.8" r="2.8"/>
	<circle style="fill:#E6E9EE;" cx="319.2" cy="136.4" r="2.8"/>
</g>
<path style="fill:#FFD05B;" d="M316,214.8l-0.8-43.2c-2.8,1.2-6,2-9.6,2s-6.8-0.8-9.6-2l-0.4,43.2H316z"/>
<g>
</g>
<g>
</g>
<g>
</g>
<g>
</g>
<g>
</g>
<g>
</g>
<g>
</g>
<g>
</g>
<g>
</g>
<g>
</g>
<g>
</g>
<g>
</g>
<g>
</g>
<g>
</g>
<g>
</g>
</svg>
