<?xml version="1.0" encoding="iso-8859-1"?>
<!-- Generator: Adobe Illustrator 19.0.0, SVG Export Plug-In . SVG Version: 6.00 Build 0)  -->
<svg version="1.1" id="Layer_1" xmlns="http://www.w3.org/2000/svg" xmlns:xlink="http://www.w3.org/1999/xlink" x="0px" y="0px"
	 viewBox="0 0 508 508" style="enable-background:new 0 0 508 508;" xml:space="preserve">
<circle style="fill:#FFD05B;" cx="254" cy="254" r="254"/>
<path style="fill:#F9B54C;" d="M56,413.2c46.8,58,118,94.8,198,94.8s151.2-36.8,198-94.8H56z"/>
<g>
	<path style="fill:#324A5E;" d="M246,166.8v138.8c-2.8-0.8-6-1.2-9.2-1.2s-6.4,0.4-9.2,1.2V166.8c2.8,1.6,6,2.8,9.2,2.8
		S243.2,168.4,246,166.8z"/>
	<path style="fill:#324A5E;" d="M161.2,166.8v88c-2.8-0.8-6-1.2-9.2-1.2s-6.4,0.4-9.2,1.2v-88c2.8,1.6,6,2.8,9.2,2.8
		C155.2,169.6,158.4,168.4,161.2,166.8z"/>
	<path style="fill:#324A5E;" d="M417.2,413.2H90.8v-8.4c0-7.6,6-13.6,13.6-13.6H404c7.6,0,13.6,6,13.6,13.6v8.4H417.2z"/>
</g>
<path style="fill:#FFFFFF;" d="M186,391.2h-68.8V288c0-18.8,15.2-34.4,34.4-34.4l0,0c18.8,0,34.4,15.2,34.4,34.4V391.2z"/>
<circle style="fill:#FF7058;" cx="151.6" cy="288.8" r="19.6"/>
<path style="fill:#FFFFFF;" d="M270.8,391.2H202v-52.4c0-18.8,15.2-34.4,34.4-34.4l0,0c18.8,0,34.4,15.2,34.4,34.4V391.2z"/>
<circle style="fill:#FF7058;" cx="236.4" cy="339.6" r="19.6"/>
<path style="fill:#E6E9EE;" d="M341.2,140.8V206c0,10.8,8.8,19.2,19.2,19.2c10.8,0,19.2-8.8,19.2-19.2v-65.2H341.2z"/>
<g>
	<path style="fill:#FFFFFF;" d="M379.6,163.2H342c-2.4,0-4.4-2-4.4-4.4l0,0c0-2.4,2-4.4,4.4-4.4h37.6c2.4,0,4.4,2,4.4,4.4l0,0
		C384,161.2,382,163.2,379.6,163.2z"/>
	<path style="fill:#FFFFFF;" d="M379.6,184H342c-2.4,0-4.4-2-4.4-4.4l0,0c0-2.4,2-4.4,4.4-4.4h37.6c2.4,0,4.4,2,4.4,4.4l0,0
		C384,182,382,184,379.6,184z"/>
	<path style="fill:#FFFFFF;" d="M379.6,204.4H342c-2.4,0-4.4-2-4.4-4.4l0,0c0-2.4,2-4.4,4.4-4.4h37.6c2.4,0,4.4,2,4.4,4.4l0,0
		C384,202.4,382,204.4,379.6,204.4z"/>
	<rect x="314.8" y="354.4" style="fill:#FFFFFF;" width="70" height="37.2"/>
</g>
<g>
	<path style="fill:#324A5E;" d="M396.8,354.4h-93.6l0,0c0-5.2,4-9.2,9.2-9.2h75.2C392.8,344.8,396.8,349.2,396.8,354.4L396.8,354.4z
		"/>
	<path style="fill:#324A5E;" d="M390.4,252.4L374,236c-0.4-0.4-1.2-0.8-2-0.8h-3.2v-12c-2.4,1.2-5.2,1.6-8,1.6s-5.6-0.8-8-1.6v12
		h-3.2c-0.8,0-1.6,0.4-2,0.8l-16.4,16.4c-0.4,0.4-0.8,1.2-0.8,2V278c0,0.8,0.4,1.6,0.8,2l10.4,10.4c0.4,0.4,1.2,0.8,2,0.8
		s1.6-0.4,2-0.8c1.2-1.2,1.2-2.8,0-4l-9.6-9.6v-21.2l14.8-14.8h2v4.4c0,4.4,3.6,8,8,8s8-3.6,8-8v-4.4h2l14.8,14.8v21.2l-9.6,9.6
		c-1.2,1.2-1.2,2.8,0,4c0.4,0.4,1.2,0.8,2,0.8s1.6-0.4,2-0.8l10.4-10.4c0.4-0.4,0.8-1.2,0.8-2v-23.6
		C391.2,253.6,391.2,253.2,390.4,252.4z"/>
</g>
<path style="fill:#FFFFFF;" d="M401.6,112.8H106.4c-7.6,0-14,6.4-14,14c0,7.6,6.4,14,14,14H134v10.8c0,10,8,18,18,18s18-8,18-18
	v-10.8h48.8v10.8c0,10,8,18,18,18s18-8,18-18v-10.8H402c7.6,0,14-6.4,14-14C416,118.8,409.6,112.8,401.6,112.8z"/>
<g>
</g>
<g>
</g>
<g>
</g>
<g>
</g>
<g>
</g>
<g>
</g>
<g>
</g>
<g>
</g>
<g>
</g>
<g>
</g>
<g>
</g>
<g>
</g>
<g>
</g>
<g>
</g>
<g>
</g>
</svg>
