<?xml version="1.0" encoding="iso-8859-1"?>
<!-- Generator: Adobe Illustrator 19.0.0, SVG Export Plug-In . SVG Version: 6.00 Build 0)  -->
<svg version="1.1" id="Layer_1" xmlns="http://www.w3.org/2000/svg" xmlns:xlink="http://www.w3.org/1999/xlink" x="0px" y="0px"
	 viewBox="0 0 508 508" style="enable-background:new 0 0 508 508;" xml:space="preserve">
<circle style="fill:#FFD05B;" cx="254" cy="254" r="254"/>
<path style="fill:#F9B54C;" d="M56,413.2c46.8,58,118,94.8,198,94.8s151.2-36.8,198-94.8H56z"/>
<g>
	<path style="fill:#324A5E;" d="M398.8,260.8l-6.4,10c-1.6,2.4-4.8,3.2-7.6,2L358,260c-1.2-0.8-2.4-2-2.8-3.2L344.8,228
		c-0.4-1.6-0.4-3.6,0.4-5.2l2.4-3.6l9.6,6.4l-0.8,1.2l8.8,24l20,9.6l3.6-5.6c1.6-2.8,5.2-3.6,8-1.6
		C400,254.8,400.8,258.4,398.8,260.8z"/>
	<path style="fill:#324A5E;" d="M419.6,228.8l-6.4,10c-1.6,2.8-5.2,3.6-8,1.6c-2.8-1.6-3.6-5.2-1.6-8l3.6-5.6l-16.8-14.4l-25.6,2
		l-0.8,1.2l-9.6-6.4l2.4-3.6c0.8-1.6,2.8-2.4,4.4-2.8l30.8-2.4c1.6,0,3.2,0.4,4.4,1.2l22.8,19.2
		C420.8,222.8,421.2,226.4,419.6,228.8z"/>
</g>
<path style="fill:#E6E9EE;" d="M370.4,226.8c-1.6,2.8-5.2,3.6-8,1.6l-21.6-14l6.4-9.6l21.6,14C371.2,220.4,372,224,370.4,226.8z"/>
<path style="fill:#FFFFFF;" d="M226,334.8v54h-87.6v-54l4.8,8.4c2,3.6,5.6,5.6,9.6,5.6h58.4c4,0,7.6-2,10-5.6L226,334.8z"/>
<g>
	<path style="fill:#324A5E;" d="M277.2,413.2h-190v-8.4c0-8.8,6.8-15.6,15.6-15.6h158.4c8.8,0,15.6,6.8,15.6,15.6v8.4H277.2z"/>
	<path style="fill:#324A5E;" d="M328.8,176.8L328.8,176.8l-20.4,30.4l-94.8-52.4l1.2-47.6v-0.8c0-10-5.2-19.2-12.8-24.4v-0.4
		L328.8,176.8z"/>
</g>
<path style="fill:#FFFFFF;" d="M214.8,106.8v0.8l-3.2,117.6h-58.4l3.2-119.2c0.4-16,14-28.8,30-28.4C202,78,214.8,90.8,214.8,106.8z
	"/>
<circle style="fill:#324A5E;" cx="185.2" cy="108" r="19.2"/>
<circle style="fill:#2B3B4E;" cx="185.2" cy="108" r="13.6"/>
<g>
	<circle style="fill:#324A5E;" cx="185.2" cy="108" r="8"/>
	<path style="fill:#324A5E;" d="M143.2,343.2L114,292.8c-2-3.6-2-8,0-11.2l29.2-50.4c2-3.6,5.6-5.6,9.6-5.6h58.4c4,0,7.6,2,9.6,5.6
		l29.2,50.4c2,3.6,2,8,0,11.2l-29.2,50.4c-2,3.6-5.6,5.6-9.6,5.6h-58C148.8,348.8,145.2,346.8,143.2,343.2z"/>
</g>
<g>
	<circle style="fill:#2B3B4E;" cx="182.4" cy="286.8" r="24.8"/>
	<path style="fill:#2B3B4E;" d="M182.4,332c-24.8,0-45.2-20.4-45.2-45.2c0-24.8,20.4-45.2,45.2-45.2s45.2,20.4,45.2,45.2
		C227.6,312,207.2,332,182.4,332z M182.4,249.6c-20.8,0-37.6,16.8-37.6,37.6c0,20.8,16.8,37.6,37.6,37.6S220,308,220,287.2
		C219.6,266.4,202.8,249.6,182.4,249.6z"/>
</g>
<path style="fill:#FFFFFF;" d="M325.6,227.2L309.2,216c-2.4-1.6-3.2-5.2-1.6-7.6l21.2-32c1.6-2.4,5.2-3.2,7.6-1.6l16.4,11.2
	c2.4,1.6,3.2,5.2,1.6,7.6l-21.2,32C331.2,228.4,328,228.8,325.6,227.2z"/>
<g>
</g>
<g>
</g>
<g>
</g>
<g>
</g>
<g>
</g>
<g>
</g>
<g>
</g>
<g>
</g>
<g>
</g>
<g>
</g>
<g>
</g>
<g>
</g>
<g>
</g>
<g>
</g>
<g>
</g>
</svg>
