<?xml version="1.0" encoding="iso-8859-1"?>
<!-- Generator: Adobe Illustrator 19.0.0, SVG Export Plug-In . SVG Version: 6.00 Build 0)  -->
<svg version="1.1" id="Layer_1" xmlns="http://www.w3.org/2000/svg" xmlns:xlink="http://www.w3.org/1999/xlink" x="0px" y="0px"
	 viewBox="0 0 508 508" style="enable-background:new 0 0 508 508;" xml:space="preserve">
<circle style="fill:#324A5E;" cx="254" cy="254" r="254"/>
<path style="fill:#2B3B4E;" d="M56,413.2c46.8,58,118,94.8,198,94.8s151.2-36.8,198-94.8H56z"/>
<path style="fill:#CED5E0;" d="M304.8,184.8c0,11.6,4.4,21.6,11.6,29.6l-124.8-10.8c3.2-5.6,5.2-12,5.2-18.8s-2-13.2-5.2-18.8
	l124.8-10.8C309.6,162.8,304.8,173.2,304.8,184.8z"/>
<path style="fill:#FFFFFF;" d="M278.4,400.4v12.4h140v-12.4c0-6.4-5.2-11.2-11.2-11.2H290C283.6,389.2,278.4,394.4,278.4,400.4z"/>
<path style="fill:#CED5E0;" d="M394.8,389.2H302l22-168c6.8,4.8,15.2,7.2,24.4,7.2s17.2-2.8,24.4-7.6L394.8,389.2z"/>
<circle style="fill:#FFFFFF;" cx="348.4" cy="184.8" r="43.6"/>
<g>
	<circle style="fill:#E6E9EE;" cx="348.4" cy="184.8" r="19.6"/>
	<path style="fill:#E6E9EE;" d="M142.8,272l-5.6-18c-0.4-0.8-0.8-1.6-1.6-2l-18-9.6c-0.8-0.4-1.6-0.4-2.4-0.4l-18,5.2
		c-1.2,0.4-2,1.6-2.4,2.8l-5.6,36c-0.4,1.6,0.4,2.8,1.6,3.6l4,2.4c1.6,0.8,3.6,0.4,4.4-1.2s0.4-3.6-1.2-4.4l-2-1.2l4.8-31.6l14.4-4
		l15.6,8.4l4.4,14.4l-23.6,21.2l-2-1.2c-1.6-0.8-3.6-0.4-4.4,1.2s-0.4,3.6,1.2,4.4l4,2.4c1.2,0.8,2.8,0.4,4-0.4l27.2-24
		C142.8,274.4,143.2,273.2,142.8,272z"/>
</g>
<path style="fill:#CED5E0;" d="M157.6,220.8l-14.8,18.8c-1.2-3.6-3.6-7.2-7.6-9.2c-3.6-2-8-2.4-11.6-1.2l8-23.2
	C138,214.4,147.2,220,157.6,220.8z"/>
<g>
	<circle style="fill:#FFFFFF;" cx="128.4" cy="244.4" r="15.6"/>
	<circle style="fill:#FFFFFF;" cx="160.8" cy="184.8" r="36.4"/>
</g>
<circle style="fill:#E6E9EE;" cx="160.8" cy="184.8" r="16"/>
<g>
</g>
<g>
</g>
<g>
</g>
<g>
</g>
<g>
</g>
<g>
</g>
<g>
</g>
<g>
</g>
<g>
</g>
<g>
</g>
<g>
</g>
<g>
</g>
<g>
</g>
<g>
</g>
<g>
</g>
</svg>
