<?xml version="1.0" encoding="iso-8859-1"?>
<!-- Generator: Adobe Illustrator 19.0.0, SVG Export Plug-In . SVG Version: 6.00 Build 0)  -->
<svg version="1.1" id="Layer_1" xmlns="http://www.w3.org/2000/svg" xmlns:xlink="http://www.w3.org/1999/xlink" x="0px" y="0px"
	 viewBox="0 0 508 508" style="enable-background:new 0 0 508 508;" xml:space="preserve">
<circle style="fill:#324A5E;" cx="254" cy="254" r="254"/>
<path style="fill:#FFD05B;" d="M324.4,130h-5.6L302,113.2c-5.2-5.2-8-12-8-19.2c0-12.8-10.4-23.2-23.2-23.2H242
	c-12.8,0-23.2,10.4-23.2,23.2v8.4h-4V94c0-14.8,12-27.2,27.2-27.2h29.2c14.8,0,27.2,12,27.2,27.2c0,6,2.4,12,6.8,16.4L324.4,130z"/>
<path style="fill:#2B3B4E;" d="M56,413.2c46.8,58,118,94.8,198,94.8s151.2-36.8,198-94.8H56z"/>
<path style="fill:#4CDBC4;" d="M81.6,405.6v7.6H426v-7.6c0-6.8-5.6-12.4-12.4-12.4H94.4C87.2,393.2,81.6,398.8,81.6,405.6z"/>
<g>
	<path style="fill:#E6E9EE;" d="M87.2,130H120v44.4H87.2c-2,0-3.6-1.6-3.6-3.6V134C83.6,131.6,85.2,130,87.2,130z"/>
	<rect x="138" y="130" style="fill:#E6E9EE;" width="43.2" height="44.4"/>
	<rect x="252.8" y="130" style="fill:#E6E9EE;" width="117.6" height="44.4"/>
	<path style="fill:#E6E9EE;" d="M424.4,134v36.8c0,2-1.6,3.6-3.6,3.6H388V130h32.8C422.8,130,424.4,131.6,424.4,134z"/>
</g>
<g>
	<path style="fill:#CED5E0;" d="M93.2,141.2h26.4v6H93.2c-1.6,0-3.2-1.2-3.2-3.2C90.4,142.8,91.6,141.2,93.2,141.2z"/>
	<rect x="138" y="141.2" style="fill:#CED5E0;" width="43.2" height="6"/>
	<path style="fill:#CED5E0;" d="M417.6,144.4c0,1.6-1.2,3.2-3.2,3.2H252.8v-6h162C416.4,141.2,417.6,142.8,417.6,144.4z"/>
	<path style="fill:#CED5E0;" d="M93.2,157.2h26.4v6H93.2c-1.6,0-3.2-1.2-3.2-3.2C90.4,158.4,91.6,157.2,93.2,157.2z"/>
	<rect x="138" y="157.2" style="fill:#CED5E0;" width="43.2" height="6"/>
	<path style="fill:#CED5E0;" d="M417.6,160c0,1.6-1.2,3.2-3.2,3.2H252.8v-6h162C416.4,157.2,417.6,158.4,417.6,160z"/>
</g>
<polygon style="fill:#FF7058;" points="232.8,106.8 200.8,106.8 203.2,102.4 230.4,102.4 "/>
<path style="fill:#E6E9EE;" d="M220.8,329.6v16c0,2-1.6,3.6-3.6,3.6s-3.6-1.6-3.6-3.6v-16H220.8z"/>
<path style="fill:#FF7058;" d="M226.4,312.8v16.8h-19.2v-16.8c2.8,1.6,6,2.4,9.6,2.4C220.4,315.2,223.6,314.4,226.4,312.8z"/>
<path style="fill:#F9B54C;" d="M238.8,275.6v17.2c0,12-10,22-22,22s-22-10-22-22v-17.2H238.8z"/>
<path style="fill:#FFD05B;" d="M246.4,275.6h-58.8c-3.6,0-6.4-2.8-6.4-6.4v-156c0-3.6,2.8-6.4,6.4-6.4h58.8c3.6,0,6.4,2.8,6.4,6.4
	v156.4C252.8,272.8,249.6,275.6,246.4,275.6z"/>
<g>
	<polygon style="fill:#FFFFFF;" points="180.8,150 180.8,165.2 192.4,138.8 186,138.8 	"/>
	<polygon style="fill:#FFFFFF;" points="192.4,171.2 186,171.2 199.6,138.8 206,138.8 	"/>
	<polygon style="fill:#FFFFFF;" points="206.4,171.2 199.6,171.2 213.6,138.8 220,138.8 	"/>
	<polygon style="fill:#FFFFFF;" points="220,171.2 213.6,171.2 227.2,138.8 234,138.8 	"/>
	<polygon style="fill:#FFFFFF;" points="234,171.2 227.6,171.2 241.2,138.8 247.6,138.8 	"/>
	<polygon style="fill:#FFFFFF;" points="247.6,171.2 252.8,159.6 252.8,144.4 241.2,171.2 	"/>
	<polygon style="fill:#FFFFFF;" points="180.8,216 180.8,231.2 192.4,204.4 186,204.4 	"/>
	<polygon style="fill:#FFFFFF;" points="192.4,236.8 186,236.8 199.6,204.4 206,204.4 	"/>
	<polygon style="fill:#FFFFFF;" points="206.4,236.8 199.6,236.8 213.6,204.4 220,204.4 	"/>
	<polygon style="fill:#FFFFFF;" points="220,236.8 213.6,236.8 227.2,204.4 234,204.4 	"/>
	<polygon style="fill:#FFFFFF;" points="234,236.8 227.6,236.8 241.2,204.4 247.6,204.4 	"/>
	<polygon style="fill:#FFFFFF;" points="247.6,236.8 252.8,225.6 252.8,210 241.2,236.8 	"/>
	<path style="fill:#FFFFFF;" d="M388,393.2V112.4c0-3.2-2.4-5.6-5.6-5.6H376c-3.2,0-5.6,2.4-5.6,5.6v280.8L388,393.2L388,393.2z"/>
	<path style="fill:#FFFFFF;" d="M138,393.2V112.4c0-3.2-2.4-5.6-5.6-5.6H126c-3.2,0-5.6,2.4-5.6,5.6v280.8L138,393.2L138,393.2z"/>
</g>
<g>
</g>
<g>
</g>
<g>
</g>
<g>
</g>
<g>
</g>
<g>
</g>
<g>
</g>
<g>
</g>
<g>
</g>
<g>
</g>
<g>
</g>
<g>
</g>
<g>
</g>
<g>
</g>
<g>
</g>
</svg>
