<?xml version="1.0" encoding="iso-8859-1"?>
<!-- Generator: Adobe Illustrator 19.0.0, SVG Export Plug-In . SVG Version: 6.00 Build 0)  -->
<svg version="1.1" id="Layer_1" xmlns="http://www.w3.org/2000/svg" xmlns:xlink="http://www.w3.org/1999/xlink" x="0px" y="0px"
	 viewBox="0 0 508 508" style="enable-background:new 0 0 508 508;" xml:space="preserve">
<path style="fill:#FD8469;" d="M508,254c0,140.4-113.6,254-254,254S0,394.4,0,254S113.6,0,254,0S508,113.6,508,254z"/>
<path style="fill:#F1543F;" d="M56,413.2c46.8,58,118,94.8,198,94.8s151.2-36.8,198-94.8H56z"/>
<g>
	<path style="fill:#324A5E;" d="M337.2,142v55.6c0,3.6-3.2,6.8-6.8,6.8s-6.8-3.2-6.8-6.8V142C328,143.2,332.8,143.2,337.2,142z"/>
	<path style="fill:#324A5E;" d="M193.2,268c-16-5.2-33.2,0.8-42,15.2l-38-122c11.6,2.4,24-2.4,31.2-12L193.2,268z"/>
	<path style="fill:#324A5E;" d="M147.6,144c4.8-10,4-21.6-1.6-30.8l161.6-10c0,0.4-0.4,0.4-0.4,0.8c-4.8,8.8-4,19.2,1.6,27.2
		L147.6,144z"/>
</g>
<path style="fill:#FFFFFF;" d="M145.6,393.6v19.6H388v-19.6c0-6.8-5.6-12.4-12.4-12.4H158C151.2,381.2,145.6,386.8,145.6,393.6z"/>
<path style="fill:#E6E9EE;" d="M268.4,314.4v66.8H174v-44c5.6,1.2,11.6,1.2,17.6-0.4c14.4-4,24-16,26-30h43.6
	C265.2,306.8,268.4,310.4,268.4,314.4z"/>
<circle style="fill:#FFFFFF;" cx="182" cy="302.4" r="36"/>
<circle style="fill:#E6E9EE;" cx="182" cy="302.4" r="23.6"/>
<circle style="fill:#FFFFFF;" cx="119.2" cy="130.4" r="31.6"/>
<circle style="fill:#CED5E0;" cx="119.2" cy="130.4" r="18.8"/>
<circle style="fill:#FFFFFF;" cx="330.4" cy="116.4" r="26"/>
<circle style="fill:#CED5E0;" cx="330.4" cy="116.4" r="15.6"/>
<path style="fill:#2B3B4E;" d="M348.4,262.8c-3.2,0-6-2.8-6-6c0-3.2,2.8-6,6-6c4.4,0,8.4-2,10.8-5.2c2.8-3.2,3.6-7.6,2.4-12l-10-38
	c-1.6-6-7.2-10-13.2-10H322c-6,0-11.6,4-13.2,10l-10,38c-1.2,4-0.4,8.4,2.4,12c2.8,3.2,6.4,5.2,10.8,5.2c3.2,0,6,2.8,6,6
	c0,3.2-2.8,6-6,6c-8,0-15.2-3.6-20.4-10c-4.8-6.4-6.4-14.4-4.4-22l10-38c2.8-11.2,13.2-19.2,24.8-19.2h16.4c11.6,0,21.6,8,24.8,19.2
	l10,38c2,7.6,0.4,15.6-4.4,22C364,259.2,356.4,262.8,348.4,262.8z"/>
<g>
</g>
<g>
</g>
<g>
</g>
<g>
</g>
<g>
</g>
<g>
</g>
<g>
</g>
<g>
</g>
<g>
</g>
<g>
</g>
<g>
</g>
<g>
</g>
<g>
</g>
<g>
</g>
<g>
</g>
</svg>
