<?xml version="1.0" encoding="iso-8859-1"?>
<!-- Generator: Adobe Illustrator 19.0.0, SVG Export Plug-In . SVG Version: 6.00 Build 0)  -->
<svg version="1.1" id="Layer_1" xmlns="http://www.w3.org/2000/svg" xmlns:xlink="http://www.w3.org/1999/xlink" x="0px" y="0px"
	 viewBox="0 0 508 508" style="enable-background:new 0 0 508 508;" xml:space="preserve">
<circle style="fill:#FD8469;" cx="254" cy="254" r="254"/>
<path style="fill:#FFFFFF;" d="M420.4,327.6l16-38.4L430,290c-8,1.2-15.2-6-14-14v-0.4c0.4-4,2.8-7.6,6-9.6l13.6-8v-41.2l-5.2,3.2
	c-7.2,4-16.4,0.4-18.4-7.6V212c-1.2-4-0.4-8,2-11.2l9.6-12.4l-16-38.4l-3.6,4.8c-4.8,6.4-14.8,6.4-20,0l0,0
	c-2.4-3.2-3.2-7.2-2.4-11.2l4-15.2L356,98.8l-1.6,6c-2,8-11.2,11.6-18.4,7.6h-0.4c-3.6-2-5.6-5.2-6.4-9.2l-2-15.6l-38.4-16L290,78
	c1.2,8-6,15.2-14,14h-0.4c-4-0.4-7.6-2.8-9.6-6l-8-13.6h-41.2l2.8,5.2c4,7.2,0.4,16.4-7.6,18.4c0,0,0,0-0.4,0c-4,1.2-8,0.4-11.2-2
	L188,84.4l-38.4,16l4.8,3.6c6.4,4.8,6.8,14.8,0,20l0,0c-3.2,2.4-7.2,3.2-11.2,2.4l-15.2-4L98.4,152l5.6,1.6c8,2,12,11.2,7.6,18.4
	c0,0,0,0,0,0.4c-2,3.6-5.2,5.6-9.2,6.4l-15.6,2l-16,38.4l6-0.8c8-1.2,15.2,6,14.4,14c0,0,0,0,0,0.4c-0.4,4-2.8,7.6-6,9.6l-13.6,8
	V292l5.2-2.8c7.2-4,16.4-0.4,18.4,7.6c0,0,0,0,0,0.4c1.2,4,0.4,8-2,11.2l-9.6,12.4l16,38.4l3.6-4.8c4.8-6.4,14.8-6.8,20,0l0,0
	c2.4,3.2,3.2,7.2,2.4,11.2l-4,15.2l29.6,29.6l1.6-5.6c2-8,11.2-12,18.4-7.6c0,0,0,0,0.4,0c3.6,2,5.6,5.2,6.4,9.2l2,15.6l38.4,16
	l-0.8-6c-1.2-8,6-15.2,14-14.4c0,0,0,0,0.4,0c4,0.4,7.6,2.8,9.6,6l8,13.6h41.6l-2.8-5.2c-4-7.2-0.4-16.4,7.6-18.4c0,0,0,0,0.4,0
	c4-1.2,8-0.4,11.2,2l12.4,9.6l38.4-16l-4.8-3.6c-6.4-4.8-6.4-14.8,0-20l0,0c3.2-2.4,7.2-3.2,11.2-2.4l15.2,4l29.6-29.6l-6-1.6
	c-8-2-11.6-11.2-7.6-18.4v-0.4c2-3.6,5.2-5.6,9.2-6.4L420.4,327.6z"/>
<circle style="fill:#E6E9EE;" cx="254" cy="254" r="58.8"/>
<circle style="fill:#FD8469;" cx="254" cy="254" r="28.4"/>
<g>
</g>
<g>
</g>
<g>
</g>
<g>
</g>
<g>
</g>
<g>
</g>
<g>
</g>
<g>
</g>
<g>
</g>
<g>
</g>
<g>
</g>
<g>
</g>
<g>
</g>
<g>
</g>
<g>
</g>
</svg>
