<?xml version="1.0" encoding="iso-8859-1"?>
<!-- Generator: Adobe Illustrator 19.0.0, SVG Export Plug-In . SVG Version: 6.00 Build 0)  -->
<svg version="1.1" id="Layer_1" xmlns="http://www.w3.org/2000/svg" xmlns:xlink="http://www.w3.org/1999/xlink" x="0px" y="0px"
	 viewBox="0 0 508 508" style="enable-background:new 0 0 508 508;" xml:space="preserve">
<circle style="fill:#FFD05B;" cx="254" cy="254" r="254"/>
<path style="fill:#FFFFFF;" d="M363.6,87.6v29.6H144.4V87.6c0-14,11.2-24.8,24.8-24.8h60.4v16.4h48.8V62.8h60.4
	C352.4,62.8,363.6,74,363.6,87.6z"/>
<path style="fill:#E6E9EE;" d="M285.2,117.2h-62.4v270c0,17.2,31.2,57.6,31.2,57.6l0,0c0,0,31.2-40.4,31.2-57.6V117.2z"/>
<g>
	<path style="fill:#FFFFFF;" d="M220,172.4l70.4-12.8c3.6-0.8,5.6-4,5.2-7.6c-0.8-3.6-4-5.6-7.6-5.2l-70.4,12.8
		c-3.6,0.8-5.6,4-5.2,7.6C213.2,170.4,216.4,172.8,220,172.4z"/>
	<path style="fill:#FFFFFF;" d="M288,175.6l-70.4,12.8c-3.6,0.8-5.6,4-5.2,7.6c0.8,3.6,4,5.6,7.6,5.2l70.4-12.8
		c3.6-0.8,5.6-4,5.2-7.6C294.8,177.6,291.6,175.2,288,175.6z"/>
	<path style="fill:#FFFFFF;" d="M295.2,210c-0.8-3.6-4-5.6-7.6-5.2l-70.4,12.8c-3.6,0.8-5.6,4-5.2,7.6c0.8,3.6,4,5.6,7.6,5.2
		l70.4-12.8C293.6,216.4,296,213.2,295.2,210L295.2,210z"/>
	<path style="fill:#FFFFFF;" d="M288,233.6l-70.4,12.8c-3.6,0.8-5.6,4-5.2,7.6c0.8,3.6,4,5.6,7.6,5.2l70.4-13.2
		c3.6-0.8,5.6-4,5.2-7.6C294.8,235.2,291.6,232.8,288,233.6z"/>
	<path style="fill:#FFFFFF;" d="M288,262.4l-70.4,12.8c-3.6,0.8-5.6,4-5.2,7.6c0.8,3.6,4,5.6,7.6,5.2l70.4-12.8
		c3.6-0.8,5.6-4,5.2-7.6C294.8,264,291.6,261.6,288,262.4z"/>
	<path style="fill:#FFFFFF;" d="M288,291.2L217.6,304c-3.6,0.8-5.6,4-5.2,7.6c0.8,3.6,4,5.6,7.6,5.2l70.4-12.8
		c3.6-0.8,5.6-4,5.2-7.6C294.8,292.8,291.6,290.8,288,291.2z"/>
	<path style="fill:#FFFFFF;" d="M288,320l-70.4,12.8c-3.6,0.8-5.6,4-5.2,7.6c0.8,3.6,4,5.6,7.6,5.2l70.4-12.8c3.6-0.8,5.6-4,5.2-7.6
		C294.8,322,291.6,319.6,288,320z"/>
	<path style="fill:#FFFFFF;" d="M288,349.2L217.6,362c-3.6,0.8-5.6,4-5.2,7.6l0,0c0.8,3.6,4,5.6,7.6,5.2l70.4-12.8
		c3.6-0.8,5.6-4,5.2-7.6C294.8,350.8,291.6,348.4,288,349.2z"/>
</g>
<g>
</g>
<g>
</g>
<g>
</g>
<g>
</g>
<g>
</g>
<g>
</g>
<g>
</g>
<g>
</g>
<g>
</g>
<g>
</g>
<g>
</g>
<g>
</g>
<g>
</g>
<g>
</g>
<g>
</g>
</svg>
