<?xml version="1.0" encoding="iso-8859-1"?>
<!-- Generator: Adobe Illustrator 19.0.0, SVG Export Plug-In . SVG Version: 6.00 Build 0)  -->
<svg version="1.1" id="Layer_1" xmlns="http://www.w3.org/2000/svg" xmlns:xlink="http://www.w3.org/1999/xlink" x="0px" y="0px"
	 viewBox="0 0 508 508" style="enable-background:new 0 0 508 508;" xml:space="preserve">
<circle style="fill:#FD8469;" cx="254" cy="254" r="254"/>
<circle style="fill:#324A5E;" cx="254" cy="308" r="50.4"/>
<path style="fill:#FFFFFF;" d="M108.4,236.8v34.4l28,7.2c3.2,15.2,9.2,29.2,17.2,41.6l-14.8,24.8l24.4,24.4l24.8-14.8
	c12.4,8.4,26.4,14,41.6,17.2l7.2,28h34.4l7.2-28c15.2-3.2,29.2-9.2,41.6-17.2l24.8,14.8l24.4-24.4L354,320
	c8.4-12.4,14-26.4,17.2-41.6l28-7.2v-34.4l-28-7.2C368,214.4,362,200.4,354,188l14.8-24.8l-24.4-24.4L320,154
	c-12.4-8.4-26.4-14-41.6-17.2l-7.2-28h-34.4l-7.2,28C214.4,140,200.4,146,188,154l-24.8-14.8l-24.4,24.4l14.8,24.8
	c-8.4,12.4-14,26.4-17.2,41.6L108.4,236.8z M254,186c37.6,0,68,30.4,68,68s-30.4,68-68,68s-68-30.4-68-68S216.4,186,254,186z"/>
<g>
	<path style="fill:#E6E9EE;" d="M425.6,318.4c-2.4-4.8-9.2-4.4-11.2,0.4c-25.6,63.6-88,108.4-160.4,108.4
		c-87.6,0-160-65.2-171.6-149.6H70C81.6,368.8,159.6,440,254,440c77.6,0,144.4-48,172-116C426.8,322,426.4,320,425.6,318.4
		L425.6,318.4z"/>
	<path style="fill:#E6E9EE;" d="M438,230.8c-11.6-91.2-89.6-162.4-184-162.4c-77.6,0-144.4,48-172,116c-0.8,1.6-0.4,3.6,0.4,5.2
		c2.4,4.8,9.2,4.4,11.2-0.4c25.6-63.2,88-108,160.4-108c87.6,0,160,65.2,171.6,149.6h-15.2l23.2,46.4l23.2-46.4L438,230.8L438,230.8
		z"/>
	<polygon style="fill:#E6E9EE;" points="74.8,230.8 51.6,277.2 98,277.2 	"/>
</g>
<circle style="fill:#324A5E;" cx="254" cy="229.6" r="21.6"/>
<g>
</g>
<g>
</g>
<g>
</g>
<g>
</g>
<g>
</g>
<g>
</g>
<g>
</g>
<g>
</g>
<g>
</g>
<g>
</g>
<g>
</g>
<g>
</g>
<g>
</g>
<g>
</g>
<g>
</g>
</svg>
