<?xml version="1.0" encoding="iso-8859-1"?>
<!-- Generator: Adobe Illustrator 19.0.0, SVG Export Plug-In . SVG Version: 6.00 Build 0)  -->
<svg version="1.1" id="Layer_1" xmlns="http://www.w3.org/2000/svg" xmlns:xlink="http://www.w3.org/1999/xlink" x="0px" y="0px"
	 viewBox="0 0 508 508" style="enable-background:new 0 0 508 508;" xml:space="preserve">
<circle style="fill:#FD8469;" cx="254" cy="254" r="254"/>
<path style="fill:#F1543F;" d="M56,413.2c46.8,58,118,94.8,198,94.8s151.2-36.8,198-94.8H56z"/>
<line style="fill:none;stroke:#E6E9EE;stroke-miterlimit:10;" x1="321.2" y1="270.4" x2="295.2" y2="236.8"/>
<polygon style="fill:#324A5E;" points="311.6,87.2 311.6,113.6 334,124.8 334,245.6 270.4,300.8 270.4,413.2 405.6,413.2 
	405.6,87.2 "/>
<path style="fill:#E6E9EE;" d="M351.2,287.6c-22.4,0-40.4,18-40.4,40.4s18,40.4,40.4,40.4s40.4-18,40.4-40.4
	C392,306,373.6,287.6,351.2,287.6z M381.6,323.2H356V298C369.2,300,379.6,310.4,381.6,323.2z M346.4,298v25.6h-25.6
	C323.2,310.4,333.2,300,346.4,298z M320.8,333.2h25.6v25.6C333.2,356.4,323.2,346,320.8,333.2z M356.4,358.4v-25.6H382
	C379.6,346,369.2,356.4,356.4,358.4z"/>
<circle style="fill:#CED5E0;" cx="351.2" cy="328" r="12.8"/>
<circle style="fill:#FFD05B;" cx="295.2" cy="236.8" r="9.6"/>
<polygon style="fill:#F9B54C;" points="202.4,121.2 199.6,110.8 189.2,112.4 178.8,110.8 175.6,121.2 174.8,128.4 189.2,142.8 
	203.6,128.4 "/>
<g>
	<path style="fill:#FFD05B;" d="M236.8,221.6c0,0.4,6.4,46-13.6,47.6V266c0,0,10.4-7.6,4.4-16.4c0,0-1.6,12-5.2,11.6
		c0,0-3.6-13.2,5.6-22.4c0,0,0.8-16.8-1.2-19.2L236.8,221.6z"/>
	<path style="fill:#FFD05B;" d="M141.2,221.6c0,0.4-6.4,46,13.6,47.6V266c0,0-10.4-7.6-4.4-16.4c0,0,1.6,12,5.2,11.6
		c0,0,3.6-13.2-5.6-22.4c0,0-0.8-16.8,1.2-19.2L141.2,221.6z"/>
</g>
<g>
	<path style="fill:#E6E9EE;" d="M220.8,186.8c-0.4,14.8,3.2,52,3.2,52c1.6,14,8,69.2,2.4,104c0,0-2.4,50,0.4,68.4H202
		c0.4-10.4,4.4-91.6-13.6-115.2c-18,23.6-14,104.8-13.6,115.2H150c3.2-18,0.4-68.4,0.4-68.4c-5.6-34.8,0.4-90,2.4-104
		c0,0,3.6-37.2,3.2-52c0,12.4-5.6,37.2-5.6,37.2h-11.6c-3.6-7.2-0.8-38.4-0.8-38.4c0-1.2,0-2.8,0-4c0-33.6,10.8-43.6,10.8-43.6
		c26-9.2,26-16.8,26-16.8c2.8,15.2,12,16,13.6,16c1.2,0,10.4-1.2,13.6-16c0,0,0.4,8,26,16.8c0,0,11.6,10.8,10.4,47.6
		c0,0,2.8,31.2-0.8,38.4H226C226.8,224,220.8,199.2,220.8,186.8z"/>
	<path style="fill:#E6E9EE;" d="M226.8,224c0,0-5.6-24.8-5.6-37.2c0,2,0,4.4,0,6.8c0.4,17.2,3.2,45.2,3.2,45.2
		c1.6,14,8,69.2,2.4,104c0,0-2.4,50,0.4,68.4h-24.8c0.4-10.4,4.4-91.6-13.6-115.2c-18,23.6-14,104.8-13.6,115.2h-24.8
		c3.2-18,0.4-68.4,0.4-68.4c-5.6-34.8,0.4-90,2.4-104c0,0,2.8-28,3.2-45.2c0-2.8,0-4.8,0-6.8c0,12.4-5.6,37.2-5.6,37.2h-11.6
		c-3.6-7.2-0.8-38.4-0.8-38.4c0-1.2,0-2.8,0-4c0-33.6,10.8-43.6,10.8-43.6c5.2-2,9.2-3.6,12.8-5.2c2.4-1.2,4-2,5.6-3.2
		c7.6-4.8,7.6-8.4,7.6-8.4c2.8,15.2,12,16,13.6,16c1.2,0,10.4-1.2,13.6-16c0,0,0,3.6,7.6,8.4c1.6,1.2,3.6,2,5.6,3.2
		c3.2,1.6,7.6,3.6,12.8,5.2c0,0,11.6,10.8,10.4,47.6c0,0,2.8,31.2-0.8,38.4H226.8z"/>
</g>
<path style="fill:#324A5E;" d="M227.2,411.2h-24.8c0.4-10.4,4.4-91.6-13.6-115.2c-18,23.6-14,104.8-13.6,115.2h-24.8
	c3.2-18,0.4-68.4,0.4-68.4c-5.6-34.8,0.4-90,2.4-104c0,0,2.8-28,3.2-45.2l3.2-28.8c0,0,4-18.8,2-32c2.4-1.2,4-2,5.6-3.2l2.4,31.6h38
	l2.4-31.6c1.6,1.2,3.6,2,5.6,3.2c-2,13.6,2,32,2,32l3.2,28.8c0.4,17.2,3.2,45.2,3.2,45.2c1.6,14,8,69.2,2.4,104
	C226.4,343.2,224,393.2,227.2,411.2z"/>
<path style="fill:#FFD05B;" d="M208.8,97.2c0,11.6-8.8,28-19.6,28s-19.6-16.4-19.6-28s8.8-13.6,19.6-13.6S208.8,85.6,208.8,97.2z"/>
<g>
	<path style="fill:#324A5E;" d="M210,100c0,0-0.8,6.4-4,9.6c0,0,2-8,0.4-11.2L210,100z"/>
	<path style="fill:#324A5E;" d="M168,100c0,0,0.8,6.4,4,9.6c0,0-2-8-0.4-11.2L168,100z"/>
</g>
<path style="fill:#E6E9EE;" d="M211.6,92.8c0.4-2,0.8-4,0.8-6c0-13.2-10.4-23.6-23.6-23.6s-23.6,10.4-23.6,23.6c0,2,0.4,4,0.8,6
	H211.6z"/>
<path style="fill:#FFFFFF;" d="M212,92.8h-14.4l4-25.6c0.4-2.8-1.6-5.2-4.4-5.2h-16.4c-2.8,0-4.8,2.4-4.4,5.2l4,25.6H166
	c-2,0-3.6,1.6-3.6,3.6s1.6,3.6,3.6,3.6h46c2,0,3.6-1.6,3.6-3.6S214,92.8,212,92.8z"/>
<g>
	<path style="fill:#2B3B4E;" d="M231.2,414.4c-0.8-10.8-7.6-19.2-16-19.2s-15.2,8.4-16,19.2H231.2z"/>
	<path style="fill:#2B3B4E;" d="M178.8,414.4c-0.8-10.8-7.6-19.2-16-19.2s-15.2,8.4-16,19.2H178.8z"/>
</g>
<g>
</g>
<g>
</g>
<g>
</g>
<g>
</g>
<g>
</g>
<g>
</g>
<g>
</g>
<g>
</g>
<g>
</g>
<g>
</g>
<g>
</g>
<g>
</g>
<g>
</g>
<g>
</g>
<g>
</g>
</svg>
