<?xml version="1.0" encoding="iso-8859-1"?>
<!-- Generator: Adobe Illustrator 19.0.0, SVG Export Plug-In . SVG Version: 6.00 Build 0)  -->
<svg version="1.1" id="Layer_1" xmlns="http://www.w3.org/2000/svg" xmlns:xlink="http://www.w3.org/1999/xlink" x="0px" y="0px"
	 viewBox="0 0 506 506" style="enable-background:new 0 0 506 506;" xml:space="preserve">
<circle style="fill:#FD8469;" cx="253" cy="253" r="253"/>
<g>
	<rect x="366.1" y="94.9" style="fill:#324A5E;" width="11" height="316.3"/>
	<rect x="287.1" y="94.9" style="fill:#324A5E;" width="11" height="316.3"/>
	<rect x="208" y="94.9" style="fill:#324A5E;" width="11" height="316.3"/>
	<rect x="128.9" y="94.9" style="fill:#324A5E;" width="11" height="316.3"/>
</g>
<rect x="94.9" y="378.9" style="fill:#2B3B4E;" width="316.3" height="32.2"/>
<circle style="fill:#E6E9EE;" cx="371.6" cy="170.5" r="23.9"/>
<circle style="fill:#ACB3BA;" cx="371.6" cy="243" r="23.9"/>
<circle style="fill:#2FB5A0;" cx="213.5" cy="216.8" r="23.9"/>
<circle style="fill:#FFFFFF;" cx="213.5" cy="289.2" r="23.9"/>
<g>
	<circle style="fill:#FFD05B;" cx="371.6" cy="315.4" r="23.9"/>
	<circle style="fill:#FFD05B;" cx="292.5" cy="167.3" r="23.9"/>
</g>
<circle style="fill:#F9B54C;" cx="292.5" cy="219.1" r="23.9"/>
<circle style="fill:#84DBFF;" cx="292.5" cy="270.8" r="23.9"/>
<circle style="fill:#4CDBC4;" cx="292.5" cy="346.4" r="23.9"/>
<circle style="fill:#ACB3BA;" cx="134.7" cy="344.5" r="23.9"/>
<circle style="fill:#FFD05B;" cx="134.7" cy="292.8" r="23.9"/>
<circle style="fill:#84DBFF;" cx="134.1" cy="241.1" r="23.9"/>
<circle style="fill:#2FB5A0;" cx="134.1" cy="165.5" r="23.9"/>
<g>
</g>
<g>
</g>
<g>
</g>
<g>
</g>
<g>
</g>
<g>
</g>
<g>
</g>
<g>
</g>
<g>
</g>
<g>
</g>
<g>
</g>
<g>
</g>
<g>
</g>
<g>
</g>
<g>
</g>
</svg>
