<?xml version="1.0" encoding="iso-8859-1"?>
<!-- Generator: Adobe Illustrator 19.0.0, SVG Export Plug-In . SVG Version: 6.00 Build 0)  -->
<svg version="1.1" id="Layer_1" xmlns="http://www.w3.org/2000/svg" xmlns:xlink="http://www.w3.org/1999/xlink" x="0px" y="0px"
	 viewBox="0 0 506 506" style="enable-background:new 0 0 506 506;" xml:space="preserve">
<circle style="fill:#84DBFF;" cx="253" cy="253" r="253"/>
<rect x="240.8" y="101.6" style="fill:#FF7058;" width="24.3" height="40.9"/>
<circle style="fill:#324A5E;" cx="253" cy="264.6" r="144.7"/>
<circle style="fill:#FFFFFF;" cx="253" cy="264.6" r="107.8"/>
<g>
	
		<rect x="154.021" y="364.283" transform="matrix(-0.7071 -0.7071 0.7071 -0.7071 5.2177 786.1274)" style="fill:#324A5E;" width="22.8" height="55.399"/>
	
		<rect x="312.895" y="380.604" transform="matrix(-0.7071 -0.7071 0.7071 -0.7071 304.2434 910.0298)" style="fill:#324A5E;" width="55.399" height="22.8"/>
	<path style="fill:#324A5E;" d="M185.9,113.3c-23.4-21.9-60.1-21.5-82.9,1.3s-23.2,59.5-1.3,82.9L185.9,113.3z"/>
	<path style="fill:#324A5E;" d="M320.1,113.3c23.4-21.9,60.1-21.5,82.9,1.3s23.2,59.5,1.3,82.9L320.1,113.3z"/>
</g>
<polygon style="fill:#FF7058;" points="303.4,272.2 245.5,272.2 245.5,182.3 260.7,182.3 260.7,257 303.4,257 "/>
<g>
</g>
<g>
</g>
<g>
</g>
<g>
</g>
<g>
</g>
<g>
</g>
<g>
</g>
<g>
</g>
<g>
</g>
<g>
</g>
<g>
</g>
<g>
</g>
<g>
</g>
<g>
</g>
<g>
</g>
</svg>
