<?xml version="1.0" encoding="iso-8859-1"?>
<!-- Generator: Adobe Illustrator 19.0.0, SVG Export Plug-In . SVG Version: 6.00 Build 0)  -->
<svg version="1.1" id="Layer_1" xmlns="http://www.w3.org/2000/svg" xmlns:xlink="http://www.w3.org/1999/xlink" x="0px" y="0px"
	 viewBox="0 0 506 506" style="enable-background:new 0 0 506 506;" xml:space="preserve">
<circle style="fill:#FD8469;" cx="253" cy="253" r="253"/>
<rect x="94.9" y="94.9" style="fill:#324A5E;" width="316.3" height="185.5"/>
<rect x="110.7" y="110.7" style="fill:#E6E9EE;" width="284.6" height="153.9"/>
<circle style="fill:#FFD05B;" cx="167.3" cy="196.3" r="25.4"/>
<path style="fill:#2FB5A0;" d="M114.6,286.3c0-29.1,23.6-52.7,52.7-52.7s52.7,23.6,52.7,52.7"/>
<path style="fill:#FF7058;" d="M217.7,205.3v-34.1H243v5.8h-18.4v7.6h17.1v5.7h-17.1v9.3h19.1v5.7L217.7,205.3L217.7,205.3z"/>
<path style="fill:#2FB5A0;" d="M248,186.3v-6h23.9v6H248z M248,196.6v-6h23.9v6H248z"/>
<path style="fill:#54C0EB;" d="M277.2,205.3v-34.1h10.3l6.2,23.3l6.1-23.3h10.3v34.1h-6.4v-26.9l-6.8,26.9h-6.6l-6.7-26.9v26.9
	L277.2,205.3L277.2,205.3z"/>
<path style="fill:#ACB3BA;" d="M338.8,192.7l6.7,2.1c-1,3.7-2.7,6.5-5.1,8.3s-5.4,2.7-9.1,2.7c-4.5,0-8.3-1.5-11.2-4.6
	c-2.9-3.1-4.4-7.3-4.4-12.7c0-5.7,1.5-10.1,4.4-13.2s6.8-4.7,11.6-4.7c4.2,0,7.6,1.2,10.2,3.7c1.6,1.5,2.7,3.6,3.5,6.3l-6.8,1.6
	c-0.4-1.8-1.2-3.2-2.5-4.2s-2.8-1.5-4.7-1.5c-2.5,0-4.6,0.9-6.2,2.7s-2.4,4.8-2.4,8.8c0,4.3,0.8,7.4,2.3,9.2
	c1.6,1.8,3.6,2.7,6.1,2.7c1.8,0,3.4-0.6,4.7-1.7C337.3,197.1,338.3,195.2,338.8,192.7z"/>
<path style="fill:#324A5E;" d="M361.9,161v4.3h-16.4c0.2-1.6,0.7-3.2,1.6-4.7s2.6-3.4,5.3-5.8c2.1-2,3.4-3.3,3.9-4
	c0.6-1,1-1.9,1-2.9s-0.3-1.8-0.8-2.4s-1.3-0.8-2.3-0.8s-1.8,0.3-2.3,0.9c-0.6,0.6-0.9,1.6-1,2.9l-4.7-0.5c0.3-2.6,1.1-4.4,2.6-5.5
	s3.3-1.7,5.5-1.7c2.4,0,4.3,0.6,5.7,1.9s2.1,2.9,2.1,4.8c0,1.1-0.2,2.1-0.6,3.1s-1,2-1.9,3.1c-0.6,0.7-1.6,1.8-3.1,3.1
	s-2.4,2.2-2.8,2.7c-0.4,0.4-0.7,0.9-1,1.3h9.2V161z"/>
<polygon style="fill:#CED5E0;" points="208.1,411.1 126.4,411.1 120.2,300.9 214.4,300.9 "/>
<g>
	<path style="fill:#324A5E;" d="M235.6,308.3H99c-1.7,0-3.1-1.4-3.1-3.1V287c0-1.7,1.4-3.1,3.1-3.1h136.7c1.7,0,3.1,1.4,3.1,3.1
		v18.2C238.7,306.9,237.3,308.3,235.6,308.3z"/>
	<rect x="120.2" y="396.5" style="fill:#324A5E;" width="94.2" height="14.7"/>
	<polygon style="fill:#324A5E;" points="249.6,198.6 200.2,235.1 203.7,239.7 253.1,203.2 	"/>
</g>
<g>
</g>
<g>
</g>
<g>
</g>
<g>
</g>
<g>
</g>
<g>
</g>
<g>
</g>
<g>
</g>
<g>
</g>
<g>
</g>
<g>
</g>
<g>
</g>
<g>
</g>
<g>
</g>
<g>
</g>
</svg>
