<?xml version="1.0" encoding="iso-8859-1"?>
<!-- Generator: Adobe Illustrator 19.0.0, SVG Export Plug-In . SVG Version: 6.00 Build 0)  -->
<svg version="1.1" id="Layer_1" xmlns="http://www.w3.org/2000/svg" xmlns:xlink="http://www.w3.org/1999/xlink" x="0px" y="0px"
	 viewBox="0 0 506 506" style="enable-background:new 0 0 506 506;" xml:space="preserve">
<circle style="fill:#FFD05B;" cx="253" cy="253" r="253"/>
<rect x="121.3" y="360.3" style="fill:#F1543F;" width="52.9" height="21.6"/>
<rect x="94.9" y="95.9" style="fill:#324A5E;" width="316.3" height="247.3"/>
<rect x="116.9" y="116.1" style="fill:#E6E9EE;" width="272.2" height="206.9"/>
<rect x="94.9" y="379.9" style="fill:#324A5E;" width="316.3" height="30.2"/>
<path style="fill:#F1543F;" d="M175.3,184.9H175l-15.9,8.7l-2.4-9.5l19.9-10.8h10.5v92.5h-11.9v-80.9H175.3z"/>
<path style="fill:#2FB5A0;" d="M220.6,265.7V258l9.7-9.5c23.3-22.5,33.9-34.4,34-48.4c0-9.4-4.5-18.1-18.1-18.1
	c-8.3,0-15.2,4.3-19.4,7.8l-3.9-8.8c6.3-5.4,15.3-9.4,25.8-9.4c19.7,0,28,13.7,28,26.9c0,17.1-12.2,30.9-31.5,49.7l-7.3,6.8v0.3h41
	v10.4L220.6,265.7L220.6,265.7z"/>
<path style="fill:#F9B54C;" d="M295.6,251.4c3.5,2.3,11.7,5.8,20.2,5.8c15.9,0,20.8-10.2,20.6-17.9c-0.1-12.9-11.7-18.5-23.6-18.5
	H306v-9.4h6.9c9,0,20.4-4.7,20.4-15.6c0-7.4-4.6-13.9-16-13.9c-7.3,0-14.3,3.3-18.3,6.1l-3.2-9.1c4.8-3.6,14-7.1,23.9-7.1
	c18,0,26.1,10.8,26.1,22.1c0,9.5-5.6,17.6-16.9,21.8v0.3c11.2,2.3,20.4,10.8,20.4,23.8c0,14.8-11.4,27.7-33.3,27.7
	c-10.2,0-19.2-3.3-23.7-6.3L295.6,251.4z"/>
<path style="fill:#FFFFFF;" d="M368.6,379.9h-83.3c-0.9,0-1.6-0.7-1.6-1.6V369c0-0.9,0.7-1.6,1.6-1.6h83.3c0.9,0,1.6,0.7,1.6,1.6
	v9.3C370.1,379.2,369.4,379.9,368.6,379.9z"/>
<g>
</g>
<g>
</g>
<g>
</g>
<g>
</g>
<g>
</g>
<g>
</g>
<g>
</g>
<g>
</g>
<g>
</g>
<g>
</g>
<g>
</g>
<g>
</g>
<g>
</g>
<g>
</g>
<g>
</g>
</svg>
