<?xml version="1.0" encoding="iso-8859-1"?>
<!-- Generator: Adobe Illustrator 19.0.0, SVG Export Plug-In . SVG Version: 6.00 Build 0)  -->
<svg version="1.1" id="Layer_1" xmlns="http://www.w3.org/2000/svg" xmlns:xlink="http://www.w3.org/1999/xlink" x="0px" y="0px"
	 viewBox="0 0 506 506" style="enable-background:new 0 0 506 506;" xml:space="preserve">
<circle style="fill:#90DFAA;" cx="253" cy="253" r="253"/>
<rect x="94.9" y="94.9" style="fill:#324A5E;" width="316.3" height="185.5"/>
<rect x="110.7" y="110.7" style="fill:#2FB5A0;" width="284.6" height="153.9"/>
<circle style="fill:#324A5E;" cx="147.6" cy="317.2" r="25.4"/>
<path style="fill:#FF7058;" d="M147.6,358.4c-29.1,0-52.7,23.6-52.7,52.7h105.4C200.3,382,176.7,358.4,147.6,358.4z"/>
<circle style="fill:#324A5E;" cx="253" cy="317.2" r="25.4"/>
<path style="fill:#2FB5A0;" d="M253,358.4c-29.1,0-52.7,23.6-52.7,52.7h105.4C305.7,382,282.1,358.4,253,358.4z"/>
<circle style="fill:#324A5E;" cx="358.4" cy="317.2" r="25.4"/>
<path style="fill:#F9B54C;" d="M358.4,358.4c-29.1,0-52.7,23.6-52.7,52.7h105.4C411.1,382,387.5,358.4,358.4,358.4z"/>
<path style="fill:#FFFFFF;" d="M160.9,230.7v-47.6h35.3v8h-25.7v10.5h23.9v8h-23.9v12.9h26.6v8h-36.2V230.7z"/>
<path style="fill:#F9B54C;" d="M203.1,204.2v-8.4h33.3v8.4H203.1z M203.1,218.6v-8.4h33.3v8.4H203.1z"/>
<path style="fill:#324A5E;" d="M243.9,230.7v-47.6h14.4l8.6,32.4l8.5-32.4h14.4v47.6h-8.9v-37.4l-9.4,37.4h-9.2l-9.4-37.4v37.4
	L243.9,230.7L243.9,230.7z"/>
<path style="fill:#FF7058;" d="M329.8,213.2l9.3,3c-1.4,5.2-3.8,9-7.1,11.6c-3.3,2.5-7.5,3.8-12.6,3.8c-6.3,0-11.5-2.2-15.6-6.5
	s-6.1-10.2-6.1-17.7c0-7.9,2-14.1,6.1-18.4c4.1-4.4,9.5-6.6,16.1-6.6c5.8,0,10.5,1.7,14.2,5.2c2.2,2,3.8,5,4.9,8.8l-9.5,2.3
	c-0.6-2.5-1.7-4.4-3.5-5.8s-4-2.1-6.5-2.1c-3.5,0-6.4,1.3-8.6,3.8s-3.3,6.6-3.3,12.3c0,6,1.1,10.3,3.2,12.8c2.2,2.6,5,3.8,8.4,3.8
	c2.6,0,4.7-0.8,6.6-2.4C327.6,219.2,329,216.7,329.8,213.2z"/>
<path style="fill:#FFFFFF;" d="M361.9,168.9v6h-22.8c0.2-2.3,1-4.5,2.2-6.5s3.7-4.8,7.3-8.1c2.9-2.7,4.7-4.6,5.4-5.6
	c0.9-1.3,1.3-2.7,1.3-4c0-1.5-0.4-2.6-1.2-3.3s-1.9-1.2-3.2-1.2c-1.4,0-2.4,0.4-3.2,1.2s-1.3,2.2-1.4,4.1l-6.5-0.6
	c0.4-3.6,1.6-6.2,3.6-7.7s4.6-2.3,7.6-2.3c3.4,0,6,0.9,7.9,2.7s2.9,4.1,2.9,6.7c0,1.5-0.3,3-0.8,4.4s-1.4,2.8-2.6,4.3
	c-0.8,1-2.2,2.4-4.3,4.3s-3.4,3.1-3.9,3.8s-1,1.2-1.3,1.8L361.9,168.9L361.9,168.9z"/>
<g>
</g>
<g>
</g>
<g>
</g>
<g>
</g>
<g>
</g>
<g>
</g>
<g>
</g>
<g>
</g>
<g>
</g>
<g>
</g>
<g>
</g>
<g>
</g>
<g>
</g>
<g>
</g>
<g>
</g>
</svg>
