<?xml version="1.0" encoding="iso-8859-1"?>
<!-- Generator: Adobe Illustrator 19.0.0, SVG Export Plug-In . SVG Version: 6.00 Build 0)  -->
<svg version="1.1" id="Layer_1" xmlns="http://www.w3.org/2000/svg" xmlns:xlink="http://www.w3.org/1999/xlink" x="0px" y="0px"
	 viewBox="0 0 506 506" style="enable-background:new 0 0 506 506;" xml:space="preserve">
<circle style="fill:#FD8469;" cx="253" cy="253" r="253"/>
<rect x="95" y="94.9" style="fill:#F9B54C;" width="148.6" height="148.6"/>
<rect x="111.2" y="111.1" style="fill:#FFD05B;" width="116.1" height="116.1"/>
<path style="fill:#2B3B4E;" d="M207.6,207.4h-16.8l-6.7-17.4h-30.6l-6.3,17.4h-16.4l29.8-76.5H177L207.6,207.4z M179.2,177.1
	l-10.5-28.4l-10.3,28.4H179.2z"/>
<rect x="262.6" y="94.9" style="fill:#2FB5A0;" width="148.6" height="148.6"/>
<rect x="278.8" y="111.1" style="fill:#4CDBC4;" width="116.1" height="116.1"/>
<path style="fill:#FFFFFF;" d="M304.8,130.9h30.6c6.1,0,10.6,0.3,13.5,0.8c3,0.5,5.6,1.6,8,3.2c2.3,1.6,4.3,3.7,5.9,6.4
	s2.3,5.6,2.3,8.9c0,3.6-1,6.9-2.9,9.9s-4.5,5.2-7.9,6.7c4.7,1.4,8.2,3.7,10.7,6.9c2.5,3.3,3.8,7.1,3.8,11.5c0,3.5-0.8,6.9-2.4,10.1
	c-1.6,3.3-3.8,5.9-6.6,7.9c-2.8,2-6.3,3.2-10.4,3.6c-2.6,0.3-8.8,0.5-18.6,0.5h-26V130.9z M320.3,143.6v17.7h10.1
	c6,0,9.8-0.1,11.2-0.3c2.6-0.3,4.7-1.2,6.2-2.7s2.3-3.5,2.3-6c0-2.4-0.7-4.3-2-5.8s-3.2-2.4-5.8-2.7c-1.5-0.2-5.9-0.3-13.2-0.3h-8.8
	V143.6z M320.3,174.1v20.5h14.3c5.6,0,9.1-0.2,10.6-0.5c2.3-0.4,4.2-1.4,5.6-3.1c1.4-1.6,2.2-3.8,2.2-6.5c0-2.3-0.6-4.2-1.7-5.8
	s-2.7-2.8-4.8-3.5c-2.1-0.7-6.7-1.1-13.7-1.1L320.3,174.1L320.3,174.1z"/>
<rect x="94.9" y="262.6" style="fill:#54C0EB;" width="148.6" height="148.6"/>
<rect x="111.1" y="278.8" style="fill:#84DBFF;" width="116.1" height="116.1"/>
<path style="fill:#F1543F;" d="M187.5,347l15,4.7c-2.3,8.3-6.1,14.5-11.5,18.6c-5.3,4.1-12.1,6.1-20.3,6.1c-10.2,0-18.5-3.5-25-10.4
	s-9.8-16.4-9.8-28.5c0-12.7,3.3-22.6,9.9-29.7c6.6-7,15.2-10.6,25.9-10.6c9.4,0,17,2.8,22.8,8.3c3.5,3.3,6.1,8,7.8,14.1l-15.3,3.7
	c-0.9-4-2.8-7.1-5.7-9.4s-6.4-3.4-10.5-3.4c-5.7,0-10.3,2-13.8,6.1s-5.3,10.7-5.3,19.8c0,9.7,1.7,16.6,5.2,20.7s8,6.2,13.6,6.2
	c4.1,0,7.6-1.3,10.6-3.9C184.1,356.7,186.2,352.6,187.5,347z"/>
<rect x="262.6" y="262.6" style="fill:#ACB3BA;" width="148.6" height="148.6"/>
<rect x="278.8" y="278.8" style="fill:#E6E9EE;" width="116.1" height="116.1"/>
<path style="fill:#2B3B4E;" d="M304.8,298.6H333c6.4,0,11.2,0.5,14.6,1.5c4.5,1.3,8.3,3.7,11.5,7c3.2,3.4,5.6,7.5,7.3,12.4
	c1.7,4.9,2.5,10.9,2.5,18.1c0,6.3-0.8,11.7-2.3,16.3c-1.9,5.6-4.6,10.1-8.2,13.5c-2.7,2.6-6.3,4.6-10.9,6.1c-3.4,1.1-8,1.6-13.7,1.6
	h-29.1v-76.5H304.8z M320.2,311.5v50.7h11.5c4.3,0,7.4-0.2,9.3-0.7c2.5-0.6,4.6-1.7,6.2-3.2c1.7-1.5,3-4,4-7.4s1.6-8.1,1.6-14
	s-0.5-10.5-1.6-13.6c-1-3.2-2.5-5.6-4.4-7.4s-4.3-3-7.1-3.6c-2.2-0.5-6.4-0.7-12.7-0.7h-6.8V311.5z"/>
<g>
</g>
<g>
</g>
<g>
</g>
<g>
</g>
<g>
</g>
<g>
</g>
<g>
</g>
<g>
</g>
<g>
</g>
<g>
</g>
<g>
</g>
<g>
</g>
<g>
</g>
<g>
</g>
<g>
</g>
</svg>
