<?xml version="1.0" encoding="iso-8859-1"?>
<!-- Generator: Adobe Illustrator 19.0.0, SVG Export Plug-In . SVG Version: 6.00 Build 0)  -->
<svg version="1.1" id="Layer_1" xmlns="http://www.w3.org/2000/svg" xmlns:xlink="http://www.w3.org/1999/xlink" x="0px" y="0px"
	 viewBox="0 0 506 506" style="enable-background:new 0 0 506 506;" xml:space="preserve">
<circle style="fill:#90DFAA;" cx="253" cy="253" r="253"/>
<path style="fill:#FF7058;" d="M391.5,251.4c3.8-6.5,6-13.9,6-21.9c0-16.1-9.1-30.8-23.9-39.1c7.9-8.1,12.8-18.8,12.8-30.6
	c0-21-15.2-39.1-37.1-44.3C345,94.2,324.7,78,300.4,78c-22.2,0-41,13.5-47.4,32c-6.4-18.5-25.2-32-47.4-32
	c-24.4,0-44.7,16.3-48.9,37.7c-21.9,5.3-37.1,23.4-37.1,44.3c0,11.7,4.9,22.4,12.8,30.6c-14.8,8.3-23.9,23-23.9,39.1
	c0,7.9,2.2,15.4,6,21.9c-3.9,6.6-6,14.1-6,21.7c0,11.9,5,22.7,13.1,30.9c-1.3,4.1-1.9,8.3-1.9,12.6c0,22.2,16.9,40.9,40.4,45
	c7.7,16.2,25.2,27.5,45.5,27.5c24.8,0,45,18.5,45,41.2h4.7c0-22.7,20.2-41.2,45-41.2c20.3,0,37.8-11.3,45.5-27.5
	c23.5-4.1,40.4-22.8,40.4-45c0-4.3-0.7-8.5-1.9-12.6c8.2-8.3,13.1-19.3,13.1-30.9C397.5,265.5,395.3,258.1,391.5,251.4z"/>
<path style="fill:#F1543F;" d="M394.1,251.4c3.6-6.6,5.7-14,5.7-21.8c0-16-8.5-30.7-22.5-39.6c7.1-8.2,11.4-18.7,11.4-30
	c0-21.6-15.3-40.2-37.4-46.2c-5-21.7-25.9-38.1-50.9-38.1c-21.1,0-39.2,11.7-47.4,28.4c-8.2-16.7-26.3-28.4-47.4-28.4
	c-25,0-45.8,16.4-50.9,38.1c-22.1,6-37.4,24.6-37.4,46.2c0,11.3,4.3,21.8,11.4,30c-14,8.9-22.5,23.6-22.5,39.6
	c0,7.9,2.1,15.3,5.7,21.8c-3.7,6.7-5.7,14.1-5.7,21.7c0,12.1,4.8,23.1,12.8,31.5c-1.1,3.9-1.7,7.9-1.7,12c0,23,17.2,42.4,41.2,47.1
	c8.3,16.4,26.3,27.8,47.1,27.8c23.5,0,42.7,17.4,42.7,38.9h9.3c0-21.4,19.2-38.9,42.7-38.9c20.8,0,38.7-11.4,47.1-27.8
	c24-4.7,41.2-24.1,41.2-47.1c0-4.1-0.6-8.1-1.6-12c8-8.6,12.8-19.7,12.8-31.5C399.8,265.5,397.8,258.1,394.1,251.4z M205.6,382.2
	c-23.5,0-42.7-17.4-42.7-38.9c0-21.4,19.2-38.9,42.7-38.9v-9.3c-28.7,0-52,21.6-52,48.2c0,3.4,0.4,6.7,1.1,9.8
	c-16.6-5.5-28-19.9-28-36.5c0-1.7,0.2-3.4,0.4-5c8.7,6.1,19.5,9.7,31.2,9.7V312c-23.6,0-42.7-17.4-42.7-38.9c0-4.4,0.9-8.8,2.5-12.9
	c9.6,10.7,24,17.6,40.2,17.6c28.7,0,52-21.6,52-48.2H201c0,21.4-19.2,38.9-42.7,38.9c-23.6,0-42.7-17.4-42.7-38.9
	c0-13.5,7.7-25.8,20.2-32.9c9.1,7.1,20.8,11.5,33.6,11.5v-9.3c-23.5,0-42.7-17.4-42.7-38.9c0-16.2,10.8-30.3,26.9-36.1
	c0,26.6,23.4,48.2,52,48.2v-9.3c-23.5,0-42.7-17.4-42.7-38.9S182.1,85,205.6,85s42.7,17.4,42.7,38.9V403
	C238.9,390.4,223.3,382.2,205.6,382.2z M351.3,353.2c0.7-3.2,1.1-6.5,1.1-9.8c0-26.6-23.3-48.2-52-48.2v9.3
	c23.6,0,42.7,17.4,42.7,38.9c0,21.4-19.2,38.9-42.7,38.9c-17.7,0-33.3,8.2-42.7,20.7V123.8c0-21.4,19.2-38.9,42.7-38.9
	c23.6,0,42.7,17.4,42.7,38.9s-19.2,38.9-42.7,38.9v9.3c28.7,0,52-21.6,52-48.2c16.1,5.8,26.9,19.9,26.9,36.1
	c0,21.4-19.2,38.9-42.7,38.9v9.3c12.8,0,24.6-4.3,33.6-11.5c12.5,7.1,20.2,19.4,20.2,32.9c0,21.4-19.2,38.9-42.7,38.9
	c-23.6,0-42.7-17.4-42.7-38.9h-9.3c0,26.6,23.3,48.2,52,48.2c16.2,0,30.6-6.9,40.2-17.6c1.6,4.1,2.5,8.5,2.5,12.9
	c0,16.1-11.2,30.8-27.8,36.4l3,8.8c4.8-1.6,9.3-3.9,13.2-6.7c0.2,1.6,0.4,3.3,0.4,5C379.3,333.3,367.9,347.7,351.3,353.2z"/>
<g>
</g>
<g>
</g>
<g>
</g>
<g>
</g>
<g>
</g>
<g>
</g>
<g>
</g>
<g>
</g>
<g>
</g>
<g>
</g>
<g>
</g>
<g>
</g>
<g>
</g>
<g>
</g>
<g>
</g>
</svg>
