<?xml version="1.0" encoding="iso-8859-1"?>
<!-- Generator: Adobe Illustrator 19.0.0, SVG Export Plug-In . SVG Version: 6.00 Build 0)  -->
<svg version="1.1" id="Layer_1" xmlns="http://www.w3.org/2000/svg" xmlns:xlink="http://www.w3.org/1999/xlink" x="0px" y="0px"
	 viewBox="0 0 506 506" style="enable-background:new 0 0 506 506;" xml:space="preserve">
<circle style="fill:#324A5E;" cx="253" cy="253" r="253"/>
<path style="fill:#E6E9EE;" d="M127.4,106.7v292.5c0,6.5,5.3,11.9,11.9,11.9h227.5c6.5,0,11.9-5.3,11.9-11.9V106.7
	c0-6.5-5.3-11.9-11.9-11.9H139.3C132.7,94.9,127.4,100.2,127.4,106.7z"/>
<rect x="153.1" y="119.4" style="fill:#2FB5A0;" width="199.8" height="74.8"/>
<path style="fill:#324A5E;" d="M352.9,194.1H153.1v-74.8h199.8L352.9,194.1L352.9,194.1z M160.3,187.2h185.3v-60.8H160.3V187.2z"/>
<rect x="154.9" y="213.4" style="fill:#4CDBC4;" width="45.4" height="23.5"/>
<rect x="175.8" y="213.4" style="fill:#2FB5A0;" width="24.5" height="23.5"/>
<rect x="254.8" y="213.4" style="fill:#F9B54C;" width="22.7" height="23.5"/>
<rect x="230.3" y="213.4" style="fill:#FFD05B;" width="24.5" height="23.5"/>
<rect x="305.7" y="213.4" style="fill:#84DBFF;" width="45.4" height="23.5"/>
<rect x="326.6" y="213.4" style="fill:#54C0EB;" width="24.5" height="23.5"/>
<rect x="154.9" y="244.8" style="fill:#324A5E;" width="31" height="29.8"/>
<g>
	<rect x="154.9" y="282.1" style="fill:#ACB3BA;" width="31" height="29.8"/>
	<rect x="210" y="244.8" style="fill:#ACB3BA;" width="31" height="29.8"/>
</g>
<rect x="265.1" y="244.8" style="fill:#FF7058;" width="31" height="29.8"/>
<g>
	<rect x="320.1" y="244.8" style="fill:#ACB3BA;" width="31" height="29.8"/>
	<rect x="210" y="282.1" style="fill:#ACB3BA;" width="31" height="29.8"/>
	<rect x="265.1" y="282.1" style="fill:#ACB3BA;" width="31" height="29.8"/>
	<rect x="320.1" y="282.1" style="fill:#ACB3BA;" width="31" height="29.8"/>
	<rect x="154.9" y="319.5" style="fill:#ACB3BA;" width="31" height="29.8"/>
	<rect x="210" y="319.5" style="fill:#ACB3BA;" width="31" height="29.8"/>
	<rect x="265.1" y="319.5" style="fill:#ACB3BA;" width="31" height="29.8"/>
	<rect x="154.9" y="356.9" style="fill:#ACB3BA;" width="31" height="29.8"/>
</g>
<rect x="210" y="356.9" style="fill:#324A5E;" width="31" height="29.8"/>
<rect x="265.1" y="356.9" style="fill:#ACB3BA;" width="31" height="29.8"/>
<rect x="320.1" y="319.5" style="fill:#FF7058;" width="31" height="67.2"/>
<g>
</g>
<g>
</g>
<g>
</g>
<g>
</g>
<g>
</g>
<g>
</g>
<g>
</g>
<g>
</g>
<g>
</g>
<g>
</g>
<g>
</g>
<g>
</g>
<g>
</g>
<g>
</g>
<g>
</g>
</svg>
