<?xml version="1.0" encoding="iso-8859-1"?>
<!-- Generator: Adobe Illustrator 19.0.0, SVG Export Plug-In . SVG Version: 6.00 Build 0)  -->
<svg version="1.1" id="Layer_1" xmlns="http://www.w3.org/2000/svg" xmlns:xlink="http://www.w3.org/1999/xlink" x="0px" y="0px"
	 viewBox="0 0 506 506" style="enable-background:new 0 0 506 506;" xml:space="preserve">
<circle style="fill:#324A5E;" cx="253" cy="253" r="253"/>
<path style="fill:#84DBFF;" d="M106.7,160.9v199.6h208.7l0.5-1.5c8.6-26.4,32.3-44.1,59.1-44.1c2.3,0,4.7,0.2,7.5,0.5l2.3,0.3V160.9
	H106.7z"/>
<path style="fill:#FFFFFF;" d="M361.1,316.8V202.5H130.5v139.1h197C335.7,330.2,347.4,321.4,361.1,316.8z"/>
<rect x="106.7" y="110.7" style="fill:#FF7058;" width="278.1" height="50.2"/>
<rect x="191.8" y="224.1" style="fill:#2FB5A0;" width="25.1" height="21.2"/>
<g>
	<rect x="233.2" y="224.1" style="fill:#CED5E0;" width="25.1" height="21.2"/>
	<rect x="274.6" y="224.1" style="fill:#CED5E0;" width="25.1" height="21.2"/>
</g>
<rect x="316" y="224.1" style="fill:#FF7058;" width="25.1" height="21.2"/>
<g>
	<rect x="150.4" y="261.4" style="fill:#CED5E0;" width="25.1" height="21.2"/>
	<rect x="191.8" y="261.4" style="fill:#CED5E0;" width="25.1" height="21.2"/>
	<rect x="233.2" y="261.4" style="fill:#CED5E0;" width="25.1" height="21.2"/>
	<rect x="274.6" y="261.4" style="fill:#CED5E0;" width="25.1" height="21.2"/>
	<rect x="316" y="261.4" style="fill:#CED5E0;" width="25.1" height="21.2"/>
	<rect x="150.4" y="298.7" style="fill:#CED5E0;" width="25.1" height="21.2"/>
	<rect x="191.8" y="298.7" style="fill:#CED5E0;" width="25.1" height="21.2"/>
</g>
<rect x="233.2" y="298.7" style="fill:#FF7058;" width="25.1" height="21.2"/>
<rect x="274.6" y="298.7" style="fill:#CED5E0;" width="25.1" height="21.2"/>
<path style="fill:#E6E9EE;" d="M127.9,172.4c-4.5,0-8.2,3.6-8.2,8.1s3.7,8.1,8.2,8.1s8.2-3.6,8.2-8.1
	C136.1,176,132.4,172.4,127.9,172.4z"/>
<path style="fill:#ACB3BA;" d="M127.9,187.1c-4.3,0-7.7-3.2-8.1-7.4c0,0.3-0.1,0.5-0.1,0.8c0,4.5,3.7,8.1,8.2,8.1s8.2-3.6,8.2-8.1
	c0-0.3-0.1-0.5-0.1-0.8C135.7,183.8,132.2,187.1,127.9,187.1z"/>
<path style="fill:#E6E9EE;" d="M167.2,172.4c-4.5,0-8.2,3.6-8.2,8.1s3.7,8.1,8.2,8.1s8.2-3.6,8.2-8.1S171.7,172.4,167.2,172.4z"/>
<path style="fill:#ACB3BA;" d="M167.2,187.1c-4.3,0-7.7-3.2-8.1-7.4c0,0.3-0.1,0.5-0.1,0.8c0,4.5,3.7,8.1,8.2,8.1s8.2-3.6,8.2-8.1
	c0-0.3-0.1-0.5-0.1-0.8C174.9,183.8,171.5,187.1,167.2,187.1z"/>
<path style="fill:#E6E9EE;" d="M206.5,172.4c-4.5,0-8.2,3.6-8.2,8.1s3.7,8.1,8.2,8.1s8.2-3.6,8.2-8.1S211,172.4,206.5,172.4z"/>
<path style="fill:#ACB3BA;" d="M206.5,187.1c-4.3,0-7.7-3.2-8.1-7.4c0,0.3-0.1,0.5-0.1,0.8c0,4.5,3.7,8.1,8.2,8.1s8.2-3.6,8.2-8.1
	c0-0.3-0.1-0.5-0.1-0.8C214.2,183.8,210.8,187.1,206.5,187.1z"/>
<path style="fill:#E6E9EE;" d="M245.8,172.4c-4.5,0-8.2,3.6-8.2,8.1s3.7,8.1,8.2,8.1s8.2-3.6,8.2-8.1S250.3,172.4,245.8,172.4z"/>
<path style="fill:#ACB3BA;" d="M245.8,187.1c-4.3,0-7.7-3.2-8.1-7.4c0,0.3-0.1,0.5-0.1,0.8c0,4.5,3.7,8.1,8.2,8.1s8.2-3.6,8.2-8.1
	c0-0.3-0.1-0.5-0.1-0.8C253.5,183.8,250,187.1,245.8,187.1z"/>
<path style="fill:#E6E9EE;" d="M285.1,172.4c-4.5,0-8.2,3.6-8.2,8.1s3.7,8.1,8.2,8.1s8.2-3.6,8.2-8.1
	C293.3,176,289.6,172.4,285.1,172.4z"/>
<path style="fill:#ACB3BA;" d="M285.1,187.1c-4.3,0-7.7-3.2-8.1-7.4c0,0.3-0.1,0.5-0.1,0.8c0,4.5,3.7,8.1,8.2,8.1s8.2-3.6,8.2-8.1
	c0-0.3-0.1-0.5-0.1-0.8C292.8,183.8,289.3,187.1,285.1,187.1z"/>
<path style="fill:#E6E9EE;" d="M324.3,172.4c-4.5,0-8.2,3.6-8.2,8.1s3.7,8.1,8.2,8.1s8.2-3.6,8.2-8.1S328.9,172.4,324.3,172.4z"/>
<path style="fill:#ACB3BA;" d="M324.3,187.1c-4.3,0-7.7-3.2-8.1-7.4c0,0.3-0.1,0.5-0.1,0.8c0,4.5,3.7,8.1,8.2,8.1s8.2-3.6,8.2-8.1
	c0-0.3-0.1-0.5-0.1-0.8C332.1,183.8,328.6,187.1,324.3,187.1z"/>
<path style="fill:#E6E9EE;" d="M363.6,172.4c-4.5,0-8.2,3.6-8.2,8.1s3.7,8.1,8.2,8.1s8.2-3.6,8.2-8.1
	C371.8,176,368.1,172.4,363.6,172.4z"/>
<path style="fill:#ACB3BA;" d="M363.6,187.1c-4.3,0-7.7-3.2-8.1-7.4c0,0.3-0.1,0.5-0.1,0.8c0,4.5,3.7,8.1,8.2,8.1s8.2-3.6,8.2-8.1
	c0-0.3-0.1-0.5-0.1-0.8C371.4,183.8,367.9,187.1,363.6,187.1z"/>
<path style="fill:#E6E9EE;" d="M127.9,149.5c-4.5,0-8.2-3.6-8.2-8.1s3.7-8.1,8.2-8.1s8.2,3.6,8.2,8.1
	C136.1,145.9,132.4,149.5,127.9,149.5z"/>
<path style="fill:#ACB3BA;" d="M127.9,134.8c-4.3,0-7.7,3.2-8.1,7.4c0-0.3-0.1-0.5-0.1-0.8c0-4.5,3.7-8.1,8.2-8.1s8.2,3.6,8.2,8.1
	c0,0.3-0.1,0.5-0.1,0.8C135.7,138,132.2,134.8,127.9,134.8z"/>
<path style="fill:#E6E9EE;" d="M167.2,149.5c-4.5,0-8.2-3.6-8.2-8.1s3.7-8.1,8.2-8.1s8.2,3.6,8.2,8.1S171.7,149.5,167.2,149.5z"/>
<path style="fill:#ACB3BA;" d="M167.2,134.8c-4.3,0-7.7,3.2-8.1,7.4c0-0.3-0.1-0.5-0.1-0.8c0-4.5,3.7-8.1,8.2-8.1s8.2,3.6,8.2,8.1
	c0,0.3-0.1,0.5-0.1,0.8C174.9,138,171.5,134.8,167.2,134.8z"/>
<path style="fill:#E6E9EE;" d="M206.5,149.5c-4.5,0-8.2-3.6-8.2-8.1s3.7-8.1,8.2-8.1s8.2,3.6,8.2,8.1S211,149.5,206.5,149.5z"/>
<path style="fill:#ACB3BA;" d="M206.5,134.8c-4.3,0-7.7,3.2-8.1,7.4c0-0.3-0.1-0.5-0.1-0.8c0-4.5,3.7-8.1,8.2-8.1s8.2,3.6,8.2,8.1
	c0,0.3-0.1,0.5-0.1,0.8C214.2,138,210.8,134.8,206.5,134.8z"/>
<path style="fill:#E6E9EE;" d="M245.8,149.5c-4.5,0-8.2-3.6-8.2-8.1s3.7-8.1,8.2-8.1s8.2,3.6,8.2,8.1S250.3,149.5,245.8,149.5z"/>
<path style="fill:#ACB3BA;" d="M245.8,134.8c-4.3,0-7.7,3.2-8.1,7.4c0-0.3-0.1-0.5-0.1-0.8c0-4.5,3.7-8.1,8.2-8.1s8.2,3.6,8.2,8.1
	c0,0.3-0.1,0.5-0.1,0.8C253.5,138,250,134.8,245.8,134.8z"/>
<path style="fill:#E6E9EE;" d="M285.1,149.5c-4.5,0-8.2-3.6-8.2-8.1s3.7-8.1,8.2-8.1s8.2,3.6,8.2,8.1
	C293.3,145.9,289.6,149.5,285.1,149.5z"/>
<path style="fill:#ACB3BA;" d="M285.1,134.8c-4.3,0-7.7,3.2-8.1,7.4c0-0.3-0.1-0.5-0.1-0.8c0-4.5,3.7-8.1,8.2-8.1s8.2,3.6,8.2,8.1
	c0,0.3-0.1,0.5-0.1,0.8C292.8,138,289.3,134.8,285.1,134.8z"/>
<path style="fill:#E6E9EE;" d="M324.3,149.5c-4.5,0-8.2-3.6-8.2-8.1s3.7-8.1,8.2-8.1s8.2,3.6,8.2,8.1S328.9,149.5,324.3,149.5z"/>
<path style="fill:#ACB3BA;" d="M324.3,134.8c-4.3,0-7.7,3.2-8.1,7.4c0-0.3-0.1-0.5-0.1-0.8c0-4.5,3.7-8.1,8.2-8.1s8.2,3.6,8.2,8.1
	c0,0.3-0.1,0.5-0.1,0.8C332.1,138,328.6,134.8,324.3,134.8z"/>
<path style="fill:#E6E9EE;" d="M363.6,149.5c-4.5,0-8.2-3.6-8.2-8.1s3.7-8.1,8.2-8.1s8.2,3.6,8.2,8.1
	C371.8,145.9,368.1,149.5,363.6,149.5z"/>
<path style="fill:#ACB3BA;" d="M363.6,134.8c-4.3,0-7.7,3.2-8.1,7.4c0-0.3-0.1-0.5-0.1-0.8c0-4.5,3.7-8.1,8.2-8.1s8.2,3.6,8.2,8.1
	c0,0.3-0.1,0.5-0.1,0.8C371.4,138,367.9,134.8,363.6,134.8z"/>
<g>
	<path style="fill:#324A5E;" d="M131.4,182.1h-6.9c-0.6,0-1.2-0.5-1.2-1.2v-40.1c0-0.6,0.5-1.2,1.2-1.2h6.9c0.6,0,1.2,0.5,1.2,1.2
		V181C132.5,181.6,132,182.1,131.4,182.1z"/>
	<path style="fill:#324A5E;" d="M170.7,182.1h-6.9c-0.6,0-1.2-0.5-1.2-1.2v-40.1c0-0.6,0.5-1.2,1.2-1.2h6.9c0.6,0,1.2,0.5,1.2,1.2
		V181C171.8,181.6,171.3,182.1,170.7,182.1z"/>
	<path style="fill:#324A5E;" d="M209.9,182.1H203c-0.6,0-1.2-0.5-1.2-1.2v-40.1c0-0.6,0.5-1.2,1.2-1.2h6.9c0.6,0,1.2,0.5,1.2,1.2
		V181C211.1,181.6,210.6,182.1,209.9,182.1z"/>
	<path style="fill:#324A5E;" d="M249.2,182.1h-6.9c-0.6,0-1.2-0.5-1.2-1.2v-40.1c0-0.6,0.5-1.2,1.2-1.2h6.9c0.6,0,1.2,0.5,1.2,1.2
		V181C250.4,181.6,249.9,182.1,249.2,182.1z"/>
	<path style="fill:#324A5E;" d="M288.5,182.1h-6.9c-0.6,0-1.2-0.5-1.2-1.2v-40.1c0-0.6,0.5-1.2,1.2-1.2h6.9c0.6,0,1.2,0.5,1.2,1.2
		V181C289.7,181.6,289.2,182.1,288.5,182.1z"/>
	<path style="fill:#324A5E;" d="M327.8,182.1h-6.9c-0.6,0-1.2-0.5-1.2-1.2v-40.1c0-0.6,0.5-1.2,1.2-1.2h6.9c0.6,0,1.2,0.5,1.2,1.2
		v40.1C329,181.6,328.4,182.1,327.8,182.1z"/>
	<path style="fill:#324A5E;" d="M367.1,182.1h-6.9c-0.6,0-1.2-0.5-1.2-1.2v-40.1c0-0.6,0.5-1.2,1.2-1.2h6.9c0.6,0,1.2,0.5,1.2,1.2
		V181C368.2,181.6,367.7,182.1,367.1,182.1z"/>
</g>
<ellipse style="fill:#FFD05B;" cx="358.5" cy="362.6" rx="55" ry="54.9"/>
<ellipse style="fill:#FFFFFF;" cx="358.5" cy="362.6" rx="49.3" ry="49.2"/>
<g>
	<path style="fill:#F9B54C;" d="M355.7,303.5v16.6c0,1.5,1.2,2.8,2.8,2.8s2.8-1.2,2.8-2.8v-16.6H355.7z"/>
	<path style="fill:#F9B54C;" d="M361.2,421.6V405c0-1.5-1.2-2.8-2.8-2.8s-2.8,1.2-2.8,2.8v16.6H361.2z"/>
	<path style="fill:#F9B54C;" d="M417.5,359.8h-16.6c-1.5,0-2.8,1.2-2.8,2.8c0,1.5,1.2,2.8,2.8,2.8h16.6V359.8z"/>
	<path style="fill:#F9B54C;" d="M299.4,365.3H316c1.5,0,2.8-1.2,2.8-2.8c0-1.5-1.2-2.8-2.8-2.8h-16.6V365.3z"/>
	<path style="fill:#F9B54C;" d="M358.5,298.2c-35.6,0-64.5,28.8-64.5,64.4s28.9,64.4,64.5,64.4s64.5-28.8,64.5-64.4
		S394.1,298.2,358.5,298.2z M358.5,417.4c-30.4,0-55-24.6-55-54.9s24.6-54.9,55-54.9s55,24.6,55,54.9S388.8,417.4,358.5,417.4z"/>
</g>
<polygon style="fill:#ACB3BA;" points="351.2,365.9 348.5,362.7 351.3,359.6 385.1,362.1 386.3,363.4 385.1,364.7 "/>
<polygon style="fill:#CED5E0;" points="357.3,371.1 353.1,371.7 351.9,367.7 378.8,328.9 380.5,328.5 380.9,330.2 "/>
<circle style="fill:#2B3B4E;" cx="358.5" cy="362.8" r="1.9"/>
<g>
</g>
<g>
</g>
<g>
</g>
<g>
</g>
<g>
</g>
<g>
</g>
<g>
</g>
<g>
</g>
<g>
</g>
<g>
</g>
<g>
</g>
<g>
</g>
<g>
</g>
<g>
</g>
<g>
</g>
</svg>
