<?xml version="1.0" encoding="iso-8859-1"?>
<!-- Generator: Adobe Illustrator 19.0.0, SVG Export Plug-In . SVG Version: 6.00 Build 0)  -->
<svg version="1.1" id="Layer_1" xmlns="http://www.w3.org/2000/svg" xmlns:xlink="http://www.w3.org/1999/xlink" x="0px" y="0px"
	 viewBox="0 0 506 506" style="enable-background:new 0 0 506 506;" xml:space="preserve">
<circle style="fill:#FD8469;" cx="253" cy="253" r="253"/>
<path style="fill:#E6E9EE;" d="M253,164.1H94.9v236.8h17v-29.3H394v29.3h17h0.1V164.1H253z M111.9,354.6V279l282.2-0.8v76.4H111.9z"
	/>
<rect x="119.4" y="105.1" style="fill:#324A5E;" width="141.4" height="26.9"/>
<g>
	<rect x="134.4" y="105.1" style="fill:#2B3B4E;" width="12.4" height="26.9"/>
	<rect x="233.4" y="105.1" style="fill:#2B3B4E;" width="12.4" height="26.9"/>
</g>
<g>
	<rect x="155.4" y="154" style="fill:#FFFFFF;" width="52" height="2.4"/>
	<rect x="155.4" y="141.1" style="fill:#FFFFFF;" width="86.3" height="2.4"/>
</g>
<rect x="109.5" y="132" style="fill:#2FB5A0;" width="178" height="33.6"/>
<g>
	<rect x="128.5" y="132" style="fill:#4CDBC4;" width="15.6" height="33.6"/>
	<rect x="253" y="132" style="fill:#4CDBC4;" width="15.6" height="33.6"/>
	<rect x="272.9" y="132" style="fill:#4CDBC4;" width="5.6" height="33.6"/>
	<rect x="118.5" y="132" style="fill:#4CDBC4;" width="5.6" height="33.6"/>
</g>
<g>
	<rect x="111.9" y="181.5" style="fill:#ACB3BA;" width="133.5" height="79.2"/>
	<rect x="262.2" y="181.5" style="fill:#ACB3BA;" width="133.5" height="79.2"/>
</g>
<g>
	<polygon style="fill:#324A5E;" points="207,236.3 138.6,236.3 138.6,217.5 146.4,217.5 146.4,228.5 199.2,228.5 199.2,217.5 
		207,217.5 	"/>
	<polygon style="fill:#324A5E;" points="365.1,236.3 296.7,236.3 296.7,217.5 304.5,217.5 304.5,228.5 357.3,228.5 357.3,217.5 
		365.1,217.5 	"/>
</g>
<g>
	<rect x="156.9" y="110.1" style="fill:#2B3B4E;" width="66.4" height="5.6"/>
	<rect x="156.9" y="121.3" style="fill:#2B3B4E;" width="40.8" height="5.6"/>
</g>
<g>
	<rect x="157.5" y="140.4" style="fill:#4CDBC4;" width="82.1" height="5.6"/>
	<rect x="157.5" y="151.6" style="fill:#4CDBC4;" width="50.5" height="5.6"/>
</g>
<path style="fill:#FFD05B;" d="M399.5,157.6c-0.4-0.9-0.6-1.9-0.8-2.9l-0.2-1.3c-0.1-1-0.1-1.9,0-2.9l0.2-1.3c0.2-1,0.4-1.9,0.8-2.9
	l0.6-1.3c0.6-1.3,1.5-2.5,2.5-3.5h-97.3c-5.6,0-10.1,4.7-10.1,10.5s4.5,10.5,10.1,10.5h97.3c-1-1.1-1.8-2.3-2.5-3.5L399.5,157.6z"/>
<g>
	<path style="fill:#F9B54C;" d="M401.7,158.2l-0.6-1.3c-0.3-0.8-0.6-1.7-0.7-2.5l-0.2-1.3c-0.1-0.8-0.1-1.7,0-2.5l0.2-1.3
		c0.2-0.9,0.4-1.7,0.7-2.5l0.6-1.3c0.6-1.2,1.3-2.2,2.2-3.1l2.8-2.9H305.3c-6.6,0-11.9,5.5-11.9,12.3s5.3,12.3,11.9,12.3h101.3
		l-2.8-2.9C403,160.4,402.3,159.3,401.7,158.2z M305.3,143.1H399c-0.2,0.4-0.4,0.7-0.6,1.1l-0.6,1.4c-0.4,1-0.7,2.1-0.9,3.3
		l-0.2,1.4c-0.1,1.1-0.1,2.1,0,3.3l0.2,1.4c0.2,1.1,0.5,2.2,0.9,3.2l0.7,1.5c0.2,0.4,0.4,0.7,0.6,1h-93.7c-4.6,0-8.3-3.9-8.3-8.8
		C297,147.1,300.7,143.1,305.3,143.1z"/>
	<path style="fill:#F9B54C;" d="M339.5,147.5h59.2c0.2-0.9,0.4-1.7,0.6-2.6h-59.8L339.5,147.5L339.5,147.5z"/>
	<path style="fill:#F9B54C;" d="M331.7,153.2h66.9c0.2-0.9,0.4-1.7,0.7-2.6h-67.6V153.2z"/>
	<path style="fill:#F9B54C;" d="M339.5,158.9h60.2c0.2-0.9-0.6-1.7-0.3-2.6h-59.8v2.6H339.5z"/>
</g>
<g>
</g>
<g>
</g>
<g>
</g>
<g>
</g>
<g>
</g>
<g>
</g>
<g>
</g>
<g>
</g>
<g>
</g>
<g>
</g>
<g>
</g>
<g>
</g>
<g>
</g>
<g>
</g>
<g>
</g>
</svg>
