<?xml version="1.0" encoding="iso-8859-1"?>
<!-- Generator: Adobe Illustrator 19.0.0, SVG Export Plug-In . SVG Version: 6.00 Build 0)  -->
<svg version="1.1" id="Layer_1" xmlns="http://www.w3.org/2000/svg" xmlns:xlink="http://www.w3.org/1999/xlink" x="0px" y="0px"
	 viewBox="0 0 506 506" style="enable-background:new 0 0 506 506;" xml:space="preserve">
<circle style="fill:#FFD05B;" cx="253" cy="253" r="253"/>
<polygon style="fill:#FFFFFF;" points="259.9,343.8 157.5,241.4 99.6,299.2 172.8,372.4 233.6,370 "/>
<rect x="178.09" y="141.216" transform="matrix(-0.7071 0.7071 -0.7071 -0.7071 632.0941 185.2084)" style="fill:#324A5E;" width="199.198" height="164.598"/>
<rect x="223.689" y="179.236" transform="matrix(0.7071 -0.7071 0.7071 0.7071 -76.751 261.8777)" style="fill:#FF7058;" width="108.099" height="88.699"/>
<g>
	<circle style="fill:#324A5E;" cx="143.8" cy="372" r="5.4"/>
	<circle style="fill:#324A5E;" cx="165.2" cy="406.7" r="4.4"/>
	<circle style="fill:#324A5E;" cx="216.5" cy="387.4" r="4.8"/>
	<path style="fill:#324A5E;" d="M197.4,392.4c-1.4,0-2.7-0.7-3.7-1.8c-0.8-1-1.2-2.2-1.6-3.3c-0.2-0.6-0.4-1.3-0.6-1.5
		c-0.3-0.2-0.9-0.2-1.4,0c-0.8,0.4-1.6,1.2-2.3,2l-2.9-2.6c0.9-1,2-2.2,3.5-2.9c2-0.9,4.3-0.7,5.8,0.6c1,1,1.4,2.2,1.7,3.2
		c0.2,0.8,0.5,1.5,0.9,2c0.3,0.3,0.6,0.4,0.7,0.4l0.8,3.8C197.9,392.4,197.7,392.4,197.4,392.4z"/>
	<path style="fill:#324A5E;" d="M200,407.8c-1.3,0-2.6-0.4-3.6-1.2c-1-0.8-1.5-1.7-1.9-2.5c-0.3-0.5-0.3-0.7-0.5-0.8
		c-0.4-0.2-1.5-0.3-2.4,0c-1,0.3-1.8,0.8-2.6,1.4l-2.2-3.2c1-0.7,2.2-1.5,3.7-1.9c1.5-0.5,3.8-0.6,5.5,0.4c1.2,0.7,1.7,1.7,2.1,2.4
		c0.3,0.6,0.5,0.9,0.8,1.1s0.9,0.4,1.4,0.4l0.5,3.9C200.4,407.8,200.2,407.8,200,407.8z"/>
</g>
<g>
</g>
<g>
</g>
<g>
</g>
<g>
</g>
<g>
</g>
<g>
</g>
<g>
</g>
<g>
</g>
<g>
</g>
<g>
</g>
<g>
</g>
<g>
</g>
<g>
</g>
<g>
</g>
<g>
</g>
</svg>
