<?xml version="1.0" encoding="iso-8859-1"?>
<!-- Generator: Adobe Illustrator 19.0.0, SVG Export Plug-In . SVG Version: 6.00 Build 0)  -->
<svg version="1.1" id="Layer_1" xmlns="http://www.w3.org/2000/svg" xmlns:xlink="http://www.w3.org/1999/xlink" x="0px" y="0px"
	 viewBox="0 0 506 506" style="enable-background:new 0 0 506 506;" xml:space="preserve">
<circle style="fill:#324A5E;" cx="253" cy="253" r="253"/>
<path style="fill:#E6E9EE;" d="M151.5,411.1h203c7.9,0,14.2-6.4,14.2-14.2V107.8c0-7.9-6.4-14.2-14.2-14.2h-203
	c-7.9,0-14.2,6.4-14.2,14.2v289.1C137.3,404.8,143.7,411.1,151.5,411.1z"/>
<rect x="137.3" y="134.1" style="fill:#FF7058;" width="231.4" height="223"/>
<g>
	<path style="fill:#324A5E;" d="M281.3,123.7h-56.6c-1.3,0-2.3-1-2.3-2.3v-13.6c0-1.3,1-2.3,2.3-2.3h56.6c1.3,0,2.3,1,2.3,2.3v13.6
		C283.6,122.7,282.6,123.7,281.3,123.7z"/>
	<circle style="fill:#324A5E;" cx="253" cy="384.1" r="13.7"/>
</g>
<path style="fill:#2FB5A0;" d="M199.4,391.5h-30.3c-1,0-1.9-0.8-1.9-1.9v-11c0-1,0.8-1.9,1.9-1.9h30.3c1,0,1.9,0.8,1.9,1.9v11
	C201.2,390.6,200.4,391.5,199.4,391.5z"/>
<path style="fill:#F1543F;" d="M336.9,391.5h-30.3c-1,0-1.9-0.8-1.9-1.9v-11c0-1,0.8-1.9,1.9-1.9h30.3c1,0,1.9,0.8,1.9,1.9v11
	C338.8,390.6,338,391.5,336.9,391.5z"/>
<rect x="162.4" y="134.1" style="fill:#4CDBC4;" width="181.3" height="223.1"/>
<g>
	<rect x="159.4" y="134.1" style="fill:#F1543F;" width="5.9" height="223.1"/>
	<rect x="340.7" y="134.1" style="fill:#F1543F;" width="5.9" height="223.1"/>
</g>
<path style="fill:#FFFFFF;" d="M243.2,210.6h-12.9l-5.1-13.3h-23.4l-4.8,13.3h-12.6l22.8-58.6h12.5L243.2,210.6z M221.4,187.4
	l-8.1-21.8l-7.9,21.8H221.4z"/>
<g>
	<rect x="252.4" y="159.6" style="fill:#2FB5A0;" width="69.2" height="7.9"/>
	<rect x="252.4" y="194" style="fill:#2FB5A0;" width="69.2" height="7.9"/>
	<rect x="184.3" y="228.3" style="fill:#2FB5A0;" width="137.3" height="7.9"/>
	<rect x="184.3" y="262.7" style="fill:#2FB5A0;" width="137.3" height="7.9"/>
	<rect x="184.3" y="297" style="fill:#2FB5A0;" width="137.3" height="7.9"/>
	<rect x="184.3" y="331.4" style="fill:#2FB5A0;" width="80.1" height="7.9"/>
</g>
<g>
</g>
<g>
</g>
<g>
</g>
<g>
</g>
<g>
</g>
<g>
</g>
<g>
</g>
<g>
</g>
<g>
</g>
<g>
</g>
<g>
</g>
<g>
</g>
<g>
</g>
<g>
</g>
<g>
</g>
</svg>
