<?xml version="1.0" encoding="iso-8859-1"?>
<!-- Generator: Adobe Illustrator 19.0.0, SVG Export Plug-In . SVG Version: 6.00 Build 0)  -->
<svg version="1.1" id="Layer_1" xmlns="http://www.w3.org/2000/svg" xmlns:xlink="http://www.w3.org/1999/xlink" x="0px" y="0px"
	 viewBox="0 0 506 506" style="enable-background:new 0 0 506 506;" xml:space="preserve">
<circle style="fill:#FFD05B;" cx="253" cy="253" r="253"/>
<path style="fill:#F9F9F9;" d="M307.4,96.2H116v313.5h252.1v-1.9l0,0l0,0v-1.9c-31.7,0-57.6-25.8-57.6-57.6s25.8-57.6,57.6-57.6
	c5.5,0,11,0.8,16.4,2.4l2.5,0.7v-118L307.4,96.2z"/>
<g>
	<polygon style="fill:#CED5E0;" points="307.4,96.2 306.9,175.9 386.9,175.8 	"/>
	<rect x="142.8" y="371.8" style="fill:#CED5E0;" width="44.3" height="9.8"/>
	<rect x="142.8" y="338.4" style="fill:#CED5E0;" width="174.5" height="9.8"/>
	<rect x="142.8" y="305" style="fill:#CED5E0;" width="182.5" height="9.8"/>
	<rect x="142.8" y="271.6" style="fill:#CED5E0;" width="125.1" height="9.8"/>
	<rect x="142.8" y="238.2" style="fill:#CED5E0;" width="218.6" height="9.8"/>
	<rect x="142.8" y="204.8" style="fill:#CED5E0;" width="218.6" height="9.8"/>
</g>
<rect x="142.8" y="127.5" style="fill:#2FB5A0;" width="54.5" height="52.9"/>
<path style="fill:#F1543F;" d="M368.1,286.9c-33.9,0-61.4,27.6-61.4,61.4s27.6,61.4,61.4,61.4s61.4-27.6,61.4-61.4
	S402,286.9,368.1,286.9z"/>
<g>
	<path style="fill:#FFFFFF;" d="M385.3,381.5h-10.2l-4.1-10.6h-18.6l-3.8,10.6h-10l18.1-46.5h9.9L385.3,381.5z M368,363.1l-6.4-17.2
		l-6.3,17.2H368z"/>
	<path style="fill:#FFFFFF;" d="M382.9,338.4v-8.6h-8.7v-6h8.7v-8.6h5.8v8.6h8.7v6h-8.7v8.6H382.9z"/>
</g>
<g>
</g>
<g>
</g>
<g>
</g>
<g>
</g>
<g>
</g>
<g>
</g>
<g>
</g>
<g>
</g>
<g>
</g>
<g>
</g>
<g>
</g>
<g>
</g>
<g>
</g>
<g>
</g>
<g>
</g>
</svg>
