<?xml version="1.0" encoding="iso-8859-1"?>
<!-- Generator: Adobe Illustrator 19.0.0, SVG Export Plug-In . SVG Version: 6.00 Build 0)  -->
<svg version="1.1" id="Layer_1" xmlns="http://www.w3.org/2000/svg" xmlns:xlink="http://www.w3.org/1999/xlink" x="0px" y="0px"
	 viewBox="0 0 506 506" style="enable-background:new 0 0 506 506;" xml:space="preserve">
<circle style="fill:#324A5E;" cx="253" cy="253" r="253"/>
<path style="fill:#E6E9EE;" d="M197.3,265.9v-69.1h-52.8v69.1c-29.2,11-48.7,39-48.7,70.2c0,41.4,33.7,75.1,75.1,75.1
	s75.1-33.7,75.1-75.1C246,304.9,226.5,276.8,197.3,265.9z"/>
<path style="fill:#FF7058;" d="M113.5,332.1c-0.1,1.3-0.2,2.7-0.2,4c0,31.8,25.8,57.6,57.6,57.6s57.6-25.8,57.6-57.6
	c0-1.3-0.1-2.7-0.2-4H113.5z"/>
<circle style="fill:#4CDBC4;" cx="134.6" cy="313.8" r="7.4"/>
<circle style="fill:#E6E9EE;" cx="154.1" cy="362.9" r="7.4"/>
<circle style="fill:#FFD05B;" cx="200.2" cy="298.9" r="7.4"/>
<circle style="fill:#FF7058;" cx="197.3" cy="177.7" r="9.8"/>
<circle style="fill:#E6E9EE;" cx="192.4" cy="132.7" r="4.9"/>
<circle style="fill:#84DBFF;" cx="153.3" cy="283.4" r="5.2"/>
<path style="fill:#FFFFFF;" d="M361.5,227.1V158h-52.8v69.1c-29.2,11-48.7,39-48.7,70.2c0,41.4,33.7,75.1,75.1,75.1
	s75.1-33.7,75.1-75.1C410.2,266.1,390.7,238,361.5,227.1z"/>
<path style="fill:#F9B54C;" d="M277.7,293.3c-0.1,1.3-0.2,2.7-0.2,4c0,31.8,25.8,57.6,57.6,57.6s57.6-25.8,57.6-57.6
	c0-1.3-0.1-2.7-0.2-4H277.7z"/>
<circle style="fill:#FF7058;" cx="298.8" cy="275" r="7.4"/>
<circle style="fill:#FFFFFF;" cx="318.3" cy="324.1" r="7.4"/>
<circle style="fill:#2FB5A0;" cx="364.4" cy="260.1" r="7.4"/>
<circle style="fill:#F9B54C;" cx="304" cy="132.4" r="5.2"/>
<circle style="fill:#54C0EB;" cx="317.5" cy="244.6" r="5.2"/>
<path style="fill:#2FB5A0;" d="M174.8,332.1H167V124.8c0-16.5,13.4-29.9,29.9-29.9s29.9,13.4,29.9,29.9v81c0,11.6,9.4,21,21,21
	s21-9.4,21-21V130c0-19.3,15.7-35.1,35.1-35.1c19.3,0,35.1,15.7,35.1,35.1v163.3h-7.8V129.9c0-15.1-12.2-27.3-27.3-27.3
	s-27.3,12.2-27.3,27.3v75.8c0,15.9-12.9,28.8-28.8,28.8S219,221.6,219,205.7v-81c0-12.2-9.9-22.1-22.1-22.1
	c-12.2,0-22.1,9.9-22.1,22.1L174.8,332.1z"/>
<g>
</g>
<g>
</g>
<g>
</g>
<g>
</g>
<g>
</g>
<g>
</g>
<g>
</g>
<g>
</g>
<g>
</g>
<g>
</g>
<g>
</g>
<g>
</g>
<g>
</g>
<g>
</g>
<g>
</g>
</svg>
