<?xml version="1.0" encoding="iso-8859-1"?>
<!-- Generator: Adobe Illustrator 19.0.0, SVG Export Plug-In . SVG Version: 6.00 Build 0)  -->
<svg version="1.1" id="Layer_1" xmlns="http://www.w3.org/2000/svg" xmlns:xlink="http://www.w3.org/1999/xlink" x="0px" y="0px"
	 viewBox="0 0 506 506" style="enable-background:new 0 0 506 506;" xml:space="preserve">
<circle style="fill:#324A5E;" cx="253" cy="253" r="253"/>
<path style="fill:#FFFFFF;" d="M329.6,350.8L257,255.4c-4.9-6.4-7.6-14.5-7.6-22.6V110.7h-56.6v122.1c0,8.1-2.7,16.1-7.6,22.6
	l-72.6,95.4c-6.4,8.5-7.5,19.7-2.8,29.3c4.7,9.4,14.1,15.3,24.5,15.3h173.4c10.5,0,19.8-5.9,24.5-15.3
	C337.1,370.5,336.1,359.2,329.6,350.8z"/>
<g>
	<path style="fill:#F9B54C;" d="M261.3,283.1h-80.2L123.3,359c-3.3,4.4-3.9,9.9-1.5,14.9s7.1,7.9,12.6,7.9h173.4
		c5.5,0,10.2-3,12.6-7.9c2.4-5,1.9-10.5-1.5-14.9L261.3,283.1z"/>
	<circle style="fill:#F9B54C;" cx="217" cy="224.7" r="6.8"/>
	<circle style="fill:#F9B54C;" cx="223.8" cy="155" r="8.6"/>
	<circle style="fill:#F9B54C;" cx="241.1" cy="263.7" r="8.6"/>
</g>
<path style="fill:#E6E9EE;" d="M400.8,110.7h-9.2h-79.9h-9.2v22h9.2v151.9c0,22,17.9,39.9,39.9,39.9s39.9-17.9,39.9-39.9V132.7h9.2
	v-22H400.8z"/>
<path style="fill:#FF7058;" d="M325.1,170.1v114c0,14.8,11.9,26.8,26.5,26.8s26.5-12,26.5-26.8v-114H325.1z"/>
<g>
	<circle style="fill:#FFFFFF;" cx="341.7" cy="273.7" r="10"/>
	<circle style="fill:#FFFFFF;" cx="360.1" cy="217.9" r="10.1"/>
	<circle style="fill:#FFFFFF;" cx="343.9" cy="185.2" r="4.7"/>
</g>
<rect x="184.9" y="110.7" style="fill:#E6E9EE;" width="72.6" height="17.9"/>
<g>
</g>
<g>
</g>
<g>
</g>
<g>
</g>
<g>
</g>
<g>
</g>
<g>
</g>
<g>
</g>
<g>
</g>
<g>
</g>
<g>
</g>
<g>
</g>
<g>
</g>
<g>
</g>
<g>
</g>
</svg>
