<?xml version="1.0" encoding="iso-8859-1"?>
<!-- Generator: Adobe Illustrator 19.0.0, SVG Export Plug-In . SVG Version: 6.00 Build 0)  -->
<svg version="1.1" id="Layer_1" xmlns="http://www.w3.org/2000/svg" xmlns:xlink="http://www.w3.org/1999/xlink" x="0px" y="0px"
	 viewBox="0 0 506 506" style="enable-background:new 0 0 506 506;" xml:space="preserve">
<circle style="fill:#90DFAA;" cx="253" cy="253" r="253"/>
<rect x="146.6" y="137.3" style="fill:#324A5E;" width="234.3" height="26.2"/>
<path style="fill:#FFFFFF;" d="M372.4,310.3l-68-102v-91.7h-48.1v91.7l-68,102c-7.9,11.9,0.6,27.8,14.9,27.8h154.3
	C371.8,338.1,380.3,322.2,372.4,310.3z"/>
<path style="fill:#F1543F;" d="M239.9,260.4l-34.9,52c-2.9,4.4,0.2,10.3,5.5,10.3h139.3c5.3,0,8.4-5.9,5.5-10.3l-34.7-52H239.9z"/>
<g>
	<circle style="fill:#FFFFFF;" cx="259.1" cy="299.4" r="12.3"/>
	<circle style="fill:#FFFFFF;" cx="305.5" cy="274.8" r="7.9"/>
</g>
<circle style="fill:#ACB3BA;" cx="301.4" cy="243.3" r="7.9"/>
<circle style="fill:#54C0EB;" cx="264.6" cy="229.2" r="7.9"/>
<circle style="fill:#F1543F;" cx="297.6" cy="97.8" r="5.9"/>
<circle style="fill:#FF7058;" cx="263.8" cy="103.7" r="5.9"/>
<circle style="fill:#84DBFF;" cx="288.5" cy="107.4" r="3.3"/>
<circle style="fill:#F9B54C;" cx="266.9" cy="185.1" r="5.5"/>
<polygon style="fill:#2B3B4E;" points="152.5,387.8 152.5,97.8 125,97.8 125,387.8 125,414.1 381,414.1 381,387.8 "/>
<path style="fill:#FF7058;" d="M298.7,367c1.2-7.6,2.4-15.3,3.5-23.2c-5.7,9.3-13.7,15.6-21.8,18.7c-8.1-3.1-16.2-9.4-21.8-18.7
	c1.1,7.8,2.3,15.5,3.5,23.2c-5.3,0.6-9.2-0.7-10.6-4.1c2,12.2,8.8,20.5,17.2,24.9h23.6c8.4-4.4,15.2-12.7,17.2-24.9
	C307.9,366.3,303.9,367.7,298.7,367z"/>
<g>
</g>
<g>
</g>
<g>
</g>
<g>
</g>
<g>
</g>
<g>
</g>
<g>
</g>
<g>
</g>
<g>
</g>
<g>
</g>
<g>
</g>
<g>
</g>
<g>
</g>
<g>
</g>
<g>
</g>
</svg>
