<?xml version="1.0" encoding="iso-8859-1"?>
<!-- Generator: Adobe Illustrator 19.0.0, SVG Export Plug-In . SVG Version: 6.00 Build 0)  -->
<svg version="1.1" id="Layer_1" xmlns="http://www.w3.org/2000/svg" xmlns:xlink="http://www.w3.org/1999/xlink" x="0px" y="0px"
	 viewBox="0 0 506 506" style="enable-background:new 0 0 506 506;" xml:space="preserve">
<circle style="fill:#90DFAA;" cx="253" cy="253" r="253"/>
<path style="fill:#E6E9EE;" d="M222.2,220.8v-69.4h-60.5v69.4c-40,13.1-66.8,50-66.8,92.3c0,53.5,43.5,97.1,97.1,97.1
	s97.1-43.5,97.1-97.1C289,270.8,262.2,233.9,222.2,220.8z"/>
<path style="fill:#FF7058;" d="M115.1,280.5c-4.2,10.1-6.5,21.1-6.5,32.6c0,46,37.4,83.4,83.4,83.4s83.4-37.4,83.4-83.4
	c0-11.5-2.3-22.5-6.5-32.6H115.1z"/>
<path style="fill:#E6E9EE;" d="M328.6,151.4v20h6.1v89.8c0,19.4,15.8,35.1,35.1,35.1c19.4,0,35.1-15.8,35.1-35.1v-89.8h6.1v-20
	L328.6,151.4L328.6,151.4z"/>
<g>
	<path style="fill:#54C0EB;" d="M369.9,282.7c-11.8,0-21.5-9.6-21.5-21.5v-69.4h42.9v69.4C391.4,273.1,381.7,282.7,369.9,282.7z"/>
	<path style="fill:#54C0EB;" d="M369.9,282.6c-11.8,0-21.5-9.6-21.5-21.5v-69.4h42.9v69.4C391.4,272.9,381.7,282.6,369.9,282.6z"/>
</g>
<path style="fill:#324A5E;" d="M260.3,213.5c-11.8,0-21.5-9.6-21.5-21.5v-66.8c0-11.9-9.6-21.5-21.5-21.5s-21.5,9.6-21.5,21.5v155.6
	H188V125.2c0-16.2,13.2-29.3,29.3-29.3s29.3,13.1,29.3,29.3V192c0,7.5,6.1,13.7,13.7,13.7c7.5,0,13.7-6.1,13.7-13.7v-46.2
	c0-27.5,22.4-49.9,49.9-49.9s49.9,22.4,49.9,49.9v46H366v-46c0-23.2-18.9-42.1-42.1-42.1s-42.1,18.9-42.1,42.1V192
	C281.8,203.8,272.2,213.5,260.3,213.5z"/>
<circle style="fill:#FF7058;" cx="157.2" cy="257.3" r="10.2"/>
<g>
	<circle style="fill:#FFFFFF;" cx="174.8" cy="332" r="10.2"/>
	<circle style="fill:#FFFFFF;" cx="367" cy="228.3" r="6.7"/>
</g>
<circle style="fill:#FF7058;" cx="220.6" cy="253.9" r="8.3"/>
<g>
</g>
<g>
</g>
<g>
</g>
<g>
</g>
<g>
</g>
<g>
</g>
<g>
</g>
<g>
</g>
<g>
</g>
<g>
</g>
<g>
</g>
<g>
</g>
<g>
</g>
<g>
</g>
<g>
</g>
</svg>
