<?xml version="1.0" encoding="iso-8859-1"?>
<!-- Generator: Adobe Illustrator 19.0.0, SVG Export Plug-In . SVG Version: 6.00 Build 0)  -->
<svg version="1.1" id="Layer_1" xmlns="http://www.w3.org/2000/svg" xmlns:xlink="http://www.w3.org/1999/xlink" x="0px" y="0px"
	 viewBox="0 0 506 506" style="enable-background:new 0 0 506 506;" xml:space="preserve">
<circle style="fill:#FD8469;" cx="253" cy="253" r="253"/>
<g>
	<path style="fill:#BDC2C9;" d="M113.9,302.9l28.6-49.6l-28.6-49.6l28.6-49.6l-15.4-26.7c-20.9,20.9-36.5,47.1-44.9,76.3
		c-4.5,15.6-7,32.1-7,49.2c0,17.3,2.5,34.1,7.2,49.9c8.5,29,24.1,55,45,75.8l15.2-26.3L113.9,302.9z"/>
	<path style="fill:#BDC2C9;" d="M253,75.2c-13.4,0-26.5,1.5-39.1,4.4l14.5,25h57.2l13.5-23.3C284.4,77.4,269,75.2,253,75.2z"/>
	<path style="fill:#BDC2C9;" d="M423.8,203.8c-7.7-26.8-21.5-51-39.8-71l-12.3,21.4l28.6,49.6l-28.6,49.6l28.6,49.6l-28.6,49.6
		l12.1,20.9c18.3-19.9,32.1-43.9,39.9-70.5c4.6-15.8,7.2-32.6,7.2-49.9C430.8,235.9,428.3,219.4,423.8,203.8z"/>
	<path style="fill:#BDC2C9;" d="M199.8,352.5l28.6-49.6l-28.6-49.6l28.6-49.6l-28.6-49.6l28.6-49.6l-14.5-25
		c-33.5,7.5-63.4,24.4-86.8,47.9l15.4,26.7l-28.6,49.6l28.6,49.6l-28.6,49.6l28.6,49.6l-15.2,26.3c23.4,23.4,53.4,40.3,86.9,47.7
		l14.1-24.4L199.8,352.5z"/>
	<path style="fill:#BDC2C9;" d="M400.1,302.9l-28.6-49.6l28.6-49.6l-28.6-49.6l12.4-21.5c-22.5-24.5-51.7-42.6-84.8-51.4l-13.5,23.3
		l0,0l0,0l0,0l28.6,49.6l-28.6,49.6l28.6,49.6l0,0l-28.6-49.6l28.6-49.6l-28.6-49.6h-57.2l-28.6,49.6l28.6,49.6l-28.6,49.6
		l28.6,49.6l-28.6,49.6l28.6,49.6l-14.1,24.4c12.5,2.8,25.4,4.3,38.7,4.3c15.8,0,31.2-2.1,45.8-6l-13.1-22.7l28.6-49.6l-28.6-49.6
		l0,0l28.6,49.6l-28.6,49.6l13.1,22.7c33.1-8.8,62.4-26.9,84.9-51.3l-12.1-21L400.1,302.9z"/>
</g>
<polygon style="fill:#324A5E;" points="230.4,299.7 203.7,253.4 230.4,207.1 283.9,207.1 310.6,253.4 283.9,299.7 "/>
<g>
	<path style="fill:#FFFFFF;" d="M142.3,147.1L129.6,125c22.7-21.9,50.6-37.2,81.1-44.7l11.8,20.5l-26.7,46.3H142.3z"/>
	<path style="fill:#FFFFFF;" d="M84,198c8-24.6,21.4-47.2,39-66.2l11.5,19.9L107.7,198H84z"/>
	<path style="fill:#FFFFFF;" d="M123.2,374.5c-17.6-18.8-31-41.3-39-65.7h23.5l26.7,46.3L123.2,374.5z"/>
	<path style="fill:#FFFFFF;" d="M318.5,147.1l-26.7-46.3l10.7-18.6c30.1,8.7,57.4,25.3,79.1,48.1l-9.7,16.8H318.5z"/>
	<polygon style="fill:#FFFFFF;" points="230.4,198 203.7,151.7 230.4,105.4 283.9,105.4 310.6,151.7 283.9,198 	"/>
	<path style="fill:#FFFFFF;" d="M291.8,405.9l26.7-46.3h53.4l9.4,16.3c-21.8,22.8-49.1,39.3-79.2,47.9L291.8,405.9z"/>
	<path style="fill:#FFFFFF;" d="M406.6,198l-26.7-46.3l8.2-14.2c15.1,17.7,26.7,38.4,33.9,60.5H406.6z"/>
	<path style="fill:#FFFFFF;" d="M379.9,355.1l26.7-46.3h15.2c-7.2,21.9-18.9,42.5-33.9,60L379.9,355.1z"/>
	<path style="fill:#FFFFFF;" d="M211.1,425.7c-30.5-7.4-58.5-22.7-81.2-44.5l12.5-21.6h53.5l26.7,46.3L211.1,425.7z"/>
	<polygon style="fill:#FFFFFF;" points="230.4,401.3 203.7,355.1 230.4,308.8 283.9,308.8 310.6,355.1 283.9,401.3 	"/>
	<polygon style="fill:#FFFFFF;" points="142.3,248.8 115.6,202.5 142.3,156.2 195.8,156.2 222.5,202.5 195.8,248.8 	"/>
	<polygon style="fill:#FFFFFF;" points="318.5,350.5 291.8,304.2 318.5,257.9 371.9,257.9 398.6,304.2 371.9,350.5 	"/>
	<polygon style="fill:#FFFFFF;" points="318.5,248.8 291.8,202.5 318.5,156.2 371.9,156.2 398.6,202.5 371.9,248.8 	"/>
	<polygon style="fill:#FFFFFF;" points="142.3,350.5 115.6,304.2 142.3,257.9 195.8,257.9 222.5,304.2 195.8,350.5 	"/>
</g>
<g>
	<path style="fill:#324A5E;" d="M81.5,299.7c-4.1-15.2-6.2-30.9-6.2-46.7c0-15.5,2-30.9,6-45.9h26.4l26.7,46.3l-26.7,46.3
		L81.5,299.7L81.5,299.7z"/>
	<path style="fill:#324A5E;" d="M230.4,96.3L220,78.4c10.9-2.1,22-3.1,32.9-3.1c13.6,0,27.1,1.6,40.3,4.6l-9.5,16.4H230.4z"/>
	<path style="fill:#324A5E;" d="M406.6,299.7l-26.7-46.3l26.7-46.3h18.1c4,15,6,30.4,6,45.9c0,15.7-2.1,31.4-6.2,46.7L406.6,299.7
		L406.6,299.7z"/>
	<path style="fill:#324A5E;" d="M253,430.8c-10.8,0-21.8-1-32.6-3l10-17.3h53.4l9.1,15.8C279.9,429.2,266.4,430.8,253,430.8z"/>
</g>
<g>
</g>
<g>
</g>
<g>
</g>
<g>
</g>
<g>
</g>
<g>
</g>
<g>
</g>
<g>
</g>
<g>
</g>
<g>
</g>
<g>
</g>
<g>
</g>
<g>
</g>
<g>
</g>
<g>
</g>
</svg>
