<?xml version="1.0" encoding="iso-8859-1"?>
<!-- Generator: Adobe Illustrator 19.0.0, SVG Export Plug-In . SVG Version: 6.00 Build 0)  -->
<svg version="1.1" id="Layer_1" xmlns="http://www.w3.org/2000/svg" xmlns:xlink="http://www.w3.org/1999/xlink" x="0px" y="0px"
	 viewBox="0 0 506 506" style="enable-background:new 0 0 506 506;" xml:space="preserve">
<circle style="fill:#FFD05B;" cx="253" cy="253" r="253"/>
<path style="fill:#F1543F;" d="M293.5,261.7c-12.1,6.3-26.1,9.8-40.5,9.8c-14.8,0-28.6-3.6-40.5-9.8
	c-57.4,17.4-99.3,70.7-99.3,133.8h279.5C392.8,332.3,350.9,279,293.5,261.7z"/>
<g>
	<path style="fill:#FFFFFF;" d="M177,221.6l0.4,0.1v-0.1C177.1,221.6,177,221.6,177,221.6z"/>
	<path style="fill:#FFFFFF;" d="M253,143.9c-33.5,0-61,22.1-64.3,50.3v0.1c-0.2,1.8-0.3,3.7-0.3,5.5c0,30.9,28.9,55.9,64.6,55.9
		c24.1,0,45.1-11.4,56.2-28.3l0,0c5.4-8.1,8.4-17.6,8.4-27.6C317.6,168.9,288.7,143.9,253,143.9z"/>
</g>
<g>
	<polygon style="fill:#2B3B4E;" points="253,79.2 152.1,114 253,148.8 353.9,114 	"/>
	<path style="fill:#2B3B4E;" d="M317.6,189.6v-2.7v-21.5l-1.7,0.6c-0.6,0.2-63.6,22.4-125.8,0l-1.7-0.6v21.5v2.7
		C249.8,211.5,311.8,191.5,317.6,189.6z"/>
</g>
<path style="fill:#324A5E;" d="M253,148.8l-64.6-22.3v15.7v21.5v1.6l1.7,0.6c62.2,22.4,125.1,0.2,125.8,0l1.7-0.6v-1.6v-21.5v-15.7
	L253,148.8z"/>
<g>
	<ellipse style="fill:#22313F;" cx="253" cy="114" rx="16.2" ry="10.5"/>
	<polygon style="fill:#22313F;" points="245.1,116.6 245.1,111.4 161.4,111.4 161.4,166.9 154.8,188.7 173.5,188.7 166.6,165.7 
		166.6,116.6 	"/>
</g>
<path style="fill:#FFD05B;" d="M215.7,362.8h-56.4c-0.7,0-1.3-0.6-1.3-1.3v-26.7c0-0.7,0.6-1.3,1.3-1.3h56.4c0.7,0,1.3,0.6,1.3,1.3
	v26.7C217.1,362.2,216.5,362.8,215.7,362.8z"/>
<g>
</g>
<g>
</g>
<g>
</g>
<g>
</g>
<g>
</g>
<g>
</g>
<g>
</g>
<g>
</g>
<g>
</g>
<g>
</g>
<g>
</g>
<g>
</g>
<g>
</g>
<g>
</g>
<g>
</g>
</svg>
