<?xml version="1.0" encoding="iso-8859-1"?>
<!-- Generator: Adobe Illustrator 19.0.0, SVG Export Plug-In . SVG Version: 6.00 Build 0)  -->
<svg version="1.1" id="Layer_1" xmlns="http://www.w3.org/2000/svg" xmlns:xlink="http://www.w3.org/1999/xlink" x="0px" y="0px"
	 viewBox="0 0 506 506" style="enable-background:new 0 0 506 506;" xml:space="preserve">
<circle style="fill:#FD8469;" cx="253" cy="253" r="253"/>
<path style="fill:#324A5E;" d="M370.7,299.8H144.6c-11.4,0-20.6-9.2-20.6-20.6s9.2-20.6,20.6-20.6h51.8V247h-51.8
	c-17.8,0-32.2,14.5-32.2,32.2c0,17.8,14.5,32.2,32.2,32.2h226.1c8.5,0,15.5,6.9,15.5,15.5c0,8.5-6.9,15.5-15.5,15.5h-91.5
	c-16.9,0-30.6,13.7-30.6,30.6v10.6h11.6V373c0-10.4,8.5-18.9,18.9-18.9h91.5c15,0,27.1-12.2,27.1-27.1
	C397.8,311.9,385.7,299.8,370.7,299.8z"/>
<rect x="350.3" y="379.6" style="fill:#ACB3BA;" width="13" height="29.5"/>
<rect x="141.2" y="379.6" style="fill:#FFD05B;" width="220.4" height="9.8"/>
<rect x="141.2" y="389.5" style="fill:#F9B54C;" width="220.4" height="9.8"/>
<rect x="141.2" y="399.3" style="fill:#FFD05B;" width="220.4" height="9.8"/>
<path style="fill:#FFFFFF;" d="M141.2,389.5v-9.8l-17.2,7.9c0.4,1.4,0.7,2.9,0.9,4.4L141.2,389.5z"/>
<path style="fill:#E6E9EE;" d="M125.1,394.4c0,0.8-0.1,1.6-0.2,2.4l16.4,2.5v-9.8l-16.4,2.5C125,392.7,125.1,393.5,125.1,394.4z"/>
<path style="fill:#FFFFFF;" d="M124,401.3l17.2,7.9v-9.8l-16.4-2.5C124.7,398.4,124.4,399.9,124,401.3z"/>
<path style="fill:#2B3B4E;" d="M385.9,408.6v-28.5c0-0.3-0.2-0.5-0.5-0.5h-23.8v29.5h23.8C385.7,409.1,385.9,408.9,385.9,408.6z"/>
<g>
	<path style="fill:#324A5E;" d="M124,401.3c0.4-1.4,0.7-2.9,0.9-4.4c0.1-0.8,0.2-1.6,0.2-2.4s-0.1-1.6-0.2-2.4
		c-0.2-1.6-0.4-3.1-0.9-4.4l-10.9,5.4c-1.3,0.7-1.3,2.3,0,3L124,401.3z"/>
	<path style="fill:#324A5E;" d="M277,92.9c-51.9,0-94.2,41.5-94.2,92.5v72.9h19.3v-72.9c0-40.3,33.6-73.2,74.9-73.2
		s74.9,32.8,74.9,73.2v72.9h19.3v-72.9C371.2,134.4,329,92.9,277,92.9z"/>
</g>
<path style="fill:#E6E9EE;" d="M175.6,243c0,21,18.7,38.2,41.7,38.2h2.7v-76.3h-2.7C194.3,204.9,175.6,222,175.6,243z"/>
<path style="fill:#324A5E;" d="M237.2,197.5h-16.1c-3.6,0-6.5,2.9-6.5,6.5v78.1c0,3.6,2.9,6.5,6.5,6.5h16.1c3.6,0,6.5-2.9,6.5-6.5
	V204C243.7,200.4,240.7,197.5,237.2,197.5z"/>
<path style="fill:#E6E9EE;" d="M378.5,243c0-21-18.7-38.2-41.7-38.2h-2.7v76.3h2.7C359.8,281.2,378.5,264.1,378.5,243z"/>
<path style="fill:#324A5E;" d="M316.9,288.6H333c3.6,0,6.5-2.9,6.5-6.5V204c0-3.6-2.9-6.5-6.5-6.5h-16.1c-3.6,0-6.5,2.9-6.5,6.5
	v78.1C310.4,285.7,313.3,288.6,316.9,288.6z"/>
<g>
</g>
<g>
</g>
<g>
</g>
<g>
</g>
<g>
</g>
<g>
</g>
<g>
</g>
<g>
</g>
<g>
</g>
<g>
</g>
<g>
</g>
<g>
</g>
<g>
</g>
<g>
</g>
<g>
</g>
</svg>
