<?xml version="1.0" encoding="iso-8859-1"?>
<!-- Generator: Adobe Illustrator 19.0.0, SVG Export Plug-In . SVG Version: 6.00 Build 0)  -->
<svg version="1.1" id="Layer_1" xmlns="http://www.w3.org/2000/svg" xmlns:xlink="http://www.w3.org/1999/xlink" x="0px" y="0px"
	 viewBox="0 0 506 506" style="enable-background:new 0 0 506 506;" xml:space="preserve">
<circle style="fill:#90DFAA;" cx="253" cy="253" r="253"/>
<g>
	<rect x="94.9" y="263.6" style="fill:#324A5E;" width="71.3" height="129.9"/>
	<rect x="339.9" y="263.6" style="fill:#324A5E;" width="71.3" height="129.9"/>
</g>
<polygon style="fill:#F1543F;" points="116.6,146.6 64.1,263.6 441.9,263.6 389.4,146.6 "/>
<rect x="166.1" y="248.8" style="fill:#E6E9EE;" width="173.7" height="144.4"/>
<polygon style="fill:#CED5E0;" points="375.5,252.9 253,168.9 130.5,252.9 130.5,253 375.5,253 "/>
<polygon style="fill:#FFFFFF;" points="168.1,239.9 253,184.7 337.9,239.9 "/>
<circle style="fill:#ACB3BA;" cx="253" cy="219.8" r="14.4"/>
<path style="fill:#FFFFFF;" d="M304.9,85.3c-9.3-7.6-18.9-3.7-27.3-0.3c-8.1,3.3-15.8,6.4-23.4,0.3l-3.1-2.6v4.1V122v24.3h3.9v-21.6
	c2.9,1.6,5.9,2.3,8.8,2.3c5.3,0,10.5-2.1,15.4-4.1c8.2-3.3,15.8-6.4,23.4-0.3l3.1,2.6V85.8L304.9,85.3z"/>
<g>
	<rect x="354.5" y="277.4" style="fill:#54C0EB;" width="21" height="42"/>
	<rect x="375.5" y="277.4" style="fill:#54C0EB;" width="21" height="42"/>
	<rect x="354.5" y="336" style="fill:#54C0EB;" width="21" height="42"/>
	<rect x="375.5" y="336" style="fill:#54C0EB;" width="21" height="42"/>
	<rect x="109.5" y="277.4" style="fill:#54C0EB;" width="21" height="42"/>
	<rect x="130.5" y="277.4" style="fill:#54C0EB;" width="21" height="42"/>
	<rect x="109.5" y="336" style="fill:#54C0EB;" width="21" height="42"/>
	<rect x="130.5" y="336" style="fill:#54C0EB;" width="21" height="42"/>
</g>
<g>
	<path style="fill:#324A5E;" d="M276.6,395.4h-47.1v-60.9c0-3.3,2.7-6,6-6h35.2c3.3,0,6,2.7,6,6v60.9H276.6z"/>
	<rect x="183.3" y="273.5" style="fill:#324A5E;" width="23.6" height="36.6"/>
	<rect x="221.9" y="273.5" style="fill:#324A5E;" width="23.6" height="36.6"/>
	<rect x="260.5" y="273.5" style="fill:#324A5E;" width="23.6" height="36.6"/>
	<rect x="299.1" y="273.5" style="fill:#324A5E;" width="23.6" height="36.6"/>
	<rect x="183.3" y="334.3" style="fill:#324A5E;" width="23.6" height="36.6"/>
	<rect x="299.1" y="334.3" style="fill:#324A5E;" width="23.6" height="36.6"/>
</g>
<g>
	<polygon style="fill:#FF7058;" points="253,168.9 253,156.6 166.1,180.3 130.5,252.9 	"/>
	<polygon style="fill:#FF7058;" points="253,168.9 253,156.6 339.9,180.3 375.5,252.9 	"/>
</g>
<g>
</g>
<g>
</g>
<g>
</g>
<g>
</g>
<g>
</g>
<g>
</g>
<g>
</g>
<g>
</g>
<g>
</g>
<g>
</g>
<g>
</g>
<g>
</g>
<g>
</g>
<g>
</g>
<g>
</g>
</svg>
