<?xml version="1.0" encoding="iso-8859-1"?>
<!-- Generator: Adobe Illustrator 19.0.0, SVG Export Plug-In . SVG Version: 6.00 Build 0)  -->
<svg version="1.1" id="Layer_1" xmlns="http://www.w3.org/2000/svg" xmlns:xlink="http://www.w3.org/1999/xlink" x="0px" y="0px"
	 viewBox="0 0 506 506" style="enable-background:new 0 0 506 506;" xml:space="preserve">
<circle style="fill:#324A5E;" cx="253" cy="253" r="253"/>
<path style="fill:#CED5E0;" d="M106.9,121.8v218h298v-218c0-4.9-4-8.9-8.9-8.9H115.8C110.8,112.9,106.9,116.9,106.9,121.8z"/>
<rect x="127.1" y="133.2" style="fill:#2FB5A0;" width="257.5" height="186.2"/>
<rect x="127.1" y="310.9" style="fill:#4CDBC4;" width="257.5" height="8.5"/>
<rect x="81.1" y="339.8" style="fill:#E6E9EE;" width="343.8" height="14.8"/>
<polygon style="fill:#ACB3BA;" points="401,369.4 105,369.4 81.1,354.6 424.9,354.6 "/>
<path style="fill:#FF7058;" d="M205,304.4c-9.4,0-16.9-7.5-16.8-16.8c-0.1-9.3,7.4-16.8,16.8-16.8c30.9,0,109.6,0,140.5,0v-6.5
	H189.4c-12.9,0-23.3,10.4-23.3,23.3s10.4,23.3,23.3,23.3h156.2v-6.5C314.7,304.4,235.9,304.4,205,304.4z"/>
<path style="fill:#FFFFFF;" d="M189.4,304.4c-9.4,0-16.9-7.5-16.8-16.8c-0.1-9.3,7.4-16.8,16.8-16.8c36.1,0,120.1,0,156.2,0
	c-4.5,10.8-4.5,22.9,0,33.6C309.5,304.4,225.5,304.4,189.4,304.4z"/>
<path style="fill:#324A5E;" d="M287.1,224.2c9.4,0,16.9,7.5,16.8,16.8c0.1,9.3-7.4,16.8-16.8,16.8c-30.9,0-83.5,0-114.4,0v6.5h130.1
	c12.9,0,23.3-10.4,23.3-23.3c0-12.9-10.4-23.3-23.3-23.3H172.6v6.5C203.5,224.2,256.2,224.2,287.1,224.2z"/>
<path style="fill:#FFFFFF;" d="M302.7,224.2c9.4,0,16.9,7.5,16.8,16.8c0.1,9.3-7.4,16.8-16.8,16.8c-36.1,0-94,0-130.1,0
	c4.5-10.8,4.5-22.9,0-33.6C208.7,224.2,266.6,224.2,302.7,224.2z"/>
<path style="fill:#F9B54C;" d="M226.2,177.3c-9.4,0-16.9,7.5-16.8,16.8c-0.1,9.3,7.4,16.8,16.8,16.8c30.9,0,83.5,0,114.4,0v6.5h-130
	c-12.9,0-23.3-10.4-23.3-23.3c0-12.9,10.4-23.3,23.3-23.3h130.1v6.5C309.8,177.3,257.1,177.3,226.2,177.3z"/>
<path style="fill:#FFFFFF;" d="M210.6,177.3c-9.4,0-16.9,7.5-16.8,16.8c-0.1,9.3,7.4,16.8,16.8,16.8c36.1,0,94,0,130.1,0
	c-4.5-10.8-4.5-22.9,0-33.6C304.6,177.3,246.7,177.3,210.6,177.3z"/>
<g>
</g>
<g>
</g>
<g>
</g>
<g>
</g>
<g>
</g>
<g>
</g>
<g>
</g>
<g>
</g>
<g>
</g>
<g>
</g>
<g>
</g>
<g>
</g>
<g>
</g>
<g>
</g>
<g>
</g>
</svg>
