<?xml version="1.0" encoding="iso-8859-1"?>
<!-- Generator: Adobe Illustrator 19.0.0, SVG Export Plug-In . SVG Version: 6.00 Build 0)  -->
<svg version="1.1" id="Layer_1" xmlns="http://www.w3.org/2000/svg" xmlns:xlink="http://www.w3.org/1999/xlink" x="0px" y="0px"
	 viewBox="0 0 506 506" style="enable-background:new 0 0 506 506;" xml:space="preserve">
<circle style="fill:#FD8469;" cx="253" cy="253" r="253"/>
<path style="fill:#324A5E;" d="M187.6,359.1c-22.8,0-41-18.3-40.9-40.9c-0.1-22.5,18.1-40.9,40.9-40.9c75.2,0,150.3,0,225.5,0v-15.8
	H149.6c-31.3,0-56.7,25.4-56.7,56.7s25.4,56.7,56.7,56.7h263.5v-15.8C337.9,359.1,262.8,359.1,187.6,359.1z"/>
<path style="fill:#E6E9EE;" d="M149.6,359.1c-22.8,0-41-18.3-40.9-40.9c-0.1-22.5,18.1-40.9,40.9-40.9c87.8,0,175.7,0,263.5,0
	c-10.8,26.2-10.8,55.6,0,81.8C325.3,359.1,237.4,359.1,149.6,359.1z"/>
<path style="fill:#54C0EB;" d="M318.4,146.9c22.8,0,41,18.3,40.9,40.9c0.1,22.5-18.1,40.9-40.9,40.9c-75.2,0-150.3,0-225.5,0v15.8
	h263.5c31.3,0,56.7-25.4,56.7-56.7s-25.4-56.7-56.7-56.7H92.9v15.8C168.1,146.9,243.2,146.9,318.4,146.9z"/>
<path style="fill:#E6E9EE;" d="M356.4,146.9c22.8,0,41,18.3,40.9,40.9c0.1,22.5-18.1,40.9-40.9,40.9c-87.8,0-175.7,0-263.5,0
	c10.8-26.2,10.8-55.6,0-81.8C180.7,146.9,268.6,146.9,356.4,146.9z"/>
<g>
</g>
<g>
</g>
<g>
</g>
<g>
</g>
<g>
</g>
<g>
</g>
<g>
</g>
<g>
</g>
<g>
</g>
<g>
</g>
<g>
</g>
<g>
</g>
<g>
</g>
<g>
</g>
<g>
</g>
</svg>
