<?xml version="1.0" encoding="iso-8859-1"?>
<!-- Generator: Adobe Illustrator 19.0.0, SVG Export Plug-In . SVG Version: 6.00 Build 0)  -->
<svg version="1.1" id="Layer_1" xmlns="http://www.w3.org/2000/svg" xmlns:xlink="http://www.w3.org/1999/xlink" x="0px" y="0px"
	 viewBox="0 0 506 506" style="enable-background:new 0 0 506 506;" xml:space="preserve">
<circle style="fill:#324A5E;" cx="253" cy="253" r="253"/>
<path style="fill:#ACB3BA;" d="M316.8,182.2v107.7c0,35.2-28.6,63.8-63.8,63.8s-63.8-28.6-63.8-63.8V182.2h-57.5v107.7
	c0,66.8,54.4,121.2,121.2,121.2s121.2-54.4,121.2-121.2V182.2H316.8z"/>
<rect x="131.8" y="138.3" style="fill:#F9B54C;" width="57.5" height="43.9"/>
<rect x="316.8" y="138.3" style="fill:#F1543F;" width="57.5" height="43.9"/>
<g>
	<rect x="131.8" y="94.9" style="fill:#FFFFFF;" width="9.5" height="34.7"/>
	<rect x="155.8" y="94.9" style="fill:#FFFFFF;" width="9.5" height="34.7"/>
	<rect x="179.8" y="94.9" style="fill:#FFFFFF;" width="9.5" height="34.7"/>
	<rect x="316.8" y="94.9" style="fill:#FFFFFF;" width="9.5" height="34.7"/>
	<rect x="340.8" y="94.9" style="fill:#FFFFFF;" width="9.5" height="34.7"/>
	<rect x="364.8" y="94.9" style="fill:#FFFFFF;" width="9.5" height="34.7"/>
</g>
<g>
</g>
<g>
</g>
<g>
</g>
<g>
</g>
<g>
</g>
<g>
</g>
<g>
</g>
<g>
</g>
<g>
</g>
<g>
</g>
<g>
</g>
<g>
</g>
<g>
</g>
<g>
</g>
<g>
</g>
</svg>
