<?xml version="1.0" encoding="iso-8859-1"?>
<!-- Generator: Adobe Illustrator 19.0.0, SVG Export Plug-In . SVG Version: 6.00 Build 0)  -->
<svg version="1.1" id="Layer_1" xmlns="http://www.w3.org/2000/svg" xmlns:xlink="http://www.w3.org/1999/xlink" x="0px" y="0px"
	 viewBox="0 0 506 506" style="enable-background:new 0 0 506 506;" xml:space="preserve">
<circle style="fill:#FFD05B;" cx="253" cy="253" r="253"/>
<rect x="118.7" y="94.9" style="fill:#E6E9EE;" width="253" height="316.3"/>
<g>
	<rect x="118.7" y="147.9" style="fill:#ACB3BA;" width="253" height="2.1"/>
	<rect x="118.7" y="164.1" style="fill:#ACB3BA;" width="253" height="2.1"/>
	<rect x="118.7" y="180.4" style="fill:#ACB3BA;" width="253" height="2.1"/>
	<rect x="118.7" y="196.6" style="fill:#ACB3BA;" width="253" height="2.1"/>
	<rect x="118.7" y="212.8" style="fill:#ACB3BA;" width="253" height="2.1"/>
	<rect x="118.7" y="229" style="fill:#ACB3BA;" width="253" height="2.1"/>
	<rect x="118.7" y="245.2" style="fill:#ACB3BA;" width="253" height="2.1"/>
	<rect x="118.7" y="261.4" style="fill:#ACB3BA;" width="253" height="2.1"/>
	<rect x="118.7" y="277.6" style="fill:#ACB3BA;" width="253" height="2.1"/>
	<rect x="118.7" y="293.8" style="fill:#ACB3BA;" width="253" height="2.1"/>
	<rect x="118.7" y="310" style="fill:#ACB3BA;" width="253" height="2.1"/>
	<rect x="118.7" y="326.2" style="fill:#ACB3BA;" width="253" height="2.1"/>
	<rect x="118.7" y="342.4" style="fill:#ACB3BA;" width="253" height="2.1"/>
	<rect x="118.7" y="358.6" style="fill:#ACB3BA;" width="253" height="2.1"/>
	<rect x="118.7" y="374.8" style="fill:#ACB3BA;" width="253" height="2.1"/>
	<rect x="118.7" y="391.1" style="fill:#ACB3BA;" width="253" height="2.1"/>
</g>
<rect x="145.6" y="132" style="fill:#54C0EB;" width="2.1" height="279.1"/>
<g>
	<rect x="118.7" y="130.8" style="fill:#DB4C3E;" width="253" height="2.4"/>
	<rect x="118.7" y="126.5" style="fill:#DB4C3E;" width="253" height="3.2"/>
</g>
<polygon style="fill:#FF7058;" points="411.1,209.9 403.1,201.9 395,193.8 246.4,342.4 254.5,350.5 262.5,358.5 270.6,366.6 
	419.2,218 "/>
<path style="fill:#FFFFFF;" d="M262.6,358.5l-8.1-8.1l-8.1-8.1l-5.2,18.1c1.4,0.8,2.9,1.9,4.2,3c0.7,0.6,1.4,1.2,2.1,1.9
	c0.7,0.7,1.3,1.4,1.9,2.1c1.2,1.4,2.2,2.8,3,4.2l18.1-5.2L262.6,358.5z"/>
<g>
	<path style="fill:#324A5E;" d="M435.2,201.3l-23.5-23.5c-0.2-0.2-0.5-0.2-0.7,0l-16,16l24.2,24.2l16-16
		C435.4,201.8,435.4,201.5,435.2,201.3z"/>
	<path style="fill:#324A5E;" d="M252.6,371.7c-0.8-1.4-1.9-2.9-3-4.2c-0.6-0.7-1.2-1.4-1.9-2.1s-1.4-1.3-2.1-1.9
		c-1.4-1.2-2.8-2.2-4.2-3l-2.9,11.8c-0.4,1.5,1,2.8,2.4,2.4L252.6,371.7z"/>
</g>
<g>
</g>
<g>
</g>
<g>
</g>
<g>
</g>
<g>
</g>
<g>
</g>
<g>
</g>
<g>
</g>
<g>
</g>
<g>
</g>
<g>
</g>
<g>
</g>
<g>
</g>
<g>
</g>
<g>
</g>
</svg>
