<?xml version="1.0" encoding="iso-8859-1"?>
<!-- Generator: Adobe Illustrator 19.0.0, SVG Export Plug-In . SVG Version: 6.00 Build 0)  -->
<svg version="1.1" id="Layer_1" xmlns="http://www.w3.org/2000/svg" xmlns:xlink="http://www.w3.org/1999/xlink" x="0px" y="0px"
	 viewBox="0 0 506 506" style="enable-background:new 0 0 506 506;" xml:space="preserve">
<circle style="fill:#90DFAA;" cx="253" cy="253" r="253"/>
<polygon style="fill:#FF7058;" points="398.4,124.6 385.7,124.6 373,124.6 373,376.1 385.7,376.1 398.4,376.1 411.1,376.1 
	411.1,124.6 "/>
<g>
	<path style="fill:#FFFFFF;" d="M385.7,376H373l10.2,19.7c1.8-0.5,3.7-0.8,5.8-1L385.7,376z"/>
	<path style="fill:#FFFFFF;" d="M392,394.4c1.1,0,2.1,0.1,3.2,0.2l3.2-18.7h-12.7l3.2,18.7C389.9,394.5,391,394.4,392,394.4z"/>
	<path style="fill:#FFFFFF;" d="M401,395.6l10.2-19.7h-12.7l-3.2,18.7C397.2,394.8,399.2,395.1,401,395.6z"/>
</g>
<path style="fill:#2B3B4E;" d="M410.6,96.8h-37.1c-0.3,0-0.5,0.2-0.5,0.5v27.2h38.2V97.3C411.1,97.1,410.9,96.8,410.6,96.8z"/>
<rect x="373" y="122.6" style="fill:#FFFFFF;" width="38.2" height="14.8"/>
<path style="fill:#324A5E;" d="M401,395.6c-1.8-0.5-3.7-0.8-5.8-1c-1-0.1-2.1-0.2-3.2-0.2s-2.1,0.1-3.2,0.2c-2,0.2-4,0.5-5.8,1
	l7,12.4c0.9,1.5,2.9,1.5,3.8,0L401,395.6z"/>
<rect x="120.8" y="94.9" style="fill:#FF7058;" width="52.4" height="316.3"/>
<g>
	<rect x="169.3" y="94.9" style="fill:#E6E9EE;" width="187.9" height="316.3"/>
	<path style="fill:#E6E9EE;" d="M133.8,370.9c0,4.5,3.6,8.2,8.1,8.2s8.1-3.7,8.1-8.2s-3.6-8.2-8.1-8.2
		C137.5,362.7,133.8,366.3,133.8,370.9z"/>
</g>
<path style="fill:#ACB3BA;" d="M148.6,370.9c0,4.3-3.2,7.7-7.4,8.1c0.3,0,0.5,0.1,0.8,0.1c4.5,0,8.1-3.7,8.1-8.2s-3.6-8.2-8.1-8.2
	c-0.3,0-0.5,0.1-0.8,0.1C145.3,363.1,148.6,366.6,148.6,370.9z"/>
<path style="fill:#324A5E;" d="M145.2,367.4v6.9c0,0.6-0.5,1.2-1.2,1.2H96c-0.6,0-1.2-0.5-1.2-1.2v-6.9c0-0.6,0.5-1.2,1.2-1.2h48
	C144.7,366.2,145.2,366.8,145.2,367.4z"/>
<path style="fill:#E6E9EE;" d="M133.8,331.6c0,4.5,3.6,8.2,8.1,8.2s8.1-3.7,8.1-8.2s-3.6-8.2-8.1-8.2
	C137.5,323.4,133.8,327,133.8,331.6z"/>
<path style="fill:#ACB3BA;" d="M148.6,331.6c0,4.3-3.2,7.7-7.4,8.1c0.3,0,0.5,0.1,0.8,0.1c4.5,0,8.1-3.7,8.1-8.2s-3.6-8.2-8.1-8.2
	c-0.3,0-0.5,0.1-0.8,0.1C145.3,323.8,148.6,327.3,148.6,331.6z"/>
<path style="fill:#324A5E;" d="M145.2,328.1v6.9c0,0.6-0.5,1.2-1.2,1.2H96c-0.6,0-1.2-0.5-1.2-1.2v-6.9c0-0.6,0.5-1.2,1.2-1.2h48
	C144.7,327,145.2,327.5,145.2,328.1z"/>
<path style="fill:#E6E9EE;" d="M133.8,292.3c0,4.5,3.6,8.2,8.1,8.2s8.1-3.7,8.1-8.2s-3.6-8.2-8.1-8.2
	C137.5,284.1,133.8,287.8,133.8,292.3z"/>
<path style="fill:#ACB3BA;" d="M148.6,292.3c0,4.3-3.2,7.7-7.4,8.1c0.3,0,0.5,0.1,0.8,0.1c4.5,0,8.1-3.7,8.1-8.2s-3.6-8.2-8.1-8.2
	c-0.3,0-0.5,0.1-0.8,0.1C145.3,284.6,148.6,288,148.6,292.3z"/>
<path style="fill:#324A5E;" d="M145.2,288.8v6.9c0,0.6-0.5,1.2-1.2,1.2H96c-0.6,0-1.2-0.5-1.2-1.2v-6.9c0-0.6,0.5-1.2,1.2-1.2h48
	C144.7,287.7,145.2,288.2,145.2,288.8z"/>
<path style="fill:#E6E9EE;" d="M133.8,253c0,4.5,3.6,8.2,8.1,8.2s8.1-3.7,8.1-8.2s-3.6-8.2-8.1-8.2
	C137.5,244.8,133.8,248.5,133.8,253z"/>
<path style="fill:#ACB3BA;" d="M148.6,253c0,4.3-3.2,7.7-7.4,8.1c0.3,0,0.5,0.1,0.8,0.1c4.5,0,8.1-3.7,8.1-8.2s-3.6-8.2-8.1-8.2
	c-0.3,0-0.5,0.1-0.8,0.1C145.3,245.3,148.6,248.7,148.6,253z"/>
<path style="fill:#324A5E;" d="M145.2,249.5v6.9c0,0.6-0.5,1.2-1.2,1.2H96c-0.6,0-1.2-0.5-1.2-1.2v-6.9c0-0.6,0.5-1.2,1.2-1.2h48
	C144.7,248.4,145.2,248.9,145.2,249.5z"/>
<path style="fill:#E6E9EE;" d="M133.8,213.7c0,4.5,3.6,8.2,8.1,8.2s8.1-3.7,8.1-8.2s-3.6-8.2-8.1-8.2
	C137.5,205.5,133.8,209.2,133.8,213.7z"/>
<path style="fill:#ACB3BA;" d="M148.6,213.7c0,4.3-3.2,7.7-7.4,8.1c0.3,0,0.5,0.1,0.8,0.1c4.5,0,8.1-3.7,8.1-8.2s-3.6-8.2-8.1-8.2
	c-0.3,0-0.5,0.1-0.8,0.1C145.3,206,148.6,209.5,148.6,213.7z"/>
<path style="fill:#324A5E;" d="M145.2,210.3v6.9c0,0.6-0.5,1.2-1.2,1.2H96c-0.6,0-1.2-0.5-1.2-1.2v-6.9c0-0.6,0.5-1.2,1.2-1.2h48
	C144.7,209.1,145.2,209.6,145.2,210.3z"/>
<path style="fill:#E6E9EE;" d="M133.8,174.4c0,4.5,3.6,8.2,8.1,8.2s8.1-3.7,8.1-8.2s-3.6-8.2-8.1-8.2
	C137.5,166.2,133.8,169.9,133.8,174.4z"/>
<path style="fill:#ACB3BA;" d="M148.6,174.4c0,4.3-3.2,7.7-7.4,8.1c0.3,0,0.5,0.1,0.8,0.1c4.5,0,8.1-3.7,8.1-8.2s-3.6-8.2-8.1-8.2
	c-0.3,0-0.5,0.1-0.8,0.1C145.3,166.7,148.6,170.2,148.6,174.4z"/>
<path style="fill:#324A5E;" d="M145.2,171v6.9c0,0.6-0.5,1.2-1.2,1.2H96c-0.6,0-1.2-0.5-1.2-1.2V171c0-0.6,0.5-1.2,1.2-1.2h48
	C144.7,169.8,145.2,170.3,145.2,171z"/>
<path style="fill:#E6E9EE;" d="M133.8,135.1c0,4.5,3.6,8.2,8.1,8.2s8.1-3.7,8.1-8.2s-3.6-8.2-8.1-8.2
	C137.5,126.9,133.8,130.6,133.8,135.1z"/>
<path style="fill:#ACB3BA;" d="M148.6,135.1c0,4.3-3.2,7.7-7.4,8.1c0.3,0,0.5,0.1,0.8,0.1c4.5,0,8.1-3.7,8.1-8.2s-3.6-8.2-8.1-8.2
	c-0.3,0-0.5,0.1-0.8,0.1C145.3,127.4,148.6,130.9,148.6,135.1z"/>
<path style="fill:#324A5E;" d="M145.2,131.7v6.9c0,0.6-0.5,1.2-1.2,1.2H96c-0.6,0-1.2-0.5-1.2-1.2v-6.9c0-0.6,0.5-1.2,1.2-1.2h48
	C144.7,130.5,145.2,131.1,145.2,131.7z"/>
<path style="fill:#FFFFFF;" d="M189.9,131.5v79.1c0,4.2,3.4,7.7,7.6,7.7h131.4c4.2,0,7.6-3.4,7.6-7.7v-79.1c0-4.2-3.4-7.7-7.6-7.7
	H197.5C193.3,123.9,189.9,127.3,189.9,131.5z"/>
<g>
	<rect x="205.9" y="140.3" style="fill:#FFD05B;" width="114.6" height="8"/>
	<rect x="205.9" y="167.1" style="fill:#FFD05B;" width="114.6" height="8"/>
	<rect x="205.9" y="193.9" style="fill:#FFD05B;" width="114.6" height="8"/>
</g>
<g>
</g>
<g>
</g>
<g>
</g>
<g>
</g>
<g>
</g>
<g>
</g>
<g>
</g>
<g>
</g>
<g>
</g>
<g>
</g>
<g>
</g>
<g>
</g>
<g>
</g>
<g>
</g>
<g>
</g>
</svg>
