<?xml version="1.0" encoding="iso-8859-1"?>
<!-- Generator: Adobe Illustrator 19.0.0, SVG Export Plug-In . SVG Version: 6.00 Build 0)  -->
<svg version="1.1" id="Layer_1" xmlns="http://www.w3.org/2000/svg" xmlns:xlink="http://www.w3.org/1999/xlink" x="0px" y="0px"
	 viewBox="0 0 506 506" style="enable-background:new 0 0 506 506;" xml:space="preserve">
<circle style="fill:#84DBFF;" cx="253" cy="253" r="253"/>
<polygon style="fill:#FF7058;" points="341,220.7 397,396.8 220.6,341.1 "/>
<path style="fill:#FFD05B;" d="M158,237.1l79-79c1-1,2.8-1,3.8,0l27.5,27.5c1,1,1,2.8,0,3.8l-79,79c-1,1-2.8,1-3.8,0L158,240.9
	C157,239.9,157,238.2,158,237.1z"/>
<polygon style="fill:#324A5E;" points="77.4,171.1 171,77.5 232.3,162.8 162.7,232.4 "/>
<path style="fill:#F1543F;" d="M387.5,393.8l-68.6-68.6c-8.7,5.8-20.5,4.9-28.1-2.8c-8.7-8.7-8.7-22.8,0-31.5s22.8-8.7,31.5,0
	c7.6,7.6,8.6,19.4,2.8,28.1l68.6,68.6L341,220.7c0,0-47.4,13.4-93.1-10.9L209.7,248c24.6,43.1,10.9,93.1,10.9,93.1L387.5,393.8z"/>
<g>
</g>
<g>
</g>
<g>
</g>
<g>
</g>
<g>
</g>
<g>
</g>
<g>
</g>
<g>
</g>
<g>
</g>
<g>
</g>
<g>
</g>
<g>
</g>
<g>
</g>
<g>
</g>
<g>
</g>
</svg>
