<?xml version="1.0" encoding="iso-8859-1"?>
<!-- Generator: Adobe Illustrator 19.0.0, SVG Export Plug-In . SVG Version: 6.00 Build 0)  -->
<svg version="1.1" id="Layer_1" xmlns="http://www.w3.org/2000/svg" xmlns:xlink="http://www.w3.org/1999/xlink" x="0px" y="0px"
	 viewBox="0 0 506 506" style="enable-background:new 0 0 506 506;" xml:space="preserve">
<circle style="fill:#84DBFF;" cx="253" cy="253" r="253"/>
<path style="fill:#2B3B4E;" d="M181.4,94.9h-6.6c-3.7,0-6.6,3-6.6,6.6V113H188v-11.5C188,97.9,185,94.9,181.4,94.9z"/>
<path style="fill:#3C5668;" d="M190.4,109.1h-24.8c-1.8,0-3.3,1.5-3.3,3.3v98.1h31.4v-98.1C193.7,110.6,192.3,109.1,190.4,109.1z"/>
<path style="fill:#F1543F;" d="M375.9,220.8h-54.5v159h54.5c8.6,0,15.5-7,15.5-15.5V236.4C391.5,227.8,384.5,220.8,375.9,220.8z
	 M341.1,360.2V240.4l30.8-0.1v119.9L341.1,360.2L341.1,360.2z"/>
<rect x="253.1" y="96.8" style="fill:#FFD05B;" width="63.4" height="111.7"/>
<path style="fill:#FFFFFF;" d="M284.9,108.7c-6.1,0-11.1,5-11.1,11.1s5,11.1,11.1,11.1s11.1-5,11.1-11.1S291,108.7,284.9,108.7z"/>
<g>
	<rect x="253.1" y="109.2" style="fill:#F9B54C;" width="15.5" height="5"/>
	<rect x="253.1" y="123.8" style="fill:#F9B54C;" width="10.3" height="5"/>
	<rect x="253.1" y="138.4" style="fill:#F9B54C;" width="15.5" height="5"/>
	<rect x="253.1" y="153" style="fill:#F9B54C;" width="10.3" height="5"/>
	<rect x="253.1" y="167.6" style="fill:#F9B54C;" width="15.5" height="5"/>
	<rect x="253.1" y="182.2" style="fill:#F9B54C;" width="10.3" height="5"/>
	<rect x="253.1" y="196.8" style="fill:#F9B54C;" width="15.5" height="5"/>
</g>
<path style="fill:#FF7058;" d="M229.7,128.8h9.6l-7.7-13.9c-1.4,0.4-2.8,0.6-4.4,0.7L229.7,128.8z"/>
<path style="fill:#F1543F;" d="M224.9,115.7c-0.8,0-1.6-0.1-2.4-0.1l-2.4,13.2h9.6l-2.4-13.2C226.5,115.7,225.7,115.7,224.9,115.7z"
	/>
<path style="fill:#FF7058;" d="M218.2,114.9l-7.7,13.9h9.6l2.4-13.2C221,115.5,219.5,115.2,218.2,114.9z"/>
<path style="fill:#324A5E;" d="M218.2,114.9c1.4,0.4,2.8,0.6,4.4,0.7c0.8,0.1,1.6,0.1,2.4,0.1c0.8,0,1.6-0.1,2.4-0.1
	c1.5-0.1,3-0.4,4.4-0.7l-5.3-8.8c-0.7-1.1-2.2-1.1-2.9,0L218.2,114.9z"/>
<rect x="220.1" y="128.7" style="fill:#E6E9EE;" width="9.6" height="79.8"/>
<g>
	<rect x="210.4" y="128.7" style="fill:#FFFFFF;" width="9.6" height="79.8"/>
	<rect x="229.7" y="128.7" style="fill:#FFFFFF;" width="9.6" height="79.8"/>
</g>
<path style="fill:#FF7058;" d="M151.9,206.6v196.7c0,4.4,3.5,7.9,7.9,7.9h176.5c4.4,0,7.9-3.5,7.9-7.9V206.6H151.9z"/>
<polygon style="fill:#3C5668;" points="157.5,151 151.9,151 151.9,117.7 164.3,117.7 164.3,124.2 157.5,124.2 "/>
<rect x="170.6" y="119.7" style="fill:#FFFFFF;" width="5.6" height="49.1"/>
<g>
</g>
<g>
</g>
<g>
</g>
<g>
</g>
<g>
</g>
<g>
</g>
<g>
</g>
<g>
</g>
<g>
</g>
<g>
</g>
<g>
</g>
<g>
</g>
<g>
</g>
<g>
</g>
<g>
</g>
</svg>
