<?xml version="1.0" encoding="iso-8859-1"?>
<!-- Generator: Adobe Illustrator 19.0.0, SVG Export Plug-In . SVG Version: 6.00 Build 0)  -->
<svg version="1.1" id="Layer_1" xmlns="http://www.w3.org/2000/svg" xmlns:xlink="http://www.w3.org/1999/xlink" x="0px" y="0px"
	 viewBox="0 0 506 506" style="enable-background:new 0 0 506 506;" xml:space="preserve">
<circle style="fill:#90DFAA;" cx="253" cy="253" r="253"/>
<path style="fill:#324A5E;" d="M379.7,126.3C351.1,97.8,313.2,82,272.8,82s-78.4,15.7-106.9,44.3l-1.5,1.5l213.8,213.8l1.5-1.5
	c28.6-28.6,44.3-66.5,44.3-106.9S408.2,154.9,379.7,126.3z M372.2,273.4L232.6,133.8c12.6-5.1,26.2-7.8,40.2-7.8
	c28.6,0,55.6,11.2,75.8,31.4C379.9,188.7,387.7,234.7,372.2,273.4z"/>
<g>
	
		<rect x="180.189" y="134.962" transform="matrix(-0.7071 -0.7071 0.7071 -0.7071 212.608 366.8892)" style="fill:#E6E9EE;" width="4.2" height="8.9"/>
	
		<rect x="195.779" y="139.864" transform="matrix(-0.7071 -0.7071 0.7071 -0.7071 232.6078 393.8776)" style="fill:#E6E9EE;" width="4.2" height="17.8"/>
	
		<rect x="205.19" y="159.926" transform="matrix(-0.7071 -0.7071 0.7071 -0.7071 237.6345 427.184)" style="fill:#E6E9EE;" width="4.2" height="8.9"/>
	
		<rect x="220.779" y="164.819" transform="matrix(-0.7071 -0.7071 0.7071 -0.7071 257.6413 454.1554)" style="fill:#E6E9EE;" width="4.2" height="17.8"/>
	
		<rect x="230.12" y="184.81" transform="matrix(-0.7071 -0.7071 0.7071 -0.7071 262.5973 487.2911)" style="fill:#E6E9EE;" width="4.2" height="8.9"/>
	
		<rect x="245.699" y="189.712" transform="matrix(-0.7071 -0.7071 0.7071 -0.7071 282.58 514.2725)" style="fill:#E6E9EE;" width="4.2" height="17.8"/>
	
		<rect x="254.979" y="209.774" transform="matrix(-0.7071 -0.7071 0.7071 -0.7071 287.3823 547.486)" style="fill:#E6E9EE;" width="4.2" height="8.9"/>
	
		<rect x="270.559" y="214.666" transform="matrix(-0.7071 -0.7071 0.7071 -0.7071 307.3721 574.4503)" style="fill:#E6E9EE;" width="4.2" height="17.8"/>
	
		<rect x="279.97" y="234.729" transform="matrix(-0.7071 -0.7071 0.7071 -0.7071 312.3988 607.7568)" style="fill:#E6E9EE;" width="4.2" height="8.9"/>
	
		<rect x="295.559" y="239.631" transform="matrix(-0.7071 -0.7071 0.7071 -0.7071 332.3986 634.7452)" style="fill:#E6E9EE;" width="4.2" height="17.8"/>
	
		<rect x="304.9" y="259.612" transform="matrix(-0.7071 -0.7071 0.7071 -0.7071 337.3616 667.8638)" style="fill:#E6E9EE;" width="4.2" height="8.9"/>
	
		<rect x="320.489" y="264.514" transform="matrix(-0.7071 -0.7071 0.7071 -0.7071 357.3614 694.8523)" style="fill:#E6E9EE;" width="4.2" height="17.8"/>
	
		<rect x="329.83" y="284.506" transform="matrix(-0.7071 -0.7071 0.7071 -0.7071 362.3174 727.988)" style="fill:#E6E9EE;" width="4.2" height="8.9"/>
	
		<rect x="345.419" y="289.408" transform="matrix(-0.7071 -0.7071 0.7071 -0.7071 382.3172 754.9764)" style="fill:#E6E9EE;" width="4.2" height="17.8"/>
	
		<rect x="354.689" y="309.46" transform="matrix(-0.7071 -0.7071 0.7071 -0.7071 387.1095 788.1658)" style="fill:#E6E9EE;" width="4.2" height="8.9"/>
</g>
<path style="fill:#FFD05B;" d="M107.7,115v283.3H391L107.7,115z M149.6,216.1l140.2,140.3H149.6V216.1z"/>
<g>
	<rect x="107.7" y="153" style="fill:#F9B54C;" width="10.5" height="4.2"/>
	<rect x="107.7" y="168.7" style="fill:#F9B54C;" width="20.2" height="4.2"/>
	<rect x="107.7" y="184.4" style="fill:#F9B54C;" width="10.5" height="4.2"/>
	<rect x="107.7" y="200.1" style="fill:#F9B54C;" width="20.2" height="4.2"/>
	<rect x="107.7" y="215.8" style="fill:#F9B54C;" width="10.5" height="4.2"/>
	<rect x="107.7" y="231.5" style="fill:#F9B54C;" width="20.2" height="4.2"/>
	<rect x="107.7" y="247.2" style="fill:#F9B54C;" width="10.5" height="4.2"/>
	<rect x="107.7" y="262.9" style="fill:#F9B54C;" width="20.2" height="4.2"/>
	<rect x="107.7" y="278.6" style="fill:#F9B54C;" width="10.5" height="4.2"/>
	<rect x="107.7" y="294.3" style="fill:#F9B54C;" width="20.2" height="4.2"/>
	<rect x="107.7" y="310.1" style="fill:#F9B54C;" width="10.5" height="4.2"/>
	<rect x="107.7" y="325.8" style="fill:#F9B54C;" width="20.2" height="4.2"/>
	<rect x="107.7" y="341.5" style="fill:#F9B54C;" width="10.5" height="4.2"/>
	<rect x="107.7" y="357.2" style="fill:#F9B54C;" width="20.2" height="4.2"/>
	<rect x="107.7" y="372.9" style="fill:#F9B54C;" width="10.5" height="4.2"/>
	<rect x="128.9" y="387.8" style="fill:#F9B54C;" width="4.2" height="10.5"/>
	<rect x="144.6" y="378.1" style="fill:#F9B54C;" width="4.2" height="20.2"/>
	<rect x="160.3" y="387.8" style="fill:#F9B54C;" width="4.2" height="10.5"/>
	<rect x="176.1" y="378.1" style="fill:#F9B54C;" width="4.2" height="20.2"/>
	<rect x="191.8" y="387.8" style="fill:#F9B54C;" width="4.2" height="10.5"/>
	<rect x="207.5" y="378.1" style="fill:#F9B54C;" width="4.2" height="20.2"/>
	<rect x="223.2" y="387.8" style="fill:#F9B54C;" width="4.2" height="10.5"/>
	<rect x="238.9" y="378.1" style="fill:#F9B54C;" width="4.2" height="20.2"/>
	<rect x="254.6" y="387.8" style="fill:#F9B54C;" width="4.2" height="10.5"/>
	<rect x="270.3" y="378.1" style="fill:#F9B54C;" width="4.2" height="20.2"/>
	<rect x="286" y="387.8" style="fill:#F9B54C;" width="4.2" height="10.5"/>
	<rect x="301.7" y="378.1" style="fill:#F9B54C;" width="4.2" height="20.2"/>
	<rect x="317.4" y="387.8" style="fill:#F9B54C;" width="4.2" height="10.5"/>
	<rect x="333.1" y="378.1" style="fill:#F9B54C;" width="4.2" height="20.2"/>
	<rect x="348.8" y="387.8" style="fill:#F9B54C;" width="4.2" height="10.5"/>
</g>
<g>
</g>
<g>
</g>
<g>
</g>
<g>
</g>
<g>
</g>
<g>
</g>
<g>
</g>
<g>
</g>
<g>
</g>
<g>
</g>
<g>
</g>
<g>
</g>
<g>
</g>
<g>
</g>
<g>
</g>
</svg>
