<?xml version="1.0" encoding="iso-8859-1"?>
<!-- Generator: Adobe Illustrator 19.0.0, SVG Export Plug-In . SVG Version: 6.00 Build 0)  -->
<svg version="1.1" id="Layer_1" xmlns="http://www.w3.org/2000/svg" xmlns:xlink="http://www.w3.org/1999/xlink" x="0px" y="0px"
	 viewBox="0 0 506 506" style="enable-background:new 0 0 506 506;" xml:space="preserve">
<circle style="fill:#84DBFF;" cx="253" cy="253" r="253"/>
<g>
	<path style="fill:#324A5E;" d="M136.3,400.4c0,5.9,4.8,10.7,10.7,10.7h15.9c5.9,0,10.7-4.8,10.7-10.7v-36h-37.2v36H136.3z"/>
	<path style="fill:#324A5E;" d="M332.4,364.5v36c0,5.9,4.8,10.7,10.7,10.7H359c5.9,0,10.7-4.8,10.7-10.7v-36H332.4z"/>
</g>
<path style="fill:#FFC740;" d="M349.1,94.9H156.9c-17,0-30.7,13.8-30.7,30.7v242.8H380V125.6C379.9,108.7,366.1,94.9,349.1,94.9z"/>
<path style="fill:#324A5E;" d="M306.2,110H199.8c-2.8,0-5.1,2.3-5.1,5.1v17.3c0,2.8,2.3,5.1,5.1,5.1h106.4c2.8,0,5.1-2.3,5.1-5.1
	V115C311.2,112.2,309,110,306.2,110z"/>
<g>
	<path style="fill:#E6E9EE;" d="M206.1,126.4l3.1-0.3c0.2,1.1,0.6,1.8,1.1,2.3s1.4,0.7,2.3,0.7c1,0,1.8-0.2,2.3-0.7
		c0.5-0.4,0.8-1,0.8-1.5c0-0.4-0.1-0.7-0.3-1s-0.6-0.5-1.2-0.7c-0.4-0.1-1.2-0.4-2.6-0.7c-1.7-0.4-2.9-1-3.6-1.6
		c-1-0.9-1.5-1.9-1.5-3.2c0-0.8,0.2-1.6,0.7-2.3c0.5-0.7,1.1-1.2,2-1.6s1.9-0.6,3.1-0.6c2,0,3.5,0.4,4.5,1.3s1.5,2,1.6,3.5l-3.2,0.1
		c-0.1-0.8-0.4-1.4-0.9-1.8s-1.1-0.5-2-0.5s-1.7,0.2-2.2,0.6c-0.3,0.2-0.5,0.6-0.5,1s0.2,0.7,0.5,1c0.4,0.3,1.4,0.7,3,1.1
		s2.7,0.8,3.5,1.1c0.8,0.4,1.3,0.9,1.8,1.6c0.4,0.7,0.6,1.5,0.6,2.5c0,0.9-0.3,1.8-0.8,2.6s-1.2,1.4-2.2,1.8
		c-0.9,0.4-2.1,0.6-3.5,0.6c-2,0-3.6-0.5-4.6-1.4S206.3,128.2,206.1,126.4z"/>
	<path style="fill:#E6E9EE;" d="M232,125.8l3.1,1c-0.5,1.7-1.3,3-2.4,3.9c-1.1,0.8-2.5,1.3-4.2,1.3c-2.1,0-3.9-0.7-5.2-2.2
		c-1.4-1.4-2-3.4-2-5.9c0-2.7,0.7-4.7,2.1-6.2s3.2-2.2,5.4-2.2c2,0,3.5,0.6,4.8,1.7c0.7,0.7,1.3,1.7,1.6,2.9l-3.2,0.8
		c-0.2-0.8-0.6-1.5-1.2-2c-0.6-0.5-1.3-0.7-2.2-0.7c-1.2,0-2.1,0.4-2.9,1.3s-1.1,2.2-1.1,4.1c0,2,0.4,3.5,1.1,4.3
		c0.7,0.9,1.7,1.3,2.8,1.3c0.9,0,1.6-0.3,2.2-0.8C231.2,127.8,231.7,126.9,232,125.8z"/>
	<path style="fill:#E6E9EE;" d="M237.9,131.6v-16h3.2v6.3h6.3v-6.3h3.2v16h-3.2v-7h-6.3v7H237.9z"/>
	<path style="fill:#E6E9EE;" d="M253.3,123.8c0-1.6,0.2-3,0.7-4.1c0.4-0.8,0.9-1.5,1.5-2.2c0.6-0.6,1.3-1.1,2.1-1.4
		c1-0.4,2.1-0.6,3.4-0.6c2.4,0,4.2,0.7,5.6,2.2s2.1,3.5,2.1,6.1c0,2.6-0.7,4.6-2.1,6s-3.3,2.2-5.6,2.2c-2.4,0-4.3-0.7-5.7-2.2
		C254,128.3,253.3,126.3,253.3,123.8z M256.6,123.7c0,1.8,0.4,3.2,1.3,4.1s1.9,1.4,3.2,1.4s2.3-0.5,3.2-1.4c0.8-0.9,1.2-2.3,1.2-4.2
		c0-1.8-0.4-3.2-1.2-4.1c-0.8-0.9-1.9-1.3-3.2-1.3c-1.3,0-2.4,0.5-3.2,1.4C257,120.4,256.6,121.8,256.6,123.7z"/>
	<path style="fill:#E6E9EE;" d="M270.6,123.8c0-1.6,0.2-3,0.7-4.1c0.4-0.8,0.9-1.5,1.5-2.2c0.6-0.6,1.3-1.1,2.1-1.4
		c1-0.4,2.1-0.6,3.4-0.6c2.4,0,4.2,0.7,5.6,2.2s2.1,3.5,2.1,6.1c0,2.6-0.7,4.6-2.1,6c-1.4,1.5-3.3,2.2-5.6,2.2
		c-2.4,0-4.3-0.7-5.7-2.2C271.3,128.3,270.6,126.3,270.6,123.8z M273.9,123.7c0,1.8,0.4,3.2,1.3,4.1c0.8,0.9,1.9,1.4,3.2,1.4
		s2.3-0.5,3.2-1.4c0.8-0.9,1.2-2.3,1.2-4.2c0-1.8-0.4-3.2-1.2-4.1c-0.8-0.9-1.9-1.3-3.2-1.3s-2.4,0.5-3.2,1.4
		C274.3,120.4,273.9,121.8,273.9,123.7z"/>
	<path style="fill:#E6E9EE;" d="M288.7,131.6v-15.8h3.2V129h8v2.7h-11.2V131.6z"/>
</g>
<rect x="121.6" y="348.5" style="fill:#2B3B4E;" width="262.9" height="19.9"/>
<g>
	<path style="fill:#324A5E;" d="M130.7,246.3v6.7c-7.4,0.2-13-1.6-16.7-5.5s-5-9.2-5.4-13.4h7.1c1.5,0,2.6-1.2,2.6-2.6v-50.2
		c0-1.5-1.2-2.6-2.6-2.6H93.6c-1.5,0-2.6,1.2-2.6,2.6v50.2c0,1.5,1.2,2.6,2.6,2.6h7.1c0.4,5.5,2.1,13,7.5,18.7
		c5.1,5.4,12.3,8.2,21.4,8.2c0.3,0,0.7,0,1.1,0v5.7h6.6v-20.4L130.7,246.3L130.7,246.3z"/>
	<path style="fill:#324A5E;" d="M375.3,246.3v6.7c7.4,0.2,13-1.6,16.7-5.5s5-9.2,5.4-13.4h-7.1c-1.5,0-2.6-1.2-2.6-2.6v-50.2
		c0-1.5,1.2-2.6,2.6-2.6h22.1c1.5,0,2.6,1.2,2.6,2.6v50.2c0,1.5-1.2,2.6-2.6,2.6h-7.1c-0.4,5.5-2.1,13-7.5,18.7
		c-5.1,5.4-12.3,8.2-21.4,8.2c-0.3,0-0.7,0-1.1,0v5.7h-6.6v-20.4L375.3,246.3L375.3,246.3z"/>
	<rect x="140.7" y="148.4" style="fill:#324A5E;" width="108.1" height="94.2"/>
	<rect x="257.2" y="148.4" style="fill:#324A5E;" width="108.1" height="94.2"/>
</g>
<g>
	<ellipse style="fill:#FFFFFF;" cx="152.5" cy="318.5" rx="17" ry="14.7"/>
	<ellipse style="fill:#FFFFFF;" cx="353.5" cy="318.5" rx="17" ry="14.7"/>
</g>
<g>
	<rect x="296.2" y="258.9" style="fill:#FFB734;" width="32.6" height="89.6"/>
	<rect x="177.2" y="258.9" style="fill:#FFB734;" width="32.6" height="89.6"/>
</g>
<polygon style="fill:#FCD759;" points="296.2,281.8 209.8,281.8 177.2,258.9 328.8,258.9 "/>
<g>
	<path style="fill:#2B3B4E;" d="M233.5,340.6h-7.6c-0.7,0-1.3-0.6-1.3-1.3v-44c0-0.7,0.6-1.3,1.3-1.3h7.6c0.7,0,1.3,0.6,1.3,1.3v44
		C234.8,340,234.2,340.6,233.5,340.6z"/>
	<path style="fill:#2B3B4E;" d="M256.8,340.6h-7.6c-0.7,0-1.3-0.6-1.3-1.3v-44c0-0.7,0.6-1.3,1.3-1.3h7.6c0.7,0,1.3,0.6,1.3,1.3v44
		C258.1,340,257.5,340.6,256.8,340.6z"/>
	<path style="fill:#2B3B4E;" d="M280.1,340.6h-7.6c-0.7,0-1.3-0.6-1.3-1.3v-44c0-0.7,0.6-1.3,1.3-1.3h7.6c0.7,0,1.3,0.6,1.3,1.3v44
		C281.4,340,280.8,340.6,280.1,340.6z"/>
</g>
<g>
</g>
<g>
</g>
<g>
</g>
<g>
</g>
<g>
</g>
<g>
</g>
<g>
</g>
<g>
</g>
<g>
</g>
<g>
</g>
<g>
</g>
<g>
</g>
<g>
</g>
<g>
</g>
<g>
</g>
</svg>
