<?xml version="1.0" encoding="iso-8859-1"?>
<!-- Generator: Adobe Illustrator 19.0.0, SVG Export Plug-In . SVG Version: 6.00 Build 0)  -->
<svg version="1.1" id="Layer_1" xmlns="http://www.w3.org/2000/svg" xmlns:xlink="http://www.w3.org/1999/xlink" x="0px" y="0px"
	 viewBox="0 0 506 506" style="enable-background:new 0 0 506 506;" xml:space="preserve">
<circle style="fill:#FD8469;" cx="253" cy="253" r="253"/>
<path style="fill:#FFFFFF;" d="M386.6,102.1L354,114.9l37.1,37.1l12.8-32.6C401.7,118.1,387.9,104.3,386.6,102.1z"/>
<path style="fill:#F9B54C;" d="M92.3,383.5l30.1,30.1c1.9,1.9,5.1,1.9,7,0l23.2-23.2l-37.1-37.1l-23.2,23.2
	C90.4,378.5,90.4,381.6,92.3,383.5z"/>
<path style="fill:#324A5E;" d="M386.6,102.1c1.3,2.2,2.8,4.4,4.6,6.6c0.9,1.1,1.8,2.2,2.9,3.3c1.1,1.1,2.2,2,3.3,2.9
	c2.1,1.8,4.3,3.4,6.6,4.6l5.1-18.7c0.6-2.3-1.4-4.3-3.7-3.7L386.6,102.1z"/>
<rect x="372.778" y="134.211" transform="matrix(0.7071 -0.7071 0.7071 0.7071 6.9633 310.5327)" style="fill:#2B3B4E;" width="11.1" height="25.3"/>
<g>
	
		<rect x="137.475" y="363.677" transform="matrix(-0.7073 -0.7069 0.7069 -0.7073 -25.0556 726.9804)" style="fill:#324A5E;" width="1" height="10"/>
	<polygon style="fill:#324A5E;" points="373,133.7 372.6,133.4 372.6,133.4 354.1,114.8 346.2,122.6 364.8,141.2 365.5,141.9 
		373.3,134.1 373.3,134.1 	"/>
	<path style="fill:#324A5E;" d="M320.2,185.8l0.7,0.7C320.6,186.3,320.4,186,320.2,185.8z"/>
</g>
<g>
	<path style="fill:#FFFFFF;" d="M387.2,224.5c-3.5-16.5-9.9-32-19.1-46.1l16.9-16.9l-1.6-1.6L336.1,207c7.6,13.6,11.9,29.3,11.9,46
		c0,52.5-42.5,95-95,95c-16.7,0-32.4-4.3-46-11.9l-47.2,47.2l1.6,1.6l16.9-16.9c14.2,9.2,29.7,15.6,46.1,19.1v24h57.1v-24
		c16.5-3.5,32-9.9,46.1-19.1l16.9,16.9l40.4-40.4L368,327.7c9.2-14.2,15.6-29.7,19.1-46.1h24v-57.1H387.2z"/>
	<path style="fill:#FFFFFF;" d="M158,253c0-52.5,42.5-95,95-95c16.7,0,32.4,4.3,46,11.9l47.2-47.2l-1.6-1.6L327.7,138
		c-14.2-9.2-29.7-15.6-46.1-19.1v-24h-57.1v24c-16.5,3.5-32,9.9-46.1,19.1l-17-17L121,161.4l16.9,16.9
		c-9.2,14.2-15.6,29.7-19.1,46.1h-24v57.1h24c3.5,16.5,9.9,32,19.1,46.1l-16.9,17l1.6,1.6l47.2-47.2C162.3,285.4,158,269.7,158,253z
		"/>
</g>
<polygon style="fill:#2B3B4E;" points="134.8,372.6 134.8,372.6 134.1,371.9 "/>
<path style="fill:#324A5E;" d="M320.9,186.5l-0.7-0.7c-6.3-6.3-13.4-11.6-21.2-15.9L169.9,299l-47.2,47.2l-7.1,7.1l37.1,37.1
	l7.1-7.1l47.2-47.2L336.1,207C332,199.5,326.8,192.6,320.9,186.5z"/>
<path style="fill:#FFFFFF;" d="M365.5,141.9l-0.7-0.7l-18.6-18.6L299,169.9c7.8,4.3,14.9,9.7,21.2,15.9c0.2,0.2,0.4,0.5,0.7,0.7
	c6,6.1,11.1,13,15.3,20.5l47.2-47.2L365.5,141.9z"/>
<rect x="113.103" y="356.57" transform="matrix(0.7071 0.7071 -0.7071 0.7071 300.0903 8.8581)" style="fill:#FFD05B;" width="52.5" height="20.2"/>
<g>
</g>
<g>
</g>
<g>
</g>
<g>
</g>
<g>
</g>
<g>
</g>
<g>
</g>
<g>
</g>
<g>
</g>
<g>
</g>
<g>
</g>
<g>
</g>
<g>
</g>
<g>
</g>
<g>
</g>
</svg>
