<?xml version="1.0" encoding="iso-8859-1"?>
<!-- Generator: Adobe Illustrator 19.0.0, SVG Export Plug-In . SVG Version: 6.00 Build 0)  -->
<svg version="1.1" id="Layer_1" xmlns="http://www.w3.org/2000/svg" xmlns:xlink="http://www.w3.org/1999/xlink" x="0px" y="0px"
	 viewBox="0 0 506 506" style="enable-background:new 0 0 506 506;" xml:space="preserve">
<circle style="fill:#84DBFF;" cx="253" cy="253" r="253"/>
<path style="fill:#324A5E;" d="M261.9,229.9H258c0-10.9,8.4-17.7,22-17.7h56.8c10.3,0,11.6-4,11.6-7.5s-1.3-7.5-11.6-7.5h-135
	c-9.6,0-17.5-7.7-17.5-17.2h3.9c0,7.3,6.1,13.3,13.6,13.3h135c12.8,0,15.5,6.2,15.5,11.4s-2.7,11.4-15.5,11.4H280
	C275.7,216,261.9,217,261.9,229.9z"/>
<path style="fill:#FFFFFF;" d="M95.8,235.8v155.5c0,4.4,3.5,7.9,7.9,7.9h298.5c4.4,0,7.9-3.5,7.9-7.9V235.8c0-4.4-3.5-7.9-7.9-7.9
	H103.8C99.4,227.9,95.8,231.5,95.8,235.8z"/>
<g>
	<rect x="112.5" y="242.6" style="fill:#324A5E;" width="23" height="12.7"/>
	<rect x="149.4" y="242.6" style="fill:#324A5E;" width="23" height="12.7"/>
	<rect x="186.2" y="242.6" style="fill:#324A5E;" width="23" height="12.7"/>
	<rect x="223.1" y="242.6" style="fill:#324A5E;" width="23" height="12.7"/>
	<rect x="260" y="242.6" style="fill:#324A5E;" width="23" height="12.7"/>
	<rect x="296.8" y="242.6" style="fill:#324A5E;" width="23" height="12.7"/>
	<rect x="333.7" y="242.6" style="fill:#324A5E;" width="23" height="12.7"/>
	<rect x="370.5" y="242.6" style="fill:#324A5E;" width="23" height="12.7"/>
</g>
<g>
	<rect x="112.5" y="274" style="fill:#E6E9EE;" width="23" height="22.5"/>
	<rect x="149.4" y="274" style="fill:#E6E9EE;" width="23" height="22.5"/>
	<rect x="186.2" y="274" style="fill:#E6E9EE;" width="23" height="22.5"/>
	<rect x="223.1" y="274" style="fill:#E6E9EE;" width="23" height="22.5"/>
	<rect x="260" y="274" style="fill:#E6E9EE;" width="23" height="22.5"/>
	<rect x="296.8" y="274" style="fill:#E6E9EE;" width="23" height="22.5"/>
	<rect x="333.7" y="274" style="fill:#E6E9EE;" width="23" height="22.5"/>
	<rect x="370.5" y="274" style="fill:#E6E9EE;" width="23" height="22.5"/>
	<rect x="112.5" y="303.4" style="fill:#E6E9EE;" width="23" height="22.5"/>
	<rect x="149.4" y="303.4" style="fill:#E6E9EE;" width="23" height="22.5"/>
	<rect x="186.2" y="303.4" style="fill:#E6E9EE;" width="23" height="22.5"/>
	<rect x="223.1" y="303.4" style="fill:#E6E9EE;" width="23" height="22.5"/>
	<rect x="260" y="303.4" style="fill:#E6E9EE;" width="23" height="22.5"/>
	<rect x="296.8" y="303.4" style="fill:#E6E9EE;" width="23" height="22.5"/>
</g>
<polygon style="fill:#4CDBC4;" points="363.6,303.4 333.7,303.4 333.7,325.9 363.6,325.9 363.6,355.3 393.5,355.3 393.5,325.9 
	393.5,303.4 "/>
<rect x="112.5" y="332.7" style="fill:#FF7058;" width="59.8" height="22.5"/>
<g>
	<rect x="186.2" y="332.7" style="fill:#E6E9EE;" width="23" height="22.5"/>
	<rect x="223.1" y="332.7" style="fill:#E6E9EE;" width="23" height="22.5"/>
	<rect x="260" y="332.7" style="fill:#E6E9EE;" width="23" height="22.5"/>
	<rect x="296.8" y="332.7" style="fill:#E6E9EE;" width="23" height="22.5"/>
	<rect x="333.7" y="332.7" style="fill:#E6E9EE;" width="23" height="22.5"/>
	<rect x="112.5" y="362.1" style="fill:#E6E9EE;" width="23" height="22.5"/>
	<rect x="149.4" y="362.1" style="fill:#E6E9EE;" width="23" height="22.5"/>
</g>
<rect x="186.2" y="362.1" style="fill:#ACB3BA;" width="96.7" height="22.5"/>
<g>
	<rect x="296.8" y="362.1" style="fill:#E6E9EE;" width="23" height="22.5"/>
	<rect x="333.7" y="362.1" style="fill:#E6E9EE;" width="23" height="22.5"/>
	<rect x="370.5" y="362.1" style="fill:#E6E9EE;" width="23" height="22.5"/>
</g>
<path style="fill:#FF7058;" d="M323.4,180H161.9c-11.2,0-20.4-9.1-20.4-20.4l0,0c0-11.2,9.1-20.4,20.4-20.4h161.5l0,0
	C311.1,150,311.1,169.2,323.4,180L323.4,180z"/>
<path style="fill:#FFD05B;" d="M180.3,86.9h161.5c11.2,0,20.4,9.1,20.4,20.4l0,0c0,11.2-9.1,20.4-20.4,20.4H180.3l0,0
	C192.6,116.8,192.6,97.7,180.3,86.9L180.3,86.9z"/>
<g>
	<path style="fill:#F1543F;" d="M232.5,149.8v3.9H311c0.3-1.3,0.6-2.6,1-3.9H232.5z"/>
	<path style="fill:#F1543F;" d="M209.2,169.4H312c-0.4-1.3-0.8-2.6-1-3.9H209.2V169.4z"/>
	<path style="fill:#F1543F;" d="M318.1,159.6c0-6.7,2.9-13,7.9-17.4l7.8-6.8H161.9c-13.4,0-24.2,10.9-24.2,24.2
		c0,13.4,10.9,24.2,24.2,24.2h171.9L326,177C320.9,172.6,318.1,166.3,318.1,159.6z M161.9,176.1c-9.1,0-16.5-7.4-16.5-16.5
		s7.4-16.5,16.5-16.5H315c-1.3,2.1-2.3,4.4-3.1,6.7c-0.4,1.3-0.8,2.6-1,3.9c-0.4,1.9-0.6,3.9-0.6,5.9s0.3,3.9,0.6,5.9
		c0.3,1.3,0.6,2.6,1,3.9c0.8,2.3,1.8,4.6,3.1,6.7L161.9,176.1L161.9,176.1z"/>
</g>
<g>
	<path style="fill:#F9B54C;" d="M271.8,97.7h-79.9c0.4,1.3,0.7,2.6,1,3.9h79v-3.9H271.8z"/>
	<path style="fill:#F9B54C;" d="M290.7,112.9h-97.8c-0.2,1.3-0.6,2.6-1,3.9h98.8V112.9z"/>
	<path style="fill:#F9B54C;" d="M341.9,83H170l7.8,6.8c5,4.4,7.9,10.8,7.9,17.4c0,6.7-2.9,13-7.9,17.4l-7.8,6.8h171.9
		c13.4,0,24.2-10.9,24.2-24.2C366.1,93.9,355.2,83,341.9,83z M341.9,123.7H188.7c1.4-2.2,2.4-4.5,3.2-6.9c0.4-1.3,0.7-2.6,1-3.9
		c0.3-1.9,0.6-3.8,0.6-5.7c0-1.9-0.2-3.8-0.6-5.7c-0.2-1.3-0.6-2.6-1-3.9c-0.8-2.4-1.8-4.8-3.2-6.9h153.2c9.1,0,16.5,7.4,16.5,16.5
		S350.9,123.7,341.9,123.7z"/>
</g>
<g>
</g>
<g>
</g>
<g>
</g>
<g>
</g>
<g>
</g>
<g>
</g>
<g>
</g>
<g>
</g>
<g>
</g>
<g>
</g>
<g>
</g>
<g>
</g>
<g>
</g>
<g>
</g>
<g>
</g>
</svg>
