<?xml version="1.0" encoding="iso-8859-1"?>
<!-- Generator: Adobe Illustrator 19.0.0, SVG Export Plug-In . SVG Version: 6.00 Build 0)  -->
<svg version="1.1" id="Layer_1" xmlns="http://www.w3.org/2000/svg" xmlns:xlink="http://www.w3.org/1999/xlink" x="0px" y="0px"
	 viewBox="0 0 506 506" style="enable-background:new 0 0 506 506;" xml:space="preserve">
<circle style="fill:#FD8469;" cx="253" cy="253" r="253"/>
<path style="fill:#324A5E;" d="M351.3,148.7c5.5,0,11,0.4,16.5,1.3l2.3,0.4v-41.9c0-7.5-6.1-13.6-13.6-13.6H132.2
	c-7.5,0-13.6,6.1-13.6,13.6v289c0,7.5,6.1,13.6,13.6,13.6h224.2c7.5,0,13.6-6.1,13.6-13.6v-129l-2.3,0.4
	c-15.1,2.4-30.8,1.5-45.4-2.9l-0.5-0.1l-14.6,3.3c-11.2,2.6-20.3-8.9-15.3-19.2l0,0l-1.1-1c-12.4-11-19.3-25.1-19.3-39.5
	C271.7,176,307.4,148.7,351.3,148.7z"/>
<path style="fill:#2B3B4E;" d="M244.3,358.3c-9.5,0-17.2,7.7-17.2,17.2s7.7,17.2,17.2,17.2c9.5,0,17.2-7.7,17.2-17.2
	C261.6,366,253.8,358.3,244.3,358.3z"/>
<rect x="142.3" y="122.8" style="fill:#FFFFFF;" width="204.1" height="224.9"/>
<path style="fill:#2B3B4E;" d="M215.8,110.4L215.8,110.4c0,2.9,2.3,5.2,5.2,5.2h46.7c2.9,0,5.2-2.3,5.2-5.2l0,0
	c0-2.9-2.3-5.2-5.2-5.2H221C218.1,105.2,215.8,107.5,215.8,110.4z"/>
<g>
	<rect x="166.4" y="151.9" style="fill:#E6E9EE;" width="155.9" height="11.3"/>
	<rect x="166.4" y="190.7" style="fill:#E6E9EE;" width="155.9" height="11.3"/>
	<rect x="166.4" y="229.6" style="fill:#E6E9EE;" width="155.9" height="11.3"/>
	<rect x="166.4" y="268.5" style="fill:#E6E9EE;" width="112.8" height="11.3"/>
	<rect x="166.4" y="307.4" style="fill:#E6E9EE;" width="155.9" height="11.3"/>
</g>
<path style="fill:#FFD05B;" d="M351.3,144.8c-46.1,0-83.5,29-83.5,64.6c0,15.2,6.9,29.8,19.5,41.5l-14.7,30.3l49.2-11.3
	c9.5,2.8,19.5,4.2,29.5,4.2c46.1,0,83.5-29,83.5-64.6S397.4,144.8,351.3,144.8z"/>
<g>
	<circle style="fill:#F9B54C;" cx="304.8" cy="208.4" r="17.4"/>
	<circle style="fill:#F9B54C;" cx="351.3" cy="208.4" r="17.4"/>
	<circle style="fill:#F9B54C;" cx="397.8" cy="208.4" r="17.4"/>
</g>
<g>
</g>
<g>
</g>
<g>
</g>
<g>
</g>
<g>
</g>
<g>
</g>
<g>
</g>
<g>
</g>
<g>
</g>
<g>
</g>
<g>
</g>
<g>
</g>
<g>
</g>
<g>
</g>
<g>
</g>
</svg>
