<?xml version="1.0" encoding="iso-8859-1"?>
<!-- Generator: Adobe Illustrator 19.0.0, SVG Export Plug-In . SVG Version: 6.00 Build 0)  -->
<svg version="1.1" id="Layer_1" xmlns="http://www.w3.org/2000/svg" xmlns:xlink="http://www.w3.org/1999/xlink" x="0px" y="0px"
	 viewBox="0 0 506 506" style="enable-background:new 0 0 506 506;" xml:space="preserve">
<circle style="fill:#90DFAA;" cx="253" cy="253" r="253"/>
<rect x="94.9" y="169.2" style="fill:#324A5E;" width="316.3" height="213.8"/>
<rect x="117.6" y="199.9" style="fill:#FFFFFF;" width="155" height="119.3"/>
<rect x="94.9" y="122.9" style="fill:#FFD05B;" width="316.3" height="46.3"/>
<path style="fill:#F1543F;" d="M385.4,158.1h-18c-1.7,0-3-1.4-3-3v-18c0-1.7,1.4-3,3-3h18c1.7,0,3,1.4,3,3v18
	C388.4,156.8,387.1,158.1,385.4,158.1z"/>
<path style="fill:#FFFFFF;" d="M294.2,158.1H120.8c-1.7,0-3-1.4-3-3v-18c0-1.7,1.4-3,3-3h173.5c1.7,0,3,1.4,3,3v18
	C297.3,156.8,295.9,158.1,294.2,158.1z"/>
<path style="fill:#324A5E;" d="M346.8,158.1h-18c-1.7,0-3-1.4-3-3v-18c0-1.7,1.4-3,3-3h18c1.7,0,3,1.4,3,3v18
	C349.9,156.8,348.5,158.1,346.8,158.1z"/>
<path style="fill:#FF7058;" d="M195.1,235.6c-13.2,0-23.9,10.7-23.9,23.9c0,13.2,10.7,23.9,23.9,23.9s23.9-10.7,23.9-23.9
	C219,246.4,208.3,235.6,195.1,235.6z"/>
<polygon style="fill:#FFFFFF;" points="187.3,244.5 187.3,275 209.6,259.7 "/>
<g>
	<rect x="117.5" y="334.7" style="fill:#CED5E0;" width="155.1" height="7.9"/>
	<rect x="117.5" y="354.7" style="fill:#CED5E0;" width="99.7" height="7.9"/>
</g>
<rect x="316.2" y="261.4" style="fill:#E6E9EE;" width="72.2" height="37.7"/>
<g>
	<rect x="316.2" y="199.9" style="fill:#ACB3BA;" width="72.2" height="37.7"/>
	<rect x="316.2" y="322.9" style="fill:#ACB3BA;" width="72.2" height="37.7"/>
	<path style="fill:#ACB3BA;" d="M131.2,146.3v3.6h-1.4v-9.2h1.4v3.8c0.2-0.4,0.5-0.7,0.9-1c0.4-0.2,0.8-0.3,1.3-0.3
		c0.7,0,1.4,0.2,1.8,0.7c0.5,0.5,0.7,1.1,0.7,2v4.1h-1.4v-3.6c0-1.2-0.5-1.8-1.5-1.8c-0.5,0-0.9,0.2-1.3,0.5
		C131.4,145.3,131.2,145.7,131.2,146.3z"/>
	<path style="fill:#ACB3BA;" d="M139.6,144.4v3.4c0,0.3,0.1,0.6,0.2,0.8c0.2,0.2,0.4,0.3,0.7,0.3s0.6-0.1,0.9-0.4l0.6,1
		c-0.5,0.4-1,0.7-1.6,0.7s-1.1-0.2-1.5-0.6c-0.4-0.4-0.6-1-0.6-1.7v-3.3h-0.8v-1.1h0.8v-2.1h1.4v2.1h1.7v1.1h-1.8V144.4z"/>
	<path style="fill:#ACB3BA;" d="M144.8,144.4v3.4c0,0.3,0.1,0.6,0.2,0.8c0.2,0.2,0.4,0.3,0.7,0.3s0.6-0.1,0.9-0.4l0.6,1
		c-0.5,0.4-1,0.7-1.6,0.7s-1.1-0.2-1.5-0.6c-0.4-0.4-0.6-1-0.6-1.7v-3.3h-0.8v-1.1h0.8v-2.1h1.4v2.1h1.7v1.1h-1.8V144.4z"/>
	<path style="fill:#ACB3BA;" d="M151.8,143.2c0.9,0,1.7,0.3,2.3,0.9c0.6,0.6,0.9,1.4,0.9,2.5c0,1-0.3,1.9-0.9,2.5
		c-0.6,0.6-1.4,1-2.2,1s-1.6-0.4-2.3-1.1v3.4h-1.4v-9.1h1.4v1.2C150.2,143.6,151,143.2,151.8,143.2z M149.7,146.6
		c0,0.6,0.2,1.1,0.6,1.6c0.4,0.4,0.8,0.6,1.4,0.6c0.5,0,1-0.2,1.4-0.6c0.4-0.4,0.6-0.9,0.6-1.6c0-0.6-0.2-1.2-0.6-1.6
		c-0.4-0.4-0.9-0.6-1.4-0.6s-1,0.2-1.4,0.6S149.7,146,149.7,146.6z"/>
	<path style="fill:#ACB3BA;" d="M156.8,146.7c-0.2-0.2-0.3-0.4-0.3-0.7s0.1-0.5,0.3-0.7s0.4-0.3,0.7-0.3s0.5,0.1,0.7,0.3
		s0.3,0.4,0.3,0.7s-0.1,0.5-0.3,0.7s-0.4,0.3-0.7,0.3S157,146.9,156.8,146.7z M156.8,149.8c-0.2-0.2-0.3-0.4-0.3-0.7
		s0.1-0.5,0.3-0.7s0.4-0.3,0.7-0.3s0.5,0.1,0.7,0.3s0.3,0.4,0.3,0.7s-0.1,0.5-0.3,0.7s-0.4,0.3-0.7,0.3
		C157.2,150,157,149.9,156.8,149.8z"/>
	<path style="fill:#ACB3BA;" d="M165.1,139.8h1.2l-5.4,11.6h-1.2L165.1,139.8z"/>
	<path style="fill:#ACB3BA;" d="M168.9,139.8h1.2l-5.4,11.6h-1.2L168.9,139.8z"/>
	<path style="fill:#ACB3BA;" d="M174.4,149.9h-1.6l-2.3-6.6h1.4l1.6,5l1.6-5h1.4l1.6,5l1.6-5h1.4l-2.3,6.6h-1.6l-1.6-4.5
		L174.4,149.9z"/>
	<path style="fill:#ACB3BA;" d="M185.8,149.9h-1.6l-2.3-6.6h1.4l1.6,5l1.6-5h1.4l1.6,5l1.6-5h1.4l-2.3,6.6h-1.6l-1.6-4.5
		L185.8,149.9z"/>
	<path style="fill:#ACB3BA;" d="M197.2,149.9h-1.6l-2.3-6.6h1.4l1.6,5l1.6-5h1.4l1.6,5l1.6-5h1.4l-2.3,6.6H200l-1.6-4.5L197.2,149.9
		z"/>
	<path style="fill:#ACB3BA;" d="M205.2,149.8c-0.2-0.2-0.3-0.4-0.3-0.7s0.1-0.5,0.3-0.7s0.4-0.3,0.7-0.3s0.5,0.1,0.7,0.3
		s0.3,0.4,0.3,0.7s-0.1,0.5-0.3,0.7s-0.4,0.3-0.7,0.3C205.6,150,205.3,149.9,205.2,149.8z"/>
	<path style="fill:#ACB3BA;" d="M211.3,149.9h-1.6l-2.3-6.6h1.4l1.6,5l1.6-5h1.4l1.6,5l1.6-5h1.4l-2.3,6.6h-1.6l-1.6-4.5
		L211.3,149.9z"/>
	<path style="fill:#ACB3BA;" d="M225.8,147.2h-5.2c0,0.5,0.3,0.9,0.7,1.2s0.9,0.4,1.4,0.4c0.8,0,1.5-0.3,1.9-0.8l0.8,0.9
		c-0.7,0.7-1.6,1.1-2.8,1.1c-0.9,0-1.7-0.3-2.4-0.9c-0.7-0.6-1-1.5-1-2.5s0.3-1.9,1-2.5s1.4-0.9,2.4-0.9c0.9,0,1.7,0.3,2.3,0.8
		s0.9,1.3,0.9,2.3L225.8,147.2L225.8,147.2z M220.6,146.1h3.8c0-0.6-0.2-1-0.5-1.3s-0.8-0.4-1.3-0.4s-1,0.2-1.4,0.5
		C220.8,145.2,220.6,145.6,220.6,146.1z"/>
	<path style="fill:#ACB3BA;" d="M230.9,143.2c0.9,0,1.7,0.3,2.3,0.9c0.6,0.6,0.9,1.4,0.9,2.5c0,1-0.3,1.9-0.9,2.5
		c-0.6,0.6-1.4,1-2.2,1s-1.6-0.4-2.3-1.1v1h-1.4v-9.3h1.4v3.8C229.2,143.6,230,143.2,230.9,143.2z M228.7,146.6
		c0,0.6,0.2,1.1,0.6,1.6c0.4,0.4,0.8,0.6,1.4,0.6c0.5,0,1-0.2,1.4-0.6c0.4-0.4,0.6-0.9,0.6-1.6c0-0.6-0.2-1.2-0.6-1.6
		c-0.4-0.4-0.9-0.6-1.4-0.6s-1,0.2-1.4,0.6C228.9,145.5,228.7,146,228.7,146.6z"/>
	<path style="fill:#ACB3BA;" d="M235.8,149.8c-0.2-0.2-0.3-0.4-0.3-0.7s0.1-0.5,0.3-0.7s0.4-0.3,0.7-0.3s0.5,0.1,0.7,0.3
		s0.3,0.4,0.3,0.7s-0.1,0.5-0.3,0.7s-0.4,0.3-0.7,0.3C236.2,150,235.9,149.9,235.8,149.8z"/>
	<path style="fill:#ACB3BA;" d="M242.1,150c-0.9,0-1.7-0.3-2.4-0.9c-0.7-0.6-1-1.4-1-2.5c0-1,0.3-1.8,1-2.5s1.5-1,2.5-1
		s1.8,0.3,2.5,1l-0.8,1c-0.6-0.5-1.2-0.7-1.7-0.7c-0.6,0-1.1,0.2-1.5,0.6c-0.4,0.4-0.6,0.9-0.6,1.5s0.2,1.1,0.6,1.6
		c0.4,0.4,0.9,0.6,1.6,0.6c0.6,0,1.2-0.3,1.8-0.8l0.8,0.9C244.1,149.6,243.2,150,242.1,150z"/>
	<path style="fill:#ACB3BA;" d="M251.8,149c-0.7,0.7-1.5,1-2.5,1s-1.8-0.3-2.5-1s-1-1.5-1-2.4s0.3-1.8,1-2.4c0.7-0.7,1.5-1,2.5-1
		s1.8,0.3,2.5,1s1,1.5,1,2.4S252.4,148.4,251.8,149z M247.8,148.2c0.4,0.4,0.9,0.6,1.5,0.6s1.1-0.2,1.5-0.6c0.4-0.4,0.6-0.9,0.6-1.6
		c0-0.6-0.2-1.2-0.6-1.6c-0.4-0.4-0.9-0.6-1.5-0.6s-1.1,0.2-1.5,0.6c-0.4,0.4-0.6,0.9-0.6,1.6C247.2,147.2,247.4,147.8,247.8,148.2z
		"/>
	<path style="fill:#ACB3BA;" d="M255.7,146.3v3.6h-1.4v-6.6h1.4v1.2c0.2-0.4,0.5-0.7,0.9-1c0.4-0.2,0.8-0.3,1.3-0.3
		c1,0,1.8,0.4,2.1,1.3c0.7-0.9,1.5-1.3,2.5-1.3c0.7,0,1.4,0.2,1.8,0.7c0.5,0.5,0.7,1.1,0.7,2v4.1h-1.4v-3.6c0-1.2-0.5-1.8-1.5-1.8
		c-0.5,0-0.9,0.2-1.2,0.5c-0.4,0.3-0.5,0.7-0.6,1.3v3.7h-1.4v-3.6c0-0.6-0.1-1.1-0.3-1.4c-0.2-0.3-0.6-0.4-1.1-0.4s-0.9,0.2-1.3,0.5
		C255.9,145.3,255.7,145.7,255.7,146.3z"/>
</g>
<g>
</g>
<g>
</g>
<g>
</g>
<g>
</g>
<g>
</g>
<g>
</g>
<g>
</g>
<g>
</g>
<g>
</g>
<g>
</g>
<g>
</g>
<g>
</g>
<g>
</g>
<g>
</g>
<g>
</g>
</svg>
