<?xml version="1.0" encoding="iso-8859-1"?>
<!-- Generator: Adobe Illustrator 19.0.0, SVG Export Plug-In . SVG Version: 6.00 Build 0)  -->
<svg version="1.1" id="Layer_1" xmlns="http://www.w3.org/2000/svg" xmlns:xlink="http://www.w3.org/1999/xlink" x="0px" y="0px"
	 viewBox="0 0 508 508" style="enable-background:new 0 0 508 508;" xml:space="preserve">
<path style="fill:#FFD05B;" d="M508,254c0,70.6-28.8,134.5-75.3,180.5C386.8,479.9,323.7,508,254,508s-132.8-28-178.7-73.5
	C28.8,388.5,0,324.6,0,254C0,113.7,113.7,0,254,0S508,113.7,508,254z"/>
<g>
	<path style="fill:#FFFFFF;" d="M150.3,243.6c3.3-4.7,5-9.2,5-13.5c0-4.4-1.4-8-4.3-10.9c-2.9-2.9-6.5-4.4-11-4.4
		c-8.2,0-16,5.9-23.4,17.6l-23.4-13.8c6.1-9.5,12.8-16.6,20.1-21.5c7.3-4.9,16.6-7.3,27.8-7.3c11.3,0,21.2,3.6,29.7,10.7
		c8.5,7.2,12.8,16.9,12.8,29.2c0,6.7-1.7,13.2-5.1,19.3c-3.4,6.2-9.7,14-19,23.6L136,297.2h51.6v26.2H95.5v-21.7l38.3-39.2
		C141.5,254.6,147,248.3,150.3,243.6z"/>
	<path style="fill:#FFFFFF;" d="M256.9,266.9v-22.8h28v22.8h14.8v25.2h-14.8v31.2h-28v-31.2h-52.5v-22.2l46.5-77.2h31.8l-44.3,74.2
		H256.9z"/>
	<path style="fill:#FFFFFF;" d="M348.8,269.1v54.2h-28V184.7h28V234c8.5-8.6,18-12.9,28.5-12.9s19.4,3.7,26.6,11.2
		s10.8,17.4,10.8,29.9v61.1h-28v-54.9c0-15.4-5.7-23.2-17-23.2c-5.6,0-10.5,2-14.7,6.1C350.9,255.3,348.8,261.3,348.8,269.1z"/>
</g>
<g>
	<path style="fill:#FF7058;" d="M372.6,136l-21.7-70.3l-9.8,18.5c-74.5-20.8-149.9-5.6-205.7,34.3c63.5-21.5,128.4-12.1,178,18.1
		l-11.1,21.1L372.6,136z"/>
	<path style="fill:#FF7058;" d="M135.4,372l21.7,70.3l9.8-18.5c74.5,20.8,149.9,5.6,205.7-34.3c-63.5,21.5-128.4,12.1-178-18.1
		l11.1-21.1L135.4,372z"/>
</g>
<g>
</g>
<g>
</g>
<g>
</g>
<g>
</g>
<g>
</g>
<g>
</g>
<g>
</g>
<g>
</g>
<g>
</g>
<g>
</g>
<g>
</g>
<g>
</g>
<g>
</g>
<g>
</g>
<g>
</g>
</svg>
