<?xml version="1.0" encoding="iso-8859-1"?>
<!-- Generator: Adobe Illustrator 19.0.0, SVG Export Plug-In . SVG Version: 6.00 Build 0)  -->
<svg version="1.1" id="Layer_1" xmlns="http://www.w3.org/2000/svg" xmlns:xlink="http://www.w3.org/1999/xlink" x="0px" y="0px"
	 viewBox="0 0 508 508" style="enable-background:new 0 0 508 508;" xml:space="preserve">
<circle style="fill:#F1543F;" cx="254" cy="254" r="254"/>
<g>
	<path style="fill:#FFFFFF;" d="M391.4,186.5l30.6-12.7c-7.9-16.3-17.9-31.3-29.9-44.6l-23.4,23.4
		C377.7,162.8,385.4,174.2,391.4,186.5z"/>
	<path style="fill:#FFFFFF;" d="M407.6,246.3h33.1c-1-18.4-4.6-36.1-10.4-52.7l-30.6,12.7C404,218.9,406.7,232.4,407.6,246.3z"/>
	<path style="fill:#FFFFFF;" d="M377,114.1c-13.3-11.9-28.3-22-44.6-29.9l-12.7,30.6c12.3,6.1,23.7,13.8,33.9,22.7L377,114.1z"/>
	<path style="fill:#FFFFFF;" d="M399.6,307.7l30.6,12.7c5.9-16.6,9.5-34.3,10.4-52.7h-33.1C406.7,281.6,404,295,399.6,307.7z"/>
	<path style="fill:#FFFFFF;" d="M249.3,415.7c-87.5,0-158.7-71.2-158.7-158.7c0-86.7,70-157.4,156.4-158.6v20.3l47.9-37.3L247,44
		v21.3C142.3,66.5,57.5,152,57.5,257c0,105.7,86,191.7,191.8,191.7c76,0,141.7-44.4,172.8-108.6l-30.6-12.7
		C365.5,379.7,311.5,415.7,249.3,415.7z"/>
</g>
<g>
	<path style="fill:#FFD05B;" d="M177.6,239.3c2.2-3.2,3.4-6.2,3.4-9.2s-1-5.4-2.9-7.4s-4.4-3-7.5-3c-5.6,0-10.9,4-15.8,11.9
		l-15.8-9.4c4.1-6.4,8.7-11.3,13.6-14.6c4.9-3.3,11.2-4.9,18.9-4.9s14.4,2.4,20.2,7.3c5.8,4.9,8.7,11.5,8.7,19.8
		c0,4.6-1.2,8.9-3.5,13.1c-2.3,4.2-6.6,9.5-12.9,16l-16,16.6h35v17.7h-62.5v-14.7l26-26.6C171.7,246.7,175.4,242.4,177.6,239.3z"/>
	<path style="fill:#FFD05B;" d="M250,255.1v-15.5h19v15.5h10v17.1h-10v21.2h-19v-21.2h-35.6v-15.1l31.6-52.4h21.6l-30,50.3H250
		V255.1z"/>
	<path style="fill:#FFD05B;" d="M312.3,256.6v36.8h-19v-94.1h19v33.5c5.7-5.8,12.2-8.7,19.3-8.7c7.1,0,13.2,2.5,18.1,7.6
		s7.4,11.8,7.4,20.3v41.5h-19v-37.3c0-10.5-3.8-15.7-11.5-15.7c-3.8,0-7.1,1.4-9.9,4.1C313.7,247.2,312.3,251.3,312.3,256.6z"/>
</g>
<g>
</g>
<g>
</g>
<g>
</g>
<g>
</g>
<g>
</g>
<g>
</g>
<g>
</g>
<g>
</g>
<g>
</g>
<g>
</g>
<g>
</g>
<g>
</g>
<g>
</g>
<g>
</g>
<g>
</g>
</svg>
