<?xml version="1.0" encoding="iso-8859-1"?>
<!-- Generator: Adobe Illustrator 19.0.0, SVG Export Plug-In . SVG Version: 6.00 Build 0)  -->
<svg version="1.1" id="Layer_1" xmlns="http://www.w3.org/2000/svg" xmlns:xlink="http://www.w3.org/1999/xlink" x="0px" y="0px"
	 viewBox="0 0 508 508" style="enable-background:new 0 0 508 508;" xml:space="preserve">
<circle style="fill:#FFD05B;" cx="254" cy="254" r="254"/>
<circle style="fill:#54C0EB;" cx="254" cy="254" r="178.6"/>
<g>
	<path style="fill:#FFFFFF;" d="M432.6,254c0,67.5-37.5,126.3-92.8,156.7v-0.1c1.2-12.3,4.1-24.5,8.6-36c0.6-1.6,1.3-3.4,0.7-5
		c-0.5-1.3-1.7-2.1-2.7-2.9c-9.9-8-11.4-22.2-14.3-34.6c-0.4-1.9-1-4-2.5-5.3c-1-0.9-2.4-1.4-3.7-1.8c-7.1-2.1-14.6-2.7-21.7-4.9
		c-7.1-2.2-14.1-6.6-16.7-13.6c-3.4-9.3,2-19.2,3.9-28.9c0.8-4.1,0.9-8.3,0.4-12.5c-0.3-2.4-0.7-5,0.6-7.1c0.8-1.2,2.2-2,3.4-2.7
		c12.8-7.1,26.1-14.3,40.7-15.9c4.6-0.5,9.5-0.3,13.2,2.5c2.7,2.1,4.3,5.3,7,7.1c3,2,6.8,2.2,10.4,2.2c11.3-0.1,22.6-1.5,33.5-4.3
		c2.2-0.6,4.7-1.4,5.8-3.3c2-3.4-1.2-7.6-4.4-9.8c-7.2-5-16.2-7.3-24.9-6.5c-1.9,0.2-3.9,0.5-5.6-0.4c-1.4-0.8-2.2-2.3-3.1-3.7
		c-4.3-6.7-11.9-11.5-19.9-11.2s-15.7,6.4-16.7,14.3c-0.6,4.7,0.1,11.1-4.4,12.7c-1.5,0.5-3.1,0.3-4.6,0c-5.2-1-10.6-2.3-14.6-5.7
		c-4-3.5-6.1-9.8-3.3-14.3c7.4-1.6,14.6-3.8,21.6-6.7c-2.1-3.2-4.2-6.3-6.3-9.5c-0.8-1.2-1.6-2.4-1.5-3.8c0.4-4.9,9.2-3,11.8-7.1
		c1.1-1.7,0.7-4.1,2-5.6c1-1.1,2.6-1.4,4-1.6c7.6-1.2,15.3-2.3,22.9-3.5c5.5-0.8,11.7-2.2,14.1-7.2c0.8-1.6,1-3.4,1.9-5
		c2.9-5.6,11.4-5.8,15.3-10.8c-5,1.8-10.6,2.1-15.7,0.8c2-4.2,4-8.7,3.3-13.3s-5.4-8.8-9.8-7.2c-4.5,1.7-5.2,7.6-5.1,12.4
		c0.1,4.4,0.1,8.9,0.2,13.4c0,2.1,0,4.4-1.3,6.1c-2.8,3.6-8.5,1.5-12.3-0.8c-1.1,3.8-6.8,3.5-9.8,1.1c-6.4-5.1-6.6-16.3-0.3-21.6
		c2.1-1.8,5-3.3,5.5-6.1c0.4-2.1-0.8-4.6,0.4-6.3c0.8-1.2,2.4-1.5,3.8-1.8c8.8-2.2,15.4-10.4,17-19.2
		C406.8,148.1,432.6,198,432.6,254z"/>
	<path style="fill:#FFFFFF;" d="M280.7,107.9c-2.1,3.1-4.9,5.7-6.5,9.1c-1.2,2.6-1.8,5.5-3.2,8c-5.5,9.3-22,9.6-24,20.2
		c-0.4,2.4,0,5-1.1,7.2c-1.3,2.6-4.5,3.7-7.3,3.4c-8.1-1-11.5-11-11.3-19.1s2.2-16.9-1.7-24c-3.7-6.5-11.3-9.5-17.6-13.5
		c-5.2-3.3-10.2-9-10.1-14.8c17.7-5.9,36.7-9.1,56.3-9.1c11.1,0,22,1,32.5,2.9C287.1,88.8,286.5,99.5,280.7,107.9z"/>
	<path style="fill:#FFFFFF;" d="M211.2,182.5c-1,3.8-4.1,7.4-8.1,7.4c-2.6,0.1-5.7-1.3-7.6,0.5c-1.6,1.5-1.2,3.9-1.1,6.1
		c0.3,5.3-2,10.6-6,14c-2.2,1.9-4.9,3.2-6.8,5.3c-2.6,2.7-3.8,6.4-5.4,9.8c-7.7,16-25.2,24.5-42,30.3c-5.3,1.8-11.3,4.1-13.4,9.3
		c-1.7,4.2,0.1,9.4,3.9,11.7c3.8,2.3,9.3,1.5,12.2-1.9c0.5,5.2,1.2,10.8,4.5,14.9c2,2.5,4.9,4.2,7.2,6.4c2.3,2.2,4.1,5.6,3.1,8.6
		c-3.3,2.6-8.7,1.9-11.3-1.4c-2.2-2.8-2.3-6.9-4.6-9.7c-4.2-5.2-12.3-3-19-3.6c-11.1-0.9-20.2-12.1-18.8-23.2
		c0.2-1.8,0.6-3.8-0.4-5.3c-0.8-1.2-2.3-1.7-3.6-2.2c-4.3-1.8-7.8-5.2-9.8-9.4c-1.1-2.2-1.7-4.7-3.4-6.6c-1.3-1.4-3-2.2-4.8-2.9
		c5-69.8,50.5-128.5,113-153c0.4,4.6-0.4,9.2-4.3,11.2c-1.1,0.6-2.4,0.8-3.3,1.7c-1.7,1.5-1.5,4.4-0.2,6.3s3.4,3.1,5.3,4.3
		c10.6,6.6,19.7,17.6,19.2,30c-0.2,3.8-1.6,8-5.1,9.4c-2.7,1.1-5.7,0.3-8.4-0.7c-4.1-1.5-8.6-4-9.3-8.3c-0.4-2.7,0.8-5.4,0.9-8.1
		c0.1-2.7-1.7-6.1-4.4-5.5c-2.1,0.4-3,2.9-3,5.1c0,2.1,0.6,4.3,0.1,6.4c-0.8,3.1-3.8,4.9-6.6,6.5c-2.9,1.6-5.8,3.2-8.7,4.8
		c-4.1,2.3-8.4,4.7-10.8,8.6c-2.5,4-2.4,9.9,1.4,12.7c2,1.4,4.6,1.7,6.5,3.2c3,2.4,3.4,6.7,4.8,10.2c1.5,3.5,6.3,6.5,8.8,3.6
		c0.7-0.8,1-1.9,1.2-3c0.9-4.9,0.2-10,0.4-15s1.5-10.4,5.3-13.6c3.8-3.3,10.7-3.1,13,1.4c0.5,0.9,0.8,1.9,1.4,2.7
		c3,4,9.9-0.1,14.1,2.6c2.2,1.4,2.9,4.3,3.3,6.9C211.4,174.7,212.1,178.7,211.2,182.5z"/>
	<path style="fill:#FFFFFF;" d="M243.4,358c-3.5,4.3-3.3,10.3-4.7,15.6c-3.7,13.7-18,21.4-26.5,32.7c-2,2.6-3.8,5.6-6.5,7.4
		c-2.6,1.7-5.8,2.4-8.1,4.5c-1.2,1.2-2.1,2.7-2.7,4.2c-7.1-2.5-14.1-5.4-20.7-8.8c0-3.4,0.2-6.7,0.6-10c1.2-9.4,4.1-19.2,0.6-28
		c-3.3-8.1-11.2-13.2-17-19.8c-4.6-5.2-7.8-11.6-9.4-18.4c-0.7-3.1-1-6.6,0.7-9.2c1.2-1.8,3.2-2.9,4.4-4.7c3-4.5,0.2-11.2,3.2-15.7
		c1.5-2.3,4.3-3.5,6.9-4.3c18.7-5.9,40.7,1.3,52.5,17c1.3,1.7,2.4,3.5,4.2,4.6c4.5,2.9,11.8,0.8,15,5.2c1.2,1.6,1.4,3.7,2.4,5.4
		c3.2,5.2,12.7,5.4,13.3,11.4C252,351.8,246.4,354.3,243.4,358z"/>
</g>
<g>
	<path style="fill:#E6E9EE;" d="M355.6,233c-0.6,16.5-6.4,29.3-13.4,29.3s-12.7-12.9-13.4-29.3c4-1.2,8.6-1.8,13.4-1.8
		C347,231.1,351.6,231.8,355.6,233z"/>
	<path style="fill:#E6E9EE;" d="M179.1,233c-0.6,16.5-6.4,29.3-13.4,29.3S153,249.4,152.3,233c4-1.2,8.6-1.8,13.4-1.8
		C170.6,231.1,175.1,231.8,179.1,233z"/>
</g>
<g>
	<polygon style="fill:#2B3B4E;" points="259.5,182 261.7,262.5 383.9,280.3 383.9,263.6 	"/>
	<polygon style="fill:#2B3B4E;" points="248.5,182 246.3,262.5 124.1,280.3 124.1,263.6 	"/>
	<polygon style="fill:#2B3B4E;" points="256.6,322.7 257.6,360.4 314.9,368.8 314.9,361 	"/>
	<polygon style="fill:#2B3B4E;" points="251.4,322.7 250.4,360.4 193.1,368.8 193.1,361 	"/>
</g>
<path style="fill:#324A5E;" d="M279.9,202.4c0,71.4-11.6,180.9-25.9,180.9s-25.9-109.5-25.9-180.9s25.9-77.7,25.9-77.7
	S279.9,131,279.9,202.4z"/>
<path style="fill:#E6E9EE;" d="M271.9,172.4c-5.1-2.4-11.3-3.9-17.9-3.9c-6.7,0-12.8,1.4-17.9,3.9c2.6-8.3,9.7-14.3,17.9-14.3
	C262.3,158.1,269.3,164.1,271.9,172.4z"/>
<g>
</g>
<g>
</g>
<g>
</g>
<g>
</g>
<g>
</g>
<g>
</g>
<g>
</g>
<g>
</g>
<g>
</g>
<g>
</g>
<g>
</g>
<g>
</g>
<g>
</g>
<g>
</g>
<g>
</g>
</svg>
