<?xml version="1.0" encoding="iso-8859-1"?>
<!-- Generator: Adobe Illustrator 19.0.0, SVG Export Plug-In . SVG Version: 6.00 Build 0)  -->
<svg version="1.1" id="Layer_1" xmlns="http://www.w3.org/2000/svg" xmlns:xlink="http://www.w3.org/1999/xlink" x="0px" y="0px"
	 viewBox="0 0 508 508" style="enable-background:new 0 0 508 508;" xml:space="preserve">
<circle style="fill:#90DFAA;" cx="254" cy="254" r="254"/>
<path style="fill:#FFFFFF;" d="M368,321.4l10.7,7.6c-21.9,19.6-49.4,34-80,41.2c-15.2,3.6-29.4-10.9-29.9-30.8l-3.7-162.2h54.1
	c3.7,0,6.7-3,6.7-6.7v-0.9c0-3.7-3-6.7-6.7-6.7h-54.5L264,131c15.3-4.4,26.5-18.5,26.5-35.2c0-20.3-16.4-36.7-36.7-36.7
	s-36.7,16.4-36.7,36.7c0,16.7,11.2,30.8,26.5,35.2l-0.7,31.9h-54.5c-3.7,0-6.7,3-6.7,6.7v0.9c0,3.7,3,6.7,6.7,6.7h54.1l-3.7,162.2
	c-0.5,19.9-14.6,34.3-29.9,30.8c-30.5-7.2-57.9-21.6-79.8-41.1l10.9-7.8l-29.9-15.5l5.5,40.8l8.9-13c17,42.5,49.4,75.1,89,88.5
	c14,4.7,27,13.1,38.3,24.6l2,2.1l2-2.1c11.3-11.5,24.4-19.9,38.3-24.6c39.7-13.4,72.2-46.2,89.2-88.9l9.1,13.4l5.5-40.8L368,321.4z
	 M229.7,95.9c0-13.3,10.8-24.1,24.1-24.1s24.1,10.8,24.1,24.1S267.1,120,253.8,120S229.7,109.2,229.7,95.9z"/>
<g>
</g>
<g>
</g>
<g>
</g>
<g>
</g>
<g>
</g>
<g>
</g>
<g>
</g>
<g>
</g>
<g>
</g>
<g>
</g>
<g>
</g>
<g>
</g>
<g>
</g>
<g>
</g>
<g>
</g>
</svg>
