<?xml version="1.0" encoding="iso-8859-1"?>
<!-- Generator: Adobe Illustrator 19.0.0, SVG Export Plug-In . SVG Version: 6.00 Build 0)  -->
<svg version="1.1" id="Layer_1" xmlns="http://www.w3.org/2000/svg" xmlns:xlink="http://www.w3.org/1999/xlink" x="0px" y="0px"
	 viewBox="0 0 508 508" style="enable-background:new 0 0 508 508;" xml:space="preserve">
<circle style="fill:#324A5E;" cx="254" cy="254" r="254"/>
<polygon style="fill:#F9B54C;" points="253.5,290.6 253.5,178.6 174.1,208.4 174.1,320.5 "/>
<polygon style="fill:#FFD05B;" points="333,208.4 333,320.5 253.5,290.6 253.5,178.6 "/>
<polygon style="fill:#F9B54C;" points="253.5,238.4 253.5,350.5 333,320.6 333,208.6 "/>
<polygon style="fill:#FFD05B;" points="174.1,320.6 174.1,208.6 253.5,238.4 253.5,350.5 "/>
<g>
	<polygon style="fill:#FFFFFF;" points="253.5,238.4 284,259.2 363.5,229.4 333,208.6 	"/>
	<polygon style="fill:#FFFFFF;" points="143.6,229.4 174.1,208.6 253.5,238.4 223.1,259.2 	"/>
	<polygon style="fill:#FFFFFF;" points="253.5,178.6 284,157.8 363.5,187.6 333,208.4 	"/>
	<polygon style="fill:#FFFFFF;" points="143.6,187.6 174.1,208.4 253.5,178.6 223.1,157.8 	"/>
</g>
<polygon style="fill:#FF7058;" points="284.1,91.3 249,56.2 213.8,91.3 234.8,91.3 234.8,130.8 263.1,130.8 263.1,91.3 "/>
<polygon style="fill:#4CDBC4;" points="213.8,413.4 249,448.5 284.1,413.4 263.1,413.4 263.1,373.9 234.8,373.9 234.8,413.4 "/>
<polygon style="fill:#54C0EB;" points="410,287.5 445.1,252.4 410,217.2 410,238.2 370.5,238.2 370.5,266.5 410,266.5 "/>
<polygon style="fill:#E6E9EE;" points="87.9,217.2 52.8,252.4 87.9,287.5 87.9,266.5 127.4,266.5 127.4,238.2 87.9,238.2 "/>
<g>
</g>
<g>
</g>
<g>
</g>
<g>
</g>
<g>
</g>
<g>
</g>
<g>
</g>
<g>
</g>
<g>
</g>
<g>
</g>
<g>
</g>
<g>
</g>
<g>
</g>
<g>
</g>
<g>
</g>
</svg>
