<?xml version="1.0" encoding="iso-8859-1"?>
<!-- Generator: Adobe Illustrator 19.0.0, SVG Export Plug-In . SVG Version: 6.00 Build 0)  -->
<svg version="1.1" id="Layer_1" xmlns="http://www.w3.org/2000/svg" xmlns:xlink="http://www.w3.org/1999/xlink" x="0px" y="0px"
	 viewBox="0 0 508 508" style="enable-background:new 0 0 508 508;" xml:space="preserve">
<circle style="fill:#324A5E;" cx="254" cy="254" r="254"/>
<path style="fill:#FFD05B;" d="M396.5,362.9H144.9c-2.6,0-4.6-2.1-4.6-4.6V100.8c0-2.6,2.1-4.6,4.6-4.6h251.6c2.6,0,4.6,2.1,4.6,4.6
	v257.4C401.2,360.8,399.1,362.9,396.5,362.9z"/>
<rect x="235.2" y="96.2" style="fill:#E6E9EE;" width="71.1" height="27.8"/>
<rect x="268.7" y="96.2" style="fill:#CED5E0;" width="4.1" height="27.8"/>
<path style="fill:#F9B54C;" d="M313.8,186.4h-86.2c-7.9,0-14.4-6.4-14.4-14.4l0,0c0-7.9,6.4-14.4,14.4-14.4h86.2
	c7.9,0,14.4,6.4,14.4,14.4l0,0C328.2,180,321.8,186.4,313.8,186.4z"/>
<polygon style="fill:#FF7058;" points="312.2,281.1 270.7,225.7 229.2,281.1 249.6,281.1 249.6,362.9 291.8,362.9 291.8,281.1 "/>
<g>
	<polygon style="fill:#FFFFFF;" points="116.4,120.8 116.4,116.1 91,116.1 91,120.8 101.4,120.8 101.4,338.3 91,338.3 91,343 
		116.4,343 116.4,338.3 106,338.3 106,120.8 	"/>
	<polygon style="fill:#FFFFFF;" points="379.5,386.3 379.5,396.7 161.9,396.7 161.9,386.3 157.2,386.3 157.2,411.8 161.9,411.8 
		161.9,401.4 379.5,401.4 379.5,411.8 384.2,411.8 384.2,386.3 	"/>
</g>
<g>
	<rect x="258" y="386.3" style="fill:#E6E9EE;" width="25.5" height="25.5"/>
	<rect x="91" y="216.8" style="fill:#E6E9EE;" width="25.5" height="25.5"/>
</g>
<g>
</g>
<g>
</g>
<g>
</g>
<g>
</g>
<g>
</g>
<g>
</g>
<g>
</g>
<g>
</g>
<g>
</g>
<g>
</g>
<g>
</g>
<g>
</g>
<g>
</g>
<g>
</g>
<g>
</g>
</svg>
