<?xml version="1.0" encoding="iso-8859-1"?>
<!-- Generator: Adobe Illustrator 19.0.0, SVG Export Plug-In . SVG Version: 6.00 Build 0)  -->
<svg version="1.1" id="Layer_1" xmlns="http://www.w3.org/2000/svg" xmlns:xlink="http://www.w3.org/1999/xlink" x="0px" y="0px"
	 viewBox="0 0 508 508" style="enable-background:new 0 0 508 508;" xml:space="preserve">
<circle style="fill:#FFD05B;" cx="254" cy="254" r="254"/>
<path style="fill:#FFFFFF;" d="M391.1,394.3H116.9c-1.8,0-3.2-1.4-3.2-3.2V116.9c0-1.8,1.4-3.2,3.2-3.2h274.2c1.8,0,3.2,1.4,3.2,3.2
	v274.2C394.3,392.9,392.9,394.3,391.1,394.3z"/>
<rect x="214.7" y="113.7" style="fill:#84DBFF;" width="78.5" height="30.8"/>
<path style="fill:#E6E9EE;" d="M297.8,196.9h-87.6c-6.2,0-11.2-5-11.2-11.2l0,0c0-6.2,5-11.2,11.2-11.2h87.6c6.2,0,11.2,5,11.2,11.2
	l0,0C309,191.9,304,196.9,297.8,196.9z"/>
<path style="fill:#324A5E;" d="M303.9,356.4h-20.3v-62.7c0-16.3-13.2-29.5-29.5-29.5s-29.5,13.2-29.5,29.5v62.7h-20.3v-62.7
	c0-27.5,22.4-49.9,49.9-49.9s49.9,22.4,49.9,49.9v62.7H303.9z"/>
<circle style="fill:#FF7058;" cx="254" cy="396.6" r="74.9"/>
<circle style="fill:#FFFFFF;" cx="254" cy="396.6" r="57.5"/>
<circle style="fill:#FF7058;" cx="254" cy="396.6" r="50.9"/>
<path style="fill:#324A5E;" d="M247.8,398.8l-2,18.8h16.4l-2-18.8c3.8-2.2,6.3-6.2,6.3-10.8c0-6.9-5.6-12.5-12.5-12.5
	s-12.5,5.6-12.5,12.5C241.5,392.7,244,396.7,247.8,398.8z"/>
<g>
</g>
<g>
</g>
<g>
</g>
<g>
</g>
<g>
</g>
<g>
</g>
<g>
</g>
<g>
</g>
<g>
</g>
<g>
</g>
<g>
</g>
<g>
</g>
<g>
</g>
<g>
</g>
<g>
</g>
</svg>
