<?xml version="1.0" encoding="iso-8859-1"?>
<!-- Generator: Adobe Illustrator 19.0.0, SVG Export Plug-In . SVG Version: 6.00 Build 0)  -->
<svg version="1.1" id="Layer_1" xmlns="http://www.w3.org/2000/svg" xmlns:xlink="http://www.w3.org/1999/xlink" x="0px" y="0px"
	 viewBox="0 0 508 508" style="enable-background:new 0 0 508 508;" xml:space="preserve">
<path style="fill:#FF7058;" d="M508,254c0,140.3-113.7,254-254,254S0,394.3,0,254S113.7,0,254,0c110.8,0,204.9,70.9,239.7,169.7
	c7.5,21.2,12.2,43.6,13.7,66.9C507.8,242.4,508,248.2,508,254z"/>
<polygon style="fill:#2B3B4E;" points="115.6,191.1 254,135.5 254,339 115.6,394.5 "/>
<polygon style="fill:#324A5E;" points="392.4,191.1 254,135.5 254,339 392.4,394.5 "/>
<polygon style="fill:#CED5E0;" points="392.4,394.6 254,450.2 254,246.8 392.4,191.2 "/>
<g>
	<polygon style="fill:#E6E9EE;" points="115.6,394.6 254,450.2 254,246.8 115.6,191.2 	"/>
	<polygon style="fill:#E6E9EE;" points="427.9,237.2 289.5,292.8 254,246.8 392.4,191.2 	"/>
</g>
<g>
	<polygon style="fill:#CED5E0;" points="80.1,237.2 218.5,292.8 254,246.8 115.6,191.2 	"/>
	<polygon style="fill:#CED5E0;" points="427.9,145.1 289.5,89.6 254,135.6 392.4,191.2 	"/>
</g>
<polygon style="fill:#E6E9EE;" points="80.1,145.1 218.5,89.6 254,135.6 115.6,191.2 "/>
<polygon style="fill:#54C0EB;" points="282.9,139.2 282.9,65.6 225.1,65.6 225.1,139.2 193.2,139.2 254,205.5 314.8,139.2 "/>
<g>
</g>
<g>
</g>
<g>
</g>
<g>
</g>
<g>
</g>
<g>
</g>
<g>
</g>
<g>
</g>
<g>
</g>
<g>
</g>
<g>
</g>
<g>
</g>
<g>
</g>
<g>
</g>
<g>
</g>
</svg>
