<?xml version="1.0" encoding="iso-8859-1"?>
<!-- Generator: Adobe Illustrator 19.0.0, SVG Export Plug-In . SVG Version: 6.00 Build 0)  -->
<svg version="1.1" id="Layer_1" xmlns="http://www.w3.org/2000/svg" xmlns:xlink="http://www.w3.org/1999/xlink" x="0px" y="0px"
	 viewBox="0 0 507.8 507.8" style="enable-background:new 0 0 507.8 507.8;" xml:space="preserve">
<circle style="fill:#324A5E;" cx="253.9" cy="253.9" r="253.9"/>
<path style="fill:#F9B54C;" d="M381.2,423.4H126.6c-2.3,0-4.2-1.9-4.2-4.2V184.5h263.1v234.7C385.5,421.5,383.6,423.4,381.2,423.4z"
	/>
<polygon style="fill:#FFD05B;" points="410.7,259.8 385.5,184.5 122.3,184.5 97.1,259.8 "/>
<g>
	<polygon style="fill:#FF7058;" points="323,128.6 323,60.6 295.9,60.6 295.9,128.6 267.8,128.6 309.5,170.2 351.1,128.6 	"/>
	<polygon style="fill:#FF7058;" points="211.9,128.6 211.9,60.6 184.8,60.6 184.8,128.6 156.7,128.6 198.3,170.2 240,128.6 	"/>
</g>
<g>
	<polygon style="fill:#FFFFFF;" points="152.6,354 152.6,389.9 161.9,389.9 161.9,354 171.6,354 157.2,332 142.9,354 	"/>
	<polygon style="fill:#FFFFFF;" points="188.2,354 188.2,389.9 197.5,389.9 197.5,354 207.2,354 192.8,332 178.5,354 	"/>
	<rect x="142.8" y="395.2" style="fill:#FFFFFF;" width="64.5" height="5.3"/>
</g>
<g>
</g>
<g>
</g>
<g>
</g>
<g>
</g>
<g>
</g>
<g>
</g>
<g>
</g>
<g>
</g>
<g>
</g>
<g>
</g>
<g>
</g>
<g>
</g>
<g>
</g>
<g>
</g>
<g>
</g>
</svg>
