<?xml version="1.0" encoding="iso-8859-1"?>
<!-- Generator: Adobe Illustrator 19.0.0, SVG Export Plug-In . SVG Version: 6.00 Build 0)  -->
<svg version="1.1" id="Layer_1" xmlns="http://www.w3.org/2000/svg" xmlns:xlink="http://www.w3.org/1999/xlink" x="0px" y="0px"
	 viewBox="0 0 508 508" style="enable-background:new 0 0 508 508;" xml:space="preserve">
<circle style="fill:#54C0EB;" cx="254" cy="254" r="254"/>
<path style="fill:#FFFFFF;" d="M318.9,170.4h-20v-51.8h-89.8v51.8h-20v-61.8c0-5.5,4.5-10,10-10h109.8c5.5,0,10,4.5,10,10V170.4z"/>
<path style="fill:#2B3B4E;" d="M84.2,182.7v182.4c0,8.3,6.8,15.2,15.2,15.2h309.1c8.4-0.1,15.2-6.9,15.2-15.2V182.7H84.2z"/>
<path style="fill:#324A5E;" d="M423.8,239.2c-110.9,32.2-228.6,32.2-339.5,0c0-29.6,0-45.9,0-75.5c0-8.3,6.8-15.2,15.2-15.2
	c103,0,206,0,309.1,0c8.4,0.1,15.2,6.9,15.2,15.2C423.8,193.2,423.8,209.5,423.8,239.2z"/>
<path style="fill:#E6E9EE;" d="M275.4,295.3h-42.8c-0.7,0-1.2-0.5-1.2-1.2v-51.9c0-0.7,0.5-1.2,1.2-1.2h42.8c0.7,0,1.2,0.5,1.2,1.2
	v51.9C276.6,294.8,276.1,295.3,275.4,295.3z"/>
<path style="fill:#ACB3BA;" d="M234.7,269v21.6c0,0.8,0.6,1.4,1.4,1.4h35.6c0.8,0,1.4-0.6,1.4-1.4V269H234.7z"/>
<g>
</g>
<g>
</g>
<g>
</g>
<g>
</g>
<g>
</g>
<g>
</g>
<g>
</g>
<g>
</g>
<g>
</g>
<g>
</g>
<g>
</g>
<g>
</g>
<g>
</g>
<g>
</g>
<g>
</g>
</svg>
