<?xml version="1.0" encoding="iso-8859-1"?>
<!-- Generator: Adobe Illustrator 19.0.0, SVG Export Plug-In . SVG Version: 6.00 Build 0)  -->
<svg version="1.1" id="Layer_1" xmlns="http://www.w3.org/2000/svg" xmlns:xlink="http://www.w3.org/1999/xlink" x="0px" y="0px"
	 viewBox="0 0 508 508" style="enable-background:new 0 0 508 508;" xml:space="preserve">
<circle style="fill:#90DFAA;" cx="254" cy="254" r="254"/>
<path style="fill:#2C9984;" d="M76,439.7C121.4,482,182.2,508,249.2,508s127.8-25.9,173.2-68.3H76z"/>
<g>
	<path style="fill:#324A5E;" d="M117.7,151.5c-1.3,0-2.4-1.1-2.4-2.4v-6.4c0-1.1,0.8-2.1,1.9-2.3l23.8-4.3c1.3-0.2,2.5,0.6,2.7,1.9
		c0.2,1.3-0.6,2.5-1.9,2.7l-21.8,3.9v4.4C120.1,150.4,119,151.5,117.7,151.5z"/>
	<path style="fill:#324A5E;" d="M135.4,229.2c-0.4,0-0.8-0.1-1.2-0.3l-11.4-6.9c-0.3-0.2-0.5-0.4-0.7-0.6l-8-10.8
		c-0.8-1-0.6-2.5,0.5-3.3c1-0.8,2.5-0.6,3.3,0.5l7.7,10.4l11,6.7c1.1,0.7,1.5,2.1,0.8,3.2C137,228.8,136.2,229.2,135.4,229.2z"/>
</g>
<path style="fill:#CED5E0;" d="M124.6,153.3v52.9c0,3.4-2.7,6.1-6.1,6.1h-9.1c-3.6,0-6.4-3-6.1-6.6l4.2-51.9c0.2-2.7,2.2-5,4.9-5.5
	l4.9-1C121.1,146.5,124.6,149.4,124.6,153.3z"/>
<g>
	<path style="fill:#324A5E;" d="M380.6,151.5c1.3,0,2.4-1.1,2.4-2.4v-6.4c0-1.1-0.8-2.1-1.9-2.3l-23.8-4.3c-1.3-0.2-2.5,0.6-2.7,1.9
		c-0.2,1.3,0.6,2.5,1.9,2.7l21.8,3.9v4.4C378.2,150.4,379.3,151.5,380.6,151.5z"/>
	<path style="fill:#324A5E;" d="M362.9,229.2c0.4,0,0.8-0.1,1.2-0.3l11.4-6.9c0.3-0.2,0.5-0.4,0.7-0.6l8-10.8c0.8-1,0.6-2.5-0.5-3.3
		c-1-0.8-2.5-0.6-3.3,0.5l-7.7,10.4l-11,6.7c-1.1,0.7-1.5,2.1-0.8,3.2C361.3,228.8,362.1,229.2,362.9,229.2z"/>
</g>
<path style="fill:#CED5E0;" d="M373.7,153.3v52.9c0,3.4,2.7,6.1,6.1,6.1h9.1c3.6,0,6.4-3,6.1-6.6l-4.2-51.9c-0.2-2.7-2.2-5-4.9-5.5
	l-4.9-1C377.2,146.5,373.7,149.4,373.7,153.3z"/>
<g>
	<path style="fill:#324A5E;" d="M363.4,409.9h-44.7v28.3c0,0.6,0.5,1.1,1.1,1.1h42.4c0.6,0,1.1-0.5,1.1-1.1v-28.3H363.4z"/>
	<path style="fill:#324A5E;" d="M187.5,409.9h-44.7v28.3c0,0.6,0.5,1.1,1.1,1.1h42.4c0.6,0,1.1-0.5,1.1-1.1v-28.3H187.5z"/>
</g>
<g>
	<path style="fill:#E6E9EE;" d="M360.3,125.4c-2.5-10-11.6-17.3-22.2-17.3h-178c-10.6,0-19.7,7.3-22.2,17.3l5.8-34
		c2.5-14.7,15.5-25.5,30.7-25.5h149.2c5.3,0,10.3,1.3,14.7,3.6c8.3,4.3,14.4,12.3,16,21.9L360.3,125.4z"/>
	<path style="fill:#E6E9EE;" d="M369.1,300.2c2.3,2.6,3.6,6,3.6,9.6v87.9c0,9.6-7.8,17.4-17.4,17.4H142.9c-9.6,0-17.4-7.8-17.4-17.4
		v-87.9c0-3.5,1.3-6.9,3.6-9.6l4.9-5.5c-4.8-2.7-7.9-8-7.5-13.9l4.3-60.7l4.5,2.5c6.8,3.8,11.7,10.4,13.3,18l18.7,86.1
		c2.6,12,12.2,21.1,24.3,23.2l57.4,9.7l57.4-9.7c12.1-2.1,21.7-11.2,24.3-23.2l18.7-86.1c1.7-7.6,6.5-14.2,13.3-18l4.5-2.5l4.3,60.7
		c0.4,5.9-2.7,11.2-7.4,13.9L369.1,300.2z"/>
</g>
<g>
	<path style="fill:#CED5E0;" d="M329.9,401.8l-5.4-20.4l22.6-5.3c6.8-1.6,13.6,2.9,14.7,9.8l2.3,14L329.9,401.8z"/>
	<path style="fill:#CED5E0;" d="M171,401.8l5.4-20.4l-22.6-5.3c-6.8-1.6-13.6,2.9-14.7,9.8l-2.3,14L171,401.8z"/>
	<path style="fill:#CED5E0;" d="M315.2,382.2c-2.2-7.7-9.3-13.1-17.3-13.1h-44.6h-6.4h-44.6c-8,0-15.1,5.3-17.3,13.1l-5.6,19.6h67.5
		h6.4h67.5L315.2,382.2z"/>
</g>
<path id="SVGCleanerId_0" style="fill:#CED5E0;" d="M367.4,220.1l-4.5,2.5c-6.8,3.8-11.7,10.4-13.3,18l-18.7,86.1
	c-2.6,12-12.2,21.1-24.3,23.2l-57.4,9.7l-57.4-9.7c-12.1-2.1-21.7-11.2-24.3-23.2l-18.7-86.1c-1.7-7.6-6.5-14.2-13.3-18l-4.5-2.5
	l0.2-3l6.1-85.6l0.1-2c0-0.2,0-0.4,0-0.6l0.6-3.4c2.5-10,11.6-17.3,22.2-17.3h178c10.6,0,19.7,7.3,22.2,17.3l0.6,3.4
	c0,0.2,0,0.4,0,0.6l0.1,2l6.1,85.6L367.4,220.1z"/>
<g>
	<path id="SVGCleanerId_0_1_" style="fill:#CED5E0;" d="M367.4,220.1l-4.5,2.5c-6.8,3.8-11.7,10.4-13.3,18l-18.7,86.1
		c-2.6,12-12.2,21.1-24.3,23.2l-57.4,9.7l-57.4-9.7c-12.1-2.1-21.7-11.2-24.3-23.2l-18.7-86.1c-1.7-7.6-6.5-14.2-13.3-18l-4.5-2.5
		l0.2-3l6.1-85.6l0.1-2c0-0.2,0-0.4,0-0.6l0.6-3.4c2.5-10,11.6-17.3,22.2-17.3h178c10.6,0,19.7,7.3,22.2,17.3l0.6,3.4
		c0,0.2,0,0.4,0,0.6l0.1,2l6.1,85.6L367.4,220.1z"/>
</g>
<path style="fill:#84DBFF;" d="M367.4,220.1l-4.5,2.5c-3.5,2-6.5,4.6-8.8,7.8H144.2c-2.3-3.2-5.3-5.8-8.8-7.8l-4.5-2.5l0.2-3
	l6.1-85.6h223.9l6.1,85.6L367.4,220.1z"/>
<path style="fill:#54C0EB;" d="M367.2,217l-6.1-85.6H271l-35.4,99H354c2.3-3.2,5.3-5.8,8.8-7.8l4.5-2.5L367.2,217z"/>
<path style="fill:#CED5E0;" d="M154.6,267.4l12.9,59.2c2.6,12,12.2,21.1,24.3,23.2l57.4,9.7l57.4-9.7c12.1-2,21.7-11.2,24.3-23.2
	l12.9-59.2H154.6z"/>
<g>
	<path style="fill:#ACB3BA;" d="M363.4,230.4c0,0-0.6,0.9-1.5,2.5s-2.2,3.9-3.1,6.9c-0.5,1.5-0.9,3.1-1.2,4.8
		c-0.1,0.9-0.3,1.7-0.3,2.7c-0.1,1-0.2,1.9-0.3,2.9c-0.2,2-0.4,4-0.7,6.1c-0.3,2.1-0.6,4.2-0.8,6.3c-0.3,2.1-0.6,4.2-0.9,6.3
		c-0.3,2.1-0.7,4.1-1,6.1l-0.1,0.7l-0.1,0.8l-0.1,0.7c-0.1,0.3-0.1,0.5-0.2,0.7c-0.2,1-0.5,1.9-0.8,2.8c-0.6,1.8-1.4,3.4-2.2,4.8
		c-0.8,1.4-1.7,2.7-2.5,3.7s-1.6,1.9-2.3,2.5c-0.7,0.7-1.2,1.1-1.6,1.4s-0.6,0.5-0.6,0.5s0.2-0.2,0.5-0.6s0.8-1,1.3-1.7
		c0.5-0.8,1.1-1.7,1.8-2.8c0.6-1.1,1.3-2.4,1.9-3.8s1.1-3,1.6-4.7c0.4-1.7,0.7-3.5,0.9-5.5c0.2-2,0.4-4,0.7-6.1
		c0.3-2.1,0.6-4.2,0.8-6.3c0.3-2.1,0.6-4.2,0.9-6.3c0.3-2.1,0.7-4.1,1-6.1c0.2-1,0.3-2,0.5-2.9s0.4-1.9,0.6-2.8
		c0.5-1.8,1.1-3.5,1.8-5c1.4-3,3-5.2,4.3-6.6c0.6-0.7,1.1-1.2,1.5-1.6C363.3,230.6,363.4,230.4,363.4,230.4z"/>
	<path style="fill:#ACB3BA;" d="M134.9,230.4c0,0,0.2,0.2,0.5,0.5c0.3,0.4,0.9,0.9,1.5,1.6c1.2,1.4,2.9,3.6,4.3,6.6
		c0.7,1.5,1.3,3.2,1.8,5c0.2,0.9,0.4,1.9,0.6,2.8c0.2,0.9,0.3,1.9,0.5,2.9c0.3,2,0.7,4,1,6.1c0.3,2.1,0.6,4.2,0.9,6.3
		c0.3,2.1,0.6,4.2,0.8,6.3c0.3,2.1,0.5,4.1,0.7,6.1s0.5,3.8,0.9,5.5s1,3.3,1.6,4.7c0.6,1.4,1.3,2.7,1.9,3.8c0.7,1.1,1.3,2,1.8,2.8
		c0.5,0.7,1,1.3,1.3,1.7c0.3,0.4,0.5,0.6,0.5,0.6s-0.2-0.2-0.6-0.5c-0.4-0.3-1-0.8-1.6-1.4c-0.7-0.7-1.5-1.5-2.3-2.5
		s-1.7-2.3-2.5-3.7c-0.8-1.4-1.6-3-2.2-4.8c-0.3-0.9-0.6-1.8-0.8-2.8c-0.1-0.2-0.1-0.5-0.2-0.7l-0.1-0.7l-0.1-0.8l-0.1-0.7
		c-0.3-2-0.7-4-1-6.1s-0.6-4.2-0.9-6.3c-0.3-2.1-0.6-4.2-0.8-6.3c-0.3-2.1-0.5-4.1-0.7-6.1c-0.1-1-0.2-2-0.3-2.9
		c-0.1-1-0.2-1.8-0.3-2.7c-0.3-1.7-0.7-3.4-1.2-4.8c-1-3-2.2-5.3-3.1-6.9C135.4,231.3,134.9,230.4,134.9,230.4z"/>
</g>
<g>
	<path style="fill:#324A5E;" d="M343.9,230.1l-33.4-29.9l-0.2-0.1c-0.4-0.4-1-0.6-1.6-0.6l-71.2-0.1c-0.6,0-1.2,0.5-1.2,1.1
		c0,0.7,0.5,1.2,1.1,1.2l70,2.8l28.9,33c0.1,0.1,0.3,0.3,0.4,0.5c2.2,1.9,5.5,1.7,7.4-0.4C346.2,235.4,346,232.1,343.9,230.1z"/>
	<path style="fill:#324A5E;" d="M251.6,230.1l-33.4-29.9l-0.2-0.1c-0.4-0.4-1-0.6-1.6-0.6l-71.2-0.1c-0.6,0-1.2,0.5-1.2,1.1
		c0,0.7,0.5,1.2,1.1,1.2l70,2.8l28.9,33c0.1,0.1,0.3,0.3,0.4,0.5c2.2,1.9,5.5,1.7,7.4-0.4C254,235.4,253.8,232.1,251.6,230.1z"/>
</g>
<g>
	<path style="fill:#ACB3BA;" d="M333.2,267.4h-168l6.6,7.1c7.1,7.7,16.6,12.1,25.6,12.1h103.5c9,0,18.5-4.4,25.6-12.1L333.2,267.4z"
		/>
	<path style="fill:#ACB3BA;" d="M326.7,293h-155l6,6c6.5,6.6,15.2,10.3,23.6,10.3h95.9c8.4,0,17.1-3.8,23.5-10.3L326.7,293z"/>
	<path style="fill:#ACB3BA;" d="M321.1,315H177.3l5.4,5.2c5.9,5.7,14,8.9,21.8,8.9h89.4c7.8,0,15.8-3.3,21.8-8.9L321.1,315z"/>
	<path style="fill:#ACB3BA;" d="M316.3,333.9H182.1l5,4.5c5.5,5,12.9,7.8,20.2,7.8H291c7.3,0,14.8-2.9,20.2-7.8L316.3,333.9z"/>
</g>
<path style="fill:#FFFFFF;" d="M134.2,313.4l4.3,33.1c1,8,6.7,14.6,14.4,16.9l25.8,7.7l3.4-14.9l-4.8-1.6
	c-9.3-3.1-16.1-11.3-17.3-21l-1.9-15.3L134.2,313.4z"/>
<g>
	<circle style="fill:#E6E9EE;" cx="153.6" cy="349.5" r="9.8"/>
	<circle style="fill:#E6E9EE;" cx="147.4" cy="332" r="6.7"/>
</g>
<path style="fill:#FFFFFF;" d="M367.6,311.4l-4.3,33.1c-1,8-6.7,14.6-14.4,16.9l-25.8,7.7l-3.4-14.9l4.8-1.6
	c9.3-3.1,16.1-11.3,17.3-21l1.9-15.3L367.6,311.4z"/>
<g>
	<circle style="fill:#E6E9EE;" cx="348.1" cy="347.4" r="9.8"/>
	<circle style="fill:#E6E9EE;" cx="354.3" cy="330" r="6.7"/>
</g>
<g>
</g>
<g>
</g>
<g>
</g>
<g>
</g>
<g>
</g>
<g>
</g>
<g>
</g>
<g>
</g>
<g>
</g>
<g>
</g>
<g>
</g>
<g>
</g>
<g>
</g>
<g>
</g>
<g>
</g>
</svg>
