<?xml version="1.0" encoding="iso-8859-1"?>
<!-- Generator: Adobe Illustrator 19.0.0, SVG Export Plug-In . SVG Version: 6.00 Build 0)  -->
<svg version="1.1" id="Layer_1" xmlns="http://www.w3.org/2000/svg" xmlns:xlink="http://www.w3.org/1999/xlink" x="0px" y="0px"
	 viewBox="0 0 508 508" style="enable-background:new 0 0 508 508;" xml:space="preserve">
<circle style="fill:#FFD05B;" cx="254" cy="254" r="254"/>
<path style="fill:#F9B54C;" d="M24.3,362.4C64.9,448.4,152.5,508,254,508s189.1-59.6,229.7-145.6H24.3z"/>
<path style="fill:#E6E9EE;" d="M255.8,259.5v-29.6c0-4.3-3.5-7.7-7.7-7.7h-44.4c-1.7,0-3.4,0.6-4.7,1.6l-46.4,35.7l-70.3,6.8
	c-16,1.6-28.2,15-28.2,31.1v16.4c0,8,6.4,14.5,14.4,14.6L256,331h179.3c10.5,0,18.9-8.5,18.9-18.9v-52.6H255.8z"/>
<path id="SVGCleanerId_0" style="fill:#84DBFF;" d="M249.8,262v-32.1c0-1-0.8-1.8-1.8-1.8h-44.4c-0.4,0-0.8,0.1-1.1,0.4L159,262
	H249.8z"/>
<g>
	<path id="SVGCleanerId_0_1_" style="fill:#84DBFF;" d="M249.8,262v-32.1c0-1-0.8-1.8-1.8-1.8h-44.4c-0.4,0-0.8,0.1-1.1,0.4L159,262
		H249.8z"/>
</g>
<path style="fill:#84DBFF;" d="M157,258.8c0.5,0,0.9-0.1,1.2-0.4l38.9-30.1c1.2-0.9,1-2.5-0.1-3.3l-43.7,33.8H157z"/>
<path style="fill:#54C0EB;" d="M248,228.1h-7.4L212.2,262h37.6v-32.1C249.8,228.9,249,228.1,248,228.1z"/>
<path style="fill:#2B3B4E;" d="M153.3,329.6c-0.7-21.1-18-38-39.3-38c-20.9,0-38,16.3-39.3,36.9L153.3,329.6z"/>
<circle style="fill:#324A5E;" cx="113.9" cy="331" r="30.5"/>
<circle style="fill:#E6E9EE;" cx="113.9" cy="331" r="19.5"/>
<path style="fill:#2B3B4E;" d="M371.2,291.6c-21.8,0-39.4,17.6-39.4,39.4h78.8C410.5,309.2,392.9,291.6,371.2,291.6z"/>
<circle style="fill:#324A5E;" cx="371.2" cy="331" r="30.5"/>
<circle style="fill:#E6E9EE;" cx="371.2" cy="331" r="19.5"/>
<path style="fill:#CED5E0;" d="M256.7,282.1c-0.1-4.2-0.2-8.1-0.3-11.5c-0.1-3.4-0.3-6.1-0.4-8.1s-0.2-3.1-0.2-3.1s-0.1,1.1-0.2,3.1
	s-0.3,4.7-0.4,8.1s-0.3,7.3-0.3,11.5c-0.1,4.2-0.1,8.7-0.1,13.1c0,4.5,0,8.9,0.1,13.1s0.2,8.1,0.3,11.5c0.1,3.4,0.3,6.1,0.4,8.1
	s0.2,3.1,0.2,3.1s0.1-1.1,0.2-3.1s0.3-4.7,0.4-8.1s0.3-7.3,0.3-11.5c0.1-4.2,0.1-8.7,0.1-13.1C256.8,290.8,256.7,286.3,256.7,282.1z
	"/>
<path style="fill:#324A5E;" d="M231,268.3v0.1c0,1.6,1.3,2.9,2.9,2.9h12.9c1.6,0,2.9-1.3,2.9-2.9v-0.1H231z"/>
<path style="fill:#FFFFFF;" d="M67.7,284.3c-2.1-2-5.5-3.3-8.6-4.1c-3.3,4.9-5.2,10.9-5.2,17.2v1.1C73.3,302,67.7,284.3,67.7,284.3z
	"/>
<g>
	<path style="fill:#FF7058;" d="M67.7,284.3c-0.8-0.7-1.7-1.4-2.8-2c-1.1-0.6-3.6,16.4-3.6,16.4C71.7,296.9,67.7,284.3,67.7,284.3z"
		/>
	<path style="fill:#FF7058;" d="M454.1,311.1v-42.8h-10.7c-1.7,0-3,1.4-3,3v36.8c0,1.7,1.4,3,3,3H454.1z"/>
</g>
<rect x="444.1" y="288.1" style="fill:#FFFFFF;" width="10" height="17.7"/>
<path style="fill:#E6E9EE;" d="M57.6,282.8c-2,3.8-3.3,8.1-3.6,12.7c0.4,0.1,0.9,0.2,1.3,0.2c3.4,0,6.1-3,6.1-6.6
	C61.5,286.2,59.9,283.8,57.6,282.8z"/>
<g>
</g>
<g>
</g>
<g>
</g>
<g>
</g>
<g>
</g>
<g>
</g>
<g>
</g>
<g>
</g>
<g>
</g>
<g>
</g>
<g>
</g>
<g>
</g>
<g>
</g>
<g>
</g>
<g>
</g>
</svg>
