<?xml version="1.0" encoding="iso-8859-1"?>
<!-- Generator: Adobe Illustrator 19.0.0, SVG Export Plug-In . SVG Version: 6.00 Build 0)  -->
<svg version="1.1" id="Layer_1" xmlns="http://www.w3.org/2000/svg" xmlns:xlink="http://www.w3.org/1999/xlink" x="0px" y="0px"
	 viewBox="0 0 508 508" style="enable-background:new 0 0 508 508;" xml:space="preserve">
<circle style="fill:#84DBFF;" cx="254" cy="254" r="254"/>
<path style="fill:#54C0EB;" d="M6.8,312.3C33.2,424.5,133.8,508,254,508s220.8-83.5,247.2-195.7H6.8z"/>
<g>
	<path style="fill:#84DBFF;" d="M63.8,337.9c0,0,0.7,0.4,1.9,1.1c0.6,0.3,1.3,0.7,2.2,1c0.2,0.1,0.4,0.2,0.7,0.3
		c0.2,0.1,0.5,0.1,0.7,0.2s0.5,0.1,0.7,0.2c0.3,0,0.5,0.1,0.8,0.1c1.1,0.2,2.2,0.1,3.4,0c1.2-0.1,2.5-0.5,3.8-1
		c2.6-0.9,5.3-2.3,8.1-3.7c2.8-1.4,5.8-2.8,8.9-3.5c1.6-0.4,3.1-0.6,4.6-0.5c0.7,0,1.5,0.1,2.2,0.2c0.7,0.2,1.4,0.3,2,0.6
		c0.6,0.2,1.2,0.4,1.7,0.8c0.3,0.1,0.5,0.3,0.7,0.4c0.2,0.2,0.4,0.3,0.6,0.5c0.9,0.6,1.4,1.2,1.9,1.7s0.8,1,1,1.3s0.3,0.5,0.3,0.5
		s-0.7-0.4-1.9-1.1c-0.6-0.3-1.3-0.7-2.2-1c-0.2-0.1-0.4-0.2-0.7-0.3c-0.2-0.1-0.5-0.1-0.7-0.2s-0.5-0.1-0.7-0.2
		c-0.3,0-0.5-0.1-0.8-0.1c-1.1-0.2-2.2-0.1-3.4,0c-1.2,0.1-2.5,0.5-3.8,1c-2.6,0.9-5.3,2.3-8.1,3.7c-2.8,1.4-5.8,2.8-8.9,3.5
		c-1.6,0.4-3.1,0.6-4.6,0.5c-1.5,0-2.9-0.3-4.1-0.8c-0.6-0.2-1.2-0.4-1.7-0.8c-0.3-0.1-0.5-0.3-0.7-0.4c-0.2-0.2-0.4-0.3-0.6-0.5
		c-0.8-0.6-1.5-1.2-2-1.7s-0.8-1-1-1.3C64,338,63.8,337.9,63.8,337.9z"/>
	<path style="fill:#84DBFF;" d="M134.9,371.6c0,0,0.7,0.4,1.9,1.1c0.6,0.3,1.3,0.7,2.2,1c0.2,0.1,0.4,0.2,0.7,0.3
		c0.2,0.1,0.5,0.1,0.7,0.2s0.5,0.1,0.7,0.2c0.3,0,0.5,0.1,0.8,0.1c1.1,0.2,2.2,0.1,3.4,0s2.5-0.5,3.8-1c2.6-0.9,5.3-2.3,8.1-3.7
		c2.8-1.4,5.8-2.8,8.9-3.5c1.6-0.4,3.1-0.6,4.6-0.5c0.7,0,1.5,0.1,2.2,0.2c0.7,0.2,1.4,0.3,2,0.6c0.6,0.2,1.2,0.4,1.7,0.8
		c0.3,0.1,0.5,0.3,0.7,0.4c0.2,0.2,0.4,0.3,0.6,0.5c0.9,0.6,1.4,1.2,1.9,1.7s0.8,1,1,1.3s0.3,0.5,0.3,0.5s-0.7-0.4-1.9-1.1
		c-0.6-0.3-1.3-0.7-2.2-1c-0.2-0.1-0.4-0.2-0.7-0.3c-0.2-0.1-0.5-0.1-0.7-0.2s-0.5-0.1-0.7-0.2c-0.3,0-0.5-0.1-0.8-0.1
		c-1.1-0.2-2.2-0.1-3.4,0s-2.5,0.5-3.8,1c-2.6,0.9-5.3,2.3-8.1,3.7c-2.8,1.4-5.8,2.8-8.9,3.5c-1.6,0.4-3.1,0.6-4.6,0.5
		c-1.5,0-2.9-0.3-4.1-0.8c-0.6-0.2-1.2-0.4-1.7-0.8c-0.3-0.1-0.5-0.3-0.7-0.4c-0.2-0.2-0.4-0.3-0.6-0.5c-0.8-0.6-1.5-1.2-2-1.7
		s-0.8-1-1-1.3C135,371.8,134.9,371.6,134.9,371.6z"/>
	<path style="fill:#84DBFF;" d="M277.1,347c0,0,0.7,0.4,1.9,1.1c0.6,0.3,1.3,0.7,2.2,1c0.2,0.1,0.4,0.2,0.7,0.3
		c0.2,0.1,0.5,0.1,0.7,0.2s0.5,0.1,0.7,0.2c0.3,0,0.5,0.1,0.8,0.1c1.1,0.2,2.2,0.1,3.4,0c1.2-0.1,2.5-0.5,3.8-1
		c2.6-0.9,5.3-2.3,8.1-3.7c2.8-1.4,5.8-2.8,8.9-3.5c1.6-0.4,3.1-0.6,4.6-0.5c0.7,0,1.5,0.1,2.2,0.2c0.7,0.2,1.4,0.3,2,0.6
		c0.6,0.2,1.2,0.4,1.7,0.8c0.3,0.1,0.5,0.3,0.7,0.4c0.2,0.2,0.4,0.3,0.6,0.5c0.9,0.6,1.4,1.2,1.9,1.7s0.8,1,1,1.3s0.3,0.5,0.3,0.5
		s-0.7-0.4-1.9-1.1c-0.6-0.3-1.3-0.7-2.2-1c-0.2-0.1-0.4-0.2-0.7-0.3c-0.2-0.1-0.5-0.1-0.7-0.2s-0.5-0.1-0.7-0.2
		c-0.3,0-0.5-0.1-0.8-0.1c-1.1-0.2-2.2-0.1-3.4,0c-1.2,0.1-2.5,0.5-3.8,1c-2.6,0.9-5.3,2.3-8.1,3.7c-2.8,1.4-5.8,2.8-8.9,3.5
		c-1.6,0.4-3.1,0.6-4.6,0.5c-1.5,0-2.9-0.3-4.1-0.8c-0.6-0.2-1.2-0.4-1.7-0.8c-0.3-0.1-0.5-0.3-0.7-0.4c-0.2-0.2-0.4-0.3-0.6-0.5
		c-0.8-0.6-1.5-1.2-2-1.7s-0.8-1-1-1.3C277.2,347.2,277.1,347,277.1,347z"/>
	<path style="fill:#84DBFF;" d="M375.9,352.9c0,0,0.7,0.4,1.9,1.1c0.6,0.3,1.3,0.7,2.2,1c0.2,0.1,0.4,0.2,0.7,0.3
		c0.2,0.1,0.5,0.1,0.7,0.2s0.5,0.1,0.7,0.2c0.3,0,0.5,0.1,0.8,0.1c1.1,0.2,2.2,0.1,3.4,0c1.2-0.1,2.5-0.5,3.8-1
		c2.6-0.9,5.3-2.3,8.1-3.7c2.8-1.4,5.8-2.8,8.9-3.5c1.6-0.4,3.1-0.6,4.6-0.5c0.7,0,1.5,0.1,2.2,0.2c0.7,0.2,1.4,0.3,2,0.6
		c0.6,0.2,1.2,0.4,1.7,0.8c0.3,0.1,0.5,0.3,0.7,0.4c0.2,0.2,0.4,0.3,0.6,0.5c0.9,0.6,1.4,1.2,1.9,1.7s0.8,1,1,1.3s0.3,0.5,0.3,0.5
		s-0.7-0.4-1.9-1.1c-0.6-0.3-1.3-0.7-2.2-1c-0.2-0.1-0.4-0.2-0.7-0.3c-0.2-0.1-0.5-0.1-0.7-0.2s-0.5-0.1-0.7-0.2
		c-0.3,0-0.5-0.1-0.8-0.1c-1.1-0.2-2.2-0.1-3.4,0c-1.2,0.1-2.5,0.5-3.8,1c-2.6,0.9-5.3,2.3-8.1,3.7c-2.8,1.4-5.8,2.8-8.9,3.5
		c-1.6,0.4-3.1,0.6-4.6,0.5c-1.5,0-2.9-0.3-4.1-0.8c-0.6-0.2-1.2-0.4-1.7-0.8c-0.3-0.1-0.5-0.3-0.7-0.4c-0.2-0.2-0.4-0.3-0.6-0.5
		c-0.8-0.6-1.5-1.2-2-1.7s-0.8-1-1-1.3C376,353.1,375.9,352.9,375.9,352.9z"/>
	<path style="fill:#84DBFF;" d="M313,410.2c0,0,0.7,0.4,1.9,1.1c0.6,0.3,1.3,0.7,2.2,1c0.2,0.1,0.4,0.2,0.7,0.3
		c0.2,0.1,0.5,0.1,0.7,0.2s0.5,0.1,0.7,0.2c0.3,0,0.5,0.1,0.8,0.1c1.1,0.2,2.2,0.1,3.4,0c1.2-0.1,2.5-0.5,3.8-1
		c2.6-0.9,5.3-2.3,8.1-3.7c2.8-1.4,5.8-2.8,8.9-3.5c1.6-0.4,3.1-0.6,4.6-0.5c0.7,0,1.5,0.1,2.2,0.2c0.7,0.2,1.4,0.3,2,0.6
		c0.6,0.2,1.2,0.4,1.7,0.8c0.3,0.1,0.5,0.3,0.7,0.4c0.2,0.2,0.4,0.3,0.6,0.5c0.9,0.6,1.4,1.2,1.9,1.7s0.8,1,1,1.3s0.3,0.5,0.3,0.5
		s-0.7-0.4-1.9-1.1c-0.6-0.3-1.3-0.7-2.2-1c-0.2-0.1-0.4-0.2-0.7-0.3c-0.2-0.1-0.5-0.1-0.7-0.2s-0.5-0.1-0.7-0.2
		c-0.3,0-0.5-0.1-0.8-0.1c-1.1-0.2-2.2-0.1-3.4,0c-1.2,0.1-2.5,0.5-3.8,1c-2.6,0.9-5.3,2.3-8.1,3.7c-2.8,1.4-5.8,2.8-8.9,3.5
		c-1.6,0.4-3.1,0.6-4.6,0.5c-1.5,0-2.9-0.3-4.1-0.8c-0.6-0.2-1.2-0.4-1.7-0.8c-0.3-0.1-0.5-0.3-0.7-0.4c-0.2-0.2-0.4-0.3-0.6-0.5
		c-0.8-0.6-1.5-1.2-2-1.7s-0.8-1-1-1.3C313.1,410.3,313,410.2,313,410.2z"/>
	<path style="fill:#84DBFF;" d="M175.7,434c0,0,0.7,0.4,1.9,1.1c0.6,0.3,1.3,0.7,2.2,1c0.2,0.1,0.4,0.2,0.7,0.3
		c0.2,0.1,0.5,0.1,0.7,0.2s0.5,0.1,0.7,0.2c0.3,0,0.5,0.1,0.8,0.1c1.1,0.2,2.2,0.1,3.4,0s2.5-0.5,3.8-1c2.6-0.9,5.3-2.3,8.1-3.7
		c2.8-1.4,5.8-2.8,8.9-3.5c1.6-0.4,3.1-0.6,4.6-0.5c0.7,0,1.5,0.1,2.2,0.2c0.7,0.2,1.4,0.3,2,0.6c0.6,0.2,1.2,0.4,1.7,0.8
		c0.3,0.1,0.5,0.3,0.7,0.4c0.2,0.2,0.4,0.3,0.6,0.5c0.9,0.6,1.4,1.2,1.9,1.7s0.8,1,1,1.3s0.3,0.5,0.3,0.5s-0.7-0.4-1.9-1.1
		c-0.6-0.3-1.3-0.7-2.2-1c-0.2-0.1-0.4-0.2-0.7-0.3c-0.2-0.1-0.5-0.1-0.7-0.2s-0.5-0.1-0.7-0.2c-0.3,0-0.5-0.1-0.8-0.1
		c-1.1-0.2-2.2-0.1-3.4,0s-2.5,0.5-3.8,1c-2.6,0.9-5.3,2.3-8.1,3.7c-2.8,1.4-5.8,2.8-8.9,3.5c-1.6,0.4-3.1,0.6-4.6,0.5
		c-1.5,0-2.9-0.3-4.1-0.8c-0.6-0.2-1.2-0.4-1.7-0.8c-0.3-0.1-0.5-0.3-0.7-0.4c-0.2-0.2-0.4-0.3-0.6-0.5c-0.8-0.6-1.5-1.2-2-1.7
		s-0.8-1-1-1.3C175.8,434.1,175.7,434,175.7,434z"/>
</g>
<g>
	<rect x="76.8" y="262.8" style="fill:#2B3B4E;" width="0.6" height="3.2"/>
	<rect x="74" y="262.8" style="fill:#2B3B4E;" width="0.6" height="3.2"/>
	<rect x="71.3" y="262.8" style="fill:#2B3B4E;" width="0.6" height="3.2"/>
	<rect x="68.6" y="262.8" style="fill:#2B3B4E;" width="0.6" height="3.2"/>
	<rect x="65.9" y="262.8" style="fill:#2B3B4E;" width="0.6" height="3.2"/>
	<rect x="63.2" y="262.8" style="fill:#2B3B4E;" width="0.6" height="3.2"/>
	<rect x="60.5" y="262.8" style="fill:#2B3B4E;" width="0.6" height="3.2"/>
	<rect x="57.8" y="262.8" style="fill:#2B3B4E;" width="0.6" height="3.2"/>
	<rect x="55.1" y="262.8" style="fill:#2B3B4E;" width="0.6" height="3.2"/>
	<rect x="52.4" y="262.8" style="fill:#2B3B4E;" width="0.6" height="3.2"/>
	<rect x="49.7" y="262.8" style="fill:#2B3B4E;" width="0.6" height="3.2"/>
	<rect x="46.9" y="262.8" style="fill:#2B3B4E;" width="0.6" height="3.2"/>
	<rect x="44.2" y="262.8" style="fill:#2B3B4E;" width="0.6" height="3.2"/>
	<rect x="41.5" y="262.8" style="fill:#2B3B4E;" width="0.6" height="3.2"/>
	<rect x="38.8" y="262.8" style="fill:#2B3B4E;" width="0.6" height="3.2"/>
	<rect x="36.1" y="262.8" style="fill:#2B3B4E;" width="0.6" height="3.2"/>
</g>
<path style="fill:#ACB3BA;" d="M327.1,274.5h138.3c-0.9-8.4-6.3-16.3-15.3-23.3h-123L327.1,274.5L327.1,274.5z"/>
<path style="fill:#CED5E0;" d="M336.1,251.2h108c-0.7-7.1-4.9-13.8-11.9-19.7h-96.1V251.2z"/>
<path style="fill:#E6E9EE;" d="M343.5,231.5h81.8c-0.5-5.9-3.7-11.4-9-16.2h-72.8V231.5z"/>
<rect x="93.3" y="260.2" style="fill:#FF7058;" width="54.1" height="27.2"/>
<rect x="255.8" y="260.2" style="fill:#FFD05B;" width="54.1" height="27.2"/>
<g>
	<rect x="97.8" y="263.9" style="fill:#F1543F;" width="2.8" height="19.6"/>
	<rect x="104.8" y="263.9" style="fill:#F1543F;" width="2.8" height="19.6"/>
	<rect x="111.9" y="263.9" style="fill:#F1543F;" width="2.8" height="19.6"/>
	<rect x="119" y="263.9" style="fill:#F1543F;" width="2.8" height="19.6"/>
	<rect x="126.1" y="263.9" style="fill:#F1543F;" width="2.8" height="19.6"/>
	<rect x="133.2" y="263.9" style="fill:#F1543F;" width="2.8" height="19.6"/>
	<rect x="140.2" y="263.9" style="fill:#F1543F;" width="2.8" height="19.6"/>
</g>
<rect x="174.6" y="233" style="fill:#FF7058;" width="54.1" height="27.2"/>
<g>
	<rect x="179" y="236.7" style="fill:#F1543F;" width="2.8" height="19.6"/>
	<rect x="186.1" y="236.7" style="fill:#F1543F;" width="2.8" height="19.6"/>
	<rect x="193.1" y="236.7" style="fill:#F1543F;" width="2.8" height="19.6"/>
	<rect x="200.2" y="236.7" style="fill:#F1543F;" width="2.8" height="19.6"/>
	<rect x="207.3" y="236.7" style="fill:#F1543F;" width="2.8" height="19.6"/>
	<rect x="214.4" y="236.7" style="fill:#F1543F;" width="2.8" height="19.6"/>
	<rect x="221.5" y="236.7" style="fill:#F1543F;" width="2.8" height="19.6"/>
</g>
<rect x="147.5" y="260.2" style="fill:#84DBFF;" width="54.1" height="27.2"/>
<g>
	<rect x="151.9" y="263.9" style="fill:#54C0EB;" width="2.8" height="19.6"/>
	<rect x="159" y="263.9" style="fill:#54C0EB;" width="2.8" height="19.6"/>
	<rect x="166.1" y="263.9" style="fill:#54C0EB;" width="2.8" height="19.6"/>
	<rect x="173.1" y="263.9" style="fill:#54C0EB;" width="2.8" height="19.6"/>
	<rect x="180.2" y="263.9" style="fill:#54C0EB;" width="2.8" height="19.6"/>
	<rect x="187.3" y="263.9" style="fill:#54C0EB;" width="2.8" height="19.6"/>
	<rect x="194.4" y="263.9" style="fill:#54C0EB;" width="2.8" height="19.6"/>
</g>
<rect x="228.7" y="233" style="fill:#84DBFF;" width="54.1" height="27.2"/>
<g>
	<rect x="233.1" y="236.7" style="fill:#54C0EB;" width="2.8" height="19.6"/>
	<rect x="240.2" y="236.7" style="fill:#54C0EB;" width="2.8" height="19.6"/>
	<rect x="247.3" y="236.7" style="fill:#54C0EB;" width="2.8" height="19.6"/>
	<rect x="254.4" y="236.7" style="fill:#54C0EB;" width="2.8" height="19.6"/>
	<rect x="261.4" y="236.7" style="fill:#54C0EB;" width="2.8" height="19.6"/>
	<rect x="268.5" y="236.7" style="fill:#54C0EB;" width="2.8" height="19.6"/>
	<rect x="275.6" y="236.7" style="fill:#54C0EB;" width="2.8" height="19.6"/>
</g>
<rect x="201.6" y="260.2" style="fill:#E6E9EE;" width="54.1" height="27.2"/>
<g>
	<rect x="206" y="263.9" style="fill:#CED5E0;" width="2.8" height="19.6"/>
	<rect x="213.1" y="263.9" style="fill:#CED5E0;" width="2.8" height="19.6"/>
	<rect x="220.2" y="263.9" style="fill:#CED5E0;" width="2.8" height="19.6"/>
	<rect x="227.3" y="263.9" style="fill:#CED5E0;" width="2.8" height="19.6"/>
	<rect x="234.4" y="263.9" style="fill:#CED5E0;" width="2.8" height="19.6"/>
	<rect x="241.5" y="263.9" style="fill:#CED5E0;" width="2.8" height="19.6"/>
	<rect x="248.5" y="263.9" style="fill:#CED5E0;" width="2.8" height="19.6"/>
</g>
<rect x="147.5" y="205.7" style="fill:#E6E9EE;" width="54.1" height="27.2"/>
<g>
	<rect x="151.9" y="209.5" style="fill:#CED5E0;" width="2.8" height="19.6"/>
	<rect x="159" y="209.5" style="fill:#CED5E0;" width="2.8" height="19.6"/>
	<rect x="166.1" y="209.5" style="fill:#CED5E0;" width="2.8" height="19.6"/>
	<rect x="173.1" y="209.5" style="fill:#CED5E0;" width="2.8" height="19.6"/>
	<rect x="180.2" y="209.5" style="fill:#CED5E0;" width="2.8" height="19.6"/>
	<rect x="187.3" y="209.5" style="fill:#CED5E0;" width="2.8" height="19.6"/>
	<rect x="194.4" y="209.5" style="fill:#CED5E0;" width="2.8" height="19.6"/>
</g>
<g>
	<rect x="260.2" y="263.9" style="fill:#F9B54C;" width="2.8" height="19.6"/>
	<rect x="267.3" y="263.9" style="fill:#F9B54C;" width="2.8" height="19.6"/>
	<rect x="274.4" y="263.9" style="fill:#F9B54C;" width="2.8" height="19.6"/>
	<rect x="281.4" y="263.9" style="fill:#F9B54C;" width="2.8" height="19.6"/>
	<rect x="288.5" y="263.9" style="fill:#F9B54C;" width="2.8" height="19.6"/>
	<rect x="295.6" y="263.9" style="fill:#F9B54C;" width="2.8" height="19.6"/>
	<rect x="302.7" y="263.9" style="fill:#F9B54C;" width="2.8" height="19.6"/>
</g>
<rect x="120.4" y="233" style="fill:#FFD05B;" width="54.1" height="27.2"/>
<g>
	<rect x="124.8" y="236.7" style="fill:#F9B54C;" width="2.8" height="19.6"/>
	<rect x="131.9" y="236.7" style="fill:#F9B54C;" width="2.8" height="19.6"/>
	<rect x="139" y="236.7" style="fill:#F9B54C;" width="2.8" height="19.6"/>
	<rect x="146.1" y="236.7" style="fill:#F9B54C;" width="2.8" height="19.6"/>
	<rect x="153.2" y="236.7" style="fill:#F9B54C;" width="2.8" height="19.6"/>
	<rect x="160.2" y="236.7" style="fill:#F9B54C;" width="2.8" height="19.6"/>
	<rect x="167.3" y="236.7" style="fill:#F9B54C;" width="2.8" height="19.6"/>
</g>
<rect x="201.6" y="205.7" style="fill:#FFD05B;" width="54.1" height="27.2"/>
<g>
	<rect x="206" y="209.5" style="fill:#F9B54C;" width="2.8" height="19.6"/>
	<rect x="213.1" y="209.5" style="fill:#F9B54C;" width="2.8" height="19.6"/>
	<rect x="220.2" y="209.5" style="fill:#F9B54C;" width="2.8" height="19.6"/>
	<rect x="227.3" y="209.5" style="fill:#F9B54C;" width="2.8" height="19.6"/>
	<rect x="234.4" y="209.5" style="fill:#F9B54C;" width="2.8" height="19.6"/>
	<rect x="241.5" y="209.5" style="fill:#F9B54C;" width="2.8" height="19.6"/>
	<rect x="248.5" y="209.5" style="fill:#F9B54C;" width="2.8" height="19.6"/>
</g>
<path style="fill:#324A5E;" d="M317,272.5l-9.2,15.6c0,0-136.9-2-189.9-2c-37.2,0-39.2-18.1-39.3-20.6H35.1
	c2.9,8.7,17.3,26.8,17.3,26.8c-15.5,12-10.4,19.5-10.4,19.5h401.6c25.3-0.9,28.9-30,29.3-39.3H317z"/>
<g>
	<rect x="335.2" y="256.5" style="fill:#54C0EB;" width="7.4" height="6.1"/>
	<rect x="351.7" y="256.5" style="fill:#54C0EB;" width="7.4" height="6.1"/>
	<rect x="368.2" y="256.5" style="fill:#54C0EB;" width="7.4" height="6.1"/>
	<rect x="384.8" y="256.5" style="fill:#54C0EB;" width="7.4" height="6.1"/>
	<rect x="401.3" y="256.5" style="fill:#54C0EB;" width="7.4" height="6.1"/>
	<rect x="417.9" y="256.5" style="fill:#54C0EB;" width="7.4" height="6.1"/>
	<rect x="434.4" y="256.5" style="fill:#54C0EB;" width="7.4" height="6.1"/>
	<rect x="340" y="235.3" style="fill:#54C0EB;" width="6.2" height="5.1"/>
	<rect x="354" y="235.3" style="fill:#54C0EB;" width="6.2" height="5.1"/>
	<rect x="368" y="235.3" style="fill:#54C0EB;" width="6.2" height="5.1"/>
	<rect x="381.9" y="235.3" style="fill:#54C0EB;" width="6.2" height="5.1"/>
	<rect x="395.9" y="235.3" style="fill:#54C0EB;" width="6.2" height="5.1"/>
	<rect x="409.9" y="235.3" style="fill:#54C0EB;" width="6.2" height="5.1"/>
	<rect x="423.9" y="235.3" style="fill:#54C0EB;" width="6.2" height="5.1"/>
	<rect x="347.1" y="218.3" style="fill:#54C0EB;" width="4.6" height="3.8"/>
	<rect x="357.3" y="218.3" style="fill:#54C0EB;" width="4.6" height="3.8"/>
	<rect x="367.5" y="218.3" style="fill:#54C0EB;" width="4.6" height="3.8"/>
	<rect x="377.8" y="218.3" style="fill:#54C0EB;" width="4.6" height="3.8"/>
	<rect x="388" y="218.3" style="fill:#54C0EB;" width="4.6" height="3.8"/>
	<rect x="398.2" y="218.3" style="fill:#54C0EB;" width="4.6" height="3.8"/>
	<rect x="408.4" y="218.3" style="fill:#54C0EB;" width="4.6" height="3.8"/>
</g>
<rect x="357.3" y="196.2" style="fill:#324A5E;" width="18.3" height="19.1"/>
<rect x="357.3" y="196.2" style="fill:#ACB3BA;" width="18.3" height="5.1"/>
<rect x="381" y="199.2" style="fill:#324A5E;" width="15.4" height="16.1"/>
<rect x="381" y="199.2" style="fill:#ACB3BA;" width="15.4" height="4.3"/>
<path style="fill:#324A5E;" d="M78.2,263.5H35.3c-0.1,0-0.2-0.1-0.2-0.2V262c0-0.1,0.1-0.2,0.2-0.2h42.8c0.1,0,0.2,0.1,0.2,0.2v1.3
	C78.4,263.4,78.3,263.5,78.2,263.5z"/>
<g>
</g>
<g>
</g>
<g>
</g>
<g>
</g>
<g>
</g>
<g>
</g>
<g>
</g>
<g>
</g>
<g>
</g>
<g>
</g>
<g>
</g>
<g>
</g>
<g>
</g>
<g>
</g>
<g>
</g>
</svg>
