<?xml version="1.0" encoding="iso-8859-1"?>
<!-- Generator: Adobe Illustrator 19.0.0, SVG Export Plug-In . SVG Version: 6.00 Build 0)  -->
<svg version="1.1" id="Layer_1" xmlns="http://www.w3.org/2000/svg" xmlns:xlink="http://www.w3.org/1999/xlink" x="0px" y="0px"
	 viewBox="0 0 508 508" style="enable-background:new 0 0 508 508;" xml:space="preserve">
<circle style="fill:#324A5E;" cx="254" cy="254" r="254"/>
<circle style="fill:#54C0EB;" cx="254" cy="254" r="178.6"/>
<circle style="fill:#FFFFFF;" cx="254" cy="254" r="148.5"/>
<g>
	<rect x="250.1" y="116.1" style="fill:#324A5E;" width="7.8" height="11.8"/>
	<rect x="250.1" y="380.1" style="fill:#324A5E;" width="7.8" height="11.8"/>
	<rect x="380.1" y="250.1" style="fill:#324A5E;" width="11.8" height="7.8"/>
	<rect x="116.1" y="250.1" style="fill:#324A5E;" width="11.8" height="7.8"/>
	
		<rect x="182.112" y="137.09" transform="matrix(0.5 0.866 -0.866 0.5 214.9782 -92.9787)" style="fill:#324A5E;" width="11.8" height="5.2"/>
	
		<rect x="314.09" y="365.718" transform="matrix(0.5 0.866 -0.866 0.5 478.9618 -92.9623)" style="fill:#324A5E;" width="11.8" height="5.2"/>
	
		<rect x="365.694" y="182.098" transform="matrix(-0.4999 -0.8661 0.8661 -0.4999 389.5789 600.9514)" style="fill:#324A5E;" width="5.2" height="11.8"/>
	
		<rect x="137.072" y="314.078" transform="matrix(0.5 0.866 -0.866 0.5 346.9413 39.0268)" style="fill:#324A5E;" width="5.2" height="11.8"/>
	
		<rect x="133.787" y="185.396" transform="matrix(0.866 0.5001 -0.5001 0.866 112.7355 -44.6594)" style="fill:#324A5E;" width="11.8" height="5.2"/>
	
		<rect x="362.422" y="317.381" transform="matrix(0.866 0.5001 -0.5001 0.866 209.3822 -141.3077)" style="fill:#324A5E;" width="11.8" height="5.2"/>
	
		<rect x="314.102" y="137.098" transform="matrix(-0.5 0.866 -0.866 -0.5 600.988 -67.5794)" style="fill:#324A5E;" width="11.8" height="5.2"/>
	
		<rect x="182.09" y="365.7" transform="matrix(-0.5 0.866 -0.866 -0.5 600.9416 389.6513)" style="fill:#324A5E;" width="11.8" height="5.2"/>
	<polygon style="fill:#324A5E;" points="254,241.2 254,266.8 328.3,254 	"/>
</g>
<polygon style="fill:#FF7058;" points="257.9,257.9 250.1,250.1 179.2,328.8 "/>
<polygon style="fill:#324A5E;" points="241.2,254 266.8,254 254,158.3 "/>
<circle style="fill:#FFD05B;" cx="254" cy="254" r="15.9"/>
<g>
</g>
<g>
</g>
<g>
</g>
<g>
</g>
<g>
</g>
<g>
</g>
<g>
</g>
<g>
</g>
<g>
</g>
<g>
</g>
<g>
</g>
<g>
</g>
<g>
</g>
<g>
</g>
<g>
</g>
</svg>
