<?xml version="1.0" encoding="iso-8859-1"?>
<!-- Generator: Adobe Illustrator 19.0.0, SVG Export Plug-In . SVG Version: 6.00 Build 0)  -->
<svg version="1.1" id="Layer_1" xmlns="http://www.w3.org/2000/svg" xmlns:xlink="http://www.w3.org/1999/xlink" x="0px" y="0px"
	 viewBox="0 0 508 508" style="enable-background:new 0 0 508 508;" xml:space="preserve">
<circle style="fill:#324A5E;" cx="254" cy="254" r="254"/>
<circle style="fill:#F9B54C;" cx="322.6" cy="297.7" r="108.8"/>
<circle style="fill:#FFD05B;" cx="322.6" cy="297.7" r="90.5"/>
<circle style="fill:#F9B54C;" cx="322.6" cy="297.7" r="81.4"/>
<g>
	<path style="fill:#FFD05B;" d="M319.4,357.8v-10.6c-13.2-1.4-25.1-6.6-35.6-15.8l10.6-12.6c8.1,7.1,16.5,11.3,25.1,12.6v-28.1
		c-10.9-2.6-18.9-6-24-10.3s-7.6-10.6-7.6-18.9s2.9-15.2,8.8-20.5c5.8-5.3,13.5-8.2,22.8-8.7v-7.2h9.3v7.4
		c10.6,0.8,20.7,4.4,30.1,10.9l-9.4,13.3c-6.4-4.5-13.3-7.3-20.7-8.4v27.2h0.4c11.1,2.6,19.3,6.1,24.5,10.6
		c5.2,4.4,7.8,10.9,7.8,19.3s-3,15.3-9,20.6c-6,5.3-13.9,8.2-23.8,8.7v10.4h-9.3V357.8z M309.1,264.3c-2.5,2.2-3.7,4.9-3.7,8.1
		s1,5.8,2.9,7.7c1.9,1.9,5.6,3.7,11,5.4v-25.1C315,260.8,311.6,262.1,309.1,264.3z M339.7,327.8c2.7-2.2,4.1-5,4.1-8.4
		s-1.1-6.1-3.2-8c-2.1-2-6.1-3.8-11.9-5.6v26.1C333.3,331.4,336.9,330,339.7,327.8z"/>
	<circle style="fill:#FFD05B;" cx="185.4" cy="210.3" r="108.8"/>
</g>
<circle style="fill:#F9B54C;" cx="185.4" cy="210.3" r="90.5"/>
<circle style="fill:#FFD05B;" cx="185.4" cy="210.3" r="81.4"/>
<path style="fill:#F9B54C;" d="M182.3,270.3v-10.6c-13.2-1.4-25.1-6.6-35.6-15.8l10.6-12.6c8.1,7.1,16.5,11.3,25.1,12.6v-28.1
	c-10.9-2.6-18.9-6-24-10.3s-7.6-10.6-7.6-18.9s2.9-15.2,8.8-20.5c5.8-5.3,13.5-8.2,22.8-8.7v-7.2h9.3v7.4
	c10.6,0.8,20.7,4.4,30.1,10.9l-9.4,13.3c-6.4-4.5-13.3-7.3-20.7-8.4v27.2h0.4c11.1,2.6,19.3,6.1,24.5,10.6
	c5.2,4.4,7.8,10.9,7.8,19.3s-3,15.3-9,20.6s-13.9,8.2-23.8,8.7v10.4h-9.3V270.3z M172,176.8c-2.5,2.2-3.7,4.9-3.7,8.1
	c0,3.2,1,5.8,2.9,7.7s5.6,3.7,11,5.4v-25C177.9,173.3,174.5,174.6,172,176.8z M202.5,240.3c2.7-2.2,4.1-5,4.1-8.4s-1.1-6.1-3.2-8
	c-2.1-2-6.1-3.8-11.9-5.6v26.1C196.2,243.9,199.8,242.6,202.5,240.3z"/>
<g>
</g>
<g>
</g>
<g>
</g>
<g>
</g>
<g>
</g>
<g>
</g>
<g>
</g>
<g>
</g>
<g>
</g>
<g>
</g>
<g>
</g>
<g>
</g>
<g>
</g>
<g>
</g>
<g>
</g>
</svg>
