<?xml version="1.0" encoding="iso-8859-1"?>
<!-- Generator: Adobe Illustrator 19.0.0, SVG Export Plug-In . SVG Version: 6.00 Build 0)  -->
<svg version="1.1" id="Layer_1" xmlns="http://www.w3.org/2000/svg" xmlns:xlink="http://www.w3.org/1999/xlink" x="0px" y="0px"
	 viewBox="0 0 508 508" style="enable-background:new 0 0 508 508;" xml:space="preserve">
<circle style="fill:#FD8469;" cx="254" cy="254" r="254"/>
<path style="fill:#F1543F;" d="M32.3,378C75.8,455.6,158.8,508,254,508s178.2-52.4,221.7-130H32.3z"/>
<path style="fill:#324A5E;" d="M433.2,378.1H74.8c-20.6,0-37.4-16.7-37.4-37.4l0,0c0-20.6,16.7-37.4,37.4-37.4h358.5
	c20.6,0,37.4,16.7,37.4,37.4l0,0C470.6,361.4,453.9,378.1,433.2,378.1z"/>
<g>
	<circle style="fill:#2B3B4E;" cx="431.3" cy="340.7" r="23.9"/>
	<circle style="fill:#2B3B4E;" cx="312.3" cy="340.7" r="23.9"/>
	<circle style="fill:#2B3B4E;" cx="193.3" cy="340.7" r="23.9"/>
	<circle style="fill:#2B3B4E;" cx="74.3" cy="340.7" r="23.9"/>
</g>
<path style="fill:#324A5E;" d="M227.4,130.6V106c0-0.7,0.6-1.3,1.3-1.3h50.6c0.7,0,1.3,0.6,1.3,1.3v24.5h11.8V106
	c0-7.2-5.9-13.1-13.1-13.1h-50.6c-7.2,0-13.1,5.9-13.1,13.1v24.5h11.8V130.6z"/>
<path style="fill:#E6E9EE;" d="M364.5,301.6h-221c-1.6,0-2.9-1.3-2.9-2.9V130.2c0-1.6,1.3-2.9,2.9-2.9h221.1c1.6,0,2.9,1.3,2.9,2.9
	v168.5C367.5,300.3,366.2,301.6,364.5,301.6z"/>
<g>
	<rect x="312.8" y="125.5" style="fill:#CED5E0;" width="16.9" height="177.8"/>
	<rect x="178.3" y="125.5" style="fill:#CED5E0;" width="16.9" height="177.8"/>
</g>
<g>
</g>
<g>
</g>
<g>
</g>
<g>
</g>
<g>
</g>
<g>
</g>
<g>
</g>
<g>
</g>
<g>
</g>
<g>
</g>
<g>
</g>
<g>
</g>
<g>
</g>
<g>
</g>
<g>
</g>
</svg>
