<?xml version="1.0" encoding="iso-8859-1"?>
<!-- Generator: Adobe Illustrator 19.0.0, SVG Export Plug-In . SVG Version: 6.00 Build 0)  -->
<svg version="1.1" id="Layer_1" xmlns="http://www.w3.org/2000/svg" xmlns:xlink="http://www.w3.org/1999/xlink" x="0px" y="0px"
	 viewBox="0 0 508 508" style="enable-background:new 0 0 508 508;" xml:space="preserve">
<circle style="fill:#90DFAA;" cx="254" cy="254" r="254"/>
<path style="fill:#2C9984;" d="M32.3,378C75.8,455.6,158.8,508,254,508s178.2-52.4,221.7-130H32.3z"/>
<path style="fill:#324A5E;" d="M417.2,378.1H90.8c-18.8,0-34-15.2-34-34l0,0c0-18.8,15.2-34,34-34h326.3c18.8,0,34,15.2,34,34l0,0
	C451.2,362.9,435.9,378.1,417.2,378.1z"/>
<g>
	<circle style="fill:#2B3B4E;" cx="415.4" cy="344.1" r="21.8"/>
	<circle style="fill:#2B3B4E;" cx="307.1" cy="344.1" r="21.8"/>
	<circle style="fill:#2B3B4E;" cx="198.7" cy="344.1" r="21.8"/>
	<circle style="fill:#2B3B4E;" cx="90.4" cy="344.1" r="21.8"/>
</g>
<g>
	<path style="fill:#E6E9EE;" d="M235.3,310H103.7c-1.8,0-3.3-1.5-3.3-3.3V163.5c0-1.8,1.5-3.3,3.3-3.3h131.7c1.8,0,3.3,1.5,3.3,3.3
		v143.3C238.6,308.6,237.1,310,235.3,310z"/>
	<path style="fill:#E6E9EE;" d="M404.3,310H272.7c-1.8,0-3.3-1.5-3.3-3.3V163.5c0-1.8,1.5-3.3,3.3-3.3h131.7c1.8,0,3.3,1.5,3.3,3.3
		v143.3C407.6,308.6,406.1,310,404.3,310z"/>
</g>
<g>
	<rect x="319" y="160.2" style="fill:#ACB3BA;" width="39.1" height="17.9"/>
	<rect x="149.9" y="160.2" style="fill:#ACB3BA;" width="39.1" height="17.9"/>
</g>
<g>
</g>
<g>
</g>
<g>
</g>
<g>
</g>
<g>
</g>
<g>
</g>
<g>
</g>
<g>
</g>
<g>
</g>
<g>
</g>
<g>
</g>
<g>
</g>
<g>
</g>
<g>
</g>
<g>
</g>
</svg>
