<?xml version="1.0" encoding="iso-8859-1"?>
<!-- Generator: Adobe Illustrator 19.0.0, SVG Export Plug-In . SVG Version: 6.00 Build 0)  -->
<svg version="1.1" id="Layer_1" xmlns="http://www.w3.org/2000/svg" xmlns:xlink="http://www.w3.org/1999/xlink" x="0px" y="0px"
	 viewBox="0 0 508.5 508.5" style="enable-background:new 0 0 508.5 508.5;" xml:space="preserve">
<circle style="fill:#FD8469;" cx="254.25" cy="254.2" r="254.2"/>
<g>
	<rect x="153.35" y="141.8" style="fill:#324A5E;" width="4" height="67.6"/>
	<path style="fill:#324A5E;" d="M237.85,235.6h-165c-1,0-1.8-0.7-2-1.7c-0.1-1,0.4-1.9,1.4-2.2l82.5-25.7c0.4-0.1,0.8-0.1,1.2,0
		l82.5,25.7c0.9,0.3,1.5,1.2,1.4,2.2C239.65,234.9,238.85,235.6,237.85,235.6z M85.95,231.6h138.9l-69.4-21.6L85.95,231.6z"/>
</g>
<g>
	<rect x="327.85" y="427.2" style="fill:#FFFFFF;" width="50.6" height="7.9"/>
	<path style="fill:#FFFFFF;" d="M406.85,113.4h-253.1c-0.7,0-1.3,0.2-1.9,0.5l-44.6,24.4c-1.6,0.9-2.4,2.7-1.9,4.5s2,3,3.8,3h215.6
		v313h56.8v-313h25.3c1.1,0,2.1-0.4,2.8-1.2s1.2-1.8,1.2-2.8v-24.4C410.85,115.2,409.05,113.4,406.85,113.4z M157.75,121.4h28.1
		v16.5h-28.1V121.4z M193.85,121.4h28.2v16.5h-28.2V121.4z M229.95,121.4h28.1v16.5h-28.1L229.95,121.4L229.95,121.4z M266.05,121.4
		h28.1v16.5h-28.1V121.4z M302.15,121.4h28.2v16.5h-28.2V121.4z M347.55,165.9l-14.8,14.8V151L347.55,165.9z M338.65,145.8h29
		l-14.5,14.5L338.65,145.8z M338.65,186.1l14.5-14.5l14.5,14.5H338.65z M367.65,194l-14.5,14.5l-14.5-14.5H367.65z M332.65,199.3
		l14.8,14.8l-14.8,14.8V199.3z M338.65,234.3l14.5-14.5l14.5,14.5H338.65z M367.65,242.2l-14.5,14.5l-14.5-14.5H367.65z
		 M332.65,247.5l14.8,14.8l-14.8,14.9V247.5z M338.65,282.5l14.5-14.5l14.5,14.5H338.65z M367.65,290.5l-14.5,14.5l-14.5-14.5
		H367.65z M332.65,295.8l14.8,14.8l-14.8,14.8V295.8z M338.65,330.7l14.5-14.5l14.5,14.5H338.65z M367.65,338.7l-14.5,14.5
		l-14.5-14.5H367.65z M332.65,344l14.8,14.8l-14.8,14.8V344z M353.15,364.4l14.5,14.5h-29L353.15,364.4z M332.65,392.2l14.8,14.8
		l-14.8,14.8V392.2z M338.65,386.9h29l-14.5,14.5L338.65,386.9z M373.55,392.2v29.7l-14.8-14.8L373.55,392.2z M358.75,358.8
		l14.8-14.8v29.7L358.75,358.8z M358.75,310.6l14.8-14.8v29.7L358.75,310.6z M358.75,262.4l14.8-14.8v29.6L358.75,262.4z
		 M358.75,214.2l14.8-14.8v29.7L358.75,214.2z M358.75,165.9l14.8-14.8v29.7L358.75,165.9z M338.25,137.8v-16.5h28.1v16.5H338.25z
		 M149.85,124.1v13.8h-25.1L149.85,124.1z M332.65,450.9v-17.8l20.5-20.5l20.5,20.5v17.8H332.65z M402.85,137.8h-28.5v-16.5h28.5
		V137.8z"/>
</g>
<path style="fill:#E6E9EE;" d="M243.85,334.7H66.95c-0.8,0-1.5-0.7-1.5-1.5V228.9c0-0.8,0.7-1.5,1.5-1.5h176.9
	c0.8,0,1.5,0.7,1.5,1.5v104.3C245.35,334,244.65,334.7,243.85,334.7z"/>
<g>
	<rect x="76.55" y="237.2" style="fill:#CED5E0;" width="11" height="87.7"/>
	<rect x="97.45" y="237.2" style="fill:#CED5E0;" width="11" height="87.7"/>
	<rect x="118.45" y="237.2" style="fill:#CED5E0;" width="11" height="87.7"/>
	<rect x="139.35" y="237.2" style="fill:#CED5E0;" width="11" height="87.7"/>
	<rect x="160.35" y="237.2" style="fill:#CED5E0;" width="11" height="87.7"/>
	<rect x="181.35" y="237.2" style="fill:#CED5E0;" width="11" height="87.7"/>
	<rect x="202.25" y="237.2" style="fill:#CED5E0;" width="11" height="87.7"/>
	<rect x="223.25" y="237.2" style="fill:#CED5E0;" width="11" height="87.7"/>
</g>
<rect x="305.65" y="426.8" style="fill:#324A5E;" width="95" height="14.5"/>
<path style="fill:#F1543F;" d="M82.25,441.4c45.3,41.6,105.7,67.1,172,67.1s126.7-25.4,172-67.1H82.25z"/>
<g>
</g>
<g>
</g>
<g>
</g>
<g>
</g>
<g>
</g>
<g>
</g>
<g>
</g>
<g>
</g>
<g>
</g>
<g>
</g>
<g>
</g>
<g>
</g>
<g>
</g>
<g>
</g>
<g>
</g>
</svg>
