<?xml version="1.0" encoding="iso-8859-1"?>
<!-- Generator: Adobe Illustrator 19.0.0, SVG Export Plug-In . SVG Version: 6.00 Build 0)  -->
<svg version="1.1" id="Layer_1" xmlns="http://www.w3.org/2000/svg" xmlns:xlink="http://www.w3.org/1999/xlink" x="0px" y="0px"
	 viewBox="0 0 508 508" style="enable-background:new 0 0 508 508;" xml:space="preserve">
<circle style="fill:#FFD05B;" cx="254" cy="254" r="254"/>
<circle style="fill:#54C0EB;" cx="254" cy="254" r="161.4"/>
<g>
	<path style="fill:#FFFFFF;" d="M415.4,254c0,61-33.9,114.1-83.8,141.6v-0.1c1.1-11.1,3.7-22.1,7.8-32.5c0.6-1.4,1.2-3.1,0.6-4.5
		c-0.5-1.1-1.5-1.9-2.5-2.7c-9-7.2-10.3-20-13-31.2c-0.4-1.7-0.9-3.6-2.3-4.8c-0.9-0.8-2.1-1.3-3.3-1.6c-6.4-1.9-13.2-2.4-19.6-4.4
		s-12.8-6-15.1-12.3c-3.1-8.4,1.8-17.4,3.6-26.1c0.7-3.7,0.9-7.5,0.4-11.3c-0.3-2.2-0.7-4.6,0.5-6.4c0.7-1.1,1.9-1.8,3.1-2.4
		c11.6-6.4,23.6-12.9,36.8-14.4c4.1-0.5,8.6-0.3,11.9,2.2c2.4,1.9,3.9,4.8,6.4,6.5c2.7,1.8,6.1,2,9.4,2c10.2-0.1,20.4-1.4,30.3-3.9
		c2-0.5,4.2-1.2,5.3-3c1.8-3.1-1.1-6.9-4-8.9c-6.5-4.5-14.6-6.6-22.5-5.8c-1.7,0.2-3.6,0.5-5.1-0.4c-1.3-0.7-2-2.1-2.8-3.3
		c-3.9-6.1-10.8-10.4-18-10.2c-7.2,0.3-14.2,5.8-15.1,13c-0.6,4.3,0.1,10.1-3.9,11.5c-1.3,0.5-2.8,0.2-4.1,0
		c-4.7-0.9-9.6-2.1-13.2-5.2c-3.6-3.1-5.5-8.8-3-12.9c6.7-1.4,13.2-3.5,19.5-6.1c-1.9-2.9-3.8-5.7-5.7-8.6c-0.7-1.1-1.4-2.2-1.3-3.5
		c0.4-4.4,8.3-2.7,10.6-6.5c1-1.6,0.6-3.7,1.8-5.1c0.9-1,2.3-1.3,3.7-1.5c6.9-1.1,13.8-2.1,20.7-3.2c4.9-0.7,10.6-2,12.8-6.5
		c0.7-1.4,0.9-3.1,1.7-4.5c2.7-5.1,10.3-5.2,13.8-9.8c-4.5,1.7-9.5,1.9-14.2,0.7c1.8-3.8,3.6-7.9,3-12s-4.9-8-8.8-6.5
		c-4.1,1.5-4.7,6.9-4.6,11.2c0.1,4,0.1,8,0.2,12.1c0,1.9,0,4-1.2,5.5c-2.5,3.2-7.7,1.4-11.2-0.8c-1,3.4-6.1,3.2-8.9,1
		c-5.8-4.6-5.9-14.7-0.3-19.5c1.9-1.6,4.5-3,5-5.5c0.4-1.9-0.7-4.1,0.4-5.7c0.8-1.1,2.2-1.3,3.4-1.7c8-2,13.9-9.4,15.4-17.4
		C392.1,158.3,415.4,203.4,415.4,254z"/>
	<path style="fill:#FFFFFF;" d="M278.1,122c-1.9,2.8-4.4,5.2-5.9,8.2c-1.1,2.3-1.6,5-2.9,7.2c-5,8.4-19.9,8.7-21.7,18.3
		c-0.4,2.2,0,4.5-1,6.5c-1.2,2.3-4.1,3.4-6.6,3c-7.3-0.9-10.4-9.9-10.2-17.2s2-15.2-1.6-21.6c-3.3-5.9-10.2-8.6-15.9-12.2
		c-4.7-3-9.2-8.1-9.2-13.3c16-5.3,33.1-8.2,50.9-8.2c10,0,19.8,0.9,29.4,2.7C283.9,104.7,283.4,114.4,278.1,122z"/>
	<path style="fill:#FFFFFF;" d="M215.3,189.4c-0.9,3.4-3.7,6.7-7.3,6.7c-2.4,0.1-5.2-1.2-6.9,0.5c-1.4,1.3-1.1,3.6-1,5.5
		c0.3,4.8-1.8,9.6-5.4,12.7c-2,1.7-4.4,2.9-6.2,4.8c-2.3,2.5-3.4,5.8-4.9,8.9c-7,14.4-22.8,22.1-37.9,27.4
		c-4.8,1.7-10.2,3.7-12.1,8.4c-1.5,3.8,0.1,8.5,3.5,10.6c3.5,2.1,8.4,1.3,11-1.7c0.5,4.7,1.1,9.8,4.1,13.5c1.8,2.2,4.4,3.8,6.5,5.8
		s3.7,5,2.8,7.8c-3,2.3-7.9,1.7-10.2-1.3c-2-2.6-2.1-6.2-4.2-8.7c-3.8-4.7-11.1-2.7-17.1-3.3c-10-0.8-18.2-11-17-20.9
		c0.2-1.6,0.6-3.5-0.4-4.8c-0.7-1.1-2.1-1.5-3.3-2c-3.9-1.6-7.1-4.7-8.8-8.5c-1-2-1.5-4.3-3-5.9c-1.2-1.3-2.7-2-4.4-2.7
		C97.7,179,138.8,126,195.3,103.9c0.4,4.2-0.4,8.3-3.9,10.1c-1,0.5-2.2,0.8-3,1.5c-1.5,1.4-1.4,4-0.2,5.7s3,2.8,4.8,3.9
		c9.5,6,17.8,15.9,17.4,27.1c-0.2,3.4-1.5,7.2-4.6,8.5c-2.4,1-5.2,0.2-7.6-0.7c-3.7-1.4-7.8-3.6-8.4-7.5c-0.4-2.4,0.7-4.8,0.9-7.3
		c0.1-2.5-1.6-5.5-4-5c-1.9,0.4-2.7,2.6-2.7,4.6c0,1.9,0.6,3.9,0.1,5.8c-0.7,2.8-3.5,4.5-6,5.8c-2.6,1.4-5.2,2.9-7.8,4.3
		c-3.7,2-7.6,4.2-9.8,7.8s-2.2,9,1.2,11.4c1.8,1.3,4.1,1.6,5.9,2.9c2.7,2.1,3,6,4.4,9.2c1.3,3.2,5.7,5.8,8,3.3
		c0.7-0.8,0.9-1.8,1.1-2.7c0.8-4.5,0.2-9,0.4-13.6c0.2-4.5,1.3-9.4,4.8-12.3c3.5-2.9,9.7-2.8,11.8,1.2c0.4,0.8,0.7,1.7,1.2,2.5
		c2.7,3.6,8.9-0.1,12.7,2.3c2,1.3,2.6,3.9,3,6.2C215.5,182.3,216.2,186,215.3,189.4z"/>
	<path style="fill:#FFFFFF;" d="M244.4,348c-3.1,3.9-2.9,9.3-4.3,14.1c-3.4,12.4-16.2,19.4-24,29.6c-1.8,2.4-3.4,5-5.9,6.7
		c-2.3,1.6-5.2,2.2-7.3,4.1c-1.1,1.1-1.9,2.4-2.5,3.8c-6.5-2.2-12.7-4.9-18.7-8c0-3,0.2-6.1,0.6-9.1c1.1-8.5,3.7-17.4,0.5-25.3
		c-2.9-7.4-10.1-11.9-15.3-17.9c-4.1-4.7-7.1-10.5-8.5-16.6c-0.7-2.8-0.9-5.9,0.7-8.3c1.1-1.6,2.9-2.7,4-4.3
		c2.7-4.1,0.2-10.1,2.9-14.2c1.4-2.1,3.9-3.2,6.3-3.9c16.9-5.3,36.8,1.1,47.4,15.3c1.1,1.5,2.2,3.1,3.8,4.2
		c4.1,2.6,10.7,0.7,13.5,4.7c1.1,1.5,1.3,3.4,2.2,4.9c2.8,4.7,11.5,4.9,12,10.3C252.2,342.4,247.1,344.7,244.4,348z"/>
</g>
<path style="fill:#84DBFF;" d="M297.8,166.8V256c-3.7,6.4-8.4,12.5-13.9,17.9c-9.1,9.1-19.7,15.8-31,20.1h-63
	c-11.3-4.3-21.9-11-31-20.1c-0.3-0.3-0.6-0.6-0.9-0.9c-7.2-7.4-12.9-15.8-16.9-24.6v-73.9c4.2-9.2,10.2-17.9,17.8-25.6
	c8.1-8.1,17.4-14.3,27.4-18.6h70.3c2.5,1.1,4.9,2.3,7.3,3.5c7.1,3.9,13.9,8.9,19.9,14.9c0,0,0.1,0.1,0.2,0.2
	C289.4,154.4,294,160.5,297.8,166.8z"/>
<g>
	<path style="fill:#E6E9EE;" d="M283.8,148.7c-5.5,3.4-12.3,5.5-15.7,9.9c-1,1.3-1.7,2.7-2.1,4.5c-0.5,2.5,0,5.1-1.1,7.3
		c-1.3,2.6-4.6,3.8-7.4,3.4c-8.2-1-11.7-11.1-11.4-19.3c0.1-2.9,0.4-6,0.6-8.9c0.3-5.4,0.2-10.7-2.4-15.3c0,0,0,0,0-0.1h12.3
		C266.4,134.5,275.7,140.7,283.8,148.7z"/>
	<path style="fill:#E6E9EE;" d="M229.9,200.9c-1,3.8-4.2,7.5-8.2,7.5c-2.7,0-5.8-1.3-7.7,0.5c-1.6,1.5-1.2,4-1.1,6.2
		c0.3,5.4-2,10.7-6,14.2c-2.2,1.9-4.9,3.3-6.9,5.4c-2.7,2.8-3.8,6.5-5.5,9.9c-4.1,8.6-11,15-19.2,20.1c-5.4,3.4-11.3,6.1-17.3,8.4
		c-7.2-7.4-12.9-15.8-16.9-24.6v-73.9c4.2-9.2,10.2-17.9,17.8-25.6c8.1-8.1,17.4-14.3,27.4-18.6h21.2c4.2,3,8.1,6.6,11.1,10.8
		c3.8,5.3,6.2,11.4,5.9,18c-0.2,3.8-1.7,8.1-5.2,9.5c-2.7,1.1-5.8,0.3-8.5-0.7c-4.1-1.5-8.7-4-9.4-8.4c-0.4-2.7,0.8-5.4,1-8.2
		c0.2-2.7-1.7-6.1-4.5-5.6c-2.1,0.4-3.1,3-3,5.2c0,2.1,0.6,4.3,0.1,6.4c-0.8,3.1-3.9,5-6.7,6.5c-2.9,1.6-5.9,3.2-8.8,4.8
		c-4.1,2.3-8.5,4.8-11,8.7c-2.5,4-2.5,10.1,1.4,12.8c2,1.4,4.6,1.7,6.6,3.3c3.1,2.4,3.4,6.7,4.9,10.3c1.5,3.5,6.4,6.5,8.9,3.7
		c0.8-0.9,1.1-2,1.3-3.1c0.9-5,0.2-10.1,0.4-15.2c0.2-5.1,1.5-10.5,5.3-13.8c3.9-3.3,10.8-3.1,13.2,1.4c0.5,0.9,0.8,1.9,1.4,2.8
		c3,4,10-0.1,14.2,2.6c2.2,1.4,2.9,4.3,3.4,6.9C230.1,193,230.8,197,229.9,200.9z"/>
</g>
<rect x="284.717" y="265.83" transform="matrix(-0.7071 0.7071 -0.7071 -0.7071 703.553 277.4382)" style="fill:#2B3B4E;" width="19.2" height="37.2"/>
<path style="fill:#324A5E;" d="M283.9,148.9c-34.5-34.5-90.5-34.5-125,0s-34.5,90.5,0,125s90.5,34.5,125,0S318.4,183.4,283.9,148.9z
	 M271.2,261.2c-27.5,27.5-72.1,27.5-99.6,0s-27.5-72.1,0-99.6s72.1-27.5,99.6,0S298.7,233.7,271.2,261.2z"/>
<path style="fill:#FF7058;" d="M308.2,277.1l-21.1,21.1c-0.8,0.8-0.8,2.2,0,3l75.3,75.3c0.8,0.8,2.2,0.8,3,0l21.1-21.1
	c0.8-0.8,0.8-2.2,0-3l-75.3-75.3C310.4,276.3,309.1,276.3,308.2,277.1z"/>
<g>
</g>
<g>
</g>
<g>
</g>
<g>
</g>
<g>
</g>
<g>
</g>
<g>
</g>
<g>
</g>
<g>
</g>
<g>
</g>
<g>
</g>
<g>
</g>
<g>
</g>
<g>
</g>
<g>
</g>
</svg>
