<?xml version="1.0" encoding="iso-8859-1"?>
<!-- Generator: Adobe Illustrator 19.0.0, SVG Export Plug-In . SVG Version: 6.00 Build 0)  -->
<svg version="1.1" id="Layer_1" xmlns="http://www.w3.org/2000/svg" xmlns:xlink="http://www.w3.org/1999/xlink" x="0px" y="0px"
	 viewBox="0 0 508 508" style="enable-background:new 0 0 508 508;" xml:space="preserve">
<circle style="fill:#90DFAA;" cx="254" cy="254" r="254"/>
<path style="fill:#324A5E;" d="M411.3,410.4H96.7c-3.3,0-6-2.7-6-6v-211h326.6v211.1C417.3,407.7,414.6,410.4,411.3,410.4z"/>
<path style="fill:#2B3B4E;" d="M254,264.4L98.1,403.8c4.3,4.1,10,6.6,16.4,6.6h279.1c6.3,0,12.1-2.5,16.4-6.6L254,264.4z"/>
<path style="fill:#E6E9EE;" d="M417.3,193.4L254,320.4l-163.3-127L243.4,74.6c6.2-4.8,15-4.8,21.2,0L417.3,193.4z"/>
<path style="fill:#FFFFFF;" d="M380.6,131.6v90.3L254,320.4l-126.6-98.5v-90.3c0-3.5,2.9-6.4,6.4-6.4h240.4
	C377.7,125.2,380.6,128,380.6,131.6z"/>
<g>
	<rect x="166" y="152.3" style="fill:#84DBFF;" width="168.5" height="10.6"/>
	<rect x="166" y="179" style="fill:#84DBFF;" width="168.5" height="10.6"/>
	<rect x="166" y="205.7" style="fill:#84DBFF;" width="112.2" height="10.6"/>
</g>
<g>
</g>
<g>
</g>
<g>
</g>
<g>
</g>
<g>
</g>
<g>
</g>
<g>
</g>
<g>
</g>
<g>
</g>
<g>
</g>
<g>
</g>
<g>
</g>
<g>
</g>
<g>
</g>
<g>
</g>
</svg>
