<?xml version="1.0" encoding="iso-8859-1"?>
<!-- Generator: Adobe Illustrator 19.0.0, SVG Export Plug-In . SVG Version: 6.00 Build 0)  -->
<svg version="1.1" id="Layer_1" xmlns="http://www.w3.org/2000/svg" xmlns:xlink="http://www.w3.org/1999/xlink" x="0px" y="0px"
	 viewBox="0 0 508 508" style="enable-background:new 0 0 508 508;" xml:space="preserve">
<circle style="fill:#90DFAA;" cx="254" cy="254" r="254"/>
<path style="fill:#2C9984;" d="M37,386.1C81.6,459.2,162.1,508,254,508s172.4-48.8,217-121.9H37z"/>
<g>
	<path style="fill:#2B3B4E;" d="M326.4,297.4H307V126.5c0-1,0.8-1.7,1.7-1.7h16c1,0,1.7,0.8,1.7,1.7L326.4,297.4L326.4,297.4z"/>
	<path style="fill:#2B3B4E;" d="M467.7,346.7l-115.2-12.9V129c0-3.8-3.1-6.9-6.9-6.9s-6.9,3.1-6.9,6.9v228.6h13.7H467
		c3,0,5.4-2.4,5.4-5.4C472.5,349.3,470.5,347,467.7,346.7z"/>
	<rect x="317.3" y="155.4" style="fill:#2B3B4E;" width="30.5" height="6.8"/>
	<rect x="317.3" y="257.5" style="fill:#2B3B4E;" width="30.5" height="6.8"/>
</g>
<path style="fill:#FFD05B;" d="M177,291.9l-16.5-34.5c-2.1-4.4-6.5-7.1-11.3-7.1H73.4c-5.7,0-10.6,3.8-12.1,9.2
	c-6.5,23.8-19.4,79-4.9,94.6h212.5c0,0,12.3-44.1,57.6-44.5c4.9,0,8.9-3.9,8.9-8.9l0,0c0-4.9-4-8.9-8.9-8.9H177V291.9z"/>
<circle style="fill:#324A5E;" cx="307" cy="347.2" r="38.6"/>
<circle style="fill:#ACB3BA;" cx="307" cy="347.2" r="25"/>
<circle style="fill:#E6E9EE;" cx="307" cy="347.2" r="10.3"/>
<circle style="fill:#324A5E;" cx="125.1" cy="347.2" r="38.6"/>
<circle style="fill:#ACB3BA;" cx="125.1" cy="347.2" r="25"/>
<circle style="fill:#E6E9EE;" cx="125.1" cy="347.2" r="10.3"/>
<path style="fill:#324A5E;" d="M136.1,269.8l21.4-129.1c1.6-9.9,10.8-16.9,20.8-15.8l65.1-0.1c23,0,41.8,18.4,42.3,41.4l2.6,123.1
	c0.9,3.9,0.4,8-1.2,11.7c-3.9,8.9-14,23.7-38.9,25.7c-9.2,0.8-16.1,1.1-21.3,1.3c-9,0.2-16.8-5.9-18.9-14.6l0,0
	c-1.7-7.4-7.7-13-15.1-14.3l-41.5-7.5C141.2,289.7,134.4,280,136.1,269.8z"/>
<path style="fill:#90DFAA;" d="M250,233.6c7.3,0,13.2-6,13-13.3l-1.1-53.6c-0.2-9.9-8.5-18-18.4-18l-52.1,0.1
	c-6.4,0-11.8,4.6-12.8,10.9l-9.7,58.8c-1.3,7.9,4.8,15.2,12.9,15.2H250V233.6z"/>
<path style="fill:#FF7058;" d="M74.5,290.3l-22.1-4.7c-0.7-0.1-1.1-0.8-1-1.5l4.9-22.8c0.1-0.7,0.8-1.1,1.5-1l22.1,4.7
	c0.7,0.1,1.1,0.8,1,1.5L76,289.3C75.9,290,75.2,290.4,74.5,290.3z"/>
<g>
</g>
<g>
</g>
<g>
</g>
<g>
</g>
<g>
</g>
<g>
</g>
<g>
</g>
<g>
</g>
<g>
</g>
<g>
</g>
<g>
</g>
<g>
</g>
<g>
</g>
<g>
</g>
<g>
</g>
</svg>
