<?xml version="1.0" encoding="iso-8859-1"?>
<!-- Generator: Adobe Illustrator 19.0.0, SVG Export Plug-In . SVG Version: 6.00 Build 0)  -->
<svg version="1.1" id="Layer_1" xmlns="http://www.w3.org/2000/svg" xmlns:xlink="http://www.w3.org/1999/xlink" x="0px" y="0px"
	 viewBox="0 0 508 508" style="enable-background:new 0 0 508 508;" xml:space="preserve">
<circle style="fill:#FD8469;" cx="254" cy="254" r="254"/>
<path style="fill:#FFFFFF;" d="M425.8,392.6H82.2c-1,0-1.9-0.8-1.9-1.9V146.9c0-1,0.8-1.9,1.9-1.9h343.5c1,0,1.9,0.8,1.9,1.9v243.8
	C427.6,391.8,426.8,392.6,425.8,392.6z"/>
<rect x="102.1" y="198.7" style="fill:#E6E9EE;" width="303.9" height="169.2"/>
<rect x="214.4" y="161" style="fill:#FD8469;" width="79.3" height="10.6"/>
<rect x="224.2" y="89.8" style="fill:#324A5E;" width="59.6" height="76.5"/>
<path style="fill:#54C0EB;" d="M202.4,312.2h-81.5c-0.9,0-1.5-0.7-1.5-1.5v-93.3c0-0.9,0.7-1.5,1.5-1.5h81.5c0.9,0,1.5,0.7,1.5,1.5
	v93.3C204,311.5,203.3,312.2,202.4,312.2z"/>
<path style="fill:#FFFFFF;" d="M193.5,282.4c-3-5-18.9-10.4-18.9-10.4c-0.8-1.7-3.7-3.7-3.7-3.7h-0.1c1.3-3,1.6-7,1.6-7
	c3.4-2.7,1.3-8,1.3-8c1.8-2.2,1.4-8.5,1.2-11.1c-0.1-0.7-0.3-1.3-0.7-1.9c-11-15.2-19-3.6-19-3.6s-8.8-0.5-6.2,14.1
	c0,0-2.3,8.4,1.5,8.7c0,0-0.2,6.5,1.7,9c-0.8,0.6-2.8,2.1-3.4,3.4c0,0-15.9,5.5-18.9,10.4c-3,5-4.8,26.3-4.4,29.9h33.1h6.2h33.1
	C198.3,308.7,196.5,287.3,193.5,282.4z"/>
<g>
	<rect x="217.5" y="215.9" style="fill:#CED5E0;" width="171.1" height="10.6"/>
	<rect x="217.5" y="246.7" style="fill:#CED5E0;" width="171.1" height="10.6"/>
	<rect x="217.5" y="277.6" style="fill:#CED5E0;" width="171.1" height="10.6"/>
	<rect x="217.5" y="308.4" style="fill:#CED5E0;" width="171.1" height="10.6"/>
	<rect x="217.5" y="339.3" style="fill:#CED5E0;" width="94.2" height="10.6"/>
</g>
<g>
</g>
<g>
</g>
<g>
</g>
<g>
</g>
<g>
</g>
<g>
</g>
<g>
</g>
<g>
</g>
<g>
</g>
<g>
</g>
<g>
</g>
<g>
</g>
<g>
</g>
<g>
</g>
<g>
</g>
</svg>
