<?xml version="1.0" encoding="iso-8859-1"?>
<!-- Generator: Adobe Illustrator 19.0.0, SVG Export Plug-In . SVG Version: 6.00 Build 0)  -->
<svg version="1.1" id="Layer_1" xmlns="http://www.w3.org/2000/svg" xmlns:xlink="http://www.w3.org/1999/xlink" x="0px" y="0px"
	 viewBox="0 0 508 508" style="enable-background:new 0 0 508 508;" xml:space="preserve">
<circle style="fill:#90DFAA;" cx="254" cy="254" r="254"/>
<path style="fill:#FFFFFF;" d="M395.8,301.6H112.2c-0.9,0-1.7-0.8-1.7-1.7v-187c0-0.9,0.8-1.7,1.7-1.7h283.5c0.9,0,1.7,0.8,1.7,1.7
	v187C397.5,300.9,396.7,301.6,395.8,301.6z"/>
<rect x="120.7" y="125.7" style="fill:#84DBFF;" width="266.5" height="156.7"/>
<path style="fill:#E6E9EE;" d="M432.2,396.8H75.8c-5.6,0-8.3-3.8-6.1-8.4l38.4-81.8c1.3-2.8,5.8-5.1,10-5.1h271.6
	c4.2,0,8.7,2.2,10,5.1l38.4,81.8C440.4,393,437.7,396.8,432.2,396.8z"/>
<polygon style="fill:#CED5E0;" points="115.9,312.8 90.9,366.1 417.1,366.1 392.1,312.8 "/>
<path style="fill:#324A5E;" d="M329.3,253.5v-26.8h26.1v-5.9H251.6v-39h89.5v-5.9h-92.5c-1.6,0-3,1.3-3,3v11.4h-74.8v-40.7h-5.9
	v43.7c0,1.6,1.3,3,3,3h77.8V221h-93.9v5.9h171.6v23.9H187.2v5.9h139.2C328,256.4,329.3,255.1,329.3,253.5z"/>
<g>
	<path style="fill:#FFFFFF;" d="M175.1,166.3h-14.2c-0.6,0-1-0.4-1-1v-24.8c0-0.6,0.4-1,1-1h14.2c0.6,0,1,0.4,1,1v24.8
		C176.1,165.8,175.7,166.3,175.1,166.3z"/>
	<path style="fill:#FFFFFF;" d="M328,184.9v-14.2c0-0.6,0.4-1,1-1h24.8c0.6,0,1,0.4,1,1v14.2c0,0.6-0.4,1-1,1H329
		C328.5,185.9,328,185.4,328,184.9z"/>
</g>
<g>
	<rect x="332" y="173.7" style="fill:#FF7058;" width="18.8" height="8.2"/>
	<rect x="163.9" y="143.5" style="fill:#FF7058;" width="8.2" height="18.8"/>
</g>
<g>
	<path style="fill:#FFFFFF;" d="M341.4,231v-14.2c0-0.6,0.4-1,1-1h24.8c0.6,0,1,0.4,1,1V231c0,0.6-0.4,1-1,1h-24.8
		C341.9,232,341.4,231.5,341.4,231z"/>
	<path style="fill:#FFFFFF;" d="M138.4,231v-14.2c0-0.6,0.4-1,1-1h24.8c0.6,0,1,0.4,1,1V231c0,0.6-0.4,1-1,1h-24.8
		C138.8,232,138.4,231.5,138.4,231z"/>
	<rect x="174.2" y="245.7" style="fill:#FFFFFF;" width="26.8" height="16.2"/>
</g>
<g>
	<rect x="345.4" y="219.7" style="fill:#FF7058;" width="18.8" height="8.2"/>
	<rect x="178.1" y="249.6" style="fill:#FF7058;" width="18.8" height="8.2"/>
	<rect x="142.3" y="219.7" style="fill:#FF7058;" width="18.8" height="8.2"/>
</g>
<g>
</g>
<g>
</g>
<g>
</g>
<g>
</g>
<g>
</g>
<g>
</g>
<g>
</g>
<g>
</g>
<g>
</g>
<g>
</g>
<g>
</g>
<g>
</g>
<g>
</g>
<g>
</g>
<g>
</g>
</svg>
