<?xml version="1.0" encoding="iso-8859-1"?>
<!-- Generator: Adobe Illustrator 19.0.0, SVG Export Plug-In . SVG Version: 6.00 Build 0)  -->
<svg version="1.1" id="Layer_1" xmlns="http://www.w3.org/2000/svg" xmlns:xlink="http://www.w3.org/1999/xlink" x="0px" y="0px"
	 viewBox="0 0 508 508" style="enable-background:new 0 0 508 508;" xml:space="preserve">
<circle style="fill:#324A5E;" cx="254" cy="254" r="254"/>
<path style="fill:#2B3B4E;" d="M92.7,450.2c43.9,36.1,100,57.8,161.3,57.8s117.4-21.7,161.3-57.8H92.7z"/>
<polygon style="fill:#E6E9EE;" points="314.4,449.1 127.8,449.1 157.4,178.2 284.8,178.2 "/>
<polygon style="fill:#CED5E0;" points="277.8,449.1 164.4,449.1 191,178.2 251.1,178.2 "/>
<path style="fill:#FFFFFF;" d="M288.1,178.2h-134c-4,0-7.2-3.2-7.2-7.2l0,0c0-4,3.2-7.2,7.2-7.2h134.1c4,0,7.2,3.2,7.2,7.2l0,0
	C295.3,175,292.1,178.2,288.1,178.2z"/>
<rect x="172.5" y="101.2" style="fill:#FF7058;" width="97.2" height="62.6"/>
<rect x="196.3" y="101.2" style="fill:#F1543F;" width="49.6" height="62.6"/>
<path style="fill:#FFFFFF;" d="M276.7,101.2H165.5c-2.6,0-4.7-2.1-4.7-4.7l0,0c0-2.6,2.1-4.7,4.7-4.7h111.2c2.6,0,4.7,2.1,4.7,4.7
	l0,0C281.4,99.1,279.3,101.2,276.7,101.2z"/>
<polygon style="fill:#FF7058;" points="269.7,91.7 172.5,91.7 221.1,58.9 "/>
<polygon style="fill:#F1543F;" points="245.9,91.7 196.3,91.7 221.1,58.9 "/>
<g>
	<rect x="209.7" y="210.7" style="fill:#ACB3BA;" width="22.8" height="35.4"/>
	<rect x="209.7" y="270" style="fill:#ACB3BA;" width="22.8" height="35.4"/>
	<rect x="209.7" y="329.4" style="fill:#ACB3BA;" width="22.8" height="35.4"/>
	<rect x="209.7" y="388.7" style="fill:#ACB3BA;" width="22.8" height="35.4"/>
</g>
<path style="fill:#FFD05B;" d="M269.7,154.9l237.5,79.5c-5.3-69.6-38.7-131.3-88.8-174l-148.6,49.7v44.8H269.7z"/>
<g>
</g>
<g>
</g>
<g>
</g>
<g>
</g>
<g>
</g>
<g>
</g>
<g>
</g>
<g>
</g>
<g>
</g>
<g>
</g>
<g>
</g>
<g>
</g>
<g>
</g>
<g>
</g>
<g>
</g>
</svg>
