<?xml version="1.0" encoding="iso-8859-1"?>
<!-- Generator: Adobe Illustrator 19.0.0, SVG Export Plug-In . SVG Version: 6.00 Build 0)  -->
<svg version="1.1" id="Layer_1" xmlns="http://www.w3.org/2000/svg" xmlns:xlink="http://www.w3.org/1999/xlink" x="0px" y="0px"
	 viewBox="0 0 508 508" style="enable-background:new 0 0 508 508;" xml:space="preserve">
<circle style="fill:#90DFAA;" cx="254" cy="254" r="254"/>
<g>
	<path style="fill:#2C9984;" d="M424.9,220.3c4.3-3.5,8.9-7.9,8.8-13.4c-0.1-7.2-7.6-11.7-14.1-14.7c5.2,0,10.3-2.2,13.9-5.9
		c0.9-0.9,1.7-1.9,2.9-2.3c2.9-0.9,5.2,2.7,5.5,5.7s-0.4,6.3,1.3,8.8c2.1,3.1,6.5,3.2,10.2,3.1c0.4-5.9-2.3-11.8-6.9-15.5
		c3.3-0.2,6.6-0.3,10-0.3c3-1.9,2.7-6.7,0.2-9.2s-6.3-3.2-9.8-3.3s-7.1,0.2-10.5-0.8c-1.9-0.6-3.6-1.6-5.5-2.2
		c-2.8-0.9-5.8-0.9-8.8-1c-10.5,0-21-0.1-31.5-0.1c-8.1,0-16.3-0.1-24-2.4c-6-1.8-11.6-5-17.7-6.4s-13.4-0.5-17.3,4.4
		c-2.2,2.7-3.4,6.6-6.6,7.9c-3.5,1.4-7.4-1.1-11.1-1.1c-5.2-0.1-9.4,4.3-14.5,5.3c-5.5,1.1-10.8-1.7-16.1-3.5
		c-10.3-3.5-22-2.9-31.9,1.5c-1.8,0.8-3.5,1.7-4.7,3.2c-3.5,4.3,0.4,12,5.9,11.8c0.5,2.6,0.2,5.5-1.1,7.8c-4.2,2-8.5,3.9-12.7,5.9
		c-2.1,1-4.3,2.1-5.3,4.2c-1,2.1,0.5,5.2,2.8,4.9c-1.7,2.5-5.3,2.5-8.3,2.9s-6.6,2.6-5.8,5.5c0.4,1.5,1.8,2.4,2.8,3.6
		c2.7,3.5,1,8.4-0.7,12.4c-1.3,2.9-2.5,5.9-4.3,8.6c-3.7,5.7-9.6,10.2-10.9,16.9c-1.6,7.8,4.3,15.7,11.6,18.9
		c7.3,3.2,15.7,2.8,23.6,1.9c1.5-0.2,3.1-0.3,4.5,0.3c3.5,1.5,3.4,6.3,3.4,10.1c0.1,3.8,2.7,8.6,6.3,7.3
		c-3.4,16.6-3.8,35.1,5.4,49.3c1.9,3,5,6,8.4,5.3c2-0.4,3.5-1.9,5.2-2.9c2.1-1.2,4.7-1.7,6.7-3.1c6.3-4.3,5.3-15,11.7-19.2
		c-0.7-0.9-1.4-1.8-2-2.7c4.5-3.1,5.4-9.3,5.9-14.7c0.7-6.9,1.3-13.7,2-20.6c0.3-2.9,0.7-6,2.8-8c2.6-2.5,7.8-3.6,7.1-7.1
		c-2-0.4-4.2-0.8-5.7-2.2c-1.5-1.4-2.1-4.1-0.5-5.5c0.7-0.6,1.7-0.8,2.7-1.1c6.8-1.7,13.1-5.7,17.4-11.3c0.8-1,1.6-2.4,1.2-3.6
		c-0.6-1.8-3-2-4.8-2.3c-5-0.8-9.3-4.8-10.3-9.8c2.6-2.2,6.6-0.5,9.2,1.7c2.6,2.1,5.5,4.8,8.9,4.2c2.7-0.5,4.8-3,7.5-2.9
		c1.5,0.1,2.9,1,4.1,2c4.2,3.5,7.4,8.4,8.8,13.7c1.3,4.8,1.3,10,3.5,14.5c2.2,4.4,8.2,7.7,12.2,4.8c0.2-7.7,0.4-15.3,0.5-23
		c3.9-1.4,8-2.9,12.1-2.3c4.1,0.5,8.2,3.7,8.4,7.8c0,1.4-0.4,2.9,0.1,4.3c1.4,3.9,7.7,2.4,10.8,5.2c1.6,1.4,2.8,4.1,4.9,3.6
		c1.2-0.3,1.8-1.6,2.2-2.8c1.8-5.6,1.9-12.5-2.4-16.5c4.5,1.6,9.8-0.3,13-3.8c3.2-3.6,4.5-8.6,4.4-13.4c-0.1-6-2.9-12.6-8.6-14.5
		C415.6,226.7,421,223.5,424.9,220.3z"/>
	<path style="fill:#2C9984;" d="M392.2,340.7c-1.4-1.1-1.2-3.3-0.3-4.8c0.9-1.5,2.3-2.6,3.3-4c2.9-3.9,2.9-9.9,6.8-12.8
		c3.3-2.5,8.4-1.8,11.5-4.5c2.4-2.1,3-5.6,5.1-8c2.6-3.1,7-3.8,11-4.4c1.6-0.2,3.7-0.2,4.5,1.2c0.5,1,0.1,2.2,0.1,3.4
		c-0.1,3.9,5.2,6.2,8.5,4.3c3.3-2,4.3-6.7,2.9-10.3c-0.6,4.7,0.2,9.7,2.4,13.9c2,3.9,5.2,7.5,5.6,11.9c0.4,4.3-2.2,8.4-5,11.7
		c-2.8,3.3-6.2,6.3-8,10.2c-1.5,3.2-2.8,7.6-6.3,7.7c-3.2,0.2-5.1-3.7-5.4-6.9c-0.3-3.2,0-6.8-2.2-9.3c-1-1.1-2.4-1.8-3.8-2.3
		c-2.3-0.8-4.8-1.1-7.2-1.1c-6.9,0.3-13.3,4.1-20.2,4.6C394.3,341.5,393,341.4,392.2,340.7z"/>
	<path style="fill:#2C9984;" d="M169.9,363.7c0.3-1.6,0.6-3.2,1-4.8c2.5,1.5,5.6-1.1,6.4-3.8c0.8-2.8,0.4-5.8,1.4-8.5
		c2.2-5.8,10.2-8.1,11.5-14.2c0.5-2.6-0.3-5.2,0.1-7.8c0.9-5.4,7.2-9.5,6.2-15s-8.2-6.7-13.5-8.4c-4.9-1.6-9.4-4.7-12.6-8.8
		c-1.1-1.5-2.1-3-3.3-4.5c-6.5-8.1-17.6-11.1-27.9-11.3c-1.2,0-2.5,0-3.6,0.7c-0.9,0.6-1.5,1.6-2,2.6c-3.6,6.9-5.9,14.3-8.2,21.8
		c-1,3.3-1.9,7.5,0.7,9.8c1.4,1.3,3.5,1.6,5.2,2.6c4.1,2.5,4.3,8.5,7.9,11.7c1.2,1.1,2.8,1.8,3.8,3.1c1.4,1.7,1.5,4.1,1.6,6.3
		c0.6,13.4,2.4,26.8,5.5,39.9c1.8,7.6,4.9,16.1,12.2,18.8c-0.5-4.6-0.9-9.1-1.4-13.7c-0.4-3.8-0.7-7.9,1.1-11.2
		C163.4,365.9,166.6,363.9,169.9,363.7z"/>
	<path style="fill:#2C9984;" d="M181.5,185.5c1.1-3.4-1.8-6.6-4.4-9.1c-2.6-2.5-5.2-6.2-3.4-9.3c7.8-0.4,15.4-3.2,21.4-8.1
		c-8.4-1.3-17.6-2.5-25,1.8c-5,2.9-9.4,8.2-15.1,7.3c-2.6-0.4-4.8-2.2-7.3-3.2c-6-2.4-12.7-0.1-18.7,2.3c-1.1,0.4-2.3,0.9-3.1,1.7
		c-0.8,0.8-1.3,1.9-2,2.9c-2.5,3.2-7.3,3.1-11.4,2.8c-10.9-0.9-21.9-1.5-32.8-1.8c-2.5-0.1-5.1-0.1-7.6,0.7s-4.6,2.4-6.6,4
		c-5.5,4.3-11,8.6-16.5,13c5.2,5.8,14.8,6.9,21.3,2.5c1-0.7,2-1.5,3.2-1.7c0.8-0.1,1.6,0.1,2.4,0.3c4.6,1.5,8.2,5.9,8.8,10.7
		c1.2,9.5-7.8,17.2-9.3,26.7c-1.2,7.7,2.8,15.1,6.6,21.8c4.7,8.2,10.4,17.3,19.6,19.4c3.2,0.7,6.6,0.5,9.8,1.2
		c3.2,0.6,6.6,2.4,7.6,5.5c-0.8-2.8-0.4-5.9,1.1-8.4c-2.3,0.4-4.7-1.5-4.9-3.8c-0.2-2.3,2-4.5,4.3-4.4c-1.3-1.7-4.1-1.2-5.8,0
		c-1.7,1.3-3.1,3.1-5,4c-3.6,1.6-8.1-1.1-9.3-4.9c-1.2-3.8,0.5-8,3.2-10.8c2.8-2.8,6.5-4.5,10.2-5.8c3.6-1.3,7.4-2.3,11.1-1.3
		c3.6,1,6.8,4.7,5.8,8.4c0.9,1.5,3.4,0.5,4.1-1.1c0.6-1.6,0.3-3.5,0.5-5.2c1-6.4,10.2-8.6,11.8-14.9c0.3-1,0.3-2.1,0.6-3.1
		c0.9-3.6,4.5-5.8,8.1-7s7.3-1.8,10.5-3.7c3.2-2,5.5-6.1,3.9-9.4c3.7,0.8,6.6-4.1,5.4-7.7c-1.1-3.6-4.6-6-7.8-8
		c-1.2-0.8-2.5-1.5-3.9-1.4c-1,0.1-1.9,0.8-2.7,1.5c-2.8,2.6-5,5.9-7.9,8.4s-7.1,4.1-10.6,2.5c0.5-1.8-1.5-3.2-3.2-3.8
		c-1.7-0.5-3.8-1-4.6-2.6c-1-2.1,0.9-4.4,2.8-5.7c5.6-3.9,12.7-5.6,19.4-4.8c1.1,0.1,2.2,0.3,3.2-0.1c3.4-1.5,3-8.7,6.6-7.9
		c2,0.4,2.3,3,2.6,5c0.4,3.1,2,6.1,4.8,7.5C176.5,189.5,180.5,188.4,181.5,185.5z"/>
</g>
<g>
</g>
<g>
</g>
<g>
</g>
<g>
</g>
<g>
</g>
<g>
</g>
<g>
</g>
<g>
</g>
<g>
</g>
<g>
</g>
<g>
</g>
<g>
</g>
<g>
</g>
<g>
</g>
<g>
</g>
</svg>
