<?xml version="1.0" encoding="iso-8859-1"?>
<!-- Generator: Adobe Illustrator 19.0.0, SVG Export Plug-In . SVG Version: 6.00 Build 0)  -->
<svg version="1.1" id="Layer_1" xmlns="http://www.w3.org/2000/svg" xmlns:xlink="http://www.w3.org/1999/xlink" x="0px" y="0px"
	 viewBox="0 0 508 508" style="enable-background:new 0 0 508 508;" xml:space="preserve">
<circle style="fill:#324A5E;" cx="254" cy="254" r="254"/>
<path style="fill:#E6E9EE;" d="M349.4,146.7H130.9c-12.2,0-22,9.9-22,22v218.5c0,12.2,9.9,22,22,22h218.5c12.2,0,22-9.9,22-22V168.7
	C371.4,156.5,361.6,146.7,349.4,146.7z"/>
<path style="fill:#84DBFF;" d="M148,205l36.8-58.3H131c-12.2,0-22.1,9.9-22.1,22.1v33.5v6v98l40.3,29.2l77.3-124.9L148,205z"/>
<path style="fill:#2C9984;" d="M357.6,148.3v22.8L237,378.2l-128.2-71.4v80.4c0,12.2,9.9,22.1,22.1,22.1h218.4
	c12.2,0,22.1-9.9,22.1-22.1V168.7C371.4,159.5,365.7,151.6,357.6,148.3z"/>
<polygon style="fill:#FFFFFF;" points="371.4,210.9 153.5,203.4 188.9,146.7 176.7,146.7 141.5,203 108.9,201.9 108.9,212.3 
	217.5,216 191.6,257.6 159.5,237.1 154,245.9 186.1,266.4 146.6,329.9 155.4,335.4 229.5,216.4 371.4,221.3 "/>
<path style="fill:#FFD05B;" d="M353.3,147.1l-123,218.4L108.9,297v23.8l111.3,62.7l-14.5,25.7h23.8l8.7-15.5l27.6,15.5h42.3
	l-59.7-33.6l121.3-215.4C366.9,153.4,360.7,148.4,353.3,147.1z"/>
<path style="fill:#FF7058;" d="M293.6,62.1c-53.1,0-96.1,43-96.1,96.1c0,75.3,64,102.7,96.1,167c32.1-64.3,96.1-91.8,96.1-167
	C389.7,105.1,346.7,62.1,293.6,62.1z"/>
<circle style="fill:#FFFFFF;" cx="293.6" cy="158.2" r="41.8"/>
<g>
</g>
<g>
</g>
<g>
</g>
<g>
</g>
<g>
</g>
<g>
</g>
<g>
</g>
<g>
</g>
<g>
</g>
<g>
</g>
<g>
</g>
<g>
</g>
<g>
</g>
<g>
</g>
<g>
</g>
</svg>
