<?xml version="1.0" encoding="iso-8859-1"?>
<!-- Generator: Adobe Illustrator 19.0.0, SVG Export Plug-In . SVG Version: 6.00 Build 0)  -->
<svg version="1.1" id="Layer_1" xmlns="http://www.w3.org/2000/svg" xmlns:xlink="http://www.w3.org/1999/xlink" x="0px" y="0px"
	 viewBox="0 0 508 508" style="enable-background:new 0 0 508 508;" xml:space="preserve">
<circle style="fill:#324A5E;" cx="254" cy="254" r="254"/>
<path style="fill:#FFFFFF;" d="M422.2,388.9H85.8c-2.8,0-5.1-2.3-5.1-5.1V124.2c0-2.8,2.3-5.1,5.1-5.1h336.5c2.8,0,5.1,2.3,5.1,5.1
	v259.7C427.3,386.6,425,388.9,422.2,388.9z"/>
<g>
	<path style="fill:#4CDBC4;" d="M430.3,260H77.7c-0.3,0-0.5-0.2-0.5-0.5v-11c0-0.3,0.2-0.5,0.5-0.5h352.7c0.3,0,0.5,0.2,0.5,0.5v11
		C430.9,259.8,430.6,260,430.3,260z"/>
	<path style="fill:#4CDBC4;" d="M248,391.4V116.7c0-0.3,0.2-0.5,0.5-0.5h11.1c0.3,0,0.5,0.2,0.5,0.5v274.7c0,0.3-0.2,0.5-0.5,0.5
		h-11.1C248.2,391.8,248,391.6,248,391.4z"/>
</g>
<path style="fill:#FF7058;" d="M315.5,270L315.5,270c8.9-8.9,8.9-23.2,0-32.1l0,0c-4.3-4.3-6.7-10-6.7-16.1l0,0
	c0-12.5-10.2-22.7-22.7-22.7l0,0c-6,0-11.8-2.4-16.1-6.6l0,0c-8.9-8.9-23.2-8.9-32.1,0l0,0c-4.3,4.3-10,6.6-16.1,6.6l0,0
	c-12.5,0-22.7,10.2-22.7,22.7l0,0c0,6-2.4,11.8-6.6,16.1l0,0c-8.9,8.9-8.9,23.2,0,32.1l0,0c4.3,4.3,6.6,10,6.6,16.1l0,0
	c0,12.5,10.2,22.7,22.7,22.7l0,0c6,0,11.8,2.4,16.1,6.7l0,0c8.9,8.9,23.2,8.9,32.1,0l0,0c4.3-4.3,10-6.7,16.1-6.7l0,0
	c12.5,0,22.7-10.2,22.7-22.7l0,0C308.8,280.1,311.2,274.3,315.5,270z"/>
<circle style="fill:#F1543F;" cx="254" cy="254" r="45.3"/>
<path style="fill:#FF7058;" d="M257.2,221.5l7.1,14.4c0.5,1,1.5,1.8,2.7,1.9l15.9,2.3c2.9,0.4,4.1,4,2,6.1l-11.5,11.2
	c-0.8,0.8-1.2,2-1,3.1l2.7,15.9c0.5,2.9-2.5,5.1-5.1,3.7l-14.2-7.5c-1-0.5-2.3-0.5-3.3,0l-14.2,7.5c-2.6,1.4-5.6-0.8-5.1-3.7
	l2.7-15.9c0.2-1.2-0.2-2.3-1-3.1l-11.5-11.2c-2.1-2.1-0.9-5.6,2-6.1l15.9-2.3c1.2-0.2,2.2-0.9,2.7-1.9l7.1-14.4
	C252.1,218.9,255.9,218.9,257.2,221.5z"/>
<g>
</g>
<g>
</g>
<g>
</g>
<g>
</g>
<g>
</g>
<g>
</g>
<g>
</g>
<g>
</g>
<g>
</g>
<g>
</g>
<g>
</g>
<g>
</g>
<g>
</g>
<g>
</g>
<g>
</g>
</svg>
