<?xml version="1.0" encoding="iso-8859-1"?>
<!-- Generator: Adobe Illustrator 19.0.0, SVG Export Plug-In . SVG Version: 6.00 Build 0)  -->
<svg version="1.1" id="Layer_1" xmlns="http://www.w3.org/2000/svg" xmlns:xlink="http://www.w3.org/1999/xlink" x="0px" y="0px"
	 viewBox="0 0 508 508" style="enable-background:new 0 0 508 508;" xml:space="preserve">
<circle style="fill:#90DFAA;" cx="254" cy="254" r="254"/>
<path style="fill:#2C9984;" d="M67.2,426.1C113.7,476.4,180.1,508,254,508s140.3-31.6,186.8-81.9H67.2z"/>
<g>
	<rect x="314.6" y="400.3" style="fill:#2B3B4E;" width="55.2" height="24.4"/>
	<rect x="138.2" y="400.3" style="fill:#2B3B4E;" width="55.2" height="24.4"/>
</g>
<path style="fill:#324A5E;" d="M405.4,409.6H102.6c-2.3,0-4.2-1.9-4.2-4.2V102.6c0-2.3,1.9-4.2,4.2-4.2h302.8c2.3,0,4.2,1.9,4.2,4.2
	v302.8C409.6,407.7,407.7,409.6,405.4,409.6z"/>
<rect x="119.6" y="119.6" style="fill:#2B3B4E;" width="256.2" height="268.9"/>
<polygon style="fill:#CED5E0;" points="282.6,313.2 223.1,267.3 223.1,195.3 212.5,195.3 212.5,267.3 152.9,313.2 159.3,321.5 
	217.8,276.6 276.2,321.5 "/>
<circle style="fill:#E6E9EE;" cx="217.9" cy="274.2" r="18.8"/>
<circle style="fill:#CED5E0;" cx="315.1" cy="240.8" r="32.6"/>
<circle style="fill:#ACB3BA;" cx="315.1" cy="240.8" r="21.6"/>
<circle style="fill:#CED5E0;" cx="315.1" cy="240.8" r="10.4"/>
<g>
</g>
<g>
</g>
<g>
</g>
<g>
</g>
<g>
</g>
<g>
</g>
<g>
</g>
<g>
</g>
<g>
</g>
<g>
</g>
<g>
</g>
<g>
</g>
<g>
</g>
<g>
</g>
<g>
</g>
</svg>
