<?xml version="1.0" encoding="iso-8859-1"?>
<!-- Generator: Adobe Illustrator 19.0.0, SVG Export Plug-In . SVG Version: 6.00 Build 0)  -->
<svg version="1.1" id="Layer_1" xmlns="http://www.w3.org/2000/svg" xmlns:xlink="http://www.w3.org/1999/xlink" x="0px" y="0px"
	 viewBox="0 0 508 508" style="enable-background:new 0 0 508 508;" xml:space="preserve">
<circle style="fill:#FD8469;" cx="254" cy="254" r="254"/>
<g>
	
		<rect x="163.662" y="237.269" transform="matrix(0.7071 -0.7071 0.7071 0.7071 -103.7829 229.6836)" style="fill:#324A5E;" width="123.399" height="5.7"/>
	
		<rect x="142.116" y="215.86" transform="matrix(0.7071 -0.7071 0.7071 0.7071 -94.9548 208.1781)" style="fill:#324A5E;" width="123.399" height="5.7"/>
</g>
<path style="fill:#2B3B4E;" d="M265.2,305.3l40.2-40.2l6.2,46.3L265.2,305.3z M303,272l-31,31l35.7,4.8L303,272z"/>
<g>
	
		<rect x="257.772" y="262.082" transform="matrix(-0.7071 -0.7071 0.7071 -0.7071 282.1559 646.7375)" style="fill:#324A5E;" width="34.5" height="5.7"/>
	
		<rect x="247.688" y="272.232" transform="matrix(-0.7071 -0.7071 0.7071 -0.7071 257.7653 656.9347)" style="fill:#324A5E;" width="34.5" height="5.7"/>
</g>
<path style="fill:#E6E9EE;" d="M325.8,257.9c-17.9-2.1-36.6,3.7-50.4,17.5l0,0c-13.8,13.8-19.6,32.4-17.5,50.4L325.8,257.9z"/>
<rect x="167.436" y="176.675" transform="matrix(-0.7071 0.7071 -0.7071 -0.7071 454.4347 188.2177)" style="fill:#CED5E0;" width="41.6" height="23.1"/>
<g>
	<path style="fill:#E6E9EE;" d="M248.7,287.8l-75.1-75.1c-0.3-0.3-0.3-0.8,0-1.1l37.9-37.9c0.3-0.3,0.8-0.3,1.1,0l75.1,75.1
		c0.3,0.3,0.3,0.8,0,1.1l-37.9,37.9C249.5,288.1,249,288.1,248.7,287.8z"/>
	<path style="fill:#E6E9EE;" d="M164.5,203.5l-18-18c-0.4-0.4-0.4-1.1,0-1.6l37.5-37.5c0.4-0.4,1.1-0.4,1.6,0l18,18
		c0.4,0.4,0.4,1.1,0,1.6L166,203.5C165.6,203.9,164.9,203.9,164.5,203.5z"/>
</g>
<path style="fill:#FFFFFF;" d="M115.1,389.2l-60.3-60.3c-0.7-0.7-0.7-1.9,0-2.7l104-104c0.7-0.7,1.9-0.7,2.7,0l60.3,60.3
	c0.7,0.7,0.7,1.9,0,2.7l-104,104C117.1,389.9,115.9,389.9,115.1,389.2z"/>
<g>
	
		<rect x="149.178" y="241.598" transform="matrix(-0.7071 -0.7071 0.7071 -0.7071 105.5509 544.4172)" style="fill:#54C0EB;" width="32.7" height="17.5"/>
	
		<rect x="177.378" y="269.802" transform="matrix(-0.7071 -0.7071 0.7071 -0.7071 133.7485 612.5038)" style="fill:#54C0EB;" width="32.7" height="17.5"/>
	
		<rect x="132.613" y="258.051" transform="matrix(-0.7071 -0.7071 0.7071 -0.7071 65.6391 560.7897)" style="fill:#54C0EB;" width="32.7" height="17.5"/>
	
		<rect x="160.823" y="286.253" transform="matrix(-0.7071 -0.7071 0.7071 -0.7071 93.8545 628.8818)" style="fill:#54C0EB;" width="32.7" height="17.5"/>
	
		<rect x="116.129" y="274.58" transform="matrix(-0.7071 -0.7071 0.7071 -0.7071 25.8109 577.3503)" style="fill:#54C0EB;" width="32.7" height="17.5"/>
	
		<rect x="144.339" y="302.781" transform="matrix(-0.7071 -0.7071 0.7071 -0.7071 54.027 645.4407)" style="fill:#54C0EB;" width="32.7" height="17.5"/>
	
		<rect x="99.564" y="291.171" transform="matrix(-0.7071 -0.7071 0.7071 -0.7071 -14.1995 593.9609)" style="fill:#54C0EB;" width="32.7" height="17.5"/>
	
		<rect x="127.774" y="319.376" transform="matrix(-0.7071 -0.7071 0.7071 -0.7071 14.0145 662.0564)" style="fill:#54C0EB;" width="32.7" height="17.5"/>
	
		<rect x="83.079" y="307.703" transform="matrix(-0.7071 -0.7071 0.7071 -0.7071 -54.0298 610.5267)" style="fill:#54C0EB;" width="32.7" height="17.5"/>
	
		<rect x="111.289" y="335.902" transform="matrix(-0.7071 -0.7071 0.7071 -0.7071 -25.8117 678.6119)" style="fill:#54C0EB;" width="32.7" height="17.5"/>
	
		<rect x="66.524" y="324.161" transform="matrix(-0.7071 -0.7071 0.7071 -0.7071 -93.9281 626.9149)" style="fill:#54C0EB;" width="32.7" height="17.5"/>
	
		<rect x="94.724" y="352.357" transform="matrix(-0.7071 -0.7071 0.7071 -0.7071 -65.7255 694.9896)" style="fill:#54C0EB;" width="32.7" height="17.5"/>
</g>
<path style="fill:#FFFFFF;" d="M282.5,221.8l-60.3-60.3c-0.7-0.7-0.7-1.9,0-2.7l104-104c0.7-0.7,1.9-0.7,2.7,0l60.3,60.3
	c0.7,0.7,0.7,1.9,0,2.7l-104,104C284.5,222.5,283.3,222.5,282.5,221.8z"/>
<g>
	
		<rect x="316.565" y="74.181" transform="matrix(-0.7071 -0.7071 0.7071 -0.7071 509.6802 376.979)" style="fill:#54C0EB;" width="32.7" height="17.5"/>
	
		<rect x="344.775" y="102.382" transform="matrix(-0.7071 -0.7071 0.7071 -0.7071 537.8969 445.0676)" style="fill:#54C0EB;" width="32.7" height="17.5"/>
	
		<rect x="300.081" y="90.711" transform="matrix(-0.7071 -0.7071 0.7071 -0.7071 469.8513 393.5414)" style="fill:#54C0EB;" width="32.7" height="17.5"/>
	
		<rect x="328.281" y="118.902" transform="matrix(-0.7071 -0.7071 0.7071 -0.7071 498.058 461.6058)" style="fill:#54C0EB;" width="32.7" height="17.5"/>
	
		<rect x="283.516" y="107.161" transform="matrix(-0.7071 -0.7071 0.7071 -0.7071 429.9416 409.9088)" style="fill:#54C0EB;" width="32.7" height="17.5"/>
	
		<rect x="311.726" y="135.361" transform="matrix(-0.7071 -0.7071 0.7071 -0.7071 458.1584 477.9974)" style="fill:#54C0EB;" width="32.7" height="17.5"/>
	
		<rect x="267.032" y="123.691" transform="matrix(-0.7071 -0.7071 0.7071 -0.7071 390.1126 426.4711)" style="fill:#54C0EB;" width="32.7" height="17.5"/>
	
		<rect x="295.161" y="151.962" transform="matrix(-0.7071 -0.7071 0.7071 -0.7071 418.1417 494.6234)" style="fill:#54C0EB;" width="32.7" height="17.5"/>
	
		<rect x="250.467" y="140.281" transform="matrix(-0.7071 -0.7071 0.7071 -0.7071 350.103 443.08)" style="fill:#54C0EB;" width="32.7" height="17.5"/>
	
		<rect x="278.677" y="168.482" transform="matrix(-0.7071 -0.7071 0.7071 -0.7071 378.3198 511.1686)" style="fill:#54C0EB;" width="32.7" height="17.5"/>
	
		<rect x="233.982" y="156.811" transform="matrix(-0.7071 -0.7071 0.7071 -0.7071 310.2741 459.6423)" style="fill:#54C0EB;" width="32.7" height="17.5"/>
	
		<rect x="262.182" y="185.012" transform="matrix(-0.7071 -0.7071 0.7071 -0.7071 338.4738 527.7239)" style="fill:#54C0EB;" width="32.7" height="17.5"/>
</g>
<circle style="fill:#324A5E;" cx="309.9" cy="309.9" r="9.6"/>
<g>
	<path style="fill:#FFFFFF;" d="M392.6,316.9c-2.2,0-4,1.8-4,4c0,36-29.3,65.2-65.2,65.2c-2.2,0-4,1.8-4,4s1.8,4,4,4
		c40.3,0,73.1-32.8,73.1-73.1C396.6,318.6,394.8,316.9,392.6,316.9z"/>
	<path style="fill:#FFFFFF;" d="M323.4,373.2c28.9,0,52.4-23.5,52.4-52.4c0-2.2-1.8-4-4-4s-4,1.8-4,4c0,24.5-19.9,44.4-44.4,44.4
		c-2.2,0-4,1.8-4,4C319.5,371.4,321.2,373.2,323.4,373.2z"/>
	<path style="fill:#FFFFFF;" d="M323.4,349.9c16,0,29.1-13,29.1-29.1c0-2.2-1.8-4-4-4s-4,1.8-4,4c0,11.7-9.5,21.1-21.1,21.1
		c-2.2,0-4,1.8-4,4C319.5,348.1,321.3,349.9,323.4,349.9z"/>
</g>
<g>
</g>
<g>
</g>
<g>
</g>
<g>
</g>
<g>
</g>
<g>
</g>
<g>
</g>
<g>
</g>
<g>
</g>
<g>
</g>
<g>
</g>
<g>
</g>
<g>
</g>
<g>
</g>
<g>
</g>
</svg>
