<?xml version="1.0" encoding="iso-8859-1"?>
<!-- Generator: Adobe Illustrator 19.0.0, SVG Export Plug-In . SVG Version: 6.00 Build 0)  -->
<svg version="1.1" id="Layer_1" xmlns="http://www.w3.org/2000/svg" xmlns:xlink="http://www.w3.org/1999/xlink" x="0px" y="0px"
	 viewBox="0 0 508 508" style="enable-background:new 0 0 508 508;" xml:space="preserve">
<circle style="fill:#FD8469;" cx="254" cy="254" r="254"/>
<polygon style="fill:#E6E9EE;" points="247.3,375.9 260.7,375.9 260.7,220.6 272.2,220.6 254,196.2 235.8,220.6 247.3,220.6 "/>
<g>
	<path style="fill:#324A5E;" d="M292.7,375.9V247.3h24.4v11.4l24.4-18.2l-24.4-18.2v11.4H286c-3.7,0-6.7,3-6.7,6.7v135.2h13.4V375.9
		z"/>
	<path style="fill:#324A5E;" d="M190.9,247.3h24.4v128.5h13.5V240.6c0-3.7-3-6.7-6.7-6.7h-31.2v-11.4l-24.4,18.2l24.4,18.2V247.3z"
		/>
</g>
<path style="fill:#FFFFFF;" d="M414.8,223c-4.2-22.2-12.9-42.8-25.2-60.8l17.4-29.4L375.2,101l-29.4,17.4
	c-18.1-12.3-38.7-20.9-60.8-25.2l-8.5-33.1h-45L223,93.2c-22.2,4.2-42.8,12.9-60.8,25.2L132.8,101L101,132.8l17.4,29.4
	c-12.3,18.1-20.9,38.7-25.2,60.8l-33.1,8.5v45l33.1,8.5c4.2,22.2,12.9,42.8,25.2,60.8L101,375.2l31.8,31.8l29.4-17.4
	c18.1,12.3,38.7,20.9,60.8,25.2l8.5,33.1h45l8.5-33.1c22.2-4.2,42.8-12.9,60.8-25.2l29.4,17.4l31.8-31.8l-17.4-29.4
	c12.3-18.1,20.9-38.7,25.2-60.8l33.1-8.5v-45L414.8,223z M254,368.3c-63.1,0-114.3-51.2-114.3-114.3S190.9,139.7,254,139.7
	S368.3,190.9,368.3,254S317.1,368.3,254,368.3z"/>
<g>
</g>
<g>
</g>
<g>
</g>
<g>
</g>
<g>
</g>
<g>
</g>
<g>
</g>
<g>
</g>
<g>
</g>
<g>
</g>
<g>
</g>
<g>
</g>
<g>
</g>
<g>
</g>
<g>
</g>
</svg>
