<?xml version="1.0" encoding="iso-8859-1"?>
<!-- Generator: Adobe Illustrator 19.0.0, SVG Export Plug-In . SVG Version: 6.00 Build 0)  -->
<svg version="1.1" id="Layer_1" xmlns="http://www.w3.org/2000/svg" xmlns:xlink="http://www.w3.org/1999/xlink" x="0px" y="0px"
	 viewBox="0 0 508 508" style="enable-background:new 0 0 508 508;" xml:space="preserve">
<circle style="fill:#90DFAA;" cx="254" cy="254" r="254"/>
<path style="fill:#FFFFFF;" d="M439.1,272.2v-36.5l-27-5c-3.9-26.8-14.4-51.4-29.9-72.1l15.5-22.6L372,110.2l-22.6,15.5
	c-20.7-15.4-45.3-26-72.1-29.9l-5-27h-36.5l-5,27c-26.8,3.9-51.4,14.4-72.1,29.9L136,110.2L110.2,136l15.5,22.6
	c-15.4,20.7-26,45.4-29.9,72.1l-27,5v36.5l27,5c3.9,26.8,14.4,51.4,29.9,72.1L110.2,372l25.8,25.8l22.6-15.5
	c20.7,15.4,45.4,26,72.1,29.9l5,27h36.5l5-27c26.8-3.9,51.4-14.4,72.1-29.9l22.6,15.5l25.8-25.8l-15.5-22.6
	c15.4-20.7,26-45.3,29.9-72.1L439.1,272.2z"/>
<circle style="fill:#E6E9EE;" cx="254" cy="254" r="119.5"/>
<circle style="fill:#FFFFFF;" cx="254" cy="254" r="103.8"/>
<circle style="fill:#90DFAA;" cx="254" cy="254" r="59.6"/>
<g>
</g>
<g>
</g>
<g>
</g>
<g>
</g>
<g>
</g>
<g>
</g>
<g>
</g>
<g>
</g>
<g>
</g>
<g>
</g>
<g>
</g>
<g>
</g>
<g>
</g>
<g>
</g>
<g>
</g>
</svg>
