<?xml version="1.0" encoding="iso-8859-1"?>
<!-- Generator: Adobe Illustrator 19.0.0, SVG Export Plug-In . SVG Version: 6.00 Build 0)  -->
<svg version="1.1" id="Layer_1" xmlns="http://www.w3.org/2000/svg" xmlns:xlink="http://www.w3.org/1999/xlink" x="0px" y="0px"
	 viewBox="0 0 508 508" style="enable-background:new 0 0 508 508;" xml:space="preserve">
<circle style="fill:#FD8469;" cx="254" cy="254" r="254"/>
<path style="fill:#FFD05B;" d="M413.3,275.3H307.8c-0.3,0-0.6-0.2-0.6-0.6v-115c0-0.3,0.2-0.6,0.6-0.6h105.5c0.3,0,0.6,0.2,0.6,0.6
	v114.9C413.9,275,413.6,275.3,413.3,275.3z"/>
<rect x="311.8" y="163.7" style="fill:#F9B54C;" width="97.6" height="107.1"/>
<g>
	<rect x="370.2" y="171.6" style="fill:#FFD05B;" width="33.6" height="5.6"/>
	<rect x="370.2" y="188.8" style="fill:#FFD05B;" width="33.6" height="5.6"/>
	<rect x="370.2" y="205.9" style="fill:#FFD05B;" width="33.6" height="5.6"/>
	<rect x="370.2" y="223" style="fill:#FFD05B;" width="33.6" height="5.6"/>
	<rect x="370.2" y="240.1" style="fill:#FFD05B;" width="33.6" height="5.6"/>
	<rect x="370.2" y="257.3" style="fill:#FFD05B;" width="33.6" height="5.6"/>
	<rect x="320.9" y="171.6" style="fill:#FFD05B;" width="33.6" height="5.6"/>
	<rect x="320.9" y="188.8" style="fill:#FFD05B;" width="33.6" height="5.6"/>
	<rect x="320.9" y="205.9" style="fill:#FFD05B;" width="33.6" height="5.6"/>
	<rect x="320.9" y="223" style="fill:#FFD05B;" width="33.6" height="5.6"/>
	<rect x="320.9" y="240.1" style="fill:#FFD05B;" width="33.6" height="5.6"/>
	<rect x="320.9" y="257.3" style="fill:#FFD05B;" width="33.6" height="5.6"/>
</g>
<rect x="359.9" y="163.7" style="fill:#324A5E;" width="1.3" height="107.1"/>
<g>
	<rect x="390.3" y="159.2" style="fill:#E6E9EE;" width="1.4" height="116.1"/>
	<rect x="389.4" y="181.9" style="fill:#E6E9EE;" width="3.3" height="1.8"/>
	<rect x="389.4" y="195.2" style="fill:#E6E9EE;" width="3.3" height="1.8"/>
	<rect x="389.4" y="237.4" style="fill:#E6E9EE;" width="3.3" height="1.8"/>
	<rect x="389.4" y="250.7" style="fill:#E6E9EE;" width="3.3" height="1.8"/>
	<rect x="382.1" y="159.2" style="fill:#E6E9EE;" width="1.4" height="116.1"/>
	<rect x="381.2" y="181.9" style="fill:#E6E9EE;" width="3.3" height="1.8"/>
	<rect x="381.2" y="195.2" style="fill:#E6E9EE;" width="3.3" height="1.8"/>
	<rect x="381.2" y="237.4" style="fill:#E6E9EE;" width="3.3" height="1.8"/>
	<rect x="381.2" y="250.7" style="fill:#E6E9EE;" width="3.3" height="1.8"/>
	<rect x="337.6" y="159.2" style="fill:#E6E9EE;" width="1.4" height="116.1"/>
	<rect x="336.7" y="181.9" style="fill:#E6E9EE;" width="3.3" height="1.8"/>
	<rect x="336.7" y="195.2" style="fill:#E6E9EE;" width="3.3" height="1.8"/>
	<rect x="336.7" y="237.4" style="fill:#E6E9EE;" width="3.3" height="1.8"/>
	<rect x="336.7" y="250.7" style="fill:#E6E9EE;" width="3.3" height="1.8"/>
	<rect x="329.4" y="159.2" style="fill:#E6E9EE;" width="1.4" height="116.1"/>
	<rect x="328.5" y="181.9" style="fill:#E6E9EE;" width="3.3" height="1.8"/>
	<rect x="328.5" y="195.2" style="fill:#E6E9EE;" width="3.3" height="1.8"/>
	<rect x="328.5" y="237.4" style="fill:#E6E9EE;" width="3.3" height="1.8"/>
	<rect x="328.5" y="250.7" style="fill:#E6E9EE;" width="3.3" height="1.8"/>
</g>
<path style="fill:#FF7058;" d="M306.7,275.3H201.3c-0.3,0-0.6-0.2-0.6-0.6v-115c0-0.3,0.2-0.6,0.6-0.6h105.5c0.3,0,0.6,0.2,0.6,0.6
	v114.9C307.3,275,307,275.3,306.7,275.3z"/>
<rect x="205.2" y="163.7" style="fill:#F1543F;" width="97.6" height="107.1"/>
<g>
	<rect x="263.6" y="171.6" style="fill:#FF7058;" width="33.6" height="5.6"/>
	<rect x="263.6" y="188.8" style="fill:#FF7058;" width="33.6" height="5.6"/>
	<rect x="263.6" y="205.9" style="fill:#FF7058;" width="33.6" height="5.6"/>
	<rect x="263.6" y="223" style="fill:#FF7058;" width="33.6" height="5.6"/>
	<rect x="263.6" y="240.1" style="fill:#FF7058;" width="33.6" height="5.6"/>
	<rect x="263.6" y="257.3" style="fill:#FF7058;" width="33.6" height="5.6"/>
	<rect x="214.3" y="171.6" style="fill:#FF7058;" width="33.6" height="5.6"/>
	<rect x="214.3" y="188.8" style="fill:#FF7058;" width="33.6" height="5.6"/>
	<rect x="214.3" y="205.9" style="fill:#FF7058;" width="33.6" height="5.6"/>
	<rect x="214.3" y="223" style="fill:#FF7058;" width="33.6" height="5.6"/>
	<rect x="214.3" y="240.1" style="fill:#FF7058;" width="33.6" height="5.6"/>
	<rect x="214.3" y="257.3" style="fill:#FF7058;" width="33.6" height="5.6"/>
</g>
<rect x="253.3" y="163.7" style="fill:#324A5E;" width="1.3" height="107.1"/>
<g>
	<rect x="283.7" y="159.2" style="fill:#E6E9EE;" width="1.4" height="116.1"/>
	<rect x="282.8" y="181.9" style="fill:#E6E9EE;" width="3.3" height="1.8"/>
	<rect x="282.8" y="195.2" style="fill:#E6E9EE;" width="3.3" height="1.8"/>
	<rect x="282.8" y="237.4" style="fill:#E6E9EE;" width="3.3" height="1.8"/>
	<rect x="282.8" y="250.7" style="fill:#E6E9EE;" width="3.3" height="1.8"/>
	<rect x="275.5" y="159.2" style="fill:#E6E9EE;" width="1.4" height="116.1"/>
	<rect x="274.6" y="181.9" style="fill:#E6E9EE;" width="3.3" height="1.8"/>
	<rect x="274.6" y="195.2" style="fill:#E6E9EE;" width="3.3" height="1.8"/>
	<rect x="274.6" y="237.4" style="fill:#E6E9EE;" width="3.3" height="1.8"/>
	<rect x="274.6" y="250.7" style="fill:#E6E9EE;" width="3.3" height="1.8"/>
	<rect x="231.1" y="159.2" style="fill:#E6E9EE;" width="1.4" height="116.1"/>
	<rect x="230.1" y="181.9" style="fill:#E6E9EE;" width="3.3" height="1.8"/>
	<rect x="230.1" y="195.2" style="fill:#E6E9EE;" width="3.3" height="1.8"/>
	<rect x="230.1" y="237.4" style="fill:#E6E9EE;" width="3.3" height="1.8"/>
	<rect x="230.1" y="250.7" style="fill:#E6E9EE;" width="3.3" height="1.8"/>
	<rect x="222.8" y="159.2" style="fill:#E6E9EE;" width="1.4" height="116.1"/>
	<rect x="221.9" y="181.9" style="fill:#E6E9EE;" width="3.3" height="1.8"/>
	<rect x="221.9" y="195.2" style="fill:#E6E9EE;" width="3.3" height="1.8"/>
	<rect x="221.9" y="237.4" style="fill:#E6E9EE;" width="3.3" height="1.8"/>
	<rect x="221.9" y="250.7" style="fill:#E6E9EE;" width="3.3" height="1.8"/>
</g>
<path style="fill:#84DBFF;" d="M200.2,275.3H94.7c-0.3,0-0.6-0.2-0.6-0.6v-115c0-0.3,0.2-0.6,0.6-0.6h105.5c0.3,0,0.6,0.2,0.6,0.6
	v114.9C200.7,275,200.5,275.3,200.2,275.3z"/>
<rect x="98.6" y="163.7" style="fill:#54C0EB;" width="97.6" height="107.1"/>
<g>
	<rect x="157.1" y="171.6" style="fill:#84DBFF;" width="33.6" height="5.6"/>
	<rect x="157.1" y="188.8" style="fill:#84DBFF;" width="33.6" height="5.6"/>
	<rect x="157.1" y="205.9" style="fill:#84DBFF;" width="33.6" height="5.6"/>
	<rect x="157.1" y="223" style="fill:#84DBFF;" width="33.6" height="5.6"/>
	<rect x="157.1" y="240.1" style="fill:#84DBFF;" width="33.6" height="5.6"/>
	<rect x="157.1" y="257.3" style="fill:#84DBFF;" width="33.6" height="5.6"/>
	<rect x="107.7" y="171.6" style="fill:#84DBFF;" width="33.6" height="5.6"/>
	<rect x="107.7" y="188.8" style="fill:#84DBFF;" width="33.6" height="5.6"/>
	<rect x="107.7" y="205.9" style="fill:#84DBFF;" width="33.6" height="5.6"/>
	<rect x="107.7" y="223" style="fill:#84DBFF;" width="33.6" height="5.6"/>
	<rect x="107.7" y="240.1" style="fill:#84DBFF;" width="33.6" height="5.6"/>
	<rect x="107.7" y="257.3" style="fill:#84DBFF;" width="33.6" height="5.6"/>
</g>
<rect x="146.8" y="163.7" style="fill:#324A5E;" width="1.3" height="107.1"/>
<g>
	<rect x="177.2" y="159.2" style="fill:#E6E9EE;" width="1.4" height="116.1"/>
	<rect x="176.2" y="181.9" style="fill:#E6E9EE;" width="3.3" height="1.8"/>
	<rect x="176.2" y="195.2" style="fill:#E6E9EE;" width="3.3" height="1.8"/>
	<rect x="176.2" y="237.4" style="fill:#E6E9EE;" width="3.3" height="1.8"/>
	<rect x="176.2" y="250.7" style="fill:#E6E9EE;" width="3.3" height="1.8"/>
	<rect x="168.9" y="159.2" style="fill:#E6E9EE;" width="1.4" height="116.1"/>
	<rect x="168" y="181.9" style="fill:#E6E9EE;" width="3.3" height="1.8"/>
	<rect x="168" y="195.2" style="fill:#E6E9EE;" width="3.3" height="1.8"/>
	<rect x="168" y="237.4" style="fill:#E6E9EE;" width="3.3" height="1.8"/>
	<rect x="168" y="250.7" style="fill:#E6E9EE;" width="3.3" height="1.8"/>
	<rect x="124.5" y="159.2" style="fill:#E6E9EE;" width="1.4" height="116.1"/>
	<rect x="123.6" y="181.9" style="fill:#E6E9EE;" width="3.3" height="1.8"/>
	<rect x="123.6" y="195.2" style="fill:#E6E9EE;" width="3.3" height="1.8"/>
	<rect x="123.6" y="237.4" style="fill:#E6E9EE;" width="3.3" height="1.8"/>
	<rect x="123.6" y="250.7" style="fill:#E6E9EE;" width="3.3" height="1.8"/>
	<rect x="116.3" y="159.2" style="fill:#E6E9EE;" width="1.4" height="116.1"/>
	<rect x="115.4" y="181.9" style="fill:#E6E9EE;" width="3.3" height="1.8"/>
	<rect x="115.4" y="195.2" style="fill:#E6E9EE;" width="3.3" height="1.8"/>
	<rect x="115.4" y="237.4" style="fill:#E6E9EE;" width="3.3" height="1.8"/>
	<rect x="115.4" y="250.7" style="fill:#E6E9EE;" width="3.3" height="1.8"/>
</g>
<path style="fill:#324A5E;" d="M94.1,275.3v90.4c0,30.4,24.7,55.1,55.1,55.1h209.5c30.4,0,55.1-24.7,55.1-55.1v-90.4H94.1z"/>
<polygon style="fill:#E6E9EE;" points="254,275.3 94.1,275.3 94.1,328.7 254,354.6 413.9,328.7 413.9,275.3 "/>
<g>
	
		<ellipse transform="matrix(0.6038 -0.7972 0.7972 0.6038 -142.1063 364.0703)" style="fill:#324A5E;" cx="295.175" cy="324.984" rx="12.101" ry="4.3"/>
	
		<ellipse transform="matrix(0.6038 0.7972 -0.7972 0.6038 343.2963 -40.7789)" style="fill:#324A5E;" cx="212.669" cy="324.942" rx="12.101" ry="4.3"/>
</g>
<g>
</g>
<g>
</g>
<g>
</g>
<g>
</g>
<g>
</g>
<g>
</g>
<g>
</g>
<g>
</g>
<g>
</g>
<g>
</g>
<g>
</g>
<g>
</g>
<g>
</g>
<g>
</g>
<g>
</g>
</svg>
