<?xml version="1.0" encoding="iso-8859-1"?>
<!-- Generator: Adobe Illustrator 19.0.0, SVG Export Plug-In . SVG Version: 6.00 Build 0)  -->
<svg version="1.1" id="Layer_1" xmlns="http://www.w3.org/2000/svg" xmlns:xlink="http://www.w3.org/1999/xlink" x="0px" y="0px"
	 viewBox="0 0 508 508" style="enable-background:new 0 0 508 508;" xml:space="preserve">
<circle style="fill:#324A5E;" cx="254" cy="254" r="254"/>
<path style="fill:#FFD05B;" d="M379.8,379H128.2c-2.6,0-4.6-2.1-4.6-4.6V116.9c0-2.6,2.1-4.6,4.6-4.6h251.6c2.6,0,4.6,2.1,4.6,4.6
	v257.4C384.5,376.9,382.4,379,379.8,379z"/>
<rect x="218.4" y="112.3" style="fill:#E6E9EE;" width="71.1" height="27.8"/>
<rect x="251.9" y="112.3" style="fill:#CED5E0;" width="4.1" height="27.8"/>
<path style="fill:#F9B54C;" d="M297.1,188.1h-86.2c-7.9,0-14.4-6.4-14.4-14.4l0,0c0-7.9,6.4-14.4,14.4-14.4h86.2
	c7.9,0,14.4,6.4,14.4,14.4l0,0C311.5,181.7,305.1,188.1,297.1,188.1z"/>
<path style="fill:#FFFFFF;" d="M394.5,406.1l8.4-178.2H105.1l8.4,178.2c0.4,7.8,6.8,14,14.7,14h251.7
	C387.7,420.1,394.2,413.9,394.5,406.1z"/>
<polygon style="fill:#E6E9EE;" points="401.6,256.1 402.9,227.8 105.1,227.8 106.8,264.7 "/>
<path style="fill:#FFFFFF;" d="M403.2,253H104.8c-11.6,0-21-9.4-21-21l0,0c0-11.6,9.4-21,21-21h298.4c11.6,0,21,9.4,21,21l0,0
	C424.2,243.6,414.8,253,403.2,253z"/>
<g>
	<path style="fill:#FFD05B;" d="M356.7,396.5L356.7,396.5c-6,0-10.6-4.6-10.4-10.3L350,297c0.3-6.2,5.5-11.3,11.8-11.3l0,0
		c6.3,0,11.1,5.1,10.8,11.3l-4.5,89.1C367.7,391.9,362.6,396.5,356.7,396.5z"/>
	<path style="fill:#FFD05B;" d="M315.6,396.5L315.6,396.5c-6,0-10.7-4.6-10.6-10.3l2-89.1c0.1-6.2,5.3-11.3,11.6-11.3l0,0
		c6.3,0,11.2,5.1,11,11.3l-2.9,89.1C326.6,391.9,321.6,396.5,315.6,396.5z"/>
	<path style="fill:#FFD05B;" d="M274.5,396.5L274.5,396.5c-6,0-10.8-4.6-10.8-10.3l0.4-89.1c0-6.2,5.1-11.3,11.4-11.3l0,0
		c6.3,0,11.3,5.1,11.2,11.3l-1.3,89.1C285.4,391.9,280.5,396.5,274.5,396.5z"/>
	<path style="fill:#FFD05B;" d="M233.5,396.5L233.5,396.5c-6,0-10.9-4.6-11-10.3l-1.3-89.1c-0.1-6.2,4.9-11.3,11.2-11.3l0,0
		c6.3,0,11.4,5.1,11.4,11.3l0.4,89.1C244.3,391.9,239.4,396.5,233.5,396.5z"/>
	<path style="fill:#FFD05B;" d="M192.4,396.5L192.4,396.5c-6,0-11-4.6-11.1-10.3l-2.9-89.1c-0.2-6.2,4.7-11.3,11-11.3l0,0
		c6.3,0,11.5,5.1,11.6,11.3l2,89.1C203.1,391.9,198.4,396.5,192.4,396.5z"/>
	<path style="fill:#FFD05B;" d="M151.3,396.5L151.3,396.5c-6,0-11-4.6-11.3-10.3l-4.5-89.1c-0.3-6.2,4.5-11.3,10.8-11.3l0,0
		c6.3,0,11.6,5.1,11.8,11.3l3.7,89.1C161.9,391.9,157.3,396.5,151.3,396.5z"/>
</g>
<g>
	<path style="fill:#F9B54C;" d="M372.2,293.8c-1.9-1.9-4.6-3.1-7.6-3.1c-6.2,0-11.5,5.1-11.8,11.3l-3.7,89.1c0,0.8,0,1.7,0.2,2.5
		c-2-1.9-3.2-4.6-3.1-7.5L350,297c0.3-6.2,5.6-11.3,11.8-11.3C367,285.7,371.1,289.1,372.2,293.8z"/>
	<path style="fill:#F9B54C;" d="M329.3,293.9c-2-1.9-4.7-3.1-7.7-3.1c-6.3,0-11.5,5.1-11.6,11.3l-2,89.1c0,0.8,0,1.6,0.2,2.3
		c-2-1.9-3.2-4.5-3.1-7.4l2-89.2c0.2-6.2,5.4-11.3,11.6-11.3C323.9,285.7,328.1,289.2,329.3,293.9z"/>
	<path style="fill:#F9B54C;" d="M286.3,294c-2-2-4.8-3.2-7.9-3.2c-6.3,0-11.4,5.1-11.4,11.3l-0.4,89.1c0,0.8,0.1,1.5,0.3,2.3
		c-1.9-1.9-3.2-4.5-3.2-7.3l0.4-89.2c0-6.2,5.1-11.3,11.4-11.3C280.8,285.7,285.1,289.2,286.3,294z"/>
	<path style="fill:#F9B54C;" d="M243.5,294.2l-0.1-0.1c-2.1-2.1-4.9-3.3-8-3.3c-6.3,0-11.3,5.1-11.2,11.3l1.2,89.1
		c0,0.7,0.1,1.4,0.2,2.1c-1.9-1.9-3.1-4.4-3.1-7.1l-1.3-89.2c-0.1-6.2,4.9-11.3,11.2-11.3c3.1,0,6,1.3,8,3.3
		C241.9,290.4,243,292.2,243.5,294.2z"/>
	<path style="fill:#F9B54C;" d="M200.5,294.4c0-0.1-0.2-0.2-0.2-0.3c-2.1-2.1-5-3.3-8.1-3.3c-6.2,0-11.2,5.1-11,11.3l2.9,89.1
		c0,0.7,0.1,1.3,0.3,2c-1.9-1.8-3.1-4.3-3.2-7.1l-2.9-89.2c-0.2-6.2,4.7-11.3,11-11.3c3.1,0,6,1.3,8.1,3.3
		C198.9,290.5,200,292.3,200.5,294.4z"/>
	<path style="fill:#F9B54C;" d="M157.6,294.5l-0.4-0.4c-2.1-2.1-5-3.3-8.2-3.3c-6.3,0-11.1,5.1-10.8,11.3l4.5,89.1
		c0,0.6,0.1,1.3,0.3,1.9c-1.8-1.8-3-4.2-3.2-6.9l-4.5-89.2c-0.3-6.2,4.5-11.3,10.8-11.3c3.1,0,6,1.3,8.2,3.3
		C155.9,290.5,157,292.4,157.6,294.5z"/>
</g>
<circle style="fill:#324A5E;" cx="347.1" cy="232" r="11.5"/>
<path style="fill:#84DBFF;" d="M426,316.8c-1.5,0-3-0.6-4.2-1.7l-78.9-78.9c-2.3-2.3-2.3-6.1,0-8.4s6.1-2.3,8.4,0l78.9,78.9
	c2.3,2.3,2.3,6.1,0,8.4C429,316.3,427.5,316.8,426,316.8z"/>
<circle style="fill:#324A5E;" cx="160.9" cy="232" r="11.5"/>
<path style="fill:#84DBFF;" d="M82,316.8c-1.5,0-3-0.6-4.2-1.7c-2.3-2.3-2.3-6.1,0-8.4l78.9-78.9c2.3-2.3,6.1-2.3,8.4,0
	s2.3,6.1,0,8.4l-78.9,78.9C85,316.3,83.5,316.8,82,316.8z"/>
<g>
</g>
<g>
</g>
<g>
</g>
<g>
</g>
<g>
</g>
<g>
</g>
<g>
</g>
<g>
</g>
<g>
</g>
<g>
</g>
<g>
</g>
<g>
</g>
<g>
</g>
<g>
</g>
<g>
</g>
</svg>
