<?xml version="1.0" encoding="iso-8859-1"?>
<!-- Generator: Adobe Illustrator 19.0.0, SVG Export Plug-In . SVG Version: 6.00 Build 0)  -->
<svg version="1.1" id="Layer_1" xmlns="http://www.w3.org/2000/svg" xmlns:xlink="http://www.w3.org/1999/xlink" x="0px" y="0px"
	 viewBox="0 0 507.8 507.8" style="enable-background:new 0 0 507.8 507.8;" xml:space="preserve">
<circle style="fill:#54C0EB;" cx="253.9" cy="253.9" r="253.9"/>
<path style="fill:#324A5E;" d="M365.2,68.1H142.6c-10.8,0-19.5,8.7-19.5,19.5v332.5c0,10.8,8.7,19.5,19.5,19.5h222.6
	c10.8,0,19.5-8.7,19.5-19.5V87.7C384.7,76.9,376,68.1,365.2,68.1z"/>
<g>
	<path style="fill:#2B3B4E;" d="M365.2,68.1h-45.1L163.4,439.7h201.8c10.8,0,19.5-8.7,19.5-19.5V87.7
		C384.7,76.9,376,68.1,365.2,68.1z"/>
	<path style="fill:#2B3B4E;" d="M292.9,90.7h-57.6c-2.2,0-3.9-1.7-3.9-3.9l0,0c0-2.2,1.7-3.9,3.9-3.9h57.6c2.2,0,3.9,1.7,3.9,3.9
		l0,0C296.8,89,295.1,90.7,292.9,90.7z"/>
	<path style="fill:#2B3B4E;" d="M222.9,90.7h-8c-2.2,0-3.9-1.7-3.9-3.9l0,0c0-2.2,1.7-3.9,3.9-3.9h8c2.2,0,3.9,1.7,3.9,3.9l0,0
		C226.8,89,225.1,90.7,222.9,90.7z"/>
</g>
<circle style="fill:#324A5E;" cx="253.9" cy="411.1" r="16.4"/>
<rect x="143" y="101.5" style="fill:#FFFFFF;" width="221.8" height="283.2"/>
<g>
	<polygon style="fill:#4CDBC4;" points="223.5,257.5 270.1,279.7 233.5,362.7 205.3,360.1 231.3,312.2 188.4,293.3 	"/>
	<polygon style="fill:#4CDBC4;" points="194.9,195 217.3,193.1 259.5,156.7 250,101.5 170.1,101.5 	"/>
</g>
<ellipse style="fill:#84DBFF;" cx="302.3" cy="241.7" rx="16.4" ry="15.8"/>
<path style="fill:#E6E9EE;" d="M165.1,384.7h5.8l2.9-31.2l15.2,10.6l65.1,6.1l3.7,14.4h6l-3.1-12l26.7,12h13.7l-14.2-6.4l17.1-34.3
	l60.8,8.5v-5.7l-64.2-8.9l-18.9,38.1l-21.5-9.7l24.7-59.1l79.9,9.3v-5.5l-23.8-2.8l23.8-22.5v-7.9l-31.1,29.5l-46.5-5.4l17.4-41.7
	c9.4-1.1,16.7-8.7,17-18l43.2-2.4v-5.6l-43.9,2.5c-2-6.9-8.1-12.2-15.6-13.3v-38.8l-41.9-27.9l-5.8-31l63.9-14.6l43.3,87.9v-13
	L352,160l12.8-14.7v-8.7l-15.5,17.8l-26-52.8h-6.4l2.1,4.2l-62.3,14.3l-3.4-18.5h-5.9l10.3,55.6l-41.2,33.3l-18.8,2.1l-24.4-91h-6
	l24.6,91.7l-48,5.3v5.6l72.5-8.1l28,35.9l-55.7,55.2l-44.8-19.7v6.2l87.6,38.6l-26,47.8l-14.2-1.3l-47.5-33.1v6.9l24.7,17.2
	L165.1,384.7z M315.8,241.7c0,7.2-6,13-13.5,13s-13.5-5.8-13.5-13s6-13,13.5-13S315.8,234.5,315.8,241.7z M221.5,193.6l39.4-31.8
	l38.6,25.7v35.8c-8.3,1.2-14.8,7.5-16.1,15.5l-25.4,1.4L221.5,193.6z M247.7,236.5l7.4,9.5l28.2-1.6c1.2,7.8,7.3,14,15.2,15.5
	l-43.8,104.8l-15.1-1.4l38.2-86.5l-50.2-20.3L247.7,236.5z M239.3,309.6l-45.2-19.9l29.1-28.8l46.9,18.9l-36.6,83l-21.9-2.1
	L239.3,309.6z"/>
<path style="fill:#FF7058;" d="M269.3,198.9c0,23.5-42.5,72.2-42.5,72.2s-42.5-48.7-42.5-72.2s19-42.5,42.5-42.5
	C250.3,156.4,269.3,175.5,269.3,198.9z"/>
<circle style="fill:#FFFFFF;" cx="226.8" cy="199.1" r="18.1"/>
<path style="fill:#FF7058;" d="M327.9,317.2c0,11.7-21.3,36.1-21.3,36.1s-21.3-24.3-21.3-36.1c0-11.7,9.5-21.3,21.3-21.3
	C318.4,296,327.9,305.5,327.9,317.2z"/>
<circle style="fill:#FFFFFF;" cx="306.6" cy="317.3" r="9.1"/>
<g>
</g>
<g>
</g>
<g>
</g>
<g>
</g>
<g>
</g>
<g>
</g>
<g>
</g>
<g>
</g>
<g>
</g>
<g>
</g>
<g>
</g>
<g>
</g>
<g>
</g>
<g>
</g>
<g>
</g>
</svg>
