<?xml version="1.0" encoding="iso-8859-1"?>
<!-- Generator: Adobe Illustrator 19.0.0, SVG Export Plug-In . SVG Version: 6.00 Build 0)  -->
<svg version="1.1" id="Layer_1" xmlns="http://www.w3.org/2000/svg" xmlns:xlink="http://www.w3.org/1999/xlink" x="0px" y="0px"
	 viewBox="0 0 508 508" style="enable-background:new 0 0 508 508;" xml:space="preserve">
<circle style="fill:#4CDBC4;" cx="254" cy="254" r="254"/>
<path style="fill:#FF7058;" d="M371,203c-28.4-2.7-55-9.5-66.6-16.1c-2.8,2.3-6.3,3.4-9.8,3.3c12.7,11.4,46.5,18.6,75.5,21.4
	C370.6,208.8,370.9,205.9,371,203z"/>
<path style="fill:#FFFFFF;" d="M342.3,267.2L204.4,405.1c-5.7,5.7-14.8,5.7-20.5,0L64.8,285.9c-5.7-5.7-5.7-14.8,0-20.5l137.9-137.9
	c19.3-19.3,44.5-28.9,69.8-28.9c25.2,0,50.5,9.6,69.8,28.9c7,7,12.7,14.8,17.1,23c1.5,2.7,2.8,5.5,3.9,8.3c6,14,8.5,29.2,7.6,44.1
	c-28.4-2.7-55-9.5-66.6-16.1c0.5-0.3,0.9-0.7,1.3-1.1c3.9-3.9,5.2-9.3,4-14.2c-0.6-2.7-1.9-5.3-4-7.4l-0.2-0.2
	c-4-4-10.1-5.6-15.5-3.6c-11.4,4.4-13.5,17.8-5.9,25.4c2.9,2.9,6.7,4.4,10.5,4.5c12.7,11.4,46.5,18.6,75.5,21.4
	C367.2,232,357.9,251.6,342.3,267.2z"/>
<rect x="119.105" y="202.812" transform="matrix(-0.7071 0.7071 -0.7071 -0.7071 522.7854 342.2776)" style="fill:#E6E9EE;" width="142.799" height="153.199"/>
<path style="fill:#324A5E;" d="M447.4,180.5c0-23.1-15-32.5-51.9-32.5c-10.3,0-23,0.9-36.1,2.6c1.5,2.7,2.8,5.5,3.9,8.3
	c10.5-1.3,21.5-2,32.1-2c43,0,43,14.3,43,23.6c0,9.4,0,23.7-43,23.7c-8.1,0-16.4-0.4-24.5-1.2c-28.4-2.7-55-9.5-66.6-16.1
	c-4-2.2-6.2-4.4-6.2-6.4c0-2.8,4.3-5.9,11.5-9c-0.6-2.7-1.9-5.3-4-7.4l-0.2-0.2c-9.8,4.6-16.1,10.1-16.1,16.5c0,3.5,1.9,6.8,5.2,9.7
	c12.7,11.4,46.5,18.6,75.5,21.4c9.2,0.9,17.9,1.3,25.4,1.3C432.4,213,447.4,203.6,447.4,180.5z"/>
<g>
</g>
<g>
</g>
<g>
</g>
<g>
</g>
<g>
</g>
<g>
</g>
<g>
</g>
<g>
</g>
<g>
</g>
<g>
</g>
<g>
</g>
<g>
</g>
<g>
</g>
<g>
</g>
<g>
</g>
</svg>
