<?xml version="1.0" encoding="iso-8859-1"?>
<!-- Generator: Adobe Illustrator 19.0.0, SVG Export Plug-In . SVG Version: 6.00 Build 0)  -->
<svg version="1.1" id="Layer_1" xmlns="http://www.w3.org/2000/svg" xmlns:xlink="http://www.w3.org/1999/xlink" x="0px" y="0px"
	 viewBox="0 0 508 508" style="enable-background:new 0 0 508 508;" xml:space="preserve">
<circle style="fill:#90DFAA;" cx="254" cy="254" r="254"/>
<path style="fill:#2C9984;" d="M35.2,383.1C79.5,457.8,160.8,508,254,508s174.5-50.2,218.8-124.9H35.2z"/>
<polygon style="fill:#2B3B4E;" points="308.9,334.1 403.3,334.1 392.4,361.7 319.8,361.7 "/>
<circle style="fill:#324A5E;" cx="392.4" cy="361.7" r="21.4"/>
<circle style="fill:#2B3B4E;" cx="392.4" cy="361.7" r="13.3"/>
<circle style="fill:#324A5E;" cx="317.8" cy="361.7" r="21.4"/>
<g>
	<circle style="fill:#2B3B4E;" cx="317.8" cy="361.7" r="13.3"/>
	<polygon style="fill:#2B3B4E;" points="106.7,334.1 201.1,334.1 190.2,361.7 117.6,361.7 	"/>
</g>
<circle style="fill:#324A5E;" cx="190.2" cy="361.7" r="21.4"/>
<circle style="fill:#2B3B4E;" cx="190.2" cy="361.7" r="13.3"/>
<circle style="fill:#324A5E;" cx="115.6" cy="361.7" r="21.4"/>
<circle style="fill:#2B3B4E;" cx="115.6" cy="361.7" r="13.3"/>
<path style="fill:#FF7058;" d="M406.6,147.1c-18.1,0-287.1,0-305.3,0c-39.1,50.4-39.1,120.8,0,171.2c50.9,0,254.4,0,305.3,0
	C445.7,267.8,445.7,197.4,406.6,147.1z"/>
<rect x="152.1" y="136" style="fill:#2B3B4E;" width="64.1" height="11.1"/>
<rect x="145.4" y="124.9" style="fill:#E6E9EE;" width="77.5" height="11.1"/>
<path style="fill:#324A5E;" d="M431.5,318.2h-355c-0.3,0-0.6,0.3-0.6,0.6V335c0,0.3,0.3,0.6,0.6,0.6h355.1c0.3,0,0.6-0.3,0.6-0.6
	v-16.1C432.1,318.5,431.9,318.2,431.5,318.2z"/>
<g>
	<rect x="291.3" y="147.1" style="fill:#E6E9EE;" width="6.6" height="171.2"/>
	<rect x="335.9" y="147.1" style="fill:#E6E9EE;" width="6.6" height="171.2"/>
	<rect x="294.6" y="161.2" style="fill:#E6E9EE;" width="44.6" height="5.8"/>
	<rect x="294.6" y="184.1" style="fill:#E6E9EE;" width="44.6" height="5.8"/>
	<rect x="294.6" y="206.9" style="fill:#E6E9EE;" width="44.6" height="5.8"/>
	<rect x="294.6" y="229.7" style="fill:#E6E9EE;" width="44.6" height="5.8"/>
	<rect x="294.6" y="252.6" style="fill:#E6E9EE;" width="44.6" height="5.8"/>
	<rect x="294.6" y="275.4" style="fill:#E6E9EE;" width="44.6" height="5.8"/>
	<rect x="294.6" y="298.2" style="fill:#E6E9EE;" width="44.6" height="5.8"/>
</g>
<g>
</g>
<g>
</g>
<g>
</g>
<g>
</g>
<g>
</g>
<g>
</g>
<g>
</g>
<g>
</g>
<g>
</g>
<g>
</g>
<g>
</g>
<g>
</g>
<g>
</g>
<g>
</g>
<g>
</g>
</svg>
