<?xml version="1.0" encoding="iso-8859-1"?>
<!-- Generator: Adobe Illustrator 19.0.0, SVG Export Plug-In . SVG Version: 6.00 Build 0)  -->
<svg version="1.1" id="Layer_1" xmlns="http://www.w3.org/2000/svg" xmlns:xlink="http://www.w3.org/1999/xlink" x="0px" y="0px"
	 viewBox="0 0 508 508" style="enable-background:new 0 0 508 508;" xml:space="preserve">
<circle style="fill:#84DBFF;" cx="254" cy="254" r="254"/>
<path style="fill:#E6E9EE;" d="M337.7,314.2h-21l7.4,24.4H183.9l7.4-24.4h-21l-60.2,149.1c9.7,6.7,19.9,12.7,30.6,18l10.1-33.5
	h206.3l10.1,33.5c10.6-5.3,20.9-11.3,30.6-18L337.7,314.2z M182.1,344.5h143.8l5.8,19.3H176.2L182.1,344.5z M174,371.2h160l7.3,24.1
	H166.7L174,371.2z M154.5,435.6l9.4-30.9h180.2l9.4,30.9H154.5z"/>
<path style="fill:#324A5E;" d="M360.6,278.4c0,3.7-0.2,7.4-0.6,11c-1,9.3-3.2,18.1-6.4,26.5c-2.5,6.4-8.6,10.8-15.6,10.8H170
	c-6.9,0-13-4.3-15.6-10.8c-3.3-8.4-5.5-17.2-6.4-26.5c-0.4-3.6-0.6-7.3-0.6-11c0-5.2,0.4-10.4,1.2-15.4h210.9
	C360.2,268,360.6,273.2,360.6,278.4z"/>
<g>
	<path style="fill:#ACB3BA;" d="M359.5,263h-11.8l2.9,2.9l-60.8,60.8h33l37.2-37.2c0.4-3.6,0.6-7.3,0.6-11
		C360.6,273.2,360.2,268,359.5,263z M157.5,265.9l2.9-2.9h-11.9c-0.7,5-1.2,10.2-1.2,15.4c0,3.7,0.2,7.4,0.6,11l37.2,37.2h33.1
		L157.5,265.9z"/>
	<path style="fill:#ACB3BA;" d="M321.2,263h-33l2.9,2.9L254,303l-37.1-37.1l2.9-2.9h-33l-2.9,2.9l60.8,60.8h18.7l60.8-60.8
		L321.2,263z"/>
</g>
<path style="fill:#324A5E;" d="M339,255.9H169c-11.3,0-20.4-9.1-20.4-20.4V93.2c0-10.1,7.3-18.6,17.3-20.2
	c58.4-9.3,117.8-9.3,176.2,0c9.9,1.6,17.3,10.1,17.3,20.2c0,47.5,0,94.9,0,142.4C359.4,246.8,350.2,255.9,339,255.9z"/>
<g>
	<rect x="163.1" y="99.5" style="fill:#CED5E0;" width="87.7" height="57.5"/>
	<rect x="257.2" y="99.5" style="fill:#CED5E0;" width="87.8" height="57.5"/>
</g>
<g>
	<polygon style="fill:#E6E9EE;" points="345,99.5 257.2,161 257.2,99.5 	"/>
	<polygon style="fill:#E6E9EE;" points="250.8,99.5 163.1,161 163.1,99.5 	"/>
</g>
<path style="fill:#2B3B4E;" d="M349.2,278.8H158.8c-12.6,0-22.8-10.2-22.8-22.8v-78.2c0-11.3,8.2-20.9,19.4-22.6
	c65.4-10.4,132-10.4,197.4,0c11.1,1.8,19.4,11.3,19.4,22.6c0,53.2,0,25,0,78.2C372.1,268.5,361.8,278.8,349.2,278.8z"/>
<g>
	<rect x="135.9" y="184.2" style="fill:#ACB3BA;" width="236.1" height="7.8"/>
	<rect x="135.9" y="199.3" style="fill:#ACB3BA;" width="236.1" height="7.8"/>
</g>
<g>
	<circle style="fill:#FFD05B;" cx="339.7" cy="243.7" r="14.6"/>
	<circle style="fill:#FFD05B;" cx="168.3" cy="243.7" r="14.6"/>
</g>
<g>
</g>
<g>
</g>
<g>
</g>
<g>
</g>
<g>
</g>
<g>
</g>
<g>
</g>
<g>
</g>
<g>
</g>
<g>
</g>
<g>
</g>
<g>
</g>
<g>
</g>
<g>
</g>
<g>
</g>
</svg>
