<?xml version="1.0" encoding="iso-8859-1"?>
<!-- Generator: Adobe Illustrator 19.0.0, SVG Export Plug-In . SVG Version: 6.00 Build 0)  -->
<svg version="1.1" id="Layer_1" xmlns="http://www.w3.org/2000/svg" xmlns:xlink="http://www.w3.org/1999/xlink" x="0px" y="0px"
	 viewBox="0 0 507.8 507.8" style="enable-background:new 0 0 507.8 507.8;" xml:space="preserve">
<circle style="fill:#84DBFF;" cx="253.9" cy="253.9" r="253.9"/>
<g>
	<path style="fill:#FFFFFF;" d="M322.6,182.1c-17.1,18.5-41.5,30.2-68.7,30.2s-51.7-11.7-68.7-30.2c1.6-11,3.7-21.4,6.3-25.6
		c5.9-9.8,37.1-20.6,37.1-20.6c1.2-2.5,5-5.5,6.6-6.7c-3.7-4.9-3.4-17.8-3.4-17.8c-7.4-0.4-2.9-17-2.9-17
		C223.7,65.6,241,66.7,241,66.7s15.7-22.8,37.2,7.1c0.8,1.1,1.2,2.3,1.4,3.7c0.5,4.9,1.2,17.4-2.4,21.7c0,0,4.1,10.4-2.5,15.7
		c0,0-0.5,7.8-3.1,13.6l0.3,0.1c0,0,5.8,4.1,7.3,7.2c0,0,31.1,10.8,37.1,20.6C319,160.7,321.1,171.1,322.6,182.1z"/>
	<path style="fill:#FFFFFF;" d="M429.8,372.2c-17.1,18.5-41.5,30.2-68.7,30.2c-27.2,0-51.7-11.7-68.7-30.2c1.6-11,3.7-21.4,6.3-25.6
		c5.9-9.8,37.1-20.6,37.1-20.6c1.2-2.5,5-5.5,6.6-6.7c-3.7-4.9-3.4-17.8-3.4-17.8c-7.4-0.4-2.9-17-2.9-17
		c-5.2-28.8,12.1-27.7,12.1-27.7s15.7-22.8,37.2,7.1c0.8,1.1,1.2,2.3,1.4,3.7c0.5,4.9,1.2,17.4-2.4,21.7c0,0,4.1,10.4-2.5,15.7
		c0,0-0.5,7.8-3.1,13.6l0.3,0.1c0,0,5.8,4.1,7.3,7.2c0,0,31.1,10.8,37.1,20.6C426.2,350.7,428.3,361.2,429.8,372.2z"/>
	<path style="fill:#FFFFFF;" d="M215.5,372.2c-17.1,18.5-41.5,30.2-68.7,30.2s-51.7-11.7-68.7-30.2c1.6-11,3.7-21.4,6.3-25.6
		c5.9-9.8,37.1-20.6,37.1-20.6c1.2-2.5,5-5.5,6.6-6.7c-3.7-4.9-3.4-17.8-3.4-17.8c-7.4-0.4-2.9-17-2.9-17
		c-5.2-28.8,12.1-27.7,12.1-27.7s15.7-22.8,37.2,7.1c0.8,1.1,1.2,2.3,1.4,3.7c0.5,4.9,1.2,17.4-2.4,21.7c0,0,4.1,10.4-2.5,15.7
		c0,0-0.5,7.8-3.1,13.6l0.3,0.1c0,0,5.8,4.1,7.3,7.2c0,0,31.1,10.8,37.1,20.6C211.9,350.7,214,361.2,215.5,372.2z"/>
</g>
<g>
	<path style="fill:#FF7058;" d="M423.5,213.8v-56.5c0-26.1-21.3-47.4-47.4-47.4h-49.7V99.3l-26.3,18.3l26.3,18.3v-14.1h49.7
		c19.6,0,35.5,15.9,35.5,35.5v56.5h-12.4l18.3,26.3l18.3-26.3H423.5z"/>
	<path style="fill:#FF7058;" d="M181.5,109.9h-49.7c-26.1,0-47.4,21.3-47.4,47.4v56.5H72l18.3,26.3l18.3-26.3H96.2v-56.5
		c0-19.6,15.9-35.5,35.5-35.5h49.7v14.1l26.3-18.3l-26.3-18.3L181.5,109.9z"/>
</g>
<g>
</g>
<g>
</g>
<g>
</g>
<g>
</g>
<g>
</g>
<g>
</g>
<g>
</g>
<g>
</g>
<g>
</g>
<g>
</g>
<g>
</g>
<g>
</g>
<g>
</g>
<g>
</g>
<g>
</g>
</svg>
