<?xml version="1.0" encoding="iso-8859-1"?>
<!-- Generator: Adobe Illustrator 19.0.0, SVG Export Plug-In . SVG Version: 6.00 Build 0)  -->
<svg version="1.1" id="Layer_1" xmlns="http://www.w3.org/2000/svg" xmlns:xlink="http://www.w3.org/1999/xlink" x="0px" y="0px"
	 viewBox="0 0 508 508" style="enable-background:new 0 0 508 508;" xml:space="preserve">
<circle style="fill:#324A5E;" cx="254" cy="254" r="254"/>
<path style="fill:#2B3B4E;" d="M63.2,421.5C109.8,474.5,178,508,254,508c76.1,0,144.3-33.5,190.8-86.5H63.2z"/>
<rect x="156.5" y="172.7" style="fill:#FFD05B;" width="245.7" height="198.1"/>
<g>
	<rect x="362.1" y="172.7" style="fill:#F9B54C;" width="7.2" height="198.1"/>
	<rect x="318.9" y="172.7" style="fill:#F9B54C;" width="7.2" height="198.1"/>
	<rect x="275.7" y="172.7" style="fill:#F9B54C;" width="7.2" height="198.1"/>
	<rect x="232.6" y="172.7" style="fill:#F9B54C;" width="7.2" height="198.1"/>
	<rect x="189.4" y="172.7" style="fill:#F9B54C;" width="7.2" height="198.1"/>
</g>
<rect x="156.5" y="207.5" style="fill:#E6E9EE;" width="245.7" height="26.5"/>
<g>
	<circle style="fill:#CED5E0;" cx="385.3" cy="220.7" r="4.2"/>
	<circle style="fill:#CED5E0;" cx="343.3" cy="220.7" r="4.2"/>
	<circle style="fill:#CED5E0;" cx="301.4" cy="220.7" r="4.2"/>
	<circle style="fill:#CED5E0;" cx="259.5" cy="220.7" r="4.2"/>
	<circle style="fill:#CED5E0;" cx="217.5" cy="220.7" r="4.2"/>
	<circle style="fill:#CED5E0;" cx="175.6" cy="220.7" r="4.2"/>
</g>
<rect x="156.5" y="313" style="fill:#E6E9EE;" width="245.7" height="26.5"/>
<g>
	<circle style="fill:#CED5E0;" cx="385.3" cy="326.3" r="4.2"/>
	<circle style="fill:#CED5E0;" cx="343.3" cy="326.3" r="4.2"/>
	<circle style="fill:#CED5E0;" cx="301.4" cy="326.3" r="4.2"/>
	<circle style="fill:#CED5E0;" cx="259.5" cy="326.3" r="4.2"/>
	<circle style="fill:#CED5E0;" cx="217.5" cy="326.3" r="4.2"/>
	<circle style="fill:#CED5E0;" cx="175.6" cy="326.3" r="4.2"/>
</g>
<path style="fill:#84DBFF;" d="M424.2,384.3H122c-4.4,0-7.9-3.6-7.9-7.9V180.1l-37.5-37.5c-3.1-3.1-3.1-8.1,0-11.2
	c3.1-3.1,8.1-3.1,11.2,0l39.8,39.8c1.5,1.5,2.3,3.5,2.3,5.6v191.6h294.3c4.4,0,7.9,3.6,7.9,7.9S428.5,384.3,424.2,384.3z"/>
<circle style="fill:#2B3B4E;" cx="382.7" cy="392.8" r="29.1"/>
<circle style="fill:#E6E9EE;" cx="382.7" cy="392.8" r="18"/>
<circle style="fill:#2B3B4E;" cx="169.8" cy="392.8" r="29.1"/>
<circle style="fill:#E6E9EE;" cx="169.8" cy="392.8" r="18"/>
<g>
</g>
<g>
</g>
<g>
</g>
<g>
</g>
<g>
</g>
<g>
</g>
<g>
</g>
<g>
</g>
<g>
</g>
<g>
</g>
<g>
</g>
<g>
</g>
<g>
</g>
<g>
</g>
<g>
</g>
</svg>
