<?xml version="1.0" encoding="iso-8859-1"?>
<!-- Generator: Adobe Illustrator 19.0.0, SVG Export Plug-In . SVG Version: 6.00 Build 0)  -->
<svg version="1.1" id="Layer_1" xmlns="http://www.w3.org/2000/svg" xmlns:xlink="http://www.w3.org/1999/xlink" x="0px" y="0px"
	 viewBox="0 0 508 508" style="enable-background:new 0 0 508 508;" xml:space="preserve">
<circle style="fill:#FD8469;" cx="254" cy="254" r="254"/>
<path style="fill:#F1543F;" d="M56.1,413.2C102.7,471,174,508,254,508s151.3-37,197.9-94.8H56.1z"/>
<rect x="103.3" y="149" style="fill:#E6E9EE;" width="301.5" height="264.2"/>
<rect x="90" y="131.1" style="fill:#FFFFFF;" width="328" height="55.1"/>
<rect x="149.4" y="229.9" style="fill:#324A5E;" width="209.1" height="183.3"/>
<g>
	<polygon style="fill:#2B3B4E;" points="358.6,229.9 358.6,237.4 157,237.4 157,413.2 149.4,413.2 149.4,229.9 	"/>
	<rect x="149.4" y="247" style="fill:#2B3B4E;" width="209.1" height="8"/>
	<rect x="149.4" y="267.7" style="fill:#2B3B4E;" width="209.1" height="8"/>
	<rect x="149.4" y="288.5" style="fill:#2B3B4E;" width="209.1" height="8"/>
	<rect x="149.4" y="309.2" style="fill:#2B3B4E;" width="209.1" height="8"/>
	<rect x="149.4" y="330" style="fill:#2B3B4E;" width="209.1" height="8"/>
	<rect x="149.4" y="350.7" style="fill:#2B3B4E;" width="209.1" height="8"/>
	<rect x="149.4" y="371.5" style="fill:#2B3B4E;" width="209.1" height="8"/>
	<rect x="149.4" y="392.2" style="fill:#2B3B4E;" width="209.1" height="8"/>
</g>
<g>
	<path style="fill:#4CDBC4;" d="M132.4,160.6l4.3-13.9h5.6l4.2,13.9l4.8-13.9h5.8l-8.4,24.1h-4l-5.3-16.8l-5.2,16.8h-4l-8.4-24.1
		h5.8L132.4,160.6z"/>
	<path style="fill:#4CDBC4;" d="M175,146.7h5.4v24.1H175v-9.5h-9.6v9.5H160v-24.1h5.4v10.1h9.6V146.7z"/>
	<path style="fill:#4CDBC4;" d="M203.7,146.7v4.8h-12v5h10.8v4.6h-10.8v5h12.4v4.8h-17.8v-24.1h17.4V146.7z"/>
	<path style="fill:#4CDBC4;" d="M228.5,154.7c0,3.9-1.5,6.4-4.6,7.5l6.1,8.6h-6.6l-5.3-7.7h-3.7v7.7H209v-24.1h9.1
		c3.7,0,6.4,0.6,8,1.9C227.7,149.9,228.5,151.9,228.5,154.7z M222,157.6c0.7-0.6,1-1.5,1-2.8s-0.3-2.2-1-2.7s-1.9-0.7-3.6-0.7h-4
		v7.1h3.9C220.1,158.5,221.3,158.2,222,157.6z"/>
	<path style="fill:#4CDBC4;" d="M251.4,146.7v4.8h-12v5h10.8v4.6h-10.8v5h12.4v4.8H234v-24.1h17.4V146.7z"/>
	<path style="fill:#4CDBC4;" d="M280.7,146.7h5.4v24.1h-5.4v-9.5h-9.6v9.5h-5.4v-24.1h5.4v10.1h9.6V146.7z"/>
	<path style="fill:#4CDBC4;" d="M312.3,167.5c-2.4,2.4-5.4,3.6-9,3.6s-6.6-1.2-9-3.6c-2.4-2.4-3.7-5.3-3.7-8.9
		c0-3.5,1.2-6.5,3.7-8.9c2.4-2.4,5.4-3.6,9-3.6s6.6,1.2,9,3.6c2.4,2.4,3.7,5.3,3.7,8.9C315.9,162.2,314.7,165.1,312.3,167.5z
		 M310.4,158.6c0-2.2-0.7-4-2.1-5.5s-3.1-2.3-5.1-2.3s-3.7,0.8-5.1,2.3s-2.1,3.4-2.1,5.5c0,2.2,0.7,4,2.1,5.5s3.1,2.3,5.1,2.3
		s3.7-0.8,5.1-2.3C309.7,162.6,310.4,160.8,310.4,158.6z"/>
	<path style="fill:#4CDBC4;" d="M326.9,164.6c0.9,1.1,2.1,1.7,3.6,1.7s2.7-0.6,3.6-1.7c0.9-1.1,1.3-2.6,1.3-4.6v-13.3h5.4v13.5
		c0,3.5-1,6.2-2.9,8.1c-1.9,1.9-4.4,2.8-7.4,2.8s-5.5-0.9-7.4-2.8c-1.9-1.9-2.9-4.6-2.9-8v-13.5h5.4V160
		C325.5,162,326,163.5,326.9,164.6z"/>
	<path style="fill:#4CDBC4;" d="M352,151.5c-0.5,0.4-0.8,1-0.8,1.7s0.3,1.3,0.9,1.7s2.1,0.9,4.4,1.5s4.1,1.4,5.3,2.5
		c1.3,1.1,1.9,2.8,1.9,4.9c0,2.2-0.8,3.9-2.4,5.3c-1.6,1.3-3.8,2-6.4,2c-3.8,0-7.3-1.4-10.3-4.2l3.2-3.9c2.6,2.3,5,3.4,7.2,3.4
		c1,0,1.8-0.2,2.3-0.6c0.6-0.4,0.8-1,0.8-1.7s-0.3-1.3-0.9-1.7s-1.8-0.9-3.6-1.3c-2.8-0.7-4.9-1.5-6.2-2.6c-1.3-1.1-1.9-2.7-1.9-5
		s0.8-4.1,2.5-5.3c1.6-1.2,3.7-1.9,6.2-1.9c1.6,0,3.2,0.3,4.8,0.8c1.6,0.6,3,1.3,4.2,2.3l-2.7,3.9c-2.1-1.6-4.3-2.4-6.5-2.4
		C353.3,150.9,352.5,151.1,352,151.5z"/>
	<path style="fill:#4CDBC4;" d="M385.8,146.7v4.8h-12v5h10.8v4.6h-10.8v5h12.4v4.8h-17.8v-24.1h17.4V146.7z"/>
</g>
<g>
	<polygon style="fill:#ACB3BA;" points="418,186.2 404.7,198.9 404.7,186.2 	"/>
	<polygon style="fill:#ACB3BA;" points="90,186.2 103.3,198.9 103.3,186.2 	"/>
</g>
<g>
</g>
<g>
</g>
<g>
</g>
<g>
</g>
<g>
</g>
<g>
</g>
<g>
</g>
<g>
</g>
<g>
</g>
<g>
</g>
<g>
</g>
<g>
</g>
<g>
</g>
<g>
</g>
<g>
</g>
</svg>
