<?xml version="1.0" encoding="iso-8859-1"?>
<!-- Generator: Adobe Illustrator 19.0.0, SVG Export Plug-In . SVG Version: 6.00 Build 0)  -->
<svg version="1.1" id="Layer_1" xmlns="http://www.w3.org/2000/svg" xmlns:xlink="http://www.w3.org/1999/xlink" x="0px" y="0px"
	 viewBox="0 0 508 508" style="enable-background:new 0 0 508 508;" xml:space="preserve">
<circle style="fill:#FFD05B;" cx="254" cy="254" r="254"/>
<g>
	<path style="fill:#2B3B4E;" d="M280.9,1.8v124.7h-16.5V0.6C269.9,0.8,275.5,1.2,280.9,1.8z"/>
	<path style="fill:#2B3B4E;" d="M243.6,0.6v125.9h-16.5V1.8C232.5,1.2,238,0.8,243.6,0.6z"/>
</g>
<path style="fill:#FFFFFF;" d="M254,459.9c-10.8,0-20.9-4.1-28.7-11.7c-8-7.8-12.5-18.3-12.5-29.5c0-5,4-9,9-9s9,4,9,9
	c0,6.3,2.5,12.2,7,16.6s10.5,6.7,16.8,6.6c12.1-0.3,22.2-10.4,22.5-22.5c0.2-7.5-3.3-14.7-9.3-19.3c-14.3-10.7-22.9-28.6-22.9-47.7
	v-17.6c0-5,4-9,9-9s9,4,9,9v17.6c0,13.5,5.9,25.9,15.7,33.3c10.7,8,16.9,20.8,16.5,34.1c-0.6,21.5-18.6,39.4-40,40
	C254.8,459.9,254.4,459.9,254,459.9z"/>
<path style="fill:#2B3B4E;" d="M305.7,269.8H202.3l20.2,76.8c2.3,8.7,10.2,14.8,19.3,14.8h24.6c9,0,17-6.1,19.3-14.8L305.7,269.8z"
	/>
<g>
	<path style="fill:#324A5E;" d="M331.2,196.5H176.8l15.8-85.3c2.3-12.3,13-21.2,25.5-21.2h71.8c12.5,0,23.2,8.9,25.5,21.2
		L331.2,196.5z"/>
	<path style="fill:#324A5E;" d="M171.6,255.9l4.1,16.7c1.6,6.6,7.5,11.3,14.4,11.3H318c6.8,0,12.7-4.7,14.4-11.3l4.1-16.7H171.6z"/>
</g>
<path style="fill:#FFFFFF;" d="M349.2,263.5H158.8c-2,0-3.6-1.6-3.6-3.6V156.8c0-2,1.6-3.6,3.6-3.6h190.3c2,0,3.6,1.6,3.6,3.6v103.1
	C352.7,261.9,351.1,263.5,349.2,263.5z"/>
<rect x="179.6" y="182.9" style="fill:#84DBFF;" width="148.8" height="51"/>
<g>
	<path style="fill:#324A5E;" d="M264.2,194.6v5.4h-11v4.7c0.8-0.2,1.8-0.4,2.8-0.4c2.7,0,5,0.8,7,2.4c1.9,1.6,2.9,3.8,2.9,6.6
		s-1,5-3,6.8s-4.5,2.7-7.5,2.7c-3.8,0-7-1.4-9.5-4.2l3.3-4.6c0.2,0.2,0.6,0.5,1,0.9c0.4,0.3,1.1,0.8,2.2,1.4
		c1.1,0.6,2.1,0.9,3.2,0.9s2-0.3,2.8-1c0.8-0.6,1.2-1.6,1.2-2.8c0-1.3-0.4-2.2-1.3-2.9s-2-1-3.5-1c-1.4,0-3.1,0.5-4.9,1.5l-2.6-2.8
		v-13.6L264.2,194.6L264.2,194.6z"/>
	<path style="fill:#324A5E;" d="M281.6,222.9c-3.9,0-6.8-1.3-8.7-3.9c-1.9-2.6-2.9-6.1-2.9-10.5s1-7.9,2.9-10.5s4.8-3.9,8.7-3.9
		c3.9,0,6.8,1.3,8.7,3.9c1.9,2.6,2.9,6.1,2.9,10.5s-1,7.9-2.9,10.5C288.3,221.5,285.5,222.9,281.6,222.9z M277.5,201.6
		c-0.9,1.7-1.3,4-1.3,6.8s0.4,5.1,1.3,6.8s2.3,2.6,4.1,2.6c1.9,0,3.2-0.9,4.1-2.6c0.9-1.7,1.3-4,1.3-6.8s-0.4-5.1-1.3-6.8
		s-2.3-2.6-4.1-2.6C279.7,199.1,278.3,199.9,277.5,201.6z"/>
	<path style="fill:#324A5E;" d="M309.2,222.9c-3.9,0-6.8-1.3-8.7-3.9c-1.9-2.6-2.9-6.1-2.9-10.5s1-7.9,2.9-10.5s4.8-3.9,8.7-3.9
		c3.9,0,6.8,1.3,8.7,3.9c1.9,2.6,2.9,6.1,2.9,10.5s-1,7.9-2.9,10.5C316,221.5,313.1,222.9,309.2,222.9z M305.1,201.6
		c-0.9,1.7-1.3,4-1.3,6.8s0.4,5.1,1.3,6.8s2.3,2.6,4.1,2.6c1.9,0,3.2-0.9,4.1-2.6c0.9-1.7,1.3-4,1.3-6.8s-0.4-5.1-1.3-6.8
		s-2.3-2.6-4.1-2.6C307.3,199.1,306,199.9,305.1,201.6z"/>
</g>
<g>
</g>
<g>
</g>
<g>
</g>
<g>
</g>
<g>
</g>
<g>
</g>
<g>
</g>
<g>
</g>
<g>
</g>
<g>
</g>
<g>
</g>
<g>
</g>
<g>
</g>
<g>
</g>
<g>
</g>
</svg>
