<?xml version="1.0" encoding="iso-8859-1"?>
<!-- Generator: Adobe Illustrator 19.0.0, SVG Export Plug-In . SVG Version: 6.00 Build 0)  -->
<svg version="1.1" id="Layer_1" xmlns="http://www.w3.org/2000/svg" xmlns:xlink="http://www.w3.org/1999/xlink" x="0px" y="0px"
	 viewBox="0 0 508 508" style="enable-background:new 0 0 508 508;" xml:space="preserve">
<circle style="fill:#FFD05B;" cx="254" cy="254" r="254"/>
<g>
	<path style="fill:#324A5E;" d="M338.3,266.8L301.1,93.4c-0.9-4-4.9-6.6-8.8-5.7c-4,0.9-6.6,4.8-5.7,8.8l37.2,173.3
		c0.8,3.5,3.8,5.9,7.3,5.9c0.5,0,1-0.1,1.6-0.2C336.6,274.7,339.2,270.8,338.3,266.8z"/>
	<path style="fill:#324A5E;" d="M215.7,87.7c-4-0.8-8,1.7-8.8,5.7l-37.2,173.3c-0.9,4,1.7,8,5.7,8.8c0.5,0.1,1.1,0.2,1.6,0.2
		c3.4,0,6.5-2.4,7.3-5.9l37.2-173.3C222.3,92.5,219.7,88.6,215.7,87.7z"/>
	<path style="fill:#324A5E;" d="M254,462.3c-10.3,0-20-4-27.3-11.2c-7.5-7.4-11.6-17.2-11.6-27.7c0-4.1,3.3-7.4,7.4-7.4
		s7.4,3.3,7.4,7.4c0,6.5,2.5,12.6,7.2,17.1c4.6,4.6,10.7,7,17.2,6.9c12.7-0.2,23.5-11,23.7-23.7c0.1-8.4-4.1-16.2-11.2-20.7
		c-12.5-7.9-20.3-22.7-20.3-38.6v-34.3c0-4.1,3.3-7.4,7.4-7.4s7.4,3.3,7.4,7.4v34.3c0,10.8,5.1,20.8,13.4,26
		c11.5,7.3,18.3,19.8,18.1,33.4c-0.3,20.9-17.5,38.1-38.4,38.4C254.4,462.3,254.2,462.3,254,462.3z"/>
</g>
<circle style="fill:#FFFFFF;" cx="254" cy="268.3" r="86.5"/>
<circle style="fill:#E6E9EE;" cx="254" cy="268.3" r="45.7"/>
<circle style="fill:#FFFFFF;" cx="254" cy="95" r="49.3"/>
<circle style="fill:#E6E9EE;" cx="254" cy="95" r="26.1"/>
<g>
</g>
<g>
</g>
<g>
</g>
<g>
</g>
<g>
</g>
<g>
</g>
<g>
</g>
<g>
</g>
<g>
</g>
<g>
</g>
<g>
</g>
<g>
</g>
<g>
</g>
<g>
</g>
<g>
</g>
</svg>
