<?xml version="1.0" encoding="iso-8859-1"?>
<!-- Generator: Adobe Illustrator 19.0.0, SVG Export Plug-In . SVG Version: 6.00 Build 0)  -->
<svg version="1.1" id="Layer_1" xmlns="http://www.w3.org/2000/svg" xmlns:xlink="http://www.w3.org/1999/xlink" x="0px" y="0px"
	 viewBox="0 0 508 508" style="enable-background:new 0 0 508 508;" xml:space="preserve">
<path style="fill:#324A5E;" d="M0,254C0,113.7,113.7,0,254,0s254,113.7,254,254S394.3,508,254,508S0,394.3,0,254z"/>
<polygon style="fill:#FFFFFF;" points="254,301.3 353.4,353.4 301.3,254 353.4,154.6 254,206.7 154.6,154.6 206.7,254 154.6,353.4 
	"/>
<g>
	<polygon style="fill:#E6E9EE;" points="254,206.7 254,254 353.4,154.6 	"/>
	<polygon style="fill:#E6E9EE;" points="254.4,253.6 154.6,353.4 254.4,300.9 	"/>
	<polygon style="fill:#E6E9EE;" points="301.3,254 254,254 353.4,353.4 	"/>
	<polygon style="fill:#E6E9EE;" points="254.4,254.4 154.6,154.6 207.1,254.4 	"/>
</g>
<polygon style="fill:#FFFFFF;" points="302.6,302.6 458.1,254 302.6,205.4 254,49.9 205.4,205.4 49.9,254 205.4,302.6 254,458.1 "/>
<g>
	<polygon style="fill:#E6E9EE;" points="205.4,205.4 254,254 254,49.9 	"/>
	<polygon style="fill:#E6E9EE;" points="254,253.2 254,458.1 302.6,301.7 	"/>
	<polygon style="fill:#E6E9EE;" points="302.6,205.4 254,254 458.1,254 	"/>
	<polygon style="fill:#E6E9EE;" points="254.8,254 49.9,254 206.3,302.6 	"/>
</g>
<g>
</g>
<g>
</g>
<g>
</g>
<g>
</g>
<g>
</g>
<g>
</g>
<g>
</g>
<g>
</g>
<g>
</g>
<g>
</g>
<g>
</g>
<g>
</g>
<g>
</g>
<g>
</g>
<g>
</g>
</svg>
