<?xml version="1.0" encoding="iso-8859-1"?>
<!-- Generator: Adobe Illustrator 19.0.0, SVG Export Plug-In . SVG Version: 6.00 Build 0)  -->
<svg version="1.1" id="Layer_1" xmlns="http://www.w3.org/2000/svg" xmlns:xlink="http://www.w3.org/1999/xlink" x="0px" y="0px"
	 viewBox="0 0 508.497 508.497" style="enable-background:new 0 0 508.497 508.497;" xml:space="preserve">
<circle style="fill:#84DBFF;" cx="254.248" cy="254.192" r="217.007"/>
<g>
	<path style="fill:#FFD05B;" d="M254.248,107.713L254.248,107.713L254.248,107.713z"/>
	<path style="fill:#FFD05B;" d="M267.472,64.65l-13.224-0.678l0,0l0,0l0,0l0,0l-13.224,0.678c0,0,1.017,11.868-4.747,22.379v14.919
		l17.971,5.764l0,0l0,0l17.293-5.425V85.673C266.794,75.501,267.472,64.65,267.472,64.65z"/>
	<path style="fill:#FFD05B;" d="M254.248,107.713L254.248,107.713L254.248,107.713z"/>
	<path style="fill:#FFD05B;" d="M254.248,107.713L254.248,107.713L254.248,107.713z"/>
	<path style="fill:#FFD05B;" d="M268.15,103.305l3.391-17.632c-1.017-2.034-1.695-4.408-2.373-6.442
		c-2.034-7.799-1.695-14.58-1.695-14.58l-13.224-0.678l0,0l0,0l0,0l0,0l-13.224,0.678c0,0,0.678,7.121-1.695,14.919
		c-0.678,2.374-1.695,5.086-3.052,7.46l4.069,15.936h27.804V103.305z"/>
	<path style="fill:#FFD05B;" d="M254.248,107.713L254.248,107.713L254.248,107.713z"/>
</g>
<g>
	<polygon style="fill:#324A5E;" points="302.397,492.899 307.483,304.036 304.092,253.853 253.57,253.853 253.57,333.196 
		273.576,492.899 	"/>
	<polygon style="fill:#324A5E;" points="234.921,492.899 254.927,333.196 254.927,253.853 204.405,253.853 201.014,304.036 
		206.1,492.899 	"/>
</g>
<g>
	<polygon style="fill:#2B3B4E;" points="306.466,288.099 304.092,253.853 253.57,253.853 253.57,288.099 	"/>
	<polygon style="fill:#2B3B4E;" points="254.927,288.099 254.927,253.853 204.405,253.853 202.031,288.099 	"/>
</g>
<path style="fill:#E6E9EE;" d="M337.66,212.147c0.678,7.799-2.374,15.597-7.799,21.023c-5.086,5.425-12.885,12.207-23.057,18.649
	c-4.747,3.052-10.172,6.103-16.276,9.155l-9.833-27.126l23.057-15.597l10.511-7.121l-8.477-27.126
	c3.73-36.281,11.868-70.527,11.868-70.527S333.252,149.08,337.66,212.147z"/>
<path style="fill:#FFFFFF;" d="M308.161,256.227c-13.902-43.401,9.494-142.75,9.494-142.75
	c-37.298-6.781-44.079-24.413-44.079-24.413c-0.339,4.747-1.017,9.155-1.695,13.224h-35.264c-0.678-4.069-1.017-8.477-1.695-13.224
	c0,0-7.121,17.632-44.079,24.413c0,0,23.396,99.348,9.833,142.75c0,0-1.017,6.442-2.034,14.919c-0.678,4.069,2.713,7.46,6.442,7.46
	h98.67c4.069,0,7.121-3.391,6.442-7.46C309.178,262.669,308.161,256.227,308.161,256.227z"/>
<path style="fill:#F9B54C;" d="M269.168,79.231l-1.017,1.356c-2.374,3.052-5.764,4.747-9.494,5.425h-9.155
	c-3.73-0.678-7.121-2.374-9.494-5.425l-1.017-1.017c2.374-8.138,1.695-14.919,1.695-14.919l13.224-0.678l0,0l0,0l0,0l0,0
	l13.224,0.678C267.472,64.65,267.133,71.432,269.168,79.231z"/>
<g>
	<path style="fill:#FFD05B;" d="M253.909,21.927h-25.091l4.069,42.045c0.339,3.052,1.356,5.764,3.391,8.138l3.391,4.069
		c2.373,3.052,5.764,4.747,9.494,5.425h9.155c3.73-0.678,7.121-2.374,9.494-5.425l3.391-4.069c2.034-2.374,3.052-5.086,3.391-8.138
		l4.408-42.045H253.909z"/>
	<path style="fill:#FFD05B;" d="M281.713,46.68c-1.356,3.052-4.069,5.086-6.103,4.408c-2.034-0.678-3.052-4.069-1.695-7.46
		c1.356-3.052,4.069-5.086,6.103-4.408C282.391,40.237,283.07,43.628,281.713,46.68z"/>
	<path style="fill:#FFD05B;" d="M226.105,46.68c1.356,3.052,4.069,5.086,6.103,4.408c2.034-0.678,3.052-4.069,1.695-7.46
		c-1.356-3.052-4.069-5.086-6.103-4.408C225.427,40.237,224.749,43.628,226.105,46.68z"/>
</g>
<path style="fill:#324A5E;" d="M233.226,12.433c0,0,20.344-30.517,48.826,4.069l-3.052-1.017c0,0,5.425,5.764,0.678,25.091
	c0,0-3.052,0.339-4.069,7.121c0,0-0.678-15.936-4.747-18.988c0,0-26.787,1.695-33.568-4.408c0,0-6.781,11.189-4.069,26.787
	c0,0-5.086-9.833-7.799-15.258c-2.034-3.73-3.052-7.799-3.052-12.207C223.054,18.536,225.088,12.433,233.226,12.433z"/>
<g>
	<path style="fill:#2B3B4E;" d="M302.397,492.899h-28.821v11.868c0,2.034,1.695,3.73,3.73,3.73h38.654v-1.695
		C315.96,499.003,309.856,492.899,302.397,492.899z"/>
	<path style="fill:#2B3B4E;" d="M206.1,492.899h28.821v11.868c0,2.034-1.695,3.73-3.73,3.73h-38.654v-1.695
		C192.537,499.003,198.64,492.899,206.1,492.899z"/>
</g>
<g>
	<path style="fill:#E6E9EE;" d="M270.863,83.638c0,0,7.46,7.46-2.034,28.821c0,0-10.172-11.868-16.954-9.494
		C252.214,102.966,267.472,98.558,270.863,83.638z"/>
	<path style="fill:#E6E9EE;" d="M237.295,83.638c0,0-7.46,7.46,2.034,28.821c0,0,10.172-11.868,16.954-9.494
		C255.944,102.966,241.025,98.558,237.295,83.638z"/>
</g>
<g>
	<circle style="fill:#324A5E;" cx="250.519" cy="179.935" r="14.919"/>
	<path style="fill:#324A5E;" d="M233.565,241.986L233.565,241.986c-2.374-0.678-4.069-3.052-3.391-5.764l9.494-42.723l12.885,3.391
		l-13.563,41.367C238.651,240.968,236.278,242.664,233.565,241.986z"/>
</g>
<path style="fill:#FF7058;" d="M253.909,207.061l-20.005-5.425c-0.678-0.339-1.017-0.678-0.678-1.356l3.052-10.85
	c0.339-0.678,0.678-1.017,1.356-0.678l20.005,5.425c0.678,0.339,1.017,0.678,0.678,1.356l-3.052,10.85
	C255.266,207.061,254.587,207.4,253.909,207.061z"/>
<path style="fill:#FFD05B;" d="M247.806,210.113l-12.207-3.391c-1.017-0.339-2.034-0.339-2.713,0
	c-3.391,1.017-6.781,2.034-10.511,1.695l-8.138-0.678l-3.73,12.546l7.121,3.73c3.052,1.695,5.764,4.408,8.138,7.121
	c0.678,0.678,1.356,1.356,2.374,1.356l12.207,3.391c2.713,0.678,5.425-0.678,6.442-3.391l4.747-16.276
	C251.875,213.503,250.519,210.791,247.806,210.113z"/>
<path style="fill:#E6E9EE;" d="M170.836,201.297c-0.678,7.799,2.374,15.597,7.799,21.023c5.086,5.425,41.028,8.477,41.028,8.477
	l9.833-27.126l-29.499-11.528l2.374-8.138c-3.391-36.281-11.529-70.527-11.529-70.527S175.244,138.229,170.836,201.297z"/>
<g>
</g>
<g>
</g>
<g>
</g>
<g>
</g>
<g>
</g>
<g>
</g>
<g>
</g>
<g>
</g>
<g>
</g>
<g>
</g>
<g>
</g>
<g>
</g>
<g>
</g>
<g>
</g>
<g>
</g>
</svg>
