<?xml version="1.0" encoding="iso-8859-1"?>
<!-- Generator: Adobe Illustrator 19.0.0, SVG Export Plug-In . SVG Version: 6.00 Build 0)  -->
<svg version="1.1" id="Layer_1" xmlns="http://www.w3.org/2000/svg" xmlns:xlink="http://www.w3.org/1999/xlink" x="0px" y="0px"
	 viewBox="0 0 508.969 508.969" style="enable-background:new 0 0 508.969 508.969;" xml:space="preserve">
<circle style="fill:#54C0EB;" cx="254.484" cy="254.305" r="217.007"/>
<path style="fill:#FF7058;" d="M339.253,245.489C339.253,245.15,339.253,245.15,339.253,245.489
	c16.954-51.2,5.425-84.09,1.017-93.923c-1.017-2.034-1.356-4.069-1.356-6.442c2.034-26.448-10.85-61.033-10.85-61.033
	c-9.155-10.511-54.252-20.683-54.252-20.683s-2.034,13.563-18.988,15.936c-16.954-2.034-18.988-15.936-18.988-15.936
	S190.4,73.579,181.584,84.09c0,0-12.885,34.585-10.85,61.033c0,2.374-0.339,4.408-1.356,6.442
	c-4.408,9.833-16.275,42.723,1.017,93.584c0,0,0,0,0,0.339c-0.678,3.73-7.121,40.689,27.804,36.959c0,0,0-1.695,0.339-4.408
	c0.678-7.121,1.695-13.902,2.713-19.666c-3.391-3.052-8.477-8.816-10.511-18.649c-1.017-4.408-1.017-9.155-0.339-15.258
	c0,0,2.034-69.171,13.902-72.223c0,0,9.155,52.895,1.695,85.107c0,0-2.713,8.816-4.747,21.023c2.034,1.695,3.391,2.374,3.391,2.374
	c11.868,18.649-6.103,21.701-6.103,21.701h-0.339c0,0.339,0,0.678,0,1.017c-0.339,5.764-0.339,11.528,0.339,16.954
	c0,0.339,0,1.017,0,1.356c3.391,28.143-4.408,56.625-4.408,56.625s-14.58,32.89-2.034,81.038c0,0,5.425,29.838-16.954,51.2
	c0,0-11.189,26.787,20.683,15.597l21.023-25.43c2.713-3.052,4.069-7.121,4.069-11.528c0-12.546,1.017-40.35,6.781-53.234
	c0,0,4.747-14.919,4.747-33.568c0-19.666,4.069-39.332,13.224-56.964c3.391-6.781,6.781-14.241,9.155-21.701
	c2.373,7.121,5.764,14.58,9.155,21.701c8.816,17.632,12.885,37.298,13.224,56.964c0,18.649,4.747,33.568,4.747,33.568
	c5.425,13.224,6.442,40.689,6.781,53.234c0,4.069,1.356,8.138,4.069,11.528l21.022,25.43c31.873,10.85,20.683-15.597,20.683-15.597
	c-22.04-21.362-16.954-51.2-16.954-51.2c12.546-48.148-2.034-81.038-2.034-81.038s-7.46-28.482-4.408-56.625
	c0-0.339,0-1.017,0-1.356c0.678-5.425,0.678-11.189,0.339-16.954c0-0.339,0-0.678,0-1.017h-0.339c0,0-17.971-3.052-6.103-21.701
	c0,0,1.356-0.678,3.391-2.374c-2.374-12.207-4.747-21.023-4.747-21.023c-7.46-32.212,1.695-85.107,1.695-85.107
	c12.207,3.052,13.902,72.223,13.902,72.223c0.678,5.764,0.339,10.85-0.339,15.258c-2.034,9.833-7.121,15.936-10.511,18.649
	c1.017,6.103,2.034,12.885,2.713,19.666c0.339,2.713,0.339,4.408,0.339,4.408C346.373,286.177,339.931,248.879,339.253,245.489z"/>
<path style="fill:#E6E9EE;" d="M339.253,245.15l-5.425-2.713c12.546-33.568,1.695-72.901,1.695-72.901
	c-22.718-23.057-22.718-76.97-22.718-76.97c-17.971-8.816-22.718-19.327-23.735-25.43c10.511,3.052,23.735,7.121,32.551,11.868
	c3.052,1.695,5.425,3.391,6.781,5.086c0,0,1.017,2.374,2.034,6.442c3.73,11.189,10.172,34.925,8.816,54.591
	c0,2.374,0.339,4.408,1.356,6.442C344.678,161.06,356.206,193.95,339.253,245.15z"/>
<path style="fill:#FFFFFF;" d="M330.098,90.193c-13.224,5.764-10.85-5.764-9.155-11.528c3.052,1.695,5.425,3.391,6.781,5.086
	C328.063,83.751,329.08,86.125,330.098,90.193z"/>
<path style="fill:#324A5E;" d="M324.333,477.754c-7.799,5.086-14.241-1.017-14.241-1.017c-7.46-11.189-11.528-20.344-13.563-28.143
	h-9.155c0.678,7.799,0.678,15.258,0.678,20.344c0,4.069,1.356,8.138,4.069,11.528l21.022,25.43
	c31.873,10.85,20.683-15.597,20.683-15.597C330.098,486.23,326.707,482.162,324.333,477.754z"/>
<path style="fill:#E6E9EE;" d="M314.161,353.653c-17.293,8.138-30.856,8.138-39.332,6.781c-0.678-4.069-1.695-8.138-2.713-12.207
	c17.632,1.695,30.856-1.695,40.011-6.103C312.805,346.872,313.483,350.94,314.161,353.653z"/>
<g>
	<path style="fill:#324A5E;" d="M311.449,282.109c0,0.339,0,0.678,0,1.017C311.109,282.448,311.449,282.109,311.449,282.109z"/>
	<path style="fill:#324A5E;" d="M311.449,282.109c0,0,0-1.695-0.339-4.408c-0.678-6.781-1.695-18.649-2.713-19.666
		c3.391-3.052,8.477-8.816,10.511-18.649c4.408,0.339,12.207,1.356,20.344,6.103C339.931,248.879,346.373,286.177,311.449,282.109z"
		/>
	<path style="fill:#324A5E;" d="M305.006,260.408c-11.868,18.649,6.103,21.701,6.103,21.701h0.339
		c0.678-12.885-1.017-23.396-3.052-24.074C306.362,259.73,305.006,260.408,305.006,260.408z"/>
</g>
<path style="fill:#E6E9EE;" d="M169.716,245.15l5.425-2.713c-12.546-33.568-1.695-72.901-1.695-72.901
	c22.718-23.057,22.718-76.97,22.718-76.97c17.971-8.816,22.718-19.327,23.735-25.43c-10.511,3.052-23.735,7.121-32.551,11.868
	c-3.052,1.695-5.425,3.391-6.781,5.086c0,0-1.017,2.374-2.034,6.442c-3.73,11.189-10.172,34.925-8.816,54.591
	c0,2.374-0.339,4.408-1.356,6.442C164.291,161.06,152.762,193.95,169.716,245.15z"/>
<path style="fill:#FFFFFF;" d="M178.871,90.193c13.224,5.764,10.85-5.764,9.155-11.528c-3.052,1.695-5.425,3.391-6.781,5.086
	C180.906,83.751,179.888,86.125,178.871,90.193z"/>
<path style="fill:#324A5E;" d="M212.439,448.593c-2.034,7.46-6.103,16.954-13.563,28.143c0,0-6.781,6.103-14.241,1.017
	c-2.374,4.408-5.764,8.477-9.833,12.546c0,0-11.189,26.787,20.683,15.597l21.023-25.43c2.713-3.052,4.069-7.121,4.069-11.528
	c0-5.086,0.339-12.207,0.678-20.344L212.439,448.593L212.439,448.593z"/>
<path style="fill:#E6E9EE;" d="M194.807,353.653c17.293,8.138,30.856,8.138,39.332,6.781c0.678-4.069,1.695-8.138,2.713-12.207
	c-17.632,1.695-30.856-1.695-40.011-6.103C196.164,346.872,195.486,350.94,194.807,353.653z"/>
<g>
	<path style="fill:#324A5E;" d="M197.52,282.109c0,0.339,0,0.678,0,1.017C197.859,282.448,197.52,282.109,197.52,282.109z"/>
	<path style="fill:#324A5E;" d="M197.52,282.109c0,0,0-1.695,0.339-4.408c0.678-6.781,1.695-18.649,2.713-19.666
		c-3.391-3.052-8.477-8.816-10.511-18.649c-4.408,0.339-12.207,1.356-20.344,6.103C169.038,248.879,162.596,286.177,197.52,282.109z
		"/>
	<path style="fill:#324A5E;" d="M203.962,260.408c11.868,18.649-6.103,21.701-6.103,21.701h-0.339
		c-0.678-12.885,1.017-23.396,3.052-24.074C202.606,259.73,203.962,260.408,203.962,260.408z"/>
	<path style="fill:#324A5E;" d="M288.053,32.89c0,22.379-14.919,48.487-33.568,48.487c-18.649,0-33.568-26.109-33.568-48.487
		S235.835,0,254.484,0C273.133,0,288.053,10.511,288.053,32.89z"/>
</g>
<path style="fill:#2B3B4E;" d="M226.002,38.993c3.73,13.563,13.224,27.126,28.482,36.62c14.919-9.494,24.752-23.057,28.482-36.62
	C265.335,49.505,243.634,49.505,226.002,38.993z"/>
<path style="fill:#84DBFF;" d="M268.386,24.074H241.26c-7.799,0-14.58,5.764-15.258,13.902c-0.678,8.477,6.103,15.597,14.58,15.597
	c4.069,0,7.799-1.695,10.172-4.408c2.034-2.034,5.086-1.695,7.121,0c3.052,3.052,7.46,4.408,11.868,4.069
	c6.781-0.678,12.207-6.103,12.885-12.885C283.984,31.534,276.863,24.074,268.386,24.074z"/>
<path style="fill:#F1543F;" d="M273.133,81.377c-5.086,6.103-15.597,8.477-18.649,8.816c0,0-13.563-2.713-18.649-8.816
	c0,0-36.959,14.58-29.838,37.298c0,0,18.988,79.004,10.511,116.98c0,0,14.919,26.109,37.976,38.315l0,0
	c23.057-12.207,37.976-38.315,37.976-38.315c-8.477-37.976,10.511-116.98,10.511-116.98
	C310.092,95.958,273.133,81.377,273.133,81.377z"/>
<g>
</g>
<g>
</g>
<g>
</g>
<g>
</g>
<g>
</g>
<g>
</g>
<g>
</g>
<g>
</g>
<g>
</g>
<g>
</g>
<g>
</g>
<g>
</g>
<g>
</g>
<g>
</g>
<g>
</g>
</svg>
