<?xml version="1.0" encoding="iso-8859-1"?>
<!-- Generator: Adobe Illustrator 19.0.0, SVG Export Plug-In . SVG Version: 6.00 Build 0)  -->
<svg version="1.1" id="Layer_1" xmlns="http://www.w3.org/2000/svg" xmlns:xlink="http://www.w3.org/1999/xlink" x="0px" y="0px"
	 viewBox="0 0 508.609 508.609" style="enable-background:new 0 0 508.609 508.609;" xml:space="preserve">
<circle style="fill:#4CDBC4;" cx="254.305" cy="254.305" r="217.007"/>
<g>
	<path style="fill:#FFD05B;" d="M260.408,288.89l-28.482,2.713c-1.356,0-2.713-0.339-3.391-1.356
		c-0.339-0.339-0.678-0.678-0.678-1.356l-6.781-18.649c-0.678-1.695-1.695-3.052-2.713-4.069l-10.85-9.833l7.46-14.919
		l20.683,14.919l8.816,6.103l-2.374,4.408l-6.442-2.034l2.034,10.172l1.017,5.086l21.701,0.678c1.017,0,1.695,0.339,2.713,1.017
		C265.155,284.143,263.799,288.551,260.408,288.89z"/>
	<path style="fill:#FFD05B;" d="M254.644,127.83L254.644,127.83L254.644,127.83z"/>
	<path style="fill:#FFD05B;" d="M267.189,86.803l-12.546-0.339l0,0l0,0l0,0l0,0l-12.546,0.678c0,0,1.017,11.189-4.747,21.362v13.902
		l17.293,5.425l0,0l0,0l16.276-5.086v-15.936C266.511,97.314,267.189,86.803,267.189,86.803z"/>
	<path style="fill:#FFD05B;" d="M254.644,127.83L254.644,127.83L254.644,127.83z"/>
</g>
<path style="fill:#FFFFFF;" d="M254.644,127.83L254.644,127.83L254.644,127.83z"/>
<path style="fill:#FFD05B;" d="M271.258,106.808v15.597l-16.275,5.086l0,0l0,0l-17.293-5.425v-13.902
	c1.356-2.374,2.373-4.747,3.052-7.121c2.374-7.799,1.695-14.241,1.695-14.241l12.546-0.678l0,0l0,0l0,0l0,0l12.546,0.678
	c0,0-0.678,6.442,1.695,13.902C269.563,102.739,270.241,104.774,271.258,106.808z"/>
<path style="fill:#FFFFFF;" d="M254.644,127.83L254.644,127.83L254.644,127.83z"/>
<polygon style="fill:#324A5E;" points="204.8,304.827 204.122,314.321 208.869,493.69 236.334,493.69 254.644,346.872 
	272.954,493.69 300.419,493.69 305.166,314.321 304.487,304.827 "/>
<g>
	<path style="fill:#E6E9EE;" d="M181.404,216.328c-0.678,6.781,2.034,13.224,6.781,18.31c4.408,4.747,11.189,10.511,20.005,16.276
		c4.408,2.713,9.155,5.425,14.241,7.799l8.816-23.396l-20.005-13.563l-9.494-6.103l7.46-23.057
		c-3.391-31.195-10.172-60.016-10.172-60.016S185.473,162.755,181.404,216.328z"/>
	<path style="fill:#E6E9EE;" d="M327.205,216.328c0.678,6.781-2.034,13.224-6.781,18.31c-4.408,4.747-11.189,10.511-20.005,16.276
		c-4.408,2.713-9.155,5.425-14.241,7.799l-8.816-23.396l20.005-13.563l9.155-6.103l-7.46-23.057
		c3.391-31.195,10.172-60.016,10.172-60.016S323.136,162.755,327.205,216.328z"/>
</g>
<path style="fill:#FFFFFF;" d="M305.505,305.844h-102.4c9.494-75.613-2.374-153.6-5.086-169.875
	c-0.339-2.034,0.678-3.73,2.034-4.747l36.62-21.022c0.339,4.408,0.678,8.477,1.356,12.207h32.89
	c0.339-4.069,0.678-8.138,1.356-12.207l36.281,21.362c1.695,1.017,2.374,2.713,2.034,4.747
	C307.539,152.583,295.672,230.57,305.505,305.844z"/>
<path style="fill:#F9B54C;" d="M268.885,100.705l-1.017,1.356c-2.374,2.713-5.425,4.747-9.155,5.086l-2.374,0.339
	c-1.356,0.339-2.713,0.339-4.069,0l-2.373-0.339c-3.73-0.339-6.781-2.374-9.155-5.086l-0.678-0.678
	c2.374-7.799,1.695-14.241,1.695-14.241l12.546-0.678l0,0l0,0l0,0l0,0l12.546,0.678C267.189,86.803,266.85,93.245,268.885,100.705z"
	/>
<g>
	<path style="fill:#FFD05B;" d="M254.305,46.453H230.57l3.73,40.011c0.339,2.713,1.356,5.425,3.052,7.799l3.391,4.069
		c2.374,2.713,5.425,4.747,9.155,5.086l2.374,0.339c1.356,0.339,2.713,0.339,4.069,0l2.373-0.339
		c3.73-0.339,6.781-2.374,9.155-5.086l3.391-4.069c1.695-2.034,3.052-4.747,3.052-7.799l3.73-40.011H254.305z"/>
	
		<ellipse transform="matrix(0.3585 -0.9335 0.9335 0.3585 113.807 302.5494)" style="fill:#FFD05B;" cx="277.045" cy="68.466" rx="5.764" ry="4.069"/>
	
		<ellipse transform="matrix(0.3585 0.9335 -0.9335 0.3585 212.6871 -172.2395)" style="fill:#FFD05B;" cx="231.669" cy="68.636" rx="5.764" ry="4.069"/>
</g>
<g>
	<path style="fill:#324A5E;" d="M234.638,62.05h-5.764c2.713,5.086,6.442,12.207,6.442,12.207
		C234.299,69.849,234.299,65.78,234.638,62.05z"/>
	<path style="fill:#324A5E;" d="M274.31,62.05c0.678,4.408,1.017,8.816,1.017,8.816c1.017-6.442,4.069-6.781,4.069-6.781
		c0-0.678,0.339-1.356,0.339-2.034H274.31z"/>
</g>
<g>
	<path style="fill:#2B3B4E;" d="M300.419,493.69h-27.465v11.189c0,2.034,1.695,3.73,3.73,3.73h36.959v-1.695
		C313.303,499.793,307.539,493.69,300.419,493.69z"/>
	<path style="fill:#2B3B4E;" d="M209.208,493.69h27.465v11.189c0,2.034-1.695,3.73-3.73,3.73h-36.959v-1.695
		C195.984,499.793,201.748,493.69,209.208,493.69z"/>
</g>
<g>
	<path style="fill:#324A5E;" d="M270.58,105.113c0,0,7.121,7.121-1.695,27.465c0,0-9.833-11.189-15.936-9.155
		C252.609,123.423,267.189,119.354,270.58,105.113z"/>
	<path style="fill:#324A5E;" d="M238.707,105.113c0,0-7.121,7.121,1.695,27.465c0,0,9.833-11.189,15.936-9.155
		C256.339,123.423,242.098,119.354,238.707,105.113z"/>
</g>
<g>
	<circle style="fill:#E6E9EE;" cx="234.299" cy="148.514" r="3.391"/>
	<circle style="fill:#E6E9EE;" cx="251.931" cy="148.514" r="3.391"/>
	<circle style="fill:#E6E9EE;" cx="234.299" cy="172.927" r="3.391"/>
	<circle style="fill:#E6E9EE;" cx="251.931" cy="172.927" r="3.391"/>
	<circle style="fill:#E6E9EE;" cx="234.299" cy="197.34" r="3.391"/>
	<circle style="fill:#E6E9EE;" cx="251.931" cy="197.34" r="3.391"/>
	<circle style="fill:#E6E9EE;" cx="234.299" cy="221.415" r="3.391"/>
	<circle style="fill:#E6E9EE;" cx="251.931" cy="221.415" r="3.391"/>
	<circle style="fill:#E6E9EE;" cx="234.299" cy="245.828" r="3.391"/>
	<circle style="fill:#E6E9EE;" cx="251.931" cy="245.828" r="3.391"/>
	<circle style="fill:#E6E9EE;" cx="234.299" cy="269.902" r="3.391"/>
	<circle style="fill:#E6E9EE;" cx="251.931" cy="269.902" r="3.391"/>
	<path style="fill:#E6E9EE;" d="M227.179,62.728h51.878c-0.339-22.04,8.477-31.873,13.224-41.367h-78.326
		C218.702,30.856,227.518,41.028,227.179,62.728z"/>
	<path style="fill:#E6E9EE;" d="M292.281,21.701c-2.713,5.086-6.103,10.172-9.155,16.954c-0.339,0-0.678,0-1.017,0
		c-4.747,0-8.816-2.034-11.528-5.425c-3.391,6.442-10.172,10.511-17.632,10.511c-7.799,0-14.241-4.408-17.632-10.511
		c-2.713,3.391-6.781,5.425-11.528,5.425c-0.339,0-0.678,0-1.017,0c-2.713-7.121-6.442-12.207-9.155-16.954
		C213.616,21.701,292.281,21.701,292.281,21.701z"/>
</g>
<path style="fill:#CED5E0;" d="M292.281,21.701c-2.713,5.086-6.103,10.172-9.155,16.954c-0.339,0-0.678,0-1.017,0
	c-4.747,0-8.816-2.034-11.528-5.425c-3.391,6.442-10.172,10.511-17.632,10.511c-7.799,0-14.241-4.408-17.632-10.511
	c-2.713,3.391-6.781,5.425-11.528,5.425c-0.339,0-0.678,0-1.017,0c-2.713-7.121-6.442-12.207-9.155-16.954
	C213.616,21.701,292.281,21.701,292.281,21.701z"/>
<path style="fill:#E6E9EE;" d="M282.448,5.086c-4.747,0-8.816,2.034-11.528,5.425C267.529,4.069,260.747,0,253.287,0
	c-7.799,0-14.241,4.408-17.632,10.511c-2.713-3.391-6.781-5.425-11.528-5.425c-8.477,0-14.919,6.781-14.919,14.919
	c0,8.477,6.781,14.919,14.919,14.919c4.747,0,8.816-2.034,11.528-5.425c3.391,6.442,10.172,10.511,17.632,10.511
	c7.799,0,14.241-4.408,17.632-10.511c2.713,3.391,6.781,5.425,11.528,5.425c8.477,0,14.919-6.781,14.919-14.919
	C297.706,11.868,290.925,5.086,282.448,5.086z"/>
<g>
</g>
<g>
</g>
<g>
</g>
<g>
</g>
<g>
</g>
<g>
</g>
<g>
</g>
<g>
</g>
<g>
</g>
<g>
</g>
<g>
</g>
<g>
</g>
<g>
</g>
<g>
</g>
<g>
</g>
</svg>
