<?xml version="1.0" encoding="iso-8859-1"?>
<!-- Generator: Adobe Illustrator 19.0.0, SVG Export Plug-In . SVG Version: 6.00 Build 0)  -->
<svg version="1.1" id="Layer_1" xmlns="http://www.w3.org/2000/svg" xmlns:xlink="http://www.w3.org/1999/xlink" x="0px" y="0px"
	 viewBox="0 0 508.714 508.714" style="enable-background:new 0 0 508.714 508.714;" xml:space="preserve">
<circle style="fill:#FF7058;" cx="254.357" cy="263.904" r="217.007"/>
<rect x="228.927" y="85.212" style="fill:#2B3B4E;" width="50.861" height="51.878"/>
<g>
	<path style="fill:#FFD05B;" d="M327.258,262.208c0,0,10.85,11.528,1.356,35.264c-0.678,1.695-2.713,2.034-4.069,0.678l0,0
		c-0.678-0.339-1.017-1.356-0.678-2.034c1.356-3.391,5.086-13.224,0.678-14.241c-2.034-0.339-4.069,1.695-3.73,3.73l0.339,1.695
		c-0.678,2.034-2.713,2.713-4.069,1.695l0,0c-0.678-0.339-1.017-1.017-1.017-1.695C316.068,282.892,316.747,268.651,327.258,262.208
		z"/>
	<path style="fill:#FFD05B;" d="M182.135,262.208c0,0-10.85,11.528-1.356,35.264c0.678,1.695,2.713,2.034,4.069,0.678l0,0
		c0.678-0.678,1.017-1.695,0.678-2.373c-1.356-3.391-5.086-13.224-0.678-14.241c2.034-0.339,4.069,1.695,3.73,3.73l-0.339,2.374
		c0.339,1.695,2.713,2.713,4.069,1.356l0,0c0.678-0.339,1.017-1.017,1.017-1.695C192.985,282.892,192.646,268.651,182.135,262.208z"
		/>
	<path style="fill:#FFD05B;" d="M268.259,118.781L268.259,118.781c0,0.339,0,1.017-0.339,1.356
		c-1.017,5.086-6.781,9.155-13.563,9.155c-7.121,0-12.885-4.069-13.563-9.155c0-0.339-0.339-1.017-0.339-1.356l0,0
		c0.678-0.339,2.374-2.713,3.052-4.408c4.069-9.155,5.086-19.666,5.086-19.666h11.528c0,0,1.017,10.172,5.086,19.666
		C265.886,116.407,266.903,117.763,268.259,118.781L268.259,118.781z"/>
	<path style="fill:#FFD05B;" d="M268.259,118.781L268.259,118.781c0,0.339,0,1.017-0.339,1.356
		c-1.017,5.086-6.781,9.155-13.563,9.155c-7.121,0-12.885-4.069-13.563-9.155c0-0.339-0.339-1.017-0.339-1.356l0,0
		c0.678-0.339,2.374-2.713,3.052-4.408c0-0.339,0.339-0.678,0.339-1.017c3.73-9.155,4.408-18.31,4.408-18.31h11.528
		c0,0,1.017,9.494,4.408,18.31c0,0.339,0.339,0.678,0.339,1.017C265.886,116.407,266.903,117.763,268.259,118.781L268.259,118.781z"
		/>
</g>
<path style="fill:#FFFFFF;" d="M322.85,166.59c-5.764-33.229-25.77-42.045-40.011-44.079c-4.408-0.678-8.477-1.695-12.546-3.052
	l-2.034-0.678c0,0.339,0,1.017-0.339,1.356c-1.017,5.086-6.781,9.155-13.563,9.155c-7.121,0-12.885-4.069-13.563-9.155
	c0-0.339-0.339-1.017-0.339-1.356l-2.034,0.678c-4.069,1.356-8.138,2.374-12.546,3.052c-13.902,2.034-34.246,10.85-40.011,44.079
	c0,0-14.919,70.866-11.528,111.216h18.988c0,0,1.695-65.78,15.936-92.567c0.339,2.374,0.678,4.747,1.017,7.121h87.82
	c0.339-2.374,0.678-4.747,1.017-7.121c14.241,26.787,15.936,92.906,15.936,92.906h18.988
	C337.43,237.795,322.85,166.59,322.85,166.59z"/>
<path style="fill:#324A5E;" d="M283.178,492.1c0,7.121-3.391,16.615-7.799,16.615s-7.799-9.494-7.799-16.615
	c0-7.121,3.391-9.155,7.799-9.155C279.788,482.945,283.178,484.979,283.178,492.1z"/>
<path style="fill:#FFD05B;" d="M259.782,370.034c-1.356,16.276-0.678,34.246,2.374,53.234c6.103,36.281,9.155,68.154,9.155,68.154
	c0,6.103,2.034,9.155,4.408,9.833c2.373-0.678,4.408-7.121,4.408-9.833c0,0,3.052-31.873,9.155-68.154
	c3.052-18.649,3.73-36.959,2.374-53.234H259.782z"/>
<path style="fill:#324A5E;" d="M225.536,492.1c0,7.121,3.391,16.615,7.799,16.615s7.799-9.494,7.799-16.615
	c0-7.121-3.391-9.155-7.799-9.155C228.927,482.945,225.536,484.979,225.536,492.1z"/>
<g>
	<path style="fill:#FFD05B;" d="M217.398,370.034c-1.356,16.276-0.678,34.246,2.373,53.234c6.103,36.281,9.155,68.154,9.155,68.154
		c0.339,2.713,2.034,9.155,4.408,9.833c2.374-0.678,4.408-3.73,4.408-9.833c0,0,3.052-31.873,9.155-68.154
		c3.052-18.649,3.73-36.959,2.373-53.234H217.398z"/>
	
		<ellipse transform="matrix(0.4578 -0.889 0.889 0.4578 77.2716 295.7158)" style="fill:#FFD05B;" cx="281.088" cy="84.504" rx="5.764" ry="3.052"/>
	
		<ellipse transform="matrix(0.4579 0.889 -0.889 0.4579 198.6788 -157.069)" style="fill:#FFD05B;" cx="228.13" cy="84.375" rx="5.764" ry="3.052"/>
</g>
<path style="fill:#F9B54C;" d="M264.529,113.356c-3.052,2.034-6.781,3.391-10.172,3.391c-3.73,0-7.121-1.356-10.172-3.391
	c3.73-9.155,4.408-18.31,4.408-18.31h11.528C260.121,95.046,261.139,104.54,264.529,113.356z"/>
<path style="fill:#FFD05B;" d="M281.822,71.65c0,19.666-12.207,42.045-27.465,42.045c-14.919,0-27.465-22.04-27.465-42.045
	s12.207-29.499,27.465-29.499C269.276,42.15,281.822,51.983,281.822,71.65z"/>
<path style="fill:#324A5E;" d="M285.891,67.581c-0.339-3.73-1.017-7.121-2.374-10.511h-58.321
	c-1.356,3.391-2.034,7.121-2.373,10.511c-1.017,7.46-3.73,22.379-12.885,23.735c0,0,11.189,28.482,22.379,36.281
	c0,0,5.764-37.298,0-60.355c0,0,0.339,0.339,1.356,0.678c13.224,5.764,27.804,5.764,41.028,0c1.017-0.339,1.356-0.678,1.356-0.678
	c-5.764,23.057,0,60.355,0,60.355c11.189-7.799,22.379-36.281,22.379-36.281C289.621,89.959,286.569,75.04,285.891,67.581z"/>
<path style="fill:#54C0EB;" d="M303.523,266.616c-5.425-18.649-7.799-37.976-6.781-57.303c5.425-2.374,9.155-10.85,9.155-21.023
	c0-11.528-5.086-21.023-11.529-21.701c-2.034-18.31-1.017-41.028-1.017-41.028c-3.391-1.356-7.121-2.374-10.172-2.713l-1.695,44.758
	h-54.591l-1.695-44.758c-3.052,0.339-6.781,1.356-10.172,2.713c0,0,1.017,22.718-1.017,41.028
	c-6.442,0.678-11.528,10.172-11.528,21.701c0,10.172,4.069,18.649,9.155,21.023c0.678,19.327-1.356,38.654-6.781,57.303
	c-4.069,14.58-6.442,30.856-6.442,48.487c0,20.005,3.052,44.758,8.477,60.355h43.401h7.799h43.401
	c5.425-15.936,8.477-40.35,8.477-60.355C310.304,297.811,307.931,281.197,303.523,266.616z"/>
<path style="fill:#E6E9EE;" d="M254.357,0.105c-9.494-0.339-56.625-1.356-47.131,25.091c1.017,3.052,3.391,5.425,5.764,7.799
	c3.391,3.052,9.494,9.494,9.833,14.58h29.838h3.391h29.838c0.339-5.086,6.442-11.528,9.833-14.58
	c2.374-2.374,4.747-4.747,5.764-7.799C310.982-1.251,263.851-0.234,254.357,0.105z"/>
<g>
	<path style="fill:#CED5E0;" d="M274.702,45.88h0.678c1.356-3.73,4.747-10.172,10.85-15.936c2.034-2.034,14.241-14.241,6.103-19.666
		c0,0,6.103,6.103-7.121,19.327C276.736,37.742,275.041,43.507,274.702,45.88z"/>
	<path style="fill:#CED5E0;" d="M265.208,45.88h0.339c1.017-3.73,3.391-10.172,8.138-15.936c1.356-2.034,10.511-14.241,4.408-19.666
		c0,0,4.408,6.103-5.425,19.327C266.903,37.742,265.547,43.507,265.208,45.88z"/>
	<path style="fill:#CED5E0;" d="M254.357,45.88h0.339c0.678-3.73,2.374-10.172,6.103-15.936c1.017-2.034,7.799-14.241,3.391-19.666
		c0,0,3.391,6.103-4.069,19.327C255.714,37.742,254.696,43.507,254.357,45.88z"/>
	<path style="fill:#CED5E0;" d="M233.335,45.88h0.678c-0.339-2.374-2.373-8.477-10.511-16.275
		c-13.563-13.224-7.121-19.327-7.121-19.327c-8.138,5.764,4.069,17.632,6.103,19.666C228.927,36.047,231.978,42.489,233.335,45.88z"
		/>
	<path style="fill:#CED5E0;" d="M242.829,45.88h0.339c-0.339-2.374-1.695-8.477-7.799-16.275
		c-9.833-13.224-5.425-19.327-5.425-19.327c-6.103,5.764,3.052,17.632,4.408,19.666C239.438,36.047,241.812,42.489,242.829,45.88z"
		/>
	<path style="fill:#CED5E0;" d="M253.679,45.88h0.339c-0.339-2.374-1.356-8.477-5.764-16.275
		c-7.46-13.224-4.069-19.327-4.069-19.327c-4.408,5.764,2.374,17.632,3.391,19.666C251.306,36.047,253.001,42.489,253.679,45.88z"/>
</g>
<path style="fill:#ACB3BA;" d="M286.23,47.236v23.057c-20.683-6.103-43.062-6.103-63.407,0V47.236
	C243.507,42.489,265.208,42.489,286.23,47.236z"/>
<g>
</g>
<g>
</g>
<g>
</g>
<g>
</g>
<g>
</g>
<g>
</g>
<g>
</g>
<g>
</g>
<g>
</g>
<g>
</g>
<g>
</g>
<g>
</g>
<g>
</g>
<g>
</g>
<g>
</g>
</svg>
