<?xml version="1.0" encoding="iso-8859-1"?>
<!-- Generator: Adobe Illustrator 19.0.0, SVG Export Plug-In . SVG Version: 6.00 Build 0)  -->
<svg version="1.1" id="Layer_1" xmlns="http://www.w3.org/2000/svg" xmlns:xlink="http://www.w3.org/1999/xlink" x="0px" y="0px"
	 viewBox="0 0 508.609 508.609" style="enable-background:new 0 0 508.609 508.609;" xml:space="preserve">
<circle style="fill:#324A5E;" cx="254.305" cy="254.305" r="217.007"/>
<g>
	<path style="fill:#FFD05B;" d="M330.935,249.558c0,0,11.528,12.207,1.356,37.298c-0.678,1.695-3.052,2.034-4.069,1.017l0,0
		c-0.678-0.678-1.017-1.695-0.678-2.713c1.356-3.73,5.425-13.902,0.678-14.919c-2.374-0.678-4.408,1.695-4.069,4.069l0.339,2.034
		c-0.339,2.034-2.713,2.713-4.069,1.356l0,0c-0.678-0.339-1.017-1.017-1.017-2.034C319.068,271.258,319.746,256.339,330.935,249.558
		z"/>
	<path style="fill:#FFD05B;" d="M178.352,249.558c0,0-11.528,12.207-1.356,37.298c0.678,1.695,3.052,2.034,4.069,1.017l0,0
		c0.678-0.678,1.017-1.695,0.678-2.713c-1.356-3.73-5.425-13.902-0.678-14.919c2.374-0.678,4.408,1.695,4.069,4.069l-0.339,1.695
		c0.339,2.034,2.713,2.713,4.069,1.356l0,0c0.678-0.339,1.017-1.017,1.017-2.034C189.881,271.258,189.203,256.339,178.352,249.558z"
		/>
</g>
<path style="fill:#FF7058;" d="M284.821,490.978c0,7.46-3.73,17.632-8.138,17.632s-8.138-10.172-8.138-17.632
	c0-7.46,3.73-9.494,8.138-9.494C281.091,481.823,284.821,483.857,284.821,490.978z"/>
<path style="fill:#FFD05B;" d="M259.73,366.199c-1.017,16.276-0.339,33.907,2.713,52.556c6.442,38.315,9.494,71.883,9.494,71.883
	c0,6.442,2.374,9.494,4.747,10.172c2.374-0.678,4.408-7.46,4.747-10.172c0,0,3.052-33.568,9.494-71.883
	c3.052-18.31,3.73-36.281,2.713-52.556H259.73z"/>
<path style="fill:#FF7058;" d="M223.788,490.978c0,7.46,3.73,17.632,8.138,17.632s8.138-10.172,8.138-17.632
	c0-7.46-3.73-9.494-8.138-9.494C227.518,481.823,223.788,483.857,223.788,490.978z"/>
<path style="fill:#FFD05B;" d="M214.972,366.199c-1.017,16.276-0.339,33.907,2.713,52.556c6.442,38.315,9.494,71.883,9.494,71.883
	c0.339,2.713,2.374,9.494,4.747,10.172c2.374-0.678,4.747-3.73,4.747-10.172c0,0,3.052-33.568,9.494-71.883
	c3.052-18.31,3.73-36.281,2.713-52.556H214.972z"/>
<path style="fill:#F9B54C;" d="M269.224,148.853V99.348c-1.695-1.356-3.052-2.713-3.73-4.747
	c-4.069-9.833-5.086-20.683-5.086-20.683H248.54c0,0-1.017,10.85-5.086,20.683c-0.678,2.034-2.034,3.391-3.73,4.747v49.505H269.224z
	"/>
<path style="fill:#FFFFFF;" d="M190.22,266.172c0,0,1.695-69.171,16.954-97.314c5.086,28.482,3.391,57.642-4.408,85.446
	c-4.408,15.258-6.781,32.551-6.781,50.861c0,21.023,3.391,46.792,8.816,63.407h99.687c5.425-16.615,8.816-42.384,8.816-63.407
	c0-18.31-2.374-35.942-6.781-50.861c-8.138-27.804-9.833-56.964-4.408-85.446c15.258,28.143,16.954,97.653,16.954,97.653h19.666
	c3.391-42.384-12.207-117.319-12.207-117.319c-6.103-34.924-27.126-44.079-42.045-46.453c-4.408-0.678-8.816-1.695-13.224-3.052
	l-2.034-0.678v7.121h0.339c1.356,6.781,2.034,23.396-15.258,43.062c-17.293-19.666-16.615-36.281-15.258-43.062h1.017v-7.121
	l-2.034,0.678c-4.408,1.695-8.816,2.374-13.224,3.052c-14.919,2.034-35.942,11.528-42.045,46.453c0,0-15.597,74.596-12.207,116.98
	H190.22z"/>
<g>
	
		<ellipse transform="matrix(-0.889 -0.4579 0.4579 -0.889 504.7798 247.8304)" style="fill:#FFD05B;" cx="282.427" cy="62.735" rx="3.052" ry="6.103"/>
	
		<ellipse transform="matrix(0.889 -0.4578 0.4578 0.889 -3.5589 110.839)" style="fill:#FFD05B;" cx="226.89" cy="62.762" rx="3.052" ry="6.103"/>
</g>
<circle style="fill:#F1543F;" cx="254.305" cy="15.936" r="15.936"/>
<path style="fill:#FFD05B;" d="M283.126,49.505c0,20.683-12.885,44.079-28.821,44.079s-28.821-23.396-28.821-44.079
	s12.885-31.195,28.821-31.195S283.126,28.821,283.126,49.505z"/>
<path style="fill:#FF7058;" d="M244.811,17.632c15.936-1.695,50.861-1.695,37.298,43.401c0,0-1.695-23.396-18.31-16.954
	c0,0,3.391,5.425,8.138,5.425c0,0-24.074,4.069-32.551-12.207c0,0-14.919,7.799-12.546,23.735
	C226.84,61.033,211.581,21.023,244.811,17.632z"/>
<g>
	<path style="fill:#E6E9EE;" d="M268.885,99.009l10.511,13.563l-7.799,6.103l5.425,4.747c0,0-3.052,14.58-22.718,25.77
		C254.305,149.192,270.919,111.216,268.885,99.009z"/>
	<path style="fill:#E6E9EE;" d="M239.724,99.009l-10.511,13.563l7.799,6.103l-5.425,4.747c0,0,3.052,14.58,22.718,25.77
		C254.305,149.192,237.69,111.216,239.724,99.009z"/>
</g>
<path style="fill:#2C9984;" d="M287.195,149.192h3.052c11.529-39.332-24.413-54.93-24.752-55.269l0,0c0,0.339,0,0.339,0.339,0.678
	c0.678,1.695,1.695,3.052,3.052,4.069C277.362,104.095,296.35,119.354,287.195,149.192z"/>
<circle style="fill:#E6E9EE;" cx="287.195" cy="155.295" r="7.799"/>
<circle style="fill:#CED5E0;" cx="287.195" cy="155.295" r="5.086"/>
<path style="fill:#2C9984;" d="M253.626,180.387c-2.713,0-5.086-0.339-7.121-1.017c0.339-6.781-1.017-12.546-4.069-16.954
	c-4.069-6.103-9.494-8.477-11.868-9.494c-7.799-17.632-9.494-31.873-4.069-42.045c3.73-7.121,9.833-10.511,13.902-12.207
	c1.017-0.678,1.695-1.695,2.034-2.713c0.339-0.339,0.339-0.678,0.678-1.017c-0.678,0-12.885,2.713-18.988,14.58
	c-5.425,10.85-4.408,25.77,4.069,44.079c0,0,0,0,0,0.339c0,0.678-0.339,13.224,7.799,22.04c2.374,2.374,4.747,4.069,7.799,5.425
	c-0.339,2.034-0.678,4.069-1.017,6.103c0,0.678,0.339,1.356,1.017,1.695h0.339c0.678,0,1.356-0.339,1.356-1.017
	c0.339-2.034,0.678-4.069,1.017-5.764c2.374,0.678,4.747,1.017,7.46,1.017c0.678,0,1.356-0.678,1.356-1.356
	C254.983,181.065,254.305,180.387,253.626,180.387z M237.351,173.944c-5.764-5.764-6.781-14.58-7.121-18.31
	c4.069,1.695,13.563,6.781,13.224,22.379C241.42,176.996,239.385,175.64,237.351,173.944z"/>
<g>
</g>
<g>
</g>
<g>
</g>
<g>
</g>
<g>
</g>
<g>
</g>
<g>
</g>
<g>
</g>
<g>
</g>
<g>
</g>
<g>
</g>
<g>
</g>
<g>
</g>
<g>
</g>
<g>
</g>
</svg>
