<?xml version="1.0" encoding="iso-8859-1"?>
<!-- Generator: Adobe Illustrator 19.0.0, SVG Export Plug-In . SVG Version: 6.00 Build 0)  -->
<svg version="1.1" id="Layer_1" xmlns="http://www.w3.org/2000/svg" xmlns:xlink="http://www.w3.org/1999/xlink" x="0px" y="0px"
	 viewBox="0 0 508.609 508.609" style="enable-background:new 0 0 508.609 508.609;" xml:space="preserve">
<circle style="fill:#FFD05B;" cx="254.305" cy="254.305" r="217.007"/>
<ellipse style="fill:#F1543F;" cx="254.305" cy="71.883" rx="47.47" ry="29.838"/>
<path style="fill:#FF7058;" d="M295.672,57.303c-8.138-9.155-23.735-15.258-41.367-15.258c-17.632,0-33.229,6.103-41.367,15.258
	c0.339-25.77,18.649-53.574,41.367-53.574C276.683,4.069,294.993,31.534,295.672,57.303z"/>
<path style="fill:#F1543F;" d="M271.597,12.546l-3.052,24.752c-4.408-1.017-9.494-1.356-14.241-1.356
	c-5.086,0-9.833,0.339-14.241,1.356l-3.052-24.752C235.995,5.764,241.42,0,248.201,0h12.885C267.189,0,272.615,5.764,271.597,12.546
	z"/>
<g>
	<circle style="fill:#FFD05B;" cx="254.305" cy="14.919" r="6.781"/>
	<polygon style="fill:#FFD05B;" points="254.305,113.25 253.966,113.25 253.966,113.25 	"/>
	<path style="fill:#FFD05B;" d="M267.189,70.866l-12.885-0.678l0,0l0,0l0,0l0,0l-12.885,0.678c0,0,1.017,11.528-4.747,22.04v14.58
		l17.971,5.764l0,0l0,0l16.954-5.425V91.55C266.511,81.377,267.189,70.866,267.189,70.866z"/>
	<path style="fill:#FFD05B;" d="M254.305,113.25L254.305,113.25L254.305,113.25z"/>
</g>
<g>
	<polygon style="fill:#FFFFFF;" points="254.305,113.25 253.966,113.25 253.966,113.25 	"/>
	<path style="fill:#FFFFFF;" d="M271.258,91.55v16.275l-16.954,5.425l0,0l0,0l-17.971-5.764v-14.58
		c1.356-2.374,2.373-4.747,3.052-7.46c2.374-7.799,1.695-14.919,1.695-14.919l12.885-0.678l0,0l0,0l0,0l0,0l12.885,0.678
		c0,0-0.678,6.442,1.695,14.241C269.563,87.142,270.241,89.176,271.258,91.55z"/>
	<path style="fill:#FFFFFF;" d="M254.305,113.25L254.305,113.25L254.305,113.25z"/>
</g>
<polygon style="fill:#F1543F;" points="202.426,271.597 201.748,306.861 210.564,493.351 235.317,493.351 254.305,340.429 
	273.293,493.351 297.706,493.351 306.861,306.861 305.844,271.597 "/>
<g>
	<polygon style="fill:#FFFFFF;" points="243.115,430.283 244.132,421.468 207.174,421.468 207.513,430.283 	"/>
	<polygon style="fill:#FFFFFF;" points="300.758,430.283 301.097,421.468 264.138,421.468 265.494,430.283 	"/>
	<polygon style="fill:#FFFFFF;" points="239.385,458.087 240.742,449.272 208.53,449.272 208.869,458.087 	"/>
	<polygon style="fill:#FFFFFF;" points="299.401,458.087 299.74,449.272 267.528,449.272 268.885,458.087 	"/>
</g>
<polygon style="fill:#324A5E;" points="306.522,280.413 305.844,268.207 202.426,268.207 201.748,280.413 "/>
<g>
	<rect x="277.701" y="269.224" style="fill:#F1543F;" width="5.086" height="15.936"/>
	<rect x="225.483" y="269.224" style="fill:#F1543F;" width="5.086" height="15.936"/>
	<path style="fill:#F1543F;" d="M336.36,216.328c-4.069-62.05-19.666-97.314-19.666-97.314s-7.799,33.568-11.868,69.849
		l8.138,26.448l-10.511,7.121l-3.052,2.034v34.924c2.034-1.356,4.408-2.373,6.103-3.73c9.833-6.442,17.632-13.224,22.718-18.649
		C333.987,231.587,336.699,223.788,336.36,216.328z"/>
	<path style="fill:#F1543F;" d="M208.191,224.127l-2.374-1.695l-10.511-7.121l8.138-26.448
		c-3.73-36.281-11.868-69.849-11.868-69.849s-15.597,34.925-19.666,97.314c-0.678,7.799,2.374,15.258,7.799,21.023
		c5.086,5.425,12.546,12.207,22.718,18.649c1.695,1.356,3.73,2.374,5.764,3.391V224.127z"/>
</g>
<path style="fill:#E6E9EE;" d="M268.885,85.107l-1.017,1.356c-2.374,3.052-5.764,4.747-9.494,5.425H256
	c-1.356,0.339-2.713,0.339-4.069,0l-2.713-0.339c-3.73-0.678-7.121-2.374-9.494-5.425l-0.678-0.678
	c2.374-7.799,1.695-14.919,1.695-14.919l12.885-0.678l0,0l0,0l0,0l0,0l12.885,0.678C267.189,70.866,266.85,77.309,268.885,85.107z"
	/>
<g>
	<path style="fill:#FFFFFF;" d="M277.022,45.775c-6.781-2.374-14.58-3.73-22.718-3.73c-7.46,0-14.58,1.017-20.683,3.052
		c-1.017,0.339-1.695,0.678-2.713,1.017l2.374,24.074c0.339,3.052,1.356,5.764,3.391,8.138c0,0,4.408,5.425,5.425,6.103
		c3.391,2.713,7.46,4.408,11.868,4.408s8.816-1.356,11.868-4.408c1.017-0.678,5.425-6.103,5.425-6.103
		c2.034-2.374,3.052-5.086,3.391-8.138L277.022,45.775L277.022,45.775z"/>
	<path style="fill:#FFFFFF;" d="M281.43,53.234c-1.356,3.052-4.069,5.086-6.103,4.069c-2.034-0.678-3.052-4.069-1.695-7.121
		c0.678-2.034,2.374-3.391,3.73-4.069c0.678,0.339,1.695,0.678,2.374,1.017c0.678,0.339,1.356,0.678,2.034,0.678
		C282.109,49.166,282.109,51.2,281.43,53.234z"/>
	<path style="fill:#FFFFFF;" d="M232.604,57.303c-2.034,0.678-4.747-1.017-6.103-4.069c-0.678-1.695-0.678-3.73-0.339-5.086
		c0.678-0.339,1.356-0.678,2.374-1.017c0.678-0.339,1.695-0.678,2.374-1.017c1.356,0.678,2.713,2.034,3.391,4.069
		C235.317,53.234,234.638,56.625,232.604,57.303z"/>
</g>
<g>
	<path style="fill:#324A5E;" d="M233.96,57.642c0,0-2.713-5.425-5.425-10.511c1.695-0.678,3.391-1.356,5.086-1.695
		C232.943,48.826,232.943,53.234,233.96,57.642z"/>
	<path style="fill:#324A5E;" d="M279.396,46.792C279.396,47.131,279.396,47.131,279.396,46.792c0,0.339-3.052,0.678-4.069,7.46
		c0,0,0-4.408-1.017-9.155C276.344,45.775,278.04,46.114,279.396,46.792z"/>
	<path style="fill:#324A5E;" d="M301.436,493.351h-28.482v11.528c0,2.034,1.695,3.73,3.73,3.73h38.315v-1.695
		C314.999,499.454,308.895,493.351,301.436,493.351z"/>
</g>
<path style="fill:#2B3B4E;" d="M206.834,493.351h28.482v11.528c0,2.034-1.695,3.73-3.73,3.73h-38.315v-1.695
	C193.272,499.454,199.375,493.351,206.834,493.351z"/>
<path style="fill:#FF7058;" d="M304.827,188.864c5.086-39.672,11.868-69.849,11.868-69.849
	c-11.528-14.919-46.114-28.821-46.114-28.821l0,0v0.339c-2.034,8.477-9.155,12.546-16.275,12.546
	c-7.121,0-14.241-4.408-16.276-12.546v-0.339l0,0c0,0-34.585,14.241-46.114,28.821c0,0,6.781,29.838,11.868,69.849
	c4.069,32.551-1.695,45.775-1.017,80.36h103.417C306.522,234.638,300.758,221.415,304.827,188.864z"/>
<path style="fill:#FFFFFF;" d="M198.019,151.226c0.339,2.713,1.017,5.425,1.356,8.477h109.86c0.339-3.052,1.017-5.764,1.356-8.477
	H198.019z"/>
<path style="fill:#FFFFFF;" d="M194.289,130.543c0.339,2.374,1.017,4.747,1.356,7.46h117.319c0.678-2.713,1.017-5.425,1.356-7.46
	H194.289z"/>
<path style="fill:#324A5E;" d="M253.966,67.815c-4.069-2.034-5.764,4.408-12.546,0.678c0,0,2.713,7.121,12.546,2.713
	c9.833,4.408,12.546-2.713,12.546-2.713C259.73,72.223,258.034,65.78,253.966,67.815z"/>
<path style="fill:#E6E9EE;" d="M263.46,284.821h-18.988c-2.373,0-4.069-1.695-4.069-4.069v-11.189c0-2.374,1.695-4.069,4.069-4.069
	h18.988c2.374,0,4.069,1.695,4.069,4.069v11.189C267.528,282.787,265.833,284.821,263.46,284.821z M244.811,268.546
	c-0.678,0-1.017,0.339-1.017,1.017v11.189c0,0.678,0.339,1.017,1.017,1.017h18.988c0.678,0,1.017-0.339,1.017-1.017v-11.189
	c0-0.678-0.339-1.017-1.017-1.017H244.811z"/>
<g>
</g>
<g>
</g>
<g>
</g>
<g>
</g>
<g>
</g>
<g>
</g>
<g>
</g>
<g>
</g>
<g>
</g>
<g>
</g>
<g>
</g>
<g>
</g>
<g>
</g>
<g>
</g>
<g>
</g>
</svg>
