<?xml version="1.0" encoding="iso-8859-1"?>
<!-- Generator: Adobe Illustrator 19.0.0, SVG Export Plug-In . SVG Version: 6.00 Build 0)  -->
<svg version="1.1" id="Layer_1" xmlns="http://www.w3.org/2000/svg" xmlns:xlink="http://www.w3.org/1999/xlink" x="0px" y="0px"
	 viewBox="0 0 508.647 508.647" style="enable-background:new 0 0 508.647 508.647;" xml:space="preserve">
<circle style="fill:#F1543F;" cx="254.323" cy="254.342" r="217.007"/>
<path style="fill:#FFD05B;" d="M267.547,65.139l-13.224-0.678l0,0l0,0l0,0l0,0l-13.224,0.678c0,0,1.017,11.868-4.747,22.718v14.919
	l18.31,5.764l0,0l0,0l17.293-5.425V86.501C266.869,75.99,267.547,65.139,267.547,65.139z"/>
<path style="fill:#F9B54C;" d="M269.243,79.72l-1.017,1.356c-2.374,3.052-5.764,4.747-9.494,5.425h-9.494
	c-3.73-0.678-7.121-2.374-9.494-5.425l-0.678-0.678c2.373-8.138,1.695-15.258,1.695-15.258l13.224-0.678l0,0l0,0l0,0l0,0
	l13.224,0.678C267.547,65.139,267.208,71.921,269.243,79.72z"/>
<path style="fill:#84DBFF;" d="M338.074,213.314c-4.069-63.407-20.005-99.009-20.005-99.009s0,0.339,0,0.678
	c0-0.339,0-0.678,0-0.678c-11.529-14.919-46.792-29.499-46.792-29.499v0.339c-2.374,8.477-9.494,12.885-16.615,12.885
	c-7.121,0-14.58-4.408-16.615-12.885v-0.339c0,0-35.264,14.241-46.792,29.499c0,0,7.121,30.517,12.207,70.866
	c3.391,28.143-0.339,42.045-1.017,67.475h106.13c9.833-6.442,17.293-13.224,22.379-18.31
	C335.701,228.912,338.413,221.113,338.074,213.314z M304.845,218.739c-0.678-9.833-0.678-20.005,1.017-33.568c0,0,0,0,0-0.339
	c0,0,0,0,0,0.339l8.477,27.126L304.845,218.739z"/>
<path style="fill:#FFFFFF;" d="M305.862,185.171c0,0-8.816-16.954-8.477-87.142c-5.086-3.052-10.172-5.764-14.58-7.799v67.136
	H226.18V90.231c-2.374,1.017-4.747,2.374-7.46,3.73c-2.374,1.356-4.747,2.713-7.121,4.069l0,0
	c0.339,70.188-8.477,87.142-8.477,87.142l0,0l0,0c4.069,33.229-1.695,46.453-1.017,81.717h105.452
	C307.897,231.624,301.794,218.4,305.862,185.171z"/>
<g>
	<path style="fill:#54C0EB;" d="M249.915,350.3h-44.079c3.73,43.401,1.017,130.543,0.339,142.411h32.212
		C237.031,469.653,244.49,398.109,249.915,350.3z"/>
	<path style="fill:#54C0EB;" d="M306.201,350.3h-45.775c3.052,51.878,4.408,130.882,4.408,142.411h31.873
		C296.368,482.877,298.403,419.131,306.201,350.3z"/>
</g>
<path style="fill:#324A5E;" d="M293.995,493.049h-28.821v11.868c0,2.034,1.695,3.73,3.73,3.73h38.993v-2.034
	C307.897,499.153,301.794,493.049,293.995,493.049z"/>
<path style="fill:#2B3B4E;" d="M209.227,493.049h28.821v11.868c0,2.034-1.695,3.73-3.73,3.73h-38.654v-2.034
	C195.664,499.153,201.767,493.049,209.227,493.049z"/>
<path style="fill:#FFFFFF;" d="M332.649,392.684c-8.477-50.861-24.413-143.428-26.787-157.669H204.141
	c-2.374,14.241-18.649,106.808-26.787,157.669H332.649z"/>
<circle style="fill:#324A5E;" cx="240.76" cy="256.716" r="2.034"/>
<g>
	<polygon style="fill:#FFD05B;" points="254.323,108.541 254.323,108.541 254.323,108.202 	"/>
	<polygon style="fill:#FFD05B;" points="254.323,108.202 254.323,108.541 254.323,108.541 	"/>
</g>
<g>
	<polygon style="fill:#FFFFFF;" points="254.323,108.541 254.323,108.541 254.323,108.202 	"/>
	<polygon style="fill:#FFFFFF;" points="254.323,108.202 254.323,108.541 254.323,108.541 	"/>
</g>
<path style="fill:#FFD05B;" d="M242.795,255.698l-2.034-0.678l2.713-4.408l1.356,1.017
	C246.864,252.986,245.507,256.376,242.795,255.698z"/>
<g>
	<path style="fill:#FFD05B;" d="M253.645,22.416h-25.091l4.069,42.384c0.339,3.052,1.356,5.764,3.391,8.138l3.391,4.408
		c2.373,3.052,5.764,4.747,9.494,5.425h9.155c3.73-0.678,7.121-2.374,9.494-5.425l3.391-4.408c2.034-2.374,3.052-5.086,3.391-8.138
		l4.069-42.384C278.397,22.416,253.645,22.416,253.645,22.416z"/>
	<path style="fill:#FFD05B;" d="M281.788,47.169c-1.356,3.391-4.069,5.086-6.103,4.408c-2.034-0.678-3.052-4.069-1.695-7.46
		c1.356-3.391,4.069-5.086,6.103-4.408C282.466,40.726,283.145,44.117,281.788,47.169z"/>
	<path style="fill:#FFD05B;" d="M225.502,47.169c1.356,3.391,4.069,5.086,6.103,4.408c2.034-0.678,3.052-4.069,1.695-7.46
		s-4.069-5.086-6.103-4.408C225.163,40.726,224.485,44.117,225.502,47.169z"/>
</g>
<path style="fill:#324A5E;" d="M232.962,12.583c0,0,20.683-30.856,49.166,4.069l-3.052-1.017c0,0,5.425,5.764,0.678,25.43
	c0,0-3.052,0.339-4.069,7.121c0,0-0.678-15.936-4.747-19.327c0,0-26.787,1.695-33.568-4.408c0,0-6.781,11.189-4.069,27.126
	c0,0-5.086-9.833-8.138-15.258c-2.034-3.73-3.052-7.799-3.052-12.207C222.45,18.686,224.824,12.583,232.962,12.583z"/>
<path style="fill:#E6E9EE;" d="M279.415,226.877h-46.792c-6.442,0-11.528-5.086-11.528-11.528v-43.401h69.51v43.401
	C290.943,221.452,285.518,226.877,279.415,226.877z"/>
<path style="fill:#2B3B4E;" d="M237.031,298.761c0.339-2.034,0.339-4.069,0-6.103l0,0l0,0c-0.339-1.695-1.356-3.052-2.374-4.069
	c-3.73-9.155,4.069-13.224,4.069-13.224l1.356-8.816l0,0l21.701-44.758l-29.499,40.011l4.408,2.713
	c-0.678,9.155-7.799,18.649-10.85,22.718c-2.713,1.356-5.086,4.069-5.764,7.799c-1.356,5.764,1.695,11.189,6.442,12.207
	C230.927,308.255,236.013,304.186,237.031,298.761z M222.45,295.709c0.678-4.069,4.069-6.781,7.121-6.103
	c3.391,0.678,5.425,4.069,4.747,8.138c-0.678,4.069-4.069,6.781-7.121,6.103C223.807,303.169,221.772,299.778,222.45,295.709z"/>
<path style="fill:#324A5E;" d="M220.416,283.502c2.374-1.695,4.069-4.408,4.747-6.781c0.678-2.034,1.356-6.442,1.356-6.442
	l8.816-6.781l1.695,1.017l25.43-42.723l-30.177,39.672l-5.764,4.747c-5.425-1.017-7.46,0-8.138,0.678
	c-2.713-0.339-5.764,0.339-8.138,2.034c-4.747,3.391-6.442,9.494-3.391,13.224C209.566,286.215,215.669,286.893,220.416,283.502z
	 M209.227,280.451c-2.034-2.713-1.017-6.781,2.374-9.155s7.46-2.034,9.494,0.678c2.034,2.713,1.017,6.781-2.373,9.155
	C215.33,283.502,211.261,283.163,209.227,280.451z"/>
<path style="fill:#FFD05B;" d="M244.151,271.974l9.494-13.902c1.695-2.374,1.017-5.425-1.356-7.121l-11.868-8.138
	c-0.678-0.339-1.356-0.678-2.374-0.678c-3.052-0.339-6.442-1.356-9.155-2.713l-11.868-7.121l-10.511,15.258l11.189,8.816
	c2.373,2.034,4.408,4.747,6.103,7.46c0.339,0.678,1.017,1.356,1.695,1.695l11.868,8.138
	C239.404,275.025,242.456,274.347,244.151,271.974z"/>
<path style="fill:#84DBFF;" d="M170.572,213.314c-0.678,7.799,2.374,15.597,7.799,21.362c5.086,5.425,12.885,12.207,23.057,18.988
	c4.069,2.713,8.477,5.086,13.224,7.46c1.695,0.678,3.73,0,4.408-1.695l7.799-21.701c0.339-1.356,0-2.713-1.017-3.73l-21.023-14.241
	l-10.511-7.121l8.477-27.126c-4.069-36.959-12.207-70.866-12.207-70.866S174.98,149.908,170.572,213.314z"/>
<g>
</g>
<g>
</g>
<g>
</g>
<g>
</g>
<g>
</g>
<g>
</g>
<g>
</g>
<g>
</g>
<g>
</g>
<g>
</g>
<g>
</g>
<g>
</g>
<g>
</g>
<g>
</g>
<g>
</g>
</svg>
