<?xml version="1.0" encoding="iso-8859-1"?>
<!-- Generator: Adobe Illustrator 19.0.0, SVG Export Plug-In . SVG Version: 6.00 Build 0)  -->
<svg version="1.1" id="Layer_1" xmlns="http://www.w3.org/2000/svg" xmlns:xlink="http://www.w3.org/1999/xlink" x="0px" y="0px"
	 viewBox="0 0 508.609 508.609" style="enable-background:new 0 0 508.609 508.609;" xml:space="preserve">
<circle style="fill:#FD8469;" cx="254.305" cy="254.305" r="217.007"/>
<path style="fill:#324A5E;" d="M291.603,493.351H263.46v11.528c0,2.034,1.695,3.73,3.73,3.73h37.976v-1.695
	C305.166,499.454,299.062,493.351,291.603,493.351z"/>
<path style="fill:#2B3B4E;" d="M212.26,493.351h28.143v11.528c0,2.034-1.695,3.73-3.73,3.73h-38.315v-1.695
	C198.358,499.454,204.461,493.351,212.26,493.351z"/>
<path style="fill:#324A5E;" d="M281.43,45.436h-54.93V17.632C226.501,7.799,234.299,0,244.132,0h19.666
	c9.833,0,17.632,7.799,17.632,17.632V45.436z"/>
<path style="fill:#2B3B4E;" d="M296.35,38.993c0,9.833-18.988,21.362-42.723,21.362c-23.396,0-42.723-11.528-42.723-21.362
	s20.005-1.017,43.74-1.017C278.379,37.976,296.35,29.16,296.35,38.993z"/>
<path style="fill:#324A5E;" d="M212.26,493.351h28.143c-2.034-31.195,14.58-162.416,14.58-162.416
	c5.764,5.764,8.477,147.836,8.477,162.416h27.465c-0.339-9.494,1.695-75.952,10.172-142.072
	c9.155-71.544-5.764-106.808-5.764-106.808h-78.326c-20.344,21.362-8.138,106.469-8.138,106.469
	C216.328,367.894,212.938,480.466,212.26,493.351z"/>
<g>
	<path style="fill:#2B3B4E;" d="M290.924,493.351c-0.339-9.494,1.695-75.952,10.172-142.072
		c9.155-71.544-5.764-106.808-5.764-106.808h-40.011v87.142c5.764,13.563,7.799,147.497,8.138,161.738H290.924z"/>
	<path style="fill:#2B3B4E;" d="M290.924,493.351c-0.339-9.494,1.695-75.952,10.172-142.072c2.713-22.379,3.391-41.028,2.713-56.286
		v-0.339c-1.356-33.568-8.477-50.183-8.477-50.183h-40.011v87.142c5.764,13.563,7.799,147.497,8.138,161.738H290.924z"/>
</g>
<path style="fill:#324A5E;" d="M304.148,294.654c-9.494-2.713-18.649-12.207-23.396-25.43c-3.052-8.816-3.73-17.293-2.373-24.752
	h17.293C295.672,244.472,302.453,261.086,304.148,294.654z"/>
<path style="fill:#2B3B4E;" d="M204.122,294.654c9.494-2.713,18.649-12.207,23.396-25.43c3.052-8.816,3.73-17.293,2.374-24.752
	h-17.293C212.599,244.472,205.478,261.086,204.122,294.654z"/>
<ellipse style="fill:#F9B54C;" cx="253.966" cy="97.314" rx="17.971" ry="23.396"/>
<path style="fill:#CED5E0;" d="M253.626,110.538c0,0,5.086,0.339,4.408,9.155l-1.017,51.539l-8.816-2.374l-14.241-45.436
	l-1.356-14.241l9.833-3.73L253.626,110.538z"/>
<path style="fill:#E6E9EE;" d="M253.287,110.538c0,0-5.086,0.339-4.408,9.155l1.017,51.539l8.816-2.374l14.241-45.436l1.356-14.241
	l-9.833-3.73L253.287,110.538z"/>
<g>
	<path style="fill:#FFFFFF;" d="M271.597,94.601c0,0,10.172,8.816-5.425,26.109c0,0-9.494-10.511-13.224-10.172
		C253.287,110.538,273.632,98.67,271.597,94.601z"/>
	<path style="fill:#FFFFFF;" d="M236.334,94.601c0,0-10.172,8.816,5.425,26.109c0,0,9.494-10.511,13.224-10.172
		C254.983,110.538,234.299,98.67,236.334,94.601z"/>
</g>
<path style="fill:#2B3B4E;" d="M233.282,105.452l-6.781,11.868V248.54l19.666,6.781l12.546-18.649v-62.728
	C248.879,161.399,233.282,105.452,233.282,105.452z"/>
<path style="fill:#324A5E;" d="M234.977,96.297c0,0-2.034,13.563,1.356,40.35s6.103,60.355,5.764,65.441
	c0,0-8.477,79.343-38.993,86.124c0,0,4.069-51.878,8.138-69.51c0,0,0-33.568-5.425-41.367c0,0,2.034-38.993-9.833-62.389
	C195.984,114.607,234.299,104.774,234.977,96.297z"/>
<path style="fill:#ACB3BA;" d="M218.702,116.641c0,0,12.885,65.441,23.396,81.717c-0.339-10.172-2.713-38.654-5.764-62.05
	c-3.052-24.752-1.695-37.976-1.356-40.011c0,0,0,0,0-0.339l0,0l0,0c0,0-4.408,3.391-8.477,7.46c-2.713,2.374-5.086,5.425-6.103,7.46
	l3.73,2.713L218.702,116.641z"/>
<path style="fill:#FFD05B;" d="M188.185,287.195c0,0,6.781,24.074,17.971,27.126c0,0,6.781,2.374,5.425-1.356
	c0,0,0-4.408-4.408-5.425c0,0-1.017-3.052-3.73-2.713c0,0,1.695-2.374-1.695-6.442c0,0,0.339-2.374-0.678-3.73
	c0,0,3.391-1.356,3.052-1.695c0,0,0.678,11.528,6.781,10.511c0,0,2.034-1.356,0-5.425c0,0-1.695-15.597-6.103-17.632
	C204.8,280.752,195.306,279.396,188.185,287.195z"/>
<path style="fill:#E6E9EE;" d="M186.151,279.396l1.695,9.155c0,0,11.189-9.494,17.971-6.781l-2.034-6.442L186.151,279.396z"/>
<path style="fill:#2B3B4E;" d="M195.984,114.607c0,0-5.425,0-8.138,35.264c-2.713,35.264-6.781,112.911-3.73,131.221l22.718-3.391
	c0,0-2.713-88.159-1.017-100.705C205.817,176.996,212.599,139.359,195.984,114.607z"/>
<g>
	<circle style="fill:#E6E9EE;" cx="254.644" cy="178.013" r="2.034"/>
	<circle style="fill:#E6E9EE;" cx="254.644" cy="192.593" r="2.034"/>
	<circle style="fill:#E6E9EE;" cx="254.644" cy="207.174" r="2.034"/>
	<circle style="fill:#E6E9EE;" cx="254.644" cy="220.397" r="2.034"/>
</g>
<path style="fill:#324A5E;" d="M280.413,114.946l-5.425-9.155c0,0-15.597,55.608-25.091,68.493v62.728l12.546,18.649l17.971-6.442
	V114.946z"/>
<path style="fill:#2B3B4E;" d="M273.632,96.297c0,0,2.034,13.563-1.356,40.35s-6.103,60.355-5.764,65.441
	c0,0,8.477,79.343,38.993,86.124c0,0-4.069-51.878-8.138-69.51c0,0,0-33.568,5.425-41.367c0,0-2.034-38.993,9.833-62.389
	C312.625,114.607,274.31,104.774,273.632,96.297z"/>
<path style="fill:#ACB3BA;" d="M289.907,116.641c0,0-12.885,65.441-23.396,81.717c0.339-10.172,2.713-38.654,5.764-62.05
	c3.052-24.752,1.695-37.976,1.356-40.011c0,0,0,0,0-0.339l0,0l0,0c0,0,4.408,3.391,8.477,7.46c2.713,2.374,5.086,5.425,6.103,7.46
	l-3.73,2.713L289.907,116.641z"/>
<path style="fill:#FFD05B;" d="M320.424,287.195c0,0-6.781,24.074-17.971,27.126c0,0-6.781,2.374-5.425-1.356
	c0,0,0-4.408,4.408-5.425c0,0,1.017-3.052,3.73-2.713c0,0-1.695-2.374,1.695-6.442c0,0-0.339-2.374,0.678-3.73
	c0,0-3.391-1.356-3.052-1.695c0,0-0.678,11.528-6.781,10.511c0,0-2.034-1.356,0-5.425c0,0,1.695-15.597,6.103-17.632
	C303.809,280.752,313.303,279.396,320.424,287.195z"/>
<path style="fill:#E6E9EE;" d="M322.458,279.396l-1.695,9.155c0,0-11.189-9.494-17.971-6.781l2.034-6.442L322.458,279.396z"/>
<path style="fill:#324A5E;" d="M312.625,114.607c0,0,5.425,0,8.138,35.264s6.781,112.911,3.73,131.221l-22.718-3.391
	c0,0,2.713-88.159,1.017-100.705C302.792,176.996,296.011,139.359,312.625,114.607z"/>
<g>
	<circle style="fill:#E6E9EE;" cx="253.966" cy="178.013" r="2.034"/>
	<circle style="fill:#E6E9EE;" cx="253.966" cy="192.593" r="2.034"/>
	<circle style="fill:#E6E9EE;" cx="253.966" cy="207.174" r="2.034"/>
	<circle style="fill:#E6E9EE;" cx="253.966" cy="220.397" r="2.034"/>
</g>
<g>
	
		<ellipse transform="matrix(0.2356 -0.9718 0.9718 0.2356 145.6388 320.1435)" style="fill:#FFD05B;" cx="276.335" cy="67.489" rx="10.85" ry="5.086"/>
	
		<ellipse transform="matrix(0.2356 0.9718 -0.9718 0.2356 242.8497 -173.7542)" style="fill:#FFD05B;" cx="231.881" cy="67.503" rx="10.85" ry="5.086"/>
	<path style="fill:#FFD05B;" d="M275.666,58.66c0.339,2.374,0.678,4.747,0.678,7.46c0,17.971-9.833,36.959-21.701,36.959
		s-21.701-18.988-21.701-36.959c0-0.678,0-1.356,0-2.034V45.097c0.678,0,1.695,0,2.373-0.339c5.764-0.678,11.868-0.678,18.649-0.678
		c6.442,0,12.546,0.339,17.971,0.678c1.017,0,2.034,0.339,3.052,0.339L275.666,58.66z"/>
</g>
<g>
	<path style="fill:#324A5E;" d="M235.995,54.252c-3.052,1.695-2.373,12.546-2.373,12.546l-0.339,0.678
		c0.339-0.678-1.356-4.408-1.356-4.408c-2.373-7.121-3.73-12.885-4.069-16.954c2.374-0.339,5.086-0.678,7.46-1.017
		C234.977,49.166,235.995,54.252,235.995,54.252z"/>
	<path style="fill:#324A5E;" d="M274.988,64.424c1.356-7.121-1.017-14.58-3.052-19.327c2.034,0.339,4.069,0.339,6.103,0.678
		C277.701,54.93,274.988,64.085,274.988,64.424z"/>
</g>
<g>
</g>
<g>
</g>
<g>
</g>
<g>
</g>
<g>
</g>
<g>
</g>
<g>
</g>
<g>
</g>
<g>
</g>
<g>
</g>
<g>
</g>
<g>
</g>
<g>
</g>
<g>
</g>
<g>
</g>
</svg>
