<?xml version="1.0" encoding="iso-8859-1"?>
<!-- Generator: Adobe Illustrator 19.0.0, SVG Export Plug-In . SVG Version: 6.00 Build 0)  -->
<svg version="1.1" id="Layer_1" xmlns="http://www.w3.org/2000/svg" xmlns:xlink="http://www.w3.org/1999/xlink" x="0px" y="0px"
	 viewBox="0 0 508.53 508.53" style="enable-background:new 0 0 508.53 508.53;" xml:space="preserve">
<circle style="fill:#324A5E;" cx="254.265" cy="254.305" r="217.007"/>
<g>
	<path style="fill:#2B3B4E;" d="M224.087,38.993c0,0,1.695,4.747,8.138-1.356c0,0-0.339-8.138-3.73-6.781
		C225.105,31.534,224.087,38.993,224.087,38.993z"/>
	<path style="fill:#2B3B4E;" d="M286.477,40.011c0,0-1.695,4.747-8.477-1.356c0,0,0.339-8.138,3.73-7.121
		C285.46,32.551,286.477,40.011,286.477,40.011z"/>
</g>
<path style="fill:#FFD05B;" d="M297.327,101.383l-14.919-7.121c-5.764-2.713-10.172-8.477-10.85-14.919l-1.695-11.189h-30.856
	l-1.695,11.189c-1.017,6.442-5.086,12.207-11.189,14.919l-11.868,5.764l-4.408,26.787l46.792,15.258l44.758-15.258L297.327,101.383z
	"/>
<path style="fill:#2B3B4E;" d="M293.597,496.742c0,0,9.155,14.919-12.546,11.189c0,0-18.31,4.069-11.189-11.189
	C269.862,496.742,289.528,494.029,293.597,496.742z"/>
<path style="fill:#54C0EB;" d="M288.511,482.501c0,0,1.356,8.816,4.069,10.511c0,0,8.477,10.172-6.781,9.155
	c-3.052-0.339-5.764-0.339-8.816-0.339c-3.391,0-7.799-0.678-9.155-3.73c0,0-1.356-4.069,3.052-9.494c0,0,2.713-4.747,1.017-7.799
	C270.879,477.076,291.224,474.024,288.511,482.501z"/>
<path style="fill:#2B3B4E;" d="M215.611,496.742c0,0-9.155,14.919,12.546,11.189c0,0,18.31,4.069,11.189-11.189
	C239.685,496.742,220.019,494.029,215.611,496.742z"/>
<path style="fill:#54C0EB;" d="M221.036,482.501c0,0-1.356,8.816-4.069,10.511c0,0-8.477,10.172,6.781,9.155
	c3.052-0.339,5.764-0.339,8.816-0.339c3.391,0,7.799-0.678,9.155-3.73c0,0,1.356-4.069-3.052-9.494c0,0-2.713-4.747-1.017-7.799
	C238.328,477.076,218.323,474.024,221.036,482.501z"/>
<path style="fill:#2C9984;" d="M302.752,278.04c0.678-8.138-5.764-40.689-5.764-40.689c-14.241,4.408-32.89,2.713-40.689,2.034
	v-0.678c0,0-0.678,0-2.034,0.339c-1.356-0.339-2.034-0.339-2.034-0.339v0.678c-7.799,1.017-26.787,2.713-40.689-2.034
	c0,0-6.442,32.551-5.764,40.689c1.356,8.477,6.103,56.625,9.494,70.527c3.052,13.902,5.764,122.066,2.374,127.491
	c0,0,0,10.85,1.017,14.241c0,0,13.902-8.138,20.683,0c0,0,4.069-15.936,4.069-18.649c-0.339-7.121,4.069-104.774,4.069-110.877
	c0.339-18.31,1.695-60.355,5.086-73.918c0.339-1.017,1.017-1.695,2.034-1.695c1.017,0,1.695,0.678,2.034,1.695
	c3.052,13.563,4.747,55.608,5.086,73.918c0,6.103,4.408,103.756,4.069,110.877c0,2.713,4.069,18.649,4.069,18.649
	c6.781-8.138,20.683,0,20.683,0c1.356-3.391,1.017-14.241,1.017-14.241c-3.052-5.425-0.678-113.589,2.374-127.491
	C297.327,334.665,302.074,286.517,302.752,278.04z"/>
<g>
	<path style="fill:#FFD05B;" d="M323.097,135.29c0,0-2.374,50.861,1.017,57.981c0,0,7.799,24.074,1.356,53.913
		c0,0,1.017,27.126-0.339,32.551c0,0-1.695,24.413,0,30.177c0,0-6.442,12.885-20.344,13.563l-1.356-3.391
		c0,0,11.189-1.695,8.138-23.057l-3.052-1.356l1.017,14.919c0,0-3.73,6.442-6.103-0.339c0,0-2.034-20.344,3.73-27.465
		c0,0,8.816-16.615,2.374-35.264c-5.425-15.936-9.494-45.097-8.816-58.321c0.339-4.747,0-9.833-0.678-14.58
		c-1.017-9.494-1.695-23.396,2.374-31.195C308.856,130.882,323.097,135.29,323.097,135.29z"/>
	<path style="fill:#FFD05B;" d="M185.433,135.29c0,0,2.374,50.861-1.017,57.981c0,0-7.799,24.074-1.356,53.913
		c0,0-1.017,27.126,0.339,32.551c0,0,1.695,24.413,0,30.177c0,0,6.442,12.885,20.344,13.563l1.356-3.391
		c0,0-11.189-1.695-8.138-23.057l3.052-1.356l-1.017,14.919c0,0,3.73,6.442,6.103-0.339c0,0,2.034-20.344-3.73-27.465
		c0,0-8.816-16.615-2.374-35.264c5.425-15.936,9.494-45.097,8.816-58.321c-0.339-4.747,0-9.833,0.678-14.58
		c1.017-9.494,1.695-23.396-2.374-31.195C199.674,130.882,185.433,135.29,185.433,135.29z"/>
</g>
<g>
	<path style="fill:#E6E9EE;" d="M323.097,135.29c0.678-33.229-35.264-38.315-35.264-38.315c-7.121,28.821-25.091,32.89-33.568,32.89
		c-8.477-0.339-26.448-4.408-33.568-32.89c0,0-35.942,5.086-35.264,38.315c0,0,10.511,9.833,21.362,10.85
		c-2.374,3.391-3.391,9.494-1.695,16.615c1.356,5.764,4.069,11.189,7.46,14.58c1.017,12.885,0.339,27.126-4.747,36.62
		c0,0-5.425,23.057-1.356,34.246c0,0.339,0.339,0.678,0.339,0.678l1.017,1.695c0,0,26.448,8.477,47.131,4.747
		c19.327,3.391,44.419-4.069,46.792-4.747h0.339l1.017-1.695v-0.339c4.408-11.189-1.356-34.585-1.356-34.585
		c-5.086-9.494-5.764-23.396-4.747-35.942c3.391-3.73,6.442-9.155,7.799-15.258c1.695-7.121,0.678-13.224-1.695-16.615
		C312.924,144.784,323.097,135.29,323.097,135.29z"/>
	<path style="fill:#E6E9EE;" d="M323.097,135.29c0,0-3.391,3.052-8.138,6.103c-2.713,1.695-5.764,3.052-8.816,4.069
		c-1.356,0.339-2.374,0.678-3.73,0.678c1.695,2.034,2.374,5.086,2.374,8.816c0,2.374-0.339,5.086-0.678,7.799
		c-0.339,1.356-0.678,2.713-1.356,4.069c-1.695,4.408-4.069,8.477-6.781,11.189c-0.339,5.425-0.339,10.85,0,15.936
		c0.339,5.764,1.356,11.528,3.391,16.275c0.339,1.356,1.017,2.713,1.695,3.73c0,0,5.764,23.396,1.356,34.585v0.339l-1.017,1.695
		c0,0,0,0-0.339,0c-2.374,0.678-27.465,8.477-46.792,4.747c-20.344,3.73-47.131-4.747-47.131-4.747l-1.017-1.695
		c0,0-0.339-0.339-0.339-0.678c-4.069-11.189,1.356-34.246,1.356-34.246c5.086-9.494,5.764-23.735,4.747-36.62
		c-3.391-3.73-6.103-8.816-7.46-14.58c-1.695-7.121-0.678-13.224,1.695-16.615c-10.511-1.017-21.362-10.85-21.362-10.85
		c0-33.229,35.942-38.315,35.942-38.315c7.121,28.821,25.091,32.89,33.568,32.89c8.477-0.339,26.448-4.408,33.568-32.89
		C287.833,96.975,323.775,102.061,323.097,135.29z"/>
</g>
<path style="fill:#F9B54C;" d="M271.219,76.97c-4.408,5.764-10.172,9.155-16.275,9.155c-6.442,0-12.207-3.73-16.954-10.172
	l1.356-7.799h30.856L271.219,76.97z"/>
<path style="fill:#FFD05B;" d="M279.695,37.298c0,22.04-10.85,44.419-24.752,44.419c-13.563,0-24.752-22.379-24.752-44.419
	S241.38,1.695,254.943,1.695S279.695,15.258,279.695,37.298z"/>
<g>
	<path style="fill:#324A5E;" d="M283.425,115.963C283.425,115.963,283.425,116.302,283.425,115.963
		C283.425,116.302,283.425,115.963,283.425,115.963z"/>
	<path style="fill:#324A5E;" d="M228.156,21.362c-10.511,31.195,9.833,47.131,9.833,47.131c-6.781-11.528-3.391-23.057-1.017-28.482
		c1.017-2.034,2.034-3.73,3.73-4.747c4.747-4.069,8.138-8.816,10.172-13.902C250.874,21.362,228.156,21.362,228.156,21.362z"/>
	<path style="fill:#324A5E;" d="M280.713,59.677c3.052-5.425,4.747-11.528,4.747-17.971c-0.339-6.103-1.017-13.563-2.713-20.683
		h-29.838c4.069,8.138,11.189,22.379,16.276,27.465c0,0,1.356-9.494,0-15.936c0,0,10.511,21.023-8.477,43.062
		c0,0-9.155,14.919-9.833,35.942c0,0,0.339,3.052-3.052,5.086c0,0,14.919,2.713,19.327-11.189c0,0,0,10.511-8.138,13.902
		c0,0,21.701,2.713,24.413-11.868c0,0,0.678,5.764-0.339,8.138c1.356-2.713,8.138-17.293-4.747-35.942
		C278.678,80.021,274.609,70.527,280.713,59.677z"/>
	<path style="fill:#324A5E;" d="M283.425,116.302L283.425,116.302C283.086,116.641,283.425,116.302,283.425,116.302z"/>
</g>
<path style="fill:#ACB3BA;" d="M227.817,35.603c3.391-7.121,20.344-10.85,27.465-12.207v11.528
	c-8.816-0.339-18.988,6.103-24.413,10.172c-1.695,1.017-3.73,0-3.391-2.374L227.817,35.603z"/>
<path style="fill:#E6E9EE;" d="M234.938,6.781c7.799-6.103,17.971-6.442,20.344-6.781v27.465c-13.902,0-31.195,11.528-31.195,11.528
	C226.461,16.615,234.938,6.781,234.938,6.781z"/>
<path style="fill:#CED5E0;" d="M224.087,38.993c0,0,3.052-2.034,7.46-4.069c0-11.189,2.034-22.379,3.391-27.804
	C233.581,8.477,226.122,18.649,224.087,38.993z"/>
<path style="fill:#ACB3BA;" d="M282.747,35.603c-3.391-7.121-20.344-10.85-27.465-12.207v11.528
	c8.816-0.339,18.988,6.103,24.413,10.172c1.695,1.017,3.73,0,3.391-2.374L282.747,35.603z"/>
<path style="fill:#E6E9EE;" d="M275.626,6.781C267.828,0.678,257.656,0.339,255.282,0v27.465c13.902,0,31.195,11.528,31.195,11.528
	C284.442,16.615,275.626,6.781,275.626,6.781z"/>
<path style="fill:#CED5E0;" d="M286.477,38.993c0,0-3.052-2.034-7.46-4.069c0-11.189-2.034-22.379-3.391-27.804
	C276.983,8.477,284.442,18.649,286.477,38.993z"/>
<path style="fill:#2B3B4E;" d="M230.869,229.213l-7.46-0.339c1.356-46.453-20.344-92.906-20.683-93.584l6.781-3.391
	C210.185,134.273,232.225,180.726,230.869,229.213z"/>
<path style="fill:#FFFFFF;" d="M183.738,116.302c0,0,6.103,1.356,15.936,22.718c0,0,16.275,11.189,14.919-9.155
	c0,0-7.799-27.804-16.275-25.43C198.318,104.434,184.077,111.216,183.738,116.302z"/>
<path style="fill:#F1543F;" d="M216.628,239.724v46.453c0,2.034,1.695,4.069,4.069,4.069h86.125c2.034,0,4.069-1.695,4.069-4.069
	v-46.453H216.628z"/>
<path style="fill:#FF7058;" d="M310.89,248.201V230.23c0-4.408-3.391-7.799-7.799-7.799h-78.665c-4.408,0-7.799,3.391-7.799,7.799
	v17.971c0,2.034,1.695,3.73,3.73,3.73h86.464C309.195,251.931,310.89,250.236,310.89,248.201z"/>
<g>
	<rect x="286.477" y="246.845" style="fill:#FFD05B;" width="6.781" height="16.954"/>
	<rect x="234.26" y="246.845" style="fill:#FFD05B;" width="6.781" height="16.954"/>
</g>
<g>
</g>
<g>
</g>
<g>
</g>
<g>
</g>
<g>
</g>
<g>
</g>
<g>
</g>
<g>
</g>
<g>
</g>
<g>
</g>
<g>
</g>
<g>
</g>
<g>
</g>
<g>
</g>
<g>
</g>
</svg>
