<?xml version="1.0" encoding="iso-8859-1"?>
<!-- Generator: Adobe Illustrator 19.0.0, SVG Export Plug-In . SVG Version: 6.00 Build 0)  -->
<svg version="1.1" id="Layer_1" xmlns="http://www.w3.org/2000/svg" xmlns:xlink="http://www.w3.org/1999/xlink" x="0px" y="0px"
	 viewBox="0 0 508.223 508.223" style="enable-background:new 0 0 508.223 508.223;" xml:space="preserve">
<circle style="fill:#54C0EB;" cx="254.111" cy="253.966" r="217.007"/>
<path style="fill:#FFD05B;" d="M160.188,293.976c0-1.017,0.339-2.374-0.339-3.391l0,0h-26.448c-0.339,1.356-0.678,2.713-1.017,4.069
	c-0.339,1.356-1.017,3.052-1.695,4.408c-0.678,3.391,0,6.781,1.695,9.833c1.695,2.713,4.408,5.086,7.121,7.121
	c1.017,0.678,2.034,1.356,3.391,1.695c1.356,0.339,2.713,0,3.391-0.678c1.017-1.017,1.017-2.713,0-3.391
	c0.339-0.678,1.695-1.017,2.713-0.678c1.017,0.339,1.695,0.678,2.713,0.678c1.356,0,2.374-1.017,2.713-2.374
	c0.339-1.356,0-2.713-0.678-3.73c1.017,0.339,1.695,0.339,2.713,0c1.017-0.339,2.034-1.017,2.374-2.034
	c0.339-1.017,0-2.374-1.017-2.713c1.356,0,2.713-0.339,3.73-1.695c0.678-1.017,0.339-2.374,0-3.73
	C160.866,296.689,160.188,295.332,160.188,293.976z"/>
<path style="fill:#F9B54C;" d="M259.876,117.319c-15.597,3.052-31.534,3.052-46.792,0c3.391-16.954,9.833-33.907,9.833-51.2
	c9.155,0,18.31,0,27.465,0C250.382,83.412,256.824,100.026,259.876,117.319z"/>
<path style="fill:#FFD05B;" d="M263.945,40.689c0,20.005-12.885,45.775-28.821,45.775s-28.821-25.77-28.821-45.775
	s12.885-26.787,28.821-26.787C251.06,14.241,263.945,20.683,263.945,40.689z"/>
<g>
	<path style="fill:#324A5E;" d="M286.323,496.403c-7.46-6.103-12.207-15.936-14.241-21.362h-29.838l2.034,16.615
		c0.339,2.373,2.034,4.069,4.069,4.747c3.73,1.017,5.425,3.052,6.442,4.408c1.017,1.356,2.373,2.713,3.73,3.052
		c18.988,6.781,26.448,3.73,29.16,0C289.036,501.828,288.697,498.437,286.323,496.403z"/>
	<path style="fill:#324A5E;" d="M201.555,475.041c-2.034,5.425-6.781,15.258-14.241,21.362c-2.374,2.034-3.052,5.425-1.017,7.799
		c2.713,3.73,9.833,6.781,29.16,0c1.695-0.678,3.052-1.695,3.73-3.052c1.017-1.356,2.713-3.391,6.442-4.408
		c2.374-0.678,3.73-2.713,4.069-4.747l2.034-16.615h-30.177V475.041z"/>
	<path style="fill:#324A5E;" d="M341.592,287.195c0,4.747-2.713,9.155-7.121,11.529l-2.374,1.017c-7.121,3.73-15.936,0-18.31-7.799
		l-0.339-1.356l-12.885-41.706l-6.103-155.974c0,0,22.718-22.718,41.028,47.47c0,0,1.695,8.816,3.052,27.126
		C340.575,191.237,342.609,230.57,341.592,287.195z"/>
</g>
<path style="fill:#2B3B4E;" d="M341.592,287.195c0,4.747-2.713,9.155-7.121,11.529l-2.374,1.017c-7.121,3.73-15.936,0-18.31-7.799
	l-0.339-1.356c0.678-3.391,1.695-6.442,2.373-9.833c0.678-3.73,0.678-7.121,1.017-10.85c0.678-26.787,1.695-53.574,0-80.36
	c-0.339-5.764-0.678-12.207,3.052-16.615c2.374-2.713,6.103-4.408,9.494-5.086c2.034-0.678,4.408-0.678,6.442-0.678
	c1.017,0,2.034,0.339,2.713,0.678C340.575,191.237,342.609,230.57,341.592,287.195z"/>
<path style="fill:#324A5E;" d="M376.178,130.204l-15.597-13.902c-2.034-1.695-4.747-1.695-6.442,0.339l-3.73,4.069
	c-1.695,2.034-1.695,4.747,0.339,6.442l6.781,6.103l-12.207,29.838l4.408,2.034l11.528-28.143l4.747,4.069
	c2.034,1.695,4.747,1.695,6.442-0.339l3.73-4.069C378.212,134.951,378.212,131.899,376.178,130.204z"/>
<path style="fill:#2B3B4E;" d="M302.26,337.377l-1.356-86.464v-1.695L294.8,93.245l-27.465-18.649l-24.074,21.023l-6.442,13.224
	l-6.442-13.224l-24.074-21.023l-27.465,18.649l-6.103,155.974v1.695l-1.695,86.464l-7.46,140.037c0,0,26.787,5.425,42.384,1.356
	c14.58-3.73,28.821-1.695,30.517-1.695l0,0l0,0l0,0l0,0c1.695-0.339,15.597-2.373,30.517,1.695
	c15.597,4.069,42.384-1.356,42.384-1.356L302.26,337.377z"/>
<path style="fill:#324A5E;" d="M131.706,287.195c0,4.747,2.713,9.155,7.121,11.529l2.374,1.017c7.121,3.73,15.936,0,18.31-7.799
	l0.339-1.017l12.885-41.706l6.103-155.974c0,0-22.718-22.718-41.028,47.47c0,0-1.695,8.816-3.052,27.126
	C132.384,191.237,130.35,230.57,131.706,287.195z"/>
<path style="fill:#FFFFFF;" d="M341.931,185.134c-0.339-1.017-0.678-1.695-1.356-2.374c-1.695-2.713-3.73-5.425-6.781-6.781
	c-0.339-0.339-1.017-0.339-1.356-0.678c-0.678-0.678-0.678-1.695-1.017-2.713c-0.339-2.713-1.017-5.764-2.713-8.138
	c-1.356,1.695-3.052,3.052-4.747,4.408c-1.356,0.678-2.373,1.695-3.73,2.374c-4.069,3.391-4.747,9.155-4.408,14.241
	c0,0-1.017,11.189,4.069,14.58v0.339c0.339,0.339,0.678,0.339,0.678,0.339c0.339,0,0.678,0.339,1.017,0.339l0,0l0,0
	c2.713,0.678,5.764,1.017,8.477-0.339c3.391-1.695,4.747-6.103,7.46-9.155c0.678-1.017,1.695-2.034,2.713-3.052
	C341.592,187.846,342.27,186.49,341.931,185.134z"/>
<path style="fill:#E6E9EE;" d="M278.864,71.205c0-3.73-2.374-7.121-5.425-8.477c2.374-1.356,4.069-3.73,4.069-6.781
	c0-3.052-1.695-5.764-4.408-7.121c2.713-1.017,4.408-3.391,4.408-6.103c0-2.034-0.678-3.73-2.034-4.747
	c0.339-1.017,0.678-2.034,0.678-3.052c0-2.374-1.356-4.408-3.052-5.764c0.678-1.017,1.017-2.374,1.017-3.391
	c0-3.391-2.374-6.103-5.425-6.442c0-0.339,0-0.678,0-1.017c0-3.391-2.373-6.103-5.764-6.442l0,0c0-3.73-3.052-6.442-6.442-6.442
	c-1.017,0-2.034,0.339-3.052,0.678c-1.356-1.695-3.052-2.713-5.425-2.713c-0.678,0-1.695,0-2.374,0.339
	C244.617,1.356,242.244,0,239.531,0c-1.695,0-3.052,0.678-4.408,1.695C234.106,0.678,232.411,0,230.715,0
	c-2.713,0-4.747,1.695-6.103,3.73c-0.678-0.339-1.695-0.339-2.374-0.339c-2.373,0-4.069,1.017-5.425,2.713
	c-1.017-0.339-2.034-0.678-3.052-0.678c-3.73,0-6.442,3.052-6.442,6.442l0,0c-3.052,0.339-5.425,3.052-5.425,6.442
	c0,0.339,0,0.678,0,1.017c-3.052,0.678-5.425,3.391-5.425,6.442c0,1.356,0.339,2.374,1.017,3.391
	c-2.034,1.017-3.052,3.391-3.052,5.764c0,1.017,0.339,2.034,0.678,3.052c-1.356,1.356-2.034,3.052-2.034,4.747
	c0,2.713,1.695,5.425,4.408,6.103c-2.713,1.356-4.408,4.069-4.408,7.121s1.695,5.425,4.069,6.781
	c-3.391,1.356-5.425,4.747-5.425,8.477c0,1.356,0.339,2.374,0.678,3.391c-0.339,1.017-0.678,2.374-0.678,3.391
	c0,5.086,4.069,9.155,9.155,9.155c1.695,0,3.052-0.339,4.408-1.017c1.356,1.017,3.052,1.695,4.747,1.695
	c4.069,0,7.46-3.391,7.46-7.46c0-2.374-1.017-4.408-2.713-5.764v-0.339c0-2.374-1.017-4.408-2.713-5.764
	c0.339-0.678,0.339-1.695,0.339-2.374c0-2.034-0.678-4.069-2.034-5.425c1.356-1.356,2.034-3.391,2.034-5.425
	c0-2.374-1.017-4.747-3.052-6.103c1.695-1.356,3.052-3.391,3.052-6.103v-0.339c0.678-1.017,1.356-2.374,1.356-3.73
	c0-1.356-0.339-2.713-1.017-3.73c2.374-1.356,4.069-3.73,4.069-6.781c0-0.678,0-1.356-0.339-1.695c3.052,0,5.764-2.374,6.103-5.425
	c0.339,0,0.678,0,1.017,0c1.695,0,3.052-0.678,4.408-1.695c0.678,0.339,1.356,0.339,2.034,0.339c1.695,0,3.391-0.678,4.747-2.034
	c1.356,1.356,2.713,2.034,4.747,2.034c0.678,0,1.356,0,2.034-0.339c1.017,1.017,2.713,1.695,4.408,1.695c0.339,0,0.678,0,1.017,0
	c0.678,3.052,3.052,5.425,6.103,5.425c0,0.678-0.339,1.017-0.339,1.695c0,3.052,1.695,5.425,4.069,6.781
	c-0.678,1.017-1.017,2.374-1.017,3.73c0,1.356,0.339,2.713,1.356,3.73v0.339c0,2.374,1.017,4.747,3.052,6.103
	c-1.695,1.356-3.052,3.391-3.052,6.103c0,2.034,0.678,4.069,2.034,5.425c-1.356,1.356-2.034,3.391-2.034,5.425
	c0,1.017,0,1.695,0.339,2.374c-1.695,1.356-2.713,3.391-2.713,5.764v0.339c-1.695,1.356-2.713,3.391-2.713,5.764
	c0,4.069,3.391,7.46,7.46,7.46c2.034,0,3.73-0.678,4.747-1.695c1.356,0.678,2.713,1.017,4.408,1.017
	c5.086,0,9.155-4.069,9.155-9.155c0-1.356-0.339-2.374-0.678-3.391C278.525,73.579,278.864,72.562,278.864,71.205z"/>
<path style="fill:#FFD05B;" d="M333.794,188.185c-2.374,1.695-18.988-7.799-7.799-21.701c1.017-1.356,2.373-2.374,3.391-3.73
	c1.017-1.356,1.695-2.713,2.713-3.73c2.374-2.374,5.764-3.73,9.155-3.73c3.391,0,6.781,0.678,9.833,1.695
	c1.017,0.339,2.374,1.017,3.391,1.695c1.017,0.678,1.695,2.034,1.356,3.391s-1.695,2.034-2.713,1.695
	c-0.339,1.017,0,2.034,1.017,2.374c0.678,0.678,1.695,1.017,2.034,2.034c0.678,1.017,0.339,2.713-0.339,3.73
	s-2.034,1.695-3.391,1.695c0.678,0.678,1.356,1.356,1.695,2.034c0.339,1.017,0.339,2.374-0.339,3.052
	c-0.678,1.017-2.034,1.356-3.052,0.678c0.678,1.356,1.356,2.713,0.678,3.73c-0.339,1.356-1.695,1.695-3.052,2.034
	s-5.425,2.713-6.781,2.374C340.914,187.846,334.472,187.507,333.794,188.185z"/>
<g>
</g>
<g>
</g>
<g>
</g>
<g>
</g>
<g>
</g>
<g>
</g>
<g>
</g>
<g>
</g>
<g>
</g>
<g>
</g>
<g>
</g>
<g>
</g>
<g>
</g>
<g>
</g>
<g>
</g>
</svg>
