<?xml version="1.0" encoding="iso-8859-1"?>
<!-- Generator: Adobe Illustrator 19.0.0, SVG Export Plug-In . SVG Version: 6.00 Build 0)  -->
<svg version="1.1" id="Layer_1" xmlns="http://www.w3.org/2000/svg" xmlns:xlink="http://www.w3.org/1999/xlink" x="0px" y="0px"
	 viewBox="0 0 508.633 508.633" style="enable-background:new 0 0 508.633 508.633;" xml:space="preserve">
<circle style="fill:#FD8469;" cx="254.316" cy="253.989" r="217.007"/>
<path style="fill:#F9B54C;" d="M239.058,76.315c-0.678,2.374-1.695,5.086-3.052,7.46v14.919l18.31,5.764l0,0l0,0l17.293-5.425
	V82.418c-1.017-2.034-1.695-4.069-2.374-5.764h-30.177V76.315z"/>
<path style="fill:#FFD05B;" d="M282.799,43.086c0,18.31-12.885,42.045-28.821,42.045s-28.821-23.735-28.821-42.045
	s12.885-24.074,28.821-24.074C269.914,18.673,282.799,24.776,282.799,43.086z"/>
<path style="fill:#84DBFF;" d="M253.977,0.024c0,0,47.131-2.374,33.229,40.35c0,0-5.425,22.04-12.207,29.499
	c0,0-6.442-36.959-26.448-51.878L253.977,0.024z"/>
<path style="fill:#54C0EB;" d="M286.189,35.287c0-0.339,0-0.678-0.339-1.356c0-0.339,0-0.678-0.339-1.017
	c-4.069-18.649-28.143-22.04-30.517-22.04c0-0.339,0-0.339,0-0.678c26.787,1.017,33.229,18.649,33.229,18.649
	s-3.052-17.971-32.89-20.344c1.017-4.408,1.695-7.799,1.695-7.799c-2.034,0-3.391,0-3.391,0l-5.425,17.971
	c1.017,0.678,2.034,1.695,3.052,2.374c0.678-1.017,1.017-1.695,1.356-2.374c20.683,12.885,23.735,37.976,23.735,37.976
	s0.678-23.735-23.396-38.993l0,0c0-0.339,0.339-1.017,0.339-1.356c25.77,9.155,25.77,38.654,25.77,38.654s4.747-28.821-25.43-40.011
	c0-0.339,0-0.339,0.339-0.678c23.735,4.408,29.499,32.551,29.499,32.551s-3.052-26.787-29.16-33.568c0-0.339,0-0.678,0.339-1.017
	C282.12,14.943,285.85,32.575,286.189,35.287z"/>
<path style="fill:#CED5E0;" d="M169.887,209.91c-0.678,7.799,2.374,15.597,7.799,21.362c5.425,5.425,33.568,25.091,39.672,28.143
	l9.833-27.126l-33.568-23.057l8.477-27.126c-4.069-36.959-12.207-71.205-12.207-71.205S174.295,146.164,169.887,209.91z"/>
<g>
	<path style="fill:#FFD05B;" d="M253.977,104.458v0.339V104.458z"/>
	<path style="fill:#FFD05B;" d="M253.977,104.458v0.339V104.458z"/>
	<path style="fill:#FFD05B;" d="M253.977,104.458v0.339V104.458z"/>
	<path style="fill:#FFD05B;" d="M253.977,104.458v0.339V104.458z"/>
</g>
<g>
	<polygon style="fill:#324A5E;" points="302.465,493.036 307.551,302.477 304.499,251.955 253.299,251.955 253.299,331.976 
		273.305,493.036 	"/>
	<polygon style="fill:#324A5E;" points="234.65,493.036 254.656,331.976 254.656,251.955 203.456,251.955 200.404,302.477 
		205.49,493.036 	"/>
</g>
<g>
	<polygon style="fill:#2B3B4E;" points="306.534,286.54 304.499,251.955 253.299,251.955 253.299,286.54 	"/>
	<polygon style="fill:#2B3B4E;" points="254.656,286.54 254.656,251.955 203.456,251.955 201.421,286.54 	"/>
</g>
<path style="fill:#CED5E0;" d="M338.067,209.91c0.678,7.799-2.373,15.597-7.799,21.362c-5.425,5.425-33.568,25.091-39.672,28.143
	l-9.833-27.126l33.568-23.057l-8.477-27.126c4.069-36.959,12.207-71.205,12.207-71.205S333.66,146.164,338.067,209.91z"/>
<path style="fill:#E6E9EE;" d="M308.229,254.328c-13.902-43.74,9.833-143.767,9.833-143.767
	c-37.298-7.121-44.758-24.752-44.758-24.752c-0.678,4.747-1.017,9.155-1.695,13.224h-35.264c-0.678-4.408-1.017-8.816-1.695-13.224
	c0,0-7.121,17.632-44.758,24.752c0,0,23.735,100.026,9.833,143.767c0,0-1.017,6.442-2.034,14.919
	c-0.678,4.069,2.713,7.46,6.442,7.46h99.687c4.069,0,7.121-3.391,6.442-7.46C309.246,260.771,308.229,254.328,308.229,254.328z"/>
<g>
	<path style="fill:#2B3B4E;" d="M302.465,493.036h-28.821v11.868c0,2.034,1.695,3.73,3.73,3.73h38.993v-1.695
		C316.367,499.139,309.924,493.036,302.465,493.036z"/>
	<path style="fill:#2B3B4E;" d="M205.49,493.036h28.821v11.868c0,2.034-1.695,3.73-3.73,3.73h-38.993v-1.695
		C191.588,499.139,198.03,493.036,205.49,493.036z"/>
</g>
<g>
	<path style="fill:#FFFFFF;" d="M270.931,80.384c0,0,7.46,7.46-2.034,29.16c0,0-10.511-11.868-16.954-9.833
		C251.943,100.05,267.201,95.642,270.931,80.384z"/>
	<path style="fill:#FFFFFF;" d="M237.024,80.384c0,0-7.46,7.46,2.034,29.16c0,0,10.511-11.868,16.954-9.833
		C256.012,100.05,240.754,95.642,237.024,80.384z"/>
</g>
<path style="fill:#84DBFF;" d="M256.351,0.024c0,0-50.522-1.356-36.62,41.706l13.224,28.143
	C232.616,46.816,249.909,33.592,256.351,0.024z"/>
<g>
	<path style="fill:#54C0EB;" d="M244.483,17.995l-0.339,0.339c-2.374,2.713-14.241,16.615-15.597,24.752L244.483,17.995z"/>
	<path style="fill:#54C0EB;" d="M223.8,19.69c11.189-6.781,22.379-11.868,22.379-11.868C229.564,13.248,223.8,19.69,223.8,19.69z"/>
	<path style="fill:#54C0EB;" d="M241.093,16.299c0,0-11.868,2.034-15.258,9.155C225.834,25.454,234.65,17.656,241.093,16.299z"/>
</g>
<g>
</g>
<g>
</g>
<g>
</g>
<g>
</g>
<g>
</g>
<g>
</g>
<g>
</g>
<g>
</g>
<g>
</g>
<g>
</g>
<g>
</g>
<g>
</g>
<g>
</g>
<g>
</g>
<g>
</g>
</svg>
