<?xml version="1.0" encoding="iso-8859-1"?>
<!-- Generator: Adobe Illustrator 19.0.0, SVG Export Plug-In . SVG Version: 6.00 Build 0)  -->
<svg version="1.1" id="Layer_1" xmlns="http://www.w3.org/2000/svg" xmlns:xlink="http://www.w3.org/1999/xlink" x="0px" y="0px"
	 viewBox="0 0 508.948 508.948" style="enable-background:new 0 0 508.948 508.948;" xml:space="preserve">
<circle style="fill:#324A5E;" cx="254.474" cy="254.644" r="217.007"/>
<path style="fill:#2B3B4E;" d="M307.709,496.742c1.695,0.339,3.391,1.356,5.086,1.695c1.356,0.339,3.052,0,4.069,0.678
	c1.017,0.678,1.356,2.034,1.356,3.052s-0.678,2.374-1.017,3.391c-0.339,0.678-0.678,1.017-1.017,1.356
	c-0.339,0.339-1.017,0.339-1.356,0.678c-5.764,1.356-11.868,1.356-17.971,1.356c-2.713,0-5.425,0-8.138-0.678
	c-1.017-0.339-2.034-0.678-2.374-1.356c0-0.339-0.339-0.678-0.339-1.017c-0.339-1.356-0.678-2.713-0.678-4.069
	c0-1.356,0.339-2.713,1.695-3.391c0.339-0.339,1.017-0.339,1.695-0.339c1.356-0.339,2.713-0.678,4.069-0.678
	c1.695-0.339,3.391-0.678,4.747-0.678c2.034-0.339,4.069-0.339,6.103-0.339C304.657,496.403,306.013,496.403,307.709,496.742z"/>
<path style="fill:#324A5E;" d="M280.922,479.11c0-0.678,0-1.695,0.678-2.374c0.339-0.339,0.678-0.678,1.356-0.678
	c2.374-1.017,4.747-2.374,6.781-4.069c1.017-0.678,2.374-1.695,3.73-1.695c0.678,0,1.356,0,2.374,0.339
	c1.356,0.339,2.713,0.678,4.069,0.678c1.356,0.339,2.374,0.678,3.73,1.017c1.695,0.678,3.052,1.695,4.408,2.713
	c0.339,1.017-0.339,2.374,0.339,3.391c0,0.339,0.339,0.678,0.678,0.678c1.695,2.034,2.374,4.408,3.052,6.781
	c1.017,3.052,2.374,5.764,4.069,8.477c0.678,1.017,1.356,2.034,1.695,3.052c0,0.339,0.339,1.017,0,1.356
	c-0.339,0.339-0.339,0.339-0.678,0.339c-3.391,0.678-6.442,1.695-9.833,1.695c-2.713,0-5.425-0.678-8.138-0.339
	c-0.678,0-1.695,0.339-2.373,0.339c-1.695,0.339-3.73,0.339-5.425,0.339c-1.017,0-1.695,0-2.713-0.339
	c-1.017-0.339-1.695-1.017-1.695-2.034c0-0.678,0-1.356-0.339-2.034c0-0.339-0.339-0.678-0.678-0.678
	c-1.017-0.678-1.695-1.695-2.713-2.374c-0.339-0.339-0.678-0.678-0.678-1.017c-0.339-0.678-0.339-1.356-0.339-2.374
	C280.922,486.57,280.922,482.84,280.922,479.11z"/>
<path style="fill:#2B3B4E;" d="M203.613,496.742c-1.695,0.339-3.391,1.356-5.086,1.695c-1.356,0.339-3.052,0-4.069,0.678
	s-1.356,2.034-1.356,3.052c0,1.356,0.678,2.374,1.017,3.391c0.339,0.678,0.678,1.017,1.017,1.356
	c0.339,0.339,1.017,0.339,1.356,0.678c5.764,1.356,11.868,1.356,17.971,1.356c2.713,0,5.425,0,8.138-0.678
	c1.017-0.339,2.034-0.678,2.373-1.356c0-0.339,0.339-0.678,0.339-1.017c0.339-1.356,0.678-2.713,0.678-4.069
	c0-1.356-0.339-2.713-1.695-3.391c-0.339-0.339-1.017-0.339-1.695-0.339c-1.356-0.339-2.713-0.678-4.069-0.678
	c-1.695-0.339-3.391-0.678-4.747-0.678c-2.034-0.339-4.069-0.339-6.103-0.339C206.326,496.403,204.969,496.403,203.613,496.742z"/>
<path style="fill:#324A5E;" d="M230.4,479.11c0-0.678,0-1.695-0.678-2.374c-0.339-0.339-0.678-0.678-1.356-0.678
	c-2.374-1.017-4.747-2.374-6.781-4.069c-1.017-0.678-2.373-1.695-3.73-1.695c-0.678,0-1.356,0-2.373,0.339
	c-1.356,0.339-2.713,0.678-4.069,0.678c-1.356,0.339-2.374,0.678-3.73,1.017c-1.695,0.678-3.052,1.695-4.408,2.713
	c-0.339,1.017,0.339,2.374-0.339,3.391c0,0.339-0.339,0.678-0.678,0.678c-1.695,2.034-2.374,4.408-3.052,6.781
	c-1.017,3.052-2.374,5.764-4.069,8.477c-0.678,1.017-1.356,2.034-1.695,3.052c0,0.339-0.339,1.017,0,1.356
	c0.339,0.339,0.339,0.339,0.678,0.339c3.391,0.678,6.442,1.695,9.833,1.695c2.713,0,5.425-0.678,8.138-0.339
	c0.678,0,1.695,0.339,2.374,0.339c1.695,0.339,3.73,0.339,5.425,0.339c1.017,0,1.695,0,2.713-0.339
	c1.017-0.339,1.695-1.017,1.695-2.034c0-0.678,0-1.356,0.339-2.034c0-0.339,0.339-0.678,0.678-0.678
	c1.017-0.678,1.695-1.695,2.713-2.374c0.339-0.339,0.678-0.678,0.678-1.017c0.339-0.678,0.339-1.356,0.339-2.374
	C230.4,486.57,230.4,482.84,230.4,479.11z"/>
<path style="fill:#CED5E0;" d="M311.777,253.626c-1.017-3.391-2.374-7.121-5.425-8.816c-1.695-1.017-3.73-1.017-5.764-1.017
	c-14.919-0.339-30.177-0.678-44.079,4.408c-13.902-5.086-29.16-4.747-44.079-4.408c-2.034,0-4.069,0-5.764,1.017
	c-3.052,1.695-4.408,5.086-5.425,8.816c-3.73,14.241-2.374,206.495-2.374,207.852c-0.339,2.713,3.052,13.224,5.425,14.919
	c3.391,2.713,7.46-1.695,11.528-2.374c5.764-1.017,10.85,5.086,16.615,4.747c4.747-0.339,8.138-5.425,8.816-10.172
	c0.339-4.747,5.764-25.091,5.425-28.482c-1.017-9.833-0.339-82.734,1.017-88.837c1.695-9.494,6.103-17.971,8.816-27.465
	c2.713,9.155,6.781,17.971,8.816,27.465c1.356,6.442,2.034,79.343,1.017,88.837c-0.339,3.391,5.086,23.735,5.425,28.482
	c0.339,4.747,3.73,9.833,8.816,10.172c5.764,0.339,10.85-5.764,16.615-4.747c4.069,0.678,8.477,5.086,11.528,2.374
	c2.034-1.695,5.764-12.207,5.425-14.919C314.151,460.122,315.507,267.868,311.777,253.626z"/>
<g>
	<path style="fill:#FFD05B;" d="M179.2,75.952c-0.339-0.339-0.678-0.678-0.678-1.017c-1.017-1.695-2.034-3.391-3.391-4.408
		c-1.695-1.356-4.747-2.034-5.086-4.069c2.713-1.356,18.988-15.258,21.701-16.615c1.695-0.678,13.902-2.374,17.632-4.069
		c2.713-1.356,12.546-7.121,15.258-6.781c0,1.695-1.695,3.052-3.052,4.069c-2.374,1.695-28.821,23.396-29.838,25.43
		c-0.678,1.356-4.408,5.425-5.425,6.103c-2.034,0.678-4.069,1.695-6.103,1.356C179.539,76.291,179.539,76.291,179.2,75.952z"/>
	<path style="fill:#FFD05B;" d="M317.542,278.718c0-3.391,0.678-7.121,3.052-9.833c1.695-2.034,4.069-3.052,6.781-3.73
		c2.374-0.678,5.086-0.678,7.799-1.017c1.017,0,2.374,0,3.052,0.678c0.339,0.339,0.678,1.017,0.678,1.695
		c0.678,5.764,0,11.189-0.678,16.954c-0.339,3.73-1.017,7.46-3.052,10.511c-0.678,1.356-1.695,2.374-3.052,3.391
		c-5.086,5.086-10.511,9.494-16.275,13.563c-1.695-1.695-1.695-4.747-1.017-7.121c0.678-2.373,1.695-4.747,1.695-7.121
		c0-1.017,0-2.034,0.339-3.052c0.339-1.017,1.017-2.034,1.356-3.052c0.339-1.356,0-2.713,0-4.069
		C317.542,284.482,317.542,281.77,317.542,278.718z"/>
</g>
<g>
	<path style="fill:#CED5E0;" d="M328.731,102.4c0,0,23.057,32.551,23.396,67.136c0,0,3.052,20.344,0,37.637
		c0,0,17.293,33.907-6.781,47.809l-3.391,15.597l-22.718-2.373l2.713-15.597c0,0-7.799-4.747-2.713-17.971
		c0,0-12.207-29.16-5.086-44.079c0,0-2.713-34.246-9.833-40.011L328.731,102.4z"/>
	<path style="fill:#CED5E0;" d="M170.723,63.407c0,0,13.902,10.511,16.615,14.919c0,0-17.632,17.971-19.666,23.057
		c0,0,7.799-2.713,16.275,1.356c0,0,27.804,33.229,16.954,41.367c0,0-18.31-1.695-25.091,0.678c0,0-28.821,17.971-58.321-8.816
		c-2.713-2.374-3.391-5.764-2.713-9.155c2.374-9.494,8.477-28.482,15.936-34.585c0,0,10.511-10.85,18.649-11.528
		c0,0,6.781-2.713,10.172-2.034L170.723,63.407z"/>
	<path style="fill:#CED5E0;" d="M276.175,62.389c-6.103,3.052-13.902,3.73-20.344,4.069l0,0c-6.442,0-14.919-1.017-21.362-4.069
		c0,0-7.121,5.086-8.477,13.902c0,0,12.207,5.425,30.517,5.764l0,0c16.954-0.678,27.804-5.425,27.804-5.425
		C283.634,67.475,276.175,62.389,276.175,62.389z"/>
</g>
<path style="fill:#E6E9EE;" d="M328.731,102.4c-6.442-12.207-43.74-26.787-43.74-26.787h-17.293h-23.396h-17.293
	c0,0-37.298,14.58-43.74,26.787c0,0,7.46,18.988,14.241,41.706l3.052,34.246l-3.052,65.102c-0.678,4.408-0.678,8.477-0.678,12.207
	h47.131h23.396h47.131c1.356-15.258-7.799-44.758-7.799-44.758C296.18,182.76,328.731,102.4,328.731,102.4z"/>
<path style="fill:#FFD05B;" d="M283.634,39.332c-0.678-0.339-1.695-0.339-2.373,0c0-1.017,0-1.695,0-2.713
	c0-19.327-11.529-28.482-25.77-28.482s-25.77,9.155-25.77,28.482c0,1.017,0,1.695,0,2.713c-1.017-0.339-1.695-0.339-2.374,0
	c-2.034,1.017-2.373,5.086-0.339,8.816c1.356,2.713,3.391,4.747,5.425,5.086c4.069,13.224,12.885,24.413,23.057,24.413
	s18.988-11.189,23.057-24.413c1.695-0.339,4.069-2.374,5.425-5.086C286.008,44.419,285.669,40.35,283.634,39.332z"/>
<path style="fill:#FF7058;" d="M284.991,12.207c-0.678-2.034-2.034-3.73-4.069-4.747c-1.017-0.678-2.034-1.017-3.052-1.356
	c-3.391-1.356-7.121-2.374-10.85-3.73C263.29,1.356,259.56,0,255.83,0h-0.339h-0.339c-3.73,0-7.46,1.017-11.189,2.374
	c-3.73,1.017-7.121,2.374-10.85,3.73c-1.017,0.339-2.034,0.678-3.052,1.356c-2.034,1.356-3.391,3.052-4.069,4.747
	c-0.678,2.034-1.017,4.069-1.017,6.103c0,2.713,0.678,5.764,2.713,8.138c0.339,0.678,1.017,1.017,1.695,1.017
	c0.339,0,1.017-0.339,1.356-0.339c1.356-0.678,2.713-0.678,4.069-1.017c1.356-0.339,2.713-1.017,4.069-1.356
	c3.052-1.017,6.442-2.034,9.494-3.052c2.034-0.678,4.069-1.017,6.442-0.678c0.339,0,0.339,0,0.678,0.339c0,0,0,0,0.339,0.339
	c0,0,0,0,0.339-0.339c0.339,0,0.339-0.339,0.678-0.339c2.034-0.339,4.408,0,6.442,0.678c3.052,1.017,6.442,1.695,9.494,3.052
	c1.356,0.339,2.713,1.017,4.069,1.356c1.356,0.339,2.713,0.339,4.069,1.017c0.339,0.339,0.678,0.339,1.356,0.339
	s1.356-0.339,1.695-1.017c2.034-2.374,2.713-5.086,2.713-8.138C286.008,16.275,285.669,14.241,284.991,12.207z"/>
<path style="fill:#E6E9EE;" d="M282.617,27.465c0-0.339-0.339-1.017-1.017-1.356c-15.597-9.494-24.074-9.494-26.109-9.494
	c-2.034,0.339-10.511,0-26.109,9.494c-0.339,0.339-0.678,0.678-1.017,1.356c0,0.339,0,0.678,0,1.017c0,1.356,0,2.713,0,4.069
	c6.781-1.695,12.207-6.442,18.649-8.477c1.695-0.678,3.391-1.017,5.086-1.695c1.017-0.339,2.034-0.678,3.052-1.017
	c1.017,0.339,2.034,0.678,3.052,1.017c1.695,0.678,3.391,1.017,5.086,1.695c6.442,2.034,11.868,6.781,18.649,8.477
	c0-1.356,0-2.713,0-4.069C282.617,28.143,282.617,27.804,282.617,27.465z"/>
<path style="fill:#FF7058;" d="M285.33,36.959c0,0.339,0,0.678-0.339,1.017c-0.339,0.339-0.678,0.678-1.356,0.678
	c-2.713,0-22.04-10.85-28.143-9.833c-6.103-1.017-25.43,9.833-28.143,9.833c-0.339,0-1.017-0.339-1.356-0.678
	c-0.339-0.339-0.339-0.678-0.339-1.017c-0.339-2.034,1.017-4.069,2.713-5.425c1.356-1.017,17.632-10.172,27.126-10.172
	c9.155,0,25.77,9.155,27.126,10.172C284.313,32.89,285.33,34.925,285.33,36.959z"/>
<path style="fill:#ACB3BA;" d="M298.215,158.686h-24.752c-1.017,0-1.695-0.678-1.695-1.695v-30.517h28.143v30.517
	C299.91,158.008,299.232,158.686,298.215,158.686z"/>
<path style="fill:#CED5E0;" d="M286.008,122.066h-13.563c-1.017,0-1.695,0.678-1.695,1.695v7.121l15.258,2.034l15.258-2.034v-7.121
	c0-1.017-0.678-1.695-1.695-1.695H286.008z"/>
<g>
	<circle style="fill:#ACB3BA;" cx="286.008" cy="128.848" r="1.695"/>
	<path style="fill:#ACB3BA;" d="M238.538,158.686h-24.752c-1.017,0-1.695-0.678-1.695-1.695v-30.517h28.143v30.517
		C240.233,158.008,239.555,158.686,238.538,158.686z"/>
</g>
<path style="fill:#CED5E0;" d="M226.331,122.066h-13.563c-1.017,0-1.695,0.678-1.695,1.695v7.121l15.258,2.034l15.258-2.034v-7.121
	c0-1.017-0.678-1.695-1.695-1.695H226.331z"/>
<g>
	<circle style="fill:#ACB3BA;" cx="226.331" cy="128.848" r="1.695"/>
	<path style="fill:#ACB3BA;" d="M343.989,128.848c0,0,9.155,25.091,9.494,35.942c0,0,0.678,4.069-9.494,9.494
		c0,0-8.477-27.804-11.868-30.856L343.989,128.848z"/>
</g>
<path style="fill:#E6E9EE;" d="M337.208,115.285c0,0,6.442,5.086,7.799,13.224c0,0-2.713,9.833-12.207,18.31l-8.477-12.546
	C324.323,134.273,337.886,118.336,337.208,115.285z"/>
<g>
</g>
<g>
</g>
<g>
</g>
<g>
</g>
<g>
</g>
<g>
</g>
<g>
</g>
<g>
</g>
<g>
</g>
<g>
</g>
<g>
</g>
<g>
</g>
<g>
</g>
<g>
</g>
<g>
</g>
</svg>
