<?xml version="1.0" encoding="iso-8859-1"?>
<!-- Generator: Adobe Illustrator 19.0.0, SVG Export Plug-In . SVG Version: 6.00 Build 0)  -->
<svg version="1.1" id="Layer_1" xmlns="http://www.w3.org/2000/svg" xmlns:xlink="http://www.w3.org/1999/xlink" x="0px" y="0px"
	 viewBox="0 0 509.384 509.384" style="enable-background:new 0 0 509.384 509.384;" xml:space="preserve">
<circle style="fill:#84DBFF;" cx="254.692" cy="254.401" r="217.007"/>
<path style="fill:#2B3B4E;" d="M265.542,105.209c-1.017-1.017-2.034-2.374-3.052-3.391c-1.356-1.695-2.713-3.391-3.391-5.086
	c-1.017-2.374-1.356-4.747-1.695-7.46c0-3.052,0.339-6.442,1.695-9.155c1.356-2.713,4.069-5.086,7.121-5.425
	c4.408-0.678,8.477,2.713,10.172,6.781s1.356,8.477,0.678,12.885c-0.678,4.069-2.034,8.816-5.086,11.528
	c-1.356,1.017-2.713,1.695-4.408,1.356C266.899,106.226,266.22,105.548,265.542,105.209z"/>
<g>
	<path style="fill:#FFD05B;" d="M203.492,136.404c0,0-46.114-17.971-46.453-37.637l2.713-53.913c0,0-1.695-17.971,5.764-25.091
		c0,0,2.374-15.258,7.799-12.207c0,0,3.73-8.477,6.442-3.73c0,0,4.408-8.138,4.747-0.678c0,0,4.408-1.017,2.034,7.46
		c0,0-2.034,8.477-4.069,12.546c0,0,0,4.747-1.356,6.103c0,0,3.73-8.477,6.781-8.816c0,0,4.069-0.339,0.339,3.73l-0.339,4.069
		c0,0-4.069,7.121-4.408,7.46c0,0-9.494,8.138-11.528,9.155c0,0-1.017,17.632-1.017,21.023c0,3.391,1.356,28.482,1.356,28.482
		s10.511,3.391,18.649,8.816l17.293,14.241L203.492,136.404z"/>
	<path style="fill:#FFD05B;" d="M325.558,276.441c0,0-0.339,14.241-5.764,18.649s-11.189,4.747-11.189,4.747l-8.816-72.562
		l-12.885-36.281l2.713-38.315l-0.678-22.04l-18.31,15.597l-11.528,6.442l-26.448-40.011l1.017-6.442c0,0,4.408-1.356,4.069-12.546
		c0-2.034-0.339-4.408-0.678-7.46l24.752,4.069c0,0,0,1.695,1.017,4.408c2.374,5.086,8.816,13.224,28.821,16.275
		c0,0,11.189,0,12.207,25.77c0,0,2.713,23.396,1.695,29.499c-1.017,6.103,8.138,33.229,8.138,33.229l4.747,32.89l0.678,7.799
		C318.777,239.821,325.219,275.085,325.558,276.441z"/>
</g>
<path style="fill:#FF7058;" d="M347.259,486.666c0.339-3.052,5.425-2.713-1.695-10.172c0,0-7.799-13.563-17.632-67.815
	c0,0-20.005-93.245-18.988-97.992c0,0,3.73-62.389,0-67.815c0,0-15.936-35.942-16.276-44.419c0,0-5.764-12.546,0-26.787
	c0,0,5.086-26.109-1.356-43.74c0,0-23.735,9.155-26.448,21.023l-31.195-42.384c-0.339,3.391-8.477,4.069-8.477,4.069
	c-6.781-2.034-15.258-2.713-15.258-2.713c-7.121,2.034-18.31-3.391-18.31-3.391c12.885,12.546,12.546,27.465,12.207,32.551
	c0.339,0.678,0.678,1.017,1.017,1.695c15.258,30.177,16.954,65.441,16.954,65.441c-16.275,20.683-4.069,126.474-4.069,126.474
	c-4.069,19.666,5.764,87.142,5.764,87.142c-2.713,25.091-2.713,91.55-2.713,91.55c6.442-4.408,46.114-4.408,46.114-4.408
	c9.833,2.374,26.109-1.695,26.109-1.695c38.654,5.764,60.355-5.086,60.355-5.086S346.92,489.718,347.259,486.666z"/>
<path style="fill:#F9B54C;" d="M262.491,94.698c-3.391,5.086-7.799,8.138-12.207,8.138c-5.086,0-9.494-3.73-12.885-9.155
	c0-2.034-0.339-4.408-0.678-7.46l24.752,4.069C261.473,89.951,261.473,91.985,262.491,94.698z"/>
<g>
	<path style="fill:#FFD05B;" d="M269.611,66.216c0.678-0.339,1.356-0.339,2.034-0.339c1.017,0,2.034,0,3.052,0.678
		c0.678,0.678,1.017,1.356,1.356,2.374c0.339,1.017,0.678,2.034,0.678,3.052c0,0.339,0,1.017,0,2.034
		c0,0.678-0.678,1.017-1.017,1.356c-1.017,1.017-2.034,2.374-3.391,2.713c-0.339,0-1.017,0.339-1.356,0.339
		c-1.017,0-2.034,0.339-3.052-0.339c-0.678-0.678-0.678-1.695-0.678-2.713c0-1.017,0.339-1.695,0.678-2.713
		c0.339-1.356,0-2.374,0-3.73C268.255,67.911,268.594,66.555,269.611,66.216z"/>
	<path style="fill:#FFD05B;" d="M270.967,63.164c0,15.936-9.155,35.603-20.344,35.603c-11.189,0-20.344-19.327-20.344-35.603
		c0-15.936,9.155-22.379,20.344-22.379C261.473,40.785,270.967,47.228,270.967,63.164z"/>
</g>
<path style="fill:#324A5E;" d="M303.858,153.018h-9.155c-0.339-0.339-0.678-1.017-1.017-1.356c-0.678-1.695-0.678-3.73-0.678-5.764
	c0-0.678,0-1.356-0.339-2.034c-0.678-1.356-2.034-1.695-3.391-1.017c0-4.408-2.374-12.207-10.511-15.597
	c-0.339-0.339-7.121,3.052-10.85-2.034c3.391-0.678,2.713-5.086,0.678-6.442c-1.356-1.017-2.713-2.034-3.391-3.391
	c-0.678-1.695-0.339-3.73,0-5.425c0.339-1.695,0.678-3.391,2.034-4.747c0.678-0.678,1.356-1.356,2.034-2.374
	c0.339-0.678,0.339-1.017,0.678-1.695c0.678-3.052,1.017-6.103,0.678-9.155c0-0.339,0-0.678-0.339-1.017
	c0-0.339-0.339-0.339-0.678-0.678c-1.356-1.017-2.034-3.052-2.034-4.747s0.339-3.052,0.678-4.747
	c-0.339-1.017,0.339-2.034,1.356-2.713c1.017-1.017,1.695-1.695,2.374-3.052c1.017-1.695,1.356-3.391,1.017-5.086
	c-0.339-1.017-1.017-2.374-2.374-2.034c-0.339,0-0.678,0.339-1.017,0.678c-1.695,2.034-2.713,4.408-3.052,7.121v-8.138
	c0-1.356,0-2.713,0.339-4.069c0.339-1.695,1.017-3.052,1.695-4.747c0.339-1.695,0.339-3.391-1.017-4.408
	c-1.017-1.017-2.713-1.017-3.391-2.034c-0.339-0.678-1.695-2.374-2.374-2.374c-2.374,0-4.747,0-7.121-1.017
	c-2.373-0.678-4.408-2.034-5.425-4.408c-3.052,1.695-6.442,3.052-9.833,3.73c-0.339,0-1.017,0-1.356,0.339
	c-0.678,0.339-1.017,1.017-1.356,1.356c-1.017,1.695-2.034,3.391-2.373,5.425c-0.339,1.017,0,2.374-0.339,3.391
	c-0.339,3.052-2.374,6.103-2.713,9.155c0,1.017,0,2.034,0,3.391s-0.678,2.713-1.356,3.73c0.678-2.374,0.678-4.408,0.678-6.781
	c0-1.356,0-2.713-0.339-4.069s-1.017-2.713-1.356-4.408c0-2.034,2.034-13.224,3.391-16.275v-0.339c0,1.695,0,3.391,0.339,5.086
	c0,0,16.615-15.597,43.74,5.425c0,0,0.339-1.017,0.678-2.713c0.339,0.678,0.678,1.695,0.678,2.034
	c-0.339,2.034,3.73,22.04,7.799,25.77c0.339,0.339,4.408,11.189,4.408,14.919c0,2.034-0.339,4.747-2.374,5.425
	c2.374,1.017,4.408,2.374,5.425,4.408c0.678,2.034,0.339,4.069-1.017,6.103c-1.017,1.695-3.052,3.052-5.086,3.73
	c-0.339,0,6.781,14.241,7.799,19.666c0.339,2.374,5.086,11.868,7.121,13.563C306.57,148.95,303.858,152.34,303.858,153.018z"/>
<path style="fill:#E6E9EE;" d="M274.697,18.746l-8.138,7.46l-12.546-13.224l-11.189,10.85c0,0-5.764-2.374-4.747-7.799
	c0,0-7.121,22.04-5.086,31.873c0,0,16.615-15.597,43.74,5.425c0,0,4.747-18.649,2.373-23.735L274.697,18.746z"/>
<path style="fill:#FFFFFF;" d="M290.634,230.327l-25.77,10.511l-24.074-57.642c-8.477-36.62-40.35-75.613-40.35-75.613l0,0
	c3.052,0.678,6.103,1.017,8.816,0.339c0,0,8.477,0.678,15.258,2.713c0,0,3.391-0.339,5.764-1.356
	C247.571,133.691,290.634,230.327,290.634,230.327z"/>
<g>
	<path style="fill:#4CDBC4;" d="M227.905,124.875c-2.034,0-4.069-0.339-5.764-0.339c0-0.339-0.339-0.678-0.339-1.356
		c1.356-1.695,2.713-3.052,4.069-4.747c-2.034,1.017-3.73,1.695-5.764,2.713c-0.339-0.678-0.339-1.356-0.678-2.034
		c3.052-1.356,6.103-2.713,9.155-4.069c0.339,1.017,0.678,2.034,1.017,3.052c-1.356,1.695-2.713,3.052-4.069,4.747
		c2.034,0,4.069,0,5.764,0.339c0.339,1.017,0.678,2.034,1.017,2.713c-3.052,1.356-6.103,2.713-9.155,4.069
		c-0.678-1.017-0.678-1.695-1.017-2.713C224.175,126.571,225.871,125.554,227.905,124.875z"/>
	<path style="fill:#4CDBC4;" d="M234.009,130.301c0.339,0.678,0.678,1.356,1.017,2.034c-3.052,1.356-6.103,2.713-9.155,4.069
		c-0.339-0.678-0.678-1.356-1.017-2.034C227.905,133.013,230.957,131.657,234.009,130.301z"/>
	<path style="fill:#4CDBC4;" d="M236.043,140.134c-0.339,0-0.339,0-0.678,0c-0.339,0-0.339,0.339-0.339,0.678
		c0,0.339,0,1.017,0.339,2.034c0.339,1.017,0.339,1.695,0,2.374c-0.339,0.678-0.678,1.017-1.356,1.695
		c-0.678,0.339-1.695,0.339-2.373,0c-0.678-0.339-1.356-1.017-2.034-2.034c-0.678-1.356-0.678-3.052,0-4.747
		c0.678,0.339,1.356,0.339,2.034,0.678c-0.339,1.356-0.339,2.374,0,3.391c0.339,0.339,0.339,0.678,0.678,0.678s0.678,0,0.678,0
		c0.339,0,0.339-0.339,0.339-0.678c0-0.339,0-0.678,0-1.695c-0.339-1.017-0.339-2.034,0-2.713s0.678-1.356,1.695-1.695
		c1.017-0.339,1.695-0.339,2.373,0c0.678,0.339,1.356,1.017,1.695,2.034c0.339,0.678,0.339,1.356,0.678,2.034
		c0,0.678,0,1.356,0,2.034c-0.678,0-1.356-0.339-2.034-0.339c0.339-1.017,0-2.034-0.339-2.713
		C236.721,140.473,236.382,140.473,236.043,140.134z"/>
	<path style="fill:#4CDBC4;" d="M241.468,150.984c-0.339,0-0.678,0-0.678,0c-0.339,0-0.339,0.339-0.339,0.678
		c0,0.339,0,1.017,0.339,2.034s0.339,1.695,0,2.374s-0.678,1.017-1.356,1.695c-0.678,0.339-1.695,0.339-2.374,0
		s-1.356-1.017-2.034-2.034c-0.678-1.356-0.678-3.052-0.339-4.408c0.678,0.339,1.356,0.339,2.034,0.678
		c-0.339,1.356-0.339,2.374,0,3.391c0.339,0.339,0.339,0.678,0.678,0.678s0.678,0,0.678,0c0.339,0,0.339-0.339,0.339-0.678
		c0-0.339,0-0.678-0.339-1.695s-0.339-2.034,0-2.713c0-0.678,0.678-1.356,1.695-1.695s1.695-0.339,2.373,0
		c0.678,0.339,1.356,1.017,1.695,2.034c0.339,0.678,0.339,1.356,0.678,2.034c0,0.678,0,1.356,0,2.034
		c-0.678,0-1.356-0.339-2.034-0.339c0.339-1.017,0-2.034-0.339-2.713C241.807,151.323,241.468,151.323,241.468,150.984z"/>
	<path style="fill:#4CDBC4;" d="M246.893,169.972c2.034-0.339,4.069-0.678,6.103-0.678c0.339,0.678,0.678,1.356,1.017,2.034
		c-1.356,1.356-3.052,2.713-4.408,4.069c2.034-0.339,4.069-0.339,6.103-0.678c0.339,0.678,0.678,1.356,1.017,2.034
		c-3.73,0.339-7.121,0.678-10.85,1.017c-0.339-0.339-0.678-1.017-0.678-1.356c1.695-1.695,3.391-3.052,5.425-4.747
		c-2.374,0.339-4.747,0.678-7.46,1.017c-0.339-0.339-0.678-1.017-0.678-1.356c2.373-2.374,5.086-4.747,7.46-7.121
		c0.339,0.678,0.678,1.356,1.017,2.034C249.945,167.26,248.25,168.616,246.893,169.972z"/>
	<path style="fill:#4CDBC4;" d="M254.692,190.995c-1.356-0.339-2.374-1.356-3.052-2.713c-0.678-1.356-0.678-2.713-0.339-4.069
		s1.356-2.374,2.713-2.713c1.356-0.678,2.713-0.678,4.069-0.339c1.356,0.339,2.374,1.356,3.052,2.713
		c0.678,1.356,0.678,2.713,0.339,4.069c-0.339,1.356-1.356,2.374-2.713,3.052C257.405,191.673,256.048,191.673,254.692,190.995z
		 M257.744,188.96c0.678-0.339,1.356-1.017,1.695-1.695s0.339-1.695,0-2.374s-1.017-1.356-1.695-1.356
		c-0.678-0.339-1.695-0.339-2.373,0.339c-0.678,0.339-1.356,1.017-1.695,1.695c-0.339,0.678-0.339,1.356,0,2.374
		c0.339,0.678,1.017,1.356,1.695,1.356C256.387,189.299,257.065,189.299,257.744,188.96z"/>
	<path style="fill:#4CDBC4;" d="M265.881,201.845c-1.356,0.678-2.713,0.678-3.73-0.339c-0.678,1.356-1.356,2.374-2.374,3.73
		c-0.339-0.678-0.678-1.695-1.017-2.374c0.678-1.017,1.356-2.374,2.034-3.391c-0.339-0.339-0.339-1.017-0.678-1.356
		c-1.017,0.339-2.034,1.017-3.052,1.356c-0.339-0.678-0.678-1.356-1.017-2.034c3.052-1.356,6.103-2.713,9.155-4.069
		c0.678,1.017,1.017,2.374,1.695,3.391c0.678,1.356,1.017,2.374,0.678,3.391C267.577,200.828,266.899,201.506,265.881,201.845z
		 M263.847,199.811c0.339,0,0.678,0,1.356,0c0.339-0.339,0.678-0.339,0.678-1.017c0-0.339,0-0.678-0.339-1.356
		c-0.339-0.339-0.339-1.017-0.678-1.356c-1.017,0.339-1.695,0.678-2.713,1.356c0.339,0.339,0.339,1.017,0.678,1.356
		C263.169,199.471,263.508,199.811,263.847,199.811z"/>
	<path style="fill:#4CDBC4;" d="M261.813,209.305c3.052-1.356,6.103-2.713,9.155-4.069c0.339,0.678,0.678,1.356,1.017,2.034
		c-2.374,1.017-4.747,2.374-7.46,3.391c0.678,1.356,1.017,2.713,1.695,4.069c-0.678,0.339-1.356,0.678-1.695,0.678
		C263.508,213.373,262.83,211.339,261.813,209.305z"/>
	<path style="fill:#4CDBC4;" d="M276.393,223.207c-0.339,1.356-1.356,2.374-3.052,3.052c-1.356,0.678-2.713,0.678-3.73,0.339
		c-1.017-0.678-2.034-1.695-2.713-3.391c-0.339-1.017-0.678-2.034-1.017-3.391c3.052-1.356,6.103-2.713,9.155-4.069
		c0.339,1.017,0.678,2.374,1.356,3.391C276.732,220.494,277.071,221.85,276.393,223.207z M270.628,224.224
		c0.678,0.339,1.356,0.339,2.374,0c1.017-0.339,1.356-1.017,1.695-1.695c0.339-0.678,0.339-1.695,0-2.713
		c0-0.339-0.339-0.678-0.339-1.017c-1.695,0.678-3.73,1.695-5.425,2.374c0,0.339,0.339,1.017,0.339,1.356
		C269.272,223.207,269.95,223.885,270.628,224.224z"/>
</g>
<g>
</g>
<g>
</g>
<g>
</g>
<g>
</g>
<g>
</g>
<g>
</g>
<g>
</g>
<g>
</g>
<g>
</g>
<g>
</g>
<g>
</g>
<g>
</g>
<g>
</g>
<g>
</g>
<g>
</g>
</svg>
