<?xml version="1.0" encoding="iso-8859-1"?>
<!-- Generator: Adobe Illustrator 19.0.0, SVG Export Plug-In . SVG Version: 6.00 Build 0)  -->
<svg version="1.1" id="Layer_1" xmlns="http://www.w3.org/2000/svg" xmlns:xlink="http://www.w3.org/1999/xlink" x="0px" y="0px"
	 viewBox="0 0 508.652 508.652" style="enable-background:new 0 0 508.652 508.652;" xml:space="preserve">
<circle style="fill:#FD8469;" cx="254.326" cy="254.305" r="217.007"/>
<g>
	<path style="fill:#324A5E;" d="M286.877,473.685c0,0,4.408,15.597,14.919,23.735c2.374,1.695,2.713,5.086,1.017,7.46
		c-2.713,3.391-9.494,6.442-27.126,0c-1.695-0.678-2.713-1.695-3.73-3.052c-0.678-1.356-2.374-3.052-6.103-4.408
		c-2.034-0.678-3.73-2.374-3.73-4.747l-1.695-16.276L286.877,473.685z"/>
	<path style="fill:#324A5E;" d="M221.775,473.685c0,0-4.408,15.597-14.919,23.735c-2.374,1.695-2.713,5.086-1.017,7.46
		c2.713,3.391,9.494,6.442,27.126,0c1.695-0.678,2.713-1.695,3.73-3.052c0.678-1.356,2.374-3.052,6.103-4.408
		c2.034-0.678,3.73-2.374,3.73-4.747l1.695-16.276L221.775,473.685z"/>
</g>
<g>
	<path style="fill:#2B3B4E;" d="M308.578,191.576h-45.436l0,0h-63.068c0,0-34.246,271.936-50.183,286.177
		c0,0,11.528,7.121,42.384,2.713c0,0,12.546-2.034,27.804,4.747c0,0,7.121,2.373,15.597-3.052
		c5.086-3.391,11.528-3.391,16.615,0.339c0,0,0,0,0.339,0.339l0.339,0.339c1.356,0.339,7.799,2.374,18.31-0.678
		c0,0,0.678-0.339,1.017,0c8.477,5.425,15.597,3.052,15.597,3.052c15.597-6.781,27.804-4.747,27.804-4.747
		c30.856,4.408,42.384-2.713,42.384-2.713C342.824,463.513,308.578,191.576,308.578,191.576z"/>
	<path style="fill:#2B3B4E;" d="M358.76,477.754c0,0-8.138,5.086-29.499,4.069c-3.391-0.339-7.46-0.678-11.529-1.017
		c-0.339,0-1.017,0-1.356-0.339c0,0-7.799-1.356-18.988,1.695c-2.713,0.678-5.764,1.695-9.155,3.052c0,0-7.121,2.374-15.597-3.052
		c-0.339-0.339-1.017,0-1.017,0c-3.052,0.678-5.425,1.356-7.799,1.695c-6.103,0.678-9.494-0.339-10.511-0.678
		c0,0-0.339,0-0.339-0.339c0,0,0,0-0.339-0.339c-4.408-3.052-9.833-3.391-14.58-1.356c-0.678,0.339-1.356,0.678-2.034,1.017
		c-1.017,0.678-2.374,1.356-3.391,1.695c-7.121,3.052-12.207,1.356-12.207,1.356c-9.155-4.069-17.293-4.747-22.379-5.086
		c-3.391,0-5.425,0.339-5.425,0.339c-4.408,0.678-8.477,1.017-12.207,1.356c-21.701,1.356-30.517-4.069-30.517-4.069
		c1.017-0.678,1.695-2.374,2.713-4.408c16.954-38.654,47.47-281.43,47.47-281.43h108.842c0,0,33.229,263.799,49.505,285.16
		C358.421,477.415,358.76,477.415,358.76,477.754z"/>
	<polygon style="fill:#2B3B4E;" points="278.739,16.954 254.326,5.086 229.913,16.954 193.293,97.314 254.326,108.842 
		315.359,97.314 	"/>
</g>
<polygon style="fill:#FFFFFF;" points="273.992,78.326 265.515,56.964 254.326,60.016 243.136,56.964 234.66,78.326 234.66,82.395 
	252.631,83.412 252.631,83.751 254.326,83.751 256.021,83.751 256.021,83.412 273.992,82.395 "/>
<g>
	<path style="fill:#324A5E;" d="M313.664,99.687c-10.511-8.816-38.993-15.936-38.993-15.936h-20.344h-20.344
		c0,0-28.143,7.121-38.993,15.936c0,0,9.833,138.342-27.126,262.103c0,0,14.58,3.391,32.212,0c0,0,16.954-4.747,32.212,5.425
		c0,0,10.172,5.425,22.04,4.069c11.868,1.017,22.04-4.069,22.04-4.069c15.258-10.172,32.212-5.425,32.212-5.425
		c17.632,3.391,32.212,0,32.212,0C303.831,238.029,313.664,99.687,313.664,99.687z"/>
	<path style="fill:#324A5E;" d="M231.947,173.605l-36.959,15.258c0.339-10.172,0.678-19.666,1.017-28.482l30.177-12.546
		L231.947,173.605z"/>
	<path style="fill:#324A5E;" d="M313.325,188.864l-36.959-14.919l5.764-26.109l30.177,12.546
		C312.646,169.197,312.986,178.691,313.325,188.864z"/>
</g>
<path style="fill:#FFD05B;" d="M278.4,36.62c0,15.597-11.189,40.35-24.752,40.35s-24.752-24.752-24.752-40.35
	s11.189-15.936,24.752-15.936C267.211,20.344,278.4,21.023,278.4,36.62z"/>
<path style="fill:#FFFFFF;" d="M278.739,33.907c0,1.695,0,3.052-0.339,4.408c-4.408-9.494-13.902-16.275-24.752-16.275
	s-20.344,6.781-24.752,16.275c-0.339-1.356-0.339-3.052-0.339-4.408c0-15.258,11.189-27.465,25.091-27.465
	C267.55,6.442,278.739,18.649,278.739,33.907z"/>
<g>
	<path style="fill:#2B3B4E;" d="M347.91,175.301c-0.339,13.224-13.563,22.04-25.77,16.954l-8.816-3.73l-36.959-14.919l5.764-26.109
		l30.177,12.546l6.103,2.713l-6.442-27.804c0.339-22.04,1.017-35.264,1.017-35.264S348.927,131.221,347.91,175.301z"/>
	<path style="fill:#2B3B4E;" d="M231.947,173.605l-36.959,15.258l-8.816,3.391c-12.207,5.086-25.43-3.73-25.77-16.954
		c-1.017-43.401,33.229-74.596,34.246-75.613c0,0.678,1.017,13.902,1.017,35.264l-6.442,27.804l6.103-2.713l30.177-12.546
		L231.947,173.605z"/>
</g>
<path style="fill:#FFFFFF;" d="M274.67,82.395h-20.344h-20.344c0,0-28.482,7.121-40.689,16.615c0,0,2.034,18.649,24.413,17.971
	c0,0,13.563-2.034,17.293,2.034c0,0,12.546,5.764,19.327,2.034c6.781,3.391,19.327-2.034,19.327-2.034
	c3.73-4.069,17.293-2.034,17.293-2.034c22.379,0.678,24.413-17.971,24.413-17.971C303.152,89.854,274.67,82.395,274.67,82.395z"/>
<path style="fill:#324A5E;" d="M307.221,64.085C284.842,2.713,259.073,0,254.326,0s-30.517,2.713-52.895,64.085
	c0,0-21.362,44.419-26.448,61.372c0,0,29.499-29.838,38.654-62.728c0,0,16.276-47.47,40.35-56.286
	c24.413,8.816,40.689,56.286,40.689,56.286c9.155,33.229,38.654,62.728,38.654,62.728
	C328.244,108.164,307.221,64.085,307.221,64.085z"/>
<g>
	<path style="fill:#FFD05B;" d="M281.791,149.531l-3.391,15.258c-6.781-4.408-19.666-13.902-19.666-20.344l-2.713-47.809
		c0,0-2.373-9.155,1.356-8.816c0,0,10.511,34.246,12.546,47.47C269.923,135.29,270.94,146.14,281.791,149.531z"/>
	<path style="fill:#FFD05B;" d="M252.97,96.636l-3.052,48.148c0,6.442-12.885,15.936-19.666,20.344l-3.391-15.258
		c11.189-3.73,12.207-14.58,12.207-14.58c2.034-13.224,12.546-47.47,12.546-47.47C255.343,87.481,252.97,96.636,252.97,96.636z"/>
</g>
<g>
	<path style="fill:#243342;" d="M198.04,408.244c-0.339,24.074-0.339,48.148-0.339,72.223c-3.391,0-5.425,0.339-5.425,0.339
		c-4.408,0.678-8.477,1.017-12.207,1.356C185.494,473.685,197.701,415.025,198.04,408.244z"/>
	<path style="fill:#243342;" d="M238.05,474.702c0,2.034,0,4.069,0,6.442c-0.678,0.339-1.356,0.678-2.034,1.017
		c-1.017,0.678-2.373,1.356-3.391,1.695c3.052-11.528,3.391-23.735,3.391-35.603c0-18.31,0-36.62,0-54.93
		C238.729,420.45,239.407,447.576,238.05,474.702z"/>
	<path style="fill:#243342;" d="M286.199,392.985c6.442,29.16,8.138,59.338,11.189,89.176c-2.713,0.678-5.764,1.695-9.155,3.052
		c0,0-7.121,2.373-15.597-3.052c-0.339-0.339-1.017,0-1.017,0c-3.052,0.678-5.425,1.356-7.799,1.695
		c1.695-3.052,3.052-6.781,4.069-10.172C275.688,446.898,281.791,420.111,286.199,392.985z"/>
	<path style="fill:#243342;" d="M329.261,481.823c-3.391-0.339-7.46-0.678-11.528-1.017c0-1.017,0.339-2.034,0.339-2.713
		c2.034-25.43,4.069-50.183,4.069-75.613c2.373,25.77,4.747,51.539,6.781,76.97C329.261,480.127,329.261,480.805,329.261,481.823z"
		/>
</g>
<path style="fill:#E6E9EE;" d="M274.331,78.326c-13.224,2.034-26.787,2.034-40.011,0c-0.339,1.356-0.339,2.713-0.678,4.069
	c13.563,2.374,27.465,2.374,41.028,0C274.67,81.038,274.331,79.682,274.331,78.326z"/>
<g>
</g>
<g>
</g>
<g>
</g>
<g>
</g>
<g>
</g>
<g>
</g>
<g>
</g>
<g>
</g>
<g>
</g>
<g>
</g>
<g>
</g>
<g>
</g>
<g>
</g>
<g>
</g>
<g>
</g>
</svg>
