<?xml version="1.0" encoding="iso-8859-1"?>
<!-- Generator: Adobe Illustrator 19.0.0, SVG Export Plug-In . SVG Version: 6.00 Build 0)  -->
<svg version="1.1" id="Layer_1" xmlns="http://www.w3.org/2000/svg" xmlns:xlink="http://www.w3.org/1999/xlink" x="0px" y="0px"
	 viewBox="0 0 508.599 508.599" style="enable-background:new 0 0 508.599 508.599;" xml:space="preserve">
<circle style="fill:#FD8469;" cx="254.299" cy="254.366" r="217.007"/>
<path style="fill:#FFD05B;" d="M297.701,342.864c0,0,12.546,47.131-3.052,94.601c0,0-4.408,40.011-2.374,51.2
	c0,0,3.391,15.936-21.701,10.85c-3.052-0.678-5.425-3.391-5.086-6.103c0.339-9.833,1.695-31.195,6.442-34.246
	c0,0,7.46-13.902,1.017-37.637c0,0-6.103-45.436-4.069-57.303c0,0-8.816-12.885-7.799-24.413L297.701,342.864z"/>
<path style="fill:#F1543F;" d="M265.828,487.309c0,0-10.172,24.074,9.155,21.023c0.339,0,0.339,0,0.678,0
	c16.615-2.713,17.971-3.391,18.649-7.121c0.339-2.034,0.339-3.73,0-5.764c-0.678-4.069-1.695-11.189-2.374-16.615
	C291.937,478.832,284.816,502.567,265.828,487.309z"/>
<path style="fill:#FFD05B;" d="M210.898,342.864c0,0-12.546,47.131,3.052,94.601c0,0,4.408,40.011,2.374,51.2
	c0,0-3.391,15.936,21.701,10.85c3.052-0.678,5.425-3.391,5.086-6.103c-0.339-9.833-1.695-31.195-6.442-34.246
	c0,0-7.46-13.902-1.017-37.637c0,0,6.103-45.436,4.069-57.303c0,0,8.816-12.885,7.799-24.413L210.898,342.864z"/>
<path style="fill:#F1543F;" d="M242.771,487.309c0,0,10.172,24.074-9.155,21.023c-0.339,0-0.339,0-0.678,0
	c-16.615-2.713-17.971-3.391-18.649-7.121c-0.339-2.034-0.339-3.73,0-5.764c0.678-4.069,1.695-11.189,2.373-16.615
	C216.662,478.832,223.783,502.567,242.771,487.309z"/>
<path style="fill:#2B3B4E;" d="M276.678,66.181c0.339,1.017,0.339,2.374,0.339,3.391c0,3.73,0.339,7.46,1.017,11.189
	c0.339,2.374,0.678,4.408,0.678,6.781c0.339,3.73,1.017,7.46,0.339,11.189c-0.678,3.73-2.713,7.121-6.442,8.816
	c-1.356,0.678-2.713,0.678-3.73,1.017c-7.46,1.017-14.919,0-21.701-2.713c-1.356-0.678-3.052-1.356-3.73-2.713
	c-1.017-1.695-0.678-3.73-2.374-5.086c-1.017-1.017-3.052-1.017-4.069-2.374c-0.339-0.678-0.339-1.356-0.678-2.034
	c-0.339-2.034-1.695-4.069-2.713-6.103c-0.678-1.356-1.017-2.713-1.356-4.408c-1.356-6.103-2.374-12.546-3.391-18.649
	c-0.339-2.713-0.678-5.425-0.339-7.799c0.339-2.713,1.695-5.086,3.73-6.781c2.374-1.695,5.764-2.034,8.816-2.034
	c5.086-0.339,9.833-0.339,14.58,0.678c2.374,0.678,4.408,1.695,6.781,2.374c2.034,1.017,4.408,2.034,6.103,3.391
	c2.373,2.034,4.069,4.747,5.425,7.46C275.322,63.129,276.339,64.485,276.678,66.181z"/>
<path style="fill:#F9B54C;" d="M269.897,67.537h-14.241h-14.241c0,0,4.747,23.396-21.701,31.873l35.942,35.942l35.942-35.942
	C265.15,90.933,269.897,67.537,269.897,67.537z"/>
<path style="fill:#FFFFFF;" d="M187.163,323.198c0,0,1.017,40.011,1.017,50.183c0,0,43.401,9.155,70.188,2.374V140.438
	c-20.683-32.212-22.379-58.999-22.379-58.999s-28.821,18.649-37.637,21.023c0,0-2.374,39.672,8.138,60.355
	c0,0.339,0.339,0.678,0.339,1.017c0,0,12.885,16.615-0.678,45.097c-8.477,17.971-14.241,36.62-16.615,55.947
	C187.502,285.9,185.468,309.974,187.163,323.198z"/>
<path style="fill:#E6E9EE;" d="M215.306,108.565l16.954,2.713l-9.494,14.919c0,0,20.683,14.241,35.942,14.241
	c0,0-19.666-36.959-22.718-69.51C235.65,70.928,216.662,75.336,215.306,108.565z"/>
<path style="fill:#FFD05B;" d="M177.669,203.166c0,0,0,24.413,5.086,45.097c0,0-13.224,35.264,10.172,44.419
	c0,0,4.069,1.356,1.356-3.73c0,0,5.764,0,1.695-4.408l-6.781-5.764c0,0-0.339-13.224,1.356-15.936l1.017,12.885
	c0,0,4.408,5.764,6.103-0.678c0,0,0-9.833,0.678-13.563c0,0,3.052-9.494-3.391-13.902c0,0-1.356-30.856,2.374-43.062
	L177.669,203.166z"/>
<g>
	<path style="fill:#E6E9EE;" d="M174.956,206.557h25.77c0,0-2.374-24.752,5.764-43.74c-10.511-20.683-8.138-60.355-8.138-60.355
		S173.261,132.3,174.956,206.557z"/>
	<path style="fill:#E6E9EE;" d="M321.436,323.198c0,0-1.017,40.011-1.017,50.183c0,0-43.401,9.155-70.188,2.374V140.438
		c20.683-32.212,22.379-58.999,22.379-58.999s28.821,18.649,37.637,21.023c0,0,2.374,39.672-8.138,60.355
		c0,0.339-0.339,0.678-0.339,1.017c0,0-12.885,16.615,0.678,45.097c8.477,17.971,14.241,36.62,16.615,55.947
		C321.097,285.9,323.131,309.974,321.436,323.198z"/>
</g>
<path style="fill:#FFFFFF;" d="M293.293,108.565l-16.954,2.713l9.494,14.919c0,0-20.683,14.241-35.942,14.241
	c0,0,19.666-36.959,22.718-69.51C272.948,70.928,294.31,78.048,293.293,108.565z"/>
<path style="fill:#FFD05B;" d="M330.93,203.166c0,0,0,24.413-5.086,45.097c0,0,13.224,35.264-10.172,44.419
	c0,0-4.069,1.356-1.356-3.73c0,0-5.764,0-1.695-4.408l6.781-5.764c0,0,0.339-13.224-1.356-15.936l-1.017,12.885
	c0,0-4.408,5.764-6.103-0.678c0,0,0-9.833-0.678-13.563c0,0-3.052-9.494,3.391-13.902c0,0,1.356-30.856-2.373-43.062L330.93,203.166
	z"/>
<path style="fill:#FFFFFF;" d="M333.643,206.557h-25.77c0,0,2.374-24.752-5.764-43.74c10.511-20.683,8.138-60.355,8.138-60.355
	S335.338,132.3,333.643,206.557z"/>
<path style="fill:#FFD05B;" d="M278.713,40.75c0,18.649-10.172,40.689-23.057,40.689c-12.546,0-23.057-22.379-23.057-40.689
	s10.172-26.109,23.057-26.109S278.713,22.101,278.713,40.75z"/>
<path style="fill:#324A5E;" d="M249.892,0.739c0,0,27.465-9.155,35.603,36.959c0,0,5.425,18.31,0,32.89
	c0,0-6.781,16.275,9.494,20.683c0,0-9.833,0.678-14.919-1.356c0,0,3.052,6.442,9.494,6.781c0,0-23.057-4.747-20.344-19.666
	c0,0,14.919-39.332-1.017-53.234c0,0-12.885-0.339-14.919-5.425c0,0-11.528,0.678-21.362,29.499c0,0,11.528,32.551-6.781,40.011
	l3.052-8.138c0,0-8.138,18.31-23.396,12.207c0,0,22.379,3.052,15.597-25.091C220.392,67.198,216.662,2.774,249.892,0.739z"/>
<ellipse transform="matrix(-0.3979 -0.9174 0.9174 -0.3979 280.4572 282.5966)" style="fill:#FFD05B;" cx="232.96" cy="49.269" rx="6.442" ry="4.747"/>
<path style="fill:#FFFFFF;" d="M270.236,51.939c-2.713,0.339-5.764,1.017-8.816,1.695c-4.747,1.017-9.494,1.017-13.902,0
	c-3.052-0.678-6.103-1.356-8.816-1.695c-2.374-0.339-4.747,1.695-4.747,4.069l-0.339,7.121c0,1.017,0.339,1.695,0.678,2.713
	c2.713,3.73,11.189,15.597,20.344,15.936c9.155-0.339,17.632-11.868,20.344-15.936c0.678-0.678,0.678-1.695,0.678-2.713
	l-0.678-7.121C274.644,53.296,272.609,51.6,270.236,51.939z"/>
<g>
</g>
<g>
</g>
<g>
</g>
<g>
</g>
<g>
</g>
<g>
</g>
<g>
</g>
<g>
</g>
<g>
</g>
<g>
</g>
<g>
</g>
<g>
</g>
<g>
</g>
<g>
</g>
<g>
</g>
</svg>
