<?xml version="1.0" encoding="iso-8859-1"?>
<!-- Generator: Adobe Illustrator 19.0.0, SVG Export Plug-In . SVG Version: 6.00 Build 0)  -->
<svg version="1.1" id="Layer_1" xmlns="http://www.w3.org/2000/svg" xmlns:xlink="http://www.w3.org/1999/xlink" x="0px" y="0px"
	 viewBox="0 0 508.609 508.609" style="enable-background:new 0 0 508.609 508.609;" xml:space="preserve">
<circle style="fill:#324A5E;" cx="254.305" cy="254.305" r="217.007"/>
<path style="fill:#F9B54C;" d="M287.534,80.36c-0.339,0.678-0.678,1.017-1.017,1.695c-14.919,23.735-49.844,23.735-64.763,0
	c-0.339-0.678-0.678-1.017-1.017-1.695c0,0,13.563-3.73,20.005-11.528c4.069,3.73,8.477,5.764,13.224,5.764
	c4.747,0,9.494-2.374,13.224-5.764C273.971,76.63,287.534,80.36,287.534,80.36z"/>
<path style="fill:#FFD05B;" d="M287.195,44.758c-2.034,4.408-5.764,7.121-8.816,6.781c-5.086,12.546-13.902,22.718-24.074,22.718
	c-10.172,0-19.327-10.172-24.074-22.718c-3.052,0.339-6.781-2.374-8.816-6.781c-2.373-5.086-2.034-10.511,1.017-11.868
	c0.678-0.339,1.356-0.339,2.374-0.339c0,0.678,0,1.017,0,1.356l0,0c2.374,5.425,14.58,9.494,29.499,9.494
	c14.919,0,27.126-4.069,29.499-9.494l0,0c0-0.339,0-0.678,0-1.356c0.678,0,1.695,0,2.374,0.339
	C289.229,34.246,289.568,39.672,287.195,44.758z"/>
<path style="fill:#324A5E;" d="M283.804,33.568c-2.373,5.425-14.58,9.494-29.499,9.494c-14.919,0-27.126-4.069-29.499-9.494
	c5.425-5.425,18.988-7.46,29.499-7.46C264.816,26.109,279.396,27.804,283.804,33.568z"/>
<path style="fill:#54C0EB;" d="M284.143,24.074c0,1.695,0,8.138-0.339,9.494c-8.816-2.034-18.988-3.391-29.499-3.391
	c-10.511,0-20.683,1.356-29.499,3.391c-0.339-1.695-0.339-8.138-0.339-9.494C224.466,8.138,238.029,0,254.305,0
	C270.919,0,284.143,8.138,284.143,24.074z"/>
<path style="fill:#84DBFF;" d="M278.718,24.074c0,1.356,0,6.103-0.339,8.477c-6.442-1.356-13.563-2.034-21.023-2.034
	c-1.017,0-2.034,0-3.391,0c-1.017,0-2.034,0-3.391,0c-7.46,0-14.58,1.017-21.023,2.034c0-2.374-0.339-7.121-0.339-8.477
	c0-15.597,10.172-23.735,23.057-24.074c0.339,0,0.678,0,1.356,0c0.339,0,0.678,0,1.356,0
	C268.546,0.678,278.718,8.477,278.718,24.074z"/>
<path style="fill:#324A5E;" d="M293.298,491.317h-31.873v13.224c0,2.374,1.695,4.069,4.069,4.069h42.723v-2.034
	C308.556,498.098,301.775,491.317,293.298,491.317z"/>
<path style="fill:#E6E9EE;" d="M201.409,266.85c-0.678,17.632-0.339,39.332,3.052,65.102
	c9.494,74.257,11.868,148.175,11.528,159.025h30.856c0.339-14.58,2.374-139.698,7.46-173.605
	c5.086,33.907,7.121,159.364,7.46,173.605h30.856c-0.339-10.85,2.034-85.107,11.529-159.025c3.391-26.109,3.73-47.809,3.052-65.102
	L201.409,266.85L201.409,266.85z"/>
<path style="fill:#324A5E;" d="M214.972,491.317h31.873v13.224c0,2.374-1.695,4.069-4.069,4.069h-42.723v-2.034
	C200.053,498.098,206.834,491.317,214.972,491.317z"/>
<path style="fill:#FFFFFF;" d="M310.591,269.902H198.019c3.052-9.833,3.391-67.475,3.391-101.383c0-14.58,0-24.752,0-24.752
	c-1.017-26.448-12.207-48.148-12.207-48.148c-1.017-9.833,31.873-15.258,31.873-15.258c0.339,0.678,0.678,1.017,1.017,1.695
	c14.919,23.735,49.844,23.735,64.763,0c0.339-0.678,0.678-1.017,1.017-1.695c0,0,32.551,5.425,31.873,15.258
	c0,0-10.85,21.701-12.207,48.148c0,0,0,10.172,0,24.752C307.2,202.426,307.539,260.069,310.591,269.902z"/>
<path style="fill:#2B3B4E;" d="M298.723,256.678l-2.713,2.713L274.31,237.69c-2.713-2.713-3.73-6.781-2.713-10.511l9.155-31.195
	c0.678-2.374,0-5.086-1.695-6.781l-2.713-2.713c-2.713-2.713-7.121-2.713-9.833,0l-1.356,1.695l-2.713-2.713l1.695-1.695
	c4.069-4.069,10.85-4.069,14.919,0l2.713,2.713c2.713,2.713,3.73,6.781,2.713,10.511l-9.155,31.195
	c-0.678,2.374,0,5.086,1.695,6.781L298.723,256.678z"/>
<path style="fill:#FF7058;" d="M266.172,194.628l-31.873,31.873c-2.713,2.713-7.46,2.713-10.172,0l0,0
	c-2.713-2.713-2.713-7.46,0-10.172L256,184.456c2.713-2.713,7.46-2.713,10.172,0l0,0
	C268.885,187.507,268.885,191.915,266.172,194.628z"/>
<path style="fill:#324A5E;" d="M282.787,241.759l-1.695,1.695c-1.017,1.017-1.017,2.713,0,3.73l42.045,42.045
	c1.017,1.017,2.713,1.017,3.73,0l1.695-1.695c1.017-1.017,1.017-2.713,0-3.73l-42.045-42.045
	C285.499,240.742,283.804,240.742,282.787,241.759z"/>
<g>
	<path style="fill:#FFD05B;" d="M327.205,240.064H314.66c-0.339,3.391-2.034,6.781-3.73,9.833c-0.678,0-1.017,0.339-1.356,1.017
		c-5.764,6.103-5.425,19.327-5.425,20.344c-0.339,1.017-0.678,2.034-1.017,3.052c-0.339,1.017,0,2.034,0.678,2.713
		c0.678,0.678,1.695,0.678,2.713,0.678c0.339,0,0.678,0,1.017-0.339c0.339,0,0.339-0.339,0.678-0.678
		c2.374-3.052,2.374-7.121,3.052-10.85v-0.339c0-0.339,0.339-0.339,0.678-0.339c1.017,0,1.356,1.356,1.356,2.034
		c0,12.885-7.46,11.529-9.833,11.529c-0.339,0-2.034,1.695,3.73,3.391c0.678,0.339,2.713-1.017,3.052-1.017
		c1.695-0.339,3.391,1.017,5.086,0.678c1.695-0.339,11.868-6.442,11.868-20.005c0-1.356-0.339-2.374-0.339-3.73
		c-0.339-2.713-1.356-5.425-0.678-7.799c0.339-1.017,0.678-1.695,1.017-2.713c0.339-0.339,0.339-1.017,0.339-1.356
		c0.339-1.017,0-1.695,0-2.713C327.544,242.437,327.205,241.081,327.205,240.064z"/>
	<path style="fill:#FFD05B;" d="M180.048,240.064h12.546c0.339,3.391,2.034,6.781,3.73,9.833c0.678,0,1.017,0.339,1.356,1.017
		c5.764,6.103,5.425,19.327,5.425,20.344c0.339,1.017,0.678,2.034,1.017,3.052c0.339,1.017,0,2.034-0.678,2.713
		c-0.678,0.678-1.695,0.678-2.713,0.678c-0.339,0-0.678,0-1.017-0.339c-0.339,0-0.339-0.339-0.678-0.678
		c-2.374-3.052-2.374-7.121-3.052-10.85v-0.339c0-0.339-0.339-0.339-0.678-0.339c-1.017,0-1.356,1.356-1.356,2.034
		c0,12.885,7.46,11.529,9.833,11.529c0.339,0,2.034,1.695-3.73,3.391c-0.678,0.339-2.713-1.017-3.052-1.017
		c-1.695-0.339-3.391,1.017-5.086,0.678c-1.695-0.339-11.868-6.442-11.868-20.005c0-1.356,0.339-2.374,0.339-3.73
		c0.339-2.713,1.356-5.425,0.678-7.799c-0.339-1.017-0.678-1.695-1.017-2.713c-0.339-0.339-0.339-1.017-0.339-1.356
		c-0.339-1.017,0-1.695,0-2.713C180.048,242.437,180.048,241.081,180.048,240.064z"/>
</g>
<path style="fill:#E6E9EE;" d="M326.866,121.727c-3.052-16.615-7.46-26.109-7.46-26.109s-10.85,21.701-12.207,48.148
	c0,0,0,10.172,0,24.752l3.391,73.579l22.718,7.121C338.056,190.22,332.291,147.158,326.866,121.727z"/>
<path style="fill:#324A5E;" d="M312.625,267.868l-26.109-26.109c-1.017-1.017-2.713-1.017-3.73,0l-1.695,1.695
	c-1.017,1.017-1.017,2.713,0,3.73l29.16,29.16C310.93,273.293,311.608,270.58,312.625,267.868z"/>
<path style="fill:#E6E9EE;" d="M181.743,121.727c3.052-16.615,7.46-26.109,7.46-26.109s10.85,21.701,12.207,48.148
	c0,0,0,10.172,0,24.752l-3.391,73.579l-22.379,7.121C170.554,190.22,176.318,147.158,181.743,121.727z"/>
<g>
</g>
<g>
</g>
<g>
</g>
<g>
</g>
<g>
</g>
<g>
</g>
<g>
</g>
<g>
</g>
<g>
</g>
<g>
</g>
<g>
</g>
<g>
</g>
<g>
</g>
<g>
</g>
<g>
</g>
</svg>
