<?xml version="1.0" encoding="iso-8859-1"?>
<!-- Generator: Adobe Illustrator 19.0.0, SVG Export Plug-In . SVG Version: 6.00 Build 0)  -->
<svg version="1.1" id="Layer_1" xmlns="http://www.w3.org/2000/svg" xmlns:xlink="http://www.w3.org/1999/xlink" x="0px" y="0px"
	 viewBox="0 0 508.525 508.525" style="enable-background:new 0 0 508.525 508.525;" xml:space="preserve">
<circle style="fill:#54C0EB;" cx="254.262" cy="254.22" r="217.007"/>
<path style="fill:#FFD05B;" d="M271.216,94.856v16.275l-16.954,5.425l0,0l0,0l-17.632-5.764V96.551
	c1.356-2.374,2.373-4.747,3.052-7.121c2.374-7.799,1.695-14.58,1.695-14.58l12.885-0.678l0,0l0,0l0,0l0,0l12.885,0.678
	c0,0-0.678,6.442,1.695,14.241C269.181,90.787,270.199,92.821,271.216,94.856z"/>
<path style="fill:#F9B54C;" d="M268.842,88.752c-6.103,4.408-10.85,6.103-15.258,6.103c-8.477,0-14.241-5.764-14.241-5.764
	c2.374-7.799,1.695-14.58,1.695-14.58l12.885-0.678h0.339l12.885,0.678C267.147,74.511,266.469,80.954,268.842,88.752z"/>
<path style="fill:#324A5E;" d="M210.522,228.111l-4.747-3.052l-10.172-7.121l8.138-26.448c-3.73-35.942-11.868-69.171-11.868-69.171
	s-14.919,34.585-18.988,96.297c-0.678,7.799,2.374,15.258,7.46,20.683c5.086,5.086,12.546,11.868,22.379,18.31
	c2.374,1.695,5.086,3.052,7.799,4.747V228.111z"/>
<g>
	<path style="fill:#FFD05B;" d="M254.262,116.556L254.262,116.556L254.262,116.556z"/>
	<path style="fill:#FFD05B;" d="M254.262,116.556L254.262,116.556L254.262,116.556z"/>
	<path style="fill:#FFD05B;" d="M254.262,116.556L254.262,116.556L254.262,116.556z"/>
	<path style="fill:#FFD05B;" d="M254.262,116.556L254.262,116.556L254.262,116.556z"/>
</g>
<polygon style="fill:#E6E9EE;" points="271.216,195.56 234.257,195.56 233.24,111.47 272.233,111.47 "/>
<polygon style="fill:#FF7058;" points="265.113,168.434 254.262,197.934 243.073,168.434 250.532,118.252 257.653,118.252 "/>
<polygon style="fill:#F1543F;" points="257.653,118.252 250.532,118.252 248.837,111.47 259.348,111.47 "/>
<path style="fill:#FFFFFF;" d="M270.538,93.16c-2.713,11.189-12.207,16.275-16.275,18.31c-4.069-1.695-13.563-6.781-16.276-18.31
	c0,0-7.121,7.121,1.695,28.143c0,0,8.138-9.494,14.58-9.494c6.442,0.339,14.58,9.494,14.58,9.494
	C277.658,100.281,270.538,93.16,270.538,93.16z"/>
<polygon style="fill:#2B3B4E;" points="301.393,493.266 306.479,308.472 303.089,259.645 253.584,259.645 253.584,336.954 
	272.911,493.266 "/>
<polygon style="fill:#324A5E;" points="235.613,493.266 254.94,336.954 254.94,259.645 205.436,259.645 202.045,308.472 
	207.131,493.266 "/>
<g>
	<path style="fill:#2B3B4E;" d="M335.64,218.617c-4.069-61.711-19.327-96.297-19.327-96.297s-7.799,33.229-11.868,69.171
		l8.138,26.448l-10.172,7.121l-3.73,2.713v34.585c2.374-1.356,4.747-2.713,7.121-4.069c9.833-6.442,17.293-13.224,22.379-18.31
		C333.605,233.876,336.318,226.416,335.64,218.617z"/>
	<path style="fill:#2B3B4E;" d="M235.613,98.246c0,0-6.781,17.293-43.401,24.074c0,0,23.057,97.314,9.494,139.359
		c0,0-7.121,44.419-4.747,55.947c0,0,33.907,16.276,51.2-3.391c0,0,15.258-84.09,6.781-119.015
		C254.94,195.221,244.429,180.302,235.613,98.246z"/>
</g>
<path style="fill:#324A5E;" d="M216.625,123.338c0,0,13.902,53.234,38.315,72.901c0-0.339,0-0.678-0.339-1.017
	c0,0-10.172-14.919-19.327-96.975c0,0-2.713,7.121-14.58,13.902l7.799,8.816L216.625,123.338z"/>
<path style="fill:#FFD05B;" d="M279.693,49.759c-1.017-0.339-2.034-0.339-2.713,0.339l1.695-17.293h-24.413h-24.413l1.695,17.293
	c-1.017-0.339-2.034-0.678-2.713-0.339c-2.034,0.678-2.713,4.069-1.695,7.121s3.391,4.747,5.425,4.408l1.356,12.546
	c0.339,3.052,1.356,5.764,3.391,7.799l3.391,4.069c2.373,2.713,5.764,4.747,9.494,5.086h9.155c3.73-0.678,7.121-2.374,9.494-5.086
	l3.391-4.069c1.695-2.374,3.052-5.086,3.391-7.799l1.356-12.546c2.034,0.339,4.408-1.356,5.425-4.408
	C282.405,53.828,281.727,50.776,279.693,49.759z"/>
<g>
	<path style="fill:#324A5E;" d="M234.935,42.299h-10.511c0.339,1.356,1.017,3.052,1.695,4.408
		c2.713,5.425,7.799,14.919,7.799,14.919C232.562,53.489,233.579,46.707,234.935,42.299z"/>
	<path style="fill:#324A5E;" d="M272.572,42.299c2.373,5.425,2.713,15.936,2.713,15.936c1.017-6.781,4.069-7.121,4.069-7.121
		c0.678-3.391,1.356-6.442,1.695-8.816H272.572z"/>
	<path style="fill:#324A5E;" d="M301.054,493.266h-28.143v11.528c0,2.034,1.695,3.73,3.73,3.73h37.976v-1.695
		C314.617,499.37,308.514,493.266,301.054,493.266z"/>
</g>
<path style="fill:#2B3B4E;" d="M207.47,493.266h28.143v11.528c0,2.034-1.695,3.73-3.73,3.73h-37.976v-1.695
	C193.907,499.37,200.011,493.266,207.47,493.266z"/>
<rect x="245.107" y="50.098" style="fill:#324A5E;" width="18.31" height="1.017"/>
<g>
	<path style="fill:#54C0EB;" d="M274.607,57.897c0,4.408-1.356,8.138-7.121,8.138c-5.764,0-10.85-5.764-10.85-10.172
		s5.086-5.764,10.85-5.764C273.25,50.098,274.607,53.15,274.607,57.897z"/>
	<path style="fill:#54C0EB;" d="M233.918,57.897c0,4.408,1.356,8.138,7.121,8.138c5.764,0,10.85-5.764,10.85-10.172
		s-5.086-5.764-10.85-5.764C235.274,50.098,233.918,53.15,233.918,57.897z"/>
</g>
<path style="fill:#324A5E;" d="M258.331,61.626c-0.339,0-0.678-0.339-0.678-0.678c0-1.695-1.356-3.391-3.391-3.391
	c-1.695,0-3.391,1.356-3.391,3.391c0,0.339-0.339,0.678-0.678,0.678s-0.678-0.339-0.678-0.678c0-2.374,2.034-4.408,4.408-4.408
	s4.408,2.034,4.408,4.408C258.67,61.287,258.67,61.626,258.331,61.626z"/>
<g>
	<path style="fill:#2B3B4E;" d="M291.899,26.363l-8.816-15.597c-1.017-1.695-2.374-2.713-4.069-3.391l-22.718-7.121
		c-1.356-0.339-3.052-0.339-4.408,0l-23.057,7.121c-1.695,0.678-3.391,1.695-4.069,3.391l-8.816,15.597
		c-1.017,1.695-1.356,4.069-0.339,5.764c1.695,5.086,6.442,13.902,15.936,13.563h22.379h22.379
		c9.494,0.339,13.902-8.477,15.936-13.563C292.917,30.432,292.917,28.397,291.899,26.363z"/>
	<path style="fill:#2B3B4E;" d="M227.815,45.351c0.339,2.374,3.391,4.408,8.138,6.442c4.747,2.034,11.189,4.069,17.971,3.73
		c6.781,0,13.224-2.034,17.971-3.73c4.747-2.034,7.799-4.069,8.138-6.442C263.417,37.552,244.429,37.552,227.815,45.351z"/>
</g>
<path style="fill:#324A5E;" d="M280.371,45.69c-6.442-3.391-15.936-5.764-26.109-5.764c-10.511,0-19.666,2.374-26.109,5.764
	c0-9.833,11.868-17.971,26.109-17.971C268.503,27.719,280.032,35.857,280.371,45.69z"/>
<g>
	<path style="fill:#FFD05B;" d="M227.475,168.095h-9.494v-0.678c0-0.339-0.339-0.678-0.678-0.678c-0.339,0-0.678,0.339-0.678,0.678
		v0.678h-9.494c-0.678,0-1.017,0.339-1.017,1.017s0.339,1.017,1.017,1.017h1.356c-0.339,0-0.678,0.339-0.678,0.678l0,0
		c0,0.339,0.339,0.678,0.678,0.678h2.034c-0.339,0-0.678,0.339-0.678,0.678l0,0c0,0.339,0.339,0.678,0.678,0.678h6.442v0.678
		c0,0.339,0.339,0.678,0.678,0.678c0.339,0,0.678-0.339,0.678-0.678v-0.678h6.442c0.339,0,0.678-0.339,0.678-0.678l0,0
		c0-0.339-0.339-0.678-0.678-0.678h2.034c0.339,0,0.678-0.339,0.678-0.678l0,0c0-0.339-0.339-0.678-0.678-0.678h1.356
		c0.678,0,1.017-0.339,1.017-1.017C228.493,168.434,227.815,168.095,227.475,168.095z"/>
	<path style="fill:#FFD05B;" d="M268.164,13.139H254.94v-0.678c0-0.678-0.678-1.017-1.017-1.017c-0.678,0-1.017,0.678-1.017,1.017
		v1.017h-13.224c-0.678,0-1.356,0.678-1.356,1.356c0,0.678,0.678,1.356,1.356,1.356h1.695c-0.678,0-1.017,0.339-1.017,1.017l0,0
		c0,0.678,0.339,1.017,1.017,1.017h2.713c-0.339,0-0.678,0.339-0.678,0.678l0,0c0,0.339,0.339,0.678,0.678,0.678h8.477v1.017
		c0,0.678,0.678,1.017,1.017,1.017c0.678,0,1.017-0.678,1.017-1.017v-0.678h8.477c0.339,0,0.678-0.339,0.678-0.678l0,0
		c0-0.339-0.339-0.678-0.678-0.678h2.713c0.678,0,1.017-0.339,1.017-1.017l0,0c0-0.678-0.339-1.017-1.017-1.017h1.695
		c0.678,0,1.356-0.678,1.356-1.356S268.842,13.139,268.164,13.139z"/>
</g>
<path style="fill:#324A5E;" d="M272.911,98.246c0,0,6.781,17.293,43.401,24.074c0,0-23.057,97.314-9.494,139.359
	c0,0,7.121,44.419,4.747,55.947c0,0-33.907,16.276-51.2-3.391c0,0-15.258-84.09-6.781-119.015
	C253.584,195.221,264.095,180.302,272.911,98.246z"/>
<g>
	<path style="fill:#2B3B4E;" d="M291.899,123.338c0,0-13.902,53.234-38.315,72.901c0-0.339,0-0.678,0.339-1.017
		c0,0,10.172-14.919,19.327-96.975c0,0,2.713,7.121,14.58,13.902l-7.799,8.816L291.899,123.338z"/>
	<circle style="fill:#2B3B4E;" cx="259.009" cy="208.784" r="2.374"/>
	<circle style="fill:#2B3B4E;" cx="268.164" cy="208.784" r="2.374"/>
	<circle style="fill:#2B3B4E;" cx="259.009" cy="232.858" r="2.373"/>
	<circle style="fill:#2B3B4E;" cx="268.164" cy="232.858" r="2.373"/>
	<circle style="fill:#2B3B4E;" cx="259.009" cy="256.932" r="2.373"/>
	<circle style="fill:#2B3B4E;" cx="268.164" cy="256.932" r="2.373"/>
</g>
<g>
</g>
<g>
</g>
<g>
</g>
<g>
</g>
<g>
</g>
<g>
</g>
<g>
</g>
<g>
</g>
<g>
</g>
<g>
</g>
<g>
</g>
<g>
</g>
<g>
</g>
<g>
</g>
<g>
</g>
</svg>
