<?xml version="1.0" encoding="iso-8859-1"?>
<!-- Generator: Adobe Illustrator 19.0.0, SVG Export Plug-In . SVG Version: 6.00 Build 0)  -->
<svg version="1.1" id="Layer_1" xmlns="http://www.w3.org/2000/svg" xmlns:xlink="http://www.w3.org/1999/xlink" x="0px" y="0px"
	 viewBox="0 0 508.948 508.948" style="enable-background:new 0 0 508.948 508.948;" xml:space="preserve">
<circle style="fill:#84DBFF;" cx="254.474" cy="254.644" r="217.007"/>
<g>
	<path style="fill:#2B3B4E;" d="M335.174,222.093c-4.069-61.033-19.327-95.279-19.327-95.279s-7.799,32.89-11.528,68.493
		l8.138,26.109l-10.172,6.781l-2.034,1.356v34.246c1.695-1.017,3.391-2.034,5.086-3.052c9.833-6.442,17.293-12.885,22.04-18.31
		C332.8,237.012,335.513,229.552,335.174,222.093z"/>
	<path style="fill:#2B3B4E;" d="M210.395,230.909l-3.73-2.713l-10.172-6.781l8.138-26.109c-3.73-35.603-11.528-68.493-11.528-68.493
		s-15.258,34.246-19.327,95.279c-0.339,7.46,2.374,14.919,7.46,20.344c5.086,5.086,12.546,11.868,22.04,18.31
		c2.034,1.356,4.408,2.713,6.781,4.069v-33.907H210.395z"/>
</g>
<path style="fill:#FFD05B;" d="M271.428,99.687v15.936l-16.615,5.425l0,0l0,0l-17.632-5.425v-14.241
	c1.356-2.374,2.374-4.747,3.052-7.121c2.374-7.799,1.695-14.58,1.695-14.58l12.885-0.678l0,0l0,0l0,0l0,0l12.885,0.678
	c0,0-0.678,6.442,1.695,13.902C269.393,95.619,270.411,97.653,271.428,99.687z"/>
<path style="fill:#324A5E;" d="M308.726,273.293c0-0.339,0-0.339,0-0.678c-1.017-8.477-2.034-7.799-2.034-7.799
	c-13.563-41.706,9.494-138.003,9.494-138.003c-6.442-13.902-45.097-28.821-45.097-28.821l1.356,13.902
	c0,1.356-0.339,2.713-0.339,4.069H237.86c0-1.356-0.339-2.713-0.339-4.069l1.356-13.902c0,0-38.993,15.258-45.097,28.821
	c0,0,22.718,95.958,9.494,138.003c0,0-1.017-0.339-2.034,7.799c0,0.339,0,0.339,0,0.678l0,0l-2.713,37.976l5.425,182.76h30.177
	l20.005-149.87l20.005,149.87h30.177l6.103-182.76L308.726,273.293L308.726,273.293z"/>
<polygon style="fill:#E6E9EE;" points="254.474,170.893 269.393,118.676 254.474,115.963 239.894,119.693 "/>
<g>
	<path style="fill:#FFD05B;" d="M254.474,121.049L254.474,121.049L254.474,121.049z"/>
	<path style="fill:#FFD05B;" d="M254.474,121.049L254.474,121.049L254.474,121.049z"/>
	<path style="fill:#FFD05B;" d="M254.474,121.049L254.474,121.049L254.474,121.049z"/>
	<path style="fill:#FFD05B;" d="M254.474,121.049L254.474,121.049L254.474,121.049z"/>
</g>
<path style="fill:#F9B54C;" d="M269.054,93.584l-1.017,1.356c-2.374,2.713-5.764,4.747-9.155,5.086l-2.713,0.339
	c-1.356,0.339-2.713,0.339-4.069,0l-2.374-0.339c-3.73-0.339-6.781-2.374-9.155-5.086l-0.678-0.678
	c2.373-7.799,1.695-14.58,1.695-14.58l12.885-0.678l0,0l0,0l0,0l0,0l12.885,0.678C267.359,79.343,266.681,85.785,269.054,93.584z"/>
<g>
	<path style="fill:#2B3B4E;" d="M300.927,493.69h-27.804v11.528c0,2.034,1.695,3.73,3.73,3.73h37.637v-1.695
		C314.151,499.793,308.387,493.69,300.927,493.69z"/>
	<path style="fill:#2B3B4E;" d="M208.021,493.69h27.804v11.528c0,2.034-1.695,3.73-3.73,3.73h-37.298v-1.695
		C194.797,499.793,200.562,493.69,208.021,493.69z"/>
	<path style="fill:#2B3B4E;" d="M309.404,285.499l-0.678-12.207l0,0c0-0.339,0-0.339,0-0.678c0-0.339,0-0.678,0-1.017H200.562
		c0,0.339,0,0.678,0,1.017c0,0.339,0,0.339,0,0.678l0,0l-0.678,12.207H309.404z"/>
</g>
<g>
	<rect x="284.991" y="265.494" style="fill:#324A5E;" width="6.442" height="26.787"/>
	<rect x="217.176" y="265.494" style="fill:#324A5E;" width="6.442" height="26.787"/>
</g>
<path style="fill:#E6E9EE;" d="M263.968,290.246h-16.276c-3.73,0-6.442-3.052-6.442-6.442v-10.172c0-3.73,3.052-6.442,6.442-6.442
	h16.276c3.73,0,6.442,3.052,6.442,6.442v10.172C270.411,287.195,267.698,290.246,263.968,290.246z M248.032,271.936
	c-1.017,0-1.695,0.678-1.695,1.695v10.172c0,1.017,0.678,1.695,1.695,1.695h16.275c1.017,0,1.695-0.678,1.695-1.695v-10.172
	c0-1.017-0.678-1.695-1.695-1.695H248.032z"/>
<path style="fill:#324A5E;" d="M227.348,58.66c6.442,2.713,16.276,4.408,27.465,4.408c10.85,0,20.683-1.695,27.465-4.408H227.348z"
	/>
<path style="fill:#2B3B4E;" d="M286.347,48.487H222.94c-1.356,0.678-2.713,1.356-4.069,2.034l0,0
	c0,6.781,15.936,12.546,35.603,12.546s35.603-5.425,35.603-12.546l0,0C288.721,49.844,287.703,49.166,286.347,48.487z"/>
<g>
	<path style="fill:#FFD05B;" d="M230.739,47.131l3.052,31.873c0.339,2.713,1.356,5.764,3.391,7.799l3.391,4.069
		c2.374,2.713,5.764,4.747,9.155,5.086l2.374,0.339c1.356,0.339,2.713,0.339,4.069,0l2.373-0.339
		c3.73-0.339,6.781-2.374,9.155-5.086l3.391-4.069c1.695-2.374,3.052-5.086,3.391-7.799l3.052-31.873
		C277.531,47.131,230.739,47.131,230.739,47.131z"/>
	
		<ellipse transform="matrix(0.3585 -0.9335 0.9335 0.3585 121.2211 297.6708)" style="fill:#FFD05B;" cx="277.203" cy="60.632" rx="6.103" ry="4.069"/>
	
		<ellipse transform="matrix(0.3585 0.9335 -0.9335 0.3585 204.9867 -176.5854)" style="fill:#FFD05B;" cx="230.981" cy="60.86" rx="6.103" ry="4.069"/>
</g>
<g>
	<path style="fill:#FFFFFF;" d="M270.75,97.992c0,0,7.121,7.121-1.695,28.143c0,0-9.833-11.528-16.276-9.494
		C252.779,116.641,267.359,112.233,270.75,97.992z"/>
	<path style="fill:#FFFFFF;" d="M238.538,97.992c0,0-7.121,7.121,1.695,28.143c0,0,9.833-11.528,16.276-9.494
		C256.509,116.641,241.928,112.233,238.538,97.992z"/>
</g>
<g>
	<polygon style="fill:#2B3B4E;" points="270.411,97.992 254.474,170.893 284.991,134.612 271.089,126.135 286.686,105.113 	"/>
	<polygon style="fill:#2B3B4E;" points="238.538,97.992 254.474,170.893 223.958,134.612 237.86,126.135 222.262,105.113 	"/>
	<circle style="fill:#2B3B4E;" cx="271.089" cy="183.099" r="4.408"/>
	<circle style="fill:#2B3B4E;" cx="267.02" cy="203.105" r="4.408"/>
	<circle style="fill:#2B3B4E;" cx="237.86" cy="183.099" r="4.408"/>
	<circle style="fill:#2B3B4E;" cx="241.928" cy="203.105" r="4.408"/>
</g>
<path style="fill:#324A5E;" d="M290.077,50.183c0-0.339-0.339-0.678-0.678-1.017c-0.678-0.678-1.695-1.695-3.73-2.713
	c-1.017-0.339-2.034-0.678-3.052-1.017c-0.339,0-0.678,0-1.017,0c-2.713-2.713-4.408-6.442-4.747-10.85
	c-0.339-6.442-1.017-12.885-1.356-19.666c0-0.678,0-1.356-0.339-2.034C274.14,5.425,267.02,0,259.56,0h-11.189
	c-8.138,0-14.919,6.103-15.597,13.902l0,0c-0.339,6.781-1.017,13.563-1.356,20.344c-0.339,4.408-2.034,8.138-4.747,10.85
	c-0.339,0-0.678,0-1.017,0c-1.017,0.339-2.034,0.678-3.052,1.017c-1.695,0.678-3.052,1.695-3.73,2.713
	c-0.339,0.339-0.339,0.678-0.678,1.017c0,0.339,0,0.339,0,0.339s25.77,5.764,35.603,5.764c10.172,0,35.603-5.764,35.603-5.764
	S290.416,50.522,290.077,50.183z"/>
<ellipse style="fill:#2B3B4E;" cx="254.474" cy="22.379" rx="7.799" ry="10.511"/>
<g>
</g>
<g>
</g>
<g>
</g>
<g>
</g>
<g>
</g>
<g>
</g>
<g>
</g>
<g>
</g>
<g>
</g>
<g>
</g>
<g>
</g>
<g>
</g>
<g>
</g>
<g>
</g>
<g>
</g>
</svg>
