<?xml version="1.0" encoding="iso-8859-1"?>
<!-- Generator: Adobe Illustrator 19.0.0, SVG Export Plug-In . SVG Version: 6.00 Build 0)  -->
<svg version="1.1" id="Layer_1" xmlns="http://www.w3.org/2000/svg" xmlns:xlink="http://www.w3.org/1999/xlink" x="0px" y="0px"
	 viewBox="0 0 508.525 508.525" style="enable-background:new 0 0 508.525 508.525;" xml:space="preserve">
<circle style="fill:#90DFAA;" cx="254.262" cy="254.22" r="217.007"/>
<g>
	<path style="fill:#2B3B4E;" d="M335.64,219.295c-4.069-61.372-19.327-95.958-19.327-95.958s-7.799,33.229-11.868,68.832
		l8.138,26.448l-16.615,11.189v33.907c3.391-1.695,6.442-3.73,9.494-5.425c9.833-6.442,17.293-13.224,22.379-18.31
		C333.266,234.554,335.979,227.094,335.64,219.295z"/>
	<path style="fill:#2B3B4E;" d="M211.878,229.468l-15.936-10.85l8.138-26.448c-3.73-35.942-11.868-68.832-11.868-68.832
		s-15.258,34.585-19.327,95.958c-0.339,7.799,2.374,15.258,7.46,20.683c5.086,5.086,12.546,11.868,22.379,18.31
		c2.713,1.695,5.764,3.73,8.816,5.425v-34.246H211.878z"/>
</g>
<g>
	<path style="fill:#FFD05B;" d="M254.262,117.574L254.262,117.574L254.262,117.574z"/>
	<path style="fill:#FFD05B;" d="M267.147,75.528l-12.885-0.678l0,0l0,0l0,0l0,0l-12.885,0.678c0,0,1.017,11.528-4.747,22.04v14.241
		l17.632,5.764l0,0l0,0l16.954-5.425V96.212C266.469,86.04,267.147,75.528,267.147,75.528z"/>
	<path style="fill:#FFD05B;" d="M254.262,117.574L254.262,117.574L254.262,117.574z"/>
	<path style="fill:#FFD05B;" d="M254.262,117.574L254.262,117.574L254.262,117.574z"/>
	<path style="fill:#FFD05B;" d="M271.216,96.212v16.275l-16.954,5.425l0,0l0,0l-17.632-5.764V97.907
		c1.356-2.374,2.373-4.747,3.052-7.121c2.374-7.799,1.695-14.58,1.695-14.58l12.885-0.678l0,0l0,0l0,0l0,0l12.885,0.678
		c0,0-0.678,6.442,1.695,14.241C269.521,91.804,270.199,93.838,271.216,96.212z"/>
	<path style="fill:#FFD05B;" d="M254.262,117.574L254.262,117.574L254.262,117.574z"/>
</g>
<path style="fill:#F9B54C;" d="M268.842,89.77l-1.017,1.356c-2.374,2.713-5.764,4.747-9.494,5.086l-2.374,0.339
	c-1.356,0.339-2.713,0.339-4.069,0l-2.373-0.339c-3.73-0.678-7.121-2.374-9.494-5.086l-0.678-0.678
	c2.374-7.799,1.695-14.58,1.695-14.58l12.885-0.678l0,0l0,0l0,0l0,0l12.885,0.678C267.147,75.528,266.808,82.31,268.842,89.77z"/>
<g>
	<path style="fill:#FFD05B;" d="M253.923,34.162H229.51l4.069,41.028c0.339,3.052,1.356,5.764,3.391,7.799l3.391,4.069
		c2.373,2.713,5.764,4.747,9.494,5.086l2.373,0.339c1.356,0.339,2.713,0.339,4.069,0l2.374-0.339
		c3.73-0.678,7.121-2.374,9.494-5.086l3.391-4.069c1.695-2.374,3.052-5.086,3.391-7.799l4.069-41.028H253.923z"/>
	
		<ellipse transform="matrix(0.3585 -0.9335 0.9335 0.3585 124.7673 295.3335)" style="fill:#FFD05B;" cx="277.275" cy="56.883" rx="6.103" ry="4.069"/>
	
		<ellipse transform="matrix(0.3585 0.9335 -0.9335 0.3585 200.8951 -178.9747)" style="fill:#FFD05B;" cx="230.674" cy="56.689" rx="6.103" ry="4.069"/>
</g>
<g>
	<path style="fill:#324A5E;" d="M233.579,45.69h-6.442c2.034,8.138,5.425,16.954,5.425,16.954
		C231.205,55.862,232.223,50.098,233.579,45.69z"/>
	<path style="fill:#324A5E;" d="M273.25,45.69c1.695,5.764,2.034,13.902,2.034,13.902c1.017-6.781,4.069-7.121,4.069-7.121
		c0.678-2.374,1.017-4.747,1.356-6.781H273.25z"/>
</g>
<g>
	<path style="fill:#2B3B4E;" d="M301.054,493.266h-28.143v11.528c0,2.034,1.695,3.73,3.73,3.73h37.637v-1.695
		C314.617,499.37,308.514,493.266,301.054,493.266z"/>
	<path style="fill:#2B3B4E;" d="M207.47,493.266h28.143v11.528c0,2.034-1.695,3.73-3.73,3.73h-37.976v-1.695
		C193.907,499.37,200.011,493.266,207.47,493.266z"/>
</g>
<path style="fill:#324A5E;" d="M308.853,271.174c0-0.339,0-0.339,0-0.678c-1.017-8.477-2.034-8.138-2.034-8.138
	c-13.563-42.045,9.494-139.02,9.494-139.02c-6.442-13.902-45.436-29.16-45.436-29.16s1.017,16.615,1.017,17.971h-34.585
	c0-1.356,1.017-17.971,1.017-17.971s-39.332,15.258-45.436,29.16c0,0,23.057,96.975,9.494,139.02c0,0-1.017-0.339-2.034,8.138
	c0,0.339,0,0.339,0,0.678l0,0l-1.695,37.976l5.425,184.117h30.517l20.344-150.887l20.344,150.887h30.517l5.425-184.117
	L308.853,271.174L308.853,271.174z"/>
<g>
	<path style="fill:#2B3B4E;" d="M309.531,283.38l-0.678-12.207l0,0c0-0.339,0-0.339,0-0.678c0-0.339,0-0.678,0-1.017H200.011
		c0,0.339,0,0.678,0,1.017s0,0.339,0,0.678l0,0l-0.678,12.207H309.531z"/>
	<path style="fill:#2B3B4E;" d="M270.538,94.177c0,0,7.121,7.121-1.695,28.143c0,0-10.172-11.528-16.615-9.494
		C252.228,113.166,267.147,108.758,270.538,94.177z"/>
	<path style="fill:#2B3B4E;" d="M237.648,94.177c0,0-7.121,7.121,1.695,28.143c0,0,10.172-11.528,16.615-9.494
		C255.958,113.166,241.377,108.758,237.648,94.177z"/>
</g>
<g>
	<rect x="285.118" y="263.036" style="fill:#324A5E;" width="6.781" height="26.787"/>
	<rect x="216.625" y="263.036" style="fill:#324A5E;" width="6.781" height="26.787"/>
</g>
<g>
	<path style="fill:#FFD05B;" d="M263.756,288.127h-16.275c-3.73,0-6.442-3.052-6.442-6.442v-10.172c0-3.73,3.052-6.442,6.442-6.442
		h16.275c3.73,0,6.442,3.052,6.442,6.442v10.172C270.538,285.076,267.486,288.127,263.756,288.127z M247.481,269.817
		c-1.017,0-1.695,0.678-1.695,1.695v10.172c0,1.017,0.678,1.695,1.695,1.695h16.275c1.017,0,1.695-0.678,1.695-1.695v-10.172
		c0-1.017-0.678-1.695-1.695-1.695H247.481z"/>
	<path style="fill:#FFD05B;" d="M295.629,152.837c0.339-1.356,0-2.374-0.339-3.73c-3.73-8.477,0.678-10.172,0.678-10.172
		l-3.391-5.086c-4.069,3.391-7.799-0.339-7.799-0.339s-4.069,3.73-8.138,0.339l-3.391,5.086c0,0,4.408,1.695,0.678,10.172
		c-0.678,1.017-0.678,2.374-0.339,3.73c0.339,2.374,2.034,5.086,8.816,5.764c0.678,0,1.356,0.339,1.695,0.678l0.339,0.339
		l0.339-0.339c0.339-0.339,1.017-0.678,1.695-0.678C293.256,157.923,294.951,155.211,295.629,152.837z"/>
</g>
<circle style="fill:#F9B54C;" cx="284.44" cy="146.395" r="5.086"/>
<polygon style="fill:#FFD05B;" points="284.44,142.665 285.457,145.038 287.83,145.377 286.135,147.073 286.474,149.446 
	284.44,148.429 282.405,149.446 282.744,147.073 281.049,145.377 283.423,145.038 "/>
<g>
	<path style="fill:#2B3B4E;" d="M279.693,7.714l-23.396-7.46c-1.356-0.339-3.052-0.339-4.408,0l-23.396,7.46
		c-1.695,0.678-3.391,1.695-4.069,3.391l-9.155,15.936c-1.017,1.695-1.356,4.069-0.678,6.103
		c1.695,5.086,6.442,14.241,16.275,13.902h23.057h23.057c9.833,0.339,14.241-8.816,16.276-13.902
		c0.678-2.034,0.678-4.069-0.678-6.103l-8.816-15.936C282.744,9.409,281.388,8.392,279.693,7.714z"/>
	<path style="fill:#2B3B4E;" d="M227.136,46.368c0.339,2.374,3.73,4.408,8.477,6.442s11.189,4.069,18.31,4.069
		c7.121,0,13.563-2.034,18.31-4.069c4.747-2.034,7.799-4.069,8.477-6.442C263.756,38.23,244.09,38.23,227.136,46.368z"/>
</g>
<path style="fill:#324A5E;" d="M280.71,46.707c-6.781-3.73-16.275-5.764-26.787-5.764s-20.005,2.374-26.787,5.764
	c0-10.172,12.207-18.31,26.787-18.31C268.842,28.397,280.71,36.535,280.71,46.707z"/>
<path style="fill:#FFD05B;" d="M261.383,20.26c0-0.678,0-1.695-0.339-2.374c-2.374-5.086,0.339-6.442,0.339-6.442l-2.034-3.052
	c-2.713,2.034-4.747-0.339-4.747-0.339s-2.374,2.374-5.086,0.339l-2.034,3.391c0,0,2.713,1.017,0.339,6.442
	c-0.339,0.678-0.339,1.356-0.339,2.374c0.339,1.356,1.356,3.052,5.425,3.73c0.339,0,0.678,0,1.017,0.339c0,0,0.339,0,0.339,0.339
	c0,0,0,0,0.339-0.339s0.678-0.339,1.017-0.339C260.026,23.311,261.044,21.616,261.383,20.26z"/>
<circle style="fill:#F9B54C;" cx="254.262" cy="16.191" r="3.391"/>
<polygon style="fill:#FFD05B;" points="254.262,13.817 254.94,15.174 256.636,15.513 255.279,16.53 255.619,17.886 254.262,17.208 
	252.906,17.886 253.245,16.53 252.228,15.513 253.584,15.174 "/>
<g>
</g>
<g>
</g>
<g>
</g>
<g>
</g>
<g>
</g>
<g>
</g>
<g>
</g>
<g>
</g>
<g>
</g>
<g>
</g>
<g>
</g>
<g>
</g>
<g>
</g>
<g>
</g>
<g>
</g>
</svg>
