<?xml version="1.0" encoding="iso-8859-1"?>
<!-- Generator: Adobe Illustrator 19.0.0, SVG Export Plug-In . SVG Version: 6.00 Build 0)  -->
<svg version="1.1" id="Layer_1" xmlns="http://www.w3.org/2000/svg" xmlns:xlink="http://www.w3.org/1999/xlink" x="0px" y="0px"
	 viewBox="0 0 508.609 508.609" style="enable-background:new 0 0 508.609 508.609;" xml:space="preserve">
<circle style="fill:#324A5E;" cx="254.305" cy="254.305" r="217.007"/>
<rect x="227.518" y="61.372" style="fill:#F1543F;" width="53.574" height="54.591"/>
<g>
	<path style="fill:#FFD05B;" d="M331.274,248.54c0,0,11.528,12.207,1.695,37.298c-0.678,1.695-3.052,2.034-4.069,1.017l0,0
		c-0.678-0.678-1.017-1.695-0.678-2.713c1.356-3.73,5.425-13.902,0.678-14.919c-2.374-0.678-4.408,1.695-4.069,4.069l0.339,2.034
		c-0.339,2.034-2.713,2.713-4.069,1.356l0,0c-0.678-0.339-1.017-1.017-1.017-2.034C319.407,270.241,320.085,255.322,331.274,248.54z
		"/>
	<path style="fill:#FFD05B;" d="M178.013,248.54c0,0-11.528,12.207-1.695,37.298c0.678,1.695,3.052,2.034,4.069,1.017l0,0
		c0.678-0.678,1.017-1.695,0.678-2.713c-1.356-3.73-5.425-13.902-0.678-14.919c2.374-0.678,4.408,1.695,4.069,4.069l-0.339,2.034
		c0.339,2.034,2.713,2.713,4.069,1.356l0,0c0.678-0.339,1.017-1.017,1.017-2.034C189.542,270.241,188.864,255.322,178.013,248.54z"
		/>
	<path style="fill:#FFD05B;" d="M268.885,96.975L268.885,96.975c0,0.678,0,1.017-0.339,1.356c-1.017,5.425-7.121,9.494-14.58,9.494
		c-7.46,0-13.563-4.069-14.58-9.494c0-0.339-0.339-1.017-0.339-1.356l0,0c0.678-0.339,2.374-2.713,3.052-4.408
		c4.069-9.833,5.086-20.683,5.086-20.683h12.207c0,0,1.017,10.85,5.086,20.683C266.172,94.262,267.528,95.619,268.885,96.975
		L268.885,96.975z"/>
	<path style="fill:#FFD05B;" d="M268.885,96.975L268.885,96.975c0,0.678,0,1.017-0.339,1.356c-1.017,5.425-7.121,9.494-14.58,9.494
		c-7.46,0-13.563-4.069-14.58-9.494c0-0.339-0.339-1.017-0.339-1.356l0,0c0.678-0.339,2.374-2.713,3.052-4.408
		c0.339-0.339,0.339-0.678,0.339-1.356c3.73-9.494,4.747-19.327,4.747-19.327h12.207c0,0,1.017,9.833,4.747,19.327
		c0,0.339,0.339,0.678,0.339,1.356C266.172,94.262,267.528,95.619,268.885,96.975L268.885,96.975z"/>
</g>
<path style="fill:#E6E9EE;" d="M189.881,265.155c0,0,1.695-69.51,16.954-97.653h95.279c15.258,28.482,16.954,97.992,16.954,97.992
	h20.005c3.391-42.723-12.207-117.997-12.207-117.997c-6.442-34.924-27.804-44.419-42.723-46.453
	c-4.408-0.678-8.816-1.695-13.224-3.052l-2.034-0.678c0,0.339,0,1.017-0.339,1.356c-1.017,5.425-7.121,9.494-14.58,9.494
	c-7.46,0-13.563-4.069-14.58-9.494c0-0.339-0.339-1.017-0.339-1.356l-2.034,0.678c-4.408,1.695-8.816,2.713-13.224,3.052
	c-14.241,2.034-35.603,11.528-41.706,46.453c0,0-15.597,74.935-12.207,117.658H189.881z"/>
<path style="fill:#FF7058;" d="M284.821,490.978c0,7.46-3.73,17.632-8.138,17.632s-8.138-10.172-8.138-17.632
	c0-7.46,3.73-9.494,8.138-9.494S284.821,483.518,284.821,490.978z"/>
<path style="fill:#FFD05B;" d="M259.73,364.503c-1.017,16.615-0.678,34.925,2.713,53.913c6.442,38.315,9.494,72.223,9.494,72.223
	c0,6.442,2.374,9.833,4.747,10.172c2.374-0.678,4.408-7.46,4.747-10.172c0,0,3.052-33.568,9.494-72.223
	c3.052-18.988,3.73-37.298,2.713-53.913H259.73L259.73,364.503z"/>
<path style="fill:#FF7058;" d="M223.788,490.978c0,7.46,3.73,17.632,8.138,17.632s8.138-10.172,8.138-17.632
	c0-7.46-3.73-9.494-8.138-9.494S223.788,483.518,223.788,490.978z"/>
<g>
	<path style="fill:#FFD05B;" d="M214.972,364.503c-1.017,16.615-0.678,34.925,2.713,53.913c6.442,38.315,9.494,72.223,9.494,72.223
		c0.339,2.713,2.374,9.833,4.747,10.172c2.374-0.678,4.747-3.73,4.747-10.172c0,0,3.052-33.568,9.494-72.223
		c3.052-18.988,3.73-37.298,2.713-53.913H214.972L214.972,364.503z"/>
	
		<ellipse transform="matrix(0.4578 -0.8891 0.8891 0.4578 99.2201 283.9626)" style="fill:#FFD05B;" cx="282.414" cy="60.637" rx="6.104" ry="3.052"/>
	
		<ellipse transform="matrix(0.4578 0.8891 -0.8891 0.4578 176.5925 -168.5382)" style="fill:#FFD05B;" cx="226.471" cy="60.509" rx="6.104" ry="3.052"/>
</g>
<path style="fill:#F9B54C;" d="M265.155,91.211c-3.391,2.374-7.121,3.73-10.85,3.73c-3.73,0-7.46-1.356-10.85-3.73
	c3.73-9.494,4.747-19.327,4.747-19.327h12.207C260.408,71.883,261.425,81.717,265.155,91.211z"/>
<path style="fill:#FFD05B;" d="M283.126,47.131c0,20.683-12.885,44.419-28.821,44.419s-28.821-23.396-28.821-44.419
	c0-20.683,12.885-31.195,28.821-31.195S283.126,26.448,283.126,47.131z"/>
<path style="fill:#54C0EB;" d="M305.166,365.86c5.086-16.615,8.138-41.367,8.138-61.711c0-18.649-2.374-35.942-6.781-51.2
	c-8.138-27.804-9.833-57.303-4.408-85.785l0,0c-8.477-14.919-6.103-63.068-6.103-63.068c-3.73-1.356-7.46-2.374-10.85-3.052
	l-2.034,47.131h-58.66l-1.695-47.131c-3.391,0.678-7.121,1.356-10.85,3.052c0,0,2.374,48.148-6.103,63.068l0,0
	c5.086,28.482,3.391,57.642-4.408,85.785c-4.408,15.258-6.781,32.551-6.781,51.2c0,20.344,3.052,45.097,8.138,61.711H305.166
	L305.166,365.86z"/>
<path style="fill:#FF7058;" d="M289.229,42.723c-0.678-4.408-1.695-8.816-3.391-13.224c-9.494-22.718-28.143-22.379-31.534-22.04
	c-3.391-0.339-22.04-0.339-31.534,22.04c-1.695,4.069-2.713,8.477-3.391,13.224c-1.017,7.799-4.069,23.735-14.241,25.091
	c0,0,12.207,29.838,24.752,38.315c0,0,6.103-39.332,0-63.746c0,0,0.678,0.339,1.356,0.678c14.58,6.103,30.856,6.103,45.436,0
	c1.017-0.339,1.356-0.678,1.356-0.678c-6.103,24.413,0,63.746,0,63.746c12.546-8.138,24.752-38.315,24.752-38.315
	C293.298,66.458,290.246,50.861,289.229,42.723z"/>
<ellipse style="fill:#84DBFF;" cx="254.305" cy="15.258" rx="37.298" ry="15.258"/>
<path style="fill:#54C0EB;" d="M285.16,40.689c-20.344-3.052-41.367-3.052-62.05,0c-2.034,0.339-4.069-0.678-4.747-2.034
	c-2.713-7.799-5.425-15.258-8.138-23.057c-0.678-1.356,0.678-3.052,3.052-3.391c26.787-4.069,54.591-4.069,81.717,0
	c2.034,0.339,3.391,1.695,3.052,3.391c-2.713,7.799-5.425,15.258-8.138,23.057C289.568,40.011,287.534,41.028,285.16,40.689z"/>
<path style="fill:#FFFFFF;" d="M263.46,21.362h-7.799c-0.339-1.356-0.678-2.374-1.356-2.374c-0.678,0-1.017,1.017-1.356,2.374
	h-7.799c-0.678,0-1.356,0.678-1.356,1.356c0,0.678,0.678,1.356,1.356,1.356h1.356c-0.678,0-1.356,0.678-1.356,1.356
	s0.678,1.356,1.356,1.356h2.034c-0.339,0-1.017,0.339-1.017,1.017c0,0.339,0.339,1.017,1.017,1.017h4.408
	c0.339,1.356,0.678,2.374,1.356,2.374c0.678,0,1.017-1.017,1.356-2.374h4.408c0.339,0,1.017-0.339,1.017-1.017
	c0-0.339-0.339-1.017-1.017-1.017h2.034c0.678,0,1.356-0.678,1.356-1.356c0-0.678-0.678-1.356-1.356-1.356h1.356
	c0.678,0,1.356-0.678,1.356-1.356C265.155,22.04,264.477,21.362,263.46,21.362z"/>
<g>
</g>
<g>
</g>
<g>
</g>
<g>
</g>
<g>
</g>
<g>
</g>
<g>
</g>
<g>
</g>
<g>
</g>
<g>
</g>
<g>
</g>
<g>
</g>
<g>
</g>
<g>
</g>
<g>
</g>
</svg>
