<?xml version="1.0" encoding="iso-8859-1"?>
<!-- Generator: Adobe Illustrator 19.0.0, SVG Export Plug-In . SVG Version: 6.00 Build 0)  -->
<svg version="1.1" id="Layer_1" xmlns="http://www.w3.org/2000/svg" xmlns:xlink="http://www.w3.org/1999/xlink" x="0px" y="0px"
	 viewBox="0 0 508.51 508.51" style="enable-background:new 0 0 508.51 508.51;" xml:space="preserve">
<circle style="fill:#FD8469;" cx="254.255" cy="254.305" r="217.007"/>
<g>
	<path style="fill:#324A5E;" d="M284.432,475.041c0,0,4.408,14.919,14.241,22.718c2.034,1.695,2.713,4.747,1.017,7.121
		c-2.374,3.391-8.816,6.103-26.109,0c-1.356-0.678-2.713-1.695-3.391-3.052c-0.678-1.356-2.374-3.052-5.764-4.069
		c-2.034-0.678-3.391-2.374-3.73-4.408l-1.695-15.597L284.432,475.041z"/>
	<path style="fill:#324A5E;" d="M224.077,475.041c0,0-4.408,14.919-14.241,22.718c-2.034,1.695-2.713,4.747-1.017,7.121
		c2.374,3.391,8.816,6.103,26.109,0c1.356-0.678,2.713-1.695,3.391-3.052c0.678-1.356,2.373-3.052,5.764-4.069
		c2.034-0.678,3.391-2.374,3.73-4.408l1.695-15.597L224.077,475.041z"/>
</g>
<g>
	<path style="fill:#FFD05B;" d="M278.329,87.82c-6.103-27.465-16.615-50.183-24.074-50.183s-17.971,22.379-24.074,50.183H278.329z"
		/>
	<path style="fill:#FFD05B;" d="M278.329,87.82h-48.148c1.356-5.425,2.713-10.85,4.069-15.936
		c6.103-20.005,14.241-34.246,20.005-34.246c5.764,0,13.902,14.241,20.005,34.246C275.616,76.63,276.973,82.056,278.329,87.82z"/>
</g>
<path style="fill:#2B3B4E;" d="M318.001,486.23H190.509c-2.034-19.666,5.425-151.905,5.425-151.905
	c-5.086-65.78,13.902-108.503,13.902-108.503l1.356-23.057c-6.781-8.816-4.747-28.482-4.747-28.482l24.413-83.751h47.131
	l24.413,83.751c0,0,2.034,19.666-4.747,28.482l1.356,23.057c0,0,18.988,42.723,13.902,108.503
	C312.575,334.326,320.035,466.564,318.001,486.23z"/>
<g>
	<path style="fill:#FFD05B;" d="M309.185,274.649c-3.73,2.713-5.086,18.31-5.086,18.31c0,0.339,0,0.339,0,0.678
		c-0.339,0-0.339,0-0.678,0c-0.678,0-1.356,0-1.695,0c-1.356-0.339-2.373,1.017-2.034,2.034c1.695,4.408,8.138,5.764,8.138,5.764
		l0.678,1.017c1.017,1.356,2.713,1.695,4.069,0.678l0,0c1.017,1.017,2.713,1.356,3.73,0.678l1.695-1.017l1.356,0.678
		c1.356,0.678,3.052,0.339,3.73-1.017l4.069-6.103c0.678-0.678,0.678-1.695,0.678-2.713v-13.224
		C326.816,274.649,309.185,274.649,309.185,274.649z M310.541,291.942c0-4.747,3.391-8.816,3.391-8.816
		C313.932,288.212,312.236,290.924,310.541,291.942z"/>
	<path style="fill:#FFD05B;" d="M179.998,280.413v13.224c0,1.017,0.339,2.034,0.678,2.713l4.069,6.103
		c0.678,1.356,2.374,1.695,3.73,1.017l1.356-0.678l1.695,1.017c1.356,0.678,3.052,0.678,3.73-0.678l0,0
		c1.356,1.017,3.052,0.678,4.069-0.678l0.678-1.017c0,0,6.442-1.356,8.138-5.764c0.339-1.356-0.678-2.374-2.034-2.034
		c-0.339,0-1.017,0.339-1.695,0c-0.339,0-0.339,0-0.678,0c0-0.339,0-0.339,0-0.678c0,0-1.356-15.258-5.086-18.31
		C199.325,274.649,181.693,274.649,179.998,280.413z M194.578,283.126c0,0,3.391,4.069,3.391,8.816
		C196.273,290.924,194.578,288.212,194.578,283.126z"/>
</g>
<path style="fill:#2B3B4E;" d="M330.207,171.91c0,0,10.172,78.326,2.374,112.911l-31.873-8.816c0,0,11.189-83.073,2.374-104.095
	H330.207z"/>
<path style="fill:#324A5E;" d="M281.381,87.142l38.315,16.954c3.73,1.695,6.103,5.086,6.781,8.816l8.816,63.068
	c0,0-7.799-3.73-19.327,0c-11.528,3.73-34.246,2.713-42.045-1.356c0,0-12.546,0.339-14.58-2.034l13.224-83.412L281.381,87.142z"/>
<path style="fill:#2B3B4E;" d="M178.303,171.91c0,0-10.172,78.326-2.374,112.911l31.873-8.816c0,0-11.189-83.073-2.374-104.095
	H178.303z"/>
<path style="fill:#324A5E;" d="M227.129,87.142l-38.315,16.954c-3.73,1.695-6.103,5.086-6.781,8.816l-8.816,63.068
	c0,0,7.799-3.73,19.327,0c11.528,3.73,34.246,2.713,42.045-1.356c0,0,12.546,0.339,14.58-2.034l-13.224-83.412L227.129,87.142z"/>
<path style="fill:#FFFFFF;" d="M281.381,87.142c0,0-6.103,10.85-27.126,9.155c-21.362,1.695-27.126-9.155-27.126-9.155
	c4.747-3.73,5.425-9.155,5.425-9.155c3.73,9.155,21.701,8.816,21.701,8.816s17.971,0.339,21.701-8.816
	C275.956,78.326,276.634,83.412,281.381,87.142z"/>
<g>
	<polygon style="fill:#E6E9EE;" points="262.393,121.049 257.307,121.049 257.307,114.946 251.203,114.946 251.203,121.049 
		246.117,121.049 246.117,127.152 251.203,127.152 251.203,146.14 257.307,146.14 257.307,127.152 262.393,127.152 	"/>
	<polygon style="fill:#E6E9EE;" points="281.72,351.958 269.174,227.857 239.336,227.857 226.79,351.958 	"/>
</g>
<path style="fill:#FFFFFF;" d="M211.193,202.766c0,0,37.298,7.799,86.125,0l1.356,23.057c0,0-51.2,11.189-88.837,0L211.193,202.766z
	"/>
<path style="fill:#F9B54C;" d="M274.26,71.883c-5.764,8.138-12.546,12.546-20.005,12.546c-7.46,0-14.241-4.408-20.005-12.546
	c6.103-20.005,14.241-34.246,20.005-34.246C260.019,37.637,268.157,51.878,274.26,71.883z"/>
<g>
	<path style="fill:#FFD05B;" d="M281.381,38.993c0,20.005-12.207,42.045-27.126,42.045c-14.919,0-27.126-22.04-27.126-42.045
		s12.207-30.517,27.126-30.517C269.174,8.816,281.381,18.988,281.381,38.993z"/>
	
		<ellipse transform="matrix(0.4804 -0.8771 0.8771 0.4804 102.5698 270.7247)" style="fill:#FFD05B;" cx="279.761" cy="48.799" rx="7.121" ry="4.069"/>
	
		<ellipse transform="matrix(0.4804 0.8771 -0.8771 0.4804 161.8401 -175.0099)" style="fill:#FFD05B;" cx="228.618" cy="49.079" rx="7.121" ry="4.069"/>
</g>
<path style="fill:#324A5E;" d="M286.467,22.379C279.685,0.678,258.324,0,254.255,0c-3.73,0-25.091,0.678-32.212,22.379
	c0,0-1.695,13.563,6.442,25.091c0,0,2.374,8.138,0.339,10.172c0,0,2.374-1.356,1.356-9.494c0-5.425,2.034-19.327,2.034-19.327
	c-0.678-5.086,2.713-9.833,7.799-11.189c4.747-1.017,23.735-1.017,28.143,0c5.425,1.356,8.816,6.103,8.138,11.189
	c0,0,2.374,13.902,1.695,19.327c-1.017,8.138,1.356,9.494,1.356,9.494c-1.695-2.034,0.339-10.172,0.339-10.172
	C288.162,35.942,286.467,22.379,286.467,22.379z"/>
<g>
</g>
<g>
</g>
<g>
</g>
<g>
</g>
<g>
</g>
<g>
</g>
<g>
</g>
<g>
</g>
<g>
</g>
<g>
</g>
<g>
</g>
<g>
</g>
<g>
</g>
<g>
</g>
<g>
</g>
</svg>
