<?xml version="1.0" encoding="iso-8859-1"?>
<!-- Generator: Adobe Illustrator 19.0.0, SVG Export Plug-In . SVG Version: 6.00 Build 0)  -->
<svg version="1.1" id="Layer_1" xmlns="http://www.w3.org/2000/svg" xmlns:xlink="http://www.w3.org/1999/xlink" x="0px" y="0px"
	 viewBox="0 0 508.609 508.609" style="enable-background:new 0 0 508.609 508.609;" xml:space="preserve">
<circle style="fill:#324A5E;" cx="254.305" cy="254.305" r="217.007"/>
<path id="SVGCleanerId_0" style="fill:#CED5E0;" d="M332.97,229.891l-9.833,5.425c0,0-11.868,3.73-14.58,2.713v-32.89
	c0,0,1.695-0.339,4.069-1.017c1.017-0.339,2.374-1.017,3.391-1.695c1.695-1.017,3.391-2.374,4.747-4.069
	c2.713-3.391,4.747-8.477,4.408-16.275c0-0.678,0-1.695-0.339-2.374c0-1.017-0.339-2.034-0.339-3.052
	c0-0.678-0.339-1.695-0.339-2.374c-0.678-2.374-1.356-5.086-2.374-7.799c-1.356-3.391-3.052-7.121-5.086-11.528
	c0,0,3.391-47.131,20.683-52.556c0,0,18.988,36.62,20.005,70.188c0,0,0.678,2.034,1.017,5.425c0,0.678,0,1.356,0.339,2.034
	C360.095,191.237,357.722,212.599,332.97,229.891z"/>
<g>
	<path id="SVGCleanerId_0_1_" style="fill:#CED5E0;" d="M332.97,229.891l-9.833,5.425c0,0-11.868,3.73-14.58,2.713v-32.89
		c0,0,1.695-0.339,4.069-1.017c1.017-0.339,2.374-1.017,3.391-1.695c1.695-1.017,3.391-2.374,4.747-4.069
		c2.713-3.391,4.747-8.477,4.408-16.275c0-0.678,0-1.695-0.339-2.374c0-1.017-0.339-2.034-0.339-3.052
		c0-0.678-0.339-1.695-0.339-2.374c-0.678-2.374-1.356-5.086-2.374-7.799c-1.356-3.391-3.052-7.121-5.086-11.528
		c0,0,3.391-47.131,20.683-52.556c0,0,18.988,36.62,20.005,70.188c0,0,0.678,2.034,1.017,5.425c0,0.678,0,1.356,0.339,2.034
		C360.095,191.237,357.722,212.599,332.97,229.891z"/>
</g>
<g>
	<path style="fill:#ACB3BA;" d="M322.119,234.638c2.034-10.172-8.816-30.177-9.494-30.517c1.017-0.339,2.374-1.017,3.391-1.695
		C318.05,205.139,324.154,234.299,322.119,234.638z"/>
	<path style="fill:#ACB3BA;" d="M321.78,166.485c4.069-7.799,5.086-17.293,4.747-26.109c0-1.356,0-2.374,0.339-3.73
		c0.678-1.017,2.034-2.034,3.052-1.356c0.339,0.339,0.678,0.678,1.017,1.017c1.356,1.356,8.138,9.155,8.816,12.207
		c1.356,4.747-12.546,20.344-14.919,24.413c-0.339,0.339-0.339,1.017-0.678,1.356C323.476,171.91,322.797,169.197,321.78,166.485z"
		/>
	<path style="fill:#ACB3BA;" d="M324.493,176.657c6.103-5.764,12.546-11.189,18.988-15.936
		c-2.713,3.391-16.954,17.632-18.649,18.988C324.832,178.691,324.832,177.674,324.493,176.657z"/>
	<path style="fill:#ACB3BA;" d="M359.078,180.387c-3.052-0.678-24.752,6.103-27.804,7.46c-1.017,0.339-2.034,1.695-1.017,2.374
		c0.339,0.339,7.46,0.339,9.833,1.695c-3.052,1.356-6.103,2.374-9.155,2.374c2.374,0.339,14.919,7.799,13.563,9.494
		c-4.069,0-19.327-6.781-23.396-5.425c2.713-3.391,4.747-8.477,4.408-16.275c6.442-4.747,13.224-8.816,21.023-8.138
		c3.73,0.339,12.207,4.069,12.546,4.408C359.078,178.691,359.078,179.709,359.078,180.387z"/>
</g>
<path style="fill:#84DBFF;" d="M254.644,303.131L254.644,303.131v-38.993h8.477v30.517
	C263.46,299.401,259.391,303.131,254.644,303.131z"/>
<path style="fill:#324A5E;" d="M312.286,490.978h-47.47v17.293c0,0.339,0,0.339,0.339,0.339h47.47v-17.293
	C312.625,491.317,312.625,490.978,312.286,490.978z"/>
<path style="fill:#54C0EB;" d="M308.556,241.081h-54.252h-54.252c-2.374,20.344-3.391,49.166,1.356,87.142
	c9.833,75.952,12.207,151.905,11.868,162.755h31.534c0.339-16.615,3.052-174.962,9.494-185.812
	c6.442,10.85,9.155,169.197,9.494,185.812h31.534c-0.339-11.189,2.034-86.803,11.868-162.755
	C311.947,290.246,311.269,261.425,308.556,241.081z"/>
<path style="fill:#324A5E;" d="M198.019,490.978h47.47v17.293c0,0.339,0,0.339-0.339,0.339h-47.47v-17.293
	C197.679,491.317,198.019,490.978,198.019,490.978z"/>
<path style="fill:#E6E9EE;" d="M337.717,102.4c-34.585-35.264-83.412-29.499-83.412-29.499s-48.826-5.425-83.412,29.499
	c0,0,36.959,81.717,25.091,145.123c-0.339,2.034,0.339,4.069,2.034,5.086c7.46,5.086,104.774,5.086,112.572,0
	c1.695-1.017,2.373-3.052,2.034-5.086C300.758,184.117,337.717,102.4,337.717,102.4z"/>
<path id="SVGCleanerId_1" style="fill:#CED5E0;" d="M175.64,229.891l9.833,5.425c0,0,11.868,3.73,14.58,2.713v-32.89
	c0,0-1.695-0.339-4.069-1.017c-1.017-0.339-2.374-1.017-3.391-1.695c-1.695-1.017-3.391-2.374-4.747-4.069
	c-2.713-3.391-4.747-8.477-4.408-16.275c0-0.678,0-1.695,0.339-2.374c0-1.017,0.339-2.034,0.339-3.052
	c0-0.678,0.339-1.695,0.339-2.374c0.678-2.374,1.356-5.086,2.374-7.799c1.356-3.391,3.052-7.121,5.086-11.528
	c0,0-3.391-47.131-20.683-52.556c0,0-18.988,36.62-20.005,70.188c0,0-0.678,2.034-1.017,5.425c0,0.678,0,1.356-0.339,2.034
	C148.514,191.237,150.887,212.599,175.64,229.891z"/>
<g>
	<path id="SVGCleanerId_1_1_" style="fill:#CED5E0;" d="M175.64,229.891l9.833,5.425c0,0,11.868,3.73,14.58,2.713v-32.89
		c0,0-1.695-0.339-4.069-1.017c-1.017-0.339-2.374-1.017-3.391-1.695c-1.695-1.017-3.391-2.374-4.747-4.069
		c-2.713-3.391-4.747-8.477-4.408-16.275c0-0.678,0-1.695,0.339-2.374c0-1.017,0.339-2.034,0.339-3.052
		c0-0.678,0.339-1.695,0.339-2.374c0.678-2.374,1.356-5.086,2.374-7.799c1.356-3.391,3.052-7.121,5.086-11.528
		c0,0-3.391-47.131-20.683-52.556c0,0-18.988,36.62-20.005,70.188c0,0-0.678,2.034-1.017,5.425c0,0.678,0,1.356-0.339,2.034
		C148.514,191.237,150.887,212.599,175.64,229.891z"/>
</g>
<g>
	<path style="fill:#ACB3BA;" d="M186.49,234.638c-2.034-10.172,8.816-30.177,9.494-30.517c-1.017-0.339-2.374-1.017-3.391-1.695
		C190.559,205.139,184.456,234.299,186.49,234.638z"/>
	<path style="fill:#ACB3BA;" d="M186.829,166.485c-4.069-7.799-5.086-17.293-4.747-26.109c0-1.356,0-2.374-0.339-3.73
		c-0.678-1.017-2.034-2.034-3.052-1.356c-0.339,0.339-0.678,0.678-1.017,1.017c-1.356,1.356-8.138,9.155-8.816,12.207
		c-1.356,4.747,12.546,20.344,14.919,24.413c0.339,0.339,0.339,1.017,0.678,1.356C185.134,171.91,185.812,169.197,186.829,166.485z"
		/>
	<path style="fill:#ACB3BA;" d="M184.117,176.657c-6.103-5.764-12.546-11.189-18.988-15.936
		c2.713,3.391,16.954,17.632,18.649,18.988C183.778,178.691,183.778,177.674,184.117,176.657z"/>
	<path style="fill:#ACB3BA;" d="M149.531,180.387c3.052-0.678,24.752,6.103,27.804,7.46c1.017,0.339,2.034,1.695,1.017,2.374
		c-0.339,0.339-7.46,0.339-9.833,1.695c3.052,1.356,6.103,2.374,9.155,2.374c-2.374,0.339-14.919,7.799-13.563,9.494
		c4.069,0,19.327-6.781,23.396-5.425c-2.713-3.391-4.747-8.477-4.408-16.275c-6.442-4.747-13.224-8.816-21.023-8.138
		c-3.73,0.339-12.207,4.069-12.546,4.408C149.531,178.691,149.531,179.709,149.531,180.387z"/>
</g>
<path style="fill:#2B3B4E;" d="M286.856,74.257l-11.189,11.189l-21.362,16.615v0.339l0,0h-0.339v-0.339l-21.362-16.615
	l-11.189-11.189c0,0-6.442-8.138-5.086-17.971c0,0,12.546-16.275,37.637-16.275c24.752,0,37.637,16.275,37.637,16.275
	C293.298,66.119,286.856,74.257,286.856,74.257z"/>
<path style="fill:#CED5E0;" d="M291.942,56.286c0,0.339,0,1.017,0,1.356C291.942,56.625,291.942,56.286,291.942,56.286z"/>
<path style="fill:#324A5E;" d="M291.942,57.642c0,4.408-1.695,18.31-21.362,29.16c0,0-9.155,6.781-16.275,12.546v4.747
	c6.442-1.695,16.615-6.103,24.413-18.649C278.718,85.446,292.959,75.952,291.942,57.642z"/>
<path style="fill:#E6E9EE;" d="M291.942,56.286c0,0-12.546-16.275-37.637-16.275c-24.752,0-37.637,16.275-37.637,16.275
	C221.415,10.511,246.506,1.695,254.305,0C262.103,1.695,287.195,10.511,291.942,56.286z"/>
<path style="fill:#CED5E0;" d="M216.668,56.286c0,0.339,0,1.017,0,1.356C216.668,56.625,216.668,56.286,216.668,56.286z"/>
<path style="fill:#324A5E;" d="M216.668,57.642c0,4.408,1.695,18.31,21.362,29.16c0,0,9.155,6.781,16.276,12.546v4.747
	c-6.442-1.695-16.615-6.103-24.413-18.649C229.891,85.446,215.65,75.952,216.668,57.642z"/>
<circle style="fill:#ACB3BA;" cx="262.103" cy="97.314" r="2.374"/>
<path style="fill:#2B3B4E;" d="M262.103,95.958c-0.678,0-1.356,0.678-1.356,1.356v48.148c0,0.678,0.678,1.356,1.356,1.356
	s1.356-0.678,1.356-1.356V97.314C263.46,96.636,262.781,95.958,262.103,95.958z"/>
<circle style="fill:#ACB3BA;" cx="245.828" cy="97.314" r="2.374"/>
<path style="fill:#2B3B4E;" d="M245.828,95.958c-0.678,0-1.356,0.678-1.356,1.356v31.873c0,0.678,0.678,1.356,1.356,1.356
	s1.356-0.678,1.356-1.356V97.314C247.184,96.636,246.845,95.958,245.828,95.958z"/>
<g>
</g>
<g>
</g>
<g>
</g>
<g>
</g>
<g>
</g>
<g>
</g>
<g>
</g>
<g>
</g>
<g>
</g>
<g>
</g>
<g>
</g>
<g>
</g>
<g>
</g>
<g>
</g>
<g>
</g>
</svg>
