<?xml version="1.0" encoding="iso-8859-1"?>
<!-- Generator: Adobe Illustrator 19.0.0, SVG Export Plug-In . SVG Version: 6.00 Build 0)  -->
<svg version="1.1" id="Layer_1" xmlns="http://www.w3.org/2000/svg" xmlns:xlink="http://www.w3.org/1999/xlink" x="0px" y="0px"
	 viewBox="0 0 508.747 508.747" style="enable-background:new 0 0 508.747 508.747;" xml:space="preserve">
<circle style="fill:#FFD05B;" cx="254.373" cy="254.442" r="217.007"/>
<g>
	<path style="fill:#F1543F;" d="M284.89,41.504c-1.017-21.701-10.511-43.062-22.379-41.367c-1.017,0.339-2.034,0.678-3.052,1.356
		c-3.391,2.034-7.46,2.034-10.85,0c-1.017-0.678-2.034-1.017-3.052-1.356c-11.528-1.695-21.362,19.666-22.04,41.367H284.89z"/>
	<path style="fill:#F1543F;" d="M284.89,41.504h-2.713c-18.31-7.46-38.315-7.46-56.286,0h-2.713c0-4.069,0.678-7.799,1.356-11.868
		c3.052-16.954,11.528-30.856,20.683-29.499c1.017,0.339,2.034,0.678,3.052,1.356c3.391,2.034,7.46,2.034,10.85,0
		c1.017-0.678,2.034-1.017,3.052-1.356c9.494-1.695,17.632,12.546,20.683,29.499C284.212,33.366,284.551,37.435,284.89,41.504z"/>
</g>
<g>
	<path style="fill:#FF7058;" d="M284.89,41.504h-2.713c-18.31-7.46-38.315-7.46-56.286,0h-2.713c0-4.069,0.678-7.799,1.356-11.868
		c18.988-7.46,39.672-7.46,58.999,0C284.212,33.366,284.551,37.435,284.89,41.504z"/>
	<path style="fill:#FF7058;" d="M300.148,38.113c0,25.43-20.683,46.114-46.114,46.114S207.92,63.544,207.92,38.113
		c0-15.597,7.799-13.224,20.005-8.816c7.46,2.713,16.615,6.103,26.109,6.103c9.494,0,18.649-3.391,26.109-5.764
		C292.349,25.229,300.148,22.177,300.148,38.113z"/>
	<path style="fill:#FF7058;" d="M300.148,38.113c0,25.43-20.683,46.114-46.114,46.114S207.92,63.544,207.92,38.113
		c0-13.902,6.103-13.563,15.597-10.172c1.356,0.339,2.713,1.017,4.408,1.695c0.678,0.339,1.356,0.678,2.034,0.678
		c1.356,0.339,2.713,1.017,4.069,1.356c6.103,2.034,12.885,3.73,20.005,3.73c7.121,0,13.902-1.695,20.005-3.73
		c1.356-0.339,2.713-1.017,4.069-1.356c0.678-0.339,1.356-0.339,1.695-0.678c0.678-0.339,1.356-0.678,2.034-0.678
		C293.028,24.89,300.148,22.855,300.148,38.113z"/>
</g>
<path style="fill:#FFFFFF;" d="M338.124,210.702c-4.069-63.407-20.005-99.009-20.005-99.009s-8.138,34.246-12.207,71.205
	l8.477,27.126l-10.511,7.121l-4.408,3.052v35.264c2.713-1.356,5.425-3.052,7.799-4.747c10.172-6.442,17.632-13.563,23.057-18.988
	C335.751,226.299,338.802,218.5,338.124,210.702z"/>
<g>
	<polygon style="fill:#324A5E;" points="235.046,493.149 255.051,332.429 255.051,252.747 204.191,252.747 200.8,303.268 
		205.886,493.149 	"/>
	<polygon style="fill:#324A5E;" points="302.861,493.149 307.947,303.268 304.556,252.747 253.695,252.747 253.695,332.429 
		273.7,493.149 	"/>
</g>
<g>
	<polygon style="fill:#2B3B4E;" points="306.93,286.993 304.556,252.747 253.695,252.747 253.695,286.993 	"/>
	<polygon style="fill:#2B3B4E;" points="255.051,286.993 255.051,252.747 204.191,252.747 201.817,286.993 	"/>
</g>
<path style="fill:#E6E9EE;" d="M208.598,219.857l-3.73-2.713l-10.511-7.121l8.477-27.126c-4.069-36.959-12.207-71.205-12.207-71.205
	s-15.936,35.603-20.005,99.009c-0.678,7.799,2.374,15.597,7.799,21.362c5.086,5.425,12.885,12.207,23.057,18.988
	c2.374,1.356,4.747,3.052,7.121,4.408L208.598,219.857L208.598,219.857z"/>
<g>
	<path style="fill:#FFD05B;" d="M254.373,105.928L254.373,105.928L254.373,105.928z"/>
	<path style="fill:#FFD05B;" d="M267.936,62.527l-13.224-0.678l0,0l0,0l0,0l0,0l-13.224,0.678c0,0,1.017,11.868-4.747,22.718v14.919
		l18.31,5.764l0,0l0,0l17.293-5.425V83.888C266.919,73.377,267.936,62.527,267.936,62.527z"/>
	<path style="fill:#FFD05B;" d="M254.373,105.928L254.373,105.928L254.373,105.928z"/>
	<path style="fill:#FFD05B;" d="M254.373,105.928L254.373,105.928L254.373,105.928z"/>
	<path style="fill:#FFD05B;" d="M272.005,83.549v16.615l-17.293,5.425l0,0l0,0l-18.31-5.764V84.906
		c1.356-2.374,2.373-5.086,3.052-7.46c2.374-8.138,1.695-15.258,1.695-15.258l13.224-0.678l0,0l0,0l0,0l0,0l13.224,0.678
		c0,0-0.678,6.781,1.695,14.58C269.971,79.141,270.649,81.515,272.005,83.549z"/>
	<path style="fill:#FFD05B;" d="M254.373,105.928L254.373,105.928L254.373,105.928z"/>
</g>
<path style="fill:#FFFFFF;" d="M308.286,255.12c-13.902-43.401,9.833-143.428,9.833-143.428
	C280.821,104.572,273.7,86.94,273.7,86.94c-0.678,4.747-1.017,9.155-1.695,13.224h-35.264c-0.678-4.069-1.017-8.816-1.695-13.224
	c0,0-7.121,17.632-44.419,24.752c0,0,23.735,100.026,9.833,143.428c0,0-1.017,6.442-2.034,14.919
	c-0.678,4.069,2.713,7.46,6.442,7.46h99.348c4.069,0,7.121-3.391,6.442-7.46C309.303,261.563,308.286,255.12,308.286,255.12z"/>
<path style="fill:#E6E9EE;" d="M308.286,255.12c-13.902-43.401,9.833-143.428,9.833-143.428
	C280.821,104.572,273.7,86.94,273.7,86.94c-0.678,4.747-1.017,9.155-1.695,13.224h-17.971V277.16h49.844
	c4.069,0,7.121-3.391,6.442-7.46C309.303,261.563,308.286,255.12,308.286,255.12z"/>
<path style="fill:#F9B54C;" d="M269.293,77.107l-1.017,1.356c-2.373,3.052-5.764,4.747-9.494,5.425l-2.713,0.339
	c-1.356,0.339-2.713,0.339-4.069,0l-2.713-0.339c-3.73-0.678-7.121-2.374-9.494-5.425l-0.678-0.678
	c2.374-8.138,1.695-15.258,1.695-15.258l13.224-0.678l0,0l0,0l0,0l0,0l13.224,0.678C267.936,62.527,267.258,69.308,269.293,77.107z"
	/>
<g>
	<path style="fill:#FFD05B;" d="M278.108,30.315l-3.052,31.873c-0.339,3.052-1.356,5.764-3.391,8.138l-3.391,4.069
		c-2.373,3.052-5.764,4.747-9.494,5.425l-2.713,0.339c-1.356,0.339-2.713,0.339-4.069,0l-2.713-0.339
		c-3.73-0.678-7.121-2.374-9.494-5.425l-3.391-4.069c-2.034-2.374-3.052-5.086-3.391-8.138l-3.052-31.873
		c1.356,0.339,2.713,1.017,4.069,1.356c6.103,2.034,12.885,3.73,20.005,3.73c7.121,0,13.902-1.695,20.005-3.73
		C275.396,31.332,276.752,30.654,278.108,30.315z"/>
	<path style="fill:#FFD05B;" d="M282.177,44.556c-1.356,3.391-4.069,5.086-6.103,4.408c-2.034-0.678-3.052-4.069-1.695-7.46
		c1.356-3.391,4.069-5.086,6.103-4.408C282.516,38.113,283.194,41.504,282.177,44.556z"/>
	<path style="fill:#FFD05B;" d="M225.891,44.556c1.356,3.391,4.069,5.086,6.103,4.408c2.034-0.678,3.052-4.069,1.695-7.46
		c-1.356-3.391-4.069-5.086-6.103-4.408C225.552,38.113,224.874,41.504,225.891,44.556z"/>
</g>
<g>
	<path style="fill:#324A5E;" d="M234.029,31.671c-2.034-0.678-4.408-1.695-6.103-2.374c-1.017-0.339-2.034-0.678-3.052-1.017
		c0,0,0.678,4.747,1.017,5.425c3.052,5.425,8.138,15.258,8.138,15.258C232.334,42.182,233.012,36.079,234.029,31.671z"/>
	<path style="fill:#324A5E;" d="M281.838,28.959c-0.339,2.713-0.678,5.764-1.695,9.494c0,0-3.052,0.339-4.069,7.46
		c0,0-0.339-8.138-2.034-14.241c2.034-0.678,4.069-1.356,6.103-2.034C280.482,29.298,281.16,28.959,281.838,28.959z"/>
</g>
<g>
	<path style="fill:#2B3B4E;" d="M302.861,493.149H274.04v11.868c0,2.034,1.695,3.73,3.73,3.73h38.993v-2.034
		C316.424,499.253,310.32,493.149,302.861,493.149z"/>
	<path style="fill:#2B3B4E;" d="M206.225,493.149h28.821v11.868c0,2.034-1.695,3.73-3.73,3.73h-38.993v-2.034
		C192.323,499.253,198.426,493.149,206.225,493.149z"/>
</g>
<path style="fill:#2C9984;" d="M273.361,97.79L273.361,97.79c-1.017,9.494-5.425,22.379-19.327,36.959
	c0,0-16.275-19.327-18.988-37.298c0-0.339,0-0.678-0.339-1.356c-1.356-10.172,2.034-14.241,2.373-14.58l0,0v0.339
	c4.408,16.954,29.16,16.954,33.568,0v-0.339l0,0C271.666,82.193,275.396,86.601,273.361,97.79z"/>
<path style="fill:#FFFFFF;" d="M265.902,150.347v29.16c0,1.695,1.356,3.052,3.052,3.052h24.413c1.695,0,3.052-1.356,3.052-3.052
	v-29.16H265.902L265.902,150.347z"/>
<path style="fill:#CED5E0;" d="M211.989,150.347v29.16c0,1.695,1.356,3.052,3.052,3.052h24.413c1.695,0,3.052-1.356,3.052-3.052
	v-29.16H211.989L211.989,150.347z"/>
<g>
</g>
<g>
</g>
<g>
</g>
<g>
</g>
<g>
</g>
<g>
</g>
<g>
</g>
<g>
</g>
<g>
</g>
<g>
</g>
<g>
</g>
<g>
</g>
<g>
</g>
<g>
</g>
<g>
</g>
</svg>
