<?xml version="1.0" encoding="iso-8859-1"?>
<!-- Generator: Adobe Illustrator 19.0.0, SVG Export Plug-In . SVG Version: 6.00 Build 0)  -->
<svg version="1.1" id="Layer_1" xmlns="http://www.w3.org/2000/svg" xmlns:xlink="http://www.w3.org/1999/xlink" x="0px" y="0px"
	 viewBox="0 0 508.948 508.948" style="enable-background:new 0 0 508.948 508.948;" xml:space="preserve">
<circle style="fill:#90DFAA;" cx="254.474" cy="254.305" r="217.007"/>
<g>
	<path style="fill:#2B3B4E;" d="M301.944,502.167c-1.356-2.373-2.713-5.086-3.73-7.799c-0.678-2.034-1.356-4.408-3.052-6.103
		c-0.339-0.339-0.339-0.339-0.678-0.678c-0.339-0.678-0.339-1.356-0.339-2.034l-24.413,2.713c0,3.391,0,7.121,0,10.511
		c0,0.678,0,1.356,0.339,2.034c0.339,0.339,0.339,0.678,0.678,1.017l2.374,2.373c0.339,0.339,0.339,0.339,0.678,0.678
		c0.339,0.678,0,1.356,0.339,2.034c0,0.678,1.017,1.356,1.695,1.695c0.678,0.339,1.695,0.339,2.374,0.339
		c1.695,0,3.391,0,5.086-0.339c0.678,0,1.356-0.339,2.034-0.339c2.374-0.339,5.086,0,7.46,0.339c3.052,0,6.103-0.678,9.155-1.356
		c0.339,0,0.678,0,0.678-0.339c0.339-0.339,0.339-0.678,0-1.356C302.962,503.862,302.283,503.184,301.944,502.167z"/>
	<path style="fill:#2B3B4E;" d="M238.199,488.604v-3.391h-9.155c0,0.678,0,1.356-0.339,2.034c0,0.339-0.339,0.678-0.678,0.678
		c-1.356,1.695-2.034,4.069-3.052,6.103c-1.017,2.713-2.034,5.425-3.73,7.799c-0.678,1.017-1.017,1.695-1.356,2.713
		c0,0.339-0.339,1.017,0,1.356c0.339,0.339,0.339,0.339,0.678,0.339c3.052,0.678,6.103,1.356,9.155,1.356
		c2.374,0,5.086-0.678,7.46-0.339c0.678,0,1.356,0.339,2.034,0.339c1.695,0.339,3.391,0.339,5.086,0.339
		c0.678,0,1.695,0,2.373-0.339c0.678-0.339,1.356-1.017,1.695-1.695c0-0.678,0-1.356,0.339-2.034c0-0.339,0.339-0.339,0.678-0.678
		l2.374-2.374c0.339-0.339,0.678-0.678,0.678-1.017c0.339-0.678,0.339-1.356,0.339-2.034c0-3.391,0-6.781,0-9.833h-14.58V488.604z"
		/>
</g>
<path style="fill:#F9B54C;" d="M291.094,139.359c-15.258-6.781-12.546-27.465-12.546-27.465h-14.58h-1.356h-14.58
	c0,0,2.713,20.683-12.546,27.465c0,0,15.936,9.155,27.465,7.799C274.819,148.514,291.094,139.359,291.094,139.359z"/>
<g>
	<path style="fill:#324A5E;" d="M305.335,284.821H263.29h-41.706c0,0-4.408,62.05,3.391,117.319c0,0,5.086,69.849,0,81.717
		c0,0,16.615,14.58,38.654,5.086c21.701,9.494,38.654-5.086,38.654-5.086c-5.086-11.868,0-81.717,0-81.717
		C309.404,346.872,305.335,284.821,305.335,284.821z"/>
	<path style="fill:#324A5E;" d="M301.944,402.14c0,0-5.086,69.849,0,81.717c0,0-8.816,7.799-22.04,8.138
		c-5.086,0.339-10.511-0.678-16.275-3.052c-5.764,2.713-11.529,3.391-16.276,3.052c-13.224-0.678-22.04-8.138-22.04-8.138
		c5.086-11.868,0-81.717,0-81.717c-7.799-55.269-3.391-117.319-3.391-117.319h83.751
		C305.335,284.821,309.404,346.872,301.944,402.14z"/>
</g>
<path style="fill:#2B3B4E;" d="M271.089,491.317c-2.374-0.339-5.086-1.356-7.46-2.374c-2.713,1.017-5.086,2.034-7.46,2.374
	c1.017-1.017,1.695-2.713,2.034-4.408c1.017-3.73,1.017-8.138,1.017-12.546c0-4.069-0.339-8.477,0.339-12.546
	c0.339-2.373,0.678-4.408,1.017-6.442c0.339-2.034,0.339-4.069,0.339-6.442c0-12.885,0-25.77,0-38.654
	c0-13.563,0-27.465-0.678-41.028c-0.339-3.73-0.339-7.46-0.339-10.85c0-3.73,0.678-7.121,1.017-10.511
	c1.356-13.224,1.356-27.126,0-40.35c-0.339-4.747-1.017-10.172,0-14.241c1.017,0.678,2.034,3.052,2.713,5.425
	c0.339-2.374,1.356-4.408,2.713-5.425c1.356,4.069,0.678,9.494,0,14.241c-1.356,13.224-1.356,27.126,0,40.35
	c0.339,3.391,0.678,7.121,1.017,10.511c0,3.73,0,7.46-0.339,10.85c-0.678,13.563-0.678,27.126-0.678,41.028
	c0,12.885,0,25.77,0,38.654c0,2.034,0,4.069,0.339,6.442c0.339,2.374,0.678,4.408,1.017,6.442c0.678,4.069,0.339,8.477,0.339,12.546
	c0,4.069,0,8.816,1.017,12.546C269.393,488.604,270.072,490.299,271.089,491.317z"/>
<path style="fill:#FF7058;" d="M200.562,219.719c-5.086,11.189,10.511,39.671,10.511,39.671c0.339,1.695,0.339,3.391,0,5.086
	c-0.678,9.833-7.46,14.241-12.207,15.936c-3.052,1.017-5.425,1.356-5.425,1.356c-20.344-21.362-21.701-58.999-21.701-65.441
	c0-0.678,0-1.356,0.339-2.034c3.73-14.241,22.379-42.723,29.838-54.252c0.339,0.678,10.85,30.856,13.563,47.131
	C210.395,214.972,200.562,219.719,200.562,219.719z"/>
<path style="fill:#EBE6E3;" d="M326.358,307.878c0-0.339-0.339-0.339-0.678-0.339c-1.017-0.678-1.356-2.034-2.374-2.374
	c-0.678-0.339-1.356-0.339-2.374-0.339c-3.73,0-7.799,1.017-10.511,3.391c-3.73,3.391-4.408,9.155-6.103,13.902
	c-1.356,3.73-3.391,7.121-3.052,11.189c0,0.339,0,0.678,0.339,1.017c0.339,0.339,0.678,0.339,0.678,0.339
	c1.356,0,2.713,0,3.73-1.017c0.678-0.339,0.678-1.017,1.017-1.695c1.017-2.713,2.034-5.425,2.374-8.138
	c1.356,3.391,1.017,6.781,0,10.172c-1.017,3.391-2.713,6.442-5.086,9.155c-0.678,1.017-1.695,2.034-2.034,3.391s0,3.052,1.017,3.391
	c1.356,0.678,2.713,0,4.069-0.678c1.695-0.678,3.391-1.695,4.747-3.052l0,0c11.528-7.46,15.597-37.637,15.597-37.637
	L326.358,307.878z"/>
<path style="fill:#F1543F;" d="M324.662,159.364c0,0,10.511,17.293,12.207,49.166c0,0,2.713,78.326-4.408,104.095l-24.752-4.747
	c0,0,7.799-81.038,0-99.009C307.37,208.53,297.197,164.789,324.662,159.364z"/>
<g>
	<path style="fill:#324A5E;" d="M242.268,121.388c0,0,2.374,12.207-4.747,14.919c0,0,2.713,7.46,16.615,6.781
		C254.135,143.089,253.796,125.796,242.268,121.388z"/>
	<path style="fill:#324A5E;" d="M284.313,121.388c0,0-2.374,12.207,4.747,14.919c0,0-2.713,7.46-16.615,6.781
		C272.445,143.089,273.123,125.796,284.313,121.388z"/>
</g>
<path style="fill:#F1543F;" d="M268.037,147.836v154.617h-51.2c-5.764-9.494-1.017-30.517-1.017-30.517
	c13.563-19.666,0.678-58.999,0.678-58.999c0-1.695-0.339-3.73-0.678-6.103c-2.713-16.275-13.224-46.114-13.563-47.131l0,0
	c8.816-10.511,35.603-23.057,35.603-23.057c7.46,6.103,19.327,7.121,25.77,6.781C266.003,143.428,268.037,145.462,268.037,147.836z"
	/>
<path style="fill:#E6E9EE;" d="M311.099,271.597c0,0,4.747,21.362-1.017,30.517h-51.539V147.836c0-2.374,2.034-4.408,4.408-4.408
	c6.442,0,18.31-0.678,25.77-6.781c0,0,2.034,1.017,5.425,2.713c8.138,4.069,24.074,12.885,30.177,20.344
	c0,0-14.241,40.35-14.241,53.234C310.082,212.599,297.197,251.931,311.099,271.597z"/>
<path style="fill:#EBE6E3;" d="M231.078,291.603c-0.678,1.356-2.373,1.356-3.73,1.695c-1.017,0-1.695,0-2.713,0
	s-2.034,0-3.052-0.339c-7.121-0.339-15.936-7.121-22.718-13.224c4.747-1.695,11.528-5.764,12.207-15.936
	c1.695,1.356,3.391,3.052,5.086,4.408c3.052,2.374,6.781,4.408,8.477,7.799c0,0.339,0.339,0.678,0,1.017
	c0,0.339-0.339,0.339-0.678,0.678c-1.017,0.678-2.374,1.356-3.391,1.017c-0.678,0-1.356-0.678-1.695-1.017
	c-2.374-1.695-4.408-3.73-6.442-5.764c0.678,3.391,2.713,6.442,5.086,8.816s5.764,4.069,8.816,5.086
	c1.356,0.339,2.713,1.017,3.73,1.695C231.078,288.89,231.756,290.585,231.078,291.603z"/>
<path style="fill:#FFD05B;" d="M287.025,90.872c0,13.563-10.511,32.89-23.735,32.89s-23.735-19.327-23.735-32.89
	c0-1.356,0-2.713,0.339-3.73c6.781-1.695,14.919-2.713,23.396-2.713c8.816,0,16.615,1.017,23.396,2.713
	C287.025,88.498,287.025,89.515,287.025,90.872z"/>
<g>
	<path style="fill:#2B3B4E;" d="M302.623,36.281c0,16.954-6.103,38.315-15.597,52.217c-0.339,0-0.678-0.339-1.017-0.339
		c-6.442-1.695-14.241-2.713-22.718-2.713c-8.477,0-16.276,1.017-22.718,2.713c-0.339,0-0.678,0.339-1.017,0.339
		c-9.494-13.902-15.597-35.264-15.597-52.217C223.958,7.46,241.589,0,263.29,0C284.991,0,302.623,7.799,302.623,36.281z"/>
	<rect x="217.515" y="82.734" style="fill:#2B3B4E;" width="5.764" height="62.389"/>
</g>
<path style="fill:#324A5E;" d="M222.262,86.803h-4.069c-1.017,0-2.034-1.017-2.034-2.034V71.883h8.138v12.885
	C224.297,85.785,223.28,86.803,222.262,86.803z"/>
<path style="fill:#FF7058;" d="M311.099,271.597c0,0,4.747,21.362-1.017,30.517H263.29V147.836h0.339c0.339,0,1.017,0,1.695,0
	c3.73,0,12.207-0.678,21.362-4.408c0.678-0.339,4.408-2.374,7.799-4.408c8.138,4.069,24.074,12.885,30.177,20.344
	c0,0-14.241,40.35-14.241,53.234C310.082,212.599,297.197,251.931,311.099,271.597z"/>
<path style="fill:#FFFFFF;" d="M304.996,241.081h-36.959h-9.155h-36.959c0.339,3.052,0.339,6.442,0,9.833h36.959h9.155h36.959
	C304.657,247.523,304.657,244.472,304.996,241.081z"/>
<g>
	<circle style="fill:#E6E9EE;" cx="270.072" cy="156.313" r="3.052"/>
	<circle style="fill:#E6E9EE;" cx="270.072" cy="172.588" r="3.052"/>
	<circle style="fill:#E6E9EE;" cx="270.072" cy="188.864" r="3.052"/>
	<circle style="fill:#E6E9EE;" cx="270.072" cy="205.139" r="3.052"/>
	<circle style="fill:#E6E9EE;" cx="270.072" cy="221.415" r="3.052"/>
</g>
<path style="fill:#F9B54C;" d="M220.228,283.465L220.228,283.465c-3.052,0-5.764-2.374-5.764-5.764V142.072
	c0-3.052,2.374-5.764,5.764-5.764l0,0c3.052,0,5.764,2.374,5.764,5.764v135.629C225.992,281.091,223.28,283.465,220.228,283.465z"/>
<rect x="214.464" y="213.277" style="fill:#324A5E;" width="11.189" height="22.04"/>
<g>
</g>
<g>
</g>
<g>
</g>
<g>
</g>
<g>
</g>
<g>
</g>
<g>
</g>
<g>
</g>
<g>
</g>
<g>
</g>
<g>
</g>
<g>
</g>
<g>
</g>
<g>
</g>
<g>
</g>
</svg>
