<?xml version="1.0" encoding="iso-8859-1"?>
<!-- Generator: Adobe Illustrator 19.0.0, SVG Export Plug-In . SVG Version: 6.00 Build 0)  -->
<svg version="1.1" id="Layer_1" xmlns="http://www.w3.org/2000/svg" xmlns:xlink="http://www.w3.org/1999/xlink" x="0px" y="0px"
	 viewBox="0 0 508.609 508.609" style="enable-background:new 0 0 508.609 508.609;" xml:space="preserve">
<circle style="fill:#54C0EB;" cx="254.305" cy="254.305" r="217.007"/>
<path style="fill:#FF7058;" d="M221.415,33.229c-0.339,3.052-0.678,6.442-0.678,9.833c0,27.804,15.597,101.722,34.585,101.722
	s34.585-74.257,34.585-101.722c0-3.391-0.339-6.781-0.678-9.833C289.229,33.229,221.415,33.229,221.415,33.229z"/>
<path style="fill:#2B3B4E;" d="M289.907,488.265c0,8.816-4.408,20.344-9.494,20.344s-9.494-11.528-9.494-20.344
	s4.408-11.189,9.494-11.189S289.907,479.449,289.907,488.265z"/>
<path style="fill:#FFD05B;" d="M261.764,329.24c-2.713,22.379-2.713,48.148,2.034,74.935c7.46,44.758,11.189,83.751,11.189,83.751
	c0,7.46,2.713,11.189,5.425,11.868c3.052-0.678,5.086-8.816,5.425-11.868c0,0,3.73-38.993,11.189-83.751
	c4.408-26.787,4.408-52.556,2.034-74.935H261.764z"/>
<path style="fill:#2B3B4E;" d="M218.702,488.265c0,8.816,4.408,20.344,9.494,20.344c5.086,0,9.494-11.528,9.494-20.344
	s-4.408-11.189-9.494-11.189C223.11,477.076,218.702,479.449,218.702,488.265z"/>
<path style="fill:#FFD05B;" d="M208.191,356.705c-0.339,14.919,1.017,30.856,3.73,47.47c7.46,44.758,11.189,83.751,11.189,83.751
	c0.339,3.052,2.713,11.189,5.425,11.868c3.052-0.678,5.425-4.408,5.425-11.868c0,0,3.73-38.993,11.189-83.751
	c2.713-16.276,3.73-32.212,3.73-47.47H208.191z"/>
<path style="fill:#324A5E;" d="M308.217,358.739c3.391-19.666,5.086-39.672,5.086-58.321c0-69.171-26.448-86.803-58.999-86.803
	s-58.999,17.632-58.999,86.803c0,18.31,1.695,38.654,5.086,58.321H308.217z"/>
<path style="fill:#2B3B4E;" d="M253.626,213.616c-32.212,0.339-58.321,18.31-58.321,86.803c0,18.31,1.695,38.654,5.086,58.321
	h53.234V213.616z"/>
<g>
	<path style="fill:#FFD05B;" d="M318.05,297.706c-2.374,6.103-2.713,12.546-2.713,14.919c0,0.678,0.339,1.356,1.017,2.034
		c1.695,1.356,3.73,0.339,4.408-1.356l-0.339-2.034c-0.339-2.374,1.695-4.747,4.069-4.069c4.747,1.017,0.678,11.529-0.678,15.258
		c-0.339,1.017,0,2.034,0.678,2.713c1.356,1.356,3.73,1.017,4.408-1.017c4.408-11.528,4.747-20.005,3.391-26.448H318.05z"/>
	<path style="fill:#FFD05B;" d="M174.962,297.706c-1.017,6.103-1.017,14.919,3.391,26.448c0.678,1.695,3.052,2.374,4.408,1.017
		c0.678-0.678,1.017-1.695,0.678-2.713c-1.356-3.73-5.425-14.241-0.678-15.258c2.374-0.678,4.408,1.695,4.069,4.069l-0.339,2.034
		c0.339,2.034,2.713,2.713,4.408,1.356c0.678-0.339,1.017-1.356,1.017-2.034c0-2.713-0.339-8.816-2.713-14.919H174.962z"/>
	<path style="fill:#FFD05B;" d="M285.499,106.808L285.499,106.808c0,1.017-0.339,2.034-0.339,3.052
		c-2.034,11.189-14.919,20.005-30.517,20.005s-28.482-8.816-30.517-20.005c-0.339-1.017-0.339-2.034-0.339-3.052h0.339
		c1.017-0.678,5.086-5.764,6.781-9.155c0.339-0.678,0.678-1.695,1.017-2.374c7.799-19.666,10.172-40.011,10.172-40.011h25.43
		c0,0,2.034,20.344,10.172,40.011c0.339,0.678,0.678,1.695,1.017,2.374C279.735,101.383,282.109,104.434,285.499,106.808
		L285.499,106.808z"/>
</g>
<path style="fill:#F9B54C;" d="M277.022,95.279c-7.121,4.747-14.58,7.46-22.718,7.46c-8.138,0-15.597-2.713-22.718-7.46
	c7.799-19.666,10.172-40.011,10.172-40.011h25.43C267.189,55.269,269.224,75.613,277.022,95.279z"/>
<path style="fill:#324A5E;" d="M317.711,113.928c0,0,7.799,14.58,9.833,83.412c0,0,7.46,95.619,11.528,100.705h-28.482
	c0,0-0.678-105.452-12.546-129.865C298.045,168.18,308.217,119.693,317.711,113.928z"/>
<path style="fill:#2B3B4E;" d="M298.384,187.846c-0.678,28.482,7.799,57.981,7.799,57.981
	c-14.919,11.528-21.362,23.735-21.362,23.735c-7.46-13.224-32.89-29.838-32.89-29.838v-88.498l30.517-48.826
	c16.276-3.052,35.264,11.528,35.264,11.528c1.356,14.58-6.781,31.195-10.172,37.637l0,0c1.356,3.73,2.374,8.138,2.374,13.224
	C309.913,176.657,305.166,186.49,298.384,187.846z"/>
<path style="fill:#324A5E;" d="M274.988,86.125c0,0,4.747-0.678,16.615,17.293c0,0,7.46,7.799,12.546,10.511
	c0,0-5.086,2.374-14.58,0.678l7.121,8.477c0,0-40.35,21.362-44.419,28.821c0,0-2.373-10.511,10.511-20.344
	c0,0,14.241-18.988,14.919-34.585C277.362,96.636,277.701,88.837,274.988,86.125z"/>
<path style="fill:#2B3B4E;" d="M190.898,113.928c0,0-7.799,14.58-9.833,83.412c0,0-7.46,95.619-11.528,100.705h28.482
	c0,0,0.678-105.452,12.546-129.865C210.564,168.18,200.392,119.693,190.898,113.928z"/>
<path style="fill:#324A5E;" d="M256.678,151.226v88.498c0,0-25.43,16.615-32.89,29.838c0,0-6.442-11.868-21.362-23.735
	c0,0,8.477-29.499,7.799-57.981c-6.442-1.695-11.189-11.528-11.189-23.057c0-4.747,0.678-9.155,2.034-12.885
	c-3.391-6.103-11.528-23.396-10.172-37.976c0,0,18.988-14.58,35.264-11.528L256.678,151.226z"/>
<g>
	<path style="fill:#2B3B4E;" d="M233.621,86.125c0,0-4.747-0.678-16.615,17.293c0,0-7.46,7.799-12.546,10.511
		c0,0,5.086,2.374,14.58,0.678l-7.121,8.477c0,0,40.35,21.362,44.419,28.821c0,0,2.373-10.511-10.511-20.344
		c0,0-14.241-18.988-14.919-34.585C231.248,96.636,230.909,88.837,233.621,86.125z"/>
	<circle style="fill:#2B3B4E;" cx="250.236" cy="163.433" r="3.052"/>
	<circle style="fill:#2B3B4E;" cx="250.236" cy="185.812" r="3.052"/>
	<circle style="fill:#2B3B4E;" cx="250.236" cy="208.191" r="3.052"/>
	<circle style="fill:#2B3B4E;" cx="250.236" cy="230.57" r="3.052"/>
</g>
<path style="fill:#FFFFFF;" d="M271.936,80.021c0,0,6.103,8.138-8.477,23.396l5.764,13.902c0,0,13.224-8.138,11.189-20.683
	C280.074,96.297,277.701,86.125,271.936,80.021z"/>
<g>
	<path style="fill:#E6E9EE;" d="M237.012,80.021c0,0-6.103,8.138,8.477,23.396l-5.764,13.902c0,0-13.224-8.138-11.189-20.683
		C228.535,96.297,231.248,86.125,237.012,80.021z"/>
	<path style="fill:#E6E9EE;" d="M265.155,101.383c0,0,8.816,25.77,6.781,38.993l-5.764-2.713c0,0-2.713,8.816-16.954,11.528
		c0,0-10.85-29.499,4.408-46.114C253.966,103.078,256,99.687,265.155,101.383z"/>
</g>
<path style="fill:#FFFFFF;" d="M265.155,101.383c0,0-15.597-6.442-16.954,35.603c0,0-13.902,6.103-19.327-2.374
	c0,0,4.408-35.264,24.413-33.229C253.287,101.044,257.017,99.009,265.155,101.383z"/>
<g>
	<polygon style="fill:#FFD05B;" points="290.585,362.13 285.499,332.63 281.43,362.13 	"/>
	<path style="fill:#FFD05B;" d="M286.517,44.758c0,22.718-13.902,48.148-31.195,48.148s-31.195-25.43-31.195-48.148
		s13.902-33.907,31.195-33.907C272.615,10.85,286.517,22.04,286.517,44.758z"/>
</g>
<g>
	<path style="fill:#FF7058;" d="M220.058,39.332l3.391,21.701c14.919-3.391,24.074-12.207,30.177-21.701H220.058z"/>
	<path style="fill:#FF7058;" d="M265.155,39.332c5.086,10.172,12.885,20.344,23.396,20.683l0.678-20.683H265.155z"/>
</g>
<path style="fill:#324A5E;" d="M243.115,5.086c-6.781,6.781-14.241,14.241-14.58,14.241l26.787,11.868l26.787-11.868
	c-0.678,0-7.799-7.46-14.58-14.241C260.747-1.695,249.897-1.695,243.115,5.086z"/>
<path style="fill:#2B3B4E;" d="M293.976,34.246l-7.799-19.666c-1.356-3.052-4.747-4.069-7.46-2.713l-16.276,9.494
	c-4.069,2.374-9.494,2.374-13.563,0l-16.954-9.494c-2.713-1.695-6.442-0.339-7.46,2.713l-7.799,19.666
	c-1.017,2.713,0.339,6.103,3.391,7.121l21.023,6.442c9.155,3.052,19.327,3.052,28.482,0l21.022-6.442
	C293.637,40.35,294.993,36.959,293.976,34.246z"/>
<g>
</g>
<g>
</g>
<g>
</g>
<g>
</g>
<g>
</g>
<g>
</g>
<g>
</g>
<g>
</g>
<g>
</g>
<g>
</g>
<g>
</g>
<g>
</g>
<g>
</g>
<g>
</g>
<g>
</g>
</svg>
