<?xml version="1.0" encoding="iso-8859-1"?>
<!-- Generator: Adobe Illustrator 19.0.0, SVG Export Plug-In . SVG Version: 6.00 Build 0)  -->
<svg version="1.1" id="Layer_1" xmlns="http://www.w3.org/2000/svg" xmlns:xlink="http://www.w3.org/1999/xlink" x="0px" y="0px"
	 viewBox="0 0 508.869 508.869" style="enable-background:new 0 0 508.869 508.869;" xml:space="preserve">
<circle style="fill:#90DFAA;" cx="254.434" cy="254.305" r="217.007"/>
<g>
	<rect x="302.583" y="11.868" style="fill:#FFD05B;" width="1.695" height="20.005"/>
	<path style="fill:#FFD05B;" d="M304.617,106.808l-14.58-6.781c-5.764-2.713-9.833-8.477-10.85-14.58l-1.695-11.189h-30.178
		l-1.695,11.189c-1.017,6.103-5.086,11.868-10.85,14.58l-11.868,5.425l-4.069,26.109l46.114,14.919l44.079-14.919L304.617,106.808z"
		/>
</g>
<path style="fill:#2B3B4E;" d="M300.887,497.081c0,0,9.155,14.919-12.546,11.189c0,0-18.31,4.069-11.189-11.189
	C277.491,497.081,296.819,494.368,300.887,497.081z"/>
<path style="fill:#54C0EB;" d="M295.801,482.84c0,0,1.356,8.816,4.069,10.172c0,0,8.477,10.172-6.781,9.155
	c-3.052-0.339-5.764-0.339-8.816-0.339c-3.391,0-7.799-0.678-9.155-3.73c0,0-1.356-4.069,3.052-9.494c0,0,2.373-4.747,1.017-7.799
	C278.509,477.754,298.514,474.363,295.801,482.84z"/>
<path style="fill:#2B3B4E;" d="M223.918,497.081c0,0-9.155,14.919,12.546,11.189c0,0,18.31,4.069,11.189-11.189
	C247.653,497.081,228.326,494.368,223.918,497.081z"/>
<path style="fill:#54C0EB;" d="M229.343,482.84c0,0-1.356,8.816-4.069,10.172c0,0-8.477,10.172,6.781,9.155
	c3.052-0.339,5.764-0.339,8.816-0.339c3.391,0,7.799-0.678,9.155-3.73c0,0,1.356-4.069-3.052-9.494c0,0-2.373-4.747-1.017-7.799
	C246.636,477.754,226.63,474.363,229.343,482.84z"/>
<path style="fill:#2B3B4E;" d="M310.042,281.091c0.678-8.138-5.425-40.35-5.425-40.35c-13.902,4.408-32.212,2.713-40.35,1.695l0,0
	c0,0-0.678,0-2.034,0.339c-1.017-0.339-1.695-0.339-1.695-0.339v0.678c-7.799,1.017-26.448,2.713-40.35-1.695
	c0,0-6.442,32.212-5.425,40.35c0.678,8.138,5.425,55.608,8.816,69.51c3.052,13.563-1.356,43.74-1.356,43.74
	s-4.747,44.419,2.374,61.372c0,0,4.408,15.258,1.356,20.344c0,0-3.391,3.73,1.017,5.764c0,0-1.356,5.086,0,8.477
	c0,0,13.563-7.799,20.344,0c0,0-1.017-6.781,2.034-11.189c1.356-2.034,2.034-4.408,2.034-7.121
	c-0.339-7.121-1.017-20.344-2.713-25.77c0,0-1.017-9.833,0.678-14.58c0,0,1.017-17.632,0.339-29.16
	c-0.339-7.46,0.678-14.919,2.713-22.04v-0.339c1.695-5.764,2.713-11.529,2.713-17.293c0.339-18.31,1.695-59.677,5.086-72.901
	c0.339-1.017,1.017-1.695,2.034-1.695c1.017,0,1.695,0.678,2.034,1.695c3.052,13.224,4.408,54.93,5.086,72.901
	c0,5.764,1.017,11.868,2.713,17.293v0.339c2.034,7.121,3.052,14.58,2.713,22.04c-0.678,11.529,0.339,29.16,0.339,29.16
	c1.695,4.747,0.678,14.58,0.678,14.58c-1.695,5.425-2.374,18.649-2.713,25.77c0,2.373,0.678,5.086,2.034,7.121
	c3.052,4.408,2.034,11.189,2.034,11.189c6.781-7.799,20.344,0,20.344,0c1.356-3.391,0-8.477,0-8.477
	c4.408-2.034,1.017-5.764,1.017-5.764c-3.052-5.425,1.356-20.344,1.356-20.344c7.121-16.954,2.374-61.372,2.374-61.372
	s-4.408-30.177-1.356-43.74C304.617,337.038,309.364,289.229,310.042,281.091z"/>
<path style="fill:#FFD05B;" d="M330.048,140.376c0,0-2.374,50.183,1.017,56.964c0,0,7.799,23.735,1.356,53.234
	c0,0,1.017,26.787-0.339,31.873c0,0-1.695,24.074,0,29.838c0,0-6.442,12.546-20.005,13.224l-1.017-3.391
	c0,0,10.85-1.695,8.138-22.718l-3.052-1.017l1.017,14.919c0,0-3.391,6.103-6.103-0.339c0,0-2.034-20.005,3.391-27.126
	c0,0,8.477-16.276,2.374-34.924c-5.425-15.597-9.494-44.758-8.816-57.303c0.339-4.747,0-9.494-0.678-14.58
	c-1.017-9.155-1.695-23.057,2.374-30.856C316.146,135.968,330.048,140.376,330.048,140.376z"/>
<path style="fill:#F9B54C;" d="M278.848,82.734c-4.408,5.425-10.172,9.155-15.936,9.155c-6.442,0-12.207-3.73-16.615-9.833
	l1.356-7.799h30.177L278.848,82.734z"/>
<path style="fill:#FFD05B;" d="M287.324,43.74c0,21.701-10.85,44.079-24.413,44.079c-13.563,0-24.413-22.04-24.413-44.079
	c0-21.701,10.85-35.264,24.413-35.264C276.135,8.477,287.324,22.04,287.324,43.74z"/>
<g>
	<path style="fill:#324A5E;" d="M291.054,121.388C290.715,121.388,290.715,121.388,291.054,121.388
		C290.715,121.388,290.715,121.388,291.054,121.388z"/>
	<path style="fill:#324A5E;" d="M236.464,27.804c-10.172,30.856,9.833,46.453,9.833,46.453c-6.781-11.528-3.391-22.718-1.017-28.143
		c1.017-2.034,2.034-3.391,3.73-4.747c4.747-4.069,7.799-8.816,10.172-13.563H236.464z"/>
	<path style="fill:#324A5E;" d="M288.342,65.78c3.052-5.425,4.747-11.528,4.408-17.632c-0.339-5.764-1.017-13.224-2.713-20.344
		h-29.16c4.069,8.138,10.85,22.04,16.276,27.126c0,0,1.356-9.494,0-15.597c0,0,10.511,20.683-8.138,42.384
		c0,0-9.155,14.58-9.833,35.603c0,0,0.339,3.052-2.713,4.747c0,0,14.919,2.713,19.327-11.189c0,0,0,10.511-7.799,13.902
		c0,0,21.362,2.713,24.074-11.528c0,0,0.678,5.764-0.339,8.138c1.356-2.713,8.138-16.954-4.747-35.603
		C286.307,85.785,282.238,76.291,288.342,65.78z"/>
	<path style="fill:#324A5E;" d="M290.715,121.388C290.715,121.727,290.715,121.727,290.715,121.388
		C290.715,121.727,290.715,121.727,290.715,121.388z"/>
</g>
<g>
	<path style="fill:#FFFFFF;" d="M309.364,151.226c2.374,3.391,3.391,9.494,1.695,16.275c-1.356,6.103-4.408,11.528-7.799,14.919
		c-0.678,12.546,0,26.448,4.747,35.603c0,0,5.764,23.057,1.356,33.907v0.339l-1.017,1.695c0,0,0,0-0.339,0
		c-2.374,0.678-27.126,8.138-46.114,4.747c-20.344,3.73-46.453-4.747-46.453-4.747l-0.678-1.356c0,0,0-0.339-0.339-0.678
		c-2.374-6.442-1.695-16.276-0.339-23.735c7.799,4.408,15.936,8.477,23.057,10.511l0,0c4.747,3.391,11.528,7.121,21.023,8.816l0,0
		c0.339,0,0.678,0,1.017,0.339c0,0,0,0,0.339,0l0,0c0.339,0,0.678,0,1.017,0h0.339c3.73-0.339,6.781-3.73,6.781-7.799v-6.781
		c0-2.713-1.356-5.425-4.069-6.781c-5.764-3.052-14.919-7.799-20.683-6.781c0,0-12.546,0-24.074-7.799
		c2.713-8.816,3.052-19.666,2.374-29.838c-3.052-3.391-5.764-8.816-7.121-14.58c-0.339-1.017-0.339-2.374-0.678-3.391
		c-0.678-4.747,0-9.155,1.695-11.868c-6.103-2.374-17.971-13.902-22.04-17.971c-0.678-0.678-1.356-1.356-1.356-1.356l8.138-12.885
		l0,0c0-0.339,0.339-0.339,0.339-0.678l0.678-0.678l0,0c10.172-13.902,28.482-16.275,28.482-16.275
		c7.121,28.482,24.752,32.212,33.229,32.551c8.477-0.339,26.109-4.408,33.229-32.551c0,0,35.603,5.086,34.925,37.976
		C330.048,140.376,319.875,149.87,309.364,151.226z"/>
	<path style="fill:#FFFFFF;" d="M267.319,233.282v6.781c0,3.73-2.713,7.121-6.781,7.799h-0.339c-0.339,0-0.678,0-1.017,0l0,0
		c0,0,0,0-0.339,0c-0.339,0-0.678,0-1.017-0.339l0,0c-9.155-1.695-16.275-5.425-21.022-8.816l0,0
		c-6.781-2.034-15.258-6.103-23.057-10.511c0.678-5.764,2.034-9.833,2.034-9.833c1.017-2.034,1.695-4.069,2.373-6.103
		c11.868,7.799,24.074,7.799,24.074,7.799c5.764-1.017,15.258,3.391,20.683,6.781C265.963,227.857,267.319,230.57,267.319,233.282z"
		/>
</g>
<path style="fill:#FF7058;" d="M254.434,261.425l-49.166-11.528c-2.034-0.339-3.391-2.713-3.052-4.747l15.597-65.78
	c0.339-2.034,2.713-3.391,4.747-3.052l49.166,11.528c2.034,0.339,3.391,2.713,3.052,4.747l-15.597,65.78
	C258.842,260.408,256.808,261.764,254.434,261.425z"/>
<path style="fill:#FFD05B;" d="M267.319,233.282v6.781c0,3.73-2.713,7.121-6.781,7.799h-0.339c-0.339,0-0.678,0-1.017,0l0,0
	c0,0,0,0-0.339,0c-0.339,0-0.678,0-1.017-0.339l0,0c-9.155-1.695-16.275-5.425-21.022-8.816l0,0
	c-6.781-2.034-15.258-6.103-23.057-10.511c-6.781-3.73-13.563-7.799-18.31-11.189c-6.103-2.034-11.189-4.747-15.936-7.121
	c-7.121-2.034-6.103-11.528-6.103-11.528c-0.339-14.919,11.528-46.114,18.649-63.746c3.73,3.73,15.597,15.258,22.04,17.971
	c-1.695,3.052-2.374,7.121-1.695,11.868c-4.069,8.138-10.511,17.293-10.511,17.293l-0.678,10.511c0.339,0,0.339,2.713,0.678,5.425
	c3.391,2.713,6.103,5.425,8.477,8.138c2.374,2.713,5.086,4.747,7.799,6.442c11.868,7.799,24.074,7.799,24.074,7.799
	c5.764-1.017,15.258,3.391,20.683,6.781C265.963,227.857,267.319,230.57,267.319,233.282z"/>
<path style="fill:#2B3B4E;" d="M233.412,13.902v27.804c19.327-5.425,39.672-5.425,58.999,0c0-9.155,0-18.649,0-27.804
	C292.411,13.902,233.412,13.902,233.412,13.902z"/>
<polygon style="fill:#324A5E;" points="262.911,0 210.694,11.528 262.911,23.057 315.128,11.528 "/>
<path style="fill:#FF7058;" d="M308.347,36.62c0-5.086-2.374-9.155-4.747-9.155c-2.374,0-4.408,4.069-4.747,9.155H308.347z"/>
<g>
</g>
<g>
</g>
<g>
</g>
<g>
</g>
<g>
</g>
<g>
</g>
<g>
</g>
<g>
</g>
<g>
</g>
<g>
</g>
<g>
</g>
<g>
</g>
<g>
</g>
<g>
</g>
<g>
</g>
</svg>
