<?xml version="1.0" encoding="iso-8859-1"?>
<!-- Generator: Adobe Illustrator 19.0.0, SVG Export Plug-In . SVG Version: 6.00 Build 0)  -->
<svg version="1.1" id="Layer_1" xmlns="http://www.w3.org/2000/svg" xmlns:xlink="http://www.w3.org/1999/xlink" x="0px" y="0px"
	 viewBox="0 0 508.357 508.357" style="enable-background:new 0 0 508.357 508.357;" xml:space="preserve">
<circle style="fill:#324A5E;" cx="254.178" cy="254.391" r="217.007"/>
<path style="fill:#54C0EB;" d="M297.58,214.041h-44.758v97.992c6.103,17.632,8.477,164.111,8.816,179.709h30.856
	c-0.339-10.85,2.034-84.768,11.529-158.347C313.855,253.374,297.58,214.041,297.58,214.041z"/>
<path style="fill:#324A5E;" d="M293.172,491.403h-31.534v12.885c0,2.374,1.695,4.069,4.069,4.069h42.384v-2.034
	C308.43,498.184,301.648,491.403,293.172,491.403z"/>
<path style="fill:#54C0EB;" d="M210.777,214.041h44.758v97.992c-6.103,17.632-8.477,164.111-8.816,179.709h-30.856
	c0.339-10.85-2.034-84.768-11.528-158.347C194.501,253.374,210.777,214.041,210.777,214.041z"/>
<path style="fill:#324A5E;" d="M215.185,491.403h31.534v12.885c0,2.374-1.695,4.069-4.069,4.069h-42.723v-2.034
	C199.927,498.184,206.708,491.403,215.185,491.403z"/>
<path style="fill:#FFD05B;" d="M290.12,97.4L254.178,126.9L218.237,97.4l2.713-15.258c0,0,25.091-7.121,23.396-21.701h19.666
	c-1.695,14.919,23.396,21.701,23.396,21.701L290.12,97.4z"/>
<path style="fill:#84DBFF;" d="M310.464,271.006H198.231c3.052-9.494,3.391-67.136,3.391-101.044c0-14.58,0-24.413,0-24.413
	c-1.017-26.448-12.207-47.809-12.207-47.809c-1.017-9.833,31.534-15.258,31.534-15.258c6.781,12.207,33.229,40.689,33.229,40.689
	s26.448-28.482,33.229-40.689c0,0,32.551,5.425,31.534,15.258c0,0-10.85,21.362-11.868,47.809c0,0,0,10.172,0,24.413
	C306.735,203.53,307.074,261.172,310.464,271.006z"/>
<g>
	<path style="fill:#FFD05B;" d="M282.321,33.655c0,19.327-12.546,42.723-28.143,42.723s-28.143-23.735-28.143-42.723
		s12.546-26.787,28.143-26.787S282.321,14.327,282.321,33.655z"/>
	
		<ellipse transform="matrix(0.4388 -0.8986 0.8986 0.4388 118.2414 277.5271)" style="fill:#FFD05B;" cx="281.305" cy="44.101" rx="10.172" ry="6.103"/>
	
		<ellipse transform="matrix(0.4388 0.8986 -0.8986 0.4388 166.8919 -179.0408)" style="fill:#FFD05B;" cx="226.784" cy="44.091" rx="10.172" ry="6.103"/>
</g>
<g>
	<path style="fill:#324A5E;" d="M279.27,32.298c0,0,2.034,5.086-1.017,16.615c0,0,4.069-7.46,4.747-14.58L279.27,32.298z"/>
	<path style="fill:#324A5E;" d="M229.087,32.298c0,0-2.034,5.086,1.017,16.615c0,0-4.069-7.46-4.747-14.58L229.087,32.298z"/>
</g>
<g>
	<path style="fill:#84DBFF;" d="M277.235,1.782c-7.46-1.356-15.258-2.034-23.057-1.695c-7.799,0-15.597,0.339-23.057,1.695
		c-3.391,0.678-5.764,3.391-5.764,6.781c0,8.477,0,17.293,0,25.77c9.494-1.695,18.988-2.374,28.821-2.374
		c9.494,0,19.327,0.678,28.821,2.374c0-8.477,0-17.293,0-25.77C282.999,5.173,280.626,2.46,277.235,1.782z"/>
	<path style="fill:#84DBFF;" d="M272.827,47.218c-3.052,0.339-7.121,1.017-10.511,1.695c-5.425,1.356-10.85,1.356-16.275,0
		c-3.391-0.678-7.121-1.695-10.511-1.695c-3.052-0.339-5.425,1.695-5.764,4.747l-0.339,8.477c0,1.017,0.339,2.034,0.678,3.052
		c3.052,4.408,12.885,18.31,23.735,18.649c10.85-0.339,20.683-14.241,23.735-18.649c0.678-1.017,1.017-2.034,0.678-3.052
		l-0.339-8.477C278.252,48.913,275.54,46.878,272.827,47.218z"/>
</g>
<path style="fill:#FFD05B;" d="M329.113,160.468c0,2.374,0,4.747,0,7.121c0,1.356,0,2.713,0.339,4.069
	c0.339,1.017,0.678,2.374,1.017,3.391c1.017,4.069,1.356,7.799,1.695,11.868c0.339,3.052,0.339,6.103,0.678,9.155
	c0.339,5.425-1.695,10.511-2.034,15.597c0,0.678,0,1.695,0,2.374c0,2.034-0.339,4.069-0.678,6.103c0,1.017-0.339,2.034-0.339,2.713
	c-0.339,1.695-0.339,3.391-1.017,5.086c-2.034,5.086-2.034,10.85-1.017,16.276c0,1.017,0.339,1.695,0,2.713
	c0,0.339-0.339,1.017-0.339,1.356c-0.339,1.017-0.678,1.695-1.017,2.713c-0.678,2.374,0.339,5.425,0.678,7.799
	c0,1.695,0,2.713,0,4.069c0,2.713-1.356,5.086-1.356,7.46c0,0.678,0,1.356,0,2.034s-0.339,1.017-0.678,1.356
	c-0.678,1.695-1.695,3.052-3.052,4.408c-0.678,0.678-1.695,1.017-2.374,1.695c-1.356,1.017-2.374,3.052-4.408,3.052
	c-1.695,0.339-3.391-1.017-5.086-0.678c-0.339,0-0.339,0-0.678,0.339l-0.339,0.339c-0.339,0.339-1.356,0.339-2.034,0.339
	c-0.678,0-1.356-0.339-2.034-0.678c-1.017-0.339-1.695-1.017-2.713-1.356l-0.339-0.339c0-0.339,0-0.678,0.339-0.678
	c0.339,0,0.678,0,0.678,0c2.034,0.339,4.069-0.339,5.764-1.695c1.695-1.356,2.713-3.052,3.052-5.086c0-0.678,0-1.017,0.339-1.695
	c0.339-1.017,0.678-1.695,0.678-2.713c0-1.017-0.339-2.034-1.356-2.034c-0.339,0-0.678,0-0.678,0.339v0.339
	c-0.678,3.73-0.678,7.799-3.052,10.85c0,0.339-0.339,0.339-0.678,0.339c-0.339,0.339-0.678,0.339-1.017,0.339
	c-1.017,0-2.034,0-2.713-0.339c-0.678-0.678-1.017-1.695-0.678-2.713c0.339-1.017,0.678-2.034,1.017-3.052
	c0.339-1.017,0-2.034,0-3.052c0-0.678,0.339-1.356,0.339-2.034c0-1.017,0-2.034,0.339-3.052c0.339-4.408,2.034-8.477,4.747-11.868
	c0.339-0.339,0.678-1.017,1.356-1.017c1.695-3.052,3.391-6.442,3.73-10.172c0-1.017,0-1.695,0-2.713
	c0.339-2.713,1.017-5.086,1.356-7.799c0.339-3.391,0.339-7.121-0.339-10.511c-0.339-2.373-1.356-4.408-2.034-6.442
	c-0.339-0.678-0.339-1.356-0.678-2.374c-0.339-1.356-0.678-2.713-1.017-4.069c-0.339-1.356-0.678-2.713-0.339-4.069
	c-1.695-2.713-1.356-6.103-1.356-9.155c0-2.374,0-4.747,0-7.121c0-1.017,0-1.695,0-2.713c0-0.678,0.339-1.356,0.678-2.374
	c0.339-2.374-0.339-5.086-1.017-7.121c-1.017-2.374-2.034-4.747-2.034-7.121c2.374-1.017,4.069-3.391,6.442-4.747
	c1.017-0.339,2.034-0.678,3.052-1.017c2.374-0.678,4.408-1.356,6.781-1.695c0.678-0.339,1.695-0.339,2.374-0.339
	C327.079,159.451,328.096,160.129,329.113,160.468z"/>
<path style="fill:#54C0EB;" d="M329.792,161.485l-23.057,8.477c0-14.58,0-24.413,0-24.413c1.017-26.448,11.868-47.809,11.868-47.809
	S330.131,122.153,329.792,161.485z"/>
<path style="fill:#FFD05B;" d="M179.243,160.468c0,2.374,0,4.747,0,7.121c0,1.356,0,2.713-0.339,4.069
	c-0.339,1.017-0.678,2.374-1.017,3.391c-1.017,4.069-1.356,7.799-1.695,11.868c-0.339,3.052-0.339,6.103-0.678,9.155
	c-0.339,5.425,1.695,10.511,2.034,15.597c0,0.678,0,1.695,0,2.374c0,2.034,0.339,4.069,0.678,6.103c0,1.017,0.339,2.034,0.339,2.713
	c0.339,1.695,0.339,3.391,1.017,5.086c2.034,5.086,2.034,10.85,1.017,16.276c0,1.017-0.339,1.695,0,2.713
	c0,0.339,0.339,1.017,0.339,1.356c0.339,1.017,0.678,1.695,1.017,2.713c0.678,2.374-0.339,5.425-0.678,7.799
	c0,1.695,0,2.713,0,4.069c0,2.713,1.356,5.086,1.356,7.46c0,0.678,0,1.356,0,2.034s0.339,1.017,0.678,1.356
	c0.678,1.695,1.695,3.052,3.052,4.408c0.678,0.678,1.695,1.017,2.374,1.695c1.356,1.017,2.374,3.052,4.408,3.052
	c1.695,0.339,3.391-1.017,5.086-0.678c0.339,0,0.339,0,0.678,0.339l0.339,0.339c0.678,0.339,1.356,0.678,2.034,0.339
	c0.678,0,1.356-0.339,2.034-0.678c1.017-0.339,1.695-1.017,2.713-1.356l0.339-0.339c0-0.339,0-0.678-0.339-0.678
	c-0.339,0-0.678,0-0.678,0c-2.034,0.339-4.069-0.339-5.764-1.695s-2.713-3.052-3.052-5.086c0-0.678,0-1.017-0.339-1.695
	c-0.339-1.017-0.678-1.695-0.678-2.713c0-1.017,0.339-2.034,1.356-2.034c0.339,0,0.678,0,0.678,0.339v0.339
	c0.678,3.73,0.678,7.799,3.052,10.85c0,0.339,0.339,0.339,0.678,0.339c0.339,0.339,0.678,0.339,1.017,0.339
	c1.017,0,2.034,0,2.713-0.339c0.678-0.678,1.017-1.695,0.678-2.713c-0.339-1.017-0.678-2.034-1.017-3.052
	c-0.339-1.017,0-2.034,0-3.052c0-0.678-0.339-1.356-0.339-2.034c0-1.017,0-2.034-0.339-3.052c-0.339-4.408-2.034-8.477-4.747-11.868
	c-0.339-0.339-0.678-1.017-1.356-1.017c-1.695-3.052-3.391-6.442-3.73-10.172c0-1.017,0-1.695,0-2.713
	c-0.339-2.713-1.017-5.086-1.356-7.799c-0.339-3.391-0.339-7.121,0.339-10.511c0.339-2.373,1.356-4.408,2.034-6.442
	c0.339-0.678,0.339-1.356,0.678-2.374c0.339-1.356,0.678-2.713,1.017-4.069c0.339-1.356,0.678-2.713,0.339-4.069
	c1.695-2.713,1.356-6.103,1.356-9.155c0-2.374,0-4.747,0-7.121c0-1.017,0-1.695,0-2.713c0-0.678-0.339-1.356-0.678-2.374
	c-0.339-2.374,0.339-5.086,1.017-7.121c1.017-2.374,2.034-4.747,2.034-7.121c-2.374-1.017-4.069-3.391-6.442-4.747
	c-1.017-0.339-2.034-0.678-3.052-1.017c-2.374-0.678-4.408-1.356-6.781-1.695c-0.678-0.339-1.695-0.339-2.374-0.339
	C181.278,159.451,180.26,160.129,179.243,160.468z"/>
<path style="fill:#54C0EB;" d="M201.622,169.962l-22.718-8.477c-0.339-39.332,10.511-64.085,10.511-64.085
	s10.85,21.362,12.207,47.809C201.283,145.549,201.622,155.382,201.622,169.962z"/>
<g>
</g>
<g>
</g>
<g>
</g>
<g>
</g>
<g>
</g>
<g>
</g>
<g>
</g>
<g>
</g>
<g>
</g>
<g>
</g>
<g>
</g>
<g>
</g>
<g>
</g>
<g>
</g>
<g>
</g>
</svg>
