<?xml version="1.0" encoding="iso-8859-1"?>
<!-- Generator: Adobe Illustrator 19.0.0, SVG Export Plug-In . SVG Version: 6.00 Build 0)  -->
<svg version="1.1" id="Layer_1" xmlns="http://www.w3.org/2000/svg" xmlns:xlink="http://www.w3.org/1999/xlink" x="0px" y="0px"
	 viewBox="0 0 508.609 508.609" style="enable-background:new 0 0 508.609 508.609;" xml:space="preserve">
<circle style="fill:#324A5E;" cx="254.305" cy="254.305" r="217.007"/>
<g>
	<path style="fill:#E6E9EE;" d="M338.056,210.564c-4.069-63.407-20.005-99.009-20.005-99.009s-8.138,34.246-12.207,71.205
		l8.477,27.126l-10.511,7.121l-4.747,3.391v35.264c2.713-1.695,5.425-3.052,8.138-4.747c10.172-6.442,17.632-13.563,23.057-18.988
		C335.682,226.162,338.395,218.363,338.056,210.564z"/>
	<path style="fill:#E6E9EE;" d="M208.53,219.38l-3.73-2.374l-10.511-7.121l8.477-27.126c-4.069-36.959-12.207-71.205-12.207-71.205
		s-15.597,35.603-20.005,99.009c-0.678,7.799,2.374,15.597,7.799,21.362c5.086,5.425,12.885,12.207,23.057,18.988
		c2.034,1.356,4.408,2.713,6.781,4.069V219.38H208.53z"/>
</g>
<path style="fill:#FFFFFF;" d="M308.217,254.983c-13.902-43.401,9.833-143.428,9.833-143.428
	c-14.919-14.58-44.419-24.413-44.419-24.413l-1.695,13.224h-35.264c-0.678-4.069-1.017-8.816-1.695-13.224l0,0l0,0
	c0,0-29.499,10.172-44.419,24.413c0,0,23.735,100.026,9.833,143.428c0,0-1.017,6.442-2.034,14.919
	c-0.678,4.069,2.713,7.46,6.442,7.46h99.348c4.069,0,7.121-3.391,6.442-7.46C309.234,261.425,308.217,254.983,308.217,254.983z"/>
<g>
	<path style="fill:#FFD05B;" d="M254.305,105.791L254.305,105.791L254.305,105.791z"/>
	<path style="fill:#FFD05B;" d="M267.868,62.389l-13.224-0.678l0,0l0,0l0,0l0,0l-13.224,0.678c0,0,1.017,11.868-4.747,22.718v14.919
		l17.971,0.339l17.971-0.339V83.412C266.85,73.24,267.868,62.389,267.868,62.389z"/>
	<path style="fill:#FFD05B;" d="M254.305,105.791L254.305,105.791L254.305,105.791z"/>
	<path style="fill:#FFD05B;" d="M254.305,105.791L254.305,105.791L254.305,105.791z"/>
	<path style="fill:#FFD05B;" d="M254.305,105.791L254.305,105.791L254.305,105.791z"/>
</g>
<polygon style="fill:#84DBFF;" points="202.766,272.615 200.731,303.131 205.817,493.012 234.977,493.012 254.305,337.377 
	273.632,493.012 302.792,493.012 307.878,303.131 305.844,272.615 "/>
<path style="fill:#F9B54C;" d="M269.224,76.97l-1.017,1.356c-2.373,3.052-5.764,4.747-9.494,5.425L256,84.09
	c-1.356,0.339-2.713,0.339-4.069,0l-2.713-0.339c-3.73-0.678-7.121-2.374-9.494-5.425l-0.678-0.678
	c2.374-8.138,1.695-15.258,1.695-15.258l13.224-0.678l0,0l0,0l0,0l0,0l13.224,0.678C267.868,62.389,267.189,69.171,269.224,76.97z"
	/>
<g>
	<path style="fill:#FFD05B;" d="M230.57,35.942l2.374,26.109c0.339,3.052,1.356,5.764,3.391,8.138l3.391,4.408
		c2.374,3.052,5.764,4.747,9.494,5.425l2.374,0.339c1.356,0.339,2.713,0.339,4.069,0l2.373-0.339
		c3.73-0.678,7.121-2.374,9.494-5.425l3.391-4.408c2.034-2.374,3.052-5.086,3.391-8.138l2.374-26.109
		C276.683,35.942,230.57,35.942,230.57,35.942z"/>
	<path style="fill:#FFD05B;" d="M282.109,44.419c-1.356,3.391-4.069,5.086-6.103,4.408c-2.034-0.678-3.052-4.069-1.695-7.46
		s4.069-5.086,6.103-4.408C282.448,37.976,283.126,41.367,282.109,44.419z"/>
	<path style="fill:#FFD05B;" d="M225.823,44.419c1.356,3.391,4.069,5.086,6.103,4.408c2.034-0.678,3.052-4.069,1.695-7.46
		s-4.069-5.086-6.103-4.408C225.483,37.976,224.805,41.367,225.823,44.419z"/>
</g>
<g>
	<path style="fill:#324A5E;" d="M231.926,35.942h-6.442c3.052,5.425,6.781,12.885,6.781,12.885
		C231.248,44.079,231.248,39.672,231.926,35.942z"/>
	<path style="fill:#324A5E;" d="M276.344,35.942h6.442c-3.052,5.425-6.781,12.885-6.781,12.885
		C277.022,44.079,277.022,39.672,276.344,35.942z"/>
</g>
<g>
	<path style="fill:#2B3B4E;" d="M302.792,493.012h-28.821v11.868c0,2.034,1.695,3.73,3.73,3.73h38.993v-2.034
		C316.355,499.115,310.252,493.012,302.792,493.012z"/>
	<path style="fill:#2B3B4E;" d="M206.156,493.012h28.821v11.868c0,2.034-1.695,3.73-3.73,3.73h-38.993v-2.034
		C192.254,499.115,198.358,493.012,206.156,493.012z"/>
</g>
<g>
	<path style="fill:#E6E9EE;" d="M271.258,81.717c-2.713,11.528-12.546,16.954-16.954,18.649
		c-4.069-1.695-13.902-7.121-16.954-18.649c0,0-7.46,7.46,2.034,29.16c0,0,8.477-9.833,14.919-9.833
		c6.442,0.339,14.919,9.833,14.919,9.833C278.379,89.176,271.258,81.717,271.258,81.717z"/>
	<path style="fill:#E6E9EE;" d="M223.788,35.942c3.052,6.442,9.494,10.511,16.615,10.511h27.465c7.121,0,13.563-4.069,16.615-10.511
		l-29.838-4.408L223.788,35.942z"/>
</g>
<path style="fill:#FFD05B;" d="M255.322,2.034h-2.713c-0.678,0-1.017-0.339-1.017-1.017l0,0c0-0.678,0.339-1.017,1.017-1.017h2.713
	c0.678,0,1.017,0.339,1.017,1.017l0,0C256.339,1.695,256,2.034,255.322,2.034z"/>
<path style="fill:#F1543F;" d="M285.16,35.603c0,1.017-1.017,2.034-2.373,1.695c-3.391-0.678-7.799-1.356-12.546-1.695
	c-5.086-0.339-10.511-0.678-16.615-0.678c-5.764,0-11.528,0.339-16.615,0.678c-4.747,0.339-9.155,1.017-12.546,1.695
	c-1.017,0.339-2.034-0.678-2.374-1.695c-1.695-32.551,25.091-33.907,30.517-33.907l0,0c0.339,0,0.339,0,0.678,0l0,0l0,0
	c0,0,0.339,0,0.678,0C260.069,1.695,286.856,3.052,285.16,35.603z"/>
<path style="fill:#FF7058;" d="M270.58,35.603c-5.086-0.339-10.511-0.678-16.615-0.678c-5.764,0-11.528,0.339-16.615,0.678
	c-0.678-31.534,12.207-33.907,15.597-33.907l0,0c0.339,0,0.678,0,0.678,0l0,0l0,0c0,0,0.339,0,0.678,0
	C258.034,1.695,270.919,4.069,270.58,35.603z"/>
<g>
	<path style="fill:#84DBFF;" d="M287.873,92.906c-1.356,13.563-5.425,31.534-13.563,54.93h-3.391
		c8.477-25.43,12.207-44.079,12.885-56.625C285.16,91.55,286.517,92.228,287.873,92.906z"/>
	<path style="fill:#84DBFF;" d="M237.69,147.836h-3.391c-8.138-23.396-12.207-41.706-13.563-54.93
		c1.356-0.678,2.713-1.356,4.069-1.695C225.483,103.756,229.213,122.405,237.69,147.836z"/>
</g>
<path style="fill:#E6E9EE;" d="M278.379,185.134H230.23c-2.374,0-4.408-2.034-4.408-4.408v-29.499c0-2.374,2.034-4.408,4.408-4.408
	h47.809c2.374,0,4.408,2.034,4.408,4.408v29.499C282.448,183.099,280.752,185.134,278.379,185.134z"/>
<rect x="226.162" y="157.33" style="fill:#324A5E;" width="56.625" height="20.683"/>
<circle style="fill:#FFFFFF;" cx="254.644" cy="166.146" r="15.258"/>
<circle style="fill:#84DBFF;" cx="254.644" cy="166.146" r="11.868"/>
<circle style="fill:#54C0EB;" cx="254.644" cy="166.146" r="8.816"/>
<rect x="268.207" y="150.209" style="fill:#84DBFF;" width="9.833" height="4.408"/>
<g>
	<circle style="fill:#FFFFFF;" cx="250.575" cy="160.042" r="2.374"/>
	<circle style="fill:#FFFFFF;" cx="253.966" cy="164.789" r="1.356"/>
</g>
<g>
</g>
<g>
</g>
<g>
</g>
<g>
</g>
<g>
</g>
<g>
</g>
<g>
</g>
<g>
</g>
<g>
</g>
<g>
</g>
<g>
</g>
<g>
</g>
<g>
</g>
<g>
</g>
<g>
</g>
</svg>
