<?xml version="1.0" encoding="iso-8859-1"?>
<!-- Generator: Adobe Illustrator 19.0.0, SVG Export Plug-In . SVG Version: 6.00 Build 0)  -->
<svg version="1.1" id="Layer_1" xmlns="http://www.w3.org/2000/svg" xmlns:xlink="http://www.w3.org/1999/xlink" x="0px" y="0px"
	 viewBox="0 0 508.831 508.831" style="enable-background:new 0 0 508.831 508.831;" xml:space="preserve">
<circle style="fill:#84DBFF;" cx="254.416" cy="254.305" r="217.007"/>
<path style="fill:#FFD05B;" d="M295.443,350.262c0,0,12.207,44.758-2.713,90.532c0,0-4.408,37.976-2.374,48.826
	c0,0,3.052,14.919-20.683,10.172c-3.052-0.678-5.086-3.052-5.086-5.764c0.339-9.155,1.695-29.838,6.103-32.551
	c0,0,7.121-13.563,1.017-35.942c0,0-5.764-43.401-3.73-54.591c0,0-8.138-12.207-7.46-23.396L295.443,350.262z"/>
<path style="fill:#F1543F;" d="M264.927,488.265c0,0-9.833,23.057,8.816,20.344c0.339,0,0.339,0,0.678,0
	c15.936-2.713,17.293-3.052,17.971-6.781c0.339-1.695,0.339-3.73,0-5.425c-0.678-3.73-1.695-10.85-2.374-15.936
	C290.018,480.127,283.237,502.845,264.927,488.265z"/>
<path style="fill:#FFD05B;" d="M212.71,350.262c0,0-12.207,44.758,2.713,90.532c0,0,4.408,37.976,2.373,48.826
	c0,0-3.052,14.919,20.683,10.172c3.052-0.678,5.086-3.052,5.086-5.764c-0.339-9.155-1.695-29.838-6.103-32.551
	c0,0-7.121-13.563-1.017-35.942c0,0,5.764-43.401,3.73-54.591c0,0,8.138-12.207,7.46-23.396L212.71,350.262z"/>
<path style="fill:#F1543F;" d="M243.226,488.265c0,0,9.833,23.057-8.816,20.344c-0.339,0-0.339,0-0.678,0
	c-15.936-2.713-17.293-3.052-17.971-6.781c-0.339-1.695-0.339-3.73,0-5.425c0.678-3.73,1.695-10.85,2.373-15.936
	C218.135,480.127,224.916,502.845,243.226,488.265z"/>
<g>
	<path style="fill:#FFD05B;" d="M282.22,87.481l-5.764,35.603h-45.097l-5.764-35.603c0,0,10.511-1.356,15.597-12.885
		c1.356-3.052,2.373-6.442,2.713-10.85h20.344c0.339,4.747,1.356,8.816,3.052,11.868C272.047,86.125,282.22,87.481,282.22,87.481z"
		/>
	<path style="fill:#FFD05B;" d="M324.604,218.024c1.017-10.511-2.034-21.023-3.391-31.195c-3.391-23.396-4.747-46.792-3.73-70.527
		c0-0.678,0-1.695-0.339-2.713h-17.632c0,0,0,0-0.339,0.339c0,0-6.442,36.959-6.442,38.993c0,2.374,0.339,4.747,1.017,7.121
		c2.374,11.528,4.408,22.718,6.781,34.246c0.339,2.374,5.425,26.448,7.121,36.281c1.356,7.121,2.713,14.241,3.052,21.362
		c0,11.189-2.713,22.379,1.356,32.89c2.374-4.408,3.052-9.494,2.374-14.241c5.086,1.695,7.46,6.781,6.781,11.528
		c-0.678,4.408-4.069,8.138-7.46,11.868c1.356,0.678,3.052,1.017,4.747,0.339c1.017-0.339,1.356-1.017,2.034-1.695
		c9.833-10.172,12.885-24.413,8.816-36.959C328.333,253.626,322.23,243.454,324.604,218.024z"/>
	<path style="fill:#FFD05B;" d="M184.227,218.024c-1.017-10.511,2.034-21.023,3.391-31.195c3.391-23.396,4.747-46.792,3.73-70.527
		c0-0.678,0-1.695,0.339-2.713h17.632c0,0,0,0,0.339,0.339c0,0,6.442,36.959,6.442,38.993c0,2.374-0.339,4.747-1.017,7.121
		c-2.374,11.528-4.408,22.718-6.781,34.246c-0.339,2.374-5.425,26.448-7.121,36.281c-1.356,7.121-2.713,14.241-3.052,21.362
		c0,11.189,2.713,22.379-1.356,32.89c-2.374-4.408-3.052-9.494-2.374-14.241c-5.086,1.695-7.46,6.781-6.781,11.528
		c0.678,4.408,4.069,8.138,7.46,11.868c-1.356,0.678-3.052,1.017-4.747,0.339c-1.017-0.339-1.356-1.017-2.034-1.695
		c-9.833-10.172-12.885-24.413-8.816-36.959C180.498,253.626,186.601,243.454,184.227,218.024z"/>
</g>
<path style="fill:#FF7058;" d="M292.053,154.956c4.408-3.73,7.799-9.494,8.816-15.597c1.017-6.442-0.678-12.207-4.069-15.936
	l25.43-9.155l-16.954-20.344l-22.718-6.103l-13.902,31.534h-28.482l-14.58-31.873l-22.718,6.103l-16.954,20.344l25.43,9.155
	c-3.391,3.73-5.086,9.494-4.069,15.936c1.017,6.103,4.408,11.868,8.816,15.597c1.356,12.885,1.695,26.109-1.017,31.195
	c-6.103,10.85-22.04,38.654-3.391,166.824h40.689h3.73H296.8c18.649-128.17,2.713-155.974-3.391-166.824
	C290.018,181.065,290.696,167.841,292.053,154.956z"/>
<path style="fill:#F9B54C;" d="M266.961,75.613c-3.73,4.069-8.138,6.442-12.546,6.442c-4.747,0-9.494-2.713-13.224-7.121
	c1.356-3.052,2.373-6.442,2.713-10.85h20.344C264.588,68.493,265.605,72.562,266.961,75.613z"/>
<path style="fill:#FFD05B;" d="M279.846,37.976c0,17.632-11.529,41.028-25.43,41.028c-13.902,0-25.43-23.396-25.43-41.028
	s11.528-23.057,25.43-23.057C268.318,14.919,279.846,20.344,279.846,37.976z"/>
<circle style="fill:#2B3B4E;" cx="254.416" cy="13.563" r="13.563"/>
<path style="fill:#324A5E;" d="M246.278,14.919c13.224-1.695,43.062-1.356,31.534,36.62c0,0-1.356-19.666-15.258-14.241
	c0,0,3.052,4.747,6.781,4.747c0,0-20.344,3.391-27.465-10.511c0,0-12.546,6.442-10.511,20.005c0,0-9.494-16.954,2.034-29.499
	C237.123,17.971,240.853,15.597,246.278,14.919z"/>
<g>
	<rect x="277.473" y="139.698" style="fill:#FFFFFF;" width="4.747" height="3.391"/>
	<rect x="225.594" y="139.698" style="fill:#FFFFFF;" width="4.747" height="3.391"/>
</g>
<path style="fill:#E6E9EE;" d="M276.794,169.197H231.02c-1.356,0-2.373-1.017-2.373-2.374v-29.16c0-1.356,1.017-2.374,2.373-2.374
	h46.114c1.356,0,2.374,1.017,2.374,2.374v29.16C279.168,168.18,278.151,169.197,276.794,169.197z"/>
<rect x="228.646" y="143.767" style="fill:#324A5E;" width="50.522" height="18.988"/>
<circle style="fill:#ACB3BA;" cx="259.502" cy="152.922" r="12.207"/>
<circle style="fill:#84DBFF;" cx="259.502" cy="152.922" r="9.155"/>
<circle style="fill:#54C0EB;" cx="259.502" cy="152.922" r="6.103"/>
<g>
	<circle style="fill:#FFFFFF;" cx="256.789" cy="147.836" r="2.034"/>
	<circle style="fill:#FFFFFF;" cx="262.892" cy="157.33" r="1.356"/>
</g>
<circle style="fill:#FF7058;" cx="243.904" cy="147.158" r="1.356"/>
<rect x="266.961" y="137.325" style="fill:#FFFFFF;" width="8.477" height="3.73"/>
<g>
	<path style="fill:#324A5E;" d="M282.559,141.393c0,0.678-0.339,1.017-1.017,1.017l0,0c-0.678,0-1.017-0.339-1.017-1.017
		c-0.339-6.781-1.017-18.31-2.034-29.838c-1.356-11.868-3.391-23.396-6.103-29.16c-0.678-1.356-1.356-2.374-2.034-3.052
		c-0.339-0.339-0.678-0.339-0.678-0.339c-0.339-0.678-1.017-1.356-1.356-2.034l0,0c1.356-0.339,2.374,0,3.391,1.017
		c1.695,1.356,3.052,3.73,4.069,7.121c1.695,5.086,3.052,11.528,4.069,18.649C281.88,120.71,282.559,140.037,282.559,141.393z"/>
	<path style="fill:#324A5E;" d="M240.175,76.97c-0.339,0.678-1.017,1.356-1.356,2.034c-0.339,0-0.678,0.339-1.017,0.339
		c-0.678,0.678-1.356,1.695-2.034,3.052c-2.713,5.764-4.747,17.293-6.103,29.16c-1.356,11.528-2.034,23.396-2.034,30.177
		c0,0.678-0.678,1.017-1.017,1.017l0,0c-0.678,0-1.017-0.678-1.017-1.017c0-1.356,0.678-20.683,3.052-37.976
		c1.017-7.121,2.374-13.902,4.069-18.649c1.356-3.391,2.713-6.103,4.069-7.121C237.462,76.97,238.818,76.63,240.175,76.97
		C239.835,76.97,239.835,76.97,240.175,76.97z"/>
</g>
<g>
</g>
<g>
</g>
<g>
</g>
<g>
</g>
<g>
</g>
<g>
</g>
<g>
</g>
<g>
</g>
<g>
</g>
<g>
</g>
<g>
</g>
<g>
</g>
<g>
</g>
<g>
</g>
<g>
</g>
</svg>
