<?xml version="1.0" encoding="iso-8859-1"?>
<!-- Generator: Adobe Illustrator 19.0.0, SVG Export Plug-In . SVG Version: 6.00 Build 0)  -->
<svg version="1.1" id="Layer_1" xmlns="http://www.w3.org/2000/svg" xmlns:xlink="http://www.w3.org/1999/xlink" x="0px" y="0px"
	 viewBox="0 0 508.389 508.389" style="enable-background:new 0 0 508.389 508.389;" xml:space="preserve">
<g>
	<circle style="fill:#FFD05B;" cx="254.195" cy="254.424" r="217.007"/>
	<path style="fill:#FFD05B;" d="M254.195,103.197L254.195,103.197L254.195,103.197z"/>
	<path style="fill:#FFD05B;" d="M267.758,59.796l-13.224-0.678l0,0l0,0l0,0l0,0l-13.224,0.678c0,0,1.017,11.868-5.086,22.718v14.919
		l18.31,5.764l0,0l0,0l17.632-5.425V81.157C266.74,70.646,267.758,59.796,267.758,59.796z"/>
	<path style="fill:#FFD05B;" d="M254.195,103.197L254.195,103.197L254.195,103.197z"/>
	<path style="fill:#FFD05B;" d="M254.195,103.197L254.195,103.197L254.195,103.197z"/>
</g>
<path style="fill:#FFFFFF;" d="M271.826,80.818v16.615l-17.632,5.425l0,0l0,0l-18.31-5.764V82.175
	c1.356-2.374,2.374-5.086,3.052-7.46c2.373-8.138,1.695-15.258,1.695-15.258l13.224-0.678l0,0l0,0l0,0l0,0l13.224,0.678
	c0,0-0.678,6.781,1.695,14.58C269.792,76.41,270.809,78.784,271.826,80.818z"/>
<path style="fill:#FFD05B;" d="M254.195,103.197L254.195,103.197L254.195,103.197z"/>
<polygon style="fill:#324A5E;" points="304.716,251.372 254.873,251.372 253.516,251.372 203.673,251.372 200.282,301.894 
	205.368,492.792 234.867,492.792 254.195,336.479 273.522,492.792 303.021,492.792 308.107,301.894 "/>
<polygon style="fill:#2B3B4E;" points="201.977,274.09 201.299,285.618 307.09,285.618 306.412,274.09 "/>
<path style="fill:#F1543F;" d="M338.624,208.649c0.678,7.799-2.374,15.597-7.799,21.362c-5.425,5.764-13.224,12.546-23.396,19.327
	c-4.747,3.052-10.511,6.442-16.615,9.155l-9.833-27.465l23.057-15.936l10.511-7.121l-8.477-27.126
	c4.069-36.959,12.207-71.544,12.207-71.544S334.216,144.903,338.624,208.649z"/>
<path style="fill:#FF7058;" d="M310.82,268.665c0.678,4.069-2.713,7.46-6.781,7.46h-99.687c-4.069,0-7.121-3.391-6.442-7.46
	c1.017-8.816,2.034-15.258,2.034-15.258c13.902-43.74-9.833-144.445-9.833-144.445c37.637-7.121,44.758-24.752,44.758-24.752
	c0.678,4.747,1.017,9.155,1.695,13.563h35.942c0.678-4.408,1.017-8.816,1.695-13.563c0,0,7.121,17.632,44.758,24.752
	c0,0-23.735,100.366-9.833,144.445C308.446,253.406,309.463,259.849,310.82,268.665z"/>
<path style="fill:#E6E9EE;" d="M269.453,74.376l-1.017,1.356c-2.374,3.052-5.764,4.747-9.833,5.425l-2.713,0.339
	c-1.356,0.339-2.713,0.339-4.069,0l-2.713-0.339c-3.73-0.678-7.121-2.374-9.833-5.425l-0.339-1.017
	c2.373-8.138,1.695-15.258,1.695-15.258l13.224-0.678l0,0l0,0l0,0l0,0l13.224,0.678C267.758,59.796,267.079,66.238,269.453,74.376z"
	/>
<g>
	<path style="fill:#FFFFFF;" d="M253.856,16.394h-25.43l4.069,42.723c0.339,3.052,1.356,5.764,3.391,8.138l3.391,4.408
		c2.373,3.052,5.764,4.747,9.833,5.425h9.155c3.73-0.678,7.121-2.374,9.833-5.425l3.391-4.408c2.034-2.374,3.052-5.086,3.391-8.138
		l4.069-42.723C278.947,16.394,253.856,16.394,253.856,16.394z"/>
	<path style="fill:#FFFFFF;" d="M281.999,41.486c-1.356,3.391-4.069,5.086-6.103,4.408c-2.034-0.678-3.052-4.069-1.695-7.46
		s4.069-5.086,6.103-4.408C282.677,35.043,283.355,38.434,281.999,41.486z"/>
	<path style="fill:#FFFFFF;" d="M225.712,41.486c1.356,3.391,4.069,5.086,6.103,4.408c2.034-0.678,3.052-4.069,1.695-7.46
		c-1.356-3.391-4.069-5.086-6.103-4.408C225.034,35.043,224.356,38.434,225.712,41.486z"/>
</g>
<g>
	<path style="fill:#2B3B4E;" d="M303.021,492.792h-29.16v11.868c0,2.034,1.695,3.73,3.73,3.73h39.332v-2.034
		C316.584,499.234,310.481,492.792,303.021,492.792z"/>
	<path style="fill:#2B3B4E;" d="M205.368,492.792h29.16v11.868c0,2.034-1.695,3.73-3.73,3.73h-38.993v-2.034
		C191.805,499.234,197.908,492.792,205.368,492.792z"/>
</g>
<g>
	<path style="fill:#F1543F;" d="M271.148,79.123c0,0,7.46,7.46-2.034,29.16c0,0-10.511-11.868-16.954-9.833
		C252.16,98.45,267.418,94.042,271.148,79.123z"/>
	<path style="fill:#F1543F;" d="M237.241,79.123c0,0-7.46,7.46,2.034,29.16c0,0,10.511-11.868,16.954-9.833
		C256.229,98.45,240.632,94.042,237.241,79.123z"/>
</g>
<polygon style="fill:#324A5E;" points="275.556,177.793 245.04,177.793 245.04,168.638 275.556,168.638 "/>
<path style="fill:#E6E9EE;" d="M282.677,239.843H237.58c-1.695,0-3.052-1.356-3.052-2.713l-2.713-61.711
	c0-1.695,1.356-3.391,3.052-3.391h50.522c1.695,0,3.052,1.356,3.052,3.391l-2.713,61.711
	C285.728,238.826,284.372,239.843,282.677,239.843z"/>
<g>
	<path style="fill:#ACB3BA;" d="M273.522,175.081c0,0.678-0.678,1.356-1.356,1.356c-0.678,0-1.356-0.678-1.356-1.356
		s0.678-1.356,1.356-1.356C272.844,173.724,273.522,174.063,273.522,175.081z"/>
	<path style="fill:#ACB3BA;" d="M249.787,175.081c0,0.678-0.678,1.356-1.356,1.356c-0.678,0-1.356-0.678-1.356-1.356
		s0.678-1.356,1.356-1.356C249.108,173.724,249.787,174.063,249.787,175.081z"/>
</g>
<path style="fill:#FFD05B;" d="M247.413,206.614l-12.207-3.73c-1.017-0.339-2.034-0.339-2.713,0
	c-3.391,1.017-7.121,2.034-10.511,1.695l-8.138-0.678l-3.73,12.885l7.121,3.73c3.052,1.695,5.764,4.408,8.138,7.121
	c0.678,0.678,1.356,1.356,2.373,1.356l12.207,3.73c2.713,0.678,5.764-0.678,6.442-3.391l4.747-16.275
	C251.821,210.344,250.126,207.292,247.413,206.614z"/>
<path style="fill:#F1543F;" d="M169.765,197.798c-0.678,7.799,2.374,15.597,7.799,21.362c5.425,5.425,41.367,8.477,41.367,8.477
	l9.833-27.465l-29.838-11.528l2.713-8.138c-4.069-36.959-12.207-71.544-12.207-71.544S174.173,134.053,169.765,197.798z"/>
<path style="fill:#324A5E;" d="M237.241,17.412c0,0,1.695,7.121-4.747,15.597c0,0-2.373,10.172-0.678,13.902
	c0,0-14.919-30.856,2.034-36.959c0,0,21.362-25.091,44.419,4.408c0,0,4.408,8.816,0,22.718c0,0-2.373,9.494-1.695,11.868
	c0,0-3.052-3.391-2.034-9.833c0.339-3.052,0.339-6.442-0.339-9.494c-1.017-3.391-2.713-7.46-5.764-9.494
	c0,0,1.017,6.103,2.713,6.442C270.809,26.567,245.379,29.618,237.241,17.412z"/>
<g>
</g>
<g>
</g>
<g>
</g>
<g>
</g>
<g>
</g>
<g>
</g>
<g>
</g>
<g>
</g>
<g>
</g>
<g>
</g>
<g>
</g>
<g>
</g>
<g>
</g>
<g>
</g>
<g>
</g>
</svg>
