<?xml version="1.0" encoding="iso-8859-1"?>
<!-- Generator: Adobe Illustrator 19.0.0, SVG Export Plug-In . SVG Version: 6.00 Build 0)  -->
<svg version="1.1" id="Layer_1" xmlns="http://www.w3.org/2000/svg" xmlns:xlink="http://www.w3.org/1999/xlink" x="0px" y="0px"
	 viewBox="0 0 508.612 508.612" style="enable-background:new 0 0 508.612 508.612;" xml:space="preserve">
<circle style="fill:#FFD05B;" cx="254.306" cy="254.307" r="217.007"/>
<g>
	<path style="fill:#FFFFFF;" d="M364.844,187.51l1.356,13.224c18.988-0.678,26.448-13.224,27.465-14.919L364.844,187.51z"/>
	<path style="fill:#FFFFFF;" d="M163.434,263.462c-0.339,5.425,0.678,12.546,4.069,21.023c0.678,1.695,3.052,2.374,4.408,1.017
		c0.678-0.678,1.017-1.695,0.678-2.713c-1.356-3.73-5.425-13.902-0.678-15.258c2.374-0.678,4.408,1.695,4.069,4.069l-0.339,2.034
		c0.339,2.034,2.713,2.713,4.069,1.356c0.678-0.339,1.017-1.017,1.017-2.034c0-1.695,0-5.425-1.017-9.494H163.434L163.434,263.462z"
		/>
	<path style="fill:#FFFFFF;" d="M364.505,124.442v-22.04h-11.189v22.04c0,2.713-1.356,5.425-3.391,7.121
		c-2.034,1.695-3.391,4.408-3.391,7.46v38.654c0,2.374,2.034,4.408,4.408,4.408h16.615c2.374,0,4.408-2.034,4.408-4.408v-38.315
		c0-3.052-1.356-5.764-3.391-7.46C365.861,129.868,364.505,127.494,364.505,124.442z"/>
</g>
<g>
	<rect x="351.62" y="99.69" style="fill:#84DBFF;" width="14.241" height="7.799"/>
	<rect x="349.585" y="146.143" style="fill:#84DBFF;" width="21.701" height="20.683"/>
</g>
<g>
	<path style="fill:#FFFFFF;" d="M387.901,164.792c0,4.408,0,13.563-2.373,17.293h6.781c-2.034-3.391-2.373-12.546-2.373-17.293
		c5.086-0.678,8.816-6.781,8.816-14.241c0-3.052-0.678-6.103-2.034-8.477H380.78c-1.356,2.374-2.034,5.086-2.034,8.477
		C378.746,158.011,382.815,164.114,387.901,164.792z"/>
	<path style="fill:#FFFFFF;" d="M411.636,164.792c0,4.408,0,13.563-2.374,17.293h6.781c-2.034-3.391-2.374-12.546-2.374-17.293
		c5.086-0.678,8.816-6.781,8.816-14.241c0-3.052-0.678-6.103-2.034-8.477h-15.936c-1.356,2.374-2.034,5.086-2.034,8.477
		C402.82,158.011,406.55,164.114,411.636,164.792z"/>
</g>
<path style="fill:#324A5E;" d="M368.573,185.136l-42.384,4.069c-3.391-24.752-7.46-44.079-7.46-44.079
	c-6.442-34.924-27.804-44.419-42.723-46.453c-4.408-0.678-9.155-1.695-13.224-3.391l-2.034-0.678c0,0.339,0,1.017-0.339,1.356
	c-1.017,5.425-7.121,9.833-14.58,9.833c-7.46,0-13.563-4.408-14.58-9.833c0-0.339-0.339-1.017-0.339-1.356l-2.034,0.678
	c-4.408,1.695-8.816,2.713-13.224,3.391c-14.919,2.034-36.281,11.528-42.384,46.792c0,0-15.597,75.274-12.546,118.336h20.005
	c0,0,1.695-69.849,16.954-98.331c1.695,8.816,2.374,17.632,2.713,26.787h90.193c0.339-8.816,1.356-17.971,2.713-26.787
	l10.172,33.229l0,0c1.017,6.442,6.442,16.275,30.517,10.511c0,0,31.534-3.73,37.298-7.799L368.573,185.136z"/>
<path style="fill:#FF7058;" d="M276.685,490.98c0,7.46-3.73,17.632-8.138,17.632s-8.138-10.172-8.138-17.632s3.73-9.494,8.138-9.494
	S276.685,483.521,276.685,490.98z"/>
<path style="fill:#E6E9EE;" d="M262.105,474.026c1.017,10.172,1.695,16.276,1.695,16.276c0,6.442,2.374,9.833,4.747,10.172
	c2.373-0.678,4.408-7.46,4.747-10.172c0,0,0.678-6.103,1.695-16.276H262.105z"/>
<polygon style="fill:#324A5E;" points="277.024,479.113 286.179,415.367 250.915,417.74 260.07,479.113 "/>
<path style="fill:#FF7058;" d="M214.973,490.98c0,7.46,3.73,17.632,8.138,17.632s8.138-10.172,8.138-17.632s-3.73-9.494-8.138-9.494
	S214.973,483.521,214.973,490.98z"/>
<path style="fill:#E6E9EE;" d="M216.669,474.026c1.017,10.172,1.695,16.276,1.695,16.276c0.339,2.713,2.373,9.833,4.747,10.172
	c2.373-0.678,4.747-3.73,4.747-10.172c0,0,0.678-6.103,1.695-16.276H216.669z"/>
<polygon style="fill:#324A5E;" points="214.973,479.113 205.819,415.367 241.082,417.74 231.927,479.113 "/>
<path style="fill:#FFD05B;" d="M260.748,94.604L260.748,94.604c0,0.678,0,1.017-0.339,1.356c-1.017,5.425-7.121,9.833-14.58,9.833
	c-7.46,0-13.563-4.408-14.58-9.833c0-0.339-0.339-1.017-0.339-1.356l0,0c0.678-0.339,2.373-2.713,3.052-4.408
	c4.069-9.833,5.425-20.683,5.425-20.683h12.207c0,0,1.017,10.85,5.425,20.683C258.036,91.891,259.392,93.248,260.748,94.604
	L260.748,94.604z"/>
<path style="fill:#FFFFFF;" d="M260.748,94.604L260.748,94.604c0,0.678,0,1.017-0.339,1.356c-1.017,5.425-7.121,9.833-14.58,9.833
	c-7.46,0-13.563-4.408-14.58-9.833c0-0.339-0.339-1.017-0.339-1.356l0,0c0.678-0.339,2.373-2.713,3.052-4.408
	c0.339-0.339,0.339-0.678,0.339-1.356c3.73-9.494,4.747-19.666,4.747-19.666h12.207c0,0,1.017,10.172,4.747,19.666
	c0,0.339,0.339,0.678,0.339,1.356C258.036,91.891,259.392,93.248,260.748,94.604L260.748,94.604z"/>
<g>
	
		<ellipse transform="matrix(0.4578 -0.8891 0.8891 0.4578 97.1975 275.294)" style="fill:#FFD05B;" cx="274.296" cy="57.961" rx="6.104" ry="3.052"/>
	
		<ellipse transform="matrix(0.4578 0.8891 -0.8891 0.4578 169.7488 -162.6961)" style="fill:#FFD05B;" cx="218.259" cy="57.819" rx="6.104" ry="3.052"/>
</g>
<path style="fill:#E6E9EE;" d="M256.679,88.84c-3.391,2.374-7.121,3.73-10.85,3.73s-7.46-1.356-10.85-3.73
	c3.73-9.494,4.747-19.666,4.747-19.666h12.207C251.932,69.173,252.95,79.346,256.679,88.84z"/>
<path style="fill:#FFFFFF;" d="M274.989,44.421c0,21.023-12.885,44.419-29.16,44.419c-15.936,0-29.16-23.735-29.16-44.419
	s12.885-31.534,29.16-31.534C262.105,13.226,274.989,23.399,274.989,44.421z"/>
<g>
	<path style="fill:#FF7058;" d="M305.167,303.134c0,21.362-3.391,100.705-8.816,117.658H195.646
		c-5.764-16.954-8.816-96.297-8.816-117.658c0-18.649,2.374-36.281,6.781-51.539c8.138-28.143,9.833-57.642,4.408-86.124
		c0,0,0,0,0-0.339c8.477-15.258,6.103-63.407,6.103-63.407c3.73-1.356,7.46-2.374,10.85-3.052l1.695,47.47h57.981l1.695-47.47
		c3.391,0.678,7.121,1.356,10.85,3.052c0,0-2.373,48.487,6.103,63.407c0,0,0,0,0,0.339c-5.086,28.482-3.73,57.981,4.408,86.124
		C302.793,266.853,305.167,284.485,305.167,303.134z"/>
	<path style="fill:#FF7058;" d="M423.842,188.188h-78.665c-2.713,0-4.747-2.034-4.747-4.747v-1.356h88.498v1.356
		C428.589,186.154,426.555,188.188,423.842,188.188z"/>
</g>
<path style="fill:#324A5E;" d="M258.375,1.02c0,0,37.298,5.086,16.275,70.527l-1.356-7.799c0,0-1.017,3.391-4.747,10.172
	c0,0,3.391-38.993-10.172-46.792c0,0,1.356,8.816-10.85,17.293l1.356-8.138c0,0-4.069,10.85-21.701,16.275l2.034-5.086
	c0,0-15.258,11.189-2.034,29.16c0,0-31.873-17.971-5.764-64.763l-3.391,2.034C218.025,13.566,228.875-4.405,258.375,1.02z"/>
<g>
</g>
<g>
</g>
<g>
</g>
<g>
</g>
<g>
</g>
<g>
</g>
<g>
</g>
<g>
</g>
<g>
</g>
<g>
</g>
<g>
</g>
<g>
</g>
<g>
</g>
<g>
</g>
<g>
</g>
</svg>
