<?xml version="1.0" encoding="iso-8859-1"?>
<!-- Generator: Adobe Illustrator 19.0.0, SVG Export Plug-In . SVG Version: 6.00 Build 0)  -->
<svg version="1.1" id="Layer_1" xmlns="http://www.w3.org/2000/svg" xmlns:xlink="http://www.w3.org/1999/xlink" x="0px" y="0px"
	 viewBox="0 0 508.48 508.48" style="enable-background:new 0 0 508.48 508.48;" xml:space="preserve">
<circle style="fill:#90DFAA;" cx="254.24" cy="254.175" r="217.007"/>
<path style="fill:#324A5E;" d="M292.894,491.865h-30.517v12.546c0,2.034,1.695,4.069,4.069,4.069h41.028v-2.034
	C307.474,498.647,301.032,491.865,292.894,491.865z"/>
<g>
	<path style="fill:#2B3B4E;" d="M214.568,491.865h30.517v12.546c0,2.034-1.695,4.069-4.069,4.069h-41.028v-2.034
		C199.988,498.647,206.77,491.865,214.568,491.865z"/>
	<path style="fill:#2B3B4E;" d="M306.118,278.25c-0.678-17.293-2.713-30.178-4.747-39.332h-47.47v79.004
		c6.103,14.58,8.477,158.686,8.816,173.944h29.838c-0.339-10.511,1.695-81.717,10.85-152.583c3.052-23.735,3.73-44.079,3.052-60.355
		C306.118,278.589,306.118,278.589,306.118,278.25z"/>
</g>
<path style="fill:#324A5E;" d="M206.092,239.256c-2.034,8.816-4.069,22.04-4.747,39.332v0.339c-0.678,16.276,0,36.62,3.052,60.355
	c9.155,71.205,11.528,142.411,10.85,152.583h29.838c0.339-15.258,2.713-159.364,8.816-173.944v-78.665H206.092z"/>
<path style="fill:#F9B54C;" d="M236.947,76.162c-1.356,3.391-2.034,7.46-2.034,11.528c0,13.902,8.477,25.091,19.327,25.091
	s19.327-11.189,19.327-25.091c0-4.069-0.678-8.138-2.374-11.528H236.947z"/>
<polygon style="fill:#CED5E0;" points="243.729,151.436 251.527,151.436 251.527,103.288 231.522,103.288 "/>
<path style="fill:#E6E9EE;" d="M248.137,111.765l1.356,55.269h25.091l0.678-66.458l-10.511-4.069
	C264.751,96.846,247.798,102.271,248.137,111.765z"/>
<path style="fill:#2B3B4E;" d="M232.878,100.914c0-7.799,0.339-12.207,0.678-13.563c-2.034,8.816-42.045,18.988-42.045,18.988
	c12.885,25.43,10.511,67.136,10.511,67.136c5.764,8.138,3.391,59.338,2.034,69.51l41.367,14.919l13.563-20.005v-67.475
	C250.171,158.896,236.947,114.477,232.878,100.914z"/>
<path style="fill:#FFD05B;" d="M183.374,292.152c0,0,7.46,25.77,19.327,29.16c0,0,7.121,2.713,5.764-1.356c0,0,0-4.747-4.747-5.764
	c0,0-1.356-3.052-4.069-3.052c0,0,1.695-2.713-1.695-6.781c0,0,0.339-2.713-0.678-3.73c0,0,3.391-1.356,3.391-2.034
	c0,0,1.017,12.207,7.46,11.189c0,0,2.374-1.356,0-5.764c0,0-1.695-16.615-6.781-18.988
	C201.006,285.031,190.833,283.675,183.374,292.152z"/>
<g>
	<path style="fill:#FFFFFF;" d="M181,283.336l2.034,9.833c0,0,11.868-10.172,19.327-7.46l-2.034-6.781L181,283.336z"/>
	<path style="fill:#FFFFFF;" d="M191.512,106.34c0,0-5.764,0-8.816,37.976s-7.46,121.388-4.069,141.054l24.413-3.73
		c0,0-3.052-94.601-1.017-108.164C202.023,173.476,209.482,133.126,191.512,106.34z"/>
</g>
<g>
	<circle style="fill:#E6E9EE;" cx="254.579" cy="174.493" r="2.374"/>
	<circle style="fill:#E6E9EE;" cx="254.579" cy="190.091" r="2.374"/>
	<circle style="fill:#E6E9EE;" cx="254.579" cy="205.688" r="2.374"/>
	<circle style="fill:#E6E9EE;" cx="254.579" cy="219.929" r="2.373"/>
</g>
<path style="fill:#324A5E;" d="M316.968,106.34c0,0-40.011-10.172-42.045-19.327c0,1.356,0.678,6.103,0.678,13.902
	c-4.069,13.902-17.293,57.981-26.109,69.51V237.9l13.563,20.005l41.367-14.919c-1.356-10.172-4.069-61.372,2.034-69.51
	C306.457,173.476,304.084,131.77,316.968,106.34z"/>
<path style="fill:#FFD05B;" d="M325.106,292.152c0,0-7.46,25.77-19.327,29.16c0,0-7.121,2.713-5.764-1.356c0,0,0-4.747,4.747-5.764
	c0,0,1.356-3.052,4.069-3.052c0,0-1.695-2.713,1.695-6.781c0,0-0.339-2.713,0.678-3.73c0,0-3.391-1.356-3.391-2.034
	c0,0-1.017,12.207-7.46,11.189c0,0-2.374-1.356,0-5.764c0,0,1.695-16.615,6.781-18.988
	C307.474,285.031,317.647,283.675,325.106,292.152z"/>
<g>
	<path style="fill:#FFFFFF;" d="M327.48,283.336l-2.034,9.833c0,0-11.868-10.172-19.327-7.46l2.034-6.781L327.48,283.336z"/>
	<path style="fill:#FFFFFF;" d="M316.968,106.34c0,0,5.764,0,8.816,37.976s7.46,121.388,4.069,141.054l-24.413-3.73
		c0,0,3.052-94.601,1.017-108.164C306.457,173.476,298.998,133.126,316.968,106.34z"/>
</g>
<g>
	<circle style="fill:#E6E9EE;" cx="253.901" cy="174.493" r="2.374"/>
	<circle style="fill:#E6E9EE;" cx="253.901" cy="190.091" r="2.374"/>
	<circle style="fill:#E6E9EE;" cx="253.901" cy="205.688" r="2.374"/>
	<circle style="fill:#E6E9EE;" cx="253.901" cy="219.929" r="2.373"/>
</g>
<path style="fill:#FFD05B;" d="M281.366,41.916c-1.017-0.339-2.034-0.339-3.052,0.339l1.695-18.988h-26.448h-26.448l1.695,18.988
	c-1.017-0.678-2.034-0.678-3.052-0.339c-2.373,1.017-3.052,4.408-1.695,7.799c1.356,3.052,3.73,5.086,6.103,4.747l1.356,13.563
	c0.339,3.052,1.695,6.103,3.391,8.477l3.73,4.408c2.374,3.052,6.103,5.086,10.172,5.764h9.833c4.069-0.678,7.46-2.713,10.172-5.764
	l3.73-4.408c2.034-2.374,3.391-5.425,3.391-8.477l1.356-13.563c2.034,0.339,4.747-1.695,6.103-4.747
	C284.757,45.985,283.739,42.594,281.366,41.916z"/>
<path style="fill:#324A5E;" d="M232.2,13.095c0,0,21.701-32.212,51.539,4.408l-3.052-1.017c0,0,5.425,6.103,0.678,26.787
	c0,0-3.391,0.339-4.408,7.799c0,0-0.678-16.615-5.086-20.005c0,0-28.143,1.695-35.264-4.747c0,0-7.121,11.868-4.069,28.482
	c0,0-5.425-10.511-8.477-16.275c-2.034-4.069-3.052-8.138-3.052-12.885C221.011,19.537,223.384,13.095,232.2,13.095z"/>
<g>
	<path style="fill:#FFFFFF;" d="M272.889,84.978c0,0,11.189,9.494-5.764,28.143c0,0-10.172-11.189-14.241-10.85
		C252.884,102.271,275.263,89.047,272.889,84.978z"/>
	<path style="fill:#FFFFFF;" d="M234.913,84.978c0,0-11.189,9.494,5.764,28.143c0,0,10.172-11.189,14.241-10.85
		C254.918,102.271,232.878,89.047,234.913,84.978z"/>
</g>
<g>
	<path style="fill:#54C0EB;" d="M257.292,99.558c1.695-1.356,7.46-5.764,13.902-6.442c1.017,0,1.695,0.678,1.695,1.356
		c0.339,3.391,1.017,11.189,0.339,14.919c0,0.678-1.017,1.356-1.695,1.356c-2.713-0.339-8.816-1.695-14.241-4.747
		c-0.339-0.339-0.678-1.017-0.678-1.356l0.339-4.069C256.613,100.236,256.953,99.897,257.292,99.558z"/>
	<path style="fill:#54C0EB;" d="M250.849,99.558c-1.695-1.356-7.46-5.764-13.902-6.442c-1.017,0-1.695,0.678-1.695,1.356
		c-0.339,3.391-1.017,11.189-0.339,14.919c0,0.678,1.017,1.356,1.695,1.356c2.713-0.339,8.816-1.695,14.241-4.747
		c0.339-0.339,0.678-1.017,0.678-1.356l-0.339-4.069C251.527,100.236,251.188,99.897,250.849,99.558z"/>
</g>
<path style="fill:#84DBFF;" d="M255.257,106.34h-2.713c-1.017,0-1.695-0.678-1.695-1.695v-3.052c0-1.017,0.678-1.695,1.695-1.695
	h2.713c1.017,0,1.695,0.678,1.695,1.695v3.052C257.292,105.661,256.274,106.34,255.257,106.34z"/>
<g>
</g>
<g>
</g>
<g>
</g>
<g>
</g>
<g>
</g>
<g>
</g>
<g>
</g>
<g>
</g>
<g>
</g>
<g>
</g>
<g>
</g>
<g>
</g>
<g>
</g>
<g>
</g>
<g>
</g>
</svg>
