<?xml version="1.0" encoding="iso-8859-1"?>
<!-- Generator: Adobe Illustrator 19.0.0, SVG Export Plug-In . SVG Version: 6.00 Build 0)  -->
<svg version="1.1" id="Layer_1" xmlns="http://www.w3.org/2000/svg" xmlns:xlink="http://www.w3.org/1999/xlink" x="0px" y="0px"
	 viewBox="0 0 508.519 508.519" style="enable-background:new 0 0 508.519 508.519;" xml:space="preserve">
<circle style="fill:#84DBFF;" cx="254.26" cy="254.215" r="217.007"/>
<g>
	<path style="fill:#FFD05B;" d="M254.26,111.126L254.26,111.126L254.26,111.126z"/>
	<path style="fill:#FFD05B;" d="M267.823,66.707l-13.563-0.678l0,0l0,0l0,0l0,0l-13.563,0.678c0,0,1.017,12.207-5.086,23.057v15.258
		l18.649,6.103l0,0l0,0l17.971-5.764V88.408C267.144,77.897,267.823,66.707,267.823,66.707z"/>
	<path style="fill:#FFD05B;" d="M254.26,111.126L254.26,111.126L254.26,111.126z"/>
	<path style="fill:#FFD05B;" d="M254.26,111.126L254.26,111.126L254.26,111.126z"/>
	<path style="fill:#FFD05B;" d="M272.231,88.408v16.954l-17.971,5.764l0,0l0,0l-18.649-6.103V89.764
		c1.356-2.374,2.373-5.086,3.052-7.799c2.374-8.138,1.695-15.597,1.695-15.597l13.563-0.678l0,0l0,0l0,0l0,0l13.563,0.678
		c0,0-0.678,6.781,1.695,14.919C270.196,83.661,271.213,86.035,272.231,88.408z"/>
	<path style="fill:#FFD05B;" d="M254.26,111.126L254.26,111.126L254.26,111.126z"/>
</g>
<g>
	<polygon style="fill:#324A5E;" points="301.052,493.261 305.799,310.501 302.747,262.013 253.582,262.013 253.582,338.644 
		272.909,493.261 	"/>
	<polygon style="fill:#324A5E;" points="235.611,493.261 254.938,338.644 254.938,262.013 205.772,262.013 202.721,310.501 
		207.468,493.261 	"/>
</g>
<path style="fill:#E6E9EE;" d="M340.045,218.612c-4.408-65.102-20.344-101.722-20.344-101.722l0,0
	c-38.315-7.121-45.775-25.091-45.775-25.091c-0.678,4.747-1.017,9.155-1.695,13.563H235.95c-0.678-4.408-1.017-8.816-1.695-13.563
	c0,0-7.46,17.971-45.775,25.091c0,0,9.494,40.689,13.224,82.056h101.044v64.085c1.695-1.017,3.73-2.034,5.425-3.391
	c10.511-6.781,18.31-13.902,23.735-19.327C337.672,234.549,340.723,226.75,340.045,218.612z M305.121,225.054
	c0-11.189,1.017-23.396,2.034-34.924l8.477,27.804L305.121,225.054z"/>
<path style="fill:#F9B54C;" d="M269.518,81.627l-1.017,1.356c-2.374,3.052-6.103,5.086-9.833,5.425l-2.713,0.339
	c-1.356,0.339-2.713,0.339-4.408,0l-2.374-0.339c-3.73-0.678-7.46-2.374-9.833-5.425l-0.678-0.678
	c2.374-8.138,1.695-15.597,1.695-15.597l13.563-0.678l0,0l0,0l0,0l0,0l13.563,0.678C267.823,66.707,267.484,73.489,269.518,81.627z"
	/>
<g>
	<path style="fill:#FFD05B;" d="M253.921,22.628h-25.77l4.069,43.401c0.339,3.052,1.356,6.103,3.391,8.477l3.73,4.408
		c2.373,3.052,6.103,5.086,9.833,5.425l2.713,0.339c1.356,0.339,2.713,0.339,4.408,0l2.713-0.339c3.73-0.678,7.46-2.374,9.833-5.425
		l3.73-4.408c2.034-2.374,3.052-5.425,3.391-8.477l3.73-43.401H253.921z"/>
	<path style="fill:#FFD05B;" d="M282.742,48.398c-1.356,3.391-4.069,5.425-6.442,4.408c-2.374-1.017-3.052-4.408-1.695-7.46
		c1.356-3.391,4.069-5.425,6.442-4.408C283.081,41.616,284.098,45.007,282.742,48.398z"/>
	<path style="fill:#FFD05B;" d="M225.099,48.398c1.356,3.391,4.069,5.425,6.442,4.408c2.373-1.017,3.052-4.408,1.695-7.46
		c-1.356-3.391-4.069-5.425-6.442-4.408C224.76,41.616,223.743,45.007,225.099,48.398z"/>
</g>
<path style="fill:#324A5E;" d="M232.559,12.795c0,0,21.023-31.534,50.183,4.408l-3.052-1.017c0,0,5.425,5.764,0.678,26.109
	c0,0-3.052,0.339-4.408,7.46c0,0-0.678-16.275-5.086-19.666c0,0-27.465,1.695-34.585-4.747c0,0-6.781,11.528-4.069,27.804
	c0,0-5.086-10.172-8.138-15.597c-2.034-3.73-3.052-8.138-3.052-12.546C222.048,19.237,224.082,12.795,232.559,12.795z"/>
<g>
	<path style="fill:#2B3B4E;" d="M300.713,493.261h-27.804v11.528c0,2.034,1.695,3.73,3.73,3.73h37.637v-1.695
		C314.276,499.364,308.172,493.261,300.713,493.261z"/>
	<path style="fill:#2B3B4E;" d="M207.807,493.261h27.804v11.528c0,2.034-1.695,3.73-3.73,3.73h-37.637v-1.695
		C194.244,499.364,200.347,493.261,207.807,493.261z"/>
</g>
<path style="fill:#FFD05B;" d="M242.392,262.353l-2.034-0.678l2.713-4.747l1.356,1.017
	C246.461,259.64,245.105,263.031,242.392,262.353z"/>
<g>
	<path style="fill:#FFFFFF;" d="M271.552,86.374c0,0,7.46,7.46-2.034,29.838c0,0-10.511-12.207-17.293-9.833
		C252.225,106.379,267.823,101.632,271.552,86.374z"/>
	<path style="fill:#FFFFFF;" d="M236.967,86.374c0,0-7.46,7.46,2.034,29.838c0,0,10.511-12.207,17.293-9.833
		C256.294,106.379,240.697,101.632,236.967,86.374z"/>
</g>
<path style="fill:#FF7058;" d="M298.339,111.126c-6.442-2.713-11.189-5.425-14.919-8.138l-29.499,94.601l-29.499-94.262
	c-3.73,2.713-8.477,5.764-14.919,8.138c0.339,1.356,7.46,52.895-8.816,79.004l0,0l0,0l1.356,55.947l0,0l1.017,41.028l18.31,22.718
	l32.89-41.028l32.89,41.028l18.31-22.718l2.034-97.314l0,0C291.219,164.021,298.339,112.482,298.339,111.126z"/>
<g>
	<circle style="fill:#F1543F;" cx="254.26" cy="208.44" r="3.73"/>
	<circle style="fill:#F1543F;" cx="254.26" cy="223.02" r="3.73"/>
	<circle style="fill:#F1543F;" cx="254.26" cy="237.939" r="3.73"/>
	<circle style="fill:#F1543F;" cx="254.26" cy="252.519" r="3.73"/>
</g>
<path style="fill:#E6E9EE;" d="M239.68,271.507l-17.293,92.228c0,0,29.499,5.764,28.821,5.086
	C250.53,367.804,239.68,271.507,239.68,271.507z"/>
<path style="fill:#FFD05B;" d="M245.783,276.594l-9.494-0.339l-1.017-5.764l-2.034-10.85l4.747,1.356
	c1.356,0.339,2.713-0.339,3.391-1.356l0,0c0.678-1.356,0.339-3.052-1.017-4.069l-7.121-4.747l-22.379-16.275l-8.138,16.275
	l11.868,10.85c1.356,1.356,2.374,2.713,3.052,4.408l7.46,20.344c0.339,0.339,0.339,1.017,0.678,1.356
	c1.017,1.017,2.374,1.695,3.73,1.356l16.275-1.695L245.783,276.594L245.783,276.594z"/>
<path style="fill:#FFFFFF;" d="M239.68,271.507v104.774h43.401v-68.493C282.742,287.783,263.415,271.507,239.68,271.507
	L239.68,271.507z"/>
<path style="fill:#E6E9EE;" d="M168.474,218.612c-0.678,25.77,42.384,47.47,48.487,50.522l10.172-27.804l-23.735-16.275l-10.85-7.46
	l8.477-27.804c-4.069-37.976-12.207-72.901-12.207-72.901S170.17,153.51,168.474,218.612z"/>
<g>
	<path style="fill:#2B3B4E;" d="M264.771,104.345l-10.85,6.781l10.85,6.781c3.391,2.034,7.46-0.339,7.46-4.069v-4.747
		C272.231,104.684,267.823,102.31,264.771,104.345z"/>
	<path style="fill:#2B3B4E;" d="M243.07,104.345l10.85,6.781l-10.85,6.781c-3.391,2.034-7.46-0.339-7.46-4.069v-4.747
		C235.611,104.684,240.019,102.31,243.07,104.345z"/>
</g>
<g>
	<circle style="fill:#324A5E;" cx="253.921" cy="111.126" r="5.764"/>
	<path style="fill:#324A5E;" d="M254.26,62.639c-6.103-3.052-8.477,6.103-18.31,1.017c0,0,3.73,10.511,18.31,4.069
		c14.241,6.442,18.31-4.069,18.31-4.069C262.737,69.081,260.363,59.587,254.26,62.639z"/>
</g>
<g>
</g>
<g>
</g>
<g>
</g>
<g>
</g>
<g>
</g>
<g>
</g>
<g>
</g>
<g>
</g>
<g>
</g>
<g>
</g>
<g>
</g>
<g>
</g>
<g>
</g>
<g>
</g>
<g>
</g>
</svg>
