<?xml version="1.0" encoding="iso-8859-1"?>
<!-- Generator: Adobe Illustrator 19.0.0, SVG Export Plug-In . SVG Version: 6.00 Build 0)  -->
<svg version="1.1" id="Layer_1" xmlns="http://www.w3.org/2000/svg" xmlns:xlink="http://www.w3.org/1999/xlink" x="0px" y="0px"
	 viewBox="0 0 508.765 508.765" style="enable-background:new 0 0 508.765 508.765;" xml:space="preserve">
<circle style="fill:#FFD05B;" cx="254.382" cy="254.59" r="217.007"/>
<rect x="231.664" y="57.25" style="fill:#F9B54C;" width="43.401" height="39.672"/>
<g>
	<path style="fill:#FF7058;" d="M331.013,262.389c0-0.339,0.339-1.017,0.339-1.356h-15.258c-0.339,0.339-0.339,1.017-0.678,1.356
		c-0.678,0-1.017,0.339-1.356,1.017c-2.713,3.391-4.408,7.46-4.747,11.868c0,1.017,0,2.034-0.339,3.052
		c0,0.678-0.339,1.356-0.339,2.034c0,1.017,0,2.034,0,3.052c-0.339,1.017-0.678,2.034-1.017,3.052c-0.339,1.017,0,2.034,0.678,2.713
		c0.678,0.678,1.695,0.678,2.713,0.339c0.339,0,0.678,0,1.017-0.339c0.339,0,0.339-0.339,0.678-0.678
		c2.374-3.052,2.374-7.121,3.052-10.85v-0.339c0-0.339,0.339-0.339,0.678-0.339c1.017,0,1.356,1.356,1.356,2.034
		c0,1.017-0.339,1.695-0.678,2.713c0,0.678,0,1.017-0.339,1.695c-0.339,2.034-1.356,4.069-3.052,5.086
		c-1.695,1.356-3.73,2.034-5.764,1.695c-0.339,0-0.678,0-0.678,0c-0.339,0-0.339,0.339-0.339,0.678l0.339,0.339
		c1.017,0.339,1.695,1.017,2.713,1.356c0.678,0.339,1.356,0.678,2.034,0.678c0.678,0,1.356,0,2.034-0.339l0.339-0.339
		c0.339,0,0.339-0.339,0.678-0.339c1.695-0.339,3.391,1.017,5.086,0.678c1.695-0.339,3.052-2.034,4.408-3.052
		c0.678-0.678,1.695-1.017,2.373-1.695c1.356-1.017,2.374-2.713,3.052-4.408c0.339-0.339,0.339-1.017,0.678-1.356
		c0-0.678,0-1.356,0-2.034c0-2.713,1.356-5.086,1.356-7.46c0-1.356-0.339-2.374-0.339-3.73
		C331.352,267.814,330.674,264.762,331.013,262.389z"/>
	<path style="fill:#FF7058;" d="M177.752,262.389c0-0.339-0.339-1.017-0.339-1.356h15.258c0.339,0.339,0.339,1.017,0.678,1.356
		c0.678,0,1.017,0.339,1.356,1.017c2.713,3.391,4.408,7.46,4.747,11.868c0,1.017,0,2.034,0.339,3.052
		c0,0.678,0.339,1.356,0.339,2.034c0,1.017,0,2.034,0,3.052c0.339,1.017,0.678,2.034,1.017,3.052c0.339,1.017,0,2.034-0.678,2.713
		c-0.678,0.678-1.695,0.678-2.713,0.339c-0.339,0-0.678,0-1.017-0.339c-0.339,0-0.339-0.339-0.678-0.678
		c-2.374-3.052-2.374-7.121-3.052-10.85v-0.339c0-0.339-0.339-0.339-0.678-0.339c-1.017,0-1.356,1.356-1.356,2.034
		c0,1.017,0.339,1.695,0.678,2.713c0,0.678,0,1.017,0.339,1.695c0.339,2.034,1.356,4.069,3.052,5.086
		c1.695,1.356,3.73,2.034,5.764,1.695c0.339,0,0.678,0,0.678,0c0.339,0,0.339,0.339,0.339,0.678l-0.339,0.339
		c-1.017,0.339-1.695,1.017-2.713,1.356c-0.678,0.339-1.356,0.678-2.034,0.678c-0.678,0-1.356,0-2.034-0.339l-0.339-0.339
		c-0.339,0-0.339-0.339-0.678-0.339c-1.695-0.339-3.391,1.017-5.086,0.678c-1.695-0.339-3.052-2.034-4.408-3.052
		c-0.678-0.678-1.695-1.017-2.374-1.695c-1.356-1.017-2.374-2.713-3.052-4.408c-0.339,0.678-0.678,0.339-0.678-0.339
		s0-1.356,0-2.034c0-2.713-1.356-5.086-1.356-7.46c0-1.356,0.339-2.374,0.339-3.73C177.413,267.814,178.091,264.762,177.752,262.389
		z"/>
</g>
<g>
	<path style="fill:#324A5E;" d="M306.6,248.148h-50.522c2.034,17.632,3.052,43.062,3.052,43.062
		c-1.695,9.833,0.678,22.718,3.052,31.873c2.034,7.46,2.713,14.919,3.052,22.379c0.678,20.683,7.46,56.286,11.529,76.291
		c1.695,7.46,1.356,15.258-1.017,22.718c-2.374,7.799-2.713,16.954-2.713,16.954c-3.391,41.028,8.816,45.436,8.816,45.436
		c29.838,13.563,15.258-50.183,15.258-50.183c-4.069-11.528-2.034-31.195-2.034-31.195c2.713-10.172,4.408-55.269,5.425-76.291
		c0.339-5.764-0.339-11.189-1.695-16.954c-4.408-16.954,2.034-42.384,2.034-42.384C301.513,285.446,305.243,258.32,306.6,248.148z"
		/>
	<path style="fill:#324A5E;" d="M250.992,248.148h-50.183c1.356,10.172,5.086,36.959,5.764,41.706c0,0,6.781,25.43,2.034,42.384
		c-1.356,5.425-2.034,11.189-1.695,16.954c0.678,21.023,2.713,66.119,5.425,76.291c0,0,1.695,19.666-2.034,31.195
		c0,0-14.58,63.746,15.258,50.183c0,0,12.207-4.408,8.816-45.436c0,0-0.339-9.155-2.713-16.954
		c-2.374-7.46-2.374-14.919-1.017-22.718c4.069-20.005,10.85-55.608,11.528-76.291c0.339-7.46,1.017-15.258,3.052-22.379
		c2.374-9.155,4.747-22.04,3.052-31.873C247.94,291.21,248.957,266.119,250.992,248.148z"/>
</g>
<g>
	<path style="fill:#2B3B4E;" d="M281.847,506.86c0,0-7.799-2.713-9.155-24.752c3.391,3.73,8.138,6.103,13.224,6.103
		c5.764,0,10.85-2.713,14.58-7.46C301.513,497.027,299.14,514.659,281.847,506.86z"/>
	<path style="fill:#2B3B4E;" d="M234.377,482.108c-1.356,22.04-9.155,24.752-9.155,24.752c-16.954,7.799-19.666-9.833-18.649-26.109
		c3.391,4.408,8.816,7.46,14.58,7.46C226.239,488.211,230.986,485.838,234.377,482.108z"/>
</g>
<g>
	<path style="fill:#FFD05B;" d="M250.313,89.801c-3.391-3.052-6.781-4.069-10.511-3.73c-1.017-2.374-1.695-5.764-1.695-10.172
		c0-0.678,0-1.356,0-2.034c0,3.73,2.374,7.121,6.103,8.138C250.653,84.037,250.313,89.801,250.313,89.801z"/>
	<path style="fill:#FFD05B;" d="M270.658,75.899c0,4.408-0.678,7.799-1.695,10.172c-3.391-0.339-7.121,0.678-10.511,3.73
		c0,0-0.339-5.764,6.103-7.799c3.73-1.017,6.103-4.408,6.103-8.138C270.658,74.203,270.658,75.221,270.658,75.899z"/>
</g>
<path style="fill:#CED5E0;" d="M302.192,201.356c2.713,16.954,3.73,38.654,4.408,52.217c-10.172,5.086-35.264,14.919-66.119,8.477
	V89.801h18.31l4.069-5.086l9.833-4.069l1.017-11.528c0,0,28.143,13.224,33.229,15.258c0,0-6.781,31.195-7.121,45.775l0,0
	c-1.017,1.695-1.695,3.73-2.374,6.103c-4.069,11.528-10.511,37.298,1.695,54.93C298.801,191.523,300.157,195.252,302.192,201.356z"
	/>
<path style="fill:#FFFFFF;" d="M338.133,264.423c0,0-15.936,10.172-31.534,2.713c0,0,0-5.425-0.339-13.563
	c-0.339-13.563-1.695-35.264-4.408-52.217c-1.356-9.494-3.391-17.632-6.103-22.379c0,0-3.73-25.77,1.356-43.062
	c0.678-2.034,1.356-4.069,2.374-6.103l0,0c0.339-14.241,7.121-45.775,7.121-45.775s12.885,2.034,11.189,41.028
	c0,0,8.138,87.481,15.597,98.331C333.725,223.735,336.777,261.711,338.133,264.423z"/>
<path style="fill:#E6E9EE;" d="M206.573,201.356c-2.713,16.954-3.73,38.654-4.408,52.217c10.172,5.086,48.826,16.954,79.682,10.85
	L280.83,89.801h-30.856l-4.069-5.086l-9.833-4.069l-1.017-11.528c0,0-28.143,13.224-33.229,15.258c0,0,6.781,31.195,7.121,45.775
	l0,0c1.017,1.695,1.695,3.73,2.374,6.103c4.069,11.528,10.511,37.298-1.695,54.93C209.964,191.523,208.608,195.252,206.573,201.356z
	"/>
<g>
	<path style="fill:#FFFFFF;" d="M170.631,264.423c0,0,15.936,10.172,31.534,2.713c0,0,0-5.425,0.339-13.563
		c0.339-13.563,1.695-35.264,4.408-52.217c1.356-9.494,3.391-17.632,6.103-22.379c0,0,3.73-25.77-1.356-43.062
		c-0.678-2.034-1.356-4.069-2.374-6.103l0,0c-0.339-14.241-7.121-45.775-7.121-45.775s-12.885,2.034-11.189,41.028
		c0,0-8.138,87.481-15.597,98.331C175.039,223.735,171.988,261.711,170.631,264.423z"/>
	<path style="fill:#FFFFFF;" d="M250.313,89.801c-3.391-3.052-6.781-4.069-10.511-3.73c-9.494,0.678-18.31,10.85-18.31,10.85
		c1.017-25.77,19.327-37.976,19.327-37.976c-0.678,2.034-1.017,4.408-1.695,6.442c0,0.339,0,0.678-0.339,1.017
		c0,0.678-0.339,1.356-0.339,2.034c0,1.017-0.339,2.374-0.339,3.391c0,0.678,0,1.356,0,1.695v0.339c0,3.73,2.374,7.121,6.103,8.138
		C250.653,84.037,250.313,89.801,250.313,89.801z"/>
	<path style="fill:#FFFFFF;" d="M287.272,96.582c0,0-8.816-9.833-18.31-10.85c-3.391-0.339-7.121,0.678-10.511,3.73
		c0,0-0.339-5.764,6.103-7.799c3.73-1.017,6.103-4.408,6.103-8.138v-0.339l0,0l0,0c-0.339-4.747-1.017-9.833-2.713-14.58l0,0
		C267.945,58.606,286.255,70.813,287.272,96.582z"/>
</g>
<g>
	<circle style="fill:#324A5E;" cx="271.675" cy="99.295" r="4.408"/>
	<circle style="fill:#324A5E;" cx="242.176" cy="99.295" r="4.408"/>
	<circle style="fill:#324A5E;" cx="271.675" cy="129.133" r="4.408"/>
	<circle style="fill:#324A5E;" cx="242.176" cy="129.133" r="4.408"/>
	<circle style="fill:#324A5E;" cx="271.675" cy="158.633" r="4.408"/>
	<circle style="fill:#324A5E;" cx="242.176" cy="158.633" r="4.408"/>
	<circle style="fill:#324A5E;" cx="271.675" cy="188.132" r="4.408"/>
	<circle style="fill:#324A5E;" cx="242.176" cy="188.132" r="4.408"/>
</g>
<path style="fill:#FFD05B;" d="M277.1,35.21c0,18.649-10.511,33.229-23.735,33.229c-13.224,0-23.735-14.919-23.735-33.229
	s10.511-26.448,23.735-26.448C266.589,8.762,277.1,16.561,277.1,35.21z"/>
<path style="fill:#324A5E;" d="M245.227,72.169c-1.695,3.052-4.747,5.086-5.764,8.477c-0.678,2.713,0.678,5.764,0.339,8.816
	c0,3.73-2.713,7.121-5.764,9.155c-3.052,2.034-6.781,3.052-10.511,3.73c0.678-2.034,1.695-4.408,1.356-6.781
	c-0.339-6.103-7.46-10.511-7.799-16.615c-0.339-5.425,4.069-9.833,3.73-15.258c-0.339-3.73-2.713-6.781-4.069-10.172
	c-2.713-6.781-0.678-14.919,3.73-20.683c0.678-1.017,1.695-2.034,2.374-3.391c1.695-3.052,2.034-6.781,2.713-10.172
	c2.034-8.816,9.155-16.275,17.971-18.649c9.494-2.034,19.327,1.017,25.43,7.46c0.339,0.339,0.678,0.678,1.017,1.017
	c0.339,0.339,1.356,1.356,2.374,3.052c1.356,2.034,2.374,4.408,3.391,7.121c0.678,1.695,1.695,3.391,2.713,5.086
	c3.052,5.086,6.103,9.833,8.138,15.258c2.034,5.425,3.052,11.528,1.356,16.954c-1.356,5.425-5.425,10.172-6.103,15.936
	c-0.678,4.069,0.339,8.138,2.374,11.528c2.713,4.408,7.46,7.46,8.816,12.207c-3.73-3.052-7.799-5.425-12.207-7.799
	c-5.764-3.052-12.207-5.086-16.615-10.172c-1.356-1.695-2.713-3.73-3.391-5.764c-2.373-9.494,6.781-15.258,9.833-23.057
	c1.695-4.747,1.356-9.833,0-14.58s-4.069-9.155-6.442-13.224c-3.73,8.816-12.885,14.919-22.379,15.597
	c3.391-0.678,6.103-3.052,7.121-6.442c-1.695,1.017-3.391,1.356-5.086,2.034c-4.069,2.374-5.425,7.799-4.747,12.546
	c1.017,4.747,3.391,8.816,5.086,13.224C246.245,62.675,247.262,68.1,245.227,72.169z"/>
<path style="fill:#FFD05B;" d="M275.405,44.365c-1.695,3.391-5.086,5.425-7.46,4.069c-2.374-1.356-2.713-5.086-1.017-8.477
	c1.695-3.391,5.086-5.425,7.46-4.069C276.761,37.244,277.1,40.974,275.405,44.365z"/>
<g>
</g>
<g>
</g>
<g>
</g>
<g>
</g>
<g>
</g>
<g>
</g>
<g>
</g>
<g>
</g>
<g>
</g>
<g>
</g>
<g>
</g>
<g>
</g>
<g>
</g>
<g>
</g>
<g>
</g>
</svg>
