<?xml version="1.0" encoding="iso-8859-1"?>
<!-- Generator: Adobe Illustrator 19.0.0, SVG Export Plug-In . SVG Version: 6.00 Build 0)  -->
<svg version="1.1" id="Layer_1" xmlns="http://www.w3.org/2000/svg" xmlns:xlink="http://www.w3.org/1999/xlink" x="0px" y="0px"
	 viewBox="0 0 508.545 508.545" style="enable-background:new 0 0 508.545 508.545;" xml:space="preserve">
<circle style="fill:#FFD05B;" cx="254.272" cy="254.305" r="217.007"/>
<path style="fill:#2B3B4E;" d="M294.283,44.079c0,31.873-17.632,71.883-39.332,71.883s-39.332-40.011-39.332-71.883
	S233.25,0,254.951,0C276.651,0,294.283,11.868,294.283,44.079z"/>
<g>
	<path style="fill:#FFFFFF;" d="M296.317,348.567c0,0,12.207,45.436-2.713,91.55c0,0-4.408,38.315-2.374,49.505
		c0,0,3.052,15.258-21.022,10.511c-3.052-0.678-5.086-3.052-5.086-5.764c0.339-9.494,1.695-30.177,6.103-32.89
		c0,0,7.121-13.563,1.017-36.281c0,0-5.764-44.079-3.73-55.269c0,0-8.477-12.207-7.46-23.735L296.317,348.567z"/>
	<path style="fill:#FFFFFF;" d="M212.566,348.567c0,0-12.207,45.436,2.713,91.55c0,0,4.408,38.315,2.374,49.505
		c0,0-3.052,15.258,21.023,10.511c3.052-0.678,5.086-3.052,5.086-5.764c-0.339-9.494-1.695-30.177-6.103-32.89
		c0,0-7.121-13.563-1.017-36.281c0,0,5.764-44.079,3.73-55.269c0,0,8.477-12.207,7.46-23.735L212.566,348.567z"/>
</g>
<path style="fill:#324A5E;" d="M243.422,487.926c0,0,9.833,23.396-8.816,20.344c-0.339,0-0.339,0-0.678,0
	c-15.936-2.713-17.293-3.052-17.971-6.781c-0.339-1.695-0.339-3.73,0-5.425c0.678-3.73,1.695-10.85,2.374-16.276
	C218.331,479.788,225.112,502.845,243.422,487.926z"/>
<g>
	<path style="fill:#FFFFFF;" d="M282.754,83.073l-5.764,36.281h-45.436l-5.764-36.281c0,0,10.511-1.356,15.597-12.885
		c1.356-3.052,2.374-6.781,2.713-11.189h20.683c0.339,4.747,1.356,8.816,3.052,11.868C272.921,81.717,282.754,83.073,282.754,83.073
		z"/>
	<path style="fill:#FFFFFF;" d="M216.296,155.974c0,1.017-0.339,1.695-0.339,2.713c-2.374,11.528-4.747,23.057-6.781,34.585
		c-0.339,2.374-5.425,26.787-7.46,36.62c-1.356,7.121-2.713,14.241-3.052,21.701c0,11.189,2.713,22.718-1.695,33.229
		c-2.374-4.408-3.052-9.494-2.374-14.58c-5.086,1.695-7.799,7.121-6.781,11.528c1.017,4.408,4.408,8.477,7.799,12.207
		c-1.356,0.678-3.052,1.017-4.747,0.339c-1.017-0.339-1.356-1.017-2.034-1.695c-9.833-10.511-13.224-24.752-8.816-37.298
		c0.678-2.374,1.695-4.747,2.713-7.121c3.391-10.172,1.695-21.023,1.695-31.534c0-10.511,2.034-21.023,3.391-31.534
		c3.391-23.735,4.747-47.47,3.73-71.205c0-0.678,0-1.356,0-2.034l18.988,6.781c-3.73,3.73-5.425,9.833-4.408,16.275
		s4.408,11.868,9.155,15.936C215.957,152.922,215.957,154.617,216.296,155.974z"/>
	<path style="fill:#FFFFFF;" d="M311.576,284.821c2.373-4.408,3.052-9.494,2.373-14.58c5.425,1.695,7.799,7.121,6.781,11.528
		c-1.017,4.408-4.408,8.477-7.799,12.207c1.356,0.678,3.052,1.017,4.747,0.339c1.017-0.339,1.356-1.017,2.034-1.695
		c9.833-10.511,13.224-24.752,8.816-37.298c-0.678-2.374-1.695-4.747-2.713-7.121c-3.391-10.172-1.695-21.023-1.695-31.534
		c0-10.511-2.034-21.023-3.73-31.534c-3.391-23.735-4.747-47.47-3.73-71.205c0-1.695,0-3.73-2.034-4.747
		c-0.678-0.339-1.695-0.339-2.374-0.678c-5.086-0.678-11.529-0.678-13.902,3.052c-1.017,1.356-1.356,2.713-1.356,4.408
		c-1.356,9.494-3.052,19.327-4.408,28.821c-0.339,2.034-0.678,4.069-0.678,6.103c0,2.374,0.339,4.747,1.017,7.46
		c2.374,11.528,4.747,23.057,6.781,34.585c0.339,2.374,5.425,26.787,7.46,36.62c1.356,7.121,2.713,14.241,3.052,21.701
		C310.219,262.781,307.168,274.31,311.576,284.821z"/>
</g>
<path style="fill:#E6E9EE;" d="M267.496,70.866c-3.73,4.069-8.138,6.442-12.885,6.442c-5.086,0-9.494-2.713-13.563-7.46
	c1.356-3.052,2.374-6.781,2.713-11.189h20.683C265.123,64.085,266.14,67.815,267.496,70.866z"/>
<path style="fill:#FFFFFF;" d="M278.347,47.47c-4.069,13.902-12.885,26.787-23.396,26.787c-10.172,0-18.988-12.207-23.057-25.77
	c6.442-6.442,12.207-16.615,16.276-24.413C253.933,34.246,263.766,45.775,278.347,47.47z"/>
<path style="fill:#F1543F;" d="M206.802,135.29c1.017,6.442,4.408,11.868,9.155,15.936c0.339,1.695,0.339,3.391,0.339,4.747
	c1.017,11.528,1.017,22.04-1.356,26.448c0,0.339-0.339,0.678-0.339,0.678h79.682c0-0.339-0.339-0.678-0.339-0.678
	c-2.713-5.086-2.374-18.31-1.017-31.195c4.408-3.73,8.138-9.494,8.816-15.936c1.017-6.442-0.678-12.207-4.408-16.275l25.77-9.155
	l-17.293-20.683L271.565,76.97c-4.747,28.821-17.293,17.971-17.293,17.971s-12.546,10.85-17.632-17.971l-34.246,12.207
	l-17.293,20.683l25.77,9.155C207.48,123.083,205.785,128.848,206.802,135.29z"/>
<path style="fill:#324A5E;" d="M214.601,183.099c-6.103,11.189-22.04,40.011-3.391,168.18h85.785
	c18.649-128.17,3.052-156.991-3.391-168.18H214.601z"/>
<g>
	<path style="fill:#FF7058;" d="M271.565,77.309c0,0,0,12.207-17.293,17.971c0,0,9.833,5.425,12.546,10.85
		C266.818,105.791,274.956,93.923,271.565,77.309z"/>
	<path style="fill:#FF7058;" d="M236.98,77.309c0,0,0,12.207,17.293,17.971c0,0-9.833,5.425-12.546,10.85
		C241.727,105.791,233.589,93.923,236.98,77.309z"/>
</g>
<path style="fill:#324A5E;" d="M265.462,487.926c0,0-9.833,23.396,8.816,20.344c0.339,0,0.339,0,0.678,0
	c15.936-2.713,17.293-3.052,17.971-6.781c0.339-1.695,0.339-3.73,0-5.425c-0.678-3.73-1.695-10.85-2.374-16.276
	C290.553,479.788,283.772,502.845,265.462,487.926z"/>
<g>
</g>
<g>
</g>
<g>
</g>
<g>
</g>
<g>
</g>
<g>
</g>
<g>
</g>
<g>
</g>
<g>
</g>
<g>
</g>
<g>
</g>
<g>
</g>
<g>
</g>
<g>
</g>
<g>
</g>
</svg>
