<?xml version="1.0" encoding="iso-8859-1"?>
<!-- Generator: Adobe Illustrator 19.0.0, SVG Export Plug-In . SVG Version: 6.00 Build 0)  -->
<svg version="1.1" id="Layer_1" xmlns="http://www.w3.org/2000/svg" xmlns:xlink="http://www.w3.org/1999/xlink" x="0px" y="0px"
	 viewBox="0 0 508.609 508.609" style="enable-background:new 0 0 508.609 508.609;" xml:space="preserve">
<circle style="fill:#90DFAA;" cx="254.305" cy="254.305" r="217.007"/>
<path style="fill:#2B3B4E;" d="M290.924,488.943c0,8.477-4.069,19.666-9.155,19.666s-9.155-11.189-9.155-19.666
	c0-8.477,4.069-10.85,9.155-10.85C286.856,478.093,290.924,480.466,290.924,488.943z"/>
<path style="fill:#FFD05B;" d="M263.799,394.003c0.339,4.408,1.017,8.477,1.695,12.885c7.121,43.401,10.85,81.038,10.85,81.038
	c0,7.121,2.374,10.85,5.425,11.528c2.713-0.678,5.086-8.477,5.425-11.528c0,0,3.391-37.976,10.85-81.038
	c0.678-4.408,1.356-8.816,1.695-12.885H263.799L263.799,394.003z"/>
<path style="fill:#2B3B4E;" d="M222.093,488.943c0,8.477,4.069,19.666,9.155,19.666c5.086,0,9.155-11.189,9.155-19.666
	c0-8.477-4.069-10.85-9.155-10.85C226.162,478.093,222.093,480.466,222.093,488.943z"/>
<path style="fill:#FFD05B;" d="M213.277,394.003c0.339,4.408,1.017,8.477,1.695,12.885c7.121,43.401,10.85,81.038,10.85,81.038
	c0.339,3.052,2.374,10.85,5.425,11.528c2.713-0.678,5.425-4.408,5.425-11.528c0,0,3.391-37.976,10.85-81.038
	c0.678-4.408,1.356-8.816,1.695-12.885H213.277L213.277,394.003z"/>
<path style="fill:#324A5E;" d="M349.245,380.44c0,0-6.103,8.477-16.615,5.764l0.339,11.868c0,0-15.936,15.258-53.234,10.511
	c-0.339,0-0.678,0-1.017,0c0,0-4.069-1.695-9.155-1.695c-2.374,0-5.086,0.339-7.46,1.356l-0.339,4.408c0,0-35.264,0-43.401-3.73
	c-0.678-0.339-1.356-0.678-1.356-1.017l0.339-6.442c0,0-3.391,1.017-8.138,2.034c-6.103,1.356-13.902,2.373-17.632,1.356
	c-0.339,0-0.339,0-0.678-0.339l0.339-6.442c0,0-1.356,0-3.391-0.339c-8.138-0.678-27.126-2.373-29.16-9.494
	c0,0,28.482-126.135,50.522-140.037c0,0,21.701-2.034,47.131-1.017c15.258,0.678,32.212,6.103,46.453,3.052
	C303.47,250.575,332.291,269.224,349.245,380.44z"/>
<g>
	<path style="fill:#2B3B4E;" d="M219.041,409.261c-0.678-0.339-1.356-0.678-1.356-1.017l0.339-6.442c0,0-3.391,1.017-8.138,2.034
		c2.034-32.212,9.833-139.359,15.936-145.123C225.823,258.374,218.702,376.032,219.041,409.261z"/>
	<path style="fill:#2B3B4E;" d="M279.735,408.922c-0.339,0-0.678,0-1.017,0c0,0-4.069-1.695-9.155-1.695
		c-0.339-20.344-0.678-68.832,1.695-88.498C271.597,318.728,275.327,382.135,279.735,408.922z"/>
	<path style="fill:#2B3B4E;" d="M209.208,261.764c0,0-14.241,112.572-16.954,143.089c-0.339,0-0.339,0-0.678-0.339l0.339-6.442
		c0,0-1.356,0-3.391-0.339C192.254,363.825,203.783,269.902,209.208,261.764z"/>
	<path style="fill:#2B3B4E;" d="M252.948,352.975c0,1.356-0.678,3.391-2.034,3.73c1.017-8.816-3.391-91.889-1.695-93.245
		c1.356,15.258,2.374,30.856,3.052,46.114C252.27,311.947,253.966,341.107,252.948,352.975z"/>
	<path style="fill:#2B3B4E;" d="M287.534,254.983c2.034-0.678,8.816,11.868,9.833,16.275c3.052,15.936,6.442,31.873,9.494,47.809
		c-1.017-3.73-2.374-7.121-3.73-10.511C300.079,302.114,286.517,261.086,287.534,254.983z"/>
	<path style="fill:#2B3B4E;" d="M321.441,302.114h-3.052c0,0.339,0.339,0.339,0.339,0.678c1.695,3.73,3.73,49.844,12.546,66.458
		C333.648,360.095,321.78,303.131,321.441,302.114z"/>
</g>
<g>
	<path style="fill:#FFD05B;" d="M319.068,302.453c-3.052,6.442-3.052,13.224-3.052,15.936c0,0.678,0.339,1.356,1.017,2.034
		c1.356,1.356,3.73,0.339,4.069-1.356l-0.339-2.034c-0.339-2.374,1.695-4.408,4.069-4.069c4.747,1.017,0.678,11.189-0.678,14.919
		c-0.339,1.017,0,2.034,0.678,2.713c1.356,1.356,3.391,0.678,4.069-1.017c4.747-12.207,4.408-21.023,3.052-27.126L319.068,302.453
		L319.068,302.453z"/>
	<path style="fill:#FFD05B;" d="M180.048,302.453c-1.356,6.103-1.695,15.258,3.052,27.126c0.678,1.695,2.713,2.034,4.069,1.017
		c0.678-0.678,1.017-1.695,0.678-2.713c-1.356-3.73-5.425-13.902-0.678-14.919c2.374-0.678,4.408,1.695,4.069,4.069l-0.339,2.034
		c0.339,2.034,2.713,2.713,4.069,1.356c0.678-0.339,1.017-1.017,1.017-2.034c0-2.713-0.339-9.494-3.052-15.936H180.048z"/>
</g>
<g>
	<path style="fill:#FFFFFF;" d="M318.389,125.457L318.389,125.457L318.389,125.457L318.389,125.457z"/>
	<path style="fill:#FFFFFF;" d="M338.734,304.148H310.93c0,0-0.678-76.97-8.138-112.911c2.374-4.069,3.73-10.172,3.73-16.615
		c0-3.052-0.339-5.764-0.678-8.138c0.339-0.678,13.902-23.396,12.207-41.028c0,0,7.46,14.241,9.494,81.038
		C327.883,206.495,335.004,299.401,338.734,304.148z"/>
</g>
<g>
	<path style="fill:#E6E9EE;" d="M194.967,125.457L194.967,125.457L194.967,125.457L194.967,125.457z"/>
	<path style="fill:#E6E9EE;" d="M210.225,190.898c-7.799,35.603-8.477,113.25-8.477,113.25h-27.804
		c3.73-4.747,11.189-97.653,11.189-97.653c2.374-66.797,9.833-81.038,9.833-81.038c-1.695,17.632,11.868,40.689,12.546,41.367
		c-0.678,2.374-0.678,5.086-0.678,7.799C206.495,181.065,207.852,186.829,210.225,190.898z"/>
	<path style="fill:#E6E9EE;" d="M307.2,253.626c-14.241,11.189-20.683,23.057-20.683,23.057
		c-7.121-12.885-31.873-28.821-31.873-28.821v-86.125l29.499-47.47c15.597-3.052,33.229,10.511,34.246,11.189l0,0
		c1.695,17.632-11.868,40.35-12.207,41.028c0.339,2.374,0.678,5.425,0.678,8.138c0,6.442-1.356,12.546-3.73,16.615
		c-1.017,1.695-2.034,3.391-3.391,4.408C298.384,223.788,307.2,253.626,307.2,253.626z"/>
</g>
<path style="fill:#FFFFFF;" d="M258.713,161.738v85.785c0,0-24.752,16.275-31.873,28.821c0,0-6.442-11.528-20.683-23.057
	c0,0,8.816-29.838,7.46-57.981c-1.356-1.017-2.374-2.713-3.391-4.408c-2.034-4.069-3.391-9.833-3.391-16.275
	c0-2.713,0.339-5.425,0.678-7.799c-0.339-1.017-13.902-23.735-12.546-41.367l0,0c1.017-0.678,18.649-14.241,34.246-11.189
	L258.713,161.738z"/>
<path style="fill:#2B3B4E;" d="M242.776,104.434l-13.902-4.747l2.713-30.177c0,0,15.936-0.678,16.954,0s17.632,2.034,17.632,2.034
	l13.902,4.069l-1.695,18.31l-9.155,7.46L242.776,104.434z"/>
<path style="fill:#F9B54C;" d="M286.856,113.589L286.856,113.589c0,1.017-0.339,2.034-0.339,2.713
	c-2.034,10.85-14.241,35.603-29.499,35.603c-15.258,0-27.465-24.752-29.499-35.603c-0.339-1.017-0.339-2.034-0.339-2.713h0.339
	c1.017-0.678,5.086-5.425,6.442-8.816c0.339-0.678,10.85-41.367,10.85-41.367h24.752c0,0,10.511,40.35,10.85,41.367
	C281.091,108.164,283.804,111.216,286.856,113.589L286.856,113.589z"/>
<path style="fill:#FFFFFF;" d="M277.022,98.331c0,0,4.069-0.339,15.597,16.954c0,0,7.121,7.46,12.207,10.172
	c0,0-5.086,2.374-14.241,0.678l6.781,8.138c0,0-38.993,21.023-43.062,27.804c0,0-2.374-10.172,10.172-20.005
	c0,0,13.902-18.31,14.58-33.568C279.057,108.503,278.718,101.722,277.022,98.331z"/>
<g>
	<path style="fill:#E6E9EE;" d="M235.995,98.331c0,0-4.069-0.339-15.597,16.954c0,0-7.121,7.46-12.207,10.172
		c0,0,5.086,2.374,14.241,0.678l-6.781,8.138c0,0,38.993,21.023,43.062,27.804c0,0,2.374-10.172-10.172-20.005
		c0,0-13.902-18.31-14.58-33.568C233.96,108.503,234.638,101.722,235.995,98.331z"/>
	<circle style="fill:#E6E9EE;" cx="252.609" cy="173.605" r="3.052"/>
	<circle style="fill:#E6E9EE;" cx="252.609" cy="195.306" r="3.052"/>
	<circle style="fill:#E6E9EE;" cx="252.609" cy="217.007" r="3.052"/>
	<circle style="fill:#E6E9EE;" cx="252.609" cy="238.707" r="3.052"/>
</g>
<path style="fill:#324A5E;" d="M274.649,22.04c-6.442-1.695-13.563-2.374-20.683-2.374c-7.46,0-14.241,1.017-20.683,2.374
	C233.96,9.494,243.115,0,253.966,0C264.816,0,273.971,9.833,274.649,22.04z"/>
<ellipse style="fill:#2B3B4E;" cx="253.966" cy="50.861" rx="53.574" ry="31.195"/>
<path style="fill:#FFD05B;" d="M282.448,64.424c0,18.649-11.528,38.654-25.77,38.654c-14.241,0-25.77-20.005-25.77-38.654
	s11.528-28.821,25.77-28.821C270.919,35.603,282.448,45.775,282.448,64.424z"/>
<g>
	<path style="fill:#324A5E;" d="M242.098,131.56c0,0-0.339-0.339-1.017-1.017C241.42,130.882,241.759,131.221,242.098,131.56z"/>
	<path style="fill:#324A5E;" d="M286.856,63.068c-2.374-30.856-26.787-29.16-26.787-29.16c-26.448-3.73-33.907,12.207-33.907,12.207
		c-16.954,31.195,10.172,87.142,10.172,87.142c-2.374-5.764-4.747-18.988-4.747-18.988c2.034,8.477,7.46,13.902,9.833,15.936
		c-7.46-7.799-7.121-40.689-7.121-40.689c-5.425-58.999,28.482-50.522,28.482-50.522c20.683,3.052,11.189,53.234,11.189,53.234
		c1.017,0,2.034-0.339,2.713-0.339c-2.713,13.224-10.172,33.229-10.172,33.229c2.713-2.374,5.086-5.086,5.086-5.086v6.103
		c5.764-9.155,7.799-26.787,8.816-36.281c0.339-0.339,0.678-0.339,1.017-0.678c0.678,14.241-4.069,46.792-4.069,46.792
		c7.121-9.155,6.781-35.264,6.103-48.826C289.568,79.343,286.856,63.068,286.856,63.068z"/>
</g>
<g>
</g>
<g>
</g>
<g>
</g>
<g>
</g>
<g>
</g>
<g>
</g>
<g>
</g>
<g>
</g>
<g>
</g>
<g>
</g>
<g>
</g>
<g>
</g>
<g>
</g>
<g>
</g>
<g>
</g>
</svg>
