<?xml version="1.0" encoding="iso-8859-1"?>
<!-- Generator: Adobe Illustrator 19.0.0, SVG Export Plug-In . SVG Version: 6.00 Build 0)  -->
<svg version="1.1" id="Layer_1" xmlns="http://www.w3.org/2000/svg" xmlns:xlink="http://www.w3.org/1999/xlink" x="0px" y="0px"
	 viewBox="0 0 508.609 508.609" style="enable-background:new 0 0 508.609 508.609;" xml:space="preserve">
<g>
	<circle style="fill:#FFD05B;" cx="254.305" cy="254.305" r="217.007"/>
	<path style="fill:#FFD05B;" d="M254.305,108.503L254.305,108.503L254.305,108.503z"/>
	<path style="fill:#FFD05B;" d="M254.305,108.503L254.305,108.503L254.305,108.503z"/>
</g>
<g>
	<path style="fill:#FFFFFF;" d="M254.305,108.503L254.305,108.503L254.305,108.503z"/>
	<path style="fill:#FFFFFF;" d="M269.224,80.021c-2.034-7.799-1.695-14.58-1.695-14.58l-13.224-0.678l0,0l0,0l0,0l0,0l-13.224,0.678
		c0,0,0.678,7.121-1.695,14.919c-0.678,2.034-1.356,3.73-2.373,5.764v14.919h34.924v-14.58
		C270.58,84.429,269.902,82.056,269.224,80.021z"/>
	<path style="fill:#FFFFFF;" d="M254.305,108.503L254.305,108.503L254.305,108.503z"/>
</g>
<polygon style="fill:#84DBFF;" points="202.087,265.494 201.07,304.487 210.225,493.012 234.977,493.012 254.305,338.734 
	273.632,493.012 298.384,493.012 307.539,304.487 306.522,265.494 "/>
<polygon style="fill:#324A5E;" points="307.2,277.701 306.522,265.494 202.087,265.494 201.409,277.701 "/>
<path style="fill:#E6E9EE;" d="M269.224,80.021l-1.017,1.356c-2.373,3.052-5.764,4.747-9.494,5.425L256,87.142
	c-1.356,0.339-2.713,0.339-4.069,0l-2.374-0.339c-3.73-0.678-7.121-2.374-9.494-5.425l-0.678-0.678
	c2.374-8.138,1.695-14.919,1.695-14.919l13.224-0.678l0,0l0,0l0,0l0,0l13.224,0.678C267.528,65.441,267.189,72.223,269.224,80.021z"
	/>
<path style="fill:#FFFFFF;" d="M280.074,40.35c-1.017-0.339-2.034-0.339-2.713,0.339l0.678-6.442H230.23l0.678,6.442
	c-1.017-0.339-2.034-0.678-2.713-0.339c-2.034,0.678-3.052,4.069-1.695,7.46c1.017,3.052,3.73,4.747,5.764,4.408l1.356,12.885
	c0.339,3.052,1.356,5.764,3.391,8.138l3.391,4.069c2.373,3.052,5.764,4.747,9.494,5.425l2.373,0.339
	c1.356,0.339,2.713,0.339,4.069,0l2.374-0.339c3.73-0.678,7.121-2.374,9.494-5.425l3.391-4.069c2.034-2.374,3.052-5.086,3.391-8.138
	l1.356-12.885c2.034,0.339,4.408-1.356,5.764-4.408C283.126,44.419,282.448,41.367,280.074,40.35z"/>
<g>
	<path style="fill:#324A5E;" d="M233.621,36.62h-8.138v0.339c3.052,5.425,7.799,15.258,7.799,15.258
		C232.604,46.453,232.943,41.028,233.621,36.62z"/>
	<path style="fill:#324A5E;" d="M274.31,36.62c1.356,5.425,1.695,12.207,1.695,12.207c1.017-6.781,4.069-7.121,4.069-7.121
		c0.339-1.695,0.678-3.391,1.017-4.747h-6.781V36.62z"/>
	<path style="fill:#324A5E;" d="M302.114,493.012h-28.821v11.868c0,2.034,1.695,3.73,3.73,3.73h38.654v-1.695
		C316.016,499.115,309.913,493.012,302.114,493.012z"/>
</g>
<path style="fill:#2B3B4E;" d="M206.495,493.012h28.821v11.868c0,2.034-1.695,3.73-3.73,3.73h-38.993v-1.695
	C192.593,499.115,198.697,493.012,206.495,493.012z"/>
<path style="fill:#FFD05B;" d="M242.776,254.983l-2.034-0.678l2.373-4.408l1.356,1.017
	C246.845,252.27,245.489,255.661,242.776,254.983z"/>
<path style="fill:#324A5E;" d="M337.377,212.599c-4.069-63.068-19.666-98.331-19.666-98.331s0,0.339,0,0.678
	c0-0.339,0-0.678,0-0.678c-11.528-14.919-46.453-29.16-46.453-29.16v0.339c-2.374,8.477-9.494,12.885-16.615,12.885
	c-7.121,0-14.241-4.408-16.615-12.885v-0.339c0,0-34.924,14.241-46.453,29.16h-0.339c0,0-15.597,35.264-19.666,98.331
	c-0.678,7.799,2.374,15.597,7.799,21.023c5.086,5.425,12.885,12.207,22.718,18.649c0,0,0.339,0,0.339,0.339
	c0,4.069,0,8.477,0,13.563h104.434c0-5.086,0-9.494,0-13.563l0,0c10.172-6.442,17.632-13.224,23.057-18.649
	C335.343,228.196,338.056,220.397,337.377,212.599z M194.628,211.921l8.477-26.787c1.695,13.563,1.695,23.735,1.017,33.568
	L194.628,211.921z M304.487,218.363c-0.678-9.833-0.678-20.005,1.017-33.568c0,0,0,0,0-0.339c0,0,0,0,0,0.339l8.477,26.787
	L304.487,218.363z"/>
<path style="fill:#84DBFF;" d="M202.087,266.172h104.774c0-2.374,0-4.747,0-7.121v-0.339c0-2.034,0-4.069,0-6.103l0,0
	c-0.339-13.224-1.695-23.396-2.034-34.246l0,0l0,0c0-1.017,0-2.373,0-3.391c0-0.339,0-0.339,0-0.678c0-3.052,0-6.103,0-9.155
	c0-0.678,0-1.695,0-2.374s0-1.356,0-2.034c0-1.017,0-2.034,0-3.052c0-0.678,0-1.356,0-2.034c0-1.017,0.339-2.374,0.339-3.391
	c0-0.678,0-1.017,0-1.695c0.339-1.695,0.339-3.73,0.678-5.425c0,0-8.816-16.954-8.477-86.803c-5.086-3.052-10.172-5.764-14.58-7.799
	v46.453h-56.625V90.193c-4.408,2.034-9.494,4.747-14.58,7.799c-1.017,57.642-8.477,86.803-8.477,86.803l0,0l0,0v0.339
	c0.339,1.695,0.339,3.391,0.678,5.086c0,0.678,0,1.356,0.339,2.034c0,1.017,0.339,2.034,0.339,3.052c0,0.678,0,1.356,0,2.034
	c0,1.017,0,1.695,0,2.713c0,0.678,0,1.695,0,2.374s0,1.356,0,2.034c0.339,16.615-2.034,29.16-2.374,48.148c0,1.695,0,3.73,0,5.425
	c0,0.339,0,0.678,0,1.017c0,2.034,0,4.069,0,6.103C202.087,265.833,202.087,265.833,202.087,266.172z"/>
<g>
	<circle style="fill:#54C0EB;" cx="280.752" cy="149.87" r="5.764"/>
	<circle style="fill:#54C0EB;" cx="228.196" cy="149.87" r="5.764"/>
</g>
<path style="fill:#FF7058;" d="M284.143,34.246c0,0.339,0,0.339,0,0.678c-9.155-2.034-19.327-2.713-30.178-2.713
	c-10.85,0-21.022,0.678-30.177,2.713c0-0.339,0-0.339,0-0.678c0-18.31,13.563-32.551,30.177-32.551S284.143,15.936,284.143,34.246z"
	/>
<path style="fill:#F1543F;" d="M268.885,28.821h-29.499c-1.356-7.121,0-18.31,4.747-25.091c3.052-1.356,6.442-2.034,10.172-2.034
	s6.781,0.678,10.172,2.034C268.885,10.511,270.241,21.701,268.885,28.821z"/>
<path style="fill:#FF7058;" d="M247.184,2.713c-4.069,6.103-6.781,16.615-7.799,26.787h29.499
	c-0.678-9.833-3.73-20.683-7.799-26.787C260.069,1.017,258.034,0,256,0h-3.391C250.236,0,248.201,1.017,247.184,2.713z"/>
<path style="fill:#F1543F;" d="M284.143,36.62h-60.355c-2.374,0-4.069-1.695-4.069-4.069l0,0c0-2.374,1.695-4.069,4.069-4.069
	h60.355c2.374,0,4.069,1.695,4.069,4.069l0,0C288.212,34.925,286.517,36.62,284.143,36.62z"/>
<circle style="fill:#FFFFFF;" cx="253.966" cy="24.074" r="10.511"/>
<circle style="fill:#54C0EB;" cx="253.966" cy="24.074" r="7.799"/>
<g>
	<rect x="273.971" y="264.138" style="fill:#84DBFF;" width="5.086" height="17.632"/>
	<rect x="229.552" y="264.138" style="fill:#84DBFF;" width="5.086" height="17.632"/>
</g>
<g>
</g>
<g>
</g>
<g>
</g>
<g>
</g>
<g>
</g>
<g>
</g>
<g>
</g>
<g>
</g>
<g>
</g>
<g>
</g>
<g>
</g>
<g>
</g>
<g>
</g>
<g>
</g>
<g>
</g>
</svg>
