<?xml version="1.0" encoding="iso-8859-1"?>
<!-- Generator: Adobe Illustrator 19.0.0, SVG Export Plug-In . SVG Version: 6.00 Build 0)  -->
<svg version="1.1" id="Layer_1" xmlns="http://www.w3.org/2000/svg" xmlns:xlink="http://www.w3.org/1999/xlink" x="0px" y="0px"
	 viewBox="0 0 508.609 508.609" style="enable-background:new 0 0 508.609 508.609;" xml:space="preserve">
<circle style="fill:#90DFAA;" cx="254.305" cy="254.305" r="217.007"/>
<g>
	<path style="fill:#FFFFFF;" d="M203.444,187.846c0,0.678,0,1.017,0.339,1.695l0,0C203.444,188.864,203.444,188.525,203.444,187.846
		z"/>
	<path style="fill:#FFFFFF;" d="M269.224,82.056c-0.339-1.356-0.678-2.713-1.017-3.73h-28.143c-0.339,1.356-0.678,2.713-1.017,4.408
		c-0.339,1.356-1.017,3.052-1.695,4.747c-0.339,0.339-8.138,3.73-11.189,5.086v66.458h55.947V92.228
		c-6.442-3.052-11.189-5.086-11.529-5.086C270.241,85.107,269.563,83.412,269.224,82.056z"/>
	<path style="fill:#FFFFFF;" d="M305.166,187.846c0,0.339,0,1.017,0,1.695l0,0C305.166,188.864,305.166,188.525,305.166,187.846z"/>
	<path style="fill:#FFFFFF;" d="M329.24,234.977c-5.086,5.425-12.885,12.207-22.718,18.649l0,0l-2.034-34.246l9.494-6.442
		l-8.477-26.787c0,0-8.816-16.954-8.477-86.464c8.138,4.747,15.936,10.511,20.344,16.275c0,0,15.597,35.264,19.666,97.992
		C337.717,221.754,334.665,229.552,329.24,234.977z"/>
</g>
<g>
	<path style="fill:#FFD05B;" d="M254.305,110.199L254.305,110.199L254.305,110.199z"/>
	<path style="fill:#FFD05B;" d="M254.305,110.199L254.305,110.199L254.305,110.199z"/>
</g>
<g>
	<path style="fill:#FFFFFF;" d="M254.305,110.199L254.305,110.199L254.305,110.199z"/>
	<path style="fill:#FFFFFF;" d="M254.305,110.199L254.305,110.199L254.305,110.199z"/>
</g>
<polygon style="fill:#324A5E;" points="202.087,266.511 201.409,305.505 210.564,493.012 235.317,493.012 254.305,339.412 
	273.632,493.012 298.045,493.012 307.2,305.505 306.522,266.511 "/>
<polygon style="fill:#E6E9EE;" points="306.861,278.718 306.522,266.511 202.087,266.511 201.748,278.718 "/>
<g>
	<rect x="273.971" y="265.155" style="fill:#324A5E;" width="5.086" height="36.62"/>
	<rect x="229.552" y="265.155" style="fill:#324A5E;" width="5.086" height="36.62"/>
</g>
<path style="fill:#E6E9EE;" d="M269.224,81.717l-1.017,1.356c-2.373,3.052-5.764,4.747-9.494,5.425h-9.155
	c-3.73-0.339-7.121-2.374-9.494-5.425l-0.678-0.678c2.374-8.138,1.695-14.919,1.695-14.919l13.224-0.678l0,0l0,0l0,0l0,0
	l13.224,0.678C267.528,67.475,266.85,74.257,269.224,81.717z"/>
<g>
	<path style="fill:#FFFFFF;" d="M253.966,25.091h-24.752l4.069,42.045c0.339,3.052,1.356,5.764,3.391,8.138l3.391,4.069
		c2.373,3.052,5.764,4.747,9.494,5.425l2.373,0.339c1.356,0.339,2.713,0.339,4.069,0l2.374-0.339
		c3.73-0.678,7.121-2.374,9.494-5.425l3.391-4.069c2.034-2.374,3.052-5.086,3.391-8.138l4.069-42.045
		C278.718,25.091,253.966,25.091,253.966,25.091z"/>
	<path style="fill:#FFFFFF;" d="M281.77,49.844c-1.356,3.052-4.069,5.086-6.103,4.408c-2.034-0.678-3.052-4.069-1.695-7.121
		c1.356-3.052,4.069-5.086,6.103-4.408S282.787,46.453,281.77,49.844z"/>
	<path style="fill:#FFFFFF;" d="M226.162,49.844c1.356,3.052,4.069,5.086,6.103,4.408c2.034-0.678,3.052-4.069,1.695-7.121
		c-1.356-3.052-4.069-5.086-6.103-4.408C225.823,43.401,225.144,46.453,226.162,49.844z"/>
</g>
<g>
	<path style="fill:#324A5E;" d="M233.96,38.654h-8.138v0.339c2.713,5.425,7.799,15.258,7.799,15.258
		C232.604,48.487,232.943,43.062,233.96,38.654z"/>
	<path style="fill:#324A5E;" d="M274.31,38.654c1.356,5.425,1.695,12.207,1.695,12.207c1.017-6.781,4.069-7.121,4.069-7.121
		c0.339-1.695,0.678-3.391,1.017-4.747h-6.781V38.654z"/>
</g>
<g>
	<path style="fill:#2B3B4E;" d="M302.114,493.012h-28.482v11.868c0,2.034,1.695,3.73,3.73,3.73h38.654v-1.695
		C315.677,499.115,309.574,493.012,302.114,493.012z"/>
	<path style="fill:#2B3B4E;" d="M206.495,493.012h28.482v11.868c0,2.034-1.695,3.73-3.73,3.73h-38.315v-1.695
		C192.932,499.115,199.036,493.012,206.495,493.012z"/>
</g>
<path style="fill:#FFD05B;" d="M242.776,256l-2.034-0.678l2.373-4.408l1.356,1.017C246.845,253.626,245.489,257.017,242.776,256z"/>
<path style="fill:#324A5E;" d="M306.522,267.189H202.426c0-4.747,0-9.155,0-13.563c0.339-13.224,1.695-23.396,2.374-33.907
	c0.339-8.816,0.339-18.31-0.678-30.177c0-0.678,0-1.017-0.339-1.695c0-0.678,0-1.017,0-1.695l0,0l0,0c0,0,8.816-16.954,8.477-86.464
	l0,0c0.678-0.339,1.356-0.678,2.034-1.017c1.356-0.678,2.374-1.356,3.73-2.034c0.339-0.339,1.017-0.678,1.356-0.678
	c1.695-0.678,3.052-1.695,4.408-2.374c1.017-0.678,2.034-1.017,3.052-1.356v66.458h55.947V92.228
	c4.069,2.034,8.816,4.408,13.563,7.121c0.339,0.339,0.678,0.339,1.017,0.678c-0.339,69.51,8.477,86.464,8.477,86.464
	c0,0.339,0,1.017,0,1.695c0,0.678,0,1.017-0.339,1.695c-1.356,11.868-1.356,21.362-0.678,30.177
	c0.678,10.511,1.695,20.683,2.034,34.246C306.522,258.034,306.522,262.442,306.522,267.189z"/>
<g>
	<circle style="fill:#2B3B4E;" cx="280.413" cy="175.979" r="5.764"/>
	<circle style="fill:#2B3B4E;" cx="228.196" cy="175.979" r="5.764"/>
</g>
<path style="fill:#FFD05B;" d="M283.804,35.264c0,0.339,0,0.339,0,0.678c-9.155-2.034-19.327-2.713-29.838-2.713
	c-10.85,0-21.023,0.678-29.838,2.713c0-0.339,0-0.339,0-0.678c0-17.971,13.224-32.212,29.838-32.212S283.804,17.293,283.804,35.264z
	"/>
<path style="fill:#F9B54C;" d="M247.184,3.052c-4.069,6.781-6.781,18.31-7.799,29.16h29.499c-0.678-10.85-3.73-22.379-7.799-29.16
	C260.069,1.017,258.034,0,256,0h-3.391C250.236,0,248.201,1.017,247.184,3.052z"/>
<path style="fill:#FFFFFF;" d="M292.281,204.122c0,0-1.017-18.31-14.58-15.936c-2.034,0.339-3.73,1.356-5.086,3.052l-30.517,37.637
	c-1.356,1.356-1.017,3.73,0.339,5.086l0,0c1.695,1.695,4.408,1.356,5.764-0.339l29.499-37.976l13.563,9.833L292.281,204.122z"/>
<polygon style="fill:#ACB3BA;" points="258.374,221.754 251.253,216.328 255.322,211.242 262.442,216.328 "/>
<polygon style="fill:#E6E9EE;" points="275.327,218.363 268.546,212.599 274.649,205.478 281.43,211.242 "/>
<path style="fill:#FF7058;" d="M281.091,213.616l-62.728,77.309c-1.695,2.034-4.747,2.374-6.781,0.339l0,0
	c-1.695-1.695-1.695-4.069-0.339-5.764l51.878-65.78l-13.224-10.85l5.086-5.086c3.391-3.73,9.155-3.73,13.224-0.678L281.091,213.616
	z"/>
<circle style="fill:#5D5D5D;" cx="214.972" cy="288.212" r="2.713"/>
<path style="fill:#FFD05B;" d="M244.132,272.276l9.494-13.902c1.695-2.374,1.017-5.425-1.356-7.121l-11.528-7.799
	c-0.678-0.339-1.356-0.678-2.374-0.678c-3.052-0.339-6.103-1.356-9.155-2.713l-12.207-7.121l-10.172,15.258l10.85,8.816
	c2.374,2.034,4.408,4.408,5.764,7.46c0.339,0.678,1.017,1.356,1.695,1.695l11.528,7.799
	C239.385,275.327,242.437,274.649,244.132,272.276z"/>
<path style="fill:#FFFFFF;" d="M227.179,238.029l-7.799,21.362c-0.678,1.695-2.713,2.374-4.408,1.695
	c-4.747-2.374-12.885-7.46-12.885-7.46c-9.833-6.442-17.632-13.224-22.718-18.649c-5.425-5.425-8.138-13.224-7.799-21.023
	c4.069-62.728,19.666-97.992,19.666-97.992l0,0c4.408-5.764,12.546-11.528,20.344-16.275l0,0c0.339,69.51-8.477,86.464-8.477,86.464
	l0,0l-8.138,27.126l31.195,21.362C227.179,235.317,227.857,236.673,227.179,238.029z"/>
<path style="fill:#F9B54C;" d="M281.77,41.706h-56.286c-2.713,0-4.747-2.034-4.747-4.747l0,0c0-2.713,2.034-4.747,4.747-4.747
	h56.286c2.713,0,4.747,2.034,4.747,4.747l0,0C286.517,39.332,284.482,41.706,281.77,41.706z"/>
<g>
</g>
<g>
</g>
<g>
</g>
<g>
</g>
<g>
</g>
<g>
</g>
<g>
</g>
<g>
</g>
<g>
</g>
<g>
</g>
<g>
</g>
<g>
</g>
<g>
</g>
<g>
</g>
<g>
</g>
</svg>
