<?xml version="1.0" encoding="iso-8859-1"?>
<!-- Generator: Adobe Illustrator 19.0.0, SVG Export Plug-In . SVG Version: 6.00 Build 0)  -->
<svg xmlns="http://www.w3.org/2000/svg" xmlns:xlink="http://www.w3.org/1999/xlink" version="1.1" id="Layer_1" x="0px" y="0px" viewBox="0 0 508 508" style="enable-background:new 0 0 508 508;" xml:space="preserve">
<circle style="fill:#324A5E;" cx="254" cy="254" r="254"/>
<path style="fill:#FFFFFF;" d="M357.2,420H150.8c-6.4,0-12-5.2-12-12V134.4c0-6.4,5.2-12,12-12h206.8c6.4,0,12,5.2,12,12V408  C369.2,414.8,364,420,357.2,420z"/>
<g>
	<rect x="163.6" y="147.6" style="fill:#E6E9EE;" width="180.8" height="111.2"/>
	<rect x="163.6" y="284.4" style="fill:#E6E9EE;" width="180.8" height="111.2"/>
</g>
<g>
	<rect x="224.4" y="169.2" style="fill:#ACB3BA;" width="59.2" height="14"/>
	<rect x="224.4" y="304.4" style="fill:#ACB3BA;" width="59.2" height="14"/>
</g>
<path style="fill:#FFD05B;" d="M332,147.6V94.4c0-8.8-7.2-16-16-16h-36.4c-6,0-11.2,3.2-14,8.4L264,90c-2.8,5.2-8.4,8.4-14,8.4h-58  c-8.8,0-16,7.2-16,16v32.8h156V147.6z"/>
<g>
</g>
<g>
</g>
<g>
</g>
<g>
</g>
<g>
</g>
<g>
</g>
<g>
</g>
<g>
</g>
<g>
</g>
<g>
</g>
<g>
</g>
<g>
</g>
<g>
</g>
<g>
</g>
<g>
</g>
</svg>
