<?xml version="1.0" encoding="iso-8859-1"?>
<!-- Generator: Adobe Illustrator 19.0.0, SVG Export Plug-In . SVG Version: 6.00 Build 0)  -->
<svg xmlns="http://www.w3.org/2000/svg" xmlns:xlink="http://www.w3.org/1999/xlink" version="1.1" id="Layer_1" x="0px" y="0px" viewBox="0 0 508 508" style="enable-background:new 0 0 508 508;" xml:space="preserve">
<circle style="fill:#90DFAA;" cx="254" cy="254" r="254"/>
<path style="fill:#FFFFFF;" d="M392.8,98H115.2c-9.6,0-17.2,7.6-17.2,17.2v277.2c0,9.6,7.6,17.2,17.2,17.2h277.2  c9.6,0,17.2-7.6,17.2-17.2V115.2C410,105.6,402.4,98,392.8,98z"/>
<g>
	<rect x="153.2" y="307.6" style="fill:#324A5E;" width="18" height="67.6"/>
	<rect x="182" y="307.6" style="fill:#324A5E;" width="12" height="67.6"/>
	<rect x="204" y="307.6" style="fill:#324A5E;" width="12" height="67.6"/>
	<rect x="222.8" y="307.6" style="fill:#324A5E;" width="8" height="67.6"/>
	<rect x="239.2" y="307.6" style="fill:#324A5E;" width="12.4" height="67.6"/>
	<rect x="259.6" y="307.6" style="fill:#324A5E;" width="8.4" height="67.6"/>
	<rect x="274.8" y="307.6" style="fill:#324A5E;" width="8.4" height="67.6"/>
	<rect x="288" y="307.6" style="fill:#324A5E;" width="5.6" height="67.6"/>
	<rect x="342" y="307.6" style="fill:#324A5E;" width="12.4" height="67.6"/>
	<rect x="326" y="307.6" style="fill:#324A5E;" width="8.4" height="67.6"/>
	<rect x="310.8" y="307.6" style="fill:#324A5E;" width="8.4" height="67.6"/>
	<rect x="300.4" y="307.6" style="fill:#324A5E;" width="5.6" height="67.6"/>
</g>
<rect x="214" y="98" style="fill:#FFD05B;" width="80.4" height="35.6"/>
<g>
	<path style="fill:#ACB3BA;" d="M225.6,214c-0.4-10.8-9.2-20-20-20c-11.2,0-20,8.8-20,20H204v19.6c0,2-1.6,3.2-3.2,3.2   c-2,0-3.2-1.6-3.2-3.2c0-1.2-0.8-2-2-2s-2,0.8-2,2c0,4,3.2,7.2,7.2,7.2s7.2-3.2,7.2-7.2V214H225.6z"/>
	<path style="fill:#ACB3BA;" d="M309.6,236.4h-4.8v-17.2c6.4-1.2,10.8-8.4,10.8-17.2c0-2.8-0.4-5.6-1.6-8.4h-22.8   c-0.8,2.4-1.6,5.2-1.6,8.4c0,8.8,4.8,16,10.8,17.2v17.2h-4.8c-1.2,0-2,0.8-2,2s0.8,2,2,2h6.8l0,0l0,0h6.8c1.2,0,2-0.8,2-2   C311.6,237.6,310.8,236.4,309.6,236.4z"/>
	<path style="fill:#ACB3BA;" d="M240.8,256h-71.2c-1.6,0-3.2-1.2-3.2-3.2v-71.2c0-1.6,1.2-3.2,3.2-3.2h71.2c1.6,0,3.2,1.2,3.2,3.2   v71.2C244,254.4,242.4,256,240.8,256z M172.8,249.6h64.8v-64.8h-64.8V249.6z"/>
	<path style="fill:#ACB3BA;" d="M338.4,256h-71.2c-1.6,0-3.2-1.2-3.2-3.2v-71.2c0-1.6,1.2-3.2,3.2-3.2h71.2c1.6,0,3.2,1.2,3.2,3.2   v71.2C341.2,254.4,340,256,338.4,256z M270.4,249.6h64.8v-64.8h-64.8V249.6z"/>
</g>
<g>
</g>
<g>
</g>
<g>
</g>
<g>
</g>
<g>
</g>
<g>
</g>
<g>
</g>
<g>
</g>
<g>
</g>
<g>
</g>
<g>
</g>
<g>
</g>
<g>
</g>
<g>
</g>
<g>
</g>
</svg>
