<?xml version="1.0" encoding="iso-8859-1"?>
<!-- Generator: Adobe Illustrator 19.0.0, SVG Export Plug-In . SVG Version: 6.00 Build 0)  -->
<svg xmlns="http://www.w3.org/2000/svg" xmlns:xlink="http://www.w3.org/1999/xlink" version="1.1" id="Layer_1" x="0px" y="0px" viewBox="0 0 508 508" style="enable-background:new 0 0 508 508;" xml:space="preserve">
<circle style="fill:#FFD05B;" cx="254" cy="254" r="254"/>
<g>
	<polygon style="fill:#FF7058;" points="408.4,146.4 408.4,99.6 361.6,99.6 375.6,114 324.4,165.2 342.8,183.6 394,132.4  "/>
	<polygon style="fill:#FF7058;" points="99.6,361.6 99.6,408.4 146.4,408.4 132.4,394 183.6,342.8 165.2,324.4 114,375.6  "/>
	<polygon style="fill:#FF7058;" points="361.6,408.4 408.4,408.4 408.4,361.6 394,375.6 342.8,324.4 324.4,342.8 375.6,394  "/>
	<polygon style="fill:#FF7058;" points="146.4,99.6 99.6,99.6 99.6,146.4 114,132.4 165.2,183.6 183.6,165.2 132.4,114  "/>
</g>
<circle style="fill:#FFFFFF;" cx="254" cy="254" r="145.6"/>
<path style="fill:#84DBFF;" d="M315.6,374.8l-7.2,13.2l-0.8,1.6c-2.8,1.2-5.6,2-8.4,3.2c-2.8,0.8-5.6,1.6-8.4,2.4  c-0.8,0.4-1.6,0.4-2.4,0.8c-3.2,0.8-6.4,1.6-9.6,2c-3.6,0.8-6.8,1.2-10.4,1.6c-0.4,0-0.8,0-1.2,0c-0.8,0-1.6,0-2.4,0  c-3.6,0.4-6.8,0.4-10.4,0.4s-7.2,0-10.4-0.4c-0.8,0-1.6,0-2.4,0c-0.4,0-0.8,0-1.2,0c-3.6-0.4-7.2-0.8-10.4-1.6  c-15.2-2.4-29.2-7.6-42.4-14.4c-5.6-20-10.8-41.6-8-44.8c4.8-5.6,22.4-29.6,22.4-29.6l6.8-2l14-4l2.4-0.8l0.8-0.4l2-0.4l9.6-2.8  L254,294l16.8,4.4l9.6,2.4l2,0.4h0.8l2.4,0.4l15.2,4l11.6,3.2L315.6,374.8z"/>
<path style="fill:#2C9984;" d="M266,392.8l1.2,6c-0.8,0-1.6,0-2.4,0c-3.6,0.4-6.8,0.4-10.4,0.4s-7.2,0-10.4-0.4c-0.8,0-1.6,0-2.4,0  l1.2-6l10-54.8L242,324.4L232,312h45.6l-10,12.4L256.8,338L266,392.8z"/>
<path style="fill:#F9B54C;" d="M282.8,288c0,21.2-12.8,24.4-28.8,24.4s-28.8-3.2-28.8-24.4c0-21.2,12.8-55.6,28.8-55.6  S282.8,266.4,282.8,288z"/>
<path style="fill:#324A5E;" d="M179.2,378.8c-12-7.2-23.2-16.4-32.4-26.4c-4-4.4-8-9.2-11.6-14.4c0.8-9.6,1.6-16,1.6-16l0,0  c1.2,0.8,18.4,11.6,26.4,11.6C168,333.6,177.2,356.4,179.2,378.8z"/>
<path style="fill:#2B3B4E;" d="M240,398.8c-3.6-0.4-7.2-0.8-10.4-1.6c-15.2-2.4-29.2-7.6-42.4-14.4c-2.8-1.2-5.2-2.8-7.6-4.4  c-12-7.2-23.2-16.4-32.4-26.4c-5.6-18-9.6-29.6-9.6-30l0,0c49.6-13.2,71.2-26,80.4-33.6c5.2-4.4,6.4-6.8,6.4-6.8c0,0.4,0,0.8,0,1.2  c0.4,6.8,0.8,13.2,1.2,19.6c0.4,4,0.8,8,1.2,12C229.2,347.6,234.4,376,240,398.8z"/>
<g>
	<path style="fill:#324A5E;" d="M243.6,399.2c-0.8,0-1.6,0-2.4,0c-0.4,0-0.8,0-1.2,0c-3.6-0.4-7.2-0.8-10.4-1.6   c-14.4-37.6-27.6-76-27.6-76l13.6-7.2l-6.8-6.8l-1.2-1.2c2.4-6.8,6-12.8,9.6-17.6c3.6-5.2,6.8-9.2,8.8-10.8c0,0,0,0,0.4-0.4   s0.8-0.8,0.8-0.8v0.4c0,0.4-0.4,0.8-0.4,1.2c-0.8,3.2-1.2,8-1.2,13.6l0,0c0,3.2,0.4,6.4,0.4,10.4c0.4,4.8,1.2,10.4,2,16l0,0   c3.2,22.4,8.8,49.2,14.4,74.4C242.4,395.2,243.2,397.2,243.6,399.2z"/>
	<path style="fill:#324A5E;" d="M372.8,338c-3.6,4.8-7.2,9.6-11.6,14.4c-9.6,10.4-20.4,19.2-32.4,26.4c2-22.4,10.8-45.2,16-45.2   c8,0,25.2-10.8,26.4-11.6l0,0C371.2,322,372,328.4,372.8,338z"/>
</g>
<path style="fill:#2B3B4E;" d="M371.2,322.4L371.2,322.4c-0.4,0.8-4.4,12.4-10,30c-9.6,10.4-20.4,19.2-32.4,26.4  c-6,3.6-12.8,7.2-19.6,9.6c-0.4,0.4-1.2,0.4-1.6,0.8c-2.8,1.2-5.6,2-8.4,3.2c-2.8,0.8-5.6,1.6-8.4,2.4c-0.8,0.4-1.6,0.4-2.4,0.8  c-3.2,0.8-6.4,1.6-9.6,2c-3.6,0.8-6.8,1.2-10.4,1.6c5.2-23.2,10.4-51.6,13.6-84.8c0.4-4,0.8-8.4,1.2-12.4c0.4-6,0.8-12.4,1.2-18.8  l0,0c0-0.4,0-0.8,0-1.2c0,0,1.2,2.4,6.4,6.8C300,296,322,309.2,371.2,322.4z"/>
<path style="fill:#324A5E;" d="M306,321.2c0,0-13.2,38.4-27.2,76c-3.6,0.8-6.8,1.2-10.4,1.6c-0.4,0-0.8,0-1.2,0c-0.8,0-1.6,0-2.4,0  c0.4-2,0.8-4.4,1.6-6.4c5.6-25.2,11.2-52.4,14.4-74.4l0,0c0.8-6,1.6-11.6,2-16.8c0.4-3.6,0.4-6.8,0.4-10c0,0,0,0,0-0.4l0,0  c0-5.2,0-9.6-1.2-12.8l0,0c0-0.4,0-0.4-0.4-0.8c0-0.4,0-0.4-0.4-0.8c0,0,0.4,0.4,0.8,0.8c0,0,0,0,0.4,0.4c1.6,2,5.2,5.6,8.8,10.8  c3.6,4.8,7.2,10.8,9.6,17.6l0,0l-8,8L306,321.2z"/>
<g>
	<ellipse style="fill:#FFD05B;" cx="254" cy="226.4" rx="49.6" ry="62.4"/>
	
		<ellipse transform="matrix(0.3227 -0.9465 0.9465 0.3227 -4.8991 437.9451)" style="fill:#FFD05B;" cx="303.557" cy="222.396" rx="17.2" ry="8.8"/>
	
		<ellipse transform="matrix(0.3227 0.9465 -0.9465 0.3227 348.7928 -42.9237)" style="fill:#FFD05B;" cx="204.389" cy="222.251" rx="17.2" ry="8.8"/>
</g>
<path style="fill:#324A5E;" d="M208.8,235.6c-25.6-53.6,10-70.8,10-70.8l-16.4,9.2c50.8-61.2,87.2-11.2,87.2-11.2  c35.2,27.2,12.4,68.4,12.4,68.4s-4-30-19.2-43.6c0,0-18,20.4-60,1.6c0,0-10,14.8-6.4,34.8c0,0-4.4-2.8-5.6-12.8  C211.2,211.2,206.4,224.8,208.8,235.6L208.8,235.6z"/>
<g>
	<path style="fill:#FFFFFF;" d="M227.2,276.8c0,0,4,24.4,26.8,35.6c0,0-15.2,11.6-18,21.2C236,333.6,211.6,298,227.2,276.8z"/>
	<path style="fill:#FFFFFF;" d="M280.8,276.8c0,0-4,24.4-26.8,35.6c0,0,15.2,11.6,18,21.2C272,333.6,296.4,298,280.8,276.8z"/>
</g>
<path style="fill:#324A5E;" d="M290.8,394.8c-0.8,0.4-1.6,0.4-2.4,0.8v-0.8H290.8z"/>
<path style="fill:#FF7058;" d="M309.6,388.8c-0.4,0.4-1.2,0.4-1.6,0.8c-2.8,1.2-5.6,2-8.4,3.2l6.8-6.8L309.6,388.8z"/>
<g>
</g>
<g>
</g>
<g>
</g>
<g>
</g>
<g>
</g>
<g>
</g>
<g>
</g>
<g>
</g>
<g>
</g>
<g>
</g>
<g>
</g>
<g>
</g>
<g>
</g>
<g>
</g>
<g>
</g>
</svg>
