<?xml version="1.0" encoding="iso-8859-1"?>
<!-- Generator: Adobe Illustrator 19.0.0, SVG Export Plug-In . SVG Version: 6.00 Build 0)  -->
<svg xmlns="http://www.w3.org/2000/svg" xmlns:xlink="http://www.w3.org/1999/xlink" version="1.1" id="Layer_1" x="0px" y="0px" viewBox="0 0 508 508" style="enable-background:new 0 0 508 508;" xml:space="preserve">
<circle style="fill:#FFD05B;" cx="254" cy="254" r="254"/>
<path style="fill:#FFFFFF;" d="M378.4,88.8H129.6c-7.6,0-14,6.4-14,14v302c0,7.6,6.4,14,14,14h248.8c7.6,0,14-6.4,14-14V103.2  C392.4,95.2,386.4,88.8,378.4,88.8z"/>
<path style="fill:#2B3B4E;" d="M364.8,167.2V122c0-2.8-2.4-5.2-5.2-5.2H148.4c-2.8,0-5.2,2.4-5.2,5.2v45.2c0,2.8,2.4,5.2,5.2,5.2  h211.2C362.4,172.4,364.8,170,364.8,167.2z"/>
<path style="fill:#324A5E;" d="M282.8,116.8H148.4c-2.8,0-5.2,2.4-5.2,5.2v45.2c0,2.8,2.4,5.2,5.2,5.2h64.4L282.8,116.8z"/>
<path style="fill:#FF7058;" d="M180.4,199.6h-32c-2.8,0-5.2,2.4-5.2,5.2v22c0,2.8,2.4,5.2,5.2,5.2h32c2.8,0,5.2-2.4,5.2-5.2v-22  C185.6,202,183.2,199.6,180.4,199.6z"/>
<g>
	<path style="fill:#84DBFF;" d="M359.6,199.6h-32c-2.8,0-5.2,2.4-5.2,5.2v22c0,2.8,2.4,5.2,5.2,5.2h32c2.8,0,5.2-2.4,5.2-5.2v-22   C364.8,202,362.4,199.6,359.6,199.6z"/>
	<path style="fill:#84DBFF;" d="M300,199.6h-32c-2.8,0-5.2,2.4-5.2,5.2v22c0,2.8,2.4,5.2,5.2,5.2h32c2.8,0,5.2-2.4,5.2-5.2v-22   C305.2,202,302.8,199.6,300,199.6z"/>
	<path style="fill:#84DBFF;" d="M240.4,199.6h-32c-2.8,0-5.2,2.4-5.2,5.2v22c0,2.8,2.4,5.2,5.2,5.2h32c2.8,0,5.2-2.4,5.2-5.2v-22   C245.2,202,243.2,199.6,240.4,199.6z"/>
	<path style="fill:#84DBFF;" d="M180.4,359.2h-32c-2.8,0-5.2,2.4-5.2,5.2V386c0,2.8,2.4,5.2,5.2,5.2h32c2.8,0,5.2-2.4,5.2-5.2v-22   C185.6,361.6,183.2,359.2,180.4,359.2z"/>
</g>
<path style="fill:#ACB3BA;" d="M359.6,306h-32c-2.8,0-5.2,2.4-5.2,5.2V386c0,2.8,2.4,5.2,5.2,5.2h32c2.8,0,5.2-2.4,5.2-5.2v-74.8  C364.8,308.4,362.4,306,359.6,306z"/>
<g>
	<path style="fill:#84DBFF;" d="M300,359.2h-32c-2.8,0-5.2,2.4-5.2,5.2V386c0,2.8,2.4,5.2,5.2,5.2h32c2.8,0,5.2-2.4,5.2-5.2v-22   C305.2,361.6,302.8,359.2,300,359.2z"/>
	<path style="fill:#84DBFF;" d="M240.4,359.2h-32c-2.8,0-5.2,2.4-5.2,5.2V386c0,2.8,2.4,5.2,5.2,5.2h32c2.8,0,5.2-2.4,5.2-5.2v-22   C245.2,361.6,243.2,359.2,240.4,359.2z"/>
	<path style="fill:#84DBFF;" d="M180.4,306h-32c-2.8,0-5.2,2.4-5.2,5.2v22c0,2.8,2.4,5.2,5.2,5.2h32c2.8,0,5.2-2.4,5.2-5.2v-22   C185.6,308.4,183.2,306,180.4,306z"/>
	<path style="fill:#84DBFF;" d="M300,306h-32c-2.8,0-5.2,2.4-5.2,5.2v22c0,2.8,2.4,5.2,5.2,5.2h32c2.8,0,5.2-2.4,5.2-5.2v-22   C305.2,308.4,302.8,306,300,306z"/>
	<path style="fill:#84DBFF;" d="M240.4,306h-32c-2.8,0-5.2,2.4-5.2,5.2v22c0,2.8,2.4,5.2,5.2,5.2h32c2.8,0,5.2-2.4,5.2-5.2v-22   C245.2,308.4,243.2,306,240.4,306z"/>
	<path style="fill:#84DBFF;" d="M180.4,252.8h-32c-2.8,0-5.2,2.4-5.2,5.2v22c0,2.8,2.4,5.2,5.2,5.2h32c2.8,0,5.2-2.4,5.2-5.2v-22   C185.6,255.2,183.2,252.8,180.4,252.8z"/>
	<path style="fill:#84DBFF;" d="M359.6,252.8h-32c-2.8,0-5.2,2.4-5.2,5.2v22c0,2.8,2.4,5.2,5.2,5.2h32c2.8,0,5.2-2.4,5.2-5.2v-22   C364.8,255.2,362.4,252.8,359.6,252.8z"/>
	<path style="fill:#84DBFF;" d="M300,252.8h-32c-2.8,0-5.2,2.4-5.2,5.2v22c0,2.8,2.4,5.2,5.2,5.2h32c2.8,0,5.2-2.4,5.2-5.2v-22   C305.2,255.2,302.8,252.8,300,252.8z"/>
	<path style="fill:#84DBFF;" d="M240.4,252.8h-32c-2.8,0-5.2,2.4-5.2,5.2v22c0,2.8,2.4,5.2,5.2,5.2h32c2.8,0,5.2-2.4,5.2-5.2v-22   C245.2,255.2,243.2,252.8,240.4,252.8z"/>
</g>
<g>
</g>
<g>
</g>
<g>
</g>
<g>
</g>
<g>
</g>
<g>
</g>
<g>
</g>
<g>
</g>
<g>
</g>
<g>
</g>
<g>
</g>
<g>
</g>
<g>
</g>
<g>
</g>
<g>
</g>
</svg>
