<?xml version="1.0" encoding="iso-8859-1"?>
<!-- Generator: Adobe Illustrator 19.0.0, SVG Export Plug-In . SVG Version: 6.00 Build 0)  -->
<svg xmlns="http://www.w3.org/2000/svg" xmlns:xlink="http://www.w3.org/1999/xlink" version="1.1" id="Layer_1" x="0px" y="0px" viewBox="0 0 508 508" style="enable-background:new 0 0 508 508;" xml:space="preserve">
<circle style="fill:#84DBFF;" cx="254" cy="254" r="254"/>
<path style="fill:#FFFFFF;" d="M424,238.4c-11.6-65.2-79.6-115.2-162-115.2c-20.8,0-40.8,3.2-58.8,9.2c-14.4-15.2-39.6-32.8-76-22.4  c0,0,26,16.4,22,50.8c-12.4,9.6-23.2,20.8-31.2,33.2c-5.2,7.6-11.2,14.8-18.4,20c-24.8,18.8-44.4,23.2-44.4,23.2L72,283.6  c0,0,4.8-1.2,15.6,4.8c10.8,6.4,20,15.6,26,26.4c10,17.6,24.4,33.2,42,45.6v46c0,6.8,5.6,12.4,12.4,12.4h17.2c5.6,0,10.8-4,12-9.6  l6-25.2c18.4,6,38,9.2,59.2,9.2c15.2,0,29.6-1.6,43.6-4.8l4.8,21.2c1.2,5.6,6.4,9.6,12,9.6H340c6.8,0,12.4-5.6,12.4-12.4v-36  c39.2-21.6,66.8-56.4,72.4-97.2c15.6-0.4,28-8.4,28-17.6C452.8,246.4,440,238.8,424,238.4z"/>
<circle style="fill:#324A5E;" cx="157.6" cy="211.6" r="16"/>
<circle style="fill:#FF7058;" cx="310.8" cy="165.6" r="78.8"/>
<circle style="fill:#FFFFFF;" cx="310.8" cy="165.6" r="62.4"/>
<circle style="fill:#FF7058;" cx="310.8" cy="165.6" r="49.2"/>
<path style="fill:#FFFFFF;" d="M328.8,166.4c-3.2-2.4-7.6-4.4-14-6h-0.4v-15.6c4.4,0.8,8.4,2.4,12,4.8l5.6-7.6  c-5.6-3.6-11.2-6-17.2-6.4v-4.4h-5.2v4c-5.6,0.4-9.6,2-13.2,5.2c-3.2,3.2-5.2,7.2-5.2,12s1.6,8.4,4.4,10.8c2.8,2.4,7.6,4.4,14,6  v16.4c-4.8-0.8-9.6-3.2-14.4-7.2l-6,7.2c6,5.2,12.8,8.4,20.4,9.2v6h5.2v-6c5.6-0.4,10.4-2,13.6-5.2c3.6-3.2,5.2-7.2,5.2-12  C333.2,172.8,332,168.8,328.8,166.4z M309.2,158.8c-3.2-1.2-5.2-2-6.4-3.2c-1.2-1.2-1.6-2.4-1.6-4.4s0.8-3.6,2-4.8  c1.6-1.2,3.2-2,6-2.4V158.8z M320.8,183.2c-1.6,1.2-3.6,2-6.4,2.4v-15.2c3.2,1.2,5.6,2,6.8,3.2c1.2,1.2,2,2.8,2,4.8  C323.2,180.4,322.4,182,320.8,183.2z"/>
<g>
</g>
<g>
</g>
<g>
</g>
<g>
</g>
<g>
</g>
<g>
</g>
<g>
</g>
<g>
</g>
<g>
</g>
<g>
</g>
<g>
</g>
<g>
</g>
<g>
</g>
<g>
</g>
<g>
</g>
</svg>
