<?xml version="1.0" encoding="iso-8859-1"?>
<!-- Generator: Adobe Illustrator 19.0.0, SVG Export Plug-In . SVG Version: 6.00 Build 0)  -->
<svg xmlns="http://www.w3.org/2000/svg" xmlns:xlink="http://www.w3.org/1999/xlink" version="1.1" id="Layer_1" x="0px" y="0px" viewBox="0 0 508 508" style="enable-background:new 0 0 508 508;" xml:space="preserve">
<circle style="fill:#FD8469;" cx="254" cy="254" r="254"/>
<path style="fill:#324A5E;" d="M414,127.6H94c-6,0-10.8,4.8-10.8,10.8v231.2c0,6,4.8,10.8,10.8,10.8h320c6,0,10.8-4.8,10.8-10.8  V138.4C424.4,132.4,419.6,127.6,414,127.6z"/>
<rect x="96" y="183.2" style="fill:#FFFFFF;" width="316" height="177.6"/>
<g>
	<circle style="fill:#ACB3BA;" cx="402" cy="157.6" r="10"/>
	<circle style="fill:#ACB3BA;" cx="370.4" cy="157.6" r="10"/>
	<circle style="fill:#ACB3BA;" cx="339.2" cy="157.6" r="10"/>
</g>
<path style="fill:#E6E9EE;" d="M363.6,233.6c-9.2-8-21.2-12.8-34.4-12.8c-28.8,0-52,23.2-52,52s23.2,52,52,52  c17.2,0,32.4-8.4,42-21.2l-42-30.4L363.6,233.6z"/>
<path style="fill:#FF7058;" d="M363.6,233.6l-34.4,38.8l51.6-5.2C379.6,254.4,373.2,242.4,363.6,233.6z"/>
<path style="fill:#4CDBC4;" d="M381.2,272.8c0-1.6,0-3.2-0.4-5.2l-51.6,5.2l42,30.4C377.2,294.8,381.2,284,381.2,272.8z"/>
<path style="fill:#FFD05B;" d="M217.6,233.6c-9.2-8-21.2-12.8-34.4-12.8c-28.8,0-52,23.2-52,52s23.2,52,52,52  c17.2,0,32.4-8.4,42-21.2l-42-30.4L217.6,233.6z"/>
<path style="fill:#FF7058;" d="M217.6,233.6l-34.4,38.8l51.6-5.2C233.6,254.4,227.2,242.4,217.6,233.6z"/>
<path style="fill:#E6E9EE;" d="M235.2,272.8c0-1.6,0-3.2-0.4-5.2l-51.6,5.2l42,30.4C231.6,294.8,235.2,284,235.2,272.8z"/>
<g>
</g>
<g>
</g>
<g>
</g>
<g>
</g>
<g>
</g>
<g>
</g>
<g>
</g>
<g>
</g>
<g>
</g>
<g>
</g>
<g>
</g>
<g>
</g>
<g>
</g>
<g>
</g>
<g>
</g>
</svg>
