<?xml version="1.0" encoding="iso-8859-1"?>
<!-- Generator: Adobe Illustrator 19.0.0, SVG Export Plug-In . SVG Version: 6.00 Build 0)  -->
<svg xmlns="http://www.w3.org/2000/svg" xmlns:xlink="http://www.w3.org/1999/xlink" version="1.1" id="Layer_1" x="0px" y="0px" viewBox="0 0 508 508" style="enable-background:new 0 0 508 508;" xml:space="preserve">
<circle style="fill:#90DFAA;" cx="254" cy="254" r="254"/>
<path style="fill:#2C9984;" d="M75.6,434.8C121.6,480,184.4,508,254,508s132.4-28,178.4-73.2H75.6z"/>
<g>
	<path style="fill:#FFFFFF;" d="M156.4,434.8H118V227.6c0-4.4,3.6-8,8-8h22.4c4.4,0,8,3.6,8,8V434.8z"/>
	<path style="fill:#FFFFFF;" d="M220.4,434.8H182V172c0-4.4,3.6-8,8-8h22.4c4.4,0,8,3.6,8,8V434.8z"/>
	<path style="fill:#FFFFFF;" d="M284.4,434.8H246v-218c0-4.4,3.6-8,8-8h22.4c4.4,0,8,3.6,8,8V434.8z"/>
	<path style="fill:#FFFFFF;" d="M348,434.8h-38.4V291.2c0-4.4,3.6-8,8-8H340c4.4,0,8,3.6,8,8V434.8z"/>
	<path style="fill:#FFFFFF;" d="M412,434.8h-38.4V255.6c0-4.4,3.6-8,8-8H404c4.4,0,8,3.6,8,8V434.8z"/>
</g>
<g>
	<circle style="fill:#324A5E;" cx="392.8" cy="212.4" r="19.2"/>
	<circle style="fill:#324A5E;" cx="328.8" cy="247.6" r="19.2"/>
	<circle style="fill:#324A5E;" cx="264.8" cy="169.6" r="19.2"/>
	<circle style="fill:#324A5E;" cx="201.2" cy="128" r="19.2"/>
	<circle style="fill:#324A5E;" cx="137.2" cy="182.8" r="19.2"/>
</g>
<g>
</g>
<g>
</g>
<g>
</g>
<g>
</g>
<g>
</g>
<g>
</g>
<g>
</g>
<g>
</g>
<g>
</g>
<g>
</g>
<g>
</g>
<g>
</g>
<g>
</g>
<g>
</g>
<g>
</g>
</svg>
