<?xml version="1.0" encoding="iso-8859-1"?>
<!-- Generator: Adobe Illustrator 19.0.0, SVG Export Plug-In . SVG Version: 6.00 Build 0)  -->
<svg xmlns="http://www.w3.org/2000/svg" xmlns:xlink="http://www.w3.org/1999/xlink" version="1.1" id="Layer_1" x="0px" y="0px" viewBox="0 0 508 508" style="enable-background:new 0 0 508 508;" xml:space="preserve">
<circle style="fill:#54C0EB;" cx="254" cy="254" r="254"/>
<polygon style="fill:#324A5E;" points="400.8,214.4 382.8,174 308,341.6 206.8,114.8 146,252 79.6,252 79.6,272.8 159.6,272.8   206.8,166.4 308,393.2 382.8,225.6 400.8,266.4 "/>
<circle style="fill:#FFFFFF;" cx="377.2" cy="203.2" r="65.2"/>
<circle style="fill:#FFD05B;" cx="377.2" cy="203.2" r="51.6"/>
<g>
	<path style="fill:#FFFFFF;" d="M375.2,238v-6c-7.6-0.8-14.4-4-20.8-9.2l6-7.2c4.8,4,9.6,6.4,14.4,7.2v-16.4c-6.4-1.6-10.8-3.6-14-6   c-2.8-2.4-4.4-6-4.4-10.8s1.6-8.8,5.2-12c3.2-3.2,7.6-4.8,13.2-5.2v-4h5.2v4.4c6,0.4,12,2.4,17.6,6.4l-5.6,7.6   c-3.6-2.8-7.6-4.4-12-4.8v15.6h0.4c6.4,1.6,11.2,3.6,14,6c3.2,2.4,4.4,6.4,4.4,11.2s-1.6,8.8-5.2,12s-8,4.8-13.6,5.2v6H375.2z    M369.6,183.6c-1.6,1.2-2,2.8-2,4.8s0.4,3.2,1.6,4.4s3.2,2,6.4,3.2v-14.4C372.8,181.6,370.8,182.4,369.6,183.6z M387.2,220.4   c1.6-1.2,2.4-2.8,2.4-4.8s-0.8-3.6-2-4.8s-3.6-2.4-6.8-3.2v15.2C383.2,222.8,385.6,222,387.2,220.4z"/>
	<circle style="fill:#FFFFFF;" cx="130.8" cy="261.6" r="65.2"/>
</g>
<circle style="fill:#FFD05B;" cx="130.8" cy="261.6" r="51.6"/>
<path style="fill:#FFFFFF;" d="M128.8,296.4V290c-7.6-0.8-14.4-4-20.8-9.2l6-7.2c4.8,4,9.6,6.4,14.4,7.2v-16.4  c-6.4-1.6-10.8-3.6-14-6c-2.8-2.4-4.4-6-4.4-10.8s1.6-8.8,5.2-12c3.2-3.2,7.6-4.8,13.2-5.2v-4h5.2v4.4c6,0.4,12,2.4,17.6,6.4  l-5.6,7.6c-3.6-2.8-7.6-4.4-12-4.8v15.6h0.4c6.4,1.6,11.2,3.6,14,6c3.2,2.4,4.4,6.4,4.4,11.2s-1.6,8.8-5.2,12  c-3.6,3.2-8,4.8-13.6,5.2v6L128.8,296.4L128.8,296.4z M123.2,242c-1.6,1.2-2,2.8-2,4.8s0.4,3.2,1.6,4.4s3.2,2,6.4,3.2V240  C126.4,240,124.4,240.8,123.2,242z M140.8,278.8c1.6-1.2,2.4-2.8,2.4-4.8s-0.8-3.6-2-4.8c-1.2-1.2-3.6-2.4-6.8-3.2v15.2  C137.2,280.8,139.2,280,140.8,278.8z"/>
<g>
</g>
<g>
</g>
<g>
</g>
<g>
</g>
<g>
</g>
<g>
</g>
<g>
</g>
<g>
</g>
<g>
</g>
<g>
</g>
<g>
</g>
<g>
</g>
<g>
</g>
<g>
</g>
<g>
</g>
</svg>
