<?xml version="1.0" encoding="iso-8859-1"?>
<!-- Generator: Adobe Illustrator 19.0.0, SVG Export Plug-In . SVG Version: 6.00 Build 0)  -->
<svg xmlns="http://www.w3.org/2000/svg" xmlns:xlink="http://www.w3.org/1999/xlink" version="1.1" id="Layer_1" x="0px" y="0px" viewBox="0 0 508 508" style="enable-background:new 0 0 508 508;" xml:space="preserve">
<circle style="fill:#90DFAA;" cx="254" cy="254" r="254"/>
<path style="fill:#2C9984;" d="M59.2,422.4c46.4,52.4,114.4,85.6,190,85.6s143.6-33.2,190-85.6H59.2z"/>
<g>
	<rect x="90.8" y="312.4" style="fill:#FFFFFF;" width="44" height="110"/>
	<rect x="158" y="267.2" style="fill:#FFFFFF;" width="44" height="155.2"/>
	<rect x="225.6" y="174.8" style="fill:#FFFFFF;" width="44" height="247.6"/>
</g>
<path style="fill:#324A5E;" d="M379.6,224h-60c-2.4,14.8-7.2,53.6-3.6,84c0,0-1.6,104.4-3.2,113.6h30.8L350,292l6.4,129.6h30.8  C385.6,412.4,384,308,384,308C386.8,277.6,381.6,238.8,379.6,224z"/>
<path style="fill:#84DBFF;" d="M349.2,141.6l23.6,6l1.6,26.8l-18.8,34.8l-6.4,4.4c0,0-24.8-19.2-24.4-22s-8-29.6-6-32s9.2-12,9.2-12  L349.2,141.6z"/>
<polygon style="fill:#FF7058;" points="358.8,206.4 350.4,159.6 358.8,148.8 340,148.8 348.4,159.6 340,206.4 "/>
<path style="fill:#F9B54C;" d="M361.2,138.8c0,8.8-5.2,10-11.6,10s-11.6-1.2-11.6-10s5.2-22.8,11.6-22.8S361.2,130,361.2,138.8z"/>
<path style="fill:#2B3B4E;" d="M301.6,152.8c0,0-5.2,49.6-3.2,64.4C300.8,232,296,276,296,276s20,2.8,20,2c-0.4-0.8-7.2-77.6,0-87.2  c7.2-9.6-0.4-32.8-3.6-32.8C308.8,157.6,301.6,152.8,301.6,152.8z"/>
<path style="fill:#ACB3BA;" d="M336.8,136.4c0,0-4,8-35.6,16.4c0,0,20.4,56.4,12.4,86.4c-3.2,12-4.4,24.8-2.4,37.2l0.8,5.2  c0,0,8.8,5.6,21.2,4.4c3.6-0.4,6.4-2.4,7.6-6c4-10.4,12.8-36.8,10.8-69.2C352,211.6,339.2,182.8,336.8,136.4z"/>
<g>
	<path style="fill:#2B3B4E;" d="M338.4,134.4c0,0-5.2,5.2-8,12l3.2,3.2l-5.6,2.8c0,0,18,52.4,24,59.6   C352,212.4,334,145.6,338.4,134.4z"/>
	<path style="fill:#2B3B4E;" d="M397.2,152.8c0,0,5.2,49.6,3.2,64.4c-2.4,14.8,2.4,58.8,2.4,58.8s-20,2.8-20,2   c0.4-0.8,7.2-77.6,0-87.2c-7.2-9.6,0.4-32.8,3.6-32.8C390,157.6,397.2,152.8,397.2,152.8z"/>
</g>
<path style="fill:#E6E9EE;" d="M362,136.4c0,0,4,8,35.6,16.4c0,0-20.4,56.4-12.4,86.4c3.2,12,4.4,24.8,2.4,37.2l-1.2,5.6  c0,0-8.8,5.6-21.2,4.4c-3.6-0.4-6.4-2.4-7.6-6c-4-10.4-12.8-36.8-10.8-69.2C346.8,211.6,359.2,182.8,362,136.4z"/>
<path style="fill:#324A5E;" d="M360.4,134.4c0,0,5.2,5.2,8,12l-3.2,3.2l5.6,2.8c0,0-18,52.4-24,59.6  C346.8,212.4,364.8,145.6,360.4,134.4z"/>
<g>
	<ellipse style="fill:#FFD05B;" cx="349.2" cy="113.6" rx="20.4" ry="25.6"/>
	
		<ellipse transform="matrix(0.3227 -0.9465 0.9465 0.3227 144.3288 425.6788)" style="fill:#FFD05B;" cx="369.6" cy="111.992" rx="7.2" ry="3.6"/>
	
		<ellipse transform="matrix(0.3227 0.9465 -0.9465 0.3227 328.9054 -235.5107)" style="fill:#FFD05B;" cx="329.011" cy="112.061" rx="7.2" ry="3.6"/>
</g>
<path style="fill:#324A5E;" d="M330.8,117.2c-10.4-22,4-29.2,4-29.2l-6.8,4c20.8-24.8,35.6-4.4,35.6-4.4c14.4,11.2,5.2,28,5.2,28  s-1.6-12.4-8-17.6c0,0-7.2,8.4-24.4,0.8c0,0-4,6-2.4,14c0,0-1.6-1.2-2.4-5.2C332,107.6,330,113.2,330.8,117.2L330.8,117.2z"/>
<g>
	<path style="fill:#FFFFFF;" d="M338.4,134.4c0,0,1.6,10,10.8,14.4c0,0-6.4,4.8-7.2,8.8C342,157.6,332,142.8,338.4,134.4z"/>
	<path style="fill:#FFFFFF;" d="M360.4,134.4c0,0-1.6,10-10.8,14.4c0,0,6.4,4.8,7.2,8.8C356.8,157.6,366.8,142.8,360.4,134.4z"/>
</g>
<rect x="363.6" y="182.4" style="fill:#ACB3BA;" width="19.6" height="4.8"/>
<polygon style="fill:#FF7058;" points="374.8,182.4 370.8,178.8 366.8,182.4 "/>
<g>
	<circle style="fill:#ACB3BA;" cx="354.4" cy="218.8" r="3.2"/>
	<circle style="fill:#ACB3BA;" cx="354.4" cy="232.8" r="3.2"/>
</g>
<g>
	<path style="fill:#2B3B4E;" d="M370.4,409.2c-9.2,0-16.8,6-16.8,13.2h33.6C387.2,415.2,380,409.2,370.4,409.2z"/>
	<path style="fill:#2B3B4E;" d="M326.8,409.2c-9.2,0-16.8,6-16.8,13.2h33.6C343.6,415.2,336,409.2,326.8,409.2z"/>
</g>
<path style="fill:#ACB3BA;" d="M362,257.2l21.6-4.8v0.8c0.8,4-1.6,8-5.6,9.2l-6.8,1.6c-4.4,1.2-8.8-2-9.6-6.4L362,257.2z"/>
<path style="fill:#E6E9EE;" d="M339.2,257.2l-21.6-4.8v0.8c-0.8,4,1.6,8,5.6,9.2l6.8,1.6c4.4,1.2,8.8-2,9.6-6.4L339.2,257.2z"/>
<g>
</g>
<g>
</g>
<g>
</g>
<g>
</g>
<g>
</g>
<g>
</g>
<g>
</g>
<g>
</g>
<g>
</g>
<g>
</g>
<g>
</g>
<g>
</g>
<g>
</g>
<g>
</g>
<g>
</g>
</svg>
