<?xml version="1.0" encoding="iso-8859-1"?>
<!-- Generator: Adobe Illustrator 19.0.0, SVG Export Plug-In . SVG Version: 6.00 Build 0)  -->
<svg xmlns="http://www.w3.org/2000/svg" xmlns:xlink="http://www.w3.org/1999/xlink" version="1.1" id="Layer_1" x="0px" y="0px" viewBox="0 0 508 508" style="enable-background:new 0 0 508 508;" xml:space="preserve">
<circle style="fill:#FFD05B;" cx="254" cy="254" r="254"/>
<path style="fill:#324A5E;" d="M414,116.8H94c-6,0-10.8,4.8-10.8,10.8v231.2c0,6,4.8,10.8,10.8,10.8h320c6,0,10.8-4.8,10.8-10.8  V127.2C424.4,121.6,419.6,116.8,414,116.8z"/>
<rect x="96" y="172.4" style="fill:#FFFFFF;" width="316" height="177.6"/>
<g>
	<circle style="fill:#ACB3BA;" cx="402" cy="146.4" r="10"/>
	<circle style="fill:#ACB3BA;" cx="370.4" cy="146.4" r="10"/>
	<circle style="fill:#ACB3BA;" cx="339.2" cy="146.4" r="10"/>
</g>
<circle style="fill:#FF7058;" cx="254" cy="308.8" r="114"/>
<circle style="fill:#FFFFFF;" cx="254" cy="308.8" r="99.2"/>
<circle style="fill:#FF7058;" cx="254" cy="308.8" r="83.6"/>
<circle style="fill:#FFFFFF;" cx="254" cy="308.8" r="66.4"/>
<circle style="fill:#FF7058;" cx="254" cy="308.8" r="52.4"/>
<circle style="fill:#FFFFFF;" cx="254" cy="308.8" r="36.4"/>
<circle style="fill:#FF7058;" cx="254" cy="308.8" r="22.4"/>
<g>
	<polygon style="fill:#54C0EB;" points="340.4,222.8 310,252.8 304.4,226.8 334.4,196.8  "/>
	<polygon style="fill:#54C0EB;" points="340.4,222.8 310,252.8 336,258.4 366.4,228.4  "/>
</g>
<path style="fill:#FFD05B;" d="M345.6,207.6L253.2,300c-2.4,2.4-2.8,6-1.2,8.8c2.4,3.6,7.6,4,10.4,1.2l92.4-92.4  c2.8-2.8,2.8-6.8,0-9.6l0,0C352.8,204.8,348.4,204.8,345.6,207.6z"/>
<g>
</g>
<g>
</g>
<g>
</g>
<g>
</g>
<g>
</g>
<g>
</g>
<g>
</g>
<g>
</g>
<g>
</g>
<g>
</g>
<g>
</g>
<g>
</g>
<g>
</g>
<g>
</g>
<g>
</g>
</svg>
