<?xml version="1.0" encoding="iso-8859-1"?>
<!-- Generator: Adobe Illustrator 19.0.0, SVG Export Plug-In . SVG Version: 6.00 Build 0)  -->
<svg xmlns="http://www.w3.org/2000/svg" xmlns:xlink="http://www.w3.org/1999/xlink" version="1.1" id="Layer_1" x="0px" y="0px" viewBox="0 0 508 508" style="enable-background:new 0 0 508 508;" xml:space="preserve">
<circle style="fill:#FD8469;" cx="254" cy="254" r="254"/>
<path style="fill:#84DBFF;" d="M280.8,218.4l13.2-24l-2.4-42.4L254,142l-33.6,9.6c0,0-11.6,15.6-14.4,19.2c-2.8,3.2,7.2,36,9.2,47.2  h65.6V218.4z"/>
<polygon style="fill:#FF7058;" points="244,218.4 264,218.4 255.2,170.4 268.8,153.6 239.2,153.6 252.8,170.4 "/>
<path style="fill:#F9B54C;" d="M272.8,137.6c0,13.6-8.4,15.6-18.8,15.6c-10.4,0-18.8-2-18.8-15.6s8.4-36,18.8-36  C264.4,102,272.8,124,272.8,137.6z"/>
<path style="fill:#ACB3BA;" d="M202,218.4c9.6-16-2-50.8-6.8-50.8c-5.2,0-17.2-7.6-17.2-7.6s-3.2,30-4.8,58H202V218.4z"/>
<path style="fill:#E6E9EE;" d="M246.8,218.4c-5.2-20.4-10.8-49.2-12.4-84.4c0,0-6.4,12.8-56.4,26.4c0,0,9.6,26.4,16.4,58H246.8z"/>
<g>
	<path style="fill:#ACB3BA;" d="M241.6,218.4h7.6c-7.6-32.4-16.8-76.4-12.8-87.6c0,0-8.4,8.4-12.4,19.2l5.2,5.2l-8.8,4.4   C220.4,159.6,231.2,191.2,241.6,218.4z"/>
	<path style="fill:#ACB3BA;" d="M334.8,218.4C333.2,190,330,160,330,160s-12,7.6-17.2,7.6s-16.4,34.8-6.8,50.8L334.8,218.4   L334.8,218.4z"/>
</g>
<path style="fill:#E6E9EE;" d="M313.6,218.4c6.8-31.6,16.4-58,16.4-58c-50-13.6-56.4-26.4-56.4-26.4c-2,35.2-7.2,64-12.4,84.4H313.6  z"/>
<path style="fill:#ACB3BA;" d="M258.8,218.4h7.6c10.4-26.8,21.2-58.8,21.2-58.8l-8.8-4.4l5.2-5.2c-4-10.8-12.4-19.2-12.4-19.2  C275.6,141.6,266.4,186,258.8,218.4z"/>
<g>
	<ellipse style="fill:#FFD05B;" cx="254" cy="98" rx="32" ry="40.4"/>
	
		<ellipse transform="matrix(0.3227 -0.9465 0.9465 0.3227 103.6639 335.2212)" style="fill:#FFD05B;" cx="286.062" cy="95.177" rx="11.2" ry="6"/>
	
		<ellipse transform="matrix(0.3227 0.9465 -0.9465 0.3227 240.724 -145.2569)" style="fill:#FFD05B;" cx="221.858" cy="95.573" rx="11.2" ry="6"/>
</g>
<path style="fill:#324A5E;" d="M224.8,104c-16.4-34.8,6.4-46,6.4-46l-10.8,6c32.8-39.6,56.4-7.2,56.4-7.2c22.8,17.6,8,44.4,8,44.4  s-2.8-19.6-12.4-28c0,0-11.6,13.2-38.8,1.2c0,0-6.4,9.6-4,22.4c0,0-2.8-1.6-3.6-8.4C226.4,88.4,223.2,96.8,224.8,104L224.8,104z"/>
<g>
	<path style="fill:#FFFFFF;" d="M236.8,130.4c0,0,2.8,16,17.2,23.2c0,0-10,7.6-11.6,14C242.4,167.6,226.4,144.4,236.8,130.4z"/>
	<path style="fill:#FFFFFF;" d="M271.2,130.4c0,0-2.8,16-17.2,23.2c0,0,10,7.6,11.6,14C265.6,167.6,281.6,144.4,271.2,130.4z"/>
</g>
<rect x="276.4" y="207.2" style="fill:#ACB3BA;" width="30.8" height="7.6"/>
<polygon style="fill:#FF7058;" points="294,207.2 288,200.8 281.6,207.2 "/>
<g>
	<path style="fill:#FFFFFF;" d="M206.4,416c0,0,0,1.2-0.4,2.8c-1.6,14.8,10,27.6,24.8,27.6h46c14.8,0,26.4-12.8,24.8-27.6   c0-1.6-0.4-2.8-0.4-2.8c-20-5.2-28.8-10.4-32.4-13.6c-1.6-2-2.8-3.6-3.6-4.4c4.4-3.6,7.2-9.6,8.4-16c1.6-0.8,2.8-2.8,3.6-5.2   c1.2-3.6,0.8-7.2-1.2-7.6c0.4-5.6-0.8-12-8-17.6c0,0-14.8-20.4-35.2,4.4l6.4-3.6c-1.6,1.2-8.4,5.6-7.2,16.4h-0.4   c-2,0.8-2.4,4-1.2,7.6c0.8,2.4,2.4,4.4,3.6,5.2c0.8,6.8,4,12.4,8.4,16c-0.8,0.8-2,2.4-3.6,4.4C235.2,405.6,226.8,410.8,206.4,416z"/>
	<path style="fill:#FFFFFF;" d="M324,374.4c0,0,0,1.2-0.4,2.8c-1.6,14.8,10,27.6,24.8,27.6h46c14.8,0,26.4-12.8,24.8-27.6   c0-1.6-0.4-2.8-0.4-2.8c-20-5.2-28.8-10.4-32.4-13.6c-1.6-2-2.8-3.6-3.6-4.4c4.4-3.6,7.2-9.6,8.4-16c1.6-0.8,2.8-2.8,3.6-5.2   c1.2-3.6,0.8-7.2-1.2-7.6c0.4-5.6-0.8-12-8-17.6c0,0-14.8-20.4-35.2,4.4l6.4-3.6c-1.6,1.2-8.4,5.6-7.2,16.4h-0.4   c-2,0.8-2.4,4-1.2,7.6c0.8,2.4,2.4,4.4,3.6,5.2c0.8,6.8,4,12.4,8.4,16c-0.8,0.8-2,2.4-3.6,4.4C352.8,364,344,369.2,324,374.4z"/>
	<path style="fill:#FFFFFF;" d="M89.2,374.4c0,0,0,1.2-0.4,2.8c-1.6,14.8,10,27.6,24.8,27.6h46c14.8,0,26.4-12.8,24.8-27.6   c0-1.6-0.4-2.8-0.4-2.8c-20-5.2-28.8-10.4-32.8-13.6c-1.6-2-2.8-3.6-3.6-4.4c4.4-3.6,7.2-9.6,8.4-16c1.6-0.8,2.8-2.8,3.6-5.2   c1.2-3.6,0.8-7.2-1.2-7.6c0.4-5.6-0.8-12-8-17.6c0,0-14.8-20.4-35.2,4.4l6.4-3.6c-1.6,1.2-8.4,5.6-7.2,16.4H114   c-2,0.8-2.4,4-1.2,7.6c0.8,2.4,2.4,4.4,3.6,5.2c0.8,6.8,4,12.4,8.4,16c-0.8,0.8-2,2.4-3.6,4.4C118,364,109.2,369.2,89.2,374.4z"/>
</g>
<path style="fill:#324A5E;" d="M346.4,280.8L334,262c-0.8-1.6-2.4-2.4-4.4-2.4h-70.4v-19.2c0-2.8-2.4-5.2-5.2-5.2  c-2.8,0-5.2,2.4-5.2,5.2v19.2H178c-1.6,0-3.2,0.8-4.4,2.4l-12,18.8c-1.6,2.4-0.8,5.6,1.6,7.2c0.8,0.4,2,0.8,2.8,0.8  c1.6,0,3.2-0.8,4.4-2.4l10.4-16.4h68v49.2c0,2.8,2.4,5.2,5.2,5.2c2.8,0,5.2-2.4,5.2-5.2v-49.6h68l10.4,16.4c0.8,1.6,2.8,2.4,4.4,2.4  c0.8,0,2-0.4,2.8-0.8C347.2,286.4,347.6,283.2,346.4,280.8z"/>
<g>
</g>
<g>
</g>
<g>
</g>
<g>
</g>
<g>
</g>
<g>
</g>
<g>
</g>
<g>
</g>
<g>
</g>
<g>
</g>
<g>
</g>
<g>
</g>
<g>
</g>
<g>
</g>
<g>
</g>
</svg>
