<?xml version="1.0" encoding="iso-8859-1"?>
<!-- Generator: Adobe Illustrator 19.0.0, SVG Export Plug-In . SVG Version: 6.00 Build 0)  -->
<svg xmlns="http://www.w3.org/2000/svg" xmlns:xlink="http://www.w3.org/1999/xlink" version="1.1" id="Layer_1" x="0px" y="0px" viewBox="0 0 508 508" style="enable-background:new 0 0 508 508;" xml:space="preserve">
<circle style="fill:#FD8469;" cx="254" cy="254" r="254"/>
<g>
	<path style="fill:#2B3B4E;" d="M321.2,396.8h12c4,0,7.6-3.2,7.6-7.6l0,0c0-4-3.2-7.6-7.6-7.6h-12c-4,0-7.6,3.2-7.6,7.6l0,0   C313.6,393.6,316.8,396.8,321.2,396.8z"/>
	<path style="fill:#2B3B4E;" d="M174.8,396.8h12c4,0,7.6-3.2,7.6-7.6l0,0c0-4-3.2-7.6-7.6-7.6h-12c-4,0-7.6,3.2-7.6,7.6l0,0   C167.6,393.6,170.8,396.8,174.8,396.8z"/>
</g>
<path style="fill:#E6E9EE;" d="M246.8,69.2C192.4,72.8,148,116,143.6,170.4c-2.8,34.4,9.6,65.6,31.6,88  c20.4,20.4,30.8,48.8,30.8,77.6v31.2h96v-33.6c0-28.4,11.2-55.6,30.8-75.6c19.6-20,32-47.6,32-78C365.2,116.4,311.2,65.2,246.8,69.2  z"/>
<path style="fill:#324A5E;" d="M309.6,354.8H198.4c-7.6,0-13.6,6-13.6,13.6v30.4c0,22,18,39.6,39.6,39.6h58.4  c22,0,39.6-18,39.6-39.6v-30.4C323.2,361.2,316.8,354.8,309.6,354.8z"/>
<path style="fill:#FFFFFF;" d="M315.6,152.4h-15.2c-0.8-8.8-4-16.8-10-16.8c-3.2,0-5.6,2-7.2,5.6c-1.6-3.2-4-5.6-7.2-5.6  s-5.6,2-7.2,5.6c-1.6-3.2-4-5.6-7.2-5.6s-5.6,2-7.2,5.6c-1.6-3.2-4-5.6-7.2-5.6s-5.6,2-7.2,5.6c-1.6-3.2-4-5.6-7.2-5.6  c-6.8,0-10.4,10-10.4,19.6c0,9.2-3.2,13.6-4.4,13.6c-0.8,0-2.4-2-3.6-7.2l-1.6-7.2c-0.4-1.2-1.6-2.4-2.8-2.4h-17.2  c-1.6,0-2.8,1.2-2.8,2.8v20.4c0,0.8,0,1.2,0.4,1.6l47.2,69.2l4.8-3.2l-47.2-68v-16.4h12l1.2,4.8c1.6,7.2,5.2,12,9.6,12  c3.2,0,5.6-2,7.2-5.6c1.6,3.2,4,5.6,7.2,5.6s5.6-2,7.2-5.6c1.6,3.2,4,5.6,7.2,5.6s5.6-2,7.2-5.6c1.6,3.2,4,5.6,7.2,5.6  s5.6-2,7.2-5.6c1.6,3.2,4,5.6,7.2,5.6c6.8,0,10.4-10,10.4-19.6c0-9.2,3.2-13.6,4.4-13.6s4.4,4.8,4.4,13.6c0,1.6,1.2,2.8,2.8,2.8  h15.2v16.4l-47.2,68l4.8,3.2l47.6-68.8c0.4-0.4,0.4-1.2,0.4-1.6v-20.4C318.4,153.6,317.2,152.4,315.6,152.4z M232.4,169.2  c-1.2,0-4.4-4.8-4.4-13.6c0-9.2,3.2-13.6,4.4-13.6s4.4,4.8,4.4,13.6C236.4,164.4,233.2,169.2,232.4,169.2z M246.8,169.2  c-1.2,0-4.4-4.8-4.4-13.6c0-9.2,3.2-13.6,4.4-13.6s4.4,4.8,4.4,13.6S248,169.2,246.8,169.2z M261.2,169.2c-1.2,0-4.4-4.8-4.4-13.6  c0-9.2,3.2-13.6,4.4-13.6c1.2,0,4.4,4.8,4.4,13.6S262.4,169.2,261.2,169.2z M275.6,169.2c-1.2,0-4.4-4.8-4.4-13.6  c0-9.2,3.2-13.6,4.4-13.6c1.2,0,4.4,4.8,4.4,13.6S276.8,169.2,275.6,169.2z"/>
<path style="fill:#CED5E0;" d="M276.4,354.8h-44.8V254.4c0-12.4,10-22.4,22.4-22.4l0,0c12.4,0,22.4,10,22.4,22.4V354.8z"/>
<g>
</g>
<g>
</g>
<g>
</g>
<g>
</g>
<g>
</g>
<g>
</g>
<g>
</g>
<g>
</g>
<g>
</g>
<g>
</g>
<g>
</g>
<g>
</g>
<g>
</g>
<g>
</g>
<g>
</g>
</svg>
