<?xml version="1.0" encoding="iso-8859-1"?>
<!-- Generator: Adobe Illustrator 19.0.0, SVG Export Plug-In . SVG Version: 6.00 Build 0)  -->
<svg xmlns="http://www.w3.org/2000/svg" xmlns:xlink="http://www.w3.org/1999/xlink" version="1.1" id="Layer_1" x="0px" y="0px" viewBox="0 0 508 508" style="enable-background:new 0 0 508 508;" xml:space="preserve">
<circle style="fill:#FD8469;" cx="254" cy="254" r="254"/>
<path style="fill:#324A5E;" d="M387.6,161.2h-58.8v-52c0-3.2-2.4-5.6-5.6-5.6H174.4c-3.2,0-5.6,2.4-5.6,5.6V162H120  c-3.2,0-5.6,2.4-5.6,5.6v161.2c0,3.2,2.4,5.6,5.6,5.6h72.4v68c0,3.2,2.4,5.6,5.6,5.6c3.2,0,5.6-2.4,5.6-5.6v-68h54.8v6  c0,3.2,2.4,5.6,5.6,5.6h68c3.2,0,5.6-2.4,5.6-5.6v-54.8h50c3.2,0,5.6-2.4,5.6-5.6V166.8C393.6,164,390.8,161.2,387.6,161.2z   M382,274.4h-50c-3.2,0-5.6,2.4-5.6,5.6v55.2h-56.8v-6c0-3.2-2.4-5.6-5.6-5.6H125.6v-150h48.8c3.2,0,5.6-2.4,5.6-5.6v-53.2h137.6v52  c0,3.2,2.4,5.6,5.6,5.6H382V274.4z"/>
<g>
	<path style="fill:#FFFFFF;" d="M349.6,86.8h-52.8c-4,0-7.2,3.2-7.2,7.2v30.4c0,4,3.2,7.2,7.2,7.2h52.8c4,0,7.2-3.2,7.2-7.2V94   C356.8,90,353.6,86.8,349.6,86.8z"/>
	<path style="fill:#FFFFFF;" d="M200.4,190.4H148c-4,0-7.2-3.2-7.2-7.2v-30c0-4,3.2-7.2,7.2-7.2h52.4c4,0,7.2,3.2,7.2,7.2v30   C208,187.2,204.4,190.4,200.4,190.4z"/>
	<path style="fill:#FFFFFF;" d="M154.4,280H85.2c-4,0-7.2-3.2-7.2-7.2v-41.2c0-4,3.2-7.2,7.2-7.2h69.2c4,0,7.2,3.2,7.2,7.2v41.2   C161.6,276.8,158.4,280,154.4,280z"/>
	<path style="fill:#FFFFFF;" d="M222.4,350.4h-49.2c-4,0-7.2-3.2-7.2-7.2v-28c0-4,3.2-7.2,7.2-7.2h49.2c4,0,7.2,3.2,7.2,7.2v28   C229.6,347.2,226.4,350.4,222.4,350.4z"/>
	<path style="fill:#FFFFFF;" d="M222.4,421.2h-49.2c-4,0-7.2-3.2-7.2-7.2v-28c0-4,3.2-7.2,7.2-7.2h49.2c4,0,7.2,3.2,7.2,7.2v28   C229.6,417.6,226.4,421.2,222.4,421.2z"/>
	<path style="fill:#FFFFFF;" d="M422.8,246.8h-70c-4,0-7.2-3.2-7.2-7.2v-42c0-4,3.2-7.2,7.2-7.2h70c4,0,7.2,3.2,7.2,7.2v42   C430,243.6,426.8,246.8,422.8,246.8z"/>
	<path style="fill:#FFFFFF;" d="M367.2,368h-70c-4,0-7.2-3.2-7.2-7.2v-42c0-4,3.2-7.2,7.2-7.2h70c4,0,7.2,3.2,7.2,7.2v42   C374.4,364.4,371.2,368,367.2,368z"/>
</g>
<g>
	<path style="fill:#ACB3BA;" d="M182,181.2l-2.4-5.6h-11.2l-2.4,5.6h-6.4l11.2-26.4h5.6l11.2,26.4H182z M174.4,162.8l-3.2,7.6h6.4   L174.4,162.8z"/>
	<path style="fill:#ACB3BA;" d="M331.2,100c2.4,2,3.6,5.2,3.6,9.2s-1.2,6.8-3.6,9.2c-2.4,2.4-6,3.2-10.8,3.2H312V96.8h8.8   C325.2,96.8,328.8,98,331.2,100z M326.8,114.8c1.2-1.2,2-3.2,2-5.6s-0.8-4.4-2-5.6s-3.6-2-6.4-2h-3.2v15.2h3.6   C323.6,116.8,325.6,116.4,326.8,114.8z"/>
</g>
<g>
	<path style="fill:#4CDBC4;" d="M120.8,249.2l-6,12.8h-3.2l-6.4-12.8V264H100v-23.6h7.2l6,12.8l6-12.8h7.2V264h-5.2v-14.8H120.8z"/>
	<path style="fill:#4CDBC4;" d="M130,240.4h9.6V264h-5.2v-19.2H130V240.4z"/>
</g>
<path style="fill:#54C0EB;" d="M389.2,234.4h-13.6v-31.6H388c2,0,4,0.4,5.6,0.8c1.6,0.4,2.8,1.2,3.6,2c1.6,1.6,2,3.6,2,5.6  c0,2.4-0.8,4.4-2.4,5.6c-0.4,0.4-0.8,0.8-1.2,0.8c-0.4,0-0.4,0.4-1.2,0.4c2,0.4,3.6,1.2,4.8,2.8c1.2,1.2,1.6,2.8,1.6,4.8  s-0.8,4-2.4,6C396.4,233.2,393.2,234.4,389.2,234.4z M382.4,215.6h3.2c2,0,3.6-0.4,4.4-0.8c0.8-0.4,1.6-1.2,1.6-2.8  c0-1.2-0.4-2.4-1.2-2.8c-0.8-0.4-2.4-0.8-4.4-0.8h-3.2v7.2H382.4z M382.4,228.4h4.8c2,0,3.6-0.4,4.4-0.8c1.2-0.4,1.6-1.6,1.6-2.8  c0-1.6-0.4-2.4-1.6-2.8c-1.2-0.4-2.8-0.8-5.2-0.8h-4L382.4,228.4L382.4,228.4z"/>
<g>
	<path style="fill:#ACB3BA;" d="M195.6,326.8l-5.2,10.4H188l-5.2-10.4v12h-4.4V320h5.6l4.8,10.4l4.8-10.4h5.6v18.8h-4.4v-12H195.6z"/>
	<path style="fill:#ACB3BA;" d="M211.6,327.2c0.4-0.8,0.8-1.2,0.8-2s-0.4-1.2-0.8-1.6c-0.4-0.4-0.8-0.8-1.6-0.8   c-1.2,0-2.4,0.8-3.2,2.4l-3.2-2c0.8-1.2,2-2.4,2.8-3.2c1.2-0.8,2.4-1.2,4-1.2s3.2,0.4,4.4,1.6s2,2.4,2,4.4c0,0.8-0.4,2-0.8,2.8   c-0.4,0.8-1.6,2-2.8,3.6l-3.2,3.6h7.6v3.6h-13.2v-3.2l5.6-5.6C210.4,328.8,211.2,328,211.6,327.2z"/>
	<path style="fill:#ACB3BA;" d="M195.6,397.2l-5.2,10.4H188l-5.2-10.4v12h-4.4v-18.8h5.6l4.8,10.4l4.8-10.4h5.6v18.8h-4.4v-12H195.6   z"/>
	<path style="fill:#ACB3BA;" d="M204.4,394v-3.6H216v2.8l-4,4.4c1.6,0.4,2.8,0.8,3.6,2s1.2,2,1.2,3.6c0,2-0.8,3.6-2,4.8   c-1.2,1.2-3.2,1.6-5.2,1.6s-4-0.8-6.4-2.4l1.6-3.2c1.6,1.2,3.2,2,4.8,2c0.8,0,1.6-0.4,2-0.8s0.8-1.2,0.8-1.6c0-0.8-0.4-1.6-0.8-2   c-0.8-0.4-1.6-0.8-2.8-0.8c-0.4,0-1.6,0-2.4,0.4V398l3.6-4.4h-5.6V394z"/>
</g>
<path style="fill:#FFD05B;" d="M338,324h8.4l-10,15.2l10.8,16.4h-8.4l-6.8-10.4l-6.8,10.4h-8.4l10.4-16l-10-15.2h8.8l6,9.2L338,324z  "/>
<g>
</g>
<g>
</g>
<g>
</g>
<g>
</g>
<g>
</g>
<g>
</g>
<g>
</g>
<g>
</g>
<g>
</g>
<g>
</g>
<g>
</g>
<g>
</g>
<g>
</g>
<g>
</g>
<g>
</g>
</svg>
