<?xml version="1.0" encoding="iso-8859-1"?>
<!-- Generator: Adobe Illustrator 19.0.0, SVG Export Plug-In . SVG Version: 6.00 Build 0)  -->
<svg xmlns="http://www.w3.org/2000/svg" xmlns:xlink="http://www.w3.org/1999/xlink" version="1.1" id="Layer_1" x="0px" y="0px" viewBox="0 0 508 508" style="enable-background:new 0 0 508 508;" xml:space="preserve">
<circle style="fill:#84DBFF;" cx="254" cy="254" r="254"/>
<path style="fill:#324A5E;" d="M108.4,409.2c-15.2-9.2-29.2-20.4-41.2-33.6c-5.2-5.6-10-11.6-14.4-18c1.2-12.4,2-20,2-20l0,0  C56,338.4,78,352,88,352C94.8,352.4,106.4,380.8,108.4,409.2z"/>
<path style="fill:#E6E9EE;" d="M404.8,334l-6,11.6l-0.8,1.2c-2.4,0.8-4.8,2-7.6,2.8c-2.4,0.8-4.8,1.6-7.2,2  c-0.8,0.4-1.6,0.4-2.4,0.4c-2.8,0.8-5.6,1.2-8.4,1.6c-3.2,0.4-6,0.8-9.2,1.2c-0.4,0-0.8,0-0.8,0c-0.8,0-1.6,0-2.4,0  c-3.2,0.4-6,0.4-9.2,0.4s-6,0-9.2-0.4c-0.8,0-1.6,0-2.4,0c-0.4,0-0.8,0-0.8,0c-3.2-0.4-6-0.8-9.2-1.2c-13.2-2.4-25.6-6.4-37.2-12.4  c-4.4-17.2-8.8-36-6.4-38.8c4-4.8,19.6-26,19.6-26l6-1.6l12.4-3.6l2-0.4l0.8-0.4l2-0.4l8.4-2.4l14.4-4l14.8,4l8.4,2l1.6,0.4h0.8  l2,0.4L392,274l10.4,2.8L404.8,334z"/>
<path style="fill:#FF7058;" d="M361.2,350l0.8,5.6c-0.8,0-1.6,0-2.4,0c-3.2,0.4-6,0.4-9.2,0.4s-6,0-9.2-0.4c-0.8,0-1.6,0-2.4,0  l0.8-5.2l8.8-48l-9.6-12l-8.8-10.8h40l-8,10.8l-9.6,12L361.2,350z"/>
<path style="fill:#F9B54C;" d="M376,258c0,18.8-11.2,21.6-25.2,21.6s-25.2-2.8-25.2-21.6s11.2-48.8,25.2-48.8S376,239.2,376,258z"/>
<g>
	<path style="fill:#2B3B4E;" d="M284.8,338c-10.8-6.4-20.4-14.4-28.4-23.2c-3.6-4-6.8-8-10-12.4c0.8-8.4,1.6-14,1.6-14l0,0   c0.8,0.4,16,10,23.2,10C275.2,298.4,283.6,318,284.8,338z"/>
	<path style="fill:#2B3B4E;" d="M338.4,355.6c-3.2-0.4-6-0.8-9.2-1.2C316,352,303.6,348,292,342c-2.4-1.2-4.4-2.4-6.8-4   c-10.8-6.4-20.4-14.4-28.4-23.2c-4.8-15.6-8.4-25.6-8.4-26.4l0,0c43.6-11.6,62.4-22.8,70.4-29.6c4.4-3.6,5.6-6,5.6-6   c0,0.4,0,0.8,0,1.2c0.4,6,0.8,11.6,1.2,17.2c0.4,3.6,0.4,6.8,0.8,10.4C329.2,310.4,333.6,335.2,338.4,355.6z"/>
	<path style="fill:#2B3B4E;" d="M341.6,355.6c-0.8,0-1.6,0-2.4,0c-0.4,0-0.8,0-0.8,0c-3.2-0.4-6-0.8-9.2-1.2   c-12.4-33.2-24-66.8-24-66.8l12-6l-6-6L310,274c2-6,5.2-11.2,8.4-15.6c3.2-4.4,6-8,7.6-9.6c0,0,0,0,0.4-0.4s0.8-0.8,0.8-0.8v0.4   c0,0.4-0.4,0.8-0.4,0.8c-0.8,2.8-1.2,7.2-0.8,12l0,0c0,2.8,0.4,5.6,0.4,9.2c0.4,4.4,0.8,9.2,1.6,14l0,0   c2.8,19.6,7.6,43.2,12.4,65.2C340.8,352,341.2,354,341.6,355.6z"/>
	<path style="fill:#2B3B4E;" d="M454.8,302c-3.2,4.4-6.4,8.4-10,12.4c-8.4,9.2-18,16.8-28.4,23.2c1.6-19.6,9.6-39.6,14-39.6   c6.8,0,22-9.6,23.2-10l0,0C453.6,288,454,293.6,454.8,302z"/>
	<path style="fill:#2B3B4E;" d="M453.6,288L453.6,288c-0.4,0.8-4,10.8-8.8,26.4c-8.4,9.2-18,16.8-28.4,23.2   c-5.6,3.2-11.2,6-17.2,8.4c-0.4,0.4-0.8,0.4-1.6,0.8c-2.4,0.8-4.8,2-7.6,2.8c-2.4,0.8-4.8,1.6-7.2,2c-0.8,0.4-1.6,0.4-2.4,0.4   c-2.8,0.8-5.6,1.2-8.4,1.6c-3.2,0.4-6,0.8-9.2,1.2c4.8-20.4,9.2-45.2,12-74.4c0.4-3.6,0.8-7.2,0.8-10.8c0.4-5.2,0.8-10.8,1.2-16.4   l0,0c0-0.4,0-0.8,0-1.2c0,0,1.2,2.4,5.6,6C391.2,265.2,410.4,276.4,453.6,288z"/>
	<path style="fill:#2B3B4E;" d="M396.4,287.2c0,0-11.6,33.6-24,66.8c-3.2,0.4-6,0.8-9.2,1.2c-0.4,0-0.8,0-0.8,0c-0.8,0-1.6,0-2.4,0   c0.4-2,0.8-3.6,1.2-5.6c4.8-22,10-46,12.4-65.2l0,0c0.8-5.2,1.2-10,1.6-14.8c0.4-3.2,0.4-6,0.4-8.8c0,0,0,0,0-0.4l0,0   c0-4.8,0-8.4-0.8-11.2l0,0c0-0.4,0-0.4-0.4-0.8c0-0.4,0-0.4-0.4-0.8c0,0,0.4,0.4,0.8,0.8c0,0,0,0,0.4,0.4c1.6,1.6,4.4,4.8,7.6,9.6   c3.2,4.4,6,9.6,8.4,15.6l0,0l-6.8,7.2L396.4,287.2z"/>
</g>
<g>
	<ellipse style="fill:#FFD05B;" cx="350.8" cy="204" rx="43.6" ry="54.8"/>
	
		<ellipse transform="matrix(0.3227 -0.9465 0.9465 0.3227 77.2438 508.6669)" style="fill:#FFD05B;" cx="394.044" cy="200.361" rx="15.2" ry="8"/>
	
		<ellipse transform="matrix(0.3227 0.9465 -0.9465 0.3227 397.9709 -154.8552)" style="fill:#FFD05B;" cx="307.188" cy="200.647" rx="15.2" ry="8"/>
</g>
<path style="fill:#324A5E;" d="M311.2,212c-22.4-46.8,8.8-62,8.8-62l-14.4,8c44.4-53.2,76.4-9.6,76.4-9.6c30.8,24,10.8,60,10.8,60  s-3.6-26.4-16.8-38c0,0-15.6,18-52.4,1.6c0,0-8.8,12.8-5.6,30.4c0,0-3.6-2.4-4.8-11.2C313.2,190.8,308.8,202.8,311.2,212L311.2,212z  "/>
<g>
	<path style="fill:#FFFFFF;" d="M327.2,248c0,0,3.6,21.6,23.6,31.2c0,0-13.2,10.4-16,18.8C334.8,298,313.2,266.8,327.2,248z"/>
	<path style="fill:#FFFFFF;" d="M374.4,248c0,0-3.6,21.6-23.6,31.2c0,0,13.2,10.4,16,18.8C366.4,298,388,266.8,374.4,248z"/>
</g>
<path style="fill:#2B3B4E;" d="M399.2,346.4c-0.4,0.4-0.8,0.4-1.6,0.8c-2.4,0.8-4.8,2-7.6,2.8l6-6L399.2,346.4z"/>
<path style="fill:#E6E9EE;" d="M280.4,404l-8.8,16.4l-1.2,2c-3.6,1.6-7.2,2.8-10.8,4c-3.2,1.2-6.8,2.4-10.4,3.2  c-1.2,0.4-2,0.4-3.2,0.8c-4,0.8-8,2-12.4,2.4c-4.4,0.8-8.8,1.2-13.2,1.6c-0.4,0-0.8,0-1.6,0c-1.2,0-2,0-3.2,0.4  c-4.4,0.4-8.8,0.4-13.2,0.4s-8.8,0-13.2-0.4c-1.2,0-2.4,0-3.2-0.4c-0.4,0-0.8,0-1.6,0c-4.4-0.4-8.8-1.2-13.2-1.6  c-19.2-3.2-36.8-9.2-53.6-18c-6.4-24.8-12.8-52-9.2-55.6c6-6.8,28.4-37.6,28.4-37.6l8.4-2.4l18-5.2l2.8-0.8l1.2-0.4l2.8-0.8l12-3.6  l20.8-6L224,308l12.4,3.2l2.4,0.8l1.2,0.4l2.8,0.8l18.8,4.8l14.8,4L280.4,404z"/>
<path style="fill:#FF7058;" d="M218,426.8l1.2,7.6c-1.2,0-2,0-3.2,0.4c-4.4,0.4-8.8,0.4-13.2,0.4s-8.8,0-13.2-0.4  c-1.2,0-2.4,0-3.2-0.4l1.6-7.6l12.4-68.8l-13.6-17.2L174,325.2h57.6l-12.4,15.6L205.6,358L218,426.8z"/>
<path style="fill:#F9B54C;" d="M239.2,294.4c0,26.8-16.4,30.8-36.4,30.8s-36.4-4-36.4-30.8s16.4-70,36.4-70S239.2,267.6,239.2,294.4  z"/>
<g>
	<path style="fill:#324A5E;" d="M185.2,434.4c-4.4-0.4-8.8-1.2-13.2-1.6c-19.2-3.2-36.8-9.2-53.6-18c-3.2-1.6-6.4-3.6-10-5.6   c-15.2-9.2-29.2-20.4-41.2-33.6c-6.8-22.4-12-37.2-12.4-38l0,0c62.4-16.8,90-32.8,101.6-42.4c6.4-5.2,8-8.4,8-8.4   c0,0.4,0,1.2,0,1.6c0.4,8.4,0.8,16.4,1.6,24.4c0.4,5.2,0.8,10,1.2,14.8C172,369.6,178.4,405.6,185.2,434.4z"/>
	<path style="fill:#324A5E;" d="M189.6,434.8c-1.2,0-2.4,0-3.2-0.4c-0.4,0-0.8,0-1.6,0c-4.4-0.4-8.8-1.2-13.2-1.6   c-18-47.6-34.4-96-34.4-96l17.2-8.8l-8.4-8.8l-1.6-1.6c3.2-8.4,7.6-16,12-22.4s8.8-11.2,10.8-13.6c0,0,0.4,0,0.4-0.4   c0.8-0.8,1.2-1.2,1.2-1.2c0,0.4,0,0.4-0.4,0.8c0,0.4-0.4,0.8-0.4,1.2c-1.2,4-1.6,10-1.2,17.2l0,0c0,4,0.4,8.4,0.8,12.8   c0.4,6.4,1.2,13.2,2.4,20.4l0,0c4,28,10.8,62.4,18,94C188.4,429.6,189.2,432.4,189.6,434.8z"/>
	<path style="fill:#324A5E;" d="M352.8,358c-4.4,6.4-9.2,12.4-14.4,18c-12,13.2-25.6,24.4-41.2,33.6c2.4-28.4,14-56.8,20.4-56.8   c10,0,32-13.6,33.2-14.4l0,0C350.8,338.4,351.6,345.6,352.8,358z"/>
	<path style="fill:#324A5E;" d="M350.8,338L350.8,338c-0.4,0.8-5.6,15.6-12.4,38c-12,13.2-25.6,24.4-41.2,33.6   c-7.6,4.8-16,8.8-24.4,12.4c-0.8,0.4-1.6,0.8-2,0.8c-3.6,1.6-7.2,2.8-10.8,4c-3.2,1.2-6.8,2.4-10.4,3.2c-1.2,0.4-2,0.4-3.2,0.8   c-4,0.8-8,2-12.4,2.4c-4.4,0.8-8.8,1.2-13.2,1.6C227.6,405.6,234,370,238,328c0.4-5.2,0.8-10.4,1.6-15.6c0.8-7.6,1.2-15.6,1.6-23.6   l0,0c0-0.4,0-1.2,0-1.6c0,0,1.6,3.2,8,8.8C260.8,305.2,288.4,321.2,350.8,338z"/>
	<path style="fill:#324A5E;" d="M268.4,336.8c0,0-16.4,48.4-34.4,96c-4.4,0.8-8.8,1.2-13.2,1.6c-0.4,0-0.8,0-1.6,0   c-1.2,0-2,0-3.2,0.4c0.8-2.8,1.2-5.2,2-8c7.2-31.6,14-66,18-94l0,0c1.2-7.6,2-14.8,2.4-21.2c0.4-4.4,0.8-8.8,0.8-12.4v-0.4l0,0   c0-6.8-0.4-12.4-1.2-16.4l0,0c0-0.4,0-0.8-0.4-1.2c0-0.4,0-0.8-0.4-0.8c0,0,0.4,0.4,1.2,1.2c0,0,0,0.4,0.4,0.4   c2,2.4,6.4,7.2,10.8,13.6c4.4,6,8.8,14,12,22l0,0l-10,10L268.4,336.8z"/>
</g>
<g>
	<ellipse style="fill:#FFD05B;" cx="202.8" cy="217.2" rx="62.4" ry="78.4"/>
	
		<ellipse transform="matrix(0.3227 -0.9465 0.9465 0.3227 -20.9794 394.5789)" style="fill:#FFD05B;" cx="265.215" cy="211.948" rx="21.6" ry="11.2"/>
	
		<ellipse transform="matrix(0.3227 0.9465 -0.9465 0.3227 295.7908 10.7263)" style="fill:#FFD05B;" cx="140.401" cy="212.041" rx="21.6" ry="11.2"/>
</g>
<path style="fill:#324A5E;" d="M146,228.4c-32.4-67.2,12.8-89.2,12.8-89.2l-21.2,12c64-76.8,110-14,110-14  c44.4,34.4,15.6,86.4,15.6,86.4s-5.2-38-24.4-54.8c0,0-22.8,26-75.6,2c0,0-12.4,18.8-8,43.6c0,0-5.2-3.6-6.8-16.4  C149.2,198,142.8,215.2,146,228.4L146,228.4z"/>
<g>
	<path style="fill:#FFFFFF;" d="M169.2,280.4c0,0,5.2,30.8,34,44.8c0,0-19.2,14.8-22.8,26.8C180,352.4,149.2,307.6,169.2,280.4z"/>
	<path style="fill:#FFFFFF;" d="M236.8,280.4c0,0-5.2,30.8-34,44.8c0,0,19.2,14.8,22.8,26.8C225.6,352.4,256.4,307.6,236.8,280.4z"/>
</g>
<path style="fill:#324A5E;" d="M272.8,421.6c-0.8,0.4-1.6,0.8-2,0.8c-3.6,1.6-7.2,2.8-10.8,4l8.8-8.8L272.8,421.6z"/>
<g>
</g>
<g>
</g>
<g>
</g>
<g>
</g>
<g>
</g>
<g>
</g>
<g>
</g>
<g>
</g>
<g>
</g>
<g>
</g>
<g>
</g>
<g>
</g>
<g>
</g>
<g>
</g>
<g>
</g>
</svg>
