<?xml version="1.0" encoding="iso-8859-1"?>
<!-- Generator: Adobe Illustrator 19.0.0, SVG Export Plug-In . SVG Version: 6.00 Build 0)  -->
<svg xmlns="http://www.w3.org/2000/svg" xmlns:xlink="http://www.w3.org/1999/xlink" version="1.1" id="Layer_1" x="0px" y="0px" viewBox="0 0 508 508" style="enable-background:new 0 0 508 508;" xml:space="preserve">
<circle style="fill:#324A5E;" cx="254" cy="254" r="254"/>
<path style="fill:#FFFFFF;" d="M352.8,434H155.2c-12,0-22-9.6-22-22V95.6c0-12,9.6-22,22-22h197.2c12,0,22,9.6,22,22V412  C374.4,424.4,364.8,434,352.8,434z"/>
<rect x="156" y="119.2" style="fill:#84DBFF;" width="195.6" height="261.6"/>
<rect x="156" y="119.2" style="fill:#54C0EB;" width="195.6" height="36.8"/>
<g>
	<circle style="fill:#E6E9EE;" cx="254" cy="407.2" r="16"/>
	<path style="fill:#E6E9EE;" d="M297.6,103.2h-70.8c-2.4,0-4-1.6-4-4l0,0c0-2.4,1.6-4,4-4h70.8c2.4,0,4,1.6,4,4l0,0   C301.6,101.2,299.6,103.2,297.6,103.2z"/>
	<circle style="fill:#E6E9EE;" cx="211.6" cy="99.2" r="4.8"/>
</g>
<g>
	<rect x="167.6" y="167.2" style="fill:#54C0EB;" width="51.6" height="60"/>
	<rect x="228.4" y="167.2" style="fill:#54C0EB;" width="51.6" height="60"/>
	<rect x="288.8" y="167.2" style="fill:#54C0EB;" width="51.6" height="60"/>
	<rect x="167.6" y="238.4" style="fill:#54C0EB;" width="51.6" height="60"/>
	<rect x="228.4" y="238.4" style="fill:#54C0EB;" width="51.6" height="60"/>
	<rect x="288.8" y="238.4" style="fill:#54C0EB;" width="51.6" height="60"/>
	<rect x="167.6" y="309.6" style="fill:#54C0EB;" width="51.6" height="60"/>
	<rect x="228.4" y="309.6" style="fill:#54C0EB;" width="51.6" height="60"/>
	<rect x="288.8" y="309.6" style="fill:#54C0EB;" width="51.6" height="60"/>
</g>
<g>
</g>
<g>
</g>
<g>
</g>
<g>
</g>
<g>
</g>
<g>
</g>
<g>
</g>
<g>
</g>
<g>
</g>
<g>
</g>
<g>
</g>
<g>
</g>
<g>
</g>
<g>
</g>
<g>
</g>
</svg>
