<?xml version="1.0" encoding="iso-8859-1"?>
<!-- Generator: Adobe Illustrator 19.0.0, SVG Export Plug-In . SVG Version: 6.00 Build 0)  -->
<svg xmlns="http://www.w3.org/2000/svg" xmlns:xlink="http://www.w3.org/1999/xlink" version="1.1" id="Layer_1" x="0px" y="0px" viewBox="0 0 508 508" style="enable-background:new 0 0 508 508;" xml:space="preserve">
<circle style="fill:#90DFAA;" cx="254" cy="254" r="254"/>
<g>
	<polygon style="fill:#2B3B4E;" points="388.8,410.8 298.8,410.8 248.4,295.2 314.8,295.2  "/>
	<polygon style="fill:#2B3B4E;" points="119.2,410.8 209.2,410.8 259.6,295.2 193.2,295.2  "/>
	<circle style="fill:#2B3B4E;" cx="356.8" cy="138.4" r="46.4"/>
	<circle style="fill:#2B3B4E;" cx="151.2" cy="138.4" r="46.4"/>
</g>
<circle style="fill:#324A5E;" cx="254" cy="231.6" r="146"/>
<circle style="fill:#FFFFFF;" cx="254" cy="231.6" r="116"/>
<g>
	<circle style="fill:#E6E9EE;" cx="254" cy="136.8" r="8.8"/>
	<circle style="fill:#E6E9EE;" cx="254" cy="326" r="8.8"/>
	<circle style="fill:#E6E9EE;" cx="348.4" cy="231.6" r="8.8"/>
	<circle style="fill:#E6E9EE;" cx="159.6" cy="231.6" r="8.8"/>
	<circle style="fill:#E6E9EE;" cx="320.8" cy="164.4" r="8.8"/>
	<circle style="fill:#E6E9EE;" cx="187.2" cy="298.4" r="8.8"/>
	<circle style="fill:#E6E9EE;" cx="320.8" cy="298.4" r="8.8"/>
	<circle style="fill:#E6E9EE;" cx="187.2" cy="164.4" r="8.8"/>
</g>
<path style="fill:#FF7058;" d="M250.8,289.2v-10.4c-12.8-1.2-24.4-6.4-34.4-15.2l10.4-12c8,6.8,16,10.8,24,12v-27.2  c-10.4-2.4-18.4-6-23.2-10s-7.2-10-7.2-18.4s2.8-14.8,8.4-19.6c5.6-5.2,12.8-8,22-8.4v-6.8h8.8v7.2c10.4,0.8,20,4.4,29.2,10.4  l-9.2,12.8c-6-4.4-12.8-7.2-20-8V222h0.4c10.8,2.4,18.4,6,23.6,10.4s7.6,10.4,7.6,18.8c0,8-2.8,14.8-8.8,20  c-5.6,5.2-13.6,8-22.8,8.4v10L250.8,289.2L250.8,289.2z M241.2,199.2c-2.4,2-3.6,4.8-3.6,8s0.8,5.6,2.8,7.6s5.6,3.6,10.8,5.2v-24  C246.8,195.6,243.6,197.2,241.2,199.2z M270.4,260.4c2.8-2,4-4.8,4-8c0-3.2-1.2-6-3.2-7.6c-2-2-6-3.6-11.6-5.2v25.2  C264.4,264,268,262.4,270.4,260.4z"/>
<g>
</g>
<g>
</g>
<g>
</g>
<g>
</g>
<g>
</g>
<g>
</g>
<g>
</g>
<g>
</g>
<g>
</g>
<g>
</g>
<g>
</g>
<g>
</g>
<g>
</g>
<g>
</g>
<g>
</g>
</svg>
