<?xml version="1.0" encoding="iso-8859-1"?>
<!-- Generator: Adobe Illustrator 19.0.0, SVG Export Plug-In . SVG Version: 6.00 Build 0)  -->
<svg xmlns="http://www.w3.org/2000/svg" xmlns:xlink="http://www.w3.org/1999/xlink" version="1.1" id="Layer_1" x="0px" y="0px" viewBox="0 0 508 508" style="enable-background:new 0 0 508 508;" xml:space="preserve">
<circle style="fill:#84DBFF;" cx="254" cy="254" r="254"/>
<path style="fill:#324A5E;" d="M367.6,100.8H140.4c-5.6,0-10.4,4.4-10.4,10.4v290.4c0,5.6,4.4,10.4,10.4,10.4h226.8  c5.6,0,10.4-4.4,10.4-10.4V110.8C377.6,105.2,373.2,100.8,367.6,100.8z"/>
<polygon style="fill:#FFFFFF;" points="148.8,119.2 148.8,358.8 329.6,358.8 329.6,329.2 359.2,329.2 359.2,119.2 "/>
<g>
	<circle style="fill:#E6E9EE;" cx="265.2" cy="219.2" r="59.2"/>
	<polygon style="fill:#E6E9EE;" points="329.6,358.8 359.2,329.2 329.6,329.2  "/>
</g>
<g>
	<rect x="175.2" y="158.4" style="fill:#FF7058;" width="9.2" height="9.2"/>
	<rect x="175.2" y="184.4" style="fill:#FF7058;" width="9.2" height="9.2"/>
	<rect x="175.2" y="210" style="fill:#FF7058;" width="9.2" height="9.2"/>
	<rect x="175.2" y="235.6" style="fill:#FF7058;" width="9.2" height="9.2"/>
	<rect x="175.2" y="261.2" style="fill:#FF7058;" width="9.2" height="9.2"/>
	<rect x="175.2" y="286.8" style="fill:#FF7058;" width="9.2" height="9.2"/>
</g>
<g>
	<rect x="200" y="158.4" style="fill:#E6E9EE;" width="133.2" height="9.2"/>
	<rect x="200" y="184.4" style="fill:#E6E9EE;" width="133.2" height="9.2"/>
	<rect x="200" y="210" style="fill:#E6E9EE;" width="133.2" height="9.2"/>
	<rect x="200" y="235.6" style="fill:#E6E9EE;" width="133.2" height="9.2"/>
	<rect x="200" y="261.2" style="fill:#E6E9EE;" width="133.2" height="9.2"/>
	<rect x="200" y="286.8" style="fill:#E6E9EE;" width="73.6" height="9.2"/>
</g>
<g>
	<path style="fill:#CED5E0;" d="M217.2,185.6h103.6c-1.6-3.2-2.4-7.2-2.4-11.2h-97.2C220.8,178.8,219.6,182.8,217.2,185.6z"/>
	<path style="fill:#CED5E0;" d="M321.2,206H206.8v11.2h116.4C321.6,213.6,320.8,210,321.2,206z"/>
	<path style="fill:#CED5E0;" d="M320.8,237.2h-114v11.2h112C318.4,244.8,319.2,240.8,320.8,237.2z"/>
	<path style="fill:#CED5E0;" d="M230.4,268.8c2.4,3.2,3.6,7.2,3.6,11.2h60.4c0.4-1.6,1.2-3.6,2-4.8c1.2-2,3.2-4.4,5.6-6h-71.6V268.8   z"/>
</g>
<g>
	<polygon style="fill:#FF7058;" points="329.6,127.6 178.4,127.6 192.8,92.8 315.2,92.8  "/>
	<path style="fill:#FF7058;" d="M281.6,98h-55.2V88c0-15.2,12.4-27.6,27.6-27.6l0,0c15.2,0,27.6,12.4,27.6,27.6V98z"/>
</g>
<circle style="fill:#FFFFFF;" cx="254" cy="86.4" r="10.8"/>
<rect x="326.237" y="239.044" transform="matrix(0.4481 -0.894 0.894 0.4481 -42.4235 439.3697)" style="fill:#2B3B4E;" width="16.8" height="30"/>
<path style="fill:#324A5E;" d="M296.4,157.2C262,140,220,154,202.8,188.4s-3.2,76.4,31.2,93.6s76.4,3.2,93.6-31.2  C344.8,216,330.8,174.4,296.4,157.2z M312.8,243.2c-13.2,26.4-45.2,36.8-71.6,23.6c-26-12.8-36.8-44.8-23.6-71.2  c13.2-26.4,45.2-36.8,71.6-23.6C315.2,184.8,326,216.8,312.8,243.2z"/>
<path style="fill:#FF7058;" d="M346,249.2l-8.4,16.8c-1.6,3.2-0.4,7.6,3.2,9.2L410,310c3.2,1.6,7.6,0.4,9.2-3.2l8.4-16.8  c1.6-3.2,0.4-7.6-3.2-9.2L355.2,246C351.6,244.8,347.6,246,346,249.2z"/>
<rect x="351.525" y="262.042" transform="matrix(0.894 0.4481 -0.4481 0.894 165.2311 -141.9097)" style="fill:#FFD05B;" width="62.001" height="32.4"/>
<g>
</g>
<g>
</g>
<g>
</g>
<g>
</g>
<g>
</g>
<g>
</g>
<g>
</g>
<g>
</g>
<g>
</g>
<g>
</g>
<g>
</g>
<g>
</g>
<g>
</g>
<g>
</g>
<g>
</g>
</svg>
