<?xml version="1.0" encoding="iso-8859-1"?>
<!-- Generator: Adobe Illustrator 19.0.0, SVG Export Plug-In . SVG Version: 6.00 Build 0)  -->
<svg xmlns="http://www.w3.org/2000/svg" xmlns:xlink="http://www.w3.org/1999/xlink" version="1.1" id="Layer_1" x="0px" y="0px" viewBox="0 0 508 508" style="enable-background:new 0 0 508 508;" xml:space="preserve">
<circle style="fill:#324A5E;" cx="254" cy="254" r="254"/>
<circle style="fill:#FF7058;" cx="254" cy="254" r="192.8"/>
<circle style="fill:#FFFFFF;" cx="254" cy="254" r="168"/>
<circle style="fill:#FF7058;" cx="254" cy="254" r="141.6"/>
<circle style="fill:#FFFFFF;" cx="254" cy="254" r="112.4"/>
<circle style="fill:#FF7058;" cx="254" cy="254" r="88.4"/>
<circle style="fill:#FFFFFF;" cx="254" cy="254" r="62"/>
<circle style="fill:#FF7058;" cx="254" cy="254" r="38"/>
<g>
	<polygon style="fill:#54C0EB;" points="460.4,254 388,254 412.4,216 484.8,216  "/>
	<polygon style="fill:#54C0EB;" points="460.4,254 388,254 412.4,292 484.8,292  "/>
</g>
<path style="fill:#FFD05B;" d="M484.8,242.4H264c-5.6,0-10.8,3.6-11.6,9.2c-1.6,7.2,4,13.6,11.2,13.6h221.6  c6.4,0,11.6-5.2,11.6-11.6l0,0C496.4,247.6,491.2,242.4,484.8,242.4z"/>
<g>
</g>
<g>
</g>
<g>
</g>
<g>
</g>
<g>
</g>
<g>
</g>
<g>
</g>
<g>
</g>
<g>
</g>
<g>
</g>
<g>
</g>
<g>
</g>
<g>
</g>
<g>
</g>
<g>
</g>
</svg>
