<?xml version="1.0" encoding="iso-8859-1"?>
<!-- Generator: Adobe Illustrator 19.0.0, SVG Export Plug-In . SVG Version: 6.00 Build 0)  -->
<svg xmlns="http://www.w3.org/2000/svg" xmlns:xlink="http://www.w3.org/1999/xlink" version="1.1" id="Layer_1" x="0px" y="0px" viewBox="0 0 508 508" style="enable-background:new 0 0 508 508;" xml:space="preserve">
<circle style="fill:#90DFAA;" cx="254" cy="254" r="254"/>
<g>
	<path style="fill:#324A5E;" d="M222.8,360l-18,49.2H182l58.4-156h26.4l58.4,156H302L283.6,360H222.8z M279.6,344.4l-17.2-44.8   c-4-10-6.4-19.6-8.8-28.4h-0.4c-2.4,9.2-5.2,18.8-8.8,28.4l-16.8,45.2h52V344.4z"/>
	<path style="fill:#324A5E;" d="M285.2,148l18-49.2H326l-58.4,156h-26.4l-58.4-156H206l18.4,49.2L285.2,148L285.2,148z M228.4,163.6   l17.2,44.8c4,10,6.4,19.6,8.8,28.4h0.4c2.4-9.2,5.2-18.8,8.8-28.4l16.8-45.2h-52V163.6z"/>
</g>
<path style="fill:#FFFFFF;" d="M399.2,330.8H108.8c-8.4,0-15.6-6.8-15.6-15.6V128.4c0-8.4,6.8-15.6,15.6-15.6h290.4  c8.4,0,15.6,6.8,15.6,15.6v186.8C414.8,324,407.6,330.8,399.2,330.8z"/>
<rect x="302.4" y="157.2" style="fill:#FF7058;" width="25.2" height="113.2"/>
<rect x="261.6" y="180.4" style="fill:#FFD05B;" width="25.2" height="90"/>
<rect x="220.8" y="203.6" style="fill:#84DBFF;" width="25.2" height="67.2"/>
<rect x="180" y="226.4" style="fill:#E6E9EE;" width="25.2" height="44"/>
<g>
</g>
<g>
</g>
<g>
</g>
<g>
</g>
<g>
</g>
<g>
</g>
<g>
</g>
<g>
</g>
<g>
</g>
<g>
</g>
<g>
</g>
<g>
</g>
<g>
</g>
<g>
</g>
<g>
</g>
</svg>
