<?xml version="1.0" encoding="iso-8859-1"?>
<!-- Generator: Adobe Illustrator 19.0.0, SVG Export Plug-In . SVG Version: 6.00 Build 0)  -->
<svg xmlns="http://www.w3.org/2000/svg" xmlns:xlink="http://www.w3.org/1999/xlink" version="1.1" id="Layer_1" x="0px" y="0px" viewBox="0 0 508 508" style="enable-background:new 0 0 508 508;" xml:space="preserve">
<circle style="fill:#FFD05B;" cx="254" cy="254" r="254"/>
<path style="fill:#324A5E;" d="M419.2,123.6H88.8c-6,0-10.8,4.8-10.8,10.8v239.2c0,6,4.8,10.8,10.8,10.8h330.8  c6,0,10.8-4.8,10.8-10.8V134.4C430.4,128.4,425.2,123.6,419.2,123.6z"/>
<rect x="90.8" y="180.8" style="fill:#FFFFFF;" width="326.8" height="184"/>
<g>
	<circle style="fill:#ACB3BA;" cx="407.2" cy="154" r="10.4"/>
	<circle style="fill:#ACB3BA;" cx="374.4" cy="154" r="10.4"/>
	<circle style="fill:#ACB3BA;" cx="342" cy="154" r="10.4"/>
</g>
<path style="fill:#4CDBC4;" d="M282,240.8l-9.2-1.6c-1.2-6-3.6-11.6-6.8-16.8l5.6-7.6c0.4-0.4,0.4-1.2,0-1.6l-8-8  c-0.4-0.4-1.2-0.4-1.6,0l-8,5.6c-4.8-3.2-10.4-5.6-16.8-6.8l-1.6-9.2c0-0.4-0.8-1.2-1.2-1.2h-11.6c-0.8,0-1.2,0.4-1.2,1.2L220,204  c-6,1.2-11.6,3.6-16.8,6.8l-7.6-5.6c-0.4-0.4-1.2-0.4-1.6,0l-8,8c-0.4,0.4-0.4,1.2,0,1.6l5.6,7.6c-3.2,4.8-5.6,10.4-6.8,16.8  l-9.2,1.6c-0.4,0-1.2,0.8-1.2,1.2v11.6c0,0.8,0.4,1.2,1.2,1.2l9.2,1.6c1.2,6,3.6,11.6,6.8,16.8l-5.6,7.6c-0.4,0.4-0.4,1.2,0,1.6l8,8  c0.4,0.4,1.2,0.4,1.6,0l7.6-5.6c4.8,3.2,10.4,5.6,16.8,6.8l1.6,9.2c0,0.4,0.8,1.2,1.2,1.2h11.6c0.8,0,1.2-0.4,1.2-1.2l1.6-9.2  c6-1.2,11.6-3.6,16.8-6.8l7.6,5.6c0.4,0.4,1.2,0.4,1.6,0l8-8c0.4-0.4,0.4-1.2,0-1.6l-5.2-7.6c3.2-4.8,5.6-10.4,6.8-16.8l9.2-1.6  c0.4,0,1.2-0.8,1.2-1.2V242C282.8,241.6,282.4,241.2,282,240.8z M228.8,269.6c-12,0-21.6-9.6-21.6-21.6s9.6-21.6,21.6-21.6  s21.6,9.6,21.6,21.6C250.4,260,240.8,269.6,228.8,269.6z"/>
<path style="fill:#E6E9EE;" d="M316,347.6l-1.6-6c3.6-2.4,6.4-5.2,8.8-8.8l6,1.6c0.4,0,0.8,0,0.8-0.4l2.8-7.2c0-0.4,0-0.8-0.4-1.2  l-5.6-3.2c0.8-4,0.8-8,0-12.4l5.2-3.2c0.4-0.4,0.4-0.8,0.4-1.2l-2.4-8c0-0.4-0.4-0.4-0.8-0.4l-6,1.6c-2.4-3.6-5.2-6.4-8.8-8.8l1.6-6  c0-0.4,0-0.8-0.4-0.8l-7.2-2.8c-0.4,0-0.8,0-1.2,0.4l-4,5.2c-4-0.8-8-0.8-12.4,0l-3.2-5.2c-0.4-0.4-0.8-0.4-1.2-0.4l-7.2,3.2  c-0.4,0-0.4,0.4-0.4,0.8l1.6,6c-3.6,2.4-6.4,5.2-8.8,8.8l-6-1.2c-0.4,0-0.8,0-0.8,0.4l-3.2,7.6c0,0.4,0,0.8,0.4,1.2l5.6,3.2  c-0.8,4-0.8,8,0,12.4l-5.2,3.2c-0.4,0-0.8,0.4-0.4,0.8l3.2,7.2c0,0.4,0.4,0.4,0.8,0.4l6-1.6c2.4,3.6,5.2,6.4,8.8,8.8l-1.6,6  c0,0.4,0,0.8,0.4,0.8l7.2,2.8c0.4,0,0.8,0,1.2-0.4l3.2-5.6c4,0.8,8,0.8,12.4,0l3.2,5.2c0.4,0.4,0.8,0.4,1.2,0.4l7.2-3.2  C316,348.4,316.4,348,316,347.6z M284,321.6c-3.2-7.6,0.4-16,7.6-19.2c7.6-3.2,16,0.4,19.2,7.6c3.2,7.6-0.4,16-7.6,19.2  C296,332.8,287.2,329.2,284,321.6z"/>
<path style="fill:#FF7058;" d="M333.6,265.6l-1.2-4.4c2.8-1.6,4.8-4,6.4-6.4l4.4,1.2c0.4,0,0.8,0,0.8-0.4l2-5.6c0-0.4,0-0.8-0.4-0.8  l-4-2.4c0.4-2.8,0.4-6,0-9.2l4-2.4c0.4,0,0.4-0.4,0.4-0.8l-2.4-5.2c0-0.4-0.4-0.4-0.8-0.4l-4.4,1.2c-1.6-2.8-4-4.8-6.4-6.4l1.2-4.4  c0-0.4,0-0.8-0.4-0.8l-5.6-2c-0.4,0-0.8,0-0.8,0.4l-2.4,4c-2.8-0.4-6-0.4-9.2,0l-2.4-4c0-0.4-0.4-0.4-0.8-0.4L306,218  c-0.4,0-0.4,0.4-0.4,0.8l1.2,4.4c-2.8,1.6-4.8,4-6.4,6.4l-4.4-1.2c-0.4,0-0.8,0-0.8,0.4l-2,5.6c0,0.4,0,0.8,0.4,0.8l4,2.4  c-0.4,2.8-0.4,6,0,9.2l-4,2.4c-0.4,0-0.4,0.4-0.4,0.8l2.4,5.2c0,0.4,0.4,0.4,0.8,0.4l4.4-1.2c1.6,2.8,4,4.8,6.4,6.4l-0.8,5.2  c0,0.4,0,0.8,0.4,0.8l5.6,2c0.4,0,0.8,0,0.8-0.4l2.4-4c2.8,0.4,6,0.4,9.2,0l2.4,4c0,0.4,0.4,0.4,0.8,0.4l5.2-2.4  C333.2,266,333.6,266,333.6,265.6z M309.6,246.4c-2.4-5.6,0-12,5.6-14.4s12,0,14.4,5.6s0,12-5.6,14.4  C318.4,254.8,312,252,309.6,246.4z"/>
<g>
</g>
<g>
</g>
<g>
</g>
<g>
</g>
<g>
</g>
<g>
</g>
<g>
</g>
<g>
</g>
<g>
</g>
<g>
</g>
<g>
</g>
<g>
</g>
<g>
</g>
<g>
</g>
<g>
</g>
</svg>
