<?xml version="1.0" encoding="iso-8859-1"?>
<!-- Generator: Adobe Illustrator 19.0.0, SVG Export Plug-In . SVG Version: 6.00 Build 0)  -->
<svg xmlns="http://www.w3.org/2000/svg" xmlns:xlink="http://www.w3.org/1999/xlink" version="1.1" id="Layer_1" x="0px" y="0px" viewBox="0 0 508 508" style="enable-background:new 0 0 508 508;" xml:space="preserve">
<path style="fill:#FF7058;" d="M508,254c0,140.4-113.6,254-254,254S0,394.4,0,254S113.6,0,254,0c110.8,0,204.8,70.8,239.6,169.6  c7.6,21.2,12,43.6,13.6,66.8C508,242.4,508,248,508,254z"/>
<rect x="123.2" y="122.275" transform="matrix(0.7071 -0.7071 0.7071 0.7071 -62.2444 133.4783)" style="fill:#E6E9EE;" width="13.6" height="39.2"/>
<path style="fill:#FFFFFF;" d="M131.6,130.4l-12.8,12.8c-1.6,1.6-3.6,1.6-5.2,0L100,130c-1.6-1.6-1.6-3.6,0-5.2l12.8-12.8  c1.6-1.6,3.6-1.6,5.2,0l13.6,13.6C132.8,126.8,132.8,129.2,131.6,130.4z"/>
<rect x="235.6" y="73.6" style="fill:#E6E9EE;" width="37.2" height="44.8"/>
<circle style="fill:#FFFFFF;" cx="254" cy="276.4" r="170.4"/>
<circle style="fill:#E6E9EE;" cx="254" cy="276.4" r="143.2"/>
<g>
	<path style="fill:#324A5E;" d="M254,168.4L254,168.4c-2.8,0-4.8-2-4.8-4.8v-12.8c0-2.8,2-4.8,4.8-4.8l0,0c2.8,0,4.8,2,4.8,4.8v12.8   C258.8,166,256.8,168.4,254,168.4z"/>
	<path style="fill:#324A5E;" d="M254,407.2L254,407.2c-2.8,0-4.8-2-4.8-4.8v-12.8c0-2.8,2-4.8,4.8-4.8l0,0c2.8,0,4.8,2,4.8,4.8v12.8   C258.8,404.8,256.8,407.2,254,407.2z"/>
	<path style="fill:#324A5E;" d="M200,182.8L200,182.8c-2.4,1.2-5.2,0.4-6.4-1.6l-6.4-11.2c-1.2-2.4-0.4-5.2,1.6-6.4l0,0   c2.4-1.2,5.2-0.4,6.4,1.6l6.4,11.2C203.2,178.4,202.4,181.6,200,182.8z"/>
	<path style="fill:#324A5E;" d="M319.2,389.6L319.2,389.6c-2.4,1.2-5.2,0.4-6.4-1.6l-6.4-11.2c-1.2-2.4-0.4-5.2,1.6-6.4l0,0   c2.4-1.2,5.2-0.4,6.4,1.6l6.4,11.2C322.4,385.2,321.6,388,319.2,389.6z"/>
	<path style="fill:#324A5E;" d="M160.4,222.4L160.4,222.4c-1.2,2.4-4.4,3.2-6.4,1.6l-11.2-6.4c-2.4-1.2-3.2-4.4-1.6-6.4l0,0   c1.2-2.4,4.4-3.2,6.4-1.6l11.2,6.4C160.8,217.2,161.6,220,160.4,222.4z"/>
	<path style="fill:#324A5E;" d="M367.2,341.6L367.2,341.6c-1.2,2.4-4.4,3.2-6.4,1.6l-11.2-6.4c-2.4-1.2-3.2-4.4-1.6-6.4l0,0   c1.2-2.4,4.4-3.2,6.4-1.6l11.2,6.4C367.6,336.4,368.4,339.2,367.2,341.6z"/>
	<path style="fill:#324A5E;" d="M146,276.4L146,276.4c0,2.8-2,4.8-4.8,4.8h-12.8c-2.8,0-4.8-2-4.8-4.8l0,0c0-2.8,2-4.8,4.8-4.8h12.8   C143.6,271.6,146,273.6,146,276.4z"/>
	<path style="fill:#324A5E;" d="M384.8,276.4L384.8,276.4c0,2.8-2,4.8-4.8,4.8h-12.8c-2.8,0-4.8-2-4.8-4.8l0,0c0-2.8,2-4.8,4.8-4.8   H380C382.4,271.6,384.8,273.6,384.8,276.4z"/>
	<path style="fill:#324A5E;" d="M160.4,330.4L160.4,330.4c1.2,2.4,0.4,5.2-1.6,6.4l-11.2,6.4c-2.4,1.2-5.2,0.4-6.4-1.6l0,0   c-1.2-2.4-0.4-5.2,1.6-6.4l11.2-6.4C156,327.2,159.2,328,160.4,330.4z"/>
	<path style="fill:#324A5E;" d="M367.2,211.2L367.2,211.2c1.2,2.4,0.4,5.2-1.6,6.4L354,224c-2.4,1.2-5.2,0.4-6.4-1.6l0,0   c-1.2-2.4-0.4-5.2,1.6-6.4l11.2-6.4C362.8,208,366,208.8,367.2,211.2z"/>
	<path style="fill:#324A5E;" d="M200,370L200,370c2.4,1.2,3.2,4.4,1.6,6.4l-6.4,11.2c-1.2,2.4-4.4,3.2-6.4,1.6l0,0   c-2.4-1.2-3.2-4.4-1.6-6.4l6.4-11.2C194.8,369.6,197.6,368.8,200,370z"/>
	<path style="fill:#324A5E;" d="M319.2,163.2L319.2,163.2c2.4,1.2,3.2,4.4,1.6,6.4l-6.4,11.2c-1.2,2.4-4.4,3.2-6.4,1.6l0,0   c-2.4-1.2-3.2-4.4-1.6-6.4l6.4-11.2C314,162.8,317.2,162,319.2,163.2z"/>
	<circle style="fill:#324A5E;" cx="254" cy="276.4" r="23.6"/>
</g>
<path style="fill:#54C0EB;" d="M344.8,278.8l-128,6.4c-1.6,0-2.4-1.2-2.4-2.4V270c0-1.6,1.2-2.4,2.4-2.4l128,6.4  c1.2,0,2.4,1.2,2.4,2.4l0,0C346.8,277.6,346,278.8,344.8,278.8z"/>
<path style="fill:#FFFFFF;" d="M273.2,80.8h-38.8c-8,0-14.4-6.4-14.4-14.4V53.2c0-8,6.4-14.4,14.4-14.4h38.8c8,0,14.4,6.4,14.4,14.4  v13.2C287.6,74.4,281.2,80.8,273.2,80.8z"/>
<g>
</g>
<g>
</g>
<g>
</g>
<g>
</g>
<g>
</g>
<g>
</g>
<g>
</g>
<g>
</g>
<g>
</g>
<g>
</g>
<g>
</g>
<g>
</g>
<g>
</g>
<g>
</g>
<g>
</g>
</svg>
