<?xml version="1.0" encoding="iso-8859-1"?>
<!-- Generator: Adobe Illustrator 19.0.0, SVG Export Plug-In . SVG Version: 6.00 Build 0)  -->
<svg xmlns="http://www.w3.org/2000/svg" xmlns:xlink="http://www.w3.org/1999/xlink" version="1.1" id="Layer_1" x="0px" y="0px" viewBox="0 0 508 508" style="enable-background:new 0 0 508 508;" xml:space="preserve">
<circle style="fill:#324A5E;" cx="254" cy="254" r="254"/>
<path style="fill:#FFFFFF;" d="M351.2,88.8H160.8v52.8c0,5.2-4.4,9.6-9.6,9.6H98.4v258.4c0,5.2,4.4,9.6,9.6,9.6h243.2  c5.2,0,9.6-4.4,9.6-9.6V98.4C360.8,93.2,356.4,88.8,351.2,88.8z"/>
<path style="fill:#E6E9EE;" d="M160.8,88.8v52.8c0,5.2-4.4,9.6-9.6,9.6H98.4L160.8,88.8z"/>
<path style="fill:#FFD05B;" d="M174.8,335.2c-0.8,0.8-1.6,1.6-2.4,2.4C160,350,153.6,364,153.6,364s8.8-4,18.4-11.6  c-7.6,10-11.6,18.4-11.6,18.4s8.8-4,18.4-11.6c-7.6,10-11.6,18.4-11.6,18.4s8.8-4,18.4-11.6c-7.6,10-11.6,18.4-11.6,18.4  s14-6.4,26.4-18.8c0.8-0.8,1.6-1.6,2.4-2.4L174.8,335.2z"/>
<g>
	<polygon style="fill:#324A5E;" points="251.2,376.8 207.6,332.8 292.4,247.6 266,362  "/>
	<polygon style="fill:#324A5E;" points="161.6,287.2 205.6,331.2 290.8,246 176.4,272.4  "/>
</g>
<path style="fill:#54C0EB;" d="M213.2,359.2c40.8-27.2,93.6-71.6,132.4-110.4C412,182.4,412,126.4,412,126.4s-56,0-122.4,66.4  c-38.8,38.8-83.2,91.6-110.4,132.4L213.2,359.2z"/>
<rect x="226.633" y="270.771" transform="matrix(0.7071 0.7071 -0.7071 0.7071 284.6802 -74.1379)" style="fill:#324A5E;" width="10.4" height="71.599"/>
<circle style="fill:#E6E9EE;" cx="338.8" cy="199.6" r="21.2"/>
<g>
</g>
<g>
</g>
<g>
</g>
<g>
</g>
<g>
</g>
<g>
</g>
<g>
</g>
<g>
</g>
<g>
</g>
<g>
</g>
<g>
</g>
<g>
</g>
<g>
</g>
<g>
</g>
<g>
</g>
</svg>
