<?xml version="1.0" encoding="iso-8859-1"?>
<!-- Generator: Adobe Illustrator 19.0.0, SVG Export Plug-In . SVG Version: 6.00 Build 0)  -->
<svg xmlns="http://www.w3.org/2000/svg" xmlns:xlink="http://www.w3.org/1999/xlink" version="1.1" id="Layer_1" x="0px" y="0px" viewBox="0 0 508 508" style="enable-background:new 0 0 508 508;" xml:space="preserve">
<circle style="fill:#FD8469;" cx="254" cy="254" r="254"/>
<path style="fill:#FFFFFF;" d="M375.6,88.8h-190v52.8c0,5.2-4.4,9.6-9.6,9.6h-53.2v258.4c0,5.2,4.4,9.6,9.6,9.6h243.2  c5.2,0,9.6-4.4,9.6-9.6V98.4C385.2,93.2,380.8,88.8,375.6,88.8z"/>
<path style="fill:#E6E9EE;" d="M122.8,151.2h52.8c5.2,0,9.6-4.4,9.6-9.6V88.8L122.8,151.2z"/>
<path style="fill:#84DBFF;" d="M233.2,225.6c0,19.6-16,35.6-35.6,35.6s-35.6-16-35.6-35.6s16-36,35.6-36v36H233.2z"/>
<path style="fill:#E6E9EE;" d="M243.2,215.6h-35.6v-36C227.2,179.6,243.2,195.6,243.2,215.6z"/>
<path style="fill:#FFD05B;" d="M233.2,336.4c0,19.6-16,35.6-35.6,35.6S162,356,162,336.4s16-36,35.6-36v36H233.2z"/>
<path style="fill:#E6E9EE;" d="M243.2,326.4h-35.6v-36C227.2,290.8,243.2,306.8,243.2,326.4z"/>
<g>
	<rect x="274.8" y="187.2" style="fill:#84DBFF;" width="15.2" height="15.2"/>
	<rect x="274.8" y="214" style="fill:#84DBFF;" width="15.2" height="15.2"/>
</g>
<g>
	<rect x="300" y="187.2" style="fill:#E6E9EE;" width="59.6" height="15.2"/>
	<rect x="300" y="214" style="fill:#E6E9EE;" width="59.6" height="15.2"/>
</g>
<g>
	<rect x="274.8" y="310.8" style="fill:#FFD05B;" width="15.2" height="15.2"/>
	<rect x="274.8" y="337.6" style="fill:#FFD05B;" width="15.2" height="15.2"/>
</g>
<g>
	<rect x="300" y="310.8" style="fill:#E6E9EE;" width="59.6" height="15.2"/>
	<rect x="300" y="337.6" style="fill:#E6E9EE;" width="59.6" height="15.2"/>
</g>
<g>
</g>
<g>
</g>
<g>
</g>
<g>
</g>
<g>
</g>
<g>
</g>
<g>
</g>
<g>
</g>
<g>
</g>
<g>
</g>
<g>
</g>
<g>
</g>
<g>
</g>
<g>
</g>
<g>
</g>
</svg>
