<?xml version="1.0" encoding="iso-8859-1"?>
<!-- Generator: Adobe Illustrator 19.0.0, SVG Export Plug-In . SVG Version: 6.00 Build 0)  -->
<svg xmlns="http://www.w3.org/2000/svg" xmlns:xlink="http://www.w3.org/1999/xlink" version="1.1" id="Layer_1" x="0px" y="0px" viewBox="0 0 508 508" style="enable-background:new 0 0 508 508;" xml:space="preserve">
<circle style="fill:#90DFAA;" cx="254" cy="254" r="254"/>
<g>
	<polygon style="fill:#FFFFFF;" points="415.6,177.2 204,121.6 260,333.2 291.2,258 393.2,360.4 442.8,310.8 340.4,208.4  "/>
	<path style="fill:#FFFFFF;" d="M254,134.4c-1.6,4.4-6.8,12-20.4,25.6c-4.8,4.8-10,10-15.6,14.8l-5.2-20.8l-2.4-8.8l-6.4-24   l24.8,6.4l9.6,2.4L254,134.4z"/>
	<path style="fill:#FFFFFF;" d="M442.8,310.8l-49.6,49.6L291.2,258L260,333.2l-39.6-150l-2.4-8.4c5.2-4.8,10.4-9.6,15.6-14.8   c13.6-13.6,18.8-21.2,20.4-25.6l7.6,2l154,40.8l-75.2,31.2L442.8,310.8z"/>
</g>
<g>
	<path style="fill:#FF7058;" d="M237.6,346.4l-15.2-130c-1.6-11.6-11.2-20.4-23.2-20.4h-79.6c-12,0-21.6,8.8-23.2,20.4l-15.2,130   c-1.6,14,9.2,26,23.2,26h110.4C228.4,372.4,239.2,360.4,237.6,346.4z M159.2,238c-6.8,0-12.8-5.6-12.8-12.8   c0-6.8,5.6-12.8,12.8-12.8c6.8,0,12.8,5.6,12.8,12.8C172,232,166.4,238,159.2,238z"/>
	<path style="fill:#FF7058;" d="M199.2,196H194c-10.8,8.8-20,15.6-26.4,19.6c2,1.6,3.6,4,4.4,6.4c9.2-5.6,21.6-14.8,33.6-25.2   C203.2,196,201.2,196,199.2,196z"/>
</g>
<path style="fill:#324A5E;" d="M258,122c-2.4-2.4-5.2-4.4-9.6-4.4c-5.2,0-11.2,3.2-20,10.4l9.6,2.4c4.4-3.2,8-5.2,10.4-5.2  c1.2,0,2.4,0.4,4,2.4c1.2,1.2,2.8,2.8,1.6,7.2c-1.6,4.4-6.8,12-20.4,25.6c-4.8,4.8-10,10-15.6,14.8c-8.4,7.6-16.4,14.8-24.4,21.2  c-10.8,8.8-20,15.6-26.4,19.6c-2,1.2-3.6,2-5.2,2.8c0.4-1.2,1.2-2.8,2.4-4.4c-1.6-0.8-3.2-1.2-5.2-1.2c-1.2,0-2.4,0-3.2,0.4  c-3.6,7.6-2.4,10-0.8,12c0.8,0.8,2,1.6,4.4,1.6c2.8,0,6.8-1.6,12-4.8c9.2-5.6,21.6-14.8,33.6-25.2c5.2-4.4,10.4-8.8,15.2-13.2  c7.2-6.4,13.6-12.4,18.8-17.6c12.8-12.8,20.4-22,22.4-29.2C263.6,130.8,262.4,126.4,258,122z M212.8,154l-2.4-8.8  c-12.8,13.2-26.8,29.2-38,43.6c-2,2.4-4,4.8-5.6,7.2h9.6C186,183.6,199.2,168.4,212.8,154z"/>
<path style="fill:#FFFFFF;" d="M149.6,276.4c3.2,3.2,4.8,7.2,4.8,12s-1.6,8.8-4.8,12s-6.8,5.2-11.6,5.2c-4.4,0-8.4-1.6-11.6-4.8  c-3.2-3.2-4.4-7.2-4.4-12s1.6-8.8,4.8-12s6.8-5.2,11.6-5.2C142.8,271.6,146.4,273.2,149.6,276.4z M193.2,273.2L138.4,348h-13.6  l54.8-74.8H193.2z M142.4,294c1.2-1.6,1.6-3.2,1.6-5.2s-0.8-4-2-5.6s-2.8-2-4.4-2c-1.6,0-3.2,0.8-4.4,2c-1.2,1.6-1.6,3.2-1.6,5.6  c0,2,0.8,4,2,5.2c1.2,1.6,2.8,2,4.4,2C140,296.4,141.2,295.6,142.4,294z M192,320c3.2,3.2,4.4,7.2,4.4,12s-1.6,8.8-4.8,12  s-6.8,5.2-11.6,5.2c-4.4,0-8.4-1.6-11.6-4.8c-3.2-3.2-4.4-7.2-4.4-12s1.6-8.8,4.8-12s6.8-5.2,11.6-5.2  C185.2,314.8,189.2,316.4,192,320z M185.2,337.6c1.2-1.6,1.6-3.2,1.6-5.2s-0.8-4-2-5.6s-2.8-2-4.4-2c-1.6,0-3.2,0.8-4.4,2  c-1.2,1.6-1.6,3.2-1.6,5.6c0,2,0.8,4,2,5.2c1.2,1.6,2.8,2,4.4,2C182.4,340,184,339.2,185.2,337.6z"/>
<g>
</g>
<g>
</g>
<g>
</g>
<g>
</g>
<g>
</g>
<g>
</g>
<g>
</g>
<g>
</g>
<g>
</g>
<g>
</g>
<g>
</g>
<g>
</g>
<g>
</g>
<g>
</g>
<g>
</g>
</svg>
