<?xml version="1.0" encoding="iso-8859-1"?>
<!-- Generator: Adobe Illustrator 19.0.0, SVG Export Plug-In . SVG Version: 6.00 Build 0)  -->
<svg xmlns="http://www.w3.org/2000/svg" xmlns:xlink="http://www.w3.org/1999/xlink" version="1.1" id="Layer_1" x="0px" y="0px" viewBox="0 0 508 508" style="enable-background:new 0 0 508 508;" xml:space="preserve">
<circle style="fill:#FD8469;" cx="254" cy="254" r="254"/>
<path style="fill:#F1543F;" d="M57.2,414.4C103.6,471.6,174.8,508,254,508s150.4-36.4,196.8-93.6H57.2z"/>
<path style="fill:#FFFFFF;" d="M255.6,403.6c-1.6,0-3.2-0.8-4-2L115.6,242c-2-2-1.6-5.2,0.4-7.2l136-136c2-2,5.6-2,7.6,0  s2,5.6,0,7.6L126.8,238.8l132.8,156c2,2.4,1.6,5.6-0.8,7.6C258,403.2,256.8,403.6,255.6,403.6z"/>
<path style="fill:#324A5E;" d="M334.4,114.4l-78.8,79.2l-56.4-78c-4.4-6-3.6-14.8,1.6-20L236.4,60c5.2-5.2,14-6,20-1.6L334.4,114.4z  "/>
<circle style="fill:#FFFFFF;" cx="317.2" cy="176.4" r="30.4"/>
<path style="fill:#2B3B4E;" d="M380.4,118.8c-33.6-32-86.4-31.6-119.2,1.2S228,206,260,239.2L380.4,118.8z"/>
<circle style="fill:#324A5E;" cx="122.8" cy="239.6" r="32.4"/>
<g>
	<circle style="fill:#2B3B4E;" cx="122.8" cy="239.6" r="18.4"/>
	<path style="fill:#2B3B4E;" d="M340.8,414.4H173.6v-11.6c0-12,9.6-21.6,21.6-21.6h123.6c12,0,21.6,9.6,21.6,21.6L340.8,414.4   L340.8,414.4z"/>
</g>
<g>
</g>
<g>
</g>
<g>
</g>
<g>
</g>
<g>
</g>
<g>
</g>
<g>
</g>
<g>
</g>
<g>
</g>
<g>
</g>
<g>
</g>
<g>
</g>
<g>
</g>
<g>
</g>
<g>
</g>
</svg>
