<?xml version="1.0" encoding="iso-8859-1"?>
<!-- Generator: Adobe Illustrator 19.0.0, SVG Export Plug-In . SVG Version: 6.00 Build 0)  -->
<svg xmlns="http://www.w3.org/2000/svg" xmlns:xlink="http://www.w3.org/1999/xlink" version="1.1" id="Layer_1" x="0px" y="0px" viewBox="0 0 508 508" style="enable-background:new 0 0 508 508;" xml:space="preserve">
<circle style="fill:#324A5E;" cx="254" cy="254" r="254"/>
<path style="fill:#84DBFF;" d="M406.4,136.4H268.8c-8.4,0-14.8,6.8-14.8,14.8c0-8.4-6.8-14.8-14.8-14.8H101.6  c-8.4,0-14.8,6.8-14.8,14.8V166v182.4c0,8.4,6.8,14.8,14.8,14.8h137.6c5.2,0,9.6,2.8,12.4,6.8c1.2,1.6,4,1.6,5.2,0  c2.8-4,7.2-6.8,12.4-6.8h137.6c8.4,0,14.8-6.8,14.8-14.8v-182v-14.8C421.6,143.2,414.8,136.4,406.4,136.4z"/>
<path style="fill:#E6E9EE;" d="M403.6,154H264.4c-4.4,0-8,2-10.4,5.6v193.2c2.4-3.2,6-5.6,10.4-5.6h139.2L403.6,154L403.6,154z"/>
<path style="fill:#FFFFFF;" d="M104.4,154h139.2c4.4,0,8,2,10.4,5.6v193.2c-2.4-3.2-6-5.6-10.4-5.6H104.4V154z"/>
<g>
	<rect x="195.2" y="197.6" style="fill:#E6E9EE;" width="44.4" height="8.4"/>
	<rect x="166.8" y="223.6" style="fill:#E6E9EE;" width="72.8" height="8.4"/>
	<rect x="195.2" y="249.2" style="fill:#E6E9EE;" width="44.4" height="8.4"/>
	<rect x="181.6" y="274.8" style="fill:#E6E9EE;" width="58.4" height="8.4"/>
	<rect x="164.4" y="300.8" style="fill:#E6E9EE;" width="75.2" height="8.4"/>
	<rect x="118.8" y="197.6" style="fill:#E6E9EE;" width="72" height="8.4"/>
	<rect x="118.8" y="223.6" style="fill:#E6E9EE;" width="43.6" height="8.4"/>
	<rect x="118.8" y="249.2" style="fill:#E6E9EE;" width="72" height="8.4"/>
	<rect x="118.8" y="274.8" style="fill:#E6E9EE;" width="58.4" height="8.4"/>
	<rect x="118.8" y="300.8" style="fill:#E6E9EE;" width="41.2" height="8.4"/>
</g>
<g>
	<rect x="344.8" y="197.6" style="fill:#ACB3BA;" width="44.4" height="8.4"/>
	<rect x="316.4" y="223.6" style="fill:#ACB3BA;" width="72.8" height="8.4"/>
	<rect x="344.8" y="249.2" style="fill:#ACB3BA;" width="44.4" height="8.4"/>
	<rect x="330.8" y="274.8" style="fill:#ACB3BA;" width="58.4" height="8.4"/>
	<rect x="314" y="300.8" style="fill:#ACB3BA;" width="75.2" height="8.4"/>
	<rect x="268.4" y="197.6" style="fill:#ACB3BA;" width="72" height="8.4"/>
	<rect x="268.4" y="223.6" style="fill:#ACB3BA;" width="43.6" height="8.4"/>
	<rect x="268.4" y="249.2" style="fill:#ACB3BA;" width="72" height="8.4"/>
	<rect x="268.4" y="274.8" style="fill:#ACB3BA;" width="58.4" height="8.4"/>
	<rect x="268.4" y="300.8" style="fill:#ACB3BA;" width="41.2" height="8.4"/>
</g>
<polygon style="fill:#FF7058;" points="204.4,136.4 204.4,240.8 190.4,220.8 177.2,240 177.2,136.4 "/>
<g>
</g>
<g>
</g>
<g>
</g>
<g>
</g>
<g>
</g>
<g>
</g>
<g>
</g>
<g>
</g>
<g>
</g>
<g>
</g>
<g>
</g>
<g>
</g>
<g>
</g>
<g>
</g>
<g>
</g>
</svg>
