<?xml version="1.0" encoding="iso-8859-1"?>
<!-- Generator: Adobe Illustrator 19.0.0, SVG Export Plug-In . SVG Version: 6.00 Build 0)  -->
<svg xmlns="http://www.w3.org/2000/svg" xmlns:xlink="http://www.w3.org/1999/xlink" version="1.1" id="Layer_1" x="0px" y="0px" viewBox="0 0 508 508" style="enable-background:new 0 0 508 508;" xml:space="preserve">
<circle style="fill:#FFD05B;" cx="254" cy="254" r="254"/>
<g>
	<path style="fill:#F1543F;" d="M239.2,166.4h29.6c6,0,10.8-4.8,10.8-10.8s-4.8-10.8-10.8-10.8h-4.4c5.6-9.6,9.6-26,9.6-40   c0-21.2-9.2-29.2-20-29.2c-11.2,0-20,7.6-20,29.2c0,14,4,30,9.6,40h-4.4c-6,0-10.8,4.8-10.8,10.8   C228.4,161.2,233.2,166.4,239.2,166.4z"/>
	<path style="fill:#F1543F;" d="M268.8,341.6h-29.6c-6,0-10.8,4.8-10.8,10.8s4.8,10.8,10.8,10.8h4.4c-5.6,9.6-9.6,26-9.6,40   c0,21.2,9.2,29.2,20,29.2c11.2,0,20-7.6,20-29.2c0-14-4-30-9.6-40h4.4c6,0,10.8-4.8,10.8-10.8C279.6,346.8,274.8,341.6,268.8,341.6   z"/>
	<path style="fill:#F1543F;" d="M403.6,234c-14,0-30,4-40,9.6v-4.4c0-6-4.8-10.8-10.8-10.8s-10.8,4.8-10.8,10.8v29.6   c0,6,4.8,10.8,10.8,10.8l0,0c6,0,10.8-4.8,10.8-10.8v-4.4c9.6,5.6,26,9.6,40,9.6c21.2,0,29.2-9.2,29.2-20   C432.4,242.8,424.8,234,403.6,234z"/>
	<path style="fill:#F1543F;" d="M144.4,268.8c0,6,4.8,10.8,10.8,10.8s10.8-4.8,10.8-10.8v-29.6c0-6-4.8-10.8-10.8-10.8   s-10.8,4.8-10.8,10.8v4.4c-9.6-5.6-26-9.6-40-9.6c-21.2,0-29.2,9.2-29.2,20c0,11.2,7.6,20,29.2,20c14,0,30-4,40-9.6V268.8z"/>
	<path style="fill:#F1543F;" d="M326.4,202.4c4.4,4.4,11.2,4.4,15.6,0s4.4-11.2,0-15.6l-3.2-3.2c10.8-2.8,25.2-11.6,34.8-21.2   c15.2-15.2,14-26.8,6.4-34.8c-8-8-19.6-8.8-34.8,6.4c-10,10-18.8,24-21.2,34.8l-2.8-2.8c-4.4-4.4-11.2-4.4-15.6,0s-4.4,11.2,0,15.6   L326.4,202.4z"/>
	<path style="fill:#F1543F;" d="M181.6,305.6c-4.4-4.4-11.2-4.4-15.6,0c-4.4,4.4-4.4,11.2,0,15.6l3.2,3.2   c-10.8,2.8-25.2,11.6-34.8,21.2c-15.2,15.2-14,26.8-6.4,34.8c8,8,19.6,8.8,34.8-6.4c10-10,18.8-24,21.2-34.8l3.2,3.2   c4.4,4.4,11.2,4.4,15.6,0c4.4-4.4,4.4-11.2,0-15.6L181.6,305.6z"/>
	<path style="fill:#F1543F;" d="M339.2,324l3.2-3.2c4.4-4.4,4.4-11.2,0-15.6s-11.2-4.4-15.6,0L306,326c-4.4,4.4-4.4,11.2,0,15.6   s11.2,4.4,15.6,0l3.2-3.2c2.8,10.8,11.6,25.2,21.2,34.8c15.2,15.2,26.8,14,34.8,6.4c8-8,8.8-19.6-6.4-34.8   C364,335.6,350,326.8,339.2,324z"/>
	<path style="fill:#F1543F;" d="M168.8,184l-2.8,2.8c-4.4,4.4-4.4,11.2,0,15.6c4.4,4.4,11.2,4.4,15.6,0l20.8-20.8   c4.4-4.4,4.4-11.2,0-15.6c-4.4-4.4-11.2-4.4-15.6,0l-3.2,3.2c-2.8-10.8-11.6-25.2-21.2-34.8c-15.2-15.2-26.8-14-34.8-6.4   c-8,8-8.8,19.6,6.4,34.8C144,172.4,158,181.2,168.8,184z"/>
</g>
<circle style="fill:#FF7058;" cx="254" cy="254" r="96"/>
<circle style="fill:#FFFFFF;" cx="254" cy="254" r="70"/>
<g>
	<path style="fill:#324A5E;" d="M254,257.6c-2,0-3.6-1.6-3.6-3.6v-40.8c0-2,1.6-3.6,3.6-3.6s3.6,1.6,3.6,3.6V254   C257.6,256,256,257.6,254,257.6z"/>
	<path style="fill:#324A5E;" d="M282.8,286.4c-0.8,0-2-0.4-2.8-1.2l-28.8-28.8c-1.6-1.6-1.6-4,0-5.2c1.6-1.6,4-1.6,5.2,0l28.8,28.8   c1.6,1.6,1.6,4,0,5.2C284.8,286,283.6,286.4,282.8,286.4z"/>
</g>
<circle style="fill:#54C0EB;" cx="254" cy="254" r="10.8"/>
<g>
	<circle style="fill:#FFFFFF;" cx="254" cy="170.8" r="5.2"/>
	<circle style="fill:#FFFFFF;" cx="254" cy="337.2" r="5.2"/>
	<circle style="fill:#FFFFFF;" cx="337.2" cy="254" r="5.2"/>
	<circle style="fill:#FFFFFF;" cx="170.8" cy="254" r="5.2"/>
	<circle style="fill:#FFFFFF;" cx="312.8" cy="195.2" r="5.2"/>
	<circle style="fill:#FFFFFF;" cx="195.2" cy="312.8" r="5.2"/>
	<circle style="fill:#FFFFFF;" cx="312.8" cy="312.8" r="5.2"/>
	<circle style="fill:#FFFFFF;" cx="195.2" cy="195.2" r="5.2"/>
</g>
<g>
</g>
<g>
</g>
<g>
</g>
<g>
</g>
<g>
</g>
<g>
</g>
<g>
</g>
<g>
</g>
<g>
</g>
<g>
</g>
<g>
</g>
<g>
</g>
<g>
</g>
<g>
</g>
<g>
</g>
</svg>
