<?xml version="1.0" encoding="iso-8859-1"?>
<!-- Generator: Adobe Illustrator 19.0.0, SVG Export Plug-In . SVG Version: 6.00 Build 0)  -->
<svg xmlns="http://www.w3.org/2000/svg" xmlns:xlink="http://www.w3.org/1999/xlink" version="1.1" id="Layer_1" x="0px" y="0px" viewBox="0 0 508 508" style="enable-background:new 0 0 508 508;" xml:space="preserve">
<circle style="fill:#90DFAA;" cx="254" cy="254" r="254"/>
<g>
	
		<ellipse transform="matrix(0.3227 -0.9465 0.9465 0.3227 -54.7729 394.7618)" style="fill:#FFD05B;" cx="248.446" cy="235.652" rx="17.6" ry="9.2"/>
	
		<ellipse transform="matrix(0.3227 0.9465 -0.9465 0.3227 322.92 20.7681)" style="fill:#FFD05B;" cx="146.949" cy="236.018" rx="17.6" ry="9.2"/>
</g>
<path style="fill:#E6E9EE;" d="M391.2,301.2l-5.2,9.2l-0.4,1.2c-2,0.8-4,1.6-6,2c-2,0.8-4,1.2-6,1.6c-0.8,0-1.2,0.4-2,0.4  c-2.4,0.4-4.4,1.2-6.8,1.6s-4.8,0.8-7.6,1.2c-0.4,0-0.4,0-0.8,0s-1.2,0-2,0c-2.4,0-4.8,0.4-7.6,0.4c-2.4,0-5.2,0-7.6-0.4  c-0.8,0-1.2,0-2,0c-0.4,0-0.4,0-0.8,0c-2.4-0.4-5.2-0.4-7.6-1.2c-10.8-2-20.8-5.2-30-10c-3.6-14-7.2-29.2-5.2-31.6  c3.2-4,16-21.2,16-21.2l4.8-1.2l10-2.8l1.6-0.4h0.4l1.6-0.4l6.8-2l11.6-3.2l12,3.2l6.8,1.6l1.2,0.4h0.8l1.6,0.4l10.8,2.8l8.4,2  L391.2,301.2z"/>
<path style="fill:#FF7058;" d="M355.6,314l0.8,4.4c-0.4,0-1.2,0-2,0c-2.4,0-4.8,0.4-7.6,0.4c-2.4,0-5.2,0-7.6-0.4c-0.8,0-1.2,0-2,0  l0.8-4.4l6.8-38.8l-6.8-9.6l-7.2-8.8h32.4l-7.2,8.8l-7.6,9.6L355.6,314z"/>
<path style="fill:#F9B54C;" d="M367.6,239.6c0,15.2-9.2,17.2-20.4,17.2c-11.2,0-20.4-2.4-20.4-17.2c0-15.2,9.2-39.2,20.4-39.2  C358.4,200,367.6,224.4,367.6,239.6z"/>
<g>
	<path style="fill:#2B3B4E;" d="M294,304.4c-8.8-5.2-16.4-11.6-23.2-18.8c-2.8-3.2-5.6-6.4-8-10c0.8-6.8,1.2-11.2,1.2-11.2l0,0   c0.8,0.4,13.2,8,18.8,8C286.4,272,292.8,288.4,294,304.4z"/>
	<path style="fill:#2B3B4E;" d="M337.2,318.4c-2.4-0.4-5.2-0.4-7.6-1.2c-10.8-2-20.8-5.2-30-10c-2-0.8-3.6-2-5.6-3.2   c-8.8-5.2-16.4-11.6-23.2-18.8c-4-12.8-6.8-20.8-6.8-21.2l0,0c35.2-9.2,50.8-18.4,57.2-24c3.6-2.8,4.4-4.8,4.4-4.8   c0,0.4,0,0.8,0,0.8c0.4,4.8,0.4,9.2,0.8,14c0.4,2.8,0.4,5.6,0.8,8.4C329.6,282,333.2,302,337.2,318.4z"/>
	<path style="fill:#2B3B4E;" d="M340,318.8c-0.8,0-1.2,0-2,0c-0.4,0-0.4,0-0.8,0c-2.4-0.4-5.2-0.4-7.6-1.2c-10-26.8-19.6-54-19.6-54   l9.6-5.2l-4.8-4.8l-0.8-0.8c1.6-4.8,4.4-9.2,6.8-12.4c2.4-3.6,4.8-6.4,6-7.6l0,0c0.4-0.4,0.8-0.8,0.8-0.8v0.4c0,0.4,0,0.4-0.4,0.8   c-0.8,2.4-0.8,5.6-0.8,9.6l0,0c0,2.4,0,4.8,0.4,7.2c0.4,3.6,0.8,7.2,1.2,11.6l0,0c2,15.6,6,35.2,10,52.8   C339.2,315.6,339.6,317.2,340,318.8z"/>
	<path style="fill:#2B3B4E;" d="M431.6,275.2c-2.4,3.6-5.2,6.8-8,10c-6.8,7.2-14.4,13.6-23.2,18.8c1.2-16,7.6-32,11.2-32   c5.6,0,18-7.6,18.8-8l0,0C430.4,264,431.2,268.4,431.6,275.2z"/>
	<path style="fill:#2B3B4E;" d="M430.4,264L430.4,264c0,0.4-3.2,8.8-6.8,21.2c-6.8,7.2-14.4,13.6-23.2,18.8   c-4.4,2.8-9.2,5.2-13.6,6.8c-0.4,0.4-0.8,0.4-1.2,0.4c-2,0.8-4,1.6-6,2c-2,0.8-4,1.2-6,1.6c-0.8,0-1.2,0.4-2,0.4   c-2.4,0.4-4.4,1.2-6.8,1.6s-4.8,0.8-7.6,1.2c3.6-16.4,7.6-36.8,10-60c0.4-2.8,0.4-6,0.8-8.8c0.4-4.4,0.8-8.8,0.8-13.2l0,0   c0-0.4,0-0.8,0-0.8s0.8,2,4.4,4.8C380,245.6,395.6,254.8,430.4,264z"/>
	<path style="fill:#2B3B4E;" d="M384.4,263.2c0,0-9.2,27.2-19.6,54c-2.4,0.4-4.8,0.8-7.6,1.2c-0.4,0-0.4,0-0.8,0s-1.2,0-2,0   c0.4-1.6,0.8-3.2,1.2-4.4c4-17.6,8-37.2,10-52.8l0,0c0.4-4.4,1.2-8.4,1.2-12c0.4-2.4,0.4-4.8,0.4-7.2c0,0,0,0,0-0.4l0,0   c0-3.6,0-6.8-0.8-9.2l0,0c0-0.4,0-0.4,0-0.8v-0.4l0.4,0.4c0,0,0,0,0,0.4c1.2,1.2,3.6,4,6,7.6s5.2,7.6,6.8,12.4l0,0l-5.6,5.6   L384.4,263.2z"/>
</g>
<g>
	<ellipse style="fill:#FFD05B;" cx="347.2" cy="196" rx="35.2" ry="44.4"/>
	
		<ellipse transform="matrix(0.3227 -0.9465 0.9465 0.3227 76.1211 492.7258)" style="fill:#FFD05B;" cx="382.344" cy="193.175" rx="12" ry="6.4"/>
	
		<ellipse transform="matrix(0.3227 0.9465 -0.9465 0.3227 393.8295 -164.6601)" style="fill:#FFD05B;" cx="311.968" cy="192.851" rx="12" ry="6.4"/>
</g>
<path style="fill:#324A5E;" d="M315.2,202.4c-18-38,7.2-50.4,7.2-50.4l-12,6.8c36-43.2,62-8,62-8c25.2,19.6,8.8,48.8,8.8,48.8  s-2.8-21.2-13.6-30.8c0,0-12.8,14.4-42.4,1.2c0,0-6.8,10.4-4.4,24.8c0,0-2.8-2-4-9.2C316.8,185.2,313.2,194.8,315.2,202.4  L315.2,202.4z"/>
<g>
	<path style="fill:#FFFFFF;" d="M328,231.6c0,0,2.8,17.6,19.2,25.2c0,0-10.8,8.4-12.8,15.2C334.4,272,316.8,246.8,328,231.6z"/>
	<path style="fill:#FFFFFF;" d="M366.4,231.6c0,0-2.8,17.6-19.2,25.2c0,0,10.8,8.4,12.8,15.2C360,272,377.6,246.8,366.4,231.6z"/>
</g>
<path style="fill:#2B3B4E;" d="M386.8,311.2c-0.4,0.4-0.8,0.4-1.2,0.4c-2,0.8-4,1.6-6,2l4.8-4.8L386.8,311.2z"/>
<g>
	<ellipse style="fill:#324A5E;" cx="197.6" cy="240" rx="50.8" ry="63.6"/>
	<path style="fill:#324A5E;" d="M151.6,249.2c-26-54.4,10.4-72.4,10.4-72.4l-17.2,9.6c52-62.4,89.2-11.2,89.2-11.2   c36,28,12.8,70,12.8,70s-4-30.8-19.6-44.4c0,0-18.4,20.8-61.2,1.6c0,0-10,15.2-6.4,35.2c0,0-4.4-2.8-5.6-13.2   C154,224.4,148.8,238.4,151.6,249.2L151.6,249.2z"/>
	<path style="fill:#324A5E;" d="M317.2,337.6c-50.4-13.6-72.8-26.4-82-34.4H160c-9.2,7.6-31.6,20.8-82,34.4c0,0-0.8,6-1.6,16   c3.6,5.2,7.6,10,11.6,14.4c9.6,10.4,20.8,19.6,33.2,27.2c2.4,1.6,5.2,3.2,8,4.4c13.2,6.8,28,12,43.2,14.4c3.6,0.4,7.2,1.2,10.8,1.6   c0.4,0,0.8,0,1.2,0c0.8,0,1.6,0,2.8,0.4c3.6,0.4,7.2,0.4,10.8,0.4s7.2,0,10.8-0.4c0.8,0,1.6,0,2.4-0.4c0.4,0,0.8,0,1.2,0   c3.6-0.4,7.2-0.8,10.8-1.6c3.2-0.4,6.8-1.2,10-2c0.8,0,1.6-0.4,2.8-0.8c2.8-0.8,5.6-1.6,8.4-2.4c2.8-0.8,6-2,8.8-3.2   c0.4-0.4,1.2-0.4,1.6-0.8c6.8-2.8,13.6-6,20-10c12.4-7.2,23.6-16.4,33.2-27.2c4-4.4,8-9.6,11.6-14.4   C318,344,317.2,337.6,317.2,337.6z"/>
</g>
<g>
	<path style="fill:#FFFFFF;" d="M226.8,292.8h-58.4c-1.6,2-4.8,5.6-8.4,10.4h75.2C232,298.4,228.8,294.8,226.8,292.8z"/>
	<path style="fill:#FFFFFF;" d="M308,150.4c-11.6-2-21.2-7.6-28.4-15.2c6.8-4.8,10.8-10.8,10.8-17.2c0-14.8-20-26.8-44.8-26.8   s-44.8,12-44.8,26.8s20,26.8,44.8,26.8c6.8,0,13.2-0.8,18.8-2.4C278,150.8,293.6,153.6,308,150.4z"/>
</g>
<g>
	<circle style="fill:#84DBFF;" cx="222" cy="117.6" r="7.2"/>
	<circle style="fill:#84DBFF;" cx="245.2" cy="117.6" r="7.2"/>
	<circle style="fill:#84DBFF;" cx="268" cy="117.6" r="7.2"/>
</g>
<g>
</g>
<g>
</g>
<g>
</g>
<g>
</g>
<g>
</g>
<g>
</g>
<g>
</g>
<g>
</g>
<g>
</g>
<g>
</g>
<g>
</g>
<g>
</g>
<g>
</g>
<g>
</g>
<g>
</g>
</svg>
