<?xml version="1.0" encoding="iso-8859-1"?>
<!-- Generator: Adobe Illustrator 19.0.0, SVG Export Plug-In . SVG Version: 6.00 Build 0)  -->
<svg xmlns="http://www.w3.org/2000/svg" xmlns:xlink="http://www.w3.org/1999/xlink" version="1.1" id="Layer_1" x="0px" y="0px" viewBox="0 0 508 508" style="enable-background:new 0 0 508 508;" xml:space="preserve">
<circle style="fill:#324A5E;" cx="254" cy="254" r="254"/>
<path style="fill:#F9B54C;" d="M395.6,146.4c0-7.6-6-13.6-13.6-13.6h-78.4c-2.8,0-5.6,0.8-8,2.4l-30.4,21.6c-2.4,1.6-5.2,2.4-8,2.4  h-142c-7.6,0-13.6,6-13.6,13.6v202.4c0,7.6,6,13.6,13.6,13.6H382c7.6,0,13.6-6,13.6-13.6V146.4z"/>
<rect x="145.6" y="82.8" style="fill:#FFFFFF;" width="205.6" height="233.6"/>
<path style="fill:#FFD05B;" d="M417.2,230.8H293.6c-3.6,0-7.2,1.2-10,4L236.4,276c-2.4,2-5.6,3.2-9.2,3.2H90  c-7.6,0-12.4,5.6-10.8,12.8l19.6,86c1.6,6,8.8,11.2,16,11.2h266.8c7.6,0,14.8-4.8,16-11.2L428,244.8  C430.4,237.2,425.6,230.8,417.2,230.8z"/>
<g>
	<rect x="171.2" y="112.8" style="fill:#84DBFF;" width="154.8" height="11.6"/>
	<rect x="171.2" y="141.6" style="fill:#84DBFF;" width="154.8" height="11.6"/>
	<rect x="171.2" y="170.8" style="fill:#84DBFF;" width="154.8" height="11.6"/>
	<rect x="171.2" y="200" style="fill:#84DBFF;" width="154.8" height="11.6"/>
	<rect x="171.2" y="228.8" style="fill:#84DBFF;" width="77.6" height="11.6"/>
</g>
<g>
</g>
<g>
</g>
<g>
</g>
<g>
</g>
<g>
</g>
<g>
</g>
<g>
</g>
<g>
</g>
<g>
</g>
<g>
</g>
<g>
</g>
<g>
</g>
<g>
</g>
<g>
</g>
<g>
</g>
</svg>
