<?xml version="1.0" encoding="iso-8859-1"?>
<!-- Generator: Adobe Illustrator 19.0.0, SVG Export Plug-In . SVG Version: 6.00 Build 0)  -->
<svg xmlns="http://www.w3.org/2000/svg" xmlns:xlink="http://www.w3.org/1999/xlink" version="1.1" id="Layer_1" x="0px" y="0px" viewBox="0 0 508 508" style="enable-background:new 0 0 508 508;" xml:space="preserve">
<circle style="fill:#324A5E;" cx="254" cy="254" r="254"/>
<path style="fill:#FFFFFF;" d="M375.6,88.8c5.2,0,9.6,4.4,9.6,9.6v311.2c0,5.2-4.4,9.6-9.6,9.6H132.4c-5.2,0-9.6-4.4-9.6-9.6V98.4  c0-5.2,4.4-9.6,9.6-9.6H375.6z"/>
<rect x="153.6" y="182.8" style="fill:#84DBFF;" width="42.4" height="42.4"/>
<rect x="153.6" y="264.8" style="fill:#FFD05B;" width="42.4" height="42.4"/>
<rect x="153.6" y="346.4" style="fill:#ACB3BA;" width="42.4" height="42.4"/>
<g>
	<rect x="212.4" y="182.8" style="fill:#E6E9EE;" width="144" height="10.4"/>
	<rect x="212.4" y="204" style="fill:#E6E9EE;" width="79.6" height="10.4"/>
	<rect x="212.4" y="264.8" style="fill:#E6E9EE;" width="144" height="10.4"/>
	<rect x="212.4" y="285.6" style="fill:#E6E9EE;" width="79.6" height="10.4"/>
	<rect x="212.4" y="346.4" style="fill:#E6E9EE;" width="144" height="10.4"/>
	<rect x="212.4" y="367.6" style="fill:#E6E9EE;" width="79.6" height="10.4"/>
</g>
<g>
</g>
<g>
</g>
<g>
</g>
<g>
</g>
<g>
</g>
<g>
</g>
<g>
</g>
<g>
</g>
<g>
</g>
<g>
</g>
<g>
</g>
<g>
</g>
<g>
</g>
<g>
</g>
<g>
</g>
</svg>
