<?xml version="1.0" encoding="iso-8859-1"?>
<!-- Generator: Adobe Illustrator 19.0.0, SVG Export Plug-In . SVG Version: 6.00 Build 0)  -->
<svg xmlns="http://www.w3.org/2000/svg" xmlns:xlink="http://www.w3.org/1999/xlink" version="1.1" id="Layer_1" x="0px" y="0px" viewBox="0 0 508 508" style="enable-background:new 0 0 508 508;" xml:space="preserve">
<circle style="fill:#324A5E;" cx="254" cy="254" r="254"/>
<path style="fill:#FFFFFF;" d="M391.6,113.2H116.4c-9.6,0-17.2,7.6-17.2,17.2v247.2c0,9.6,7.6,17.2,17.2,17.2h275.2  c9.6,0,17.2-7.6,17.2-17.2V130.4C408.8,120.8,401.2,113.2,391.6,113.2z"/>
<path style="fill:#54C0EB;" d="M391.6,113.2H116.4c-9.6,0-17.2,7.6-17.2,17.2v42.8h309.6v-42.8C408.8,120.8,401.2,113.2,391.6,113.2  z"/>
<g>
	<rect x="124" y="247.2" style="fill:#E6E9EE;" width="27.2" height="23.6"/>
	<rect x="124" y="292" style="fill:#E6E9EE;" width="27.2" height="23.6"/>
	<rect x="124" y="336.8" style="fill:#E6E9EE;" width="27.2" height="23.6"/>
	<rect x="168" y="202.4" style="fill:#E6E9EE;" width="27.2" height="23.6"/>
	<rect x="168" y="247.2" style="fill:#E6E9EE;" width="27.2" height="23.6"/>
</g>
<rect x="168" y="292" style="fill:#FFD05B;" width="27.2" height="23.6"/>
<g>
	<rect x="168" y="336.8" style="fill:#E6E9EE;" width="27.2" height="23.6"/>
	<rect x="212.4" y="202.4" style="fill:#E6E9EE;" width="27.2" height="23.6"/>
	<rect x="212.4" y="247.2" style="fill:#E6E9EE;" width="27.2" height="23.6"/>
	<rect x="212.4" y="292" style="fill:#E6E9EE;" width="27.2" height="23.6"/>
	<rect x="212.4" y="336.8" style="fill:#E6E9EE;" width="27.2" height="23.6"/>
	<rect x="256.4" y="202.4" style="fill:#E6E9EE;" width="27.2" height="23.6"/>
	<rect x="256.4" y="247.2" style="fill:#E6E9EE;" width="27.2" height="23.6"/>
</g>
<g>
	<path style="fill:#4CDBC4;" d="M333.6,218.8v4.8H322v5.6h11.2v4.8H322v10h-5.6v-25.2H333.6z"/>
	<path style="fill:#4CDBC4;" d="M358.8,227.2c0,4-1.6,6.8-4.8,7.6l6.4,8.8h-6.8l-5.6-8h-4v8h-5.6v-25.2h9.6c4,0,6.8,0.8,8.4,2   C358,222,358.8,224,358.8,227.2z M352,230c0.8-0.8,1.2-1.6,1.2-2.8s-0.4-2.4-1.2-2.8c-0.8-0.4-2-0.8-3.6-0.8H344v7.6h4   C350,230.8,351.2,230.8,352,230z"/>
	<path style="fill:#4CDBC4;" d="M364.4,218.8h5.6V244h-5.6V218.8z"/>
</g>
<g>
	<path style="fill:#FF7058;" d="M298.4,292H326v68.4h-14.8v-55.6h-12.8L298.4,292L298.4,292z"/>
	<path style="fill:#FF7058;" d="M384,292v13.2h-26.8v11.6c2-0.4,4.4-0.8,6.8-0.8c6.4,0,12.4,2,17.2,6c4.8,4,7.2,9.2,7.2,16   s-2.4,12.4-7.2,16.8c-4.8,4.4-10.8,6.4-18.4,6.4c-9.2,0-16.8-3.6-23.2-10.4l8-11.2c0.4,0.4,1.2,1.2,2.4,2c0.8,0.8,2.8,2,5.2,3.2   c2.8,1.6,5.2,2,8,2s4.8-0.8,6.8-2.4s3.2-4,3.2-6.8c0-3.2-1.2-5.6-3.2-7.2s-4.8-2.4-8.4-2.4s-7.6,1.2-12,3.6l-6.4-6.8v-33.2H384V292   z"/>
</g>
<g>
	<path style="fill:#FFFFFF;" d="M197.2,139.2l-8.4,17.2h-4.4l-8.4-17.2v20h-7.2v-31.6h9.6l8,17.6l8.4-17.6h9.6v31.6h-7.2   L197.2,139.2L197.2,139.2z"/>
	<path style="fill:#FFFFFF;" d="M234.8,159.2l-2.8-6.8h-13.2l-2.8,6.8h-7.6l13.6-31.6h6.8l13.6,31.6H234.8z M225.2,137.2l-4,9.2h8   L225.2,137.2z"/>
	<path style="fill:#FFFFFF;" d="M271.6,138c0,5.2-2,8.4-6,10l8,11.2h-8.8l-6.8-10h-4.8v10H246v-31.6h12c4.8,0,8.4,0.8,10.4,2.4   C270.8,131.6,271.6,134.4,271.6,138z M263.2,142c0.8-0.8,1.2-2,1.2-3.6s-0.4-2.8-1.2-3.6c-0.8-0.8-2.4-0.8-4.8-0.8h-5.2v9.2h5.2   C260.8,143.2,262.4,142.8,263.2,142z"/>
	<path style="fill:#FFFFFF;" d="M293.6,153.2c3.6,0,6.4-1.2,8.4-4l4.4,4.8c-3.6,4-8,6-12.8,6s-8.8-1.6-12-4.8s-4.8-6.8-4.8-11.6   s1.6-8.8,4.8-11.6c3.2-3.2,7.2-4.8,12-4.8c5.2,0,9.6,2,13.2,6l-4.4,4.8c-2.4-2.8-5.2-4-8.4-4c-2.8,0-4.8,0.8-6.8,2.8   c-2,1.6-2.8,4-2.8,7.2c0,2.8,0.8,5.2,2.8,7.2C288.8,152,291.2,153.2,293.6,153.2z"/>
	<path style="fill:#FFFFFF;" d="M332,127.6h7.2v31.6H332v-12.4h-12.8v12.4H312v-31.6h7.2v13.2H332V127.6z"/>
</g>
<g>
</g>
<g>
</g>
<g>
</g>
<g>
</g>
<g>
</g>
<g>
</g>
<g>
</g>
<g>
</g>
<g>
</g>
<g>
</g>
<g>
</g>
<g>
</g>
<g>
</g>
<g>
</g>
<g>
</g>
</svg>
