<?xml version="1.0" encoding="iso-8859-1"?>
<!-- Generator: Adobe Illustrator 19.0.0, SVG Export Plug-In . SVG Version: 6.00 Build 0)  -->
<svg xmlns="http://www.w3.org/2000/svg" xmlns:xlink="http://www.w3.org/1999/xlink" version="1.1" id="Layer_1" x="0px" y="0px" viewBox="0 0 508 508" style="enable-background:new 0 0 508 508;" xml:space="preserve">
<circle style="fill:#84DBFF;" cx="254" cy="254" r="254"/>
<path style="fill:#324A5E;" d="M376,427.6H132c-6,0-11.2-4.8-11.2-11.2V103.6c0-6,4.8-11.2,11.2-11.2h244.4c6,0,11.2,4.8,11.2,11.2  v312.8C387.2,422.8,382.4,427.6,376,427.6z"/>
<polygon style="fill:#FFFFFF;" points="140.4,112.4 140.4,370.8 335.6,370.8 335.6,338.8 367.6,338.8 367.6,112.4 "/>
<polygon style="fill:#E6E9EE;" points="335.6,370.8 367.6,338.8 335.6,338.8 "/>
<g>
	<rect x="168.8" y="154.8" style="fill:#FF7058;" width="10" height="9.6"/>
	<rect x="168.8" y="182.4" style="fill:#FF7058;" width="10" height="9.6"/>
	<rect x="168.8" y="210" style="fill:#FF7058;" width="10" height="9.6"/>
	<rect x="168.8" y="238" style="fill:#FF7058;" width="10" height="9.6"/>
	<rect x="168.8" y="265.6" style="fill:#FF7058;" width="10" height="9.6"/>
	<rect x="168.8" y="293.2" style="fill:#FF7058;" width="10" height="9.6"/>
</g>
<g>
	<rect x="195.6" y="154.8" style="fill:#E6E9EE;" width="143.6" height="9.6"/>
	<rect x="195.6" y="182.4" style="fill:#E6E9EE;" width="143.6" height="9.6"/>
	<rect x="195.6" y="210" style="fill:#E6E9EE;" width="143.6" height="9.6"/>
	<rect x="195.6" y="238" style="fill:#E6E9EE;" width="143.6" height="9.6"/>
	<rect x="195.6" y="265.6" style="fill:#E6E9EE;" width="143.6" height="9.6"/>
	<rect x="195.6" y="293.2" style="fill:#E6E9EE;" width="79.6" height="9.6"/>
</g>
<g>
	<polygon style="fill:#FF7058;" points="335.6,121.6 172.4,121.6 188,83.6 320,83.6  "/>
	<path style="fill:#FF7058;" d="M284,89.6h-60V78.8c0-16.4,13.2-30,30-30l0,0c16.4,0,30,13.2,30,30V89.6z"/>
</g>
<circle style="fill:#FFFFFF;" cx="254" cy="76.8" r="11.6"/>
<g>
</g>
<g>
</g>
<g>
</g>
<g>
</g>
<g>
</g>
<g>
</g>
<g>
</g>
<g>
</g>
<g>
</g>
<g>
</g>
<g>
</g>
<g>
</g>
<g>
</g>
<g>
</g>
<g>
</g>
</svg>
