<?xml version="1.0" encoding="iso-8859-1"?>
<!-- Generator: Adobe Illustrator 19.0.0, SVG Export Plug-In . SVG Version: 6.00 Build 0)  -->
<svg xmlns="http://www.w3.org/2000/svg" xmlns:xlink="http://www.w3.org/1999/xlink" version="1.1" id="Layer_1" x="0px" y="0px" viewBox="0 0 508 508" style="enable-background:new 0 0 508 508;" xml:space="preserve">
<circle style="fill:#90DFAA;" cx="254" cy="254" r="254"/>
<path style="fill:#FFFFFF;" d="M280,135.6l-4,7.2c-6,11.2-18,18.4-31.2,18.4h-128c-19.6,0-35.6,16-35.6,35.6v154.8  c0,19.6,16,35.6,35.6,35.6h274.4c19.6,0,35.6-16,35.6-35.6V152.4c0-19.6-16-35.6-35.6-35.6h-80C298,116.8,286,124,280,135.6z"/>
<g>
	<circle style="fill:#54C0EB;" cx="175.2" cy="232.8" r="26"/>
	<path style="fill:#54C0EB;" d="M234,344.4c0.4-3.2,0.8-6,0.8-9.2c0-33.2-26.8-59.6-59.6-59.6c-33.2,0-59.6,26.8-59.6,59.6   c0,3.2,0.4,6,0.8,9.2H234z"/>
</g>
<g>
	<rect x="274" y="217.6" style="fill:#E6E9EE;" width="115.2" height="14"/>
	<rect x="274" y="251.6" style="fill:#E6E9EE;" width="115.2" height="14"/>
	<rect x="274" y="285.6" style="fill:#E6E9EE;" width="115.2" height="14"/>
	<rect x="274" y="319.6" style="fill:#E6E9EE;" width="115.2" height="14"/>
</g>
<g>
</g>
<g>
</g>
<g>
</g>
<g>
</g>
<g>
</g>
<g>
</g>
<g>
</g>
<g>
</g>
<g>
</g>
<g>
</g>
<g>
</g>
<g>
</g>
<g>
</g>
<g>
</g>
<g>
</g>
</svg>
