<?xml version="1.0" encoding="iso-8859-1"?>
<!-- Generator: Adobe Illustrator 19.0.0, SVG Export Plug-In . SVG Version: 6.00 Build 0)  -->
<svg xmlns="http://www.w3.org/2000/svg" xmlns:xlink="http://www.w3.org/1999/xlink" version="1.1" id="Layer_1" x="0px" y="0px" viewBox="0 0 508 508" style="enable-background:new 0 0 508 508;" xml:space="preserve">
<circle style="fill:#FD8469;" cx="254" cy="254" r="254"/>
<g>
	<path style="fill:#E6E9EE;" d="M384.8,412.4H123.2c-9.2,0-16.8-7.6-16.8-16.8V204.8h295.2v190.4C401.6,404.8,394,412.4,384.8,412.4   z"/>
	<path style="fill:#E6E9EE;" d="M106.4,204.8v190.8c0,4.8,2,8.8,5.2,12c3.2,2.8,7.2,4.8,11.6,4.8h261.6c4.4,0,8.8-2,11.6-4.8   c3.2-3.2,5.2-7.2,5.2-12V204.8H106.4z"/>
</g>
<path style="fill:#ACB3BA;" d="M396.8,407.6c-3.2,2.8-7.2,4.8-11.6,4.8h-262c-4.8,0-8.8-2-11.6-4.8L254,274L396.8,407.6z"/>
<path style="fill:#324A5E;" d="M243.6,99.2L106.4,204.8l0,0l137.6,106c6,4.8,14.4,4.8,20.4,0l137.6-106L264.4,99.2  C258.4,94.4,249.6,94.4,243.6,99.2z"/>
<path style="fill:#FFFFFF;" d="M349.2,150v95.2l-44.4,34h-102l-44.4-34v-70.8c0-10.8,8.8-19.6,19.6-19.6h70.4  c7.2,0,13.6-4,17.2-10.4l2-4c3.6-6.4,10-10.4,17.2-10.4h44C340.4,130.4,349.2,139.2,349.2,150z"/>
<g>
	<circle style="fill:#54C0EB;" cx="210.4" cy="194.4" r="14.4"/>
	<path style="fill:#54C0EB;" d="M242.8,255.6c0.4-1.6,0.4-3.2,0.4-5.2c0-18.4-14.8-32.8-32.8-32.8c-18.4,0-32.8,14.8-32.8,32.8   c0,1.6,0,3.6,0.4,5.2H242.8z"/>
</g>
<g>
	<rect x="264.8" y="185.6" style="fill:#E6E9EE;" width="63.6" height="7.6"/>
	<rect x="264.8" y="204.4" style="fill:#E6E9EE;" width="63.6" height="7.6"/>
	<rect x="264.8" y="223.2" style="fill:#E6E9EE;" width="63.6" height="7.6"/>
	<rect x="264.8" y="242" style="fill:#E6E9EE;" width="63.6" height="7.6"/>
</g>
<g>
</g>
<g>
</g>
<g>
</g>
<g>
</g>
<g>
</g>
<g>
</g>
<g>
</g>
<g>
</g>
<g>
</g>
<g>
</g>
<g>
</g>
<g>
</g>
<g>
</g>
<g>
</g>
<g>
</g>
</svg>
