<?xml version="1.0" encoding="iso-8859-1"?>
<!-- Generator: Adobe Illustrator 19.0.0, SVG Export Plug-In . SVG Version: 6.00 Build 0)  -->
<svg xmlns="http://www.w3.org/2000/svg" xmlns:xlink="http://www.w3.org/1999/xlink" version="1.1" id="Layer_1" x="0px" y="0px" viewBox="0 0 508 508" style="enable-background:new 0 0 508 508;" xml:space="preserve">
<circle style="fill:#FFD05B;" cx="254" cy="254" r="254"/>
<path style="fill:#FF7058;" d="M379.6,92H128.4c-8,0-14.8,6.4-14.8,14.8v307.6c0,8,6.4,14.8,14.8,14.8h251.2c8,0,14.8-6.4,14.8-14.8  V106.8C394.4,98.8,387.6,92,379.6,92z"/>
<polygon style="fill:#FFFFFF;" points="137.2,107.2 137.2,377.6 328.4,377.6 328.4,335.2 370.8,335.2 370.8,107.2 "/>
<g>
	<polygon style="fill:#E6E9EE;" points="328.4,377.6 370.8,335.2 328.4,335.2  "/>
	<rect x="178.4" y="78.8" style="fill:#E6E9EE;" width="150.8" height="38.8"/>
</g>
<g>
	<rect x="163.6" y="148.8" style="fill:#84DBFF;" width="181.2" height="12"/>
	<rect x="163.6" y="180" style="fill:#84DBFF;" width="181.2" height="12"/>
	<rect x="163.6" y="211.6" style="fill:#84DBFF;" width="181.2" height="12"/>
	<rect x="163.6" y="242.8" style="fill:#84DBFF;" width="181.2" height="12"/>
	<rect x="163.6" y="274" style="fill:#84DBFF;" width="113.2" height="12"/>
</g>
<g>
</g>
<g>
</g>
<g>
</g>
<g>
</g>
<g>
</g>
<g>
</g>
<g>
</g>
<g>
</g>
<g>
</g>
<g>
</g>
<g>
</g>
<g>
</g>
<g>
</g>
<g>
</g>
<g>
</g>
</svg>
