<?xml version="1.0" encoding="iso-8859-1"?>
<!-- Generator: Adobe Illustrator 19.0.0, SVG Export Plug-In . SVG Version: 6.00 Build 0)  -->
<svg xmlns="http://www.w3.org/2000/svg" xmlns:xlink="http://www.w3.org/1999/xlink" version="1.1" id="Layer_1" x="0px" y="0px" viewBox="0 0 508 508" style="enable-background:new 0 0 508 508;" xml:space="preserve">
<path style="fill:#FD8469;" d="M0.2,254c0,91.6,48.4,171.6,120.8,216.4c9.6,6,20,11.6,30.4,16c31.2,14,66,21.6,102.8,21.6  c36.4,0,71.2-7.6,102.4-21.6c10.4-4.8,20.8-10,30.4-16c72.4-44.8,120.8-124.8,120.8-216.4c0-140.4-113.6-254-254-254  C113.8,0,0.2,113.6,0.2,254z"/>
<g>
	<circle style="fill:#FFFFFF;" cx="249.8" cy="95.6" r="26"/>
	<path style="fill:#FFFFFF;" d="M199.8,179.2c13.2,12,30.8,19.2,50,19.2s36.8-7.2,50-19.2c-2-26-23.6-46.4-50-46.4   C223.4,132.8,201.8,153.2,199.8,179.2z"/>
	<circle style="fill:#FFFFFF;" cx="160.2" cy="201.6" r="19.2"/>
	<path style="fill:#FFFFFF;" d="M123.4,262.8c9.6,8.8,22.4,14,36.8,14c14,0,26.8-5.2,36.8-14c-1.6-19.2-17.2-34-36.8-34   C141,228.8,125,243.6,123.4,262.8z"/>
	<circle style="fill:#FFFFFF;" cx="348.2" cy="201.6" r="19.2"/>
	<path style="fill:#FFFFFF;" d="M311.4,262.8c9.6,8.8,22.4,14,36.8,14c14,0,26.8-5.2,36.8-14c-1.6-19.2-17.2-34-36.8-34   C329,228.8,313,243.6,311.4,262.8z"/>
	<circle style="fill:#FFFFFF;" cx="112.6" cy="319.6" r="12.8"/>
	<path style="fill:#FFFFFF;" d="M88.2,360.4c6.4,5.6,14.8,9.2,24.4,9.2c9.2,0,18-3.6,24.4-9.2c-0.8-12.8-11.6-22.4-24.4-22.4   C99.8,337.6,89.4,347.6,88.2,360.4z"/>
	<circle style="fill:#FFFFFF;" cx="207.8" cy="319.6" r="12.8"/>
	<path style="fill:#FFFFFF;" d="M183.4,360.4c6.4,5.6,14.8,9.2,24.4,9.2c9.2,0,18-3.6,24.4-9.2c-0.8-12.8-11.6-22.4-24.4-22.4   C195,337.6,184.2,347.6,183.4,360.4z"/>
	<circle style="fill:#FFFFFF;" cx="300.6" cy="319.6" r="12.8"/>
	<path style="fill:#FFFFFF;" d="M276.2,360.4c6.4,5.6,14.8,9.2,24.4,9.2c9.2,0,18-3.6,24.4-9.2c-0.8-12.8-11.6-22.4-24.4-22.4   C287.8,337.6,277.4,347.6,276.2,360.4z"/>
	<circle style="fill:#FFFFFF;" cx="395.8" cy="319.6" r="12.8"/>
	<path style="fill:#FFFFFF;" d="M371.4,360.4c6.4,5.6,14.8,9.2,24.4,9.2c9.2,0,18-3.6,24.4-9.2c-0.8-12.8-11.6-22.4-24.4-22.4   C383,337.6,372.2,347.6,371.4,360.4z"/>
</g>
<g>
	<path style="fill:#324A5E;" d="M217.8,252l27.6-17.6v-15.2c0-2.4,2-4,4-4c2.4,0,4,2,4,4v15.2L281,252c2,1.2,2.4,3.6,1.2,5.6   c-0.8,1.2-2,2-3.6,2c-0.8,0-1.6-0.4-2-0.8L249,241.6l-26.8,17.6c-2,1.2-4.4,0.8-5.6-1.2C215.4,256,215.8,253.2,217.8,252z"/>
	<path style="fill:#324A5E;" d="M136.2,315.2l20-12.4v-10.4c0-2.4,2-4,4-4c2.4,0,4,2,4,4v10.4l20,12.4c2,1.2,2.4,3.6,1.2,5.6   c-0.8,1.2-2,2-3.6,2c-0.8,0-1.6-0.4-2-0.8l-19.6-12.4L140.6,322c-2,1.2-4.4,0.8-5.6-1.2C133.8,318.8,134.2,316.4,136.2,315.2z"/>
	<path style="fill:#324A5E;" d="M324.2,315.2l20-12.4v-10.4c0-2.4,2-4,4-4c2.4,0,4,2,4,4v10.4l20,12.4c2,1.2,2.4,3.6,1.2,5.6   c-0.8,1.2-2,2-3.6,2c-0.8,0-1.6-0.4-2-0.8l-19.6-12.4L328.6,322c-2,1.2-4.4,0.8-5.6-1.2C321.8,318.8,322.2,316.4,324.2,315.2z"/>
</g>
<g>
</g>
<g>
</g>
<g>
</g>
<g>
</g>
<g>
</g>
<g>
</g>
<g>
</g>
<g>
</g>
<g>
</g>
<g>
</g>
<g>
</g>
<g>
</g>
<g>
</g>
<g>
</g>
<g>
</g>
</svg>
