<?xml version="1.0" encoding="iso-8859-1"?>
<!-- Generator: Adobe Illustrator 19.0.0, SVG Export Plug-In . SVG Version: 6.00 Build 0)  -->
<svg xmlns="http://www.w3.org/2000/svg" xmlns:xlink="http://www.w3.org/1999/xlink" version="1.1" id="Layer_1" x="0px" y="0px" viewBox="0 0 508 508" style="enable-background:new 0 0 508 508;" xml:space="preserve">
<circle style="fill:#FFD05B;" cx="254" cy="254" r="254"/>
<path style="fill:#FFFFFF;" d="M398.4,394.4H109.6c-7.6,0-13.6-6-13.6-13.6v-210c0-7.6,6-13.6,13.6-13.6h288.8  c7.6,0,13.6,6,13.6,13.6v210C412,388.4,406,394.4,398.4,394.4z"/>
<g>
	<circle style="fill:#FFD05B;" cx="314" cy="186.8" r="15.2"/>
	<circle style="fill:#FFD05B;" cx="194" cy="186.8" r="15.2"/>
</g>
<path style="fill:#324A5E;" d="M314,194.8c-4.4,0-8-3.6-8-8v-57.2H202v57.2c0,4.4-3.6,8-8,8s-8-3.6-8-8v-65.2c0-4.4,3.6-8,8-8h120  c4.4,0,8,3.6,8,8v65.2C322,191.2,318.4,194.8,314,194.8z"/>
<g>
	<circle style="fill:#4CDBC4;" cx="186" cy="260.4" r="22.8"/>
	<path style="fill:#4CDBC4;" d="M237.6,358c0.4-2.8,0.8-5.2,0.8-8c0-28.8-23.2-52.4-52.4-52.4c-28.8,0-52.4,23.2-52.4,52.4   c0,2.8,0.4,5.6,0.8,8H237.6z"/>
</g>
<g>
	<rect x="272.4" y="276.8" style="fill:#E6E9EE;" width="100.8" height="12.4"/>
	<rect x="272.4" y="306.4" style="fill:#E6E9EE;" width="100.8" height="12.4"/>
	<rect x="272.4" y="336.4" style="fill:#E6E9EE;" width="53.2" height="12.4"/>
</g>
<g>
</g>
<g>
</g>
<g>
</g>
<g>
</g>
<g>
</g>
<g>
</g>
<g>
</g>
<g>
</g>
<g>
</g>
<g>
</g>
<g>
</g>
<g>
</g>
<g>
</g>
<g>
</g>
<g>
</g>
</svg>
