<?xml version="1.0" encoding="iso-8859-1"?>
<!-- Generator: Adobe Illustrator 19.0.0, SVG Export Plug-In . SVG Version: 6.00 Build 0)  -->
<svg xmlns="http://www.w3.org/2000/svg" xmlns:xlink="http://www.w3.org/1999/xlink" version="1.1" id="Layer_1" x="0px" y="0px" viewBox="0 0 508 508" style="enable-background:new 0 0 508 508;" xml:space="preserve">
<circle style="fill:#324A5E;" cx="254" cy="254" r="254"/>
<polygon style="fill:#FFFFFF;" points="326,86.8 128,86.8 128,421.2 380,421.2 380,140.8 326,140.8 "/>
<polygon style="fill:#E6E9EE;" points="326,86.8 326,140.8 380,140.8 "/>
<path style="fill:#54C0EB;" d="M414.8,266.4l-16-3.2c-2.4-10.4-6.4-20.4-12-29.2l9.2-13.6c2-3.2,1.6-7.2-0.8-10l-10.8-10.8  c-2.8-2.8-6.8-3.2-10-0.8l-13.6,9.2c-8.8-5.6-18.4-10-29.2-12l-3.2-16c-0.8-3.6-4-6.4-7.6-6.4h-15.2c-3.6,0-6.8,2.8-7.6,6.4l-3.2,16  c-10.4,2.4-20.4,6.4-29.2,12l-13.6-9.2c-3.2-2-7.2-1.6-10,0.8l-10.8,10.8c-2.8,2.8-3.2,6.8-0.8,10l9.2,13.6  c-5.6,8.8-10,18.4-12,29.2l-16,3.2c-3.6,0.8-6.4,4-6.4,7.6v15.2c0,3.6,2.8,6.8,6.4,7.6l16,3.2c2.4,10.4,6.4,20.4,12,29.2l-9.2,13.6  c-2,3.2-1.6,7.2,0.8,10l10.8,10.8c2.8,2.8,6.8,3.2,10,0.8l13.6-9.2c8.8,5.6,18.4,10,29.2,12l3.2,16c0.8,3.6,4,6.4,7.6,6.4h15.2  c3.6,0,6.8-2.8,7.6-6.4l3.2-16c10.4-2.4,20.4-6.4,29.2-12l13.6,9.2c3.2,2,7.2,1.6,10-0.8l10.8-10.8c2.8-2.8,3.2-6.8,0.8-10  l-9.2-13.6c5.6-8.8,10-18.4,12-29.2l16-3.2c3.6-0.8,6.4-4,6.4-7.6V274C420.8,270.4,418.4,267.2,414.8,266.4z"/>
<circle style="fill:#FFFFFF;" cx="312.4" cy="281.6" r="46.4"/>
<circle style="fill:#54C0EB;" cx="312.4" cy="281.6" r="24.4"/>
<g>
</g>
<g>
</g>
<g>
</g>
<g>
</g>
<g>
</g>
<g>
</g>
<g>
</g>
<g>
</g>
<g>
</g>
<g>
</g>
<g>
</g>
<g>
</g>
<g>
</g>
<g>
</g>
<g>
</g>
</svg>
