<?xml version="1.0" encoding="iso-8859-1"?>
<!-- Generator: Adobe Illustrator 19.0.0, SVG Export Plug-In . SVG Version: 6.00 Build 0)  -->
<svg xmlns="http://www.w3.org/2000/svg" xmlns:xlink="http://www.w3.org/1999/xlink" version="1.1" id="Layer_1" x="0px" y="0px" viewBox="0 0 508 508" style="enable-background:new 0 0 508 508;" xml:space="preserve">
<circle style="fill:#90DFAA;" cx="254" cy="254" r="254"/>
<polygon style="fill:#FFFFFF;" points="326,86.8 128,86.8 128,421.2 380,421.2 380,140.8 326,140.8 "/>
<g>
	<polygon style="fill:#E6E9EE;" points="326,86.8 326,140.8 380,140.8  "/>
	<rect x="254.4" y="171.6" style="fill:#E6E9EE;" width="100.4" height="12"/>
	<rect x="254.4" y="205.2" style="fill:#E6E9EE;" width="100.4" height="12"/>
	<rect x="153.2" y="238.8" style="fill:#E6E9EE;" width="201.6" height="12"/>
	<rect x="153.2" y="272.4" style="fill:#E6E9EE;" width="201.6" height="12"/>
	<rect x="153.2" y="306" style="fill:#E6E9EE;" width="201.6" height="12"/>
	<rect x="153.2" y="339.6" style="fill:#E6E9EE;" width="201.6" height="12"/>
</g>
<g>
	<circle style="fill:#FF7058;" cx="195.6" cy="138" r="18.4"/>
	<path style="fill:#FF7058;" d="M237.6,217.2c0.4-2,0.4-4.4,0.4-6.4c0-23.6-19.2-42.4-42.4-42.4s-42.4,19.2-42.4,42.4   c0,2.4,0.4,4.4,0.4,6.4L237.6,217.2L237.6,217.2z"/>
</g>
<g>
</g>
<g>
</g>
<g>
</g>
<g>
</g>
<g>
</g>
<g>
</g>
<g>
</g>
<g>
</g>
<g>
</g>
<g>
</g>
<g>
</g>
<g>
</g>
<g>
</g>
<g>
</g>
<g>
</g>
</svg>
