<?xml version="1.0" encoding="iso-8859-1"?>
<!-- Generator: Adobe Illustrator 19.0.0, SVG Export Plug-In . SVG Version: 6.00 Build 0)  -->
<svg xmlns="http://www.w3.org/2000/svg" xmlns:xlink="http://www.w3.org/1999/xlink" version="1.1" id="Layer_1" x="0px" y="0px" viewBox="0 0 508 508" style="enable-background:new 0 0 508 508;" xml:space="preserve">
<circle style="fill:#324A5E;" cx="254" cy="254" r="254"/>
<polygon style="fill:#FFD05B;" points="93.2,145.6 254,88.8 414.8,145.6 254,202 "/>
<polygon style="fill:#E6E9EE;" points="160.4,121.2 206.8,105.2 367.6,162 321.2,177.6 "/>
<polygon style="fill:#F9B54C;" points="254,419.2 93.2,362.8 93.2,145.6 254,202 "/>
<polygon style="fill:#FFD05B;" points="254,419.2 414.8,362.8 414.8,145.6 254,202 "/>
<polygon style="fill:#CED5E0;" points="321.2,202 367.6,186 367.6,162 321.2,177.6 "/>
<g>
	<path style="fill:#FFFFFF;" d="M200.8,287.2c6-4.8,9.6-12,9.6-21.2c0-21.2-18-44.4-39.2-50.4c-18.8-5.6-34,4.8-34.4,23.6   c-0.4,9.2,3.2,19.6,9.6,28.8c6,8.8,9.6,18.4,9.6,26.8v8.4c-4.4-0.8-7.6,1.6-7.6,6c0,2,0.8,4.4,2,6.4c-1.2,1.2-2,2.8-2,4.8   c0,4.8,4,10,8.8,12l2,0.8c0.8,6.4,6,12.8,12,15.2l5.2,1.6c6.4,2.4,11.6-0.8,12-6.8l2,0.8c4.8,1.6,8.8-0.8,8.8-5.6   c0-2-0.8-4.4-2-6.4c1.2-1.2,2-2.8,2-4.8c0-4.4-3.2-9.2-7.6-11.2v-8.4C191.6,299.2,194.8,292,200.8,287.2z M150.8,265.6   c-5.2-7.6-8-16-8-24c0.4-15.6,12.8-24.4,28.4-19.6c17.6,5.2,32.4,24.4,32.4,42c0,7.6-2.8,13.6-8,17.6c-7.2,5.6-11.2,14-11.2,24v8.4   l-22.4-8.8v-8.4C162,287.2,158,276,150.8,265.6z"/>
	<path style="fill:#FFFFFF;" d="M173.6,231.6c-0.4-1.6-2-3.6-3.6-4c-10.8-2-19.2,3.6-20.4,14c-0.4,1.6,1.2,3.6,2.8,4.4h0.4   c1.6,0.4,2.8,0,3.2-1.6c1.2-7.6,7.2-12,15.2-10.4C172.8,234.8,173.6,233.6,173.6,231.6z"/>
</g>
<g>
</g>
<g>
</g>
<g>
</g>
<g>
</g>
<g>
</g>
<g>
</g>
<g>
</g>
<g>
</g>
<g>
</g>
<g>
</g>
<g>
</g>
<g>
</g>
<g>
</g>
<g>
</g>
<g>
</g>
</svg>
