<?xml version="1.0" encoding="iso-8859-1"?>
<!-- Generator: Adobe Illustrator 19.0.0, SVG Export Plug-In . SVG Version: 6.00 Build 0)  -->
<svg xmlns="http://www.w3.org/2000/svg" xmlns:xlink="http://www.w3.org/1999/xlink" version="1.1" id="Layer_1" x="0px" y="0px" viewBox="0 0 508 508" style="enable-background:new 0 0 508 508;" xml:space="preserve">
<circle style="fill:#FFD05B;" cx="254" cy="254" r="254"/>
<path style="fill:#FFFFFF;" d="M315.2,85.6H128.8c-9.6,0-17.2,7.6-17.2,17.2v302.8c0,9.6,7.6,17.2,17.2,17.2h186.4  c9.6,0,17.2-7.6,17.2-17.2V102.8C332.4,93.2,324.4,85.6,315.2,85.6z"/>
<rect x="127.2" y="121.6" style="fill:#84DBFF;" width="189.2" height="250"/>
<polygon style="fill:#54C0EB;" points="316.4,121.6 127.2,371.6 316.4,371.6 "/>
<g>
	<circle style="fill:#E6E9EE;" cx="222" cy="395.2" r="14.8"/>
	<path style="fill:#E6E9EE;" d="M256.8,108h-49.2c-2.4,0-4.8-2-4.8-4.8l0,0c0-2.4,2-4.8,4.8-4.8h49.2c2.4,0,4.8,2,4.8,4.8l0,0   C261.6,105.6,259.2,108,256.8,108z"/>
	<path style="fill:#E6E9EE;" d="M190.4,108h-3.6c-2.4,0-4.8-2-4.8-4.8l0,0c0-2.4,2-4.8,4.8-4.8h3.6c2.4,0,4.8,2,4.8,4.8l0,0   C195.2,105.6,193.2,108,190.4,108z"/>
</g>
<path style="fill:#FF7058;" d="M380.4,235.6H211.2c-8.8,0-16-7.2-16-16v-40.8c0-8.8,7.2-16,16-16h169.6c8.8,0,16,7.2,16,16v40.8  C396.4,228.4,389.2,235.6,380.4,235.6z"/>
<g>
	<path style="fill:#FFFFFF;" d="M220,204c0.8,0.8,1.6,1.2,2.8,1.2s2-0.4,2.8-1.2s1.2-2,1.2-3.6V190h4v10.4c0,2.8-0.8,4.8-2.4,6.4   c-1.6,1.6-3.6,2-5.6,2c-2.4,0-4.4-0.8-5.6-2c-1.6-1.6-2.4-3.6-2.4-6.4V190h4v10.4C218.8,202,219.2,203.2,220,204z"/>
	<path style="fill:#FFFFFF;" d="M248,191.6c1.2,1.2,2,2.8,2,5.2s-0.8,4-2,5.2s-3.6,1.6-6,1.6h-2.4v5.2h-4V190h6.8   C244.4,190,246.8,190.4,248,191.6z M244.8,199.2c0.4-0.4,0.8-1.2,0.8-2.4s-0.4-2-0.8-2.4c-0.8-0.4-1.6-0.8-3.2-0.8h-2.4v6.4h2.8   C243.6,200,244.4,199.6,244.8,199.2z"/>
	<path style="fill:#FFFFFF;" d="M253.2,208.8V190h4v14.8h8v3.6h-12V208.8z"/>
	<path style="fill:#FFFFFF;" d="M283.6,206c-2,2-4.4,2.8-6.8,2.8c-2.8,0-5.2-0.8-6.8-2.8c-2-2-2.8-4-2.8-6.8s0.8-5.2,2.8-6.8   c2-2,4.4-2.8,6.8-2.8c2.8,0,5.2,0.8,6.8,2.8c2,2,2.8,4,2.8,6.8S285.6,204.4,283.6,206z M282.4,199.2c0-1.6-0.4-3.2-1.6-4.4   s-2.4-1.6-4-1.6s-2.8,0.4-4,1.6c-1.2,1.2-1.6,2.8-1.6,4.4c0,1.6,0.4,3.2,1.6,4.4s2.4,1.6,4,1.6s2.8-0.4,4-1.6   C281.6,202.4,282.4,200.8,282.4,199.2z"/>
	<path style="fill:#FFFFFF;" d="M302.8,208.8l-1.6-4h-8l-1.6,4h-4.4l8-18.8h4l8,18.8H302.8z M297.2,195.6l-2.4,5.6h4.8L297.2,195.6z   "/>
	<path style="fill:#FFFFFF;" d="M323.6,192.4c1.6,1.6,2.8,4,2.8,6.8s-0.8,5.2-2.8,6.8c-1.6,1.6-4.4,2.4-8,2.4h-6.4V190h6.8   C319.2,190,322,190.8,323.6,192.4z M320.8,203.6c1.2-0.8,1.6-2.4,1.6-4.4s-0.4-3.2-1.6-4.4c-1.2-0.8-2.8-1.6-4.8-1.6h-2.4v11.2h2.8   C318,205.2,319.6,204.4,320.8,203.6z"/>
	<path style="fill:#FFFFFF;" d="M330,190h4v18.8h-4V190z"/>
	<path style="fill:#FFFFFF;" d="M352,190h4v18.8h-4l-8.8-11.6v11.6h-4V190h4l9.2,12v-12H352z"/>
	<path style="fill:#FFFFFF;" d="M372.8,199.2h4.4v6.8c-2,2-4.4,3.2-7.6,3.2c-2.8,0-5.2-0.8-6.8-2.8c-2-2-2.8-4-2.8-6.8   s0.8-5.2,2.8-6.8c2-2,4-2.8,6.8-2.8s5.2,0.8,6.8,2.8l-2.4,2.4c-0.8-0.8-1.6-1.2-2.4-1.6c-0.8-0.4-1.6-0.4-2.4-0.4   c-1.6,0-2.8,0.4-4,1.6c-1.2,1.2-1.6,2.4-1.6,4.4c0,1.6,0.4,3.2,1.6,4.4s2.4,1.6,3.6,1.6c1.6,0,2.8-0.4,3.6-0.8v-5.2H372.8z"/>
</g>
<polygon style="fill:#324A5E;" points="208,342.8 208,371.6 236,371.6 236,342.8 258,342.8 222,294 185.6,342.8 "/>
<g>
</g>
<g>
</g>
<g>
</g>
<g>
</g>
<g>
</g>
<g>
</g>
<g>
</g>
<g>
</g>
<g>
</g>
<g>
</g>
<g>
</g>
<g>
</g>
<g>
</g>
<g>
</g>
<g>
</g>
</svg>
