<?xml version="1.0" encoding="iso-8859-1"?>
<!-- Generator: Adobe Illustrator 19.0.0, SVG Export Plug-In . SVG Version: 6.00 Build 0)  -->
<svg xmlns="http://www.w3.org/2000/svg" xmlns:xlink="http://www.w3.org/1999/xlink" version="1.1" id="Layer_1" x="0px" y="0px" viewBox="0 0 508 508" style="enable-background:new 0 0 508 508;" xml:space="preserve">
<circle style="fill:#84DBFF;" cx="254" cy="254" r="254"/>
<path style="fill:#FFFFFF;" d="M344.4,88.8H101.2c-5.2,0-9.6,4.4-9.6,9.6v311.2c0,5.2,4.4,9.6,9.6,9.6h243.2c5.2,0,9.6-4.4,9.6-9.6  V98.4C354,93.2,349.6,88.8,344.4,88.8z"/>
<g>
	<rect x="249.6" y="126" style="fill:#E6E9EE;" width="75.6" height="8.4"/>
	<rect x="201.6" y="152.8" style="fill:#E6E9EE;" width="124" height="8.4"/>
	<rect x="249.6" y="179.6" style="fill:#E6E9EE;" width="75.6" height="8.4"/>
	<rect x="226.4" y="206.4" style="fill:#E6E9EE;" width="98.8" height="8.4"/>
	<rect x="197.6" y="233.2" style="fill:#E6E9EE;" width="127.6" height="8.4"/>
	<rect x="120" y="126" style="fill:#E6E9EE;" width="122" height="8.4"/>
	<rect x="120" y="152.8" style="fill:#E6E9EE;" width="73.6" height="8.4"/>
	<rect x="120" y="179.6" style="fill:#E6E9EE;" width="122" height="8.4"/>
	<rect x="120" y="206.4" style="fill:#E6E9EE;" width="98.8" height="8.4"/>
	<rect x="120" y="233.2" style="fill:#E6E9EE;" width="70" height="8.4"/>
</g>
<path style="fill:#324A5E;" d="M262,209.6c-11.2,15.2-18,32.4-23.2,49.2c3.2-16.4,9.2-33.2,18-48.8c-26.4,29.2-42.8,65.6-47.2,101.2  c-0.4,2.8-0.8,5.6-0.8,8.4c2.4-1.6,4.8-3.2,6.8-4.4c29.6-18.8,58-36.4,85.6-53.2c-14.8,4.4-29.6,8.8-45.2,12.8  c15.6-6,31.2-10.8,45.6-17.2c12.8-5.6,25.2-12.8,36.4-21.6c-11.2,3.6-23.2,7.2-35.2,9.2c15.6-4.4,30.8-9.6,45.2-16  c7.2-3.2,14-6.4,18.8-12.4c-7.6,3.2-15.2,6.8-23.2,8c11.6-5.2,23.2-10,34-16.8c16.4-10,31.6-25.2,38-43.2  c-14-12.8-38.4-16.4-60.4-10c-14.4,4-27.6,12-40,20.4c6.4-6.8,15.2-12,24-16.8c-8.8,0.4-17.6,5.6-25.6,10.8  c-16,11.2-29.2,25.2-38.8,40.8c5.6-12,15.2-23.6,25.6-33.6C285.6,184,272,196,262,209.6z"/>
<path style="fill:#E6E9EE;" d="M259.6,258.4c6-6,11.6-11.6,17.6-17.2c6-5.2,11.6-10.4,17.6-15.2c5.6-4.4,11.2-8.8,16.4-12.4  c5.2-3.6,10-7.2,14.4-10s8.4-5.2,11.6-7.2s5.6-3.6,7.6-4.4c1.6-1.2,2.8-1.6,2.8-1.6s-1.2,0.4-2.8,1.2c-2,0.8-4.4,2-8,3.6  s-7.6,3.6-12,6.4c-4.8,2.4-10,5.6-15.2,9.2c-5.6,3.6-11.2,7.2-17.2,12c-6,4.4-12,9.2-18.4,14.4c-6,5.2-12.4,10.8-18.4,17.2  c-6,6-12,12.4-17.6,19.2c-5.6,6.8-10.8,13.6-16,20.4c-4.8,6.8-9.6,14-13.6,21.2s-8,14-11.2,20.8s-6.4,13.2-8.8,19.2  c-2.4,6-4.4,12-6.4,16.8c-1.6,5.2-3.2,9.6-4,13.2c-1.2,3.6-1.6,6.8-2.4,8.8c-0.4,2-0.8,3.2-0.8,3.2s0.4-1.2,1.2-3.2s1.6-4.8,3.2-8.4  c1.2-3.6,3.2-8,5.2-12.8s4.4-10.4,7.2-16.4s6-12,9.6-18.8c3.6-6.4,7.6-13.2,12-20s8.8-13.6,14-20.4c4.8-6.8,10-13.6,15.6-20  C248,270.4,254,264.4,259.6,258.4z"/>
<g>
</g>
<g>
</g>
<g>
</g>
<g>
</g>
<g>
</g>
<g>
</g>
<g>
</g>
<g>
</g>
<g>
</g>
<g>
</g>
<g>
</g>
<g>
</g>
<g>
</g>
<g>
</g>
<g>
</g>
</svg>
