<?xml version="1.0" encoding="iso-8859-1"?>
<!-- Generator: Adobe Illustrator 19.0.0, SVG Export Plug-In . SVG Version: 6.00 Build 0)  -->
<svg xmlns="http://www.w3.org/2000/svg" xmlns:xlink="http://www.w3.org/1999/xlink" version="1.1" id="Layer_1" x="0px" y="0px" viewBox="0 0 508 508" style="enable-background:new 0 0 508 508;" xml:space="preserve">
<circle style="fill:#FFD05B;" cx="254" cy="254" r="254"/>
<polygon style="fill:#FFFFFF;" points="326,86.8 128,86.8 128,421.2 380,421.2 380,140.8 326,140.8 "/>
<polygon style="fill:#E6E9EE;" points="326,86.8 326,140.8 380,140.8 "/>
<g>
	<rect x="252" y="188" style="fill:#324A5E;" width="4" height="107.6"/>
	<polygon style="fill:#324A5E;" points="316.4,351.2 312.4,351.2 312.4,292 335.2,292 335.2,242.8 338.8,242.8 338.8,296 316.4,296     "/>
	<polygon style="fill:#324A5E;" points="196.4,351.2 192.4,351.2 192.4,296 170,296 170,242.8 174,242.8 174,292 196.4,292  "/>
	<rect x="170.8" y="240.8" style="fill:#324A5E;" width="166" height="4"/>
	<rect x="291.6" y="349.2" style="fill:#324A5E;" width="45.2" height="4"/>
</g>
<rect x="170.8" y="349.2" style="fill:#324A5E;" width="45.2" height="4"/>
<rect x="228.8" y="292" style="fill:#324A5E;" width="50" height="4"/>
<g>
	<path style="fill:#FF7058;" d="M269.6,202H238c-4.8,0-8.4-4-8.4-8.4v-10.8c0-4.8,4-8.4,8.4-8.4h31.6c4.8,0,8.4,4,8.4,8.4v10.8   C278.4,198,274.4,202,269.6,202z"/>
	<path style="fill:#FF7058;" d="M269.6,256.8H238c-4.8,0-8.4-4-8.4-8.4v-10.8c0-4.8,4-8.4,8.4-8.4h31.6c4.8,0,8.4,4,8.4,8.4v10.8   C278.4,252.8,274.4,256.8,269.6,256.8z"/>
	<path style="fill:#FF7058;" d="M348.8,256.8h-31.6c-4.8,0-8.4-4-8.4-8.4v-10.8c0-4.8,4-8.4,8.4-8.4h31.6c4.8,0,8.4,4,8.4,8.4v10.8   C357.2,252.8,353.6,256.8,348.8,256.8z"/>
	<path style="fill:#FF7058;" d="M190.8,256.8h-31.6c-4.8,0-8.4-4-8.4-8.4v-10.8c0-4.8,4-8.4,8.4-8.4h31.6c4.8,0,8.4,4,8.4,8.4v10.8   C199.2,252.8,195.6,256.8,190.8,256.8z"/>
	<path style="fill:#FF7058;" d="M286.8,308h-15.6c-4.8,0-8.4-4-8.4-8.4v-10.8c0-4.8,4-8.4,8.4-8.4h15.6c4.8,0,8.4,4,8.4,8.4v10.8   C295.2,304,291.6,308,286.8,308z"/>
	<path style="fill:#FF7058;" d="M236.8,308h-15.6c-4.8,0-8.4-4-8.4-8.4v-10.8c0-4.8,4-8.4,8.4-8.4h15.6c4.8,0,8.4,4,8.4,8.4v10.8   C245.2,304,241.6,308,236.8,308z"/>
	<path style="fill:#FF7058;" d="M349.2,365.2H334c-4.8,0-8.4-4-8.4-8.4V346c0-4.8,4-8.4,8.4-8.4h15.6c4.8,0,8.4,4,8.4,8.4v10.8   C358,361.6,354,365.2,349.2,365.2z"/>
	<path style="fill:#FF7058;" d="M290,365.2h-15.6c-4.8,0-8.4-4-8.4-8.4V346c0-4.8,4-8.4,8.4-8.4H290c4.8,0,8.4,4,8.4,8.4v10.8   C298.4,361.6,294.8,365.2,290,365.2z"/>
	<path style="fill:#FF7058;" d="M234,365.2h-15.6c-4.8,0-8.4-4-8.4-8.4V346c0-4.8,4-8.4,8.4-8.4H234c4.8,0,8.4,4,8.4,8.4v10.8   C242.4,361.6,238.8,365.2,234,365.2z"/>
	<path style="fill:#FF7058;" d="M174.8,365.2h-15.6c-4.8,0-8.4-4-8.4-8.4V346c0-4.8,4-8.4,8.4-8.4h15.6c4.8,0,8.4,4,8.4,8.4v10.8   C183.2,361.6,179.6,365.2,174.8,365.2z"/>
</g>
<g>
</g>
<g>
</g>
<g>
</g>
<g>
</g>
<g>
</g>
<g>
</g>
<g>
</g>
<g>
</g>
<g>
</g>
<g>
</g>
<g>
</g>
<g>
</g>
<g>
</g>
<g>
</g>
<g>
</g>
</svg>
