<?xml version="1.0" encoding="iso-8859-1"?>
<!-- Generator: Adobe Illustrator 19.0.0, SVG Export Plug-In . SVG Version: 6.00 Build 0)  -->
<svg xmlns="http://www.w3.org/2000/svg" xmlns:xlink="http://www.w3.org/1999/xlink" version="1.1" id="Layer_1" x="0px" y="0px" viewBox="0 0 508 508" style="enable-background:new 0 0 508 508;" xml:space="preserve">
<circle style="fill:#90DFAA;" cx="254" cy="254" r="254"/>
<rect x="211.6" y="322.4" style="fill:#324A5E;" width="84.8" height="47.6"/>
<g>
	<rect x="211.6" y="322.4" style="fill:#2B3B4E;" width="84.8" height="18"/>
	<path style="fill:#2B3B4E;" d="M310,354.4H198c-7.2,0-13.2,6-13.2,13.2l0,0c0,7.2,6,13.2,13.2,13.2h112c7.2,0,13.2-6,13.2-13.2l0,0   C323.2,360.4,317.2,354.4,310,354.4z"/>
</g>
<path style="fill:#324A5E;" d="M406.8,104H101.2c-5.6,0-10.4,4.8-10.4,10.4v205.2c0,5.6,4.8,10.4,10.4,10.4h305.6  c5.6,0,10.4-4.8,10.4-10.4V114.4C417.2,108.8,412.4,104,406.8,104z"/>
<rect x="116" y="126.8" style="fill:#54C0EB;" width="276.4" height="153.2"/>
<polygon style="fill:#84DBFF;" points="189.2,280 309.2,126.8 116,126.8 116,280 "/>
<g>
</g>
<g>
</g>
<g>
</g>
<g>
</g>
<g>
</g>
<g>
</g>
<g>
</g>
<g>
</g>
<g>
</g>
<g>
</g>
<g>
</g>
<g>
</g>
<g>
</g>
<g>
</g>
<g>
</g>
</svg>
