<?xml version="1.0" encoding="iso-8859-1"?>
<!-- Generator: Adobe Illustrator 19.0.0, SVG Export Plug-In . SVG Version: 6.00 Build 0)  -->
<svg xmlns="http://www.w3.org/2000/svg" xmlns:xlink="http://www.w3.org/1999/xlink" version="1.1" id="Layer_1" x="0px" y="0px" viewBox="0 0 508 508" style="enable-background:new 0 0 508 508;" xml:space="preserve">
<circle style="fill:#FFD05B;" cx="254" cy="254" r="254"/>
<path style="fill:#FFFFFF;" d="M397.6,368H110.4c-11.2,0-20-9.2-20-20V176.8c0-11.2,9.2-20,20-20h287.2c11.2,0,20,9.2,20,20V348  C418,359.2,408.8,368,397.6,368z"/>
<rect x="178.4" y="134.8" style="fill:#FF7058;" width="151.2" height="42.4"/>
<g>
	<circle style="fill:#54C0EB;" cx="166" cy="239.6" r="23.2"/>
	<path style="fill:#54C0EB;" d="M210.8,314c-12,10.4-27.2,17.2-44.4,17.2s-32.8-6.4-44.4-17.2c1.6-23.2,20.8-41.2,44.4-41.2   C189.6,272.8,208.8,290.8,210.8,314z"/>
</g>
<g>
	<rect x="257.2" y="216.8" style="fill:#E6E9EE;" width="119.2" height="17.2"/>
	<rect x="257.2" y="254" style="fill:#E6E9EE;" width="119.2" height="17.2"/>
	<rect x="257.2" y="291.2" style="fill:#E6E9EE;" width="74.4" height="17.2"/>
</g>
<g>
</g>
<g>
</g>
<g>
</g>
<g>
</g>
<g>
</g>
<g>
</g>
<g>
</g>
<g>
</g>
<g>
</g>
<g>
</g>
<g>
</g>
<g>
</g>
<g>
</g>
<g>
</g>
<g>
</g>
</svg>
