<?xml version="1.0" encoding="iso-8859-1"?>
<!-- Generator: Adobe Illustrator 19.0.0, SVG Export Plug-In . SVG Version: 6.00 Build 0)  -->
<svg xmlns="http://www.w3.org/2000/svg" xmlns:xlink="http://www.w3.org/1999/xlink" version="1.1" id="Layer_1" x="0px" y="0px" viewBox="0 0 508 508" style="enable-background:new 0 0 508 508;" xml:space="preserve">
<circle style="fill:#324A5E;" cx="254" cy="254" r="254"/>
<circle style="fill:#54C0EB;" cx="254" cy="254" r="178.4"/>
<circle style="fill:#FFFFFF;" cx="254" cy="254" r="140"/>
<path style="fill:#ACB3BA;" d="M310.8,197.2c-2.8-2.8-7.2-2.8-10,0l-50.4,50.4l-50-6.4c-3.2-0.4-6.4,2-6.8,5.2  c-0.4,3.2,2,6.4,5.2,6.8l50.4,6.4c1.2,1.2,2.8,1.6,4.4,1.6c2,0,3.6-0.8,5.2-2l51.6-51.6C313.6,204.4,313.6,200,310.8,197.2z"/>
<circle style="fill:#FF7058;" cx="254" cy="254" r="18.8"/>
<g>
	<rect x="251.5" y="131.2" style="fill:#324A5E;" width="5" height="18"/>
	<rect x="251.5" y="358.8" style="fill:#324A5E;" width="5" height="18"/>
	<rect x="358.8" y="251.5" style="fill:#324A5E;" width="18" height="5"/>
	<rect x="131.2" y="251.5" style="fill:#324A5E;" width="18" height="5"/>
	
		<rect x="331.937" y="164.51" transform="matrix(-0.7071 -0.7071 0.7071 -0.7071 448.1944 532.7678)" style="fill:#324A5E;" width="5" height="18.1"/>
	
		<rect x="171.134" y="325.311" transform="matrix(-0.7071 -0.7071 0.7071 -0.7071 59.9824 693.5672)" style="fill:#324A5E;" width="5" height="18.1"/>
	
		<rect x="325.315" y="331.862" transform="matrix(-0.7071 -0.7071 0.7071 -0.7071 334.3669 807.2223)" style="fill:#324A5E;" width="18.1" height="5"/>
	
		<rect x="164.515" y="171.058" transform="matrix(-0.7071 -0.7071 0.7071 -0.7071 173.5692 419.011)" style="fill:#324A5E;" width="18.1" height="5"/>
</g>
<g>
</g>
<g>
</g>
<g>
</g>
<g>
</g>
<g>
</g>
<g>
</g>
<g>
</g>
<g>
</g>
<g>
</g>
<g>
</g>
<g>
</g>
<g>
</g>
<g>
</g>
<g>
</g>
<g>
</g>
</svg>
