<?xml version="1.0" encoding="iso-8859-1"?>
<!-- Generator: Adobe Illustrator 19.0.0, SVG Export Plug-In . SVG Version: 6.00 Build 0)  -->
<svg xmlns="http://www.w3.org/2000/svg" xmlns:xlink="http://www.w3.org/1999/xlink" version="1.1" id="Layer_1" x="0px" y="0px" viewBox="0 0 508 508" style="enable-background:new 0 0 508 508;" xml:space="preserve">
<circle style="fill:#324A5E;" cx="254" cy="254" r="254"/>
<path style="fill:#FFFFFF;" d="M308,185.2l-20-3.2c-2.4-13.2-7.6-25.2-14.8-36l12-16.4c0.8-1.2,0.8-2.4-0.4-3.6l-17.6-17.6  c-0.8-0.8-2.4-1.2-3.6-0.4l-16.4,12c-10.8-7.2-22.8-12.4-36-14.8l-3.2-20c-0.4-1.2-1.2-2.4-2.8-2.4h-24.8c-1.2,0-2.4,0.8-2.8,2.4  l-3.2,20c-13.2,2.4-25.2,7.6-36,14.8L122,108c-1.2-0.8-2.4-0.8-3.6,0.4L100.8,126c-0.8,0.8-1.2,2.4-0.4,3.6l12,16.4  c-7.2,10.8-12.4,22.8-14.8,36l-20,3.2c-1.2,0.4-2.4,1.2-2.4,2.8v24.8c0,1.2,0.8,2.4,2.4,2.8l20,3.2c2.4,13.2,7.6,25.2,14.8,36  l-12,16.4c-0.8,1.2-0.8,2.4,0.4,3.6l17.6,17.6c0.8,0.8,2.4,1.2,3.6,0.4l16.4-12c10.8,7.2,22.8,12.4,36,14.8l3.2,20  c0.4,1.2,1.2,2.4,2.8,2.4h24.8c1.2,0,2.4-0.8,2.8-2.4l3.2-20c13.2-2.4,25.2-7.6,36-14.8l16.4,12c1.2,0.8,2.4,0.8,3.6-0.4l17.6-17.6  c0.8-0.8,1.2-2.4,0.4-3.6l-12-16.4c7.2-10.8,12.4-22.8,14.8-36l20-3.2c1.2-0.4,2.4-1.2,2.4-2.8V188  C310.4,186.4,309.2,185.2,308,185.2z M193.2,246.8c-25.6,0-46.4-20.8-46.4-46.4s20.8-46.4,46.4-46.4s46.4,20.8,46.4,46.4  C239.6,226,218.8,246.8,193.2,246.8z"/>
<path style="fill:#54C0EB;" d="M382,415.2l-3.2-13.2c7.6-5.2,14-11.6,18.4-19.2l13.2,3.2c0.8,0,1.6-0.4,2-1.2l6.4-16  c0.4-0.8,0-1.6-0.8-2.4l-11.6-7.2c1.6-8.8,1.6-17.6-0.4-26.8l11.6-7.2c0.8-0.4,1.2-1.6,0.8-2.4l-6.8-15.6c-0.4-0.8-1.2-1.2-2-1.2  l-13.2,4c-5.2-7.6-11.6-14-19.2-18.4l3.2-13.2c0-0.8-0.4-1.6-1.2-2l-16-6.4c-0.8-0.4-1.6,0-2.4,0.8l-6.8,11.6  c-8.8-1.6-17.6-1.6-26.8,0.4l-7.2-11.6c-0.4-0.8-1.6-1.2-2.4-0.8l-15.6,6.8c-0.8,0.4-1.2,1.2-1.2,2l3.2,13.2  c-7.6,5.2-14,11.6-18.4,19.2l-13.2-3.2c-0.8,0-1.6,0.4-2,1.2l-6.4,16c-0.4,0.8,0,1.6,0.8,2.4l11.6,7.2c-1.6,8.8-1.6,17.6,0.4,26.8  l-11.6,7.2c-0.8,0.4-1.2,1.6-0.8,2.4l6.8,15.6c0.4,0.8,1.2,1.2,2,1.2l13.2-3.2c5.2,7.6,11.6,14,19.2,18.4l-3.2,13.2  c0,0.8,0.4,1.6,1.2,2l16,6.4c0.8,0.4,1.6,0,2.4-0.8l7.2-11.6c8.8,1.6,17.6,1.6,26.8-0.4l7.2,11.6c0.4,0.8,1.6,1.2,2.4,0.8l15.6-6.8  C382,416.8,382.4,416,382,415.2z M312.4,359.6c-6.8-16,0.4-34.8,16.8-41.6c16-6.8,34.8,0.4,41.6,16.8c6.8,16-0.4,34.8-16.8,41.6  C338,383.2,319.6,376,312.4,359.6z"/>
<g>
</g>
<g>
</g>
<g>
</g>
<g>
</g>
<g>
</g>
<g>
</g>
<g>
</g>
<g>
</g>
<g>
</g>
<g>
</g>
<g>
</g>
<g>
</g>
<g>
</g>
<g>
</g>
<g>
</g>
</svg>
