<?xml version="1.0" encoding="iso-8859-1"?>
<!-- Generator: Adobe Illustrator 19.0.0, SVG Export Plug-In . SVG Version: 6.00 Build 0)  -->
<svg xmlns="http://www.w3.org/2000/svg" xmlns:xlink="http://www.w3.org/1999/xlink" version="1.1" id="Layer_1" x="0px" y="0px" viewBox="0 0 508 508" style="enable-background:new 0 0 508 508;" xml:space="preserve">
<circle style="fill:#FD8469;" cx="254" cy="254" r="254"/>
<path style="fill:#FFFFFF;" d="M382.4,118.8H104c-10.4,0-18.8,8.4-18.8,18.8V366c0,10.4,8.4,18.8,18.8,18.8h278.4  c10.4,0,18.8-8.4,18.8-18.8V137.6C400.8,127.2,392.8,118.8,382.4,118.8z"/>
<rect x="112.8" y="146.4" style="fill:#84DBFF;" width="260.4" height="73.6"/>
<g>
	<path style="fill:#324A5E;" d="M186.8,207.6H158c-2,0-3.2-1.6-3.2-3.2v-42c0-2,1.6-3.2,3.2-3.2h28.8c2,0,3.2,1.6,3.2,3.2V204   C190,206,188.8,207.6,186.8,207.6z M161.6,200.8h22V166h-22V200.8z"/>
	<path style="fill:#324A5E;" d="M200.4,166H226v38.4c0,2,1.6,3.2,3.2,3.2l0,0c2,0,3.2-1.6,3.2-3.2v-42c0-2-1.6-3.2-3.2-3.2h-28.8   c-2,0-3.2,1.6-3.2,3.2C197.2,164.4,198.8,166,200.4,166z"/>
	<path style="fill:#324A5E;" d="M285.6,207.6h-28.8c-2,0-3.2-1.6-3.2-3.2v-42c0-2,1.6-3.2,3.2-3.2h28.8c2,0,3.2,1.6,3.2,3.2V204   C288.8,206,287.6,207.6,285.6,207.6z M260.4,200.8h22V166h-22V200.8z"/>
	<path style="fill:#324A5E;" d="M328,207.6h-28.8c-2,0-3.2-1.6-3.2-3.2v-42c0-2,1.6-3.2,3.2-3.2H328c2,0,3.2,1.6,3.2,3.2V204   C331.6,206,330,207.6,328,207.6z M302.8,200.8h22V166h-22V200.8z"/>
	<rect x="239.6" y="169.6" style="fill:#324A5E;" width="5.2" height="6.8"/>
	<rect x="239.6" y="190.4" style="fill:#324A5E;" width="5.2" height="6.8"/>
</g>
<g>
	<rect x="112.8" y="240" style="fill:#E6E9EE;" width="260.4" height="11.6"/>
	<rect x="112.8" y="266.8" style="fill:#E6E9EE;" width="260.4" height="11.6"/>
	<rect x="112.8" y="293.6" style="fill:#E6E9EE;" width="260.4" height="11.6"/>
	<rect x="112.8" y="320.4" style="fill:#E6E9EE;" width="260.4" height="11.6"/>
	<rect x="112.8" y="347.2" style="fill:#E6E9EE;" width="260.4" height="11.6"/>
</g>
<polygon style="fill:#FFD05B;" points="422.8,299.6 347.2,244.4 347.2,272.4 266.4,272.4 266.4,326.8 347.2,326.8 347.2,354.4 "/>
<g>
</g>
<g>
</g>
<g>
</g>
<g>
</g>
<g>
</g>
<g>
</g>
<g>
</g>
<g>
</g>
<g>
</g>
<g>
</g>
<g>
</g>
<g>
</g>
<g>
</g>
<g>
</g>
<g>
</g>
</svg>
