<?xml version="1.0" encoding="iso-8859-1"?>
<!-- Generator: Adobe Illustrator 19.0.0, SVG Export Plug-In . SVG Version: 6.00 Build 0)  -->
<svg xmlns="http://www.w3.org/2000/svg" xmlns:xlink="http://www.w3.org/1999/xlink" version="1.1" id="Layer_1" x="0px" y="0px" viewBox="0 0 508 508" style="enable-background:new 0 0 508 508;" xml:space="preserve">
<circle style="fill:#84DBFF;" cx="254" cy="254" r="254"/>
<path style="fill:#FFFFFF;" d="M375.6,88.8h-190v52.8c0,5.2-4.4,9.6-9.6,9.6h-53.2v258.4c0,5.2,4.4,9.6,9.6,9.6h243.2  c5.2,0,9.6-4.4,9.6-9.6V98.4C385.2,93.2,380.8,88.8,375.6,88.8z"/>
<path style="fill:#E6E9EE;" d="M185.6,88.8v52.8c0,5.2-4.4,9.6-9.6,9.6h-53.2L185.6,88.8z"/>
<circle style="fill:#FFD05B;" cx="340.4" cy="272.8" r="93.6"/>
<circle style="fill:#F9B54C;" cx="340.4" cy="272.8" r="74"/>
<circle style="fill:#FFD05B;" cx="340.4" cy="272.8" r="64.8"/>
<path style="fill:#FFFFFF;" d="M338,320.8v-8.4c-10.4-1.2-20-5.2-28.4-12.8l8.4-10c6.4,5.6,13.2,8.8,20,10v-22.4  c-8.8-2-15.2-4.8-19.2-8.4c-4-3.2-6-8.4-6-15.2s2.4-12,6.8-16.4c4.8-4.4,10.8-6.4,18.4-6.8v-5.6h7.2v6c8.4,0.8,16.4,3.6,24,8.8  L362,250c-5.2-3.6-10.4-6-16.4-6.8v21.6h0.4c8.8,2,15.2,4.8,19.6,8.4c4,3.6,6.4,8.8,6.4,15.6c0,6.8-2.4,12.4-7.2,16.4  c-4.8,4.4-11.2,6.4-18.8,6.8v8.4h-8V320.8z M329.6,246c-2,1.6-2.8,4-2.8,6.4s0.8,4.8,2.4,6c1.6,1.6,4.4,2.8,8.8,4.4v-20  C334.4,243.2,331.6,244.4,329.6,246z M354,296.8c2-1.6,3.2-4,3.2-6.8s-0.8-4.8-2.4-6.4s-4.8-3.2-9.6-4.4V300  C349.2,299.6,352,298.4,354,296.8z"/>
<g>
</g>
<g>
</g>
<g>
</g>
<g>
</g>
<g>
</g>
<g>
</g>
<g>
</g>
<g>
</g>
<g>
</g>
<g>
</g>
<g>
</g>
<g>
</g>
<g>
</g>
<g>
</g>
<g>
</g>
</svg>
