<?xml version="1.0" encoding="iso-8859-1"?>
<!-- Generator: Adobe Illustrator 19.0.0, SVG Export Plug-In . SVG Version: 6.00 Build 0)  -->
<svg xmlns="http://www.w3.org/2000/svg" xmlns:xlink="http://www.w3.org/1999/xlink" version="1.1" id="Layer_1" x="0px" y="0px" viewBox="0 0 508 508" style="enable-background:new 0 0 508 508;" xml:space="preserve">
<circle style="fill:#90DFAA;" cx="254" cy="254" r="254"/>
<path style="fill:#FFFFFF;" d="M393.2,120.8H114.8c-10.4,0-18.8,8.4-18.8,18.8v228.8c0,10.4,8.4,18.8,18.8,18.8h278.4  c10.4,0,18.8-8.4,18.8-18.8V139.6C412,129.2,403.6,120.8,393.2,120.8z"/>
<rect x="124" y="148.8" style="fill:#84DBFF;" width="260.4" height="73.6"/>
<g>
	<path style="fill:#324A5E;" d="M197.6,210h-28.8c-2,0-3.2-1.6-3.2-3.2v-42c0-2,1.6-3.2,3.2-3.2h28.8c2,0,3.2,1.6,3.2,3.2v41.6   C201.2,208.4,199.6,210,197.6,210z M172.4,203.2h22V168h-22V203.2z"/>
	<path style="fill:#324A5E;" d="M240,210h-28.8c-2,0-3.2-1.6-3.2-3.2v-42c0-2,1.6-3.2,3.2-3.2H240c2,0,3.2,1.6,3.2,3.2v41.6   C243.6,208.4,242,210,240,210z M214.8,203.2h22V168h-22V203.2z"/>
	<rect x="211.6" y="182.4" style="fill:#324A5E;" width="28.8" height="6.8"/>
	<path style="fill:#324A5E;" d="M296.4,210h-28.8c-2,0-3.2-1.6-3.2-3.2v-42c0-2,1.6-3.2,3.2-3.2h28.8c2,0,3.2,1.6,3.2,3.2v41.6   C300,208.4,298.4,210,296.4,210z M271.2,203.2h22V168h-22V203.2z"/>
	<path style="fill:#324A5E;" d="M338.8,210H310c-2,0-3.2-1.6-3.2-3.2v-42c0-2,1.6-3.2,3.2-3.2h28.8c2,0,3.2,1.6,3.2,3.2v41.6   C342.4,208.4,340.8,210,338.8,210z M313.6,203.2h22V168h-22V203.2z"/>
	<rect x="250.4" y="171.6" style="fill:#324A5E;" width="5.2" height="6.8"/>
	<rect x="250.4" y="192.8" style="fill:#324A5E;" width="5.2" height="6.8"/>
</g>
<g>
	<rect x="124" y="242.4" style="fill:#E6E9EE;" width="260.4" height="11.6"/>
	<rect x="124" y="269.2" style="fill:#E6E9EE;" width="260.4" height="11.6"/>
	<rect x="124" y="296" style="fill:#E6E9EE;" width="260.4" height="11.6"/>
	<rect x="124" y="322.8" style="fill:#E6E9EE;" width="260.4" height="11.6"/>
	<rect x="124" y="349.6" style="fill:#E6E9EE;" width="260.4" height="11.6"/>
</g>
<polygon style="fill:#FF7058;" points="277.2,301.6 353.2,356.8 353.2,328.8 433.6,328.8 433.6,274.4 353.2,274.4 353.2,246.8 "/>
<g>
</g>
<g>
</g>
<g>
</g>
<g>
</g>
<g>
</g>
<g>
</g>
<g>
</g>
<g>
</g>
<g>
</g>
<g>
</g>
<g>
</g>
<g>
</g>
<g>
</g>
<g>
</g>
<g>
</g>
</svg>
