<?xml version="1.0" encoding="iso-8859-1"?>
<!-- Generator: Adobe Illustrator 19.0.0, SVG Export Plug-In . SVG Version: 6.00 Build 0)  -->
<svg xmlns="http://www.w3.org/2000/svg" xmlns:xlink="http://www.w3.org/1999/xlink" version="1.1" id="Layer_1" x="0px" y="0px" viewBox="0 0 508 508" style="enable-background:new 0 0 508 508;" xml:space="preserve">
<circle style="fill:#84DBFF;" cx="254" cy="254" r="254"/>
<path style="fill:#FFFFFF;" d="M362.8,91.6H200v55.2c0,10.8-8.8,20-20,20h-54.8v229.6c0,10.8,8.8,20,20,20h217.6  c10.8,0,20-8.8,20-20V111.6C382.8,100.8,374,91.6,362.8,91.6z"/>
<path style="fill:#E6E9EE;" d="M200,91.6l-74.8,75.2h55.2c10.8,0,20-8.8,20-20L200,91.6L200,91.6z"/>
<g>
	<rect x="154.8" y="218.4" style="fill:#CED5E0;" width="198.8" height="8.8"/>
	<rect x="154.8" y="250.8" style="fill:#CED5E0;" width="198.8" height="8.8"/>
	<rect x="154.8" y="283.2" style="fill:#CED5E0;" width="198.8" height="8.8"/>
	<rect x="154.8" y="315.6" style="fill:#CED5E0;" width="114" height="8.8"/>
</g>
<g>
	<path style="fill:#324A5E;" d="M316.4,142c0-0.8,0.4-2,0.4-2.8c0.4-1.2,0-2.4,0-3.6c0-0.4,0-0.4,0.4-0.4c-0.4-8-5.6-14.4-12-14.4   s-12,6.8-12,15.6c0,8.4,5.2,15.6,12,15.6C310.4,151.2,314.4,147.6,316.4,142L316.4,142z"/>
	<path style="fill:#324A5E;" d="M312.8,117.6c0-1.6-1.6-2.8-3.2-3.2c-1.6-0.4-3.2-0.4-4.8,0c-0.8,0-1.6,0.4-2.4,0.4   c-2,0.8-3.2,2-4.8,3.2c-1.6,1.2-3.6,2-5.6,1.6c0.8,1.2,2.4,1.6,4,1.6c-8.8,2.4-3.6,17.6-1.2,22c-0.4-1.2-0.4-2.4-0.4-3.6   c-0.4-3.6,0-14.8,10.8-15.2c12.4-0.4,11.6,15.2,11.2,18.4C316.4,142.4,323.2,119.6,312.8,117.6z"/>
	<polygon style="fill:#324A5E;" points="299.6,155.6 304.8,160.8 310,155.6  "/>
	<polygon style="fill:#324A5E;" points="310,177.2 304.8,157.6 299.6,177.2  "/>
	<path style="fill:#324A5E;" d="M316,153.6L316,153.6C316,154,316,154,316,153.6v0.8c0,4.4-1.6,8-4,11.2c-0.8,1.2-2.8,3.2-3.2,4.8   c-0.8,2-0.8,3.2-2.4,4.4c-0.4,0.4-0.8,0.4-1.2,0.8l0,0c-0.4,0-0.8-0.4-1.2-0.8c-1.6-1.6-2-2.8-2.4-4.4c-0.4-1.6-2.4-3.2-3.2-4.8   c-2.4-3.6-4-6.8-4-11.2V154v-0.4l0,0c-8.8,4.8-15.2,15.6-15.2,28c0,1.6,0,3.2,0.4,4.8c6.8,4.4,15.6,6.8,25.2,6.8c0.4,0,0.4,0,0.8,0   l0,0c0.4,0,0.4,0,0.8,0c9.6,0,18.4-2.4,25.2-6.8c0.4-1.6,0.4-3.2,0.4-4.8C330.8,169.2,324.8,158.4,316,153.6z"/>
	<path style="fill:#324A5E;" d="M304.8,176c0,0,6.4-1.6,12.8-13.6l-2-2l1.6-0.8c0-3.2-1.6-6-1.6-6C316,156.8,309.6,168.4,304.8,176z   "/>
	<path style="fill:#324A5E;" d="M304.8,176c0,0-6.4-1.6-12.8-13.6l2-2l-1.6-0.8c0-3.2,1.6-6,1.6-6C293.6,156.8,300,168.4,304.8,176z   "/>
</g>
<path style="fill:#FF7058;" d="M352.4,386.4l-24.8-24.8l94-94c2.8-2.8,7.6-2.8,10.4,0l14.4,14.4c2.8,2.8,2.8,7.6,0,10.4L352.4,386.4  z"/>
<path style="fill:#F1543F;" d="M437.2,302l9.6-9.6c2.8-2.8,2.8-7.6,0-10.4l-14.4-14.4c-2.8-2.8-7.6-2.8-10.4,0l-9.6,9.6L437.2,302z"/>
<rect x="420.102" y="272.594" transform="matrix(0.7071 -0.7071 0.7071 0.7071 -80.8988 384.6815)" style="fill:#E6E9EE;" width="7.6" height="34.8"/>
<polygon style="fill:#FFD05B;" points="352.4,386.4 316.8,397.6 327.6,361.6 "/>
<g>
</g>
<g>
</g>
<g>
</g>
<g>
</g>
<g>
</g>
<g>
</g>
<g>
</g>
<g>
</g>
<g>
</g>
<g>
</g>
<g>
</g>
<g>
</g>
<g>
</g>
<g>
</g>
<g>
</g>
</svg>
