<?xml version="1.0" encoding="iso-8859-1"?>
<!-- Generator: Adobe Illustrator 19.0.0, SVG Export Plug-In . SVG Version: 6.00 Build 0)  -->
<svg xmlns="http://www.w3.org/2000/svg" xmlns:xlink="http://www.w3.org/1999/xlink" version="1.1" id="Layer_1" x="0px" y="0px" viewBox="0 0 508 508" style="enable-background:new 0 0 508 508;" xml:space="preserve">
<circle style="fill:#4CDBC4;" cx="254" cy="254" r="254"/>
<path style="fill:#FFFFFF;" d="M375.6,88.8h-190v52.8c0,5.2-4.4,9.6-9.6,9.6h-53.2v258.4c0,5.2,4.4,9.6,9.6,9.6h243.2  c5.2,0,9.6-4.4,9.6-9.6V98.4C385.2,93.2,380.8,88.8,375.6,88.8z"/>
<g>
	<path style="fill:#E6E9EE;" d="M185.6,88.8v52.8c0,5.2-4.4,9.6-9.6,9.6h-53.2L185.6,88.8z"/>
	<rect x="277.2" y="183.6" style="fill:#E6E9EE;" width="64.8" height="12"/>
	<rect x="235.6" y="220.8" style="fill:#E6E9EE;" width="106" height="12"/>
	<rect x="277.2" y="258.4" style="fill:#E6E9EE;" width="64.8" height="12"/>
	<rect x="257.2" y="295.6" style="fill:#E6E9EE;" width="84.4" height="12"/>
	<rect x="232.4" y="333.2" style="fill:#E6E9EE;" width="109.2" height="12"/>
	<rect x="166.4" y="183.6" style="fill:#E6E9EE;" width="104.4" height="12"/>
	<rect x="166.4" y="220.8" style="fill:#E6E9EE;" width="63.2" height="12"/>
	<rect x="166.4" y="258.4" style="fill:#E6E9EE;" width="104.4" height="12"/>
	<rect x="166.4" y="295.6" style="fill:#E6E9EE;" width="84.4" height="12"/>
	<rect x="166.4" y="333.2" style="fill:#E6E9EE;" width="60" height="12"/>
</g>
<path style="fill:#FFD05B;" d="M213.2,387.2c5.6-2.4,46-17.6,94.4-8.4c0,0,24-74,46.8-103.2l-14.8-14.8L324.4,246  c-29.2,23.2-103.2,46.8-103.2,46.8C230.8,341.2,215.6,381.6,213.2,387.2z"/>
<circle style="fill:#FFFFFF;" cx="270.8" cy="329.6" r="14"/>
<path style="fill:#324A5E;" d="M494.4,172.4c-42,40.4-94.4,82.4-134,106c-2.8,1.6-6,2.4-9.2,2s-6-1.6-8-4l-18.8-18.8  c-2.4-2.4-3.6-5.2-4-8.4s0-6.4,2-9.2c26-43.2,73.2-101.2,116.8-144.8c2.4-2.4,5.2-4.8,7.6-7.2C467.2,112,484,140.8,494.4,172.4z"/>
<g>
</g>
<g>
</g>
<g>
</g>
<g>
</g>
<g>
</g>
<g>
</g>
<g>
</g>
<g>
</g>
<g>
</g>
<g>
</g>
<g>
</g>
<g>
</g>
<g>
</g>
<g>
</g>
<g>
</g>
</svg>
