<?xml version="1.0" encoding="iso-8859-1"?>
<!-- Generator: Adobe Illustrator 19.0.0, SVG Export Plug-In . SVG Version: 6.00 Build 0)  -->
<svg xmlns="http://www.w3.org/2000/svg" xmlns:xlink="http://www.w3.org/1999/xlink" version="1.1" id="Layer_1" x="0px" y="0px" viewBox="0 0 508 508" style="enable-background:new 0 0 508 508;" xml:space="preserve">
<circle style="fill:#324A5E;" cx="254" cy="254" r="254"/>
<path style="fill:#FFFFFF;" d="M338.4,214.4h-25.2v-54.8c0-32.4-26.4-58.8-58.8-58.8s-58.8,26.4-58.8,58.8v54.8h-25.2v-54.8  c0-46.4,37.6-84.4,84.4-84.4c46.4,0,84.4,37.6,84.4,84.4v54.8H338.4z"/>
<path style="fill:#84DBFF;" d="M364.4,204.4H143.6c-6,0-10.8,4.8-10.8,10.8V382c0,6,4.8,10.8,10.8,10.8h220.8  c6,0,10.8-4.8,10.8-10.8V215.2C374.8,209.2,370.4,204.4,364.4,204.4z"/>
<ellipse style="fill:#FFFFFF;" cx="254" cy="297.6" rx="76.4" ry="42.4"/>
<path style="fill:#E6E9EE;" d="M254,328.8c-37.2,0-65.2-16.4-65.2-30.8c0-14.8,28-30.8,65.2-30.8s65.2,16.4,65.2,30.8  S291.2,328.8,254,328.8z"/>
<g>
	<circle style="fill:#ACB3BA;" cx="305.6" cy="297.6" r="4.4"/>
	<circle style="fill:#ACB3BA;" cx="202.4" cy="297.6" r="4.4"/>
</g>
<g>
</g>
<g>
</g>
<g>
</g>
<g>
</g>
<g>
</g>
<g>
</g>
<g>
</g>
<g>
</g>
<g>
</g>
<g>
</g>
<g>
</g>
<g>
</g>
<g>
</g>
<g>
</g>
<g>
</g>
</svg>
