<?xml version="1.0" encoding="iso-8859-1"?>
<!-- Generator: Adobe Illustrator 19.0.0, SVG Export Plug-In . SVG Version: 6.00 Build 0)  -->
<svg xmlns="http://www.w3.org/2000/svg" xmlns:xlink="http://www.w3.org/1999/xlink" version="1.1" id="Layer_1" x="0px" y="0px" viewBox="0 0 508 508" style="enable-background:new 0 0 508 508;" xml:space="preserve">
<circle style="fill:#90DFAA;" cx="254" cy="254" r="254"/>
<path style="fill:#FFFFFF;" d="M424.4,324.4l-19.2-122c-1.6-9.6-9.6-16.4-19.2-16.4H121.6c-9.6,0-17.6,6.8-19.2,16.4l-19.2,122  c-2,11.6,7.2,22.4,19.2,22.4h302.8C417.2,346.4,426.4,336,424.4,324.4z"/>
<path style="fill:#54C0EB;" d="M138,186v56.4c0,6,4.8,10.4,10.4,10.4h211.2c6,0,10.4-4.8,10.4-10.4V186H138z"/>
<path style="fill:#324A5E;" d="M356.4,282H151.6c-7.6,0-14,6-14,14v50.8h232v-51.2C370,288,364,282,356.4,282z"/>
<g>
	<rect x="174.4" y="306" style="fill:#2B3B4E;" width="159.6" height="40.4"/>
	<rect x="176.8" y="136.4" style="fill:#2B3B4E;" width="154.4" height="49.6"/>
</g>
<g>
	<rect x="194.8" y="88.4" style="fill:#FFFFFF;" width="118.8" height="97.6"/>
	<rect x="194.8" y="306" style="fill:#FFFFFF;" width="118.8" height="97.6"/>
</g>
<g>
	<rect x="210" y="328" style="fill:#E6E9EE;" width="88" height="7.6"/>
	<rect x="210" y="350.8" style="fill:#E6E9EE;" width="88" height="7.6"/>
	<rect x="210" y="374" style="fill:#E6E9EE;" width="88" height="7.6"/>
</g>
<g>
</g>
<g>
</g>
<g>
</g>
<g>
</g>
<g>
</g>
<g>
</g>
<g>
</g>
<g>
</g>
<g>
</g>
<g>
</g>
<g>
</g>
<g>
</g>
<g>
</g>
<g>
</g>
<g>
</g>
</svg>
