<?xml version="1.0" encoding="iso-8859-1"?>
<!-- Generator: Adobe Illustrator 19.0.0, SVG Export Plug-In . SVG Version: 6.00 Build 0)  -->
<svg xmlns="http://www.w3.org/2000/svg" xmlns:xlink="http://www.w3.org/1999/xlink" version="1.1" id="Layer_1" x="0px" y="0px" viewBox="0 0 508 508" style="enable-background:new 0 0 508 508;" xml:space="preserve">
<circle style="fill:#324A5E;" cx="254" cy="254" r="254"/>
<path style="fill:#FFFFFF;" d="M362.4,104.4H145.6c-8,0-14.4,6.4-14.4,14.4v270.4c0,8,6.4,14.4,14.4,14.4h217.2  c8,0,14.4-6.4,14.4-14.4V118.8C376.8,110.8,370.4,104.4,362.4,104.4z"/>
<path style="fill:#4CDBC4;" d="M184.8,104.4h-39.2c-8,0-14.4,6.4-14.4,14.4v270.4c0,8,6.4,14.4,14.4,14.4h39.2V104.4z"/>
<g>
	<circle style="fill:#CED5E0;" cx="276.8" cy="188.4" r="24.8"/>
	<path style="fill:#CED5E0;" d="M332,274.8c-2.4-28.8-26-51.2-55.2-51.2s-53.2,22.4-55.2,51.2L332,274.8L332,274.8z"/>
</g>
<g>
	<rect x="216.8" y="304" style="fill:#E6E9EE;" width="115.2" height="10.8"/>
	<rect x="216.8" y="333.6" style="fill:#E6E9EE;" width="57.2" height="11.6"/>
</g>
<g>
</g>
<g>
</g>
<g>
</g>
<g>
</g>
<g>
</g>
<g>
</g>
<g>
</g>
<g>
</g>
<g>
</g>
<g>
</g>
<g>
</g>
<g>
</g>
<g>
</g>
<g>
</g>
<g>
</g>
</svg>
