<?xml version="1.0" encoding="iso-8859-1"?>
<!-- Generator: Adobe Illustrator 19.0.0, SVG Export Plug-In . SVG Version: 6.00 Build 0)  -->
<svg xmlns="http://www.w3.org/2000/svg" xmlns:xlink="http://www.w3.org/1999/xlink" version="1.1" id="Layer_1" x="0px" y="0px" viewBox="0 0 508 508" style="enable-background:new 0 0 508 508;" xml:space="preserve">
<circle style="fill:#FD8469;" cx="254" cy="254" r="254"/>
<path style="fill:#FFFFFF;" d="M430,236c-6.4-88.8-78.8-160.8-167.6-166.8c-4.4-0.4-8.8-0.4-12.8-0.4C149.6,68.8,68.4,150,68.4,250  v1.2c0,30.8,25.6,49.2,50.4,49.2c15.2,0,29.6-6.8,39.6-19.2c22.4-27.6,55.6-43.6,91.2-43.6s68.8,16,91.2,43.6  c9.6,12,24,19.2,39.6,19.2l0,0c24.8,0,50.4-18.4,50.4-49.6C430.8,246,430.4,240.8,430,236z"/>
<circle style="fill:#CED5E0;" cx="140" cy="212.4" r="28"/>
<circle style="fill:#324A5E;" cx="295.6" cy="156.4" r="28"/>
<circle style="fill:#FFD05B;" cx="204.8" cy="156.4" r="28"/>
<path style="fill:#84DBFF;" d="M392.4,176.8c-24.8,18.4-36.8,3.6-53.2,20c-12,12-12,35.6,0.4,45.6c12.8,10,35.2,3.2,45.6-10  C395.2,219.2,405.6,166.8,392.4,176.8z"/>
<rect x="316.483" y="227.791" transform="matrix(-0.7006 -0.7135 0.7135 -0.7006 405.8732 647.0716)" style="fill:#E6E9EE;" width="44.398" height="21.199"/>
<path style="fill:#324A5E;" d="M315.2,230c-20,14.8-42.8,34.8-66.4,57.6c-58.8,58-98,114-87.6,124.8c10.8,10.8,67.2-27.6,126-85.6  c23.2-22.8,43.6-45.6,58.8-65.2L315.2,230z"/>
<g>
</g>
<g>
</g>
<g>
</g>
<g>
</g>
<g>
</g>
<g>
</g>
<g>
</g>
<g>
</g>
<g>
</g>
<g>
</g>
<g>
</g>
<g>
</g>
<g>
</g>
<g>
</g>
<g>
</g>
</svg>
