<?xml version="1.0" encoding="iso-8859-1"?>
<!-- Generator: Adobe Illustrator 19.0.0, SVG Export Plug-In . SVG Version: 6.00 Build 0)  -->
<svg xmlns="http://www.w3.org/2000/svg" xmlns:xlink="http://www.w3.org/1999/xlink" version="1.1" id="Layer_1" x="0px" y="0px" viewBox="0 0 508 508" style="enable-background:new 0 0 508 508;" xml:space="preserve">
<circle style="fill:#FFD05B;" cx="254" cy="254" r="254"/>
<path style="fill:#324A5E;" d="M378.4,121.6H129.6c-7.6,0-13.6,6-13.6,13.6V320h276.4V135.6C392.4,128,386,121.6,378.4,121.6z"/>
<rect x="138" y="144" style="fill:#54C0EB;" width="232" height="154"/>
<path style="fill:#2B3B4E;" d="M87.2,320.4v13.2c0,11.6,9.2,20.8,20.8,20.8h292c11.6,0,20.8-9.2,20.8-20.8v-13.2H87.2z"/>
<g>
	<path style="fill:#FFFFFF;" d="M238.8,209.6c-2,1.2-2,4-1.6,6.4c0.4,4,1.2,8.4,4.8,10c1.6,0.8,3.2,0.8,5.2,0.4c2,0,4-0.4,6-0.4   c-0.4,3.2,2.4,6.4,3.2,9.6c0.4,1.2,0.4,2.8,0.4,4.4c0,3.6,0.8,6.8,1.6,10.4c0.8,2.8,2,6,4.4,7.2c0.8,0.4,2.4,0.4,3.2,0   c1.2-1.2,1.2-3.6,2.8-4c1.6-3.2,3.2-6,4.4-9.2c0.8-1.6,1.6-2.8,1.6-4.4c0-1.6-0.4-3.2-0.4-5.2c0.8-4.8,7.6-7.2,7.2-11.6   c-1.6,1.2-3.6,0.8-5.2-0.4s-2.4-2.8-3.6-4.4c-1.6-2.4-3.2-5.2-2.8-8.4c1.6-0.8,3.6,0.4,4.8,2c1.2,1.6,1.2,3.6,2,5.2   c0.8,1.6,2.4,3.2,4.4,3.2c0-0.8,0.4-1.6,0.4-2.4c1.6,0,2.8-0.4,4-1.2s1.6-2.8,0.8-4c-0.8-0.8-2-1.2-3.2-1.2c-2-0.4-4-2.8-3.2-4.8   c1.2-0.8,2.8-0.4,3.6,0.4c1.2,0.8,2,1.6,3.2,2.4c2,0.8,4.8,0,6.8,0.8s3.2,3.2,4.4,5.2c1.2,2.8,2.8,5.6,4,8.4   c0.8,0.4,1.2-0.4,1.6-1.2c0-0.8,0-1.6,0-2c0-1.2,1.2-2,2-2.8c2-2,4-3.6,6-5.2c-0.4,2.8,2,4.8,4,6.4c2,1.6,4.4,2.8,5.6,5.2   c0.8,0,1.2,0,2,0c0.8-1.6,0.4-3.2-0.4-4.8c-0.4-0.8-1.6-1.6-2-2.4c-0.4-0.8-0.8-2,0-2.8c0.4-0.8,1.2-0.8,2-0.8c2,0,3.6,0.4,5.6,0   c1.6-0.4,3.6-2.4,2.8-4c-0.4-0.8-0.8-1.2-1.2-1.6c-0.8-0.8-2-2-2.8-2.8c-1.2-1.6-2-4,0-4.8c2.8-1.2,4.4,4.8,7.2,4   c-0.8-2-1.6-4-2.4-6c1.6,0,3.2-1.2,3.6-2.8s-0.4-3.2-2-4c-0.8-0.4-1.6-0.4-2.4-0.8c-0.8-0.4-1.6-1.2-1.2-2c0-0.4,0.4-0.8,0.8-1.2   c2.4-1.6,5.2-2.8,8.4-3.2c0.4,1.2,0.8,2.8,1.2,4c0,0.8,0.4,1.2,0.8,1.6c0.4,0.4,1.2,0.4,1.6,0c0.8-1.2-1.6-2.8-0.8-4   c1.6,0,3.2-0.4,4-1.6c0.8-1.6-1.2-3.6-2.8-4c-4-1.2-8,0.4-12,0c-2-0.4-3.6-0.8-5.6-1.2c-5.2-1.2-10.8,0.4-16,0   c-3.6-0.4-6.8-1.6-10.4-2.8c-3.6-0.8-7.2-1.2-10.4,0.4c-0.8,0.4-1.2,0.8-1.6,1.6c-0.4,0.4-0.4,1.2-0.8,1.6c-0.4,0.8-1.2,0.8-2,1.2   c-2.4,0.4-5.2-1.2-7.6-0.4c-1.6,0.4-2.8,1.2-4.4,1.6c-1.6,0.4-3.2,0.4-4.4-0.8c1.2,0,2.8-0.4,4-0.8c-2.4-0.4-5.2-0.8-7.6-1.2   c-1.6-1.6-3.2-1.6-4.8-1.6c-3.6,0.4-6,3.6-7.6,6.4c0.8,0,2,0.4,2.8,0.4c0.4,0.4,0.4,1.2,0.4,1.6c1.2,0.4,2.8,0.4,4,0.4   c0.4-1.2,0.4-2.4,0-3.2c0.8,0,2-0.4,2.8-0.4c-0.4,1.2,0.8,2.4,0.8,4s-1.6,2.4-2.8,2.8c-2.8,0.8-6,0.4-8.8,0.8   c-2.8,0.8-6,3.6-4.8,6.4c-1.2,0.4-2.8,0.8-4.4,0.8c-0.8,1.2-1.2,2.8-0.8,4c1.6,1.2,4.8,0.8,6-1.2c0.4-0.8,0.8-2,1.6-2.8   c1.2-0.8,2.8,0,3.6-0.4s1.2-1.2,1.6-1.6c2-1.2,4,2.4,6,1.6c-0.4,1.6,1.6,2.8,3.2,3.2c1.2,0.4,2.4,0.4,3.6,0.8   c1.2,0.4,2.4,0.4,3.2,1.2c0.8,0.8,1.2,2.4,0.4,3.2c-4,0.4-8,0.4-11.6,0.8c-1.2,0-2.4,0-3.6,0c-2.8-0.4-6-2-8.4,0   c-0.4,0.4-0.8,1.2-1.2,1.6C243.6,209.6,240.8,208.4,238.8,209.6z"/>
	<path style="fill:#FFFFFF;" d="M325.2,233.6c0-0.8-1.6-1.2-2-2s0-2,1.2-2.4c0.8-0.4,2-0.4,2.8-1.2c0.8-0.4,1.6-1.6,1.6-2.4   c0-0.4,0-0.4,0.4-0.8h0.4c0.8,0,1.6,0,2.4,0c0.8,1.6-2.4,3.6-1.6,5.6c0,0.4,0.4,0.4,0.4,0.8c0,0.4,0,1.2-0.4,1.6   c-0.4,0.4-0.8,0.4-1.6,0.4C327.6,233.6,326.4,233.6,325.2,233.6z"/>
	<path style="fill:#FFFFFF;" d="M348,240c1.2,0.8,0,2.8,0.8,4c0.4,0.4,0.8,0.8,1.2,1.2c0,0.4,0,0.8,0,1.2c0,2,2.4,2.8,2.8,4.8   c0.4,1.6-0.4,3.2-1.6,4.8c-1.6,2-3.6,4-6,4c-2.4,0.4-5.2-1.2-6-3.6c-0.8,0.4-1.6,0-2.4-0.4s-1.6-1.2-2.4-1.2s-1.6,0-2,0   c-1.6,0.4-3.2,1.2-4.8,2c-0.8-2.4-2-5.2-2.8-7.6c0-0.4,0-0.4,0-0.8c0-1.2,1.2-1.6,2-2c1.2,0,2,0,3.2-0.8c0.4-0.4,0.8-0.8,1.2-1.2   c1.6-2,4-3.2,6.8-3.6c0.4,0,0.4,0,0.8-0.4c0.4,0,0.4-0.4,0.4-0.8c0.8-0.8,2-1.2,2.8-0.8c-0.4,1.2,0,2.4,0.8,3.2s2,1.2,3.2,0.8   c0.4,0,0.4,0,0.4-0.4s0-0.4,0-0.8C346,241.2,346.8,240,348,240z"/>
	<path style="fill:#FFFFFF;" d="M225.2,184.8c0.4,0,0.4,0,0.8-0.4c0.4-0.4,0.4-1.2,0.4-2c0.4-0.8,1.2-1.2,2.4-1.6   c0.4,0,1.2-0.4,1.6-0.4c0.8-0.4,2-0.8,1.6-1.6c0.8,0,2,0,2.4-0.4c1.2-0.8,2-2,2-3.6c0.8,0.4,2,0,2.4-0.8s0-2-0.8-2.4   c-0.4,0-0.8-0.4-1.2-0.4c-4.8-0.4-10-0.8-14.8-1.2c-1.2,0-2.4,0-2.8,1.2c-0.4,1.2,0.8,2.4,0.8,3.2c0,0.4,0,1.2,0.4,1.6   c0,0.4,0.4,0.8,0.8,1.2c1.2,2-1.6,4.4-0.8,6.4c0.4,0.8,1.2,1.2,2.4,1.6C223.2,185.2,224,184.8,225.2,184.8z"/>
	<path style="fill:#FFFFFF;" d="M180.8,207.6c1.2-0.4,2.4,0,3.2-0.8c0.4-0.4,1.2-0.8,1.6-1.2c1.6-0.8,3.2,0.4,4,1.6   c0.8,1.6,0.8,3.2,0.4,4.8c2-0.4,2.8-3.6,1.2-4.8c2-0.4,3.2-2.8,4.8-4.4c1.6-2,4.8-3.6,4.8-6c1.2,0.4,2.8,0.8,4,0.4   c0-1.6,0-2.8-0.8-4.4c0.8-0.8,2.4-1.2,3.6-1.2c0,1.2,2,1.2,3.2,0.8c0.4,0.8,0.4,1.6,0.4,2.4c0.8,0.4,2,0.4,3.2,0.4   c0-2.4-0.4-4.4-1.2-6.4c-0.8-1.6-2-3.2-1.6-4.8c-0.4,0-0.8,0-1.2-0.4c0,1.6-1.6,2.8-3.2,2.4c0-1.2-0.4-2.8-0.4-4   c-0.8,0.8-2,0-2.4-1.2c0-1.2,0.8-2,1.6-2.4s2-0.4,3.2-0.4c0.4,1.2,0.8,2.4,0.4,3.6c0.8,0,2,0,2.8-0.4c0-0.8-0.4-1.6-0.8-2.4   c0.8-0.4,1.2-0.8,2-1.2c-1.2-0.4-2.4-0.4-3.2-1.2s-1.2-2-0.8-3.2c-2.4-0.4-4.4-0.8-6.8-1.2c-1.2-0.4-2.8-0.4-4,0   c-2,0.4-3.2,2.4-5.2,2.4c-1.2,0-3.2,0-3.2,1.2c0,0.4,0,0.8,0,1.2c0,1.2-2,1.2-3.2,0.8c-2.8,0.4-5.2,0.4-8,0.4   c-6.4-0.4-13.2-0.4-18.8,2.8c-2,1.2-4,3.2-5.6,4.8c2.4,1.6,5.6-0.8,8.4-0.8c2,0,3.6,1.2,5.2,2.4c0.8,3.6,0.4,7.2-0.8,10.8   c-0.4,0.8-0.4,1.6-0.4,2.4c0,0.8,0.4,1.6,0.8,2.4c1.6,2.8,2.8,6,4.4,8.8c0.4,0.8,0.8,2,1.2,2.8c0.8,1.6,1.6,2.8,2.8,4   c2.4,2,5.6,1.6,7.6,4c0.4,0.4,0.4,0.8,0.8,1.2c0.8,1.2,2.8,1.2,4,2c1.2,0.4,2.8,2,2,3.2c-0.4,0.4-0.8,0.8-1.2,1.2   c-1.6,2-1.2,5.2,0.4,7.2c1.6,2,3.6,4,5.2,6c2.8,4.4,2,10,2.8,15.2c0.4,4,2,8.4,4.4,11.6c0.8,0.8,2,2,2.8,1.2   c0.8-0.4,0.4-1.6,0.4-2.4c-0.4-2-0.8-4-1.6-6c2-0.4,3.6-2.8,2.8-4.8c2,0.4,3.6-2,4-3.6c0.4-2,0.8-4.4,2.8-5.2   c0.8-0.4,2-0.4,2.8-1.2c1.2-1.2,0.4-4,1.2-5.6c0.4-0.8,1.6-1.2,2.4-2c1.6-2,0-5.2-2-6.4s-4.8-1.6-6.8-3.2c-1.2-0.8-2-2-3.2-2.8   c-2-1.6-4-2.8-6.4-4c-2-1.2-4.4-2-6.4-1.6c-1.2,0.4-2.4,1.2-4,1.6c-1.2,0.4-2.8,0.4-3.6-0.8c-0.4-0.8-0.4-1.6-0.8-2.8   c-0.4-0.8-1.2-1.6-2-1.2c0-1.2,0.4-2.4,0.4-3.6c0-0.8-1.6-1.2-2.4-0.4c-0.8,0.4-1.6,1.6-2.4,1.6c-1.2,0-2-0.8-2.4-2s0-2,0-3.2   C178.8,210,179.2,208.4,180.8,207.6z"/>
</g>
<g>
</g>
<g>
</g>
<g>
</g>
<g>
</g>
<g>
</g>
<g>
</g>
<g>
</g>
<g>
</g>
<g>
</g>
<g>
</g>
<g>
</g>
<g>
</g>
<g>
</g>
<g>
</g>
<g>
</g>
</svg>
