<?xml version="1.0" encoding="iso-8859-1"?>
<!-- Generator: Adobe Illustrator 19.0.0, SVG Export Plug-In . SVG Version: 6.00 Build 0)  -->
<svg xmlns="http://www.w3.org/2000/svg" xmlns:xlink="http://www.w3.org/1999/xlink" version="1.1" id="Layer_1" x="0px" y="0px" viewBox="0 0 508 508" style="enable-background:new 0 0 508 508;" xml:space="preserve">
<circle style="fill:#FD8469;" cx="254" cy="254" r="254"/>
<polygon style="fill:#2B3B4E;" points="249.2,179.2 239.2,168.8 217.2,168.8 227.2,179.2 "/>
<polygon style="fill:#324A5E;" points="296,179.2 285.6,168.8 263.6,168.8 274,179.2 "/>
<path style="fill:#E6E9EE;" d="M379.2,396H128.8c-10,0-18.4-8.4-18.4-18.4V216.8c0-10,8.4-18.4,18.4-18.4h250.8  c10,0,18.4,8.4,18.4,18.4v160.8C397.6,387.6,389.6,396,379.2,396z"/>
<path style="fill:#CED5E0;" d="M392,391.2c-3.2,3.2-7.6,4.8-12.4,4.8H128.4c-4.8,0-9.2-2-12.4-4.8l138-114.4L392,391.2z"/>
<path style="fill:#FFFFFF;" d="M392,203.2L254,316.4L116,203.2c3.2-3.2,7.6-4.8,12.4-4.8h251.2C384.4,198.4,388.4,200,392,203.2z"/>
<polygon style="fill:#FFD05B;" points="254,235.6 169.2,150.4 208,150.4 208,74 300,74 300,150.4 338.8,150.4 "/>
<g>
</g>
<g>
</g>
<g>
</g>
<g>
</g>
<g>
</g>
<g>
</g>
<g>
</g>
<g>
</g>
<g>
</g>
<g>
</g>
<g>
</g>
<g>
</g>
<g>
</g>
<g>
</g>
<g>
</g>
</svg>
