<?xml version="1.0" encoding="iso-8859-1"?>
<!-- Generator: Adobe Illustrator 19.0.0, SVG Export Plug-In . SVG Version: 6.00 Build 0)  -->
<svg xmlns="http://www.w3.org/2000/svg" xmlns:xlink="http://www.w3.org/1999/xlink" version="1.1" id="Layer_1" x="0px" y="0px" viewBox="0 0 508 508" style="enable-background:new 0 0 508 508;" xml:space="preserve">
<circle style="fill:#90DFAA;" cx="254" cy="254" r="254"/>
<path style="fill:#2B3B4E;" d="M376.4,122h-128v-15.2c0-4.4-3.6-8-8-8h-73.2c-4.4,0-8,3.6-8,8V122h-27.6c-4.4,0-8,3.6-8,8v214  c0,6.4,5.2,11.6,11.6,11.6h237.2c6.4,0,11.6-5.2,11.6-11.6V130.4C384.4,125.6,380.8,122,376.4,122z"/>
<path style="fill:#324A5E;" d="M395.2,176H271.6c-4,0-6.8,3.2-7.2,6.8l-0.4,20.4c0,3.6-3.2,6.8-6.8,6.8H112.8c-3.6,0-6.4,2.8-6,6.4  l14,134c0.4,2.8,3.6,5.2,6.8,5.2H376c3.2,0,6.4-2.4,6.8-5.2l18.4-167.6C401.6,179.2,398.8,176,395.2,176z"/>
<polygon style="fill:#FFFFFF;" points="254,409.2 177.2,332.4 212.4,332.4 212.4,240.8 295.6,240.8 295.6,332.4 330.8,332.4 "/>
<g>
</g>
<g>
</g>
<g>
</g>
<g>
</g>
<g>
</g>
<g>
</g>
<g>
</g>
<g>
</g>
<g>
</g>
<g>
</g>
<g>
</g>
<g>
</g>
<g>
</g>
<g>
</g>
<g>
</g>
</svg>
