<?xml version="1.0" encoding="iso-8859-1"?>
<!-- Generator: Adobe Illustrator 19.0.0, SVG Export Plug-In . SVG Version: 6.00 Build 0)  -->
<svg xmlns="http://www.w3.org/2000/svg" xmlns:xlink="http://www.w3.org/1999/xlink" version="1.1" id="Layer_1" x="0px" y="0px" viewBox="0 0 508 508" style="enable-background:new 0 0 508 508;" xml:space="preserve">
<circle style="fill:#324A5E;" cx="254" cy="254" r="254"/>
<path style="fill:#F9B54C;" d="M372.4,126.4h-124v-14.8c0-4.4-3.6-8-8-8H170c-4.4,0-8,3.6-8,8v14.8h-26.8c-4.4,0-8,3.6-8,8v206.8  c0,6.4,5.2,11.2,11.2,11.2h229.2c6.4,0,11.2-5.2,11.2-11.2V134.4C380,130,376.4,126.4,372.4,126.4z"/>
<path style="fill:#FFD05B;" d="M390.4,178.8H271.2c-3.6,0-6.8,3.2-6.8,6.8l-0.4,19.6c0,3.6-3.2,6.4-6.8,6.4h-140  c-3.6,0-6,2.8-5.6,6.4l13.6,130c0.4,2.8,3.2,5.2,6.4,5.2H372c3.2,0,6-2.4,6.4-5.2L396,186C396.8,181.6,394,178.8,390.4,178.8z"/>
<polygon style="fill:#FFFFFF;" points="254,241.2 179.6,315.6 213.6,315.6 213.6,404 294.4,404 294.4,315.6 328.4,315.6 "/>
<g>
</g>
<g>
</g>
<g>
</g>
<g>
</g>
<g>
</g>
<g>
</g>
<g>
</g>
<g>
</g>
<g>
</g>
<g>
</g>
<g>
</g>
<g>
</g>
<g>
</g>
<g>
</g>
<g>
</g>
</svg>
