<?xml version="1.0" encoding="iso-8859-1"?>
<!-- Generator: Adobe Illustrator 19.0.0, SVG Export Plug-In . SVG Version: 6.00 Build 0)  -->
<svg xmlns="http://www.w3.org/2000/svg" xmlns:xlink="http://www.w3.org/1999/xlink" version="1.1" id="Layer_1" x="0px" y="0px" viewBox="0 0 508 508" style="enable-background:new 0 0 508 508;" xml:space="preserve">
<circle style="fill:#90DFAA;" cx="254" cy="254" r="254"/>
<path style="fill:#FFFFFF;" d="M383.6,214h-22.4c0-59.2-48-106.8-107.2-106.8S147.2,154.8,146.8,214h-22.4  c-34,0-61.6,27.6-61.6,61.6s27.6,61.6,61.6,61.6h259.2c34,0,61.6-27.6,61.6-61.6S417.6,214,383.6,214z"/>
<g>
	<path style="fill:#324A5E;" d="M248.8,262.4L236,310.8h-12l-8-31.2c-0.4-1.6-0.8-3.6-0.8-5.6l0,0c-0.4,2.4-0.4,4-0.8,5.6l-8.4,31.2   h-12.4l-12.8-48.4h12l6.8,32.4c0.4,1.2,0.4,3.2,0.8,5.6h0.4c0-1.6,0.4-3.6,0.8-5.6l8.8-32H222l8,32.4c0.4,1.2,0.4,2.8,0.8,5.2l0,0   c0-1.6,0.4-3.6,0.8-5.6l6.8-32.4H248.8z"/>
	<path style="fill:#324A5E;" d="M269.6,262.4v8.4h-4v31.6h4v8.4h-19.2v-8.4h4v-31.6h-4v-8.4H269.6z"/>
	<path style="fill:#324A5E;" d="M304.8,271.2h-17.2v12h15.6v8.8h-15.6v18.8h-10.8v-48.4h28V271.2z"/>
	<path style="fill:#324A5E;" d="M327.6,262.4v8.4h-4v31.6h4v8.4h-19.2v-8.4h4v-31.6h-4v-8.4H327.6z"/>
</g>
<g>
	<path style="fill:#CED5E0;" d="M297.6,199.2l-8,8c-19.6-19.6-51.2-19.6-70.8,0l-8-8C234.4,175.2,273.6,175.2,297.6,199.2z"/>
	<path style="fill:#CED5E0;" d="M316.8,180l-8,8c-30-30-79.2-30-109.2,0l-8-8C226,145.2,282,145.2,316.8,180z"/>
	<path style="fill:#CED5E0;" d="M278,218.8l-8,8c-8.8-8.8-22.8-8.8-31.6,0l-8-8C243.2,205.6,264.8,205.6,278,218.8z"/>
</g>
<g>
</g>
<g>
</g>
<g>
</g>
<g>
</g>
<g>
</g>
<g>
</g>
<g>
</g>
<g>
</g>
<g>
</g>
<g>
</g>
<g>
</g>
<g>
</g>
<g>
</g>
<g>
</g>
<g>
</g>
</svg>
