<?xml version="1.0" encoding="iso-8859-1"?>
<!-- Generator: Adobe Illustrator 19.0.0, SVG Export Plug-In . SVG Version: 6.00 Build 0)  -->
<svg xmlns="http://www.w3.org/2000/svg" xmlns:xlink="http://www.w3.org/1999/xlink" version="1.1" id="Layer_1" x="0px" y="0px" viewBox="0 0 508 508" style="enable-background:new 0 0 508 508;" xml:space="preserve">
<circle style="fill:#FFD05B;" cx="254" cy="254" r="254"/>
<path style="fill:#FFFFFF;" d="M387.2,128H120.8c-9.2,0-16.4,7.2-16.4,16.4V316c0,9.2,7.2,16.4,16.4,16.4h28.8l-26,63.6l94-63.6  h169.6c9.2,0,16.4-7.2,16.4-16.4V144C403.2,135.2,396,128,387.2,128z"/>
<path style="fill:#324A5E;" d="M303.6,218.4c-11.6,0-22.8-6.8-26.8-17.6c-7.2-19.2-25.6-33.2-47.6-33.2c-25.2,0-46,18.4-50,42.4  l-15.2,8.8l15.6,9.2c0,0.4,0,0.4,0,0.8c6,35.6,36.8,63.2,74,63.2c41.2,0,74.4-32.8,75.2-73.6H303.6z"/>
<path style="fill:#4CDBC4;" d="M287.6,250.4c-8.4,9.2-22.8,10-32,1.6c-9.2-8.4-10-22.8-1.6-32s53.6-24.8,53.6-24.8  S296.4,241.2,287.6,250.4z"/>
<circle style="fill:#FFFFFF;" cx="205.2" cy="206.8" r="5.6"/>
<g>
</g>
<g>
</g>
<g>
</g>
<g>
</g>
<g>
</g>
<g>
</g>
<g>
</g>
<g>
</g>
<g>
</g>
<g>
</g>
<g>
</g>
<g>
</g>
<g>
</g>
<g>
</g>
<g>
</g>
</svg>
