<?xml version="1.0" encoding="iso-8859-1"?>
<!-- Generator: Adobe Illustrator 19.0.0, SVG Export Plug-In . SVG Version: 6.00 Build 0)  -->
<svg xmlns="http://www.w3.org/2000/svg" xmlns:xlink="http://www.w3.org/1999/xlink" version="1.1" id="Layer_1" x="0px" y="0px" viewBox="0 0 508 508" style="enable-background:new 0 0 508 508;" xml:space="preserve">
<circle style="fill:#FFD05B;" cx="254" cy="254" r="254"/>
<path style="fill:#F9B54C;" d="M43.6,396.4C89.2,463.6,166.4,508,254,508s164.4-44,210.4-111.6H43.6z"/>
<path style="fill:#324A5E;" d="M390.8,111.2H117.2c-4.8,0-8.4,3.6-8.4,8.4v210.8c0,4.8,3.6,8.4,8.4,8.4h273.6c4.8,0,8.4-3.6,8.4-8.4  V119.6C399.2,115.2,395.6,111.2,390.8,111.2z"/>
<rect x="134" y="136.4" style="fill:#E6E9EE;" width="240.4" height="149.6"/>
<polygon style="fill:#2B3B4E;" points="326.8,377.6 181.2,377.6 197.6,338.8 310.4,338.8 "/>
<path style="fill:#324A5E;" d="M344.4,377.6H163.6c-1.6,0-3.2,1.2-3.2,3.2V394c0,1.6,1.2,3.2,3.2,3.2h180.8c1.6,0,3.2-1.2,3.2-3.2  v-13.2C347.2,378.8,346,377.6,344.4,377.6z"/>
<polygon style="fill:#FF7058;" points="240.4,190.4 251.6,250 264,232 280.4,248.8 298.8,230.4 282,214 300,201.6 "/>
<circle style="fill:#2B3B4E;" cx="254" cy="312.4" r="10.8"/>
<g>
</g>
<g>
</g>
<g>
</g>
<g>
</g>
<g>
</g>
<g>
</g>
<g>
</g>
<g>
</g>
<g>
</g>
<g>
</g>
<g>
</g>
<g>
</g>
<g>
</g>
<g>
</g>
<g>
</g>
</svg>
