<?xml version="1.0" encoding="iso-8859-1"?>
<!-- Generator: Adobe Illustrator 19.0.0, SVG Export Plug-In . SVG Version: 6.00 Build 0)  -->
<svg xmlns="http://www.w3.org/2000/svg" xmlns:xlink="http://www.w3.org/1999/xlink" version="1.1" id="Layer_1" x="0px" y="0px" viewBox="0 0 508 508" style="enable-background:new 0 0 508 508;" xml:space="preserve">
<circle style="fill:#84DBFF;" cx="254" cy="254" r="254"/>
<polygon style="fill:#FFFFFF;" points="410,390.8 98,390.8 140.8,258.4 367.2,258.4 "/>
<g>
	<path style="fill:#CED5E0;" d="M235.2,304c-2.4,1.2-2.4,3.6-2.4,5.6c0.4,3.6,1.2,7.6,5.6,9.2c2,0.8,4.4,0.4,6.4,0.4   c2.4,0,5.2,0,7.6-0.4c-0.4,3.2,2.8,6,4,9.2c0.4,1.2,0.4,2.8,0.4,4.4c0.4,3.6,0.8,7.2,2,10.4c0.8,3.2,2.4,6.4,6.4,7.6   c1.2,0.4,3.2,0.8,4,0c1.6-1.2,1.2-4,3.6-4.4c2-3.2,3.6-6.4,5.6-9.6c0.8-1.6,1.6-2.8,1.6-4.4s-0.8-3.2-0.8-4.8   c0.4-4.4,9.2-6.8,8.4-11.2c-2,0.8-4.8,0.4-6.8-0.4c-2-1.2-3.2-2.4-4.8-4c-2-2.4-4-4.8-4-7.2c2-0.8,4.4,0.4,6,1.6   c1.2,1.2,2,3.2,2.8,4.8c1.2,1.6,3.2,3.2,5.6,2.8c0-0.8,0.4-1.2,0.4-2c1.6,0,3.6-0.4,4.8-1.2c1.2-0.8,2-2.4,0.8-3.2   c-1.2-0.8-2.8-0.8-4-1.2c-2.8-0.4-5.2-2.4-4.4-4c1.2-0.8,3.2-0.4,4.4,0.4c1.6,0.8,2.8,1.6,4.4,2c2.8,0.8,5.6,0,8.4,0.8   s4.4,2.8,5.6,4.4c2,2.4,4,5.2,6,8c0.8,0,1.6-0.4,1.6-1.2c0-0.8-0.4-1.2,0-2c0-1.2,0.8-2,2-2.8c2-1.6,4.4-3.2,6.4-4.8   c0,2.4,3.2,4.4,6,5.6c2.8,1.6,6.4,2.8,8,4.8c0.8,0,1.6,0,2.4,0c0.4-1.6,0-3.2-1.6-4.4c-0.8-0.8-2-1.6-2.8-2.4s-1.6-2-0.8-2.8   c0.4-0.4,1.6-0.8,2.4-0.8c2,0,4.4,0.4,6.8,0c2-0.4,3.6-2,2.4-3.6c-0.4-0.4-1.2-1.2-2-1.6c-1.2-0.8-2.8-1.6-3.6-2.4   c-1.6-1.2-2.8-3.6-1.2-4c2.8-1.2,6,4,9.2,3.6c-1.2-1.6-2.4-3.6-4-5.2c2,0,3.6-1.2,3.6-2.4c0-1.2-1.2-2.8-3.2-3.2   c-0.8-0.4-2-0.4-2.8-0.8s-2-1.2-1.6-1.6c0-0.4,0.4-0.4,0.8-0.8c2.4-1.2,5.6-2,8.8-2.4c0.8,1.2,1.6,2,2.4,3.2   c0.4,0.4,0.8,1.2,1.2,1.2c0.8,0.4,1.6,0.4,2,0c0.8-0.8-2.8-2.4-1.6-3.2c1.6,0,3.6-0.4,4-1.2c0.4-1.2-2-2.8-4-3.2   c-4.4-0.8-8.8,0.4-13.6,0c-2-0.4-4.4-0.8-6.4-1.2c-6-0.8-12,0.4-18,0c-4-0.4-8-1.2-12-2s-8-0.8-11.6,0.4c-0.8,0.4-1.6,0.8-2,1.2   c-0.4,0.4-0.4,0.8-0.4,1.2c-0.4,0.4-1.6,0.8-2.4,0.8c-2.8,0.4-6-0.8-8.8-0.4c-1.6,0.4-3.2,0.8-4.8,1.2c-1.6,0.4-3.6,0.4-4.8-0.4   c1.6,0,3.2-0.4,4.4-0.4c-2.8-0.4-5.6-0.8-8.8-0.8c-1.6,0-3.6-0.4-5.2,0c-4,0.4-6.8,2.8-8.4,5.2c1.2,0,2,0.4,3.2,0.4   c0.4,0.4,0.4,0.8,0.4,1.2c1.6,0.4,3.2,0.4,4.4,0.4c0.4-0.8,0.4-1.6,0-2.8c1.2,0,2.4-0.4,3.2-0.4c-0.8,0.8,0.8,2,0.8,3.2   s-1.6,2-3.2,2.4c-3.2,0.8-6.8,0.4-10.4,0.8c-3.6,0.4-6.8,2.8-6,5.2c-1.6,0.4-3.6,0.8-5.2,0.4c-0.8,0.8-1.2,2.4-1.2,3.6   c2,1.2,5.6,0.8,6.8-0.8c0.8-0.8,0.8-1.6,2-2.4c1.2-0.4,3.2,0,4.4-0.4c0.8-0.4,1.2-0.8,2-1.2c2.4-0.8,4.8,2,7.2,1.2   c-0.8,1.2,2,2.4,4,2.4c1.6,0.4,2.8,0.4,4.4,0.8c1.2,0.4,2.8,0.4,3.6,1.2c1.2,0.8,1.6,2,0.4,2.4c-4.8,0.4-9.2,0.4-14,0.8   c-1.6,0-2.8,0-4.4,0c-3.6-0.4-7.2-2-10,0c-0.4,0.4-0.8,0.8-1.6,1.2C241.6,303.6,238,302.8,235.2,304z"/>
	<path style="fill:#CED5E0;" d="M344.8,326c-0.4-0.8-2.4-1.2-3.2-2c-0.8-0.8,0-2,0.8-2.4s2.4-0.4,3.2-0.8c0.8-0.4,1.6-1.2,1.6-2.4   c0-0.4,0-0.4,0-0.8h0.4c1.2,0,2,0,3.2,0c1.6,1.6-2,3.6-0.4,5.2c0.4,0.4,0.8,0.4,0.8,0.8c0.4,0.4,0,1.2-0.4,1.2   c-0.4,0.4-1.2,0.4-1.6,0.4C348,326,346.4,326,344.8,326z"/>
	<path style="fill:#CED5E0;" d="M375.6,332.4c1.6,0.8,0.8,2.8,2,4c0.4,0.4,1.2,0.8,1.6,1.2c0.4,0.4,0.4,0.8,0.4,1.2   c0.8,2,4,3.2,5.2,4.8c1.2,1.6,0.4,3.6-0.4,4.8c-1.2,2-3.6,4.4-6.8,4.4c-3.2,0.4-7.2-1.2-9.2-4c-0.8,0.4-2.4,0-3.6-0.4   s-2.4-1.2-3.6-1.6c-0.8,0-2,0-2.8,0c-2,0.4-4,1.2-6,2.4c-2-2.8-3.6-5.6-5.6-8c0-0.4-0.4-0.4-0.4-0.8c-0.4-1.2,1.2-1.6,2.4-2   c1.2,0,2.8,0,4-0.8c0.4-0.4,0.8-0.8,1.2-1.2c1.6-2,4.4-3.6,7.6-3.6c0.4,0,0.8,0,1.2-0.4c0.4,0,0.4-0.4,0.4-0.8   c0.4-0.8,2-1.2,3.6-0.8c-0.4,1.2,0.4,2.4,1.6,3.2c1.2,0.8,3.2,1.2,4.4,0.8c0.4,0,0.4,0,0.8-0.4c0-0.4,0-0.4-0.4-0.8   C373.6,333.6,374.4,332,375.6,332.4z"/>
	<path style="fill:#CED5E0;" d="M220.8,283.2c0.4,0,0.4,0,0.8-0.4c0.4-0.4,0.4-0.8,0.4-1.2c0.4-0.8,1.6-1.2,2.8-1.2   c0.4,0,1.2-0.4,1.6-0.4c0.8,0,2-0.8,2-1.2c0.8,0,2,0,2.8-0.4c1.6-0.4,2.4-1.6,2.4-2.8c0.8,0.4,2,0,2.8-0.8c0.4-0.8,0-1.6-0.8-1.6   c-0.4,0-0.8,0-1.2,0c-5.6-0.4-11.2-0.8-16.8-0.8c-1.2,0-2.4,0-3.2,0.8s0.4,1.6,0.8,2.4c0,0.4,0,0.8,0,1.2c0,0.4,0.4,0.4,0.8,0.8   c1.2,1.6-2,3.2-1.2,4.8c0.4,0.8,1.6,1.2,2.4,1.2C218.4,283.6,219.6,283.2,220.8,283.2z"/>
	<path style="fill:#CED5E0;" d="M165.6,302c1.2-0.4,2.8,0,4-0.4c0.8-0.4,1.6-0.8,2-0.8c2-0.8,4,0.4,4.4,1.6c0.8,1.2,0.4,2.8-0.4,4   c2.4-0.4,4-3.2,2-4c2.8-0.4,4.4-2.4,6.4-4c2.4-1.6,6-2.8,6.4-5.2c1.6,0.4,3.2,0.4,4.8,0.4c0.4-1.2,0.4-2.4-0.4-3.6   c1.2-0.4,2.8-0.8,4-0.8c0,1.2,2,1.2,3.6,0.8c0.4,0.8,0.4,1.2,0,2c1.2,0.4,2.4,0.4,3.6,0c0.4-2,0-3.6-0.8-5.2   c-0.8-1.2-2-2.4-1.2-3.6c-0.4,0-1.2,0-1.6,0c-0.4,1.2-2,2-3.6,2c0-1.2,0-2,0-3.2c-1.2,0.4-2.4,0-2.4-0.8s1.2-1.6,2.4-2   s2.4-0.4,3.6-0.4c0.4,0.8,0.4,1.6,0,2.8c1.2,0,2,0,3.2,0c0-0.8-0.4-1.2-0.8-1.6c0.8-0.4,1.6-0.4,2.4-0.8c-1.2,0-2.4-0.4-3.6-0.8   c-0.8-0.4-1.2-1.6-0.4-2.4c-2.4-0.4-5.2-0.4-7.6-0.8c-1.6,0-3.2-0.4-4.4,0c-2,0.4-4,1.6-6,2c-1.6,0-3.6,0-4,0.8c0,0.4,0,0.4,0,0.8   c-0.4,0.8-2.4,0.8-4,0.4c-2.4-0.4-5.2-0.8-8-0.8c-7.2-0.4-14.8-0.4-21.6,2.4c-2.8,1.2-5.2,2.4-7.2,3.6c2.4,1.2,6.4-0.8,9.6-0.8   c2.4,0,4,0.8,5.6,2c0,2.8-1.2,6-3.2,8.8c-0.4,0.8-1.2,1.2-1.2,2s0,1.2,0.4,2c1.2,2.4,2.4,5.2,3.2,7.6c0.4,0.8,0.8,1.6,1.2,2.4   c0.4,1.2,1.2,2.4,2.4,3.6c2.4,1.6,6.8,1.6,8.4,3.6c0.4,0.4,0.4,0.8,0.8,1.2c1.2,1.2,3.2,1.2,4.8,1.6s3.2,2,2,3.2   c-0.4,0.4-0.8,0.8-1.6,1.2c-2.4,2-2.4,4.8-0.8,7.2c1.6,2,4,4,5.2,6c2.8,4.4,0.8,10.4,0.8,16c0,4.8,1.2,9.2,4,13.2   c0.8,1.2,2.4,2.4,4,1.6c0.8-0.8,0.8-1.6,0.8-2.8c-0.4-2.4-0.8-4.8-0.8-7.2c2.8-0.4,5.2-3.2,4.4-5.2c2.8,0.4,5.2-2,6-4   c1.2-2,2-4.4,4.4-5.6c1.2-0.4,2.8-0.8,4-1.6c2-1.6,0.8-4,2.4-5.6c0.8-0.8,2-1.2,3.2-2c2.4-2,0.8-4.8-2-6.4c-2.4-1.2-6-1.6-8.4-3.2   c-1.2-0.8-2.4-2-3.6-2.8c-2-1.6-4.8-2.8-7.6-4c-2.4-0.8-4.8-2-8-1.6c-1.6,0.4-3.2,0.8-5.2,1.2c-1.6,0.4-3.6,0.4-4.4-0.8   c-0.4-0.8-0.4-1.6-0.4-2.4s-1.2-1.6-2.4-1.2c0.4-1.2,0.8-2,1.2-3.2c0-0.8-1.6-0.8-2.8-0.4s-2,1.2-3.2,1.6c-1.2,0-2.4-0.8-2.4-1.6   c0-0.8,0.4-2,0.8-2.8C163.2,304,164,302.4,165.6,302z"/>
</g>
<path style="fill:#FF7058;" d="M254.4,61.6c-44.4,0-80.4,36-80.4,80.8c0,44.4,80.4,159.6,80.4,159.6s80.8-115.2,80.8-159.6  C335.2,97.6,299.2,61.6,254.4,61.6z M254.4,186.8c-24.8,0-45.2-20-45.2-45.2c0-24.8,20-45.2,45.2-45.2c24.8,0,45.2,20,45.2,45.2  S279.6,186.8,254.4,186.8z"/>
<g>
</g>
<g>
</g>
<g>
</g>
<g>
</g>
<g>
</g>
<g>
</g>
<g>
</g>
<g>
</g>
<g>
</g>
<g>
</g>
<g>
</g>
<g>
</g>
<g>
</g>
<g>
</g>
<g>
</g>
</svg>
