<?xml version="1.0" encoding="iso-8859-1"?>
<!-- Generator: Adobe Illustrator 19.0.0, SVG Export Plug-In . SVG Version: 6.00 Build 0)  -->
<svg xmlns="http://www.w3.org/2000/svg" xmlns:xlink="http://www.w3.org/1999/xlink" version="1.1" id="Layer_1" x="0px" y="0px" viewBox="0 0 508 508" style="enable-background:new 0 0 508 508;" xml:space="preserve">
<circle style="fill:#FD8469;" cx="254" cy="254" r="254"/>
<path style="fill:#FFFFFF;" d="M380,215.2h-9.2c0-43.2-35.2-78.4-78.4-78.4c-6.4,0-12.8,0.8-18.8,2.4  c-16.8-25.2-45.2-41.6-77.2-41.6c-51.2,0-92.8,41.6-92.8,92.8c0,10,1.6,19.6,4.4,28.4c-20.4,8-34.8,27.6-34.8,50.8l0,0  c0,30,24.4,54.4,54.4,54.4H380c30,0,54.4-24.4,54.4-54.4l0,0C434.8,239.6,410.4,215.2,380,215.2z"/>
<path style="fill:#54C0EB;" d="M229.6,188.4l27.6,37.6L242,267.6l-44,2L170.4,232c-6.4,19.2-4,41.2,9.2,58.8  c13.6,18.8,35.6,27.6,57.2,26l66,89.6c3.2,4.4,9.2,5.2,13.2,2l38.8-28.8c4.4-3.2,5.2-9.2,2-13.2l-66-89.6c8-20,6-43.6-8-62.4  C270,196.8,250,188,229.6,188.4z"/>
<g>
</g>
<g>
</g>
<g>
</g>
<g>
</g>
<g>
</g>
<g>
</g>
<g>
</g>
<g>
</g>
<g>
</g>
<g>
</g>
<g>
</g>
<g>
</g>
<g>
</g>
<g>
</g>
<g>
</g>
</svg>
