<?xml version="1.0" encoding="iso-8859-1"?>
<!-- Generator: Adobe Illustrator 19.0.0, SVG Export Plug-In . SVG Version: 6.00 Build 0)  -->
<svg xmlns="http://www.w3.org/2000/svg" xmlns:xlink="http://www.w3.org/1999/xlink" version="1.1" id="Layer_1" x="0px" y="0px" viewBox="0 0 508 508" style="enable-background:new 0 0 508 508;" xml:space="preserve">
<circle style="fill:#FFD05B;" cx="254" cy="254" r="254"/>
<path style="fill:#324A5E;" d="M390.8,141.2c-77.2,8.8-117.6-25.2-131.2-40c-2.8-3.2-8-3.2-10.8,0c-13.6,14.8-54,48.8-131.2,40  c-4.4-0.4-8,2.8-8,7.2v69.2c0,0,5.6,175.6,144.8,207.6c139.2-32.4,144.8-207.6,144.8-207.6v-69.2C398.8,144,395.2,140.4,390.8,141.2  z"/>
<path style="fill:#FF7058;" d="M254,264.8v136l0,0c74-20,102.8-88.4,114-136H254z"/>
<path style="fill:#FFFFFF;" d="M368,264.8c6-24.8,6.8-44,7.2-47.6V166c-3.2,0-6,0-9.2,0c-56,0-92.4-21.2-112-37.6l0,0v136h114V264.8  z"/>
<path style="fill:#FF7058;" d="M254,128.8c-19.6,16.4-56,37.6-112,37.6c-2.8,0-6,0-9.2,0v50.8c0,3.6,1.2,22.8,7.2,47.6h114V128.8z"/>
<path style="fill:#FFFFFF;" d="M140,264.8c11.2,47.6,40,116,114,136v-136H140z"/>
<g>
</g>
<g>
</g>
<g>
</g>
<g>
</g>
<g>
</g>
<g>
</g>
<g>
</g>
<g>
</g>
<g>
</g>
<g>
</g>
<g>
</g>
<g>
</g>
<g>
</g>
<g>
</g>
<g>
</g>
</svg>
