<?xml version="1.0" encoding="iso-8859-1"?>
<!-- Generator: Adobe Illustrator 19.0.0, SVG Export Plug-In . SVG Version: 6.00 Build 0)  -->
<svg xmlns="http://www.w3.org/2000/svg" xmlns:xlink="http://www.w3.org/1999/xlink" version="1.1" id="Layer_1" x="0px" y="0px" viewBox="0 0 508 508" style="enable-background:new 0 0 508 508;" xml:space="preserve">
<circle style="fill:#324A5E;" cx="254" cy="254" r="254"/>
<polygon style="fill:#FFFFFF;" points="193.6,92.4 368,92.4 368,399.6 116,399.6 116,170 "/>
<polygon style="fill:#E6E9EE;" points="193.6,170 116,170 193.6,92.4 "/>
<rect x="174" y="280.8" style="fill:#84DBFF;" width="33.6" height="83.2"/>
<rect x="225.2" y="240.4" style="fill:#FF7058;" width="33.6" height="123.6"/>
<rect x="276.4" y="210.8" style="fill:#FFD05B;" width="33.6" height="153.2"/>
<polygon style="fill:#CED5E0;" points="330.8,367.6 320.8,357.6 320.8,364 161.6,364 161.6,206.4 168,206.4 158,196.4 148,206.4   154.4,206.4 154.4,364 154.4,371.2 161.6,371.2 320.8,371.2 320.8,377.6 "/>
<g>
</g>
<g>
</g>
<g>
</g>
<g>
</g>
<g>
</g>
<g>
</g>
<g>
</g>
<g>
</g>
<g>
</g>
<g>
</g>
<g>
</g>
<g>
</g>
<g>
</g>
<g>
</g>
<g>
</g>
</svg>
