<?xml version="1.0" encoding="iso-8859-1"?>
<!-- Generator: Adobe Illustrator 19.0.0, SVG Export Plug-In . SVG Version: 6.00 Build 0)  -->
<svg xmlns="http://www.w3.org/2000/svg" xmlns:xlink="http://www.w3.org/1999/xlink" version="1.1" id="Layer_1" x="0px" y="0px" viewBox="0 0 508 508" style="enable-background:new 0 0 508 508;" xml:space="preserve">
<circle style="fill:#90DFAA;" cx="254" cy="254" r="254"/>
<polygon style="fill:#FFFFFF;" points="183.2,88.4 358,88.4 358,395.6 106,395.6 106,166 "/>
<g>
	<polygon style="fill:#E6E9EE;" points="183.2,166 106,166 183.2,88.4  "/>
	<rect x="140.8" y="193.6" style="fill:#E6E9EE;" width="176" height="9.6"/>
	<rect x="140.8" y="237.2" style="fill:#E6E9EE;" width="176" height="9.6"/>
	<rect x="140.8" y="280.8" style="fill:#E6E9EE;" width="176" height="9.6"/>
	<rect x="140.8" y="324.4" style="fill:#E6E9EE;" width="176" height="9.6"/>
</g>
<polygon style="fill:#324A5E;" points="285.6,359.2 264.4,338 257.6,366 "/>
<polygon style="fill:#E6E9EE;" points="324.4,349.6 336.4,337.6 286,286.8 274,298.8 264.4,338 285.6,359.2 "/>
<path style="fill:#F1543F;" d="M299.2,324.4L299.2,324.4c-7.2-7.2-7.2-18.8,0-26l83.2-83.2l26,26l-83.2,83.2  C318,331.6,306.4,331.6,299.2,324.4z"/>
<g>
	<path style="fill:#FF7058;" d="M420.8,253.2l-12.4-12.4l-83.2,83.6c-6.8,6.8-7.2,18-0.8,25.2L420.8,253.2z"/>
	<path style="fill:#FF7058;" d="M370,202.8l12.4,12.4l-83.2,83.2c-6.8,6.8-18,7.2-25.2,0.8L370,202.8z"/>
</g>
<path style="fill:#324A5E;" d="M438.8,222.4l-38-38c-3.6-3.6-9.2-3.6-12.4,0L370,202.8l50.8,50.8l18.4-18.4  C442.4,231.6,442.4,226,438.8,222.4z"/>
<g>
</g>
<g>
</g>
<g>
</g>
<g>
</g>
<g>
</g>
<g>
</g>
<g>
</g>
<g>
</g>
<g>
</g>
<g>
</g>
<g>
</g>
<g>
</g>
<g>
</g>
<g>
</g>
<g>
</g>
</svg>
