<?xml version="1.0" encoding="iso-8859-1"?>
<!-- Generator: Adobe Illustrator 19.0.0, SVG Export Plug-In . SVG Version: 6.00 Build 0)  -->
<svg xmlns="http://www.w3.org/2000/svg" xmlns:xlink="http://www.w3.org/1999/xlink" version="1.1" id="Layer_1" x="0px" y="0px" viewBox="0 0 508 508" style="enable-background:new 0 0 508 508;" xml:space="preserve">
<circle style="fill:#324A5E;" cx="254" cy="254" r="254"/>
<path style="fill:#E6E9EE;" d="M315.2,110.8H139.6c-6.8,0-12,5.6-12,12v262.4c0,6.8,5.6,12,12,12h175.6c6.8,0,12-5.6,12-12V122.8  C327.2,116,322,110.8,315.2,110.8z"/>
<rect x="143.6" y="150.4" style="fill:#54C0EB;" width="167.6" height="207.2"/>
<g>
	<path style="fill:#CED5E0;" d="M248,135.2h-41.6c-2.4,0-4.4-2-4.4-4.4l0,0c0-2.4,2-4.4,4.4-4.4H248c2.4,0,4.4,2,4.4,4.4l0,0   C252.8,133.2,250.8,135.2,248,135.2z"/>
	<circle style="fill:#CED5E0;" cx="227.2" cy="377.6" r="9.6"/>
	<path style="fill:#CED5E0;" d="M190.4,126h-2c-2.4,0-4.4,2-4.4,4.4s2,4.4,4.4,4.4h2c2.4,0,4.4-2,4.4-4.4   C195.2,128,192.8,126,190.4,126z"/>
</g>
<path style="fill:#FFFFFF;" d="M344.8,157.2c-50.4,0-91.2,33.2-91.2,74.4c0,20.4,10,38.4,26,52l0,0l-20,39.2l46.4-24l0,0  c12,4.4,25.2,7.2,38.8,7.2c50.4,0,91.2-33.2,91.2-74.4S395.2,157.2,344.8,157.2z"/>
<g>
	<rect x="297.2" y="198.4" style="fill:#E6E9EE;" width="98.8" height="12.4"/>
	<rect x="297.2" y="225.6" style="fill:#E6E9EE;" width="98.8" height="12.4"/>
	<rect x="297.2" y="253.2" style="fill:#E6E9EE;" width="98.8" height="12.4"/>
</g>
<g>
</g>
<g>
</g>
<g>
</g>
<g>
</g>
<g>
</g>
<g>
</g>
<g>
</g>
<g>
</g>
<g>
</g>
<g>
</g>
<g>
</g>
<g>
</g>
<g>
</g>
<g>
</g>
<g>
</g>
</svg>
