<?xml version="1.0" encoding="iso-8859-1"?>
<!-- Generator: Adobe Illustrator 19.0.0, SVG Export Plug-In . SVG Version: 6.00 Build 0)  -->
<svg xmlns="http://www.w3.org/2000/svg" xmlns:xlink="http://www.w3.org/1999/xlink" version="1.1" id="Layer_1" x="0px" y="0px" viewBox="0 0 508 508" style="enable-background:new 0 0 508 508;" xml:space="preserve">
<circle style="fill:#84DBFF;" cx="254" cy="254" r="254"/>
<circle style="fill:#324A5E;" cx="254" cy="87.2" r="24.4"/>
<path style="fill:#FFFFFF;" d="M100.8,236l30.8,171.6c1.2,6,6,10,12,10H364c6,0,11.2-4.4,12-10L406.8,236H100.8z M184.4,392.8  c-7.6,0-16.8-23.6-20.4-55.2c-4-34.4-0.4-64.4,8.4-64.4c9.2,0,18.8,30.4,21.6,64.4C196.8,369.2,192.4,392.8,184.4,392.8z M269.2,338  c-0.8,31.6-7.2,55.2-15.2,55.2s-14.4-23.6-15.2-55.2c-0.8-34.4,6-64.4,15.2-64.4C263.2,273.2,269.6,303.6,269.2,338z M344,338  c-3.6,31.6-12.8,55.2-20.4,55.2s-12-23.6-9.6-55.2c2.8-34.4,12.4-64.4,21.6-64.4S348,303.6,344,338z"/>
<path style="fill:#FF7058;" d="M421.6,182H86.4c-4,0-7.2,3.2-7.2,6.8v48.8c0,3.6,3.2,6.8,7.2,6.8h334.8c4,0,7.2-3.2,7.2-6.8v-48.8  C428.4,185.2,425.2,182,421.6,182z"/>
<circle style="fill:#324A5E;" cx="254" cy="213.2" r="21.6"/>
<path style="fill:#FFFFFF;" d="M254,220L254,220c-8,0-14.4-6.4-14.4-14.4V87.2c0-8,6.4-14.4,14.4-14.4l0,0c8,0,14.4,6.4,14.4,14.4  v118C268.4,213.6,262,220,254,220z"/>
<circle style="fill:#324A5E;" cx="254" cy="87.2" r="5.6"/>
<path style="fill:#54C0EB;" d="M59.2,417.2C106,472.8,175.6,508,254,508s148-35.2,194.8-90.8H59.2z"/>
<g>
</g>
<g>
</g>
<g>
</g>
<g>
</g>
<g>
</g>
<g>
</g>
<g>
</g>
<g>
</g>
<g>
</g>
<g>
</g>
<g>
</g>
<g>
</g>
<g>
</g>
<g>
</g>
<g>
</g>
</svg>
