<?xml version="1.0" encoding="iso-8859-1"?>
<!-- Generator: Adobe Illustrator 19.0.0, SVG Export Plug-In . SVG Version: 6.00 Build 0)  -->
<svg xmlns="http://www.w3.org/2000/svg" xmlns:xlink="http://www.w3.org/1999/xlink" version="1.1" id="Layer_1" x="0px" y="0px" viewBox="0 0 508 508" style="enable-background:new 0 0 508 508;" xml:space="preserve">
<circle style="fill:#90DFAA;" cx="254" cy="254" r="254"/>
<path style="fill:#FFFFFF;" d="M298,264V112c0-24.4-19.6-44-44-44l0,0c-24.4,0-44,19.6-44,44v152c-29.2,15.6-49.2,46.8-49.2,82.4  c0,51.6,42,93.6,93.6,93.6s93.2-42,93.2-93.6C347.6,310.8,327.6,280,298,264z"/>
<path style="fill:#FF7058;" d="M284.8,288.8l-14.8-8V118h-32.4v162.8l-14.8,8c-21.6,11.6-34.8,33.6-34.8,58  c0,36.4,29.6,65.6,65.6,65.6c36.4,0,65.6-29.6,65.6-65.6C319.6,322.4,306.4,300,284.8,288.8z"/>
<g>
	<rect x="151.2" y="98.4" style="fill:#FFFFFF;" width="39.6" height="8"/>
	<rect x="165.6" y="124" style="fill:#FFFFFF;" width="24.8" height="8"/>
	<rect x="151.2" y="154.8" style="fill:#FFFFFF;" width="39.6" height="8"/>
	<rect x="165.6" y="180.8" style="fill:#FFFFFF;" width="24.8" height="8"/>
	<rect x="151.2" y="211.2" style="fill:#FFFFFF;" width="39.6" height="8"/>
	<rect x="165.6" y="237.2" style="fill:#FFFFFF;" width="24.8" height="8"/>
	
		<ellipse transform="matrix(-0.8054 -0.5927 0.5927 -0.8054 211.519 722.2811)" style="fill:#FFFFFF;" cx="224.321" cy="326.42" rx="14" ry="21.6"/>
</g>
<g>
</g>
<g>
</g>
<g>
</g>
<g>
</g>
<g>
</g>
<g>
</g>
<g>
</g>
<g>
</g>
<g>
</g>
<g>
</g>
<g>
</g>
<g>
</g>
<g>
</g>
<g>
</g>
<g>
</g>
</svg>
