<?xml version="1.0" encoding="iso-8859-1"?>
<!-- Generator: Adobe Illustrator 19.0.0, SVG Export Plug-In . SVG Version: 6.00 Build 0)  -->
<svg xmlns="http://www.w3.org/2000/svg" xmlns:xlink="http://www.w3.org/1999/xlink" version="1.1" id="Layer_1" x="0px" y="0px" viewBox="0 0 508 508" style="enable-background:new 0 0 508 508;" xml:space="preserve">
<circle style="fill:#FFD05B;" cx="254" cy="254" r="254"/>
<path style="fill:#FFFFFF;" d="M365.6,103.6H142.4c-7.2,0-12.8,5.6-12.8,12.8V392c0,7.2,5.6,12.8,12.8,12.8H366  c7.2,0,12.8-5.6,12.8-12.8V116C378.4,109.2,372.8,103.6,365.6,103.6z"/>
<rect x="161.6" y="131.6" style="fill:#54C0EB;" width="185.2" height="58"/>
<g>
	<rect x="161.6" y="222" style="fill:#E6E9EE;" width="32.8" height="32.8"/>
	<rect x="237.6" y="222" style="fill:#E6E9EE;" width="32.8" height="32.8"/>
	<rect x="314" y="222" style="fill:#E6E9EE;" width="32.8" height="32.8"/>
	<rect x="161.6" y="278.4" style="fill:#E6E9EE;" width="32.8" height="32.8"/>
	<rect x="237.6" y="278.4" style="fill:#E6E9EE;" width="32.8" height="32.8"/>
	<rect x="314" y="278.4" style="fill:#E6E9EE;" width="32.8" height="32.8"/>
	<rect x="161.6" y="334.8" style="fill:#E6E9EE;" width="32.8" height="32.8"/>
	<rect x="237.6" y="334.8" style="fill:#E6E9EE;" width="32.8" height="32.8"/>
</g>
<rect x="314" y="334.8" style="fill:#FF7058;" width="32.8" height="32.8"/>
<g>
</g>
<g>
</g>
<g>
</g>
<g>
</g>
<g>
</g>
<g>
</g>
<g>
</g>
<g>
</g>
<g>
</g>
<g>
</g>
<g>
</g>
<g>
</g>
<g>
</g>
<g>
</g>
<g>
</g>
</svg>
