<?xml version="1.0" encoding="iso-8859-1"?>
<!-- Generator: Adobe Illustrator 19.0.0, SVG Export Plug-In . SVG Version: 6.00 Build 0)  -->
<svg xmlns="http://www.w3.org/2000/svg" xmlns:xlink="http://www.w3.org/1999/xlink" version="1.1" id="Layer_1" x="0px" y="0px" viewBox="0 0 508 508" style="enable-background:new 0 0 508 508;" xml:space="preserve">
<circle style="fill:#84DBFF;" cx="254" cy="254" r="254"/>
<path style="fill:#FF7058;" d="M366.8,103.2H141.2c-8.4,0-15.2,6.8-15.2,15.2v280.8c0,8.4,6.8,15.2,15.2,15.2h225.6  c8.4,0,15.2-6.8,15.2-15.2V118C382,109.6,375.2,103.2,366.8,103.2z"/>
<polygon style="fill:#FFFFFF;" points="356,128.8 152,128.8 152,388.4 289.6,388.4 356,322 "/>
<polygon style="fill:#E6E9EE;" points="289.6,388.4 356,322 289.6,322 "/>
<path style="fill:#324A5E;" d="M298.8,97.6h-20.4V62c0-4.4-3.6-8-8-8H238c-4.4,0-8,3.6-8,8v35.6h-20.4c-4.4,0-8,3.6-8,8v42.8h105.2  v-42.8C306.4,101.2,303.2,97.6,298.8,97.6z M254,83.6c-4.4,0-8-3.6-8-8s3.6-8,8-8s8,3.6,8,8S258.4,83.6,254,83.6z"/>
<g>
	<rect x="178.4" y="184.4" style="fill:#E6E9EE;" width="151.2" height="9.6"/>
	<rect x="178.4" y="225.2" style="fill:#E6E9EE;" width="151.2" height="9.6"/>
	<rect x="178.4" y="265.6" style="fill:#E6E9EE;" width="151.2" height="9.6"/>
	<rect x="178.4" y="306.4" style="fill:#E6E9EE;" width="77.2" height="9.6"/>
</g>
<g>
</g>
<g>
</g>
<g>
</g>
<g>
</g>
<g>
</g>
<g>
</g>
<g>
</g>
<g>
</g>
<g>
</g>
<g>
</g>
<g>
</g>
<g>
</g>
<g>
</g>
<g>
</g>
<g>
</g>
</svg>
