<?xml version="1.0" encoding="iso-8859-1"?>
<!-- Generator: Adobe Illustrator 19.0.0, SVG Export Plug-In . SVG Version: 6.00 Build 0)  -->
<svg xmlns="http://www.w3.org/2000/svg" xmlns:xlink="http://www.w3.org/1999/xlink" version="1.1" id="Layer_1" x="0px" y="0px" viewBox="0 0 508 508" style="enable-background:new 0 0 508 508;" xml:space="preserve">
<circle style="fill:#324A5E;" cx="254" cy="254" r="254"/>
<polygon style="fill:#CED5E0;" points="158.4,384.8 123.2,349.6 112.4,396 "/>
<polygon style="fill:#FFFFFF;" points="222.8,368.8 242.4,349.2 158.8,265.2 138.8,285.2 123.2,349.6 158.4,384.8 "/>
<path style="fill:#E6E9EE;" d="M180.8,327.2L180.8,327.2c-12-12-12-31.2,0-43.2l138-138l43.2,43.6L224.4,327.2  C212.4,339.2,192.8,339.2,180.8,327.2z"/>
<g>
	<path style="fill:#CED5E0;" d="M382,209.6l-20.4-20.4L224,326.8c-11.6,11.6-12,30-1.2,42L382,209.6z"/>
	<path style="fill:#CED5E0;" d="M298.4,125.6l20.4,20.4l-138,138c-11.6,11.6-30,12-42,1.2L298.4,125.6z"/>
</g>
<path style="fill:#FF7058;" d="M412.4,158.4l-63.2-62.8c-5.6-5.6-15.2-5.6-20.8,0L298,126l84,84l30.4-30.4  C418,173.6,418,164.4,412.4,158.4z"/>
<g>
</g>
<g>
</g>
<g>
</g>
<g>
</g>
<g>
</g>
<g>
</g>
<g>
</g>
<g>
</g>
<g>
</g>
<g>
</g>
<g>
</g>
<g>
</g>
<g>
</g>
<g>
</g>
<g>
</g>
</svg>
