<?xml version="1.0" encoding="iso-8859-1"?>
<!-- Generator: Adobe Illustrator 19.0.0, SVG Export Plug-In . SVG Version: 6.00 Build 0)  -->
<svg xmlns="http://www.w3.org/2000/svg" xmlns:xlink="http://www.w3.org/1999/xlink" version="1.1" id="Layer_1" x="0px" y="0px" viewBox="0 0 508 508" style="enable-background:new 0 0 508 508;" xml:space="preserve">
<circle style="fill:#90DFAA;" cx="254" cy="254" r="254"/>
<path style="fill:#324A5E;" d="M264.4,375.6h-22V42.8c0-6,4.8-11.2,11.2-11.2l0,0c6,0,11.2,4.8,11.2,11.2v332.8H264.4z"/>
<g>
	<path style="fill:#FFFFFF;" d="M254,52L254,52L254,52z"/>
	<path style="fill:#FFFFFF;" d="M254,52L254,52L254,52z"/>
</g>
<path style="fill:#F1543F;" d="M136,240L136,240c-21.6,0-39.2-17.6-39.2-39.2v-10.4h78.8v10.4C175.2,222.4,157.6,240,136,240z"/>
<path style="fill:#E6E9EE;" d="M214.8,240L214.8,240c-21.6,0-39.2-17.6-39.2-39.2v-10.4H254v10.4C254,222.4,236.4,240,214.8,240z"/>
<path style="fill:#CED5E0;" d="M293.2,240L293.2,240c-21.6,0-39.2-17.6-39.2-39.2v-10.4h78.8v10.4C332.8,222.4,315.2,240,293.2,240z  "/>
<path style="fill:#F1543F;" d="M372,240L372,240c-21.6,0-39.2-17.6-39.2-39.2v-10.4h78.8v10.4C411.6,222.4,394,240,372,240z"/>
<path style="fill:#FF7058;" d="M332.8,190.4h78.8C397.6,116,332.4,60,254,60l0,0C336,106.8,332.8,190.4,332.8,190.4z"/>
<path style="fill:#FFFFFF;" d="M254,60c-82,46.8-78.8,130.4-78.8,130.4H254V60L254,60z"/>
<path style="fill:#E6E9EE;" d="M254,60v130.4h78.8C332.8,190.4,336,106.8,254,60z"/>
<path style="fill:#FF7058;" d="M254,60L254,60c-78.4,0-143.6,56-157.6,130.4h78.8C175.2,190.4,172,106.8,254,60z"/>
<path style="fill:#2C9984;" d="M31.2,376C74.4,454.8,158,508,254,508s179.6-53.6,222.8-132H31.2z"/>
<g>
</g>
<g>
</g>
<g>
</g>
<g>
</g>
<g>
</g>
<g>
</g>
<g>
</g>
<g>
</g>
<g>
</g>
<g>
</g>
<g>
</g>
<g>
</g>
<g>
</g>
<g>
</g>
<g>
</g>
</svg>
