<?xml version="1.0" encoding="iso-8859-1"?>
<!-- Generator: Adobe Illustrator 19.0.0, SVG Export Plug-In . SVG Version: 6.00 Build 0)  -->
<svg xmlns="http://www.w3.org/2000/svg" xmlns:xlink="http://www.w3.org/1999/xlink" version="1.1" id="Layer_1" x="0px" y="0px" viewBox="0 0 508 508" style="enable-background:new 0 0 508 508;" xml:space="preserve">
<circle style="fill:#FFD05B;" cx="254" cy="254" r="254"/>
<polygon style="fill:#F1543F;" points="198.4,99.2 138.8,167.2 184.8,207.6 284,94.4 283.2,94 "/>
<polygon style="fill:#FF7058;" points="325.6,130.8 283.6,93.6 198.8,99.2 198,100 285.2,176.4 268,196 346,191.2 341.2,113.2 "/>
<polygon style="fill:#F1543F;" points="412.4,281.6 383.2,196 325.2,215.6 373.6,358 374.8,358 "/>
<polygon style="fill:#FF7058;" points="321.6,376.4 374.4,358.4 412,282 411.6,281.2 302,318.4 293.6,293.6 258.8,363.6   328.8,398.4 "/>
<polygon style="fill:#F1543F;" points="144.8,377.6 232.8,396.8 246,337.2 99.2,304.8 98.8,306 "/>
<polygon style="fill:#FF7058;" points="110.8,250.8 98.4,305.2 144.4,377.2 145.2,377.2 170.4,264 195.6,269.6 153.6,203.6   87.6,245.6 "/>
<g>
</g>
<g>
</g>
<g>
</g>
<g>
</g>
<g>
</g>
<g>
</g>
<g>
</g>
<g>
</g>
<g>
</g>
<g>
</g>
<g>
</g>
<g>
</g>
<g>
</g>
<g>
</g>
<g>
</g>
</svg>
