<?xml version="1.0" encoding="iso-8859-1"?>
<!-- Generator: Adobe Illustrator 19.0.0, SVG Export Plug-In . SVG Version: 6.00 Build 0)  -->
<svg xmlns="http://www.w3.org/2000/svg" xmlns:xlink="http://www.w3.org/1999/xlink" version="1.1" id="Layer_1" x="0px" y="0px" viewBox="0 0 508 508" style="enable-background:new 0 0 508 508;" xml:space="preserve">
<circle style="fill:#FFD05B;" cx="254" cy="254" r="254"/>
<path style="fill:#F9B54C;" d="M20,352.8C58.4,444,148.8,508,254,508s195.6-64,234-155.2H20z"/>
<path style="fill:#FFFFFF;" d="M416,203.6H92c-7.6,0-14,6-14,14V318c0,7.6,6,14,14,14h323.6c7.6,0,14-6,14-14V217.6  C429.6,209.6,423.6,203.6,416,203.6z"/>
<circle style="fill:#E6E9EE;" cx="309.6" cy="216.4" r="76"/>
<circle style="fill:#54C0EB;" cx="309.6" cy="216.4" r="55.2"/>
<g>
	<rect x="342.8" y="331.6" style="fill:#324A5E;" width="49.2" height="21.2"/>
	<rect x="116" y="331.6" style="fill:#324A5E;" width="49.2" height="21.2"/>
</g>
<circle style="fill:#FF7058;" cx="113.2" cy="240" r="11.2"/>
<circle style="fill:#4CDBC4;" cx="150" cy="240" r="11.2"/>
<circle style="fill:#FFD05B;" cx="187.2" cy="240" r="11.2"/>
<ellipse transform="matrix(0.6239 -0.7815 0.7815 0.6239 -46.4423 294.1463)" style="fill:#FFFFFF;" cx="282.386" cy="195.325" rx="16" ry="8"/>
<g>
</g>
<g>
</g>
<g>
</g>
<g>
</g>
<g>
</g>
<g>
</g>
<g>
</g>
<g>
</g>
<g>
</g>
<g>
</g>
<g>
</g>
<g>
</g>
<g>
</g>
<g>
</g>
<g>
</g>
</svg>
