<?xml version="1.0" encoding="iso-8859-1"?>
<!-- Generator: Adobe Illustrator 19.0.0, SVG Export Plug-In . SVG Version: 6.00 Build 0)  -->
<svg xmlns="http://www.w3.org/2000/svg" xmlns:xlink="http://www.w3.org/1999/xlink" version="1.1" id="Layer_1" x="0px" y="0px" viewBox="0 0 508 508" style="enable-background:new 0 0 508 508;" xml:space="preserve">
<circle style="fill:#84DBFF;" cx="254" cy="254" r="254"/>
<path style="fill:#324A5E;" d="M202.8,134L202.8,134c-24-6.4-48.8,6-58.4,28.8l-68,121.6l140.4,37.2L239.6,188  C242.4,163.6,226.8,140.4,202.8,134z"/>
<circle style="fill:#2B3B4E;" cx="146.4" cy="303.2" r="72.8"/>
<circle style="fill:#E6E9EE;" cx="146.4" cy="303.2" r="50.8"/>
<path style="fill:#324A5E;" d="M305.2,134L305.2,134c24-6.4,48.8,6,58.4,28.8l68,121.6l-140.4,37.2L268.4,188  C265.6,163.6,281.2,140.4,305.2,134z"/>
<circle style="fill:#2B3B4E;" cx="361.6" cy="303.2" r="72.8"/>
<circle style="fill:#E6E9EE;" cx="361.6" cy="303.2" r="50.8"/>
<rect x="202.4" y="210" style="fill:#324A5E;" width="103.2" height="43.2"/>
<g>
	
		<ellipse transform="matrix(0.4877 -0.873 0.873 0.4877 -82.3138 444.5163)" style="fill:#FFFFFF;" cx="337.596" cy="292.394" rx="18" ry="10"/>
	
		<ellipse transform="matrix(0.4877 -0.873 0.873 0.4877 -192.1805 257.3574)" style="fill:#FFFFFF;" cx="123.193" cy="292.427" rx="18" ry="10"/>
</g>
<g>
</g>
<g>
</g>
<g>
</g>
<g>
</g>
<g>
</g>
<g>
</g>
<g>
</g>
<g>
</g>
<g>
</g>
<g>
</g>
<g>
</g>
<g>
</g>
<g>
</g>
<g>
</g>
<g>
</g>
</svg>
