<?xml version="1.0" encoding="iso-8859-1"?>
<!-- Generator: Adobe Illustrator 19.0.0, SVG Export Plug-In . SVG Version: 6.00 Build 0)  -->
<svg xmlns="http://www.w3.org/2000/svg" xmlns:xlink="http://www.w3.org/1999/xlink" version="1.1" id="Layer_1" x="0px" y="0px" viewBox="0 0 508 508" style="enable-background:new 0 0 508 508;" xml:space="preserve">
<circle style="fill:#FD8469;" cx="254" cy="254" r="254"/>
<path style="fill:#E6E9EE;" d="M391.2,138.4H236.8c-7.6,0-14,6.4-14,14V186h-122c-7.6,0-14,6.4-14,14v156c0,7.6,6.4,14,14,14h290.4  c7.6,0,14-6.4,14-14V152C405.2,144.4,398.8,138.4,391.2,138.4z"/>
<rect x="86.8" y="207.6" style="fill:#324A5E;" width="318.4" height="140"/>
<circle style="fill:#FFFFFF;" cx="275.6" cy="277.6" r="75.6"/>
<circle style="fill:#324A5E;" cx="275.6" cy="277.6" r="54.4"/>
<circle style="fill:#54C0EB;" cx="275.6" cy="277.6" r="37.2"/>
<g>
	<circle style="fill:#E6E9EE;" cx="251.6" cy="254" r="9.6"/>
	<circle style="fill:#E6E9EE;" cx="270.4" cy="272.8" r="7.2"/>
</g>
<g>
	<path style="fill:#FFFFFF;" d="M383.2,154H324c-1.6,0-3.2,1.6-3.2,3.2v30c0,1.6,1.6,3.2,3.2,3.2h59.2c1.6,0,3.2-1.6,3.2-3.2v-30   C386.4,155.2,384.8,154,383.2,154z"/>
	<path style="fill:#FFFFFF;" d="M144.8,156.4h-32.4c-2.8,0-4.8,2.4-4.8,4.8V186H150v-24.4C150,158.8,147.6,156.4,144.8,156.4z"/>
	<path style="fill:#FFFFFF;" d="M202,156.4h-32.4c-2.8,0-4.8,2.4-4.8,4.8V186h42.4v-24.4C206.8,158.8,204.8,156.4,202,156.4z"/>
</g>
<g>
</g>
<g>
</g>
<g>
</g>
<g>
</g>
<g>
</g>
<g>
</g>
<g>
</g>
<g>
</g>
<g>
</g>
<g>
</g>
<g>
</g>
<g>
</g>
<g>
</g>
<g>
</g>
<g>
</g>
</svg>
