<?xml version="1.0" encoding="iso-8859-1"?>
<!-- Generator: Adobe Illustrator 19.0.0, SVG Export Plug-In . SVG Version: 6.00 Build 0)  -->
<svg xmlns="http://www.w3.org/2000/svg" xmlns:xlink="http://www.w3.org/1999/xlink" version="1.1" id="Layer_1" x="0px" y="0px" viewBox="0 0 508 508" style="enable-background:new 0 0 508 508;" xml:space="preserve">
<circle style="fill:#90DFAA;" cx="254" cy="254" r="254"/>
<g>
	<path style="fill:#324A5E;" d="M192.8,190.8L188,144c-0.4-10-11.6-15.6-19.6-9.6l-83.6,63.2c-2.4,1.6-1.2,5.2,1.6,5.2l53.6,0.4   l22-20.4l1.6,14c0.4,2.8,3.2,4.8,6,4l18.8-4.8C191.2,195.6,192.8,193.2,192.8,190.8z"/>
	<path style="fill:#324A5E;" d="M316,190.8l4.8-46.8c0.4-10,11.6-15.6,19.6-9.6l83.6,62.8c2.4,1.6,1.2,5.2-1.6,5.2l-53.6,0.4   l-22-20.4l-1.6,14c-0.4,2.8-3.2,4.8-6,4l-18.8-4.8C317.6,195.6,316,193.2,316,190.8z"/>
</g>
<path style="fill:#FFFFFF;" d="M412.8,336H314c-4.4,0-8.8-2-11.6-5.6L265.6,286c-6-7.2-16.8-7.2-23.2,0l-38,44.4  c-2.8,3.2-7.2,5.2-11.6,5.2H95.2c-8.4,0-15.2-6.8-15.2-15.2v-112c0-8.4,6.8-15.2,15.2-15.2h318c8.4,0,15.2,6.8,15.2,15.2v112.8  C428,329.6,421.2,336,412.8,336z"/>
<path style="fill:#54C0EB;" d="M315.2,318l-36-43.2c-6.4-7.6-15.6-12-25.6-12c-9.6,0-18.8,4.4-25.2,11.6L191.6,318H98.4V211.2H410  V318H315.2z"/>
<rect x="242.4" y="200.8" style="fill:#FFFFFF;" width="23.2" height="76"/>
<g>
</g>
<g>
</g>
<g>
</g>
<g>
</g>
<g>
</g>
<g>
</g>
<g>
</g>
<g>
</g>
<g>
</g>
<g>
</g>
<g>
</g>
<g>
</g>
<g>
</g>
<g>
</g>
<g>
</g>
</svg>
