<?xml version="1.0" encoding="iso-8859-1"?>
<!-- Generator: Adobe Illustrator 19.0.0, SVG Export Plug-In . SVG Version: 6.00 Build 0)  -->
<svg xmlns="http://www.w3.org/2000/svg" xmlns:xlink="http://www.w3.org/1999/xlink" version="1.1" id="Layer_1" x="0px" y="0px" viewBox="0 0 508 508" style="enable-background:new 0 0 508 508;" xml:space="preserve">
<circle style="fill:#324A5E;" cx="254" cy="254" r="254"/>
<polygon style="fill:#FFFFFF;" points="111.6,163.6 111.6,360 254,261.6 "/>
<path style="fill:#84DBFF;" d="M260.8,78.8c-4.4-2.8-10-2.8-14.4,0l-134.8,84.8l142.4,98l142.4-98L260.8,78.8z"/>
<g>
	<polygon style="fill:#FFFFFF;" points="111.6,360 396.4,360 254,261.6  "/>
	<polygon style="fill:#FFFFFF;" points="254,261.6 396.4,360 396.4,163.6  "/>
</g>
<polygon style="fill:#FF7058;" points="386.4,201.2 396.4,211.2 396.4,189.6 386.4,180 "/>
<polygon style="fill:#84DBFF;" points="386.4,246.4 396.4,256.4 396.4,235.2 386.4,225.2 "/>
<polygon style="fill:#FF7058;" points="386.4,291.6 396.4,301.6 396.4,280.4 386.4,270.4 "/>
<polygon style="fill:#84DBFF;" points="386.4,337.2 396.4,347.2 396.4,325.6 386.4,315.6 "/>
<polygon style="fill:#FF7058;" points="354,350 364,360 385.2,360 375.6,350 "/>
<polygon style="fill:#84DBFF;" points="308.8,350 318.8,360 340,360 330,350 "/>
<g>
	<polygon style="fill:#FF7058;" points="121.6,186.4 111.6,176.4 111.6,198 121.6,208  "/>
	<polygon style="fill:#FF7058;" points="263.6,350 273.6,360 294.8,360 284.8,350  "/>
</g>
<g>
	<polygon style="fill:#84DBFF;" points="218,350 228,360 249.6,360 239.6,350  "/>
	<polygon style="fill:#84DBFF;" points="121.6,231.6 111.6,222 111.6,243.2 121.6,253.2  "/>
</g>
<g>
	<polygon style="fill:#FF7058;" points="172.8,350 182.8,360 204,360 194.4,350  "/>
	<polygon style="fill:#FF7058;" points="121.6,277.2 111.6,267.2 111.6,288.4 121.6,298.4  "/>
</g>
<g>
	<polygon style="fill:#84DBFF;" points="121.6,322.4 111.6,312.4 111.6,333.6 121.6,343.6  "/>
	<polygon style="fill:#84DBFF;" points="127.6,350 137.6,360 158.8,360 148.8,350  "/>
</g>
<g>
</g>
<g>
</g>
<g>
</g>
<g>
</g>
<g>
</g>
<g>
</g>
<g>
</g>
<g>
</g>
<g>
</g>
<g>
</g>
<g>
</g>
<g>
</g>
<g>
</g>
<g>
</g>
<g>
</g>
</svg>
