<?xml version="1.0" encoding="iso-8859-1"?>
<!-- Generator: Adobe Illustrator 19.0.0, SVG Export Plug-In . SVG Version: 6.00 Build 0)  -->
<svg xmlns="http://www.w3.org/2000/svg" xmlns:xlink="http://www.w3.org/1999/xlink" version="1.1" id="Layer_1" x="0px" y="0px" viewBox="0 0 508 508" style="enable-background:new 0 0 508 508;" xml:space="preserve">
<circle style="fill:#324A5E;" cx="254" cy="254" r="254"/>
<path style="fill:#F9B54C;" d="M373.6,112.4H246V97.2c0-4.4-3.6-8-8-8h-72.4c-4.4,0-8,3.6-8,8v15.2H130c-4.4,0-8,3.6-8,8V306  c0,6.4,5.2,11.6,11.6,11.6H370c6.4,0,11.6-5.2,11.6-11.6V120.4C381.6,116,378,112.4,373.6,112.4z"/>
<polygon style="fill:#FFFFFF;" points="155.6,173.2 155.6,282.4 348,282.4 348,124.8 204,124.8 "/>
<g>
	<polygon style="fill:#E6E9EE;" points="204,173.2 204,124.8 155.6,173.2  "/>
	<rect x="221.2" y="146.4" style="fill:#E6E9EE;" width="6" height="110.4"/>
	<rect x="248.8" y="146.4" style="fill:#E6E9EE;" width="6" height="110.4"/>
	<rect x="276" y="146.4" style="fill:#E6E9EE;" width="6" height="110.4"/>
	<rect x="303.6" y="146.4" style="fill:#E6E9EE;" width="6" height="110.4"/>
</g>
<path style="fill:#FFD05B;" d="M394.8,166.4H271.6c-4,0-6.8,3.2-6.8,6.8l-0.4,20.4c0,3.6-3.2,6.4-6.8,6.4H113.2  c-3.6,0-6.4,2.8-6,6.4l14,106c0.4,2.8,3.2,5.2,6.8,5.2h248c3.2,0,6.4-2.4,6.8-5.2l18.4-139.2C401.2,169.6,398.4,166.4,394.8,166.4z"/>
<g>
	<rect x="240.4" y="318" style="fill:#E6E9EE;" width="27.2" height="81.6"/>
	<rect x="125.2" y="372.4" style="fill:#E6E9EE;" width="257.6" height="27.2"/>
</g>
<circle style="fill:#84DBFF;" cx="254" cy="386" r="24.8"/>
<g>
</g>
<g>
</g>
<g>
</g>
<g>
</g>
<g>
</g>
<g>
</g>
<g>
</g>
<g>
</g>
<g>
</g>
<g>
</g>
<g>
</g>
<g>
</g>
<g>
</g>
<g>
</g>
<g>
</g>
</svg>
