<?xml version="1.0" encoding="iso-8859-1"?>
<!-- Generator: Adobe Illustrator 19.0.0, SVG Export Plug-In . SVG Version: 6.00 Build 0)  -->
<svg xmlns="http://www.w3.org/2000/svg" xmlns:xlink="http://www.w3.org/1999/xlink" version="1.1" id="Layer_1" x="0px" y="0px" viewBox="0 0 508 508" style="enable-background:new 0 0 508 508;" xml:space="preserve">
<circle style="fill:#90DFAA;" cx="254" cy="254" r="254"/>
<path style="fill:#FFFFFF;" d="M246,63.2c-60.4,4-109.6,53.2-112.8,114c-1.6,32,9.2,61.6,28,84c22.8,27.2,36,60.8,36,96v1.6h114  v-1.6c0-34.8,12.4-68.4,34.8-94.8c18-21.2,29.2-48.8,29.2-78.8C374.8,114.4,316.4,58.8,246,63.2z"/>
<g>
	<path style="fill:#324A5E;" d="M310,380.4H198c-6,0-10.8-4.8-10.8-10.8l0,0c0-6,4.8-10.8,10.8-10.8h112c6,0,10.8,4.8,10.8,10.8l0,0   C320.8,375.6,316,380.4,310,380.4z"/>
	<path style="fill:#324A5E;" d="M310,402H198c-6,0-10.8-4.8-10.8-10.8l0,0c0-6,4.8-10.8,10.8-10.8h112c6,0,10.8,4.8,10.8,10.8l0,0   C320.8,397.2,316,402,310,402z"/>
	<path style="fill:#324A5E;" d="M310,423.6H198c-6,0-10.8-4.8-10.8-10.8l0,0c0-6,4.8-10.8,10.8-10.8h112c6,0,10.8,4.8,10.8,10.8l0,0   C320.8,418.8,316,423.6,310,423.6z"/>
</g>
<path style="fill:#2B3B4E;" d="M210,423.6l8,16.4c1.6,3.2,4.8,5.2,8.4,5.2h55.2c3.6,0,6.8-2,8.4-5.2l8-16.4H210z"/>
<polygon style="fill:#FFD05B;" points="287.6,173.6 279.2,165.2 253.2,191.2 228.8,166.4 220.4,174.8 248,202.8 248,358.8   260,358.8 260,201.2 "/>
<g>
</g>
<g>
</g>
<g>
</g>
<g>
</g>
<g>
</g>
<g>
</g>
<g>
</g>
<g>
</g>
<g>
</g>
<g>
</g>
<g>
</g>
<g>
</g>
<g>
</g>
<g>
</g>
<g>
</g>
</svg>
