<?xml version="1.0" encoding="iso-8859-1"?>
<!-- Generator: Adobe Illustrator 19.0.0, SVG Export Plug-In . SVG Version: 6.00 Build 0)  -->
<svg xmlns="http://www.w3.org/2000/svg" xmlns:xlink="http://www.w3.org/1999/xlink" version="1.1" id="Layer_1" x="0px" y="0px" viewBox="0 0 508 508" style="enable-background:new 0 0 508 508;" xml:space="preserve">
<circle style="fill:#FFD05B;" cx="254" cy="254" r="254"/>
<g>
	<path style="fill:#FF7058;" d="M284.8,252v109.2c35.6,6.8,65.6,29.6,82,60.4c8.4-16.4,13.6-34.8,13.6-54.4   C380.4,310,339.2,262.4,284.8,252z"/>
	<path style="fill:#FF7058;" d="M230.4,252v109.2c-35.6,6.8-65.6,29.6-82,60.4c-8.4-16.4-13.6-34.8-13.6-54.4   C134.8,310,176,262.4,230.4,252z"/>
</g>
<path style="fill:#FFFFFF;" d="M254.4,80.4L254.4,80.4c-29.6,37.6-46,84-46,131.6v169.2h92V212.4C300.4,164.4,284.4,118,254.4,80.4z  "/>
<path style="fill:#4CDBC4;" d="M208.4,381.6v13.6c0,4.4,3.6,8,8,8h76c4.4,0,8-3.6,8-8v-13.6H208.4z"/>
<g>
	<polygon style="fill:#FFFFFF;" points="318.8,456 309.6,436.8 300.4,456 291.2,436.8 282.4,456 282.4,420 318.8,420  "/>
	<polygon style="fill:#FFFFFF;" points="226.8,456 217.6,436.8 208.4,456 199.2,436.8 190.4,456 190.4,420 226.8,420  "/>
	<path style="fill:#FFFFFF;" d="M163.2,125.6c-2-11.2-11.6-19.6-23.2-19.6c-3.2,0-6.4,0.8-9.2,2c-4.4-8-13.2-13.2-22.8-13.2   c-14.8,0-26.4,12-26.4,26.4c0,2.4,0.4,4.8,1.2,7.2c-5.6,3.6-9.6,9.6-9.6,16.8c0,10.8,8.8,19.6,19.6,19.6h70.4   c10.8,0,19.6-8.8,19.6-19.6C182.8,134.4,174,125.6,163.2,125.6z"/>
	<path style="fill:#FFFFFF;" d="M448,216.4c-2.4-13.6-14-24-28.4-24c-4,0-8,0.8-11.6,2.4c-5.6-9.6-16-16.4-28.4-16.4   c-18,0-32.8,14.8-32.8,32.8c0,3.2,0.4,6,1.2,8.8c-6.8,4.4-11.6,12-11.6,20.8c0,13.2,10.8,24.4,24.4,24.4h86.8   c13.2,0,24.4-10.8,24.4-24.4C472,227.2,461.2,216.4,448,216.4z"/>
</g>
<g>
	<path style="fill:#324A5E;" d="M208.4,331.6c-14,0-25.6,34.4-27.6,79.2c0,4.8,3.6,9.2,8.8,9.2h37.2c4.8,0,8.8-4,8.8-9.2   C234.4,366,222.8,331.6,208.4,331.6z"/>
	<path style="fill:#324A5E;" d="M300.4,331.6c-14,0-25.6,34.4-27.6,79.2c0,4.8,3.6,9.2,8.8,9.2h37.2c4.8,0,8.8-4,8.8-9.2   C326.4,366,314.8,331.6,300.4,331.6z"/>
</g>
<circle style="fill:#4CDBC4;" cx="254.4" cy="196" r="25.6"/>
<g>
</g>
<g>
</g>
<g>
</g>
<g>
</g>
<g>
</g>
<g>
</g>
<g>
</g>
<g>
</g>
<g>
</g>
<g>
</g>
<g>
</g>
<g>
</g>
<g>
</g>
<g>
</g>
<g>
</g>
</svg>
