<?xml version="1.0" encoding="iso-8859-1"?>
<!-- Generator: Adobe Illustrator 19.0.0, SVG Export Plug-In . SVG Version: 6.00 Build 0)  -->
<svg xmlns="http://www.w3.org/2000/svg" xmlns:xlink="http://www.w3.org/1999/xlink" version="1.1" id="Layer_1" x="0px" y="0px" viewBox="0 0 508 508" style="enable-background:new 0 0 508 508;" xml:space="preserve">
<circle style="fill:#FD8469;" cx="254" cy="254" r="254"/>
<circle style="fill:#324A5E;" cx="254" cy="386.8" r="44.4"/>
<path style="fill:#FFFFFF;" d="M361.6,254c0-69.2-32.4-114.8-78-130.4c5.6-6.8,8.8-15.2,8.8-24.4c0-21.2-17.2-38.4-38.4-38.4  S215.6,78,215.6,99.2c0,9.2,3.2,17.6,8.8,24.4c-45.6,15.6-78,61.2-78,130.4c0,140.4-131.2,127.2,107.6,127.2S361.6,394.4,361.6,254z   M254,82c9.6,0,17.2,7.6,17.2,17.2s-7.6,17.2-17.2,17.2s-17.2-7.6-17.2-17.2S244.4,82,254,82z"/>
<g>
</g>
<g>
</g>
<g>
</g>
<g>
</g>
<g>
</g>
<g>
</g>
<g>
</g>
<g>
</g>
<g>
</g>
<g>
</g>
<g>
</g>
<g>
</g>
<g>
</g>
<g>
</g>
<g>
</g>
</svg>
