<?xml version="1.0" encoding="iso-8859-1"?>
<!-- Generator: Adobe Illustrator 19.0.0, SVG Export Plug-In . SVG Version: 6.00 Build 0)  -->
<svg xmlns="http://www.w3.org/2000/svg" xmlns:xlink="http://www.w3.org/1999/xlink" version="1.1" id="Layer_1" x="0px" y="0px" viewBox="0 0 508 508" style="enable-background:new 0 0 508 508;" xml:space="preserve">
<circle style="fill:#FD8469;" cx="254" cy="254" r="254"/>
<path style="fill:#FFD05B;" d="M428,152L231.2,85.2c-4.8-1.6-10,0.8-11.6,5.6l-65.2,191.6c-1.6,4.8,0.8,10,5.6,11.6l196.8,66.8  c4.8,1.6,10-0.8,11.6-5.6l64.8-191.6C435.2,158.8,432.8,153.6,428,152z"/>
<rect x="204.486" y="130.873" transform="matrix(-0.3211 0.947 -0.947 -0.3211 599.6962 16.6459)" style="fill:#E6E9EE;" width="178.792" height="184.792"/>
<path style="fill:#FFFFFF;" d="M286,144.8L81.6,182c-4.8,0.8-8.4,5.6-7.2,10.8L110.8,392c0.8,4.8,5.6,8.4,10.8,7.2l204-37.2  c4.8-0.8,8.4-5.6,7.6-10.8L296.8,152C295.6,147.2,290.8,143.6,286,144.8z"/>
<rect x="113.994" y="179.33" transform="matrix(0.1794 0.9838 -0.9838 0.1794 434.2316 22.8876)" style="fill:#E6E9EE;" width="178.804" height="184.804"/>
<g>
	<polygon style="fill:#4CDBC4;" points="162.4,271.6 128.8,376.4 231.2,357.6  "/>
	<polygon style="fill:#4CDBC4;" points="236,217.6 204,323.6 231.2,357.6 310.4,343.2 304,310  "/>
</g>
<g>
	<polygon style="fill:#FFFFFF;" points="236,217.6 222,263.6 233.6,253.6 244.8,264.4 251.2,249.6 264.4,256  "/>
	<polygon style="fill:#FFFFFF;" points="162.4,271.6 147.6,317.6 160,307.2 171.2,318 177.6,303.2 192.4,309.2  "/>
</g>
<circle style="fill:#FFD05B;" cx="182.4" cy="227.6" r="16.4"/>
<g>
</g>
<g>
</g>
<g>
</g>
<g>
</g>
<g>
</g>
<g>
</g>
<g>
</g>
<g>
</g>
<g>
</g>
<g>
</g>
<g>
</g>
<g>
</g>
<g>
</g>
<g>
</g>
<g>
</g>
</svg>
