<?xml version="1.0" encoding="iso-8859-1"?>
<!-- Generator: Adobe Illustrator 19.0.0, SVG Export Plug-In . SVG Version: 6.00 Build 0)  -->
<svg xmlns="http://www.w3.org/2000/svg" xmlns:xlink="http://www.w3.org/1999/xlink" version="1.1" id="Layer_1" x="0px" y="0px" viewBox="0 0 508 508" style="enable-background:new 0 0 508 508;" xml:space="preserve">
<circle style="fill:#90DFAA;" cx="254" cy="254" r="254"/>
<path style="fill:#FFFFFF;" d="M372.8,218.8H368c-2.4-40.4-35.6-72.4-76.4-72.4c-4,0-8,0.4-11.6,0.8c-16-28.4-46-47.6-80.8-47.6  c-51.2,0-92.4,41.6-92.4,92.4c0,10.8,2,21.2,5.2,30.8c-24.8,9.6-42.8,33.6-42.8,62c0,36.4,29.6,66.4,66.4,66.4h237.2  c36.4,0,66.4-29.6,66.4-66.4C438.8,248.4,409.2,218.8,372.8,218.8z"/>
<g>
	<path style="fill:#FF7058;" d="M318,239.6c-35.2-35.2-92.8-35.2-128.4,0l-11.2-11.2c41.6-41.6,109.2-41.6,150.8,0L318,239.6z"/>
	<path style="fill:#FF7058;" d="M286,274.4c-17.6-17.6-46-17.6-63.6,0l-11.2-11.2c23.6-23.6,62.4-23.6,86,0L286,274.4z"/>
	<circle style="fill:#FF7058;" cx="254" cy="301.2" r="14"/>
</g>
<g>
</g>
<g>
</g>
<g>
</g>
<g>
</g>
<g>
</g>
<g>
</g>
<g>
</g>
<g>
</g>
<g>
</g>
<g>
</g>
<g>
</g>
<g>
</g>
<g>
</g>
<g>
</g>
<g>
</g>
</svg>
