<?xml version="1.0" encoding="iso-8859-1"?>
<!-- Generator: Adobe Illustrator 19.0.0, SVG Export Plug-In . SVG Version: 6.00 Build 0)  -->
<svg xmlns="http://www.w3.org/2000/svg" xmlns:xlink="http://www.w3.org/1999/xlink" version="1.1" id="Layer_1" x="0px" y="0px" viewBox="0 0 508 508" style="enable-background:new 0 0 508 508;" xml:space="preserve">
<circle style="fill:#FFD05B;" cx="254" cy="254" r="254"/>
<path style="fill:#324A5E;" d="M95.2,165.6c-8.8,0-16-7.2-16-16V134h-7.6v15.2c0,13.2,10.8,23.6,23.6,23.6h281.2v-7.6H95.2V165.6z"/>
<circle style="fill:#FFFFFF;" cx="235.2" cy="221.6" r="146"/>
<g>
	<path style="fill:#54C0EB;" d="M332,122.4c-2.8,0-5.2,0-8-0.8c-5.2-1.2-10.4-4-15.6-4c-5.6,0-10.8,4.4-13.2,10c-3.2,2-6.4-2-10-2.8   c-2.4-0.4-5.2,0.8-7.6,2c-6.8,2.8-14.4,3.6-21.6,2c-6-1.2-13.2-3.6-17.6,2c-1.2,1.6-2.4,4-4,5.2s-4.4,1.2-4.4,3.6   c-0.4,4.8,9.2,2,8.8,6.4c2,0,4.4,0,6.4,0c0-2.4-0.4-4.4-0.4-6.8c2.8-0.8,7.2,0,7.2,3.6c0,1.6-0.8,2.8-1.6,3.6   c-2.8,3.2-6,5.2-9.6,5.6c-3.6,0.4-7.6-0.4-11.2,0c-3.6,0.4-7.6,2.8-8.8,6.8c-0.4,2.4-0.4,5.2-2,6.8c-2,2-6.4,0-7.6,3.2   c-0.8,2,1.2,4,2.8,4.8c2.8,1.6,5.6,1.6,8.4,0.4c0.4-2,0.8-4,1.6-6c5.2,3.2,11.6-8.4,16.4-4.4c2,1.6,3.2,4,3.6,6.4   c2.4,0.4,4.8,0.8,7.2,1.2c0.4-1.6,0.8-3.2,0.4-4.8c2,0,4,0,6,0c0-1.6,0-3.6,0-5.2c6-2.4,13.2,2.8,14.8,10   c-5.6,0.8-11.6,1.6-17.2,2.8c1.6,4,6.4,4.4,10,3.6c1.6,2.8-0.8,6.8-3.6,8c-2.8,0.8-5.6,0-8.8,0c-4.4,0.4-8.4,2.8-12.8,1.6   c-3.6-0.8-6.4-4.4-9.6-5.6c-4.8-2-10,0.8-14.8,3.6c-0.8,1.2-0.8,2.8-0.4,4.4c-5.6,2.8-12.4,6.8-13.6,14c-1.2,5.6,1.2,10.8,3.2,15.6   c1.2,2.8,2.8,5.6,4.8,7.6c5.6,5.6,14,4.8,21.2,3.6c3.6,7.6,6.8,15.6,6.4,24c-0.4,2.8-0.8,6-0.8,8.8c0.4,2.8,1.2,5.2,2,7.6   c0.8,2,1.6,4,2,6c2.4,6.8,4,13.6,4,20.8c2.8,0,5.6,0,8.8,0c2-2,4-4.4,6.4-6.4c1.2-1.2,2-2,2.4-3.6s-0.4-3.6-1.6-3.6   c3.6-0.8,6-6.8,4.4-10.8c4.4,0.4,7.2-6,7.2-11.6s-1.6-11.2,0.4-16c1.2-2.8,3.2-4.8,5.2-6.8c3.6-3.6,6.4-8.4,8.4-13.2   c0.4-0.4,0.4-1.2,0.4-2c-0.4-1.6-2.4-2-3.6-1.2s-2.4,2-4,2c-1.6-0.4-2.4-2.4-3.2-4c-4.4-9.2-13.2-15.2-14.8-25.6   c1.6-0.4,3.2-0.4,4.8-0.8c3.6,6,6.8,12.4,10.4,18.4c1.6,2.8,4.4,5.6,6.4,4c0.8-2.8,3.6-4.4,6-3.2c0.4-4,6-4.4,6.4-8.4   c0.4-2.8-2.4-5.2-4.8-5.2s-4.8,0.8-7.2,0.4c0.4-1.6,0.4-3.2,0.4-4.8c-1.2-0.8-2.8-1.2-4.4-1.2c0.4-3.2,3.6-5.2,6-3.6   c0.8,0.8,1.6,2,2.4,2.8c4.4,5.2,12.4,1.2,18,4.8c1.6,1.2,3.2,2.8,4.4,4.8c4.4,6.4,8,14,10,22c0.8,0,2,0,2.8,0c0-8,4-16,10.4-19.2   c0.4-0.8,0.4-1.6,0.8-2.4c3.6-1.2,7.2,2.4,10,5.2c1.2,1.6,2.8,3.2,4,4.8c0,0.8,0.4,2,0.4,2.8c3.6,0,7.2,3.6,7.2,8   c0.8-0.4,1.6-0.4,2.8-0.8c1.6-0.4,2.4-2.8,2-4.8s-1.6-3.6-2.4-4.8c-1.6-2-3.2-4.4-4.4-6.4c2.8-2,6.4-3.2,9.6-2.8   c-0.8-1.6,1.6-2.4,2.8-3.2c2.8-1.2,5.2-4.8,4.8-8.4c-0.4-3.6-3.2-6.8-6.4-6.8c-2-4-2.8-9.2-0.4-12.8c2-2.8,5.6-4,8.4-2   c-6.8-18-16.8-34-29.2-48C339.2,122.8,335.6,122.4,332,122.4z"/>
	<path style="fill:#54C0EB;" d="M103.6,216.4c0.4,2,1.6,4,2.8,5.6c2.4,2.4,6,2.8,9.2,4.4c3.2,1.2,6.4,4.4,6,8c0,3.2-2.8,5.6-4,8.8   c-2,5.6,1.2,12,4.8,16c3.6,4,8.4,7.2,10.4,12.8c0.8,2.4,0.8,5.2,1.2,8c0.4,10,1.2,20,1.6,30c0.4,4.4,0.4,9.2,2,13.2s4.8,7.6,8.4,8   c-0.4-4.8-1.2-9.6-1.6-14.8c-0.4-2-0.4-4,0-5.6c0.8-1.6,2.4-3.2,3.6-2.4c-0.8-2.4,0.8-5.2,3.2-5.2c0-2-1.2-4-2.8-4.4   c0.8-2,2.4-3.6,4.4-3.6c0,2,2.4,3.2,3.6,2c1.2-1.2,1.6-3.6,1.6-5.6s-0.4-4,0.4-6c0.8-3.2,4-4.8,6.4-6c2.4-5.6,4.8-11.2,7.2-17.2   c0.8-2,1.6-4,1.6-6.4c-0.4-4.4-4-7.2-7.6-8.8s-7.6-3.2-9.2-7.2c-0.8-1.6-0.8-3.6-1.6-4.8s-2-2-3.2-2.8c-4-2.4-7.6-4.8-11.6-7.6   c-2.4-1.6-4.8-3.2-7.6-3.6c-2.8-0.4-5.6,0-8.4,0.4c-1.2,3.2-4.8,4.8-7.6,4c-2.8-1.2-4.8-5.2-4-8.4c0-1.2,0.4-2.4,0-3.2   c-0.4-0.4-0.8-0.8-1.2-0.8c-1.6-0.4-2.8-1.2-4.4-1.6c0.4-2.4,0.8-4.4,1.2-6.8c-1.2-0.8-2.8-0.8-3.6,0c0,1.6,0,2.8,0,4.4   c-2.4,0-5.2,0-7.6,0c0.4-2.8,0-5.2-1.2-7.6c1.2-9.2,10-16,17.6-12.8c0.4,4.8,4.4,9.2,8.4,8.8c2.4-2.4-2.4-7.6-0.4-10.4   c0.8-1.2,2-1.2,2.8-2s1.2-2,2-2.8c3.6-7.2,10-12.4,16.8-14.4c2.8-0.8,6.4-2.4,6-6c0-0.8-0.4-1.2-0.8-2c-0.4-1.6,0.8-2.8,2-3.2   s2.4,0,3.6,0.4c-0.4,4,4,7.6,6.8,5.6c2-4-4.8-8.8-2.4-12.4c-1.6-0.4-2.8-1.2-4.4-1.6c0-1.6-0.4-3.6-0.4-5.2c-1.2,0.4-2.4,0-3.2-0.4   c-0.4-1.6-0.8-2.8-0.8-4.4c-2.8,0-5.6,0-8.4,0c0.4,3.6,0.4,8.4-2.4,10c-0.8,0.4-2,0.4-2.8,0.4c-1.6,0-3.6,0-5.2,0   c-1.2,0-2.8,0-4-0.8c-1.6-1.2-2-3.6-1.2-5.6s2.8-2.8,4.4-2c-0.4-3.6,2.8-6.4,5.6-6.8c2.8-0.4,6,0,8.8-1.2c-1.2-4.4-6.4-5.2-10-4   s-8,3.2-11.6,0.8l-0.4-0.4c-17.6,20.8-29.6,48-32.4,78.4C93.2,212.4,98.4,216,103.6,216.4z"/>
	<path style="fill:#54C0EB;" d="M368.4,270.4c-0.8-1.6-3.2-1.6-3.6,0.4c0,0.8,0.4,1.6,0.4,2.4c0,2.8-3.2,3.2-5.2,2.4   c-2-1.6,0-6-1.6-8.4c-1.6-2-4.4,0-6.8-0.8c-0.4,1.6-0.8,3.6-1.6,5.2c-2.8-0.8-6-1.2-8.4,0.4s-4,6-2.4,8.8c-4.8-0.4-10-0.4-13.6,3.2   c-2,1.6-3.2,4.4-3.2,7.2c-0.4,4.8,2.8,9.6,2,14.4c4.8,1.6,9.6-1.2,14.4-2.8c4.8-1.6,10.8-2,13.6,2.8c0.4,0.4,0.8,1.2,0.8,2   c6.8-9.2,12.4-19.2,16.8-29.6c-0.4-0.8-0.4-1.6-0.4-2.4C369.2,274,369.2,272,368.4,270.4z"/>
	<path style="fill:#54C0EB;" d="M278.8,264c-0.4,2-0.8,4-1.2,6c0,0.8-0.4,1.2-0.4,2c-0.4,2-0.4,4.4-0.4,6.4s0,4,1.6,4.8   c1.6,1.2,3.6-0.4,4.4-2.4s0.4-4,0-6.4c-0.4-2-0.4-4.4,0.4-6.4s2.8-3.6,2-5.6C282.8,262.8,280.8,263.2,278.8,264z"/>
	<path style="fill:#54C0EB;" d="M366.4,234.8c0,0.4,0,0.8,0,0.8c0,0.4-0.4,0.4-0.8,0.4c-1.2,0.4-2.4,1.2-3.2,1.6   c0.4,1.6-0.4,3.6,0,5.2c0.4,2,2.4,3.2,4,3.2s3.2-0.4,4.8-1.2c0.4,0,0.8-0.4,1.2-0.8c0.8-0.8,0.8-2.8,0.4-4.4   c-0.4-1.6-1.2-2.8-0.8-4.4c0.4-1.2,1.2-2,1.6-3.2s0-2.8-0.8-2.8c-0.4,0-1.2,0.4-1.6,0.8c-0.8,0.4-2,0-2.8,0.4   C366.8,231.6,366.4,233.2,366.4,234.8z"/>
</g>
<ellipse transform="matrix(-0.6732 -0.7395 0.7395 -0.6732 278.8347 828.4908)" style="fill:#E6E9EE;" cx="322.497" cy="352.629" rx="81.202" ry="58.402"/>
<path style="fill:#FF7058;" d="M359.6,307.6c-30-28.4-69.6-35.2-92-14.8c-22.4,20.4-19.2,60.8,6.4,93.2L359.6,307.6z"/>
<g>
	<path style="fill:#324A5E;" d="M281.2,307.6c-2.8,2.4-2.8,6.4-0.4,9.2l14.4,16c2.4,2.8,6.4,2.8,9.2,0.4c2.8-2.4,2.8-6.4,0.4-9.2   l-14.4-16C288,305.2,283.6,304.8,281.2,307.6z"/>
	<path style="fill:#324A5E;" d="M381.2,165.6h-4.8v7.6h4.8c8.8,0,16,7.2,16,16s-7.2,16-16,16H276.8c-6.4,0-12.4,2.4-16.8,6.8   l-21.6,21.6c-4.4,4.4-6.8,10.4-6.8,16.4c0,6.4,2.4,12.4,6.8,16.8l27.2,27.6l5.6-5.6L244,261.2c-3.2-3.2-4.8-7.2-4.8-11.2   c0-4.4,1.6-8.4,4.8-11.2l21.6-21.6c3.2-3.2,7.2-4.8,11.2-4.8h104.4c13.2,0,23.6-10.8,23.6-23.6C404.8,176,394,165.6,381.2,165.6z"/>
</g>
<g>
</g>
<g>
</g>
<g>
</g>
<g>
</g>
<g>
</g>
<g>
</g>
<g>
</g>
<g>
</g>
<g>
</g>
<g>
</g>
<g>
</g>
<g>
</g>
<g>
</g>
<g>
</g>
<g>
</g>
</svg>
