<?xml version="1.0" encoding="iso-8859-1"?>
<!-- Generator: Adobe Illustrator 19.0.0, SVG Export Plug-In . SVG Version: 6.00 Build 0)  -->
<svg xmlns="http://www.w3.org/2000/svg" xmlns:xlink="http://www.w3.org/1999/xlink" version="1.1" id="Layer_1" x="0px" y="0px" viewBox="0 0 508 508" style="enable-background:new 0 0 508 508;" xml:space="preserve">
<circle style="fill:#84DBFF;" cx="254" cy="254" r="254"/>
<path style="fill:#324A5E;" d="M367.6,102.4H140.4c-4.4,0-8,3.6-8,8v286.8c0,4.4,3.6,8,8,8h227.2c4.4,0,8-3.6,8-8V110.8  C375.6,106,372,102.4,367.6,102.4z"/>
<g>
	<path style="fill:#FFFFFF;" d="M183.6,118.4H154c-1.6,0-2.8,1.2-2.8,2.8v19.6c0,1.6,1.2,2.8,2.8,2.8h29.6c1.6,0,2.8-1.2,2.8-2.8   v-19.6C186.4,119.6,185.2,118.4,183.6,118.4z"/>
	<path style="fill:#FFFFFF;" d="M183.6,167.6H154c-1.6,0-2.8,1.2-2.8,2.8V190c0,1.6,1.2,2.8,2.8,2.8h29.6c1.6,0,2.8-1.2,2.8-2.8   v-19.6C186.4,168.8,185.2,167.6,183.6,167.6z"/>
	<path style="fill:#FFFFFF;" d="M183.6,216.8H154c-1.6,0-2.8,1.2-2.8,2.8v19.6c0,1.6,1.2,2.8,2.8,2.8h29.6c1.6,0,2.8-1.2,2.8-2.8   v-19.6C186.4,218,185.2,216.8,183.6,216.8z"/>
	<path style="fill:#FFFFFF;" d="M183.6,266.4H154c-1.6,0-2.8,1.2-2.8,2.8v19.6c0,1.6,1.2,2.8,2.8,2.8h29.6c1.6,0,2.8-1.2,2.8-2.8   v-19.6C186.4,267.6,185.2,266.4,183.6,266.4z"/>
	<path style="fill:#FFFFFF;" d="M183.6,315.6H154c-1.6,0-2.8,1.2-2.8,2.8V338c0,1.6,1.2,2.8,2.8,2.8h29.6c1.6,0,2.8-1.2,2.8-2.8   v-19.6C186.4,316.8,185.2,315.6,183.6,315.6z"/>
	<path style="fill:#FFFFFF;" d="M183.6,364.8H154c-1.6,0-2.8,1.2-2.8,2.8v19.6c0,1.6,1.2,2.8,2.8,2.8h29.6c1.6,0,2.8-1.2,2.8-2.8   v-19.6C186.4,366,185.2,364.8,183.6,364.8z"/>
	<path style="fill:#FFFFFF;" d="M354,118.4h-29.6c-1.6,0-2.8,1.2-2.8,2.8v19.6c0,1.6,1.2,2.8,2.8,2.8H354c1.6,0,2.8-1.2,2.8-2.8   v-19.6C356.8,119.6,355.6,118.4,354,118.4z"/>
	<path style="fill:#FFFFFF;" d="M354,167.6h-29.6c-1.6,0-2.8,1.2-2.8,2.8V190c0,1.6,1.2,2.8,2.8,2.8H354c1.6,0,2.8-1.2,2.8-2.8   v-19.6C356.8,168.8,355.6,167.6,354,167.6z"/>
	<path style="fill:#FFFFFF;" d="M354,216.8h-29.6c-1.6,0-2.8,1.2-2.8,2.8v19.6c0,1.6,1.2,2.8,2.8,2.8H354c1.6,0,2.8-1.2,2.8-2.8   v-19.6C356.8,218,355.6,216.8,354,216.8z"/>
	<path style="fill:#FFFFFF;" d="M354,266.4h-29.6c-1.6,0-2.8,1.2-2.8,2.8v19.6c0,1.6,1.2,2.8,2.8,2.8H354c1.6,0,2.8-1.2,2.8-2.8   v-19.6C356.8,267.6,355.6,266.4,354,266.4z"/>
	<path style="fill:#FFFFFF;" d="M354,315.6h-29.6c-1.6,0-2.8,1.2-2.8,2.8V338c0,1.6,1.2,2.8,2.8,2.8H354c1.6,0,2.8-1.2,2.8-2.8   v-19.6C356.8,316.8,355.6,315.6,354,315.6z"/>
	<path style="fill:#FFFFFF;" d="M354,364.8h-29.6c-1.6,0-2.8,1.2-2.8,2.8v19.6c0,1.6,1.2,2.8,2.8,2.8H354c1.6,0,2.8-1.2,2.8-2.8   v-19.6C356.8,366,355.6,364.8,354,364.8z"/>
	<path style="fill:#FFFFFF;" d="M299.2,118.4h-90.4c-2,0-3.2,1.6-3.2,3.2v116.8c0,2,1.6,3.2,3.2,3.2h90.4c2,0,3.2-1.6,3.2-3.2V121.6   C302.8,120,301.2,118.4,299.2,118.4z"/>
	<path style="fill:#FFFFFF;" d="M299.2,266.4h-90.4c-2,0-3.2,1.6-3.2,3.2v116.8c0,2,1.6,3.2,3.2,3.2h90.4c2,0,3.2-1.6,3.2-3.2V269.6   C302.8,267.6,301.2,266.4,299.2,266.4z"/>
</g>
<g>
</g>
<g>
</g>
<g>
</g>
<g>
</g>
<g>
</g>
<g>
</g>
<g>
</g>
<g>
</g>
<g>
</g>
<g>
</g>
<g>
</g>
<g>
</g>
<g>
</g>
<g>
</g>
<g>
</g>
</svg>
