<?xml version="1.0" encoding="iso-8859-1"?>
<!-- Generator: Adobe Illustrator 19.0.0, SVG Export Plug-In . SVG Version: 6.00 Build 0)  -->
<svg xmlns="http://www.w3.org/2000/svg" xmlns:xlink="http://www.w3.org/1999/xlink" version="1.1" id="Layer_1" x="0px" y="0px" viewBox="0 0 508 508" style="enable-background:new 0 0 508 508;" xml:space="preserve">
<circle style="fill:#324A5E;" cx="254" cy="254" r="254"/>
<path style="fill:#E6E9EE;" d="M240.8,123.2l-90,18c-4.8,0.8-8.8,4.8-9.6,9.6l-18,90c-0.8,4,0.4,8.4,3.2,11.2l160.4,160.4  c4.8,4.8,12.8,4.8,17.6,0l108-108c4.8-4.8,4.8-12.8,0-17.6L252,126.4C249.2,123.6,244.8,122.4,240.8,123.2z"/>
<rect x="174.062" y="208.092" transform="matrix(-0.7071 -0.7071 0.7071 -0.7071 271.7814 655.5589)" style="fill:#FFFFFF;" width="195.198" height="126.799"/>
<circle style="fill:#324A5E;" cx="172.8" cy="172.8" r="18"/>
<path style="fill:#FF7058;" d="M113.6,113.6c-5.2,5.2-5.2,14,0,19.2l43.2,43.2c5.2,5.2,14,5.2,19.2,0s5.2-14,0-19.2l-43.2-43.2  C127.6,108.4,118.8,108.4,113.6,113.6z"/>
<g>
</g>
<g>
</g>
<g>
</g>
<g>
</g>
<g>
</g>
<g>
</g>
<g>
</g>
<g>
</g>
<g>
</g>
<g>
</g>
<g>
</g>
<g>
</g>
<g>
</g>
<g>
</g>
<g>
</g>
</svg>
