<?xml version="1.0" encoding="iso-8859-1"?>
<!-- Generator: Adobe Illustrator 19.0.0, SVG Export Plug-In . SVG Version: 6.00 Build 0)  -->
<svg xmlns="http://www.w3.org/2000/svg" xmlns:xlink="http://www.w3.org/1999/xlink" version="1.1" id="Layer_1" x="0px" y="0px" viewBox="0 0 508 508" style="enable-background:new 0 0 508 508;" xml:space="preserve">
<circle style="fill:#90DFAA;" cx="254" cy="254" r="254"/>
<polygon style="fill:#FFFFFF;" points="325.2,89.2 165.2,89.2 165.2,370.8 396,370.8 396,160 "/>
<g>
	<polygon style="fill:#E6E9EE;" points="325.2,160 396,160 325.2,89.2  "/>
	<rect x="202.8" y="185.6" style="fill:#E6E9EE;" width="161.6" height="8.8"/>
	<rect x="202.8" y="225.6" style="fill:#E6E9EE;" width="161.6" height="8.8"/>
	<rect x="202.8" y="265.6" style="fill:#E6E9EE;" width="161.6" height="8.8"/>
	<rect x="202.8" y="305.6" style="fill:#E6E9EE;" width="161.6" height="8.8"/>
</g>
<polygon style="fill:#F1543F;" points="209.2,418.8 178,394.8 146.4,418.8 146.4,310 209.2,310 "/>
<path style="fill:#FF7058;" d="M238,289.6c2-2,2-5.6,0-7.6l-4.4-4.4c-1.6-1.6-2-4-1.2-6l2.4-6c1.2-2.8,0-6-2.8-7.2l-6-2.4  c-2-0.8-3.2-2.8-3.2-5.2v-6.4c0-2.8-2.4-5.6-5.6-5.6h-6.4c-2,0-4-1.2-5.2-3.2l-2.4-6c-1.2-2.8-4.4-4-7.2-2.8l-6,2.4  c-2,0.8-4.4,0.4-6-1.2l-4.4-4.4c-2-2-5.6-2-7.6,0l-4.4,4.4c-1.6,1.6-4,2-6,1.2l-6-2.4c-2.8-1.2-6,0-7.2,2.8l-2.4,6  c-0.8,2-2.8,3.2-5.2,3.2h-6.4c-2.8,0-5.6,2.4-5.6,5.6v6.4c0,2-1.2,4-3.2,5.2l-6,2.4c-2.8,1.2-4,4.4-2.8,7.2l2.4,6  c0.8,2,0.4,4.4-1.2,6l-4.4,4.4c-2,2-2,5.6,0,7.6l4.4,4.4c1.6,1.6,2,4,1.2,6l-2.4,6c-1.2,2.8,0,6,2.8,7.2l6,2.4  c2,0.8,3.2,2.8,3.2,5.2v6.4c0,2.8,2.4,5.6,5.6,5.6h6.4c2,0,4,1.2,5.2,3.2l2.4,6c1.2,2.8,4.4,4,7.2,2.8l6-2.4c2-0.8,4.4-0.4,6,1.2  l4.4,4.4c2,2,5.6,2,7.6,0l4.4-4.4c1.6-1.6,4-2,6-1.2l6,2.4c2.8,1.2,6,0,7.2-2.8l2.4-6c0.8-2,2.8-3.2,5.2-3.2h6.4  c2.8,0,5.6-2.4,5.6-5.6v-6.4c0-2,1.2-4,3.2-5.2l6-2.4c2.8-1.2,4-4.4,2.8-7.2l-2.4-6c-0.8-2-0.4-4.4,1.2-6L238,289.6z"/>
<circle style="fill:#FFFFFF;" cx="176" cy="285.6" r="34.4"/>
<g>
</g>
<g>
</g>
<g>
</g>
<g>
</g>
<g>
</g>
<g>
</g>
<g>
</g>
<g>
</g>
<g>
</g>
<g>
</g>
<g>
</g>
<g>
</g>
<g>
</g>
<g>
</g>
<g>
</g>
</svg>
