<?xml version="1.0" encoding="iso-8859-1"?>
<!-- Generator: Adobe Illustrator 19.0.0, SVG Export Plug-In . SVG Version: 6.00 Build 0)  -->
<svg xmlns="http://www.w3.org/2000/svg" xmlns:xlink="http://www.w3.org/1999/xlink" version="1.1" id="Layer_1" x="0px" y="0px" viewBox="0 0 508 508" style="enable-background:new 0 0 508 508;" xml:space="preserve">
<circle style="fill:#324A5E;" cx="254" cy="254" r="254"/>
<path style="fill:#E6E9EE;" d="M381.6,126.4H126.4c-16,0-29.2,13.2-29.2,29.2v196.8c0,16,13.2,29.2,29.2,29.2h255.2  c16,0,29.2-13.2,29.2-29.2V155.6C410.8,139.6,397.6,126.4,381.6,126.4z"/>
<path style="fill:#CED5E0;" d="M97.2,352.4L97.2,352.4l162.4-125.6l151.2,125.6l0,0c0,16-13.2,29.2-29.2,29.2H126.4  C110.4,381.6,97.2,368.4,97.2,352.4z"/>
<g>
	<path style="fill:#FFFFFF;" d="M97.2,155.6L97.2,155.6l148.4,114.8c8,6.4,19.2,6,27.2-0.4l137.6-114.4l0,0   c0-16-13.2-29.2-29.2-29.2H126.4C110.4,126.4,97.2,139.6,97.2,155.6z"/>
	<path style="fill:#FFFFFF;" d="M113.6,378.4l-13.2-13.2C103.2,370.8,108,375.6,113.6,378.4z"/>
	<path style="fill:#FFFFFF;" d="M405.6,139.2c-2.8-4.4-6.8-7.6-11.2-10l13.2,13.2C407.2,141.6,406.4,140.4,405.6,139.2z"/>
</g>
<path style="fill:#FF7058;" d="M407.6,142.8l-13.2-13.2c-1.2-0.8-2.8-1.2-4-1.6c-2.8-0.8-5.6-1.2-8.8-1.2h-8l37.2,37.2v-8  C410.8,151.2,409.6,146.8,407.6,142.8z"/>
<g>
	<polygon style="fill:#4CDBC4;" points="395.6,199.6 410.8,214.8 410.8,196.8 395.6,181.6  "/>
	<polygon style="fill:#4CDBC4;" points="355.6,141.6 340,126.4 322.4,126.4 337.6,141.6  "/>
</g>
<g>
	<polygon style="fill:#FF7058;" points="395.6,250.8 410.8,266 410.8,248 395.6,232.8  "/>
	<polygon style="fill:#FF7058;" points="304.4,141.6 289.2,126.4 271.2,126.4 286.4,141.6  "/>
</g>
<g>
	<polygon style="fill:#4CDBC4;" points="395.6,302 410.8,317.2 410.8,299.2 395.6,284  "/>
	<polygon style="fill:#4CDBC4;" points="253.2,141.6 238,126.4 220,126.4 235.2,141.6  "/>
</g>
<g>
	<path style="fill:#FF7058;" d="M395.6,352.4c0,0.4,0,0.4,0,0.8l12.4,12.4c2-4,3.2-8.4,3.2-13.2v-1.6L396,335.6v16.8H395.6z"/>
	<polygon style="fill:#FF7058;" points="202,141.6 186.8,126.4 168.8,126.4 184,141.6  "/>
</g>
<g>
	<path style="fill:#4CDBC4;" d="M150.8,141.6l-15.2-15.2h-8.8c-2.8,0-5.2,0.4-8,1.2l14,14H150.8z"/>
	<path style="fill:#4CDBC4;" d="M357.2,366.4l15.2,15.2h8.8c2.8,0,5.2-0.4,8-1.2l-14-14H357.2z"/>
</g>
<g>
	<path style="fill:#FF7058;" d="M112.4,155.6c0-0.4,0-0.4,0-0.8L100,142.4c-2,4-3.2,8.4-3.2,13.2v1.6l15.2,15.2v-16.8H112.4z"/>
	<polygon style="fill:#FF7058;" points="306,366.4 321.2,381.6 339.2,381.6 324,366.4  "/>
</g>
<g>
	<polygon style="fill:#4CDBC4;" points="112.4,206 97.2,190.8 97.2,208.8 112.4,224  "/>
	<polygon style="fill:#4CDBC4;" points="254.8,366.4 270,381.6 288,381.6 272.8,366.4  "/>
</g>
<g>
	<polygon style="fill:#FF7058;" points="203.6,366.4 218.8,381.6 236.8,381.6 221.6,366.4  "/>
	<polygon style="fill:#FF7058;" points="112.4,257.2 97.2,242 97.2,260 112.4,275.2  "/>
</g>
<g>
	<polygon style="fill:#4CDBC4;" points="152.4,366.4 168,381.6 185.6,381.6 170.4,366.4  "/>
	<polygon style="fill:#4CDBC4;" points="112.4,308.4 97.2,293.2 97.2,311.2 112.4,326.4  "/>
</g>
<path style="fill:#FF7058;" d="M97.2,352.4c0,4.8,1.2,8.8,3.2,12.8l13.2,13.2c4,2,8.4,3.2,12.8,3.2h8l-37.2-37.2V352.4z"/>
<path style="fill:#FFD05B;" d="M264,235.2L264,235.2c-1.6,4.4-4.4,6.4-8.8,6.4c-3.2,0-5.6-1.2-7.2-3.2c-2-2.4-2.8-5.2-2.8-9.2  c0-5.2,1.2-9.2,4-12.4c2.4-3.2,5.6-4.8,9.2-4.8c3.2,0,5.2,1.2,6,4l0,0l0.4-3.2h7.6c-0.8,9.6-1.6,15.6-1.6,18.4  c0,3.2,0.8,4.8,2.4,4.8s3.2-1.2,4.4-3.6c1.2-2.4,1.6-5.2,1.6-9.2c0-5.2-1.6-9.2-4.8-12.8c-3.2-3.2-8-4.8-13.6-4.8  c-6.4,0-11.6,2.4-15.6,6.8c-4,4.4-6.4,9.6-6.4,16c0,6,2,10.8,5.6,14.4c3.6,3.6,8.8,5.2,15.2,5.2c4.8,0,9.6-0.8,13.6-2.8v6.4  c-3.6,1.6-8.8,2.4-14.4,2.4c-8,0-14.8-2.4-20-7.2s-7.6-10.8-7.6-18.8s2.8-14.8,8-20.4c5.6-5.6,12.4-8.4,21.2-8.4  c8,0,14.4,2,19.2,6.4c4.8,4.4,7.2,10,7.2,16.8c0,5.6-1.6,10.4-4.4,13.6c-3.2,3.6-6.8,5.2-11.2,5.2c-2,0-4-0.4-5.2-1.6  C264.8,238.8,264,237.2,264,235.2z M259.6,218c-2,0-3.6,1.2-4.8,3.2c-1.2,2.4-2,4.8-2,8c0,2,0.4,3.6,1.2,4.8c0.8,1.2,2,1.6,3.2,1.6  c2,0,3.6-1.2,4.8-3.2c1.2-2.4,1.6-5.2,1.6-8.8c0-1.6-0.4-3.2-1.2-4C262,218.4,260.8,218,259.6,218z"/>
<g>
</g>
<g>
</g>
<g>
</g>
<g>
</g>
<g>
</g>
<g>
</g>
<g>
</g>
<g>
</g>
<g>
</g>
<g>
</g>
<g>
</g>
<g>
</g>
<g>
</g>
<g>
</g>
<g>
</g>
</svg>
