<?xml version="1.0" encoding="iso-8859-1"?>
<!-- Generator: Adobe Illustrator 19.0.0, SVG Export Plug-In . SVG Version: 6.00 Build 0)  -->
<svg xmlns="http://www.w3.org/2000/svg" xmlns:xlink="http://www.w3.org/1999/xlink" version="1.1" id="Layer_1" x="0px" y="0px" viewBox="0 0 508 508" style="enable-background:new 0 0 508 508;" xml:space="preserve">
<circle style="fill:#324A5E;" cx="254" cy="254" r="254"/>
<path style="fill:#F9B54C;" d="M389.2,144.4H251.6V134c0-6.8-5.6-12.4-12.4-12.4h-86.4c-6.8,0-12.4,5.6-12.4,12.4v10.4h-25.6  c-6,0-10.8,4.8-10.8,10.8v204.4c0,8,6.4,14.4,14.4,14.4H386c8,0,14.4-6.4,14.4-14.4V155.2C400,149.2,395.2,144.4,389.2,144.4z"/>
<rect x="145.2" y="171.6" style="fill:#FFFFFF;" width="213.2" height="159.2"/>
<path style="fill:#FFD05B;" d="M420.4,210.4H211.6c-6.4,0-11.2,5.2-10.8,11.2l2,33.6c0.4,5.6-4.4,10.4-10.4,10.4H93.2  c-6,0-10,4.4-8.8,10l17.2,86.8c1.2,6.8,7.2,11.6,14,11.6h272.8c6.8,0,12.8-4.8,14-11.6l27.2-140.8  C430.8,215.6,426.8,210.4,420.4,210.4z"/>
<g>
</g>
<g>
</g>
<g>
</g>
<g>
</g>
<g>
</g>
<g>
</g>
<g>
</g>
<g>
</g>
<g>
</g>
<g>
</g>
<g>
</g>
<g>
</g>
<g>
</g>
<g>
</g>
<g>
</g>
</svg>
