<?xml version="1.0" encoding="iso-8859-1"?>
<!-- Generator: Adobe Illustrator 19.0.0, SVG Export Plug-In . SVG Version: 6.00 Build 0)  -->
<svg xmlns="http://www.w3.org/2000/svg" xmlns:xlink="http://www.w3.org/1999/xlink" version="1.1" id="Layer_1" x="0px" y="0px" viewBox="0 0 508 508" style="enable-background:new 0 0 508 508;" xml:space="preserve">
<circle style="fill:#84DBFF;" cx="254" cy="254" r="254"/>
<rect x="140.8" y="161.2" style="fill:#324A5E;" width="226" height="186"/>
<g>
	<path style="fill:#FFFFFF;" d="M381.6,113.2H126.4c-5.6,0-10.4,4.4-10.4,10.4v61.2c0,5.6,4.4,10.4,10.4,10.4h254.8   c5.6,0,10.4-4.4,10.4-10.4v-61.2C391.6,118,387.2,113.2,381.6,113.2z"/>
	<path style="fill:#FFFFFF;" d="M381.6,213.2H126.4c-5.6,0-10.4,4.4-10.4,10.4v61.2c0,5.6,4.4,10.4,10.4,10.4h254.8   c5.6,0,10.4-4.4,10.4-10.4v-61.2C391.6,217.6,387.2,213.2,381.6,213.2z"/>
	<path style="fill:#FFFFFF;" d="M381.6,313.2H126.4c-5.6,0-10.4,4.4-10.4,10.4v61.2c0,5.6,4.4,10.4,10.4,10.4h254.8   c5.6,0,10.4-4.4,10.4-10.4v-61.6C391.6,317.6,387.2,313.2,381.6,313.2z"/>
</g>
<g>
	<rect x="222" y="337.2" style="fill:#FF7058;" width="64.4" height="13.6"/>
	<polygon style="fill:#FF7058;" points="310.8,245.6 254,188.8 197.2,245.6 222,245.6 222,326 286,326 286,245.6  "/>
</g>
<g>
</g>
<g>
</g>
<g>
</g>
<g>
</g>
<g>
</g>
<g>
</g>
<g>
</g>
<g>
</g>
<g>
</g>
<g>
</g>
<g>
</g>
<g>
</g>
<g>
</g>
<g>
</g>
<g>
</g>
</svg>
