<?xml version="1.0" encoding="iso-8859-1"?>
<!-- Generator: Adobe Illustrator 19.0.0, SVG Export Plug-In . SVG Version: 6.00 Build 0)  -->
<svg xmlns="http://www.w3.org/2000/svg" xmlns:xlink="http://www.w3.org/1999/xlink" version="1.1" id="Layer_1" x="0px" y="0px" viewBox="0 0 508 508" style="enable-background:new 0 0 508 508;" xml:space="preserve">
<circle style="fill:#324A5E;" cx="254" cy="254" r="254"/>
<circle style="fill:#FFFFFF;" cx="216" cy="225.2" r="144.8"/>
<g>
	<path style="fill:#4CDBC4;" d="M312,126.8c-2.8,0-5.2,0-8-0.8c-5.2-1.2-10-4-15.6-4s-10.8,4.4-13.2,10c-3.2,2-6.4-2-10-2.8   c-2.4-0.4-4.8,0.8-7.2,2c-6.8,2.8-14,3.6-21.2,2c-6-1.2-13.2-3.6-17.6,1.6c-1.2,1.6-2.4,4-4,5.2s-4.4,1.2-4.4,3.6   c-0.4,4.4,9.2,2,8.4,6.4c2,0,4.4,0,6.4,0c0-2.4-0.4-4.4-0.4-6.8c2.8-0.8,7.2,0,7.2,3.6c0,1.6-0.8,2.8-1.6,3.6   c-2.4,3.2-6,5.2-9.6,5.6c-3.6,0.4-7.6-0.4-11.2,0c-3.6,0.4-7.6,2.8-8.8,6.8c-0.4,2.4-0.4,5.2-1.6,6.8c-2,2-6.4,0-7.6,3.2   c-0.8,2,1.2,4,2.8,4.8c2.8,1.2,5.6,1.6,8.4,0.4c0.4-2,0.8-4,1.2-6c5.2,3.2,11.6-8.4,16.4-4.4c2,1.6,3.2,4,3.6,6.4   c2.4,0.4,4.8,0.8,6.8,1.2c0.4-1.6,0.8-3.2,0.4-4.8c2,0,4,0,6,0c0-1.6,0-3.6,0-5.2c6-2.4,13.2,2.4,14.8,10   c-5.6,0.8-11.2,1.6-16.8,2.8c1.6,4,6.4,4.4,10,3.6c1.6,2.8-0.8,6.8-3.6,7.6s-5.6,0-8.8,0c-4.4,0.4-8.4,2.8-12.4,1.6   c-3.6-0.8-6-4.4-9.6-5.6c-4.8-2-10,0.8-14.8,3.6c-0.8,1.2-0.8,2.8-0.4,4.4c-5.6,2.8-12,6.4-13.6,13.6c-1.2,5.2,1.2,10.8,3.2,15.6   c1.2,2.8,2.8,5.6,4.8,7.6c5.6,5.6,13.6,4.8,21.2,3.6c3.6,7.6,6.8,15.6,6.4,24c-0.4,2.8-0.8,5.6-0.8,8.8c0.4,2.8,1.2,5.2,2,7.6   c0.8,2,1.6,4,2,6c2.4,6.8,4,13.6,4,20.8c2.8,0,5.6,0,8.4,0c2-2,4-4.4,6-6.4c1.2-1.2,2-2,2.4-3.6s-0.4-3.6-1.6-3.6   c3.6-0.8,6-6.8,4-10.8c4.4,0.4,7.2-6,7.2-11.6s-1.6-11.2,0.4-16c2-2.8,4.4-4.8,6-6.8c3.6-3.6,6.4-8.4,8.4-13.2   c0.4-0.4,0.4-1.2,0.4-2c-0.4-1.6-2.4-2-3.6-1.2s-2.4,2-4,2c-1.6-0.4-2.4-2.4-3.2-4c-4.4-9.2-13.2-15.2-14.4-25.2   c1.6-0.4,3.2-0.4,4.8-0.8c3.6,6,6.8,12,10.4,18.4c1.6,2.8,4.4,5.6,6.4,3.6c0.8-2.8,3.6-4.4,6-3.2c0.4-4,6-4.4,6.4-8.4   c0.4-2.8-2.4-5.2-4.8-5.2s-4.8,0.8-7.2,0.4c0.4-1.6,0.4-3.2,0.4-4.8c-1.2-0.8-2.8-1.2-4.4-1.2c0.4-3.2,3.6-5.2,5.6-3.6   c0.8,0.8,1.6,2,2.4,2.8c4.4,5.2,12.4,1.2,17.6,4.8c1.6,1.2,3.2,2.8,4.4,4.4c4.4,6.4,8,13.6,10,21.6c0.8,0,1.6,0,2.8,0   c0-8,4-16,10.4-19.2c0.4-0.8,0.4-1.6,0.8-2.4c3.6-1.2,7.2,2,9.6,5.2c1.2,1.6,2.8,3.2,4,4.8c0,0.8,0.4,2,0.4,2.8   c3.6,0,6.8,3.6,7.2,8c0.8-0.4,1.6-0.4,2.8-0.8c1.6-0.4,2-2.8,2-4.8c-0.4-2-1.6-3.2-2.4-4.8c-1.6-2-3.2-4.4-4.4-6.4   c2.8-2,6.4-3.2,9.6-2.8c-0.8-1.6,1.6-2.4,2.8-2.8c2.8-0.8,4.8-4.8,4.8-8.4c-0.4-3.6-2.8-6.8-6-7.2c-2-3.6-2.8-9.2-0.4-12.8   c2-2.8,5.6-3.6,8.4-2c-6.4-17.6-16.4-34-29.2-47.6C319.2,127.2,315.6,127.2,312,126.8z"/>
	<path style="fill:#4CDBC4;" d="M85.6,220.4c0.4,2,1.6,4,2.8,5.6c2.4,2.4,6,2.8,9.2,4s6.4,4,6,8c0,3.2-2.8,5.6-3.6,8.8   c-2,5.6,1.2,12,4.8,16c3.6,4,8.4,7.2,10.4,12.8c0.8,2.4,0.8,5.2,1.2,8c0.4,10,1.2,19.6,1.6,29.6c0.4,4.4,0.4,9.2,2,13.2   s4.8,7.6,8.4,8c-0.4-4.8-1.2-9.6-1.6-14.4c-0.4-2-0.4-4,0-5.6s2.4-3.2,3.6-2.4c-0.8-2.4,0.8-5.2,3.2-5.2c0-2-1.2-4-2.8-4.4   c0.8-2,2.4-3.2,4.4-3.6c0,2,2.4,3.2,3.6,2c1.2-1.2,1.6-3.6,1.6-5.6s-0.4-4,0.4-6c0.8-3.2,4-4.8,6.4-6c2.4-5.6,4.8-11.2,7.2-16.8   c0.8-2,1.6-4,1.6-6.4c-0.4-4.4-4-7.2-7.6-8.8s-7.6-3.2-9.2-7.2c-0.8-1.6-0.8-3.2-1.6-4.8c-0.8-1.2-2-2-3.2-2.8   c-4-2.4-7.6-4.8-11.6-7.2c-2.4-1.6-4.8-3.2-7.6-3.6c-2.8-0.4-5.6,0-8.4,0.4c-1.2,3.2-4.8,4.8-7.6,3.6c-2.8-1.2-4.8-4.8-4-8.4   c0-1.2,0.4-2.4,0-3.2c-0.4-0.4-0.8-0.8-1.2-0.8c-1.6-0.4-2.8-1.2-4.4-1.6c0.4-2.4,0.8-4.4,1.2-6.8c-1.2-0.8-2.4-0.8-3.6,0   c0,1.6,0,2.8,0,4.4c-2.4,0-5.2,0-7.6,0c0.4-2.4,0-5.2-1.2-7.6c1.2-9.2,10-16,17.2-12.8c0.4,4.8,4.4,8.8,8.4,8.4   c2.4-2.4-2.4-7.2-0.4-10.4c0.8-1.2,2-1.2,2.8-2s1.2-2,2-2.8c3.6-7.2,10-12.4,16.8-14.4c2.8-0.8,6.4-2.4,5.6-5.6   c0-0.8-0.4-1.2-0.8-2c-0.4-1.6,0.8-2.8,2-3.2s2.4,0,3.6,0.4c-0.4,4,4,7.6,6.8,5.6c2-3.6-4.8-8.8-2.4-12c-1.6-0.4-2.8-1.2-4.4-1.6   c0-1.6-0.4-3.6-0.4-5.2c-1.2,0.4-2,0-3.2-0.4c-0.4-1.6-0.8-2.8-0.8-4.4c-2.8,0-5.6,0-8.4,0c0.4,3.6,0.4,8.4-2.4,10   c-0.8,0.4-2,0.4-2.8,0.4c-1.6,0-3.2,0-5.2,0c-1.2,0-2.8,0-4-0.8c-1.6-1.2-2-3.6-1.2-5.2c0.8-2,2.8-2.8,4.4-2   c-0.4-3.6,2.8-6,5.6-6.8c2.8-0.4,6,0,8.8-1.2c-1.2-4.4-6-5.2-10-4c-3.6,1.2-8,3.2-11.2,0.8l-0.4-0.4c-18,21.6-30,48.8-32.8,78.8   C75.2,216.4,80.4,220,85.6,220.4z"/>
	<path style="fill:#4CDBC4;" d="M348,274c-0.8-1.6-3.2-1.6-3.2,0.4c0,0.8,0.4,1.6,0.4,2.4c0,2.8-3.2,3.2-5.2,2.4c-2-1.6,0-6-1.6-8   s-4.4,0-6.4-0.8c-0.4,1.6-0.8,3.6-1.6,5.2c-2.8-0.8-6-1.2-8.4,0.4s-4,6-2.4,8.8c-4.8-0.4-10-0.4-13.6,3.2c-2,1.6-3.2,4.4-3.2,6.8   c-0.4,4.8,2.8,9.6,2,14c4.8,1.6,9.6-1.2,14-2.8c4.8-1.6,10.4-1.6,13.6,2.8c0.4,0.4,0.8,1.2,0.8,2c6.8-9.2,12.4-18.8,16.8-29.6   c-0.4-0.8-0.4-1.6-0.4-2.4C348.8,277.2,348.8,275.2,348,274z"/>
	<path style="fill:#4CDBC4;" d="M259.2,267.6c-0.4,2-0.8,4-1.2,6c0,0.8-0.4,1.2-0.4,2c-0.4,2-0.4,4.4-0.4,6.4s0,4,1.2,4.8   c1.6,1.2,3.6-0.4,4.4-2.4s0.4-4,0-6.4c-0.4-2-0.4-4.4,0.4-6c0.8-2,2.8-3.6,2-5.6C263.2,266.4,261.2,266.8,259.2,267.6z"/>
	<path style="fill:#4CDBC4;" d="M346,238.8c0,0.4,0,0.8,0,0.8c0,0.4-0.4,0.4-0.8,0.4c-1.2,0.4-2.4,1.2-3.2,1.6   c0.4,1.6-0.4,3.6,0,5.2c0.4,2,2,3.2,4,3.2c1.6,0,3.2-0.4,4.8-1.2c0.4,0,0.8-0.4,1.2-0.8c0.8-0.8,0.8-2.8,0.4-4   c-0.4-1.6-1.2-2.8-0.8-4.4c0.4-1.2,1.2-2,1.6-3.2s0-2.8-0.8-2.8c-0.4,0-1.2,0.4-1.6,0.8c-0.8,0.4-2,0-2.8,0.4   C346.4,235.2,346,237.2,346,238.8z"/>
</g>
<rect x="267.931" y="276.849" transform="matrix(0.7071 -0.7071 0.7071 0.7071 -126.9002 284.1344)" style="fill:#2B3B4E;" width="23.2" height="36.8"/>
<circle style="fill:#324A5E;" cx="217.6" cy="233.2" r="80.8"/>
<circle style="fill:#84DBFF;" cx="217.6" cy="233.2" r="60.4"/>
<path style="fill:#FF7058;" d="M300,292.4l-23.2,23.2c-2.4,2.4-2.4,6,0,8.4l75.6,75.6c2.4,2.4,6,2.4,8.4,0l23.2-23.2  c2.4-2.4,2.4-6,0-8.4l-75.6-75.6C306,290,302.4,290,300,292.4z"/>
<g>
</g>
<g>
</g>
<g>
</g>
<g>
</g>
<g>
</g>
<g>
</g>
<g>
</g>
<g>
</g>
<g>
</g>
<g>
</g>
<g>
</g>
<g>
</g>
<g>
</g>
<g>
</g>
<g>
</g>
</svg>
