<?xml version="1.0" encoding="iso-8859-1"?>
<!-- Generator: Adobe Illustrator 19.0.0, SVG Export Plug-In . SVG Version: 6.00 Build 0)  -->
<svg xmlns="http://www.w3.org/2000/svg" xmlns:xlink="http://www.w3.org/1999/xlink" version="1.1" id="Layer_1" x="0px" y="0px" viewBox="0 0 508 508" style="enable-background:new 0 0 508 508;" xml:space="preserve">
<circle style="fill:#90DFAA;" cx="254" cy="254" r="254"/>
<path style="fill:#FFFFFF;" d="M394,127.2H114c-9.6,0-17.6,8-17.6,17.6v234.8c0,9.6,8,17.6,17.6,17.6h280c9.6,0,17.6-8,17.6-17.6  V144.8C411.6,135.2,404,127.2,394,127.2z"/>
<path style="fill:#324A5E;" d="M172.8,100c-22.8,0-41.6,18.8-41.6,41.6v173.2c0,22.8,18.8,41.6,41.6,41.6s41.6-18.8,41.6-41.6V141.6  C214.4,118.4,196,100,172.8,100z"/>
<rect x="241.6" y="155.6" style="fill:#54C0EB;" width="140" height="50.4"/>
<g>
	<rect x="241.6" y="225.2" style="fill:#CED5E0;" width="26" height="26"/>
	<rect x="298.8" y="225.2" style="fill:#CED5E0;" width="26" height="26"/>
	<rect x="355.6" y="225.2" style="fill:#CED5E0;" width="26" height="26"/>
	<rect x="241.6" y="269.2" style="fill:#CED5E0;" width="26" height="26"/>
	<rect x="298.8" y="269.2" style="fill:#CED5E0;" width="26" height="26"/>
	<rect x="355.6" y="269.2" style="fill:#CED5E0;" width="26" height="26"/>
	<rect x="241.6" y="313.6" style="fill:#CED5E0;" width="26" height="26"/>
	<rect x="298.8" y="313.6" style="fill:#CED5E0;" width="26" height="26"/>
	<rect x="355.6" y="313.6" style="fill:#CED5E0;" width="26" height="26"/>
</g>
<g>
</g>
<g>
</g>
<g>
</g>
<g>
</g>
<g>
</g>
<g>
</g>
<g>
</g>
<g>
</g>
<g>
</g>
<g>
</g>
<g>
</g>
<g>
</g>
<g>
</g>
<g>
</g>
<g>
</g>
</svg>
