<?xml version="1.0" encoding="iso-8859-1"?>
<!-- Generator: Adobe Illustrator 19.0.0, SVG Export Plug-In . SVG Version: 6.00 Build 0)  -->
<svg xmlns="http://www.w3.org/2000/svg" xmlns:xlink="http://www.w3.org/1999/xlink" version="1.1" id="Layer_1" x="0px" y="0px" viewBox="0 0 508 508" style="enable-background:new 0 0 508 508;" xml:space="preserve">
<circle style="fill:#FFD05B;" cx="254" cy="254" r="254"/>
<path style="fill:#F9B54C;" d="M76.4,435.2C122,480.4,184.8,508,254,508s132-27.6,177.6-72.8H76.4z"/>
<path style="fill:#FFFFFF;" d="M254,71.2c-37.2,0-67.2,30-67.2,67.2v96.8c0,36.8,30,66.8,67.2,66.8s67.2-30,67.2-67.2V138  C321.2,101.2,291.2,71.2,254,71.2z"/>
<path style="fill:#FF7058;" d="M186.8,179.6v55.6c0,36.8,30,66.8,67.2,66.8s67.2-30,67.2-67.2v-55.2H186.8z"/>
<path style="fill:#324A5E;" d="M354,179.6v49.6c0,54.4-42.4,100.4-96.8,102c-56.4,1.6-103.2-44-103.2-100v-51.6h-29.2v51.6  c0,66.4,50,121.2,114.4,128.4v45.6h-24.4c-16,0-29.2,13.2-29.2,29.2H322c0-16-13.2-29.2-29.2-29.2h-24.4v-45.6  c64.4-7.2,114.4-62,114.4-128.4v-51.6H354z"/>
<g>
</g>
<g>
</g>
<g>
</g>
<g>
</g>
<g>
</g>
<g>
</g>
<g>
</g>
<g>
</g>
<g>
</g>
<g>
</g>
<g>
</g>
<g>
</g>
<g>
</g>
<g>
</g>
<g>
</g>
</svg>
