<?xml version="1.0" encoding="iso-8859-1"?>
<!-- Generator: Adobe Illustrator 19.0.0, SVG Export Plug-In . SVG Version: 6.00 Build 0)  -->
<svg xmlns="http://www.w3.org/2000/svg" xmlns:xlink="http://www.w3.org/1999/xlink" version="1.1" id="Layer_1" x="0px" y="0px" viewBox="0 0 508 508" style="enable-background:new 0 0 508 508;" xml:space="preserve">
<circle style="fill:#FD8469;" cx="254" cy="254" r="254"/>
<path style="fill:#324A5E;" d="M396,267.2h-24v-49.6c0-65.2-52.8-118-118-118s-117.6,53.2-117.6,118v48.8h-24v-48.8  C112.4,139.6,176,76,254,76s141.6,63.6,141.6,141.6v49.6H396z"/>
<path style="fill:#FFD05B;" d="M417.6,269.6h-16.8v83.6h16.8c9.6,0,17.2-7.6,17.2-17.2v-48.8C435.2,277.6,427.2,269.6,417.6,269.6z"/>
<path style="fill:#FFFFFF;" d="M385.6,250.4h-2.4c-10,0-18.4,8.4-18.4,18.4V354c0,10,8.4,18.4,18.4,18.4h2.4  c10,0,18.4-8.4,18.4-18.4v-85.2C403.6,258.8,395.6,250.4,385.6,250.4z"/>
<path style="fill:#FFD05B;" d="M90.4,269.6h16.8v83.6H90.4c-9.6,0-17.2-7.6-17.2-17.2v-48.8C72.8,277.6,80.8,269.6,90.4,269.6z"/>
<g>
	<path style="fill:#FFFFFF;" d="M122.4,250.4h2.4c10,0,18.4,8.4,18.4,18.4V354c0,10-8.4,18.4-18.4,18.4h-2.4   c-10,0-18.4-8.4-18.4-18.4v-85.2C104.4,258.8,112.4,250.4,122.4,250.4z"/>
	<path style="fill:#FFFFFF;" d="M318.4,86.8c-19.2-9.6-40.8-14.8-64-14.8s-44.4,5.2-64,14.8c-1.2,0.8-2,2-2,3.6V118   c0,2.8,3.2,4.8,5.6,3.2c17.6-10.8,38-17.2,60.4-17.2c22,0,42.8,6.4,60.4,17.2c2.4,1.6,5.6-0.4,5.6-3.2V90.4   C320.4,88.8,319.6,87.6,318.4,86.8z"/>
</g>
<g>
</g>
<g>
</g>
<g>
</g>
<g>
</g>
<g>
</g>
<g>
</g>
<g>
</g>
<g>
</g>
<g>
</g>
<g>
</g>
<g>
</g>
<g>
</g>
<g>
</g>
<g>
</g>
<g>
</g>
</svg>
