<?xml version="1.0" encoding="iso-8859-1"?>
<!-- Generator: Adobe Illustrator 19.0.0, SVG Export Plug-In . SVG Version: 6.00 Build 0)  -->
<svg xmlns="http://www.w3.org/2000/svg" xmlns:xlink="http://www.w3.org/1999/xlink" version="1.1" id="Layer_1" x="0px" y="0px" viewBox="0 0 508 508" style="enable-background:new 0 0 508 508;" xml:space="preserve">
<circle style="fill:#FFD05B;" cx="254" cy="254" r="254"/>
<polygon style="fill:#FFFFFF;" points="310.8,95.2 132.4,95.2 132.4,404.8 381.6,404.8 381.6,166 "/>
<g>
	<rect x="322.8" y="192" style="fill:#E6E9EE;" width="4" height="173.2"/>
	<rect x="292" y="192" style="fill:#E6E9EE;" width="4" height="173.2"/>
	<rect x="261.2" y="192" style="fill:#E6E9EE;" width="4" height="173.2"/>
	<rect x="230.4" y="192" style="fill:#E6E9EE;" width="4" height="173.2"/>
	<rect x="199.6" y="192" style="fill:#E6E9EE;" width="4" height="173.2"/>
	<polygon style="fill:#E6E9EE;" points="310.8,166 381.6,166 310.8,95.2  "/>
	<rect x="176.8" y="206.8" style="fill:#E6E9EE;" width="173.2" height="4"/>
	<rect x="176.8" y="237.6" style="fill:#E6E9EE;" width="173.2" height="4"/>
	<rect x="176.8" y="268.4" style="fill:#E6E9EE;" width="173.2" height="4"/>
	<rect x="176.8" y="299.2" style="fill:#E6E9EE;" width="173.2" height="4"/>
	<rect x="176.8" y="330" style="fill:#E6E9EE;" width="173.2" height="4"/>
</g>
<polygon style="fill:#FF7058;" points="340.8,252.4 310,252.4 319.6,262.4 266.8,315.2 238.8,286.8 170.4,355.2 182,366.8   238.8,310 266.8,338 331.2,274 340.8,283.6 "/>
<polygon style="fill:#324A5E;" points="176.8,362 176.8,189.2 169.2,189.2 169.2,362 169.2,369.6 176.8,369.6 349.6,369.6   349.6,362 "/>
<g>
</g>
<g>
</g>
<g>
</g>
<g>
</g>
<g>
</g>
<g>
</g>
<g>
</g>
<g>
</g>
<g>
</g>
<g>
</g>
<g>
</g>
<g>
</g>
<g>
</g>
<g>
</g>
<g>
</g>
</svg>
