<?xml version="1.0" encoding="iso-8859-1"?>
<!-- Generator: Adobe Illustrator 19.0.0, SVG Export Plug-In . SVG Version: 6.00 Build 0)  -->
<svg xmlns="http://www.w3.org/2000/svg" xmlns:xlink="http://www.w3.org/1999/xlink" version="1.1" id="Layer_1" x="0px" y="0px" viewBox="0 0 508 508" style="enable-background:new 0 0 508 508;" xml:space="preserve">
<circle style="fill:#FD8469;" cx="254" cy="254" r="254"/>
<g>
	<path style="fill:#FFD05B;" d="M394,351.2l-14.4-14.4c45.6-45.6,45.6-120,0-165.6l14.4-14.4C447.6,210.4,447.6,297.6,394,351.2z"/>
	<path style="fill:#FFD05B;" d="M358.4,315.6L344,301.2c26-26,26-68.4,0-94.4l14.4-14.4C392.4,226.4,392.4,281.6,358.4,315.6z"/>
</g>
<polygon style="fill:#E6E9EE;" points="293.6,382.4 154.8,310 154.8,198 293.6,125.6 "/>
<g>
	<path style="fill:#324A5E;" d="M296.4,104.4c-8.8,0-16,7.2-16,16v267.2c0,8.8,7.2,16,16,16s16-7.2,16-16V120.4   C312.4,111.6,305.2,104.4,296.4,104.4z"/>
	<path style="fill:#324A5E;" d="M94.4,197.2c-6.8,0-12.8,5.6-12.8,12.8v87.6c0,6.8,5.6,12.8,12.8,12.8h60.4V197.2H94.4z"/>
</g>
<g>
</g>
<g>
</g>
<g>
</g>
<g>
</g>
<g>
</g>
<g>
</g>
<g>
</g>
<g>
</g>
<g>
</g>
<g>
</g>
<g>
</g>
<g>
</g>
<g>
</g>
<g>
</g>
<g>
</g>
</svg>
