<?xml version="1.0" encoding="iso-8859-1"?>
<!-- Generator: Adobe Illustrator 19.0.0, SVG Export Plug-In . SVG Version: 6.00 Build 0)  -->
<svg xmlns="http://www.w3.org/2000/svg" xmlns:xlink="http://www.w3.org/1999/xlink" version="1.1" id="Layer_1" x="0px" y="0px" viewBox="0 0 508 508" style="enable-background:new 0 0 508 508;" xml:space="preserve">
<circle style="fill:#84DBFF;" cx="254" cy="254" r="254"/>
<path style="fill:#324A5E;" d="M343.6,94.8H164.4c-9.6,0-17.2,7.6-17.2,17.2v284.4c0,9.6,7.6,17.2,17.2,17.2h179.2  c9.6,0,17.2-7.6,17.2-17.2V111.6C360.8,102.4,353.2,94.8,343.6,94.8z"/>
<rect x="168.4" y="123.2" style="fill:#E6E9EE;" width="171.2" height="236"/>
<g>
	<circle style="fill:#2B3B4E;" cx="254" cy="386.4" r="14.4"/>
	<rect x="231.6" y="105.2" style="fill:#2B3B4E;" width="44.8" height="8"/>
</g>
<g>
	<path style="fill:#FF7058;" d="M195.2,274.4v-13.6c4.8,3.6,10.4,5.2,16.8,5.2c4,0,7.2-0.8,9.2-2.4c2.4-1.6,3.2-4,3.2-7.2   c0-3.2-1.2-5.6-4-7.2c-2.8-1.6-6.4-2.4-11.6-2.4h-6.4v-12h6c9.2,0,14-3.2,14-9.2c0-5.6-3.6-8.8-10.8-8.8c-4.8,0-9.6,1.6-14,4.8   v-12.8c5.2-2.4,10.8-3.6,17.6-3.6c7.2,0,12.8,1.6,17.2,4.8c4,3.2,6,7.6,6,12.8c0,9.2-4.8,15.2-14,17.6v0.4c5.2,0.8,9.2,2.4,12,5.6   c2.8,3.2,4.4,6.8,4.4,11.2c0,6.8-2.4,12-7.2,16s-11.6,6-20,6C205.6,278,199.6,276.8,195.2,274.4z"/>
	<path style="fill:#FF7058;" d="M312.8,272c-6.8,4-15.6,6-26,6c-11.6,0-20.4-3.2-27.2-9.6c-6.8-6.4-10-15.2-10-26.4   s3.6-20.4,10.8-27.2c7.2-7.2,16.8-10.4,28.8-10.4c7.6,0,14.4,1.2,20,3.2v15.2c-5.6-3.2-12.4-4.8-20-4.8c-6.8,0-12,2-16.4,6.4   c-4,4.4-6.4,10-6.4,17.2s2,12.8,5.6,16.8s8.8,6,15.2,6c4,0,6.8-0.4,9.2-1.6v-14H282V236h30.4v36H312.8z"/>
</g>
<g>
</g>
<g>
</g>
<g>
</g>
<g>
</g>
<g>
</g>
<g>
</g>
<g>
</g>
<g>
</g>
<g>
</g>
<g>
</g>
<g>
</g>
<g>
</g>
<g>
</g>
<g>
</g>
<g>
</g>
</svg>
