<?xml version="1.0" encoding="iso-8859-1"?>
<!-- Generator: Adobe Illustrator 19.0.0, SVG Export Plug-In . SVG Version: 6.00 Build 0)  -->
<svg xmlns="http://www.w3.org/2000/svg" xmlns:xlink="http://www.w3.org/1999/xlink" version="1.1" id="Layer_1" x="0px" y="0px" viewBox="0 0 508 508" style="enable-background:new 0 0 508 508;" xml:space="preserve">
<circle style="fill:#324A5E;" cx="254" cy="254" r="254"/>
<path style="fill:#E6E9EE;" d="M324.4,314.8l-35.6-40l-14,14l40,35.6c-1.2,4.4,0,8.8,3.2,12.4c5.2,5.2,13.2,5.2,18.4,0  c5.2-5.2,5.2-13.2,0-18.4C333.2,314.8,328.4,313.6,324.4,314.8z"/>
<polygon style="fill:#84DBFF;" points="210,156.4 226,172.4 172.4,226 156.4,210 93.2,273.6 138.8,319.2 202,255.6 186.4,240   240,186.4 255.6,202 319.2,138.8 273.6,93.2 "/>
<path style="fill:#FFFFFF;" d="M257.6,232.4L173.2,148l10.4-10.4c2-2,2-5.6-0.4-7.2l-34.8-27.2c-2-1.6-4.8-1.2-6.4,0.4L103.6,142  c-1.6,1.6-2,4.4-0.4,6.4l27.2,34.8c1.6,2.4,5.2,2.4,7.2,0.4l10.4-10.4l84.4,84.4c-18.4,29.2-14.8,68.4,10.4,94L352,242.4  C326,217.6,286.8,214,257.6,232.4z"/>
<g>
	<path style="fill:#FFD05B;" d="M315.6,414v-14.4c46.4,0,84-37.6,84-84H414C414,370,370,414,315.6,414z"/>
	<path style="fill:#FFD05B;" d="M315.6,378v-14.4c26.4,0,48-21.6,48-48H378C378,350,350,378,315.6,378z"/>
</g>
<g>
</g>
<g>
</g>
<g>
</g>
<g>
</g>
<g>
</g>
<g>
</g>
<g>
</g>
<g>
</g>
<g>
</g>
<g>
</g>
<g>
</g>
<g>
</g>
<g>
</g>
<g>
</g>
<g>
</g>
</svg>
