<?xml version="1.0" encoding="iso-8859-1"?>
<!-- Generator: Adobe Illustrator 19.0.0, SVG Export Plug-In . SVG Version: 6.00 Build 0)  -->
<svg xmlns="http://www.w3.org/2000/svg" xmlns:xlink="http://www.w3.org/1999/xlink" version="1.1" id="Layer_1" x="0px" y="0px" viewBox="0 0 508 508" style="enable-background:new 0 0 508 508;" xml:space="preserve">
<circle style="fill:#84DBFF;" cx="254" cy="254" r="254"/>
<g>
	<path style="fill:#FFFFFF;" d="M118.4,197.2c-0.8,4,2,7.6,6,7.6h58c3.2,0,6-2.4,6.4-5.6l1.2-12.8h-69.6L118.4,197.2z"/>
	<path style="fill:#FFFFFF;" d="M387.6,186.8H318l1.2,12.8c0.4,3.2,3.2,5.6,6.4,5.6h58c4,0,6.8-3.6,6-7.6L387.6,186.8z"/>
</g>
<path style="fill:#324A5E;" d="M379.2,146.8c-2.8-13.2-14-22.4-27.6-22.4H156c-13.2,0-24.8,9.2-27.6,22.4l-8,39.6H190l0.8-7.6  c0.8-7.2,6.8-12.4,13.6-12.4h98.8c7.2,0,12.8,5.2,13.6,12.4l0.8,7.6h69.6L379.2,146.8z"/>
<g>
	<path style="fill:#2B3B4E;" d="M314,367.2v12c0,2.4,2,4.4,4.4,4.4h28.4c2.4,0,4.4-2,4.4-4.4v-12H314z"/>
	<path style="fill:#2B3B4E;" d="M156.4,378.8c0,2.4,2,4.4,4.4,4.4h28.4c2.4,0,4.4-2,4.4-4.4v-12H156v12H156.4z"/>
</g>
<path style="fill:#324A5E;" d="M382,342.4L366,230c-0.8-6-5.6-10.4-11.6-10.4h-43.6c-4.8,0-8.8-4-8.8-8.8v-18c0-4.4-3.6-8-8-8h-80  c-4.4,0-8,3.6-8,8v18c0,4.8-4,8.8-8.8,8.8h-43.6c-6,0-10.8,4.4-11.6,10.4l-16,112.4c-1.6,12.8,8.4,24.4,21.6,24.4h213.2  C373.6,367.2,383.6,355.6,382,342.4z"/>
<circle style="fill:#E6E9EE;" cx="254" cy="289.2" r="48.4"/>
<g>
	<circle style="fill:#324A5E;" cx="254" cy="258.4" r="7.6"/>
	<circle style="fill:#324A5E;" cx="254" cy="320.4" r="7.6"/>
	<circle style="fill:#324A5E;" cx="285.2" cy="289.2" r="7.6"/>
	<circle style="fill:#324A5E;" cx="222.8" cy="289.2" r="7.6"/>
	<circle style="fill:#324A5E;" cx="276" cy="267.6" r="7.6"/>
	<circle style="fill:#324A5E;" cx="232" cy="311.2" r="7.6"/>
	<circle style="fill:#324A5E;" cx="276" cy="311.2" r="7.6"/>
	<circle style="fill:#324A5E;" cx="232" cy="267.6" r="7.6"/>
</g>
<g>
</g>
<g>
</g>
<g>
</g>
<g>
</g>
<g>
</g>
<g>
</g>
<g>
</g>
<g>
</g>
<g>
</g>
<g>
</g>
<g>
</g>
<g>
</g>
<g>
</g>
<g>
</g>
<g>
</g>
</svg>
