<?xml version="1.0" encoding="iso-8859-1"?>
<!-- Generator: Adobe Illustrator 19.0.0, SVG Export Plug-In . SVG Version: 6.00 Build 0)  -->
<svg xmlns="http://www.w3.org/2000/svg" xmlns:xlink="http://www.w3.org/1999/xlink" version="1.1" id="Layer_1" x="0px" y="0px" viewBox="0 0 508 508" style="enable-background:new 0 0 508 508;" xml:space="preserve">
<circle style="fill:#90DFAA;" cx="254" cy="254" r="254"/>
<circle style="fill:#FFFFFF;" cx="254" cy="254" r="179.2"/>
<g>
	<path style="fill:#324A5E;" d="M372.8,132c-3.2,0-6.4,0-9.6-0.8c-6.4-1.2-12.8-5.2-19.2-4.8c-6.8,0.4-13.2,5.2-16.4,12.4   c-4,2.4-8-2.4-12-3.2c-3.2-0.8-6,0.8-9.2,2.4c-8.4,3.6-17.6,4.4-26.4,2.8c-7.6-1.6-16.4-4.4-21.6,2.4c-1.6,2-2.8,5.2-5.2,6.4   c-2,1.2-5.2,1.6-5.6,4.4c-0.4,5.6,11.2,2.4,10.8,8c2.8,0,5.2,0,8,0c0-2.8-0.4-5.6-0.4-8.4c3.6-0.8,8.8,0,8.8,4.4   c0,1.6-0.8,3.2-2,4.4c-3.2,3.6-7.6,6.4-12,6.8c-4.4,0.8-9.2-0.4-14,0c-4.4,0.4-9.6,3.2-10.8,8.8c-0.8,2.8-0.4,6.4-2.4,8.4   c-2.8,2.4-8,0-9.2,4c-0.8,2.4,1.2,4.8,3.2,6c3.2,1.6,7.2,2,10.4,0.8c0.4-2.4,1.2-4.8,1.6-7.6c6.4,4,14.4-10.4,20.4-5.2   c2.4,2,4,4.8,4.4,8c2.8,0.4,5.6,1.2,8.8,1.6c0.8-2,0.8-4,0.4-6c2.4,0,4.8,0,7.2,0c0-2,0-4.4,0-6.4c7.6-2.8,16.4,3.2,18.4,12.4   c-7.2,1.2-14,2.4-21.2,3.2c2,5.2,8,5.2,12.4,4.4c2,3.6-0.8,8.4-4.4,9.6c-3.6,1.2-7.2,0-10.8,0.4c-5.2,0.4-10.4,3.6-15.6,2.4   c-4.4-1.2-7.6-5.6-12-7.2c-5.6-3.6-12,0-17.6,3.2c-0.8,1.6-1.2,3.6-0.8,5.2c-7.2,3.6-15.2,8-16.8,17.2c-1.2,6.8,1.2,13.6,4,19.2   c1.6,3.2,3.2,6.8,6,9.2c6.8,7.2,17.2,6,26,4.4c4.4,9.2,8.4,19.2,8,29.6c-0.4,3.6-1.2,7.2-0.8,10.8c0.4,3.2,1.6,6.4,2.4,9.2   c0.8,2.4,1.6,4.8,2.8,7.6c2.8,8,5.2,16.8,5.2,25.6c3.6,0,7.2,0,10.8,0c2.4-2.8,5.2-5.2,7.6-8c1.2-1.2,2.4-2.8,3.2-4.4   c0.4-2-0.4-4.4-2-4.8c4.8-1.2,7.6-8.4,5.2-13.6c5.6,0.8,8.8-7.6,8.8-14.4s-2-14,0.8-20c1.6-3.6,4-6,6.4-8.4   c4.4-4.8,7.6-10.4,10.4-16.4c0.4-0.8,0.4-1.6,0.4-2.4c-0.4-2-2.8-2.4-4.4-1.6s-3.2,2.4-4.8,2.4c-2-0.4-3.2-2.8-4-4.8   c-5.2-11.2-16.4-18.8-18-31.6c2-0.4,4-0.4,6-0.8c4.4,7.6,8.4,15.2,12.8,22.8c2,3.2,5.6,7.2,8,4.8c1.2-3.6,4.8-5.2,7.6-4   c0.4-4.8,7.2-5.6,8-10.4c0.4-3.6-2.8-6.4-6-6.4c-2.8,0-6,1.2-8.8,0.8c0.4-2,0.8-4,0.4-5.6c-1.6-1.2-3.6-1.6-5.2-1.2   c0.4-4,4.4-6.4,7.2-4.4c1.2,0.8,2,2.4,3.2,3.6c5.6,6.4,15.2,1.2,22,5.6c2,1.2,3.6,3.6,5.2,5.6c5.6,8,9.6,17.2,12.4,26.8   c1.2,0,2.4,0,3.2,0c0-10,5.2-19.6,12.8-23.6c0.4-0.8,0.8-2,0.8-2.8c4.4-1.6,8.8,2.8,12,6.4c1.6,2,3.2,4,5.2,6   c0,1.2,0.4,2.4,0.4,3.2c4.4,0,8.8,4.8,8.8,10c1.2-0.4,2.4-0.8,3.2-1.2c2-0.8,2.8-3.6,2.4-6s-1.6-4-3.2-6c-2-2.8-3.6-5.2-5.6-8   c3.6-2.8,8-4,12-3.2c-0.8-2,1.6-3.2,3.6-3.6c3.6-1.2,6-5.6,6-10.4c-0.4-4.4-3.6-8.4-7.2-8.8c-2.8-4.8-3.2-11.6-0.4-16   c2.4-3.6,7.2-4.8,10.4-2.4c-8-22-20.4-42-36-59.2C381.6,132.4,377.2,132,372.8,132z"/>
	<path style="fill:#324A5E;" d="M92,248c0.4,2.8,1.6,5.2,3.6,6.8c3.2,3.2,7.2,3.6,11.2,5.2s7.6,5.2,7.6,10c0,4-3.2,7.2-4.8,10.8   c-2.4,6.8,1.2,14.8,6,20c4.8,4.8,10.4,8.8,12.8,16c1.2,3.2,1.2,6.4,1.6,9.6c0.8,12.4,1.2,24.4,2,36.8c0.4,5.6,0.8,11.2,2.8,16.4   c2,5.2,6,9.6,10.4,9.6c-0.8-6-1.2-12-2-18c-0.4-2.4-0.4-4.8,0.4-6.8c0.8-2,2.8-4,4.8-2.8c-0.8-2.8,1.2-6.4,3.6-6.4   c0-2.4-1.6-4.8-3.6-5.6c0.8-2.4,3.2-4.4,5.6-4.4c0,2.4,2.8,3.6,4.8,2.4c1.6-1.6,2-4.4,2-6.8s-0.4-5.2,0.4-7.6c1.2-4,4.8-6,8-7.6   c3.2-6.8,6-14,9.2-20.8c1.2-2.4,2-5.2,2-8c-0.4-5.6-5.2-9.2-9.6-10.8c-4.4-2-9.2-4-11.2-8.8c-0.8-2-0.8-4.4-2-6   c-0.8-1.6-2.4-2.4-4-3.6c-4.8-3.2-9.6-6-14.4-9.2c-2.8-2-6-3.6-9.2-4.4c-3.6-0.8-6.8,0-10.4,0.8c-1.6,4-6,6-9.2,4.8   c-3.6-1.2-5.6-6-5.2-10.4c0.4-1.2,0.8-2.8,0-4c-0.4-0.8-1.2-0.8-1.6-1.2c-2-0.8-3.6-1.6-5.6-2c0.8-2.8,1.2-5.6,1.2-8.4   c-1.2-1.2-3.2-1.2-4.4,0c0,1.6,0,3.6,0,5.2c-3.2,0-6.4,0-9.6,0c0.4-3.2,0-6.8-1.2-9.6c1.2-11.6,12.4-19.6,21.6-15.6   c0.4,6,5.2,11.2,10.4,10.8c2.8-2.8-2.8-9.2-0.4-12.8c0.8-1.2,2.4-1.6,3.6-2.8c1.2-0.8,1.6-2.4,2.4-3.6c4.4-8.8,12-15.6,20.8-17.6   c3.6-0.8,8-3.2,7.2-7.2c0-0.8-0.8-1.6-0.8-2.4c-0.4-2,1.2-3.6,2.8-4s3.2,0,4.8,0.8c-0.4,4.8,4.8,9.2,8.4,6.8   c2.4-4.8-5.6-10.8-2.8-15.2c-1.6-0.8-3.6-1.6-5.2-2c-0.4-2.4-0.4-4.4-0.8-6.8c-1.2,0.4-2.8,0-4-0.8c-0.4-1.6-0.8-3.6-1.2-5.2   c-3.6,0-6.8,0-10.4,0c0.4,4.4,0.4,10.4-3.2,12.4c-1.2,0.4-2.4,0.8-3.6,0.8c-2,0-4,0-6.4,0c-1.6,0-3.6,0-4.8-1.2   c-1.6-1.2-2.4-4.4-1.6-6.8c0.8-2.4,3.6-3.2,5.6-2.4c-0.8-4.4,3.2-7.6,7.2-8.4c3.6-0.8,7.6,0,10.8-1.6c-1.2-5.6-7.6-6.4-12.4-5.2   c-4.8,1.6-9.6,4-14,1.2c-0.4,0-0.4-0.4-0.8-0.4c-22.4,27.2-37.2,60.8-40.8,97.6C79.2,243.2,85.6,247.2,92,248z"/>
	<path style="fill:#324A5E;" d="M417.6,314.4c-1.2-1.6-4-1.6-4.4,0.4c0,1.2,0.4,2,0.4,2.8c0,3.2-3.6,4-6.4,3.2c-2.4-2,0-7.6-2-10   s-5.6,0-8-1.2c-0.4,2-1.2,4.4-1.6,6.4c-3.6-1.2-7.2-1.6-10.4,0.8c-3.2,2-4.8,7.2-3.2,10.8c-6-0.4-12.4-0.4-16.8,3.6   c-2.4,2-4,5.2-4,8.8c-0.4,6,3.6,11.6,2.4,17.6c6,1.6,12-1.6,17.6-3.6s13.2-2.4,16.8,3.6c0.4,0.8,0.8,1.6,1.2,2.4   c8.4-11.2,15.2-23.6,20.8-36.4c-0.4-0.8-0.4-2-0.8-2.8C418.4,318.4,418.4,316,417.6,314.4z"/>
	<path style="fill:#324A5E;" d="M307.6,306.4c-0.4,2.4-1.2,4.8-1.6,7.6c0,0.8-0.4,1.6-0.4,2.4c-0.4,2.8-0.4,5.2-0.4,8   c0,2.4,0,4.8,1.6,6c2,1.2,4.4-0.4,5.2-2.8c0.8-2.4,0.4-5.2,0-7.6s-0.4-5.2,0.4-7.6c1.2-2.4,3.2-4.4,2.4-6.8   C312.4,304.8,310,305.2,307.6,306.4z"/>
	<path style="fill:#324A5E;" d="M415.2,270.4c0,0.4,0,0.8,0,1.2c0,0.4-0.4,0.4-0.8,0.8c-1.2,0.8-2.8,1.2-4,2c0.4,2-0.4,4.4,0,6.4   c0.8,2.4,2.8,4,4.8,4c2,0.4,4-0.4,6-1.2c0.4-0.4,1.2-0.4,1.6-0.8c1.2-1.2,0.8-3.6,0.4-5.2s-1.2-3.6-0.8-5.2c0.4-1.6,1.2-2.8,2-4   c0.4-1.6,0-3.6-1.2-3.6c-0.8,0-1.2,0.8-2,0.8c-1.2,0.4-2.4,0-3.6,0.4C416,266.4,415.2,268.4,415.2,270.4z"/>
</g>
<g>
</g>
<g>
</g>
<g>
</g>
<g>
</g>
<g>
</g>
<g>
</g>
<g>
</g>
<g>
</g>
<g>
</g>
<g>
</g>
<g>
</g>
<g>
</g>
<g>
</g>
<g>
</g>
<g>
</g>
</svg>
