<?xml version="1.0" encoding="iso-8859-1"?>
<!-- Generator: Adobe Illustrator 19.0.0, SVG Export Plug-In . SVG Version: 6.00 Build 0)  -->
<svg xmlns="http://www.w3.org/2000/svg" xmlns:xlink="http://www.w3.org/1999/xlink" version="1.1" id="Layer_1" x="0px" y="0px" viewBox="0 0 508 508" style="enable-background:new 0 0 508 508;" xml:space="preserve">
<circle style="fill:#324A5E;" cx="254" cy="254" r="254"/>
<path style="fill:#E6E9EE;" d="M142,150v238.4c0,9.6,7.6,17.2,17.2,17.2h189.2c9.6,0,17.2-7.6,17.2-17.2V150H142z"/>
<path style="fill:#FFFFFF;" d="M376,131.6H132c-3.6,0-6.8,3.2-6.8,6.8v41.2c0,3.6,3.2,6.8,6.8,6.8h244c3.6,0,6.8-3.2,6.8-6.8v-41.2  C382.8,134.4,379.6,131.6,376,131.6z"/>
<path style="fill:#E6E9EE;" d="M296.4,102.4h-84.8c-2.8,0-5.2,2-5.2,4.4v24.4h94.8v-24.4C301.2,104.4,299.2,102.4,296.4,102.4z"/>
<g>
	<rect x="185.2" y="216.4" style="fill:#CED5E0;" width="21.6" height="152"/>
	<rect x="243.2" y="216.4" style="fill:#CED5E0;" width="21.6" height="152"/>
	<rect x="301.2" y="216.4" style="fill:#CED5E0;" width="21.6" height="152"/>
</g>
<g>
</g>
<g>
</g>
<g>
</g>
<g>
</g>
<g>
</g>
<g>
</g>
<g>
</g>
<g>
</g>
<g>
</g>
<g>
</g>
<g>
</g>
<g>
</g>
<g>
</g>
<g>
</g>
<g>
</g>
</svg>
