<?xml version="1.0" encoding="iso-8859-1"?>
<!-- Generator: Adobe Illustrator 19.0.0, SVG Export Plug-In . SVG Version: 6.00 Build 0)  -->
<svg xmlns="http://www.w3.org/2000/svg" xmlns:xlink="http://www.w3.org/1999/xlink" version="1.1" id="Layer_1" x="0px" y="0px" viewBox="0 0 508 508" style="enable-background:new 0 0 508 508;" xml:space="preserve">
<circle style="fill:#90DFAA;" cx="254" cy="254" r="254"/>
<path style="fill:#FFFFFF;" d="M400,121.2H108c-9.6,0-17.2,7.6-17.2,17.2V370c0,9.6,7.6,17.2,17.2,17.2h292  c9.6,0,17.2-7.6,17.2-17.2V138C417.2,128.8,409.2,121.2,400,121.2z"/>
<g>
	<path style="fill:#324A5E;" d="M164.8,157.6c-4.8,0-8.4,3.6-8.4,8.4v176c0,4.8,3.6,8.4,8.4,8.4c4.8,0,8.4-3.6,8.4-8.4V166   C173.2,161.2,169.2,157.6,164.8,157.6z"/>
	<path style="fill:#324A5E;" d="M254,157.6L254,157.6c-4.8,0-8.4,3.6-8.4,8.4v176c0,4.8,3.6,8.4,8.4,8.4l0,0c4.8,0,8.4-3.6,8.4-8.4   V166C262.4,161.2,258.8,157.6,254,157.6z"/>
	<path style="fill:#324A5E;" d="M343.2,157.6c-4.8,0-8.4,3.6-8.4,8.4v176c0,4.8,3.6,8.4,8.4,8.4s8.4-3.6,8.4-8.4V166   C352,161.2,348,157.6,343.2,157.6z"/>
</g>
<g>
	<path style="fill:#54C0EB;" d="M178,194h-26.8c-4,0-7.2,3.2-7.2,7.2s3.2,7.2,7.2,7.2H178c4,0,7.2-3.2,7.2-7.2S182,194,178,194z"/>
	<path style="fill:#54C0EB;" d="M267.2,296h-26.8c-4,0-7.2,3.2-7.2,7.2s3.2,7.2,7.2,7.2h26.8c4,0,7.2-3.2,7.2-7.2   S271.6,296,267.2,296z"/>
	<path style="fill:#54C0EB;" d="M356.8,218.8H330c-4,0-7.2,3.2-7.2,7.2s3.2,7.2,7.2,7.2h26.8c4,0,7.2-3.2,7.2-7.2   S360.8,218.8,356.8,218.8z"/>
</g>
<g>
</g>
<g>
</g>
<g>
</g>
<g>
</g>
<g>
</g>
<g>
</g>
<g>
</g>
<g>
</g>
<g>
</g>
<g>
</g>
<g>
</g>
<g>
</g>
<g>
</g>
<g>
</g>
<g>
</g>
</svg>
