<?xml version="1.0" encoding="iso-8859-1"?>
<!-- Generator: Adobe Illustrator 19.0.0, SVG Export Plug-In . SVG Version: 6.00 Build 0)  -->
<svg xmlns="http://www.w3.org/2000/svg" xmlns:xlink="http://www.w3.org/1999/xlink" version="1.1" id="Layer_1" x="0px" y="0px" viewBox="0 0 508 508" style="enable-background:new 0 0 508 508;" xml:space="preserve">
<circle style="fill:#FFD05B;" cx="254" cy="254" r="254"/>
<path style="fill:#FFFFFF;" d="M400.8,122.8c-0.8-4.4-4.8-7.2-9.2-6.4l-53.2,9.2c-3.2,0.4-5.6,3.2-6.4,6.4l-6.4,32.4H114.8  c-2.4,0-4.4,1.2-6,2.8c-1.6,2-2,4-1.6,6.4l26,142.4c0.8,3.6,4,6.4,8,6.4H306c4,0,7.2-2.8,8-6.4l26-142.4l6.8-33.2l48-8  C398.8,131.2,401.6,126.8,400.8,122.8z M316.8,210.8h-25.2l3.2-31.2H322L316.8,210.8z M308,259.2h-21.6l3.6-32.8h24L308,259.2z   M248,306l1.2-31.2h19.6l-3.6,31.2H248z M181.6,306l-3.2-31.2H198l1.2,31.2H181.6z M133.2,226.8h24l3.6,32.8h-21.6L133.2,226.8z   M172.8,226.8H196l1.2,32.8h-20.8L172.8,226.8z M235.6,210.8h-24.4l-1.2-31.2h26.4L235.6,210.8z M252.8,179.6h26.4l-3.2,31.2h-24.4  L252.8,179.6z M235.2,226.8l-1.2,32.4h-20.8l-1.2-32.8L235.2,226.8L235.2,226.8z M195.6,210.8h-24.4l-3.2-31.2h26.4L195.6,210.8z   M213.6,275.2h19.6L232,306h-17.2L213.6,275.2z M249.6,259.2l1.2-32.8H274l-3.6,32.8H249.6z M152,179.6l3.2,31.2H130l-5.6-31.2H152z   M142,275.2h20.4l3.2,31.2h-18L142,275.2z M281.2,306l3.2-31.2h20.4l-5.6,31.2H281.2z"/>
<circle style="fill:#324A5E;" cx="179.6" cy="360.4" r="28.4"/>
<path style="fill:#FFFFFF;" d="M179.6,377.2c-9.2,0-16.8-7.6-16.8-16.8c0-9.2,7.6-16.8,16.8-16.8s16.8,7.6,16.8,16.8  C196.4,369.6,188.8,377.2,179.6,377.2z"/>
<circle style="fill:#324A5E;" cx="267.6" cy="360.4" r="28.4"/>
<path style="fill:#FFFFFF;" d="M267.6,377.2c-9.2,0-16.8-7.6-16.8-16.8c0-9.2,7.6-16.8,16.8-16.8s16.8,7.6,16.8,16.8  S276.8,377.2,267.6,377.2z"/>
<path style="fill:#F9B54C;" d="M38.4,388.4C83.2,460.4,162.8,508,254,508c90.8,0,170.8-47.6,215.6-119.6H38.4z"/>
<g>
</g>
<g>
</g>
<g>
</g>
<g>
</g>
<g>
</g>
<g>
</g>
<g>
</g>
<g>
</g>
<g>
</g>
<g>
</g>
<g>
</g>
<g>
</g>
<g>
</g>
<g>
</g>
<g>
</g>
</svg>
