<?xml version="1.0" encoding="iso-8859-1"?>
<!-- Generator: Adobe Illustrator 19.0.0, SVG Export Plug-In . SVG Version: 6.00 Build 0)  -->
<svg xmlns="http://www.w3.org/2000/svg" xmlns:xlink="http://www.w3.org/1999/xlink" version="1.1" id="Layer_1" x="0px" y="0px" viewBox="0 0 508 508" style="enable-background:new 0 0 508 508;" xml:space="preserve">
<circle style="fill:#FD8469;" cx="254" cy="254" r="254"/>
<path style="fill:#E6E9EE;" d="M305.6,282h-99.2c10.8,28.4,12,56.4,2.8,84.8h93.2C293.6,338.4,294.4,310,305.6,282z"/>
<circle style="fill:#FFFFFF;" cx="254" cy="204.4" r="115.6"/>
<path style="fill:#84DBFF;" d="M254,292.4c-48.8,0-88-39.6-88-88c0-48.8,39.6-88,88-88s88,39.6,88,88S302.8,292.4,254,292.4z"/>
<path style="fill:#54C0EB;" d="M254,256c-28.4,0-52-23.2-52-52c0-28.4,23.2-52,52-52s52,23.2,52,52S282.4,256,254,256z"/>
<g>
	<circle style="fill:#E6E9EE;" cx="210.8" cy="178.8" r="16"/>
	<circle style="fill:#E6E9EE;" cx="242.4" cy="195.2" r="10.4"/>
</g>
<path style="fill:#FFFFFF;" d="M320.8,345.2H191.2c-24.4,0-44,19.6-44,44h217.2C364.4,364.8,344.8,345.2,320.8,345.2z"/>
<g>
</g>
<g>
</g>
<g>
</g>
<g>
</g>
<g>
</g>
<g>
</g>
<g>
</g>
<g>
</g>
<g>
</g>
<g>
</g>
<g>
</g>
<g>
</g>
<g>
</g>
<g>
</g>
<g>
</g>
</svg>
