<?xml version="1.0" encoding="iso-8859-1"?>
<!-- Generator: Adobe Illustrator 19.0.0, SVG Export Plug-In . SVG Version: 6.00 Build 0)  -->
<svg xmlns="http://www.w3.org/2000/svg" xmlns:xlink="http://www.w3.org/1999/xlink" version="1.1" id="Layer_1" x="0px" y="0px" viewBox="0 0 508 508" style="enable-background:new 0 0 508 508;" xml:space="preserve">
<circle style="fill:#FD8469;" cx="254" cy="254" r="254"/>
<path style="fill:#FFFFFF;" d="M366.4,114.4H141.6c-5.6,0-10,4.4-10,10v160.8c0,5.6,4.4,10,10,10h224.8c5.6,0,10-4.4,10-10V124.4  C376.4,118.8,372,114.4,366.4,114.4z"/>
<rect x="148.8" y="131.6" style="fill:#54C0EB;" width="210.4" height="146.4"/>
<path style="fill:#FFFFFF;" d="M370.4,304.8H137.6c-3.2,0-6.8,2-8.4,4.8l-28.4,56c-2,4-0.4,7.2,4,7.2h298.4c4,0,6-3.2,4-7.2  l-28.4-56C377.6,307.2,374,304.8,370.4,304.8z"/>
<g>
	<polygon style="fill:#E6E9EE;" points="377.2,338.4 130.8,338.4 142,313.2 366,313.2  "/>
	<polygon style="fill:#E6E9EE;" points="290.4,363.2 217.6,363.2 219.6,345.2 288.4,345.2  "/>
	<polygon style="fill:#E6E9EE;" points="282.4,66.4 187.2,66.4 187.2,233.6 320.8,233.6 320.8,104.8  "/>
</g>
<polygon style="fill:#FFFFFF;" points="282.4,104.8 320.8,104.8 282.4,66.4 "/>
<g>
	<rect x="206.4" y="115.6" style="fill:#CED5E0;" width="95.2" height="8"/>
	<rect x="206.4" y="139.2" style="fill:#CED5E0;" width="95.2" height="8"/>
	<rect x="206.4" y="162.8" style="fill:#CED5E0;" width="95.2" height="8"/>
	<rect x="206.4" y="186.4" style="fill:#CED5E0;" width="95.2" height="8"/>
</g>
<g>
</g>
<g>
</g>
<g>
</g>
<g>
</g>
<g>
</g>
<g>
</g>
<g>
</g>
<g>
</g>
<g>
</g>
<g>
</g>
<g>
</g>
<g>
</g>
<g>
</g>
<g>
</g>
<g>
</g>
</svg>
