<?xml version="1.0" encoding="iso-8859-1"?>
<!-- Generator: Adobe Illustrator 19.0.0, SVG Export Plug-In . SVG Version: 6.00 Build 0)  -->
<svg xmlns="http://www.w3.org/2000/svg" xmlns:xlink="http://www.w3.org/1999/xlink" version="1.1" id="Layer_1" x="0px" y="0px" viewBox="0 0 508 508" style="enable-background:new 0 0 508 508;" xml:space="preserve">
<circle style="fill:#84DBFF;" cx="254" cy="254" r="254"/>
<circle style="fill:#FF7058;" cx="254" cy="254" r="176"/>
<path style="fill:#FFFFFF;" d="M254,400.8c-81.2,0-146.8-66-146.8-146.8c0-81.2,66-146.8,146.8-146.8c81.2,0,146.8,66,146.8,146.8  C400.8,335.2,335.2,400.8,254,400.8z"/>
<g>
	<path style="fill:#E6E9EE;" d="M264.8,155.2h-6.4L247.2,138c-0.8-1.2-1.2-1.6-1.2-2.4l0,0c0,0.8,0,2.4,0,4.4v15.2h-6v-27.6h6.8   l10.8,16.8c0.4,0.8,0.8,1.6,1.2,2.4l0,0c0-0.8,0-2,0-3.6V128h6L264.8,155.2L264.8,155.2z"/>
	<path style="fill:#E6E9EE;" d="M381.2,267.6h-16.4V240h16v5.2h-9.6v6h9.2v5.2h-9.2v6.4h10.4v4.8H381.2z"/>
	<path style="fill:#E6E9EE;" d="M242.8,378.8v-6c1.2,0.8,2.4,1.6,3.6,2c1.2,0.4,2.8,0.8,4,0.8c0.8,0,1.6,0,2-0.4   c0.4,0,1.2-0.4,1.6-0.4c0.4-0.4,0.8-0.4,0.8-0.8s0.4-0.8,0.4-1.2c0-0.4,0-1.2-0.4-1.6s-0.8-0.8-1.2-1.2c-0.4-0.4-1.2-0.8-2-1.2   c-0.8-0.4-1.6-0.8-2.4-1.2c-2-0.8-3.6-2-4.8-3.2s-1.6-2.8-1.6-4.8c0-1.6,0.4-2.8,0.8-3.6c0.4-1.2,1.2-2,2.4-2.4   c0.8-0.8,2-1.2,3.6-1.6c1.2-0.4,2.8-0.4,4-0.4c1.6,0,2.8,0,4,0.4c1.2,0,2,0.4,3.2,0.8v5.6c-0.4-0.4-0.8-0.8-1.6-0.8   c-0.4-0.4-1.2-0.4-1.6-0.8s-1.2-0.4-1.6-0.4s-1.2,0-1.6,0c-0.8,0-1.2,0-2,0.4c-0.4,0-1.2,0.4-1.6,0.4c-0.8,0.8-0.8,0.8-1.2,1.2   s-0.4,0.8-0.4,1.2c0,0.4,0,0.8,0.4,1.2c0.4,0.4,0.4,0.8,1.2,1.2c0.4,0.4,0.8,0.8,1.6,0.8c0.8,0.4,1.2,0.8,2,0.8   c1.2,0.4,2,0.8,2.8,1.6c0.8,0.4,1.6,1.2,2.4,1.6c0.8,0.8,1.2,1.2,1.6,2.4s0.4,2,0.4,2.8c0,1.6-0.4,2.8-0.8,4s-1.2,2-2.4,2.4   s-2,1.2-3.6,1.2c-1.2,0.4-2.8,0.4-4,0.4c-1.6,0-2.8,0-4.4-0.4S244,379.2,242.8,378.8z"/>
	<path style="fill:#E6E9EE;" d="M165.6,240l-7.2,27.6h-6.8l-4.4-17.6c-0.4-0.8-0.4-2-0.4-3.2l0,0c0,1.2-0.4,2.4-0.4,3.2l-4.8,17.6   H134l-7.2-27.6h6.8l4,18.4c0,0.8,0.4,2,0.4,3.2l0,0c0-0.8,0.4-2,0.4-3.2l4.8-18.4h6.8l4.4,18.4c0,0.8,0.4,1.6,0.4,2.8l0,0   c0-1.2,0-2,0.4-3.2l4-18.4h6.4V240z"/>
	<polygon style="fill:#E6E9EE;" points="276.4,276.4 341.2,254 276.4,231.6 254,166.8 231.6,231.6 166.8,254 231.6,276.4 254,341.2     "/>
</g>
<polygon style="fill:#324A5E;" points="324.8,183.2 229.2,229.2 183.2,324.8 278.8,278.8 "/>
<circle style="fill:#FFD05B;" cx="254" cy="254" r="14"/>
<g>
</g>
<g>
</g>
<g>
</g>
<g>
</g>
<g>
</g>
<g>
</g>
<g>
</g>
<g>
</g>
<g>
</g>
<g>
</g>
<g>
</g>
<g>
</g>
<g>
</g>
<g>
</g>
<g>
</g>
</svg>
