<?xml version="1.0" encoding="iso-8859-1"?>
<!-- Generator: Adobe Illustrator 19.0.0, SVG Export Plug-In . SVG Version: 6.00 Build 0)  -->
<svg xmlns="http://www.w3.org/2000/svg" xmlns:xlink="http://www.w3.org/1999/xlink" version="1.1" id="Layer_1" x="0px" y="0px" viewBox="0 0 508 508" style="enable-background:new 0 0 508 508;" xml:space="preserve">
<circle style="fill:#90DFAA;" cx="254" cy="254" r="254"/>
<polygon style="fill:#324A5E;" points="266.8,422.4 266.8,344 241.2,344 241.2,422.4 158.4,422.4 158.4,446.8 349.6,446.8   349.6,422.4 "/>
<circle style="fill:#FFFFFF;" cx="254" cy="209.2" r="151.6"/>
<g>
	<path style="fill:#54C0EB;" d="M354.4,106.4c-2.8,0-5.6,0-8.4-0.8c-5.6-1.2-10.8-4.4-16.4-4c-5.6,0-11.2,4.4-14,10.4   c-2.8,2-6-2-9.6-2.8c-2.8-0.4-5.2,0.8-7.6,2c-7.2,3.2-14.8,3.6-22.4,2.4c-6.4-1.2-14-3.6-18.4,2c-1.6,1.6-2.4,4.4-4.4,5.6   c-1.6,1.2-4.4,1.2-4.8,3.6c-0.4,4.8,9.6,2,8.8,6.8c2.4,0,4.4,0,6.8,0c0-2.4-0.4-4.8-0.4-7.2c3.2-0.8,7.6,0,7.6,3.6   c0,1.6-0.8,2.8-1.6,4c-2.8,3.2-6.4,5.2-10,6c-4,0.4-7.6-0.4-11.6,0s-8,2.8-9.2,7.2c-0.4,2.4-0.4,5.6-2,7.2c-2.4,2-6.8,0-8,3.2   c-0.8,2,1.2,4,2.8,5.2c2.8,1.6,6,1.6,8.8,0.8c0.4-2,0.8-4,1.6-6.4c5.6,3.2,12-8.8,17.2-4.4c2,1.6,3.2,4,3.6,6.8   c2.4,0.4,4.8,0.8,7.2,1.2c0.4-1.6,0.8-3.2,0.4-5.2c2,0,4,0,6,0c0-2,0-3.6,0-5.6c6.4-2.4,14,2.8,15.6,10.4c-6,0.8-12,2-17.6,2.8   c1.6,4.4,6.8,4.4,10.4,4c1.6,2.8-0.8,7.2-3.6,8c-2.8,0.8-6,0-9.2,0c-4.4,0.4-8.8,3.2-13.2,2c-3.6-0.8-6.4-4.4-10-6   c-5.2-2-10.4,0.8-15.2,3.6c-0.8,1.2-1.2,2.8-0.4,4.4c-6,2.8-12.8,6.8-14.4,14.4c-1.2,5.6,1.2,11.2,3.6,16.4c1.2,2.8,2.8,5.6,4.8,8   c5.6,6,14.4,4.8,22,3.6c3.6,8,7.2,16.4,6.4,25.2c-0.4,3.2-0.8,6-0.8,9.2c0.4,2.8,1.2,5.2,2,7.6c0.8,2,1.6,4,2.4,6.4   c2.4,6.8,4.4,14,4.4,21.6c3.2,0,6,0,9.2,0c2-2.4,4.4-4.4,6.4-6.8c1.2-1.2,2-2.4,2.4-4s-0.4-3.6-1.6-4c4-1.2,6.4-7.2,4.4-11.2   c4.8,0.4,7.6-6.4,7.2-12c0-5.6-1.6-11.6,0.4-16.8c1.2-2.8,3.6-4.8,5.6-7.2c3.6-4,6.4-8.8,8.8-14c0.4-0.8,0.4-1.2,0.4-2   c-0.4-1.6-2.4-2-3.6-1.2s-2.8,2-4,2c-1.6-0.4-2.4-2.4-3.2-4c-4.4-9.6-13.6-16-15.2-26.4c1.6-0.4,3.2-0.4,4.8-0.8   c3.6,6.4,7.2,12.8,10.8,19.2c1.6,2.8,4.4,6,6.8,4c0.8-2.8,4-4.4,6.4-3.2c0.4-4,6-4.4,6.8-8.8c0.4-2.8-2.4-5.2-4.8-5.6   c-2.4,0-5.2,0.8-7.6,0.4c0.4-1.6,0.8-3.2,0.4-4.8c-1.2-1.2-2.8-1.6-4.4-1.2c0.4-3.2,3.6-5.2,6-3.6c1.2,0.8,1.6,2,2.4,2.8   c4.8,5.2,12.8,1.2,18.4,4.8c1.6,1.2,3.2,2.8,4.4,4.8c4.8,6.8,8,14.4,10.4,22.8c0.8,0,2,0,2.8,0c0-8.4,4.4-16.4,10.8-20   c0.4-0.8,0.4-1.6,0.8-2.4c3.6-1.2,7.2,2.4,10.4,5.6c1.6,1.6,2.8,3.2,4.4,4.8c0,0.8,0.4,2,0.4,2.8c3.6,0,7.2,4,7.2,8.4   c0.8-0.4,2-0.4,2.8-0.8c1.6-0.4,2.4-2.8,2-4.8s-1.6-3.6-2.4-5.2c-1.6-2.4-3.2-4.4-4.8-6.8c3.2-2.4,6.8-3.2,10-2.8   c-0.8-1.6,1.6-2.8,2.8-3.2c3.2-1.2,5.2-4.8,4.8-8.8c-0.4-3.6-3.2-7.2-6.4-7.2c-2.4-4-2.8-9.6-0.4-13.6c2-3.2,6-4,8.8-2   c-6.8-18.8-17.2-35.6-30.4-50C362,106.8,358,106.4,354.4,106.4z"/>
	<path style="fill:#54C0EB;" d="M117.2,204c0.4,2.4,1.6,4.4,2.8,5.6c2.8,2.4,6.4,3.2,9.6,4.4c3.2,1.2,6.4,4.4,6.4,8.4   c0,3.6-2.8,6-4,9.2c-2,6,1.2,12.4,5.2,16.8c4,4,8.8,7.6,10.8,13.6c0.8,2.4,1.2,5.6,1.2,8.4c0.4,10.4,1.2,20.8,1.6,31.2   c0.4,4.8,0.4,9.6,2.4,13.6c1.6,4.4,4.8,8,8.8,8c-0.4-5.2-1.2-10-1.6-15.2c-0.4-2-0.4-4,0-6c0.8-2,2.4-3.2,4-2.4   c-0.8-2.4,1.2-5.2,3.2-5.2c0-2-1.6-4-3.2-4.8c0.8-2,2.8-3.6,4.8-3.6c0,2,2.4,3.2,4,2s2-3.6,2-5.6s-0.4-4.4,0.4-6.4   c1.2-3.2,4-5.2,6.8-6.4c2.4-6,5.2-12,7.6-17.6c0.8-2,2-4.4,1.6-6.8c-0.4-4.8-4.4-7.6-8-9.2c-3.6-1.6-8-3.2-9.6-7.6   c-0.8-1.6-0.8-3.6-1.6-5.2c-0.8-1.2-2-2-3.2-2.8c-4-2.4-8-5.2-12-7.6c-2.4-1.6-5.2-3.2-7.6-3.6c-2.8-0.4-6,0-8.8,0.4   c-1.2,3.2-4.8,5.2-8,4c-2.8-1.2-4.8-5.2-4.4-8.8c0-1.2,0.4-2.4,0-3.6c-0.4-0.4-0.8-0.8-1.6-0.8c-1.6-0.8-3.2-1.2-4.8-2   c0.4-2.4,0.8-4.8,1.2-7.2c-1.2-0.8-2.8-0.8-4,0c0,1.6,0,3.2,0,4.4c-2.8,0-5.2,0-8,0c0.4-2.8,0-5.6-1.2-8c1.2-9.6,10.4-16.4,18-13.2   c0.4,5.2,4.4,9.2,8.8,9.2c2.4-2.4-2.4-7.6-0.4-10.8c0.8-1.2,2-1.6,2.8-2.4c0.8-0.8,1.2-2,2-2.8c4-7.6,10.4-13.2,17.6-15.2   c2.8-0.8,6.8-2.8,6-6c0-0.8-0.4-1.2-0.8-2c-0.4-1.6,0.8-3.2,2.4-3.2c1.2-0.4,2.8,0,4,0.4c-0.4,4,4,7.6,7.2,5.6   c2-4-4.8-9.2-2.4-12.8c-1.6-0.8-2.8-1.2-4.4-2c0-2-0.4-3.6-0.4-5.6c-1.2,0.4-2.4,0-3.2-0.4c-0.8-1.6-1.2-2.8-1.2-4.4   c-2.8,0-5.6,0-8.8,0c0.4,4,0.4,8.8-2.8,10.4c-0.8,0.4-2,0.4-3.2,0.4c-1.6,0-3.6,0-5.2,0c-1.2,0-2.8,0-4-0.8c-1.6-1.2-2-3.6-1.2-5.6   s2.8-2.8,4.4-2c-0.4-3.6,2.8-6.4,6-6.8s6.4,0,9.2-1.6c-1.2-4.8-6.4-5.6-10.4-4.4s-8.4,3.2-12,0.8c-0.4,0-0.4-0.4-0.4-0.4   c-19.2,22.8-31.6,51.2-34.4,82.4C106.4,200,111.6,203.6,117.2,204z"/>
	<path style="fill:#54C0EB;" d="M392,260.4c-0.8-1.6-3.2-1.6-3.6,0.4c0,0.8,0.4,1.6,0.4,2.4c0,2.8-3.2,3.2-5.6,2.8   c-2-1.6,0-6.4-1.6-8.4s-4.8,0-6.8-0.8c-0.4,1.6-1.2,3.6-1.6,5.2c-2.8-0.8-6-1.2-8.8,0.8c-2.8,1.6-4,6-2.8,9.2   c-4.8-0.4-10.4-0.4-14.4,3.2c-2,1.6-3.2,4.4-3.6,7.2c-0.4,5.2,2.8,10,2,14.8c4.8,1.6,10-1.2,14.8-2.8c4.8-1.6,11.2-2,14,3.2   c0.4,0.8,0.8,1.2,1.2,2c6.8-9.6,12.8-20,17.6-30.8c-0.4-0.8-0.4-1.6-0.8-2.4C392.8,263.6,392.8,261.6,392,260.4z"/>
	<path style="fill:#54C0EB;" d="M299.2,253.6c-0.4,2-0.8,4-1.6,6.4c0,0.8-0.4,1.6-0.4,2c-0.4,2.4-0.4,4.4-0.4,6.8c0,2,0,4,1.6,5.2   s3.6-0.4,4.4-2.4s0.4-4.4,0-6.4s-0.4-4.4,0.4-6.4s2.8-3.6,2-5.6C303.6,252.4,301.2,252.8,299.2,253.6z"/>
	<path style="fill:#54C0EB;" d="M390,223.2c0,0.4,0,0.8,0,0.8c0,0.4-0.4,0.4-0.8,0.4c-1.2,0.4-2.4,1.2-3.6,1.6c0.4,2-0.4,3.6,0,5.6   s2.4,3.2,4,3.6c1.6,0.4,3.6-0.4,5.2-1.2c0.4,0,0.8-0.4,1.2-0.8c0.8-1.2,0.8-2.8,0.4-4.4c-0.4-1.6-1.2-2.8-0.8-4.4   c0.4-1.2,1.2-2.4,1.6-3.6c0.4-1.2,0-3.2-1.2-3.2c-0.8,0-1.2,0.4-1.6,0.8c-0.8,0.4-2,0-3.2,0.4C390.8,219.6,390,221.6,390,223.2z"/>
</g>
<polygon style="fill:#E6E9EE;" points="270,418.8 270,396 238,396 238,418.8 212,418.8 212,450.4 296,450.4 296,418.8 "/>
<g>
</g>
<g>
</g>
<g>
</g>
<g>
</g>
<g>
</g>
<g>
</g>
<g>
</g>
<g>
</g>
<g>
</g>
<g>
</g>
<g>
</g>
<g>
</g>
<g>
</g>
<g>
</g>
<g>
</g>
</svg>
