<?xml version="1.0" encoding="iso-8859-1"?>
<!-- Generator: Adobe Illustrator 19.0.0, SVG Export Plug-In . SVG Version: 6.00 Build 0)  -->
<svg xmlns="http://www.w3.org/2000/svg" xmlns:xlink="http://www.w3.org/1999/xlink" version="1.1" id="Layer_1" x="0px" y="0px" viewBox="0 0 508 508" style="enable-background:new 0 0 508 508;" xml:space="preserve">
<circle style="fill:#324A5E;" cx="254" cy="254" r="254"/>
<circle style="fill:#FFFFFF;" cx="254" cy="254" r="165.6"/>
<g>
	<path style="fill:#4CDBC4;" d="M363.6,141.2c-3.2,0-6,0-8.8-0.8c-6-1.2-11.6-4.8-17.6-4.4c-6.4,0.4-12.4,4.8-15.2,11.6   c-3.6,2.4-7.2-2.4-11.2-3.2c-2.8-0.4-5.6,0.8-8.4,2c-7.6,3.2-16.4,4-24.4,2.4c-6.8-1.2-15.2-4-20,2c-1.6,2-2.8,4.8-4.8,6   c-2,1.2-4.8,1.2-5.2,4c-0.4,5.2,10.4,2,10,7.2c2.4,0,4.8,0,7.2,0c0-2.8-0.4-5.2-0.4-8c3.2-0.8,8,0,8.4,4c0,1.6-0.8,3.2-2,4.4   c-2.8,3.6-6.8,5.6-10.8,6.4c-4.4,0.8-8.4-0.4-12.8,0c-4.4,0.4-8.8,3.2-10,8c-0.8,2.8-0.4,6-2,7.6c-2.4,2.4-7.6,0-8.4,3.6   c-0.8,2.4,1.2,4.4,3.2,5.6c3.2,1.6,6.4,2,9.6,0.8c0.4-2.4,1.2-4.4,1.6-6.8c6,3.6,13.2-9.6,18.8-4.8c2,1.6,3.6,4.4,4,7.2   c2.8,0.4,5.2,0.8,8,1.6c0.4-1.6,0.8-3.6,0.4-5.6c2.4,0,4.4,0,6.8,0c0-2,0-4,0-6c6.8-2.4,15.2,2.8,16.8,11.2   c-6.4,1.2-12.8,2-19.6,3.2c1.6,4.8,7.2,4.8,11.6,4.4c2,3.2-0.8,8-4,8.8c-3.2,1.2-6.4,0-10,0.4c-4.8,0.4-9.6,3.2-14.4,2   c-4-1.2-7.2-5.2-11.2-6.4c-5.6-2-11.6,1.2-16.8,4c-0.8,1.2-1.2,3.2-0.4,4.8c-6.4,3.2-14,7.6-15.6,15.6c-1.2,6,1.2,12.4,4,18   c1.6,3.2,3.2,6.4,5.2,8.4c6.4,6.4,15.6,5.6,24,4c4,8.4,8,17.6,7.2,27.6c-0.4,3.2-1.2,6.8-0.8,10c0.4,2.8,1.2,5.6,2.4,8.4   c0.8,2.4,1.6,4.4,2.4,6.8c2.4,7.6,4.8,15.6,4.8,23.6c3.2,0,6.4,0,10,0c2.4-2.4,4.8-4.8,7.2-7.2c1.2-1.2,2.4-2.4,2.8-4.4   c0.4-1.6-0.4-4-2-4.4c4.4-1.2,6.8-7.6,4.8-12.4c5.2,0.8,8-7.2,8-13.2s-1.6-12.8,0.4-18.4c1.2-3.2,4-5.6,6-8c4-4.4,7.2-9.6,9.6-15.2   c0.4-0.8,0.4-1.2,0.4-2c-0.4-2-2.4-2-4-1.2s-2.8,2.4-4.4,2c-2-0.4-2.8-2.4-3.6-4.4c-4.8-10.4-14.8-17.2-16.8-29.2   c2-0.4,3.6-0.4,5.6-0.8c4,6.8,8,14,12,20.8c1.6,3.2,4.8,6.4,7.6,4.4c0.8-3.2,4.4-4.8,6.8-3.6c0.4-4.4,6.8-5.2,7.6-9.6   c0.4-3.2-2.8-5.6-5.2-6c-2.8,0-5.6,1.2-8.4,0.8c0.4-1.6,0.8-3.6,0.4-5.2c-1.6-1.2-3.2-1.6-4.8-1.2c0.4-3.6,4-6,6.8-4   c1.2,0.8,2,2,2.8,3.2c5.2,6,14,1.2,20.4,5.2c2,1.2,3.6,3.2,4.8,5.2c5.2,7.2,8.8,15.6,11.6,24.8c1.2,0,2,0,3.2,0   c0-9.2,4.8-18,11.6-22c0.4-0.8,0.4-1.6,0.8-2.4c4-1.2,8,2.4,11.2,6c1.6,1.6,3.2,3.6,4.8,5.2c0,1.2,0.4,2,0.4,3.2c4,0,8,4.4,8,9.2   c1.2-0.4,2-0.8,3.2-0.8c1.6-0.8,2.4-3.2,2-5.2s-1.6-4-2.8-5.6c-1.6-2.4-3.6-4.8-5.2-7.2c3.2-2.4,7.2-3.6,11.2-2.8   c-0.8-2,1.6-2.8,3.2-3.6c3.2-1.2,5.6-5.2,5.2-9.6c-0.4-4-3.2-7.6-6.8-8c-2.4-4.4-3.2-10.4-0.4-14.8c2-3.2,6.4-4.4,9.6-2.4   c-7.6-20.4-18.8-38.8-33.2-54.4C372,141.6,368,141.6,363.6,141.2z"/>
	<path style="fill:#4CDBC4;" d="M104.4,248.4c0.4,2.4,1.6,4.8,3.2,6.4c2.8,2.8,6.8,3.2,10.4,4.8c3.6,1.6,7.2,4.8,6.8,9.2   c0,4-3.2,6.4-4.4,10c-2.4,6.4,1.2,13.6,5.6,18.4c4.4,4.4,9.6,8.4,11.6,14.8c0.8,2.8,1.2,6,1.2,8.8c0.8,11.2,1.2,22.8,2,34   c0.4,5.2,0.8,10.4,2.4,15.2c1.6,4.8,5.6,8.8,9.6,8.8c-0.8-5.6-1.2-11.2-2-16.8c-0.4-2-0.4-4.4,0.4-6.4c0.8-2,2.8-3.6,4.4-2.8   c-0.8-2.8,1.2-6,3.6-5.6c0-2.4-1.6-4.4-3.2-5.2c0.8-2.4,2.8-4,5.2-4c0,2.4,2.8,3.6,4.4,2c1.6-1.2,2-4,2-6.4s-0.4-4.8,0.4-6.8   c1.2-3.6,4.4-5.6,7.6-6.8c2.8-6.4,5.6-12.8,8.4-19.2c0.8-2.4,2-4.8,2-7.2c-0.4-5.2-4.8-8.4-8.8-10s-8.8-3.6-10.4-8.4   c-0.8-1.6-0.8-4-2-5.6c-0.8-1.6-2.4-2.4-3.6-3.2c-4.4-2.8-8.8-5.6-13.2-8.4c-2.8-1.6-5.6-3.6-8.4-4c-3.2-0.8-6.4,0-9.6,0.8   c-1.6,3.6-5.2,5.6-8.8,4.4c-3.2-1.2-5.2-5.6-4.8-9.6c0.4-1.2,0.8-2.8,0-3.6c-0.4-0.4-0.8-0.8-1.6-1.2c-1.6-0.8-3.2-1.2-5.2-2   c0.8-2.4,1.2-5.2,1.2-8c-1.2-0.8-2.8-0.8-4.4,0c0,1.6,0,3.2,0,4.8c-2.8,0-6,0-8.8,0c0.4-2.8,0-6-1.2-8.8c1.2-10.4,11.6-18,20-14.4   c0.4,5.6,4.8,10.4,9.6,10c2.8-2.8-2.4-8.4-0.4-12c0.8-1.2,2-1.6,3.2-2.4c0.8-0.8,1.6-2,2-3.2c4-8.4,11.2-14.4,19.2-16.4   c3.2-0.8,7.6-2.8,6.8-6.4c0-0.8-0.8-1.6-0.8-2.4c-0.4-1.6,1.2-3.2,2.4-3.6c1.6-0.4,2.8,0,4.4,0.4c-0.4,4.4,4.4,8.4,7.6,6   c2.4-4.4-5.2-10-2.8-14c-1.6-0.8-3.2-1.2-4.8-2c0-2-0.4-4-0.4-6c-1.2,0.4-2.4,0-3.6-0.4c-0.4-1.6-0.8-3.2-1.2-4.8   c-3.2,0-6.4,0-9.6,0c0.4,4.4,0.4,9.6-2.8,11.2c-1.2,0.4-2.4,0.4-3.2,0.4c-2,0-4,0-6,0c-1.6,0-3.2,0-4.4-1.2c-1.6-1.2-2.4-4-1.2-6   c0.8-2,3.2-3.2,4.8-2c-0.4-4,3.2-7.2,6.4-7.6c3.2-0.4,6.8,0,10-1.6c-1.2-5.2-7.2-6-11.2-4.8c-4.4,1.2-9.2,3.6-12.8,1.2   c-0.4,0-0.4-0.4-0.8-0.4c-20.8,24.8-34.4,56-37.6,90.4C92.8,244,98.4,247.6,104.4,248.4z"/>
	<path style="fill:#4CDBC4;" d="M404.8,309.6c-0.8-1.6-3.6-1.6-4,0.4c0,0.8,0.4,2,0.4,2.8c0,2.8-3.6,3.6-6,2.8c-2.4-2,0-6.8-1.6-9.2   c-1.6-2.4-5.2,0-7.6-0.8c-0.4,2-1.2,4-1.6,6c-2.8-1.6-6.4-1.6-9.2,0.4s-4.4,6.8-2.8,10c-5.6-0.4-11.2-0.4-15.6,3.6   c-2,2-3.6,4.8-4,8c-0.4,5.6,3.2,10.8,2,16.4c5.2,1.6,10.8-1.2,16.4-3.2c5.2-2,12-2,15.6,3.2c0.4,0.8,0.8,1.2,1.2,2   c7.6-10.4,14-21.6,19.2-33.6c-0.4-0.8-0.4-1.6-0.8-2.8C405.6,313.6,406,311.2,404.8,309.6z"/>
	<path style="fill:#4CDBC4;" d="M303.6,302.4c-0.4,2.4-1.2,4.4-1.6,6.8c0,0.8-0.4,1.6-0.4,2.4c-0.4,2.4-0.4,4.8-0.4,7.2   c0,2,0,4.4,1.6,5.6s4-0.4,4.8-2.4c0.8-2.4,0.4-4.8,0-7.2c-0.4-2.4-0.4-4.8,0.4-7.2c0.8-2,3.2-4,2.4-6.4   C308,301.2,305.6,301.2,303.6,302.4z"/>
	<path style="fill:#4CDBC4;" d="M402.8,269.2c0,0.4,0,0.8,0,1.2c0,0.4-0.4,0.4-0.8,0.8c-1.2,0.8-2.4,1.2-3.6,2c0.4,2-0.4,4,0,6   s2.4,3.6,4.4,3.6c2,0.4,3.6-0.4,5.6-1.2c0.4-0.4,1.2-0.4,1.6-0.8c1.2-1.2,0.8-3.2,0.4-4.8c-0.4-1.6-1.2-3.2-0.8-4.8   c0.4-1.2,1.2-2.4,1.6-3.6s0-3.2-1.2-3.6c-0.8,0-1.2,0.4-2,0.8c-1.2,0.4-2.4,0-3.2,0.4C403.6,265.2,402.8,267.6,402.8,269.2z"/>
</g>
<path style="fill:#FF7058;" d="M368.8,205.6H139.2c-5.6,0-10,4.4-10,10v76c0,5.6,4.4,10,10,10h229.2c5.6,0,10-4.4,10-10v-76  C378.8,210.4,374.4,205.6,368.8,205.6z"/>
<rect x="140.4" y="216.8" style="fill:#FFFFFF;" width="227.2" height="74"/>
<g>
	<path style="fill:#324A5E;" d="M224.4,233.6L213.6,274h-10l-6.8-26c-0.4-1.2-0.4-2.8-0.8-4.4l0,0c0,2-0.4,3.2-0.8,4.4l-6.8,26H178   l-10.8-40.4h10l5.6,27.2c0.4,1.2,0.4,2.8,0.4,4.8l0,0c0-1.6,0.4-3.2,0.8-4.8l7.2-26.8h9.6l6.8,27.2c0.4,0.8,0.4,2.4,0.8,4.4l0,0   c0-1.6,0.4-2.8,0.4-4.4l5.6-27.2h10V233.6z"/>
	<path style="fill:#324A5E;" d="M282.8,233.6L272,274h-10l-6.8-26c-0.4-1.2-0.4-2.8-0.8-4.4l0,0c0,2-0.4,3.2-0.8,4.4l-6.8,26h-10.4   l-10.8-40.4h10l5.6,27.2c0.4,1.2,0.4,2.8,0.4,4.8l0,0c0-1.6,0.4-3.2,0.8-4.8l7.2-26.8h9.6l6.8,27.2c0.4,0.8,0.4,2.4,0.8,4.4l0,0   c0-1.6,0.4-2.8,0.4-4.4l5.6-27.2h10V233.6z"/>
	<path style="fill:#324A5E;" d="M340.8,233.6L330,274.4h-10l-6.8-26c-0.4-1.2-0.4-2.8-0.8-4.4l0,0c0,2-0.4,3.2-0.8,4.4l-6.8,26   h-10.4L283.6,234h10l5.6,27.2c0.4,1.2,0.4,2.8,0.4,4.8l0,0c0-1.6,0.4-3.2,0.8-4.8l7.2-26.8H318l6.8,27.2c0.4,0.8,0.4,2.4,0.8,4.4   l0,0c0-1.6,0.4-2.8,0.4-4.4l5.6-27.2h9.2V233.6z"/>
</g>
<g>
</g>
<g>
</g>
<g>
</g>
<g>
</g>
<g>
</g>
<g>
</g>
<g>
</g>
<g>
</g>
<g>
</g>
<g>
</g>
<g>
</g>
<g>
</g>
<g>
</g>
<g>
</g>
<g>
</g>
</svg>
