<?xml version="1.0" encoding="iso-8859-1"?>
<!-- Generator: Adobe Illustrator 19.0.0, SVG Export Plug-In . SVG Version: 6.00 Build 0)  -->
<svg xmlns="http://www.w3.org/2000/svg" xmlns:xlink="http://www.w3.org/1999/xlink" version="1.1" id="Layer_1" x="0px" y="0px" viewBox="0 0 508 508" style="enable-background:new 0 0 508 508;" xml:space="preserve">
<circle style="fill:#FF7058;" cx="254" cy="254" r="254"/>
<g>
	<path style="fill:#FFFFFF;" d="M398.4,166c-2.8-4-8.4-4.4-11.6-1.2l-48.4,48.8c-2.8,2.8-2.8,7.2-0.4,10l9.6,12l58.4-58.4L398.4,166   z"/>
	<path style="fill:#FFFFFF;" d="M181.6,401.2l58.4-58.4l-12-9.6c-2.8-2.4-7.2-2-10,0.4l-48.4,48.8c-3.2,3.2-2.8,8.8,1.2,11.6   L181.6,401.2z"/>
</g>
<path style="fill:#FFD05B;" d="M221.6,427.6c13.2,8.8,30.8,6.8,42-4.4l164-164c11.2-11.2,12.8-28.8,4.4-42l-26.4-40l-58.4,58  l5.6,7.2c5.2,6.4,4.8,16-1.2,22l-82.8,82.8c-6,6-15.2,6.4-22,1.2l-7.2-5.6l-58.4,58.4L221.6,427.6z"/>
<path style="fill:#FFFFFF;" d="M276.8,122.8H119.2c-9.2,0-16.8,7.6-16.8,16.8V242c0,9.2,7.6,16.8,16.8,16.8H208l58.8,44.8l-8.8-44.8  h18.8c9.2,0,16.8-7.6,16.8-16.8V139.6C294,130.4,286.4,122.8,276.8,122.8z"/>
<g>
	<circle style="fill:#324A5E;" cx="149.6" cy="190.8" r="13.6"/>
	<circle style="fill:#324A5E;" cx="198" cy="190.8" r="13.6"/>
	<circle style="fill:#324A5E;" cx="246.4" cy="190.8" r="13.6"/>
</g>
<g>
</g>
<g>
</g>
<g>
</g>
<g>
</g>
<g>
</g>
<g>
</g>
<g>
</g>
<g>
</g>
<g>
</g>
<g>
</g>
<g>
</g>
<g>
</g>
<g>
</g>
<g>
</g>
<g>
</g>
</svg>
