<?xml version="1.0" encoding="iso-8859-1"?>
<!-- Generator: Adobe Illustrator 19.0.0, SVG Export Plug-In . SVG Version: 6.00 Build 0)  -->
<svg xmlns="http://www.w3.org/2000/svg" xmlns:xlink="http://www.w3.org/1999/xlink" version="1.1" id="Layer_1" x="0px" y="0px" viewBox="0 0 508 508" style="enable-background:new 0 0 508 508;" xml:space="preserve">
<circle style="fill:#90DFAA;" cx="254" cy="254" r="254"/>
<path style="fill:#FFFFFF;" d="M394.8,105.2H113.2c-12.8,0-23.2,10.4-23.2,23.2v250.4c0,12.8,10.4,23.2,23.2,23.2h281.2  c12.8,0,23.2-10.4,23.2-23.2v-250C418,116,407.6,105.2,394.8,105.2z"/>
<path style="fill:#FF7058;" d="M418,171.6v-42.8c0-12.8-10.4-23.2-23.2-23.2H113.2c-12.8,0-23.2,10.4-23.2,23.2v42.8H418z"/>
<g>
	<circle style="fill:#FFFFFF;" cx="372.4" cy="138.4" r="12.4"/>
	<circle style="fill:#FFFFFF;" cx="325.6" cy="138.4" r="12.4"/>
	<circle style="fill:#FFFFFF;" cx="279.2" cy="138.4" r="12.4"/>
</g>
<g>
	<path style="fill:#84DBFF;" d="M230,275.2c-2.8,2-2.8,6-2.4,9.2c0.4,5.6,2,12,6.8,14c2.4,0.8,4.8,0.8,7.2,0.8   c2.8,0,5.6-0.4,8.4-0.4c-0.8,4.8,3.2,8.8,4.4,13.6c0.4,2,0.4,4,0.8,6c0.4,4.8,0.8,10,2,14.8c0.8,4,2.8,8.4,6.4,10.4   c1.2,0.8,3.2,0.8,4.4,0c2-1.6,1.6-5.2,4-6c2-4.4,4.4-8.8,6.4-12.8c1.2-2,2-4,2-6.4s-0.8-4.8-0.4-7.2c0.8-6.8,10.8-10,10.4-16.8   c-2.4,1.6-5.2,0.8-7.6-0.8c-2-1.6-3.6-4-5.2-6.4c-2-3.6-4.4-7.6-4-11.6c2.4-1.2,5.2,0.4,6.8,2.8c1.6,2.4,2,4.8,3.2,7.2   c1.2,2.4,3.2,4.8,6,4.8c0.4-1.2,0.4-2,0.8-3.2c2-0.4,4.4-0.4,6-1.6s2.4-4,1.2-5.6c-1.2-1.2-3.2-1.6-4.8-2c-3.2-0.8-5.6-4-4.8-6.8   c1.6-1.2,3.6-0.4,5.2,0.8c1.6,1.2,2.8,2.4,4.8,3.2c3.2,1.2,6.8,0,9.6,1.2c2.8,1.2,4.8,4.4,6,7.2c2,4,4,8,5.6,12   c0.8,0.4,2-0.8,2-1.6c0.4-1.2,0-2,0-3.2c0.4-1.6,1.6-3.2,2.8-4.4c2.8-2.8,5.6-5.2,8.4-7.2c-0.4,3.6,2.8,6.8,5.6,9.2   c3.2,2,6.4,4,8,7.6c0.8,0,2,0,2.8,0c0.8-2,0.8-4.8-0.8-6.8c-0.8-1.2-2-2.4-2.8-3.6s-1.2-3.2-0.4-4.4c0.8-0.8,2-1.2,3.2-1.2   c2.4,0,5.2,0.4,7.6,0c2.4-0.8,4.8-3.2,4-5.6c-0.4-0.8-1.2-1.6-2-2.4c-1.2-1.2-2.8-2.8-4-4.4c-1.6-2-2.4-5.6,0-6.8c4-1.6,6,7.2,10,6   c-0.8-2.8-2-6-3.6-8.8c2.4,0,4.4-2,4.8-4c0.4-2.4-0.8-4.8-2.8-5.6c-1.2-0.4-2.4-0.8-3.6-1.2s-2-1.6-1.6-2.8   c0.4-0.8,0.8-1.2,1.2-1.6c3.6-2.4,7.6-4,12-4.8c0.8,2,1.2,4,2,6c0.4,0.8,0.4,2,1.2,2.4c0.8,0.8,2,0.8,2.4,0c1.2-1.6-2.4-4.4-1.2-6   c2,0,4.8-0.4,5.6-2.4c1.2-2.4-1.6-5.2-4-6c-5.6-1.6-11.2,0.4-16.8-0.4c-2.8-0.4-5.2-1.2-7.6-2c-7.6-1.6-15.2,0.8-22.8,0   c-4.8-0.4-9.6-2.4-14.4-3.6c-4.8-1.2-10.4-1.6-14.8,0.8c-1.2,0.4-2,1.2-2.4,2c0.8,1.2,0.8,2,0.4,2.8c-0.8,0.8-2,1.6-3.2,1.6   c-3.6,0.4-7.2-1.6-10.8-0.8c-2,0.4-4,1.6-6,2.4c-2,0.8-4.4,0.8-6-0.8c2-0.4,4-0.4,5.6-0.8c-3.6-0.4-7.2-1.2-10.8-1.6   c-2-0.4-4.4-0.8-6.8-0.4c-4.8,0.8-8.8,4.8-10.4,9.2c1.2,0.4,2.4,0.4,4,0.8c0.4,0.8,0.4,1.6,0.4,2.4c2,0.4,3.6,0.4,5.6,0.4   c0.4-1.6,0.4-3.2,0-4.8c1.2-0.4,2.8-0.4,4-0.8c-0.8,1.6,1.2,3.6,1.2,5.6s-2,3.6-4,4c-4,1.2-8.4,0.4-12.8,1.2   c-4,0.8-8.4,4.8-7.2,8.8c-2,0.8-4,1.2-6.4,0.8c-1.2,1.6-1.6,4-1.2,6c2.4,2,6.8,1.2,8.4-1.6c0.8-1.2,1.2-3.2,2.4-4   c1.6-0.8,3.6,0,5.2-0.8c0.8-0.4,1.6-1.6,2.4-2c2.8-1.6,5.6,3.2,8.8,2c-0.8,2.4,2,4,4.4,4.4c1.6,0.4,3.6,0.8,5.2,1.2   c1.6,0.4,3.2,0.8,4.4,2c1.2,1.2,1.6,3.2,0.4,4.4c-5.6,0.4-11.2,0.8-16.8,1.2c-1.6,0-3.6,0.4-5.2,0c-4-0.4-8.8-3.2-11.6-0.4   c-0.8,0.8-1.2,1.6-2,2C237.2,275.2,232.8,273.6,230,275.2z"/>
	<path style="fill:#84DBFF;" d="M352.8,309.6c0-1.6-2.4-1.6-3.2-2.8c-0.8-1.2,0.4-2.8,1.6-3.2c1.2-0.8,2.8-0.8,3.6-1.6   c1.2-0.8,2-2,2.4-3.2c0-0.4,0-0.8,0.4-1.2c0,0,0.4,0,0.8,0c1.2,0,2.4,0,3.6,0c1.2,2.4-3.2,5.2-2,7.6c0.4,0.4,0.4,0.8,0.8,1.2   c0.4,0.8,0,1.6-0.8,2c-0.4,0.4-1.2,0.8-2,0.8C356,309.6,354.4,309.6,352.8,309.6z"/>
	<path style="fill:#84DBFF;" d="M385.2,318.8c1.6,1.2,0,4,1.2,5.6c0.4,0.8,1.2,1.2,1.6,1.6s0,1.2,0,2c0,2.4,3.2,4,4,6.4   s-0.4,4.8-2,6.8c-2,2.8-4.8,5.6-8.4,6s-7.2-1.6-8.8-5.2c-1.2,0.8-2.4,0-3.6-0.4c-1.2-0.8-2-1.6-3.2-2c-0.8-0.4-2,0-3.2,0.4   c-2.4,0.8-4.8,1.6-6.8,2.8c-1.2-3.6-2.8-7.2-4-10.8c0-0.4-0.4-0.8-0.4-1.2c0-1.6,1.6-2.4,3.2-2.8s3.2,0,4.4-0.8   c0.8-0.4,1.2-1.2,1.6-2c2.4-2.8,5.6-4.8,9.6-5.2c0.4,0,0.8,0,1.2-0.4c0.4-0.4,0.4-0.8,0.8-0.8c0.8-1.2,2.8-1.6,4-0.8   c-0.8,1.6-0.4,3.6,0.8,4.8c1.2,1.2,2.8,1.6,4.4,1.2c0.4,0,0.8-0.4,0.8-0.4c0-0.4,0-0.8,0-1.2C382.4,320.4,383.6,318.4,385.2,318.8z   "/>
	<path style="fill:#84DBFF;" d="M210.4,240c0.4,0,0.8,0,0.8-0.4c0.8-0.8,0.4-2,0.8-2.8c0.4-1.2,2-2,3.2-2.4c0.8-0.4,1.6-0.4,2-0.8   c1.2-0.4,2.8-1.2,2-2.4c1.2,0,2.4,0,3.6-0.8c1.6-0.8,3.2-2.8,2.8-4.8c1.2,0.4,2.8,0,3.2-1.2s0-2.8-1.2-3.2   c-0.4-0.4-1.2-0.4-1.6-0.4c-7.2-0.8-14-1.2-21.2-1.6c-1.6,0-3.2,0-4,1.6s0.8,3.2,1.2,4.8c0,0.8,0,1.6,0.4,2.4   c0.4,0.8,0.8,1.2,1.2,1.6c1.6,2.8-2,6-0.8,8.8c0.4,1.2,2,2,3.2,2C208,240.4,209.2,240.4,210.4,240z"/>
	<path style="fill:#84DBFF;" d="M147.6,272.4c1.6-0.8,3.2-0.4,4.8-0.8c0.8-0.4,1.6-1.2,2.4-1.6c2-1.2,4.4,0.4,5.6,2.4   c1.2,2,0.8,4.4,0.4,6.8c2.8-0.4,4-5.2,1.6-6.8c3.2-0.8,4.4-4,6.4-6.4c2.4-2.8,6.8-4.8,6.8-8.8c2,0.8,4,0.8,6,0.8c0.4-2,0-4-1.2-6   c1.6-0.8,3.2-1.6,4.8-1.6c0,2,2.8,2,4.4,1.2c0.4,1.2,0.4,2.4,0.4,3.2c1.6,0.4,2.8,0.4,4.4,0.4c0.4-3.2-0.4-6.4-2-9.2   c-1.2-2-2.8-4.4-2-6.8c-0.8,0-1.2-0.4-2-0.4c0,2-2.4,4-4.4,3.6c0-2-0.4-4-0.4-6c-1.2,0.8-3.2-0.4-3.2-1.6c0-1.6,1.2-2.8,2.4-3.2   s2.8-0.4,4.4-0.4c0.8,1.6,0.8,3.2,0.8,4.8c1.2,0,2.8,0,4-0.4c0-1.2-0.4-2.4-1.2-3.2c0.8-0.4,2-1.2,2.8-1.6   c-1.6-0.4-3.2-0.8-4.4-1.6c-1.2-1.2-2-2.8-1.2-4.4c-3.2-0.4-6.4-1.2-9.6-1.6c-2-0.4-4-0.8-5.6,0c-2.8,0.8-4.8,3.2-7.2,3.6   c-2,0-4.4-0.4-4.8,1.6c0,0.4,0,1.2,0,1.6c-0.4,2-2.8,1.6-4.8,0.8c-3.2-1.2-6.8-1.2-10.4-1.2c-9.2-0.4-18.8-0.8-26.4,4   c-2.8,2-5.6,4.4-8,6.8c3.2,2.4,7.6-1.2,12-1.2c2.8,0,5.2,1.6,7.6,3.2c0.8,5.2,0.4,10.4-1.2,15.2c-0.4,1.2-0.8,2-0.8,3.2   s0.4,2.4,1.2,3.6c2,4.4,4.4,8.4,6.4,12.8c0.8,1.2,1.2,2.8,2,4c1.2,2,2,4,4,5.6c3.2,2.4,8.4,2.4,10.8,5.6c0.4,0.8,0.8,1.2,1.2,2   c1.6,1.6,3.6,2,5.6,2.4c2,0.8,4,2.8,3.2,4.8c-0.4,0.8-0.8,1.2-1.6,1.6c-2.4,2.8-1.6,7.2,0.8,10.4s5.2,5.6,7.2,8.8   c4,6.4,2.8,14.4,3.6,21.6c0.8,6,2.8,11.6,6.4,16.4c0.8,1.6,2.8,2.8,4,1.6c0.8-0.8,0.8-2,0.4-3.2c-0.8-2.8-1.2-6-2-8.8   c2.8-0.4,4.8-4,4-6.8c2.8,0.4,4.8-2.4,5.6-5.2c0.8-2.8,1.2-6,4-7.6c1.2-0.8,2.8-0.8,4-2c2-2,0.4-5.6,2-7.6c0.8-1.2,2.4-1.6,3.2-2.8   c2.4-2.8,0.4-7.2-2.8-9.2s-6.8-2.4-9.6-4.8c-1.6-1.2-2.8-2.8-4.4-4.4c-2.8-2.4-6-4-9.2-6c-2.8-1.6-6-2.8-9.2-2.4   c-2,0.4-3.6,1.6-5.6,2s-4.4,0.4-5.2-1.2c-0.8-1.2-0.8-2.4-1.2-4c-0.4-1.2-2-2.4-2.8-1.6c0-1.6,0.4-3.2,0.4-5.2   c0-1.2-2.4-1.6-3.2-0.8c-1.2,0.8-2,2-3.6,2.4s-2.8-1.2-3.2-2.4c-0.4-1.6,0-3.2,0-4.4C145.2,275.6,145.6,273.2,147.6,272.4z"/>
</g>
<g>
</g>
<g>
</g>
<g>
</g>
<g>
</g>
<g>
</g>
<g>
</g>
<g>
</g>
<g>
</g>
<g>
</g>
<g>
</g>
<g>
</g>
<g>
</g>
<g>
</g>
<g>
</g>
<g>
</g>
</svg>
