<?xml version="1.0" encoding="iso-8859-1"?>
<!-- Generator: Adobe Illustrator 19.0.0, SVG Export Plug-In . SVG Version: 6.00 Build 0)  -->
<svg xmlns="http://www.w3.org/2000/svg" xmlns:xlink="http://www.w3.org/1999/xlink" version="1.1" id="Layer_1" x="0px" y="0px" viewBox="0 0 508 508" style="enable-background:new 0 0 508 508;" xml:space="preserve">
<circle style="fill:#84DBFF;" cx="254" cy="254" r="254"/>
<g>
	<path style="fill:#FFFFFF;" d="M377.6,106l-4-4L352,123.6l4,4c42,42,42,110.4,0,152l-4,4l21.6,21.6l4-4   C431.2,247.6,431.2,159.6,377.6,106z"/>
	<path style="fill:#FFFFFF;" d="M334,146l-4-4l-21.6,21.6l4,4c19.6,19.6,19.6,52,0,71.6l-4,4l21.6,21.6l4-4c15.2-15.2,24-36,24-57.6   C357.6,182,349.2,161.6,334,146z"/>
	<path style="fill:#FFFFFF;" d="M130.4,106l4-4l21.6,21.6l-4,4c-42,42-42,110.4,0,152l4,4l-21.6,21.6l-4-4   C76.8,247.6,76.8,159.6,130.4,106z"/>
	<path style="fill:#FFFFFF;" d="M174,146l4-4l21.6,21.6l-4,4c-19.6,19.6-19.6,52,0,71.6l4,4l-21.6,22l-4-4c-15.2-15.2-24-36-24-57.6   C150.4,182,158.8,161.6,174,146z"/>
</g>
<path style="fill:#54C0EB;" d="M48.4,403.2C94.4,466.8,169.6,508,254,508s159.6-41.2,205.6-104.8H48.4z"/>
<g>
	<polygon style="fill:#324A5E;" points="289.2,403.2 218.8,403.2 231.2,248 276.8,248  "/>
	<circle style="fill:#324A5E;" cx="254" cy="203.6" r="25.2"/>
</g>
<g>
</g>
<g>
</g>
<g>
</g>
<g>
</g>
<g>
</g>
<g>
</g>
<g>
</g>
<g>
</g>
<g>
</g>
<g>
</g>
<g>
</g>
<g>
</g>
<g>
</g>
<g>
</g>
<g>
</g>
</svg>
