<?xml version="1.0" encoding="iso-8859-1"?>
<!-- Generator: Adobe Illustrator 19.0.0, SVG Export Plug-In . SVG Version: 6.00 Build 0)  -->
<svg xmlns="http://www.w3.org/2000/svg" xmlns:xlink="http://www.w3.org/1999/xlink" version="1.1" id="Layer_1" x="0px" y="0px" viewBox="0 0 508 508" style="enable-background:new 0 0 508 508;" xml:space="preserve">
<circle style="fill:#FFD05B;" cx="254" cy="254" r="254"/>
<path style="fill:#FFFFFF;" d="M379.6,212c16.8-16.8,22.8-39.6,18.8-61.2L363.2,186l-42.8-11.6l-11.6-42.8L344.4,96  c-21.6-4-44.8,2-61.2,18.8c-18.8,18.8-24.4,46-16.4,70L121.6,315.6c-17.6,15.6-18,42.8-1.6,59.2l0,0c16.4,16.4,43.6,16,59.2-1.6  L310,228.4C333.6,236.4,360.8,230.8,379.6,212z M138.8,356.4c-5.2-5.2-5.2-13.6,0-18.8c5.2-5.2,13.6-5.2,18.8,0s5.2,13.6,0,18.8  C152.4,361.2,144,361.2,138.8,356.4z"/>
<path style="fill:#FF7058;" d="M286,254.8l-46-46L121.6,315.6c-17.6,15.6-18,42.8-1.6,59.2l0,0c16.4,16.4,43.6,16,59.2-1.6  L286,254.8z M138.8,356.4c-5.2-5.2-5.2-13.6,0-18.8c5.2-5.2,13.6-5.2,18.8,0s5.2,13.6,0,18.8C152.4,361.2,144,361.2,138.8,356.4z"/>
<polygon style="fill:#FFFFFF;" points="168,151.2 135.6,129.2 112.8,152 134.8,184.4 158.4,191.6 246,279.2 262.8,262.4   175.2,174.8 "/>
<path style="fill:#324A5E;" d="M272,228.8l-4,4l-3.2,3.2l-45.2,45.2l-3.2,3.2l-4,4c-4,4-2,11.2,4,12c4.4,0.4,10,2,15.6,4.4  c5.2,2,9.6,5.2,13.6,9.2l95.2,95.2c4.8,4.8,12.8,4.8,17.6,0l34.4-34.4c4.8-4.8,4.8-12.8,0-17.6L297.6,262c-4-4-6.8-8.4-9.2-13.6  c-2.4-6-3.6-11.2-4.4-15.6C283.2,226.8,276,224.8,272,228.8z"/>
<g>
	<path style="fill:#E6E9EE;" d="M262,296.4c-2.4,2.4-2.4,6.4,0,8.8l77.6,77.6c2.4,2.4,6.4,2.4,8.8,0s2.4-6.4,0-8.8l-78-77.6   C268,294,264,294,262,296.4z"/>
	<path style="fill:#E6E9EE;" d="M280,278.4c-2.4,2.4-2.4,6.4,0,8.8l77.6,77.6c2.4,2.4,6.4,2.4,8.8,0s2.4-6.4,0-8.8l-78-77.6   C286.4,276,282.4,276,280,278.4z"/>
</g>
<g>
</g>
<g>
</g>
<g>
</g>
<g>
</g>
<g>
</g>
<g>
</g>
<g>
</g>
<g>
</g>
<g>
</g>
<g>
</g>
<g>
</g>
<g>
</g>
<g>
</g>
<g>
</g>
<g>
</g>
</svg>
