<?xml version="1.0" encoding="iso-8859-1"?>
<!-- Generator: Adobe Illustrator 19.0.0, SVG Export Plug-In . SVG Version: 6.00 Build 0)  -->
<svg xmlns="http://www.w3.org/2000/svg" xmlns:xlink="http://www.w3.org/1999/xlink" version="1.1" id="Layer_1" x="0px" y="0px" viewBox="0 0 508 508" style="enable-background:new 0 0 508 508;" xml:space="preserve">
<circle style="fill:#84DBFF;" cx="254" cy="254" r="254"/>
<path style="fill:#324A5E;" d="M241.6,106.4H107.2c-5.2,0-9.2,4-9.2,9.2v96c0,5.2,4,9.2,9.2,9.2h134c5.2,0,9.2-4,9.2-9.2v-96  C250.4,110.4,246.4,106.4,241.6,106.4z"/>
<rect x="109.6" y="117.6" style="fill:#FFFFFF;" width="130" height="91.6"/>
<g>
	<path style="fill:#324A5E;" d="M192,225.2v4.4h-35.6v-4.4H86.8v6.4c0,5.6,4.8,10.4,10.4,10.4h154c5.6,0,10.4-4.8,10.4-10.4v-6.4   H192z"/>
	<path style="fill:#324A5E;" d="M392.8,257.6h-134c-5.2,0-9.2,4-9.2,9.2v96c0,5.2,4,9.2,9.2,9.2h134c5.2,0,9.2-4,9.2-9.2v-96   C402,262,397.6,257.6,392.8,257.6z"/>
</g>
<rect x="260.8" y="269.2" style="fill:#FFFFFF;" width="130" height="91.6"/>
<path style="fill:#324A5E;" d="M343.2,376.8v4.4h-35.6v-4.4h-69.2v6.4c0,5.6,4.8,10.4,10.4,10.4h154c5.6,0,10.4-4.8,10.4-10.4v-6.4  H343.2z"/>
<g>
	<path style="fill:#FF7058;" d="M364.8,208.8c-0.4-0.8-0.8-2.4-1.2-4.4c-0.4-1.6-1.2-3.6-1.6-6s-2-4.8-2.8-7.6   c-1.2-2.8-2.4-5.6-4.4-8.4c-2-2.8-3.2-6-5.6-8.8s-4.4-6-7.2-8.4c-1.2-1.2-2.8-2.8-4-4c-1.6-1.2-2.8-2.4-4.4-3.6   c-2.8-2.4-6-4.4-9.2-6c-3.2-2-6.4-3.2-9.6-4.8c-3.2-1.2-6-2.4-9.2-3.2c-2.8-0.8-5.6-1.6-8.4-2.4c-5.2-1.2-9.6-2-12.4-2   c-3.2-0.4-4.8-0.4-4.8-0.4v0.8c0,0,1.6,0.4,4.4,1.6c2.8,0.8,6.8,2.4,11.2,4.8c2.4,1.2,4.8,2.4,7.2,4c2.4,1.6,4.8,3.2,7.6,5.2   c2.4,2,4.8,4,7.2,6c2.4,2.4,4.4,4.4,6.4,7.2l2.8,3.6c0.8,1.2,1.6,2.8,2.4,4c1.6,2.4,2.8,5.2,4,8c1.2,2.4,2,5.2,2.8,7.6   c0.8,2.4,1.2,4.8,1.6,7.2s0.8,4,0.8,6s0,3.6,0,4.8s0,2,0,2.8H326l26.8,22.4l22.4-26.8L364.8,208.8z"/>
	<path style="fill:#FF7058;" d="M135.2,291.2c0.4,0.8,0.8,2.4,1.2,4.4c0.4,1.6,1.2,3.6,1.6,6c0.4,2.4,2,4.8,2.8,7.6   c1.2,2.8,2.4,5.6,4.4,8.4s3.2,6,5.6,8.8c2.4,2.8,4.4,6,7.2,8.4c1.2,1.2,2.8,2.8,4,4c1.6,1.2,2.8,2.4,4.4,3.6c2.8,2.4,6,4.4,9.2,6   c3.2,2,6.4,3.2,9.6,4.8c3.2,1.2,6,2.4,9.2,3.2c2.8,0.8,5.6,1.6,8.4,2.4c5.2,1.2,9.6,2,12.4,2c3.2,0.4,4.8,0.4,4.8,0.4v-0.8   c0,0-1.6-0.4-4.4-1.6c-2.8-0.8-6.8-2.4-11.2-4.8c-2.4-1.2-4.8-2.4-7.2-4s-4.8-3.2-7.6-5.2c-2.4-2-4.8-4-7.2-6   c-2.4-2.4-4.4-4.4-6.4-7.2l-2-2.8c-0.8-1.2-1.6-2.8-2.4-4c-1.6-2.4-2.8-5.2-4-8c-1.2-2.4-2-5.2-2.8-7.6s-1.2-4.8-1.6-7.2   c-0.4-2.4-0.8-4-0.8-6s0-3.6,0-4.8c0-1.2,0-2,0-2.8l11.2-1.2l-26.8-22.4l-22.4,26.8L135.2,291.2z"/>
</g>
<g>
</g>
<g>
</g>
<g>
</g>
<g>
</g>
<g>
</g>
<g>
</g>
<g>
</g>
<g>
</g>
<g>
</g>
<g>
</g>
<g>
</g>
<g>
</g>
<g>
</g>
<g>
</g>
<g>
</g>
</svg>
