<?xml version="1.0" encoding="iso-8859-1"?>
<!-- Generator: Adobe Illustrator 19.0.0, SVG Export Plug-In . SVG Version: 6.00 Build 0)  -->
<svg xmlns="http://www.w3.org/2000/svg" xmlns:xlink="http://www.w3.org/1999/xlink" version="1.1" id="Layer_1" x="0px" y="0px" viewBox="0 0 508 508" style="enable-background:new 0 0 508 508;" xml:space="preserve">
<circle style="fill:#324A5E;" cx="254" cy="254" r="254"/>
<polygon style="fill:#FFFFFF;" points="211.2,400.4 141.6,368.4 141.6,208.4 211.2,240.4 "/>
<polygon style="fill:#E6E9EE;" points="292,374.8 211.2,400.4 211.2,240.4 292,214.8 "/>
<polygon style="fill:#FFFFFF;" points="292,374.4 366.4,400.8 366.4,240.8 292,214.4 "/>
<path style="fill:#FF7058;" d="M256.8,75.6c-42.8,0-77.6,34.8-77.6,77.6s77.6,157.2,77.6,157.2s77.6-114.4,77.6-157.2  S300,75.6,256.8,75.6z M256.8,192.8c-24,0-43.2-19.6-43.2-43.2s19.6-43.2,43.2-43.2c24,0,43.2,19.6,43.2,43.2  S280.8,192.8,256.8,192.8z"/>
<g>
</g>
<g>
</g>
<g>
</g>
<g>
</g>
<g>
</g>
<g>
</g>
<g>
</g>
<g>
</g>
<g>
</g>
<g>
</g>
<g>
</g>
<g>
</g>
<g>
</g>
<g>
</g>
<g>
</g>
</svg>
