<?xml version="1.0" encoding="iso-8859-1"?>
<!-- Generator: Adobe Illustrator 19.0.0, SVG Export Plug-In . SVG Version: 6.00 Build 0)  -->
<svg xmlns="http://www.w3.org/2000/svg" xmlns:xlink="http://www.w3.org/1999/xlink" version="1.1" id="Layer_1" x="0px" y="0px" viewBox="0 0 508 508" style="enable-background:new 0 0 508 508;" xml:space="preserve">
<circle style="fill:#90DFAA;" cx="254" cy="254" r="254"/>
<g>
	<path style="fill:#FFFFFF;" d="M316.8,176.4c-1.6-11.6-10-20.8-21.2-23.2L280,150c-5.6-1.2-9.6-6.4-9.6-12v-4   c5.2-4.4,8.8-10.8,10.8-18l0,0c2.4,0.4,4.8-2.8,5.2-6.8c0.4-3.2-0.4-6-2-7.2c0-3.2-0.4-9.2-0.4-12c0-3.2-0.4-6.4-1.2-9.2   c-0.8-2.8-2.4-6-5.2-7.6c-0.8-0.4-1.6-0.8-2.4-0.8c0-0.4,0-0.4,0-0.8c-0.4-1.2-1.2-2-2-2.8c-6-5.6-15.2-6.8-23.2-6.4   c-3.6,0.4-7.2,1.2-10.4,2.8c-2.4,1.2-4.4,3.2-6,4.8c-7.6,8.4-11.2,20-9.6,31.2c-1.6,1.2-2.8,4-2.4,7.2c0.4,4,2.8,7.2,5.2,6.8l0,0   c2,7.2,6,13.6,10.8,18v3.6c0,5.6-4,10.8-9.6,12l-15.6,3.6c-11.2,2.4-19.6,11.6-21.2,23.2l-4.8,32.8h134.4L316.8,176.4z"/>
	<path style="fill:#FFFFFF;" d="M404.8,342.8c-1.6-11.6-10-20.8-21.2-23.2l-15.2-3.6c-5.6-1.2-9.6-6.4-9.6-12v-4   c5.2-4.4,8.8-10.8,10.8-18l0,0c2.4,0.4,4.8-2.8,5.2-6.8c0.4-3.2-0.4-6-2-7.2c0-3.2-0.4-9.2-0.4-12c0-3.2-0.4-6.4-1.2-9.2   c-0.8-2.8-2.4-6-5.2-7.6c-0.8-0.4-1.6-0.8-2.4-0.8c0-0.4,0-0.4,0-0.8c-0.4-1.2-1.2-2-2-2.8c-6-5.6-15.2-6.8-23.2-6.4   c-3.6,0.4-7.2,1.2-10.4,2.8c-2.4,1.2-4.4,3.2-6,4.8c-7.6,8.4-11.2,20-9.6,31.2c-1.6,1.2-2.8,4-2.4,7.2c0.4,4,2.8,7.2,5.2,6.8l0,0   c2,7.2,6,13.6,10.8,18v3.6c0,5.6-4,10.8-9.6,12l-15.6,3.6c-11.2,2.4-19.6,11.6-21.2,23.2l-4.8,32.8h134.4L404.8,342.8z"/>
	<path style="fill:#FFFFFF;" d="M228.4,342.8c-1.6-11.6-10-20.8-21.2-23.2L192,316c-6-1.2-10-6-10-12v-4c5.2-4.4,8.8-10.8,10.8-18   l0,0c2.4,0.4,4.8-2.8,5.2-6.8c0.4-3.2-0.4-6-2-7.2c0-3.2-0.4-9.2-0.4-12c0-3.2-0.4-6.4-1.2-9.2s-2.4-6-5.2-7.6   c-0.8-0.4-1.6-0.8-2.4-0.8c0-0.4,0-0.4,0-0.8c-0.4-1.2-1.2-2-2-2.8c-6-5.6-15.2-6.8-23.2-6.4c-3.6,0.4-7.2,1.2-10.4,2.8   c-2.4,1.2-4.4,3.2-6,4.8c-7.6,8.4-11.2,20-9.6,31.2c-1.6,1.2-2.8,4-2.4,7.2c0.4,4,2.8,7.2,5.2,6.8l0,0c2,7.2,6,13.6,10.8,18v3.6   c0,5.6-4,10.8-9.6,12l-15.6,3.6c-11.2,2.4-19.6,11.6-21.2,23.2L98,374.4h134.4L228.4,342.8z"/>
</g>
<g>
	<path style="fill:#FF7058;" d="M381.2,213.2l19.2-21.6l-10.4,0.8c0-0.4,0-0.8-0.4-1.2c-0.4-1.2-0.4-2.4-0.8-4s-0.8-3.2-1.6-5.2   c-0.8-2-1.2-4-2.4-6c-1.2-2-2-4-3.6-6s-2.8-4-4.8-6l-2.4-2.8c-0.8-0.8-2-1.6-2.8-2.4c-2-1.6-4-2.8-6-4s-4.4-2-6.4-3.2   c-4-1.6-8-2.8-11.6-3.2c-3.6-0.8-6.4-0.8-8.4-0.8c-0.8,0-3.2,0-3.2,0l-0.4,4c0,0,4,0.8,10,3.2c2.8,1.2,6,3.2,9.2,5.2   c1.6,1.2,3.2,2.4,4.4,3.6c1.2,1.2,2.8,2.8,4,4.4c0.4,0.8,1.2,1.6,1.6,2.4l1.2,2.4c1.2,1.6,1.6,3.2,2,4.8c0.8,1.6,0.8,3.2,1.2,4.8   c0.4,1.6,0.4,3.2,0.8,4.4c0,1.2,0.4,2.4,0.4,3.6c0,1.2,0,2,0,2.8c0,0.4,0,0.4,0,0.4l-10.4,0.4L381.2,213.2z"/>
	<path style="fill:#FF7058;" d="M153.6,154.4l-27.6-7.6l5.2,8.8c-0.4,0.4-0.8,0.4-0.8,0.8c-0.8,0.8-2,1.6-3.2,2.4   c-1.2,0.8-2.4,2.4-4,3.6c-1.2,1.6-2.8,2.8-4.4,4.8c-1.2,2-2.8,3.6-4,5.6s-2.4,4.4-3.2,6.8l-1.6,3.6c-0.4,1.2-0.8,2.4-0.8,3.6   c-0.8,2.4-0.8,4.8-1.2,7.2c0,2.4,0,4.8,0,7.2c0.4,4.4,1.2,8.4,2,12c0.8,3.2,2,6,2.8,8c0.4,0.8,1.2,2.8,1.2,2.8l3.6-1.6   c0,0-1.2-4-1.2-10.4c0-3.2,0-6.8,0.8-10.4c0.4-2,0.8-3.6,1.2-5.6c0.8-2,1.2-3.6,2-5.2c0.4-0.8,0.8-1.6,1.2-2.4l1.6-2.4   c0.8-1.6,2.4-2.8,3.2-4c1.2-1.2,2.4-2,3.6-3.2c1.2-1.2,2.4-1.6,3.6-2.4c1.2-0.8,2-1.6,3.2-2s2-0.8,2.8-1.2c0,0,0.4,0,0.4-0.4   l4.8,8.8L153.6,154.4z"/>
</g>
<g>
</g>
<g>
</g>
<g>
</g>
<g>
</g>
<g>
</g>
<g>
</g>
<g>
</g>
<g>
</g>
<g>
</g>
<g>
</g>
<g>
</g>
<g>
</g>
<g>
</g>
<g>
</g>
<g>
</g>
</svg>
