<?xml version="1.0" encoding="iso-8859-1"?>
<!-- Generator: Adobe Illustrator 19.0.0, SVG Export Plug-In . SVG Version: 6.00 Build 0)  -->
<svg xmlns="http://www.w3.org/2000/svg" xmlns:xlink="http://www.w3.org/1999/xlink" version="1.1" id="Layer_1" x="0px" y="0px" viewBox="0 0 508 508" style="enable-background:new 0 0 508 508;" xml:space="preserve">
<circle style="fill:#FFD05B;" cx="254" cy="254" r="254"/>
<path style="fill:#FFFFFF;" d="M372.8,196H368c-2.4-40.4-35.6-72.4-76.4-72.4c-4,0-8,0.4-11.6,0.8c-16-28.4-46-47.6-80.8-47.6  c-51.2,0-92.4,41.6-92.4,92.4c0,10.8,2,21.2,5.2,30.8c-25.2,10-42.8,34-42.8,62.4c0,36.4,29.6,66.4,66.4,66.4h237.2  c36.4,0,66.4-29.6,66.4-66.4C438.8,225.6,409.2,196,372.8,196z"/>
<path style="fill:#FF7058;" d="M325.2,362.4l-66.4,66.4c-2.8,2.8-7.2,2.8-10,0l-66-66.4c-4.4-4.4-1.2-12,4.8-12h14.8  c4,0,7.2-3.2,7.2-7.2v-96c0-4,3.2-7.2,7.2-7.2h74.8c4,0,7.2,3.2,7.2,7.2v96c0,4,3.2,7.2,7.2,7.2h14.8  C326.4,350.4,329.6,358,325.2,362.4z"/>
<g>
</g>
<g>
</g>
<g>
</g>
<g>
</g>
<g>
</g>
<g>
</g>
<g>
</g>
<g>
</g>
<g>
</g>
<g>
</g>
<g>
</g>
<g>
</g>
<g>
</g>
<g>
</g>
<g>
</g>
</svg>
