<?xml version="1.0" encoding="iso-8859-1"?>
<!-- Generator: Adobe Illustrator 19.0.0, SVG Export Plug-In . SVG Version: 6.00 Build 0)  -->
<svg xmlns="http://www.w3.org/2000/svg" xmlns:xlink="http://www.w3.org/1999/xlink" version="1.1" id="Layer_1" x="0px" y="0px" viewBox="0 0 508 508" style="enable-background:new 0 0 508 508;" xml:space="preserve">
<circle style="fill:#FFD05B;" cx="254" cy="254" r="254"/>
<path style="fill:#FFFFFF;" d="M387.2,135.6H120.8c-9.2,0-16.4,7.2-16.4,16.4v171.6c0,9.2,7.2,16.4,16.4,16.4h28.8l-26,63.6l94-63.6  h169.6c9.2,0,16.4-7.2,16.4-16.4V152C403.2,143.2,396,135.6,387.2,135.6z"/>
<path style="fill:#4CDBC4;" d="M264.4,257.2H264c-3.6,9.2-9.6,14-18.8,14c-6.8,0-12.4-2.4-16.4-7.2c-4-4.8-6.4-11.6-6.4-20.4  c0-11.2,2.8-20.4,8.8-27.6c5.6-7.2,12.8-10.4,20.8-10.4c7.2,0,12,2.8,13.6,8.8h0.4l0.8-7.2h16.4c-2.4,20.8-3.2,34.8-3.2,41.2  c0,6.8,2,10.4,5.6,10.4c4,0,7.2-2.8,9.6-8c2.4-5.2,4-12,4-20.4c0-11.6-3.6-20.8-10.8-28.4c-7.2-7.2-17.6-11.2-30.8-11.2  c-14,0-25.6,4.8-35.2,14.8s-14,21.6-14,36c0,13.6,4,24.4,12.4,32.4s19.6,11.6,34,11.6c11.2,0,21.2-2,30.4-6.4v14  c-8.4,3.6-19.2,5.2-32.4,5.2c-18,0-32.8-5.2-44.4-15.6c-11.2-10.4-17.2-24.4-17.2-42c0-18,6-32.8,18.4-45.2  c12-12,27.6-18.4,46.8-18.4c17.6,0,32,4.8,42.8,14c10.8,9.6,16.4,22,16.4,37.6c0,12.8-3.2,22.8-10,30.8  c-6.8,7.6-14.8,11.6-24.8,11.6c-4.8,0-8.8-1.2-12-4C266.4,264.8,264.8,261.6,264.4,257.2z M254.8,218.4c-4.4,0-8,2.4-10.8,7.6  c-2.8,5.2-4,10.8-4,17.6c0,4.8,0.8,8.4,2.8,11.2c2,2.8,4.4,4,7.2,4c4.8,0,8.4-2.4,10.8-7.6c2.8-4.8,4-11.6,4-20c0-4-0.8-7.2-2.8-9.2  C260.4,219.6,257.6,218.4,254.8,218.4z"/>
<g>
</g>
<g>
</g>
<g>
</g>
<g>
</g>
<g>
</g>
<g>
</g>
<g>
</g>
<g>
</g>
<g>
</g>
<g>
</g>
<g>
</g>
<g>
</g>
<g>
</g>
<g>
</g>
<g>
</g>
</svg>
