<?xml version="1.0" encoding="iso-8859-1"?>
<!-- Generator: Adobe Illustrator 19.0.0, SVG Export Plug-In . SVG Version: 6.00 Build 0)  -->
<svg xmlns="http://www.w3.org/2000/svg" xmlns:xlink="http://www.w3.org/1999/xlink" version="1.1" id="Layer_1" x="0px" y="0px" viewBox="0 0 508 508" style="enable-background:new 0 0 508 508;" xml:space="preserve">
<circle style="fill:#84DBFF;" cx="254" cy="254" r="254"/>
<g>
	<path style="fill:#324A5E;" d="M444.4,288.8c-2-14-12.4-24.8-26-28l-18.4-4c-6.8-1.6-11.6-7.6-11.6-14.8v-4.8   c6-5.2,10.8-12.8,13.2-21.6l0,0c2.8,0.4,5.6-3.2,6.4-8c0.4-3.6-0.4-7.2-2.4-8.4c0-4-0.4-10.8-0.4-14.4c0-3.6-0.4-7.6-1.2-11.2   c-1.2-3.6-3.2-7.2-6.4-8.8c-0.8-0.4-2-0.8-3.2-1.2c0-0.4,0-0.4,0-0.8c-0.4-1.2-1.2-2.4-2.4-3.6c-7.2-6.8-18.4-8.4-28-7.6   c-4.4,0.4-8.8,1.2-12.8,3.2c-2.8,1.6-5.2,3.6-7.6,6c-9.2,10-13.6,24.4-11.6,38c-2,1.2-3.2,4.8-2.8,8.8c0.4,4.8,3.2,8.4,6.4,8l0,0   c2.4,8.8,7.2,16.4,13.2,21.6v4.4c0,6.8-4.8,13.2-11.6,14.4l-18.8,4.4c-13.6,3.2-23.6,14.4-25.6,28l-5.6,39.6H450L444.4,288.8z"/>
	<path style="fill:#324A5E;" d="M215.2,288.8c-2-14-12.4-24.8-26-28l-18.4-4c-6.8-1.6-11.6-7.6-11.6-14.8v-4.8   c6-5.2,10.8-12.8,13.2-21.6l0,0c2.8,0.4,5.6-3.2,6.4-8c0.4-3.6-0.4-7.2-2.4-8.4c0-4-0.4-10.8-0.4-14.4c0-3.6-0.4-7.6-1.2-11.2   c-1.2-3.6-3.2-7.2-6.4-8.8c-0.8-0.4-2-0.8-3.2-1.2c0-0.4,0-0.4,0-0.8c-0.4-1.2-1.2-2.4-2.4-3.6c-7.2-6.8-18.4-8.4-28-7.6   c-4.4,0.4-8.8,1.2-12.8,3.2c-2.8,1.6-5.2,3.6-7.6,6c-9.2,10-13.6,24.4-11.6,38c-2,1.2-3.2,4.8-2.8,8.8c0.4,4.8,3.2,8.4,6.4,8l0,0   c2.4,8.8,7.2,16.4,13.2,21.6v4.4c0,6.8-4.8,13.2-11.6,14.4l-18.8,4.4c-13.6,3.2-23.6,14.4-25.6,28L58,328h162.8L215.2,288.8z"/>
</g>
<g>
	<path style="fill:#FFFFFF;" d="M360.8,315.6c-2.8-19.6-17.2-35.2-36.4-39.6l-26-6c-9.6-2-16.4-10.8-16.4-20.8v-12h-55.6v11.6   c0,10-6.8,18.4-16.4,20.4l-26.4,6c-19.2,4.4-33.6,20-36,39.2l-8,55.6h229.6L360.8,315.6z"/>
	
		<ellipse transform="matrix(0.1205 -0.9927 0.9927 0.1205 67.0961 475.6719)" style="fill:#FFFFFF;" cx="302" cy="199.969" rx="12.4" ry="7.2"/>
	
		<ellipse transform="matrix(0.1205 0.9927 -0.9927 0.1205 379.3525 -28.388)" style="fill:#FFFFFF;" cx="205.697" cy="199.899" rx="12.4" ry="7.2"/>
	<ellipse style="fill:#FFFFFF;" cx="254" cy="192.8" rx="48.8" ry="60.8"/>
</g>
<g>
	<path style="fill:#324A5E;" d="M290.4,137.2c1.2,3.6-1.2,7.6-4.4,10.4c-4,3.6-20,9.6-25.6,10c-11.6,0.8-17.2-9.2-28.8-7.6   c-9.2,1.2-11.6,8-16.4,16c-3.2,5.2-5.2,10.8-6,16.4c-0.4,2-0.4,4-2,5.6c-1.2,1.6-4,2-5.2,0.4c-2.8-19.2,3.6-39.6,16.4-53.6   c3.2-3.2,6.4-6.4,10.4-8.4c5.6-2.8,11.6-4,18-4.8c14-1.2,29.2,0.8,39.6,10.4C288.4,133.6,290,135.2,290.4,137.2z"/>
	<path style="fill:#324A5E;" d="M274.4,143.2c-1.2,1.6-2.4,3.6-2.4,5.6c0,1.2,0.4,2.4,0.8,3.6c2.4,8,8,14.8,14.8,19.6   c3.6,2.8,8,5.2,10,9.2c0.8,2,1.2,9.6,2.8,11.2s4,2.4,5.2,0.8c0.8-0.8,0.8-2,0.4-3.2c0-5.2-0.4-16-0.4-21.6c0-5.2-0.4-10.8-2-15.6   c-1.6-5.2-4.4-10-8.8-12.8C288.4,136,279.6,137.6,274.4,143.2z"/>
</g>
<g>
</g>
<g>
</g>
<g>
</g>
<g>
</g>
<g>
</g>
<g>
</g>
<g>
</g>
<g>
</g>
<g>
</g>
<g>
</g>
<g>
</g>
<g>
</g>
<g>
</g>
<g>
</g>
<g>
</g>
</svg>
