<?xml version="1.0" encoding="iso-8859-1"?>
<!-- Generator: Adobe Illustrator 19.0.0, SVG Export Plug-In . SVG Version: 6.00 Build 0)  -->
<svg xmlns="http://www.w3.org/2000/svg" xmlns:xlink="http://www.w3.org/1999/xlink" version="1.1" id="Layer_1" x="0px" y="0px" viewBox="0 0 508 508" style="enable-background:new 0 0 508 508;" xml:space="preserve">
<circle style="fill:#84DBFF;" cx="254" cy="254" r="254"/>
<g>
	<polygon style="fill:#FFFFFF;" points="110.4,182.8 110.4,376.8 254,280  "/>
	<polygon style="fill:#FFFFFF;" points="254,280 397.6,376.8 397.6,182.8  "/>
</g>
<path style="fill:#324A5E;" d="M262,78.4c-5.2-4-12-4-16.8,0L110.4,182.8L254,280l143.6-97.2L262,78.4z"/>
<polygon style="fill:#E6E9EE;" points="110.4,376.8 397.6,376.8 254,280 "/>
<g>
	<path style="fill:#FFD05B;" d="M278,140.8l-20-20v10.4c-0.4,0-0.8,0-1.2,0c-1.2,0-2.4,0.4-4,0.8c-1.6,0-3.2,0.8-5.2,1.2s-4,1.2-6,2   c-2,1.2-4.4,1.6-6.4,3.2c-2,1.2-4.4,2.4-6,4.4l-2.8,2.4c-0.8,0.8-1.6,2-2.4,2.8c-1.6,2-3.2,4-4.4,6s-2.4,4-3.6,6c-2,4-3.2,8-4,11.2   s-1.2,6.4-1.6,8.4c0,0.8-0.4,3.2-0.4,3.2l4,0.4c0,0,1.2-4,4-9.6c1.6-2.8,3.2-6,5.6-8.8c1.2-1.6,2.4-2.8,4-4.4   c1.6-1.2,2.8-2.8,4.4-3.6c0.8-0.4,1.6-1.2,2.4-1.6l2.4-1.2c1.6-0.8,3.2-1.2,4.8-2s3.2-0.8,4.8-1.2s3.2-0.4,4.4-0.4s2.4-0.4,3.6,0   c1.2,0,2,0.4,2.8,0.4c0.4,0,0.4,0,0.4,0v10L278,140.8z"/>
	<path style="fill:#FFD05B;" d="M230,210.4l20.4,20.4v-10.4c0.4,0,0.8,0,1.2,0c1.2,0,2.4-0.4,4-0.4c1.6,0,3.2-0.8,5.2-1.2s4-1.2,6-2   c2-1.2,4.4-1.6,6.4-3.2c2-1.2,4.4-2.4,6-4.4l2.8-2.4c0.8-0.8,1.6-2,2.4-2.8c1.6-2,3.2-4,4.4-6c1.2-2,2.4-4,3.6-6c2-4,3.2-8,4-11.2   s1.2-6.4,1.6-8.4c0-0.8,0.4-3.2,0.4-3.2l-4-0.4c0,0-1.2,4-4,9.6c-1.6,2.8-3.2,6-5.6,8.8c-1.2,1.6-2.4,2.8-4,4.4   c-1.6,1.2-2.8,2.8-4.4,3.6c-0.8,0.4-1.6,1.2-2.4,1.6l-2.4,1.2c-1.6,0.8-3.2,1.2-4.8,2c-1.6,0.8-3.2,0.8-4.8,1.2   c-1.6,0.4-3.2,0.4-4.4,0.4c-1.2,0-2.4,0.4-3.6,0c-1.2,0-2-0.4-2.8-0.4c-0.4,0-0.4,0-0.4,0v-10L230,210.4z"/>
</g>
<g>
</g>
<g>
</g>
<g>
</g>
<g>
</g>
<g>
</g>
<g>
</g>
<g>
</g>
<g>
</g>
<g>
</g>
<g>
</g>
<g>
</g>
<g>
</g>
<g>
</g>
<g>
</g>
<g>
</g>
</svg>
