<?xml version="1.0" encoding="iso-8859-1"?>
<!-- Generator: Adobe Illustrator 19.0.0, SVG Export Plug-In . SVG Version: 6.00 Build 0)  -->
<svg xmlns="http://www.w3.org/2000/svg" xmlns:xlink="http://www.w3.org/1999/xlink" version="1.1" id="Layer_1" x="0px" y="0px" viewBox="0 0 508 508" style="enable-background:new 0 0 508 508;" xml:space="preserve">
<circle style="fill:#FD8469;" cx="254" cy="254" r="254"/>
<path style="fill:#324A5E;" d="M377.6,125.2H130.4c-9.2,0-16.8,7.6-16.8,16.8v176.8c0,9.2,7.6,16.8,16.8,16.8h247.2  c9.2,0,16.8-7.6,16.8-16.8V142C394.4,132.8,386.8,125.2,377.6,125.2z"/>
<rect x="134.4" y="146" style="fill:#54C0EB;" width="239.6" height="168.8"/>
<path style="fill:#324A5E;" d="M286.8,351.6v8h-65.6v-8H92.8v12c0,10.8,8.8,19.2,19.2,19.2h284c10.8,0,19.2-8.8,19.2-19.2v-12H286.8  z"/>
<path style="fill:#54C0EB;" d="M373.6,146H372c0.4,0.4,1.2,0.4,1.6,0.8V146z"/>
<g>
	<path style="fill:#FFFFFF;" d="M302.8,244.8c5.2,9.2,10.8,17.6,16.8,24.8c9.2-2.4,18.4-6,28-10.4l-15.2-29.6L302.8,244.8z"/>
	<path style="fill:#FFFFFF;" d="M353.6,161.6c6.8-1.6,13.6-2.4,20-2.8v-12c-0.4-0.4-1.2-0.4-1.6-0.8h-35.6   C342.4,150.4,348,155.6,353.6,161.6z"/>
	<path style="fill:#FFFFFF;" d="M306.4,180l-15.6-29.6c-8,8-10,24.4-6.8,44C291.2,189.2,298.4,184.4,306.4,180z"/>
	<path style="fill:#FFFFFF;" d="M328.4,278.8c14,14,28.8,21.6,40,20l-15.6-29.6C344.8,272.8,336.4,276.4,328.4,278.8z"/>
	<path style="fill:#FFFFFF;" d="M297.6,234.8l29.6-15.2L311.6,190c-9.2,5.2-17.6,10.8-24.8,16.8C289.6,216,293.2,225.2,297.6,234.8z   "/>
	<path style="fill:#FFFFFF;" d="M278,215.2c-14,14-21.6,28.8-20,40l29.6-15.6C283.6,231.6,280.4,223.6,278,215.2z"/>
	<path style="fill:#FFFFFF;" d="M315.6,282c-14.4,3.2-27.6,3.6-38.4,1.6c18.4,17.2,44,25.2,69.2,22   C336.4,300.8,325.6,292.8,315.6,282z"/>
	<path style="fill:#FFFFFF;" d="M274.4,202.8c-3.2-14.4-3.6-27.6-1.6-38.4c-17.2,18.4-25.2,44-22,69.2   C255.6,223.2,263.6,212.8,274.4,202.8z"/>
	<path style="fill:#FFFFFF;" d="M307.6,272c-5.2-6.8-10-14-14.4-22l-29.6,15.6C271.2,273.2,288,275.6,307.6,272z"/>
	<path style="fill:#FFFFFF;" d="M341.2,164.8c-9.6-9.6-20-16.4-28.8-18.8h-10.8l14.8,28.8C324.8,170.8,333.2,167.6,341.2,164.8z"/>
	<path style="fill:#FFFFFF;" d="M373.6,188.4V170c-3.6,0.4-7.6,0.8-11.6,1.6C366,176.8,370,182.4,373.6,188.4z"/>
	<path style="fill:#FFFFFF;" d="M362.8,263.6l10.8,20.8v-27.2C370.4,259.6,366.8,261.6,362.8,263.6z"/>
	<path style="fill:#FFFFFF;" d="M366.8,198.8c-5.2-9.2-10.8-17.6-16.8-24.8c-9.2,2.4-18.4,6-28,10.4l15.2,29.6L366.8,198.8z"/>
	<path style="fill:#FFFFFF;" d="M342.4,224.4l15.2,29.6c5.6-3.2,10.8-6.8,16-10.4v-30.4c-0.8-1.2-1.2-2.8-2-4L342.4,224.4z"/>
</g>
<g>
</g>
<g>
</g>
<g>
</g>
<g>
</g>
<g>
</g>
<g>
</g>
<g>
</g>
<g>
</g>
<g>
</g>
<g>
</g>
<g>
</g>
<g>
</g>
<g>
</g>
<g>
</g>
<g>
</g>
</svg>
