<?xml version="1.0" encoding="iso-8859-1"?>
<!-- Generator: Adobe Illustrator 19.0.0, SVG Export Plug-In . SVG Version: 6.00 Build 0)  -->
<svg xmlns="http://www.w3.org/2000/svg" xmlns:xlink="http://www.w3.org/1999/xlink" version="1.1" id="Layer_1" x="0px" y="0px" viewBox="0 0 508 508" style="enable-background:new 0 0 508 508;" xml:space="preserve">
<circle style="fill:#90DFAA;" cx="254" cy="254" r="254"/>
<path style="fill:#FFFFFF;" d="M378.8,122.4H129.2c-11.6,0-20.8,9.2-20.8,20.8v222c0,11.6,9.2,20.8,20.8,20.8h249.2  c11.6,0,20.8-9.2,20.8-20.8V142.8C399.2,131.6,390,122.4,378.8,122.4z"/>
<path style="fill:#FF7058;" d="M399.2,181.2v-38c0-11.6-9.2-20.8-20.8-20.8H129.2c-11.6,0-20.8,9.2-20.8,20.8v38H399.2z"/>
<g>
	<rect x="139.6" y="144.8" style="fill:#FFFFFF;" width="144.8" height="12.4"/>
	<polygon style="fill:#FFFFFF;" points="368.4,161.6 358.4,151.6 368.4,141.6 362,135.2 352,145.6 342,135.2 336,141.6 346,151.6    336,161.6 342,168 352,157.6 362,168  "/>
</g>
<circle style="fill:#324A5E;" cx="253.2" cy="284.4" r="56.4"/>
<path style="fill:#E6E9EE;" d="M281.2,280.8l-34.4-26c-2.8-2.4-7.2,0-7.2,3.6V310c0,3.6,4.4,6,7.2,3.6l34.4-25.6  C283.6,286,283.6,282.4,281.2,280.8z"/>
<g>
</g>
<g>
</g>
<g>
</g>
<g>
</g>
<g>
</g>
<g>
</g>
<g>
</g>
<g>
</g>
<g>
</g>
<g>
</g>
<g>
</g>
<g>
</g>
<g>
</g>
<g>
</g>
<g>
</g>
</svg>
