<?xml version="1.0" encoding="iso-8859-1"?>
<!-- Generator: Adobe Illustrator 19.0.0, SVG Export Plug-In . SVG Version: 6.00 Build 0)  -->
<svg xmlns="http://www.w3.org/2000/svg" xmlns:xlink="http://www.w3.org/1999/xlink" version="1.1" id="Layer_1" x="0px" y="0px" viewBox="0 0 508 508" style="enable-background:new 0 0 508 508;" xml:space="preserve">
<circle style="fill:#324A5E;" cx="254" cy="254" r="254"/>
<rect x="132.4" y="178.4" style="fill:#E6E9EE;" width="243.2" height="70"/>
<g>
	<path style="fill:#FFFFFF;" d="M385.6,123.6H122.4c-4.8,0-8.8,4-8.8,8.8v62c0,4.8,4,8.8,8.8,8.8h263.2c4.8,0,8.8-4,8.8-8.8v-62   C394.4,127.6,390.4,123.6,385.6,123.6z"/>
	<path style="fill:#FFFFFF;" d="M385.6,223.6H122.4c-4.8,0-8.8,4-8.8,8.8V294c0,4.8,4,8.8,8.8,8.8h263.2c4.8,0,8.8-4,8.8-8.8v-62   C394.4,227.2,390.4,223.6,385.6,223.6z"/>
</g>
<circle style="fill:#FF7058;" cx="151.2" cy="163.2" r="10.4"/>
<circle style="fill:#FFD05B;" cx="188.4" cy="163.2" r="10.4"/>
<circle style="fill:#4CDBC4;" cx="225.6" cy="163.2" r="10.4"/>
<circle style="fill:#FF7058;" cx="151.2" cy="263.2" r="10.4"/>
<circle style="fill:#FFD05B;" cx="188.4" cy="263.2" r="10.4"/>
<g>
	<circle style="fill:#4CDBC4;" cx="225.6" cy="263.2" r="10.4"/>
	<polygon style="fill:#4CDBC4;" points="266.4,355.2 266.4,302.8 241.6,302.8 241.6,355.2 115.6,355.2 115.6,380.4 392.4,380.4    392.4,355.2  "/>
</g>
<polygon style="fill:#FFFFFF;" points="270,323.2 238,323.2 238,351.2 198,351.2 198,384.4 310,384.4 310,351.2 270,351.2 "/>
<g>
</g>
<g>
</g>
<g>
</g>
<g>
</g>
<g>
</g>
<g>
</g>
<g>
</g>
<g>
</g>
<g>
</g>
<g>
</g>
<g>
</g>
<g>
</g>
<g>
</g>
<g>
</g>
<g>
</g>
</svg>
