<?xml version="1.0" encoding="iso-8859-1"?>
<!-- Generator: Adobe Illustrator 19.0.0, SVG Export Plug-In . SVG Version: 6.00 Build 0)  -->
<svg xmlns="http://www.w3.org/2000/svg" xmlns:xlink="http://www.w3.org/1999/xlink" version="1.1" id="Layer_1" x="0px" y="0px" viewBox="0 0 508 508" style="enable-background:new 0 0 508 508;" xml:space="preserve">
<circle style="fill:#324A5E;" cx="254" cy="254" r="254"/>
<path style="fill:#FFD05B;" d="M413.2,362.8H172c-29.6,0-53.6-24-53.6-53.6V140.8c0-29.6,24-53.6,53.6-53.6h58  c29.6,0,53.6,24,53.6,53.6v0.8h-14.8v-0.8c0-21.2-17.2-38.4-38.4-38.4H172c-21.2,0-38.4,17.2-38.4,38.4v168.4  c0,21.2,17.2,38.4,38.4,38.4h241.6v15.2H413.2z"/>
<ellipse style="fill:#FFFFFF;" cx="276" cy="281.2" rx="100.4" ry="139.6"/>
<path style="fill:#E6E9EE;" d="M374.8,257.2c-8-65.6-49.2-115.6-98.8-115.6s-90.4,50-98.8,115.6H374.8z"/>
<path style="fill:#324A5E;" d="M276,171.2c-4.8,0-8.8,4-8.8,8.8v42.4c0,4.8,4,8.8,8.8,8.8s8.8-4,8.8-8.8V180  C284.8,175.2,280.8,171.2,276,171.2z"/>
<g>
</g>
<g>
</g>
<g>
</g>
<g>
</g>
<g>
</g>
<g>
</g>
<g>
</g>
<g>
</g>
<g>
</g>
<g>
</g>
<g>
</g>
<g>
</g>
<g>
</g>
<g>
</g>
<g>
</g>
</svg>
