<?xml version="1.0" encoding="iso-8859-1"?>
<!-- Generator: Adobe Illustrator 19.0.0, SVG Export Plug-In . SVG Version: 6.00 Build 0)  -->
<svg xmlns="http://www.w3.org/2000/svg" xmlns:xlink="http://www.w3.org/1999/xlink" version="1.1" id="Layer_1" x="0px" y="0px" viewBox="0 0 508 508" style="enable-background:new 0 0 508 508;" xml:space="preserve">
<circle style="fill:#84DBFF;" cx="254" cy="254" r="254"/>
<path style="fill:#FFFFFF;" d="M376,122.4H121.2c-11.6,0-21.2,9.6-21.2,21.2v226.8c0,11.6,9.6,21.2,21.2,21.2H376  c11.6,0,21.2-9.6,21.2-21.2V143.6C396.8,132,387.6,122.4,376,122.4z"/>
<path style="fill:#FF7058;" d="M396.8,182.4v-38.8c0-11.6-9.6-21.2-21.2-21.2H121.2c-11.6,0-21.2,9.6-21.2,21.2v38.8H396.8z"/>
<g>
	<circle style="fill:#FFFFFF;" cx="277.2" cy="151.6" r="10.4"/>
	<circle style="fill:#FFFFFF;" cx="319.2" cy="151.6" r="10.4"/>
	<circle style="fill:#FFFFFF;" cx="360.8" cy="151.6" r="10.4"/>
</g>
<g>
	<path style="fill:#324A5E;" d="M213.2,259.6L200.4,308h-12l-8-30.8c-0.4-1.6-0.8-3.6-0.8-5.6l0,0c-0.4,2-0.4,4-0.8,5.6l-8.4,30.8   H158l-12.8-48.4h12l6.8,32c0.4,1.2,0.4,3.2,0.8,5.6h0.4c0-1.6,0.4-3.6,0.8-5.6l8.8-32H186l8,32.4c0.4,1.2,0.4,2.8,0.8,5.2l0,0   c0-1.6,0.4-3.6,0.8-5.2l6.8-32h10.8V259.6z"/>
	<path style="fill:#324A5E;" d="M282.4,259.6L269.6,308h-12l-8-30.8c-0.4-1.6-0.8-3.6-0.8-5.6l0,0c-0.4,2-0.4,4-0.8,5.6l-8.4,30.8   h-12.4l-12.8-48.4h12l6.8,32c0.4,1.2,0.4,3.2,0.8,5.6h0c0-1.6,0.4-3.6,0.8-5.6l8.8-32h11.6l8,32.4c0.4,1.2,0.4,2.8,0.8,5.2l0,0   c0-1.6,0.4-3.6,0.8-5.2l6.8-32h10.8V259.6z"/>
	<path style="fill:#324A5E;" d="M351.6,259.6L338.8,308h-12l-8-30.8c-0.4-1.6-0.8-3.6-0.8-5.6l0,0c-0.4,2-0.4,4-0.8,5.6l-8.4,30.8   h-12.4l-12.8-48.4h12l6.8,32c0.4,1.2,0.4,3.2,0.8,5.6h0.4c0-1.6,0.4-3.6,0.8-5.6l8.8-32h11.6l8,32.4c0.4,1.2,0.4,2.8,0.8,5.2l0,0   c0-1.6,0.4-3.6,0.8-5.2l6.8-32h10.4V259.6z"/>
</g>
<g>
</g>
<g>
</g>
<g>
</g>
<g>
</g>
<g>
</g>
<g>
</g>
<g>
</g>
<g>
</g>
<g>
</g>
<g>
</g>
<g>
</g>
<g>
</g>
<g>
</g>
<g>
</g>
<g>
</g>
</svg>
