<?xml version="1.0" encoding="iso-8859-1"?>
<!-- Generator: Adobe Illustrator 19.0.0, SVG Export Plug-In . SVG Version: 6.00 Build 0)  -->
<svg xmlns="http://www.w3.org/2000/svg" xmlns:xlink="http://www.w3.org/1999/xlink" version="1.1" id="Layer_1" x="0px" y="0px" viewBox="0 0 512 512" style="enable-background:new 0 0 512 512;" xml:space="preserve">
<circle style="fill:#324A5E;" cx="256" cy="256" r="256"/>
<g>
	<rect x="126" y="189.2" style="fill:#FFFFFF;" width="40" height="168.4"/>
	<rect x="199.2" y="189.2" style="fill:#FFFFFF;" width="40" height="168.4"/>
	<rect x="272.4" y="189.2" style="fill:#FFFFFF;" width="40" height="168.4"/>
	<rect x="346" y="189.2" style="fill:#FFFFFF;" width="40" height="168.4"/>
</g>
<path style="fill:#E6E9EE;" d="M424.8,192.8l-165.6-140c-2-1.6-4.4-1.6-6.4,0l-165.6,140c-3.6,2.8-1.6,8.8,3.2,8.8h330.8  C426,201.6,428.4,196,424.8,192.8z"/>
<polygon style="fill:#FFFFFF;" points="138.8,178.8 256,79.6 373.2,178.8 "/>
<g>
	<path style="fill:#CED5E0;" d="M338.8,201.2V212c0,2.8,2.4,4.8,4.8,4.8H388c2.8,0,4.8-2.4,4.8-4.8v-11.2h-54V201.2z"/>
	<path style="fill:#CED5E0;" d="M265.6,201.2V212c0,2.8,2.4,4.8,4.8,4.8h44.4c2.8,0,4.8-2.4,4.8-4.8v-11.2h-54V201.2z"/>
	<path style="fill:#CED5E0;" d="M192.4,201.2V212c0,2.8,2.4,4.8,4.8,4.8h44.4c2.8,0,4.8-2.4,4.8-4.8v-11.2h-54V201.2z"/>
	<path style="fill:#CED5E0;" d="M119.2,201.2V212c0,2.8,2.4,4.8,4.8,4.8h44.4c2.8,0,4.8-2.4,4.8-4.8v-11.2h-54V201.2z"/>
	<path style="fill:#CED5E0;" d="M338.8,357.6v-11.2c0-2.8,2.4-4.8,4.8-4.8H388c2.8,0,4.8,2.4,4.8,4.8v11.2H338.8z"/>
	<path style="fill:#CED5E0;" d="M265.6,357.6v-11.2c0-2.8,2.4-4.8,4.8-4.8h44.4c2.8,0,4.8,2.4,4.8,4.8v11.2H265.6z"/>
	<path style="fill:#CED5E0;" d="M192.4,357.6v-11.2c0-2.8,2.4-4.8,4.8-4.8h44.4c2.8,0,4.8,2.4,4.8,4.8v11.2H192.4z"/>
	<path style="fill:#CED5E0;" d="M119.2,357.6v-11.2c0-2.8,2.4-4.8,4.8-4.8h44.4c2.8,0,4.8,2.4,4.8,4.8v11.2H119.2z"/>
</g>
<path style="fill:#2B3B4E;" d="M31.2,378.4C74.8,458,159.2,512,256,512s181.2-54,224.8-133.6H31.2z"/>
<rect x="90.8" y="357.6" style="fill:#E6E9EE;" width="330" height="20.8"/>
<g>
</g>
<g>
</g>
<g>
</g>
<g>
</g>
<g>
</g>
<g>
</g>
<g>
</g>
<g>
</g>
<g>
</g>
<g>
</g>
<g>
</g>
<g>
</g>
<g>
</g>
<g>
</g>
<g>
</g>
</svg>
