<?xml version="1.0" encoding="iso-8859-1"?>
<!-- Generator: Adobe Illustrator 19.0.0, SVG Export Plug-In . SVG Version: 6.00 Build 0)  -->
<svg xmlns="http://www.w3.org/2000/svg" xmlns:xlink="http://www.w3.org/1999/xlink" version="1.1" id="Layer_1" x="0px" y="0px" viewBox="0 0 512 512" style="enable-background:new 0 0 512 512;" xml:space="preserve">
<circle style="fill:#90DFAA;" cx="256" cy="256" r="256"/>
<path style="fill:#FFFFFF;" d="M391.2,244.4H264v-28.8c0-4.4-3.6-8-8-8s-8,3.6-8,8v28.8H120.8c-4.4,0-8,3.6-8,8v59.2  c0,4.4,3.6,8,8,8s8-3.6,8-8V260H248v51.2c0,4.4,3.6,8,8,8s8-3.6,8-8V260h119.2v51.2c0,4.4,3.6,8,8,8s8-3.6,8-8v-58.8  C398.8,248,395.6,244.4,391.2,244.4z"/>
<path style="fill:#324A5E;" d="M328.4,99.6H258c-1.6,0-2.8-0.4-4-1.6l-13.2-13.2c-1.2-1.2-2.4-1.6-4-1.6h-45.2  c-3.2,0-5.6,2.4-5.6,5.6V206c0,3.2,2.8,6,6,6h136c3.2,0,6-2.8,6-6V105.2C334,102,331.6,99.6,328.4,99.6z"/>
<g>
	<path style="fill:#FF7058;" d="M159.6,301.6H120c-0.8,0-1.6-0.4-2-0.8l-7.6-7.6c-0.4-0.4-1.2-0.8-2-0.8H82.8   c-1.6,0-3.2,1.2-3.2,3.2v66c0,2,1.6,3.6,3.6,3.6H160c2,0,3.6-1.6,3.6-3.6v-56.8C162.8,302.8,161.2,301.6,159.6,301.6z"/>
	<path style="fill:#FF7058;" d="M294.8,301.6h-39.6c-0.8,0-1.6-0.4-2-0.8l-7.6-7.6c-0.4-0.4-1.2-0.8-2-0.8H218   c-1.6,0-3.2,1.2-3.2,3.2v66c0,2,1.6,3.6,3.6,3.6h76.8c2,0,3.6-1.6,3.6-3.6v-56.8C297.6,302.8,296.4,301.6,294.8,301.6z"/>
	<path style="fill:#FF7058;" d="M429.6,301.6H390c-0.8,0-1.6-0.4-2-0.8l-7.6-7.6c-0.4-0.4-1.2-0.8-2-0.8h-25.6   c-1.6,0-3.2,1.2-3.2,3.2v66c0,2,1.6,3.6,3.6,3.6H430c2,0,3.6-1.6,3.6-3.6v-56.8C432.8,302.8,431.6,301.6,429.6,301.6z"/>
</g>
<g>
</g>
<g>
</g>
<g>
</g>
<g>
</g>
<g>
</g>
<g>
</g>
<g>
</g>
<g>
</g>
<g>
</g>
<g>
</g>
<g>
</g>
<g>
</g>
<g>
</g>
<g>
</g>
<g>
</g>
</svg>
