<?xml version="1.0" encoding="iso-8859-1"?>
<!-- Generator: Adobe Illustrator 19.0.0, SVG Export Plug-In . SVG Version: 6.00 Build 0)  -->
<svg xmlns="http://www.w3.org/2000/svg" xmlns:xlink="http://www.w3.org/1999/xlink" version="1.1" id="Layer_1" x="0px" y="0px" viewBox="0 0 512 512" style="enable-background:new 0 0 512 512;" xml:space="preserve">
<circle style="fill:#84DBFF;" cx="256" cy="256" r="256"/>
<path style="fill:#FFFFFF;" d="M377.6,119.6H142.4c-17.2,0-31.2,14-31.2,31.2v150.4c0,17.2,14,31.2,31.2,31.2h16.4l-17.2,64.4  l92.8-64.4h143.2c17.2,0,31.2-14,31.2-31.2V150.8C408.8,133.6,394.8,119.6,377.6,119.6z"/>
<g>
	<path style="fill:#324A5E;" d="M284.8,199.6c0.4-6,1.2-14,0.8-19.2c-0.4-2.4-2-5.2-3.6-7.2c-0.4-0.8-1.2-1.2-2-1.6   c-0.8-0.4-2-0.4-3.2-0.4c-0.8,0-1.2,0-2,0.4c-0.4-0.8,0-1.6-2-2.8c-6-5.2-23.2-3.6-29.6,2.4c-3.6,3.2-6,6.8-6.8,11.2   c-0.8,4,0.4,13.2,0,17.2l0,0c-0.4,0-0.4,0-0.4,0c-1.6,0.4-2.4,3.2-1.6,6c0.8,2.8,2.4,5.2,4,4.8h0.4c3.2,10.8,11.6,18.4,21.6,18.4   c10,0,18.4-7.6,21.6-18.4c0,0,0,0,0.4,0c1.6,0.4,3.2-1.6,4-4.8C286.8,202.8,286,200.4,284.8,199.6z"/>
	<path style="fill:#324A5E;" d="M314,280.4c-4-26-26.8-46-54-46s-50,20-54,46c-0.4,3.2,2,6,5.2,6h97.6   C312,286.4,314.4,283.6,314,280.4z"/>
</g>
<g>
</g>
<g>
</g>
<g>
</g>
<g>
</g>
<g>
</g>
<g>
</g>
<g>
</g>
<g>
</g>
<g>
</g>
<g>
</g>
<g>
</g>
<g>
</g>
<g>
</g>
<g>
</g>
<g>
</g>
</svg>
