<?xml version="1.0" encoding="iso-8859-1"?>
<!-- Generator: Adobe Illustrator 19.0.0, SVG Export Plug-In . SVG Version: 6.00 Build 0)  -->
<svg xmlns="http://www.w3.org/2000/svg" xmlns:xlink="http://www.w3.org/1999/xlink" version="1.1" id="Layer_1" x="0px" y="0px" viewBox="0 0 512 512" style="enable-background:new 0 0 512 512;" xml:space="preserve">
<circle style="fill:#324A5E;" cx="256" cy="256" r="256"/>
<rect x="363.2" y="214" style="fill:#FF7058;" width="23.6" height="41.6"/>
<rect x="363.2" y="255.6" style="fill:#E6E9EE;" width="23.6" height="41.6"/>
<rect x="363.2" y="297.2" style="fill:#FFD05B;" width="23.6" height="41.6"/>
<rect x="363.2" y="339.2" style="fill:#4CDBC4;" width="23.6" height="41.6"/>
<path style="fill:#FFFFFF;" d="M372.4,106.4h-212c-8,0-14.4,6.4-14.4,14.4v270.4c0,8,6.4,14.4,14.4,14.4h187.2c8.8,0,16-7.2,16-16  V218.4H380c4,0,7.2-3.2,7.2-7.2v-90.4C387.2,112.8,380.4,106.4,372.4,106.4z"/>
<g>
	<circle style="fill:#324A5E;" cx="166.4" cy="152" r="11.2"/>
	<circle style="fill:#324A5E;" cx="166.4" cy="204" r="11.2"/>
	<circle style="fill:#324A5E;" cx="166.4" cy="256" r="11.2"/>
	<circle style="fill:#324A5E;" cx="166.4" cy="308" r="11.2"/>
	<circle style="fill:#324A5E;" cx="166.4" cy="360" r="11.2"/>
</g>
<g>
	<path style="fill:#4CDBC4;" d="M132.8,159.6h32c4.4,0,7.6-3.6,7.6-7.6c0-4.4-3.6-7.6-7.6-7.6h-32c-4.4,0-7.6,3.6-7.6,7.6   C124.8,156,128.4,159.6,132.8,159.6z"/>
	<path style="fill:#4CDBC4;" d="M164.8,196.4h-32c-4.4,0-7.6,3.6-7.6,7.6c0,4.4,3.6,7.6,7.6,7.6h32c4.4,0,7.6-3.6,7.6-7.6   C172.4,199.6,168.8,196.4,164.8,196.4z"/>
	<path style="fill:#4CDBC4;" d="M164.8,248.4h-32c-4.4,0-7.6,3.6-7.6,7.6c0,4.4,3.6,7.6,7.6,7.6h32c4.4,0,7.6-3.6,7.6-7.6   C172.4,251.6,168.8,248.4,164.8,248.4z"/>
	<path style="fill:#4CDBC4;" d="M164.8,300.4h-32c-4.4,0-7.6,3.6-7.6,7.6c0,4.4,3.6,7.6,7.6,7.6h32c4.4,0,7.6-3.6,7.6-7.6   C172.4,304,168.8,300.4,164.8,300.4z"/>
	<path style="fill:#4CDBC4;" d="M164.8,352.8h-32c-4.4,0-7.6,3.6-7.6,7.6c0,4.4,3.6,7.6,7.6,7.6h32c4.4,0,7.6-3.6,7.6-7.6   C172.4,356,168.8,352.8,164.8,352.8z"/>
</g>
<path style="fill:#84DBFF;" d="M276.8,275.2h-0.4c-3.6,9.2-9.6,14-18.4,14c-6.8,0-12-2.4-16.4-7.2c-4-4.8-6-11.6-6-20.4  c0-11.2,2.8-20.4,8.4-27.2c5.6-7.2,12.4-10.4,20.8-10.4c7.2,0,12,2.8,13.6,8.4h0.4l0.8-7.2H296c-2,20.8-3.2,34.4-3.2,40.8  c0,6.8,2,10.4,5.6,10.4c4,0,7.2-2.4,9.6-7.6s4-12,4-20.4c0-11.6-3.6-20.8-10.8-28c-7.2-7.2-17.6-10.8-30.4-10.8  c-14,0-25.6,4.8-34.8,14.8c-9.2,9.6-14,21.6-14,35.6c0,13.6,4,24.4,12.4,32c8,8,19.6,11.6,34,11.6c10.8,0,21.2-2,30-6.4v14  c-8.4,3.6-19.2,5.2-32.4,5.2c-18,0-32.8-5.2-44-15.6s-16.8-24-16.8-41.6s6-32.8,18-44.8s27.6-18,46.4-18c17.6,0,31.6,4.8,42.8,14  c10.8,9.2,16.4,21.6,16.4,37.2c0,12.8-3.2,22.8-10,30.4S304,289.6,294,289.6c-4.8,0-8.8-1.2-11.6-4  C278.8,282.8,277.2,279.2,276.8,275.2z M267.2,236.4c-4.4,0-8,2.4-10.8,7.6c-2.8,5.2-4,10.8-4,17.2c0,4.8,0.8,8.4,2.8,10.8  c2,2.8,4.4,4,7.2,4c4.4,0,8-2.4,10.8-7.2c2.8-4.8,4-11.6,4-19.6c0-4-0.8-6.8-2.8-9.2S270,236.4,267.2,236.4z"/>
<g>
</g>
<g>
</g>
<g>
</g>
<g>
</g>
<g>
</g>
<g>
</g>
<g>
</g>
<g>
</g>
<g>
</g>
<g>
</g>
<g>
</g>
<g>
</g>
<g>
</g>
<g>
</g>
<g>
</g>
</svg>
