<?xml version="1.0" encoding="iso-8859-1"?>
<!-- Generator: Adobe Illustrator 19.0.0, SVG Export Plug-In . SVG Version: 6.00 Build 0)  -->
<svg xmlns="http://www.w3.org/2000/svg" xmlns:xlink="http://www.w3.org/1999/xlink" version="1.1" id="Layer_1" x="0px" y="0px" viewBox="0 0 512 512" style="enable-background:new 0 0 512 512;" xml:space="preserve">
<circle style="fill:#FFD05B;" cx="256" cy="256" r="256"/>
<path style="fill:#FFFFFF;" d="M261.2,82.8h-10c-8.4,0-14.8,6.8-14.8,14.8v333.6h40V98C276,89.6,269.2,82.8,261.2,82.8z"/>
<g>
	<path style="fill:#FF7058;" d="M426.8,154.8l-27.2-28.4c-1.6-2-4-2.8-6.8-2.8H220.4c-5.2,0-9.2,4-9.2,9.2v55.6c0,5.2,4,9.2,9.2,9.2   h172.8c2.4,0,4.8-1.2,6.8-2.8l26.8-27.6C430.4,164,430.4,158.4,426.8,154.8z"/>
	<path style="fill:#FF7058;" d="M89.6,254.8l27.2-28.4c1.6-2,4-2.8,6.8-2.8H296c5.2,0,9.2,4,9.2,9.2v55.6c0,5.2-4,9.2-9.2,9.2H123.2   c-2.4,0-4.8-1.2-6.8-2.8l-26.8-27.6C86,264,86,258.4,89.6,254.8z"/>
</g>
<path style="fill:#F9B54C;" d="M69.2,431.2C116,480.8,182.4,512,256,512s140-31.2,186.8-80.8H69.2z"/>
<g>
</g>
<g>
</g>
<g>
</g>
<g>
</g>
<g>
</g>
<g>
</g>
<g>
</g>
<g>
</g>
<g>
</g>
<g>
</g>
<g>
</g>
<g>
</g>
<g>
</g>
<g>
</g>
<g>
</g>
</svg>
