<?xml version="1.0" encoding="iso-8859-1"?>
<!-- Generator: Adobe Illustrator 19.0.0, SVG Export Plug-In . SVG Version: 6.00 Build 0)  -->
<svg xmlns="http://www.w3.org/2000/svg" xmlns:xlink="http://www.w3.org/1999/xlink" version="1.1" id="Layer_1" x="0px" y="0px" viewBox="0 0 508 508" style="enable-background:new 0 0 508 508;" xml:space="preserve">
<circle style="fill:#84DBFF;" cx="254" cy="254" r="254"/>
<path style="fill:#324A5E;" d="M379.6,120.8H128.4c-12.8,0-22.8,10.4-22.8,22.8v204.8c0,12.8,10.4,22.8,22.8,22.8h250.8  c12.8,0,22.8-10.4,22.8-22.8V143.6C402.4,130.8,392,120.8,379.6,120.8z"/>
<g>
	<rect x="105.6" y="170" style="fill:#FFFFFF;" width="296.8" height="152"/>
	<path style="fill:#FFFFFF;" d="M163.2,134h-19.6c-1.2,0-2,0.8-2,2v19.2c0,1.2,0.8,2,2,2h19.6c1.2,0,2-0.8,2-2V136   C165.2,134.8,164.4,134,163.2,134z"/>
	<path style="fill:#FFFFFF;" d="M213.6,134H194c-1.2,0-2,0.8-2,2v19.2c0,1.2,0.8,2,2,2h19.6c1.2,0,2-0.8,2-2V136   C215.6,134.8,214.4,134,213.6,134z"/>
	<path style="fill:#FFFFFF;" d="M263.6,134H244c-1.2,0-2,0.8-2,2v19.2c0,1.2,0.8,2,2,2h19.6c1.2,0,2-0.8,2-2V136   C265.6,134.8,264.8,134,263.6,134z"/>
	<path style="fill:#FFFFFF;" d="M314,134h-19.6c-1.2,0-2,0.8-2,2v19.2c0,1.2,0.8,2,2,2H314c1.2,0,2-0.8,2-2V136   C316,134.8,315.2,134,314,134z"/>
	<path style="fill:#FFFFFF;" d="M364.4,134h-19.6c-1.2,0-2,0.8-2,2v19.2c0,1.2,0.8,2,2,2h19.6c1.2,0,2-0.8,2-2V136   C366.4,134.8,365.2,134,364.4,134z"/>
	<path style="fill:#FFFFFF;" d="M163.2,335.2h-19.6c-1.2,0-2,0.8-2,2v19.2c0,1.2,0.8,2,2,2h19.6c1.2,0,2-0.8,2-2v-19.2   C165.2,336,164.4,335.2,163.2,335.2z"/>
	<path style="fill:#FFFFFF;" d="M213.6,335.2H194c-1.2,0-2,0.8-2,2v19.2c0,1.2,0.8,2,2,2h19.6c1.2,0,2-0.8,2-2v-19.2   C215.6,336,214.4,335.2,213.6,335.2z"/>
	<path style="fill:#FFFFFF;" d="M263.6,335.2H244c-1.2,0-2,0.8-2,2v19.2c0,1.2,0.8,2,2,2h19.6c1.2,0,2-0.8,2-2v-19.2   C265.6,336,264.8,335.2,263.6,335.2z"/>
	<path style="fill:#FFFFFF;" d="M314,335.2h-19.6c-1.2,0-2,0.8-2,2v19.2c0,1.2,0.8,2,2,2H314c1.2,0,2-0.8,2-2v-19.2   C316,336,315.2,335.2,314,335.2z"/>
	<path style="fill:#FFFFFF;" d="M364.4,335.2h-19.6c-1.2,0-2,0.8-2,2v19.2c0,1.2,0.8,2,2,2h19.6c1.2,0,2-0.8,2-2v-19.2   C366.4,336,365.2,335.2,364.4,335.2z"/>
</g>
<circle style="fill:#E6E9EE;" cx="254" cy="246" r="52"/>
<path style="fill:#FF7058;" d="M280.8,241.2l-33.6-27.6c-4-3.6-10.4-0.4-10.4,4.8v55.2c0,5.6,6.4,8.4,10.4,4.8l33.6-27.6  C284,248.4,284,243.6,280.8,241.2z"/>
<g>
</g>
<g>
</g>
<g>
</g>
<g>
</g>
<g>
</g>
<g>
</g>
<g>
</g>
<g>
</g>
<g>
</g>
<g>
</g>
<g>
</g>
<g>
</g>
<g>
</g>
<g>
</g>
<g>
</g>
</svg>
