<?xml version="1.0" encoding="iso-8859-1"?>
<!-- Generator: Adobe Illustrator 19.0.0, SVG Export Plug-In . SVG Version: 6.00 Build 0)  -->
<svg xmlns="http://www.w3.org/2000/svg" xmlns:xlink="http://www.w3.org/1999/xlink" version="1.1" id="Layer_1" x="0px" y="0px" viewBox="0 0 508 508" style="enable-background:new 0 0 508 508;" xml:space="preserve">
<circle style="fill:#90DFAA;" cx="254" cy="254" r="254"/>
<path style="fill:#324A5E;" d="M374.8,132.8H133.2c-7.6,0-14-6.4-14-14l0,0c0-7.6,6.4-14,14-14h242c7.6,0,14,6.4,14,14l0,0  C388.8,126.4,382.8,132.8,374.8,132.8z"/>
<path style="fill:#FFFFFF;" d="M272.8,270.4c-3.6-1.6-5.6-5.2-5.6-9.2s2.4-8,5.6-9.2c37.2-17.2,65.2-74.8,65.6-119.2H169.6  c0.4,44.4,28.4,102,65.6,118.8c3.6,1.6,5.6,5.2,5.6,9.2s-2.4,8-5.6,9.2c-37.2,17.2-65.2,74.8-65.6,119.2h169.2  C338,344.8,310,287.2,272.8,270.4z"/>
<g>
	<path style="fill:#FFD05B;" d="M240.4,238c6,2.8,10.4,8,12.8,14.4c0.4,1.2,0.8,36.8,0.8,38c0-0.8,0.4-36.8,0.8-37.6   c2-6.8,6.8-12,12.8-14.8c18-8.4,33.6-27.6,43.6-49.6H196.8C206.8,210.4,222.4,229.6,240.4,238z"/>
	<path style="fill:#FFD05B;" d="M321.2,360.8c-8-32-28-65.2-53.6-76.8c-7.2-3.2-12-10-13.6-18c-1.6,8-6.4,14.8-13.6,18   c-25.6,11.6-45.2,44.8-53.6,76.8H321.2z"/>
</g>
<path style="fill:#324A5E;" d="M374.8,403.2H133.2c-7.6,0-14-6.4-14-14l0,0c0-7.6,6.4-14,14-14h242c7.6,0,14,6.4,14,14l0,0  C388.8,397.2,382.8,403.2,374.8,403.2z"/>
<g>
	<rect x="352.4" y="132.8" style="fill:#FFFFFF;" width="17.6" height="242.8"/>
	<rect x="138.4" y="132.8" style="fill:#FFFFFF;" width="17.6" height="242.8"/>
</g>
<g>
</g>
<g>
</g>
<g>
</g>
<g>
</g>
<g>
</g>
<g>
</g>
<g>
</g>
<g>
</g>
<g>
</g>
<g>
</g>
<g>
</g>
<g>
</g>
<g>
</g>
<g>
</g>
<g>
</g>
</svg>
