<?xml version="1.0" encoding="iso-8859-1"?>
<!-- Generator: Adobe Illustrator 19.0.0, SVG Export Plug-In . SVG Version: 6.00 Build 0)  -->
<svg xmlns="http://www.w3.org/2000/svg" xmlns:xlink="http://www.w3.org/1999/xlink" version="1.1" id="Layer_1" x="0px" y="0px" viewBox="0 0 508 508" style="enable-background:new 0 0 508 508;" xml:space="preserve">
<circle style="fill:#324A5E;" cx="254" cy="254" r="254"/>
<rect x="346.77" y="163.232" transform="matrix(-0.7071 -0.7071 0.7071 -0.7071 478.7969 564.7872)" style="fill:#E6E9EE;" width="19.2" height="40"/>
<g>
	<path style="fill:#FFFFFF;" d="M386.4,174l-20.8-20.8c-0.8-0.8-2.4-0.8-3.6,0l-8,8c-0.8,0.8-0.8,2.4,0,3.6l20.8,20.8   c0.8,0.8,2.4,0.8,3.6,0l8.4-8.4C387.6,176.4,387.6,174.8,386.4,174z"/>
	<path style="fill:#FFFFFF;" d="M286,74h-64c-10.8,0-19.6,8.8-19.6,19.6v25.6c0,10.8,8.8,19.6,19.6,19.6h64   c10.8,0,19.6-8.8,19.6-19.6V93.6C305.6,82.8,296.8,74,286,74z M286.8,119.2c0,0.4-0.4,1.2-1.2,1.2H222c-0.4,0-1.2-0.4-1.2-1.2V93.6   c0-0.4,0.4-1.2,1.2-1.2h64c0.4,0,1.2,0.4,1.2,1.2v25.6H286.8z"/>
</g>
<path style="fill:#54C0EB;" d="M269.2,110.4h-30c-1.6,0-3.2,1.6-3.2,3.2v50.8h36.8v-50.8C272.4,112,270.8,110.4,269.2,110.4z"/>
<circle style="fill:#84DBFF;" cx="254" cy="292.4" r="141.6"/>
<path style="fill:#FFFFFF;" d="M254,411.6c-65.6,0-119.2-53.6-119.2-119.2S188.4,173.2,254,173.2s119.2,53.6,119.2,119.2  S319.6,411.6,254,411.6z"/>
<g>
	<rect x="249.2" y="186.4" style="fill:#E6E9EE;" width="9.6" height="20"/>
	<rect x="249.2" y="378" style="fill:#E6E9EE;" width="9.6" height="20"/>
	<rect x="339.6" y="287.6" style="fill:#E6E9EE;" width="20" height="9.6"/>
	<rect x="148" y="287.6" style="fill:#E6E9EE;" width="20" height="9.6"/>
	
		<rect x="316.954" y="214.369" transform="matrix(-0.7071 -0.7071 0.7071 -0.7071 390.6158 610.5363)" style="fill:#E6E9EE;" width="9.6" height="20"/>
	
		<rect x="181.567" y="350.072" transform="matrix(-0.7071 -0.7071 0.7071 -0.7071 63.5399 746.4628)" style="fill:#E6E9EE;" width="9.6" height="20"/>
	
		<rect x="316.972" y="349.887" transform="matrix(0.7071 -0.7071 0.7071 0.7071 -160.2339 332.9359)" style="fill:#E6E9EE;" width="9.6" height="20"/>
	
		<rect x="181.535" y="214.77" transform="matrix(0.7071 -0.7071 0.7071 0.7071 -104.3603 197.5924)" style="fill:#E6E9EE;" width="9.6" height="20"/>
</g>
<path style="fill:#324A5E;" d="M265.2,279.6L254,216.8l-11.2,62.4c-3.6,3.2-6,7.6-6,12.8c0,9.2,7.6,16.8,16.8,16.8  c9.2,0,16.8-7.6,16.8-16.8C270.8,287.2,268.8,282.8,265.2,279.6z"/>
<g>
</g>
<g>
</g>
<g>
</g>
<g>
</g>
<g>
</g>
<g>
</g>
<g>
</g>
<g>
</g>
<g>
</g>
<g>
</g>
<g>
</g>
<g>
</g>
<g>
</g>
<g>
</g>
<g>
</g>
</svg>
