<?xml version="1.0" encoding="iso-8859-1"?>
<!-- Generator: Adobe Illustrator 19.0.0, SVG Export Plug-In . SVG Version: 6.00 Build 0)  -->
<svg xmlns="http://www.w3.org/2000/svg" xmlns:xlink="http://www.w3.org/1999/xlink" version="1.1" id="Layer_1" x="0px" y="0px" viewBox="0 0 508 508" style="enable-background:new 0 0 508 508;" xml:space="preserve">
<circle style="fill:#84DBFF;" cx="254" cy="254" r="254"/>
<path style="fill:#324A5E;" d="M365.2,103.2H142.8c-19.6,0-35.6,16-35.6,35.6v230c0,19.6,16,35.6,35.6,35.6h222.4  c19.6,0,35.6-16,35.6-35.6V139.2C400.8,119.2,384.8,103.2,365.2,103.2z"/>
<path style="fill:#2B3B4E;" d="M400.8,203.2v-64c0-19.6-16-35.6-35.6-35.6H142.8c-19.6,0-35.6,16-35.6,35.6v64H400.8z"/>
<g>
	<path style="fill:#E6E9EE;" d="M348.8,127.2H159.2c-1.6,0-3.2,1.6-3.2,3.2v45.2c0,1.6,1.6,3.2,3.2,3.2h189.6c1.6,0,3.2-1.6,3.2-3.2   v-44.8C352,128.8,350.4,127.2,348.8,127.2z"/>
	<path style="fill:#E6E9EE;" d="M172.8,227.2h-30.4c-3.2,0-5.6,2.4-5.6,5.6V248c0,3.2,2.4,5.6,5.6,5.6h30.4c3.2,0,5.6-2.4,5.6-5.6   v-15.2C178.4,229.6,176,227.2,172.8,227.2z"/>
	<path style="fill:#E6E9EE;" d="M237.2,227.2h-30.4c-3.2,0-5.6,2.4-5.6,5.6V248c0,3.2,2.4,5.6,5.6,5.6h30.4c3.2,0,5.6-2.4,5.6-5.6   v-15.2C242.8,229.6,240.4,227.2,237.2,227.2z"/>
	<path style="fill:#E6E9EE;" d="M301.2,227.2h-30.4c-3.2,0-5.6,2.4-5.6,5.6V248c0,3.2,2.4,5.6,5.6,5.6h30.4c3.2,0,5.6-2.4,5.6-5.6   v-15.2C306.8,229.6,304.4,227.2,301.2,227.2z"/>
	<path style="fill:#E6E9EE;" d="M365.6,227.2h-30.4c-3.2,0-5.6,2.4-5.6,5.6V248c0,3.2,2.4,5.6,5.6,5.6h30.4c3.2,0,5.6-2.4,5.6-5.6   v-15.2C371.2,229.6,368.8,227.2,365.6,227.2z"/>
	<path style="fill:#E6E9EE;" d="M172.8,269.6h-30.4c-3.2,0-5.6,2.4-5.6,5.6V290c0,3.2,2.4,5.6,5.6,5.6h30.4c3.2,0,5.6-2.4,5.6-5.6   v-15.2C178.4,272,176,269.6,172.8,269.6z"/>
	<path style="fill:#E6E9EE;" d="M237.2,269.6h-30.4c-3.2,0-5.6,2.4-5.6,5.6V290c0,3.2,2.4,5.6,5.6,5.6h30.4c3.2,0,5.6-2.4,5.6-5.6   v-15.2C242.8,272,240.4,269.6,237.2,269.6z"/>
	<path style="fill:#E6E9EE;" d="M301.2,269.6h-30.4c-3.2,0-5.6,2.4-5.6,5.6V290c0,3.2,2.4,5.6,5.6,5.6h30.4c3.2,0,5.6-2.4,5.6-5.6   v-15.2C306.8,272,304.4,269.6,301.2,269.6z"/>
	<path style="fill:#E6E9EE;" d="M365.6,269.6h-30.4c-3.2,0-5.6,2.4-5.6,5.6V290c0,3.2,2.4,5.6,5.6,5.6h30.4c3.2,0,5.6-2.4,5.6-5.6   v-15.2C371.2,272,368.8,269.6,365.6,269.6z"/>
	<path style="fill:#E6E9EE;" d="M172.8,312h-30.4c-3.2,0-5.6,2.4-5.6,5.6v15.2c0,3.2,2.4,5.6,5.6,5.6h30.4c3.2,0,5.6-2.4,5.6-5.6   v-15.2C178.4,314.4,176,312,172.8,312z"/>
	<path style="fill:#E6E9EE;" d="M237.2,312h-30.4c-3.2,0-5.6,2.4-5.6,5.6v15.2c0,3.2,2.4,5.6,5.6,5.6h30.4c3.2,0,5.6-2.4,5.6-5.6   v-15.2C242.8,314.4,240.4,312,237.2,312z"/>
	<path style="fill:#E6E9EE;" d="M301.2,312h-30.4c-3.2,0-5.6,2.4-5.6,5.6v15.2c0,3.2,2.4,5.6,5.6,5.6h30.4c3.2,0,5.6-2.4,5.6-5.6   v-15.2C306.8,314.4,304.4,312,301.2,312z"/>
	<path style="fill:#E6E9EE;" d="M172.8,354.4h-30.4c-3.2,0-5.6,2.4-5.6,5.6v15.2c0,3.2,2.4,5.6,5.6,5.6h30.4c3.2,0,5.6-2.4,5.6-5.6   V360C178.4,357.2,176,354.4,172.8,354.4z"/>
	<path style="fill:#E6E9EE;" d="M237.2,354.4h-30.4c-3.2,0-5.6,2.4-5.6,5.6v15.2c0,3.2,2.4,5.6,5.6,5.6h30.4c3.2,0,5.6-2.4,5.6-5.6   V360C242.8,357.2,240.4,354.4,237.2,354.4z"/>
	<path style="fill:#E6E9EE;" d="M301.2,354.4h-30.4c-3.2,0-5.6,2.4-5.6,5.6v15.2c0,3.2,2.4,5.6,5.6,5.6h30.4c3.2,0,5.6-2.4,5.6-5.6   V360C306.8,357.2,304.4,354.4,301.2,354.4z"/>
</g>
<path style="fill:#FF7058;" d="M365.6,312h-30.4c-3.2,0-5.6,2.4-5.6,5.6v57.6c0,3.2,2.4,5.6,5.6,5.6h30.4c3.2,0,5.6-2.4,5.6-5.6  v-57.6C371.2,314.4,368.8,312,365.6,312z"/>
<g>
</g>
<g>
</g>
<g>
</g>
<g>
</g>
<g>
</g>
<g>
</g>
<g>
</g>
<g>
</g>
<g>
</g>
<g>
</g>
<g>
</g>
<g>
</g>
<g>
</g>
<g>
</g>
<g>
</g>
</svg>
