<?xml version="1.0" encoding="iso-8859-1"?>
<!-- Generator: Adobe Illustrator 19.0.0, SVG Export Plug-In . SVG Version: 6.00 Build 0)  -->
<svg xmlns="http://www.w3.org/2000/svg" xmlns:xlink="http://www.w3.org/1999/xlink" version="1.1" id="Layer_1" x="0px" y="0px" viewBox="0 0 508 508" style="enable-background:new 0 0 508 508;" xml:space="preserve">
<circle style="fill:#FD8469;" cx="254" cy="254" r="254"/>
<path style="fill:#2B3B4E;" d="M314,88.4c-21.2-10.4-46.8-2-57.2,19.2c-0.8,2-1.6,4-2.4,6c-0.8-2.4-1.6-4.4-2.4-6  c-10.4-21.2-36-29.6-57.2-19.2s-29.6,36-19.2,57.2c10.4,21.2,50,57.2,71.2,46.8c3.2-1.6,6-4.4,8-7.6c2,3.2,4.8,6,8,7.6  c21.2,10.4,60.4-25.6,71.2-46.8C343.6,124.8,334.8,99.2,314,88.4z M240,180.8c-12,6-36-17.6-42.8-30.8s-2.4-29.2,9.6-35.2  s27.2,0,34,13.2c2.8,6,5.2,15.6,6.4,24.8c0,3.2,0,6,0.4,8.8C247.6,170.4,245.2,178,240,180.8z M310.8,149.6  c-6.8,13.2-30.8,36.8-42.8,30.8c-5.2-2.4-7.2-10-7.6-18.8c0.4-2.8,0.4-6,0.4-8.8c0.8-9.6,3.2-19.2,6.4-24.8  c6.8-13.2,22-19.2,34-13.2C312.8,120.4,317.2,136.4,310.8,149.6z"/>
<path style="fill:#FFFFFF;" d="M393.6,154.8H114.4c-6.4,0-11.2,5.2-11.2,11.2v51.6c0,6.4,5.2,11.2,11.2,11.2h279.2  c6.4,0,11.2-5.2,11.2-11.2V166C405.2,160,400,154.8,393.6,154.8z"/>
<path style="fill:#E6E9EE;" d="M124,228.8v161.6c0,5.2,4.4,9.6,9.6,9.6h240.8c5.2,0,9.6-4.4,9.6-9.6V228.8H124z"/>
<rect x="123.2" y="260.8" style="fill:#2B3B4E;" width="260.4" height="32.8"/>
<rect x="237.6" y="154.8" style="fill:#324A5E;" width="32.8" height="245.2"/>
<g>
</g>
<g>
</g>
<g>
</g>
<g>
</g>
<g>
</g>
<g>
</g>
<g>
</g>
<g>
</g>
<g>
</g>
<g>
</g>
<g>
</g>
<g>
</g>
<g>
</g>
<g>
</g>
<g>
</g>
</svg>
