<?xml version="1.0" encoding="iso-8859-1"?>
<!-- Generator: Adobe Illustrator 19.0.0, SVG Export Plug-In . SVG Version: 6.00 Build 0)  -->
<svg xmlns="http://www.w3.org/2000/svg" xmlns:xlink="http://www.w3.org/1999/xlink" version="1.1" id="Layer_1" x="0px" y="0px" viewBox="0 0 508 508" style="enable-background:new 0 0 508 508;" xml:space="preserve">
<circle style="fill:#84DBFF;" cx="254" cy="254" r="254"/>
<path style="fill:#FFFFFF;" d="M408,222H100c-4,0-7.2,3.2-7.2,7.2v131.2c0,4,3.2,7.2,7.2,7.2h308.4c4,0,7.2-3.2,7.2-7.2V228.8  C415.2,224.8,412,222,408,222z"/>
<g>
	<path style="fill:#E6E9EE;" d="M130,236h-14c-2,0-3.6,1.6-3.6,3.6v14c0,2,1.6,3.6,3.6,3.6h14c2,0,3.6-1.6,3.6-3.6v-14   C133.6,237.6,132,236,130,236z"/>
	<path style="fill:#E6E9EE;" d="M167.6,236h-14c-2,0-3.6,1.6-3.6,3.6v14c0,2,1.6,3.6,3.6,3.6h14c2,0,3.6-1.6,3.6-3.6v-14   C171.2,237.6,169.6,236,167.6,236z"/>
	<path style="fill:#E6E9EE;" d="M204.8,236h-14c-2,0-3.6,1.6-3.6,3.6v14c0,2,1.6,3.6,3.6,3.6h14c2,0,3.6-1.6,3.6-3.6v-14   C208.4,237.6,206.8,236,204.8,236z"/>
	<path style="fill:#E6E9EE;" d="M242.4,236h-14c-2,0-3.6,1.6-3.6,3.6v14c0,2,1.6,3.6,3.6,3.6h14c2,0,3.6-1.6,3.6-3.6v-14   C246,237.6,244.4,236,242.4,236z"/>
	<path style="fill:#E6E9EE;" d="M279.6,236h-14c-2,0-3.6,1.6-3.6,3.6v14c0,2,1.6,3.6,3.6,3.6h14c2,0,3.6-1.6,3.6-3.6v-14   C283.2,237.6,281.6,236,279.6,236z"/>
</g>
<path style="fill:#FFD05B;" d="M317.2,236h-14c-2,0-3.6,1.6-3.6,3.6v14c0,2,1.6,3.6,3.6,3.6h14c2,0,3.6-1.6,3.6-3.6v-14  C320.8,237.6,319.2,236,317.2,236z"/>
<path style="fill:#FF7058;" d="M354.4,236h-14c-2,0-3.6,1.6-3.6,3.6v14c0,2,1.6,3.6,3.6,3.6h14c2,0,3.6-1.6,3.6-3.6v-14  C358,237.6,356.4,236,354.4,236z"/>
<path style="fill:#4CDBC4;" d="M392,236h-14c-2,0-3.6,1.6-3.6,3.6v14c0,2,1.6,3.6,3.6,3.6h14c2,0,3.6-1.6,3.6-3.6v-14  C395.6,237.6,394,236,392,236z"/>
<g>
	<path style="fill:#E6E9EE;" d="M130,268h-14c-2,0-3.6,1.6-3.6,3.6v14c0,2,1.6,3.6,3.6,3.6h14c2,0,3.6-1.6,3.6-3.6v-14   C133.6,269.6,132,268,130,268z"/>
	<path style="fill:#E6E9EE;" d="M167.6,268h-14c-2,0-3.6,1.6-3.6,3.6v14c0,2,1.6,3.6,3.6,3.6h14c2,0,3.6-1.6,3.6-3.6v-14   C171.2,269.6,169.6,268,167.6,268z"/>
	<path style="fill:#E6E9EE;" d="M204.8,268h-14c-2,0-3.6,1.6-3.6,3.6v14c0,2,1.6,3.6,3.6,3.6h14c2,0,3.6-1.6,3.6-3.6v-14   C208.4,269.6,206.8,268,204.8,268z"/>
	<path style="fill:#E6E9EE;" d="M242.4,268h-14c-2,0-3.6,1.6-3.6,3.6v14c0,2,1.6,3.6,3.6,3.6h14c2,0,3.6-1.6,3.6-3.6v-14   C246,269.6,244.4,268,242.4,268z"/>
	<path style="fill:#E6E9EE;" d="M279.6,268h-14c-2,0-3.6,1.6-3.6,3.6v14c0,2,1.6,3.6,3.6,3.6h14c2,0,3.6-1.6,3.6-3.6v-14   C283.2,269.6,281.6,268,279.6,268z"/>
	<path style="fill:#E6E9EE;" d="M317.2,268h-14c-2,0-3.6,1.6-3.6,3.6v14c0,2,1.6,3.6,3.6,3.6h14c2,0,3.6-1.6,3.6-3.6v-14   C320.8,269.6,319.2,268,317.2,268z"/>
	<path style="fill:#E6E9EE;" d="M354.4,268h-14c-2,0-3.6,1.6-3.6,3.6v14c0,2,1.6,3.6,3.6,3.6h14c2,0,3.6-1.6,3.6-3.6v-14   C358,269.6,356.4,268,354.4,268z"/>
	<path style="fill:#E6E9EE;" d="M392,268h-14c-2,0-3.6,1.6-3.6,3.6v14c0,2,1.6,3.6,3.6,3.6h14c2,0,3.6-1.6,3.6-3.6v-14   C395.6,269.6,394,268,392,268z"/>
	<path style="fill:#E6E9EE;" d="M130,300h-14c-2,0-3.6,1.6-3.6,3.6v14c0,2,1.6,3.6,3.6,3.6h14c2,0,3.6-1.6,3.6-3.6v-14   C133.6,301.6,132,300,130,300z"/>
	<path style="fill:#E6E9EE;" d="M167.6,300h-14c-2,0-3.6,1.6-3.6,3.6v14c0,2,1.6,3.6,3.6,3.6h14c2,0,3.6-1.6,3.6-3.6v-14   C171.2,301.6,169.6,300,167.6,300z"/>
	<path style="fill:#E6E9EE;" d="M204.8,300h-14c-2,0-3.6,1.6-3.6,3.6v14c0,2,1.6,3.6,3.6,3.6h14c2,0,3.6-1.6,3.6-3.6v-14   C208.4,301.6,206.8,300,204.8,300z"/>
	<path style="fill:#E6E9EE;" d="M242.4,300h-14c-2,0-3.6,1.6-3.6,3.6v14c0,2,1.6,3.6,3.6,3.6h14c2,0,3.6-1.6,3.6-3.6v-14   C246,301.6,244.4,300,242.4,300z"/>
	<path style="fill:#E6E9EE;" d="M279.6,300h-14c-2,0-3.6,1.6-3.6,3.6v14c0,2,1.6,3.6,3.6,3.6h14c2,0,3.6-1.6,3.6-3.6v-14   C283.2,301.6,281.6,300,279.6,300z"/>
	<path style="fill:#E6E9EE;" d="M317.2,300h-14c-2,0-3.6,1.6-3.6,3.6v14c0,2,1.6,3.6,3.6,3.6h14c2,0,3.6-1.6,3.6-3.6v-14   C320.8,301.6,319.2,300,317.2,300z"/>
	<path style="fill:#E6E9EE;" d="M354.4,300h-14c-2,0-3.6,1.6-3.6,3.6v14c0,2,1.6,3.6,3.6,3.6h14c2,0,3.6-1.6,3.6-3.6v-14   C358,301.6,356.4,300,354.4,300z"/>
	<path style="fill:#E6E9EE;" d="M392,300h-14c-2,0-3.6,1.6-3.6,3.6v14c0,2,1.6,3.6,3.6,3.6h14c2,0,3.6-1.6,3.6-3.6v-14   C395.6,301.6,394,300,392,300z"/>
	<path style="fill:#E6E9EE;" d="M130,332h-14c-2,0-3.6,1.6-3.6,3.6v14c0,2,1.6,3.6,3.6,3.6h14c2,0,3.6-1.6,3.6-3.6v-14   C133.6,333.6,132,332,130,332z"/>
	<path style="fill:#E6E9EE;" d="M279.6,332h-14c-2,0-3.6,1.6-3.6,3.6v14c0,2,1.6,3.6,3.6,3.6h14c2,0,3.6-1.6,3.6-3.6v-14   C283.2,333.6,281.6,332,279.6,332z"/>
	<path style="fill:#E6E9EE;" d="M317.2,332h-14c-2,0-3.6,1.6-3.6,3.6v14c0,2,1.6,3.6,3.6,3.6h14c2,0,3.6-1.6,3.6-3.6v-14   C320.8,333.6,319.2,332,317.2,332z"/>
	<path style="fill:#E6E9EE;" d="M354.4,332h-14c-2,0-3.6,1.6-3.6,3.6v14c0,2,1.6,3.6,3.6,3.6h14c2,0,3.6-1.6,3.6-3.6v-14   C358,333.6,356.4,332,354.4,332z"/>
	<path style="fill:#E6E9EE;" d="M392,332h-14c-2,0-3.6,1.6-3.6,3.6v14c0,2,1.6,3.6,3.6,3.6h14c2,0,3.6-1.6,3.6-3.6v-14   C395.6,333.6,394,332,392,332z"/>
	<path style="fill:#E6E9EE;" d="M242.4,332h-2h-85.2h-2c-2,0-3.6,1.6-3.6,3.6v14c0,2,1.6,3.6,3.6,3.6h2h85.2h2c2,0,3.6-1.6,3.6-3.6   v-14C246,333.6,244.4,332,242.4,332z"/>
</g>
<path style="fill:#324A5E;" d="M346,121.2H178.4c-12.4,0-22.8-10-22.8-22.8v-5.6H144v5.6c0,18.8,15.2,34,34,34h168  c12.4,0,22.8,10,22.8,22.8S358.4,178,346,178h-71.6c-18.8,0-34,15.2-34,34v10H252v-9.6c0-12.4,10-22.8,22.8-22.8H346  c18.8,0,34-15.2,34-34S364.8,121.2,346,121.2z"/>
<g>
</g>
<g>
</g>
<g>
</g>
<g>
</g>
<g>
</g>
<g>
</g>
<g>
</g>
<g>
</g>
<g>
</g>
<g>
</g>
<g>
</g>
<g>
</g>
<g>
</g>
<g>
</g>
<g>
</g>
</svg>
