<?xml version="1.0" encoding="iso-8859-1"?>
<!-- Generator: Adobe Illustrator 19.0.0, SVG Export Plug-In . SVG Version: 6.00 Build 0)  -->
<svg xmlns="http://www.w3.org/2000/svg" xmlns:xlink="http://www.w3.org/1999/xlink" version="1.1" id="Layer_1" x="0px" y="0px" viewBox="0 0 508 508" style="enable-background:new 0 0 508 508;" xml:space="preserve">
<circle style="fill:#FFD05B;" cx="254" cy="254" r="254"/>
<path style="fill:#FFFFFF;" d="M372.4,105.2H141.6c-17.2,0-31.2,14-31.2,31.2v145.2c0,17.2,14,31.2,31.2,31.2H166  c0,0-6,60.8-61.6,90c0,0,106.4-3.2,156.8-90h111.6c17.2,0,31.2-14,31.2-31.2V136.4C404,119.2,390,105.2,372.4,105.2z"/>
<g>
	<path style="fill:#4CDBC4;" d="M151.6,242.4v-16c2.8,2.4,6,4.4,9.6,5.6c3.6,1.2,6.8,2,10.4,2c2,0,4,0,5.2-0.4   c1.6-0.4,2.8-0.8,4-1.6s1.6-1.6,2.4-2.4c0.4-0.8,0.8-2,0.8-2.8c0-1.6-0.4-2.8-1.2-3.6c-0.8-1.2-2-2-3.2-3.2c-1.2-0.8-3.2-2-4.8-2.8   c-2-0.8-4-1.6-6-2.8c-5.6-2.4-10-5.2-12.4-8.4c-2.8-3.2-4-7.6-4-12.4c0-3.6,0.8-6.8,2.4-9.6c1.6-2.8,3.6-4.8,6-6.8   c2.4-1.6,5.6-3.2,9.2-4c3.6-0.8,7.2-1.2,10.8-1.2s7.2,0.4,10,0.8c2.8,0.4,5.6,1.2,8,2V190c-1.2-0.8-2.4-1.6-4-2.4   c-1.6-0.8-2.8-1.2-4.4-1.6c-1.6-0.4-3.2-0.8-4.4-0.8c-1.6-0.4-2.8-0.4-4.4-0.4c-2,0-3.6,0-5.2,0.4c-1.6,0.4-2.8,0.8-4,1.6   s-2,1.2-2.4,2.4c-0.4,0.8-0.8,2-0.8,2.8c0,1.2,0.4,2.4,0.8,3.2c0.8,0.8,1.6,2,2.8,2.8s2.4,1.6,4.4,2.4c1.6,0.8,3.6,1.6,5.6,2.4   c2.8,1.2,5.6,2.4,7.6,4c2.4,1.2,4.4,2.8,6,4.4c1.6,1.6,2.8,3.6,3.6,6c0.8,2,1.2,4.8,1.2,7.6c0,4-0.8,7.2-2.4,10s-3.6,4.8-6.4,6.8   c-2.8,1.6-5.6,2.8-9.2,3.6c-3.6,0.8-7.2,1.2-10.8,1.2c-4,0-7.6-0.4-11.2-1.2C157.2,244.8,154,244,151.6,242.4z"/>
	<path style="fill:#4CDBC4;" d="M294.4,245.2h-16V202c0-4.8,0.4-9.6,0.8-15.6h-0.4c-0.8,4.4-1.6,7.6-2.4,9.6l-16.8,48.8h-13.2   l-17.2-48.4c-0.4-1.2-1.2-4.8-2.4-10h-0.4c0.4,7.2,0.8,13.2,0.8,18.8v40h-14.8v-72H236l14.8,42.8c1.2,3.6,2,6.8,2.4,10.4h0.8   c0.8-4,2-7.6,2.8-10.4l14.8-42.4h23.2v71.6H294.4z"/>
	<path style="fill:#4CDBC4;" d="M307.6,242.4v-16c2.8,2.4,6,4.4,9.6,5.6c3.6,1.2,6.8,2,10.4,2c2,0,4,0,5.2-0.4   c1.6-0.4,2.8-0.8,4-1.6s1.6-1.6,2.4-2.4c0.4-0.8,0.8-2,0.8-2.8c0-1.6-0.4-2.8-1.2-3.6c-0.8-1.2-2-2-3.2-3.2c-1.2-0.8-3.2-2-4.8-2.8   c-2-0.8-4-1.6-6-2.8c-5.6-2.4-10-5.2-12.4-8.4c-2.8-3.2-4-7.6-4-12.4c0-3.6,0.8-6.8,2.4-9.6s3.6-4.8,6-6.8c2.4-1.6,5.6-3.2,9.2-4   s7.2-1.2,10.8-1.2c3.6,0,7.2,0.4,10,0.8c2.8,0.4,5.6,1.2,8,2V190c-1.2-0.8-2.4-1.6-4-2.4c-1.6-0.8-2.8-1.2-4.4-1.6   s-3.2-0.8-4.4-0.8c-1.6-0.4-2.8-0.4-4.4-0.4c-2,0-3.6,0-5.2,0.4s-2.8,0.8-4,1.6s-2,1.2-2.4,2.4c-0.4,0.8-0.8,2-0.8,2.8   c0,1.2,0.4,2.4,0.8,3.2c0.8,0.8,1.6,2,2.8,2.8c1.2,0.8,2.4,1.6,4.4,2.4c1.6,0.8,3.6,1.6,5.6,2.4c2.8,1.2,5.6,2.4,7.6,4   c2.4,1.2,4.4,2.8,6,4.4c1.6,1.6,2.8,3.6,3.6,6c0.8,2,1.2,4.8,1.2,7.6c0,4-0.8,7.2-2.4,10s-3.6,4.8-6.4,6.8   c-2.8,1.6-5.6,2.8-9.2,3.6s-7.2,1.2-10.8,1.2c-4,0-7.6-0.4-11.2-1.2S310.4,244,307.6,242.4z"/>
</g>
<g>
</g>
<g>
</g>
<g>
</g>
<g>
</g>
<g>
</g>
<g>
</g>
<g>
</g>
<g>
</g>
<g>
</g>
<g>
</g>
<g>
</g>
<g>
</g>
<g>
</g>
<g>
</g>
<g>
</g>
</svg>
