<?xml version="1.0" encoding="iso-8859-1"?>
<!-- Generator: Adobe Illustrator 19.0.0, SVG Export Plug-In . SVG Version: 6.00 Build 0)  -->
<svg xmlns="http://www.w3.org/2000/svg" xmlns:xlink="http://www.w3.org/1999/xlink" version="1.1" id="Layer_1" x="0px" y="0px" viewBox="0 0 508 508" style="enable-background:new 0 0 508 508;" xml:space="preserve">
<circle style="fill:#90DFAA;" cx="254" cy="254" r="254"/>
<path style="fill:#FFFFFF;" d="M407.6,271.6h-31.2c-2.4,0-4.4,2-4.4,4.4v63.2H136V276c0-2.4-2-4.4-4.4-4.4h-31.2  c-2.4,0-4.4,2-4.4,4.4v83.2c0,11.2,8.8,20,20,20h276.4c11.2,0,20-8.8,20-20V276C412.4,273.6,410.4,271.6,407.6,271.6z"/>
<g>
	<rect x="204" y="80.8" style="fill:#324A5E;" width="100.8" height="18.4"/>
	<rect x="204" y="115.6" style="fill:#324A5E;" width="100.8" height="32.8"/>
	<path style="fill:#324A5E;" d="M334.4,231.6l-74.8,74.8c-3.2,3.2-8,3.2-10.8,0l-75.2-74.8c-4.8-4.8-1.6-13.2,5.6-13.2H204v-54   h100.8v54h24C335.6,218.4,339.2,226.8,334.4,231.6z"/>
</g>
<g>
</g>
<g>
</g>
<g>
</g>
<g>
</g>
<g>
</g>
<g>
</g>
<g>
</g>
<g>
</g>
<g>
</g>
<g>
</g>
<g>
</g>
<g>
</g>
<g>
</g>
<g>
</g>
<g>
</g>
</svg>
