<?xml version="1.0" encoding="iso-8859-1"?>
<!-- Generator: Adobe Illustrator 19.0.0, SVG Export Plug-In . SVG Version: 6.00 Build 0)  -->
<svg xmlns="http://www.w3.org/2000/svg" xmlns:xlink="http://www.w3.org/1999/xlink" version="1.1" id="Layer_1" x="0px" y="0px" viewBox="0 0 508 508" style="enable-background:new 0 0 508 508;" xml:space="preserve">
<circle style="fill:#324A5E;" cx="254" cy="254" r="254"/>
<path style="fill:#FFFFFF;" d="M388,132.4H120c-8,0-14.4,6.4-14.4,14.4v214.4c0,8,6.4,14.4,14.4,14.4h268.4c8,0,14.4-6.4,14.4-14.4  V146.8C402.8,138.8,396,132.4,388,132.4z"/>
<rect x="122.4" y="149.6" style="fill:#E6E9EE;" width="262.8" height="208.8"/>
<path style="fill:#FF7058;" d="M203.2,270c1.2-26.8,23.6-48.4,50.8-48.4s49.2,21.6,50.8,48.4h40.8c-1.2-49.6-42-89.2-91.6-89.2  s-90.4,39.6-91.6,89.2H203.2z"/>
<path style="fill:#324A5E;" d="M262.8,302l-8.8-98l-8.8,98c-3.2,2.4-5.6,6.4-5.6,11.2c0,7.6,6.4,14,14,14c7.6,0,14-6.4,14-14  C268,308.8,266,304.8,262.8,302z"/>
<g>
</g>
<g>
</g>
<g>
</g>
<g>
</g>
<g>
</g>
<g>
</g>
<g>
</g>
<g>
</g>
<g>
</g>
<g>
</g>
<g>
</g>
<g>
</g>
<g>
</g>
<g>
</g>
<g>
</g>
</svg>
