<?xml version="1.0" encoding="iso-8859-1"?>
<!-- Generator: Adobe Illustrator 19.0.0, SVG Export Plug-In . SVG Version: 6.00 Build 0)  -->
<svg xmlns="http://www.w3.org/2000/svg" xmlns:xlink="http://www.w3.org/1999/xlink" version="1.1" id="Layer_1" x="0px" y="0px" viewBox="0 0 508 508" style="enable-background:new 0 0 508 508;" xml:space="preserve">
<circle style="fill:#FFD05B;" cx="254" cy="254" r="254"/>
<path style="fill:#324A5E;" d="M377.6,117.6H130.4c-9.2,0-16.8,7.6-16.8,16.8v176.8c0,9.2,7.6,16.8,16.8,16.8h247.2  c9.2,0,16.8-7.6,16.8-16.8V134.4C394.4,124.8,386.8,117.6,377.6,117.6z"/>
<rect x="134.4" y="138" style="fill:#FFFFFF;" width="239.6" height="168.8"/>
<path style="fill:#324A5E;" d="M286.8,343.6v8h-65.6v-8H92.8v12c0,10.8,8.8,19.2,19.2,19.2h284c10.8,0,19.2-8.8,19.2-19.2v-12H286.8  z"/>
<g>
	<path style="fill:#84DBFF;" d="M188,196.4l-2.8,2.8L200,214l2.8-2.8c28.4-28.4,74.4-28.4,102.8,0l2.8,2.8l14.8-14.8l-2.8-2.8   C283.6,160,224.4,160,188,196.4z"/>
	<path style="fill:#84DBFF;" d="M215.2,225.6l-2.8,2.8l14.8,14.8l2.8-2.8c13.2-13.2,35.2-13.2,48.4,0l2.8,2.8l14.8-14.8l-2.8-2.8   c-10.4-10.4-24-16-38.8-16C239.2,209.6,225.6,215.2,215.2,225.6z"/>
	<path style="fill:#84DBFF;" d="M243.2,249.6c-2.8,2.8-4.4,6.8-4.4,10.8c0,8.4,6.8,15.6,15.6,15.6c4,0,8-1.6,10.8-4.4   s4.4-6.8,4.4-10.8c0-8.4-6.8-15.6-15.6-15.6C250,245.2,246,246.8,243.2,249.6z"/>
</g>
<g>
</g>
<g>
</g>
<g>
</g>
<g>
</g>
<g>
</g>
<g>
</g>
<g>
</g>
<g>
</g>
<g>
</g>
<g>
</g>
<g>
</g>
<g>
</g>
<g>
</g>
<g>
</g>
<g>
</g>
</svg>
