<?xml version="1.0" encoding="iso-8859-1"?>
<!-- Generator: Adobe Illustrator 19.0.0, SVG Export Plug-In . SVG Version: 6.00 Build 0)  -->
<svg xmlns="http://www.w3.org/2000/svg" xmlns:xlink="http://www.w3.org/1999/xlink" version="1.1" id="Layer_1" x="0px" y="0px" viewBox="0 0 508 508" style="enable-background:new 0 0 508 508;" xml:space="preserve">
<circle style="fill:#84DBFF;" cx="254" cy="254" r="254"/>
<path style="fill:#324A5E;" d="M367.2,105.6H140.8c-8.4,0-15.2,6.8-15.2,15.2v265.6c0,8.4,6.8,15.2,15.2,15.2h226.4  c8.4,0,15.2-6.8,15.2-15.2V121.2C382.4,112.8,375.6,105.6,367.2,105.6z"/>
<g>
	<rect x="179.2" y="105.6" style="fill:#FFFFFF;" width="149.2" height="87.2"/>
	<rect x="160.4" y="274.4" style="fill:#FFFFFF;" width="187.2" height="128"/>
</g>
<g>
	<path style="fill:#E6E9EE;" d="M303.6,130.4h-19.2c-2,0-3.6,1.6-3.6,3.6v32c0,2,1.6,3.6,3.6,3.6h19.2c2,0,3.6-1.6,3.6-3.6v-31.6   C307.2,132.4,305.6,130.4,303.6,130.4z"/>
	<rect x="179.2" y="296" style="fill:#E6E9EE;" width="149.2" height="13.6"/>
	<rect x="179.2" y="331.6" style="fill:#E6E9EE;" width="149.2" height="13.6"/>
	<rect x="179.2" y="366.8" style="fill:#E6E9EE;" width="149.2" height="13.6"/>
</g>
<g>
</g>
<g>
</g>
<g>
</g>
<g>
</g>
<g>
</g>
<g>
</g>
<g>
</g>
<g>
</g>
<g>
</g>
<g>
</g>
<g>
</g>
<g>
</g>
<g>
</g>
<g>
</g>
<g>
</g>
</svg>
