<?xml version="1.0" encoding="iso-8859-1"?>
<!-- Generator: Adobe Illustrator 19.0.0, SVG Export Plug-In . SVG Version: 6.00 Build 0)  -->
<svg xmlns="http://www.w3.org/2000/svg" xmlns:xlink="http://www.w3.org/1999/xlink" version="1.1" id="Layer_1" x="0px" y="0px" viewBox="0 0 508 508" style="enable-background:new 0 0 508 508;" xml:space="preserve">
<circle style="fill:#324A5E;" cx="254" cy="254" r="254"/>
<path style="fill:#4CDBC4;" d="M170.4,146.8h-62.8c-4.4,0-8,3.6-8,8V370c0,4.4,3.6,8,8,8h62.8c4.4,0,8-3.6,8-8V154.8  C178.4,150.4,174.8,146.8,170.4,146.8z"/>
<circle style="fill:#E6E9EE;" cx="139.2" cy="189.2" r="21.2"/>
<circle style="fill:#2B3B4E;" cx="139.2" cy="189.2" r="13.2"/>
<path style="fill:#E6E9EE;" d="M156.8,239.6h-35.6c-3.2,0-5.6,2.4-5.6,5.6v110.4c0,3.2,2.4,5.6,5.6,5.6h35.6c3.2,0,5.6-2.4,5.6-5.6  V245.2C162.4,242.4,160,239.6,156.8,239.6z"/>
<g>
	<rect x="123.2" y="252.8" style="fill:#CED5E0;" width="31.6" height="6.8"/>
	<rect x="123.2" y="270.8" style="fill:#CED5E0;" width="31.6" height="6.8"/>
	<rect x="123.2" y="288.4" style="fill:#CED5E0;" width="31.6" height="6.8"/>
	<rect x="123.2" y="306" style="fill:#CED5E0;" width="31.6" height="6.8"/>
	<rect x="123.2" y="323.6" style="fill:#CED5E0;" width="31.6" height="6.8"/>
	<rect x="123.2" y="341.6" style="fill:#CED5E0;" width="31.6" height="6.8"/>
</g>
<path style="fill:#FFD05B;" d="M297.6,83.6h-80c-5.6,0-10,4.4-10,10v274c0,5.6,4.4,10,10,10h80c5.6,0,10-4.4,10-10V94  C307.6,88.4,303.2,83.6,297.6,83.6z"/>
<circle style="fill:#FFFFFF;" cx="257.6" cy="137.6" r="27.2"/>
<circle style="fill:#2B3B4E;" cx="257.6" cy="137.6" r="17.2"/>
<path style="fill:#FFFFFF;" d="M280.4,202h-45.6c-4,0-7.2,3.2-7.2,7.2V350c0,4,3.2,7.2,7.2,7.2h45.6c4,0,7.2-3.2,7.2-7.2V209.2  C287.6,205.2,284.4,202,280.4,202z"/>
<g>
	<rect x="237.6" y="218.8" style="fill:#CED5E0;" width="40" height="8.4"/>
	<rect x="237.6" y="241.2" style="fill:#CED5E0;" width="40" height="8.4"/>
	<rect x="237.6" y="264" style="fill:#CED5E0;" width="40" height="8.4"/>
	<rect x="237.6" y="286.4" style="fill:#CED5E0;" width="40" height="8.4"/>
	<rect x="237.6" y="308.8" style="fill:#CED5E0;" width="40" height="8.4"/>
	<rect x="237.6" y="331.6" style="fill:#CED5E0;" width="40" height="8.4"/>
</g>
<path style="fill:#FFFFFF;" d="M401.2,168.4H344c-4,0-7.2,3.2-7.2,7.2v195.2c0,4,3.2,7.2,7.2,7.2h56.8c4,0,7.2-3.2,7.2-7.2V175.6  C408.4,171.6,405.2,168.4,401.2,168.4z"/>
<circle style="fill:#E6E9EE;" cx="372.4" cy="206.8" r="19.2"/>
<circle style="fill:#2B3B4E;" cx="372.4" cy="206.8" r="12"/>
<path style="fill:#E6E9EE;" d="M388.8,252.8h-32.4c-2.8,0-4.8,2.4-4.8,4.8v100c0,2.8,2.4,4.8,4.8,4.8h32.4c2.8,0,4.8-2.4,4.8-4.8  v-100C393.6,254.8,391.6,252.8,388.8,252.8z"/>
<g>
	<rect x="358.4" y="264.8" style="fill:#CED5E0;" width="28.4" height="6"/>
	<rect x="358.4" y="280.8" style="fill:#CED5E0;" width="28.4" height="6"/>
	<rect x="358.4" y="296.8" style="fill:#CED5E0;" width="28.4" height="6"/>
	<rect x="358.4" y="312.8" style="fill:#CED5E0;" width="28.4" height="6"/>
	<rect x="358.4" y="328.8" style="fill:#CED5E0;" width="28.4" height="6"/>
	<rect x="358.4" y="344.8" style="fill:#CED5E0;" width="28.4" height="6"/>
</g>
<path style="fill:#2B3B4E;" d="M32.8,378.8C76.4,456,159.2,508,254,508s177.6-52,221.2-129.2H32.8z"/>
<g>
</g>
<g>
</g>
<g>
</g>
<g>
</g>
<g>
</g>
<g>
</g>
<g>
</g>
<g>
</g>
<g>
</g>
<g>
</g>
<g>
</g>
<g>
</g>
<g>
</g>
<g>
</g>
<g>
</g>
</svg>
