<?xml version="1.0" encoding="iso-8859-1"?>
<!-- Generator: Adobe Illustrator 19.0.0, SVG Export Plug-In . SVG Version: 6.00 Build 0)  -->
<svg xmlns="http://www.w3.org/2000/svg" xmlns:xlink="http://www.w3.org/1999/xlink" version="1.1" id="Layer_1" x="0px" y="0px" viewBox="0 0 508 508" style="enable-background:new 0 0 508 508;" xml:space="preserve">
<circle style="fill:#FFD05B;" cx="254" cy="254" r="254"/>
<path style="fill:#FFFFFF;" d="M295.2,136.4c-9.2-10.4-24.4-17.2-41.2-17.2s-32.4,6.8-41.2,17.2H295.2z"/>
<path style="fill:#2B3B4E;" d="M327.2,136.8H180.8c-6.4,0-10.4,7.2-8,14.8l28,83.6h106.4l28-83.6C337.6,144,333.6,136.8,327.2,136.8  z"/>
<path style="fill:#324A5E;" d="M200.8,235.2v188.4c0,7.6,6,13.6,13.6,13.6h79.2c7.6,0,13.6-6,13.6-13.6V235.2H200.8z"/>
<path style="fill:#E6E9EE;" d="M260.8,267.2h-14c-2.4,0-4.4,2-4.4,4.4v42c0,2.4,2,4.4,4.4,4.4h14c2.4,0,4.4-2,4.4-4.4v-42  C265.2,269.2,263.2,267.2,260.8,267.2z"/>
<g>
	<rect x="248.8" y="70.8" style="fill:#FFFFFF;" width="10.8" height="31.6"/>
	
		<rect x="298.949" y="84.303" transform="matrix(0.7071 0.7071 -0.7071 0.7071 159.9254 -185.8875)" style="fill:#FFFFFF;" width="10.8" height="31.6"/>
	
		<rect x="198.814" y="84.298" transform="matrix(-0.7071 0.7071 -0.7071 -0.7071 419.3942 26.4764)" style="fill:#FFFFFF;" width="10.8" height="31.6"/>
</g>
<g>
</g>
<g>
</g>
<g>
</g>
<g>
</g>
<g>
</g>
<g>
</g>
<g>
</g>
<g>
</g>
<g>
</g>
<g>
</g>
<g>
</g>
<g>
</g>
<g>
</g>
<g>
</g>
<g>
</g>
</svg>
