<?xml version="1.0" encoding="iso-8859-1"?>
<!-- Generator: Adobe Illustrator 19.0.0, SVG Export Plug-In . SVG Version: 6.00 Build 0)  -->
<svg xmlns="http://www.w3.org/2000/svg" xmlns:xlink="http://www.w3.org/1999/xlink" version="1.1" id="Layer_1" x="0px" y="0px" viewBox="0 0 508 508" style="enable-background:new 0 0 508 508;" xml:space="preserve">
<circle style="fill:#FD8469;" cx="254" cy="254" r="254"/>
<g>
	<path style="fill:#FFD05B;" d="M400,225.2h24.4c-12-72.4-69.2-129.2-141.6-141.6V108C341.6,119.6,388.4,166.4,400,225.2z"/>
	<path style="fill:#FFD05B;" d="M108,282.8H83.6c12,72.4,69.2,129.2,141.6,141.6V400C166.4,388.4,119.6,341.6,108,282.8z"/>
	<path style="fill:#FFD05B;" d="M225.2,108V83.6C152.8,95.6,96,152.8,83.6,225.2H108C119.6,166.4,166.4,119.6,225.2,108z"/>
	<path style="fill:#FFD05B;" d="M282.8,400v24.4c72.4-12,129.2-69.2,141.6-141.6H400C388.4,341.6,341.6,388.4,282.8,400z"/>
</g>
<g>
	<path style="fill:#324A5E;" d="M282.8,150.8V176c22.8,8.4,40.8,26.4,49.2,49.2h25.2C347.2,189.2,318.8,160.8,282.8,150.8z"/>
	<path style="fill:#324A5E;" d="M150.8,225.2H176c8.4-22.8,26.4-40.8,49.2-49.2v-25.2C189.2,160.8,160.8,189.2,150.8,225.2z"/>
	<path style="fill:#324A5E;" d="M357.2,282.8H332c-8.4,22.8-26.4,40.8-49.2,49.2v25.2C318.8,347.2,347.2,318.8,357.2,282.8z"/>
	<path style="fill:#324A5E;" d="M225.2,357.2V332c-22.8-8.4-40.8-26.4-49.2-49.2h-25.2C160.8,318.8,189.2,347.2,225.2,357.2z"/>
</g>
<path style="fill:#FFFFFF;" d="M453.6,241.2H291.2c-4-11.6-13.2-20.4-24.4-24.4V54.4h-25.6v162.4c-11.6,4-20.4,13.2-24.4,24.4H54.4  v25.6h162.4c4,11.6,13.2,20.4,24.4,24.4v162.4h25.6V291.2c11.6-4,20.4-13.2,24.4-24.4h162.4L453.6,241.2L453.6,241.2z"/>
<g>
</g>
<g>
</g>
<g>
</g>
<g>
</g>
<g>
</g>
<g>
</g>
<g>
</g>
<g>
</g>
<g>
</g>
<g>
</g>
<g>
</g>
<g>
</g>
<g>
</g>
<g>
</g>
<g>
</g>
</svg>
