<?xml version="1.0" encoding="iso-8859-1"?>
<!-- Generator: Adobe Illustrator 19.0.0, SVG Export Plug-In . SVG Version: 6.00 Build 0)  -->
<svg xmlns="http://www.w3.org/2000/svg" xmlns:xlink="http://www.w3.org/1999/xlink" version="1.1" id="Layer_1" x="0px" y="0px" viewBox="0 0 508 508" style="enable-background:new 0 0 508 508;" xml:space="preserve">
<circle style="fill:#FFD05B;" cx="254" cy="254" r="254"/>
<path style="fill:#324A5E;" d="M337.6,380.4L232.4,66.8c-0.8-5.2-5.6-9.2-10.8-9.6c-4,0-7.6,2-9.6,5.2c-2.4,3.6-2.4,6.8-1.6,9.6  c-36.8,15.6-66.8,43.6-84.8,79.6c-20,40-23.2,85.6-8.8,128c20,59.6,70.8,102,131.2,112v39.2h-23.2c-10.8,0-20,8.8-20,20h106  c0-10.8-8.8-20-20-20h-23.2v-37.2c2.4,0,5.2,0,7.6,0c14,0,27.6-1.6,41.2-5.2c1.6,5.2,7.2,8.8,13.6,7.6c3.6-0.8,6.4-3.6,8-6.8  C339.2,386,338.8,382.8,337.6,380.4z M275.6,374c-63.6,0-119.6-40.4-140-100.8c-12.4-37.2-9.6-77.6,7.6-112.8  c16-32.4,42.8-57.2,76-70.8l93.6,279.2C300.8,372.4,288,374,275.6,374z"/>
<circle style="fill:#FFFFFF;" cx="275.6" cy="226.4" r="124.8"/>
<g>
	<path style="fill:#54C0EB;" d="M358,141.6c-2.4,0-4.4,0-6.8-0.4c-4.4-0.8-8.8-3.6-13.2-3.6c-4.8,0-9.2,3.6-11.2,8.8   c-2.8,1.6-5.6-1.6-8.4-2.4c-2-0.4-4.4,0.8-6.4,1.6c-6,2.4-12,3.2-18.4,2c-5.2-1.2-11.6-3.2-15.2,1.6c-1.2,1.6-2,3.6-3.6,4.4   c-1.6,0.8-3.6,1.2-4,2.8c-0.4,4,8,1.6,7.2,5.6c2,0,3.6,0,5.6,0c0-2-0.4-4-0.4-6c2.4-0.4,6,0,6,2.8c0,1.2-0.8,2.4-1.6,3.2   c-2.4,2.8-5.2,4.4-8.4,4.8c-3.2,0.4-6.4-0.4-9.6,0s-6.8,2.4-7.6,6c-0.4,2-0.4,4.4-1.6,5.6c-2,2-5.6,0-6.4,2.8   c-0.4,1.6,0.8,3.6,2.4,4c2.4,1.2,4.8,1.2,7.2,0.4c0.4-1.6,0.8-3.6,1.2-5.2c4.4,2.8,10-7.2,14-3.6c1.6,1.2,2.8,3.2,3.2,5.6   c2,0.4,4,0.8,6,1.2c0.4-1.2,0.4-2.8,0.4-4c1.6,0,3.2,0,5.2,0c0-1.6,0-2.8,0-4.4c5.2-2,11.2,2.4,12.8,8.4c-4.8,0.8-9.6,1.6-14.8,2.4   c1.2,3.6,5.6,3.6,8.8,3.2c1.6,2.4-0.8,6-3.2,6.8c-2.4,0.8-4.8,0-7.6,0c-3.6,0.4-7.2,2.4-10.8,1.6c-3.2-0.8-5.2-3.6-8.4-4.8   c-4.4-1.6-8.8,0.8-12.8,3.2c-0.8,1.2-0.8,2.4-0.4,3.6c-4.8,2.4-10.4,5.6-11.6,12c-0.8,4.8,0.8,9.2,2.8,13.6c1.2,2.4,2.4,4.8,4,6.4   c4.8,4.8,12,4,18,3.2c2.8,6.4,6,13.2,5.6,20.8c0,2.4-0.8,4.8-0.4,7.6c0,2.4,1.2,4.4,1.6,6.4c0.8,1.6,1.2,3.6,2,5.2   c2,5.6,3.6,11.6,3.6,18c2.4,0,4.8,0,7.6,0c1.6-2,3.6-3.6,5.2-5.6c0.8-0.8,1.6-2,2-3.2s-0.4-3.2-1.2-3.2c3.2-0.8,5.2-6,3.6-9.2   c4,0.4,6-5.2,6-10s-1.2-9.6,0.4-13.6c1.2-2.4,2.8-4,4.4-6c2.8-3.2,5.2-7.2,7.2-11.2c0.4-0.4,0.4-1.2,0.4-1.6c0-1.6-2-1.6-3.2-0.8   s-2,1.6-3.2,1.6c-1.2-0.4-2-2-2.8-3.2c-3.6-7.6-11.2-13.2-12.4-22c1.2-0.4,2.8-0.4,4-0.8c2.8,5.2,6,10.4,8.8,15.6   c1.2,2.4,3.6,4.8,5.6,3.2c0.8-2.4,3.2-3.6,5.2-2.8c0.4-3.2,5.2-3.6,5.6-7.2c0.4-2.4-2-4.4-4-4.4s-4,0.8-6.4,0.4   c0.4-1.2,0.4-2.8,0.4-4c-1.2-0.8-2.4-1.2-3.6-0.8c0-2.8,3.2-4.4,4.8-3.2c0.8,0.8,1.2,1.6,2,2.4c4,4.4,10.4,0.8,15.2,4   c1.6,0.8,2.8,2.4,3.6,4c3.6,5.6,6.8,12,8.4,18.8c0.8,0,1.6,0,2.4,0c0-6.8,3.6-13.6,8.8-16.4c0.4-0.8,0.4-1.2,0.8-2   c3.2-1.2,6,2,8.4,4.4c1.2,1.2,2.4,2.8,3.6,4c0,0.8,0.4,1.6,0.4,2.4c3.2,0,6,3.2,6,6.8c0.8-0.4,1.6-0.4,2.4-0.8c1.2-0.4,2-2.4,1.6-4   s-1.2-2.8-2-4c-1.2-2-2.8-3.6-4-5.6c2.4-2,5.6-2.8,8.4-2.4c-0.4-1.2,1.2-2,2.4-2.4c2.4-0.8,4.4-4,4-7.2s-2.4-5.6-5.2-6   c-2-3.2-2.4-8-0.4-11.2c1.6-2.4,4.8-3.2,7.2-1.6c-4.4-16-13.2-30-24-42C364.4,142,361.2,141.6,358,141.6z"/>
	<path style="fill:#54C0EB;" d="M162.8,222c0.4,2,1.2,3.6,2.4,4.8c2,2,5.2,2.4,7.6,3.6c2.8,1.2,5.2,3.6,5.2,6.8   c0,2.8-2.4,4.8-3.2,7.6c-1.6,4.8,0.8,10.4,4,13.6c3.2,3.6,7.2,6.4,8.8,11.2c0.8,2,0.8,4.4,0.8,6.8c0.4,8.4,0.8,17.2,1.6,25.6   c0.4,4,0.4,8,2,11.2c1.2,3.6,4,6.4,7.2,6.8c-0.4-4-0.8-8.4-1.6-12.4c0-1.6-0.4-3.2,0-4.8c0.4-1.6,2-2.8,3.2-2   c-0.8-2,0.8-4.4,2.4-4.4c0-1.6-1.2-3.2-2.4-4c0.8-1.6,2.4-2.8,3.6-2.8c0,1.6,2,2.4,3.2,1.6c1.2-1.2,1.6-2.8,1.6-4.8   c0-1.6-0.4-3.6,0.4-5.2c0.8-2.8,3.2-4,5.6-5.2c2-4.8,4-9.6,6.4-14.4c0.8-1.6,1.6-3.6,1.6-5.6c0-4-3.6-6.4-6.4-7.6   c-3.2-1.2-6.4-2.8-8-6c-0.4-1.2-0.8-2.8-1.6-4s-1.6-1.6-2.8-2.4c-3.2-2-6.8-4.4-10-6.4c-2-1.2-4-2.8-6.4-3.2s-4.8,0-7.2,0.4   c-1.2,2.8-4,4.4-6.4,3.2s-4-4.4-3.6-7.2c0-0.8,0.4-2,0-2.8c-0.4-0.4-0.8-0.8-1.2-0.8c-1.2-0.4-2.4-0.8-4-1.6c0.4-2,0.8-4,0.8-6   c-0.8-0.8-2.4-0.8-3.2,0c0,1.2,0,2.4,0,3.6c-2,0-4.4,0-6.4,0c0.4-2.4,0-4.8-0.8-6.4c0.8-8,8.8-13.6,14.8-10.8   c0.4,4,3.6,7.6,7.2,7.6c2-2-2-6.4-0.4-8.8c0.4-0.8,1.6-1.2,2.4-2c0.8-0.8,1.2-1.6,1.6-2.4c3.2-6.4,8.4-10.8,14.4-12.4   c2.4-0.8,5.6-2,4.8-4.8c0-0.4-0.4-1.2-0.4-1.6c0-1.2,0.8-2.4,2-2.8c1.2-0.4,2,0,3.2,0.4c-0.4,3.6,3.2,6.4,6,4.8   c1.6-3.2-4-7.6-2-10.4c-1.2-0.4-2.4-0.8-3.6-1.6c0-1.6-0.4-3.2-0.4-4.4c-0.8,0.4-2,0-2.8-0.4c-0.4-1.2-0.4-2.4-0.8-3.6   c-2.4,0-4.8,0-7.2,0c0.4,3.2,0.4,7.2-2,8.4c-0.8,0.4-1.6,0.4-2.4,0.4c-1.6,0-2.8,0-4.4,0c-1.2,0-2.4,0-3.2-0.8   c-0.8-1.6-1.2-4-0.4-5.6c0.8-1.6,2.4-2.4,3.6-1.6c-0.4-3.2,2.4-5.2,4.8-5.6c2.4-0.4,5.2,0,7.6-1.2c-0.8-4-5.2-4.4-8.4-3.6   c-3.2,0.8-6.8,2.8-9.6,0.8l-0.4-0.4c-15.6,18.8-26,42.4-28.4,68C154,218.8,158.4,221.6,162.8,222z"/>
	<path style="fill:#54C0EB;" d="M388.8,268.4c-0.8-1.2-2.8-1.2-2.8,0.4c0,0.8,0.4,1.2,0.4,2c0,2.4-2.8,2.8-4.4,2   c-1.6-1.6,0-5.2-1.2-7.2c-1.2-1.6-3.6,0-5.6-0.8c-0.4,1.6-0.8,2.8-1.2,4.4c-2.4-0.8-5.2-0.8-7.2,0.4c-2,1.6-3.6,5.2-2,7.6   c-4-0.4-8.4-0.4-11.6,2.8c-1.6,1.6-2.8,3.6-2.8,6c-0.4,4,2.4,8,1.6,12.4c4,1.2,8.4-1.2,12.4-2.4c4-1.2,9.2-1.6,11.6,2.4   c0.4,0.4,0.4,1.2,0.8,1.6c5.6-8,10.4-16.4,14.4-25.2c-1.2-0.8-1.2-1.6-1.2-2C389.6,271.2,389.6,269.6,388.8,268.4z"/>
	<path style="fill:#54C0EB;" d="M312.8,262.8c-0.4,1.6-0.8,3.6-1.2,5.2c0,0.4-0.4,1.2-0.4,1.6c-0.4,2-0.4,3.6-0.4,5.6   c0,1.6,0,3.2,1.2,4.4c1.2,0.8,3.2-0.4,3.6-2s0.4-3.6,0-5.2s-0.4-3.6,0.4-5.2s2.4-3.2,1.6-4.8C316,262,314.4,262,312.8,262.8z"/>
	<path style="fill:#54C0EB;" d="M387.6,238c0,0.4,0,0.4,0,0.8c0,0.4-0.4,0.4-0.4,0.4c-0.8,0.4-2,0.8-2.8,1.2c0,1.6-0.4,3.2,0,4.4   c0.4,1.6,2,2.8,3.2,2.8c1.6,0,2.8-0.4,4.4-0.8c0.4,0,0.8-0.4,1.2-0.8c0.8-0.8,0.8-2.4,0.4-3.6c-0.4-1.2-0.8-2.4-0.8-3.6   c0.4-1.2,0.8-2,1.2-2.8c0.4-0.8,0-2.4-0.8-2.4c-0.4,0-0.8,0.4-1.2,0.8c-0.8,0.4-1.6,0-2.4,0.4C388,234.8,387.6,236.4,387.6,238z"/>
</g>
<g>
</g>
<g>
</g>
<g>
</g>
<g>
</g>
<g>
</g>
<g>
</g>
<g>
</g>
<g>
</g>
<g>
</g>
<g>
</g>
<g>
</g>
<g>
</g>
<g>
</g>
<g>
</g>
<g>
</g>
</svg>
