<?xml version="1.0" encoding="iso-8859-1"?>
<!-- Generator: Adobe Illustrator 19.0.0, SVG Export Plug-In . SVG Version: 6.00 Build 0)  -->
<svg xmlns="http://www.w3.org/2000/svg" xmlns:xlink="http://www.w3.org/1999/xlink" version="1.1" id="Layer_1" x="0px" y="0px" viewBox="0 0 508 508" style="enable-background:new 0 0 508 508;" xml:space="preserve">
<circle style="fill:#324A5E;" cx="254" cy="254" r="254"/>
<polygon style="fill:#FFFFFF;" points="197.6,96.4 372,96.4 372,403.6 120,403.6 120,173.6 "/>
<polygon style="fill:#E6E9EE;" points="197.6,173.6 120,173.6 197.6,96.4 "/>
<g>
	<path style="fill:#4CDBC4;" d="M262,331.6h-26.8l-8-24.4H188l-7.6,24.4h-26.8l40-109.6h29.2L262,331.6z M221.6,288.4L210,251.6   c-0.8-2.8-1.6-6-2-10h-0.8c-0.4,3.2-0.8,6.4-2,9.6l-12,37.2H221.6z"/>
	<path style="fill:#4CDBC4;" d="M338.4,331.6h-22.8v-11.2h-0.4c-5.2,8.8-13.2,13.2-23.2,13.2c-7.6,0-13.6-2-18-6.4s-6.4-10-6.4-17.2   c0-15.2,9.2-24,27.2-26.4l21.2-2.8c0-8.4-4.8-12.8-14-12.8s-18.4,2.8-26.8,8.4V258c3.2-1.6,8-3.2,14-4.4c6-1.2,11.2-2,16-2   c22.4,0,33.6,11.2,33.6,33.6v46.4H338.4z M315.6,300v-5.2l-14.4,2c-8,1.2-11.6,4.4-11.6,10.8c0,2.8,0.8,5.2,2.8,6.8   c2,1.6,4.4,2.8,7.6,2.8c4.4,0,8.4-1.6,11.2-4.8S315.6,304.8,315.6,300z"/>
</g>
<g>
</g>
<g>
</g>
<g>
</g>
<g>
</g>
<g>
</g>
<g>
</g>
<g>
</g>
<g>
</g>
<g>
</g>
<g>
</g>
<g>
</g>
<g>
</g>
<g>
</g>
<g>
</g>
<g>
</g>
</svg>
