<?xml version="1.0" encoding="iso-8859-1"?>
<!-- Generator: Adobe Illustrator 19.0.0, SVG Export Plug-In . SVG Version: 6.00 Build 0)  -->
<svg xmlns="http://www.w3.org/2000/svg" xmlns:xlink="http://www.w3.org/1999/xlink" version="1.1" id="Layer_1" x="0px" y="0px" viewBox="0 0 508 508" style="enable-background:new 0 0 508 508;" xml:space="preserve">
<circle style="fill:#90DFAA;" cx="254" cy="254" r="254"/>
<path style="fill:#324A5E;" d="M170.8,158.4v232.4c0,18.4,14.8,33.2,33.2,33.2h100.4c18.4,0,33.2-14.8,33.2-33.2V158.4H170.8z"/>
<rect x="188" y="84.4" style="fill:#FFFFFF;" width="132" height="74"/>
<g>
	<rect x="214" y="98.8" style="fill:#CED5E0;" width="18.4" height="25.2"/>
	<rect x="275.6" y="98.8" style="fill:#CED5E0;" width="18.4" height="25.2"/>
</g>
<path style="fill:#E6E9EE;" d="M297.2,228h-25.6v25.6h7.2v15.6l-19.6,24v-76h12l-18-21.6l-18,21.6h12v105.6l-18.8-23.2V282  c4-2,6.8-6.4,6.8-10.8c0-6.8-5.6-12.4-12.4-12.4c-6.8,0-12.4,5.6-12.4,12.4c0,4.8,2.8,9.2,6.8,11.2V304l30.4,37.2v17.6  c-5.2,2.4-8.8,7.2-8.8,13.2c0,8,6.4,14.8,14.8,14.8s14.8-6.4,14.8-14.8c0-6.4-4-11.6-9.2-13.6v-47.2l31.2-38v-19.6h7.2V228H297.2z"/>
<g>
</g>
<g>
</g>
<g>
</g>
<g>
</g>
<g>
</g>
<g>
</g>
<g>
</g>
<g>
</g>
<g>
</g>
<g>
</g>
<g>
</g>
<g>
</g>
<g>
</g>
<g>
</g>
<g>
</g>
</svg>
