<?xml version="1.0" encoding="iso-8859-1"?>
<!-- Generator: Adobe Illustrator 19.0.0, SVG Export Plug-In . SVG Version: 6.00 Build 0)  -->
<svg xmlns="http://www.w3.org/2000/svg" xmlns:xlink="http://www.w3.org/1999/xlink" version="1.1" id="Layer_1" x="0px" y="0px" viewBox="0 0 508 508" style="enable-background:new 0 0 508 508;" xml:space="preserve">
<circle style="fill:#FD8469;" cx="254" cy="254" r="254"/>
<path style="fill:#E6E9EE;" d="M389.6,120.8H284.8c-6,0-11.2,4.8-11.2,11.2v234c0,6,4.8,11.2,11.2,11.2h104.8  c6,0,11.2-4.8,11.2-11.2V132C400.8,126,395.6,120.8,389.6,120.8z"/>
<g>
	<rect x="293.2" y="138.8" style="fill:#324A5E;" width="88" height="29.6"/>
	<rect x="293.2" y="182.4" style="fill:#324A5E;" width="88" height="29.6"/>
	<rect x="293.2" y="226" style="fill:#324A5E;" width="88" height="29.6"/>
</g>
<path style="fill:#FFFFFF;" d="M295.6,177.2H86c-5.6,0-10.4,4.8-10.4,10.4v151.6c0,5.6,4.8,10.4,10.4,10.4h209.6  c5.6,0,10.4-4.8,10.4-10.4v-152C306,181.6,301.2,177.2,295.6,177.2z"/>
<rect x="96.8" y="198" style="fill:#54C0EB;" width="188" height="106.8"/>
<rect x="156.4" y="349.2" style="fill:#E6E9EE;" width="68.4" height="21.6"/>
<rect x="132.4" y="370.8" style="fill:#FFFFFF;" width="116.4" height="16"/>
<g>
	<circle style="fill:#324A5E;" cx="190.8" cy="327.2" r="6.4"/>
	<circle style="fill:#324A5E;" cx="337.2" cy="306.8" r="11.2"/>
</g>
<g>
</g>
<g>
</g>
<g>
</g>
<g>
</g>
<g>
</g>
<g>
</g>
<g>
</g>
<g>
</g>
<g>
</g>
<g>
</g>
<g>
</g>
<g>
</g>
<g>
</g>
<g>
</g>
<g>
</g>
</svg>
