<?xml version="1.0" encoding="iso-8859-1"?>
<!-- Generator: Adobe Illustrator 19.0.0, SVG Export Plug-In . SVG Version: 6.00 Build 0)  -->
<svg xmlns="http://www.w3.org/2000/svg" xmlns:xlink="http://www.w3.org/1999/xlink" version="1.1" id="Layer_1" x="0px" y="0px" viewBox="0 0 508 508" style="enable-background:new 0 0 508 508;" xml:space="preserve">
<circle style="fill:#84DBFF;" cx="254" cy="254" r="254"/>
<rect x="222" y="152.4" style="fill:#324A5E;" width="67.2" height="78.8"/>
<g>
	<path style="fill:#FFFFFF;" d="M370.8,104.4l-81.6,48v78.8l81.6,48c3.6,2,7.6-0.4,7.6-4.4v-166   C378.8,104.8,374.4,102.4,370.8,104.4z"/>
	<path style="fill:#FFFFFF;" d="M140,104.4c-3.6-2-7.6,0.4-7.6,4.4v165.6c0,4,4.4,6.4,7.6,4.4l81.6-48v-78.4L140,104.4z"/>
</g>
<g>
	<path style="fill:#E6E9EE;" d="M375.6,289.6L375.6,289.6c-5.6,0-10-4.4-10-10v-176c0-5.6,4.4-10,10-10l0,0c5.6,0,10,4.4,10,10   v175.6C386,285.2,381.2,289.6,375.6,289.6z"/>
	<path style="fill:#E6E9EE;" d="M132.4,289.6L132.4,289.6c-5.6,0-10-4.4-10-10v-176c0-5.6,4.4-10,10-10l0,0c5.6,0,10,4.4,10,10   v175.6C142.4,285.2,138,289.6,132.4,289.6z"/>
</g>
<rect x="241.6" y="230.8" style="fill:#2B3B4E;" width="24.8" height="148"/>
<path style="fill:#54C0EB;" d="M32.4,378C76,455.6,158.8,508,254,508s178-52.4,221.6-130H32.4z"/>
<g>
</g>
<g>
</g>
<g>
</g>
<g>
</g>
<g>
</g>
<g>
</g>
<g>
</g>
<g>
</g>
<g>
</g>
<g>
</g>
<g>
</g>
<g>
</g>
<g>
</g>
<g>
</g>
<g>
</g>
</svg>
