<?xml version="1.0" encoding="iso-8859-1"?>
<!-- Generator: Adobe Illustrator 19.0.0, SVG Export Plug-In . SVG Version: 6.00 Build 0)  -->
<svg xmlns="http://www.w3.org/2000/svg" xmlns:xlink="http://www.w3.org/1999/xlink" version="1.1" id="Layer_1" x="0px" y="0px" viewBox="0 0 508 508" style="enable-background:new 0 0 508 508;" xml:space="preserve">
<circle style="fill:#FF7058;" cx="254" cy="254" r="254"/>
<rect x="126.4" y="109.6" style="fill:#FFFFFF;" width="255.6" height="288.8"/>
<rect x="150" y="243.2" style="fill:#84DBFF;" width="81.2" height="90.4"/>
<rect x="150" y="134" style="fill:#CED5E0;" width="208.8" height="90.8"/>
<g>
	<rect x="244" y="243.2" style="fill:#E6E9EE;" width="115.2" height="13.6"/>
	<rect x="244" y="282" style="fill:#E6E9EE;" width="115.2" height="13.6"/>
	<rect x="244" y="320.8" style="fill:#E6E9EE;" width="115.2" height="13.6"/>
	<rect x="148.8" y="359.6" style="fill:#E6E9EE;" width="210" height="13.6"/>
</g>
<path style="fill:#324A5E;" d="M204,269.6c0-11.2-5.2-14-12.4-14.4c-6.8,0.4-12.4,3.2-12.4,14.4c0,16-17.6,14.4,12.4,14.4  C221.2,284,204,285.6,204,269.6z"/>
<ellipse style="fill:#FFD05B;" cx="191.6" cy="276.8" rx="8.8" ry="12.4"/>
<g>
	<path style="fill:#324A5E;" d="M187.6,270.4c0.4-1.2,0.4-2,0.4-3.2c-1.6,2.8-3.6,4.8-6,6.4c-0.4-2.4,0-5.2,1.2-7.6s3.6-4,6.4-4.8   c2.8-0.8,5.6-0.4,8,1.2c0.4,0,0.4,0.4,0.4,0.8v0.4c-0.8,0.8-1.2,2-2,2.8c-0.4,0.4-0.8,1.2-1.2,1.6c-0.8,0.8-2,1.6-3.2,2   c0.4-1.2,0.8-2.4,0.8-3.6C192,268.4,189.6,269.6,187.6,270.4z"/>
	<path style="fill:#324A5E;" d="M200.8,265.6c-0.4-0.8-0.8-1.6-1.2-2.4c-1.2-1.2-3.2-1.6-4.4-0.8c-0.4,0.4-0.8,0.8-0.8,1.2   c0,0.4,0,0.4,0.4,0.8c0.8,2,1.6,3.6,2.8,5.2s3.2,3.2,4.4,4.8C202.4,272,202,268.8,200.8,265.6z"/>
	<path style="fill:#324A5E;" d="M214,298.4c-0.8-4.8-4.8-8.4-9.6-8.4h-3.2c-0.4,5.2-4.4,9.2-9.6,9.2c-5.2,0-9.6-4-9.6-9.2h-3.2   c-4.8,0-8.8,3.6-9.6,8.4l-3.2,23.2h51.6L214,298.4z"/>
</g>
<g>
	<path style="fill:#FFFFFF;" d="M209.2,200h-9.6l-16.8-26c-1.2-1.6-1.6-2.8-2-3.6l0,0c0,1.6,0.4,3.6,0.4,6.8V200h-8.8v-41.2h9.6   l16.4,25.2c0.8,1.2,1.6,2.4,2,3.2l0,0c0-0.8-0.4-2.8-0.4-5.6v-22.8h8.8V200H209.2z"/>
	<path style="fill:#FFFFFF;" d="M243.6,200h-24.8v-41.2h24v7.6h-14.4v9.2H242v7.6h-13.6v9.6H244v7.2H243.6z"/>
	<path style="fill:#FFFFFF;" d="M304.4,158.8L293.6,200h-10.4l-6.8-26.4c-0.4-1.2-0.4-2.8-0.8-4.8l0,0c0,2-0.4,3.6-0.8,4.8   l-7.2,26.4h-10.8L246,158.8h10l6,27.6c0.4,1.2,0.4,2.8,0.4,4.8l0,0c0-1.6,0.4-3.2,0.8-4.8l7.6-27.6h10l6.8,27.6   c0.4,1.2,0.4,2.4,0.8,4.4l0,0c0-1.6,0.4-3.2,0.8-4.8l5.6-27.6h9.6V158.8z"/>
	<path style="fill:#FFFFFF;" d="M307.6,198.4v-9.2c1.6,1.6,3.6,2.4,5.6,3.2s4,1.2,6,1.2c1.2,0,2,0,3.2-0.4c0.8-0.4,1.6-0.4,2-0.8   c0.4-0.4,1.2-0.8,1.2-1.2c0.4-0.8,0.4-1.2,0.4-2s-0.4-1.6-0.8-2c-0.4-0.8-1.2-1.2-2-1.6c-0.8-0.4-1.6-1.2-2.8-1.6   c-1.2-0.4-2.4-1.2-3.6-1.6c-3.2-1.2-5.6-2.8-7.2-4.8s-2.4-4.4-2.4-7.2c0-2,0.4-4,1.2-5.6c0.8-1.6,2-2.8,3.6-4s3.2-1.6,5.2-2.4   c2-0.4,4-0.8,6.4-0.8c2,0,4,0,5.6,0.4s3.2,0.8,4.8,1.2v8.8c-0.8-0.4-1.6-0.8-2.4-1.2s-1.6-0.8-2.4-0.8c-0.8-0.4-1.6-0.4-2.4-0.4   s-1.6,0-2.4,0c-1.2,0-2,0-2.8,0.4s-1.6,0.4-2,0.8c-0.4,0.4-1.2,0.8-1.2,1.2s-0.4,1.2-0.4,1.6c0,0.8,0,1.2,0.4,2   c0.4,0.4,0.8,1.2,1.6,1.6c0.8,0.4,1.6,0.8,2.4,1.6c0.8,0.4,2,0.8,3.2,1.6c1.6,0.8,3.2,1.6,4.4,2.4c1.2,0.8,2.4,1.6,3.2,2.8   c0.8,0.8,1.6,2,2,3.2s0.8,2.8,0.8,4.4c0,2.4-0.4,4.4-1.2,6c-0.8,1.6-2,2.8-3.6,4c-1.6,0.8-3.2,1.6-5.2,2s-4,0.8-6.4,0.8   s-4.4,0-6.4-0.4C310.8,200,309.2,199.2,307.6,198.4z"/>
</g>
<g>
</g>
<g>
</g>
<g>
</g>
<g>
</g>
<g>
</g>
<g>
</g>
<g>
</g>
<g>
</g>
<g>
</g>
<g>
</g>
<g>
</g>
<g>
</g>
<g>
</g>
<g>
</g>
<g>
</g>
</svg>
