<?xml version="1.0" encoding="iso-8859-1"?>
<!-- Generator: Adobe Illustrator 19.0.0, SVG Export Plug-In . SVG Version: 6.00 Build 0)  -->
<svg xmlns="http://www.w3.org/2000/svg" xmlns:xlink="http://www.w3.org/1999/xlink" version="1.1" id="Layer_1" x="0px" y="0px" viewBox="0 0 508 508" style="enable-background:new 0 0 508 508;" xml:space="preserve">
<circle style="fill:#84DBFF;" cx="254" cy="254" r="254"/>
<path style="fill:#FFFFFF;" d="M359.2,106.8l-167.6,42.8c-3.2,0.8-5.6,3.6-5.6,6.8v167.2c-6-1.6-12.4-2.8-18.8-2.8  c-29.2,0-52.8,18-52.8,40.4s23.6,40.4,52.8,40.4c28,0,50.8-16.8,52.8-37.6l0,0V220l114-29.2v84.4c-6-1.6-12.4-2.8-18.8-2.8  c-29.2,0-52.8,18-52.8,40.4s23.6,40.4,52.8,40.4c28,0,50.8-16.8,52.8-37.6l0,0v-202C368.4,108.8,364,105.6,359.2,106.8z"/>
<g>
</g>
<g>
</g>
<g>
</g>
<g>
</g>
<g>
</g>
<g>
</g>
<g>
</g>
<g>
</g>
<g>
</g>
<g>
</g>
<g>
</g>
<g>
</g>
<g>
</g>
<g>
</g>
<g>
</g>
</svg>
