<?xml version="1.0" encoding="iso-8859-1"?>
<!-- Generator: Adobe Illustrator 19.0.0, SVG Export Plug-In . SVG Version: 6.00 Build 0)  -->
<svg xmlns="http://www.w3.org/2000/svg" xmlns:xlink="http://www.w3.org/1999/xlink" version="1.1" id="Layer_1" x="0px" y="0px" viewBox="0 0 508 508" style="enable-background:new 0 0 508 508;" xml:space="preserve">
<circle style="fill:#FFD05B;" cx="254" cy="254" r="254"/>
<path style="fill:#FFFFFF;" d="M356.8,194.8c-14-14.4-36-16.4-52.8-5.6c-14.4,9.2-31.6,14.8-50,14.8s-35.6-5.2-50-14.8  c-16.8-10.8-38.8-8.4-52.8,5.6c-25.2,25.6-53.6,168.8-45.6,186.8c9.2,20,35.2,25.2,51.2,10c20.8-20,66-60,97.2-60s76.8,40,97.2,60  c16,15.6,42,10.4,51.2-10C410.4,363.6,382,220.4,356.8,194.8z"/>
<g>
	<circle style="fill:#4CDBC4;" cx="295.2" cy="258.4" r="10"/>
	<circle style="fill:#4CDBC4;" cx="337.6" cy="258.4" r="10"/>
</g>
<g>
	<circle style="fill:#324A5E;" cx="316.4" cy="237.2" r="10"/>
	<circle style="fill:#324A5E;" cx="316.4" cy="279.6" r="10"/>
</g>
<path style="fill:#FF7058;" d="M207.2,250.8h-14.8V236c0-4-3.2-7.2-7.2-7.2S178,232,178,236v14.8h-14.8c-4,0-7.2,3.2-7.2,7.2  s3.2,7.2,7.2,7.2H178V280c0,4,3.2,7.2,7.2,7.2s7.2-3.2,7.2-7.2v-14.8h14.8c4,0,7.2-3.2,7.2-7.2S211.2,250.8,207.2,250.8z"/>
<path style="fill:#324A5E;" d="M260,203.6h-12V178c0-17.2,14-31.2,31.2-31.2H346c10.8,0,19.2-8.8,19.2-19.2  c0-10.8-8.8-19.2-19.2-19.2H210.4c-17.2,0-31.2-14-31.2-31.2v-8.8h12v8.8c0,10.8,8.8,19.2,19.2,19.2H346c17.2,0,31.2,14,31.2,31.2  s-14,31.2-31.2,31.2h-66.8c-10.8,0-19.2,8.8-19.2,19.2V203.6z"/>
<g>
</g>
<g>
</g>
<g>
</g>
<g>
</g>
<g>
</g>
<g>
</g>
<g>
</g>
<g>
</g>
<g>
</g>
<g>
</g>
<g>
</g>
<g>
</g>
<g>
</g>
<g>
</g>
<g>
</g>
</svg>
