<?xml version="1.0" encoding="iso-8859-1"?>
<!-- Generator: Adobe Illustrator 19.0.0, SVG Export Plug-In . SVG Version: 6.00 Build 0)  -->
<svg xmlns="http://www.w3.org/2000/svg" xmlns:xlink="http://www.w3.org/1999/xlink" version="1.1" id="Layer_1" x="0px" y="0px" viewBox="0 0 508 508" style="enable-background:new 0 0 508 508;" xml:space="preserve">
<circle style="fill:#90DFAA;" cx="254" cy="254" r="254"/>
<path style="fill:#324A5E;" d="M390.8,135.2H117.2c-4.8,0-8.4,3.6-8.4,8.4v210.8c0,4.8,3.6,8.4,8.4,8.4h273.6c4.8,0,8.4-3.6,8.4-8.4  V143.6C399.2,138.8,395.6,135.2,390.8,135.2z"/>
<rect x="134" y="160" style="fill:#54C0EB;" width="240.4" height="149.6"/>
<path style="fill:#324A5E;" d="M332.4,401.2H175.6c-1.6,0-3.2,1.2-3.2,3.2v13.2c0,1.6,1.2,3.2,3.2,3.2h156.8c1.6,0,3.2-1.2,3.2-3.2  v-13.2C335.6,402.4,334,401.2,332.4,401.2z"/>
<g>
	<rect x="199.2" y="362.8" style="fill:#2B3B4E;" width="110" height="38.4"/>
	<circle style="fill:#2B3B4E;" cx="254" cy="336" r="9.6"/>
</g>
<path style="fill:#FFFFFF;" d="M333.2,87.6h-174c-4.8,0-8.4,3.6-8.4,8.4v149.2c0,4.8,3.6,8.4,8.4,8.4h173.6c4.8,0,8.4-3.6,8.4-8.4  V96C341.6,91.6,337.6,87.6,333.2,87.6z"/>
<path style="fill:#FF7058;" d="M341.6,124.8V96c0-4.8-3.6-8.4-8.4-8.4h-174c-4.8,0-8.4,3.6-8.4,8.4v28.8H341.6z"/>
<g>
	<circle style="fill:#FFFFFF;" cx="320" cy="106.4" r="6.8"/>
	<circle style="fill:#FFFFFF;" cx="296.4" cy="106.4" r="6.8"/>
	<circle style="fill:#FFFFFF;" cx="272.8" cy="106.4" r="6.8"/>
</g>
<path style="fill:#324A5E;" d="M214.8,168.4c0-11.2-5.2-14-12.4-14.4c-6.8,0.4-12.4,3.2-12.4,14.4c0,16-17.6,14.4,12.4,14.4  C232.4,182.8,214.8,184.4,214.8,168.4z"/>
<ellipse style="fill:#FFD05B;" cx="202.4" cy="175.6" rx="8.8" ry="12.4"/>
<g>
	<path style="fill:#324A5E;" d="M198.4,169.6c0.4-1.2,0.4-2,0.4-3.2c-1.6,2.8-3.6,4.8-6,6.4c-0.4-2.4,0-5.2,1.2-7.6   c1.2-2.4,3.6-4,6.4-4.8c2.8-0.8,5.6-0.4,8,1.2c0.4,0,0.4,0.4,0.4,0.8v0.4c-0.8,0.8-1.2,2-2,2.8c-0.4,0.4-0.8,1.2-1.2,1.6   c-0.8,0.8-2,1.6-3.2,2c0.4-1.2,0.8-2.4,0.8-3.6C202.8,167.6,200.4,168.4,198.4,169.6z"/>
	<path style="fill:#324A5E;" d="M211.6,164.8c-0.4-0.8-0.8-1.6-1.2-2.4c-1.2-1.2-3.2-1.6-4.4-0.8c-0.4,0.4-0.8,0.8-0.8,1.2   s0,0.4,0.4,0.8c0.8,2,1.6,3.6,2.8,5.2c1.2,1.6,3.2,3.2,4.4,4.8C213.2,170.8,212.8,167.6,211.6,164.8z"/>
	<path style="fill:#324A5E;" d="M225.2,197.2c-0.8-4.8-4.8-8.4-9.6-8.4h-3.2c-0.4,5.2-4.4,9.2-9.6,9.2c-5.2,0-9.6-4-9.6-9.2H190   c-4.8,0-8.8,3.6-9.6,8.4l-3.2,23.2h51.6L225.2,197.2z"/>
</g>
<g>
	<rect x="247.2" y="160" style="fill:#E6E9EE;" width="68.8" height="10"/>
	<rect x="247.2" y="182.4" style="fill:#E6E9EE;" width="68.8" height="10"/>
	<rect x="247.2" y="204.8" style="fill:#E6E9EE;" width="68.8" height="10"/>
</g>
<g>
</g>
<g>
</g>
<g>
</g>
<g>
</g>
<g>
</g>
<g>
</g>
<g>
</g>
<g>
</g>
<g>
</g>
<g>
</g>
<g>
</g>
<g>
</g>
<g>
</g>
<g>
</g>
<g>
</g>
</svg>
