<?xml version="1.0" encoding="iso-8859-1"?>
<!-- Generator: Adobe Illustrator 19.0.0, SVG Export Plug-In . SVG Version: 6.00 Build 0)  -->
<svg xmlns="http://www.w3.org/2000/svg" xmlns:xlink="http://www.w3.org/1999/xlink" version="1.1" id="Layer_1" x="0px" y="0px" viewBox="0 0 508 508" style="enable-background:new 0 0 508 508;" xml:space="preserve">
<circle style="fill:#FD8469;" cx="254" cy="254" r="254"/>
<path style="fill:#F1543F;" d="M50.8,406.4C97.2,468,170.8,508,254,508s156.8-40,203.2-101.6H50.8z"/>
<path style="fill:#324A5E;" d="M342,85.6H166c-16.8,0-30.4,13.6-30.4,30.4v165.6c0,16.8,13.6,30.4,30.4,30.4h176  c16.8,0,30.4-13.6,30.4-30.4v-166C372.4,99.2,358.8,85.6,342,85.6z"/>
<circle style="fill:#E6E9EE;" cx="254" cy="198.8" r="62.8"/>
<circle style="fill:#54C0EB;" cx="254" cy="198.8" r="43.6"/>
<rect x="232.8" y="312" style="fill:#2B3B4E;" width="42.8" height="52.8"/>
<polygon style="fill:#324A5E;" points="289.2,353.2 289.2,331.6 218.8,331.6 218.8,353.2 128,368.8 128,406.8 380,406.8 380,368.8   "/>
<g>
	<circle style="fill:#FFFFFF;" cx="224.8" cy="171.6" r="12"/>
	<circle style="fill:#FFFFFF;" cx="245.2" cy="188.8" r="8.4"/>
</g>
<circle style="fill:#FFD05B;" cx="176.4" cy="124.4" r="11.6"/>
<g>
</g>
<g>
</g>
<g>
</g>
<g>
</g>
<g>
</g>
<g>
</g>
<g>
</g>
<g>
</g>
<g>
</g>
<g>
</g>
<g>
</g>
<g>
</g>
<g>
</g>
<g>
</g>
<g>
</g>
</svg>
