<?xml version="1.0" encoding="iso-8859-1"?>
<!-- Generator: Adobe Illustrator 19.0.0, SVG Export Plug-In . SVG Version: 6.00 Build 0)  -->
<svg xmlns="http://www.w3.org/2000/svg" xmlns:xlink="http://www.w3.org/1999/xlink" version="1.1" id="Layer_1" x="0px" y="0px" viewBox="0 0 508 508" style="enable-background:new 0 0 508 508;" xml:space="preserve">
<circle style="fill:#84DBFF;" cx="254" cy="254" r="254"/>
<path style="fill:#324A5E;" d="M402.8,139.2H105.2c-3.2,0-6,2.8-6,6l-9.6,212c0,3.6,2.4,6.8,6,6.8h132.8  c0.4,7.2,11.6,12.8,25.6,12.8s25.2-5.6,25.6-12.8h132.8c3.6,0,6-3.2,6-6.8l-9.6-212C408.8,141.6,406,139.2,402.8,139.2z"/>
<path style="fill:#FFFFFF;" d="M400,341.2c-47.6-18-99.2-18-146,0c0-74,0-144.8,0-212.8c44.4-16,92.8-16,137.6,0  C394.4,196.4,397.2,267.2,400,341.2z"/>
<g>
	<path style="fill:#E6E9EE;" d="M376.8,156c-35.2-9.6-72-9.6-107.2,0c0-3.2,0-6.4,0-9.6c34.8-9.6,71.6-9.6,106.8,0   C376.4,149.6,376.8,152.8,376.8,156z"/>
	<path style="fill:#E6E9EE;" d="M378,192c-35.6-9.6-72.8-9.6-108,0c0-3.2,0-6.4,0-9.6c35.2-9.6,72.4-9.6,108,0   C378,185.2,378,188.8,378,192z"/>
	<path style="fill:#E6E9EE;" d="M379.2,228.8c-36-10-73.6-10-109.2,0c0-3.2,0-6.8,0-10c35.6-10,73.2-10,108.8,0   C379.2,222,379.2,225.2,379.2,228.8z"/>
	<path style="fill:#E6E9EE;" d="M380.8,266.4c-36.4-10-74.4-10-110.4,0c0-3.6,0-6.8,0-10c36-10,73.6-10,110,0   C380.4,259.6,380.4,262.8,380.8,266.4z"/>
	<path style="fill:#E6E9EE;" d="M382,304.8c-36.8-10.4-75.2-10.4-111.6,0c0-3.6,0-6.8,0-10.4c36.4-10.4,74.4-10.4,111.2,0   C381.6,297.6,382,301.2,382,304.8z"/>
	<path style="fill:#E6E9EE;" d="M254,341.2c-46.8-18-98.4-18-146,0c2.8-74,5.6-144.8,8.4-212.8c44.8-16,93.2-16,137.6,0   C254,196.4,254,267.2,254,341.2z"/>
</g>
<g>
	<path style="fill:#CED5E0;" d="M238,156c-34.8-9.6-71.6-9.6-107.2,0c0-3.2,0.4-6.4,0.4-9.6c35.2-9.6,72-9.6,106.8,0   C238,149.6,238,152.8,238,156z"/>
	<path style="fill:#CED5E0;" d="M238,192c-35.2-9.6-72.4-9.6-108,0c0-3.2,0.4-6.4,0.4-9.6c35.6-9.6,72.8-9.6,108,0   C238,185.2,238,188.8,238,192z"/>
	<path style="fill:#CED5E0;" d="M237.6,228.8c-35.6-10-73.2-10-109.2,0c0-3.2,0.4-6.8,0.4-10c36-10,73.6-10,108.8,0   C237.6,222,237.6,225.2,237.6,228.8z"/>
	<path style="fill:#CED5E0;" d="M237.6,266.4c-36-10-74-10-110.4,0c0-3.6,0.4-6.8,0.4-10c36.4-10,74-10,110,0   C237.6,259.6,237.6,262.8,237.6,266.4z"/>
	<path style="fill:#CED5E0;" d="M237.6,304.8c-36.4-10.4-74.8-10.4-111.6,0c0-3.6,0.4-6.8,0.4-10.4c36.8-10.4,74.8-10.4,111.2,0   C237.6,297.6,237.6,301.2,237.6,304.8z"/>
</g>
<g>
</g>
<g>
</g>
<g>
</g>
<g>
</g>
<g>
</g>
<g>
</g>
<g>
</g>
<g>
</g>
<g>
</g>
<g>
</g>
<g>
</g>
<g>
</g>
<g>
</g>
<g>
</g>
<g>
</g>
</svg>
