<?xml version="1.0" encoding="iso-8859-1"?>
<!-- Generator: Adobe Illustrator 19.0.0, SVG Export Plug-In . SVG Version: 6.00 Build 0)  -->
<svg xmlns="http://www.w3.org/2000/svg" xmlns:xlink="http://www.w3.org/1999/xlink" version="1.1" id="Layer_1" x="0px" y="0px" viewBox="0 0 508 508" style="enable-background:new 0 0 508 508;" xml:space="preserve">
<circle style="fill:#84DBFF;" cx="254" cy="254" r="254"/>
<path style="fill:#324A5E;" d="M358,113.6H150c-7.6,0-14,6.4-14,14V386c0,7.6,6.4,14,14,14h208c7.6,0,14-6.4,14-14V127.6  C371.6,119.6,365.6,113.6,358,113.6z"/>
<rect x="160" y="137.2" style="fill:#FFFFFF;" width="188" height="238.8"/>
<path style="fill:#FF7058;" d="M295.2,108.4h-18.8V75.6c0-4-3.2-7.2-7.2-7.2h-30c-4,0-7.2,3.2-7.2,7.2v32.8h-18.8  c-4,0-7.2,3.2-7.2,7.2v39.2h96.8v-39.2C302.4,112,299.2,108.4,295.2,108.4z M254,95.6c-4,0-7.2-3.2-7.2-7.2s3.2-7.2,7.2-7.2  s7.2,3.2,7.2,7.2S258,95.6,254,95.6z"/>
<polygon style="fill:#FFD05B;" points="272.8,273.6 255.6,259.6 230,280.8 215.6,268.8 191.6,288.4 191.6,343.2 310.4,343.2   310.4,242.8 "/>
<g>
	<path style="fill:#324A5E;" d="M191.6,290.4c-0.4,0-1.2-0.4-1.6-0.8c-0.8-0.8-0.4-2,0.4-2.8l24-19.6c0.8-0.8,1.6-0.8,2.4,0L230,278   l24.4-20c0.8-0.8,1.6-0.8,2.4,0l16,13.2l36.4-30c0.8-0.8,2-0.4,2.8,0.4c0.8,0.8,0.4,2-0.4,2.8L274,275.6c-0.8,0.8-1.6,0.8-2.4,0   l-16-13.2l-24.4,20c-0.8,0.8-1.6,0.8-2.4,0l-13.2-11.2L192.8,290C192.4,290.4,192,290.4,191.6,290.4z"/>
	<polygon style="fill:#324A5E;" points="327.2,346.4 319.2,338.4 319.2,343.2 191.6,343.2 191.6,217.2 196.8,217.2 188.8,209.2    180.8,217.2 186,217.2 186,343.2 186,349.2 191.6,349.2 319.2,349.2 319.2,354.4  "/>
</g>
<g>
	<circle style="fill:#FF7058;" cx="215.6" cy="270.4" r="6"/>
	<circle style="fill:#FF7058;" cx="230" cy="280" r="6"/>
	<circle style="fill:#FF7058;" cx="256" cy="259.6" r="6"/>
	<circle style="fill:#FF7058;" cx="273.2" cy="274" r="6"/>
	<circle style="fill:#FF7058;" cx="310.4" cy="242.8" r="6"/>
</g>
<g>
</g>
<g>
</g>
<g>
</g>
<g>
</g>
<g>
</g>
<g>
</g>
<g>
</g>
<g>
</g>
<g>
</g>
<g>
</g>
<g>
</g>
<g>
</g>
<g>
</g>
<g>
</g>
<g>
</g>
</svg>
