<?xml version="1.0" encoding="iso-8859-1"?>
<!-- Generator: Adobe Illustrator 19.0.0, SVG Export Plug-In . SVG Version: 6.00 Build 0)  -->
<svg xmlns="http://www.w3.org/2000/svg" xmlns:xlink="http://www.w3.org/1999/xlink" version="1.1" id="Layer_1" x="0px" y="0px" viewBox="0 0 508 508" style="enable-background:new 0 0 508 508;" xml:space="preserve">
<circle style="fill:#90DFAA;" cx="254" cy="254" r="254"/>
<path style="fill:#324A5E;" d="M364.8,114H143.2c-17.2,0-31.2,14-31.2,31.2v217.6c0,17.2,14,31.2,31.2,31.2h222  c17.2,0,31.2-14,31.2-31.2V145.2C396,128,382,114,364.8,114z"/>
<circle style="fill:#FFFFFF;" cx="254" cy="254" r="103.6"/>
<g>
	<path style="fill:#CED5E0;" d="M252.4,179.6h-11.2v-3.2h3.6v-11.2l-3.6,0.8v-3.2l7.6-1.6V176h3.6L252.4,179.6L252.4,179.6z"/>
	<path style="fill:#CED5E0;" d="M259.6,176L259.6,176h7.2v3.2h-11.6V176l5.2-4.8c1.2-0.8,1.6-2,2-2.4c0.4-0.8,0.8-1.2,0.8-2   c0-1.6-0.8-2.4-2.8-2.4c-1.6,0-2.8,0.8-4.4,2v-3.6c1.6-1.2,3.2-1.6,5.2-1.6s3.2,0.4,4.4,1.2c1.2,0.8,1.6,2,1.6,3.6   c0,2-1.2,4.4-3.6,6.4L259.6,176z"/>
	<path style="fill:#CED5E0;" d="M258.8,328.8v3.2c-0.8-0.4-2-0.8-2.8-0.8c-1.2,0-2.4,0.4-3.2,1.6s-1.2,2.4-1.2,4l0,0   c0.8-1.2,2-2,3.6-2s2.8,0.4,3.6,1.6c0.8,1.2,1.2,2.4,1.2,4s-0.4,3.2-1.6,4.4c-1.2,1.2-2.8,1.6-4.4,1.6c-2,0-3.6-0.8-4.8-2   c-1.2-1.6-1.6-3.6-1.6-6c0-3.2,0.8-5.6,2-7.2c1.6-2,3.6-2.8,6-2.8C257.2,328.4,258.4,328.4,258.8,328.8z M254,338   c-0.8,0-1.2,0.4-1.6,0.8c-0.4,0.4-0.8,1.2-0.8,2s0.4,1.6,0.8,2.4c0.4,0.8,1.2,0.8,1.6,0.8c0.8,0,1.2-0.4,1.6-0.8s0.8-1.2,0.8-2   C256.4,338.8,255.6,338,254,338z"/>
	<path style="fill:#CED5E0;" d="M331.6,262.4v-3.6c1.2,0.8,2.4,1.2,4,1.2c1.2,0,1.6-0.4,2.4-0.8c0.4-0.4,0.8-1.2,0.8-1.6   c0-0.8-0.4-1.6-1.2-2c-0.8-0.4-1.6-0.8-2.8-0.8h-1.6v-3.2h1.6c2.4,0,3.6-0.8,3.6-2.4c0-1.6-0.8-2-2.8-2c-1.2,0-2.4,0.4-3.6,1.2   v-3.2c1.2-0.8,2.8-0.8,4.4-0.8c2,0,3.2,0.4,4.4,1.2c1.2,0.8,1.6,2,1.6,3.2c0,2.4-1.2,3.6-3.6,4.4l0,0c1.2,0,2.4,0.8,2.8,1.2   c0.8,0.8,1.2,1.6,1.2,2.8c0,1.6-0.8,2.8-2,4c-1.2,0.8-2.8,1.6-5.2,1.6C334.4,263.2,332.8,262.8,331.6,262.4z"/>
	<path style="fill:#CED5E0;" d="M166,262.4v-3.2c0.8,0.8,2,0.8,3.2,0.8s2.4-0.4,3.2-1.2c0.8-0.8,1.2-2.4,1.2-4l0,0   c-0.8,1.2-2,1.6-3.6,1.6s-2.8-0.4-3.6-1.6c-0.8-1.2-1.6-2.4-1.6-4c0-2,0.4-3.6,1.6-4.4c1.2-1.2,2.8-1.6,4.4-1.6c2,0,3.6,0.8,4.4,2   c1.2,1.6,1.6,3.6,1.6,6c0,3.2-0.8,5.6-2,7.6c-1.2,1.6-3.2,2.8-5.6,2.8C168.4,263.2,166.8,262.8,166,262.4z M171.2,247.6   c-0.8,0-1.2,0.4-1.6,0.8c-0.4,0.4-0.8,1.2-0.8,2s0.4,1.6,0.8,2c0.4,0.4,1.2,0.8,1.6,0.8c0.8,0,1.2-0.4,1.6-0.8   c0.4-0.4,0.8-1.2,0.8-2s-0.4-1.6-0.8-2.4C172.4,248,171.6,247.6,171.2,247.6z"/>
</g>
<g>
	<rect x="249.2" y="191.6" style="fill:#4CDBC4;" width="10" height="69.6"/>
	<rect x="201.2" y="251.2" style="fill:#4CDBC4;" width="57.6" height="10"/>
</g>
<rect x="248.343" y="285.531" transform="matrix(-0.7071 -0.7071 0.7071 -0.7071 282.8545 691.0237)" style="fill:#FF7058;" width="72.399" height="2.8"/>
<circle style="fill:#4CDBC4;" cx="254" cy="256.4" r="10.4"/>
<circle style="fill:#FFFFFF;" cx="254" cy="256.4" r="5.6"/>
<g>
</g>
<g>
</g>
<g>
</g>
<g>
</g>
<g>
</g>
<g>
</g>
<g>
</g>
<g>
</g>
<g>
</g>
<g>
</g>
<g>
</g>
<g>
</g>
<g>
</g>
<g>
</g>
<g>
</g>
</svg>
