<?xml version="1.0" encoding="iso-8859-1"?>
<!-- Generator: Adobe Illustrator 19.0.0, SVG Export Plug-In . SVG Version: 6.00 Build 0)  -->
<svg xmlns="http://www.w3.org/2000/svg" xmlns:xlink="http://www.w3.org/1999/xlink" version="1.1" id="Layer_1" x="0px" y="0px" viewBox="0 0 508 508" style="enable-background:new 0 0 508 508;" xml:space="preserve">
<circle style="fill:#324A5E;" cx="254" cy="254" r="254"/>
<path style="fill:#FFD05B;" d="M391.2,354.8H116.8c-12.8,0-22.4-11.6-20.4-24l21.2-130c1.6-10,10.4-17.6,20.4-17.6h232  c10,0,18.8,7.2,20.4,17.6l21.2,130C413.6,343.2,404,354.8,391.2,354.8z"/>
<rect x="164.4" y="183.2" style="fill:#4CDBC4;" width="179.2" height="86"/>
<rect x="164.4" y="314.4" style="fill:#324A5E;" width="179.2" height="26.4"/>
<polygon style="fill:#FFFFFF;" points="286.8,82.8 186.4,82.8 186.4,183.2 321.6,183.2 321.6,117.6 "/>
<polygon style="fill:#CED5E0;" points="286.8,117.6 321.6,117.6 286.8,82.8 "/>
<rect x="183.6" y="327.6" style="fill:#FFFFFF;" width="140.4" height="97.6"/>
<g>
	<rect x="204.4" y="361.2" style="fill:#ACB3BA;" width="99.2" height="6"/>
	<rect x="204.4" y="385.6" style="fill:#ACB3BA;" width="99.2" height="6"/>
</g>
<g>
</g>
<g>
</g>
<g>
</g>
<g>
</g>
<g>
</g>
<g>
</g>
<g>
</g>
<g>
</g>
<g>
</g>
<g>
</g>
<g>
</g>
<g>
</g>
<g>
</g>
<g>
</g>
<g>
</g>
</svg>
