<?xml version="1.0" encoding="iso-8859-1"?>
<!-- Generator: Adobe Illustrator 19.0.0, SVG Export Plug-In . SVG Version: 6.00 Build 0)  -->
<svg xmlns="http://www.w3.org/2000/svg" xmlns:xlink="http://www.w3.org/1999/xlink" version="1.1" id="Layer_1" x="0px" y="0px" viewBox="0 0 512 512" style="enable-background:new 0 0 512 512;" xml:space="preserve">
<circle style="fill:#90DFAA;" cx="256" cy="256" r="256"/>
<rect x="213.266" y="321.31" style="fill:#2B3B4E;" width="85.468" height="54.022"/>
<path style="fill:#324A5E;" d="M390.652,113.688H121.348c-3.628,0-6.45,2.822-6.45,6.45V328.97c0,3.628,2.822,6.45,6.45,6.45  h269.304c3.628,0,6.45-2.822,6.45-6.45V120.139C397.102,116.913,394.28,113.688,390.652,113.688z"/>
<rect x="137.071" y="135.458" style="fill:#84DBFF;" width="238.261" height="178.192"/>
<g>
	<rect x="184.239" y="374.929" style="fill:#324A5E;" width="143.924" height="22.98"/>
	<polygon style="fill:#324A5E;" points="266.771,261.885 242.582,200.202 184.307,258.099 179.334,253.094 245.229,187.628    269.418,249.31 327.693,191.412 332.665,196.418  "/>
</g>
<circle style="fill:#FF7058;" cx="181.82" cy="255.597" r="18.142"/>
<circle style="fill:#FFD05B;" cx="243.906" cy="193.915" r="18.142"/>
<circle style="fill:#FFFFFF;" cx="268.094" cy="255.597" r="18.142"/>
<circle style="fill:#FF7058;" cx="330.18" cy="193.915" r="18.142"/>
<g>
</g>
<g>
</g>
<g>
</g>
<g>
</g>
<g>
</g>
<g>
</g>
<g>
</g>
<g>
</g>
<g>
</g>
<g>
</g>
<g>
</g>
<g>
</g>
<g>
</g>
<g>
</g>
<g>
</g>
</svg>
