<?xml version="1.0" encoding="iso-8859-1"?>
<!-- Generator: Adobe Illustrator 19.0.0, SVG Export Plug-In . SVG Version: 6.00 Build 0)  -->
<svg xmlns="http://www.w3.org/2000/svg" xmlns:xlink="http://www.w3.org/1999/xlink" version="1.1" id="Layer_1" x="0px" y="0px" viewBox="0 0 508 508" style="enable-background:new 0 0 508 508;" xml:space="preserve">
<circle style="fill:#324A5E;" cx="254" cy="254" r="254"/>
<path style="fill:#4CDBC4;" d="M371.6,230c16.4-20.4,22.8-45.6,16.8-67.6l-2.4-8.8l-7.2,5.6c-10.8,8.8-22.8,16.8-36,17.6  c-1.6,0-2.8,0-4.4,0c-2,0-4.4,0-6.8,0.4c-14.8,1.6-27.6,12.8-31.6,27.2c-14.4-5.2-30-8.4-46.4-8.4s-32,2.8-46.4,8.4  c-4-14.4-16.8-25.6-31.6-27.2c-2.4-0.4-4.8-0.4-6.8-0.4c-1.6,0-2.8,0-4.4,0c-12.8-0.8-24.8-8.8-36-17.6l-6.4-5.6l-2.4,8.8  c-6,22,0.4,47.6,16.8,67.6c5.2,6,10,10.8,15.6,14c-17.2,21.2-27.2,47.6-27.2,76.4c0,68.8,58,124.8,129.2,124.8  c71.6,0,129.2-56,129.2-124.8c0-28.8-10-55.2-27.2-76.4C361.6,240.8,366.8,236,371.6,230z"/>
<ellipse style="fill:#E6E9EE;" cx="254" cy="367.2" rx="40" ry="30"/>
<g>
	<circle style="fill:#324A5E;" cx="238" cy="367.2" r="8.4"/>
	<circle style="fill:#324A5E;" cx="270" cy="367.2" r="8.4"/>
	<circle style="fill:#324A5E;" cx="300.8" cy="275.2" r="18.4"/>
	<circle style="fill:#324A5E;" cx="207.2" cy="275.2" r="18.4"/>
</g>
<circle style="fill:#FFD05B;" cx="254" cy="117.2" r="54.4"/>
<circle style="fill:#F9B54C;" cx="254" cy="117.2" r="41.6"/>
<path style="fill:#FFD05B;" d="M256,137.6v6.4h-4.4v-6.4c-4,0-7.6-0.8-11.2-2.8v-8c1.2,0.8,2.8,1.6,5.2,2.4c2.4,0.8,4.4,1.2,6,1.2  v-10.8c-4.8-1.6-7.6-3.6-9.6-5.6c-1.6-2-2.4-4.4-2.4-7.2c0-3.2,1.2-5.6,3.2-8c2-2,5.2-3.6,8.8-3.6V90h4.4v5.2c4,0,7.2,0.8,9.2,2v8  c-2.8-1.6-6-2.8-9.2-3.2v11.2c4.4,1.6,7.2,3.2,9.2,5.2s2.8,4.4,2.8,7.2c0,3.2-1.2,6-3.2,8C262.8,136,260,137.2,256,137.6z   M251.6,111.6v-9.2c-2.8,0.4-4,2-4,4.4C247.6,108.8,249.2,110.4,251.6,111.6z M256,121.6v8.8c2.8-0.4,4.4-2,4.4-4.4  C260.4,124.4,258.8,122.8,256,121.6z"/>
<path style="fill:#FFFFFF;" d="M319.6,102.4c-9.6,9.6-6,11.2,20.8,11.2c-26.8,0-30,2-20.8,11.2c-9.6-9.6-11.2-6-11.2,20.8  c0-26.8-2-30-11.2-20.8c9.6-9.6,6-11.2-20.8-11.2c26.8,0,30-2,20.8-11.2c9.6,9.6,11.2,6,11.2-20.8  C308.4,108.4,310.4,111.6,319.6,102.4z"/>
<g>
</g>
<g>
</g>
<g>
</g>
<g>
</g>
<g>
</g>
<g>
</g>
<g>
</g>
<g>
</g>
<g>
</g>
<g>
</g>
<g>
</g>
<g>
</g>
<g>
</g>
<g>
</g>
<g>
</g>
</svg>
