<?xml version="1.0" encoding="iso-8859-1"?>
<!-- Generator: Adobe Illustrator 19.0.0, SVG Export Plug-In . SVG Version: 6.00 Build 0)  -->
<svg xmlns="http://www.w3.org/2000/svg" xmlns:xlink="http://www.w3.org/1999/xlink" version="1.1" id="Layer_1" x="0px" y="0px" viewBox="0 0 508 508" style="enable-background:new 0 0 508 508;" xml:space="preserve">
<circle style="fill:#324A5E;" cx="254" cy="254" r="254"/>
<path style="fill:#90DFAA;" d="M413.2,316.4l-32.4-135.2H127.2L94.8,316.4c-7.2,26.8,12.8,52.8,40.4,52.8h237.2  C400.4,369.2,420.4,342.8,413.2,316.4z"/>
<ellipse style="fill:#2C9984;" cx="254" cy="275.2" rx="58.4" ry="68.8"/>
<path style="fill:#F9B54C;" d="M221.6,142.8c-6.4-6.4-6.4-16.8,0-23.2c6.4-6.4,16.8-6.4,23.2,0c4,4,5.6,9.6,4.4,14.8l27.6,27.6  l-12.4,12.4l-27.6-27.6C231.2,148.4,225.6,147.2,221.6,142.8z"/>
<path style="fill:#FFD05B;" d="M286.4,142.8c6.4-6.4,6.4-16.8,0-23.2c-6.4-6.4-16.8-6.4-23.2,0c-4,4-5.6,9.6-4.4,14.8L231.2,162  l12.4,12.4l27.6-27.6C276.8,148.4,282.4,147.2,286.4,142.8z"/>
<g>
	<path style="fill:#E6E9EE;" d="M388,158.4H120c-2.4,0-4.8,2-4.8,4.8v18.4c0,2.4,2,4.8,4.8,4.8h268c2.4,0,4.8-2,4.8-4.8v-18.4   C392.8,160.4,390.4,158.4,388,158.4z"/>
	<path style="fill:#E6E9EE;" d="M257.6,309.2v10.4h-7.2v-10.4c-6.4,0-12.8-1.6-18.4-4.4v-13.6c2,1.6,4.8,2.8,8.4,4.4   c3.6,1.2,7.2,2,10,2.4v-17.6c-7.6-2.8-12.8-6-15.6-9.2s-4-7.2-4-12c0-5.2,2-9.6,5.6-13.2c3.6-3.6,8.4-5.6,14.4-6.4v-9.2h7.2v8.8   c6.8,0.4,12,1.6,15.2,3.2v13.2c-4.4-2.8-9.6-4.4-15.2-5.2v18.4c7.2,2.4,12,5.6,15.2,8.8c3.2,3.2,4.8,7.2,4.8,12   c0,5.2-1.6,9.6-5.2,13.2C268.8,306.4,264,308.4,257.6,309.2z M250.4,266.4v-15.6c-4.4,0.8-6.8,3.2-6.8,7.2   C243.6,261.6,246,264.4,250.4,266.4z M257.6,282.8v14.8c4.8-0.8,6.8-3.2,6.8-6.8C264.4,287.6,262,284.8,257.6,282.8z"/>
</g>
<g>
</g>
<g>
</g>
<g>
</g>
<g>
</g>
<g>
</g>
<g>
</g>
<g>
</g>
<g>
</g>
<g>
</g>
<g>
</g>
<g>
</g>
<g>
</g>
<g>
</g>
<g>
</g>
<g>
</g>
</svg>
