<?xml version="1.0" encoding="iso-8859-1"?>
<!-- Generator: Adobe Illustrator 19.0.0, SVG Export Plug-In . SVG Version: 6.00 Build 0)  -->
<svg xmlns="http://www.w3.org/2000/svg" xmlns:xlink="http://www.w3.org/1999/xlink" version="1.1" id="Layer_1" x="0px" y="0px" viewBox="0 0 508 508" style="enable-background:new 0 0 508 508;" xml:space="preserve">
<circle style="fill:#FFD05B;" cx="254" cy="254" r="254"/>
<path style="fill:#FF7058;" d="M271.6,200.4H122c-3.2,0-5.6,2.4-5.6,5.6v190.4c0,3.2,2.4,5.6,5.6,5.6h149.6c3.2,0,5.6-2.4,5.6-5.6  V206C277.6,202.8,274.8,200.4,271.6,200.4z"/>
<rect x="135.6" y="217.6" style="fill:#324A5E;" width="122.4" height="38.4"/>
<g>
	<rect x="135.6" y="274" style="fill:#E6E9EE;" width="24.8" height="24.8"/>
	<rect x="184.4" y="274" style="fill:#E6E9EE;" width="24.8" height="24.8"/>
	<rect x="233.2" y="274" style="fill:#E6E9EE;" width="24.8" height="24.8"/>
	<rect x="135.6" y="316.8" style="fill:#E6E9EE;" width="24.8" height="24.8"/>
	<rect x="184.4" y="316.8" style="fill:#E6E9EE;" width="24.8" height="24.8"/>
	<rect x="233.2" y="316.8" style="fill:#E6E9EE;" width="24.8" height="24.8"/>
	<rect x="135.6" y="359.2" style="fill:#E6E9EE;" width="24.8" height="24.8"/>
	<rect x="184.4" y="359.2" style="fill:#E6E9EE;" width="24.8" height="24.8"/>
	<rect x="233.2" y="359.2" style="fill:#E6E9EE;" width="24.8" height="24.8"/>
</g>
<path style="fill:#4CDBC4;" d="M321.2,82c-38.8,0-70.4,31.6-70.4,70.4c0,10.8,2.4,21.2,6.8,30.4l0,0l-18.4,49.6l50-17.2l0,0  c9.6,4.8,20.4,7.6,32,7.6c38.8,0,70.4-31.6,70.4-70.4S360,82,321.2,82z"/>
<path style="fill:#FFFFFF;" d="M321.2,208.4c-30.8,0-56-25.2-56-56s25.2-56,56-56s56,25.2,56,56S352,208.4,321.2,208.4z"/>
<path style="fill:#324A5E;" d="M323.6,177.6v8h-5.2V178c-4.8,0-9.6-1.2-13.6-3.2v-10c1.2,1.2,3.6,2,6.4,3.2c2.8,0.8,5.2,1.6,7.2,1.6  v-13.2c-5.6-2-9.6-4.4-11.6-6.8c-2-2.4-3.2-5.6-3.2-8.8c0-3.6,1.2-6.8,4-9.6s6.4-4.4,10.8-4.8v-6.8h5.2v6.4  c5.2,0.4,8.8,1.2,11.2,2.4v9.6c-3.2-2-7.2-3.2-11.2-3.6V148c5.2,2,9.2,4,11.2,6.4c2.4,2.4,3.6,5.2,3.6,8.8c0,4-1.2,7.2-4,9.6  C332,175.6,328.4,177.2,323.6,177.6z M318.4,146v-11.6c-3.2,0.8-5.2,2.4-5.2,5.2C313.6,142.4,315.2,144.4,318.4,146z M323.6,158.4  v10.8c3.6-0.4,5.2-2.4,5.2-5.2C328.8,161.6,327.2,160,323.6,158.4z"/>
<g>
</g>
<g>
</g>
<g>
</g>
<g>
</g>
<g>
</g>
<g>
</g>
<g>
</g>
<g>
</g>
<g>
</g>
<g>
</g>
<g>
</g>
<g>
</g>
<g>
</g>
<g>
</g>
<g>
</g>
</svg>
