<?xml version="1.0" encoding="iso-8859-1"?>
<!-- Generator: Adobe Illustrator 19.0.0, SVG Export Plug-In . SVG Version: 6.00 Build 0)  -->
<svg xmlns="http://www.w3.org/2000/svg" xmlns:xlink="http://www.w3.org/1999/xlink" version="1.1" id="Layer_1" x="0px" y="0px" viewBox="0 0 508 508" style="enable-background:new 0 0 508 508;" xml:space="preserve">
<circle style="fill:#84DBFF;" cx="254" cy="254" r="254"/>
<path style="fill:#324A5E;" d="M380,132.4H128c-4.4,0-8.4,3.6-8.4,8.4v186.4c0,4.4,3.6,8.4,8.4,8.4h252c4.4,0,8.4-3.6,8.4-8.4V140.8  C388.4,136.4,384.8,132.4,380,132.4z"/>
<rect x="144" y="156.8" style="fill:#FF7058;" width="220" height="154.4"/>
<path style="fill:#324A5E;" d="M90.4,352.4l8.8,21.2c2.8,7.2,10,12,17.6,12h274c8,0,14.8-4.8,17.6-12l8.8-21.2H90.4z"/>
<polygon style="fill:#FFFFFF;" points="290,84.4 181.6,84.4 181.6,266.4 326.4,266.4 326.4,120.8 "/>
<polygon style="fill:#CED5E0;" points="290,120.8 326.4,120.8 290,84.4 "/>
<g>
	<rect x="202.4" y="149.6" style="fill:#4CDBC4;" width="102.8" height="7.6"/>
	<rect x="202.4" y="175.6" style="fill:#4CDBC4;" width="102.8" height="7.6"/>
	<rect x="202.4" y="201.6" style="fill:#4CDBC4;" width="102.8" height="7.6"/>
	<rect x="202.4" y="227.6" style="fill:#4CDBC4;" width="102.8" height="7.6"/>
</g>
<g>
</g>
<g>
</g>
<g>
</g>
<g>
</g>
<g>
</g>
<g>
</g>
<g>
</g>
<g>
</g>
<g>
</g>
<g>
</g>
<g>
</g>
<g>
</g>
<g>
</g>
<g>
</g>
<g>
</g>
</svg>
