<?xml version="1.0" encoding="iso-8859-1"?>
<!-- Generator: Adobe Illustrator 19.0.0, SVG Export Plug-In . SVG Version: 6.00 Build 0)  -->
<svg xmlns="http://www.w3.org/2000/svg" xmlns:xlink="http://www.w3.org/1999/xlink" version="1.1" id="Layer_1" x="0px" y="0px" viewBox="0 0 508 508" style="enable-background:new 0 0 508 508;" xml:space="preserve">
<circle style="fill:#FD8469;" cx="254" cy="254" r="254"/>
<path style="fill:#E6E9EE;" d="M324.4,107.2H143.2c-5.2,0-9.6,4.4-9.6,9.6v274.4c0,5.2,4.4,9.6,9.6,9.6h181.2c5.2,0,9.6-4.4,9.6-9.6  V116.8C334,111.6,329.6,107.2,324.4,107.2z"/>
<rect x="150" y="145.2" style="fill:#324A5E;" width="167.2" height="214.4"/>
<g>
	<rect x="210" y="121.6" style="fill:#ACB3BA;" width="48" height="8.8"/>
	<circle style="fill:#ACB3BA;" cx="233.6" cy="380" r="8.4"/>
</g>
<g>
	<path style="fill:#4CDBC4;" d="M317.6,334.8c-10.8-3.6-20.4-17.6-26.4-37.6c8.4,1.6,17.2,2.4,26.4,2.8v-10   c-10.4-0.4-20-1.6-28.8-3.2c-2-9.2-3.2-19.2-3.6-29.6h32.4v-10h-32.4c0.4-10.4,1.6-20.4,3.6-29.6c8.8-2,18.8-3.2,28.8-3.2v-10   c-9.2,0.4-18,1.2-26.4,2.8c6-19.6,15.2-34,26.4-37.6v-10.8c-49.2,2.8-88,43.6-88,93.6c0,49.6,39.2,90.4,88,93.6V334.8z    M297.6,172.4c-7.2,8.8-13.2,21.6-17.2,36.8c-15.2,4-28,10-36.8,17.2C251.6,200.8,271.6,180.8,297.6,172.4z M277.6,220.4   c-1.6,8.4-2.4,17.2-2.8,26.8h-35.2C243.6,236,257.6,226.4,277.6,220.4z M275.2,257.2c0.4,9.6,1.2,18.4,2.8,26.8   c-20-6-34.4-15.6-37.6-26.8H275.2z M243.2,277.6c8.8,7.2,21.6,13.2,36.8,17.2c4,15.2,10,28,17.2,36.8   C271.6,323.6,251.6,303.2,243.2,277.6z"/>
	<path style="fill:#4CDBC4;" d="M334,345.6c49.2-2.8,88-43.6,88-93.6c0-49.6-39.2-90.4-88-93.6v10.8c10.8,3.6,20.4,18,26.4,37.6   c-8.4-1.6-17.2-2.4-26.4-2.8v10c10.4,0.4,20,1.6,28.8,3.2c2,9.2,3.2,19.2,3.6,29.6H334v10h32.4c-0.4,10.4-1.6,20.4-3.6,29.6   c-8.8,2-18.8,3.2-28.8,3.6v10c9.2-0.4,18-1.2,26.4-2.8c-6,19.6-15.2,34-26.4,37.6V345.6z M408,226.8c-8.8-7.2-21.6-13.2-36.8-17.2   c-4-15.2-10-28-17.2-36.8C379.6,180.8,400,200.8,408,226.8z M411.2,247.2H376c-0.4-9.6-1.2-18.4-2.8-26.8   C393.6,226.4,408,236,411.2,247.2z M411.2,257.2c-3.2,11.2-17.6,20.8-37.6,26.8c1.6-8.4,2.4-17.2,2.8-26.8H411.2z M354,332   c7.2-8.8,13.2-21.6,17.2-36.8c15.2-4,28-10,36.8-17.2C400,303.2,379.6,323.6,354,332z"/>
</g>
<g>
</g>
<g>
</g>
<g>
</g>
<g>
</g>
<g>
</g>
<g>
</g>
<g>
</g>
<g>
</g>
<g>
</g>
<g>
</g>
<g>
</g>
<g>
</g>
<g>
</g>
<g>
</g>
<g>
</g>
</svg>
