<?xml version="1.0" encoding="iso-8859-1"?>
<!-- Generator: Adobe Illustrator 19.0.0, SVG Export Plug-In . SVG Version: 6.00 Build 0)  -->
<svg xmlns="http://www.w3.org/2000/svg" xmlns:xlink="http://www.w3.org/1999/xlink" version="1.1" id="Layer_1" x="0px" y="0px" viewBox="0 0 508 508" style="enable-background:new 0 0 508 508;" xml:space="preserve">
<circle style="fill:#90DFAA;" cx="254" cy="254" r="254"/>
<path style="fill:#FFFFFF;" d="M397.6,357.6L296,196.8V77.6h-84v119.2L110.4,357.6c-4.8,7.6,0.4,17.2,9.2,17.2H388  C397.2,374.8,402.4,364.8,397.6,357.6z"/>
<polygon style="fill:#FFD05B;" points="320.4,280.4 187.6,280.4 142.8,351.2 365.2,351.2 "/>
<path style="fill:#E6E9EE;" d="M296.4,77.6h-84.8c-7.2,0-12.8,5.6-12.8,12.8s5.6,12.8,12.8,12.8h85.2c7.2,0,12.8-5.6,12.8-12.8  S303.6,77.6,296.4,77.6z"/>
<g>
	<circle style="fill:#FFD05B;" cx="261.6" cy="234" r="23.6"/>
	<circle style="fill:#FFD05B;" cx="251.2" cy="154.8" r="19.2"/>
</g>
<g>
</g>
<g>
</g>
<g>
</g>
<g>
</g>
<g>
</g>
<g>
</g>
<g>
</g>
<g>
</g>
<g>
</g>
<g>
</g>
<g>
</g>
<g>
</g>
<g>
</g>
<g>
</g>
<g>
</g>
</svg>
