<?xml version="1.0" encoding="iso-8859-1"?>
<!-- Generator: Adobe Illustrator 19.0.0, SVG Export Plug-In . SVG Version: 6.00 Build 0)  -->
<svg xmlns="http://www.w3.org/2000/svg" xmlns:xlink="http://www.w3.org/1999/xlink" version="1.1" id="Layer_1" x="0px" y="0px" viewBox="0 0 508 508" style="enable-background:new 0 0 508 508;" xml:space="preserve">
<circle style="fill:#84DBFF;" cx="254" cy="254" r="254"/>
<path style="fill:#FF7058;" d="M376.4,110H131.6c-6.8,0-12.4,5.6-12.4,12.4V368c0,6.8,5.6,12.4,12.4,12.4h244.8  c6.8,0,12.4-5.6,12.4-12.4V122.4C388.8,115.6,383.2,110,376.4,110z"/>
<rect x="144" y="135.2" style="fill:#E6E9EE;" width="219.6" height="220.8"/>
<g>
	<rect x="160.4" y="380.8" style="fill:#324A5E;" width="36" height="17.2"/>
	<rect x="311.2" y="380.8" style="fill:#324A5E;" width="36" height="17.2"/>
	<path style="fill:#324A5E;" d="M318,251.2V230l-17.2-3.6c-1.2-4-2.8-7.6-4.8-11.2l10-14.8l-15.2-15.2l-14.8,10   c-3.6-2-7.2-3.6-11.2-4.8l-3.6-17.2H240l-3.6,17.2c-4,1.2-7.6,2.8-11.2,4.8l-14.8-10l-15.2,15.2l10,14.8c-2,3.6-3.6,7.2-4.8,11.2   l-16.8,3.6v21.2l17.2,3.6c1.2,4,2.8,7.6,4.8,11.2l-10,14.8l15.2,15.2l14.8-10c3.6,2,7.2,3.6,11.2,4.8l3.6,17.2h21.2l3.6-17.2   c4-1.2,7.6-2.8,11.2-4.8l14.8,10l15.2-15.2L296,266c2-3.6,3.6-7.2,4.8-11.2L318,251.2z"/>
</g>
<circle style="fill:#4CDBC4;" cx="250.8" cy="240.8" r="31.2"/>
<g>
	<rect x="356" y="159.2" style="fill:#324A5E;" width="16.4" height="54.8"/>
	<rect x="356" y="276.4" style="fill:#324A5E;" width="16.4" height="54.8"/>
</g>
<path style="fill:#FFD05B;" d="M252.4,258v5.2h-3.6V258c-3.2,0-6.4-0.8-9.2-2.4v-6.8c0.8,0.8,2.4,1.6,4.4,2c2,0.8,3.6,1.2,5.2,1.2  v-8.8c-4-1.6-6.4-2.8-8-4.8c-1.2-1.6-2-3.6-2-6s0.8-4.8,2.8-6.4c2-2,4.4-2.8,7.2-3.2v-4.4h3.6v4.4c3.6,0,6,0.8,7.6,1.6v6.8  c-2.4-1.2-4.8-2.4-7.6-2.4v9.2c3.6,1.2,6,2.8,7.6,4.4c1.6,1.6,2.4,3.6,2.4,6c0,2.8-0.8,4.8-2.4,6.4C258,256.4,255.6,257.6,252.4,258  z M248.8,236.4v-7.6c-2.4,0.4-3.2,1.6-3.2,3.6C245.6,234,246.8,235.2,248.8,236.4z M252.4,244.8v7.6c2.4-0.4,3.6-1.6,3.6-3.6  S254.8,245.6,252.4,244.8z"/>
<g>
</g>
<g>
</g>
<g>
</g>
<g>
</g>
<g>
</g>
<g>
</g>
<g>
</g>
<g>
</g>
<g>
</g>
<g>
</g>
<g>
</g>
<g>
</g>
<g>
</g>
<g>
</g>
<g>
</g>
</svg>
