<?xml version="1.0" encoding="iso-8859-1"?>
<!-- Generator: Adobe Illustrator 19.0.0, SVG Export Plug-In . SVG Version: 6.00 Build 0)  -->
<svg xmlns="http://www.w3.org/2000/svg" xmlns:xlink="http://www.w3.org/1999/xlink" version="1.1" id="Layer_1" x="0px" y="0px" viewBox="0 0 508 508" style="enable-background:new 0 0 508 508;" xml:space="preserve">
<circle style="fill:#90DFAA;" cx="254" cy="254" r="254"/>
<polygon style="fill:#FF7058;" points="400,157.2 327.6,84.4 254.8,157.2 293.6,157.2 293.6,312 361.6,312 361.6,157.2 "/>
<circle style="fill:#FFFFFF;" cx="240.8" cy="311.2" r="132.8"/>
<path style="fill:#FFD05B;" d="M240.8,416.4c-58,0-105.2-47.2-105.2-105.2c-0.4-58,46.8-105.2,105.2-105.2  c58,0,105.2,47.2,105.2,105.2S298.8,416.4,240.8,416.4z"/>
<path style="fill:#324A5E;" d="M245.6,358.4v14.8h-10v-14.4c-9.2,0-17.6-2-25.6-6.4V334c2.8,2,6.4,4,11.6,6c5.2,2,10,2.8,14,3.2V318  c-10.4-4-18-8.4-21.6-12.8c-4-4.4-6-10.4-6-16.8c0-7.2,2.4-13.2,7.6-18c5.2-5.2,11.6-8,20-8.8v-12.8h10v12.4  c9.6,0.4,16.8,2,21.6,4.8v18.4c-6.4-4-13.6-6.4-21.6-7.2v25.6c10,3.6,17.2,7.6,21.2,12.4c4.4,4.4,6.4,10,6.4,16.8  c0,7.6-2.4,13.6-7.2,18C261.2,354.8,254.4,357.6,245.6,358.4z M235.6,299.2v-21.6c-6.4,1.2-9.6,4.4-9.6,9.6  C226,292,229.2,296,235.6,299.2z M245.6,322v20.4c6.4-0.8,9.6-4.4,9.6-9.6C255.2,328.4,252,324.8,245.6,322z"/>
<g>
</g>
<g>
</g>
<g>
</g>
<g>
</g>
<g>
</g>
<g>
</g>
<g>
</g>
<g>
</g>
<g>
</g>
<g>
</g>
<g>
</g>
<g>
</g>
<g>
</g>
<g>
</g>
<g>
</g>
</svg>
