<?xml version="1.0" encoding="iso-8859-1"?>
<!-- Generator: Adobe Illustrator 19.0.0, SVG Export Plug-In . SVG Version: 6.00 Build 0)  -->
<svg xmlns="http://www.w3.org/2000/svg" xmlns:xlink="http://www.w3.org/1999/xlink" version="1.1" id="Layer_1" x="0px" y="0px" viewBox="0 0 508 508" style="enable-background:new 0 0 508 508;" xml:space="preserve">
<circle style="fill:#84DBFF;" cx="254" cy="254" r="254"/>
<path style="fill:#FF7058;" d="M247.2,80l-164,164c-6.8,6.8-6.8,18,0,24.8l98.8,98.8c6.8,6.8,18,6.8,24.8,0l164-164  c6.8-6.8,6.8-18,0-24.8L271.6,80C264.8,72.8,254,72.8,247.2,80z"/>
<rect x="72.388" y="183.017" transform="matrix(-0.7071 0.7071 -0.7071 -0.7071 494.9136 200.2346)" style="fill:#324A5E;" width="267.197" height="39.2"/>
<rect x="121.6" y="207.6" style="fill:#FFFFFF;" width="276.8" height="168.4"/>
<path style="fill:#FFD05B;" d="M142.4,326.4v-70c15.6,0,28-12.8,28-28h178.4c0,15.6,12.8,28,28,28v70c-15.6,0-28,12.8-28,28h-178  C170.8,339.2,158,326.4,142.4,326.4z"/>
<ellipse style="fill:#FFFFFF;" cx="260" cy="291.6" rx="28.4" ry="44"/>
<g>
	<circle style="fill:#F9B54C;" cx="184" cy="291.6" r="13.6"/>
	<circle style="fill:#F9B54C;" cx="336" cy="291.6" r="13.6"/>
</g>
<path style="fill:#324A5E;" d="M261.6,309.2v5.6H258v-5.2c-3.2,0-6.4-0.8-9.6-2.4v-6.8c0.8,0.8,2.4,1.6,4.4,2c2,0.8,3.6,1.2,5.2,1.2  V294c-4-1.6-6.4-3.2-8-4.8c-1.6-1.6-2-3.6-2-6c0-2.8,0.8-4.8,2.8-6.8s4.4-2.8,7.2-3.2v-4.8h3.6v4.4c3.6,0,6,0.8,8,1.6v6.8  c-2.4-1.6-4.8-2.4-8-2.8v9.6c3.6,1.2,6.4,2.8,8,4.4s2.4,3.6,2.4,6c0,2.8-0.8,5.2-2.8,6.8C267.6,307.6,264.8,308.8,261.6,309.2z   M258,287.2v-8c-2.4,0.4-3.6,1.6-3.6,3.6C254.4,284.4,255.6,286,258,287.2z M261.6,295.6v7.6c2.4-0.4,3.6-1.6,3.6-3.6  C265.2,298,264,296.8,261.6,295.6z"/>
<g>
</g>
<g>
</g>
<g>
</g>
<g>
</g>
<g>
</g>
<g>
</g>
<g>
</g>
<g>
</g>
<g>
</g>
<g>
</g>
<g>
</g>
<g>
</g>
<g>
</g>
<g>
</g>
<g>
</g>
</svg>
