<?xml version="1.0" encoding="iso-8859-1"?>
<!-- Generator: Adobe Illustrator 19.0.0, SVG Export Plug-In . SVG Version: 6.00 Build 0)  -->
<svg xmlns="http://www.w3.org/2000/svg" xmlns:xlink="http://www.w3.org/1999/xlink" version="1.1" id="Layer_1" x="0px" y="0px" viewBox="0 0 508 508" style="enable-background:new 0 0 508 508;" xml:space="preserve">
<circle style="fill:#FD8469;" cx="254" cy="254" r="254"/>
<path style="fill:#E6E9EE;" d="M372,381.6c-10.8-18.4-30-41.6-36-115.2v-4.8c0-45.2-36.4-81.6-81.6-81.6c0,0,0,0-0.4,0s0,0-0.4,0  l0,0c-45.2,0-81.6,36.4-81.6,81.6v4.8c-6,73.6-25.2,96.8-36,115.2c-2.8,5.2,0.8,11.2,6.4,11.2H172h164h29.6  C371.2,392.8,374.8,386.4,372,381.6z"/>
<rect x="217.6" y="170.4" style="fill:#324A5E;" width="73.2" height="17.6"/>
<path style="fill:#E6E9EE;" d="M217.6,170.4c0-14-10-26.4-20.8-35.6c-4-3.6-8.8-6.8-12-11.2c-3.6-5.2-5.6-11.2-7.2-17.2  c-0.8-3.2-1.2-6.4,0-9.2c2-4,7.2-5.6,12-4.4c4.4,0.8,8.4,3.6,12.4,6c5.2,3.2,11.6,5.2,17.6,4c12.8-2.8,17.6-19.2,29.2-24.8  c6-2.8,13.2-2.4,20-1.2c6.8,1.2,13.2,3.2,20,3.6c8,0,16-2.4,24.4-2.4c2.4,0,4.8,0.4,6,2s1.2,3.6,2,5.6c2,6,10.4,7.6,14,12.8  c2.4,3.6,2.4,8.8,0.4,12.8s-5.2,7.2-8.8,9.6c-2.8,2-6.4,3.6-8.4,6.4c-2,2.4-2.8,5.6-4.4,8.4c-2,4-4.8,7.6-8.4,10.4c-2.8,2-6,4-8,6.4  c-4.4,4.8-6,12-6.4,18.4"/>
<circle style="fill:#4CDBC4;" cx="254" cy="286.4" r="44.4"/>
<path style="fill:#E6E9EE;" d="M256,306.8v6.4h-4.4v-6c-4,0-7.6-0.8-11.2-2.8v-8c1.2,0.8,2.8,1.6,5.2,2.4s4.4,1.2,6,1.2v-10.8  c-4.4-1.6-7.6-3.6-9.2-5.6c-1.6-2-2.4-4.4-2.4-7.2c0-3.2,1.2-5.6,3.2-8c2-2,5.2-3.6,8.8-3.6v-5.6h4.4v5.2c4,0,7.2,0.8,9.2,2v8  c-2.8-1.6-6-2.8-9.2-3.2v11.2c4.4,1.6,7.2,3.2,9.2,5.2s2.8,4.4,2.8,7.2c0,3.2-1.2,6-3.2,8C262.8,305.2,260,306.4,256,306.8z   M251.6,281.2V272c-2.8,0.4-4,2-4,4.4C247.6,278,249.2,279.6,251.6,281.2z M256,290.8v8.8c2.8-0.4,4-2,4-4  C260.4,293.6,258.8,292,256,290.8z"/>
<g>
</g>
<g>
</g>
<g>
</g>
<g>
</g>
<g>
</g>
<g>
</g>
<g>
</g>
<g>
</g>
<g>
</g>
<g>
</g>
<g>
</g>
<g>
</g>
<g>
</g>
<g>
</g>
<g>
</g>
</svg>
