<?xml version="1.0" encoding="iso-8859-1"?>
<!-- Generator: Adobe Illustrator 19.0.0, SVG Export Plug-In . SVG Version: 6.00 Build 0)  -->
<svg xmlns="http://www.w3.org/2000/svg" xmlns:xlink="http://www.w3.org/1999/xlink" version="1.1" id="Layer_1" x="0px" y="0px" viewBox="0 0 508 508" style="enable-background:new 0 0 508 508;" xml:space="preserve">
<circle style="fill:#FD8469;" cx="254" cy="254" r="254"/>
<path style="fill:#84DBFF;" d="M411.6,182.8H96.4c-4,0-7.6,3.2-7.6,7.6v42c0,4,3.2,7.6,7.6,7.6h315.2c4,0,7.6-3.2,7.6-7.6V190  C419.2,186,415.6,182.8,411.6,182.8z"/>
<path style="fill:#54C0EB;" d="M106,239.6l24.4,153.2c1.2,7.6,8,13.6,15.6,13.6h215.6c8,0,14.4-5.6,15.6-13.6l24.4-153.2L106,239.6  L106,239.6z"/>
<g>
	<polygon style="fill:#324A5E;" points="198.8,373.6 167.2,373.6 154.8,270 190.8,270  "/>
	<polygon style="fill:#324A5E;" points="269.6,373.6 238.4,373.6 236,270 272,270  "/>
	<polygon style="fill:#324A5E;" points="340.8,373.6 309.2,373.6 317.2,270 353.2,270  "/>
	<circle style="fill:#324A5E;" cx="254" cy="211.2" r="19.6"/>
</g>
<circle style="fill:#FFD05B;" cx="254" cy="93.6" r="23.6"/>
<path style="fill:#FFFFFF;" d="M254,80c-8.4,0-15.2,6.8-15.2,15.2v108c0,8.4,6.8,15.2,15.2,15.2s15.2-6.8,15.2-15.2v-108  C269.2,86.8,262.4,80,254,80z"/>
<circle style="fill:#324A5E;" cx="253.6" cy="96" r="5.6"/>
<g>
</g>
<g>
</g>
<g>
</g>
<g>
</g>
<g>
</g>
<g>
</g>
<g>
</g>
<g>
</g>
<g>
</g>
<g>
</g>
<g>
</g>
<g>
</g>
<g>
</g>
<g>
</g>
<g>
</g>
</svg>
