<?xml version="1.0" encoding="iso-8859-1"?>
<!-- Generator: Adobe Illustrator 19.0.0, SVG Export Plug-In . SVG Version: 6.00 Build 0)  -->
<svg xmlns="http://www.w3.org/2000/svg" xmlns:xlink="http://www.w3.org/1999/xlink" version="1.1" id="Layer_1" x="0px" y="0px" viewBox="0 0 508 508" style="enable-background:new 0 0 508 508;" xml:space="preserve">
<circle style="fill:#FFD05B;" cx="254" cy="254" r="254"/>
<path style="fill:#324A5E;" d="M320,107.2H138.8c-5.2,0-9.6,4.4-9.6,9.6v274.4c0,5.2,4.4,9.6,9.6,9.6H320c5.2,0,9.6-4.4,9.6-9.6  V116.8C329.6,111.6,325.2,107.2,320,107.2z"/>
<rect x="145.6" y="145.2" style="fill:#FF7058;" width="167.2" height="214.4"/>
<rect x="205.6" y="121.6" style="fill:#CED5E0;" width="48" height="8.8"/>
<circle style="fill:#E6E9EE;" cx="229.2" cy="380" r="8.4"/>
<path style="fill:#FFFFFF;" d="M421.2,175.2H238.4c-2.8,0-5.2,2.4-5.2,5.2v112.4c0,2.8,2.4,5.2,5.2,5.2h24l-3.2,36.8l40-36.8h122  c2.8,0,5.2-2.4,5.2-5.2V180.4C426.4,177.6,424,175.2,421.2,175.2z"/>
<path style="fill:#4CDBC4;" d="M390,287.6H269.6c0-13.2-10.8-24-24-24V210c13.2,0,24-10.8,24-24H390c0,13.2,10.8,24,24,24v53.6  C400.8,263.6,390,274.4,390,287.6z"/>
<g>
	<ellipse style="fill:#2C9984;" cx="274" cy="236.8" rx="8" ry="11.2"/>
	<ellipse style="fill:#2C9984;" cx="385.6" cy="236.8" rx="8" ry="11.2"/>
	<ellipse style="fill:#2C9984;" cx="330" cy="236.8" rx="26.4" ry="34.4"/>
</g>
<g>
</g>
<g>
</g>
<g>
</g>
<g>
</g>
<g>
</g>
<g>
</g>
<g>
</g>
<g>
</g>
<g>
</g>
<g>
</g>
<g>
</g>
<g>
</g>
<g>
</g>
<g>
</g>
<g>
</g>
</svg>
