<?xml version="1.0" encoding="iso-8859-1"?>
<!-- Generator: Adobe Illustrator 19.0.0, SVG Export Plug-In . SVG Version: 6.00 Build 0)  -->
<svg xmlns="http://www.w3.org/2000/svg" xmlns:xlink="http://www.w3.org/1999/xlink" version="1.1" id="Layer_1" x="0px" y="0px" viewBox="0 0 508 508" style="enable-background:new 0 0 508 508;" xml:space="preserve">
<circle style="fill:#84DBFF;" cx="254" cy="254" r="254"/>
<path style="fill:#FFD05B;" d="M252,128l-110.4,14l-14,110c-0.4,4.4,0.8,9.2,4,12.4l155.2,155.2c5.6,5.6,14.8,5.6,20.8,0L419.2,308  c5.6-5.6,5.6-14.8,0-20.8L264,132C260.8,128.8,256.4,127.2,252,128z"/>
<circle style="fill:#324A5E;" cx="190.4" cy="190.8" r="23.6"/>
<path style="fill:#FF7058;" d="M193.2,192.8L193.2,192.8c-5.2,5.2-13.2,5.2-18.4,0l-53.6-53.6c-5.2-5.2-5.2-13.2,0-18.4l0,0  c5.2-5.2,13.2-5.2,18.4,0l54,54C198.4,179.6,198.4,188,193.2,192.8z"/>
<g>
	
		<rect x="248.395" y="245.512" transform="matrix(-0.7071 -0.7071 0.7071 -0.7071 369.0874 662.7043)" style="fill:#FFFFFF;" width="146.799" height="18.8"/>
	
		<rect x="214.758" y="279.084" transform="matrix(-0.7071 -0.7071 0.7071 -0.7071 287.9263 696.2303)" style="fill:#FFFFFF;" width="146.799" height="18.8"/>
	
		<rect x="244.502" y="338.734" transform="matrix(-0.7071 -0.7071 0.7071 -0.7071 233.3607 792.9297)" style="fill:#FFFFFF;" width="72.799" height="18.8"/>
</g>
<g>
</g>
<g>
</g>
<g>
</g>
<g>
</g>
<g>
</g>
<g>
</g>
<g>
</g>
<g>
</g>
<g>
</g>
<g>
</g>
<g>
</g>
<g>
</g>
<g>
</g>
<g>
</g>
<g>
</g>
</svg>
