<?xml version="1.0" encoding="iso-8859-1"?>
<!-- Generator: Adobe Illustrator 19.0.0, SVG Export Plug-In . SVG Version: 6.00 Build 0)  -->
<svg xmlns="http://www.w3.org/2000/svg" xmlns:xlink="http://www.w3.org/1999/xlink" version="1.1" id="Layer_1" x="0px" y="0px" viewBox="0 0 508 508" style="enable-background:new 0 0 508 508;" xml:space="preserve">
<circle style="fill:#324A5E;" cx="254" cy="254" r="254"/>
<g>
	<path style="fill:#E6E9EE;" d="M193.6,253.2l-25.2,5.6v-21.2l50.8-10.4v60H302c3.2-3.2,5.6-6.4,7.2-8.8c2.8-4.4,4-9.2,4-14   c0-10.8-6-16.4-17.6-16.4c-10,0-20,4-29.2,12v-22.8c10.4-6.8,21.6-10,34.8-10c12,0,21.6,3.2,28.4,9.2s10,14.4,10,24.4   c0,8.4-3.2,17.2-9.6,26.4h62.4V184.4H115.6v102.4h78V253.2z"/>
	<path style="fill:#E6E9EE;" d="M115.6,188.8v184.4c0,8.8,7.2,15.6,15.6,15.6h245.2c8.8,0,15.6-7.2,15.6-15.6V188.8H115.6z"/>
</g>
<path style="fill:#FF7058;" d="M392.4,187.6H115.6v-57.2c0-8.8,7.2-16,16-16h244.8c8.8,0,16,7.2,16,16L392.4,187.6L392.4,187.6z"/>
<path style="fill:#FFFFFF;" d="M330,287.2c-4,3.6-8.8,7.6-15.2,11.6L290.4,314v0H338v15.2h-77.2v-14.4l33.6-22.8  c2.8-2,5.2-3.6,7.2-5.2h-82.4v27.6h24.4v14.4h-74.4v-14.4h24.4v-27.6h-78v54c0,9.6,8,17.6,17.6,17.6h241.6c9.6,0,17.6-8,17.6-17.6  v-53.6H330z"/>
<polygon style="fill:#4CDBC4;" points="193.6,314.8 169.2,314.8 169.2,329.2 243.6,329.2 243.6,314.8 219.2,314.8 219.2,287.2   193.6,287.2 "/>
<g>
	<polygon style="fill:#2C9984;" points="168.4,237.6 168.4,258.4 193.6,253.2 193.6,287.2 219.2,287.2 219.2,227.2  "/>
	<path style="fill:#2C9984;" d="M329.2,236.4c-6.8-6-16-9.2-28.4-9.2c-12.8,0-24.4,3.2-34.8,10V260c9.2-8,18.8-12,29.2-12   c11.6,0,17.6,5.6,17.6,16.4c0,4.8-1.2,9.6-4,14c-1.6,2.8-4,5.6-7.2,8.8h28c6.4-8.8,9.6-17.6,9.6-26.4   C339.6,250.4,336,242.4,329.2,236.4z"/>
</g>
<path style="fill:#4CDBC4;" d="M294.8,292.4l-33.6,22.8v14.4h77.6V314h-48.4v-0.4l24.4-15.2c6-4,11.2-7.6,15.2-11.6h-28  C299.6,288.8,297.2,290.4,294.8,292.4z"/>
<g>
	<path style="fill:#FFD05B;" d="M169.6,144L169.6,144c-6,0-10.4-4.8-10.4-10.4V96c0-6,4.8-10.4,10.4-10.4l0,0   c6,0,10.4,4.8,10.4,10.4v37.6C180.4,139.2,175.6,144,169.6,144z"/>
	<path style="fill:#FFD05B;" d="M328.8,144L328.8,144c-6,0-10.4-4.8-10.4-10.4V96c0-6,4.8-10.4,10.4-10.4l0,0   c6,0,10.4,4.8,10.4,10.4v37.6C339.6,139.2,334.8,144,328.8,144z"/>
</g>
<g>
</g>
<g>
</g>
<g>
</g>
<g>
</g>
<g>
</g>
<g>
</g>
<g>
</g>
<g>
</g>
<g>
</g>
<g>
</g>
<g>
</g>
<g>
</g>
<g>
</g>
<g>
</g>
<g>
</g>
</svg>
