<?xml version="1.0" encoding="iso-8859-1"?>
<!-- Generator: Adobe Illustrator 19.0.0, SVG Export Plug-In . SVG Version: 6.00 Build 0)  -->
<svg xmlns="http://www.w3.org/2000/svg" xmlns:xlink="http://www.w3.org/1999/xlink" version="1.1" id="Layer_1" x="0px" y="0px" viewBox="0 0 508 508" style="enable-background:new 0 0 508 508;" xml:space="preserve">
<circle style="fill:#90DFAA;" cx="254" cy="254" r="254"/>
<rect x="125.6" y="119.6" style="fill:#FFFFFF;" width="256.8" height="247.2"/>
<polygon style="fill:#324A5E;" points="148.8,203.2 96.4,203.2 125.6,143.6 168.4,143.6 "/>
<polygon style="fill:#FF7058;" points="201.6,203.2 148.8,203.2 168.4,143.6 211.2,143.6 "/>
<polygon style="fill:#324A5E;" points="254,203.2 201.6,203.2 211.2,143.6 254,143.6 "/>
<polygon style="fill:#FF7058;" points="306.4,203.2 254,203.2 254,143.6 296.8,143.6 "/>
<polygon style="fill:#324A5E;" points="359.2,203.2 306.4,203.2 296.8,143.6 339.6,143.6 "/>
<polygon style="fill:#FF7058;" points="411.6,203.2 359.2,203.2 339.6,143.6 382.4,143.6 "/>
<path style="fill:#2B3B4E;" d="M96.4,203.2V218c0,11.6,11.6,21.2,26.4,21.2s26.4-9.6,26.4-21.2v-15.2H96.4V203.2z"/>
<path style="fill:#F1543F;" d="M148.8,203.2V218c0,11.6,11.6,21.2,26.4,21.2c14.4,0,26.4-9.6,26.4-21.2v-15.2h-52.8V203.2z"/>
<path style="fill:#2B3B4E;" d="M201.6,203.2V218c0,11.6,11.6,21.2,26.4,21.2c14.4,0,26.4-9.6,26.4-21.2v-15.2h-52.8V203.2z"/>
<path style="fill:#F1543F;" d="M254,203.2V218c0,11.6,11.6,21.2,26.4,21.2c14.4,0,26.4-9.6,26.4-21.2v-15.2H254V203.2z"/>
<path style="fill:#2B3B4E;" d="M306.4,203.2V218c0,11.6,11.6,21.2,26.4,21.2c14.4,0,26.4-9.6,26.4-21.2v-15.2h-52.8V203.2z"/>
<path style="fill:#F1543F;" d="M359.2,203.2V218c0,11.6,11.6,21.2,26.4,21.2c14.4,0,26.4-9.6,26.4-21.2v-15.2h-52.8V203.2z"/>
<rect x="112.8" y="366.8" style="fill:#FFD05B;" width="281.6" height="22"/>
<g>
	<rect x="155.2" y="270.4" style="fill:#84DBFF;" width="58.4" height="96.4"/>
	<rect x="242.8" y="270.4" style="fill:#84DBFF;" width="110" height="75.2"/>
</g>
<circle style="fill:#324A5E;" cx="166.4" cy="318.4" r="4.4"/>
<rect x="125.6" y="119.6" style="fill:#FFD05B;" width="257.2" height="24.4"/>
<g>
</g>
<g>
</g>
<g>
</g>
<g>
</g>
<g>
</g>
<g>
</g>
<g>
</g>
<g>
</g>
<g>
</g>
<g>
</g>
<g>
</g>
<g>
</g>
<g>
</g>
<g>
</g>
<g>
</g>
</svg>
