<?xml version="1.0" encoding="iso-8859-1"?>
<!-- Generator: Adobe Illustrator 19.0.0, SVG Export Plug-In . SVG Version: 6.00 Build 0)  -->
<svg xmlns="http://www.w3.org/2000/svg" xmlns:xlink="http://www.w3.org/1999/xlink" version="1.1" id="Layer_1" x="0px" y="0px" viewBox="0 0 508 508" style="enable-background:new 0 0 508 508;" xml:space="preserve">
<circle style="fill:#324A5E;" cx="254" cy="254" r="254"/>
<path style="fill:#E6E9EE;" d="M374,96.8H134c-2.8,0-5.2,2.4-5.2,5.2v160c0,2.8,2.4,5.2,5.2,5.2h240c2.8,0,5.2-2.4,5.2-5.2V102  C379.2,98.8,376.8,96.8,374,96.8z"/>
<rect x="145.2" y="113.2" style="fill:#54C0EB;" width="217.2" height="137.2"/>
<polygon style="fill:#E6E9EE;" points="408.4,378.4 99.6,378.4 128.8,282 379.2,282 "/>
<g>
	<polygon style="fill:#ACB3BA;" points="380,330.8 128,330.8 138.8,292 369.2,292  "/>
	<polygon style="fill:#ACB3BA;" points="282.4,368.4 225.6,368.4 227.2,339.6 280.8,339.6  "/>
</g>
<g>
</g>
<g>
</g>
<g>
</g>
<g>
</g>
<g>
</g>
<g>
</g>
<g>
</g>
<g>
</g>
<g>
</g>
<g>
</g>
<g>
</g>
<g>
</g>
<g>
</g>
<g>
</g>
<g>
</g>
</svg>
