<?xml version="1.0" encoding="iso-8859-1"?>
<!-- Generator: Adobe Illustrator 19.0.0, SVG Export Plug-In . SVG Version: 6.00 Build 0)  -->
<svg xmlns="http://www.w3.org/2000/svg" xmlns:xlink="http://www.w3.org/1999/xlink" version="1.1" id="Layer_1" x="0px" y="0px" viewBox="0 0 508 508" style="enable-background:new 0 0 508 508;" xml:space="preserve">
<circle style="fill:#90DFAA;" cx="254" cy="254" r="254"/>
<g>
	<rect x="119.6" y="227.6" style="fill:#FFFFFF;" width="41.2" height="132.4"/>
	<rect x="233.2" y="227.6" style="fill:#FFFFFF;" width="41.2" height="132.4"/>
	<rect x="346.4" y="227.6" style="fill:#FFFFFF;" width="41.2" height="132.4"/>
</g>
<rect x="101.6" y="360.4" style="fill:#E6E9EE;" width="304.8" height="24"/>
<rect x="86.8" y="384.4" style="fill:#CED5E0;" width="334.8" height="24"/>
<rect x="87.6" y="199.6" style="fill:#E6E9EE;" width="333.6" height="28.4"/>
<polygon style="fill:#FFFFFF;" points="406.4,199.6 102.4,199.6 254.4,73.2 "/>
<polygon style="fill:#E6E9EE;" points="148.4,182.8 254.4,94.8 360.4,182.8 "/>
<path style="fill:#324A5E;" d="M256.4,160v6h-4v-5.6c-3.6,0-7.2-0.8-10.4-2.4v-7.6c1.2,0.8,2.8,1.6,4.8,2.4c2,0.8,4,1.2,5.6,1.2v-10  c-4.4-1.6-7.2-3.2-8.8-5.2s-2.4-4-2.4-6.8s1.2-5.2,3.2-7.2s4.8-3.2,8-3.6V116h4v4.8c4,0,6.8,0.8,8.4,2v7.2c-2.4-1.6-5.2-2.4-8.4-2.8  V138c4,1.6,6.8,3.2,8.4,4.8c1.6,2,2.4,4,2.4,6.8s-0.8,5.6-2.8,7.2C262.4,158.8,260,159.6,256.4,160z M252.4,136.4V128  c-2.4,0.4-3.6,1.6-3.6,4C248.4,133.6,250,135.2,252.4,136.4z M256.4,145.6v8c2.4-0.4,4-1.6,4-4C260,148.4,258.8,146.8,256.4,145.6z"/>
<g>
</g>
<g>
</g>
<g>
</g>
<g>
</g>
<g>
</g>
<g>
</g>
<g>
</g>
<g>
</g>
<g>
</g>
<g>
</g>
<g>
</g>
<g>
</g>
<g>
</g>
<g>
</g>
<g>
</g>
</svg>
