<?xml version="1.0" encoding="iso-8859-1"?>
<!-- Generator: Adobe Illustrator 19.0.0, SVG Export Plug-In . SVG Version: 6.00 Build 0)  -->
<svg xmlns="http://www.w3.org/2000/svg" xmlns:xlink="http://www.w3.org/1999/xlink" version="1.1" id="Layer_1" x="0px" y="0px" viewBox="0 0 508 508" style="enable-background:new 0 0 508 508;" xml:space="preserve">
<circle style="fill:#FD8469;" cx="254" cy="254" r="254"/>
<rect x="287.2" y="205.2" style="fill:#FFD05B;" width="60" height="148"/>
<rect x="193.2" y="111.6" style="fill:#FFFFFF;" width="60" height="242"/>
<rect x="102.8" y="158.8" style="fill:#4CDBC4;" width="60" height="194.4"/>
<rect x="290.846" y="275.125" transform="matrix(-0.7071 0.7071 -0.7071 -0.7071 728.0055 289.499)" style="fill:#2B3B4E;" width="26.4" height="40.8"/>
<path style="fill:#324A5E;" d="M297.6,185.2c-28.8-28.8-75.6-28.8-104,0c-28.8,28.8-28.8,75.6,0,104c28.8,28.8,75.6,28.8,104,0  C326.4,260.4,326.4,214,297.6,185.2z M278,269.6c-18,18-46.8,18-64.8,0s-18-46.8,0-64.8s46.8-18,64.8,0S296,251.6,278,269.6z"/>
<path style="fill:#4CDBC4;" d="M323.2,288l-26.8,26.8c-3.6,3.6-3.6,9.2,0,12.8l66,66.4c3.6,3.6,9.2,3.6,12.8,0l26.8-26.8  c3.6-3.6,3.6-9.2,0-12.8l-66-66.8C332.8,284.4,326.8,284.4,323.2,288z"/>
<g>
</g>
<g>
</g>
<g>
</g>
<g>
</g>
<g>
</g>
<g>
</g>
<g>
</g>
<g>
</g>
<g>
</g>
<g>
</g>
<g>
</g>
<g>
</g>
<g>
</g>
<g>
</g>
<g>
</g>
</svg>
