<?xml version="1.0" encoding="iso-8859-1"?>
<!-- Generator: Adobe Illustrator 19.0.0, SVG Export Plug-In . SVG Version: 6.00 Build 0)  -->
<svg xmlns="http://www.w3.org/2000/svg" xmlns:xlink="http://www.w3.org/1999/xlink" version="1.1" id="Layer_1" x="0px" y="0px" viewBox="0 0 508 508" style="enable-background:new 0 0 508 508;" xml:space="preserve">
<circle style="fill:#84DBFF;" cx="254" cy="254" r="254"/>
<path style="fill:#FF7058;" d="M407.6,321.2l-204.8,26.4l8.4-188.4c0.8-18.8,16.4-33.6,34.8-33.6h152L407.6,321.2z"/>
<path style="fill:#F1543F;" d="M407.6,374H229.2c-14.4,0-26.4-12-26.4-26.4l0,0c0-14.4,12-26.4,26.4-26.4h178.4L407.6,374L407.6,374  z"/>
<path style="fill:#E6E9EE;" d="M229.2,360.8c-7.2,0-13.2-6-13.2-13.2s6-13.2,13.2-13.2h178.4v26.4L229.2,360.8L229.2,360.8z"/>
<rect x="97.2" y="156.4" style="fill:#FFD05B;" width="78.8" height="52.8"/>
<g>
	<path style="fill:#324A5E;" d="M105.6,149.2h-18c-1.6,0-2.8,1.2-2.8,2.8v61.2c0,1.6,1.2,2.8,2.8,2.8h18c1.6,0,2.8-1.2,2.8-2.8V152   C108.4,150.4,107.2,149.2,105.6,149.2z"/>
	<path style="fill:#324A5E;" d="M185.2,149.2h-18c-1.6,0-2.8,1.2-2.8,2.8v61.2c0,1.6,1.2,2.8,2.8,2.8h18c1.6,0,2.8-1.2,2.8-2.8V152   C188,150.4,186.8,149.2,185.2,149.2z"/>
	<rect x="128.8" y="209.2" style="fill:#324A5E;" width="15.6" height="37.2"/>
	<path style="fill:#324A5E;" d="M153.6,236.4c0-1.2-0.8-2-2-2h-29.2c-1.2,0-2,0.8-2,2l-3.6,93.6c-0.4,11.2,8.8,20.8,20,20.8l0,0   c11.6,0,20.4-9.6,20-20.8L153.6,236.4z"/>
</g>
<g>
	<polygon style="fill:#FFD05B;" points="359.6,169.6 250.8,169.6 251.6,156.4 358.8,156.4  "/>
	<polygon style="fill:#FFD05B;" points="361.2,195.6 249.2,195.6 250,181.6 360.4,181.6  "/>
	<polygon style="fill:#FFD05B;" points="307.2,223.2 247.6,223.2 248.4,208.4 306.4,208.4  "/>
</g>
<g>
</g>
<g>
</g>
<g>
</g>
<g>
</g>
<g>
</g>
<g>
</g>
<g>
</g>
<g>
</g>
<g>
</g>
<g>
</g>
<g>
</g>
<g>
</g>
<g>
</g>
<g>
</g>
<g>
</g>
</svg>
