<?xml version="1.0" encoding="iso-8859-1"?>
<!-- Generator: Adobe Illustrator 19.0.0, SVG Export Plug-In . SVG Version: 6.00 Build 0)  -->
<svg xmlns="http://www.w3.org/2000/svg" xmlns:xlink="http://www.w3.org/1999/xlink" version="1.1" id="Layer_1" x="0px" y="0px" viewBox="0 0 508 508" style="enable-background:new 0 0 508 508;" xml:space="preserve">
<circle style="fill:#FFD05B;" cx="254" cy="254" r="254"/>
<g>
	<path style="fill:#F1543F;" d="M214.4,308.8L214.4,308.8c-11.2-4.8-24.4,0.8-29.2,12l-31.6,76c-4.8,11.2,0.8,24.4,12,29.2l0,0   c11.2,4.8,24.4-0.8,29.2-12l31.6-76C231.2,326.4,225.6,313.6,214.4,308.8z"/>
	<path style="fill:#F1543F;" d="M293.6,308.8L293.6,308.8c11.2-4.8,24.4,0.8,29.2,12l31.6,76c4.8,11.2-0.8,24.4-12,29.2l0,0   c-11.2,4.8-24.4-0.8-29.2-12l-31.6-76C276.8,326.4,282.4,313.6,293.6,308.8z"/>
</g>
<circle style="fill:#FF7058;" cx="254" cy="224" r="143.2"/>
<circle style="fill:#4CDBC4;" cx="254" cy="224" r="107.2"/>
<circle style="fill:#FFFFFF;" cx="254" cy="224" r="70.8"/>
<path style="fill:#324A5E;" d="M257.2,256.8v10.4h-6.8v-10c-6.4,0-12.4-1.6-18-4.4v-13.2c2,1.6,4.4,2.8,8,4s6.8,2,9.6,2v-17.2  c-7.2-2.8-12.4-5.6-15.2-8.8s-4-7.2-4-11.6c0-4.8,1.6-9.2,5.2-12.8c3.6-3.6,8-5.6,14-6v-8.8h6.8v8.4c6.8,0.4,11.6,1.2,14.8,3.2v12.8  c-4.4-2.8-9.2-4.4-14.8-4.8v18c6.8,2.4,12,5.2,14.8,8.4s4.4,7.2,4.4,11.6c0,5.2-1.6,9.6-5.2,12.8C268.4,254,263.6,256,257.2,256.8z   M250.4,215.6v-14.8c-4.4,0.8-6.4,3.2-6.4,6.8C244,210.8,246,213.2,250.4,215.6z M257.2,231.6V246c4.4-0.8,6.8-2.8,6.8-6.8  C264,236,262,233.6,257.2,231.6z"/>
<g>
</g>
<g>
</g>
<g>
</g>
<g>
</g>
<g>
</g>
<g>
</g>
<g>
</g>
<g>
</g>
<g>
</g>
<g>
</g>
<g>
</g>
<g>
</g>
<g>
</g>
<g>
</g>
<g>
</g>
</svg>
