<?xml version="1.0" encoding="iso-8859-1"?>
<!-- Generator: Adobe Illustrator 19.0.0, SVG Export Plug-In . SVG Version: 6.00 Build 0)  -->
<svg xmlns="http://www.w3.org/2000/svg" xmlns:xlink="http://www.w3.org/1999/xlink" version="1.1" id="Layer_1" x="0px" y="0px" viewBox="0 0 508 508" style="enable-background:new 0 0 508 508;" xml:space="preserve">
<circle style="fill:#84DBFF;" cx="254" cy="254" r="254"/>
<path style="fill:#FF7058;" d="M383.2,374H146.8c-16.4,0-29.6-13.2-29.6-29.6V157.2l266.4,23.2V374H383.2z"/>
<path style="fill:#F1543F;" d="M383.2,180.4H140c-12.8,0-23.2-10.4-23.2-23.2l0,0c0-12.8,10.4-23.2,23.2-23.2h243.2V180.4z"/>
<path style="fill:#E6E9EE;" d="M140,164.4c-4,0-7.2-3.2-7.2-7.2s3.2-7.2,7.2-7.2h243.2v14.4H140z"/>
<path style="fill:#FFD05B;" d="M284,305.2h99.2v-56H284c-15.6,0-28,12.4-28,28l0,0C256,292.4,268.4,305.2,284,305.2z"/>
<circle style="fill:#324A5E;" cx="282.8" cy="277.2" r="11.2"/>
<g>
</g>
<g>
</g>
<g>
</g>
<g>
</g>
<g>
</g>
<g>
</g>
<g>
</g>
<g>
</g>
<g>
</g>
<g>
</g>
<g>
</g>
<g>
</g>
<g>
</g>
<g>
</g>
<g>
</g>
</svg>
