<?xml version="1.0" encoding="iso-8859-1"?>
<!-- Generator: Adobe Illustrator 19.0.0, SVG Export Plug-In . SVG Version: 6.00 Build 0)  -->
<svg xmlns="http://www.w3.org/2000/svg" xmlns:xlink="http://www.w3.org/1999/xlink" version="1.1" id="Layer_1" x="0px" y="0px" viewBox="0 0 508 508" style="enable-background:new 0 0 508 508;" xml:space="preserve">
<circle style="fill:#324A5E;" cx="254" cy="254" r="254"/>
<g>
	<rect x="324" y="384.4" style="fill:#4CDBC4;" width="28.8" height="18.4"/>
	<rect x="155.2" y="384.4" style="fill:#4CDBC4;" width="28.8" height="18.4"/>
</g>
<path style="fill:#E6E9EE;" d="M377.6,105.2H130.4c-6.8,0-12.4,5.6-12.4,12.4v254.8c0,6.8,5.6,12.4,12.4,12.4h247.2  c6.8,0,12.4-5.6,12.4-12.4V117.2C390,110.8,384.4,105.2,377.6,105.2z"/>
<rect x="143.2" y="130.4" style="fill:#4CDBC4;" width="221.6" height="229.2"/>
<circle style="fill:#324A5E;" cx="254" cy="244.8" r="68.8"/>
<circle style="fill:#4CDBC4;" cx="254" cy="244.8" r="44.4"/>
<circle style="fill:#324A5E;" cx="254" cy="244.8" r="34"/>
<g>
	<rect x="252" y="182.4" style="fill:#FFFFFF;" width="4" height="10.8"/>
	<rect x="252" y="296.4" style="fill:#FFFFFF;" width="4" height="10.8"/>
	<rect x="305.6" y="242.8" style="fill:#FFFFFF;" width="10.8" height="4"/>
	<rect x="191.6" y="242.8" style="fill:#FFFFFF;" width="10.8" height="4"/>
	
		<rect x="292.338" y="199.231" transform="matrix(-0.7071 -0.7071 0.7071 -0.7071 357.7695 557.4556)" style="fill:#FFFFFF;" width="4" height="10.8"/>
	
		<rect x="211.764" y="279.65" transform="matrix(-0.7071 -0.7072 0.7072 -0.7071 163.3328 637.7615)" style="fill:#FFFFFF;" width="4" height="10.801"/>
	
		<rect x="292.408" y="280.018" transform="matrix(0.7072 -0.7071 0.7071 0.7072 -115.5913 291.7461)" style="fill:#FFFFFF;" width="4" height="10.801"/>
	
		<rect x="211.702" y="199.044" transform="matrix(0.7071 -0.7071 0.7071 0.7071 -81.9717 210.9906)" style="fill:#FFFFFF;" width="4" height="10.8"/>
</g>
<rect x="251.2" y="210.8" style="fill:#FF7058;" width="5.2" height="15.2"/>
<g>
</g>
<g>
</g>
<g>
</g>
<g>
</g>
<g>
</g>
<g>
</g>
<g>
</g>
<g>
</g>
<g>
</g>
<g>
</g>
<g>
</g>
<g>
</g>
<g>
</g>
<g>
</g>
<g>
</g>
</svg>
