<?xml version="1.0" encoding="iso-8859-1"?>
<!-- Generator: Adobe Illustrator 19.0.0, SVG Export Plug-In . SVG Version: 6.00 Build 0)  -->
<svg xmlns="http://www.w3.org/2000/svg" xmlns:xlink="http://www.w3.org/1999/xlink" version="1.1" id="Layer_1" x="0px" y="0px" viewBox="0 0 508 508" style="enable-background:new 0 0 508 508;" xml:space="preserve">
<circle style="fill:#90DFAA;" cx="254" cy="254" r="254"/>
<polygon style="fill:#E6E9EE;" points="357.2,172.8 150.8,172.8 143.6,260.4 364.4,260.4 "/>
<g>
	<polygon style="fill:#324A5E;" points="336.4,239.6 171.6,239.6 174,194.8 334,194.8  "/>
	<polygon style="fill:#324A5E;" points="370,408.8 138,408.8 133.6,382.8 374.4,382.8  "/>
</g>
<polygon style="fill:#FFFFFF;" points="144.8,260.4 133.6,382.8 374.4,382.8 363.2,260.4 "/>
<g>
	<polygon style="fill:#4CDBC4;" points="186.4,296.4 164.4,296.4 165.6,274 187.6,274  "/>
	<polygon style="fill:#4CDBC4;" points="184.8,330.8 162,330.8 163.6,307.2 186,307.2  "/>
	<polygon style="fill:#4CDBC4;" points="183.2,366.8 160,366.8 161.6,342 184.4,342  "/>
	<polygon style="fill:#4CDBC4;" points="226,296.4 203.6,296.4 204.4,274 226.4,274  "/>
	<polygon style="fill:#4CDBC4;" points="225.2,330.8 202.4,330.8 203.2,307.2 225.6,307.2  "/>
	<polygon style="fill:#4CDBC4;" points="224.8,366.8 201.2,366.8 202,342 225.2,342  "/>
	<polygon style="fill:#4CDBC4;" points="265.2,296.4 242.8,296.4 243.2,274 264.8,274  "/>
	<polygon style="fill:#4CDBC4;" points="265.2,330.8 242.8,330.8 242.8,307.2 265.2,307.2  "/>
	<polygon style="fill:#4CDBC4;" points="265.6,366.8 242.4,366.8 242.4,342 265.6,342  "/>
</g>
<polygon style="fill:#FFD05B;" points="304.4,296.4 282,296.4 281.6,274 303.6,274 "/>
<g>
	<polygon style="fill:#4CDBC4;" points="305.6,330.8 282.8,330.8 282.4,307.2 304.8,307.2  "/>
	<polygon style="fill:#4CDBC4;" points="306.8,366.8 283.2,366.8 282.8,342 306,342  "/>
</g>
<polygon style="fill:#FF7058;" points="343.6,296.4 321.6,296.4 320.4,274 342.4,274 "/>
<g>
	<polygon style="fill:#4CDBC4;" points="346,330.8 323.2,330.8 322,307.2 344.4,307.2  "/>
	<polygon style="fill:#4CDBC4;" points="348,366.8 324.8,366.8 323.6,342 346.4,342  "/>
</g>
<polygon style="fill:#FFFFFF;" points="290.4,67.6 182.4,67.6 182.4,172.8 325.6,172.8 325.6,102.8 "/>
<polygon style="fill:#FF7058;" points="290.4,102.8 325.6,102.8 290.4,67.6 "/>
<g>
	<rect x="202" y="118" style="fill:#CED5E0;" width="104" height="8.4"/>
	<rect x="202" y="146" style="fill:#CED5E0;" width="104" height="8.4"/>
</g>
<g>
</g>
<g>
</g>
<g>
</g>
<g>
</g>
<g>
</g>
<g>
</g>
<g>
</g>
<g>
</g>
<g>
</g>
<g>
</g>
<g>
</g>
<g>
</g>
<g>
</g>
<g>
</g>
<g>
</g>
</svg>
