<?xml version="1.0" encoding="iso-8859-1"?>
<!-- Generator: Adobe Illustrator 19.0.0, SVG Export Plug-In . SVG Version: 6.00 Build 0)  -->
<svg xmlns="http://www.w3.org/2000/svg" xmlns:xlink="http://www.w3.org/1999/xlink" version="1.1" id="Layer_1" x="0px" y="0px" viewBox="0 0 508 508" style="enable-background:new 0 0 508 508;" xml:space="preserve">
<circle style="fill:#FFD05B;" cx="254" cy="254" r="254"/>
<path style="fill:#324A5E;" d="M394.8,139.2H113.2c-3.6,0-6.4,2.8-6.4,6.4v139.6c0,3.6,2.8,6.4,6.4,6.4h282c3.6,0,6.4-2.8,6.4-6.4  V145.6C401.6,142,398.4,139.2,394.8,139.2z"/>
<rect x="154.8" y="191.2" style="fill:#2B3B4E;" width="198.4" height="50"/>
<polygon style="fill:#FFFFFF;" points="185.6,241.2 130.4,392.8 377.6,392.8 322.4,241.2 "/>
<path style="fill:#4CDBC4;" d="M201.2,241.2l-26,92.4c19.6,0,33.2,13.6,30.4,32.8h96c-2.8-18.8,10.8-32.8,30.4-32.8l-26-92.4  L201.2,241.2L201.2,241.2z"/>
<g>
	<path style="fill:#2C9984;" d="M221.6,241.2C221.6,241.2,221.6,241.6,221.6,241.2c-1.2,5.6,13.6,10,32.4,10s33.2-4.4,32.4-9.6v-0.4   H221.6z"/>
	<path style="fill:#2C9984;" d="M275.2,296c0.4,5.6-8.8,10-21.2,10c-12,0-21.6-4.8-21.2-10c0.4-5.2,10-9.2,21.2-9.2   C265.2,286.8,274.4,290.8,275.2,296z"/>
</g>
<g>
</g>
<g>
</g>
<g>
</g>
<g>
</g>
<g>
</g>
<g>
</g>
<g>
</g>
<g>
</g>
<g>
</g>
<g>
</g>
<g>
</g>
<g>
</g>
<g>
</g>
<g>
</g>
<g>
</g>
</svg>
