<?xml version="1.0" encoding="iso-8859-1"?>
<!-- Generator: Adobe Illustrator 19.0.0, SVG Export Plug-In . SVG Version: 6.00 Build 0)  -->
<svg xmlns="http://www.w3.org/2000/svg" xmlns:xlink="http://www.w3.org/1999/xlink" version="1.1" id="Layer_1" x="0px" y="0px" viewBox="0 0 508 508" style="enable-background:new 0 0 508 508;" xml:space="preserve">
<circle style="fill:#FD8469;" cx="254" cy="254" r="254"/>
<path style="fill:#E6E9EE;" d="M354.8,160l-12-34l0,0l-0.8-2c-1.2-3.2-3.2-5.6-5.6-7.6l0,0c-0.4-0.4-1.2-0.8-1.6-1.2  c-0.4,0-0.8-0.4-1.2-0.4c-0.4-0.4-1.2-0.4-1.6-0.8c-0.4,0-0.8-0.4-1.2-0.4c-0.8,0-1.2-0.4-2-0.4c-0.4,0-0.4,0-0.8,0  c-0.8,0-1.6,0-2.4,0h-0.4c-0.8,0-2,0.4-2.8,0.8l0,0l-23.6,8.4l-16,5.6l-34.4,12l-12,4.4l-14.4,5.2L82.8,198c-8,2.8-12.4,11.6-9.6,20  l49.6,142c2.8,8,11.6,12.4,20,9.6l134-46.8l61.2-21.6l16.8-6L382,286l0,0c0.8-0.4,1.6-0.8,2.4-1.2c4-2.4,6.8-6,8-10.8l0,0l0,0  c0.4-1.2,0.4-2,0.4-3.2c0-0.4,0-0.8,0-1.2c0-0.4,0-0.8,0-1.2c0-0.8-0.4-1.6-0.8-2.8l-12-34l0,0l-4.8-13.2l0,0l-12-33.6l0,0  L354.8,160L354.8,160z"/>
<rect x="81.631" y="196.402" transform="matrix(-0.9439 0.3301 -0.3301 -0.9439 506.7369 347.9504)" style="fill:#324A5E;" width="284.388" height="41.198"/>
<path style="fill:#FFFFFF;" d="M388,188.8H134.8c-8.4,0-15.6,6.8-15.6,15.6v150.4c0,8.4,6.8,15.6,15.6,15.6h253.6  c8.4,0,15.6-6.8,15.6-15.6V204.4C403.6,196,396.8,188.8,388,188.8z"/>
<g>
	<path style="fill:#4CDBC4;" d="M306.8,306.8c7.2,12.8,15.2,24.4,23.2,34.8c12.8-3.6,26-8.8,38.8-15.6l-21.6-40.8L306.8,306.8z"/>
	<path style="fill:#4CDBC4;" d="M282.8,245.6c9.6-7.6,20.8-14.8,32.8-21.2l-18.8-35.2H282C277.2,202.8,277.6,222.8,282.8,245.6z"/>
	<path style="fill:#4CDBC4;" d="M338.4,351.2c7.2,7.6,14,14.4,21.2,19.6H388c1.6,0,2.8-0.4,4-0.8l-18-33.6   C362.4,342.4,350,347.2,338.4,351.2z"/>
	<path style="fill:#4CDBC4;" d="M342.4,275.2l-21.6-40.8c-12.8,7.2-24.4,15.2-34.8,23.2c3.6,12.8,8.8,26,15.6,38.8L342.4,275.2z"/>
	<path style="fill:#4CDBC4;" d="M326,354.8c-24.4,6.4-46.4,7.6-63.2,3.2c4.4,4.8,8.8,8.8,14,12.8h64.8   C336.4,366,331.2,360.8,326,354.8z"/>
	<path style="fill:#4CDBC4;" d="M272.8,253.6c-6.4-24.4-7.6-46.4-3.2-63.2c-31.2,28.8-44.8,72.4-35.2,113.6   C240.4,288,254,270.4,272.8,253.6z"/>
	<path style="fill:#4CDBC4;" d="M248.4,337.6c11.6,12.4,38,14.8,69.6,7.2c-7.6-9.6-14.8-20.8-21.2-32.8L248.4,337.6z"/>
	<path style="fill:#4CDBC4;" d="M276.4,266c-24,22-37.2,45.2-33.2,61.6l48-25.6C285.2,290,280.4,277.6,276.4,266z"/>
	<path style="fill:#4CDBC4;" d="M400.8,195.6c-2.8-4-7.6-6.4-12.8-6.4h-25.2c3.6,3.6,7.2,7.2,10.8,11.6   C383.2,198,392.4,196.4,400.8,195.6z"/>
	<path style="fill:#4CDBC4;" d="M403.2,243.2l0.4-0.4v-36c-6.8,0.8-14,2-21.6,3.6C389.6,220,396.8,231.2,403.2,243.2z"/>
	<path style="fill:#4CDBC4;" d="M403.6,319.2c-6,4-12.4,8-19.2,11.6l16.8,32c1.2-2.4,2.4-4.8,2.4-8L403.6,319.2L403.6,319.2z"/>
	<path style="fill:#4CDBC4;" d="M357.6,280l21.6,40.8c8.8-4.8,16.8-10,24.4-15.6v-35.6c-1.6-3.6-3.2-7.2-5.2-11.2L357.6,280z"/>
	<path style="fill:#4CDBC4;" d="M361.6,204c-5.2-5.6-10.4-10.8-15.6-15.2h-36.4l16,30C337.6,212.8,350,208,361.6,204z"/>
	<path style="fill:#4CDBC4;" d="M393.2,248.4C386,235.6,378,224,370,213.6c-12.8,3.6-26,8.8-38.8,15.6l21.2,40.8L393.2,248.4z"/>
</g>
<path style="fill:#FFD05B;" d="M191.6,219.2h-38.8c-2.4,0-4,1.6-4,4V262c0,2.4,1.6,4,4,4h38.8c2.4,0,4-1.6,4-4v-38.8  C195.6,220.8,194,219.2,191.6,219.2z"/>
<g>
</g>
<g>
</g>
<g>
</g>
<g>
</g>
<g>
</g>
<g>
</g>
<g>
</g>
<g>
</g>
<g>
</g>
<g>
</g>
<g>
</g>
<g>
</g>
<g>
</g>
<g>
</g>
<g>
</g>
</svg>
