<?xml version="1.0" encoding="iso-8859-1"?>
<!-- Generator: Adobe Illustrator 19.0.0, SVG Export Plug-In . SVG Version: 6.00 Build 0)  -->
<svg xmlns="http://www.w3.org/2000/svg" xmlns:xlink="http://www.w3.org/1999/xlink" version="1.1" id="Layer_1" x="0px" y="0px" viewBox="0 0 508 508" style="enable-background:new 0 0 508 508;" xml:space="preserve">
<circle style="fill:#FFD05B;" cx="254" cy="254" r="254"/>
<circle style="fill:#4CDBC4;" cx="254" cy="327.6" r="92.4"/>
<g>
	<path style="fill:#FFFFFF;" d="M374.8,302.8H133.2c-32.4,0-58.8-26.4-58.8-58.8l0,0c0-32.4,26.4-58.8,58.8-58.8h241.6   c32.4,0,58.8,26.4,58.8,58.8l0,0C433.6,276.4,407.2,302.8,374.8,302.8z"/>
	<circle style="fill:#FFFFFF;" cx="187.2" cy="163.2" r="81.2"/>
	<circle style="fill:#FFFFFF;" cx="344" cy="199.6" r="49.6"/>
</g>
<circle style="fill:#E6E9EE;" cx="173.2" cy="234.8" r="49.6"/>
<circle style="fill:#FFFFFF;" cx="183.2" cy="240.4" r="49.6"/>
<circle style="fill:#E6E9EE;" cx="278.4" cy="182.4" r="72"/>
<circle style="fill:#FFFFFF;" cx="278.4" cy="194.8" r="72"/>
<circle style="fill:#4CDBC4;" cx="254" cy="333.6" r="92.4"/>
<circle style="fill:#E6E9EE;" cx="254" cy="333.6" r="72.8"/>
<path style="fill:#324A5E;" d="M257.6,368v10.8h-7.2v-10.4c-6.8,0-12.8-1.6-18.8-4.4v-14c2,1.6,4.8,2.8,8.4,4.4  c3.6,1.2,7.2,2,10,2.4v-18c-7.6-2.8-12.8-6-15.6-9.2s-4.4-7.2-4.4-12c0-5.2,2-9.6,5.6-13.2s8.4-5.6,14.4-6.4v-9.2h7.2v8.8  c6.8,0.4,12,1.6,15.6,3.2V314c-4.4-2.8-9.6-4.4-15.6-5.2v18.8c7.2,2.4,12.4,5.6,15.6,8.8c3.2,3.2,4.8,7.2,4.8,12  c0,5.6-1.6,10-5.2,13.2C268.8,365.2,264,367.2,257.6,368z M250.4,324.8v-15.6c-4.4,0.8-6.8,3.2-6.8,7.2  C243.6,319.6,245.6,322.4,250.4,324.8z M257.6,341.2V356c4.8-0.8,7.2-3.2,7.2-7.2C264.4,346,262,343.6,257.6,341.2z"/>
<g>
</g>
<g>
</g>
<g>
</g>
<g>
</g>
<g>
</g>
<g>
</g>
<g>
</g>
<g>
</g>
<g>
</g>
<g>
</g>
<g>
</g>
<g>
</g>
<g>
</g>
<g>
</g>
<g>
</g>
</svg>
