<?xml version="1.0" encoding="iso-8859-1"?>
<!-- Generator: Adobe Illustrator 19.0.0, SVG Export Plug-In . SVG Version: 6.00 Build 0)  -->
<svg xmlns="http://www.w3.org/2000/svg" xmlns:xlink="http://www.w3.org/1999/xlink" version="1.1" id="Layer_1" x="0px" y="0px" viewBox="0 0 508 508" style="enable-background:new 0 0 508 508;" xml:space="preserve">
<circle style="fill:#324A5E;" cx="254" cy="254" r="254"/>
<g>
	<path style="fill:#FF7058;" d="M215.6,298c-0.8-1.6-1.2-2.8-2-4.4c-2.8-6-10.4-7.6-15.6-4l-76.4,57.6c-5.2,4-5.6,11.6-0.8,16   c1.2,1.2,2.4,2,3.6,2.8L215.6,298z"/>
	<path style="fill:#FF7058;" d="M363.2,120.8c-4.4-4.8-12.4-4.4-16,0.8L290,198c-4,5.2-2,12.8,4,15.6c1.2,0.8,2.8,1.2,4.4,2   l68.4-91.6C365.2,122.8,364.4,121.6,363.2,120.8z"/>
</g>
<path style="fill:#E6E9EE;" d="M206,385.2L206,385.2c114.8-64.8,179.6-179.6,179.6-179.6l0,0c13.2-22-0.4-58.4-19.2-81.2L298,215.6  c5.6,2.4,11.6,4.4,18,6c-22,28-54,63.2-94.4,95.2c-1.2-6.8-3.6-12.8-6-18.8L124,366.4C147.2,385.6,184,398.8,206,385.2z"/>
<g>
</g>
<g>
</g>
<g>
</g>
<g>
</g>
<g>
</g>
<g>
</g>
<g>
</g>
<g>
</g>
<g>
</g>
<g>
</g>
<g>
</g>
<g>
</g>
<g>
</g>
<g>
</g>
<g>
</g>
</svg>
