<?xml version="1.0" encoding="iso-8859-1"?>
<!-- Generator: Adobe Illustrator 19.0.0, SVG Export Plug-In . SVG Version: 6.00 Build 0)  -->
<svg xmlns="http://www.w3.org/2000/svg" xmlns:xlink="http://www.w3.org/1999/xlink" version="1.1" id="Layer_1" x="0px" y="0px" viewBox="0 0 508 508" style="enable-background:new 0 0 508 508;" xml:space="preserve">
<circle style="fill:#324A5E;" cx="254" cy="254" r="254"/>
<circle style="fill:#F9B54C;" cx="368.8" cy="298.8" r="40"/>
<path style="fill:#FFD05B;" d="M368.8,330c-17.2,0-31.2-14-31.2-31.2s14-31.2,31.2-31.2s31.2,14,31.2,31.2S386,330,368.8,330z"/>
<path style="fill:#324A5E;" d="M370.4,313.6v4.4h-3.2v-4.4c-2.8,0-5.6-0.8-8-2V306c0.8,0.8,2,1.2,3.6,2c1.6,0.4,3.2,0.8,4.4,0.8  v-7.6c-3.2-1.2-5.6-2.4-6.8-4c-1.2-1.6-1.6-3.2-1.6-5.2s0.8-4,2.4-5.6s3.6-2.4,6-2.8v-4h3.2v4c2.8,0,5.2,0.8,6.8,1.6v5.6  c-2-1.2-4-2-6.8-2v8c3.2,1.2,5.2,2.4,6.4,3.6c1.2,1.6,2,3.2,2,5.2c0,2.4-0.8,4-2.4,5.6S373.2,313.2,370.4,313.6z M367.2,295.2v-6.8  c-2,0.4-2.8,1.2-2.8,3.2C364.4,293.2,365.2,294.4,367.2,295.2z M370.4,302.4v6.4c2-0.4,3.2-1.2,3.2-2.8  C373.2,304.4,372.4,303.2,370.4,302.4z"/>
<circle style="fill:#F9B54C;" cx="338" cy="213.6" r="22.8"/>
<path style="fill:#FFD05B;" d="M338,231.2c-9.6,0-17.6-8-17.6-17.6s8-17.6,17.6-17.6s17.6,8,17.6,17.6S347.6,231.2,338,231.2z"/>
<path style="fill:#324A5E;" d="M338.8,222v2.4h-1.6V222c-1.6,0-3.2-0.4-4.4-1.2v-3.2c0.4,0.4,1.2,0.8,2,1.2s1.6,0.4,2.4,0.4v-4.4  c-2-0.8-3.2-1.6-4-2.4c-0.8-0.8-1.2-1.6-1.2-2.8s0.4-2.4,1.2-3.2c0.8-0.8,2-1.2,3.6-1.6v-2.4h1.6v2c1.6,0,2.8,0.4,3.6,0.8v3.2  c-1.2-0.8-2.4-1.2-3.6-1.2v4.4c1.6,0.8,2.8,1.2,3.6,2c0.8,0.8,1.2,1.6,1.2,2.8s-0.4,2.4-1.2,3.2C341.6,221.2,340.4,221.6,338.8,222z   M336.8,211.6V208c-1.2,0-1.6,0.8-1.6,1.6C335.2,210,336,210.8,336.8,211.6z M338.8,215.6v3.6c1.2,0,1.6-0.8,1.6-1.6  C340.4,216.4,339.6,216,338.8,215.6z"/>
<circle style="fill:#F9B54C;" cx="395.2" cy="168.4" r="22.8"/>
<path style="fill:#FFD05B;" d="M395.2,186c-9.6,0-17.6-8-17.6-17.6s8-17.6,17.6-17.6s17.6,8,17.6,17.6  C412.8,178,404.8,186,395.2,186z"/>
<path style="fill:#324A5E;" d="M396,176.8v2.4h-1.6v-2.4c-1.6,0-3.2-0.4-4.4-1.2v-3.2c0.4,0.4,1.2,0.8,2,1.2s1.6,0.4,2.4,0.4v-4.4  c-2-0.8-3.2-1.6-4-2.4c-0.8-0.8-1.2-1.6-1.2-2.8s0.4-2.4,1.2-3.2c0.8-0.8,2-1.2,3.6-1.6v-2.4h1.6v2c1.6,0,2.8,0.4,3.6,0.8v3.2  c-1.2-0.8-2.4-1.2-3.6-1.2v4.4c1.6,0.8,2.8,1.2,3.6,2c0.8,0.8,1.2,1.6,1.2,2.8s-0.4,2.4-1.2,3.2C398.8,176,397.6,176.4,396,176.8z   M394.4,166.4v-3.6c-1.2,0-1.6,0.8-1.6,1.6S393.2,165.6,394.4,166.4z M396,170.4v3.6c1.2,0,1.6-0.8,1.6-1.6  C397.6,171.6,397.2,170.8,396,170.4z"/>
<polygon style="fill:#4CDBC4;" points="282.8,387.6 138.4,312.4 138.4,195.6 282.8,120.4 "/>
<g>
	<path style="fill:#E6E9EE;" d="M88.4,195.6c-8,0-14.4,6.4-14.4,14.4v88c0,8,6.4,14.4,14.4,14.4h50V195.6H88.4z"/>
	<path style="fill:#E6E9EE;" d="M282.4,114.4c-6.4,0-11.6,5.2-11.6,11.6v256c0,6.4,5.2,11.6,11.6,11.6S294,388.4,294,382V126   C294,119.6,288.8,114.4,282.4,114.4z"/>
</g>
<g>
</g>
<g>
</g>
<g>
</g>
<g>
</g>
<g>
</g>
<g>
</g>
<g>
</g>
<g>
</g>
<g>
</g>
<g>
</g>
<g>
</g>
<g>
</g>
<g>
</g>
<g>
</g>
<g>
</g>
</svg>
