<?xml version="1.0" encoding="iso-8859-1"?>
<!-- Generator: Adobe Illustrator 19.0.0, SVG Export Plug-In . SVG Version: 6.00 Build 0)  -->
<svg xmlns="http://www.w3.org/2000/svg" xmlns:xlink="http://www.w3.org/1999/xlink" version="1.1" id="Layer_1" x="0px" y="0px" viewBox="0 0 508 508" style="enable-background:new 0 0 508 508;" xml:space="preserve">
<circle style="fill:#324A5E;" cx="254" cy="254" r="254"/>
<path style="fill:#FFFFFF;" d="M357.2,170c0-6.4-2.8-12-7.6-15.6c2.4-3.2,4-7.2,4-11.6c0-9.6-6.4-17.2-15.2-18.8  c0.4-2,0.8-3.6,0.8-5.6c0-10.4-8-19.2-18.4-19.2c-1.6,0-2.8,0-4,0.4c0-0.8,0-1.2,0-2c0-10.4-8-19.2-18.4-19.2c-3.2,0-6,0.8-8.4,2.4  c-1.6-8.8-8.8-15.6-18-15.6c-10,0-18.4,8.4-18.4,19.2v179.2l0,0l0,0c0,10.4,8,19.2,18.4,19.2c9.6,0,17.2-7.6,18-17.6  c2.8,2,6.4,3.2,10,3.2c10,0,18.4-8.4,18.4-19.2c0-1.2,0-2-0.4-3.2c1.2,0.4,2.4,0.4,4,0.4c10,0,18.4-8.4,18.4-19.2  c0-3.6-0.8-6.8-2.4-9.6c8.4-1.6,14.8-9.6,14.8-18.8c0-5.2-2-9.6-4.8-13.2C353.6,182.8,357.2,176.8,357.2,170z"/>
<g>
	<path style="fill:#CED5E0;" d="M290.4,80.8c0,0-0.8,2.4-2.8,6c-0.4,0.8-0.8,1.6-1.6,2.8c-0.4,0.8-1.2,2-1.2,2.4c0,0.8,0,0.8,0.8,2   c0.4,0.8,1.6,2.4,2,4.4c0,2-0.4,3.6-1.2,4.8c-0.8,1.2-1.6,2.4-2,3.2c-1.2,2-2,3.2-2,5.2c0,1.6,0.4,3.2,0.8,4s0.8,1.6,0.8,1.6   s-0.8,0-1.6-0.8c-0.8-0.8-2-2-2.8-4.4c-0.4-1.2-0.4-2.4,0-3.6s0.8-2.4,1.6-3.6c0.8-1.2,1.2-2,1.6-3.2c0.4-0.8,0.8-2,0.4-2.8   c0-0.8-0.4-1.2-1.2-2.4c-0.4-0.4-0.8-1.2-1.2-2.4c-0.4-0.8,0-2,0-2.8c0.4-1.6,1.6-2.8,2.4-3.6c0.8-0.8,1.6-1.6,2-2.4   C288.4,82.4,290.4,80.8,290.4,80.8z"/>
	<path style="fill:#CED5E0;" d="M338.8,123.2c0,0-0.8,0-2,0.4s-2.8,1.2-4.4,2c-3.6,2-8.8,4-12.8,7.2c-0.8,0.8-2,1.6-2.8,2.8   c-0.8,0.8-1.6,2-2.4,3.2c-1.6,2-2.8,4.4-4.4,6s-2.8,2.8-4,3.6s-1.6,0.8-1.6,0.8s2-2,4-6c0.8-2,2-4,3.2-6.4c0.8-1.2,1.2-2.4,2.4-3.6   c0.8-1.2,2-2.4,3.2-3.2c2.4-2,5.2-3.2,7.6-4.4c2.4-0.8,4.8-1.6,6.8-2s4-0.8,5.2-0.4C338,122.8,338.8,123.2,338.8,123.2z"/>
	<path style="fill:#CED5E0;" d="M317.2,99.6c0,0,0,0.4-0.4,0.8s-0.4,1.2-1.2,2c-1.2,1.6-2.8,3.6-5.6,5.6c-2.4,2-5.6,4-8,6.8   c-0.4,0.8-1.2,1.6-1.6,2c-0.4,0.8-0.8,1.6-1.2,2.4c-0.8,1.6-1.6,3.6-2.4,5.6s-1.6,4-2.8,6c-1.2,2-2.4,3.6-3.6,5.2   c-2.4,3.2-4,6-5.2,8.8c-0.8,2.8-1.2,5.6-0.8,7.2c0.4,1.6,0.8,2.8,0.8,2.8s0,0-0.4-0.4s-0.8-0.8-1.2-2c-0.8-1.6-1.6-4.8-0.8-8   c0.4-3.6,2.4-7.2,4.4-10.4c1.2-1.6,2-3.6,3.2-5.2c0.8-1.6,1.6-3.6,2.4-5.6s1.6-4,2.4-6c0.4-0.8,1.2-2,1.6-2.8   c0.8-0.8,1.6-1.6,2.4-2.4c3.2-2.8,6.4-4.4,9.2-6c2.8-1.6,4.8-2.8,6-4C316.4,100.4,317.2,99.6,317.2,99.6z"/>
	<path style="fill:#CED5E0;" d="M348,186c0,0-0.4,0-0.8,0s-1.2-0.4-2-0.8c-1.6-0.8-3.6-2.4-5.2-4.8c-0.8-1.2-2-2.4-3.2-3.2   s-2.4-2-4-2.4c-2.8-1.2-6.4-2-9.6-1.2c-3.2,0.4-6.4,2.4-8.8,4.4c-2.4,2.4-4.4,5.2-6.8,7.2s-5.2,2.4-6.8,2.4c-1.6,0-2.4-0.8-2.4-0.8   s0.8,0.4,2.4,0s3.6-1.2,5.2-3.2c2-2,3.2-5.2,6-8c2.8-3.2,6.4-5.2,10.8-6c4-0.8,8.4,0,12,2c1.6,0.8,3.2,2.4,4.4,3.6   c1.2,1.2,2,2.8,2.8,4c1.6,2.4,2.8,4.4,4,5.6C347.2,185.6,348,186,348,186z"/>
	<path style="fill:#CED5E0;" d="M318.4,246.8c0,0-0.4-0.4-1.2-1.2c-0.4-0.4-0.8-1.2-1.2-1.6c-0.4-0.8-1.2-1.2-1.6-2.4   c-1.2-2-2-4.4-2.4-6.8c0-1.2-0.4-2.8-0.4-4.4c0-1.6,0.4-2.8,0.8-4.4c0.8-2.8,1.6-5.2,2.8-7.6c0.8-2.4,1.6-4.4,2-6.4   c0.8-3.6,0.4-6.4,0.4-6.4s0.4,0.4,0.8,1.6c0.4,1.2,0.8,2.8,0.8,5.2c0,2-0.4,4.8-1.2,7.2c-0.8,2.4-1.6,5.2-2,7.6   c-0.4,1.2-0.4,2.4-0.8,3.6c0,1.2,0,2.4,0,3.6c0,2.4,0.4,4.4,1.2,6.4c0.4,0.8,0.8,1.6,0.8,2.4c0.4,0.8,0.4,1.6,0.8,2   C318,246,318.4,246.8,318.4,246.8z"/>
	<path style="fill:#CED5E0;" d="M290.4,265.2c0,0,0-1.2,0-3.2s-0.4-5.2-2-7.6c-0.8-1.2-2-2.4-3.6-3.2s-3.6-2-5.2-3.6   c-3.6-3.2-5.6-8-7.2-12.4s-2.8-8.8-3.6-13.6c-0.4-2.4-0.4-4.4-0.4-6.4s0-4,0.4-6c0.8-3.6,2-6.4,3.2-8s2-2.4,2-2.4s-0.4,1.2-1.2,2.8   c-0.8,2-1.2,4.8-1.6,8c0,1.6,0,3.6,0,5.6c0.4,2,0.4,4,1.2,6c0.8,4,2.4,8.4,4,12.8c1.6,4.4,3.6,8.4,6,11.2c1.2,1.6,2.8,2.4,4.4,4   c1.6,1.2,3.2,2.8,4,4.4c0.8,1.6,1.2,3.6,1.2,5.2s0,2.8-0.4,4C290.8,264,290.4,265.2,290.4,265.2z"/>
	<path style="fill:#CED5E0;" d="M271.2,138.4c0,0,0,2,0,6c0,2,0,4-0.4,6.8c0,2.4-0.4,5.6-0.4,8.4c0,1.6,0.4,2.8,1.2,3.6   c0.8,1.2,2,1.6,3.6,2.4c3.2,0.8,6.8,1.6,9.6,0.8c1.6-0.4,2.8-1.6,4.4-2.8c0.8-0.8,1.6-1.2,2.8-2c1.2-0.4,2.8-0.8,4-0.8   s2.8,0.4,4,1.6c0.4,0.4,1.2,1.2,1.2,2.4c0,0.4,0,0.8,0,1.2s0,0.8,0,1.2c-0.4,1.6-1.2,2.8-2,3.6s-1.6,1.6-2.4,2.4   c-3.6,2.8-7.2,4-9.6,7.2c-2.4,2.8-3.6,6.4-3.2,9.6c0,1.6,0.8,3.2,1.6,4.8c0.8,1.2,2,2.4,3.6,3.2s3.2,2.4,4,4c1.2,1.6,1.6,3.2,2,4.8   c0.8,3.2,0.4,6.4,0,9.2c-0.4,2.4-1.2,4.8-2,6.4c-1.6,3.2-2.4,5.2-2.4,5.2s0.8-2,1.6-5.6c1.2-3.6,2.4-8.8,0.8-14.4   c-0.8-2.8-2.4-5.2-5.6-6.8c-1.6-0.8-3.2-2-4.8-4c-1.2-1.6-2-4-2.4-6c-0.8-4.4,0.8-9.2,3.6-12.8c2.8-3.6,7.2-5.6,10-7.6   c1.6-1.2,2.8-2.4,3.2-3.6v-0.4V166c0,0,0-0.4-0.4-0.4c-0.4-0.4-0.8-0.4-1.6-0.8c-0.8,0-1.2,0-2,0.4s-1.6,0.8-2,1.2   c-1.6,1.2-3.2,2.8-5.2,3.2c-4.4,1.2-8.4,0-11.6-1.2c-1.6-0.8-3.6-1.6-4.8-3.2c-1.2-1.6-1.6-3.6-1.6-5.2c0-3.6,0.8-6,1.2-8.8   c0.4-2.4,0.8-4.8,0.8-6.4C270.8,140.4,271.2,138.4,271.2,138.4z"/>
</g>
<path style="fill:#FFFFFF;" d="M150.8,170c0-6.4,2.8-12,7.6-15.6c-2.4-3.2-4-7.2-4-11.6c0-9.6,6.4-17.2,15.2-18.8  c-0.4-2-0.8-3.6-0.8-5.6c0-10.4,8-19.2,18.4-19.2c1.6,0,2.8,0,4,0.4c0-0.8,0-1.2,0-2c0-10.4,8-19.2,18.4-19.2c3.2,0,6,0.8,8.4,2.4  c1.6-8.8,8.8-15.6,18-15.6c10,0,18.4,8.4,18.4,19.2v179.2l0,0l0,0c0,10.4-8,19.2-18.4,19.2c-9.6,0-17.2-7.6-18-17.6  c-2.8,2-6.4,3.2-10,3.2c-10,0-18.4-8.4-18.4-19.2c0-1.2,0-2,0.4-3.2c-1.2,0.4-2.4,0.4-4,0.4c-10,0-18.4-8.4-18.4-19.2  c0-3.6,0.8-6.8,2.4-9.6c-8.4-1.6-14.8-9.6-14.8-18.8c0-5.2,2-9.6,4.8-13.2C154.4,182.8,150.8,176.8,150.8,170z"/>
<g>
	<path style="fill:#CED5E0;" d="M217.6,80.8c0,0,0.8,2.4,2.8,6c0.4,0.8,0.8,1.6,1.6,2.8c0.4,0.8,1.2,2,1.2,2.4c0,0.8,0,0.8-0.8,2   c-0.4,0.8-1.6,2.4-2,4.4c0,2,0.4,3.6,1.2,4.8c0.8,1.2,1.6,2.4,2,3.2c1.2,2,2,3.2,2,5.2c0,1.6-0.4,3.2-0.8,4   c-0.4,0.8-0.8,1.6-0.8,1.6s0.8,0,1.6-0.8s2-2,2.8-4.4c0.4-1.2,0.4-2.4,0-3.6s-0.8-2.4-1.6-3.6s-1.2-2-1.6-3.2   c-0.4-0.8-0.8-2-0.4-2.8c0-0.8,0.4-1.2,1.2-2.4c0.4-0.4,0.8-1.2,1.2-2.4c0.4-0.8,0-2,0-2.8c-0.4-1.6-1.6-2.8-2.4-3.6   c-0.8-0.8-1.6-1.6-2-2.4C219.6,82.4,217.6,80.8,217.6,80.8z"/>
	<path style="fill:#CED5E0;" d="M169.2,123.2c0,0,0.8,0,2,0.4s2.8,1.2,4.4,2c3.6,2,8.8,4,12.8,7.2c0.8,0.8,2,1.6,2.8,2.8   c0.8,0.8,1.6,2,2.4,3.2c1.6,2,2.8,4.4,4.4,6c1.6,1.6,2.8,2.8,4,3.6s1.6,0.8,1.6,0.8s-2-2-4-6c-0.8-2-2-4-3.2-6.4   c-0.8-1.2-1.2-2.4-2.4-3.6c-0.8-1.2-2-2.4-3.2-3.2c-2.4-2-5.2-3.2-7.6-4.4c-2.4-0.8-4.8-1.6-6.8-2s-4-0.8-5.2-0.4   C170,122.8,169.2,123.2,169.2,123.2z"/>
	<path style="fill:#CED5E0;" d="M190.8,99.6c0,0,0,0.4,0.4,0.8s0.4,1.2,1.2,2c1.2,1.6,2.8,3.6,5.6,5.6c2.4,2,5.6,4,8,6.8   c0.4,0.8,1.2,1.6,1.6,2c0.4,0.8,0.8,1.6,1.2,2.4c0.8,1.6,1.6,3.6,2.4,5.6c0.8,2,1.6,4,2.8,6s2.4,3.6,3.6,5.2c2.4,3.2,4,6,5.2,8.8   c0.8,2.8,1.2,5.6,0.8,7.2c-0.4,1.6-0.8,2.8-0.8,2.8s0,0,0.4-0.4s0.8-0.8,1.2-2c0.8-1.6,1.6-4.8,0.8-8c-0.4-3.6-2.4-7.2-4.4-10.4   c-1.2-1.6-2-3.6-3.2-5.2c-0.8-1.6-1.6-3.6-2.4-5.6c-0.8-2-1.6-4-2.4-6c-0.4-0.8-1.2-2-1.6-2.8c-0.8-0.8-1.6-1.6-2.4-2.4   c-3.2-2.8-6.4-4.4-9.2-6s-4.8-2.8-6-4C191.6,100.4,190.8,99.6,190.8,99.6z"/>
	<path style="fill:#CED5E0;" d="M160,186c0,0,0.4,0,0.8,0c0.4,0,1.2-0.4,2-0.8c1.6-0.8,3.6-2.4,5.2-4.8c0.8-1.2,2-2.4,3.2-3.2   s2.4-2,4-2.4c2.8-1.2,6.4-2,9.6-1.2c3.2,0.4,6.4,2.4,8.8,4.4c2.4,2.4,4.4,5.2,6.8,7.2c2.4,2,5.2,2.4,6.8,2.4s2.4-0.8,2.4-0.8   s-0.8,0.4-2.4,0c-1.6-0.4-3.6-1.2-5.2-3.2c-2-2-3.2-5.2-6-8c-2.8-3.2-6.4-5.2-10.8-6c-4-0.8-8.4,0-12,2c-1.6,0.8-3.2,2.4-4.4,3.6   c-1.2,1.2-2,2.8-2.8,4c-1.6,2.4-2.8,4.4-4,5.6C160.8,185.6,160,186,160,186z"/>
	<path style="fill:#CED5E0;" d="M189.6,246.8c0,0,0.4-0.4,1.2-1.2c0.4-0.4,0.8-1.2,1.2-1.6c0.4-0.8,1.2-1.2,1.6-2.4   c1.2-2,2-4.4,2.4-6.8c0-1.2,0.4-2.8,0.4-4.4c0-1.6-0.4-2.8-0.8-4.4c-0.8-2.8-1.6-5.2-2.8-7.6c-0.8-2.4-1.6-4.4-2-6.4   c-0.8-3.6-0.4-6.4-0.4-6.4s0,0.4-0.4,1.2c-0.4,1.2-0.8,2.8-0.8,5.2c0,2,0.4,4.8,1.2,7.2s1.6,5.2,2,7.6c0.4,1.2,0.4,2.4,0.8,3.6   c0,1.2,0,2.4,0,3.6c0,2.4-0.4,4.4-1.2,6.4c-0.4,0.8-0.8,1.6-0.8,2.4c-0.4,0.8-0.4,1.6-0.8,2C190,246,189.6,246.8,189.6,246.8z"/>
	<path style="fill:#CED5E0;" d="M217.6,265.2c0,0,0-1.2,0-3.2s0.4-5.2,2-7.6c0.8-1.2,2-2.4,3.6-3.2s3.6-2,5.2-3.6   c3.6-3.2,5.6-8,7.2-12.4c1.6-4.4,2.8-8.8,3.6-13.6c0.4-2.4,0.4-4.4,0.4-6.4s0-4-0.4-6c-0.8-3.6-2-6.4-3.2-8s-2-2.4-2-2.4   s0.4,1.2,1.2,2.8c0.8,2,1.2,4.8,1.6,8c0,1.6,0,3.6,0,5.6c-0.4,2-0.4,4-1.2,6c-0.8,4-2.4,8.4-4,12.8c-1.6,4.4-3.6,8.4-6,11.2   c-1.2,1.6-2.8,2.4-4.4,4c-1.6,1.2-3.2,2.8-4,4.4c-0.8,1.6-1.2,3.6-1.2,5.2s0,2.8,0.4,4C217.2,264,217.6,265.2,217.6,265.2z"/>
	<path style="fill:#CED5E0;" d="M236.8,138.4c0,0,0,2,0,6c0,2,0,4,0.4,6.8c0,2.4,0.4,5.6,0.4,8.4c0,1.6-0.4,2.8-1.2,3.6   c-0.8,1.2-2,1.6-3.6,2.4c-3.2,0.8-6.8,1.6-9.6,0.8c-1.6-0.4-2.8-1.6-4.4-2.8c-0.8-0.8-1.6-1.2-2.8-2c-1.2-0.4-2.8-0.8-4-0.8   s-2.8,0.4-4,1.6c-0.4,0.4-1.2,1.2-1.2,2.4c0,0.4,0,0.8,0,1.2s0,0.8,0,1.2c0.4,1.6,1.2,2.8,2,3.6s1.6,1.6,2.4,2.4   c3.6,2.8,7.2,4,9.6,7.2c2.4,2.8,3.6,6.4,3.2,9.6c0,1.6-0.8,3.2-1.6,4.8c-0.8,1.2-2,2.4-3.6,3.2s-3.2,2.4-4,4   c-1.2,1.6-1.6,3.2-2,4.8c-0.8,3.2-0.4,6.4,0,9.2c0.4,2.4,1.2,4.8,2,6.4c1.6,3.2,2.4,5.2,2.4,5.2s-0.8-2-1.6-5.6   c-1.2-3.6-2.4-8.8-0.8-14.4c0.8-2.8,2.4-5.2,5.6-6.8c1.6-0.8,3.2-2,4.8-4c1.2-1.6,2-4,2.4-6c0.8-4.4-0.8-9.2-3.6-12.8   s-7.2-5.6-10-7.6c-1.6-1.2-2.8-2.4-3.2-3.6v-0.4V166c0,0,0-0.4,0.4-0.4c0.4-0.4,0.8-0.4,1.6-0.8c0.8,0,1.2,0,2,0.4s1.6,0.8,2,1.2   c1.6,1.2,3.2,2.8,5.2,3.2c4.4,1.2,8.4,0,11.6-1.2c1.6-0.8,3.6-1.6,4.8-3.2c1.2-1.6,1.6-3.6,1.6-5.2c0-3.6-0.8-6-1.2-8.8   c-0.4-2.4-0.8-4.8-0.8-6.4C237.2,140.4,236.8,138.4,236.8,138.4z"/>
</g>
<path style="fill:#FFD05B;" d="M145.6,184c2,22,10.4,42,23.6,58.4C193.6,273.2,206,312,206,351.2v0.8h96v-3.6  c0-39.2,14-76.8,38-107.6c12.4-16,20.4-35.6,22-56.8L145.6,184L145.6,184z"/>
<g>
	<path style="fill:#4CDBC4;" d="M297.2,363.6h-86.4c-6,0-10.8,4.8-10.8,10.8v0.8c0,6,4.8,10.8,10.8,10.8h86.4   c6,0,10.8-4.8,10.8-10.8V374C307.6,368.4,302.8,363.6,297.2,363.6z"/>
	<path style="fill:#4CDBC4;" d="M297.2,393.6h-86.4c-6,0-10.8,4.8-10.8,10.8v0.8c0,6,4.8,10.8,10.8,10.8h86.4   c6,0,10.8-4.8,10.8-10.8v-0.8C307.6,398.4,302.8,393.6,297.2,393.6z"/>
	<path style="fill:#4CDBC4;" d="M223.2,425.6c0,9.6,7.6,17.6,17.6,17.6h26.8c9.6,0,17.6-7.6,17.6-17.6H223.2z"/>
</g>
<g>
</g>
<g>
</g>
<g>
</g>
<g>
</g>
<g>
</g>
<g>
</g>
<g>
</g>
<g>
</g>
<g>
</g>
<g>
</g>
<g>
</g>
<g>
</g>
<g>
</g>
<g>
</g>
<g>
</g>
</svg>
