<?xml version="1.0" encoding="iso-8859-1"?>
<!-- Generator: Adobe Illustrator 19.0.0, SVG Export Plug-In . SVG Version: 6.00 Build 0)  -->
<svg xmlns="http://www.w3.org/2000/svg" xmlns:xlink="http://www.w3.org/1999/xlink" version="1.1" id="Layer_1" x="0px" y="0px" viewBox="0 0 508 508" style="enable-background:new 0 0 508 508;" xml:space="preserve">
<circle style="fill:#90DFAA;" cx="254" cy="254" r="254"/>
<polygon style="fill:#324A5E;" points="254,161.2 113.6,218 254,274.4 394.4,218 "/>
<path style="fill:#FFFFFF;" d="M369.2,183.2c0-7.2-3.2-13.2-8.4-17.2c2.8-3.6,4.4-8,4.4-13.2c0-10.4-7.2-19.2-16.8-21.2  c0.8-2,1.2-4,1.2-6.4c0-12-9.2-21.6-20.4-21.6c-1.6,0-3.2,0.4-4.4,0.4c0-0.8,0.4-1.6,0.4-2.4c0-12-9.2-21.6-20.4-21.6  c-3.6,0-6.8,0.8-9.6,2.4c-1.6-10-10-17.6-20-17.6c-11.2,0-20.4,9.6-20.4,21.6v200.4l0,0l0,0c0,12,9.2,21.6,20.4,21.6  c10.8,0,19.2-8.4,20.4-19.6c3.2,2.4,7.2,3.6,11.2,3.6c11.2,0,20.4-9.6,20.4-21.6c0-1.2,0-2.4-0.4-3.6c1.6,0.4,2.8,0.4,4.4,0.4  c11.2,0,20.4-9.6,20.4-21.6c0-4-1.2-7.6-2.8-10.4c9.6-2,16.8-10.4,16.8-21.2c0-5.6-2-10.8-5.6-14.4  C365.6,197.6,369.2,190.8,369.2,183.2z"/>
<g>
	<path style="fill:#CED5E0;" d="M294.4,83.6c0,0-1.2,2.8-3.2,6.4c-0.4,0.8-1.2,2-1.6,3.2c-0.8,1.2-1.2,2-1.2,2.8s0,0.8,0.8,2   c0.8,0.8,2,2.8,2,4.8s-0.4,4-1.2,5.2c-0.8,1.6-1.6,2.4-2.4,3.6c-1.6,2-2.4,3.6-2.4,5.6s0.4,3.6,1.2,4.4c0.4,1.2,1.2,1.6,1.2,1.6   s-0.8-0.4-1.6-1.2c-1.2-0.8-2.4-2.4-2.8-4.8c-0.4-1.2-0.4-2.8,0-4c0.4-1.6,0.8-2.8,1.6-4c0.8-1.2,1.2-2.4,2-3.6   c0.4-1.2,0.8-2,0.8-2.8s-0.4-1.6-1.2-2.8c-0.4-0.8-0.8-1.6-1.2-2.4c-0.4-1.2-0.4-2.4,0-3.2c0.8-2,1.6-2.8,2.4-4   c0.8-0.8,1.6-1.6,2.4-2.4C292.4,85.6,294.4,83.6,294.4,83.6z"/>
	<path style="fill:#CED5E0;" d="M348.8,131.2c0,0-0.8,0-2,0.4s-3.2,1.2-5.2,2.4c-4,2.4-10,4.4-14.4,8c-1.2,0.8-2,2-3.2,3.2   c-0.8,1.2-2,2.4-2.8,3.6c-1.6,2.4-3.2,4.8-4.8,6.8c-1.6,2-3.2,3.2-4.4,4c-1.2,0.8-2,0.8-2,0.8s2.4-2.4,4.4-6.4   c1.2-2,2.4-4.8,3.6-7.2c0.8-1.2,1.6-2.8,2.8-4c1.2-1.2,2.4-2.8,3.6-3.6c2.8-2,5.6-3.6,8.4-4.8s5.6-1.6,7.6-2.4   c2.4-0.4,4.4-0.8,6-0.8C348,130.8,348.8,131.2,348.8,131.2z"/>
	<path style="fill:#CED5E0;" d="M324.8,104.8c0,0,0,0.4-0.4,0.8s-0.8,1.2-1.2,2c-1.2,1.6-3.2,4-6,6c-2.8,2.4-6,4.4-8.8,7.6   c-0.8,0.8-1.2,1.6-2,2.4c-0.8,1.2-1.2,1.6-1.6,2.8c-0.8,2-1.6,4-2.4,6.4s-2,4.4-3.2,6.8c-1.2,2-2.8,4-4,5.6   c-2.4,3.6-4.8,6.8-5.6,10c-1.2,3.2-1.2,6-0.8,8c0.8,2,1.2,2.8,1.2,2.8s0-0.4-0.4-0.8c-0.4-0.4-0.8-1.2-1.2-2   c-0.8-2-1.6-5.2-0.8-8.8c0.4-4,2.8-8,4.8-11.6c1.2-2,2.4-4,3.2-5.6c1.2-2,2-4,2.8-6s1.6-4.4,2.8-6.8c0.4-1.2,1.2-2.4,2-3.2   c0.8-1.2,1.6-2,2.4-2.8c3.6-3.2,7.2-5.2,10-6.8c2.8-1.6,5.2-3.2,6.8-4.4C324,105.6,324.8,104.8,324.8,104.8z"/>
	<path style="fill:#CED5E0;" d="M359.2,201.2c0,0-0.4,0-0.8,0s-1.2-0.4-2-0.8c-1.6-0.8-4-2.8-6-5.2c-1.2-1.2-2-2.4-3.6-3.6   c-1.2-1.2-2.8-2-4.4-2.8c-3.2-1.6-7.2-2.4-10.8-1.6c-3.6,0.4-7.2,2.4-10,5.2c-2.8,2.4-4.8,6-7.6,8c-2.8,2.4-5.6,2.8-7.6,2.8   c-2-0.4-2.8-1.2-2.8-0.8c0,0,1.2,0.4,2.8,0c1.6-0.4,4-1.6,6-3.6c2-2.4,3.6-5.6,6.4-9.2c2.8-3.6,7.2-6,12-6.8s9.6,0,13.2,2.4   c2,1.2,3.6,2.4,4.8,4c1.2,1.6,2.4,3.2,3.2,4.4c1.6,2.8,3.2,5.2,4.4,6.4C358,200.8,359.2,201.2,359.2,201.2z"/>
	<path style="fill:#CED5E0;" d="M326,269.2c0,0-0.4-0.4-1.6-1.6c-0.4-0.4-0.8-1.2-1.6-2c-0.4-0.8-1.2-1.6-2-2.4   c-1.2-2-2.4-4.8-2.8-8c0-1.2,0-2.8,0-4.4c0-1.6,0.4-3.2,0.8-4.8c0.8-3.2,2-6,3.2-8.4s2-4.8,2.4-6.8c1.2-4,0.4-7.2,0.4-7.2   s0.4,0.8,0.8,2s1.2,3.2,1.2,5.6c0,2.4-0.4,5.2-1.2,8c-0.8,2.8-1.6,5.6-2.4,8.4c-0.4,1.2-0.8,2.8-0.8,4s-0.4,2.8,0,4   c0,2.4,0.8,5.2,1.2,7.2c0.4,0.8,0.8,2,1.2,2.8c0.4,0.8,0.4,1.6,0.8,2.4C325.6,268.4,326,269.2,326,269.2z"/>
	<path style="fill:#CED5E0;" d="M294.8,290c0,0,0-1.2,0-3.6s-0.4-5.6-2-8.4c-0.8-1.6-2.4-2.4-4-3.6s-4-2.4-5.6-4.4   c-4-3.6-6.4-8.8-8-13.6c-1.6-5.2-3.2-10-4-15.2c-0.4-2.4-0.8-4.8-0.8-7.2s0.4-4.8,0.8-6.8c0.8-4,2.4-7.2,3.6-9.2s2.4-2.8,2.4-2.8   s-0.8,1.2-1.6,3.2c-0.8,2-1.6,5.2-1.6,8.8c0,2,0,4,0,6c0.4,2,0.8,4.4,1.2,6.8c1.2,4.4,2.8,9.6,4.4,14.4s4,9.2,6.8,12.4   c1.6,1.6,3.2,2.8,4.8,4.4c1.6,1.2,3.6,3.2,4.4,5.2c1.2,2,1.2,4,1.2,5.6s0,3.2-0.4,4.4C295.2,288.8,294.8,290,294.8,290z"/>
	<path style="fill:#CED5E0;" d="M273.2,148c0,0,0,2.4,0,6.4c0,2,0,4.4-0.4,7.6c0,2.8-0.4,6.4-0.4,9.6c0,1.6,0.4,3.2,1.6,4.4   c0.8,1.2,2.4,2,4,2.4c3.6,1.2,7.6,2,10.8,0.8c1.6-0.4,2.8-2,4.8-3.2c0.8-0.8,2-1.6,3.2-2c1.2-0.8,2.8-0.8,4.4-0.8s2.8,0.4,4.4,2   c0.8,0.8,1.2,1.6,1.6,2.4c0,0.4,0.4,1.2,0.4,1.2c0,0.8,0,0.8,0,1.6c-0.4,1.6-1.2,3.2-2,4s-2,2-2.8,2.8c-4,3.2-8,4.8-10.4,8   s-4,7.2-3.6,10.8c0.4,2,0.8,3.6,2,5.2c0.8,1.6,2.4,2.4,4,3.6c1.6,1.2,3.6,2.8,4.4,4.4c1.2,1.6,2,3.6,2.4,5.6c0.8,3.6,0.8,7.2,0,10   s-1.6,5.2-2.4,7.2c-1.6,3.6-2.8,6-2.8,6s0.8-2.4,2-6c1.2-4,2.8-10,0.8-16c-1.2-3.2-2.8-6-6-7.6c-1.6-0.8-3.6-2.4-5.2-4.4   s-2.4-4.4-2.8-6.8c-0.8-5.2,0.8-10.4,4-14.4s8-6,11.2-8.8c1.6-1.2,3.2-2.8,3.2-4v-0.4v-0.4c0,0,0-0.4-0.4-0.4   c-0.4-0.4-0.8-0.8-1.6-0.8c-0.8,0-1.6,0-2,0.4c-0.8,0.4-1.6,0.8-2.4,1.6c-1.6,1.2-3.6,2.8-6,3.6c-4.8,1.6-9.2,0-13.2-1.6   c-2-0.8-4-2-5.2-3.6c-1.2-2-2-4-1.6-6c0-4,0.8-6.8,1.2-9.6c0.4-2.8,0.8-5.2,1.2-7.2C272.8,150.4,273.2,148,273.2,148z"/>
</g>
<path style="fill:#FFFFFF;" d="M138.8,183.2c0-7.2,3.2-13.2,8.4-17.2c-2.8-3.6-4.4-8-4.4-13.2c0-10.4,7.2-19.2,16.8-21.2  c-0.8-2-1.2-4-1.2-6.4c0-12,9.2-21.6,20.4-21.6c1.6,0,3.2,0.4,4.4,0.4c0-0.8-0.4-1.6-0.4-2.4c0-12,9.2-21.6,20.4-21.6  c3.6,0,6.8,0.8,9.6,2.4c1.6-10,10-17.6,20-17.6c11.2,0,20.4,9.6,20.4,21.6v200.4l0,0l0,0c0,12-9.2,21.6-20.4,21.6  c-10.8,0-19.2-8.4-20.4-19.6c-3.2,2.4-7.2,3.6-11.2,3.6c-11.2,0-20.4-9.6-20.4-21.6c0-1.2,0-2.4,0.4-3.6c-1.6,0.4-2.8,0.4-4.4,0.4  c-11.2,0-20.4-9.6-20.4-21.6c0-4,1.2-7.6,2.8-10.4c-9.6-2-16.8-10.4-16.8-21.2c0-5.6,2-10.8,5.6-14.4  C142.8,197.6,138.8,190.8,138.8,183.2z"/>
<g>
	<path style="fill:#CED5E0;" d="M213.6,83.6c0,0,1.2,2.8,3.2,6.4c0.4,0.8,1.2,2,1.6,3.2c0.8,1.2,1.2,2,1.2,2.8s0,0.8-0.8,2   c-0.8,0.8-2,2.8-2,4.8s0.4,4,1.2,5.2c0.8,1.6,1.6,2.4,2.4,3.6c1.6,2,2.4,3.6,2.4,5.6s-0.4,3.6-1.2,4.4c-0.4,1.2-1.2,1.6-1.2,1.6   s0.8-0.4,1.6-1.2c1.2-0.8,2.4-2.4,2.8-4.8c0.4-1.2,0.4-2.8,0-4c-0.4-1.6-0.8-2.8-1.6-4s-1.2-2.4-2-3.6c-0.4-1.2-0.8-2-0.8-2.8   s0.4-1.6,1.2-2.8c0.4-0.8,0.8-1.6,1.2-2.4c0.4-1.2,0.4-2.4,0-3.2c-0.8-2-1.6-2.8-2.4-4c-0.8-0.8-1.6-1.6-2.4-2.4   C216,85.6,213.6,83.6,213.6,83.6z"/>
	<path style="fill:#CED5E0;" d="M159.6,131.2c0,0,0.8,0,2,0.4s3.2,1.2,5.2,2.4c4,2.4,10,4.4,14.4,8c1.2,0.8,2,2,3.2,3.2   c0.8,1.2,2,2.4,2.8,3.6c1.6,2.4,3.2,4.8,4.8,6.8s3.2,3.2,4.4,4s2,0.8,2,0.8S196,158,194,154c-1.2-2-2.4-4.8-3.6-7.2   c-0.8-1.2-1.6-2.8-2.8-4s-2.4-2.8-3.6-3.6c-2.8-2-5.6-3.6-8.4-4.8c-2.8-1.2-5.6-1.6-7.6-2.4c-2.4-0.4-4.4-0.8-6-0.8   C160.4,130.8,159.6,131.2,159.6,131.2z"/>
	<path style="fill:#CED5E0;" d="M183.6,104.8c0,0,0,0.4,0.4,0.8s0.8,1.2,1.2,2c1.2,1.6,3.2,4,6,6c2.8,2.4,6,4.4,8.8,7.6   c0.8,0.8,1.2,1.6,2,2.4c0.8,1.2,1.2,1.6,1.6,2.8c0.8,2,1.6,4,2.4,6.4c0.8,2.4,2,4.4,3.2,6.8c1.2,2,2.8,4,4,5.6   c2.4,3.6,4.8,6.8,5.6,10c1.2,3.2,1.2,6,0.8,8c-0.8,2-1.6,2.8-1.6,2.8s0-0.4,0.4-0.8c0.4-0.4,0.8-1.2,1.2-2c0.8-2,1.6-5.2,0.8-8.8   c-0.4-4-2.8-8-4.8-11.6c-1.2-2-2.4-4-3.2-5.6c-1.2-2-2-4-2.8-6s-1.6-4.4-2.8-6.8c-0.4-1.2-1.2-2.4-2-3.2c-0.8-1.2-1.6-2-2.4-2.8   c-3.6-3.2-7.2-5.2-10-6.8c-2.8-1.6-5.2-3.2-6.8-4.4C184.4,105.6,183.6,104.8,183.6,104.8z"/>
	<path style="fill:#CED5E0;" d="M149.2,201.2c0,0,0.4,0,0.8,0c0.4,0,1.2-0.4,2-0.8c1.6-0.8,4-2.8,6-5.2c1.2-1.2,2-2.4,3.6-3.6   c1.2-1.2,2.8-2,4.4-2.8c3.2-1.6,7.2-2.4,10.8-1.6c3.6,0.4,7.2,2.4,10,5.2c2.8,2.4,4.8,6,7.6,8c2.8,2.4,5.6,2.8,7.6,2.8   c2-0.4,2.8-1.2,2.8-0.8c0,0-1.2,0.4-2.8,0s-4-1.6-6-3.6c-2-2.4-3.6-5.6-6.4-9.2c-2.8-3.6-7.2-6-12-6.8s-9.6,0-13.2,2.4   c-2,1.2-3.6,2.4-4.8,4s-2.4,3.2-3.2,4.4c-1.6,2.8-3.2,5.2-4.4,6.4C150,200.8,149.2,201.2,149.2,201.2z"/>
	<path style="fill:#CED5E0;" d="M182.4,269.2c0,0,0.4-0.4,1.6-1.6c0.4-0.4,0.8-1.2,1.6-2c0.4-0.8,1.2-1.6,2-2.4c1.2-2,2.4-4.8,2.8-8   c0.4-1.6,0.4-3.2,0.4-4.8s-0.4-3.2-0.8-4.8c-0.8-3.2-2-6-3.2-8.4s-2-4.8-2.4-6.8c-1.2-4-0.4-7.2-0.4-7.2s-0.4,0.8-0.8,2   c-0.4,1.2-1.2,3.2-1.2,5.6c0,2.4,0.4,5.2,1.2,8s1.6,5.6,2.4,8.4c0.4,1.2,0.8,2.8,0.8,4s0.4,2.8,0,4c0,2.4-0.8,5.2-1.2,7.2   c-0.4,0.8-0.8,2-1.2,2.8s-0.4,1.6-0.8,2.4C182.4,268.4,182.4,269.2,182.4,269.2z"/>
	<path style="fill:#CED5E0;" d="M213.6,290c0,0,0-1.2,0-3.6s0.4-5.6,2-8.4c0.8-1.6,2.4-2.4,4-3.6s4-2.4,5.6-4.4   c4-3.6,6.4-8.8,8-13.6c1.6-5.2,3.2-10,4-15.2c0.4-2.4,0.8-4.8,0.8-7.2s-0.4-4.8-0.4-6.8c-0.8-4-2.4-7.2-3.6-9.2   c-1.2-2-2.4-2.8-2.4-2.8s0.8,1.2,1.6,3.2s1.6,5.2,1.6,8.8c0,2,0,4,0,6c-0.4,2-0.8,4.4-1.2,6.8c-1.2,4.4-2.8,9.6-4.4,14.4   c-1.6,4.8-4,9.2-6.8,12.4c-1.6,1.6-3.2,2.8-4.8,4.4c-1.6,1.2-3.6,3.2-4.4,5.2c-1.2,2-1.2,4-1.2,5.6s0,3.2,0.4,4.4   C213.2,288.8,213.6,290,213.6,290z"/>
	<path style="fill:#CED5E0;" d="M234.8,148c0,0,0,2.4,0,6.4c0,2,0,4.4,0.4,7.6c0,2.8,0.4,6.4,0.4,9.6c0,1.6-0.4,3.2-1.6,4.4   c-0.8,1.2-2.4,2-4,2.4c-3.6,1.2-7.6,2-10.8,0.8c-1.6-0.4-2.8-2-4.8-3.2c-0.8-0.8-2-1.6-3.2-2c-1.2-0.8-2.8-0.8-4.4-0.8   c-1.6,0-2.8,0.4-4.4,2c-0.8,0.8-1.2,1.6-1.6,2.4c0,0.4-0.4,1.2-0.4,1.2c0,0.8,0,0.8,0,1.6c0.4,1.6,1.2,3.2,2,4s2,2,2.8,2.8   c4,3.2,8,4.8,10.4,8s4,7.2,3.6,10.8c-0.4,2-0.8,3.6-2,5.2c-0.8,1.6-2.4,2.4-4,3.6c-1.6,1.2-3.6,2.8-4.4,4.4c-1.2,1.6-2,3.6-2.4,5.6   c-0.8,3.6-0.8,7.2,0,10s1.6,5.2,2.4,7.2c1.6,3.6,2.8,6,2.8,6s-0.8-2.4-2-6c-1.2-4-2.8-10-0.8-16c1.2-3.2,2.8-6,6-7.6   c1.6-0.8,3.6-2.4,5.2-4.4c1.6-2,2.4-4.4,2.8-6.8c0.8-5.2-0.8-10.4-4-14.4s-8-6-11.2-8.8c-1.6-1.2-3.2-2.8-3.2-4v-0.4v-0.4   c0,0,0-0.4,0.4-0.4c0.4-0.4,0.8-0.8,1.6-0.8s1.6,0,2,0.4c0.8,0.4,1.6,0.8,2.4,1.6c1.6,1.2,3.6,2.8,6,3.6c4.8,1.6,9.2,0,13.2-1.6   c2-0.8,4-2,5.2-3.6c1.2-2,2-4,1.6-6c0-4-0.8-6.8-1.2-9.6s-0.8-5.2-1.2-7.2C235.2,150.4,234.8,148,234.8,148z"/>
</g>
<polygon style="fill:#FFD05B;" points="254,274.4 254,434 394.4,377.6 394.4,218 "/>
<g>
	<polygon style="fill:#F9B54C;" points="254,274.4 254,434 113.6,377.6 113.6,218  "/>
	<polyline style="fill:#F9B54C;" points="394.4,218 443.6,264.4 304,330.8 254,274.4  "/>
</g>
<polygon style="fill:#FFD05B;" points="113.6,218 64.4,264.4 204,330.8 254,274.4 "/>
<g>
</g>
<g>
</g>
<g>
</g>
<g>
</g>
<g>
</g>
<g>
</g>
<g>
</g>
<g>
</g>
<g>
</g>
<g>
</g>
<g>
</g>
<g>
</g>
<g>
</g>
<g>
</g>
<g>
</g>
</svg>
