<?xml version="1.0" encoding="iso-8859-1"?>
<!-- Generator: Adobe Illustrator 19.0.0, SVG Export Plug-In . SVG Version: 6.00 Build 0)  -->
<svg xmlns="http://www.w3.org/2000/svg" xmlns:xlink="http://www.w3.org/1999/xlink" version="1.1" id="Layer_1" x="0px" y="0px" viewBox="0 0 508 508" style="enable-background:new 0 0 508 508;" xml:space="preserve">
<circle style="fill:#FFD05B;" cx="254" cy="254" r="254"/>
<polygon style="fill:#FFFFFF;" points="316.4,323.2 85.2,323.6 85.2,192.8 316.4,192.8 "/>
<path style="fill:#4CDBC4;" d="M280,313.6H120.8c0-12.8-10.4-22.8-22.8-22.8V228c12.8,0,22.8-10.4,22.8-22.8H280  c0,12.8,10.4,22.8,22.8,22.8v62.8C290,290.8,280,300.8,280,313.6z"/>
<g>
	<ellipse style="fill:#2C9984;" cx="132.4" cy="259.2" rx="8.8" ry="11.6"/>
	<ellipse style="fill:#2C9984;" cx="268" cy="259.2" rx="8.8" ry="11.6"/>
	<ellipse style="fill:#2C9984;" cx="200.4" cy="259.2" rx="28.4" ry="36.4"/>
</g>
<path style="fill:#FF7058;" d="M366.8,155.6c-2.8,0-5.2,2.4-5.2,5.2v110.4c0,2.8,2.4,5.2,5.2,5.2h56V155.6H366.8z"/>
<circle style="fill:#4CDBC4;" cx="392.4" cy="246.8" r="7.6"/>
<path style="fill:#324A5E;" d="M270,155.2c-1.6,0-3.6,0-5.2,0.8l-55.6,23.2c-3.2,1.2-5.6,4-6.4,7.2l-10.4,36.8  c-0.8,2.8,0.8,5.6,3.6,6c17.2,4.4,35.2-6,39.6-23.2l0.8-2.8L264,194l52,1.2V324H174.8h-1.2c-0.8,7.6,3.2,14.8,10.4,17.6  c8.8,3.6,19.2-0.4,22.8-9.2l2.8-7.2l0,0l-1.6,4c-3.6,8.8,0.4,19.2,9.2,22.8c8.8,3.6,19.2-0.4,22.8-9.2l4.4-10  c-1.6,8,2.8,16,10.4,19.6c8.8,3.6,19.2-0.4,22.8-9.2l5.2-12.4c0.4,6.4,4.4,12.8,10.8,15.6c8.8,3.6,19.2-0.4,22.8-9.2l33.6-64.8h10.8  V160.8L270,155.2z"/>
<g>
</g>
<g>
</g>
<g>
</g>
<g>
</g>
<g>
</g>
<g>
</g>
<g>
</g>
<g>
</g>
<g>
</g>
<g>
</g>
<g>
</g>
<g>
</g>
<g>
</g>
<g>
</g>
<g>
</g>
</svg>
