<?xml version="1.0" encoding="iso-8859-1"?>
<!-- Generator: Adobe Illustrator 19.0.0, SVG Export Plug-In . SVG Version: 6.00 Build 0)  -->
<svg xmlns="http://www.w3.org/2000/svg" xmlns:xlink="http://www.w3.org/1999/xlink" version="1.1" id="Layer_1" x="0px" y="0px" viewBox="0 0 508 508" style="enable-background:new 0 0 508 508;" xml:space="preserve">
<circle style="fill:#FD8469;" cx="254" cy="254" r="254"/>
<polygon style="fill:#CED5E0;" points="209.6,344.4 188,386.4 320,386.4 298.4,344.4 "/>
<g>
	<path style="fill:#E6E9EE;" d="M324.8,406H183.2c-6.8,0-12-5.2-12-12l0,0c0-6.8,5.2-12,12-12h142c6.8,0,12,5.2,12,12l0,0   C336.8,400.8,331.6,406,324.8,406z"/>
	<path style="fill:#E6E9EE;" d="M398,118.8H110c-4.8,0-8.4,3.6-8.4,8.4v213.6c0,4.8,3.6,8.4,8.4,8.4h288c4.8,0,8.4-3.6,8.4-8.4   V127.2C406.8,122.4,402.8,118.8,398,118.8z"/>
</g>
<rect x="121.2" y="138.4" style="fill:#4CDBC4;" width="265.2" height="160.4"/>
<polygon style="fill:#324A5E;" points="343.2,168.4 301.2,171.6 313.6,183.6 261.2,236 222.4,197.2 164.8,255.2 179.2,269.6   222.4,226 261.2,264.8 328,198 340,210 "/>
<circle style="fill:#F9B54C;" cx="254" cy="324" r="10"/>
<g>
</g>
<g>
</g>
<g>
</g>
<g>
</g>
<g>
</g>
<g>
</g>
<g>
</g>
<g>
</g>
<g>
</g>
<g>
</g>
<g>
</g>
<g>
</g>
<g>
</g>
<g>
</g>
<g>
</g>
</svg>
