<?xml version="1.0" encoding="iso-8859-1"?>
<!-- Generator: Adobe Illustrator 19.0.0, SVG Export Plug-In . SVG Version: 6.00 Build 0)  -->
<svg xmlns="http://www.w3.org/2000/svg" xmlns:xlink="http://www.w3.org/1999/xlink" version="1.1" id="Layer_1" x="0px" y="0px" viewBox="0 0 508 508" style="enable-background:new 0 0 508 508;" xml:space="preserve">
<circle style="fill:#FD8469;" cx="254" cy="254" r="254"/>
<g>
	<path style="fill:#324A5E;" d="M201.2,384.8l-24.4-92.4h-55.2l26.8,98.4c1.2,3.6,4.8,6,8.8,6h35.6   C198.8,397.2,203.2,390.8,201.2,384.8z"/>
	<path style="fill:#324A5E;" d="M363.2,195.2v92.4c16-6.8,27.2-24.8,27.2-46C390.4,220,378.8,202,363.2,195.2z"/>
</g>
<path style="fill:#E6E9EE;" d="M127.6,183.2c-22.8,0-41.6,18.8-41.6,42v32c0,23.2,18.8,42,42,42h83.6v-116L127.6,183.2L127.6,183.2z  "/>
<path style="fill:#FFD05B;" d="M350.4,102c-56,53.6-138.8,81.2-138.8,81.2v58v58c0,0,83.2,28,138.8,81.2c6.4,6,16.8,1.6,16.8-7.2  v-132v-132C367.2,100.4,356.8,96,350.4,102z"/>
<path style="fill:#E6E9EE;" d="M352.8,94.8c-8,0-14.4,6.4-14.4,14.4v264c0,8,6.4,14.4,14.4,14.4s14.4-6.4,14.4-14.4v-264  C367.2,101.2,360.8,94.8,352.8,94.8z"/>
<g>
</g>
<g>
</g>
<g>
</g>
<g>
</g>
<g>
</g>
<g>
</g>
<g>
</g>
<g>
</g>
<g>
</g>
<g>
</g>
<g>
</g>
<g>
</g>
<g>
</g>
<g>
</g>
<g>
</g>
</svg>
