<?xml version="1.0" encoding="iso-8859-1"?>
<!-- Generator: Adobe Illustrator 19.0.0, SVG Export Plug-In . SVG Version: 6.00 Build 0)  -->
<svg xmlns="http://www.w3.org/2000/svg" xmlns:xlink="http://www.w3.org/1999/xlink" version="1.1" id="Layer_1" x="0px" y="0px" viewBox="0 0 508 508" style="enable-background:new 0 0 508 508;" xml:space="preserve">
<circle style="fill:#FFD05B;" cx="254" cy="254" r="254"/>
<path style="fill:#324A5E;" d="M352,95.6H156c-5.6,0-10.4,4.8-10.4,10.4v296c0,5.6,4.8,10.4,10.4,10.4h195.6  c5.6,0,10.4-4.8,10.4-10.4V106C362,100,357.6,95.6,352,95.6z"/>
<rect x="163.6" y="136.4" style="fill:#E6E9EE;" width="180.8" height="231.2"/>
<path style="fill:#FF7058;" d="M285.2,367.6h59.2V250.4l-64.8-64.8c-3.2-3.2-8.4-3.2-11.6,0l-76.4,76.8c-3.2,3.2-3.2,8.4,0,11.6  L285.2,367.6z"/>
<path style="fill:#84DBFF;" d="M344.4,344.8c-2.4,2-5.2,4-8.4,5.2l-10.8-10.8c3.6-2.8,7.2-5.6,10.8-9.2c3.2-3.2,6-6.4,8.4-9.6v-9.6  v0.4L334,300.8l10.4-10.4v-7.6l-14.4,14l-10.4-10.4c9.6-5.6,18.8-8,24.8-5.6v-7.6c-18.4-12.4-43.2-10.4-59.6,6  c-18.4,18.4-18.4,48.4,0,66.4c16,16,41.2,18,59.6,6V344.8z M330,304.4l11.2,11.2c-2.4,3.6-5.6,7.2-9.2,10.8  c-3.6,3.6-7.2,6.4-10.8,9.2L310,324L330,304.4z M326,300.4L306.4,320l-11.2-11.2c2.4-3.6,5.6-7.2,9.2-10.8c3.6-3.6,7.2-6.4,10.8-9.2  L326,300.4z M336,274.8c-6,0.8-13.2,3.2-20.4,7.6l-10-10C315.6,269.6,326.4,270.4,336,274.8z M288.8,282.8c3.6-3.6,7.6-6,11.6-8  l10.8,10.8c-3.6,2.8-7.2,5.6-10.8,9.2c-3.6,3.6-6.4,7.2-9.2,10.8l-10.8-10.8C282.4,290.4,285.2,286.4,288.8,282.8z M280.4,330  c-4.4-9.6-5.2-20.4-2-30l10,10C284,316.8,281.2,324,280.4,330z M292,313.6l10.4,10.4l-15.6,15.6C284,333.6,286,324,292,313.6z   M290.8,343.2l15.6-15.6l10.4,10.4C306.4,344.4,296.8,346.4,290.8,343.2z M300.4,350c6-0.8,13.2-3.2,20.4-7.6l10,10  C320.8,355.2,310,354.4,300.4,350z"/>
<path style="fill:#FFD05B;" d="M297.2,232.4l-21.6-21.6c-0.8-0.8-2-0.8-2.8,0l-21.6,21.6c-0.8,0.8-0.8,2,0,2.8l21.6,21.6  c0.8,0.8,2,0.8,2.8,0l21.6-21.6C298,234.4,298,233.2,297.2,232.4z"/>
<rect x="228" y="111.2" style="fill:#CED5E0;" width="51.6" height="9.6"/>
<circle style="fill:#E6E9EE;" cx="254" cy="390" r="9.2"/>
<g>
</g>
<g>
</g>
<g>
</g>
<g>
</g>
<g>
</g>
<g>
</g>
<g>
</g>
<g>
</g>
<g>
</g>
<g>
</g>
<g>
</g>
<g>
</g>
<g>
</g>
<g>
</g>
<g>
</g>
</svg>
