<?xml version="1.0" encoding="iso-8859-1"?>
<!-- Generator: Adobe Illustrator 19.0.0, SVG Export Plug-In . SVG Version: 6.00 Build 0)  -->
<svg xmlns="http://www.w3.org/2000/svg" xmlns:xlink="http://www.w3.org/1999/xlink" version="1.1" id="Layer_1" x="0px" y="0px" viewBox="0 0 508 508" style="enable-background:new 0 0 508 508;" xml:space="preserve">
<circle style="fill:#84DBFF;" cx="254" cy="254" r="254"/>
<path style="fill:#FFFFFF;" d="M391.2,144.4H116.8c-4.4,0-8,3.6-8,8v206.8c0,4.4,3.6,8,8,8h274.4c4.4,0,8-3.6,8-8V152.4  C399.6,148,395.6,144.4,391.2,144.4z"/>
<rect x="132.4" y="192" style="fill:#E6E9EE;" width="243.2" height="152"/>
<rect x="209.2" y="156" style="fill:#84DBFF;" width="90" height="16.4"/>
<rect x="227.2" y="84.8" style="fill:#324A5E;" width="53.2" height="79.6"/>
<circle style="fill:#FFD05B;" cx="254" cy="114.4" r="12"/>
<g>
	<circle style="fill:#324A5E;" cx="195.2" cy="241.2" r="23.2"/>
	<path style="fill:#324A5E;" d="M241.2,317.6c-0.4-24.8-20.8-44.8-46-44.8s-45.2,20-46,44.8H241.2z"/>
</g>
<g>
	<rect x="254" y="228" style="fill:#ACB3BA;" width="101.2" height="11.6"/>
	<rect x="254" y="262" style="fill:#ACB3BA;" width="101.2" height="11.6"/>
	<rect x="298.8" y="295.6" style="fill:#ACB3BA;" width="56.4" height="11.6"/>
</g>
<g>
</g>
<g>
</g>
<g>
</g>
<g>
</g>
<g>
</g>
<g>
</g>
<g>
</g>
<g>
</g>
<g>
</g>
<g>
</g>
<g>
</g>
<g>
</g>
<g>
</g>
<g>
</g>
<g>
</g>
</svg>
