<?xml version="1.0" encoding="iso-8859-1"?>
<!-- Generator: Adobe Illustrator 19.0.0, SVG Export Plug-In . SVG Version: 6.00 Build 0)  -->
<svg xmlns="http://www.w3.org/2000/svg" xmlns:xlink="http://www.w3.org/1999/xlink" version="1.1" id="Layer_1" x="0px" y="0px" viewBox="0 0 508 508" style="enable-background:new 0 0 508 508;" xml:space="preserve">
<circle style="fill:#324A5E;" cx="254" cy="254" r="254"/>
<rect x="204.729" y="275.616" transform="matrix(-0.7071 0.7071 -0.7071 -0.7071 700.5512 289.4536)" style="fill:#4CDBC4;" width="171.198" height="28.4"/>
<path style="fill:#E6E9EE;" d="M361.6,383.2l19.2,19.2l22.8-22.8l-19.2-19.2c18.4-28.8,15.2-67.6-10-93.2l-20.8-20.8l-106,106.4  l20.8,20.8C293.6,398.4,332.4,402,361.6,383.2z"/>
<rect x="129.032" y="199.504" transform="matrix(0.7071 -0.7071 0.7071 0.7071 -88.2477 214.3598)" style="fill:#4CDBC4;" width="171.198" height="28.4"/>
<g>
	<path style="fill:#E6E9EE;" d="M143.6,120l-19.2-19.2l-22.8,22.8l19.2,19.2c-18.4,28.8-15.2,67.6,10,93.2l20.8,20.8l105.6-105.6   L236.8,130C211.2,104.8,172.4,101.6,143.6,120z"/>
	<path style="fill:#E6E9EE;" d="M181.2,266.8l31.2,31.2c5.6,5.6,14.8,5.6,20.4,0l0,0c5.6-5.6,5.6-14.8,0-20.4l-31.2-31.2   L181.2,266.8z"/>
	<path style="fill:#E6E9EE;" d="M247.6,200.8l31.2,31.2c5.6,5.6,14.8,5.6,20.4,0l0,0c5.6-5.6,5.6-14.8,0-20.4L268,180.4L247.6,200.8   z"/>
</g>
<g>
</g>
<g>
</g>
<g>
</g>
<g>
</g>
<g>
</g>
<g>
</g>
<g>
</g>
<g>
</g>
<g>
</g>
<g>
</g>
<g>
</g>
<g>
</g>
<g>
</g>
<g>
</g>
<g>
</g>
</svg>
