<?xml version="1.0" encoding="iso-8859-1"?>
<!-- Generator: Adobe Illustrator 19.0.0, SVG Export Plug-In . SVG Version: 6.00 Build 0)  -->
<svg xmlns="http://www.w3.org/2000/svg" xmlns:xlink="http://www.w3.org/1999/xlink" version="1.1" id="Layer_1" x="0px" y="0px" viewBox="0 0 508 508" style="enable-background:new 0 0 508 508;" xml:space="preserve">
<circle style="fill:#90DFAA;" cx="254" cy="254" r="254"/>
<path style="fill:#FF7058;" d="M213.6,329.6h76c24.4,0,45.2,19.2,54.8,46.8H400c0-55.2-44.8-99.6-99.6-99.6h-97.6  c-55.2,0-99.6,44.8-99.6,99.6h55.6C168,348.8,189.2,329.6,213.6,329.6z"/>
<circle style="fill:#FFFFFF;" cx="251.2" cy="199.6" r="118"/>
<path style="fill:#2B3B4E;" d="M251.2,272.4c-40,0-72.8-32.4-72.8-72.8c0-40,32.4-72.8,72.8-72.8s72.8,32.4,72.8,72.8  C324,239.6,291.6,272.4,251.2,272.4z"/>
<path style="fill:#324A5E;" d="M251.2,254.8c-30.4,0-55.2-24.8-55.2-55.2s24.8-55.2,55.2-55.2s55.2,24.8,55.2,55.2  C306.8,230,282,254.8,251.2,254.8z"/>
<ellipse transform="matrix(0.6577 -0.7533 0.7533 0.6577 -57.8913 236.49)" style="fill:#CED5E0;" cx="231.265" cy="181.943" rx="22" ry="14"/>
<g>
</g>
<g>
</g>
<g>
</g>
<g>
</g>
<g>
</g>
<g>
</g>
<g>
</g>
<g>
</g>
<g>
</g>
<g>
</g>
<g>
</g>
<g>
</g>
<g>
</g>
<g>
</g>
<g>
</g>
</svg>
