<?xml version="1.0" encoding="iso-8859-1"?>
<!-- Generator: Adobe Illustrator 19.0.0, SVG Export Plug-In . SVG Version: 6.00 Build 0)  -->
<svg xmlns="http://www.w3.org/2000/svg" xmlns:xlink="http://www.w3.org/1999/xlink" version="1.1" id="Layer_1" x="0px" y="0px" viewBox="0 0 508 508" style="enable-background:new 0 0 508 508;" xml:space="preserve">
<circle style="fill:#324A5E;" cx="254" cy="254" r="254"/>
<path style="fill:#FFFFFF;" d="M142.8,127.2V378c0,5.6,4.4,10,10,10h202.4c5.6,0,10-4.4,10-10V127.2H142.8z"/>
<path style="fill:#E6E9EE;" d="M378,127.2H130c-1.2,0-2.4,1.2-2.4,2.4v45.6c0,1.2,1.2,2.4,2.4,2.4h248c1.2,0,2.4-1.2,2.4-2.4v-45.6  C380.4,128,379.2,127.2,378,127.2z"/>
<path style="fill:#FFFFFF;" d="M292,98.4h-76c-3.6,0-6.4,2.8-6.4,6.4v22.4h88.8v-22.4C298.4,101.2,295.6,98.4,292,98.4z"/>
<g>
	<rect x="188.8" y="210" style="fill:#FF7058;" width="20.8" height="143.6"/>
	<rect x="243.6" y="210" style="fill:#FF7058;" width="20.8" height="143.6"/>
	<rect x="298.8" y="210" style="fill:#FF7058;" width="20.8" height="143.6"/>
</g>
<g>
</g>
<g>
</g>
<g>
</g>
<g>
</g>
<g>
</g>
<g>
</g>
<g>
</g>
<g>
</g>
<g>
</g>
<g>
</g>
<g>
</g>
<g>
</g>
<g>
</g>
<g>
</g>
<g>
</g>
</svg>
