<?xml version="1.0" encoding="iso-8859-1"?>
<!-- Generator: Adobe Illustrator 19.0.0, SVG Export Plug-In . SVG Version: 6.00 Build 0)  -->
<svg xmlns="http://www.w3.org/2000/svg" xmlns:xlink="http://www.w3.org/1999/xlink" version="1.1" id="Layer_1" x="0px" y="0px" viewBox="0 0 508 508" style="enable-background:new 0 0 508 508;" xml:space="preserve">
<circle style="fill:#FD8469;" cx="254" cy="254" r="254"/>
<rect x="96" y="192" style="fill:#FFFFFF;" width="263.6" height="160.4"/>
<rect x="116" y="212" style="fill:#4CDBC4;" width="223.6" height="120.4"/>
<rect x="116" y="212" style="fill:#E6E9EE;" width="73.6" height="120.4"/>
<path style="fill:#324A5E;" d="M155.6,297.6v8h-5.2V298c-4.8,0-9.6-1.2-13.6-3.2v-10c1.2,1.2,3.6,2,6.4,3.2c2.8,0.8,5.2,1.6,7.6,1.6  v-13.2c-5.6-2-9.6-4.4-11.6-6.8s-3.2-5.6-3.2-8.8c0-3.6,1.2-7.2,4-9.6c2.8-2.8,6.4-4.4,10.8-4.8v-6.8h5.2v6.4  c5.2,0.4,8.8,1.2,11.2,2.4v9.6c-3.2-2-7.2-3.2-11.2-3.6V268c5.2,2,9.2,4,11.2,6.4c2.4,2.4,3.6,5.6,3.6,8.8c0,4-1.2,7.2-4,9.6  C164,295.6,160.4,297.2,155.6,297.6z M150.4,266v-11.6c-3.2,0.8-5.2,2.4-5.2,5.2C145.2,262.4,146.8,264.4,150.4,266z M155.6,278.4  v10.8c3.6-0.4,5.2-2.4,5.2-5.2C160.8,281.6,158.8,279.6,155.6,278.4z"/>
<g>
	<rect x="205.6" y="228.4" style="fill:#FFFFFF;" width="118.8" height="8.8"/>
	<rect x="205.6" y="256.8" style="fill:#FFFFFF;" width="118.8" height="8.8"/>
	<rect x="205.6" y="284.8" style="fill:#FFFFFF;" width="60" height="8.8"/>
</g>
<path style="fill:#FFD05B;" d="M216.4,315.6c1.6-0.4,12.8-4,23.2-2.8c0-5.6,4.8-13.6,8.8-17.6l12-12l-6-6l-6-6l-12,12  c-4,4-12,8.8-17.6,8.8C220.4,302.8,216.8,314,216.4,315.6z"/>
<path style="fill:#324A5E;" d="M266.4,286.4c10-8,32.8-29.6,44.4-40.8c33.2-33.2,95.2-106,88.4-112.4c-6.8-6.8-79.6,55.6-112.4,88.4  c-11.2,11.2-32.8,34-40.8,44.4L266.4,286.4z"/>
<polygon style="fill:#FF7058;" points="236,276.8 255.2,296 266.4,286.4 245.6,266 "/>
<g>
	<circle style="fill:#324A5E;" cx="228.8" cy="303.2" r="2.4"/>
	
		<rect x="222.077" y="300.754" transform="matrix(0.7071 0.7071 -0.7071 0.7071 284.0502 -66.6489)" style="fill:#324A5E;" width="0.8" height="17.6"/>
	<circle style="fill:#324A5E;" cx="217.2" cy="315.2" r="1.2"/>
</g>
<g>
</g>
<g>
</g>
<g>
</g>
<g>
</g>
<g>
</g>
<g>
</g>
<g>
</g>
<g>
</g>
<g>
</g>
<g>
</g>
<g>
</g>
<g>
</g>
<g>
</g>
<g>
</g>
<g>
</g>
</svg>
