<?xml version="1.0" encoding="iso-8859-1"?>
<!-- Generator: Adobe Illustrator 19.0.0, SVG Export Plug-In . SVG Version: 6.00 Build 0)  -->
<svg xmlns="http://www.w3.org/2000/svg" xmlns:xlink="http://www.w3.org/1999/xlink" version="1.1" id="Layer_1" x="0px" y="0px" viewBox="0 0 508 508" style="enable-background:new 0 0 508 508;" xml:space="preserve">
<circle style="fill:#FD8469;" cx="254" cy="254" r="254"/>
<path style="fill:#324A5E;" d="M386.8,110.4H121.2c-3.2,0-5.6,2.4-5.6,5.6v188.8c0,3.2,2.4,5.6,5.6,5.6h265.2c3.2,0,5.6-2.4,5.6-5.6  V116C392.4,112.8,389.6,110.4,386.8,110.4z"/>
<rect x="135.2" y="130.4" style="fill:#84DBFF;" width="238" height="159.6"/>
<path style="fill:#324A5E;" d="M408,339.6H288v10.8h-68v-10.8H100c-2.4,0-4,2.4-3.6,4.8l6.8,27.2c0.4,1.6,2,2.8,3.6,2.8h294  c1.6,0,3.2-1.2,3.6-2.8l6.8-27.2C412,341.6,410.4,339.6,408,339.6z"/>
<g>
</g>
<g>
</g>
<g>
</g>
<g>
</g>
<g>
</g>
<g>
</g>
<g>
</g>
<g>
</g>
<g>
</g>
<g>
</g>
<g>
</g>
<g>
</g>
<g>
</g>
<g>
</g>
<g>
</g>
</svg>
