<?xml version="1.0" encoding="iso-8859-1"?>
<!-- Generator: Adobe Illustrator 19.0.0, SVG Export Plug-In . SVG Version: 6.00 Build 0)  -->
<svg xmlns="http://www.w3.org/2000/svg" xmlns:xlink="http://www.w3.org/1999/xlink" version="1.1" id="Layer_1" x="0px" y="0px" viewBox="0 0 508 508" style="enable-background:new 0 0 508 508;" xml:space="preserve">
<circle style="fill:#FFD05B;" cx="254" cy="254" r="254"/>
<rect x="139.6" y="94" style="fill:#324A5E;" width="228.8" height="320"/>
<g>
	<path style="fill:#84DBFF;" d="M188.8,113.6h-26c-2,0-3.6,1.6-3.6,3.6V136c0,2,1.6,3.6,3.6,3.6h26c2,0,3.6-1.6,3.6-3.6v-18.8   C192.4,115.6,190.8,113.6,188.8,113.6z"/>
	<path style="fill:#84DBFF;" d="M188.8,164.8h-26c-2,0-3.6,1.6-3.6,3.6v18.8c0,2,1.6,3.6,3.6,3.6h26c2,0,3.6-1.6,3.6-3.6v-18.8   C192.4,166.4,190.8,164.8,188.8,164.8z"/>
	<path style="fill:#84DBFF;" d="M188.8,215.6h-26c-2,0-3.6,1.6-3.6,3.6V238c0,2,1.6,3.6,3.6,3.6h26c2,0,3.6-1.6,3.6-3.6v-18.8   C192.4,217.2,190.8,215.6,188.8,215.6z"/>
	<path style="fill:#84DBFF;" d="M188.8,266.4h-26c-2,0-3.6,1.6-3.6,3.6v18.8c0,2,1.6,3.6,3.6,3.6h26c2,0,3.6-1.6,3.6-3.6V270   C192.4,268,190.8,266.4,188.8,266.4z"/>
	<path style="fill:#84DBFF;" d="M188.8,317.2h-26c-2,0-3.6,1.6-3.6,3.6v18.8c0,2,1.6,3.6,3.6,3.6h26c2,0,3.6-1.6,3.6-3.6v-18.8   C192.4,319.2,190.8,317.2,188.8,317.2z"/>
	<path style="fill:#84DBFF;" d="M188.8,368.4h-26c-2,0-3.6,1.6-3.6,3.6v18.8c0,2,1.6,3.6,3.6,3.6h26c2,0,3.6-1.6,3.6-3.6V372   C192.4,370,190.8,368.4,188.8,368.4z"/>
	<path style="fill:#84DBFF;" d="M345.2,113.6h-26c-2,0-3.6,1.6-3.6,3.6V136c0,2,1.6,3.6,3.6,3.6h26c2,0,3.6-1.6,3.6-3.6v-18.8   C348.8,115.6,347.2,113.6,345.2,113.6z"/>
	<path style="fill:#84DBFF;" d="M345.2,164.8h-26c-2,0-3.6,1.6-3.6,3.6v18.8c0,2,1.6,3.6,3.6,3.6h26c2,0,3.6-1.6,3.6-3.6v-18.8   C348.8,166.4,347.2,164.8,345.2,164.8z"/>
	<path style="fill:#84DBFF;" d="M345.2,215.6h-26c-2,0-3.6,1.6-3.6,3.6V238c0,2,1.6,3.6,3.6,3.6h26c2,0,3.6-1.6,3.6-3.6v-18.8   C348.8,217.2,347.2,215.6,345.2,215.6z"/>
	<path style="fill:#84DBFF;" d="M345.2,266.4h-26c-2,0-3.6,1.6-3.6,3.6v18.8c0,2,1.6,3.6,3.6,3.6h26c2,0,3.6-1.6,3.6-3.6V270   C348.8,268,347.2,266.4,345.2,266.4z"/>
	<path style="fill:#84DBFF;" d="M345.2,317.2h-26c-2,0-3.6,1.6-3.6,3.6v18.8c0,2,1.6,3.6,3.6,3.6h26c2,0,3.6-1.6,3.6-3.6v-18.8   C348.8,319.2,347.2,317.2,345.2,317.2z"/>
	<path style="fill:#84DBFF;" d="M345.2,368.4h-26c-2,0-3.6,1.6-3.6,3.6v18.8c0,2,1.6,3.6,3.6,3.6h26c2,0,3.6-1.6,3.6-3.6V372   C348.8,370,347.2,368.4,345.2,368.4z"/>
	<rect x="209.2" y="113.6" style="fill:#84DBFF;" width="90" height="127.6"/>
	<rect x="209.2" y="266.4" style="fill:#84DBFF;" width="90" height="127.6"/>
</g>
<g>
</g>
<g>
</g>
<g>
</g>
<g>
</g>
<g>
</g>
<g>
</g>
<g>
</g>
<g>
</g>
<g>
</g>
<g>
</g>
<g>
</g>
<g>
</g>
<g>
</g>
<g>
</g>
<g>
</g>
</svg>
