<?xml version="1.0" encoding="iso-8859-1"?>
<!-- Generator: Adobe Illustrator 19.0.0, SVG Export Plug-In . SVG Version: 6.00 Build 0)  -->
<svg xmlns="http://www.w3.org/2000/svg" xmlns:xlink="http://www.w3.org/1999/xlink" version="1.1" id="Layer_1" x="0px" y="0px" viewBox="0 0 508 508" style="enable-background:new 0 0 508 508;" xml:space="preserve">
<circle style="fill:#84DBFF;" cx="254" cy="254" r="254"/>
<g>
	<path style="fill:#FFFFFF;" d="M310.8,163.6c-0.4,1.6-1.2,2.8-1.6,4c-2,6,2,12.4,8,13.6l92,13.6c6.4,0.8,12-4,11.6-10.4   c0-1.6,0-2.8-0.4-4.4L310.8,163.6z"/>
	<path style="fill:#FFFFFF;" d="M86.8,184c-0.4,6.4,5.2,11.6,11.6,10.4l92-13.6c6.4-0.8,10.4-7.6,8-13.6c-0.4-1.2-1.2-2.8-1.6-4   l-110,16C87.2,180.8,87.2,182.4,86.8,184z"/>
</g>
<g>
	<path style="fill:#324A5E;" d="M377.2,110L377.2,110C253.6,76,130,110,130,110v0.4c-24,6-40,40.4-42.8,69.2l110-16   c-2.4-5.6-5.2-11.2-8.4-16.4c34.4-4,80.8-6.4,130.4-0.4c-3.6,5.6-6.4,11.2-8.8,17.2l110,16C418,150.4,402,116,377.2,110z"/>
	<path style="fill:#324A5E;" d="M394,353.2l-35.2-126c-4-14.4-17.2-24.4-32-24.4h-34v-25.6h-21.6v25.6H236v-25.6h-21.6v25.6h-34   c-14.8,0-28,10-32,24.4l-34.4,126c-6,21.2,10,42,32,42h216C384,395.2,400,374.4,394,353.2z"/>
	<rect x="160.4" y="395.2" style="fill:#324A5E;" width="30.4" height="17.6"/>
	<rect x="317.2" y="395.2" style="fill:#324A5E;" width="30.4" height="17.6"/>
</g>
<circle style="fill:#FFFFFF;" cx="254" cy="296.4" r="55.6"/>
<g>
	<circle style="fill:#4CDBC4;" cx="254" cy="262.4" r="10.4"/>
	<circle style="fill:#4CDBC4;" cx="254" cy="330.8" r="10.4"/>
	<circle style="fill:#4CDBC4;" cx="288.4" cy="296.4" r="10.4"/>
	<circle style="fill:#4CDBC4;" cx="219.6" cy="296.4" r="10.4"/>
	<circle style="fill:#4CDBC4;" cx="278.4" cy="272.4" r="10.4"/>
	<circle style="fill:#4CDBC4;" cx="229.6" cy="320.8" r="10.4"/>
	<circle style="fill:#4CDBC4;" cx="278.4" cy="320.8" r="10.4"/>
	<circle style="fill:#4CDBC4;" cx="229.6" cy="272.4" r="10.4"/>
</g>
<g>
</g>
<g>
</g>
<g>
</g>
<g>
</g>
<g>
</g>
<g>
</g>
<g>
</g>
<g>
</g>
<g>
</g>
<g>
</g>
<g>
</g>
<g>
</g>
<g>
</g>
<g>
</g>
<g>
</g>
</svg>
