<?xml version="1.0" encoding="iso-8859-1"?>
<!-- Generator: Adobe Illustrator 19.0.0, SVG Export Plug-In . SVG Version: 6.00 Build 0)  -->
<svg xmlns="http://www.w3.org/2000/svg" xmlns:xlink="http://www.w3.org/1999/xlink" version="1.1" id="Layer_1" x="0px" y="0px" viewBox="0 0 512 512" style="enable-background:new 0 0 512 512;" xml:space="preserve">
<circle style="fill:#00B0FF;" cx="256" cy="256" r="256"/>
<g>
	<rect x="293.236" y="200.145" style="fill:#FFFFFF;" width="93.091" height="172.218"/>
	<rect x="125.673" y="200.145" style="fill:#FFFFFF;" width="93.091" height="172.218"/>
</g>
<rect x="107.055" y="372.364" style="fill:#0D57A1;" width="130.327" height="32.582"/>
<rect x="134.982" y="181.527" style="fill:#E8EAF6;" width="74.473" height="18.618"/>
<rect x="144.291" y="153.6" style="fill:#C5CAE9;" width="55.855" height="27.927"/>
<polygon style="fill:#2962FF;" points="144.291,153.6 172.218,107.055 200.145,153.6 "/>
<rect x="274.618" y="372.364" style="fill:#0D57A1;" width="130.327" height="32.582"/>
<rect x="302.545" y="181.527" style="fill:#E8EAF6;" width="74.473" height="18.618"/>
<rect x="311.855" y="153.6" style="fill:#C5CAE9;" width="55.855" height="27.927"/>
<polygon style="fill:#2962FF;" points="311.855,153.6 339.782,107.055 367.709,153.6 "/>
<path style="fill:#C5CAE9;" d="M218.764,251.345v37.236h74.473v-37.236H218.764z M274.618,279.273h-37.236v-18.618h37.236V279.273z"/>
<g>
	<rect x="139.636" y="223.418" style="fill:#00B0FF;" width="65.164" height="9.309"/>
	<rect x="139.636" y="246.691" style="fill:#00B0FF;" width="65.164" height="9.309"/>
	<rect x="139.636" y="269.964" style="fill:#00B0FF;" width="65.164" height="9.309"/>
	<rect x="139.636" y="293.236" style="fill:#00B0FF;" width="65.164" height="9.309"/>
	<rect x="139.636" y="316.509" style="fill:#00B0FF;" width="65.164" height="9.309"/>
	<rect x="139.636" y="339.782" style="fill:#00B0FF;" width="65.164" height="9.309"/>
	<rect x="307.2" y="223.418" style="fill:#00B0FF;" width="65.164" height="9.309"/>
	<rect x="307.2" y="246.691" style="fill:#00B0FF;" width="65.164" height="9.309"/>
	<rect x="307.2" y="269.964" style="fill:#00B0FF;" width="65.164" height="9.309"/>
	<rect x="307.2" y="293.236" style="fill:#00B0FF;" width="65.164" height="9.309"/>
	<rect x="307.2" y="316.509" style="fill:#00B0FF;" width="65.164" height="9.309"/>
	<rect x="307.2" y="339.782" style="fill:#00B0FF;" width="65.164" height="9.309"/>
</g>
<g>
	<polygon style="fill:#2979FF;" points="172.218,107.055 144.291,153.6 172.218,153.6  "/>
	<polygon style="fill:#2979FF;" points="339.782,107.055 311.855,153.6 339.782,153.6  "/>
</g>
<g>
</g>
<g>
</g>
<g>
</g>
<g>
</g>
<g>
</g>
<g>
</g>
<g>
</g>
<g>
</g>
<g>
</g>
<g>
</g>
<g>
</g>
<g>
</g>
<g>
</g>
<g>
</g>
<g>
</g>
</svg>
