<?xml version="1.0" encoding="iso-8859-1"?>
<!-- Generator: Adobe Illustrator 19.0.0, SVG Export Plug-In . SVG Version: 6.00 Build 0)  -->
<svg xmlns="http://www.w3.org/2000/svg" xmlns:xlink="http://www.w3.org/1999/xlink" version="1.1" id="Layer_1" x="0px" y="0px" viewBox="0 0 512 512" style="enable-background:new 0 0 512 512;" xml:space="preserve">
<circle style="fill:#00B0FF;" cx="256" cy="256" r="256"/>
<rect x="181.527" y="107.055" style="fill:#2962FF;" width="148.945" height="223.418"/>
<rect x="107.055" y="386.327" style="fill:#C5CAE9;" width="297.891" height="18.618"/>
<rect x="190.836" y="349.091" style="fill:#FFFFFF;" width="130.327" height="37.236"/>
<g>
	<rect x="209.455" y="358.4" style="fill:#0D57A1;" width="18.618" height="27.927"/>
	<rect x="246.691" y="358.4" style="fill:#0D57A1;" width="18.618" height="27.927"/>
	<rect x="283.927" y="358.4" style="fill:#0D57A1;" width="18.618" height="27.927"/>
	<path style="fill:#0D57A1;" d="M134.982,363.055c-1.592,0-3.137-0.107-4.655-0.284v23.557h9.309v-23.557   C138.119,362.947,136.574,363.055,134.982,363.055z"/>
</g>
<path style="fill:#2962FF;" d="M148.717,328.239c-1.071-6.642-6.791-11.729-13.736-11.729s-12.665,5.087-13.736,11.729  c-8.471,3.198-14.192,9.249-14.192,16.198c0,10.282,12.507,18.618,27.927,18.618s27.927-8.336,27.927-18.618  C162.909,337.487,157.189,331.436,148.717,328.239z"/>
<path style="fill:#0D57A1;" d="M381.673,367.709c-1.62,0-3.16-0.27-4.655-0.661v19.279h9.309v-19.279  C384.833,367.439,383.292,367.709,381.673,367.709z"/>
<path style="fill:#2962FF;" d="M400.291,349.091c0,10.282-8.336,18.618-18.618,18.618c-10.282,0-18.618-8.336-18.618-18.618  c0-10.282,18.618-65.164,18.618-65.164S400.291,338.809,400.291,349.091z"/>
<rect x="172.218" y="330.473" style="fill:#E8EAF6;" width="167.564" height="18.618"/>
<path style="fill:#448AFF;" d="M330.473,148.945v-9.309h-32.582v-32.582h-9.309v32.582h-27.927v-32.582h-9.309v32.582h-27.927  v-32.582h-9.309v32.582h-32.582v9.309h32.582v27.927h-32.582v9.309h32.582v27.927h-32.582v9.309h32.582v27.927h-32.582v9.309h32.582  v27.927h-32.582v9.309h32.582v32.582h9.309v-32.582h27.927v32.582h9.309v-32.582h27.927v32.582h9.309v-32.582h32.582v-9.309h-32.582  v-27.927h32.582v-9.309h-32.582v-27.927h32.582v-9.309h-32.582v-27.927h32.582v-9.309h-32.582v-27.927H330.473z M223.418,148.945  h27.927v27.927h-27.927V148.945z M223.418,186.182h27.927v27.927h-27.927V186.182z M223.418,223.418h27.927v27.927h-27.927V223.418z   M223.418,288.582v-27.927h27.927v27.927H223.418z M288.582,288.582h-27.927v-27.927h27.927V288.582z M288.582,251.345h-27.927  v-27.927h27.927V251.345z M288.582,214.109h-27.927v-27.927h27.927V214.109z M288.582,176.873h-27.927v-27.927h27.927V176.873z"/>
<g>
</g>
<g>
</g>
<g>
</g>
<g>
</g>
<g>
</g>
<g>
</g>
<g>
</g>
<g>
</g>
<g>
</g>
<g>
</g>
<g>
</g>
<g>
</g>
<g>
</g>
<g>
</g>
<g>
</g>
</svg>
