<?xml version="1.0" encoding="iso-8859-1"?>
<!-- Generator: Adobe Illustrator 19.0.0, SVG Export Plug-In . SVG Version: 6.00 Build 0)  -->
<svg xmlns="http://www.w3.org/2000/svg" xmlns:xlink="http://www.w3.org/1999/xlink" version="1.1" id="Layer_1" x="0px" y="0px" viewBox="0 0 512 512" style="enable-background:new 0 0 512 512;" xml:space="preserve">
<circle style="fill:#00B0FF;" cx="256" cy="256" r="256"/>
<rect x="256" y="107.055" style="fill:#2962FF;" width="37.236" height="27.927"/>
<g>
	<polygon style="fill:#FFFFFF;" points="404.945,386.327 107.055,386.327 116.364,367.709 395.636,367.709  "/>
	<polygon style="fill:#FFFFFF;" points="107.055,256 404.945,256 395.636,274.618 116.364,274.618  "/>
</g>
<rect x="200.145" y="167.564" style="fill:#2962FF;" width="111.709" height="144.291"/>
<rect x="253.673" y="107.055" style="fill:#0D57A1;" width="4.655" height="41.891"/>
<g>
	<rect x="125.673" y="274.618" style="fill:#2962FF;" width="74.473" height="37.236"/>
	<rect x="311.855" y="274.618" style="fill:#2962FF;" width="74.473" height="37.236"/>
	<rect x="311.855" y="330.473" style="fill:#2962FF;" width="74.473" height="37.236"/>
	<rect x="125.673" y="330.473" style="fill:#2962FF;" width="74.473" height="37.236"/>
</g>
<g>
	<polygon style="fill:#FFFFFF;" points="107.055,311.855 404.945,311.855 395.636,330.473 116.364,330.473  "/>
	<rect x="190.836" y="148.945" style="fill:#FFFFFF;" width="130.327" height="18.618"/>
	<polygon style="fill:#FFFFFF;" points="335.127,404.945 176.873,404.945 190.836,386.327 321.164,386.327  "/>
</g>
<g>
	<polygon style="fill:#2979FF;" points="386.318,288.582 353.745,288.582 353.745,274.618 344.436,274.618 344.436,288.582    311.845,288.582 311.845,297.891 344.436,297.891 344.436,311.855 353.745,311.855 353.745,297.891 386.318,297.891  "/>
	<polygon style="fill:#2979FF;" points="200.145,344.436 167.573,344.436 167.573,330.473 158.264,330.473 158.264,344.436    125.673,344.436 125.673,353.745 158.264,353.745 158.264,367.709 167.573,367.709 167.573,353.745 200.145,353.745  "/>
	<polygon style="fill:#2979FF;" points="386.318,344.436 353.745,344.436 353.745,330.473 344.436,330.473 344.436,344.436    311.845,344.436 311.845,353.745 344.436,353.745 344.436,367.709 353.745,367.709 353.745,353.745 386.318,353.745  "/>
</g>
<path style="fill:#448AFF;" d="M311.855,204.8v-9.309h-32.582v-27.927h-9.309v27.927h-27.927v-27.927h-9.309v27.927h-32.582v9.309  h32.582v27.927h-32.582v9.309h32.582v27.927h-32.582v9.309h32.582v32.582h9.309v-32.582h27.927v32.582h9.309v-32.582h32.582v-9.309  h-32.582v-27.927h32.582v-9.309h-32.582V204.8H311.855z M269.964,269.964h-27.927v-27.927h27.927V269.964z M269.964,232.727h-27.927  V204.8h27.927V232.727z"/>
<polygon style="fill:#2979FF;" points="200.145,288.582 167.573,288.582 167.573,274.618 158.264,274.618 158.264,288.582   125.673,288.582 125.673,297.891 158.264,297.891 158.264,311.855 167.573,311.855 167.573,297.891 200.145,297.891 "/>
<rect x="200.145" y="330.473" style="fill:#2962FF;" width="111.709" height="55.855"/>
<polygon style="fill:#448AFF;" points="232.727,386.327 242.036,386.327 242.036,363.055 269.964,363.055 269.964,386.327   279.273,386.327 279.273,363.055 311.855,363.055 311.855,353.745 279.273,353.745 279.273,330.473 269.964,330.473   269.964,353.745 242.036,353.745 242.036,330.473 232.727,330.473 232.727,353.745 200.145,353.745 200.145,363.055   232.727,363.055 "/>
<g>
</g>
<g>
</g>
<g>
</g>
<g>
</g>
<g>
</g>
<g>
</g>
<g>
</g>
<g>
</g>
<g>
</g>
<g>
</g>
<g>
</g>
<g>
</g>
<g>
</g>
<g>
</g>
<g>
</g>
</svg>
