<?xml version="1.0" encoding="iso-8859-1"?>
<!-- Generator: Adobe Illustrator 19.0.0, SVG Export Plug-In . SVG Version: 6.00 Build 0)  -->
<svg xmlns="http://www.w3.org/2000/svg" xmlns:xlink="http://www.w3.org/1999/xlink" version="1.1" id="Layer_1" x="0px" y="0px" viewBox="0 0 512 512" style="enable-background:new 0 0 512 512;" xml:space="preserve">
<circle style="fill:#00B0FF;" cx="256" cy="256" r="256"/>
<rect x="162.909" y="330.473" style="fill:#E8EAF6;" width="186.182" height="74.473"/>
<rect x="181.527" y="200.145" style="fill:#FFFFFF;" width="148.945" height="130.327"/>
<rect x="200.145" y="162.909" style="fill:#E8EAF6;" width="111.709" height="37.236"/>
<rect x="218.764" y="144.291" style="fill:#FFFFFF;" width="74.473" height="18.618"/>
<polygon style="fill:#2962FF;" points="218.764,144.291 256,107.055 293.236,144.291 "/>
<g>
	<rect x="214.109" y="172.218" style="fill:#00B0FF;" width="9.309" height="18.618"/>
	<rect x="195.491" y="218.764" style="fill:#00B0FF;" width="9.309" height="18.618"/>
	<rect x="214.109" y="218.764" style="fill:#00B0FF;" width="9.309" height="18.618"/>
	<rect x="232.727" y="218.764" style="fill:#00B0FF;" width="9.309" height="18.618"/>
	<rect x="251.345" y="218.764" style="fill:#00B0FF;" width="9.309" height="18.618"/>
	<rect x="269.964" y="218.764" style="fill:#00B0FF;" width="9.309" height="18.618"/>
	<rect x="288.582" y="218.764" style="fill:#00B0FF;" width="9.309" height="18.618"/>
	<rect x="307.2" y="218.764" style="fill:#00B0FF;" width="9.309" height="18.618"/>
	<rect x="195.491" y="256" style="fill:#00B0FF;" width="9.309" height="18.618"/>
	<rect x="214.109" y="256" style="fill:#00B0FF;" width="9.309" height="18.618"/>
	<rect x="232.727" y="256" style="fill:#00B0FF;" width="9.309" height="18.618"/>
	<rect x="251.345" y="256" style="fill:#00B0FF;" width="9.309" height="18.618"/>
	<rect x="269.964" y="256" style="fill:#00B0FF;" width="9.309" height="18.618"/>
	<rect x="288.582" y="256" style="fill:#00B0FF;" width="9.309" height="18.618"/>
	<rect x="307.2" y="256" style="fill:#00B0FF;" width="9.309" height="18.618"/>
	<rect x="195.491" y="293.236" style="fill:#00B0FF;" width="9.309" height="18.618"/>
	<rect x="214.109" y="293.236" style="fill:#00B0FF;" width="9.309" height="18.618"/>
	<rect x="232.727" y="293.236" style="fill:#00B0FF;" width="9.309" height="18.618"/>
	<rect x="251.345" y="293.236" style="fill:#00B0FF;" width="9.309" height="18.618"/>
	<rect x="269.964" y="293.236" style="fill:#00B0FF;" width="9.309" height="18.618"/>
	<rect x="288.582" y="293.236" style="fill:#00B0FF;" width="9.309" height="18.618"/>
	<rect x="307.2" y="293.236" style="fill:#00B0FF;" width="9.309" height="18.618"/>
	<rect x="176.873" y="349.091" style="fill:#00B0FF;" width="9.309" height="41.891"/>
	<rect x="195.491" y="349.091" style="fill:#00B0FF;" width="9.309" height="41.891"/>
	<rect x="214.109" y="349.091" style="fill:#00B0FF;" width="9.309" height="41.891"/>
	<rect x="232.727" y="349.091" style="fill:#00B0FF;" width="9.309" height="41.891"/>
	<rect x="251.345" y="349.091" style="fill:#00B0FF;" width="9.309" height="41.891"/>
	<rect x="269.964" y="349.091" style="fill:#00B0FF;" width="9.309" height="41.891"/>
	<rect x="288.582" y="349.091" style="fill:#00B0FF;" width="9.309" height="41.891"/>
	<rect x="307.2" y="349.091" style="fill:#00B0FF;" width="9.309" height="41.891"/>
	<rect x="325.818" y="349.091" style="fill:#00B0FF;" width="9.309" height="41.891"/>
	<rect x="232.727" y="172.218" style="fill:#00B0FF;" width="9.309" height="18.618"/>
	<rect x="251.345" y="172.218" style="fill:#00B0FF;" width="9.309" height="18.618"/>
	<rect x="269.964" y="172.218" style="fill:#00B0FF;" width="9.309" height="18.618"/>
	<rect x="288.582" y="172.218" style="fill:#00B0FF;" width="9.309" height="18.618"/>
</g>
<polygon style="fill:#2979FF;" points="256,107.055 218.764,144.291 256,144.291 "/>
<g>
</g>
<g>
</g>
<g>
</g>
<g>
</g>
<g>
</g>
<g>
</g>
<g>
</g>
<g>
</g>
<g>
</g>
<g>
</g>
<g>
</g>
<g>
</g>
<g>
</g>
<g>
</g>
<g>
</g>
</svg>
