<?xml version="1.0" encoding="iso-8859-1"?>
<!-- Generator: Adobe Illustrator 19.0.0, SVG Export Plug-In . SVG Version: 6.00 Build 0)  -->
<svg xmlns="http://www.w3.org/2000/svg" xmlns:xlink="http://www.w3.org/1999/xlink" version="1.1" id="Layer_1" x="0px" y="0px" viewBox="0 0 512 512" style="enable-background:new 0 0 512 512;" xml:space="preserve">
<circle style="fill:#00B0FF;" cx="256" cy="256" r="256"/>
<rect x="107.055" y="107.055" style="fill:#FFFFFF;" width="297.891" height="297.891"/>
<g>
	<rect x="125.673" y="125.673" style="fill:#2979FF;" width="260.655" height="74.473"/>
	<rect x="125.673" y="218.764" style="fill:#2979FF;" width="260.655" height="74.473"/>
	<rect x="134.982" y="330.473" style="fill:#2979FF;" width="55.855" height="55.855"/>
	<rect x="321.164" y="330.473" style="fill:#2979FF;" width="55.855" height="55.855"/>
	<path style="fill:#2979FF;" d="M293.236,344.436c0-15.421-12.507-27.927-27.927-27.927h-18.618   c-15.421,0-27.927,12.507-27.927,27.927v60.509h74.473V344.436z"/>
</g>
<g>
	<polygon style="fill:#448AFF;" points="125.673,125.673 125.673,200.145 264.42,200.145 338.893,125.673  "/>
	<polygon style="fill:#448AFF;" points="125.673,218.764 125.673,293.236 171.329,293.236 245.802,218.764  "/>
</g>
<path style="fill:#1A3B7E;" d="M139.636,337.455c0,6.428-5.208,11.636-11.636,11.636c-6.428,0-11.636-5.208-11.636-11.636v-6.982  h23.273V337.455z"/>
<path style="fill:#C5CAE9;" d="M162.909,337.455c0,6.428-5.208,11.636-11.636,11.636s-11.636-5.208-11.636-11.636v-6.982h23.273  V337.455z"/>
<path style="fill:#1A3B7E;" d="M186.182,337.455c0,6.428-5.208,11.636-11.636,11.636c-6.428,0-11.636-5.208-11.636-11.636v-6.982  h23.273V337.455z"/>
<path style="fill:#C5CAE9;" d="M209.455,337.455c0,6.428-5.208,11.636-11.636,11.636s-11.636-5.208-11.636-11.636v-6.982h23.273  V337.455z"/>
<path style="fill:#1A3B7E;" d="M372.364,337.455c0,6.428,5.208,11.636,11.636,11.636c6.428,0,11.636-5.208,11.636-11.636v-6.982  h-23.273V337.455z"/>
<path style="fill:#C5CAE9;" d="M349.091,337.455c0,6.428,5.208,11.636,11.636,11.636s11.636-5.208,11.636-11.636v-6.982h-23.273  V337.455z"/>
<path style="fill:#1A3B7E;" d="M325.818,337.455c0,6.428,5.208,11.636,11.636,11.636s11.636-5.208,11.636-11.636v-6.982h-23.273  V337.455z"/>
<path style="fill:#C5CAE9;" d="M302.545,337.455c0,6.428,5.208,11.636,11.636,11.636c6.428,0,11.636-5.208,11.636-11.636v-6.982  h-23.273V337.455z"/>
<g>
	<polygon style="fill:#0D57A1;" points="116.364,330.473 125.673,311.855 200.145,311.855 209.455,330.473  "/>
	<polygon style="fill:#0D57A1;" points="139.636,330.473 139.636,311.855 125.673,311.855 116.364,330.473  "/>
</g>
<g>
	<polygon style="fill:#E8EAF6;" points="186.182,330.473 186.182,311.855 200.145,311.855 209.455,330.473  "/>
	<rect x="139.636" y="311.855" style="fill:#E8EAF6;" width="23.273" height="18.618"/>
</g>
<g>
	<polygon style="fill:#0D57A1;" points="395.636,330.473 386.327,311.855 311.855,311.855 302.545,330.473  "/>
	<polygon style="fill:#0D57A1;" points="372.364,330.473 372.364,311.855 386.327,311.855 395.636,330.473  "/>
</g>
<g>
	<polygon style="fill:#E8EAF6;" points="325.818,330.473 325.818,311.855 311.855,311.855 302.545,330.473  "/>
	<rect x="349.091" y="311.855" style="fill:#E8EAF6;" width="23.273" height="18.618"/>
</g>
<g>
	<rect x="186.182" y="125.673" style="fill:#FFFFFF;" width="9.309" height="74.473"/>
	<rect x="251.345" y="125.673" style="fill:#FFFFFF;" width="9.309" height="74.473"/>
	<rect x="316.509" y="125.673" style="fill:#FFFFFF;" width="9.309" height="74.473"/>
	<rect x="186.182" y="218.764" style="fill:#FFFFFF;" width="9.309" height="74.473"/>
	<rect x="251.345" y="218.764" style="fill:#FFFFFF;" width="9.309" height="74.473"/>
	<rect x="251.345" y="316.509" style="fill:#FFFFFF;" width="9.309" height="88.436"/>
	<rect x="316.509" y="218.764" style="fill:#FFFFFF;" width="9.309" height="74.473"/>
</g>
<g>
</g>
<g>
</g>
<g>
</g>
<g>
</g>
<g>
</g>
<g>
</g>
<g>
</g>
<g>
</g>
<g>
</g>
<g>
</g>
<g>
</g>
<g>
</g>
<g>
</g>
<g>
</g>
<g>
</g>
</svg>
