<?xml version="1.0" encoding="iso-8859-1"?>
<!-- Generator: Adobe Illustrator 19.0.0, SVG Export Plug-In . SVG Version: 6.00 Build 0)  -->
<svg xmlns="http://www.w3.org/2000/svg" xmlns:xlink="http://www.w3.org/1999/xlink" version="1.1" id="Layer_1" x="0px" y="0px" viewBox="0 0 512 512" style="enable-background:new 0 0 512 512;" xml:space="preserve">
<circle style="fill:#00B0FF;" cx="256" cy="256" r="256"/>
<path style="fill:#FFFFFF;" d="M347.224,200.145c-8.63-42.491-46.187-74.473-91.224-74.473s-82.595,31.981-91.224,74.473h-57.721  v18.618l18.618,9.309v176.873h260.655V228.073l18.618-9.309v-18.618H347.224z"/>
<path style="fill:#2979FF;" d="M311.855,228.073v158.255H200.145V228.073c0-30.79,24.948-55.855,55.855-55.855  C286.399,172.218,311.855,196.78,311.855,228.073z"/>
<path style="fill:#448AFF;" d="M311.855,250.843v-22.77c0-31.293-25.456-55.855-55.855-55.855  c-30.906,0-55.855,25.065-55.855,55.855v134.479L311.855,250.843z"/>
<path style="fill:#FFFFFF;" d="M347.224,200.145c-8.63-42.491-46.187-74.473-91.224-74.473s-82.595,31.981-91.224,74.473h-57.721  v18.618l18.618,9.309v176.873h74.473V293.236h32.582v111.709h9.309V293.236h27.927v111.709h9.309V293.236h32.582v111.709h74.473  V228.073l18.618-9.309v-18.618H347.224z M260.655,172.456c10.37,0.866,19.982,4.589,28.039,10.417l-28.039,26.899V172.456z   M251.345,172.456v37.32l-28.086-26.885C231.28,177.064,240.887,173.317,251.345,172.456z M232.727,283.927h-32.582v-55.855h32.582  V283.927z M200.983,218.764c1.936-11.501,7.345-21.825,15.178-29.803l31.12,29.803H200.983z M269.964,283.927h-27.927v-55.855  h27.927V283.927z M264.718,218.764l31.092-29.831c7.829,7.941,13.275,18.237,15.211,29.831H264.718z M311.855,283.927h-32.582  v-55.855h32.582V283.927z"/>
<rect x="330.473" y="330.473" style="fill:#2979FF;" width="46.545" height="55.855"/>
<polygon style="fill:#E8EAF6;" points="386.327,293.236 330.473,293.236 330.473,330.473 404.945,330.473 "/>
<path style="fill:#C5CAE9;" d="M404.945,330.473h-18.618v9.309c0,5.139,4.17,9.309,9.309,9.309s9.309-4.171,9.309-9.309V330.473z"/>
<path style="fill:#1A3B7E;" d="M386.327,330.473h-18.618v9.309c0,5.139,4.171,9.309,9.309,9.309c5.139,0,9.309-4.171,9.309-9.309  V330.473z"/>
<path style="fill:#C5CAE9;" d="M367.709,330.473h-18.618v9.309c0,5.139,4.17,9.309,9.309,9.309c5.139,0,9.309-4.171,9.309-9.309  V330.473z"/>
<path style="fill:#1A3B7E;" d="M349.091,330.473h-18.618v9.309c0,5.139,4.171,9.309,9.309,9.309c5.139,0,9.309-4.171,9.309-9.309  V330.473z"/>
<rect x="330.473" y="293.236" style="fill:#0D57A1;" width="18.618" height="37.236"/>
<rect x="349.091" y="293.236" style="fill:#E8EAF6;" width="18.618" height="37.236"/>
<polygon style="fill:#0D57A1;" points="377.018,293.236 367.709,293.236 367.709,330.473 386.327,330.473 "/>
<polygon style="fill:#E8EAF6;" points="125.673,293.236 181.527,293.236 181.527,330.473 107.055,330.473 "/>
<rect x="134.982" y="330.473" style="fill:#2962FF;" width="46.545" height="55.855"/>
<path style="fill:#C5CAE9;" d="M107.055,330.473h18.618v9.309c0,5.139-4.17,9.309-9.309,9.309s-9.309-4.171-9.309-9.309V330.473z"/>
<path style="fill:#1A3B7E;" d="M125.673,330.473h18.618v9.309c0,5.139-4.17,9.309-9.309,9.309c-5.139,0-9.309-4.171-9.309-9.309  V330.473z"/>
<path style="fill:#C5CAE9;" d="M144.291,330.473h18.618v9.309c0,5.139-4.17,9.309-9.309,9.309c-5.139,0-9.309-4.171-9.309-9.309  V330.473z"/>
<path style="fill:#1A3B7E;" d="M162.909,330.473h18.618v9.309c0,5.139-4.17,9.309-9.309,9.309c-5.139,0-9.309-4.171-9.309-9.309  V330.473z"/>
<rect x="162.909" y="293.236" style="fill:#0D57A1;" width="18.618" height="37.236"/>
<rect x="144.291" y="293.236" style="fill:#E8EAF6;" width="18.618" height="37.236"/>
<polygon style="fill:#0D57A1;" points="134.982,293.236 144.291,293.236 144.291,330.473 125.673,330.473 "/>
<g>
	<circle style="fill:#448AFF;" cx="353.745" cy="251.345" r="18.618"/>
	<circle style="fill:#448AFF;" cx="158.255" cy="251.345" r="18.618"/>
</g>
<rect x="200.145" y="386.327" style="fill:#FFFFFF;" width="111.709" height="18.618"/>
<g>
</g>
<g>
</g>
<g>
</g>
<g>
</g>
<g>
</g>
<g>
</g>
<g>
</g>
<g>
</g>
<g>
</g>
<g>
</g>
<g>
</g>
<g>
</g>
<g>
</g>
<g>
</g>
<g>
</g>
</svg>
