<?xml version="1.0" encoding="iso-8859-1"?>
<!-- Generator: Adobe Illustrator 19.0.0, SVG Export Plug-In . SVG Version: 6.00 Build 0)  -->
<svg xmlns="http://www.w3.org/2000/svg" xmlns:xlink="http://www.w3.org/1999/xlink" version="1.1" id="Layer_1" x="0px" y="0px" viewBox="0 0 512 512" style="enable-background:new 0 0 512 512;" xml:space="preserve">
<circle style="fill:#00B0FF;" cx="256" cy="256" r="256"/>
<path style="fill:#1A3B7E;" d="M404.396,146.749c-0.81-1.513-2.388-2.458-4.105-2.458H111.095c-1.713,0-3.291,0.945-4.105,2.458  c-0.81,1.513-0.717,3.351,0.233,4.776l12.414,18.618c0.866,1.299,2.318,2.076,3.873,2.076h34.746v27.927h9.309v-27.927h93.091  v27.927h9.309v-27.927h117.914c1.559,0,3.007-0.777,3.873-2.071l12.414-18.618C405.118,150.1,405.206,148.266,404.396,146.749z"/>
<path style="fill:#0D57A1;" d="M400.291,144.291H111.095c-1.713,0-3.291,0.945-4.105,2.458c-0.81,1.513-0.717,3.351,0.233,4.776  l4.487,6.73h287.967l4.487-6.726c0.954-1.429,1.043-3.263,0.233-4.776C403.586,145.24,402.008,144.291,400.291,144.291z"/>
<path style="fill:#2962FF;" d="M376.404,134.982l-23.273-27.927l-23.273,27.927v265.309c0,2.574,2.085,4.655,4.655,4.655h37.236  c2.574,0,4.655-2.081,4.655-4.655V134.982z"/>
<path style="fill:#2979FF;" d="M353.131,107.055l-23.273,27.927v265.309c0,2.574,2.085,4.655,4.655,4.655h18.618V107.055z"/>
<path style="fill:#FFFFFF;" d="M307.2,321.164c0,5.143-4.17,9.309-9.309,9.309H130.327c-5.139,0-9.309-4.166-9.309-9.309V209.455  c0-5.139,4.17-9.309,9.309-9.309h167.564c5.139,0,9.309,4.17,9.309,9.309V321.164z"/>
<rect x="134.982" y="214.109" style="fill:#2979FF;" width="158.255" height="102.4"/>
<g>
	<path style="fill:#FFFFFF;" d="M228.864,253.473c0.545-1.764,0.912-3.598,0.912-5.534v-0.102c0-10.287-8.015-18.614-19.181-18.614   s-19.288,8.429-19.288,18.716v0.102c0,10.287,8.015,18.614,19.181,18.614c2.225,0,4.282-0.419,6.223-1.033   C222.687,263.727,227.1,259.202,228.864,253.473z M210.595,259.314c-6.414,0-10.961-5.171-10.961-11.376v-0.102   c0-6.204,4.445-11.269,10.859-11.269c6.409,0,10.957,5.167,10.957,11.371v0.102C221.449,254.245,217.004,259.314,210.595,259.314z"/>
	<path style="fill:#FFFFFF;" d="M267.064,241.887v-0.102c0-3.407-1.085-6.256-3.1-8.271c-2.378-2.378-5.944-3.668-10.552-3.668   h-0.917h-11.646c-2.225,0-3.98,1.759-3.98,3.98v11.646v16.896c0,2.225,1.759,3.98,3.98,3.98c2.22,0,3.98-1.759,3.98-3.98v-7.913   h6.358l7.754,9.826c0.931,1.187,2.122,2.067,3.933,2.067c1.913,0,3.775-1.452,3.775-3.672c0-1.243-0.512-2.071-1.289-3.049   l-5.53-6.721C264.225,251.089,267.064,247.571,267.064,241.887z M259.002,242.302c0,3.049-2.225,5.12-6.102,5.12h-8.066v-9.914   v-0.479h0.479h7.429c3.882,0,6.26,1.759,6.26,5.167V242.302z"/>
	<path style="fill:#FFFFFF;" d="M203.841,278.495l-1.531-3.463c-0.707-1.587-1.96-2.541-3.71-2.541h-0.377   c-1.75,0-3.044,0.954-3.752,2.541l-10.175,22.975c-0.009,0.014-0.009,0.033-0.014,0.047c-0.195,0.447-0.363,0.884-0.363,1.327   c0,1.666,1.289,3.007,2.96,3.007c1.336,0,2.42-0.749,2.96-2.001l2.043-4.794h12.842l1.96,4.585   c0.582,1.331,1.583,2.211,3.086,2.211c1.708,0,3.039-1.378,3.039-3.086c0-0.419-0.121-0.833-0.33-1.289L203.841,278.495z    M194.262,289.913l1.331-3.174l2.709-6.456l1.108,2.634l2.937,6.991h-8.085V289.913z"/>
	<path style="fill:#FFFFFF;" d="M236.181,296.294h-11.883v-20.387c0-1.797-1.42-3.212-3.212-3.212s-3.207,1.42-3.207,3.212v23.012   c0,1.792,1.42,3.207,3.207,3.207h15.095c1.624,0,2.918-1.294,2.918-2.918C239.099,297.588,237.805,296.294,236.181,296.294z"/>
	<path style="fill:#FFFFFF;" d="M263.289,296.42h-13.214v-6.125h11.134c1.583,0,2.876-1.252,2.876-2.835   c0-1.583-1.294-2.877-2.876-2.877h-11.134v-5.916h13.005c1.587,0,2.876-1.252,2.876-2.835s-1.289-2.876-2.876-2.876h-16.175   c-1.797,0-3.207,1.42-3.207,3.212v22.765c0,1.792,1.415,3.207,3.207,3.207h16.384c1.587,0,2.876-1.252,2.876-2.835   C266.17,297.714,264.876,296.42,263.289,296.42z"/>
	<path style="fill:#FFFFFF;" d="M171.278,284.663c-5.046-1.294-6.298-1.918-6.298-3.835v-0.084c0-1.42,1.289-2.546,3.752-2.546   c2.001,0,4.003,0.707,6.125,1.96c0.498,0.293,1.005,0.461,1.629,0.461c1.666,0,3.002-1.289,3.002-2.96   c0-1.252-0.703-2.127-1.415-2.546c-2.625-1.666-5.716-2.583-9.258-2.583c-5.958,0-10.212,3.5-10.212,8.797v0.084   c0,5.795,3.793,7.424,9.672,8.923c4.878,1.252,5.879,2.085,5.879,3.71v0.088c0,1.708-1.583,2.751-4.208,2.751   c-2.835,0-5.255-1.001-7.466-2.625c-0.414-0.293-1.001-0.582-1.834-0.582c-1.666,0-3.007,1.289-3.007,2.96   c0,1.001,0.498,1.918,1.21,2.42c3.254,2.327,7.131,3.491,10.966,3.491c6.298,0,10.715-3.249,10.715-9.044v-0.084   C180.531,288.326,177.194,286.203,171.278,284.663z"/>
	<path style="fill:#FFFFFF;" d="M180.908,244.783h-13.964v-7.703h16.286c2.02,0,3.621-1.601,3.621-3.617s-1.601-3.621-3.621-3.621   h-20.266c-2.225,0-3.975,1.759-3.975,3.98v28.542c0,2.225,1.755,3.98,3.975,3.98c2.23,0,3.98-1.759,3.98-3.98V252.02h13.964   c2.015,0,3.617-1.606,3.617-3.621C184.529,246.388,182.924,244.783,180.908,244.783z"/>
</g>
<g>
</g>
<g>
</g>
<g>
</g>
<g>
</g>
<g>
</g>
<g>
</g>
<g>
</g>
<g>
</g>
<g>
</g>
<g>
</g>
<g>
</g>
<g>
</g>
<g>
</g>
<g>
</g>
<g>
</g>
</svg>
