<?xml version="1.0" encoding="iso-8859-1"?>
<!-- Generator: Adobe Illustrator 19.0.0, SVG Export Plug-In . SVG Version: 6.00 Build 0)  -->
<svg xmlns="http://www.w3.org/2000/svg" xmlns:xlink="http://www.w3.org/1999/xlink" version="1.1" id="Layer_1" x="0px" y="0px" viewBox="0 0 512 512" style="enable-background:new 0 0 512 512;" xml:space="preserve">
<circle style="fill:#00B0FF;" cx="256" cy="256" r="256"/>
<path style="fill:#FFFFFF;" d="M353.745,200.145v139.636H167.564V200.145l93.091-69.818L353.745,200.145L353.745,200.145z   M398.429,210.385L263.447,109.149c-0.829-0.624-1.811-0.931-2.793-0.931c-0.982,0-1.964,0.307-2.793,0.931L204.8,148.945v-18.618  c0-2.569-2.081-4.655-4.655-4.655h-27.927c-2.574,0-4.655,2.085-4.655,4.655v46.545l-44.684,33.513  c-1.606,1.201-2.257,3.295-1.629,5.194c0.642,1.904,2.416,3.184,4.422,3.184h23.273v134.982c0,2.574,2.081,4.655,4.655,4.655  h214.109c2.574,0,4.655-2.081,4.655-4.655V218.764h23.273c2.006,0,3.784-1.28,4.417-3.184  C400.687,213.681,400.03,211.586,398.429,210.385z"/>
<polygon style="fill:#1A3B7E;" points="325.818,358.4 325.818,377.018 195.491,377.018 195.491,358.4 176.873,358.4   176.873,404.945 195.491,404.945 195.491,390.982 325.818,390.982 325.818,404.945 344.436,404.945 344.436,358.4 "/>
<polygon style="fill:#2979FF;" points="167.564,200.145 167.564,339.782 353.745,339.782 353.745,200.145 353.745,200.145   260.655,130.327 "/>
<polygon style="fill:#FFFFFF;" points="321.164,302.545 283.927,274.618 283.927,288.582 204.8,288.582 204.8,316.509   283.927,316.509 283.927,330.473 "/>
<polygon style="fill:#448AFF;" points="260.655,130.327 215.971,163.84 186.182,186.182 178.735,191.767 167.564,200.145   167.564,218.764 167.564,339.782 168.886,339.782 327.903,180.764 "/>
<g>
	<path style="fill:#FFFFFF;" d="M312.152,258.425h-13.214v-6.13h11.134c1.583,0,2.872-1.252,2.872-2.83   c0-1.587-1.289-2.877-2.872-2.877h-11.134v-5.921h13.005c1.592,0,2.881-1.252,2.881-2.83c0-1.587-1.289-2.877-2.881-2.877h-16.175   c-1.792,0-3.207,1.42-3.207,3.207v22.765c0,1.792,1.42,3.207,3.207,3.207h16.384c1.587,0,2.881-1.252,2.881-2.835   C315.038,259.719,313.74,258.425,312.152,258.425z"/>
	<path style="fill:#FFFFFF;" d="M232.094,191.846h-20.266c-2.225,0-3.98,1.759-3.98,3.98v28.542c0,2.225,1.759,3.98,3.98,3.98   c2.23,0,3.98-1.759,3.98-3.98v-10.342h13.964c2.015,0,3.617-1.606,3.617-3.617c0-2.02-1.606-3.617-3.617-3.617h-13.964v-7.703   h16.286c2.015,0,3.621-1.606,3.621-3.621C235.72,193.452,234.11,191.846,232.094,191.846z"/>
	<path style="fill:#FFFFFF;" d="M259.454,191.227c-11.162,0-19.284,8.425-19.284,18.716v0.102c0,10.291,8.01,18.614,19.181,18.614   c11.162,0,19.284-8.429,19.284-18.716v-0.098C278.635,199.55,270.629,191.227,259.454,191.227z M270.313,210.046   c0,6.205-4.45,11.273-10.859,11.273c-6.409,0-10.961-5.171-10.961-11.376v-0.098c0-6.205,4.45-11.273,10.864-11.273   c6.409,0,10.957,5.167,10.957,11.371V210.046z"/>
	<path style="fill:#FFFFFF;" d="M315.927,203.892v-0.098c0-3.333-1.052-6.111-2.974-8.113c-0.047-0.051-0.084-0.112-0.126-0.158   c-2.383-2.383-5.944-3.672-10.552-3.672h-12.563c-2.225,0-3.98,1.759-3.98,3.98v27.071v1.466c0,2.225,1.759,3.98,3.98,3.98   s3.975-1.759,3.975-3.98v-7.913h6.363l7.754,9.826c0.931,1.192,2.118,2.067,3.928,2.067c1.918,0,3.779-1.452,3.779-3.672   c0-1.243-0.512-2.067-1.294-3.049l-5.53-6.721C313.083,213.094,315.927,209.58,315.927,203.892z M307.866,204.307   c0,3.049-2.229,5.125-6.102,5.125h-2.555h-5.52v-10.394h7.913c2.653,0,4.534,0.884,5.497,2.495   c0.452,0.745,0.763,1.601,0.763,2.672v0.102H307.866z"/>
	<path style="fill:#FFFFFF;" d="M220.137,246.668c-5.041-1.289-6.293-1.918-6.293-3.835v-0.084c0-1.42,1.289-2.541,3.756-2.541   c2.001,0,3.998,0.707,6.125,1.96c0.498,0.293,1.001,0.461,1.629,0.461c1.662,0,3.002-1.294,3.002-2.965   c0-1.252-0.707-2.122-1.42-2.546c-2.625-1.662-5.711-2.583-9.253-2.583c-5.962,0-10.217,3.505-10.217,8.797v0.088   c0,5.795,3.798,7.419,9.672,8.923c4.883,1.252,5.883,2.081,5.883,3.71v0.084c0,1.708-1.587,2.755-4.208,2.755   c-2.835,0-5.255-1.005-7.466-2.625c-0.419-0.293-1.001-0.586-1.839-0.586c-1.666,0-3.002,1.294-3.002,2.965   c0,1.001,0.498,1.913,1.21,2.42c3.249,2.332,7.126,3.5,10.961,3.5c6.293,0,10.715-3.254,10.715-9.048v-0.084   C229.395,250.335,226.062,248.213,220.137,246.668z"/>
	<path style="fill:#FFFFFF;" d="M261.343,260.008l-3.905-8.82l-6.27-14.15c-0.707-1.587-1.96-2.546-3.71-2.546h-0.372   c-1.755,0-3.044,0.959-3.756,2.546l-10.175,22.97c-0.209,0.461-0.372,0.917-0.372,1.373c0,1.671,1.289,3.007,2.956,3.007   c1.336,0,2.42-0.749,2.965-2.001l2.039-4.794h10.291h2.551l1.96,4.585c0.586,1.331,1.587,2.211,3.086,2.211   c1.708,0,3.044-1.378,3.044-3.086C261.683,260.883,261.553,260.468,261.343,260.008z M243.126,251.923l4.04-9.63l4.049,9.63   H243.126z"/>
	<path style="fill:#FFFFFF;" d="M285.044,258.299h-11.888v-20.387c0-0.694-0.261-1.294-0.624-1.82   c-0.577-0.824-1.485-1.392-2.583-1.392c-1.797,0-3.207,1.415-3.207,3.207v3.975v19.037c0,1.792,1.415,3.207,3.207,3.207h15.09   c1.629,0,2.918-1.289,2.918-2.918S286.673,258.299,285.044,258.299z"/>
	<polygon style="fill:#FFFFFF;" points="220.086,288.582 204.8,288.582 204.8,303.867  "/>
</g>
<g>
</g>
<g>
</g>
<g>
</g>
<g>
</g>
<g>
</g>
<g>
</g>
<g>
</g>
<g>
</g>
<g>
</g>
<g>
</g>
<g>
</g>
<g>
</g>
<g>
</g>
<g>
</g>
<g>
</g>
</svg>
