<?xml version="1.0" encoding="iso-8859-1"?>
<!-- Generator: Adobe Illustrator 19.0.0, SVG Export Plug-In . SVG Version: 6.00 Build 0)  -->
<svg xmlns="http://www.w3.org/2000/svg" xmlns:xlink="http://www.w3.org/1999/xlink" version="1.1" id="Layer_1" x="0px" y="0px" viewBox="0 0 512 512" style="enable-background:new 0 0 512 512;" xml:space="preserve">
<circle style="fill:#00B0FF;" cx="256" cy="256" r="256"/>
<path style="fill:#1A3B7E;" d="M367.709,162.909c0-10.282-8.336-18.618-18.618-18.618H162.909c-10.282,0-18.618,8.336-18.618,18.618  v130.327h223.418V162.909z"/>
<path style="fill:#0D57A1;" d="M349.091,144.291H162.909c-10.282,0-18.618,8.336-18.618,18.618v130.327l216.744-144.5  C357.795,146.004,353.662,144.291,349.091,144.291z"/>
<path style="fill:#E8EAF6;" d="M391.782,399.49c-3.491,3.491-8.229,5.455-13.163,5.455H133.381c-4.938,0-9.672-1.964-13.163-5.455  l-13.163-13.163h297.891L391.782,399.49z"/>
<polygon style="fill:#FFFFFF;" points="367.709,293.236 144.291,293.236 107.055,386.327 404.945,386.327 "/>
<g>
	<path style="fill:#C5CAE9;" d="M286.008,357.911c-1.145-2.295-4.175-4.166-6.735-4.166h-46.545c-2.56,0-5.59,1.871-6.735,4.166   l-5.143,10.291c-1.15,2.29,0.009,4.161,2.569,4.161h65.164c2.56,0,3.719-1.871,2.574-4.166L286.008,357.911z"/>
	<path style="fill:#C5CAE9;" d="M349.091,335.127c0,2.56-2.095,4.655-4.655,4.655H172.218c-2.56,0-4.655-2.095-4.655-4.655l0,0   c0-2.56,2.095-4.655,4.655-4.655h172.218C346.996,330.473,349.091,332.567,349.091,335.127L349.091,335.127z"/>
	<path style="fill:#C5CAE9;" d="M340.843,316.509c0,2.56-2.095,4.655-4.655,4.655H180.466c-2.56,0-4.655-2.095-4.655-4.655l0,0   c0-2.56,2.095-4.655,4.655-4.655h155.718C338.744,311.855,340.843,313.949,340.843,316.509L340.843,316.509z"/>
</g>
<path style="fill:#FFFFFF;" d="M291.784,200.145v-20.364h-12.218v9.505l-24.436-21.723l-54.984,48.873h18.33v48.873h24.436v-12.218  c0-6.744,5.474-12.218,12.218-12.218c6.744,0,12.218,5.474,12.218,12.218v12.218h24.436v-48.873h18.33L291.784,200.145z"/>
<g>
</g>
<g>
</g>
<g>
</g>
<g>
</g>
<g>
</g>
<g>
</g>
<g>
</g>
<g>
</g>
<g>
</g>
<g>
</g>
<g>
</g>
<g>
</g>
<g>
</g>
<g>
</g>
<g>
</g>
</svg>
