<?xml version="1.0" encoding="iso-8859-1"?>
<!-- Generator: Adobe Illustrator 19.0.0, SVG Export Plug-In . SVG Version: 6.00 Build 0)  -->
<svg xmlns="http://www.w3.org/2000/svg" xmlns:xlink="http://www.w3.org/1999/xlink" version="1.1" id="Layer_1" x="0px" y="0px" viewBox="0 0 512 512" style="enable-background:new 0 0 512 512;" xml:space="preserve">
<circle style="fill:#00B0FF;" cx="256" cy="256" r="256"/>
<g>
	<rect x="144.291" y="256" style="fill:#FFFFFF;" width="223.418" height="111.709"/>
	<rect x="181.527" y="181.527" style="fill:#FFFFFF;" width="148.945" height="55.855"/>
	<rect x="107.055" y="386.327" style="fill:#FFFFFF;" width="297.891" height="18.618"/>
</g>
<g>
	<rect x="125.673" y="367.709" style="fill:#C5CAE9;" width="260.655" height="18.618"/>
	<rect x="125.673" y="237.382" style="fill:#C5CAE9;" width="260.655" height="18.618"/>
	<rect x="162.909" y="162.909" style="fill:#C5CAE9;" width="186.182" height="18.618"/>
</g>
<path style="fill:#E8EAF6;" d="M328.034,162.909c-8.28-32.102-37.343-55.855-72.034-55.855s-63.753,23.752-72.034,55.855H328.034z"/>
<path style="fill:#0D57A1;" d="M274.618,330.473c0-10.282-8.336-18.618-18.618-18.618c-10.282,0-18.618,8.336-18.618,18.618v37.236  h37.236V330.473z"/>
<g>
	<rect x="293.236" y="283.927" style="fill:#00B0FF;" width="18.618" height="18.618"/>
	<rect x="293.236" y="321.164" style="fill:#00B0FF;" width="18.618" height="18.618"/>
	<rect x="330.473" y="283.927" style="fill:#00B0FF;" width="18.618" height="18.618"/>
	<rect x="330.473" y="321.164" style="fill:#00B0FF;" width="18.618" height="18.618"/>
	<rect x="200.145" y="283.927" style="fill:#00B0FF;" width="18.618" height="18.618"/>
	<rect x="200.145" y="200.145" style="fill:#00B0FF;" width="18.618" height="18.618"/>
	<rect x="246.691" y="200.145" style="fill:#00B0FF;" width="18.618" height="18.618"/>
	<rect x="293.236" y="200.145" style="fill:#00B0FF;" width="18.618" height="18.618"/>
	<rect x="200.145" y="321.164" style="fill:#00B0FF;" width="18.618" height="18.618"/>
	<rect x="162.909" y="283.927" style="fill:#00B0FF;" width="18.618" height="18.618"/>
	<rect x="162.909" y="321.164" style="fill:#00B0FF;" width="18.618" height="18.618"/>
</g>
<path style="fill:#FFFFFF;" d="M256,107.055c-34.69,0-63.753,23.752-72.034,55.855H256V107.055z"/>
<g>
</g>
<g>
</g>
<g>
</g>
<g>
</g>
<g>
</g>
<g>
</g>
<g>
</g>
<g>
</g>
<g>
</g>
<g>
</g>
<g>
</g>
<g>
</g>
<g>
</g>
<g>
</g>
<g>
</g>
</svg>
