<?xml version="1.0" encoding="iso-8859-1"?>
<!-- Generator: Adobe Illustrator 19.0.0, SVG Export Plug-In . SVG Version: 6.00 Build 0)  -->
<svg xmlns="http://www.w3.org/2000/svg" xmlns:xlink="http://www.w3.org/1999/xlink" version="1.1" id="Layer_1" x="0px" y="0px" viewBox="0 0 512 512" style="enable-background:new 0 0 512 512;" xml:space="preserve">
<circle style="fill:#00B0FF;" cx="256" cy="256" r="256"/>
<rect x="125.673" y="218.764" style="fill:#FFFFFF;" width="260.655" height="167.564"/>
<path style="fill:#C5CAE9;" d="M367.709,134.982c0-5.139-4.171-9.309-9.309-9.309h-18.618c-5.139,0-9.309,4.17-9.309,9.309v55.855  c0,5.139,4.171,9.309,9.309,9.309H358.4c5.139,0,9.309-4.17,9.309-9.309V134.982z"/>
<path style="fill:#2962FF;" d="M261.716,109.019c-3.361-2.621-8.066-2.621-11.427,0L110.653,202.11  c-3.142,2.439-4.38,6.605-3.091,10.37c1.289,3.756,4.827,6.284,8.802,6.284h279.273c3.975,0,7.512-2.527,8.806-6.288  c1.289-3.766,0.051-7.927-3.091-10.37L261.716,109.019z"/>
<rect x="269.964" y="256" style="fill:#00B0FF;" width="97.745" height="70.377"/>
<path style="fill:#0D57A1;" d="M228.073,293.236c0-20.564-16.673-37.236-37.236-37.236S153.6,272.673,153.6,293.236v74.473h74.473  V293.236z"/>
<circle style="fill:#FFFFFF;" cx="209.455" cy="321.164" r="9.309"/>
<rect x="107.055" y="386.327" style="fill:#0D57A1;" width="297.891" height="18.618"/>
<path style="fill:#1565C0;" d="M107.055,386.327l14.527-14.527c2.621-2.62,6.172-4.091,9.872-4.091h249.093  c3.7,0,7.256,1.471,9.872,4.091l14.527,14.527H107.055z"/>
<g>
</g>
<g>
</g>
<g>
</g>
<g>
</g>
<g>
</g>
<g>
</g>
<g>
</g>
<g>
</g>
<g>
</g>
<g>
</g>
<g>
</g>
<g>
</g>
<g>
</g>
<g>
</g>
<g>
</g>
</svg>
