<?xml version="1.0" encoding="iso-8859-1"?>
<!-- Generator: Adobe Illustrator 19.0.0, SVG Export Plug-In . SVG Version: 6.00 Build 0)  -->
<svg xmlns="http://www.w3.org/2000/svg" xmlns:xlink="http://www.w3.org/1999/xlink" version="1.1" id="Layer_1" x="0px" y="0px" viewBox="0 0 512 512" style="enable-background:new 0 0 512 512;" xml:space="preserve">
<circle style="fill:#00B0FF;" cx="256" cy="256" r="256"/>
<polygon style="fill:#FFFFFF;" points="256,128.051 144.291,212.792 144.291,349.091 367.709,349.091 367.709,212.792 "/>
<path style="fill:#2962FF;" d="M398.401,224.391c-1.494,1.969-3.71,3.263-6.153,3.593c-2.444,0.335-4.924-0.312-6.889-1.806  L256,128.051l-129.354,98.132c-1.969,1.489-4.45,2.141-6.893,1.806c-2.444-0.33-4.659-1.629-6.149-3.593  c-3.109-4.096-2.304-9.937,1.792-13.042l134.982-102.405c3.328-2.518,7.927-2.518,11.255,0l134.982,102.405  C400.705,214.454,401.506,220.295,398.401,224.391z"/>
<path style="fill:#0D57A1;" d="M283.927,302.545c0-15.421-12.507-27.927-27.927-27.927c-15.425,0-27.927,12.507-27.927,27.927  v46.545h55.855V302.545z"/>
<g>
	<path style="fill:#00B0FF;" d="M200.145,237.964c0,2.248-1.829,4.073-4.073,4.073h-24.436c-2.248,0-4.073-1.825-4.073-4.073   v-24.436c0-2.248,1.825-4.073,4.073-4.073h24.436c2.243,0,4.073,1.825,4.073,4.073V237.964z"/>
	<path style="fill:#00B0FF;" d="M200.145,307.782c0,2.248-1.829,4.073-4.073,4.073h-24.436c-2.248,0-4.073-1.825-4.073-4.073   v-24.436c0-2.248,1.825-4.073,4.073-4.073h24.436c2.243,0,4.073,1.825,4.073,4.073V307.782z"/>
	<path style="fill:#00B0FF;" d="M273.697,238.774c0,2.309-1.871,4.184-4.184,4.184h-25.125c-2.313,0-4.189-1.876-4.189-4.184v-25.13   c0-2.313,1.876-4.189,4.189-4.189h25.125c2.313,0,4.184,1.876,4.184,4.189V238.774z"/>
	<path style="fill:#00B0FF;" d="M343.515,237.158c0,2.188-1.769,3.961-3.961,3.961h-23.743c-2.183,0-3.956-1.773-3.956-3.961   v-23.747c0-2.183,1.773-3.956,3.956-3.956h23.747c2.192,0,3.961,1.773,3.961,3.961v23.743H343.515z"/>
</g>
<g>
	<circle style="fill:#0D57A1;" cx="269.964" cy="316.509" r="4.655"/>
	<path style="fill:#0D57A1;" d="M399.202,221.072h-17.24H234.947c-2.327,0-4.417,1.401-5.311,3.551   c-0.889,2.146-0.4,4.617,1.247,6.26l11.492,11.492c0.484,0.484,1.071,0.847,1.68,1.126v23.543h11.497v-22.984h68.948v22.984h11.492   v-22.984h40.229c3.174,0,5.739,2.574,5.739,5.744v149.397c0,3.174,2.579,5.744,5.748,5.744h11.492c3.17,0,5.744-2.574,5.744-5.744   V226.816C404.945,223.646,402.371,221.072,399.202,221.072z"/>
</g>
<path style="fill:#2979FF;" d="M358.4,365.526c0,6.349-5.143,11.492-11.492,11.492H231.987c-6.344,0-11.492-5.143-11.492-11.492  v-80.444c0-6.344,5.143-11.492,11.492-11.492h114.921c6.344,0,11.492,5.143,11.492,11.492V365.526z"/>
<path style="fill:#FFFFFF;" d="M346.908,273.59c6.344,0,11.492,5.143,11.492,11.492v80.445c0,6.349-5.143,11.492-11.492,11.492  H231.987c-6.344,0-11.492-5.143-11.492-11.492v-80.444c0-6.344,5.143-11.492,11.492-11.492H346.908 M346.908,264.28H231.987  c-11.469,0-20.801,9.332-20.801,20.801v80.445c0,11.469,9.332,20.801,20.801,20.801h114.921c11.469,0,20.801-9.332,20.801-20.801  v-80.444C367.709,273.613,358.377,264.28,346.908,264.28L346.908,264.28z"/>
<path style="fill:#448AFF;" d="M231.987,273.59c-6.344,0-11.492,5.143-11.492,11.492v80.445c0,5.306,3.612,9.723,8.499,11.045  L331.981,273.59L231.987,273.59L231.987,273.59z"/>
<g>
	<path style="fill:#FFFFFF;" d="M287.544,317.933l-3.691-8.332c-0.698-1.569-1.936-2.513-3.663-2.513h-0.372   c-1.731,0-3.007,0.945-3.71,2.513l-10.054,22.705c-0.209,0.456-0.372,0.903-0.372,1.359c0,1.648,1.275,2.974,2.928,2.974   c0.126,0,0.214-0.093,0.33-0.102c1.15-0.121,2.104-0.759,2.597-1.876l0.526-1.243l1.489-3.496h2.006h10.687l1.936,4.529   c0.577,1.317,1.564,2.192,3.049,2.192c1.69,0,3.007-1.364,3.007-3.053c0-0.41-0.121-0.824-0.33-1.275L287.544,317.933z    M281.162,324.315h-5.264l3.998-9.523l3.193,7.596l0.81,1.927H281.162z"/>
	<path style="fill:#FFFFFF;" d="M317.3,330.617h-11.743v-20.154c0-1.773-1.401-3.174-3.174-3.174c-1.773,0-3.174,1.401-3.174,3.174   v22.747c0,1.773,1.401,3.179,3.174,3.179H317.3c1.606,0,2.881-1.275,2.881-2.886S318.906,330.617,317.3,330.617z"/>
	<path style="fill:#FFFFFF;" d="M344.064,330.743h-13.061v-6.06h10.999c1.569,0,2.844-1.238,2.844-2.802   c0-1.564-1.275-2.844-2.844-2.844h-10.999v-5.855h12.856c1.569,0,2.844-1.233,2.844-2.802c0-1.564-1.275-2.844-2.844-2.844h-15.988   c-1.773,0-3.174,1.406-3.174,3.174v22.5c0,1.773,1.401,3.179,3.174,3.179h16.193c1.569,0,2.844-1.238,2.844-2.807   C346.908,332.018,345.633,330.743,344.064,330.743z"/>
	<path style="fill:#FFFFFF;" d="M253.212,319.12c-4.985-1.275-6.223-1.894-6.223-3.789v-0.084c0-1.401,1.271-2.513,3.71-2.513   c1.978,0,3.956,0.698,6.056,1.936c0.493,0.289,0.991,0.456,1.61,0.456c1.648,0,2.965-1.275,2.965-2.928   c0-1.233-0.694-2.099-1.401-2.513c-2.593-1.648-5.646-2.555-9.146-2.555c-5.893,0-10.096,3.458-10.096,8.69v0.088   c0,5.73,3.752,7.331,9.56,8.82c4.822,1.238,5.809,2.062,5.809,3.668v0.084c0,1.69-1.564,2.718-4.161,2.718   c-2.807,0-5.194-0.987-7.377-2.593c-0.414-0.293-0.991-0.582-1.815-0.582c-1.648,0-2.97,1.275-2.97,2.928   c0,0.991,0.493,1.894,1.196,2.392c3.212,2.309,7.052,3.458,10.84,3.458c6.218,0,10.589-3.212,10.589-8.941v-0.088   C262.363,322.746,259.063,320.647,253.212,319.12z"/>
</g>
<g>
</g>
<g>
</g>
<g>
</g>
<g>
</g>
<g>
</g>
<g>
</g>
<g>
</g>
<g>
</g>
<g>
</g>
<g>
</g>
<g>
</g>
<g>
</g>
<g>
</g>
<g>
</g>
<g>
</g>
</svg>
