<?xml version="1.0" encoding="iso-8859-1"?>
<!-- Generator: Adobe Illustrator 19.0.0, SVG Export Plug-In . SVG Version: 6.00 Build 0)  -->
<svg xmlns="http://www.w3.org/2000/svg" xmlns:xlink="http://www.w3.org/1999/xlink" version="1.1" id="Layer_1" x="0px" y="0px" viewBox="0 0 512 512" style="enable-background:new 0 0 512 512;" xml:space="preserve">
<circle style="fill:#00B0FF;" cx="256" cy="256" r="256"/>
<path style="fill:#2962FF;" d="M398.401,224.391c-1.494,1.969-3.71,3.263-6.153,3.593c-2.444,0.335-4.924-0.312-6.889-1.806  L256,128.051l-129.354,98.132c-1.974,1.489-4.45,2.141-6.893,1.806c-2.444-0.33-4.659-1.629-6.149-3.593  c-3.109-4.096-2.304-9.937,1.792-13.042l134.982-102.405c3.328-2.518,7.927-2.518,11.255,0l134.982,102.405  C400.705,214.454,401.506,220.295,398.401,224.391z"/>
<path style="fill:#0D57A1;" d="M283.927,302.545c0-15.421-12.507-27.927-27.927-27.927c-15.425,0-27.927,12.507-27.927,27.927  v46.545h55.855V302.545z"/>
<polygon style="fill:#FFFFFF;" points="256,128.051 144.291,212.796 144.291,337.813 144.291,349.091 367.709,349.091   367.709,212.796 "/>
<g>
	<path style="fill:#00B0FF;" d="M200.145,237.964c0,2.248-1.829,4.073-4.073,4.073h-24.436c-2.248,0-4.073-1.825-4.073-4.073   v-24.436c0-2.248,1.825-4.073,4.073-4.073h24.436c2.243,0,4.073,1.825,4.073,4.073V237.964z"/>
	<path style="fill:#00B0FF;" d="M200.145,307.782c0,2.248-1.829,4.073-4.073,4.073h-24.436c-2.248,0-4.073-1.825-4.073-4.073   v-24.436c0-2.248,1.825-4.073,4.073-4.073h24.436c2.243,0,4.073,1.825,4.073,4.073V307.782z"/>
	<path style="fill:#00B0FF;" d="M273.697,238.774c0,2.309-1.876,4.184-4.184,4.184h-25.125c-2.313,0-4.189-1.876-4.189-4.184v-25.13   c0-2.313,1.876-4.189,4.189-4.189h25.125c2.309,0,4.184,1.876,4.184,4.189V238.774z"/>
</g>
<path style="fill:#1E88E5;" d="M343.515,237.158c0,2.188-1.769,3.961-3.961,3.961h-23.743c-2.183,0-3.956-1.773-3.956-3.961v-23.747  c0-2.183,1.773-3.956,3.956-3.956h23.747c2.192,0,3.961,1.773,3.961,3.961v23.743H343.515z"/>
<circle style="fill:#0D57A1;" cx="269.964" cy="316.509" r="4.655"/>
<path style="fill:#C5CAE9;" d="M302.545,212.945c49.403,0,89.6,40.197,89.6,89.6c0,49.408-40.197,89.6-89.6,89.6  s-89.6-40.192-89.6-89.6C212.945,253.142,253.142,212.945,302.545,212.945 M302.545,200.145c-56.553,0-102.4,45.847-102.4,102.4  s45.847,102.4,102.4,102.4s102.4-45.847,102.4-102.4S359.098,200.145,302.545,200.145L302.545,200.145z"/>
<path style="fill:#2979FF;" d="M302.545,392.145c-49.403,0-89.6-40.192-89.6-89.6c0-49.403,40.197-89.6,89.6-89.6  s89.6,40.197,89.6,89.6C392.145,351.953,351.949,392.145,302.545,392.145z"/>
<path style="fill:#448AFF;" d="M302.545,212.945c-49.408,0-89.6,40.197-89.6,89.6c0,25.428,10.664,48.393,27.732,64.717  l126.585-126.585C350.939,223.609,327.973,212.945,302.545,212.945z"/>
<path style="fill:#E8EAF6;" d="M212.945,302.545c0-49.403,40.197-89.6,89.6-89.6c25.358,0,48.272,10.608,64.591,27.601l9.081-9.081  c-18.623-19.298-44.735-31.32-73.672-31.32c-56.553,0-102.4,45.847-102.4,102.4c0,28.937,12.018,55.049,31.32,73.672l9.081-9.081  C223.553,350.822,212.945,327.908,212.945,302.545z"/>
<path style="fill:#FFFFFF;" d="M304.817,238.657c3.691,0,6.609,2.918,6.609,6.605v3.384c9.062,1.071,16.742,3.989,23.808,8.443  c2.453,1.382,4.608,3.691,4.608,7.373c0,4.762-3.84,8.448-8.606,8.448c-1.531,0-3.072-0.461-4.608-1.382  c-5.376-3.226-10.594-5.53-15.821-6.758v29.496c23.352,5.837,33.336,15.206,33.336,31.642c0,16.901-13.21,28.113-32.717,29.957  v3.202c0,3.686-2.918,6.605-6.609,6.605c-3.682,0-6.754-2.918-6.754-6.605v-3.51c-11.525-1.229-22.123-5.371-31.497-11.976  c-2.611-1.69-4.147-4.147-4.147-7.377c0-4.757,3.686-8.443,8.448-8.443c1.843,0,3.686,0.614,5.069,1.69  c7.224,5.218,14.285,8.755,22.733,10.291v-30.264c-22.426-5.837-32.87-14.28-32.87-31.646c0-16.431,13.056-27.802,32.261-29.338  v-3.226C298.063,241.576,301.135,238.657,304.817,238.657z M298.673,291.039v-27.192c-9.826,0.926-14.746,6.149-14.746,12.907  C283.927,283.206,286.846,287.199,298.673,291.039z M310.807,312.39v27.96c9.83-1.075,15.211-5.99,15.211-13.363  C326.018,320.228,322.634,316.081,310.807,312.39z"/>
<g>
</g>
<g>
</g>
<g>
</g>
<g>
</g>
<g>
</g>
<g>
</g>
<g>
</g>
<g>
</g>
<g>
</g>
<g>
</g>
<g>
</g>
<g>
</g>
<g>
</g>
<g>
</g>
<g>
</g>
</svg>
