<?xml version="1.0" encoding="iso-8859-1"?>
<!-- Generator: Adobe Illustrator 19.0.0, SVG Export Plug-In . SVG Version: 6.00 Build 0)  -->
<svg xmlns="http://www.w3.org/2000/svg" xmlns:xlink="http://www.w3.org/1999/xlink" version="1.1" id="Layer_1" x="0px" y="0px" viewBox="0 0 512 512" style="enable-background:new 0 0 512 512;" xml:space="preserve">
<circle style="fill:#00B0FF;" cx="256" cy="256" r="256"/>
<polygon style="fill:#FFFFFF;" points="251.345,128.051 139.636,212.796 139.636,349.091 363.055,349.091 363.055,212.796 "/>
<path style="fill:#2962FF;" d="M393.747,224.391c-1.489,1.969-3.705,3.263-6.149,3.593c-2.444,0.335-4.924-0.312-6.893-1.806  l-129.359-98.127l-129.354,98.132c-1.969,1.489-4.445,2.141-6.893,1.806c-2.439-0.33-4.655-1.629-6.149-3.593  c-3.105-4.096-2.304-9.937,1.792-13.042l134.982-102.405c3.328-2.518,7.927-2.518,11.255,0l134.982,102.405  C396.051,214.454,396.856,220.295,393.747,224.391z"/>
<path style="fill:#0D57A1;" d="M279.273,302.545c0-15.421-12.502-27.927-27.927-27.927c-15.421,0-27.927,12.507-27.927,27.927  v46.545h55.855V302.545z"/>
<g>
	<path style="fill:#00B0FF;" d="M195.491,237.964c0,2.248-1.825,4.073-4.073,4.073h-24.436c-2.248,0-4.073-1.825-4.073-4.073   v-24.436c0-2.248,1.825-4.073,4.073-4.073h24.436c2.248,0,4.073,1.825,4.073,4.073V237.964z"/>
	<path style="fill:#00B0FF;" d="M195.491,307.782c0,2.248-1.825,4.073-4.073,4.073h-24.436c-2.248,0-4.073-1.825-4.073-4.073   v-24.436c0-2.248,1.825-4.073,4.073-4.073h24.436c2.248,0,4.073,1.825,4.073,4.073V307.782z"/>
	<path style="fill:#00B0FF;" d="M269.047,238.774c0,2.309-1.876,4.184-4.189,4.184h-25.125c-2.309,0-4.184-1.876-4.184-4.184v-25.13   c0-2.313,1.876-4.189,4.184-4.189h25.125c2.313,0,4.189,1.876,4.189,4.189V238.774z"/>
</g>
<path style="fill:#1E88E5;" d="M334.21,229.059c0,2.188-1.773,3.956-3.961,3.956h-23.747c-2.188,0-3.961-1.769-3.961-3.956v-23.747  c0-2.188,1.773-3.961,3.961-3.961h23.747c2.188,0,3.961,1.773,3.961,3.961V229.059z"/>
<circle style="fill:#0D57A1;" cx="265.309" cy="316.509" r="4.655"/>
<path style="fill:#FFFFFF;" d="M377.018,164.119h-93.091c-15.402,0-27.927,12.525-27.927,27.927v55.855  c0,15.402,12.525,27.927,27.927,27.927h9.309l-0.2,55.855l0.2,9.509c0.535,25,11.464,44.977,33.41,61.063  c2.416,1.764,5.26,2.69,8.239,2.69c3.258,0,6.428-1.14,8.932-3.212c1.438-1.187,20.35-22.803,21.578-24.199l2.313-2.639v-3.51  v-95.558h9.309c15.402,0,27.927-12.525,27.927-27.927v-55.855C404.945,176.645,392.42,164.119,377.018,164.119z"/>
<path style="fill:#2979FF;" d="M377.018,173.428h-93.091c-10.282,0-18.618,8.336-18.618,18.618v55.855  c0,10.282,8.336,18.618,18.618,18.618h18.618v23.273h18.618v13.964h-18.618v18.618l18.618,9.309v9.309h-18.618  c0.419,19.549,7.959,37.893,29.598,53.76c1.727,1.261,4.101,1.164,5.725-0.186c1.922-1.997,20.531-23.18,20.531-23.18V266.519  h18.618c10.282,0,18.618-8.336,18.618-18.618v-55.855C395.636,181.765,387.3,173.428,377.018,173.428z M302.545,210.665  c0-10.282,8.336-18.618,18.618-18.618h18.618c10.282,0,18.618,8.336,18.618,18.618H302.545z"/>
<path style="fill:#448AFF;" d="M302.545,289.792h18.618v13.964h-18.618v18.618l18.618,9.309v9.309h-18.618  c0.419,19.549,7.959,37.893,29.598,53.76c0.884,0.647,1.941,0.922,2.984,0.87V266.519h-32.582V289.792z"/>
<g>
</g>
<g>
</g>
<g>
</g>
<g>
</g>
<g>
</g>
<g>
</g>
<g>
</g>
<g>
</g>
<g>
</g>
<g>
</g>
<g>
</g>
<g>
</g>
<g>
</g>
<g>
</g>
<g>
</g>
</svg>
