<?xml version="1.0" encoding="iso-8859-1"?>
<!-- Generator: Adobe Illustrator 19.0.0, SVG Export Plug-In . SVG Version: 6.00 Build 0)  -->
<svg xmlns="http://www.w3.org/2000/svg" xmlns:xlink="http://www.w3.org/1999/xlink" version="1.1" id="Layer_1" x="0px" y="0px" viewBox="0 0 512 512" style="enable-background:new 0 0 512 512;" xml:space="preserve">
<circle style="fill:#00B0FF;" cx="256" cy="256" r="256"/>
<polygon style="fill:#FFFFFF;" points="251.345,128.051 139.636,212.796 139.636,349.091 363.055,349.091 363.055,212.796 "/>
<path style="fill:#2962FF;" d="M393.747,224.391c-1.489,1.969-3.705,3.263-6.149,3.593c-2.444,0.335-4.929-0.312-6.893-1.806  l-129.359-98.127l-129.354,98.132c-1.969,1.489-4.445,2.141-6.893,1.806c-2.439-0.33-4.655-1.629-6.149-3.593  c-3.105-4.096-2.304-9.937,1.792-13.042l134.982-102.405c3.328-2.518,7.927-2.518,11.255,0l134.982,102.405  C396.051,214.454,396.856,220.295,393.747,224.391z"/>
<path style="fill:#0D57A1;" d="M279.273,302.545c0-15.421-12.502-27.927-27.927-27.927c-15.421,0-27.927,12.507-27.927,27.927  v46.545h55.855V302.545z"/>
<g>
	<path style="fill:#00B0FF;" d="M195.491,237.964c0,2.248-1.825,4.073-4.073,4.073h-24.436c-2.248,0-4.073-1.825-4.073-4.073   v-24.436c0-2.248,1.825-4.073,4.073-4.073h24.436c2.248,0,4.073,1.825,4.073,4.073V237.964z"/>
	<path style="fill:#00B0FF;" d="M195.491,307.782c0,2.248-1.825,4.073-4.073,4.073h-24.436c-2.248,0-4.073-1.825-4.073-4.073   v-24.436c0-2.248,1.825-4.073,4.073-4.073h24.436c2.248,0,4.073,1.825,4.073,4.073V307.782z"/>
	<path style="fill:#00B0FF;" d="M269.047,238.774c0,2.309-1.876,4.184-4.189,4.184h-25.125c-2.309,0-4.184-1.876-4.184-4.184v-25.13   c0-2.313,1.876-4.189,4.184-4.189h25.125c2.313,0,4.189,1.876,4.189,4.189V238.774z"/>
	<path style="fill:#00B0FF;" d="M338.865,237.158c0,2.188-1.773,3.961-3.961,3.961h-23.747c-2.188,0-3.961-1.773-3.961-3.961   v-23.747c0.005-2.183,1.778-3.956,3.966-3.956h23.747c2.188,0,3.961,1.773,3.961,3.961v23.743H338.865z"/>
</g>
<circle style="fill:#0D57A1;" cx="265.309" cy="316.509" r="4.655"/>
<polygon style="fill:#FFFFFF;" points="355.184,293.236 230.87,293.236 186.182,404.945 399.863,404.945 "/>
<polygon style="fill:#1E88E5;" points="199.936,395.636 239.779,395.636 246.854,372.364 209.245,372.364 "/>
<polygon style="fill:#448AFF;" points="268.12,302.545 237.172,302.545 212.964,363.055 249.693,363.055 "/>
<polygon style="fill:#2962FF;" points="262.302,353.745 249.549,395.636 309.499,395.636 345.391,353.745 "/>
<g>
	<polygon style="fill:#0D57A1;" points="265.1,344.436 353.396,344.436 361.728,334.708 348.881,302.545 277.848,302.545  "/>
	<polygon style="fill:#0D57A1;" points="321.745,395.636 348.225,395.636 335.197,379.951  "/>
</g>
<polygon style="fill:#448AFF;" points="365.638,344.436 341.336,372.783 360.378,395.636 386.118,395.636 "/>
<path style="fill:#2962FF;" d="M326.67,270.392c0,18.227-33.005,88.008-33.005,88.008s-33.01-69.781-33.01-88.008  c0-18.232,14.783-33.01,33.01-33.01C311.892,237.382,326.67,252.16,326.67,270.392z"/>
<path style="fill:#448AFF;" d="M293.665,237.382c-18.232,0-33.01,14.778-33.01,33.005s33.001,87.999,33.01,88.013V237.382z"/>
<circle style="fill:#FFFFFF;" cx="293.655" cy="265.309" r="13.964"/>
<g>
</g>
<g>
</g>
<g>
</g>
<g>
</g>
<g>
</g>
<g>
</g>
<g>
</g>
<g>
</g>
<g>
</g>
<g>
</g>
<g>
</g>
<g>
</g>
<g>
</g>
<g>
</g>
<g>
</g>
</svg>
