<?xml version="1.0" encoding="iso-8859-1"?>
<!-- Generator: Adobe Illustrator 19.0.0, SVG Export Plug-In . SVG Version: 6.00 Build 0)  -->
<svg xmlns="http://www.w3.org/2000/svg" xmlns:xlink="http://www.w3.org/1999/xlink" version="1.1" id="Layer_1" x="0px" y="0px" viewBox="0 0 512 512" style="enable-background:new 0 0 512 512;" xml:space="preserve">
<circle style="fill:#00B0FF;" cx="256" cy="256" r="256"/>
<polygon style="fill:#FFFFFF;" points="181.392,198.968 181.392,316.509 367.574,316.509 367.574,198.968 274.483,129.15 "/>
<path style="fill:#2962FF;" d="M367.574,198.973h14.238c1.997,0,3.77-1.271,4.408-3.16c0.638-1.89,0.009-3.975-1.569-5.185  l-107.39-82.604c-1.648-1.266-3.938-1.289-5.609-0.051l-111.518,82.6c-1.61,1.201-2.276,3.291-1.648,5.199  c0.628,1.908,2.411,3.202,4.417,3.202h18.483l93.091-69.818L367.574,198.973z"/>
<path style="fill:#0D57A1;" d="M311.72,292.063c0-20.568-16.673-37.236-37.236-37.236c-20.568,0-37.236,16.668-37.236,37.236v24.446  h74.473V292.063z"/>
<g>
	<rect x="213.974" y="200.145" style="fill:#00B0FF;" width="37.236" height="37.236"/>
	<rect x="297.756" y="200.145" style="fill:#00B0FF;" width="37.236" height="37.236"/>
</g>
<path style="fill:#C5CAE9;" d="M403.973,299.05c-2.546-6.358-9.416-9.83-16.044-8.099l-88.916,24.055  c-3.835,1.001-7.787,1.503-11.748,1.503h-77.81l52.638-17.548c4.319-1.438,7.801-4.682,9.546-8.89  c1.741-4.203,1.573-8.965-0.465-13.037c-3.393-6.791-11.162-10.184-18.451-8.052l-82.357,24.022  c-10.622,3.095-19.312,10.757-23.729,20.899l-27.443,63.116h84.247c5.194-5.772,12.632-9.309,20.713-9.309h49.897  c6.512,0,12.949-1.364,18.907-4.008l103.917-47.192C403.549,313.544,406.682,305.832,403.973,299.05z"/>
<path style="fill:#FFFFFF;" d="M107.055,381.673c0-2.569,2.081-4.655,4.655-4.655h98.355c1.718,0,3.295,0.945,4.11,2.458  c0.81,1.513,0.717,3.351-0.237,4.776l-12.409,18.618c-0.866,1.299-2.318,2.076-3.873,2.076h-85.946  c-2.574,0-4.655-2.081-4.655-4.655V381.673z"/>
<circle style="fill:#0D57A1;" cx="190.836" cy="388.655" r="6.982"/>
<path style="fill:#E8EAF6;" d="M260.473,268.744c-2.499-0.549-5.153-0.521-7.75,0.237l-82.357,24.022  c-10.622,3.095-19.312,10.757-23.729,20.899l-27.443,63.116h33.001l60.509-60.509h-3.249l4.878-1.624L260.473,268.744z"/>
<g>
</g>
<g>
</g>
<g>
</g>
<g>
</g>
<g>
</g>
<g>
</g>
<g>
</g>
<g>
</g>
<g>
</g>
<g>
</g>
<g>
</g>
<g>
</g>
<g>
</g>
<g>
</g>
<g>
</g>
</svg>
