<?xml version="1.0" encoding="iso-8859-1"?>
<!-- Generator: Adobe Illustrator 19.0.0, SVG Export Plug-In . SVG Version: 6.00 Build 0)  -->
<svg xmlns="http://www.w3.org/2000/svg" xmlns:xlink="http://www.w3.org/1999/xlink" version="1.1" id="Layer_1" x="0px" y="0px" viewBox="0 0 512 512" style="enable-background:new 0 0 512 512;" xml:space="preserve">
<circle style="fill:#00B0FF;" cx="256" cy="256" r="256"/>
<polygon style="fill:#FFFFFF;" points="256,128.051 144.291,212.796 144.291,349.091 367.709,349.091 367.709,212.796 "/>
<path style="fill:#2962FF;" d="M398.401,224.391c-1.489,1.969-3.705,3.263-6.149,3.593c-2.444,0.335-4.924-0.312-6.893-1.806  L256,128.051l-129.354,98.132c-1.969,1.489-4.445,2.141-6.893,1.806c-2.439-0.33-4.655-1.629-6.149-3.593  c-3.105-4.096-2.304-9.937,1.792-13.042l134.982-102.405c3.328-2.518,7.927-2.518,11.255,0l134.982,102.405  C400.705,214.454,401.51,220.295,398.401,224.391z"/>
<path style="fill:#0D57A1;" d="M283.927,302.545c0-15.421-12.502-27.927-27.927-27.927c-15.421,0-27.927,12.507-27.927,27.927  v46.545h55.855V302.545z"/>
<g>
	<path style="fill:#00B0FF;" d="M200.145,237.964c0,2.248-1.825,4.073-4.073,4.073h-24.436c-2.243,0-4.073-1.825-4.073-4.073   v-24.436c0-2.248,1.829-4.073,4.073-4.073h24.436c2.248,0,4.073,1.825,4.073,4.073V237.964z"/>
	<path style="fill:#00B0FF;" d="M200.145,307.782c0,2.248-1.825,4.073-4.073,4.073h-24.436c-2.243,0-4.073-1.825-4.073-4.073   v-24.436c0-2.248,1.829-4.073,4.073-4.073h24.436c2.248,0,4.073,1.825,4.073,4.073V307.782z"/>
	<path style="fill:#00B0FF;" d="M273.701,238.774c0,2.309-1.876,4.184-4.189,4.184h-25.125c-2.309,0-4.184-1.876-4.184-4.184v-25.13   c0-2.313,1.876-4.189,4.184-4.189h25.125c2.313,0,4.189,1.876,4.189,4.189V238.774z"/>
	<path style="fill:#00B0FF;" d="M343.519,237.158c0,2.188-1.773,3.961-3.961,3.961h-23.747c-2.188,0-3.961-1.773-3.961-3.961   v-23.747c0.005-2.183,1.778-3.956,3.966-3.956h23.747c2.188,0,3.961,1.773,3.961,3.961v23.743H343.519z"/>
</g>
<circle style="fill:#0D57A1;" cx="269.964" cy="316.509" r="4.655"/>
<path style="fill:#2962FF;" d="M261.409,400.291c-6.796,0-12.325-5.53-12.325-12.325V269.084c0-6.8,5.53-12.325,12.325-12.325  h126.552c6.796,0,12.325,5.53,12.325,12.325v118.882c0.005,6.8-5.525,12.325-12.321,12.325H261.409z"/>
<path style="fill:#FFFFFF;" d="M387.966,261.409c4.236,0,7.671,3.435,7.671,7.671v118.882c0,4.24-3.435,7.675-7.671,7.675H261.409  c-4.236,0-7.671-3.435-7.671-7.671V269.084c0-4.236,3.435-7.671,7.671-7.671h126.557 M387.966,252.099H261.409  c-9.365,0-16.98,7.619-16.98,16.98v118.882c0,9.365,7.62,16.98,16.98,16.98h126.552c9.365,0.005,16.984-7.615,16.984-16.975V269.084  C404.945,259.719,397.326,252.099,387.966,252.099L387.966,252.099z"/>
<g>
	<path style="fill:#2979FF;" d="M395.636,269.084c0-4.236-3.435-7.671-7.671-7.671H261.409c-4.236,0-7.671,3.435-7.671,7.671   v118.882c0,4.236,3.435,7.671,7.671,7.671h8.336l125.891-125.892V269.084z"/>
	<path style="fill:#2979FF;" d="M395.636,288.256v-3.835h-23.007v-23.007h-3.835v23.007h-26.847v-23.007h-3.835v23.007h-26.847   v-23.007h-3.831v23.007h-26.847v-23.007h-3.835v23.007h-23.012v3.835h23.012v26.847h-23.012v3.835h23.012v26.847h-23.012v3.835   h23.012v26.847h-23.012v3.831h23.012v15.337h3.835v-15.341h26.847v15.341h3.831v-15.341h26.847v15.341h3.835v-15.341h26.847v15.341   h3.835v-15.341h23.007v-3.831h-23.007v-26.847h23.007v-3.835h-23.007v-26.847h23.007v-3.835h-23.007v-26.843H395.636z    M338.111,288.256v26.847h-26.847v-26.847H338.111z M338.111,318.934v26.847h-26.847v-26.847H338.111z M280.585,288.256h26.847   v26.847h-26.847V288.256z M280.585,318.934h26.847v26.847h-26.847V318.934z M280.585,376.464v-26.847h26.847v26.847H280.585z    M311.263,376.464v-26.847h26.847v26.847H311.263z M368.789,376.464h-26.847v-26.847h26.847V376.464z M368.789,345.782h-26.847   v-26.847h26.847V345.782z M368.789,315.099h-26.847v-26.843h26.847V315.099z"/>
</g>
<path style="fill:#448AFF;" d="M276.75,388.631l3.835-3.831v-4.506h4.501l3.835-3.831h-8.336v-26.847h26.847v8.336l3.831-3.835  v-4.501h4.506l3.831-3.835h-8.336v-26.847h26.847v8.336l3.835-3.835v-4.501h4.501l3.835-3.835h-8.336v-26.843h26.847v8.336  l3.835-3.835v-4.501h4.501l3.835-3.835h-8.336v-23.007h-3.835v23.007h-26.847v-23.007h-3.835v23.007h-26.847v-23.007h-3.831v23.007  h-26.847v-23.007h-3.835v23.007h-23.012v3.835h23.012v26.847h-23.012v3.835h23.012v26.847h-23.012v3.835h23.012v26.847h-23.012  v3.831h23.012V388.631z M311.263,288.256h26.847v26.847h-26.847V288.256z M280.585,288.256h26.847v26.847h-26.847V288.256z   M280.585,318.934h26.847v26.847h-26.847V318.934z"/>
<polygon style="fill:#E8EAF6;" points="341.383,309.732 317.905,333.526 296.899,312.045 253.738,339.042 253.738,369.72   294.623,342.63 318.934,365.884 356.971,326.693 371.382,342.365 376.464,292.091 325.939,292.938 "/>
<polygon style="fill:#FFFFFF;" points="325.939,292.938 341.383,309.732 317.905,333.526 296.899,312.045 253.738,339.042   253.738,369.72 294.623,342.63 309.001,356.38 373.239,292.147 "/>
<g>
</g>
<g>
</g>
<g>
</g>
<g>
</g>
<g>
</g>
<g>
</g>
<g>
</g>
<g>
</g>
<g>
</g>
<g>
</g>
<g>
</g>
<g>
</g>
<g>
</g>
<g>
</g>
<g>
</g>
</svg>
