<?xml version="1.0" encoding="iso-8859-1"?>
<!-- Generator: Adobe Illustrator 19.0.0, SVG Export Plug-In . SVG Version: 6.00 Build 0)  -->
<svg xmlns="http://www.w3.org/2000/svg" xmlns:xlink="http://www.w3.org/1999/xlink" version="1.1" id="Layer_1" x="0px" y="0px" viewBox="0 0 512 512" style="enable-background:new 0 0 512 512;" xml:space="preserve">
<circle style="fill:#00B0FF;" cx="256" cy="256" r="256"/>
<polygon style="fill:#FFFFFF;" points="256,128.051 144.291,212.796 144.291,349.091 367.709,349.091 367.709,212.796 "/>
<path style="fill:#2962FF;" d="M398.401,224.391c-1.489,1.969-3.705,3.263-6.149,3.593c-2.444,0.335-4.924-0.312-6.893-1.806  L256,128.051l-129.354,98.132c-1.969,1.489-4.445,2.141-6.893,1.806c-2.439-0.33-4.655-1.629-6.149-3.593  c-3.105-4.096-2.304-9.937,1.792-13.042l134.982-102.405c3.328-2.518,7.927-2.518,11.255,0l134.982,102.405  C400.705,214.454,401.51,220.295,398.401,224.391z"/>
<g>
	<path style="fill:#00B0FF;" d="M200.145,237.964c0,2.248-1.825,4.073-4.073,4.073h-24.436c-2.243,0-4.073-1.825-4.073-4.073   v-24.436c0-2.248,1.829-4.073,4.073-4.073h24.436c2.248,0,4.073,1.825,4.073,4.073V237.964z"/>
	<path style="fill:#00B0FF;" d="M200.145,307.782c0,2.248-1.825,4.073-4.073,4.073h-24.436c-2.243,0-4.073-1.825-4.073-4.073   v-24.436c0-2.248,1.829-4.073,4.073-4.073h24.436c2.248,0,4.073,1.825,4.073,4.073V307.782z"/>
	<path style="fill:#00B0FF;" d="M273.701,238.774c0,2.309-1.876,4.184-4.189,4.184h-25.125c-2.309,0-4.184-1.876-4.184-4.184v-25.13   c0-2.313,1.876-4.189,4.184-4.189h25.125c2.313,0,4.189,1.876,4.189,4.189V238.774z"/>
</g>
<path style="fill:#FFFFFF;" d="M319.05,186.145c43.804,0,78.466,36.492,76.544,79.946c-2.551,57.591-65.429,91.327-114.66,62.934  l-65.145,65.317c-15.928-5.292-26.559-15.891-31.893-31.809l66.29-66.458c-5.371-11.073-8.15-23.599-7.564-36.752  C244.447,218.228,278.328,186.145,319.05,186.145 M319.05,176.873c-46.015,0-83.651,36.035-85.686,82.036  c-0.535,11.976,1.462,23.976,5.809,35.081l-61.836,61.989l-4.045,4.059l1.82,5.432c6.284,18.762,18.986,31.437,37.762,37.669  l5.432,1.806l4.045-4.059l60.337-60.486c53.648,25.339,119.384-11.017,122.168-73.896c1.015-22.905-6.949-44.833-22.43-61.747  C365.763,186.55,342.914,176.873,319.05,176.873L319.05,176.873z"/>
<g>
	<path style="fill:#C5CAE9;" d="M396.009,266.445c1.88-42.408-30.976-78.308-73.384-80.189   c-42.408-1.876-78.308,30.976-80.188,73.388c-0.586,13.205,2.206,25.782,7.596,36.897l-66.541,66.718   c5.348,15.979,16.016,26.624,32.014,31.93l65.401-65.569C330.38,358.158,393.449,324.301,396.009,266.445z"/>
	<path style="fill:#C5CAE9;" d="M242.441,259.645c-0.586,13.205,2.206,25.782,7.596,36.897l-66.546,66.718   c2.979,8.904,7.671,16.086,13.959,21.676l176.123-176.123C326.8,161.918,245.42,192.391,242.441,259.645z"/>
</g>
<circle style="fill:#2979FF;" cx="319.209" cy="263.028" r="54.9"/>
<path style="fill:#448AFF;" d="M321.652,208.198c-30.292-1.345-55.934,22.123-57.274,52.415  c-0.712,16.049,5.585,30.748,16.128,41.263l77.549-77.549C348.691,214.928,335.956,208.831,321.652,208.198z"/>
<path style="fill:#1A3B7E;" d="M250.038,296.541l-66.546,66.718c5.348,15.979,16.016,26.624,32.014,31.93l65.401-65.569  C267.553,321.922,256.759,310.393,250.038,296.541z"/>
<path style="fill:#0D57A1;" d="M250.038,296.541l-66.546,66.718c2.979,8.904,7.671,16.086,13.959,21.676l67.551-67.551  C258.918,311.338,253.817,304.323,250.038,296.541z"/>
<path style="fill:#C5CAE9;" d="M266.775,343.785l14.127-14.168c-13.349-7.694-24.148-19.228-30.869-33.075l-15.267,15.313  L266.775,343.785z"/>
<path style="fill:#E8EAF6;" d="M250.038,296.541l-15.272,15.313l17.911,17.859l12.325-12.325  C258.918,311.338,253.817,304.323,250.038,296.541z"/>
<g>
</g>
<g>
</g>
<g>
</g>
<g>
</g>
<g>
</g>
<g>
</g>
<g>
</g>
<g>
</g>
<g>
</g>
<g>
</g>
<g>
</g>
<g>
</g>
<g>
</g>
<g>
</g>
<g>
</g>
</svg>
