<?xml version="1.0" encoding="iso-8859-1"?>
<!-- Generator: Adobe Illustrator 19.0.0, SVG Export Plug-In . SVG Version: 6.00 Build 0)  -->
<svg xmlns="http://www.w3.org/2000/svg" xmlns:xlink="http://www.w3.org/1999/xlink" version="1.1" id="Layer_1" x="0px" y="0px" viewBox="0 0 512 512" style="enable-background:new 0 0 512 512;" xml:space="preserve">
<circle style="fill:#00B0FF;" cx="256" cy="256" r="256"/>
<path style="fill:#1A3B7E;" d="M199.536,279.557l-85.746,85.732c-8.983,8.993-8.983,23.599,0,32.586l0.33,0.326  c8.988,8.988,23.594,8.988,32.582,0.005l85.741-85.746C219.304,303.919,208.081,292.696,199.536,279.557z"/>
<g>
	<path style="fill:#0D57A1;" d="M113.771,365.289c-8.853,8.853-8.941,23.152-0.344,32.163l78.95-78.95l-15.909-15.909   L113.771,365.289z"/>
	<path style="fill:#0D57A1;" d="M199.512,279.557l-23.045,23.04l15.909,15.909l21.313-21.313   C208.389,291.817,203.646,285.905,199.512,279.557z"/>
</g>
<path style="fill:#E8EAF6;" d="M199.536,279.557l-23.045,23.04l32.912,32.912l23.04-23.045  C219.304,303.919,208.081,292.696,199.536,279.557z"/>
<circle style="fill:#FFFFFF;" cx="293.236" cy="218.764" r="111.709"/>
<circle style="fill:#2979FF;" cx="293.236" cy="218.764" r="88.436"/>
<path style="fill:#448AFF;" d="M293.236,130.327c-48.84,0-88.436,39.596-88.436,88.436c0,25.498,10.854,48.403,28.113,64.545  l124.867-124.867C341.639,141.182,318.734,130.327,293.236,130.327z"/>
<path style="fill:#FFFFFF;" d="M324.245,197.274v-23.226h-12.93v13.335l-18.269-14.42l-49.655,38.139l9.337,10.291l6.865-4.105  v47.276h71.117v-47.272l5.222,4.105l7.149-10.287L324.245,197.274z"/>
<g>
</g>
<g>
</g>
<g>
</g>
<g>
</g>
<g>
</g>
<g>
</g>
<g>
</g>
<g>
</g>
<g>
</g>
<g>
</g>
<g>
</g>
<g>
</g>
<g>
</g>
<g>
</g>
<g>
</g>
</svg>
