<?xml version="1.0" encoding="iso-8859-1"?>
<!-- Generator: Adobe Illustrator 19.0.0, SVG Export Plug-In . SVG Version: 6.00 Build 0)  -->
<svg xmlns="http://www.w3.org/2000/svg" xmlns:xlink="http://www.w3.org/1999/xlink" version="1.1" id="Layer_1" x="0px" y="0px" viewBox="0 0 512 512" style="enable-background:new 0 0 512 512;" xml:space="preserve">
<circle style="fill:#00B0FF;" cx="256" cy="256" r="256"/>
<polygon style="fill:#FFFFFF;" points="256,128.051 144.291,212.796 144.291,349.091 367.709,349.091 367.709,212.796 "/>
<path style="fill:#2962FF;" d="M398.401,224.391c-1.494,1.969-3.71,3.263-6.153,3.593c-2.444,0.335-4.924-0.312-6.889-1.806  L256,128.051l-129.354,98.132c-1.969,1.489-4.45,2.141-6.893,1.806c-2.444-0.33-4.659-1.629-6.149-3.593  c-3.109-4.096-2.304-9.937,1.792-13.042l134.982-102.405c3.328-2.518,7.927-2.518,11.255,0l134.982,102.405  C400.705,214.454,401.506,220.295,398.401,224.391z"/>
<g>
	<path style="fill:#00B0FF;" d="M200.145,237.964c0,2.248-1.829,4.073-4.073,4.073h-24.436c-2.248,0-4.073-1.825-4.073-4.073   v-24.436c0-2.248,1.825-4.073,4.073-4.073h24.436c2.243,0,4.073,1.825,4.073,4.073V237.964z"/>
	<path style="fill:#00B0FF;" d="M200.145,307.782c0,2.248-1.829,4.073-4.073,4.073h-24.436c-2.248,0-4.073-1.825-4.073-4.073   v-24.436c0-2.248,1.825-4.073,4.073-4.073h24.436c2.243,0,4.073,1.825,4.073,4.073V307.782z"/>
	<path style="fill:#00B0FF;" d="M273.697,238.774c0,2.309-1.871,4.184-4.184,4.184h-25.125c-2.313,0-4.189-1.876-4.189-4.184v-25.13   c0-2.313,1.876-4.189,4.189-4.189h25.125c2.313,0,4.184,1.876,4.184,4.189V238.774z"/>
</g>
<polygon style="fill:#2962FF;" points="302.545,200.145 323.747,223.418 353.745,213.862 360.471,244.62 391.229,251.345   381.673,281.344 404.945,302.545 381.673,323.752 391.229,353.745 360.471,360.471 353.745,391.229 323.747,381.677 302.545,404.95   281.339,381.677 251.345,391.229 244.62,360.471 213.862,353.745 223.414,323.752 200.141,302.545 223.414,281.344 213.862,251.345   244.62,244.62 251.345,213.862 281.339,223.418 "/>
<polygon style="fill:#2979FF;" points="360.471,244.629 353.745,213.867 323.752,223.418 302.545,200.15 281.344,223.418   251.345,213.867 244.62,244.629 213.862,251.35 223.418,281.349 200.145,302.555 223.418,323.756 213.862,353.755 244.62,360.476   244.983,362.119 362.119,244.983 "/>
<g>
	<path style="fill:#FFFFFF;" d="M331.93,305.273c-11.85-1.853-21.322,6.181-23.128,17.687l-0.037,0.233   c-1.783,11.385,4.678,21.807,16.412,23.64c11.85,1.857,21.341-6.298,23.128-17.683l0.037-0.233   C350.129,317.533,343.668,307.112,331.93,305.273z M336.109,327.238l-0.037,0.233c-0.819,5.227-4.119,9.593-9.002,8.825   c-4.65-0.726-6.921-5.962-6.07-11.427l0.037-0.233c0.838-5.339,4.124-9.593,9.002-8.825   C334.69,316.537,336.966,321.778,336.109,327.238z"/>
	<path style="fill:#FFFFFF;" d="M344.18,270.41c0.475-3.016-1.587-5.841-4.608-6.316c-1.853-0.293-3.859,0.349-5.143,1.694   l-63.078,62.967c-0.861,0.936-1.624,2.011-1.857,3.519c-0.475,3.021,1.583,5.841,4.603,6.316c1.857,0.293,3.863-0.349,5.143-1.694   l63.083-62.967C343.301,273.008,343.948,271.923,344.18,270.41z"/>
	<path style="fill:#FFFFFF;" d="M281.735,297.407c11.855,1.853,21.346-6.298,23.128-17.687l0.037-0.233   c1.787-11.385-4.678-21.802-16.407-23.64c-11.855-1.857-21.327,6.181-23.128,17.683l-0.037,0.237   C263.54,285.156,270.006,295.568,281.735,297.407z M277.564,275.447l0.037-0.233c0.838-5.343,4.119-9.593,9.002-8.825   c4.645,0.726,6.921,5.962,6.07,11.427l-0.037,0.233c-0.824,5.227-4.124,9.593-9.007,8.825   C278.984,286.147,276.703,280.906,277.564,275.447z"/>
</g>
<g>
</g>
<g>
</g>
<g>
</g>
<g>
</g>
<g>
</g>
<g>
</g>
<g>
</g>
<g>
</g>
<g>
</g>
<g>
</g>
<g>
</g>
<g>
</g>
<g>
</g>
<g>
</g>
<g>
</g>
</svg>
