<?xml version="1.0" encoding="iso-8859-1"?>
<!-- Generator: Adobe Illustrator 19.0.0, SVG Export Plug-In . SVG Version: 6.00 Build 0)  -->
<svg xmlns="http://www.w3.org/2000/svg" xmlns:xlink="http://www.w3.org/1999/xlink" version="1.1" id="Layer_1" x="0px" y="0px" viewBox="0 0 512 512" style="enable-background:new 0 0 512 512;" xml:space="preserve">
<circle style="fill:#00B0FF;" cx="256" cy="256" r="256"/>
<g>
	<rect x="125.673" y="274.618" style="fill:#FFFFFF;" width="167.564" height="130.327"/>
	<rect x="218.764" y="181.527" style="fill:#FFFFFF;" width="37.236" height="37.236"/>
</g>
<rect x="223.418" y="172.218" style="fill:#1E88E5;" width="27.927" height="9.309"/>
<rect x="293.236" y="307.2" style="fill:#E8EAF6;" width="111.709" height="97.745"/>
<polygon style="fill:#2962FF;" points="293.236,228.073 293.236,307.2 404.945,307.2 "/>
<polygon style="fill:#2979FF;" points="293.236,181.527 107.055,274.618 293.236,274.618 "/>
<g>
	<rect x="311.855" y="339.782" style="fill:#0D57A1;" width="74.473" height="65.164"/>
	<path style="fill:#0D57A1;" d="M256,377.018c0-15.421-12.507-27.927-27.927-27.927s-27.927,12.507-27.927,27.927v27.927H256   V377.018z"/>
</g>
<g>
	<rect x="144.291" y="349.091" style="fill:#00B0FF;" width="37.236" height="27.927"/>
	<rect x="144.291" y="293.236" style="fill:#00B0FF;" width="55.855" height="27.927"/>
	<rect x="218.764" y="293.236" style="fill:#00B0FF;" width="55.855" height="27.927"/>
</g>
<g>
	<rect x="311.855" y="386.327" style="fill:#1565C0;" width="74.473" height="9.309"/>
	<rect x="311.855" y="367.709" style="fill:#1565C0;" width="74.473" height="9.309"/>
	<rect x="311.855" y="349.091" style="fill:#1565C0;" width="74.473" height="9.309"/>
</g>
<g>
</g>
<g>
</g>
<g>
</g>
<g>
</g>
<g>
</g>
<g>
</g>
<g>
</g>
<g>
</g>
<g>
</g>
<g>
</g>
<g>
</g>
<g>
</g>
<g>
</g>
<g>
</g>
<g>
</g>
</svg>
