<?xml version="1.0" encoding="iso-8859-1"?>
<!-- Generator: Adobe Illustrator 19.0.0, SVG Export Plug-In . SVG Version: 6.00 Build 0)  -->
<svg xmlns="http://www.w3.org/2000/svg" xmlns:xlink="http://www.w3.org/1999/xlink" version="1.1" id="Layer_1" x="0px" y="0px" viewBox="0 0 512 512" style="enable-background:new 0 0 512 512;" xml:space="preserve">
<circle style="fill:#00B0FF;" cx="256" cy="256" r="256"/>
<rect x="121.018" y="293.236" style="fill:#E8EAF6;" width="269.964" height="74.473"/>
<path style="fill:#0D57A1;" d="M256,307.004c-15.411,0-27.927,12.521-27.927,27.927v32.582h55.855v-32.582  C283.927,319.525,271.411,307.004,256,307.004z"/>
<g>
	<polygon style="fill:#2962FF;" points="107.055,293.236 125.673,256 386.327,256 404.945,293.236  "/>
	<polygon style="fill:#2962FF;" points="162.909,144.291 125.673,181.527 386.327,181.527 349.091,144.291  "/>
</g>
<polygon style="fill:#FFFFFF;" points="293.236,181.527 293.236,162.909 256,107.055 218.764,162.909 218.764,181.527   125.673,181.527 125.673,256 386.327,256 386.327,181.527 "/>
<g>
	<path style="fill:#00B0FF;" d="M242.036,176.873c0-7.708,6.251-13.964,13.964-13.964c7.713,0,13.964,6.256,13.964,13.964v60.509   h-27.927V176.873z"/>
	<rect x="311.855" y="200.145" style="fill:#00B0FF;" width="55.855" height="37.236"/>
	<rect x="144.291" y="200.145" style="fill:#00B0FF;" width="55.855" height="37.236"/>
	<rect x="311.855" y="311.855" style="fill:#00B0FF;" width="55.855" height="37.236"/>
	<rect x="144.291" y="311.855" style="fill:#00B0FF;" width="55.855" height="37.236"/>
</g>
<polygon style="fill:#FFFFFF;" points="390.982,293.236 390.982,367.709 121.018,367.709 121.018,293.236 107.055,293.236   107.055,404.945 404.945,404.945 404.945,293.236 "/>
<g>
	<rect x="218.764" y="377.018" style="fill:#C5CAE9;" width="74.473" height="9.309"/>
	<rect x="209.455" y="395.636" style="fill:#C5CAE9;" width="93.091" height="9.309"/>
</g>
<g>
</g>
<g>
</g>
<g>
</g>
<g>
</g>
<g>
</g>
<g>
</g>
<g>
</g>
<g>
</g>
<g>
</g>
<g>
</g>
<g>
</g>
<g>
</g>
<g>
</g>
<g>
</g>
<g>
</g>
</svg>
