<?xml version="1.0" encoding="iso-8859-1"?>
<!-- Generator: Adobe Illustrator 19.0.0, SVG Export Plug-In . SVG Version: 6.00 Build 0)  -->
<svg xmlns="http://www.w3.org/2000/svg" xmlns:xlink="http://www.w3.org/1999/xlink" version="1.1" id="Layer_1" x="0px" y="0px" viewBox="0 0 512 512" style="enable-background:new 0 0 512 512;" xml:space="preserve">
<circle style="fill:#00B0FF;" cx="256" cy="256" r="256"/>
<path style="fill:#2962FF;" d="M143.006,184.101c0.787-1.578,2.397-2.574,4.161-2.574h217.665c1.764,0,3.379,0.996,4.166,2.574  l35.458,65.164c0.717,1.448,0.647,3.156-0.205,4.534c-0.852,1.364-2.346,2.202-3.961,2.202H111.709  c-1.615,0-3.109-0.838-3.961-2.206c-0.852-1.378-0.922-3.086-0.205-4.534L143.006,184.101z"/>
<path style="fill:#FFFFFF;" d="M330.473,256v-18.618l-70.838-88.543c-0.884-1.103-2.225-1.75-3.635-1.75  c-1.41,0-2.751,0.647-3.635,1.75l-70.838,88.543V256h-55.855v148.945h260.655V256H330.473z"/>
<g>
	<circle style="fill:#00B0FF;" cx="256" cy="200.145" r="18.618"/>
	<path style="fill:#00B0FF;" d="M232.727,242.036c0-5.139-6.251-9.309-13.964-9.309s-13.964,4.17-13.964,9.309v18.618h27.927   V242.036z"/>
	<path style="fill:#00B0FF;" d="M307.2,242.036c0-5.139-6.251-9.309-13.964-9.309c-7.713,0-13.964,4.17-13.964,9.309v18.618H307.2   V242.036z"/>
	<path style="fill:#00B0FF;" d="M358.4,316.509c0,2.574-2.081,4.655-4.655,4.655h-27.927c-2.574,0-4.655-2.081-4.655-4.655v-27.927   c0-2.574,2.081-4.655,4.655-4.655h27.927c2.574,0,4.655,2.081,4.655,4.655V316.509z"/>
	<path style="fill:#00B0FF;" d="M274.618,316.509c0,2.574-2.081,4.655-4.655,4.655h-27.927c-2.574,0-4.655-2.081-4.655-4.655   v-27.927c0-2.574,2.081-4.655,4.655-4.655h27.927c2.574,0,4.655,2.081,4.655,4.655V316.509z"/>
	<path style="fill:#00B0FF;" d="M190.836,316.509c0,2.574-2.081,4.655-4.655,4.655h-27.927c-2.574,0-4.655-2.081-4.655-4.655   v-27.927c0-2.574,2.081-4.655,4.655-4.655h27.927c2.574,0,4.655,2.081,4.655,4.655V316.509z"/>
	<path style="fill:#00B0FF;" d="M209.455,381.673c0,2.574-2.081,4.655-4.655,4.655h-46.545c-2.574,0-4.655-2.081-4.655-4.655   v-27.927c0-2.574,2.081-4.655,4.655-4.655H204.8c2.574,0,4.655,2.081,4.655,4.655V381.673z"/>
</g>
<g>
	<path style="fill:#0D57A1;" d="M274.618,367.709c0-10.282-8.336-18.618-18.618-18.618c-10.282,0-18.618,8.336-18.618,18.618v37.236   h37.236V367.709z"/>
	<circle style="fill:#0D57A1;" cx="260.655" cy="381.673" r="4.655"/>
	<rect x="293.236" y="349.091" style="fill:#0D57A1;" width="74.473" height="55.855"/>
</g>
<g>
	<rect x="293.236" y="358.4" style="fill:#1565C0;" width="74.473" height="4.655"/>
	<rect x="293.236" y="372.364" style="fill:#1565C0;" width="74.473" height="4.655"/>
	<rect x="293.236" y="386.327" style="fill:#1565C0;" width="74.473" height="4.655"/>
	<rect x="293.236" y="400.291" style="fill:#1565C0;" width="74.473" height="4.655"/>
</g>
<polygon style="fill:#FFFFFF;" points="339.782,144.291 321.164,144.291 311.855,162.909 311.855,181.527 349.091,181.527   349.091,162.909 "/>
<g>
</g>
<g>
</g>
<g>
</g>
<g>
</g>
<g>
</g>
<g>
</g>
<g>
</g>
<g>
</g>
<g>
</g>
<g>
</g>
<g>
</g>
<g>
</g>
<g>
</g>
<g>
</g>
<g>
</g>
</svg>
