<?xml version="1.0" encoding="iso-8859-1"?>
<!-- Generator: Adobe Illustrator 19.0.0, SVG Export Plug-In . SVG Version: 6.00 Build 0)  -->
<svg xmlns="http://www.w3.org/2000/svg" xmlns:xlink="http://www.w3.org/1999/xlink" version="1.1" id="Layer_1" x="0px" y="0px" viewBox="0 0 512 512" style="enable-background:new 0 0 512 512;" xml:space="preserve">
<circle style="fill:#00B0FF;" cx="256" cy="256" r="256"/>
<rect x="125.673" y="293.236" style="fill:#E8EAF6;" width="260.655" height="111.709"/>
<path style="fill:#2962FF;" d="M402.39,286.855c0.573,1.434,0.4,3.058-0.465,4.338c-0.866,1.28-2.313,2.043-3.854,2.043H113.929  c-1.545,0-2.988-0.763-3.854-2.043c-0.866-1.275-1.038-2.904-0.465-4.338l33.508-83.782c0.708-1.769,2.42-2.928,4.324-2.928h217.116  c1.908,0,3.617,1.159,4.329,2.928L402.39,286.855z"/>
<path style="fill:#2979FF;" d="M191.209,256c-1.787,0-3.416-1.029-4.189-2.634c-0.777-1.615-0.559-3.528,0.559-4.929l64.787-80.98  c0.884-1.103,2.225-1.75,3.635-1.75s2.751,0.647,3.635,1.75l64.787,80.98c1.117,1.401,1.336,3.314,0.559,4.929  c-0.773,1.606-2.402,2.634-4.189,2.634H191.209z"/>
<rect x="311.855" y="162.909" style="fill:#C5CAE9;" width="37.236" height="37.236"/>
<rect x="302.545" y="144.291" style="fill:#FFFFFF;" width="55.855" height="18.618"/>
<rect x="162.909" y="162.909" style="fill:#C5CAE9;" width="37.236" height="37.236"/>
<rect x="153.6" y="144.291" style="fill:#FFFFFF;" width="55.855" height="18.618"/>
<g>
	<rect x="144.291" y="311.855" style="fill:#1E88E5;" width="37.236" height="37.236"/>
	<rect x="330.473" y="311.855" style="fill:#1E88E5;" width="37.236" height="37.236"/>
</g>
<rect x="200.145" y="256" style="fill:#FFFFFF;" width="111.709" height="148.945"/>
<rect x="228.073" y="349.091" style="fill:#0D57A1;" width="55.855" height="55.855"/>
<g>
	<rect x="265.309" y="274.618" style="fill:#00B0FF;" width="27.927" height="37.236"/>
	<rect x="218.764" y="274.618" style="fill:#00B0FF;" width="27.927" height="37.236"/>
</g>
<circle style="fill:#FFFFFF;" cx="256" cy="218.764" r="18.618"/>
<g>
</g>
<g>
</g>
<g>
</g>
<g>
</g>
<g>
</g>
<g>
</g>
<g>
</g>
<g>
</g>
<g>
</g>
<g>
</g>
<g>
</g>
<g>
</g>
<g>
</g>
<g>
</g>
<g>
</g>
</svg>
