<?xml version="1.0" encoding="iso-8859-1"?>
<!-- Generator: Adobe Illustrator 19.0.0, SVG Export Plug-In . SVG Version: 6.00 Build 0)  -->
<svg xmlns="http://www.w3.org/2000/svg" xmlns:xlink="http://www.w3.org/1999/xlink" version="1.1" id="Layer_1" x="0px" y="0px" viewBox="0 0 512 512" style="enable-background:new 0 0 512 512;" xml:space="preserve">
<circle style="fill:#00B0FF;" cx="256" cy="256" r="256"/>
<polygon style="fill:#FFFFFF;" points="256,152.827 144.291,228.627 144.291,367.709 367.709,367.709 367.709,228.627 "/>
<rect x="172.218" y="237.382" style="fill:#0D57A1;" width="167.564" height="130.327"/>
<path style="fill:#2962FF;" d="M386.309,237.382c-3.598,0-7.238-1.043-10.435-3.212L256,152.827L136.127,234.17  c-8.513,5.776-20.084,3.561-25.861-4.948c-5.776-8.508-3.561-20.084,4.948-25.861L256,107.827l140.781,95.53  c8.509,5.772,10.729,17.352,4.948,25.861C398.131,234.524,392.271,237.382,386.309,237.382z"/>
<g>
	<rect x="172.218" y="251.345" style="fill:#1565C0;" width="167.564" height="9.309"/>
	<rect x="172.218" y="274.618" style="fill:#1565C0;" width="167.564" height="9.309"/>
	<rect x="172.218" y="297.891" style="fill:#1565C0;" width="167.564" height="9.309"/>
	<rect x="172.218" y="321.164" style="fill:#1565C0;" width="167.564" height="9.309"/>
	<rect x="172.218" y="344.436" style="fill:#1565C0;" width="167.564" height="9.309"/>
</g>
<rect x="107.055" y="386.327" style="fill:#0D57A1;" width="297.891" height="18.618"/>
<path style="fill:#1565C0;" d="M107.055,386.327l14.527-14.527c2.621-2.62,6.172-4.091,9.872-4.091h249.093  c3.7,0,7.256,1.471,9.872,4.091l14.527,14.527H107.055z"/>
<g>
</g>
<g>
</g>
<g>
</g>
<g>
</g>
<g>
</g>
<g>
</g>
<g>
</g>
<g>
</g>
<g>
</g>
<g>
</g>
<g>
</g>
<g>
</g>
<g>
</g>
<g>
</g>
<g>
</g>
</svg>
