<?xml version="1.0" encoding="iso-8859-1"?>
<!-- Generator: Adobe Illustrator 19.0.0, SVG Export Plug-In . SVG Version: 6.00 Build 0)  -->
<svg xmlns="http://www.w3.org/2000/svg" xmlns:xlink="http://www.w3.org/1999/xlink" version="1.1" id="Layer_1" x="0px" y="0px" viewBox="0 0 512 512" style="enable-background:new 0 0 512 512;" xml:space="preserve">
<circle style="fill:#00B0FF;" cx="256" cy="256" r="256"/>
<polygon style="fill:#2962FF;" points="181.155,293.236 208.072,293.236 293.236,207.486 293.236,181.155 "/>
<path style="fill:#FFFFFF;" d="M404.945,208.654l-85.383,84.582c-9.793,0-2.872,0-26.326,0V263.34v-55.855l-85.383,85.751  c-9.798,0-2.872,0-26.326,0c-2.02-14.117-16.598-116.21-18.618-130.327h-37.236c-2.02,14.117-16.598,116.21-18.618,130.327v111.709  h297.891"/>
<g>
	<polygon style="fill:#2962FF;" points="293.236,293.236 319.562,293.236 404.945,208.654 404.945,181.527  "/>
	<polygon style="fill:#2962FF;" points="120.353,200.145 168.229,200.145 165.567,181.527 123.015,181.527  "/>
	<polygon style="fill:#2962FF;" points="115.037,237.382 173.545,237.382 170.892,218.764 117.69,218.764  "/>
	<polygon style="fill:#2962FF;" points="109.712,274.618 178.87,274.618 176.207,256 112.375,256  "/>
</g>
<g>
	<polygon style="fill:#2979FF;" points="144.291,181.527 123.015,181.527 120.353,200.145 144.291,200.145  "/>
	<polygon style="fill:#2979FF;" points="144.291,218.764 117.69,218.764 115.037,237.382 144.291,237.382  "/>
	<polygon style="fill:#2979FF;" points="144.291,256 112.375,256 109.712,274.618 144.291,274.618  "/>
</g>
<polygon style="fill:#FFFFFF;" points="109.712,274.618 107.055,293.236 144.291,293.236 144.291,274.618 "/>
<g>
	<rect x="265.309" y="330.473" style="fill:#00B0FF;" width="111.709" height="32.582"/>
	<rect x="134.982" y="330.473" style="fill:#00B0FF;" width="111.709" height="32.582"/>
</g>
<path style="fill:#FFFFFF;" d="M330.901,104.792c-8.602,21.555-29.622,36.808-54.244,36.808c-40.332,0-36.687-31.162-77.903-31.162  c-25.349,0-46.862,16.175-54.956,38.74c10.696-11.804,26.089-19.265,43.269-19.265c45.601,0,39.126,38.949,85.695,38.949  C306.981,168.862,334.234,139.45,330.901,104.792z"/>
<g>
</g>
<g>
</g>
<g>
</g>
<g>
</g>
<g>
</g>
<g>
</g>
<g>
</g>
<g>
</g>
<g>
</g>
<g>
</g>
<g>
</g>
<g>
</g>
<g>
</g>
<g>
</g>
<g>
</g>
</svg>
