<?xml version="1.0" encoding="iso-8859-1"?>
<!-- Generator: Adobe Illustrator 19.0.0, SVG Export Plug-In . SVG Version: 6.00 Build 0)  -->
<svg xmlns="http://www.w3.org/2000/svg" xmlns:xlink="http://www.w3.org/1999/xlink" version="1.1" id="Layer_1" x="0px" y="0px" viewBox="0 0 512 512" style="enable-background:new 0 0 512 512;" xml:space="preserve">
<circle style="fill:#00B0FF;" cx="256" cy="256" r="256"/>
<polygon style="fill:#E8EAF6;" points="256,241.082 125.673,298.1 125.673,404.945 386.327,404.945 386.327,298.1 "/>
<path style="fill:#2962FF;" d="M256,215.063l-143.369,62.725c-3.384,1.48-5.576,4.831-5.576,8.527v5.702  c0,3.142,1.583,6.074,4.212,7.792c2.63,1.718,5.949,1.997,8.825,0.735L256,241.082l135.903,59.457  c2.876,1.261,6.195,0.982,8.825-0.735c2.63-1.717,4.217-4.65,4.217-7.792v-5.702c0-3.696-2.192-7.047-5.576-8.527L256,215.063z"/>
<polygon style="fill:#FFFFFF;" points="265.309,188.975 265.309,153.6 293.236,153.6 293.236,134.982 265.309,134.982   265.309,107.055 246.691,107.055 246.691,134.982 218.764,134.982 218.764,153.6 246.691,153.6 246.691,188.975 209.455,218.764   209.455,404.945 302.545,404.945 302.545,218.764 "/>
<path style="fill:#0D57A1;" d="M274.618,349.091c0-10.282-8.336-18.618-18.618-18.618c-10.282,0-18.618,8.336-18.618,18.618v55.855  h37.236V349.091z"/>
<g>
	<path style="fill:#00B0FF;" d="M148.945,321.164c0-10.282,8.336-18.618,18.618-18.618s18.618,8.336,18.618,18.618v55.855h-37.236   V321.164z"/>
	<path style="fill:#00B0FF;" d="M325.818,321.164c0-10.282,8.336-18.618,18.618-18.618s18.618,8.336,18.618,18.618v55.855h-37.236   V321.164z"/>
</g>
<path style="fill:#C5CAE9;" d="M237.382,237.382c0-10.282,8.336-18.618,18.618-18.618c10.282,0,18.618,8.336,18.618,18.618v60.509  h-37.236V237.382z"/>
<g>
</g>
<g>
</g>
<g>
</g>
<g>
</g>
<g>
</g>
<g>
</g>
<g>
</g>
<g>
</g>
<g>
</g>
<g>
</g>
<g>
</g>
<g>
</g>
<g>
</g>
<g>
</g>
<g>
</g>
</svg>
