<?xml version="1.0" encoding="iso-8859-1"?>
<!-- Generator: Adobe Illustrator 19.0.0, SVG Export Plug-In . SVG Version: 6.00 Build 0)  -->
<svg xmlns="http://www.w3.org/2000/svg" xmlns:xlink="http://www.w3.org/1999/xlink" version="1.1" id="Layer_1" x="0px" y="0px" viewBox="0 0 512 512" style="enable-background:new 0 0 512 512;" xml:space="preserve">
<circle style="fill:#00B0FF;" cx="256" cy="256" r="256"/>
<rect x="200.145" y="144.291" style="fill:#FFFFFF;" width="93.091" height="37.236"/>
<rect x="181.527" y="181.527" style="fill:#E8EAF6;" width="130.327" height="223.418"/>
<rect x="125.673" y="237.382" style="fill:#FFFFFF;" width="93.091" height="167.564"/>
<rect x="153.6" y="377.018" style="fill:#0D57A1;" width="37.236" height="27.927"/>
<polygon style="fill:#2962FF;" points="209.455,144.291 246.691,107.055 283.927,144.291 "/>
<g>
	<rect x="214.109" y="153.6" style="fill:#1E88E5;" width="9.309" height="18.618"/>
	<rect x="232.727" y="153.6" style="fill:#1E88E5;" width="9.309" height="18.618"/>
	<rect x="251.345" y="153.6" style="fill:#1E88E5;" width="9.309" height="18.618"/>
	<rect x="269.964" y="153.6" style="fill:#1E88E5;" width="9.309" height="18.618"/>
</g>
<path style="fill:#FFFFFF;" d="M395.627,297.891c-1.545,0-3.109-0.382-4.557-1.196l-69.907-39.322l-69.911,39.322  c-1.448,0.815-3.011,1.159-4.561,1.154v107.096h148.945V297.891H395.627z"/>
<path style="fill:#0D57A1;" d="M339.782,386.327c0-10.282-8.336-18.618-18.618-18.618s-18.618,8.336-18.618,18.618v18.618h37.236  V386.327z"/>
<g>
	<rect x="200.145" y="200.145" style="fill:#00B0FF;" width="9.309" height="18.618"/>
	<rect x="228.073" y="200.145" style="fill:#00B0FF;" width="9.309" height="18.618"/>
	<rect x="228.073" y="237.382" style="fill:#00B0FF;" width="9.309" height="18.618"/>
	<rect x="256" y="200.145" style="fill:#00B0FF;" width="9.309" height="18.618"/>
	<rect x="256" y="237.382" style="fill:#00B0FF;" width="9.309" height="18.618"/>
	<rect x="283.927" y="200.145" style="fill:#00B0FF;" width="9.309" height="18.618"/>
	<rect x="283.927" y="237.382" style="fill:#00B0FF;" width="9.309" height="18.618"/>
	<rect x="181.527" y="339.782" style="fill:#00B0FF;" width="18.618" height="18.618"/>
	<rect x="144.291" y="339.782" style="fill:#00B0FF;" width="18.618" height="18.618"/>
	<rect x="181.527" y="302.545" style="fill:#00B0FF;" width="18.618" height="18.618"/>
	<rect x="144.291" y="302.545" style="fill:#00B0FF;" width="18.618" height="18.618"/>
	<rect x="181.527" y="265.309" style="fill:#00B0FF;" width="18.618" height="18.618"/>
	<rect x="144.291" y="265.309" style="fill:#00B0FF;" width="18.618" height="18.618"/>
	<rect x="274.618" y="297.891" style="fill:#00B0FF;" width="18.618" height="18.618"/>
	<rect x="274.618" y="335.127" style="fill:#00B0FF;" width="18.618" height="18.618"/>
	<rect x="311.855" y="297.891" style="fill:#00B0FF;" width="18.618" height="18.618"/>
	<rect x="311.855" y="335.127" style="fill:#00B0FF;" width="18.618" height="18.618"/>
	<rect x="349.091" y="297.891" style="fill:#00B0FF;" width="18.618" height="18.618"/>
	<rect x="349.091" y="335.127" style="fill:#00B0FF;" width="18.618" height="18.618"/>
</g>
<polygon style="fill:#2979FF;" points="246.691,107.055 209.455,144.291 246.691,144.291 "/>
<path style="fill:#2962FF;" d="M395.627,297.891c-1.545,0-3.109-0.382-4.557-1.196l-69.907-39.322l-69.911,39.322  c-4.482,2.523-10.156,0.931-12.679-3.551s-0.931-10.156,3.551-12.679l79.039-44.456l79.034,44.46  c4.482,2.523,6.074,8.197,3.551,12.679C402.041,296.183,398.881,297.891,395.627,297.891z"/>
<g>
</g>
<g>
</g>
<g>
</g>
<g>
</g>
<g>
</g>
<g>
</g>
<g>
</g>
<g>
</g>
<g>
</g>
<g>
</g>
<g>
</g>
<g>
</g>
<g>
</g>
<g>
</g>
<g>
</g>
</svg>
