<?xml version="1.0" encoding="iso-8859-1"?>
<!-- Generator: Adobe Illustrator 19.0.0, SVG Export Plug-In . SVG Version: 6.00 Build 0)  -->
<svg xmlns="http://www.w3.org/2000/svg" xmlns:xlink="http://www.w3.org/1999/xlink" version="1.1" id="Layer_1" x="0px" y="0px" viewBox="0 0 512 512" style="enable-background:new 0 0 512 512;" xml:space="preserve">
<circle style="fill:#00B0FF;" cx="256" cy="256" r="256"/>
<rect x="125.673" y="144.291" style="fill:#E8EAF6;" width="93.091" height="223.418"/>
<rect x="218.764" y="107.055" style="fill:#FFFFFF;" width="167.564" height="260.655"/>
<g>
	<rect x="246.691" y="283.927" style="fill:#00B0FF;" width="46.545" height="18.618"/>
	<rect x="311.855" y="283.927" style="fill:#00B0FF;" width="46.545" height="18.618"/>
	<rect x="246.691" y="246.691" style="fill:#00B0FF;" width="46.545" height="18.618"/>
	<rect x="311.855" y="246.691" style="fill:#00B0FF;" width="46.545" height="18.618"/>
	<rect x="246.691" y="209.455" style="fill:#00B0FF;" width="46.545" height="18.618"/>
	<rect x="311.855" y="209.455" style="fill:#00B0FF;" width="46.545" height="18.618"/>
	<rect x="246.691" y="172.218" style="fill:#00B0FF;" width="46.545" height="18.618"/>
	<rect x="311.855" y="172.218" style="fill:#00B0FF;" width="46.545" height="18.618"/>
	<rect x="246.691" y="134.982" style="fill:#00B0FF;" width="46.545" height="18.618"/>
	<rect x="311.855" y="134.982" style="fill:#00B0FF;" width="46.545" height="18.618"/>
</g>
<g>
	<rect x="144.291" y="162.909" style="fill:#1E88E5;" width="18.618" height="18.618"/>
	<rect x="181.527" y="162.909" style="fill:#1E88E5;" width="18.618" height="18.618"/>
	<rect x="144.291" y="200.145" style="fill:#1E88E5;" width="18.618" height="18.618"/>
	<rect x="181.527" y="200.145" style="fill:#1E88E5;" width="18.618" height="18.618"/>
	<rect x="144.291" y="237.382" style="fill:#1E88E5;" width="18.618" height="18.618"/>
	<rect x="181.527" y="237.382" style="fill:#1E88E5;" width="18.618" height="18.618"/>
	<rect x="144.291" y="274.618" style="fill:#1E88E5;" width="18.618" height="18.618"/>
	<rect x="181.527" y="274.618" style="fill:#1E88E5;" width="18.618" height="18.618"/>
	<rect x="144.291" y="311.855" style="fill:#1E88E5;" width="18.618" height="18.618"/>
	<rect x="181.527" y="311.855" style="fill:#1E88E5;" width="18.618" height="18.618"/>
</g>
<g>
	<rect x="274.618" y="330.473" style="fill:#0D57A1;" width="55.855" height="37.236"/>
	<rect x="107.055" y="386.327" style="fill:#0D57A1;" width="297.891" height="18.618"/>
</g>
<polygon style="fill:#1565C0;" points="107.055,386.327 125.673,367.709 386.327,367.709 404.945,386.327 "/>
<rect x="260.655" y="316.509" style="fill:#C5CAE9;" width="83.782" height="13.964"/>
<rect x="158.255" y="344.436" style="fill:#0D57A1;" width="27.927" height="23.273"/>
<g>
</g>
<g>
</g>
<g>
</g>
<g>
</g>
<g>
</g>
<g>
</g>
<g>
</g>
<g>
</g>
<g>
</g>
<g>
</g>
<g>
</g>
<g>
</g>
<g>
</g>
<g>
</g>
<g>
</g>
</svg>
