<?xml version="1.0" encoding="iso-8859-1"?>
<!-- Generator: Adobe Illustrator 19.0.0, SVG Export Plug-In . SVG Version: 6.00 Build 0)  -->
<svg xmlns="http://www.w3.org/2000/svg" xmlns:xlink="http://www.w3.org/1999/xlink" version="1.1" id="Layer_1" x="0px" y="0px" viewBox="0 0 512 512" style="enable-background:new 0 0 512 512;" xml:space="preserve">
<circle style="fill:#00B0FF;" cx="256" cy="256" r="256"/>
<rect x="125.673" y="125.673" style="fill:#E8EAF6;" width="148.945" height="260.655"/>
<rect x="274.618" y="125.673" style="fill:#C5CAE9;" width="111.709" height="204.8"/>
<polygon style="fill:#FFFFFF;" points="107.055,107.055 404.945,107.055 386.327,125.673 125.673,125.673 "/>
<polygon style="fill:#0D57A1;" points="107.055,404.945 274.618,404.945 274.618,386.327 125.673,386.327 "/>
<rect x="274.618" y="330.473" style="fill:#1E88E5;" width="111.709" height="74.473"/>
<path style="fill:#FFFFFF;" d="M367.709,330.473h-74.473v-60.509c0-20.564,16.673-37.236,37.236-37.236s37.236,16.673,37.236,37.236  V330.473z"/>
<path style="fill:#448AFF;" d="M307.2,269.964c0-12.856,10.417-23.273,23.273-23.273s23.273,10.417,23.273,23.273H307.2z"/>
<rect x="307.2" y="279.273" style="fill:#C5CAE9;" width="46.545" height="51.2"/>
<g>
	<rect x="274.618" y="386.327" style="fill:#E8EAF6;" width="111.709" height="9.309"/>
	<rect x="274.618" y="367.709" style="fill:#E8EAF6;" width="111.709" height="9.309"/>
	<rect x="274.618" y="349.091" style="fill:#E8EAF6;" width="111.709" height="9.309"/>
	<rect x="274.618" y="330.473" style="fill:#E8EAF6;" width="111.709" height="9.309"/>
</g>
<path style="fill:#448AFF;" d="M330.473,200.145c-12.833,0-23.273-10.44-23.273-23.273s10.44-23.273,23.273-23.273  s23.273,10.44,23.273,23.273S343.305,200.145,330.473,200.145z"/>
<path style="fill:#FFFFFF;" d="M330.473,153.6c12.833,0,23.273,10.44,23.273,23.273s-10.44,23.273-23.273,23.273  s-23.273-10.44-23.273-23.273S317.64,153.6,330.473,153.6 M330.473,144.291c-17.994,0-32.582,14.587-32.582,32.582  s14.587,32.582,32.582,32.582s32.582-14.587,32.582-32.582S348.467,144.291,330.473,144.291L330.473,144.291z"/>
<g>
	<path style="fill:#2979FF;" d="M190.836,363.055h-46.545v-69.818c0-12.856,10.417-23.273,23.273-23.273   c12.856,0,23.273,10.417,23.273,23.273V363.055z"/>
	<rect x="144.291" y="330.473" style="fill:#2979FF;" width="46.545" height="32.582"/>
	<path style="fill:#2979FF;" d="M256,363.055h-46.545v-69.818c0-12.856,10.417-23.273,23.273-23.273S256,280.38,256,293.236V363.055   z"/>
	<rect x="209.455" y="330.473" style="fill:#2979FF;" width="46.545" height="32.582"/>
	<path style="fill:#2979FF;" d="M256,237.382h-46.545v-69.818c0-12.856,10.417-23.273,23.273-23.273S256,154.708,256,167.564   V237.382z"/>
	<rect x="209.455" y="204.8" style="fill:#2979FF;" width="46.545" height="32.582"/>
</g>
<g>
	<path style="fill:#448AFF;" d="M256,173.847v-6.284c0-12.856-10.417-23.273-23.273-23.273s-23.273,10.417-23.273,23.273v52.829   L256,173.847z"/>
	<polygon style="fill:#448AFF;" points="225.052,204.8 209.455,204.8 209.455,220.393  "/>
	<path style="fill:#448AFF;" d="M190.836,299.52v-6.284c0-12.856-10.417-23.273-23.273-23.273   c-12.856,0-23.273,10.417-23.273,23.273v52.829L190.836,299.52z"/>
	<polygon style="fill:#448AFF;" points="159.888,330.473 144.291,330.473 144.291,346.065  "/>
	<path style="fill:#448AFF;" d="M256,299.52v-6.284c0-12.856-10.417-23.273-23.273-23.273s-23.273,10.417-23.273,23.273v52.829   L256,299.52z"/>
	<polygon style="fill:#448AFF;" points="225.052,330.473 209.455,330.473 209.455,346.065  "/>
</g>
<g>
	<rect x="209.455" y="195.491" style="fill:#FFFFFF;" width="46.545" height="9.309"/>
	<rect x="144.291" y="321.164" style="fill:#FFFFFF;" width="46.545" height="9.309"/>
	<rect x="209.455" y="321.164" style="fill:#FFFFFF;" width="46.545" height="9.309"/>
	<polygon style="fill:#FFFFFF;" points="107.055,237.382 274.618,237.382 274.618,256 125.673,256  "/>
</g>
<g>
	<path style="fill:#2979FF;" d="M190.836,237.382h-46.545v-69.818c0-12.856,10.417-23.273,23.273-23.273   c12.856,0,23.273,10.417,23.273,23.273V237.382z"/>
	<rect x="144.291" y="204.8" style="fill:#2979FF;" width="46.545" height="32.582"/>
</g>
<path style="fill:#448AFF;" d="M190.836,173.847v-6.284c0-12.856-10.417-23.273-23.273-23.273  c-12.856,0-23.273,10.417-23.273,23.273v52.829L190.836,173.847z"/>
<g>
	<rect x="144.291" y="195.491" style="fill:#FFFFFF;" width="46.545" height="9.309"/>
	<path style="fill:#FFFFFF;" d="M386.327,404.945h18.618v-102.4c0-5.139-4.17-9.309-9.309-9.309s-9.309,4.17-9.309,9.309V404.945z"/>
</g>
<g>
</g>
<g>
</g>
<g>
</g>
<g>
</g>
<g>
</g>
<g>
</g>
<g>
</g>
<g>
</g>
<g>
</g>
<g>
</g>
<g>
</g>
<g>
</g>
<g>
</g>
<g>
</g>
<g>
</g>
</svg>
