<?xml version="1.0" encoding="iso-8859-1"?>
<!-- Generator: Adobe Illustrator 19.0.0, SVG Export Plug-In . SVG Version: 6.00 Build 0)  -->
<svg xmlns="http://www.w3.org/2000/svg" xmlns:xlink="http://www.w3.org/1999/xlink" version="1.1" id="Layer_1" x="0px" y="0px" viewBox="0 0 512 512" style="enable-background:new 0 0 512 512;" xml:space="preserve">
<circle style="fill:#00B0FF;" cx="256" cy="256" r="256"/>
<polygon style="fill:#FFFFFF;" points="293.236,181.527 293.236,404.945 404.945,404.945 404.945,181.527 349.091,125.673 "/>
<polygon style="fill:#2962FF;" points="293.236,162.909 349.091,107.055 404.945,162.909 404.945,181.527 349.091,125.673   293.236,181.527 "/>
<polygon style="fill:#FFFFFF;" points="107.055,181.527 107.055,404.945 218.764,404.945 218.764,181.527 162.909,125.673 "/>
<polygon style="fill:#2962FF;" points="107.055,162.909 162.909,107.055 218.764,162.909 218.764,181.527 162.909,125.673   107.055,181.527 "/>
<polygon style="fill:#E8EAF6;" points="218.764,218.764 218.764,404.945 293.236,404.945 293.236,218.764 256,200.145 "/>
<polygon style="fill:#2962FF;" points="218.764,200.145 218.764,218.764 256,200.145 293.236,218.764 293.236,200.145 256,181.527   "/>
<rect x="237.382" y="274.618" style="fill:#00B0FF;" width="37.236" height="37.236"/>
<path style="fill:#448AFF;" d="M256,330.473c-15.421,0-27.927,8.336-27.927,18.618h55.855  C283.927,338.809,271.421,330.473,256,330.473z"/>
<rect x="228.073" y="349.091" style="fill:#2962FF;" width="55.855" height="9.309"/>
<rect x="237.382" y="358.4" style="fill:#0D57A1;" width="37.236" height="46.545"/>
<g>
	<path style="fill:#00B0FF;" d="M256,223.418c-10.282,0-18.618,8.336-18.618,18.618v9.309h37.236v-9.309   C274.618,231.754,266.282,223.418,256,223.418z"/>
	<rect x="311.855" y="265.309" style="fill:#00B0FF;" width="27.927" height="37.236"/>
	<rect x="358.4" y="265.309" style="fill:#00B0FF;" width="27.927" height="37.236"/>
	<rect x="311.855" y="339.782" style="fill:#00B0FF;" width="27.927" height="37.236"/>
	<rect x="358.4" y="339.782" style="fill:#00B0FF;" width="27.927" height="37.236"/>
	<rect x="125.673" y="339.782" style="fill:#00B0FF;" width="27.927" height="37.236"/>
	<rect x="172.218" y="339.782" style="fill:#00B0FF;" width="27.927" height="37.236"/>
	<rect x="125.673" y="190.836" style="fill:#00B0FF;" width="27.927" height="37.236"/>
	<rect x="172.218" y="190.836" style="fill:#00B0FF;" width="27.927" height="37.236"/>
	<rect x="125.673" y="265.309" style="fill:#00B0FF;" width="27.927" height="37.236"/>
	<rect x="172.218" y="265.309" style="fill:#00B0FF;" width="27.927" height="37.236"/>
	<rect x="311.855" y="190.836" style="fill:#00B0FF;" width="27.927" height="37.236"/>
	<rect x="358.4" y="190.836" style="fill:#00B0FF;" width="27.927" height="37.236"/>
</g>
<g>
</g>
<g>
</g>
<g>
</g>
<g>
</g>
<g>
</g>
<g>
</g>
<g>
</g>
<g>
</g>
<g>
</g>
<g>
</g>
<g>
</g>
<g>
</g>
<g>
</g>
<g>
</g>
<g>
</g>
</svg>
