<?xml version="1.0" encoding="iso-8859-1"?>
<!-- Generator: Adobe Illustrator 19.0.0, SVG Export Plug-In . SVG Version: 6.00 Build 0)  -->
<svg xmlns="http://www.w3.org/2000/svg" xmlns:xlink="http://www.w3.org/1999/xlink" version="1.1" id="Layer_1" x="0px" y="0px" viewBox="0 0 512 512" style="enable-background:new 0 0 512 512;" xml:space="preserve">
<circle style="fill:#00B0FF;" cx="256" cy="256" r="256"/>
<rect x="200.145" y="162.909" style="fill:#FFFFFF;" width="111.709" height="242.036"/>
<path style="fill:#2962FF;" d="M186.182,162.909c-2.006,0-3.784-1.28-4.413-3.184c-0.638-1.899,0.019-3.994,1.624-5.194  l69.818-45.382c1.652-1.243,3.928-1.243,5.581,0l69.818,45.382c1.606,1.201,2.257,3.295,1.629,5.194  c-0.638,1.904-2.416,3.184-4.422,3.184H186.182z"/>
<g>
	<rect x="274.618" y="293.236" style="fill:#00B0FF;" width="18.618" height="18.618"/>
	<rect x="218.764" y="330.473" style="fill:#00B0FF;" width="18.618" height="18.618"/>
	<rect x="274.618" y="330.473" style="fill:#00B0FF;" width="18.618" height="18.618"/>
</g>
<path style="fill:#0D57A1;" d="M274.618,377.018c0-10.282-8.336-18.618-18.618-18.618c-10.282,0-18.618,8.336-18.618,18.618v27.927  h37.236V377.018z"/>
<g>
	<rect x="311.855" y="256" style="fill:#E8EAF6;" width="74.473" height="148.945"/>
	<rect x="125.673" y="256" style="fill:#E8EAF6;" width="74.473" height="148.945"/>
</g>
<g>
	<path style="fill:#2962FF;" d="M200.145,200.145l-90.833,47.211c-1.797,1.075-2.648,3.216-2.09,5.232   c0.559,2.015,2.397,3.412,4.487,3.412h88.436V200.145z"/>
	<path style="fill:#2962FF;" d="M311.855,200.145l90.833,47.211c1.797,1.075,2.648,3.216,2.09,5.232   c-0.559,2.015-2.397,3.412-4.487,3.412h-88.436V200.145z"/>
</g>
<g>
	<rect x="330.473" y="349.091" style="fill:#00B0FF;" width="37.236" height="18.618"/>
	<rect x="218.764" y="181.527" style="fill:#00B0FF;" width="18.618" height="18.618"/>
	<rect x="274.618" y="181.527" style="fill:#00B0FF;" width="18.618" height="18.618"/>
	<rect x="218.764" y="218.764" style="fill:#00B0FF;" width="18.618" height="18.618"/>
	<rect x="274.618" y="218.764" style="fill:#00B0FF;" width="18.618" height="18.618"/>
	<rect x="218.764" y="256" style="fill:#00B0FF;" width="18.618" height="18.618"/>
	<rect x="274.618" y="256" style="fill:#00B0FF;" width="18.618" height="18.618"/>
	<rect x="218.764" y="293.236" style="fill:#00B0FF;" width="18.618" height="18.618"/>
	<rect x="144.291" y="274.618" style="fill:#00B0FF;" width="37.236" height="18.618"/>
	<rect x="144.291" y="311.855" style="fill:#00B0FF;" width="37.236" height="18.618"/>
	<rect x="144.291" y="349.091" style="fill:#00B0FF;" width="37.236" height="18.618"/>
	<rect x="330.473" y="274.618" style="fill:#00B0FF;" width="37.236" height="18.618"/>
	<rect x="330.473" y="311.855" style="fill:#00B0FF;" width="37.236" height="18.618"/>
</g>
<path style="fill:#2979FF;" d="M256,108.218c-0.982,0-1.964,0.307-2.793,0.931l-69.818,45.382c-1.606,1.201-2.257,3.295-1.624,5.194  c0.638,1.904,2.416,3.184,4.417,3.184H256V108.218z"/>
<g>
</g>
<g>
</g>
<g>
</g>
<g>
</g>
<g>
</g>
<g>
</g>
<g>
</g>
<g>
</g>
<g>
</g>
<g>
</g>
<g>
</g>
<g>
</g>
<g>
</g>
<g>
</g>
<g>
</g>
</svg>
