<?xml version="1.0" encoding="iso-8859-1"?>
<!-- Generator: Adobe Illustrator 19.0.0, SVG Export Plug-In . SVG Version: 6.00 Build 0)  -->
<svg version="1.1" id="Layer_1" xmlns="http://www.w3.org/2000/svg" xmlns:xlink="http://www.w3.org/1999/xlink" x="0px" y="0px"
	 viewBox="0 0 508 508" style="enable-background:new 0 0 508 508;" xml:space="preserve">
<circle style="fill:#FFD05B;" cx="254" cy="254" r="254"/>
<path style="fill:#324A5E;" d="M87.6,427.2h312.8c13.2,0,24,10.8,24,24l0,0H63.2l0,0C63.6,438,74.4,427.2,87.6,427.2z"/>
<rect x="230" y="260.4" style="fill:#84DBFF;" width="30.4" height="166.8"/>
<path style="fill:#FFFFFF;" d="M169.2,288.4l-3.2-9.6h2l-16.4-46.4l-10.8,4c1.6,5.6,4,8,4,8l-12.8,4.4c-2,0.8-3.2,2.4-3.6,4
	l-1.2,9.2c-0.4,2,0.4,4,2.4,5.2c6.8,4.4,17.6,18.4,22.8,25.2c2,2.8,4.8,4.8,8.4,6c14,4.8,33.2,3.6,33.2,3.6l-7.2-16.8L169.2,288.4z"
	/>
<path style="fill:#E6E9EE;" d="M122.8,87.6c0,0,6.8-14.8,4-24.8c0,0,11.2,17.2,8.8,22.8C135.6,85.6,128.8,79.2,122.8,87.6z"/>
<g>
	<path style="fill:#FFFFFF;" d="M379.6,236.8c0,0,27.2,9.6,34.8,43.6c0,0,19.6,53.2,30.4,56c0,0-14,0-18-8c0,0,6.4,9.2,6,16.8
		c0,0-12-7.2-14.8-13.2c0,0,1.6,12.8-2.4,16.8c0,0-11.2-6.4-13.2-12.8c0,0,2.4,10.4-0.4,14s-0.8-2-0.8-2s-10.4-4-7.6-16
		c0,0,9.2-51.6-14.8-70L379.6,236.8z"/>
	<path style="fill:#FFFFFF;" d="M301.6,278c0,0-12,30,24,58c0,0,38,20.4,20.4,38.8l-20.4,35.6l32.8-10l12.4-50.4l-8.8-18.8
		c0,0-19.6-3.2-14.8-22.8l-9.6-40.4L301.6,278z"/>
	<path style="fill:#FFFFFF;" d="M127.2,74.8c0,0,70-38.8,125.2,109.6c0,0,29.6,2.4,38.8,10.8c0,0,60.8-13.2,93.6,44.8
		c0,0,5.6,38.4-11.6,55.6c0,0,22.8,31.2,10.8,48c0,0-15.6,27.6-14,53.2l-24,8.4c0,0,22-43.6,14-64.4c0,0-26-44-26.4-64
		c0,0-83.2,15.2-137.2-14.4l-19.6,1.2l3.2,9.2l17.2-3.2l7.2,16.8c0,0-19.2,1.2-33.2-3.2c-3.2-1.2-6-3.2-8.4-6
		c-5.2-6.8-16-20.8-22.8-25.2c-1.6-1.2-2.8-3.2-2.4-5.2l1.6-9.2c0.4-2,1.6-3.6,3.6-4l12.8-4.4c0,0-13.6-12.8,4-47.6
		c0,0,4-32,3.2-47.2L146,158.8l1.6,8c0,0-24,13.2-30.8-10C116.8,156.8,112.8,92.4,127.2,74.8z"/>
</g>
<path style="fill:#E6E9EE;" d="M137.2,79.6c0,0,10.4-12.8,10-22.8c0,0,6.4,19.2,2.8,24C150,80.8,145.2,73.2,137.2,79.6z"/>
<circle style="fill:#324A5E;" cx="134.4" cy="96.4" r="5.6"/>
<g>
	<path style="fill:#FF7058;" d="M157.6,70.8c-2.8,32-23.6,74-28.4,83.6c-4.8-1.2-9.2-3.6-12.4-5.2c0,2,0,3.6,0,4.8l0,0
		c0,0.4,0,0.8,0,0.8c6,3.2,14.4,6.4,23.6,6.4c2,0,4,0,6-0.4v-1.2l-0.4-0.8l2.4-3.2c-4.8,1.2-9.6,1.2-14,0.4
		c6-11.6,25.2-51.6,28.4-84C160.8,71.6,159.2,71.2,157.6,70.8z"/>
	<path style="fill:#FF7058;" d="M244.4,155.6c-1.2-0.8-2.8-0.8-3.6,0.4c-11.6,15.6-25.6,24-42,25.6c-33.2,3.2-64.8-25.6-65.2-25.6
		c-1.2-0.8-2.8-0.8-3.6,0c-0.8,1.2-0.8,2.8,0,3.6c1.2,1.2,30,27.2,63.2,27.2c2,0,3.6,0,5.6-0.4c17.6-1.6,32.8-10.8,45.6-27.6
		C245.6,158,245.2,156.4,244.4,155.6z"/>
	<path style="fill:#FF7058;" d="M291.6,195.2c-8.4-7.6-33.2-10.4-38-10.8v10.8c0,18,14.4,32.4,32.4,32.4h12
		c17.2,0,31.2-13.6,32.4-30.4C309.2,191.6,291.6,195.2,291.6,195.2z"/>
</g>
<g>
	<polygon style="fill:#FFFFFF;" points="260.4,309.2 230,326.8 230,314 260.4,296.4 	"/>
	<polygon style="fill:#FFFFFF;" points="260.4,336.8 230,354.4 230,341.6 260.4,324 	"/>
	<polygon style="fill:#FFFFFF;" points="260.4,364.4 230,382 230,369.2 260.4,351.6 	"/>
	<polygon style="fill:#FFFFFF;" points="260.4,392 230,409.6 230,396.8 260.4,379.2 	"/>
</g>
<g>
</g>
<g>
</g>
<g>
</g>
<g>
</g>
<g>
</g>
<g>
</g>
<g>
</g>
<g>
</g>
<g>
</g>
<g>
</g>
<g>
</g>
<g>
</g>
<g>
</g>
<g>
</g>
<g>
</g>
</svg>
