<?xml version="1.0" encoding="iso-8859-1"?>
<!-- Generator: Adobe Illustrator 19.0.0, SVG Export Plug-In . SVG Version: 6.00 Build 0)  -->
<svg version="1.1" id="Layer_1" xmlns="http://www.w3.org/2000/svg" xmlns:xlink="http://www.w3.org/1999/xlink" x="0px" y="0px"
	 viewBox="0 0 508 508" style="enable-background:new 0 0 508 508;" xml:space="preserve">
<circle style="fill:#324A5E;" cx="254" cy="254" r="254"/>
<path style="fill:#54C0EB;" d="M216,420h75.6c44.4-22.8,90-90,106.8-165.6C428,122,359.6,44,254,44S80,122,109.6,254.8
	C126.4,330,171.6,397.2,216,420z"/>
<g>
	<polygon style="fill:#FF7058;" points="292.8,427.6 216.8,427.6 216,420 293.2,420 	"/>
	<path style="fill:#FF7058;" d="M216,505.2c2.4,0.4,4.8,0.8,7.6,0.8v-86l-7.6,0.8V505.2z"/>
</g>
<polygon style="fill:#54C0EB;" points="292.8,427.6 254.8,427.6 254.8,427.6 216.8,427.6 204,449.6 254.8,449.6 305.6,449.6 "/>
<path style="fill:#FFFFFF;" d="M172.4,138.8c-10,12.4-23.6,16.4-30.8,9.2c-7.6-7.6-6.4-24.4,3.6-38.4c10.4-14.8,26-20,33.6-10.8
	C186,107.6,182.8,125.6,172.4,138.8z"/>
<g>
</g>
<g>
</g>
<g>
</g>
<g>
</g>
<g>
</g>
<g>
</g>
<g>
</g>
<g>
</g>
<g>
</g>
<g>
</g>
<g>
</g>
<g>
</g>
<g>
</g>
<g>
</g>
<g>
</g>
</svg>
