<?xml version="1.0" encoding="iso-8859-1"?>
<!-- Generator: Adobe Illustrator 19.0.0, SVG Export Plug-In . SVG Version: 6.00 Build 0)  -->
<svg version="1.1" id="Layer_1" xmlns="http://www.w3.org/2000/svg" xmlns:xlink="http://www.w3.org/1999/xlink" x="0px" y="0px"
	 viewBox="0 0 508 508" style="enable-background:new 0 0 508 508;" xml:space="preserve">
<circle style="fill:#FD8469;" cx="254" cy="254" r="254"/>
<circle style="fill:#FFFFFF;" cx="254" cy="254" r="190.4"/>
<path style="fill:#54C0EB;" d="M177.6,178c-22.4,22.4,10.8,92.4,74,156c38.4,38.4,79.6,66,110.8,76.4c9.2-6.4,17.6-13.6,26-21.6
	c8-8,15.2-16.8,21.6-26c-10.4-31.2-38-72-76.4-110.8C270,188.4,200.4,155.2,177.6,178z"/>
<path style="fill:#324A5E;" d="M172.8,160c20.4,20,82.8-16.4,174.4-12.8c23.2-0.4,47.2,3.2,70,8.4c-8-12.8-17.2-25.2-28.4-36.4
	C354.4,85.2,310,66.8,265.2,64C182.8,84.4,155.2,146.8,172.8,160z"/>
<path style="fill:#4CDBC4;" d="M64,265.2c2.8,44.8,21.2,89.2,55.2,123.6c11.2,11.2,23.6,20.8,36.4,28.4c-5.2-22.8-8.8-46.4-8.4-70
	c-3.6-92,32.8-154,12.8-174.4C146.8,155.2,84.4,182.8,64,265.2z"/>
<ellipse transform="matrix(-0.7071 -0.7071 0.7071 -0.7071 168.2008 405.3831)" style="fill:#E6E9EE;" cx="168.058" cy="167.856" rx="32.8" ry="42.4"/>
<g>
</g>
<g>
</g>
<g>
</g>
<g>
</g>
<g>
</g>
<g>
</g>
<g>
</g>
<g>
</g>
<g>
</g>
<g>
</g>
<g>
</g>
<g>
</g>
<g>
</g>
<g>
</g>
<g>
</g>
</svg>
