<?xml version="1.0" encoding="iso-8859-1"?>
<!-- Generator: Adobe Illustrator 19.0.0, SVG Export Plug-In . SVG Version: 6.00 Build 0)  -->
<svg version="1.1" id="Layer_1" xmlns="http://www.w3.org/2000/svg" xmlns:xlink="http://www.w3.org/1999/xlink" x="0px" y="0px"
	 viewBox="0 0 508 508" style="enable-background:new 0 0 508 508;" xml:space="preserve">
<circle style="fill:#FFD05B;" cx="254" cy="254" r="254"/>
<polygon style="fill:#324A5E;" points="274,295.2 195.983,295.2 268.034,265.344 264.818,257.584 192.619,287.502 247.825,232.295 
	241.886,226.355 186.623,281.619 216.501,209.488 208.74,206.274 178.8,278.553 178.8,134.4 170.4,134.4 170.4,277.4 
	140.95,206.302 133.189,209.517 163.04,281.583 107.81,226.353 101.87,232.292 157.078,287.5 84.852,257.583 81.638,265.343 
	153.716,295.2 75.6,295.2 75.6,303.6 153.77,303.6 81.536,333.532 84.752,341.292 156.808,311.433 101.597,366.644 107.537,372.584 
	162.701,317.42 132.812,389.575 140.573,392.79 170.4,320.783 170.4,398.8 178.8,398.8 178.8,319.63 209.117,392.819 
	216.877,389.604 186.962,317.385 242.159,372.581 248.098,366.641 192.879,311.422 264.939,341.271 268.154,333.51 195.946,303.6 
	274,303.6 "/>
<g>
	<path style="fill:#2B3B4E;" d="M174.8,407.6c-59.6,0-107.6-48.4-107.6-107.6s48.4-107.6,107.6-107.6c59.6,0,107.6,48.4,107.6,107.6
		S234.4,407.6,174.8,407.6z M174.8,209.2c-50,0-90.8,40.8-90.8,90.8s40.8,90.8,90.8,90.8s90.8-40.8,90.8-90.8
		S224.8,209.2,174.8,209.2z"/>
	<circle style="fill:#2B3B4E;" cx="391.2" cy="349.2" r="49.6"/>
</g>
<circle style="fill:#E6E9EE;" cx="391.2" cy="349.2" r="24"/>
<circle style="fill:#FCFCFC;" cx="174.8" cy="299.6" r="32.4"/>
<circle style="fill:#E6E9EE;" cx="174.8" cy="299.6" r="18.8"/>
<path style="fill:#FF7058;" d="M208.4,138.8h-61.2c-10.4,0-19.2-8.4-19.2-19.2l0,0c0-12,11.2-21.2,22.8-18.8l60,12.4
	c6,1.2,10,6.4,10,12.4l0,0C221.2,132.8,215.6,138.8,208.4,138.8z"/>
<path style="fill:#324A5E;" d="M395.6,349.2h-8.4C387.2,247.2,304,164,202,164h-27.2c-2.4,0-4.4-2-4.4-4.4s2-4.4,4.4-4.4H202
	C308.8,155.6,395.6,242.4,395.6,349.2z"/>
<g>
</g>
<g>
</g>
<g>
</g>
<g>
</g>
<g>
</g>
<g>
</g>
<g>
</g>
<g>
</g>
<g>
</g>
<g>
</g>
<g>
</g>
<g>
</g>
<g>
</g>
<g>
</g>
<g>
</g>
</svg>
