<?xml version="1.0" encoding="iso-8859-1"?>
<!-- Generator: Adobe Illustrator 19.0.0, SVG Export Plug-In . SVG Version: 6.00 Build 0)  -->
<svg version="1.1" id="Layer_1" xmlns="http://www.w3.org/2000/svg" xmlns:xlink="http://www.w3.org/1999/xlink" x="0px" y="0px"
	 viewBox="0 0 508 508" style="enable-background:new 0 0 508 508;" xml:space="preserve">
<circle style="fill:#FFD05B;" cx="254" cy="254" r="254"/>
<path style="fill:#FF7058;" d="M403.2,346.4c51.2,0,55.6-41.6,55.6-92.4s-4.4-92.4-55.6-92.4c-88,0-106.8,68.8-149.6,92.4
	C296.4,277.6,315.2,346.4,403.2,346.4z"/>
<g>
	<polygon style="fill:#E6E9EE;" points="376,175.6 386,195.6 408,198.8 392,214.4 396,236.4 376,226 356.4,236.4 360,214.4 
		344,198.8 366,195.6 	"/>
	<polygon style="fill:#E6E9EE;" points="325.2,238 332.8,253.6 350,256 337.6,268 340.4,285.2 325.2,277.2 310,285.2 312.8,268 
		300.4,256 317.6,253.6 	"/>
	<path style="fill:#E6E9EE;" d="M438.8,325.6l-7.6-15.6l-7.6,15.6l-17.2,2.4l12.4,12l-0.8,5.2c13.2-2.8,22.4-9.2,28.4-18.4
		L438.8,325.6z"/>
	<polygon style="fill:#E6E9EE;" points="395.2,252 404.4,270.4 424.8,273.6 410,288 413.6,308.8 395.2,298.8 376.8,308.8 380,288 
		365.2,273.6 386,270.4 	"/>
	<path style="fill:#E6E9EE;" d="M434,243.2l14.8,14.4l-3.6,20.4l13.2-6.8c0-5.6,0.4-11.6,0.4-17.6c0-7.2,0-14.4-0.4-21.2l-3.6,7.6
		L434,243.2z"/>
	<path style="fill:#E6E9EE;" d="M305.6,216.8l13.6-7.2l13.6,7.2L330,202l10.8-10.8l-15.2-2l-0.8-2c-6,4.8-11.6,9.6-16.8,14.8
		L305.6,216.8z"/>
	<path style="fill:#E6E9EE;" d="M444.8,188l3.2-3.2c-2-3.6-4-6.8-6.8-9.6h-0.4l-0.4-1.2c-2.8-2.4-5.6-4.8-9.2-6.8l-3.6,7.6l-15.2,2
		l10.8,10.8l-2.4,14.8l13.6-7.2l13.6,7.2L444.8,188z"/>
	<path style="fill:#E6E9EE;" d="M355.6,317.6l-6.8-13.6l-6.8,13.6l-15.2,2l9.6,9.2c7.6,4.4,15.6,8.4,24.8,11.6l-1.6-10l10.8-10.8
		L355.6,317.6z"/>
</g>
<path style="fill:#FF7058;" d="M104.8,346.4c-51.2,0-55.6-41.6-55.6-92.4s4.4-92.4,55.6-92.4c88,0,106.8,68.8,149.6,92.4
	C211.6,277.6,192.8,346.4,104.8,346.4z"/>
<g>
	<polygon style="fill:#E6E9EE;" points="132,175.6 122,195.6 100,198.8 116,214.4 112,236.4 132,226 151.6,236.4 148,214.4 
		164,198.8 142,195.6 	"/>
	<polygon style="fill:#E6E9EE;" points="182.8,238 175.2,253.6 158,256 170.4,268 167.6,285.2 182.8,277.2 198,285.2 195.2,268 
		207.6,256 190.4,253.6 	"/>
	<path style="fill:#E6E9EE;" d="M69.2,325.6l7.6-15.6l7.6,15.6l17.2,2.4l-12.4,12l0.8,5.2c-13.2-2.8-22.4-9.2-28.4-18.4L69.2,325.6z
		"/>
	<polygon style="fill:#E6E9EE;" points="112.8,252 103.6,270.4 83.2,273.6 98,288 94.4,308.8 112.8,298.8 131.2,308.8 128,288 
		142.8,273.6 122,270.4 	"/>
	<path style="fill:#E6E9EE;" d="M74,243.2l-14.8,14.4l3.6,20.4l-13.2-6.8c0-5.6-0.4-11.6-0.4-17.6c0-7.2,0-14.4,0.4-21.2l3.6,7.6
		L74,243.2z"/>
	<path style="fill:#E6E9EE;" d="M202.4,216.8l-13.2-6.8l-13.6,7.2L178,202l-10.8-10.8l15.2-2l0.8-2c6,4.8,11.6,9.6,16.8,14.8
		L202.4,216.8z"/>
	<path style="fill:#E6E9EE;" d="M63.2,188l-3.2-3.2c2-3.6,4-6.8,6.8-9.6h0.4l0.4-1.2c2.8-2.4,5.6-4.8,9.2-6.8l3.6,7.6l15.2,2
		l-10.8,10.8l2.4,14.8L74,195.6l-13.6,7.2L63.2,188z"/>
	<path style="fill:#E6E9EE;" d="M152.4,317.6l6.8-13.6l6.8,13.6l15.2,2l-9.6,9.2c-7.6,4.4-15.6,8.4-24.8,11.6l1.6-10l-10.8-10.8
		L152.4,317.6z"/>
</g>
<path style="fill:#F1543F;" d="M273.6,295.6h-38.8c-9.6,0-17.6-8-17.6-17.6v-56c0-9.6,8-17.6,17.6-17.6h38.8c9.6,0,17.6,8,17.6,17.6
	v56C291.2,287.6,283.2,295.6,273.6,295.6z"/>
<g>
</g>
<g>
</g>
<g>
</g>
<g>
</g>
<g>
</g>
<g>
</g>
<g>
</g>
<g>
</g>
<g>
</g>
<g>
</g>
<g>
</g>
<g>
</g>
<g>
</g>
<g>
</g>
<g>
</g>
</svg>
