<?xml version="1.0" encoding="iso-8859-1"?>
<!-- Generator: Adobe Illustrator 19.0.0, SVG Export Plug-In . SVG Version: 6.00 Build 0)  -->
<svg version="1.1" id="Layer_1" xmlns="http://www.w3.org/2000/svg" xmlns:xlink="http://www.w3.org/1999/xlink" x="0px" y="0px"
	 viewBox="0 0 508 508" style="enable-background:new 0 0 508 508;" xml:space="preserve">
<circle style="fill:#FD8469;" cx="254" cy="254" r="254"/>
<g>
	<path style="fill:#324A5E;" d="M318.8,189.2l-11.2-46c-1.2-4.4-5.2-6.8-9.6-6c-4.4,1.2-6.8,5.2-6,9.6l11.2,46c0.8,3.6,4,6,7.6,6
		c0.8,0,1.2,0,2-0.4C317.2,197.6,320,193.2,318.8,189.2z"/>
	<path style="fill:#324A5E;" d="M112.4,212l-27.6-74.4c-1.6-4-6-6.4-10.4-4.8c-4,1.6-6.4,6-4.8,10l27.6,74.4
		c1.2,3.2,4.4,5.2,7.6,5.2c0.8,0,2,0,2.8-0.4C112,220.8,114,216,112.4,212z"/>
	<path style="fill:#324A5E;" d="M480,375.6H28c-11.6,0-20.8-9.2-20.8-20.8l0,0c0-11.6,9.2-20.8,20.8-20.8h452
		c11.6,0,20.8,9.2,20.8,20.8l0,0C501.2,366,491.6,375.6,480,375.6z"/>
</g>
<path style="fill:#E6E9EE;" d="M478.8,333.6H29.2c4.8-54.4,7.2-102.8,24-137.2c29.6,8.4,64.4,13.2,102,13.2
	c79.6,0,148-21.6,176.8-52.8C411.6,176.4,478.8,223.6,478.8,333.6z"/>
<path style="fill:#FFFFFF;" d="M478.8,333.6H29.2c2.8-31.2,4.8-60.4,9.2-86.4C41.6,228,46,210.8,53.2,196
	c29.6,8.4,64.4,13.2,102,13.2c79.6,0,148-21.6,176.8-52.8c21.2,5.2,41.6,12.4,60,22.4C442.8,206,478.8,252.8,478.8,333.6z"/>
<path style="fill:#FFD05B;" d="M486.4,208.4c-4.4-0.4-9.2-0.8-14-0.8c-32,0-58,14-58,30.8c0,17.2,26,30.8,58,30.8
	c4.8,0,9.6-0.4,14-0.8V208.4z"/>
<path style="fill:#324A5E;" d="M472.4,207.2c-0.4,0-0.4,0-0.8,0v61.6c0.4,0,0.4,0,0.8,0c4.8,0,9.6-0.4,14-0.8v-60
	C482,207.6,477.2,207.2,472.4,207.2z"/>
<path style="fill:#84DBFF;" d="M392,178.8c-19.2,19.2-48.8,54.8-63.2,100.4H99.2l-60.8-32C41.6,228,46,210.8,53.2,196
	c29.6,8.4,64.4,13.2,102,13.2c79.6,0,148-21.6,176.8-52.8C353.2,162,373.6,169.2,392,178.8z"/>
<circle style="fill:#FFD05B;" cx="64.8" cy="302.8" r="16.4"/>
<g>
</g>
<g>
</g>
<g>
</g>
<g>
</g>
<g>
</g>
<g>
</g>
<g>
</g>
<g>
</g>
<g>
</g>
<g>
</g>
<g>
</g>
<g>
</g>
<g>
</g>
<g>
</g>
<g>
</g>
</svg>
