<?xml version="1.0" encoding="iso-8859-1"?>
<!-- Generator: Adobe Illustrator 19.0.0, SVG Export Plug-In . SVG Version: 6.00 Build 0)  -->
<svg version="1.1" id="Layer_1" xmlns="http://www.w3.org/2000/svg" xmlns:xlink="http://www.w3.org/1999/xlink" x="0px" y="0px"
	 viewBox="0 0 508 508" style="enable-background:new 0 0 508 508;" xml:space="preserve">
<circle style="fill:#4CDBC4;" cx="254" cy="254" r="254"/>
<path style="fill:#2C9984;" d="M80.8,439.6C126,482,187.2,508,254,508c67.2,0,128-26,173.6-68.4H80.8z"/>
<path style="fill:#324A5E;" d="M442,339.6c-8,0-14.8,6-16.4,13.6h-36.8v6.4h36.8c1.6,7.6,8.4,13.6,16.4,13.6
	c9.2,0,16.8-7.6,16.8-16.8C458.8,347.2,451.2,339.6,442,339.6z M442,367.6c-6.4,0-11.2-5.2-11.2-11.2c0-6.4,5.2-11.2,11.2-11.2
	c6.4,0,11.2,5.2,11.2,11.2C453.2,362.8,448.4,367.6,442,367.6z"/>
<g>
	<rect x="116.4" y="177.6" style="fill:#FFFFFF;" width="9.6" height="181.2"/>
	<rect x="153.2" y="177.6" style="fill:#FFFFFF;" width="9.6" height="181.2"/>
	<rect x="190" y="177.6" style="fill:#FFFFFF;" width="9.6" height="181.2"/>
	<rect x="226.4" y="177.6" style="fill:#FFFFFF;" width="9.6" height="181.2"/>
	<rect x="263.2" y="177.6" style="fill:#FFFFFF;" width="9.6" height="181.2"/>
	<rect x="300" y="177.6" style="fill:#FFFFFF;" width="9.6" height="181.2"/>
	<rect x="336.8" y="177.6" style="fill:#FFFFFF;" width="9.6" height="181.2"/>
	<rect x="373.6" y="177.6" style="fill:#FFFFFF;" width="9.6" height="181.2"/>
</g>
<g>
	<path style="fill:#FF7058;" d="M84,103.6v82c0,10,8.4,18.4,18.4,18.4s18.4-8.4,18.4-18.4c0,10,8.4,18.4,18.4,18.4
		s18.4-8.4,18.4-18.4c0,10,8.4,18.4,18.4,18.4s18.4-8.4,18.4-18.4c0,10,8.4,18.4,18.4,18.4s18.4-8.4,18.4-18.4
		c0,10,8.4,18.4,18.4,18.4c10,0,18.4-8.4,18.4-18.4c0,10,8.4,18.4,18.4,18.4s18.4-8.4,18.4-18.4c0,10,8.4,18.4,18.4,18.4
		s18.4-8.4,18.4-18.4c0,10,8.4,18.4,18.4,18.4s18.4-8.4,18.4-18.4c0,10,8.4,18.4,18.4,18.4s18.4-8.4,18.4-18.4v-82H84z"/>
	<path style="fill:#FF7058;" d="M415.2,330.8H84v46.4c0,6.4,5.2,11.6,11.6,11.6h308c6.4,0,11.6-5.2,11.6-11.6V330.8z"/>
</g>
<g>
	<circle style="fill:#324A5E;" cx="348" cy="394.4" r="45.2"/>
	<circle style="fill:#324A5E;" cx="151.6" cy="394.4" r="45.2"/>
</g>
<g>
	<circle style="fill:#FFFFFF;" cx="151.6" cy="394.4" r="30.4"/>
	<circle style="fill:#FFFFFF;" cx="348" cy="394.4" r="30.4"/>
</g>
<g>
	<circle style="fill:#324A5E;" cx="348" cy="394.4" r="10.4"/>
	<circle style="fill:#324A5E;" cx="151.6" cy="394.4" r="10.4"/>
</g>
<g>
	<path style="fill:#FFFFFF;" d="M362.4,142.8c-2.8,0-4.8-2-4.8-4.8s2-4.8,4.8-4.8c1.2,0,2.4,0.4,3.6,1.6c1.6,1.6,4,1.6,6,0
		c1.6-1.6,1.6-4,0-6c-2.4-2.4-6-4-9.6-4c-7.2,0-12.8,6-12.8,12.8c0,7.2,6,12.8,12.8,12.8c2.8,0,4.8,2,4.8,4.8s-2,4.8-4.8,4.8
		c-1.2,0-2.4-0.4-3.6-1.6c-1.6-1.6-4-1.6-6,0c-1.6,1.6-1.6,4,0,6c2.4,2.4,6,4,9.6,4c7.2,0,12.8-6,12.8-12.8S369.2,142.8,362.4,142.8
		z"/>
	<path style="fill:#FFFFFF;" d="M225.2,149.6c4-2,6.8-6.4,6.8-11.6c0-7.2-6-12.8-12.8-12.8h-8.8c-2.4,0-4,2-4,4v35.2c0,2.4,2,4,4,4
		s4-2,4-4v-13.6h2L224,166c0.8,1.6,2,2.4,3.6,2.4c0.8,0,1.2,0,2-0.4c2-1.2,2.8-3.6,2-5.6L225.2,149.6z M214.8,133.6h4.4
		c2.8,0,4.8,2,4.8,4.8s-2,4.8-4.8,4.8h-4.4V133.6z"/>
	<path style="fill:#FFFFFF;" d="M156,156.4c-2.4,2.8-6.4,4.4-10,4.4c-7.6,0-13.6-6-13.6-13.6s6-13.6,13.6-13.6c4.4,0,8.4,2,10.8,5.6
		c1.2,2,4,2.4,5.6,0.8c2-1.2,2.4-4,0.8-5.6c-4-5.6-10.8-8.8-17.6-8.8c-12,0-22,9.6-22,22s9.6,22,22,22c6,0,12-2.4,16-7.2
		c1.6-1.6,1.6-4.4-0.4-6C160.4,154.4,157.6,154.8,156,156.4z"/>
	<path style="fill:#FFFFFF;" d="M278.8,156.4c-2.4,2.8-6.4,4.4-10,4.4c-7.6,0-13.6-6-13.6-13.6s6-13.6,13.6-13.6
		c4.4,0,8.4,2,10.8,5.6c1.2,2,4,2.4,5.6,0.8c2-1.2,2.4-4,0.8-5.6c-4-5.6-10.8-8.8-17.6-8.8c-12,0-22,9.6-22,22s9.6,22,22,22
		c6,0,12-2.4,16-7.2c1.6-1.6,1.6-4.4-0.4-6C283.2,154.4,280.4,154.8,278.8,156.4z"/>
	<path style="fill:#FFFFFF;" d="M329.6,125.2c-2.4,0-4,2-4,4V154c0,3.6-3.2,6.8-6.8,6.8c-3.6,0-6.8-3.2-6.8-6.8v-24.4c0-2.4-2-4-4-4
		c-2.4,0-4,2-4,4V154c0,8.4,6.8,15.2,15.2,15.2c8.4,0,15.2-6.8,15.2-15.2v-24.4C334,127.2,332,125.2,329.6,125.2z"/>
	<path style="fill:#FFFFFF;" d="M184,125.2c-2.4,0-4,2-4,4v35.2c0,2.4,2,4,4,4s4-2,4-4v-35.2C188,127.2,186.4,125.2,184,125.2z"/>
</g>
<g>
</g>
<g>
</g>
<g>
</g>
<g>
</g>
<g>
</g>
<g>
</g>
<g>
</g>
<g>
</g>
<g>
</g>
<g>
</g>
<g>
</g>
<g>
</g>
<g>
</g>
<g>
</g>
<g>
</g>
</svg>
