<?xml version="1.0" encoding="iso-8859-1"?>
<!-- Generator: Adobe Illustrator 19.0.0, SVG Export Plug-In . SVG Version: 6.00 Build 0)  -->
<svg version="1.1" id="Layer_1" xmlns="http://www.w3.org/2000/svg" xmlns:xlink="http://www.w3.org/1999/xlink" x="0px" y="0px"
	 viewBox="0 0 508 508" style="enable-background:new 0 0 508 508;" xml:space="preserve">
<circle style="fill:#90DFAA;" cx="254" cy="254" r="254"/>
<path style="fill:#2B3B4E;" d="M95.6,356.8c-2.8,0-5.6-0.4-8.8-1.2c-1.2-0.4-1.6-1.2-1.6-2.4c0.4-1.2,1.2-1.6,2.4-1.6
	c28,6.8,36.8-22.8,37.2-24c0.4-1.2,1.6-1.6,2.4-1.6c1.2,0.4,1.6,1.6,1.6,2.4C128.4,329.2,120.4,356.8,95.6,356.8z"/>
<path style="fill:#324A5E;" d="M326.8,95.2c-40.4,6-94.4,25.6-141.6,54c-104.4,61.6-120.4,126-86,173.6
	c34.4,47.2,100.8,51.6,191.6-29.2c41.2-36.8,76.4-82,94.4-118.4L326.8,95.2z"/>
<g>
	<path style="fill:#E6E9EE;" d="M207.6,276.8c-37.6,0-68,30.4-68,68s30.4,68,68,68s68-30.4,68-68S245.2,276.8,207.6,276.8z
		 M210.4,331.2V288c6,0.4,11.2,1.6,16.4,3.2L210.4,331.2z M232,293.2c5.2,2.4,10,5.6,14,9.6l-30.8,30.8L232,293.2z M204.8,331.2
		l-16.4-40c5.2-2,10.8-3.2,16.4-3.2V331.2z M200,333.2l-30.8-30.8c4-3.6,8.8-6.8,14-9.6L200,333.2z M194,347.6L154,364
		c-2-5.2-3.2-10.8-3.2-16.4H194z M150.8,342c0.4-5.6,1.6-11.2,3.2-16.4l40,16.4H150.8z M204.8,358.4v43.2c-6-0.4-11.2-1.6-16.4-3.2
		L204.8,358.4z M183.2,396.4c-5.2-2.4-10-5.6-14-9.6L200,356L183.2,396.4z M210.4,358.4l16.4,40c-5.2,2-10.8,3.2-16.4,3.2V358.4z
		 M215.2,356.4l30.8,30.8c-4,3.6-8.8,6.8-14,9.6L215.2,356.4z M221.2,342l40-16.4c2,5.2,3.2,10.8,3.2,16.4H221.2z M264.4,347.6
		c-0.4,6-1.6,11.2-3.2,16.4l-40-16.4H264.4z M259.2,320.4l-40,16.4L250,306C253.6,310.8,256.8,315.2,259.2,320.4z M165.6,306.4
		l30.8,30.8l-40-16.4C158.4,315.2,161.6,310.8,165.6,306.4z M156,369.2l40-16.4l-30.8,30.8C161.6,378.8,158.4,374.4,156,369.2z
		 M249.6,383.2l-30.8-30.8l40,16.4C256.8,374.4,253.6,378.8,249.6,383.2z"/>
	<circle style="fill:#E6E9EE;" cx="207.6" cy="344.8" r="20.4"/>
</g>
<circle style="fill:#2B3B4E;" cx="366.4" cy="354" r="58.8"/>
<ellipse transform="matrix(0.6696 -0.7427 0.7427 0.6696 -133.2357 355.687)" style="fill:#E6E9EE;" cx="333.173" cy="327.6" rx="15.6" ry="8.4"/>
<g>
</g>
<g>
</g>
<g>
</g>
<g>
</g>
<g>
</g>
<g>
</g>
<g>
</g>
<g>
</g>
<g>
</g>
<g>
</g>
<g>
</g>
<g>
</g>
<g>
</g>
<g>
</g>
<g>
</g>
</svg>
