<?xml version="1.0" encoding="iso-8859-1"?>
<!-- Generator: Adobe Illustrator 19.0.0, SVG Export Plug-In . SVG Version: 6.00 Build 0)  -->
<svg version="1.1" id="Layer_1" xmlns="http://www.w3.org/2000/svg" xmlns:xlink="http://www.w3.org/1999/xlink" x="0px" y="0px"
	 viewBox="0 0 508 508" style="enable-background:new 0 0 508 508;" xml:space="preserve">
<circle style="fill:#FD8469;" cx="254" cy="254" r="254"/>
<path style="fill:#F1543F;" d="M53.6,409.6C100,469.2,172.4,508,254,508s154-38.4,200.4-98.4H53.6z"/>
<path style="fill:#2B3B4E;" d="M399.2,209.2L193.6,344.4c-37.2,24.4-87.6,11.2-108-28.8l0,0c-20.4-39.6-1.2-88.4,40.4-104l230-86.4
	L399.2,209.2z"/>
<path style="fill:#324A5E;" d="M423.6,216.8L423.6,216.8c8.8-4.4,12.4-15.6,8-24.4l-42.8-83.6c-4.4-8.8-15.6-12.4-24.4-8l0,0
	c-8.8,4.4-12.4,15.6-8,24.4l42.4,83.6C403.6,218,414.4,221.6,423.6,216.8z"/>
<path style="fill:#2B3B4E;" d="M258,409.2H74.4l0,0c0-14.4,12-26.4,26.4-26.4h130.8C246.4,382.8,258,394.4,258,409.2L258,409.2z"/>
<path style="fill:#324A5E;" d="M222,382.8H110.8v-52c0-30.8,24.8-55.6,55.6-55.6l0,0c30.8,0,55.6,24.8,55.6,55.6V382.8z"/>
<circle style="fill:#E6E9EE;" cx="166.4" cy="330.4" r="35.2"/>
<circle style="fill:#324A5E;" cx="166.4" cy="330.4" r="13.6"/>
<g>
	<polygon style="fill:#FFD05B;" points="222,39.2 229.2,54 245.6,56.4 234,68 236.8,84 222,76.4 207.6,84 210.4,68 198.4,56.4 
		214.8,54 	"/>
	<polygon style="fill:#FFD05B;" points="122.4,92 129.6,106.8 146,109.2 134,120.8 136.8,137.2 122.4,129.6 107.6,137.2 
		110.4,120.8 98.8,109.2 115.2,106.8 	"/>
	<polygon style="fill:#FFD05B;" points="414.4,254 421.6,268.8 438,271.2 426,282.8 428.8,299.2 414.4,291.2 399.6,299.2 
		402.4,282.8 390.4,271.2 406.8,268.8 	"/>
	<polygon style="fill:#FFD05B;" points="366.8,328.8 374.4,343.6 390.4,346 378.8,357.6 381.6,374 366.8,366 352.4,374 355.2,357.6 
		343.2,346 359.6,343.6 	"/>
</g>
<g>
</g>
<g>
</g>
<g>
</g>
<g>
</g>
<g>
</g>
<g>
</g>
<g>
</g>
<g>
</g>
<g>
</g>
<g>
</g>
<g>
</g>
<g>
</g>
<g>
</g>
<g>
</g>
<g>
</g>
</svg>
