<?xml version="1.0" encoding="iso-8859-1"?>
<!-- Generator: Adobe Illustrator 19.0.0, SVG Export Plug-In . SVG Version: 6.00 Build 0)  -->
<svg version="1.1" id="Layer_1" xmlns="http://www.w3.org/2000/svg" xmlns:xlink="http://www.w3.org/1999/xlink" x="0px" y="0px"
	 viewBox="0 0 508 508" style="enable-background:new 0 0 508 508;" xml:space="preserve">
<circle style="fill:#FFD05B;" cx="254" cy="254" r="254"/>
<path style="fill:#F9B54C;" d="M44.8,398c46,66.4,122.4,110,209.2,110s163.6-43.6,209.2-110H44.8z"/>
<rect x="369.2" y="177.6" style="fill:#FFFFFF;" width="62" height="219.2"/>
<rect x="369.2" y="177.6" style="fill:#E6E9EE;" width="62" height="6"/>
<rect x="76.8" y="177.6" style="fill:#FFFFFF;" width="62" height="219.2"/>
<g>
	<path style="fill:#324A5E;" d="M414,239.2h-27.6v-22.4c0-7.6,6-13.6,13.6-13.6l0,0c7.6,0,13.6,6,13.6,13.6v22.4H414z"/>
	<path style="fill:#324A5E;" d="M121.6,239.2H94v-22.4c0-7.6,6-13.6,13.6-13.6l0,0c7.6,0,13.6,6,13.6,13.6v22.4H121.6z"/>
</g>
<g>
	<polygon style="fill:#FFFFFF;" points="440,139.6 440,177.6 360,177.6 360,139.6 370.4,139.6 370.4,158.8 381.6,158.8 381.6,139.6 
		394.4,139.6 394.4,158.8 405.6,158.8 405.6,139.6 418.4,139.6 418.4,158.8 430,158.8 430,139.6 	"/>
	<polygon style="fill:#FFFFFF;" points="148,139.6 148,177.6 68,177.6 68,139.6 78,139.6 78,158.8 89.6,158.8 89.6,139.6 102,139.6 
		102,158.8 113.6,158.8 113.6,139.6 126.4,139.6 126.4,158.8 137.6,158.8 137.6,139.6 	"/>
</g>
<rect x="76.8" y="177.6" style="fill:#E6E9EE;" width="62" height="6"/>
<rect x="200.8" y="143.6" style="fill:#FFFFFF;" width="106.4" height="70.8"/>
<polygon style="fill:#FF7058;" points="324.4,143.6 254,52 184,143.6 "/>
<g>
	<rect x="76.8" y="298.8" style="fill:#E6E9EE;" width="19.6" height="19.2"/>
	<rect x="104" y="332" style="fill:#E6E9EE;" width="19.6" height="19.2"/>
	<rect x="384.4" y="298.8" style="fill:#E6E9EE;" width="19.6" height="19.2"/>
	<rect x="411.2" y="332" style="fill:#E6E9EE;" width="19.6" height="19.2"/>
</g>
<path style="fill:#324A5E;" d="M274,214.4h-39.6v-32c0-10.8,8.8-19.6,19.6-19.6l0,0c10.8,0,19.6,8.8,19.6,19.6v32H274z"/>
<polygon style="fill:#E6E9EE;" points="360,214.4 360,199.2 348.8,199.2 348.8,214.4 334.8,214.4 334.8,199.2 323.6,199.2 
	323.6,214.4 310,214.4 310,199.2 298.4,199.2 298.4,214.4 284.8,214.4 284.8,199.2 273.6,199.2 273.6,214.4 260,214.4 260,199.2 
	248.4,199.2 248.4,214.4 234.8,214.4 234.8,199.2 223.2,199.2 223.2,214.4 209.6,214.4 209.6,199.2 198.4,199.2 198.4,214.4 
	184.8,214.4 184.8,199.2 173.2,199.2 173.2,214.4 159.6,214.4 159.6,199.2 148,199.2 148,214.4 139.2,214.4 139.2,397.2 
	369.2,397.2 369.2,214.4 "/>
<path style="fill:#324A5E;" d="M294.4,397.2h-80.8V332c0-22.4,18-40.4,40.4-40.4l0,0c22.4,0,40.4,18,40.4,40.4V397.2z"/>
<g>
	<rect x="294.4" y="332" style="fill:#FFFFFF;" width="11.2" height="11.2"/>
	<rect x="310" y="351.2" style="fill:#FFFFFF;" width="11.2" height="11.2"/>
	<rect x="200.4" y="362.4" style="fill:#FFFFFF;" width="11.2" height="11.2"/>
	<rect x="184.8" y="381.6" style="fill:#FFFFFF;" width="11.2" height="11.2"/>
</g>
<g>
</g>
<g>
</g>
<g>
</g>
<g>
</g>
<g>
</g>
<g>
</g>
<g>
</g>
<g>
</g>
<g>
</g>
<g>
</g>
<g>
</g>
<g>
</g>
<g>
</g>
<g>
</g>
<g>
</g>
</svg>
