<?xml version="1.0" encoding="iso-8859-1"?>
<!-- Generator: Adobe Illustrator 19.0.0, SVG Export Plug-In . SVG Version: 6.00 Build 0)  -->
<svg version="1.1" id="Layer_1" xmlns="http://www.w3.org/2000/svg" xmlns:xlink="http://www.w3.org/1999/xlink" x="0px" y="0px"
	 viewBox="0 0 508 508" style="enable-background:new 0 0 508 508;" xml:space="preserve">
<circle style="fill:#FFD05B;" cx="254" cy="254" r="254"/>
<path style="fill:#F9B54C;" d="M50.4,405.6C96.8,467.6,170.8,508,254,508s157.2-40,203.6-102.4H50.4z"/>
<path style="fill:#FFFFFF;" d="M257.6,71.2h-7.2V28c0-2,1.6-3.6,3.6-3.6l0,0c2,0,3.6,1.6,3.6,3.6V71.2z"/>
<path style="fill:#FF7058;" d="M434,405.6c-19.2-72.4-26.4-206.8-26.4-206.8H100.4c0,0-7.2,134.4-26.4,206.8H434z"/>
<path style="fill:#FFFFFF;" d="M378,405.6c-13.2-72.4-18.4-206.8-18.4-206.8H148c0,0-4.8,134.4-18.4,206.8H378z"/>
<path style="fill:#FF7058;" d="M329.2,405.6c-8-72.4-11.2-206.8-11.2-206.8H190c0,0-2.8,134.4-11.2,206.8H329.2z"/>
<path style="fill:#FFFFFF;" d="M291.6,405.6c-4-72.4-5.6-206.8-5.6-206.8h-64c0,0-1.6,134.4-5.6,206.8H291.6z"/>
<path style="fill:#324A5E;" d="M322.4,405.6C295.2,350,272,278.8,254,198.8c-18,80-41.2,151.2-68.4,206.8H322.4z"/>
<path style="fill:#F1543F;" d="M89.2,198.8c0,19.6,10.4,35.2,23.6,35.2s23.6-16,23.6-35.2H89.2z"/>
<path style="fill:#E6E9EE;" d="M136,198.8c0,19.6,10.4,35.2,23.6,35.2c13.2,0,23.6-16,23.6-35.2H136z"/>
<path style="fill:#F1543F;" d="M183.2,198.8c0,19.6,10.4,35.2,23.6,35.2c13.2,0,23.6-16,23.6-35.2H183.2z"/>
<path style="fill:#E6E9EE;" d="M230.4,198.8c0,19.6,10.4,35.2,23.6,35.2s23.6-16,23.6-35.2H230.4z"/>
<path style="fill:#F1543F;" d="M277.6,198.8c0,19.6,10.4,35.2,23.6,35.2s23.6-16,23.6-35.2H277.6z"/>
<path style="fill:#E6E9EE;" d="M324.4,198.8c0,19.6,10.4,35.2,23.6,35.2s23.6-16,23.6-35.2H324.4z"/>
<path style="fill:#F1543F;" d="M371.6,198.8c0,19.6,10.4,35.2,23.6,35.2s23.6-16,23.6-35.2H371.6z"/>
<path style="fill:#FF7058;" d="M418.8,198.8C351.2,165.2,295.6,115.6,254,58.4c-41.6,57.2-97.2,106.8-164.8,140.4H418.8z"/>
<path style="fill:#FFFFFF;" d="M372,198.8c-48.4-33.6-88.4-83.2-118-140.4c-29.6,57.6-69.6,106.8-118,140.8h236V198.8z"/>
<path style="fill:#FF7058;" d="M324,198.8c-28.8-33.6-52.4-83.2-70-140.4c-17.6,57.6-41.2,106.8-70,140.8h140V198.8z"/>
<path style="fill:#FFFFFF;" d="M276.8,198.8c-9.6-33.6-17.2-83.2-22.8-140.8c-5.6,57.6-13.6,106.8-22.8,140.8H276.8z"/>
<path style="fill:#E6E9EE;" d="M268.4,77.2c-4.8-6-9.6-12.4-14.4-18.8c-4.8,6.4-9.6,12.8-14.4,18.8H268.4z"/>
<path style="fill:#FF7058;" d="M316.8,47.6C324.4,46,332,42,339.2,34c-27.2,19.2-54.4-19.2-82,0c0,2.8,0,5.6,0,8.4
	c0,2.8,0,5.6,0,8.4c27.2-19.2,54.4,19.2,82,0C332,53.6,324.4,51.6,316.8,47.6z"/>
<g>
</g>
<g>
</g>
<g>
</g>
<g>
</g>
<g>
</g>
<g>
</g>
<g>
</g>
<g>
</g>
<g>
</g>
<g>
</g>
<g>
</g>
<g>
</g>
<g>
</g>
<g>
</g>
<g>
</g>
</svg>
