<?xml version="1.0" encoding="iso-8859-1"?>
<!-- Generator: Adobe Illustrator 19.0.0, SVG Export Plug-In . SVG Version: 6.00 Build 0)  -->
<svg version="1.1" id="Layer_1" xmlns="http://www.w3.org/2000/svg" xmlns:xlink="http://www.w3.org/1999/xlink" x="0px" y="0px"
	 viewBox="0 0 508 508" style="enable-background:new 0 0 508 508;" xml:space="preserve">
<circle style="fill:#90DFAA;" cx="254" cy="254" r="254"/>
<path style="fill:#FF7058;" d="M476.8,371.6H31.2c-16.8,0-30.4-13.6-30.4-30.4V166.8c0-16.8,13.6-30.4,30.4-30.4h446
	c16.8,0,30.4,13.6,30.4,30.4v174.4C507.2,358,493.6,371.6,476.8,371.6z"/>
<path style="fill:#FFFFFF;" d="M436.8,328.8H71.2c0-14.8-12-26.8-26.8-26.8v-96c14.8,0,26.8-12,26.8-26.8h365.2
	c0,14.8,12,26.8,26.8,26.8v96C448.4,302,436.8,314,436.8,328.8z"/>
<g>
	<circle style="fill:#FFD05B;" cx="36" cy="170" r="18"/>
	<circle style="fill:#FFD05B;" cx="36" cy="338" r="18"/>
	<circle style="fill:#FFD05B;" cx="473.6" cy="170" r="18"/>
	<circle style="fill:#FFD05B;" cx="473.6" cy="338" r="18"/>
	<circle style="fill:#FFD05B;" cx="96.8" cy="156.8" r="11.2"/>
	<circle style="fill:#FFD05B;" cx="148.8" cy="156.8" r="11.2"/>
	<circle style="fill:#FFD05B;" cx="200.8" cy="156.8" r="11.2"/>
	<circle style="fill:#FFD05B;" cx="252.8" cy="156.8" r="11.2"/>
	<circle style="fill:#FFD05B;" cx="304.8" cy="156.8" r="11.2"/>
	<circle style="fill:#FFD05B;" cx="356.8" cy="156.8" r="11.2"/>
	<circle style="fill:#FFD05B;" cx="408.8" cy="156.8" r="11.2"/>
	<circle style="fill:#FFD05B;" cx="96.8" cy="351.2" r="11.2"/>
	<circle style="fill:#FFD05B;" cx="148.8" cy="351.2" r="11.2"/>
	<circle style="fill:#FFD05B;" cx="200.8" cy="351.2" r="11.2"/>
	<circle style="fill:#FFD05B;" cx="252.8" cy="351.2" r="11.2"/>
	<circle style="fill:#FFD05B;" cx="304.8" cy="351.2" r="11.2"/>
	<circle style="fill:#FFD05B;" cx="356.8" cy="351.2" r="11.2"/>
	<circle style="fill:#FFD05B;" cx="408.8" cy="351.2" r="11.2"/>
	<circle style="fill:#FFD05B;" cx="484.8" cy="232.8" r="11.2"/>
	<circle style="fill:#FFD05B;" cx="484.8" cy="284.8" r="11.2"/>
	<circle style="fill:#FFD05B;" cx="29.2" cy="232.8" r="11.2"/>
	<circle style="fill:#FFD05B;" cx="29.2" cy="284.8" r="11.2"/>
</g>
<g>
	<path style="fill:#54C0EB;" d="M396.4,248.8c-3.2,0-6-2.8-6-6s2.8-6,6-6c1.6,0,3.2,0.8,4.4,2c2,2,5.2,2.4,7.2,0.4s2.4-5.2,0.4-7.6
		c-3.2-3.2-7.6-5.2-12-5.2c-9.2,0-16.4,7.6-16.4,16.4c0,9.2,7.2,16.4,16.4,16.4c3.2,0,6,2.8,6,6s-2.8,6-6,6c-1.6,0-3.2-0.8-4.4-2
		c-2-2-5.2-2.4-7.2-0.4s-2.4,5.2-0.4,7.6c3.2,3.2,7.6,5.2,12,5.2c9.2,0,16.4-7.6,16.4-16.4C412.8,256,405.2,248.8,396.4,248.8z"/>
	<path style="fill:#54C0EB;" d="M223.2,257.2c5.2-2.8,8.8-8.4,8.8-14.4c0-9.2-7.2-16.4-16.4-16.4h-10.8c-2.8,0-5.2,2.4-5.2,5.2v45.2
		c0,2.8,2.4,5.2,5.2,5.2s5.2-2.4,5.2-5.2v-17.2h2.8l9.6,19.2c0.8,2,2.8,2.8,4.8,2.8c0.8,0,1.6,0,2.4-0.4c2.4-1.2,3.6-4.4,2.4-7.2
		L223.2,257.2z M209.6,236.8h5.6c3.2,0,6,2.8,6,6s-2.8,6-6,6h-5.6V236.8z"/>
	<path style="fill:#54C0EB;" d="M135.6,265.6c-3.2,3.6-8,5.6-12.8,5.6c-9.6,0-17.2-7.6-17.2-17.2s7.6-17.2,17.2-17.2
		c5.6,0,10.4,2.4,14,7.2c1.6,2.4,4.8,2.8,7.2,1.2s2.8-5.2,1.2-7.2c-5.2-7.2-13.6-11.2-22.4-11.2c-15.2,0-27.6,12.4-27.6,27.6
		c0,15.2,12.4,27.6,27.6,27.6c7.6,0,15.2-3.2,20.4-8.8c2-2,2-5.6-0.4-7.6C140.8,263.6,137.6,263.6,135.6,265.6z"/>
	<path style="fill:#54C0EB;" d="M290.8,265.6c-3.2,3.6-8,5.6-12.8,5.6c-9.6,0-17.2-7.6-17.2-17.2s7.6-17.2,17.2-17.2
		c5.6,0,10.4,2.4,14,7.2c1.6,2.4,4.8,2.8,7.2,1.2c2.4-1.6,2.8-5.2,1.2-7.2c-5.2-7.2-13.6-11.2-22.4-11.2
		c-15.2,0-27.6,12.4-27.6,27.6c0,15.2,12.4,27.6,27.6,27.6c7.6,0,15.2-3.2,20.4-8.8c2-2,2-5.6-0.4-7.6
		C296,263.6,292.8,263.6,290.8,265.6z"/>
	<path style="fill:#54C0EB;" d="M355.2,226.4c-2.8,0-5.2,2.4-5.2,5.2v31.2c0,4.8-4,8.8-8.8,8.8s-8.8-4-8.8-8.8v-31.2
		c0-2.8-2.4-5.2-5.2-5.2c-2.8,0-5.2,2.4-5.2,5.2v31.2c0,10.8,8.4,19.2,19.2,19.2c10.4,0,19.2-8.8,19.2-19.2v-31.2
		C360.4,228.4,358,226.4,355.2,226.4z"/>
	<path style="fill:#54C0EB;" d="M170.8,226.4c-2.8,0-5.2,2.4-5.2,5.2v45.2c0,2.8,2.4,5.2,5.2,5.2s5.2-2.4,5.2-5.2v-45.2
		C176,228.4,173.6,226.4,170.8,226.4z"/>
</g>
<g>
</g>
<g>
</g>
<g>
</g>
<g>
</g>
<g>
</g>
<g>
</g>
<g>
</g>
<g>
</g>
<g>
</g>
<g>
</g>
<g>
</g>
<g>
</g>
<g>
</g>
<g>
</g>
<g>
</g>
</svg>
