<?xml version="1.0" encoding="iso-8859-1"?>
<!-- Generator: Adobe Illustrator 19.0.0, SVG Export Plug-In . SVG Version: 6.00 Build 0)  -->
<svg version="1.1" id="Layer_1" xmlns="http://www.w3.org/2000/svg" xmlns:xlink="http://www.w3.org/1999/xlink" x="0px" y="0px"
	 viewBox="0 0 508 508" style="enable-background:new 0 0 508 508;" xml:space="preserve">
<circle style="fill:#324A5E;" cx="254" cy="254" r="254"/>
<path style="fill:#FFFFFF;" d="M418.4,138L254,91.6L89.6,138c0,16.4-13.2,29.6-29.6,29.6V254v86.4c16.4,0,29.6,13.2,29.6,29.6
	L254,416.4L418.4,370c0-16.4,13.2-29.6,29.6-29.6V254v-86.4C431.6,167.6,418.4,154,418.4,138z"/>
<path style="fill:#FFD05B;" d="M254,426.4c-0.8,0-2,0-2.8-0.4L86.8,379.6c-4.4-1.2-7.2-5.2-7.2-9.6c0-10.8-8.8-19.6-19.6-19.6
	c-5.6,0-10-4.4-10-10V167.2c0-5.6,4.4-10,10-10c10.8,0,19.6-8.8,19.6-19.6c0-4.4,2.8-8.4,7.2-9.6l164.4-46c1.6-0.4,3.6-0.4,5.2,0
	l164.4,46c4.4,1.2,7.2,5.2,7.2,9.6c0,10.8,8.8,19.6,19.6,19.6c5.6,0,10,4.4,10,10v173.2c0,5.6-4.4,10-10,10
	c-10.8,0-19.6,8.8-19.6,19.6c0,4.4-2.8,8.4-7.2,9.6l-164,46.4C256,426,254.8,426.4,254,426.4z M98.8,362.4L254,406l155.2-43.6
	c2.8-14.8,14.4-26.8,28.8-30.4V176c-14.4-3.6-26-15.6-28.8-30.4L254,102L98.8,145.6C96,160.4,84.4,172.4,70,176v156
	C84.4,335.6,95.6,347.6,98.8,362.4z"/>
<g>
	<path style="fill:#54C0EB;" d="M143.2,271.2c1.2,2,0.4,4.8-2,6c-4,2-8.4,3.2-12.8,3.2c-14.8,0-26.4-12-26.4-26.4
		c0-14.8,12-26.4,26.4-26.4c4.4,0,8.8,1.2,12.8,3.2c2,1.2,2.8,4,2,6c-1.2,2.4-4,2.8-6,2c-2.4-1.6-5.6-2-8.4-2
		c-9.6,0-17.6,8-17.6,17.6c0,9.6,8,17.6,17.6,17.6c2.8,0,6-0.8,8.4-2C139.2,268,142,268.8,143.2,271.2z"/>
	<path style="fill:#54C0EB;" d="M164.8,276v-44.4c0-2.4,2-4.4,4.4-4.4s4.4,2,4.4,4.4V276c0,2.4-2,4.4-4.4,4.4S164.8,278.4,164.8,276
		z"/>
	<path style="fill:#54C0EB;" d="M228.8,273.6c0.4,0.8,0.8,1.6,0.8,2.4c0,1.6-0.8,2.8-2,3.6c-0.8,0.4-1.6,0.8-2.4,0.8
		c-1.6,0-2.8-0.8-3.6-2l-9.6-15.6h-7.6V276c0,2.4-2,4.4-4.4,4.4s-4.4-2-4.4-4.4v-44.4c0-2.4,2-4.4,4.4-4.4h12c0.4,0,4.4,0,8.8,2
		c6,2.8,9.2,8.4,9.2,15.6c0,0.4,0,4.4-2,8.8c-1.6,3.2-4,5.6-6.8,6.8L228.8,273.6z M204,253.6h7.6c3.6,0,6.4-1.2,7.6-4
		c1.2-2.4,1.2-4.8,1.2-4.8c0-3.6-1.2-6.4-4.4-7.6c-2.4-1.2-4.8-1.2-4.8-1.2h-7.6L204,253.6L204,253.6z"/>
	<path style="fill:#54C0EB;" d="M291.6,271.2c1.2,2,0.4,4.8-2,6c-4,2-8.4,3.2-12.8,3.2c-14.8,0-26.4-12-26.4-26.4
		c0-14.8,12-26.4,26.4-26.4c4.4,0,8.8,1.2,12.8,3.2c2,1.2,2.8,4,2,6c-1.2,2.4-4,2.8-6,2c-2.4-1.6-5.6-2-8.4-2
		c-9.6,0-17.6,8-17.6,17.6c0,9.6,8,17.6,17.6,17.6c2.8,0,6-0.8,8.4-2C288,268,290.4,268.8,291.6,271.2z"/>
	<path style="fill:#54C0EB;" d="M316,270c-2-4.8-2.4-9.2-2.4-9.6v-28.8c0-2.4,2-4.4,4.4-4.4s4.4,2,4.4,4.4v28.8
		c0,1.2,0.8,11.2,10,11.2c8.8,0,10-9.2,10-11.2v-28.8c0-2.4,2-4.4,4.4-4.4s4.4,2,4.4,4.4v28.8c0,0.4,0,5.2-2,9.6
		c-3.2,6.8-9.2,10.4-16.8,10.4C324.8,280.4,318.8,276.4,316,270z"/>
	<path style="fill:#54C0EB;" d="M406,262.4v0.8c0,4.4-1.6,8.4-4.8,11.6c-3.2,3.2-8,5.2-12.8,5.2h-0.8c-6.4-0.4-12-4-14.8-9.6
		c-0.4-0.8-0.4-1.2-0.4-2c0-1.6,0.8-3.2,2.4-4c0.8-0.4,1.2-0.4,2-0.4c1.6,0,3.2,0.8,4,2.4c1.2,2.8,3.6,4.4,6.8,4.4h0.4
		c2.8,0,4.8-0.8,6.4-2.4s2.4-3.6,2.4-5.6v-0.4c-0.4-3.6-6.8-6.8-9.6-7.6h-0.4c-8-2.8-11.6-7.6-11.6-14.4v-0.8c0-4,2-7.2,5.2-9.6
		c2.8-2,6.4-3.6,10.4-3.6h0.8c3.2,0,6.4,1.2,9.2,3.2c1.2,0.8,1.6,2.4,1.6,3.6c0,0.8-0.4,2-0.8,2.8c-0.8,1.2-2.4,1.6-3.6,1.6
		c-0.8,0-2-0.4-2.8-0.8c-1.2-0.8-2.8-1.6-4-1.6h-0.4c-3.6,0-6.8,2-6.8,4.8v0.4c0,3.6,2.8,5.2,6,6.4C392.4,247.6,405.6,252,406,262.4
		z"/>
</g>
<g>
	<path style="fill:#84DBFF;" d="M111.2,252.8c0.4-9.2,8.4-16.8,17.6-16.8c2.8,0,6,0.8,8.4,2s4.8,0.4,6-2c1.2-2,0.4-4.8-2-6
		c-4-2-8.4-3.2-12.8-3.2c-14.4,0-26,11.6-26.4,25.6L111.2,252.8L111.2,252.8z"/>
	<path style="fill:#84DBFF;" d="M173.6,252.8v-21.2c0-2.4-2-4.4-4.4-4.4s-4.4,2-4.4,4.4v21.2H173.6z"/>
	<path style="fill:#84DBFF;" d="M204,252.8V236h7.6c0,0,2.4,0,4.8,1.2c2.8,1.6,4.4,4,4.4,7.6c0,0,0,2.4-1.2,4.8
		c-0.8,1.6-1.6,2.4-3.2,3.2H228c1.6-4,2-7.6,2-8c0-7.2-3.2-12.8-9.2-15.6c-4-2-8.4-2-8.8-2h-12c-2.4,0-4.4,2-4.4,4.4v21.2
		C195.6,252.8,204,252.8,204,252.8z"/>
	<path style="fill:#84DBFF;" d="M259.6,252.8c0.4-9.2,8.4-16.8,17.6-16.8c2.8,0,6,0.8,8.4,2s4.8,0.4,6-2c1.2-2,0.4-4.8-2-6
		c-4-2-8.4-3.2-12.8-3.2c-14.4,0-26,11.6-26.4,25.6L259.6,252.8L259.6,252.8z"/>
	<path style="fill:#84DBFF;" d="M322.4,252.8v-21.2c0-2.4-2-4.4-4.4-4.4s-4.4,2-4.4,4.4v21.2H322.4z"/>
	<path style="fill:#84DBFF;" d="M351.2,252.8v-21.2c0-2.4-2-4.4-4.4-4.4s-4.4,2-4.4,4.4v21.2H351.2z"/>
	<path style="fill:#84DBFF;" d="M381.6,252.8h18.8c-4-3.6-9.2-5.2-10.8-5.6c-2.8-1.2-6-2.4-6-6.4v-0.4c0-2.8,2.8-4.8,6.8-4.8h0.4
		c1.2,0,2.8,0.8,4,1.6c0.8,0.8,1.6,0.8,2.8,0.8c1.2,0,2.8-0.8,3.6-1.6c0.8-0.8,0.8-1.6,0.8-2.8s-0.8-2.4-1.6-3.6
		c-2.8-2-6-3.2-9.2-3.2h-0.8c-4,0-7.6,1.2-10.4,3.6c-3.2,2.4-5.2,6-5.2,9.6v0.8C375.2,246,377.6,250,381.6,252.8z"/>
</g>
<polygon style="fill:#FF7058;" points="254,120 266.4,145.2 294.4,149.2 274,168.8 278.8,196.8 254,183.6 229.2,196.8 234,168.8 
	213.6,149.2 241.6,145.2 "/>
<g>
	<polygon style="fill:#F1543F;" points="332.8,152 340.8,168 358.4,170.8 345.6,183.2 348.8,200.8 332.8,192.4 317.2,200.8 
		320,183.2 307.2,170.8 324.8,168 	"/>
	<polygon style="fill:#F1543F;" points="175.2,152 183.2,168 200.8,170.8 188,183.2 190.8,200.8 175.2,192.4 159.2,200.8 
		162.4,183.2 149.6,170.8 167.2,168 	"/>
</g>
<polygon style="fill:#FF7058;" points="254,301.2 266.4,326.4 294.4,330.4 274,350 278.8,377.6 254,364.4 229.2,377.6 234,350 
	213.6,330.4 241.6,326.4 "/>
<g>
	<polygon style="fill:#F1543F;" points="332.8,301.2 340.8,317.2 358.4,319.6 345.6,332 348.8,349.6 332.8,341.6 317.2,349.6 
		320,332 307.2,319.6 324.8,317.2 	"/>
	<polygon style="fill:#F1543F;" points="175.2,301.2 183.2,317.2 200.8,319.6 188,332 190.8,349.6 175.2,341.6 159.2,349.6 
		162.4,332 149.6,319.6 167.2,317.2 	"/>
</g>
<g>
</g>
<g>
</g>
<g>
</g>
<g>
</g>
<g>
</g>
<g>
</g>
<g>
</g>
<g>
</g>
<g>
</g>
<g>
</g>
<g>
</g>
<g>
</g>
<g>
</g>
<g>
</g>
<g>
</g>
</svg>
