<?xml version="1.0" encoding="iso-8859-1"?>
<!-- Generator: Adobe Illustrator 19.0.0, SVG Export Plug-In . SVG Version: 6.00 Build 0)  -->
<svg version="1.1" id="Layer_1" xmlns="http://www.w3.org/2000/svg" xmlns:xlink="http://www.w3.org/1999/xlink" x="0px" y="0px"
	 viewBox="0 0 508 508" style="enable-background:new 0 0 508 508;" xml:space="preserve">
<circle style="fill:#324A5E;" cx="254" cy="254" r="254"/>
<circle style="fill:#FFD05B;" cx="254" cy="254" r="176.4"/>
<ellipse style="fill:#FFFFFF;" cx="306.8" cy="197.6" rx="47.2" ry="63.6"/>
<ellipse style="fill:#84DBFF;" cx="303.6" cy="207.2" rx="38" ry="51.2"/>
<ellipse style="fill:#324A5E;" cx="303.6" cy="217.2" rx="17.6" ry="23.6"/>
<g>
	
		<ellipse transform="matrix(0.6744 -0.7384 0.7384 0.6744 -57.175 287.8135)" style="fill:#FFFFFF;" cx="297.741" cy="208.733" rx="6.8" ry="5.2"/>
	<ellipse style="fill:#FFFFFF;" cx="193.2" cy="197.6" rx="47.2" ry="63.6"/>
</g>
<ellipse style="fill:#84DBFF;" cx="196.4" cy="207.2" rx="38" ry="51.2"/>
<ellipse style="fill:#324A5E;" cx="196.4" cy="217.2" rx="17.6" ry="23.6"/>
<ellipse transform="matrix(0.6744 0.7384 -0.7384 0.6744 220.3448 -81.4372)" style="fill:#FFFFFF;" cx="202.508" cy="209.113" rx="6.8" ry="5.2"/>
<ellipse style="fill:#FF7058;" cx="253.6" cy="257.2" rx="32.8" ry="42"/>
<path style="fill:#FFFFFF;" d="M351.6,294.8c0,58-43.6,105.6-97.6,105.6s-97.6-47.2-97.6-105.6c0-6.4,0.4-12.4,1.6-18.8
	c16.4,36.8,53.2,62.4,96.4,62.4c42.8,0,79.6-25.6,96.4-62.4C351.2,282.4,351.6,288.4,351.6,294.8z"/>
<g>
</g>
<g>
</g>
<g>
</g>
<g>
</g>
<g>
</g>
<g>
</g>
<g>
</g>
<g>
</g>
<g>
</g>
<g>
</g>
<g>
</g>
<g>
</g>
<g>
</g>
<g>
</g>
<g>
</g>
</svg>
