<?xml version="1.0" encoding="iso-8859-1"?>
<!-- Generator: Adobe Illustrator 19.0.0, SVG Export Plug-In . SVG Version: 6.00 Build 0)  -->
<svg version="1.1" id="Layer_1" xmlns="http://www.w3.org/2000/svg" xmlns:xlink="http://www.w3.org/1999/xlink" x="0px" y="0px"
	 viewBox="0 0 508 508" style="enable-background:new 0 0 508 508;" xml:space="preserve">
<circle style="fill:#F1543F;" cx="254" cy="254" r="254"/>
<path style="fill:#FFFFFF;" d="M254,444.8c-55.6,0-107.2-25.2-141.6-68.8c-12-15.2-9.2-37.6,6-49.6s37.6-9.2,49.6,6
	c21.2,26.4,52.4,41.6,86,41.6s64.8-15.2,86-42c12-15.2,34.4-18,49.6-6s18,34.4,6,49.6C361.2,419.6,309.6,444.8,254,444.8z"/>
<g>
	<path style="fill:#FFD05B;" d="M254,423.6c-49.2,0-94.4-22-124.8-60.8c-4.8-6-3.6-15.2,2.4-20c6-4.8,15.2-3.6,20,2.4
		c24.8,31.6,62.4,50,102.4,50c40.4,0,77.6-18.4,102.4-50c4.8-6,13.6-7.2,20-2.4c6,4.8,7.2,13.6,2.4,20
		C348.4,401.2,303.2,423.6,254,423.6z"/>
	<circle style="fill:#FFD05B;" cx="254" cy="274" r="55.6"/>
</g>
<ellipse transform="matrix(0.7028 -0.7114 0.7114 0.7028 -111.7 238.9204)" style="fill:#FFFFFF;" cx="230.09" cy="253.143" rx="20" ry="11.2"/>
<g>
	<path style="fill:#324A5E;" d="M380,122.4h-23.6V98.8c0-7.2-6-13.2-13.2-13.2s-13.2,6-13.2,13.2v23.6h-24c-7.2,0-13.2,6-13.2,13.2
		c0,7.2,6,13.2,13.2,13.2h23.6v23.6c0,7.2,6,13.2,13.2,13.2s13.2-6,13.2-13.2v-23.6h23.6c7.2,0,13.2-6,13.2-13.2
		C393.6,128.4,387.6,122.4,380,122.4z"/>
	<path style="fill:#324A5E;" d="M202,122.4h-23.6V98.8c0-7.2-6-13.2-13.2-13.2s-13.2,6-13.2,13.2v23.6h-23.6
		c-7.2,0-13.2,6-13.2,13.2c0,7.2,6,13.2,13.2,13.2H152v23.6c0,7.2,6,13.2,13.2,13.2s13.2-6,13.2-13.2v-23.6H202
		c7.2,0,13.2-6,13.2-13.2C215.6,128.4,209.6,122.4,202,122.4z"/>
</g>
<g>
</g>
<g>
</g>
<g>
</g>
<g>
</g>
<g>
</g>
<g>
</g>
<g>
</g>
<g>
</g>
<g>
</g>
<g>
</g>
<g>
</g>
<g>
</g>
<g>
</g>
<g>
</g>
<g>
</g>
</svg>
