<?xml version="1.0" encoding="iso-8859-1"?>
<!-- Generator: Adobe Illustrator 19.0.0, SVG Export Plug-In . SVG Version: 6.00 Build 0)  -->
<svg version="1.1" id="Layer_1" xmlns="http://www.w3.org/2000/svg" xmlns:xlink="http://www.w3.org/1999/xlink" x="0px" y="0px"
	 viewBox="0 0 508 508" style="enable-background:new 0 0 508 508;" xml:space="preserve">
<circle style="fill:#90DFAA;" cx="254" cy="254" r="254"/>
<g>
	<ellipse style="fill:#F1543F;" cx="357.2" cy="212" rx="91.2" ry="94.8"/>
	<ellipse style="fill:#F1543F;" cx="150.8" cy="212" rx="91.2" ry="94.8"/>
</g>
<path style="fill:#FFD05B;" d="M399.6,240.4c0,92-65.2,204-145.6,204s-145.6-112-145.6-204S173.6,111.2,254,111.2
	S399.6,148.4,399.6,240.4z"/>
<ellipse style="fill:#E6E9EE;" cx="314.4" cy="218.8" rx="36.4" ry="54.4"/>
<ellipse style="fill:#FFFFFF;" cx="314.4" cy="239.2" rx="26.4" ry="34"/>
<ellipse style="fill:#324A5E;" cx="314.4" cy="249.2" rx="15.2" ry="19.6"/>
<ellipse transform="matrix(0.6915 -0.7223 0.7223 0.6915 -79.7204 297.2234)" style="fill:#FFFFFF;" cx="308.151" cy="241.954" rx="6" ry="2"/>
<ellipse style="fill:#E6E9EE;" cx="193.6" cy="218.8" rx="36.4" ry="54.4"/>
<ellipse style="fill:#FFFFFF;" cx="193.6" cy="239.2" rx="26.4" ry="34"/>
<ellipse style="fill:#324A5E;" cx="193.6" cy="249.2" rx="15.2" ry="19.6"/>
<ellipse transform="matrix(0.6915 -0.7223 0.7223 0.6915 -116.8759 210.2532)" style="fill:#FFFFFF;" cx="187.742" cy="241.974" rx="6" ry="2"/>
<circle style="fill:#F1543F;" cx="254" cy="306" r="32.8"/>
<path style="fill:#FFFFFF;" d="M254,414.8c-42,0-80-22.8-94.4-56.8c-5.2-12,0.4-26,12.8-30.8c12-5.2,26,0.4,30.8,12.8
	c6.8,16.4,27.6,28,50.8,28c22.8,0,43.6-11.6,50.8-28c5.2-12,18.8-17.6,30.8-12.8c12,5.2,17.6,18.8,12.8,30.8
	C334,392,296,414.8,254,414.8z"/>
<path style="fill:#F1543F;" d="M254,398.8c-35.6,0-67.6-18.8-79.6-47.2c-1.2-2.4-0.4-4.8,0-5.6c0.4-1.2,1.6-3.2,4-4
	c0.8-0.4,2-0.4,2.8-0.4c3.2,0,5.6,2,6.8,4.8c9.6,22.8,36,38,65.6,38s56-15.2,65.6-38c1.2-2.8,4-4.8,6.8-4.8c0.8,0,2,0,2.8,0.4
	c2.4,1.2,3.6,3.2,4,4c0.4,1.2,1.2,3.2,0,5.6C321.6,379.6,289.6,398.8,254,398.8z"/>
<g>
</g>
<g>
</g>
<g>
</g>
<g>
</g>
<g>
</g>
<g>
</g>
<g>
</g>
<g>
</g>
<g>
</g>
<g>
</g>
<g>
</g>
<g>
</g>
<g>
</g>
<g>
</g>
<g>
</g>
</svg>
