<?xml version="1.0" encoding="iso-8859-1"?>
<!-- Generator: Adobe Illustrator 19.0.0, SVG Export Plug-In . SVG Version: 6.00 Build 0)  -->
<svg version="1.1" id="Layer_1" xmlns="http://www.w3.org/2000/svg" xmlns:xlink="http://www.w3.org/1999/xlink" x="0px" y="0px"
	 viewBox="0 0 508 508" style="enable-background:new 0 0 508 508;" xml:space="preserve">
<circle style="fill:#84DBFF;" cx="254" cy="254" r="254"/>
<g>
	<path style="fill:#2B3B4E;" d="M404.8,208.4h22.8c8.4,0,15.2-6.8,15.2-15.2l0,0c0-8.4-6.8-15.2-15.2-15.2h-22.8V208.4z"/>
	<path style="fill:#2B3B4E;" d="M91.6,208.4H68.8c-8.4,0-15.2-6.8-15.2-15.2l0,0c0-8.4,6.8-15.2,15.2-15.2h22.8
		C91.6,178,91.6,208.4,91.6,208.4z"/>
	<path style="fill:#2B3B4E;" d="M221.2,202.4c6.4-8,16-12.8,26.8-12.8c10.8,0,20.4,5.2,26.8,12.8h20.8c-8.4-18-26.4-30.8-47.6-30.8
		s-39.6,12.8-47.6,30.8H221.2z"/>
</g>
<circle style="fill:#324A5E;" cx="151.2" cy="194" r="72.4"/>
<circle style="fill:#FFFFFF;" cx="151.2" cy="194" r="52"/>
<circle style="fill:#324A5E;" cx="343.6" cy="194" r="72.4"/>
<circle style="fill:#FFFFFF;" cx="343.6" cy="194" r="52"/>
<path style="fill:#324A5E;" d="M97.2,356.8l6.8,5.6c20.8,14,40,17.2,59.2,7.2s28.8-8.8,54.4-1.2c16.8,4.8,26-2.4,30.8-8
	c4.4,5.6,14,13.2,30.8,8c25.6-7.6,35.2-9.2,54.4,1.2c19.2,10,38.4,6.8,59.2-7.2l6.8-5.6c0,0,3.2-7.6-5.2-3.2c0,0-29.6,12.8-47.6-7.6
	c-2.8-3.2-6-6.4-9.6-8.8c-10-7.6-30-19.2-56-19.6c0,0-17.6-0.4-22,2c0,0-6,2.4-10.8,8.4c-4.8-6-10.8-8.4-10.8-8.4
	c-4.4-2.4-22-2-22-2c-26,0.4-46,12-56,19.6c-3.6,2.8-6.4,5.6-9.6,8.8c-17.6,20.4-47.6,7.6-47.6,7.6
	C93.6,349.2,97.2,356.8,97.2,356.8z"/>
<path style="fill:#F1543F;" d="M418.8,447.2c4-3.2,7.6-6.8,11.2-10V208.4h-11.2V447.2z"/>
<g>
</g>
<g>
</g>
<g>
</g>
<g>
</g>
<g>
</g>
<g>
</g>
<g>
</g>
<g>
</g>
<g>
</g>
<g>
</g>
<g>
</g>
<g>
</g>
<g>
</g>
<g>
</g>
<g>
</g>
</svg>
