<?xml version="1.0" encoding="iso-8859-1"?>
<!-- Generator: Adobe Illustrator 19.0.0, SVG Export Plug-In . SVG Version: 6.00 Build 0)  -->
<svg version="1.1" id="Layer_1" xmlns="http://www.w3.org/2000/svg" xmlns:xlink="http://www.w3.org/1999/xlink" x="0px" y="0px"
	 viewBox="0 0 508 508" style="enable-background:new 0 0 508 508;" xml:space="preserve">
<circle style="fill:#90DFAA;" cx="254" cy="254" r="254"/>
<path style="fill:#324A5E;" d="M434,402.8c0,27.6-80.8,49.6-180,49.6c-99.6,0-180-22.4-180-49.6v-18.4C74,412,154.8,434,254,434
	c97.2,0,176.8-21.2,180-48V402.8z"/>
<path id="SVGCleanerId_0" style="fill:#FF7058;" d="M434,383.2c0,0.4,0,1.2,0,1.6c0,27.6-80.8,49.6-180,49.6
	c-99.6,0-180-22.4-180-49.6V271.6l0,0c4,26.4,82.8,47.6,180,47.6c99.6,0,180-22.4,180-49.6V383.2z"/>
<g>
	<path id="SVGCleanerId_0_1_" style="fill:#FF7058;" d="M434,383.2c0,0.4,0,1.2,0,1.6c0,27.6-80.8,49.6-180,49.6
		c-99.6,0-180-22.4-180-49.6V271.6l0,0c4,26.4,82.8,47.6,180,47.6c99.6,0,180-22.4,180-49.6V383.2z"/>
</g>
<path style="fill:#324A5E;" d="M434,269.6c0,27.6-80.8,49.6-180,49.6c-99.6,0-180-22.4-180-49.6v-18.4c0,27.6,80.8,49.6,180,49.6
	c97.2,0,176.8-21.2,180-48V269.6z"/>
<g>
	<ellipse style="fill:#FFFFFF;" cx="254" cy="251.2" rx="180" ry="49.6"/>
	<path style="fill:#FFFFFF;" d="M422.4,393.2l-50-96.8c-0.8-1.6-2.8-2.8-4.8-2.4c-2,0-3.6,1.6-4,3.2l-42,131.2l-63.2-120.8l-0.4-0.4
		c0-0.4-0.4-0.4-0.8-0.8s-0.4-0.4-0.8-0.8l-0.4-0.4h-0.4c-0.4,0-0.8-0.4-0.8-0.4c-0.4,0-0.4,0-0.8,0s-0.4,0-0.8,0
		c-0.4,0-0.8,0-0.8,0.4H252l-0.4,0.4c-0.4,0-0.4,0.4-0.8,0.8c-0.4,0.4-0.4,0.4-0.8,0.8l-0.4,0.4L186.4,428l-42-130.8
		c-0.4-2-2.4-3.2-4-3.2c-2,0-3.6,0.8-4.8,2.4l-50,96.8l-12-64.4V382l4.8,26.8c0.4,2,2,3.6,4,4s4-0.8,4.8-2.4l51.2-99.2L180.8,442
		c0.4,2,2.4,3.2,4,3.2h0.4c1.6,0,3.6-0.8,4.4-2.4L254,320.4l64.4,122.4c0.8,1.6,2.4,2.4,4.4,2.4h0.4c2,0,3.6-1.6,4-3.2l42-130.8
		l51.2,99.2c0.8,2,2.8,2.8,4.8,2.4s3.6-2,4-4l4.8-26V330L422.4,393.2z"/>
</g>
<path style="fill:#F9B54C;" d="M312.8,251.2l-10.8-5.6l85.6-154c1.6-2.8,5.2-4,8.4-2.4l0,0c2.8,1.6,4,5.2,2.4,8.4L312.8,251.2z"/>
<circle style="fill:#FFD05B;" cx="307.6" cy="246.4" r="22.8"/>
<path style="fill:#F9B54C;" d="M232.4,218.4l10.4-6l-85.2-154c-1.6-2.8-5.2-4-8.4-2.4l0,0c-2.8,1.6-4,5.2-2.4,8.4L232.4,218.4z"/>
<circle style="fill:#FFD05B;" cx="237.6" cy="213.6" r="22.8"/>
<g>
</g>
<g>
</g>
<g>
</g>
<g>
</g>
<g>
</g>
<g>
</g>
<g>
</g>
<g>
</g>
<g>
</g>
<g>
</g>
<g>
</g>
<g>
</g>
<g>
</g>
<g>
</g>
<g>
</g>
</svg>
