<?xml version="1.0" encoding="iso-8859-1"?>
<!-- Generator: Adobe Illustrator 19.0.0, SVG Export Plug-In . SVG Version: 6.00 Build 0)  -->
<svg version="1.1" id="Layer_1" xmlns="http://www.w3.org/2000/svg" xmlns:xlink="http://www.w3.org/1999/xlink" x="0px" y="0px"
	 viewBox="0 0 508 508" style="enable-background:new 0 0 508 508;" xml:space="preserve">
<circle style="fill:#FFD05B;" cx="254" cy="254" r="254"/>
<path style="fill:#F9B54C;" d="M92.4,450c44,36.4,100,58,161.6,58s117.6-21.6,161.6-58H92.4z"/>
<path style="fill:#2B3B4E;" d="M187.6,239.2c0,0,14.8,74.8,11.6,97.6c0,0-14.4,13.6-1.6,19.6l27.6-1.6c0,0,6-118.8-10.8-126.4
	C197.2,220.8,187.6,239.2,187.6,239.2z"/>
<path style="fill:#324A5E;" d="M142.4,300.4c0,0,12,0,9.6-23.6c0,0,42-36.8,59.6-36c0,0,16.8,80,6,104.4c0,0-11.2,23.2,11.2,17.2
	l31.6,0.8c0,0,6.4-12-13.6-23.6c0,0,12.4-73.6,35.2-96.8c0,0,26,6.4,34.8,0.4c0,0,40.4,29.6,45.2,51.6c0,0,19.6,45.2,36.8,49.2
	c0,0,48.4,21.6,47.6-54.8l-13.2-4.8c0,0,0.8,40.4-17.2,43.6c0,0-23.6-12.8-11.2-56c0,0-2-30.8,13.2-48.8c0,0,15.6-63.2-25.2-90
	c0,0-12.4-7.2-27.2,8.8c0,0-65.6-76.8-123.6-84.4c0,0-64-9.2-119.6,27.6c0,0-40.4,30-40.4,57.2c0,0,4.4,48.8,20,67.2l0.8,4.8
	c0,0-34.4-2.4-40,18.8c0,0,0.8,32.8,5.6,36.8c0,0,10.8,2.4,16.4-14l35.2-5.2c0,0-21.6,15.2-10.4,24.8L142.4,300.4z"/>
<circle style="fill:#2B3B4E;" cx="399.6" cy="229.6" r="6"/>
<path style="fill:#E6E9EE;" d="M349.2,197.6c2-14.8-2.4-30-1.6-45.2c0.4-4.4,0.8-9.2,3.2-13.2c4.4-9.2,14.8-15.6,24.8-15.6
	c28.4,0,31.2,10,32,11.6c4,10.8,7.6,22,7.6,33.6c0,28.8-9.6,39.6-14.8,46c-9.6,12-20.8,24.4-35.6,28.4c-6.4,1.6-13.2,1.2-20,1.2
	c-7.2,0-12.4-7.6-13.6-11.6c-1.6-4.4-2.4-10,0.8-13.2c2.4-2.4,14.8-11.6,16-16.4C348,201.2,348.8,199.6,349.2,197.6z"/>
<g>
	<path style="fill:#2B3B4E;" d="M247.2,192c10-9.6,20.8-19.6,24-33.2c-8.4,7.6-16,16-23.6,24.8c7.6-10.8,15.6-22.4,17.6-35.6
		c-3.2,1.6-4.8,4.8-6.4,8c-5.2,10.4-12.4,20-21.2,27.6c6.4-12.8,11.6-26.4,15.2-40c-7.2,12-14,24-19.6,36.8c1.2-8.8-2-18-7.2-25.2
		s-12.4-12.8-20-17.6c-8-5.2-16.8-9.6-26.4-10.8c18.8,9.2,33.6,26,40,45.6c2,6.4,3.2,12.8,5.6,19.2c3.2,9.6,9.2,18.8,8.4,28.8
		c-0.4-5.2,2.8-10.4,6.4-14c3.6-3.6,8.4-6.4,12.8-9.6c11.6-8.4,20.8-20,26.4-33.2c-2.4-0.8-5.2,0-7.2,1.6
		C269.2,166.4,254.8,186,247.2,192z"/>
	<path style="fill:#2B3B4E;" d="M232.8,212.8c0,0,6.8,15.6-21.2,28C211.6,240.8,238.4,235.6,232.8,212.8z"/>
</g>
<g>
	<path style="fill:#FF7058;" d="M170,368.4h140.4c4.8,0,8.4-3.6,8.4-8s-4-8-8.4-8H170c-4.8,0-8.4,3.6-8.4,8S165.2,368.4,170,368.4z"
		/>
	<path style="fill:#FF7058;" d="M310.4,435.2H170c-4.8,0-8.4,3.6-8.4,8s4,8,8.4,8h140.4c4.8,0,8.4-3.6,8.4-8
		S315.2,435.2,310.4,435.2z"/>
</g>
<rect x="170" y="368.4" style="fill:#E6E9EE;" width="140.4" height="66.8"/>
<path style="fill:#54C0EB;" d="M304.8,442L284,360.4c-0.4-0.8-1.2-1.6-2.4-1.6c-1.2,0-2,0.8-2.4,1.6l-18.4,72.4l-18.4-72.4
	c-0.4-0.8-1.2-1.6-2.4-1.6s-2,0.8-2.4,1.6l-18.4,72.4l-18.4-72.4c-0.4-0.8-1.2-1.6-2.4-1.6s-2,0.8-2.4,1.6L175.2,442
	c-0.4,1.2,0.4,2.4,1.6,2.8c1.2,0.4,2.4-0.4,2.8-1.6l18.4-72.4l18.4,72.4l0,0l0,0c0,0,0,0,0,0.4l0,0c0,0,0,0.4,0.4,0.4l0,0
	c0,0,0,0,0.4,0.4l0,0c0,0,0,0,0.4,0l0,0c0,0,0,0,0.4,0l0,0l0,0h0.4l0,0l0,0l0,0h0.4l0,0l0,0c0,0,0,0,0.4,0c0,0,0,0,0.4,0l0,0l0,0
	l0,0l0,0l0,0l0,0l0,0c0,0,0,0,0-0.4l0,0l18.4-72.4l18.4,72.4l0,0l0,0c0,0,0,0,0,0.4l0,0c0,0,0,0.4,0.4,0.4l0,0c0,0,0,0,0.4,0.4l0,0
	c0,0,0,0,0.4,0l0,0c0,0,0,0,0.4,0l0,0l0,0h0.4l0,0l0,0l0,0h0.4l0,0l0,0c0,0,0,0,0.4,0c0,0,0,0,0.4,0c0,0,0,0,0.4,0l0,0l0,0l0,0l0,0
	l0,0l0,0c0,0,0,0,0-0.4l0,0l18.4-72.4l18.4,72.4c0.4,2.4,2.8,1.6,2.8,1.6C304.4,444.4,305.2,443.2,304.8,442z"/>
<path style="fill:#324A5E;" d="M85.2,126.4c0,0-12.4,22.8-12.4,46.8c0,0,15.6-44,22.4-42L85.2,126.4z"/>
<g>
</g>
<g>
</g>
<g>
</g>
<g>
</g>
<g>
</g>
<g>
</g>
<g>
</g>
<g>
</g>
<g>
</g>
<g>
</g>
<g>
</g>
<g>
</g>
<g>
</g>
<g>
</g>
<g>
</g>
</svg>
