<?xml version="1.0" encoding="iso-8859-1"?>
<!-- Generator: Adobe Illustrator 19.0.0, SVG Export Plug-In . SVG Version: 6.00 Build 0)  -->
<svg version="1.1" id="Layer_1" xmlns="http://www.w3.org/2000/svg" xmlns:xlink="http://www.w3.org/1999/xlink" x="0px" y="0px"
	 viewBox="0 0 508 508" style="enable-background:new 0 0 508 508;" xml:space="preserve">
<circle style="fill:#FFD05B;" cx="254" cy="254" r="254"/>
<path style="fill:#F9B54C;" d="M52.8,408.8C99.2,469.2,172,508,254,508s154.8-38.8,201.2-99.2H52.8z"/>
<g>
	
		<rect x="347.383" y="228.379" transform="matrix(-0.2264 -0.974 0.974 -0.2264 259.049 666.4979)" style="fill:#324A5E;" width="93.627" height="4"/>
	
		<rect x="268.428" y="246.424" transform="matrix(-0.2224 -0.975 0.975 -0.2224 143.095 610.9785)" style="fill:#324A5E;" width="93.544" height="4"/>
</g>
<polygon style="fill:#FFFFFF;" points="380.8,275.2 385.6,296.8 351.6,304.4 346.8,282.8 313.6,290.4 334,328.8 412,311.2 
	413.6,267.6 "/>
<g>
	
		<rect x="111.804" y="183.586" transform="matrix(-0.974 -0.2265 0.2265 -0.974 172.465 480.5894)" style="fill:#324A5E;" width="4" height="93.629"/>
	
		<rect x="190.796" y="201.629" transform="matrix(-0.975 -0.2222 0.2222 -0.975 325.576 533.4275)" style="fill:#324A5E;" width="3.999" height="93.54"/>
</g>
<polygon style="fill:#FFFFFF;" points="127.2,275.2 122.4,296.8 156.4,304.4 161.2,282.8 194.4,290.4 174,328.8 96,311.2 
	94.4,267.6 "/>
<g>
	<polygon style="fill:#FF7058;" points="252.4,56 130,160.4 130,160.4 130,207.2 366.4,207.2 366.4,160.4 	"/>
	<polygon style="fill:#FF7058;" points="406,391.2 102,391.2 112.4,363.2 395.6,363.2 	"/>
</g>
<g>
	<path style="fill:#E6E9EE;" d="M409.6,391.2H98.4c-8.8,0-15.6,7.2-15.6,15.6v2h342.4v-2C425.2,398.4,418,391.2,409.6,391.2z"/>
	<rect x="230.8" y="207.2" style="fill:#E6E9EE;" width="46.8" height="156"/>
</g>
<path style="fill:#F1543F;" d="M413.2,160.4c-13.2,0-23.6,10.4-23.6,23.6c0-13.2-10.4-23.6-23.6-23.6s-23.6,10.4-23.6,23.6
	c0-13.2-10.4-23.6-23.6-23.6s-23.6,10.4-23.6,23.6c0-13.2-10.4-23.6-23.6-23.6S248,170.8,248,184c0-13.2-10.4-23.6-23.6-23.6
	c-13.2,0-23.6,10.4-23.6,23.6c0-13.2-10.4-23.6-23.6-23.6c-13.2,0-23.6,10.4-23.6,23.6c0-13.2-10.4-23.6-23.6-23.6
	c-13.2,0-23.6,10.4-23.6,23.6c0-13.2-10.4-23.6-23.6-23.6v47.2h330v-47.2H413.2z"/>
<g>
	<circle style="fill:#FFFFFF;" cx="130.4" cy="183.2" r="10.8"/>
	<circle style="fill:#FFFFFF;" cx="177.6" cy="183.2" r="10.8"/>
	<circle style="fill:#FFFFFF;" cx="224.8" cy="183.2" r="10.8"/>
	<circle style="fill:#FFFFFF;" cx="271.6" cy="183.2" r="10.8"/>
	<circle style="fill:#FFFFFF;" cx="318.8" cy="183.2" r="10.8"/>
	<circle style="fill:#FFFFFF;" cx="366" cy="183.2" r="10.8"/>
	<path style="fill:#FFFFFF;" d="M83.2,172.8V194c6,0,10.8-4.8,10.8-10.8C94,177.6,89.2,172.8,83.2,172.8z"/>
	<path style="fill:#FFFFFF;" d="M413.2,172.8V194c-6,0-10.8-4.8-10.8-10.8C402.4,177.6,407.2,172.8,413.2,172.8z"/>
</g>
<g>
</g>
<g>
</g>
<g>
</g>
<g>
</g>
<g>
</g>
<g>
</g>
<g>
</g>
<g>
</g>
<g>
</g>
<g>
</g>
<g>
</g>
<g>
</g>
<g>
</g>
<g>
</g>
<g>
</g>
</svg>
