<?xml version="1.0" encoding="iso-8859-1"?>
<!-- Generator: Adobe Illustrator 19.0.0, SVG Export Plug-In . SVG Version: 6.00 Build 0)  -->
<svg version="1.1" id="Layer_1" xmlns="http://www.w3.org/2000/svg" xmlns:xlink="http://www.w3.org/1999/xlink" x="0px" y="0px"
	 viewBox="0 0 508 508" style="enable-background:new 0 0 508 508;" xml:space="preserve">
<circle style="fill:#54C0EB;" cx="254" cy="254" r="254"/>
<path style="fill:#324A5E;" d="M254.4,434C154.8,434,74,352.8,74,253.6S155.2,73.2,254.4,73.2s180.4,81.2,180.4,180.4
	S354,434,254.4,434z M254.4,78.4c-96.4,0-174.8,78.4-174.8,174.8S158,428,254.4,428s174.8-78.4,174.8-174.8S350.8,78.4,254.4,78.4z"
	/>
<polygon style="fill:#2B3B4E;" points="431.6,252 269.2,251.6 419.2,190 417.2,184.4 266.8,246.4 381.6,131.6 377.6,127.2 
	262.8,242 324.8,92.4 319.6,90 257.6,240 257.6,77.6 251.6,77.6 251.6,240 189.6,90 184.4,92.4 246.4,242 132,126.8 127.6,130.8 
	242.4,246 92.4,183.6 90,188.8 240,251.6 77.6,251.2 77.6,256.8 240,257.2 90,319.2 92,324.4 242.4,262.4 127.6,377.2 131.6,381.6 
	246.4,266.8 184.4,416.8 189.6,418.8 251.6,268.8 251.6,431.2 257.6,431.2 257.6,268.8 319.6,418.8 324.8,416.8 262.8,266.8 
	377.2,382 381.2,378 266.8,262.8 416.8,325.2 418.8,320 269.2,257.2 431.6,257.6 "/>
<g>
	<circle style="fill:#FFFFFF;" cx="90.8" cy="321.2" r="19.6"/>
	<circle style="fill:#FFFFFF;" cx="417.2" cy="186" r="21.6"/>
	<circle style="fill:#FFFFFF;" cx="186.4" cy="90.4" r="21.6"/>
	<circle style="fill:#FFFFFF;" cx="321.6" cy="417.2" r="22.4"/>
	<circle style="fill:#FFFFFF;" cx="90.8" cy="186" r="21.6"/>
	<circle style="fill:#FFFFFF;" cx="417.2" cy="321.2" r="21.6"/>
	<circle style="fill:#FFFFFF;" cx="321.6" cy="90.4" r="21.6"/>
	<circle style="fill:#FFFFFF;" cx="186.4" cy="417.2" r="22.4"/>
</g>
<circle style="fill:#4CDBC4;" cx="186.4" cy="90.4" r="14"/>
<circle style="fill:#F9B54C;" cx="321.6" cy="417.2" r="14.8"/>
<circle style="fill:#84DBFF;" cx="417.2" cy="186" r="14.8"/>
<circle style="fill:#F1543F;" cx="90.8" cy="321.2" r="13.2"/>
<circle style="fill:#FF7058;" cx="417.2" cy="321.2" r="14.8"/>
<circle style="fill:#ACB3BA;" cx="90.8" cy="186" r="14.8"/>
<circle style="fill:#2C9984;" cx="186.4" cy="416.8" r="14.4"/>
<circle style="fill:#FFD05B;" cx="321.6" cy="90.4" r="14"/>
<g>
	<circle style="fill:#FFFFFF;" cx="129.6" cy="129.2" r="21.6"/>
	<circle style="fill:#FFFFFF;" cx="379.6" cy="379.2" r="21.6"/>
	<circle style="fill:#FFFFFF;" cx="379.6" cy="129.2" r="21.6"/>
	<circle style="fill:#FFFFFF;" cx="129.6" cy="379.2" r="22.4"/>
	<circle style="fill:#FFFFFF;" cx="254.4" cy="77.2" r="21.6"/>
	<circle style="fill:#FFFFFF;" cx="254.4" cy="430.8" r="21.6"/>
	<circle style="fill:#FFFFFF;" cx="431.2" cy="254" r="21.6"/>
	<circle style="fill:#FFFFFF;" cx="77.6" cy="254" r="22.4"/>
</g>
<circle style="fill:#4CDBC4;" cx="379.6" cy="129.2" r="14"/>
<circle style="fill:#F9B54C;" cx="129.6" cy="379.2" r="14.8"/>
<circle style="fill:#84DBFF;" cx="379.6" cy="378.8" r="14.8"/>
<circle style="fill:#F1543F;" cx="129.6" cy="129.2" r="14.8"/>
<circle style="fill:#FF7058;" cx="254.4" cy="430.8" r="14.8"/>
<circle style="fill:#ACB3BA;" cx="254.4" cy="77.2" r="14.8"/>
<circle style="fill:#2C9984;" cx="77.6" cy="254" r="14.4"/>
<circle style="fill:#FFD05B;" cx="431.2" cy="254" r="14"/>
<circle style="fill:#324A5E;" cx="254.8" cy="254.4" r="42"/>
<path style="fill:#E6E9EE;" d="M254,242.8c-1.6,0-3.6,0.8-4.4,2.4l-140,218c2.8,2,6,4,8.8,5.6L254,257.6l135.6,211.2
	c2.8-2,6-3.6,8.8-5.6l-140-218C257.6,243.6,255.6,242.8,254,242.8z"/>
<circle style="fill:#2B3B4E;" cx="254.8" cy="254.4" r="20.8"/>
<g>
</g>
<g>
</g>
<g>
</g>
<g>
</g>
<g>
</g>
<g>
</g>
<g>
</g>
<g>
</g>
<g>
</g>
<g>
</g>
<g>
</g>
<g>
</g>
<g>
</g>
<g>
</g>
<g>
</g>
</svg>
