<?xml version="1.0" encoding="iso-8859-1"?>
<!-- Generator: Adobe Illustrator 19.0.0, SVG Export Plug-In . SVG Version: 6.00 Build 0)  -->
<svg version="1.1" id="Layer_1" xmlns="http://www.w3.org/2000/svg" xmlns:xlink="http://www.w3.org/1999/xlink" x="0px" y="0px"
	 viewBox="0 0 508 508" style="enable-background:new 0 0 508 508;" xml:space="preserve">
<circle style="fill:#324A5E;" cx="254" cy="254" r="254"/>
<rect x="170.4" y="218.8" style="fill:#FFD05B;" width="14.8" height="234.4"/>
<rect x="141.6" y="117.6" style="fill:#F1543F;" width="72.4" height="231.6"/>
<g>
	<path style="fill:#E6E9EE;" d="M214,129.2c-21.6,40.8-52.4,59.2-72.8,42v37.2c22.4,6.8,50-10.4,72.8-44V129.2z"/>
	<path style="fill:#E6E9EE;" d="M141.6,144.8c18,5.2,39.6-5.2,59.2-26.8h-59.2V144.8z"/>
	<path style="fill:#E6E9EE;" d="M214,193.2c-21.6,40.8-52.4,59.2-72.8,42v37.2c22.4,6.8,50-10.4,72.8-44V193.2z"/>
	<path style="fill:#E6E9EE;" d="M214,257.2c-21.6,40.8-52.4,59.2-72.8,42v37.2c22.4,6.8,50-10.4,72.8-44V257.2z"/>
	<path style="fill:#E6E9EE;" d="M194.4,349.2H214v-28.4C208,332.4,201.2,341.6,194.4,349.2z"/>
</g>
<polygon style="fill:#FF7058;" points="231.2,132 177.6,54.4 124,132 "/>
<rect x="275.715" y="216.467" transform="matrix(0.9707 0.2403 -0.2403 0.9707 88.4758 -58.2556)" style="fill:#FFD05B;" width="14.8" height="234.4"/>
<rect x="271.184" y="118.292" transform="matrix(0.9707 0.2403 -0.2403 0.9707 65.2589 -67.0052)" style="fill:#F1543F;" width="72.4" height="231.6"/>
<g>
	<path style="fill:#E6E9EE;" d="M368,141.6c-30.8,34.4-65.2,44.8-80.8,23.6l-9.2,36c20,11.6,50.8,2,81.2-25.2L368,141.6z"/>
	<path style="fill:#E6E9EE;" d="M293.6,139.2c16.4,9.2,39.6,4.4,64-12l-57.2-14.4L293.6,139.2z"/>
	<path style="fill:#E6E9EE;" d="M352.4,203.6c-30.8,34.4-65.2,44.8-80.8,23.6l-8.8,36.4c20,11.6,50.8,2,81.2-25.2L352.4,203.6z"/>
	<path style="fill:#E6E9EE;" d="M337.2,265.6c-30.8,34.4-65.2,44.8-80.8,23.6l-8.8,36.4c20,11.6,50.8,2,81.2-25.2L337.2,265.6z"/>
	<path style="fill:#E6E9EE;" d="M296,350.4l18.8,4.8l6.8-27.6C313.2,337.2,304.4,344.8,296,350.4z"/>
</g>
<polygon style="fill:#FF7058;" points="384,148.4 350.4,60.4 280,122.8 "/>
<g>
</g>
<g>
</g>
<g>
</g>
<g>
</g>
<g>
</g>
<g>
</g>
<g>
</g>
<g>
</g>
<g>
</g>
<g>
</g>
<g>
</g>
<g>
</g>
<g>
</g>
<g>
</g>
<g>
</g>
</svg>
