<?xml version="1.0" encoding="iso-8859-1"?>
<!-- Generator: Adobe Illustrator 19.0.0, SVG Export Plug-In . SVG Version: 6.00 Build 0)  -->
<svg version="1.1" id="Layer_1" xmlns="http://www.w3.org/2000/svg" xmlns:xlink="http://www.w3.org/1999/xlink" x="0px" y="0px"
	 viewBox="0 0 508 508" style="enable-background:new 0 0 508 508;" xml:space="preserve">
<circle style="fill:#90DFAA;" cx="254" cy="254" r="254"/>
<path style="fill:#2C9984;" d="M86.8,444.8C131.6,484,190,508,254,508s122.8-24,167.2-63.2H86.8z"/>
<rect x="122.8" y="362.8" style="fill:#FFFFFF;" width="11.6" height="80.4"/>
<g>
	<rect x="385.2" y="125.6" style="fill:#324A5E;" width="13.6" height="133.2"/>
	<rect x="115.2" y="125.6" style="fill:#324A5E;" width="13.6" height="133.2"/>
</g>
<path style="fill:#FFFFFF;" d="M408.8,372.8H99.2c-12,0-21.6-9.6-21.6-21.6v-100h353.2v100C430.4,363.2,420.8,372.8,408.8,372.8z"/>
<path style="fill:#FF7058;" d="M408.8,372.8H99.2c-12,0-21.6-9.6-21.6-21.6v-84h353.2v84C430.4,363.2,420.8,372.8,408.8,372.8z"/>
<path style="fill:#F1543F;" d="M263.2,372.8h128.4c0-35.6-28.8-64.4-64.4-64.4C292,308.8,263.2,337.6,263.2,372.8z"/>
<polygon style="fill:#FF7058;" points="121.6,125.6 83.2,125.6 121.6,72.4 151.6,72.4 "/>
<polygon style="fill:#FFFFFF;" points="160.4,125.6 121.6,125.6 151.6,72.4 182,72.4 "/>
<polygon style="fill:#FF7058;" points="198.8,125.6 160.4,125.6 182,72.4 212,72.4 "/>
<polygon style="fill:#FFFFFF;" points="237.6,125.6 198.8,125.6 212,72.4 242,72.4 "/>
<polygon style="fill:#FF7058;" points="276,125.6 237.6,125.6 242,72.4 272,72.4 "/>
<polygon style="fill:#FFFFFF;" points="314.8,125.6 276,125.6 272,72.4 302,72.4 "/>
<polygon style="fill:#FF7058;" points="353.2,125.6 314.8,125.6 302,72.4 332,72.4 "/>
<polygon style="fill:#FFFFFF;" points="392,125.6 353.2,125.6 332,72.4 362,72.4 "/>
<polygon style="fill:#FF7058;" points="430.4,125.6 392,125.6 362,72.4 392,72.4 "/>
<path style="fill:#F1543F;" d="M102.4,156L102.4,156c-10.8,0-19.2-8.8-19.2-19.2v-11.2h38.4v11.2C121.6,147.2,113.2,156,102.4,156z"
	/>
<path style="fill:#E6E9EE;" d="M141.2,156L141.2,156c-10.8,0-19.2-8.8-19.2-19.2v-11.2h38.4v11.2C160.4,147.2,151.6,156,141.2,156z"
	/>
<path style="fill:#F1543F;" d="M179.6,156L179.6,156c-10.8,0-19.2-8.8-19.2-19.2v-11.2h38.4v11.2C198.8,147.2,190.4,156,179.6,156z"
	/>
<path style="fill:#E6E9EE;" d="M218.4,156L218.4,156c-10.8,0-19.2-8.8-19.2-19.2v-11.2h38.4v11.2C237.6,147.2,228.8,156,218.4,156z"
	/>
<path style="fill:#F1543F;" d="M256.8,156L256.8,156c-10.8,0-19.2-8.8-19.2-19.2v-11.2H276v11.2C276,147.2,267.6,156,256.8,156z"/>
<path style="fill:#E6E9EE;" d="M295.6,156L295.6,156c-10.8,0-19.2-8.8-19.2-19.2v-11.2h38.4v11.2C314.8,147.2,306,156,295.6,156z"/>
<path style="fill:#F1543F;" d="M334,156L334,156c-10.8,0-19.2-8.8-19.2-19.2v-11.2h38.4v11.2C353.2,147.2,344.8,156,334,156z"/>
<path style="fill:#E6E9EE;" d="M372.8,156L372.8,156c-10.8,0-19.2-8.8-19.2-19.2v-11.2H392v11.2C392,147.2,383.2,156,372.8,156z"/>
<path style="fill:#F1543F;" d="M411.2,156L411.2,156c-10.8,0-19.2-8.8-19.2-19.2v-11.2h38.4v11.2C430.4,147.2,422,156,411.2,156z"/>
<polygon style="fill:#FFFFFF;" points="388,370.4 340,370.4 384.4,352 382.8,347.6 338,366 372,332 368.8,328.4 334.4,362.8 
	353.2,318 348.4,316 330,360.8 330,312.4 325.2,312.4 325.2,360.8 306.8,316 302.4,318 320.8,362.8 286.4,328.4 283.2,332 
	317.2,366 272.8,347.6 270.8,352 315.6,370.4 267.2,370.4 267.2,375.2 315.6,375.2 270.8,394 272.8,398.4 317.2,380 283.2,414 
	286.4,417.6 320.8,383.2 302.4,428 306.8,429.6 325.2,385.2 325.2,433.6 330,433.6 330,385.2 348.4,429.6 353.2,428 334.4,383.2 
	368.8,417.6 372,414 338,380 382.8,398.4 384.4,394 340,375.2 388,375.2 "/>
<g>
	<path style="fill:#324A5E;" d="M327.6,302.8c-38.8,0-70.4,31.6-70.4,70.4s31.6,70.4,70.4,70.4S398,412,398,373.2
		C398,334,366.4,302.8,327.6,302.8z M327.6,430.4c-32,0-57.6-25.6-57.6-57.6s25.6-57.6,57.6-57.6s57.6,26,57.6,57.6
		C385.2,404.8,359.6,430.4,327.6,430.4z"/>
	<circle style="fill:#324A5E;" cx="327.6" cy="372.8" r="17.2"/>
</g>
<g>
</g>
<g>
</g>
<g>
</g>
<g>
</g>
<g>
</g>
<g>
</g>
<g>
</g>
<g>
</g>
<g>
</g>
<g>
</g>
<g>
</g>
<g>
</g>
<g>
</g>
<g>
</g>
<g>
</g>
</svg>
