<?xml version="1.0" encoding="iso-8859-1"?>
<!-- Generator: Adobe Illustrator 19.0.0, SVG Export Plug-In . SVG Version: 6.00 Build 0)  -->
<svg version="1.1" id="Layer_1" xmlns="http://www.w3.org/2000/svg" xmlns:xlink="http://www.w3.org/1999/xlink" x="0px" y="0px"
	 viewBox="0 0 508 508" style="enable-background:new 0 0 508 508;" xml:space="preserve">
<circle style="fill:#90DFAA;" cx="254" cy="254" r="254"/>
<g>
	<path style="fill:#FFFFFF;" d="M252.4,96.8c0.8-0.4,2-0.8,2.8-0.8s2,0,2.8,0.4c1.2,0.4,2.4,0.4,4,0.8c0.8,0,1.6,0.4,2.4,0.8
		s1.2,0.8,1.6,1.6c0.4,0.8-0.4,2-0.8,2.8c-1.2,2-2.4,4.4-3.6,6.4c-0.8,1.2-1.6,2.8-2,4c-0.4,1.6-0.4,3.2-0.8,4.8
		c-0.4,1.6-2,3.2-3.6,3.2c-1.2-3.2-4.8-4.4-6.8-7.2c-0.8-1.2-1.2-2.8-1.6-4c-0.4-1.2-0.8-2.4-0.8-3.6c0-1.6,0.8-3.6,1.6-5.2
		c0.4-0.8,0.8-1.6,1.2-2.4C250,98,251.2,97.2,252.4,96.8z"/>
	<path style="fill:#FFFFFF;" d="M391.2,142c0,0-7.6,17.6-16,20l-10.8-10l-2-20c0,0,8-1.6,8.8-2C371.6,129.2,391.2,142,391.2,142z"/>
	<path style="fill:#FFFFFF;" d="M401.2,106.8c0,0,46.4-14,41.6,33.2c0,0,4.8,24-8.4,36.4c0,0,8.8,20-3.6,30.8c0,0-8.8-35.6-20-35.2
		l-15.6,4l6-20.8c0,0,12.4-26.8,6.4-37.2C401.2,106.8,401.2,106.8,401.2,106.8z"/>
	<path style="fill:#FFFFFF;" d="M265.6,100c0,0,17.6,38.4,31.6,42.4c0,0,34.8,12.8,49.6,15.2L316.4,170c0,0-32-11.2-32-14.4
		c0,0-30.4-36-29.6-40L265.6,100z"/>
	<path style="fill:#FFFFFF;" d="M50.4,379.6c0,0,30.4-6,51.2,0c0,0,13.6,6,13.6-12.8c0,0,11.2-14,44.8-18.8c0,0,16-0.4,42.8-30
		c0,0,60-26.8,72.8-26c0,0,13.2-3.2,21.6-1.2L270.8,266l-23.2-6c0,0-40.4,21.6-43.2,25.6c0,0-17.2,5.2-20.8,16
		c0,0-60.8,40.4-76.8,44.8c0,0-18.8,5.2-29.2,16C76.8,363.2,60.8,367.6,50.4,379.6z"/>
	<path style="fill:#FFFFFF;" d="M319.6,285.2c0,0,31.6-14.8,1.6-62c0,0,8-21.6,36.4-20.8c0,0,18.4,1.2,23.6-10.8l24.4,48.8l3.6,15.2
		l20,36.4c0,0,4.4,24,7.2,24c0,0,3.2,2.8,3.6-14c0,0,12.8,5.6,8,22.4c0,0,12,8,8-16c0,0-6.8-19.6-15.2-20c0,0-10.8-42.8-18-50.8
		c0,0-24.4-40.4-24-49.2c0,0-8-23.2-14-28.8c0,0-22-10.4-43.6-2.4c0,0-42.8,10.8-54.8,38.8c0,0-11.6,19.2-14,38l24,44L319.6,285.2z"
		/>
	<path style="fill:#FFFFFF;" d="M456.8,308c0,0-6.8-19.6-15.2-20c0,0-10.8-42.8-18-50.8c0,0-24.4-40.4-24-49.2c0,0-8-23.2-14-28.8
		c0,0-22-10.4-43.6-2.4c0,0-13.6,3.6-27.6,11.6v62H326c-1.2-2.4-2.8-4.8-4.4-7.6c0,0,8-21.6,36.4-20.8c0,0,18.4,1.2,23.6-10.8
		L406,240l3.6,15.2l20,36.4c0,0,4.4,24,7.2,24c0,0,3.2,2.8,3.6-14c0,0,12.8,5.6,8,22.4C448.8,324,460.8,332,456.8,308z"/>
	<path style="fill:#FFFFFF;" d="M317.6,216.8c0,0,5.6-3.2,11.6-4.8c-5.6,5.2-8,10.8-8,10.8c19.6,31.2,12.8,48.4,5.6,56.4l-14.4-7.6
		l-23.2-16.4l-7.2-8c0.4-0.4,17.2-21.2,25.6-25.2c0,0-22-3.2-34,10c2.8-18,13.6-36,13.6-36c12.4-28,54.8-38.8,54.8-38.8
		c6.8-2.8,14-3.2,20.4-3.2C346.8,158.8,318.8,174,317.6,216.8z"/>
	<path style="fill:#FFFFFF;" d="M226.8,384.8c0,0,22.4-44.8,22.4-52c0,0,1.2-6-11.2-10c0,0-12-56.4-7.2-68c0,0,57.2,37.6,69.6,36.8
		c0,0,52.4-6.8,14.8-43.2c0,0-12.8-5.2-19.6,2.4c0,0-28-28.8-77.6-37.2c0,0-34.4-9.2-32.4,24c0,0,34.4,58,34,91.6
		c0,0,2,42.8-1.2,48.4C218.8,377.6,214.4,393.6,226.8,384.8z"/>
</g>
<path style="fill:#FF7058;" d="M423.2,236.8c0,0,12.4,19.6-16.8,17.2c0,0,21.6,35.2,22,38.8c0,0,4-8.4,14-4.8
	C442.4,288,431.6,237.6,423.2,236.8z"/>
<g>
	<path style="fill:#FFFFFF;" d="M391.2,95.6c0,0-42.4-30.8-44.4,36c0,0-2,13.2,9.2,24.8l11.6-0.8c0,0-4-18.4-1.6-25.2
		c0,0,3.2-18.4,12.8-18.8L391.2,95.6z"/>
	<path style="fill:#FFFFFF;" d="M404,129.6c0,0-4.4,24-34.8,13.6c0,0-10-18-1.2-29.2l12-6.8l23.6,8.4l0.8,8.4v5.6H404z"/>
	<path style="fill:#FFFFFF;" d="M368,114c0,0,8.4-34,35.2-11.6c0,0,13.2,12.8,1.2,27.6C404,129.6,384.8,109.6,368,114z"/>
</g>
<g>
	<path style="fill:#2B3B4E;" d="M306.8,239.2c-6.8-23.6-35.2-107.6-46.4-107.6c-0.4,0-0.8,0-0.8,0c-2.4,0.8-6.8,2,0.8,43.2
		c3.2,18,8.4,39.6,13.6,59.2c2,1.2,3.6,2.4,5.2,3.6c-12-43.6-21.2-94.4-18.4-101.6c6.8,4.8,28.8,58.8,42,104.4c6,20,8.8,34,8.4,42.4
		c-0.4,7.2-2.8,8.4-4.8,9.2c-0.8,0.4-1.2,0.4-2,0.4s-1.6-0.4-2.4-0.8c-0.8,0-1.2,0-1.2,0c-1.6,0-3.6-0.4-6.4-1.2c3.6,4.8,6.8,6,10,6
		c0.8,0,2,0,3.2-0.4c5.2-1.6,7.6-5.6,8-13.2C315.6,274,312.8,259.6,306.8,239.2z"/>
	<path style="fill:#2B3B4E;" d="M263.6,137.6l3.6-5.2c-3.2-2.8-9.6-25.6-20.4-132.4c-2,0.4-4.4,0.4-6.4,0.8
		C252.4,114.8,259.2,134.4,263.6,137.6z"/>
</g>
<path style="fill:#FF7058;" d="M267.6,100c0,0-8.4,20-12.8,20.8l21.6,49.2l23.6-28.8L267.6,100z"/>
<g>
</g>
<g>
</g>
<g>
</g>
<g>
</g>
<g>
</g>
<g>
</g>
<g>
</g>
<g>
</g>
<g>
</g>
<g>
</g>
<g>
</g>
<g>
</g>
<g>
</g>
<g>
</g>
<g>
</g>
</svg>
