<?xml version="1.0" encoding="iso-8859-1"?>
<!-- Generator: Adobe Illustrator 19.0.0, SVG Export Plug-In . SVG Version: 6.00 Build 0)  -->
<svg version="1.1" id="Layer_1" xmlns="http://www.w3.org/2000/svg" xmlns:xlink="http://www.w3.org/1999/xlink" x="0px" y="0px"
	 viewBox="0 0 508 508" style="enable-background:new 0 0 508 508;" xml:space="preserve">
<circle style="fill:#324A5E;" cx="254" cy="254" r="254"/>
<path style="fill:#84DBFF;" d="M408,136.8c6,17.6,12,35.2,18.4,52.8c6-16,12-32.4,18.4-48C432.4,139.2,420,137.6,408,136.8z"/>
<path style="fill:#FFD05B;" d="M364.8,135.2c6,16.8,12,34,18.4,51.2c6-16.8,12-33.6,18.4-50C389.2,135.6,377.2,135.2,364.8,135.2z"
	/>
<path style="fill:#FFFFFF;" d="M322,137.2c6,16.4,12,33.2,18.4,49.6c6-17.2,12-34.4,18.4-51.6C346,135.6,334,136.4,322,137.2z"/>
<path style="fill:#4CDBC4;" d="M278.8,141.6c6,16.4,12,32.8,18.4,49.2c6-17.6,12-35.2,18.4-52.8C303.2,138.8,290.8,140,278.8,141.6z
	"/>
<path style="fill:#FF7058;" d="M235.6,146.4c6,16.4,12,32.4,18.4,48.8c6-17.6,12-35.2,18.4-53.2C260,143.6,248,144.8,235.6,146.4z"
	/>
<path style="fill:#84DBFF;" d="M192.8,150.8c6,16.4,12,32.8,18.4,49.2c6-17.6,12-35.2,18.4-52.8
	C217.2,148.4,204.8,149.6,192.8,150.8z"/>
<path style="fill:#FFD05B;" d="M149.6,153.2c6,16.8,12,33.6,18.4,50.4c6-17.2,12-34.8,18.4-52C174,152,162,152.8,149.6,153.2z"/>
<path style="fill:#FFFFFF;" d="M106.4,152.4c6,17.2,12,34.8,18.4,51.6c6-16.8,12-33.6,18.4-50.8
	C130.8,153.2,118.8,153.2,106.4,152.4z"/>
<path style="fill:#4CDBC4;" d="M63.6,146.8c6,18,12,36,18.4,54c6-16,12-32.4,18.4-48.8C88,150.8,75.6,149.2,63.6,146.8z"/>
<path style="fill:#FFFFFF;" d="M136.4,156c-28,0-56-2.4-84-8.4c-1.6-0.4-2.4-1.6-2-3.2c0.4-1.6,1.6-2.4,3.2-2
	c66.4,14.8,134.4,6.8,200-0.8c66-7.6,134.4-15.2,201.6-0.4c1.6,0.4,2.4,1.6,2,3.2c-0.4,1.6-1.6,2.4-3.2,2
	c-66.4-14.8-134.4-6.8-200,0.8C215.6,151.2,176,156,136.4,156z"/>
<path style="fill:#84DBFF;" d="M100,219.6c-6,17.6-12,35.2-18.4,52.8c-6-16-12-32-18.4-48C75.6,222,88,220.4,100,219.6z"/>
<path style="fill:#FFD05B;" d="M143.2,218c-6,16.8-12,34-18.4,51.2c-6-16.8-12-33.6-18.4-50C118.8,218.4,130.8,218,143.2,218z"/>
<path style="fill:#FFFFFF;" d="M186,220.4c-6,16.4-12,33.2-18.4,49.6c-6-17.2-12-34.4-18.4-51.6C162,218.8,174,219.2,186,220.4z"/>
<path style="fill:#4CDBC4;" d="M229.2,224.4c-6,16.4-12,32.8-18.4,49.2c-6-17.6-12-35.2-18.4-52.8
	C204.8,221.6,217.2,222.8,229.2,224.4z"/>
<path style="fill:#FF7058;" d="M272.4,229.2c-6,16.4-12,32.4-18.4,48.8c-6-17.6-12-35.2-18.4-53.2C248,226.4,260,228,272.4,229.2z"
	/>
<path style="fill:#84DBFF;" d="M315.2,233.6c-6,16.4-12,32.8-18.4,49.2c-6-17.6-12-35.2-18.4-52.8
	C290.8,231.2,303.2,232.4,315.2,233.6z"/>
<path style="fill:#FFD05B;" d="M358.4,236c-6,16.8-12,33.6-18.4,50.4c-6-17.2-12-34.8-18.4-52C334,234.8,346,235.6,358.4,236z"/>
<path style="fill:#FFFFFF;" d="M401.6,235.2c-6,17.2-12,34.8-18.4,51.6c-6-16.8-12-33.6-18.4-50.8C377.2,236,389.2,236,401.6,235.2z
	"/>
<path style="fill:#4CDBC4;" d="M444.4,230c-6,18-12,36-18.4,54c-6-16-12-32.4-18.4-48.8C420,233.6,432.4,232,444.4,230z"/>
<path style="fill:#FFFFFF;" d="M371.6,238.8c-39.6,0-79.2-4.4-117.6-8.8c-65.6-7.6-133.6-15.2-200-0.8c-1.6,0.4-2.8-0.4-3.2-2
	s0.4-2.8,2-3.2c67.2-14.8,135.6-7.2,201.6,0.4c65.6,7.6,133.6,15.2,200,0.8c1.6-0.4,2.8,0.4,3.2,2c0.4,1.6-0.4,2.8-2,3.2
	C427.6,236.4,399.6,238.8,371.6,238.8z"/>
<path style="fill:#84DBFF;" d="M408,308c6,17.6,12,35.2,18.4,52.8c6-16,12-32.4,18.4-48C432.4,310.4,420,308.8,408,308z"/>
<path style="fill:#FFD05B;" d="M364.8,306.4c6,16.8,12,34,18.4,51.2c6-16.8,12-33.6,18.4-50C389.2,306.8,377.2,306.4,364.8,306.4z"
	/>
<path style="fill:#FFFFFF;" d="M322,308.4c6,16.4,12,33.2,18.4,49.6c6-17.2,12-34.4,18.4-51.6C346,306.8,334,307.6,322,308.4z"/>
<path style="fill:#4CDBC4;" d="M278.8,312.8c6,16.4,12,32.8,18.4,49.2c6-17.6,12-35.2,18.4-52.8C303.2,310,290.8,311.2,278.8,312.8z
	"/>
<path style="fill:#FF7058;" d="M235.6,317.6C242,334,248,350,254,366.4c6-17.6,12-35.2,18.4-53.2C260,314.8,248,316.4,235.6,317.6z"
	/>
<path style="fill:#84DBFF;" d="M192.8,322c6,16.4,12,32.8,18.4,49.2c6-17.6,12-35.2,18.4-52.8C217.2,319.6,204.8,320.8,192.8,322z"
	/>
<path style="fill:#FFD05B;" d="M149.6,324.4c6,16.8,12,33.6,18.4,50.4c6-17.2,12-34.8,18.4-52C174,323.2,162,324,149.6,324.4z"/>
<path style="fill:#FFFFFF;" d="M106.4,323.6c6,17.2,12,34.8,18.4,51.6c6-16.8,12-33.6,18.4-50.8
	C130.8,324.4,118.8,324.4,106.4,323.6z"/>
<path style="fill:#4CDBC4;" d="M63.6,318c6,18,12,36,18.4,54c6-16,12-32.4,18.4-48.8C88,322,75.6,320.4,63.6,318z"/>
<path style="fill:#FFFFFF;" d="M136.4,327.2c-28,0-56-2.4-84-8.4c-1.6-0.4-2.4-1.6-2-3.2s1.6-2.4,3.2-2c66.4,14.8,134.4,6.8,200-0.8
	c66-7.6,134.4-15.2,201.6-0.4c1.6,0.4,2.4,1.6,2,3.2s-1.6,2.4-3.2,2c-66.4-14.8-134.4-6.8-200,0.8
	C215.6,322.4,176,327.2,136.4,327.2z"/>
<g>
</g>
<g>
</g>
<g>
</g>
<g>
</g>
<g>
</g>
<g>
</g>
<g>
</g>
<g>
</g>
<g>
</g>
<g>
</g>
<g>
</g>
<g>
</g>
<g>
</g>
<g>
</g>
<g>
</g>
</svg>
