<?xml version="1.0" encoding="iso-8859-1"?>
<!-- Generator: Adobe Illustrator 19.0.0, SVG Export Plug-In . SVG Version: 6.00 Build 0)  -->
<svg version="1.1" id="Layer_1" xmlns="http://www.w3.org/2000/svg" xmlns:xlink="http://www.w3.org/1999/xlink" x="0px" y="0px"
	 viewBox="0 0 508 508" style="enable-background:new 0 0 508 508;" xml:space="preserve">
<circle style="fill:#84DBFF;" cx="254" cy="254" r="254"/>
<polygon style="fill:#FFD05B;" points="159.6,195.6 254,468.8 348.4,195.6 "/>
<path style="fill:#F9B54C;" d="M348.4,195.6H330l4.4,4.4L318,216.4L302,200l4.4-4.4h-19.2l4.4,4.4l-16.4,16.4L258.8,200l4.4-4.4H244
	l4.4,4.4L232,216.4L215.6,200l4.4-4.4h-19.2l4.4,4.4l-16.4,16.4L172.4,200l4.4-4.4h-18.4l0.4,1.2l3.2,3.2l-1.6,1.6l2.8,7.6l4-4
	l16.4,16.4l-12,12l2.8,7.6l14.4-14.4l16.4,16.4l-16.4,16.4l-12.4-12.4l5.6,15.6l2,2l-0.8,0.8l2.8,7.6l3.6-3.6L206,286l-11.2,11.2
	l2.8,7.6l14-14l16.4,16.4l-16.4,16.4l-11.2-11.2L206,328l0.8,0.8l-0.4,0.4l2.8,7.6l2.8-2.8l16.4,16.4l-10.8,10.8l2.8,7.6l13.2-13.2
	L250,372l-16.4,16.4l-10-10l8,22.8l2.4-2.4l16.4,16.4l-10,10.4l2.8,7.6l12.8-12.8l12.8,12.8l2.8-7.6l-10.4-10.4l16.4-16.4l2.4,2.4
	l8-22.8l-10,10L261.6,372l16.4-16.4l13.2,13.2l2.8-7.6L280.4,350l16.4-16.4l2.8,2.8l2.8-7.6l-0.4-0.4l0.8-0.8l5.6-15.6l-11.2,11.2
	l-16.4-16.4l16.4-16.4l14,14l2.8-7.6l-12-11.2l16.4-16.4l3.6,3.6l2.8-7.6l-0.8-0.8l2-2l5.6-15.6l-12.4,12.4L302,242.8l16.4-16.4
	l14.4,14.4l2.8-7.6l-12-12l16.4-16.4l4,4l2.8-7.6l-1.6-1.6l3.2-3.2L348.4,195.6z M291.6,242.8l-16.4,16.4l-16.4-16.4l16.4-16.4
	L291.6,242.8z M237.6,264.4L254,248l16.4,16.4l-16.4,16L237.6,264.4z M270.4,307.2l-16.4,16l-16.4-16.4l16.4-16.4L270.4,307.2z
	 M254,205.2l16.4,16.4l-16.4,16l-16.4-16.4L254,205.2z M248.8,242.8l-16.4,16.4L216,242.8l16.4-16.4L248.8,242.8z M194.8,221.6
	l16.4-16.4l16.4,16.4L211.2,238L194.8,221.6z M194.8,264.4l16.4-16.4l16.4,16.4l-16.4,16.4L194.8,264.4z M216.4,285.6l16.4-16.4
	l16.4,16.4L232.8,302L216.4,285.6z M216.4,328.4l16.4-16.4l16.4,16.4l-16.4,16.4L216.4,328.4z M270.4,392.8L254,409.2l-16.4-16.4
	l16.4-16.4L270.4,392.8z M254,366l-16.4-16l16.4-16.4l16.4,16.4L254,366z M291.6,328.4l-16.4,16.4l-16.4-16.4l16.4-16.4L291.6,328.4
	z M275.6,302l-16.4-16.4l16.4-16.4l16.4,16.4L275.6,302z M313.2,264.4l-16.4,16.4l-16.4-16.4l16.4-16.4L313.2,264.4z M296.8,237.6
	l-16.4-16.4l16.4-16.4l16.4,16.4L296.8,237.6z M245.2,442.8l7.2,20.8l1.6-1.6l1.6,1.6l7.2-20.8l-8.8,8.8L245.2,442.8z"/>
<circle style="fill:#E6E9EE;" cx="307.2" cy="178.8" r="63.6"/>
<ellipse transform="matrix(0.6841 0.7294 -0.7294 0.6841 219.2632 -195.6108)" style="fill:#FFFFFF;" cx="335.454" cy="155.322" rx="21.6" ry="12.4"/>
<circle style="fill:#FF7058;" cx="256.4" cy="102.8" r="63.6"/>
<ellipse transform="matrix(0.6841 -0.7294 0.7294 0.6841 14.3302 191.3954)" style="fill:#FFFFFF;" cx="228.121" cy="79.154" rx="21.6" ry="12.4"/>
<circle style="fill:#324A5E;" cx="200.8" cy="178.8" r="63.6"/>
<ellipse transform="matrix(0.6841 -0.7294 0.7294 0.6841 -58.6729 174.7877)" style="fill:#FFFFFF;" cx="172.447" cy="155.129" rx="21.6" ry="12.4"/>
<g>
</g>
<g>
</g>
<g>
</g>
<g>
</g>
<g>
</g>
<g>
</g>
<g>
</g>
<g>
</g>
<g>
</g>
<g>
</g>
<g>
</g>
<g>
</g>
<g>
</g>
<g>
</g>
<g>
</g>
</svg>
