<?xml version="1.0" encoding="iso-8859-1"?>
<!-- Generator: Adobe Illustrator 19.0.0, SVG Export Plug-In . SVG Version: 6.00 Build 0)  -->
<svg version="1.1" id="Layer_1" xmlns="http://www.w3.org/2000/svg" xmlns:xlink="http://www.w3.org/1999/xlink" x="0px" y="0px"
	 viewBox="0 0 508 508" style="enable-background:new 0 0 508 508;" xml:space="preserve">
<circle style="fill:#FFD05B;" cx="254" cy="254" r="254"/>
<g>
	<path style="fill:#FFFFFF;" d="M187.6,446h38.8l-12-29.6c0,0-8.8-34.4-48.4-28.4c0,0-12.4,3.2-32-10.8c-3.6-2.4-7.6-3.6-12-2.4
		c-4.4,1.2-7.6,4.4,0.8,13.2l-8,1.2c0,0-22.4-14.4-25.6-28.4c-0.8-2.8-1.6-5.2-3.6-7.6C82,348.8,76,344,66.4,348
		c0,0,4.4,53.2,77.2,71.6C144,420,174.4,419.6,187.6,446z"/>
	<path style="fill:#FFFFFF;" d="M320.4,446h-38.8l12-29.6c0,0,8.8-34.4,48.4-28.4c0,0,12.4,3.2,32-10.8c3.6-2.4,7.6-3.6,12-2.4
		s7.6,4.4-0.8,13.2l8,1.2c0,0,22.4-14.4,25.6-28.4c0.8-2.8,1.6-5.2,3.6-7.6c3.6-4.4,9.6-9.2,19.2-5.2c0,0-4.4,53.2-77.2,71.6
		C364,420,333.6,419.6,320.4,446z"/>
</g>
<circle style="fill:#E6E9EE;" cx="254" cy="90" r="28"/>
<ellipse transform="matrix(0.7203 -0.6937 0.6937 0.7203 12.0573 190.0701)" style="fill:#FFFFFF;" cx="241.709" cy="80.084" rx="7.2" ry="6"/>
<circle style="fill:#324A5E;" cx="393.6" cy="229.6" r="28"/>
<ellipse transform="matrix(0.6937 0.7203 -0.7203 0.6937 280.1107 -224.0112)" style="fill:#FFFFFF;" cx="403.427" cy="217.323" rx="7.2" ry="6"/>
<circle style="fill:#324A5E;" cx="114.4" cy="229.6" r="28"/>
<ellipse transform="matrix(0.6937 0.7203 -0.7203 0.6937 194.5808 -22.8327)" style="fill:#FFFFFF;" cx="124.135" cy="217.354" rx="7.2" ry="6"/>
<circle style="fill:#54C0EB;" cx="352.8" cy="130.8" r="28"/>
<ellipse transform="matrix(0.9998 0.0188 -0.0188 0.9998 2.2297 -6.5899)" style="fill:#FFFFFF;" cx="350.857" cy="115.041" rx="7.2" ry="6"/>
<circle style="fill:#54C0EB;" cx="155.2" cy="328.4" r="28"/>
<ellipse transform="matrix(0.9998 0.0188 -0.0188 0.9998 5.9197 -2.8318)" style="fill:#FFFFFF;" cx="153.251" cy="312.758" rx="7.2" ry="6"/>
<circle style="fill:#FF7058;" cx="352.8" cy="328.4" r="28"/>
<ellipse transform="matrix(-0.0188 0.9998 -0.9998 -0.0188 702.2755 -35.6319)" style="fill:#FFFFFF;" cx="368.621" cy="326.767" rx="7.2" ry="6"/>
<circle style="fill:#FF7058;" cx="155.2" cy="130.8" r="28"/>
<ellipse transform="matrix(-0.0188 0.9998 -0.9998 -0.0188 303.1467 -39.4017)" style="fill:#FFFFFF;" cx="170.906" cy="129.043" rx="7.2" ry="6"/>
<g>
</g>
<g>
</g>
<g>
</g>
<g>
</g>
<g>
</g>
<g>
</g>
<g>
</g>
<g>
</g>
<g>
</g>
<g>
</g>
<g>
</g>
<g>
</g>
<g>
</g>
<g>
</g>
<g>
</g>
</svg>
