<?xml version="1.0" encoding="iso-8859-1"?>
<!-- Generator: Adobe Illustrator 19.0.0, SVG Export Plug-In . SVG Version: 6.00 Build 0)  -->
<svg version="1.1" id="Layer_1" xmlns="http://www.w3.org/2000/svg" xmlns:xlink="http://www.w3.org/1999/xlink" x="0px" y="0px"
	 viewBox="0 0 508 508" style="enable-background:new 0 0 508 508;" xml:space="preserve">
<circle style="fill:#324A5E;" cx="254" cy="254" r="254"/>
<path style="fill:#FFD05B;" d="M360.4,348c10-17.6,16-38,16-60c-0.4-67.2-54.8-122-122-122s-122,54.8-122,122c0,2.8,0,5.2,0.4,8
	c-4.8-6.8-7.6-14.4-10-22c-4-12.4-6.8-25.6-13.6-36.4C100,223.2,96,218.4,94,205.2c-2.4-14.8-7.2-28.8-11.2-42.8
	c11.6,7.2,20,19.2,22.8,32.8c1.2,6.8,2,14.8,8.4,17.6c6,2.8,13.2-2,15.6-8s1.6-12.8,1.2-19.6c-1.6-21.2,0.4-42.8,6.4-63.2
	c1.6,8.4,2,16.8,3.6,25.2c2,8.4,5.2,16.8,12.4,21.6c6.8,4.8,16.4,4,23.2-1.2c6-4.8,15.2-61.6,20-85.6c7.6,12.8,1.2,29.6,4.4,44
	c3.6,16.8,21.6,29.2,38.8,26.8c2.8-0.4,8.8-1.6,8.8-10.8c0-13.6-2.8-26.8-3.2-40.4c-1.2-22.4,3.6-45.2,13.2-65.2
	c11.2,26.4-1.2,57.2,3.6,85.2c1.2,6.4,4.4,13.6,10.4,14.4c6.8,0.8,11.6-7.2,12.8-14c1.6-6.8,2-14.4,7.2-18.8
	c1.2,11.2,2.4,22.4,4,33.2c0.8,7.2,2.4,16,8.8,19.2s14.8-0.8,18.4-7.2s6-29.2-18-62.8c14.8,10.4,29.6,22.8,33.2,40.4
	c2,9.2,0.8,18.4,0,27.6c-0.8,9.2-0.4,18.8,4,27.2c4.4,8,14.4,14,22.8,11.2c8-2.8,13.2-11.6,21.2-12.4c-1.6,8-7.6,14-10.8,21.6
	c-3.2,7.6-1.6,18.8,6.4,20.4c12.8,2.4,17.6-21.6,30.4-20.4c-6.4,15.6-15.2,30.4-20.8,46.4c-5.6,16-8,34-1.2,49.6
	c12.4-0.8,24.4-5.2,34.4-12.8C417.6,324.8,362.4,347.6,360.4,348z"/>
<path style="fill:#FFFFFF;" d="M254.4,420.4C181.2,420.4,122,360.8,122,288c0-73.2,59.6-132.4,132.4-132.4
	c73.2,0,132.4,59.6,132.4,132.4C386.8,361.2,327.2,420.4,254.4,420.4z M254.4,166c-67.2,0-122,54.8-122,122s54.8,122,122,122
	s122-54.8,122-122C376,220.8,321.6,166,254.4,166z"/>
<g>
</g>
<g>
</g>
<g>
</g>
<g>
</g>
<g>
</g>
<g>
</g>
<g>
</g>
<g>
</g>
<g>
</g>
<g>
</g>
<g>
</g>
<g>
</g>
<g>
</g>
<g>
</g>
<g>
</g>
</svg>
