<?xml version="1.0" encoding="iso-8859-1"?>
<!-- Generator: Adobe Illustrator 19.0.0, SVG Export Plug-In . SVG Version: 6.00 Build 0)  -->
<svg version="1.1" id="Layer_1" xmlns="http://www.w3.org/2000/svg" xmlns:xlink="http://www.w3.org/1999/xlink" x="0px" y="0px"
	 viewBox="0 0 508 508" style="enable-background:new 0 0 508 508;" xml:space="preserve">
<circle style="fill:#324A5E;" cx="254" cy="254" r="254"/>
<path style="fill:#E6E9EE;" d="M239.2,48c-4.4,0-8.8,2.4-10.8,6.4C218.4,72,212,101.2,212,134c0,20.8,2.4,40,7.2,55.6
	c9.2,33.2,15.6,67.6,16.8,102l2,65.2h26.4l2.4-64.8c1.2-34.4,7.2-68.8,16.8-102c4.4-16,7.2-35.2,7.2-55.6c0-32.8-6.4-62-16.4-79.6
	c-2.4-4-6.4-6.4-10.8-6.4h-24.4V48z"/>
<g>
	<path style="fill:#ACB3BA;" d="M283.6,80c-1.2-4-2.4-8-3.6-11.6h-58c-1.2,3.6-2.4,7.6-3.6,11.6H283.6z"/>
	<path style="fill:#ACB3BA;" d="M212.4,150c0.4,4.8,0.8,9.6,1.2,14h74.8c0.4-4.4,1.2-9.2,1.2-14H212.4z"/>
	<path style="fill:#ACB3BA;" d="M264.4,356.8h-26.8c-4,0-6.8,3.2-6.8,6.8l0,0c0,4,3.2,6.8,6.8,6.8h26.8c4,0,6.8-3.2,6.8-6.8l0,0
		C271.6,360,268.4,356.8,264.4,356.8z"/>
</g>
<path style="fill:#4CDBC4;" d="M420.8,128.4c-4-2.4-8.8-2-12.8,0.4c-17.6,10.4-37.2,32.4-53.6,61.2c-10.4,18-17.6,36-21.2,52
	c-8.4,33.6-19.6,66.4-35.6,97.2l-30,57.6l22.8,12.8l34-55.2c18-29.6,40.4-56,64.8-80.8c11.6-11.6,23.2-27.2,33.6-45.2
	c16-28.4,24.8-57.2,24.8-77.2c0-4.4-2.4-8.8-6.4-10.8L420.8,128.4z"/>
<g>
	<path style="fill:#2C9984;" d="M443.6,178c1.2-4,2-8,2.4-12l-50.4-28.4c-2.8,2.4-6,5.2-8.8,8.4L443.6,178z"/>
	<path style="fill:#2C9984;" d="M347.2,204c-2,4.4-4,8.8-5.6,12.8l64.8,36.8c2.8-3.6,5.6-7.6,8-11.6L347.2,204z"/>
</g>
<path style="fill:#CED5E0;" d="M290.8,409.6l-23.6-13.2c-3.2-2-7.6-0.8-9.6,2.8l0,0c-2,3.2-0.8,7.6,2.8,9.6L284,422
	c3.2,2,7.6,0.8,9.6-2.8l0,0C295.2,416,294,411.6,290.8,409.6z"/>
<path style="fill:#FF7058;" d="M87.2,165.6c4-2.4,8.8-2,12.8,0.4c17.6,10.4,37.2,32.4,53.6,61.2c10.4,18,17.6,36,21.2,52
	c8.4,33.6,19.6,66.4,35.6,97.2l30,57.6l-22.8,12.8l-34-55.2c-18-29.6-40.4-56-64.8-80.8c-11.6-11.6-23.2-27.2-33.6-45.2
	c-16-28.4-24.8-57.2-24.8-77.2c0-4.4,2.4-8.8,6.4-10.8L87.2,165.6z"/>
<g>
	<path style="fill:#F1543F;" d="M64.4,215.2c-1.2-4-2-8-2.4-12l50.4-28.4c2.8,2.4,6,5.2,8.8,8.4L64.4,215.2z"/>
	<path style="fill:#F1543F;" d="M160.8,241.2c2,4.4,4,8.8,5.6,12.8l-64.8,36.8c-2.8-3.6-5.6-7.6-8-11.6L160.8,241.2z"/>
</g>
<path style="fill:#CED5E0;" d="M217.2,446.8l23.6-13.2c3.2-2,7.6-0.8,9.6,2.8l0,0c2,3.2,0.8,7.6-2.8,9.6L224,459.2
	c-3.2,2-7.6,0.8-9.6-2.8l0,0C212.8,453.2,214,448.8,217.2,446.8z"/>
<g>
</g>
<g>
</g>
<g>
</g>
<g>
</g>
<g>
</g>
<g>
</g>
<g>
</g>
<g>
</g>
<g>
</g>
<g>
</g>
<g>
</g>
<g>
</g>
<g>
</g>
<g>
</g>
<g>
</g>
</svg>
