<?xml version="1.0" encoding="iso-8859-1"?>
<!-- Generator: Adobe Illustrator 19.0.0, SVG Export Plug-In . SVG Version: 6.00 Build 0)  -->
<svg version="1.1" id="Layer_1" xmlns="http://www.w3.org/2000/svg" xmlns:xlink="http://www.w3.org/1999/xlink" x="0px" y="0px"
	 viewBox="0 0 508 508" style="enable-background:new 0 0 508 508;" xml:space="preserve">
<circle style="fill:#FD8469;" cx="254" cy="254" r="254"/>
<g>
	<path style="fill:#2B3B4E;" d="M238.4,507.6l-40-148.4L116,380.4l-38.4,56C119.6,477.2,176,503.6,238.4,507.6z"/>
	<path style="fill:#2B3B4E;" d="M430.4,436.8L392.8,380L310,358.8l-40,148.4C332.4,503.6,388.4,477.6,430.4,436.8z"/>
</g>
<polygon style="fill:#F9B54C;" points="292,309.2 254.4,317.2 216.4,309.2 212,320 213.6,359.6 254.4,363.6 300.8,347.2 296.4,320 
	"/>
<g>
	<path style="fill:#FFD05B;" d="M320.8,279.2c-5.6,8.8-14,12.8-18.8,8.4c-4.4-4.4-3.6-15.2,2-24s14-12.8,18.8-8.4
		C327.6,259.6,326.4,270.4,320.8,279.2z"/>
	<path style="fill:#FFD05B;" d="M188,279.2c5.6,8.8,14,12.8,18.8,8.4c4.4-4.4,3.6-15.2-2-24s-14-12.8-18.8-8.4
		C181.2,259.6,182,270.4,188,279.2z"/>
	<path style="fill:#FFD05B;" d="M316.4,249.6c0,42.8-28,84.4-62,84.4c-34.4,0-62-41.6-62-84.4s28-70,62-70
		C288.8,179.6,316.4,206.8,316.4,249.6z"/>
</g>
<path style="fill:#324A5E;" d="M312,228c4-62,33.2-155.6,33.2-155.6c-38-16.8-68.8-21.2-90.8-20.8c-22-0.4-52.4,3.6-90.8,20.8
	c0,0,28.8,93.6,33.2,155.6H312z"/>
<path style="fill:#2B3B4E;" d="M254.4,240c-36.4,0-82.8-5.2-103.2-20.4c-6-4.4-7.2-12.8-2.8-18.8s12.8-7.2,18.8-2.8
	c10.4,7.6,43.6,15.2,87.6,15.2s76.8-7.6,87.2-15.2c6-4.4,14.4-3.2,18.8,2.8s3.2,14.4-2.8,18.8C337.2,234.4,290.8,240,254.4,240z"/>
<path style="fill:#E6E9EE;" d="M254.4,363.6L254.4,363.6l-52-9.6l14.8,103.2L200.4,502c17.2,3.6,35.6,5.6,54,5.6s36.4-2,53.6-5.6
	l-16.4-44l14.8-104L254.4,363.6z"/>
<g>
	<path style="fill:#324A5E;" d="M336.8,388.8c0.8-24-40-48.4-40-48.4c-0.4,36.8-16.4,113.2-28.4,167.2c14-0.8,27.6-2.8,40.8-5.6
		c23.6-39.2,42.4-80.8,42.4-80.8l-45.2-8L336.8,388.8z"/>
	<path style="fill:#324A5E;" d="M211.6,340.4c0,0-40.8,24.4-40,48.4l30,24l-45.2,8c0,0,18.8,41.6,42.4,80.8
		c13.2,2.8,26.8,4.8,40.8,5.6C228,453.6,212.4,377.2,211.6,340.4z"/>
</g>
<g>
	<path style="fill:#FFFFFF;" d="M296.4,320c0,0-0.8,30.8-42.4,43.6c0,0,18.8-4.8,33.6,14.4C288,378,308,360.4,296.4,320z"/>
	<path style="fill:#FFFFFF;" d="M212,320c0,0,0.8,30.8,42.4,43.6c0,0-18.8-4.8-33.6,14.4C220.4,378,200.8,360.4,212,320z"/>
</g>
<g>
	<path style="fill:#54C0EB;" d="M287.6,390.4c11.6,0,12.4-9.2,12.4-20.8c0-11.6-0.8-20.8-12.4-20.8c-19.6,0-24,15.6-33.6,20.8
		C264,374.8,268,390.4,287.6,390.4z"/>
	<path style="fill:#54C0EB;" d="M220.8,390.4c-11.6,0-12.4-9.2-12.4-20.8c0-11.6,0.8-20.8,12.4-20.8c19.6,0,24,15.6,33.6,20.8
		C244.8,374.8,240.8,390.4,220.8,390.4z"/>
</g>
<path style="fill:#84DBFF;" d="M258.8,378.8H250c-2,0-4-1.6-4-4v-12.4c0-2,1.6-4,4-4h8.8c2,0,4,1.6,4,4v12.4
	C262.4,377.2,260.8,378.8,258.8,378.8z"/>
<g>
</g>
<g>
</g>
<g>
</g>
<g>
</g>
<g>
</g>
<g>
</g>
<g>
</g>
<g>
</g>
<g>
</g>
<g>
</g>
<g>
</g>
<g>
</g>
<g>
</g>
<g>
</g>
<g>
</g>
</svg>
