<?xml version="1.0" encoding="iso-8859-1"?>
<!-- Generator: Adobe Illustrator 19.0.0, SVG Export Plug-In . SVG Version: 6.00 Build 0)  -->
<svg version="1.1" id="Layer_1" xmlns="http://www.w3.org/2000/svg" xmlns:xlink="http://www.w3.org/1999/xlink" x="0px" y="0px"
	 viewBox="0 0 508 508" style="enable-background:new 0 0 508 508;" xml:space="preserve">
<circle style="fill:#54C0EB;" cx="254" cy="254" r="254"/>
<path style="fill:#2B3B4E;" d="M340.8,261.6H167.2V414c0,24,38.8,44,86.8,44c44.4,0,86.8-20,86.8-44
	C340.8,413.2,340.8,261.6,340.8,261.6z"/>
<ellipse style="fill:#324A5E;" cx="254" cy="265.6" rx="142" ry="71.6"/>
<g>
	<ellipse style="fill:#2B3B4E;" cx="254" cy="265.6" rx="86.8" ry="44"/>
	<path style="fill:#2B3B4E;" d="M340.8,265.6c0,8-4,15.2-11.2,21.6c-14.8,13.2-43.2,22-75.6,22s-60.4-8.8-75.6-22
		c-7.2-6.4-11.2-13.6-11.2-21.6c0-16.8,19.2-31.6,46.8-38.8c10-2.8,21.2-4.4,33.2-4.8c2.4,0,4.4,0,6.8,0c2.4,0,4.4,0,6.8,0
		c12,0.4,23.2,2,33.2,4.8C322,234,340.8,248.4,340.8,265.6z"/>
</g>
<path style="fill:#E6E9EE;" d="M294,226.8c-5.2,8.4-10,16-14.4,23.2c23.6,6,42,20,50,37.2c-14.8,13.2-43.2,22-75.6,22
	s-60.4-8.8-75.6-22C186,269.6,204.8,256,228,250c-4.4-7.2-9.2-14.8-14.4-23.2c-25.6-42-57.2-95.2-62-111.6c-8-28,4.8-56.4,29.2-63.6
	s50.4,10,58.8,38c4.8,16.8,6.8,82.8,7.6,132.4c0,8.8,0.4,17.6,0.4,24.8c2,0,10.8,0,12.8,0c0-7.6,0-16,0.4-24.8
	c0.8-49.6,2.8-115.6,7.6-132.4c8-28,34.4-45.2,58.8-38s37.2,35.6,29.2,63.6C351.2,131.2,319.6,184.8,294,226.8z"/>
<g>
	<path style="fill:#CED5E0;" d="M341.2,104.8c-5.2,17.6-60,103.6-60,103.6s0-102,4.8-119.6c5.2-17.6,21.6-28,36.8-23.6
		C338,69.6,346.4,87.2,341.2,104.8z"/>
	<path style="fill:#CED5E0;" d="M166.8,104.8c5.2,17.6,60,103.6,60,103.6s0-102-4.8-119.6c-5.2-17.6-21.6-28-36.8-23.6
		S161.6,87.2,166.8,104.8z"/>
</g>
<g>
</g>
<g>
</g>
<g>
</g>
<g>
</g>
<g>
</g>
<g>
</g>
<g>
</g>
<g>
</g>
<g>
</g>
<g>
</g>
<g>
</g>
<g>
</g>
<g>
</g>
<g>
</g>
<g>
</g>
</svg>
