<?xml version="1.0" encoding="iso-8859-1"?>
<!-- Generator: Adobe Illustrator 19.0.0, SVG Export Plug-In . SVG Version: 6.00 Build 0)  -->
<svg version="1.1" id="Layer_1" xmlns="http://www.w3.org/2000/svg" xmlns:xlink="http://www.w3.org/1999/xlink" x="0px" y="0px"
	 viewBox="0 0 508 508" style="enable-background:new 0 0 508 508;" xml:space="preserve">
<circle style="fill:#90DFAA;" cx="254" cy="254" r="254"/>
<path style="fill:#324A5E;" d="M370.8,263.2H120.4c-7.6,0-13.6-6-13.6-13.6l0,0c0-7.6,6-13.6,13.6-13.6h250.4
	c7.6,0,13.6,6,13.6,13.6l0,0C384.4,257.2,378.4,263.2,370.8,263.2z"/>
<path style="fill:#2B3B4E;" d="M343.6,263.2H148v228c0,9.2,7.6,16.8,16.8,16.8h162c9.2,0,16.8-7.6,16.8-16.8L343.6,263.2
	L343.6,263.2z"/>
<g>
	<rect x="148" y="336.8" style="fill:#E6E9EE;" width="195.6" height="19.2"/>
	<rect x="148" y="263.2" style="fill:#E6E9EE;" width="195.6" height="51.6"/>
</g>
<g>
	<polygon style="fill:#FFFFFF;" points="180.4,148 187.6,162.4 203.6,164.8 192,176 194.8,192 180.4,184.4 166,192 168.8,176 
		157.2,164.8 173.2,162.4 	"/>
	<polygon style="fill:#FFFFFF;" points="230.4,180.4 237.6,194.8 253.6,197.2 242,208.4 244.8,224.4 230.4,216.8 216,224.4 
		218.8,208.4 207.2,197.2 223.2,194.8 	"/>
	<polygon style="fill:#FFFFFF;" points="217.2,86 224.4,100.4 240.8,102.8 229.2,114.4 231.6,130.4 217.2,122.8 203.2,130.4 
		205.6,114.4 194,102.8 210.4,100.4 	"/>
</g>
<path style="fill:#FF7058;" d="M400,13.2L256.4,156.4c-1.6,1.6-3.6,1.6-5.2,0l-6.8-6.8c-1.6-1.6-1.6-3.6,0-5.2L388,1.2
	c1.6-1.6,3.6-1.6,5.2,0L400,8C401.2,9.2,401.2,11.6,400,13.2z"/>
<path style="fill:#FFD05B;" d="M259.2,130l-14.8,14.8c-1.2,1.2-1.2,3.6,0,5.2l6.8,6.8c1.2,1.2,3.6,1.2,5.2,0l14.8-14.8L259.2,130z"
	/>
<g>
</g>
<g>
</g>
<g>
</g>
<g>
</g>
<g>
</g>
<g>
</g>
<g>
</g>
<g>
</g>
<g>
</g>
<g>
</g>
<g>
</g>
<g>
</g>
<g>
</g>
<g>
</g>
<g>
</g>
</svg>
