<?xml version="1.0" encoding="iso-8859-1"?>
<!-- Generator: Adobe Illustrator 19.0.0, SVG Export Plug-In . SVG Version: 6.00 Build 0)  -->
<svg version="1.1" id="Layer_1" xmlns="http://www.w3.org/2000/svg" xmlns:xlink="http://www.w3.org/1999/xlink" x="0px" y="0px"
	 viewBox="0 0 508 508" style="enable-background:new 0 0 508 508;" xml:space="preserve">
<circle style="fill:#FD8469;" cx="254" cy="254" r="254"/>
<path style="fill:#324A5E;" d="M290.4,379.6l-55.6,0.8c-16.4,0-31.6-10-37.2-25.6L186.8,326l16-6l10.8,28.4
	c3.2,8.8,11.6,14.4,20.8,14.4l55.6-0.4c7.2,0,14-3.6,18-9.6s5.2-13.6,2.4-20.4l-6.4-16.8l16-6l6.4,16.8c4.4,12,2.8,25.6-4.4,36
	C317.6,369.2,306.8,378.4,290.4,379.6z"/>
<path style="fill:#FFFFFF;" d="M438,325.6l-336,12l-16.8-45.2L346,80.4c8.4-6.8,21.2-3.6,24.8,6.8L452,304
	C456,314.4,448.8,325.2,438,325.6z"/>
<g>
	<path style="fill:#324A5E;" d="M337.2,87.6L426.8,326l11.2-0.4c10.8-0.4,18.4-11.2,14.4-21.6L371.2,87.2
		c-4-10.4-16.4-13.6-24.8-6.8L337.2,87.6z"/>
	<path style="fill:#324A5E;" d="M83.6,350.8l18.4-13.2l-16.8-45.2l-22.8,2c-5.6,0.4-9.2,6.4-7.2,11.6l15.2,40.8
		C72.4,352,78.8,354,83.6,350.8z"/>
</g>
<g>
	<polygon style="fill:#FFD05B;" points="227.6,199.2 241.6,212.4 260.4,208.4 252.4,226 262,242.8 242.8,240.4 230,254.8 
		226.4,235.6 208.8,228 225.6,218.4 	"/>
	<polygon style="fill:#FFD05B;" points="301.6,264 311.2,272.8 324,270 318.4,282 325.2,293.6 312,292 303.2,301.6 300.8,288.8 
		288.8,283.2 300.4,276.8 	"/>
	<polygon style="fill:#FFD05B;" points="300.4,191.2 312.8,202.8 329.2,199.2 322,214.8 330.4,229.2 313.6,227.2 302.4,240 
		299.2,223.2 283.6,216.4 298.8,208 	"/>
</g>
<g>
</g>
<g>
</g>
<g>
</g>
<g>
</g>
<g>
</g>
<g>
</g>
<g>
</g>
<g>
</g>
<g>
</g>
<g>
</g>
<g>
</g>
<g>
</g>
<g>
</g>
<g>
</g>
<g>
</g>
</svg>
