<?xml version="1.0" encoding="iso-8859-1"?>
<!-- Generator: Adobe Illustrator 19.0.0, SVG Export Plug-In . SVG Version: 6.00 Build 0)  -->
<svg version="1.1" id="Layer_1" xmlns="http://www.w3.org/2000/svg" xmlns:xlink="http://www.w3.org/1999/xlink" x="0px" y="0px"
	 viewBox="0 0 508 508" style="enable-background:new 0 0 508 508;" xml:space="preserve">
<circle style="fill:#FD8469;" cx="254" cy="254" r="254"/>
<g>
	
		<ellipse transform="matrix(0.6571 -0.7538 0.7538 0.6571 -27.2218 393.0872)" style="fill:#2B3B4E;" cx="418.456" cy="226.465" rx="66" ry="43.6"/>
	
		<ellipse transform="matrix(0.6571 0.7538 -0.7538 0.6571 201.5269 9.9832)" style="fill:#2B3B4E;" cx="89.79" cy="226.502" rx="66" ry="43.6"/>
</g>
<path style="fill:#E6E9EE;" d="M254,79.6c-52.4,0-98.4,15.6-126.4,47.6v182c28,48.8,74.4,86.4,126.4,86.4
	c59.6,0,111.2-48.4,137.2-107.2V141.6C365.2,99.6,313.6,79.6,254,79.6z"/>
<path style="fill:#324A5E;" d="M461.6,176.8c-13.2-11.6-35.2-9.6-55.6,3.2c-13.6-68-76.4-100.8-152-100.8S115.6,112,102,180
	c-20.4-12.8-42-14.8-55.6-3.2c-11.6,10-14,27.6-7.6,46.4c0.8-8.8,4-16.8,10.4-22c12-10.4,31.6-9.2,50.4,1.6c0,2,0,4,0,6
	c0,52,24.4,108.4,62.4,145.6c-3.6-6.8-7.2-14-10.4-22c-29.2-70.8-26-155.6,16.4-172.4c28.4-11.2,62,15.6,86,60.4
	c23.6-44.8,57.6-72,86.4-60.4c42.4,16.8,45.6,101.6,16.4,172.4c-3.2,8-6.8,15.2-10.4,22c38-37.2,62.8-93.6,62.8-145.6c0-2,0-4,0-6
	c18.4-10.8,38.4-12.4,50.4-1.6c6.4,5.6,9.6,13.2,10.4,22C475.6,204.4,473.2,186.8,461.6,176.8z"/>
<ellipse style="fill:#FFFFFF;" cx="254" cy="353.6" rx="103.6" ry="74.8"/>
<circle style="fill:#324A5E;" cx="306.8" cy="237.6" r="18.4"/>
<ellipse transform="matrix(0.6193 -0.7851 0.7851 0.6193 -68.7942 321.8804)" style="fill:#FFFFFF;" cx="297.54" cy="231.884" rx="5.2" ry="2.4"/>
<circle style="fill:#324A5E;" cx="196.4" cy="237.6" r="18.4"/>
<ellipse transform="matrix(0.6193 -0.7851 0.7851 0.6193 -110.773 235.2222)" style="fill:#FFFFFF;" cx="187.185" cy="231.845" rx="5.2" ry="2.4"/>
<g>
	<path style="fill:#E6E9EE;" d="M154,372.8c24.8,11.6,60,19.2,100,19.2s75.2-7.2,100-19.2c2-5.2,3.2-10.8,3.2-16.4
		c-20.4,12-54.4,21.6-96.8,22.4V340h-12.8v38.8c-42.4-0.8-76.4-10.4-96.8-22.4C150.8,362,152,367.6,154,372.8z"/>
	<path style="fill:#E6E9EE;" d="M288,327.6c0,8.8-15.2,32-34,32s-34-23.2-34-32s15.2-16,34-16S288,318.8,288,327.6z"/>
</g>
<g>
</g>
<g>
</g>
<g>
</g>
<g>
</g>
<g>
</g>
<g>
</g>
<g>
</g>
<g>
</g>
<g>
</g>
<g>
</g>
<g>
</g>
<g>
</g>
<g>
</g>
<g>
</g>
<g>
</g>
</svg>
