<?xml version="1.0" encoding="iso-8859-1"?>
<!-- Generator: Adobe Illustrator 19.0.0, SVG Export Plug-In . SVG Version: 6.00 Build 0)  -->
<svg version="1.1" id="Layer_1" xmlns="http://www.w3.org/2000/svg" xmlns:xlink="http://www.w3.org/1999/xlink" x="0px" y="0px"
	 viewBox="0 0 508 508" style="enable-background:new 0 0 508 508;" xml:space="preserve">
<circle style="fill:#84DBFF;" cx="254" cy="254" r="254"/>
<g>
	<polygon style="fill:#324A5E;" points="359.6,306.8 267.2,306.8 352.4,271.2 350.4,266.4 265.2,302 330.4,236.4 326.8,232.8 
		261.6,298 296.8,212.8 292,210.8 256.8,296 256.8,203.6 251.2,203.6 251.2,296 216,210.8 211.2,212.8 246.4,298 181.2,232.8 
		177.6,236.4 242.8,302 157.6,266.4 155.6,271.2 240.8,306.8 148.4,306.8 148.4,312 240.8,312 155.6,347.2 157.6,352 242.8,316.8 
		177.6,382 181.2,385.6 246.4,320.4 211.2,406 216,408 251.2,322.4 251.2,414.8 256.8,414.8 256.8,322.4 292,408 296.8,406 
		261.6,320.4 326.8,385.6 330.4,382 265.2,316.8 350.4,352 352.4,347.2 267.2,312 359.6,312 	"/>
	<path style="fill:#324A5E;" d="M254,157.6c-84,0-152.4,68.4-152.4,152.4S170,462.4,254,462.4S406.4,394,406.4,310
		S338,157.6,254,157.6z M254,422.4c-62,0-112.4-50.4-112.4-112.4S192,197.6,254,197.6S366.4,248,366.4,310S316,422.4,254,422.4z"/>
</g>
<g>
	<path style="fill:#FFFFFF;" d="M254,198c-62,0-112,50-112,112s50,112,112,112s112-50,112-112S316,198,254,198z M254,407.6
		c-53.6,0-97.2-43.6-97.2-97.2s43.6-97.6,97.2-97.6s97.2,43.6,97.2,97.2S307.6,407.6,254,407.6z"/>
	<circle style="fill:#FFFFFF;" cx="254" cy="310" r="29.2"/>
</g>
<path style="fill:#FFD05B;" d="M241.2,88v219.6c0,7.2,5.6,12.8,12.8,12.8c7.2,0,12.8-5.6,12.8-12.8V88H241.2z"/>
<path style="fill:#FF7058;" d="M327.6,88h-138c-11.6,0-21.2-9.6-21.2-21.2l0,0c0-12.8,11.2-22.8,24-21.2l136.8,18
	c6,0.8,10.4,6,10.4,12l0,0C339.6,82.4,334.4,88,327.6,88z"/>
<g>
</g>
<g>
</g>
<g>
</g>
<g>
</g>
<g>
</g>
<g>
</g>
<g>
</g>
<g>
</g>
<g>
</g>
<g>
</g>
<g>
</g>
<g>
</g>
<g>
</g>
<g>
</g>
<g>
</g>
</svg>
