<?xml version="1.0" encoding="iso-8859-1"?>
<!-- Generator: Adobe Illustrator 19.0.0, SVG Export Plug-In . SVG Version: 6.00 Build 0)  -->
<svg version="1.1" id="Layer_1" xmlns="http://www.w3.org/2000/svg" xmlns:xlink="http://www.w3.org/1999/xlink" x="0px" y="0px"
	 viewBox="0 0 508 508" style="enable-background:new 0 0 508 508;" xml:space="preserve">
<circle style="fill:#54C0EB;" cx="254" cy="254" r="254"/>
<polygon style="fill:#E6E9EE;" points="340,111.2 318.4,104.8 318.4,104.8 324.8,83.6 303.2,77.2 303.2,77.2 37.6,224.8 37.6,224.8 
	37.6,224.8 31.2,246 52.8,252.4 52.8,252.4 52.8,252.4 52.8,252.4 46.8,273.6 68,280 68,280 68,280 68,280 62,301.2 83.6,307.6 
	83.6,307.6 83.6,307.6 83.6,307.6 77.2,328.8 98.8,335.2 98.8,335.2 98.8,335.2 98.8,335.2 92.4,356.4 114,362.8 114,362.8 
	114,362.8 114,362.8 108,384 129.2,390.4 129.6,390 394.8,242.8 395.2,242.8 401.2,221.6 379.6,215.2 379.6,215.2 386,194 
	364.4,187.6 364.4,187.6 370.4,166.4 349.2,160 349.2,160 355.2,138.8 334,132.4 334,132.4 "/>
<path style="fill:#CED5E0;" d="M374,238.4l-237.2,132L58.4,229.2L296,97.6L374,238.4z M138.4,363.6l229.2-127.2L294,104L64.8,230.8
	L138.4,363.6z"/>
<path style="fill:#F1543F;" d="M131.2,255.6c1.6,0.8,2,3.2,1.2,4.8c-2,2.8-4.4,5.2-7.2,6.8c-10,5.6-22.4,2-27.6-8
	c-5.6-10-2-22.4,8-27.6c2.8-1.6,6.4-2.4,9.6-2.4c2,0,3.6,1.6,3.6,3.2c0,2-1.6,3.6-3.2,3.6c-2.4,0-4.4,0.8-6.4,1.6
	c-6.4,3.6-8.8,12-5.2,18.4c3.6,6.4,12,8.8,18.4,5.2c2-1.2,3.6-2.8,4.8-4.4C127.6,254.8,129.6,254.4,131.2,255.6z"/>
<path style="fill:#FF7058;" d="M147.6,250.4l-16.4-29.6c-0.8-1.6-0.4-3.6,1.2-4.4c1.6-0.8,3.6-0.4,4.4,1.2l16.4,29.6
	c0.8,1.6,0.4,3.6-1.2,4.4C150.4,252.8,148.4,252.4,147.6,250.4z"/>
<g>
	<path style="fill:#F1543F;" d="M189.6,225.2c0.4,0.4,1.2,0.8,1.2,1.2c0.4,0.8,0.4,2.4,0,3.2c-0.4,0.4-0.8,1.2-1.2,1.2
		c-1.2,0.4-2.4,0.4-3.2,0L174,224l-4.8,2.8l4.8,8.8c0.8,1.6,0.4,3.6-1.2,4.8c-1.6,0.8-3.6,0.4-4.4-1.2L152,209.6
		c-0.8-1.6-0.4-3.6,1.2-4.4l8-4.4c0.4,0,3.2-1.6,6.4-1.6c5.2-0.4,9.2,2.4,12,7.2c0,0.4,1.6,3.2,1.6,6.4c0,2.8-0.4,5.2-2,7.2
		L189.6,225.2z M165.6,221.2l5.2-2.8c2.4-1.6,3.6-3.2,3.6-5.6c0-2-0.8-3.6-0.8-3.6c-1.6-2.4-3.2-3.6-5.6-3.6c-2,0-3.6,0.8-3.6,0.8
		l-5.2,2.8L165.6,221.2z"/>
	<path style="fill:#F1543F;" d="M230.8,200.4c1.6,0.8,2,3.2,1.2,4.8c-2,2.8-4.4,5.2-7.2,6.8c-10,5.6-22.4,2-27.6-8
		c-5.6-10-2-22.4,8-27.6c2.8-1.6,6.4-2.4,9.6-2.4c2,0,3.6,1.6,3.6,3.2c0,2-1.6,3.6-3.2,3.6c-2.4,0-4.4,0.8-6.4,1.6
		c-6.4,3.6-8.8,12-5.2,18.4s12,8.8,18.4,5.2c2-1.2,3.6-2.8,4.8-4.4C227.2,199.6,229.2,199.2,230.8,200.4z"/>
	<path style="fill:#F1543F;" d="M246.4,190.4c-3.2-2.4-4.8-5.2-5.2-5.6l-10.8-19.2c-0.8-1.6-0.4-3.6,1.2-4.4
		c1.6-0.8,3.6-0.4,4.4,1.2l10.8,19.2c0.4,0.8,4.8,7.2,10.8,3.6c5.6-3.2,3.2-10,2.4-11.2l-10-19.2c-0.8-1.6-0.4-3.6,1.2-4.4
		c1.6-0.8,3.6-0.4,4.4,1.2l10.8,19.2c0,0.4,2,3.2,2,7.2c0.4,5.6-2.4,10.4-7.2,13.2C256.4,194,251.2,194,246.4,190.4z"/>
	<path style="fill:#F1543F;" d="M304,152l0.4,0.4c1.6,2.8,2,6.4,1.2,9.6c-0.8,3.6-3.2,6.4-6.8,8.4l-0.4,0.4c-4.4,2.4-9.6,2-13.6-0.8
		c-0.4-0.4-0.8-0.8-0.8-1.2c-0.8-1.2-0.8-2.4,0.4-3.6c0.4-0.4,0.8-0.8,1.2-0.8c1.2-0.8,2.4-0.8,3.6,0.4c1.6,1.2,4,1.6,6.4,0.4h0.4
		c1.6-0.8,2.8-2.4,3.6-4c0.4-1.6,0.4-3.2-0.4-4.4v-0.4c-1.6-2.4-7.2-2-9.2-1.2h-0.4c-6.4,1.2-10.8-0.8-13.2-5.2l-0.4-0.4
		c-1.2-2.8-1.6-5.6,0-8.4c1.2-2.4,3.2-4.8,5.6-6l0.4-0.4c2-1.2,4.8-1.6,7.2-1.2c1.2,0,2,0.8,2.4,1.6s0.4,1.2,0.4,2
		c0,1.2-0.8,2-1.6,2.4c-0.8,0.4-1.2,0.4-2,0.4c-1.2,0-2.4,0-3.2,0.4h-0.4c-2.4,1.2-3.6,3.6-2.8,5.6v0.4c1.2,2.4,4,2.4,6.4,2
		C289.6,147.2,300,145.2,304,152z"/>
</g>
<g>
	<polygon style="fill:#FFD05B;" points="159.2,271.6 175.2,282.8 193.2,275.6 188,294.4 200,309.2 180.4,310 170,326 163.6,307.6 
		144.8,302.8 160.4,290.8 	"/>
	<polygon style="fill:#FFD05B;" points="218.8,238.4 234.8,249.6 252.8,242.8 247.2,261.2 259.6,276.4 240,276.8 229.6,292.8 
		223.2,274.8 204.4,269.6 220,258 	"/>
	<polygon style="fill:#FFD05B;" points="278.4,205.6 294.4,216.4 312.4,209.6 306.8,228.4 319.2,243.2 299.6,243.6 289.2,260 
		282.8,241.6 264,236.4 279.6,224.8 	"/>
</g>
<polygon style="fill:#FFFFFF;" points="450.8,256 435.2,240 435.2,240 450.8,224.4 435.2,208.8 435.2,208.8 131.2,208.8 
	131.2,208.8 131.2,208.8 115.6,224.4 131.2,240 131.2,240 131.2,240 131.2,240 115.6,256 131.2,271.6 131.2,271.6 131.2,271.6 
	131.2,271.6 115.6,287.6 131.2,303.2 131.2,303.2 131.2,303.2 131.2,303.2 115.6,319.2 131.2,334.8 131.2,334.8 131.2,334.8 
	131.2,334.8 115.6,350.8 131.2,366.4 131.2,366.4 131.2,366.4 131.2,366.4 115.6,382 131.2,398 131.6,397.6 434.8,397.6 435.2,398 
	450.8,382 435.2,366.4 435.2,366.4 450.8,350.8 435.2,334.8 435.2,334.8 450.8,319.2 435.2,303.2 435.2,303.2 450.8,287.6 
	435.2,271.6 435.2,271.6 "/>
<path style="fill:#CED5E0;" d="M419.2,384H147.6V222.4h271.6V384z M152.4,379.2h262v-152h-262V379.2z"/>
<g>
	<polygon style="fill:#FFD05B;" points="215.2,308.8 223.6,326 242.8,328.8 229.2,342.4 232.4,361.6 215.2,352.4 198,361.6 
		201.2,342.4 187.6,328.8 206.4,326 	"/>
	<polygon style="fill:#FFD05B;" points="283.2,308.8 292,326 310.8,328.8 297.2,342.4 300.4,361.6 283.2,352.4 266,361.6 
		269.6,342.4 255.6,328.8 274.8,326 	"/>
	<polygon style="fill:#FFD05B;" points="351.2,308.8 360,326 379.2,328.8 365.2,342.4 368.4,361.6 351.2,352.4 334.4,361.6 
		337.6,342.4 323.6,328.8 342.8,326 	"/>
</g>
<g>
	<path style="fill:#FF7058;" d="M388.4,263.6c-2.4,0-4.4-2-4.4-4.4s2-4.4,4.4-4.4c1.2,0,2.4,0.4,3.2,1.2c1.6,1.6,4,1.6,5.6,0
		s1.6-4,0-5.6c-2.4-2.4-5.6-4-8.8-4c-6.8,0-12,5.6-12,12c0,6.8,5.6,12,12,12c2.4,0,4.4,2,4.4,4.4s-2,4.4-4.4,4.4
		c-1.2,0-2.4-0.4-3.2-1.2c-1.6-1.6-4-1.6-5.6,0s-1.6,4,0,5.6c2.4,2.4,5.6,4,8.8,4c6.8,0,12-5.6,12-12S394.8,263.6,388.4,263.6z"/>
	<path style="fill:#FF7058;" d="M260.4,270c4-2,6.4-6,6.4-10.8c0-6.8-5.6-12-12-12h-8c-2,0-4,1.6-4,4v33.2c0,2,1.6,4,4,4
		c2,0,4-1.6,4-4v-12.8h2l7.2,14c0.8,1.2,2,2,3.6,2c0.4,0,1.2,0,1.6-0.4c2-0.8,2.8-3.2,1.6-5.2L260.4,270z M250.8,254.8h4.4
		c2.4,0,4.4,2,4.4,4.4s-2,4.4-4.4,4.4h-4.4L250.8,254.8L250.8,254.8z"/>
	<path style="fill:#FF7058;" d="M196,276c-2.4,2.8-5.6,4-9.2,4c-6.8,0-12.8-5.6-12.8-12.8s5.6-12.8,12.8-12.8c4,0,7.6,2,10,5.2
		c1.2,2.4,3.6,2.4,5.2,1.2s2-3.6,0.8-5.2c-4-5.2-10-8.4-16.4-8.4c-11.2,0-20.4,9.2-20.4,20.4s9.2,20.4,20.4,20.4
		c5.6,0,11.2-2.4,14.8-6.4c1.6-1.6,1.2-4-0.4-5.6C199.6,274.4,197.2,274.8,196,276z"/>
	<path style="fill:#FF7058;" d="M310.4,276c-2.4,2.8-5.6,4-9.2,4c-6.8,0-12.8-5.6-12.8-12.8s5.6-12.8,12.8-12.8c4,0,7.6,2,10,5.2
		c1.2,1.6,3.6,2,5.2,0.8s2-3.6,0.8-5.2c-4-5.2-10-8.4-16.4-8.4c-11.2,0-20.4,9.2-20.4,20.4s9.2,20.4,20.4,20.4
		c5.6,0,11.2-2.4,14.8-6.4c1.6-1.6,1.2-4-0.4-5.6C314.4,274.4,312,274.8,310.4,276z"/>
	<path style="fill:#FF7058;" d="M358,247.2c-2,0-4,1.6-4,4V274c0,3.6-2.8,6.4-6.4,6.4s-6.4-2.8-6.4-6.4v-22.8c0-2-1.6-4-4-4
		s-4,1.6-4,4V274c0,7.6,6.4,14,14,14s14-6.4,14-14v-22.8C361.6,248.8,360,247.2,358,247.2z"/>
	<path style="fill:#FF7058;" d="M222,247.2c-2,0-4,1.6-4,4v33.2c0,2,1.6,4,4,4s4-1.6,4-4v-33.2C225.6,248.8,224,247.2,222,247.2z"/>
</g>
<g>
</g>
<g>
</g>
<g>
</g>
<g>
</g>
<g>
</g>
<g>
</g>
<g>
</g>
<g>
</g>
<g>
</g>
<g>
</g>
<g>
</g>
<g>
</g>
<g>
</g>
<g>
</g>
<g>
</g>
</svg>
