<?xml version="1.0" encoding="iso-8859-1"?>
<!-- Generator: Adobe Illustrator 19.0.0, SVG Export Plug-In . SVG Version: 6.00 Build 0)  -->
<svg version="1.1" id="Layer_1" xmlns="http://www.w3.org/2000/svg" xmlns:xlink="http://www.w3.org/1999/xlink" x="0px" y="0px"
	 viewBox="0 0 508 508" style="enable-background:new 0 0 508 508;" xml:space="preserve">
<circle style="fill:#90DFAA;" cx="254" cy="254" r="254"/>
<path style="fill:#2C9984;" d="M50,405.6C96.4,468,170.4,508,254,508s157.6-40.4,204-102.4H50z"/>
<rect x="98" y="151.6" style="fill:#FF7058;" width="312.4" height="195.2"/>
<rect x="214.4" y="211.6" style="fill:#F1543F;" width="79.2" height="135.2"/>
<g>
	<rect x="120" y="211.6" style="fill:#FFFFFF;" width="33.2" height="83.2"/>
	<rect x="160.4" y="211.6" style="fill:#FFFFFF;" width="33.2" height="83.2"/>
	<rect x="314" y="211.6" style="fill:#FFFFFF;" width="33.2" height="83.2"/>
	<rect x="354.4" y="211.6" style="fill:#FFFFFF;" width="33.2" height="83.2"/>
</g>
<path style="fill:#FFD05B;" d="M410.8,175.6H97.2c-11.2,0-20.4-9.2-20.4-20.4V142c0-11.2,9.2-20.4,20.4-20.4h313.2
	c11.2,0,20.4,9.2,20.4,20.4v13.2C431.2,166.4,422,175.6,410.8,175.6z"/>
<path style="fill:#324A5E;" d="M384,288.8c-32,0-57.6,26-57.6,57.6c0,32,26,57.6,57.6,57.6c32,0,57.6-26,57.6-57.6
	S416,288.8,384,288.8z M386.4,335.2v-36.8c4.8,0.4,9.6,1.2,14,2.8L386.4,335.2z M404.8,302.8c4.4,2,8.4,4.8,12,8l-26,26L404.8,302.8
	z M381.6,335.2l-14-34c4.4-1.6,9.2-2.4,14-2.8V335.2z M377.6,336.8l-26-26c3.6-3.2,7.6-6,12-8L377.6,336.8z M372.4,348.8l-34,14
	c-1.6-4.4-2.4-9.2-2.8-14H372.4z M335.6,344.4c0.4-4.8,1.2-9.6,2.8-14l34,14H335.6z M381.6,358.4v36.8c-4.8-0.4-9.6-1.2-14-2.8
	L381.6,358.4z M363.2,390.4c-4.4-2-8.4-4.8-12-8l26-26L363.2,390.4z M386.4,358.4l14,34c-4.4,1.6-9.2,2.4-14,2.8V358.4z
	 M390.4,356.4l26,26c-3.6,3.2-7.6,6-12,8L390.4,356.4z M395.6,344.4l34-14c1.6,4.4,2.4,9.2,2.8,14H395.6z M432.4,348.8
	c-0.4,4.8-1.2,9.6-2.8,14l-34-14H432.4z M428,326l-34,14l26-26C423.2,317.6,425.6,321.6,428,326z M348,314l26,26l-34-14
	C342,321.6,344.8,317.6,348,314z M340,367.2l34-14l-26,26C344.8,375.6,342,371.6,340,367.2z M420,379.2l-26-26l34,14
	C425.6,371.6,423.2,375.6,420,379.2z"/>
<circle style="fill:#FFD05B;" cx="384" cy="346.8" r="17.2"/>
<path style="fill:#324A5E;" d="M124,288.8c-32,0-57.6,26-57.6,57.6c0,32,26,57.6,57.6,57.6c32,0,57.6-26,57.6-57.6
	S156,288.8,124,288.8z M126.4,335.2v-36.8c4.8,0.4,9.6,1.2,14,2.8L126.4,335.2z M144.8,302.8c4.4,2,8.4,4.8,12,8l-26,26L144.8,302.8
	z M121.6,335.2l-14-34c4.4-1.6,9.2-2.4,14-2.8V335.2z M117.6,336.8l-26-26c3.6-3.2,7.6-6,12-8L117.6,336.8z M112.4,348.8l-34,14
	c-1.6-4.4-2.4-9.2-2.8-14H112.4z M75.6,344.4c0.4-4.8,1.2-9.6,2.8-14l34,14H75.6z M121.6,358.4v36.8c-4.8-0.4-9.6-1.2-14-2.8
	L121.6,358.4z M103.2,390.4c-4.4-2-8.4-4.8-12-8l26-26L103.2,390.4z M126.4,358.4l14,34c-4.4,1.6-9.2,2.4-14,2.8V358.4z
	 M130.4,356.4l26,26c-3.6,3.2-7.6,6-12,8L130.4,356.4z M135.6,344.4l34-14c1.6,4.4,2.4,9.2,2.8,14H135.6z M172.4,348.8
	c-0.4,4.8-1.2,9.6-2.8,14l-34-14H172.4z M168,326l-34,14l26-26C163.2,317.6,166,321.6,168,326z M88,314l26,26l-34-14
	C82.4,321.6,84.8,317.6,88,314z M80,367.2l34-14l-26,26C84.8,375.6,82.4,371.6,80,367.2z M160,379.2l-26-26l34,14
	C166,371.6,163.2,375.6,160,379.2z"/>
<circle style="fill:#FFD05B;" cx="124" cy="346.8" r="17.2"/>
<g>
	<polygon style="fill:#F9B54C;" points="111.2,131.6 116.8,142.8 128.8,144.4 120,152.8 122,165.2 111.2,159.2 100.4,165.2 
		102.4,152.8 93.6,144.4 105.6,142.8 	"/>
	<polygon style="fill:#F9B54C;" points="390.4,131.6 396,142.8 408,144.4 399.2,152.8 401.2,165.2 390.4,159.2 379.6,165.2 
		381.6,152.8 372.8,144.4 385.2,142.8 	"/>
</g>
<g>
	<path style="fill:#FFFFFF;" d="M339.2,145.2c-2,0-3.6-1.6-3.6-3.6s1.6-3.6,3.6-3.6c0.8,0,2,0.4,2.8,1.2c1.2,1.2,3.2,1.2,4.4,0
		c1.2-1.2,1.2-3.2,0-4.4c-2-2-4.4-3.2-7.2-3.2c-5.6,0-10,4.4-10,10s4.4,10,10,10c2,0,3.6,1.6,3.6,3.6s-1.6,3.6-3.6,3.6
		c-0.8,0-2-0.4-2.8-1.2c-1.2-1.2-3.2-1.2-4.4,0c-1.2,1.2-1.2,3.2,0,4.4c2,2,4.4,3.2,7.2,3.2c5.6,0,10-4.4,10-10
		C349.2,149.6,344.8,145.2,339.2,145.2z"/>
	<path style="fill:#FFFFFF;" d="M235.6,150.4c3.2-1.6,5.2-4.8,5.2-8.8c0-5.6-4.4-10-10-10h-6.4c-1.6,0-3.2,1.6-3.2,3.2V162
		c0,1.6,1.6,3.2,3.2,3.2c1.6,0,3.2-1.6,3.2-3.2v-10.4h1.6l5.6,11.6c0.4,1.2,1.6,1.6,2.8,1.6c0.4,0,0.8,0,1.6-0.4
		c1.6-0.8,2-2.8,1.2-4.4L235.6,150.4z M227.6,138h3.6c2,0,3.6,1.6,3.6,3.6s-1.6,3.6-3.6,3.6h-3.6V138z"/>
	<path style="fill:#FFFFFF;" d="M182.8,155.2c-2,2-4.8,3.2-7.6,3.2c-5.6,0-10.4-4.8-10.4-10.4c0-5.6,4.8-10.4,10.4-10.4
		c3.2,0,6.4,1.6,8.4,4.4c1.2,1.6,2.8,1.6,4.4,0.8c1.2-1.2,1.6-3.2,0.8-4.4c-3.2-4.4-8-6.8-13.2-6.8c-9.2,0-16.4,7.6-16.4,16.8
		s7.6,16.8,16.4,16.8c4.8,0,9.2-2,12-5.2c1.2-1.2,1.2-3.2,0-4.4C186,154,184,154,182.8,155.2z"/>
	<path style="fill:#FFFFFF;" d="M276,155.2c-2,2-4.8,3.2-7.6,3.2c-5.6,0-10.4-4.8-10.4-10.4c0-5.6,4.8-10.4,10.4-10.4
		c3.2,0,6.4,1.6,8.4,4.4c1.2,1.6,2.8,1.6,4.4,0.8c1.2-1.2,1.6-3.2,0.8-4.4c-3.2-4.4-8-6.8-13.2-6.8c-9.2,0-16.4,7.6-16.4,16.8
		s7.6,16.8,16.4,16.8c4.8,0,9.2-2,12-5.2c1.2-1.2,1.2-3.2,0-4.4C279.2,154,277.2,154,276,155.2z"/>
	<path style="fill:#FFFFFF;" d="M314.8,131.6c-1.6,0-3.2,1.6-3.2,3.2v18.8c0,2.8-2.4,5.2-5.2,5.2s-5.2-2.4-5.2-5.2v-18.8
		c0-1.6-1.6-3.2-3.2-3.2s-3.2,1.6-3.2,3.2v18.8c0,6.4,5.2,11.6,11.6,11.6S318,160,318,153.6v-18.8
		C318,133.2,316.4,131.6,314.8,131.6z"/>
	<path style="fill:#FFFFFF;" d="M204,131.6c-1.6,0-3.2,1.6-3.2,3.2V162c0,1.6,1.6,3.2,3.2,3.2c1.6,0,3.2-1.6,3.2-3.2v-27.2
		C207.2,133.2,206,131.6,204,131.6z"/>
</g>
<g>
</g>
<g>
</g>
<g>
</g>
<g>
</g>
<g>
</g>
<g>
</g>
<g>
</g>
<g>
</g>
<g>
</g>
<g>
</g>
<g>
</g>
<g>
</g>
<g>
</g>
<g>
</g>
<g>
</g>
</svg>
