<?xml version="1.0" encoding="iso-8859-1"?>
<!-- Generator: Adobe Illustrator 19.0.0, SVG Export Plug-In . SVG Version: 6.00 Build 0)  -->
<svg version="1.1" id="Layer_1" xmlns="http://www.w3.org/2000/svg" xmlns:xlink="http://www.w3.org/1999/xlink" x="0px" y="0px"
	 viewBox="0 0 504 504" style="enable-background:new 0 0 504 504;" xml:space="preserve">
<circle style="fill:#FD8469;" cx="252" cy="252" r="252"/>
<rect x="130.8" y="94.4" style="fill:#84DBFF;" width="48" height="315.2"/>
<rect x="194.4" y="94.4" style="fill:#FFD05B;" width="204" height="315.2"/>
<rect x="178.8" y="94.4" style="fill:#54C0EB;" width="15.6" height="315.2"/>
<g>
	<path style="fill:#324A5E;" d="M142,118h-22c-8,0-14.4,6.4-14.4,14.4s6.4,14.4,14.4,14.4h22c8,0,14.4-6.4,14.4-14.4
		S150,118,142,118z"/>
	<path style="fill:#324A5E;" d="M142,178h-22c-8,0-14.4,6.4-14.4,14.4s6.4,14.4,14.4,14.4h22c8,0,14.4-6.4,14.4-14.4
		S150,178,142,178z"/>
	<path style="fill:#324A5E;" d="M142,237.6h-22c-8,0-14.4,6.4-14.4,14.4s6.4,14.4,14.4,14.4h22c8,0,14.4-6.4,14.4-14.4
		S150,237.6,142,237.6z"/>
	<path style="fill:#324A5E;" d="M142,297.2h-22c-8,0-14.4,6.4-14.4,14.4S112,326,120,326h22c8,0,14.4-6.4,14.4-14.4
		S150,297.2,142,297.2z"/>
	<path style="fill:#324A5E;" d="M142,356.8h-22c-8,0-14.4,6.4-14.4,14.4s6.4,14.4,14.4,14.4h22c8,0,14.4-6.4,14.4-14.4
		C156.4,363.6,150,356.8,142,356.8z"/>
</g>
<path style="fill:#F1543F;" d="M296.4,188c14.8-18.4,35.2-22.4,50-16.8c35.6,13.6,44,64.8,13.6,97.2c-63.6,66.4-63.6,66.4-63.6,66.4
	s0,0-63.2-66.4c-30.8-32.4-22.4-83.6,13.6-97.2C261.6,166,281.6,170,296.4,188z"/>
<g>
</g>
<g>
</g>
<g>
</g>
<g>
</g>
<g>
</g>
<g>
</g>
<g>
</g>
<g>
</g>
<g>
</g>
<g>
</g>
<g>
</g>
<g>
</g>
<g>
</g>
<g>
</g>
<g>
</g>
</svg>
