<?xml version="1.0" encoding="iso-8859-1"?>
<!-- Generator: Adobe Illustrator 19.0.0, SVG Export Plug-In . SVG Version: 6.00 Build 0)  -->
<svg version="1.1" id="Layer_1" xmlns="http://www.w3.org/2000/svg" xmlns:xlink="http://www.w3.org/1999/xlink" x="0px" y="0px"
	 viewBox="0 0 504 504" style="enable-background:new 0 0 504 504;" xml:space="preserve">
<circle style="fill:#84DBFF;" cx="252" cy="252" r="252"/>
<path style="fill:#E6E9EE;" d="M202.8,350.8c0-2.8,1.2-5.6,3.2-7.2c8.8-8.8,8.8-22.8,0-31.6c-2-2-3.2-4.8-3.2-7.2
	c0-2.8,1.2-5.6,3.2-7.2l-8.4-8.4c-6,6-8,14.8-5.2,23.2c1.2,3.2,3.2,6,5.6,8.8c1.6,2,2.8,4.4,2.8,6.8c0,2.8-1.2,5.6-3.2,7.2
	c-6,6-8,14.4-5.2,22.8c1.2,3.6,3.6,6.4,6,8.8c3.6,4,3.6,10,0,14c-2.4,2.8-4.8,5.6-6,8.8c-2,5.6-1.6,11.6,0.8,16.4
	c1.6,3.6,6.8,4.4,9.6,1.6c1.6-1.6,2.4-4.4,1.2-6.4c-0.8-1.2-0.8-2.8-0.8-4.4c0-2.8,1.2-5.6,3.2-7.2c8.8-8.8,8.8-22.8,0-31.6
	C203.6,356,202.8,353.6,202.8,350.8z"/>
<path style="fill:#324A5E;" d="M260.4,97.2c-18.8-6.8-44-2-62.8,20c-18.4-21.6-44-26.4-62.8-20C90,113.2,79.2,174,118,212.4
	c33.2,33.2,52.4,52.4,63.6,63.2L171.2,288c-3.2,4-0.4,10,4.4,10h42.8c5.2,0,8-6,4.4-10l-9.2-12c11.2-11.2,30.4-30.4,63.6-63.2
	C316,174.4,305.2,113.2,260.4,97.2z"/>
<path style="fill:#2B3B4E;" d="M140.4,190c-3.2,3.2-8.8,2.8-11.6-0.8c-9.2-12.4-13.2-27.6-10-42c1.6-6.4,5.2-16.8,15.2-23.6
	c4-2.8,9.6-0.8,11.2,3.6l0.4,0.8c1.2,3.2,0,6.8-2.8,8.8c-5.6,3.6-7.6,9.6-8.8,14c-2,9.6,0.4,20,6.8,28.8c2.4,3.2,2,7.2-0.4,10
	L140.4,190z"/>
<path style="fill:#324A5E;" d="M322.8,357.6c0-2.4,0.8-4.8,2.8-6.4c7.6-7.6,7.6-20,0-27.6c-1.6-1.6-2.8-4-2.8-6.4s0.8-4.8,2.8-6.4
	l-7.2-7.2c-5.2,5.2-7.2,12.8-4.8,20.4c0.8,2.8,2.8,5.2,5.2,7.6c1.6,1.6,2.4,4,2.4,6c0,2.4-0.8,4.8-2.8,6.4
	c-5.2,5.2-7.2,12.8-4.8,20.4c0.8,3.2,3.2,5.6,5.2,8c3.2,3.6,3.2,8.8,0,12.4c-2,2.4-4,4.8-5.2,8c-1.6,5.2-1.2,10,0.8,14.4
	c1.6,3.2,6,4,8.4,1.6c1.6-1.6,2-3.6,1.2-5.6c-0.4-1.2-0.8-2.4-0.8-4c0-2.4,0.8-4.8,2.8-6.4c7.6-7.6,7.6-20,0-27.6
	C323.6,362.4,322.8,360,322.8,357.6z"/>
<path style="fill:#FF7058;" d="M373.6,133.6c-16.4-6-38.8-1.6-55.2,17.6c-16.4-19.2-38.8-23.6-55.2-17.6c-39.6,14-49.2,68-14.8,102
	c29.2,29.2,46.4,46,56.4,56l-9.2,10.8c-2.8,3.6-0.4,8.8,4,8.8h38c4.4,0,6.8-5.2,4-8.8l-9.2-10.8c10-10,27.2-26.8,56.4-56
	C422.8,201.6,413.2,148,373.6,133.6z"/>
<path style="fill:#F1543F;" d="M267.6,215.6c-2.8,2.8-7.6,2.4-10-0.8c-8.4-11.2-11.6-24.4-8.8-37.2c1.2-5.6,4.8-14.8,13.6-20.8
	c3.6-2.4,8.4-0.8,10,3.2l0.4,0.4c1.2,2.8,0,6-2.4,7.6c-4.8,3.2-6.8,8.4-7.6,12.4c-2,8.4,0.4,17.6,6,25.6c2,2.8,2,6.4-0.4,8.8
	L267.6,215.6z"/>
<g>
</g>
<g>
</g>
<g>
</g>
<g>
</g>
<g>
</g>
<g>
</g>
<g>
</g>
<g>
</g>
<g>
</g>
<g>
</g>
<g>
</g>
<g>
</g>
<g>
</g>
<g>
</g>
<g>
</g>
</svg>
