<?xml version="1.0" encoding="iso-8859-1"?>
<!-- Generator: Adobe Illustrator 19.0.0, SVG Export Plug-In . SVG Version: 6.00 Build 0)  -->
<svg version="1.1" id="Layer_1" xmlns="http://www.w3.org/2000/svg" xmlns:xlink="http://www.w3.org/1999/xlink" x="0px" y="0px"
	 viewBox="0 0 504 504" style="enable-background:new 0 0 504 504;" xml:space="preserve">
<circle style="fill:#FFD05B;" cx="252" cy="252" r="252"/>
<path style="fill:#F1543F;" d="M370.8,192.4c2.8-33.6-14.4-65.6-46.8-77.6c-21.6-8-50.8-2-72.4,23.2c-21.6-25.2-50.8-31.2-72.4-23.2
	c-32.4,11.6-49.2,44-46.8,77.6H370.8z"/>
<polygon style="fill:#E6E9EE;" points="409.6,322 94.4,322 133.2,192.4 370.8,192.4 "/>
<rect x="94.4" y="322" style="fill:#324A5E;" width="315.2" height="57.2"/>
<g>
	<rect x="94.4" y="379.2" style="fill:#2B3B4E;" width="22.4" height="30"/>
	<rect x="386.8" y="379.2" style="fill:#2B3B4E;" width="22.4" height="30"/>
</g>
<path style="fill:#FF7058;" d="M252,218.8c11.6-10.8,28-13.2,39.6-10c28.4,8,35.2,38.8,10.8,58c-50.4,40-50.4,40-50.4,40
	s0,0-50.4-40c-24.4-19.2-17.6-50,10.8-58C224,205.6,240.4,208,252,218.8z"/>
<g>
</g>
<g>
</g>
<g>
</g>
<g>
</g>
<g>
</g>
<g>
</g>
<g>
</g>
<g>
</g>
<g>
</g>
<g>
</g>
<g>
</g>
<g>
</g>
<g>
</g>
<g>
</g>
<g>
</g>
</svg>
