<?xml version="1.0" encoding="iso-8859-1"?>
<!-- Generator: Adobe Illustrator 19.0.0, SVG Export Plug-In . SVG Version: 6.00 Build 0)  -->
<svg version="1.1" id="Layer_1" xmlns="http://www.w3.org/2000/svg" xmlns:xlink="http://www.w3.org/1999/xlink" x="0px" y="0px"
	 viewBox="0 0 504 504" style="enable-background:new 0 0 504 504;" xml:space="preserve">
<circle style="fill:#324A5E;" cx="252" cy="252" r="252"/>
<path id="SVGCleanerId_0" style="fill:#FFD05B;" d="M377.6,216c0,15.6-13.2,28.4-29.6,28.4s-29.6-12.8-29.6-28.4
	s29.6-70.4,29.6-54.8C348,183.6,377.6,200.4,377.6,216z"/>
<path style="fill:#FFD05B;" d="M204.4,168.4c0,19.6-16.8,35.6-37.2,35.6S130,188,130,168.4s37.2-88.4,37.2-68.8
	C167.2,127.6,204.4,148.8,204.4,168.4z"/>
<rect x="160.4" y="180" style="fill:#E6E9EE;" width="14" height="24"/>
<path style="fill:#84DBFF;" d="M222,393.6H112.4V212.8c0-4.8,4-8.8,8.8-8.8h91.6c4.8,0,8.8,4,8.8,8.8v180.8H222z"/>
<path style="fill:#F9B54C;" d="M186.4,185.6c0,10-8.4,18.4-19.2,18.4c-10.4,0-19.2-8-19.2-18.4c0-10,19.2-45.6,19.2-35.6
	C167.2,164.8,186.4,175.6,186.4,185.6z"/>
<rect x="342.4" y="224" style="fill:#E6E9EE;" width="11.2" height="19.2"/>
<path style="fill:#4CDBC4;" d="M391.6,393.6h-86.8V252c0-4.8,4-8.8,8.8-8.8h69.2c4.8,0,8.8,4,8.8,8.8L391.6,393.6L391.6,393.6z"/>
<path style="fill:#F1543F;" d="M257.6,256c14-17.2,33.2-20.8,47.2-15.6c34,12.8,42,60.8,12.8,91.2c-60,62.4-60,62.4-60,62.4
	s0,0-60-62.4c-29.2-30.4-21.2-78.4,12.8-91.2C224.4,234.8,243.6,238.8,257.6,256z"/>
<g>
	<path id="SVGCleanerId_0_1_" style="fill:#FFD05B;" d="M377.6,216c0,15.6-13.2,28.4-29.6,28.4s-29.6-12.8-29.6-28.4
		s29.6-70.4,29.6-54.8C348,183.6,377.6,200.4,377.6,216z"/>
</g>
<path style="fill:#F9B54C;" d="M364.8,228c0,8.8-7.6,16.4-16.8,16.4c-9.2,0-16.8-7.2-16.8-16.4s16.8-40.4,16.8-31.2
	C348,209.6,364.8,219.2,364.8,228z"/>
<g>
</g>
<g>
</g>
<g>
</g>
<g>
</g>
<g>
</g>
<g>
</g>
<g>
</g>
<g>
</g>
<g>
</g>
<g>
</g>
<g>
</g>
<g>
</g>
<g>
</g>
<g>
</g>
<g>
</g>
</svg>
