<?xml version="1.0" encoding="iso-8859-1"?>
<!-- Generator: Adobe Illustrator 19.0.0, SVG Export Plug-In . SVG Version: 6.00 Build 0)  -->
<svg version="1.1" id="Layer_1" xmlns="http://www.w3.org/2000/svg" xmlns:xlink="http://www.w3.org/1999/xlink" x="0px" y="0px"
	 viewBox="0 0 504 504" style="enable-background:new 0 0 504 504;" xml:space="preserve">
<circle style="fill:#84DBFF;" cx="252" cy="252" r="252"/>
<path style="fill:#46637F;" d="M252,328c0,0,0,0-121.2-82.4c-24.8-16.8-36-38-36-57.6l0,0v77.2l0,0c-0.4,20,11.2,41.2,36,58
	C252,405.6,252,405.6,252,405.6"/>
<path style="fill:#2B3B4E;" d="M252,405.6c0,0,0,0,121.2-82.4c24.8-16.8,36.4-38,36-58l0,0v-77.6l0,0c0,20-11.2,40.8-36,57.6
	C252,328,252,328,252,328"/>
<g>
	<path style="fill:#324A5E;" d="M248.4,244.8c-5.6,8.8-14,16.8-22,20.8c-4.8,2.4-10.4,3.6-15.6,3.6c-3.6,0-7.6-0.4-11.2-2
		c-8.8-2.8-16-9.2-20.4-17.6c-8.8-17.2-1.6-38.4,15.6-47.2c4.4-2,10-3.6,16.4-4.8l-68.8-68.4c-30.8,11.6-47.6,34.4-48,58.4
		c0,20,11.2,40.8,36,57.6C252,328,252,328,252,328s0,0,53.2-36l-53.6-53.2C250.8,240.4,249.6,242.8,248.4,244.8z"/>
	<path style="fill:#324A5E;" d="M219.6,217.2c-5.6,0-11.6,0.8-16,3.2c-7.6,4-10.8,13.2-6.8,20.8c2,3.6,5.2,6.4,8.8,7.6
		c4,1.2,8,0.8,12-0.8c4-2,10-7.2,14.4-14c3.2-5.2,4.4-9.2,4-11.6l-4-3.2C229.2,217.6,224.4,217.2,219.6,217.2z"/>
	<path style="fill:#324A5E;" d="M409.6,187.6c0-27.6-22.4-52.8-62-62.8c-28.4-6.8-67.2-2-95.6,20.8c-26-20.8-60.4-26.8-87.6-22.4
		l72.4,72.8c0.8-2,2-4,3.2-6c5.6-8.8,14-16.8,22-20.8c8.4-4.4,18-4.8,26.8-2s16,9.2,20.4,17.6c8.8,17.2,1.6,38.4-15.6,47.2
		c-4.4,2-10,4-16.4,4.8l44.4,44.4c14-9.6,31.2-21.2,51.6-35.2C398,228.8,409.6,207.6,409.6,187.6z"/>
	<path style="fill:#324A5E;" d="M291.6,193.2c-2-3.6-5.2-6.4-8.8-7.6c-1.6-0.4-3.2-0.8-4.8-0.8c-2.4,0-4.8,0.4-6.8,1.6
		c-4,2-10,7.2-14.4,14c-3.2,5.2-4.4,9.2-4,11.6l3.6,3.6c6.4,2.8,20,3.2,28.8-1.2C292.4,210.4,295.6,200.8,291.6,193.2z"/>
</g>
<path style="fill:#FFD05B;" d="M293.6,231.6c17.2-8.8,24.4-30,15.6-47.2c-4.4-8.4-11.6-14.8-20.4-17.6s-18.4-2.4-26.8,2
	c-8,4-16.4,12-22,20.8c-1.2,2-2.4,4-3.2,6l-72.4-72c-2.8,0.4-5.2,0.8-8,1.6c-4.8,1.2-9.6,2.8-14,4.4l68.8,68.8
	c-6.4,0.8-12,2.4-16.4,4.8c-17.2,8.8-24.4,30-15.6,47.2c4.4,8.4,11.6,14.8,20.4,17.6c3.6,1.2,7.2,2,11.2,2c5.6,0,10.8-1.2,15.6-3.6
	c8-4,16.4-12,22-20.8c1.2-2,2.4-4,3.2-6l53.6,52.4c5.2-3.6,10.4-7.2,16.4-11.2l-44.4-44.4C283.6,235.6,289.2,234,293.6,231.6z
	 M229.6,234c-3.6,6-8.8,10.4-12.4,12c-3.2,1.6-6.8,2-10.4,0.8c-3.2-1.2-6-3.6-7.6-6.8c-3.2-6.8-0.8-14.8,6-18c4-2,9.2-2.8,14-2.8
	c4.4,0,8,0.8,10.8,1.6l3.2,3.2C233.2,226,232.4,229.6,229.6,234z M258,214l-3.2-3.2c-0.4-2,0.4-5.6,3.6-10.4c4-6,9.2-10.8,12.8-12.4
	c2-0.8,4-1.6,6.4-1.6c1.6,0,2.8,0.4,4.4,0.8c3.6,1.2,6.4,3.6,8,6.8c3.6,6.8,0.8,15.2-6.4,18.8C276,216.8,263.6,216.4,258,214z"/>
<g>
</g>
<g>
</g>
<g>
</g>
<g>
</g>
<g>
</g>
<g>
</g>
<g>
</g>
<g>
</g>
<g>
</g>
<g>
</g>
<g>
</g>
<g>
</g>
<g>
</g>
<g>
</g>
<g>
</g>
</svg>
