<?xml version="1.0" encoding="iso-8859-1"?>
<!-- Generator: Adobe Illustrator 19.0.0, SVG Export Plug-In . SVG Version: 6.00 Build 0)  -->
<svg version="1.1" id="Layer_1" xmlns="http://www.w3.org/2000/svg" xmlns:xlink="http://www.w3.org/1999/xlink" x="0px" y="0px"
	 viewBox="0 0 504 504" style="enable-background:new 0 0 504 504;" xml:space="preserve">
<circle style="fill:#90DFAA;" cx="252" cy="252" r="252"/>
<rect x="134.4" y="120.4" style="fill:#324A5E;" width="207.2" height="240.8"/>
<path style="fill:#2B3B4E;" d="M385.2,326h-43.6v-26h42V166.8h-42v-26h43.6c13.2,0,24,10.8,24,24v136.8
	C409.6,315.2,398.8,326,385.2,326z"/>
<path style="fill:#E6E9EE;" d="M238,199.6c12.4-15.2,29.6-18.4,42.4-14c30.4,11.2,37.6,54,11.6,80.8c-54,55.2-54,55.2-54,55.2
	s0,0-53.6-55.2c-26-26.8-18.8-69.6,11.6-80.8C208.4,180.8,225.6,184.4,238,199.6z"/>
<path style="fill:#FF7058;" d="M94.4,361.2c10,22,28.8,35.6,49.2,35.6h26.8v18.4H306v-18.4h26.8c20.4,0,39.2-13.6,49.2-35.6H94.4z"
	/>
<g>
</g>
<g>
</g>
<g>
</g>
<g>
</g>
<g>
</g>
<g>
</g>
<g>
</g>
<g>
</g>
<g>
</g>
<g>
</g>
<g>
</g>
<g>
</g>
<g>
</g>
<g>
</g>
<g>
</g>
</svg>
