<?xml version="1.0" encoding="iso-8859-1"?>
<!-- Generator: Adobe Illustrator 19.0.0, SVG Export Plug-In . SVG Version: 6.00 Build 0)  -->
<svg version="1.1" id="Layer_1" xmlns="http://www.w3.org/2000/svg" xmlns:xlink="http://www.w3.org/1999/xlink" x="0px" y="0px"
	 viewBox="0 0 504 504" style="enable-background:new 0 0 504 504;" xml:space="preserve">
<circle style="fill:#324A5E;" cx="252" cy="252" r="252"/>
<g>
	<polygon style="fill:#ACB3BA;" points="94.4,216.8 252,393.6 146.8,216.8 	"/>
	<polygon style="fill:#ACB3BA;" points="357.2,216.8 252,393.6 409.6,216.8 	"/>
</g>
<g>
	<polygon style="fill:#FFFFFF;" points="146.8,216.8 252,393.6 208.8,216.8 	"/>
	<polygon style="fill:#FFFFFF;" points="295.2,216.8 252,393.6 357.2,216.8 	"/>
</g>
<polygon style="fill:#ACB3BA;" points="208.8,216.8 252,393.6 295.2,216.8 "/>
<g>
	<polygon style="fill:#E6E9EE;" points="251.6,216.8 321.6,216.8 286.8,157.6 	"/>
	<polygon style="fill:#E6E9EE;" points="94.4,216.8 181.6,216.8 147.2,158 	"/>
	<polygon style="fill:#E6E9EE;" points="181.6,216.8 251.6,216.8 216.8,157.6 	"/>
	<polygon style="fill:#E6E9EE;" points="356.8,157.6 321.6,216.8 409.6,216.8 	"/>
</g>
<g>
	<polygon style="fill:#ACB3BA;" points="147.2,157.6 147.2,158 181.6,216.8 216.8,157.6 	"/>
	<polygon style="fill:#ACB3BA;" points="216.8,157.6 251.6,216.8 286.8,157.6 	"/>
	<polygon style="fill:#ACB3BA;" points="286.8,157.6 321.6,216.8 356.8,157.6 	"/>
</g>
<g>
</g>
<g>
</g>
<g>
</g>
<g>
</g>
<g>
</g>
<g>
</g>
<g>
</g>
<g>
</g>
<g>
</g>
<g>
</g>
<g>
</g>
<g>
</g>
<g>
</g>
<g>
</g>
<g>
</g>
</svg>
