<?xml version="1.0" encoding="iso-8859-1"?>
<!-- Generator: Adobe Illustrator 19.0.0, SVG Export Plug-In . SVG Version: 6.00 Build 0)  -->
<svg version="1.1" id="Layer_1" xmlns="http://www.w3.org/2000/svg" xmlns:xlink="http://www.w3.org/1999/xlink" x="0px" y="0px"
	 viewBox="0 0 504 504" style="enable-background:new 0 0 504 504;" xml:space="preserve">
<circle style="fill:#90DFAA;" cx="252" cy="252" r="252"/>
<path style="fill:#46637F;" d="M252,344.8c0,0,0,0-121.2-68.8c-24.8-14-36-31.6-36-48l0,0v64l0,0c-0.4,16.8,11.2,34.4,36,48.4
	C252,409.6,252,409.6,252,409.6"/>
<path style="fill:#2B3B4E;" d="M252,409.6c0,0,0,0,121.2-68.8c24.8-14,36.4-31.6,36-48.4l0,0V228l0,0c0,16.8-11.2,34-36,48
	C252,344.8,252,344.8,252,344.8"/>
<path style="fill:#324A5E;" d="M347.6,175.6c-28.4-6-67.2-1.6-95.6,17.2c-26-17.2-60.4-22.4-87.6-18.4c-2.8,0.4-5.2,0.8-8,1.2
	c-4.8,1.2-9.6,2.4-14,3.6c-30.8,10-47.6,28.4-48,48.8c0,16.8,11.2,34,36,48C252,344.8,252,344.8,252,344.8s0,0,53.2-30
	c5.2-2.8,10.4-6,16.4-9.6c14-8,31.2-17.6,51.6-29.2c24.8-14,36-31.6,36-48C409.2,204.8,387.2,183.6,347.6,175.6z"/>
<ellipse style="fill:#ACB3BA;" cx="252" cy="258.4" rx="78" ry="18.8"/>
<g>
	<polygon style="fill:#FF7058;" points="252,114.4 268.8,114.4 260.4,96 	"/>
	<polygon style="fill:#FF7058;" points="214.4,114.4 235.2,114.4 226.8,96 	"/>
	<polygon style="fill:#FF7058;" points="235.2,114.4 252,114.4 243.6,96 	"/>
	<polygon style="fill:#FF7058;" points="276.8,96 268.8,114.4 289.6,114.4 	"/>
	<polygon style="fill:#FF7058;" points="227.2,96 226.8,96 235.2,114.4 243.6,96 	"/>
	<polygon style="fill:#FF7058;" points="243.6,96 252,114.4 260.4,96 	"/>
	<polygon style="fill:#FF7058;" points="260.4,96 268.8,114.4 276.8,96 	"/>
</g>
<g>
	<polygon style="fill:#F1543F;" points="276.8,114.4 276.8,114 268.8,96 260.4,114.4 	"/>
	<polygon style="fill:#F1543F;" points="260.4,114.4 252,96 243.6,114.4 	"/>
	<polygon style="fill:#F1543F;" points="243.6,114.4 235.2,96 226.8,114.4 	"/>
	<path style="fill:#F1543F;" d="M226.8,114.4h-12.4l14.8,21.6c2.4-0.8,4.4-1.2,6.8-1.6L226.8,114.4z"/>
	<path style="fill:#F1543F;" d="M271.6,134.4c1.2,0.4,2.4,0.8,3.6,0.8l14.4-21.2h-12.4l-9.2,19.6C269.2,134,270.4,134.4,271.6,134.4
		z"/>
</g>
<g>
	<path style="fill:#FF7058;" d="M240,133.2c1.6-0.4,3.6-0.4,5.2-0.8l-3.6-18.4h-14.8l9.2,19.6C237.2,133.6,238.8,133.6,240,133.2z"
		/>
	<path style="fill:#FF7058;" d="M260.8,132.8c2,0.4,3.6,0.4,5.6,0.8c0.8,0,1.2,0,1.6,0.4l8.8-19.6H262l-3.6,18.4
		C259.6,132.4,260,132.4,260.8,132.8z"/>
</g>
<path style="fill:#F1543F;" d="M250.8,132.4h0.8h0.4l0,0c0,0,1.2,0,0.8,0h1.2h2.4h2.4h0.4l3.6-18.4H242l3.6,18.4
	C247.2,132.4,248.8,132.4,250.8,132.4z"/>
<path style="fill:#E6E9EE;" d="M212.8,262c-13.6-10.8-22-27.6-22-46c0-33.2,27.6-60,61.2-60c34,0,61.2,26.8,61.2,60
	c0,18.4-8.4,34.8-22,46h20.4c12.8-13.6,20.4-32,20.4-52c0-43.2-35.6-78-80-78s-80,34.8-80,78c0,20,7.6,38,20.4,52H212.8z"/>
<g>
</g>
<g>
</g>
<g>
</g>
<g>
</g>
<g>
</g>
<g>
</g>
<g>
</g>
<g>
</g>
<g>
</g>
<g>
</g>
<g>
</g>
<g>
</g>
<g>
</g>
<g>
</g>
<g>
</g>
</svg>
