<?xml version="1.0" encoding="iso-8859-1"?>
<!-- Generator: Adobe Illustrator 19.0.0, SVG Export Plug-In . SVG Version: 6.00 Build 0)  -->
<svg version="1.1" id="Layer_1" xmlns="http://www.w3.org/2000/svg" xmlns:xlink="http://www.w3.org/1999/xlink" x="0px" y="0px"
	 viewBox="0 0 504 504" style="enable-background:new 0 0 504 504;" xml:space="preserve">
<circle style="fill:#90DFAA;" cx="252" cy="252" r="252"/>
<path style="fill:#FFFFFF;" d="M252,78.8L252,78.8c-44,0-79.6,35.6-79.6,79.6V194l38.8-24.8c-1.2-6.8-0.8-13.6,1.2-20.8
	c6-19.2,25.2-32.4,45.2-30.4c29.2,2.8,47.2,32,36.4,59.6c-6.8,17.2-24.8,28.4-43.2,26.8c-8.4-0.8-16-3.6-22-8l-56.4,36v168.8
	c0,13.2,10.8,23.6,23.6,23.6h112c13.2,0,23.6-10.8,23.6-23.6V158C331.6,114.4,296,78.8,252,78.8z"/>
<path style="fill:#FF7058;" d="M252,278.8c11.2-13.6,26.4-16.4,37.2-12.4c26.8,10,33.2,48,10,72C252,387.6,252,387.6,252,387.6
	s0,0-47.6-49.2c-23.2-24-16.8-62,10-72C225.6,262,240.8,265.2,252,278.8z"/>
<g>
</g>
<g>
</g>
<g>
</g>
<g>
</g>
<g>
</g>
<g>
</g>
<g>
</g>
<g>
</g>
<g>
</g>
<g>
</g>
<g>
</g>
<g>
</g>
<g>
</g>
<g>
</g>
<g>
</g>
</svg>
