<?xml version="1.0" encoding="iso-8859-1"?>
<!-- Generator: Adobe Illustrator 19.0.0, SVG Export Plug-In . SVG Version: 6.00 Build 0)  -->
<svg version="1.1" id="Layer_1" xmlns="http://www.w3.org/2000/svg" xmlns:xlink="http://www.w3.org/1999/xlink" x="0px" y="0px"
	 viewBox="0 0 504 504" style="enable-background:new 0 0 504 504;" xml:space="preserve">
<circle style="fill:#FD8469;" cx="252" cy="252" r="252"/>
<path style="fill:#F9B54C;" d="M252,348.8c-86.8,0-157.6-21.6-157.6-48.4V352c0,31.6,70.4,57.6,157.6,57.6S409.6,384,409.6,352
	v-51.2C409.6,327.2,338.8,348.8,252,348.8z"/>
<ellipse style="fill:#FFD05B;" cx="252" cy="300.8" rx="157.6" ry="48.4"/>
<ellipse style="fill:#FFFFFF;" cx="252" cy="300.8" rx="78.4" ry="24"/>
<ellipse style="fill:#E6E9EE;" cx="252" cy="173.6" rx="157.6" ry="78.8"/>
<g>
	<polygon style="fill:#FF7058;" points="252,172.4 266.4,172.4 259.2,156.4 	"/>
	<polygon style="fill:#FF7058;" points="219.6,172.4 237.6,172.4 230.4,156.4 	"/>
	<polygon style="fill:#FF7058;" points="237.6,172.4 252,172.4 244.8,156.4 	"/>
	<polygon style="fill:#FF7058;" points="273.6,156.4 266.4,172.4 284.4,172.4 	"/>
	<polygon style="fill:#FF7058;" points="230.4,156.4 230.4,156.4 237.6,172.4 244.8,156.4 	"/>
	<polygon style="fill:#FF7058;" points="244.8,156.4 252,172.4 259.2,156.4 	"/>
	<polygon style="fill:#FF7058;" points="259.2,156.4 266.4,172.4 273.6,156.4 	"/>
</g>
<g>
	<polygon style="fill:#F1543F;" points="273.6,172.4 273.6,172.4 266.4,156.4 259.2,172.4 	"/>
	<polygon style="fill:#F1543F;" points="259.2,172.4 252,156.4 244.8,172.4 	"/>
	<polygon style="fill:#F1543F;" points="244.8,172.4 237.6,156.4 230.4,172.4 	"/>
	<path style="fill:#F1543F;" d="M230.4,172.4h-10.8l12.8,18.4c2-0.4,4-1.2,6-1.6L230.4,172.4z"/>
	<path style="fill:#F1543F;" d="M268.8,190c1.2,0.4,2,0.4,3.2,0.8l12.4-18.4h-10.8l-7.6,16.8C266.8,189.6,268,189.6,268.8,190z"/>
</g>
<g>
	<path style="fill:#FF7058;" d="M241.6,188.8c1.6-0.4,2.8-0.4,4.4-0.4l-2.8-16h-12.8l8,17.2C239.2,189.2,240.4,188.8,241.6,188.8z"
		/>
	<path style="fill:#FF7058;" d="M259.6,188.4c1.6,0.4,3.2,0.4,4.8,0.8c0.4,0,1.2,0,1.6,0.4l7.6-16.8h-12.8L258,188
		C258.4,188,259.2,188,259.6,188.4z"/>
</g>
<path style="fill:#F1543F;" d="M250.8,188h0.4h0.4l0,0c0,0,0.8,0,0.4,0h1.2h2h2h0.4l2.8-15.6h-18l2.8,16
	C247.6,188,249.2,188,250.8,188z"/>
<path style="fill:#324A5E;" d="M218,300.4c-11.6-9.6-19.2-23.6-19.2-39.6c0-28.4,23.6-51.6,53.2-51.6s53.2,22.8,53.2,51.2
	c0,16-7.6,30.4-19.2,39.6h17.6c10.8-12,17.6-27.6,17.6-44.8c0-37.2-30.8-67.2-69.2-67.2s-69.2,30.4-69.2,67.6
	c0,17.2,6.8,32.8,17.6,44.8H218z"/>
<g>
</g>
<g>
</g>
<g>
</g>
<g>
</g>
<g>
</g>
<g>
</g>
<g>
</g>
<g>
</g>
<g>
</g>
<g>
</g>
<g>
</g>
<g>
</g>
<g>
</g>
<g>
</g>
<g>
</g>
</svg>
