<?xml version="1.0" encoding="iso-8859-1"?>
<!-- Generator: Adobe Illustrator 19.0.0, SVG Export Plug-In . SVG Version: 6.00 Build 0)  -->
<svg version="1.1" id="Layer_1" xmlns="http://www.w3.org/2000/svg" xmlns:xlink="http://www.w3.org/1999/xlink" x="0px" y="0px"
	 viewBox="0 0 504 504" style="enable-background:new 0 0 504 504;" xml:space="preserve">
<circle style="fill:#84DBFF;" cx="252" cy="252" r="252"/>
<path style="fill:#324A5E;" d="M252,135.2c-75.6,0-137.2,61.6-137.2,137.2S176.4,409.6,252,409.6S389.2,348,389.2,272.4
	S327.6,135.2,252,135.2z M252,388.8c-55.6,0-100.4-44.8-100.4-100.4S196.4,188,252,188s100.4,44.8,100.4,100.4
	C352.4,343.6,307.6,388.8,252,388.8z"/>
<path style="fill:#F1543F;" d="M252,108.8c11.2-13.6,26.4-16.8,37.6-12.4c26.8,10,33.2,48.4,10,72.4C252,218.4,252,218.4,252,218.4
	s0,0-47.6-49.6c-23.2-24-16.8-62.4,10-72.4C225.6,92,240.8,95.2,252,108.8z"/>
<g>
</g>
<g>
</g>
<g>
</g>
<g>
</g>
<g>
</g>
<g>
</g>
<g>
</g>
<g>
</g>
<g>
</g>
<g>
</g>
<g>
</g>
<g>
</g>
<g>
</g>
<g>
</g>
<g>
</g>
</svg>
