<?xml version="1.0" encoding="iso-8859-1"?>
<!-- Generator: Adobe Illustrator 19.0.0, SVG Export Plug-In . SVG Version: 6.00 Build 0)  -->
<svg version="1.1" id="Layer_1" xmlns="http://www.w3.org/2000/svg" xmlns:xlink="http://www.w3.org/1999/xlink" x="0px" y="0px"
	 viewBox="0 0 504 504" style="enable-background:new 0 0 504 504;" xml:space="preserve">
<circle style="fill:#FD8469;" cx="252" cy="252" r="252"/>
<path style="fill:#2B3B4E;" d="M166.4,401.6L166.4,401.6c-2.8-6-1.2-12.8,4.4-16.8c66-48.8,76-116.8,76-117.6l24,4.4
	c-0.4,3.2-11.6,79.2-84,134.8C180,412,170,409.2,166.4,401.6z"/>
<g>
	<path style="fill:#E6E9EE;" d="M252,108.4c10.8-13.2,25.6-16,36.4-12c26,9.6,32.4,46.8,10,70.4C252,214.4,252,214.4,252,214.4
		s0,0-46.4-48c-22.4-23.2-16.4-60.4,10-70.4C226.4,92,241.2,95.2,252,108.4z"/>
	<path style="fill:#E6E9EE;" d="M252,320.8c-10.8,13.2-25.6,16-36.4,12c-26-9.6-32.4-46.8-10-70.4c46.4-48,46.4-48,46.4-48
		s0,0,46.4,48c22.4,23.2,16.4,60.4-10,70.4C277.6,337.2,262.8,334,252,320.8z"/>
	<path style="fill:#E6E9EE;" d="M358.4,214.4c13.2,10.8,16,25.6,12,36.4c-9.6,26-46.8,32.4-70.4,10c-48-46.4-48-46.4-48-46.4
		s0,0,48-46.4c23.6-22.4,60.4-16.4,70.4,10C374.4,189.2,371.6,203.6,358.4,214.4z"/>
	<path style="fill:#E6E9EE;" d="M145.6,214.4c-13.2-10.8-16-25.6-12-36.4c9.6-26,46.8-32.4,70.4-10c48,46.4,48,46.4,48,46.4
		s0,0-48,46.4c-23.6,22.4-60.4,16.4-70.4-10C129.6,240,132.4,225.6,145.6,214.4z"/>
</g>
<g>
	<path style="fill:#4CDBC4;" d="M226,358.8L226,358.8c8,32,36.8,42.8,64,23.6l0,0"/>
	<path style="fill:#4CDBC4;" d="M290,382.4L290,382.4c-8-32-36.8-42.8-64-23.6"/>
</g>
<path style="fill:#2C9984;" d="M252,168.4c10.8-13.2,25.6-16,36.4-12c26,9.6,32.4,46.8,10,70.4c-46.4,48-46.4,48-46.4,48
	s0,0-46.4-48c-22.4-23.2-16.4-60.4,10-70.4C226.4,152,241.2,155.2,252,168.4z"/>
<g>
</g>
<g>
</g>
<g>
</g>
<g>
</g>
<g>
</g>
<g>
</g>
<g>
</g>
<g>
</g>
<g>
</g>
<g>
</g>
<g>
</g>
<g>
</g>
<g>
</g>
<g>
</g>
<g>
</g>
</svg>
