<?xml version="1.0" encoding="iso-8859-1"?>
<!-- Generator: Adobe Illustrator 19.0.0, SVG Export Plug-In . SVG Version: 6.00 Build 0)  -->
<svg version="1.1" id="Layer_1" xmlns="http://www.w3.org/2000/svg" xmlns:xlink="http://www.w3.org/1999/xlink" x="0px" y="0px"
	 viewBox="0 0 504 504" style="enable-background:new 0 0 504 504;" xml:space="preserve">
<circle style="fill:#324A5E;" cx="252" cy="252" r="252"/>
<g>
	<path style="fill:#E6E9EE;" d="M409.6,111.2c0-9.2-7.6-16.8-16.8-16.8H269.6v140h140V111.2z"/>
	<path style="fill:#E6E9EE;" d="M269.6,409.6h115.2h8c9.2,0,16.8-7.6,16.8-16.8v-8V269.6h-140L269.6,409.6L269.6,409.6z"/>
	<path style="fill:#E6E9EE;" d="M94.4,392.8c0,9.2,7.6,16.8,16.8,16.8h123.2v-140h-140C94.4,269.6,94.4,392.8,94.4,392.8z"/>
	<path style="fill:#E6E9EE;" d="M234.4,94.4H119.2h-8c-9.2,0-16.8,7.6-16.8,16.8v8v115.2h140V94.4z"/>
</g>
<rect x="223.6" y="94.4" style="fill:#F9B54C;" width="56.8" height="315.2"/>
<rect x="234.4" y="234.4" style="fill:#FF7058;" width="35.2" height="35.2"/>
<g>
	<rect x="94.4" y="226" style="fill:#F9B54C;" width="140" height="51.6"/>
	<rect x="269.6" y="226" style="fill:#F9B54C;" width="140" height="51.6"/>
</g>
<g>
	<path style="fill:#FF7058;" d="M252,278c0,0-69.2,29.6-85.6,14.4c-14.4-13.2-14.4-67.6,0-80.4c16.4-15.2,85.6,14.4,85.6,14.4V278z"
		/>
	<path style="fill:#FF7058;" d="M252,226c0,0,69.2-29.6,85.6-14.4c14.4,13.2,14.4,67.6,0,80.4c-16.4,15.2-85.6-14-85.6-14V226z"/>
</g>
<path style="fill:#F1543F;" d="M272,208.8h-40c-4.8,0-8.4,3.6-8.4,8.4v70c0,4.8,3.6,8.4,8.4,8.4h40c4.8,0,8.4-3.6,8.4-8.4v-70
	C280.4,212.4,276.8,208.8,272,208.8z"/>
<g>
</g>
<g>
</g>
<g>
</g>
<g>
</g>
<g>
</g>
<g>
</g>
<g>
</g>
<g>
</g>
<g>
</g>
<g>
</g>
<g>
</g>
<g>
</g>
<g>
</g>
<g>
</g>
<g>
</g>
</svg>
