<?xml version="1.0" encoding="iso-8859-1"?>
<!-- Generator: Adobe Illustrator 19.0.0, SVG Export Plug-In . SVG Version: 6.00 Build 0)  -->
<svg version="1.1" id="Layer_1" xmlns="http://www.w3.org/2000/svg" xmlns:xlink="http://www.w3.org/1999/xlink" x="0px" y="0px"
	 viewBox="0 0 504 504" style="enable-background:new 0 0 504 504;" xml:space="preserve">
<circle style="fill:#90DFAA;" cx="252" cy="252" r="252"/>
<path style="fill:#FF7058;" d="M330.8,115.2c-34,0-63.6,18.8-78.8,46.4c-15.2-27.6-44.8-46.4-78.8-46.4c-49.6,0-90,40.4-90,90
	c0,70,168.8,223.2,168.8,223.2s168.8-146.8,168.8-223.2C420.8,155.2,380.8,115.2,330.8,115.2z"/>
<path style="fill:#F1543F;" d="M389.6,197.2l-4.4-6.4l-6.8,4.8c-2.4-3.2-5.2-6.4-7.6-9.2l6.4-6l-5.2-5.6l-6.4,6
	c-2.8-2.8-5.6-5.6-8.8-8l5.6-6.8l-6.4-5.2l-5.6,6.8c-3.2-2.4-6.4-4.8-9.6-7.2l4.8-7.6l-6.8-4.4l-4.4,7.6c-3.2-2-6.8-4-10.4-6
	l3.6-7.6l-7.2-3.6l-3.6,7.6c-1.6-0.8-3.6-1.6-5.2-2.8l-3.2,7.2c1.6,0.8,3.6,1.6,5.2,2.4l-5.2,10.8l7.2,3.6l5.2-10.8
	c3.2,1.6,6.4,3.6,9.6,5.6l-6.4,10l6.8,4.4l6.4-9.6c2.8,2,6,4.4,8.8,6.4l-7.2,8.8l6,5.2l7.2-8.8c2.8,2.4,5.2,4.8,8,7.6l-8.4,8
	l4.4,5.6l8.8-8c2.4,2.8,4.8,5.6,7.2,8.4l-9.6,6.8l4.4,6.4l10-6.8c1.2,1.6,2.4,3.2,3.2,4.8l6.4-4.4c-1.2-1.6-2.4-3.2-3.6-4.8
	L389.6,197.2z"/>
<g>
</g>
<g>
</g>
<g>
</g>
<g>
</g>
<g>
</g>
<g>
</g>
<g>
</g>
<g>
</g>
<g>
</g>
<g>
</g>
<g>
</g>
<g>
</g>
<g>
</g>
<g>
</g>
<g>
</g>
</svg>
