<?xml version="1.0" encoding="iso-8859-1"?>
<!-- Generator: Adobe Illustrator 19.0.0, SVG Export Plug-In . SVG Version: 6.00 Build 0)  -->
<svg version="1.1" id="Layer_1" xmlns="http://www.w3.org/2000/svg" xmlns:xlink="http://www.w3.org/1999/xlink" x="0px" y="0px"
	 viewBox="0 0 504 504" style="enable-background:new 0 0 504 504;" xml:space="preserve">
<circle style="fill:#FD8469;" cx="252" cy="252" r="252"/>
<path style="fill:#FFD05B;" d="M392.4,252c34.8,48.4,15.2,92-41.2,99.2c-7.2,56-50.8,75.6-99.2,41.2c-48.4,34.8-92,15.2-99.2-41.2
	c-56-7.2-75.6-50.8-41.2-99.2c-34.8-48.4-15.2-92,41.2-99.2c7.2-56,50.8-75.6,99.2-41.2c48.4-34.8,92-15.2,99.2,41.2
	C407.2,160,426.8,203.6,392.4,252z"/>
<circle style="fill:#FFFFFF;" cx="252" cy="252" r="108.8"/>
<path style="fill:#F1543F;" d="M252,205.2c13.6-16.8,32.4-20.4,46-15.2c33.2,12.4,40.8,59.6,12.4,89.2C252,340,252,340,252,340
	s0,0-58.8-61.2c-28.4-29.6-20.8-76.8,12.4-89.2C219.6,184.8,238.4,188.4,252,205.2z"/>
<g>
</g>
<g>
</g>
<g>
</g>
<g>
</g>
<g>
</g>
<g>
</g>
<g>
</g>
<g>
</g>
<g>
</g>
<g>
</g>
<g>
</g>
<g>
</g>
<g>
</g>
<g>
</g>
<g>
</g>
</svg>
