<?xml version="1.0" encoding="iso-8859-1"?>
<!-- Generator: Adobe Illustrator 19.0.0, SVG Export Plug-In . SVG Version: 6.00 Build 0)  -->
<svg version="1.1" id="Layer_1" xmlns="http://www.w3.org/2000/svg" xmlns:xlink="http://www.w3.org/1999/xlink" x="0px" y="0px"
	 viewBox="0 0 504 504" style="enable-background:new 0 0 504 504;" xml:space="preserve">
<circle style="fill:#FD8469;" cx="252" cy="252" r="252"/>
<path style="fill:#324A5E;" d="M191.2,286.8L100,378c-7.2,7.2-7.2,18.8,0,26s18.8,7.2,26,0l91.2-91.2L191.2,286.8z"/>
<g>
	<path style="fill:#4CDBC4;" d="M226.8,370.8l2.8,2.8c10,10,26.8,10,36.8,0L368,272c-11.2-4-24-4-32-10.4L226.8,370.8z"/>
	<path style="fill:#4CDBC4;" d="M241.6,126L130.4,237.6c-10,10-10,26.8,0,36.8l2.8,2.8l132-132C254.4,140,244.8,135.6,241.6,126z"/>
</g>
<g>
	<path style="fill:#2C9984;" d="M329.6,254.4c-8-19.6,12-27.6,19.6-43.2c3.6-6.8-8-10.8-13.6-11.6l-140,140l31.2,31.2L336,262
		C333.6,260,331.2,257.6,329.6,254.4z"/>
	<path style="fill:#2C9984;" d="M289.6,183.2c-1.2-1.2-2-2.4-3.2-3.6c-4-8,4-19.6,0-23.6c-6.8-4.4-14.4-7.6-21.2-10.8l-132,132
		l31.2,31.2L289.6,183.2z"/>
</g>
<path style="fill:#4CDBC4;" d="M289.6,183.2L164.4,308.4l31.2,31.2l140-140c-0.8,0-1.6-0.4-2-0.4C315.6,196,301.2,195.6,289.6,183.2
	z"/>
<path style="fill:#FFD05B;" d="M381.2,122.8c-37.6-37.6-98.8-37.6-136.4,0l-3.2,3.2c5.2,15.2,27.2,18.4,44.8,30
	c3.6,3.6-2.8,14-0.8,22v51.6c0,6,4.8,11.2,11.2,11.2c6,0,11.2-4.8,11.2-11.2v-35.2c7.6,2.4,16.4,3.2,25.6,5.2c4,0,19.6,4,15.6,12
	c-8,15.6-27.6,23.6-19.6,43.2c3.6,7.2,9.2,10,16,12v51.6c0,6,4.8,11.2,11.2,11.2c6,0,11.2-4.8,11.2-11.2V272l13.2-13.2
	c0.4-0.4,0.8-0.8,1.2-1.2v5.2c0,6,4.8,11.2,11.2,11.2c6,0,11.2-4.8,11.2-11.2v-41.6C415.6,188,408,149.6,381.2,122.8z"/>
<g>
</g>
<g>
</g>
<g>
</g>
<g>
</g>
<g>
</g>
<g>
</g>
<g>
</g>
<g>
</g>
<g>
</g>
<g>
</g>
<g>
</g>
<g>
</g>
<g>
</g>
<g>
</g>
<g>
</g>
</svg>
