<?xml version="1.0" encoding="iso-8859-1"?>
<!-- Generator: Adobe Illustrator 19.0.0, SVG Export Plug-In . SVG Version: 6.00 Build 0)  -->
<svg version="1.1" id="Layer_1" xmlns="http://www.w3.org/2000/svg" xmlns:xlink="http://www.w3.org/1999/xlink" x="0px" y="0px"
	 viewBox="0 0 504 504" style="enable-background:new 0 0 504 504;" xml:space="preserve">
<circle style="fill:#FF7058;" cx="252" cy="252" r="252"/>
<path style="fill:#324A5E;" d="M409.6,144.8l-11.2-13.6L369.2,96l-14,11.6l25.2,30.4l-11.6,9.6L352,126.8l-14,11.6l16.8,20.4
	l-11.6,9.6L318,138l-14,12l25.2,30.4L258,239.2c-14-1.2-39.6-2.8-86-6.4c-48.8-3.6-86.4,38.4-75.2,78.4c0.4,0.8,0.4,2,0.8,2.8
	c1.6,4.8,4,9.2,7.6,13.2c8.8,10.8,23.6,18.4,42.8,18.4c-3.6,18.8,1.2,34.8,10,45.6c3.2,4,7.2,7.6,11.6,10c0.8,0.4,2,0.8,2.8,1.6
	c37.2,18.8,85.2-10.4,90.8-59.2c5.2-46.4,8.4-72,10-86L409.6,144.8z"/>
<path style="fill:#54C0EB;" d="M245.6,341.2c-2,18.8-12.8,35.2-28.4,43.6c-12.4,6.8-25.6,7.2-36.8,1.6c-0.8-0.4-1.2-0.8-2-0.8
	c-2.4-1.2-4.8-3.2-6.4-5.6c-3.6-4.4-9.6-14.8-6.4-30.8l4-21.2H148c-16.8,0-25.2-7.6-29.2-12c-2-2.4-3.6-5.2-4.4-7.6
	c-0.4-0.8-0.4-1.2-0.8-2c-3.2-12-0.4-25.2,8.4-36c11.2-13.6,29.2-21.2,48-19.6l84.8,6.4L245.6,341.2z"/>
<g>
</g>
<g>
</g>
<g>
</g>
<g>
</g>
<g>
</g>
<g>
</g>
<g>
</g>
<g>
</g>
<g>
</g>
<g>
</g>
<g>
</g>
<g>
</g>
<g>
</g>
<g>
</g>
<g>
</g>
</svg>
