<?xml version="1.0" encoding="iso-8859-1"?>
<!-- Generator: Adobe Illustrator 19.0.0, SVG Export Plug-In . SVG Version: 6.00 Build 0)  -->
<svg version="1.1" id="Layer_1" xmlns="http://www.w3.org/2000/svg" xmlns:xlink="http://www.w3.org/1999/xlink" x="0px" y="0px"
	 viewBox="0 0 504 504" style="enable-background:new 0 0 504 504;" xml:space="preserve">
<circle style="fill:#90DFAA;" cx="252" cy="252" r="252"/>
<rect x="108.4" y="97.2" style="fill:#2B3B4E;" width="277.6" height="242"/>
<rect x="138" y="128" style="fill:#E6E9EE;" width="218" height="180.4"/>
<path style="fill:#F1543F;" d="M246.8,160.4c12.8-16.4,30-20.4,42.8-15.2c30.8,12.4,38,58.8,11.6,88c-54.4,60.4-54.4,60.4-54.4,60.4
	s0,0-54.4-60.4c-26.4-29.2-19.2-75.6,11.6-88C216.8,140,234.4,144,246.8,160.4z"/>
<polygon style="fill:#2B3B4E;" points="89.6,364 89.6,387.6 100.8,405.6 393.2,405.6 404.4,387.6 404.4,364 "/>
<path style="fill:#E6E9EE;" d="M279.2,379.6h-64.4c-1.6,0-2.8-1.2-2.8-2.8l0,0c0-1.6,1.2-2.8,2.8-2.8h64.4c1.6,0,2.8,1.2,2.8,2.8
	l0,0C282,378.4,280.8,379.6,279.2,379.6z"/>
<g>
</g>
<g>
</g>
<g>
</g>
<g>
</g>
<g>
</g>
<g>
</g>
<g>
</g>
<g>
</g>
<g>
</g>
<g>
</g>
<g>
</g>
<g>
</g>
<g>
</g>
<g>
</g>
<g>
</g>
</svg>
