<?xml version="1.0" encoding="iso-8859-1"?>
<!-- Generator: Adobe Illustrator 19.0.0, SVG Export Plug-In . SVG Version: 6.00 Build 0)  -->
<svg version="1.1" id="Layer_1" xmlns="http://www.w3.org/2000/svg" xmlns:xlink="http://www.w3.org/1999/xlink" x="0px" y="0px"
	 viewBox="0 0 504 504" style="enable-background:new 0 0 504 504;" xml:space="preserve">
<circle style="fill:#90DFAA;" cx="252" cy="252" r="252"/>
<path style="fill:#324A5E;" d="M183.6,345.6c0.4,3.2,0.8,6.8,0.8,10v62c0,2,1.6,3.6,3.6,3.6h15.6c1.6,0,2.8,1.2,3.6,2.4
	c3.6,7.2,22.4,12.4,44.8,12.4c22.8,0,41.2-5.6,44.8-12.4c0.8-1.2,2-2.4,3.6-2.4H316c2,0,3.6-1.6,3.6-3.6v-62c0-3.2,0.4-6.8,0.8-10
	H183.6z"/>
<path style="fill:#FFFFFF;" d="M386,202c0-77.2-65.2-139.2-143.6-134c-66,4.4-119.6,58-124.4,124.4c-2.8,42,13.6,80.4,41.2,106.8
	c13.2,12.4,21.6,28.8,24,46.4h136.4c2.4-17.2,10-33.2,22.8-45.2C369.6,276,386,240.8,386,202z"/>
<g>
	<rect x="184.4" y="357.2" style="fill:#2B3B4E;" width="135.2" height="10.4"/>
	<rect x="184.4" y="378.4" style="fill:#2B3B4E;" width="135.2" height="10.4"/>
	<rect x="184.4" y="400" style="fill:#2B3B4E;" width="135.2" height="10.4"/>
</g>
<path style="fill:#FF7058;" d="M304.4,117.2c-15.6-6-36.8-1.6-52.4,17.6c-15.6-19.2-36.8-23.2-52.4-17.6
	c-37.6,14-46.8,67.6-14.4,101.6c32,33.2,48.8,50.4,57.2,59.6v67.2h18.8v-67.2c8.8-9.2,25.2-26.4,57.2-59.6
	C351.2,184.8,342.4,131.2,304.4,117.2z"/>
<g>
</g>
<g>
</g>
<g>
</g>
<g>
</g>
<g>
</g>
<g>
</g>
<g>
</g>
<g>
</g>
<g>
</g>
<g>
</g>
<g>
</g>
<g>
</g>
<g>
</g>
<g>
</g>
<g>
</g>
</svg>
