<?xml version="1.0" encoding="iso-8859-1"?>
<!-- Generator: Adobe Illustrator 19.0.0, SVG Export Plug-In . SVG Version: 6.00 Build 0)  -->
<svg version="1.1" id="Layer_1" xmlns="http://www.w3.org/2000/svg" xmlns:xlink="http://www.w3.org/1999/xlink" x="0px" y="0px"
	 viewBox="0 0 504 504" style="enable-background:new 0 0 504 504;" xml:space="preserve">
<circle style="fill:#324A5E;" cx="252" cy="252" r="252"/>
<path style="fill:#F1543F;" d="M308,112.4c14-16.8,32.8-20.8,46.8-15.6c33.6,12.4,41.6,60.4,12.8,90.4c-59.6,62-59.6,62-59.6,62
	s0,0-59.6-62c-28.8-30-20.8-78,12.8-90.4C275.2,91.6,294,95.2,308,112.4z"/>
<g>
	<path style="fill:#ACB3BA;" d="M136.8,238.8V94.4h32.4V210h61.6v28.8H136.8z"/>
	<path style="fill:#ACB3BA;" d="M190.4,357.2l36.8-92H262l-58,144.4h-27.2l-58.4-144.4h34.8L190.4,357.2z"/>
	<path style="fill:#ACB3BA;" d="M383.2,265.2V294h-72v29.6H376v27.6h-64.8v30h74v28.4h-106V265.2H383.2z"/>
</g>
<g>
</g>
<g>
</g>
<g>
</g>
<g>
</g>
<g>
</g>
<g>
</g>
<g>
</g>
<g>
</g>
<g>
</g>
<g>
</g>
<g>
</g>
<g>
</g>
<g>
</g>
<g>
</g>
<g>
</g>
</svg>
