<?xml version="1.0" encoding="iso-8859-1"?>
<!-- Generator: Adobe Illustrator 19.0.0, SVG Export Plug-In . SVG Version: 6.00 Build 0)  -->
<svg version="1.1" id="Layer_1" xmlns="http://www.w3.org/2000/svg" xmlns:xlink="http://www.w3.org/1999/xlink" x="0px" y="0px"
	 viewBox="0 0 504 504" style="enable-background:new 0 0 504 504;" xml:space="preserve">
<circle style="fill:#324A5E;" cx="252" cy="252" r="252"/>
<polygon style="fill:#FFFFFF;" points="305.6,94.4 130,94.4 130,409.6 374,409.6 374,163.2 "/>
<polygon style="fill:#ACB3BA;" points="305.6,163.2 374,163.2 305.6,94.4 "/>
<rect x="157.2" y="145.6" style="fill:#2C9984;" width="120.8" height="17.6"/>
<rect x="152" y="183.6" style="fill:#4CDBC4;" width="200" height="50.4"/>
<g>
	<rect x="152" y="252.8" style="fill:#ACB3BA;" width="200" height="12.4"/>
	<rect x="152" y="283.6" style="fill:#ACB3BA;" width="200" height="12.4"/>
	<rect x="152" y="314" style="fill:#ACB3BA;" width="200" height="12.4"/>
	<rect x="152" y="344.8" style="fill:#ACB3BA;" width="200" height="12.4"/>
	<rect x="152" y="375.6" style="fill:#ACB3BA;" width="200" height="12.4"/>
</g>
<rect x="157.2" y="116" style="fill:#FFD05B;" width="120.8" height="17.6"/>
<path style="fill:#FF7058;" d="M252,278.4c10-12.8,24-15.6,34-11.6c24.4,9.2,30,44.8,9.2,67.2C252,380.4,252,380.4,252,380.4
	s0,0-43.2-46c-20.8-22.4-15.2-58,9.2-67.6C228,262.8,242,265.6,252,278.4z"/>
<g>
	<path style="fill:#FFFFFF;" d="M164.4,225.2V192h7.6v26.4h14v6.4h-21.6V225.2z"/>
	<path style="fill:#FFFFFF;" d="M215.2,192.4v6.4h-16.4v6.8h14.8v6.4h-14.8v6.8h16.8v6.4h-24.4V192h24V192.4z"/>
	<path style="fill:#FFFFFF;" d="M236.4,198.8v26.8h-7.2v-26.8H220v-6.4h26v6.4H236.4z"/>
	<path style="fill:#FFFFFF;" d="M264.8,198.8v26.8h-7.2v-26.8h-9.2v-6.4h26v6.4H264.8z"/>
	<path style="fill:#FFFFFF;" d="M303.6,192.4v6.4h-16.4v6.8H302v6.4h-14.8v6.8H304v6.4h-24.4V192h24V192.4z"/>
	<path style="fill:#FFFFFF;" d="M337.6,203.2c0,5.2-2,8.8-6.4,10.4l8.4,12h-9.2l-7.2-10.4H318v10.4h-7.2v-33.2h12.4
		c5.2,0,8.8,0.8,10.8,2.4C336.4,196.8,337.6,199.6,337.6,203.2z M328.4,207.2c0.8-0.8,1.2-2,1.2-4s-0.4-3.2-1.6-3.6
		c-0.8-0.8-2.4-0.8-4.8-0.8h-5.6v9.6h5.2C326,208.4,327.6,208,328.4,207.2z"/>
</g>
<g>
</g>
<g>
</g>
<g>
</g>
<g>
</g>
<g>
</g>
<g>
</g>
<g>
</g>
<g>
</g>
<g>
</g>
<g>
</g>
<g>
</g>
<g>
</g>
<g>
</g>
<g>
</g>
<g>
</g>
</svg>
