<?xml version="1.0" encoding="iso-8859-1"?>
<!-- Generator: Adobe Illustrator 19.0.0, SVG Export Plug-In . SVG Version: 6.00 Build 0)  -->
<svg version="1.1" id="Layer_1" xmlns="http://www.w3.org/2000/svg" xmlns:xlink="http://www.w3.org/1999/xlink" x="0px" y="0px"
	 viewBox="0 0 504 504" style="enable-background:new 0 0 504 504;" xml:space="preserve">
<circle style="fill:#324A5E;" cx="252" cy="252" r="252"/>
<polygon style="fill:#2C9984;" points="271.6,357.6 136.8,357.6 136.8,146.4 271.6,94.4 "/>
<rect x="136.8" y="146.4" style="fill:#E6E9EE;" width="230.4" height="263.2"/>
<g>
	<path style="fill:#F1543F;" d="M152.8,162h12.4v55.2h-12.4V162z"/>
	<path style="fill:#F1543F;" d="M319.6,378.8c2,2.4,4.8,4,8.4,4s6.4-1.2,8.4-4c2-2.4,3.2-6,3.2-10.4V338H352v30.8
		c0,8-2.4,14-6.8,18.4s-10,6.4-16.8,6.4s-12.4-2-16.8-6.4s-6.8-10.4-6.8-18.4V338h12.4v30.4C316.4,372.8,317.6,376.4,319.6,378.8z"
		/>
	<path style="fill:#F1543F;" d="M252,218c14-17.2,33.2-20.8,47.2-15.6c33.6,12.8,41.6,60.4,12.8,90.8c-60,62.4-60,62.4-60,62.4
		s0,0-59.6-62c-29.2-30-20.8-78,12.8-90.8C218.8,197.2,238,201.2,252,218z"/>
</g>
<g>
	<path style="fill:#FFFFFF;" d="M193.6,273.6v-32h7.2v25.6h13.6v6.4H193.6z"/>
	<path style="fill:#FFFFFF;" d="M245.6,269.2c-3.2,3.2-7.2,4.8-12,4.8s-8.8-1.6-12-4.8c-3.2-3.2-4.8-7.2-4.8-11.6s1.6-8.8,4.8-11.6
		c3.2-3.2,7.2-4.8,12-4.8s8.8,1.6,12,4.8s4.8,7.2,4.8,11.6S248.8,266,245.6,269.2z M242.8,257.2c0-2.8-0.8-5.2-2.8-7.2
		c-2-2-4-3.2-6.8-3.2s-4.8,1.2-6.8,3.2c-1.6,2-2.4,4.4-2.4,7.2c0,2.8,0.8,5.2,2.8,7.2s4,2.8,6.8,2.8s4.8-0.8,6.8-2.8
		C242,262.4,242.8,260,242.8,257.2z"/>
	<path style="fill:#FFFFFF;" d="M267.2,262l8-20.4h7.6l-12.8,32h-6l-12.8-32h7.6L267.2,262z"/>
	<path style="fill:#FFFFFF;" d="M310,241.6v6.4h-16v6.4h14.4v6H294v6.8h16.4v6.4h-23.6v-32L310,241.6L310,241.6z"/>
</g>
<g>
</g>
<g>
</g>
<g>
</g>
<g>
</g>
<g>
</g>
<g>
</g>
<g>
</g>
<g>
</g>
<g>
</g>
<g>
</g>
<g>
</g>
<g>
</g>
<g>
</g>
<g>
</g>
<g>
</g>
</svg>
