<?xml version="1.0" encoding="iso-8859-1"?>
<!-- Generator: Adobe Illustrator 19.0.0, SVG Export Plug-In . SVG Version: 6.00 Build 0)  -->
<svg version="1.1" id="Layer_1" xmlns="http://www.w3.org/2000/svg" xmlns:xlink="http://www.w3.org/1999/xlink" x="0px" y="0px"
	 viewBox="0 0 504 504" style="enable-background:new 0 0 504 504;" xml:space="preserve">
<circle style="fill:#FFD05B;" cx="252" cy="252" r="252"/>
<path style="fill:#FFFFFF;" d="M130,284c2,0,4-0.8,5.2-2l21.2-27.2c3.2-4,8.8-6.8,14.4-6.8l0,0c5.6,0,11.2,2.4,14.4,6.8l21.2,27.2
	c2,2.8,8.4,2.8,10.4,0l21.2-27.2c3.2-4,8.8-6.8,14.4-6.8l0,0c5.6,0,11.2,2.4,14.4,6.8L288,282c2,2.8,8.4,2.8,10.4,0l21.2-27.2
	c3.2-4,8.8-6.8,14.4-6.8s11.2,2.4,14.4,6.8l21.2,27.2c1.2,1.2,2.8,2,5.2,2l0,0c0.4,0,0.8,0,1.2,0c56.8-61.6,40-156.8-27.6-182
	c-28.4-10.8-67.2-2.8-95.6,31.6c-28.4-34.4-67.2-42.4-95.6-31.6C88.8,127.2,72,222.4,128.8,284C129.2,284,129.6,284,130,284L130,284
	z"/>
<g>
	<path style="fill:#F1543F;" d="M375.2,284c-0.4,0-0.8,0-1.2,0l0,0c-2,0-4-0.8-5.2-2l-21.2-27.2c-3.2-4-8.8-6.8-14.4-6.8
		s-11.2,2.4-14.4,6.8L297.6,282c-2,2.8-8.4,2.8-10.4,0L266,254.8c-3.2-4-8.8-6.8-14.4-6.8l0,0c-5.6,0-11.2,2.4-14.4,6.8L216,282
		c-2,2.8-8.4,2.8-10.4,0l-21.2-27.2c-3.2-4-8.8-6.8-14.4-6.8l0,0c-5.6,0-11.2,2.4-14.4,6.8L134.4,282c-1.2,1.2-2.8,2-5.2,2l0,0
		c-0.4,0-0.8,0-1.2,0c0.8,0.8,1.2,1.6,2,2c2.8,2.8,5.2,5.2,7.6,8c2.4-1.2,4.4-2.8,6-4.8l21.2-27.2c1.2-1.2,2.8-2,5.2-2l0,0
		c2,0,4,0.8,5.2,2l21.2,27.2c3.2,4,8.8,6.8,14.4,6.8c5.6,0,11.2-2.4,14.4-6.8l21.2-27.2c2-2.8,8.4-2.8,10.4,0l21.2,27.2
		c3.2,4,8.8,6.8,14.4,6.8l0,0c5.6,0,11.2-2.4,14.4-6.8L328,262c2-2.8,8.4-2.8,10.4,0l21.2,27.2c1.6,2,3.6,3.6,6,4.8
		c2.4-2.8,5.2-5.2,7.6-8C374,285.2,374.8,284.8,375.2,284z"/>
	<path style="fill:#F1543F;" d="M365.6,294c-2.4-1.2-4.4-2.8-6-4.8L338.4,262c-2-2.8-8.4-2.8-10.4,0l-21.2,27.2
		c-3.2,4-8.8,6.8-14.4,6.8l0,0c-5.6,0-11.2-2.4-14.4-6.8L256.8,262c-2-2.8-8.4-2.8-10.4,0l-21.2,27.2c-3.2,4-8.8,6.8-14.4,6.8
		c-5.6,0-11.2-2.4-14.4-6.8L176,262.4c-1.2-1.2-2.8-2-5.2-2l0,0c-2,0-4,0.8-5.2,2l-21.2,27.2c-1.6,2-3.6,3.6-6,4.8
		c11.6,12,22,22.8,31.6,32.8v51.6c0,8.8,7.2,16.4,16.4,16.4c8.8,0,16.4-7.2,16.4-16.4v-18c15.6,16,26,27.2,33.6,34.8V430
		c0,8.8,7.2,16.4,16.4,16.4c8.8,0,16.4-7.2,16.4-16.4v-34.4c5.6-6,13.6-14.4,24.4-25.2v1.6c0,8.8,7.2,16.4,16.4,16.4
		c8.8,0,16.4-7.2,16.4-16.4v-35.6C336.8,324.4,350,310.4,365.6,294z"/>
</g>
<g>
	<path style="fill:#2B3B4E;" d="M140.4,218.8V158H154v48.8h26v12H140.4z"/>
	<path style="fill:#2B3B4E;" d="M239.6,210.4c-6,6-13.6,9.2-22.8,9.2s-16.8-3.2-22.8-9.2s-9.2-13.6-9.2-22.4s3.2-16.4,9.2-22.4
		s13.6-9.2,22.8-9.2s16.8,3.2,22.8,9.2s9.2,13.6,9.2,22.4S245.6,204.4,239.6,210.4z M234.8,188c0-5.6-1.6-10-5.2-14
		c-3.6-4-7.6-5.6-12.8-5.6s-9.2,2-12.8,5.6c-3.6,4-5.2,8.4-5.2,14s1.6,10,5.2,14c3.6,4,7.6,5.6,12.8,5.6s9.2-2,12.8-5.6
		C233.2,198,234.8,193.6,234.8,188z"/>
	<path style="fill:#2B3B4E;" d="M281.2,196.8l15.6-38.8h14.8l-24.4,60.8h-11.6L251.2,158H266L281.2,196.8z"/>
	<path style="fill:#2B3B4E;" d="M362.8,158v12h-30.4v12.4h27.2V194h-27.2v12.8h31.2v12h-44.8V158H362.8z"/>
</g>
<g>
</g>
<g>
</g>
<g>
</g>
<g>
</g>
<g>
</g>
<g>
</g>
<g>
</g>
<g>
</g>
<g>
</g>
<g>
</g>
<g>
</g>
<g>
</g>
<g>
</g>
<g>
</g>
<g>
</g>
</svg>
