<?xml version="1.0" encoding="iso-8859-1"?>
<!-- Generator: Adobe Illustrator 19.0.0, SVG Export Plug-In . SVG Version: 6.00 Build 0)  -->
<svg version="1.1" id="Layer_1" xmlns="http://www.w3.org/2000/svg" xmlns:xlink="http://www.w3.org/1999/xlink" x="0px" y="0px"
	 viewBox="0 0 504 504" style="enable-background:new 0 0 504 504;" xml:space="preserve">
<circle style="fill:#FFD05B;" cx="252" cy="252" r="252"/>
<g>
	<path style="fill:#2B3B4E;" d="M252,333.2C162,333.2,88.4,242,88.4,130h12c0,105.6,68,191.2,151.6,191.2s151.6-86,151.6-191.2h12
		C415.6,242,342,333.2,252,333.2z"/>
	<rect x="246" y="327.2" style="fill:#2B3B4E;" width="12" height="20"/>
</g>
<path style="fill:#FF7058;" d="M284.8,336c-8.4-3.2-19.2-1.6-28,6c-1.6,1.6-3.2,3.2-4.8,4.8c-1.6-2-3.2-3.6-4.8-4.8
	c-9.2-8-20-9.2-28-6c-23.6,8.8-29.2,43.2-8.8,64.8c41.6,44,41.6,44,41.6,44s0,0,42-44.4C314,379.2,308.4,345.2,284.8,336z"/>
<g>
</g>
<g>
</g>
<g>
</g>
<g>
</g>
<g>
</g>
<g>
</g>
<g>
</g>
<g>
</g>
<g>
</g>
<g>
</g>
<g>
</g>
<g>
</g>
<g>
</g>
<g>
</g>
<g>
</g>
</svg>
