<?xml version="1.0" encoding="iso-8859-1"?>
<!-- Generator: Adobe Illustrator 19.0.0, SVG Export Plug-In . SVG Version: 6.00 Build 0)  -->
<svg version="1.1" id="Layer_1" xmlns="http://www.w3.org/2000/svg" xmlns:xlink="http://www.w3.org/1999/xlink" x="0px" y="0px"
	 viewBox="0 0 504 504" style="enable-background:new 0 0 504 504;" xml:space="preserve">
<circle style="fill:#84DBFF;" cx="252" cy="252" r="252"/>
<path style="fill:#2B3B4E;" d="M202.8,189.6v-24.8c0-27.2,22-49.2,49.2-49.2s49.2,22,49.2,49.2v24.8c6.4,0,12.4,1.2,17.6,3.2
	c1.2,0.4,2.4,0.8,3.2,1.6v-29.2c0-38.8-31.6-70-70-70c-38.8,0-70,31.6-70,70v29.2c1.2-0.4,2.4-0.8,3.2-1.6
	C190.8,190.4,196.8,189.6,202.8,189.6z"/>
<path style="fill:#324A5E;" d="M322,194c-1.2-0.4-2.4-0.8-3.2-1.6c-5.6-2-11.6-3.2-17.6-3.2c-16.4,0-34.8,7.6-49.2,25.2
	c-14.4-17.6-32.4-25.2-49.2-25.2c-6.4,0-12.4,1.2-17.6,3.2c-1.2,0.4-2.4,0.8-3.2,1.6c-44.8,19.6-54.8,85.6-14.8,127.2
	c84.8,88.4,84.8,88.4,84.8,88.4s0,0,84.8-88.4C376.8,279.6,367.2,213.6,322,194z"/>
<path style="fill:#FFD05B;" d="M182.4,306.8c-15.6-16-22.4-38-18.4-58.8c3.2-16,12.8-28.8,26-34.8c0.8-0.4,1.6-0.8,2.4-0.8
	c3.2-1.2,6.4-1.6,10-1.6c7.2,0,20.4,2.4,32.8,17.6l16.4,20l16.4-20c12.4-15.2,26-17.6,32.8-17.6c3.6,0,7.2,0.4,10.4,1.6
	c0.8,0.4,1.6,0.8,2.4,0.8c13.6,6,22.8,18.4,26,34.8c4,20.8-2.8,42.8-18.4,58.8L252,379.2L182.4,306.8z"/>
<path style="fill:#F1543F;" d="M265.6,282.8c0-7.6-6-13.6-13.6-13.6s-13.6,6-13.6,13.6c0,5.6,3.6,10.4,8.4,12.4l-4,24.4h17.6
	l-4-24.4C262,293.2,265.6,288.4,265.6,282.8z"/>
<g>
</g>
<g>
</g>
<g>
</g>
<g>
</g>
<g>
</g>
<g>
</g>
<g>
</g>
<g>
</g>
<g>
</g>
<g>
</g>
<g>
</g>
<g>
</g>
<g>
</g>
<g>
</g>
<g>
</g>
</svg>
