<?xml version="1.0" encoding="iso-8859-1"?>
<!-- Generator: Adobe Illustrator 19.0.0, SVG Export Plug-In . SVG Version: 6.00 Build 0)  -->
<svg version="1.1" id="Layer_1" xmlns="http://www.w3.org/2000/svg" xmlns:xlink="http://www.w3.org/1999/xlink" x="0px" y="0px"
	 viewBox="0 0 504 504" style="enable-background:new 0 0 504 504;" xml:space="preserve">
<circle style="fill:#FFD05B;" cx="252" cy="252" r="252"/>
<rect x="103.2" y="134.4" style="fill:#4CDBC4;" width="297.2" height="219.6"/>
<rect x="125.2" y="152.4" style="fill:#E6E9EE;" width="253.6" height="183.6"/>
<polygon style="fill:#324A5E;" points="309.2,115.6 309.2,102.4 194.8,102.4 194.8,115.6 94.4,115.6 94.4,134.4 409.6,134.4 
	409.6,115.6 "/>
<g>
	<polygon style="fill:#2B3B4E;" points="168.4,354 145.6,354 145.6,394.4 134,394.4 134,417.2 145.6,417.2 168.4,417.2 180,417.2 
		180,394.4 168.4,394.4 	"/>
	<polygon style="fill:#2B3B4E;" points="358.4,394.4 358.4,354 335.6,354 335.6,394.4 324,394.4 324,417.2 335.6,417.2 358.4,417.2 
		370,417.2 370,394.4 	"/>
</g>
<path style="fill:#F1543F;" d="M232.8,197.2c11.2-13.6,26-16.4,37.2-12.4c26.4,10,32.8,47.6,10,71.6c-47.2,49.2-47.2,49.2-47.2,49.2
	s0,0-47.2-49.2c-22.8-24-16.4-61.6,10-71.6C206.4,180.8,221.6,183.6,232.8,197.2z"/>
<path style="fill:#2B3B4E;" d="M308.4,184.8c-6.4-2.4-14-2.4-21.6,0.8c25.2,10.8,31.2,47.6,8.8,70.8c-17.6,18.4-28.8,30-35.6,37.2
	c11.6,12,11.6,12,11.6,12s0,0,47.2-49.2C341.6,232.8,335.2,194.8,308.4,184.8z"/>
<g>
</g>
<g>
</g>
<g>
</g>
<g>
</g>
<g>
</g>
<g>
</g>
<g>
</g>
<g>
</g>
<g>
</g>
<g>
</g>
<g>
</g>
<g>
</g>
<g>
</g>
<g>
</g>
<g>
</g>
</svg>
