<?xml version="1.0" encoding="iso-8859-1"?>
<!-- Generator: Adobe Illustrator 19.0.0, SVG Export Plug-In . SVG Version: 6.00 Build 0)  -->
<svg version="1.1" id="Layer_1" xmlns="http://www.w3.org/2000/svg" xmlns:xlink="http://www.w3.org/1999/xlink" x="0px" y="0px"
	 viewBox="0 0 504 504" style="enable-background:new 0 0 504 504;" xml:space="preserve">
<circle style="fill:#84DBFF;" cx="252" cy="252" r="252"/>
<path style="fill:#E6E9EE;" d="M310,98L94.4,208.8h314.4C417.6,135.2,310,98,310,98z"/>
<g>
	<path style="fill:#F1543F;" d="M115.2,278.8c3.2,3.6,10.4,3.6,14,0c4.8-5.2,11.6-8.4,18.8-8.4s14.4,2.8,18.8,8.4
		c3.2,3.6,10.4,3.6,14,0c4.8-5.2,11.6-8.4,18.8-8.4l0,0c7.2,0,14.4,2.8,18.8,8.4c3.2,3.6,10.4,3.6,14,0c4.8-5.2,11.6-8.4,18.8-8.4
		c7.2,0,14.4,2.8,18.8,8.4c3.2,3.6,10.4,3.6,14,0c4.8-5.2,11.6-8.4,18.8-8.4l0,0c7.2,0,14.4,2.8,18.8,8.4c3.2,3.6,10.4,3.6,14,0
		c4.8-5.2,11.6-8.4,18.8-8.4c7.2,0,14.4,2.8,18.8,8.4c3.2,3.6,10.4,3.6,14,0c4.8-5.2,11.6-8.4,18.8-8.4c0.8,0,1.2,0,2,0v-61.6H94.4
		v62.4c0.8,0,1.2,0,2,0C103.6,270.8,110.8,273.6,115.2,278.8z"/>
	<path style="fill:#F1543F;" d="M400,288.4c-4.8,5.2-11.6,8.4-18.8,8.4s-14.4-2.8-18.8-8.4c-3.2-3.6-10.4-3.6-14,0
		c-4.8,5.2-11.6,8.4-18.8,8.4c-7.2,0-14.4-2.8-18.8-8.4c-3.2-3.6-10.4-3.6-14,0c-4.8,5.2-11.6,8.4-18.8,8.4
		c-7.2,0-14.4-2.8-18.8-8.4c-3.2-3.6-10.4-3.6-14,0c-4.8,5.2-11.6,8.4-18.8,8.4s-14.4-2.8-18.8-8.4c-1.6-2-4-2.8-6.8-2.8
		s-5.2,1.2-6.8,2.8c-4.8,5.2-11.6,8.4-18.8,8.4s-14.4-2.8-18.8-8.4c-3.2-3.6-10.4-3.6-14,0c-4.8,5.2-11.6,8.4-18.8,8.4
		s-14.4-2.8-18.8-8.4c-2-2.4-5.6-3.2-8.8-2.8v72.8h314.4V286C406,285.2,402.4,286.4,400,288.4z"/>
</g>
<path style="fill:#FFD05B;" d="M407.2,265.6c-7.2,0-14.4,4-18.8,11.6c-3.2,5.2-10.4,5.2-14,0c-4.8-7.2-11.6-11.6-18.8-11.6
	c-7.2,0-14.4,4-18.8,11.6c-3.2,5.2-10.4,5.2-14,0c-4.8-7.2-11.6-11.6-18.8-11.6l0,0c-7.2,0-14.4,4-18.8,11.6c-3.2,5.2-10.4,5.2-14,0
	c-4.8-7.2-11.6-11.6-18.8-11.6c-7.2,0-14.4,4-18.8,11.6c-3.2,5.2-10.4,5.2-14,0c-4.8-7.2-11.6-11.6-18.8-11.6l0,0
	c-7.2,0-14.4,4-18.8,11.6c-3.2,5.2-10.4,5.2-14,0c-4.8-7.2-11.6-11.6-18.8-11.6s-14.4,4-18.8,11.6c-3.2,5.2-10.4,5.2-14,0
	c-4.8-7.2-11.6-11.6-18.8-11.6c-0.8,0-1.2,0-2,0v20.8c3.2-0.8,6.8,0.4,8.8,3.6c4.8,7.2,11.6,11.6,18.8,11.6c7.2,0,14.4-4,18.8-11.6
	c3.2-5.2,10.4-5.2,14,0c4.8,7.2,11.6,11.6,18.8,11.6s14.4-4,18.8-11.6c1.6-2.4,4-4,6.8-4s5.2,1.6,6.8,4c4.8,7.2,11.6,11.6,18.8,11.6
	s14.4-4,18.8-11.6c3.2-5.2,10.4-5.2,14,0c4.8,7.2,11.6,11.6,18.8,11.6c7.2,0,14.4-4,18.8-11.6c3.2-5.2,10.4-5.2,14,0
	c4.8,7.2,11.6,11.6,18.8,11.6c7.2,0,14.4-4,18.8-11.6c3.2-5.2,10.4-5.2,14,0c4.8,7.2,11.6,11.6,18.8,11.6s14.4-4,18.8-11.6
	c2-3.2,5.6-4.4,8.8-3.6v-20.8C408.4,265.6,407.6,265.6,407.2,265.6z"/>
<path style="fill:#F1543F;" d="M366,159.2c-5.2-5.6-18.8-10-37.6-9.2c2-8.8-7.2-15.6-18.8-18c-27.6-6-61.2,5.6-62,22.4
	c-1.6,35.2-1.6,35.2-1.6,35.2s0,0,72.8-0.8C354.8,188.8,378.8,172.8,366,159.2z"/>
<g>
</g>
<g>
</g>
<g>
</g>
<g>
</g>
<g>
</g>
<g>
</g>
<g>
</g>
<g>
</g>
<g>
</g>
<g>
</g>
<g>
</g>
<g>
</g>
<g>
</g>
<g>
</g>
<g>
</g>
</svg>
