<?xml version="1.0" encoding="iso-8859-1"?>
<!-- Generator: Adobe Illustrator 19.0.0, SVG Export Plug-In . SVG Version: 6.00 Build 0)  -->
<svg version="1.1" id="Layer_1" xmlns="http://www.w3.org/2000/svg" xmlns:xlink="http://www.w3.org/1999/xlink" x="0px" y="0px"
	 viewBox="0 0 504 504" style="enable-background:new 0 0 504 504;" xml:space="preserve">
<circle style="fill:#90DFAA;" cx="252" cy="252" r="252"/>
<rect x="115.6" y="226" style="fill:#324A5E;" width="272.8" height="183.2"/>
<path style="fill:#F1543F;" d="M316,158.8c7.2-7.2,11.2-16.4,11.2-26.8s-4-19.6-11.2-26.8C308.8,98,299.6,94,289.2,94
	c-10,0-19.6,4-26.8,11.2c-3.6,3.6-7.6,8.8-10.8,15.2c-3.2-6-7.2-11.6-10.8-15.2c-14.8-14.8-38.4-14.8-53.2,0s-14.8,38.4,0,53.2
	c2.8,2.8,6.8,5.6,10.8,8.4h106C309.2,164.4,313.2,161.6,316,158.8z M238.8,156.4L238.8,156.4c-1.6,1.6-7.2,2.4-15.6,0
	c-8-2.4-16-6.8-20.4-11.2c-6.8-6.8-6.8-18,0-24.8c3.6-3.6,8-5.2,12.4-5.2s8.8,1.6,12.4,5.2c6.8,6.8,12.4,20.4,12.8,29.2
	c0,0.8,0,1.2,0,1.6C240.4,153.6,240,155.2,238.8,156.4z M264.4,157.2L264.4,157.2c-1.2-1.2-1.6-2.8-1.6-5.2c0-0.8,0-1.2,0-2
	c0.4-9.2,6.4-23.2,13.6-30.4c3.6-3.6,8-5.2,12.8-5.2s9.6,2,12.8,5.2c3.6,3.6,5.2,8,5.2,12.8c0,4.8-2,9.6-5.2,12.8
	c-4.4,4.4-13.2,9.2-21.2,11.6C272,159.6,266,159.2,264.4,157.2z"/>
<polygon style="fill:#2B3B4E;" points="304.8,167.2 198.8,167.2 108,167.2 108,226 396,226 396,167.2 "/>
<polygon style="fill:#F1543F;" points="282.4,284.8 252,270.4 221.6,284.8 221.6,160 282.4,160 "/>
<path style="fill:#FFFFFF;" d="M252,306c9.2-11.2,21.6-13.6,30.8-10.4c22,8.4,27.2,39.6,8.4,59.2C252,395.6,252,395.6,252,395.6
	s0,0-39.2-40.8c-18.8-19.6-13.6-51.2,8.4-59.2C230.4,292.4,242.8,294.8,252,306z"/>
<g>
</g>
<g>
</g>
<g>
</g>
<g>
</g>
<g>
</g>
<g>
</g>
<g>
</g>
<g>
</g>
<g>
</g>
<g>
</g>
<g>
</g>
<g>
</g>
<g>
</g>
<g>
</g>
<g>
</g>
</svg>
