<?xml version="1.0" encoding="iso-8859-1"?>
<!-- Generator: Adobe Illustrator 19.0.0, SVG Export Plug-In . SVG Version: 6.00 Build 0)  -->
<svg version="1.1" id="Layer_1" xmlns="http://www.w3.org/2000/svg" xmlns:xlink="http://www.w3.org/1999/xlink" x="0px" y="0px"
	 viewBox="0 0 504 504" style="enable-background:new 0 0 504 504;" xml:space="preserve">
<circle style="fill:#FFD05B;" cx="252" cy="252" r="252"/>
<path style="fill:#FF7058;" d="M364.8,89.2c0,0-43.2,43.2-8,58.8c0,0,24,4.4,24-17.2C380.8,109.6,357.2,107.6,364.8,89.2z"/>
<path style="fill:#2B3B4E;" d="M260.8,389.2v-42h-25.6v42.4h-40.8c-7.2,0-12.8,5.6-12.8,12.8l0,0c0,7.2,5.6,12.8,12.8,12.8h40.8
	h25.6h40.8c7.2,0,12.8-5.6,12.8-12.8l0,0c0-7.2-5.6-12.8-12.8-12.8h-40.8V389.2z"/>
<path style="fill:#324A5E;" d="M391.6,267.2H334v25.6h16V324c0,4.8-3.6,8.4-8.4,8.4H162c-4.8,0-8.4-3.6-8.4-8.4v-31.6h16v-25.6
	h-57.2v25.6h16V324c0,18.8,15.2,34,34,34H342c18.8,0,34-15.2,34-34v-31.6h16v-25.2H391.6z"/>
<path style="fill:#FFFFFF;" d="M149.6,152.8h-16.8c-6.4,0-11.6,4.8-11.6,10.4v104h40v-104C161.2,157.6,156,152.8,149.6,152.8z"/>
<path style="fill:#54C0EB;" d="M371.2,152.8h-16.8c-6.4,0-11.6,4.8-11.6,10.4v104h40v-104C382.8,157.6,377.6,152.8,371.2,152.8z"/>
<path style="fill:#FFFFFF;" d="M362.8,148c-5.6,0-10.4-4.4-10.4-10.4c0-4,4.8-16.8,8.4-21.2c2.8,8,6.4,12.4,8.8,15.2s3.2,4,3.2,6
	C373.2,143.6,368.4,148,362.8,148z"/>
<path style="fill:#FF7058;" d="M143.2,89.2c0,0-43.2,43.2-8,58.8c0,0,24,4.4,24-17.2C159.2,109.6,135.6,107.6,143.2,89.2z"/>
<path style="fill:#FFFFFF;" d="M141.2,148c-5.6,0-10.4-4.4-10.4-10.4c0-4,4.8-16.8,8.4-21.2c2.8,8,6.4,12.4,8.8,15.2
	c2.4,2.8,3.2,4,3.2,6C151.2,143.6,146.8,148,141.2,148z"/>
<path style="fill:#FF7058;" d="M252,164.4c13.6-16.4,32-20.4,45.6-15.2c32.8,12.4,40.4,58.8,12.4,88c-58,60.4-58,60.4-58,60.4
	s0,0-58-60.4c-28-29.2-20.4-75.6,12.4-88C220,144,238.4,147.6,252,164.4z"/>
<g>
</g>
<g>
</g>
<g>
</g>
<g>
</g>
<g>
</g>
<g>
</g>
<g>
</g>
<g>
</g>
<g>
</g>
<g>
</g>
<g>
</g>
<g>
</g>
<g>
</g>
<g>
</g>
<g>
</g>
</svg>
