<?xml version="1.0" encoding="iso-8859-1"?>
<!-- Generator: Adobe Illustrator 19.0.0, SVG Export Plug-In . SVG Version: 6.00 Build 0)  -->
<svg version="1.1" id="Layer_1" xmlns="http://www.w3.org/2000/svg" xmlns:xlink="http://www.w3.org/1999/xlink" x="0px" y="0px"
	 viewBox="0 0 504 504" style="enable-background:new 0 0 504 504;" xml:space="preserve">
<circle style="fill:#90DFAA;" cx="252" cy="252" r="252"/>
<path style="fill:#324A5E;" d="M349.2,409.6H154.8c-4.4,0-8-3.6-8-8V102.4c0-4.4,3.6-8,8-8h194.4c4.4,0,8,3.6,8,8v298.8
	C357.2,406,353.6,409.6,349.2,409.6z"/>
<rect x="146.8" y="118" style="fill:#E6E9EE;" width="210.4" height="223.2"/>
<circle style="fill:#2B3B4E;" cx="252" cy="374" r="22"/>
<circle style="fill:#324A5E;" cx="252" cy="374" r="7.2"/>
<path style="fill:#F1543F;" d="M252,174.8c12.8-15.6,30.4-19.2,43.2-14.4c31.2,11.6,38.4,55.6,12,83.6
	C252,301.2,252,301.2,252,301.2s0,0-55.2-57.2c-26.8-28-19.2-72,11.6-83.6C221.6,155.6,239.2,158.8,252,174.8z"/>
<g>
</g>
<g>
</g>
<g>
</g>
<g>
</g>
<g>
</g>
<g>
</g>
<g>
</g>
<g>
</g>
<g>
</g>
<g>
</g>
<g>
</g>
<g>
</g>
<g>
</g>
<g>
</g>
<g>
</g>
</svg>
