<?xml version="1.0" encoding="iso-8859-1"?>
<!-- Generator: Adobe Illustrator 19.0.0, SVG Export Plug-In . SVG Version: 6.00 Build 0)  -->
<svg version="1.1" id="Layer_1" xmlns="http://www.w3.org/2000/svg" xmlns:xlink="http://www.w3.org/1999/xlink" x="0px" y="0px"
	 viewBox="0 0 504 504" style="enable-background:new 0 0 504 504;" xml:space="preserve">
<circle style="fill:#FFD05B;" cx="252" cy="252" r="252"/>
<path style="fill:#324A5E;" d="M284,300.8h-15.6c0-2.4-6.4-6.8-16.4-6.8s-16.4,4.4-16.4,6.8H220c0-12.4,14-22.4,32-22.4
	C270,278.8,284,288.4,284,300.8z"/>
<g>
	<path style="fill:#F1543F;" d="M114,310.8H94.4V177.2c0-28.4,13.2-55.6,36-73.2l9.6-7.2c4.4-3.2,10.4-2.8,14,1.6l0,0
		c3.2,4,2.8,10.4-1.6,13.6l-9.6,7.2c-18,14-28.8,35.6-28.8,58L114,310.8L114,310.8z"/>
	<path style="fill:#F1543F;" d="M390,310.8h19.6V177.2c0-28.4-13.2-55.6-36-73.2l-9.6-7.6c-4.4-3.2-10.4-2.8-14,1.6l0,0
		c-3.2,4-2.8,10.4,1.6,13.6l9.6,7.2c18,14,28.8,35.6,28.8,58V310.8z"/>
</g>
<g>
	<path style="fill:#2B3B4E;" d="M169.6,282.4c13.6-15.6,32-19.2,45.6-14.4c32.8,11.6,40.8,56,12.4,84c-58,57.6-58,57.6-58,57.6
		s0,0-58-57.6c-28-28-20.4-72.4,12.4-84C137.6,263.2,156.4,266.4,169.6,282.4z"/>
	<path style="fill:#2B3B4E;" d="M334.4,282.4c13.6-15.6,32-19.2,45.6-14.4c32.8,11.6,40.4,56,12.4,84c-58,57.6-58,57.6-58,57.6
		s0,0-58-57.6c-28-28-20.4-72.4,12.4-84C302,263.2,320.8,266.4,334.4,282.4z"/>
</g>
<g>
</g>
<g>
</g>
<g>
</g>
<g>
</g>
<g>
</g>
<g>
</g>
<g>
</g>
<g>
</g>
<g>
</g>
<g>
</g>
<g>
</g>
<g>
</g>
<g>
</g>
<g>
</g>
<g>
</g>
</svg>
