<?xml version="1.0" encoding="iso-8859-1"?>
<!-- Generator: Adobe Illustrator 19.0.0, SVG Export Plug-In . SVG Version: 6.00 Build 0)  -->
<svg version="1.1" id="Layer_1" xmlns="http://www.w3.org/2000/svg" xmlns:xlink="http://www.w3.org/1999/xlink" x="0px" y="0px"
	 viewBox="0 0 504 504" style="enable-background:new 0 0 504 504;" xml:space="preserve">
<circle style="fill:#84DBFF;" cx="252" cy="252" r="252"/>
<path style="fill:#324A5E;" d="M323.2,409.6H130.4c-8.8,0-16-7.2-16-16V110.8c0-8.8,7.2-16,16-16h192.8c8.8,0,16,7.2,16,16v282.8
	C339.2,402.4,332,409.6,323.2,409.6z"/>
<rect x="138" y="118" style="fill:#E6E9EE;" width="178" height="239.2"/>
<circle style="fill:#2B3B4E;" cx="226.8" cy="383.6" r="18.8"/>
<path style="fill:#F1543F;" d="M334.4,177.2c17.2-21.2,40.4-26,57.6-19.6c41.2,16,50.8,76,15.6,114c-73.2,77.6-73.2,77.6-73.2,77.6
	s0,0-72.8-78c-35.6-38-25.6-98,15.6-114C294,150.8,317.6,155.6,334.4,177.2z"/>
<g>
</g>
<g>
</g>
<g>
</g>
<g>
</g>
<g>
</g>
<g>
</g>
<g>
</g>
<g>
</g>
<g>
</g>
<g>
</g>
<g>
</g>
<g>
</g>
<g>
</g>
<g>
</g>
<g>
</g>
</svg>
