<?xml version="1.0" encoding="iso-8859-1"?>
<!-- Generator: Adobe Illustrator 19.0.0, SVG Export Plug-In . SVG Version: 6.00 Build 0)  -->
<svg version="1.1" id="Layer_1" xmlns="http://www.w3.org/2000/svg" xmlns:xlink="http://www.w3.org/1999/xlink" x="0px" y="0px"
	 viewBox="0 0 504 504" style="enable-background:new 0 0 504 504;" xml:space="preserve">
<circle style="fill:#84DBFF;" cx="252" cy="252" r="252"/>
<rect x="94.4" y="94.4" style="fill:#FFD05B;" width="315.2" height="85.2"/>
<rect x="94.4" y="180" style="fill:#2C9984;" width="315.2" height="229.6"/>
<rect x="118.8" y="198.4" style="fill:#E6E9EE;" width="266.8" height="192.8"/>
<g>
	<path style="fill:#324A5E;" d="M134.8,118.4v7.2h-17.2v8h16v7.2h-16v14.4h-8.4v-36.8C109.2,118.4,134.8,118.4,134.8,118.4z"/>
	<path style="fill:#324A5E;" d="M168.4,118.4v7.2H150v7.6h16.4v6.8H150v8h18.8v7.2h-27.2v-36.8C141.6,118.4,168.4,118.4,168.4,118.4
		z"/>
	<path style="fill:#324A5E;" d="M192.4,155.2h-16v-36.8h14.4c2.4,0,4.8,0.4,6.4,0.8c2,0.4,3.2,1.6,4,2.4c1.6,2,2.4,4,2.4,6.4
		c0,2.8-0.8,5.2-2.8,6.4c-0.8,0.4-1.2,0.8-1.2,0.8c-0.4,0-0.8,0.4-1.2,0.8c2.4,0.4,4,1.6,5.6,3.2c1.2,1.6,2,3.6,2,6
		s-0.8,4.8-2.8,6.8C200.8,154.4,197.6,155.2,192.4,155.2z M184.4,133.6h4c2.4,0,4-0.4,5.2-0.8c1.2-0.4,1.6-1.6,1.6-3.2
		c0-1.6-0.4-2.8-1.6-3.2c-1.2-0.4-2.8-0.8-5.2-0.8h-4V133.6z M184.4,148.4h5.6c2.4,0,4-0.4,5.2-0.8c1.2-0.4,1.6-1.6,1.6-3.6
		c0-1.6-0.8-2.8-2-3.2c-0.8-0.4-2.8-0.8-5.6-0.8h-4.8V148.4z"/>
	<path style="fill:#324A5E;" d="M242.4,130.8c0,6-2.4,9.6-6.8,11.6l9.2,13.2h-10l-8-11.6h-5.6v11.6h-8.4v-36.8h14
		c5.6,0,9.6,0.8,12.4,2.8C241.2,123.6,242.4,126.4,242.4,130.8z M232.4,135.2c1.2-0.8,1.6-2.4,1.6-4.4s-0.4-3.2-1.6-4
		c-1.2-0.8-2.8-1.2-5.6-1.2h-6v10.8h6C229.6,136.4,231.6,136,232.4,135.2z"/>
	<path style="fill:#324A5E;" d="M260.4,146c1.2,1.6,3.2,2.4,5.6,2.4s4-0.8,5.6-2.4c1.2-1.6,2-4,2-6.8v-20.4h8.4v20.4
		c0,5.2-1.6,9.6-4.4,12.4c-2.8,2.8-6.8,4.4-11.2,4.4c-4.4,0-8.4-1.6-11.2-4.4c-2.8-2.8-4.4-6.8-4.4-12.4v-20.4h8.4v20.4
		C258.4,142,259.2,144,260.4,146z"/>
	<path style="fill:#324A5E;" d="M315.6,155.2l-3.6-8h-15.6l-3.6,8H284l16-36.8h8l16,36.8H315.6z M304.4,129.6l-4.8,10.4h9.2
		L304.4,129.6z"/>
	<path style="fill:#324A5E;" d="M358.4,130.8c0,6-2.4,9.6-6.8,11.6l9.2,13.2h-10l-8-11.6h-5.6v11.6h-8.4v-36.8h14
		c5.6,0,9.6,0.8,12.4,2.8C357.2,123.6,358.4,126.4,358.4,130.8z M348.4,135.2c1.2-0.8,1.6-2.4,1.6-4.4s-0.4-3.2-1.6-4
		s-2.8-1.2-5.6-1.2h-6v10.8h6C345.6,136.4,347.2,136,348.4,135.2z"/>
	<path style="fill:#324A5E;" d="M381.6,155.2h-8v-14.4l-12.8-22.4h8.8l8,13.6l8-13.6h8.8l-12.8,22.4V155.2z"/>
</g>
<path style="fill:#FF7058;" d="M252,237.6c13.2-16.4,31.6-20,44.8-14.8c32,12,39.6,57.6,12,86.4C252,368.4,252,368.4,252,368.4
	s0,0-56.8-59.2c-27.6-28.8-20-74.4,12-86.4C220.4,218,238.8,221.6,252,237.6z"/>
<g>
	<path style="fill:#FFFFFF;" d="M209.6,250.4h26v64.8h-14v-52.4h-12.4v-12.4H209.6z"/>
	<path style="fill:#FFFFFF;" d="M273.2,287.2V276h14v11.2h7.2v12.4h-7.2v15.6h-14v-15.6h-26v-11.2l23.2-38.4H286l-22,37.2H273.2z"/>
</g>
<g>
</g>
<g>
</g>
<g>
</g>
<g>
</g>
<g>
</g>
<g>
</g>
<g>
</g>
<g>
</g>
<g>
</g>
<g>
</g>
<g>
</g>
<g>
</g>
<g>
</g>
<g>
</g>
<g>
</g>
</svg>
