<?xml version="1.0" encoding="iso-8859-1"?>
<!-- Generator: Adobe Illustrator 19.0.0, SVG Export Plug-In . SVG Version: 6.00 Build 0)  -->
<svg version="1.1" id="Layer_1" xmlns="http://www.w3.org/2000/svg" xmlns:xlink="http://www.w3.org/1999/xlink" x="0px" y="0px"
	 viewBox="0 0 504 504" style="enable-background:new 0 0 504 504;" xml:space="preserve">
<circle style="fill:#FFD05B;" cx="252" cy="252" r="252"/>
<rect x="94.4" y="94.4" style="fill:#324A5E;" width="315.2" height="315.2"/>
<g>
	<rect x="118" y="163.6" style="fill:#FFFFFF;" width="267.6" height="222.4"/>
	<circle style="fill:#FFFFFF;" cx="175.6" cy="129.2" r="16.8"/>
	<circle style="fill:#FFFFFF;" cx="328.4" cy="129.2" r="16.8"/>
</g>
<path style="fill:#4CDBC4;" d="M322.8,120H183.6c-4.8,0-8.8,4-8.8,8.8s4,8.8,8.8,8.8h139.2c4.8,0,8.8-4,8.8-8.8
	C331.6,124,327.6,120,322.8,120z"/>
<path style="fill:#F1543F;" d="M252,213.2c15.2-18.4,36-22.8,51.2-17.2c36.8,13.6,45.6,66,14,99.2c-65.2,68-65.2,68-65.2,68
	s0,0-65.2-68c-31.6-32.8-22.8-85.2,14-99.2C216,190.8,236.8,194.8,252,213.2z"/>
<g>
	<path style="fill:#FFFFFF;" d="M200.4,222H232v78.4h-16.8v-63.6h-14.8V222z"/>
	<path style="fill:#FFFFFF;" d="M278,266.4v-13.6h16.8v13.6h8.8v15.2h-8.8v18.8H278v-18.8h-31.6v-13.2l28-46.4h19.2l-26.8,44.4H278z
		"/>
</g>
<g>
</g>
<g>
</g>
<g>
</g>
<g>
</g>
<g>
</g>
<g>
</g>
<g>
</g>
<g>
</g>
<g>
</g>
<g>
</g>
<g>
</g>
<g>
</g>
<g>
</g>
<g>
</g>
<g>
</g>
</svg>
