<?xml version="1.0" encoding="iso-8859-1"?>
<!-- Generator: Adobe Illustrator 19.0.0, SVG Export Plug-In . SVG Version: 6.00 Build 0)  -->
<svg version="1.1" id="Layer_1" xmlns="http://www.w3.org/2000/svg" xmlns:xlink="http://www.w3.org/1999/xlink" x="0px" y="0px"
	 viewBox="0 0 504 504" style="enable-background:new 0 0 504 504;" xml:space="preserve">
<circle style="fill:#324A5E;" cx="252" cy="252" r="252"/>
<path style="fill:#FFD05B;" d="M308.8,206.4c-2.4,0-4.4-0.4-6.8-0.4c-6.4,0-12.8,0.8-18.8,1.6c-48,8.4-85.2,49.2-88,99.2
	c2.4,0,4.4,0.4,6.8,0.4c6.8,0,13.2-0.8,19.6-2.4c7.2-30.4,30.8-54.4,61.2-62c6.4-1.6,12.8-2.4,19.6-2.4c1.2,0,2.4,0,3.6,0
	c44,2,79.2,38.4,79.2,82.8c0,46-37.2,82.8-82.8,82.8s-82.8-37.2-82.8-82.8c0-1.2,0-2.4,0-3.6c-5.6,0.8-11.6,1.6-17.6,1.6
	c-2.4,0-4.4,0-6.8-0.4c4,55.6,50.4,99.6,107.2,99.6c59.2,0,107.2-48,107.2-107.2C409.6,256.4,365.2,210,308.8,206.4z"/>
<path style="fill:#E6E9EE;" d="M282.8,243.2c-7.2,30.4-30.8,54.4-61.2,62c-6.4,1.6-12.8,2.4-19.6,2.4c-2.4,0-4.4,0-6.8-0.4
	c-42.8-3.6-76-39.2-76-82.8c0-46,37.2-82.8,82.8-82.8c40,0,73.6,28.4,81.2,66.4c6-1.2,12.4-1.6,18.8-1.6c2.4,0,4.4,0,6.8,0.4
	c-4-55.6-50.4-99.6-107.2-99.6c-59.2,0-107.2,48-107.2,107.2c0,57.2,44.4,103.6,100.8,107.2c2.4,0,4.4,0.4,6.8,0.4
	c6,0,11.6-0.4,17.6-1.6c42-6.8,76-38.4,86.4-79.2c-1.2,0-2.4,0-3.6,0C295.6,240.8,288.8,241.6,282.8,243.2z"/>
<g>
</g>
<g>
</g>
<g>
</g>
<g>
</g>
<g>
</g>
<g>
</g>
<g>
</g>
<g>
</g>
<g>
</g>
<g>
</g>
<g>
</g>
<g>
</g>
<g>
</g>
<g>
</g>
<g>
</g>
</svg>
