<?xml version="1.0" encoding="iso-8859-1"?>
<!-- Generator: Adobe Illustrator 19.0.0, SVG Export Plug-In . SVG Version: 6.00 Build 0)  -->
<svg version="1.1" id="Layer_1" xmlns="http://www.w3.org/2000/svg" xmlns:xlink="http://www.w3.org/1999/xlink" x="0px" y="0px"
	 viewBox="0 0 504 504" style="enable-background:new 0 0 504 504;" xml:space="preserve">
<circle style="fill:#FFD05B;" cx="252" cy="252" r="252"/>
<rect x="94.4" y="94.4" style="fill:#FF7058;" width="315.2" height="315.2"/>
<g>
	<rect x="114.8" y="106.4" style="fill:#F1543F;" width="40.8" height="40.8"/>
	<rect x="114.8" y="189.6" style="fill:#F1543F;" width="40.8" height="40.8"/>
	<rect x="114.8" y="273.2" style="fill:#F1543F;" width="40.8" height="40.8"/>
	<rect x="114.8" y="356.8" style="fill:#F1543F;" width="40.8" height="40.8"/>
	<rect x="348.4" y="106.4" style="fill:#F1543F;" width="40.8" height="40.8"/>
	<rect x="348.4" y="189.6" style="fill:#F1543F;" width="40.8" height="40.8"/>
	<rect x="348.4" y="273.2" style="fill:#F1543F;" width="40.8" height="40.8"/>
	<rect x="348.4" y="356.8" style="fill:#F1543F;" width="40.8" height="40.8"/>
</g>
<path style="fill:#FFFFFF;" d="M252,195.2c14-16,32.8-20,46.8-14.8c33.2,12,41.2,57.6,12.4,86C252,325.6,252,325.6,252,325.6
	s0,0-59.2-59.2c-28.8-28.4-20.8-74,12.4-86C219.2,175.6,238,179.2,252,195.2z"/>
<polygon style="fill:#324A5E;" points="234.8,211.6 234.8,277.6 284.4,244.4 "/>
<g>
</g>
<g>
</g>
<g>
</g>
<g>
</g>
<g>
</g>
<g>
</g>
<g>
</g>
<g>
</g>
<g>
</g>
<g>
</g>
<g>
</g>
<g>
</g>
<g>
</g>
<g>
</g>
<g>
</g>
</svg>
