<?xml version="1.0" encoding="iso-8859-1"?>
<!-- Generator: Adobe Illustrator 19.0.0, SVG Export Plug-In . SVG Version: 6.00 Build 0)  -->
<svg version="1.1" id="Layer_1" xmlns="http://www.w3.org/2000/svg" xmlns:xlink="http://www.w3.org/1999/xlink" x="0px" y="0px"
	 viewBox="0 0 504 504" style="enable-background:new 0 0 504 504;" xml:space="preserve">
<circle style="fill:#FD8469;" cx="252" cy="252" r="252"/>
<g>
	<path style="fill:#FFFFFF;" d="M160.4,102.8v96.4c0,50.8,41.2,91.6,91.6,91.6s91.6-41.2,91.6-91.6v-96.4H160.4z"/>
	<path style="fill:#FFFFFF;" d="M302.4,401.2c-1.2-3.6-6.4-6.8-14.4-8.8c-13.6-4-22.8-15.2-22.8-27.6V290c-4.4,0.4-8.8,0.8-13.6,0.8
		c-4.4,0-9.2-0.4-13.6-0.8v74.4c0,12.4-9.2,23.6-22.8,27.6c-8,2.4-13.2,5.6-14.4,8.8h101.6V401.2z"/>
</g>
<path style="fill:#4CDBC4;" d="M309.6,153.2c-9.6,0.4-18.8-4.8-28-3.2c-5.6,0.8-10.4,3.6-16,4.4c-10.4,1.2-20-5.6-30.4-4.8
	c-6,0.4-11.6,3.2-17.2,5.6c-5.6,2-12.4,3.2-17.6,0c-2-1.2-4-3.2-6-4.4c-2.8-1.6-6-1.6-8.8-1.6c-4.4,0.4-8.8,1.6-13.2,2.8v47.2
	c0,44,36,80,80,80s80-36,80-80v-50.4c-3.6,0.4-7.2,1.2-10.8,2C317.2,151.6,313.6,152.8,309.6,153.2z"/>
<g>
</g>
<g>
</g>
<g>
</g>
<g>
</g>
<g>
</g>
<g>
</g>
<g>
</g>
<g>
</g>
<g>
</g>
<g>
</g>
<g>
</g>
<g>
</g>
<g>
</g>
<g>
</g>
<g>
</g>
</svg>
