<?xml version="1.0" encoding="iso-8859-1"?>
<!-- Generator: Adobe Illustrator 19.0.0, SVG Export Plug-In . SVG Version: 6.00 Build 0)  -->
<svg version="1.1" id="Layer_1" xmlns="http://www.w3.org/2000/svg" xmlns:xlink="http://www.w3.org/1999/xlink" x="0px" y="0px"
	 viewBox="0 0 504 504" style="enable-background:new 0 0 504 504;" xml:space="preserve">
<circle style="fill:#FD8469;" cx="252" cy="252" r="252"/>
<g>
	
		<rect x="334.735" y="132.937" transform="matrix(-0.7071 -0.7071 0.7071 -0.7071 523.0081 496.5102)" style="fill:#2B3B4E;" width="59.199" height="14"/>
	
		<rect x="315.908" y="151.673" transform="matrix(-0.7071 -0.7071 0.7071 -0.7071 477.6201 515.1819)" style="fill:#2B3B4E;" width="59.199" height="14"/>
	
		<rect x="297.081" y="170.417" transform="matrix(-0.7071 -0.7071 0.7071 -0.7071 432.2264 533.8673)" style="fill:#2B3B4E;" width="59.199" height="14"/>
</g>
<path style="fill:#324A5E;" d="M400.8,140c2.4-0.4,4.4-1.2,6-2.8c6-6,2-20-9.2-31.2s-24.8-15.2-31.2-9.2c-1.6,1.6-2.4,3.6-2.8,6
	c-1.6,12-8,22-16,30L264,209.2l0,0l-2.4,2.4l-2.4,2l0,0l0,0c2.4,1.2,4.4,2.8,6.8,4.4l0,0c2.8,2,5.6,4,8,6.4l0,0
	c0.8,0.8,2,1.6,2.8,2.8c0.8,0.8,1.6,2,2.8,2.8l0,0c2.4,2.4,4.4,5.2,6.4,8l0,0c1.6,2.4,2.8,4.4,4.4,6.8l0,0l0,0l2-2.4l2.4-2.4l0,0
	l76-83.6C378.8,148,388.8,141.6,400.8,140z"/>
<path style="fill:#FFD05B;" d="M252.4,357.6c3.2-11.6,10-22,20-28.8c3.2-2,6.4-4.4,9.2-7.6c20-20,22.4-50.8,8.4-76.4l0,0
	L175.2,359.6l-5.6-5.6L286,237.6c-2-2.8-4-5.6-6.4-8L162.4,346.8l-5.6-5.6L274,224c-2.4-2.4-5.2-4.4-8-6.4L149.6,334.4l-5.6-5.6
	l115.2-115.2l0,0c-25.6-14-56.8-11.2-76.4,8.4c-2.8,2.8-5.2,6-7.6,9.2c-6.8,10-17.2,17.2-28.8,20c-11.6,3.2-22.4,9.2-31.2,18
	C85.6,298.8,88,350,120.8,382.8s83.6,35.6,113.6,5.6C243.6,380,249.2,369.2,252.4,357.6z"/>
<g>
	<path style="fill:#ACB3BA;" d="M149.6,334.4L266,218c-2.4-1.6-4.4-2.8-6.8-4.4L144.4,328.8L149.6,334.4z"/>
	<path style="fill:#ACB3BA;" d="M162.4,346.8l117.2-117.2c-0.8-0.8-1.6-2-2.8-2.8c-0.8-0.8-2-1.6-2.8-2.8L157.2,341.6L162.4,346.8z"
		/>
	<path style="fill:#ACB3BA;" d="M175.2,359.6l115.2-115.2c-1.2-2.4-2.8-4.4-4.4-6.8L169.6,354.4L175.2,359.6z"/>
</g>
<circle style="fill:#FFFFFF;" cx="217.6" cy="286.4" r="32.8"/>
<circle style="fill:#FF7058;" cx="217.6" cy="286.4" r="18.8"/>
<rect x="125.141" y="339.349" transform="matrix(-0.7071 -0.7071 0.7071 -0.7071 27.6134 701.7351)" style="fill:#324A5E;" width="67.999" height="11.6"/>
<g>
</g>
<g>
</g>
<g>
</g>
<g>
</g>
<g>
</g>
<g>
</g>
<g>
</g>
<g>
</g>
<g>
</g>
<g>
</g>
<g>
</g>
<g>
</g>
<g>
</g>
<g>
</g>
<g>
</g>
</svg>
