<?xml version="1.0" encoding="iso-8859-1"?>
<!-- Generator: Adobe Illustrator 19.0.0, SVG Export Plug-In . SVG Version: 6.00 Build 0)  -->
<svg version="1.1" id="Layer_1" xmlns="http://www.w3.org/2000/svg" xmlns:xlink="http://www.w3.org/1999/xlink" x="0px" y="0px"
	 viewBox="0 0 504 504" style="enable-background:new 0 0 504 504;" xml:space="preserve">
<circle style="fill:#FD8469;" cx="252" cy="252" r="252"/>
<polygon style="fill:#4CDBC4;" points="349.6,409.6 252,338.8 154.4,409.6 154.4,94.4 349.6,94.4 "/>
<path style="fill:#E6E9EE;" d="M252,156.4c14.4-17.2,34-21.2,48.4-16c34.4,12.8,42.8,61.6,13.2,92.4C252,296,252,296,252,296
	s0,0-61.2-63.2c-29.6-30.8-21.6-79.6,13.2-92.4C218,134.8,237.6,138.8,252,156.4z"/>
<g>
	<path style="fill:#324A5E;" d="M200.4,210.8v-28h6.4v22.4h12v5.6H200.4z"/>
	<path style="fill:#324A5E;" d="M246.4,206.8c-2.8,2.8-6.4,4-10.4,4s-7.6-1.2-10.4-4c-2.8-2.8-4.4-6.4-4.4-10.4s1.6-7.6,4.4-10.4
		c2.8-2.8,6.4-4,10.4-4s7.6,1.2,10.4,4c2.8,2.8,4.4,6.4,4.4,10.4C250.4,200.8,249.2,204,246.4,206.8z M244,196.4
		c0-2.4-0.8-4.8-2.4-6.4c-1.6-1.6-3.6-2.8-6-2.8s-4.4,0.8-6,2.8c-1.6,1.6-2.4,4-2.4,6.4s0.8,4.8,2.4,6.4c1.6,1.6,3.6,2.8,6,2.8
		s4.4-0.8,6-2.8C243.2,201.2,244,199.2,244,196.4z"/>
	<path style="fill:#324A5E;" d="M265.6,200.4l7.2-18h6.8l-11.2,28h-5.2l-11.2-28h6.8L265.6,200.4z"/>
	<path style="fill:#324A5E;" d="M303.2,182.8v5.6h-14v5.6h12.4v5.2h-12.4v6h14.4v5.6h-20.8v-28L303.2,182.8L303.2,182.8z"/>
</g>
<g>
</g>
<g>
</g>
<g>
</g>
<g>
</g>
<g>
</g>
<g>
</g>
<g>
</g>
<g>
</g>
<g>
</g>
<g>
</g>
<g>
</g>
<g>
</g>
<g>
</g>
<g>
</g>
<g>
</g>
</svg>
