<?xml version="1.0" encoding="iso-8859-1"?>
<!-- Generator: Adobe Illustrator 19.0.0, SVG Export Plug-In . SVG Version: 6.00 Build 0)  -->
<svg version="1.1" id="Layer_1" xmlns="http://www.w3.org/2000/svg" xmlns:xlink="http://www.w3.org/1999/xlink" x="0px" y="0px"
	 viewBox="0 0 504 504" style="enable-background:new 0 0 504 504;" xml:space="preserve">
<circle style="fill:#90DFAA;" cx="252" cy="252" r="252"/>
<path style="fill:#FF7058;" d="M204.4,212.4c-60.8,0-110,38-110,84.8c0,20.8,9.6,39.6,25.6,54.4l-22.4,48l56.4-27.2
	c15.2,6,32,9.2,50.4,9.2c60.8,0,110-38,110-84.8C314,250.4,264.8,212.4,204.4,212.4z"/>
<path style="fill:#FFFFFF;" d="M204.4,268c8.4-10.8,20.4-13.2,28.8-10c20.8,8,25.6,38.4,8,57.6c-36.8,39.2-36.8,39.2-36.8,39.2
	s0,0-36.8-39.2c-18-19.2-12.8-49.6,8-57.6C184,254.8,195.6,257.2,204.4,268z"/>
<path style="fill:#324A5E;" d="M409.6,204.8c0-46.8-49.2-84.8-110-84.8c-59.2,0-107.2,36-109.6,80.8c4.8-0.4,9.6-0.8,14.4-0.8
	c62.8,0,114.8,38,121.2,86.8c8.8-1.6,16.8-4,24.4-7.2l56.4,27.2l-22.4-48C400,244.4,409.6,225.6,409.6,204.8z"/>
<g>
</g>
<g>
</g>
<g>
</g>
<g>
</g>
<g>
</g>
<g>
</g>
<g>
</g>
<g>
</g>
<g>
</g>
<g>
</g>
<g>
</g>
<g>
</g>
<g>
</g>
<g>
</g>
<g>
</g>
</svg>
