<?xml version="1.0" encoding="iso-8859-1"?>
<!-- Generator: Adobe Illustrator 19.0.0, SVG Export Plug-In . SVG Version: 6.00 Build 0)  -->
<svg version="1.1" id="Layer_1" xmlns="http://www.w3.org/2000/svg" xmlns:xlink="http://www.w3.org/1999/xlink" x="0px" y="0px"
	 viewBox="0 0 504 504" style="enable-background:new 0 0 504 504;" xml:space="preserve">
<circle style="fill:#84DBFF;" cx="252" cy="252" r="252"/>
<path style="fill:#FF7058;" d="M347.6,118.8c-28.4-10.8-67.2-3.2-95.6,31.6c-4.4-5.2-8.8-9.6-13.6-13.6c-5.2-4.4-10.8-8.4-16.4-11.6
	c-22.4-12.4-46.4-13.6-66-6.4c-50,18.8-72.4,76-57.2,129.6c2,6.8,4.4,13.6,7.6,20.4c6,12,13.6,24,24,34.4
	c121.6,126,121.6,126,121.6,126s0,0,121.2-126.4C432.4,241.6,416,144.4,347.6,118.8z"/>
<polygon style="fill:#AF1E17;" points="212,280.4 195.6,277.6 182.8,287.6 168.8,231.6 198,224.4 "/>
<polygon style="fill:#CE3728;" points="247.2,246.8 244.4,230.8 254.4,217.6 198,203.6 190.8,233.2 "/>
<path style="fill:#F1543F;" d="M177.6,194.8c1.6-12.8,4.4-22.4,8.4-30.8c2-4.4,4.4-9.2,8-12c4-3.2,9.6-3.6,14.8-2.4
	c4.8,1.2,9.2,4.8,12.4,8.8c3.2,4.4,5.2,9.6,9.2,13.2c3.6,3.2,8.4,4.8,11.2,8.8c3.6,5.2,1.6,12.8-2.4,18c-6,8.4-15.6,13.2-25.2,16
	c-9.6,2.4-20,2.8-30,3.2c-1.2-9.2-4.4-18.4-9.6-26.4"/>
<path style="fill:#CE3728;" d="M203.6,204.8c2-5.6,4.8-11.2,8.4-15.6c4-4.4,9.2-8,15.2-8.8c3.6-0.4,7.2,0.4,9.2,3.2s1.6,6.8,0,10
	s-4.8,5.2-7.6,7.2c-7.6,5.2-16.4,9.6-26,10"/>
<path style="fill:#F1543F;" d="M159.2,212.8c-12.8,2.8-21.6,6.4-30,11.2c-4.4,2.4-8.8,5.2-11.2,9.2c-2.8,4.4-2.8,10-1.2,14.8
	c2,4.8,5.6,8.8,10,11.6c4.8,2.8,10,4.4,14,8c3.6,3.2,5.6,8,9.6,10.4c5.6,3.2,12.8,0.4,17.6-4c7.6-6.8,12-16.4,13.6-26.4
	s1.2-20.4,0.4-30.4c-9.2-0.4-18.8-2.8-26.8-7.2"/>
<g>
	<path style="fill:#CE3728;" d="M171.2,237.6c-5.2,2.8-10.8,5.6-14.8,10c-4.4,4.4-7.2,10-7.2,16c0,3.6,1.2,7.2,4,8.8
		c3.2,2,7.2,1.2,10-0.8s4.8-5.2,6.8-8.4c4.4-8,8-17.2,7.6-26.4"/>
	<circle style="fill:#CE3728;" cx="176.8" cy="212.8" r="25.2"/>
</g>
<g>
</g>
<g>
</g>
<g>
</g>
<g>
</g>
<g>
</g>
<g>
</g>
<g>
</g>
<g>
</g>
<g>
</g>
<g>
</g>
<g>
</g>
<g>
</g>
<g>
</g>
<g>
</g>
<g>
</g>
</svg>
