<?xml version="1.0" encoding="iso-8859-1"?>
<!-- Generator: Adobe Illustrator 19.0.0, SVG Export Plug-In . SVG Version: 6.00 Build 0)  -->
<svg version="1.1" id="Layer_1" xmlns="http://www.w3.org/2000/svg" xmlns:xlink="http://www.w3.org/1999/xlink" x="0px" y="0px"
	 viewBox="0 0 504 504" style="enable-background:new 0 0 504 504;" xml:space="preserve">
<circle style="fill:#324A5E;" cx="252" cy="252" r="252"/>
<g>
	<path style="fill:#FFD05B;" d="M124.8,130.8c-40,39.2-42.4,114,6,164c10,10.4,19.2,20,27.6,28.8L238,244L124.8,130.8z"/>
	<path style="fill:#FFD05B;" d="M345.6,324c8.4-8.8,17.6-18.4,27.6-28.8c48.4-50.4,46-124.8,6-164L266,244L345.6,324z"/>
	<path style="fill:#FFD05B;" d="M363.6,118.8c-4.8-3.2-10.4-5.6-16-8c-28.4-10.8-67.2-2.8-95.6,31.6c-28.4-34.4-67.2-42.4-95.6-31.6
		c-5.6,2-11.2,4.8-16,8L252,230.4L363.6,118.8z"/>
	<path style="fill:#FFD05B;" d="M172,338c80,83.2,80,83.2,80,83.2s0,0,80-83.2l-80-80L172,338z"/>
</g>
<path style="fill:#F1543F;" d="M266,244l113.2-113.2c-4.8-4.4-10-8.8-15.6-12.4L252,230.4L140.4,118.8c-5.6,3.6-10.8,7.6-15.6,12.4
	L238,244l-79.6,80c4.8,4.8,9.2,9.6,13.6,14l80-80l80,80c4.4-4.4,8.8-9.2,13.6-14L266,244z"/>
<g>
	<path style="fill:#FF7058;" d="M262,254.8c0,0-18.4,66-38,66.8c-16.8,0.8-50-32.4-49.2-49.2c1.2-19.6,69.2-36,69.2-36L262,254.8z"
		/>
	<path style="fill:#FF7058;" d="M244,236.4c0,0,16.4-68,35.6-68.8c16.8-0.8,50,32.4,49.2,49.2C328,236,261.6,252,261.6,252
		L244,236.4z"/>
</g>
<path style="fill:#F1543F;" d="M237.6,205.6L213.2,230c-2.8,2.8-2.8,7.2,0,10.4l42.8,42.8c2.8,2.8,7.2,2.8,10.4,0l24.4-24.4
	c2.8-2.8,2.8-7.2,0-10.4L248,205.6C245.2,202.8,240.8,202.8,237.6,205.6z"/>
<g>
</g>
<g>
</g>
<g>
</g>
<g>
</g>
<g>
</g>
<g>
</g>
<g>
</g>
<g>
</g>
<g>
</g>
<g>
</g>
<g>
</g>
<g>
</g>
<g>
</g>
<g>
</g>
<g>
</g>
</svg>
