<?xml version="1.0" encoding="iso-8859-1"?>
<!-- Generator: Adobe Illustrator 19.0.0, SVG Export Plug-In . SVG Version: 6.00 Build 0)  -->
<svg version="1.1" id="Layer_1" xmlns="http://www.w3.org/2000/svg" xmlns:xlink="http://www.w3.org/1999/xlink" x="0px" y="0px"
	 viewBox="0 0 504 504" style="enable-background:new 0 0 504 504;" xml:space="preserve">
<path style="fill:#84DBFF;" d="M504,252C504,112.8,391.2,0,252,0S0,112.8,0,252c0,31.6,6,62,16.4,90h470.8
	C498,314,504,283.6,504,252z"/>
<path style="fill:#4CDBC4;" d="M16.4,342c36.4,94.8,128,162,235.6,162s199.2-67.2,235.6-162H16.4z"/>
<path style="fill:#FFFFFF;" d="M310.4,100c13.6-5.2,25.6-1.2,31.6,6.4c14.8,18,4,48-22.4,55.6c-54,15.6-54,15.6-54,15.6
	s0,0-13.6-54.8C245.6,96.4,265.6,72,288.8,76C298.4,77.6,308,86,310.4,100z"/>
<path style="fill:#F1543F;" d="M175.6,102c1.2-14.4,10-23.6,19.6-26C218,70,240,92.8,236,120c-8.8,55.6-8.8,55.6-8.8,55.6
	s0,0-55.2-11.2c-26.8-5.2-40.4-34-27.2-53.6C150,102.8,162,98,175.6,102z"/>
<g>
	<polygon style="fill:#FFFFFF;" points="254.4,350 140.4,187.6 364.8,187.6 	"/>
	<path style="fill:#FFFFFF;" d="M302.4,436.8c-2-4.8-10.8-8.8-23.6-11.2c-8.4-1.6-14-8.8-14-16.8v-74.4H244v74.4c0,8-6,15.2-14,16.8
		c-12.4,2.4-21.2,6.4-23.6,11.2H302.4z"/>
</g>
<path style="fill:#FF7058;" d="M326.4,226c-10,0.8-19.6,0.4-28-4.4c-3.2-2-6.4-4.4-10-5.6c-2.8-0.8-5.6-0.8-8-0.4
	c-11.2,0.8-22,4.4-33.2,6.4s-22.8,2.8-33.2-1.2c-3.6-1.2-7.2-3.2-10.8-4.4c-8.8-2-17.6,1.6-26.4,5.6l70.4,100.4c4.8,0,9.2,0,14,0
	L326.4,226z"/>
<g>
</g>
<g>
</g>
<g>
</g>
<g>
</g>
<g>
</g>
<g>
</g>
<g>
</g>
<g>
</g>
<g>
</g>
<g>
</g>
<g>
</g>
<g>
</g>
<g>
</g>
<g>
</g>
<g>
</g>
</svg>
