<?xml version="1.0" encoding="iso-8859-1"?>
<!-- Generator: Adobe Illustrator 19.0.0, SVG Export Plug-In . SVG Version: 6.00 Build 0)  -->
<svg version="1.1" id="Layer_1" xmlns="http://www.w3.org/2000/svg" xmlns:xlink="http://www.w3.org/1999/xlink" x="0px" y="0px"
	 viewBox="0 0 504 504" style="enable-background:new 0 0 504 504;" xml:space="preserve">
<circle style="fill:#90DFAA;" cx="252" cy="252" r="252"/>
<polygon style="fill:#2B3B4E;" points="358.4,107.6 369.6,119.2 333.6,155.2 348.8,170.4 384.8,134.4 396.4,145.6 409.6,94.4 "/>
<path style="fill:#FF7058;" d="M238,155.2c26-31.6,61.2-38.8,87.2-28.8c62.4,23.2,77.2,112,23.6,168C238,409.6,238,409.6,238,409.6
	s0,0-110.8-115.2c-53.6-56-38.8-144.8,23.6-168C176.8,116.4,212.4,123.6,238,155.2z"/>
<polygon style="fill:#324A5E;" points="94.4,374 125.2,378.8 157.6,346.4 126.8,341.6 "/>
<polygon style="fill:#2B3B4E;" points="130,409.6 125.2,378.8 157.6,346.4 162.4,377.2 "/>
<path style="fill:#324A5E;" d="M268.4,246.4c0-6-4.8-10.8-10.8-10.8c-2.8,0-5.6,1.2-7.6,3.2l-132.4,132l15.2,15.2l132.4-132.4l0,0
	C267.2,252,268.4,249.2,268.4,246.4z"/>
<g>
</g>
<g>
</g>
<g>
</g>
<g>
</g>
<g>
</g>
<g>
</g>
<g>
</g>
<g>
</g>
<g>
</g>
<g>
</g>
<g>
</g>
<g>
</g>
<g>
</g>
<g>
</g>
<g>
</g>
</svg>
