<?xml version="1.0" encoding="iso-8859-1"?>
<!-- Generator: Adobe Illustrator 19.0.0, SVG Export Plug-In . SVG Version: 6.00 Build 0)  -->
<svg version="1.1" id="Layer_1" xmlns="http://www.w3.org/2000/svg" xmlns:xlink="http://www.w3.org/1999/xlink" x="0px" y="0px"
	 viewBox="0 0 504 504" style="enable-background:new 0 0 504 504;" xml:space="preserve">
<circle style="fill:#FD8469;" cx="252" cy="252" r="252"/>
<path style="fill:#324A5E;" d="M252,147.6c-76.8,0-139.2,62.4-139.2,139.2S175.2,426,252,426s139.2-62,139.2-138.8
	S328.8,147.6,252,147.6z M252,407.6c-59.2,0-107.2-48-107.2-107.2s48-107.2,107.2-107.2s107.2,48,107.2,107.2S311.2,407.6,252,407.6
	z"/>
<g>
	<polygon style="fill:#ACB3BA;" points="168,109.2 252,203.6 196,109.2 	"/>
	<polygon style="fill:#ACB3BA;" points="308,109.2 252,203.6 336,109.2 	"/>
</g>
<g>
	<polygon style="fill:#FFFFFF;" points="196,109.2 252,203.6 228.8,109.2 	"/>
	<polygon style="fill:#FFFFFF;" points="275.2,109.2 252,203.6 308,109.2 	"/>
</g>
<polygon style="fill:#ACB3BA;" points="228.8,109.2 252,203.6 275.2,109.2 "/>
<g>
	<polygon style="fill:#E6E9EE;" points="252,109.2 289.2,109.2 270.4,77.6 	"/>
	<polygon style="fill:#E6E9EE;" points="168,109.2 214.4,109.2 196,77.6 	"/>
	<polygon style="fill:#E6E9EE;" points="214.4,109.2 252,109.2 233.2,77.6 	"/>
	<polygon style="fill:#E6E9EE;" points="308,77.6 289.2,109.2 336,109.2 	"/>
</g>
<g>
	<polygon style="fill:#ACB3BA;" points="196,77.6 196,77.6 214.4,109.2 233.2,77.6 	"/>
	<polygon style="fill:#ACB3BA;" points="233.2,77.6 252,109.2 270.4,77.6 	"/>
	<polygon style="fill:#ACB3BA;" points="270.4,77.6 289.2,109.2 308,77.6 	"/>
</g>
<g>
</g>
<g>
</g>
<g>
</g>
<g>
</g>
<g>
</g>
<g>
</g>
<g>
</g>
<g>
</g>
<g>
</g>
<g>
</g>
<g>
</g>
<g>
</g>
<g>
</g>
<g>
</g>
<g>
</g>
</svg>
