<?xml version="1.0" encoding="iso-8859-1"?>
<!-- Generator: Adobe Illustrator 19.0.0, SVG Export Plug-In . SVG Version: 6.00 Build 0)  -->
<svg version="1.1" id="Layer_1" xmlns="http://www.w3.org/2000/svg" xmlns:xlink="http://www.w3.org/1999/xlink" x="0px" y="0px"
	 viewBox="0 0 504 504" style="enable-background:new 0 0 504 504;" xml:space="preserve">
<circle style="fill:#90DFAA;" cx="252" cy="252" r="252"/>
<path style="fill:#F1543F;" d="M258.8,137.6L258.8,137.6c0-13.6-11.2-24.8-24.8-24.8H119.2c-13.6,0-24.8,11.2-24.8,24.8v24.8V356
	v10.4c0,13.6,11.2,24.8,24.8,24.8h265.6c13.6,0,24.8-11.2,24.8-24.8V186.8c0-13.6-11.2-24.8-24.8-24.8H283.6
	C270,162,258.8,151.2,258.8,137.6z"/>
<path style="fill:#FFFFFF;" d="M252,207.6c16.8-20.4,40-25.2,56.8-18.8c40.4,15.2,50,72.8,15.2,109.2c-72,74.8-72,74.8-72,74.8
	s0,0-72-74.8c-34.8-36.4-25.2-94,15.2-109.2C212,182.4,235.2,186.8,252,207.6z"/>
<g>
	<path style="fill:#2B3B4E;" d="M177.6,271.6v-40.8h9.2v32.4H204v8h-26.4V271.6z"/>
	<path style="fill:#2B3B4E;" d="M243.6,266c-4,4-9.2,6-15.2,6s-11.2-2-15.2-6s-6-9.2-6-14.8s2-10.8,6-14.8s9.2-6,15.2-6
		s11.2,2,15.2,6s6,9.2,6,14.8C249.6,256.8,247.6,262,243.6,266z M240.4,250.8c0-3.6-1.2-6.8-3.6-9.2c-2.4-2.4-5.2-4-8.4-4
		s-6.4,1.2-8.4,4c-2.4,2.4-3.6,5.6-3.6,9.2s1.2,6.8,3.6,9.2c2.4,2.4,5.2,4,8.4,4s6.4-1.2,8.4-4C239.2,257.6,240.4,254.4,240.4,250.8
		z"/>
	<path style="fill:#2B3B4E;" d="M271.6,256.8l10.4-26h10l-16.4,40.8H268l-16.4-40.8h10L271.6,256.8z"/>
	<path style="fill:#2B3B4E;" d="M326,230.8v8h-20.4v8.4H324v7.6h-18.4v8.4h20.8v8h-30v-40.4H326z"/>
</g>
<g>
</g>
<g>
</g>
<g>
</g>
<g>
</g>
<g>
</g>
<g>
</g>
<g>
</g>
<g>
</g>
<g>
</g>
<g>
</g>
<g>
</g>
<g>
</g>
<g>
</g>
<g>
</g>
<g>
</g>
</svg>
