<?xml version="1.0" encoding="iso-8859-1"?>
<!-- Generator: Adobe Illustrator 19.0.0, SVG Export Plug-In . SVG Version: 6.00 Build 0)  -->
<svg version="1.1" id="Layer_1" xmlns="http://www.w3.org/2000/svg" xmlns:xlink="http://www.w3.org/1999/xlink" x="0px" y="0px"
	 viewBox="0 0 504 504" style="enable-background:new 0 0 504 504;" xml:space="preserve">
<circle style="fill:#84DBFF;" cx="252" cy="252" r="252"/>
<path style="fill:#324A5E;" d="M380.4,108H123.6c-8.4,0-15.6,6.8-15.6,15.6v256.8c0,8.4,6.8,15.6,15.6,15.6h256.8
	c8.4,0,15.6-6.8,15.6-15.6V123.6C396,114.8,389.2,108,380.4,108z"/>
<path style="fill:#FFD05B;" d="M326,236.8c-5.6-10.4-16.4-17.6-29.2-17.6c-4,0-8.4,0.8-12.8,2c0-0.4,0-1.2,0-1.6
	c0-12.4-6.8-22.8-16.8-28.8V108h-30.4v81.6c-11.2,5.2-18.8,16.8-18.8,29.6c0,0.4,0,0.8,0,1.2c-3.6-0.8-7.2-1.6-10.8-1.6
	c-12.8,0-23.6,7.2-29.2,17.6h-70v30.4h70c5.6,10.4,16.4,17.6,29.2,17.6c3.2,0,6.8-0.4,10.8-1.6c0,0.4,0,0.8,0,1.2
	c0,13.2,7.6,24.4,18.8,29.6V396h30.4v-82.4c10-5.6,16.8-16.4,16.8-28.8c0-0.4,0-1.2,0-1.6c4.4,1.2,8.8,2,12.8,2
	c12.8,0,23.6-7.2,29.2-17.6h70v-30.4h-70V236.8z M207.2,263.6c-6.4,0-11.6-5.2-11.6-11.6s5.2-11.6,11.6-11.6c9.6,0,22,8.4,22,11.6
	S216.8,263.6,207.2,263.6z M256,236.8c-2,2.8-4,4.4-5.2,4.4s-3.2-1.6-5.2-4.4c-3.2-4.4-6.4-11.6-6.4-17.6c0-6.4,5.2-11.6,11.6-11.6
	c6.4,0,11.6,5.2,11.6,11.6C262.4,225.2,259.2,232.4,256,236.8z M262.4,284.8c0,6.4-5.2,11.6-11.6,11.6s-11.6-5.2-11.6-11.6
	c0-6,3.2-13.2,6.4-17.6c2-2.8,4-4.4,5.2-4.4s3.2,1.6,5.2,4.4C259.2,271.6,262.4,278.8,262.4,284.8z M296.8,263.6
	c-9.6,0-22-8.4-22-11.6c0-3.2,12.4-11.6,22-11.6c6.4,0,11.6,5.2,11.6,11.6C308.4,258.4,303.2,263.6,296.8,263.6z"/>
<g>
</g>
<g>
</g>
<g>
</g>
<g>
</g>
<g>
</g>
<g>
</g>
<g>
</g>
<g>
</g>
<g>
</g>
<g>
</g>
<g>
</g>
<g>
</g>
<g>
</g>
<g>
</g>
<g>
</g>
</svg>
