<?xml version="1.0" encoding="iso-8859-1"?>
<!-- Generator: Adobe Illustrator 19.0.0, SVG Export Plug-In . SVG Version: 6.00 Build 0)  -->
<svg version="1.1" id="Layer_1" xmlns="http://www.w3.org/2000/svg" xmlns:xlink="http://www.w3.org/1999/xlink" x="0px" y="0px"
	 viewBox="0 0 504 504" style="enable-background:new 0 0 504 504;" xml:space="preserve">
<circle style="fill:#90DFAA;" cx="252" cy="252" r="252"/>
<path style="fill:#324A5E;" d="M316,91.2c-15.2-12.8-39.6-12.8-54.8,0c-3.2,2.8-6.4,6.4-9.2,10.8c-2.8-4.4-6-8-9.2-10.8
	c-15.2-12.8-39.6-12.8-54.8,0c-15.2,12.8-15.2,34,0,47.2c7.2,6,18.8,11.6,30.4,14.4c5.6,1.2,10.8,2,15.6,2c7.2,0,29.2,0,36.4,0
	c4.8,0,10-0.8,15.6-2c12-2.8,23.6-8.4,30.4-14.4C331.2,125.6,331.2,104.4,316,91.2z M240.4,136.4c-2,1.6-7.6,2.4-16.4,0
	c-8.4-2-17.2-6-22-10c-7.2-6.4-7.2-16.8,0-23.2c3.6-3.2,8.4-4.8,13.6-4.8c4.8,0,9.6,1.6,13.6,4.8c4.4,4,9.2,11.6,11.6,18.8
	C243.2,129.6,242.4,134.8,240.4,136.4z M302,126.4c-4.4,4-13.6,8-22,10c-8.8,2-14.8,1.6-16.4,0c-2-1.6-2.8-6.8,0-14.4
	c2.4-7.2,7.2-14.8,11.6-18.8c3.6-3.2,8.4-4.8,13.6-4.8c4.8,0,9.6,1.6,13.6,4.8C309.6,109.6,309.6,120,302,126.4z"/>
<rect x="94.4" y="155.2" style="fill:#F1543F;" width="315.2" height="60"/>
<rect x="113.2" y="215.2" style="fill:#FF7058;" width="277.6" height="186.8"/>
<g>
	<path style="fill:#FFFFFF;" d="M187.2,256c-0.4-17.6-17.2-29.6-31.2-23.6c-5.6,2.4-10,9.2-9.2,18.4c-9.2-1.2-16,3.2-18.4,9.2
		c-6,13.6,6,30.4,23.6,31.2c36,1.2,36,1.2,36,1.2S188.4,292.4,187.2,256z"/>
	<path style="fill:#FFFFFF;" d="M206,342c-0.4-17.6-17.2-29.6-31.2-23.6c-5.6,2.4-10,9.2-9.2,18.4c-9.2-1.2-16,3.6-18.4,9.2
		c-6,13.6,6,30.4,23.6,31.2c36,1.2,36,1.2,36,1.2S207.2,378,206,342z"/>
	<path style="fill:#FFFFFF;" d="M362.8,256c-0.4-17.6-17.2-29.6-31.2-23.6c-5.6,2.4-10,9.2-9.2,18.4c-9.2-1.2-16,3.2-18.4,9.2
		c-6,13.6,6,30.4,23.6,31.2c36,1.2,36,1.2,36,1.2S364,292.4,362.8,256z"/>
	<path style="fill:#FFFFFF;" d="M362.8,333.6c-0.4-17.6-17.2-29.6-31.2-23.6c-5.6,2.4-10,9.2-9.2,18.4c-9.2-1.2-16,3.2-18.4,9.2
		c-6,13.6,6,30.4,23.6,31.2c36,1.2,36,1.2,36,1.2S364,369.6,362.8,333.6z"/>
</g>
<rect x="221.6" y="215.2" style="fill:#FFD05B;" width="60.4" height="186.8"/>
<rect x="221.6" y="155.2" style="fill:#F9B54C;" width="60.4" height="60"/>
<g>
</g>
<g>
</g>
<g>
</g>
<g>
</g>
<g>
</g>
<g>
</g>
<g>
</g>
<g>
</g>
<g>
</g>
<g>
</g>
<g>
</g>
<g>
</g>
<g>
</g>
<g>
</g>
<g>
</g>
</svg>
