<?xml version="1.0" encoding="iso-8859-1"?>
<!-- Generator: Adobe Illustrator 19.0.0, SVG Export Plug-In . SVG Version: 6.00 Build 0)  -->
<svg version="1.1" id="Layer_1" xmlns="http://www.w3.org/2000/svg" xmlns:xlink="http://www.w3.org/1999/xlink" x="0px" y="0px"
	 viewBox="0 0 504 504" style="enable-background:new 0 0 504 504;" xml:space="preserve">
<circle style="fill:#84DBFF;" cx="252" cy="252" r="252"/>
<path style="fill:#FF7058;" d="M347.6,118.8c-28.4-10.8-67.2-3.2-95.6,31.6c-28.4-34.4-67.2-42.4-95.6-31.6
	c-44.8,16.8-67.2,64.4-60.8,112.8c0.8,5.2,2,10.4,3.2,15.6c5.2,20,15.6,39.2,31.6,55.6C252,429.2,252,429.2,252,429.2
	s0,0,121.2-126.4c16.4-17.2,26.8-36.8,32-57.2c1.2-5.2,2.4-10.4,3.2-15.6C414.4,182.4,392,135.2,347.6,118.8z"/>
<ellipse style="fill:#FFFFFF;" cx="175.6" cy="226.4" rx="41.2" ry="54"/>
<ellipse style="fill:#324A5E;" cx="183.2" cy="214" rx="25.2" ry="30.8"/>
<ellipse style="fill:#FFFFFF;" cx="328.4" cy="226.4" rx="41.2" ry="54"/>
<ellipse style="fill:#324A5E;" cx="335.6" cy="214" rx="25.2" ry="30.8"/>
<path style="fill:#F1543F;" d="M205.6,309.6c6.4,18.4,24.8,32,46.4,32s39.6-13.2,46.4-32H205.6z"/>
<g>
	<path style="fill:#324A5E;" d="M154,149.2c0,0,4.4-1.6,11.2-2.8c1.6-0.4,3.6-0.4,5.6-0.8c2-0.4,4-0.4,6.4-0.4c2,0,4.4,0,6.8,0
		c2.4,0,4.8,0.4,7.2,0.8c2.4,0.4,4.8,0.8,7.2,1.2c2.4,0.8,4.8,1.2,6.8,2.4s4,2.4,5.6,3.6c1.6,1.6,3.2,2.8,4,4.4
		c1.2,1.6,2,3.2,2.8,4.4c0.8,1.6,1.2,2.8,1.2,3.6c0.8,2,0.8,3.2,0.8,3.2l-0.8,0.8c0,0-1.2-0.4-3.2-1.2c-0.8-0.4-2-1.2-3.2-1.6
		c-1.2-0.4-2.4-1.2-4-2c-1.2-0.8-2.8-1.2-4.4-2c-1.6-0.8-3.2-1.6-4.8-2.4c-1.6-1.2-3.2-1.6-5.2-2.8c-1.6-1.2-3.6-1.6-5.6-2.8
		c-2-0.4-4-1.2-6-1.6c-2-0.4-4-1.2-6-1.2c-2-0.4-4-0.8-5.6-0.8c-2-0.4-3.6-0.4-5.2-0.8c-6.4-0.4-11.2-0.4-11.2-0.4L154,149.2z"/>
	<path style="fill:#324A5E;" d="M349.6,150.4c0,0-4.4,0-11.2,0.4c-1.6,0.4-3.6,0.4-5.2,0.8c-2,0.4-3.6,0.4-5.6,0.8
		c-2,0.4-4,0.8-6,1.2s-4,1.2-6,1.6c-2,0.8-4,1.6-5.6,2.8s-3.6,2-5.2,2.8s-3.2,1.6-4.8,2.4c-1.6,0.8-3.2,1.2-4.4,2
		c-1.2,0.8-2.8,1.2-4,2s-2,1.2-3.2,1.6c-2,0.8-3.2,1.2-3.2,1.2l-0.8-0.8c0,0,0-1.2,0.8-3.2c0.4-1.2,0.8-2.4,1.2-3.6
		c0.8-1.2,1.6-2.8,2.8-4.4c1.2-1.6,2.4-2.8,4-4.4c1.6-1.6,3.6-2.8,5.6-3.6c2-1.2,4.4-1.6,6.8-2.4c2.4-0.8,4.8-0.8,7.2-1.2
		c2.4-0.4,4.8-0.8,7.2-0.8c2.4,0,4.4-0.4,6.8,0c2,0,4.4,0,6.4,0.4c2,0,4,0.4,5.6,0.8c6.8,1.2,11.2,2.8,11.2,2.8L349.6,150.4z"/>
</g>
<g>
	<circle style="fill:#FFFFFF;" cx="198.4" cy="213.2" r="8.4"/>
	<circle style="fill:#FFFFFF;" cx="350" cy="213.2" r="8.4"/>
</g>
<g>
</g>
<g>
</g>
<g>
</g>
<g>
</g>
<g>
</g>
<g>
</g>
<g>
</g>
<g>
</g>
<g>
</g>
<g>
</g>
<g>
</g>
<g>
</g>
<g>
</g>
<g>
</g>
<g>
</g>
</svg>
