<?xml version="1.0" encoding="iso-8859-1"?>
<!-- Generator: Adobe Illustrator 19.0.0, SVG Export Plug-In . SVG Version: 6.00 Build 0)  -->
<svg version="1.1" id="Layer_1" xmlns="http://www.w3.org/2000/svg" xmlns:xlink="http://www.w3.org/1999/xlink" x="0px" y="0px"
	 viewBox="0 0 504 504" style="enable-background:new 0 0 504 504;" xml:space="preserve">
<circle style="fill:#84DBFF;" cx="252" cy="252" r="252"/>
<polygon style="fill:#2B3B4E;" points="128.4,100.8 128.4,118.4 133.6,118.4 133.6,190.8 168.4,190.8 168.4,118.4 174,118.4 
	174,100.8 "/>
<polygon style="fill:#324A5E;" points="252,82.8 94.4,220 409.6,220 "/>
<rect x="125.2" y="220" style="fill:#FF7058;" width="253.2" height="177.6"/>
<path style="fill:#E6E9EE;" d="M252,260.8c12-14.8,28-18,40-13.6c28.4,10.8,35.2,52.8,10.8,78.8C252,380.4,252,380.4,252,380.4
	s0,0-50.4-54c-24.4-26.4-17.6-68,10.8-78.8C224,242.8,240,246,252,260.8z"/>
<circle style="fill:#FFFFFF;" cx="252" cy="163.2" r="27.6"/>
<g>
</g>
<g>
</g>
<g>
</g>
<g>
</g>
<g>
</g>
<g>
</g>
<g>
</g>
<g>
</g>
<g>
</g>
<g>
</g>
<g>
</g>
<g>
</g>
<g>
</g>
<g>
</g>
<g>
</g>
</svg>
