<?xml version="1.0" encoding="iso-8859-1"?>
<!-- Generator: Adobe Illustrator 19.0.0, SVG Export Plug-In . SVG Version: 6.00 Build 0)  -->
<svg version="1.1" id="Layer_1" xmlns="http://www.w3.org/2000/svg" xmlns:xlink="http://www.w3.org/1999/xlink" x="0px" y="0px"
	 viewBox="0 0 504 504" style="enable-background:new 0 0 504 504;" xml:space="preserve">
<circle style="fill:#84DBFF;" cx="252" cy="252" r="252"/>
<polygon style="fill:#FF7058;" points="252,70.4 304.4,183.2 421.6,202.4 336.8,293.6 356.8,409.2 252,348.4 147.2,409.2 
	167.2,293.6 82.4,202.4 199.6,183.2 "/>
<path style="fill:#FFFFFF;" d="M252,210c12.8-15.6,30.8-19.2,43.6-14.4c31.2,11.6,38.8,56,11.6,84C252,337.2,252,337.2,252,337.2
	s0,0-55.2-57.6c-26.8-28-19.6-72.4,11.6-84C221.2,190.4,239.2,194,252,210z"/>
<path style="fill:#FF7058;" d="M242,232.8c4-4.8,9.6-5.6,13.6-4.4c10,3.6,12.4,16.8,3.6,25.2c-17.6,17.2-17.6,17.2-17.6,17.2
	s0,0-17.6-17.2c-8.4-8.4-6-21.6,3.6-25.2C232,226.8,237.6,228,242,232.8z"/>
<g>
	<path style="fill:#324A5E;" d="M199.2,225.6h10.4v46.8h-10.4V225.6z"/>
	<path style="fill:#324A5E;" d="M286,260c1.6,2,4,3.2,7.2,3.2c2.8,0,5.2-1.2,6.8-3.2c1.6-2,2.4-5.2,2.4-8.8v-26h10.4v26
		c0,6.8-2,12-5.6,15.6c-3.6,3.6-8.4,5.6-14.4,5.6s-10.8-2-14.4-5.6s-5.6-8.8-5.6-15.6v-26h10.4v26C283.2,255.2,284,258,286,260z"/>
</g>
<g>
</g>
<g>
</g>
<g>
</g>
<g>
</g>
<g>
</g>
<g>
</g>
<g>
</g>
<g>
</g>
<g>
</g>
<g>
</g>
<g>
</g>
<g>
</g>
<g>
</g>
<g>
</g>
<g>
</g>
</svg>
