<?xml version="1.0" encoding="iso-8859-1"?>
<!-- Generator: Adobe Illustrator 19.0.0, SVG Export Plug-In . SVG Version: 6.00 Build 0)  -->
<svg version="1.1" id="Layer_1" xmlns="http://www.w3.org/2000/svg" xmlns:xlink="http://www.w3.org/1999/xlink" x="0px" y="0px"
	 viewBox="0 0 504 504" style="enable-background:new 0 0 504 504;" xml:space="preserve">
<circle style="fill:#FFD05B;" cx="252" cy="252" r="252"/>
<rect x="104.8" y="91.2" style="fill:#2B3B4E;" width="294.4" height="254.4"/>
<rect x="128.4" y="114.8" style="fill:#E6E9EE;" width="247.2" height="206.8"/>
<polygon style="fill:#324A5E;" points="419.6,366.8 84.4,366.8 84.4,391.6 97.6,412.8 406.4,412.8 419.6,391.6 "/>
<path style="fill:#4CDBC4;" d="M165.6,366.8v9.6c0,3.2,2.8,6,6,6s6-2.8,6-6v-9.6H165.6z"/>
<path style="fill:#2C9984;" d="M139.2,366.8v9.6c0,3.2,2.8,6,6,6s6-2.8,6-6v-9.6H139.2z"/>
<path style="fill:#FF7058;" d="M112.8,366.8v9.6c0,3.2,2.8,6,6,6s6-2.8,6-6v-9.6H112.8z"/>
<path style="fill:#FFFFFF;" d="M364.8,383.6h-14.4c-3.2,0-6,2.8-6,6s2.8,6,6,6h14.4c3.2,0,6-2.8,6-6S368,383.6,364.8,383.6z"/>
<path style="fill:#4CDBC4;" d="M252,149.2c16-19.6,38.4-24,54.4-18c38.8,14.4,48.4,70,14.8,104.8C252,308,252,308,252,308
	s0,0-69.2-72c-33.6-34.8-24.4-90.4,14.8-104.8C213.6,124.8,236,129.2,252,149.2z"/>
<g>
	<path style="fill:#F1543F;" d="M224.8,156h16.8v41.2h-8.8V164h-8V156z"/>
	<path style="fill:#F1543F;" d="M265.6,179.6v-7.2h8.8v7.2h4.8v8h-4.8v10h-8.8v-10h-16.8v-7.2l14.8-24.4h10l-14,23.6L265.6,179.6
		L265.6,179.6z"/>
	<path style="fill:#F1543F;" d="M228.4,208.8v7.6h-17.6v8.4h16.8v7.2h-16.8v15.2h-8.4v-38.4L228.4,208.8L228.4,208.8z"/>
	<path style="fill:#F1543F;" d="M263.2,208.8v7.6H244v8h17.2v7.2H244v8h19.6v7.6h-28.4v-38.4L263.2,208.8L263.2,208.8z"/>
	<path style="fill:#F1543F;" d="M288,247.2h-16.8v-38.4H286c2.4,0,4.8,0.4,6.8,0.8c2,0.8,3.2,1.6,4.4,2.4c1.6,2,2.4,4.4,2.4,6.8
		c0,2.8-0.8,5.2-2.8,6.8c-0.8,0.4-1.2,0.8-1.2,0.8c-0.4,0-0.8,0.4-1.2,0.8c2.4,0.4,4.4,1.6,5.6,3.2c1.6,1.6,2,3.6,2,6
		c0,2.8-0.8,5.2-2.8,7.2C297.2,246,293.6,247.2,288,247.2z M280,224.4h4c2.4,0,4-0.4,5.2-0.8c1.2-0.4,1.6-1.6,1.6-3.2
		c0-1.6-0.4-2.8-1.6-3.2c-0.8-0.8-2.8-1.2-5.2-1.2h-4V224.4z M280,240h6c2.4,0,4.4-0.4,5.6-0.8c1.2-0.8,2-1.6,2-3.6
		c0-1.6-0.8-2.8-2-3.6c-1.2-0.4-3.2-0.8-6.4-0.8H280V240z"/>
</g>
<g>
</g>
<g>
</g>
<g>
</g>
<g>
</g>
<g>
</g>
<g>
</g>
<g>
</g>
<g>
</g>
<g>
</g>
<g>
</g>
<g>
</g>
<g>
</g>
<g>
</g>
<g>
</g>
<g>
</g>
</svg>
