<?xml version="1.0" encoding="iso-8859-1"?>
<!-- Generator: Adobe Illustrator 19.0.0, SVG Export Plug-In . SVG Version: 6.00 Build 0)  -->
<svg version="1.1" id="Layer_1" xmlns="http://www.w3.org/2000/svg" xmlns:xlink="http://www.w3.org/1999/xlink" x="0px" y="0px"
	 viewBox="0 0 504 504" style="enable-background:new 0 0 504 504;" xml:space="preserve">
<circle style="fill:#FD8469;" cx="252" cy="252" r="252"/>
<g>
	<polygon style="fill:#FFD05B;" points="365.2,175.2 298.4,127.6 252,94.4 205.6,127.6 138.8,175.2 100.4,202.8 138.8,235.6 
		252,333.2 365.2,235.6 403.6,202.8 	"/>
	<polygon style="fill:#FFD05B;" points="94.4,217.6 94.4,398.8 200,308.4 	"/>
	<polygon style="fill:#FFD05B;" points="409.6,398.8 409.6,217.6 304,308.4 	"/>
	<polygon style="fill:#FFD05B;" points="292.4,318.4 252,353.2 211.6,318.4 105.6,409.6 398.4,409.6 	"/>
</g>
<polygon style="fill:#F9B54C;" points="252,353.2 292.4,318.4 398.4,409.6 409.6,409.6 409.6,398.8 304,308.4 409.6,217.6 
	409.6,207.6 403.6,202.8 252,333.2 100.4,202.8 94.4,207.6 94.4,217.6 200,308.4 94.4,398.8 94.4,409.6 105.6,409.6 211.6,318.4 "/>
<polygon style="fill:#FFFFFF;" points="138.8,127.6 138.8,235.6 252,333.2 365.2,235.6 365.2,127.6 "/>
<path style="fill:#FF7058;" d="M218,218c6-7.6,14.4-9.2,20.8-7.2c14.8,5.6,18.4,27.2,5.6,40.8c-26,28-26,28-26,28s0,0-26-28
	c-12.8-13.6-9.2-35.2,5.6-40.8C203.6,208.4,212,210.4,218,218z"/>
<path style="fill:#54C0EB;" d="M277.6,181.6c4-4.8,9.2-6,13.2-4.4c9.2,3.6,11.6,17.2,3.6,26c-16.8,17.6-16.8,17.6-16.8,17.6
	s0,0-16.8-17.6c-8-8.8-6-22.4,3.6-26C268.4,175.6,273.6,176.8,277.6,181.6z"/>
<path style="fill:#2C9984;" d="M181.2,152c4-4.8,9.2-6,13.2-4.4c9.2,3.6,11.6,17.2,3.6,26c-16.8,17.6-16.8,17.6-16.8,17.6
	s0,0-16.8-17.6c-8-8.8-6-22.4,3.6-26C172,146,177.2,147.2,181.2,152z"/>
<path style="fill:#F1543F;" d="M320.8,143.6c4-4.8,9.2-6,13.2-4.4c9.2,3.6,11.6,17.2,3.6,26c-16.8,17.6-16.8,17.6-16.8,17.6
	s0,0-16.8-17.6c-8-8.8-6-22.4,3.6-26C311.6,137.6,316.8,138.8,320.8,143.6z"/>
<path style="fill:#FFFFFF;" d="M324.8,97.6c2.4-3.2,6-4,8.4-2.8c6,2.4,7.6,11.2,2.4,16.8c-10.8,11.6-10.8,11.6-10.8,11.6
	s0,0-10.8-11.6c-5.2-5.6-3.6-14.4,2.4-16.8C318.8,94,322.4,94.8,324.8,97.6z"/>
<g>
</g>
<g>
</g>
<g>
</g>
<g>
</g>
<g>
</g>
<g>
</g>
<g>
</g>
<g>
</g>
<g>
</g>
<g>
</g>
<g>
</g>
<g>
</g>
<g>
</g>
<g>
</g>
<g>
</g>
</svg>
