<?xml version="1.0" encoding="iso-8859-1"?>
<!-- Generator: Adobe Illustrator 19.0.0, SVG Export Plug-In . SVG Version: 6.00 Build 0)  -->
<svg version="1.1" id="Layer_1" xmlns="http://www.w3.org/2000/svg" xmlns:xlink="http://www.w3.org/1999/xlink" x="0px" y="0px"
	 viewBox="0 0 504 504" style="enable-background:new 0 0 504 504;" xml:space="preserve">
<circle style="fill:#324A5E;" cx="252" cy="252" r="252"/>
<g>
	<polygon style="fill:#E6E9EE;" points="409.6,138.8 94.4,138.8 252,286.8 	"/>
	<polygon style="fill:#E6E9EE;" points="252,286.8 94.4,138.8 94.4,365.2 409.6,365.2 409.6,138.8 	"/>
</g>
<polygon style="fill:#ACB3BA;" points="409.6,160.4 409.6,138.8 252,286.8 94.4,138.8 94.4,160.4 252,308.4 "/>
<path style="fill:#F1543F;" d="M252,215.6c13.2-16.4,31.6-20,45.2-14.8c32.4,12,40,58,12,86.8C252,347.2,252,347.2,252,347.2
	s0,0-57.2-59.6c-28-28.8-20-74.8,12-86.8C220.4,195.6,238.8,199.6,252,215.6z"/>
<g>
	<path style="fill:#FFFFFF;" d="M191.6,270v-33.2h7.2v26.4h14v6.4h-21.2V270z"/>
	<path style="fill:#FFFFFF;" d="M245.2,265.6c-3.2,3.2-7.6,4.8-12.4,4.8c-4.8,0-8.8-1.6-12.4-4.8c-3.2-3.2-5.2-7.2-5.2-12
		c0-4.8,1.6-8.8,5.2-12c3.2-3.2,7.6-4.8,12.4-4.8c4.8,0,8.8,1.6,12.4,4.8c3.2,3.2,5.2,7.2,5.2,12C250.4,258,248.4,262.4,245.2,265.6
		z M242.8,253.2c0-2.8-0.8-5.6-2.8-7.6s-4.4-3.2-6.8-3.2c-2.8,0-5.2,1.2-6.8,3.2c-2,2-2.8,4.4-2.8,7.6c0,2.8,0.8,5.6,2.8,7.6
		s4.4,3.2,6.8,3.2c2.8,0,5.2-1.2,6.8-3.2C241.6,258.8,242.8,256.4,242.8,253.2z"/>
	<path style="fill:#FFFFFF;" d="M268,258l8.4-21.2h8L271.2,270h-6.4l-13.2-33.2h8L268,258z"/>
	<path style="fill:#FFFFFF;" d="M312,237.2v6.4h-16.4v6.8h14.8v6.4h-14.8v6.8h16.8v6.4H288v-33.2h24V237.2z"/>
</g>
<g>
</g>
<g>
</g>
<g>
</g>
<g>
</g>
<g>
</g>
<g>
</g>
<g>
</g>
<g>
</g>
<g>
</g>
<g>
</g>
<g>
</g>
<g>
</g>
<g>
</g>
<g>
</g>
<g>
</g>
</svg>
