<?xml version="1.0" encoding="iso-8859-1"?>
<!-- Generator: Adobe Illustrator 19.0.0, SVG Export Plug-In . SVG Version: 6.00 Build 0)  -->
<svg version="1.1" id="Layer_1" xmlns="http://www.w3.org/2000/svg" xmlns:xlink="http://www.w3.org/1999/xlink" x="0px" y="0px"
	 viewBox="0 0 504 504" style="enable-background:new 0 0 504 504;" xml:space="preserve">
<circle style="fill:#FD8469;" cx="252" cy="252" r="252"/>
<polygon style="fill:#FFD05B;" points="102.4,140.8 252,278.8 403.6,141.2 "/>
<g>
	<polygon style="fill:#F9B54C;" points="94.4,152.4 94.4,351.2 200,252 	"/>
	<polygon style="fill:#F9B54C;" points="409.6,351.2 409.6,152.4 304,252 	"/>
</g>
<polygon style="fill:#FFD05B;" points="292.4,263.2 252,301.2 211.6,263.2 105.6,363.2 398.4,363.2 "/>
<polygon style="fill:#F9B54C;" points="252,301.2 292.4,263.2 398.4,363.2 409.6,363.2 409.6,351.2 304,252 409.6,152.4 
	409.6,141.2 403.6,141.2 252,278.8 102.4,140.8 94.4,141.2 94.4,152.4 200,252 94.4,351.2 94.4,363.2 105.6,363.2 211.6,263.2 "/>
<path style="fill:#F1543F;" d="M252,218c10.4-12.8,24.4-15.6,34.4-11.6c24.8,9.6,30.8,45.6,9.2,68.4C252,321.6,252,321.6,252,321.6
	s0,0-44-46.8c-21.2-22.8-15.6-58.8,9.2-68.4C227.6,202,241.6,205.2,252,218z"/>
<g>
</g>
<g>
</g>
<g>
</g>
<g>
</g>
<g>
</g>
<g>
</g>
<g>
</g>
<g>
</g>
<g>
</g>
<g>
</g>
<g>
</g>
<g>
</g>
<g>
</g>
<g>
</g>
<g>
</g>
</svg>
