<?xml version="1.0" encoding="iso-8859-1"?>
<!-- Generator: Adobe Illustrator 19.0.0, SVG Export Plug-In . SVG Version: 6.00 Build 0)  -->
<svg version="1.1" id="Layer_1" xmlns="http://www.w3.org/2000/svg" xmlns:xlink="http://www.w3.org/1999/xlink" x="0px" y="0px"
	 viewBox="0 0 504 504" style="enable-background:new 0 0 504 504;" xml:space="preserve">
<circle style="fill:#84DBFF;" cx="252" cy="252" r="252"/>
<path style="fill:#324A5E;" d="M395.6,380.8H108.4c-7.6,0-13.6-6-13.6-13.6V175.6c0-7.6,6-13.6,13.6-13.6H396
	c7.6,0,13.6,6,13.6,13.6v191.6C409.6,374.8,403.2,380.8,395.6,380.8z"/>
<circle style="fill:#2B3B4E;" cx="272.4" cy="271.2" r="88"/>
<polygon style="fill:#324A5E;" points="318.4,123.2 226.4,123.2 206.4,162 338.8,162 "/>
<path style="fill:#ACB3BA;" d="M138.4,353.6L138.4,353.6c-4,0-7.2-3.2-7.2-7.2v-150c0-4,3.2-7.2,7.2-7.2l0,0c4,0,7.2,3.2,7.2,7.2
	v150C145.6,350.4,142.4,353.6,138.4,353.6z"/>
<circle style="fill:#FFFFFF;" cx="272.4" cy="271.2" r="55.6"/>
<circle style="fill:#FF7058;" cx="378.8" cy="185.2" r="10"/>
<path style="fill:#ACB3BA;" d="M160,162h-42.8v-18.8c0-2.8,2.4-5.2,5.2-5.2h32c2.8,0,5.2,2.4,5.2,5.2V162H160z"/>
<path style="fill:#E6E9EE;" d="M299.6,148.4h-54.4c-3.2,0-6-2.8-6-6l0,0c0-3.2,2.8-6,6-6h54.4c3.2,0,6,2.8,6,6l0,0
	C305.6,146,302.8,148.4,299.6,148.4z"/>
<path style="fill:#FF7058;" d="M272.4,242.8c7.2-8.8,17.2-10.8,24.4-8c17.6,6.4,21.6,31.2,6.4,47.2c-30.8,32.4-30.8,32.4-30.8,32.4
	s0,0-30.8-32.4c-15.2-15.6-10.8-40.4,6.4-47.2C255.2,232,265.2,234,272.4,242.8z"/>
<g>
</g>
<g>
</g>
<g>
</g>
<g>
</g>
<g>
</g>
<g>
</g>
<g>
</g>
<g>
</g>
<g>
</g>
<g>
</g>
<g>
</g>
<g>
</g>
<g>
</g>
<g>
</g>
<g>
</g>
</svg>
