<?xml version="1.0" encoding="iso-8859-1"?>
<!-- Generator: Adobe Illustrator 19.0.0, SVG Export Plug-In . SVG Version: 6.00 Build 0)  -->
<svg version="1.1" id="Layer_1" xmlns="http://www.w3.org/2000/svg" xmlns:xlink="http://www.w3.org/1999/xlink" x="0px" y="0px"
	 viewBox="0 0 504 504" style="enable-background:new 0 0 504 504;" xml:space="preserve">
<circle style="fill:#324A5E;" cx="252" cy="252" r="252"/>
<g>
	<path style="fill:#FFFFFF;" d="M252.4,134c2.8,2.4,4.8,5.2,7.6,8c-6,2.8-2.4,8,0.8,12.4c5.2,7.2,12.4,12,21.6,12.4
		c6.8,0.4,11.2-1.2,9.6-9.2c-0.4-2,0.8-5.6,2.4-6.4c4.8-3.2,10-5.2,15.2-8c-18.8-14.8-60-24.4-76.8-17.2c5.2,1.2,8.8,1.6,12,3.2
		C248,130,250.4,132,252.4,134z"/>
	<path style="fill:#FFFFFF;" d="M169.6,386.4c7.2,4.4,14.8,8.4,22.8,11.6C190.4,384.4,182,380,169.6,386.4z"/>
	<path style="fill:#FFFFFF;" d="M400,290.4c-2-1.2-3.2-4.8-3.2-7.2c-1.2-9.6-1.6-19.6-2.8-29.2c-0.8-6-1.2-12.4-9.6-13.2
		c-2-0.4-4-4.4-5.2-6.8c-2.8-8.4-8.8-10.4-16.8-9.2c-2,0.4-4,0-7.2,0c1.2-1.6,1.6-2.8,2.4-4c6.8-10.8,6-10.4,13.2-0.4
		c4.4,6,12,10,20,16.4c-8.8-26.4-20.4-48.8-38.8-66.4c-1.2,0.4-2,1.2-3.2,1.6c2.8,5.2,5.2,10.4,8.4,16.8c-2.4,1.6-5.6,4-9.6,6.8
		c2.4,2.8,4.4,5.2,6.4,7.6c-11.6,4.4-13.2,10.4-6.8,22c-5.6,11.6-12.4,22.4-16,34c-4,12.4-3.6,25.6,9.6,34.4
		c-0.4,0.8-0.4,1.6-0.8,2.4c-3.2,0-7.6,1.2-9.6-0.4c-28.8-21.6-75.6-9.6-93.2,23.6c-0.4,0.8-1.2,1.2-1.6,2
		c-12.4-3.6-24.4-6.8-36.8-10.8c-2-0.8-4.4-2.4-5.6-4c-3.6-7.2-7.2-14-10-21.6c-2.8-7.2-6.8-8.4-13.6-4c-2,1.6-6.4,3.2-7.6,2
		c-2.4-2-4.8-5.6-4.8-8.8c0-6.4,4-11.6,10.8-12.4c8.4-1.2,17.2-3.2,23.6,5.6c0.8,1.2,2.8,2.4,4.4,2.8c1.6,0.4,3.6,0,5.6-0.4
		c-0.4-2-0.4-4.4-1.2-6s-2.8-2.8-5.2-4.8c3.2-4,6.4-7.2,9.2-11.2c4-5.6,7.2-11.2,11.2-16.8c5.6-7.6,12.4-14,22.8-14.8
		c4.4-0.4,8.4-2,14.4-3.6c-8-5.2-14-8.8-21.6-13.2c7.2,0,13.2,0,18.4,0c2.4,2.8,4.4,7.2,7.6,8c3.6,1.2,8-0.4,12.4-0.8
		c-1.6-3.2-2.8-6.8-4.8-9.6c-6.4-7.6-13.2-14.4-19.6-21.6c-0.8-0.8-1.6-2.4-2.4-2.4c-8.4-2.8-16.4-6.4-24.8-7.6
		c-4-0.8-8.8,2.8-13.6,4c1.2,4,2.8,8,4,11.6c-2,2.8-4.8,6.8-6.4,8.8c-4.4-2.4-10-5.2-15.6-8c-4.4-2-11.2-1.6-10-8.8
		c1.2-6.8,7.2-6.8,12.4-7.2c6.4-0.4,12.8-1.2,22-2.4c-3.6-4-5.2-5.6-8-8.8c4.8-2.4,9.6-5.2,14.4-7.6c0.8,1.2,1.2,2.4,2,3.2
		c-2.8,2-5.6,3.6-10.8,7.2c11.2,3.6,20.8,6.4,30.8,9.6c0-0.8-0.4-2-0.4-2.8c2.4-1.6,4.8-3.6,7.2-5.2c1.2-0.8,3.2-2.4,2.8-3.6
		c-0.4-2-1.6-4.8-3.2-5.6c-9.6-5.2-19.6-10-31.6-16c6-3.2,11.6-6,18-9.2c-2.8-0.8-4.8-1.6-6.4-1.6c-8.4,1.2-17.2,2.8-25.2,4.8
		c-8.4,2-11.6,13.6-5.2,22.4c-4-1.6-6-2.8-8.4-3.2c-2.4-0.8-5.2-0.8-8.4-1.6c0,3.2,0.4,5.6,0.4,6.4c-14,4-27.6,8.8-41.2,12
		c-6,1.6-12,1.2-12.4,9.6c0,0.8-4,1.2-5.2,2.4c-2.8,3.2-5.6,6.4-7.6,10c-2.4,4.8-4,10-6.8,16.4c-0.8-1.2-1.6-2-2.4-3.2
		c-6,16.4-9.2,34.4-9.2,53.2c0,54,27.2,102,68.8,130.4c7.2-2.4,15.2-3.6,20.8-8.4c7.2-6,3.6-14.8-1.2-24.8
		c10.4,2.8,18.8,5.2,27.2,7.6c2.4,0.8,4.8,1.2,7.2,1.2c0.4,0,1.2-2.4,0.8-2.4c-2.4-1.6-4.4-3.2-7.2-4c-4.8-1.6-9.6-2.8-14.4-4.4
		c0.4-1.2,0.4-2,0.8-3.2c4,0.4,8.4,0.4,12.4,1.2c14,2.4,25.6-2,34.8-12.4c4.4-4.8,8.4-8.8,16-7.6c3.2,0.4,7.2-3.2,11.2-4.8
		c4.4,5.6,8.4,12.8,14,18c2.8,2.8,8.4,4,12.4,4c7.6-0.4,15.2-2,22.8-4c6.4-1.6,11.2-0.4,15.6,4.4c3.2,3.6,6.8,7.2,10.8,9.6
		c2.8,1.6,7.6,3.2,10.4,1.6c3.6-2,7.2-5.6,5.2-11.6c-0.8-2.8-0.4-6-0.4-9.2c0-4,0.8-8.4,0.8-11.6c10.8-2.8,22.8-6,34.4-8.8
		c2.4-6,4.8-12.4,6.4-19.2C402.4,292.4,401.2,291.6,400,290.4z"/>
</g>
<path style="fill:#84DBFF;" d="M395.6,187.6C371.2,132.8,316,94.4,252,94.4c-18.4,0-36.4,3.2-52.8,9.2
	c-44.4,15.6-79.6,50.8-95.6,95.2c0.8,1.2,1.6,2,2.4,3.2c2.4-6.4,4-11.6,6.8-16.4c2-3.6,4.8-6.8,7.6-10c1.2-1.2,5.2-1.6,5.2-2.4
	c0.4-8.4,6.4-8,12.4-9.6c13.6-3.2,27.2-7.6,41.2-12c0-0.4,0-2.8-0.4-6.4c3.6,0.8,6,0.8,8.4,1.6s4.4,1.6,8.4,3.2
	c-6.4-8.8-2.8-20,5.2-22.4c8.4-2,16.8-3.6,25.2-4.8c1.6-0.4,3.6,0.8,6.4,1.6c-6.8,3.6-12,6-18,9.2c12,6,22,10.8,31.6,16
	c1.6,0.8,2.8,3.6,3.2,5.6c0,0.8-1.6,2.4-2.8,3.6c-2.4,2-4.8,3.6-7.2,5.2c0,0.8,0.4,2,0.4,2.8c-9.6-3.2-19.6-6-30.8-9.6
	c4.8-3.2,8-5.2,10.8-7.2c-0.8-1.2-1.2-2.4-2-3.2c-4.8,2.4-9.2,4.8-14.4,7.6c2.8,2.8,4,4.4,8,8.8c-8.8,0.8-15.2,1.6-22,2.4
	c-5.6,0.4-11.6,0.4-12.4,7.2c-1.2,7.2,5.6,6.8,10,8.8c5.6,2.8,11.2,5.6,15.6,8c1.6-2,4-6,6.4-8.8c-1.2-3.6-2.4-7.6-4-11.6
	c4.4-1.6,9.2-4.8,13.6-4c8.4,1.6,16.8,4.8,24.8,7.6c0.8,0.4,1.6,1.6,2.4,2.4c6.4,7.2,13.2,14.4,19.6,21.6c2.4,2.8,3.2,6.4,4.8,9.6
	c-4,0.4-8.8,2-12.4,0.8c-3.2-1.2-5.2-5.2-7.6-8c-5.2,0-11.2,0-18.4,0c7.6,4.8,13.6,8.4,21.6,13.2c-6,1.6-10.4,3.2-14.4,3.6
	c-10.4,0.8-16.8,7.2-22.8,14.8c-4,5.2-7.2,11.2-11.2,16.8c-2.8,3.6-6,7.2-9.2,11.2c2.4,2,4.4,3.2,5.2,4.8c0.8,1.6,0.8,4,1.2,6
	c-2,0-4,0.8-5.6,0.4s-3.2-1.6-4.4-2.8c-6.4-8.8-15.2-6.8-23.6-5.6c-6.4,0.8-10.4,6-10.8,12.4c0,2.8,2.4,6.8,4.8,8.8
	c1.2,0.8,5.2-0.8,7.6-2c6.4-4.4,10.8-3.2,13.6,4s6.4,14.4,10,21.6c0.8,2,3.2,3.6,5.6,4c12,3.6,24.4,7.2,36.8,10.8
	c0.4-0.4,1.2-1.2,1.6-2c17.2-33.2,64-44.8,93.2-23.6c2,1.6,6.4,0.4,9.6,0.4c0.4-0.8,0.4-1.6,0.8-2.4c-13.6-8.8-13.6-21.6-9.6-34.4
	c3.6-11.6,10.4-22.4,16-34c-6.4-11.6-4.8-17.6,6.8-22c-2-2.4-4-4.8-6.4-7.6c3.6-2.8,7.2-5.2,9.6-6.8c-3.2-6.4-5.6-11.6-8.4-16.8
	c1.2-0.4,2-1.2,3.2-1.6c18.8,18,30,40,38.8,66.4c-8-6.4-15.6-10.4-20-16.4c-7.6-10-6.8-10.4-13.2,0.4c-0.8,1.2-1.2,2-2.4,4
	c3.2,0,5.2,0.4,7.2,0c8-1.2,14,1.2,16.8,9.2c0.8,2.8,3.2,6.8,5.2,6.8c8.8,0.8,8.8,7.6,9.6,13.2c1.2,9.6,1.6,19.6,2.8,29.2
	c0.4,2.4,1.6,6,3.2,7.2c1.2,0.8,2.8,2,4,2.8C408,280,410,266.4,410,252C409.6,229.2,404.4,207.2,395.6,187.6z M294.4,150.8
	c-1.6,1.2-2.8,4.4-2.4,6.4c1.6,8.4-2.4,10-9.6,9.2c-9.2-0.8-16.4-5.2-21.6-12.4c-3.2-4.4-6.8-9.6-0.8-12.4c-2.8-2.8-4.8-5.6-7.6-8
	c-2.4-2-4.4-4-7.2-5.2c-3.2-1.2-7.2-2-12-3.2c16.4-7.2,58,2.4,76.8,17.2C304.4,145.6,299.2,147.6,294.4,150.8z"/>
<path style="fill:#CED5E0;" d="M362.4,333.2c0,3.2-0.4,6.4,0.4,9.2c2,5.6-1.6,9.6-5.2,11.6c-2.4,1.2-7.2,0-10.4-1.6
	c-4-2.4-7.6-6-10.8-9.6c-4.4-4.4-9.2-6-15.6-4.4c-7.6,2-15.2,3.6-22.8,4c-4,0.4-9.6-1.2-12.4-4c-5.6-5.6-9.6-12.4-14-18
	c-4,2-8,5.6-11.2,4.8c-7.6-1.2-11.6,2.4-16,7.6c-9.2,10.8-20.8,15.2-34.8,12.4c-4-0.8-8-0.8-12.4-1.2c-0.4,1.2-0.4,2-0.8,3.2
	c4.8,1.6,9.6,2.8,14.4,4.4c2.4,0.8,4.8,2.4,7.2,4l-0.8,2.4c-2.4-0.4-4.8-0.8-7.2-1.2c-8.4-2.4-17.2-4.8-27.2-7.6
	c4.4,10,8,18.8,1.2,24.8c-5.6,4.4-13.6,5.6-20.8,8.4c2,1.6,4,2.8,6.4,4c12.4-6.4,20.8-1.6,22.8,11.6c18.4,7.6,38.4,11.6,59.2,11.6
	c65.6,0,121.6-40,145.6-97.2c-11.6,3.2-23.6,6-34.4,8.8C362.8,324.8,362.4,328.8,362.4,333.2z"/>
<path style="fill:#F1543F;" d="M256.4,157.6c0,34.8-62.8,110.8-62.8,110.8s-63.2-76-63.2-110.8s28.4-62.8,62.8-62.8
	S256.4,122.8,256.4,157.6z"/>
<path style="fill:#FFD05B;" d="M193.6,133.6c7.2-9.6,17.6-11.6,24.8-8.8c18,7.2,22,33.6,6.8,50.4c-31.6,34.4-31.6,34.4-31.6,34.4
	s0,0-31.6-34.4c-15.2-16.8-11.2-43.6,6.8-50.4C176,122,186.4,124,193.6,133.6z"/>
<g>
</g>
<g>
</g>
<g>
</g>
<g>
</g>
<g>
</g>
<g>
</g>
<g>
</g>
<g>
</g>
<g>
</g>
<g>
</g>
<g>
</g>
<g>
</g>
<g>
</g>
<g>
</g>
<g>
</g>
</svg>
