<?xml version="1.0" encoding="iso-8859-1"?>
<!-- Generator: Adobe Illustrator 19.0.0, SVG Export Plug-In . SVG Version: 6.00 Build 0)  -->
<svg version="1.1" id="Layer_1" xmlns="http://www.w3.org/2000/svg" xmlns:xlink="http://www.w3.org/1999/xlink" x="0px" y="0px"
	 viewBox="0 0 504 504" style="enable-background:new 0 0 504 504;" xml:space="preserve">
<circle style="fill:#90DFAA;" cx="252" cy="252" r="252"/>
<path style="fill:#324A5E;" d="M318.4,288.8l-33.2-33.2c26.8-40.4,22-95.2-13.2-130.8c-40.4-40.4-106.4-40.4-146.8,0
	s-40.4,106.4,0,146.8c35.6,35.6,90.4,40,130.8,13.2l33.2,33.2L318.4,288.8z"/>
<circle style="fill:#FFFFFF;" cx="198.4" cy="198.4" r="82"/>
<path style="fill:#2B3B4E;" d="M321.6,264L264,321.6l76.4,76.4c14.8,14.8,38.8,14.8,53.6,0l3.6-3.6c14.8-14.8,14.8-38.8,0-53.6
	L321.6,264z"/>
<path style="fill:#FF7058;" d="M198.4,164c9.6-12,22.8-14.8,32.4-11.2c23.2,8.8,28.8,42.8,8.8,64c-41.2,44-41.2,44-41.2,44
	s0,0-41.2-44c-20-21.2-14.4-55.2,8.8-64C175.6,149.2,188.8,152,198.4,164z"/>
<g>
</g>
<g>
</g>
<g>
</g>
<g>
</g>
<g>
</g>
<g>
</g>
<g>
</g>
<g>
</g>
<g>
</g>
<g>
</g>
<g>
</g>
<g>
</g>
<g>
</g>
<g>
</g>
<g>
</g>
</svg>
