<?xml version="1.0" encoding="iso-8859-1"?>
<!-- Generator: Adobe Illustrator 19.0.0, SVG Export Plug-In . SVG Version: 6.00 Build 0)  -->
<svg version="1.1" id="Layer_1" xmlns="http://www.w3.org/2000/svg" xmlns:xlink="http://www.w3.org/1999/xlink" x="0px" y="0px"
	 viewBox="0 0 504 504" style="enable-background:new 0 0 504 504;" xml:space="preserve">
<circle style="fill:#FFD05B;" cx="252" cy="252" r="252"/>
<path style="fill:#F1543F;" d="M366,393.2H138c-12.4,0-22-10.8-20.8-23.2l21.2-180.8c1.2-10.4,10-18.4,20.8-18.4h186.4
	c10.4,0,19.6,8,20.8,18.4L387.6,370C388.4,382,378.8,393.2,366,393.2z"/>
<path style="fill:#E6E9EE;" d="M252,250c13.2-16,30.8-19.6,44-14.8c31.6,12,39.2,56.8,12,84.8c-56,58.4-56,58.4-56,58.4s0,0-56-58
	c-27.2-28.4-19.6-73.2,12-84.8C221.2,230.4,238.8,234,252,250z"/>
<path style="fill:#324A5E;" d="M329.6,196.8v-45.2c0-40.4-34.8-73.6-77.6-73.6s-77.6,33.2-77.6,73.6v45.2h-12v20h36.8v-20h-12v-45.2
	c0-34,28.8-61.6,64.4-61.6s64.4,27.6,64.4,61.6v45.2h-12v20h36.8v-20H329.6z"/>
<g>
</g>
<g>
</g>
<g>
</g>
<g>
</g>
<g>
</g>
<g>
</g>
<g>
</g>
<g>
</g>
<g>
</g>
<g>
</g>
<g>
</g>
<g>
</g>
<g>
</g>
<g>
</g>
<g>
</g>
</svg>
