<?xml version="1.0" encoding="iso-8859-1"?>
<!-- Generator: Adobe Illustrator 19.0.0, SVG Export Plug-In . SVG Version: 6.00 Build 0)  -->
<svg version="1.1" id="Layer_1" xmlns="http://www.w3.org/2000/svg" xmlns:xlink="http://www.w3.org/1999/xlink" x="0px" y="0px"
	 viewBox="0 0 504 504" style="enable-background:new 0 0 504 504;" xml:space="preserve">
<circle style="fill:#324A5E;" cx="252" cy="252" r="252"/>
<circle style="fill:#F9B54C;" cx="195.6" cy="120.4" r="28.8"/>
<circle style="fill:#CC862B;" cx="198.4" cy="124.8" r="14.8"/>
<circle style="fill:#F9B54C;" cx="308.4" cy="120.4" r="28.8"/>
<circle style="fill:#CC862B;" cx="305.6" cy="124.8" r="14.8"/>
<ellipse style="fill:#4CDBC4;" cx="252" cy="307.2" rx="97.2" ry="97.6"/>
<ellipse style="fill:#FFD05B;" cx="252" cy="168.4" rx="73.6" ry="66"/>
<ellipse style="fill:#FFFFFF;" cx="252" cy="193.2" rx="32" ry="24.8"/>
<g>
	<circle style="fill:#2B3B4E;" cx="252" cy="183.6" r="8.4"/>
	<circle style="fill:#2B3B4E;" cx="224.4" cy="156" r="12"/>
</g>
<circle style="fill:#FFFFFF;" cx="224.4" cy="156" r="4.4"/>
<circle style="fill:#2B3B4E;" cx="279.6" cy="156" r="12"/>
<path style="fill:#F1543F;" d="M264.8,197.2c-1.2,0-2.4,0.4-3.2,1.2c-2.4,2.8-6,4.8-10,4.8s-7.6-2-10-4.8c-0.8-0.8-2-1.2-3.2-1.2
	l0,0c-3.6,0-5.6,4-3.2,6.8c4,4.8,10,7.6,16.4,7.6s12.4-2.8,16.4-7.6C270.4,201.6,268.4,197.2,264.8,197.2L264.8,197.2z"/>
<path style="fill:#FF7058;" d="M252,256.4c15.2-16.4,36.4-20,51.6-15.2c37.2,12,46,58.4,14,87.2c-65.6,60-65.6,60-65.6,60
	s0,0-65.6-59.6c-32-29.2-23.2-75.2,14-87.2C215.6,236.4,236.8,240,252,256.4z"/>
<g>
	<ellipse style="fill:#FFD05B;" cx="338" cy="286" rx="12.4" ry="18.4"/>
	<ellipse style="fill:#FFD05B;" cx="164" cy="286" rx="12.4" ry="18.4"/>
</g>
<g>
	<path style="fill:#FFFFFF;" d="M237.6,276.4c4-4.8,10-6,14-4.4c10,3.6,12.4,16.8,3.6,25.2c-17.6,17.2-17.6,17.2-17.6,17.2
		s0,0-17.6-17.2c-8.8-8.4-6.4-22,3.6-25.2C227.6,270.4,233.2,271.6,237.6,276.4z"/>
	<path style="fill:#FFFFFF;" d="M198.4,269.2h10.8v47.6h-10.8V269.2z"/>
	<path style="fill:#FFFFFF;" d="M278,304c1.6,2,4,3.2,7.2,3.2c2.8,0,5.2-1.2,7.2-3.2c1.6-2,2.8-5.2,2.8-9.2v-26.4H306v26.4
		c0,6.8-2,12-5.6,16c-4,3.6-8.8,5.6-14.8,5.6s-10.8-2-14.8-5.6s-5.6-8.8-5.6-16v-26.4H276v26.4C275.6,298.8,276.4,302,278,304z"/>
</g>
<ellipse transform="matrix(0.7473 0.6645 -0.6645 0.7473 301.3463 -22.2617)" style="fill:#F9B54C;" cx="179.942" cy="385.066" rx="31.2" ry="24"/>
<ellipse transform="matrix(0.7472 0.6645 -0.6645 0.7472 305.6187 -24.6869)" style="fill:#FFD05B;" cx="185.263" cy="389.43" rx="17.999" ry="13.999"/>
<ellipse transform="matrix(0.7473 -0.6645 0.6645 0.7473 -173.7828 312.5885)" style="fill:#F9B54C;" cx="324.086" cy="384.776" rx="31.2" ry="24"/>
<ellipse transform="matrix(0.7472 -0.6645 0.6645 0.7472 -178.0443 310.5906)" style="fill:#FFD05B;" cx="319.287" cy="389.356" rx="17.999" ry="13.999"/>
<circle style="fill:#FFFFFF;" cx="279.6" cy="156" r="4.4"/>
<g>
</g>
<g>
</g>
<g>
</g>
<g>
</g>
<g>
</g>
<g>
</g>
<g>
</g>
<g>
</g>
<g>
</g>
<g>
</g>
<g>
</g>
<g>
</g>
<g>
</g>
<g>
</g>
<g>
</g>
</svg>
