<?xml version="1.0" encoding="iso-8859-1"?>
<!-- Generator: Adobe Illustrator 19.0.0, SVG Export Plug-In . SVG Version: 6.00 Build 0)  -->
<svg version="1.1" id="Layer_1" xmlns="http://www.w3.org/2000/svg" xmlns:xlink="http://www.w3.org/1999/xlink" x="0px" y="0px"
	 viewBox="0 0 504 504" style="enable-background:new 0 0 504 504;" xml:space="preserve">
<circle style="fill:#FFD05B;" cx="252" cy="252" r="252"/>
<path style="fill:#FF7058;" d="M252,147.6c-24-24.4-53.6-38.4-82-34.4c-52,6.8-98.4,76.4-63.2,138.4c30.8,54.4,145.2,176,145.2,176
	s114.4-121.6,145.2-176c35.2-62-11.2-131.6-63.2-138.4C305.6,109.2,276,123.2,252,147.6z"/>
<g>
	<path style="fill:#324A5E;" d="M188.4,201.2h39.2V298h-20.8v-78.4h-18.4V201.2z"/>
	<path style="fill:#324A5E;" d="M284,256v-16.8h20.8V256h10.8v18.8h-10.8V298H284v-23.2h-38.8v-16.4l34.4-57.2h23.6L270,256H284z"/>
</g>
<g>
</g>
<g>
</g>
<g>
</g>
<g>
</g>
<g>
</g>
<g>
</g>
<g>
</g>
<g>
</g>
<g>
</g>
<g>
</g>
<g>
</g>
<g>
</g>
<g>
</g>
<g>
</g>
<g>
</g>
</svg>
