<?xml version="1.0" encoding="iso-8859-1"?>
<!-- Generator: Adobe Illustrator 19.0.0, SVG Export Plug-In . SVG Version: 6.00 Build 0)  -->
<svg version="1.1" id="Layer_1" xmlns="http://www.w3.org/2000/svg" xmlns:xlink="http://www.w3.org/1999/xlink" x="0px" y="0px"
	 viewBox="0 0 504 504" style="enable-background:new 0 0 504 504;" xml:space="preserve">
<circle style="fill:#FD8469;" cx="252" cy="252" r="252"/>
<g>
	<rect x="94.4" y="94.4" style="fill:#324A5E;" width="315.2" height="69.2"/>
	<rect x="94.4" y="340.4" style="fill:#324A5E;" width="315.2" height="69.2"/>
</g>
<rect x="94.4" y="163.6" style="fill:#E6E9EE;" width="315.2" height="176.8"/>
<g>
	<circle style="fill:#FFFFFF;" cx="146.4" cy="129.2" r="11.2"/>
	<circle style="fill:#FFFFFF;" cx="252.4" cy="129.2" r="11.2"/>
	<circle style="fill:#FFFFFF;" cx="357.6" cy="129.2" r="11.2"/>
</g>
<g>
	<path style="fill:#4CDBC4;" d="M245.2,123.2H152c-3.2,0-6,2.8-6,6s2.8,6,6,6h93.2c3.2,0,6-2.8,6-6
		C251.2,125.6,248.4,123.2,245.2,123.2z"/>
	<path style="fill:#4CDBC4;" d="M352.4,123.2h-93.2c-3.2,0-6,2.8-6,6s2.8,6,6,6h93.2c3.2,0,6-2.8,6-6
		C358.4,125.6,355.6,123.2,352.4,123.2z"/>
</g>
<g>
	<path style="fill:#FFD05B;" d="M141.2,357.2v6.8h-16v7.6h15.2v6.8h-15.2V392h-7.6v-34.8H141.2z"/>
	<path style="fill:#FFD05B;" d="M172.8,357.2v6.8h-17.2v7.2h15.6v6.8h-15.6v7.2h18v6.8H148v-34.8H172.8z"/>
	<path style="fill:#FFD05B;" d="M195.6,392.4h-15.2v-34.8H194c2.4,0,4.4,0.4,6,0.8s3.2,1.2,4,2.4c1.6,1.6,2.4,4,2.4,6
		c0,2.8-0.8,4.8-2.8,6c-0.4,0.4-1.2,0.8-1.2,0.8c-0.4,0-0.8,0.4-1.2,0.4c2,0.4,4,1.6,5.2,2.8c1.2,1.6,2,3.2,2,5.6s-0.8,4.4-2.4,6.4
		C203.6,391.2,200.4,392.4,195.6,392.4z M188,371.6h3.6c2,0,3.6-0.4,4.8-0.8s1.6-1.6,1.6-3.2s-0.4-2.4-1.6-3.2
		c-0.8-0.4-2.4-0.8-4.8-0.8H188V371.6z M188,385.6h5.2c2.4,0,4-0.4,5.2-0.8s1.6-1.6,1.6-3.2s-0.4-2.8-1.6-3.2
		c-1.2-0.4-3.2-0.8-5.6-0.8H188V385.6z"/>
	<path style="fill:#FFD05B;" d="M242.8,368.8c0,5.6-2.4,9.2-6.8,10.8l8.8,12.4h-9.6l-7.6-11.2h-5.2V392h-7.6v-34.8H228
		c5.6,0,9.2,0.8,11.6,2.8C241.6,362,242.8,364.8,242.8,368.8z M233.6,373.2c0.8-0.8,1.6-2.4,1.6-4c0-2-0.4-3.2-1.6-4
		c-1.2-0.8-2.8-1.2-5.6-1.2h-6v10.4h6C230.8,374.4,232.4,374,233.6,373.2z"/>
	<path style="fill:#FFD05B;" d="M260,383.2c1.2,1.6,3.2,2.4,5.2,2.4s4-0.8,5.2-2.4s2-4,2-6.8v-19.2h7.6v19.6c0,5.2-1.2,8.8-4,11.6
		c-2.8,2.8-6.4,4-10.8,4s-8-1.2-10.8-4c-2.8-2.8-4.4-6.4-4.4-11.6v-19.6h7.6v19.2C258,379.6,258.8,381.6,260,383.2z"/>
	<path style="fill:#FFD05B;" d="M312,392.4l-3.2-7.6H294l-3.2,7.6h-8.4l15.2-34.8h7.6l15.2,34.8H312z M301.6,367.6l-4.4,10h8.8
		L301.6,367.6z"/>
	<path style="fill:#FFD05B;" d="M352.8,368.8c0,5.6-2.4,9.2-6.8,10.8l8.8,12.4h-9.6l-7.6-11.2h-5.2V392h-7.6v-34.8H338
		c5.6,0,9.2,0.8,11.6,2.8C351.6,362,352.8,364.8,352.8,368.8z M343.2,373.2c0.8-0.8,1.6-2.4,1.6-4c0-2-0.4-3.2-1.6-4
		c-0.8-0.8-2.8-1.2-5.2-1.2h-6v10.4h5.6C340.4,374.4,342.4,374,343.2,373.2z"/>
	<path style="fill:#FFD05B;" d="M374.8,392.4h-7.6v-13.6l-12-21.2h8.4l7.6,12.8l7.6-12.8h8.4l-12,21.2v13.6H374.8z"/>
</g>
<path style="fill:#F1543F;" d="M252,193.2c13.6-16.8,32.8-20.4,46.4-15.6c33.2,12.4,41.2,59.6,12.4,89.6
	C252,328.4,252,328.4,252,328.4s0,0-58.8-61.2c-28.8-30-20.8-77.2,12.4-89.6C219.2,172.4,238.4,176.4,252,193.2z"/>
<g>
	<path style="fill:#FFD05B;" d="M205.6,200.8h28.8v70.8h-15.2v-57.2h-13.6V200.8z"/>
	<path style="fill:#FFD05B;" d="M275.2,241.2v-12.4h15.2v12.4h8v13.6h-8v16.8h-15.2v-16.8h-28.4v-12l25.2-42h17.2l-24,40.4
		L275.2,241.2L275.2,241.2z"/>
</g>
<g>
</g>
<g>
</g>
<g>
</g>
<g>
</g>
<g>
</g>
<g>
</g>
<g>
</g>
<g>
</g>
<g>
</g>
<g>
</g>
<g>
</g>
<g>
</g>
<g>
</g>
<g>
</g>
<g>
</g>
</svg>
