<?xml version="1.0" encoding="iso-8859-1"?>
<!-- Generator: Adobe Illustrator 19.0.0, SVG Export Plug-In . SVG Version: 6.00 Build 0)  -->
<svg version="1.1" id="Layer_1" xmlns="http://www.w3.org/2000/svg" xmlns:xlink="http://www.w3.org/1999/xlink" x="0px" y="0px"
	 viewBox="0 0 504 504" style="enable-background:new 0 0 504 504;" xml:space="preserve">
<circle style="fill:#324A5E;" cx="252" cy="252" r="252"/>
<rect x="110.4" y="110.4" style="fill:#FF7058;" width="283.2" height="70.4"/>
<rect x="110.4" y="180.8" style="fill:#CED5E0;" width="283.2" height="212.8"/>
<rect x="142" y="221.2" style="fill:#FFFFFF;" width="220.4" height="143.2"/>
<g>
	<path style="fill:#324A5E;" d="M145.6,157.2c-5.2,0-9.2,4.8-9.2,10.4V194c0,6,4,10.4,9.2,10.4s9.2-4.8,9.2-10.4v-26.4
		C155.2,161.6,150.8,157.2,145.6,157.2z"/>
	<path style="fill:#324A5E;" d="M198.8,157.2c-5.2,0-9.2,4.8-9.2,10.4V194c0,6,4,10.4,9.2,10.4s9.2-4.8,9.2-10.4v-26.4
		C208,161.6,204,157.2,198.8,157.2z"/>
	<path style="fill:#324A5E;" d="M252,157.2c-5.2,0-9.2,4.8-9.2,10.4V194c0,6,4,10.4,9.2,10.4c5.2,0,9.2-4.8,9.2-10.4v-26.4
		C261.2,161.6,257.2,157.2,252,157.2z"/>
	<path style="fill:#324A5E;" d="M305.2,157.2c-5.2,0-9.2,4.8-9.2,10.4V194c0,6,4,10.4,9.2,10.4s9.2-4.8,9.2-10.4v-26.4
		C314.4,161.6,310.4,157.2,305.2,157.2z"/>
	<path style="fill:#324A5E;" d="M358.4,157.2c-5.2,0-9.2,4.8-9.2,10.4V194c0,6,4,10.4,9.2,10.4s9.2-4.8,9.2-10.4v-26.4
		C367.6,161.6,363.2,157.2,358.4,157.2z"/>
</g>
<g>
	<path style="fill:#F1543F;" d="M194.4,248.8H230v88h-18.8v-71.2h-16.8V248.8z"/>
	<path style="fill:#F1543F;" d="M280.8,298.8v-15.2h18.8v15.2h10V316h-10v20.8h-18.8V316h-35.2v-14.8l31.2-52H298l-29.6,50h12.4
		V298.8z"/>
</g>
<g>
</g>
<g>
</g>
<g>
</g>
<g>
</g>
<g>
</g>
<g>
</g>
<g>
</g>
<g>
</g>
<g>
</g>
<g>
</g>
<g>
</g>
<g>
</g>
<g>
</g>
<g>
</g>
<g>
</g>
</svg>
