<?xml version="1.0" encoding="iso-8859-1"?>
<!-- Generator: Adobe Illustrator 19.0.0, SVG Export Plug-In . SVG Version: 6.00 Build 0)  -->
<svg version="1.1" id="Layer_1" xmlns="http://www.w3.org/2000/svg" xmlns:xlink="http://www.w3.org/1999/xlink" x="0px" y="0px"
	 viewBox="0 0 504 504" style="enable-background:new 0 0 504 504;" xml:space="preserve">
<circle style="fill:#324A5E;" cx="252" cy="252" r="252"/>
<path style="fill:#4CDBC4;" d="M381.2,131.2c-49.2-49.2-128.8-49.2-178,0c-45.2,45.2-48.8,116.4-10.8,165.6L156,333.2l-30-30
	L103.2,326l30,30l-30.4,30.4l22.8,22.8l30.4-30.4l30,30l22.8-22.8l-30-30l36.4-36.4c22.4,17.2,49.6,26,76.8,26
	c32.4,0,64.4-12.4,88.8-36.8C430.4,260,430.4,180.4,381.2,131.2z"/>
<path style="fill:#FF7058;" d="M358.4,286.4c-17.6,17.6-41.2,27.2-66,27.2s-48.4-9.6-66-27.2s-27.2-41.2-27.2-66s9.6-48.4,27.2-66
	s41.2-27.2,66-27.2s48.4,9.6,66,27.2s27.2,41.2,27.2,66C386,245.2,376,268.8,358.4,286.4z"/>
<path style="fill:#FFFFFF;" d="M292.4,183.6c10.4-12.4,24.4-15.2,34.8-11.6c24.8,9.2,30.8,44.4,9.2,66.8c-44,45.6-44,45.6-44,45.6
	s0,0-44-45.6c-21.2-22.4-15.6-57.6,9.2-66.8C268,168,282,170.8,292.4,183.6z"/>
<g>
</g>
<g>
</g>
<g>
</g>
<g>
</g>
<g>
</g>
<g>
</g>
<g>
</g>
<g>
</g>
<g>
</g>
<g>
</g>
<g>
</g>
<g>
</g>
<g>
</g>
<g>
</g>
<g>
</g>
</svg>
