<?xml version="1.0" encoding="iso-8859-1"?>
<!-- Generator: Adobe Illustrator 19.0.0, SVG Export Plug-In . SVG Version: 6.00 Build 0)  -->
<svg xmlns="http://www.w3.org/2000/svg" xmlns:xlink="http://www.w3.org/1999/xlink" version="1.1" id="Layer_1" x="0px" y="0px" viewBox="0 0 506 506" style="enable-background:new 0 0 506 506;" xml:space="preserve">
<circle style="fill:#324A5E;" cx="253" cy="253" r="253"/>
<path style="fill:#FFD05B;" d="M114.1,344.6c-11.1,1.7-19.2,11.2-19.2,22.4c0,12.6,10.2,22.7,22.7,22.7h18.5v-49  C129,342.1,121.8,343.5,114.1,344.6z"/>
<path style="fill:#FFFFFF;" d="M136.1,340.7v49h44.8v-60.2C167.5,333.7,152.6,337.5,136.1,340.7z"/>
<g>
	<path style="fill:#FFD05B;" d="M407,313.1c-7-19.1-11.2-39.2-11.2-59.6V116.2H279.9v100.7c0,24.9-8.3,48.5-22.9,67.4l21.4,105.5   h69.2c17.9,0,35.4-6.5,48-19.2C407.7,358.4,416.7,339.7,407,313.1z"/>
	<path style="fill:#FFD05B;" d="M212.4,318.4c-9.4,3.9-19.9,7.6-31.5,11.2v60.2h44.8v-78C221.5,314.3,217,316.5,212.4,318.4z"/>
</g>
<path style="fill:#FFFFFF;" d="M225.7,311.8v78h52.7L257,284.3C248.5,295.3,237.9,304.7,225.7,311.8z"/>
<path style="fill:#F9B54C;" d="M352,345.6L352,345.6c-2.1-2.1-2.3-5.5-0.4-7.9c4.8-6.4,7.5-14.2,7.5-22.4s-2.6-16-7.5-22.4  c-1.8-2.4-1.7-5.7,0.4-7.9l0,0c2.6-2.6,6.8-2.2,9,0.7c6.4,8.5,9.9,18.7,9.9,29.5s-3.5,21.1-9.9,29.5  C358.8,347.8,354.6,348.2,352,345.6z"/>
<g>
</g>
<g>
</g>
<g>
</g>
<g>
</g>
<g>
</g>
<g>
</g>
<g>
</g>
<g>
</g>
<g>
</g>
<g>
</g>
<g>
</g>
<g>
</g>
<g>
</g>
<g>
</g>
<g>
</g>
</svg>
