<?xml version="1.0" encoding="iso-8859-1"?>
<!-- Generator: Adobe Illustrator 19.0.0, SVG Export Plug-In . SVG Version: 6.00 Build 0)  -->
<svg xmlns="http://www.w3.org/2000/svg" xmlns:xlink="http://www.w3.org/1999/xlink" version="1.1" id="Layer_1" x="0px" y="0px" viewBox="0 0 506 506" style="enable-background:new 0 0 506 506;" xml:space="preserve">
<circle style="fill:#90DFAA;" cx="253" cy="253" r="253"/>
<path style="fill:#324A5E;" d="M351.5,152.7c16.7-16.7,17.6-42.2,0.2-53.1c-10.7-6.7-26.3-5.1-38.7,3.9c-4.6,3.4-8.4,7.4-11.3,11.6  c-7.4,10.8-16,20.8-24.9,30.5l-84.1,90.9l30.7,30.7l90.9-84.1c10.3-9.5,21.4-17.9,32.5-26.4C348.5,155.6,350,154.2,351.5,152.7z"/>
<path style="fill:#FFFFFF;" d="M306,390.2c61.3-23.5,105.1-86.4,105.1-160.4H94.9c0,74,43.9,137,105.1,160.4H306z"/>
<path style="fill:#324A5E;" d="M305.5,410.5h-105c-0.4,0-0.7-0.3-0.7-0.7v-19.6H306v19.6C306.1,410.2,305.8,410.5,305.5,410.5z"/>
<polygon style="fill:#F1543F;" points="300.8,295 263.5,295 263.5,257.8 242.5,257.8 242.5,295 205.2,295 205.2,316.1 242.5,316.1   242.5,353.3 263.5,353.3 263.5,316.1 300.8,316.1 "/>
<path style="fill:#FFFFFF;" d="M125.1,102.4c-12.2,54.5,22.1,88.7,76.5,76.5C213.8,124.5,179.5,90.2,125.1,102.4z"/>
<g>
</g>
<g>
</g>
<g>
</g>
<g>
</g>
<g>
</g>
<g>
</g>
<g>
</g>
<g>
</g>
<g>
</g>
<g>
</g>
<g>
</g>
<g>
</g>
<g>
</g>
<g>
</g>
<g>
</g>
</svg>
