<?xml version="1.0" encoding="iso-8859-1"?>
<!-- Generator: Adobe Illustrator 19.0.0, SVG Export Plug-In . SVG Version: 6.00 Build 0)  -->
<svg xmlns="http://www.w3.org/2000/svg" xmlns:xlink="http://www.w3.org/1999/xlink" version="1.1" id="Layer_1" x="0px" y="0px" viewBox="0 0 506 506" style="enable-background:new 0 0 506 506;" xml:space="preserve">
<circle style="fill:#FFD05B;" cx="253" cy="253" r="253"/>
<rect x="73.162" y="237.715" transform="matrix(-0.7071 0.7071 -0.7071 -0.7071 610.7025 252.9681)" style="fill:#2B3B4E;" width="359.597" height="30.5"/>
<path style="fill:#FF7058;" d="M181.7,398.6L165.3,415c-1.3,1.3-3.4,1.3-4.7,0L91,345.3c-1.3-1.3-1.3-3.4,0-4.7l16.4-16.4  c1.3-1.3,3.4-1.3,4.7,0l69.6,69.6C183,395.2,183,397.3,181.7,398.6z"/>
<path style="fill:#F1543F;" d="M217.6,392.4l-16.4,16.4c-1.3,1.3-3.4,1.3-4.7,0l-99.3-99.3c-1.3-1.3-1.3-3.4,0-4.7l16.4-16.4  c1.3-1.3,3.4-1.3,4.7,0l99.3,99.3C218.9,389,218.9,391.1,217.6,392.4z"/>
<path style="fill:#FF7058;" d="M324.3,107.4L340.7,91c1.3-1.3,3.4-1.3,4.7,0l69.6,69.6c1.3,1.3,1.3,3.4,0,4.7l-16.4,16.4  c-1.3,1.3-3.4,1.3-4.7,0l-69.6-69.6C323,110.8,323,108.7,324.3,107.4z"/>
<path style="fill:#F1543F;" d="M288.4,113.6l16.4-16.4c1.3-1.3,3.4-1.3,4.7,0l99.3,99.3c1.3,1.3,1.3,3.4,0,4.7l-16.4,16.4  c-1.3,1.3-3.4,1.3-4.7,0l-99.3-99.3C287.1,117,287.1,114.9,288.4,113.6z"/>
<rect x="73.237" y="237.71" transform="matrix(-0.7071 -0.7071 0.7071 -0.7071 253.0887 610.7524)" style="fill:#324A5E;" width="359.597" height="30.5"/>
<path style="fill:#4CDBC4;" d="M107.4,181.7L91,165.3c-1.3-1.3-1.3-3.4,0-4.7L160.7,91c1.3-1.3,3.4-1.3,4.7,0l16.4,16.4  c1.3,1.3,1.3,3.4,0,4.7l-69.6,69.6C110.8,183,108.7,183,107.4,181.7z"/>
<path style="fill:#2C9984;" d="M113.6,217.6l-16.4-16.4c-1.3-1.3-1.3-3.4,0-4.7l99.3-99.3c1.3-1.3,3.4-1.3,4.7,0l16.4,16.4  c1.3,1.3,1.3,3.4,0,4.7l-99.3,99.3C117,218.9,114.9,218.9,113.6,217.6z"/>
<path style="fill:#4CDBC4;" d="M398.6,324.3l16.4,16.4c1.3,1.3,1.3,3.4,0,4.7L345.3,415c-1.3,1.3-3.4,1.3-4.7,0l-16.4-16.4  c-1.3-1.3-1.3-3.4,0-4.7l69.6-69.6C395.2,323,397.3,323,398.6,324.3z"/>
<path style="fill:#2C9984;" d="M392.4,288.4l16.4,16.4c1.3,1.3,1.3,3.4,0,4.7l-99.3,99.3c-1.3,1.3-3.4,1.3-4.7,0l-16.4-16.4  c-1.3-1.3-1.3-3.4,0-4.7l99.3-99.3C389,287.1,391.1,287.1,392.4,288.4z"/>
<g>
</g>
<g>
</g>
<g>
</g>
<g>
</g>
<g>
</g>
<g>
</g>
<g>
</g>
<g>
</g>
<g>
</g>
<g>
</g>
<g>
</g>
<g>
</g>
<g>
</g>
<g>
</g>
<g>
</g>
</svg>
