<?xml version="1.0" encoding="iso-8859-1"?>
<!-- Generator: Adobe Illustrator 19.0.0, SVG Export Plug-In . SVG Version: 6.00 Build 0)  -->
<svg xmlns="http://www.w3.org/2000/svg" xmlns:xlink="http://www.w3.org/1999/xlink" version="1.1" id="Layer_1" x="0px" y="0px" viewBox="0 0 506 506" style="enable-background:new 0 0 506 506;" xml:space="preserve">
<circle style="fill:#FD8469;" cx="253" cy="253" r="253"/>
<path style="fill:#CED5E0;" d="M193.2,290.9l32.1,32.1l-22.4,22.4c-29.3,29.3-68.9,45.4-108,43.9l0,0L193.2,290.9z"/>
<path style="fill:#ACB3BA;" d="M223.1,320.8l-22.4,22.4c-28.2,28.2-66,44.1-103.7,43.9l-2.2,2.2c39.1,1.5,78.7-14.5,108-43.9  l22.4-22.4L223.1,320.8z"/>
<path style="fill:#324A5E;" d="M193.2,290.9l32.1,32.1l188.6-188.6c1.2-1.2,1.2-3.1,0-4.2L386,102.3c-1.2-1.2-3.1-1.2-4.2,0  L193.2,290.9z"/>
<g>
	
		<rect x="204.625" y="293.151" transform="matrix(-0.7071 -0.7071 0.7071 -0.7071 168.0416 660.3076)" style="fill:#2B3B4E;" width="32.3" height="4.4"/>
	
		<rect x="213.998" y="283.913" transform="matrix(-0.7071 -0.7071 0.7071 -0.7071 190.5744 651.1644)" style="fill:#2B3B4E;" width="32.3" height="4.4"/>
	
		<rect x="223.29" y="274.603" transform="matrix(-0.7071 -0.7071 0.7071 -0.7071 213.0201 641.8417)" style="fill:#2B3B4E;" width="32.3" height="4.4"/>
	
		<rect x="232.582" y="265.293" transform="matrix(-0.7071 -0.7071 0.7071 -0.7071 235.4658 632.519)" style="fill:#2B3B4E;" width="32.3" height="4.4"/>
	
		<rect x="241.884" y="255.983" transform="matrix(-0.7071 -0.7071 0.7071 -0.7071 257.9286 623.2034)" style="fill:#2B3B4E;" width="32.3" height="4.4"/>
	
		<rect x="251.176" y="246.673" transform="matrix(-0.7071 -0.7071 0.7071 -0.7071 280.3743 613.8807)" style="fill:#2B3B4E;" width="32.3" height="4.4"/>
	
		<rect x="260.468" y="237.363" transform="matrix(-0.7071 -0.7071 0.7071 -0.7071 302.82 604.558)" style="fill:#2B3B4E;" width="32.3" height="4.4"/>
	
		<rect x="269.841" y="227.982" transform="matrix(-0.7071 -0.7071 0.7071 -0.7071 325.4535 595.1717)" style="fill:#2B3B4E;" width="32.3" height="4.4"/>
	
		<rect x="279.133" y="218.672" transform="matrix(-0.7071 -0.7071 0.7071 -0.7071 347.8992 585.8491)" style="fill:#2B3B4E;" width="32.3" height="4.4"/>
	
		<rect x="288.425" y="209.362" transform="matrix(-0.7071 -0.7071 0.7071 -0.7071 370.3448 576.5264)" style="fill:#2B3B4E;" width="32.3" height="4.4"/>
	
		<rect x="297.798" y="200.113" transform="matrix(-0.7071 -0.7071 0.7071 -0.7071 392.8854 567.3644)" style="fill:#2B3B4E;" width="32.3" height="4.4"/>
	
		<rect x="307.09" y="190.803" transform="matrix(-0.7071 -0.7071 0.7071 -0.7071 415.3311 558.0417)" style="fill:#2B3B4E;" width="32.3" height="4.4"/>
	
		<rect x="316.382" y="181.493" transform="matrix(-0.7071 -0.7071 0.7071 -0.7071 437.7768 548.719)" style="fill:#2B3B4E;" width="32.3" height="4.4"/>
	
		<rect x="325.684" y="172.183" transform="matrix(-0.7071 -0.7071 0.7071 -0.7071 460.2396 539.4034)" style="fill:#2B3B4E;" width="32.3" height="4.4"/>
	
		<rect x="334.976" y="162.873" transform="matrix(-0.7071 -0.7071 0.7071 -0.7071 482.6853 530.0807)" style="fill:#2B3B4E;" width="32.3" height="4.4"/>
	
		<rect x="344.278" y="153.563" transform="matrix(-0.7071 -0.7071 0.7071 -0.7071 505.148 520.7651)" style="fill:#2B3B4E;" width="32.3" height="4.4"/>
	
		<rect x="353.641" y="144.182" transform="matrix(-0.7071 -0.7071 0.7071 -0.7071 527.7645 511.3717)" style="fill:#2B3B4E;" width="32.3" height="4.4"/>
	
		<rect x="362.933" y="134.872" transform="matrix(-0.7071 -0.7071 0.7071 -0.7071 550.2101 502.049)" style="fill:#2B3B4E;" width="32.3" height="4.4"/>
	
		<rect x="372.235" y="125.562" transform="matrix(-0.7071 -0.7071 0.7071 -0.7071 572.6729 492.7334)" style="fill:#2B3B4E;" width="32.3" height="4.4"/>
</g>
<g>
</g>
<g>
</g>
<g>
</g>
<g>
</g>
<g>
</g>
<g>
</g>
<g>
</g>
<g>
</g>
<g>
</g>
<g>
</g>
<g>
</g>
<g>
</g>
<g>
</g>
<g>
</g>
<g>
</g>
</svg>
