<?xml version="1.0" encoding="iso-8859-1"?>
<!-- Generator: Adobe Illustrator 19.0.0, SVG Export Plug-In . SVG Version: 6.00 Build 0)  -->
<svg xmlns="http://www.w3.org/2000/svg" xmlns:xlink="http://www.w3.org/1999/xlink" version="1.1" id="Layer_1" x="0px" y="0px" viewBox="0 0 506 506" style="enable-background:new 0 0 506 506;" xml:space="preserve">
<circle style="fill:#FFD05B;" cx="253" cy="253" r="253"/>
<g>
	<path style="fill:#2B3B4E;" d="M174.3,321.7c-1.5,0.5-35.3,13.4-52,75.8h-10.1v13.6h35.9v-13.6h-5.2c13.8-45.5,36.7-55,37.7-55.4   l-3.2-10.2L174.3,321.7z"/>
	<path style="fill:#2B3B4E;" d="M383.7,397.5c-16.7-62.3-50.6-75.3-52-75.8l-6.2,20.4c0.2,0.1,23.7,9.7,37.5,55.4h-4.5v13.6h35.9   v-13.6H383.7z"/>
</g>
<g>
	<path style="fill:#324A5E;" d="M398.7,94.9H107.3c-6.8,0-12.4,5.5-12.4,12.4v2.2c0,6.8,5.5,12.4,12.4,12.4h135.5V146h20.4v-24.2   h135.5c6.8,0,12.4-5.5,12.4-12.4v-2.2C411.1,100.4,405.6,94.9,398.7,94.9z"/>
	<path style="fill:#324A5E;" d="M369.9,273.7c0-54.3-52.4-136-116.9-136s-116.9,81.7-116.9,136S188.4,372,253,372   S369.9,328,369.9,273.7z"/>
</g>
<path style="fill:#E6E9EE;" d="M253,201.6c-23.3,0-45.7-1.7-66.8-4.7c-11.6,14.9-20.6,32.2-25.7,48.7c28.1,6,59.4,9.3,92.5,9.3  s64.4-3.4,92.5-9.3c-5.1-16.5-14-33.8-25.7-48.7C298.7,199.9,276.3,201.6,253,201.6z"/>
<circle style="fill:#FFFFFF;" cx="253" cy="311.6" r="34.6"/>
<polygon style="fill:#F1543F;" points="276.1,305.6 258.4,305.6 258.4,286.4 247.6,286.4 247.6,305.6 229.9,305.6 229.9,317.5   247.6,317.5 247.6,336.7 258.4,336.7 258.4,317.5 276.1,317.5 "/>
<g>
</g>
<g>
</g>
<g>
</g>
<g>
</g>
<g>
</g>
<g>
</g>
<g>
</g>
<g>
</g>
<g>
</g>
<g>
</g>
<g>
</g>
<g>
</g>
<g>
</g>
<g>
</g>
<g>
</g>
</svg>
