<?xml version="1.0" encoding="iso-8859-1"?>
<!-- Generator: Adobe Illustrator 19.0.0, SVG Export Plug-In . SVG Version: 6.00 Build 0)  -->
<svg xmlns="http://www.w3.org/2000/svg" xmlns:xlink="http://www.w3.org/1999/xlink" version="1.1" id="Layer_1" x="0px" y="0px" viewBox="0 0 506 506" style="enable-background:new 0 0 506 506;" xml:space="preserve">
<circle style="fill:#84DBFF;" cx="253" cy="253" r="253"/>
<path style="fill:#324A5E;" d="M403.6,272.1c-1.2-25.5-9.5-49.5-24.2-70.3l0.2-0.1l-4.2-5.3c0,0,0-0.1-0.1-0.1l-3.6-4.5l-0.1,0.1  c-23.9-27.8-57.6-44.2-94.1-45.9v-0.2H271h-6.3v0.2c-36.5,1.7-70.2,18.2-94.1,45.9l-0.1-0.1l-3.6,4.5c0,0,0,0.1-0.1,0.1l-4.2,5.3  l0.2,0.1c-14.8,20.8-23.1,44.8-24.2,70.3h-0.2v6.3v6.3h0.2c1.2,25.5,9.5,49.5,24.2,70.3l-0.2,0.1l4.2,5.3c0,0,0,0.1,0.1,0.1l3.6,4.5  l0.1-0.1c23.9,27.8,57.6,44.2,94.1,45.9v0.2h6.3h6.3v-0.2c36.5-1.7,70.2-18.2,94.1-45.9l0.1,0.1l3.6-4.5c0,0,0-0.1,0.1-0.1l4.2-5.3  l-0.2-0.1c14.8-20.8,23.1-44.8,24.2-70.3h0.2v-6.3L403.6,272.1L403.6,272.1L403.6,272.1z M319.5,345.4c-0.5,1.5-1,3.1-1.6,4.6  c-0.3,0.7-0.5,1.4-0.8,2.1c-0.5,1.3-1,2.5-1.5,3.8c-0.3,0.7-0.6,1.4-0.9,2.1c-0.5,1.2-1.1,2.4-1.6,3.5c-0.3,0.6-0.6,1.3-0.9,1.9  c-0.6,1.2-1.2,2.4-1.9,3.6c-0.3,0.5-0.5,1-0.8,1.4c-0.9,1.6-1.8,3.2-2.8,4.7c-0.2,0.3-0.4,0.5-0.5,0.8c-0.8,1.2-1.6,2.4-2.4,3.5  c-0.3,0.5-0.7,0.9-1,1.4c-0.7,0.9-1.3,1.7-2,2.6c-0.4,0.5-0.8,0.9-1.2,1.4c-0.7,0.8-1.3,1.5-2,2.2c-0.4,0.4-0.8,0.9-1.2,1.3  c-0.7,0.7-1.4,1.4-2.2,2.1c-0.4,0.3-0.7,0.7-1.1,1c-1,0.9-2.1,1.7-3.2,2.5l-0.1,0.1c-1.1,0.8-2.2,1.5-3.4,2.2  c-0.4,0.2-0.7,0.4-1.1,0.6c-0.8,0.4-1.6,0.8-2.4,1.2c-0.4,0.2-0.9,0.4-1.3,0.5c-0.7,0.3-1.5,0.6-2.2,0.8c-0.5,0.1-0.9,0.3-1.4,0.4  c-0.3,0.1-0.5,0.1-0.8,0.2v-59.4c0.1,0,0.3,0,0.4,0c3.3,0.1,6.5,0.3,9.7,0.5c0.8,0.1,1.5,0.1,2.2,0.2c3.1,0.2,6.1,0.5,9.1,0.9  c0.2,0,0.4,0,0.6,0.1c3.2,0.4,6.3,0.9,9.4,1.4c0.7,0.1,1.5,0.2,2.2,0.4c3.1,0.5,6.1,1.1,9.2,1.8c0,0,0,0,0.1,0  c0,0.1-0.1,0.2-0.1,0.4C319.9,344.4,319.7,344.9,319.5,345.4z M263.9,397.5c-0.5-0.1-0.9-0.3-1.4-0.4c-0.8-0.2-1.5-0.5-2.2-0.8  c-0.4-0.2-0.9-0.3-1.3-0.5c-0.8-0.4-1.6-0.7-2.4-1.2c-0.4-0.2-0.7-0.4-1.1-0.6c-1.1-0.7-2.3-1.4-3.4-2.2c-0.1,0-0.1-0.1-0.2-0.1  c-1.1-0.8-2.1-1.6-3.2-2.5c-0.4-0.3-0.7-0.7-1.1-1c-0.7-0.7-1.5-1.3-2.2-2.1c-0.4-0.4-0.8-0.8-1.2-1.3c-0.7-0.7-1.3-1.4-2-2.2  c-0.4-0.5-0.8-0.9-1.2-1.4c-0.7-0.8-1.3-1.7-2-2.6c-0.3-0.5-0.7-0.9-1-1.4c-0.8-1.1-1.6-2.3-2.4-3.5c-0.2-0.3-0.4-0.5-0.5-0.8  c-0.9-1.5-1.9-3.1-2.8-4.7c-0.3-0.5-0.5-1-0.8-1.4c-0.6-1.2-1.3-2.4-1.9-3.6c-0.3-0.6-0.6-1.3-0.9-1.9c-0.5-1.1-1.1-2.3-1.6-3.5  c-0.3-0.7-0.6-1.4-0.9-2.1c-0.5-1.2-1-2.5-1.5-3.8c-0.3-0.7-0.5-1.4-0.8-2.1c-0.5-1.5-1.1-3-1.6-4.6c-0.2-0.5-0.4-1-0.5-1.6  c0-0.1-0.1-0.2-0.1-0.4c0,0,0,0,0.1,0c3-0.7,6.1-1.3,9.2-1.8c0.7-0.1,1.5-0.3,2.2-0.4c3.1-0.5,6.2-1,9.4-1.4c0.2,0,0.4,0,0.6-0.1  c3-0.4,6-0.6,9.1-0.9c0.7-0.1,1.5-0.1,2.2-0.2c3.2-0.2,6.4-0.4,9.7-0.5c0.1,0,0.3,0,0.4,0v59.4C264.5,397.6,264.2,397.6,263.9,397.5  z M222.6,211.5c0.5-1.5,1-3.1,1.6-4.5c0.3-0.7,0.5-1.4,0.8-2.1c0.5-1.3,1-2.5,1.5-3.7c0.3-0.7,0.6-1.4,0.9-2.1  c0.5-1.2,1-2.3,1.6-3.5c0.3-0.7,0.6-1.3,0.9-2c0.6-1.2,1.2-2.4,1.9-3.6c0.3-0.5,0.5-1,0.8-1.5c0.9-1.6,1.8-3.2,2.7-4.7  c0.2-0.3,0.4-0.6,0.6-0.9c0.8-1.2,1.5-2.3,2.3-3.4c0.3-0.5,0.7-0.9,1.1-1.4c0.6-0.9,1.3-1.7,2-2.5c0.4-0.5,0.8-1,1.2-1.4  c0.6-0.8,1.3-1.5,2-2.2c0.4-0.4,0.8-0.9,1.2-1.3c0.7-0.7,1.4-1.4,2.2-2c0.4-0.3,0.7-0.7,1.1-1c1-0.9,2.1-1.7,3.1-2.5  c0.1,0,0.1-0.1,0.2-0.1c1.1-0.8,2.2-1.5,3.4-2.2c0.4-0.2,0.8-0.4,1.1-0.6c0.8-0.4,1.6-0.8,2.4-1.2c0.4-0.2,0.9-0.4,1.3-0.5  c0.7-0.3,1.5-0.6,2.2-0.8c0.5-0.1,0.9-0.3,1.4-0.4c0.3-0.1,0.5-0.1,0.8-0.2v59.4c-0.1,0-0.3,0-0.4,0c-3.3-0.1-6.5-0.3-9.7-0.5  c-0.7-0.1-1.5-0.1-2.2-0.2c-3.1-0.2-6.1-0.5-9.1-0.9c-0.2,0-0.4,0-0.6-0.1c-3.2-0.4-6.3-0.9-9.4-1.4c-0.7-0.1-1.4-0.2-2.2-0.4  c-3.1-0.5-6.2-1.1-9.2-1.8c0,0,0,0-0.1,0c0-0.1,0.1-0.2,0.1-0.4C222.2,212.5,222.4,212,222.6,211.5z M278.2,159.4  c0.5,0.1,0.9,0.3,1.4,0.4c0.8,0.2,1.5,0.5,2.2,0.8c0.4,0.2,0.9,0.3,1.3,0.5c0.8,0.3,1.6,0.7,2.4,1.2c0.4,0.2,0.8,0.4,1.1,0.6  c1.1,0.7,2.3,1.4,3.4,2.2c0.1,0,0.1,0.1,0.2,0.1c1.1,0.8,2.1,1.6,3.1,2.5c0.4,0.3,0.7,0.7,1.1,1c0.7,0.7,1.4,1.3,2.2,2  c0.4,0.4,0.8,0.8,1.2,1.3c0.7,0.7,1.3,1.4,2,2.2c0.4,0.5,0.8,0.9,1.2,1.4c0.7,0.8,1.3,1.7,2,2.5c0.4,0.5,0.7,0.9,1.1,1.4  c0.8,1.1,1.6,2.3,2.3,3.4c0.2,0.3,0.4,0.6,0.6,0.9c0.9,1.5,1.9,3,2.7,4.7c0.3,0.5,0.5,1,0.8,1.5c0.6,1.2,1.3,2.4,1.9,3.6  c0.3,0.6,0.6,1.3,0.9,2c0.5,1.1,1.1,2.3,1.6,3.5c0.3,0.7,0.6,1.4,0.9,2.1c0.5,1.2,1,2.5,1.5,3.7c0.3,0.7,0.5,1.4,0.8,2.1  c0.5,1.5,1.1,3,1.6,4.5c0.2,0.5,0.4,1,0.5,1.6c0,0.1,0.1,0.2,0.1,0.4c0,0,0,0-0.1,0c-3,0.7-6.1,1.3-9.2,1.8  c-0.7,0.1-1.4,0.3-2.2,0.4c-3.1,0.5-6.2,1-9.4,1.4c-0.2,0-0.4,0-0.6,0.1c-3,0.4-6.1,0.6-9.1,0.9c-0.7,0.1-1.5,0.1-2.2,0.2  c-3.2,0.2-6.4,0.4-9.7,0.5c-0.1,0-0.3,0-0.4,0v-59.4C277.6,159.2,277.9,159.3,278.2,159.4z M329.6,285.3c-0.1,3.5-0.3,7-0.5,10.5  c-0.1,0.8-0.1,1.5-0.2,2.3c-0.3,3.5-0.6,6.9-1.1,10.3c0,0.1,0,0.2,0,0.3c-0.5,3.5-1,6.9-1.6,10.2c-0.1,0.8-0.3,1.5-0.4,2.2  c-0.6,3.3-1.3,6.6-2.1,9.8c0,0.1-0.1,0.2-0.1,0.3c-0.1,0-0.2,0-0.3-0.1c-3.2-0.7-6.5-1.4-9.8-2c-0.8-0.1-1.5-0.3-2.3-0.4  c-3.4-0.6-6.7-1.1-10.1-1.5c-0.2,0-0.3,0-0.5,0c-3.3-0.4-6.7-0.7-10-1c-0.8-0.1-1.6-0.1-2.3-0.2c-3.4-0.2-6.9-0.4-10.4-0.5  c-0.2,0-0.3,0-0.5,0v-0.1v-40.8h52.3C329.6,284.9,329.6,285.1,329.6,285.3z M253.8,326.2c-0.8,0.1-1.6,0.1-2.3,0.2  c-3.4,0.3-6.7,0.6-10,1c-0.2,0-0.3,0-0.5,0c-3.4,0.4-6.8,0.9-10.1,1.5c-0.8,0.1-1.5,0.3-2.3,0.4c-3.3,0.6-6.6,1.2-9.8,2  c-0.1,0-0.2,0-0.3,0.1c0-0.1-0.1-0.2-0.1-0.3c-0.8-3.2-1.5-6.4-2.1-9.8c-0.1-0.7-0.3-1.5-0.4-2.2c-0.6-3.4-1.2-6.8-1.6-10.2  c0-0.1,0-0.2,0-0.3c-0.4-3.4-0.8-6.8-1.1-10.3c-0.1-0.8-0.1-1.5-0.2-2.3c-0.3-3.5-0.4-7-0.5-10.5c0-0.2,0-0.3,0-0.5h52.3v40.8v0.1  c-0.2,0-0.3,0-0.5,0C260.7,325.8,257.3,325.9,253.8,326.2z M212.4,271.6c0.1-3.5,0.3-7,0.5-10.5c0.1-0.8,0.1-1.5,0.2-2.3  c0.3-3.5,0.6-6.9,1.1-10.3c0-0.1,0-0.2,0-0.3c0.5-3.5,1-6.9,1.6-10.2c0.1-0.8,0.3-1.5,0.4-2.2c0.6-3.3,1.3-6.6,2.1-9.7  c0-0.1,0.1-0.2,0.1-0.3c0.1,0,0.2,0,0.3,0.1c3.2,0.7,6.5,1.4,9.8,2c0.7,0.1,1.5,0.3,2.2,0.4c3.4,0.6,6.7,1.1,10.2,1.5  c0.1,0,0.3,0,0.4,0c3.3,0.4,6.7,0.7,10.1,1c0.8,0.1,1.5,0.1,2.3,0.2c3.4,0.2,6.9,0.4,10.4,0.5c0.2,0,0.3,0,0.5,0v0.1v40.8h-52.3  C212.4,272,212.4,271.8,212.4,271.6z M288.3,230.7c0.8-0.1,1.5-0.1,2.3-0.2c3.4-0.3,6.7-0.6,10.1-1c0.1,0,0.3,0,0.4,0  c3.4-0.4,6.8-0.9,10.2-1.5c0.7-0.1,1.5-0.3,2.2-0.4c3.3-0.6,6.6-1.2,9.8-2c0.1,0,0.2,0,0.3-0.1c0,0.1,0.1,0.2,0.1,0.3  c0.8,3.2,1.5,6.4,2.1,9.7c0.1,0.7,0.3,1.5,0.4,2.2c0.6,3.4,1.2,6.8,1.6,10.2c0,0.1,0,0.2,0,0.3c0.4,3.4,0.8,6.8,1.1,10.3  c0.1,0.8,0.1,1.5,0.2,2.3c0.3,3.5,0.4,7,0.5,10.5c0,0.2,0,0.3,0,0.5h-52.3V231v-0.1c0.2,0,0.3,0,0.5,0  C281.4,231.1,284.8,231,288.3,230.7z M342.3,272.1c0-0.2,0-0.4,0-0.6c-0.1-3.8-0.3-7.5-0.6-11.2c-0.1-0.8-0.1-1.6-0.2-2.4  c-0.3-3.7-0.7-7.3-1.1-10.9c0-0.2,0-0.3-0.1-0.5c-0.5-3.7-1.1-7.4-1.7-11c-0.1-0.8-0.3-1.6-0.4-2.3c-0.7-3.5-1.4-7-2.3-10.5  c0-0.1,0-0.2-0.1-0.3h0.1v-0.1c2.7-0.8,5.4-1.7,7.9-2.6c0.7-0.2,1.3-0.5,1.9-0.7c2.4-0.9,4.7-1.8,7-2.7c0.2-0.1,0.4-0.2,0.6-0.2  c2.4-1,4.8-2.1,7-3.2c0.6-0.3,1.1-0.6,1.7-0.8c2.1-1,4.1-2.1,6-3.2c0.2-0.1,0.4-0.2,0.5-0.3c13.5,18.7,21.1,40.5,22.3,63.5  L342.3,272.1L342.3,272.1z M360.6,198.6c-0.3,0.2-0.6,0.3-0.9,0.5c-1.5,0.8-3,1.6-4.6,2.4c-0.4,0.2-0.8,0.4-1.2,0.6  c-2,0.9-4,1.8-6.1,2.7c-0.5,0.2-1,0.4-1.5,0.6c-1.7,0.7-3.4,1.3-5.1,2c-0.6,0.2-1.3,0.5-1.9,0.7c-2.2,0.7-4.4,1.5-6.6,2.1  c-0.1,0-0.1,0-0.2,0.1c-0.1-0.3-0.2-0.6-0.3-1c-0.4-1.1-0.7-2.2-1.1-3.3c-0.5-1.4-1-2.8-1.5-4.1c-0.4-1-0.8-2.1-1.2-3.1  c-0.5-1.3-1.1-2.6-1.6-3.9c-0.4-1-0.9-1.9-1.3-2.9c-0.6-1.2-1.2-2.5-1.8-3.7c-0.5-0.9-0.9-1.8-1.4-2.7c-0.6-1.2-1.3-2.3-1.9-3.5  c-0.5-0.8-1-1.7-1.4-2.5c-0.7-1.1-1.3-2.2-2-3.3c-0.5-0.8-1-1.5-1.5-2.3c-0.7-1-1.4-2-2.2-3c-0.5-0.7-1-1.4-1.5-2  c-0.8-1-1.6-1.9-2.4-2.9c-0.5-0.6-1-1.2-1.5-1.8c-0.1-0.1-0.2-0.3-0.3-0.4C327.8,170.5,346.1,182.3,360.6,198.6z M234.6,164  c-0.1,0.1-0.2,0.3-0.3,0.4c-0.5,0.6-1,1.2-1.5,1.8c-0.8,0.9-1.6,1.9-2.4,2.9c-0.5,0.7-1,1.4-1.5,2c-0.7,1-1.5,2-2.2,3  c-0.5,0.7-1,1.5-1.5,2.3c-0.7,1.1-1.4,2.1-2,3.3c-0.5,0.8-1,1.7-1.4,2.5c-0.6,1.1-1.3,2.3-1.9,3.5c-0.5,0.9-0.9,1.8-1.4,2.7  c-0.6,1.2-1.2,2.4-1.8,3.7c-0.4,1-0.9,1.9-1.3,2.9c-0.6,1.3-1.1,2.6-1.6,3.9c-0.4,1-0.8,2-1.2,3.1c-0.5,1.3-1,2.7-1.5,4.1  c-0.4,1.1-0.8,2.1-1.1,3.3c-0.1,0.3-0.2,0.6-0.3,1c-0.1,0-0.1,0-0.2-0.1c-2.2-0.7-4.4-1.4-6.6-2.1c-0.6-0.2-1.3-0.5-1.9-0.7  c-1.7-0.6-3.5-1.3-5.1-2c-0.5-0.2-1-0.4-1.5-0.6c-2.1-0.9-4.1-1.8-6.1-2.7c-0.4-0.2-0.8-0.4-1.2-0.6c-1.6-0.8-3.1-1.6-4.6-2.4  c-0.3-0.2-0.6-0.3-0.9-0.5C196,182.3,214.3,170.5,234.6,164z M173.4,208.6c0.2,0.1,0.4,0.2,0.5,0.3c1.9,1.1,3.9,2.2,6,3.2  c0.6,0.3,1.1,0.6,1.7,0.8c2.3,1.1,4.6,2.2,7,3.2c0.2,0.1,0.4,0.2,0.6,0.2c2.3,0.9,4.6,1.8,7,2.7c0.6,0.2,1.3,0.5,1.9,0.7  c2.6,0.9,5.2,1.8,8,2.6v0.1h0.1c0,0.1,0,0.2-0.1,0.3c-0.8,3.4-1.6,6.9-2.3,10.5c-0.1,0.8-0.3,1.5-0.4,2.3c-0.6,3.6-1.2,7.3-1.7,11  c0,0.2,0,0.3-0.1,0.5c-0.5,3.6-0.8,7.2-1.1,10.9c-0.1,0.8-0.1,1.6-0.2,2.4c-0.3,3.7-0.5,7.5-0.6,11.2c0,0.2,0,0.4,0,0.6h-0.1h-48.5  C152.3,249.1,160,227.4,173.4,208.6z M199.7,284.8L199.7,284.8c0.1,0.2,0.1,0.4,0.1,0.6c0.1,3.8,0.3,7.5,0.6,11.2  c0.1,0.8,0.1,1.6,0.2,2.4c0.3,3.7,0.7,7.3,1.1,10.9c0,0.2,0,0.3,0.1,0.5c0.5,3.7,1.1,7.3,1.7,11c0.1,0.8,0.3,1.6,0.4,2.3  c0.7,3.5,1.4,7,2.3,10.5c0,0.1,0,0.2,0.1,0.3h-0.1v0.1c-2.7,0.8-5.4,1.7-8,2.6c-0.6,0.2-1.3,0.4-1.9,0.7c-2.4,0.9-4.7,1.8-7,2.7  c-0.2,0.1-0.4,0.2-0.6,0.2c-2.4,1-4.8,2.1-7,3.2c-0.6,0.3-1.1,0.6-1.7,0.8c-2.1,1-4.1,2.1-6,3.2c-0.2,0.1-0.4,0.2-0.5,0.3  c-13.5-18.7-21.1-40.5-22.3-63.5L199.7,284.8L199.7,284.8z M181.4,358.3c0.3-0.2,0.6-0.3,0.9-0.5c1.5-0.8,3-1.6,4.6-2.4  c0.4-0.2,0.8-0.4,1.2-0.6c2-0.9,4-1.8,6.1-2.7c0.5-0.2,1-0.4,1.5-0.6c1.7-0.7,3.4-1.3,5.2-2c0.6-0.2,1.3-0.5,1.9-0.7  c2.2-0.7,4.4-1.5,6.6-2.1c0.1,0,0.2-0.1,0.2-0.1c0.1,0.3,0.2,0.6,0.3,0.9c0.4,1.1,0.8,2.2,1.1,3.3c0.5,1.4,0.9,2.7,1.4,4  c0.4,1.1,0.8,2.1,1.2,3.2c0.5,1.3,1,2.6,1.6,3.8c0.4,1,0.9,2,1.3,3c0.6,1.2,1.1,2.4,1.7,3.6c0.5,1,1,1.9,1.4,2.8  c0.6,1.1,1.2,2.2,1.8,3.3c0.5,0.9,1,1.8,1.5,2.6c0.6,1.1,1.3,2.1,1.9,3.1c0.5,0.8,1.1,1.6,1.6,2.4c0.7,1,1.4,1.9,2.1,2.9  c0.5,0.7,1.1,1.5,1.6,2.2c0.7,0.9,1.5,1.8,2.2,2.7c0.5,0.6,1.1,1.3,1.7,1.9c0.1,0.1,0.2,0.2,0.3,0.4  C214.3,386.4,196,374.6,181.4,358.3z M307.4,392.9c0.1-0.1,0.2-0.2,0.3-0.4c0.6-0.6,1.1-1.3,1.7-1.9c0.7-0.9,1.5-1.8,2.2-2.7  c0.6-0.7,1.1-1.5,1.6-2.2c0.7-0.9,1.4-1.9,2.1-2.9c0.5-0.8,1.1-1.6,1.6-2.4c0.7-1,1.3-2,1.9-3.1c0.5-0.9,1-1.7,1.5-2.6  c0.6-1.1,1.2-2.2,1.8-3.3c0.5-0.9,1-1.9,1.4-2.8c0.6-1.2,1.1-2.4,1.7-3.6c0.5-1,0.9-2,1.3-3c0.5-1.2,1.1-2.5,1.6-3.8  c0.4-1,0.8-2.1,1.2-3.2c0.5-1.3,1-2.7,1.4-4c0.4-1.1,0.8-2.2,1.1-3.3c0.1-0.3,0.2-0.6,0.3-0.9c0.1,0,0.2,0.1,0.2,0.1  c2.3,0.7,4.4,1.4,6.6,2.1c0.6,0.2,1.3,0.4,1.9,0.7c1.8,0.6,3.5,1.3,5.2,2c0.5,0.2,1,0.4,1.5,0.6c2.1,0.9,4.1,1.8,6.1,2.7  c0.4,0.2,0.8,0.4,1.2,0.6c1.6,0.8,3.1,1.6,4.6,2.4c0.3,0.2,0.6,0.3,0.9,0.5C346.1,374.6,327.8,386.4,307.4,392.9z M368.7,348.3  c-0.2-0.1-0.4-0.2-0.5-0.3c-1.9-1.1-3.9-2.2-6-3.2c-0.6-0.3-1.1-0.6-1.7-0.8c-2.3-1.1-4.6-2.2-7-3.2c-0.2-0.1-0.4-0.2-0.6-0.2  c-2.3-0.9-4.6-1.8-7-2.7c-0.6-0.2-1.3-0.5-1.9-0.7c-2.6-0.9-5.2-1.8-8-2.6v-0.1h-0.1c0-0.1,0-0.2,0.1-0.3c0.8-3.4,1.6-6.9,2.3-10.5  c0.1-0.8,0.3-1.6,0.4-2.3c0.6-3.6,1.2-7.3,1.7-11c0-0.2,0-0.3,0.1-0.5c0.5-3.6,0.8-7.2,1.1-10.9c0.1-0.8,0.1-1.6,0.2-2.4  c0.3-3.7,0.5-7.5,0.6-11.2c0-0.2,0-0.4,0-0.6h0.1H391C389.7,307.8,382.1,329.5,368.7,348.3z"/>
<path style="fill:#F1543F;" d="M102.3,164.4c0-38.4,30.9-69.6,69.1-69.6s69.1,31.1,69.1,69.6s-69.1,114-69.1,114  S102.3,202.8,102.3,164.4z"/>
<circle style="fill:#FFFFFF;" cx="171.4" cy="166" r="48.3"/>
<polygon style="fill:#F1543F;" points="137.9,173.9 163.5,173.9 163.5,199.5 179.2,199.5 179.2,173.9 204.8,173.9 204.8,158.2   179.2,158.2 179.2,132.6 163.5,132.6 163.5,158.2 137.9,158.2 "/>
<g>
</g>
<g>
</g>
<g>
</g>
<g>
</g>
<g>
</g>
<g>
</g>
<g>
</g>
<g>
</g>
<g>
</g>
<g>
</g>
<g>
</g>
<g>
</g>
<g>
</g>
<g>
</g>
<g>
</g>
</svg>
