<?xml version="1.0" encoding="iso-8859-1"?>
<!-- Generator: Adobe Illustrator 19.0.0, SVG Export Plug-In . SVG Version: 6.00 Build 0)  -->
<svg xmlns="http://www.w3.org/2000/svg" xmlns:xlink="http://www.w3.org/1999/xlink" version="1.1" id="Layer_1" x="0px" y="0px" viewBox="0 0 506 506" style="enable-background:new 0 0 506 506;" xml:space="preserve">
<circle style="fill:#FD8469;" cx="253" cy="253" r="253"/>
<polygon style="fill:#2B3B4E;" points="396.4,147.9 383.3,147.9 383.3,164.4 396.4,164.4 396.4,250.7 411.1,250.7 411.1,147.9 "/>
<polygon style="fill:#FFFFFF;" points="248.2,94.9 94.9,94.9 94.9,411.1 328.2,411.1 328.2,175.1 "/>
<polygon style="fill:#ACB3BA;" points="248.2,175.1 328.2,175.1 248.2,94.9 "/>
<polygon style="fill:#F1543F;" points="176.1,136.5 153.4,136.5 153.4,113.7 137.6,113.7 137.6,136.5 114.9,136.5 114.9,152.3   137.6,152.3 137.6,175.1 153.4,175.1 153.4,152.3 176.1,152.3 "/>
<g>
	<rect x="167.7" y="208.6" style="fill:#ACB3BA;" width="133" height="11.6"/>
	<rect x="167.7" y="261.3" style="fill:#ACB3BA;" width="133" height="11.6"/>
	<rect x="167.7" y="314.1" style="fill:#ACB3BA;" width="133" height="11.6"/>
	<rect x="167.7" y="366.8" style="fill:#ACB3BA;" width="133" height="11.6"/>
</g>
<g>
	<path style="fill:#2C9984;" d="M122,230.9l-13.2-15.6l6-5.1l5.5,6.5c4.4-7,13.4-18.5,26.2-18.8l0.2,7.9   c-13.1,0.3-22.1,19.3-22.1,19.5L122,230.9z"/>
	<path style="fill:#2C9984;" d="M122,283.6L108.8,268l6-5.1l5.5,6.5c4.4-7,13.4-18.5,26.2-18.8l0.2,7.9   c-13.1,0.3-22.1,19.3-22.1,19.5L122,283.6z"/>
	<path style="fill:#2C9984;" d="M122,336.4l-13.2-15.6l6-5.1l5.5,6.5c4.4-7,13.4-18.5,26.2-18.8l0.2,7.9   c-13.1,0.3-22.1,19.3-22.1,19.5L122,336.4z"/>
	<path style="fill:#2C9984;" d="M122,389.1l-13.2-15.6l6-5.1l5.5,6.5c4.4-7,13.4-18.5,26.2-18.8l0.2,7.9   c-13.1,0.3-22.1,19.3-22.1,19.5L122,389.1z"/>
</g>
<path style="fill:#FFFFFF;" d="M381.1,127.9h-30.6V98.7c0-2.1,1.7-3.9,3.9-3.9h22.9c2.1,0,3.9,1.7,3.9,3.9v29.2H381.1z"/>
<polygon style="fill:#FFD05B;" points="365.8,411.1 389.2,355.8 342.3,355.8 "/>
<rect x="342.3" y="127.9" style="fill:#324A5E;" width="46.8" height="227.9"/>
<rect x="354.2" y="155.2" style="fill:#2B3B4E;" width="13.3" height="181.2"/>
<g>
</g>
<g>
</g>
<g>
</g>
<g>
</g>
<g>
</g>
<g>
</g>
<g>
</g>
<g>
</g>
<g>
</g>
<g>
</g>
<g>
</g>
<g>
</g>
<g>
</g>
<g>
</g>
<g>
</g>
</svg>
