<?xml version="1.0" encoding="iso-8859-1"?>
<!-- Generator: Adobe Illustrator 19.0.0, SVG Export Plug-In . SVG Version: 6.00 Build 0)  -->
<svg xmlns="http://www.w3.org/2000/svg" xmlns:xlink="http://www.w3.org/1999/xlink" version="1.1" id="Layer_1" x="0px" y="0px" viewBox="0 0 506 506" style="enable-background:new 0 0 506 506;" xml:space="preserve">
<circle style="fill:#84DBFF;" cx="253" cy="253" r="253"/>
<polygon style="fill:#2B3B4E;" points="197.6,379.1 197.6,407.2 356.9,407.2 357,379.1 "/>
<path style="fill:#FFFFFF;" d="M357.1,315.9c0-21.6,3.8-43,10.9-63.4c5.2-15,7.6-31.2,6.5-48.2C370.7,143.4,320.3,94,259.4,91.1  c-69.7-3.3-127.3,52.2-127.3,121.2V227c0,10.2-4,19.9-11.2,27.1l-11.2,11.2c-4.7,4.7-1.4,12.8,5.3,12.8h17.2v17.3c0,1.5,0.8,3,2,3.9  l7.1,4.8c2.7,1.9,2.7,5.9,0,7.7l-7.1,4.8c-1.3,0.9-2,2.3-2,3.9v13.6c0,9.7,7.8,17.5,17.5,17.5H180c9.7,0,17.5,3.9,17.5,13.6v14H357  L357.1,315.9z"/>
<path style="fill:#FF7058;" d="M325,179c-2.5,0-6.9,0.3-10.1,3.1c-2.7,2.3-4,6.1-4,11.2h-8.4c0-7.7,2.4-13.6,7-17.6  c4.3-3.7,9.6-4.8,13.5-5c-2.8-17.2-20.5-19.9-26.2-20.4c-3.3,3.7-11.9,15.6-3.8,31.9l-7.5,3.7c-3-6.1-4.2-11.8-4.2-17.1  c0-9.6,3.9-17.5,7.9-22.5c-10.3-8.7-20.8-12.9-31.3-12.4c-14.9,0.7-25.6,10.6-28.1,13.2c-1.2,4.2-5.4,24.1,16.6,38.4l-4.6,7  c-17.8-11.6-21.4-26.6-21.4-37c0-2.9,0.3-5.4,0.6-7.4c-6.9-1.1-12.7-0.1-17.4,2.9c-8.4,5.5-11.1,16.3-11.6,18.7  c0.4,3.2,3.5,20.1,20.4,25.3l-2.5,8c-16.6-5.2-22.8-18.8-25-26.9c-5.7,3.8-8.9,8-9.6,12.5c-1.1,7,3.9,13.7,7,17.2h143.9  c2.5-3.5,3.4-7.4,3.4-11.1C329.5,188.1,326.6,181.9,325,179z"/>
<path style="fill:#F1543F;" d="M331.3,212.8c13-15.2,3.1-34.4,0.3-39.2c-1-23.9-22.3-31.2-35-31.8c-12.6-11.4-25.8-16.9-39.3-16.3  c-16.5,0.8-28.4,10.6-32.8,14.7c-10-2.1-18.6-0.8-25.7,3.8c-10.1,6.6-13.8,18-14.9,22.8c-10.1,5.6-15.9,12.6-17.1,20.6  c-0.2,1.1-0.3,2.2-0.3,3.3c0,10.3,7.4,18.9,10.8,22.3l1.2,1.2h151.4L331.3,212.8z M182.2,205.9c-3.2-3.5-8.1-10.2-7-17.2  c0.7-4.5,4-8.7,9.6-12.5c2.3,8.1,8.5,21.7,25,26.9l2.5-8c-16.8-5.3-19.9-22.1-20.4-25.3c0.5-2.4,3.2-13.2,11.6-18.7  c4.7-3.1,10.5-4,17.4-2.9c-0.3,2-0.6,4.5-0.6,7.4c0,10.4,3.6,25.5,21.4,37l4.6-7c-7.1-4.6-11.5-9.9-14.1-14.9  c3-2.3,10.9-7.6,18.3-6.6c3.8,0.5,7,2.7,9.6,6.6l7.3-6c-4.2-6.2-9.5-9.7-15.9-10.6c-9-1.2-17.8,3.5-22.6,6.8  c-1-6.5,0.1-11.8,0.7-13.8c2.5-2.6,13.2-12.4,28.1-13.2c10.5-0.5,21,3.7,31.3,12.4c-3.9,5-7.9,12.9-7.9,22.5c0,5.3,1.2,11,4.2,17.1  l7.5-3.7c-8.1-16.3,0.5-28.2,3.8-31.9c5.7,0.4,23.4,3.2,26.2,20.4c-3.9,0.2-9.2,1.3-13.5,5c-4.6,4-7,9.9-7,17.6h8.4  c0-5.1,1.4-8.9,4-11.2c3.2-2.7,7.6-3.1,10.1-3.1c1.6,2.9,4.4,9.1,4.4,15.8c0,3.7-0.9,7.6-3.4,11.1L182.2,205.9L182.2,205.9z"/>
<path style="fill:#FF7058;" d="M325,241.3c-2.5,0-6.9-0.3-10.1-3.1c-2.7-2.3-4-6.1-4-11.2h-8.4c0,7.7,2.4,13.6,7,17.6  c4.3,3.7,9.6,4.8,13.5,5c-2.8,17.2-20.5,19.9-26.2,20.4c-3.3-3.7-11.9-15.6-3.8-31.9l-7.5-3.7c-3,6.1-4.2,11.8-4.2,17.1  c0,9.6,3.9,17.5,7.9,22.5c-10.3,8.7-20.8,12.9-31.3,12.4c-14.9-0.7-25.6-10.6-28.1-13.2c-1.2-4.2-5.4-24.1,16.6-38.4l-4.6-7  c-17.8,11.6-21.4,26.6-21.4,37c0,2.9,0.3,5.4,0.6,7.4c-6.9,1.1-12.7,0.1-17.4-2.9c-8.4-5.5-11.1-16.3-11.6-18.7  c0.4-3.2,3.5-20.1,20.4-25.3l-2.5-8c-16.6,5.2-22.8,18.8-25,26.9c-5.7-3.8-8.9-8-9.6-12.5c-1.1-7,3.9-13.7,7-17.2h143.9  c2.5,3.5,3.4,7.4,3.4,11.1C329.5,232.2,326.6,238.4,325,241.3z"/>
<path style="fill:#F1543F;" d="M330.1,205.9H178.7l-1.2,1.2c-3.4,3.4-10.8,12-10.8,22.3c0,1.1,0.1,2.2,0.3,3.3  c1.3,8,7,14.9,17.1,20.6c1.1,4.7,4.9,16.2,14.9,22.8c7.1,4.6,15.7,5.9,25.7,3.8c4.4,4.2,16.2,14,32.8,14.7  c13.5,0.6,26.7-4.8,39.3-16.3c12.6-0.6,34-7.9,35-31.8c2.8-4.8,12.7-24-0.3-39.2L330.1,205.9z M326.1,214.3  c2.5,3.5,3.4,7.4,3.4,11.1c0,6.7-2.9,12.9-4.4,15.8c-2.5,0-6.9-0.3-10.1-3.1c-2.7-2.3-4-6.1-4-11.2h-8.4c0,7.7,2.4,13.6,7,17.6  c4.3,3.7,9.6,4.8,13.5,5c-2.8,17.2-20.5,19.9-26.2,20.4c-3.3-3.7-11.9-15.6-3.8-31.9l-7.5-3.7c-3,6.1-4.2,11.8-4.2,17.1  c0,9.6,3.9,17.5,7.9,22.5c-10.3,8.7-20.8,12.9-31.3,12.4c-14.9-0.7-25.6-10.6-28.1-13.2c-0.5-1.9-1.7-7.2-0.7-13.8  c4.8,3.3,13.6,8.1,22.6,6.8c6.3-0.9,11.7-4.4,15.9-10.6l-7.3-6c-2.7,3.9-5.8,6.1-9.6,6.6c-7.5,1-15.4-4.3-18.3-6.6  c2.6-5.1,7-10.3,14.1-14.9l-4.6-7c-17.8,11.6-21.4,26.6-21.4,37c0,2.9,0.3,5.4,0.6,7.4c-6.9,1.1-12.7,0.1-17.4-2.9  c-8.4-5.5-11.1-16.3-11.6-18.7c0.4-3.2,3.5-20.1,20.4-25.3l-2.5-8c-16.6,5.2-22.8,18.8-25,26.9c-5.7-3.8-8.9-8-9.6-12.5  c-1.1-7,3.9-13.7,7-17.2H326.1z"/>
<g>
</g>
<g>
</g>
<g>
</g>
<g>
</g>
<g>
</g>
<g>
</g>
<g>
</g>
<g>
</g>
<g>
</g>
<g>
</g>
<g>
</g>
<g>
</g>
<g>
</g>
<g>
</g>
<g>
</g>
</svg>
