<?xml version="1.0" encoding="iso-8859-1"?>
<!-- Generator: Adobe Illustrator 19.0.0, SVG Export Plug-In . SVG Version: 6.00 Build 0)  -->
<svg xmlns="http://www.w3.org/2000/svg" xmlns:xlink="http://www.w3.org/1999/xlink" version="1.1" id="Layer_1" x="0px" y="0px" viewBox="0 0 506 506" style="enable-background:new 0 0 506 506;" xml:space="preserve">
<circle style="fill:#324A5E;" cx="253" cy="253" r="253"/>
<path style="fill:#54C0EB;" d="M383.5,412.2H161.2c-21.4,0-38.7-17.3-38.7-38.7l0,0c0-21.4,17.3-38.7,38.7-38.7h222.2l-1.2,1.1  c-21.1,20.6-21.1,54.5,0,75.1L383.5,412.2z"/>
<path style="fill:#E6E9EE;" d="M161.2,400.3c-14.8,0-26.8-12-26.8-26.8s12-26.8,26.8-26.8h199.2c-3.8,8.3-5.8,17.4-5.8,26.8  s2,18.5,5.8,26.8H161.2z"/>
<g>
	<path style="fill:#84DBFF;" d="M146.7,93.8c-13.4,0-24.2,10.8-24.2,24.2v255.5c0-21.4,17.3-38.7,38.7-38.7H176v-241L146.7,93.8   L146.7,93.8z"/>
	<polygon style="fill:#84DBFF;" points="176.1,93.8 176.1,334.8 191.9,334.8 383.5,334.8 383.5,93.8  "/>
</g>
<rect x="137.5" y="120.3" style="fill:#FFFFFF;" width="11.8" height="195.2"/>
<g>
	<path style="fill:#CED5E0;" d="M244.1,368.2h110.8c0.2-2.9,0.6-5.8,1.2-8.6h-112V368.2z"/>
	<path style="fill:#CED5E0;" d="M201.3,387.4h154.8c-0.6-2.8-1-5.7-1.2-8.6H201.3V387.4z"/>
</g>
<rect x="168.8" y="93.8" style="fill:#54C0EB;" width="14.5" height="241"/>
<rect x="208.6" y="142" style="fill:#FFFFFF;" width="134.4" height="78.4"/>
<polygon style="fill:#F1543F;" points="306.9,173.4 283.6,173.4 283.6,150.2 268,150.2 268,173.4 244.8,173.4 244.8,189.1   268,189.1 268,212.3 283.6,212.3 283.6,189.1 306.9,189.1 "/>
<g>
</g>
<g>
</g>
<g>
</g>
<g>
</g>
<g>
</g>
<g>
</g>
<g>
</g>
<g>
</g>
<g>
</g>
<g>
</g>
<g>
</g>
<g>
</g>
<g>
</g>
<g>
</g>
<g>
</g>
</svg>
