<?xml version="1.0" encoding="iso-8859-1"?>
<!-- Generator: Adobe Illustrator 19.0.0, SVG Export Plug-In . SVG Version: 6.00 Build 0)  -->
<svg xmlns="http://www.w3.org/2000/svg" xmlns:xlink="http://www.w3.org/1999/xlink" version="1.1" id="Layer_1" x="0px" y="0px" viewBox="0 0 506 506" style="enable-background:new 0 0 506 506;" xml:space="preserve">
<circle style="fill:#84DBFF;" cx="253" cy="253" r="253"/>
<path style="fill:#FFFFFF;" d="M274.3,122.1V67.2c0-11.3-8.1-21.7-19.4-22.7c-12.6-1.1-23.2,8.8-23.2,21.2v56.4  c-17.7,8.1-30,25.9-30,46.7V408c0,28.2,21.7,52.9,49.9,53.7c29,0.7,52.7-22.5,52.7-51.3V168.8C304.3,148,292,130.2,274.3,122.1z"/>
<path style="fill:#FFD05B;" d="M252.6,426.4c-8.5-0.2-15.7-8.7-15.7-18.5V168.7c0-6.3,3.7-12,9.5-14.6l6.6-3l6.7,3  c5.8,2.6,9.5,8.4,9.5,14.6v241.6c0,5.8-3,9.6-4.7,11.4c-1.8,1.8-5.6,4.7-11.4,4.7H252.6z"/>
<g>
	<rect x="202" y="164.8" style="fill:#CED5E0;" width="12.8" height="7.3"/>
	<rect x="201.8" y="190.7" style="fill:#CED5E0;" width="26.3" height="7.3"/>
	<rect x="202" y="216.7" style="fill:#CED5E0;" width="12.8" height="7.3"/>
	<rect x="201.8" y="242.6" style="fill:#CED5E0;" width="26.3" height="7.3"/>
	<rect x="202" y="268.5" style="fill:#CED5E0;" width="12.8" height="7.3"/>
	<rect x="201.8" y="294.5" style="fill:#CED5E0;" width="26.3" height="7.3"/>
	<rect x="202" y="320.4" style="fill:#CED5E0;" width="12.8" height="7.3"/>
	<rect x="201.8" y="346.3" style="fill:#CED5E0;" width="26.3" height="7.3"/>
	<rect x="202" y="372.3" style="fill:#CED5E0;" width="12.8" height="7.3"/>
	<rect x="201.8" y="398.2" style="fill:#CED5E0;" width="26.3" height="7.3"/>
</g>
<g>
</g>
<g>
</g>
<g>
</g>
<g>
</g>
<g>
</g>
<g>
</g>
<g>
</g>
<g>
</g>
<g>
</g>
<g>
</g>
<g>
</g>
<g>
</g>
<g>
</g>
<g>
</g>
<g>
</g>
</svg>
