<?xml version="1.0" encoding="iso-8859-1"?>
<!-- Generator: Adobe Illustrator 19.0.0, SVG Export Plug-In . SVG Version: 6.00 Build 0)  -->
<svg xmlns="http://www.w3.org/2000/svg" xmlns:xlink="http://www.w3.org/1999/xlink" version="1.1" id="Layer_1" x="0px" y="0px" viewBox="0 0 506 506" style="enable-background:new 0 0 506 506;" xml:space="preserve">
<circle style="fill:#324A5E;" cx="253" cy="253" r="253"/>
<path style="fill:#E6E9EE;" d="M386.4,107.8H119.6c-6.5,0-11.9,5.3-11.9,11.9v266.7c0,6.5,5.3,11.9,11.9,11.9h266.7  c6.5,0,11.9-5.3,11.9-11.9V119.6C398.2,113.1,392.9,107.8,386.4,107.8z"/>
<path style="fill:#4CDBC4;" d="M315.8,197.5H190.2c-0.7,0-1.2-0.6-1.2-1.2v-64.6c0-0.7,0.6-1.2,1.2-1.2h125.6c0.7,0,1.2,0.6,1.2,1.2  v64.6C317,196.9,316.5,197.5,315.8,197.5z"/>
<path style="fill:#F1543F;" d="M258.4,184l11.3-39.5l-1.8-0.6l-15.1,39c-7.9,0.1-14.3,6.5-14.3,14.5h29  C267.5,191.4,263.7,186.2,258.4,184z"/>
<g>
	<ellipse style="fill:#CED5E0;" cx="329.6" cy="292.5" rx="39.7" ry="77.9"/>
	<ellipse style="fill:#CED5E0;" cx="176.4" cy="292.5" rx="39.7" ry="77.9"/>
</g>
<g>
</g>
<g>
</g>
<g>
</g>
<g>
</g>
<g>
</g>
<g>
</g>
<g>
</g>
<g>
</g>
<g>
</g>
<g>
</g>
<g>
</g>
<g>
</g>
<g>
</g>
<g>
</g>
<g>
</g>
</svg>
