<?xml version="1.0" encoding="iso-8859-1"?>
<!-- Generator: Adobe Illustrator 19.0.0, SVG Export Plug-In . SVG Version: 6.00 Build 0)  -->
<svg xmlns="http://www.w3.org/2000/svg" xmlns:xlink="http://www.w3.org/1999/xlink" version="1.1" id="Layer_1" x="0px" y="0px" viewBox="0 0 506 506" style="enable-background:new 0 0 506 506;" xml:space="preserve">
<circle style="fill:#FFD05B;" cx="253" cy="253" r="253"/>
<path style="fill:#E6E9EE;" d="M384.4,320.1H143.6c-20.2,0-36.7,16.5-36.7,36.7s16.5,36.7,36.7,36.7h240.8  C370.3,371.2,370.3,342.5,384.4,320.1z"/>
<path style="fill:#2C9984;" d="M396.8,326l14.4-18.2H145.6c-28,0-50.7,22-50.7,49.1s22.7,49.1,50.7,49.1h265.6l-14.4-18.2  C382.4,369.5,382.4,344.1,396.8,326z M374.5,337.1H208.4v12.4h163.3c-0.6,4.8-0.6,9.7,0,14.5H229.5v12.4h145  c1.7,5.3,4.1,10.4,7.2,15.1H145.6c-19.8,0-36-15.6-36-34.8c0-19.2,16.1-34.8,36-34.8h236.2C378.6,326.8,376.2,331.9,374.5,337.1z"/>
<g>
	<path style="fill:#54C0EB;" d="M254.4,141c4.1-24.9-13.4-41.9-39.2-37.9"/>
	<path style="fill:#54C0EB;" d="M215.2,103c-4.1,24.9,13.4,41.9,39.2,37.9"/>
</g>
<path style="fill:#2B3B4E;" d="M253,154.4c0,0,4.9-51.7,33.4-64.2c4.4-1.9,9.3,1.1,9.3,5.8l0,0c0,2.7-1.7,5.1-4.3,6  c-6.9,2.3-21,12-34.5,52.4H253z"/>
<path style="fill:#FF7058;" d="M301,135.6c-13.2-1.1-26.4,3.3-38.2,12c-5.8,4.2-13.8,4.2-19.6,0c-11.7-8.6-24.9-13.1-38.2-12  c-34.8,3-56.6,44-48.7,91.5s42.6,83.6,77.5,80.5c5.5-0.5,10.6-1.9,15.4-4.1c2.4-1.1,5.1-1.1,7.5,0c4.8,2.2,9.9,3.7,15.4,4.1  c34.8,3,69.5-33,77.5-80.5S335.8,138.6,301,135.6z"/>
<g>
	<ellipse style="fill:#F1543F;" cx="301.8" cy="164.9" rx="4.9" ry="4.8"/>
	<ellipse style="fill:#F1543F;" cx="291.4" cy="186.9" rx="5.5" ry="5.4"/>
	<ellipse style="fill:#F1543F;" cx="320.9" cy="179.1" rx="2.7" ry="2.6"/>
	<ellipse style="fill:#F1543F;" cx="319.8" cy="213.3" rx="3.7" ry="3.6"/>
</g>
<g>
</g>
<g>
</g>
<g>
</g>
<g>
</g>
<g>
</g>
<g>
</g>
<g>
</g>
<g>
</g>
<g>
</g>
<g>
</g>
<g>
</g>
<g>
</g>
<g>
</g>
<g>
</g>
<g>
</g>
</svg>
