<?xml version="1.0" encoding="iso-8859-1"?>
<!-- Generator: Adobe Illustrator 19.0.0, SVG Export Plug-In . SVG Version: 6.00 Build 0)  -->
<svg xmlns="http://www.w3.org/2000/svg" xmlns:xlink="http://www.w3.org/1999/xlink" version="1.1" id="Layer_1" x="0px" y="0px" viewBox="0 0 506 506" style="enable-background:new 0 0 506 506;" xml:space="preserve">
<circle style="fill:#FD8469;" cx="253" cy="253" r="253"/>
<path style="fill:#324A5E;" d="M108.7,395c15.7,16.6,39.6,20.4,59,11.3L100,338.6C91.7,357.1,94.1,379.5,108.7,395z"/>
<path style="fill:#CED5E0;" d="M360.4,115.4l-62.9,62.9c-11.1,11.1-33,20.2-48.6,22c-11.2,1.2-22,6.1-30.5,14.7L111.3,322  c-4.9,4.9-8.6,10.5-11.3,16.5l67.7,67.7c5.3-2.5,10.3-5.8,14.6-10.2l108.6-108.6c8.6-8.6,13.4-19.4,14.7-30.5  c1.7-15.6,10.9-37.5,22-48.6l62.9-62.9L360.4,115.4z"/>
<path style="fill:#2B3B4E;" d="M403.9,132c7.9-7.9,9.4-20.7,2.3-29.3c-8.1-9.9-22.7-10.4-31.5-1.6l-14.3,14.3l30.1,30.1L403.9,132z"/>
<rect x="159.617" y="252.825" transform="matrix(-0.7071 -0.7071 0.7071 -0.7071 100.1767 673.9428)" style="fill:#FFFFFF;" width="60.099" height="126.799"/>
<circle style="fill:#F1543F;" cx="259" cy="246.9" r="13.9"/>
<g>
	<path style="fill:#324A5E;" d="M145.8,343.6l-5-5l16-16l4,4l0.8,11.4c2.4-1.7,4.9-2.5,7.5-2.2c2.5,0.3,4.7,1.3,6.6,3.2   c2.7,2.7,4,5.8,3.7,9.2c-0.3,3.4-1.9,6.6-4.8,9.4c-2.9,2.9-6.8,4.8-11.8,5.7l-2.2-7c4.2-0.7,7.3-2.1,9.2-4c1.2-1.2,1.8-2.4,2-3.7   c0.2-1.3-0.3-2.5-1.3-3.6c-1.1-1.1-2.4-1.5-3.9-1.3s-3,1.1-4.6,2.7c-0.8,0.8-1.7,2.2-2.8,4.2l-4.3-4.3l-0.9-10.9L145.8,343.6z"/>
	<path style="fill:#324A5E;" d="M179,300.5l5,5l-10.3,10.3l4.4,4.4c0.5-1,1.3-2,2.3-3c2.5-2.5,5.4-3.9,8.8-4.2   c3.3-0.3,6.3,0.8,8.9,3.4c2.6,2.6,3.8,5.6,3.6,9.2s-1.7,6.7-4.4,9.5c-3.5,3.5-7.8,5.2-12.8,4.9l-1.2-7.3c0.4,0,1,0,1.7-0.1   c0.7,0,1.8-0.3,3.3-0.8s2.8-1.2,3.8-2.2s1.6-2.2,1.8-3.5c0.2-1.4-0.3-2.6-1.5-3.8c-1.2-1.2-2.5-1.7-3.9-1.5c-1.5,0.2-2.9,1-4.2,2.3   s-2.4,3.3-3.2,6l-5-0.2l-12.7-12.7L179,300.5z"/>
	<path style="fill:#324A5E;" d="M210.8,319.5c-1.3,0-2.4-0.5-3.3-1.4c-0.9-0.9-1.4-2-1.4-3.3s0.5-2.4,1.4-3.3s2-1.4,3.3-1.4   s2.4,0.5,3.3,1.4c0.9,0.9,1.4,2,1.4,3.3s-0.5,2.4-1.4,3.3C213.2,319.1,212.1,319.5,210.8,319.5z"/>
	<path style="fill:#324A5E;" d="M219.7,289.4l-4.6-4.6l5.6-5.6l4.6,4.6l3-3l5,5l-3,3l6.2,6.2l-5.6,5.6l-6.2-6.2l-10.5,10.5l-4.4-4.4   l-6.1-24.7l6.3-6.3l6,23.7L219.7,289.4z"/>
</g>
<g>
</g>
<g>
</g>
<g>
</g>
<g>
</g>
<g>
</g>
<g>
</g>
<g>
</g>
<g>
</g>
<g>
</g>
<g>
</g>
<g>
</g>
<g>
</g>
<g>
</g>
<g>
</g>
<g>
</g>
</svg>
