<?xml version="1.0" encoding="iso-8859-1"?>
<!-- Generator: Adobe Illustrator 19.0.0, SVG Export Plug-In . SVG Version: 6.00 Build 0)  -->
<svg xmlns="http://www.w3.org/2000/svg" xmlns:xlink="http://www.w3.org/1999/xlink" version="1.1" id="Layer_1" x="0px" y="0px" viewBox="0 0 506 506" style="enable-background:new 0 0 506 506;" xml:space="preserve">
<circle style="fill:#FD8469;" cx="253" cy="253" r="253"/>
<rect x="94.9" y="153.6" style="fill:#FFFFFF;" width="316.3" height="221.3"/>
<path style="fill:#324A5E;" d="M326.6,185.8l-9.6-64.6h-39c0-16.6-11.2-30-25-30s-25,13.4-25,30h-39l-9.6,64.6H326.6z"/>
<rect x="116.2" y="246.1" style="fill:#54C0EB;" width="98.8" height="98.8"/>
<rect x="185.1" y="206.9" style="fill:#F1543F;" width="135.7" height="12.5"/>
<g>
	<rect x="245.8" y="246.1" style="fill:#ACB3BA;" width="135.7" height="12.5"/>
	<rect x="245.8" y="289.2" style="fill:#ACB3BA;" width="135.7" height="12.5"/>
	<rect x="245.8" y="332.4" style="fill:#ACB3BA;" width="135.7" height="12.5"/>
</g>
<path style="fill:#FFFFFF;" d="M165.6,272.5c7.2,0,13.4,4,16.5,10c0.5-2.2,3.4-17.5-0.1-21c-5.8-5.8-27.1-5.8-33,0  c-3.5,3.5-0.5,18.8-0.1,21C152.2,276.6,158.4,272.5,165.6,272.5z"/>
<path style="fill:#FFD05B;" d="M182.2,282.5c-3.1-5.9-9.4-10-16.5-10c-7.2,0-13.4,4-16.5,10c-1.4,2.6-2.2,5.6-2.2,8.7  c0,10.3,8.4,18.7,18.7,18.7s18.7-8.4,18.7-18.7C184.3,288.1,183.5,285.1,182.2,282.5z"/>
<polygon style="fill:#F1543F;" points="167.3,263.3 167.3,258.6 163.9,258.6 163.9,263.3 159.2,263.3 159.2,266.7 163.9,266.7   163.9,271.5 167.3,271.5 167.3,266.7 172,266.7 172,263.3 "/>
<path style="fill:#324A5E;" d="M188.8,308.8c-6.1,5.6-14.2,9-23.2,9c-8.9,0-17-3.4-23.2-9c-11.9,7.6-19.7,20.9-19.7,36.1h85.8  C208.5,329.8,200.6,316.5,188.8,308.8z"/>
<g>
</g>
<g>
</g>
<g>
</g>
<g>
</g>
<g>
</g>
<g>
</g>
<g>
</g>
<g>
</g>
<g>
</g>
<g>
</g>
<g>
</g>
<g>
</g>
<g>
</g>
<g>
</g>
<g>
</g>
</svg>
