<?xml version="1.0" encoding="iso-8859-1"?>
<!-- Generator: Adobe Illustrator 19.0.0, SVG Export Plug-In . SVG Version: 6.00 Build 0)  -->
<svg xmlns="http://www.w3.org/2000/svg" xmlns:xlink="http://www.w3.org/1999/xlink" version="1.1" id="Layer_1" x="0px" y="0px" viewBox="0 0 506 506" style="enable-background:new 0 0 506 506;" xml:space="preserve">
<circle style="fill:#84DBFF;" cx="253" cy="253" r="253"/>
<rect x="94.9" y="94.9" style="fill:#324A5E;" width="316.3" height="245.3"/>
<rect x="118.6" y="118.6" style="fill:#FFFFFF;" width="268.8" height="197.9"/>
<polygon style="fill:#2B3B4E;" points="364.7,411.1 140.7,411.1 189.5,340.2 315.8,340.2 "/>
<path style="fill:#ACB3BA;" d="M286.1,146.9c-7.7-1-15.5,1.1-22.8,5.6c-6.4,4-14.2,4-20.6,0c-7.2-4.5-15.1-6.6-22.8-5.6  c-20.9,2.8-39.7,31.1-25.4,56.3v0.1c4.2,7.4,7,15.6,8.3,24l8,53.7c0.6,4.2,4.3,7.4,8.6,7.4l0,0c5,0,7.7-4.1,8.6-9.3l1.7-11.9  c1.3-9.2,1.9-18.5,2.7-27.8c1-11.8,6.5-21.2,19.1-21.8c13.8-0.7,20.8,8.8,22,21.4c1,9.9,1.7,19.9,3,29.8l1.4,10.4  c1.1,5.4,3.6,9.3,8.6,9.3l0,0c4.3,0,7.9-3.1,8.6-7.4l8-53.7c1.3-8.4,4.1-16.6,8.3-24v-0.1C325.8,178,307,149.7,286.1,146.9z"/>
<g>
</g>
<g>
</g>
<g>
</g>
<g>
</g>
<g>
</g>
<g>
</g>
<g>
</g>
<g>
</g>
<g>
</g>
<g>
</g>
<g>
</g>
<g>
</g>
<g>
</g>
<g>
</g>
<g>
</g>
</svg>
