<?xml version="1.0" encoding="iso-8859-1"?>
<!-- Generator: Adobe Illustrator 19.0.0, SVG Export Plug-In . SVG Version: 6.00 Build 0)  -->
<svg xmlns="http://www.w3.org/2000/svg" xmlns:xlink="http://www.w3.org/1999/xlink" version="1.1" id="Layer_1" x="0px" y="0px" viewBox="0 0 506 506" style="enable-background:new 0 0 506 506;" xml:space="preserve">
<circle style="fill:#324A5E;" cx="253" cy="253" r="253"/>
<path style="fill:#CED5E0;" d="M253,285.4c-16,0-31.5-1.1-46-3.2c-6.7-1-13.2-2.2-19.6-3.5c-54.6-11.8-92.5-38-92.5-68.4v85.5  c0,41.5,70.8,75.2,158.1,75.2s158.1-33.6,158.1-75.2v-85.5C411.1,251.8,340.3,285.4,253,285.4z"/>
<g>
	<path style="fill:#FFFFFF;" d="M253,135.1c-87.3,0-158.1,33.6-158.1,75.2c0,30.4,38,56.5,92.5,68.4l54.4-68.4l57.2-71.9   C284.5,136.2,269,135.1,253,135.1z"/>
	<path style="fill:#FFFFFF;" d="M318.6,141.9l-54.4,68.4L207,282.2c14.6,2.1,30,3.2,46,3.2c87.3,0,158.1-33.6,158.1-75.2   C411.1,179.9,373.2,153.7,318.6,141.9z"/>
</g>
<path style="fill:#E6E9EE;" d="M299,138.3l-57.2,71.9l-54.4,68.4c6.3,1.4,12.8,2.6,19.6,3.5l57.2-71.9l54.4-68.4  C312.3,140.5,305.8,139.3,299,138.3z"/>
<g>
</g>
<g>
</g>
<g>
</g>
<g>
</g>
<g>
</g>
<g>
</g>
<g>
</g>
<g>
</g>
<g>
</g>
<g>
</g>
<g>
</g>
<g>
</g>
<g>
</g>
<g>
</g>
<g>
</g>
</svg>
