<?xml version="1.0" encoding="iso-8859-1"?>
<!-- Generator: Adobe Illustrator 19.0.0, SVG Export Plug-In . SVG Version: 6.00 Build 0)  -->
<svg xmlns="http://www.w3.org/2000/svg" xmlns:xlink="http://www.w3.org/1999/xlink" version="1.1" id="Layer_1" x="0px" y="0px" viewBox="0 0 506 506" style="enable-background:new 0 0 506 506;" xml:space="preserve">
<circle style="fill:#90DFAA;" cx="253" cy="253" r="253"/>
<path style="fill:#324A5E;" d="M394.1,147.9H250.4c-9.4,0-17-7.6-17-17s-7.6-17-17-17H111.9c-9.4,0-17,7.6-17,17v242.5v1.6  c0,9.4,7.6,17,17,17h1.6h279h1.6c9.4,0,17-7.6,17-17v-1.6V164.9C411.1,155.5,403.5,147.9,394.1,147.9z"/>
<circle style="fill:#FFFFFF;" cx="253" cy="271.7" r="81.7"/>
<polygon style="fill:#F1543F;" points="308.7,256.9 267.8,256.9 267.8,216.1 238.2,216.1 238.2,256.9 197.3,256.9 197.3,286.6   238.2,286.6 238.2,327.4 267.8,327.4 267.8,286.6 308.7,286.6 "/>
<g>
</g>
<g>
</g>
<g>
</g>
<g>
</g>
<g>
</g>
<g>
</g>
<g>
</g>
<g>
</g>
<g>
</g>
<g>
</g>
<g>
</g>
<g>
</g>
<g>
</g>
<g>
</g>
<g>
</g>
</svg>
