<?xml version="1.0" encoding="iso-8859-1"?>
<!-- Generator: Adobe Illustrator 19.0.0, SVG Export Plug-In . SVG Version: 6.00 Build 0)  -->
<svg xmlns="http://www.w3.org/2000/svg" xmlns:xlink="http://www.w3.org/1999/xlink" version="1.1" id="Layer_1" x="0px" y="0px" viewBox="0 0 506 506" style="enable-background:new 0 0 506 506;" xml:space="preserve">
<circle style="fill:#FD8469;" cx="253" cy="253" r="253"/>
<g>
	<path style="fill:#FFFFFF;" d="M207.6,352.9l-2.2,3.4c-13.8,21.3-29.9,37.8-34.6,37.8l0,0c-18.7,0-58.9-40.2-58.9-58.9   c0-4.7,16.5-20.8,37.8-34.6l3.4-2.2l-9.2-14.3l-3.4,2.2c-13.7,8.9-45.6,31.4-45.6,48.9c0,28.3,47.6,75.9,75.9,75.9l0,0   c6.8,0,14.6-4.5,23.9-13.8c11.6-11.6,22-27.3,24.9-31.8l2.2-3.4L207.6,352.9z"/>
	<path style="fill:#FFFFFF;" d="M335.2,94.9L335.2,94.9c-17.5,0-40,31.9-48.9,45.6l-2.2,3.4l14.3,9.2l2.2-3.4   c13.8-21.3,29.9-37.8,34.6-37.8l0,0c18.7,0,58.9,40.2,58.9,58.9c0,4.7-16.5,20.8-37.8,34.6l-3.4,2.2l9.2,14.3l3.4-2.2   c4.5-2.9,20.3-13.4,31.8-24.9c9.3-9.3,13.8-17.1,13.8-23.9C411.1,142.4,363.6,94.9,335.2,94.9z"/>
</g>
<g>
	<path style="fill:#2C9984;" d="M148.3,272.2c8.3,0.3,14.7-6.1,14.4-14.4c-0.5-12.7,9.4-22.6,22.1-22.1c8.3,0.3,14.7-6.2,14.4-14.4   c-0.5-12.7,9.4-22.6,22.1-22.1c8.3,0.3,14.7-6.1,14.4-14.4c-0.5-12.7,9.4-22.6,22.1-22.1c8.3,0.3,14.7-6.2,14.4-14.4   c-0.3-7.2,2.9-13.4,7.9-17.4l-0.7-0.7c-5-5-12.7-5.5-17.1-1.1L129,262.2c-4.4,4.4-3.9,12.1,1.1,17.1l0.7,0.7   C134.8,275,141.1,271.9,148.3,272.2z"/>
	<path style="fill:#2C9984;" d="M169.1,293c8.3,0.3,14.7-6.1,14.4-14.4c-0.5-12.7,9.4-22.6,22.1-22.1c8.3,0.3,14.7-6.2,14.4-14.4   c-0.5-12.7,9.4-22.6,22.1-22.1c8.3,0.3,14.7-6.1,14.4-14.4c-0.5-12.7,9.4-22.6,22.1-22.1c8.3,0.3,14.7-6.1,14.4-14.4   c-0.3-7.2,2.9-13.4,7.9-17.4l-14.5-14.5c-3.7,2.6-6,6.9-5.8,11.9c0.2,6.3-2.1,12-6.1,16s-9.6,6.4-16,6.1   c-8.3-0.3-14.7,6.1-14.4,14.4c0.5,12.7-9.4,22.6-22.1,22.1c-8.3-0.3-14.7,6.1-14.4,14.4c0.5,12.7-9.4,22.6-22.1,22.1   c-8.3-0.3-14.7,6.1-14.4,14.4c0.5,12.7-9.4,22.6-22.1,22.1c-5-0.2-9.3,2.1-11.9,5.8l14.5,14.5C155.7,295.9,161.9,292.7,169.1,293z"/>
	<path style="fill:#2C9984;" d="M364,232.4c0.2,6.3-2.1,12-6.1,16s-9.6,6.4-16,6.1c-8.3-0.3-14.7,6.1-14.4,14.4   c0.5,12.7-9.4,22.6-22.1,22.1c-8.3-0.3-14.7,6.1-14.4,14.4c0.5,12.7-9.4,22.6-22.1,22.1c-8.3-0.3-14.7,6.1-14.4,14.4   c0.5,12.7-9.4,22.6-22.1,22.1c-5-0.2-9.3,2.1-11.9,5.8l6.1,6.1c5,5,12.7,5.5,17.1,1.1L377,243.8c4.4-4.4,3.9-12.1-1.1-17.1   l-6.2-6.2C366.1,223.1,363.8,227.4,364,232.4z"/>
	<path style="fill:#2C9984;" d="M343.1,211.5c0.2,6.3-2.1,12-6.1,16s-9.6,6.4-16,6.1c-8.3-0.3-14.7,6.1-14.4,14.4   c0.5,12.7-9.4,22.6-22.1,22.1c-8.3-0.3-14.7,6.1-14.4,14.4c0.5,12.7-9.4,22.6-22.1,22.1c-8.3-0.3-14.7,6.1-14.4,14.4   c0.5,12.7-9.4,22.6-22.1,22.1c-5-0.2-9.3,2.1-11.9,5.8l14.5,14.5c4-5,10.2-8.2,17.4-7.9c8.3,0.3,14.7-6.1,14.4-14.4   c-0.5-12.7,9.4-22.6,22.1-22.1c8.3,0.3,14.7-6.2,14.4-14.4C282,292,292,282,304.6,282.5c8.3,0.3,14.7-6.1,14.4-14.4   c-0.5-12.7,9.4-22.6,22.1-22.1c8.3,0.3,14.7-6.2,14.4-14.4c-0.3-7.2,2.9-13.4,7.9-17.4l-14.5-14.5   C345.2,202.2,342.9,206.5,343.1,211.5z"/>
	<path style="fill:#2C9984;" d="M322.3,190.7c0.2,6.3-2.1,12-6.1,16s-9.6,6.4-16,6.1c-8.3-0.3-14.7,6.1-14.4,14.4   c0.5,12.7-9.4,22.6-22.1,22.1c-8.3-0.3-14.7,6.1-14.4,14.4c0.5,12.7-9.4,22.6-22.1,22.1c-8.3-0.3-14.7,6.1-14.4,14.4   c0.5,12.7-9.4,22.6-22.1,22.1c-5-0.2-9.3,2.1-11.9,5.8l14.5,14.5c4-5,10.2-8.2,17.4-7.9c8.3,0.3,14.7-6.1,14.4-14.4   c-0.5-12.7,9.4-22.6,22.1-22.1c8.3,0.3,14.7-6.2,14.4-14.4c-0.5-12.7,9.4-22.6,22.1-22.1c8.3,0.3,14.7-6.1,14.4-14.4   c-0.5-12.7,9.4-22.6,22.1-22.1c8.3,0.3,14.7-6.2,14.4-14.4c-0.3-7.2,2.9-13.4,7.9-17.4L328,178.9   C324.4,181.4,322.1,185.7,322.3,190.7z"/>
	<path style="fill:#2C9984;" d="M301.4,169.8c0.2,6.3-2.1,12-6.1,16s-9.6,6.4-16,6.1c-8.3-0.3-14.7,6.1-14.4,14.4   c0.5,12.7-9.4,22.6-22.1,22.1c-8.3-0.3-14.7,6.1-14.4,14.4c0.5,12.7-9.4,22.6-22.1,22.1c-8.3-0.3-14.7,6.1-14.4,14.4   c0.5,12.7-9.4,22.6-22.1,22.1c-5-0.2-9.3,2.1-11.9,5.8l14.5,14.5c4-5,10.2-8.2,17.4-7.9c8.3,0.3,14.7-6.1,14.4-14.4   c-0.5-12.7,9.4-22.6,22.1-22.1c8.3,0.3,14.7-6.2,14.4-14.4c-0.5-12.7,9.4-22.6,22.1-22.1c8.3,0.3,14.7-6.1,14.4-14.4   c-0.5-12.7,9.4-22.6,22.1-22.1c8.3,0.3,14.7-6.2,14.4-14.4c-0.3-7.2,2.9-13.4,7.9-17.4L307.2,158   C303.6,160.5,301.2,164.8,301.4,169.8z"/>
</g>
<g>
	<path style="fill:#4CDBC4;" d="M149,280.6c12.7,0.5,22.6-9.4,22.1-22.1c-0.3-8.3,6.1-14.7,14.4-14.4c12.7,0.5,22.6-9.4,22.1-22.1   c-0.3-8.3,6.1-14.7,14.4-14.4c12.7,0.5,22.6-9.4,22.1-22.1c-0.3-8.3,6.1-14.7,14.4-14.4c6.3,0.2,12-2.1,16-6.1s6.4-9.6,6.1-16   c-0.2-5,2.1-9.3,5.8-11.9l-6.3-6.3c-5,4-8.2,10.2-7.9,17.4c0.3,8.3-6.1,14.7-14.4,14.4c-12.7-0.5-22.6,9.4-22.1,22.1   c0.3,8.3-6.1,14.7-14.4,14.4c-12.7-0.5-22.6,9.4-22.1,22.1c0.3,8.3-6.1,14.7-14.4,14.4c-12.7-0.5-22.6,9.4-22.1,22.1   c0.3,8.3-6.1,14.7-14.4,14.4c-7.2-0.3-13.4,2.9-17.4,7.9l6.3,6.3C139.7,282.7,144,280.4,149,280.6z"/>
	<path style="fill:#4CDBC4;" d="M169.8,301.4c12.7,0.5,22.6-9.4,22.1-22.1c-0.3-8.3,6.1-14.7,14.4-14.4c12.7,0.5,22.6-9.4,22.1-22.1   c-0.3-8.3,6.1-14.7,14.4-14.4c12.7,0.5,22.6-9.4,22.1-22.1c-0.3-8.3,6.1-14.7,14.4-14.4c6.3,0.2,12-2.1,16-6.1s6.4-9.6,6.1-16   c-0.2-5,2.1-9.3,5.8-11.9l-6.3-6.3c-5,4-8.2,10.2-7.9,17.4c0.3,8.3-6.1,14.7-14.4,14.4c-12.7-0.5-22.6,9.4-22.1,22.1   c0.3,8.3-6.1,14.7-14.4,14.4c-12.7-0.5-22.6,9.4-22.1,22.1c0.3,8.2-6.1,14.7-14.4,14.4c-12.7-0.5-22.6,9.4-22.1,22.1   c0.3,8.3-6.1,14.7-14.4,14.4c-7.2-0.3-13.4,2.9-17.4,7.9l6.3,6.3C160.5,303.6,164.8,301.2,169.8,301.4z"/>
	<path style="fill:#4CDBC4;" d="M313.8,189.9c0.3,8.3-6.1,14.7-14.4,14.4c-12.7-0.5-22.6,9.4-22.1,22.1c0.3,8.3-6.1,14.7-14.4,14.4   c-12.7-0.5-22.6,9.4-22.1,22.1c0.3,8.3-6.1,14.7-14.4,14.4c-12.7-0.5-22.6,9.4-22.1,22.1c0.3,8.3-6.1,14.7-14.4,14.4   c-7.2-0.3-13.4,2.9-17.4,7.9l6.3,6.3c2.6-3.7,6.9-6,11.9-5.8c12.7,0.5,22.6-9.4,22.1-22.1c-0.3-8.3,6.1-14.7,14.4-14.4   c12.7,0.5,22.6-9.4,22.1-22.1c-0.3-8.3,6.1-14.7,14.4-14.4c12.7,0.5,22.6-9.4,22.1-22.1c-0.3-8.3,6.1-14.7,14.4-14.4   c6.3,0.2,12-2.1,16-6.1s6.4-9.6,6.1-16c-0.2-5,2.1-9.3,5.8-11.9l-6.3-6.3C316.7,176.5,313.6,182.7,313.8,189.9z"/>
	<path style="fill:#4CDBC4;" d="M334.7,210.8c0.3,8.2-6.1,14.7-14.4,14.4c-12.7-0.5-22.6,9.4-22.1,22.1c0.3,8.3-6.1,14.7-14.4,14.4   c-12.7-0.5-22.6,9.4-22.1,22.1c0.3,8.2-6.1,14.7-14.4,14.4c-12.7-0.5-22.6,9.4-22.1,22.1c0.3,8.3-6.1,14.7-14.4,14.4   c-7.2-0.3-13.4,2.9-17.4,7.9l6.3,6.3c2.6-3.7,6.9-6,11.9-5.8c12.7,0.5,22.6-9.4,22.1-22.1c-0.3-8.3,6.1-14.7,14.4-14.4   c12.7,0.5,22.6-9.4,22.1-22.1c-0.3-8.3,6.1-14.7,14.4-14.4c12.7,0.5,22.6-9.4,22.1-22.1c-0.3-8.3,6.1-14.7,14.4-14.4   c6.3,0.2,12-2.1,16-6.1s6.4-9.6,6.1-16c-0.2-5,2.1-9.3,5.8-11.9l-6.3-6.3C337.6,197.4,334.4,203.6,334.7,210.8z"/>
	<path style="fill:#4CDBC4;" d="M355.5,231.6c0.3,8.3-6.1,14.7-14.4,14.4c-12.7-0.5-22.6,9.4-22.1,22.1c0.3,8.3-6.1,14.7-14.4,14.4   C292,282,282,292,282.5,304.6c0.3,8.3-6.1,14.7-14.4,14.4c-12.7-0.5-22.6,9.4-22.1,22.1c0.3,8.3-6.1,14.7-14.4,14.4   c-7.2-0.3-13.4,2.9-17.4,7.9l6.3,6.3c2.6-3.7,6.9-6,11.9-5.8c12.7,0.5,22.6-9.4,22.1-22.1c-0.3-8.3,6.1-14.7,14.4-14.4   c12.7,0.5,22.6-9.4,22.1-22.1c-0.3-8.3,6.1-14.7,14.4-14.4c12.7,0.5,22.6-9.4,22.1-22.1c-0.3-8.3,6.1-14.7,14.4-14.4   c6.3,0.2,12-2.1,16-6.1s6.4-9.6,6.1-16c-0.2-5,2.1-9.3,5.8-11.9l-6.3-6.3C358.4,218.2,355.3,224.4,355.5,231.6z"/>
</g>
<g>
</g>
<g>
</g>
<g>
</g>
<g>
</g>
<g>
</g>
<g>
</g>
<g>
</g>
<g>
</g>
<g>
</g>
<g>
</g>
<g>
</g>
<g>
</g>
<g>
</g>
<g>
</g>
<g>
</g>
</svg>
