<?xml version="1.0" encoding="iso-8859-1"?>
<!-- Generator: Adobe Illustrator 19.0.0, SVG Export Plug-In . SVG Version: 6.00 Build 0)  -->
<svg xmlns="http://www.w3.org/2000/svg" xmlns:xlink="http://www.w3.org/1999/xlink" version="1.1" id="Layer_1" x="0px" y="0px" viewBox="0 0 506 506" style="enable-background:new 0 0 506 506;" xml:space="preserve">
<circle style="fill:#84DBFF;" cx="253" cy="253" r="253"/>
<path style="fill:#324A5E;" d="M253,411.1c-87.2,0-158.1-70.9-158.1-158.1S165.8,94.9,253,94.9S411.1,165.8,411.1,253  S340.2,411.1,253,411.1z"/>
<circle style="fill:#FFFFFF;" cx="252.6" cy="254.2" r="35.5"/>
<g>
	<path style="fill:#E6E9EE;" d="M202,239.6c1.9-6.5,4.9-12.4,8.8-17.4l-51.2-58.3c-14.5,14.7-25.6,33.2-31.7,54.4   c-6.1,21.2-6.5,42.7-2.1,62.9l74.4-22.1C199.6,252.7,200.1,246.2,202,239.6z"/>
	<path style="fill:#E6E9EE;" d="M299.1,229.6l72.5-21.6c-12.9-33.6-39.6-61.4-75.4-74.7l-21.1,73.3   C285.6,211.6,293.9,219.8,299.1,229.6z"/>
	<path style="fill:#E6E9EE;" d="M278.9,299.8c-9.6,5.6-21,8.1-32.6,6.7l-21.1,73.3c37.3,7.8,74.8-1.5,103.6-23.2L278.9,299.8z"/>
</g>
<g>
</g>
<g>
</g>
<g>
</g>
<g>
</g>
<g>
</g>
<g>
</g>
<g>
</g>
<g>
</g>
<g>
</g>
<g>
</g>
<g>
</g>
<g>
</g>
<g>
</g>
<g>
</g>
<g>
</g>
</svg>
