<?xml version="1.0" encoding="iso-8859-1"?>
<!-- Generator: Adobe Illustrator 19.0.0, SVG Export Plug-In . SVG Version: 6.00 Build 0)  -->
<svg xmlns="http://www.w3.org/2000/svg" xmlns:xlink="http://www.w3.org/1999/xlink" version="1.1" id="Layer_1" x="0px" y="0px" viewBox="0 0 506 506" style="enable-background:new 0 0 506 506;" xml:space="preserve">
<circle style="fill:#FFD05B;" cx="253" cy="253" r="253"/>
<rect x="115.5" y="129.8" style="fill:#2B3B4E;" width="274.9" height="212.2"/>
<rect x="134.6" y="148.9" style="fill:#E6E9EE;" width="236.7" height="174"/>
<polygon style="fill:#324A5E;" points="302.8,401.7 411.1,401.7 411.1,401.7 390.7,359 115.3,359 94.9,401.7 94.9,401.7 "/>
<circle style="fill:#F1543F;" cx="253" cy="235.9" r="45.9"/>
<polygon style="fill:#FFFFFF;" points="282.8,228.8 260.1,228.8 260.1,206.1 245.9,206.1 245.9,228.8 223.2,228.8 223.2,243   245.9,243 245.9,265.7 260.1,265.7 260.1,243 282.8,243 "/>
<polygon style="fill:#324A5E;" points="298.2,258.3 322.1,311.6 328.6,288.7 351.5,282.2 "/>
<g>
</g>
<g>
</g>
<g>
</g>
<g>
</g>
<g>
</g>
<g>
</g>
<g>
</g>
<g>
</g>
<g>
</g>
<g>
</g>
<g>
</g>
<g>
</g>
<g>
</g>
<g>
</g>
<g>
</g>
</svg>
