<?xml version="1.0" encoding="iso-8859-1"?>
<!-- Generator: Adobe Illustrator 19.0.0, SVG Export Plug-In . SVG Version: 6.00 Build 0)  -->
<svg xmlns="http://www.w3.org/2000/svg" xmlns:xlink="http://www.w3.org/1999/xlink" version="1.1" id="Layer_1" x="0px" y="0px" viewBox="0 0 506 506" style="enable-background:new 0 0 506 506;" xml:space="preserve">
<circle style="fill:#84DBFF;" cx="253" cy="253" r="253"/>
<polygon style="fill:#2B3B4E;" points="170.3,349.5 156.5,335.7 113,379.2 119.9,386.1 106.3,372.4 94.9,383.8 122.2,411.1   133.6,399.7 126.8,393 "/>
<path style="fill:#324A5E;" d="M282.2,286.8l90.5-90.5l-10.8-10.8L330,217.4L288.6,176l31.9-31.9l-10.8-10.8l-90.5,90.5l-73.9,111.5  l25.3,25.3L282.2,286.8z M165,333.4l61.4-92.7l9.6-12l41.8-41.8l41.4,41.4L277.3,270l-12,9.6L172.6,341L165,333.4z"/>
<path style="fill:#F1543F;" d="M371.5,196.6c-25.4-15.4-46.7-36.7-62.1-62.1c-6.3-10.4-3.4-26.2,4.9-34.6c8.4-8.4,19.1-6,25.4,4.3  c15.4,25.4,36.7,46.7,62.1,62.1c10.3,6.3,12.7,17,4.3,25.4C397.7,200.1,381.8,202.9,371.5,196.6z"/>
<g>
</g>
<g>
</g>
<g>
</g>
<g>
</g>
<g>
</g>
<g>
</g>
<g>
</g>
<g>
</g>
<g>
</g>
<g>
</g>
<g>
</g>
<g>
</g>
<g>
</g>
<g>
</g>
<g>
</g>
</svg>
