<?xml version="1.0" encoding="iso-8859-1"?>
<!-- Generator: Adobe Illustrator 19.0.0, SVG Export Plug-In . SVG Version: 6.00 Build 0)  -->
<svg xmlns="http://www.w3.org/2000/svg" xmlns:xlink="http://www.w3.org/1999/xlink" version="1.1" id="Layer_1" x="0px" y="0px" viewBox="0 0 506 506" style="enable-background:new 0 0 506 506;" xml:space="preserve">
<circle style="fill:#324A5E;" cx="253" cy="253" r="253"/>
<g>
	<path style="fill:#E6E9EE;" d="M362.9,228.9c0-69.3-52.6-126.3-120.1-133.3v266.6C310.2,355.2,362.9,298.2,362.9,228.9z"/>
	<path style="fill:#E6E9EE;" d="M215,362.2V95.6c-67.5,6.9-120.1,64-120.1,133.3S147.5,355.2,215,362.2z"/>
</g>
<g>
	<path style="fill:#CED5E0;" d="M228.9,362.9c4.7,0,9.3-0.2,13.9-0.7V95.6c-4.6-0.5-9.2-0.7-13.9-0.7s-9.3,0.2-13.9,0.7v266.6   C219.6,362.6,224.2,362.9,228.9,362.9z"/>
	<path style="fill:#CED5E0;" d="M94.9,228.9c0,4.7,0.2,9.3,0.7,13.9h266.6c0.5-4.6,0.7-9.2,0.7-13.9s-0.2-9.3-0.7-13.9H95.6   C95.1,219.6,94.9,224.2,94.9,228.9z"/>
</g>
<path style="fill:#FFFFFF;" d="M360.7,411.1c27.8,0,50.4-22.6,50.4-50.4s-22.6-50.4-50.4-50.4h-73.9v100.8L360.7,411.1L360.7,411.1z  "/>
<path style="fill:#54C0EB;" d="M286.9,310.4H213c-27.8,0-50.4,22.6-50.4,50.4s22.6,50.4,50.4,50.4h73.9V310.4z"/>
<g>
</g>
<g>
</g>
<g>
</g>
<g>
</g>
<g>
</g>
<g>
</g>
<g>
</g>
<g>
</g>
<g>
</g>
<g>
</g>
<g>
</g>
<g>
</g>
<g>
</g>
<g>
</g>
<g>
</g>
</svg>
