<?xml version="1.0" encoding="iso-8859-1"?>
<!-- Generator: Adobe Illustrator 19.0.0, SVG Export Plug-In . SVG Version: 6.00 Build 0)  -->
<svg xmlns="http://www.w3.org/2000/svg" xmlns:xlink="http://www.w3.org/1999/xlink" version="1.1" id="Layer_1" x="0px" y="0px" viewBox="0 0 506 506" style="enable-background:new 0 0 506 506;" xml:space="preserve">
<circle style="fill:#90DFAA;" cx="253" cy="253" r="253"/>
<path style="fill:#FF7058;" d="M185.1,130.1c-0.1,4.2,0.6,11.7,5.2,17.1c3.9,4.5,10.3,6.8,18.9,6.8v14.2c-13,0-23-4-29.7-11.8  c-6.2-7.3-8.1-16.2-8.5-22.7c-29.1,4.7-33.7,34.7-34.4,44.3c6.2,5.5,26.4,20,53.8,6.4l6.3,12.7c-10.2,5.1-20,7.1-28.8,7.1  c-16.2,0-29.5-6.6-38-13.3c-14.7,17.3-21.7,35.1-20.9,52.8c1.2,25.2,17.9,43.2,22.2,47.4c7.1,2,40.8,9.1,64.9-28l11.9,7.7  c-19.5,30-45,36.1-62.5,36.1c-4.9,0-9.1-0.5-12.4-1c-1.9,11.6-0.2,21.5,4.9,29.4c9.3,14.3,27.5,18.8,31.6,19.6  c5.4-0.7,33.9-6,42.8-34.4l13.5,4.2c-8.7,28-31.7,38.4-45.4,42.3c6.4,9.6,13.5,15.1,21.1,16.3c11.8,1.8,23.1-6.5,29-11.9v-243  c-6-4.2-12.5-5.7-18.8-5.7C200.5,122.6,190,127.5,185.1,130.1z"/>
<path style="fill:#F1543F;" d="M242.4,119.5c-25.7-22-58.1-5.3-66.1-0.6c-40.4,1.7-52.7,37.7-53.8,59  c-19.3,21.3-28.6,43.6-27.5,66.4c1.3,27.9,17.8,48,24.9,55.3c-3.6,16.9-1.4,31.5,6.4,43.4c11.1,17,30.5,23.3,38.5,25.2  c9.5,17.1,21.2,26.8,34.8,28.9c1.9,0.3,3.7,0.4,5.5,0.4c17.4,0,31.9-12.5,37.7-18.2l2.1-2.1V121.6L242.4,119.5z M230.7,371.3  c-5.9,5.3-17.2,13.7-29,11.9c-7.6-1.2-14.7-6.7-21.1-16.3c13.6-3.8,36.6-14.3,45.4-42.3l-13.5-4.2c-8.9,28.4-37.3,33.6-42.8,34.4  c-4.1-0.9-22.3-5.4-31.6-19.6c-5.2-7.9-6.8-17.8-4.9-29.4c3.3,0.6,7.5,1,12.4,1c17.5,0,43-6.1,62.5-36.1l-11.9-7.7  c-7.8,12-16.6,19.4-25.2,23.8c-3.8-5-12.9-18.4-11.1-31c0.9-6.4,4.6-11.8,11.2-16.3L161,227.2c-10.4,7.1-16.4,16.1-17.9,26.8  c-2.1,15.3,5.9,30.1,11.5,38.2c-11,1.8-20-0.2-23.2-1.2c-4.3-4.2-21-22.2-22.2-47.4c-0.8-17.7,6.2-35.5,20.9-52.8  c8.5,6.7,21.8,13.3,38,13.3c8.9,0,18.6-2,28.8-7.1l-6.3-12.7c-27.4,13.6-47.6-0.9-53.8-6.4c0.7-9.6,5.3-39.6,34.4-44.3  c0.4,6.5,2.2,15.5,8.5,22.7c6.7,7.8,16.7,11.8,29.7,11.8V154c-8.7,0-15-2.3-18.9-6.8c-4.6-5.3-5.3-12.8-5.2-17.1  c4.9-2.6,15.4-7.5,26.8-7.5c6.3,0,12.8,1.5,18.8,5.7v243H230.7z"/>
<path style="fill:#FF7058;" d="M320.9,130.1c0.1,4.2-0.6,11.7-5.2,17.1c-3.9,4.5-10.3,6.8-18.9,6.8v14.2c13,0,23-4,29.7-11.8  c6.2-7.3,8.1-16.2,8.5-22.7c29.1,4.7,33.7,34.7,34.4,44.3c-6.2,5.5-26.4,20-53.8,6.4l-6.3,12.7c10.2,5.1,20,7.1,28.8,7.1  c16.2,0,29.5-6.6,38-13.3c14.7,17.3,21.7,35.1,20.9,52.8c-1.2,25.2-17.9,43.2-22.2,47.4c-7.1,2-40.8,9.1-64.9-28l-11.9,7.7  c19.5,30,45,36.1,62.5,36.1c4.9,0,9.1-0.5,12.4-1c1.9,11.6,0.2,21.5-4.9,29.4c-9.3,14.3-27.5,18.8-31.6,19.6  c-5.4-0.7-33.9-6-42.8-34.4l-13.5,4.2c8.7,28,31.7,38.4,45.4,42.3c-6.4,9.6-13.5,15.1-21.1,16.3c-11.8,1.8-23.1-6.5-29-11.9v-243  c6-4.2,12.5-5.7,18.8-5.7C305.5,122.6,316,127.5,320.9,130.1z"/>
<path style="fill:#F1543F;" d="M261.2,121.6v255.7l2.1,2.1c5.8,5.8,20.3,18.2,37.7,18.2c1.8,0,3.6-0.1,5.5-0.4  c13.6-2.1,25.2-11.8,34.8-28.9c8-1.9,27.3-8.2,38.5-25.2c7.8-12,10-26.6,6.4-43.4c7.1-7.4,23.6-27.4,24.9-55.3  c1.1-22.8-8.2-45.1-27.5-66.4c-1.1-21.4-13.3-57.4-53.8-59c-8-4.7-40.5-21.4-66.1,0.6L261.2,121.6z M275.3,128.3  c6-4.2,12.5-5.7,18.8-5.7c11.4,0,21.9,4.9,26.8,7.5c0.1,4.2-0.6,11.7-5.2,17.1c-3.9,4.5-10.3,6.8-18.9,6.8v14.2c13,0,23-4,29.7-11.8  c6.2-7.3,8.1-16.2,8.5-22.7c29.1,4.7,33.7,34.7,34.4,44.3c-6.2,5.5-26.4,20-53.8,6.4l-6.3,12.7c10.2,5.1,20,7.1,28.8,7.1  c16.2,0,29.5-6.6,38-13.3c14.7,17.3,21.7,35.1,20.9,52.8c-1.2,25.2-17.9,43.2-22.2,47.4c-3.3,0.9-12.2,2.9-23.2,1.2  c5.6-8.1,13.6-22.9,11.5-38.2c-1.5-10.7-7.5-19.7-17.9-26.8l-10.1,12.4c6.6,4.5,10.3,9.8,11.2,16.3c1.8,12.6-7.3,26-11.1,31  c-8.6-4.4-17.4-11.8-25.2-23.8l-11.9,7.7c19.5,30,45,36.1,62.5,36.1c4.9,0,9.1-0.5,12.4-1c1.9,11.6,0.2,21.5-4.9,29.4  c-9.3,14.3-27.5,18.8-31.6,19.6c-5.4-0.7-33.9-6-42.8-34.4l-13.5,4.2c8.7,28,31.7,38.4,45.4,42.3c-6.4,9.6-13.5,15.1-21.1,16.3  c-11.8,1.8-23.1-6.5-29-11.9V128.3H275.3z"/>
<g>
</g>
<g>
</g>
<g>
</g>
<g>
</g>
<g>
</g>
<g>
</g>
<g>
</g>
<g>
</g>
<g>
</g>
<g>
</g>
<g>
</g>
<g>
</g>
<g>
</g>
<g>
</g>
<g>
</g>
</svg>
