<?xml version="1.0" encoding="iso-8859-1"?>
<!-- Generator: Adobe Illustrator 19.0.0, SVG Export Plug-In . SVG Version: 6.00 Build 0)  -->
<svg xmlns="http://www.w3.org/2000/svg" xmlns:xlink="http://www.w3.org/1999/xlink" version="1.1" id="Layer_1" x="0px" y="0px" viewBox="0 0 506 506" style="enable-background:new 0 0 506 506;" xml:space="preserve">
<circle style="fill:#FFD05B;" cx="253" cy="253" r="253"/>
<path style="fill:#F1543F;" d="M339.5,210.7H117.8c-12.7,0-23-10.3-23-23l0,0c0-12.7,10.3-23,23-23h208.4l49.7-31.1  c10.8-6.7,24.9-3.5,31.7,7.3l0,0c6.7,10.8,3.5,24.9-7.3,31.7L339.5,210.7z"/>
<polygon style="fill:#324A5E;" points="295.7,210.7 295.7,259.3 154.4,259.3 154.4,210.7 134.2,210.7 134.2,328.2 154.4,328.2   154.4,279.5 295.7,279.5 295.7,328.2 316,328.2 316,210.7 "/>
<circle style="fill:#2B3B4E;" cx="144.3" cy="349.5" r="26.4"/>
<path style="fill:#324A5E;" d="M144.3,362.5c-7.2,0-13-5.8-13-13s5.8-13,13-13s13,5.8,13,13S151.5,362.5,144.3,362.5z"/>
<circle style="fill:#2B3B4E;" cx="305.8" cy="349.5" r="26.4"/>
<path style="fill:#324A5E;" d="M305.8,362.5c-7.2,0-13-5.8-13-13s5.8-13,13-13s13,5.8,13,13S313,362.5,305.8,362.5z"/>
<g>
</g>
<g>
</g>
<g>
</g>
<g>
</g>
<g>
</g>
<g>
</g>
<g>
</g>
<g>
</g>
<g>
</g>
<g>
</g>
<g>
</g>
<g>
</g>
<g>
</g>
<g>
</g>
<g>
</g>
</svg>
