<?xml version="1.0" encoding="iso-8859-1"?>
<!-- Generator: Adobe Illustrator 19.0.0, SVG Export Plug-In . SVG Version: 6.00 Build 0)  -->
<svg xmlns="http://www.w3.org/2000/svg" xmlns:xlink="http://www.w3.org/1999/xlink" version="1.1" id="Layer_1" x="0px" y="0px" viewBox="0 0 506 506" style="enable-background:new 0 0 506 506;" xml:space="preserve">
<circle style="fill:#FD8469;" cx="253" cy="253" r="253"/>
<polygon style="fill:#324A5E;" points="208,375.2 208,403.2 367.4,403.2 367.4,375.2 "/>
<path style="fill:#E6E9EE;" d="M367.6,311.9c0-21.6,3.8-43,10.9-63.4c5.2-15,7.6-31.2,6.5-48.2C381.1,139.5,330.7,90,269.8,87.1  c-69.7-3.3-127.3,52.2-127.3,121.2V223c0,10.2-4,19.9-11.2,27.1l-11.2,11.2c-4.7,4.7-1.4,12.8,5.3,12.8h17.2v17.3c0,1.5,0.8,3,2,3.9  l7.1,4.8c2.7,1.9,2.7,5.9,0,7.7l-7.1,4.8c-1.3,0.9-2,2.3-2,3.9v13.6c0,9.7,7.8,17.5,17.5,17.5h30.4c9.7,0,17.5,3.9,17.5,13.6v14  h159.4L367.6,311.9z"/>
<g>
	
		<rect x="68.702" y="268.778" transform="matrix(-0.958 -0.2866 0.2866 -0.958 59.6959 558.194)" style="fill:#324A5E;" width="4" height="11.899"/>
	
		<rect x="77.92" y="271.759" transform="matrix(0.9581 0.2864 -0.2864 0.9581 82.9201 -11.4994)" style="fill:#324A5E;" width="5.7" height="11.9"/>
	<polygon style="fill:#324A5E;" points="87.3,285.9 91.1,287 115.1,294.2 118.5,282.8 94.5,275.6 90.7,274.5  "/>
	<polygon style="fill:#324A5E;" points="116.8,314.2 116.8,302.3 92.8,302.3 88.8,302.3 88.8,314.2 92.8,314.2  "/>
	<rect x="49.6" y="302.3" style="fill:#324A5E;" width="4" height="11.9"/>
	<rect x="74.7" y="302.3" style="fill:#324A5E;" width="7.1" height="11.9"/>
	<rect x="60.6" y="302.3" style="fill:#324A5E;" width="7.1" height="11.9"/>
	<polygon style="fill:#324A5E;" points="115.1,322.3 91.1,329.5 87.3,330.6 90.7,342 94.5,340.9 118.5,333.7  "/>
	
		<rect x="68.68" y="335.796" transform="matrix(-0.958 0.2866 -0.2866 -0.958 236.3437 648.8967)" style="fill:#324A5E;" width="4" height="11.899"/>
	
		<rect x="77.994" y="332.786" transform="matrix(-0.9581 0.2864 -0.2864 -0.9581 255.3161 640.1282)" style="fill:#324A5E;" width="5.7" height="11.9"/>
</g>
<g>
</g>
<g>
</g>
<g>
</g>
<g>
</g>
<g>
</g>
<g>
</g>
<g>
</g>
<g>
</g>
<g>
</g>
<g>
</g>
<g>
</g>
<g>
</g>
<g>
</g>
<g>
</g>
<g>
</g>
</svg>
