<?xml version="1.0" encoding="iso-8859-1"?>
<!-- Generator: Adobe Illustrator 19.0.0, SVG Export Plug-In . SVG Version: 6.00 Build 0)  -->
<svg xmlns="http://www.w3.org/2000/svg" xmlns:xlink="http://www.w3.org/1999/xlink" version="1.1" id="Layer_1" x="0px" y="0px" viewBox="0 0 506 506" style="enable-background:new 0 0 506 506;" xml:space="preserve">
<circle style="fill:#FFD05B;" cx="253" cy="253" r="253"/>
<path style="fill:#2B3B4E;" d="M127.4,127.4C84,170.7,84,241,127.4,284.3c43.3,43.3,113.6,43.3,156.9,0s43.3-113.6,0-156.9  C241,84,170.7,84,127.4,127.4z M270.4,270.4c-35.5,35.5-93.2,35.5-128.7,0s-35.5-93.2,0-128.7s93.2-35.5,128.7,0  S305.9,235,270.4,270.4z"/>
<path style="fill:#324A5E;" d="M301.3,269.9c-0.8-1-1.8-2-2.7-3c-4.1,6.2-8.8,12-14.3,17.5s-11.3,10.2-17.5,14.3c1,0.9,2,1.9,3,2.7  c13.2,10.9,24.8,23.7,33,38.7c6.2,11.3,15.4,23.5,26.9,35c29.9,29.9,64.3,44,76.8,31.5s-1.6-46.9-31.5-76.8  c-11.5-11.5-23.7-20.7-35-26.9C325,294.7,312.2,283,301.3,269.9z"/>
<path style="fill:#FFFFFF;" d="M141.7,141.7c-35.5,35.5-35.5,93.2,0,128.7s93.2,35.5,128.7,0s35.5-93.2,0-128.7  C235,106.3,177.2,106.3,141.7,141.7z"/>
<path style="fill:#FFD05B;" d="M166.1,139.3c2.8-1,5.8,0.5,6.8,3.3c4.6,13.1-2.4,27.5-15.5,32.1c-2.8,1-5.8-0.5-6.8-3.3  s0.5-5.8,3.3-6.8c7.6-2.7,11.6-11,9-18.6C161.9,143.3,163.3,140.3,166.1,139.3z"/>
<path style="fill:#4CDBC4;" d="M189.2,153.8c-2-2.1-1.9-5.5,0.2-7.5c10.1-9.6,26.1-9.2,35.6,0.9c2,2.1,1.9,5.5-0.2,7.5  c-2.1,2-5.5,1.9-7.5-0.2c-5.5-5.8-14.8-6.1-20.6-0.5C194.6,156,191.2,155.9,189.2,153.8z"/>
<path style="fill:#FFD05B;" d="M244.4,187.5c0-2.9,2.4-5.3,5.3-5.3c13.9,0,25.2,11.3,25.2,25.2c0,2.9-2.4,5.3-5.3,5.3  s-5.3-2.4-5.3-5.3c0-8-6.5-14.6-14.6-14.6C246.7,192.8,244.4,190.5,244.4,187.5z"/>
<path style="fill:#E6E9EE;" d="M255.1,229.4c2.1-2.1,5.4-2.1,7.5,0c9.8,9.8,9.8,25.8,0,35.7c-2.1,2.1-5.4,2.1-7.5,0s-2.1-5.4,0-7.5  c5.7-5.7,5.7-15,0-20.6C253,234.8,253,231.5,255.1,229.4z"/>
<path style="fill:#324A5E;" d="M209.7,238.9c2.9-0.3,5.5,1.9,5.7,4.8c1.2,13.8-9.1,26.1-22.9,27.3c-2.9,0.3-5.5-1.9-5.7-4.8  c-0.3-2.9,1.9-5.5,4.8-5.7c8-0.7,14-7.8,13.3-15.8C204.6,241.8,206.8,239.2,209.7,238.9z"/>
<path style="fill:#4CDBC4;" d="M178.5,246.2c0.4,2.9-1.6,5.6-4.5,6c-13.8,1.9-26.5-7.7-28.5-21.5c-0.4-2.9,1.6-5.6,4.5-6  s5.6,1.6,6,4.5c1.1,8,8.5,13.5,16.5,12.4C175.5,241.3,178.1,243.3,178.5,246.2z"/>
<path style="fill:#F1543F;" d="M206.7,185.3c2.3-1.8,5.7-1.4,7.4,0.9c8.5,11,6.5,26.9-4.5,35.4c-2.3,1.8-5.7,1.4-7.4-0.9  s-1.4-5.7,0.9-7.4c6.4-4.9,7.5-14.1,2.6-20.5C203.9,190.4,204.4,187.1,206.7,185.3z"/>
<circle style="fill:#84DBFF;" cx="234.5" cy="232" r="8.8"/>
<circle style="fill:#324A5E;" cx="248.9" cy="155.5" r="7.3"/>
<circle style="fill:#F1543F;" cx="227.6" cy="271.8" r="8.8"/>
<circle style="fill:#E6E9EE;" cx="170.7" cy="212.1" r="8.8"/>
<circle style="fill:#84DBFF;" cx="134.4" cy="178.6" r="8.8"/>
<circle style="fill:#F1543F;" cx="189.6" cy="172.1" r="6.1"/>
<g>
</g>
<g>
</g>
<g>
</g>
<g>
</g>
<g>
</g>
<g>
</g>
<g>
</g>
<g>
</g>
<g>
</g>
<g>
</g>
<g>
</g>
<g>
</g>
<g>
</g>
<g>
</g>
<g>
</g>
</svg>
