<?xml version="1.0" encoding="iso-8859-1"?>
<!-- Generator: Adobe Illustrator 19.0.0, SVG Export Plug-In . SVG Version: 6.00 Build 0)  -->
<svg xmlns="http://www.w3.org/2000/svg" xmlns:xlink="http://www.w3.org/1999/xlink" version="1.1" id="Layer_1" x="0px" y="0px" viewBox="0 0 506 506" style="enable-background:new 0 0 506 506;" xml:space="preserve">
<circle style="fill:#84DBFF;" cx="253" cy="253" r="253"/>
<path style="fill:#324A5E;" d="M369.9,253c3.2-4.1,6.2-8.2,9-12.3c20-30,24.5-56.9,12.7-75.8s-38-26.6-73.7-21.7  c-2.4,0.3-4.8,0.7-7.3,1.2C296,109,274.4,87,250,87c-0.1,0-0.2,0-0.3,0c-22.3,0.1-42.6,18.4-57.2,51.4c-0.8,1.9-1.7,3.8-2.5,5.8  c-2.1-0.4-4.2-0.7-6.3-1c-35.7-4.9-61.9,2.8-73.7,21.7c-13.9,22.1-4.5,54.8,21.6,88.1c-26.1,33.2-35.5,66-21.6,88.1  c9.7,15.5,29.2,23.1,54.2,23.1c8.4,0,17.4-0.9,26.8-2.5c0.9,2.3,1.9,4.6,2.9,6.8c15,32.6,35.4,50.6,57.6,50.6c0.1,0,0.2,0,0.3,0  c22.3-0.1,42.6-18.4,57.2-51.3c0.8-1.9,1.7-3.9,2.5-5.9c9.1,1.5,17.7,2.4,25.8,2.4c25,0,44.4-7.5,54.2-23.1  c11.8-18.9,7.3-45.8-12.7-75.8C376.2,261.2,373.2,257.1,369.9,253z M320,158.8c6.3-0.9,12.2-1.3,17.6-1.3c19.7,0,34.1,5.5,40.5,15.7  c8.2,13.1,3.7,34.5-12.4,58.7c-1.9,2.9-4,5.8-6.3,8.7c-9.4-10.4-20.3-20.5-32.3-30.2c-2.3-18.5-6.1-35.7-11.1-51  C317.4,159.2,318.7,159,320,158.8z M284.4,306.6c-11.4,7.1-22.7,13.3-33.6,18.5c-10.9-5.2-22.2-11.4-33.6-18.5  c-10-6.3-19.3-12.7-27.8-19.3c-1.2-11-1.8-22.3-1.9-33.9c-0.1-11.7,0.4-23.3,1.5-34.4c8.6-6.7,18-13.3,28.2-19.6  c11.1-6.9,22.4-13.1,33.6-18.5c11.2,5.4,22.5,11.5,33.6,18.5c9.8,6.1,19.1,12.7,27.8,19.4c1.1,10.7,1.8,22,1.8,33.8  c0.1,11.7-0.4,23.2-1.5,34.4C303.8,293.8,294.3,300.4,284.4,306.6z M309.8,308.7c-2.1,12.4-4.9,24.1-8.4,34.9  c-10-2.4-20.7-5.9-31.8-10.3c7.7-4.1,15.5-8.5,23.2-13.4C298.6,316.4,304.3,312.6,309.8,308.7z M232.1,333.4  c-10.8,4.3-21.1,7.6-30.9,10c-3.5-10.6-6.4-22.1-8.6-34.2c5.2,3.7,10.7,7.3,16.3,10.8C216.6,324.9,224.4,329.3,232.1,333.4z   M172.4,273.2c-7.5-6.7-14.3-13.5-20.2-20.2c5.9-6.6,12.6-13.3,20-20c-0.3,6.8-0.5,13.6-0.5,20.5C171.8,260.1,172,266.7,172.4,273.2  z M191.9,197.3c2.1-12.4,4.9-24.1,8.4-34.8c10.3,2.5,20.9,5.9,31.7,10.2c-7.8,4.1-15.5,8.5-23.2,13.3  C203,189.6,197.4,193.4,191.9,197.3z M269.6,172.7c10.5-4.2,20.9-7.5,30.9-10c3.4,10.3,6.4,21.8,8.6,34.2  c-5.3-3.7-10.8-7.4-16.4-10.9C285.2,181.2,277.4,176.7,269.6,172.7z M329.3,233c7.3,6.5,14,13.3,20.1,20c-6,6.7-12.6,13.4-19.8,19.9  c0.3-6.7,0.5-13.5,0.5-20.4C329.9,245.9,329.6,239.4,329.3,233z M207,144.7c11.7-26.5,27.4-41.8,42.9-41.9c0.1,0,0.1,0,0.2,0  c16,0,32.6,16.5,44.9,45c-14.3,3.7-29.1,9-44.1,15.7c-15.3-6.9-30.5-12.2-45-15.9C206.2,146.6,206.6,145.6,207,144.7z M123.5,173.3  c8.2-13.1,29.4-18.4,58.2-14.4c1,0.1,2,0.3,3,0.5c-4.9,15.7-8.5,33.1-10.7,51.4c-12,9.7-22.7,19.8-32,30  C121.1,213,114.4,187.8,123.5,173.3z M123.5,332.7c-9.1-14.5-2.4-39.7,18.6-67.5c9.3,10.3,20.2,20.5,32.4,30.4  c2.3,18.2,6.1,35.4,11.1,51C154.9,351.5,132,346.3,123.5,332.7z M294.7,361.3c-11.7,26.5-27.4,41.8-42.8,41.9c-0.1,0-0.1,0-0.2,0  c-15.4,0-31.2-15.1-43.2-41.4c-0.5-1.2-1.1-2.4-1.6-3.6c14-3.6,28.8-8.8,44-15.7c15.5,7,30.7,12.3,45,15.9  C295.5,359.4,295.1,360.4,294.7,361.3z M378.2,332.7c-8.4,13.4-30.9,18.7-61.2,14.1c5-15.7,8.6-33.1,10.7-51.6  c11.8-9.6,22.5-19.6,31.9-29.9c2.2,2.9,4.3,5.8,6.3,8.7C381.9,298.2,386.4,319.6,378.2,332.7z"/>
<circle style="fill:#F9B54C;" cx="148.6" cy="352.8" r="20.1"/>
<circle style="fill:#F1543F;" cx="382.2" cy="217" r="20.1"/>
<circle style="fill:#2C9984;" cx="157.5" cy="148.4" r="20.1"/>
<circle style="fill:#F1543F;" cx="250.9" cy="253" r="44.5"/>
<g>
</g>
<g>
</g>
<g>
</g>
<g>
</g>
<g>
</g>
<g>
</g>
<g>
</g>
<g>
</g>
<g>
</g>
<g>
</g>
<g>
</g>
<g>
</g>
<g>
</g>
<g>
</g>
<g>
</g>
</svg>
