<?xml version="1.0" encoding="iso-8859-1"?>
<!-- Generator: Adobe Illustrator 19.0.0, SVG Export Plug-In . SVG Version: 6.00 Build 0)  -->
<svg xmlns="http://www.w3.org/2000/svg" xmlns:xlink="http://www.w3.org/1999/xlink" version="1.1" id="Layer_1" x="0px" y="0px" viewBox="0 0 506 506" style="enable-background:new 0 0 506 506;" xml:space="preserve">
<circle style="fill:#FD8469;" cx="253" cy="253" r="253"/>
<path style="fill:#FFFFFF;" d="M253,94.9c-53,34.4-158.1,34.5-158.1,34.5c0,42.2,9.7,83.8,28.4,123.6H253V94.9z"/>
<g>
	<path style="fill:#324A5E;" d="M382.8,253c18.7-39.8,28.4-81.5,28.4-123.6c0,0-105.2-0.1-158.1-34.5V253H382.8z"/>
	<path style="fill:#324A5E;" d="M123.2,253c18.6,39.5,46,77.2,81.7,111.7l48,46.4V253H123.2z"/>
</g>
<path style="fill:#FFFFFF;" d="M253,253v158.1l48-46.4c35.7-34.5,63.2-72.2,81.7-111.7H253z"/>
<g>
	<path style="fill:#298472;" d="M340.6,289.8c-28,0-50.8,22.8-50.8,50.8s22.8,50.8,50.8,50.8s50.8-22.8,50.8-50.8   C391.4,312.6,368.6,289.8,340.6,289.8z"/>
	<path style="fill:#298472;" d="M340.6,270.1c-38.9,0-70.5,31.6-70.5,70.5s31.6,70.5,70.5,70.5s70.5-31.6,70.5-70.5   S379.6,270.1,340.6,270.1z M340.6,401.4c-33.5,0-60.8-27.3-60.8-60.8s27.3-60.8,60.8-60.8s60.8,27.3,60.8,60.8   S374.1,401.4,340.6,401.4z"/>
</g>
<path style="fill:#4CDBC4;" d="M340.6,279.8c-33.5,0-60.8,27.3-60.8,60.8s27.3,60.8,60.8,60.8s60.8-27.3,60.8-60.8  S374.1,279.8,340.6,279.8z M340.6,391.4c-28,0-50.8-22.8-50.8-50.8s22.8-50.8,50.8-50.8s50.8,22.8,50.8,50.8  S368.6,391.4,340.6,391.4z"/>
<path style="fill:#FFFFFF;" d="M353.9,307.2h14.9V374h-14.9v-26.3h-26.6V374h-14.9v-66.8h14.9v27.9h26.6V307.2z"/>
<g>
</g>
<g>
</g>
<g>
</g>
<g>
</g>
<g>
</g>
<g>
</g>
<g>
</g>
<g>
</g>
<g>
</g>
<g>
</g>
<g>
</g>
<g>
</g>
<g>
</g>
<g>
</g>
<g>
</g>
</svg>
