<?xml version="1.0" encoding="iso-8859-1"?>
<!-- Generator: Adobe Illustrator 19.0.0, SVG Export Plug-In . SVG Version: 6.00 Build 0)  -->
<svg xmlns="http://www.w3.org/2000/svg" xmlns:xlink="http://www.w3.org/1999/xlink" version="1.1" id="Layer_1" x="0px" y="0px" viewBox="0 0 506 506" style="enable-background:new 0 0 506 506;" xml:space="preserve">
<circle style="fill:#324A5E;" cx="253" cy="253" r="253"/>
<path style="fill:#FFFFFF;" d="M253,340.5c54.6,0,105.5,4.4,148.2,12c7.7-44.8,19.8-136.4-4.7-161c-50.7-50.7-236.3-50.7-287,0  c-24.6,24.6-12.4,116.2-4.7,161C147.5,344.9,198.4,340.5,253,340.5z"/>
<circle style="fill:#F1543F;" cx="253" cy="243.4" r="67.2"/>
<polygon style="fill:#FFFFFF;" points="299,232.7 263.7,232.7 263.7,197.4 242.3,197.4 242.3,232.7 207,232.7 207,254 242.3,254   242.3,289.4 263.7,289.4 263.7,254 299,254 "/>
<g>
</g>
<g>
</g>
<g>
</g>
<g>
</g>
<g>
</g>
<g>
</g>
<g>
</g>
<g>
</g>
<g>
</g>
<g>
</g>
<g>
</g>
<g>
</g>
<g>
</g>
<g>
</g>
<g>
</g>
</svg>
