<?xml version="1.0" encoding="iso-8859-1"?>
<!-- Generator: Adobe Illustrator 19.0.0, SVG Export Plug-In . SVG Version: 6.00 Build 0)  -->
<svg xmlns="http://www.w3.org/2000/svg" xmlns:xlink="http://www.w3.org/1999/xlink" version="1.1" id="Layer_1" x="0px" y="0px" viewBox="0 0 506 506" style="enable-background:new 0 0 506 506;" xml:space="preserve">
<circle style="fill:#84DBFF;" cx="253" cy="253" r="253"/>
<g>
	<path style="fill:#324A5E;" d="M255.7,123.2c-34.5-34.5-89-36.6-126-6.5l132.5,132.5C292.3,212.1,290.1,157.6,255.7,123.2z"/>
	<path style="fill:#324A5E;" d="M248.4,262.9L115.9,130.4c-30.1,37-27.9,91.5,6.5,126C156.9,290.8,211.4,293,248.4,262.9z"/>
</g>
<path style="fill:#2B3B4E;" d="M255.7,256.4c2.3-2.3,4.5-4.7,6.5-7.2L129.7,116.6c-2.5,2-4.9,4.2-7.2,6.5c-2.3,2.3-4.5,4.7-6.5,7.2  l132.5,132.5C250.9,260.9,253.4,258.7,255.7,256.4z"/>
<g>
	<path style="fill:#FF7058;" d="M388.6,387.9c28.1-28.1,29.9-72.6,5.3-102.8l-108,108.1C316,417.8,360.5,416,388.6,387.9z"/>
	<path style="fill:#FF7058;" d="M274.6,382l108.1-108.1c-30.2-24.6-74.6-22.8-102.8,5.3C251.8,307.4,250.1,351.8,274.6,382z"/>
</g>
<path style="fill:#F1543F;" d="M280,387.9c1.9,1.9,3.9,3.7,5.9,5.3l108.1-108c-1.7-2-3.4-4-5.3-5.9s-3.9-3.7-5.9-5.3L274.6,382  C276.3,384,278.1,386,280,387.9z"/>
<g>
</g>
<g>
</g>
<g>
</g>
<g>
</g>
<g>
</g>
<g>
</g>
<g>
</g>
<g>
</g>
<g>
</g>
<g>
</g>
<g>
</g>
<g>
</g>
<g>
</g>
<g>
</g>
<g>
</g>
</svg>
