<?xml version="1.0" encoding="iso-8859-1"?>
<!-- Generator: Adobe Illustrator 19.0.0, SVG Export Plug-In . SVG Version: 6.00 Build 0)  -->
<svg xmlns="http://www.w3.org/2000/svg" xmlns:xlink="http://www.w3.org/1999/xlink" version="1.1" id="Layer_1" x="0px" y="0px" viewBox="0 0 506 506" style="enable-background:new 0 0 506 506;" xml:space="preserve">
<circle style="fill:#90DFAA;" cx="253" cy="253" r="253"/>
<path style="fill:#324A5E;" d="M298.9,87H131.2c-11.3,0-20.5,8.4-20.5,18.7v25.6c0,10.3,9.2,18.7,20.5,18.7h167.7  c11.3,0,20.5-8.4,20.5-18.7v-25.6C319.4,95.3,310.2,87,298.9,87z"/>
<path style="fill:#FFFFFF;" d="M297.9,151.3l-0.1-1.4H132.3l-0.1,1.4c-0.5,7.5-5.1,13.7-11.4,17.5c-6.1,3.7-10.2,10.4-10.2,18.2  v195.2c0,11.6,9.2,21.1,20.5,21.1h167.7c11.3,0,20.5-9.4,20.5-21.1V187c0-7.8-4.1-14.5-10.2-18.2C303,165,298.4,158.8,297.9,151.3z"/>
<g>
	<rect x="131.2" y="87" style="fill:#2B3B4E;" width="24" height="62.9"/>
	<rect x="179.1" y="87" style="fill:#2B3B4E;" width="24" height="62.9"/>
	<rect x="227" y="87" style="fill:#2B3B4E;" width="24" height="62.9"/>
	<rect x="275" y="87" style="fill:#2B3B4E;" width="24" height="62.9"/>
</g>
<rect x="110.7" y="215" style="fill:#FFD05B;" width="208.7" height="135.9"/>
<g>
	<path style="fill:#FF7058;" d="M253.4,244.6c-19.9-19.9-51.3-21.1-72.6-3.8l76.3,76.3C274.5,295.9,273.3,264.5,253.4,244.6z"/>
	<path style="fill:#FF7058;" d="M249.3,325.1L173,248.8c-17.3,21.3-16.1,52.7,3.8,72.6C196.5,341.2,227.9,342.5,249.3,325.1z"/>
</g>
<path style="fill:#F1543F;" d="M253.4,321.4c1.3-1.3,2.6-2.7,3.8-4.2l-76.3-76.3c-1.4,1.2-2.8,2.4-4.2,3.8s-2.6,2.7-3.8,4.2  l76.3,76.3C250.7,324,252.1,322.7,253.4,321.4z"/>
<circle style="fill:#324A5E;" cx="349.3" cy="325.5" r="77.7"/>
<circle style="fill:#FFFFFF;" cx="349.3" cy="325.5" r="64.8"/>
<g>
	<rect x="345.9" y="267.8" style="fill:#ACB3BA;" width="6.8" height="12.1"/>
	<rect x="345.9" y="371.2" style="fill:#ACB3BA;" width="6.8" height="12.1"/>
	<rect x="394.9" y="322.2" style="fill:#ACB3BA;" width="12.1" height="6.8"/>
	<rect x="291.5" y="322.2" style="fill:#ACB3BA;" width="12.1" height="6.8"/>
</g>
<polygon style="fill:#F1543F;" points="380.4,362.3 345.3,327.2 345.3,294.4 353.2,294.4 353.2,323.9 386,356.7 "/>
<g>
</g>
<g>
</g>
<g>
</g>
<g>
</g>
<g>
</g>
<g>
</g>
<g>
</g>
<g>
</g>
<g>
</g>
<g>
</g>
<g>
</g>
<g>
</g>
<g>
</g>
<g>
</g>
<g>
</g>
</svg>
