<?xml version="1.0" encoding="iso-8859-1"?>
<!-- Generator: Adobe Illustrator 19.0.0, SVG Export Plug-In . SVG Version: 6.00 Build 0)  -->
<svg xmlns="http://www.w3.org/2000/svg" xmlns:xlink="http://www.w3.org/1999/xlink" version="1.1" id="Layer_1" x="0px" y="0px" viewBox="0 0 506 506" style="enable-background:new 0 0 506 506;" xml:space="preserve">
<circle style="fill:#FFD05B;" cx="253" cy="253" r="253"/>
<path style="fill:#324A5E;" d="M253,94.9c-87.3,0-158.1,70.8-158.1,158.1S165.7,411.1,253,411.1S411.1,340.3,411.1,253  S340.3,94.9,253,94.9z M253,387.3c-73.8,0-133.8-60-133.8-133.8s60-133.8,133.8-133.8s133.8,60,133.8,133.8S326.8,387.3,253,387.3z"/>
<path style="fill:#FFFFFF;" d="M253,135.5c-65,0-118,52.9-118,118s52.9,118,118,118s118-52.9,118-118S318,135.5,253,135.5z"/>
<path style="fill:#F1543F;" d="M253,115.8c-75.9,0-137.7,61.8-137.7,137.7S177.1,391.2,253,391.2s137.7-61.8,137.7-137.7  C390.7,177.5,329,115.8,253,115.8z M253,371.5c-65,0-118-52.9-118-118s52.9-118,118-118s118,52.9,118,118S318,371.5,253,371.5z"/>
<path style="fill:#54C0EB;" d="M280,145.9c3.8,1.8,5.3,6.3,3.5,10.1c-8.6,17.8-30.1,25.4-48,16.7c-3.8-1.8-5.3-6.3-3.5-10.1  s6.3-5.3,10.1-3.5c10.3,5,22.8,0.6,27.8-9.7C271.7,145.7,276.2,144.1,280,145.9z"/>
<path style="fill:#F1543F;" d="M288.7,183.7c0.1-4.2,3.6-7.5,7.8-7.4c19.8,0.5,35.5,17,35,36.8c-0.1,4.2-3.6,7.5-7.8,7.4  c-4.2-0.1-7.5-3.6-7.4-7.8c0.3-11.5-8.8-21-20.3-21.3C291.9,191.4,288.6,187.9,288.7,183.7z"/>
<path style="fill:#324A5E;" d="M304.5,253.8c-3-3-3-7.7,0-10.7c14-14,36.8-14,50.8,0c3,3,3,7.7,0,10.7s-7.7,3-10.7,0  c-8.1-8.1-21.3-8.1-29.4,0C312.2,256.8,307.4,256.8,304.5,253.8z"/>
<path style="fill:#2C9984;" d="M308.7,273.3c3-3,7.7-3,10.7,0c14,14,14,36.8,0,50.8c-3,3-7.7,3-10.7,0s-3-7.7,0-10.7  c8.1-8.1,8.1-21.3,0-29.4C305.7,281.1,305.7,276.3,308.7,273.3z"/>
<path style="fill:#54C0EB;" d="M267.2,309.3c4.2,0,7.6,3.4,7.6,7.6c0,19.8-16.1,35.9-35.9,35.9c-4.2,0-7.6-3.4-7.6-7.6  s3.4-7.6,7.6-7.6c11.5,0,20.8-9.3,20.8-20.8C259.6,312.7,263,309.3,267.2,309.3z"/>
<path style="fill:#F1543F;" d="M223.6,290.2c3.2,2.7,3.6,7.5,0.9,10.7c-12.7,15.2-35.4,17.1-50.6,4.4c-3.2-2.7-3.6-7.5-0.9-10.7  s7.5-3.6,10.7-0.9c8.8,7.4,21.9,6.2,29.3-2.6C215.6,288,220.4,287.5,223.6,290.2z"/>
<g>
	<path style="fill:#324A5E;" d="M184.8,266.2c-2.5,3.3-7.3,4-10.6,1.5c-15.8-11.9-19-34.5-7.1-50.3c2.5-3.3,7.3-4,10.6-1.5   s4,7.3,1.5,10.6c-6.9,9.2-5.1,22.2,4.1,29.1C186.7,258.1,187.3,262.8,184.8,266.2z"/>
	<path style="fill:#324A5E;" d="M274.6,233.1c4.1,0.5,7.1,4.3,6.5,8.5c-2.5,19.6-20.5,33.6-40.2,31.1c-4.1-0.5-7.1-4.3-6.5-8.5   c0.5-4.1,4.3-7.1,8.5-6.5c11.4,1.4,21.8-6.6,23.3-18C266.6,235.5,270.4,232.6,274.6,233.1z"/>
</g>
<path style="fill:#2C9984;" d="M235.8,222.3c-0.5,4.1-4.3,7.1-8.5,6.5c-19.6-2.5-33.6-20.5-31.1-40.2c0.5-4.1,4.3-7.1,8.5-6.5  c4.1,0.5,7.1,4.3,6.5,8.5c-1.4,11.4,6.6,21.8,18,23.3C233.4,214.4,236.3,218.2,235.8,222.3z"/>
<g>
</g>
<g>
</g>
<g>
</g>
<g>
</g>
<g>
</g>
<g>
</g>
<g>
</g>
<g>
</g>
<g>
</g>
<g>
</g>
<g>
</g>
<g>
</g>
<g>
</g>
<g>
</g>
<g>
</g>
</svg>
