<?xml version="1.0" encoding="iso-8859-1"?>
<!-- Generator: Adobe Illustrator 19.0.0, SVG Export Plug-In . SVG Version: 6.00 Build 0)  -->
<svg xmlns="http://www.w3.org/2000/svg" xmlns:xlink="http://www.w3.org/1999/xlink" version="1.1" id="Layer_1" x="0px" y="0px" viewBox="0 0 506 506" style="enable-background:new 0 0 506 506;" xml:space="preserve">
<circle style="fill:#FD8469;" cx="253" cy="253" r="253"/>
<path style="fill:#FFFFFF;" d="M221.6,413.7L92.3,284.4c-1.1-1.1-1.1-2.8,0-3.9L280.5,92.3c1.1-1.1,2.8-1.1,3.9,0l129.3,129.3  c1.1,1.1,1.1,2.8,0,3.9L225.5,413.7C224.5,414.8,222.7,414.8,221.6,413.7z"/>
<g>
	<path style="fill:#FFD05B;" d="M316.5,151.3c0-13.9-10.5-25.3-24.1-26.7V178C306,176.6,316.5,165.2,316.5,151.3z"/>
	<path style="fill:#FFD05B;" d="M286.9,178v-53.4c-13.5,1.4-24.1,12.8-24.1,26.7C262.9,165.2,273.4,176.6,286.9,178z"/>
</g>
<path style="fill:#F9B54C;" d="M289.7,178.2c0.9,0,1.9,0,2.8-0.1v-53.4c-0.9-0.1-1.8-0.1-2.8-0.1c-0.9,0-1.9,0-2.8,0.1V178  C287.8,178.1,288.8,178.2,289.7,178.2z"/>
<g>
	<path style="fill:#4CDBC4;" d="M381.5,216.3c0-13.9-10.5-25.3-24.1-26.7V243C371,241.6,381.5,230.2,381.5,216.3z"/>
	<path style="fill:#4CDBC4;" d="M351.9,243v-53.4c-13.5,1.4-24.1,12.8-24.1,26.7S338.4,241.6,351.9,243z"/>
</g>
<path style="fill:#2C9984;" d="M354.7,243.1c0.9,0,1.9,0,2.8-0.1v-53.4c-0.9-0.1-1.8-0.1-2.8-0.1c-0.9,0-1.9,0-2.8,0.1V243  C352.8,243.1,353.7,243.1,354.7,243.1z"/>
<g>
	<path style="fill:#4CDBC4;" d="M270.4,197.4c0-13.9-10.5-25.3-24.1-26.7v53.4C259.9,222.7,270.4,211.3,270.4,197.4z"/>
	<path style="fill:#4CDBC4;" d="M240.8,224.1v-53.4c-13.5,1.4-24.1,12.8-24.1,26.7S227.3,222.7,240.8,224.1z"/>
</g>
<path style="fill:#2C9984;" d="M243.6,224.3c0.9,0,1.9,0,2.8-0.1v-53.4c-0.9-0.1-1.8-0.1-2.8-0.1c-0.9,0-1.9,0-2.8,0.1v53.4  C241.7,224.2,242.6,224.3,243.6,224.3z"/>
<g>
	<path style="fill:#FFD05B;" d="M335.4,262.4c0-13.9-10.5-25.3-24.1-26.7v53.4C324.8,287.7,335.4,276.3,335.4,262.4z"/>
	<path style="fill:#FFD05B;" d="M305.8,289.1v-53.4c-13.5,1.4-24.1,12.8-24.1,26.7C281.7,276.3,292.3,287.7,305.8,289.1z"/>
</g>
<path style="fill:#F9B54C;" d="M308.6,289.3c0.9,0,1.9,0,2.8-0.1v-53.4c-0.9-0.1-1.8-0.1-2.8-0.1c-0.9,0-1.9,0-2.8,0.1v53.4  C306.7,289.2,307.6,289.3,308.6,289.3z"/>
<g>
	<path style="fill:#FFD05B;" d="M224.3,243.6c0-13.9-10.5-25.3-24.1-26.7v53.4C213.7,268.9,224.3,257.4,224.3,243.6z"/>
	<path style="fill:#FFD05B;" d="M194.7,270.3v-53.4c-13.5,1.4-24.1,12.8-24.1,26.7C170.6,257.4,181.2,268.9,194.7,270.3z"/>
</g>
<path style="fill:#F9B54C;" d="M197.4,270.4c0.9,0,1.9,0,2.8-0.1v-53.4c-0.9-0.1-1.8-0.1-2.8-0.1c-0.9,0-1.9,0-2.8,0.1v53.4  C195.6,270.4,196.5,270.4,197.4,270.4z"/>
<g>
	<path style="fill:#4CDBC4;" d="M289.3,308.6c0-13.9-10.5-25.3-24.1-26.7v53.4C278.7,333.9,289.3,322.4,289.3,308.6z"/>
	<path style="fill:#4CDBC4;" d="M259.7,335.2v-53.4c-13.5,1.4-24.1,12.8-24.1,26.7C235.6,322.4,246.1,333.9,259.7,335.2z"/>
</g>
<path style="fill:#2C9984;" d="M262.4,335.4c0.9,0,1.9,0,2.8-0.1v-53.4c-0.9-0.1-1.8-0.1-2.8-0.1c-0.9,0-1.9,0-2.8,0.1v53.4  C260.6,335.3,261.5,335.4,262.4,335.4z"/>
<g>
	<path style="fill:#4CDBC4;" d="M178.2,289.7c0-13.9-10.5-25.3-24.1-26.7v53.4C167.6,315,178.2,303.6,178.2,289.7z"/>
	<path style="fill:#4CDBC4;" d="M148.5,316.4V263c-13.5,1.4-24.1,12.8-24.1,26.7C124.5,303.6,135,315,148.5,316.4z"/>
</g>
<path style="fill:#2C9984;" d="M151.3,316.5c0.9,0,1.9,0,2.8-0.1V263c-0.9-0.1-1.8-0.1-2.8-0.1s-1.9,0-2.8,0.1v53.4  C149.5,316.5,150.4,316.5,151.3,316.5z"/>
<g>
	<path style="fill:#FFD05B;" d="M243.1,354.7c0-13.9-10.5-25.3-24.1-26.7v53.4C232.6,380,243.1,368.6,243.1,354.7z"/>
	<path style="fill:#FFD05B;" d="M213.5,381.4V328c-13.5,1.4-24.1,12.8-24.1,26.7C189.5,368.6,200,380,213.5,381.4z"/>
</g>
<path style="fill:#F9B54C;" d="M216.3,381.5c0.9,0,1.9,0,2.8-0.1V328c-0.9-0.1-1.8-0.1-2.8-0.1c-0.9,0-1.9,0-2.8,0.1v53.4  C214.4,381.5,215.4,381.5,216.3,381.5z"/>
<g>
</g>
<g>
</g>
<g>
</g>
<g>
</g>
<g>
</g>
<g>
</g>
<g>
</g>
<g>
</g>
<g>
</g>
<g>
</g>
<g>
</g>
<g>
</g>
<g>
</g>
<g>
</g>
<g>
</g>
</svg>
