<?xml version="1.0" encoding="iso-8859-1"?>
<!-- Generator: Adobe Illustrator 19.0.0, SVG Export Plug-In . SVG Version: 6.00 Build 0)  -->
<svg xmlns="http://www.w3.org/2000/svg" xmlns:xlink="http://www.w3.org/1999/xlink" version="1.1" id="Layer_1" x="0px" y="0px" viewBox="0 0 506 506" style="enable-background:new 0 0 506 506;" xml:space="preserve">
<circle style="fill:#FFD05B;" cx="253" cy="253" r="253"/>
<path style="fill:#324A5E;" d="M407.7,344c-9.6-23.4-36.6-34.7-60-25c-8.6,3.5-15.5,9.4-20.4,16.5l-66.7-21.3  c0.7-9.2-0.7-18.7-4.4-27.7c-2.3-5.7-5.5-10.8-9.1-15.4l50.3-54.2c0.9,0.4,1.8,0.8,2.7,1.2l0,0c10.7,4.6,23.1,5.1,34.6,0.4  c22.8-9.4,33.7-35.5,24.3-58.2c-9.4-22.8-35.5-33.6-58.2-24.3c-22.7,9.4-33.6,35.5-24.3,58.2c0.6,1.5,1.3,3,2.1,4.4  c0.4,0.8,0.8,1.5,1.3,2.3l-51,55.2c-15.7-8.6-50-4-48.6-4.4l-15-69.7c7.3-4.8,13.3-11.7,16.9-20.4c9.6-23.1-1.3-49.7-24.4-59.3  s-49.7,1.3-59.3,24.4s1.3,49.7,24.4,59.3c6.4,2.7,13.1,3.7,19.6,3.4l16.4,74.6c-19.1,16.9-26.4,44.6-16.2,69.4  c12.9,31.3,48.9,46.4,80.2,33.5c14.2-5.8,25-16.4,31.4-29.1l65.3,19.2c-0.8,7.3,0.2,15,3.2,22.3c9.6,23.4,36.6,34.7,60,25  C406.1,394.3,417.3,367.4,407.7,344z"/>
<path style="fill:#FFFFFF;" d="M213.5,344c-18.9,7.8-40.6-1.3-48.3-20.2c-7.8-18.9,1.3-40.6,20.2-48.3c18.9-7.8,40.6,1.3,48.3,20.2  C241.4,314.6,232.4,336.2,213.5,344z"/>
<path style="fill:#54C0EB;" d="M373.3,381.3c-10.9,4.5-23.5-0.7-28-11.7c-4.5-10.9,0.7-23.5,11.7-28c10.9-4.5,23.5,0.7,28,11.7  C389.5,364.2,384.3,376.8,373.3,381.3z"/>
<path style="fill:#FF7058;" d="M325.9,197c-10.9,4.5-23.5-0.7-28-11.7c-4.5-10.9,0.7-23.5,11.7-28c10.9-4.5,23.5,0.7,28,11.7  S336.8,192.5,325.9,197z"/>
<path style="fill:#4CDBC4;" d="M131.9,163.7c-10.9-4.6-16.1-17.2-11.5-28.1s17.2-16.1,28.1-11.5c10.9,4.6,16.1,17.2,11.5,28.1  C155.5,163.1,142.9,168.3,131.9,163.7z"/>
<g>
</g>
<g>
</g>
<g>
</g>
<g>
</g>
<g>
</g>
<g>
</g>
<g>
</g>
<g>
</g>
<g>
</g>
<g>
</g>
<g>
</g>
<g>
</g>
<g>
</g>
<g>
</g>
<g>
</g>
</svg>
