<?xml version="1.0" encoding="iso-8859-1"?>
<!-- Generator: Adobe Illustrator 19.0.0, SVG Export Plug-In . SVG Version: 6.00 Build 0)  -->
<svg xmlns="http://www.w3.org/2000/svg" xmlns:xlink="http://www.w3.org/1999/xlink" version="1.1" id="Layer_1" x="0px" y="0px" viewBox="0 0 506 506" style="enable-background:new 0 0 506 506;" xml:space="preserve">
<circle style="fill:#84DBFF;" cx="253" cy="253" r="253"/>
<path style="fill:#ACB3BA;" d="M268.8,210v-26.4l-147.2,20.1V269L279,238.8C272.6,230.9,268.8,220.9,268.8,210z"/>
<path style="fill:#FFFFFF;" d="M279,238.8l-157.5,30.1v-13v101.2c0,10.2,3.3,19.6,8.9,27.2l164.4-133  C288.7,248.4,283.3,244.1,279,238.8z"/>
<polygon style="fill:#ACB3BA;" points="268.8,87 121.5,87 121.5,143.4 268.8,128.4 "/>
<polygon style="fill:#FFFFFF;" points="268.8,128.4 121.5,143.4 121.5,203.7 268.8,183.6 "/>
<g>
	<path style="fill:#ACB3BA;" d="M360.4,256c-7.1,0-59.5-1.7-65.5-4.6l-164.4,133c8.4,11.4,21.8,18.8,37.1,18.8h44.6l152.4-147   C363.2,256.1,361.8,256,360.4,256z"/>
	<path style="fill:#ACB3BA;" d="M402,277.1l-61.5,126.1h9.8c40.7,0,73.6-33,73.6-73.6C424,309.1,415.6,290.5,402,277.1z"/>
</g>
<path style="fill:#FFFFFF;" d="M364.6,256.2l-152.4,147h21.5h106.9L402,277.1C389.6,265,382.3,260.8,364.6,256.2z"/>
<g>
</g>
<g>
</g>
<g>
</g>
<g>
</g>
<g>
</g>
<g>
</g>
<g>
</g>
<g>
</g>
<g>
</g>
<g>
</g>
<g>
</g>
<g>
</g>
<g>
</g>
<g>
</g>
<g>
</g>
</svg>
