<?xml version="1.0" encoding="iso-8859-1"?>
<!-- Generator: Adobe Illustrator 19.0.0, SVG Export Plug-In . SVG Version: 6.00 Build 0)  -->
<svg xmlns="http://www.w3.org/2000/svg" xmlns:xlink="http://www.w3.org/1999/xlink" version="1.1" id="Layer_1" x="0px" y="0px" viewBox="0 0 506 506" style="enable-background:new 0 0 506 506;" xml:space="preserve">
<circle style="fill:#324A5E;" cx="253" cy="253" r="253"/>
<path style="fill:#E6E9EE;" d="M211.2,358c-11.8,0-23.1-0.7-33.9-2c-4.9-0.6-9.7-1.3-14.4-2.2c-40.2-7.4-68.1-23.6-68.1-42.5v53.1  c0,25.8,52.1,46.7,116.3,46.7s116.3-20.9,116.3-46.7v-53.1C327.5,337.1,275.4,358,211.2,358z"/>
<g>
	<path style="fill:#CED5E0;" d="M211.2,264.7c-64.2,0-116.3,20.9-116.3,46.7c0,18.9,27.9,35.1,68.1,42.5l40-42.5l42.1-44.7   C234.3,265.4,223,264.7,211.2,264.7z"/>
	<path style="fill:#CED5E0;" d="M259.4,268.9l-40,42.5L177.3,356c10.7,1.3,22.1,2,33.9,2c64.2,0,116.3-20.9,116.3-46.7   C327.5,292.5,299.6,276.2,259.4,268.9z"/>
</g>
<path style="fill:#ACB3BA;" d="M245.1,266.7L203,311.3l-40,42.5c4.6,0.9,9.4,1.6,14.4,2.2l42.1-44.7l40-42.5  C254.8,268,250,267.3,245.1,266.7z"/>
<path style="fill:#FFD05B;" d="M294.8,293.6c-11.8,0-23.1-0.7-33.9-2c-4.9-0.6-9.7-1.3-14.4-2.2c-40.2-7.4-68.1-23.6-68.1-42.5V300  c0,25.8,52.1,46.7,116.3,46.7S411,325.8,411,300v-53.1C411.1,272.7,359,293.6,294.8,293.6z"/>
<g>
	<path style="fill:#F9B54C;" d="M294.8,200.2c-64.2,0-116.3,20.9-116.3,46.7c0,18.9,27.9,35.1,68.1,42.5l40-42.5l42.1-44.7   C317.9,200.9,306.6,200.2,294.8,200.2z"/>
	<path style="fill:#F9B54C;" d="M343,204.4l-40,42.5l-42.1,44.7c10.7,1.3,22.1,2,33.9,2c64.2,0,116.3-20.9,116.3-46.7   C411.1,228,383.2,211.8,343,204.4z"/>
</g>
<path style="fill:#FFD05B;" d="M328.7,202.2l-42.1,44.7l-40,42.5c4.6,0.9,9.4,1.6,14.4,2.2l42.1-44.7l40-42.5  C338.4,203.6,333.6,202.8,328.7,202.2z"/>
<path style="fill:#2C9984;" d="M255.6,188.2c-11.8,0-23.1-0.7-33.9-2c-4.9-0.6-9.7-1.3-14.4-2.2c-40.2-7.4-68.1-23.6-68.1-42.5v53.1  c0,25.8,52.1,46.7,116.3,46.7s116.3-20.9,116.3-46.7v-53.1C371.9,167.3,319.8,188.2,255.6,188.2z"/>
<g>
	<path style="fill:#4CDBC4;" d="M255.6,94.9c-64.2,0-116.3,20.9-116.3,46.7c0,18.9,27.9,35.1,68.1,42.5l40-42.5l42.1-44.7   C278.7,95.6,267.3,94.9,255.6,94.9z"/>
	<path style="fill:#4CDBC4;" d="M303.8,99.1l-40,42.5l-42.1,44.7c10.7,1.3,22.1,2,33.9,2c64.2,0,116.3-20.9,116.3-46.7   C371.9,122.7,344,106.4,303.8,99.1z"/>
</g>
<path style="fill:#2C9984;" d="M289.4,96.9l-42.1,44.7l-40,42.5c4.6,0.9,9.4,1.6,14.4,2.2l42.1-44.7l40-42.5  C299.2,98.2,294.4,97.5,289.4,96.9z"/>
<g>
</g>
<g>
</g>
<g>
</g>
<g>
</g>
<g>
</g>
<g>
</g>
<g>
</g>
<g>
</g>
<g>
</g>
<g>
</g>
<g>
</g>
<g>
</g>
<g>
</g>
<g>
</g>
<g>
</g>
</svg>
