<?xml version="1.0" encoding="iso-8859-1"?>
<!-- Generator: Adobe Illustrator 19.0.0, SVG Export Plug-In . SVG Version: 6.00 Build 0)  -->
<svg xmlns="http://www.w3.org/2000/svg" xmlns:xlink="http://www.w3.org/1999/xlink" version="1.1" id="Layer_1" x="0px" y="0px" viewBox="0 0 506 506" style="enable-background:new 0 0 506 506;" xml:space="preserve">
<circle style="fill:#90DFAA;" cx="253" cy="253" r="253"/>
<path style="fill:#324A5E;" d="M137.4,94.9c-60,81.6-56.9,192.8,12,261.7s180.1,72.1,261.7,12L137.4,94.9z"/>
<path style="fill:#FF7058;" d="M158.5,116c-47.8,68.9-44.1,160.9,13.2,218.2s149.3,61,218.2,13.2L158.5,116z"/>
<path style="fill:#F1543F;" d="M166.2,339.8c59,59,155,65,228.3,14.1l1.2-0.8l-5.7-5.7c-68.9,47.8-160.9,44.1-218.2-13.2  s-61-149.3-13.2-218.2l-5.7-5.7l-0.8,1.2C101.2,184.8,107.2,280.8,166.2,339.8z"/>
<g>
	
		<ellipse transform="matrix(0.7071 -0.7071 0.7071 0.7071 -68.2858 173.3364)" style="fill:#324A5E;" cx="175.093" cy="169.096" rx="3.6" ry="11.3"/>
	
		<ellipse transform="matrix(0.7071 -0.7071 0.7071 0.7071 -95.7772 184.386)" style="fill:#324A5E;" cx="174.685" cy="207.806" rx="4.6" ry="8.2"/>
</g>
<ellipse transform="matrix(0.7071 -0.7071 0.7071 0.7071 -131.5154 203.5325)" style="fill:#FFFFFF;" cx="179.928" cy="260.519" rx="1.2" ry="6.6"/>
<g>
	
		<ellipse transform="matrix(0.7071 -0.7071 0.7071 0.7071 -85.132 234.313)" style="fill:#324A5E;" cx="240.275" cy="219.92" rx="3.4" ry="4.6"/>
	
		<ellipse transform="matrix(0.7071 -0.7071 0.7071 0.7071 -109.4065 231.6282)" style="fill:#324A5E;" cx="224.897" cy="247.879" rx="2.6" ry="4.4"/>
	
		<ellipse transform="matrix(0.7071 -0.7071 0.7071 0.7071 -161.5054 252.2742)" style="fill:#324A5E;" cx="223.769" cy="321.091" rx="5" ry="6.8"/>
</g>
<ellipse transform="matrix(0.7071 -0.7071 0.7071 0.7071 -130.2114 277.3986)" style="fill:#FFFFFF;" cx="269.744" cy="295.878" rx="4.9" ry="8"/>
<g>
	
		<ellipse transform="matrix(0.7071 -0.7071 0.7071 0.7071 -141.5847 234.9465)" style="fill:#324A5E;" cx="212.813" cy="288.381" rx="4.8" ry="8.6"/>
	
		<ellipse transform="matrix(0.7071 -0.7071 0.7071 0.7071 -124.5082 329.4315)" style="fill:#324A5E;" cx="335.405" cy="315.01" rx="3.4" ry="6.2"/>
	
		<ellipse transform="matrix(0.7071 -0.7071 0.7071 0.7071 -163.5984 303.8521)" style="fill:#324A5E;" cx="284.983" cy="349.407" rx="3.1" ry="5.2"/>
	
		<ellipse transform="matrix(0.7071 -0.7071 0.7071 0.7071 -99.6086 269.3375)" style="fill:#324A5E;" cx="275.315" cy="254.907" rx="3.4" ry="5.2"/>
	
		<ellipse transform="matrix(0.7071 -0.7071 0.7071 0.7071 -158.4804 280.4289)" style="fill:#324A5E;" cx="259.267" cy="331.517" rx="2.4" ry="3.8"/>
	
		<ellipse transform="matrix(0.7071 -0.7071 0.7071 0.7071 -107.2562 201.8556)" style="fill:#324A5E;" cx="190.033" cy="230.397" rx="3.4" ry="7.6"/>
	
		<ellipse transform="matrix(0.7071 -0.7071 0.7071 0.7071 -80.972 207.4848)" style="fill:#324A5E;" cx="209.97" cy="201.484" rx="1.8" ry="3.6"/>
	
		<ellipse transform="matrix(0.7071 -0.7071 0.7071 0.7071 -136.0051 185.8302)" style="fill:#324A5E;" cx="156.314" cy="257.088" rx="2.5" ry="5"/>
	
		<ellipse transform="matrix(0.7071 -0.7071 0.7071 0.7071 -163.8792 226.5841)" style="fill:#324A5E;" cx="191.572" cy="311.112" rx="4" ry="9.6"/>
</g>
<g>
</g>
<g>
</g>
<g>
</g>
<g>
</g>
<g>
</g>
<g>
</g>
<g>
</g>
<g>
</g>
<g>
</g>
<g>
</g>
<g>
</g>
<g>
</g>
<g>
</g>
<g>
</g>
<g>
</g>
</svg>
