<?xml version="1.0" encoding="iso-8859-1"?>
<!-- Generator: Adobe Illustrator 19.0.0, SVG Export Plug-In . SVG Version: 6.00 Build 0)  -->
<svg xmlns="http://www.w3.org/2000/svg" xmlns:xlink="http://www.w3.org/1999/xlink" version="1.1" id="Layer_1" x="0px" y="0px" viewBox="0 0 506 506" style="enable-background:new 0 0 506 506;" xml:space="preserve">
<circle style="fill:#324A5E;" cx="253" cy="253" r="253"/>
<path style="fill:#FFD05B;" d="M242.2,266.3c6.1,6.1,15.2,3,24.4,6.1c3-9.1-6.1-12.2-6.1-18.3c4.6-10.7,11.4-16,16.7-22.1  l-80.7-80.7c12.1-14.8,10.1-37.3-6-49.5c-11.7-8.9-28.2-9.3-40.2-1c-8.1,5.6-13,13.8-14.5,22.4c-1.1,6.3-6.2,11.4-12.5,12.5  c-8.6,1.6-16.7,6.4-22.4,14.5c-8.3,12-7.9,28.6,0.9,40.2c12.3,16.1,34.7,18.1,49.5,6l91,91C240.8,280.8,239.7,273.8,242.2,266.3z"/>
<path style="fill:#F9B54C;" d="M354.7,309.5l-65.3-65.3c-5.3,6.1-12.2,11.4-16.7,22.1c0,6.1,9.1,9.1,6.1,18.3  c-9.1-3-18.3,0-24.4-6.1c-2.5,7.5-1.4,14.5,0.1,21.2l55,55c-12.1,14.8-10.1,37.3,6,49.5c11.7,8.9,28.2,9.3,40.2,1  c8.1-5.6,13-13.8,14.5-22.4c1.1-6.3,6.2-11.4,12.5-12.5c8.6-1.6,16.7-6.4,22.4-14.5c8.3-12,7.9-28.6-1-40.2  C391.9,299.4,369.5,297.4,354.7,309.5z"/>
<g>
	
		<rect x="188.681" y="295.033" transform="matrix(0.9049 -0.4257 0.4257 0.9049 -107.6397 117.0443)" style="fill:#FFFFFF;" width="38.698" height="8.6"/>
	
		<rect x="206.096" y="311.278" transform="matrix(-0.7071 0.7071 -0.7071 -0.7071 606.0445 380.1246)" style="fill:#FFFFFF;" width="36.4" height="8.6"/>
	
		<rect x="236.222" y="312.446" transform="matrix(0.9049 0.4257 -0.4257 0.9049 164.1218 -70.8236)" style="fill:#FFFFFF;" width="8.6" height="38.701"/>
	
		<rect x="312.466" y="236.23" transform="matrix(0.9048 -0.4258 0.4258 0.9048 -70.8353 164.1843)" style="fill:#FFFFFF;" width="38.699" height="8.6"/>
	
		<rect x="297.416" y="219.992" transform="matrix(-0.7071 0.7071 -0.7071 -0.7071 697.3882 159.7159)" style="fill:#FFFFFF;" width="36.4" height="8.6"/>
	
		<rect x="295.098" y="188.73" transform="matrix(-0.9049 -0.4257 0.4257 -0.9049 481.7369 523.8167)" style="fill:#FFFFFF;" width="8.6" height="38.701"/>
</g>
<g>
</g>
<g>
</g>
<g>
</g>
<g>
</g>
<g>
</g>
<g>
</g>
<g>
</g>
<g>
</g>
<g>
</g>
<g>
</g>
<g>
</g>
<g>
</g>
<g>
</g>
<g>
</g>
<g>
</g>
</svg>
