<?xml version="1.0" encoding="iso-8859-1"?>
<!-- Generator: Adobe Illustrator 19.0.0, SVG Export Plug-In . SVG Version: 6.00 Build 0)  -->
<svg xmlns="http://www.w3.org/2000/svg" xmlns:xlink="http://www.w3.org/1999/xlink" version="1.1" id="Layer_1" x="0px" y="0px" viewBox="0 0 506 506" style="enable-background:new 0 0 506 506;" xml:space="preserve">
<circle style="fill:#84DBFF;" cx="253" cy="253" r="253"/>
<polygon style="fill:#FFFFFF;" points="311.9,94.9 129.6,94.9 129.6,411.1 376.4,411.1 376.4,159.4 "/>
<polygon style="fill:#CED5E0;" points="311.9,159.4 376.4,159.4 311.9,94.9 "/>
<rect x="149.2" y="117.9" style="fill:#54C0EB;" width="122.6" height="9.2"/>
<rect x="149.2" y="150.2" style="fill:#ACB3BA;" width="122.6" height="9.2"/>
<polygon style="fill:#F1543F;" points="285.6,200.8 261.2,200.8 261.2,176.3 244.8,176.3 244.8,200.8 220.4,200.8 220.4,217.1   244.8,217.1 244.8,241.6 261.2,241.6 261.2,217.1 285.6,217.1 "/>
<path style="fill:#FFD05B;" d="M280.3,269.7c-10.8-1.4-22.1,3.7-31.1,12.8c-9-9.1-20.3-14.2-31.1-12.8  c-19.7,2.5-37.3,28.3-23.9,51.4c11.7,20.1,55,65.2,55,65.2s43.3-45.1,55-65.2C317.6,298.1,300,272.3,280.3,269.7z"/>
<polygon style="fill:#F1543F;" points="229.3,355.9 221.4,309.1 213.2,321.3 181.6,321.3 181.6,316.5 208.5,316.5 225.8,290.9   232.6,331.7 239.5,316.5 257.3,316.5 273.2,282.7 284.1,322.2 287.7,316.5 329.8,316.5 329.8,321.3 292.6,321.3 281.5,339.4   271.4,302.9 262.7,321.3 244.9,321.3 "/>
<g>
</g>
<g>
</g>
<g>
</g>
<g>
</g>
<g>
</g>
<g>
</g>
<g>
</g>
<g>
</g>
<g>
</g>
<g>
</g>
<g>
</g>
<g>
</g>
<g>
</g>
<g>
</g>
<g>
</g>
</svg>
