<?xml version="1.0" encoding="iso-8859-1"?>
<!-- Generator: Adobe Illustrator 19.0.0, SVG Export Plug-In . SVG Version: 6.00 Build 0)  -->
<svg xmlns="http://www.w3.org/2000/svg" xmlns:xlink="http://www.w3.org/1999/xlink" version="1.1" id="Layer_1" x="0px" y="0px" viewBox="0 0 506 506" style="enable-background:new 0 0 506 506;" xml:space="preserve">
<circle style="fill:#FD8469;" cx="253" cy="253" r="253"/>
<polygon style="fill:#324A5E;" points="209.4,383.1 209.4,411.1 368.8,411.1 368.8,383.1 "/>
<path style="fill:#E6E9EE;" d="M369,319.8c0-21.6,3.8-43,10.9-63.4c5.2-15,7.6-31.2,6.5-48.2C382.5,147.4,332.1,97.9,271.2,95  c-69.7-3.3-127.3,52.2-127.3,121.2V231c0,10.2-4,19.9-11.2,27.1l-11.2,11.2c-4.7,4.7-1.4,12.8,5.3,12.8H144v17.3c0,1.5,0.8,3,2,3.9  l7.1,4.8c2.7,1.9,2.7,5.9,0,7.7l-7.1,4.8c-1.3,0.9-2,2.3-2,3.9V338c0,9.7,7.8,17.5,17.5,17.5h30.4c9.7,0,17.5,3.9,17.5,13.6v14  h159.4L369,319.8z"/>
<path style="fill:#324A5E;" d="M335.9,217.8c1.4-1.8,2.7-3.6,3.8-5.3c10.8-16.2,13.2-31,6.6-41.5s-20.8-14.8-40.2-12.2  c-0.8,0.1-1.5,0.2-2.3,0.4c-8.1-18.8-19.9-29.5-32.7-29.5c-12.4,0.1-23.6,10-31.5,27.8c-0.2,0.5-0.5,1.1-0.7,1.6  c-0.6-0.1-1.2-0.2-1.7-0.3c-19.4-2.6-33.6,1.7-40.2,12.2c-7.3,11.6-3.5,28.6,10.4,46.7c-13.9,18.2-17.7,35.1-10.4,46.7  c6.7,10.8,21.8,15.1,42.5,11.8c0.3,0.7,0.6,1.4,0.9,2.1c8.1,17.7,19.3,27.4,31.8,27.4l0,0c12.4-0.1,23.6-10,31.5-27.8  c0.2-0.5,0.5-1.1,0.7-1.6c20.6,3.2,35.2-1.2,41.9-11.9c6.6-10.5,4.2-25.2-6.6-41.5C338.5,221.4,337.3,219.6,335.9,217.8z   M314.5,212.1c1.9,1.9,3.8,3.8,5.5,5.6c-1.7,1.9-3.5,3.7-5.5,5.6c0.1-2,0.1-3.9,0.1-5.9C314.6,215.7,314.6,213.9,314.5,212.1z   M327.8,208.3c-4.4-4.7-9.3-9.2-14.7-13.6c-1.1-8.5-2.8-16.4-5-23.8c13.7-1.8,24.2,0.7,27.9,6.6c3.8,6.1,1.5,16.4-6.4,28.3  C329,206.6,328.4,207.4,327.8,208.3z M313.3,240.7c5.3-4.3,10.2-8.8,14.5-13.4c0.6,0.8,1.2,1.7,1.8,2.5c7.9,11.8,10.2,22.1,6.4,28.3  c-3.7,5.9-13.9,8.4-27.5,6.7C310.6,257.3,312.3,249.2,313.3,240.7z M299.3,251c-0.8,4-1.8,7.8-2.9,11.4c-3.4-0.9-6.9-2-10.4-3.3  c2.9-1.6,5.7-3.2,8.4-4.9C296,253.2,297.7,252.1,299.3,251z M271.6,266.4c7,3.1,13.9,5.6,20.6,7.4c-5.7,12.6-13,19.9-20.2,19.9  c-7.1,0-14.6-7.3-20.5-20C258.1,271.8,264.8,269.4,271.6,266.4z M248.8,254.2c2.7,1.7,5.5,3.3,8.4,4.9c-3.4,1.2-6.7,2.3-10,3.1  c-1.1-3.5-2.1-7.2-2.9-11C245.8,252.3,247.3,253.3,248.8,254.2z M243.9,184.5c0.8-4,1.8-7.8,2.8-11.3c3.4,0.9,6.9,2,10.4,3.2  c-2.8,1.6-5.6,3.2-8.3,4.9C247.2,182.4,245.5,183.4,243.9,184.5z M251,161.8c5.7-12.6,13-19.9,20.2-19.9c7.1,0,14.7,7.4,20.5,20  c-6.6,1.8-13.3,4.3-20.1,7.3C264.6,166.1,257.7,163.6,251,161.8z M294.4,181.3c-2.7-1.7-5.5-3.3-8.3-4.9c3.4-1.2,6.7-2.3,10-3.1  c1.1,3.5,2.1,7.2,2.9,11C297.4,183.3,295.9,182.3,294.4,181.3z M302.4,217.6c0,5.6-0.2,11.2-0.7,16.8c-4.4,3.4-9,6.6-13.8,9.6  c-5.4,3.4-10.9,6.4-16.4,9.1c-5.5-2.7-11-5.7-16.4-9.1c-4.7-2.9-9.3-6.1-13.6-9.4c-0.6-5.5-0.9-11-0.9-16.5c0-5.6,0.2-11.2,0.7-16.8  c4.4-3.3,9-6.5,13.8-9.5c5.3-3.3,10.8-6.4,16.4-9.1c5.5,2.7,11,5.7,16.4,9.1c4.7,2.9,9.3,6.1,13.6,9.4  C302.1,206.4,302.4,212,302.4,217.6z M228.8,223.5c-2-1.9-3.8-3.8-5.6-5.7c1.7-1.9,3.6-3.8,5.5-5.7c-0.1,2-0.1,4-0.1,5.9  C228.6,219.8,228.7,221.6,228.8,223.5z M229.9,194.8c-5.3,4.3-10.2,8.9-14.5,13.5c-9.1-12.7-12.2-24.3-8.1-30.8  c3.8-6,13.8-8.4,27.5-6.7C232.6,178.2,231,186.3,229.9,194.8z M215.4,227.2c4.4,4.7,9.4,9.3,14.8,13.7c1.1,8.4,2.8,16.4,5,23.8  c-13.8,1.8-24.2-0.6-28-6.6C203.2,251.6,206.3,239.9,215.4,227.2z"/>
<circle style="fill:#F1543F;" cx="271.6" cy="217.8" r="21.3"/>
<g>
</g>
<g>
</g>
<g>
</g>
<g>
</g>
<g>
</g>
<g>
</g>
<g>
</g>
<g>
</g>
<g>
</g>
<g>
</g>
<g>
</g>
<g>
</g>
<g>
</g>
<g>
</g>
<g>
</g>
</svg>
