<?xml version="1.0" encoding="iso-8859-1"?>
<!-- Generator: Adobe Illustrator 19.0.0, SVG Export Plug-In . SVG Version: 6.00 Build 0)  -->
<svg xmlns="http://www.w3.org/2000/svg" xmlns:xlink="http://www.w3.org/1999/xlink" version="1.1" id="Layer_1" x="0px" y="0px" viewBox="0 0 506 506" style="enable-background:new 0 0 506 506;" xml:space="preserve">
<circle style="fill:#84DBFF;" cx="253" cy="253" r="253"/>
<rect x="94.9" y="126.2" style="fill:#CED5E0;" width="240.2" height="253.7"/>
<rect x="116.9" y="145.9" style="fill:#FFFFFF;" width="200.6" height="214.1"/>
<rect x="335" y="126.2" style="fill:#E6E9EE;" width="76.1" height="253.7"/>
<rect x="356.3" y="142.6" style="fill:#324A5E;" width="33.6" height="16.8"/>
<rect x="356.3" y="176.5" style="fill:#54C0EB;" width="33.6" height="16.8"/>
<rect x="356.3" y="210.5" style="fill:#F9B54C;" width="33.6" height="16.8"/>
<circle style="fill:#2C9984;" cx="373.1" cy="349.1" r="14.3"/>
<g>
	<circle style="fill:#F1543F;" cx="373.1" cy="299.2" r="14.3"/>
	<polygon style="fill:#F1543F;" points="178.9,284.4 156.3,202.6 141.4,232.8 116.9,232.8 116.9,224.5 132.9,224.5 159.5,170.6    179.4,242.7 198.7,179.5 215.4,230.1 217.7,220.9 227.2,220.9 254,162.9 271.9,240.8 290.1,191.1 305.2,217.9 317.5,217.9    317.5,226.3 297.2,226.3 292.5,218 269.2,281.5 250.1,198.4 235.8,229.3 227.6,229.3 217.1,272.1 199.2,217.8  "/>
</g>
<g>
	<rect x="133.1" y="297.4" style="fill:#CED5E0;" width="168.2" height="7.9"/>
	<rect x="133.1" y="328" style="fill:#CED5E0;" width="115.9" height="7.9"/>
</g>
<g>
</g>
<g>
</g>
<g>
</g>
<g>
</g>
<g>
</g>
<g>
</g>
<g>
</g>
<g>
</g>
<g>
</g>
<g>
</g>
<g>
</g>
<g>
</g>
<g>
</g>
<g>
</g>
<g>
</g>
</svg>
