<?xml version="1.0" encoding="iso-8859-1"?>
<!-- Generator: Adobe Illustrator 19.0.0, SVG Export Plug-In . SVG Version: 6.00 Build 0)  -->
<svg xmlns="http://www.w3.org/2000/svg" xmlns:xlink="http://www.w3.org/1999/xlink" version="1.1" id="Layer_1" x="0px" y="0px" viewBox="0 0 506 506" style="enable-background:new 0 0 506 506;" xml:space="preserve">
<circle style="fill:#FFD05B;" cx="253" cy="253" r="253"/>
<rect x="110.1" y="110.7" style="fill:#2B3B4E;" width="285.8" height="220.2"/>
<rect x="128" y="128.6" style="fill:#E6E9EE;" width="250.1" height="184.5"/>
<polygon style="fill:#F1543F;" points="207.7,239.6 191.4,169.1 173.2,196.9 151.1,196.9 151.1,190.2 167.8,190.2 195.5,148.1   209,206.9 221.8,166.5 242,190.2 259.3,190.2 276.7,143.8 289.7,199.9 304.2,160 314.5,190.1 320.6,206.1 332.4,146.7 344,187.6   354.9,187.6 354.9,194.3 336.9,194.3 333.9,183.6 323.2,237.1 306.1,191.9 303.9,185.7 287.8,230 274.7,173.4 265.9,196.9   237.3,196.9 225.5,183.1 "/>
<polygon style="fill:#2B3B4E;" points="94.9,360.2 94.9,385.6 106.7,401.7 399.3,401.7 411.1,385.6 411.1,360.2 "/>
<path style="fill:#E6E9EE;" d="M295.7,378.8h-85.5c-0.5,0-1-0.4-1-1V372c0-0.5,0.4-1,1-1h85.5c0.5,0,1,0.4,1,1v5.8  C296.7,378.4,296.3,378.8,295.7,378.8z"/>
<g>
	<rect x="146.9" y="258.4" style="fill:#ACB3BA;" width="91.5" height="7.9"/>
	<rect x="146.9" y="285" style="fill:#ACB3BA;" width="91.5" height="7.9"/>
	<rect x="267.6" y="258.4" style="fill:#ACB3BA;" width="91.5" height="7.9"/>
	<rect x="267.6" y="285" style="fill:#ACB3BA;" width="91.5" height="7.9"/>
</g>
<g>
</g>
<g>
</g>
<g>
</g>
<g>
</g>
<g>
</g>
<g>
</g>
<g>
</g>
<g>
</g>
<g>
</g>
<g>
</g>
<g>
</g>
<g>
</g>
<g>
</g>
<g>
</g>
<g>
</g>
</svg>
