<?xml version="1.0" encoding="iso-8859-1"?>
<!-- Generator: Adobe Illustrator 19.0.0, SVG Export Plug-In . SVG Version: 6.00 Build 0)  -->
<svg xmlns="http://www.w3.org/2000/svg" xmlns:xlink="http://www.w3.org/1999/xlink" version="1.1" id="Layer_1" x="0px" y="0px" viewBox="0 0 506 506" style="enable-background:new 0 0 506 506;" xml:space="preserve">
<circle style="fill:#84DBFF;" cx="253" cy="253" r="253"/>
<path style="fill:#324A5E;" d="M366.2,411.1H139.8c-8.9,0-16.3-6.8-17-15.7L107.2,210h291.7l-15.6,185.4  C382.5,404.3,375.1,411.1,366.2,411.1z"/>
<ellipse style="fill:#FFFFFF;" cx="253" cy="310.6" rx="59.3" ry="59.3"/>
<polygon style="fill:#FF7058;" points="293.2,302.2 261.4,302.2 261.4,270.3 244.6,270.3 244.6,302.2 212.8,302.2 212.8,319   244.6,319 244.6,350.9 261.4,350.9 261.4,319 293.2,319 "/>
<rect x="233.2" y="94.9" style="fill:#324A5E;" width="34.6" height="65.9"/>
<path style="fill:#2B3B4E;" d="M417.1,213.4H88.9c-1.1,0-1.9-0.9-1.9-1.9v-56.6c0-1.1,0.9-1.9,1.9-1.9h328.2c1.1,0,1.9,0.9,1.9,1.9  v56.6C419,212.5,418.2,213.4,417.1,213.4z"/>
<g>
</g>
<g>
</g>
<g>
</g>
<g>
</g>
<g>
</g>
<g>
</g>
<g>
</g>
<g>
</g>
<g>
</g>
<g>
</g>
<g>
</g>
<g>
</g>
<g>
</g>
<g>
</g>
<g>
</g>
</svg>
