<?xml version="1.0" encoding="iso-8859-1"?>
<!-- Generator: Adobe Illustrator 19.0.0, SVG Export Plug-In . SVG Version: 6.00 Build 0)  -->
<svg version="1.1" id="Layer_1" xmlns="http://www.w3.org/2000/svg" xmlns:xlink="http://www.w3.org/1999/xlink" x="0px" y="0px"
	 viewBox="0 0 505 505" style="enable-background:new 0 0 505 505;" xml:space="preserve">
<circle style="fill:#324A5E;" cx="252.5" cy="252.5" r="252.5"/>
<g>
	<path style="fill:#FFD05B;" d="M371.8,288.2h-278c-2.1,0-3.8-1.7-3.8-3.8V103.6c0-2.1,1.7-3.8,3.8-3.8h278c2.1,0,3.8,1.7,3.8,3.8
		v180.8C375.6,286.5,373.9,288.2,371.8,288.2z"/>
	<polygon style="fill:#FFD05B;" points="121.4,329.9 121.4,262.7 191,262.7 	"/>
</g>
<g>
	<path style="fill:#FFFFFF;" d="M194.6,383.1H409c2,0,3.6-1.6,3.6-3.6v-139c0-2-1.6-3.6-3.6-3.6H194.6c-2,0-3.6,1.6-3.6,3.6v139
		C191,381.5,192.6,383.1,194.6,383.1z"/>
	<polygon style="fill:#FFFFFF;" points="388.2,415.4 388.2,363.3 334.2,363.3 	"/>
</g>
<g>
</g>
<g>
</g>
<g>
</g>
<g>
</g>
<g>
</g>
<g>
</g>
<g>
</g>
<g>
</g>
<g>
</g>
<g>
</g>
<g>
</g>
<g>
</g>
<g>
</g>
<g>
</g>
<g>
</g>
</svg>
