<?xml version="1.0" encoding="iso-8859-1"?>
<!-- Generator: Adobe Illustrator 19.0.0, SVG Export Plug-In . SVG Version: 6.00 Build 0)  -->
<svg version="1.1" id="Layer_1" xmlns="http://www.w3.org/2000/svg" xmlns:xlink="http://www.w3.org/1999/xlink" x="0px" y="0px"
	 viewBox="0 0 505 505" style="enable-background:new 0 0 505 505;" xml:space="preserve">
<circle style="fill:#FFD05B;" cx="252.5" cy="252.5" r="252.5"/>
<path style="fill:#324A5E;" d="M398.5,205.8h-193c-10.2,0-18.5,8.3-18.5,18.5v114c0,10.2,8.3,18.5,18.5,18.5h147.7l42.3,27.3v-27.3
	h3c10.2,0,18.5-8.3,18.5-18.5v-114C417,214.1,408.8,205.8,398.5,205.8z"/>
<path style="fill:#FFFFFF;" d="M341.8,122.1H110.1c-12.3,0-22.2,9.9-22.2,22.2v136.8c0,12.3,9.9,22.2,22.2,22.2h3.6v32.8l50.8-32.8
	h177.3c12.3,0,22.2-9.9,22.2-22.2V144.3C364,132.1,354,122.1,341.8,122.1z"/>
<g>
	<circle style="fill:#4CDBC4;" cx="154.6" cy="216.2" r="21"/>
	<circle style="fill:#4CDBC4;" cx="225.9" cy="216.2" r="21"/>
	<circle style="fill:#4CDBC4;" cx="297.3" cy="216.2" r="21"/>
</g>
<g>
</g>
<g>
</g>
<g>
</g>
<g>
</g>
<g>
</g>
<g>
</g>
<g>
</g>
<g>
</g>
<g>
</g>
<g>
</g>
<g>
</g>
<g>
</g>
<g>
</g>
<g>
</g>
<g>
</g>
</svg>
