<?xml version="1.0" encoding="iso-8859-1"?>
<!-- Generator: Adobe Illustrator 19.0.0, SVG Export Plug-In . SVG Version: 6.00 Build 0)  -->
<svg version="1.1" id="Layer_1" xmlns="http://www.w3.org/2000/svg" xmlns:xlink="http://www.w3.org/1999/xlink" x="0px" y="0px"
	 viewBox="0 0 505 505" style="enable-background:new 0 0 505 505;" xml:space="preserve">
<circle style="fill:#FD8469;" cx="252.5" cy="252.5" r="252.5"/>
<path style="fill:#FFFFFF;" d="M376.7,117.5H128.3c-15.6,0-28.2,12.6-28.2,28.2v156.8c0,15.6,12.6,28.2,28.2,28.2h14.2l-5.9,56.2
	l62.1-56.2h178c15.6,0,28.2-12.6,28.2-28.2V145.7C404.9,130.1,392.3,117.5,376.7,117.5z"/>
<g>
	<path style="fill:#54C0EB;" d="M162.7,200c-1.6,1.3-2.3,3-2.3,5.1s1,3.8,2.9,5.1s6.3,2.7,13.3,4.4c6.9,1.7,12.3,4.3,16.1,7.7
		s5.7,8.4,5.7,14.9s-2.5,11.9-7.4,15.9c-4.9,4.1-11.4,6.1-19.4,6.1c-11.6,0-22-4.3-31.2-12.8l9.7-11.9c7.9,6.9,15.1,10.3,21.8,10.3
		c3,0,5.3-0.6,7-1.9c1.7-1.3,2.6-3,2.6-5.2s-0.9-3.9-2.7-5.2s-5.4-2.6-10.8-3.9c-8.5-2-14.7-4.6-18.6-7.9c-3.9-3.2-5.9-8.3-5.9-15.2
		s2.5-12.3,7.5-16c5-3.8,11.2-5.6,18.6-5.6c4.9,0,9.7,0.8,14.6,2.5c4.9,1.7,9.1,4,12.7,7.1l-8.3,11.9c-6.3-4.8-12.9-7.2-19.6-7.2
		C166.4,198.1,164.3,198.7,162.7,200z"/>
	<path style="fill:#54C0EB;" d="M277.6,212.5l-19.7,39.9h-9.7l-19.7-39.9v45.9h-16.3v-73h22l18.8,40.1l18.9-40.1h21.9v73h-16.3
		v-45.9H277.6z"/>
	<path style="fill:#54C0EB;" d="M328.9,200c-1.6,1.3-2.3,3-2.3,5.1s1,3.8,2.9,5.1s6.3,2.7,13.3,4.4c6.9,1.7,12.3,4.3,16.1,7.7
		c3.8,3.4,5.7,8.4,5.7,14.9s-2.5,11.9-7.4,15.9c-4.9,4.1-11.4,6.1-19.4,6.1c-11.6,0-22-4.3-31.2-12.8l9.7-11.9
		c7.9,6.9,15.1,10.3,21.8,10.3c3,0,5.3-0.6,7-1.9c1.7-1.3,2.6-3,2.6-5.2s-0.9-3.9-2.7-5.2c-1.8-1.3-5.4-2.6-10.8-3.9
		c-8.5-2-14.7-4.6-18.6-7.9c-3.9-3.2-5.9-8.3-5.9-15.2s2.5-12.3,7.5-16s11.2-5.6,18.6-5.6c4.9,0,9.7,0.8,14.6,2.5s9.1,4,12.7,7.1
		l-8.3,11.9c-6.3-4.8-12.9-7.2-19.6-7.2C332.6,198.1,330.5,198.7,328.9,200z"/>
</g>
<g>
</g>
<g>
</g>
<g>
</g>
<g>
</g>
<g>
</g>
<g>
</g>
<g>
</g>
<g>
</g>
<g>
</g>
<g>
</g>
<g>
</g>
<g>
</g>
<g>
</g>
<g>
</g>
<g>
</g>
</svg>
