<?xml version="1.0" encoding="iso-8859-1"?>
<!-- Generator: Adobe Illustrator 19.0.0, SVG Export Plug-In . SVG Version: 6.00 Build 0)  -->
<svg version="1.1" id="Layer_1" xmlns="http://www.w3.org/2000/svg" xmlns:xlink="http://www.w3.org/1999/xlink" x="0px" y="0px"
	 viewBox="0 0 505 505" style="enable-background:new 0 0 505 505;" xml:space="preserve">
<circle style="fill:#324A5E;" cx="252.5" cy="252.5" r="252.5"/>
<path style="fill:#FFFFFF;" d="M176.3,114.5c49,0,88.7,33.2,88.7,74.2c0,15.1-5.4,29.2-14.7,40.9l20,33.3l-45.6-12
	c-13.9,7.6-30.5,12-48.4,12c-49,0-88.7-33.2-88.7-74.2S127.3,114.5,176.3,114.5z"/>
<g>
	<circle style="fill:#4CDBC4;" cx="324.5" cy="247.8" r="36.1"/>
	<path style="fill:#4CDBC4;" d="M340,297.5h-30.8c-36,0-68,24.6-75.8,59.8c-0.8,3.5-1.4,7.1-1.7,10.7c25,14.1,57.5,22.5,93,22.5
		s68-8.4,92.9-22.5c-0.5-5-1.4-9.9-2.7-14.7C405.7,320,374.5,297.5,340,297.5z"/>
</g>
<g>
	<circle style="fill:#FF7058;" cx="128.8" cy="190" r="11.1"/>
	<circle style="fill:#FF7058;" cx="175" cy="190" r="11.1"/>
	<circle style="fill:#FF7058;" cx="221.1" cy="190" r="11.1"/>
</g>
<g>
</g>
<g>
</g>
<g>
</g>
<g>
</g>
<g>
</g>
<g>
</g>
<g>
</g>
<g>
</g>
<g>
</g>
<g>
</g>
<g>
</g>
<g>
</g>
<g>
</g>
<g>
</g>
<g>
</g>
</svg>
