<?xml version="1.0" encoding="iso-8859-1"?>
<!-- Generator: Adobe Illustrator 19.0.0, SVG Export Plug-In . SVG Version: 6.00 Build 0)  -->
<svg version="1.1" id="Layer_1" xmlns="http://www.w3.org/2000/svg" xmlns:xlink="http://www.w3.org/1999/xlink" x="0px" y="0px"
	 viewBox="0 0 505 505" style="enable-background:new 0 0 505 505;" xml:space="preserve">
<circle style="fill:#324A5E;" cx="252.5" cy="252.5" r="252.5"/>
<path style="fill:#4CDBC4;" d="M336,191.3c61.2,11.8,102.2,66.2,91.6,121.5c-4.9,25.5-20,46.7-40.7,61c7.5,12.9,19.5,24.6,35.8,32.5
	c-23.4,4.4-50.6-0.2-74.6-15.5c-16,3.7-33.2,4.1-50.7,0.8c-61.2-11.8-102.2-66.2-91.6-121.5C216.4,214.8,274.7,179.5,336,191.3z"/>
<path style="fill:#FFFFFF;" d="M200.5,98.6c-78.1,11-133.4,77-123.5,147.6c4.6,32.5,22.2,60.3,47.5,79.7
	c-10.4,15.8-26.2,29.8-47.3,38.7c29.3,7.1,63.9,3.1,95.2-14.8c19.9,5.7,41.7,7.4,64,4.3c78.1-11,133.4-77,123.5-147.6
	C350,136,278.6,87.6,200.5,98.6z"/>
<g>
	<circle style="fill:#FF7058;" cx="151" cy="227.2" r="19.7"/>
	<circle style="fill:#FF7058;" cx="218.4" cy="227.2" r="19.7"/>
	<circle style="fill:#FF7058;" cx="285.8" cy="227.2" r="19.7"/>
</g>
<g>
</g>
<g>
</g>
<g>
</g>
<g>
</g>
<g>
</g>
<g>
</g>
<g>
</g>
<g>
</g>
<g>
</g>
<g>
</g>
<g>
</g>
<g>
</g>
<g>
</g>
<g>
</g>
<g>
</g>
</svg>
