<?xml version="1.0" encoding="iso-8859-1"?>
<!-- Generator: Adobe Illustrator 19.0.0, SVG Export Plug-In . SVG Version: 6.00 Build 0)  -->
<svg version="1.1" id="Layer_1" xmlns="http://www.w3.org/2000/svg" xmlns:xlink="http://www.w3.org/1999/xlink" x="0px" y="0px"
	 viewBox="0 0 505 505" style="enable-background:new 0 0 505 505;" xml:space="preserve">
<circle style="fill:#90DFAA;" cx="252.5" cy="252.5" r="252.5"/>
<path style="fill:#FFFFFF;" d="M423.3,372l-24-71.7V161.6c0-15.8-12.8-28.6-28.6-28.6H110.3c-15.8,0-28.6,12.8-28.6,28.6v157.7
	c0,15.8,12.8,28.6,28.6,28.6h241.3l0,0L423.3,372z"/>
<g>
	<circle style="fill:#FF7058;" cx="233.1" cy="200.7" r="25.4"/>
	<path style="fill:#FF7058;" d="M298.4,301.4c-17.5,9.9-40.3,15.8-65.3,15.8s-47.8-5.9-65.4-15.8c3.4-33.1,31.3-59,65.4-59
		C267.1,242.4,295,268.3,298.4,301.4z"/>
</g>
<g>
</g>
<g>
</g>
<g>
</g>
<g>
</g>
<g>
</g>
<g>
</g>
<g>
</g>
<g>
</g>
<g>
</g>
<g>
</g>
<g>
</g>
<g>
</g>
<g>
</g>
<g>
</g>
<g>
</g>
</svg>
