<?xml version="1.0" encoding="iso-8859-1"?>
<!-- Generator: Adobe Illustrator 19.0.0, SVG Export Plug-In . SVG Version: 6.00 Build 0)  -->
<svg version="1.1" id="Layer_1" xmlns="http://www.w3.org/2000/svg" xmlns:xlink="http://www.w3.org/1999/xlink" x="0px" y="0px"
	 viewBox="0 0 505 505" style="enable-background:new 0 0 505 505;" xml:space="preserve">
<circle style="fill:#90DFAA;" cx="252.5" cy="252.5" r="252.5"/>
<path style="fill:#324A5E;" d="M316.9,254c44.1,0,79.8,29.9,79.8,66.8c0,13.6-4.9,26.2-13.2,36.8l18,30l-41-10.8
	c-12.5,6.8-27.5,10.8-43.6,10.8c-44.1,0-79.8-29.9-79.8-66.8C237.1,283.9,272.9,254,316.9,254z"/>
<g>
	<circle style="fill:#FFFFFF;" cx="274.2" cy="321.9" r="10"/>
	<circle style="fill:#FFFFFF;" cx="315.8" cy="321.9" r="10"/>
	<circle style="fill:#FFFFFF;" cx="357.3" cy="321.9" r="10"/>
	<path style="fill:#FFFFFF;" d="M224.5,85.9c-71.3,0-129,48.3-129,107.9c0,22,7.9,42.4,21.4,59.5l-29.1,48.5l66.3-17.5
		c20.3,11.1,44.4,17.5,70.4,17.5c71.3,0,129-48.3,129-107.9S295.7,85.9,224.5,85.9z"/>
</g>
<g>
	<circle style="fill:#FF7058;" cx="293.5" cy="195.8" r="16.2"/>
	<circle style="fill:#FF7058;" cx="226.4" cy="195.8" r="16.2"/>
	<circle style="fill:#FF7058;" cx="159.2" cy="195.8" r="16.2"/>
</g>
<g>
</g>
<g>
</g>
<g>
</g>
<g>
</g>
<g>
</g>
<g>
</g>
<g>
</g>
<g>
</g>
<g>
</g>
<g>
</g>
<g>
</g>
<g>
</g>
<g>
</g>
<g>
</g>
<g>
</g>
</svg>
