<?xml version="1.0" encoding="iso-8859-1"?>
<!-- Generator: Adobe Illustrator 19.0.0, SVG Export Plug-In . SVG Version: 6.00 Build 0)  -->
<svg version="1.1" id="Layer_1" xmlns="http://www.w3.org/2000/svg" xmlns:xlink="http://www.w3.org/1999/xlink" x="0px" y="0px"
	 viewBox="0 0 505 505" style="enable-background:new 0 0 505 505;" xml:space="preserve">
<circle style="fill:#FFD05B;" cx="252.5" cy="252.5" r="252.5"/>
<path style="fill:#FFFFFF;" d="M280,260.4l-13.7-40.8v-78.9c0-9-7.3-16.3-16.3-16.3H101.8c-9,0-16.3,7.3-16.3,16.3v89.8
	c0,9,7.3,16.3,16.3,16.3h137.4l0,0L280,260.4z"/>
<g>
	<circle style="fill:#FF7058;" cx="330.5" cy="243.9" r="34.6"/>
	<path style="fill:#FF7058;" d="M345.3,291.5h-29.5c-34.5,0-65.1,23.5-72.6,57.2c-0.7,3.4-1.3,6.8-1.7,10.3
		c23.9,13.5,55,21.5,89,21.5s65.1-8,88.9-21.5c-0.5-4.8-1.4-9.5-2.6-14.1C408.3,313.1,378.4,291.5,345.3,291.5z"/>
</g>
<g>
	<rect x="108.9" y="155" style="fill:#E6E9EE;" width="124" height="10.9"/>
	<rect x="108.9" y="180" style="fill:#E6E9EE;" width="124" height="10.9"/>
	<rect x="108.9" y="205" style="fill:#E6E9EE;" width="81.8" height="10.9"/>
</g>
<g>
</g>
<g>
</g>
<g>
</g>
<g>
</g>
<g>
</g>
<g>
</g>
<g>
</g>
<g>
</g>
<g>
</g>
<g>
</g>
<g>
</g>
<g>
</g>
<g>
</g>
<g>
</g>
<g>
</g>
</svg>
