<?xml version="1.0" encoding="iso-8859-1"?>
<!-- Generator: Adobe Illustrator 19.0.0, SVG Export Plug-In . SVG Version: 6.00 Build 0)  -->
<svg version="1.1" id="Layer_1" xmlns="http://www.w3.org/2000/svg" xmlns:xlink="http://www.w3.org/1999/xlink" x="0px" y="0px"
	 viewBox="0 0 505 505" style="enable-background:new 0 0 505 505;" xml:space="preserve">
<circle style="fill:#FD8469;" cx="252.5" cy="252.5" r="252.5"/>
<path style="fill:#324A5E;" d="M427.2,296.7l-20.7-62v-88.8c0-13.7-11.1-24.7-24.7-24.7H156.6c-13.6,0-24.7,11.1-24.7,24.7v105.4
	c0,13.7,11.1,24.7,24.7,24.7h208.6l0,0L427.2,296.7z"/>
<path style="fill:#FFFFFF;" d="M77.8,382.4l17.3-51.7v-74c0-11.4,9.2-20.6,20.6-20.6h187.7c11.4,0,20.6,9.2,20.6,20.6v87.8
	c0,11.4-9.2,20.6-20.6,20.6H129.5l0,0L77.8,382.4z"/>
<g>
</g>
<g>
</g>
<g>
</g>
<g>
</g>
<g>
</g>
<g>
</g>
<g>
</g>
<g>
</g>
<g>
</g>
<g>
</g>
<g>
</g>
<g>
</g>
<g>
</g>
<g>
</g>
<g>
</g>
</svg>
