<?xml version="1.0" encoding="iso-8859-1"?>
<!-- Generator: Adobe Illustrator 19.0.0, SVG Export Plug-In . SVG Version: 6.00 Build 0)  -->
<svg version="1.1" id="Layer_1" xmlns="http://www.w3.org/2000/svg" xmlns:xlink="http://www.w3.org/1999/xlink" x="0px" y="0px"
	 viewBox="0 0 505 505" style="enable-background:new 0 0 505 505;" xml:space="preserve">
<circle style="fill:#90DFAA;" cx="252.5" cy="252.5" r="252.5"/>
<path style="fill:#FFFFFF;" d="M315.8,272.8l-15.2-45.5v-87.8c0-10-8.1-18.1-18.1-18.1h-165c-10,0-18.1,8.1-18.1,18.1v100
	c0,10,8.1,18.1,18.1,18.1h152.9l0,0L315.8,272.8z"/>
<g>
	<circle style="fill:#324A5E;" cx="353.1" cy="302.8" r="20.4"/>
	<path style="fill:#324A5E;" d="M361.8,330.9h-17.5c-20.4,0-38.5,13.9-42.9,33.8c-0.4,2-0.8,4-1,6.1c14.1,8,32.5,12.7,52.6,12.7
		s38.5-4.8,52.6-12.7c-0.3-2.8-0.8-5.6-1.5-8.3C399.1,343.7,381.4,330.9,361.8,330.9z"/>
	<circle style="fill:#324A5E;" cx="240.8" cy="302.8" r="20.4"/>
	<path style="fill:#324A5E;" d="M249.5,330.9H232c-20.4,0-38.5,13.9-42.9,33.8c-0.4,2-0.8,4-1,6.1c14.1,8,32.5,12.7,52.6,12.7
		s38.5-4.8,52.6-12.7c-0.3-2.8-0.8-5.6-1.5-8.3C286.8,343.7,269.1,330.9,249.5,330.9z"/>
</g>
<g>
</g>
<g>
</g>
<g>
</g>
<g>
</g>
<g>
</g>
<g>
</g>
<g>
</g>
<g>
</g>
<g>
</g>
<g>
</g>
<g>
</g>
<g>
</g>
<g>
</g>
<g>
</g>
<g>
</g>
</svg>
