<?xml version="1.0" encoding="iso-8859-1"?>
<!-- Generator: Adobe Illustrator 19.0.0, SVG Export Plug-In . SVG Version: 6.00 Build 0)  -->
<svg version="1.1" id="Layer_1" xmlns="http://www.w3.org/2000/svg" xmlns:xlink="http://www.w3.org/1999/xlink" x="0px" y="0px"
	 viewBox="0 0 505 505" style="enable-background:new 0 0 505 505;" xml:space="preserve">
<circle style="fill:#FD8469;" cx="252.5" cy="252.5" r="252.5"/>
<path style="fill:#FFFFFF;" d="M117.5,187.3L117.5,187.3c-18.6,0-33.7-15.1-33.7-33.7l0,0c0-18.6,15.1-33.7,33.7-33.7l0,0
	c18.6,0,33.7,15.1,33.7,33.7l0,0C151.2,172.2,136.1,187.3,117.5,187.3z"/>
<g>
	<circle style="fill:#324A5E;" cx="117.7" cy="139.1" r="9.4"/>
	<path style="fill:#324A5E;" d="M138.7,166.9c-4.9,6.4-12.6,10.6-21.3,10.6s-16.4-4.2-21.2-10.6c4.8-6.5,12.6-10.6,21.2-10.6
		C126.2,156.2,133.9,160.4,138.7,166.9z"/>
</g>
<g>
	<path style="fill:#FFFFFF;" d="M408.9,119.9H187.7c-3.9,0-7.1,3.2-7.1,7.1v13.6l-13,13l13,13v13.6c0,3.9,3.2,7.1,7.1,7.1h221.2
		c3.9,0,7.1-3.2,7.1-7.1V127C416,123.1,412.9,119.9,408.9,119.9z"/>
	<path style="fill:#FFFFFF;" d="M382.3,282.3L382.3,282.3c18.6,0,33.7-15.1,33.7-33.7l0,0c0-18.6-15.1-33.7-33.7-33.7l0,0
		c-18.6,0-33.7,15.1-33.7,33.7l0,0C348.6,267.2,363.7,282.3,382.3,282.3z"/>
</g>
<g>
	<circle style="fill:#4CDBC4;" cx="382.2" cy="234.1" r="9.4"/>
	<path style="fill:#4CDBC4;" d="M361.1,261.9c4.9,6.4,12.6,10.6,21.3,10.6c8.7,0,16.4-4.2,21.2-10.6c-4.8-6.5-12.6-10.6-21.2-10.6
		C373.6,251.2,365.9,255.4,361.1,261.9z"/>
</g>
<g>
	<path style="fill:#FFFFFF;" d="M90.9,214.9h221.2c3.9,0,7.1,3.2,7.1,7.1v13.6l13,13l-13,13v13.6c0,3.9-3.2,7.1-7.1,7.1H90.9
		c-3.9,0-7.1-3.2-7.1-7.1V222C83.8,218.1,87,214.9,90.9,214.9z"/>
	<path style="fill:#FFFFFF;" d="M117.5,381L117.5,381c-18.6,0-33.7-15.1-33.7-33.7l0,0c0-18.6,15.1-33.7,33.7-33.7l0,0
		c18.6,0,33.7,15.1,33.7,33.7l0,0C151.2,365.9,136.1,381,117.5,381z"/>
</g>
<g>
	<circle style="fill:#324A5E;" cx="117.7" cy="332.8" r="9.4"/>
	<path style="fill:#324A5E;" d="M138.7,360.6c-4.9,6.4-12.6,10.6-21.3,10.6S101,367,96.2,360.6c4.8-6.5,12.6-10.6,21.2-10.6
		C126.2,349.9,133.9,354.1,138.7,360.6z"/>
</g>
<path style="fill:#FFFFFF;" d="M413.9,315.6H185.8c-4,0-7.3,3.3-7.3,7.3V337l-13.4,13.4l13.4,13.4v14.1c0,4,3.3,7.3,7.3,7.3h228.1
	c4,0,7.3-3.3,7.3-7.3V323C421.2,318.9,417.9,315.6,413.9,315.6z"/>
<g>
</g>
<g>
</g>
<g>
</g>
<g>
</g>
<g>
</g>
<g>
</g>
<g>
</g>
<g>
</g>
<g>
</g>
<g>
</g>
<g>
</g>
<g>
</g>
<g>
</g>
<g>
</g>
<g>
</g>
</svg>
