<?xml version="1.0" encoding="iso-8859-1"?>
<!-- Generator: Adobe Illustrator 19.0.0, SVG Export Plug-In . SVG Version: 6.00 Build 0)  -->
<svg version="1.1" id="Layer_1" xmlns="http://www.w3.org/2000/svg" xmlns:xlink="http://www.w3.org/1999/xlink" x="0px" y="0px"
	 viewBox="0 0 505 505" style="enable-background:new 0 0 505 505;" xml:space="preserve">
<circle style="fill:#84DBFF;" cx="252.5" cy="252.5" r="252.5"/>
<path style="fill:#FFFFFF;" d="M376.7,119.8H128.3c-15.6,0-28.2,12.6-28.2,28.2v156.8c0,15.6,12.6,28.2,28.2,28.2h14.2l-5.9,56.2
	l62.1-56.2h178c15.6,0,28.2-12.6,28.2-28.2V148C404.9,132.4,392.3,119.8,376.7,119.8z"/>
<path style="fill:#FF7058;" d="M295,219.3h-6.8v-27.7c0-19.7-16-35.7-35.7-35.7s-35.7,16-35.7,35.7v27.7H210c-4.5,0-8.2,3.7-8.2,8.2
	v59.2c0,4.5,3.7,8.2,8.2,8.2h85c4.5,0,8.2-3.7,8.2-8.2v-59.2C303.2,223,299.5,219.3,295,219.3z M235.6,191.6
	c0-9.3,7.6-16.9,16.9-16.9s16.9,7.6,16.9,16.9v27.7h-33.8L235.6,191.6L235.6,191.6z"/>
<g>
</g>
<g>
</g>
<g>
</g>
<g>
</g>
<g>
</g>
<g>
</g>
<g>
</g>
<g>
</g>
<g>
</g>
<g>
</g>
<g>
</g>
<g>
</g>
<g>
</g>
<g>
</g>
<g>
</g>
</svg>
