<?xml version="1.0" encoding="iso-8859-1"?>
<!-- Generator: Adobe Illustrator 19.0.0, SVG Export Plug-In . SVG Version: 6.00 Build 0)  -->
<svg version="1.1" id="Layer_1" xmlns="http://www.w3.org/2000/svg" xmlns:xlink="http://www.w3.org/1999/xlink" x="0px" y="0px"
	 viewBox="0 0 505 505" style="enable-background:new 0 0 505 505;" xml:space="preserve">
<circle style="fill:#324A5E;" cx="252.5" cy="252.5" r="252.5"/>
<path style="fill:#FFFFFF;" d="M127.3,132.8c37.1-37.1,97.2-37.1,134.2,0c32.5,32.5,36.5,82.8,11.9,119.7l8.5,34.9l-34.9-8.5
	c-36.9,24.6-87.1,20.6-119.7-11.9C90.2,230,90.2,169.9,127.3,132.8z"/>
<g>
	<circle style="fill:#FF7058;" cx="244.9" cy="199.9" r="13.9"/>
	<circle style="fill:#FF7058;" cx="194.4" cy="199.9" r="13.9"/>
	<circle style="fill:#FF7058;" cx="144" cy="199.9" r="13.9"/>
</g>
<g>
	<circle style="fill:#FFD05B;" cx="335.9" cy="292.3" r="26.7"/>
	<path style="fill:#FFD05B;" d="M405.5,383.9c-17.4,9.9-42.1,16.1-69.6,16.1c-27.4,0-52.2-6.2-69.5-16.1
		c7.3-31.6,35.7-55.2,69.5-55.2C369.8,328.7,398.2,352.3,405.5,383.9z"/>
</g>
<g>
</g>
<g>
</g>
<g>
</g>
<g>
</g>
<g>
</g>
<g>
</g>
<g>
</g>
<g>
</g>
<g>
</g>
<g>
</g>
<g>
</g>
<g>
</g>
<g>
</g>
<g>
</g>
<g>
</g>
</svg>
