<?xml version="1.0" encoding="iso-8859-1"?>
<!-- Generator: Adobe Illustrator 19.0.0, SVG Export Plug-In . SVG Version: 6.00 Build 0)  -->
<svg version="1.1" id="Layer_1" xmlns="http://www.w3.org/2000/svg" xmlns:xlink="http://www.w3.org/1999/xlink" x="0px" y="0px"
	 viewBox="0 0 505 505" style="enable-background:new 0 0 505 505;" xml:space="preserve">
<path style="fill:#FFD05B;" d="M505,252.5c0,70.2-28.6,133.7-74.9,179.4C384.5,477.1,321.7,505,252.5,505s-132-27.9-177.6-73
	C28.6,386.2,0,322.7,0,252.5C0,113.1,113,0,252.5,0C391.9,0,505,113.1,505,252.5z"/>
<g>
	<path style="fill:#FF7058;" d="M351.1,208.9H127.3c-18.9,0-34.3-15.3-34.3-34.3l0,0c0-18.9,15.3-34.3,34.3-34.3h223.8
		c18.9,0,34.3,15.3,34.3,34.3l0,0C385.3,193.5,370,208.9,351.1,208.9z"/>
	<polygon style="fill:#FF7058;" points="374.7,176.3 412,241.5 330.7,200.8 	"/>
</g>
<g>
	<path style="fill:#FFFFFF;" d="M153.9,336.6h223.8c18.9,0,34.3-15.3,34.3-34.3l0,0c0-18.9-15.3-34.3-34.3-34.3H153.9
		c-18.9,0-34.3,15.3-34.3,34.3l0,0C119.7,321.2,135,336.6,153.9,336.6z"/>
	<polygon style="fill:#FFFFFF;" points="130.3,304 93,369.2 174.3,328.6 	"/>
</g>
<g>
	<circle style="fill:#84DBFF;" cx="316.3" cy="302.3" r="13"/>
	<circle style="fill:#84DBFF;" cx="265.8" cy="302.3" r="13"/>
	<circle style="fill:#84DBFF;" cx="215.3" cy="302.3" r="13"/>
</g>
<g>
	<circle style="fill:#FFFFFF;" cx="289.7" cy="174.6" r="13"/>
	<circle style="fill:#FFFFFF;" cx="239.2" cy="174.6" r="13"/>
	<circle style="fill:#FFFFFF;" cx="188.7" cy="174.6" r="13"/>
</g>
<g>
</g>
<g>
</g>
<g>
</g>
<g>
</g>
<g>
</g>
<g>
</g>
<g>
</g>
<g>
</g>
<g>
</g>
<g>
</g>
<g>
</g>
<g>
</g>
<g>
</g>
<g>
</g>
<g>
</g>
</svg>
