<?xml version="1.0" encoding="iso-8859-1"?>
<!-- Generator: Adobe Illustrator 19.0.0, SVG Export Plug-In . SVG Version: 6.00 Build 0)  -->
<svg version="1.1" id="Layer_1" xmlns="http://www.w3.org/2000/svg" xmlns:xlink="http://www.w3.org/1999/xlink" x="0px" y="0px"
	 viewBox="0 0 505 505" style="enable-background:new 0 0 505 505;" xml:space="preserve">
<circle style="fill:#90DFAA;" cx="252.5" cy="252.5" r="252.5"/>
<g>
	<path style="fill:#FFFFFF;" d="M410.9,164.6v-31.3c0-7.7-6.2-13.9-13.9-13.9H146.6c-7.7,0-13.9,6.2-13.9,13.9v36.1
		c0,7.7,6.2,13.9,13.9,13.9h245.6l26.5,7.8L410.9,164.6z"/>
	<path style="fill:#FFFFFF;" d="M140.5,359.1v-31.3c0-7.7,6.2-13.9,13.9-13.9h250.4c7.7,0,13.9,6.2,13.9,13.9v36.1
		c0,7.7-6.2,13.9-13.9,13.9H159.2l-26.5,7.8L140.5,359.1z"/>
</g>
<path style="fill:#324A5E;" d="M94.1,258.2v-31.3c0-7.7,6.2-13.9,13.9-13.9h250.4c7.7,0,13.9,6.2,13.9,13.9V263
	c0,7.7-6.2,13.9-13.9,13.9H112.8l-26.5,7.8L94.1,258.2z"/>
<g>
</g>
<g>
</g>
<g>
</g>
<g>
</g>
<g>
</g>
<g>
</g>
<g>
</g>
<g>
</g>
<g>
</g>
<g>
</g>
<g>
</g>
<g>
</g>
<g>
</g>
<g>
</g>
<g>
</g>
</svg>
