<?xml version="1.0" encoding="iso-8859-1"?>
<!-- Generator: Adobe Illustrator 19.0.0, SVG Export Plug-In . SVG Version: 6.00 Build 0)  -->
<svg version="1.1" id="Layer_1" xmlns="http://www.w3.org/2000/svg" xmlns:xlink="http://www.w3.org/1999/xlink" x="0px" y="0px"
	 viewBox="0 0 505 505" style="enable-background:new 0 0 505 505;" xml:space="preserve">
<circle style="fill:#FD8469;" cx="252.5" cy="252.5" r="252.5"/>
<path style="fill:#FFFFFF;" d="M359.2,108.6H113c-2.2,0-4.1,1.8-4.1,4.1v163.7c0,2.2,1.8,4.1,4.1,4.1h23.9v38l38.4-38h183.9
	c2.2,0,4.1-1.8,4.1-4.1V112.7C363.3,110.5,361.4,108.6,359.2,108.6z"/>
<path style="fill:#324A5E;" d="M393,233.7H202c-1.7,0-3.1,1.4-3.1,3.1v126.9c0,1.7,1.4,3.1,3.1,3.1h142.6l29.8,29.4v-29.4H393
	c1.7,0,3.1-1.4,3.1-3.1V236.9C396.1,235.1,394.7,233.7,393,233.7z"/>
<g>
</g>
<g>
</g>
<g>
</g>
<g>
</g>
<g>
</g>
<g>
</g>
<g>
</g>
<g>
</g>
<g>
</g>
<g>
</g>
<g>
</g>
<g>
</g>
<g>
</g>
<g>
</g>
<g>
</g>
</svg>
