<?xml version="1.0" encoding="iso-8859-1"?>
<!-- Generator: Adobe Illustrator 19.0.0, SVG Export Plug-In . SVG Version: 6.00 Build 0)  -->
<svg version="1.1" id="Layer_1" xmlns="http://www.w3.org/2000/svg" xmlns:xlink="http://www.w3.org/1999/xlink" x="0px" y="0px"
	 viewBox="0 0 505 505" style="enable-background:new 0 0 505 505;" xml:space="preserve">
<circle style="fill:#84DBFF;" cx="252.5" cy="252.5" r="252.5"/>
<g>
	<path style="fill:#FFFFFF;" d="M407.3,254.2H186.4c-2.5,0-4.5-2-4.5-4.5v-131c0-2.5,2-4.5,4.5-4.5h220.9c2.5,0,4.5,2,4.5,4.5v130.9
		C411.8,252.2,409.8,254.2,407.3,254.2z"/>
	<polygon style="fill:#FFFFFF;" points="307.8,247.9 214.4,290.3 238.4,241.6 	"/>
</g>
<g>
	<rect x="207.5" y="149" style="fill:#E6E9EE;" width="178.6" height="13.5"/>
	<rect x="207.5" y="177.4" style="fill:#E6E9EE;" width="178.6" height="13.5"/>
	<rect x="207.5" y="205.8" style="fill:#E6E9EE;" width="108" height="13.5"/>
</g>
<g>
	<circle style="fill:#324A5E;" cx="146.4" cy="256.7" r="27.1"/>
	<path style="fill:#324A5E;" d="M217,349.6c-17.6,10-42.7,16.3-70.6,16.3c-27.8,0-52.9-6.3-70.6-16.3c7.4-32.1,36.2-56,70.6-56
		S209.6,317.6,217,349.6z"/>
</g>
<g>
</g>
<g>
</g>
<g>
</g>
<g>
</g>
<g>
</g>
<g>
</g>
<g>
</g>
<g>
</g>
<g>
</g>
<g>
</g>
<g>
</g>
<g>
</g>
<g>
</g>
<g>
</g>
<g>
</g>
</svg>
