<?xml version="1.0" encoding="iso-8859-1"?>
<!-- Generator: Adobe Illustrator 19.0.0, SVG Export Plug-In . SVG Version: 6.00 Build 0)  -->
<svg version="1.1" id="Layer_1" xmlns="http://www.w3.org/2000/svg" xmlns:xlink="http://www.w3.org/1999/xlink" x="0px" y="0px"
	 viewBox="0 0 505 505" style="enable-background:new 0 0 505 505;" xml:space="preserve">
<circle style="fill:#84DBFF;" cx="252.5" cy="252.5" r="252.5"/>
<path style="fill:#324A5E;" d="M369,428.3H136c-3.9,0-7.1-3.2-7.1-7.1V83.8c0-3.9,3.2-7.1,7.1-7.1h233c3.9,0,7.1,3.2,7.1,7.1v337.4
	C376.1,425.1,373,428.3,369,428.3z"/>
<g>
	<rect x="148.5" y="120" style="fill:#FFFFFF;" width="207.9" height="258.2"/>
	<circle style="fill:#FFFFFF;" cx="252.5" cy="402.3" r="14.2"/>
	<path style="fill:#FFFFFF;" d="M277.8,102.6h-50.6c-2.1,0-3.9-1.7-3.9-3.9l0,0c0-2.1,1.7-3.9,3.9-3.9h50.6c2.1,0,3.9,1.7,3.9,3.9
		l0,0C281.7,100.9,279.9,102.6,277.8,102.6z"/>
</g>
<g>
	<circle style="fill:#FF7058;" cx="252.5" cy="212" r="26.7"/>
	<path style="fill:#FF7058;" d="M322.1,303.6c-17.4,9.9-42.1,16.1-69.6,16.1s-52.2-6.2-69.5-16.1c7.3-31.6,35.7-55.2,69.5-55.2
		C286.4,248.4,314.7,272,322.1,303.6z"/>
</g>
<g>
</g>
<g>
</g>
<g>
</g>
<g>
</g>
<g>
</g>
<g>
</g>
<g>
</g>
<g>
</g>
<g>
</g>
<g>
</g>
<g>
</g>
<g>
</g>
<g>
</g>
<g>
</g>
<g>
</g>
</svg>
