<?xml version="1.0" encoding="iso-8859-1"?>
<!-- Generator: Adobe Illustrator 19.0.0, SVG Export Plug-In . SVG Version: 6.00 Build 0)  -->
<svg version="1.1" id="Layer_1" xmlns="http://www.w3.org/2000/svg" xmlns:xlink="http://www.w3.org/1999/xlink" x="0px" y="0px"
	 viewBox="0 0 505 505" style="enable-background:new 0 0 505 505;" xml:space="preserve">
<circle style="fill:#FFD05B;" cx="252.5" cy="252.5" r="252.5"/>
<path style="fill:#324A5E;" d="M283.9,95.3H117.7c-8.1,0-14.6,6.5-14.6,14.6v285.2c0,8.1,6.5,14.6,14.6,14.6h166.2
	c8.1,0,14.6-6.5,14.6-14.6V109.9C298.5,101.8,292,95.3,283.9,95.3z"/>
<g>
	<path style="fill:#FFFFFF;" d="M298.5,139.3v-30.1c0-7.7-6.2-13.9-13.9-13.9H116.2c-7.2,0-13.1,5.9-13.1,13.1v30.9H298.5z"/>
	<path style="fill:#FFFFFF;" d="M103.1,365.7v30.9c0,7.2,5.9,13.1,13.1,13.1h169.2c7.2,0,13.1-5.9,13.1-13.1v-30.9H103.1z"/>
</g>
<g>
	<circle style="fill:#E6E9EE;" cx="200.8" cy="385.7" r="12.9"/>
	<path style="fill:#E6E9EE;" d="M230,125.1h-58.4c-1,0-1.8-0.8-1.8-1.8l0,0c0-1,0.8-1.8,1.8-1.8H230c1,0,1.8,0.8,1.8,1.8l0,0
		C231.9,124.2,231.1,125.1,230,125.1z"/>
	<rect x="192.9" y="110.3" style="fill:#E6E9EE;" width="15.8" height="3.7"/>
</g>
<path style="fill:#FFFFFF;" d="M397.8,171.8H244.9c-9.6,0-17.4,7.8-17.4,17.4v96.5c0,9.6,7.8,17.4,17.4,17.4h8.7l-3.6,34.6
	l38.2-34.6h109.6c9.6,0,17.4-7.8,17.4-17.4v-96.5C415.2,179.6,407.4,171.8,397.8,171.8z"/>
<g>
	<circle style="fill:#4CDBC4;" cx="265.8" cy="239.6" r="16.5"/>
	<circle style="fill:#4CDBC4;" cx="321.4" cy="239.6" r="16.5"/>
	<circle style="fill:#4CDBC4;" cx="376.9" cy="239.6" r="16.5"/>
</g>
<g>
</g>
<g>
</g>
<g>
</g>
<g>
</g>
<g>
</g>
<g>
</g>
<g>
</g>
<g>
</g>
<g>
</g>
<g>
</g>
<g>
</g>
<g>
</g>
<g>
</g>
<g>
</g>
<g>
</g>
</svg>
