<?xml version="1.0" encoding="iso-8859-1"?>
<!-- Generator: Adobe Illustrator 19.0.0, SVG Export Plug-In . SVG Version: 6.00 Build 0)  -->
<svg version="1.1" id="Layer_1" xmlns="http://www.w3.org/2000/svg" xmlns:xlink="http://www.w3.org/1999/xlink" x="0px" y="0px"
	 viewBox="0 0 505 505" style="enable-background:new 0 0 505 505;" xml:space="preserve">
<circle style="fill:#324A5E;" cx="252.5" cy="252.5" r="252.5"/>
<path style="fill:#FFFFFF;" d="M280.8,409.7H102c-4.6,0-8.3-3.7-8.3-8.3V103.6c0-4.6,3.7-8.3,8.3-8.3h178.8c4.6,0,8.3,3.7,8.3,8.3
	v297.8C289.1,406,285.4,409.7,280.8,409.7z"/>
<rect x="107.4" y="134.5" style="fill:#54C0EB;" width="168.1" height="228.7"/>
<g>
	<circle style="fill:#E6E9EE;" cx="191.4" cy="385.7" r="11.9"/>
	<path style="fill:#E6E9EE;" d="M220.6,125.1h-58.4c-1,0-1.8-0.8-1.8-1.8l0,0c0-1,0.8-1.8,1.8-1.8h58.4c1,0,1.8,0.8,1.8,1.8l0,0
		C222.5,124.2,221.7,125.1,220.6,125.1z"/>
	<rect x="183.5" y="110.3" style="fill:#E6E9EE;" width="15.8" height="3.7"/>
</g>
<path style="fill:#FFD05B;" d="M383.1,178.5c-37.6-31-98.4-31-136,0c-33,27.2-37,69.3-12.1,100.2l-8.6,29.2l35.4-7.1
	c37.4,20.6,88.3,17.3,121.3-10C420.7,259.8,420.7,209.6,383.1,178.5z"/>
<g>
	<path style="fill:#F1543F;" d="M281.9,241.1c0,3.3-1.2,6-3.7,8.1c-2.5,2-5.6,3-9.4,3c-2.5,0-5.2-0.5-7.9-1.4
		c-2.7-0.9-5.2-2.2-7.4-4l4.2-5.9c3.5,2.7,7.3,4.1,11.3,4.1c1.2,0,2.2-0.2,2.9-0.7c0.7-0.5,1.1-1.1,1.1-1.9c0-0.8-0.5-1.5-1.5-2.2
		s-2.4-1.3-4.3-1.9c-1.9-0.6-3.3-1.1-4.3-1.5s-2.1-1-3.4-1.8c-2.6-1.6-3.9-4-3.9-7.1s1.3-5.7,3.8-7.7s5.8-3,9.8-3s8,1.3,12,4
		l-3.5,6.3c-2.9-2-5.9-3-8.8-3s-4.4,0.8-4.4,2.4c0,0.9,0.5,1.6,1.4,2.1s2.5,1.1,4.6,1.8s3.7,1.2,4.6,1.5c0.9,0.4,2,0.9,3.3,1.7
		C280.7,235.4,281.9,237.8,281.9,241.1z"/>
	<path style="fill:#F1543F;" d="M320.3,233.4v18.3h-9.5v-18.6c0-2.7-0.4-4.7-1.2-5.9c-0.8-1.3-2.1-1.9-4-1.9c-1.8,0-3.5,0.7-4.9,2.1
		c-1.4,1.4-2.1,3.4-2.1,6v18.3h-9.5v-34h9.5v3.9c2.6-2.9,5.6-4.4,9-4.4c2.1,0,4.1,0.6,5.8,1.9c1.7,1.3,3.1,2.8,3.9,4.6
		c1.3-2.1,3.1-3.7,5.3-4.8c2.2-1.1,4.4-1.7,6.7-1.7c4,0,7.2,1.2,9.7,3.6c2.4,2.4,3.7,5.8,3.7,10.3v20.6h-9.5v-18.6
		c0-5.2-1.9-7.8-5.7-7.8c-1.9,0-3.5,0.7-4.9,2.1C321,228.7,320.3,230.7,320.3,233.4z"/>
	<path style="fill:#F1543F;" d="M376.8,241.1c0,3.3-1.2,6-3.7,8.1c-2.5,2-5.6,3-9.4,3c-2.5,0-5.2-0.5-7.9-1.4
		c-2.7-0.9-5.2-2.2-7.4-4l4.2-5.9c3.5,2.7,7.3,4.1,11.3,4.1c1.2,0,2.2-0.2,2.9-0.7c0.7-0.5,1.1-1.1,1.1-1.9c0-0.8-0.5-1.5-1.5-2.2
		s-2.4-1.3-4.3-1.9c-1.9-0.6-3.3-1.1-4.3-1.5s-2.1-1-3.4-1.8c-2.6-1.6-3.9-4-3.9-7.1s1.3-5.7,3.8-7.7s5.8-3,9.8-3s8,1.3,12,4
		l-3.5,6.3c-2.9-2-5.9-3-8.8-3s-4.4,0.8-4.4,2.4c0,0.9,0.5,1.6,1.4,2.1s2.5,1.1,4.6,1.8s3.7,1.2,4.6,1.5c0.9,0.4,2,0.9,3.3,1.7
		C375.6,235.4,376.8,237.8,376.8,241.1z"/>
</g>
<g>
</g>
<g>
</g>
<g>
</g>
<g>
</g>
<g>
</g>
<g>
</g>
<g>
</g>
<g>
</g>
<g>
</g>
<g>
</g>
<g>
</g>
<g>
</g>
<g>
</g>
<g>
</g>
<g>
</g>
</svg>
