<?xml version="1.0" encoding="iso-8859-1"?>
<!-- Generator: Adobe Illustrator 19.0.0, SVG Export Plug-In . SVG Version: 6.00 Build 0)  -->
<svg version="1.1" id="Layer_1" xmlns="http://www.w3.org/2000/svg" xmlns:xlink="http://www.w3.org/1999/xlink" x="0px" y="0px"
	 viewBox="0 0 505 505" style="enable-background:new 0 0 505 505;" xml:space="preserve">
<circle style="fill:#FD8469;" cx="252.5" cy="252.5" r="252.5"/>
<path style="fill:#324A5E;" d="M369.5,447.3h-234c-2.3,0-4.1-1.8-4.1-4.1V61.8c0-2.3,1.8-4.1,4.1-4.1h234c2.3,0,4.1,1.8,4.1,4.1
	v381.4C373.6,445.5,371.7,447.3,369.5,447.3z"/>
<rect x="148.4" y="106.3" style="fill:#FFFFFF;" width="208.3" height="283.4"/>
<circle style="fill:#E6E9EE;" cx="252.5" cy="417.5" r="15.9"/>
<g>
	<path style="fill:#ACB3BA;" d="M288.7,94.6h-72.4c-1.3,0-2.3-1-2.3-2.3l0,0c0-1.3,1-2.3,2.3-2.3h72.4c1.3,0,2.3,1,2.3,2.3l0,0
		C291,93.6,290,94.6,288.7,94.6z"/>
	<rect x="242.7" y="76.3" style="fill:#ACB3BA;" width="19.6" height="4.6"/>
</g>
<path style="fill:#54C0EB;" d="M331.1,150.4v-18.2c0-4.5-3.6-8.1-8.1-8.1H177.4c-4.5,0-8.1,3.6-8.1,8.1v21c0,4.5,3.6,8.1,8.1,8.1
	h142.8l15.4,4.5L331.1,150.4z"/>
<path style="fill:#E6E9EE;" d="M173.9,207.9v-18.2c0-4.5,3.6-8.1,8.1-8.1h145.6c4.5,0,8.1,3.6,8.1,8.1v21c0,4.5-3.6,8.1-8.1,8.1
	H184.7l-15.4,4.5L173.9,207.9z"/>
<path style="fill:#54C0EB;" d="M331.1,265.4v-18.2c0-4.5-3.6-8.1-8.1-8.1H177.4c-4.5,0-8.1,3.6-8.1,8.1v21c0,4.5,3.6,8.1,8.1,8.1
	h142.8l15.4,4.5L331.1,265.4z"/>
<path style="fill:#E6E9EE;" d="M173.9,322.9v-18.2c0-4.5,3.6-8.1,8.1-8.1h145.6c4.5,0,8.1,3.6,8.1,8.1v21c0,4.5-3.6,8.1-8.1,8.1
	H184.7l-15.4,4.5L173.9,322.9z"/>
<g>
</g>
<g>
</g>
<g>
</g>
<g>
</g>
<g>
</g>
<g>
</g>
<g>
</g>
<g>
</g>
<g>
</g>
<g>
</g>
<g>
</g>
<g>
</g>
<g>
</g>
<g>
</g>
<g>
</g>
</svg>
