<?xml version="1.0" encoding="iso-8859-1"?>
<!-- Generator: Adobe Illustrator 19.0.0, SVG Export Plug-In . SVG Version: 6.00 Build 0)  -->
<svg version="1.1" id="Layer_1" xmlns="http://www.w3.org/2000/svg" xmlns:xlink="http://www.w3.org/1999/xlink" x="0px" y="0px"
	 viewBox="0 0 505 505" style="enable-background:new 0 0 505 505;" xml:space="preserve">
<circle style="fill:#FFD05B;" cx="252.5" cy="252.5" r="252.5"/>
<path style="fill:#324A5E;" d="M290.7,409.7H111.9c-4.6,0-8.3-3.7-8.3-8.3V103.6c0-4.6,3.7-8.3,8.3-8.3h178.8c4.6,0,8.3,3.7,8.3,8.3
	v297.8C299,406,295.3,409.7,290.7,409.7z"/>
<rect x="117.3" y="134.5" style="fill:#84DBFF;" width="168.1" height="228.7"/>
<g>
	<circle style="fill:#2B3B4E;" cx="201.3" cy="385.7" r="11.9"/>
	<path style="fill:#2B3B4E;" d="M230.5,125.1h-58.4c-1,0-1.8-0.8-1.8-1.8l0,0c0-1,0.8-1.8,1.8-1.8h58.4c1,0,1.8,0.8,1.8,1.8l0,0
		C232.4,124.2,231.6,125.1,230.5,125.1z"/>
	<rect x="193.4" y="110.3" style="fill:#2B3B4E;" width="15.8" height="3.7"/>
</g>
<path style="fill:#FFFFFF;" d="M415.5,166.7c-37.6-37.6-98.4-37.6-136,0c-33,33-37,83.9-12.1,121.3l-8.6,35.4l35.4-8.6
	c37.4,24.9,88.3,20.9,121.3-12.1C453.1,265.1,453.1,204.3,415.5,166.7z"/>
<g>
	<circle style="fill:#FF7058;" cx="296.5" cy="234.7" r="14"/>
	<circle style="fill:#FF7058;" cx="347.6" cy="234.7" r="14"/>
	<circle style="fill:#FF7058;" cx="398.7" cy="234.7" r="14"/>
</g>
<g>
</g>
<g>
</g>
<g>
</g>
<g>
</g>
<g>
</g>
<g>
</g>
<g>
</g>
<g>
</g>
<g>
</g>
<g>
</g>
<g>
</g>
<g>
</g>
<g>
</g>
<g>
</g>
<g>
</g>
</svg>
