<?xml version="1.0" encoding="iso-8859-1"?>
<!-- Generator: Adobe Illustrator 19.0.0, SVG Export Plug-In . SVG Version: 6.00 Build 0)  -->
<svg version="1.1" id="Layer_1" xmlns="http://www.w3.org/2000/svg" xmlns:xlink="http://www.w3.org/1999/xlink" x="0px" y="0px"
	 viewBox="0 0 505 505" style="enable-background:new 0 0 505 505;" xml:space="preserve">
<circle style="fill:#54C0EB;" cx="252.5" cy="252.5" r="252.5"/>
<path style="fill:#324A5E;" d="M361.4,431.5H143.6c-2.1,0-3.8-1.7-3.8-3.8V72.5c0-2.1,1.7-3.8,3.8-3.8h217.8c2.1,0,3.8,1.7,3.8,3.8
	v355.1C365.2,429.7,363.5,431.5,361.4,431.5z"/>
<rect x="155.6" y="113.9" style="fill:#FFFFFF;" width="193.9" height="263.9"/>
<circle style="fill:#2B3B4E;" cx="252.5" cy="403.7" r="14.8"/>
<g>
	<path style="fill:#ACB3BA;" d="M286.2,103.1h-67.4c-1.2,0-2.1-1-2.1-2.1l0,0c0-1.2,1-2.1,2.1-2.1h67.4c1.2,0,2.1,1,2.1,2.1l0,0
		C288.3,102.1,287.4,103.1,286.2,103.1z"/>
	<rect x="243.4" y="86" style="fill:#ACB3BA;" width="18.3" height="4.3"/>
</g>
<path style="fill:#FF7058;" d="M320.7,302.7H184.3c-2,0-3.6-1.6-3.6-3.6v-98c0-2,1.6-3.6,3.6-3.6h136.4c2,0,3.6,1.6,3.6,3.6v98
	C324.3,301.1,322.7,302.7,320.7,302.7z"/>
<path style="fill:#F1543F;" d="M320.1,298.5c-2.5,2.5-6.1,4.2-10.1,4.2H194.9c-3.9,0-7.5-1.6-10.1-4.2l67.6-67.6L320.1,298.5z"/>
<path style="fill:#FFD05B;" d="M320.1,201.6l-61.3,61.3c-3.5,3.5-9.2,3.5-12.7,0l-61.3-61.3c2.5-2.5,6.1-4.2,10.1-4.2h115.2
	C314,197.5,317.6,199.1,320.1,201.6z"/>
<g>
</g>
<g>
</g>
<g>
</g>
<g>
</g>
<g>
</g>
<g>
</g>
<g>
</g>
<g>
</g>
<g>
</g>
<g>
</g>
<g>
</g>
<g>
</g>
<g>
</g>
<g>
</g>
<g>
</g>
</svg>
