<?xml version="1.0" encoding="iso-8859-1"?>
<!-- Generator: Adobe Illustrator 19.0.0, SVG Export Plug-In . SVG Version: 6.00 Build 0)  -->
<svg version="1.1" id="Layer_1" xmlns="http://www.w3.org/2000/svg" xmlns:xlink="http://www.w3.org/1999/xlink" x="0px" y="0px"
	 viewBox="0 0 505 505" style="enable-background:new 0 0 505 505;" xml:space="preserve">
<circle style="fill:#FD8469;" cx="252.5" cy="252.5" r="252.5"/>
<path style="fill:#324A5E;" d="M353.9,430h-202c-5.2,0-9.4-4.2-9.4-9.4V84.3c0-5.2,4.2-9.4,9.4-9.4h202c5.2,0,9.4,4.2,9.4,9.4v336.4
	C363.3,425.8,359.1,430,353.9,430z"/>
<rect x="158" y="119.2" style="fill:#84DBFF;" width="189.8" height="258.3"/>
<g>
	<circle style="fill:#2B3B4E;" cx="252.9" cy="402.9" r="13.5"/>
	<path style="fill:#2B3B4E;" d="M285.9,108.6h-66c-1.1,0-2.1-0.9-2.1-2.1l0,0c0-1.1,0.9-2.1,2.1-2.1h66c1.1,0,2.1,0.9,2.1,2.1l0,0
		C288,107.7,287.1,108.6,285.9,108.6z"/>
	<rect x="244" y="91.9" style="fill:#2B3B4E;" width="17.9" height="4.2"/>
</g>
<path style="fill:#FFFFFF;" d="M299.6,201.7c-25.8-25.8-67.6-25.8-93.4,0c-22.7,22.7-25.4,57.7-8.3,83.3l-5.9,24.3l24.3-5.9
	c25.7,17.1,60.7,14.4,83.3-8.3C325.5,269.3,325.5,227.5,299.6,201.7z"/>
<g>
	<circle style="fill:#FF7058;" cx="217.8" cy="248.4" r="9.6"/>
	<circle style="fill:#FF7058;" cx="252.9" cy="248.4" r="9.6"/>
	<circle style="fill:#FF7058;" cx="288" cy="248.4" r="9.6"/>
</g>
<g>
</g>
<g>
</g>
<g>
</g>
<g>
</g>
<g>
</g>
<g>
</g>
<g>
</g>
<g>
</g>
<g>
</g>
<g>
</g>
<g>
</g>
<g>
</g>
<g>
</g>
<g>
</g>
<g>
</g>
</svg>
