<?xml version="1.0" encoding="iso-8859-1"?>
<!-- Generator: Adobe Illustrator 19.0.0, SVG Export Plug-In . SVG Version: 6.00 Build 0)  -->
<svg version="1.1" id="Layer_1" xmlns="http://www.w3.org/2000/svg" xmlns:xlink="http://www.w3.org/1999/xlink" x="0px" y="0px"
	 viewBox="0 0 505 505" style="enable-background:new 0 0 505 505;" xml:space="preserve">
<path style="fill:#FD8469;" d="M505,252.5C505,392,392,505,252.5,505S0,392,0,252.5C0,113.1,113,0,252.5,0
	c110.1,0,203.7,70.5,238.3,168.7c7.4,21,12.1,43.3,13.7,66.5C504.8,240.9,505,246.7,505,252.5z"/>
<path style="fill:#E6E9EE;" d="M284.1,321.2l-24.4,28c-7.9,9.1-21.8,9.6-30.3,1.1l-74.7-74.7c-8.5-8.5-8-22.4,1.1-30.3l28-24.4
	c10.7-9.3,11.3-25.7,1.2-35.7l-40-40c-9.1-9.1-23.8-9.6-33.5-1c-2.8,2.5-5.6,5.1-8.3,7.8l-0.8,0.8c-40.8,41.3-39.6,108.2,1.5,149.3
	l99.2,99.2c41.1,41.1,108,42.3,149.3,1.5l0.8-0.8c2.7-2.7,5.3-5.5,7.8-8.3c8.5-9.7,8.1-24.4-1-33.5l-40-40
	C309.8,309.9,293.4,310.5,284.1,321.2z"/>
<g>
	<path style="fill:#324A5E;" d="M111.5,144.1c-2.8,2.5-5.6,5.1-8.3,7.8l-0.8,0.8c-1.6,1.6-3.1,3.2-4.5,4.9l73.8,73.8l12.2-10.6
		c10.7-9.3,11.3-25.7,1.2-35.7l-40-40C135.9,136,121.2,135.6,111.5,144.1z"/>
	<path style="fill:#324A5E;" d="M284.1,321.2l-10.6,12.2l73.8,73.8c1.7-1.5,3.3-2.9,4.9-4.5l0.8-0.8c2.7-2.7,5.3-5.5,7.8-8.3
		c8.5-9.7,8.1-24.4-1-33.5l-40-40C309.8,309.9,293.4,310.5,284.1,321.2z"/>
</g>
<g>
	<path style="fill:#FFFFFF;" d="M264.6,214.1c2.1-3,3.2-5.9,3.2-8.7s-0.9-5.1-2.8-7c-1.8-1.9-4.2-2.8-7.1-2.8
		c-5.3,0-10.3,3.8-15,11.3l-15-8.9c3.9-6.1,8.2-10.7,12.9-13.8s10.7-4.7,17.9-4.7c7.2,0,13.6,2.3,19.1,6.9
		c5.5,4.6,8.2,10.9,8.2,18.8c0,4.3-1.1,8.5-3.3,12.4c-2.2,4-6.3,9-12.2,15.2l-15.1,15.7h33.2v16.8h-59.2v-13.9l24.6-25.2
		C258.9,221.2,262.5,217.2,264.6,214.1z"/>
	<path style="fill:#FFFFFF;" d="M343.7,229.1v-14.7h18v14.7h9.5v16.2h-9.5v20.1h-18v-20.1h-33.8V231l29.9-49.6h20.4l-28.5,47.7
		L343.7,229.1L343.7,229.1z"/>
</g>
<g>
</g>
<g>
</g>
<g>
</g>
<g>
</g>
<g>
</g>
<g>
</g>
<g>
</g>
<g>
</g>
<g>
</g>
<g>
</g>
<g>
</g>
<g>
</g>
<g>
</g>
<g>
</g>
<g>
</g>
</svg>
