<?xml version="1.0" encoding="iso-8859-1"?>
<!-- Generator: Adobe Illustrator 19.0.0, SVG Export Plug-In . SVG Version: 6.00 Build 0)  -->
<svg version="1.1" id="Layer_1" xmlns="http://www.w3.org/2000/svg" xmlns:xlink="http://www.w3.org/1999/xlink" x="0px" y="0px"
	 viewBox="0 0 505 505" style="enable-background:new 0 0 505 505;" xml:space="preserve">
<circle style="fill:#FD8469;" cx="252.5" cy="252.5" r="252.5"/>
<circle style="fill:#324A5E;" cx="252.5" cy="196.5" r="33.6"/>
<path style="fill:#2B3B4E;" d="M333.7,449c-0.3-1.6-0.6-3.1-1.1-4.6c-0.1-0.3-0.4-0.7-0.6-1.1c-1.6-2.3-3.1-4.8-4.8-7.1
	c-3.5-4.8-7.2-9.4-9.9-14.7c-0.2-0.3-0.2-0.7-0.4-1l-55.3-47.8l31.7-27.3c-0.1-0.6-0.3-1.2-0.4-1.7c-0.2-0.7-0.5-1.3-0.7-2
	c-0.2-0.4-0.4-0.8-0.6-1.2c-1.9-1.3-3.6-3-5-4.9l-34,29.4l-35.3-30.5c-1.4,3.7-3.1,7.3-4.8,10.9c-0.1,0.1-0.1,0.3-0.2,0.4l31.3,27
	l-64.4,55.6c-0.1,0.1-0.1,0.3-0.1,0.4c-3,7.4-6.1,13.8-8.8,20.4c0.2,0,0.4,0.1,0.7,0.1c1.4,0,2.7-0.5,3.9-1.4l77.6-67.4l77.8,67.2
	C331.3,448.6,332.5,449,333.7,449C333.7,449.1,333.7,449.1,333.7,449z"/>
<path style="fill:#324A5E;" d="M235.4,250l-88.9,231.7c4.2,2,8.5,3.8,12.9,5.5l93.1-207.6c0,0,60.4,133.3,94.1,207.2
	c3.6-1.4,7.1-2.9,10.6-4.5C331.3,413,285.5,290.7,269.7,250L235.4,250L235.4,250z"/>
<g>
	<path style="fill:#FFFFFF;" d="M208.4,140.8c-3.2-3.2-8.5-3.2-11.7,0c-14.9,14.9-23.1,34.7-23.1,55.8s8.2,40.9,23.1,55.8
		c1.6,1.6,3.7,2.4,5.8,2.4s4.2-0.8,5.8-2.4c3.2-3.2,3.2-8.5,0-11.7c-24.3-24.3-24.3-63.8,0-88.2C211.6,149.2,211.6,144,208.4,140.8z
		"/>
	<path style="fill:#FFFFFF;" d="M308.2,140.8c-3.2-3.2-8.5-3.2-11.7,0s-3.2,8.5,0,11.7c24.3,24.3,24.3,63.8,0,88.2
		c-3.2,3.2-3.2,8.5,0,11.7c1.6,1.6,3.7,2.4,5.8,2.4c2.1,0,4.2-0.8,5.8-2.4c14.9-14.9,23.1-34.7,23.1-55.8
		C331.3,175.5,323.1,155.7,308.2,140.8z"/>
	<path style="fill:#FFFFFF;" d="M182.3,126.4c3.2-3.2,3.2-8.5,0-11.7s-8.5-3.2-11.7,0c-45.1,45.1-45.1,118.6,0,163.7
		c1.6,1.6,3.7,2.4,5.8,2.4s4.2-0.8,5.8-2.4c3.2-3.2,3.2-8.5,0-11.7C143.6,228,143.6,165.1,182.3,126.4z"/>
	<path style="fill:#FFFFFF;" d="M334.3,114.7c-3.2-3.2-8.5-3.2-11.7,0s-3.2,8.5,0,11.7c18.7,18.7,29.1,43.7,29.1,70.2
		s-10.3,51.4-29.1,70.2c-3.2,3.2-3.2,8.5,0,11.7c1.6,1.6,3.7,2.4,5.8,2.4c2.1,0,4.2-0.8,5.8-2.4c21.9-21.9,33.9-50.9,33.9-81.8
		C368.2,165.6,356.2,136.6,334.3,114.7z"/>
	<path style="fill:#FFFFFF;" d="M156.3,100.4c3.2-3.2,3.2-8.5,0-11.7s-8.5-3.2-11.7,0c-59.5,59.5-59.5,156.3,0,215.7
		c1.6,1.6,3.7,2.4,5.8,2.4s4.2-0.8,5.8-2.4c3.2-3.2,3.2-8.5,0-11.7C103.2,239.7,103.2,153.4,156.3,100.4z"/>
	<path style="fill:#FFFFFF;" d="M360.3,88.7c-3.2-3.2-8.5-3.2-11.7,0s-3.2,8.5,0,11.7c25.7,25.7,39.8,59.9,39.8,96.2
		s-14.1,70.5-39.8,96.2c-3.2,3.2-3.2,8.5,0,11.7c1.6,1.6,3.7,2.4,5.8,2.4s4.2-0.8,5.8-2.4c28.8-28.8,44.7-67.1,44.7-107.9
		C405,155.8,389.1,117.5,360.3,88.7z"/>
</g>
<g>
</g>
<g>
</g>
<g>
</g>
<g>
</g>
<g>
</g>
<g>
</g>
<g>
</g>
<g>
</g>
<g>
</g>
<g>
</g>
<g>
</g>
<g>
</g>
<g>
</g>
<g>
</g>
<g>
</g>
</svg>
