<?xml version="1.0" encoding="iso-8859-1"?>
<!-- Generator: Adobe Illustrator 19.0.0, SVG Export Plug-In . SVG Version: 6.00 Build 0)  -->
<svg version="1.1" id="Layer_1" xmlns="http://www.w3.org/2000/svg" xmlns:xlink="http://www.w3.org/1999/xlink" x="0px" y="0px"
	 viewBox="0 0 505 505" style="enable-background:new 0 0 505 505;" xml:space="preserve">
<circle style="fill:#90DFAA;" cx="252.5" cy="252.5" r="252.5"/>
<polygon style="fill:#324A5E;" points="309.3,355.8 195.7,355.8 181.5,400 323.5,400 "/>
<g>
	<path style="fill:#E6E9EE;" d="M336.4,395.3H168.6c-0.7,0-1.3,0.6-1.3,1.3v20.2c0,0.7,0.6,1.3,1.3,1.3h167.8c0.7,0,1.3-0.6,1.3-1.3
		v-20.2C337.7,395.9,337.1,395.3,336.4,395.3z"/>
	<path style="fill:#E6E9EE;" d="M404.4,362.8H100.6c-8.3,0-15.1-6.8-15.1-15.1V140c0-8.3,6.8-15.1,15.1-15.1h303.9
		c8.3,0,15.1,6.8,15.1,15.1v207.7C419.5,356,412.8,362.8,404.4,362.8z"/>
</g>
<path style="fill:#324A5E;" d="M419.5,314.3v-180c0-5.2-4.2-9.4-9.4-9.4H94.9c-5.2,0-9.4,4.2-9.4,9.4v180H419.5z"/>
<rect x="111.6" y="151.1" style="fill:#FF7058;" width="281.8" height="136.1"/>
<circle style="fill:#ACB3BA;" cx="252.5" cy="336.6" r="12.6"/>
<path style="fill:#FFFFFF;" d="M186,217.2c0-25.7,29.8-46.5,66.5-46.5s66.5,20.8,66.5,46.5c0,23-23.8,42-55.1,45.8
	c-2.6,4.9-5.6,9.3-9.1,13.3c-8.4,9.7-23.7,1.2-20.9-11.3c0.2-1,0.4-2,0.6-3C206.5,256.4,186,238.5,186,217.2z"/>
<g>
	<circle style="fill:#324A5E;" cx="285.8" cy="217.8" r="10"/>
	<circle style="fill:#324A5E;" cx="252.5" cy="217.8" r="10"/>
	<circle style="fill:#324A5E;" cx="219.2" cy="217.8" r="10"/>
</g>
<g>
</g>
<g>
</g>
<g>
</g>
<g>
</g>
<g>
</g>
<g>
</g>
<g>
</g>
<g>
</g>
<g>
</g>
<g>
</g>
<g>
</g>
<g>
</g>
<g>
</g>
<g>
</g>
<g>
</g>
</svg>
