<?xml version="1.0" encoding="iso-8859-1"?>
<!-- Generator: Adobe Illustrator 19.0.0, SVG Export Plug-In . SVG Version: 6.00 Build 0)  -->
<svg version="1.1" id="Layer_1" xmlns="http://www.w3.org/2000/svg" xmlns:xlink="http://www.w3.org/1999/xlink" x="0px" y="0px"
	 viewBox="0 0 505 505" style="enable-background:new 0 0 505 505;" xml:space="preserve">
<circle style="fill:#90DFAA;" cx="252.5" cy="252.5" r="252.5"/>
<path style="fill:#324A5E;" d="M416.1,381L416.1,381L416.1,381l-0.2-9.4c-8.3,0.2-15.6-1.5-22-4.3l-14.4-8.8
	c-10.9-8.9-16.6-19.1-17-19.9l-8.2,4.4l0,0l0,0l0,0l-8.3,4.4c0.9,1.8,23.4,42.9,68.5,42.9c0.6,0,1.3,0,1.9,0L416.1,381z"/>
<circle style="fill:#FFFFFF;" cx="243.2" cy="243.2" r="174.2"/>
<g>
	<circle style="fill:#90DFAA;" cx="243.2" cy="159.3" r="44.7"/>
	<circle style="fill:#90DFAA;" cx="243.2" cy="327.1" r="44.7"/>
	<circle style="fill:#90DFAA;" cx="327.1" cy="243.2" r="44.7"/>
	<circle style="fill:#90DFAA;" cx="159.3" cy="243.2" r="44.7"/>
</g>
<g>
	<path style="fill:#324A5E;" d="M203.9,243.2c0,23.3-17.8,42.4-40.6,44.5c-7.4-13.2-11.6-28.4-11.6-44.5s4.2-31.3,11.6-44.5
		C186.1,200.8,203.9,219.9,203.9,243.2z"/>
	<path style="fill:#324A5E;" d="M287.6,323c-13.2,7.4-28.3,11.6-44.5,11.6c-16.1,0-31.3-4.2-44.4-11.6c2-22.8,21.2-40.6,44.4-40.6
		C266.5,282.4,285.6,300.2,287.6,323z"/>
	<path style="fill:#324A5E;" d="M198.7,163.3c13.2-7.4,28.3-11.6,44.4-11.6c16.2,0,31.3,4.2,44.5,11.6c-2,22.8-21.2,40.6-44.5,40.6
		C219.9,204,200.7,186.1,198.7,163.3z"/>
	<path style="fill:#324A5E;" d="M334.6,243.2c0,16.1-4.2,31.3-11.6,44.5c-22.8-2-40.6-21.2-40.6-44.5s17.8-42.4,40.6-44.5
		C330.4,211.9,334.6,227.1,334.6,243.2z"/>
</g>
<g>
</g>
<g>
</g>
<g>
</g>
<g>
</g>
<g>
</g>
<g>
</g>
<g>
</g>
<g>
</g>
<g>
</g>
<g>
</g>
<g>
</g>
<g>
</g>
<g>
</g>
<g>
</g>
<g>
</g>
</svg>
