<?xml version="1.0" encoding="iso-8859-1"?>
<!-- Generator: Adobe Illustrator 19.0.0, SVG Export Plug-In . SVG Version: 6.00 Build 0)  -->
<svg version="1.1" id="Layer_1" xmlns="http://www.w3.org/2000/svg" xmlns:xlink="http://www.w3.org/1999/xlink" x="0px" y="0px"
	 viewBox="0 0 505 505" style="enable-background:new 0 0 505 505;" xml:space="preserve">
<circle style="fill:#FFD05B;" cx="252.5" cy="252.5" r="252.5"/>
<path style="fill:#324A5E;" d="M387.9,225.3H256.2v-50.9h-15.8v50.9H108.7c-4.4,0-7.9,3.5-7.9,7.9v53.4h15.8v-45.5h123.8v45.5h15.8
	v-45.5H380v45.5h15.8v-53.4C395.8,228.8,392.3,225.3,387.9,225.3z"/>
<g>
	<path style="fill:#FFFFFF;" d="M305.7,189.7H190.9c-1.9,0-3.5-1.6-3.5-3.5V71.4c0-1.9,1.6-3.5,3.5-3.5h114.8c1.9,0,3.5,1.6,3.5,3.5
		v114.8C309.2,188.2,307.7,189.7,305.7,189.7z"/>
	<path style="fill:#FFFFFF;" d="M293.6,372.1h-90.5c-1.5,0-2.8-1.2-2.8-2.8v-90.5c0-1.5,1.2-2.8,2.8-2.8h90.5c1.5,0,2.8,1.2,2.8,2.8
		v90.5C296.3,370.9,295.1,372.1,293.6,372.1z"/>
</g>
<g>
	<rect x="215.6" y="96.1" style="fill:#FF7058;" width="65.4" height="65.4"/>
	<rect x="221.4" y="297.2" style="fill:#FF7058;" width="53.8" height="53.8"/>
</g>
<g>
	<path style="fill:#FFFFFF;" d="M433.2,372.1h-90.5c-1.5,0-2.8-1.2-2.8-2.8v-90.5c0-1.5,1.2-2.8,2.8-2.8h90.5c1.5,0,2.8,1.2,2.8,2.8
		v90.5C435.9,370.9,434.7,372.1,433.2,372.1z"/>
	<path style="fill:#FFFFFF;" d="M154,372.1H63.5c-1.5,0-2.8-1.2-2.8-2.8v-90.5c0-1.5,1.2-2.8,2.8-2.8H154c1.5,0,2.8,1.2,2.8,2.8
		v90.5C156.7,370.9,155.5,372.1,154,372.1z"/>
</g>
<g>
	<rect x="361" y="297.2" style="fill:#FF7058;" width="53.8" height="53.8"/>
	<rect x="81.8" y="297.2" style="fill:#FF7058;" width="53.8" height="53.8"/>
</g>
<g>
</g>
<g>
</g>
<g>
</g>
<g>
</g>
<g>
</g>
<g>
</g>
<g>
</g>
<g>
</g>
<g>
</g>
<g>
</g>
<g>
</g>
<g>
</g>
<g>
</g>
<g>
</g>
<g>
</g>
</svg>
