<?xml version="1.0" encoding="iso-8859-1"?>
<!-- Generator: Adobe Illustrator 19.0.0, SVG Export Plug-In . SVG Version: 6.00 Build 0)  -->
<svg version="1.1" id="Layer_1" xmlns="http://www.w3.org/2000/svg" xmlns:xlink="http://www.w3.org/1999/xlink" x="0px" y="0px"
	 viewBox="0 0 505 505" style="enable-background:new 0 0 505 505;" xml:space="preserve">
<circle style="fill:#324A5E;" cx="252.5" cy="252.5" r="252.5"/>
<path style="fill:#FFFFFF;" d="M389.3,391.9H124.7c-3.9,0-7-3.1-7-7V120.2c0-3.9,3.1-7,7-7h264.7c3.9,0,7,3.1,7,7v264.7
	C396.4,388.7,393.2,391.9,389.3,391.9z"/>
<path style="fill:#4CDBC4;" d="M257,145.1c-59.2,0-107.4,48.2-107.4,107.4S197.8,359.9,257,359.9s107.4-48.2,107.4-107.4
	S316.2,145.1,257,145.1z M261.8,222.5c14-0.5,27.6-3.5,40.4-8.6c2.4,10.5,3.8,21.9,4.1,33.8h-44.5V222.5z M261.8,212.8v-57.6
	c16,3.2,30.1,22.5,37.9,49.3C287.8,209.4,275,212.3,261.8,212.8z M252.2,155.2v57.6c-13.2-0.6-26-3.4-37.9-8.4
	C222.1,177.7,236.1,158.4,252.2,155.2z M252.2,222.5v25.2h-44.5c0.3-11.9,1.8-23.3,4.1-33.8C224.6,219,238.2,221.9,252.2,222.5z
	 M198.1,247.7h-38.7c1-20.1,8.1-38.6,19.4-53.8c7.4,6.3,15.4,11.6,23.9,15.8C200,221.4,198.4,234.2,198.1,247.7z M198.1,257.3
	c0.3,13.4,1.9,26.2,4.6,37.8c-8.5,4.3-16.6,9.6-24,15.8c-11.3-15.1-18.3-33.6-19.3-53.6L198.1,257.3L198.1,257.3z M207.7,257.3h44.5
	v25.2c-14,0.5-27.6,3.4-40.4,8.5C209.5,280.5,208,269.2,207.7,257.3z M252.2,292.1v57.7c-16.1-3.3-30.1-22.5-38-49.3
	C226.2,295.5,239,292.7,252.2,292.1z M261.8,349.8v-57.6c13.2,0.6,26,3.5,37.9,8.5C291.9,327.4,277.8,346.6,261.8,349.8z
	 M261.8,282.5v-25.2h44.5c-0.3,11.9-1.8,23.3-4.1,33.9C289.4,286,275.8,283.1,261.8,282.5z M315.9,257.3h38.7
	c-1,20.1-8.1,38.7-19.5,53.9c-7.4-6.3-15.4-11.6-23.9-15.9C314,283.7,315.6,270.8,315.9,257.3z M315.9,247.7
	c-0.3-13.5-1.9-26.3-4.6-37.9c8.5-4.3,16.6-9.6,24-15.8c11.4,15.1,18.4,33.7,19.4,53.7L315.9,247.7L315.9,247.7z M329.1,186.5
	c-6.3,5.3-13.1,9.9-20.3,13.7c-5.1-17.1-12.7-31.2-22-40.9C303.2,164.6,317.7,174.1,329.1,186.5z M227.2,159.4
	c-9.2,9.7-16.8,23.8-22,40.9c-7.2-3.8-14-8.4-20.3-13.7C196.3,174.1,210.8,164.6,227.2,159.4z M184.8,318.4
	c6.3-5.4,13.2-9.9,20.4-13.7c5.1,17.1,12.7,31.3,22,41C210.7,340.4,196.2,330.8,184.8,318.4z M286.8,345.6
	c9.2-9.7,16.8-23.7,21.9-40.8c7.2,3.8,14,8.4,20.3,13.7C317.7,331,303.2,340.4,286.8,345.6z"/>
<g>
</g>
<g>
</g>
<g>
</g>
<g>
</g>
<g>
</g>
<g>
</g>
<g>
</g>
<g>
</g>
<g>
</g>
<g>
</g>
<g>
</g>
<g>
</g>
<g>
</g>
<g>
</g>
<g>
</g>
</svg>
