<?xml version="1.0" encoding="iso-8859-1"?>
<!-- Generator: Adobe Illustrator 19.0.0, SVG Export Plug-In . SVG Version: 6.00 Build 0)  -->
<svg version="1.1" id="Layer_1" xmlns="http://www.w3.org/2000/svg" xmlns:xlink="http://www.w3.org/1999/xlink" x="0px" y="0px"
	 viewBox="0 0 505 505" style="enable-background:new 0 0 505 505;" xml:space="preserve">
<circle style="fill:#FD8469;" cx="252.5" cy="252.5" r="252.5"/>
<path style="fill:#E6E9EE;" d="M384.8,247.9H120.2c-1.9,0-3.4-1.5-3.4-3.4V97.2c0-1.9,1.5-3.4,3.4-3.4h264.7c1.9,0,3.4,1.5,3.4,3.4
	v147.4C388.2,246.4,386.7,247.9,384.8,247.9z"/>
<rect x="132" y="109" style="fill:#54C0EB;" width="241" height="123.7"/>
<path style="fill:#CED5E0;" d="M384.8,411.2H120.2c-1.9,0-3.4-1.5-3.4-3.4V260.4c0-1.9,1.5-3.4,3.4-3.4h264.7c1.9,0,3.4,1.5,3.4,3.4
	v147.4C388.2,409.7,386.7,411.2,384.8,411.2z"/>
<g>
	<rect x="133.7" y="274.5" style="fill:#324A5E;" width="55.4" height="19.6"/>
	<rect x="205.3" y="274.5" style="fill:#324A5E;" width="19.6" height="19.6"/>
	<rect x="241" y="274.5" style="fill:#324A5E;" width="19.6" height="19.6"/>
	<rect x="276.8" y="274.5" style="fill:#324A5E;" width="19.6" height="19.6"/>
	<rect x="312.6" y="274.5" style="fill:#324A5E;" width="19.6" height="19.6"/>
	<rect x="348.4" y="274.5" style="fill:#324A5E;" width="19.6" height="19.6"/>
	<rect x="133.7" y="306" style="fill:#324A5E;" width="19.6" height="19.6"/>
	<rect x="169.5" y="306" style="fill:#324A5E;" width="19.6" height="19.6"/>
	<rect x="205.3" y="306" style="fill:#324A5E;" width="19.6" height="19.6"/>
	<rect x="241" y="306" style="fill:#324A5E;" width="19.6" height="19.6"/>
	<rect x="276.8" y="306" style="fill:#324A5E;" width="55.4" height="19.6"/>
	<rect x="348.4" y="306" style="fill:#324A5E;" width="19.6" height="19.6"/>
	<rect x="133.7" y="337.5" style="fill:#324A5E;" width="19.6" height="19.6"/>
	<rect x="169.5" y="337.5" style="fill:#324A5E;" width="91.2" height="19.6"/>
</g>
<rect x="223.6" y="368.3" style="fill:#ACB3BA;" width="57.9" height="28.8"/>
<g>
	<rect x="276.8" y="337.5" style="fill:#324A5E;" width="19.6" height="19.6"/>
	<rect x="312.6" y="337.5" style="fill:#324A5E;" width="19.6" height="19.6"/>
	<rect x="348.4" y="337.5" style="fill:#324A5E;" width="19.6" height="19.6"/>
</g>
<path style="fill:#FFFFFF;" d="M252.5,128.9c-23.5,0-42.7,19.2-42.7,42.7s19.2,42.7,42.7,42.7s42.7-19.2,42.7-42.7
	S276,128.9,252.5,128.9z M215,174.2h13.9c0.2,6.4,1.2,12.5,2.7,17.8h-10.8C217.5,186.7,215.4,180.7,215,174.2z M255,146.3v-11.9
	c4.3,1.2,8.2,5.6,11.1,11.9H255z M268,151.3c1.7,5.2,2.8,11.3,3,17.8h-16v-17.8H268z M250,134.4v11.9h-11.1
	C241.8,140,245.7,135.6,250,134.4z M250,151.3v17.8h-16c0.2-6.5,1.3-12.5,3-17.8H250z M228.9,169.1H215c0.4-6.5,2.5-12.6,5.9-17.8
	h10.8C230.1,156.6,229.1,162.7,228.9,169.1z M234,174.2h16V192h-13C235.3,186.7,234.2,180.6,234,174.2z M250,197v11.9
	c-4.3-1.2-8.2-5.6-11.1-11.9H250z M255,208.9V197h11.1C263.2,203.3,259.3,207.6,255,208.9z M255,191.9v-17.8h16
	c-0.2,6.5-1.3,12.5-3,17.8H255z M276.1,174.2H290c-0.4,6.5-2.5,12.6-5.9,17.8h-10.8C274.9,186.6,275.9,180.6,276.1,174.2z
	 M276.1,169.1c-0.2-6.4-1.2-12.5-2.7-17.8h10.8c3.3,5.2,5.4,11.3,5.9,17.8H276.1z M280.3,146.3h-8.7c-1.5-3.8-3.4-7-5.5-9.7
	C271.6,138.7,276.4,142,280.3,146.3z M238.9,136.6c-2.1,2.7-4,5.9-5.5,9.7h-8.7C228.6,142,233.4,138.7,238.9,136.6z M224.7,197h8.7
	c1.5,3.8,3.4,7,5.5,9.7C233.4,204.6,228.6,201.2,224.7,197z M266.1,206.7c2.1-2.7,4-5.9,5.5-9.7h8.7
	C276.4,201.2,271.6,204.6,266.1,206.7z"/>
<g>
</g>
<g>
</g>
<g>
</g>
<g>
</g>
<g>
</g>
<g>
</g>
<g>
</g>
<g>
</g>
<g>
</g>
<g>
</g>
<g>
</g>
<g>
</g>
<g>
</g>
<g>
</g>
<g>
</g>
</svg>
