<?xml version="1.0" encoding="iso-8859-1"?>
<!-- Generator: Adobe Illustrator 19.0.0, SVG Export Plug-In . SVG Version: 6.00 Build 0)  -->
<svg version="1.1" id="Layer_1" xmlns="http://www.w3.org/2000/svg" xmlns:xlink="http://www.w3.org/1999/xlink" x="0px" y="0px"
	 viewBox="0 0 505 505" style="enable-background:new 0 0 505 505;" xml:space="preserve">
<circle style="fill:#FFD05B;" cx="252.5" cy="252.5" r="252.5"/>
<path style="fill:#FFFFFF;" d="M424.8,365.8H80.3c-3,0-5.4-2.4-5.4-5.4V144.6c0-3,2.4-5.4,5.4-5.4h344.5c3,0,5.4,2.4,5.4,5.4v215.7
	C430.2,363.3,427.8,365.8,424.8,365.8z"/>
<path style="fill:#4CDBC4;" d="M102.2,139.2l-27.4,55v-33.5c0-0.4,0-0.8,0.1-1.1l0,0l7.6-15.3c3.7-3.2,8.5-5,13.8-5h5.9V139.2z"/>
<polygon style="fill:#FF7058;" points="141.2,139.2 74.8,272.6 74.8,238.1 124.1,139.2 "/>
<path style="fill:#4CDBC4;" d="M179.7,139.2L75.3,348.8c-0.3-1.5-0.5-2.9-0.5-4.5v-29l87.7-176.1H179.7z"/>
<path style="fill:#FF7058;" d="M218.7,139.2L105.9,365.8h-9.6c-2.5,0-4.8-0.4-7-1.2l112.2-225.4H218.7z"/>
<polygon style="fill:#4CDBC4;" points="258.9,139.2 146.1,365.8 128.9,365.8 241.8,139.2 "/>
<polygon style="fill:#FF7058;" points="298,139.2 185.2,365.8 168,365.8 280.8,139.2 "/>
<polygon style="fill:#4CDBC4;" points="337,139.2 224.2,365.8 207,365.8 319.8,139.2 "/>
<polygon style="fill:#FF7058;" points="376.1,139.2 263.3,365.8 246,365.8 358.9,139.2 "/>
<path style="fill:#4CDBC4;" d="M415.7,140.4L303.5,365.8h-17.2l112.8-226.6h9.6C411.2,139.2,413.6,139.6,415.7,140.4z"/>
<path style="fill:#FF7058;" d="M430.2,160.7v29.1l-87.7,176.1h-17.2l104.4-209.6C430,157.6,430.2,159.1,430.2,160.7z"/>
<polygon style="fill:#4CDBC4;" points="430.2,232.4 430.2,266.9 381,365.8 363.8,365.8 "/>
<path style="fill:#FF7058;" d="M430.2,310.8v33.5c0,0.4,0,0.7,0,1.1l-7.6,15.2c-3.7,3.2-8.6,5.1-13.9,5.1h-5.9L430.2,310.8z"/>
<rect x="94.2" y="157.1" style="fill:#FFFFFF;" width="316.6" height="190.9"/>
<g>
	<rect x="329.3" y="175.1" style="fill:#E6E9EE;" width="62.4" height="73.4"/>
	<rect x="115.4" y="259.5" style="fill:#E6E9EE;" width="149.4" height="11"/>
	<rect x="115.4" y="286.4" style="fill:#E6E9EE;" width="149.4" height="11"/>
	<rect x="115.4" y="313.3" style="fill:#E6E9EE;" width="94.2" height="11"/>
</g>
<g>
</g>
<g>
</g>
<g>
</g>
<g>
</g>
<g>
</g>
<g>
</g>
<g>
</g>
<g>
</g>
<g>
</g>
<g>
</g>
<g>
</g>
<g>
</g>
<g>
</g>
<g>
</g>
<g>
</g>
</svg>
