<?xml version="1.0" encoding="iso-8859-1"?>
<!-- Generator: Adobe Illustrator 19.0.0, SVG Export Plug-In . SVG Version: 6.00 Build 0)  -->
<svg version="1.1" id="Layer_1" xmlns="http://www.w3.org/2000/svg" xmlns:xlink="http://www.w3.org/1999/xlink" x="0px" y="0px"
	 viewBox="0 0 505 505" style="enable-background:new 0 0 505 505;" xml:space="preserve">
<circle style="fill:#FFD05B;" cx="252.5" cy="252.5" r="252.5"/>
<g>
	<path style="fill:#2B3B4E;" d="M390.3,225.5L372,243.8c-30.6,30.6-80.3,30.6-110.8,0c-30.6-30.6-30.6-80.3,0-110.8l18.3-18.3
		c30.5-30.5,80.3-30.5,110.8,0C420.8,145.3,420.8,195,390.3,225.5z M290.4,162.2c-14.4,14.4-14.4,37.9,0,52.4
		c14.4,14.4,37.9,14.4,52.4,0l18.3-18.3c14.4-14.4,14.4-37.9,0-52.4c-14.4-14.4-37.9-14.4-52.4,0L290.4,162.2z"/>
	<path style="fill:#2B3B4E;" d="M243.8,372l-18.3,18.3c-30.5,30.5-80.3,30.5-110.8,0c-30.6-30.6-30.6-80.3,0-110.8l18.3-18.3
		c30.6-30.6,80.3-30.6,110.8,0C274.4,291.7,274.4,341.5,243.8,372z M143.9,308.7c-14.4,14.4-14.4,37.9,0,52.4
		c14.4,14.4,37.9,14.4,52.4,0l18.3-18.3c14.4-14.4,14.4-37.9,0-52.4c-14.4-14.4-37.9-14.4-52.4,0L143.9,308.7z"/>
</g>
<path style="fill:#FF7058;" d="M327.8,206.4L206.4,327.8c-8.1,8.1-21.1,8.1-29.2,0s-8.1-21.1,0-29.2l121.4-121.4
	c8.1-8.1,21.1-8.1,29.2,0C335.9,185.3,335.9,198.3,327.8,206.4z"/>
<g>
</g>
<g>
</g>
<g>
</g>
<g>
</g>
<g>
</g>
<g>
</g>
<g>
</g>
<g>
</g>
<g>
</g>
<g>
</g>
<g>
</g>
<g>
</g>
<g>
</g>
<g>
</g>
<g>
</g>
</svg>
