<?xml version="1.0" encoding="iso-8859-1"?>
<!-- Generator: Adobe Illustrator 19.0.0, SVG Export Plug-In . SVG Version: 6.00 Build 0)  -->
<svg version="1.1" id="Layer_1" xmlns="http://www.w3.org/2000/svg" xmlns:xlink="http://www.w3.org/1999/xlink" x="0px" y="0px"
	 viewBox="0 0 505 505" style="enable-background:new 0 0 505 505;" xml:space="preserve">
<circle style="fill:#324A5E;" cx="252.5" cy="252.5" r="252.5"/>
<path style="fill:#FFFFFF;" d="M409.9,389.7c-104.9-71.4-209.8,71.4-314.8,0c0-91.5,0-183,0-274.4c104.9,71.4,209.8-71.4,314.8,0
	C409.9,206.8,409.9,298.2,409.9,389.7z"/>
<path style="fill:#54C0EB;" d="M123.2,379.5c0-75.2,0-150.3,0-225.5c86.2,30.1,172.4-58.6,258.6-28.6c0,75.2,0,150.3,0,225.5
	C295.6,320.9,209.4,409.6,123.2,379.5z"/>
<path style="fill:#E6E9EE;" d="M381.8,273.6c0-7.7,0-15.5,0-23.2c-29.3-32.5-58.7-51.2-88-65.6c13.8-23.1,27.7-45.3,41.5-65.5
	c-7.9,0.5-15.7,1.5-23.6,3.1c-11.1,17.7-22.1,36.3-33.2,55.2c-20.4-9.1-40.9-16.9-61.3-26.5c-10.2,2.9-20.3,5.4-30.5,7.1
	c27,16.2,54.1,26.4,81.1,38c-11.8,20.5-23.7,41.2-35.5,61.7c-16.5-11.6-33-23.9-49.5-38.5c-19.9,11.1-39.8,18.9-59.6,20.3
	c0,6.5,0,12.9,0,19.4c18.1-1.3,36.3-7.8,54.4-17.4c14.5,13.3,29.1,24.7,43.6,35.2c-9.7,16.4-19.3,32.5-29,47.8
	c-23-15.7-46-35.3-69.1-63.4c0,8.2,0,16.5,0,24.7c19.4,23.7,38.8,41.3,58.2,55.7c-10.2,15.6-20.3,30.3-30.5,43.7
	c7.9,0.7,15.7,0.6,23.6-0.1c20.1-30,40.2-63.9,60.4-98.7c27.5,19.2,54.9,36.8,82.4,60.4c8.8-1.5,17.5-2.3,26.3-2.3
	c-32.5-33.4-65.1-55-97.6-77.4c12.4-21.6,24.8-43.2,37.2-64.3C316,218,348.9,237.2,381.8,273.6z"/>
<path style="fill:#FF7058;" d="M329.6,232.7c0,34.9-63.3,112.8-63.3,112.8S203,267.7,203,232.7c0-34.9,28.3-63.3,63.3-63.3
	S329.6,197.7,329.6,232.7z"/>
<circle style="fill:#FFFFFF;" cx="266.3" cy="230.5" r="30.8"/>
<g>
</g>
<g>
</g>
<g>
</g>
<g>
</g>
<g>
</g>
<g>
</g>
<g>
</g>
<g>
</g>
<g>
</g>
<g>
</g>
<g>
</g>
<g>
</g>
<g>
</g>
<g>
</g>
<g>
</g>
</svg>
