<?xml version="1.0" encoding="iso-8859-1"?>
<!-- Generator: Adobe Illustrator 19.0.0, SVG Export Plug-In . SVG Version: 6.00 Build 0)  -->
<svg version="1.1" id="Layer_1" xmlns="http://www.w3.org/2000/svg" xmlns:xlink="http://www.w3.org/1999/xlink" x="0px" y="0px"
	 viewBox="0 0 505 505" style="enable-background:new 0 0 505 505;" xml:space="preserve">
<circle style="fill:#90DFAA;" cx="252.5" cy="252.5" r="252.5"/>
<path style="fill:#324A5E;" d="M125.7,278.8l21.5,106.9c1.1,5.3,5.8,9.2,11.2,9.2h23.7c6.7,0,12-5.8,11.4-12.4l-9.2-103.7H125.7z"/>
<path style="fill:#E6E9EE;" d="M389.5,277.2l-40.3,9.5v-78.8l40.3,9.5c6.2,1.5,10.6,7,10.6,13.3v33.2
	C400.1,270.2,395.7,275.8,389.5,277.2z"/>
<path style="fill:#FFFFFF;" d="M345.6,110.1c-36.7,0-70,14.4-94.6,37.8c-19.9,19-45.7,30.5-73,33.5l-33.2,3.7
	c-31.7,3.5-55.7,30.3-55.7,62.2l0,0c0,31.9,24,58.7,55.7,62.2l33.2,3.7c27.3,3,53.1,14.6,73,33.5c24.6,23.4,57.9,37.8,94.6,37.8
	c0.1,0,0.1,0,0.2,0c10,0,17.9-8.4,17.9-18.3V128.4c0-10-7.9-18.3-17.9-18.3C345.8,110.1,345.7,110.1,345.6,110.1z"/>
<path style="fill:#324A5E;" d="M345.6,110.1c-6.1,0-12,0.4-17.9,1.2v272c5.9,0.8,11.8,1.2,17.9,1.2c0.1,0,0.1,0,0.2,0
	c10,0,17.9-8.4,17.9-18.3V128.4c0-10-7.9-18.3-17.9-18.3C345.8,110.1,345.7,110.1,345.6,110.1z"/>
<g>
</g>
<g>
</g>
<g>
</g>
<g>
</g>
<g>
</g>
<g>
</g>
<g>
</g>
<g>
</g>
<g>
</g>
<g>
</g>
<g>
</g>
<g>
</g>
<g>
</g>
<g>
</g>
<g>
</g>
</svg>
