<?xml version="1.0" encoding="iso-8859-1"?>
<!-- Generator: Adobe Illustrator 19.0.0, SVG Export Plug-In . SVG Version: 6.00 Build 0)  -->
<svg version="1.1" id="Layer_1" xmlns="http://www.w3.org/2000/svg" xmlns:xlink="http://www.w3.org/1999/xlink" x="0px" y="0px"
	 viewBox="0 0 505 505" style="enable-background:new 0 0 505 505;" xml:space="preserve">
<circle style="fill:#90DFAA;" cx="252.5" cy="252.5" r="252.5"/>
<g>
	<polygon style="fill:#FF7058;" points="387.4,405.4 117.6,405.4 117.6,279 129.6,279 129.6,393.4 375.4,393.4 375.4,276.8 
		387.4,276.8 	"/>
	<rect x="246.5" y="275.1" style="fill:#FF7058;" width="12" height="124.3"/>
</g>
<path style="fill:#324A5E;" d="M316.7,299.2H188.3c-1.1,0-2-0.9-2-2V87.6c0-1.1,0.9-2,2-2h128.5c1.1,0,2,0.9,2,2v209.6
	C318.7,298.3,317.8,299.2,316.7,299.2z"/>
<g>
	<rect x="206.6" y="203.6" style="fill:#2B3B4E;" width="91.9" height="10.3"/>
	<rect x="206.6" y="224.2" style="fill:#2B3B4E;" width="91.9" height="10.3"/>
	<rect x="206.6" y="244.9" style="fill:#2B3B4E;" width="91.9" height="10.3"/>
	<rect x="206.6" y="265.5" style="fill:#2B3B4E;" width="91.9" height="10.3"/>
	<path style="fill:#2B3B4E;" d="M318.7,124.3V93.5c0-4.4-3.6-7.9-7.9-7.9H194.2c-4.4,0-7.9,3.5-7.9,7.9v30.8H318.7z"/>
</g>
<circle style="fill:#4CDBC4;" cx="252.5" cy="149.3" r="10.2"/>
<circle style="fill:#FF7058;" cx="252.5" cy="173.1" r="6.7"/>
<path style="fill:#324A5E;" d="M425.6,304.4h-88.4c-0.8,0-1.4-0.6-1.4-1.4V158.8c0-0.8,0.6-1.4,1.4-1.4h88.4c0.8,0,1.4,0.6,1.4,1.4
	v144.3C427,303.8,426.3,304.4,425.6,304.4z"/>
<g>
	<rect x="349.7" y="238.6" style="fill:#2B3B4E;" width="63.2" height="7.1"/>
	<rect x="349.7" y="252.8" style="fill:#2B3B4E;" width="63.2" height="7.1"/>
	<rect x="349.7" y="267" style="fill:#2B3B4E;" width="63.2" height="7.1"/>
	<rect x="349.7" y="281.3" style="fill:#2B3B4E;" width="63.2" height="7.1"/>
	<path style="fill:#2B3B4E;" d="M427,184v-21.2c0-3-2.4-5.5-5.5-5.5h-80.3c-3,0-5.5,2.4-5.5,5.5V184H427z"/>
</g>
<circle style="fill:#4CDBC4;" cx="381.4" cy="201.3" r="7.1"/>
<circle style="fill:#FF7058;" cx="381.4" cy="217.7" r="4.6"/>
<path style="fill:#324A5E;" d="M167.8,304.4H79.4c-0.8,0-1.4-0.6-1.4-1.4V158.8c0-0.8,0.6-1.4,1.4-1.4h88.4c0.8,0,1.4,0.6,1.4,1.4
	v144.3C169.2,303.8,168.6,304.4,167.8,304.4z"/>
<g>
	<rect x="92" y="238.6" style="fill:#2B3B4E;" width="63.2" height="7.1"/>
	<rect x="92" y="252.8" style="fill:#2B3B4E;" width="63.2" height="7.1"/>
	<rect x="92" y="267" style="fill:#2B3B4E;" width="63.2" height="7.1"/>
	<rect x="92" y="281.3" style="fill:#2B3B4E;" width="63.2" height="7.1"/>
	<path style="fill:#2B3B4E;" d="M169.2,184v-21.2c0-3-2.4-5.5-5.5-5.5H83.5c-3,0-5.5,2.4-5.5,5.5V184H169.2z"/>
</g>
<circle style="fill:#4CDBC4;" cx="123.6" cy="201.3" r="7.1"/>
<circle style="fill:#FF7058;" cx="123.6" cy="217.7" r="4.6"/>
<g>
	<circle style="fill:#E6E9EE;" cx="380.7" cy="398.9" r="20.6"/>
	<circle style="fill:#E6E9EE;" cx="251.6" cy="398.9" r="20.6"/>
	<circle style="fill:#E6E9EE;" cx="123.6" cy="398.9" r="20.6"/>
</g>
<g>
</g>
<g>
</g>
<g>
</g>
<g>
</g>
<g>
</g>
<g>
</g>
<g>
</g>
<g>
</g>
<g>
</g>
<g>
</g>
<g>
</g>
<g>
</g>
<g>
</g>
<g>
</g>
<g>
</g>
</svg>
