<?xml version="1.0" encoding="iso-8859-1"?>
<!-- Generator: Adobe Illustrator 19.0.0, SVG Export Plug-In . SVG Version: 6.00 Build 0)  -->
<svg version="1.1" id="Layer_1" xmlns="http://www.w3.org/2000/svg" xmlns:xlink="http://www.w3.org/1999/xlink" x="0px" y="0px"
	 viewBox="0 0 505 505" style="enable-background:new 0 0 505 505;" xml:space="preserve">
<circle style="fill:#324A5E;" cx="252.5" cy="252.5" r="252.5"/>
<path style="fill:#E6E9EE;" d="M218.7,187.8c-19.4,35.6-65.6,136.1-65.6,136.1c47.6,11.4,99.3,116,99.3,116s51.7-104.6,99.3-116
	c0,0-46.1-100.4-65.6-136.1L218.7,187.8L218.7,187.8z"/>
<circle style="fill:#324A5E;" cx="252.5" cy="313.1" r="20"/>
<path style="fill:#54C0EB;" d="M318.5,8.8l-11,149.9c-0.3,3.7-0.7,7.4-1.4,11c-2,10.6-11.5,18.1-22.3,18.1H221
	c-10.8,0-20.3-7.5-22.3-18.1c-0.7-3.6-1.1-7.3-1.4-11l-11-149.9C207.5,3,229.6,0,252.5,0C275.3,0,297.5,3,318.5,8.8z"/>
<g>
</g>
<g>
</g>
<g>
</g>
<g>
</g>
<g>
</g>
<g>
</g>
<g>
</g>
<g>
</g>
<g>
</g>
<g>
</g>
<g>
</g>
<g>
</g>
<g>
</g>
<g>
</g>
<g>
</g>
</svg>
