<?xml version="1.0" encoding="iso-8859-1"?>
<!-- Generator: Adobe Illustrator 19.0.0, SVG Export Plug-In . SVG Version: 6.00 Build 0)  -->
<svg version="1.1" id="Layer_1" xmlns="http://www.w3.org/2000/svg" xmlns:xlink="http://www.w3.org/1999/xlink" x="0px" y="0px"
	 viewBox="0 0 505 505" style="enable-background:new 0 0 505 505;" xml:space="preserve">
<circle style="fill:#90DFAA;" cx="252.5" cy="252.5" r="252.5"/>
<path style="fill:#FFFFFF;" d="M365.4,130.2v275.1H180.2c-16.9,0-30.6-13.7-30.6-30.6V130.2h-32V99.6h217.2
	C351.7,99.7,365.4,113.3,365.4,130.2z"/>
<g>
	<path style="fill:#E6E9EE;" d="M119.1,99.7c-16.9,0-30.6,13.7-30.6,30.6h61.1C149.7,113.3,136,99.7,119.1,99.7z"/>
	<path style="fill:#E6E9EE;" d="M393.5,374.8c0,16.9-13.7,30.6-30.6,30.6H180.2c16.9,0,30.6-13.7,30.6-30.6H393.5z"/>
</g>
<path style="fill:#324A5E;" d="M358.4,168.1c-20.2,8.2-38.3,17.5-40.2,18.6c9.5-3.1,20.5-7.1,31.9-11c-6.3,5.6-12.5,11.4-18.4,17
	l0,0c-25.8,12-61,34-63.3,36.1c14.8-6.9,33.3-16,50.9-24.2c-9.3,9-17.8,17.6-25.3,24.9c-0.5,0.5-1,1.1-1.6,1.6
	c-23.1,10.6-48,25.8-50.2,27.4c11.9-5.1,26.3-11.6,40.6-17.8c-24.2,24.5-41.7,30.5-75.8,49.8c0.3-44.4,2.5-68.5,40.4-107.5
	c1.2-1.2,2.4-2.3,3.5-3.5c-8.7,18.2-14.6,37.2-16.9,52.2c0.7-2.8,11.8-35.8,28.2-62.5l0,0c19.8-17,46.3-33.3,73.5-43.5
	c-9.3,8.6-17.4,17.6-23.4,25.7c1.6-1.6,15.6-15.7,33.9-29.5c26.3-8.6,52-11.2,70.2-7.9C402.4,130.4,380,148.6,358.4,168.1z"/>
<path style="fill:#ACB3BA;" d="M324.4,159.1c-3.2,1.7-7,4-11.2,6.6c-4.3,2.7-9,5.8-14,9.5c-5,3.6-10.4,7.7-15.8,12.3
	s-11,9.6-16.5,15.1c-5.4,5.5-10.8,11.5-15.9,17.8c-5.2,6.3-10.3,12.8-15.2,19.4c-9.9,13.2-18.9,27.1-26.4,40.7
	c-7.6,13.5-13.8,26.7-18.6,38.2c-9.7,23-13.9,39.4-14,39.3c0.3,0.1,0.6,0.2,1,0.3c0.1,0,5.5-15.9,16.3-38.1
	c5.5-11.1,12.4-23.7,20.5-36.6c8.2-12.9,17.5-26.2,27.7-38.8c5.1-6.2,10.4-12.3,15.9-18.1s10.9-11.3,16.3-16.6
	c5.3-5.3,10.5-10.4,15.5-15.2s9.8-9.3,14.3-13.3c4.5-4.1,8.7-7.8,12.5-11c3.7-3.3,7.1-6.1,9.8-8.4c5.5-4.6,8.6-7.3,8.6-7.3
	c-0.2-0.3-0.4-0.6-0.5-0.8C334.5,153.9,330.7,155.6,324.4,159.1z"/>
<rect x="255.4" y="306.5" style="fill:#2B3B4E;" width="69.2" height="22"/>
<path style="fill:#FF7058;" d="M344.8,405.3H235.1c-1.2,0-2.1-0.9-2.1-2.1V327c0-1.2,0.9-2.1,2.1-2.1h109.6c1.2,0,2.1,0.9,2.1,2.1
	v76.2C346.9,404.4,345.9,405.3,344.8,405.3z"/>
<rect x="248.1" y="342.5" style="fill:#E6E9EE;" width="98.8" height="45.3"/>
<g>
</g>
<g>
</g>
<g>
</g>
<g>
</g>
<g>
</g>
<g>
</g>
<g>
</g>
<g>
</g>
<g>
</g>
<g>
</g>
<g>
</g>
<g>
</g>
<g>
</g>
<g>
</g>
<g>
</g>
</svg>
