<?xml version="1.0" encoding="iso-8859-1"?>
<!-- Generator: Adobe Illustrator 19.0.0, SVG Export Plug-In . SVG Version: 6.00 Build 0)  -->
<svg version="1.1" id="Layer_1" xmlns="http://www.w3.org/2000/svg" xmlns:xlink="http://www.w3.org/1999/xlink" x="0px" y="0px"
	 viewBox="0 0 505 505" style="enable-background:new 0 0 505 505;" xml:space="preserve">
<circle style="fill:#84DBFF;" cx="252.5" cy="252.5" r="252.5"/>
<path style="fill:#E6E9EE;" d="M347.6,65.2c-1.8-3.6-6.2-5.1-9.8-3.2L127.5,168.1c-3.6,1.8-5.1,6.2-3.2,9.8c1.3,2.6,3.9,4,6.5,4
	c1.1,0,2.2-0.3,3.3-0.8L344.4,75C348,73.2,349.4,68.8,347.6,65.2z"/>
<path style="fill:#2B3B4E;" d="M374.9,255.5h40.4c1.2,0,2.2-1,2.2-2.2v-58.7c0-1.2-1-2.2-2.2-2.2h-40.4V255.5z"/>
<path style="fill:#324A5E;" d="M389.1,393.1H91.9c-2.4,0-4.3-1.9-4.3-4.3V169.5c0-2.4,1.9-4.3,4.3-4.3h297.2c2.4,0,4.3,1.9,4.3,4.3
	v219.3C393.3,391.1,391.4,393.1,389.1,393.1z"/>
<path style="fill:#FFFFFF;" d="M366.8,232.9H114.1c-0.7,0-1.2-0.5-1.2-1.2v-40.4c0-0.7,0.5-1.2,1.2-1.2h252.8c0.7,0,1.2,0.5,1.2,1.2
	v40.4C368,232.4,367.5,232.9,366.8,232.9z"/>
<g>
	<rect x="133.6" y="207.4" style="fill:#E6E9EE;" width="9.6" height="25.5"/>
	<rect x="167.8" y="207.4" style="fill:#E6E9EE;" width="9.6" height="25.5"/>
	<rect x="202" y="207.4" style="fill:#E6E9EE;" width="9.6" height="25.5"/>
	<rect x="236.3" y="207.4" style="fill:#E6E9EE;" width="9.6" height="25.5"/>
	<rect x="270.5" y="207.4" style="fill:#E6E9EE;" width="9.6" height="25.5"/>
	<rect x="304.7" y="207.4" style="fill:#E6E9EE;" width="9.6" height="25.5"/>
	<rect x="338.9" y="207.4" style="fill:#E6E9EE;" width="9.6" height="25.5"/>
</g>
<path style="fill:#FF7058;" d="M191.7,210.3l3.5-20.2h-13.9l3.5,20.2c0.3,1.7,1.7,2.9,3.4,2.9l0,0C190,213.2,191.4,212,191.7,210.3z
	"/>
<g>
	<path style="fill:#2B3B4E;" d="M120.3,366.3L120.3,366.3c-4.1,0-7.4-3.3-7.4-7.4v-90.1c0-4.1,3.3-7.4,7.4-7.4l0,0
		c4.1,0,7.4,3.3,7.4,7.4v90.1C127.8,363,124.4,366.3,120.3,366.3z"/>
	<path style="fill:#2B3B4E;" d="M150.7,366.3L150.7,366.3c-4.1,0-7.4-3.3-7.4-7.4v-90.1c0-4.1,3.3-7.4,7.4-7.4l0,0
		c4.1,0,7.4,3.3,7.4,7.4v90.1C158.1,363,154.8,366.3,150.7,366.3z"/>
	<path style="fill:#2B3B4E;" d="M181,366.3L181,366.3c-4.1,0-7.4-3.3-7.4-7.4v-90.1c0-4.1,3.3-7.4,7.4-7.4l0,0
		c4.1,0,7.4,3.3,7.4,7.4v90.1C188.4,363,185.1,366.3,181,366.3z"/>
	<path style="fill:#2B3B4E;" d="M211.3,366.3L211.3,366.3c-4.1,0-7.4-3.3-7.4-7.4v-90.1c0-4.1,3.3-7.4,7.4-7.4l0,0
		c4.1,0,7.4,3.3,7.4,7.4v90.1C218.8,363,215.4,366.3,211.3,366.3z"/>
	<path style="fill:#2B3B4E;" d="M241.7,366.3L241.7,366.3c-4.1,0-7.4-3.3-7.4-7.4v-90.1c0-4.1,3.3-7.4,7.4-7.4l0,0
		c4.1,0,7.4,3.3,7.4,7.4v90.1C249.1,363,245.8,366.3,241.7,366.3z"/>
</g>
<g>
	<circle style="fill:#FFD05B;" cx="344.5" cy="283.4" r="18"/>
	<circle style="fill:#FFD05B;" cx="344.5" cy="344.3" r="18"/>
</g>
<g>
</g>
<g>
</g>
<g>
</g>
<g>
</g>
<g>
</g>
<g>
</g>
<g>
</g>
<g>
</g>
<g>
</g>
<g>
</g>
<g>
</g>
<g>
</g>
<g>
</g>
<g>
</g>
<g>
</g>
</svg>
