<?xml version="1.0" encoding="iso-8859-1"?>
<!-- Generator: Adobe Illustrator 19.0.0, SVG Export Plug-In . SVG Version: 6.00 Build 0)  -->
<svg version="1.1" id="Layer_1" xmlns="http://www.w3.org/2000/svg" xmlns:xlink="http://www.w3.org/1999/xlink" x="0px" y="0px"
	 viewBox="0 0 505 505" style="enable-background:new 0 0 505 505;" xml:space="preserve">
<circle style="fill:#F1543F;" cx="252.5" cy="252.5" r="252.5"/>
<g>
	<polygon style="fill:#324A5E;" points="379.8,344.5 328.5,344.5 354.1,374.2 390.5,374.2 	"/>
	<polygon style="fill:#324A5E;" points="125.2,344.5 176.5,344.5 150.9,374.2 114.5,374.2 	"/>
</g>
<path style="fill:#FFD05B;" d="M406.8,349.9H98.2c-2.8,0-5-2.3-5-5v-209c0-2.8,2.3-5,5-5h308.6c2.8,0,5,2.3,5,5v209
	C411.9,347.6,409.6,349.9,406.8,349.9z"/>
<rect x="117.1" y="154.7" style="fill:#F9B54C;" width="270.9" height="171.3"/>
<rect x="117.1" y="271.1" style="fill:#324A5E;" width="270.9" height="54.9"/>
<g>
	<circle style="fill:#FFFFFF;" cx="345.6" cy="298.5" r="17.9"/>
	<circle style="fill:#FFFFFF;" cx="159.4" cy="298.5" r="17.9"/>
</g>
<g>
	<rect x="202.3" y="286.1" style="fill:#ACB3BA;" width="10.3" height="24.8"/>
	<rect x="224.8" y="286.1" style="fill:#ACB3BA;" width="10.3" height="24.8"/>
	<rect x="247.4" y="286.1" style="fill:#ACB3BA;" width="10.3" height="24.8"/>
	<rect x="269.9" y="286.1" style="fill:#ACB3BA;" width="10.3" height="24.8"/>
	<rect x="292.4" y="286.1" style="fill:#ACB3BA;" width="10.3" height="24.8"/>
</g>
<g>
	<rect x="133.1" y="170.7" style="fill:#FF7058;" width="22.9" height="21.3"/>
	<rect x="176.3" y="170.7" style="fill:#FF7058;" width="22.9" height="21.3"/>
	<rect x="219.5" y="170.7" style="fill:#FF7058;" width="22.9" height="21.3"/>
	<rect x="264.3" y="170.7" style="fill:#FF7058;" width="22.9" height="21.3"/>
	<rect x="307.5" y="170.7" style="fill:#FF7058;" width="22.9" height="21.3"/>
	<rect x="350.6" y="170.7" style="fill:#FF7058;" width="22.9" height="21.3"/>
	<rect x="133.1" y="204.1" style="fill:#FF7058;" width="22.9" height="21.3"/>
	<rect x="176.3" y="204.1" style="fill:#FF7058;" width="22.9" height="21.3"/>
	<rect x="219.5" y="204.1" style="fill:#FF7058;" width="22.9" height="21.3"/>
	<rect x="264.3" y="204.1" style="fill:#FF7058;" width="22.9" height="21.3"/>
	<rect x="307.5" y="204.1" style="fill:#FF7058;" width="22.9" height="21.3"/>
	<rect x="350.6" y="204.1" style="fill:#FF7058;" width="22.9" height="21.3"/>
	<rect x="133.1" y="237.5" style="fill:#FF7058;" width="22.9" height="21.3"/>
	<rect x="176.3" y="237.5" style="fill:#FF7058;" width="22.9" height="21.3"/>
	<rect x="221.1" y="237.5" style="fill:#FF7058;" width="22.9" height="21.3"/>
	<rect x="264.3" y="237.5" style="fill:#FF7058;" width="22.9" height="21.3"/>
	<rect x="307.5" y="237.5" style="fill:#FF7058;" width="22.9" height="21.3"/>
	<rect x="350.6" y="237.5" style="fill:#FF7058;" width="22.9" height="21.3"/>
</g>
<g>
</g>
<g>
</g>
<g>
</g>
<g>
</g>
<g>
</g>
<g>
</g>
<g>
</g>
<g>
</g>
<g>
</g>
<g>
</g>
<g>
</g>
<g>
</g>
<g>
</g>
<g>
</g>
<g>
</g>
</svg>
