<?xml version="1.0" encoding="iso-8859-1"?>
<!-- Generator: Adobe Illustrator 19.0.0, SVG Export Plug-In . SVG Version: 6.00 Build 0)  -->
<svg version="1.1" id="Layer_1" xmlns="http://www.w3.org/2000/svg" xmlns:xlink="http://www.w3.org/1999/xlink" x="0px" y="0px"
	 viewBox="0 0 505 505" style="enable-background:new 0 0 505 505;" xml:space="preserve">
<circle style="fill:#90DFAA;" cx="252.5" cy="252.5" r="252.5"/>
<g>
	<path style="fill:#FFFFFF;" d="M367.3,168.6c-1-1-1.6-2.3-1.6-3.8c0-16.5-13.4-29.9-29.9-29.9c-3,0-5.4-2.4-5.4-5.4
		s2.4-5.4,5.4-5.4c22.4,0,40.7,18.2,40.7,40.7c0,3-2.4,5.4-5.4,5.4C369.7,170.1,368.3,169.5,367.3,168.6z"/>
	<path style="fill:#FFFFFF;" d="M332.1,111c-1-1-1.6-2.3-1.6-3.8c0-3,2.4-5.4,5.4-5.4c34.7,0,62.9,28.2,62.9,62.9
		c0,3-2.4,5.4-5.4,5.4s-5.4-2.4-5.4-5.4c0-28.7-23.4-52.1-52.1-52.1C334.4,112.6,333,112,332.1,111z"/>
	<path style="fill:#FFFFFF;" d="M411,168.6c-1-1-1.6-2.3-1.6-3.8c0-19.6-7.7-38.1-21.5-52c-13.9-13.9-32.4-21.5-52-21.5
		c-3,0-5.4-2.4-5.4-5.4s2.4-5.4,5.4-5.4c22.5,0,43.7,8.8,59.7,24.7c15.9,15.9,24.7,37.1,24.7,59.7c0,3-2.4,5.4-5.4,5.4
		C413.3,170.1,412,169.5,411,168.6z"/>
</g>
<rect x="281.561" y="188.029" transform="matrix(-0.7071 0.7071 -0.7071 -0.7071 665.6783 110.2242)" style="fill:#F1543F;" width="56.899" height="9.9"/>
<path style="fill:#324A5E;" d="M153.6,307.4c-1.1,0.9-2.3,1.8-3.3,2.8c-11.7,11.7-11.7,30.8,0,42.5s30.8,11.7,42.5,0
	c1-1,2-2.2,2.8-3.3L153.6,307.4z"/>
<path style="fill:#FFFFFF;" d="M320.4,449.4l-95.8-95.8c-0.5-0.5-0.5-1.2,0-1.7l67.6-67.6c0.5-0.5,1.2-0.5,1.7,0l95.8,95.8
	c0.5,0.5,0.5,1.2,0,1.7l-67.6,67.6C321.6,449.9,320.8,449.9,320.4,449.4z"/>
<g>
	
		<rect x="246.578" y="342.522" transform="matrix(0.7071 -0.7071 0.7071 0.7071 -177.0688 285.3617)" style="fill:#54C0EB;" width="18.7" height="27.8"/>
	
		<rect x="277.51" y="373.372" transform="matrix(0.7071 -0.7071 0.7071 0.7071 -189.8231 316.2701)" style="fill:#54C0EB;" width="18.7" height="27.8"/>
	
		<rect x="308.302" y="404.232" transform="matrix(0.7071 -0.7071 0.7071 0.7071 -202.6259 347.0815)" style="fill:#54C0EB;" width="18.7" height="27.8"/>
	
		<rect x="287.298" y="301.77" transform="matrix(0.7071 -0.7071 0.7071 0.7071 -136.3261 302.2191)" style="fill:#54C0EB;" width="18.7" height="27.8"/>
	
		<rect x="318.23" y="332.63" transform="matrix(0.7071 -0.7071 0.7071 0.7071 -149.0875 333.1305)" style="fill:#54C0EB;" width="18.7" height="27.8"/>
	
		<rect x="349.022" y="363.49" transform="matrix(0.7071 -0.7071 0.7071 0.7071 -161.8903 363.9418)" style="fill:#54C0EB;" width="18.7" height="27.8"/>
	
		<rect x="267.008" y="322.151" transform="matrix(0.7071 -0.7071 0.7071 0.7071 -156.6803 293.8418)" style="fill:#54C0EB;" width="18.7" height="27.8"/>
	
		<rect x="297.8" y="353.001" transform="matrix(0.7071 -0.7071 0.7071 0.7071 -169.476 324.6503)" style="fill:#54C0EB;" width="18.7" height="27.8"/>
	
		<rect x="328.732" y="383.861" transform="matrix(0.7071 -0.7071 0.7071 0.7071 -182.2374 355.5617)" style="fill:#54C0EB;" width="18.7" height="27.8"/>
</g>
<path style="fill:#FFFFFF;" d="M149.4,278.5l-95.8-95.8c-0.5-0.5-0.5-1.2,0-1.7l67.6-67.6c0.5-0.5,1.2-0.5,1.7,0l95.8,95.8
	c0.5,0.5,0.5,1.2,0,1.7l-67.6,67.6C150.6,278.9,149.9,278.9,149.4,278.5z"/>
<rect x="143.859" y="242.324" transform="matrix(0.7071 -0.7071 0.7071 0.7071 -134.2741 239.0802)" style="fill:#E6E9EE;" width="155.198" height="78.599"/>
<path style="fill:#324A5E;" d="M263.6,147.2c-2.5,1.9-5,3.9-7.2,6.2c-25.8,25.8-25.8,67.6,0,93.4s67.6,25.8,93.4,0
	c2.3-2.3,4.3-4.7,6.2-7.2L263.6,147.2z"/>
<circle style="fill:#FF7058;" cx="330.3" cy="172.8" r="11.8"/>
<g>
	
		<rect x="75.636" y="171.542" transform="matrix(0.7071 -0.7071 0.7071 0.7071 -106.2354 114.4087)" style="fill:#54C0EB;" width="18.7" height="27.8"/>
	
		<rect x="106.427" y="202.402" transform="matrix(0.7071 -0.7071 0.7071 0.7071 -119.0382 145.2201)" style="fill:#54C0EB;" width="18.7" height="27.8"/>
	
		<rect x="137.36" y="233.262" transform="matrix(0.7071 -0.7071 0.7071 0.7071 -131.7995 176.1314)" style="fill:#54C0EB;" width="18.7" height="27.8"/>
	
		<rect x="116.356" y="130.8" transform="matrix(0.7071 -0.7071 0.7071 0.7071 -65.4998 131.269)" style="fill:#54C0EB;" width="18.7" height="27.8"/>
	
		<rect x="147.147" y="161.66" transform="matrix(0.7071 -0.7071 0.7071 0.7071 -78.3026 162.0804)" style="fill:#54C0EB;" width="18.7" height="27.8"/>
	
		<rect x="178.08" y="192.51" transform="matrix(0.7071 -0.7071 0.7071 0.7071 -91.0569 192.9888)" style="fill:#54C0EB;" width="18.7" height="27.8"/>
	
		<rect x="95.925" y="151.171" transform="matrix(0.7071 -0.7071 0.7071 0.7071 -85.8883 122.7889)" style="fill:#54C0EB;" width="18.7" height="27.8"/>
	
		<rect x="126.858" y="182.031" transform="matrix(0.7071 -0.7071 0.7071 0.7071 -98.6496 153.7002)" style="fill:#54C0EB;" width="18.7" height="27.8"/>
	
		<rect x="157.649" y="212.891" transform="matrix(0.7071 -0.7071 0.7071 0.7071 -111.4524 184.5116)" style="fill:#54C0EB;" width="18.7" height="27.8"/>
</g>
<g>
</g>
<g>
</g>
<g>
</g>
<g>
</g>
<g>
</g>
<g>
</g>
<g>
</g>
<g>
</g>
<g>
</g>
<g>
</g>
<g>
</g>
<g>
</g>
<g>
</g>
<g>
</g>
<g>
</g>
</svg>
