<?xml version="1.0" encoding="iso-8859-1"?>
<!-- Generator: Adobe Illustrator 19.0.0, SVG Export Plug-In . SVG Version: 6.00 Build 0)  -->
<svg version="1.1" id="Layer_1" xmlns="http://www.w3.org/2000/svg" xmlns:xlink="http://www.w3.org/1999/xlink" x="0px" y="0px"
	 viewBox="0 0 505 505" style="enable-background:new 0 0 505 505;" xml:space="preserve">
<circle style="fill:#324A5E;" cx="252.5" cy="252.5" r="252.5"/>
<g>
	<rect x="241.7" y="326" style="fill:#2C9984;" width="21.6" height="71.1"/>
	<rect x="149.2" y="386.3" style="fill:#2C9984;" width="206.7" height="21.6"/>
</g>
<rect x="131.2" y="119.3" style="fill:#ACB3BA;" width="242.5" height="197.3"/>
<g>
	<path style="fill:#E6E9EE;" d="M388.9,158.9H116.1c-2.4,0-4.4-2-4.4-4.4V94.8c0-2.4,2-4.4,4.4-4.4h272.8c2.4,0,4.4,2,4.4,4.4v59.7
		C393.3,157,391.3,158.9,388.9,158.9z"/>
	<path style="fill:#E6E9EE;" d="M388.9,252.3H116.1c-2.4,0-4.4-2-4.4-4.4v-59.8c0-2.4,2-4.4,4.4-4.4h272.8c2.4,0,4.4,2,4.4,4.4v59.8
		C393.3,250.3,391.3,252.3,388.9,252.3z"/>
	<path style="fill:#E6E9EE;" d="M388.9,345.6H116.1c-2.4,0-4.4-2-4.4-4.4v-59.8c0-2.4,2-4.4,4.4-4.4h272.8c2.4,0,4.4,2,4.4,4.4v59.8
		C393.3,343.6,391.3,345.6,388.9,345.6z"/>
</g>
<circle style="fill:#FF7058;" cx="157" cy="126.3" r="18.5"/>
<path style="fill:#FFFFFF;" d="M155.8,115.1c1,1.1-0.6,4.1-3.4,6.7c-2.9,2.6-6,3.8-7,2.7s0.6-4.1,3.4-6.7
	C151.7,115.3,154.8,114.1,155.8,115.1z"/>
<circle style="fill:#4CDBC4;" cx="213.1" cy="126.3" r="18.5"/>
<ellipse transform="matrix(-0.6708 -0.7416 0.7416 -0.6708 256.439 353.419)" style="fill:#FFFFFF;" cx="206.655" cy="119.797" rx="2.6" ry="7"/>
<circle style="fill:#FF7058;" cx="157" cy="218" r="18.5"/>
<path style="fill:#FFFFFF;" d="M155.8,206.8c1,1.1-0.6,4.1-3.4,6.7c-2.9,2.6-6,3.8-7,2.7s0.6-4.1,3.4-6.7
	C151.7,206.9,154.8,205.7,155.8,206.8z"/>
<circle style="fill:#4CDBC4;" cx="213.1" cy="218" r="18.5"/>
<path style="fill:#FFFFFF;" d="M211.9,206.8c1,1.1-0.6,4.1-3.4,6.7c-2.9,2.6-6,3.8-7,2.7s0.6-4.1,3.4-6.7
	C207.8,206.9,210.9,205.7,211.9,206.8z"/>
<circle style="fill:#FF7058;" cx="157" cy="311.3" r="18.5"/>
<path style="fill:#FFFFFF;" d="M155.8,300.1c1,1.1-0.6,4.1-3.4,6.7c-2.9,2.6-6,3.8-7,2.7s0.6-4.1,3.4-6.7
	C151.7,300.3,154.8,299,155.8,300.1z"/>
<circle style="fill:#4CDBC4;" cx="213.1" cy="311.3" r="18.5"/>
<path style="fill:#FFFFFF;" d="M211.9,300.1c1,1.1-0.6,4.1-3.4,6.7c-2.9,2.6-6,3.8-7,2.7c-1-1.1,0.6-4.1,3.4-6.7
	C207.8,300.3,210.9,299,211.9,300.1z"/>
<circle style="fill:#ACB3BA;" cx="252.5" cy="397.1" r="26"/>
<g>
</g>
<g>
</g>
<g>
</g>
<g>
</g>
<g>
</g>
<g>
</g>
<g>
</g>
<g>
</g>
<g>
</g>
<g>
</g>
<g>
</g>
<g>
</g>
<g>
</g>
<g>
</g>
<g>
</g>
</svg>
