<?xml version="1.0" encoding="iso-8859-1"?>
<!-- Generator: Adobe Illustrator 19.0.0, SVG Export Plug-In . SVG Version: 6.00 Build 0)  -->
<svg version="1.1" id="Layer_1" xmlns="http://www.w3.org/2000/svg" xmlns:xlink="http://www.w3.org/1999/xlink" x="0px" y="0px"
	 viewBox="0 0 505 505" style="enable-background:new 0 0 505 505;" xml:space="preserve">
<circle style="fill:#FFD05B;" cx="252.5" cy="252.5" r="252.5"/>
<path style="fill:#324A5E;" d="M371.9,436.8H133.1c-2.6,0-4.6-2.1-4.6-4.6V72.8c0-2.6,2.1-4.6,4.6-4.6h238.8c2.6,0,4.6,2.1,4.6,4.6
	v359.4C376.5,434.8,374.4,436.8,371.9,436.8z"/>
<rect x="148.1" y="123.4" style="fill:#54C0EB;" width="208.8" height="246.1"/>
<g>
	<path style="fill:#ACB3BA;" d="M290.1,104.7h-46.5c-3.3,0-6-2.7-6-6l0,0c0-3.3,2.7-6,6-6h46.5c3.3,0,6,2.7,6,6l0,0
		C296.1,102,293.4,104.7,290.1,104.7z"/>
	<path style="fill:#ACB3BA;" d="M222.9,92.7h-8c-3.3,0-6,2.7-6,6l0,0c0,3.3,2.7,6,6,6h8c3.3,0,6-2.7,6-6l0,0
		C228.9,95.4,226.2,92.7,222.9,92.7z"/>
	<circle style="fill:#ACB3BA;" cx="252.5" cy="401.1" r="16.8"/>
</g>
<g>
	<circle style="fill:#FFFFFF;" cx="252.5" cy="300.7" r="16.8"/>
	<path style="fill:#FFFFFF;" d="M333.5,222L333.5,222c-2.9,2.9-7.6,3.1-10.7,0.4c-19.3-16.9-43.9-26.1-69.8-26.1
		s-50.4,9.2-69.8,26.1c-3.1,2.7-7.8,2.6-10.7-0.4l0,0c-3.2-3.2-3.1-8.5,0.4-11.5c22.2-19.4,50.4-30,80.2-30s57.9,10.6,80.2,30
		C336.5,213.5,336.7,218.8,333.5,222z"/>
	<path style="fill:#FFFFFF;" d="M308.3,247.1L308.3,247.1c-2.9,2.9-7.5,3-10.7,0.4c-12.6-10.3-28.2-15.9-44.7-15.9
		s-32.1,5.6-44.7,15.9c-3.2,2.6-7.8,2.5-10.7-0.4l0,0c-3.3-3.3-3.1-8.7,0.5-11.6c15.4-12.7,34.6-19.6,54.9-19.6s39.5,6.9,54.9,19.6
		C311.4,238.5,311.6,243.9,308.3,247.1z"/>
	<path style="fill:#FFFFFF;" d="M285.9,269.6L285.9,269.6c-2.7,2.7-6.9,3.2-10,1c-6.7-4.8-14.6-7.4-23-7.4s-16.3,2.6-23,7.4
		c-3,2.2-7.3,1.7-10-1l0,0c-3.4-3.4-3-9.2,1-12c9.3-6.6,20.4-10.2,32-10.2s22.7,3.6,32,10.2C288.9,260.4,289.3,266.1,285.9,269.6z"
		/>
</g>
<g>
</g>
<g>
</g>
<g>
</g>
<g>
</g>
<g>
</g>
<g>
</g>
<g>
</g>
<g>
</g>
<g>
</g>
<g>
</g>
<g>
</g>
<g>
</g>
<g>
</g>
<g>
</g>
<g>
</g>
</svg>
