<?xml version="1.0" encoding="iso-8859-1"?>
<!-- Generator: Adobe Illustrator 19.0.0, SVG Export Plug-In . SVG Version: 6.00 Build 0)  -->
<svg version="1.1" id="Layer_1" xmlns="http://www.w3.org/2000/svg" xmlns:xlink="http://www.w3.org/1999/xlink" x="0px" y="0px"
	 viewBox="0 0 505 505" style="enable-background:new 0 0 505 505;" xml:space="preserve">
<circle style="fill:#FFD05B;" cx="252.5" cy="252.5" r="252.5"/>
<path style="fill:#324A5E;" d="M316,416.7H119c-4.7,0-8.4-3.8-8.4-8.4V96.7c0-4.7,3.8-8.4,8.4-8.4h197c4.7,0,8.4,3.8,8.4,8.4v311.6
	C324.5,412.9,320.7,416.7,316,416.7z"/>
<rect x="131" y="128.6" style="fill:#54C0EB;" width="173.1" height="228.6"/>
<path style="fill:#ACB3BA;" d="M238.8,111.8h-42.5c-2.4,0-4.3-1.9-4.3-4.3l0,0c0-2.4,1.9-4.3,4.3-4.3h42.5c2.4,0,4.3,1.9,4.3,4.3
	l0,0C243.1,109.9,241.2,111.8,238.8,111.8z"/>
<circle style="fill:#2B3B4E;" cx="278.4" cy="109.3" r="9.7"/>
<circle style="fill:#ACB3BA;" cx="217.5" cy="385.6" r="17.4"/>
<path style="fill:#FF7058;" d="M372,309H220.8c-12.3,0-22.3-10-22.3-22.3v-93.6c0-12.3,10-22.3,22.3-22.3h151.3
	c12.3,0,22.3,10,22.3,22.3v93.6C394.4,299,384.4,309,372,309z"/>
<path style="fill:#F1543F;" d="M387.9,302.4c-4,4.1-9.7,6.6-15.9,6.6H220.8c-6.2,0-11.9-2.6-15.9-6.6l62.5-62.5l29-29l29,29
	L387.9,302.4z"/>
<path style="fill:#E6E9EE;" d="M387.9,177.4l-62.5,62.5l-13.2,13.2c-8.7,8.7-22.9,8.7-31.7,0l-13.2-13.2l-62.5-62.5
	c4-4.1,9.7-6.6,15.9-6.6h151.2C378.2,170.8,383.9,173.3,387.9,177.4z"/>
<g>
</g>
<g>
</g>
<g>
</g>
<g>
</g>
<g>
</g>
<g>
</g>
<g>
</g>
<g>
</g>
<g>
</g>
<g>
</g>
<g>
</g>
<g>
</g>
<g>
</g>
<g>
</g>
<g>
</g>
</svg>
