<?xml version="1.0" encoding="iso-8859-1"?>
<!-- Generator: Adobe Illustrator 19.0.0, SVG Export Plug-In . SVG Version: 6.00 Build 0)  -->
<svg version="1.1" id="Layer_1" xmlns="http://www.w3.org/2000/svg" xmlns:xlink="http://www.w3.org/1999/xlink" x="0px" y="0px"
	 viewBox="0 0 505 505" style="enable-background:new 0 0 505 505;" xml:space="preserve">
<circle style="fill:#90DFAA;" cx="252.5" cy="252.5" r="252.5"/>
<path style="fill:#FFFFFF;" d="M365,143c0,13.1,10.6,23.7,23.7,23.7v25.6c-13.1,0-23.7,10.6-23.7,23.7c0,13,10.6,23.7,23.7,23.7
	v25.6c-13.1,0-23.7,10.6-23.7,23.7s10.6,23.7,23.7,23.7v25.6c-13.1,0-23.7,10.6-23.7,23.7s10.6,23.7,23.7,23.7v24.6h-39.5
	c0-13.1-10.6-23.7-23.7-23.7c-13,0-23.7,10.6-23.7,23.7h-25.6c0-13.1-10.6-23.7-23.7-23.7c-13.1,0-23.7,10.6-23.7,23.7h-25.6
	c0-13.1-10.6-23.7-23.7-23.7s-23.7,10.6-23.7,23.7h-39.5v-24.6c13,0,23.7-10.6,23.7-23.7c0-13-10.6-23.7-23.7-23.7v-25.6
	c13,0,23.7-10.6,23.7-23.7s-10.6-23.7-23.7-23.7v-25.6c13,0,23.7-10.6,23.7-23.7c0-13.1-10.6-23.7-23.7-23.7v-25.6
	c13,0,23.7-10.6,23.7-23.7c0-13.1-10.6-23.7-23.7-23.7V94.7h39.5c0,13.1,10.6,23.7,23.7,23.7s23.7-10.6,23.7-23.7h25.6
	c0,13.1,10.6,23.7,23.7,23.7s23.7-10.6,23.7-23.7h25.6c0,13.1,10.6,23.7,23.7,23.7s23.7-10.6,23.7-23.7h39.5v24.6
	C375.6,119.2,365,129.9,365,143z"/>
<rect x="157.5" y="132.6" style="fill:#84DBFF;" width="190" height="239.8"/>
<g>
	<rect x="181.2" y="279.8" style="fill:#54C0EB;" width="142.7" height="66.4"/>
	<rect x="183.8" y="157.5" style="fill:#54C0EB;" width="140.1" height="13.8"/>
	<rect x="183.8" y="191.2" style="fill:#54C0EB;" width="140.1" height="13.8"/>
	<rect x="183.8" y="224.9" style="fill:#54C0EB;" width="93.4" height="13.8"/>
</g>
<g>
</g>
<g>
</g>
<g>
</g>
<g>
</g>
<g>
</g>
<g>
</g>
<g>
</g>
<g>
</g>
<g>
</g>
<g>
</g>
<g>
</g>
<g>
</g>
<g>
</g>
<g>
</g>
<g>
</g>
</svg>
