<?xml version="1.0" encoding="iso-8859-1"?>
<!-- Generator: Adobe Illustrator 19.0.0, SVG Export Plug-In . SVG Version: 6.00 Build 0)  -->
<svg version="1.1" id="Layer_1" xmlns="http://www.w3.org/2000/svg" xmlns:xlink="http://www.w3.org/1999/xlink" x="0px" y="0px"
	 viewBox="0 0 512 512" style="enable-background:new 0 0 512 512;" xml:space="preserve">
<circle style="fill:#FD8469;" cx="256" cy="256" r="256"/>
<path style="fill:#324A5E;" d="M432.919,380.604H79.081c-2.129,0-3.853-1.724-3.853-3.853V135.249c0-2.129,1.724-3.853,3.853-3.853
	h353.838c2.129,0,3.853,1.724,3.853,3.853v241.502C436.771,378.88,435.048,380.604,432.919,380.604z"/>
<rect x="105.644" y="161.711" style="fill:#E6E9EE;" width="300.813" height="188.477"/>
<rect x="228.017" y="214.533" style="fill:#84DBFF;" width="63.772" height="84.049"/>
<g>
	<rect x="225.888" y="296.453" style="fill:#4CDBC4;" width="180.467" height="53.735"/>
	<rect x="105.644" y="161.711" style="fill:#4CDBC4;" width="118.723" height="51.707"/>
</g>
<g>
	<rect x="350.999" y="161.711" style="fill:#FFFFFF;" width="5.069" height="188.477"/>
	<rect x="289.255" y="161.711" style="fill:#FFFFFF;" width="5.069" height="188.477"/>
	<rect x="222.847" y="161.711" style="fill:#FFFFFF;" width="5.069" height="188.477"/>
	<rect x="153.397" y="161.711" style="fill:#FFFFFF;" width="5.069" height="188.477"/>
	<rect x="105.644" y="213.012" style="fill:#FFFFFF;" width="188.375" height="5.069"/>
	<rect x="223.658" y="295.084" style="fill:#FFFFFF;" width="182.698" height="5.069"/>
</g>
<polygon style="fill:#FFD05B;" points="368.032,161.812 274.452,280.738 105.644,274.148 105.644,253.161 264.516,259.346 
	341.266,161.812 "/>
<path style="fill:#FF7058;" d="M302.333,212.1c0,18.858-34.066,57.79-34.066,57.79s-34.066-38.932-34.066-57.79
	s15.309-34.066,34.066-34.066C287.126,178.034,302.333,193.242,302.333,212.1z"/>
<circle style="fill:#FFFFFF;" cx="268.268" cy="211.593" r="14.904"/>
<g>
</g>
<g>
</g>
<g>
</g>
<g>
</g>
<g>
</g>
<g>
</g>
<g>
</g>
<g>
</g>
<g>
</g>
<g>
</g>
<g>
</g>
<g>
</g>
<g>
</g>
<g>
</g>
<g>
</g>
</svg>
