<?xml version="1.0" encoding="iso-8859-1"?>
<!-- Generator: Adobe Illustrator 19.0.0, SVG Export Plug-In . SVG Version: 6.00 Build 0)  -->
<svg version="1.1" id="Layer_1" xmlns="http://www.w3.org/2000/svg" xmlns:xlink="http://www.w3.org/1999/xlink" x="0px" y="0px"
	 viewBox="0 0 505 505" style="enable-background:new 0 0 505 505;" xml:space="preserve">
<circle style="fill:#FD8469;" cx="252.5" cy="252.5" r="252.5"/>
<path style="fill:#324A5E;" d="M367.5,430h-230c-2.5,0-4.5-2-4.5-4.5V79.4c0-2.5,2-4.5,4.5-4.5h230c2.5,0,4.5,2,4.5,4.5v346.1
	C372,428,370,430,367.5,430z"/>
<rect x="151.9" y="128.2" style="fill:#FFFFFF;" width="201.1" height="237"/>
<g>
	<path style="fill:#ACB3BA;" d="M288.7,110.1h-44.8c-3.2,0-5.8-2.6-5.8-5.8l0,0c0-3.2,2.6-5.8,5.8-5.8h44.8c3.2,0,5.8,2.6,5.8,5.8
		l0,0C294.5,107.5,291.9,110.1,288.7,110.1z"/>
	<path style="fill:#ACB3BA;" d="M224,98.6h-7.7c-3.2,0-5.8,2.6-5.8,5.8l0,0c0,3.2,2.6,5.8,5.8,5.8h7.7c3.2,0,5.8-2.6,5.8-5.8l0,0
		C229.7,101.2,227.2,98.6,224,98.6z"/>
	<circle style="fill:#ACB3BA;" cx="252.5" cy="395.6" r="16.2"/>
</g>
<path style="fill:#4CDBC4;" d="M212.3,196.9H175c-1,0-1.9-0.8-1.9-1.9v-37.3c0-1,0.8-1.9,1.9-1.9h37.3c1,0,1.9,0.8,1.9,1.9V195
	C214.2,196,213.4,196.9,212.3,196.9z"/>
<path style="fill:#FFD05B;" d="M271.1,196.9h-37.3c-1,0-1.9-0.8-1.9-1.9v-37.3c0-1,0.8-1.9,1.9-1.9h37.3c1,0,1.9,0.8,1.9,1.9V195
	C273,196,272.2,196.9,271.1,196.9z"/>
<path style="fill:#ACB3BA;" d="M330,196.9h-37.3c-1,0-1.9-0.8-1.9-1.9v-37.3c0-1,0.8-1.9,1.9-1.9H330c1,0,1.9,0.8,1.9,1.9V195
	C331.8,196,331,196.9,330,196.9z"/>
<path style="fill:#CED5E0;" d="M212.3,267.2H175c-1,0-1.9-0.8-1.9-1.9V228c0-1,0.8-1.9,1.9-1.9h37.3c1,0,1.9,0.8,1.9,1.9v37.3
	C214.2,266.4,213.4,267.2,212.3,267.2z"/>
<path style="fill:#84DBFF;" d="M271.1,267.2h-37.3c-1,0-1.9-0.8-1.9-1.9V228c0-1,0.8-1.9,1.9-1.9h37.3c1,0,1.9,0.8,1.9,1.9v37.3
	C273,266.4,272.2,267.2,271.1,267.2z"/>
<path style="fill:#54C0EB;" d="M330,267.2h-37.3c-1,0-1.9-0.8-1.9-1.9V228c0-1,0.8-1.9,1.9-1.9H330c1,0,1.9,0.8,1.9,1.9v37.3
	C331.8,266.4,331,267.2,330,267.2z"/>
<path style="fill:#4CDBC4;" d="M212.3,337.6H175c-1,0-1.9-0.8-1.9-1.9v-37.3c0-1,0.8-1.9,1.9-1.9h37.3c1,0,1.9,0.8,1.9,1.9v37.3
	C214.2,336.7,213.4,337.6,212.3,337.6z"/>
<path style="fill:#FF7058;" d="M271.1,337.6h-37.3c-1,0-1.9-0.8-1.9-1.9v-37.3c0-1,0.8-1.9,1.9-1.9h37.3c1,0,1.9,0.8,1.9,1.9v37.3
	C273,336.7,272.2,337.6,271.1,337.6z"/>
<path style="fill:#FFD05B;" d="M330,337.6h-37.3c-1,0-1.9-0.8-1.9-1.9v-37.3c0-1,0.8-1.9,1.9-1.9H330c1,0,1.9,0.8,1.9,1.9v37.3
	C331.8,336.7,331,337.6,330,337.6z"/>
<g>
</g>
<g>
</g>
<g>
</g>
<g>
</g>
<g>
</g>
<g>
</g>
<g>
</g>
<g>
</g>
<g>
</g>
<g>
</g>
<g>
</g>
<g>
</g>
<g>
</g>
<g>
</g>
<g>
</g>
</svg>
