<?xml version="1.0" encoding="iso-8859-1"?>
<!-- Generator: Adobe Illustrator 19.0.0, SVG Export Plug-In . SVG Version: 6.00 Build 0)  -->
<svg version="1.1" id="Layer_1" xmlns="http://www.w3.org/2000/svg" xmlns:xlink="http://www.w3.org/1999/xlink" x="0px" y="0px"
	 viewBox="0 0 505 505" style="enable-background:new 0 0 505 505;" xml:space="preserve">
<circle style="fill:#54C0EB;" cx="252.5" cy="252.5" r="252.5"/>
<g>
	
		<rect x="221.02" y="112.933" transform="matrix(-0.7071 0.7071 -0.7071 -0.7071 532.2411 16.9044)" style="fill:#324A5E;" width="83.199" height="11.5"/>
	
		<rect x="153.393" y="112.868" transform="matrix(0.7071 0.7071 -0.7071 0.7071 140.988 -103.1383)" style="fill:#324A5E;" width="83.199" height="11.5"/>
</g>
<circle style="fill:#FFFFFF;" cx="165.6" cy="89.2" r="17.4"/>
<path style="fill:#CED5E0;" d="M267.3,230h-76.9c-7.2,0-13-5.8-13-13v-76.9c0-7.2,5.8-13,13-13h76.9c7.2,0,13,5.8,13,13V217
	C280.3,224.2,274.5,230,267.3,230z"/>
<g>
	<path style="fill:#324A5E;" d="M385.6,393.5h-48.3c-0.5,0-0.8,0.4-0.8,0.8v20.3c0,0.5,0.4,0.8,0.8,0.8h48.3c0.5,0,0.8-0.4,0.8-0.8
		v-20.3C386.5,393.9,386.1,393.5,385.6,393.5z"/>
	<path style="fill:#324A5E;" d="M167.7,393.5h-48.3c-0.5,0-0.8,0.4-0.8,0.8v20.3c0,0.5,0.4,0.8,0.8,0.8h48.3c0.5,0,0.8-0.4,0.8-0.8
		v-20.3C168.5,393.9,168.1,393.5,167.7,393.5z"/>
</g>
<path style="fill:#E6E9EE;" d="M414.6,397.8H90.4c-5,0-9-4-9-9V169.5c0-5,4-9,9-9h324.2c5,0,9,4,9,9v219.4
	C423.6,393.8,419.6,397.8,414.6,397.8z"/>
<path style="fill:#2B3B4E;" d="M346.5,369.7H111.2c-3.7,0-6.7-3-6.7-6.7V195.3c0-3.7,3-6.7,6.7-6.7h235.3c3.7,0,6.7,3,6.7,6.7V363
	C353.2,366.7,350.2,369.7,346.5,369.7z"/>
<circle style="fill:#FF7058;" cx="386.5" cy="338.8" r="20.6"/>
<g>
	<circle style="fill:#4CDBC4;" cx="386.5" cy="275.6" r="13.6"/>
	<circle style="fill:#4CDBC4;" cx="386.5" cy="230" r="13.6"/>
</g>
<circle style="fill:#FFFFFF;" cx="292.1" cy="89.2" r="17.4"/>
<polygon style="fill:#324A5E;" points="321.2,188.6 151.4,369.7 129.8,369.7 293.1,188.6 "/>
<g>
</g>
<g>
</g>
<g>
</g>
<g>
</g>
<g>
</g>
<g>
</g>
<g>
</g>
<g>
</g>
<g>
</g>
<g>
</g>
<g>
</g>
<g>
</g>
<g>
</g>
<g>
</g>
<g>
</g>
</svg>
