<?xml version="1.0" encoding="iso-8859-1"?>
<!-- Generator: Adobe Illustrator 19.0.0, SVG Export Plug-In . SVG Version: 6.00 Build 0)  -->
<svg version="1.1" id="Layer_1" xmlns="http://www.w3.org/2000/svg" xmlns:xlink="http://www.w3.org/1999/xlink" x="0px" y="0px"
	 viewBox="0 0 505 505" style="enable-background:new 0 0 505 505;" xml:space="preserve">
<circle style="fill:#324A5E;" cx="252.5" cy="252.5" r="252.5"/>
<path style="fill:#E6E9EE;" d="M305,77.7c-3.1-3.1-8.2-3.1-11.4,0l-73.8,73.8l-57.6-57.6c-3.1-3.1-8.2-3.1-11.4,0
	c-3.1,3.1-3.1,8.2,0,11.4l62.1,62.1c1.6,1.6,3.6,2.4,5.7,2.4c0.4,0,0.8-0.1,1.2-0.1c0.4,0.1,0.8,0.1,1.2,0.1c2.1,0,4.1-0.8,5.7-2.4
	L305,89.1C308.1,85.9,308.1,80.8,305,77.7z"/>
<circle style="fill:#CED5E0;" cx="218.5" cy="173.1" r="36.4"/>
<g>
	<polygon style="fill:#FF7058;" points="384.6,407.6 363.8,350.7 325.2,350.7 358.9,407.6 	"/>
	<polygon style="fill:#FF7058;" points="120.4,407.6 141.2,350.7 179.8,350.7 146.1,407.6 	"/>
</g>
<path style="fill:#4CDBC4;" d="M404.6,372.6H100.4c-2,0-3.6-1.6-3.6-3.6V171.4c0-2,1.6-3.6,3.6-3.6h304.2c2,0,3.6,1.6,3.6,3.6V369
	C408.2,371,406.6,372.6,404.6,372.6z"/>
<path style="fill:#FFFFFF;" d="M314.8,348.8H122.2c-2,0-3.6-1.6-3.6-3.6V195.3c0-2,1.6-3.6,3.6-3.6h192.7c2,0,3.6,1.6,3.6,3.6v149.9
	C318.5,347.2,316.8,348.8,314.8,348.8z"/>
<circle style="fill:#324A5E;" cx="362.9" cy="315.8" r="26.6"/>
<circle style="fill:#E6E9EE;" cx="362.9" cy="315.8" r="16.5"/>
<g>
	<rect x="336.3" y="198.1" style="fill:#2C9984;" width="53.2" height="11.1"/>
	<rect x="336.3" y="220.3" style="fill:#2C9984;" width="53.2" height="11.1"/>
	<rect x="336.3" y="242.6" style="fill:#2C9984;" width="53.2" height="11.1"/>
	<rect x="336.3" y="264.9" style="fill:#2C9984;" width="53.2" height="11.1"/>
</g>
<polygon style="fill:#84DBFF;" points="214.8,284.6 213,287.1 215.9,291.9 221.2,291.9 224,287.1 222.2,284.6 "/>
<polygon style="fill:#54C0EB;" points="215.9,291.9 208.7,325.5 218.5,333.3 228.3,325.5 221.2,291.9 "/>
<ellipse style="fill:#324A5E;" cx="218.5" cy="239.7" rx="30.2" ry="25.8"/>
<path style="fill:#FF7058;" d="M275.7,348.8v-5.5c0-24.3-15.1-45.1-36.5-53.3l-20.7,40l-20.7-40c-7.5,2.9-14.2,7.3-19.8,12.9
	c-10.3,10.3-16.8,24.6-16.8,40.4v5.5H275.7z"/>
<path style="fill:#FFD05B;" d="M247.9,253.8c0,3.5-2.8,6.4-6.3,6.5c-3.7,11.2-12.7,19.1-23.1,19.1c-10.4,0-19.3-7.9-23.1-19.1
	c-3.5-0.1-6.3-3-6.3-6.5c0-2.8,1.9-5.3,4.4-6.1c0-1.1,0.1-2.2,0.2-3.2c7,1.2,20.4-4.6,30.9-13.1c6.4,6.2,13.9,11.1,18.6,12.1
	c0.2,1.4,0.3,2.8,0.3,4.3C246.1,248.6,247.9,251,247.9,253.8z"/>
<g>
</g>
<g>
</g>
<g>
</g>
<g>
</g>
<g>
</g>
<g>
</g>
<g>
</g>
<g>
</g>
<g>
</g>
<g>
</g>
<g>
</g>
<g>
</g>
<g>
</g>
<g>
</g>
<g>
</g>
</svg>
