<?xml version="1.0" encoding="iso-8859-1"?>
<!-- Generator: Adobe Illustrator 19.0.0, SVG Export Plug-In . SVG Version: 6.00 Build 0)  -->
<svg version="1.1" id="Layer_1" xmlns="http://www.w3.org/2000/svg" xmlns:xlink="http://www.w3.org/1999/xlink" x="0px" y="0px"
	 viewBox="0 0 505 505" style="enable-background:new 0 0 505 505;" xml:space="preserve">
<circle style="fill:#FFD05B;" cx="252.5" cy="252.5" r="252.5"/>
<path style="fill:#324A5E;" d="M220.7,113.6h-18.1l1.6-51.2c0.1-4,3.4-7.2,7.4-7.2l0,0c4,0,7.3,3.2,7.4,7.2L220.7,113.6z"/>
<g>
	<rect x="279.8" y="153.4" style="fill:#2B3B4E;" width="36.2" height="30.5"/>
	<path style="fill:#2B3B4E;" d="M229.7,180h-36.2l3.3-64.2c0.2-4.2,3.6-7.4,7.8-7.4h14c4.2,0,7.6,3.3,7.8,7.4L229.7,180z"/>
</g>
<path style="fill:#324A5E;" d="M340.5,449.8h-176c-3.7,0-6.6-3-6.6-6.6V181.6c0-3.7,3-6.6,6.6-6.6h176c3.7,0,6.6,3,6.6,6.6v261.5
	C347.1,446.8,344.1,449.8,340.5,449.8z"/>
<path style="fill:#54C0EB;" d="M323.2,287.8H181.8c-0.8,0-1.4-0.6-1.4-1.4V233c0-0.8,0.6-1.4,1.4-1.4h141.5c0.8,0,1.4,0.6,1.4,1.4
	v53.4C324.6,287.2,324,287.8,323.2,287.8z"/>
<rect x="214.3" y="199.1" style="fill:#ACB3BA;" width="76.5" height="13.4"/>
<g>
	<path style="fill:#CED5E0;" d="M218.5,331.9h-36.8c-0.8,0-1.4-0.6-1.4-1.4v-24c0-0.8,0.6-1.4,1.4-1.4h36.8c0.8,0,1.4,0.6,1.4,1.4
		v24C219.9,331.2,219.3,331.9,218.5,331.9z"/>
	<path style="fill:#CED5E0;" d="M270.9,331.9h-36.8c-0.8,0-1.4-0.6-1.4-1.4v-24c0-0.8,0.6-1.4,1.4-1.4h36.8c0.8,0,1.4,0.6,1.4,1.4
		v24C272.3,331.2,271.7,331.9,270.9,331.9z"/>
	<path style="fill:#CED5E0;" d="M323.2,331.9h-36.7c-0.8,0-1.4-0.6-1.4-1.4v-24c0-0.8,0.6-1.4,1.4-1.4h36.8c0.8,0,1.4,0.6,1.4,1.4
		v24C324.6,331.2,324,331.9,323.2,331.9z"/>
	<path style="fill:#CED5E0;" d="M218.5,374h-36.8c-0.8,0-1.4-0.6-1.4-1.4v-24c0-0.8,0.6-1.4,1.4-1.4h36.8c0.8,0,1.4,0.6,1.4,1.4v24
		C219.9,373.4,219.3,374,218.5,374z"/>
	<path style="fill:#CED5E0;" d="M270.9,374h-36.8c-0.8,0-1.4-0.6-1.4-1.4v-24c0-0.8,0.6-1.4,1.4-1.4h36.8c0.8,0,1.4,0.6,1.4,1.4v24
		C272.3,373.4,271.7,374,270.9,374z"/>
	<path style="fill:#CED5E0;" d="M323.2,374h-36.7c-0.8,0-1.4-0.6-1.4-1.4v-24c0-0.8,0.6-1.4,1.4-1.4h36.8c0.8,0,1.4,0.6,1.4,1.4v24
		C324.6,373.4,324,374,323.2,374z"/>
	<path style="fill:#CED5E0;" d="M218.5,416.1h-36.8c-0.8,0-1.4-0.6-1.4-1.4v-24c0-0.8,0.6-1.4,1.4-1.4h36.8c0.8,0,1.4,0.6,1.4,1.4
		v24C219.9,415.5,219.3,416.1,218.5,416.1z"/>
	<path style="fill:#CED5E0;" d="M270.9,416.1h-36.8c-0.8,0-1.4-0.6-1.4-1.4v-24c0-0.8,0.6-1.4,1.4-1.4h36.8c0.8,0,1.4,0.6,1.4,1.4
		v24C272.3,415.5,271.7,416.1,270.9,416.1z"/>
	<path style="fill:#CED5E0;" d="M323.2,416.1h-36.7c-0.8,0-1.4-0.6-1.4-1.4v-24c0-0.8,0.6-1.4,1.4-1.4h36.8c0.8,0,1.4,0.6,1.4,1.4
		v24C324.6,415.5,324,416.1,323.2,416.1z"/>
</g>
<g>
</g>
<g>
</g>
<g>
</g>
<g>
</g>
<g>
</g>
<g>
</g>
<g>
</g>
<g>
</g>
<g>
</g>
<g>
</g>
<g>
</g>
<g>
</g>
<g>
</g>
<g>
</g>
<g>
</g>
</svg>
