<?xml version="1.0" encoding="iso-8859-1"?>
<!-- Generator: Adobe Illustrator 19.0.0, SVG Export Plug-In . SVG Version: 6.00 Build 0)  -->
<svg version="1.1" id="Layer_1" xmlns="http://www.w3.org/2000/svg" xmlns:xlink="http://www.w3.org/1999/xlink" x="0px" y="0px"
	 viewBox="0 0 505 505" style="enable-background:new 0 0 505 505;" xml:space="preserve">
<circle style="fill:#324A5E;" cx="252.5" cy="252.5" r="252.5"/>
<rect x="240.2" y="214.8" style="fill:#ACB3BA;" width="24.6" height="162.5"/>
<circle style="fill:#E6E9EE;" cx="252.5" cy="214.8" r="39"/>
<g>
	<path style="fill:#FFFFFF;" d="M302.6,273.5c-2.2,0-4.4-0.8-6.1-2.5c-3.4-3.4-3.4-8.8,0-12.2c24.3-24.3,24.3-63.8,0-88.1
		c-3.4-3.4-3.4-8.8,0-12.2c3.4-3.4,8.8-3.4,12.2,0c15,15,23.3,35,23.3,56.2s-8.3,41.2-23.3,56.2C307,272.7,304.8,273.5,302.6,273.5z
		"/>
	<path style="fill:#FFFFFF;" d="M202.4,273.5c-2.2,0-4.4-0.8-6.1-2.5c-15-15-23.3-35-23.3-56.2s8.3-41.2,23.3-56.2
		c3.4-3.4,8.8-3.4,12.2,0s3.4,8.8,0,12.2c-24.3,24.3-24.3,63.8,0,88c3.4,3.4,3.4,8.8,0,12.2C206.8,272.7,204.6,273.5,202.4,273.5z"
		/>
	<path style="fill:#FFFFFF;" d="M331.8,302.7c-2.2,0-4.4-0.8-6.1-2.5c-3.4-3.4-3.4-8.8,0-12.2c40.4-40.4,40.4-106.1,0-146.5
		c-3.4-3.4-3.4-8.8,0-12.2c3.4-3.4,8.8-3.4,12.2,0c47.1,47.1,47.1,123.8,0,170.9C336.3,301.9,334,302.7,331.8,302.7z"/>
	<path style="fill:#FFFFFF;" d="M173.2,302.7c-2.2,0-4.4-0.8-6.1-2.5c-47.1-47.1-47.1-123.8,0-170.9c3.4-3.4,8.8-3.4,12.2,0
		s3.4,8.8,0,12.2c-40.4,40.4-40.4,106.1,0,146.5c3.4,3.4,3.4,8.8,0,12.2C177.6,301.9,175.4,302.7,173.2,302.7z"/>
	<path style="fill:#FFFFFF;" d="M360.7,331.5c-2.2,0-4.4-0.8-6.1-2.5c-3.4-3.4-3.4-8.8,0-12.2c56.3-56.3,56.3-147.8,0-204.1
		c-3.4-3.4-3.4-8.8,0-12.2c3.4-3.4,8.8-3.4,12.2,0c63,63,63,165.5,0,228.5C365.1,330.7,362.9,331.5,360.7,331.5z"/>
	<path style="fill:#FFFFFF;" d="M144.3,331.5c-2.2,0-4.4-0.8-6.1-2.5c-63-63-63-165.5,0-228.5c3.4-3.4,8.8-3.4,12.2,0
		s3.4,8.8,0,12.2c-56.3,56.3-56.3,147.8,0,204.1c3.4,3.4,3.4,8.8,0,12.2C148.8,330.7,146.5,331.5,144.3,331.5z"/>
</g>
<path style="fill:#CED5E0;" d="M285.3,393.6v109.3c-10.7,1.4-21.7,2.1-32.7,2.1c-11.1,0-22.1-0.7-32.8-2.1V393.6
	c0-13.8,8.5-25.5,20.5-30.4c3.8-1.5,8-2.4,12.3-2.4c4.3,0,8.5,0.8,12.3,2.4c4.1,1.7,7.8,4.1,10.9,7.2
	C281.6,376.4,285.3,384.6,285.3,393.6z"/>
<g>
</g>
<g>
</g>
<g>
</g>
<g>
</g>
<g>
</g>
<g>
</g>
<g>
</g>
<g>
</g>
<g>
</g>
<g>
</g>
<g>
</g>
<g>
</g>
<g>
</g>
<g>
</g>
<g>
</g>
</svg>
