<?xml version="1.0" encoding="iso-8859-1"?>
<!-- Generator: Adobe Illustrator 19.0.0, SVG Export Plug-In . SVG Version: 6.00 Build 0)  -->
<svg version="1.1" id="Layer_1" xmlns="http://www.w3.org/2000/svg" xmlns:xlink="http://www.w3.org/1999/xlink" x="0px" y="0px"
	 viewBox="0 0 505 505" style="enable-background:new 0 0 505 505;" xml:space="preserve">
<circle style="fill:#54C0EB;" cx="252.5" cy="252.5" r="252.5"/>
<polygon style="fill:#324A5E;" points="276.2,248.1 228.8,248.1 242,121.7 263,121.7 "/>
<circle style="fill:#FFFFFF;" cx="252.5" cy="124.7" r="22.2"/>
<g>
	<path style="fill:#324A5E;" d="M414.6,384.9h-47.5c-1.2,0-2.1-0.9-2.1-2.1v-31.9c0-1.2,0.9-2.1,2.1-2.1h47.5c1.2,0,2.1,0.9,2.1,2.1
		v31.9C416.7,384,415.8,384.9,414.6,384.9z"/>
	<path style="fill:#324A5E;" d="M137.9,384.9H90.4c-1.2,0-2.1-0.9-2.1-2.1v-31.9c0-1.2,0.9-2.1,2.1-2.1h47.5c1.2,0,2.1,0.9,2.1,2.1
		v31.9C140,384,139,384.9,137.9,384.9z"/>
</g>
<path style="fill:#FFFFFF;" d="M437.6,359.8H67.4c-2.3,0-4.1-1.8-4.1-4.1V243.9c0-2.3,1.8-4.1,4.1-4.1h370.2c2.3,0,4.1,1.8,4.1,4.1
	v111.8C441.7,357.9,439.9,359.8,437.6,359.8z"/>
<rect x="63.3" y="274" style="fill:#E6E9EE;" width="378.4" height="51.6"/>
<circle style="fill:#FF7058;" cx="99.1" cy="299.8" r="15.3"/>
<circle style="fill:#4CDBC4;" cx="148.2" cy="299.8" r="15.3"/>
<circle style="fill:#FFD05B;" cx="197.2" cy="299.8" r="15.3"/>
<g>
</g>
<g>
</g>
<g>
</g>
<g>
</g>
<g>
</g>
<g>
</g>
<g>
</g>
<g>
</g>
<g>
</g>
<g>
</g>
<g>
</g>
<g>
</g>
<g>
</g>
<g>
</g>
<g>
</g>
</svg>
