<?xml version="1.0" encoding="iso-8859-1"?>
<!-- Generator: Adobe Illustrator 19.0.0, SVG Export Plug-In . SVG Version: 6.00 Build 0)  -->
<svg xmlns="http://www.w3.org/2000/svg" xmlns:xlink="http://www.w3.org/1999/xlink" version="1.1" id="Layer_1" x="0px" y="0px" viewBox="0 0 505 505" style="enable-background:new 0 0 505 505;" xml:space="preserve">
<circle style="fill:#90DFAA;" cx="252.5" cy="252.5" r="252.5"/>
<rect x="389" y="180.3" style="fill:#FFFFFF;" width="19.5" height="14.4"/>
<path style="fill:#E6E9EE;" d="M290.4,203.8c-7-25.2-27.5-42-50.2-42h-91.5c-22.7,0-43.1,16.8-50.2,41.9c-4,14.3-6.6,29.8-7.5,46  h206.7C296.9,233.6,294.4,218.1,290.4,203.8z"/>
<path style="fill:#FFFFFF;" d="M91.1,249.7c-0.2,4.1-0.4,8.1-0.4,12.3c0,84.9,46.5,153.7,103.8,153.7S298.3,346.9,298.3,262  c0-4.2-0.2-8.2-0.4-12.3H91.1z"/>
<path style="fill:#324A5E;" d="M194.4,177.3c-5.4,0-9.8,4.4-9.8,9.8V223c0,5.4,4.4,9.9,9.8,9.9c5.4,0,9.8-4.4,9.8-9.9v-35.9  C204.3,181.7,199.9,177.3,194.4,177.3z"/>
<path style="fill:#2B3B4E;" d="M366.4,349.4c-20.3,0-36.8-16.5-36.8-36.7V145.8c0-26.4-21.5-47.9-47.9-47.9h-35.1  c-26.4,0-47.9,21.5-47.9,47.9v15.9H190v-15.9c0-31.2,25.4-56.6,56.6-56.6h35.1c31.2,0,56.6,25.4,56.6,56.6v166.8  c0,15.5,12.6,28,28,28s28-12.6,28-28v-93.3h8.7v93.3C403.1,332.9,386.6,349.4,366.4,349.4z"/>
<path style="fill:#324A5E;" d="M410.5,192.2H387c-2.1,0-3.9,1.7-3.9,3.8v23.1c0,2.1,1.7,3.9,3.9,3.9h23.5c2.1,0,3.9-1.7,3.9-3.9V196  C414.3,193.9,412.6,192.2,410.5,192.2z"/>
<g>
</g>
<g>
</g>
<g>
</g>
<g>
</g>
<g>
</g>
<g>
</g>
<g>
</g>
<g>
</g>
<g>
</g>
<g>
</g>
<g>
</g>
<g>
</g>
<g>
</g>
<g>
</g>
<g>
</g>
</svg>
