<?xml version="1.0" encoding="iso-8859-1"?>
<!-- Generator: Adobe Illustrator 19.0.0, SVG Export Plug-In . SVG Version: 6.00 Build 0)  -->
<svg xmlns="http://www.w3.org/2000/svg" xmlns:xlink="http://www.w3.org/1999/xlink" version="1.1" id="Layer_1" x="0px" y="0px" viewBox="0 0 505 505" style="enable-background:new 0 0 505 505;" xml:space="preserve">
<circle style="fill:#FF7058;" cx="252.5" cy="252.5" r="252.5"/>
<path style="fill:#FBDD56;" d="M386.6,140.4H241.3c-4.6,0-8.8-2.5-11-6.4l-10.6-18.7c-2.2-4-6.4-6.4-11-6.4h-90.4  c-7,0-12.6,5.7-12.6,12.6v223.8c0,7,5.7,12.6,12.6,12.6h268.2c7,0,12.6-5.7,12.6-12.6V153C399.2,146,393.6,140.4,386.6,140.4z"/>
<g>
	<path style="fill:#FFFFFF;" d="M173.7,167.7c0,19.6-0.1,19.6,27.6-8.1c-27.7,27.7-27.7,27.6-8.1,27.6c-19.6,0-19.6-0.1,8.1,27.6   c-27.7-27.7-27.6-27.7-27.6-8.1c0-19.6,0.1-19.6-27.6,8.1c27.7-27.7,27.7-27.6,8.1-27.6c19.6,0,19.6,0.1-8.1-27.6   C173.9,187.3,173.7,187.3,173.7,167.7z"/>
	<path style="fill:#FFFFFF;" d="M157,200.2c0,10.2-0.1,10.2,14.3-4.2c-14.4,14.4-14.4,14.3-4.2,14.3c-10.2,0-10.2-0.1,4.2,14.3   c-14.4-14.4-14.3-14.4-14.3-4.2c0-10.2,0.1-10.2-14.3,4.2c14.4-14.4,14.4-14.3,4.2-14.3c10.2,0,10.2,0.1-4.2-14.3   C157.1,210.4,157,210.4,157,200.2z"/>
	<path style="fill:#FFFFFF;" d="M206.9,184.2c0,10.2-0.1,10.2,14.3-4.2c-14.4,14.4-14.4,14.3-4.2,14.3c-10.2,0-10.2-0.1,4.2,14.3   c-14.4-14.4-14.3-14.4-14.3-4.2c0-10.2,0.1-10.2-14.3,4.2c14.4-14.4,14.4-14.3,4.2-14.3c10.2,0,10.2,0.1-4.2-14.3   C206.9,194.4,206.9,194.4,206.9,184.2z"/>
</g>
<path style="fill:#FF7058;" d="M203.5,267.3c-0.1,0.1-0.2,0.2-0.3,0.3c-1.7,1.4-4.3,1.2-5.7-0.6c-4-4.9-8-10.3-8.4-16.9  c-0.2-3.7,0.8-7,1.7-10c0.4-1.4,0.9-2.8,1.1-4.2c1.3-6.6-1.1-13.9-6.1-18.7c-1.6-1.5-1.7-4.1-0.1-5.7c1.3-1.2,4.1-1.7,5.7-0.1  c7,6.7,10.3,16.9,8.5,26.1c-0.3,1.7-0.8,3.4-1.3,5c-0.8,2.5-1.5,4.9-1.4,7.2c0.2,4.1,3.2,8.1,6.6,12.2  C205.1,263.5,205,265.8,203.5,267.3z"/>
<path style="fill:#395767;" d="M230,259l-12.9-12.9L183.2,280l12.9,12.9c-19,33.8-14.2,77.5,14.6,106.3c34.7,34.7,90.9,34.7,125.6,0  s34.7-90.9,0-125.6C307.5,244.8,263.8,240,230,259z"/>
<g>
</g>
<g>
</g>
<g>
</g>
<g>
</g>
<g>
</g>
<g>
</g>
<g>
</g>
<g>
</g>
<g>
</g>
<g>
</g>
<g>
</g>
<g>
</g>
<g>
</g>
<g>
</g>
<g>
</g>
</svg>
