<?xml version="1.0" encoding="iso-8859-1"?>
<!-- Generator: Adobe Illustrator 19.0.0, SVG Export Plug-In . SVG Version: 6.00 Build 0)  -->
<svg xmlns="http://www.w3.org/2000/svg" xmlns:xlink="http://www.w3.org/1999/xlink" version="1.1" id="Layer_1" x="0px" y="0px" viewBox="0 0 505 505" style="enable-background:new 0 0 505 505;" xml:space="preserve">
<circle style="fill:#4CDBC4;" cx="252.5" cy="252.5" r="252.5"/>
<path style="fill:#FFFFFF;" d="M360.5,96.9h-216c-7.6,0-13.8,6.2-13.8,13.8v283.6c0,7.6,6.2,13.8,13.8,13.8h216  c7.6,0,13.8-6.2,13.8-13.8V110.7C374.3,103.1,368.1,96.9,360.5,96.9z"/>
<path style="fill:#324A5E;" d="M170.2,96.9h-25.7c-7.6,0-13.8,6.2-13.8,13.8v283.6c0,7.6,6.2,13.8,13.8,13.8h25.7V96.9z"/>
<polygon style="fill:#FF7058;" points="321.4,233.4 297.7,215.7 275.6,233.4 275.6,96.9 321.4,96.9 "/>
<g>
</g>
<g>
</g>
<g>
</g>
<g>
</g>
<g>
</g>
<g>
</g>
<g>
</g>
<g>
</g>
<g>
</g>
<g>
</g>
<g>
</g>
<g>
</g>
<g>
</g>
<g>
</g>
<g>
</g>
</svg>
