<?xml version="1.0" encoding="iso-8859-1"?>
<!-- Generator: Adobe Illustrator 19.0.0, SVG Export Plug-In . SVG Version: 6.00 Build 0)  -->
<svg xmlns="http://www.w3.org/2000/svg" xmlns:xlink="http://www.w3.org/1999/xlink" version="1.1" id="Layer_1" x="0px" y="0px" viewBox="0 0 505 505" style="enable-background:new 0 0 505 505;" xml:space="preserve">
<circle style="fill:#FFD05B;" cx="252.5" cy="252.5" r="252.5"/>
<g>
	<path style="fill:#324A5E;" d="M331.3,263L331.3,263c-4.3,0-8-3.3-8.3-7.6c-1.7-18.8-9.9-36.3-23.5-49.9   c-13.5-13.5-31-21.7-49.9-23.5c-4.3-0.4-7.6-4-7.6-8.3l0,0c0-4.9,4.2-8.9,9.1-8.4c22.8,2.1,43.9,12,60.3,28.3   c16.4,16.4,26.2,37.5,28.3,60.3C340.1,258.8,336.2,263,331.3,263z"/>
	<path style="fill:#324A5E;" d="M371.6,256.4L371.6,256.4c-4.4,0-8.1-3.4-8.4-7.7c-1.8-27.8-13.5-53.6-33.4-73.5   s-45.7-31.6-73.5-33.4c-4.4-0.3-7.7-4-7.7-8.4l0,0c0-4.9,4.2-8.8,9-8.4c31.8,2.1,61.4,15.5,84.1,38.3   c22.7,22.7,36.1,52.3,38.3,84.1C380.3,252.3,376.5,256.4,371.6,256.4z"/>
</g>
<path style="fill:#FF7058;" d="M367.4,387.5c3.2-4.2,2.7-10.7-1.1-14.4L307.2,314c-4.7-4.7-12.1-4.4-16.4,0.6  c-6.6,7.5-12.2,11.5-10.1,21.3l65.5,65.5C356.2,400.9,362.4,394.3,367.4,387.5z"/>
<path style="fill:#FFFFFF;" d="M103.5,161.3c1.3,25.2-79.9,37.4,60.1,180c142.6,140,154.8,58.9,180,60.1c0.9,0,1.7,0,2.6,0  l-65.5-65.5c0,0.1,0,0.2,0.1,0.3c0.8,3.2,0.1,8.1-1.6,10.9c-3.7,6-7.5,11.7-12.6,13.9c-4,1.7-17.7-5.4-32.4-14.4  c-30.9-18.9-56.9-44.9-75.8-75.8c-9-14.8-16.1-28.4-14.4-32.4c2.2-5.1,7.9-8.9,13.9-12.6c2.8-1.7,7.7-2.3,10.9-1.6  c0.1,0,0.2,0,0.3,0.1l-65.5-65.5C103.5,159.5,103.5,160.4,103.5,161.3z"/>
<path style="fill:#FF7058;" d="M169.1,224.2c9.8,2.2,13.8-3.5,21.3-10.1c5-4.4,5.3-11.7,0.6-16.4l-59.1-59.1  c-3.7-3.7-10.2-4.2-14.4-1.1c-6.7,5.1-13.4,11.2-13.9,21.1L169.1,224.2z"/>
<g>
</g>
<g>
</g>
<g>
</g>
<g>
</g>
<g>
</g>
<g>
</g>
<g>
</g>
<g>
</g>
<g>
</g>
<g>
</g>
<g>
</g>
<g>
</g>
<g>
</g>
<g>
</g>
<g>
</g>
</svg>
