<?xml version="1.0" encoding="iso-8859-1"?>
<!-- Generator: Adobe Illustrator 19.0.0, SVG Export Plug-In . SVG Version: 6.00 Build 0)  -->
<svg xmlns="http://www.w3.org/2000/svg" xmlns:xlink="http://www.w3.org/1999/xlink" version="1.1" id="Layer_1" x="0px" y="0px" viewBox="0 0 505 505" style="enable-background:new 0 0 505 505;" xml:space="preserve">
<circle style="fill:#324A5E;" cx="252.5" cy="252.5" r="252.5"/>
<circle style="fill:#FFFFFF;" cx="236" cy="252.5" r="159.2"/>
<circle style="fill:#395767;" cx="236" cy="252.5" r="45.6"/>
<rect x="308.4" y="216.9" style="fill:#4CDBC4;" width="119.7" height="194.7"/>
<g>
	<path style="fill:#2C9984;" d="M422.2,237.1v-8.2c0-1.2-1-2.2-2.2-2.2h-11.4c-1.2,0-2.2,1-2.2,2.2v8.2c0,1.2,1,2.2,2.2,2.2H420   C421.2,239.2,422.2,238.3,422.2,237.1z"/>
	<path style="fill:#2C9984;" d="M330.2,236.9v-8.2c0-1.2-1-2.2-2.2-2.2h-11.4c-1.2,0-2.2,1-2.2,2.2v8.2c0,1.2,1,2.2,2.2,2.2H328   C329.2,239.1,330.2,238.1,330.2,236.9z"/>
	<path style="fill:#2C9984;" d="M422.2,260.3v-8.2c0-1.2-1-2.2-2.2-2.2h-11.4c-1.2,0-2.2,1-2.2,2.2v8.2c0,1.2,1,2.2,2.2,2.2H420   C421.2,262.5,422.2,261.5,422.2,260.3z"/>
	<path style="fill:#2C9984;" d="M330.2,260.2V252c0-1.2-1-2.2-2.2-2.2h-11.4c-1.2,0-2.2,1-2.2,2.2v8.2c0,1.2,1,2.2,2.2,2.2H328   C329.2,262.3,330.2,261.4,330.2,260.2z"/>
	<path style="fill:#2C9984;" d="M422.2,283.6v-8.2c0-1.2-1-2.2-2.2-2.2h-11.4c-1.2,0-2.2,1-2.2,2.2v8.2c0,1.2,1,2.2,2.2,2.2H420   C421.2,285.8,422.2,284.8,422.2,283.6z"/>
	<path style="fill:#2C9984;" d="M330.2,283.4v-8.2c0-1.2-1-2.2-2.2-2.2h-11.4c-1.2,0-2.2,1-2.2,2.2v8.2c0,1.2,1,2.2,2.2,2.2H328   C329.2,285.6,330.2,284.6,330.2,283.4z"/>
	<path style="fill:#2C9984;" d="M422.2,306.9v-8.2c0-1.2-1-2.2-2.2-2.2h-11.4c-1.2,0-2.2,1-2.2,2.2v8.2c0,1.2,1,2.2,2.2,2.2H420   C421.2,309.1,422.2,308.1,422.2,306.9z"/>
	<path style="fill:#2C9984;" d="M330.2,306.7v-8.2c0-1.2-1-2.2-2.2-2.2h-11.4c-1.2,0-2.2,1-2.2,2.2v8.2c0,1.2,1,2.2,2.2,2.2H328   C329.2,308.9,330.2,307.9,330.2,306.7z"/>
	<path style="fill:#2C9984;" d="M422.2,330.2V322c0-1.2-1-2.2-2.2-2.2h-11.4c-1.2,0-2.2,1-2.2,2.2v8.2c0,1.2,1,2.2,2.2,2.2H420   C421.2,332.3,422.2,331.4,422.2,330.2z"/>
	<path style="fill:#2C9984;" d="M330.2,330v-8.2c0-1.2-1-2.2-2.2-2.2h-11.4c-1.2,0-2.2,1-2.2,2.2v8.2c0,1.2,1,2.2,2.2,2.2H328   C329.2,332.2,330.2,331.2,330.2,330z"/>
	<path style="fill:#2C9984;" d="M422.2,353.4v-8.2c0-1.2-1-2.2-2.2-2.2h-11.4c-1.2,0-2.2,1-2.2,2.2v8.2c0,1.2,1,2.2,2.2,2.2H420   C421.2,355.6,422.2,354.6,422.2,353.4z"/>
	<path style="fill:#2C9984;" d="M330.2,353.3v-8.2c0-1.2-1-2.2-2.2-2.2h-11.4c-1.2,0-2.2,1-2.2,2.2v8.2c0,1.2,1,2.2,2.2,2.2H328   C329.2,355.4,330.2,354.5,330.2,353.3z"/>
	<path style="fill:#2C9984;" d="M422.2,376.7v-8.2c0-1.2-1-2.2-2.2-2.2h-11.4c-1.2,0-2.2,1-2.2,2.2v8.2c0,1.2,1,2.2,2.2,2.2H420   C421.2,378.9,422.2,377.9,422.2,376.7z"/>
	<path style="fill:#2C9984;" d="M330.2,376.5v-8.2c0-1.2-1-2.2-2.2-2.2h-11.4c-1.2,0-2.2,1-2.2,2.2v8.2c0,1.2,1,2.2,2.2,2.2H328   C329.2,378.7,330.2,377.7,330.2,376.5z"/>
	<path style="fill:#2C9984;" d="M422.2,400v-8.2c0-1.2-1-2.2-2.2-2.2h-11.4c-1.2,0-2.2,1-2.2,2.2v8.2c0,1.2,1,2.2,2.2,2.2H420   C421.2,402.2,422.2,401.2,422.2,400z"/>
	<path style="fill:#2C9984;" d="M330.2,399.8v-8.2c0-1.2-1-2.2-2.2-2.2h-11.4c-1.2,0-2.2,1-2.2,2.2v8.2c0,1.2,1,2.2,2.2,2.2H328   C329.2,402,330.2,401,330.2,399.8z"/>
	<rect x="335.8" y="226.5" style="fill:#2C9984;" width="64.9" height="80.7"/>
	<rect x="335.8" y="319.8" style="fill:#2C9984;" width="64.9" height="82.4"/>
</g>
<g>
</g>
<g>
</g>
<g>
</g>
<g>
</g>
<g>
</g>
<g>
</g>
<g>
</g>
<g>
</g>
<g>
</g>
<g>
</g>
<g>
</g>
<g>
</g>
<g>
</g>
<g>
</g>
<g>
</g>
</svg>
