<?xml version="1.0" encoding="iso-8859-1"?>
<!-- Generator: Adobe Illustrator 19.0.0, SVG Export Plug-In . SVG Version: 6.00 Build 0)  -->
<svg xmlns="http://www.w3.org/2000/svg" xmlns:xlink="http://www.w3.org/1999/xlink" version="1.1" id="Layer_1" x="0px" y="0px" viewBox="0 0 505 505" style="enable-background:new 0 0 505 505;" xml:space="preserve">
<circle style="fill:#90DFAA;" cx="252.5" cy="252.5" r="252.5"/>
<path style="fill:#FFFFFF;" d="M88.5,216.1l34,148.5c2.1,11.1,11.9,19.2,23.2,19.2h213.7c11.3,0,21.1-8.1,23.2-19.2l34-148.5H88.5z"/>
<path style="fill:#FF7058;" d="M412.8,173.6H92.2c-10.3,0-18.7,11.2-18.7,25s8.4,25,18.7,25h320.5c10.3,0,18.7-11.2,18.7-25  C431.4,184.8,423.1,173.6,412.8,173.6z"/>
<g>
	<path style="fill:#90DFAA;" d="M178.4,357.5L178.4,357.5c-5.3,0-9.6-4.3-9.6-9.6v-80.2c0-5.3,4.3-9.6,9.6-9.6l0,0   c5.3,0,9.6,4.3,9.6,9.6v80.2C188,353.2,183.7,357.5,178.4,357.5z"/>
	<path style="fill:#90DFAA;" d="M227.8,357.5L227.8,357.5c-5.3,0-9.6-4.3-9.6-9.6v-80.2c0-5.3,4.3-9.6,9.6-9.6l0,0   c5.3,0,9.6,4.3,9.6,9.6v80.2C237.4,353.2,233.1,357.5,227.8,357.5z"/>
	<path style="fill:#90DFAA;" d="M277.2,357.5L277.2,357.5c-5.3,0-9.6-4.3-9.6-9.6v-80.2c0-5.3,4.3-9.6,9.6-9.6l0,0   c5.3,0,9.6,4.3,9.6,9.6v80.2C286.8,353.2,282.5,357.5,277.2,357.5z"/>
	<path style="fill:#90DFAA;" d="M335.6,357.5h-18c-0.3,0-0.6-0.3-0.6-0.6v-98.1c0-0.3,0.3-0.6,0.6-0.6h18c0.3,0,0.6,0.3,0.6,0.6   v98.1C336.3,357.3,336,357.5,335.6,357.5z"/>
	<circle style="fill:#90DFAA;" cx="314.6" cy="198.6" r="14.8"/>
</g>
<path style="fill:#324A5E;" d="M424.8,295.6l-102-102c-3.5-3.5-9.2-3.5-12.7,0s-3.5,9.2,0,12.7l102,102c3.5,3.5,9.2,3.5,12.7,0  S428.3,299.1,424.8,295.6z"/>
<circle style="fill:#90DFAA;" cx="190.4" cy="198.6" r="14.8"/>
<path style="fill:#324A5E;" d="M194.8,193.6c-3.5-3.5-9.2-3.5-12.7,0l-102,102c-3.5,3.5-3.5,9.2,0,12.7s9.2,3.5,12.7,0l102-102  C198.3,202.8,198.3,197.1,194.8,193.6z"/>
<g>
</g>
<g>
</g>
<g>
</g>
<g>
</g>
<g>
</g>
<g>
</g>
<g>
</g>
<g>
</g>
<g>
</g>
<g>
</g>
<g>
</g>
<g>
</g>
<g>
</g>
<g>
</g>
<g>
</g>
</svg>
