<?xml version="1.0" encoding="iso-8859-1"?>
<!-- Generator: Adobe Illustrator 19.0.0, SVG Export Plug-In . SVG Version: 6.00 Build 0)  -->
<svg xmlns="http://www.w3.org/2000/svg" xmlns:xlink="http://www.w3.org/1999/xlink" version="1.1" id="Layer_1" x="0px" y="0px" viewBox="0 0 505 505" style="enable-background:new 0 0 505 505;" xml:space="preserve">
<path style="fill:#324A5E;" d="M0,252.5C0,113,113,0,252.5,0S505,113,505,252.5S392,505,252.5,505S0,392,0,252.5z"/>
<path style="fill:#FFFFFF;" d="M360.8,113.3H160.2c-6.1,0-11.1,4.8-11.1,10.8v256.7c0,6,5,10.8,11.1,10.8h200.6  c6.1,0,11.1-4.8,11.1-10.8V124.1C371.9,118.2,367,113.3,360.8,113.3z"/>
<g>
	<path style="fill:#FF7058;" d="M168.3,164.9h-27.8c-4.1,0-7.4,3.3-7.4,7.4s3.3,7.4,7.4,7.4h27.8c4.1,0,7.4-3.3,7.4-7.4   S172.3,164.9,168.3,164.9z"/>
	<path style="fill:#FF7058;" d="M168.3,240.2h-27.8c-4.1,0-7.4,3.3-7.4,7.4c0,4.1,3.3,7.4,7.4,7.4h27.8c4.1,0,7.4-3.3,7.4-7.4   C175.6,243.5,172.3,240.2,168.3,240.2z"/>
	<path style="fill:#FF7058;" d="M168.3,315.5h-27.8c-4.1,0-7.4,3.3-7.4,7.4s3.3,7.4,7.4,7.4h27.8c4.1,0,7.4-3.3,7.4-7.4   C175.6,318.8,172.3,315.5,168.3,315.5z"/>
</g>
<path style="fill:#4CDBC4;" d="M271.4,272.3h-0.5c-3.5,9.6-10,14.5-19.2,14.5c-7,0-12.6-2.5-16.9-7.6s-6.4-12-6.4-21  c0-11.6,3-21,8.9-28.2c5.9-7.3,13-10.9,21.4-10.9c7.5,0,12.3,3,14.2,8.9h0.3l0.8-7.5h17.1c-2.3,21.5-3.4,35.6-3.4,42.2  c0,7.1,1.9,10.6,5.8,10.6c4,0,7.4-2.7,10-8c2.6-5.4,3.9-12.4,3.9-21c0-11.8-3.8-21.5-11.3-29.1s-18-11.3-31.5-11.3  c-14.4,0-26.5,5-36,15.1c-9.6,10.1-14.4,22.4-14.4,36.9c0,14,4.2,25.1,12.7,33.2s20.1,12.1,35.1,12.1c11.4,0,21.8-2.2,31.2-6.5v14.5  c-8.6,3.7-19.8,5.5-33.3,5.5c-18.6,0-33.8-5.3-45.5-16s-17.5-25-17.5-43.1c0-18.4,6.2-33.9,18.7-46.4s28.5-18.8,48.2-18.8  c18.2,0,32.9,4.9,44.1,14.6c11.2,9.7,16.9,22.5,16.9,38.5c0,13.1-3.4,23.6-10.3,31.5s-15.4,11.9-25.5,11.9c-5,0-9.1-1.3-12.2-4  C273.3,280.1,271.6,276.6,271.4,272.3z M261.3,232.3c-4.5,0-8.2,2.6-11.1,7.8s-4.3,11.2-4.3,18c0,4.9,1,8.6,2.9,11.3  c1.9,2.7,4.5,4.1,7.5,4.1c4.7,0,8.5-2.6,11.2-7.7s4.1-11.9,4.1-20.5c0-4-0.9-7.2-2.8-9.5C266.9,233.4,264.4,232.3,261.3,232.3z"/>
<g>
</g>
<g>
</g>
<g>
</g>
<g>
</g>
<g>
</g>
<g>
</g>
<g>
</g>
<g>
</g>
<g>
</g>
<g>
</g>
<g>
</g>
<g>
</g>
<g>
</g>
<g>
</g>
<g>
</g>
</svg>
