<?xml version="1.0" encoding="iso-8859-1"?>
<!-- Generator: Adobe Illustrator 19.0.0, SVG Export Plug-In . SVG Version: 6.00 Build 0)  -->
<svg xmlns="http://www.w3.org/2000/svg" xmlns:xlink="http://www.w3.org/1999/xlink" version="1.1" id="Layer_1" x="0px" y="0px" viewBox="0 0 505 505" style="enable-background:new 0 0 505 505;" xml:space="preserve">
<circle style="fill:#54C0EB;" cx="252.5" cy="252.5" r="252.5"/>
<path style="fill:#FFFFFF;" d="M247.2,123.3l-74.5-1.9c-3.1-0.1-6.1,1.1-8.2,3.3l-35.8,35.8c-2.2,2.2-3.4,5.2-3.3,8.2l1.9,74.5  c0.1,2.9,1.2,5.6,3.3,7.7l159,159c4.4,4.4,11.5,4.4,15.9,0l108.4-108.4c4.4-4.4,4.4-11.5,0-15.9l-159-159  C252.8,124.6,250,123.4,247.2,123.3z"/>
<circle style="fill:#54C0EB;" cx="183.9" cy="179.9" r="21.4"/>
<path style="fill:#324A5E;" d="M121.7,117.8c-3.1,3.1-3.1,8.2,0,11.3l52.6,52.6c3.1,3.1,8.2,3.1,11.3,0s3.1-8.2,0-11.3L133,117.8  C129.9,114.7,124.9,114.7,121.7,117.8z"/>
<g>
</g>
<g>
</g>
<g>
</g>
<g>
</g>
<g>
</g>
<g>
</g>
<g>
</g>
<g>
</g>
<g>
</g>
<g>
</g>
<g>
</g>
<g>
</g>
<g>
</g>
<g>
</g>
<g>
</g>
</svg>
