<?xml version="1.0" encoding="iso-8859-1"?>
<!-- Generator: Adobe Illustrator 19.0.0, SVG Export Plug-In . SVG Version: 6.00 Build 0)  -->
<svg xmlns="http://www.w3.org/2000/svg" xmlns:xlink="http://www.w3.org/1999/xlink" version="1.1" id="Layer_1" x="0px" y="0px" viewBox="0 0 505 505" style="enable-background:new 0 0 505 505;" xml:space="preserve">
<circle style="fill:#324A5E;" cx="252.5" cy="252.5" r="252.5"/>
<rect x="238.3" y="76.3" style="fill:#54C0EB;" width="28.4" height="45.9"/>
<rect x="223.7" y="69.2" style="fill:#84DBFF;" width="57.5" height="25.3"/>
<circle style="fill:#FF7058;" cx="252.5" cy="275.2" r="160.6"/>
<circle style="fill:#FFFFFF;" cx="252.5" cy="275.2" r="133"/>
<g>
	<circle style="fill:#4CDBC4;" cx="252.5" cy="159.5" r="4.8"/>
	<circle style="fill:#4CDBC4;" cx="252.5" cy="391" r="4.8"/>
	<circle style="fill:#4CDBC4;" cx="368.2" cy="275.2" r="4.8"/>
	<circle style="fill:#4CDBC4;" cx="136.8" cy="275.2" r="4.8"/>
	<circle style="fill:#4CDBC4;" cx="334.3" cy="193.4" r="4.8"/>
	<circle style="fill:#4CDBC4;" cx="170.7" cy="357.1" r="4.8"/>
	<circle style="fill:#4CDBC4;" cx="334.3" cy="357.1" r="4.8"/>
	<circle style="fill:#4CDBC4;" cx="170.7" cy="193.4" r="4.8"/>
</g>
<path style="fill:#395767;" d="M315.5,219l-6.9-6.8L255.8,265c-1.1-0.4-2.2-0.7-3.4-0.7c-6,0-10.9,4.9-10.9,10.9s4.9,10.9,10.9,10.9  s10.9-4.9,10.9-10.9c0-1.2-0.3-2.3-0.7-3.4L315.5,219z"/>
<g>
</g>
<g>
</g>
<g>
</g>
<g>
</g>
<g>
</g>
<g>
</g>
<g>
</g>
<g>
</g>
<g>
</g>
<g>
</g>
<g>
</g>
<g>
</g>
<g>
</g>
<g>
</g>
<g>
</g>
</svg>
