<?xml version="1.0" encoding="iso-8859-1"?>
<!-- Generator: Adobe Illustrator 19.0.0, SVG Export Plug-In . SVG Version: 6.00 Build 0)  -->
<svg xmlns="http://www.w3.org/2000/svg" xmlns:xlink="http://www.w3.org/1999/xlink" version="1.1" id="Layer_1" x="0px" y="0px" viewBox="0 0 505 505" style="enable-background:new 0 0 505 505;" xml:space="preserve">
<circle style="fill:#324A5E;" cx="252.5" cy="252.5" r="252.5"/>
<path style="fill:#FFFFFF;" d="M329.8,405.5h-69v-68.9h-16.6v68.9h-69c-0.9,0-1.6,0.7-1.6,1.6v13.1c0,0.9,0.7,1.6,1.6,1.6h69h16.6  h69c0.9,0,1.6-0.7,1.6-1.6v-13.1C331.4,406.2,330.7,405.5,329.8,405.5z"/>
<circle style="fill:#FF7058;" cx="252.5" cy="413.3" r="18"/>
<polygon style="fill:#FFFFFF;" points="370.5,211.2 370.2,210.9 370.2,207.5 366.4,207.5 252.5,105.5 138.6,207.5 134.8,207.5   134.8,210.9 134.5,211.2 134.8,211.2 134.8,355.7 370.2,355.7 370.2,211.2 "/>
<g>
	<rect x="215.8" y="266.6" style="fill:#4CDBC4;" width="73.4" height="89.1"/>
	<polygon style="fill:#4CDBC4;" points="370.5,211.2 406.2,211.2 252.5,73.6 98.8,211.2 134.5,211.2 252.5,105.5  "/>
</g>
<g>
</g>
<g>
</g>
<g>
</g>
<g>
</g>
<g>
</g>
<g>
</g>
<g>
</g>
<g>
</g>
<g>
</g>
<g>
</g>
<g>
</g>
<g>
</g>
<g>
</g>
<g>
</g>
<g>
</g>
</svg>
