<?xml version="1.0" encoding="iso-8859-1"?>
<!-- Generator: Adobe Illustrator 19.0.0, SVG Export Plug-In . SVG Version: 6.00 Build 0)  -->
<svg xmlns="http://www.w3.org/2000/svg" xmlns:xlink="http://www.w3.org/1999/xlink" version="1.1" id="Layer_1" x="0px" y="0px" viewBox="0 0 505 505" style="enable-background:new 0 0 505 505;" xml:space="preserve">
<circle style="fill:#324A5E;" cx="252.5" cy="252.5" r="252.5"/>
<path style="fill:#FFFFFF;" d="M90.8,224.8c0,11.5,9.8,20.9,21.9,20.9h5.9c-11.5,0-20.9,9.3-20.9,20.9c0,11.5,9.4,20.9,20.9,20.9  h76.5c1.6,0.9,3,2.4,3.5,4.2c1,3.6-0.5,7.5-2.6,10.5c-5.4,7.6-14.5,11.5-21.9,17c-14.9,11-23.7,29.8-22.7,48.3  c0.4,8.4,3,17,8.5,23.4c4,4.6,9.9,7.8,15.9,8.4c3.7,0.4,6.9-2.3,7.7-5.9c3.9-19.8,16.4-37.9,33.8-48.3c12.4-7.4,43.1-32,46.8-36.4  c9.6-11.5,25.4-17.5,40-21.2h0.2V120.4h-95.4h-78.6c-10.5,0-19,9.3-19,20.9c0,11.5,8.5,20.9,19,20.9h-8.5  c-11.3,0-20.4,9.4-20.4,20.9s9.1,20.9,20.4,20.9h-9C100.6,203.9,90.8,213.3,90.8,224.8z"/>
<path style="fill:#FF7058;" d="M306,302h99.8c4.6,0,8.4-3.7,8.4-8.4V114.1c0-4.6-3.7-8.4-8.4-8.4H306c-4.6,0-8.4,3.7-8.4,8.4v179.5  C297.6,298.2,301.4,302,306,302z"/>
<circle style="fill:#324A5E;" cx="355.9" cy="131.3" r="9.4"/>
<g>
</g>
<g>
</g>
<g>
</g>
<g>
</g>
<g>
</g>
<g>
</g>
<g>
</g>
<g>
</g>
<g>
</g>
<g>
</g>
<g>
</g>
<g>
</g>
<g>
</g>
<g>
</g>
<g>
</g>
</svg>
