<?xml version="1.0" encoding="iso-8859-1"?>
<!-- Generator: Adobe Illustrator 19.0.0, SVG Export Plug-In . SVG Version: 6.00 Build 0)  -->
<svg xmlns="http://www.w3.org/2000/svg" xmlns:xlink="http://www.w3.org/1999/xlink" version="1.1" id="Layer_1" x="0px" y="0px" viewBox="0 0 505 505" style="enable-background:new 0 0 505 505;" xml:space="preserve">
<circle style="fill:#324A5E;" cx="252.5" cy="252.5" r="252.5"/>
<path style="fill:#FBDD56;" d="M240.1,79.8c-49.8,5.5-89.9,45.8-95.2,95.6c-3.5,32.8,7.7,63,27.8,84.9  c20.8,22.6,33.3,51.6,33.3,82.3c0,2.7,2.2,4.9,4.9,4.9h83.2c2.7,0,4.9-2.2,4.9-4.9l0,0c0-30.6,12.3-59.6,33.1-82  c17.8-19.2,28.6-44.9,28.6-73.2C360.8,123.5,305.5,72.6,240.1,79.8z"/>
<g>
	<path style="fill:#FFFFFF;" d="M293.9,356.5h-81.6c-3.4,0-6.2,2.8-6.2,6.2c0,3.4,2.8,6.2,6.2,6.2h81.6c3.4,0,6.2-2.8,6.2-6.2   S297.4,356.5,293.9,356.5z"/>
	<path style="fill:#FFFFFF;" d="M291.9,377.2h-77.6c-3.4,0-6.1,2.7-6.1,6.1v0.3c0,3.4,2.7,6.1,6.1,6.1h77.6c3.4,0,6.1-2.7,6.1-6.1   v-0.3C298,379.9,295.3,377.2,291.9,377.2z"/>
	<path style="fill:#FFFFFF;" d="M288.3,397.9H218c-3.2,0-5.8,2.6-5.8,5.8v0.8c0,3.2,2.6,5.8,5.8,5.8h70.3c3.2,0,5.8-2.6,5.8-5.8   v-0.8C294.1,400.5,291.5,397.9,288.3,397.9z"/>
</g>
<path style="fill:#ACB3BA;" d="M228.6,410.4l13.3,12.9c1.7,1.6,3.9,2.5,6.3,2.5h9.8c2.3,0,4.6-0.9,6.3-2.5l13.3-12.9H228.6z"/>
<polygon style="fill:#FFFFFF;" points="289.4,185 251.4,163.3 265.7,120.9 215.6,176.4 248.6,193.8 228.7,239.8 "/>
<g>
</g>
<g>
</g>
<g>
</g>
<g>
</g>
<g>
</g>
<g>
</g>
<g>
</g>
<g>
</g>
<g>
</g>
<g>
</g>
<g>
</g>
<g>
</g>
<g>
</g>
<g>
</g>
<g>
</g>
</svg>
