<?xml version="1.0" encoding="iso-8859-1"?>
<!-- Generator: Adobe Illustrator 19.0.0, SVG Export Plug-In . SVG Version: 6.00 Build 0)  -->
<svg xmlns="http://www.w3.org/2000/svg" xmlns:xlink="http://www.w3.org/1999/xlink" version="1.1" id="Layer_1" x="0px" y="0px" viewBox="0 0 505 505" style="enable-background:new 0 0 505 505;" xml:space="preserve">
<circle style="fill:#FFD05B;" cx="252.5" cy="252.5" r="252.5"/>
<polygon style="fill:#FFFFFF;" points="319.2,102.3 129.3,102.3 129.3,402.7 375.7,402.7 375.7,158.9 "/>
<polygon style="fill:#EDF2F2;" points="319.2,158.9 375.7,158.9 319.2,102.3 "/>
<polygon style="fill:#324A5E;" points="279.6,349.9 267,337.4 259.5,357.4 "/>
<polygon style="fill:#E6E9EE;" points="317.4,335.8 281.2,299.6 267,337.4 279.6,349.9 "/>
<path style="fill:#84DBFF;" d="M291.7,310.2l-10.6-10.6l-4.1,10.9C281.3,314.3,287.7,314.2,291.7,310.2z"/>
<path style="fill:#54C0EB;" d="M291.7,325.2c4.2,4.2,10.9,4.2,15,0l-15-15C287.6,314.3,287.6,321.1,291.7,325.2z"/>
<path style="fill:#84DBFF;" d="M306.8,325.2c-4,4-4.1,10.5-0.3,14.7l10.9-4.1L306.8,325.2z"/>
<rect x="278.731" y="257.497" transform="matrix(-0.7071 0.7071 -0.7071 -0.7071 785.1846 211.0599)" style="fill:#54C0EB;" width="140.299" height="21.3"/>
<g>
	<polygon style="fill:#84DBFF;" points="380.3,200.4 281.2,299.5 281.2,299.6 291.7,310.2 390.9,211  "/>
	<polygon style="fill:#84DBFF;" points="406,226 306.8,325.2 317.4,335.8 317.4,335.8 416.6,236.6  "/>
</g>
<path style="fill:#FF7058;" d="M432.6,207.4l-23-23c-3.7-3.7-9.6-3.7-13.2,0l-16,16l36.2,36.2l16-16  C436.3,216.9,436.3,211,432.6,207.4z"/>
<rect x="396.989" y="189.409" transform="matrix(-0.7071 0.7071 -0.7071 -0.7071 838.1367 82.9491)" style="fill:#EDF2F2;" width="9.8" height="51.3"/>
<g>
</g>
<g>
</g>
<g>
</g>
<g>
</g>
<g>
</g>
<g>
</g>
<g>
</g>
<g>
</g>
<g>
</g>
<g>
</g>
<g>
</g>
<g>
</g>
<g>
</g>
<g>
</g>
<g>
</g>
</svg>
