<?xml version="1.0" encoding="iso-8859-1"?>
<!-- Generator: Adobe Illustrator 19.0.0, SVG Export Plug-In . SVG Version: 6.00 Build 0)  -->
<svg xmlns="http://www.w3.org/2000/svg" xmlns:xlink="http://www.w3.org/1999/xlink" version="1.1" id="Layer_1" x="0px" y="0px" viewBox="0 0 505 505" style="enable-background:new 0 0 505 505;" xml:space="preserve">
<circle style="fill:#84DBFF;" cx="252.5" cy="252.5" r="252.5"/>
<path style="fill:#FFFFFF;" d="M106.4,185.8V369c0,6.4,5.2,11.6,11.6,11.6h268.9c6.4,0,11.6-5.2,11.6-11.6V185.8H106.4z"/>
<path style="fill:#FF7058;" d="M386.9,124.4H118.1c-6.4,0-11.6,5.2-11.6,11.6v58.8h292.2V136C398.6,129.6,393.4,124.4,386.9,124.4z"/>
<g>
	<circle style="fill:#FFFFFF;" cx="167.5" cy="159.6" r="12.3"/>
	<circle style="fill:#FFFFFF;" cx="252.5" cy="159.6" r="12.3"/>
	<circle style="fill:#FFFFFF;" cx="337.5" cy="159.6" r="12.3"/>
</g>
<g>
	<path style="fill:#4CDBC4;" d="M245,330.2h-53.9v-14.9h17.7v-53.1l-18.1,3.9v-15.2l36.8-7.4v71.8H245V330.2z"/>
	<path style="fill:#4CDBC4;" d="M279,314.2v0.4h34.6v15.6h-56.1v-14.7l24.4-23.4c4.9-4.7,8.4-8.7,10.4-11.9c2-3.2,3-6.5,3-10.1   c0-7.8-4.2-11.8-12.7-11.8c-7.3,0-14.3,2.9-21,8.7v-16.5c7.4-4.8,15.8-7.2,25.1-7.2c8.7,0,15.5,2.2,20.4,6.6s7.3,10.3,7.3,17.7   c0,9.9-6,20.2-17.9,30.8L279,314.2z"/>
</g>
<g>
</g>
<g>
</g>
<g>
</g>
<g>
</g>
<g>
</g>
<g>
</g>
<g>
</g>
<g>
</g>
<g>
</g>
<g>
</g>
<g>
</g>
<g>
</g>
<g>
</g>
<g>
</g>
<g>
</g>
</svg>
