<?xml version="1.0" encoding="iso-8859-1"?>
<!-- Generator: Adobe Illustrator 19.0.0, SVG Export Plug-In . SVG Version: 6.00 Build 0)  -->
<svg xmlns="http://www.w3.org/2000/svg" xmlns:xlink="http://www.w3.org/1999/xlink" version="1.1" id="Layer_1" x="0px" y="0px" viewBox="0 0 505 505" style="enable-background:new 0 0 505 505;" xml:space="preserve">
<circle style="fill:#FD8469;" cx="252.5" cy="252.5" r="252.5"/>
<path style="fill:#324A5E;" d="M377.7,127.3c-32-32-76.3-51.9-125.2-51.9s-93.2,19.8-125.2,51.9l125.2,125.2L377.7,127.3z"/>
<path style="fill:#FFFFFF;" d="M127.3,127.3c-32,32-51.9,76.3-51.9,125.2s19.8,93.2,51.9,125.2s76.3,51.9,125.2,51.9V252.5  L127.3,127.3z"/>
<path style="fill:#FFD05B;" d="M377.7,127.3L252.5,252.5v177.1c48.9,0,93.2-19.8,125.2-51.9c32-32,51.9-76.3,51.9-125.2  S409.8,159.3,377.7,127.3z"/>
<path style="fill:#FFFFFF;" d="M231.5,150.3c-4.7,0-8.4-1.5-11.3-4.4c-2.9-3-4.3-6.9-4.3-11.9c0-5.5,1.5-9.8,4.6-13  c3-3.2,7.1-4.8,12.1-4.8c4.8,0,8.6,1.4,11.4,4.3c2.7,2.9,4.1,7,4.1,12.2c0,5.4-1.5,9.7-4.5,12.9  C240.6,148.7,236.6,150.3,231.5,150.3z M279.4,117l-42.7,65.6h-11.2l42.6-65.6C268.1,117,279.4,117,279.4,117z M232.4,124.1  c-4.5,0-6.7,3.1-6.7,9.3c0,5.9,2.1,8.8,6.4,8.8c4.3,0,6.5-3,6.5-9.1C238.6,127.1,236.5,124.1,232.4,124.1z M272.4,183.5  c-4.7,0-8.4-1.5-11.3-4.4c-2.9-3-4.3-6.9-4.3-11.9c0-5.5,1.5-9.8,4.6-13c3-3.2,7.1-4.8,12.1-4.8c4.9,0,8.7,1.4,11.4,4.3  c2.7,2.9,4.1,6.9,4.1,12.2c0,5.4-1.5,9.7-4.5,12.9S277.4,183.5,272.4,183.5z M273.1,157.4c-4.4,0-6.6,3.1-6.6,9.3  c0,5.9,2.1,8.8,6.4,8.8s6.5-3,6.5-9.1c0-2.8-0.6-5-1.7-6.6C276.5,158.2,275,157.4,273.1,157.4z"/>
<g>
</g>
<g>
</g>
<g>
</g>
<g>
</g>
<g>
</g>
<g>
</g>
<g>
</g>
<g>
</g>
<g>
</g>
<g>
</g>
<g>
</g>
<g>
</g>
<g>
</g>
<g>
</g>
<g>
</g>
</svg>
