<?xml version="1.0" encoding="iso-8859-1"?>
<!-- Generator: Adobe Illustrator 19.0.0, SVG Export Plug-In . SVG Version: 6.00 Build 0)  -->
<svg xmlns="http://www.w3.org/2000/svg" xmlns:xlink="http://www.w3.org/1999/xlink" version="1.1" id="Layer_1" x="0px" y="0px" viewBox="0 0 505 505" style="enable-background:new 0 0 505 505;" xml:space="preserve">
<circle style="fill:#4CDBC4;" cx="252.5" cy="252.5" r="252.5"/>
<path style="fill:#FFFFFF;" d="M323.8,97.7L83,170.1c-10,3-15.7,13.6-12.7,23.6L114,339c3,10,13.6,15.7,23.6,12.7l240.8-72.4  c10-3,15.7-13.6,12.7-23.6l-43.7-145.3C344.4,100.4,333.8,94.7,323.8,97.7z"/>
<rect x="78.687" y="179.413" transform="matrix(-0.9576 0.2881 -0.2881 -0.9576 495.0566 328.0678)" style="fill:#2B3B4E;" width="289.4" height="42.1"/>
<path style="fill:#324A5E;" d="M400,194.5H148.6c-10.5,0-19,8.5-19,19v151.7c0,10.5,8.5,19,19,19H400c10.5,0,19-8.5,19-19V213.4  C419,203,410.5,194.5,400,194.5z"/>
<g>
	<path style="fill:#ACB3BA;" d="M336,332.4c0.1,0.7,0.2,1.5,0.7,2.1c1,1.1,2.8,0.8,4.1,0c1.3-0.7,2.5-1.8,4-1.8c1.1,0,2.7,0.3,3-0.7   c3.8,1.8,4.9,6.5,7.1,10.1c0.3,0.5,1,1.1,1.5,0.8c0.3-0.2,0.3-0.5,0.4-0.9c0.5-2.8,2.8-5,3.8-7.6c0.9-2.5,0.7-5.3-0.2-7.9   c-0.9-2.5-2.3-4.8-3.7-7.1c-0.7-1.1-1.5-2.3-2.8-2.5c0.2,1.1,0.3,2.3-0.2,3.3s-2,1.5-2.8,0.7c-1-1,0.1-3-0.8-4.2   c-0.6-0.8-2-0.7-2.8,0c-0.7,0.7-0.9,1.9-0.9,2.9c-1.1,0.6-2.4-0.1-3.5-0.8s-2.5-1.2-3.5-0.3c-0.7,0.6-0.7,1.8-1.1,2.7   c-0.4,0.8-1,1.5-1.6,2.2C335.2,325.9,335.6,329.3,336,332.4z"/>
	<path style="fill:#ACB3BA;" d="M339.5,307.1c0-0.7-0.2-1.4-0.3-2.1c-0.2-1.2-0.2-2.5,0.1-3.7c0.1-0.3,0.1-0.6-0.1-0.9   c-0.2-0.2-0.4-0.2-0.7-0.2c-0.7,0-1.5,0-2.2,0c0.1,1.3-0.6,2.5-1.6,3.3c-1.5,1.2-2.1,3.3-0.8,4.8c0,0,0,0.1,0.1,0.1   c1,1.1,2.5,1.6,4,1.4C338.9,309.3,339.5,308.3,339.5,307.1z"/>
	<path style="fill:#ACB3BA;" d="M268.4,304.4c0.2,0.8,0,1.6,0,2.4c0,2.8,2.8,5.1,2.8,7.9c0,1.5-0.7,2.9-0.9,4.4   c-0.1,1.4,0.3,2.7,0.7,4c1.1,3.7,2.2,7.3,3.3,11c0.2,0.5,0.3,1.1,0.7,1.6c1.4,1.8,4.5,0.6,5.6-1.4s0.9-4.4,1.6-6.6   c1.5-5.4,7.5-9.4,6.8-14.9c-0.3-2.6-2-5.3-0.7-7.5c0.8-1.4,2.5-1.9,3.8-2.7c1.4-0.8,2.6-2.5,1.9-3.9c-0.5-1-1.7-1.3-2.6-1.8   c-4.1-2.1-4.8-7.4-7.1-11.4c1.8-1,4,0.4,5.1,2.1s1.7,3.8,3.2,5.2c1.5,1.4,4.4,1.5,5.1-0.4c0.6-1.7-1-3.3-2.3-4.6   c-1.6-1.5-2.9-4.1-1.3-5.6c1.3-1.2,3.5-0.4,4.7,0.9c1.3,1.2,2.3,2.9,3.9,3.6c1.9,0.8,4.5,0.1,5.9,1.6c0.9,1,1,2.4,1.1,3.8   c0.3,3.2,1.2,6.3,2.7,9.1c1.6-1,2.5-3,2.3-4.8c-0.1-0.7,0.2-1.4,0.7-1.9l4.2-4c0.4-0.4,0.9-0.8,1.4-1c1.4-0.5,2.8,0.7,3.6,1.9   c1.2,1.8,1.9,4,3.2,5.8c0.6,0.8,1.3,1.6,2.2,2.1c2,1.2,4.1-1.2,2.9-3.2c-1.3-2-3.2-4.1-2-5.9c1.3-1.8,4.1-0.6,6.2-1.4   c2.6-1,2.9-4.5,2.2-7.2c-0.6-2.1-1.7-4.3-1.8-6.4c0-1,0.6-1.8,1.5-2.1c1.5-0.6,3.2-0.7,4.1,0.4c0.8,1,0.6,2.4,1.1,3.5   c0.4,1.2,2.3,1.9,2.8,0.8c-0.9-1.8-1.8-4.1-0.4-5.6c0.5-0.5,1.2-0.8,1.8-1.1c2.9-1.5,5.1-4.1,6-7.2c0.2-0.8,0.3-1.8-0.3-2.3   c-0.7-0.6-1.8-0.3-2.6-0.7c-1.2-0.6-1.2-2.4-0.3-3.4s2.2-1.4,3.4-1.8c4.7-1.4,9.4-2.7,14-4.1c0,0.6,0,1.2,0,1.8   c-2.1,0.4-3.7,2.1-4.3,4.1c-0.4,1.3,0.7,2.6,2.1,2.7c0.5,0,1,0,1.5,0.1c1.2,0,2.2-1,2.3-2.2c0.1-0.8,0.3-1.7,0.6-2.4   c0.2-0.4,0.5-0.7,0.9-0.9l8.1-4.8c0-0.7-0.1-1.3-0.1-2c1-0.1,12-0.1,12.9-0.2c0.6-1.8-11.6-3.2-13.4-3.7c-8.2-2.5-16.9-3.5-25.5-3   c-1.9,0.1-3.8,0.3-5.8,0.1c-3.7-0.4-7.1-2.2-10.8-2.5c-1.3-0.1-2.7,0-3.7-0.8s-1.1-2.8,0.2-3.1c-0.6-1.6-2.6-2.2-4.3-1.9   c-1.7,0.2-3.3,1-5,1.1c-2.7,0.1-5.9-1.4-7.8,0.6c-1,1.1-1,2.8-2,3.9c-2.2,2.5-6.9-0.1-9.4,2c-0.6,0.5-1,1.1-1.5,1.5   c-1,0.7-2.6,0.6-3.5-0.4s-0.8-2.6,0-3.5c0.7-0.8,1.9-2.2,0.9-2.5c-1.1-1.9-4.5-0.8-5,1.4c-0.3,1.1-0.1,2.2,0.4,3.3   c0.6,1.4-0.2,2.9-1.7,3.1c-1.8,0.3-3.5,0.8-5.2,1.6c-0.9,0.4-1.9,0.1-2.5-0.7c-1.4-2.1-4.2-3.3-6.8-3.1c-3.2,0.2-6,2-8.6,4   c-2.9,2.2-5.8,5-6.6,8.7c0.5,0.3,1,0.5,1.6,0.6c1,0.2,1.8,1,1.9,2v0.4c0.1,1.7,2.2,2.7,3.5,1.6c2.7-2.2,0.1-7,2.6-9   c1.2-1,3.1-0.9,3.9-2.1c0.3,2-0.8,4.1-2.6,5.1c1.4,1,3.2,1.3,4.8,0.7c0.8,0.8,0.1,2.2-0.9,2.8c-1,0.6-2.2,0.7-3,1.5   c-0.8,0.6-1.2,1.7-1.9,2.3c-1.5,1.4-3.9,1-6,1.1c-4,0.3-7.6,3.4-8.5,7.3c-0.1,0.5-0.3,1.2-0.7,1.5c-0.3,0.2-0.7,0.2-1.1,0.3   c-1.9,0.4-3.1,2.9-2.1,4.6s3.7,2,5.1,0.6c1.1-1.2,1.2-3.1,2.5-4c1.6-1.1,4.5-0.3,5.7-1.5c0.8-0.8,2.1-0.6,2.9,0.2   c1.9,2,3,6.2,5.7,5.7c0.1-0.8,0.1-1.7,0.2-2.5c1.8,0.1,2.7-2.2,3.4-3.9c0.7-1.7,3-3.3,4.2-1.9c0.7,0.7,1.3,1.6,1.7,2.6   c0.5,1.4-0.6,2.8-2.1,2.8c-1.5,0.1-3,0.4-4.4,0.9c-0.5,2.3,2.2,4.5,4.4,3.6v1.3c0,1.2-1,2.2-2.2,2.2l-8,0.1c-0.8,0-1.6,0-2.4-0.3   c-0.9-0.4-1.5-1.1-2.2-1.8c-3.8-3.3-10.2-2.1-13.8,1.4c-3.7,3.5-5.2,8.7-6.1,13.7c-0.2,1-0.3,2.1,0,3c0.3,0.8,1.1,1.4,1.8,2   c2.8,2,6.3,3.2,9.7,3.4C265,302.1,267.9,302.2,268.4,304.4z"/>
	<path style="fill:#ACB3BA;" d="M216.4,254L216.4,254c-2.4-1.1-5,0.2-6,2.6c-0.3,0.6-0.7,1.1-1.3,1.4c-1.4,0.7-3-0.1-4.3-0.9   c-1.5-0.9-3.1-1.8-3.9-3.4c-0.9-1.5-0.7-3.8,0.9-4.6c0.9-0.5,1.9-0.4,2.9-0.7c2.9-1,3.9-5.2,6.8-6c1.7-0.4,3.5,0.5,4.6,1.8   s1.7,3,2.2,4.7c1,0.7,2.5-0.1,2.8-1.3s-0.2-2.4-0.9-3.4c-1.9-2.5-5-3.7-7.2-5.9s-2.8-6.7,0.1-7.9c1.3-0.5,2.7-0.2,4,0.3   c4.2,1.7,7.5,5.3,8.7,9.6c0.8,2.8,0.8,5.8,1.9,8.6c0.1,0.4,0.3,0.7,0.5,1c1.6,2.8,5.8,2.9,7.4,0.1c1.1-1.8,2.7-3.4,4.3-4.9   c1.1-1.1,2.3-2.2,3.8-2.7c1.2-0.4,2.6-0.5,3.5-1.3c1.3-1.2,1-3.3,1-5.1c0-1.3,0.2-2.6,0.7-3.9c1.2-3.2-0.6-6.7-3.8-7.7   c-3.9-1.2-8.2-1.2-12.2,0c-3,0.9-6,2.6-9.2,2.2c-1.4-0.2-2.7-0.7-4-1.2c-5.1-1.7-10.7-1.5-15.7,0.5c-2.1,0.8-3.3,3-2.9,5.2   c0.3,1.6,0.7,3.2,1.3,4.8c-1.9,0.8-4.6,1.4-5.7-0.4c-0.4-0.6-0.4-1.3-0.7-2c-1.1-3.1-5.3-3.5-8.7-3.4c-1.5,0.1-3.1,0.1-4.5,0.8   s-2.5,2.2-2.2,3.7c0.2,1.2,1.2,2,1.8,3c0.7,1,1,2.4,0.1,3.2c-0.6,0.5-1.4,0.5-2.2,0.5c-5.3-0.1-10.5-0.1-15.8-0.2   c-3.1,0-6.6,0.1-8.2,3c-1.2,2.3-0.4,5.2,1.5,6.9c3.2,2.9,7.7,2.7,11.8,2.4c0.8-0.1,1.7-0.1,2.4,0.2c0.9,0.4,1.6,1.2,2.2,2.1   c2.4,3.4,4.4,7,6.1,10.9c3.2,7.2,5.1,15.2,9.9,21.4c2.4,3.2,5.6,5.9,9.1,7.7c3,1.6,6.5,2.8,8.3,5.6c1.9,3,1.4,6.8,2.2,10.2   c1.2,4.6,4.8,8.3,6,12.9c2,8.1-4.2,16.3-3.7,24.7c0.2,3.2,2.6,7,5.7,6.1c0-1-0.1-2-0.1-3.1c-0.1-3.6-0.2-7.5,1.7-10.6   c1.2,0.3,2.5-0.6,3.1-1.7s0.9-2.4,1.5-3.5c0.5-0.9,1.3-1.7,2.1-2.5c1.3-1.3,2.6-2.6,3.9-3.9c2.3-2.3,4.6-4.7,5.5-7.8   c0.5-1.7,0.5-3.5,1.4-5.1c0.5-0.9,1.2-1.6,1.4-2.6c0.4-2.2-1.9-3.8-4-4.5s-4.6-1.2-5.6-3.2c-0.4-0.7-0.5-1.6-0.8-2.3   c-0.9-1.9-3.3-2.6-5.2-3.7c-1.4-0.9-2.6-2.2-4-3c-1.4-0.9-3.4-1.3-4.8-0.4c-0.7,0.5-1.3,1.3-2.1,1.6c-1.4,0.5-2.9-0.9-3.5-2.3   s-0.8-3-1.8-4.2c-1.3-1.5-3.6-1.7-5.6-2s-4.3-1.4-4.5-3.4c-0.1-0.7,0.1-1.5,0.5-2.2c1.1-2.1,3.5-3.2,5.9-3.4c0.1,0,0.2,0,0.2,0   c3.3-0.2,6.3-1.8,7.9-4.6c0.5-0.8,1-1.6,1.6-2.3c1.8-2.3,3.9-4.3,6.3-6c2-1.4,4.3-2.8,5-5.2c0.6-2.2-0.4-4.5-2-6.1   C220.6,255.8,218.5,254.9,216.4,254z"/>
</g>
<g>
</g>
<g>
</g>
<g>
</g>
<g>
</g>
<g>
</g>
<g>
</g>
<g>
</g>
<g>
</g>
<g>
</g>
<g>
</g>
<g>
</g>
<g>
</g>
<g>
</g>
<g>
</g>
<g>
</g>
</svg>
