<?xml version="1.0" encoding="iso-8859-1"?>
<!-- Generator: Adobe Illustrator 19.0.0, SVG Export Plug-In . SVG Version: 6.00 Build 0)  -->
<svg xmlns="http://www.w3.org/2000/svg" xmlns:xlink="http://www.w3.org/1999/xlink" version="1.1" id="Layer_1" x="0px" y="0px" viewBox="0 0 505 505" style="enable-background:new 0 0 505 505;" xml:space="preserve">
<circle style="fill:#324A5E;" cx="252.5" cy="252.5" r="252.5"/>
<path style="fill:#84DBFF;" d="M399,401.9H106c-1.6,0-2.9-1.3-2.9-2.9V106c0-1.6,1.3-2.9,2.9-2.9h292.9c1.6,0,2.9,1.3,2.9,2.9v292.9  C401.9,400.6,400.6,401.9,399,401.9z"/>
<g>
	<rect x="116.2" y="177.8" style="fill:#FFFFFF;" width="272.5" height="209.4"/>
	<path style="fill:#FFFFFF;" d="M355.7,154.4h28.8c0.4,0,0.7-0.3,0.7-0.7v-28.8c0-0.4-0.3-0.7-0.7-0.7h-28.8c-0.4,0-0.7,0.3-0.7,0.7   v28.8C355,154,355.3,154.4,355.7,154.4z"/>
	<path style="fill:#FFFFFF;" d="M304.1,154.4h28.8c0.4,0,0.7-0.3,0.7-0.7v-28.8c0-0.4-0.3-0.7-0.7-0.7h-28.8c-0.4,0-0.7,0.3-0.7,0.7   v28.8C303.4,154,303.7,154.4,304.1,154.4z"/>
	<path style="fill:#FFFFFF;" d="M252.5,154.4h28.8c0.4,0,0.7-0.3,0.7-0.7v-28.8c0-0.4-0.3-0.7-0.7-0.7h-28.8c-0.4,0-0.7,0.3-0.7,0.7   v28.8C251.8,154,252.1,154.4,252.5,154.4z"/>
</g>
<polygon style="fill:#FF7058;" points="252.5,215.7 274.2,259.7 322.7,266.7 287.6,300.9 295.9,349.3 252.5,326.5 209.1,349.3   217.4,300.9 182.3,266.7 230.8,259.7 "/>
<g>
</g>
<g>
</g>
<g>
</g>
<g>
</g>
<g>
</g>
<g>
</g>
<g>
</g>
<g>
</g>
<g>
</g>
<g>
</g>
<g>
</g>
<g>
</g>
<g>
</g>
<g>
</g>
<g>
</g>
</svg>
