<?xml version="1.0" encoding="iso-8859-1"?>
<!-- Generator: Adobe Illustrator 19.0.0, SVG Export Plug-In . SVG Version: 6.00 Build 0)  -->
<svg xmlns="http://www.w3.org/2000/svg" xmlns:xlink="http://www.w3.org/1999/xlink" version="1.1" id="Layer_1" x="0px" y="0px" viewBox="0 0 505 505" style="enable-background:new 0 0 505 505;" xml:space="preserve">
<circle style="fill:#90DFAA;" cx="252.5" cy="252.5" r="252.5"/>
<path style="fill:#324A5E;" d="M334.8,123.6H160.9c-17.3,0-31.5,13.6-32.3,30.9l-9.5,208.3l226.5-27.4L334.8,123.6z"/>
<path style="fill:#2B3B4E;" d="M149.7,332.3c-16.8,0-30.5,13.7-30.5,30.5l0,0c0,16.8,13.7,30.5,30.5,30.5h196v-61H149.7z"/>
<path style="fill:#FFFFFF;" d="M149.7,381.1c-10.1,0-18.4-8.2-18.4-18.4s8.2-18.3,18.4-18.3h195.9v36.7L149.7,381.1L149.7,381.1z"/>
<g>
	<path style="fill:#395767;" d="M222.5,274.3l0.1,0.1L222.5,274.3z"/>
	<path style="fill:#395767;" d="M233.8,285.6L233.8,285.6L233.8,285.6z"/>
</g>
<polygon style="fill:#FF7058;" points="208.1,299 198.6,289.5 192.9,304.6 "/>
<g>
	<polygon style="fill:#FFFFFF;" points="236.6,288.3 209.2,261 198.6,289.5 208.1,299  "/>
	<path style="fill:#FFFFFF;" d="M383.8,131.1l-17.4-17.4c-2.8-2.8-7.2-2.8-10,0l-12.1,12.1l27.4,27.4l12.1-12.1   C386.5,138.4,386.5,133.9,383.8,131.1z"/>
</g>
<polygon style="fill:#F1543F;" points="228.6,280.3 363.7,145.2 352.3,133.9 217.2,269 217.3,269.1 217.3,280.3 228.6,280.3   228.6,280.3 228.6,280.3 "/>
<g>
	<polygon style="fill:#FF7058;" points="371.7,153.2 363.7,145.2 228.6,280.3 228.6,280.3 228.6,291.3 236.6,288.3 236.6,288.3    236.6,288.3  "/>
	<polygon style="fill:#FF7058;" points="344.3,125.9 209.3,261 209.2,261 209.2,261 206.2,269 217.2,269 352.3,133.9  "/>
</g>
<g>
</g>
<g>
</g>
<g>
</g>
<g>
</g>
<g>
</g>
<g>
</g>
<g>
</g>
<g>
</g>
<g>
</g>
<g>
</g>
<g>
</g>
<g>
</g>
<g>
</g>
<g>
</g>
<g>
</g>
</svg>
