<?xml version="1.0" encoding="iso-8859-1"?>
<!-- Generator: Adobe Illustrator 19.0.0, SVG Export Plug-In . SVG Version: 6.00 Build 0)  -->
<svg xmlns="http://www.w3.org/2000/svg" xmlns:xlink="http://www.w3.org/1999/xlink" version="1.1" id="Layer_1" x="0px" y="0px" viewBox="0 0 505 505" style="enable-background:new 0 0 505 505;" xml:space="preserve">
<circle style="fill:#54C0EB;" cx="252.5" cy="252.5" r="252.5"/>
<path style="fill:#324A5E;" d="M405.7,408.8H99.3c-1.7,0-3.1-1.4-3.1-3.1V99.3c0-1.7,1.4-3.1,3.1-3.1h306.5c1.7,0,3.1,1.4,3.1,3.1  v306.5C408.8,407.4,407.4,408.8,405.7,408.8z"/>
<rect x="109.9" y="174.3" style="fill:#FFFFFF;" width="285.2" height="219.2"/>
<g>
	<path style="fill:#FF7058;" d="M214.5,260.5L201,307.3h-15.2l-6.9-27.4c-0.5-1.8-0.7-3.8-0.8-6h-0.3c-0.2,2.4-0.5,4.3-0.9,5.8   l-7.4,27.6h-15l-13.1-46.8h14.7l6.4,30.5c0.3,1.4,0.5,3.2,0.7,5.2h0.3c0.2-2.1,0.4-3.9,0.8-5.4l8-30.3H186l7.2,30.5   c0.2,0.8,0.4,2.5,0.6,5.3h0.3c0.2-1.8,0.4-3.5,0.7-5.3l6.1-30.5L214.5,260.5L214.5,260.5z"/>
	<path style="fill:#FF7058;" d="M289,260.5l-13.5,46.8h-15.2l-6.9-27.4c-0.5-1.8-0.7-3.8-0.8-6h-0.1c-0.2,2.4-0.5,4.3-0.9,5.8   l-7.4,27.6h-15L216,260.5h14.7l6.4,30.5c0.3,1.4,0.5,3.2,0.7,5.2h0.3c0.2-2.1,0.4-3.9,0.8-5.4l8-30.3h13.7l7.2,30.5   c0.2,0.8,0.4,2.5,0.6,5.3h0.3c0.2-1.8,0.4-3.5,0.7-5.3l6.1-30.5L289,260.5L289,260.5z"/>
	<path style="fill:#FF7058;" d="M363.6,260.5l-13.5,46.8h-15.2l-6.9-27.4c-0.5-1.8-0.7-3.8-0.8-6h-0.3c-0.2,2.4-0.5,4.3-0.9,5.8   l-7.4,27.6h-15l-13.1-46.8h14.7l6.4,30.5c0.3,1.4,0.5,3.2,0.7,5.2h0.3c0.2-2.1,0.4-3.9,0.8-5.4l8-30.3h13.7l7.2,30.5   c0.2,0.8,0.4,2.5,0.6,5.3h0.3c0.2-1.8,0.4-3.5,0.7-5.3l6.1-30.5L363.6,260.5L363.6,260.5z"/>
</g>
<g>
	<path style="fill:#E6E9EE;" d="M360.5,149.8h30.2c0.4,0,0.7-0.3,0.7-0.7v-30.2c0-0.4-0.3-0.7-0.7-0.7h-30.2c-0.4,0-0.7,0.3-0.7,0.7   v30.2C359.7,149.5,360.1,149.8,360.5,149.8z"/>
	<path style="fill:#E6E9EE;" d="M306.5,149.8h30.2c0.4,0,0.7-0.3,0.7-0.7v-30.2c0-0.4-0.3-0.7-0.7-0.7h-30.2c-0.4,0-0.7,0.3-0.7,0.7   v30.2C305.8,149.5,306.1,149.8,306.5,149.8z"/>
	<path style="fill:#E6E9EE;" d="M252.5,149.8h30.2c0.4,0,0.7-0.3,0.7-0.7v-30.2c0-0.4-0.3-0.7-0.7-0.7h-30.2c-0.4,0-0.7,0.3-0.7,0.7   v30.2C251.8,149.5,252.1,149.8,252.5,149.8z"/>
</g>
<g>
</g>
<g>
</g>
<g>
</g>
<g>
</g>
<g>
</g>
<g>
</g>
<g>
</g>
<g>
</g>
<g>
</g>
<g>
</g>
<g>
</g>
<g>
</g>
<g>
</g>
<g>
</g>
<g>
</g>
</svg>
