<?xml version="1.0" encoding="iso-8859-1"?>
<!-- Generator: Adobe Illustrator 19.0.0, SVG Export Plug-In . SVG Version: 6.00 Build 0)  -->
<svg xmlns="http://www.w3.org/2000/svg" xmlns:xlink="http://www.w3.org/1999/xlink" version="1.1" id="Layer_1" x="0px" y="0px" viewBox="0 0 505 505" style="enable-background:new 0 0 505 505;" xml:space="preserve">
<circle style="fill:#FFD05B;" cx="252.5" cy="252.5" r="252.5"/>
<path style="fill:#FF7058;" d="M425.8,364.7l-165.2-290c-3.6-6.3-12.6-6.3-16.2,0l-165.2,290c-3.5,6.2,0.9,13.9,8.1,13.9h330.5  C424.9,378.6,429.4,370.9,425.8,364.7z"/>
<path style="fill:#FFFFFF;" d="M254.3,108.2c-0.8-1.4-2.8-1.4-3.6,0L112,351.5c-0.8,1.4,0.2,3.1,1.8,3.1h277.3  c1.6,0,2.6-1.7,1.8-3.1L254.3,108.2z"/>
<path style="fill:#395767;" d="M252.6,324.2c-4.8,0-8.8-1.5-11.9-4.4c-3.1-2.9-4.7-6.5-4.7-10.6c0-4.3,1.6-7.9,4.7-10.6  c3.2-2.8,7.1-4.2,11.9-4.2s8.8,1.4,11.8,4.2c3.1,2.8,4.6,6.3,4.6,10.6c0,4.3-1.5,7.9-4.6,10.7C261.4,322.8,257.5,324.2,252.6,324.2z   M267.4,192.7l-3.5,89.1h-23.1l-3.3-89.1L267.4,192.7L267.4,192.7z"/>
<g>
</g>
<g>
</g>
<g>
</g>
<g>
</g>
<g>
</g>
<g>
</g>
<g>
</g>
<g>
</g>
<g>
</g>
<g>
</g>
<g>
</g>
<g>
</g>
<g>
</g>
<g>
</g>
<g>
</g>
</svg>
