<?xml version="1.0" encoding="iso-8859-1"?>
<!-- Generator: Adobe Illustrator 19.0.0, SVG Export Plug-In . SVG Version: 6.00 Build 0)  -->
<svg xmlns="http://www.w3.org/2000/svg" xmlns:xlink="http://www.w3.org/1999/xlink" version="1.1" id="Layer_1" x="0px" y="0px" viewBox="0 0 505 505" style="enable-background:new 0 0 505 505;" xml:space="preserve">
<circle style="fill:#FD8469;" cx="252.5" cy="252.5" r="252.5"/>
<rect x="178.9" y="188.8" style="fill:#EDF2F2;" width="147.1" height="111.8"/>
<g>
	<path style="fill:#FFFFFF;" d="M397.5,235.2c-8-39.9-49-64.8-88.9-52c-29.7,9.5-49,36.9-47.7,68.1c1,23.3,12.8,42.7,29.9,54.4   c26.4,18.1,46.8,43.3,59,72.4c7,16.8,24.6,26.6,42.5,23c20.5-4.1,33.7-24,29.6-44.5l-24.1-119.9h-0.1   C397.7,236.2,397.6,235.7,397.5,235.2z"/>
	<path style="fill:#FFFFFF;" d="M107.5,235.2c8-39.9,49-64.8,88.9-52c29.7,9.5,49,36.9,47.7,68.1c-1,23.3-12.8,42.7-29.9,54.4   c-26.4,18.1-46.8,43.3-59,72.4c-7,16.8-24.6,26.6-42.5,23c-20.5-4.1-33.7-24-29.6-44.5l24.1-119.9h0.1   C107.3,236.2,107.4,235.7,107.5,235.2z"/>
</g>
<g>
	<circle style="fill:#FFD05B;" cx="298.9" cy="244.7" r="10"/>
	<circle style="fill:#FFD05B;" cx="353.2" cy="244.7" r="10"/>
</g>
<g>
	<circle style="fill:#84DBFF;" cx="326.1" cy="217.5" r="10"/>
	<circle style="fill:#84DBFF;" cx="326.1" cy="271.8" r="10"/>
</g>
<path style="fill:#324A5E;" d="M191.8,242.4h-10.3v-10.3c0-3.6-3-6.6-6.6-6.6s-6.6,3-6.6,6.6v10.3H158c-3.6,0-6.6,3-6.6,6.6  s3,6.6,6.6,6.6h10.3v10.3c0,3.6,3,6.6,6.6,6.6s6.6-3,6.6-6.6v-10.3h10.3c3.6,0,6.6-3,6.6-6.6C198.4,245.4,195.4,242.4,191.8,242.4z"/>
<path style="fill:#395767;" d="M256.4,188.8h-7.8v-19.4c0-12,9.7-21.7,21.7-21.7h47.9c7.7,0,13.9-6.2,13.9-13.9s-6.2-13.9-13.9-13.9  H208.1c-12,0-21.7-9.7-21.7-21.7V79.6h7.8v18.6c0,7.7,6.2,13.9,13.9,13.9h110.1c12,0,21.7,9.7,21.7,21.7s-9.7,21.7-21.7,21.7h-47.9  c-7.7,0-13.9,6.2-13.9,13.9L256.4,188.8L256.4,188.8z"/>
<g>
</g>
<g>
</g>
<g>
</g>
<g>
</g>
<g>
</g>
<g>
</g>
<g>
</g>
<g>
</g>
<g>
</g>
<g>
</g>
<g>
</g>
<g>
</g>
<g>
</g>
<g>
</g>
<g>
</g>
</svg>
