<?xml version="1.0" encoding="iso-8859-1"?>
<!-- Generator: Adobe Illustrator 19.0.0, SVG Export Plug-In . SVG Version: 6.00 Build 0)  -->
<svg xmlns="http://www.w3.org/2000/svg" xmlns:xlink="http://www.w3.org/1999/xlink" version="1.1" id="Layer_1" x="0px" y="0px" viewBox="0 0 505 505" style="enable-background:new 0 0 505 505;" xml:space="preserve">
<circle style="fill:#FFD05B;" cx="252.5" cy="252.5" r="252.5"/>
<g>
	<polygon style="fill:#FFFFFF;" points="319.1,307.5 268.4,307.5 268.4,117.5 293.3,80.6 319.1,117.5  "/>
	<path style="fill:#FFFFFF;" d="M266,307.5c-0.9,0-1.7,0.8-1.7,1.7v29.9h-18.1c-19.9,0-35.9,16.1-35.9,35.9v10.5   c0,19.7,15.2,36.8,34.8,37.4c20.4,0.6,37.1-15.7,37.1-35.9v-48v-31.5H266z M269,388.8c0,12.6-10.2,22.8-22.8,22.8   c-12.6,0-22.8-10.2-22.8-22.8v-15.7c0-12.6,10.2-22.8,22.8-22.8H269V388.8z"/>
	<path style="fill:#FFFFFF;" d="M341.4,339h-18.1v-29.9c0-0.9-0.8-1.7-1.7-1.7h-16.2v31.5v46.6c0,19.7,15.2,36.8,34.8,37.4   c20.4,0.6,37.1-15.7,37.1-35.9v-12C377.3,355.1,361.2,339,341.4,339z M364.1,388.8c0,12.6-10.2,22.8-22.8,22.8   c-12.6,0-22.8-10.2-22.8-22.8v-38.4h22.8c12.6,0,22.8,10.2,22.8,22.8V388.8z"/>
</g>
<g>
	<path style="fill:#324A5E;" d="M282.6,322.6h-18.8c-0.6,0-1.1,0.5-1.1,1.1v13.8h-16.5c-20.7,0-37.5,16.8-37.5,37.5v10.7   c0,19,13.7,36,32.6,38.5c22.9,2.9,42.4-14.9,42.4-37.2v-63.3C283.7,323.1,283.2,322.6,282.6,322.6z M267.5,388.8   c0,11.7-9.5,21.2-21.2,21.2s-21.2-9.5-21.2-21.2v-15.7c0-11.7,9.5-21.2,21.2-21.2h21.2V388.8z"/>
	<path style="fill:#324A5E;" d="M341.4,337.5h-16.5v-13.8c0-0.6-0.5-1.1-1.1-1.1H305c-0.6,0-1.1,0.5-1.1,1.1v62   c0,19,13.7,36,32.6,38.5c22.9,2.9,42.4-14.9,42.4-37.2v-12C378.9,354.2,362.1,337.5,341.4,337.5z M362.6,388.8   c0,11.7-9.5,21.2-21.2,21.2s-21.2-9.5-21.2-21.2v-36.9h21.2c11.7,0,21.2,9.5,21.2,21.2V388.8z"/>
</g>
<circle style="fill:#395767;" cx="293.8" cy="283.1" r="6.9"/>
<polygon style="fill:#324A5E;" points="160.7,403.7 142.9,403.7 151.8,423.2 "/>
<polygon style="fill:#FFFFFF;" points="177.4,367 126.2,367 142.9,403.7 160.7,403.7 "/>
<path style="fill:#FF7058;" d="M141.1,367h-15l4.8,10.6C136.6,377.4,141.1,372.7,141.1,367z"/>
<path style="fill:#F1543F;" d="M151.8,377.7c5.9,0,10.6-4.8,10.6-10.6h-21.3C141.1,372.9,145.9,377.7,151.8,377.7z"/>
<path style="fill:#FF7058;" d="M162.4,367c0,5.7,4.5,10.3,10.1,10.6l4.8-10.6H162.4z"/>
<rect x="141.1" y="113.9" style="fill:#F1543F;" width="21.3" height="253.2"/>
<g>
	<polygon style="fill:#FF7058;" points="126.1,113.9 126.1,367 126.2,367 141.1,367 141.1,113.9  "/>
	<polygon style="fill:#FF7058;" points="162.4,113.9 162.4,367 177.4,367 177.4,367 177.4,113.9  "/>
</g>
<path style="fill:#F1543F;" d="M168,81.8h-32.5c-5.2,0-9.4,4.2-9.4,9.4v22.7h51.3V91.2C177.4,86,173.2,81.8,168,81.8z"/>
<rect x="126.1" y="104.1" style="fill:#EDF2F2;" width="51.3" height="9.8"/>
<g>
</g>
<g>
</g>
<g>
</g>
<g>
</g>
<g>
</g>
<g>
</g>
<g>
</g>
<g>
</g>
<g>
</g>
<g>
</g>
<g>
</g>
<g>
</g>
<g>
</g>
<g>
</g>
<g>
</g>
</svg>
