<?xml version="1.0" encoding="iso-8859-1"?>
<!-- Generator: Adobe Illustrator 19.0.0, SVG Export Plug-In . SVG Version: 6.00 Build 0)  -->
<svg xmlns="http://www.w3.org/2000/svg" xmlns:xlink="http://www.w3.org/1999/xlink" version="1.1" id="Layer_1" x="0px" y="0px" viewBox="0 0 505 505" style="enable-background:new 0 0 505 505;" xml:space="preserve">
<path style="fill:#84DBFF;" d="M0,252.5C0,113,113,0,252.5,0C391.9,0,505,113,505,252.5S391.9,505,252.5,505C113,505,0,392,0,252.5z  "/>
<rect x="160.786" y="103.242" transform="matrix(0.7071 0.7071 -0.7071 0.7071 252.5387 -104.6022)" style="fill:#395767;" width="183.498" height="298.597"/>
<g>
	<path style="fill:#CED5E0;" d="M394.6,227.1l8.9-8.9c1.3-1.3,1.3-3.4,0-4.7l-12.3-12.3c-1.3-1.3-3.4-1.3-4.7,0l-8.9,8.9   c-1.3,1.3-1.3,3.4,0,4.7l12.3,12.3C391.2,228.4,393.3,228.4,394.6,227.1z"/>
	<path style="fill:#CED5E0;" d="M295.1,127.3l8.9-8.9c1.3-1.3,1.3-3.4,0-4.7l-12.3-12.3c-1.3-1.3-3.4-1.3-4.7,0l-8.9,8.9   c-1.3,1.3-1.3,3.4,0,4.7l12.3,12.3C291.7,128.6,293.8,128.6,295.1,127.3z"/>
	<path style="fill:#CED5E0;" d="M369.4,252.3l8.9-8.9c1.3-1.3,1.3-3.4,0-4.7L366,226.4c-1.3-1.3-3.4-1.3-4.7,0l-8.9,8.9   c-1.3,1.3-1.3,3.4,0,4.7l12.3,12.3C366,253.6,368.1,253.6,369.4,252.3z"/>
	<path style="fill:#CED5E0;" d="M269.9,152.5l8.9-8.9c1.3-1.3,1.3-3.4,0-4.7l-12.3-12.4c-1.3-1.3-3.4-1.3-4.7,0l-8.9,8.9   c-1.3,1.3-1.3,3.4,0,4.7l12.3,12.3C266.5,153.8,268.6,153.8,269.9,152.5z"/>
	<path style="fill:#CED5E0;" d="M344.2,277.6l8.9-8.9c1.3-1.3,1.3-3.4,0-4.7l-12.3-12.3c-1.3-1.3-3.4-1.3-4.7,0l-8.9,8.9   c-1.3,1.3-1.3,3.4,0,4.7l12.3,12.3C340.8,278.9,342.9,278.9,344.2,277.6z"/>
	<path style="fill:#CED5E0;" d="M244.7,177.7l8.9-8.9c1.3-1.3,1.3-3.4,0-4.7l-12.3-12.3c-1.3-1.3-3.4-1.3-4.7,0l-8.9,8.9   c-1.3,1.3-1.3,3.4,0,4.7l12.3,12.3C241.3,179,243.4,179,244.7,177.7z"/>
	<path style="fill:#CED5E0;" d="M318.9,302.8l8.9-8.9c1.3-1.3,1.3-3.4,0-4.7l-12.3-12.4c-1.3-1.3-3.4-1.3-4.7,0l-8.9,8.9   c-1.3,1.3-1.3,3.4,0,4.7l12.3,12.3C315.5,304.1,317.6,304.1,318.9,302.8z"/>
	<path style="fill:#CED5E0;" d="M219.4,202.9l8.9-8.9c1.3-1.3,1.3-3.4,0-4.7L216,177c-1.3-1.3-3.4-1.3-4.7,0l-8.9,8.9   c-1.3,1.3-1.3,3.4,0,4.7l12.3,12.3C216,204.2,218.1,204.3,219.4,202.9z"/>
	<path style="fill:#CED5E0;" d="M293.7,328l8.9-8.9c1.3-1.3,1.3-3.4,0-4.7l-12.3-12.3c-1.3-1.3-3.4-1.3-4.7,0l-8.9,8.9   c-1.3,1.3-1.3,3.4,0,4.7L289,328C290.3,329.3,292.4,329.3,293.7,328z"/>
	<path style="fill:#CED5E0;" d="M194.2,228.2l8.9-8.9c1.3-1.3,1.3-3.4,0-4.7l-12.3-12.3c-1.3-1.3-3.4-1.3-4.7,0l-8.9,8.9   c-1.3,1.3-1.3,3.4,0,4.7l12.3,12.3C190.8,229.5,192.9,229.5,194.2,228.2z"/>
	<path style="fill:#CED5E0;" d="M268.5,353.3l8.9-8.9c1.3-1.3,1.3-3.4,0-4.7l-12.3-12.3c-1.3-1.3-3.4-1.3-4.7,0l-8.9,8.9   c-1.3,1.3-1.3,3.4,0,4.7l12.3,12.3C265.1,354.6,267.2,354.6,268.5,353.3z"/>
	<path style="fill:#CED5E0;" d="M169,253.4l8.9-8.9c1.3-1.3,1.3-3.4,0-4.7l-12.4-12.4c-1.3-1.3-3.4-1.3-4.7,0l-8.9,8.9   c-1.3,1.3-1.3,3.4,0,4.7l12.3,12.3C165.6,254.7,167.7,254.7,169,253.4z"/>
	<path style="fill:#CED5E0;" d="M243.2,378.5l8.9-8.9c1.3-1.3,1.3-3.4,0-4.7l-12.3-12.4c-1.3-1.3-3.4-1.3-4.7,0l-8.9,8.9   c-1.3,1.3-1.3,3.4,0,4.7l12.3,12.4C239.8,379.8,241.9,379.8,243.2,378.5z"/>
	<path style="fill:#CED5E0;" d="M143.7,278.6l8.9-8.9c1.3-1.3,1.3-3.4,0-4.7l-12.3-12.3c-1.3-1.3-3.4-1.3-4.7,0l-8.9,8.9   c-1.3,1.3-1.3,3.4,0,4.7l12.3,12.3C140.3,279.9,142.4,279.9,143.7,278.6z"/>
	<path style="fill:#CED5E0;" d="M218,403.7l8.9-8.9c1.3-1.3,1.3-3.4,0-4.7l-12.3-12.3c-1.3-1.3-3.4-1.3-4.7,0l-8.9,8.9   c-1.3,1.3-1.3,3.4,0,4.7l12.3,12.3C214.6,405,216.7,405,218,403.7z"/>
	<path style="fill:#CED5E0;" d="M118.5,303.9l8.9-8.9c1.3-1.3,1.3-3.4,0-4.7L115.1,278c-1.3-1.3-3.4-1.3-4.7,0l-8.9,8.9   c-1.3,1.3-1.3,3.4,0,4.7l12.3,12.3C115.1,305.2,117.2,305.2,118.5,303.9z"/>
	
		<rect x="242.09" y="151.166" transform="matrix(0.7071 -0.7071 0.7071 0.7071 -53.0821 273.779)" style="fill:#CED5E0;" width="123.699" height="99.599"/>
	
		<rect x="138.77" y="253.217" transform="matrix(0.7071 -0.7071 0.7071 0.7071 -155.1244 231.5302)" style="fill:#CED5E0;" width="126.299" height="99.599"/>
</g>
<circle style="fill:#FFFFFF;" cx="319.1" cy="319.1" r="85.2"/>
<polygon style="fill:#FF7058;" points="297.5,269.5 297.5,368.7 352.1,319.1 "/>
<g>
</g>
<g>
</g>
<g>
</g>
<g>
</g>
<g>
</g>
<g>
</g>
<g>
</g>
<g>
</g>
<g>
</g>
<g>
</g>
<g>
</g>
<g>
</g>
<g>
</g>
<g>
</g>
<g>
</g>
</svg>
