<?xml version="1.0" encoding="iso-8859-1"?>
<!-- Generator: Adobe Illustrator 19.0.0, SVG Export Plug-In . SVG Version: 6.00 Build 0)  -->
<svg xmlns="http://www.w3.org/2000/svg" xmlns:xlink="http://www.w3.org/1999/xlink" version="1.1" id="Layer_1" x="0px" y="0px" viewBox="0 0 505 505" style="enable-background:new 0 0 505 505;" xml:space="preserve">
<circle style="fill:#90DFAA;" cx="252.5" cy="252.5" r="252.5"/>
<g>
	<path style="fill:#324A5E;" d="M421.6,308.4c-12.9-6-26.6-11-41-13.3c-36.1-5.5-71.9,6.5-102,19c-2.9,1.2-5.8,2.4-8.7,3.7l6.8,14.7   c2.6-1.2,5.3-2.3,8-3.5c28.1-11.7,61.3-23.1,93.3-17.9c15.1,2.3,29.8,8.3,43.6,15.2V308.4z"/>
	<circle style="fill:#324A5E;" cx="232.5" cy="252.5" r="89.6"/>
</g>
<path style="fill:#FFFFFF;" d="M232.5,103.3c-82.4,0-149.1,66.8-149.1,149.2s66.8,149.1,149.1,149.1s149.2-66.7,149.2-149.1  S314.9,103.3,232.5,103.3z M194.9,270.3h-76v-35.6h76V270.3z M250.3,366.2h-35.6v-76h35.6L250.3,366.2L250.3,366.2z M250.3,214.8  h-35.6v-76h35.6L250.3,214.8L250.3,214.8z M270.2,270.3v-35.6h76v35.6H270.2z"/>
<circle style="fill:#FFD05B;" cx="232.5" cy="252.5" r="23"/>
<g>
</g>
<g>
</g>
<g>
</g>
<g>
</g>
<g>
</g>
<g>
</g>
<g>
</g>
<g>
</g>
<g>
</g>
<g>
</g>
<g>
</g>
<g>
</g>
<g>
</g>
<g>
</g>
<g>
</g>
</svg>
