<?xml version="1.0" encoding="iso-8859-1"?>
<!-- Generator: Adobe Illustrator 19.0.0, SVG Export Plug-In . SVG Version: 6.00 Build 0)  -->
<svg xmlns="http://www.w3.org/2000/svg" xmlns:xlink="http://www.w3.org/1999/xlink" version="1.1" id="Layer_1" x="0px" y="0px" viewBox="0 0 505 505" style="enable-background:new 0 0 505 505;" xml:space="preserve">
<circle style="fill:#54C0EB;" cx="252.5" cy="252.5" r="252.5"/>
<path style="fill:#FFFFFF;" d="M344,101H161c-8,0-14.5,6.5-14.5,14.5v274c0,8,6.5,14.5,14.5,14.5h183.1c8,0,14.5-6.5,14.5-14.5v-274  C358.6,107.5,352.1,101,344,101z"/>
<rect x="163.3" y="117.9" style="fill:#324A5E;" width="178.3" height="147.7"/>
<circle style="fill:#FF7058;" cx="252.5" cy="334.8" r="40.3"/>
<path style="fill:#FFFFFF;" d="M242.3,314.9v39.8c0,1.8,2,2.8,3.4,1.7l25.7-19.9c1.1-0.9,1.1-2.5,0-3.4l-25.7-19.9  C244.3,312.2,242.3,313.2,242.3,314.9z"/>
<g>
</g>
<g>
</g>
<g>
</g>
<g>
</g>
<g>
</g>
<g>
</g>
<g>
</g>
<g>
</g>
<g>
</g>
<g>
</g>
<g>
</g>
<g>
</g>
<g>
</g>
<g>
</g>
<g>
</g>
</svg>
