<?xml version="1.0" encoding="iso-8859-1"?>
<!-- Generator: Adobe Illustrator 19.0.0, SVG Export Plug-In . SVG Version: 6.00 Build 0)  -->
<svg xmlns="http://www.w3.org/2000/svg" xmlns:xlink="http://www.w3.org/1999/xlink" version="1.1" id="Layer_1" x="0px" y="0px" viewBox="0 0 505 505" style="enable-background:new 0 0 505 505;" xml:space="preserve">
<circle style="fill:#324A5E;" cx="252.5" cy="252.5" r="252.5"/>
<g>
	<circle style="fill:#EDF2F2;" cx="252.5" cy="252.5" r="167"/>
	
		<rect x="249.6" y="249.605" transform="matrix(0.7071 0.7071 -0.7071 0.7071 252.5034 -104.5875)" style="fill:#EDF2F2;" width="5.8" height="5.8"/>
</g>
<g>
	<path style="fill:#FFFFFF;" d="M253.9,247l-1.4,1.4l4.1,4.1l1.4-1.4l6.3,5.3l131.4-89.9c-6.9-11.4-15.2-22.3-25.1-32.1   c-9.9-9.9-20.7-18.2-32.1-25.1l-89.8,131.4L253.9,247z"/>
	<path style="fill:#FFFFFF;" d="M251.1,258l1.4-1.4l-4.1-4.1l-1.4,1.4l-6.3-5.3l-131.4,89.9c6.9,11.4,15.2,22.3,25.1,32.1   c9.9,9.9,20.7,18.2,32.1,25.1l89.8-131.4L251.1,258z"/>
	<path style="fill:#FFFFFF;" d="M383.3,356.3l-119-99.9L262,258l-5.4-5.4l-4.1,4.1l5.4,5.4l-1.6,2.3l99.9,119   c4.9-3.9,9.7-8.2,14.3-12.7C375.2,366,379.4,361.2,383.3,356.3z"/>
	<polygon style="fill:#FFFFFF;" points="256.6,252.5 262,257.9 264.3,256.4 258,251.1  "/>
	<polygon style="fill:#FFFFFF;" points="256.4,264.3 257.9,262 252.5,256.6 251.1,258  "/>
	<path style="fill:#FFFFFF;" d="M243,247.1l5.4,5.4l4.1-4.1l-5.4-5.4l1.6-2.3l-99.9-119c-4.9,3.9-9.7,8.1-14.3,12.7   c-4.6,4.6-8.8,9.4-12.7,14.3l119,99.9L243,247.1z"/>
	<polygon style="fill:#FFFFFF;" points="248.6,240.7 247.1,243 252.5,248.4 253.9,247  "/>
	<polygon style="fill:#FFFFFF;" points="240.7,248.6 247,253.9 248.4,252.5 243,247.1  "/>
</g>
<circle style="fill:#ACB3BA;" cx="252.5" cy="252.5" r="43.2"/>
<circle style="fill:#395767;" cx="252.5" cy="252.5" r="25.9"/>
<g>
</g>
<g>
</g>
<g>
</g>
<g>
</g>
<g>
</g>
<g>
</g>
<g>
</g>
<g>
</g>
<g>
</g>
<g>
</g>
<g>
</g>
<g>
</g>
<g>
</g>
<g>
</g>
<g>
</g>
</svg>
