<?xml version="1.0" encoding="iso-8859-1"?>
<!-- Generator: Adobe Illustrator 19.0.0, SVG Export Plug-In . SVG Version: 6.00 Build 0)  -->
<svg xmlns="http://www.w3.org/2000/svg" xmlns:xlink="http://www.w3.org/1999/xlink" version="1.1" id="Layer_1" x="0px" y="0px" viewBox="0 0 505 505" style="enable-background:new 0 0 505 505;" xml:space="preserve">
<circle style="fill:#90DFAA;" cx="252.5" cy="252.5" r="252.5"/>
<path style="fill:#395767;" d="M174.3,115.2c-1-0.4-1.9-0.5-2.8-0.4c-0.5,0.1-1.8,0.4-2.2,1.5c-0.6,1.5,0.7,3.6,2.8,4.6l171.4,82  l7.4-18.6L174.3,115.2z"/>
<path style="fill:#FFFFFF;" d="M376.4,182.5H107c-7.2,0-13,5.8-13,13v181.8c0,7.2,5.8,13,13,13h269.4c7.2,0,13-5.8,13-13V195.5  C389.4,188.3,383.6,182.5,376.4,182.5z"/>
<g>
	<rect x="131.6" y="280.2" style="fill:#E6E9EE;" width="6.1" height="6.1"/>
	<rect x="143.9" y="280.2" style="fill:#E6E9EE;" width="6.1" height="6.1"/>
	<rect x="137.8" y="286.3" style="fill:#E6E9EE;" width="6.1" height="6.1"/>
	<rect x="168.3" y="280.2" style="fill:#E6E9EE;" width="6.1" height="6.1"/>
	<rect x="180.5" y="280.2" style="fill:#E6E9EE;" width="6.1" height="6.1"/>
	<rect x="174.4" y="286.3" style="fill:#E6E9EE;" width="6.1" height="6.1"/>
	<rect x="162.2" y="286.3" style="fill:#E6E9EE;" width="6.1" height="6.1"/>
	<rect x="150" y="286.3" style="fill:#E6E9EE;" width="6.1" height="6.1"/>
	<rect x="156.1" y="280.2" style="fill:#E6E9EE;" width="6.1" height="6.1"/>
	<rect x="186.7" y="286.3" style="fill:#E6E9EE;" width="6.1" height="6.1"/>
	<rect x="198.9" y="286.3" style="fill:#E6E9EE;" width="6.1" height="6.1"/>
	<rect x="192.8" y="280.2" style="fill:#E6E9EE;" width="6.1" height="6.1"/>
	<rect x="223.3" y="286.3" style="fill:#E6E9EE;" width="6.1" height="6.1"/>
	<rect x="235.6" y="286.3" style="fill:#E6E9EE;" width="6.1" height="6.1"/>
	<rect x="229.5" y="280.2" style="fill:#E6E9EE;" width="6.1" height="6.1"/>
	<rect x="217.2" y="280.2" style="fill:#E6E9EE;" width="6.1" height="6.1"/>
	<rect x="205" y="280.2" style="fill:#E6E9EE;" width="6.1" height="6.1"/>
	<rect x="211.1" y="286.3" style="fill:#E6E9EE;" width="6.1" height="6.1"/>
	<rect x="241.7" y="280.2" style="fill:#E6E9EE;" width="6.1" height="6.1"/>
	<rect x="253.9" y="280.2" style="fill:#E6E9EE;" width="6.1" height="6.1"/>
	<rect x="247.8" y="286.3" style="fill:#E6E9EE;" width="6.1" height="6.1"/>
	<rect x="278.4" y="280.2" style="fill:#E6E9EE;" width="6.1" height="6.1"/>
	<rect x="290.6" y="280.2" style="fill:#E6E9EE;" width="6.1" height="6.1"/>
	<rect x="284.5" y="286.3" style="fill:#E6E9EE;" width="6.1" height="6.1"/>
	<rect x="272.3" y="286.3" style="fill:#E6E9EE;" width="6.1" height="6.1"/>
	<rect x="260" y="286.3" style="fill:#E6E9EE;" width="6.1" height="6.1"/>
	<rect x="266.1" y="280.2" style="fill:#E6E9EE;" width="6.1" height="6.1"/>
	<rect x="296.7" y="286.3" style="fill:#E6E9EE;" width="6.1" height="6.1"/>
	<rect x="308.9" y="286.3" style="fill:#E6E9EE;" width="6.1" height="6.1"/>
	<rect x="302.8" y="280.2" style="fill:#E6E9EE;" width="6.1" height="6.1"/>
	<rect x="333.4" y="286.3" style="fill:#E6E9EE;" width="6.1" height="6.1"/>
	<rect x="345.6" y="286.3" style="fill:#E6E9EE;" width="6.1" height="6.1"/>
	<rect x="339.5" y="280.2" style="fill:#E6E9EE;" width="6.1" height="6.1"/>
	<rect x="327.3" y="280.2" style="fill:#E6E9EE;" width="6.1" height="6.1"/>
	<rect x="315.1" y="280.2" style="fill:#E6E9EE;" width="6.1" height="6.1"/>
	<rect x="321.2" y="286.3" style="fill:#E6E9EE;" width="6.1" height="6.1"/>
	<rect x="131.6" y="292.5" style="fill:#E6E9EE;" width="6.1" height="6.1"/>
	<rect x="143.9" y="292.5" style="fill:#E6E9EE;" width="6.1" height="6.1"/>
	<rect x="137.8" y="298.6" style="fill:#E6E9EE;" width="6.1" height="6.1"/>
	<rect x="168.3" y="292.5" style="fill:#E6E9EE;" width="6.1" height="6.1"/>
	<rect x="180.5" y="292.5" style="fill:#E6E9EE;" width="6.1" height="6.1"/>
	<rect x="174.4" y="298.6" style="fill:#E6E9EE;" width="6.1" height="6.1"/>
	<rect x="162.2" y="298.6" style="fill:#E6E9EE;" width="6.1" height="6.1"/>
	<rect x="150" y="298.6" style="fill:#E6E9EE;" width="6.1" height="6.1"/>
	<rect x="156.1" y="292.5" style="fill:#E6E9EE;" width="6.1" height="6.1"/>
	<rect x="186.7" y="298.6" style="fill:#E6E9EE;" width="6.1" height="6.1"/>
	<rect x="198.9" y="298.6" style="fill:#E6E9EE;" width="6.1" height="6.1"/>
	<rect x="192.8" y="292.5" style="fill:#E6E9EE;" width="6.1" height="6.1"/>
	<rect x="223.3" y="298.6" style="fill:#E6E9EE;" width="6.1" height="6.1"/>
	<rect x="235.6" y="298.6" style="fill:#E6E9EE;" width="6.1" height="6.1"/>
	<rect x="229.5" y="292.5" style="fill:#E6E9EE;" width="6.1" height="6.1"/>
	<rect x="217.2" y="292.5" style="fill:#E6E9EE;" width="6.1" height="6.1"/>
	<rect x="205" y="292.5" style="fill:#E6E9EE;" width="6.1" height="6.1"/>
	<rect x="211.1" y="298.6" style="fill:#E6E9EE;" width="6.1" height="6.1"/>
	<rect x="241.7" y="292.5" style="fill:#E6E9EE;" width="6.1" height="6.1"/>
	<rect x="253.9" y="292.5" style="fill:#E6E9EE;" width="6.1" height="6.1"/>
	<rect x="247.8" y="298.6" style="fill:#E6E9EE;" width="6.1" height="6.1"/>
	<rect x="278.4" y="292.5" style="fill:#E6E9EE;" width="6.1" height="6.1"/>
	<rect x="290.6" y="292.5" style="fill:#E6E9EE;" width="6.1" height="6.1"/>
	<rect x="284.5" y="298.6" style="fill:#E6E9EE;" width="6.1" height="6.1"/>
	<rect x="272.3" y="298.6" style="fill:#E6E9EE;" width="6.1" height="6.1"/>
	<rect x="260" y="298.6" style="fill:#E6E9EE;" width="6.1" height="6.1"/>
	<rect x="266.1" y="292.5" style="fill:#E6E9EE;" width="6.1" height="6.1"/>
	<rect x="296.7" y="298.6" style="fill:#E6E9EE;" width="6.1" height="6.1"/>
	<rect x="308.9" y="298.6" style="fill:#E6E9EE;" width="6.1" height="6.1"/>
	<rect x="302.8" y="292.5" style="fill:#E6E9EE;" width="6.1" height="6.1"/>
	<rect x="333.4" y="298.6" style="fill:#E6E9EE;" width="6.1" height="6.1"/>
	<rect x="345.6" y="298.6" style="fill:#E6E9EE;" width="6.1" height="6.1"/>
	<rect x="339.5" y="292.5" style="fill:#E6E9EE;" width="6.1" height="6.1"/>
	<rect x="327.3" y="292.5" style="fill:#E6E9EE;" width="6.1" height="6.1"/>
	<rect x="315.1" y="292.5" style="fill:#E6E9EE;" width="6.1" height="6.1"/>
	<rect x="321.2" y="298.6" style="fill:#E6E9EE;" width="6.1" height="6.1"/>
	<rect x="131.6" y="304.7" style="fill:#E6E9EE;" width="6.1" height="6.1"/>
	<rect x="143.9" y="304.7" style="fill:#E6E9EE;" width="6.1" height="6.1"/>
	<rect x="137.8" y="310.8" style="fill:#E6E9EE;" width="6.1" height="6.1"/>
	<rect x="168.3" y="304.7" style="fill:#E6E9EE;" width="6.1" height="6.1"/>
	<rect x="180.5" y="304.7" style="fill:#E6E9EE;" width="6.1" height="6.1"/>
	<rect x="174.4" y="310.8" style="fill:#E6E9EE;" width="6.1" height="6.1"/>
	<rect x="162.2" y="310.8" style="fill:#E6E9EE;" width="6.1" height="6.1"/>
	<rect x="150" y="310.8" style="fill:#E6E9EE;" width="6.1" height="6.1"/>
	<rect x="156.1" y="304.7" style="fill:#E6E9EE;" width="6.1" height="6.1"/>
	<rect x="186.7" y="310.8" style="fill:#E6E9EE;" width="6.1" height="6.1"/>
	<rect x="198.9" y="310.8" style="fill:#E6E9EE;" width="6.1" height="6.1"/>
	<rect x="192.8" y="304.7" style="fill:#E6E9EE;" width="6.1" height="6.1"/>
	<rect x="223.3" y="310.8" style="fill:#E6E9EE;" width="6.1" height="6.1"/>
	<rect x="235.6" y="310.8" style="fill:#E6E9EE;" width="6.1" height="6.1"/>
	<rect x="229.5" y="304.7" style="fill:#E6E9EE;" width="6.1" height="6.1"/>
	<rect x="217.2" y="304.7" style="fill:#E6E9EE;" width="6.1" height="6.1"/>
	<rect x="205" y="304.7" style="fill:#E6E9EE;" width="6.1" height="6.1"/>
	<rect x="211.1" y="310.8" style="fill:#E6E9EE;" width="6.1" height="6.1"/>
	<rect x="241.7" y="304.7" style="fill:#E6E9EE;" width="6.1" height="6.1"/>
	<rect x="253.9" y="304.7" style="fill:#E6E9EE;" width="6.1" height="6.1"/>
	<rect x="247.8" y="310.8" style="fill:#E6E9EE;" width="6.1" height="6.1"/>
	<rect x="278.4" y="304.7" style="fill:#E6E9EE;" width="6.1" height="6.1"/>
	<rect x="290.6" y="304.7" style="fill:#E6E9EE;" width="6.1" height="6.1"/>
	<rect x="284.5" y="310.8" style="fill:#E6E9EE;" width="6.1" height="6.1"/>
	<rect x="272.3" y="310.8" style="fill:#E6E9EE;" width="6.1" height="6.1"/>
	<rect x="260" y="310.8" style="fill:#E6E9EE;" width="6.1" height="6.1"/>
	<rect x="266.1" y="304.7" style="fill:#E6E9EE;" width="6.1" height="6.1"/>
	<rect x="296.7" y="310.8" style="fill:#E6E9EE;" width="6.1" height="6.1"/>
	<rect x="308.9" y="310.8" style="fill:#E6E9EE;" width="6.1" height="6.1"/>
	<rect x="302.8" y="304.7" style="fill:#E6E9EE;" width="6.1" height="6.1"/>
	<rect x="333.4" y="310.8" style="fill:#E6E9EE;" width="6.1" height="6.1"/>
	<rect x="345.6" y="310.8" style="fill:#E6E9EE;" width="6.1" height="6.1"/>
	<rect x="339.5" y="304.7" style="fill:#E6E9EE;" width="6.1" height="6.1"/>
	<rect x="327.3" y="304.7" style="fill:#E6E9EE;" width="6.1" height="6.1"/>
	<rect x="315.1" y="304.7" style="fill:#E6E9EE;" width="6.1" height="6.1"/>
	<rect x="321.2" y="310.8" style="fill:#E6E9EE;" width="6.1" height="6.1"/>
	<rect x="131.6" y="316.9" style="fill:#E6E9EE;" width="6.1" height="6.1"/>
	<rect x="143.9" y="316.9" style="fill:#E6E9EE;" width="6.1" height="6.1"/>
	<rect x="137.8" y="323" style="fill:#E6E9EE;" width="6.1" height="6.1"/>
	<rect x="168.3" y="316.9" style="fill:#E6E9EE;" width="6.1" height="6.1"/>
	<rect x="180.5" y="316.9" style="fill:#E6E9EE;" width="6.1" height="6.1"/>
	<rect x="174.4" y="323" style="fill:#E6E9EE;" width="6.1" height="6.1"/>
	<rect x="162.2" y="323" style="fill:#E6E9EE;" width="6.1" height="6.1"/>
	<rect x="150" y="323" style="fill:#E6E9EE;" width="6.1" height="6.1"/>
	<rect x="156.1" y="316.9" style="fill:#E6E9EE;" width="6.1" height="6.1"/>
	<rect x="186.7" y="323" style="fill:#E6E9EE;" width="6.1" height="6.1"/>
	<rect x="198.9" y="323" style="fill:#E6E9EE;" width="6.1" height="6.1"/>
	<rect x="192.8" y="316.9" style="fill:#E6E9EE;" width="6.1" height="6.1"/>
	<rect x="223.3" y="323" style="fill:#E6E9EE;" width="6.1" height="6.1"/>
	<rect x="235.6" y="323" style="fill:#E6E9EE;" width="6.1" height="6.1"/>
	<rect x="229.5" y="316.9" style="fill:#E6E9EE;" width="6.1" height="6.1"/>
	<rect x="217.2" y="316.9" style="fill:#E6E9EE;" width="6.1" height="6.1"/>
	<rect x="205" y="316.9" style="fill:#E6E9EE;" width="6.1" height="6.1"/>
	<rect x="211.1" y="323" style="fill:#E6E9EE;" width="6.1" height="6.1"/>
	<rect x="241.7" y="316.9" style="fill:#E6E9EE;" width="6.1" height="6.1"/>
	<rect x="253.9" y="316.9" style="fill:#E6E9EE;" width="6.1" height="6.1"/>
	<rect x="247.8" y="323" style="fill:#E6E9EE;" width="6.1" height="6.1"/>
	<rect x="278.4" y="316.9" style="fill:#E6E9EE;" width="6.1" height="6.1"/>
	<rect x="290.6" y="316.9" style="fill:#E6E9EE;" width="6.1" height="6.1"/>
	<rect x="284.5" y="323" style="fill:#E6E9EE;" width="6.1" height="6.1"/>
	<rect x="272.3" y="323" style="fill:#E6E9EE;" width="6.1" height="6.1"/>
	<rect x="260" y="323" style="fill:#E6E9EE;" width="6.1" height="6.1"/>
	<rect x="266.1" y="316.9" style="fill:#E6E9EE;" width="6.1" height="6.1"/>
	<rect x="296.7" y="323" style="fill:#E6E9EE;" width="6.1" height="6.1"/>
	<rect x="308.9" y="323" style="fill:#E6E9EE;" width="6.1" height="6.1"/>
	<rect x="302.8" y="316.9" style="fill:#E6E9EE;" width="6.1" height="6.1"/>
	<rect x="333.4" y="323" style="fill:#E6E9EE;" width="6.1" height="6.1"/>
	<rect x="345.6" y="323" style="fill:#E6E9EE;" width="6.1" height="6.1"/>
	<rect x="339.5" y="316.9" style="fill:#E6E9EE;" width="6.1" height="6.1"/>
	<rect x="327.3" y="316.9" style="fill:#E6E9EE;" width="6.1" height="6.1"/>
	<rect x="315.1" y="316.9" style="fill:#E6E9EE;" width="6.1" height="6.1"/>
	<rect x="321.2" y="323" style="fill:#E6E9EE;" width="6.1" height="6.1"/>
	<rect x="131.6" y="329.1" style="fill:#E6E9EE;" width="6.1" height="6.1"/>
	<rect x="143.9" y="329.1" style="fill:#E6E9EE;" width="6.1" height="6.1"/>
	<rect x="137.8" y="335.3" style="fill:#E6E9EE;" width="6.1" height="6.1"/>
	<rect x="168.3" y="329.1" style="fill:#E6E9EE;" width="6.1" height="6.1"/>
	<rect x="180.5" y="329.1" style="fill:#E6E9EE;" width="6.1" height="6.1"/>
	<rect x="174.4" y="335.3" style="fill:#E6E9EE;" width="6.1" height="6.1"/>
	<rect x="162.2" y="335.3" style="fill:#E6E9EE;" width="6.1" height="6.1"/>
	<rect x="150" y="335.3" style="fill:#E6E9EE;" width="6.1" height="6.1"/>
	<rect x="156.1" y="329.1" style="fill:#E6E9EE;" width="6.1" height="6.1"/>
	<rect x="186.7" y="335.3" style="fill:#E6E9EE;" width="6.1" height="6.1"/>
	<rect x="198.9" y="335.3" style="fill:#E6E9EE;" width="6.1" height="6.1"/>
	<rect x="192.8" y="329.1" style="fill:#E6E9EE;" width="6.1" height="6.1"/>
	<rect x="223.3" y="335.3" style="fill:#E6E9EE;" width="6.1" height="6.1"/>
	<rect x="235.6" y="335.3" style="fill:#E6E9EE;" width="6.1" height="6.1"/>
	<rect x="229.5" y="329.1" style="fill:#E6E9EE;" width="6.1" height="6.1"/>
	<rect x="217.2" y="329.1" style="fill:#E6E9EE;" width="6.1" height="6.1"/>
	<rect x="205" y="329.1" style="fill:#E6E9EE;" width="6.1" height="6.1"/>
	<rect x="211.1" y="335.3" style="fill:#E6E9EE;" width="6.1" height="6.1"/>
	<rect x="241.7" y="329.1" style="fill:#E6E9EE;" width="6.1" height="6.1"/>
	<rect x="253.9" y="329.1" style="fill:#E6E9EE;" width="6.1" height="6.1"/>
	<rect x="247.8" y="335.3" style="fill:#E6E9EE;" width="6.1" height="6.1"/>
	<rect x="278.4" y="329.1" style="fill:#E6E9EE;" width="6.1" height="6.1"/>
	<rect x="290.6" y="329.1" style="fill:#E6E9EE;" width="6.1" height="6.1"/>
	<rect x="284.5" y="335.3" style="fill:#E6E9EE;" width="6.1" height="6.1"/>
	<rect x="272.3" y="335.3" style="fill:#E6E9EE;" width="6.1" height="6.1"/>
	<rect x="260" y="335.3" style="fill:#E6E9EE;" width="6.1" height="6.1"/>
	<rect x="266.1" y="329.1" style="fill:#E6E9EE;" width="6.1" height="6.1"/>
	<rect x="296.7" y="335.3" style="fill:#E6E9EE;" width="6.1" height="6.1"/>
	<rect x="308.9" y="335.3" style="fill:#E6E9EE;" width="6.1" height="6.1"/>
	<rect x="302.8" y="329.1" style="fill:#E6E9EE;" width="6.1" height="6.1"/>
	<rect x="333.4" y="335.3" style="fill:#E6E9EE;" width="6.1" height="6.1"/>
	<rect x="345.6" y="335.3" style="fill:#E6E9EE;" width="6.1" height="6.1"/>
	<rect x="339.5" y="329.1" style="fill:#E6E9EE;" width="6.1" height="6.1"/>
	<rect x="327.3" y="329.1" style="fill:#E6E9EE;" width="6.1" height="6.1"/>
	<rect x="315.1" y="329.1" style="fill:#E6E9EE;" width="6.1" height="6.1"/>
	<rect x="321.2" y="335.3" style="fill:#E6E9EE;" width="6.1" height="6.1"/>
	<rect x="131.6" y="341.4" style="fill:#E6E9EE;" width="6.1" height="6.1"/>
	<rect x="143.9" y="341.4" style="fill:#E6E9EE;" width="6.1" height="6.1"/>
	<rect x="137.8" y="347.5" style="fill:#E6E9EE;" width="6.1" height="6.1"/>
	<rect x="168.3" y="341.4" style="fill:#E6E9EE;" width="6.1" height="6.1"/>
	<rect x="180.5" y="341.4" style="fill:#E6E9EE;" width="6.1" height="6.1"/>
	<rect x="174.4" y="347.5" style="fill:#E6E9EE;" width="6.1" height="6.1"/>
	<rect x="162.2" y="347.5" style="fill:#E6E9EE;" width="6.1" height="6.1"/>
	<rect x="150" y="347.5" style="fill:#E6E9EE;" width="6.1" height="6.1"/>
	<rect x="156.1" y="341.4" style="fill:#E6E9EE;" width="6.1" height="6.1"/>
	<rect x="186.7" y="347.5" style="fill:#E6E9EE;" width="6.1" height="6.1"/>
	<rect x="198.9" y="347.5" style="fill:#E6E9EE;" width="6.1" height="6.1"/>
	<rect x="192.8" y="341.4" style="fill:#E6E9EE;" width="6.1" height="6.1"/>
	<rect x="223.3" y="347.5" style="fill:#E6E9EE;" width="6.1" height="6.1"/>
	<rect x="235.6" y="347.5" style="fill:#E6E9EE;" width="6.1" height="6.1"/>
	<rect x="229.5" y="341.4" style="fill:#E6E9EE;" width="6.1" height="6.1"/>
	<rect x="217.2" y="341.4" style="fill:#E6E9EE;" width="6.1" height="6.1"/>
	<rect x="205" y="341.4" style="fill:#E6E9EE;" width="6.1" height="6.1"/>
	<rect x="211.1" y="347.5" style="fill:#E6E9EE;" width="6.1" height="6.1"/>
	<rect x="241.7" y="341.4" style="fill:#E6E9EE;" width="6.1" height="6.1"/>
	<rect x="253.9" y="341.4" style="fill:#E6E9EE;" width="6.1" height="6.1"/>
	<rect x="247.8" y="347.5" style="fill:#E6E9EE;" width="6.1" height="6.1"/>
	<rect x="278.4" y="341.4" style="fill:#E6E9EE;" width="6.1" height="6.1"/>
	<rect x="290.6" y="341.4" style="fill:#E6E9EE;" width="6.1" height="6.1"/>
	<rect x="284.5" y="347.5" style="fill:#E6E9EE;" width="6.1" height="6.1"/>
	<rect x="272.3" y="347.5" style="fill:#E6E9EE;" width="6.1" height="6.1"/>
	<rect x="260" y="347.5" style="fill:#E6E9EE;" width="6.1" height="6.1"/>
	<rect x="266.1" y="341.4" style="fill:#E6E9EE;" width="6.1" height="6.1"/>
	<rect x="296.7" y="347.5" style="fill:#E6E9EE;" width="6.1" height="6.1"/>
	<rect x="308.9" y="347.5" style="fill:#E6E9EE;" width="6.1" height="6.1"/>
	<rect x="302.8" y="341.4" style="fill:#E6E9EE;" width="6.1" height="6.1"/>
	<rect x="333.4" y="347.5" style="fill:#E6E9EE;" width="6.1" height="6.1"/>
	<rect x="345.6" y="347.5" style="fill:#E6E9EE;" width="6.1" height="6.1"/>
	<rect x="339.5" y="341.4" style="fill:#E6E9EE;" width="6.1" height="6.1"/>
	<rect x="327.3" y="341.4" style="fill:#E6E9EE;" width="6.1" height="6.1"/>
	<rect x="315.1" y="341.4" style="fill:#E6E9EE;" width="6.1" height="6.1"/>
	<rect x="321.2" y="347.5" style="fill:#E6E9EE;" width="6.1" height="6.1"/>
	<rect x="131.6" y="353.6" style="fill:#E6E9EE;" width="6.1" height="6.1"/>
	<rect x="143.9" y="353.6" style="fill:#E6E9EE;" width="6.1" height="6.1"/>
	<rect x="137.8" y="359.7" style="fill:#E6E9EE;" width="6.1" height="6.1"/>
	<rect x="168.3" y="353.6" style="fill:#E6E9EE;" width="6.1" height="6.1"/>
	<rect x="180.5" y="353.6" style="fill:#E6E9EE;" width="6.1" height="6.1"/>
	<rect x="174.4" y="359.7" style="fill:#E6E9EE;" width="6.1" height="6.1"/>
	<rect x="162.2" y="359.7" style="fill:#E6E9EE;" width="6.1" height="6.1"/>
	<rect x="150" y="359.7" style="fill:#E6E9EE;" width="6.1" height="6.1"/>
	<rect x="156.1" y="353.6" style="fill:#E6E9EE;" width="6.1" height="6.1"/>
	<rect x="186.7" y="359.7" style="fill:#E6E9EE;" width="6.1" height="6.1"/>
	<rect x="198.9" y="359.7" style="fill:#E6E9EE;" width="6.1" height="6.1"/>
	<rect x="192.8" y="353.6" style="fill:#E6E9EE;" width="6.1" height="6.1"/>
	<rect x="223.3" y="359.7" style="fill:#E6E9EE;" width="6.1" height="6.1"/>
	<rect x="235.6" y="359.7" style="fill:#E6E9EE;" width="6.1" height="6.1"/>
	<rect x="229.5" y="353.6" style="fill:#E6E9EE;" width="6.1" height="6.1"/>
	<rect x="217.2" y="353.6" style="fill:#E6E9EE;" width="6.1" height="6.1"/>
	<rect x="205" y="353.6" style="fill:#E6E9EE;" width="6.1" height="6.1"/>
	<rect x="211.1" y="359.7" style="fill:#E6E9EE;" width="6.1" height="6.1"/>
	<rect x="241.7" y="353.6" style="fill:#E6E9EE;" width="6.1" height="6.1"/>
	<rect x="253.9" y="353.6" style="fill:#E6E9EE;" width="6.1" height="6.1"/>
	<rect x="247.8" y="359.7" style="fill:#E6E9EE;" width="6.1" height="6.1"/>
	<rect x="278.4" y="353.6" style="fill:#E6E9EE;" width="6.1" height="6.1"/>
	<rect x="290.6" y="353.6" style="fill:#E6E9EE;" width="6.1" height="6.1"/>
	<rect x="284.5" y="359.7" style="fill:#E6E9EE;" width="6.1" height="6.1"/>
	<rect x="272.3" y="359.7" style="fill:#E6E9EE;" width="6.1" height="6.1"/>
	<rect x="260" y="359.7" style="fill:#E6E9EE;" width="6.1" height="6.1"/>
	<rect x="266.1" y="353.6" style="fill:#E6E9EE;" width="6.1" height="6.1"/>
	<rect x="296.7" y="359.7" style="fill:#E6E9EE;" width="6.1" height="6.1"/>
	<rect x="308.9" y="359.7" style="fill:#E6E9EE;" width="6.1" height="6.1"/>
	<rect x="302.8" y="353.6" style="fill:#E6E9EE;" width="6.1" height="6.1"/>
	<rect x="333.4" y="359.7" style="fill:#E6E9EE;" width="6.1" height="6.1"/>
	<rect x="345.6" y="359.7" style="fill:#E6E9EE;" width="6.1" height="6.1"/>
	<rect x="339.5" y="353.6" style="fill:#E6E9EE;" width="6.1" height="6.1"/>
	<rect x="327.3" y="353.6" style="fill:#E6E9EE;" width="6.1" height="6.1"/>
	<rect x="315.1" y="353.6" style="fill:#E6E9EE;" width="6.1" height="6.1"/>
	<rect x="321.2" y="359.7" style="fill:#E6E9EE;" width="6.1" height="6.1"/>
</g>
<rect x="127.7" y="206.9" style="fill:#84DBFF;" width="228.1" height="51.8"/>
<g>
	<rect x="156.1" y="228.9" style="fill:#395767;" width="4.3" height="29.7"/>
	<path style="fill:#395767;" d="M409,206.9h-19.6v51.8H409c1.1,0,2.1-0.9,2.1-2.1V209C411,207.8,410.1,206.9,409,206.9z"/>
</g>
<g>
</g>
<g>
</g>
<g>
</g>
<g>
</g>
<g>
</g>
<g>
</g>
<g>
</g>
<g>
</g>
<g>
</g>
<g>
</g>
<g>
</g>
<g>
</g>
<g>
</g>
<g>
</g>
<g>
</g>
</svg>
