<?xml version="1.0" encoding="iso-8859-1"?>
<!-- Generator: Adobe Illustrator 19.0.0, SVG Export Plug-In . SVG Version: 6.00 Build 0)  -->
<svg xmlns="http://www.w3.org/2000/svg" xmlns:xlink="http://www.w3.org/1999/xlink" version="1.1" id="Layer_1" x="0px" y="0px" viewBox="0 0 505 505" style="enable-background:new 0 0 505 505;" xml:space="preserve">
<circle style="fill:#324A5E;" cx="252.5" cy="252.5" r="252.5"/>
<circle style="fill:#EDF2F2;" cx="181.6" cy="240.4" r="41.5"/>
<path style="fill:#54C0EB;" d="M261.7,369.9c-0.9-43.5-36.4-78.5-80.1-78.5l0,0c-43.7,0-79.2,35-80.1,78.5H261.7z"/>
<path style="fill:#FFFFFF;" d="M395.5,135.1H261.3c-4.4,0-8,3.6-8,8v89.5c0,4.4,3.6,8,8,8h9.5l-14.2,34.9l47.3-34.9h91.6  c4.4,0,8-3.6,8-8v-89.5C403.6,138.7,400,135.1,395.5,135.1z"/>
<g>
	<circle style="fill:#FF7058;" cx="287.8" cy="186.5" r="13.3"/>
	<circle style="fill:#FF7058;" cx="328.4" cy="186.5" r="13.3"/>
	<circle style="fill:#FF7058;" cx="369" cy="186.5" r="13.3"/>
</g>
<g>
</g>
<g>
</g>
<g>
</g>
<g>
</g>
<g>
</g>
<g>
</g>
<g>
</g>
<g>
</g>
<g>
</g>
<g>
</g>
<g>
</g>
<g>
</g>
<g>
</g>
<g>
</g>
<g>
</g>
</svg>
