<?xml version="1.0" encoding="iso-8859-1"?>
<!-- Generator: Adobe Illustrator 19.0.0, SVG Export Plug-In . SVG Version: 6.00 Build 0)  -->
<svg xmlns="http://www.w3.org/2000/svg" xmlns:xlink="http://www.w3.org/1999/xlink" version="1.1" id="Layer_1" x="0px" y="0px" viewBox="0 0 505 505" style="enable-background:new 0 0 505 505;" xml:space="preserve">
<circle style="fill:#90DFAA;" cx="252.5" cy="252.5" r="252.5"/>
<path style="fill:#FFFFFF;" d="M340.2,85.8H138.9c-7.2,0-13,5.8-13,13v307.4c0,7.2,5.8,13,13,13h201.2c7.2,0,13-5.8,13-13V98.8  C353.2,91.6,347.4,85.8,340.2,85.8z"/>
<rect x="139.9" y="119.6" style="fill:#324A5E;" width="199.2" height="265.8"/>
<g>
	<rect x="214.7" y="97.4" style="fill:#EDF2F2;" width="49.6" height="10.5"/>
	<circle style="fill:#EDF2F2;" cx="239.5" cy="402.3" r="8.3"/>
</g>
<polygon style="fill:#FF7058;" points="224.7,252.5 300.1,177.1 300.1,210.8 417.5,210.8 417.5,294.2 300.1,294.2 300.1,327.9 "/>
<g>
</g>
<g>
</g>
<g>
</g>
<g>
</g>
<g>
</g>
<g>
</g>
<g>
</g>
<g>
</g>
<g>
</g>
<g>
</g>
<g>
</g>
<g>
</g>
<g>
</g>
<g>
</g>
<g>
</g>
</svg>
