<?xml version="1.0" encoding="iso-8859-1"?>
<!-- Generator: Adobe Illustrator 19.0.0, SVG Export Plug-In . SVG Version: 6.00 Build 0)  -->
<svg xmlns="http://www.w3.org/2000/svg" xmlns:xlink="http://www.w3.org/1999/xlink" version="1.1" id="Layer_1" x="0px" y="0px" viewBox="0 0 505 505" style="enable-background:new 0 0 505 505;" xml:space="preserve">
<circle style="fill:#84DBFF;" cx="252.5" cy="252.5" r="252.5"/>
<path style="fill:#395767;" d="M376.2,425.3H235.4c-2.2,0-4-1.8-4-4s1.8-4,4-4h140.8c15.7,0,28.6-12.8,28.6-28.6V386  c0-15.8-12.8-28.6-28.6-28.6H128.8c-20.1,0-36.5-16.4-36.5-36.5v-17.1c0-20.1,16.4-36.5,36.5-36.5c2.2,0,4,1.8,4,4s-1.8,4-4,4  c-15.8,0-28.6,12.8-28.6,28.6V321c0,15.7,12.8,28.6,28.6,28.6h247.3c20.1,0,36.5,16.4,36.5,36.5v2.7  C412.7,408.9,396.3,425.3,376.2,425.3z"/>
<path style="fill:#FFFFFF;" d="M393.9,236H143.6c-8.2,0-14.8,6.6-14.8,14.8V297c0,1.6,1.3,2.9,2.9,2.9h274c1.6,0,2.9-1.3,2.9-2.9  v-46.2C408.7,242.6,402.1,236,393.9,236z"/>
<polygon style="fill:#2B3B4E;" points="211.8,236 167.4,236 175.5,115 203.6,115 "/>
<circle style="fill:#324A5E;" cx="189.6" cy="111.7" r="32"/>
<g>
</g>
<g>
</g>
<g>
</g>
<g>
</g>
<g>
</g>
<g>
</g>
<g>
</g>
<g>
</g>
<g>
</g>
<g>
</g>
<g>
</g>
<g>
</g>
<g>
</g>
<g>
</g>
<g>
</g>
</svg>
