<?xml version="1.0" encoding="iso-8859-1"?>
<!-- Generator: Adobe Illustrator 19.0.0, SVG Export Plug-In . SVG Version: 6.00 Build 0)  -->
<svg xmlns="http://www.w3.org/2000/svg" xmlns:xlink="http://www.w3.org/1999/xlink" version="1.1" id="Layer_1" x="0px" y="0px" viewBox="0 0 505 505" style="enable-background:new 0 0 505 505;" xml:space="preserve">
<circle style="fill:#324A5E;" cx="252.5" cy="252.5" r="252.5"/>
<path style="fill:#EDF2F2;" d="M295.7,92.1H140.1c-11.6,0-21,9.4-21,21v225.8c0,11.6,9.4,21,21,21h155.5c11.6,0,21-9.4,21-21V113.1  C316.6,101.5,307.2,92.1,295.7,92.1z"/>
<polygon style="fill:#395767;" points="169.7,139.1 155.3,112.8 140.8,139.1 155.3,165.4 "/>
<path style="fill:#FFFFFF;" d="M372.2,160.8l-145.7-54.5c-10.8-4.1-22.9,1.5-27,12.3l-79,211.5c-4,10.8,1.5,22.9,12.3,27l145.7,54.5  c10.8,4.1,22.9-1.5,27-12.3l79-211.5C388.5,176.9,383,164.8,372.2,160.8z"/>
<g>
	<path style="fill:#FF7058;" d="M312.5,235c-7.7-17-27.4-24.4-44.5-17.6c-8.4-16.4-28.2-23.7-45.1-15.9c-17.5,8-25.2,28.6-17.2,46   l28.1,61.5l61.5-28.1C312.8,273.1,320.5,252.4,312.5,235z"/>
	<path style="fill:#FF7058;" d="M294,361.6c-2.7-5.9-9.5-8.5-15.5-6.1c-2.9-5.7-9.8-8.2-15.7-5.5c-6.1,2.8-8.8,10-6,16.1l9.8,21.5   l21.5-9.8C294.1,374.9,296.8,367.7,294,361.6z"/>
	<path style="fill:#FF7058;" d="M252.8,139.6c-2.7-5.9-9.5-8.5-15.5-6.1c-2.9-5.7-9.8-8.2-15.7-5.5c-6.1,2.8-8.8,10-6,16.1l9.8,21.5   l21.5-9.8C252.9,152.9,255.6,145.7,252.8,139.6z"/>
</g>
<g>
</g>
<g>
</g>
<g>
</g>
<g>
</g>
<g>
</g>
<g>
</g>
<g>
</g>
<g>
</g>
<g>
</g>
<g>
</g>
<g>
</g>
<g>
</g>
<g>
</g>
<g>
</g>
<g>
</g>
</svg>
