<?xml version="1.0" encoding="iso-8859-1"?>
<!-- Generator: Adobe Illustrator 19.0.0, SVG Export Plug-In . SVG Version: 6.00 Build 0)  -->
<svg xmlns="http://www.w3.org/2000/svg" xmlns:xlink="http://www.w3.org/1999/xlink" version="1.1" id="Layer_1" x="0px" y="0px" viewBox="0 0 505 505" style="enable-background:new 0 0 505 505;" xml:space="preserve">
<path style="fill:#FD8469;" d="M505,252.5c0,137.1-109.3,248.8-245.6,252.4c-2.3,0-4.6,0.1-6.9,0.1c-4.3,0-8.6-0.1-12.8-0.3  C106.2,498,0,387.7,0,252.5C0,113,113,0,252.5,0S505,113,505,252.5z"/>
<path style="fill:#FBDD56;" d="M149.4,347.7l0.4-0.1l-0.1,0.4c73.5-24.1,128.6-23.7,128.6-23.7c0-34,13.5-66.6,37.5-90.6l22.8-22.8  l-52.2-52.2l-22.8,22.8c-24,24-56.6,37.5-90.6,37.5C173.2,219.1,173.5,274.2,149.4,347.7z"/>
<g>
	<circle style="fill:#FFFFFF;" cx="218" cy="279.5" r="7.4"/>
	
		<rect x="182.442" y="265.319" transform="matrix(0.7071 0.7071 -0.7071 0.7071 275.6783 -38.1102)" style="fill:#FFFFFF;" width="2.8" height="96.799"/>
	<circle style="fill:#FFFFFF;" cx="150.5" cy="347" r="4"/>
</g>
<path style="fill:#324A5E;" d="M247.1,167.2l83.1,83.1c0.4,0.4,1,0.4,1.3,0l53.5-53.5c0.4-0.4,0.4-1,0-1.3l-83.1-83.1  c-0.4-0.4-1-0.4-1.3,0l-53.5,53.5C246.8,166.3,246.8,166.9,247.1,167.2z"/>
<path style="fill:#FFFFFF;" d="M343.8,384.7l-203-0.2l0,0c-0.1,0-0.2,0-0.3,0.1c-0.1,0-0.2-0.1-0.3-0.1c-6.9,0-12.5-5.6-12.5-12.5  s5.6-12.5,12.5-12.5c2.3,0,4.1-1.8,4.1-4.1c0-2.3-1.8-4.1-4.1-4.1c-11.4,0-20.7,9.3-20.7,20.7c0,11.4,9.3,20.7,20.7,20.7  c0.1,0,0.2,0,0.3-0.1c0.1,0,0.2,0.1,0.3,0.1l203,0.2l0,0c2.3,0,4.1-1.8,4.1-4.1S346.1,384.7,343.8,384.7z"/>
<g>
</g>
<g>
</g>
<g>
</g>
<g>
</g>
<g>
</g>
<g>
</g>
<g>
</g>
<g>
</g>
<g>
</g>
<g>
</g>
<g>
</g>
<g>
</g>
<g>
</g>
<g>
</g>
<g>
</g>
</svg>
