<?xml version="1.0" encoding="iso-8859-1"?>
<!-- Generator: Adobe Illustrator 19.0.0, SVG Export Plug-In . SVG Version: 6.00 Build 0)  -->
<svg xmlns="http://www.w3.org/2000/svg" xmlns:xlink="http://www.w3.org/1999/xlink" version="1.1" id="Layer_1" x="0px" y="0px" viewBox="0 0 505 505" style="enable-background:new 0 0 505 505;" xml:space="preserve">
<circle style="fill:#FFD05B;" cx="252.5" cy="252.5" r="252.5"/>
<path style="fill:#F9B54C;" d="M77.9,434.8c45.4,43.5,106.9,70.2,174.6,70.2c67.8,0,129.3-26.8,174.6-70.2H77.9z"/>
<path style="fill:#EDF2F2;" d="M292.2,417.4c-26.5,2.4-53,2.4-79.5,0c5.8-10.7,5.8-28.4,0-39.1c26.5-2.4,53-2.4,79.5,0  C286.4,389,286.4,406.7,292.2,417.4z"/>
<path style="fill:#ACB3BA;" d="M288.5,390.3c0.7-4.4,1.9-8.5,3.7-12c-26.5-2.4-53-2.4-79.5,0c1.9,3.4,3.1,7.6,3.7,12H288.5z"/>
<g>
	<path style="fill:#FFFFFF;" d="M321.7,417.4H183.3c-0.3,0-0.5,0.2-0.5,0.5V434c0,0.3,0.2,0.5,0.5,0.5h138.5c0.3,0,0.5-0.2,0.5-0.5   v-16.1C322.3,417.6,322,417.4,321.7,417.4z"/>
	<path style="fill:#FFFFFF;" d="M397.5,154.5h-290c-1.8,0-3.3,1.5-3.3,3.3V375c0,1.8,1.5,3.3,3.3,3.3h290c1.8,0,3.3-1.5,3.3-3.3   V157.8C400.9,156,399.4,154.5,397.5,154.5z"/>
</g>
<rect x="120.1" y="170.4" style="fill:#324A5E;" width="264.9" height="168.6"/>
<g>
	<path style="fill:#ACB3BA;" d="M316.2,299.3c0.1,0.8,0.2,1.6,0.7,2.1c1,1.2,2.9,0.8,4.3,0c1.3-0.8,2.6-1.8,4.2-1.9   c1.2,0,2.8,0.3,3.1-0.8c3.9,1.9,5.1,6.7,7.4,10.4c0.3,0.6,1.1,1.2,1.6,0.8c0.3-0.2,0.3-0.6,0.4-0.9c0.6-2.9,2.9-5.1,3.9-7.9   c0.9-2.6,0.7-5.5-0.2-8.1c-0.9-2.6-2.3-5-3.8-7.3c-0.7-1.1-1.5-2.4-2.9-2.6c0.2,1.1,0.3,2.4-0.2,3.4s-2.1,1.6-2.9,0.8   c-1.1-1.1,0.1-3.1-0.8-4.3c-0.6-0.9-2.1-0.8-2.8,0c-0.8,0.8-1,1.9-0.9,3c-1.1,0.6-2.5-0.2-3.6-0.8s-2.6-1.2-3.6-0.4   c-0.8,0.7-0.7,1.8-1.1,2.7c-0.4,0.9-1.1,1.5-1.6,2.3C315.4,292.5,315.8,296.1,316.2,299.3z"/>
	<path style="fill:#ACB3BA;" d="M319.9,273.2c0-0.7-0.2-1.4-0.3-2.1c-0.2-1.3-0.2-2.6,0.1-3.8c0.1-0.3,0.1-0.7-0.1-0.9   c-0.2-0.2-0.5-0.2-0.7-0.2c-0.8,0-1.5,0-2.3,0c0.1,2-1.5,3.9-3.4,4.2c-0.4,1.5,0,3.1,1,4.2s2.6,1.7,4.1,1.4   C319.2,275.4,319.9,274.3,319.9,273.2z"/>
	<path style="fill:#ACB3BA;" d="M246.4,270.3c0.2,0.8,0,1.7,0,2.5c0,2.9,2.9,5.2,2.9,8.2c0,1.5-0.8,3-0.9,4.5   c-0.1,1.4,0.3,2.8,0.7,4.1c1.1,3.8,2.3,7.5,3.4,11.3c0.2,0.6,0.3,1.1,0.7,1.6c1.4,1.9,4.7,0.6,5.7-1.4c1.1-2.1,1-4.6,1.6-6.8   c1.6-5.5,7.7-9.7,7.1-15.4c-0.3-2.7-2.1-5.5-0.7-7.8c0.8-1.4,2.6-2,4-2.8s2.7-2.5,1.9-4c-0.5-1-1.7-1.3-2.7-1.9   c-4.2-2.2-5-7.7-7.3-11.7c1.8-1.1,4.1,0.4,5.3,2.1c1.2,1.8,1.8,3.9,3.3,5.4c1.5,1.4,4.6,1.6,5.3-0.4c0.6-1.8-1-3.4-2.4-4.7   c-1.6-1.5-3-4.3-1.3-5.8c1.4-1.2,3.6-0.4,4.9,0.9c1.3,1.3,2.3,3,4,3.7c2,0.8,4.6,0.1,6.1,1.7c1,1,1,2.5,1.1,3.9   c0.3,3.3,1.2,6.5,2.8,9.4c2-1.2,2.9-3.8,2.1-6c1.8-1.7,3.5-3.4,5.3-5.1c0.4-0.4,0.9-0.8,1.5-1c1.4-0.5,2.9,0.7,3.7,2   c1.3,1.9,2,4.1,3.3,6s3.6,3.4,5.8,2.8c2.3-3-4.7-7-2.6-10c1.3-1.8,4.3-0.7,6.4-1.4c2.7-1,3-4.7,2.2-7.4s-2.3-5.5-1.7-8.3   c1.8-0.9,4.4-1.8,5.7-0.2c0.8,1,0.7,2.4,1.1,3.7c0.4,1.2,2.4,2,2.9,0.8c-0.9-1.8-1.8-4.3-0.4-5.8c0.5-0.5,1.2-0.8,1.9-1.2   c2.9-1.5,5.2-4.2,6.2-7.4c0.2-0.8,0.4-1.8-0.3-2.4c-0.7-0.6-1.8-0.3-2.6-0.8c-1.2-0.6-1.2-2.5-0.4-3.5c0.9-1,2.2-1.5,3.5-1.8   c4.8-1.4,9.7-2.8,14.5-4.2c0,0.6,0,1.3,0,1.9c-3,0.6-5.2,3.9-4.6,6.9c2.1,0.2,4.2,0.3,6.3,0.2c-0.4-1.8-0.1-3.7,0.8-5.3   c3-1.8,6-3.6,9-5.3c0-0.7-0.1-1.3-0.1-2c1-0.1,12.4-0.1,13.4-0.2c0.6-1.9-12-3.3-13.9-3.9c-8.5-2.6-17.4-3.7-26.3-3.1   c-2,0.1-4,0.3-5.9,0.1c-3.8-0.4-7.4-2.3-11.2-2.6c-1.3-0.1-2.8,0-3.8-0.8c-1.1-0.8-1.1-2.9,0.2-3.2c-0.6-1.7-2.7-2.2-4.4-2   c-1.7,0.2-3.4,1-5.1,1.1c-2.8,0.1-6.1-1.4-8,0.6c-1,1.1-1,2.9-2,4c-2.3,2.6-7.1-0.1-9.7,2c-0.6,0.5-1,1.1-1.6,1.6   c-1.1,0.8-2.7,0.6-3.6-0.4s-0.9-2.6,0-3.6c0.8-0.8,1.9-2.2,0.9-2.6c-1.1-2-4.6-0.8-5.2,1.4c-0.5,2.2,0.8,4.5,2.2,6.3   c-3.7,0.1-7.4,1.1-10.7,2.9c-0.8-3.2-4.5-5-7.8-4.8c-3.3,0.3-6.2,2.1-8.9,4.1c-3,2.3-6,5.2-6.8,8.9c1,0.6,2.2,0.9,3.4,0.8   c0.1,1,0.2,2.1,0.2,3.1c1.3,0.2,2.7,0.3,4,0.5c2-2.4-0.2-6.9,2.3-8.9c1.2-1,3.2-0.9,4.1-2.2c0.3,2.1-0.8,4.2-2.6,5.2   c1.4,1.1,3.3,1.4,5,0.8c0.8,0.9,0.1,2.3-1,2.9c-1,0.6-2.2,0.8-3.1,1.5c-0.8,0.7-1.2,1.7-2,2.4c-1.6,1.4-4.1,1-6.2,1.2   c-4.1,0.3-7.8,3.5-8.8,7.5c-0.1,0.6-0.3,1.2-0.8,1.5c-0.3,0.2-0.7,0.2-1.1,0.3c-2,0.4-3.2,3-2.2,4.8s3.9,2.1,5.2,0.6   c1.1-1.2,1.2-3.2,2.6-4.1c2-1.3,5.7,0,6.3-2.3c3.8-0.8,4.6,7.6,8.4,6.9c0.1-0.9,0.1-1.7,0.2-2.6c1.9,0.1,2.8-2.2,3.5-4   c0.8-1.7,3.1-3.4,4.3-2c1.5,1.5,2.3,3.6,2.1,5.7c-2.4-0.3-4.8,0-7.1,0.9c-0.5,2.4,2.3,4.7,4.5,3.8c0,1.2,0,2.4,0,3.6   c-3.5,0-7,0.1-10.5,0.1c-0.8,0-1.7,0-2.5-0.3c-0.9-0.4-1.6-1.2-2.3-1.8c-4-3.4-10.5-2.2-14.3,1.4c-3.8,3.7-5.4,9-6.3,14.2   c-0.2,1-0.4,2.1,0,3.1c0.4,0.9,1.1,1.5,1.8,2c2.9,2.1,6.5,3.3,10.1,3.5C242.9,267.9,245.9,268.1,246.4,270.3z"/>
	<path style="fill:#ACB3BA;" d="M192.7,218.3c-1.9-0.8-3.9-1.7-6-1.4c0.3,2.1,0.3,4.7-1.6,5.6c-1.4,0.7-3.1-0.1-4.5-1   c-1.6-0.9-3.2-1.9-4.1-3.5c-0.9-1.6-0.7-3.9,0.9-4.8c0.9-0.5,2-0.4,3-0.7c3-1,4-5.4,7.1-6.2c1.7-0.5,3.6,0.5,4.8,1.9   s1.7,3.1,2.3,4.9c1,0.7,2.6-0.1,2.9-1.4s-0.2-2.5-0.9-3.5c-1.9-2.6-5.2-3.8-7.4-6.1c-2.3-2.3-2.8-7,0.1-8.2   c1.3-0.5,2.8-0.2,4.1,0.3c4.3,1.7,7.7,5.5,9,9.9c0.9,2.9,0.8,6,1.9,8.8c1.1,2.8,3.9,5.4,6.9,4.6c0.5-3.5,3.2-6.1,5.7-8.6   c1.2-1.1,2.4-2.3,3.9-2.8c1.2-0.4,2.6-0.5,3.6-1.3c1.4-1.3,1.1-3.4,1.1-5.3c0-3.2,1.3-6.3,3.6-8.5c-5.4-4.2-12.9-5.5-19.4-3.5   c-3.1,1-6.2,2.7-9.5,2.3c-1.4-0.2-2.8-0.8-4.1-1.2c-6.4-2.1-13.8-1.3-19.6,2.2c0.1,3,0.7,5.9,1.7,8.7c-2,0.8-4.7,1.4-5.9-0.4   c-0.4-0.6-0.5-1.4-0.7-2c-1.2-3.2-5.5-3.7-9-3.5c-1.6,0.1-3.2,0.1-4.6,0.9c-1.4,0.7-2.5,2.3-2.2,3.8c0.2,1.2,1.2,2.1,1.9,3.1   s1,2.5,0.1,3.3c-0.6,0.5-1.4,0.6-2.2,0.5c-5.4-0.1-10.9-0.1-16.3-0.2c-2.9,0-6.1,0.1-7.9,2.4c-2.2,2.8-0.4,7.3,2.7,9.1   c3.1,1.8,6.9,1.6,10.5,1.3c0.8-0.1,1.7-0.1,2.5,0.2c1,0.4,1.7,1.3,2.3,2.1c2.5,3.5,4.6,7.3,6.3,11.2c3.3,7.5,5.3,15.7,10.2,22.2   c2.5,3.3,5.8,6.1,9.5,8c3.1,1.6,6.7,2.8,8.6,5.8c2,3.1,1.4,7.1,2.3,10.6c1.2,4.8,5,8.6,6.2,13.3c2.1,8.4-4.3,16.8-3.8,25.5   c0.2,3.3,2.7,7.2,5.9,6.3c0-1.1-0.1-2.1-0.1-3.2c-0.1-3.8-0.2-7.7,1.7-11c1.3,0.3,2.5-0.6,3.2-1.8c0.7-1.1,0.9-2.4,1.6-3.6   c0.6-1,1.4-1.8,2.1-2.6c1.3-1.3,2.7-2.7,4-4c2.4-2.3,4.8-4.8,5.7-8c0.5-1.7,0.5-3.7,1.4-5.3c0.5-0.9,1.2-1.7,1.5-2.7   c0.5-2.2-1.9-3.9-4.1-4.6c-2.2-0.7-4.7-1.2-5.7-3.3c-0.4-0.7-0.5-1.6-0.8-2.4c-1-2-3.4-2.6-5.3-3.8c-1.5-0.9-2.7-2.2-4.2-3.1   s-3.5-1.3-4.9-0.4c-0.8,0.5-1.3,1.4-2.2,1.7c-1.5,0.5-3-0.9-3.6-2.3c-0.6-1.5-0.8-3.1-1.9-4.3c-1.4-1.6-3.7-1.7-5.8-2.1   s-4.4-1.4-4.7-3.5c-0.1-0.8,0.1-1.6,0.5-2.2c1.2-2.2,3.7-3.3,6.1-3.6c2.4-0.2,4.9,0.3,7.3,0.9c-0.6-2.9,1-5.8,2.9-8.1   s4.1-4.4,6.5-6.2c2.1-1.5,4.5-2.9,5.2-5.4c0.6-2.2-0.4-4.7-2.1-6.3C197,220.2,194.8,219.2,192.7,218.3z"/>
</g>
<circle style="fill:#CED5E0;" cx="252.5" cy="358.7" r="10.5"/>
<path style="fill:#FF7058;" d="M296.4,70.4c-30.2,0-54.7,24.5-54.7,54.7s54.7,113.5,54.7,113.5s54.7-83.3,54.7-113.5  S326.6,70.4,296.4,70.4z M296.4,147.9c-14,0-25.3-11.3-25.3-25.3s11.3-25.3,25.3-25.3s25.3,11.3,25.3,25.3S310.4,147.9,296.4,147.9z  "/>
<g>
</g>
<g>
</g>
<g>
</g>
<g>
</g>
<g>
</g>
<g>
</g>
<g>
</g>
<g>
</g>
<g>
</g>
<g>
</g>
<g>
</g>
<g>
</g>
<g>
</g>
<g>
</g>
<g>
</g>
</svg>
