<?xml version="1.0" encoding="iso-8859-1"?>
<!-- Generator: Adobe Illustrator 19.0.0, SVG Export Plug-In . SVG Version: 6.00 Build 0)  -->
<svg xmlns="http://www.w3.org/2000/svg" xmlns:xlink="http://www.w3.org/1999/xlink" version="1.1" id="Layer_1" x="0px" y="0px" viewBox="0 0 505 505" style="enable-background:new 0 0 505 505;" xml:space="preserve">
<circle style="fill:#84DBFF;" cx="252.5" cy="252.5" r="252.5"/>
<path style="fill:#FFFFFF;" d="M397.9,114.8H107.1c-3.5,0-6.3,2.8-6.3,6.3V328c0,3.5,2.8,6.3,6.3,6.3H398c3.5,0,6.3-2.8,6.3-6.3  V121.1C404.2,117.6,401.4,114.8,397.9,114.8z"/>
<rect x="119.4" y="133.3" style="fill:#324A5E;" width="266.1" height="182.6"/>
<path style="fill:#FFD05B;" d="M385.5,221.8h-18.9c-1.2,0-2.3,0.8-2.7,2l-11,39.1L339.7,177c-0.2-1.3-1.3-2.3-2.6-2.3  c-1.4-0.1-2.5,0.8-2.8,2l-13.2,47.8h-20.3c-1.1,0-2.2,0.7-2.6,1.7l-12.3,31.4l-16.6-85c-0.2-1.2-1.2-2.1-2.4-2.2  c-1.2-0.2-2.4,0.5-2.8,1.7l-22.3,52.4H119.4v5.5h124.1c1.1,0,2.1-0.7,2.5-1.7l19.5-45.8l16.7,85.5c0.2,1.2,1.2,2.1,2.5,2.2  s2.4-0.6,2.8-1.7l15.1-38.5h20.5c1.2,0,2.3-0.8,2.7-2l10.4-37.5l13.2,85.7c0.2,1.3,1.3,2.3,2.6,2.3c0.1,0,0.1,0,0.2,0  c1.2,0,2.3-0.8,2.7-2l13.9-49.3h16.7c0,0,0,0,0.1,0L385.5,221.8L385.5,221.8z"/>
<path style="fill:#FFFFFF;" d="M84.6,353.1v12.5c0,12.4,10,22.4,22.4,22.4h290.9c12.4,0,22.4-10,22.4-22.4v-12.5H84.6z"/>
<polygon style="fill:#E6E9EE;" points="285.4,367.8 219.6,367.8 211.6,353.5 293.4,353.5 "/>
<g>
</g>
<g>
</g>
<g>
</g>
<g>
</g>
<g>
</g>
<g>
</g>
<g>
</g>
<g>
</g>
<g>
</g>
<g>
</g>
<g>
</g>
<g>
</g>
<g>
</g>
<g>
</g>
<g>
</g>
</svg>
