<?xml version="1.0" encoding="iso-8859-1"?>
<!-- Generator: Adobe Illustrator 19.0.0, SVG Export Plug-In . SVG Version: 6.00 Build 0)  -->
<svg xmlns="http://www.w3.org/2000/svg" xmlns:xlink="http://www.w3.org/1999/xlink" version="1.1" id="Layer_1" x="0px" y="0px" viewBox="0 0 505 505" style="enable-background:new 0 0 505 505;" xml:space="preserve">
<circle style="fill:#FD8469;" cx="252.5" cy="252.5" r="252.5"/>
<path style="fill:#324A5E;" d="M396.3,398.8H108.7c-1.4,0-2.5-1.1-2.5-2.5V108.7c0-1.4,1.1-2.5,2.5-2.5h287.6c1.4,0,2.5,1.1,2.5,2.5  v287.6C398.8,397.7,397.7,398.8,396.3,398.8z"/>
<g>
	<rect x="119" y="179.3" style="fill:#FFFFFF;" width="266.9" height="205.1"/>
	<rect x="361.7" y="130.6" style="fill:#FFFFFF;" width="24.3" height="24.3"/>
	<rect x="315.1" y="130.6" style="fill:#FFFFFF;" width="24.3" height="24.3"/>
	<rect x="268.6" y="130.6" style="fill:#FFFFFF;" width="24.3" height="24.3"/>
</g>
<path style="fill:#FFD05B;" d="M222.4,254.2c-7.7-7.7-18.4-12.5-30.1-12.5c-11.8,0-22.4,4.8-30.1,12.5l30.1,30.1L222.4,254.2z"/>
<path style="fill:#E6E9EE;" d="M162.1,254.2c-7.7,7.7-12.5,18.4-12.5,30.1c0,11.8,4.8,22.4,12.5,30.1s18.4,12.5,30.1,12.5v-42.6  L162.1,254.2z"/>
<path style="fill:#84DBFF;" d="M222.8,254.4l-30.5,29.8l-0.5,42.6c11.8,0.1,22.5-4.5,30.3-12.1s12.7-18.2,12.8-30  C235.1,272.9,230.4,262.2,222.8,254.4z"/>
<g>
	<rect x="253.7" y="233.2" style="fill:#E6E9EE;" width="90.7" height="5"/>
	<rect x="253.7" y="256.3" style="fill:#E6E9EE;" width="90.7" height="5"/>
	<rect x="253.7" y="279.3" style="fill:#E6E9EE;" width="90.7" height="5"/>
	<rect x="253.7" y="302.4" style="fill:#E6E9EE;" width="90.7" height="5"/>
	<rect x="253.7" y="325.4" style="fill:#E6E9EE;" width="49.4" height="5"/>
</g>
<g>
</g>
<g>
</g>
<g>
</g>
<g>
</g>
<g>
</g>
<g>
</g>
<g>
</g>
<g>
</g>
<g>
</g>
<g>
</g>
<g>
</g>
<g>
</g>
<g>
</g>
<g>
</g>
<g>
</g>
</svg>
