<?xml version="1.0" encoding="iso-8859-1"?>
<!-- Generator: Adobe Illustrator 19.0.0, SVG Export Plug-In . SVG Version: 6.00 Build 0)  -->
<svg xmlns="http://www.w3.org/2000/svg" xmlns:xlink="http://www.w3.org/1999/xlink" version="1.1" id="Layer_1" x="0px" y="0px" viewBox="0 0 505 505" style="enable-background:new 0 0 505 505;" xml:space="preserve">
<circle style="fill:#90DFAA;" cx="252.5" cy="252.5" r="252.5"/>
<path style="fill:#FFFFFF;" d="M381.7,191h-8.2c0.2-2,0.3-4.1,0.3-6.1c0-37.7-30.5-68.2-68.2-68.2c-15.5,0-29.8,5.3-41.3,14  c-15.5-26.9-44.5-45.1-77.8-45.1c-49.6,0-89.9,40.2-89.9,89.9c0,7.3,1,14.4,2.6,21.2c-17.8,8.9-30.1,27.2-30.1,48.4  c0,29.9,24.2,54.1,54.1,54.1h258.5c29.9,0,54.1-24.2,54.1-54.1C435.9,215.2,411.6,191,381.7,191z"/>
<path style="fill:#324A5E;" d="M348.7,207.2c-43,7-82.3-18.5-94.8-27.7c-0.8-0.6-2-0.6-2.8,0c-12.6,9.2-51.9,34.7-94.8,27.7  c-1.3-0.2-2.5,0.7-2.5,1.9v69c0,0,2.1,98.7,97.7,141.2c0.6,0.3,1.3,0.3,2,0c95.7-42.5,97.7-141.2,97.7-141.2v-69  C351.2,207.9,350,207,348.7,207.2z"/>
<path style="fill:#FFFFFF;" d="M329.9,302.5c3.1-13.1,3.4-22.2,3.5-23.1v-53.9c-1.7,0.1-3.3,0.1-5,0.1c-32.8,0-61.2-15.6-75.9-25.4  l0,0v102.3H329.9z"/>
<path style="fill:#54C0EB;" d="M252.5,200.3c-14.6,9.8-43.1,25.4-75.9,25.4l0,0c-1.7,0-3.3,0-5-0.1v53.6c0,0.3,0.3,9.7,3.6,23.4  h77.3V200.3z"/>
<path style="fill:#FFFFFF;" d="M175.2,302.5c6.6,27.4,25.1,72.2,77.3,96.9v-96.9H175.2z"/>
<path style="fill:#54C0EB;" d="M252.5,302.5v96.9l0,0c52.6-24.9,71-69.6,77.4-96.9H252.5z"/>
<g>
</g>
<g>
</g>
<g>
</g>
<g>
</g>
<g>
</g>
<g>
</g>
<g>
</g>
<g>
</g>
<g>
</g>
<g>
</g>
<g>
</g>
<g>
</g>
<g>
</g>
<g>
</g>
<g>
</g>
</svg>
