<?xml version="1.0" encoding="iso-8859-1"?>
<!-- Generator: Adobe Illustrator 19.0.0, SVG Export Plug-In . SVG Version: 6.00 Build 0)  -->
<svg xmlns="http://www.w3.org/2000/svg" xmlns:xlink="http://www.w3.org/1999/xlink" version="1.1" id="Layer_1" x="0px" y="0px" viewBox="0 0 505 505" style="enable-background:new 0 0 505 505;" xml:space="preserve">
<circle style="fill:#324A5E;" cx="252.5" cy="252.5" r="252.5"/>
<g>
	<path style="fill:#EDF2F2;" d="M349.5,138.5H110c-5,0-9.1,4.1-9.1,9.1v51.8c0,5,4.1,9.1,9.1,9.1h239.5c5,0,9.1-4.1,9.1-9.1v-51.8   C358.5,142.6,354.5,138.5,349.5,138.5z"/>
	<path style="fill:#EDF2F2;" d="M349.5,224H110c-5,0-9.1,4.1-9.1,9.1v51.8c0,5,4.1,9.1,9.1,9.1h239.5c5,0,9.1-4.1,9.1-9.1v-51.8   C358.5,228,354.5,224,349.5,224z"/>
	<path style="fill:#EDF2F2;" d="M349.5,309.4H110c-5,0-9.1,4.1-9.1,9.1v51.8c0,5,4.1,9.1,9.1,9.1h239.5c5,0,9.1-4.1,9.1-9.1v-51.8   C358.5,313.5,354.5,309.4,349.5,309.4z"/>
	<circle style="fill:#EDF2F2;" cx="144.4" cy="156.4" r="17.8"/>
	<path style="fill:#EDF2F2;" d="M300.5,336.9c0,17.3,14,31.3,31.3,31.3c11.4,0,21.3-6.2,26.8-15.4v-31.7c-2.9-4.9-7.2-9-12.3-11.7   h-29C307.3,314.6,300.5,324.9,300.5,336.9z"/>
</g>
<path style="fill:#2DB39A;" d="M402.7,313l-14.6-1.1c-0.6,0-1.1-0.5-1.3-1c-0.9-2.6-1.9-5.1-3.1-7.5c-0.3-0.5-0.2-1.2,0.2-1.6  l9.5-11.2c0.5-0.6,0.5-1.5-0.1-2.1l-18.8-18.8c-0.6-0.6-1.5-0.6-2.1-0.1l-11.2,9.5c-0.5,0.4-1.1,0.5-1.6,0.2  c-2.4-1.2-4.9-2.3-7.5-3.1c-0.6-0.2-1-0.7-1-1.3l-1.1-14.6c-0.1-0.8-0.7-1.4-1.5-1.4h-26.6c-0.8,0-1.5,0.6-1.5,1.4l-1.1,14.6  c0,0.6-0.5,1.1-1,1.3c-2.6,0.9-5.1,1.9-7.5,3.1c-0.5,0.3-1.2,0.2-1.6-0.2l-11.2-9.5c-0.6-0.5-1.5-0.5-2.1,0.1l-19,18.8  c-0.6,0.6-0.6,1.5-0.1,2.1l9.5,11.2c0.4,0.5,0.5,1.1,0.2,1.6c-1.2,2.4-2.3,4.9-3.1,7.5c-0.2,0.6-0.7,1-1.3,1l-14.6,1.1  c-0.8,0.1-1.4,0.7-1.4,1.5v26.6c0,0.8,0.6,1.5,1.4,1.5l14.6,1.1c0.6,0,1.1,0.5,1.3,1c0.9,2.6,1.9,5.1,3.1,7.5  c0.3,0.5,0.2,1.2-0.2,1.6l-9.5,11.2c-0.5,0.6-0.5,1.5,0.1,2.1l18.8,18.8c0.6,0.6,1.5,0.6,2.1,0.1l11.2-9.5c0.5-0.4,1.1-0.5,1.6-0.2  c2.4,1.2,4.9,2.3,7.5,3.1c0.6,0.2,1,0.7,1,1.3l1.1,14.6c0.1,0.8,0.7,1.4,1.5,1.4h26.6c0.8,0,1.5-0.6,1.5-1.4l1.1-14.6  c0-0.6,0.4-1.1,1-1.3c2.6-0.9,5.1-1.9,7.5-3.1c0.5-0.3,1.2-0.2,1.6,0.2l11.2,9.5c0.6,0.5,1.5,0.5,2.1-0.1l18.8-18.8  c0.6-0.6,0.6-1.5,0.1-2.1l-9.5-11.2c-0.4-0.5-0.5-1.1-0.2-1.6c1.2-2.4,2.3-4.9,3.1-7.5c0.2-0.6,0.7-1,1.3-1l14.6-1.1  c0.8-0.1,1.4-0.7,1.4-1.5v-26.6C404.1,313.8,403.5,313.1,402.7,313z M335.1,359.1c-17.3,0-31.3-14-31.3-31.3s14-31.3,31.3-31.3  s31.3,14,31.3,31.3S352.4,359.1,335.1,359.1z"/>
<path style="fill:#FF7058;" d="M186.3,139l-8.3-0.7c-0.3,0-0.6-0.3-0.7-0.6c-0.5-1.5-1.1-2.9-1.8-4.2c-0.2-0.3-0.1-0.7,0.1-0.9  l5.4-6.4c0.3-0.3,0.3-0.9,0-1.2l-10.7-10.7c-0.3-0.3-0.8-0.3-1.2,0l-6.4,5.4c-0.3,0.2-0.6,0.3-0.9,0.1c-1.4-0.7-2.8-1.3-4.2-1.8  c-0.3-0.1-0.6-0.4-0.6-0.7l-0.7-8.3c0-0.5-0.4-0.8-0.9-0.8h-15.2c-0.5,0-0.8,0.4-0.9,0.8l-0.7,8.3c0,0.3-0.3,0.6-0.6,0.7  c-1.5,0.5-2.9,1.1-4.2,1.8c-0.3,0.2-0.7,0.1-0.9-0.1l-6.4-5.4c-0.3-0.3-0.9-0.3-1.2,0L114.6,125c-0.3,0.3-0.3,0.8,0,1.2l5.4,6.4  c0.2,0.3,0.3,0.6,0.1,0.9c-0.7,1.4-1.3,2.8-1.8,4.2c-0.1,0.3-0.4,0.6-0.7,0.6l-8.3,0.7c-0.5,0-0.8,0.4-0.8,0.9v15.2  c0,0.5,0.4,0.8,0.8,0.9l8.3,0.7c0.3,0,0.6,0.3,0.7,0.6c0.5,1.5,1.1,2.9,1.8,4.2c0.2,0.3,0.1,0.7-0.1,0.9l-5.4,6.4  c-0.3,0.3-0.3,0.9,0,1.2l10.7,10.7c0.3,0.3,0.8,0.3,1.2,0l6.4-5.4c0.3-0.2,0.6-0.3,0.9-0.1c1.4,0.7,2.8,1.3,4.2,1.8  c0.3,0.1,0.6,0.4,0.6,0.7l0.7,8.3c0,0.5,0.4,0.8,0.9,0.8h15.2c0.5,0,0.8-0.4,0.9-0.8l0.7-8.3c0-0.3,0.3-0.6,0.6-0.7  c1.5-0.5,2.9-1.1,4.2-1.8c0.3-0.2,0.7-0.1,0.9,0.1l6.4,5.4c0.3,0.3,0.9,0.3,1.2,0L181,170c0.3-0.3,0.3-0.8,0-1.2l-5.4-6.4  c-0.2-0.3-0.3-0.6-0.1-0.9c0.7-1.4,1.3-2.8,1.8-4.2c0.1-0.3,0.4-0.6,0.7-0.6l8.3-0.7c0.5,0,0.8-0.4,0.8-0.9v-15.2  C187.1,139.4,186.7,139,186.3,139z M147.8,165.2c-9.8,0-17.8-8-17.8-17.8s8-17.8,17.8-17.8s17.8,8,17.8,17.8  S157.6,165.2,147.8,165.2z"/>
<g>
</g>
<g>
</g>
<g>
</g>
<g>
</g>
<g>
</g>
<g>
</g>
<g>
</g>
<g>
</g>
<g>
</g>
<g>
</g>
<g>
</g>
<g>
</g>
<g>
</g>
<g>
</g>
<g>
</g>
</svg>
