<?xml version="1.0" encoding="iso-8859-1"?>
<!-- Generator: Adobe Illustrator 19.0.0, SVG Export Plug-In . SVG Version: 6.00 Build 0)  -->
<svg xmlns="http://www.w3.org/2000/svg" xmlns:xlink="http://www.w3.org/1999/xlink" version="1.1" id="Layer_1" x="0px" y="0px" viewBox="0 0 505 505" style="enable-background:new 0 0 505 505;" xml:space="preserve">
<circle style="fill:#54C0EB;" cx="252.5" cy="252.5" r="252.5"/>
<path style="fill:#FFFFFF;" d="M388.5,242.9L388.5,242.9c1-4.1,1.6-8.4,1.6-12.9c0-30.4-24.7-55.1-55.1-55.1  c-5.1,0-10.1,0.8-14.8,2.1c-10.5-34.3-42.3-59.2-80-59.2c-41,0-75.1,29.5-82.3,68.4c-28.6,2.1-51.1,25.9-51.1,55  c0,2.4,0.2,4.7,0.5,7C88.8,256.7,76,274.5,76,295.3l0,0c0,28.9,24.8,52.3,55.3,52.3h257.2c30.6,0,55.3-23.4,55.3-52.3l0,0  C443.9,266.3,419.1,242.9,388.5,242.9z"/>
<path style="fill:#324A5E;" d="M389.8,313.3l-12.9-1c-0.5,0-1-0.4-1.1-0.9c-0.8-2.3-1.7-4.5-2.7-6.6c-0.2-0.5-0.2-1,0.2-1.4l8.4-9.9  c0.5-0.5,0.4-1.3-0.1-1.8L365,275.1c-0.5-0.5-1.3-0.5-1.8-0.1l-9.9,8.4c-0.4,0.3-1,0.4-1.4,0.2c-2.1-1.1-4.3-2-6.6-2.7  c-0.5-0.2-0.9-0.6-0.9-1.1l-1-12.9c-0.1-0.7-0.6-1.2-1.3-1.2h-23.6c-0.7,0-1.3,0.5-1.3,1.2l-1,12.9c0,0.5-0.4,1-0.9,1.1  c-2.3,0.8-4.5,1.7-6.6,2.7c-0.5,0.2-1,0.2-1.4-0.2l-9.9-8.4c-0.5-0.5-1.3-0.4-1.8,0.1L279,291.7c-0.5,0.5-0.5,1.3-0.1,1.8l8.4,9.9  c0.3,0.4,0.4,1,0.2,1.4c-1.1,2.1-2,4.3-2.7,6.6c-0.2,0.5-0.6,0.9-1.1,0.9l-12.9,1c-0.7,0.1-1.2,0.6-1.2,1.3v23.5  c0,0.7,0.5,1.3,1.2,1.4l12.9,1c0.5,0,1,0.4,1.1,0.9c0.8,2.3,1.7,4.5,2.7,6.6c0.2,0.5,0.2,1-0.2,1.4l-8.4,9.9  c-0.5,0.5-0.4,1.3,0.1,1.8l16.6,16.6c0.5,0.5,1.3,0.5,1.8,0.1l9.9-8.4c0.4-0.3,1-0.4,1.4-0.2c2.1,1.1,4.3,2,6.6,2.7  c0.5,0.2,0.9,0.6,0.9,1.1l1,12.9c0.1,0.7,0.6,1.2,1.3,1.2H342c0.7,0,1.3-0.5,1.3-1.2l1-12.9c0-0.5,0.4-1,0.9-1.1  c2.3-0.8,4.5-1.7,6.6-2.7c0.5-0.2,1-0.2,1.4,0.2l9.9,8.4c0.5,0.5,1.3,0.4,1.8-0.1l16.6-16.6c0.5-0.5,0.5-1.3,0.1-1.8l-8.4-9.9  c-0.3-0.4-0.4-1-0.2-1.4c1.1-2.1,2-4.3,2.7-6.6c0.2-0.5,0.6-0.9,1.1-0.9l12.9-1c0.7-0.1,1.2-0.6,1.2-1.4v-23.5  C391.1,313.9,390.5,313.3,389.8,313.3z M330.2,354c-15.2,0-27.6-12.3-27.6-27.6c0-15.2,12.3-27.6,27.6-27.6  c15.2,0,27.6,12.3,27.6,27.6C357.8,341.6,345.5,354,330.2,354z"/>
<path style="fill:#FF7058;" d="M223.9,246.8l-9.3-0.7c-0.4,0-0.7-0.3-0.8-0.7c-0.5-1.6-1.2-3.2-2-4.8c-0.2-0.3-0.1-0.7,0.1-1  l6.1-7.1c0.3-0.4,0.3-1-0.1-1.3l-12-12c-0.4-0.4-0.9-0.4-1.3-0.1l-7.1,6.1c-0.3,0.3-0.7,0.3-1,0.1c-1.5-0.8-3.1-1.4-4.8-2  c-0.4-0.1-0.6-0.4-0.7-0.8l-0.7-9.3c0-0.5-0.5-0.9-1-0.9h-17c-0.5,0-0.9,0.4-1,0.9l-0.7,9.3c0,0.4-0.3,0.7-0.7,0.8  c-1.6,0.5-3.2,1.2-4.8,2c-0.3,0.2-0.7,0.1-1-0.1l-7.1-6.1c-0.4-0.3-1-0.3-1.3,0.1l-12,12c-0.4,0.4-0.4,0.9-0.1,1.3l6.1,7.1  c0.3,0.3,0.3,0.7,0.1,1c-0.8,1.5-1.4,3.1-2,4.8c-0.1,0.4-0.4,0.6-0.8,0.7l-9.3,0.7c-0.5,0-0.9,0.5-0.9,1v17c0,0.5,0.4,0.9,0.9,1  l9.3,0.7c0.4,0,0.7,0.3,0.8,0.7c0.5,1.6,1.2,3.2,2,4.8c0.2,0.3,0.1,0.7-0.1,1l-6.1,7.1c-0.3,0.4-0.3,1,0.1,1.3l12,12  c0.4,0.4,0.9,0.4,1.3,0.1l7.1-6.1c0.3-0.3,0.7-0.3,1-0.1c1.5,0.8,3.1,1.4,4.8,2c0.4,0.1,0.6,0.4,0.7,0.8l0.7,9.3  c0,0.5,0.5,0.9,1,0.9h17c0.5,0,0.9-0.4,1-0.9l0.7-9.3c0-0.4,0.3-0.7,0.7-0.8c1.6-0.5,3.2-1.2,4.8-2c0.3-0.2,0.7-0.1,1,0.1l7.1,6.1  c0.4,0.3,1,0.3,1.3-0.1l12-12c0.4-0.4,0.4-0.9,0.1-1.3l-6.1-7.1c-0.3-0.3-0.3-0.7-0.1-1c0.8-1.5,1.4-3.1,2-4.8  c0.1-0.4,0.4-0.6,0.8-0.7l9.3-0.7c0.5,0,0.9-0.5,0.9-1v-17C224.8,247.2,224.4,246.8,223.9,246.8z M180.8,276.1  c-11,0-19.9-8.9-19.9-19.9s8.9-19.9,19.9-19.9s19.9,8.9,19.9,19.9C200.8,267.2,191.8,276.1,180.8,276.1z"/>
<g>
</g>
<g>
</g>
<g>
</g>
<g>
</g>
<g>
</g>
<g>
</g>
<g>
</g>
<g>
</g>
<g>
</g>
<g>
</g>
<g>
</g>
<g>
</g>
<g>
</g>
<g>
</g>
<g>
</g>
</svg>
