<?xml version="1.0" encoding="iso-8859-1"?>
<!-- Generator: Adobe Illustrator 19.0.0, SVG Export Plug-In . SVG Version: 6.00 Build 0)  -->
<svg xmlns="http://www.w3.org/2000/svg" xmlns:xlink="http://www.w3.org/1999/xlink" version="1.1" id="Layer_1" x="0px" y="0px" viewBox="0 0 505 505" style="enable-background:new 0 0 505 505;" xml:space="preserve">
<circle style="fill:#324A5E;" cx="252.5" cy="252.5" r="252.5"/>
<g>
	<rect x="124.9" y="282.4" style="fill:#395767;" width="254.9" height="12.5"/>
	<rect x="124.9" y="282.4" style="fill:#395767;" width="11.7" height="57.4"/>
	<rect x="368.1" y="282.4" style="fill:#395767;" width="11.7" height="57.4"/>
	<rect x="246.5" y="234.5" style="fill:#395767;" width="11.7" height="105.5"/>
</g>
<ellipse style="fill:#2DB39A;" cx="252.3" cy="186.6" rx="72.4" ry="72.4"/>
<g>
	<path style="fill:#EDF2F2;" d="M299.8,132c-1.6-0.3-3.2-0.5-4.8-0.8c-1.2-0.2-2.4-0.4-3.6-0.1c-1.2,0.3-2.3,1.2-2.4,2.4   c-0.2,1.9,2,3.7,1.3,5.5c-0.4,1.2-1.8,1.7-3.1,1.8c-1.3,0.1-2.6,0-3.7,0.6s-1.7,1.8-2.5,2.7c-1.5,1.9-3.8,3.2-6.3,3.4   c-2.3,0.2-5.4,0.1-6,2.4c-0.3,1.4,0.7,2.8,0.3,4.2c-0.7,2.5-4.6,1.8-6.4,3.7c-1.5,1.6-0.5,4.5,1.5,5.3s4.4-0.2,5.7-1.9   c0.9-1.1,1.4-2.5,2.2-3.6c0.9-1.1,2.3-2,3.6-1.6c1.1,0.3,1.8,1.3,2.7,1.8c1.6,0.8,4,0.6,4.6,2.3c0.2,0.7,0,1.5,0.5,2   c0.5,0.6,1.4,0.5,2.1,0.4c1.8-0.3,3.8-0.4,5.3,0.7c1.5,1,2,3.6,0.5,4.6c-1.1,0.8-2.6,0.4-3.7-0.2s-2.3-1.4-3.5-1.6   c-1.3-0.2-2.9,0.6-2.9,1.9c-1.4,0.6-3.3,0.1-4.2-1.2c-0.4-0.5-0.6-1.1-1-1.6c-0.9-1.2-2.5-1.6-3.9-1.6c-4.9,0-8.9,4.2-11.2,8.5   c-1.3,2.5-2.4,5.2-2.4,8s1.1,5.7,3.5,7.3c2.5,1.7,5.7,1.5,8.7,1.4c1.1,0,2.3,0.1,2.9,0.9c0.8,1.1,0,2.7,0.1,4.1   c0.3,2.2,2.8,3.4,3.2,5.6c0.4,2.2-1.8,4.2-1.5,6.4c0.1,1.3,1,2.3,1.6,3.5c1.1,2.5,0.5,5.5,1.8,7.9c1.3,2.3,4.3,3.4,6.8,2.4   s3.9-3.9,3.2-6.4c1.4,0.2,2.8-0.3,3.7-1.3c0.9-0.9-1.5-2.1-1.2-3.3c0.1-0.6,0.8-0.9,1.3-1.3c1.5-1.1,1.8-3.1,1.6-5   c-0.2-1.8-0.6-3.7-0.2-5.4c0.6-2.5,2.7-4.2,4.5-6.1c1.7-1.9,3.2-4.6,2.1-6.9c-1.2-0.1-2.5-0.1-3.7-0.2c-0.1-2.4,2.6-3.8,4.9-4.7   c2.3-0.8,5-2.2,4.9-4.7c1.6-1.1,3.9-0.3,5.2,1.2s1.8,3.4,2.4,5.3c0.6,1.9,1.4,3.8,2.9,4.9c2.4-2.4,1-7.4,3.9-9.3   c0.8-0.5,1.8-0.7,2.8-0.5C321.4,158.5,312.5,143,299.8,132z"/>
	<path style="fill:#EDF2F2;" d="M193.6,161.2c2,4.7,7.5,7.3,9.4,12.1c0.5,1.2,0.7,2.5,1.4,3.6c1.9,3.1,6.5,3.1,9.3,5.4   c1,0.7,1.7,1.7,2.4,2.7c1.6,2,3.2,4.2,3.6,6.8c0.2,1.4,0,2.9,0.2,4.3c0.3,2.2,1.5,4.2,2.5,6.3c3.6,7.6,4.2,16.5,1.6,24.5   c-0.7,2-1.5,4-1.8,6.1s0,4.4,1.5,6c1.4,1.6,4.2,1.9,5.7,0.4c0.9-2.1-2.3-3.8-2.4-6c0-0.6,0.2-1.3,0.5-1.8c1.2-2.7,2.7-5.4,4.4-7.8   c0.9-1.2,1.9-2.6,1.6-4c1.8,0.9,4.2,0,5-1.8c0.8-2-0.2-4.8,1.5-6.2c0.7-0.6,1.6-0.7,2.4-1.1c2.9-1.4,2.7-5.5,2.2-8.7   c1.6,0.6,3.2-1.5,2.8-3.1c-0.4-1.7-1.9-2.8-3.4-3.6s-3.1-1.5-4.2-2.8c-0.6-0.7-0.9-1.4-1.5-2.1c-0.6-0.7-1.3-1.3-2.1-1.9   c-1.8-1.4-3.7-2.7-5.8-3.5c-2.1-0.7-4.7-0.7-6.5,0.6c-0.5,0.3-1,0.8-1.5,0.9c-2,0.5-3.4-2.5-5.5-2.6c1.7-1.5-0.2-4.3-2.2-5.1   c-2.1-0.9-4.7-1.4-5.5-3.5c-0.7-1.8,0.6-3.9,2.4-4.7c1.7-0.9,3.8-0.8,5.7-0.8c0.3-0.6,0.6-1.1,0.9-1.7c0.3-0.5,0.5-0.9,0.8-1.4   c1.3-2.4,2.6-4.8,4.5-6.7c2-2.1,4.6-3.6,7.4-4.3c0.6-0.2,1.3-0.3,1.7-0.7c0.9-0.8,0.6-2.2,0.6-3.4c0.1-1.2,1.3-2.6,2.2-1.9   c0.6-0.7,0.3-1.8-0.3-2.4c-0.6-0.7-1.5-1-2.3-1.5c-2-1.3-3.1-3.6-4.1-5.7c-0.6-1.2-1.1-2.6-0.5-3.8c0.4-0.7,1.1-1.2,1.5-1.9   c0.8-1.5-0.2-3.3-1.6-4.3c-1.3-1-3-1.5-4.3-2.5s-2.2-3-1.3-4.4c3.9-1.9,9.1-0.8,11.9,2.6c3,3.7,3,9.3,6.4,12.7   c0.9,0.9,2.4,1.5,3.3,0.7c0.4-0.4,0.5-0.9,0.7-1.4c1.1-2.6,4.1-4.3,6.9-3.9c0-1.2,0-2.5,0-3.7c3.2-1.1,5.2-4.9,4.1-8.1   c-1.4-4.2-6.5-5.8-10.9-6.5c-1.4-0.2-2.8-0.4-4.2-0.5c-21.2,3.5-39.3,16.1-50.1,33.7c0.9,1.9,1.5,4,1.8,6   C192.6,157,192.8,159.2,193.6,161.2z"/>
</g>
<rect x="337.4" y="322.9" style="fill:#E19070;" width="73.9" height="67.9"/>
<rect x="93.8" y="322.9" style="fill:#2DB39A;" width="73.9" height="67.9"/>
<rect x="215.4" y="322.9" style="fill:#EDF2F2;" width="73.9" height="67.9"/>
<g>
</g>
<g>
</g>
<g>
</g>
<g>
</g>
<g>
</g>
<g>
</g>
<g>
</g>
<g>
</g>
<g>
</g>
<g>
</g>
<g>
</g>
<g>
</g>
<g>
</g>
<g>
</g>
<g>
</g>
</svg>
