<?xml version="1.0" encoding="iso-8859-1"?>
<!-- Generator: Adobe Illustrator 19.0.0, SVG Export Plug-In . SVG Version: 6.00 Build 0)  -->
<svg xmlns="http://www.w3.org/2000/svg" xmlns:xlink="http://www.w3.org/1999/xlink" version="1.1" id="Layer_1" x="0px" y="0px" viewBox="0 0 505 505" style="enable-background:new 0 0 505 505;" xml:space="preserve">
<circle style="fill:#90DFAA;" cx="252.5" cy="252.5" r="252.5"/>
<polygon style="fill:#2B3B4E;" points="362.7,244.8 269.7,151.9 252.5,169 235.3,151.9 142.3,244.8 174.9,277.4 252.5,199.9   330.1,277.4 "/>
<circle style="fill:#FFFFFF;" cx="252.5" cy="175.8" r="39.1"/>
<circle style="fill:#E6E9EE;" cx="252.5" cy="175.8" r="16.4"/>
<path style="fill:#324A5E;" d="M376.6,195.3c0,0-78.4-8.7-113.2,70.1c-4.3,9.7,4.2,15.9,12.4,22.5c8.8,7.1,43.4,31.9,52.6,24"/>
<circle style="fill:#2B3B4E;" cx="376.6" cy="271.1" r="75.9"/>
<circle style="fill:#84DBFF;" cx="376.6" cy="271.1" r="60.3"/>
<path style="fill:#324A5E;" d="M128.4,195.3c0,0,78.4-8.7,113.2,70.1c4.3,9.7-4.2,15.9-12.4,22.5c-8.8,7.1-43.4,31.9-52.6,24"/>
<circle style="fill:#2B3B4E;" cx="128.4" cy="271.1" r="75.9"/>
<circle style="fill:#84DBFF;" cx="128.4" cy="271.1" r="60.3"/>
<g>
	
		<ellipse transform="matrix(-0.7071 -0.7071 0.7071 -0.7071 514.9423 708.8538)" style="fill:#FFFFFF;" cx="404.28" cy="247.779" rx="16.5" ry="9"/>
	
		<ellipse transform="matrix(-0.7071 -0.7071 0.7071 -0.7071 90.7329 533.1492)" style="fill:#FFFFFF;" cx="155.785" cy="247.783" rx="16.5" ry="9"/>
</g>
<g>
</g>
<g>
</g>
<g>
</g>
<g>
</g>
<g>
</g>
<g>
</g>
<g>
</g>
<g>
</g>
<g>
</g>
<g>
</g>
<g>
</g>
<g>
</g>
<g>
</g>
<g>
</g>
<g>
</g>
</svg>
