<?xml version="1.0" encoding="iso-8859-1"?>
<!-- Generator: Adobe Illustrator 19.0.0, SVG Export Plug-In . SVG Version: 6.00 Build 0)  -->
<svg xmlns="http://www.w3.org/2000/svg" xmlns:xlink="http://www.w3.org/1999/xlink" version="1.1" id="Layer_1" x="0px" y="0px" viewBox="0 0 505 505" style="enable-background:new 0 0 505 505;" xml:space="preserve">
<g>
	<circle style="fill:#FFD05B;" cx="252.5" cy="252.5" r="252.5"/>
	<path style="fill:#FFD05B;" d="M505,252.5c0,103-61.6,191.5-150,230.8c-8.4,3.8-17.2,7.1-26.1,9.9c-24.1,7.7-49.7,11.8-76.4,11.8   s-52.3-4.1-76.4-11.8c-8.9-2.8-17.6-6.1-26.1-9.9C61.6,444,0,355.5,0,252.5C0,113.1,113,0,252.5,0S505,113.1,505,252.5z"/>
</g>
<path style="fill:#FFFFFF;" d="M435.8,216.6l-34.5-5c-2.9-0.4-5.2-2.5-6.1-5.3c-2.5-7.7-5.5-15.2-9.2-22.3c-1.3-2.6-1.1-5.7,0.6-8  l20.8-27.8c2.3-3,2-7.3-0.7-9.9l-40.1-40.1c-2.7-2.7-6.9-3-10-0.7l-27.8,20.8c-2.3,1.7-5.4,2-8,0.6c-7.1-3.6-14.6-6.7-22.3-9.2  c-2.8-0.9-4.8-3.2-5.3-6.1l-5-34.5c-0.5-3.7-3.8-6.5-7.5-6.5H224c-3.8,0-7,2.8-7.5,6.5l-5,34.5c-0.4,2.9-2.5,5.2-5.3,6.1  c-7.7,2.5-15.2,5.5-22.3,9.2c-2.6,1.3-5.7,1.1-8-0.6l-27.6-20.8c-3-2.3-7.3-2-10,0.7l-40.1,40.1c-2.7,2.7-3,6.9-0.7,9.9l20.8,27.8  c1.7,2.3,1.9,5.4,0.6,8c-3.6,7.1-6.7,14.6-9.2,22.3c-0.9,2.8-3.2,4.8-6.1,5.3l-34.5,5c-3.7,0.5-6.5,3.8-6.5,7.5v56.7  c0,3.8,2.8,7,6.5,7.5l34.5,5c2.9,0.4,5.2,2.5,6.1,5.3c2.5,7.7,5.5,15.2,9.2,22.3c1.3,2.6,1.1,5.7-0.6,8l-20.8,27.8  c-2.3,3-2,7.3,0.7,10l40.1,40.1c2.7,2.7,6.9,3,10,0.7l27.8-20.8c2.3-1.7,5.4-1.9,8-0.6c7.1,3.6,14.6,6.7,22.3,9.2  c2.8,0.9,4.8,3.2,5.3,6.1l5,34.5c0.5,3.7,3.8,6.5,7.5,6.5h56.7c3.8,0,7-2.8,7.5-6.5l5-34.5c0.4-2.9,2.5-5.2,5.3-6.1  c7.7-2.5,15.2-5.5,22.3-9.2c2.6-1.3,5.7-1.1,8,0.6l27.8,20.8c3,2.3,7.3,2,10-0.7l40.1-40.1c2.7-2.7,3-6.9,0.7-10l-20.8-27.8  c-1.7-2.3-1.9-5.4-0.6-8c3.6-7.1,6.7-14.6,9.2-22.3c0.9-2.8,3.2-4.8,6.1-5.3l34.5-5c3.7-0.5,6.5-3.8,6.5-7.5v-56.7  C442.3,220.4,439.5,217.2,435.8,216.6z M252.5,315.8c-35,0-63.3-28.3-63.3-63.3s28.3-63.3,63.3-63.3s63.3,28.3,63.3,63.3  S287.5,315.8,252.5,315.8z"/>
<path style="fill:#4CDBC4;" d="M252.5,370.3c-65,0-117.8-52.9-117.8-117.8c0-65,52.9-117.8,117.8-117.8s117.8,52.8,117.8,117.8  S317.5,370.3,252.5,370.3z M252.5,143.8c-59.9,0-108.7,48.8-108.7,108.7s48.8,108.7,108.7,108.7s108.7-48.8,108.7-108.7  S312.4,143.8,252.5,143.8z"/>
<g>
</g>
<g>
</g>
<g>
</g>
<g>
</g>
<g>
</g>
<g>
</g>
<g>
</g>
<g>
</g>
<g>
</g>
<g>
</g>
<g>
</g>
<g>
</g>
<g>
</g>
<g>
</g>
<g>
</g>
</svg>
