<?xml version="1.0" encoding="iso-8859-1"?>
<!-- Generator: Adobe Illustrator 19.0.0, SVG Export Plug-In . SVG Version: 6.00 Build 0)  -->
<svg xmlns="http://www.w3.org/2000/svg" xmlns:xlink="http://www.w3.org/1999/xlink" version="1.1" id="Layer_1" x="0px" y="0px" viewBox="0 0 505 505" style="enable-background:new 0 0 505 505;" xml:space="preserve">
<circle style="fill:#FD8469;" cx="252.5" cy="252.5" r="252.5"/>
<rect x="217.9" y="366.8" style="fill:#395767;" width="69.3" height="15.1"/>
<g>
	<path style="fill:#324A5E;" d="M298.9,258.2c0,0,84.5,42.9,71,154.2c0,0-23.5-45.6-71-45.6"/>
	<path style="fill:#324A5E;" d="M206.1,258.2c0,0-84.5,42.9-71,154.2c0,0,23.5-45.6,71-45.6"/>
</g>
<g>
	<path style="fill:#FFFFFF;" d="M252.5,45.9c-13,0-45.8,78.5-46.4,162.7v158.3H299V208.6C298.3,124.4,264.2,45.9,252.5,45.9z"/>
	<polygon style="fill:#FFFFFF;" points="221.6,396.7 207.3,450.7 240.2,416.6 253.1,459.1 264.5,416.6 297.7,451.3 285.5,396.7  "/>
</g>
<circle style="fill:#84DBFF;" cx="252.5" cy="193.8" r="25.2"/>
<g>
</g>
<g>
</g>
<g>
</g>
<g>
</g>
<g>
</g>
<g>
</g>
<g>
</g>
<g>
</g>
<g>
</g>
<g>
</g>
<g>
</g>
<g>
</g>
<g>
</g>
<g>
</g>
<g>
</g>
</svg>
