<?xml version="1.0" encoding="iso-8859-1"?>
<!-- Generator: Adobe Illustrator 19.0.0, SVG Export Plug-In . SVG Version: 6.00 Build 0)  -->
<svg xmlns="http://www.w3.org/2000/svg" xmlns:xlink="http://www.w3.org/1999/xlink" version="1.1" id="Layer_1" x="0px" y="0px" viewBox="0 0 505 505" style="enable-background:new 0 0 505 505;" xml:space="preserve">
<circle style="fill:#FD8469;" cx="252.5" cy="252.5" r="252.5"/>
<path style="fill:#2B3B4E;" d="M306.5,116.3l-205.2,45.4c-3.5,0.8-6.4,5.3-6.4,10.1v208.3c0,4.8,2.9,8.1,6.4,7.3L306.5,342  c3.5-0.8,6.4-5.3,6.4-10.1V123.6C312.9,118.8,310.1,115.5,306.5,116.3z"/>
<path style="fill:#324A5E;" d="M383.7,163.1h-280c-4.8,0-8.7,3.9-8.7,8.7v208.3c0,4.8,3.9,8.7,8.7,8.7h279.9c4.8,0,8.7-3.9,8.7-8.7  V171.8C392.4,167,388.5,163.1,383.7,163.1z"/>
<path style="fill:#E6E9EE;" d="M289.8,249.3c-14.8,0-26.7,12-26.7,26.7c0,14.8,12,26.7,26.7,26.7h102.6v-53.5H289.8V249.3z"/>
<circle style="fill:#324A5E;" cx="290.5" cy="276" r="8.9"/>
<g>
</g>
<g>
</g>
<g>
</g>
<g>
</g>
<g>
</g>
<g>
</g>
<g>
</g>
<g>
</g>
<g>
</g>
<g>
</g>
<g>
</g>
<g>
</g>
<g>
</g>
<g>
</g>
<g>
</g>
</svg>
