<?xml version="1.0" encoding="iso-8859-1"?>
<!-- Generator: Adobe Illustrator 19.0.0, SVG Export Plug-In . SVG Version: 6.00 Build 0)  -->
<svg xmlns="http://www.w3.org/2000/svg" xmlns:xlink="http://www.w3.org/1999/xlink" version="1.1" id="Layer_1" x="0px" y="0px" viewBox="0 0 505 505" style="enable-background:new 0 0 505 505;" xml:space="preserve">
<circle style="fill:#FFD05B;" cx="252.5" cy="252.5" r="252.5"/>
<path style="fill:#FFFFFF;" d="M372.5,210.3h-240c-10.6,0-19.2,8.6-19.2,19.2v143.6c0,10.6,8.6,19.2,19.2,19.2h240  c10.6,0,19.2-8.6,19.2-19.2V229.5C391.7,218.9,383.1,210.3,372.5,210.3z"/>
<rect x="235.5" y="173.4" style="fill:#E6E9EE;" width="34.1" height="36.9"/>
<path style="fill:#FFFFFF;" d="M302.6,112.8H202.4c-2.8,0-5.1,2.3-5.1,5.1v62.6c0,2.8,2.3,5.1,5.1,5.1h100.2c2.8,0,5.1-2.3,5.1-5.1  v-62.6C307.7,115,305.4,112.8,302.6,112.8z"/>
<rect x="210.8" y="124.9" style="fill:#84DBFF;" width="83.4" height="48.5"/>
<g>
	<path style="fill:#395767;" d="M147.2,237.7h-33.9v125.6h33.9c7.2,0,13-5.8,13-13v-99.5C160.2,243.6,154.4,237.7,147.2,237.7z"/>
	<circle style="fill:#395767;" cx="252.5" cy="301.3" r="65.9"/>
</g>
<circle style="fill:#84DBFF;" cx="252.5" cy="301.3" r="53.9"/>
<ellipse transform="matrix(0.7071 -0.7071 0.7071 0.7071 -130.9914 245.1973)" style="fill:#FFFFFF;" cx="230.484" cy="280.719" rx="17.7" ry="8.4"/>
<circle style="fill:#FF7058;" cx="362" cy="232.5" r="6.9"/>
<g>
</g>
<g>
</g>
<g>
</g>
<g>
</g>
<g>
</g>
<g>
</g>
<g>
</g>
<g>
</g>
<g>
</g>
<g>
</g>
<g>
</g>
<g>
</g>
<g>
</g>
<g>
</g>
<g>
</g>
</svg>
