<?xml version="1.0" encoding="iso-8859-1"?>
<!-- Generator: Adobe Illustrator 19.0.0, SVG Export Plug-In . SVG Version: 6.00 Build 0)  -->
<svg xmlns="http://www.w3.org/2000/svg" xmlns:xlink="http://www.w3.org/1999/xlink" version="1.1" id="Layer_1" x="0px" y="0px" viewBox="0 0 505 505" style="enable-background:new 0 0 505 505;" xml:space="preserve">
<path style="fill:#84DBFF;" d="M505,252.55c0,129.7-97.8,236.5-223.6,250.8c-5.4,0.6-10.8,1.1-16.4,1.3c-4.1,0.2-8.3,0.3-12.5,0.3  c-7.7,0-15.3-0.4-22.9-1.1c-5.2-0.4-10.4-1.1-15.5-1.9c-10.9-1.7-21.6-4-32-7.1c-5.2-1.5-10.4-3.2-15.5-5  C69.4,454.85,0,361.85,0,252.55C0,113.05,113.1,0.05,252.5,0.05C392,0.05,505,113.05,505,252.55z"/>
<path style="fill:#FFFFFF;" d="M356.4,103.95h-211c-6.4,0-11.6,5.1-11.6,11.4v270.1c0,6.3,5.2,11.4,11.6,11.4h211.1  c6.4,0,11.6-5.1,11.6-11.4v-270.1C368.1,109.05,362.9,103.95,356.4,103.95z"/>
<path style="fill:#324A5E;" d="M181.2,103.95h-35.8c-6.4,0-11.6,5.1-11.6,11.4v270.1c0,6.3,5.2,11.4,11.6,11.4h35.8V103.95z"/>
<g>
	<circle style="fill:#FF7058;" cx="268.2" cy="219.35" r="26.2"/>
	<path style="fill:#FF7058;" d="M320.6,307.65c-0.5-28.6-23.7-51.6-52.4-51.6s-51.9,23-52.4,51.6H320.6z"/>
</g>
<g>
</g>
<g>
</g>
<g>
</g>
<g>
</g>
<g>
</g>
<g>
</g>
<g>
</g>
<g>
</g>
<g>
</g>
<g>
</g>
<g>
</g>
<g>
</g>
<g>
</g>
<g>
</g>
<g>
</g>
</svg>
