<?xml version="1.0" encoding="iso-8859-1"?>
<!-- Generator: Adobe Illustrator 19.0.0, SVG Export Plug-In . SVG Version: 6.00 Build 0)  -->
<svg xmlns="http://www.w3.org/2000/svg" xmlns:xlink="http://www.w3.org/1999/xlink" version="1.1" id="Layer_1" x="0px" y="0px" viewBox="0 0 505 505" style="enable-background:new 0 0 505 505;" xml:space="preserve">
<circle style="fill:#324A5E;" cx="252.5" cy="252.5" r="252.5"/>
<path style="fill:#FFFFFF;" d="M400,331.5h-11.4c0-48.5-16.6-137.1-62.3-182.6c-20.4-20.3-45-30.6-73.1-30.6c-0.2,0-0.5,0-0.7,0  C141.4,119,116.4,276.4,116.4,331.5H105c0-58,27.1-223.9,147.5-224.6c0.3,0,0.5,0,0.8,0c31.2,0,58.5,11.4,81.1,33.9  C386.3,192.5,400,288.2,400,331.5z"/>
<path style="fill:#54C0EB;" d="M156.4,390.6H123c-1.3,0-2.3-1-2.3-2.3v-89c0-1.3,1-2.3,2.3-2.3h33.4V390.6z"/>
<path style="fill:#EDF2F2;" d="M161.8,283.8c-7.8,0-14.2,6.3-14.2,14.2v91.7c0,7.8,6.3,14.2,14.2,14.2c7.8,0,14.2-6.3,14.2-14.2V298  C176,290.1,169.6,283.8,161.8,283.8z"/>
<path style="fill:#54C0EB;" d="M348.6,390.6H382c1.3,0,2.3-1,2.3-2.3v-89c0-1.3-1-2.3-2.3-2.3h-33.4V390.6z"/>
<path style="fill:#EDF2F2;" d="M343.2,283.8c7.8,0,14.2,6.3,14.2,14.2v91.7c0,7.8-6.3,14.2-14.2,14.2c-7.8,0-14.2-6.3-14.2-14.2V298  C329,290.1,335.4,283.8,343.2,283.8z"/>
<g>
	<path style="fill:#FBDD56;" d="M397.4,323.7h-13.1v40h13.1c3.8,0,6.9-3.1,6.9-6.9v-26.2C404.3,326.8,401.2,323.7,397.4,323.7z"/>
	<path style="fill:#FBDD56;" d="M107.6,323.7h13.1v40h-13.1c-3.8,0-6.9-3.1-6.9-6.9v-26.2C100.7,326.8,103.8,323.7,107.6,323.7z"/>
</g>
<path style="fill:#FF7058;" d="M328.5,128.4c-20.1-16.5-45-27-75.7-27.2h-0.1h-0.3h-0.1c-30.8,0.2-55.7,10.6-75.7,27.2  c-0.9,0.8-1.5,1.9-1.5,3.1v19.7c0,3.6,4.3,5.3,6.8,2.8c18-18.1,41.1-29.9,70.5-30h0.3c29.4,0.2,52.4,11.9,70.5,30  c2.5,2.5,6.8,0.8,6.8-2.8v-19.7C330,130.4,329.4,129.2,328.5,128.4z"/>
<g>
</g>
<g>
</g>
<g>
</g>
<g>
</g>
<g>
</g>
<g>
</g>
<g>
</g>
<g>
</g>
<g>
</g>
<g>
</g>
<g>
</g>
<g>
</g>
<g>
</g>
<g>
</g>
<g>
</g>
</svg>
