<?xml version="1.0" encoding="iso-8859-1"?>
<!-- Generator: Adobe Illustrator 19.0.0, SVG Export Plug-In . SVG Version: 6.00 Build 0)  -->
<svg xmlns="http://www.w3.org/2000/svg" xmlns:xlink="http://www.w3.org/1999/xlink" version="1.1" id="Layer_1" x="0px" y="0px" viewBox="0 0 505 505" style="enable-background:new 0 0 505 505;" xml:space="preserve">
<circle style="fill:#90DFAA;" cx="252.5" cy="252.5" r="252.5"/>
<path style="fill:#FFFFFF;" d="M353.9,68.3H151.1c-10.5,0-19,8.5-19,19v330.4c0,10.5,8.5,19,19,19h202.8c10.5,0,19-8.5,19-19V87.3  C373,76.8,364.4,68.3,353.9,68.3z"/>
<rect x="146.3" y="118.7" style="fill:#395767;" width="212.3" height="267.6"/>
<g>
	<path style="fill:#EDF2F2;" d="M277.2,98.7h-49.4c-2.9,0-5.2-2.3-5.2-5.2l0,0c0-2.9,2.3-5.2,5.2-5.2h49.4c2.9,0,5.2,2.3,5.2,5.2   l0,0C282.4,96.3,280,98.7,277.2,98.7z"/>
	<circle style="fill:#EDF2F2;" cx="252.5" cy="411.5" r="14.5"/>
</g>
<g>
</g>
<g>
</g>
<g>
</g>
<g>
</g>
<g>
</g>
<g>
</g>
<g>
</g>
<g>
</g>
<g>
</g>
<g>
</g>
<g>
</g>
<g>
</g>
<g>
</g>
<g>
</g>
<g>
</g>
</svg>
