<?xml version="1.0" encoding="iso-8859-1"?>
<!-- Generator: Adobe Illustrator 19.0.0, SVG Export Plug-In . SVG Version: 6.00 Build 0)  -->
<svg xmlns="http://www.w3.org/2000/svg" xmlns:xlink="http://www.w3.org/1999/xlink" version="1.1" id="Layer_1" x="0px" y="0px" viewBox="0 0 505 505" style="enable-background:new 0 0 505 505;" xml:space="preserve">
<circle style="fill:#324A5E;" cx="252.5" cy="252.5" r="252.5"/>
<path style="fill:#FFD05B;" d="M393.8,154.6h-153c-4.8,0-9.2-2.6-11.6-6.8l-11.1-19.7c-2.4-4.2-6.8-6.8-11.6-6.8h-95.2  c-7.3,0-13.3,6-13.3,13.3v235.7c0,7.3,6,13.3,13.3,13.3h282.5c7.3,0,13.3-6,13.3-13.3V167.9C407.1,160.6,401.1,154.6,393.8,154.6z"/>
<g>
	<polygon style="fill:#FFFFFF;" points="283.2,337.3 322.6,337.3 322.6,253.3 341.1,253.3 302.9,215.1 264.7,253.3 283.2,253.3  "/>
	<polygon style="fill:#FFFFFF;" points="182.4,215.1 221.8,215.1 221.8,299.1 240.3,299.1 202.1,337.3 163.9,299.1 182.4,299.1  "/>
</g>
<g>
</g>
<g>
</g>
<g>
</g>
<g>
</g>
<g>
</g>
<g>
</g>
<g>
</g>
<g>
</g>
<g>
</g>
<g>
</g>
<g>
</g>
<g>
</g>
<g>
</g>
<g>
</g>
<g>
</g>
</svg>
