<?xml version="1.0" encoding="iso-8859-1"?>
<!-- Generator: Adobe Illustrator 19.0.0, SVG Export Plug-In . SVG Version: 6.00 Build 0)  -->
<svg xmlns="http://www.w3.org/2000/svg" xmlns:xlink="http://www.w3.org/1999/xlink" version="1.1" id="Layer_1" x="0px" y="0px" viewBox="0 0 508 508" style="enable-background:new 0 0 508 508;" xml:space="preserve">
<circle style="fill:#FD8469;" cx="254" cy="254" r="254"/>
<g>
	<rect x="243.2" y="140.8" style="fill:#2B3B4E;" width="21.6" height="149.2"/>
	<path style="fill:#2B3B4E;" d="M176.4,155.2V97.6c0-6.4,5.2-11.6,11.6-11.6h132c6.4,0,11.6,5.2,11.6,11.6v57.6   c0,6.4-5.2,11.6-11.6,11.6H188C181.6,166.8,176.4,161.6,176.4,155.2z"/>
</g>
<path style="fill:#324A5E;" d="M213.2,164V88.4c0-6.4,5.2-11.6,11.6-11.6h58.8c6.4,0,11.6,5.2,11.6,11.6V164  c0,6.4-5.2,11.6-11.6,11.6h-59.2C218.4,175.6,213.2,170.4,213.2,164z"/>
<path style="fill:#FFD05B;" d="M265.6,243.6H242c-5.2,0-9.6,4.4-9.6,9.6v168c0,5.2,4.4,9.6,9.6,9.6h23.6c5.2,0,9.6-4.4,9.6-9.6v-168  C275.6,247.6,271.2,243.6,265.6,243.6z"/>
<g>
</g>
<g>
</g>
<g>
</g>
<g>
</g>
<g>
</g>
<g>
</g>
<g>
</g>
<g>
</g>
<g>
</g>
<g>
</g>
<g>
</g>
<g>
</g>
<g>
</g>
<g>
</g>
<g>
</g>
</svg>
