<?xml version="1.0" encoding="iso-8859-1"?>
<!-- Generator: Adobe Illustrator 19.0.0, SVG Export Plug-In . SVG Version: 6.00 Build 0)  -->
<svg xmlns="http://www.w3.org/2000/svg" xmlns:xlink="http://www.w3.org/1999/xlink" version="1.1" id="Layer_1" x="0px" y="0px" viewBox="0 0 508 508" style="enable-background:new 0 0 508 508;" xml:space="preserve">
<circle style="fill:#90DFAA;" cx="254" cy="254" r="254"/>
<g>
	<path style="fill:#2B3B4E;" d="M342.4,145.2c0,11.2-8.8,20-20,20s-72-8.8-72-20s60.8-20,72-20S342.4,134.4,342.4,145.2z"/>
	<path style="fill:#2B3B4E;" d="M165.6,145.2c0,11.2,8.8,20,20,20s72-8.8,72-20s-60.8-20-72-20C174.4,125.2,165.6,134.4,165.6,145.2   z"/>
</g>
<path style="fill:#FFFFFF;" d="M419.2,374.4h-59.6v-67.2c0-15.2-12.4-27.6-27.6-27.6H176c-15.2,0-27.6,12.4-27.6,27.6v67.6H88.8  v-67.6c0-48,39.2-87.2,87.2-87.2h156c48,0,87.2,39.2,87.2,87.2V374.4z"/>
<path style="fill:#324A5E;" d="M254,117.6c-6.4,0-11.6,5.2-11.6,11.6v84.4H266v-84C265.6,122.8,260.4,117.6,254,117.6z"/>
<ellipse style="fill:#E6E9EE;" cx="254" cy="249.6" rx="79.2" ry="65.2"/>
<g>
</g>
<g>
</g>
<g>
</g>
<g>
</g>
<g>
</g>
<g>
</g>
<g>
</g>
<g>
</g>
<g>
</g>
<g>
</g>
<g>
</g>
<g>
</g>
<g>
</g>
<g>
</g>
<g>
</g>
</svg>
