<?xml version="1.0" encoding="iso-8859-1"?>
<!-- Generator: Adobe Illustrator 19.0.0, SVG Export Plug-In . SVG Version: 6.00 Build 0)  -->
<svg xmlns="http://www.w3.org/2000/svg" xmlns:xlink="http://www.w3.org/1999/xlink" version="1.1" id="Layer_1" x="0px" y="0px" viewBox="0 0 508 508" style="enable-background:new 0 0 508 508;" xml:space="preserve">
<circle style="fill:#324A5E;" cx="254" cy="254" r="254"/>
<path style="fill:#FFD05B;" d="M303.6,76H256c-4,0-7.2,3.2-7.2,7.2v341.6c0,4,3.2,7.2,7.2,7.2h47.6c4,0,7.2-3.2,7.2-7.2V83.2  C310.8,79.2,307.6,76,303.6,76z"/>
<path style="fill:#E6E9EE;" d="M356.8,102H231.6c-0.8,0-1.6,0-2.8,0.4l-80.4,34.4c-2.4,1.2-4,3.6-4,6V202c0,3.6,2.8,6.8,6.8,6.8  h205.6c3.6,0,6.8-2.8,6.8-6.8v-93.2C363.6,105.2,360.4,102,356.8,102z"/>
<g>
</g>
<g>
</g>
<g>
</g>
<g>
</g>
<g>
</g>
<g>
</g>
<g>
</g>
<g>
</g>
<g>
</g>
<g>
</g>
<g>
</g>
<g>
</g>
<g>
</g>
<g>
</g>
<g>
</g>
</svg>
