<?xml version="1.0" encoding="iso-8859-1"?>
<!-- Generator: Adobe Illustrator 19.0.0, SVG Export Plug-In . SVG Version: 6.00 Build 0)  -->
<svg xmlns="http://www.w3.org/2000/svg" xmlns:xlink="http://www.w3.org/1999/xlink" version="1.1" id="Layer_1" x="0px" y="0px" viewBox="0 0 508 508" style="enable-background:new 0 0 508 508;" xml:space="preserve">
<circle style="fill:#F1543F;" cx="254" cy="254" r="254"/>
<path style="fill:#FFD05B;" d="M168.8,120l-24,24c-2,2-2,4.8,0,6.8l240.4,240.4c2,2,4.8,2,6.8,0l24-24c2-2,2-4.8,0-6.8L175.6,120  C173.6,118.4,170.8,118.4,168.8,120z"/>
<path style="fill:#324A5E;" d="M197.2,120.8L146,172c-30.4,14.4-60.4,28.4-90.8,42.8c28.4,60,76.4,108.4,136.8,136.8  c14.4-30.4,28.4-60.4,42.8-90.8l51.2-51.2c2-2,2-4.8,0-6.8l-82-82C202,119.2,199.2,119.2,197.2,120.8z"/>
<path style="fill:#FFFFFF;" d="M80.8,202.8c-8.4,4-16.8,8-25.6,12c28.4,60,76.4,108.4,136.8,136.8c4-8.4,8-16.8,12-25.6  C150.8,298.8,108,255.6,80.8,202.8z"/>
<g>
</g>
<g>
</g>
<g>
</g>
<g>
</g>
<g>
</g>
<g>
</g>
<g>
</g>
<g>
</g>
<g>
</g>
<g>
</g>
<g>
</g>
<g>
</g>
<g>
</g>
<g>
</g>
<g>
</g>
</svg>
