<?xml version="1.0" encoding="iso-8859-1"?>
<!-- Generator: Adobe Illustrator 19.0.0, SVG Export Plug-In . SVG Version: 6.00 Build 0)  -->
<svg xmlns="http://www.w3.org/2000/svg" xmlns:xlink="http://www.w3.org/1999/xlink" version="1.1" id="Layer_1" x="0px" y="0px" viewBox="0 0 508 508" style="enable-background:new 0 0 508 508;" xml:space="preserve">
<circle style="fill:#FFD05B;" cx="254" cy="254" r="254"/>
<path style="fill:#324A5E;" d="M179.2,218.8c-5.2,0-9.2-4-9.2-9.2v-60.8h-14.8c-5.2,0-9.2-4-9.2-9.2s4-9.2,9.2-9.2h24  c5.2,0,9.2,4,9.2,9.2V210C188.4,214.8,184.4,218.8,179.2,218.8z"/>
<g>
	<path style="fill:#FFFFFF;" d="M124.8,209.6c-6.4,0-11.2,5.2-11.2,11.2v90.8H386v-102H124.8z"/>
	<polygon style="fill:#FFFFFF;" points="386,114.4 262.8,114.4 243.6,216 386,216  "/>
</g>
<polygon style="fill:#84DBFF;" points="268.4,202 281.2,136.8 363.6,136.8 363.6,202 "/>
<g>
	<path style="fill:#FFFFFF;" d="M392.4,114.4H242c-1.6,0-2.8,1.2-2.8,2.8v16.4c0,1.6,1.2,2.8,2.8,2.8h150.4c1.6,0,2.8-1.2,2.8-2.8   v-16.4C395.2,115.6,394,114.4,392.4,114.4z"/>
	<path style="fill:#FFFFFF;" d="M107.6,297.6c-2.4,0-4,2-4,4v17.2c0,2.4,2,4,4,4h289.2v-25.2H107.6z"/>
</g>
<path style="fill:#324A5E;" d="M419.2,306.8h-2c-1.6-6.8-4.4-12.8-7.6-18.4l1.2-1.2c1.6-1.6,1.6-4.4,0-6L394,264.4  c-1.6-1.6-4.4-1.6-6,0l-1.2,1.2c-5.6-3.6-12-6-18.4-7.6v-2c0-2.4-2-4.4-4.4-4.4h-23.6c-2.4,0-4.4,2-4.4,4.4v2  c-6.8,1.6-12.8,4.4-18.4,7.6l-1.2-1.2c-1.6-1.6-4.4-1.6-6,0L294,280.8c-1.6,1.6-1.6,4.4,0,6l1.2,1.2c-3.6,5.6-6,12-7.6,18.4h-2  c-2.4,0-4.4,2-4.4,4.4v23.6c0,2.4,2,4.4,4.4,4.4h2c1.6,6.8,4.4,12.8,7.6,18.4l-1.2,1.6c-1.6,1.6-1.6,4.4,0,6l16.8,16.8  c1.6,1.6,4.4,1.6,6,0l1.2-1.2c5.6,3.6,12,6,18.4,7.6v2c0,2.4,2,4.4,4.4,4.4h23.6c2.4,0,4.4-2,4.4-4.4v-2c6.8-1.6,12.8-4.4,18.4-7.6  l1.2,1.2c1.6,1.6,4.4,1.6,6,0l16.8-16.8c1.6-1.6,1.6-4.4,0-6l-1.2-1.2c3.6-5.6,6-12,7.6-18.4h2c2.4,0,4.4-2,4.4-4.4v-23.6  C423.2,308.8,421.6,306.8,419.2,306.8z"/>
<circle style="fill:#ACB3BA;" cx="352.4" cy="322.8" r="40"/>
<path style="fill:#324A5E;" d="M223.2,326.8h-1.6c-1.2-5.2-3.2-10-6-14.4l1.2-1.2c1.2-1.2,1.2-3.2,0-4.8L204,294  c-1.2-1.2-3.2-1.2-4.8,0l-1.2,1.2c-4.4-2.8-9.2-4.8-14.4-6v-1.6c0-2-1.6-3.2-3.2-3.2h-18c-2,0-3.2,1.6-3.2,3.2v1.6  c-5.2,1.2-10,3.2-14.4,6L144,294c-1.2-1.2-3.2-1.2-4.8,0l-12.8,12.8c-1.2,1.2-1.2,3.2,0,4.8l1.2,1.2c-2.8,4.4-4.8,9.2-6,14.4H120  c-2,0-3.2,1.6-3.2,3.2v18c0,2,1.6,3.2,3.2,3.2h1.6c1.2,5.2,3.2,10,6,14.4l-1.2,1.2c-1.2,1.2-1.2,3.2,0,4.8l12.8,12.8  c1.2,1.2,3.2,1.2,4.8,0l1.2-1.2c4.4,2.8,9.2,4.8,14.4,6v1.6c0,2,1.6,3.2,3.2,3.2h18c2,0,3.2-1.6,3.2-3.2v-1.6c5.2-1.2,10-3.2,14.4-6  l1.2,1.2c1.2,1.2,3.2,1.2,4.8,0l12.8-12.8c1.2-1.2,1.2-3.2,0-4.8L216,366c2.8-4.4,4.8-9.2,6-14.4h1.6c2,0,3.2-1.6,3.2-3.2V330  C226.4,328,224.8,326.8,223.2,326.8z"/>
<circle style="fill:#ACB3BA;" cx="171.6" cy="339.2" r="30.8"/>
<polygon style="fill:#54C0EB;" points="363.6,136.8 268.4,202 363.6,202 "/>
<g>
</g>
<g>
</g>
<g>
</g>
<g>
</g>
<g>
</g>
<g>
</g>
<g>
</g>
<g>
</g>
<g>
</g>
<g>
</g>
<g>
</g>
<g>
</g>
<g>
</g>
<g>
</g>
<g>
</g>
</svg>
