<?xml version="1.0" encoding="iso-8859-1"?>
<!-- Generator: Adobe Illustrator 19.0.0, SVG Export Plug-In . SVG Version: 6.00 Build 0)  -->
<svg xmlns="http://www.w3.org/2000/svg" xmlns:xlink="http://www.w3.org/1999/xlink" version="1.1" id="Layer_1" x="0px" y="0px" viewBox="0 0 508 508" style="enable-background:new 0 0 508 508;" xml:space="preserve">
<circle style="fill:#84DBFF;" cx="254" cy="254" r="254"/>
<path style="fill:#324A5E;" d="M325.2,127.2c-2.8-2-7.2-1.6-10,0.4L244.8,176h158.8L325.2,127.2z"/>
<polygon style="fill:#FFD05B;" points="238.8,176 238.8,142.8 181.6,142.8 181.6,156.8 222,156.8 222,262.8 423.2,262.8 423.2,176   "/>
<path style="fill:#FF7058;" d="M421.6,262.8H222V172c0-4.8-4-8.8-8.8-8.8H160c-2.8,0-5.2,1.2-7.2,3.6l-68,94.4  c-1.2,1.6-1.6,3.2-1.6,5.2v54.8c0,4.8,4,8.8,8.8,8.8h329.6c1.6,0,3.2-1.6,3.2-3.2V266C424.8,264,423.2,262.8,421.6,262.8z"/>
<polygon style="fill:#FFFFFF;" points="188,179.2 164,179.2 104,262.4 188,262.4 "/>
<path style="fill:#324A5E;" d="M192.4,326h-1.2c-1.2-4.4-2.8-8.4-4.8-12l0.8-0.8c1.2-1.2,1.2-2.8,0-4l-10.8-10.8  c-1.2-1.2-2.8-1.2-4,0l-0.8,0.8c-3.6-2.4-7.6-4-12-4.8v-1.2c0-1.6-1.2-2.8-2.8-2.8H142c-1.6,0-2.8,1.2-2.8,2.8v1.2  c-4.4,1.2-8.4,2.8-12,4.8l-0.8-0.8c-1.2-1.2-2.8-1.2-4,0l-10.8,10.8c-1.2,1.2-1.2,2.8,0,4l0.8,0.8c-2.4,3.6-4,7.6-4.8,12h-1.2  c-1.6,0-2.8,1.2-2.8,2.8V344c0,1.6,1.2,2.8,2.8,2.8h1.2c1.2,4.4,2.8,8.4,4.8,12l-0.8,0.8c-1.2,1.2-1.2,2.8,0,4l10.8,10.8  c1.2,1.2,2.8,1.2,4,0l0.8-0.8c3.6,2.4,7.6,4,12,4.8v1.2c0,1.6,1.2,2.8,2.8,2.8h15.2c1.6,0,2.8-1.2,2.8-2.8V378  c4.4-1.2,8.4-2.8,12-4.8l0.8,0.8c1.2,1.2,2.8,1.2,4,0l10.8-10.8c1.2-1.2,1.2-2.8,0-4l-0.8-0.8c2.4-3.6,4-7.6,4.8-12h1.2  c1.6,0,2.8-1.2,2.8-2.8v-15.2C195.2,327.2,194,326,192.4,326z"/>
<circle style="fill:#E6E9EE;" cx="149.6" cy="336.4" r="26"/>
<path style="fill:#324A5E;" d="M381.6,326h-1.2c-1.2-4.4-2.8-8.4-4.8-12l0.8-0.8c1.2-1.2,1.2-2.8,0-4l-10.8-10.8  c-1.2-1.2-2.8-1.2-4,0l-0.8,0.8c-3.6-2.4-7.6-4-12-4.8v-1.2c0-1.6-1.2-2.8-2.8-2.8h-15.2c-1.6,0-2.8,1.2-2.8,2.8v1.2  c-4.4,1.2-8.4,2.8-12,4.8l-0.8-0.8c-1.2-1.2-2.8-1.2-4,0l-10.8,10.8c-1.2,1.2-1.2,2.8,0,4l1.6,0.8c-2.4,3.6-4,7.6-4.8,12H296  c-1.6,0-2.8,1.2-2.8,2.8V344c0,1.6,1.2,2.8,2.8,2.8h1.2c1.2,4.4,2.8,8.4,4.8,12l-0.8,0.8c-1.2,1.2-1.2,2.8,0,4l10.8,10.8  c1.2,1.2,2.8,1.2,4,0l0.8-0.8c3.6,2.4,7.6,4,12,4.8v1.2c0,1.6,1.2,2.8,2.8,2.8h15.2c1.6,0,2.8-1.2,2.8-2.8V378  c4.4-1.2,8.4-2.8,12-4.8l0.4,0.8c1.2,1.2,2.8,1.2,4,0l10.8-10.8c1.2-1.2,1.2-2.8,0-4l-0.8-0.8c2.4-3.6,4-7.6,4.8-12h1.2  c1.6,0,2.8-1.2,2.8-2.8v-15.2C384.4,327.2,383.2,326,381.6,326z"/>
<circle style="fill:#E6E9EE;" cx="338.8" cy="336.4" r="26"/>
<g>
	<rect x="238.4" y="189.2" style="fill:#F9B54C;" width="15.2" height="60"/>
	<rect x="269.2" y="189.2" style="fill:#F9B54C;" width="15.2" height="60"/>
	<rect x="300.4" y="189.2" style="fill:#F9B54C;" width="15.2" height="60"/>
	<rect x="331.2" y="189.2" style="fill:#F9B54C;" width="15.2" height="60"/>
	<rect x="362" y="189.2" style="fill:#F9B54C;" width="15.2" height="60"/>
	<rect x="392.8" y="189.2" style="fill:#F9B54C;" width="15.2" height="60"/>
</g>
<g>
</g>
<g>
</g>
<g>
</g>
<g>
</g>
<g>
</g>
<g>
</g>
<g>
</g>
<g>
</g>
<g>
</g>
<g>
</g>
<g>
</g>
<g>
</g>
<g>
</g>
<g>
</g>
<g>
</g>
</svg>
