<?xml version="1.0" encoding="iso-8859-1"?>
<!-- Generator: Adobe Illustrator 19.0.0, SVG Export Plug-In . SVG Version: 6.00 Build 0)  -->
<svg xmlns="http://www.w3.org/2000/svg" xmlns:xlink="http://www.w3.org/1999/xlink" version="1.1" id="Layer_1" x="0px" y="0px" viewBox="0 0 508 508" style="enable-background:new 0 0 508 508;" xml:space="preserve">
<circle style="fill:#FD8469;" cx="254" cy="254" r="254"/>
<rect x="144.4" y="96.8" style="fill:#FFFFFF;" width="200.4" height="140.8"/>
<path style="fill:#FFD05B;" d="M344.8,153.6c-64.4,47.6-88.4-5.2-200.4,0V96.8h200.4V153.6z"/>
<path style="fill:#324A5E;" d="M144.4,237.6v42c0,4,2.4,7.6,5.6,9.2l68.4,33.2l-4.8,110.8c-0.8,17.6,13.2,32,30.8,32l0,0  c17.6,0,31.6-14.8,30.8-32L270.4,322l68.4-33.2c3.6-1.6,5.6-5.2,5.6-9.2v-42H144.4z M244.4,445.6c-6,0-10.8-4.8-10.8-10.8  s4.8-10.8,10.8-10.8s10.8,4.8,10.8,10.8C255.2,440.8,250.4,445.6,244.4,445.6z"/>
<g>
</g>
<g>
</g>
<g>
</g>
<g>
</g>
<g>
</g>
<g>
</g>
<g>
</g>
<g>
</g>
<g>
</g>
<g>
</g>
<g>
</g>
<g>
</g>
<g>
</g>
<g>
</g>
<g>
</g>
</svg>
