<?xml version="1.0" encoding="iso-8859-1"?>
<!-- Generator: Adobe Illustrator 19.0.0, SVG Export Plug-In . SVG Version: 6.00 Build 0)  -->
<svg xmlns="http://www.w3.org/2000/svg" xmlns:xlink="http://www.w3.org/1999/xlink" version="1.1" id="Layer_1" x="0px" y="0px" viewBox="0 0 508 508" style="enable-background:new 0 0 508 508;" xml:space="preserve">
<circle style="fill:#4CDBC4;" cx="254" cy="254" r="254"/>
<path style="fill:#FFD05B;" d="M262,205.2l-129.6,6l-0.4,0.4v61.6c0,14.4,2.8,21.6,11.2,24.8c5.2,2,13.6-0.8,15.6-5.6  c0.8-1.6,0.8-3.2,0.8-5.2c0-6.4,0.4-12.8,0.4-19.2c2-2.4,5.6-0.4,7.2,2c1.6,2.4,3.2,5.6,6,6c3.2,0.8,6-2.8,6.4-6s-0.4-6.4-0.8-9.6  c-0.4-3.2,0.4-6.8,2.8-8.8c2-1.2,4.4-0.4,6,0.8c1.6,1.6,3.2,3.2,5.2,4.4c4,2,9.6-1.2,10-5.6c0-2.4-0.8-5.2,0.8-6.8c2-2,5.6-1.2,8,0  c1.6,1.2,6.4,1.6,5.2-3.6c4.4-1.2,9.2-2.4,14-3.2c9.2-1.2,19.6,0,26.4-6.8C264,225.2,263.2,214.4,262,205.2z"/>
<path style="fill:#FFFFFF;" d="M360,126.4H129.2c-5.2,0-9.6,4.4-9.6,9.6v66c0,5.2,4.4,9.6,9.6,9.6H360c5.2,0,9.6-4.4,9.6-9.6v-66  C369.2,130.8,365.2,126.4,360,126.4z"/>
<path style="fill:#324A5E;" d="M250.4,337.2h-12v-74.8c0-8,6.8-14.8,14.8-14.8h143.6c1.6,0,2.8-1.2,2.8-2.8V178  c0-1.6-1.2-2.8-2.8-2.8h-27.6v-12h27.6c8,0,14.8,6.8,14.8,14.8v67.2c0,8-6.8,14.8-14.8,14.8H253.2c-1.6,0-2.8,1.2-2.8,2.8V337.2z"/>
<path style="fill:#FF7058;" d="M266.8,302.8h-44.4c-3.2,0-5.6,2.4-5.6,5.6v126c0,3.2,2.4,5.6,5.6,5.6h44.4c3.2,0,5.6-2.4,5.6-5.6  v-126C272.4,305.2,270,302.8,266.8,302.8z"/>
<g>
</g>
<g>
</g>
<g>
</g>
<g>
</g>
<g>
</g>
<g>
</g>
<g>
</g>
<g>
</g>
<g>
</g>
<g>
</g>
<g>
</g>
<g>
</g>
<g>
</g>
<g>
</g>
<g>
</g>
</svg>
