<?xml version="1.0" encoding="iso-8859-1"?>
<!-- Generator: Adobe Illustrator 19.0.0, SVG Export Plug-In . SVG Version: 6.00 Build 0)  -->
<svg xmlns="http://www.w3.org/2000/svg" xmlns:xlink="http://www.w3.org/1999/xlink" version="1.1" id="Layer_1" x="0px" y="0px" viewBox="0 0 508 508" style="enable-background:new 0 0 508 508;" xml:space="preserve">
<circle style="fill:#324A5E;" cx="254" cy="254" r="254"/>
<g>
	<rect x="162" y="95.2" style="fill:#F9B54C;" width="38.4" height="317.2"/>
	<rect x="307.2" y="95.2" style="fill:#F9B54C;" width="38.4" height="317.2"/>
</g>
<g>
	<rect x="143.2" y="134.8" style="fill:#FFD05B;" width="221.6" height="40.4"/>
	<rect x="143.2" y="234" style="fill:#FFD05B;" width="221.6" height="40.4"/>
	<rect x="143.2" y="333.2" style="fill:#FFD05B;" width="221.6" height="40.4"/>
</g>
<g>
	<polygon style="fill:#F9B54C;" points="301.6,148.4 364.8,152.8 364.8,138.8  "/>
	<polygon style="fill:#F9B54C;" points="143.2,154.8 143.2,168 200.8,161.6  "/>
</g>
<g>
	<circle style="fill:#324A5E;" cx="326.8" cy="154.8" r="4.8"/>
	<circle style="fill:#324A5E;" cx="181.2" cy="154.8" r="4.8"/>
</g>
<g>
	<polygon style="fill:#F9B54C;" points="290.4,244.8 364.8,251.2 364.8,238.4  "/>
	<polygon style="fill:#F9B54C;" points="332.8,265.6 364.8,270.4 364.8,260.8  "/>
	<polygon style="fill:#F9B54C;" points="143.2,242 143.2,256.4 208.4,246  "/>
</g>
<g>
	<circle style="fill:#324A5E;" cx="326.8" cy="254" r="4.8"/>
	<circle style="fill:#324A5E;" cx="181.2" cy="254" r="4.8"/>
</g>
<g>
	<polygon style="fill:#F9B54C;" points="332.8,345.2 364.8,352 364.8,340.4  "/>
	<polygon style="fill:#F9B54C;" points="143.2,352 143.2,363.2 215.6,357.6  "/>
</g>
<g>
	<circle style="fill:#324A5E;" cx="326.8" cy="353.2" r="4.8"/>
	<circle style="fill:#324A5E;" cx="181.2" cy="353.2" r="4.8"/>
</g>
<g>
</g>
<g>
</g>
<g>
</g>
<g>
</g>
<g>
</g>
<g>
</g>
<g>
</g>
<g>
</g>
<g>
</g>
<g>
</g>
<g>
</g>
<g>
</g>
<g>
</g>
<g>
</g>
<g>
</g>
</svg>
