<?xml version="1.0" encoding="iso-8859-1"?>
<!-- Generator: Adobe Illustrator 19.0.0, SVG Export Plug-In . SVG Version: 6.00 Build 0)  -->
<svg xmlns="http://www.w3.org/2000/svg" xmlns:xlink="http://www.w3.org/1999/xlink" version="1.1" id="Layer_1" x="0px" y="0px" viewBox="0 0 508 508" style="enable-background:new 0 0 508 508;" xml:space="preserve">
<circle style="fill:#54C0EB;" cx="254" cy="254" r="254"/>
<path style="fill:#FFFFFF;" d="M424.4,338.4L264.8,92.8c-5.2-8-16.8-8-21.6,0L83.6,338.4c-5.6,8.8,0.4,20,10.8,20H414  C424,358.8,430.4,347.2,424.4,338.4z"/>
<polygon style="fill:#E6E9EE;" points="117.6,333.2 254,123.2 390.4,333.2 "/>
<g>
	<polygon style="fill:#324A5E;" points="262,276 264.8,186 243.2,186 246,276  "/>
	<path style="fill:#324A5E;" d="M254,286.4c-7.2,0-12.8,5.6-12.8,13.2s5.6,13.2,12.8,13.2c7.2,0,12.8-5.6,12.8-13.2   C266.8,291.6,261.6,286.4,254,286.4z"/>
</g>
<g>
</g>
<g>
</g>
<g>
</g>
<g>
</g>
<g>
</g>
<g>
</g>
<g>
</g>
<g>
</g>
<g>
</g>
<g>
</g>
<g>
</g>
<g>
</g>
<g>
</g>
<g>
</g>
<g>
</g>
</svg>
