<?xml version="1.0" encoding="iso-8859-1"?>
<!-- Generator: Adobe Illustrator 19.0.0, SVG Export Plug-In . SVG Version: 6.00 Build 0)  -->
<svg xmlns="http://www.w3.org/2000/svg" xmlns:xlink="http://www.w3.org/1999/xlink" version="1.1" id="Layer_1" x="0px" y="0px" viewBox="0 0 508 508" style="enable-background:new 0 0 508 508;" xml:space="preserve">
<circle style="fill:#84DBFF;" cx="254" cy="254" r="254"/>
<path style="fill:#2B3B4E;" d="M313.6,192.4H194.4V150c0-10,8-18,18-18h82.8c10,0,18,8,18,18v42.4H313.6z M208.4,178.4h91.2V150  c0-2.4-2-4-4-4h-83.2c-2.4,0-4,2-4,4V178.4z"/>
<path style="fill:#F1543F;" d="M106.8,209.6v146c3.2-2.8,7.2-4.8,12.8-4.8c13.2,0,19.6,11.2,18.8,21.6H378  c-1.6-10.8,4.4-23.2,18.4-23.2c2,0,3.6,0.4,5.2,0.8V210H106.8V209.6z"/>
<g>
	<path style="fill:#E6E9EE;" d="M383.6,329.6v8c0,9.2-7.6,16.8-16.8,16.8h-8l-11.2,18H384c9.6,0,17.6-8,17.6-17.6v-36.4L383.6,329.6   z"/>
	<path style="fill:#E6E9EE;" d="M149.6,354.4h-8c-9.2,0-16.8-7.6-16.8-16.8v-8l-18-11.2v36.4c0,9.6,8,17.6,17.6,17.6h36.4   L149.6,354.4z"/>
</g>
<path style="fill:#FF7058;" d="M403.2,170.8H104.8c-5.2,0-9.2,4.4-9.2,9.2v53.2c0,5.6,4.4,10.4,10.4,10.4h296.8  c5.6,0,10.4-4.4,10.4-10.4v-52.8C412.8,175.2,408.4,170.8,403.2,170.8z"/>
<path style="fill:#FFFFFF;" d="M264.4,272H244c-4,0-7.2-3.2-7.2-7.2V230c0-4,3.2-7.2,7.2-7.2h20.4c4,0,7.2,3.2,7.2,7.2v34.8  C271.6,268.8,268.4,272,264.4,272z"/>
<g>
</g>
<g>
</g>
<g>
</g>
<g>
</g>
<g>
</g>
<g>
</g>
<g>
</g>
<g>
</g>
<g>
</g>
<g>
</g>
<g>
</g>
<g>
</g>
<g>
</g>
<g>
</g>
<g>
</g>
</svg>
