<?xml version="1.0" encoding="iso-8859-1"?>
<!-- Generator: Adobe Illustrator 19.0.0, SVG Export Plug-In . SVG Version: 6.00 Build 0)  -->
<svg xmlns="http://www.w3.org/2000/svg" xmlns:xlink="http://www.w3.org/1999/xlink" version="1.1" id="Layer_1" x="0px" y="0px" viewBox="0 0 508 508" style="enable-background:new 0 0 508 508;" xml:space="preserve">
<circle style="fill:#90DFAA;" cx="254" cy="254" r="254"/>
<path style="fill:#324A5E;" d="M412,131.6h-46.4c-3.6,0-6.8,2.4-8,5.6l-14.8,48.4h-248c-4.8,0-8.4,4.8-7.2,9.2L126,336.4  c0.8,3.2,4,5.6,7.2,5.6h113.2l8,47.2c0.4,2.8,2.8,4.4,5.2,4.4H298c2.4,0,4.4-1.6,5.2-4l14.4-48l0,0l0.4-0.8l2-7.2c0-0.4,0-0.8,0-1.2  l38-140.8l0,0l13.6-44H412c4.4,0,8-3.6,8-8C420.4,135.2,416.8,131.6,412,131.6z M294,383.2h-29.6l-6.8-41.2h48.8L294,383.2z"/>
<circle style="fill:#FFFFFF;" cx="192.4" cy="352.8" r="40.8"/>
<circle style="fill:#324A5E;" cx="192.4" cy="352.8" r="26"/>
<path style="fill:#FFFFFF;" d="M261.2,144c-13.2-14.4-28.8-30.8-48.4-30c-6,0.4-12.4,2.4-16.4,7.2c-1.2,1.6-2.4,3.6-3.6,5.6  c-7.6,11.2-23.2,15.6-30,27.6c-1.6,3.2-2.8,7.2-5.6,9.6c-2.4,2.4-6,2.8-9.2,4.4c-6.8,3.6-10.4,12-17.2,16l176,1.6  C289.6,174.4,275.2,159.6,261.2,144z"/>
<g>
</g>
<g>
</g>
<g>
</g>
<g>
</g>
<g>
</g>
<g>
</g>
<g>
</g>
<g>
</g>
<g>
</g>
<g>
</g>
<g>
</g>
<g>
</g>
<g>
</g>
<g>
</g>
<g>
</g>
</svg>
