<?xml version="1.0" encoding="iso-8859-1"?>
<!-- Generator: Adobe Illustrator 19.0.0, SVG Export Plug-In . SVG Version: 6.00 Build 0)  -->
<svg xmlns="http://www.w3.org/2000/svg" xmlns:xlink="http://www.w3.org/1999/xlink" version="1.1" id="Layer_1" x="0px" y="0px" viewBox="0 0 508 508" style="enable-background:new 0 0 508 508;" xml:space="preserve">
<circle style="fill:#54C0EB;" cx="254" cy="254" r="254"/>
<path style="fill:#324A5E;" d="M395.2,154H117.6c-1.6,0-3.2,1.6-3.2,3.2v15.2c0,1.6,1.6,3.2,3.2,3.2h277.6c1.6,0,3.2-1.6,3.2-3.2  v-15.2C398.4,155.6,396.8,154,395.2,154z"/>
<path style="fill:#2B3B4E;" d="M335.6,175.2V186c0,1.6,1.2,2.4,2.4,2.4h28.8c1.6,0,2.4-1.2,2.4-2.4v-10.8H335.6z"/>
<path style="fill:#FFFFFF;" d="M191.2,96h-55.6c-2.4,0-4.4,2-4.4,4.4v312h64.4v-312C195.6,97.6,193.6,96,191.2,96z"/>
<path style="fill:#324A5E;" d="M257.2,380h-142c-3.2,0-5.6,2.4-5.6,5.6v26.8h152.8v-26.8C262.4,382.4,260,380,257.2,380z"/>
<g>
	<rect x="143.6" y="339.2" style="fill:#CED5E0;" width="39.6" height="32"/>
	<rect x="143.6" y="292.8" style="fill:#CED5E0;" width="39.6" height="32"/>
	<rect x="143.6" y="246.8" style="fill:#CED5E0;" width="39.6" height="32"/>
	<rect x="143.6" y="200.4" style="fill:#CED5E0;" width="39.6" height="32"/>
	<rect x="143.6" y="154" style="fill:#CED5E0;" width="39.6" height="32"/>
	<rect x="143.6" y="107.6" style="fill:#CED5E0;" width="39.6" height="32"/>
</g>
<rect x="348.4" y="188.4" style="fill:#324A5E;" width="8" height="116.4"/>
<path style="fill:#FFFFFF;" d="M358.4,315.2v-16h-12v21.2c0,3.2,2.8,6,6,6c5.6,0,10,4.4,10,10s-4.4,10-10,10s-10-4.4-10-10  c0-3.2-2.8-6-6-6s-6,2.8-6,6c0,12,10,22,22,22s22-10,22-22C374,326.4,367.6,318,358.4,315.2z"/>
<g>
</g>
<g>
</g>
<g>
</g>
<g>
</g>
<g>
</g>
<g>
</g>
<g>
</g>
<g>
</g>
<g>
</g>
<g>
</g>
<g>
</g>
<g>
</g>
<g>
</g>
<g>
</g>
<g>
</g>
</svg>
