<?xml version="1.0" encoding="iso-8859-1"?>
<!-- Generator: Adobe Illustrator 19.0.0, SVG Export Plug-In . SVG Version: 6.00 Build 0)  -->
<svg xmlns="http://www.w3.org/2000/svg" xmlns:xlink="http://www.w3.org/1999/xlink" version="1.1" id="Layer_1" x="0px" y="0px" viewBox="0 0 508 508" style="enable-background:new 0 0 508 508;" xml:space="preserve">
<circle style="fill:#FD8469;" cx="254" cy="254" r="254"/>
<path style="fill:#324A5E;" d="M356,344.4c3.2,0,5.6-2.4,5.6-5.6v-18c0-3.2-2.4-5.6-5.6-5.6c-4,0-7.6-3.2-7.6-7.6s3.2-7.6,7.6-7.6  c4,0,7.6,3.2,7.6,7.6c0,3.2,2.4,5.6,5.6,5.6s5.6-2.4,5.6-5.6c0-10.4-8.4-18.4-18.4-18.4c-10.4,0-18.4,8.4-18.4,18.4  c0,8.4,5.6,15.2,12.8,17.6v13.2C350.4,342,352.8,344.4,356,344.4z"/>
<path style="fill:#FFFFFF;" d="M350.8,298.4l-91.2-122.8c-0.8-0.8-1.6-1.6-2.8-1.6c-1.2,0-2.4,0.4-2.8,1.2l-2.4,2.8l4.4,6.4l0.8-0.8  l88.4,118.8c0.8,0.8,2,1.6,2.8,1.6s1.6-0.4,2.4-0.8C351.6,302.4,352,300,350.8,298.4z"/>
<path style="fill:#324A5E;" d="M153.6,344.4c-3.2,0-5.6-2.4-5.6-5.6v-18c0-3.2,2.4-5.6,5.6-5.6c4,0,7.6-3.2,7.6-7.6  s-3.2-7.6-7.6-7.6c-4,0-7.6,3.2-7.6,7.6c0,3.2-2.4,5.6-5.6,5.6c-3.2,0-5.6-2.4-5.6-5.6c0-10.4,8.4-18.4,18.4-18.4  c10.4,0,18.4,8.4,18.4,18.4c0,8.4-5.6,15.2-12.8,17.6v13.2C159.2,342,156.4,344.4,153.6,344.4z"/>
<path style="fill:#FFFFFF;" d="M395.2,335.2H112.8c-3.2,0-6,2.8-6,6v59.6c0,3.2,2.8,6,6,6h282c3.2,0,6-2.8,6-6v-59.6  C401.2,337.6,398.4,335.2,395.2,335.2z"/>
<g>
	<circle style="fill:#FFD05B;" cx="154" cy="370.8" r="18"/>
	<circle style="fill:#FFD05B;" cx="220.8" cy="370.8" r="18"/>
	<circle style="fill:#FFD05B;" cx="287.2" cy="370.8" r="18"/>
	<circle style="fill:#FFD05B;" cx="354" cy="370.8" r="18"/>
</g>
<path style="fill:#2B3B4E;" d="M259.6,158v-14.8h-11.2v19.6c0,3.2,2.4,5.6,5.6,5.6c5.2,0,9.2,4,9.2,9.2s-4,9.2-9.2,9.2  c-5.2,0-9.2-4-9.2-9.2c0-3.2-2.4-5.6-5.6-5.6c-3.2,0-5.6,2.4-5.6,5.6c0,11.2,9.2,20.4,20.4,20.4s20.4-9.2,20.4-20.4  C274.4,168.4,268,160.4,259.6,158z"/>
<path style="fill:#324A5E;" d="M280.4,101.6h-53.2c-1.6,0-2.8,1.6-2.8,3.2l6.8,36.4c0.4,1.2,1.2,2,2.8,2h39.6c1.2,0,2.4-0.8,2.8-2  l6.8-36.4C283.6,102.8,282.4,101.6,280.4,101.6z"/>
<path style="fill:#FFFFFF;" d="M156,298c-1.2,1.6-1.2,4,0.4,5.2c1.6,1.2,4,1.2,5.2-0.4l94-118l-4.4-6.4L156,298z"/>
<g>
</g>
<g>
</g>
<g>
</g>
<g>
</g>
<g>
</g>
<g>
</g>
<g>
</g>
<g>
</g>
<g>
</g>
<g>
</g>
<g>
</g>
<g>
</g>
<g>
</g>
<g>
</g>
<g>
</g>
</svg>
