<?xml version="1.0" encoding="iso-8859-1"?>
<!-- Generator: Adobe Illustrator 19.0.0, SVG Export Plug-In . SVG Version: 6.00 Build 0)  -->
<svg xmlns="http://www.w3.org/2000/svg" xmlns:xlink="http://www.w3.org/1999/xlink" version="1.1" id="Layer_1" x="0px" y="0px" viewBox="0 0 508 508" style="enable-background:new 0 0 508 508;" xml:space="preserve">
<circle style="fill:#FD8469;" cx="254" cy="254" r="254"/>
<rect x="124.8" y="90" style="fill:#84DBFF;" width="250" height="300.8"/>
<g>
	
		<rect x="280.398" y="109.162" transform="matrix(-0.7855 -0.6188 0.6188 -0.7855 403.7498 485.45)" style="fill:#54C0EB;" width="11.2" height="127.195"/>
	
		<rect x="288.479" y="132.836" transform="matrix(-0.7856 -0.6188 0.6188 -0.7856 399.6193 531.3619)" style="fill:#54C0EB;" width="6.8" height="127.205"/>
	
		<rect x="183.582" y="226.68" transform="matrix(-0.7855 -0.6188 0.6188 -0.7855 148.0115 664.6513)" style="fill:#54C0EB;" width="11.2" height="159.994"/>
	
		<rect x="189.149" y="253.467" transform="matrix(-0.7855 -0.6188 0.6188 -0.7855 137.4465 714.5643)" style="fill:#54C0EB;" width="6.8" height="159.994"/>
</g>
<g>
	<rect x="242.4" y="93.2" style="fill:#FFFFFF;" width="15.2" height="310.4"/>
	<rect x="124.8" y="236.4" style="fill:#FFFFFF;" width="250" height="15.2"/>
</g>
<g>
	<path style="fill:#324A5E;" d="M348.8,399.2h26v-304h-58c-1.2,35.2-3.2,183.2,50.8,250.8L348.8,399.2z"/>
	<path style="fill:#324A5E;" d="M150.8,399.2h-26v-304h57.6c1.2,35.2,3.2,183.2-50.8,250.8L150.8,399.2z"/>
</g>
<g>
	<path style="fill:#FFFFFF;" d="M102.8,90c0,11.6,9.6,21.2,21.2,21.2h252c11.6,0,21.2-9.6,21.2-21.2H102.8z"/>
	<path style="fill:#FFFFFF;" d="M102.8,390.8c0,15.2,12,27.2,27.2,27.2h239.6c15.2,0,27.2-12,27.2-27.2H102.8z"/>
</g>
<g>
</g>
<g>
</g>
<g>
</g>
<g>
</g>
<g>
</g>
<g>
</g>
<g>
</g>
<g>
</g>
<g>
</g>
<g>
</g>
<g>
</g>
<g>
</g>
<g>
</g>
<g>
</g>
<g>
</g>
</svg>
