<?xml version="1.0" encoding="iso-8859-1"?>
<!-- Generator: Adobe Illustrator 19.0.0, SVG Export Plug-In . SVG Version: 6.00 Build 0)  -->
<svg xmlns="http://www.w3.org/2000/svg" xmlns:xlink="http://www.w3.org/1999/xlink" version="1.1" id="Layer_1" x="0px" y="0px" viewBox="0 0 508 508" style="enable-background:new 0 0 508 508;" xml:space="preserve">
<circle style="fill:#FFD05B;" cx="254" cy="254" r="254"/>
<polygon style="fill:#FFFFFF;" points="194,98.4 194,159.2 133.2,159.2 133.2,409.6 374.8,409.6 374.8,98.4 "/>
<polygon style="fill:#E6E9EE;" points="194,98.4 133.2,159.2 194,159.2 "/>
<rect x="172.4" y="242" style="fill:#84DBFF;" width="114.4" height="86.4"/>
<polygon style="fill:#FF7058;" points="300.4,246 229.6,191.2 158.8,246 "/>
<g>
	<rect x="211.2" y="285.2" style="fill:#324A5E;" width="36.8" height="43.2"/>
	<polygon style="fill:#324A5E;" points="330,330.4 313.2,330.4 313.2,326.4 326,326.4 326,193.2 313.2,193.2 313.2,189.2 330,189.2     "/>
	<polygon style="fill:#324A5E;" points="302.4,355.2 156.8,355.2 156.8,338.4 160.8,338.4 160.8,351.2 298.4,351.2 298.4,338.4    302.4,338.4  "/>
</g>
<g>
</g>
<g>
</g>
<g>
</g>
<g>
</g>
<g>
</g>
<g>
</g>
<g>
</g>
<g>
</g>
<g>
</g>
<g>
</g>
<g>
</g>
<g>
</g>
<g>
</g>
<g>
</g>
<g>
</g>
</svg>
