<?xml version="1.0" encoding="iso-8859-1"?>
<!-- Generator: Adobe Illustrator 19.0.0, SVG Export Plug-In . SVG Version: 6.00 Build 0)  -->
<svg xmlns="http://www.w3.org/2000/svg" xmlns:xlink="http://www.w3.org/1999/xlink" version="1.1" id="Layer_1" x="0px" y="0px" viewBox="0 0 508 508" style="enable-background:new 0 0 508 508;" xml:space="preserve">
<circle style="fill:#84DBFF;" cx="254" cy="254" r="254"/>
<polygon style="fill:#FFFFFF;" points="111.2,396.8 163.2,216 281.2,226.8 "/>
<polygon style="fill:#E6E9EE;" points="111.2,396.8 292,344.8 281.2,226.8 "/>
<circle style="fill:#ACB3BA;" cx="256" cy="252" r="14.8"/>
<path style="fill:#324A5E;" d="M291.6,208.4l-39.2,39.2c-2.4,2.4-2.4,5.6,0,8c2.4,2.4,5.6,2.4,8,0l39.2-39.2L291.6,208.4z"/>
<path style="fill:#FF7058;" d="M283.2,208.8l16,16c3.6,3.6,10,3.6,13.6,0l81.2-81.2c3.6-3.6,3.6-10,0-13.6l-16-16  c-3.6-3.6-10-3.6-13.6,0l-81.2,81.2C279.6,198.8,279.6,204.8,283.2,208.8z"/>
<g>
</g>
<g>
</g>
<g>
</g>
<g>
</g>
<g>
</g>
<g>
</g>
<g>
</g>
<g>
</g>
<g>
</g>
<g>
</g>
<g>
</g>
<g>
</g>
<g>
</g>
<g>
</g>
<g>
</g>
</svg>
