<?xml version="1.0" encoding="iso-8859-1"?>
<!-- Generator: Adobe Illustrator 19.0.0, SVG Export Plug-In . SVG Version: 6.00 Build 0)  -->
<svg xmlns="http://www.w3.org/2000/svg" xmlns:xlink="http://www.w3.org/1999/xlink" version="1.1" id="Layer_1" x="0px" y="0px" viewBox="0 0 508 508" style="enable-background:new 0 0 508 508;" xml:space="preserve">
<circle style="fill:#324A5E;" cx="254" cy="254" r="254"/>
<path style="fill:#FFD05B;" d="M254,96C153.2,96,71.6,177.6,70.8,278.4h366C436.4,177.6,354.8,96,254,96z"/>
<g>
	<path style="fill:#F9B54C;" d="M300,218h-92L191.6,99.2c-1.2-8.4,5.6-16.4,14-16.4H302c8.8,0,15.2,7.6,14,16.4L300,218z"/>
	<path style="fill:#F9B54C;" d="M438.8,278.4H69.2c-7.6,0-14,6.4-14,14l0,0c0,7.6,6.4,14,14,14h369.6c7.6,0,14-6.4,14-14l0,0   C452.8,284.4,446.8,278.4,438.8,278.4z"/>
</g>
<circle style="fill:#FFFFFF;" cx="254" cy="227.6" r="64.8"/>
<circle style="fill:#84DBFF;" cx="254" cy="227.6" r="50.8"/>
<ellipse transform="matrix(-0.7071 -0.7071 0.7071 -0.7071 255.269 516.7612)" style="fill:#FFFFFF;" cx="234.659" cy="205.513" rx="7.2" ry="16"/>
<g>
</g>
<g>
</g>
<g>
</g>
<g>
</g>
<g>
</g>
<g>
</g>
<g>
</g>
<g>
</g>
<g>
</g>
<g>
</g>
<g>
</g>
<g>
</g>
<g>
</g>
<g>
</g>
<g>
</g>
</svg>
