<?xml version="1.0" encoding="iso-8859-1"?>
<!-- Generator: Adobe Illustrator 19.0.0, SVG Export Plug-In . SVG Version: 6.00 Build 0)  -->
<svg xmlns="http://www.w3.org/2000/svg" xmlns:xlink="http://www.w3.org/1999/xlink" version="1.1" id="Layer_1" x="0px" y="0px" viewBox="0 0 508 508" style="enable-background:new 0 0 508 508;" xml:space="preserve">
<circle style="fill:#90DFAA;" cx="254" cy="254" r="254"/>
<path style="fill:#2C9984;" d="M73.6,432.8c46,46.4,109.6,75.2,180.4,75.2s134-28.8,180.4-75.2H73.6z"/>
<g>
	<path style="fill:#E6E9EE;" d="M357.6,249.2c-0.4,0.4-1.2,0.8-2,1.2c-1.2,0.4-2.4,0.8-4,0.8l-0.8-0.8l-0.4,0.4l-2,2L291.2,308   c-1.2,1.2-2.8,1.2-3.6,0c-1.2-1.2-0.8-2.8,0-4l56-54l2-2l3.6-3.6c1.2-1.2,2.8-1.2,3.6,0L357.6,249.2z"/>
	<path style="fill:#E6E9EE;" d="M414.4,308c-0.4,0.4-1.2,0.8-2,0.8s-1.2-0.4-2-0.8l-56.8-55.2l-2-2c1.2,0,2.8-0.4,4-0.8   c0.8-0.4,1.2-0.8,2-1.2l1.2,0.8l56,54C415.6,305.2,415.6,306.8,414.4,308z"/>
</g>
<g>
	<path style="fill:#FFFFFF;" d="M349.2,232.8c-0.8,0.8-1.2,1.6-2,2.4c-0.4,0.4-0.8,0.8-1.2,1.2c-0.4,0.4-0.8,0.8-0.8,0.8   c-0.4,0.8-0.8,1.6-1.2,2.4c-0.4,0.8-0.4,1.6-0.4,2.8c0,0.8,0,1.6,0.4,2.8s1.2,2.4,2,3.2l-2.4,1.6c-1.2-1.2-2-2.4-2.8-4.4   c-0.4-1.2-0.4-2.4-0.4-3.6c0-1.2,0.4-2.4,0.8-3.6c0.4-1.2,1.2-2.4,1.6-3.2c0.4-0.4,0.8-0.8,1.2-1.2c0.4-0.4,0.8-0.8,1.2-1.2   c1.2-1.2,2.4-2.8,3.6-4.4c0.8-1.6,1.6-3.2,1.6-4.8c0-0.8,0.4-1.6,0.4-2.4c0-0.8,0-1.6,0-2.4c0.4-6.4,0.8-10.4,0.8-10.4   s0.4,4.4,0.8,10.4c0,0.8,0,1.6,0,2.4c0,0.8,0,2,0,2.8c-0.4,2-0.8,4-1.6,6C350.4,230.8,349.6,231.6,349.2,232.8z"/>
	<path style="fill:#FFFFFF;" d="M361.2,243.2c0,0.4,0,1.2-0.4,2s-0.4,2-1.2,3.2c-0.4,0.4-0.8,1.2-1.2,1.6c-0.4,0.8-1.2,1.2-2,1.6   c-0.8,0.4-1.6,0.8-2.8,1.2c-0.8,0.4-1.6,0.4-2.8,0.4c-0.8,0-1.6,0-2.8-0.4l2-2c0.4,0,0.4,0,0.8,0h0.4c1.2,0,2.8-0.4,4-0.8   c0.8-0.4,1.2-0.8,2-1.2c0.4-0.4,0.8-0.8,1.2-1.2c0.8-0.8,1.2-2,1.6-2.8C360.8,244.4,361.2,243.6,361.2,243.2c0-0.4,0-0.8,0-0.8   S361.2,242.8,361.2,243.2z"/>
	<rect x="355.2" y="146" style="fill:#FFFFFF;" width="3.6" height="52.8"/>
	<rect x="342.4" y="146" style="fill:#FFFFFF;" width="3.6" height="52.8"/>
	<rect x="270.4" y="297.2" style="fill:#FFFFFF;" width="160.4" height="29.6"/>
</g>
<g>
	<path style="fill:#324A5E;" d="M415.2,320h-26.8c-4.4,0-8-3.6-8-8l0,0c0-4.4,3.6-8,8-8h26.8c4.4,0,8,3.6,8,8l0,0   C423.2,316.4,419.6,320,415.2,320z"/>
	<path style="fill:#324A5E;" d="M364,320h-26.8c-4.4,0-8-3.6-8-8l0,0c0-4.4,3.6-8,8-8H364c4.4,0,8,3.6,8,8l0,0   C372,316.4,368.4,320,364,320z"/>
	<path style="fill:#324A5E;" d="M312.8,320H286c-4.4,0-8-3.6-8-8l0,0c0-4.4,3.6-8,8-8h26.8c4.4,0,8,3.6,8,8l0,0   C320.8,316.4,317.2,320,312.8,320z"/>
	<path style="fill:#324A5E;" d="M350.8,182c-7.2,0-13.2,20.8-13.2,28l0,0c0,7.2,6,13.2,13.2,13.2s13.2-6,13.2-13.2l0,0   C364,202.4,358,182,350.8,182z"/>
</g>
<circle style="fill:#ACB3BA;" cx="350.8" cy="209.6" r="7.2"/>
<circle style="fill:#324A5E;" cx="350.8" cy="209.6" r="2.8"/>
<circle style="fill:#ACB3BA;" cx="350.8" cy="191.6" r="4"/>
<path style="fill:#FFFFFF;" d="M384.4,117.2L384.4,117.2c-0.4-0.8-0.8-0.8-0.8-1.2l0,0l0,0c-0.4,0-0.8-0.4-1.2-0.4l0,0l0,0H106.8  l0,0l0,0c-0.4,0-0.8,0-1.2,0.4l0,0l0,0c-0.4,0.4-0.4,0.4-0.8,0.8c0,0,0,0.4-0.4,0.4c-0.4,0.4-0.4,0.8-0.4,1.2v29.2v0.4  c0,0.4,0,0.4,0.4,0.8l0,0c0.4,0.8,0.4,1.2,1.2,1.6c0.8,0.4,1.6,0.4,2.4,0h50v268.4l0,0c0,0.4,0,0.8,0,1.2l0,0l0,0  c0,0.4,0.4,0.4,0.4,0.8c0,0,0,0,0.4,0.4c0,0,0.4,0.4,0.8,0.4c0,0,0,0,0.4,0s0.8,0.4,1.2,0.4h57.6c0.4,0,0.8,0,1.2-0.4c0,0,0,0,0.4,0  s0.4-0.4,0.8-0.4c0,0,0,0,0.4-0.4c0-0.4,0.4-0.4,0.4-0.8l0,0l0,0c0-0.4,0-0.8,0-1.2l0,0v-268h49.2h0.4h0.4l0,0h0.4h0.4h52.8h0.4h0.4  l0,0h0.4h0.4H380c0.4,0,0.8,0.4,1.2,0.4c0.4,0,1.2,0,1.6-0.4c0.8-0.4,0.8-0.8,1.2-1.6l0,0c0-0.4,0.4-0.4,0.4-0.8V148v-29.2  C384.8,118,384.4,117.6,384.4,117.2z M329.6,123.6l18.4,9.6l-18.4,9.6V123.6z M299.2,130l-15.6-8.4h31.2L299.2,130z M323.6,123.6  v19.6l-18.4-9.6L323.6,123.6z M274.8,123.6l18.4,9.6l-18.4,9.6V123.6z M244.4,130l-15.6-8.4H260L244.4,130z M268.8,123.6v19.6  l-18.4-9.6L268.8,123.6z M215.6,249.2l-21.6-20l21.6-20.4V249.2z M215.6,303.6L194,283.2l21.6-20.4V303.6z M215.6,358L194,337.6  l21.6-20.4V358z M163.6,317.2l21.6,20.4L163.6,358V317.2z M163.6,263.2l21.6,20.4L163.6,304V263.2z M163.6,208.8l21.6,20.4  l-21.6,20.4V208.8z M168.4,259.2h42.8l-21.2,20L168.4,259.2z M210.8,307.6h-42.4l21.2-20L210.8,307.6z M168.4,253.2l21.2-20l21.2,20  H168.4z M168.4,313.6h42.8l-21.2,20L168.4,313.6z M189.6,225.2l-21.2-20h42.8L189.6,225.2z M189.6,341.6l21.2,20h-42.4L189.6,341.6z   M168.4,199.2l21.2-20l21.2,20H168.4z M168.4,150.8h42.8l-21.2,20L168.4,150.8z M214,143.2l-18.4-9.6L214,124V143.2z M204.4,144.8  H174l15.2-8L204.4,144.8z M164.8,143.2v-19.6l18.4,9.6L164.8,143.2z M158.8,143.2l-18.4-9.6l18.4-9.6V143.2z M220,123.6l18.4,9.6  l-18.4,9.6V123.6z M189.2,130l-15.6-8.4h31.2L189.2,130z M134.4,130l-15.6-8.4H150L134.4,130z M128,133.2l-18,10v-19.6L128,133.2z   M134.4,136.8l15.2,8h-30.4L134.4,136.8z M185.2,174.8l-21.6,20.4v-40.4L185.2,174.8z M163.6,371.6l21.6,20.4l-21.6,20.4V371.6z   M168.4,367.6h42.8l-21.2,20L168.4,367.6z M215.6,371.6V412L194,392L215.6,371.6z M194,174.8l21.6-20.4v40.4L194,174.8z   M244.4,136.8l15.2,8h-30.4L244.4,136.8z M299.2,136.8l15.2,8H284L299.2,136.8z M354.4,136.8l15.2,8h-30.4L354.4,136.8z   M360.4,133.2l18.4-9.6v19.6L360.4,133.2z M354.4,130l-15.6-8.4H370L354.4,130z M168.4,416l21.2-20l21.2,20H168.4z"/>
<rect x="125.6" y="415.6" style="fill:#324A5E;" width="135.2" height="16.8"/>
<g>
</g>
<g>
</g>
<g>
</g>
<g>
</g>
<g>
</g>
<g>
</g>
<g>
</g>
<g>
</g>
<g>
</g>
<g>
</g>
<g>
</g>
<g>
</g>
<g>
</g>
<g>
</g>
<g>
</g>
</svg>
