<?xml version="1.0" encoding="iso-8859-1"?>
<!-- Generator: Adobe Illustrator 19.0.0, SVG Export Plug-In . SVG Version: 6.00 Build 0)  -->
<svg xmlns="http://www.w3.org/2000/svg" xmlns:xlink="http://www.w3.org/1999/xlink" version="1.1" id="Layer_1" x="0px" y="0px" viewBox="0 0 508 508" style="enable-background:new 0 0 508 508;" xml:space="preserve">
<circle style="fill:#324A5E;" cx="254" cy="254" r="254"/>
<rect x="154" y="94.8" style="fill:#2C9984;" width="200" height="325.6"/>
<path style="fill:#2B3B4E;" d="M62.4,420.4C108.8,474,177.6,508,254,508s145.2-34,191.6-87.6H62.4z"/>
<polygon style="fill:#FFFFFF;" points="364.8,87.6 143.2,87.6 143.2,420.4 157.2,420.4 157.2,101.6 350.8,101.6 350.8,420.4   364.8,420.4 "/>
<polygon style="fill:#E6E9EE;" points="157.2,101.6 157.2,420.4 280.8,377.2 280.8,144.8 "/>
<g>
	<polygon style="fill:#ACB3BA;" points="172,286 172,390 223.6,374.8 223.6,282.8  "/>
	<polygon style="fill:#ACB3BA;" points="232,282.4 232,372.4 271.2,361.2 271.2,280.4  "/>
	<polygon style="fill:#ACB3BA;" points="172,124.4 172,252 223.6,252.8 223.6,140.4  "/>
	<polygon style="fill:#ACB3BA;" points="232,143.2 232,253.2 271.2,254 271.2,155.2  "/>
</g>
<path style="fill:#F9B54C;" d="M275.6,267.6c0,3.6-2,6.4-4.4,6.4s-4.4-2.8-4.4-6.4s2-6.4,4.4-6.4S275.6,264,275.6,267.6z"/>
<g>
</g>
<g>
</g>
<g>
</g>
<g>
</g>
<g>
</g>
<g>
</g>
<g>
</g>
<g>
</g>
<g>
</g>
<g>
</g>
<g>
</g>
<g>
</g>
<g>
</g>
<g>
</g>
<g>
</g>
</svg>
