<?xml version="1.0" encoding="iso-8859-1"?>
<!-- Generator: Adobe Illustrator 19.0.0, SVG Export Plug-In . SVG Version: 6.00 Build 0)  -->
<svg xmlns="http://www.w3.org/2000/svg" xmlns:xlink="http://www.w3.org/1999/xlink" version="1.1" id="Layer_1" x="0px" y="0px" viewBox="0 0 508 508" style="enable-background:new 0 0 508 508;" xml:space="preserve">
<circle style="fill:#90DFAA;" cx="254" cy="254" r="254"/>
<path style="fill:#FFFFFF;" d="M435.2,341.6L273.6,61.2c-8.8-15.2-30.4-15.2-39.2,0L72.8,341.6c-8.8,15.2,2,34,19.6,34h323.2  C433.2,375.6,444,356.8,435.2,341.6z"/>
<path style="fill:#FF7058;" d="M417.6,352L256,71.6c0-0.4-0.8-1.2-2-1.2c-1.2,0-1.6,0.8-2,1.2L90.4,352c0,0.4-0.8,1.2,0,2  c0.8,1.2,1.6,1.2,2,1.2h323.2c0.4,0,1.2,0,2-1.2C418,352.8,417.6,352.4,417.6,352z"/>
<polygon style="fill:#FFD05B;" points="238.4,172.4 198.4,244.4 241.6,244.4 227.6,275.2 211.6,260.4 211.6,318 261.6,297.2   241.6,287.2 298,222.4 248,223.2 287.2,172.4 "/>
<g>
</g>
<g>
</g>
<g>
</g>
<g>
</g>
<g>
</g>
<g>
</g>
<g>
</g>
<g>
</g>
<g>
</g>
<g>
</g>
<g>
</g>
<g>
</g>
<g>
</g>
<g>
</g>
<g>
</g>
</svg>
