<?xml version="1.0" encoding="iso-8859-1"?>
<!-- Generator: Adobe Illustrator 19.0.0, SVG Export Plug-In . SVG Version: 6.00 Build 0)  -->
<svg xmlns="http://www.w3.org/2000/svg" xmlns:xlink="http://www.w3.org/1999/xlink" version="1.1" id="Layer_1" x="0px" y="0px" viewBox="0 0 508 508" style="enable-background:new 0 0 508 508;" xml:space="preserve">
<circle style="fill:#FD8469;" cx="254" cy="254" r="254"/>
<path style="fill:#324A5E;" d="M254,308.4L254,308.4c-6.8,0-12.8,0-12.8-7.2V70.8c0-6.8,5.6-12.8,12.8-12.8l0,0  c6.8,0,12.8,5.6,12.8,12.8v230.4C266.8,308,260.8,308.4,254,308.4z"/>
<path style="fill:#CED5E0;" d="M263.2,330.8h-18.4c-5.6,0-10.4-4.4-10.4-10.4v-12c0-5.6,4.4-10.4,10.4-10.4h18.4  c5.6,0,10.4,4.4,10.4,10.4v12C273.6,326.4,268.8,330.8,263.2,330.8z"/>
<path style="fill:#E6E9EE;" d="M346.8,406.8c-0.8-50-42-90.8-92.8-90.8s-92,40.4-92.8,90.8H346.8z"/>
<path style="fill:#FFFFFF;" d="M174,395.2c0,0,0.4-1.6,0.8-4.8c0-1.6,0.4-3.2,1.2-5.6c0.4-1.2,0.4-2,0.8-3.2  c0.4-1.2,0.8-2.4,1.2-3.6s0.8-2.4,1.6-4c0.8-1.2,1.2-2.8,2-4c1.2-2.8,3.2-5.6,4.8-8.4c2-2.8,4-5.6,6.4-8c2.4-2.8,5.2-5.2,7.6-7.6  c2.8-2.4,5.6-4.4,8.8-6.4c2.8-2,6-3.6,9.2-4.8c3.2-1.2,6-2.8,9.2-3.2c1.6-0.4,2.8-0.8,4.4-1.2c1.6-0.4,2.8-0.4,4-0.8  c2.8-0.8,5.2-0.8,7.2-0.8c2-0.4,4-0.4,5.6,0c3.2,0,4.8,0,4.8,0s-1.6,0.4-4.8,0.8c-1.6,0-3.2,0.4-5.6,0.8c-2,0.4-4.4,0.8-6.8,1.6  c-1.2,0.4-2.4,0.8-4,1.2c-1.2,0.4-2.8,0.8-4,1.6c-2.8,0.8-5.6,2.4-8.4,3.6c-2.8,1.6-6,3.2-8.4,5.2c-2.8,1.6-5.6,4-8.4,6  c-2.4,2.4-5.2,4.4-7.6,7.2c-2.4,2.4-4.4,5.2-6.4,7.6c-1.6,2.8-3.6,5.2-5.2,7.6c-0.8,1.2-1.6,2.4-2,3.6c-0.8,1.2-1.2,2.4-1.6,3.6  c-1.2,2.4-2,4.4-2.8,6.4s-1.6,3.6-2,5.2C174.8,393.2,174,395.2,174,395.2z"/>
<path style="fill:#CED5E0;" d="M345.2,405.2H162.8c-4.4,0-8,3.6-8,8l0,0c0,4.4,3.6,8,8,8h182.4c4.4,0,8-3.6,8-8l0,0  C353.2,408.8,349.6,405.2,345.2,405.2z"/>
<g>
</g>
<g>
</g>
<g>
</g>
<g>
</g>
<g>
</g>
<g>
</g>
<g>
</g>
<g>
</g>
<g>
</g>
<g>
</g>
<g>
</g>
<g>
</g>
<g>
</g>
<g>
</g>
<g>
</g>
</svg>
