<?xml version="1.0" encoding="iso-8859-1"?>
<!-- Generator: Adobe Illustrator 19.0.0, SVG Export Plug-In . SVG Version: 6.00 Build 0)  -->
<svg xmlns="http://www.w3.org/2000/svg" xmlns:xlink="http://www.w3.org/1999/xlink" version="1.1" id="Layer_1" x="0px" y="0px" viewBox="0 0 508 508" style="enable-background:new 0 0 508 508;" xml:space="preserve">
<circle style="fill:#54C0EB;" cx="254" cy="254" r="254"/>
<path style="fill:#84DBFF;" d="M44.4,397.2C90,464,166.8,508,254,508s164-44,209.6-110.8H44.4z"/>
<g>
	<path style="fill:#FF7058;" d="M260,54h-11.6c-17.6,0-33.2,12-37.6,29.2l-66.8,270h220l-66.8-270C293.2,66,277.6,54,260,54z"/>
	<path style="fill:#FF7058;" d="M364,353.2H144l10.8-43.2l10-40.8l10.4-42l10-40.8l10.4-42l10-40.8l5.2-20.4   C215.2,66,230.4,54,248.4,54H260c17.6,0,33.2,12,37.6,29.2l5.2,20.4l10,40.8l10.4,42l10,40.8l10.4,42l9.6,40.8L364,353.2z"/>
</g>
<path style="fill:#F1543F;" d="M384.8,353.2H123.2c-12,0-22,10-22,22s10,22,22,22h261.2c12,0,22-10,22-22  C406.8,363.2,396.8,353.2,384.8,353.2z"/>
<g>
	<polygon style="fill:#FFFFFF;" points="312.4,144.8 195.6,144.8 205.6,104 302.4,104  "/>
	<polygon style="fill:#FFFFFF;" points="332.8,227.2 175.2,227.2 185.2,186.8 322.8,186.8  "/>
	<polygon style="fill:#FFFFFF;" points="353.2,310 154.8,310 164.8,269.6 343.2,269.6  "/>
</g>
<g>
</g>
<g>
</g>
<g>
</g>
<g>
</g>
<g>
</g>
<g>
</g>
<g>
</g>
<g>
</g>
<g>
</g>
<g>
</g>
<g>
</g>
<g>
</g>
<g>
</g>
<g>
</g>
<g>
</g>
</svg>
