<?xml version="1.0" encoding="iso-8859-1"?>
<!-- Generator: Adobe Illustrator 19.0.0, SVG Export Plug-In . SVG Version: 6.00 Build 0)  -->
<svg xmlns="http://www.w3.org/2000/svg" xmlns:xlink="http://www.w3.org/1999/xlink" version="1.1" id="Layer_1" x="0px" y="0px" viewBox="0 0 508 508" style="enable-background:new 0 0 508 508;" xml:space="preserve">
<circle style="fill:#FFD05B;" cx="254" cy="254" r="254"/>
<g>
	<polygon style="fill:#FFFFFF;" points="313.2,415.6 283.2,445.2 98.8,260.8 154,205.2 207.6,274.4 211.6,308.4 232.4,313.2    234,335.6 252.8,339.2 253.6,359.2 270.8,361.6 271.2,380 286.4,381.6 286.4,398.4 300.8,399.6 300.4,414.8  "/>
	<path style="fill:#FFFFFF;" d="M388.8,264.8L388.8,264.8c-13.6,13.6-36,13.6-49.6,0L232.8,158.4c-13.6-13.6-57.2-79.6-43.6-93.2   l0,0c13.6-13.6,79.6,29.6,93.2,43.6l106.4,106.4C402.8,228.8,402.8,251.2,388.8,264.8z"/>
</g>
<path style="fill:#FF7058;" d="M374,190.4H134.4c-29.6,0-53.2,24-53.2,53.2l0,0c0,29.6,24,53.2,53.2,53.2H374  c29.6,0,53.2-24,53.2-53.2l0,0C427.2,214.4,403.2,190.4,374,190.4z"/>
<g>
	<circle style="fill:#F1543F;" cx="366.8" cy="244" r="27.6"/>
	<circle style="fill:#F1543F;" cx="137.2" cy="244" r="27.6"/>
</g>
<g>
</g>
<g>
</g>
<g>
</g>
<g>
</g>
<g>
</g>
<g>
</g>
<g>
</g>
<g>
</g>
<g>
</g>
<g>
</g>
<g>
</g>
<g>
</g>
<g>
</g>
<g>
</g>
<g>
</g>
</svg>
