<?xml version="1.0" encoding="iso-8859-1"?>
<!-- Generator: Adobe Illustrator 19.0.0, SVG Export Plug-In . SVG Version: 6.00 Build 0)  -->
<svg xmlns="http://www.w3.org/2000/svg" xmlns:xlink="http://www.w3.org/1999/xlink" version="1.1" id="Layer_1" x="0px" y="0px" viewBox="0 0 508 508" style="enable-background:new 0 0 508 508;" xml:space="preserve">
<circle style="fill:#84DBFF;" cx="254" cy="254" r="254"/>
<path style="fill:#324A5E;" d="M254,458.8c-112.8,0-204.8-91.6-204.8-204.8c0-3.2,2.8-6,6-6s6,2.8,6,6  c0,106.4,86.4,192.8,192.8,192.8S446.8,360.4,446.8,254c0-3.2,2.8-6,6-6s6,2.8,6,6C458.8,366.8,366.8,458.8,254,458.8z"/>
<g>
	<circle style="fill:#E6E9EE;" cx="434.8" cy="254" r="19.2"/>
	<circle style="fill:#E6E9EE;" cx="73.2" cy="254" r="19.2"/>
</g>
<circle style="fill:#FFFFFF;" cx="254" cy="254" r="180.8"/>
<circle style="fill:#FF7058;" cx="254" cy="254" r="157.2"/>
<path style="fill:#F1543F;" d="M118.8,285.2c7.6,20.8,20.8,39.2,37.6,53.6c16.4,14.4,36.4,24.4,57.6,29.6c21.2,4.8,43.6,4.4,64-2  c10.4-3.2,20-7.6,29.2-13.6c2.4-1.2,4.4-3.2,6.8-4.4l0.8-0.4c0,0,0.4-0.4,0.4,0l0.4-0.4l1.6-1.2l3.2-2.8c2-2,4.4-3.6,6.4-5.6  l5.2-5.6c14.4-15.6,23.6-36,27.2-56.4c0.8-2.4,0.8-5.2,0.8-8s0.4-5.2,0.4-8l-0.4-8c0-1.2,0-2.8,0-4l-0.4-4l-1.2-8l-2-7.6l-1.2-4  c-0.4-1.2-0.8-2.4-1.6-3.6l-3.2-6.8c-1.2-2.4-2.4-4.8-3.6-6.8c-1.2-2.4-2.4-4.8-4-6.8c-3.2-4-6-8.8-10-12.4l-5.6-6l-6-5.2l-3.2-2.4  l-0.8-0.4l-0.4-0.4l0,0c0,0,0.4,0.4,0,0l-1.6-1.2l-6.8-4.4c-8.8-4.8-18.8-8.8-28.8-11.2c-10.4-2-20.8-2.4-31.2-1.6  c-10.4,1.2-20.4,4.4-30,8.4c-9.6,4.4-18,10.8-25.2,18c-7.6,7.2-13.2,16.4-17.6,25.2c-4,9.6-6.4,20-7.2,30.4v2v0.4v0.4c0,0,0,0.4,0,0  v1.2v4v4l0.4,3.6c0.4,2.4,0.4,4.8,1.2,7.2c0.8,2.4,1.2,5.2,2,7.6c3.2,9.6,8.8,18.8,15.6,26.4c14,15.2,34.4,24.8,55.2,26  c5.2,0.4,10.4,0,15.6-0.4c2.8-0.4,5.2-0.8,7.6-1.6l1.6-0.4l2-0.8c1.2-0.4,2.4-0.8,3.6-1.6c9.2-4.4,17.6-10.8,24-19.2  c1.6-2,3.2-4.4,4.4-6.4l0.4-0.8l0.4-0.8l0.8-2c0.4-1.2,1.2-2.4,1.6-3.6c2-4.4,3.2-9.6,4-14.8c0.8-5.2,0.8-10.4,0-15.6  c-0.4-5.2-2-10.4-4-15.2s-4.8-9.6-7.6-13.6c-3.2-4-6.8-8-10.8-11.2c-2-1.6-4.4-3.2-6.4-4.8l-3.6-2l-2-0.8c-0.4-0.4-1.2-0.4-1.6-0.8  c-4.4-2-10-2.8-15.2-3.2c-10.4-0.4-21.2,3.2-29.6,9.6c-4.4,3.2-7.6,7.6-10.4,12c-2.8,4.8-4,10-4.8,15.2l0,0l0,0l-0.4,3.2v3.2  c0,2,0.4,4,0.8,6.4c0.4,1.2,0.4,2,0.8,3.2c0.4,1.2,0.8,2,1.2,2.8c0.4,1.2,0.8,2,1.2,2.8s0.8,2,1.6,2.8c0.4,0.8,1.2,1.6,1.6,2.8  c0.8,0.8,1.2,1.6,2,2.4s1.6,1.6,2.4,2c0.8,0.8,1.6,1.2,2.8,1.6c0.8,0.4,2,0.8,2.8,1.2c1.2,0.4,2,0.4,3.2,0.4s2-0.4,3.2-0.4l3.2-1.2  l-2.8,1.2c-1.2,0-2,0.4-3.2,0.4s-2.4,0-3.2-0.4c-1.2-0.4-2-0.4-3.2-0.8c-0.8-0.4-2-0.8-2.8-1.6c-0.8-0.8-2-1.2-2.4-2  c-0.8-0.8-1.6-1.6-2.4-2.4c-0.8-0.8-1.6-1.6-2-2.8c-0.8-0.8-1.2-2-1.6-2.8c-0.4-0.8-1.2-2-1.6-2.8c-0.4-1.2-0.8-2-1.2-3.2  s-0.8-2-0.8-3.2c-0.4-2-0.8-4.4-1.2-6.4v-3.2l0.4-3.2l0,0c0.8-5.6,1.6-11.2,4.4-16.4c2.8-5.2,6-10,10.4-13.6c8.8-7.6,20.4-12,32-12  c6,0,11.6,0.8,17.2,2.8c0.8,0.4,1.6,0.4,2,0.8l2,0.8c1.2,0.8,2.4,1.2,4,2c2.4,1.6,4.8,3.2,7.2,4.8c4.8,3.6,8.8,7.6,12.4,12.4  c3.6,4.8,6.8,9.6,8.8,15.2c2.4,5.2,4,10.8,4.8,16.8c0.8,5.6,0.8,11.6,0.4,17.6c-0.8,6-2,11.6-4.4,17.2c-0.4,1.6-1.2,2.4-1.6,4  l-0.8,2l-0.4,1.2l-0.8,1.2c-1.6,2.4-3.2,5.2-4.8,7.2c-6.8,9.6-16.4,17.2-26.8,22.4c-1.2,0.8-2.8,1.2-4,2l-2,0.8  c-0.8,0.4-1.6,0.4-2.4,0.8c-2.8,0.8-6,1.6-8.8,2c-6,0.8-11.6,1.6-17.6,1.2c-23.6-0.8-46.4-11.2-62.4-28.4c-8-8.4-14.4-18.8-18.4-30  c-1.2-2.8-1.6-5.6-2.4-8.4c-0.8-2.8-1.2-6-1.6-8.8l-0.8-4.4v-4v-4v-1.2v-1.6v-2c0.8-11.6,3.2-23.2,8-34c5.2-10.8,11.2-20.8,20-29.2  c8.4-8.4,18-15.6,28.8-20.4c10.8-4.8,22-8,33.6-9.6c11.6-1.2,23.6-0.4,34.8,1.6c11.6,2.4,22.4,6.8,32.8,12.8  c19.6,12,36.4,30,46,50.8l3.2,8c0.4,1.2,1.2,2.8,1.6,4l1.2,4.4l2,8.4l1.2,8.8l0.4,4.4c0,1.6,0,2.8,0,4.4v8.8c0,2.8-0.4,5.6-0.8,8.8  c-0.4,2.8-0.4,5.6-1.2,8.4c-4,22.8-14.8,44.4-30.8,60.8l-6,6.4c-2,2-4.4,3.6-6.4,5.2l-3.2,2l-1.6,1.2L320,354  c-0.4,0.4-0.4,0.4-0.8,0.4l-0.8,0.4c-2.4,1.6-4.8,3.2-7.2,4.8c-9.6,6-20.4,10.4-31.2,13.6c-22,6-45.6,6.4-67.2,0.4  c-22-6-42-17.2-58.4-32.4S125.6,306.4,118.8,285.2z"/>
<path style="fill:#FFD05B;" d="M182.8,110.8l-18.4,18.4c-8.4,8.4-22.4,7.6-30-2c-16-20.4-34.8-42-47.6-54.8c-4.4-4.4-9.2-8.4-14-12  c-7.6-5.6-18.4-4.8-25.6,2c-6.8,6.8-8,17.6-2,25.6c3.6,4.8,7.6,9.6,12,14c12.8,12.8,34.4,31.6,54.8,47.6c9.6,7.6,10.4,21.6,2,30  L95.2,198c-3.6,3.6-3.6,9.2,0,12.4l54.8,55.2l100-100l-54.8-54.8C191.6,107.2,186,107.2,182.8,110.8z"/>
<rect x="142.406" y="121.304" transform="matrix(0.7071 0.7071 -0.7071 0.7071 187.2467 -68.2475)" style="fill:#FFFFFF;" width="67.199" height="141.199"/>
<g>
	
		<rect x="184.84" y="133.112" transform="matrix(0.7071 0.7071 -0.7071 0.7071 199.0627 -73.1572)" style="fill:#E6E9EE;" width="6" height="141.199"/>
	
		<rect x="160.884" y="109.213" transform="matrix(0.7071 0.7071 -0.7071 0.7071 175.1468 -63.2177)" style="fill:#E6E9EE;" width="6" height="141.199"/>
</g>
<g>
	<path style="fill:#324A5E;" d="M150.4,265.2c23.2,26.8,46.4,53.6,69.6,80.8c10-8.4,19.6-16.8,29.2-25.6   c-12.4-16-24.8-31.6-37.2-47.6c14.8,13.6,30,26.8,45.2,40c26-24.4,50.4-50.4,73.6-77.6C304,212,277.2,188.8,250,165.6L150.4,265.2z   "/>
	
		<ellipse transform="matrix(-0.7071 -0.7071 0.7071 -0.7071 57.6575 191.6001)" style="fill:#324A5E;" cx="68.51" cy="83.859" rx="12.8" ry="6.4"/>
</g>
<g>
</g>
<g>
</g>
<g>
</g>
<g>
</g>
<g>
</g>
<g>
</g>
<g>
</g>
<g>
</g>
<g>
</g>
<g>
</g>
<g>
</g>
<g>
</g>
<g>
</g>
<g>
</g>
<g>
</g>
</svg>
