<?xml version="1.0" encoding="iso-8859-1"?>
<!-- Generator: Adobe Illustrator 19.0.0, SVG Export Plug-In . SVG Version: 6.00 Build 0)  -->
<svg xmlns="http://www.w3.org/2000/svg" xmlns:xlink="http://www.w3.org/1999/xlink" version="1.1" id="Layer_1" x="0px" y="0px" viewBox="0 0 508 508" style="enable-background:new 0 0 508 508;" xml:space="preserve">
<circle style="fill:#324A5E;" cx="254" cy="254" r="254"/>
<g>
	<path style="fill:#E6E9EE;" d="M382.8,249.6c0,0-36.8-48.8-20.4-102.4c9.6-30.8,3.6-51.6-23.6-51.6h-2l-17.6,103.2L382.8,249.6z"/>
	<path style="fill:#E6E9EE;" d="M315.6,125.2v43.2L284.8,212L254,198.8v-94.4c22.4-0.8,40.4-4,46-8.4h0.8L315.6,125.2z"/>
</g>
<path style="fill:#FF7058;" d="M382.8,249.6v162.8h-95.2c-18.4,0-33.6-15.2-33.6-33.6V198c0,0,48-38,48-85.2c0-6-0.4-12-1.2-17.6  h39.6c7.2,0,12.4,7.2,9.6,14C336.8,145.6,326.8,205.6,382.8,249.6z"/>
<g>
	<path style="fill:#CED5E0;" d="M125.2,249.6c0,0,36.8-48.8,20.4-102.4c-9.6-30.8-3.6-51.6,23.6-51.6h2l17.6,103.2L125.2,249.6z"/>
	<path style="fill:#CED5E0;" d="M192.4,125.2v43.2l30.8,43.6l30.8-13.6v-94c-22.4-0.8-40.4-4-46-8.4h-0.8L192.4,125.2z"/>
</g>
<path style="fill:#F1543F;" d="M125.2,249.6v162.8h95.2c18.4,0,33.6-15.2,33.6-33.6V198c0,0-48-38-48-85.2c0-6,0.4-12,1.2-17.6  h-39.6c-7.2,0-12.4,7.2-9.6,14C171.2,145.6,181.2,205.6,125.2,249.6z"/>
<rect x="254" y="275.2" style="fill:#FFD05B;" width="128.8" height="19.6"/>
<rect x="125.2" y="275.2" style="fill:#F9B54C;" width="128.8" height="19.6"/>
<path style="fill:#324A5E;" d="M277.2,302h-46.4c-6,0-10.8-4.8-10.8-10.8V278c0-6,4.8-10.8,10.8-10.8h46.4c6,0,10.8,4.8,10.8,10.8  v13.2C288,296.8,283.2,302,277.2,302z"/>
<rect x="254" y="329.2" style="fill:#FFD05B;" width="128.8" height="19.6"/>
<rect x="125.2" y="329.2" style="fill:#F9B54C;" width="128.8" height="19.6"/>
<path style="fill:#324A5E;" d="M277.2,356h-46.4c-6,0-10.8-4.8-10.8-10.8V332c0-6,4.8-10.8,10.8-10.8h46.4c6,0,10.8,4.8,10.8,10.8  v13.2C288,351.2,283.2,356,277.2,356z"/>
<g>
</g>
<g>
</g>
<g>
</g>
<g>
</g>
<g>
</g>
<g>
</g>
<g>
</g>
<g>
</g>
<g>
</g>
<g>
</g>
<g>
</g>
<g>
</g>
<g>
</g>
<g>
</g>
<g>
</g>
</svg>
