<?xml version="1.0" encoding="iso-8859-1"?>
<!-- Generator: Adobe Illustrator 19.0.0, SVG Export Plug-In . SVG Version: 6.00 Build 0)  -->
<svg xmlns="http://www.w3.org/2000/svg" xmlns:xlink="http://www.w3.org/1999/xlink" version="1.1" id="Layer_1" x="0px" y="0px" viewBox="0 0 508 508" style="enable-background:new 0 0 508 508;" xml:space="preserve">
<circle style="fill:#90DFAA;" cx="254" cy="254" r="254"/>
<path style="fill:#E6E9EE;" d="M300,450.4c-3.2,0-6.4-0.8-9.2-2.4c-9.6-5.2-13.6-17.2-8.4-26.8c17.6-33.2,20-89.2,6.4-139.6  c-10.8-40.8-29.6-63.2-42-70c-9.6-5.2-13.2-17.2-8-26.8s17.2-13.2,26.8-8c26.8,14.4,49.2,48.8,61.6,94.8  c16.4,60,12.4,126.4-9.6,168.4C314,446.8,307.2,450.4,300,450.4z"/>
<path style="fill:#FFFFFF;" d="M208,450.4c-7.2,0-14-4-17.6-10.8c-22.4-42.4-26-108.4-9.6-168.4c12.4-45.6,35.2-80.4,61.6-94.8  c9.6-5.2,21.6-1.6,26.8,8c5.2,9.6,1.6,21.6-8,26.8c-12.4,7.2-31.2,29.6-42.4,70.8c-13.6,50-11.2,106.4,6.4,139.6  c5.2,9.6,1.6,21.6-8.4,26.8C214,449.6,211.2,450.4,208,450.4z"/>
<path style="fill:#E6E9EE;" d="M216.8,190.4l48-18.4L220.4,57.6l0,0C194,68,180.8,97.6,190.8,124L216.8,190.4z"/>
<g>
	<path style="fill:#FFFFFF;" d="M291.2,190.4l-48-18.4l44.4-114.4l0,0c26.4,10.4,39.6,40,29.6,66.4L291.2,190.4z"/>
	<circle style="fill:#FFFFFF;" cx="254" cy="169.6" r="45.6"/>
</g>
<circle style="fill:#E6E9EE;" cx="254" cy="169.6" r="18"/>
<g>
</g>
<g>
</g>
<g>
</g>
<g>
</g>
<g>
</g>
<g>
</g>
<g>
</g>
<g>
</g>
<g>
</g>
<g>
</g>
<g>
</g>
<g>
</g>
<g>
</g>
<g>
</g>
<g>
</g>
</svg>
