<?xml version="1.0" encoding="iso-8859-1"?>
<!-- Generator: Adobe Illustrator 19.0.0, SVG Export Plug-In . SVG Version: 6.00 Build 0)  -->
<svg xmlns="http://www.w3.org/2000/svg" xmlns:xlink="http://www.w3.org/1999/xlink" version="1.1" id="Layer_1" x="0px" y="0px" viewBox="0 0 508 508" style="enable-background:new 0 0 508 508;" xml:space="preserve">
<circle style="fill:#FFD05B;" cx="254" cy="254" r="254"/>
<path style="fill:#324A5E;" d="M318,290.4c-6.4-4-14.4-2-18.4,4.4l-6.4,11.2L112,193.6c-2-1.2-4.8-0.8-6,1.6c-1.2,2-0.8,4.8,1.6,6  l181.2,112.4l-6,10c-4,6.4-2,14.4,4.4,18.4l45.2,27.6l31.2-51.6L318,290.4z"/>
<g>
	<path style="fill:#FFFFFF;" d="M226.8,177.6c0.4-7.6-2.8-15.2-9.2-20l0,0c-2-2-4.4-3.6-7.6-4c-3.2-1.2-6.8-1.6-10-1.2l-61.6-6.4   h-1.6c-4-0.4-8,1.6-10,5.2L100,195.6c-1.2,2.4-1.2,5.2,0.8,7.2c2.4,2.4,6,2.8,8.4,0.4l32.4-29.6l28.4,2.8l-32.8,36.4   c-2.4,1.6-4.4,4-5.6,6.4l0,0l0,0c-1.6,2.8-2.8,6-3.2,9.2l-7.2,83.6L80,374c-2.8,4-2.8,9.2,0.4,13.2c4,4.8,10.8,5.6,15.6,2   l63.2-54.4c3.2-2.4,5.2-6.4,5.6-10.8l0.4-2.8l1.6-20.4l18.4,16l6.4,62.4c1.2,6.8,7.2,12,14.8,12.4c8.4,0,15.2-6.4,15.2-14.8   l0.8-70.4c0-3.6-0.8-6.8-3.2-10l-1.2-1.6l-40-53.6l28.4-32.4l15.6,67.6c0.8,3.2,3.6,5.6,7.2,5.2c3.6-0.4,6.4-3.6,6-7.2L226.8,177.6   z"/>
	<circle style="fill:#FFFFFF;" cx="246" cy="126.8" r="29.6"/>
	<path style="fill:#FFFFFF;" d="M286.4,391.6h138c0.8-3.6,0.8-7.6,0.4-11.6c-1.2-12.8-8.4-23.6-18.4-30c0.4-3.6,0.8-7.2,0.4-10.8   c-2.4-22.4-22.4-38.8-44.8-36.4c-19.2,2-34,16.8-36.4,35.2c-1.6,0-3.2,0-4.8,0.4c-22.4,2.4-38.8,22.4-36.4,44.8   C284.8,386.4,285.2,389.2,286.4,391.6z"/>
</g>
<g>
</g>
<g>
</g>
<g>
</g>
<g>
</g>
<g>
</g>
<g>
</g>
<g>
</g>
<g>
</g>
<g>
</g>
<g>
</g>
<g>
</g>
<g>
</g>
<g>
</g>
<g>
</g>
<g>
</g>
</svg>
