<?xml version="1.0" encoding="iso-8859-1"?>
<!-- Generator: Adobe Illustrator 19.0.0, SVG Export Plug-In . SVG Version: 6.00 Build 0)  -->
<svg xmlns="http://www.w3.org/2000/svg" xmlns:xlink="http://www.w3.org/1999/xlink" version="1.1" id="Layer_1" x="0px" y="0px" viewBox="0 0 508 508" style="enable-background:new 0 0 508 508;" xml:space="preserve">
<circle style="fill:#FD8469;" cx="254" cy="254" r="254"/>
<path style="fill:#FFFFFF;" d="M508,245.6h-70.8c-34,0-61.2,27.6-61.2,61.6v23.6c0,60-48.8,109.2-109.2,109.2  s-109.6-49.2-109.6-109.6V224.8c0-34-27.6-61.6-61.2-61.6H16.8c6.4-16.8,14.4-32.8,24.4-47.6h55.2c60,0,109.2,48.8,109.2,109.2  v105.6c0,34,27.6,61.6,61.6,61.6s61.2-27.6,61.2-61.6v-23.6c0-60,48.8-109.2,109.2-109.2h64.8C505.2,213.2,507.2,229.2,508,245.6z"/>
<g>
	<path style="fill:#E6E9EE;" d="M456.4,252.8h-17.2c-5.2,0-9.2-4-9.2-9.2V198c0-5.2,4-9.2,9.2-9.2h17.2c5.2,0,9.2,4,9.2,9.2v46   C465.6,248.8,461.6,252.8,456.4,252.8z"/>
	<path style="fill:#E6E9EE;" d="M97.6,172H80.4c-5.2,0-9.2-4-9.2-9.2v-45.6c0-5.2,4-9.2,9.2-9.2h17.2c5.2,0,9.2,4,9.2,9.2v46   C106.8,168,102.4,172,97.6,172z"/>
	<path style="fill:#E6E9EE;" d="M319.6,335.2V318c0-5.2,4-9.2,9.2-9.2h46c5.2,0,9.2,4,9.2,9.2v17.2c0,5.2-4,9.2-9.2,9.2h-46   C324,344.4,319.6,340.4,319.6,335.2z"/>
	<path style="fill:#E6E9EE;" d="M146.4,335.2V318c0-5.2,4-9.2,9.2-9.2h46c5.2,0,9.2,4,9.2,9.2v17.2c0,5.2-4,9.2-9.2,9.2h-46   C150.4,344.4,146.4,340.4,146.4,335.2z"/>
	<path style="fill:#E6E9EE;" d="M146.4,246.8V230c0-5.2,4-9.2,9.2-9.2h46c5.2,0,9.2,4,9.2,9.2v17.2c0,5.2-4,9.2-9.2,9.2h-46   C150.4,256,146.4,252,146.4,246.8z"/>
</g>
<g>
</g>
<g>
</g>
<g>
</g>
<g>
</g>
<g>
</g>
<g>
</g>
<g>
</g>
<g>
</g>
<g>
</g>
<g>
</g>
<g>
</g>
<g>
</g>
<g>
</g>
<g>
</g>
<g>
</g>
</svg>
