<?xml version="1.0" encoding="iso-8859-1"?>
<!-- Generator: Adobe Illustrator 19.0.0, SVG Export Plug-In . SVG Version: 6.00 Build 0)  -->
<svg xmlns="http://www.w3.org/2000/svg" xmlns:xlink="http://www.w3.org/1999/xlink" version="1.1" id="Layer_1" x="0px" y="0px" viewBox="0 0 508 508" style="enable-background:new 0 0 508 508;" xml:space="preserve">
<circle style="fill:#FFD05B;" cx="254" cy="254" r="254"/>
<g>
	<path style="fill:#FFFFFF;" d="M421.2,262.8c0,10-74.8,18.4-167.2,18.4s-167.2-8-167.2-18.4c0-3.2,7.6-6.4,20.8-8.8   c0-1.6,0-3.2,0-4.8c0-49.2,24.4-92.8,61.6-119.2c11.2-8,23.6-14.4,36.8-19.2c15.2-5.2,31.2-8,48-8s33.2,2.8,48,8   c13.2,4.8,25.6,11.2,36.8,19.2c37.2,26.4,61.6,70,61.6,119.2c0,1.6,0,3.2,0,4.8C413.6,256.8,421.2,259.6,421.2,262.8z"/>
	<path style="fill:#FFFFFF;" d="M400.4,249.2c0,1.6,0,2.8,0,4.4c0,1.2,0,2,0,2.8H107.6c0-0.8,0-2,0-2.8c0-1.6,0-2.8,0-4.4   c0-2.8,0-5.2,0.4-7.6c4-77.2,68-138.8,146.4-138.8s142.4,61.6,146.4,138.8C400.4,244,400.4,246.8,400.4,249.2z"/>
</g>
<g>
	<path style="fill:#E6E9EE;" d="M339.2,130l-44.4,98l7.2-117.2C315.2,115.2,328,122,339.2,130z"/>
	<path style="fill:#E6E9EE;" d="M213.2,228l-44.4-98c11.2-8,23.6-14.4,36.8-19.2L213.2,228z"/>
</g>
<path style="fill:#FFFFFF;" d="M286.4,83.6h-64.8c-16.4,0-28.8,14.4-26,30.8l18,113.6h81.2l18-113.6  C315.2,98.4,302.4,83.6,286.4,83.6z"/>
<g>
	<path style="fill:#E6E9EE;" d="M249.6,262.8c-49.6,0-93.6-2.8-123.6-6.4c-7.2-0.8-13.2-2-18.4-2.8c0-1.6,0-2.8,0-4.4   c0-2.8,0-5.2,0.4-7.6c13.6,6,33.2,11.2,56.8,15.2C189.2,260.4,218.4,262.8,249.6,262.8z"/>
	<path style="fill:#E6E9EE;" d="M400.4,249.2c0,1.6,0,2.8,0,4.4c-5.2,1.2-11.6,2-18.4,2.8c-30,4-74,6.4-123.6,6.4   c31.2-0.4,60.4-2.4,85.2-6.4c23.6-3.6,43.2-8.8,56.8-15.2C400.4,244,400.4,246.8,400.4,249.2z"/>
</g>
<g>
	<path style="fill:#2B3B4E;" d="M378.8,336h-4.4c-4.8,0-8.8,4-8.8,8.8V378c0,4.8,4,8.8,8.8,8.8h4.4c4.8,0,8.8-4,8.8-8.8v-33.2   C387.6,340,383.6,336,378.8,336z"/>
	<path style="fill:#2B3B4E;" d="M133.6,336h-4.4c-4.8,0-8.8,4-8.8,8.8V378c0,4.8,4,8.8,8.8,8.8h4.4c4.8,0,8.8-4,8.8-8.8v-33.2   C142.4,340,138.4,336,133.6,336z"/>
</g>
<path style="fill:#84DBFF;" d="M376.8,342.8v40.8c0,6.8-2.4,13.6-6.8,19.2c-10.8,13.2-26.4,21.6-44.4,21.6c-16,0-36-11.6-52-27.6  c-10.8-10.8-28.4-10.8-39.6,0c-16,16-36,27.6-52,27.6c-17.6,0-33.6-8.4-44.4-21.6c-4.4-5.6-6.8-12.4-6.8-19.2v-40.8  c0-6.8,2.4-13.6,6.8-19.2c10.8-13.2,26.8-21.6,44.4-21.6h143.2c17.6,0,33.6,8.4,44.4,21.6C374.4,329.2,376.8,336,376.8,342.8z"/>
<path style="fill:#324A5E;" d="M376.8,342.8v40.8c0,6.8-2.4,13.6-6.8,19.2c-10.8,13.2-26.4,21.6-44.4,21.6c-16,0-36-11.6-52-27.6  c-10.8-10.8-28.4-10.8-39.6,0c-16,16-36,27.6-52,27.6c-17.6,0-33.6-8.4-44.4-21.6c-4.4-5.6-6.8-12.4-6.8-19.2v-40.8  c0-6.8,2.4-13.6,6.8-19.2c10.8-13.2,26.8-21.6,44.4-21.6h143.2c17.6,0,33.6,8.4,44.4,21.6C374.4,329.2,376.8,336,376.8,342.8z"/>
<path style="fill:#54C0EB;" d="M325.6,413.6c-12,0-29.6-9.6-44.4-24.4C274,382,264.4,378,254,378s-20,4-27.2,11.2  c-14.8,14.8-32.4,24.4-44.4,24.4c-14,0-27.2-6.4-36-17.6c-2.8-3.6-4.4-8-4.4-12.4v-40.8c0-4.4,1.6-9.2,4.4-12.4  c9.2-11.2,22.4-17.6,36-17.6h143.2c14,0,27.2,6.4,36,17.6c2.8,3.6,4.4,8,4.4,12.4v40.8c0,4.4-1.6,9.2-4.4,12.4  C352.8,407.2,339.6,413.6,325.6,413.6z"/>
<g>
	<path style="fill:#84DBFF;" d="M236,312.8l-67.6,98.4c-4-1.2-8-3.2-11.6-6l63.6-92.4H236z"/>
	<path style="fill:#84DBFF;" d="M256.8,312.8l-68.8,100c-2,0.4-4,0.8-5.6,0.8c-0.8,0-1.6,0-2.8,0l69.2-100.4h8V312.8z"/>
	<path style="fill:#84DBFF;" d="M335.6,314l-52.8,76.4c-0.4-0.4-1.2-0.8-1.6-1.6c-2.4-2.4-5.6-4.8-8.8-6.4l48-69.6h5.2   C328.8,312.8,332.4,313.2,335.6,314z"/>
	<path style="fill:#84DBFF;" d="M351.6,321.2L296,401.6c-1.6-1.2-3.6-2.4-5.2-4l54.8-80C348,318.8,349.6,319.6,351.6,321.2z"/>
</g>
<g>
</g>
<g>
</g>
<g>
</g>
<g>
</g>
<g>
</g>
<g>
</g>
<g>
</g>
<g>
</g>
<g>
</g>
<g>
</g>
<g>
</g>
<g>
</g>
<g>
</g>
<g>
</g>
<g>
</g>
</svg>
