<?xml version="1.0" encoding="iso-8859-1"?>
<!-- Generator: Adobe Illustrator 19.0.0, SVG Export Plug-In . SVG Version: 6.00 Build 0)  -->
<svg xmlns="http://www.w3.org/2000/svg" xmlns:xlink="http://www.w3.org/1999/xlink" version="1.1" id="Layer_1" x="0px" y="0px" viewBox="0 0 508 508" style="enable-background:new 0 0 508 508;" xml:space="preserve">
<path style="fill:#84DBFF;" d="M508,254c0,140.4-113.6,254-254,254S0,394.4,0,254C0,116.4,109.6,4.4,246,0c2.8,0,5.2,0,8,0  c2.8,0,5.2,0,8,0C398.4,4.4,508,116.4,508,254z"/>
<path style="fill:#FFFFFF;" d="M178,225.6c-17.2,18.4-27.6,43.2-27.6,70.4c0,57.2,103.6,182,103.6,182s103.6-124.8,103.6-182  c0-27.2-10.4-52-27.6-70.4H178z"/>
<g>
	<path style="fill:#E6E9EE;" d="M201.2,406.4c26.4,39.2,52.8,71.2,52.8,71.2s26.8-32,52.8-71.2L201.2,406.4L201.2,406.4z"/>
	<path style="fill:#E6E9EE;" d="M287.2,225.6h-66.4V188c0-18.4,14.8-33.2,33.2-33.2l0,0c18.4,0,33.2,14.8,33.2,33.2V225.6z"/>
</g>
<circle style="fill:#84DBFF;" cx="254" cy="187.2" r="13.6"/>
<path style="fill:#FF7058;" d="M262,0v180.4c0,4.4-3.6,8-8,8s-8-3.6-8-8V0c2.8,0,5.2,0,8,0C256.8,0,259.2,0,262,0z"/>
<g>
</g>
<g>
</g>
<g>
</g>
<g>
</g>
<g>
</g>
<g>
</g>
<g>
</g>
<g>
</g>
<g>
</g>
<g>
</g>
<g>
</g>
<g>
</g>
<g>
</g>
<g>
</g>
<g>
</g>
</svg>
