<?xml version="1.0" encoding="iso-8859-1"?>
<!-- Generator: Adobe Illustrator 19.0.0, SVG Export Plug-In . SVG Version: 6.00 Build 0)  -->
<svg xmlns="http://www.w3.org/2000/svg" xmlns:xlink="http://www.w3.org/1999/xlink" version="1.1" id="Layer_1" x="0px" y="0px" viewBox="0 0 508 508" style="enable-background:new 0 0 508 508;" xml:space="preserve">
<circle style="fill:#FD8469;" cx="254" cy="254" r="254"/>
<g>
	<path style="fill:#2B3B4E;" d="M434,151.2h-6.4c-6.8,0-12.4,5.6-12.4,12.4v48c0,6.8,5.6,12.4,12.4,12.4h6.4   c6.8,0,12.4-5.6,12.4-12.4v-48C446.4,156.8,440.8,151.2,434,151.2z"/>
	<path style="fill:#2B3B4E;" d="M80.4,151.2H74c-6.8,0-12.4,5.6-12.4,12.4v48c0,6.8,5.6,12.4,12.4,12.4h6.4   c6.8,0,12.4-5.6,12.4-12.4v-48C93.2,156.8,87.6,151.2,80.4,151.2z"/>
</g>
<path style="fill:#84DBFF;" d="M430.8,160.8v58.4c0,10-3.2,20-9.6,27.6c-15.2,18.8-38.4,30.8-64,30.8c-23.2,0-52-16.8-74.8-39.6  c-15.6-15.6-41.2-15.6-56.8,0c-22.8,23.2-51.6,40-74.8,40c-25.6,0-48.4-12-64-30.8c-6.4-7.6-9.6-17.6-9.6-27.6v-58.8  c0-10,3.2-20,9.6-27.6c15.2-18.8,38.4-30.8,64-30.8h206.4c25.6,0,48.4,12,64,30.8C427.6,140.8,430.8,150.8,430.8,160.8z"/>
<path style="fill:#324A5E;" d="M430.8,160.8v58.4c0,10-3.2,20-9.6,27.6c-15.2,18.8-38.4,30.8-64,30.8c-23.2,0-52-16.8-74.8-39.6  c-15.6-15.6-41.2-15.6-56.8,0c-22.8,23.2-51.6,40-74.8,40c-25.6,0-48.4-12-64-30.8c-6.4-7.6-9.6-17.6-9.6-27.6v-58.8  c0-10,3.2-20,9.6-27.6c15.2-18.8,38.4-30.8,64-30.8h206.4c25.6,0,48.4,12,64,30.8C427.6,140.8,430.8,150.8,430.8,160.8z"/>
<path style="fill:#54C0EB;" d="M357.2,262.4c-17.2,0-42.4-14-64-35.2c-10.4-10.4-24.4-16-39.2-16c-14.8,0-28.8,5.6-39.2,16  c-21.6,21.6-46.8,35.2-64,35.2c-20,0-38.8-9.2-52-25.2c-4-4.8-6.4-11.2-6.4-18v-58.4c0-6.8,2.4-12.8,6.4-18c13.2-16,32-25.2,52-25.2  h206.4c20,0,38.8,9.2,52,25.2c4,4.8,6.4,11.2,6.4,18v58.4c0,6.8-2.4,12.8-6.4,18C396,253.2,377.2,262.4,357.2,262.4z"/>
<g>
	<path style="fill:#84DBFF;" d="M228,117.6l-97.6,141.6c-6-2-11.6-4.8-16.8-8.4l91.6-133.2L228,117.6L228,117.6z"/>
	<path style="fill:#84DBFF;" d="M258,117.6l-99.2,144c-2.8,0.8-5.6,0.8-8,0.8c-1.2,0-2.4,0-4,0l99.6-144.8   C246.4,117.6,258,117.6,258,117.6z"/>
	<path style="fill:#84DBFF;" d="M371.2,119.2l-76,110.4c-0.8-0.8-1.6-1.6-2.4-2c-3.6-3.6-8-6.8-12.4-9.2L349.2,118h7.6   C362,117.6,366.8,118,371.2,119.2z"/>
	<path style="fill:#84DBFF;" d="M394.4,129.2l-80,116c-2.4-1.6-4.8-3.6-7.6-5.6L386,124.4C389.2,126,392,127.6,394.4,129.2z"/>
</g>
<g>
	<path style="fill:#F9B54C;" d="M200.4,432l-7.6-7.6c-2.8-2.8-2.8-7.2,0-10L298,309.2c2.8-2.8,7.2-2.8,10,0l7.6,7.6   c2.8,2.8,2.8,7.2,0,10L210.4,432C207.6,434.8,203.2,434.8,200.4,432z"/>
	<path style="fill:#F9B54C;" d="M192.4,316.8l7.6-7.6c2.8-2.8,7.2-2.8,10,0l105.2,105.2c2.8,2.8,2.8,7.2,0,10l-7.6,7.6   c-2.8,2.8-7.2,2.8-10,0L192.4,327.2C189.6,324.4,189.6,320,192.4,316.8z"/>
</g>
<path style="fill:#FFD05B;" d="M298.4,335.2c-10.8-12.8-20-26.8-24.8-42.8c-4.4-14.4-11.6-24-19.6-24s-15.2,9.6-19.6,24  c-4.8,15.6-13.6,30-24.4,42.4c-9.6,10.8-15.2,25.6-14.8,41.2c1.2,30,25.6,54.8,56,56.4c33.6,1.6,61.6-25.2,61.6-58.8  C312.8,358.8,307.2,345.2,298.4,335.2z"/>
<circle style="fill:#F9B54C;" cx="254" cy="370.8" r="18"/>
<g>
</g>
<g>
</g>
<g>
</g>
<g>
</g>
<g>
</g>
<g>
</g>
<g>
</g>
<g>
</g>
<g>
</g>
<g>
</g>
<g>
</g>
<g>
</g>
<g>
</g>
<g>
</g>
<g>
</g>
</svg>
