<?xml version="1.0" encoding="iso-8859-1"?>
<!-- Generator: Adobe Illustrator 19.0.0, SVG Export Plug-In . SVG Version: 6.00 Build 0)  -->
<svg xmlns="http://www.w3.org/2000/svg" xmlns:xlink="http://www.w3.org/1999/xlink" version="1.1" id="Layer_1" x="0px" y="0px" viewBox="0 0 508 508" style="enable-background:new 0 0 508 508;" xml:space="preserve">
<circle style="fill:#324A5E;" cx="254" cy="254" r="254"/>
<polygon style="fill:#E6E9EE;" points="73.2,165.2 73.2,227.2 372.8,227.2 434.8,165.2 "/>
<g>
	<polygon style="fill:#ACB3BA;" points="372.8,227.2 372.8,342.8 434.8,342.8 434.8,227.2 434.8,165.2  "/>
	<rect x="120.4" y="165.2" style="fill:#ACB3BA;" width="6.8" height="18"/>
	<rect x="144" y="165.2" style="fill:#ACB3BA;" width="6.8" height="11.2"/>
	<rect x="167.2" y="165.2" style="fill:#ACB3BA;" width="6.8" height="18"/>
	<rect x="190.8" y="165.2" style="fill:#ACB3BA;" width="6.8" height="11.2"/>
	<rect x="214" y="165.2" style="fill:#ACB3BA;" width="6.8" height="18"/>
	<rect x="237.6" y="165.2" style="fill:#ACB3BA;" width="6.8" height="11.2"/>
	<rect x="260.8" y="165.2" style="fill:#ACB3BA;" width="6.8" height="18"/>
	<rect x="284.4" y="165.2" style="fill:#ACB3BA;" width="6.8" height="11.2"/>
	<rect x="308" y="165.2" style="fill:#ACB3BA;" width="6.8" height="18"/>
	<rect x="331.2" y="165.2" style="fill:#ACB3BA;" width="6.8" height="11.2"/>
	<rect x="354.8" y="165.2" style="fill:#ACB3BA;" width="6.8" height="18"/>
	<rect x="378" y="165.2" style="fill:#ACB3BA;" width="6.8" height="11.2"/>
	<rect x="97.2" y="165.2" style="fill:#ACB3BA;" width="6.8" height="11.2"/>
</g>
<circle style="fill:#CED5E0;" cx="100" cy="201.6" r="10"/>
<g>
</g>
<g>
</g>
<g>
</g>
<g>
</g>
<g>
</g>
<g>
</g>
<g>
</g>
<g>
</g>
<g>
</g>
<g>
</g>
<g>
</g>
<g>
</g>
<g>
</g>
<g>
</g>
<g>
</g>
</svg>
