<?xml version="1.0" encoding="iso-8859-1"?>
<!-- Generator: Adobe Illustrator 19.0.0, SVG Export Plug-In . SVG Version: 6.00 Build 0)  -->
<svg xmlns="http://www.w3.org/2000/svg" xmlns:xlink="http://www.w3.org/1999/xlink" version="1.1" id="Layer_1" x="0px" y="0px" viewBox="0 0 508 508" style="enable-background:new 0 0 508 508;" xml:space="preserve">
<circle style="fill:#54C0EB;" cx="254" cy="254" r="254"/>
<path style="fill:#FFFFFF;" d="M440.8,375.6L149.2,84.4c0,0-43.2,41.2-48.4,46.4c-26,26-40.4,56.8-41.6,82.8l13.6,13.6l77.2-78  l258.4,258.4L440.8,375.6z"/>
<g>
	
		<rect x="391.951" y="378.432" transform="matrix(-0.7071 -0.7071 0.7071 -0.7071 401.7651 936.0797)" style="fill:#ACB3BA;" width="5.6" height="12.8"/>
	
		<rect x="376.071" y="362.376" transform="matrix(-0.7071 -0.7071 0.7071 -0.7071 386.009 897.4429)" style="fill:#ACB3BA;" width="5.6" height="12.8"/>
	
		<rect x="360.231" y="346.317" transform="matrix(-0.7071 -0.7071 0.7071 -0.7071 370.324 858.8275)" style="fill:#ACB3BA;" width="5.6" height="12.8"/>
	
		<rect x="344.351" y="330.824" transform="matrix(-0.7071 -0.7071 0.7071 -0.7071 354.1707 821.1495)" style="fill:#ACB3BA;" width="5.6" height="12.8"/>
	
		<rect x="328.551" y="314.78" transform="matrix(-0.7071 -0.7071 0.7071 -0.7071 338.5427 782.5898)" style="fill:#ACB3BA;" width="5.6" height="12.8"/>
	
		<rect x="312.671" y="298.705" transform="matrix(-0.7071 -0.7071 0.7071 -0.7071 322.8007 743.9188)" style="fill:#ACB3BA;" width="5.6" height="12.8"/>
	
		<rect x="296.831" y="283.216" transform="matrix(-0.7071 -0.7071 0.7071 -0.7071 306.7129 706.2761)" style="fill:#ACB3BA;" width="5.6" height="12.8"/>
	
		<rect x="280.951" y="267.145" transform="matrix(-0.7071 -0.7071 0.7071 -0.7071 290.968 667.6119)" style="fill:#ACB3BA;" width="5.6" height="12.8"/>
	
		<rect x="264.788" y="251.38" transform="matrix(-0.7071 -0.7071 0.7071 -0.7071 274.5234 629.2716)" style="fill:#ACB3BA;" width="5.6" height="12.8"/>
	
		<rect x="249.219" y="235.616" transform="matrix(-0.7071 -0.7071 0.7071 -0.7071 259.0923 591.3511)" style="fill:#ACB3BA;" width="5.6" height="12.8"/>
	
		<rect x="233.359" y="219.549" transform="matrix(-0.7071 -0.7071 0.7071 -0.7071 243.3788 552.708)" style="fill:#ACB3BA;" width="5.6" height="12.8"/>
	
		<rect x="217.204" y="203.772" transform="matrix(-0.7071 -0.7071 0.7071 -0.7071 226.9564 514.3529)" style="fill:#ACB3BA;" width="5.6" height="12.8"/>
	
		<rect x="201.631" y="187.98" transform="matrix(-0.7071 -0.7071 0.7071 -0.7071 211.5382 476.3817)" style="fill:#ACB3BA;" width="5.6" height="12.8"/>
</g>
<path style="fill:#E6E9EE;" d="M187.2,186l-77.6,77.6l13.6,13.6c26-1.2,56.8-16,82.8-41.6c5.2-5.2,10-10.8,14.4-16.4L187.2,186z"/>
<path style="fill:#FFFFFF;" d="M177.2,112.8l25.6-25.6c-7.2-4.8-22.8,1.2-36.8,14.4L177.2,112.8z"/>
<g>
	<path style="fill:#E6E9EE;" d="M218.8,154.4l25.6-25.6c4.8,7.2-1.2,22.8-14.4,36.8L218.8,154.4z"/>
	
		<rect x="199.194" y="191.525" transform="matrix(-0.7071 -0.7071 0.7071 -0.7071 303.5748 524.3947)" style="fill:#E6E9EE;" width="122.399" height="15.6"/>
	
		<rect x="169.601" y="221.153" transform="matrix(-0.7071 -0.7071 0.7071 -0.7071 232.1074 554.048)" style="fill:#E6E9EE;" width="122.399" height="15.6"/>
</g>
<g>
</g>
<g>
</g>
<g>
</g>
<g>
</g>
<g>
</g>
<g>
</g>
<g>
</g>
<g>
</g>
<g>
</g>
<g>
</g>
<g>
</g>
<g>
</g>
<g>
</g>
<g>
</g>
<g>
</g>
</svg>
