<?xml version="1.0" encoding="iso-8859-1"?>
<!-- Generator: Adobe Illustrator 19.0.0, SVG Export Plug-In . SVG Version: 6.00 Build 0)  -->
<svg xmlns="http://www.w3.org/2000/svg" xmlns:xlink="http://www.w3.org/1999/xlink" version="1.1" id="Layer_1" x="0px" y="0px" viewBox="0 0 508 508" style="enable-background:new 0 0 508 508;" xml:space="preserve">
<circle style="fill:#324A5E;" cx="254" cy="254" r="254"/>
<ellipse style="fill:#F9B54C;" cx="254" cy="190.4" rx="18.4" ry="31.2"/>
<polygon style="fill:#E6E9EE;" points="271.6,184.8 279.2,228.4 271.6,263.6 254.8,300.8 230.8,255.2 228.4,206 233.6,190   236.4,184.8 241.2,198 247.6,205.6 254,210.8 262.4,204.4 270,192.4 "/>
<polygon style="fill:#FF7058;" points="250.4,215.2 236.8,284 254,302.8 271.2,284 257.6,215.2 "/>
<polygon style="fill:#F1543F;" points="250.4,204.4 247.6,212.4 250.4,215.2 257.6,215.2 260.4,212.4 257.6,204.4 "/>
<path style="fill:#2C9984;" d="M206,281.6c2.4,12,3.6,25.6,4,39.2h49.6c0-2.8-0.4-5.2-0.8-7.6c-0.4-2-0.8-3.6-1.2-5.6  c-0.4-1.2-0.8-2.4-1.2-3.6c-0.4-0.8-0.4-1.6-0.8-2.4c0,0,0-0.4-0.4-0.4c0-0.4-0.4-0.8-0.4-1.2c-0.4-0.8-0.8-2-1.2-2.8  c-4-10.4-8.8-22-12.4-36.8c-4.4-17.6-7.6-39.2-5.6-68.8l0,0l0,0c0-2,0.4-4.4,0.4-6.4l0,0l0,0l0,0l0,0c-2,2-16.4,14.8-54,27.2  l0.4,0.8C185.2,218.4,198.8,245.2,206,281.6z"/>
<g>
	<path style="fill:#4CDBC4;" d="M208.8,218.8c0,0,14.4,69.2,47.6,85.6c-8-25.2-26-54.8-20-119.2l0,0c-1.2,1.2-12.4,14-21.2,17.2   c0,0,8.8,10,10.8,10.8C225.6,213.2,214.4,221.2,208.8,218.8z"/>
	<path style="fill:#4CDBC4;" d="M298.4,320.8c0-14,1.6-27.2,4-39.2c6.8-36.4,20.8-63.2,23.6-68.4l0.4-0.8   c-37.6-12.4-52-25.2-54-27.2l0,0l0,0l0,0c0.4,2,0.4,4.4,0.4,6.4l0,0l0,0c2,29.6-1.2,51.6-5.6,68.8c-4,14.8-8.8,26.4-12.4,36.8   c0,0.4-0.4,0.8-0.4,0.8c-0.4,1.2-0.8,2-1.2,3.2c0,0.4,0,0.4-0.4,0.4c-0.4,0.8-0.4,1.6-0.8,2.4c-0.4,1.2-0.8,2.4-1.2,3.6   c-1.2,4-1.6,8.4-2,13.2L298.4,320.8L298.4,320.8z"/>
</g>
<g>
	<path style="fill:#2C9984;" d="M299.2,218.8c0,0-14.4,69.2-47.6,85.6c8-25.2,26-54.8,20-119.2l0,0c1.2,1.2,12.4,14,21.2,17.2   c0,0-8.8,10-10.8,10.8C282.4,213.2,293.6,221.2,299.2,218.8z"/>
	<path style="fill:#2C9984;" d="M333.6,320.8c-4-37.6-11.2-78.4-7.6-108.4l-0.4,0.8c-2.8,5.2-16.4,32-23.6,68.4   c1.2,11.2,2,25.6,3.2,39.2L333.6,320.8L333.6,320.8z"/>
</g>
<path style="fill:#4CDBC4;" d="M174.4,320.8h28.4c0.8-14,2-28,3.2-39.2c-6.8-36.4-20.8-63.2-23.6-68.4l-0.4-0.8  C185.6,242.4,178.4,283.6,174.4,320.8z"/>
<g>
	<path style="fill:#FFFFFF;" d="M271.6,184.8c0,0-6,10-17.6,19.6c0,0,10,10.4,10,16.8C264,221.6,274.8,200.8,271.6,184.8z"/>
	<path style="fill:#FFFFFF;" d="M236.4,184.8c0,0,6,10,17.6,19.6c0,0-10,10.4-10,16.8C244,221.6,233.2,200.8,236.4,184.8z"/>
</g>
<ellipse style="fill:#FFD05B;" cx="254" cy="136.4" rx="44" ry="45.6"/>
<g>
	<path style="fill:#FFFFFF;" d="M296,149.2c0-5.2-1.2-12.8-5.2-19.6c0,0,2,10,0,12.8c0,0-4.8-23.2-14-29.2l13.6-2   c4.4,7.2,7.2,16,7.2,25.2C297.6,140.8,297.2,145.2,296,149.2z"/>
	<path style="fill:#FFFFFF;" d="M230.8,113.2c-9.6,5.6-14,29.2-14,29.2c-2-2.8,0-12.8,0-12.8c-4,6.8-4.8,14.4-5.2,19.6   c-1.2-4-1.6-8.4-1.6-12.8c0-9.2,2.8-18,7.2-25.2L230.8,113.2z"/>
</g>
<path style="fill:#F9B54C;" d="M301.2,118c0-26-21.2-47.2-47.6-47.2S206.4,92,206.4,118H301.2z"/>
<path style="fill:#F1543F;" d="M301.2,118h-94.8c0-2,0-4,0.4-6c2.4-20,18-36.4,37.6-40.4c3.2-0.8,6.4-0.8,9.6-0.8s6.4,0.4,9.2,0.8  c19.6,4,35.2,20,37.6,40.4C301.2,114,301.2,116,301.2,118z"/>
<path style="fill:#FF7058;" d="M301.2,118h-94.8c0-2,0-4,0.4-6c14-1.2,27.6-11.2,34-27.6c1.6-4,2.8-8.4,3.6-12.8l0,0  c0.8-4.4,4.4-8,9.2-8h0.4c4.8,0,8.4,3.6,9.2,8c0,0,0,0,0,0.4c2,14.8,10,28.4,22,35.6c5.2,2.8,10.4,4.4,15.6,4.8  C301.2,114,301.2,116,301.2,118z"/>
<polygon style="fill:#F1543F;" points="305.6,125.2 202,125.2 206.4,118 301.2,118 "/>
<g>
	<path style="fill:#E6E9EE;" d="M123.6,349.2H182c0.8,0,2-0.8,2-2v-24.8c0-0.8-0.8-2-2-2h-58.4c-0.8,0-2,0.8-2,2v24.8   C121.6,348.4,122.4,349.2,123.6,349.2z"/>
	<path style="fill:#E6E9EE;" d="M191.2,349.2h58.4c0.8,0,2-0.8,2-2v-24.8c0-0.8-0.8-2-2-2h-58.4c-0.8,0-2,0.8-2,2v24.8   C189.2,348.4,190,349.2,191.2,349.2z"/>
	<path style="fill:#E6E9EE;" d="M258.4,349.2h58.4c0.8,0,2-0.8,2-2v-24.8c0-0.8-0.8-2-2-2h-58.4c-0.8,0-2,0.8-2,2v24.8   C256.8,348.4,257.6,349.2,258.4,349.2z"/>
	<path style="fill:#E6E9EE;" d="M326,349.2h58.4c0.8,0,2-0.8,2-2v-24.8c0-0.8-0.8-2-2-2H326c-0.8,0-2,0.8-2,2v24.8   C324.4,348.4,325.2,349.2,326,349.2z"/>
	<path style="fill:#E6E9EE;" d="M182,391.2h-58.4c-0.8,0-2,0.8-2,2V418c0,0.8,0.8,2,2,2H182c0.8,0,2-0.8,2-2v-24.8   C183.6,392,182.8,391.2,182,391.2z"/>
	<path style="fill:#E6E9EE;" d="M249.6,391.2h-58.4c-0.8,0-2,0.8-2,2V418c0,0.8,0.8,2,2,2h58.4c0.8,0,2-0.8,2-2v-24.8   C251.2,392,250.4,391.2,249.6,391.2z"/>
	<path style="fill:#E6E9EE;" d="M316.8,391.2h-58.4c-0.8,0-2,0.8-2,2V418c0,0.8,0.8,2,2,2h58.4c0.8,0,2-0.8,2-2v-24.8   C318.8,392,318,391.2,316.8,391.2z"/>
	<path style="fill:#E6E9EE;" d="M384.4,391.2H326c-0.8,0-2,0.8-2,2V418c0,0.8,0.8,2,2,2h58.4c0.8,0,2-0.8,2-2v-24.8   C386.4,392,385.6,391.2,384.4,391.2z"/>
	<path style="fill:#E6E9EE;" d="M150,382.8V358c0-0.8-0.8-2-2-2H90c-0.8,0-2,0.8-2,2v24.8c0,0.8,0.8,2,2,2h58.4   C149.2,384.4,150,383.6,150,382.8z"/>
	<path style="fill:#E6E9EE;" d="M157.2,356c-0.8,0-2,0.8-2,2v24.8c0,0.8,0.8,2,2,2h58.4c0.8,0,2-0.8,2-2V358c0-0.8-0.8-2-2-2H157.2z   "/>
	<path style="fill:#E6E9EE;" d="M224.8,356c-0.8,0-2,0.8-2,2v24.8c0,0.8,0.8,2,2,2h58.4c0.8,0,2-0.8,2-2V358c0-0.8-0.8-2-2-2H224.8z   "/>
	<path style="fill:#E6E9EE;" d="M292.4,356c-0.8,0-2,0.8-2,2v24.8c0,0.8,0.8,2,2,2h58.4c0.8,0,2-0.8,2-2V358c0-0.8-0.8-2-2-2H292.4z   "/>
	<path style="fill:#E6E9EE;" d="M418,356h-58.4c-0.8,0-2,0.8-2,2v24.8c0,0.8,0.8,2,2,2H418c0.8,0,2-0.8,2-2V358   C420,356.8,419.2,356,418,356z"/>
</g>
<g>
</g>
<g>
</g>
<g>
</g>
<g>
</g>
<g>
</g>
<g>
</g>
<g>
</g>
<g>
</g>
<g>
</g>
<g>
</g>
<g>
</g>
<g>
</g>
<g>
</g>
<g>
</g>
<g>
</g>
</svg>
