<?xml version="1.0" encoding="iso-8859-1"?>
<!-- Generator: Adobe Illustrator 19.0.0, SVG Export Plug-In . SVG Version: 6.00 Build 0)  -->
<svg xmlns="http://www.w3.org/2000/svg" xmlns:xlink="http://www.w3.org/1999/xlink" version="1.1" id="Layer_1" x="0px" y="0px" viewBox="0 0 508 508" style="enable-background:new 0 0 508 508;" xml:space="preserve">
<circle style="fill:#90DFAA;" cx="254" cy="254" r="254"/>
<path style="fill:#2C9984;" d="M42.8,394.8C88.4,462.8,166,508,254,508s165.6-44.8,211.2-113.2H42.8z"/>
<path style="fill:#2B3B4E;" d="M330.4,346l-64-28.8l60.8-27.2c2-0.8,3.2-2.4,3.2-4.4c0-1.6-1.2-3.6-3.2-4.4l-60.4-26L302,240  c1.6-0.8,2.8-2,3.2-3.6c0.4-1.6-0.4-3.2-2-4.4l-40-27.6l38-26c2.4-1.6,2.8-4.8,0.8-6.8s-5.6-2.4-8.4-0.8L254,198.4l-39.6-27.2  c-2.4-1.6-6-1.6-8.4,0.8c-2,2-1.6,5.2,0.8,6.8l38,26l-40,27.6c-1.6,1.2-2.4,2.8-2,4.4c0.4,1.6,1.2,3.2,3.2,3.6l35.2,15.2l-60.4,26  c-2,0.8-3.2,2.4-3.2,4.4c0,1.6,1.2,3.6,3.2,4.4l60.8,27.6l-64,28.8c-2.8,1.2-4,4.4-2.4,6.4c1.2,1.6,3.2,2.4,5.2,2.4  c0.8,0,2,0,2.8-0.4l70.8-32l70.8,32c0.8,0.4,2,0.4,2.8,0.4c2,0,4-0.8,5.2-2.4C334.4,350.4,333.2,347.6,330.4,346z M219.2,234.8  l34.8-24l34.8,24L254,250L219.2,234.8z M196,285.6l58-24.8l58,24.8l-58,26L196,285.6z"/>
<rect x="121.6" y="326.4" style="fill:#FFFFFF;" width="264.8" height="45.2"/>
<circle style="fill:#2B3B4E;" cx="115.6" cy="348.8" r="45.6"/>
<circle style="fill:#E6E9EE;" cx="115.6" cy="348.8" r="27.6"/>
<circle style="fill:#2B3B4E;" cx="392.4" cy="348.8" r="45.6"/>
<circle style="fill:#E6E9EE;" cx="392.4" cy="348.8" r="27.6"/>
<rect x="164.4" y="77.2" style="fill:#FFFFFF;" width="179.2" height="90.4"/>
<path style="fill:#E6E9EE;" d="M343.6,182.4H164.4c-8.4,0-14.8-6.8-14.8-14.8l0,0c0-8.4,6.8-14.8,14.8-14.8h178.8  c8.4,0,14.8,6.8,14.8,14.8l0,0C358.4,176,351.6,182.4,343.6,182.4z"/>
<g>
</g>
<g>
</g>
<g>
</g>
<g>
</g>
<g>
</g>
<g>
</g>
<g>
</g>
<g>
</g>
<g>
</g>
<g>
</g>
<g>
</g>
<g>
</g>
<g>
</g>
<g>
</g>
<g>
</g>
</svg>
