<?xml version="1.0" encoding="iso-8859-1"?>
<!-- Generator: Adobe Illustrator 19.0.0, SVG Export Plug-In . SVG Version: 6.00 Build 0)  -->
<svg xmlns="http://www.w3.org/2000/svg" xmlns:xlink="http://www.w3.org/1999/xlink" version="1.1" id="Layer_1" x="0px" y="0px" viewBox="0 0 508 508" style="enable-background:new 0 0 508 508;" xml:space="preserve">
<circle style="fill:#FFD05B;" cx="254" cy="254" r="254"/>
<g>
	<path style="fill:#324A5E;" d="M84.4,121.2c2-2,8,1.2,14,7.2c0.4,0.4,0.8,0.8,1.2,1.2c0-0.4,0-1.2,0-1.6c0-8.4,2-15.2,4.8-15.2   s4.8,6.8,4.8,15.2c0,6.8-1.6,12.8-3.6,14.4l0,0c0,0,0,0-0.4,0.4c-1.6,2-7.6,3.6-14.8,3.6c-8.4,0-15.2-2-15.2-4.8s6.8-4.8,15.2-4.8   c0.8,0,2,0,2.8,0c-0.4-0.4-1.2-1.2-1.6-1.6C86,129.2,82.8,123.2,84.4,121.2z"/>
	
		<rect x="62.596" y="240.362" transform="matrix(-0.7071 -0.7071 0.7071 -0.7071 182.2304 568.2057)" style="fill:#324A5E;" width="292.397" height="12"/>
</g>
<g>
	<path style="fill:#FFFFFF;" d="M355.6,262.4L355.6,262.4c-0.4-0.4-0.8-0.8-1.2-1.2L195.2,102c-16.4-16.4-43.2-16.4-59.6,0l-44,44   c-1.6,1.6-2.4,3.6-2.4,5.6s0.8,4,2.4,5.6c3.2,3.2,8.4,3.2,11.6,0l44-44c10-10,26.4-10,36.4,0l159.2,159.2c10,10,10,26.4,0,36.4   l-41.2,42c-4.8,4.8-4.8,12.4,0,16.8l1.2,1.2l2,2l49.6-49.6c3.6-3.6,6.8-8,8.8-12.8l19.2-19.2L355.6,262.4z"/>
	<polygon style="fill:#FFFFFF;" points="304.8,370.8 302.8,368.8 321.2,350.4  "/>
</g>
<path style="fill:#324A5E;" d="M429.6,336l-47.2-46.8l-79.6,79.6l47.2,46.8c3.6,3.6,9.6,3.6,13.2,0l66.4-66.4  C433.2,345.6,433.2,340,429.6,336z M419.2,347.2l-58.4,58.4c-2,2-4.8,2-6.8,0l-22.8-22.8c-2-2-2-4.8,0-6.8l58.4-58.4  c2-2,4.8-2,6.8,0l22.8,22.8C421.2,342.4,421.2,345.2,419.2,347.2z"/>
<g>
</g>
<g>
</g>
<g>
</g>
<g>
</g>
<g>
</g>
<g>
</g>
<g>
</g>
<g>
</g>
<g>
</g>
<g>
</g>
<g>
</g>
<g>
</g>
<g>
</g>
<g>
</g>
<g>
</g>
</svg>
