<?xml version="1.0" encoding="iso-8859-1"?>
<!-- Generator: Adobe Illustrator 19.0.0, SVG Export Plug-In . SVG Version: 6.00 Build 0)  -->
<svg xmlns="http://www.w3.org/2000/svg" xmlns:xlink="http://www.w3.org/1999/xlink" version="1.1" id="Layer_1" x="0px" y="0px" viewBox="0 0 508 508" style="enable-background:new 0 0 508 508;" xml:space="preserve">
<circle style="fill:#FD8469;" cx="254" cy="254" r="254"/>
<circle style="fill:#E6E9EE;" cx="157.6" cy="279.6" r="98"/>
<circle style="fill:#CED5E0;" cx="157.6" cy="279.6" r="82.4"/>
<g>
	<circle style="fill:#2B3B4E;" cx="157.6" cy="279.6" r="25.2"/>
	<rect x="204.4" y="187.2" style="fill:#2B3B4E;" width="12.8" height="59.2"/>
	<rect x="195.2" y="101.6" style="fill:#2B3B4E;" width="31.6" height="85.2"/>
</g>
<g>
	<path style="fill:#324A5E;" d="M227.6,99.2H194c-3.2,0-6,2.8-6,6v2c0,3.2,2.8,6,6,6h34c3.2,0,6-2.8,6-6v-2   C233.6,102,231.2,99.2,227.6,99.2z"/>
	<path style="fill:#324A5E;" d="M227.6,180H194c-3.2,0-6,2.8-6,6v2c0,3.2,2.8,6,6,6h34c3.2,0,6-2.8,6-6v-2   C233.6,182.8,231.2,180,227.6,180z"/>
</g>
<path style="fill:#FFD05B;" d="M426,321.6H282.8c-18.8,0-36.8,6-52.8,16c-5.2,3.2-10.8,4.8-17.2,4.8c-13.2,0-24.4-8-29.6-19.2  L166,320c-18.4-3.6-32.4-19.2-33.6-37.6c-1.2-20.8,12.8-38.8,32.8-42.8l17.6-3.6c5.2-11.2,16.4-19.2,29.6-19.2  c6.4,0,12.4,2,17.2,4.8c16,10,34,16,52.8,16H426c12.4,0,22.4,10,22.4,22.4v39.2C448.4,311.6,438.4,321.6,426,321.6z"/>
<path style="fill:#324A5E;" d="M426,321.6h-54.8v-84H426c12.4,0,22.4,10,22.4,22.4v39.2C448.4,311.6,438.4,321.6,426,321.6z"/>
<path style="fill:#2C9984;" d="M210.8,342.4c-12.4-0.8-23.2-8.4-28-18.8l-17.6-3.6c-19.2-4-33.2-20.8-33.2-40.4s14-36.4,33.2-40.4  l17.6-3.6c4.8-10.8,15.6-18.4,28-18.8V342.4z"/>
<g>
	<path style="fill:#2B3B4E;" d="M428.4,298.4h-40c-2,0-3.6,1.6-3.6,3.6l0,0c0,2,1.6,3.6,3.6,3.6h40c2,0,3.6-1.6,3.6-3.6l0,0   C432,300,430.4,298.4,428.4,298.4z"/>
	<path style="fill:#2B3B4E;" d="M428.4,283.6h-40c-2,0-3.6,1.6-3.6,3.6l0,0c0,2,1.6,3.6,3.6,3.6h40c2,0,3.6-1.6,3.6-3.6l0,0   C432,285.2,430.4,283.6,428.4,283.6z"/>
	<path style="fill:#2B3B4E;" d="M428.4,268.8h-40c-2,0-3.6,1.6-3.6,3.6l0,0c0,2,1.6,3.6,3.6,3.6h40c2,0,3.6-1.6,3.6-3.6l0,0   C432,270.4,430.4,268.8,428.4,268.8z"/>
	<path style="fill:#2B3B4E;" d="M428.4,253.6h-40c-2,0-3.6,1.6-3.6,3.6l0,0c0,2,1.6,3.6,3.6,3.6h40c2,0,3.6-1.6,3.6-3.6l0,0   C432,255.2,430.4,253.6,428.4,253.6z"/>
</g>
<circle style="fill:#E6E9EE;" cx="157.6" cy="279.6" r="10.8"/>
<g>
</g>
<g>
</g>
<g>
</g>
<g>
</g>
<g>
</g>
<g>
</g>
<g>
</g>
<g>
</g>
<g>
</g>
<g>
</g>
<g>
</g>
<g>
</g>
<g>
</g>
<g>
</g>
<g>
</g>
</svg>
