<?xml version="1.0" encoding="iso-8859-1"?>
<!-- Generator: Adobe Illustrator 19.0.0, SVG Export Plug-In . SVG Version: 6.00 Build 0)  -->
<svg xmlns="http://www.w3.org/2000/svg" xmlns:xlink="http://www.w3.org/1999/xlink" version="1.1" id="Layer_1" x="0px" y="0px" viewBox="0 0 508 508" style="enable-background:new 0 0 508 508;" xml:space="preserve">
<circle style="fill:#FD8469;" cx="254" cy="254" r="254"/>
<path style="fill:#E6E9EE;" d="M254,446L254,446c-8.4,0-15.2-0.8-15.2-9.2V267.2h30.4v169.6C269.2,445.2,262.4,446,254,446z"/>
<polygon style="fill:#F9B54C;" points="217.2,204 226.4,324 281.6,324 290.8,204 "/>
<path style="fill:#324A5E;" d="M382.8,125.2H125.2c-5.2,0-9.2-4-9.2-9.2l0,0c0-5.2,4-9.2,9.2-9.2h257.2c5.2,0,9.2,4,9.2,9.2l0,0  C391.6,121.2,387.6,125.2,382.8,125.2z"/>
<path style="fill:#FFD05B;" d="M305.6,220.4l35.6-96.4c2.8-7.2,0.8-14.8-4.4-20.4l-36-36c-3.6-3.6-8.4-5.6-13.6-5.6h-66.8  c-5.2,0-10,2-13.6,5.6l-36,36c-5.2,5.2-7.2,13.2-4.4,20.4l35.6,96.4c2.8,7.6,10,12.4,18,12.4h67.2  C295.6,233.2,302.8,228,305.6,220.4z"/>
<g>
	<path style="fill:#FFFFFF;" d="M280,91.6h-52c-4,0-7.2-3.2-7.2-7.2l0,0c0-4,3.2-7.2,7.2-7.2h52c4,0,7.2,3.2,7.2,7.2l0,0   C287.2,88.4,284,91.6,280,91.6z"/>
	<path style="fill:#FFFFFF;" d="M301.2,412.8c-1.6-1.6-4.4-1.2-5.6,0.4l-9.2,10.4c-1.6,1.6-1.2,4.4,0.4,5.6c1.6,1.6,4.4,1.2,5.6-0.4   l9.2-10.4C302.8,416.4,302.8,414,301.2,412.8z"/>
	<path style="fill:#FFFFFF;" d="M318,438.8c-0.4-2-2.4-3.6-4.8-3.2l-13.6,2.4c-2,0.4-3.6,2.4-3.2,4.8c0.4,2,2.4,3.6,4.8,3.2   l13.6-2.4C317.2,443.2,318.4,441.2,318,438.8z"/>
	<path style="fill:#FFFFFF;" d="M206.8,412.8c1.6-1.6,4.4-1.2,5.6,0.4l9.2,10.4c1.6,1.6,1.2,4.4-0.4,5.6c-1.6,1.6-4.4,1.2-5.6-0.4   l-9.2-10.4C205.2,416.4,205.2,414,206.8,412.8z"/>
	<path style="fill:#FFFFFF;" d="M190,438.8c0.4-2,2.4-3.6,4.8-3.2l13.6,2.4c2,0.4,3.6,2.4,3.2,4.8c-0.4,2-2.4,3.6-4.8,3.2l-13.6-2.4   C190.8,443.2,189.6,441.2,190,438.8z"/>
</g>
<g>
</g>
<g>
</g>
<g>
</g>
<g>
</g>
<g>
</g>
<g>
</g>
<g>
</g>
<g>
</g>
<g>
</g>
<g>
</g>
<g>
</g>
<g>
</g>
<g>
</g>
<g>
</g>
<g>
</g>
</svg>
