<?xml version="1.0" encoding="iso-8859-1"?>
<!-- Generator: Adobe Illustrator 19.0.0, SVG Export Plug-In . SVG Version: 6.00 Build 0)  -->
<svg xmlns="http://www.w3.org/2000/svg" xmlns:xlink="http://www.w3.org/1999/xlink" version="1.1" id="Layer_1" x="0px" y="0px" viewBox="0 0 508 508" style="enable-background:new 0 0 508 508;" xml:space="preserve">
<circle style="fill:#84DBFF;" cx="254" cy="254" r="254"/>
<path style="fill:#54C0EB;" d="M4.8,304C28,420.4,130.8,508,254,508s226-87.6,249.2-204H4.8z"/>
<g>
	<path style="fill:#2B3B4E;" d="M366.8,328h-28.4c-2.8,0-4.8,1.6-4.4,3.6l1.6,20.8c0,2,2.8,4,5.2,4H370c2.8,0,4.8-1.6,4.4-4   l-2.8-20.8C372,329.6,369.6,328,366.8,328z"/>
	<path style="fill:#2B3B4E;" d="M169.2,328h-28.4c-2.8,0-5.2,1.6-5.2,3.6l-2.8,20.8c-0.4,2,1.6,4,4.4,4h29.2c2.8,0,5.2-1.6,5.2-4   l1.6-20.8C174,329.6,172,328,169.2,328z"/>
</g>
<path style="fill:#E6E9EE;" d="M360.4,104.4H147.6c-5.2,0-9.6,2.4-10,5.6l-34.8,216c-0.8,5.2,4,9.2,10.8,9.2h281.6  c6.8,0,11.6-4.4,10.8-9.2l-34.8-216C370,107.2,365.6,104.4,360.4,104.4z"/>
<g>
	<path style="fill:#324A5E;" d="M349.2,392.8h-24c-2.4,0-4,2-4,4l0.4,22.4c0,2.4,2,4,4.4,4h24c2.4,0,4-2,4-4l-0.8-22.4   C353.6,394.8,351.6,392.8,349.2,392.8z"/>
	<path style="fill:#324A5E;" d="M182.4,392.8h-24c-2.4,0-4,2-4.4,4l-0.8,22.4c0,2.4,1.6,4,4,4h24c2.4,0,4.4-2,4.4-4l0.4-22.4   C186.8,394.8,184.8,392.8,182.4,392.8z"/>
</g>
<path style="fill:#FFFFFF;" d="M360.4,104.4H147.6c-5.2,0-9.6,3.6-9.6,8.4l-12,278c-0.4,5.6,4,10,10,10h236c5.6,0,10-4.4,10-10  l-12-278C369.6,108.4,365.6,104.4,360.4,104.4z"/>
<g>
	<path style="fill:#FF7058;" d="M193.2,299.6c0.8,1.2,2.4,2,4,2s2.8-0.8,4-2c0.8-1.2,1.6-2.8,1.6-4.8v-14.4h6v14.8   c0,4-1.2,6.8-3.2,8.8s-4.8,3.2-8,3.2s-6-1.2-8-3.2s-3.2-4.8-3.2-8.8v-14.8h6v14.4C192,296.8,192.4,298.4,193.2,299.6z"/>
	<path style="fill:#FF7058;" d="M233.2,280h6v26.4h-6L220.4,290v16.4h-6V280h5.6l12.8,16.8V280H233.2z"/>
	<path style="fill:#FF7058;" d="M265.6,283.6c2.4,2.4,3.6,5.6,3.6,9.6s-1.2,7.2-3.6,9.6s-6,3.6-11.2,3.6h-8.8V280h9.2   C259.6,280,263.2,281.2,265.6,283.6z M261.2,299.2c1.6-1.2,2-3.2,2-6c0-2.4-0.8-4.4-2-6c-1.6-1.2-3.6-2-6.8-2h-3.2v16h3.6   C257.6,301.2,259.6,300.4,261.2,299.2z"/>
	<path style="fill:#FF7058;" d="M293.2,280v5.2H280v5.6h11.6v5.2H280v5.6h13.6v5.2h-19.2v-26.4h18.8V280z"/>
	<path style="fill:#FF7058;" d="M320.4,288.8c0,4.4-1.6,6.8-5.2,8l6.8,9.6h-7.2l-6-8.4h-4v8.4h-6V280h10c4,0,7.2,0.8,8.8,2   C319.6,283.6,320.4,285.6,320.4,288.8z M313.2,292c0.8-0.8,1.2-1.6,1.2-3.2s-0.4-2.4-1.2-2.8c-0.8-0.4-2-0.8-4-0.8h-4.4v7.6h4.4   C311.2,292.8,312.4,292.8,313.2,292z"/>
	<path style="fill:#FF7058;" d="M160,330.8c2,0,3.6-0.8,4.8-2.4l2.4,2.4c-2,2.4-4.4,3.2-7.2,3.2s-4.8-0.8-6.8-2.4   c-1.6-1.6-2.8-4-2.8-6.4s0.8-4.8,2.8-6.4s4-2.4,6.4-2.4c2.8,0,5.2,1.2,7.2,3.2l-2.4,2.8c-1.2-1.6-2.8-2.4-4.4-2.4   c-1.6,0-2.8,0.4-3.6,1.6c-1.2,0.8-1.6,2.4-1.6,4s0.4,2.8,1.6,4C157.2,330.4,158.4,330.8,160,330.8z"/>
	<path style="fill:#FF7058;" d="M184.4,332c-1.6,1.6-4,2.4-6.4,2.4s-4.8-0.8-6.4-2.4c-1.6-1.6-2.8-4-2.8-6.4s0.8-4.8,2.8-6.4   c1.6-1.6,4-2.4,6.4-2.4s4.8,0.8,6.4,2.4c1.6,1.6,2.8,4,2.8,6.4S186.4,330.4,184.4,332z M183.2,325.6c0-1.6-0.4-2.8-1.6-4   c-0.8-1.2-2.4-1.6-3.6-1.6c-1.6,0-2.8,0.4-3.6,1.6s-1.6,2.4-1.6,4s0.4,2.8,1.6,4c0.8,1.2,2.4,1.6,3.6,1.6c1.6,0,2.8-0.4,3.6-1.6   S183.2,327.2,183.2,325.6z"/>
	<path style="fill:#FF7058;" d="M202.8,316.8h4v17.6h-4l-8.4-10.8v10.8h-4v-17.6h3.6l8.4,11.2v-11.2H202.8z"/>
	<path style="fill:#FF7058;" d="M214.8,320.4c-0.4,0.4-0.4,0.8-0.4,1.2c0,0.4,0.4,0.8,0.8,1.2c0.4,0.4,1.6,0.8,3.2,1.2   c1.6,0.4,2.8,1.2,4,2c0.8,0.8,1.2,2,1.2,3.6s-0.4,2.8-1.6,4c-1.2,0.8-2.8,1.6-4.8,1.6c-2.8,0-5.2-1.2-7.6-3.2l2.4-2.8   c2,1.6,3.6,2.4,5.2,2.4c0.8,0,1.2,0,1.6-0.4c0.4-0.4,0.8-0.8,0.8-1.2c0-0.4-0.4-0.8-0.8-1.2c-0.4-0.4-1.2-0.8-2.4-0.8   c-2-0.4-3.6-1.2-4.4-2c-0.8-0.8-1.6-2-1.6-3.6s0.4-2.8,1.6-4c1.2-0.8,2.8-1.2,4.4-1.2c1.2,0,2.4,0.4,3.6,0.8c1.2,0.4,2,0.8,3.2,1.6   l-2,2.8c-1.6-1.2-3.2-1.6-4.8-1.6C216,320,215.2,320,214.8,320.4z"/>
	<path style="fill:#FF7058;" d="M234,320.4v14h-4v-14h-4.8v-3.2h13.6v3.2H234z"/>
	<path style="fill:#FF7058;" d="M256,322.8c0,2.8-1.2,4.8-3.2,5.6l4.4,6.4h-4.8l-4-5.6h-2.8v5.6h-4v-17.6h6.8c2.8,0,4.8,0.4,6,1.2   C255.6,319.2,256,320.8,256,322.8z M251.2,324.8c0.4-0.4,0.8-1.2,0.8-2s-0.4-1.6-0.8-2c-0.4-0.4-1.2-0.4-2.8-0.4h-2.8v5.2h2.8   C250,325.2,250.8,325.2,251.2,324.8z"/>
	<path style="fill:#FF7058;" d="M264.8,330c0.8,0.8,1.6,1.2,2.8,1.2c1.2,0,2-0.4,2.8-1.2c0.8-0.8,0.8-2,0.8-3.2v-9.6h4v9.6   c0,2.4-0.8,4.4-2,6c-1.2,1.2-3.2,2-5.2,2s-4-0.8-5.2-2c-1.6-1.2-2-3.2-2-6v-9.6h4v9.6C263.6,328,264,329.2,264.8,330z"/>
	<path style="fill:#FF7058;" d="M286.8,330.8c2,0,3.6-0.8,4.8-2.4l2.4,2.4c-2,2.4-4.4,3.2-7.2,3.2c-2.8,0-4.8-0.8-6.8-2.4   c-1.6-1.6-2.8-4-2.8-6.4s0.8-4.8,2.8-6.4c1.6-1.6,4-2.4,6.4-2.4c2.8,0,5.2,1.2,7.2,3.2l-2.4,2.8c-1.2-1.6-2.8-2.4-4.4-2.4   s-2.8,0.4-3.6,1.6c-1.2,0.8-1.6,2.4-1.6,4s0.4,2.8,1.6,4C284,330.4,285.2,330.8,286.8,330.8z"/>
	<path style="fill:#FF7058;" d="M304.4,320.4v14h-4v-14h-4.8v-3.2h13.6v3.2H304.4z"/>
	<path style="fill:#FF7058;" d="M312.4,316.8h4v17.6h-4V316.8z"/>
	<path style="fill:#FF7058;" d="M335.2,332c-1.6,1.6-4,2.4-6.4,2.4s-4.8-0.8-6.4-2.4s-2.8-4-2.8-6.4s0.8-4.8,2.8-6.4   c1.6-1.6,4-2.4,6.4-2.4s4.8,0.8,6.4,2.4s2.8,4,2.8,6.4S336.8,330.4,335.2,332z M333.6,325.6c0-1.6-0.4-2.8-1.6-4   c-0.8-1.2-2.4-1.6-3.6-1.6c-1.6,0-2.8,0.4-3.6,1.6c-0.8,1.2-1.6,2.4-1.6,4s0.4,2.8,1.6,4s2.4,1.6,3.6,1.6c1.6,0,2.8-0.4,3.6-1.6   S333.6,327.2,333.6,325.6z"/>
	<path style="fill:#FF7058;" d="M353.2,316.8h4v17.6h-4l-8.4-10.8v10.8h-4v-17.6h3.6l8.4,11.2v-11.2H353.2z"/>
</g>
<path style="fill:#FFD05B;" d="M322.4,228.8c0.4-2.4,0.4-4.4,0.4-6.8c0-38-30.8-68.8-68.8-68.8S185.2,184,185.2,222  c0,2.4,0,4.8,0.4,6.8H322.4z"/>
<path style="fill:#F9B54C;" d="M283.2,224.8h-58.4c-8.4-22-6-54,9.2-69.2c6.4-2,13.2-3.2,20-3.2c6.8,0,13.6,1.2,20,3.2  C289.2,170.8,291.6,203.2,283.2,224.8z"/>
<path style="fill:#FFD05B;" d="M286.4,224.8c-0.4-42.8-14.8-77.2-32.4-77.2s-32,34.4-32.4,77.2H286.4z"/>
<path style="fill:#F9B54C;" d="M324.4,239.2H183.6c-4.8,0-8.8-4-8.8-8.8l0,0c0-4.8,4-8.8,8.8-8.8h140.8c4.8,0,8.8,4,8.8,8.8l0,0  C333.2,235.2,329.2,239.2,324.4,239.2z"/>
<g>
</g>
<g>
</g>
<g>
</g>
<g>
</g>
<g>
</g>
<g>
</g>
<g>
</g>
<g>
</g>
<g>
</g>
<g>
</g>
<g>
</g>
<g>
</g>
<g>
</g>
<g>
</g>
<g>
</g>
</svg>
