<?xml version="1.0" encoding="iso-8859-1"?>
<!-- Generator: Adobe Illustrator 19.0.0, SVG Export Plug-In . SVG Version: 6.00 Build 0)  -->
<svg xmlns="http://www.w3.org/2000/svg" xmlns:xlink="http://www.w3.org/1999/xlink" version="1.1" id="Layer_1" x="0px" y="0px" viewBox="0 0 508 508" style="enable-background:new 0 0 508 508;" xml:space="preserve">
<circle style="fill:#324A5E;" cx="254" cy="254" r="254"/>
<g>
	<path style="fill:#E6E9EE;" d="M132.4,198.4l17.2,5.2l-2,6l-8.4-2.8l-1.2,4l8.4,2.8l-1.6,4.8l-8.4-2.8l-1.2,4l8.4,2.8l-1.6,4.8v0.4   l-8.4-2.8l-1.2,4l7.2,2.4c-2.4,2-5.6,2.8-8.8,2c-2.4-0.8-4-2.4-5.2-4.4s-1.2-4.4-0.8-6.8L132.4,198.4z"/>
	<path style="fill:#E6E9EE;" d="M88.8,162.4c0,0,8,42.4,37.6,49.6l12.8-47.2l-13.6,14.4L88.8,162.4z"/>
</g>
<path style="fill:#FFFFFF;" d="M104.8,121.6c0,0,25.6-45.2,71.6,6.4c5.2,6,9.2,12.8,11.2,20.4c4.4,15.2,16.4,45.6,43.6,67.2  L410,364.4c10.4,8.4,12,23.6,3.6,34l0,0c-8.8,11.2-25.2,12.4-35.6,2.8L195.6,236.4c-4-3.6-8.4-6.4-13.6-8.4  c-14-5.2-42.8-15.6-56.4-13.2c-1.6,0.4-3.2-1.2-2.8-3.2l20-62l-2-16.4L104.8,121.6z"/>
<path style="fill:#E6E9EE;" d="M390,357.2c-5.2,0.8-10.4,3.2-14.4,7.2c-5.2,5.2-7.6,12-7.6,18.8L220,249.6  c-5.6-4.8-5.6-13.6-0.4-18.8l0,0c4.8-4.8,12.4-5.2,17.6-0.8L390,357.2z"/>
<path style="fill:#324A5E;" d="M188,184.4l-8.8,23.6c-0.8,1.6-2.8,2.8-4.4,2l-26.4-10c-1.6-0.8-2.8-2.8-2-4.4l8.8-23.6  c0.8-1.6,2.8-2.8,4.4-2l26.4,10C187.6,180.4,188.8,182.4,188,184.4z"/>
<rect x="150.868" y="179.347" transform="matrix(-0.3565 0.9343 -0.9343 -0.3565 403.8227 101.7586)" style="fill:#ACB3BA;" width="32" height="21.2"/>
<g>
	<path style="fill:#E6E9EE;" d="M176.8,202.4L176.8,202.4c-0.4,1.2-1.6,1.6-2.8,1.2l-21.6-8c-1.2-0.4-1.6-1.6-1.2-2.8l0,0   c0.4-1.2,1.6-1.6,2.8-1.2l21.6,8C176.4,200,177.2,201.6,176.8,202.4z"/>
	<path style="fill:#E6E9EE;" d="M179.6,194.8L179.6,194.8c-0.4,1.2-1.6,1.6-2.8,1.2l-21.6-8c-1.2-0.4-1.6-1.6-1.2-2.8l0,0   c0.4-1.2,1.6-1.6,2.8-1.2l21.6,8C179.6,192.4,180,193.6,179.6,194.8z"/>
	<path style="fill:#E6E9EE;" d="M182.8,186.8L182.8,186.8c-0.4,1.2-1.6,1.6-2.8,1.2l-21.6-8c-1.2-0.4-1.6-1.6-1.2-2.8l0,0   c0.4-1.2,1.6-1.6,2.8-1.2l21.6,8C182.4,184.4,183.2,185.6,182.8,186.8z"/>
</g>
<circle style="fill:#324A5E;" cx="393.6" cy="382" r="18"/>
<g>
</g>
<g>
</g>
<g>
</g>
<g>
</g>
<g>
</g>
<g>
</g>
<g>
</g>
<g>
</g>
<g>
</g>
<g>
</g>
<g>
</g>
<g>
</g>
<g>
</g>
<g>
</g>
<g>
</g>
</svg>
