<?xml version="1.0" encoding="iso-8859-1"?>
<!-- Generator: Adobe Illustrator 19.0.0, SVG Export Plug-In . SVG Version: 6.00 Build 0)  -->
<svg xmlns="http://www.w3.org/2000/svg" xmlns:xlink="http://www.w3.org/1999/xlink" version="1.1" id="Layer_1" x="0px" y="0px" viewBox="0 0 508 508" style="enable-background:new 0 0 508 508;" xml:space="preserve">
<circle style="fill:#84DBFF;" cx="254" cy="254" r="254"/>
<path style="fill:#54C0EB;" d="M51.6,407.6C98,468.4,171.6,508,254,508s156-39.6,202.4-100.4H51.6z"/>
<rect x="283.6" y="362.4" style="fill:#324A5E;" width="81.6" height="12.4"/>
<g>
	<polygon style="fill:#E6E9EE;" points="310,408.4 206.8,178.4 195.2,186.4 295.2,408.4  "/>
	<polygon style="fill:#E6E9EE;" points="391.6,408.4 288.4,178.4 276.8,186.4 376.8,408.4  "/>
</g>
<g>
	<rect x="208.4" y="153.6" style="fill:#324A5E;" width="81.6" height="12.4"/>
	<rect x="190.8" y="205.6" style="fill:#324A5E;" width="81.6" height="12.4"/>
	<rect x="172.8" y="258" style="fill:#324A5E;" width="81.6" height="12.4"/>
	<rect x="155.2" y="310" style="fill:#324A5E;" width="81.6" height="12.4"/>
	<rect x="137.2" y="362.4" style="fill:#324A5E;" width="81.6" height="12.4"/>
</g>
<path style="fill:#FFFFFF;" d="M130.4,408.4l100-293.2H298L198,408.4h14l102-297.6c0.8-2.4,0.8-5.2-0.4-7.6  c-1.2-2.4-3.2-3.6-5.6-3.6h-81.6c-2.8,0-4.8,2-6,4.8l-104,304L130.4,408.4L130.4,408.4z"/>
<g>
</g>
<g>
</g>
<g>
</g>
<g>
</g>
<g>
</g>
<g>
</g>
<g>
</g>
<g>
</g>
<g>
</g>
<g>
</g>
<g>
</g>
<g>
</g>
<g>
</g>
<g>
</g>
<g>
</g>
</svg>
