<?xml version="1.0" encoding="iso-8859-1"?>
<!-- Generator: Adobe Illustrator 19.0.0, SVG Export Plug-In . SVG Version: 6.00 Build 0)  -->
<svg xmlns="http://www.w3.org/2000/svg" xmlns:xlink="http://www.w3.org/1999/xlink" version="1.1" id="Layer_1" x="0px" y="0px" viewBox="0 0 508 508" style="enable-background:new 0 0 508 508;" xml:space="preserve">
<circle style="fill:#90DFAA;" cx="254" cy="254" r="254"/>
<path style="fill:#324A5E;" d="M228.4,78v352c0,8,6.4,14.4,14,14.4h23.2c7.6,0,14-6.4,14-14.4V78c0-8-6.4-14.4-14-14.4h-23.2  C234.8,63.6,228.4,70,228.4,78z"/>
<path style="fill:#CED5E0;" d="M352.4,200H155.6c-4.4,0-8-3.6-8-8V88.8c0-4.4,3.6-8,8-8h197.2c4.4,0,8,3.6,8,8v103.6  C360.8,196.4,356.8,200,352.4,200z"/>
<path style="fill:#E6E9EE;" d="M360.4,95.2v90.4c0,8-6.4,14.8-14.8,14.8H162c-8,0-14.8-6.4-14.8-14.8V95.2c0-8,6.4-14.8,14.8-14.8  h184C354,80.8,360.4,87.2,360.4,95.2z"/>
<path style="fill:#FFFFFF;" d="M360.4,96v88.4c-31.6,4-68,6-106.4,6c-38.8,0-74.8-2-106.8-6V96c31.6-4,68-6,106.8-6  C292.4,90,328.8,92.4,360.4,96z"/>
<g>
</g>
<g>
</g>
<g>
</g>
<g>
</g>
<g>
</g>
<g>
</g>
<g>
</g>
<g>
</g>
<g>
</g>
<g>
</g>
<g>
</g>
<g>
</g>
<g>
</g>
<g>
</g>
<g>
</g>
</svg>
