<?xml version="1.0" encoding="iso-8859-1"?>
<!-- Generator: Adobe Illustrator 19.0.0, SVG Export Plug-In . SVG Version: 6.00 Build 0)  -->
<svg xmlns="http://www.w3.org/2000/svg" xmlns:xlink="http://www.w3.org/1999/xlink" version="1.1" id="Layer_1" x="0px" y="0px" viewBox="0 0 508 508" style="enable-background:new 0 0 508 508;" xml:space="preserve">
<circle style="fill:#84DBFF;" cx="254" cy="254" r="254"/>
<path style="fill:#FFFFFF;" d="M247.6,142.8c-0.8,0.4-1.6,0.8-2.4,1.2l-48.8,41.2c-2,1.6-3.2,3.6-3.6,6v0.8l-37.6,230.4  c-0.8,4,2,8,6,8.8s8.4-1.6,9.2-6L217.6,200l30-35.2L247.6,142.8L247.6,142.8z"/>
<path style="fill:#E6E9EE;" d="M352.8,422.4L315.2,192v-0.8c-0.4-2.4-1.6-4.4-3.6-6l-48.4-40.8V168l27.2,31.6l47.2,225.2  c0.8,4,4.8,6.8,8.8,6C350.8,430.4,353.6,426.4,352.8,422.4z"/>
<path style="fill:#FFFFFF;" d="M274.4,79.6L274.4,79.6c0,0.8,0.4,2,1.2,2.4c10,7.6,16.4,20.8,16.4,36c0,21.6-13.6,39.6-31.2,42.4  c2,0.4,4,0.4,5.6,0.4c27.2,0,49.2-19.2,49.2-42.4c0-20-16-36.8-37.2-41.2C276.4,76.4,274.4,78,274.4,79.6z"/>
<path style="fill:#E6E9EE;" d="M236.4,79.6L236.4,79.6c0,0.8-0.4,2-1.2,2.4c-10,7.6-16.4,20.8-16.4,36c0,21.6,13.6,39.6,31.2,42.4  c-2,0.4-4,0.4-5.6,0.4c-27.2,0-49.2-19.2-49.2-42.4c0-20,16-36.8,37.2-41.2C234.4,76.4,236.4,78,236.4,79.6z"/>
<circle style="fill:#FFFFFF;" cx="255.6" cy="160.4" r="27.6"/>
<circle style="fill:#E6E9EE;" cx="255.6" cy="160.4" r="13.6"/>
<g>
</g>
<g>
</g>
<g>
</g>
<g>
</g>
<g>
</g>
<g>
</g>
<g>
</g>
<g>
</g>
<g>
</g>
<g>
</g>
<g>
</g>
<g>
</g>
<g>
</g>
<g>
</g>
<g>
</g>
</svg>
