<?xml version="1.0" encoding="iso-8859-1"?>
<!-- Generator: Adobe Illustrator 19.0.0, SVG Export Plug-In . SVG Version: 6.00 Build 0)  -->
<svg xmlns="http://www.w3.org/2000/svg" xmlns:xlink="http://www.w3.org/1999/xlink" version="1.1" id="Layer_1" x="0px" y="0px" viewBox="0 0 508 508" style="enable-background:new 0 0 508 508;" xml:space="preserve">
<circle style="fill:#324A5E;" cx="254" cy="254" r="254"/>
<path style="fill:#2B3B4E;" d="M10.4,325.6C41.2,431.2,138.8,508,254,508c115.6,0,212.8-77.2,243.6-182.4H10.4z"/>
<path style="fill:#E6E9EE;" d="M294,270c-1.2,0-2-0.4-2.8-1.2L237.6,220c-1.6-1.6-2-4-0.4-6c1.6-1.6,4-2,6-0.4l53.6,48.8  c1.6,1.6,2,4,0.4,6C296.4,269.2,295.2,270,294,270z"/>
<path style="fill:#FFD05B;" d="M288.4,243.6l2-2c3.2-3.2,8.4-2.8,11.2,0.4l24,25.2l-18,6.8l-19.2-18.8  C285.2,252.4,285.2,246.8,288.4,243.6z"/>
<path style="fill:#F9B54C;" d="M461.2,325.6H46.8v-50c0-8.8,7.2-15.6,15.6-15.6h382.8c8.8,0,15.6,7.2,15.6,15.6v50H461.2z"/>
<path style="fill:#FFD05B;" d="M206.8,210.4c2-18-16-14.4-16-14.4c-13.2-22-48-16.8-49.2-16.8c0,0,14.8,5.6,4.4,18.4  c-8.8,10.8-18.8,24-22.8,36.8c-3.6,10.8-13.6,18.4-25.2,18.4h-0.4c-19.6,0-19.2,6.8-19.2,6.8H88h153.6v-6.8  C204.8,242.8,206.8,210.4,206.8,210.4z M184.4,219.6l-23.6,30.8c-4.4,6-12.4,7.2-17.6,2.8c-5.2-4.4-6-12.4-1.2-18.4l23.6-30.8  c4.4-6,12.4-7.2,17.6-2.8C188.4,205.6,188.8,213.6,184.4,219.6z"/>
<g>
</g>
<g>
</g>
<g>
</g>
<g>
</g>
<g>
</g>
<g>
</g>
<g>
</g>
<g>
</g>
<g>
</g>
<g>
</g>
<g>
</g>
<g>
</g>
<g>
</g>
<g>
</g>
<g>
</g>
</svg>
