<?xml version="1.0" encoding="iso-8859-1"?>
<!-- Generator: Adobe Illustrator 19.0.0, SVG Export Plug-In . SVG Version: 6.00 Build 0)  -->
<svg xmlns="http://www.w3.org/2000/svg" xmlns:xlink="http://www.w3.org/1999/xlink" version="1.1" id="Layer_1" x="0px" y="0px" viewBox="0 0 508 508" style="enable-background:new 0 0 508 508;" xml:space="preserve">
<circle style="fill:#90DFAA;" cx="254" cy="254" r="254"/>
<path style="fill:#2B3B4E;" d="M243.2,350.4c-3.2,0-5.6-2.4-5.6-5.6v-68.4c0-24.8,20.4-45.2,45.2-45.2h92.4c18.8,0,34-15.2,34-34  s-15.2-34-34-34h-7.6c-3.2,0-5.6-2.4-5.6-5.6s2.4-5.6,5.6-5.6h7.6c24.8,0,45.2,20.4,45.2,45.2s-20.4,45.2-45.2,45.2h-92.8  c-18.8,0-34,15.2-34,34v68.4C248.8,348,246,350.4,243.2,350.4z"/>
<g>
	<path style="fill:#FFFFFF;" d="M369.2,196.8h-252c-8.4,0-15.2-6.8-15.2-15.2V134c0-8.4,6.8-15.2,15.2-15.2h252   c8.4,0,15.2,6.8,15.2,15.2v47.6C384,190,377.2,196.8,369.2,196.8z"/>
	<path style="fill:#FFFFFF;" d="M257.2,445.6h-28.8c-5.6,0-10-4.4-10-10v-138c0-5.6,4.4-10,10-10h28.8c5.6,0,10,4.4,10,10v137.6   C267.6,440.8,262.8,445.6,257.2,445.6z"/>
</g>
<rect x="218.4" y="314" style="fill:#324A5E;" width="48.8" height="104"/>
<g>
	<rect x="218.4" y="327.2" style="fill:#2B3B4E;" width="48.8" height="7.6"/>
	<rect x="218.4" y="340" style="fill:#2B3B4E;" width="48.8" height="7.6"/>
	<rect x="218.4" y="385.6" style="fill:#2B3B4E;" width="48.8" height="7.6"/>
	<rect x="218.4" y="398.4" style="fill:#2B3B4E;" width="48.8" height="7.6"/>
</g>
<g>
	<polygon style="fill:#FF7058;" points="326,196.8 303.2,196.8 323.2,119.2 346,119.2  "/>
	<polygon style="fill:#FF7058;" points="271.6,196.8 248.8,196.8 268.8,119.2 291.6,119.2  "/>
	<polygon style="fill:#FF7058;" points="217.2,196.8 194.4,196.8 214.4,119.2 237.2,119.2  "/>
	<polygon style="fill:#FF7058;" points="162.8,196.8 140,196.8 160,119.2 182.8,119.2  "/>
</g>
<g>
</g>
<g>
</g>
<g>
</g>
<g>
</g>
<g>
</g>
<g>
</g>
<g>
</g>
<g>
</g>
<g>
</g>
<g>
</g>
<g>
</g>
<g>
</g>
<g>
</g>
<g>
</g>
<g>
</g>
</svg>
