<?xml version="1.0" encoding="iso-8859-1"?>
<!-- Generator: Adobe Illustrator 19.0.0, SVG Export Plug-In . SVG Version: 6.00 Build 0)  -->
<svg xmlns="http://www.w3.org/2000/svg" xmlns:xlink="http://www.w3.org/1999/xlink" version="1.1" id="Layer_1" x="0px" y="0px" viewBox="0 0 508 508" style="enable-background:new 0 0 508 508;" xml:space="preserve">
<circle style="fill:#FFD05B;" cx="254" cy="254" r="254"/>
<polygon style="fill:#E6E9EE;" points="391.2,208.8 440.8,186.4 357.2,99.2 307.6,121.2 "/>
<g>
	<path style="fill:#324A5E;" d="M256.8,144.4l101.6-45.6c3.2-1.6,4.8-5.2,3.2-8.4l0,0c-1.6-3.2-5.2-4.8-8.4-3.2l-101.6,45.6   c-3.2,1.6-4.8,5.2-3.2,8.4l0,0C250,144.4,253.6,145.6,256.8,144.4z"/>
	<path style="fill:#324A5E;" d="M346.4,242.8L448,197.2c3.2-1.6,4.8-5.2,3.2-8.4l0,0c-1.6-3.2-5.2-4.8-8.4-3.2l-101.6,45.6   c-3.2,1.6-4.8,5.2-3.2,8.4l0,0C339.6,242.8,343.2,244,346.4,242.8z"/>
</g>
<path style="fill:#E6E9EE;" d="M350,284.8l13.6-11.6L350,272l12.4-13.2l-13.6,0.4l10.8-14.4l-13.6,2.4l9.6-15.2l-13.2,3.2l8-16  l-12.8,4.4l6.4-16.8l-12.4,5.6l4.8-17.2l-12,6.8l2.8-17.6l-11.2,8l1.2-18l-10.4,8.8l-0.4-18l-9.2,10l-2.4-17.6l-8.4,10.8l-4-17.6  l-7.2,11.6l-5.2-17.2l-6,12.4l-7.2-16.4l-5.2,12.8l-8.8-15.6l-3.6,13.2l-10.4-14.8l-2,13.6l-12-13.6l-0.8,13.6L200.8,138l0.4,13.6  l-14.4-10.8l2,13.6l-14.8-9.6l3.2,13.2l-16-8l4.4,12.8l-16.8-6.4l5.6,12.4l-17.2-4.8l6.8,11.6l-18-2.4l8,11.2l-18-1.2l9.2,10.4  l-18,0.4l10,9.2l-17.6,2.4l10.8,8.4l-17.6,4l11.6,7.2l-17.2,5.6l12.4,6L83.2,244l12.8,4.8l-15.6,8.8l13.2,3.6l-14.4,10.4l13.6,2  l-13.6,11.6l13.6,0.8l-12.4,13.2l13.6-0.4l-10.8,14.4l13.6-2l-9.6,15.2l13.2-3.2l-8,16l12.8-4.4l-6.4,16.8l12.4-5.6l-4.8,17.2  l11.6-6.8l-2.8,17.6l11.2-8l-1.2,18l10.4-8.8l0.4,18l9.2-10l2.4,17.6L156,390l4,17.6l7.2-11.6l5.6,16.8l6-12.4l7.2,16.4l4.8-12.8  l8.8,15.6l3.6-13.2l10.4,14.8l2-13.6l11.6,13.6l0.8-13.6l13.2,12.4l-0.4-13.6l14.4,10.8l-2-13.6l15.2,9.6l-3.2-13.2l16,8l-4.4-12.8  L294,402l-5.6-12.4l17.2,4.8l-6.8-11.6l17.6,2.8l-8-11.2l18,1.2l-8.8-10.4l18-0.4l-10-9.2l18-2.4l-10.8-8.4l17.6-4l-12.4-7.2  l17.2-5.6l-12.4-6l16.4-7.2l-12.8-4.8l15.6-8.8l-13.2-3.6l14.8-10.4L350,284.8z M221.2,305.6c-14.4,0-26.4-11.6-26.4-26.4  c0-14.4,11.6-26.4,26.4-26.4s26.4,11.6,26.4,26.4C247.6,293.6,235.6,305.6,221.2,305.6z"/>
<path style="fill:#FFFFFF;" d="M342.4,279.2c0,66.8-54.4,121.2-121.2,121.2S100,346,100,279.2S154.4,158,221.2,158  C288.4,158,342.4,212.4,342.4,279.2z"/>
<polygon style="fill:#2B3B4E;" points="386.4,293.2 56,293.2 67.6,276 374.8,276 "/>
<path style="fill:#324A5E;" d="M374.8,276c-1.6-83.2-69.6-150.4-153.6-150.4c-83.6,0-152,67.2-153.6,150.4H374.8z"/>
<circle style="fill:#E6E9EE;" cx="221.2" cy="279.2" r="38.4"/>
<circle style="fill:#5D5D5D;" cx="221.2" cy="279.2" r="23.6"/>
<g>
</g>
<g>
</g>
<g>
</g>
<g>
</g>
<g>
</g>
<g>
</g>
<g>
</g>
<g>
</g>
<g>
</g>
<g>
</g>
<g>
</g>
<g>
</g>
<g>
</g>
<g>
</g>
<g>
</g>
</svg>
