<?xml version="1.0" encoding="iso-8859-1"?>
<!-- Generator: Adobe Illustrator 19.0.0, SVG Export Plug-In . SVG Version: 6.00 Build 0)  -->
<svg xmlns="http://www.w3.org/2000/svg" xmlns:xlink="http://www.w3.org/1999/xlink" version="1.1" id="Layer_1" x="0px" y="0px" viewBox="0 0 508.4 508.4" style="enable-background:new 0 0 508.4 508.4;" xml:space="preserve">
<path style="fill:#FF7058;" d="M508.2,254c0,140.4-113.6,254-254,254S0.2,394.4,0.2,254S113.8,0,254.2,0C365,0,459,70.8,493.8,169.6  c7.6,21.2,12,43.6,13.6,66.8C507.8,242.4,508.2,248,508.2,254z"/>
<ellipse style="fill:#F9B54C;" cx="254.2" cy="222.4" rx="32.4" ry="55.2"/>
<polygon style="fill:#E6E9EE;" points="285.4,212.8 299,289.6 285.4,352 255.8,418 213,337.2 209,250 218.2,222 223,212.8   231.8,235.6 242.6,249.2 253.8,258.4 269.4,247.2 282.6,225.6 "/>
<polygon style="fill:#4CDBC4;" points="248.2,266 223.8,388.4 254.2,422 284.6,388.4 260.2,266 "/>
<polygon style="fill:#2C9984;" points="247.8,247.2 242.6,261.2 247.8,266 260.6,266 265.8,261.2 260.6,247.2 "/>
<path style="fill:#2B3B4E;" d="M263.8,474.8c0,2.8-0.4,5.6-0.8,8.4c-0.8,8.4-2,16.8-3.6,24.8c-1.6,0-3.6,0-5.2,0c-2,0-3.6,0-5.2,0  c-26.4-0.4-51.6-5.2-75.2-13.2c4.8-39.6,1.6-77.6-4.8-110.8c-12.4-64.8-36.8-112-41.6-121.2l-1.2-1.2c66.8-22,92-44.4,96-48l0,0  c0,0,0,0,0.4-0.4l0,0l0,0c-0.4,4-0.8,7.6-0.8,11.6l0,0l0,0c-3.6,52.4,2,91.2,10,122.4c6.8,26,15.6,46.8,22.4,65.6  c0.8,1.6,1.2,3.6,2,5.2c0,0.8,0.4,1.2,0.8,2c0,0.4,0.4,0.8,0.4,0.8c0.4,1.2,0.8,2.8,1.2,4c0.8,2,1.2,4,2,6c0.8,3.2,1.6,6.4,2,9.6  c0.8,4.8,1.2,9.6,1.6,14.8C264.2,461.6,264.2,468,263.8,474.8z"/>
<g>
	<path style="fill:#324A5E;" d="M174.2,272.4c0,0,25.6,122.4,84.4,152c-14-44.8-46-97.2-35.6-211.6l0,0c-2,2-21.6,24.8-37.6,30.8   c0,0,15.6,18,18.8,19.2C203.8,262.8,183.8,276.8,174.2,272.4z"/>
	<path style="fill:#324A5E;" d="M382.2,261.6l-0.8,1.6c-4.8,9.2-29.2,56.4-41.6,121.2c-6.4,33.2-9.2,71.2-4.8,110.8   c-23.6,8-49.2,12.4-75.2,13.2c-1.6,0-3.6,0-5.2,0c-2,0-3.6,0-5.2,0c-4.4-24.8-7.2-54.8-0.8-77.6c0.4-2,1.2-4,2-6   c0.4-1.2,0.8-2.8,1.2-4c0-0.4,0.4-0.8,0.4-1.2c0.4-1.6,1.2-3.6,2-5.6c0-0.4,0.4-1.2,0.4-1.6c6.8-18.8,15.2-39.2,22.4-65.6   c8-31.2,13.6-69.6,10-122l0,0l0,0c-0.4-3.6-0.4-7.6-0.8-11.6l0,0c0,0,0,0,0.4,0.4l0,0C289.8,216.8,315,239.6,382.2,261.6z"/>
</g>
<g>
	<path style="fill:#2B3B4E;" d="M334.2,272.4c0,0-25.6,122.4-84.4,152c14-44.8,46-97.2,35.6-211.6l0,0c2,2,21.6,24.8,37.6,30.8   c0,0-15.6,18-18.8,19.2C304.6,262.8,324.6,276.8,334.2,272.4z"/>
	<path style="fill:#2B3B4E;" d="M396.6,464.4c-15.2,10.4-31.6,19.2-49.2,26c-2-33.2-5.2-76-7.6-106.4c12-64.8,36.8-112,41.6-121.2   l0.8-1.6C375.4,317.6,389.8,395.2,396.6,464.4z"/>
</g>
<path style="fill:#324A5E;" d="M168.6,384c-2.8,30.4-5.6,72.8-7.6,106.4c-17.6-6.8-34-15.6-49.2-26c6.8-69.2,21.2-146.8,14.8-202.8  l0.8,1.6C132.2,272,156.6,319.6,168.6,384z"/>
<g>
	<path style="fill:#FFFFFF;" d="M285.4,212.8c0,0-10.4,17.6-31.2,34.8c0,0,18,18.4,17.6,30C271.8,277.6,291,240.8,285.4,212.8z"/>
	<path style="fill:#FFFFFF;" d="M223,212.8c0,0,10.4,17.6,31.2,34.8c0,0-18,18.4-17.6,30C236.6,277.6,217.4,240.8,223,212.8z"/>
</g>
<g>
	<circle style="fill:#54C0EB;" cx="266.6" cy="447.2" r="8.4"/>
	<circle style="fill:#54C0EB;" cx="270.2" cy="479.6" r="8.4"/>
</g>
<path style="fill:#FFFFFF;" d="M311.8,143.2c-2-0.8-4-0.8-6,0.8c-3.6-29.2-25.6-52-51.6-52c-26.4,0-48,22.4-51.6,52  c-2-1.6-4-1.6-6-0.8c-3.6,1.6-5.6,5.2-2,13.6c2.4,5.6,6.4,11.6,10,14.8c6.8,24.4,26.4,42,49.6,42s42.8-17.6,49.6-42  c3.6-2.8,7.6-9.2,10-14.8C317.4,148.8,315.4,144.8,311.8,143.2z"/>
<g>
	<path style="fill:#FFD05B;" d="M335,140.8c0,4.8-36,8.8-80.8,8.8s-80.8-4-80.8-8.8c0-1.6,3.6-3.2,10-4.4c0-0.8,0-1.6,0-2.4   c0-23.6,11.6-44.8,29.6-57.6c5.6-4,11.6-6.8,18-9.2c7.2-2.4,15.2-4,23.2-4c8,0,16,1.2,23.2,4c6.4,2.4,12.4,5.2,18,9.2   c18,12.8,29.6,34,29.6,57.6c0,0.8,0,1.6,0,2.4C331.4,137.6,335,139.2,335,140.8z"/>
	<path style="fill:#FFD05B;" d="M325,134c0,0.8,0,1.2,0,2c0,0.4,0,0.8,0,1.6H183.4c0-0.4,0-0.8,0-1.6s0-1.2,0-2c0-1.2,0-2.4,0-3.6   c2-37.2,32.8-66.8,70.8-66.8S323,93.2,325,130.4C325,131.6,325,132.8,325,134z"/>
</g>
<g>
	<path style="fill:#F9B54C;" d="M295.4,76.4l-21.2,47.2l3.6-56.4C283.8,69.6,289.8,72.8,295.4,76.4z"/>
	<path style="fill:#F9B54C;" d="M234.6,124l-21.2-47.2c5.6-4,11.6-6.8,18-9.2L234.6,124z"/>
</g>
<path style="fill:#FFD05B;" d="M273.8,124h-39.2l-8.8-54.8c-1.2-7.6,4.8-14.8,12.8-14.8h31.2c8,0,14,7.2,12.8,14.8L273.8,124z"/>
<g>
	<path style="fill:#F9B54C;" d="M252.2,140.8c-24,0-45.2-1.2-59.6-3.2c-3.2-0.4-6.4-0.8-8.8-1.6c0-0.8,0-1.2,0-2c0-1.2,0-2.4,0-3.6   c6.4,2.8,16,5.6,27.2,7.2C223,139.6,237,140.8,252.2,140.8z"/>
	<path style="fill:#F9B54C;" d="M325,134c0,0.8,0,1.2,0,2c-2.4,0.4-5.6,0.8-8.8,1.6c-14.4,2-35.6,3.2-59.6,3.2   c15.2,0,29.2-1.2,41.2-3.2c11.2-1.6,20.8-4.4,27.2-7.2C325,131.6,325,132.8,325,134z"/>
</g>
<g>
</g>
<g>
</g>
<g>
</g>
<g>
</g>
<g>
</g>
<g>
</g>
<g>
</g>
<g>
</g>
<g>
</g>
<g>
</g>
<g>
</g>
<g>
</g>
<g>
</g>
<g>
</g>
<g>
</g>
</svg>
