<?xml version="1.0" encoding="iso-8859-1"?>
<!-- Generator: Adobe Illustrator 19.0.0, SVG Export Plug-In . SVG Version: 6.00 Build 0)  -->
<svg xmlns="http://www.w3.org/2000/svg" xmlns:xlink="http://www.w3.org/1999/xlink" version="1.1" id="Layer_1" x="0px" y="0px" viewBox="0 0 508 508" style="enable-background:new 0 0 508 508;" xml:space="preserve">
<circle style="fill:#FD8469;" cx="254" cy="254" r="254"/>
<rect x="227.956" y="195.295" transform="matrix(-0.8579 0.5138 -0.5138 -0.8579 559.9838 332.9265)" style="fill:#324A5E;" width="12" height="97.199"/>
<path style="fill:#F1543F;" d="M27.6,368.8C69.6,451.6,155.2,508,254,508s184.8-56.8,226.4-139.2H27.6z"/>
<path style="fill:#2B3B4E;" d="M55.6,282.8v17.6c0,1.6,1.2,2.8,2.8,2.8H328v-22.8H58.4C56.8,280.4,55.6,281.6,55.6,282.8z"/>
<path style="fill:#FFFFFF;" d="M438.8,338h-102c-4.8,0-8.8-4-8.8-8.8v-142c0-4.8,4-8.8,8.8-8.8h92.8c4.4,0,8.4,3.2,8.8,7.6l9.6,70  c0,0.4,0,0.8,0,1.2v72C448,334,444,338,438.8,338z"/>
<path style="fill:#54C0EB;" d="M372,244h66l-7.6-56.8c0-0.4-0.4-0.8-1.2-0.8H372V244z"/>
<polygon style="fill:#84DBFF;" points="421.2,186 372,186 372,244 385.6,244 "/>
<path style="fill:#54C0EB;" d="M366,186h-29.2c-0.8,0-1.2,0.4-1.2,1.2V244H366V186z"/>
<path style="fill:#84DBFF;" d="M360.8,186h-24c-0.8,0-1.2,0.4-1.2,1.2V244h5.6L360.8,186z"/>
<circle style="fill:#324A5E;" cx="109.6" cy="325.6" r="40"/>
<circle style="fill:#ACB3BA;" cx="109.6" cy="325.6" r="22.8"/>
<circle style="fill:#324A5E;" cx="194" cy="325.6" r="40"/>
<circle style="fill:#ACB3BA;" cx="194" cy="325.6" r="22.8"/>
<circle style="fill:#324A5E;" cx="364" cy="325.6" r="40"/>
<circle style="fill:#ACB3BA;" cx="364" cy="325.6" r="22.8"/>
<rect x="427.2" y="302.8" style="fill:#324A5E;" width="32.8" height="35.2"/>
<path style="fill:#FFD05B;" d="M311.6,75.2L283.2,84c-5.6,1.6-8.8,7.6-6.8,13.2l20,63.2c0.8,2.8,0.4,6-0.8,8.4l-15.2,26.8  c-1.2,2.4-3.6,4-6,4.8L58,268.8c-5.6,1.6-11.6-1.2-13.2-6.8l-7.2-22c-0.8-2.8-0.4-5.6,0.8-8L52,206c1.2-2,2.8-4,5.2-4.8L206.4,136  c2-0.8,3.2-2,4.4-3.6l40-57.6c1.2-2,3.2-3.2,5.6-4l48.8-15.6c5.6-1.6,11.6,1.2,13.2,6.8l0,0C320.4,67.2,317.2,73.2,311.6,75.2z"/>
<g>
	<polygon style="fill:#F9B54C;" points="106.8,179.2 128.4,246.8 136.4,244 114.8,175.6  "/>
	<polygon style="fill:#F9B54C;" points="186,144.4 210.4,220.8 219.2,218 194.8,140.8  "/>
	<path style="fill:#F9B54C;" d="M258.8,69.6l-2.4,0.8c-2.4,0.8-4,2-5.6,4l-0.8,0.8l35.2,111.6l6.8-11.6L258.8,69.6z"/>
	<polygon style="fill:#F9B54C;" points="63.6,198 83.6,260.8 91.6,258.4 71.2,194.4  "/>
	<polygon style="fill:#F9B54C;" points="145.6,162.4 168,234 176.8,231.2 153.6,158.8  "/>
	<polygon style="fill:#F9B54C;" points="228,107.2 222,116 251.2,208 259.2,205.2  "/>
</g>
<g>
</g>
<g>
</g>
<g>
</g>
<g>
</g>
<g>
</g>
<g>
</g>
<g>
</g>
<g>
</g>
<g>
</g>
<g>
</g>
<g>
</g>
<g>
</g>
<g>
</g>
<g>
</g>
<g>
</g>
</svg>
