<?xml version="1.0" encoding="iso-8859-1"?>
<!-- Generator: Adobe Illustrator 19.0.0, SVG Export Plug-In . SVG Version: 6.00 Build 0)  -->
<svg xmlns="http://www.w3.org/2000/svg" xmlns:xlink="http://www.w3.org/1999/xlink" version="1.1" id="Layer_1" x="0px" y="0px" viewBox="0 0 508 508" style="enable-background:new 0 0 508 508;" xml:space="preserve">
<circle style="fill:#FFD05B;" cx="254" cy="254" r="254"/>
<path style="fill:#FFFFFF;" d="M444.8,279.6v-51.2l-41.2-13.6c-3.6-13.6-9.2-26.8-16-38.8l19.6-39.2l-36-36L332,120.4  c-12-6.8-24.8-12.4-38.8-16l-13.6-41.2h-51.2l-13.6,41.2c-13.6,3.6-26.8,9.2-38.8,16l-39.2-19.6l-36,36l19.6,39.2  c-6.8,12-12.4,24.8-16,38.8l-41.2,13.6v50.8l41.2,13.6c3.6,13.6,9.2,26.8,16,38.8l-19.6,39.2l36,36l39.2-19.6  c12,6.8,24.8,12.4,38.8,16l13.6,41.2h50.8l13.6-41.2c13.6-3.6,26.8-9.2,38.8-16l39.2,19.6l36-36l-19.6-39.2  c6.8-12,12.4-24.8,16-38.8L444.8,279.6z"/>
<circle style="fill:#FFD05B;" cx="254" cy="254" r="81.6"/>
<circle style="fill:#FFFFFF;" cx="254" cy="254" r="46"/>
<g>
</g>
<g>
</g>
<g>
</g>
<g>
</g>
<g>
</g>
<g>
</g>
<g>
</g>
<g>
</g>
<g>
</g>
<g>
</g>
<g>
</g>
<g>
</g>
<g>
</g>
<g>
</g>
<g>
</g>
</svg>
