<?xml version="1.0" encoding="iso-8859-1"?>
<!-- Generator: Adobe Illustrator 19.0.0, SVG Export Plug-In . SVG Version: 6.00 Build 0)  -->
<svg xmlns="http://www.w3.org/2000/svg" xmlns:xlink="http://www.w3.org/1999/xlink" version="1.1" id="Layer_1" x="0px" y="0px" viewBox="0 0 508 508" style="enable-background:new 0 0 508 508;" xml:space="preserve">
<circle style="fill:#84DBFF;" cx="254" cy="254" r="254"/>
<rect x="219.251" y="155.459" transform="matrix(-0.7071 -0.7071 0.7071 -0.7071 253.8455 612.8618)" style="fill:#E6E9EE;" width="69.199" height="196.798"/>
<g>
	<path style="fill:#CED5E0;" d="M209.2,273.2L209.2,273.2c-1.6-1.6-1.6-4.4,0-6l58-58c1.6-1.6,4.4-1.6,6,0l0,0c1.6,1.6,1.6,4.4,0,6   l-58,58C213.6,274.8,210.8,274.8,209.2,273.2z"/>
	<path style="fill:#CED5E0;" d="M222,286L222,286c-1.6-1.6-1.6-4.4,0-6l58-58c1.6-1.6,4.4-1.6,6,0l0,0c1.6,1.6,1.6,4.4,0,6l-58,58   C226.4,287.6,223.6,287.6,222,286z"/>
	<path style="fill:#CED5E0;" d="M234.8,298.8L234.8,298.8c-1.6-1.6-1.6-4.4,0-6l58-58c1.6-1.6,4.4-1.6,6,0l0,0c1.6,1.6,1.6,4.4,0,6   l-58,58C239.2,300.4,236.4,300.4,234.8,298.8z"/>
</g>
<g>
	<path style="fill:#FFFFFF;" d="M350,226.8c-19.2,0-36.4-7.6-48.8-20.4c-12.4-12.4-20.4-29.6-20.4-48.8s7.6-36.4,20.4-48.8   c12.4-12.4,29.6-20.4,48.8-20.4c26.8,0,49.6,15.2,61.2,37.2h-57.6l-13.2,32l13.2,32h58c-3.2,6.4-7.6,12-12.4,16.8   C386.4,219.2,369.2,226.8,350,226.8z"/>
	<path style="fill:#FFFFFF;" d="M157.6,419.2c19.2,0,36.4-7.6,48.8-20.4c12.4-12.4,20.4-29.6,20.4-48.8c0-19.2-7.6-36.4-20.4-48.8   c-12.4-12.4-29.6-20.4-48.8-20.4c-26.8,0-49.6,15.2-61.2,37.2h58l13.2,32l-13.2,32h-58c3.2,6.4,7.6,12,12.4,16.8   C121.6,411.6,138.8,419.2,157.6,419.2z"/>
</g>
<g>
</g>
<g>
</g>
<g>
</g>
<g>
</g>
<g>
</g>
<g>
</g>
<g>
</g>
<g>
</g>
<g>
</g>
<g>
</g>
<g>
</g>
<g>
</g>
<g>
</g>
<g>
</g>
<g>
</g>
</svg>
