<?xml version="1.0" encoding="iso-8859-1"?>
<!-- Generator: Adobe Illustrator 19.0.0, SVG Export Plug-In . SVG Version: 6.00 Build 0)  -->
<svg xmlns="http://www.w3.org/2000/svg" xmlns:xlink="http://www.w3.org/1999/xlink" version="1.1" id="Layer_1" x="0px" y="0px" viewBox="0 0 508 508" style="enable-background:new 0 0 508 508;" xml:space="preserve">
<circle style="fill:#FD8469;" cx="254" cy="254" r="254"/>
<path style="fill:#CED5E0;" d="M380,143.2H84c-4.8,0-8.4,3.6-8.4,8.4v68c0,4.8,3.6,8.4,8.4,8.4h296.4c4.8,0,8.4-3.6,8.4-8.4v-68  C388.4,147.2,384.8,143.2,380,143.2z"/>
<g>
	<path style="fill:#324A5E;" d="M112,174.4h8v20h-4.4v-16H112V174.4z"/>
	<path style="fill:#324A5E;" d="M169.6,182c0.4-0.8,0.8-1.6,0.8-2c0-0.8-0.4-1.2-0.8-1.6c-0.4-0.4-0.8-0.8-1.6-0.8   c-1.2,0-2.4,0.8-3.6,2.8l-3.6-2.4c0.8-1.6,2-2.4,3.2-3.2s2.4-1.2,4.4-1.2c1.6,0,3.2,0.4,4.4,1.6c1.2,1.2,2,2.4,2,4.4   c0,1.2-0.4,2-0.8,2.8c-0.4,0.8-1.6,2-2.8,3.6l-3.6,4h8v4h-14v-3.2l6-6C168.4,183.6,169.2,182.8,169.6,182z"/>
	<path style="fill:#324A5E;" d="M216,178v-3.6h12.4v3.2l-4,4.8c1.6,0.4,2.8,0.8,3.6,2s1.2,2.4,1.2,3.6c0,2-0.8,3.6-2,4.8   c-1.6,1.2-3.2,1.6-5.6,1.6c-2.4,0-4.4-0.8-6.8-2.4l2-3.6c2,1.2,3.6,2,5.2,2c0.8,0,1.6-0.4,2.4-0.8c0.4-0.4,0.8-1.2,0.8-2   s-0.4-1.6-0.8-2c-0.8-0.4-1.6-0.8-2.8-0.8c-0.8,0-1.6,0-2.8,0.4V182l4-4.4H216V178z"/>
	<path style="fill:#324A5E;" d="M276.8,185.6V182h4.4v3.6h2.4v4h-2.4v4.4h-4.4v-4.8h-8V186l7.2-11.6h4.8l-6.8,11.2H276.8z"/>
	<path style="fill:#324A5E;" d="M336,174.4v4h-8v3.2c0.4,0,1.2-0.4,2-0.4c2,0,3.6,0.4,4.8,1.6c1.2,1.2,2,2.8,2,4.8s-0.8,3.6-2,4.8   c-1.6,1.2-3.2,2-5.2,2c-2.8,0-4.8-0.8-6.8-2.8l2.4-3.2c0,0,0.4,0.4,0.8,0.8c0.4,0.4,0.8,0.4,1.6,0.8c0.8,0.4,1.6,0.8,2.4,0.8   s1.6-0.4,2-0.8c0.4-0.4,0.8-1.2,0.8-2s-0.4-1.6-0.8-2c-0.8-0.4-1.6-0.8-2.4-0.8c-1.2,0-2,0.4-3.6,1.2l-2-2v-9.6h12V174.4z"/>
	<rect x="90.8" y="143.2" style="fill:#324A5E;" width="3.2" height="8.4"/>
	<rect x="105.6" y="143.2" style="fill:#324A5E;" width="3.2" height="16.4"/>
	<rect x="120.4" y="143.2" style="fill:#324A5E;" width="3.2" height="8.4"/>
	<rect x="134.8" y="143.2" style="fill:#324A5E;" width="3.2" height="8.4"/>
	<rect x="149.6" y="143.2" style="fill:#324A5E;" width="3.2" height="8.4"/>
	<rect x="164.4" y="143.2" style="fill:#324A5E;" width="3.2" height="16.4"/>
	<rect x="178.8" y="143.2" style="fill:#324A5E;" width="3.2" height="8.4"/>
	<rect x="193.6" y="143.2" style="fill:#324A5E;" width="3.2" height="8.4"/>
	<rect x="208.4" y="143.2" style="fill:#324A5E;" width="3.2" height="8.4"/>
	<rect x="223.2" y="143.2" style="fill:#324A5E;" width="3.2" height="16.4"/>
	<rect x="237.6" y="143.2" style="fill:#324A5E;" width="3.2" height="8.4"/>
	<rect x="252.4" y="143.2" style="fill:#324A5E;" width="3.2" height="8.4"/>
	<rect x="267.2" y="143.2" style="fill:#324A5E;" width="3.2" height="8.4"/>
	<rect x="282" y="143.2" style="fill:#324A5E;" width="3.2" height="16.4"/>
	<rect x="296.4" y="143.2" style="fill:#324A5E;" width="3.2" height="8.4"/>
	<rect x="311.2" y="143.2" style="fill:#324A5E;" width="3.2" height="8.4"/>
	<rect x="326" y="143.2" style="fill:#324A5E;" width="3.2" height="8.4"/>
	<rect x="340.8" y="143.2" style="fill:#324A5E;" width="3.2" height="16.4"/>
	<rect x="355.2" y="143.2" style="fill:#324A5E;" width="3.2" height="8.4"/>
	<rect x="370" y="143.2" style="fill:#324A5E;" width="3.2" height="8.4"/>
	<rect x="90.8" y="219.2" style="fill:#324A5E;" width="3.2" height="8.4"/>
	<rect x="105.6" y="211.2" style="fill:#324A5E;" width="3.2" height="16.4"/>
	<rect x="120.4" y="219.2" style="fill:#324A5E;" width="3.2" height="8.4"/>
	<rect x="134.8" y="219.2" style="fill:#324A5E;" width="3.2" height="8.4"/>
	<rect x="149.6" y="219.2" style="fill:#324A5E;" width="3.2" height="8.4"/>
	<rect x="164.4" y="211.2" style="fill:#324A5E;" width="3.2" height="16.4"/>
	<rect x="178.8" y="219.2" style="fill:#324A5E;" width="3.2" height="8.4"/>
	<rect x="193.6" y="219.2" style="fill:#324A5E;" width="3.2" height="8.4"/>
	<rect x="208.4" y="219.2" style="fill:#324A5E;" width="3.2" height="8.4"/>
	<rect x="223.2" y="211.2" style="fill:#324A5E;" width="3.2" height="16.4"/>
	<rect x="237.6" y="219.2" style="fill:#324A5E;" width="3.2" height="8.4"/>
	<rect x="252.4" y="219.2" style="fill:#324A5E;" width="3.2" height="8.4"/>
	<rect x="267.2" y="219.2" style="fill:#324A5E;" width="3.2" height="8.4"/>
	<rect x="282" y="211.2" style="fill:#324A5E;" width="3.2" height="16.4"/>
	<rect x="296.4" y="219.2" style="fill:#324A5E;" width="3.2" height="8.4"/>
	<rect x="311.2" y="219.2" style="fill:#324A5E;" width="3.2" height="8.4"/>
	<rect x="326" y="219.2" style="fill:#324A5E;" width="3.2" height="8.4"/>
	<rect x="340.8" y="211.2" style="fill:#324A5E;" width="3.2" height="16.4"/>
	<rect x="355.2" y="219.2" style="fill:#324A5E;" width="3.2" height="8.4"/>
	<rect x="370" y="219.2" style="fill:#324A5E;" width="3.2" height="8.4"/>
</g>
<path style="fill:#E6E9EE;" d="M401.6,200l-36-57.6c-2.4-4-7.6-5.2-11.6-2.8L102.8,296.8c-4,2.4-5.2,7.6-2.8,11.6l36,57.6  c2.4,4,7.6,5.2,11.6,2.8l251.2-157.2C402.8,208.8,404,203.6,401.6,200z"/>
<g>
	
		<rect x="387.856" y="207.974" transform="matrix(0.848 -0.53 0.53 0.848 -53.2542 238.6623)" style="fill:#324A5E;" width="3.2" height="8.4"/>
	
		<rect x="373.151" y="208.511" transform="matrix(0.8479 -0.5301 0.5301 0.8479 -57.8916 231.6179)" style="fill:#324A5E;" width="3.2" height="16.4"/>
	
		<rect x="362.832" y="223.621" transform="matrix(0.8479 -0.5301 0.5301 0.8479 -65.3507 227.8372)" style="fill:#324A5E;" width="3.2" height="8.4"/>
	
		<rect x="350.41" y="231.578" transform="matrix(0.848 -0.5299 0.5299 0.848 -71.4546 222.3674)" style="fill:#324A5E;" width="3.2" height="8.4"/>
	
		<rect x="337.791" y="239.248" transform="matrix(0.8479 -0.5301 0.5301 0.8479 -77.4426 216.9387)" style="fill:#324A5E;" width="3.2" height="8.4"/>
	
		<rect x="323.4" y="239.534" transform="matrix(0.848 -0.53 0.53 0.848 -81.898 209.9054)" style="fill:#324A5E;" width="3.2" height="16.4"/>
	
		<rect x="313.109" y="254.653" transform="matrix(0.848 -0.5299 0.5299 0.848 -89.3507 206.1071)" style="fill:#324A5E;" width="3.2" height="8.4"/>
	
		<rect x="300.654" y="262.645" transform="matrix(0.8479 -0.5301 0.5301 0.8479 -95.4933 200.8097)" style="fill:#324A5E;" width="3.2" height="8.4"/>
	
		<rect x="288.045" y="270.271" transform="matrix(0.848 -0.53 0.53 0.848 -101.4429 195.2318)" style="fill:#324A5E;" width="3.2" height="8.4"/>
	
		<rect x="273.324" y="270.804" transform="matrix(0.8479 -0.5301 0.5301 0.8479 -106.0954 188.171)" style="fill:#324A5E;" width="3.2" height="16.4"/>
	
		<rect x="263.005" y="285.914" transform="matrix(0.8479 -0.5301 0.5301 0.8479 -113.5544 184.3904)" style="fill:#324A5E;" width="3.2" height="8.4"/>
	
		<rect x="250.575" y="293.882" transform="matrix(0.848 -0.53 0.53 0.848 -119.6519 178.9613)" style="fill:#324A5E;" width="3.2" height="8.4"/>
	
		<rect x="237.963" y="301.541" transform="matrix(0.8479 -0.5301 0.5301 0.8479 -125.6464 173.4918)" style="fill:#324A5E;" width="3.2" height="8.4"/>
	
		<rect x="223.588" y="301.83" transform="matrix(0.848 -0.53 0.53 0.848 -130.0867 166.4748)" style="fill:#324A5E;" width="3.2" height="16.4"/>
	
		<rect x="213.473" y="317.294" transform="matrix(0.8479 -0.5301 0.5301 0.8479 -137.7219 162.9047)" style="fill:#324A5E;" width="3.2" height="8.4"/>
	
		<rect x="200.866" y="324.938" transform="matrix(0.8479 -0.5301 0.5301 0.8479 -143.691 157.384)" style="fill:#324A5E;" width="3.2" height="8.4"/>
	
		<rect x="188.446" y="332.907" transform="matrix(0.848 -0.53 0.53 0.848 -149.7791 151.9651)" style="fill:#324A5E;" width="3.2" height="8.4"/>
	
		<rect x="173.537" y="333.097" transform="matrix(0.8479 -0.5301 0.5301 0.8479 -154.293 144.7453)" style="fill:#324A5E;" width="3.2" height="16.4"/>
	
		<rect x="163.408" y="348.534" transform="matrix(0.848 -0.53 0.53 0.848 -161.8673 141.0705)" style="fill:#324A5E;" width="3.2" height="8.4"/>
	
		<rect x="151.103" y="355.926" transform="matrix(0.848 -0.53 0.53 0.848 -167.6555 135.6721)" style="fill:#324A5E;" width="3.2" height="8.4"/>
	
		<rect x="347.308" y="143.65" transform="matrix(0.848 -0.53 0.53 0.848 -25.3255 207.3945)" style="fill:#324A5E;" width="3.2" height="8.4"/>
	
		<rect x="336.952" y="150.736" transform="matrix(0.848 -0.53 0.53 0.848 -32.7755 203.5905)" style="fill:#324A5E;" width="3.2" height="16.4"/>
	
		<rect x="322.626" y="159.09" transform="matrix(0.8479 -0.5301 0.5301 0.8479 -37.256 196.7096)" style="fill:#324A5E;" width="3.2" height="8.4"/>
	
		<rect x="310.177" y="167.044" transform="matrix(0.848 -0.53 0.53 0.848 -43.3685 191.271)" style="fill:#324A5E;" width="3.2" height="8.4"/>
	
		<rect x="297.584" y="174.696" transform="matrix(0.8479 -0.5301 0.5301 0.8479 -49.3373 185.808)" style="fill:#324A5E;" width="3.2" height="8.4"/>
	
		<rect x="287.226" y="181.787" transform="matrix(0.8479 -0.5301 0.5301 0.8479 -56.7919 182.0031)" style="fill:#324A5E;" width="3.2" height="16.4"/>
	
		<rect x="272.543" y="190.303" transform="matrix(0.8479 -0.5301 0.5301 0.8479 -61.4187 174.9063)" style="fill:#324A5E;" width="3.2" height="8.4"/>
	
		<rect x="260.102" y="198.278" transform="matrix(0.848 -0.53 0.53 0.848 -67.5342 169.4788)" style="fill:#324A5E;" width="3.2" height="8.4"/>
	
		<rect x="247.836" y="205.71" transform="matrix(0.848 -0.53 0.53 0.848 -73.3375 164.1078)" style="fill:#324A5E;" width="3.2" height="8.4"/>
	
		<rect x="237.354" y="213.379" transform="matrix(0.8479 -0.5301 0.5301 0.8479 -81.1233 160.3699)" style="fill:#324A5E;" width="3.2" height="16.4"/>
	
		<rect x="223.034" y="221.694" transform="matrix(0.848 -0.5299 0.5299 0.848 -85.5729 153.3655)" style="fill:#324A5E;" width="3.2" height="8.4"/>
	
		<rect x="210.364" y="229.326" transform="matrix(0.8479 -0.5301 0.5301 0.8479 -91.5613 147.8788)" style="fill:#324A5E;" width="3.2" height="8.4"/>
	
		<rect x="197.969" y="237.309" transform="matrix(0.8479 -0.5301 0.5301 0.8479 -97.678 142.522)" style="fill:#324A5E;" width="3.2" height="8.4"/>
	
		<rect x="187.616" y="244.414" transform="matrix(0.848 -0.53 0.53 0.848 -105.1241 138.6823)" style="fill:#324A5E;" width="3.2" height="16.4"/>
	
		<rect x="172.927" y="252.935" transform="matrix(0.8479 -0.5301 0.5301 0.8479 -109.77 131.6234)" style="fill:#324A5E;" width="3.2" height="8.4"/>
	
		<rect x="160.63" y="260.363" transform="matrix(0.848 -0.53 0.53 0.848 -115.559 126.1958)" style="fill:#324A5E;" width="3.2" height="8.4"/>
	
		<rect x="148.237" y="268.346" transform="matrix(0.848 -0.53 0.53 0.848 -121.6738 120.8411)" style="fill:#324A5E;" width="3.2" height="8.4"/>
	
		<rect x="137.88" y="275.457" transform="matrix(0.848 -0.53 0.53 0.848 -129.1365 117.0408)" style="fill:#324A5E;" width="3.2" height="16.4"/>
	
		<rect x="123.2" y="283.974" transform="matrix(0.848 -0.53 0.53 0.848 -133.7619 109.9465)" style="fill:#324A5E;" width="3.2" height="8.4"/>
	
		<rect x="110.555" y="291.618" transform="matrix(0.848 -0.53 0.53 0.848 -139.7353 104.4067)" style="fill:#324A5E;" width="3.2" height="8.4"/>
	<path style="fill:#324A5E;" d="M342.4,204c1.2-0.8,1.6-1.6,2-2.8c0-1.2,0-2.4-0.8-3.6c-0.8,1.6-1.6,2.4-2.8,3.2   c-1.6,1.2-3.6,1.2-5.2,0.8c-2-0.4-3.2-1.6-4.4-3.2c-1.2-2-1.6-3.6-0.8-5.6c0.4-2,1.6-3.2,3.6-4.4c1.2-0.8,2.4-1.2,3.6-1.2   s2.4,0,3.6,0.8c2,1.2,4,2.8,5.6,5.2c1.2,1.6,1.6,3.2,2,4.8s0.4,2.8,0,4c-0.4,2.4-1.6,4-3.6,5.2c-0.8,0.4-1.6,0.8-2.8,1.2   c-0.8,0.4-1.6,0.4-2.4,0.4c-0.4,0-1.2,0-2,0v-4c0,0,0.4,0,0.8,0s0.8,0,1.6,0S342,204.4,342.4,204z M338.8,197.2   c0.8-0.4,1.2-1.2,1.6-2s0-1.6-0.4-2.4c-0.4-0.8-1.2-1.2-2-1.6c-0.8-0.4-1.6,0-2.4,0.4s-1.2,1.2-1.6,2s0,1.6,0.4,2.4   c0.4,0.8,1.2,1.2,2,1.6C337.2,198,338,197.6,338.8,197.2z"/>
	<path style="fill:#324A5E;" d="M299.2,227.2l3.6,5.6l-12.8,8l-2-2.8l-2-19.2l4.4-2.8l2,18.8l4.4-2.8l-1.6-2.4L299.2,227.2z"/>
	<path style="fill:#324A5E;" d="M251.6,263.6c-0.4,1.6-1.6,3.2-3.6,4c-1.6,1.2-3.6,1.6-5.2,1.2c-1.6-0.4-3.2-0.8-4-2.4   c-0.8-1.2-1.2-2.8-0.8-4.4c-2-0.4-4-1.2-5.2-3.2c-0.8-1.6-1.2-3.2-0.4-5.2c0.4-2,2-3.6,4-4.8s4-1.6,6-1.6c2,0.4,3.2,1.2,4.4,2.8   c1.2,2,1.2,4,0.4,6c1.6,0.4,2.8,1.2,4,2.4C252,260.4,252,262,251.6,263.6z M240.8,252c-0.8,0-1.6,0-2.4,0.8c-0.8,0.4-1.2,1.2-1.6,2   c-0.4,0.8-0.4,1.6,0.4,2.4c0.4,0.8,1.2,1.2,2,1.2s1.6,0,2.4-0.8c0.8-0.4,1.2-1.2,1.6-2c0.4-0.8,0.4-1.6-0.4-2.4   C242.4,252.4,241.6,252,240.8,252z M245.6,260c-0.8,0-1.6,0-2,0.4c-0.8,0.4-1.2,0.8-1.2,1.6c-0.4,0.8,0,1.2,0.4,2s0.8,0.8,1.6,1.2   c0.8,0,1.6,0,2-0.4c0.8-0.4,1.2-0.8,1.2-1.6c0.4-0.8,0-1.2-0.4-2C246.8,260.4,246,260,245.6,260z"/>
	<path style="fill:#324A5E;" d="M190,283.2c-1.2,0.8-1.6,1.6-2,2.8c0,1.2,0,2.4,0.8,3.6c0.8-1.6,1.6-2.4,2.8-3.2   c1.6-1.2,3.6-1.2,5.2-0.8c2,0.4,3.2,1.6,4.4,3.2c1.2,2,1.6,3.6,0.8,5.6c-0.4,2-1.6,3.2-3.6,4.4c-1.2,0.8-2.4,1.2-3.6,1.2   c-1.2,0-2.4,0-3.6-0.8c-2-1.2-4-2.8-5.6-5.6c-1.2-1.6-1.6-3.2-2-4.8c-0.4-1.6-0.4-2.8-0.4-4c0.4-2.4,1.6-4,3.6-5.2   c0.8-0.4,1.6-0.8,2.8-1.2c0.8-0.4,1.6-0.4,2.4-0.4c0.4,0,1.2,0,2,0l-0.4,4c0,0-0.4,0-0.8,0c-0.4,0-0.8,0-1.6,0   C191.2,282.8,190.4,282.8,190,283.2z M193.6,290c-0.8,0.4-1.2,1.2-1.6,2c-0.4,0.8,0,1.6,0.4,2.4s1.2,1.2,2,1.6s1.6,0,2.4-0.4   c0.8-0.4,1.2-1.2,1.6-2c0-0.8,0-1.6-0.4-2.4s-1.2-1.2-2-1.6S194.4,289.6,193.6,290z"/>
	<path style="fill:#324A5E;" d="M156,324.8l-7.2,4.4l-11.2-18l4-2.4l9.2,14.4l3.6-2L156,324.8z"/>
	<path style="fill:#324A5E;" d="M127.6,317.2c2.4-1.6,4.8-2,7.2-0.8c2.4,0.8,4.4,2.8,6,5.6c1.6,2.8,2.4,5.6,2.4,8s-1.6,4.4-4,6   s-4.8,2-7.2,0.8c-2.4-0.8-4.4-2.8-6-5.6c-1.6-2.8-2.4-5.6-2.4-8C123.6,320.8,125.2,318.8,127.6,317.2z M138.8,329.2   c0-1.6-0.8-3.2-2-4.8c-1.2-1.6-2.4-3.2-3.6-3.6c-1.2-0.8-2.4-0.8-3.6,0c-1.2,0.8-1.6,2-1.6,3.2c0,1.6,0.8,3.2,2,4.8   c1.2,1.6,2.4,3.2,3.6,3.6c1.2,0.8,2.4,0.8,3.6,0C138.4,332,138.8,330.8,138.8,329.2z"/>
</g>
<path style="fill:#FFFFFF;" d="M424,280.8H128c-4.8,0-8.4,3.6-8.4,8.4v68c0,4.8,3.6,8.4,8.4,8.4h296.4c4.8,0,8.4-3.6,8.4-8.4v-68  C432.4,284.4,428.8,280.8,424,280.8z"/>
<g>
	<rect x="134.8" y="280.8" style="fill:#324A5E;" width="3.2" height="8.4"/>
	<rect x="149.6" y="280.8" style="fill:#324A5E;" width="3.2" height="16.4"/>
	<rect x="164.4" y="280.8" style="fill:#324A5E;" width="3.2" height="8.4"/>
	<rect x="178.8" y="280.8" style="fill:#324A5E;" width="3.2" height="8.4"/>
	<rect x="193.6" y="280.8" style="fill:#324A5E;" width="3.2" height="8.4"/>
	<rect x="208.4" y="280.8" style="fill:#324A5E;" width="3.2" height="16.4"/>
	<rect x="222.8" y="280.8" style="fill:#324A5E;" width="3.2" height="8.4"/>
	<rect x="237.6" y="280.8" style="fill:#324A5E;" width="3.2" height="8.4"/>
	<rect x="252.4" y="280.8" style="fill:#324A5E;" width="3.2" height="8.4"/>
	<rect x="267.2" y="280.8" style="fill:#324A5E;" width="3.2" height="16.4"/>
	<rect x="281.6" y="280.8" style="fill:#324A5E;" width="3.2" height="8.4"/>
	<rect x="296.4" y="280.8" style="fill:#324A5E;" width="3.2" height="8.4"/>
	<rect x="311.2" y="280.8" style="fill:#324A5E;" width="3.2" height="8.4"/>
	<rect x="326" y="280.8" style="fill:#324A5E;" width="3.2" height="16.4"/>
	<rect x="340.4" y="280.8" style="fill:#324A5E;" width="3.2" height="8.4"/>
	<rect x="355.2" y="280.8" style="fill:#324A5E;" width="3.2" height="8.4"/>
	<rect x="370" y="280.8" style="fill:#324A5E;" width="3.2" height="8.4"/>
	<rect x="384.8" y="280.8" style="fill:#324A5E;" width="3.2" height="16.4"/>
	<rect x="399.2" y="280.8" style="fill:#324A5E;" width="3.2" height="8.4"/>
	<rect x="414" y="280.8" style="fill:#324A5E;" width="3.2" height="8.4"/>
	<rect x="134.8" y="356.8" style="fill:#324A5E;" width="3.2" height="8.4"/>
	<rect x="149.6" y="348.8" style="fill:#324A5E;" width="3.2" height="16.4"/>
	<rect x="164.4" y="356.8" style="fill:#324A5E;" width="3.2" height="8.4"/>
	<rect x="178.8" y="356.8" style="fill:#324A5E;" width="3.2" height="8.4"/>
	<rect x="193.6" y="356.8" style="fill:#324A5E;" width="3.2" height="8.4"/>
	<rect x="208.4" y="348.8" style="fill:#324A5E;" width="3.2" height="16.4"/>
	<rect x="222.8" y="356.8" style="fill:#324A5E;" width="3.2" height="8.4"/>
	<rect x="237.6" y="356.8" style="fill:#324A5E;" width="3.2" height="8.4"/>
	<rect x="252.4" y="356.8" style="fill:#324A5E;" width="3.2" height="8.4"/>
	<rect x="267.2" y="348.8" style="fill:#324A5E;" width="3.2" height="16.4"/>
	<rect x="281.6" y="356.8" style="fill:#324A5E;" width="3.2" height="8.4"/>
	<rect x="296.4" y="356.8" style="fill:#324A5E;" width="3.2" height="8.4"/>
	<rect x="311.2" y="356.8" style="fill:#324A5E;" width="3.2" height="8.4"/>
	<rect x="326" y="348.8" style="fill:#324A5E;" width="3.2" height="16.4"/>
	<rect x="340.4" y="356.8" style="fill:#324A5E;" width="3.2" height="8.4"/>
	<rect x="355.2" y="356.8" style="fill:#324A5E;" width="3.2" height="8.4"/>
	<rect x="370" y="356.8" style="fill:#324A5E;" width="3.2" height="8.4"/>
	<rect x="384.8" y="348.8" style="fill:#324A5E;" width="3.2" height="16.4"/>
	<rect x="399.2" y="356.8" style="fill:#324A5E;" width="3.2" height="8.4"/>
	<rect x="414" y="356.8" style="fill:#324A5E;" width="3.2" height="8.4"/>
	<path style="fill:#324A5E;" d="M147.6,314.4h7.2V332h-4v-14.4h-3.2V314.4z"/>
	<path style="fill:#324A5E;" d="M159.6,314.4h7.2V332h-4v-14.4h-3.2V314.4z"/>
	<path style="fill:#324A5E;" d="M202.8,314.4h7.2V332h-4v-14.4h-3.2V314.4z"/>
	<path style="fill:#324A5E;" d="M222.8,321.2c0.4-0.8,0.8-1.2,0.8-2c0-0.4,0-1.2-0.4-1.6s-0.8-0.4-1.6-0.4c-1.2,0-2,0.8-3.2,2.4   l-3.6-1.6c0.8-1.2,1.6-2.4,2.8-2.8c0.8-0.8,2.4-0.8,3.6-0.8c1.6,0,2.8,0.4,4,1.6c1.2,0.8,1.6,2.4,1.6,4c0,0.8-0.4,1.6-0.8,2.8   c-0.4,0.8-1.2,2-2.4,3.2l-3.2,3.2h7.2v3.6h-12.4V330l5.2-5.2C221.6,322.8,222,322,222.8,321.2z"/>
	<path style="fill:#324A5E;" d="M262.8,314.4h7.2V332h-4v-14.4h-3.2V314.4z"/>
	<path style="fill:#324A5E;" d="M276,317.6v-3.2h10.8v2.8l-3.6,4c1.6,0.4,2.4,0.8,3.2,1.6c0.8,0.8,1.2,2,1.2,3.2c0,2-0.8,3.2-2,4.4   c-1.2,1.2-2.8,1.6-4.8,1.6s-4-0.8-6-2l1.6-3.2c1.6,1.2,3.2,1.6,4.4,1.6c0.8,0,1.6,0,2-0.4s0.8-0.8,0.8-1.6c0-0.8-0.4-1.2-0.8-1.6   s-1.6-0.8-2.4-0.8c-0.4,0-1.2,0-2.4,0.4v-2.8l3.2-4H276z"/>
	<path style="fill:#324A5E;" d="M322.8,314.4h7.2V332h-4v-14.4h-3.2V314.4z"/>
	<path style="fill:#324A5E;" d="M342,324.4v-3.2h4v3.2h2v3.6h-2v4.4h-4V328h-7.2v-3.2l6.4-10.4h4.4l-6,10H342z"/>
	<path style="fill:#324A5E;" d="M382.4,314.4h7.2V332h-4v-14.4h-3.2V314.4z"/>
	<path style="fill:#324A5E;" d="M406.4,314.4v3.6h-7.2v2.8c0.4,0,1.2-0.4,2-0.4c1.6,0,3.2,0.4,4.4,1.6c1.2,1.2,2,2.4,2,4   s-0.8,3.2-2,4.4c-1.2,1.2-2.8,1.6-4.8,1.6c-2.4,0-4.4-0.8-6-2.8l2-2.8c0,0,0.4,0.4,0.8,0.4c0.4,0.4,0.8,0.4,1.2,0.8   c0.8,0.4,1.2,0.4,2,0.4s1.2-0.4,2-0.8c0.4-0.4,0.8-1.2,0.8-2s-0.4-1.6-0.8-2s-1.2-0.8-2-0.8s-2,0.4-3.2,0.8l-1.6-1.6v-8.8h10.4   V314.4z"/>
</g>
<circle style="fill:#FF7058;" cx="366.8" cy="183.6" r="10.4"/>
<circle style="fill:#F1543F;" cx="366.8" cy="183.6" r="4.8"/>
<circle style="fill:#FF7058;" cx="133.2" cy="323.2" r="10.4"/>
<circle style="fill:#F1543F;" cx="133.2" cy="323.2" r="4.8"/>
<circle style="fill:#FF7058;" cx="417.2" cy="323.2" r="10.4"/>
<circle style="fill:#F1543F;" cx="417.2" cy="323.2" r="4.8"/>
<g>
</g>
<g>
</g>
<g>
</g>
<g>
</g>
<g>
</g>
<g>
</g>
<g>
</g>
<g>
</g>
<g>
</g>
<g>
</g>
<g>
</g>
<g>
</g>
<g>
</g>
<g>
</g>
<g>
</g>
</svg>
