<?xml version="1.0" encoding="iso-8859-1"?>
<!-- Generator: Adobe Illustrator 19.0.0, SVG Export Plug-In . SVG Version: 6.00 Build 0)  -->
<svg xmlns="http://www.w3.org/2000/svg" xmlns:xlink="http://www.w3.org/1999/xlink" version="1.1" id="Layer_1" x="0px" y="0px" viewBox="0 0 508 508" style="enable-background:new 0 0 508 508;" xml:space="preserve">
<circle style="fill:#84DBFF;" cx="254" cy="254" r="254"/>
<path style="fill:#54C0EB;" d="M27.6,368.8C69.6,451.6,155.2,508,254,508s184.8-56.8,226.4-139.2H27.6z"/>
<path style="fill:#2B3B4E;" d="M55.6,282.8v17.6c0,1.6,1.2,2.8,2.8,2.8H328v-22.8H58.4C56.8,280.4,55.6,281.6,55.6,282.8z"/>
<path style="fill:#FFFFFF;" d="M438.8,338h-102c-4.8,0-8.8-4-8.8-8.8v-142c0-4.8,4-8.8,8.8-8.8h92.8c4.4,0,8.4,3.2,8.8,7.6l9.6,70  c0,0.4,0,0.8,0,1.2v72C448,334,444,338,438.8,338z"/>
<path style="fill:#CED5E0;" d="M372,244h66l-7.6-56.8c0-0.4-0.4-0.8-1.2-0.8H372V244z"/>
<polygon style="fill:#E6E9EE;" points="421.2,186 372,186 372,244 385.6,244 "/>
<path style="fill:#CED5E0;" d="M366,186h-29.2c-0.8,0-1.2,0.4-1.2,1.2V244H366V186z"/>
<path style="fill:#E6E9EE;" d="M360.8,186h-24c-0.8,0-1.2,0.4-1.2,1.2V244h5.6L360.8,186z"/>
<circle style="fill:#324A5E;" cx="109.6" cy="325.6" r="40"/>
<circle style="fill:#ACB3BA;" cx="109.6" cy="325.6" r="22.8"/>
<circle style="fill:#324A5E;" cx="194" cy="325.6" r="40"/>
<circle style="fill:#ACB3BA;" cx="194" cy="325.6" r="22.8"/>
<circle style="fill:#324A5E;" cx="364" cy="325.6" r="40"/>
<circle style="fill:#ACB3BA;" cx="364" cy="325.6" r="22.8"/>
<rect x="427.2" y="302.8" style="fill:#324A5E;" width="32.8" height="35.2"/>
<path style="fill:#FF7058;" d="M358.8,163.6h-29.6c-6,0-10.8,4.8-10.8,10.8v66.4c0,2.8-1.2,6-3.6,8l-22.4,20.8c-2,2-4.4,2.8-7.2,2.8  H58.4c-6,0-10.8-4.8-10.8-10.8v-23.2c0-2.8,1.2-5.6,3.2-7.6L71.6,210c1.6-1.6,4-2.8,6.4-3.2l162-17.2c2-0.4,4-0.8,5.2-2l55.6-42.8  c2-1.6,4-2.4,6.4-2.4h51.2c6,0,10.8,4.8,10.8,10.8l0,0C369.6,159.2,364.8,163.6,358.8,163.6z"/>
<g>
	<polygon style="fill:#F1543F;" points="132.4,201.2 132.4,272 140.8,272 140.8,200.4  "/>
	<polygon style="fill:#F1543F;" points="218.4,192 218.4,272 227.6,272 227.6,191.2  "/>
	<path style="fill:#F1543F;" d="M310,142.4h-2.4c-2.4,0-4.8,0.8-6.4,2.4l-1.2,0.8v116.8l10-9.2V142.4z"/>
	<polygon style="fill:#F1543F;" points="85.2,206 85.2,272 93.6,272 93.6,205.2  "/>
	<polygon style="fill:#F1543F;" points="174,196.8 174,272 182.8,272 182.8,196  "/>
	<polygon style="fill:#F1543F;" points="269.6,169.2 261.2,175.6 261.2,272 269.6,272  "/>
</g>
<g>
</g>
<g>
</g>
<g>
</g>
<g>
</g>
<g>
</g>
<g>
</g>
<g>
</g>
<g>
</g>
<g>
</g>
<g>
</g>
<g>
</g>
<g>
</g>
<g>
</g>
<g>
</g>
<g>
</g>
</svg>
