<?xml version="1.0" encoding="iso-8859-1"?>
<!-- Generator: Adobe Illustrator 19.0.0, SVG Export Plug-In . SVG Version: 6.00 Build 0)  -->
<svg xmlns="http://www.w3.org/2000/svg" xmlns:xlink="http://www.w3.org/1999/xlink" version="1.1" id="Layer_1" x="0px" y="0px" viewBox="0 0 508 508" style="enable-background:new 0 0 508 508;" xml:space="preserve">
<circle style="fill:#90DFAA;" cx="254" cy="254" r="254"/>
<g>
	<polygon style="fill:#2B3B4E;" points="406,120.4 402.8,129.2 411.6,132.8 405.6,140 413.6,146 406,152.4 412,159.6 403.6,163.6    408,172 399.2,173.2 400.4,183.6 391.6,183.6 391.6,192.8 382.4,192.8 382.4,202.4 373.2,202.4 373.2,211.6 363.6,211.6    363.6,220.8 354.4,220.8 354.4,230.4 345.2,230.4 345.2,239.6 335.6,239.6 335.6,248.8 326.4,248.8 326.4,258.4 316.8,258.4    316.8,267.6 307.6,267.6 307.6,276.8 298.4,276.8 298.4,286.4 288.8,286.4 288.8,295.6 279.6,295.6 279.6,306.4 249.2,336.4    171.6,258.8 201.6,228.4 212.4,228.4 212.4,219.2 221.6,219.2 221.6,209.6 231.2,209.6 231.2,200.4 240.4,200.4 240.4,191.2    249.6,191.2 249.6,181.6 259.2,181.6 259.2,172.4 268.4,172.4 268.4,162.8 277.6,162.8 277.6,153.6 287.2,153.6 287.2,144.4    296.4,144.4 296.4,134.8 305.6,134.8 305.6,125.6 315.2,125.6 315.2,116.4 324.4,116.4 324.4,107.6 334.8,108.8 336,100    344.4,104.4 348.4,96 355.6,102 362,94.4 368,102.4 375.2,96.4 378.8,105.2 387.6,102 388.8,111.2 398.4,109.6 396.8,119.2  "/>
	<path style="fill:#2B3B4E;" d="M212.4,367.2L171.6,408c-8.8,8.8-23.2,8.8-32,0L100,368.4c-8.8-8.8-8.8-23.2,0-32l40.8-40.8   c8.8-8.8,23.2-8.8,32,0l39.6,39.6C221.2,344,221.2,358.4,212.4,367.2z M111.6,348c-2.4,2.4-2.4,6.4,0,8.8l39.6,39.6   c2.4,2.4,6.4,2.4,8.8,0l40.8-40.8c2.4-2.4,2.4-6.4,0-8.8l-39.6-39.6c-2.4-2.4-6.4-2.4-8.8,0L111.6,348z"/>
</g>
<path style="fill:#ACB3BA;" d="M249.2,314L194,258.8l138-138c15.2-15.2,40.4-15.2,55.6,0s15.2,40.4,0,55.6L249.2,314z"/>
<path style="fill:#FF7058;" d="M178.4,228.8L119.6,288c-7.2,7.2-7.2,18.8,0,26l74.4,74.4c7.2,7.2,18.8,7.2,26,0l59.2-59.2  c7.2-7.2,7.2-18.8,0-26l-74.4-74.4C197.6,221.6,185.6,221.6,178.4,228.8z"/>
<g>
	<circle style="fill:#FFFFFF;" cx="163.6" cy="321.2" r="9.2"/>
	<circle style="fill:#FFFFFF;" cx="144" cy="301.6" r="9.2"/>
</g>
<g>
</g>
<g>
</g>
<g>
</g>
<g>
</g>
<g>
</g>
<g>
</g>
<g>
</g>
<g>
</g>
<g>
</g>
<g>
</g>
<g>
</g>
<g>
</g>
<g>
</g>
<g>
</g>
<g>
</g>
</svg>
