<?xml version="1.0" encoding="iso-8859-1"?>
<!-- Generator: Adobe Illustrator 19.0.0, SVG Export Plug-In . SVG Version: 6.00 Build 0)  -->
<svg xmlns="http://www.w3.org/2000/svg" xmlns:xlink="http://www.w3.org/1999/xlink" version="1.1" id="Layer_1" x="0px" y="0px" viewBox="0 0 508.4 508.4" style="enable-background:new 0 0 508.4 508.4;" xml:space="preserve">
<circle style="fill:#54C0EB;" cx="254.2" cy="254" r="254"/>
<path style="fill:#2B3B4E;" d="M394.6,423.2v1.6c0,13.2-1.2,27.6-3.6,43.2c-12.4,8-26,15.2-39.6,20.8c-3.2,1.2-6,2.4-9.2,3.6  c-4,1.6-8.4,2.8-12.4,4.4c-24,7.6-49.2,11.6-75.6,11.6s-52-4-75.6-11.6c-4-1.2-8.4-2.8-12.4-4.4c-3.2-1.2-6-2.4-9.2-3.6  c-14-5.6-27.2-12.8-39.6-20.8c-2-12.8-3.2-24.4-3.6-34.8c0-3.2,0-6.4,0-9.2c0-44.4,20-82.8,49.6-104.4c0.8-0.4,1.6-1.2,2.4-1.6  c0.8-0.4,1.6-1.2,2.4-1.6c0.8-0.4,1.6-1.2,2.4-1.6c0.8-0.4,2-1.2,2.8-1.6s1.6-0.8,2.4-1.2c0.8-0.4,1.6-0.8,2.8-1.2  c1.6-0.8,3.6-1.6,5.2-2.4c10.4-4.4,22-6.8,33.6-6.8H291c11.6,0,23.2,2.4,33.6,6.8c0.8,0.4,1.6,0.8,2.8,1.2c1.2,0.4,2.4,1.2,3.6,1.6  c2,0.8,3.6,2,5.6,3.2c0.8,0.4,1.6,1.2,2.8,1.6c2,1.2,4,2.4,6,4C374.6,340.8,394.6,379.2,394.6,423.2z"/>
<path style="fill:#E6E9EE;" d="M319.8,306.4l-12.4,18.8L283,368l-11.2,28l-17.6,19.6L225,370l-15.6-36.4L192.2,308l-1.6-2.4  c2-0.8,4.4-1.2,6.4-1.6c6.4-1.6,13.2-2.4,20.4-2.4H291c6.8,0,13.6,0.8,20.4,2.4C314.2,304.8,317,305.6,319.8,306.4z"/>
<path style="fill:#FF7058;" d="M279.4,314.4H231l21.2,28.8L235.4,396c3.2,3.2,4.8,7.2,5.6,11.6h25.2c0.4-5.6,3.2-11.2,7.6-14.4  l-16-50L279.4,314.4z"/>
<g>
	<path style="fill:#324A5E;" d="M351.4,488.8c-3.2,1.2-6,2.4-9.2,3.6c6.4-30,8.8-66,1.2-106C343.8,386.4,362.6,412.8,351.4,488.8z"/>
	<path style="fill:#324A5E;" d="M166.2,492.4c-3.2-1.2-6-2.4-9.2-3.6c-11.2-76,7.6-102.4,7.6-102.4   C157,426.8,159.8,462.8,166.2,492.4z"/>
</g>
<circle style="fill:#FFFFFF;" cx="254.2" cy="220.8" r="101.6"/>
<path style="fill:#FFD05B;" d="M363.4,196.8c0.4-3.6,0.4-7.2,0.4-11.2c0-60.4-49.2-109.6-109.6-109.6s-109.6,49.2-109.6,109.6  c0,3.6,0,7.6,0.4,11.2H363.4z"/>
<path style="fill:#F9B54C;" d="M300.6,190.8h-92.8c-13.2-34.8-10-86.4,14.4-110c10-3.2,20.8-4.8,32-4.8c11.2,0,22,1.6,32,4.8  C310.6,104.4,313.8,156,300.6,190.8z"/>
<path style="fill:#FFD05B;" d="M305.8,190.8c-0.4-68-23.2-123.2-51.6-123.2s-51.2,54.8-51.6,123.2H305.8z"/>
<path style="fill:#F9B54C;" d="M366.2,185.6h-224c-7.6,0-14,6.4-14,14s6.4,14,14,14h224c7.6,0,14-6.4,14-14S373.8,185.6,366.2,185.6  z"/>
<circle style="fill:#FFFFFF;" cx="254.2" cy="147.6" r="30.8"/>
<circle style="fill:#324A5E;" cx="254.2" cy="147.6" r="22.8"/>
<ellipse transform="matrix(-0.7071 -0.7072 0.7072 -0.7071 318.0647 407.0025)" style="fill:#FFFFFF;" cx="243.334" cy="137.621" rx="2.8" ry="6.4"/>
<path style="fill:#324A5E;" d="M313.8,359.2l-21.2,0.8l8,22l-46.4,50.4l-46.4-50l8-22l-21.2-0.8l-21.2-46c0,0,0,0,0.4,0  c0.8-0.4,1.6-0.8,2.4-1.2c0.8-0.4,1.6-0.8,2.8-1.2c1.6-0.8,3.6-1.6,5.2-2.4c4.4-1.6,8.8-3.2,13.2-4.4l56.8,100.8L311.4,304  c4.4,1.2,8.8,2.4,13.2,4.4c0.8,0.4,1.6,0.8,2.8,1.2c1.2,0.4,2.4,1.2,3.6,1.6c1.6,0.8,2.8,1.6,4.4,2.4L313.8,359.2z"/>
<g>
</g>
<g>
</g>
<g>
</g>
<g>
</g>
<g>
</g>
<g>
</g>
<g>
</g>
<g>
</g>
<g>
</g>
<g>
</g>
<g>
</g>
<g>
</g>
<g>
</g>
<g>
</g>
<g>
</g>
</svg>
