<?xml version="1.0" encoding="iso-8859-1"?>
<!-- Generator: Adobe Illustrator 19.0.0, SVG Export Plug-In . SVG Version: 6.00 Build 0)  -->
<svg xmlns="http://www.w3.org/2000/svg" xmlns:xlink="http://www.w3.org/1999/xlink" version="1.1" id="Layer_1" x="0px" y="0px" viewBox="0 0 508.4 508.4" style="enable-background:new 0 0 508.4 508.4;" xml:space="preserve">
<circle style="fill:#FD8469;" cx="254.2" cy="254" r="254"/>
<path style="fill:#84DBFF;" d="M395,423.2v1.6c0,13.2-1.2,27.6-3.6,43.2c-12.4,8-26,15.2-40,20.8c-3.2,1.2-6,2.4-9.2,3.6  c-4,1.6-8.4,2.8-12.4,4.4c-24,7.6-49.6,11.6-76,11.6s-52-4-76-11.6c-4-1.2-8.4-2.8-12.4-4.4c-3.2-1.2-6-2.4-9.2-3.6  c-14-5.6-27.2-12.8-39.6-20.8c-2-12.8-3.2-24.4-3.6-34.8c0-3.2,0-6.4,0-9.2c0-44.4,20.4-82.8,50-104.4c0.8-0.4,1.6-1.2,2.4-1.6  c0.8-0.4,1.6-1.2,2.4-1.6c0.8-0.4,1.6-1.2,2.4-1.6c0.8-0.4,2-1.2,2.8-1.6s1.6-0.8,2.4-1.2c0.8-0.4,1.6-0.8,2.8-1.2  c1.6-0.8,3.6-1.6,5.2-2.4c10.4-4.4,22-6.8,33.6-6.8h73.6c11.6,0,23.2,2.4,33.6,6.8c0.8,0.4,1.6,0.8,2.8,1.2c1.2,0.4,2.4,1.2,3.6,1.6  c2,0.8,3.6,2,5.6,3.2c0.8,0.4,1.6,1.2,2.8,1.6c2,1.2,4,2.4,6,4C374.6,340.4,394.6,378.8,395,423.2z"/>
<g>
	<path style="fill:#54C0EB;" d="M351.4,488.8c-3.2,1.2-6,2.4-9.2,3.6c6.4-30,8.8-66,1.2-106C343.8,386,362.6,412.4,351.4,488.8z"/>
	<path style="fill:#54C0EB;" d="M166.2,492.4c-3.2-1.2-6-2.4-9.2-3.6c-11.2-76.4,7.6-102.8,7.6-102.8   C157,426.4,159.4,462.4,166.2,492.4z"/>
</g>
<ellipse style="fill:#F9B54C;" cx="254.2" cy="292" rx="45.2" ry="52.8"/>
<path style="fill:#324A5E;" d="M313,409.6l16.8,26.4v60.8c-24,7.6-49.6,11.6-76,11.6s-52-4-76-11.6V436l16.8-26.4l-32-90.4  c0.8-0.4,1.6-1.2,2.4-1.6c0.8-0.4,1.6-1.2,2.4-1.6c0.8-0.4,1.6-1.2,2.4-1.6c0.8-0.4,2-1.2,2.8-1.6s1.6-0.8,2.4-1.2  c0.8-0.4,1.6-0.8,2.8-1.2c1.6-0.8,3.6-1.6,5.2-2.4l31.2,87.6H293l31.2-87.6c0.8,0.4,1.6,0.8,2.8,1.2c1.2,0.4,2.4,1.2,3.6,1.6  c2,0.8,3.6,2,5.6,3.2c0.8,0.4,1.6,1.2,2.8,1.6c2,1.2,4,2.4,6,4L313,409.6z"/>
<g>
	<circle style="fill:#FFD05B;" cx="254.2" cy="213.2" r="94.8"/>
	<path style="fill:#FFD05B;" d="M363.4,196c0.4-3.6,0.4-7.2,0.4-11.2c0-60.8-49.2-110-110-110s-109.6,49.6-109.6,110.4   c0,3.6,0,7.6,0.4,11.2h218.8V196z"/>
</g>
<path style="fill:#F9B54C;" d="M300.6,190.4h-92.8c-13.2-34.8-10-86.4,14.4-110.4c10-3.2,20.8-4.8,32-4.8c11.2,0,22,1.6,32,4.8  C310.6,104,313.8,155.6,300.6,190.4z"/>
<path style="fill:#FFD05B;" d="M305.8,190.4c-0.4-68.4-23.2-123.2-51.6-123.2s-51.2,55.2-51.6,123.2H305.8z"/>
<path style="fill:#F9B54C;" d="M366.2,185.2h-224c-7.6,0-14,6.4-14,14s6.4,14,14,14h224c7.6,0,14-6.4,14-14  C380.2,191.2,374.2,185.2,366.2,185.2z"/>
<circle style="fill:#FFFFFF;" cx="254.2" cy="147.2" r="30.8"/>
<circle style="fill:#84DBFF;" cx="254.2" cy="147.2" r="22.8"/>
<ellipse transform="matrix(-0.7071 -0.7072 0.7072 -0.7071 318.5534 406.325)" style="fill:#FFFFFF;" cx="243.438" cy="137.181" rx="2.8" ry="6.4"/>
<g>
</g>
<g>
</g>
<g>
</g>
<g>
</g>
<g>
</g>
<g>
</g>
<g>
</g>
<g>
</g>
<g>
</g>
<g>
</g>
<g>
</g>
<g>
</g>
<g>
</g>
<g>
</g>
<g>
</g>
</svg>
