<?xml version="1.0" encoding="iso-8859-1"?>
<!-- Generator: Adobe Illustrator 19.0.0, SVG Export Plug-In . SVG Version: 6.00 Build 0)  -->
<svg xmlns="http://www.w3.org/2000/svg" xmlns:xlink="http://www.w3.org/1999/xlink" version="1.1" id="Layer_1" x="0px" y="0px" viewBox="0 0 508 508" style="enable-background:new 0 0 508 508;" xml:space="preserve">
<circle style="fill:#324A5E;" cx="254" cy="254" r="254"/>
<g>
	<path style="fill:#54C0EB;" d="M398.8,207.2c0,4.4-1.6,8.4-4,11.2c-3.2,3.6-8,6-13.2,6c-9.6,0-17.6-7.6-17.6-17.6   c0-9.6,8-17.6,17.6-17.6c7.6,0,14.4,5.2,16.4,12C398.4,203.2,398.8,205.2,398.8,207.2z"/>
	<path style="fill:#54C0EB;" d="M144,207.2c0,9.6-8,17.6-17.6,17.6c-5.2,0-10-2.4-13.2-6c-2.8-3.2-4-7.2-4-11.2c0-2,0.4-3.6,0.8-5.6   c2.4-6.8,8.8-12,16.4-12C136.4,189.6,144,197.2,144,207.2z"/>
</g>
<path style="fill:#E6E9EE;" d="M121.2,156l22,245.2c1.2,11.6,10.8,20.4,22.4,20.4H342c11.6,0,21.2-8.8,22.4-20.4l22-245.2L121.2,156  L121.2,156z"/>
<path style="fill:#84DBFF;" d="M390.8,139.2H117.2c-8.8,0-16,7.2-16,16s7.2,16,16,16h274c8.8,0,16-7.2,16-16  C406.8,146.4,399.6,139.2,390.8,139.2z"/>
<path style="fill:#FFFFFF;" d="M408.8,207.2c0,85.2-69.6,154.8-154.8,154.8S99.2,292.4,99.2,207.2c0-3.6,3.2-6.8,6.8-6.8  c1.6,0,2.8,0.4,4,1.2c-0.4,1.6-0.8,3.6-0.8,5.6c0,4.4,1.6,8.4,4,11.2C119.2,290.8,180,348,254,348s134.8-57.2,140.8-129.6  c2.8-3.2,4-7.2,4-11.2c0-2-0.4-3.6-0.8-5.6c1.2-0.8,2.4-1.2,4-1.2C405.6,200.4,408.8,203.2,408.8,207.2z"/>
<path style="fill:#54C0EB;" d="M322.4,344.8L322.4,344.8c0,6-3.6,11.6-9.2,13.6c-18.4,7.2-38.4,11.2-59.2,11.2s-40.8-4-59.2-11.2  c-5.6-2.4-9.2-7.6-9.2-13.6l0,0c0-10.4,10.8-17.6,20.4-13.6c14.8,6,31.2,9.2,48,9.2s33.2-3.2,48-9.2  C312,327.2,322.4,334,322.4,344.8z"/>
<g>
</g>
<g>
</g>
<g>
</g>
<g>
</g>
<g>
</g>
<g>
</g>
<g>
</g>
<g>
</g>
<g>
</g>
<g>
</g>
<g>
</g>
<g>
</g>
<g>
</g>
<g>
</g>
<g>
</g>
</svg>
