<?xml version="1.0" encoding="iso-8859-1"?>
<!-- Generator: Adobe Illustrator 19.0.0, SVG Export Plug-In . SVG Version: 6.00 Build 0)  -->
<svg xmlns="http://www.w3.org/2000/svg" xmlns:xlink="http://www.w3.org/1999/xlink" version="1.1" id="Layer_1" x="0px" y="0px" viewBox="0 0 508 508" style="enable-background:new 0 0 508 508;" xml:space="preserve">
<circle style="fill:#FFD05B;" cx="254" cy="254" r="254"/>
<path style="fill:#FFFFFF;" d="M446,242.8L265.2,62c-6-6-16-6-22,0L62,242.8c-6,6-6,16,0,22L242.8,446c6,6,16,6,22,0L446,265.2  C452,258.8,452,249.2,446,242.8z"/>
<rect x="136.163" y="136.001" transform="matrix(-0.7071 0.7071 -0.7071 -0.7071 613.9697 254.0854)" style="fill:#FF7058;" width="236.398" height="236.398"/>
<g>
	<path style="fill:#FFFFFF;" d="M221.2,171.2v8.4h-20.8v8.4h18.8v8h-18.8v8.8H222v8.4h-30.8v-42H221.2z"/>
	<path style="fill:#FFFFFF;" d="M259.2,171.2h9.2v41.6h-9.2l-20-26v26H230v-41.6h8.8l20.4,26.8V171.2z"/>
	<path style="fill:#FFFFFF;" d="M310.8,176.8c4,3.6,6,8.8,6,15.2s-2,11.6-6,15.2c-4,3.6-9.6,5.6-17.6,5.6h-14.4v-41.6h14.8   C301.2,171.2,306.8,173.2,310.8,176.8z M304,201.6c2.4-2,3.6-5.2,3.6-9.2s-1.2-7.2-3.6-9.6c-2.4-2.4-5.6-3.2-10.4-3.2h-5.2v25.2   h5.6C298.4,204.8,301.6,203.6,304,201.6z"/>
	<path style="fill:#FFFFFF;" d="M134,249.2c2.4,0,4.4-0.8,6-2.8l3.2,3.2c-2.8,2.8-5.6,4.4-9.2,4.4s-6.4-1.2-8.4-3.2   c-2.4-2-3.2-4.8-3.2-8.4c0-3.2,1.2-6,3.2-8.4c2.4-2.4,5.2-3.2,8.4-3.2c3.6,0,6.8,1.2,9.2,4l-3.2,3.6c-1.6-2-3.6-2.8-6-2.8   c-2,0-3.6,0.8-4.8,2s-2,2.8-2,4.8s0.8,3.6,2,4.8C130.4,248.8,132,249.2,134,249.2z"/>
	<path style="fill:#FFFFFF;" d="M165.2,250.8c-2.4,2.4-5.2,3.2-8.4,3.2s-6-1.2-8.4-3.2s-3.2-4.8-3.2-8.4c0-3.2,1.2-6,3.2-8.4   c2.4-2.4,5.2-3.2,8.4-3.2s6,1.2,8.4,3.2c2.4,2.4,3.2,4.8,3.2,8.4C168.8,245.6,167.6,248.4,165.2,250.8z M163.6,242.4   c0-2-0.8-3.6-2-5.2c-1.2-1.6-2.8-2-4.8-2s-3.6,0.8-4.8,2c-1.2,1.6-2,3.2-2,5.2s0.8,3.6,2,5.2c1.2,1.2,2.8,2,4.8,2s3.6-0.8,4.8-2   C162.8,246,163.6,244.4,163.6,242.4z"/>
	<path style="fill:#FFFFFF;" d="M188.4,231.6h4.8V254h-4.8L178,239.6v14h-4.8v-22.4h4.8l10.8,14.4v-14H188.4z"/>
	<path style="fill:#FFFFFF;" d="M204,236c-0.4,0.4-0.8,0.8-0.8,1.6s0.4,1.2,0.8,1.6c0.4,0.4,2,0.8,4,1.2s3.6,1.2,4.8,2.4   s1.6,2.4,1.6,4.4s-0.8,3.6-2.4,4.8c-1.6,1.2-3.6,2-6,2c-3.6,0-6.8-1.2-9.6-4l2.8-3.6c2.4,2,4.8,3.2,6.8,3.2c0.8,0,1.6,0,2-0.4   s0.8-0.8,0.8-1.6s-0.4-1.2-0.8-1.6c-0.4-0.4-1.6-0.8-3.2-1.2c-2.4-0.8-4.4-1.6-5.6-2.4c-1.2-0.8-2-2.4-2-4.8s0.8-3.6,2.4-4.8   c1.6-1.2,3.6-1.6,5.6-1.6c1.6,0,2.8,0.4,4.4,0.8c1.6,0.4,2.8,1.2,4,2l-2.4,3.6c-2-1.6-4-2.4-6-2.4C205.2,235.2,204.4,235.6,204,236   z"/>
	<path style="fill:#FFFFFF;" d="M228.4,235.6v18h-4.8v-18h-6.4v-4.4h17.6v4.4H228.4z"/>
	<path style="fill:#FFFFFF;" d="M256.4,238.8c0,3.6-1.6,6-4.4,6.8l5.6,8h-6l-4.8-7.2h-3.6v7.2h-4.8v-22.4h8.4c3.6,0,6,0.4,7.6,1.6   C255.6,234.4,256.4,236.4,256.4,238.8z M250.4,241.6c0.8-0.4,0.8-1.6,0.8-2.8s-0.4-2-0.8-2.4c-0.8-0.4-1.6-0.8-3.2-0.8h-3.6v6.8   h3.6C248.8,242.4,250,242,250.4,241.6z"/>
	<path style="fill:#FFFFFF;" d="M267.6,248c0.8,1.2,2,1.6,3.2,1.6c1.6,0,2.4-0.4,3.2-1.6c0.8-1.2,1.2-2.4,1.2-4.4v-12.4h4.8v12.4   c0,3.2-0.8,5.6-2.8,7.6c-1.6,1.6-4,2.4-6.8,2.4s-5.2-0.8-6.8-2.8c-1.6-1.6-2.8-4.4-2.8-7.6v-12.4h4.8v12.4   C266.4,245.6,266.8,246.8,267.6,248z"/>
	<path style="fill:#FFFFFF;" d="M296,249.2c2.4,0,4.4-0.8,6-2.8l3.2,3.2c-2.4,2.8-5.6,4.4-8.8,4.4c-3.6,0-6.4-1.2-8.4-3.2   c-2.4-2-3.2-4.8-3.2-8.4c0-3.2,1.2-6,3.2-8.4c2.4-2.4,5.2-3.2,8.4-3.2c3.6,0,6.8,1.2,9.2,4l-3.6,4c-1.6-2-3.6-2.8-6-2.8   c-2,0-3.6,0.8-4.8,2c-1.2,1.2-2,2.8-2,4.8s0.8,3.6,2,4.8C292.4,248.8,294,249.2,296,249.2z"/>
	<path style="fill:#FFFFFF;" d="M318.4,235.6v18h-4.8v-18h-6.4v-4.4h17.6v4.4H318.4z"/>
	<path style="fill:#FFFFFF;" d="M328.4,231.6h4.8V254h-4.8V231.6z"/>
	<path style="fill:#FFFFFF;" d="M357.6,250.8c-2.4,2.4-5.2,3.2-8.4,3.2c-3.2,0-6-1.2-8.4-3.2s-3.2-4.8-3.2-8.4c0-3.2,1.2-6,3.2-8.4   c2.4-2.4,5.2-3.2,8.4-3.2c3.2,0,6,1.2,8.4,3.2c2.4,2.4,3.2,4.8,3.2,8.4C360.8,245.6,360,248.4,357.6,250.8z M356,242.4   c0-2-0.8-3.6-2-5.2c-1.2-1.6-2.8-2-4.8-2s-3.6,0.8-4.8,2c-1.2,1.6-2,3.2-2,5.2s0.8,3.6,2,5.2c1.2,1.2,2.8,2,4.8,2s3.6-0.8,4.8-2   C355.2,246,356,244.4,356,242.4z"/>
	<path style="fill:#FFFFFF;" d="M380.8,231.6h4.8V254h-4.8L370,239.6v14h-4.8v-22.4h4.8l10.8,14.4V231.6z"/>
	<circle style="fill:#FFFFFF;" cx="252.8" cy="276.8" r="10"/>
	<path style="fill:#FFFFFF;" d="M278,302.4v37.2c0,2-1.2,4-3.2,4c-2.4,0.4-4.8-1.6-4.8-4v-28.8c0-1.6-1.2-2.8-2.8-2.8   c-1.6,0-2.8,1.2-2.8,2.8V382c0,2.8-2,4.8-4.8,4.8l0,0c-2.8,0-4.8-2-4.8-4.8v-26.8c0-1.6-1.2-2.8-2.8-2.8l0,0   c-1.6,0-2.8,1.2-2.8,2.8V382c0,2.8-2,4.8-4.8,4.8l0,0c-2.8,0-4.8-2-4.8-4.8v-70.8c0-1.6-1.2-2.8-2.8-2.8s-2.8,1.2-2.8,2.8v28.4   c0,2-1.2,4-3.2,4c-2.4,0.4-4.8-1.6-4.8-4V302c0-5.2,4.4-9.6,9.6-9.6h31.6C274,292.8,278,297.2,278,302.4z"/>
</g>
<g>
</g>
<g>
</g>
<g>
</g>
<g>
</g>
<g>
</g>
<g>
</g>
<g>
</g>
<g>
</g>
<g>
</g>
<g>
</g>
<g>
</g>
<g>
</g>
<g>
</g>
<g>
</g>
<g>
</g>
</svg>
