<?xml version="1.0" encoding="iso-8859-1"?>
<!-- Generator: Adobe Illustrator 19.0.0, SVG Export Plug-In . SVG Version: 6.00 Build 0)  -->
<svg xmlns="http://www.w3.org/2000/svg" xmlns:xlink="http://www.w3.org/1999/xlink" version="1.1" id="Layer_1" x="0px" y="0px" viewBox="0 0 508 508" style="enable-background:new 0 0 508 508;" xml:space="preserve">
<circle style="fill:#FD8469;" cx="254" cy="254" r="254"/>
<path style="fill:#FFFFFF;" d="M211.6,198v-35.6h-10h-4h-10V198L164,215.2v226.4c0,9.2,6,16.8,13.2,16.8H222  c7.2,0,13.2-7.6,13.2-16.8V215.2L211.6,198z"/>
<path style="fill:#CED5E0;" d="M209.2,131.2h-18.8c-5.6,0-10,4.4-10,10v25.2c0,5.6,4.4,10,10,10h18.8c5.6,0,10-4.4,10-10v-25.2  C219.2,135.6,214.8,131.2,209.2,131.2z"/>
<path style="fill:#324A5E;" d="M216,165.2h-32.4c-5.6,0-10-4.4-10-10V59.6c0-5.6,4.4-10,10-10H216c5.6,0,10,4.4,10,10v95.6  C226,160.8,221.6,165.2,216,165.2z"/>
<path style="fill:#FFFFFF;" d="M323.2,176.4V146h-8.4h-3.2h-8.4v30.4l-20.4,14.8v193.6c0,8,5.2,14.4,11.2,14.4h38.4  c6,0,11.2-6.4,11.2-14.4V191.2L323.2,176.4z"/>
<path style="fill:#CED5E0;" d="M321.2,119.6h-16.4c-4.8,0-8.4,3.6-8.4,8.4v21.6c0,4.8,3.6,8.4,8.4,8.4h16.4c4.8,0,8.4-3.6,8.4-8.4  V128C329.6,123.2,326,119.6,321.2,119.6z"/>
<path style="fill:#324A5E;" d="M327.2,148.4h-27.6c-4.8,0-8.4-3.6-8.4-8.4V58c0-4.8,3.6-8.4,8.4-8.4h27.6c4.8,0,8.4,3.6,8.4,8.4v82  C335.6,144.8,331.6,148.4,327.2,148.4z"/>
<g>
</g>
<g>
</g>
<g>
</g>
<g>
</g>
<g>
</g>
<g>
</g>
<g>
</g>
<g>
</g>
<g>
</g>
<g>
</g>
<g>
</g>
<g>
</g>
<g>
</g>
<g>
</g>
<g>
</g>
</svg>
