<?xml version="1.0" encoding="iso-8859-1"?>
<!-- Generator: Adobe Illustrator 19.0.0, SVG Export Plug-In . SVG Version: 6.00 Build 0)  -->
<svg xmlns="http://www.w3.org/2000/svg" xmlns:xlink="http://www.w3.org/1999/xlink" version="1.1" id="Layer_1" x="0px" y="0px" viewBox="0 0 508 508" style="enable-background:new 0 0 508 508;" xml:space="preserve">
<circle style="fill:#FFD05B;" cx="254" cy="254" r="254"/>
<g>
	<path style="fill:#FFFFFF;" d="M181.2,100.8h-66c-6.4,0-9.2,8.4-3.6,12l25.6,17.2v150c0,6.4,5.2,28.8,11.6,28.8   c6.4,0,11.6-22.4,11.6-28.8V130.4l25.6-17.2C190.4,109.2,188,100.8,181.2,100.8z"/>
	<path style="fill:#FFFFFF;" d="M287.2,100.8h-66.4c-6.4,0-9.2,8.4-3.6,12l25.6,17.2v199.2c0,6.4,5.2,28.8,11.6,28.8   s11.6-22.4,11.6-28.8V130.4l25.6-17.2C296.4,109.2,293.6,100.8,287.2,100.8z"/>
	<path style="fill:#FFFFFF;" d="M392.8,100.8h-66c-6.4,0-9.2,8.4-3.6,12l25.6,17.2v248.4c0,6.4,5.2,28.8,11.6,28.8   s11.6-22.4,11.6-28.8v-248l25.6-17.2C402,109.2,399.6,100.8,392.8,100.8z"/>
</g>
<g>
</g>
<g>
</g>
<g>
</g>
<g>
</g>
<g>
</g>
<g>
</g>
<g>
</g>
<g>
</g>
<g>
</g>
<g>
</g>
<g>
</g>
<g>
</g>
<g>
</g>
<g>
</g>
<g>
</g>
</svg>
