<?xml version="1.0" encoding="iso-8859-1"?>
<!-- Generator: Adobe Illustrator 19.0.0, SVG Export Plug-In . SVG Version: 6.00 Build 0)  -->
<svg xmlns="http://www.w3.org/2000/svg" xmlns:xlink="http://www.w3.org/1999/xlink" version="1.1" id="Layer_1" x="0px" y="0px" viewBox="0 0 508 508" style="enable-background:new 0 0 508 508;" xml:space="preserve">
<circle style="fill:#54C0EB;" cx="254" cy="254" r="254"/>
<polygon style="fill:#F1543F;" points="237.2,138 302.8,84.4 395.6,176 254,186.4 "/>
<polygon style="fill:#FF7058;" points="125.2,179.6 218.4,96 325.2,179.6 "/>
<rect x="104" y="186.4" style="fill:#E6E9EE;" width="300" height="156.8"/>
<g>
	<path style="fill:#FFFFFF;" d="M81.6,360.4L81.6,360.4c0,9.6,8,17.6,17.6,17.6h309.6c9.6,0,17.6-8,17.6-17.6l0,0   c0-9.6-8-17.6-17.6-17.6H99.2C89.6,343.2,81.6,350.8,81.6,360.4z"/>
	<path style="fill:#FFFFFF;" d="M81.6,168.8L81.6,168.8c0,9.6,8,17.6,17.6,17.6h309.6c9.6,0,17.6-8,17.6-17.6l0,0   c0-9.6-8-17.6-17.6-17.6H99.2C89.6,151.2,81.6,159.2,81.6,168.8z"/>
</g>
<circle style="fill:#324A5E;" cx="362" cy="390" r="33.6"/>
<circle style="fill:#E6E9EE;" cx="362" cy="390" r="18.8"/>
<circle style="fill:#324A5E;" cx="146" cy="390" r="33.6"/>
<circle style="fill:#E6E9EE;" cx="146" cy="390" r="18.8"/>
<g>
	<rect x="331.6" y="210.4" style="fill:#ACB3BA;" width="36.8" height="108.4"/>
	<rect x="235.6" y="210.4" style="fill:#ACB3BA;" width="36.8" height="108.4"/>
	<rect x="140" y="210.4" style="fill:#ACB3BA;" width="36.8" height="108.4"/>
</g>
<g>
</g>
<g>
</g>
<g>
</g>
<g>
</g>
<g>
</g>
<g>
</g>
<g>
</g>
<g>
</g>
<g>
</g>
<g>
</g>
<g>
</g>
<g>
</g>
<g>
</g>
<g>
</g>
<g>
</g>
</svg>
