<?xml version="1.0" encoding="iso-8859-1"?>
<!-- Generator: Adobe Illustrator 19.0.0, SVG Export Plug-In . SVG Version: 6.00 Build 0)  -->
<svg xmlns="http://www.w3.org/2000/svg" xmlns:xlink="http://www.w3.org/1999/xlink" version="1.1" id="Layer_1" x="0px" y="0px" viewBox="0 0 508 508" style="enable-background:new 0 0 508 508;" xml:space="preserve">
<circle style="fill:#90DFAA;" cx="254" cy="254" r="254"/>
<g>
	<path style="fill:#2B3B4E;" d="M180.4,127.2c0,41.6-8,98-18,98s-18-56.4-18-98s8-52.8,18-52.8C172.4,74.4,180.4,85.6,180.4,127.2z"/>
	<path style="fill:#2B3B4E;" d="M197.6,316.8h204c26.4,0,47.6-21.2,47.6-47.6l0,0c0-26.4-21.2-47.6-47.6-47.6h-204V316.8z"/>
</g>
<path style="fill:#324A5E;" d="M144.4,176.4c-27.2,0-51.6,10.4-69.6,28l69.6,174.8c56,0,101.2-45.2,101.2-101.2  C245.6,222,200.4,176.4,144.4,176.4z"/>
<circle style="fill:#E6E9EE;" cx="144.4" cy="277.6" r="85.6"/>
<circle style="fill:#CED5E0;" cx="144.4" cy="277.6" r="39.6"/>
<g>
	<circle style="fill:#ACB3BA;" cx="144.4" cy="277.6" r="10.8"/>
	<circle style="fill:#ACB3BA;" cx="144.4" cy="253.2" r="5.6"/>
	<circle style="fill:#ACB3BA;" cx="144.4" cy="302.4" r="5.6"/>
	<circle style="fill:#ACB3BA;" cx="169.2" cy="277.6" r="5.6"/>
	<circle style="fill:#ACB3BA;" cx="120" cy="277.6" r="5.6"/>
</g>
<g>
	<path style="fill:#324A5E;" d="M409.6,295.2L409.6,295.2c-3.2,0-5.6-2.4-5.6-5.6v-41.2c0-3.2,2.4-5.6,5.6-5.6l0,0   c3.2,0,5.6,2.4,5.6,5.6v41.2C415.2,292.8,412.8,295.2,409.6,295.2z"/>
	<path style="fill:#324A5E;" d="M388.8,295.2L388.8,295.2c-3.2,0-5.6-2.4-5.6-5.6v-41.2c0-3.2,2.4-5.6,5.6-5.6l0,0   c3.2,0,5.6,2.4,5.6,5.6v41.2C394.4,292.8,392,295.2,388.8,295.2z"/>
	<path style="fill:#324A5E;" d="M368,295.2L368,295.2c-3.2,0-5.6-2.4-5.6-5.6v-41.2c0-3.2,2.4-5.6,5.6-5.6l0,0   c3.2,0,5.6,2.4,5.6,5.6v41.2C373.6,292.8,371.2,295.2,368,295.2z"/>
</g>
<g>
</g>
<g>
</g>
<g>
</g>
<g>
</g>
<g>
</g>
<g>
</g>
<g>
</g>
<g>
</g>
<g>
</g>
<g>
</g>
<g>
</g>
<g>
</g>
<g>
</g>
<g>
</g>
<g>
</g>
</svg>
