<?xml version="1.0" encoding="iso-8859-1"?>
<!-- Generator: Adobe Illustrator 19.0.0, SVG Export Plug-In . SVG Version: 6.00 Build 0)  -->
<svg xmlns="http://www.w3.org/2000/svg" xmlns:xlink="http://www.w3.org/1999/xlink" version="1.1" id="Layer_1" x="0px" y="0px" viewBox="0 0 508 508" style="enable-background:new 0 0 508 508;" xml:space="preserve">
<circle style="fill:#324A5E;" cx="254" cy="254" r="254"/>
<g>
	<rect x="339.2" y="212.4" style="fill:#84DBFF;" width="20.8" height="82.8"/>
	<rect x="205.2" y="200.4" style="fill:#84DBFF;" width="93.2" height="20.8"/>
	<rect x="148" y="212.4" style="fill:#84DBFF;" width="20.8" height="82.8"/>
</g>
<path style="fill:#E6E9EE;" d="M423.6,189.6H288.4c-1.6,0-2.8,1.2-2.8,2.8v32.8c0,2.4-2,4.4-4.4,4.4h-58.4c-2.4,0-4.4-2-4.4-4.4  v-32.8c0-1.6-1.2-2.8-2.8-2.8H84.4c-4.8,0-9.2,4-9.2,9.2v110.4c0,4.8,4,9.2,9.2,9.2H424c4.8,0,9.2-4,9.2-9.2V198.8  C432.8,194,428.8,189.6,423.6,189.6z M158.4,288.8c-19.2,0-34.8-15.6-34.8-34.8s15.6-34.8,34.8-34.8s34.8,15.6,34.8,34.8  C193.2,273.2,177.6,288.8,158.4,288.8z M349.6,288.8c-19.2,0-34.8-15.6-34.8-34.8s15.6-34.8,34.8-34.8c19.2,0,34.8,15.6,34.8,34.8  C384.8,273.2,369.2,288.8,349.6,288.8z"/>
<g>
	<path style="fill:#FFFFFF;" d="M84.4,189.6c-4.8,0-9.2,4-9.2,9.2v110.4c0,4.8,4,9.2,9.2,9.2h16V189.6H84.4z"/>
	<path style="fill:#FFFFFF;" d="M423.6,189.6h-16V318h16c4.8,0,9.2-4,9.2-9.2v-110C432.8,194,428.8,189.6,423.6,189.6z"/>
	<ellipse style="fill:#FFFFFF;" cx="251.6" cy="205.6" rx="10.4" ry="5.2"/>
</g>
<g>
</g>
<g>
</g>
<g>
</g>
<g>
</g>
<g>
</g>
<g>
</g>
<g>
</g>
<g>
</g>
<g>
</g>
<g>
</g>
<g>
</g>
<g>
</g>
<g>
</g>
<g>
</g>
<g>
</g>
</svg>
