<?xml version="1.0" encoding="iso-8859-1"?>
<!-- Generator: Adobe Illustrator 19.0.0, SVG Export Plug-In . SVG Version: 6.00 Build 0)  -->
<svg xmlns="http://www.w3.org/2000/svg" xmlns:xlink="http://www.w3.org/1999/xlink" version="1.1" id="Layer_1" x="0px" y="0px" viewBox="0 0 508 508" style="enable-background:new 0 0 508 508;" xml:space="preserve">
<circle style="fill:#84DBFF;" cx="254" cy="254" r="254"/>
<path style="fill:#FFFFFF;" d="M404,122H104c-9.2,0-16.8,7.6-16.8,16.8V250c0,9.2,7.6,16.8,16.8,16.8h300c9.2,0,16.8-7.6,16.8-16.8  V138.8C420.8,129.6,413.2,122,404,122z"/>
<g>
	<polygon style="fill:#FF7058;" points="330.4,142.4 359.2,246 391.2,246 362.8,142.4  "/>
	<polygon style="fill:#FF7058;" points="259.6,142.4 288,246 320,246 291.6,142.4  "/>
	<polygon style="fill:#FF7058;" points="188.4,142.4 217.2,246 249.2,246 220.8,142.4  "/>
	<polygon style="fill:#FF7058;" points="117.6,142.4 146,246 178,246 149.6,142.4  "/>
</g>
<g>
	<rect x="342" y="266.8" style="fill:#324A5E;" width="26" height="119.2"/>
	<rect x="140" y="266.8" style="fill:#324A5E;" width="26" height="119.2"/>
	<rect x="322" y="364" style="fill:#324A5E;" width="66" height="22"/>
	<rect x="120" y="364" style="fill:#324A5E;" width="66" height="22"/>
</g>
<g>
</g>
<g>
</g>
<g>
</g>
<g>
</g>
<g>
</g>
<g>
</g>
<g>
</g>
<g>
</g>
<g>
</g>
<g>
</g>
<g>
</g>
<g>
</g>
<g>
</g>
<g>
</g>
<g>
</g>
</svg>
