<?xml version="1.0" encoding="iso-8859-1"?>
<!-- Generator: Adobe Illustrator 19.0.0, SVG Export Plug-In . SVG Version: 6.00 Build 0)  -->
<svg xmlns="http://www.w3.org/2000/svg" xmlns:xlink="http://www.w3.org/1999/xlink" version="1.1" id="Layer_1" x="0px" y="0px" viewBox="0 0 508 508" style="enable-background:new 0 0 508 508;" xml:space="preserve">
<circle style="fill:#90DFAA;" cx="254" cy="254" r="254"/>
<polygon style="fill:#FFFFFF;" points="137.6,88.4 93.6,128.8 93.6,128.8 92.8,146 106.4,146.8 105.6,160.4 119.2,160.8   118.4,174.4 132,175.2 131.6,188.8 145.2,189.2 144.4,202.8 158,203.6 157.6,217.2 171.2,217.6 170.4,231.2 184,232 183.2,245.6   196.8,246.4 196.4,260 210,260.4 209.2,274 222.8,274.8 222.4,288.4 236,288.8 235.2,302.4 248.8,303.2 248,316.8 261.6,317.2   261.2,330.8 278.4,331.6 338.4,276.8 "/>
<path style="fill:#324A5E;" d="M386,347.6l12.8,6c2,0.8,4.8,0.4,6.4-1.2l8.4-8.4c2.4-2.4,2.4-5.6,0-8l-67.2-67.2  c-2.4-2.4-5.6-2.4-8,0l-73.6,73.6c-2.4,2.4-2.4,5.6,0,8l67.2,67.2c2.4,2.4,5.6,2.4,8,0l8.4-8.4c1.6-1.6,2-4.4,1.2-6.4l-6-12.8  c0.4-0.8,0.8-1.2,1.2-2c2-3.2,4.4-5.6,7.6-7.6c1.6-0.8,3.2-2,4.8-3.6c1.6-1.6,2.8-3.2,3.6-4.8c2-3.2,4.4-5.6,7.6-7.6  c1.6-0.8,3.2-2,4.8-3.6c1.6-1.6,2.8-3.2,3.6-4.8c2-3.2,4.4-5.6,7.6-7.6C384.8,348.8,385.6,348.4,386,347.6z M297.2,347.6l46.4-46.4  c2-2,5.2-2,7.6,0l21.2,21.2c-1.2,0.8-2.4,1.6-3.6,2.8c-1.6,1.6-2.8,3.2-3.6,4.8c-2,3.2-4.4,5.6-7.6,7.6c-1.6,0.8-3.2,2-4.8,3.6  c-1.6,1.6-2.8,3.2-3.6,4.8c-2,3.2-4.4,5.6-7.6,7.6c-1.6,0.8-3.2,2-4.8,3.6c-1.6,1.6-2.8,3.2-3.6,4.8c-2,3.2-4.4,5.6-7.6,7.6  c-1.6,0.8-3.2,2-4.8,3.6c-1.2,1.2-2,2.4-2.8,3.6l-21.2-21.2C295.2,352.8,295.2,349.6,297.2,347.6z"/>
<g>
</g>
<g>
</g>
<g>
</g>
<g>
</g>
<g>
</g>
<g>
</g>
<g>
</g>
<g>
</g>
<g>
</g>
<g>
</g>
<g>
</g>
<g>
</g>
<g>
</g>
<g>
</g>
<g>
</g>
</svg>
