<?xml version="1.0" encoding="iso-8859-1"?>
<!-- Generator: Adobe Illustrator 19.0.0, SVG Export Plug-In . SVG Version: 6.00 Build 0)  -->
<svg xmlns="http://www.w3.org/2000/svg" xmlns:xlink="http://www.w3.org/1999/xlink" version="1.1" id="Layer_1" x="0px" y="0px" viewBox="0 0 508 508" style="enable-background:new 0 0 508 508;" xml:space="preserve">
<circle style="fill:#FFD05B;" cx="254" cy="254" r="254"/>
<path style="fill:#324A5E;" d="M302.4,188.4l-24,9.6l-36.8-90c-1.6-4-6-6-10-4.4l-105.2,46.8c-4,1.6-6,6-4.4,10l36,87.6l-33.6,10  l-35.6-87.6c-7.2-17.2,1.2-37.2,18.8-44.4L222,79.2c17.2-7.2,37.2,1.2,44.4,18.8L302.4,188.4z"/>
<polygon style="fill:#FFFFFF;" points="371.2,315.2 381.2,304.8 369.2,292.8 378,278.4 366,270.4 371.2,257.2 355.6,250.8   358.4,233.6 344,231.2 344,216.8 326.8,216.8 322.8,200 308.8,203.2 303.2,190 287.2,196.8 277.2,182.8 265.6,191.2 255.2,180.8   243.2,193.2 228.8,184 220.8,196.4 207.2,190.8 200.8,206.8 184,204 181.6,218.4 167.2,218.4 167.2,235.6 150.4,239.2 153.6,253.6   140.4,259.2 147.2,274.8 133.2,284.8 141.6,296.8 131.2,307.2 143.6,319.2 134.4,333.6 146.8,341.2 141.2,354.8 157.2,361.2   154.4,378 168.4,380.8 168.8,395.2 186,395.2 189.6,411.6 204,408.4 209.6,422 225.2,415.2 235.2,429.2 247.2,420.8 257.6,430.8   269.6,418.8 284,428 291.6,415.6 305.2,420.8 311.6,405.2 328.4,408 330.8,393.6 345.6,393.6 345.2,376.4 362,372.4 358.8,358.4   372.4,352.8 365.6,336.8 379.6,327.2 "/>
<path style="fill:#FF7058;" d="M254.8,152c-78,0.8-141.2,62-145.6,138.8c0,3.2,2.4,6,5.6,6l46.4-0.4c2.8,0,5.2-2.4,5.6-5.2  c4-45.6,42-81.6,88.8-82s85.6,34.8,90.4,80.4c0.4,2.8,2.8,5.2,5.6,5.2l45.6-0.8c3.2,0,6-2.8,5.6-6  C397.2,211.6,332.8,151.2,254.8,152z"/>
<circle style="fill:#CED5E0;" cx="256.4" cy="306" r="24.4"/>
<g>
</g>
<g>
</g>
<g>
</g>
<g>
</g>
<g>
</g>
<g>
</g>
<g>
</g>
<g>
</g>
<g>
</g>
<g>
</g>
<g>
</g>
<g>
</g>
<g>
</g>
<g>
</g>
<g>
</g>
</svg>
