<?xml version="1.0" encoding="iso-8859-1"?>
<!-- Generator: Adobe Illustrator 19.0.0, SVG Export Plug-In . SVG Version: 6.00 Build 0)  -->
<svg xmlns="http://www.w3.org/2000/svg" xmlns:xlink="http://www.w3.org/1999/xlink" version="1.1" id="Layer_1" x="0px" y="0px" viewBox="0 0 508 508" style="enable-background:new 0 0 508 508;" xml:space="preserve">
<circle style="fill:#FD8469;" cx="254" cy="254" r="254"/>
<path style="fill:#2B3B4E;" d="M320,90.4h-18.8v96.8H320c2,0,4-1.6,4-4V94C324,92,322,90.4,320,90.4z"/>
<path style="fill:#324A5E;" d="M262.8,90.4c-4.4,0-8,2-10.8,5.2L201.6,160c-2,2.4-2.8,5.2-2.8,8.4v54c0,1.6,1.2,3.2,3.2,3.2h36.8  c1.6,0,3.2-1.2,3.2-3.2v-13.6c0-2,0.8-4.4,2.4-5.6l15.2-14c1.6-1.2,3.2-2,5.2-2h36.4V90.4H262.8z"/>
<g>
	<path style="fill:#FFFFFF;" d="M367.2,115.2c0-4-3.2-7.6-7.6-7.6h-36v14.8h36C363.6,122.8,367.2,119.2,367.2,115.2z"/>
	<path style="fill:#FFFFFF;" d="M359.6,154.8h-36V170h36c4,0,7.6-3.2,7.6-7.6C367.2,158.4,363.6,154.8,359.6,154.8z"/>
	<path style="fill:#FFFFFF;" d="M320.4,417.6H187.6c-30,0-54.4-24.4-54.4-54.4v-50.8h16v50.8c0,21.2,17.2,38.8,38.8,38.8h132.8   c21.2,0,38.8-17.2,38.8-38.8s-17.2-38.8-38.8-38.8h-55.2c-30,0-54.4-24.4-54.4-54.4v-44h16v44c0,21.2,17.2,38.8,38.8,38.8h54.8   c30,0,54.4,24.4,54.4,54.4S350.4,417.6,320.4,417.6z"/>
</g>
<path style="fill:#2B3B4E;" d="M204,225.6V242c0,1.2,1.2,2.4,2.4,2.4h27.2c1.2,0,2.4-1.2,2.4-2.4v-16.4H204z"/>
<g>
</g>
<g>
</g>
<g>
</g>
<g>
</g>
<g>
</g>
<g>
</g>
<g>
</g>
<g>
</g>
<g>
</g>
<g>
</g>
<g>
</g>
<g>
</g>
<g>
</g>
<g>
</g>
<g>
</g>
</svg>
