<?xml version="1.0" encoding="iso-8859-1"?>
<!-- Generator: Adobe Illustrator 19.0.0, SVG Export Plug-In . SVG Version: 6.00 Build 0)  -->
<svg xmlns="http://www.w3.org/2000/svg" xmlns:xlink="http://www.w3.org/1999/xlink" version="1.1" id="Layer_1" x="0px" y="0px" viewBox="0 0 508 508" style="enable-background:new 0 0 508 508;" xml:space="preserve">
<circle style="fill:#FD8469;" cx="254" cy="254" r="254"/>
<path style="fill:#E6E9EE;" d="M362.8,128H145.2c-9.2,0-16.8,7.6-16.8,16.8v218c0,9.2,7.6,16.8,16.8,16.8h218  c9.2,0,16.8-7.6,16.8-16.8V145.2C380,135.6,372.4,128,362.8,128z"/>
<path style="fill:#CED5E0;" d="M318.4,183.6c-4-4.8-10-7.6-16.4-7.6h-95.6c-6.4,0-12.4,2.8-16.4,7.6c-15.6,18.4-25.2,43.2-25.2,70.4  s9.6,52,24.8,70.4c4,4.8,10,7.6,16.4,7.6h95.6c6.4,0,12.4-2.8,16.4-7.6c15.2-18.4,24.8-43.2,24.8-70.4  C343.2,226.8,333.6,202,318.4,183.6z"/>
<g>
	<path style="fill:#324A5E;" d="M288.8,220.4h-11.2c-1.6,0-3.2,1.6-3.2,3.2v27.6c0,1.6,1.6,3.2,3.2,3.2h11.2c1.6,0,3.2-1.6,3.2-3.2   v-27.6C292,221.6,290.8,220.4,288.8,220.4z"/>
	<path style="fill:#324A5E;" d="M230.4,220.4h-11.2c-1.6,0-3.2,1.6-3.2,3.2v27.6c0,1.6,1.6,3.2,3.2,3.2h11.2c1.6,0,3.2-1.6,3.2-3.2   v-27.6C233.2,221.6,232,220.4,230.4,220.4z"/>
	<path style="fill:#324A5E;" d="M254,271.6c-5.6,0-10,4.4-10,10v10.8h20v-10.8C264,276,259.6,271.6,254,271.6z"/>
</g>
<g>
</g>
<g>
</g>
<g>
</g>
<g>
</g>
<g>
</g>
<g>
</g>
<g>
</g>
<g>
</g>
<g>
</g>
<g>
</g>
<g>
</g>
<g>
</g>
<g>
</g>
<g>
</g>
<g>
</g>
</svg>
