<?xml version="1.0" encoding="iso-8859-1"?>
<!-- Generator: Adobe Illustrator 19.0.0, SVG Export Plug-In . SVG Version: 6.00 Build 0)  -->
<svg xmlns="http://www.w3.org/2000/svg" xmlns:xlink="http://www.w3.org/1999/xlink" version="1.1" id="Layer_1" x="0px" y="0px" viewBox="0 0 508 508" style="enable-background:new 0 0 508 508;" xml:space="preserve">
<circle style="fill:#90DFAA;" cx="254" cy="254" r="254"/>
<polygon style="fill:#FFFFFF;" points="117.6,105.6 105.6,117.6 122,146 137.6,149.2 231.2,242.8 242.8,231.2 149.2,137.6 146,122   "/>
<path style="fill:#324A5E;" d="M272.8,214.4c0.8-2,0.8-4-0.8-5.6l-7.6-7.6c-2-2-4.8-2-6.8,0l-56.4,56.4c-2,2-2,4.8,0,6.8l7.6,7.6  c1.6,1.6,3.6,1.6,5.6,0.8c6-3.2,14-2,19.2,3.2s6,12.8,3.2,19.2c-0.8,2-0.8,4,0.8,5.6L338,401.2c2,2,4.8,2,6.8,0l56.4-56.4  c2-2,2-4.8,0-6.8L300.4,237.2c-1.6-1.6-3.6-1.6-5.6-0.8c-6,3.2-14,2-19.2-3.2C270.8,228.4,269.6,220.4,272.8,214.4z"/>
<g>
	<path style="fill:#2B3B4E;" d="M276,233.6c-5.2-5.2-6-12.8-3.2-19.2c0.4-0.4,0.4-1.2,0.4-1.6l-60.8,60.4c0.8,0,1.2-0.4,1.6-0.4   c6-3.2,14-2,19.2,3.2s6,12.8,3.2,19.2c-0.4,0.8-0.4,1.6-0.4,2.4l61.2-61.2c-0.8,0-1.6,0-2.4,0.4C288.8,239.6,281.2,238.8,276,233.6   z"/>
	<path style="fill:#2B3B4E;" d="M267.2,290.8c-2.8,2.8-2.8,7.6,0,10.4L338,372c2.8,2.8,7.6,2.8,10.4,0s2.8-7.6,0-10.4l-70.8-70.8   C274.8,288,270.4,288,267.2,290.8z"/>
	<path style="fill:#2B3B4E;" d="M290.8,267.2c-2.8,2.8-2.8,7.6,0,10.4l70.8,70.8c2.8,2.8,7.6,2.8,10.4,0s2.8-7.6,0-10.4l-70.8-70.8   C298.4,264.4,293.6,264.4,290.8,267.2z"/>
</g>
<g>
</g>
<g>
</g>
<g>
</g>
<g>
</g>
<g>
</g>
<g>
</g>
<g>
</g>
<g>
</g>
<g>
</g>
<g>
</g>
<g>
</g>
<g>
</g>
<g>
</g>
<g>
</g>
<g>
</g>
</svg>
