<?xml version="1.0" encoding="iso-8859-1"?>
<!-- Generator: Adobe Illustrator 19.0.0, SVG Export Plug-In . SVG Version: 6.00 Build 0)  -->
<svg xmlns="http://www.w3.org/2000/svg" xmlns:xlink="http://www.w3.org/1999/xlink" version="1.1" id="Layer_1" x="0px" y="0px" viewBox="0 0 508 508" style="enable-background:new 0 0 508 508;" xml:space="preserve">
<circle style="fill:#FF7058;" cx="254" cy="254" r="254"/>
<path style="fill:#FFFFFF;" d="M296.8,80h-41.6c-2.8,0-5.2,2.4-5.2,5.2v337.6c0,2.8,2.4,5.2,5.2,5.2h41.6c2.8,0,5.2-2.4,5.2-5.2  V85.2C302,82.4,299.6,80,296.8,80z"/>
<rect x="340.8" y="134" style="fill:#2B3B4E;" width="38" height="40"/>
<g>
	<path style="fill:#324A5E;" d="M337.6,105.2H202.8c0,0-68,3.6-104,64.8c-2.4,4,2,8.4,6,6c22.4-12.8,68-32.4,98-7.6V194   c0,4.8,4,8.8,8.8,8.8h125.6c4.8,0,8.8-4,8.8-8.8v-80C346.4,109.2,342.4,105.2,337.6,105.2z"/>
	<path style="fill:#324A5E;" d="M404,116.4h-30c-3.2,0-5.6,2.4-5.6,5.6v64c0,3.2,2.4,5.6,5.6,5.6h30c3.2,0,5.6-2.4,5.6-5.6v-64   C409.6,118.8,407.2,116.4,404,116.4z"/>
</g>
<circle style="fill:#2B3B4E;" cx="274.8" cy="154" r="24.8"/>
<g>
</g>
<g>
</g>
<g>
</g>
<g>
</g>
<g>
</g>
<g>
</g>
<g>
</g>
<g>
</g>
<g>
</g>
<g>
</g>
<g>
</g>
<g>
</g>
<g>
</g>
<g>
</g>
<g>
</g>
</svg>
