<?xml version="1.0" encoding="iso-8859-1"?>
<!-- Generator: Adobe Illustrator 19.0.0, SVG Export Plug-In . SVG Version: 6.00 Build 0)  -->
<svg xmlns="http://www.w3.org/2000/svg" xmlns:xlink="http://www.w3.org/1999/xlink" version="1.1" id="Layer_1" x="0px" y="0px" viewBox="0 0 508 508" style="enable-background:new 0 0 508 508;" xml:space="preserve">
<circle style="fill:#90DFAA;" cx="254" cy="254" r="254"/>
<path style="fill:#FFFFFF;" d="M272.4,287.6l-7.6,37.2c-0.8,4.4,2.4,8,6.8,8h19.2v-45.2H272.4z"/>
<rect x="66.4" y="218.8" style="fill:#324A5E;" width="90.4" height="15.6"/>
<path style="fill:#FF7058;" d="M352.8,165.2H213.6c-3.2,0-6,2.8-6,6v110.4c0,3.2,2.8,6,6,6h139.2c20.8,0,37.6-16.8,37.6-37.6v-47.2  C390.8,182,374,165.2,352.8,165.2z"/>
<path style="fill:#F1543F;" d="M180,176c-3.2,0-6,2.8-6,6v88.4c0,3.2,2.8,6,6,6h27.6V176H180z"/>
<path style="fill:#FF7058;" d="M174,188.8c-20.8,0-37.2,16.8-37.2,37.6s16.8,37.2,37.2,37.6V188.8z"/>
<g>
	<path style="fill:#F1543F;" d="M369.6,399.6l-15.6-112h-69.2l16,115.2c0.8,5.2,5.2,9.2,10.8,9.2h47.6   C365.2,412,370.4,406.4,369.6,399.6z"/>
	<path style="fill:#F1543F;" d="M327.6,191.2V262c3.2-1.2,6.4-2.8,9.2-4.8v-61.6C334,193.6,331.2,192,327.6,191.2z"/>
	<path style="fill:#F1543F;" d="M352.8,226.4c0-8.8-3.2-17.2-8.4-23.6V250C350,243.6,352.8,235.2,352.8,226.4z"/>
	<path style="fill:#F1543F;" d="M278,226.4c0,8.8,3.2,17.2,8.4,23.6v-47.2C281.2,209.2,278,217.6,278,226.4z"/>
	<path style="fill:#F1543F;" d="M315.6,188.8c-1.6,0-3.2,0-4.4,0.4v74.4c1.6,0,3.2,0.4,4.4,0.4c1.6,0,3.2,0,4.4-0.4v-74.4   C318.4,189.2,317.2,188.8,315.6,188.8z"/>
	<path style="fill:#F1543F;" d="M294,195.6v61.6c2.8,2,6,3.6,9.2,4.8v-70.8C300,192,296.8,193.6,294,195.6z"/>
</g>
<g>
</g>
<g>
</g>
<g>
</g>
<g>
</g>
<g>
</g>
<g>
</g>
<g>
</g>
<g>
</g>
<g>
</g>
<g>
</g>
<g>
</g>
<g>
</g>
<g>
</g>
<g>
</g>
<g>
</g>
</svg>
