<?xml version="1.0" encoding="iso-8859-1"?>
<!-- Generator: Adobe Illustrator 19.0.0, SVG Export Plug-In . SVG Version: 6.00 Build 0)  -->
<svg xmlns="http://www.w3.org/2000/svg" xmlns:xlink="http://www.w3.org/1999/xlink" version="1.1" id="Layer_1" x="0px" y="0px" viewBox="0 0 508 508" style="enable-background:new 0 0 508 508;" xml:space="preserve">
<circle style="fill:#324A5E;" cx="254" cy="254" r="254"/>
<path style="fill:#E6E9EE;" d="M366.4,418.4L366.4,418.4c-4,1.6-8.4,0-10.4-4l-19.2-45.2c-1.6-4,0-8.4,4-10.4l0,0  c4-1.6,8.4,0,10.4,4l19.2,45.2C372.4,412,370.4,416.8,366.4,418.4z"/>
<path style="fill:#FFFFFF;" d="M364.8,371.2L292,186l-30.4,12l72.8,185.2c1.6,4,6,5.6,9.6,4.4l16.4-6.4  C364.4,379.6,366.4,375.2,364.8,371.2z"/>
<path style="fill:#E6E9EE;" d="M141.6,418.4L141.6,418.4c4,1.6,8.4,0,10.4-4l19.2-45.2c1.6-4,0-8.4-4-10.4l0,0c-4-1.6-8.4,0-10.4,4  L137.6,408C135.6,412,137.6,416.8,141.6,418.4z"/>
<path style="fill:#FFFFFF;" d="M143.2,371.2L216,186l30.4,12l-72.8,185.6c-1.6,4-6,5.6-9.6,4.4l-16.4-6.4  C143.6,379.6,141.6,375.2,143.2,371.2z"/>
<g>
	<path style="fill:#4CDBC4;" d="M266.4,114.8V89.6c0-6.8-5.6-12.4-12.4-12.4c-6.8,0-12.4,5.6-12.4,12.4v25.2   c-23.6,5.6-40.8,26.8-40.8,52c0,29.6,24,53.6,53.6,53.6s53.6-24,53.6-53.6C307.6,141.2,290,120.4,266.4,114.8z M254,196.8   c-16.8,0-30-13.6-30-30c0-16.8,13.6-30,30-30c16.8,0,30,13.6,30,30S270.8,196.8,254,196.8z"/>
	<path style="fill:#4CDBC4;" d="M254,307.2c-35.6,0-71.2-13.6-98-40.4l16.8-16.8c44.8,44.8,117.6,44.8,162.4,0l16.8,16.8   C325.2,293.6,289.6,307.2,254,307.2z"/>
</g>
<path style="fill:#2C9984;" d="M254,271.2c-6,0-10.8,4.8-10.8,10.8v25.6c0,6,4.8,10.8,10.8,10.8s10.8-4.8,10.8-10.8V282  C264.8,276,260,271.2,254,271.2z"/>
<g>
</g>
<g>
</g>
<g>
</g>
<g>
</g>
<g>
</g>
<g>
</g>
<g>
</g>
<g>
</g>
<g>
</g>
<g>
</g>
<g>
</g>
<g>
</g>
<g>
</g>
<g>
</g>
<g>
</g>
</svg>
