<?xml version="1.0" encoding="iso-8859-1"?>
<!-- Generator: Adobe Illustrator 19.0.0, SVG Export Plug-In . SVG Version: 6.00 Build 0)  -->
<svg xmlns="http://www.w3.org/2000/svg" xmlns:xlink="http://www.w3.org/1999/xlink" version="1.1" id="Layer_1" x="0px" y="0px" viewBox="0 0 508 508" style="enable-background:new 0 0 508 508;" xml:space="preserve">
<circle style="fill:#FFD05B;" cx="254" cy="254" r="254"/>
<rect x="150" y="127.2" style="fill:#FF7058;" width="184.8" height="97.2"/>
<g>
	<circle style="fill:#F1543F;" cx="184.8" cy="156.4" r="13.2"/>
	<circle style="fill:#F1543F;" cx="184.8" cy="194.8" r="13.2"/>
	<circle style="fill:#F1543F;" cx="223.2" cy="156.4" r="13.2"/>
	<circle style="fill:#F1543F;" cx="223.2" cy="194.8" r="13.2"/>
	<circle style="fill:#F1543F;" cx="262" cy="156.4" r="13.2"/>
	<circle style="fill:#F1543F;" cx="262" cy="194.8" r="13.2"/>
	<circle style="fill:#F1543F;" cx="300.4" cy="156.4" r="13.2"/>
	<circle style="fill:#F1543F;" cx="300.4" cy="194.8" r="13.2"/>
</g>
<rect x="61.2" y="239.2" style="fill:#FF7058;" width="184.8" height="97.2"/>
<g>
	<circle style="fill:#F1543F;" cx="96" cy="268.8" r="13.2"/>
	<circle style="fill:#F1543F;" cx="96" cy="307.2" r="13.2"/>
	<circle style="fill:#F1543F;" cx="134.4" cy="268.8" r="13.2"/>
	<circle style="fill:#F1543F;" cx="134.4" cy="307.2" r="13.2"/>
	<circle style="fill:#F1543F;" cx="173.2" cy="268.8" r="13.2"/>
	<circle style="fill:#F1543F;" cx="173.2" cy="307.2" r="13.2"/>
	<circle style="fill:#F1543F;" cx="211.6" cy="268.8" r="13.2"/>
	<circle style="fill:#F1543F;" cx="211.6" cy="307.2" r="13.2"/>
</g>
<rect x="262" y="239.2" style="fill:#FF7058;" width="184.8" height="97.2"/>
<g>
	<circle style="fill:#F1543F;" cx="296.4" cy="268.8" r="13.2"/>
	<circle style="fill:#F1543F;" cx="296.4" cy="307.2" r="13.2"/>
	<circle style="fill:#F1543F;" cx="334.8" cy="268.8" r="13.2"/>
	<circle style="fill:#F1543F;" cx="334.8" cy="307.2" r="13.2"/>
	<circle style="fill:#F1543F;" cx="373.6" cy="268.8" r="13.2"/>
	<circle style="fill:#F1543F;" cx="373.6" cy="307.2" r="13.2"/>
	<circle style="fill:#F1543F;" cx="412" cy="268.8" r="13.2"/>
	<circle style="fill:#F1543F;" cx="412" cy="307.2" r="13.2"/>
</g>
<g>
</g>
<g>
</g>
<g>
</g>
<g>
</g>
<g>
</g>
<g>
</g>
<g>
</g>
<g>
</g>
<g>
</g>
<g>
</g>
<g>
</g>
<g>
</g>
<g>
</g>
<g>
</g>
<g>
</g>
</svg>
