<?xml version="1.0" encoding="iso-8859-1"?>
<!-- Generator: Adobe Illustrator 19.0.0, SVG Export Plug-In . SVG Version: 6.00 Build 0)  -->
<svg xmlns="http://www.w3.org/2000/svg" xmlns:xlink="http://www.w3.org/1999/xlink" version="1.1" id="Layer_1" x="0px" y="0px" viewBox="0 0 508 508" style="enable-background:new 0 0 508 508;" xml:space="preserve">
<circle style="fill:#84DBFF;" cx="254" cy="254" r="254"/>
<rect x="200.796" y="79.202" transform="matrix(-0.7071 0.7071 -0.7071 -0.7071 613.202 254.0034)" style="fill:#FFFFFF;" width="106.399" height="349.597"/>
<g>
	
		<rect x="105.976" y="156.421" transform="matrix(-0.7071 0.7071 -0.7071 -0.7071 320.6945 187.2053)" style="fill:#E6E9EE;" width="31.2" height="7.2"/>
	
		<rect x="120.687" y="173.904" transform="matrix(-0.7071 0.7071 -0.7071 -0.7071 345.8788 211.7396)" style="fill:#E6E9EE;" width="16.8" height="7.2"/>
	
		<rect x="132.804" y="183.153" transform="matrix(-0.7071 0.7071 -0.7071 -0.7071 385.3961 213.869)" style="fill:#E6E9EE;" width="31.2" height="7.2"/>
	
		<rect x="147.24" y="200.903" transform="matrix(-0.7071 0.7071 -0.7071 -0.7071 410.2999 239.0532)" style="fill:#E6E9EE;" width="16.8" height="7.2"/>
	
		<rect x="159.629" y="209.873" transform="matrix(-0.7071 0.7071 -0.7071 -0.7071 450.0824 240.5151)" style="fill:#E6E9EE;" width="31.2" height="7.2"/>
	
		<rect x="174.069" y="227.631" transform="matrix(-0.7071 0.7071 -0.7071 -0.7071 474.9986 265.7101)" style="fill:#E6E9EE;" width="16.8" height="7.2"/>
	
		<rect x="186.462" y="236.605" transform="matrix(-0.7071 0.7071 -0.7071 -0.7071 514.7908 267.176)" style="fill:#E6E9EE;" width="31.2" height="7.2"/>
	
		<rect x="200.898" y="254.347" transform="matrix(-0.7071 0.7071 -0.7071 -0.7071 539.6889 292.3465)" style="fill:#E6E9EE;" width="16.8" height="7.2"/>
	
		<rect x="212.724" y="263.353" transform="matrix(-0.7071 0.7071 -0.7071 -0.7071 578.538 294.267)" style="fill:#E6E9EE;" width="31.2" height="7.2"/>
	
		<rect x="227.443" y="280.824" transform="matrix(-0.7071 0.7071 -0.7071 -0.7071 603.7274 318.7751)" style="fill:#E6E9EE;" width="16.8" height="7.2"/>
	
		<rect x="239.553" y="290.073" transform="matrix(-0.7071 0.7071 -0.7071 -0.7071 643.2311 320.9102)" style="fill:#E6E9EE;" width="31.2" height="7.2"/>
	
		<rect x="254.264" y="307.544" transform="matrix(-0.7071 0.7071 -0.7071 -0.7071 668.4069 345.4241)" style="fill:#E6E9EE;" width="16.8" height="7.2"/>
	
		<rect x="266.386" y="316.793" transform="matrix(-0.7071 0.7071 -0.7071 -0.7071 707.931 347.5506)" style="fill:#E6E9EE;" width="31.2" height="7.2"/>
	
		<rect x="281.1" y="334.264" transform="matrix(-0.7071 0.7071 -0.7071 -0.7071 733.1136 372.0617)" style="fill:#E6E9EE;" width="16.8" height="7.2"/>
	
		<rect x="293.214" y="343.513" transform="matrix(-0.7071 0.7071 -0.7071 -0.7071 772.6242 374.1938)" style="fill:#E6E9EE;" width="31.2" height="7.2"/>
	
		<rect x="307.646" y="361.267" transform="matrix(-0.7071 0.7071 -0.7071 -0.7071 797.524 399.3877)" style="fill:#E6E9EE;" width="16.8" height="7.2"/>
	
		<rect x="320.043" y="370.233" transform="matrix(-0.7071 0.7071 -0.7071 -0.7071 837.3173 400.8371)" style="fill:#E6E9EE;" width="31.2" height="7.2"/>
	
		<rect x="334.483" y="387.987" transform="matrix(-0.7071 0.7071 -0.7071 -0.7071 862.2307 426.0253)" style="fill:#E6E9EE;" width="16.8" height="7.2"/>
</g>
<polygon style="fill:#FFFFFF;" points="138,327.6 120.8,387.2 180.4,370 184.4,366.8 141.6,324 "/>
<g>
	<polygon style="fill:#324A5E;" points="128.8,359.6 120.8,387.2 148.4,379.2  "/>
	<path style="fill:#324A5E;" d="M363.6,189.2l-14.8-14.8L169.6,353.2l0,0c-3.2,4-3.2,10,0.8,14l0,0c4,4,9.6,4,14,0.8l0,0   L363.6,189.2z"/>
</g>
<path style="fill:#2B3B4E;" d="M348.4,174.4l-14.8-14.8L154.8,338.4l0,0c-3.2,4-3.2,10,0.8,14s9.6,4,14,0.8l0,0L348.4,174.4z"/>
<path style="fill:#324A5E;" d="M333.6,159.6l-14.8-14.8L140,323.6l0,0c-3.2,4-3.2,10,0.8,14l0,0c4,4,9.6,4,14,0.8l0,0L333.6,159.6z"/>
<path style="fill:#FF7058;" d="M350.8,122.8l34,34c2.8,2.8,2.8,7.6,0,10.4l-21.6,21.6l-44.4-44.4l21.6-21.6  C343.2,120,348,120,350.8,122.8z"/>
<g>
</g>
<g>
</g>
<g>
</g>
<g>
</g>
<g>
</g>
<g>
</g>
<g>
</g>
<g>
</g>
<g>
</g>
<g>
</g>
<g>
</g>
<g>
</g>
<g>
</g>
<g>
</g>
<g>
</g>
</svg>
