<?xml version="1.0" encoding="iso-8859-1"?>
<!-- Generator: Adobe Illustrator 19.0.0, SVG Export Plug-In . SVG Version: 6.00 Build 0)  -->
<svg xmlns="http://www.w3.org/2000/svg" xmlns:xlink="http://www.w3.org/1999/xlink" version="1.1" id="Layer_1" x="0px" y="0px" viewBox="0 0 508 508" style="enable-background:new 0 0 508 508;" xml:space="preserve">
<circle style="fill:#4CDBC4;" cx="254" cy="254" r="254"/>
<polygon style="fill:#FFFFFF;" points="188.8,112.4 395.6,112.4 395.6,395.6 112.4,395.6 112.4,188.8 "/>
<path style="fill:#CED5E0;" d="M161.6,161.6v185.2h185.2V161.6H161.6z M334.8,334.8H173.2V300H262v-12h-52.4v-42.8h-12V288h-24.4  V173.2H256v54.4h-10.8v12h34v-12H268v-54.4h66.8V334.8z"/>
<g>
	<polygon style="fill:#E6E9EE;" points="188.8,188.8 112.4,188.8 188.8,112.4  "/>
	<polygon style="fill:#E6E9EE;" points="222.4,334.4 212,371.6 249.2,360.8 251.6,358.8 224.8,332  "/>
</g>
<polygon style="fill:#324A5E;" points="216.8,354.4 212,371.6 229.2,366.4 "/>
<path style="fill:#FF7058;" d="M363.6,247.6l-9.2-9.2l-112,112l0,0c-2,2.4-2,6.4,0.4,8.8l0,0c2.4,2.4,6,2.4,8.8,0.4l0,0L363.6,247.6  z"/>
<path style="fill:#F1543F;" d="M354.4,238.4l-9.2-9.2l-112,112l0,0c-2,2.4-2,6.4,0.4,8.8s6,2.4,8.8,0.4l0,0L354.4,238.4z"/>
<path style="fill:#FF7058;" d="M344.8,229.2l-9.2-9.2l-112,112l0,0c-1.6,2.4-1.6,6,0.8,8.4l0,0c2.4,2.4,6,2.4,8.8,0.4l0,0  L344.8,229.2z"/>
<path style="fill:#324A5E;" d="M355.6,206.4l21.2,21.2c2,2,2,4.8,0,6.4l-13.6,13.6l-28-28l13.6-13.6  C350.8,204.4,354,204.4,355.6,206.4z"/>
<g>
</g>
<g>
</g>
<g>
</g>
<g>
</g>
<g>
</g>
<g>
</g>
<g>
</g>
<g>
</g>
<g>
</g>
<g>
</g>
<g>
</g>
<g>
</g>
<g>
</g>
<g>
</g>
<g>
</g>
</svg>
