<?xml version="1.0" encoding="iso-8859-1"?>
<!-- Generator: Adobe Illustrator 19.0.0, SVG Export Plug-In . SVG Version: 6.00 Build 0)  -->
<svg xmlns="http://www.w3.org/2000/svg" xmlns:xlink="http://www.w3.org/1999/xlink" version="1.1" id="Layer_1" x="0px" y="0px" viewBox="0 0 508 508" style="enable-background:new 0 0 508 508;" xml:space="preserve">
<circle style="fill:#FFD05B;" cx="254" cy="254" r="254"/>
<polygon style="fill:#FFFFFF;" points="379.6,134 278.4,255.2 297.6,271.2 398.8,150 398.8,134 "/>
<path style="fill:#FF7058;" d="M415.2,316H249.6V202c0-4.4-3.6-8.4-8.4-8.4h-77.6c-2.8,0-5.2,1.2-6.8,3.6L91.2,288  c-1.2,1.6-1.6,3.2-1.6,4.8V336c0,4.4,3.6,8.4,8.4,8.4h317.2c1.6,0,3.2-1.2,3.2-3.2v-22.4C418.4,317.2,416.8,316,415.2,316z"/>
<polygon style="fill:#FFFFFF;" points="223.2,208.8 167.2,208.8 109.6,288.8 223.2,288.8 "/>
<circle style="fill:#324A5E;" cx="169.6" cy="353.2" r="32"/>
<circle style="fill:#FFFFFF;" cx="169.6" cy="353.2" r="18.4"/>
<circle style="fill:#324A5E;" cx="330" cy="353.2" r="32"/>
<circle style="fill:#FFFFFF;" cx="330" cy="353.2" r="18.4"/>
<path style="fill:#FF7058;" d="M312.4,254c-1.2-10-9.6-17.6-19.6-17.6s-18.4,7.6-19.6,17.6l-6.8,62h52.4L312.4,254z"/>
<circle style="fill:#324A5E;" cx="292.8" cy="256" r="10"/>
<rect x="89.6" y="317.6" style="fill:#FFFFFF;" width="16" height="16.4"/>
<rect x="386.4" y="138.4" style="fill:#324A5E;" width="7.6" height="108.4"/>
<path style="fill:#FF7058;" d="M396,256.4v-14.8h-11.2v19.6c0,3.2,2.4,5.6,5.6,5.6c5.2,0,9.2,4,9.2,9.2s-4,9.2-9.2,9.2  s-9.2-4-9.2-9.2c0-3.2-2.4-5.6-5.6-5.6s-5.6,2.8-5.6,5.6c0,11.2,9.2,20.4,20.4,20.4c11.2,0,20.4-9.2,20.4-20.4  C410.8,266.8,404.4,258.8,396,256.4z"/>
<polygon style="fill:#324A5E;" points="378.8,173.2 367.6,153.6 378.8,134 401.6,134 413.2,153.6 401.6,173.2 "/>
<g>
</g>
<g>
</g>
<g>
</g>
<g>
</g>
<g>
</g>
<g>
</g>
<g>
</g>
<g>
</g>
<g>
</g>
<g>
</g>
<g>
</g>
<g>
</g>
<g>
</g>
<g>
</g>
<g>
</g>
</svg>
