<?xml version="1.0" encoding="iso-8859-1"?>
<!-- Generator: Adobe Illustrator 19.0.0, SVG Export Plug-In . SVG Version: 6.00 Build 0)  -->
<svg xmlns="http://www.w3.org/2000/svg" xmlns:xlink="http://www.w3.org/1999/xlink" version="1.1" id="Layer_1" x="0px" y="0px" viewBox="0 0 508 508" style="enable-background:new 0 0 508 508;" xml:space="preserve">
<circle style="fill:#324A5E;" cx="254" cy="254" r="254"/>
<path style="fill:#FFFFFF;" d="M160.4,294.4h-55.6v-64c0-28,22.8-50.8,50.8-50.8h248v55.6H170.8c-6,0-10.4,4.8-10.4,10.4  L160.4,294.4L160.4,294.4z"/>
<path style="fill:#E6E9EE;" d="M302.8,151.6h-90c-8.8,0-15.6,7.2-15.6,15.6v79.6c0,8.8,7.2,15.6,15.6,15.6h90  c8.8,0,15.6-7.2,15.6-15.6v-79.2C318.4,158.8,311.2,151.6,302.8,151.6z"/>
<g>
	<rect x="245.2" y="104.8" style="fill:#FFFFFF;" width="24.8" height="49.2"/>
	<path style="fill:#FFFFFF;" d="M309.6,120.4H206c-4.4,0-8-3.6-8-8l0,0c0-4.4,3.6-8,8-8h103.6c4.4,0,8,3.6,8,8l0,0   C317.2,116.8,314,120.4,309.6,120.4z"/>
	<path style="fill:#FFFFFF;" d="M134,320.8c0,0-25.6,43.2-25.6,57.2s11.2,25.6,25.6,25.6s25.6-11.2,25.6-25.6   C159.2,364,134,320.8,134,320.8z"/>
</g>
<g>
</g>
<g>
</g>
<g>
</g>
<g>
</g>
<g>
</g>
<g>
</g>
<g>
</g>
<g>
</g>
<g>
</g>
<g>
</g>
<g>
</g>
<g>
</g>
<g>
</g>
<g>
</g>
<g>
</g>
</svg>
