<?xml version="1.0" encoding="iso-8859-1"?>
<!-- Generator: Adobe Illustrator 19.0.0, SVG Export Plug-In . SVG Version: 6.00 Build 0)  -->
<svg xmlns="http://www.w3.org/2000/svg" xmlns:xlink="http://www.w3.org/1999/xlink" version="1.1" id="Layer_1" x="0px" y="0px" viewBox="0 0 508 508" style="enable-background:new 0 0 508 508;" xml:space="preserve">
<circle style="fill:#90DFAA;" cx="254" cy="254" r="254"/>
<path style="fill:#FFFFFF;" d="M367.6,402c16-98.8,16-197.2,0-296H140.4c-16,98.8-16,197.2,0,296H367.6z"/>
<g>
	<path style="fill:#324A5E;" d="M370.8,106H137.2c-5.6,0-10.4,4.8-10.4,10.8s4.4,10.8,10.4,10.8h233.6c5.6,0,10.4-4.8,10.4-10.8   C381.2,110.8,376.4,106,370.8,106z"/>
	<path style="fill:#324A5E;" d="M370.8,380H137.2c-5.6,0-10.4,4.8-10.4,10.8s4.4,10.8,10.4,10.8h233.6c5.6,0,10.4-4.8,10.4-10.8   C381.2,385.2,376.4,380,370.8,380z"/>
</g>
<circle style="fill:#E6E9EE;" cx="254" cy="254" r="74.4"/>
<path style="fill:#FF7058;" d="M283.2,268.8c0,16-13.2,29.2-29.2,29.2s-29.2-13.2-29.2-29.2s29.2-59.2,29.2-59.2  S283.2,252.8,283.2,268.8z"/>
<g>
</g>
<g>
</g>
<g>
</g>
<g>
</g>
<g>
</g>
<g>
</g>
<g>
</g>
<g>
</g>
<g>
</g>
<g>
</g>
<g>
</g>
<g>
</g>
<g>
</g>
<g>
</g>
<g>
</g>
</svg>
