<?xml version="1.0" encoding="iso-8859-1"?>
<!-- Generator: Adobe Illustrator 19.0.0, SVG Export Plug-In . SVG Version: 6.00 Build 0)  -->
<svg xmlns="http://www.w3.org/2000/svg" xmlns:xlink="http://www.w3.org/1999/xlink" version="1.1" id="Layer_1" x="0px" y="0px" viewBox="0 0 508 508" style="enable-background:new 0 0 508 508;" xml:space="preserve">
<circle style="fill:#FD8469;" cx="254" cy="254" r="254"/>
<rect x="257.292" y="145.971" transform="matrix(-0.7071 -0.7071 0.7071 -0.7071 293.4292 596.6819)" style="fill:#FFFFFF;" width="26" height="183.198"/>
<path style="fill:#324A5E;" d="M158,254.8L134.8,278C104,308.8,94,355.6,109.6,398l0,0c42.4,15.6,88.8,6,120-25.2l23.2-23.2  L158,254.8z"/>
<path style="fill:#FFFFFF;" d="M403.2,166.4l-61.6-61.6c-3.6-3.6-9.2-3.2-12.4,0.8c-19.2,24.4-20.8,56.8-2,75.2  c18.4,18.4,50.8,17.2,75.2-2C406.4,175.6,406.8,170,403.2,166.4z M338.4,169.6c-10.8-10.8-11.2-30-1.6-47.2l48.8,48.8  C368.4,180.8,349.2,180.8,338.4,169.6z"/>
<path style="fill:#324A5E;" d="M391.6,149.6l-33.2-33.2c-1.2-1.2-3.2-1.2-4.4,0l-12.4,12.4c-1.2,1.2-1.2,3.2,0,4.4l33.2,33.2  c1.2,1.2,3.2,1.2,4.4,0l12.4-12.4C393.2,152.8,393.2,150.8,391.6,149.6z"/>
<g>
</g>
<g>
</g>
<g>
</g>
<g>
</g>
<g>
</g>
<g>
</g>
<g>
</g>
<g>
</g>
<g>
</g>
<g>
</g>
<g>
</g>
<g>
</g>
<g>
</g>
<g>
</g>
<g>
</g>
</svg>
