<?xml version="1.0" encoding="iso-8859-1"?>
<!-- Generator: Adobe Illustrator 19.0.0, SVG Export Plug-In . SVG Version: 6.00 Build 0)  -->
<svg xmlns="http://www.w3.org/2000/svg" xmlns:xlink="http://www.w3.org/1999/xlink" version="1.1" id="Layer_1" x="0px" y="0px" viewBox="0 0 508 508" style="enable-background:new 0 0 508 508;" xml:space="preserve">
<circle style="fill:#54C0EB;" cx="254" cy="254" r="254"/>
<g>
	<path style="fill:#FFFFFF;" d="M167.2,211.6H93.6c-5.6,0-10-4.4-10-10V158c0-5.6,4.4-10,10-10h73.6c5.6,0,10,4.4,10,10v43.6   C177.2,207.2,172.8,211.6,167.2,211.6z"/>
	<path style="fill:#FFFFFF;" d="M414.4,211.6h-73.6c-5.6,0-10-4.4-10-10V158c0-5.6,4.4-10,10-10h73.6c5.6,0,10,4.4,10,10v43.6   C424.4,207.2,420,211.6,414.4,211.6z"/>
	<path style="fill:#FFFFFF;" d="M310,211.6H198c-5.6,0-10-4.4-10-10V158c0-5.6,4.4-10,10-10h112c5.6,0,10,4.4,10,10v43.6   C320,207.2,315.6,211.6,310,211.6z"/>
	<path style="fill:#FFFFFF;" d="M167.2,360H93.6c-5.6,0-10-4.4-10-10v-43.6c0-5.6,4.4-10,10-10h73.6c5.6,0,10,4.4,10,10V350   C177.2,355.6,172.8,360,167.2,360z"/>
	<path style="fill:#FFFFFF;" d="M414.4,360h-73.6c-5.6,0-10-4.4-10-10v-43.6c0-5.6,4.4-10,10-10h73.6c5.6,0,10,4.4,10,10V350   C424.4,355.6,420,360,414.4,360z"/>
	<path style="fill:#FFFFFF;" d="M310,360H198c-5.6,0-10-4.4-10-10v-43.6c0-5.6,4.4-10,10-10h112c5.6,0,10,4.4,10,10V350   C320,355.6,315.6,360,310,360z"/>
	<path style="fill:#FFFFFF;" d="M236,285.6H93.6c-5.6,0-10-4.4-10-10V232c0-5.6,4.4-10,10-10H236c5.6,0,10,4.4,10,10v43.6   C246,281.2,241.6,285.6,236,285.6z"/>
	<path style="fill:#FFFFFF;" d="M414.4,285.6H266.8c-5.6,0-10-4.4-10-10V232c0-5.6,4.4-10,10-10H414c5.6,0,10,4.4,10,10v43.6   C424.4,281.2,420,285.6,414.4,285.6z"/>
</g>
<g>
</g>
<g>
</g>
<g>
</g>
<g>
</g>
<g>
</g>
<g>
</g>
<g>
</g>
<g>
</g>
<g>
</g>
<g>
</g>
<g>
</g>
<g>
</g>
<g>
</g>
<g>
</g>
<g>
</g>
</svg>
