<?xml version="1.0" encoding="iso-8859-1"?>
<!-- Generator: Adobe Illustrator 19.0.0, SVG Export Plug-In . SVG Version: 6.00 Build 0)  -->
<svg xmlns="http://www.w3.org/2000/svg" xmlns:xlink="http://www.w3.org/1999/xlink" version="1.1" id="Layer_1" x="0px" y="0px" viewBox="0 0 508 508" style="enable-background:new 0 0 508 508;" xml:space="preserve">
<circle style="fill:#324A5E;" cx="254" cy="254" r="254"/>
<circle style="fill:#FFFFFF;" cx="244.4" cy="175.2" r="73.6"/>
<path style="fill:#FFD05B;" d="M326.4,152.4c-5.6-40-40.4-71.2-82-71.2s-76.4,30.8-82,71.2H326.4z"/>
<g>
	<rect x="152.4" y="152.4" style="fill:#F9B54C;" width="184.4" height="22.4"/>
	<path style="fill:#F9B54C;" d="M266.8,136.4v-52c-7.2-2-14.4-3.2-22-3.2s-15.2,1.2-22,3.2V136h44V136.4z"/>
</g>
<circle style="fill:#FFFFFF;" cx="244.4" cy="112.8" r="14.4"/>
<circle style="fill:#54C0EB;" cx="244.4" cy="112.8" r="8.8"/>
<path style="fill:#FFFFFF;" d="M389.2,402c-6.4-74.4-68.8-132.8-144.8-132.8S106.4,327.6,100,402H389.2z"/>
<path style="fill:#FF7058;" d="M318.8,289.6c-7.6-4.4-15.6-8.4-24.4-11.6v45.6h-100V278c-8.4,3.2-16.8,6.8-24.4,11.6V402h148.4  V289.6H318.8z"/>
<g>
</g>
<g>
</g>
<g>
</g>
<g>
</g>
<g>
</g>
<g>
</g>
<g>
</g>
<g>
</g>
<g>
</g>
<g>
</g>
<g>
</g>
<g>
</g>
<g>
</g>
<g>
</g>
<g>
</g>
</svg>
