<?xml version="1.0" encoding="iso-8859-1"?>
<!-- Generator: Adobe Illustrator 19.0.0, SVG Export Plug-In . SVG Version: 6.00 Build 0)  -->
<svg xmlns="http://www.w3.org/2000/svg" xmlns:xlink="http://www.w3.org/1999/xlink" version="1.1" id="Layer_1" x="0px" y="0px" viewBox="0 0 508 508" style="enable-background:new 0 0 508 508;" xml:space="preserve">
<circle style="fill:#84DBFF;" cx="254" cy="254" r="254"/>
<g>
	<rect x="214.8" y="61.2" style="fill:#324A5E;" width="18" height="89.2"/>
	<rect x="275.2" y="61.2" style="fill:#324A5E;" width="18" height="89.2"/>
	<path style="fill:#324A5E;" d="M271.6,319.2l-4-1.2v-49.6h-27.2v62c0,7.6,6,13.6,13.6,13.6c20.8,0,37.6,16.8,37.6,37.6   c0,20.8-16.8,37.6-37.6,37.6s-37.6-16.8-37.6-37.6c0-7.6-6-13.6-13.6-13.6s-13.6,6-13.6,13.6c0,35.6,29.2,64.8,64.8,64.8   s64.8-29.2,64.8-64.8C318.8,352.8,299.6,327.2,271.6,319.2z"/>
</g>
<polygon style="fill:#FFFFFF;" points="204.4,283.2 154.8,197.2 204.4,111.2 303.6,111.2 353.2,197.2 303.6,283.2 "/>
<circle style="fill:#E6E9EE;" cx="254" cy="197.2" r="34"/>
<g>
</g>
<g>
</g>
<g>
</g>
<g>
</g>
<g>
</g>
<g>
</g>
<g>
</g>
<g>
</g>
<g>
</g>
<g>
</g>
<g>
</g>
<g>
</g>
<g>
</g>
<g>
</g>
<g>
</g>
</svg>
