<?xml version="1.0" encoding="iso-8859-1"?>
<!-- Generator: Adobe Illustrator 19.0.0, SVG Export Plug-In . SVG Version: 6.00 Build 0)  -->
<svg xmlns="http://www.w3.org/2000/svg" xmlns:xlink="http://www.w3.org/1999/xlink" version="1.1" id="Layer_1" x="0px" y="0px" viewBox="0 0 508 508" style="enable-background:new 0 0 508 508;" xml:space="preserve">
<circle style="fill:#324A5E;" cx="254" cy="254" r="254"/>
<path style="fill:#4CDBC4;" d="M366.2,286.6H260V147.8c0-3.3-2.7-6-6-6s-6,2.7-6,6v138.8H141.8c-3.3,0-6,2.7-6,6v87.6  c0,3.3,2.7,6,6,6s6-2.7,6-6v-81.7H248V372c0,3.3,2.7,6,6,6c3.3,0,6-2.7,6-6v-73.5h100.3v85.9c0,3.3,2.7,6,6,6s6-2.7,6-6v-91.8  C372.1,289.3,369.4,286.6,366.2,286.6z"/>
<g>
	<path style="fill:#FFFFFF;" d="M339.6,85.2H168.4c-6,0-10.9,4.9-10.9,10.9v103.3c0,6,4.9,10.9,10.9,10.9h171.3   c6,0,10.9-4.9,10.9-10.9V96.1C350.6,90.1,345.7,85.2,339.6,85.2z"/>
	<path style="fill:#FFFFFF;" d="M173.5,406.9h-63.3c-1.9,0-3.5-1.6-3.5-3.5V357c0-1.9,1.6-3.5,3.5-3.5h63.3c1.9,0,3.5,1.6,3.5,3.5   v46.5C177,405.4,175.4,406.9,173.5,406.9z"/>
	<path style="fill:#FFFFFF;" d="M285.6,406.9h-63.3c-1.9,0-3.5-1.6-3.5-3.5V357c0-1.9,1.6-3.5,3.5-3.5h63.3c1.9,0,3.5,1.6,3.5,3.5   v46.5C289.2,405.4,287.6,406.9,285.6,406.9z"/>
	<path style="fill:#FFFFFF;" d="M397.8,406.9h-63.3c-1.9,0-3.5-1.6-3.5-3.5V357c0-1.9,1.6-3.5,3.5-3.5h63.3c1.9,0,3.5,1.6,3.5,3.5   v46.5C401.3,405.4,399.7,406.9,397.8,406.9z"/>
</g>
<g>
	<rect x="188.5" y="111.1" style="fill:#E6E9EE;" width="131.1" height="14"/>
	<rect x="188.5" y="140.7" style="fill:#E6E9EE;" width="131.1" height="14"/>
	<rect x="188.5" y="170.4" style="fill:#E6E9EE;" width="131.1" height="14"/>
</g>
<g>
</g>
<g>
</g>
<g>
</g>
<g>
</g>
<g>
</g>
<g>
</g>
<g>
</g>
<g>
</g>
<g>
</g>
<g>
</g>
<g>
</g>
<g>
</g>
<g>
</g>
<g>
</g>
<g>
</g>
</svg>
