<?xml version="1.0" encoding="iso-8859-1"?>
<!-- Generator: Adobe Illustrator 19.0.0, SVG Export Plug-In . SVG Version: 6.00 Build 0)  -->
<svg xmlns="http://www.w3.org/2000/svg" xmlns:xlink="http://www.w3.org/1999/xlink" version="1.1" id="Layer_1" x="0px" y="0px" viewBox="0 0 508 508" style="enable-background:new 0 0 508 508;" xml:space="preserve">
<circle style="fill:#90DFAA;" cx="254" cy="254" r="254"/>
<path style="fill:#324A5E;" d="M334.2,69.3H173.8c-16.7,0-30.2,13.5-30.2,30.2v309.1c0,16.7,13.5,30.2,30.2,30.2h160.5  c16.7,0,30.2-13.5,30.2-30.2V99.4C364.4,82.8,350.9,69.3,334.2,69.3z"/>
<rect x="154.8" y="111.9" style="fill:#FFFFFF;" width="198.4" height="282.1"/>
<g>
	<circle style="fill:#ACB3BA;" cx="322" cy="83.6" r="4.8"/>
	<path style="fill:#ACB3BA;" d="M277,88.4h-46c-1.3,0-2.4-1.1-2.4-2.4l0,0c0-1.3,1.1-2.4,2.4-2.4h46c1.3,0,2.4,1.1,2.4,2.4l0,0   C279.4,87.3,278.3,88.4,277,88.4z"/>
	<circle style="fill:#ACB3BA;" cx="289.9" cy="85.4" r="3.1"/>
	<circle style="fill:#ACB3BA;" cx="297.5" cy="85.4" r="3.1"/>
	<circle style="fill:#ACB3BA;" cx="199.9" cy="87" r="3.4"/>
	<path style="fill:#ACB3BA;" d="M272.9,422.4h-37.7c-3.7,0-6.7-3-6.7-6.7l0,0c0-3.7,3-6.7,6.7-6.7h37.7c3.7,0,6.7,3,6.7,6.7l0,0   C279.6,419.4,276.6,422.4,272.9,422.4z"/>
	<path style="fill:#ACB3BA;" d="M332.2,416.6c0,2.8-2.3,5.1-5,5.1h-15V420h15c1.9,0,3.4-1.5,3.4-3.4s-1.5-3.4-3.4-3.4h-12.3v1.8   l-2.7-2.7l2.7-2.7v1.8h12.3C329.9,411.5,332.2,413.8,332.2,416.6z"/>
	<path style="fill:#ACB3BA;" d="M200.1,407.6h-21.3v4.2h-2.9v11.9h21.3v-4.2h2.9V407.6z M195.7,422.2h-18.3v-8.9h1.4h16.9v6.3   L195.7,422.2L195.7,422.2z M198.6,418h-1.4v-6.3h-16.9V409h18.3L198.6,418L198.6,418z"/>
</g>
<g>
	<path style="fill:#54C0EB;" d="M181.2,132.2h9.6v23.6h-5.1v-19.1h-4.5V132.2z"/>
	<path style="fill:#54C0EB;" d="M205.4,156.1c-3.3,0-5.7-1.1-7.3-3.3s-2.4-5.2-2.4-8.9s0.8-6.7,2.4-8.9c1.6-2.2,4.1-3.3,7.3-3.3   s5.7,1.1,7.3,3.3s2.4,5.2,2.4,8.9s-0.8,6.7-2.4,8.9S208.7,156.1,205.4,156.1z M201.9,138.2c-0.7,1.4-1.1,3.3-1.1,5.7   s0.4,4.3,1.1,5.7c0.7,1.4,1.9,2.2,3.5,2.2s2.7-0.7,3.5-2.2c0.7-1.4,1.1-3.3,1.1-5.7s-0.4-4.3-1.1-5.7c-0.7-1.4-1.9-2.2-3.5-2.2   C203.8,136,202.7,136.8,201.9,138.2z"/>
	<path style="fill:#54C0EB;" d="M218.1,132.2h9.6v23.6h-5.1v-19.1h-4.5V132.2z"/>
	<path style="fill:#54C0EB;" d="M242.3,156.1c-3.3,0-5.7-1.1-7.3-3.3s-2.4-5.2-2.4-8.9s0.8-6.7,2.4-8.9c1.6-2.2,4.1-3.3,7.3-3.3   c3.3,0,5.7,1.1,7.3,3.3s2.4,5.2,2.4,8.9s-0.8,6.7-2.4,8.9C248.1,155,245.6,156.1,242.3,156.1z M238.9,138.2   c-0.7,1.4-1.1,3.3-1.1,5.7s0.4,4.3,1.1,5.7c0.7,1.4,1.9,2.2,3.5,2.2s2.7-0.7,3.5-2.2c0.7-1.4,1.1-3.3,1.1-5.7s-0.4-4.3-1.1-5.7   c-0.7-1.4-1.9-2.2-3.5-2.2C240.8,136,239.6,136.8,238.9,138.2z"/>
	<path style="fill:#54C0EB;" d="M255,132.2h9.6v23.6h-5.1v-19.1H255V132.2z"/>
	<path style="fill:#54C0EB;" d="M279.3,156.1c-3.3,0-5.7-1.1-7.3-3.3c-1.6-2.2-2.4-5.2-2.4-8.9s0.8-6.7,2.4-8.9s4.1-3.3,7.3-3.3   c3.3,0,5.7,1.1,7.3,3.3c1.6,2.2,2.4,5.2,2.4,8.9s-0.8,6.7-2.4,8.9C285,155,282.5,156.1,279.3,156.1z M275.8,138.2   c-0.7,1.4-1.1,3.3-1.1,5.7s0.4,4.3,1.1,5.7s1.9,2.2,3.5,2.2s2.7-0.7,3.5-2.2c0.7-1.4,1.1-3.3,1.1-5.7s-0.4-4.3-1.1-5.7   s-1.9-2.2-3.5-2.2C277.7,136,276.5,136.8,275.8,138.2z"/>
	<path style="fill:#54C0EB;" d="M292,132.2h9.6v23.6h-5.1v-19.1H292V132.2z"/>
	<path style="fill:#54C0EB;" d="M316.2,156.1c-3.3,0-5.7-1.1-7.3-3.3c-1.6-2.2-2.4-5.2-2.4-8.9s0.8-6.7,2.4-8.9s4.1-3.3,7.3-3.3   c3.3,0,5.7,1.1,7.3,3.3c1.6,2.2,2.4,5.2,2.4,8.9s-0.8,6.7-2.4,8.9S319.5,156.1,316.2,156.1z M312.7,138.2c-0.7,1.4-1.1,3.3-1.1,5.7   s0.4,4.3,1.1,5.7s1.9,2.2,3.5,2.2s2.7-0.7,3.5-2.2c0.7-1.4,1.1-3.3,1.1-5.7s-0.4-4.3-1.1-5.7s-1.9-2.2-3.5-2.2   S313.5,136.8,312.7,138.2z"/>
	<path style="fill:#54C0EB;" d="M181.2,172.8h9.6v23.6h-5.1v-19.1h-4.5V172.8z"/>
	<path style="fill:#54C0EB;" d="M205.4,196.6c-3.3,0-5.7-1.1-7.3-3.3s-2.4-5.2-2.4-8.9s0.8-6.7,2.4-8.9c1.6-2.2,4.1-3.3,7.3-3.3   s5.7,1.1,7.3,3.3s2.4,5.2,2.4,8.9s-0.8,6.7-2.4,8.9S208.7,196.6,205.4,196.6z M201.9,178.7c-0.7,1.4-1.1,3.3-1.1,5.7   s0.4,4.3,1.1,5.7c0.7,1.4,1.9,2.2,3.5,2.2s2.7-0.7,3.5-2.2c0.7-1.4,1.1-3.3,1.1-5.7s-0.4-4.3-1.1-5.7s-1.9-2.2-3.5-2.2   C203.8,176.6,202.7,177.3,201.9,178.7z"/>
	<path style="fill:#54C0EB;" d="M228.7,196.6c-3.3,0-5.7-1.1-7.3-3.3s-2.4-5.2-2.4-8.9s0.8-6.7,2.4-8.9c1.6-2.2,4.1-3.3,7.3-3.3   s5.7,1.1,7.3,3.3s2.4,5.2,2.4,8.9s-0.8,6.7-2.4,8.9C234.4,195.5,232,196.6,228.7,196.6z M225.2,178.7c-0.7,1.4-1.1,3.3-1.1,5.7   s0.4,4.3,1.1,5.7c0.7,1.4,1.9,2.2,3.5,2.2s2.7-0.7,3.5-2.2c0.7-1.4,1.1-3.3,1.1-5.7s-0.4-4.3-1.1-5.7s-1.9-2.2-3.5-2.2   C227.2,176.6,226,177.3,225.2,178.7z"/>
	<path style="fill:#54C0EB;" d="M241.4,172.8h9.6v23.6h-5.1v-19.1h-4.5V172.8z"/>
	<path style="fill:#54C0EB;" d="M265.7,196.6c-3.3,0-5.7-1.1-7.3-3.3c-1.6-2.2-2.4-5.2-2.4-8.9s0.8-6.7,2.4-8.9s4.1-3.3,7.3-3.3   c3.3,0,5.7,1.1,7.3,3.3c1.6,2.2,2.4,5.2,2.4,8.9s-0.8,6.7-2.4,8.9S268.9,196.6,265.7,196.6z M262.2,178.7c-0.7,1.4-1.1,3.3-1.1,5.7   s0.4,4.3,1.1,5.7s1.9,2.2,3.5,2.2s2.7-0.7,3.5-2.2c0.7-1.4,1.1-3.3,1.1-5.7s-0.4-4.3-1.1-5.7s-1.9-2.2-3.5-2.2   C264.1,176.6,262.9,177.3,262.2,178.7z"/>
	<path style="fill:#54C0EB;" d="M278.4,172.8h9.6v23.6h-5.1v-19.1h-4.5V172.8z"/>
	<path style="fill:#54C0EB;" d="M181.2,213.3h9.6v23.6h-5.1v-19.1h-4.5V213.3z"/>
	<path style="fill:#54C0EB;" d="M205.4,237.2c-3.3,0-5.7-1.1-7.3-3.3s-2.4-5.2-2.4-8.9s0.8-6.7,2.4-8.9c1.6-2.2,4.1-3.3,7.3-3.3   s5.7,1.1,7.3,3.3s2.4,5.2,2.4,8.9s-0.8,6.7-2.4,8.9C211.1,236.1,208.7,237.2,205.4,237.2z M201.9,219.3c-0.7,1.4-1.1,3.3-1.1,5.7   s0.4,4.3,1.1,5.7c0.7,1.4,1.9,2.2,3.5,2.2s2.7-0.7,3.5-2.2c0.7-1.4,1.1-3.3,1.1-5.7s-0.4-4.3-1.1-5.7c-0.7-1.4-1.9-2.2-3.5-2.2   C203.8,217.1,202.7,217.8,201.9,219.3z"/>
	<path style="fill:#54C0EB;" d="M218.1,213.3h9.6v23.6h-5.1v-19.1h-4.5V213.3z"/>
	<path style="fill:#54C0EB;" d="M242.3,237.2c-3.3,0-5.7-1.1-7.3-3.3s-2.4-5.2-2.4-8.9s0.8-6.7,2.4-8.9c1.6-2.2,4.1-3.3,7.3-3.3   c3.3,0,5.7,1.1,7.3,3.3s2.4,5.2,2.4,8.9s-0.8,6.7-2.4,8.9C248.1,236.1,245.6,237.2,242.3,237.2z M238.9,219.3   c-0.7,1.4-1.1,3.3-1.1,5.7s0.4,4.3,1.1,5.7c0.7,1.4,1.9,2.2,3.5,2.2s2.7-0.7,3.5-2.2c0.7-1.4,1.1-3.3,1.1-5.7s-0.4-4.3-1.1-5.7   c-0.7-1.4-1.9-2.2-3.5-2.2C240.8,217.1,239.6,217.8,238.9,219.3z"/>
	<path style="fill:#54C0EB;" d="M255,213.3h9.6v23.6h-5.1v-19.1H255V213.3z"/>
	<path style="fill:#54C0EB;" d="M279.3,237.2c-3.3,0-5.7-1.1-7.3-3.3c-1.6-2.2-2.4-5.2-2.4-8.9s0.8-6.7,2.4-8.9s4.1-3.3,7.3-3.3   c3.3,0,5.7,1.1,7.3,3.3c1.6,2.2,2.4,5.2,2.4,8.9s-0.8,6.7-2.4,8.9C285,236.1,282.5,237.2,279.3,237.2z M275.8,219.3   c-0.7,1.4-1.1,3.3-1.1,5.7s0.4,4.3,1.1,5.7s1.9,2.2,3.5,2.2s2.7-0.7,3.5-2.2c0.7-1.4,1.1-3.3,1.1-5.7s-0.4-4.3-1.1-5.7   s-1.9-2.2-3.5-2.2C277.7,217.1,276.5,217.8,275.8,219.3z"/>
	<path style="fill:#54C0EB;" d="M292,213.3h9.6v23.6h-5.1v-19.1H292V213.3z"/>
	<path style="fill:#54C0EB;" d="M181.2,253.8h9.6v23.6h-5.1v-19.1h-4.5V253.8z"/>
	<path style="fill:#54C0EB;" d="M205.4,277.7c-3.3,0-5.7-1.1-7.3-3.3c-1.6-2.2-2.4-5.2-2.4-8.9c0-3.7,0.8-6.7,2.4-8.9   c1.6-2.2,4.1-3.3,7.3-3.3s5.7,1.1,7.3,3.3s2.4,5.2,2.4,8.9c0,3.7-0.8,6.7-2.4,8.9S208.7,277.7,205.4,277.7z M201.9,259.8   c-0.7,1.4-1.1,3.3-1.1,5.7c0,2.4,0.4,4.3,1.1,5.7c0.7,1.4,1.9,2.2,3.5,2.2s2.7-0.7,3.5-2.2c0.7-1.4,1.1-3.3,1.1-5.7   c0-2.4-0.4-4.3-1.1-5.7c-0.7-1.4-1.9-2.2-3.5-2.2C203.8,257.7,202.7,258.4,201.9,259.8z"/>
	<path style="fill:#54C0EB;" d="M218.1,253.8h9.6v23.6h-5.1v-19.1h-4.5V253.8z"/>
	<path style="fill:#54C0EB;" d="M242.3,277.7c-3.3,0-5.7-1.1-7.3-3.3c-1.6-2.2-2.4-5.2-2.4-8.9c0-3.7,0.8-6.7,2.4-8.9   c1.6-2.2,4.1-3.3,7.3-3.3c3.3,0,5.7,1.1,7.3,3.3s2.4,5.2,2.4,8.9c0,3.7-0.8,6.7-2.4,8.9C248.1,276.6,245.6,277.7,242.3,277.7z    M238.9,259.8c-0.7,1.4-1.1,3.3-1.1,5.7c0,2.4,0.4,4.3,1.1,5.7c0.7,1.4,1.9,2.2,3.5,2.2s2.7-0.7,3.5-2.2c0.7-1.4,1.1-3.3,1.1-5.7   c0-2.4-0.4-4.3-1.1-5.7c-0.7-1.4-1.9-2.2-3.5-2.2C240.8,257.7,239.6,258.4,238.9,259.8z"/>
	<path style="fill:#54C0EB;" d="M255,253.8h9.6v23.6h-5.1v-19.1H255V253.8z"/>
	<path style="fill:#54C0EB;" d="M279.3,277.7c-3.3,0-5.7-1.1-7.3-3.3c-1.6-2.2-2.4-5.2-2.4-8.9c0-3.7,0.8-6.7,2.4-8.9   c1.6-2.2,4.1-3.3,7.3-3.3c3.3,0,5.7,1.1,7.3,3.3c1.6,2.2,2.4,5.2,2.4,8.9c0,3.7-0.8,6.7-2.4,8.9C285,276.6,282.5,277.7,279.3,277.7   z M275.8,259.8c-0.7,1.4-1.1,3.3-1.1,5.7c0,2.4,0.4,4.3,1.1,5.7c0.7,1.4,1.9,2.2,3.5,2.2s2.7-0.7,3.5-2.2c0.7-1.4,1.1-3.3,1.1-5.7   c0-2.4-0.4-4.3-1.1-5.7c-0.7-1.4-1.9-2.2-3.5-2.2C277.7,257.7,276.5,258.4,275.8,259.8z"/>
	<path style="fill:#54C0EB;" d="M181.2,294.4h9.6V318h-5.1v-19.1h-4.5V294.4z"/>
	<path style="fill:#54C0EB;" d="M205.4,318.3c-3.3,0-5.7-1.1-7.3-3.3c-1.6-2.2-2.4-5.2-2.4-8.9c0-3.7,0.8-6.7,2.4-8.9   c1.6-2.2,4.1-3.3,7.3-3.3s5.7,1.1,7.3,3.3c1.6,2.2,2.4,5.2,2.4,8.9c0,3.7-0.8,6.7-2.4,8.9C211.1,317.2,208.7,318.3,205.4,318.3z    M201.9,300.4c-0.7,1.4-1.1,3.3-1.1,5.7c0,2.4,0.4,4.3,1.1,5.7c0.7,1.4,1.9,2.2,3.5,2.2s2.7-0.7,3.5-2.2c0.7-1.4,1.1-3.3,1.1-5.7   c0-2.4-0.4-4.3-1.1-5.7c-0.7-1.4-1.9-2.2-3.5-2.2C203.8,298.2,202.7,298.9,201.9,300.4z"/>
	<path style="fill:#54C0EB;" d="M218.1,294.4h9.6V318h-5.1v-19.1h-4.5V294.4z"/>
	<path style="fill:#54C0EB;" d="M242.3,318.3c-3.3,0-5.7-1.1-7.3-3.3c-1.6-2.2-2.4-5.2-2.4-8.9c0-3.7,0.8-6.7,2.4-8.9   c1.6-2.2,4.1-3.3,7.3-3.3c3.3,0,5.7,1.1,7.3,3.3c1.6,2.2,2.4,5.2,2.4,8.9c0,3.7-0.8,6.7-2.4,8.9   C248.1,317.2,245.6,318.3,242.3,318.3z M238.9,300.4c-0.7,1.4-1.1,3.3-1.1,5.7c0,2.4,0.4,4.3,1.1,5.7c0.7,1.4,1.9,2.2,3.5,2.2   s2.7-0.7,3.5-2.2c0.7-1.4,1.1-3.3,1.1-5.7c0-2.4-0.4-4.3-1.1-5.7c-0.7-1.4-1.9-2.2-3.5-2.2C240.8,298.2,239.6,298.9,238.9,300.4z"/>
	<path style="fill:#54C0EB;" d="M255,294.4h9.6V318h-5.1v-19.1H255V294.4z"/>
	<path style="fill:#54C0EB;" d="M279.3,318.3c-3.3,0-5.7-1.1-7.3-3.3c-1.6-2.2-2.4-5.2-2.4-8.9c0-3.7,0.8-6.7,2.4-8.9   c1.6-2.2,4.1-3.3,7.3-3.3c3.3,0,5.7,1.1,7.3,3.3c1.6,2.2,2.4,5.2,2.4,8.9c0,3.7-0.8,6.7-2.4,8.9C285,317.2,282.5,318.3,279.3,318.3   z M275.8,300.4c-0.7,1.4-1.1,3.3-1.1,5.7c0,2.4,0.4,4.3,1.1,5.7c0.7,1.4,1.9,2.2,3.5,2.2s2.7-0.7,3.5-2.2c0.7-1.4,1.1-3.3,1.1-5.7   c0-2.4-0.4-4.3-1.1-5.7c-0.7-1.4-1.9-2.2-3.5-2.2C277.7,298.2,276.5,298.9,275.8,300.4z"/>
	<path style="fill:#54C0EB;" d="M292,294.4h9.6V318h-5.1v-19.1H292V294.4z"/>
	<path style="fill:#54C0EB;" d="M316.2,318.3c-3.3,0-5.7-1.1-7.3-3.3c-1.6-2.2-2.4-5.2-2.4-8.9c0-3.7,0.8-6.7,2.4-8.9   c1.6-2.2,4.1-3.3,7.3-3.3c3.3,0,5.7,1.1,7.3,3.3c1.6,2.2,2.4,5.2,2.4,8.9c0,3.7-0.8,6.7-2.4,8.9   C321.9,317.2,319.5,318.3,316.2,318.3z M312.7,300.4c-0.7,1.4-1.1,3.3-1.1,5.7c0,2.4,0.4,4.3,1.1,5.7c0.7,1.4,1.9,2.2,3.5,2.2   s2.7-0.7,3.5-2.2c0.7-1.4,1.1-3.3,1.1-5.7c0-2.4-0.4-4.3-1.1-5.7c-0.7-1.4-1.9-2.2-3.5-2.2C314.6,298.2,313.5,298.9,312.7,300.4z"/>
</g>
<g>
</g>
<g>
</g>
<g>
</g>
<g>
</g>
<g>
</g>
<g>
</g>
<g>
</g>
<g>
</g>
<g>
</g>
<g>
</g>
<g>
</g>
<g>
</g>
<g>
</g>
<g>
</g>
<g>
</g>
</svg>
