<?xml version="1.0" encoding="iso-8859-1"?>
<!-- Generator: Adobe Illustrator 19.0.0, SVG Export Plug-In . SVG Version: 6.00 Build 0)  -->
<svg xmlns="http://www.w3.org/2000/svg" xmlns:xlink="http://www.w3.org/1999/xlink" version="1.1" id="Layer_1" x="0px" y="0px" viewBox="0 0 508 508" style="enable-background:new 0 0 508 508;" xml:space="preserve">
<circle style="fill:#FFD05B;" cx="254" cy="254" r="254"/>
<path style="fill:#324A5E;" d="M404.9,113.7H103.1c-9,0-16.2,7.3-16.2,16.2v210.5c0,9,7.3,16.2,16.2,16.2H405  c9,0,16.2-7.3,16.2-16.2V129.9C421.2,120.9,413.9,113.7,404.9,113.7z"/>
<g>
	<path style="fill:#FFFFFF;" d="M405.9,331.3V140.1c0-0.6-0.5-1.2-1.2-1.2H103.3c-0.6,0-1.2,0.5-1.2,1.2v191.2H405.9z"/>
	<path style="fill:#FFFFFF;" d="M418.6,394.3H89.4c-14.1,0-25.5-11.4-25.5-25.5l0,0h380l0,0C444,382.9,432.6,394.3,418.6,394.3z"/>
</g>
<polygon style="fill:#E6E9EE;" points="306.9,369.1 201.1,369.1 211.5,375.4 296.5,375.4 "/>
<rect x="361.4" y="175.7" style="fill:#FF7058;" width="25.8" height="140.2"/>
<rect x="321.3" y="212.2" style="fill:#84DBFF;" width="25.8" height="103.7"/>
<rect x="281.2" y="195.9" style="fill:#E6E9EE;" width="25.8" height="120"/>
<rect x="241.1" y="186.4" style="fill:#4CDBC4;" width="25.8" height="129.5"/>
<rect x="201" y="212.2" style="fill:#FF7058;" width="25.8" height="103.7"/>
<rect x="160.9" y="242.7" style="fill:#84DBFF;" width="25.8" height="73.2"/>
<rect x="120.8" y="263.3" style="fill:#4CDBC4;" width="25.8" height="52.6"/>
<g>
</g>
<g>
</g>
<g>
</g>
<g>
</g>
<g>
</g>
<g>
</g>
<g>
</g>
<g>
</g>
<g>
</g>
<g>
</g>
<g>
</g>
<g>
</g>
<g>
</g>
<g>
</g>
<g>
</g>
</svg>
