<?xml version="1.0" encoding="iso-8859-1"?>
<!-- Generator: Adobe Illustrator 19.0.0, SVG Export Plug-In . SVG Version: 6.00 Build 0)  -->
<svg xmlns="http://www.w3.org/2000/svg" xmlns:xlink="http://www.w3.org/1999/xlink" version="1.1" id="Layer_1" x="0px" y="0px" viewBox="0 0 508 508" style="enable-background:new 0 0 508 508;" xml:space="preserve">
<circle style="fill:#FD8469;" cx="254" cy="254" r="254"/>
<g>
	<path style="fill:#324A5E;" d="M334.1,412.4H173.9c-4.6,0-8.4-3.8-8.4-8.4l0,0c0-4.6,3.8-8.4,8.4-8.4h160.2c4.6,0,8.4,3.8,8.4,8.4   l0,0C342.5,408.6,338.8,412.4,334.1,412.4z"/>
	<path style="fill:#324A5E;" d="M262.4,394.5v-70.6c0-4.6-3.8-8.4-8.4-8.4l0,0c-4.6,0-8.4,3.8-8.4,8.4v70.6c0,4.6,3.8,8.4,8.4,8.4   l0,0C258.6,402.9,262.4,399.1,262.4,394.5z"/>
</g>
<circle style="fill:#FFFFFF;" cx="254" cy="404" r="22.6"/>
<rect x="106.7" y="149.8" style="fill:#324A5E;" width="294.6" height="155.4"/>
<g>
	<path style="fill:#FFFFFF;" d="M411.1,175.4H96.9c-2.1,0-3.7-1.7-3.7-3.7v-60.5c0-2.1,1.7-3.7,3.7-3.7h314.2c2.1,0,3.7,1.7,3.7,3.7   v60.5C414.8,173.8,413.1,175.4,411.1,175.4z"/>
	<path style="fill:#FFFFFF;" d="M411.1,261.5H96.9c-2.1,0-3.7-1.7-3.7-3.7v-60.5c0-2.1,1.7-3.7,3.7-3.7h314.2c2.1,0,3.7,1.7,3.7,3.7   v60.5C414.8,259.9,413.1,261.5,411.1,261.5z"/>
	<path style="fill:#FFFFFF;" d="M411.1,347.6H96.9c-2.1,0-3.7-1.7-3.7-3.7v-60.5c0-2.1,1.7-3.7,3.7-3.7h314.2c2.1,0,3.7,1.7,3.7,3.7   v60.5C414.8,346,413.1,347.6,411.1,347.6z"/>
</g>
<path style="fill:#FFD05B;" d="M125.9,151.9L125.9,151.9c-5.8,0-10.4-4.7-10.4-10.4l0,0c0-5.8,4.7-10.4,10.4-10.4l0,0  c5.8,0,10.4,4.7,10.4,10.4l0,0C136.3,147.2,131.6,151.9,125.9,151.9z"/>
<path style="fill:#54C0EB;" d="M156.2,151.9L156.2,151.9c-5.8,0-10.4-4.7-10.4-10.4l0,0c0-5.8,4.7-10.4,10.4-10.4l0,0  c5.8,0,10.4,4.7,10.4,10.4l0,0C166.6,147.2,161.9,151.9,156.2,151.9z"/>
<path style="fill:#4CDBC4;" d="M186.4,151.9L186.4,151.9c-5.8,0-10.4-4.7-10.4-10.4l0,0c0-5.8,4.7-10.4,10.4-10.4l0,0  c5.8,0,10.4,4.7,10.4,10.4l0,0C196.9,147.2,192.2,151.9,186.4,151.9z"/>
<path style="fill:#FFD05B;" d="M125.9,238L125.9,238c-5.8,0-10.4-4.7-10.4-10.4l0,0c0-5.8,4.7-10.4,10.4-10.4l0,0  c5.8,0,10.4,4.7,10.4,10.4l0,0C136.3,233.3,131.6,238,125.9,238z"/>
<path style="fill:#54C0EB;" d="M156.2,238L156.2,238c-5.8,0-10.4-4.7-10.4-10.4l0,0c0-5.8,4.7-10.4,10.4-10.4l0,0  c5.8,0,10.4,4.7,10.4,10.4l0,0C166.6,233.3,161.9,238,156.2,238z"/>
<path style="fill:#4CDBC4;" d="M186.4,238L186.4,238c-5.8,0-10.4-4.7-10.4-10.4l0,0c0-5.8,4.7-10.4,10.4-10.4l0,0  c5.8,0,10.4,4.7,10.4,10.4l0,0C196.9,233.3,192.2,238,186.4,238z"/>
<path style="fill:#FFD05B;" d="M125.9,324.1L125.9,324.1c-5.8,0-10.4-4.7-10.4-10.4l0,0c0-5.8,4.7-10.4,10.4-10.4l0,0  c5.8,0,10.4,4.7,10.4,10.4l0,0C136.3,319.4,131.6,324.1,125.9,324.1z"/>
<path style="fill:#54C0EB;" d="M156.2,324.1L156.2,324.1c-5.8,0-10.4-4.7-10.4-10.4l0,0c0-5.8,4.7-10.4,10.4-10.4l0,0  c5.8,0,10.4,4.7,10.4,10.4l0,0C166.6,319.4,161.9,324.1,156.2,324.1z"/>
<path style="fill:#4CDBC4;" d="M186.4,324.1L186.4,324.1c-5.8,0-10.4-4.7-10.4-10.4l0,0c0-5.8,4.7-10.4,10.4-10.4l0,0  c5.8,0,10.4,4.7,10.4,10.4l0,0C196.9,319.4,192.2,324.1,186.4,324.1z"/>
<g>
</g>
<g>
</g>
<g>
</g>
<g>
</g>
<g>
</g>
<g>
</g>
<g>
</g>
<g>
</g>
<g>
</g>
<g>
</g>
<g>
</g>
<g>
</g>
<g>
</g>
<g>
</g>
<g>
</g>
</svg>
