<?xml version="1.0" encoding="iso-8859-1"?>
<!-- Generator: Adobe Illustrator 19.0.0, SVG Export Plug-In . SVG Version: 6.00 Build 0)  -->
<svg xmlns="http://www.w3.org/2000/svg" xmlns:xlink="http://www.w3.org/1999/xlink" version="1.1" id="Layer_1" x="0px" y="0px" viewBox="0 0 508 508" style="enable-background:new 0 0 508 508;" xml:space="preserve">
<circle style="fill:#90DFAA;" cx="254" cy="254" r="254"/>
<g>
	<path style="fill:#324A5E;" d="M145.6,388.8v-14.2c0-1.3,1.1-2.4,2.4-2.4h212c1.3,0,2.4,1.1,2.4,2.4v14.2c0,1.3-1.1,2.4-2.4,2.4   H148C146.6,391.1,145.6,390.1,145.6,388.8z"/>
	<path style="fill:#324A5E;" d="M263.5,381.9V270.8c0-5.2-4.3-9.5-9.5-9.5l0,0c-5.2,0-9.5,4.3-9.5,9.5v111.1c0,5.2,4.3,9.5,9.5,9.5   l0,0C259.2,391.4,263.5,387.1,263.5,381.9z"/>
</g>
<path style="fill:#FF7058;" d="M254,404.3L254,404.3c-12.9,0-23.4-10.5-23.4-23.4l0,0c0-12.9,10.5-23.4,23.4-23.4l0,0  c12.9,0,23.4,10.5,23.4,23.4l0,0C277.4,393.8,266.9,404.3,254,404.3z"/>
<path style="fill:#FFFFFF;" d="M421.7,207.2c2.8-5.6,4.3-12,4.3-18.7c0-23.6-19.1-42.7-42.7-42.7c-6.5,0-12.6,1.5-18.1,4.1  c-13.6-24.6-39.9-41.4-70-41.4c-17,0-32.8,5.4-45.8,14.5c-15.7-17.9-38.6-29.2-64.3-29.2c-47.3,0-85.6,38.3-85.6,85.6  c0,7,0.9,13.8,2.5,20.3c-23,6.8-39.8,28-39.8,53.2c0,30.7,24.9,55.5,55.5,55.5h272.6c30.7,0,55.5-24.9,55.5-55.5  C445.8,234,436.3,217.2,421.7,207.2z"/>
<g>
</g>
<g>
</g>
<g>
</g>
<g>
</g>
<g>
</g>
<g>
</g>
<g>
</g>
<g>
</g>
<g>
</g>
<g>
</g>
<g>
</g>
<g>
</g>
<g>
</g>
<g>
</g>
<g>
</g>
</svg>
