<?xml version="1.0" encoding="iso-8859-1"?>
<!-- Generator: Adobe Illustrator 19.0.0, SVG Export Plug-In . SVG Version: 6.00 Build 0)  -->
<svg xmlns="http://www.w3.org/2000/svg" xmlns:xlink="http://www.w3.org/1999/xlink" version="1.1" id="Layer_1" x="0px" y="0px" viewBox="0 0 508 508" style="enable-background:new 0 0 508 508;" xml:space="preserve">
<circle style="fill:#54C0EB;" cx="254" cy="254" r="254"/>
<path style="fill:#FFFFFF;" d="M329.2,243.9c-0.4,0-0.8,0-1.2,0.1c0.8-3.3,1.2-6.8,1.2-10.4c0-25.8-20.9-46.8-46.8-46.8  c-13.3,0-25.4,5.6-33.9,14.6c-8.5-9-20.5-14.6-33.9-14.6c-25.8,0-46.8,20.9-46.8,46.8c0,4.1,0.6,8,1.6,11.8  c-12.4,3.9-21.4,15.5-21.4,29.2c0,16.9,13.7,30.7,30.7,30.7h150.5c16.9,0,30.7-13.7,30.7-30.7S346.2,243.9,329.2,243.9z"/>
<path style="fill:#324A5E;" d="M254,80.3c-96,0-174.1,78.1-174.1,174.1S158,428.5,254,428.5s174.1-78.1,174.1-174.1  S350,80.3,254,80.3z M254,414.6c-88.3,0-160.1-71.8-160.1-160.1S165.7,94.4,254,94.4s160.1,71.8,160.1,160.1  C414.1,342.7,342.3,414.6,254,414.6z"/>
<g>
	<path style="fill:#FFFFFF;" d="M421.1,293.9L421.1,293.9c-19.4,0-35.1-15.7-35.1-35.1l0,0c0-19.4,15.7-35.1,35.1-35.1l0,0   c19.4,0,35.1,15.7,35.1,35.1l0,0C456.2,278.2,440.5,293.9,421.1,293.9z"/>
	<path style="fill:#FFFFFF;" d="M86.9,293.9L86.9,293.9c-19.4,0-35.1-15.7-35.1-35.1l0,0c0-19.4,15.7-35.1,35.1-35.1l0,0   c19.4,0,35.1,15.7,35.1,35.1l0,0C121.9,278.2,106.2,293.9,86.9,293.9z"/>
	<path style="fill:#FFFFFF;" d="M218.9,426L218.9,426c0-19.4,15.7-35.1,35.1-35.1l0,0c19.4,0,35.1,15.7,35.1,35.1l0,0   c0,19.4-15.7,35.1-35.1,35.1l0,0C234.6,461.1,218.9,445.4,218.9,426z"/>
	<path style="fill:#FFFFFF;" d="M218.9,91.7L218.9,91.7c0-19.4,15.7-35.1,35.1-35.1l0,0c19.4,0,35.1,15.7,35.1,35.1l0,0   c0,19.4-15.7,35.1-35.1,35.1l0,0C234.6,126.8,218.9,111.1,218.9,91.7z"/>
</g>
<g>
	<circle style="fill:#FF7058;" cx="421.1" cy="258.9" r="21.8"/>
	<circle style="fill:#FF7058;" cx="86.9" cy="258.9" r="21.8"/>
	<circle style="fill:#FF7058;" cx="254" cy="426" r="21.8"/>
	<circle style="fill:#FF7058;" cx="254" cy="91.7" r="21.8"/>
</g>
<g>
</g>
<g>
</g>
<g>
</g>
<g>
</g>
<g>
</g>
<g>
</g>
<g>
</g>
<g>
</g>
<g>
</g>
<g>
</g>
<g>
</g>
<g>
</g>
<g>
</g>
<g>
</g>
<g>
</g>
</svg>
