<?xml version="1.0" encoding="iso-8859-1"?>
<!-- Generator: Adobe Illustrator 19.0.0, SVG Export Plug-In . SVG Version: 6.00 Build 0)  -->
<svg xmlns="http://www.w3.org/2000/svg" xmlns:xlink="http://www.w3.org/1999/xlink" version="1.1" id="Layer_1" x="0px" y="0px" viewBox="0 0 508 508" style="enable-background:new 0 0 508 508;" xml:space="preserve">
<circle style="fill:#324A5E;" cx="254" cy="254" r="254"/>
<path style="fill:#F9B54C;" d="M355.2,108h-72c-3,0-5.5,2.5-5.5,5.5v15.6c0,3,2.5,5.5,5.5,5.5h72c3,0,5.5-2.5,5.5-5.5v-15.6  C360.7,110.5,358.2,108,355.2,108z"/>
<path style="fill:#FFD05B;" d="M393,126.1H226.6v-8.2c0-5.5-4.4-9.9-9.9-9.9h-63.1c-5.5,0-9.9,4.4-9.9,9.9v8.2h-34.5  c-6.1,0-11.1,5-11.1,11.1v196.4c0,6.1,5,11.1,11.1,11.1H393c6.1,0,11.1-5,11.1-11.1V137.2C404.1,131.1,399.1,126.1,393,126.1z"/>
<polygon style="fill:#2B3B4E;" points="317.6,294.7 305.5,308.4 339,342 351.9,329.1 "/>
<circle style="fill:#FFFFFF;" cx="258.1" cy="238.8" r="90.5"/>
<path style="fill:#54C0EB;" d="M310.8,291.5c-21.9,21.9-54,27.3-81,16.2c-8.9-3.6-17.2-9-24.4-16.2c-4.6-4.6-8.5-9.7-11.7-15.1  c-16.6-28.5-12.8-65.8,11.7-90.3c29.1-29.1,76.3-29.1,105.4,0C339.9,215.2,339.9,262.3,310.8,291.5z"/>
<path style="fill:#FFFFFF;" d="M339.8,313.2l-16.6,16.6c-2.4,2.4-2.4,6.3,0,8.7l59.6,59.6c2.4,2.4,6.3,2.4,8.7,0l16.6-16.6  c2.4-2.4,2.4-6.3,0-8.7l-59.6-59.6C346.1,310.8,342.2,310.8,339.8,313.2z"/>
<rect x="337.621" y="337.78" transform="matrix(-0.7071 -0.7071 0.7071 -0.7071 372.5282 865.7669)" style="fill:#FF7058;" width="55.899" height="35.9"/>
<g>
	<rect x="215" y="234.7" style="fill:#FFFFFF;" width="16.2" height="39.5"/>
	<rect x="238.3" y="219.4" style="fill:#FFFFFF;" width="16.2" height="54.8"/>
	<rect x="261.6" y="203.3" style="fill:#FFFFFF;" width="16.2" height="70.9"/>
	<rect x="285" y="224.1" style="fill:#FFFFFF;" width="16.2" height="50.1"/>
</g>
<g>
</g>
<g>
</g>
<g>
</g>
<g>
</g>
<g>
</g>
<g>
</g>
<g>
</g>
<g>
</g>
<g>
</g>
<g>
</g>
<g>
</g>
<g>
</g>
<g>
</g>
<g>
</g>
<g>
</g>
</svg>
