<?xml version="1.0" encoding="iso-8859-1"?>
<!-- Generator: Adobe Illustrator 19.0.0, SVG Export Plug-In . SVG Version: 6.00 Build 0)  -->
<svg xmlns="http://www.w3.org/2000/svg" xmlns:xlink="http://www.w3.org/1999/xlink" version="1.1" id="Layer_1" x="0px" y="0px" viewBox="0 0 508 508" style="enable-background:new 0 0 508 508;" xml:space="preserve">
<circle style="fill:#90DFAA;" cx="254" cy="254" r="254"/>
<g>
	<path style="fill:#2B3B4E;" d="M358.1,97.7h-72c-3,0-5.5,2.5-5.5,5.5v15.6c0,3,2.5,5.5,5.5,5.5h72c3,0,5.5-2.5,5.5-5.5v-15.6   C363.6,100.2,361.1,97.7,358.1,97.7z"/>
	<rect x="244.7" y="314" style="fill:#2B3B4E;" width="18.6" height="72.9"/>
	<rect x="161.1" y="380.7" style="fill:#2B3B4E;" width="185.8" height="12.3"/>
</g>
<path style="fill:#FF7058;" d="M254,410.3L254,410.3c-12.9,0-23.4-10.5-23.4-23.4l0,0c0-12.9,10.5-23.4,23.4-23.4l0,0  c12.9,0,23.4,10.5,23.4,23.4l0,0C277.4,399.8,266.9,410.3,254,410.3z"/>
<path style="fill:#FFFFFF;" d="M395.9,115.8H229.5v-8.2c0-5.5-4.4-9.9-9.9-9.9h-63.1c-5.5,0-9.9,4.4-9.9,9.9v8.2h-34.5  c-6.1,0-11.1,5-11.1,11.1v196.4c0,6.1,5,11.1,11.1,11.1H396c6.1,0,11.1-5,11.1-11.1V126.9C407,120.8,402.1,115.8,395.9,115.8z"/>
<g>
</g>
<g>
</g>
<g>
</g>
<g>
</g>
<g>
</g>
<g>
</g>
<g>
</g>
<g>
</g>
<g>
</g>
<g>
</g>
<g>
</g>
<g>
</g>
<g>
</g>
<g>
</g>
<g>
</g>
</svg>
