<?xml version="1.0" encoding="iso-8859-1"?>
<!-- Generator: Adobe Illustrator 19.0.0, SVG Export Plug-In . SVG Version: 6.00 Build 0)  -->
<svg xmlns="http://www.w3.org/2000/svg" xmlns:xlink="http://www.w3.org/1999/xlink" version="1.1" id="Layer_1" x="0px" y="0px" viewBox="0 0 508 508" style="enable-background:new 0 0 508 508;" xml:space="preserve">
<circle style="fill:#FFD05B;" cx="254" cy="254" r="254"/>
<path style="fill:#FFFFFF;" d="M364.7,391.5l-176-125.4c-0.9-0.7-1.2-2-0.5-2.9l93.7-131.5c0.7-0.9,2-1.2,2.9-0.5l176,125.4  c0.9,0.7,1.2,2,0.5,2.9L367.6,391C366.9,392,365.6,392.2,364.7,391.5z"/>
<rect x="229.475" y="193.192" transform="matrix(-0.8144 -0.5804 0.5804 -0.8144 448.9042 654.1846)" style="fill:#84DBFF;" width="199.211" height="124.207"/>
<polygon style="fill:#F1543F;" points="324.6,328.2 311.4,228.1 211.7,248.4 "/>
<polygon style="fill:#FF7058;" points="374.3,363.5 370.3,250.5 261.3,283.8 "/>
<g>
	<path style="fill:#54C0EB;" d="M311.2,185.4l-0.7-1.1c-0.3-0.4-0.6-0.7-0.9-1s-0.6-0.6-1-0.9c-0.4-0.3-0.7-0.6-1.1-0.8   c-0.8-0.4-1.6-0.8-2.5-1.1c-0.4-0.2-0.9-0.2-1.3-0.3c-0.5-0.1-0.9-0.2-1.4-0.2s-0.9-0.1-1.4-0.1s-0.9,0-1.4,0   c-0.9,0.1-1.9,0.2-2.8,0.4c-0.4,0.1-0.8,0.2-1.1,0.3c0-0.1,0-0.2-0.1-0.4l-0.4-1.1l-0.6-1c-0.2-0.3-0.4-0.6-0.7-0.9   c-0.2-0.3-0.5-0.5-0.8-0.7c-0.5-0.5-1.2-0.8-1.8-1.1c-1.3-0.5-2.6-0.8-4-0.9c-1.3,0-2.7,0.1-4,0.5c1.3,0.3,2.4,0.6,3.5,1.1   c0.5,0.2,1.1,0.5,1.6,0.7c0.5,0.3,0.9,0.6,1.4,0.9c0.4,0.4,0.8,0.7,1.1,1.1c0.2,0.2,0.3,0.4,0.4,0.6c0.1,0.2,0.3,0.4,0.4,0.7   l0.3,0.7l0.2,0.8c0.2,0.5,0.1,1.1,0.2,1.6l0.3,1.9l1.8-0.5l1.1-0.3c0.4-0.1,0.8-0.2,1.2-0.3c0.8-0.2,1.6-0.3,2.4-0.4   c0.8-0.1,1.6-0.1,2.4-0.1c0.4,0,0.8,0,1.2,0c0.4,0,0.8,0,1.2,0.1c0.4,0.1,0.8,0.1,1.1,0.2l1.1,0.3c0.4,0.1,0.7,0.3,1.1,0.4   c0.4,0.1,0.7,0.3,1.1,0.5l1,0.5l1,0.7c0.4,0.2,0.7,0.5,1,0.8l1,0.8C311.9,187.1,311.7,186.2,311.2,185.4z"/>
	<path style="fill:#54C0EB;" d="M301.2,202.3l-0.7-1.1c-0.3-0.4-0.6-0.7-0.9-1s-0.6-0.6-1-0.9c-0.4-0.3-0.7-0.6-1.1-0.8   c-0.8-0.4-1.6-0.8-2.5-1.1c-0.4-0.2-0.9-0.2-1.3-0.3c-0.5-0.1-0.9-0.2-1.4-0.2s-0.9-0.1-1.4-0.1s-0.9,0-1.4,0   c-0.9,0.1-1.9,0.2-2.8,0.4c-0.4,0.1-0.8,0.2-1.1,0.3c0-0.1,0-0.2-0.1-0.4l-0.4-1.1l-0.6-1c-0.2-0.3-0.4-0.6-0.7-0.9   c-0.2-0.3-0.5-0.5-0.8-0.7c-0.5-0.5-1.2-0.8-1.8-1.1c-1.3-0.5-2.6-0.8-4-0.9c-1.3,0-2.7,0.1-4,0.5c1.3,0.3,2.4,0.6,3.5,1.1   c0.5,0.2,1.1,0.5,1.6,0.7c0.5,0.3,0.9,0.6,1.4,0.9c0.4,0.3,0.8,0.7,1.1,1.1c0.2,0.2,0.3,0.4,0.4,0.6c0.1,0.2,0.3,0.4,0.4,0.7   l0.3,0.7l0.2,0.8c0.1,0.5,0.1,1.1,0.2,1.6l0.3,1.9l1.8-0.5l1.1-0.3c0.4-0.1,0.8-0.2,1.2-0.3c0.8-0.2,1.6-0.3,2.4-0.4   c0.8-0.1,1.6-0.1,2.4-0.1c0.4,0,0.8,0,1.2,0c0.4,0,0.8,0,1.2,0.1c0.4,0.1,0.8,0.1,1.1,0.2l1.1,0.3c0.4,0.1,0.7,0.3,1.1,0.4   c0.4,0.1,0.7,0.3,1.1,0.5l1,0.5l1,0.7c0.4,0.2,0.7,0.5,1,0.8l1,0.8C301.9,204,301.6,203,301.2,202.3z"/>
	<path style="fill:#54C0EB;" d="M327,201.8l-0.7-1.1c-0.3-0.4-0.6-0.7-0.9-1s-0.6-0.6-1-0.9c-0.4-0.3-0.7-0.6-1.1-0.8   c-0.8-0.4-1.6-0.8-2.5-1.1c-0.4-0.2-0.9-0.2-1.3-0.3c-0.5-0.1-0.9-0.2-1.4-0.2s-0.9-0.1-1.4-0.1s-0.9,0-1.4,0   c-0.9,0.1-1.9,0.2-2.8,0.4c-0.4,0.1-0.8,0.2-1.1,0.3c0-0.1,0-0.2-0.1-0.4l-0.4-1.1l-0.6-1c-0.2-0.3-0.4-0.6-0.7-0.9   c-0.2-0.3-0.5-0.5-0.8-0.7c-0.5-0.5-1.2-0.8-1.8-1.1c-1.3-0.5-2.6-0.8-4-0.9c-1.3,0-2.7,0.1-4,0.5c1.3,0.3,2.4,0.6,3.5,1.1   c0.5,0.2,1.1,0.5,1.6,0.7c0.5,0.3,0.9,0.6,1.4,0.9c0.4,0.3,0.8,0.7,1.1,1.1c0.2,0.2,0.3,0.4,0.4,0.6c0.1,0.2,0.3,0.4,0.4,0.7   l0.3,0.7l0.2,0.8c0.2,0.5,0.1,1.1,0.2,1.6l0.3,1.9l1.8-0.5l1.1-0.3c0.4-0.1,0.8-0.2,1.2-0.3c0.8-0.2,1.6-0.3,2.4-0.4   c0.8-0.1,1.6-0.1,2.4-0.1c0.4,0,0.8,0,1.2,0c0.4,0,0.8,0,1.2,0.1c0.4,0.1,0.8,0.1,1.1,0.2l1.1,0.3c0.4,0.1,0.7,0.3,1.1,0.4   c0.4,0.1,0.7,0.3,1.1,0.5l1,0.5l1,0.7c0.4,0.2,0.7,0.5,1,0.8l1,0.8C327.7,203.4,327.5,202.5,327,201.8z"/>
</g>
<g>
	<path style="fill:#FFFFFF;" d="M326.9,220l32.8,23.4c2-3.5,1-8-2.3-10.3c0,0,0,0-0.1,0c0.1-0.2,0.3-0.3,0.4-0.5   c2.5-3.6,1.7-8.5-1.9-11.1c-1.4-1-3-1.5-4.6-1.5c-0.5-2.3-1.8-4.5-3.9-6c-4.5-3.2-10.7-2.2-13.9,2.3c-0.2,0.3-0.4,0.6-0.6,1   C330.7,217.3,328.5,218.2,326.9,220z"/>
	<path style="fill:#FFFFFF;" d="M390.8,255.2l26.4,18.8c1.6-2.8,0.8-6.4-1.8-8.3l0,0c0.1-0.1,0.2-0.2,0.3-0.4   c2.1-2.9,1.4-6.9-1.5-8.9c-1.1-0.8-2.4-1.2-3.7-1.2c-0.4-1.9-1.5-3.6-3.2-4.8c-3.6-2.6-8.7-1.7-11.2,1.9c-0.2,0.3-0.3,0.5-0.4,0.8   C393.8,253,392.1,253.8,390.8,255.2z"/>
</g>
<path style="fill:#2B3B4E;" d="M268.1,127.5v236.9c0,5-4.1,9-9,9H81.6c-5,0-9-4.1-9-9V254.7l13.9-9.8v-22.1h-14v-24l13.9-9.8v-61.5  c0-4.9,4-9,9-9H259C264.1,118.5,268.1,122.6,268.1,127.5z"/>
<g>
	<polygon style="fill:#324A5E;" points="207.3,159.6 181,133.4 154.8,159.6  "/>
	<path style="fill:#324A5E;" d="M268.1,342.4v22.1c0,5-4.1,9-9,9H81.6c-5,0-9-4.1-9-9v-22.1c24.5-9,59.3-14.6,97.8-14.6   C208.8,327.8,243.6,333.4,268.1,342.4z"/>
</g>
<g>
	<path style="fill:#FFFFFF;" d="M173.3,267.4h6.8v10.7c-3,3.3-7.1,5-12.4,5c-4.4,0-8.1-1.5-11.1-4.4s-4.5-6.6-4.5-11.1   s1.5-8.2,4.6-11.2s6.7-4.5,11.1-4.5s8.1,1.4,11.2,4.3l-3.5,5c-1.3-1.2-2.6-2-3.7-2.4c-1.1-0.4-2.4-0.7-3.7-0.7   c-2.6,0-4.7,0.9-6.5,2.6c-1.7,1.7-2.6,4-2.6,6.9c0,2.8,0.8,5.1,2.5,6.8c1.7,1.7,3.7,2.6,6,2.6s4.3-0.4,5.8-1.3L173.3,267.4   L173.3,267.4z"/>
	<path style="fill:#FFFFFF;" d="M199.2,282.7H186v-30.1h11.7c2,0,3.8,0.2,5.3,0.7s2.6,1.1,3.3,2c1.3,1.5,2,3.3,2,5.2   c0,2.4-0.8,4.1-2.3,5.2c-0.5,0.4-0.9,0.7-1.1,0.8c-0.2,0.1-0.6,0.3-1.1,0.5c1.9,0.4,3.3,1.2,4.5,2.5c1.1,1.3,1.7,2.9,1.7,4.8   c0,2.1-0.7,3.9-2.2,5.5C206.2,281.8,203.3,282.7,199.2,282.7z M192.7,264.8h3.2c1.9,0,3.2-0.2,4.2-0.6c0.9-0.4,1.4-1.3,1.4-2.6   s-0.4-2.2-1.2-2.6s-2.2-0.6-4.2-0.6h-3.2v6.4H192.7z M192.7,277h4.6c1.9,0,3.4-0.2,4.3-0.7s1.4-1.4,1.4-2.8s-0.5-2.3-1.5-2.8   c-1-0.4-2.6-0.7-4.9-0.7h-4v7H192.7z"/>
</g>
<g>
</g>
<g>
</g>
<g>
</g>
<g>
</g>
<g>
</g>
<g>
</g>
<g>
</g>
<g>
</g>
<g>
</g>
<g>
</g>
<g>
</g>
<g>
</g>
<g>
</g>
<g>
</g>
<g>
</g>
</svg>
