<?xml version="1.0" encoding="iso-8859-1"?>
<!-- Generator: Adobe Illustrator 19.0.0, SVG Export Plug-In . SVG Version: 6.00 Build 0)  -->
<svg xmlns="http://www.w3.org/2000/svg" xmlns:xlink="http://www.w3.org/1999/xlink" version="1.1" id="Layer_1" x="0px" y="0px" viewBox="0 0 508 508" style="enable-background:new 0 0 508 508;" xml:space="preserve">
<circle style="fill:#FD8469;" cx="254" cy="254" r="254"/>
<g>
	<rect x="246.1" y="134.9" style="fill:#324A5E;" width="15.9" height="195.3"/>
	<rect x="156.3" y="322.2" style="fill:#324A5E;" width="195.3" height="15.9"/>
</g>
<g>
	<path style="fill:#FFFFFF;" d="M254,74.3L254,74.3c-33.4,0-60.5,27.1-60.5,60.5l0,0c0,33.4,27.1,60.5,60.5,60.5l0,0   c33.4,0,60.5-27.1,60.5-60.5l0,0C314.5,101.4,287.4,74.3,254,74.3z"/>
	<path style="fill:#FFFFFF;" d="M129.4,277.6L129.4,277.6c-29,0-52.6,23.5-52.6,52.6l0,0c0,29,23.5,52.6,52.6,52.6l0,0   c29,0,52.6-23.5,52.6-52.6l0,0C181.9,301.1,158.4,277.6,129.4,277.6z"/>
	<path style="fill:#FFFFFF;" d="M378.6,277.6L378.6,277.6c-29,0-52.6,23.5-52.6,52.6l0,0c0,29,23.5,52.6,52.6,52.6l0,0   c29,0,52.6-23.5,52.6-52.6l0,0C431.2,301.1,407.7,277.6,378.6,277.6z"/>
</g>
<g>
	<path style="fill:#84DBFF;" d="M378.6,293.3L378.6,293.3c-20.4,0-36.9,16.5-36.9,36.9l0,0c0,20.4,16.5,36.9,36.9,36.9l0,0   c20.4,0,36.9-16.5,36.9-36.9l0,0C415.5,309.8,399,293.3,378.6,293.3z"/>
	<path style="fill:#84DBFF;" d="M254,98L254,98c-20.4,0-36.9,16.5-36.9,36.9l0,0c0,20.4,16.5,36.9,36.9,36.9l0,0   c20.4,0,36.9-16.5,36.9-36.9l0,0C290.9,114.5,274.4,98,254,98z"/>
	<path style="fill:#84DBFF;" d="M129.4,293.3L129.4,293.3c-20.4,0-36.9,16.5-36.9,36.9l0,0c0,20.4,16.5,36.9,36.9,36.9l0,0   c20.4,0,36.9-16.5,36.9-36.9l0,0C166.2,309.8,149.7,293.3,129.4,293.3z"/>
</g>
<path style="fill:#FFD05B;" d="M254,304.4L254,304.4c-14.2,0-25.7,11.5-25.7,25.7l0,0c0,14.2,11.5,25.7,25.7,25.7l0,0  c14.2,0,25.7-11.5,25.7-25.7l0,0C279.7,316,268.2,304.4,254,304.4z"/>
<g>
</g>
<g>
</g>
<g>
</g>
<g>
</g>
<g>
</g>
<g>
</g>
<g>
</g>
<g>
</g>
<g>
</g>
<g>
</g>
<g>
</g>
<g>
</g>
<g>
</g>
<g>
</g>
<g>
</g>
</svg>
