<?xml version="1.0" encoding="iso-8859-1"?>
<!-- Generator: Adobe Illustrator 19.0.0, SVG Export Plug-In . SVG Version: 6.00 Build 0)  -->
<svg xmlns="http://www.w3.org/2000/svg" xmlns:xlink="http://www.w3.org/1999/xlink" version="1.1" id="Layer_1" x="0px" y="0px" viewBox="0 0 508 508" style="enable-background:new 0 0 508 508;" xml:space="preserve">
<circle style="fill:#FD8469;" cx="254" cy="254" r="254"/>
<path style="fill:#324A5E;" d="M366.3,79.1H141.7c-12.4,0-22.5,10.1-22.5,22.5v304.8c0,12.4,10.1,22.5,22.5,22.5h224.5  c12.4,0,22.5-10.1,22.5-22.5V101.6C388.7,89.2,378.7,79.1,366.3,79.1z"/>
<rect x="135.1" y="110.2" style="fill:#84DBFF;" width="237.8" height="280.2"/>
<g>
	<path style="fill:#E6E9EE;" d="M270.2,415.1h-32.3c-3.4,0-6.2-2.8-6.2-6.2l0,0c0-3.4,2.8-6.2,6.2-6.2h32.3c3.4,0,6.2,2.8,6.2,6.2   l0,0C276.4,412.3,273.6,415.1,270.2,415.1z"/>
	<path style="fill:#E6E9EE;" d="M273.5,97.7h-39.1c-1.6,0-2.8-1.3-2.8-2.8l0,0c0-1.6,1.3-2.8,2.8-2.8h39.1c1.6,0,2.8,1.3,2.8,2.8   l0,0C276.4,96.4,275.1,97.7,273.5,97.7z"/>
	<path style="fill:#E6E9EE;" d="M225.7,97.7h-0.8c-1.6,0-2.8-1.3-2.8-2.8l0,0c0-1.6,1.3-2.8,2.8-2.8h0.8c1.6,0,2.8,1.3,2.8,2.8l0,0   C228.5,96.4,227.3,97.7,225.7,97.7z"/>
	<circle style="fill:#E6E9EE;" cx="327.9" cy="94.9" r="5.6"/>
</g>
<polygon style="fill:#2B3B4E;" points="263.1,319 253.4,328.6 244.9,320.1 244.9,367.4 263.1,367.4 "/>
<circle style="fill:#324A5E;" cx="254" cy="254.4" r="79.4"/>
<path style="fill:#FFFFFF;" d="M254,316.9c-25.9,0-48.2-15.9-57.7-38.4c-3.2-7.4-4.9-15.5-4.8-24.1c0-5.5,0.7-10.8,2-15.9  c7-26.8,31.4-46.6,60.5-46.6c34.5,0,62.5,28,62.5,62.5S288.5,316.9,254,316.9z"/>
<path style="fill:#FF7058;" d="M271.9,390.4v-36.7c0-3.4-2.8-6.2-6.2-6.2h-23.4c-3.4,0-6.2,2.8-6.2,6.2v36.7H271.9z"/>
<rect x="236.1" y="367.9" style="fill:#FFD05B;" width="35.7" height="22.5"/>
<g>
</g>
<g>
</g>
<g>
</g>
<g>
</g>
<g>
</g>
<g>
</g>
<g>
</g>
<g>
</g>
<g>
</g>
<g>
</g>
<g>
</g>
<g>
</g>
<g>
</g>
<g>
</g>
<g>
</g>
</svg>
