<?xml version="1.0" encoding="iso-8859-1"?>
<!-- Generator: Adobe Illustrator 19.0.0, SVG Export Plug-In . SVG Version: 6.00 Build 0)  -->
<svg xmlns="http://www.w3.org/2000/svg" xmlns:xlink="http://www.w3.org/1999/xlink" version="1.1" id="Layer_1" x="0px" y="0px" viewBox="0 0 508 508" style="enable-background:new 0 0 508 508;" xml:space="preserve">
<circle style="fill:#FD8469;" cx="254" cy="254" r="254"/>
<g>
	<polygon style="fill:#FFFFFF;" points="414.3,166.2 287.3,74.6 287.3,113.5 189.7,118.5 189.7,213.9 287.3,218.9 287.3,257.8  "/>
	<polygon style="fill:#FFFFFF;" points="154,212 175.1,213.1 175.1,119.3 154,120.3  "/>
	<polygon style="fill:#FFFFFF;" points="122.8,210.4 142.4,211.4 142.4,120.9 122.8,122  "/>
	<polygon style="fill:#FFFFFF;" points="93.7,208.9 111.9,209.9 111.9,122.5 93.7,123.5  "/>
	<polygon style="fill:#FFFFFF;" points="62.2,318.6 147.7,380.3 147.7,354.1 213.3,350.7 213.3,286.6 147.7,283.2 147.7,257  "/>
	<polygon style="fill:#FFFFFF;" points="237.3,287.8 223.2,287.1 223.2,350.2 237.3,349.5  "/>
	<polygon style="fill:#FFFFFF;" points="258.3,288.9 245.2,288.2 245.2,349.1 258.3,348.4  "/>
	<polygon style="fill:#FFFFFF;" points="277.9,289.9 265.6,289.3 265.6,348 277.9,347.4  "/>
</g>
<path style="fill:#2B3B4E;" d="M272.9,282.1L272.9,282.1c-4.1,4.1-4.1,10.6,0,14.7l33.7,33.7c4.1,4.1,10.6,4.1,14.7,0l0,0  c4.1-4.1,4.1-10.6,0-14.7l-33.7-33.7C283.5,278,277,278,272.9,282.1z"/>
<circle style="fill:#324A5E;" cx="226.3" cy="235.5" r="89.9"/>
<path style="fill:#FFD05B;" d="M323.3,300.2L291,332.5c-0.9,0.9-0.9,2.3,0,3.1l82.3,82.3c0.9,0.9,2.3,0.9,3.1,0l32.3-32.3  c0.9-0.9,0.9-2.3,0-3.1l-82.3-82.3C325.6,299.3,324.2,299.3,323.3,300.2z"/>
<g>
	
		<rect x="318.632" y="308.257" transform="matrix(-0.7071 -0.7072 0.7072 -0.7071 317.6954 798.2241)" style="fill:#F9B54C;" width="11.101" height="50.103"/>
	
		<rect x="365.726" y="355.401" transform="matrix(-0.7071 -0.7072 0.7072 -0.7071 364.7502 912.0052)" style="fill:#F9B54C;" width="11.101" height="50.103"/>
</g>
<circle style="fill:#84DBFF;" cx="226.3" cy="235.5" r="68"/>
<g>
</g>
<g>
</g>
<g>
</g>
<g>
</g>
<g>
</g>
<g>
</g>
<g>
</g>
<g>
</g>
<g>
</g>
<g>
</g>
<g>
</g>
<g>
</g>
<g>
</g>
<g>
</g>
<g>
</g>
</svg>
