<?xml version="1.0" encoding="iso-8859-1"?>
<!-- Generator: Adobe Illustrator 19.0.0, SVG Export Plug-In . SVG Version: 6.00 Build 0)  -->
<svg xmlns="http://www.w3.org/2000/svg" xmlns:xlink="http://www.w3.org/1999/xlink" version="1.1" id="Layer_1" x="0px" y="0px" viewBox="0 0 508 508" style="enable-background:new 0 0 508 508;" xml:space="preserve">
<path style="fill:#FFD05B;" d="M508,254c0,70.6-28.8,134.5-75.3,180.5C386.8,479.9,323.7,508,254,508s-132.8-28-178.7-73.5  C28.8,388.5,0,324.6,0,254C0,113.7,113.7,0,254,0S508,113.7,508,254z"/>
<polygon style="fill:#FFFFFF;" points="289.6,357.7 218.4,357.7 206.5,400.8 301.5,400.8 "/>
<polygon style="fill:#CED5E0;" points="295.2,378.2 289.6,357.7 218.4,357.7 212.8,378.2 "/>
<path style="fill:#FFFFFF;" d="M418.8,108.8H89.2c-6.6,0-11.9,5.3-11.9,11.9v235.7c0,6.6,5.3,11.9,11.9,11.9h329.7  c6.6,0,11.9-5.3,11.9-11.9V120.7C430.7,114.1,425.4,108.8,418.8,108.8z"/>
<path style="fill:#324A5E;" d="M418.8,108.8H89.2c-6.6,0-11.9,5.3-11.9,11.9v205.2h353.5V120.7C430.7,114.1,425.4,108.8,418.8,108.8  z"/>
<rect x="89.9" y="121.7" style="fill:#84DBFF;" width="328.2" height="189.6"/>
<g>
	<path style="fill:#CED5E0;" d="M309.6,400.8H198.4c-4.1,0-7.5,3.3-7.5,7.5l0,0c0,4.1,3.3,7.5,7.5,7.5h111.1c4.1,0,7.5-3.3,7.5-7.5   l0,0C317,404.2,313.7,400.8,309.6,400.8z"/>
	<circle style="fill:#CED5E0;" cx="254" cy="345.9" r="10.4"/>
</g>
<g>
	<rect x="250" y="174.2" style="fill:#324A5E;" width="7.9" height="86.6"/>
	<rect x="168.1" y="255.2" style="fill:#324A5E;" width="171.7" height="11.2"/>
</g>
<rect x="261.6" y="255.2" style="fill:#2B3B4E;" width="78.3" height="11.2"/>
<circle style="fill:#FFFFFF;" cx="254" cy="174.2" r="26.5"/>
<circle style="fill:#FF7058;" cx="254" cy="174.2" r="15.2"/>
<g>
	<circle style="fill:#FFFFFF;" cx="168.1" cy="260.8" r="26.5"/>
	<circle style="fill:#FFFFFF;" cx="254" cy="260.8" r="26.5"/>
	<circle style="fill:#FFFFFF;" cx="339.9" cy="260.8" r="26.5"/>
</g>
<g>
	<circle style="fill:#FF7058;" cx="254" cy="260.8" r="15.2"/>
	<circle style="fill:#FF7058;" cx="168.1" cy="260.8" r="15.2"/>
</g>
<circle style="fill:#F1543F;" cx="339.9" cy="260.8" r="15.2"/>
<g>
</g>
<g>
</g>
<g>
</g>
<g>
</g>
<g>
</g>
<g>
</g>
<g>
</g>
<g>
</g>
<g>
</g>
<g>
</g>
<g>
</g>
<g>
</g>
<g>
</g>
<g>
</g>
<g>
</g>
</svg>
