<?xml version="1.0" encoding="iso-8859-1"?>
<!-- Generator: Adobe Illustrator 19.0.0, SVG Export Plug-In . SVG Version: 6.00 Build 0)  -->
<svg xmlns="http://www.w3.org/2000/svg" xmlns:xlink="http://www.w3.org/1999/xlink" version="1.1" id="Layer_1" x="0px" y="0px" viewBox="0 0 508 508" style="enable-background:new 0 0 508 508;" xml:space="preserve">
<circle style="fill:#84DBFF;" cx="254" cy="254" r="254"/>
<g>
	<path style="fill:#FFFFFF;" d="M377.1,393.1H121.3c-2.2,0-4-1.8-4-4V133.3c0-2.2,1.8-4,4-4h255.8c2.2,0,4,1.8,4,4v255.8   C381,391.3,379.2,393.1,377.1,393.1z M125.2,385.2h247.9V137.3H125.2V385.2z"/>
	<rect x="336.5" y="132.9" style="fill:#FFFFFF;" width="7.9" height="256.2"/>
	<rect x="300" y="132.9" style="fill:#FFFFFF;" width="7.9" height="256.2"/>
	<rect x="263.5" y="132.9" style="fill:#FFFFFF;" width="7.9" height="256.2"/>
	<rect x="226.9" y="132.9" style="fill:#FFFFFF;" width="7.9" height="256.2"/>
	<rect x="190.4" y="132.9" style="fill:#FFFFFF;" width="7.9" height="256.2"/>
	<rect x="153.8" y="132.9" style="fill:#FFFFFF;" width="7.9" height="256.2"/>
	<rect x="121" y="348.4" style="fill:#FFFFFF;" width="256.2" height="7.9"/>
	<rect x="121" y="311.9" style="fill:#FFFFFF;" width="256.2" height="7.9"/>
	<rect x="121" y="275.3" style="fill:#FFFFFF;" width="256.2" height="7.9"/>
	<rect x="121" y="238.8" style="fill:#FFFFFF;" width="256.2" height="7.9"/>
	<rect x="121" y="202.2" style="fill:#FFFFFF;" width="256.2" height="7.9"/>
	<rect x="121" y="165.7" style="fill:#FFFFFF;" width="256.2" height="7.9"/>
</g>
<path style="fill:#FF7058;" d="M123,330.3c-0.1,0-0.3,0-0.4,0c-2.2-0.2-3.8-2.2-3.5-4.4c1.3-12.4,9.3-24,20.4-29.6  c11.5-5.8,24.1-5.1,36.4-4.5c7.1,0.4,14.5,0.8,21.3-0.2c9.9-1.4,20.4-5.8,32-13.6c12.1-8.1,26.9-21.4,28.7-38.6c0.2-2,0.2-4,0.3-6.2  c0-2.5,0.1-5.1,0.4-7.7c2.3-19,18.8-32.5,33.4-38.8c11.2-4.8,23.2-7.1,34.8-9.3c4.6-0.9,9.3-1.8,13.9-2.8  c19.7-4.5,32.6-11.3,40.6-21.4c1.4-1.7,3.9-2,5.6-0.7c1.7,1.4,2,3.9,0.7,5.6c-9.2,11.7-23.5,19.4-45.1,24.3c-4.7,1.1-9.4,2-14.2,2.9  c-11.7,2.2-22.7,4.3-33.1,8.8c-12.6,5.4-26.8,16.8-28.7,32.5c-0.3,2.2-0.3,4.4-0.3,6.8c0,2.2-0.1,4.5-0.3,6.9  c-1.6,16-12.7,31.4-32.2,44.4c-12.7,8.5-24.2,13.3-35.3,14.9c-7.6,1.1-15.3,0.7-22.8,0.3c-11.7-0.6-22.8-1.2-32.4,3.7  c-8.8,4.4-15.1,13.6-16.1,23.4C126.7,328.8,125,330.3,123,330.3z"/>
<g>
	<path style="fill:#324A5E;" d="M395,397.1H121c-4.4,0-7.9-3.6-7.9-7.9v-274c0-4.4,3.6-7.9,7.9-7.9s7.9,3.6,7.9,7.9v266h266   c4.4,0,7.9,3.6,7.9,7.9S399.4,397.1,395,397.1z"/>
	<polygon style="fill:#324A5E;" points="425.1,389.1 395,366.9 395,411.4  "/>
	<polygon style="fill:#324A5E;" points="121,80.7 98.7,119.6 143.3,119.6  "/>
</g>
<g>
</g>
<g>
</g>
<g>
</g>
<g>
</g>
<g>
</g>
<g>
</g>
<g>
</g>
<g>
</g>
<g>
</g>
<g>
</g>
<g>
</g>
<g>
</g>
<g>
</g>
<g>
</g>
<g>
</g>
</svg>
