<?xml version="1.0" encoding="iso-8859-1"?>
<!-- Generator: Adobe Illustrator 19.0.0, SVG Export Plug-In . SVG Version: 6.00 Build 0)  -->
<svg xmlns="http://www.w3.org/2000/svg" xmlns:xlink="http://www.w3.org/1999/xlink" version="1.1" id="Layer_1" x="0px" y="0px" viewBox="0 0 508 508" style="enable-background:new 0 0 508 508;" xml:space="preserve">
<circle style="fill:#324A5E;" cx="254" cy="254" r="254"/>
<path style="fill:#FFFFFF;" d="M366.3,79.1H141.7c-12.4,0-22.5,10.1-22.5,22.5v304.8c0,12.4,10.1,22.5,22.5,22.5h224.5  c12.4,0,22.5-10.1,22.5-22.5V101.6C388.7,89.2,378.7,79.1,366.3,79.1z"/>
<rect x="135.1" y="110.2" style="fill:#54C0EB;" width="237.8" height="280.2"/>
<g>
	<path style="fill:#E6E9EE;" d="M270.2,415.1h-32.3c-3.4,0-6.2-2.8-6.2-6.2l0,0c0-3.4,2.8-6.2,6.2-6.2h32.3c3.4,0,6.2,2.8,6.2,6.2   l0,0C276.4,412.3,273.6,415.1,270.2,415.1z"/>
	<path style="fill:#E6E9EE;" d="M273.5,97.7h-39.1c-1.6,0-2.8-1.3-2.8-2.8l0,0c0-1.6,1.3-2.8,2.8-2.8h39.1c1.6,0,2.8,1.3,2.8,2.8   l0,0C276.4,96.4,275.1,97.7,273.5,97.7z"/>
	<path style="fill:#E6E9EE;" d="M225.7,97.7h-0.8c-1.6,0-2.8-1.3-2.8-2.8l0,0c0-1.6,1.3-2.8,2.8-2.8h0.8c1.6,0,2.8,1.3,2.8,2.8l0,0   C228.5,96.4,227.3,97.7,225.7,97.7z"/>
	<circle style="fill:#E6E9EE;" cx="327.9" cy="94.9" r="5.6"/>
	<polygon style="fill:#E6E9EE;" points="307.2,249.2 304.1,205.8 260.7,208.9 273.1,219.7 220.3,287 191.5,268.4 187.6,265.9    185.2,269.1 143.5,327.6 189,278.4 217.4,304.5 222.4,309.2 228.6,303.5 294.7,238.5  "/>
</g>
<polygon style="fill:#2B3B4E;" points="347.7,257.2 347.7,270.9 335.6,270.9 369.2,304.5 382.1,291.6 "/>
<circle style="fill:#324A5E;" cx="295.5" cy="217.9" r="79.7"/>
<path style="fill:#84DBFF;" d="M339.8,262.2c-18.4,18.4-45.5,23-68.2,13.7c-7.5-3-14.5-7.6-20.5-13.7c-3.9-3.9-7.2-8.2-9.9-12.7  c-14-24-10.8-55.4,9.9-76c24.5-24.5,64.2-24.5,88.7,0S364.3,237.7,339.8,262.2z"/>
<path style="fill:#FF7058;" d="M369.9,275.7l-16.6,16.6c-2.4,2.4-2.4,6.3,0,8.7l59.6,59.6c2.4,2.4,6.3,2.4,8.7,0l16.6-16.6  c2.4-2.4,2.4-6.3,0-8.7l-59.6-59.6C376.2,273.3,372.3,273.3,369.9,275.7z"/>
<rect x="367.821" y="300.319" transform="matrix(-0.7071 -0.7071 0.7071 -0.7071 450.5735 823.1706)" style="fill:#FFD05B;" width="55.899" height="35.9"/>
<path style="fill:#FFFFFF;" d="M335.6,251.5l-21-17.9l-43,42.3c-7.5-3-14.5-7.6-20.5-13.7c-3.9-3.9-7.2-8.2-9.9-12.7l37.3-47.5  l-20.8-18.1l72.8-5.2L335.6,251.5z"/>
<g>
</g>
<g>
</g>
<g>
</g>
<g>
</g>
<g>
</g>
<g>
</g>
<g>
</g>
<g>
</g>
<g>
</g>
<g>
</g>
<g>
</g>
<g>
</g>
<g>
</g>
<g>
</g>
<g>
</g>
</svg>
