<?xml version="1.0" encoding="iso-8859-1"?>
<!-- Generator: Adobe Illustrator 19.0.0, SVG Export Plug-In . SVG Version: 6.00 Build 0)  -->
<svg xmlns="http://www.w3.org/2000/svg" xmlns:xlink="http://www.w3.org/1999/xlink" version="1.1" id="Layer_1" x="0px" y="0px" viewBox="0 0 508 508" style="enable-background:new 0 0 508 508;" xml:space="preserve">
<circle style="fill:#90DFAA;" cx="254" cy="254" r="254"/>
<rect x="179.233" y="288.82" transform="matrix(-0.7071 -0.7071 0.7071 -0.7071 102.3442 676.032)" style="fill:#2B3B4E;" width="23.9" height="55.999"/>
<circle style="fill:#324A5E;" cx="291.6" cy="216.4" r="142.1"/>
<g>
	<circle style="fill:#FFFFFF;" cx="291.6" cy="216.4" r="119"/>
	<path style="fill:#FFFFFF;" d="M196.2,345.2l-33.4-33.4c-0.9-0.9-2.5-0.9-3.4,0l-72.3,72.3c-0.9,0.9-0.9,2.5,0,3.4l33.4,33.4   c0.9,0.9,2.5,0.9,3.4,0l72.3-72.3C197.1,347.7,197.1,346.2,196.2,345.2z"/>
</g>
<rect x="106.871" y="340.3" transform="matrix(0.7071 -0.7071 0.7071 0.7071 -217.5538 207.4772)" style="fill:#FF7058;" width="69.599" height="52.1"/>
<path style="fill:#E6E9EE;" d="M256.4,264l-25.3,25.3c37.2,30.8,92.5,28.8,127.4-6.1c16.2-16.2,25.3-36.8,27.3-58h-35.7  c-1.8,12.1-7.4,23.7-16.7,32.9C312.4,279.2,279.6,281.1,256.4,264z"/>
<path style="fill:#FF7058;" d="M231.1,143.2l25.3,25.3c20.8-15.3,49.3-15.3,70.2,0l25.3-25.3C316.8,114.2,266,114.2,231.1,143.2z"/>
<path style="fill:#84DBFF;" d="M364.5,155.9l-25.3,25.3c5.8,7.9,9.4,16.8,10.8,26.1h35.7C384.1,188.9,377,170.9,364.5,155.9z"/>
<path style="fill:#FFD05B;" d="M243.6,181.2l-25.3-25.3c-28.9,34.9-28.9,85.8,0,120.7l25.3-25.3C228.3,230.5,228.3,202,243.6,181.2z  "/>
<g>
</g>
<g>
</g>
<g>
</g>
<g>
</g>
<g>
</g>
<g>
</g>
<g>
</g>
<g>
</g>
<g>
</g>
<g>
</g>
<g>
</g>
<g>
</g>
<g>
</g>
<g>
</g>
<g>
</g>
</svg>
