<?xml version="1.0" encoding="iso-8859-1"?>
<!-- Generator: Adobe Illustrator 19.0.0, SVG Export Plug-In . SVG Version: 6.00 Build 0)  -->
<svg xmlns="http://www.w3.org/2000/svg" xmlns:xlink="http://www.w3.org/1999/xlink" version="1.1" id="Layer_1" x="0px" y="0px" viewBox="0 0 508 508" style="enable-background:new 0 0 508 508;" xml:space="preserve">
<circle style="fill:#84DBFF;" cx="254" cy="254" r="254"/>
<path style="fill:#324A5E;" d="M219.3,383.3l-13.9,31.5h-24.9l61-138.4h24.9l61,138.4h-25l-13.9-31.5H219.3z M279.1,361.7l-25.1-57  l-25.1,57H279.1z"/>
<path style="fill:#FFFFFF;" d="M407.1,349.5H100.9c-2.4,0-4.3-1.9-4.3-4.3V128.4c0-2.4,1.9-4.3,4.3-4.3H407c2.4,0,4.3,1.9,4.3,4.3  v216.8C411.4,347.6,409.4,349.5,407.1,349.5z"/>
<path style="fill:#FFD05B;" d="M246.6,166.2v72.1h-67.8c0-0.4-0.1-0.9-0.1-1.4c0-0.9-0.1-1.8-0.1-2.7  C178.6,196.6,209.1,166.2,246.6,166.2z"/>
<path style="fill:#FF7058;" d="M321.8,241.4c0,37.5-30.4,68-68,68c-36.2,0-65.7-28.2-67.9-63.9h23.3c2,22.8,21.2,40.6,44.5,40.6  c24.7,0,44.7-20,44.7-44.7s-20-44.7-44.7-44.7v-23.3C291.4,173.4,321.8,203.9,321.8,241.4z"/>
<g>
</g>
<g>
</g>
<g>
</g>
<g>
</g>
<g>
</g>
<g>
</g>
<g>
</g>
<g>
</g>
<g>
</g>
<g>
</g>
<g>
</g>
<g>
</g>
<g>
</g>
<g>
</g>
<g>
</g>
</svg>
