<?xml version="1.0" encoding="iso-8859-1"?>
<!-- Generator: Adobe Illustrator 19.0.0, SVG Export Plug-In . SVG Version: 6.00 Build 0)  -->
<svg xmlns="http://www.w3.org/2000/svg" xmlns:xlink="http://www.w3.org/1999/xlink" version="1.1" id="Layer_1" x="0px" y="0px" viewBox="0 0 508 508" style="enable-background:new 0 0 508 508;" xml:space="preserve">
<circle style="fill:#324A5E;" cx="254" cy="254" r="254"/>
<polygon style="fill:#FFFFFF;" points="423.6,221.5 417.9,141 337.4,146.7 360.4,166.7 262.5,291.7 209,257.2 201.7,252.5   197.4,258.6 119.8,367 204.4,275.7 257.1,324.3 266.4,332.8 277.8,322.3 400.4,201.7 "/>
<polygon style="fill:#FF7058;" points="388.1,286.5 382.4,367 301.9,361.3 325,341.3 227,216.3 173.6,250.8 166.3,255.5   161.9,249.4 84.4,141 168.9,232.3 221.6,183.7 230.9,175.2 242.3,185.7 365,306.3 "/>
<g>
</g>
<g>
</g>
<g>
</g>
<g>
</g>
<g>
</g>
<g>
</g>
<g>
</g>
<g>
</g>
<g>
</g>
<g>
</g>
<g>
</g>
<g>
</g>
<g>
</g>
<g>
</g>
<g>
</g>
</svg>
