<?xml version="1.0" encoding="iso-8859-1"?>
<!-- Generator: Adobe Illustrator 19.0.0, SVG Export Plug-In . SVG Version: 6.00 Build 0)  -->
<svg xmlns="http://www.w3.org/2000/svg" xmlns:xlink="http://www.w3.org/1999/xlink" version="1.1" id="Layer_1" x="0px" y="0px" viewBox="0 0 508 508" style="enable-background:new 0 0 508 508;" xml:space="preserve">
<circle style="fill:#FFD05B;" cx="254" cy="254" r="254"/>
<path style="fill:#FFFFFF;" d="M390.8,417.2H117.2c-1.2,0-2.1-1-2.1-2.1V93c0-1.2,1-2.1,2.1-2.1h273.5c1.2,0,2.1,1,2.1,2.1v322  C392.9,416.2,392,417.2,390.8,417.2z"/>
<g>
	<rect x="147.8" y="125.5" style="fill:#84DBFF;" width="123.1" height="14"/>
	<rect x="147.8" y="160.6" style="fill:#84DBFF;" width="70.4" height="14"/>
	<rect x="147.8" y="195.7" style="fill:#84DBFF;" width="100.5" height="14"/>
	<rect x="147.8" y="230.7" style="fill:#84DBFF;" width="153.6" height="14"/>
	<rect x="276.6" y="125.5" style="fill:#84DBFF;" width="83.7" height="14"/>
	<rect x="223.8" y="160.6" style="fill:#84DBFF;" width="136.4" height="14"/>
	<rect x="254" y="195.7" style="fill:#84DBFF;" width="106.2" height="14"/>
	<rect x="307.1" y="230.7" style="fill:#84DBFF;" width="53.1" height="14"/>
</g>
<g>
	<rect x="147.8" y="263.3" style="fill:#4CDBC4;" width="123.1" height="14"/>
	<rect x="147.8" y="298.3" style="fill:#4CDBC4;" width="70.4" height="14"/>
	<rect x="147.8" y="333.4" style="fill:#4CDBC4;" width="100.5" height="14"/>
	<rect x="147.8" y="368.4" style="fill:#4CDBC4;" width="153.6" height="14"/>
	<rect x="276.6" y="263.3" style="fill:#4CDBC4;" width="83.7" height="14"/>
	<rect x="223.8" y="298.3" style="fill:#4CDBC4;" width="136.4" height="14"/>
	<rect x="254" y="333.4" style="fill:#4CDBC4;" width="106.2" height="14"/>
	<rect x="307.1" y="368.4" style="fill:#4CDBC4;" width="53.1" height="14"/>
</g>
<g>
</g>
<g>
</g>
<g>
</g>
<g>
</g>
<g>
</g>
<g>
</g>
<g>
</g>
<g>
</g>
<g>
</g>
<g>
</g>
<g>
</g>
<g>
</g>
<g>
</g>
<g>
</g>
<g>
</g>
</svg>
