<?xml version="1.0" encoding="iso-8859-1"?>
<!-- Generator: Adobe Illustrator 19.0.0, SVG Export Plug-In . SVG Version: 6.00 Build 0)  -->
<svg xmlns="http://www.w3.org/2000/svg" xmlns:xlink="http://www.w3.org/1999/xlink" version="1.1" id="Layer_1" x="0px" y="0px" viewBox="0 0 508 508" style="enable-background:new 0 0 508 508;" xml:space="preserve">
<circle style="fill:#90DFAA;" cx="254" cy="254" r="254"/>
<path style="fill:#FFFFFF;" d="M403.2,129.4H90.8c-5.9,0-10.6,4.8-10.6,10.6v227.8c0,5.9,4.8,10.6,10.6,10.6h312.4  c5.9,0,10.6-4.8,10.6-10.6V140.1C413.8,134.2,409,129.4,403.2,129.4z"/>
<path style="fill:#324A5E;" d="M403.2,129.4H90.8c-5.9,0-10.6,4.8-10.6,10.6v25.6h333.7V140C413.8,134.2,409,129.4,403.2,129.4z"/>
<circle style="fill:#FFD05B;" cx="101.8" cy="147.6" r="8.4"/>
<circle style="fill:#FF7058;" cx="124.8" cy="147.6" r="8.4"/>
<circle style="fill:#4CDBC4;" cx="147.8" cy="147.6" r="8.4"/>
<path style="fill:#FFFFFF;" d="M361,157H177.2c-0.5,0-0.9-0.4-0.9-0.9V139c0-0.5,0.4-0.9,0.9-0.9H361c0.5,0,0.9,0.4,0.9,0.9v17.1  C361.8,156.6,361.5,157,361,157z"/>
<g>
	<path style="fill:#ACB3BA;" d="M187.4,151.3h-2.1l-2.5-7.4h2.1l1.4,4.5l1.4-4.5h2l1.4,4.5l1.4-4.5h2.1l-2.5,7.4H190l-1.4-4   L187.4,151.3z"/>
	<path style="fill:#ACB3BA;" d="M199.8,151.3h-2.1l-2.5-7.4h2.1l1.4,4.5l1.4-4.5h2l1.4,4.5l1.4-4.5h2.1l-2.5,7.4h-2.1l-1.4-4   L199.8,151.3z"/>
	<path style="fill:#ACB3BA;" d="M212.2,151.3h-2.1l-2.5-7.4h2.1l1.4,4.5l1.4-4.5h2l1.4,4.5l1.4-4.5h2.1l-2.5,7.4h-2.1l-1.4-4   L212.2,151.3z"/>
</g>
<path style="fill:#FF7058;" d="M473.7,258.1l-80.9-56.8c-4.3-3-11.6,0-11.6,4.7v22.6l-63,2.9c-4.9,0.2-8.7,4.3-8.7,9.1V284  c0,4.9,3.8,8.9,8.7,9.1l63,2.9v22.6c0,4.7,7.3,7.7,11.6,4.7l80.9-56.8C477,264.3,477,260.5,473.7,258.1z"/>
<g>
</g>
<g>
</g>
<g>
</g>
<g>
</g>
<g>
</g>
<g>
</g>
<g>
</g>
<g>
</g>
<g>
</g>
<g>
</g>
<g>
</g>
<g>
</g>
<g>
</g>
<g>
</g>
<g>
</g>
</svg>
