<?xml version="1.0" encoding="iso-8859-1"?>
<!-- Generator: Adobe Illustrator 19.0.0, SVG Export Plug-In . SVG Version: 6.00 Build 0)  -->
<svg xmlns="http://www.w3.org/2000/svg" xmlns:xlink="http://www.w3.org/1999/xlink" version="1.1" id="Layer_1" x="0px" y="0px" viewBox="0 0 508 508" style="enable-background:new 0 0 508 508;" xml:space="preserve">
<path style="fill:#FF7058;" d="M508,254c0,140.3-113.7,254-254,254S0,394.3,0,254S113.7,0,254,0c110.8,0,204.9,70.9,239.7,169.7  c7.5,21.2,12.2,43.6,13.7,66.9C507.8,242.4,508,248.2,508,254z"/>
<path style="fill:#FFFFFF;" d="M399.9,129.4H87.5c-5.9,0-10.6,4.8-10.6,10.6v227.8c0,5.9,4.8,10.6,10.6,10.6h312.4  c5.9,0,10.6-4.8,10.6-10.6V140.1C410.6,134.2,405.8,129.4,399.9,129.4z"/>
<path style="fill:#324A5E;" d="M399.9,129.4H87.5c-5.9,0-10.6,4.8-10.6,10.6v25.6h333.7V140C410.6,134.2,405.8,129.4,399.9,129.4z"/>
<circle style="fill:#FFD05B;" cx="98.5" cy="147.6" r="8.4"/>
<circle style="fill:#FF7058;" cx="121.5" cy="147.6" r="8.4"/>
<circle style="fill:#4CDBC4;" cx="144.6" cy="147.6" r="8.4"/>
<path style="fill:#FFFFFF;" d="M357.7,157H174c-0.5,0-0.9-0.4-0.9-0.9V139c0-0.5,0.4-0.9,0.9-0.9h183.7c0.5,0,0.9,0.4,0.9,0.9v17.1  C358.6,156.6,358.2,157,357.7,157z"/>
<g>
	<path style="fill:#ACB3BA;" d="M184.2,151.3H182l-2.5-7.4h2.1l1.4,4.5l1.4-4.5h2l1.4,4.5l1.4-4.5h2.1l-2.5,7.4h-2.1l-1.4-4   L184.2,151.3z"/>
	<path style="fill:#ACB3BA;" d="M196.6,151.3h-2.1l-2.5-7.4h2.1l1.4,4.5l1.4-4.5h2l1.4,4.5l1.4-4.5h2.1l-2.5,7.4h-2.1l-1.4-4   L196.6,151.3z"/>
	<path style="fill:#ACB3BA;" d="M209,151.3h-2.1l-2.5-7.4h2.1l1.4,4.5l1.4-4.5h2l1.4,4.5l1.4-4.5h2.1l-2.5,7.4h-2.1l-1.4-4   L209,151.3z"/>
</g>
<path style="fill:#FFD05B;" d="M290.8,266.6l80.9,56.8c4.3,3,11.6,0,11.6-4.7v-22.6l63-2.9c4.9-0.2,8.7-4.3,8.7-9.1v-43.3  c0-4.9-3.8-8.9-8.7-9.1l-63-2.9v-22.6c0-4.7-7.3-7.7-11.6-4.7l-80.9,56.8C287.5,260.5,287.5,264.3,290.8,266.6z"/>
<g>
</g>
<g>
</g>
<g>
</g>
<g>
</g>
<g>
</g>
<g>
</g>
<g>
</g>
<g>
</g>
<g>
</g>
<g>
</g>
<g>
</g>
<g>
</g>
<g>
</g>
<g>
</g>
<g>
</g>
</svg>
