<?xml version="1.0" encoding="iso-8859-1"?>
<!-- Generator: Adobe Illustrator 19.0.0, SVG Export Plug-In . SVG Version: 6.00 Build 0)  -->
<svg xmlns="http://www.w3.org/2000/svg" xmlns:xlink="http://www.w3.org/1999/xlink" version="1.1" id="Layer_1" x="0px" y="0px" viewBox="0 0 508 508" style="enable-background:new 0 0 508 508;" xml:space="preserve">
<circle style="fill:#FD8469;" cx="254" cy="254" r="254"/>
<path style="fill:#324A5E;" d="M405.2,114.3H102.8c-6.5,0-11.9,5.3-11.9,11.9v210.3c0,6.5,5.3,11.9,11.9,11.9h302.4  c6.5,0,11.9-5.3,11.9-11.9V126.1C417.1,119.6,411.8,114.3,405.2,114.3z"/>
<rect x="102.2" y="135.9" style="fill:#84DBFF;" width="303.6" height="190.8"/>
<path style="fill:#E6E9EE;" d="M74,357.1c0,15.9,12.9,28.8,28.8,28.8h302.4c15.9,0,28.8-12.9,28.8-28.8H74z"/>
<polygon style="fill:#CED5E0;" points="292.4,371.5 215.6,371.5 204,357.1 304,357.1 "/>
<polygon style="fill:#324A5E;" points="163.1,274.7 157.5,269.1 228.5,198.1 281.5,251.2 344.9,187.8 350.5,193.4 281.5,262.4   228.5,209.4 "/>
<circle style="fill:#FFFFFF;" cx="347.7" cy="190.6" r="24.4"/>
<circle style="fill:#FFD05B;" cx="347.7" cy="190.6" r="15.4"/>
<circle style="fill:#FFFFFF;" cx="281.5" cy="256.8" r="24.4"/>
<circle style="fill:#FFD05B;" cx="281.5" cy="256.8" r="15.4"/>
<circle style="fill:#FFFFFF;" cx="228.5" cy="203.7" r="24.4"/>
<circle style="fill:#FFD05B;" cx="228.5" cy="203.7" r="15.4"/>
<circle style="fill:#FFFFFF;" cx="160.3" cy="271.9" r="24.4"/>
<circle style="fill:#FFD05B;" cx="160.3" cy="271.9" r="15.4"/>
<g>
</g>
<g>
</g>
<g>
</g>
<g>
</g>
<g>
</g>
<g>
</g>
<g>
</g>
<g>
</g>
<g>
</g>
<g>
</g>
<g>
</g>
<g>
</g>
<g>
</g>
<g>
</g>
<g>
</g>
</svg>
