<?xml version="1.0" encoding="iso-8859-1"?>
<!-- Generator: Adobe Illustrator 19.0.0, SVG Export Plug-In . SVG Version: 6.00 Build 0)  -->
<svg xmlns="http://www.w3.org/2000/svg" xmlns:xlink="http://www.w3.org/1999/xlink" version="1.1" id="Layer_1" x="0px" y="0px" viewBox="0 0 508 508" style="enable-background:new 0 0 508 508;" xml:space="preserve">
<circle style="fill:#90DFAA;" cx="254" cy="254" r="254"/>
<path style="fill:#FFFFFF;" d="M188.7,400.4H99.2c-1.3,0-2.4-1.1-2.4-2.4V110c0-1.3,1.1-2.4,2.4-2.4h89.5c1.3,0,2.4,1.1,2.4,2.4v288  C191.1,399.3,190,400.4,188.7,400.4z"/>
<rect x="112.3" y="127.7" style="fill:#FF7058;" width="63.3" height="141.4"/>
<circle style="fill:#324A5E;" cx="143.9" cy="351.5" r="21.5"/>
<path style="fill:#FFFFFF;" d="M297.3,400.4h-89.5c-1.3,0-2.4-1.1-2.4-2.4V110c0-1.3,1.1-2.4,2.4-2.4h89.5c1.3,0,2.4,1.1,2.4,2.4  v288C299.7,399.3,298.6,400.4,297.3,400.4z"/>
<rect x="220.9" y="127.7" style="fill:#84DBFF;" width="63.3" height="141.4"/>
<circle style="fill:#324A5E;" cx="252.5" cy="351.5" r="21.5"/>
<path style="fill:#FFFFFF;" d="M408.9,400.4h-89.5c-1.3,0-2.4-1.1-2.4-2.4V110c0-1.3,1.1-2.4,2.4-2.4h89.5c1.3,0,2.4,1.1,2.4,2.4  v288C411.3,399.3,410.2,400.4,408.9,400.4z"/>
<rect x="332.5" y="127.7" style="fill:#FFD05B;" width="63.3" height="141.4"/>
<circle style="fill:#324A5E;" cx="364.1" cy="351.5" r="21.5"/>
<g>
	<circle style="fill:#2B3B4E;" cx="364.1" cy="351.5" r="13.4"/>
	<circle style="fill:#2B3B4E;" cx="252.5" cy="351.5" r="13.4"/>
	<circle style="fill:#2B3B4E;" cx="143.9" cy="351.5" r="13.4"/>
</g>
<g>
</g>
<g>
</g>
<g>
</g>
<g>
</g>
<g>
</g>
<g>
</g>
<g>
</g>
<g>
</g>
<g>
</g>
<g>
</g>
<g>
</g>
<g>
</g>
<g>
</g>
<g>
</g>
<g>
</g>
</svg>
