<?xml version="1.0" encoding="iso-8859-1"?>
<!-- Generator: Adobe Illustrator 19.0.0, SVG Export Plug-In . SVG Version: 6.00 Build 0)  -->
<svg xmlns="http://www.w3.org/2000/svg" xmlns:xlink="http://www.w3.org/1999/xlink" version="1.1" id="Layer_1" x="0px" y="0px" viewBox="0 0 508 508" style="enable-background:new 0 0 508 508;" xml:space="preserve">
<circle style="fill:#FD8469;" cx="254" cy="254" r="254"/>
<path style="fill:#FFFFFF;" d="M390.6,174.2c-0.7,0-1.4,0.1-2.2,0.1c1.4-6.1,2.2-12.4,2.2-18.9c0-46.9-38-85-85-85  c-24.2,0-46,10.2-61.5,26.5c-15.5-16.3-37.3-26.5-61.5-26.5c-46.9,0-85,38-85,85c0,7.4,1,14.5,2.8,21.4  C78,183.9,61.7,205,61.7,229.9c0,30.8,24.9,55.7,55.7,55.7h273.3c30.8,0,55.7-24.9,55.7-55.7S421.4,174.2,390.6,174.2z"/>
<rect x="165.2" y="253.7" style="fill:#2B3B4E;" width="177.7" height="140.3"/>
<g>
	<path style="fill:#324A5E;" d="M361.4,277.2H146.6c-0.8,0-1.5-0.7-1.5-1.5V215c0-0.8,0.7-1.5,1.5-1.5h214.9c0.8,0,1.5,0.7,1.5,1.5   v60.7C362.9,276.5,362.3,277.2,361.4,277.2z"/>
	<path style="fill:#324A5E;" d="M361.4,355.6H146.6c-0.8,0-1.5-0.7-1.5-1.5v-60.7c0-0.8,0.7-1.5,1.5-1.5h214.9   c0.8,0,1.5,0.7,1.5,1.5v60.7C362.9,355,362.3,355.6,361.4,355.6z"/>
	<path style="fill:#324A5E;" d="M361.4,434.1H146.6c-0.8,0-1.5-0.7-1.5-1.5v-60.7c0-0.8,0.7-1.5,1.5-1.5h214.9   c0.8,0,1.5,0.7,1.5,1.5v60.7C362.9,433.4,362.3,434.1,361.4,434.1z"/>
</g>
<circle style="fill:#4CDBC4;" cx="175.6" cy="245.4" r="10.5"/>
<circle style="fill:#FFD05B;" cx="203.9" cy="245.4" r="10.5"/>
<circle style="fill:#4CDBC4;" cx="175.6" cy="323.8" r="10.5"/>
<circle style="fill:#FFD05B;" cx="203.9" cy="323.8" r="10.5"/>
<circle style="fill:#4CDBC4;" cx="175.6" cy="402.2" r="10.5"/>
<circle style="fill:#FFD05B;" cx="203.9" cy="402.2" r="10.5"/>
<g>
</g>
<g>
</g>
<g>
</g>
<g>
</g>
<g>
</g>
<g>
</g>
<g>
</g>
<g>
</g>
<g>
</g>
<g>
</g>
<g>
</g>
<g>
</g>
<g>
</g>
<g>
</g>
<g>
</g>
</svg>
