<?xml version="1.0" encoding="iso-8859-1"?>
<!-- Generator: Adobe Illustrator 19.0.0, SVG Export Plug-In . SVG Version: 6.00 Build 0)  -->
<svg xmlns="http://www.w3.org/2000/svg" xmlns:xlink="http://www.w3.org/1999/xlink" version="1.1" id="Layer_1" x="0px" y="0px" viewBox="0 0 508 508" style="enable-background:new 0 0 508 508;" xml:space="preserve">
<circle style="fill:#FFD05B;" cx="254" cy="254" r="254"/>
<path style="fill:#FFFFFF;" d="M410.2,129.4H97.8c-5.9,0-10.6,4.8-10.6,10.6v227.8c0,5.9,4.8,10.6,10.6,10.6h312.4  c5.9,0,10.6-4.8,10.6-10.6V140.1C420.8,134.2,416.1,129.4,410.2,129.4z"/>
<path style="fill:#324A5E;" d="M410.2,129.4H97.8c-5.9,0-10.6,4.8-10.6,10.6v25.6h333.7V140C420.8,134.2,416.1,129.4,410.2,129.4z"/>
<circle style="fill:#FFD05B;" cx="108.8" cy="147.6" r="8.4"/>
<circle style="fill:#FF7058;" cx="131.8" cy="147.6" r="8.4"/>
<circle style="fill:#4CDBC4;" cx="154.8" cy="147.6" r="8.4"/>
<path style="fill:#FFFFFF;" d="M368,157H184.3c-0.5,0-0.9-0.4-0.9-0.9V139c0-0.5,0.4-0.9,0.9-0.9H368c0.5,0,0.9,0.4,0.9,0.9v17.1  C368.9,156.6,368.5,157,368,157z"/>
<g>
	<path style="fill:#ACB3BA;" d="M194.4,151.6h-2.1l-2.5-7.4h2.1l1.4,4.5l1.4-4.5h2l1.4,4.5l1.4-4.5h2.1l-2.5,7.4H197l-1.4-4   L194.4,151.6z"/>
	<path style="fill:#ACB3BA;" d="M206.8,151.6h-2.1l-2.5-7.4h2.1l1.4,4.5l1.4-4.5h2l1.4,4.5l1.4-4.5h2.1l-2.5,7.4h-2.1l-1.4-4   L206.8,151.6z"/>
	<path style="fill:#ACB3BA;" d="M219.2,151.6h-2.1l-2.5-7.4h2.1l1.4,4.5l1.4-4.5h2l1.4,4.5l1.4-4.5h2.1l-2.5,7.4H222l-1.4-4   L219.2,151.6z"/>
</g>
<g>
	<path style="fill:#E6E9EE;" d="M152.8,220v9.6c0,1.3-0.4,2-1.1,2h-2.2v5.8h2.2c0.7,0,1.1,0.7,1.1,2v9.8c0,4.5,2.4,6.8,7.1,6.8h2.6   v-5.8c-2.1,0-3.1-0.5-3.1-1.6v-10.4c0-1.7-0.6-2.9-1.8-3.7c1.2-0.8,1.8-2,1.8-3.7v-10c0-1.2,0.7-1.9,2.1-1.9h1v-5.8h-2.6   C155.1,213.1,152.8,215.4,152.8,220z"/>
	<path style="fill:#E6E9EE;" d="M171.7,241.2c-1.2,0-2.2,0.4-3,1.2s-1.2,1.8-1.2,3s0.4,2.2,1.2,3s1.8,1.2,3,1.2s2.2-0.4,3-1.2   s1.2-1.8,1.2-3s-0.4-2.2-1.2-3C173.9,241.6,172.9,241.2,171.7,241.2z"/>
	<path style="fill:#E6E9EE;" d="M185.4,241.2c-1.2,0-2.2,0.4-3,1.2s-1.2,1.8-1.2,3s0.4,2.2,1.2,3s1.8,1.2,3,1.2s2.2-0.4,3-1.2   s1.2-1.8,1.2-3s-0.4-2.2-1.2-3C187.6,241.6,186.6,241.2,185.4,241.2z"/>
	<path style="fill:#E6E9EE;" d="M199.1,241.2c-1.2,0-2.2,0.4-3,1.2s-1.2,1.8-1.2,3s0.4,2.2,1.2,3s1.8,1.2,3,1.2s2.2-0.4,3-1.2   s1.2-1.8,1.2-3s-0.4-2.2-1.2-3C201.3,241.6,200.3,241.2,199.1,241.2z"/>
	<path style="fill:#E6E9EE;" d="M212.9,241.2c-1.2,0-2.2,0.4-3,1.2s-1.2,1.8-1.2,3s0.4,2.2,1.2,3s1.8,1.2,3,1.2s2.2-0.4,3-1.2   s1.2-1.8,1.2-3s-0.4-2.2-1.2-3C215,241.6,214,241.2,212.9,241.2z"/>
	<path style="fill:#E6E9EE;" d="M226.6,241.2c-1.2,0-2.2,0.4-3,1.2s-1.2,1.8-1.2,3s0.4,2.2,1.2,3s1.8,1.2,3,1.2s2.2-0.4,3-1.2   s1.2-1.8,1.2-3s-0.4-2.2-1.2-3C228.7,241.6,227.7,241.2,226.6,241.2z"/>
	<path style="fill:#E6E9EE;" d="M240.3,241.2c-1.2,0-2.2,0.4-3,1.2s-1.2,1.8-1.2,3s0.4,2.2,1.2,3s1.8,1.2,3,1.2s2.2-0.4,3-1.2   s1.2-1.8,1.2-3s-0.4-2.2-1.2-3C242.5,241.6,241.5,241.2,240.3,241.2z"/>
	<path style="fill:#E6E9EE;" d="M254,241.2c-1.2,0-2.2,0.4-3,1.2s-1.2,1.8-1.2,3s0.4,2.2,1.2,3s1.8,1.2,3,1.2c1.2,0,2.2-0.4,3-1.2   s1.2-1.8,1.2-3s-0.4-2.2-1.2-3C256.2,241.6,255.2,241.2,254,241.2z"/>
	<path style="fill:#E6E9EE;" d="M267.7,241.2c-1.2,0-2.2,0.4-3,1.2s-1.2,1.8-1.2,3s0.4,2.2,1.2,3c0.8,0.8,1.8,1.2,3,1.2   s2.2-0.4,3-1.2s1.2-1.8,1.2-3s-0.4-2.2-1.2-3C269.9,241.6,268.9,241.2,267.7,241.2z"/>
	<path style="fill:#E6E9EE;" d="M281.4,241.2c-1.2,0-2.2,0.4-3,1.2s-1.2,1.8-1.2,3s0.4,2.2,1.2,3c0.8,0.8,1.8,1.2,3,1.2   s2.2-0.4,3-1.2s1.2-1.8,1.2-3s-0.4-2.2-1.2-3C283.6,241.6,282.6,241.2,281.4,241.2z"/>
	<path style="fill:#E6E9EE;" d="M295.1,241.2c-1.2,0-2.2,0.4-3,1.2s-1.2,1.8-1.2,3s0.4,2.2,1.2,3c0.8,0.8,1.8,1.2,3,1.2   s2.2-0.4,3-1.2s1.2-1.8,1.2-3s-0.4-2.2-1.2-3C297.3,241.6,296.3,241.2,295.1,241.2z"/>
	<path style="fill:#E6E9EE;" d="M308.9,241.2c-1.2,0-2.2,0.4-3,1.2s-1.2,1.8-1.2,3s0.4,2.2,1.2,3c0.8,0.8,1.8,1.2,3,1.2   s2.2-0.4,3-1.2s1.2-1.8,1.2-3s-0.4-2.2-1.2-3C311,241.6,310,241.2,308.9,241.2z"/>
	<path style="fill:#E6E9EE;" d="M322.6,241.2c-1.2,0-2.2,0.4-3,1.2s-1.2,1.8-1.2,3s0.4,2.2,1.2,3c0.8,0.8,1.8,1.2,3,1.2   s2.2-0.4,3-1.2s1.2-1.8,1.2-3s-0.4-2.2-1.2-3C324.7,241.6,323.8,241.2,322.6,241.2z"/>
	<path style="fill:#E6E9EE;" d="M336.3,241.2c-1.2,0-2.2,0.4-3,1.2s-1.2,1.8-1.2,3s0.4,2.2,1.2,3c0.8,0.8,1.8,1.2,3,1.2   s2.2-0.4,3-1.2s1.2-1.8,1.2-3s-0.4-2.2-1.2-3C338.5,241.6,337.5,241.2,336.3,241.2z"/>
	<path style="fill:#E6E9EE;" d="M356.3,231.7c-0.7,0-1.1-0.6-1.1-2V220c0-4.5-2.4-6.8-7.1-6.8h-2.6v5.8c2.1,0,3.1,0.5,3.1,1.6V231   c0,1.7,0.6,2.9,1.8,3.7c-1.2,0.8-1.8,2-1.8,3.7v10c0,1.2-0.7,1.9-2.1,1.9h-1v5.8h2.6c4.8,0,7.1-2.3,7.1-6.8v-9.6c0-1.3,0.4-2,1.1-2   h2.2v-5.8h-2.2V231.7z"/>
	<path style="fill:#E6E9EE;" d="M152.8,295v9.6c0,1.3-0.4,2-1.1,2h-2.2v5.8h2.2c0.7,0,1.1,0.7,1.1,2v9.8c0,4.5,2.4,6.8,7.1,6.8h2.6   v-5.8c-2.1,0-3.1-0.5-3.1-1.6v-10.4c0-1.7-0.6-2.9-1.8-3.7c1.2-0.8,1.8-2,1.8-3.7v-10c0-1.2,0.7-1.9,2.1-1.9h1v-5.8h-2.6   C155.1,288.2,152.8,290.4,152.8,295z"/>
	<path style="fill:#E6E9EE;" d="M171.7,316.2c-1.2,0-2.2,0.4-3,1.2c-0.8,0.8-1.2,1.8-1.2,3s0.4,2.2,1.2,3s1.8,1.2,3,1.2   s2.2-0.4,3-1.2c0.8-0.8,1.2-1.8,1.2-3s-0.4-2.2-1.2-3C173.9,316.6,172.9,316.2,171.7,316.2z"/>
	<path style="fill:#E6E9EE;" d="M185.4,316.2c-1.2,0-2.2,0.4-3,1.2c-0.8,0.8-1.2,1.8-1.2,3s0.4,2.2,1.2,3s1.8,1.2,3,1.2   s2.2-0.4,3-1.2c0.8-0.8,1.2-1.8,1.2-3s-0.4-2.2-1.2-3C187.6,316.6,186.6,316.2,185.4,316.2z"/>
	<path style="fill:#E6E9EE;" d="M199.1,316.2c-1.2,0-2.2,0.4-3,1.2c-0.8,0.8-1.2,1.8-1.2,3s0.4,2.2,1.2,3s1.8,1.2,3,1.2   s2.2-0.4,3-1.2c0.8-0.8,1.2-1.8,1.2-3s-0.4-2.2-1.2-3C201.3,316.6,200.3,316.2,199.1,316.2z"/>
	<path style="fill:#E6E9EE;" d="M212.9,316.2c-1.2,0-2.2,0.4-3,1.2c-0.8,0.8-1.2,1.8-1.2,3s0.4,2.2,1.2,3s1.8,1.2,3,1.2   s2.2-0.4,3-1.2c0.8-0.8,1.2-1.8,1.2-3s-0.4-2.2-1.2-3C215,316.6,214,316.2,212.9,316.2z"/>
	<path style="fill:#E6E9EE;" d="M226.6,316.2c-1.2,0-2.2,0.4-3,1.2c-0.8,0.8-1.2,1.8-1.2,3s0.4,2.2,1.2,3s1.8,1.2,3,1.2   s2.2-0.4,3-1.2c0.8-0.8,1.2-1.8,1.2-3s-0.4-2.2-1.2-3C228.7,316.6,227.7,316.2,226.6,316.2z"/>
	<path style="fill:#E6E9EE;" d="M240.3,316.2c-1.2,0-2.2,0.4-3,1.2c-0.8,0.8-1.2,1.8-1.2,3s0.4,2.2,1.2,3s1.8,1.2,3,1.2   s2.2-0.4,3-1.2c0.8-0.8,1.2-1.8,1.2-3s-0.4-2.2-1.2-3C242.5,316.6,241.5,316.2,240.3,316.2z"/>
	<path style="fill:#E6E9EE;" d="M254,316.2c-1.2,0-2.2,0.4-3,1.2c-0.8,0.8-1.2,1.8-1.2,3s0.4,2.2,1.2,3s1.8,1.2,3,1.2   c1.2,0,2.2-0.4,3-1.2c0.8-0.8,1.2-1.8,1.2-3s-0.4-2.2-1.2-3C256.2,316.6,255.2,316.2,254,316.2z"/>
	<path style="fill:#E6E9EE;" d="M267.7,316.2c-1.2,0-2.2,0.4-3,1.2c-0.8,0.8-1.2,1.8-1.2,3s0.4,2.2,1.2,3c0.8,0.8,1.8,1.2,3,1.2   s2.2-0.4,3-1.2c0.8-0.8,1.2-1.8,1.2-3s-0.4-2.2-1.2-3C269.9,316.6,268.9,316.2,267.7,316.2z"/>
	<path style="fill:#E6E9EE;" d="M281.4,316.2c-1.2,0-2.2,0.4-3,1.2c-0.8,0.8-1.2,1.8-1.2,3s0.4,2.2,1.2,3c0.8,0.8,1.8,1.2,3,1.2   s2.2-0.4,3-1.2c0.8-0.8,1.2-1.8,1.2-3s-0.4-2.2-1.2-3C283.6,316.6,282.6,316.2,281.4,316.2z"/>
	<path style="fill:#E6E9EE;" d="M295.1,316.2c-1.2,0-2.2,0.4-3,1.2c-0.8,0.8-1.2,1.8-1.2,3s0.4,2.2,1.2,3c0.8,0.8,1.8,1.2,3,1.2   s2.2-0.4,3-1.2c0.8-0.8,1.2-1.8,1.2-3s-0.4-2.2-1.2-3C297.3,316.6,296.3,316.2,295.1,316.2z"/>
	<path style="fill:#E6E9EE;" d="M308.9,316.2c-1.2,0-2.2,0.4-3,1.2c-0.8,0.8-1.2,1.8-1.2,3s0.4,2.2,1.2,3c0.8,0.8,1.8,1.2,3,1.2   s2.2-0.4,3-1.2c0.8-0.8,1.2-1.8,1.2-3s-0.4-2.2-1.2-3C311,316.6,310,316.2,308.9,316.2z"/>
	<path style="fill:#E6E9EE;" d="M322.6,316.2c-1.2,0-2.2,0.4-3,1.2c-0.8,0.8-1.2,1.8-1.2,3s0.4,2.2,1.2,3c0.8,0.8,1.8,1.2,3,1.2   s2.2-0.4,3-1.2c0.8-0.8,1.2-1.8,1.2-3s-0.4-2.2-1.2-3C324.7,316.6,323.8,316.2,322.6,316.2z"/>
	<path style="fill:#E6E9EE;" d="M336.3,316.2c-1.2,0-2.2,0.4-3,1.2c-0.8,0.8-1.2,1.8-1.2,3s0.4,2.2,1.2,3c0.8,0.8,1.8,1.2,3,1.2   s2.2-0.4,3-1.2c0.8-0.8,1.2-1.8,1.2-3s-0.4-2.2-1.2-3C338.5,316.6,337.5,316.2,336.3,316.2z"/>
	<path style="fill:#E6E9EE;" d="M355.2,304.7V295c0-4.5-2.4-6.8-7.1-6.8h-2.6v5.8c2.1,0,3.1,0.5,3.1,1.6V306c0,1.7,0.6,2.9,1.8,3.7   c-1.2,0.8-1.8,2-1.8,3.7v10c0,1.2-0.7,1.9-2.1,1.9h-1v5.8h2.6c4.8,0,7.1-2.3,7.1-6.8v-9.6c0-1.3,0.4-2,1.1-2h2.2v-5.8h-2.2   C355.6,306.7,355.2,306,355.2,304.7z"/>
</g>
<g>
</g>
<g>
</g>
<g>
</g>
<g>
</g>
<g>
</g>
<g>
</g>
<g>
</g>
<g>
</g>
<g>
</g>
<g>
</g>
<g>
</g>
<g>
</g>
<g>
</g>
<g>
</g>
<g>
</g>
</svg>
