<?xml version="1.0" encoding="iso-8859-1"?>
<!-- Generator: Adobe Illustrator 19.0.0, SVG Export Plug-In . SVG Version: 6.00 Build 0)  -->
<svg xmlns="http://www.w3.org/2000/svg" xmlns:xlink="http://www.w3.org/1999/xlink" version="1.1" id="Layer_1" x="0px" y="0px" viewBox="0 0 508 508" style="enable-background:new 0 0 508 508;" xml:space="preserve">
<circle style="fill:#90DFAA;" cx="254" cy="254" r="254"/>
<path style="fill:#E6E9EE;" d="M410.8,113.6H136.1c-5.2,0-9.4,4.2-9.4,9.4v200.3c0,5.2,4.2,9.4,9.4,9.4h274.7c5.2,0,9.4-4.2,9.4-9.4  V122.9C420.2,117.7,416,113.6,410.8,113.6z"/>
<path style="fill:#2B3B4E;" d="M410.8,113.6H136.1c-5.2,0-9.4,4.2-9.4,9.4v22.5h293.4V123C420.2,117.7,416,113.6,410.8,113.6z"/>
<circle style="fill:#F9B54C;" cx="145.8" cy="129.5" r="7.4"/>
<circle style="fill:#F1543F;" cx="166" cy="129.5" r="7.4"/>
<circle style="fill:#2C9984;" cx="186.3" cy="129.5" r="7.4"/>
<path style="fill:#E6E9EE;" d="M373.7,137.8H212.1c-0.4,0-0.8-0.3-0.8-0.8v-15c0-0.4,0.3-0.8,0.8-0.8h161.5c0.4,0,0.8,0.3,0.8,0.8  v15C374.5,137.4,374.1,137.8,373.7,137.8z"/>
<g>
	<path style="fill:#324A5E;" d="M221.1,133h-1.9l-2.2-6.5h1.9l1.3,3.9l1.3-3.9h1.8l1.3,3.9l1.3-3.9h1.9l-2.2,6.5h-1.9l-1.2-3.5   L221.1,133z"/>
	<path style="fill:#324A5E;" d="M232,133h-1.9l-2.2-6.5h1.9l1.3,3.9l1.3-3.9h1.8l1.3,3.9l1.3-3.9h1.9l-2.2,6.5h-1.9l-1.2-3.5   L232,133z"/>
	<path style="fill:#324A5E;" d="M242.9,133H241l-2.2-6.5h1.9l1.3,3.9l1.3-3.9h1.8l1.3,3.9l1.3-3.9h1.9l-2.2,6.5h-1.9l-1.2-3.5   L242.9,133z"/>
</g>
<path style="fill:#FFFFFF;" d="M371.9,175.4H97.2c-5.2,0-9.4,4.2-9.4,9.4v200.3c0,5.2,4.2,9.4,9.4,9.4h274.7c5.2,0,9.4-4.2,9.4-9.4  V184.8C381.2,179.6,377,175.4,371.9,175.4z"/>
<path style="fill:#324A5E;" d="M371.9,175.4H97.2c-5.2,0-9.4,4.2-9.4,9.4v22.5h293.4v-22.5C381.2,179.6,377,175.4,371.9,175.4z"/>
<circle style="fill:#FFD05B;" cx="106.9" cy="191.3" r="7.4"/>
<circle style="fill:#FF7058;" cx="127.1" cy="191.3" r="7.4"/>
<circle style="fill:#4CDBC4;" cx="147.4" cy="191.3" r="7.4"/>
<path style="fill:#FFFFFF;" d="M334.8,199.6H173.2c-0.4,0-0.8-0.3-0.8-0.8v-15c0-0.4,0.3-0.8,0.8-0.8h161.5c0.4,0,0.8,0.3,0.8,0.8  v15C335.6,199.3,335.2,199.6,334.8,199.6z"/>
<g>
	<path style="fill:#ACB3BA;" d="M182.2,194.9h-1.9l-2.2-6.5h1.9l1.3,3.9l1.3-3.9h1.8l1.3,3.9l1.3-3.9h1.9l-2.2,6.5h-1.9l-1.2-3.5   L182.2,194.9z"/>
	<path style="fill:#ACB3BA;" d="M193.1,194.9h-1.9l-2.2-6.5h1.9l1.3,3.9l1.3-3.9h1.8l1.3,3.9l1.3-3.9h1.9l-2.2,6.5h-1.9l-1.2-3.5   L193.1,194.9z"/>
	<path style="fill:#ACB3BA;" d="M204,194.9h-1.9l-2.2-6.5h1.9l1.3,3.9l1.3-3.9h1.8l1.3,3.9l1.3-3.9h1.9l-2.2,6.5h-1.9l-1.2-3.5   L204,194.9z"/>
</g>
<g>
</g>
<g>
</g>
<g>
</g>
<g>
</g>
<g>
</g>
<g>
</g>
<g>
</g>
<g>
</g>
<g>
</g>
<g>
</g>
<g>
</g>
<g>
</g>
<g>
</g>
<g>
</g>
<g>
</g>
</svg>
