<?xml version="1.0" encoding="iso-8859-1"?>
<!-- Generator: Adobe Illustrator 19.0.0, SVG Export Plug-In . SVG Version: 6.00 Build 0)  -->
<svg xmlns="http://www.w3.org/2000/svg" xmlns:xlink="http://www.w3.org/1999/xlink" version="1.1" id="Layer_1" x="0px" y="0px" viewBox="0 0 508 508" style="enable-background:new 0 0 508 508;" xml:space="preserve">
<circle style="fill:#84DBFF;" cx="254" cy="254" r="254"/>
<polygon style="fill:#324A5E;" points="416.4,250.2 268.4,250.2 373.1,145.5 364.7,137.1 260,241.8 260,93.7 248,93.7 248,241.8   143.3,137.1 134.9,145.5 239.6,250.2 91.6,250.2 91.6,262.1 239.6,262.1 134.9,366.8 143.3,375.2 248,270.5 248,418.6 260,418.6   260,270.5 364.7,375.2 373.1,366.8 268.4,262.1 416.4,262.1 "/>
<circle style="fill:#FFFFFF;" cx="254" cy="254" r="74.7"/>
<circle style="fill:#FF7058;" cx="254" cy="254" r="52"/>
<g>
	<circle style="fill:#FFFFFF;" cx="254" cy="93.7" r="25.7"/>
	<circle style="fill:#FFFFFF;" cx="254" cy="414.3" r="25.7"/>
	<circle style="fill:#FFFFFF;" cx="414.3" cy="254" r="25.7"/>
	<circle style="fill:#FFFFFF;" cx="93.7" cy="254" r="25.7"/>
	<circle style="fill:#FFFFFF;" cx="367.3" cy="140.7" r="25.7"/>
	<circle style="fill:#FFFFFF;" cx="140.7" cy="367.3" r="25.7"/>
	<circle style="fill:#FFFFFF;" cx="367.3" cy="367.3" r="25.7"/>
	<circle style="fill:#FFFFFF;" cx="140.7" cy="140.7" r="25.7"/>
</g>
<g>
</g>
<g>
</g>
<g>
</g>
<g>
</g>
<g>
</g>
<g>
</g>
<g>
</g>
<g>
</g>
<g>
</g>
<g>
</g>
<g>
</g>
<g>
</g>
<g>
</g>
<g>
</g>
<g>
</g>
</svg>
