<?xml version="1.0" encoding="iso-8859-1"?>
<!-- Generator: Adobe Illustrator 19.0.0, SVG Export Plug-In . SVG Version: 6.00 Build 0)  -->
<svg xmlns="http://www.w3.org/2000/svg" xmlns:xlink="http://www.w3.org/1999/xlink" version="1.1" id="Layer_1" x="0px" y="0px" viewBox="0 0 508 508" style="enable-background:new 0 0 508 508;" xml:space="preserve">
<circle style="fill:#324A5E;" cx="254" cy="254" r="254"/>
<g>
	<path style="fill:#F9B54C;" d="M195.7,307.6v-67.5c0-3.2-2.6-5.7-5.7-5.7H55.7c-3.2,0-5.7,2.6-5.7,5.7v67.5c0,1.9,1.6,3.5,3.5,3.5   h138.7C194.2,311.1,195.7,309.5,195.7,307.6z"/>
	<path style="fill:#F9B54C;" d="M458,307.6v-67.5c0-3.2-2.6-5.7-5.7-5.7H318c-3.2,0-5.7,2.6-5.7,5.7v67.5c0,1.9,1.6,3.5,3.5,3.5   h138.7C456.5,311.1,458,309.5,458,307.6z"/>
</g>
<g>
	<path style="fill:#FFFFFF;" d="M405.7,306.7l-72.6-48.9c-0.4-0.3-0.5-0.8-0.2-1.2l37.2-55.2c0.3-0.4,0.8-0.5,1.2-0.2L444,250   c0.4,0.3,0.5,0.8,0.2,1.2L407,306.5C406.7,306.9,406.1,307,405.7,306.7z"/>
	<path style="fill:#FFFFFF;" d="M140,306.7l-72.6-48.9c-0.4-0.3-0.5-0.8-0.2-1.2l37.2-55.2c0.3-0.4,0.8-0.5,1.2-0.2l72.6,48.9   c0.4,0.3,0.5,0.8,0.2,1.2l-37.2,55.2C141,306.9,140.4,307,140,306.7z"/>
	<path style="fill:#FFFFFF;" d="M215.5,192l-55.3,8.4c-0.5,0.1-0.9-0.3-1-0.7l-6.4-41.9c-0.1-0.5,0.3-0.9,0.7-1l55.3-8.4   c0.5-0.1,0.9,0.3,1,0.7l6.4,41.9C216.3,191.5,215.9,191.9,215.5,192z"/>
	<path style="fill:#FFFFFF;" d="M294.7,208.8L257.6,167c-0.3-0.4-0.3-0.9,0.1-1.3l31.7-28.1c0.4-0.3,0.9-0.3,1.3,0.1l37.1,41.9   c0.3,0.4,0.3,0.9-0.1,1.3L296,209C295.6,209.2,295,209.2,294.7,208.8z"/>
</g>
<g>
	<path style="fill:#FFD05B;" d="M399.4,259.1l-9.8,12.3c-1.1,1.4-2.7,2.2-4.5,2.2h-67c-3.2,0-5.7,2.6-5.7,5.7v62.5   c0,3.2,2.6,5.7,5.7,5.7h134.3c3.2,0,5.7-2.6,5.7-5.7v-79.1c0-3.2-2.6-5.7-5.7-5.7H404C402.1,257,400.5,257.8,399.4,259.1z"/>
	<path style="fill:#FFD05B;" d="M137.1,259.1l-9.8,12.3c-1.1,1.4-2.7,2.2-4.5,2.2h-67c-3.2,0-5.7,2.6-5.7,5.7v62.5   c0,3.2,2.6,5.7,5.7,5.7H190c3.2,0,5.7-2.6,5.7-5.7v-79.1c0-3.2-2.6-5.7-5.7-5.7h-48.4C139.8,257,138.2,257.8,137.1,259.1z"/>
</g>
<g>
</g>
<g>
</g>
<g>
</g>
<g>
</g>
<g>
</g>
<g>
</g>
<g>
</g>
<g>
</g>
<g>
</g>
<g>
</g>
<g>
</g>
<g>
</g>
<g>
</g>
<g>
</g>
<g>
</g>
</svg>
