<?xml version="1.0" encoding="iso-8859-1"?>
<!-- Generator: Adobe Illustrator 19.0.0, SVG Export Plug-In . SVG Version: 6.00 Build 0)  -->
<svg xmlns="http://www.w3.org/2000/svg" xmlns:xlink="http://www.w3.org/1999/xlink" version="1.1" id="Layer_1" x="0px" y="0px" viewBox="0 0 508 508" style="enable-background:new 0 0 508 508;" xml:space="preserve">
<circle style="fill:#90DFAA;" cx="254" cy="254" r="254"/>
<g>
	<path style="fill:#324A5E;" d="M254,437c-14,0-25.3-11.4-25.3-25.3c0-14,11.4-25.3,25.3-25.3c14,0,25.3,11.4,25.3,25.3   S268,437,254,437z M254,393.5c-10,0-18.1,8.1-18.1,18.1s8.1,18.1,18.1,18.1s18.1-8.1,18.1-18.1S264,393.5,254,393.5z"/>
	<rect x="250.4" y="347.6" style="fill:#324A5E;" width="7.2" height="38.3"/>
</g>
<path style="fill:#FFFFFF;" d="M407.7,127.7H100.3v233.2c0,1.2,1,2.2,2.2,2.2h303.1c1.2,0,2.2-1,2.2-2.2V127.7H407.7z"/>
<path style="fill:#324A5E;" d="M422.7,139H85.3c-0.6,0-1.1-0.5-1.1-1.1v-20.5c0-0.6,0.5-1.1,1.1-1.1h337.5c0.6,0,1.1,0.5,1.1,1.1  v20.5C423.8,138.5,423.4,139,422.7,139z"/>
<rect x="347.1" y="174.7" style="fill:#FF7058;" width="29.1" height="164.5"/>
<rect x="304" y="188.9" style="fill:#E6E9EE;" width="29.1" height="150.2"/>
<rect x="261" y="221.8" style="fill:#84DBFF;" width="29.1" height="117.4"/>
<rect x="217.9" y="207.2" style="fill:#FFD05B;" width="29.1" height="132"/>
<rect x="174.9" y="263.1" style="fill:#FF7058;" width="29.1" height="76.1"/>
<rect x="131.8" y="229.1" style="fill:#4CDBC4;" width="29.1" height="110.1"/>
<g>
</g>
<g>
</g>
<g>
</g>
<g>
</g>
<g>
</g>
<g>
</g>
<g>
</g>
<g>
</g>
<g>
</g>
<g>
</g>
<g>
</g>
<g>
</g>
<g>
</g>
<g>
</g>
<g>
</g>
</svg>
