<?xml version="1.0" encoding="iso-8859-1"?>
<!-- Generator: Adobe Illustrator 19.0.0, SVG Export Plug-In . SVG Version: 6.00 Build 0)  -->
<svg xmlns="http://www.w3.org/2000/svg" xmlns:xlink="http://www.w3.org/1999/xlink" version="1.1" id="Layer_1" x="0px" y="0px" viewBox="0 0 508 508" style="enable-background:new 0 0 508 508;" xml:space="preserve">
<circle style="fill:#324A5E;" cx="254" cy="254" r="254"/>
<g>
	<path style="fill:#FF7058;" d="M217.5,113l-5.1,12.7l35.8-15.4l-15.3-35.6l-4.4,10.8c-45.9-9.5-84.3,23.9-85.8,61.9   C155.2,111.5,192.5,100.6,217.5,113z"/>
	<path style="fill:#FF7058;" d="M290.5,395.2l5.1-12.7l-35.8,15.2l15.3,35.5l4.4-10.8c45.9,9.6,84.3-23.6,85.8-61.4   C352.8,396.9,315.5,407.6,290.5,395.2z"/>
</g>
<path style="fill:#FFFFFF;" d="M130.7,182.7v33.5c0,3.6-2.9,6.5-6.5,6.5H90.7v158.4c0,3.6,2.9,6.5,6.5,6.5h142.9  c3.6,0,6.5-2.9,6.5-6.5V189.3c0-3.6-2.9-6.5-6.5-6.5H130.7V182.7z"/>
<path style="fill:#E6E9EE;" d="M130.7,182.7l-40,40h33.5c3.6,0,6.5-2.9,6.5-6.5V182.7z"/>
<path style="fill:#FFFFFF;" d="M301.4,120.3v33.5c0,3.6-2.9,6.5-6.5,6.5h-33.5v158.4c0,3.6,2.9,6.5,6.5,6.5h142.9  c3.6,0,6.5-2.9,6.5-6.5V126.8c0-3.6-2.9-6.5-6.5-6.5H301.4z"/>
<path style="fill:#E6E9EE;" d="M301.4,120.3l-40,40h33.5c3.6,0,6.5-2.9,6.5-6.5V120.3z"/>
<g>
	<path style="fill:#84DBFF;" d="M295.1,182.5h7.8v19.4h-4.2v-15.7H295v-3.7H295.1z"/>
	<path style="fill:#84DBFF;" d="M315,202.1c-2.7,0-4.7-0.9-6-2.7s-2-4.3-2-7.3s0.7-5.5,2-7.3s3.3-2.7,6-2.7s4.7,0.9,6,2.7   s2,4.3,2,7.3s-0.7,5.5-2,7.3C319.7,201.2,317.7,202.1,315,202.1z M312.1,187.4c-0.6,1.2-0.9,2.7-0.9,4.7c0,1.9,0.3,3.5,0.9,4.7   s1.6,1.8,2.9,1.8s2.2-0.6,2.9-1.8c0.6-1.2,0.9-2.7,0.9-4.7c0-1.9-0.3-3.5-0.9-4.7s-1.6-1.8-2.9-1.8   C313.7,185.7,312.7,186.3,312.1,187.4z"/>
	<path style="fill:#84DBFF;" d="M325.4,182.5h7.8v19.4H329v-15.7h-3.7v-3.7H325.4z"/>
	<path style="fill:#84DBFF;" d="M345.3,202.1c-2.7,0-4.7-0.9-6-2.7s-2-4.3-2-7.3s0.7-5.5,2-7.3s3.3-2.7,6-2.7s4.7,0.9,6,2.7   s2,4.3,2,7.3s-0.7,5.5-2,7.3C350,201.2,348,202.1,345.3,202.1z M342.5,187.4c-0.6,1.2-0.9,2.7-0.9,4.7c0,1.9,0.3,3.5,0.9,4.7   s1.6,1.8,2.9,1.8s2.2-0.6,2.9-1.8c0.6-1.2,0.9-2.7,0.9-4.7c0-1.9-0.3-3.5-0.9-4.7s-1.6-1.8-2.9-1.8   C344,185.7,343.1,186.3,342.5,187.4z"/>
	<path style="fill:#84DBFF;" d="M355.7,182.5h7.8v19.4h-4.2v-15.7h-3.7v-3.7H355.7z"/>
	<path style="fill:#84DBFF;" d="M375.6,202.1c-2.7,0-4.7-0.9-6-2.7s-2-4.3-2-7.3s0.7-5.5,2-7.3s3.3-2.7,6-2.7s4.7,0.9,6,2.7   s2,4.3,2,7.3s-0.7,5.5-2,7.3C380.3,201.2,378.3,202.1,375.6,202.1z M372.8,187.4c-0.6,1.2-0.9,2.7-0.9,4.7c0,1.9,0.3,3.5,0.9,4.7   s1.6,1.8,2.9,1.8s2.2-0.6,2.9-1.8c0.6-1.2,0.9-2.7,0.9-4.7c0-1.9-0.3-3.5-0.9-4.7s-1.6-1.8-2.9-1.8   C374.3,185.7,373.4,186.3,372.8,187.4z"/>
	<path style="fill:#84DBFF;" d="M295.1,215.8h7.8v19.4h-4.2v-15.7H295v-3.7H295.1z"/>
	<path style="fill:#84DBFF;" d="M315,235.4c-2.7,0-4.7-0.9-6-2.7s-2-4.3-2-7.3s0.7-5.5,2-7.3s3.3-2.7,6-2.7s4.7,0.9,6,2.7   s2,4.3,2,7.3s-0.7,5.5-2,7.3S317.7,235.4,315,235.4z M312.1,220.7c-0.6,1.2-0.9,2.7-0.9,4.7c0,1.9,0.3,3.5,0.9,4.7s1.6,1.8,2.9,1.8   s2.2-0.6,2.9-1.8c0.6-1.2,0.9-2.7,0.9-4.7c0-1.9-0.3-3.5-0.9-4.7s-1.6-1.8-2.9-1.8C313.7,219,312.7,219.6,312.1,220.7z"/>
	<path style="fill:#84DBFF;" d="M325.4,215.8h7.8v19.4H329v-15.7h-3.7v-3.7H325.4z"/>
	<path style="fill:#84DBFF;" d="M345.3,235.4c-2.7,0-4.7-0.9-6-2.7s-2-4.3-2-7.3s0.7-5.5,2-7.3s3.3-2.7,6-2.7s4.7,0.9,6,2.7   s2,4.3,2,7.3s-0.7,5.5-2,7.3S348,235.4,345.3,235.4z M342.5,220.7c-0.6,1.2-0.9,2.7-0.9,4.7c0,1.9,0.3,3.5,0.9,4.7s1.6,1.8,2.9,1.8   s2.2-0.6,2.9-1.8c0.6-1.2,0.9-2.7,0.9-4.7c0-1.9-0.3-3.5-0.9-4.7s-1.6-1.8-2.9-1.8C344,219,343.1,219.6,342.5,220.7z"/>
	<path style="fill:#84DBFF;" d="M355.7,215.8h7.8v19.4h-4.2v-15.7h-3.7v-3.7H355.7z"/>
	<path style="fill:#84DBFF;" d="M375.6,235.4c-2.7,0-4.7-0.9-6-2.7s-2-4.3-2-7.3s0.7-5.5,2-7.3s3.3-2.7,6-2.7s4.7,0.9,6,2.7   s2,4.3,2,7.3s-0.7,5.5-2,7.3C380.3,234.5,378.3,235.4,375.6,235.4z M372.8,220.7c-0.6,1.2-0.9,2.7-0.9,4.7c0,1.9,0.3,3.5,0.9,4.7   s1.6,1.8,2.9,1.8s2.2-0.6,2.9-1.8c0.6-1.2,0.9-2.7,0.9-4.7c0-1.9-0.3-3.5-0.9-4.7s-1.6-1.8-2.9-1.8   C374.3,219,373.4,219.6,372.8,220.7z"/>
	<path style="fill:#84DBFF;" d="M295.1,249.1h7.8v19.4h-4.2v-15.7H295v-3.7H295.1z"/>
	<path style="fill:#84DBFF;" d="M315,268.7c-2.7,0-4.7-0.9-6-2.7c-1.3-1.8-2-4.3-2-7.3s0.7-5.5,2-7.3s3.3-2.7,6-2.7s4.7,0.9,6,2.7   s2,4.3,2,7.3s-0.7,5.5-2,7.3S317.7,268.7,315,268.7z M312.1,254c-0.6,1.2-0.9,2.7-0.9,4.7c0,1.9,0.3,3.5,0.9,4.7s1.6,1.8,2.9,1.8   s2.2-0.6,2.9-1.8c0.6-1.2,0.9-2.7,0.9-4.7c0-1.9-0.3-3.5-0.9-4.7c-0.6-1.2-1.6-1.8-2.9-1.8S312.7,252.8,312.1,254z"/>
	<path style="fill:#84DBFF;" d="M325.4,249.1h7.8v19.4H329v-15.7h-3.7v-3.7H325.4z"/>
	<path style="fill:#84DBFF;" d="M345.3,268.7c-2.7,0-4.7-0.9-6-2.7c-1.3-1.8-2-4.3-2-7.3s0.7-5.5,2-7.3s3.3-2.7,6-2.7s4.7,0.9,6,2.7   s2,4.3,2,7.3s-0.7,5.5-2,7.3S348,268.7,345.3,268.7z M342.5,254c-0.6,1.2-0.9,2.7-0.9,4.7c0,1.9,0.3,3.5,0.9,4.7s1.6,1.8,2.9,1.8   s2.2-0.6,2.9-1.8c0.6-1.2,0.9-2.7,0.9-4.7c0-1.9-0.3-3.5-0.9-4.7c-0.6-1.2-1.6-1.8-2.9-1.8C344,252.2,343.1,252.8,342.5,254z"/>
	<path style="fill:#84DBFF;" d="M355.7,249.1h7.8v19.4h-4.2v-15.7h-3.7v-3.7H355.7z"/>
	<path style="fill:#84DBFF;" d="M375.6,268.7c-2.7,0-4.7-0.9-6-2.7c-1.3-1.8-2-4.3-2-7.3s0.7-5.5,2-7.3s3.3-2.7,6-2.7s4.7,0.9,6,2.7   s2,4.3,2,7.3s-0.7,5.5-2,7.3C380.3,267.8,378.3,268.7,375.6,268.7z M372.8,254c-0.6,1.2-0.9,2.7-0.9,4.7c0,1.9,0.3,3.5,0.9,4.7   s1.6,1.8,2.9,1.8s2.2-0.6,2.9-1.8c0.6-1.2,0.9-2.7,0.9-4.7c0-1.9-0.3-3.5-0.9-4.7c-0.6-1.2-1.6-1.8-2.9-1.8   C374.3,252.2,373.4,252.8,372.8,254z"/>
	<path style="fill:#84DBFF;" d="M124.4,252.4h7.8v19.4H128v-15.7h-3.7v-3.7H124.4z"/>
	<path style="fill:#84DBFF;" d="M144.2,272c-2.7,0-4.7-0.9-6-2.7c-1.3-1.8-2-4.3-2-7.3s0.7-5.5,2-7.3s3.3-2.7,6-2.7s4.7,0.9,6,2.7   c1.3,1.8,2,4.3,2,7.3s-0.7,5.5-2,7.3C148.9,271.1,146.9,272,144.2,272z M141.4,257.3c-0.6,1.2-0.9,2.7-0.9,4.7   c0,1.9,0.3,3.5,0.9,4.7c0.6,1.2,1.6,1.8,2.9,1.8c1.3,0,2.2-0.6,2.9-1.8c0.6-1.2,0.9-2.7,0.9-4.7c0-1.9-0.3-3.5-0.9-4.7   c-0.6-1.2-1.6-1.8-2.9-1.8C142.9,255.5,142,256.1,141.4,257.3z"/>
	<path style="fill:#84DBFF;" d="M154.7,252.4h7.8v19.4h-4.2v-15.7h-3.7v-3.7H154.7z"/>
	<path style="fill:#84DBFF;" d="M174.6,272c-2.7,0-4.7-0.9-6-2.7c-1.3-1.8-2-4.3-2-7.3s0.7-5.5,2-7.3c1.3-1.8,3.3-2.7,6-2.7   s4.7,0.9,6,2.7c1.3,1.8,2,4.3,2,7.3s-0.7,5.5-2,7.3C179.2,271.1,177.2,272,174.6,272z M171.7,257.3c-0.6,1.2-0.9,2.7-0.9,4.7   c0,1.9,0.3,3.5,0.9,4.7c0.6,1.2,1.6,1.8,2.9,1.8c1.3,0,2.2-0.6,2.9-1.8c0.6-1.2,0.9-2.7,0.9-4.7c0-1.9-0.3-3.5-0.9-4.7   c-0.6-1.2-1.6-1.8-2.9-1.8S172.3,256.1,171.7,257.3z"/>
	<path style="fill:#84DBFF;" d="M185,252.4h7.8v19.4h-4.2v-15.7H185V252.4z"/>
	<path style="fill:#84DBFF;" d="M204.9,272c-2.7,0-4.7-0.9-6-2.7c-1.3-1.8-2-4.3-2-7.3s0.7-5.5,2-7.3s3.3-2.7,6-2.7s4.7,0.9,6,2.7   c1.3,1.8,2,4.3,2,7.3s-0.7,5.5-2,7.3C209.6,271.1,207.6,272,204.9,272z M202,257.3c-0.6,1.2-0.9,2.7-0.9,4.7c0,1.9,0.3,3.5,0.9,4.7   c0.6,1.2,1.6,1.8,2.9,1.8c1.3,0,2.2-0.6,2.9-1.8c0.6-1.2,0.9-2.7,0.9-4.7c0-1.9-0.3-3.5-0.9-4.7c-0.6-1.2-1.6-1.8-2.9-1.8   S202.6,256.1,202,257.3z"/>
	<path style="fill:#84DBFF;" d="M124.4,285.7h7.8v19.4H128v-15.7h-3.7v-3.7H124.4z"/>
	<path style="fill:#84DBFF;" d="M144.2,305.3c-2.7,0-4.7-0.9-6-2.7c-1.3-1.8-2-4.3-2-7.3s0.7-5.5,2-7.3s3.3-2.7,6-2.7s4.7,0.9,6,2.7   c1.3,1.8,2,4.3,2,7.3s-0.7,5.5-2,7.3C148.9,304.4,146.9,305.3,144.2,305.3z M141.4,290.6c-0.6,1.2-0.9,2.7-0.9,4.7   c0,1.9,0.3,3.5,0.9,4.7c0.6,1.2,1.6,1.8,2.9,1.8c1.3,0,2.2-0.6,2.9-1.8c0.6-1.2,0.9-2.7,0.9-4.7c0-1.9-0.3-3.5-0.9-4.7   c-0.6-1.2-1.6-1.8-2.9-1.8C142.9,288.8,142,289.4,141.4,290.6z"/>
	<path style="fill:#84DBFF;" d="M154.7,285.7h7.8v19.4h-4.2v-15.7h-3.7v-3.7H154.7z"/>
	<path style="fill:#84DBFF;" d="M174.6,305.3c-2.7,0-4.7-0.9-6-2.7c-1.3-1.8-2-4.3-2-7.3s0.7-5.5,2-7.3s3.3-2.7,6-2.7s4.7,0.9,6,2.7   c1.3,1.8,2,4.3,2,7.3s-0.7,5.5-2,7.3C179.2,304.4,177.2,305.3,174.6,305.3z M171.7,290.6c-0.6,1.2-0.9,2.7-0.9,4.7   c0,1.9,0.3,3.5,0.9,4.7c0.6,1.2,1.6,1.8,2.9,1.8c1.3,0,2.2-0.6,2.9-1.8c0.6-1.2,0.9-2.7,0.9-4.7c0-1.9-0.3-3.5-0.9-4.7   c-0.6-1.2-1.6-1.8-2.9-1.8C173.3,288.8,172.3,289.4,171.7,290.6z"/>
	<path style="fill:#84DBFF;" d="M185,285.7h7.8v19.4h-4.2v-15.7H185V285.7z"/>
	<path style="fill:#84DBFF;" d="M204.9,305.3c-2.7,0-4.7-0.9-6-2.7c-1.3-1.8-2-4.3-2-7.3s0.7-5.5,2-7.3s3.3-2.7,6-2.7s4.7,0.9,6,2.7   c1.3,1.8,2,4.3,2,7.3s-0.7,5.5-2,7.3C209.6,304.4,207.6,305.3,204.9,305.3z M202,290.6c-0.6,1.2-0.9,2.7-0.9,4.7   c0,1.9,0.3,3.5,0.9,4.7c0.6,1.2,1.6,1.8,2.9,1.8c1.3,0,2.2-0.6,2.9-1.8c0.6-1.2,0.9-2.7,0.9-4.7c0-1.9-0.3-3.5-0.9-4.7   c-0.6-1.2-1.6-1.8-2.9-1.8C203.6,288.8,202.6,289.4,202,290.6z"/>
	<path style="fill:#84DBFF;" d="M124.4,319h7.8v19.4H128v-15.7h-3.7V319H124.4z"/>
	<path style="fill:#84DBFF;" d="M144.2,338.6c-2.7,0-4.7-0.9-6-2.7c-1.3-1.8-2-4.3-2-7.3s0.7-5.5,2-7.3s3.3-2.7,6-2.7s4.7,0.9,6,2.7   c1.3,1.8,2,4.3,2,7.3s-0.7,5.5-2,7.3C148.9,337.7,146.9,338.6,144.2,338.6z M141.4,323.9c-0.6,1.2-0.9,2.7-0.9,4.7   c0,1.9,0.3,3.5,0.9,4.7c0.6,1.2,1.6,1.8,2.9,1.8c1.3,0,2.2-0.6,2.9-1.8c0.6-1.2,0.9-2.7,0.9-4.7c0-1.9-0.3-3.5-0.9-4.7   c-0.6-1.2-1.6-1.8-2.9-1.8C142.9,322.1,142,322.7,141.4,323.9z"/>
	<path style="fill:#84DBFF;" d="M154.7,319h7.8v19.4h-4.2v-15.7h-3.7V319H154.7z"/>
	<path style="fill:#84DBFF;" d="M174.6,338.6c-2.7,0-4.7-0.9-6-2.7c-1.3-1.8-2-4.3-2-7.3s0.7-5.5,2-7.3s3.3-2.7,6-2.7s4.7,0.9,6,2.7   c1.3,1.8,2,4.3,2,7.3s-0.7,5.5-2,7.3C179.2,337.7,177.2,338.6,174.6,338.6z M171.7,323.9c-0.6,1.2-0.9,2.7-0.9,4.7   c0,1.9,0.3,3.5,0.9,4.7c0.6,1.2,1.6,1.8,2.9,1.8c1.3,0,2.2-0.6,2.9-1.8c0.6-1.2,0.9-2.7,0.9-4.7c0-1.9-0.3-3.5-0.9-4.7   c-0.6-1.2-1.6-1.8-2.9-1.8S172.3,322.7,171.7,323.9z"/>
	<path style="fill:#84DBFF;" d="M185,319h7.8v19.4h-4.2v-15.7H185V319z"/>
	<path style="fill:#84DBFF;" d="M204.9,338.6c-2.7,0-4.7-0.9-6-2.7c-1.3-1.8-2-4.3-2-7.3s0.7-5.5,2-7.3s3.3-2.7,6-2.7s4.7,0.9,6,2.7   c1.3,1.8,2,4.3,2,7.3s-0.7,5.5-2,7.3C209.6,337.7,207.6,338.6,204.9,338.6z M202,323.9c-0.6,1.2-0.9,2.7-0.9,4.7   c0,1.9,0.3,3.5,0.9,4.7c0.6,1.2,1.6,1.8,2.9,1.8c1.3,0,2.2-0.6,2.9-1.8c0.6-1.2,0.9-2.7,0.9-4.7c0-1.9-0.3-3.5-0.9-4.7   c-0.6-1.2-1.6-1.8-2.9-1.8S202.6,322.7,202,323.9z"/>
</g>
<g>
</g>
<g>
</g>
<g>
</g>
<g>
</g>
<g>
</g>
<g>
</g>
<g>
</g>
<g>
</g>
<g>
</g>
<g>
</g>
<g>
</g>
<g>
</g>
<g>
</g>
<g>
</g>
<g>
</g>
</svg>
