<?xml version="1.0" encoding="iso-8859-1"?>
<!-- Generator: Adobe Illustrator 19.0.0, SVG Export Plug-In . SVG Version: 6.00 Build 0)  -->
<svg xmlns="http://www.w3.org/2000/svg" xmlns:xlink="http://www.w3.org/1999/xlink" version="1.1" id="Layer_1" x="0px" y="0px" viewBox="0 0 508 508" style="enable-background:new 0 0 508 508;" xml:space="preserve">
<circle style="fill:#FFD05B;" cx="254" cy="254" r="254"/>
<rect x="202.5" y="364.9" style="fill:#2B3B4E;" width="103" height="28"/>
<path style="fill:#324A5E;" d="M413.8,122.6H94.2c-6.3,0-11.4,5.1-11.4,11.4v225.3c0,6.3,5.1,11.4,11.4,11.4h319.5  c6.3,0,11.4-5.1,11.4-11.4V134C425.2,127.7,420.1,122.6,413.8,122.6z"/>
<rect x="95.5" y="136.5" style="fill:#84DBFF;" width="317" height="197.4"/>
<circle style="fill:#2B3B4E;" cx="254" cy="351.9" r="10.3"/>
<g>
	<path style="fill:#324A5E;" d="M311.7,392.9H196.3c-5.6,0-10.2,4.6-10.2,10.2s4.6,10.2,10.2,10.2h115.3c5.6,0,10.2-4.6,10.2-10.2   C321.8,397.4,317.3,392.9,311.7,392.9z"/>
	<path style="fill:#324A5E;" d="M335.8,298.4h-33.3c-9.8,0-17.8-8-17.8-17.8V257h7.1v23.5c0,5.9,4.8,10.7,10.7,10.7h33.3   L335.8,298.4L335.8,298.4z"/>
</g>
<circle style="fill:#FFFFFF;" cx="335.8" cy="294.8" r="15.8"/>
<path style="fill:#324A5E;" d="M223.4,213.3h-7.1v-23.5c0-5.9-4.8-10.7-10.7-10.7h-33.3V172h33.3c9.8,0,17.8,8,17.8,17.8V213.3z"/>
<g>
	<circle style="fill:#FFFFFF;" cx="172.2" cy="175.1" r="15.8"/>
	<path style="fill:#FFFFFF;" d="M302.5,233.8c-0.3,0-0.5,0-0.8,0c0.5-2.2,0.8-4.4,0.8-6.7c0-16.7-13.5-30.2-30.2-30.2   c-8.6,0-16.3,3.6-21.8,9.4c-5.5-5.8-13.2-9.4-21.8-9.4c-16.7,0-30.2,13.5-30.2,30.2c0,2.6,0.4,5.2,1,7.6c-8,2.5-13.8,10-13.8,18.8   c0,10.9,8.9,19.8,19.8,19.8h97c10.9,0,19.8-8.9,19.8-19.8S313.4,233.8,302.5,233.8z"/>
</g>
<g>
</g>
<g>
</g>
<g>
</g>
<g>
</g>
<g>
</g>
<g>
</g>
<g>
</g>
<g>
</g>
<g>
</g>
<g>
</g>
<g>
</g>
<g>
</g>
<g>
</g>
<g>
</g>
<g>
</g>
</svg>
