<?xml version="1.0" encoding="iso-8859-1"?>
<!-- Generator: Adobe Illustrator 19.0.0, SVG Export Plug-In . SVG Version: 6.00 Build 0)  -->
<svg xmlns="http://www.w3.org/2000/svg" xmlns:xlink="http://www.w3.org/1999/xlink" version="1.1" id="Layer_1" x="0px" y="0px" viewBox="0 0 508 508" style="enable-background:new 0 0 508 508;" xml:space="preserve">
<circle style="fill:#324A5E;" cx="254" cy="254" r="254"/>
<path style="fill:#FFFFFF;" d="M390.3,295.4H117.7c-2,0-3.6-1.6-3.6-3.6V106.1c0-2,1.6-3.6,3.6-3.6h272.5c2,0,3.6,1.6,3.6,3.6v185.6  C393.9,293.8,392.3,295.4,390.3,295.4z"/>
<rect x="126.5" y="125.6" style="fill:#84DBFF;" width="255" height="151.4"/>
<polygon style="fill:#54C0EB;" points="328.1,125.6 248.1,277 381.5,277 381.5,125.6 "/>
<path style="fill:#E6E9EE;" d="M422.9,377.3H85.1c-8.1,0-12.8-3.2-10.5-7.1l37.1-65.2c1.4-2.4,7.4-4.3,13.6-4.3h257.5  c6.1,0,12.2,1.9,13.6,4.3l37.1,65.2C435.6,374.1,430.9,377.3,422.9,377.3z"/>
<polygon style="fill:#CED5E0;" points="410.8,346.4 390.6,311 117.4,311 97.2,346.4 "/>
<circle style="fill:#E6E9EE;" cx="254" cy="113.7" r="5.9"/>
<g>
</g>
<g>
</g>
<g>
</g>
<g>
</g>
<g>
</g>
<g>
</g>
<g>
</g>
<g>
</g>
<g>
</g>
<g>
</g>
<g>
</g>
<g>
</g>
<g>
</g>
<g>
</g>
<g>
</g>
</svg>
