<?xml version="1.0" encoding="iso-8859-1"?>
<!-- Generator: Adobe Illustrator 19.0.0, SVG Export Plug-In . SVG Version: 6.00 Build 0)  -->
<svg xmlns="http://www.w3.org/2000/svg" xmlns:xlink="http://www.w3.org/1999/xlink" version="1.1" id="Layer_1" x="0px" y="0px" viewBox="0 0 508 508" style="enable-background:new 0 0 508 508;" xml:space="preserve">
<circle style="fill:#90DFAA;" cx="254" cy="254" r="254"/>
<g>
	<path style="fill:#2B3B4E;" d="M86,116.1h11.5v28.4h-6.1v-23H86V116.1z"/>
	<path style="fill:#2B3B4E;" d="M115.1,144.8c-3.9,0-6.9-1.3-8.8-4c-2-2.7-2.9-6.2-2.9-10.7s1-8,2.9-10.7c2-2.7,4.9-4,8.8-4   s6.9,1.3,8.8,4c2,2.7,2.9,6.2,2.9,10.7s-1,8-2.9,10.7S119.1,144.8,115.1,144.8z M110.9,123.3c-0.9,1.7-1.3,4-1.3,6.9   s0.4,5.1,1.3,6.9c0.9,1.7,2.3,2.6,4.2,2.6c1.9,0,3.3-0.9,4.2-2.6c0.9-1.7,1.3-4,1.3-6.9s-0.5-5.1-1.3-6.9c-0.9-1.7-2.3-2.6-4.2-2.6   C113.2,120.7,111.8,121.5,110.9,123.3z"/>
	<path style="fill:#2B3B4E;" d="M130.4,116.1h11.5v28.4h-6.1v-23h-5.4V116.1z"/>
	<path style="fill:#2B3B4E;" d="M159.6,144.8c-3.9,0-6.9-1.3-8.8-4c-2-2.7-2.9-6.2-2.9-10.7s1-8,2.9-10.7c2-2.7,4.9-4,8.8-4   c3.9,0,6.9,1.3,8.8,4c2,2.7,2.9,6.2,2.9,10.7s-1,8-2.9,10.7C166.4,143.5,163.5,144.8,159.6,144.8z M155.4,123.3   c-0.9,1.7-1.3,4-1.3,6.9s0.4,5.1,1.3,6.9c0.9,1.7,2.3,2.6,4.2,2.6s3.3-0.9,4.2-2.6c0.9-1.7,1.3-4,1.3-6.9s-0.5-5.1-1.3-6.9   c-0.9-1.7-2.3-2.6-4.2-2.6S156.3,121.5,155.4,123.3z"/>
	<path style="fill:#2B3B4E;" d="M185.6,116.1h11.5v28.4H191v-23h-5.4V116.1z"/>
	<path style="fill:#2B3B4E;" d="M214.8,144.8c-3.9,0-6.9-1.3-8.8-4c-2-2.7-2.9-6.2-2.9-10.7s1-8,2.9-10.7c2-2.7,4.9-4,8.8-4   c3.9,0,6.9,1.3,8.8,4c2,2.7,2.9,6.2,2.9,10.7s-1,8-2.9,10.7C221.6,143.5,218.7,144.8,214.8,144.8z M210.6,123.3   c-0.9,1.7-1.3,4-1.3,6.9s0.4,5.1,1.3,6.9c0.9,1.7,2.3,2.6,4.2,2.6s3.3-0.9,4.2-2.6c0.9-1.7,1.3-4,1.3-6.9s-0.5-5.1-1.3-6.9   c-0.9-1.7-2.3-2.6-4.2-2.6C212.9,120.7,211.5,121.5,210.6,123.3z"/>
	<path style="fill:#2B3B4E;" d="M230.1,116.1h11.5v28.4h-6.1v-23h-5.4V116.1z"/>
	<path style="fill:#2B3B4E;" d="M259.2,144.8c-3.9,0-6.9-1.3-8.8-4c-2-2.7-2.9-6.2-2.9-10.7s1-8,2.9-10.7c2-2.7,4.9-4,8.8-4   s6.9,1.3,8.8,4c2,2.7,2.9,6.2,2.9,10.7s-1,8-2.9,10.7S263.1,144.8,259.2,144.8z M255,123.3c-0.9,1.7-1.3,4-1.3,6.9s0.4,5.1,1.3,6.9   c0.9,1.7,2.3,2.6,4.2,2.6c1.9,0,3.3-0.9,4.2-2.6c0.9-1.7,1.3-4,1.3-6.9s-0.5-5.1-1.3-6.9c-0.9-1.7-2.3-2.6-4.2-2.6   S255.9,121.5,255,123.3z"/>
	<path style="fill:#2B3B4E;" d="M285.2,116.1h11.5v28.4h-6.1v-23h-5.4V116.1z"/>
	<path style="fill:#2B3B4E;" d="M314.4,144.8c-3.9,0-6.9-1.3-8.8-4c-2-2.7-2.9-6.2-2.9-10.7s1-8,2.9-10.7c2-2.7,4.9-4,8.8-4   s6.9,1.3,8.8,4c2,2.7,2.9,6.2,2.9,10.7s-1,8-2.9,10.7S318.3,144.8,314.4,144.8z M310.2,123.3c-0.9,1.7-1.3,4-1.3,6.9   s0.4,5.1,1.3,6.9c0.9,1.7,2.3,2.6,4.2,2.6c1.9,0,3.3-0.9,4.2-2.6c0.9-1.7,1.3-4,1.3-6.9s-0.5-5.1-1.3-6.9c-0.9-1.7-2.3-2.6-4.2-2.6   S311.1,121.5,310.2,123.3z"/>
	<path style="fill:#2B3B4E;" d="M329.7,116.1h11.5v28.4h-6.1v-23h-5.4V116.1z"/>
	<path style="fill:#2B3B4E;" d="M346.1,116.1h11.5v28.4h-6.1v-23h-5.4V116.1z"/>
	<path style="fill:#2B3B4E;" d="M375.2,144.8c-3.9,0-6.9-1.3-8.8-4c-2-2.7-2.9-6.2-2.9-10.7s1-8,2.9-10.7c2-2.7,4.9-4,8.8-4   s6.9,1.3,8.8,4c2,2.7,2.9,6.2,2.9,10.7s-1,8-2.9,10.7S379.2,144.8,375.2,144.8z M371,123.3c-0.9,1.7-1.3,4-1.3,6.9s0.4,5.1,1.3,6.9   c0.9,1.7,2.3,2.6,4.2,2.6c1.9,0,3.3-0.9,4.2-2.6c0.9-1.7,1.3-4,1.3-6.9s-0.5-5.1-1.3-6.9c-0.9-1.7-2.3-2.6-4.2-2.6   S371.9,121.5,371,123.3z"/>
	<path style="fill:#2B3B4E;" d="M86,164.9h11.5v28.4h-6.1v-23H86V164.9z"/>
	<path style="fill:#2B3B4E;" d="M115.1,193.6c-3.9,0-6.9-1.3-8.8-4c-2-2.7-2.9-6.2-2.9-10.7s1-8,2.9-10.7c2-2.7,4.9-4,8.8-4   s6.9,1.3,8.8,4s2.9,6.2,2.9,10.7s-1,8-2.9,10.7S119.1,193.6,115.1,193.6z M110.9,172.1c-0.9,1.7-1.3,4-1.3,6.9   c0,2.8,0.4,5.1,1.3,6.9c0.9,1.7,2.3,2.6,4.2,2.6c1.9,0,3.3-0.9,4.2-2.6c0.9-1.7,1.3-4,1.3-6.9c0-2.8-0.5-5.1-1.3-6.9   c-0.9-1.7-2.3-2.6-4.2-2.6C113.2,169.5,111.8,170.3,110.9,172.1z"/>
	<path style="fill:#2B3B4E;" d="M130.4,164.9h11.5v28.4h-6.1v-23h-5.4V164.9z"/>
	<path style="fill:#2B3B4E;" d="M159.6,193.6c-3.9,0-6.9-1.3-8.8-4c-2-2.7-2.9-6.2-2.9-10.7s1-8,2.9-10.7c2-2.7,4.9-4,8.8-4   c3.9,0,6.9,1.3,8.8,4c2,2.7,2.9,6.2,2.9,10.7s-1,8-2.9,10.7C166.4,192.3,163.5,193.6,159.6,193.6z M155.4,172.1   c-0.9,1.7-1.3,4-1.3,6.9c0,2.8,0.4,5.1,1.3,6.9c0.9,1.7,2.3,2.6,4.2,2.6s3.3-0.9,4.2-2.6c0.9-1.7,1.3-4,1.3-6.9   c0-2.8-0.5-5.1-1.3-6.9c-0.9-1.7-2.3-2.6-4.2-2.6S156.3,170.3,155.4,172.1z"/>
	<path style="fill:#2B3B4E;" d="M174.9,164.9h11.5v28.4h-6.1v-23h-5.4V164.9z"/>
	<path style="fill:#2B3B4E;" d="M204,193.6c-3.9,0-6.9-1.3-8.8-4c-2-2.7-2.9-6.2-2.9-10.7s1-8,2.9-10.7c2-2.7,4.9-4,8.8-4   c3.9,0,6.9,1.3,8.8,4c2,2.7,2.9,6.2,2.9,10.7s-1,8-2.9,10.7C210.9,192.3,208,193.6,204,193.6z M199.8,172.1c-0.9,1.7-1.3,4-1.3,6.9   c0,2.8,0.4,5.1,1.3,6.9c0.9,1.7,2.3,2.6,4.2,2.6s3.3-0.9,4.2-2.6c0.9-1.7,1.3-4,1.3-6.9c0-2.8-0.5-5.1-1.3-6.9   c-0.9-1.7-2.3-2.6-4.2-2.6S200.7,170.3,199.8,172.1z"/>
	<path style="fill:#2B3B4E;" d="M219.3,164.9h11.5v28.4h-6.1v-23h-5.4V164.9z"/>
	<path style="fill:#2B3B4E;" d="M235.7,164.9h11.5v28.4h-6.1v-23h-5.4V164.9z"/>
	<path style="fill:#2B3B4E;" d="M264.9,193.6c-3.9,0-6.9-1.3-8.8-4c-2-2.7-2.9-6.2-2.9-10.7s1-8,2.9-10.7c2-2.7,4.9-4,8.8-4   s6.9,1.3,8.8,4s2.9,6.2,2.9,10.7s-1,8-2.9,10.7C271.7,192.3,268.8,193.6,264.9,193.6z M260.7,172.1c-0.9,1.7-1.3,4-1.3,6.9   c0,2.8,0.4,5.1,1.3,6.9c0.9,1.7,2.3,2.6,4.2,2.6c1.9,0,3.3-0.9,4.2-2.6c0.9-1.7,1.3-4,1.3-6.9c0-2.8-0.5-5.1-1.3-6.9   c-0.9-1.7-2.3-2.6-4.2-2.6S261.6,170.3,260.7,172.1z"/>
	<path style="fill:#2B3B4E;" d="M86,213.7h11.5v28.4h-6.1v-23H86V213.7z"/>
	<path style="fill:#2B3B4E;" d="M115.1,242.4c-3.9,0-6.9-1.3-8.8-4c-2-2.7-2.9-6.2-2.9-10.7s1-8,2.9-10.7c2-2.7,4.9-4,8.8-4   s6.9,1.3,8.8,4c2,2.7,2.9,6.2,2.9,10.7s-1,8-2.9,10.7C122,241.1,119.1,242.4,115.1,242.4z M110.9,220.9c-0.9,1.7-1.3,4-1.3,6.9   c0,2.8,0.4,5.1,1.3,6.9c0.9,1.7,2.3,2.6,4.2,2.6c1.9,0,3.3-0.9,4.2-2.6c0.9-1.7,1.3-4,1.3-6.9c0-2.8-0.5-5.1-1.3-6.9   c-0.9-1.7-2.3-2.6-4.2-2.6C113.2,218.3,111.8,219.1,110.9,220.9z"/>
	<path style="fill:#2B3B4E;" d="M130.4,213.7h11.5v28.4h-6.1v-23h-5.4V213.7z"/>
	<path style="fill:#2B3B4E;" d="M159.6,242.4c-3.9,0-6.9-1.3-8.8-4c-2-2.7-2.9-6.2-2.9-10.7s1-8,2.9-10.7c2-2.7,4.9-4,8.8-4   c3.9,0,6.9,1.3,8.8,4c2,2.7,2.9,6.2,2.9,10.7s-1,8-2.9,10.7C166.4,241.1,163.5,242.4,159.6,242.4z M155.4,220.9   c-0.9,1.7-1.3,4-1.3,6.9c0,2.8,0.4,5.1,1.3,6.9c0.9,1.7,2.3,2.6,4.2,2.6s3.3-0.9,4.2-2.6c0.9-1.7,1.3-4,1.3-6.9   c0-2.8-0.5-5.1-1.3-6.9c-0.9-1.7-2.3-2.6-4.2-2.6C157.7,218.3,156.3,219.1,155.4,220.9z"/>
	<path style="fill:#2B3B4E;" d="M174.9,213.7h11.5v28.4h-6.1v-23h-5.4V213.7z"/>
	<path style="fill:#2B3B4E;" d="M204,242.4c-3.9,0-6.9-1.3-8.8-4c-2-2.7-2.9-6.2-2.9-10.7s1-8,2.9-10.7c2-2.7,4.9-4,8.8-4   c3.9,0,6.9,1.3,8.8,4c2,2.7,2.9,6.2,2.9,10.7s-1,8-2.9,10.7C210.9,241.1,208,242.4,204,242.4z M199.8,220.9c-0.9,1.7-1.3,4-1.3,6.9   c0,2.8,0.4,5.1,1.3,6.9c0.9,1.7,2.3,2.6,4.2,2.6s3.3-0.9,4.2-2.6c0.9-1.7,1.3-4,1.3-6.9c0-2.8-0.5-5.1-1.3-6.9   c-0.9-1.7-2.3-2.6-4.2-2.6C202.1,218.3,200.7,219.1,199.8,220.9z"/>
	<path style="fill:#2B3B4E;" d="M219.3,213.7h11.5v28.4h-6.1v-23h-5.4V213.7z"/>
	<path style="fill:#2B3B4E;" d="M86,262.5h11.5v28.4h-6.1v-23H86V262.5z"/>
	<path style="fill:#2B3B4E;" d="M115.1,291.2c-3.9,0-6.9-1.3-8.8-4c-2-2.7-2.9-6.2-2.9-10.7s1-8,2.9-10.7c2-2.7,4.9-4,8.8-4   s6.9,1.3,8.8,4c2,2.7,2.9,6.2,2.9,10.7s-1,8-2.9,10.7C122,289.9,119.1,291.2,115.1,291.2z M110.9,269.7c-0.9,1.7-1.3,4-1.3,6.9   c0,2.8,0.4,5.1,1.3,6.9c0.9,1.7,2.3,2.6,4.2,2.6c1.9,0,3.3-0.9,4.2-2.6c0.9-1.7,1.3-4,1.3-6.9c0-2.8-0.5-5.1-1.3-6.9   c-0.9-1.7-2.3-2.6-4.2-2.6C113.2,267.1,111.8,267.9,110.9,269.7z"/>
	<path style="fill:#2B3B4E;" d="M130.4,262.5h11.5v28.4h-6.1v-23h-5.4V262.5z"/>
	<path style="fill:#2B3B4E;" d="M146.8,262.5h11.5v28.4h-6.1v-23h-5.4V262.5z"/>
	<path style="fill:#2B3B4E;" d="M176,291.2c-3.9,0-6.9-1.3-8.8-4c-2-2.7-2.9-6.2-2.9-10.7s1-8,2.9-10.7c2-2.7,4.9-4,8.8-4   c3.9,0,6.9,1.3,8.8,4c2,2.7,2.9,6.2,2.9,10.7s-1,8-2.9,10.7C182.8,289.9,179.9,291.2,176,291.2z M171.8,269.7   c-0.9,1.7-1.3,4-1.3,6.9c0,2.8,0.4,5.1,1.3,6.9c0.9,1.7,2.3,2.6,4.2,2.6s3.3-0.9,4.2-2.6s1.3-4,1.3-6.9c0-2.8-0.5-5.1-1.3-6.9   c-0.9-1.7-2.3-2.6-4.2-2.6S172.7,267.9,171.8,269.7z"/>
	<path style="fill:#2B3B4E;" d="M191.3,262.5h11.5v28.4h-6.1v-23h-5.4V262.5z"/>
	<path style="fill:#2B3B4E;" d="M220.4,291.2c-3.9,0-6.9-1.3-8.8-4c-2-2.7-2.9-6.2-2.9-10.7s1-8,2.9-10.7c2-2.7,4.9-4,8.8-4   c3.9,0,6.9,1.3,8.8,4c2,2.7,2.9,6.2,2.9,10.7s-1,8-2.9,10.7C227.3,289.9,224.3,291.2,220.4,291.2z M216.2,269.7   c-0.9,1.7-1.3,4-1.3,6.9c0,2.8,0.4,5.1,1.3,6.9c0.9,1.7,2.3,2.6,4.2,2.6s3.3-0.9,4.2-2.6s1.3-4,1.3-6.9c0-2.8-0.5-5.1-1.3-6.9   c-0.9-1.7-2.3-2.6-4.2-2.6S217.1,267.9,216.2,269.7z"/>
	<path style="fill:#2B3B4E;" d="M86,311.3h11.5v28.4h-6.1v-23H86V311.3z"/>
	<path style="fill:#2B3B4E;" d="M115.1,340c-3.9,0-6.9-1.3-8.8-4c-2-2.7-2.9-6.2-2.9-10.7s1-8,2.9-10.7c2-2.7,4.9-4,8.8-4   s6.9,1.3,8.8,4s2.9,6.2,2.9,10.7s-1,8-2.9,10.7S119.1,340,115.1,340z M110.9,318.5c-0.9,1.7-1.3,4-1.3,6.9c0,2.8,0.4,5.1,1.3,6.9   c0.9,1.7,2.3,2.6,4.2,2.6c1.9,0,3.3-0.9,4.2-2.6c0.9-1.7,1.3-4,1.3-6.9c0-2.8-0.5-5.1-1.3-6.9c-0.9-1.7-2.3-2.6-4.2-2.6   C113.2,315.9,111.8,316.7,110.9,318.5z"/>
	<path style="fill:#2B3B4E;" d="M130.4,311.3h11.5v28.4h-6.1v-23h-5.4V311.3z"/>
	<path style="fill:#2B3B4E;" d="M146.8,311.3h11.5v28.4h-6.1v-23h-5.4V311.3z"/>
	<path style="fill:#2B3B4E;" d="M176,340c-3.9,0-6.9-1.3-8.8-4c-2-2.7-2.9-6.2-2.9-10.7s1-8,2.9-10.7s4.9-4,8.8-4   c3.9,0,6.9,1.3,8.8,4s2.9,6.2,2.9,10.7s-1,8-2.9,10.7C182.8,338.7,179.9,340,176,340z M171.8,318.5c-0.9,1.7-1.3,4-1.3,6.9   c0,2.8,0.4,5.1,1.3,6.9c0.9,1.7,2.3,2.6,4.2,2.6s3.3-0.9,4.2-2.6s1.3-4,1.3-6.9c0-2.8-0.5-5.1-1.3-6.9c-0.9-1.7-2.3-2.6-4.2-2.6   S172.7,316.7,171.8,318.5z"/>
	<path style="fill:#2B3B4E;" d="M191.3,311.3h11.5v28.4h-6.1v-23h-5.4V311.3z"/>
	<path style="fill:#2B3B4E;" d="M220.4,340c-3.9,0-6.9-1.3-8.8-4c-2-2.7-2.9-6.2-2.9-10.7s1-8,2.9-10.7s4.9-4,8.8-4   c3.9,0,6.9,1.3,8.8,4s2.9,6.2,2.9,10.7s-1,8-2.9,10.7S224.3,340,220.4,340z M216.2,318.5c-0.9,1.7-1.3,4-1.3,6.9   c0,2.8,0.4,5.1,1.3,6.9c0.9,1.7,2.3,2.6,4.2,2.6s3.3-0.9,4.2-2.6s1.3-4,1.3-6.9c0-2.8-0.5-5.1-1.3-6.9c-0.9-1.7-2.3-2.6-4.2-2.6   S217.1,316.7,216.2,318.5z"/>
	<path style="fill:#2B3B4E;" d="M86,360.1h11.5v28.4h-6.1v-23H86V360.1z"/>
	<path style="fill:#2B3B4E;" d="M115.1,388.8c-3.9,0-6.9-1.3-8.8-4c-2-2.7-2.9-6.2-2.9-10.7s1-8,2.9-10.7c2-2.7,4.9-4,8.8-4   s6.9,1.3,8.8,4c2,2.7,2.9,6.2,2.9,10.7s-1,8-2.9,10.7S119.1,388.8,115.1,388.8z M110.9,367.3c-0.9,1.7-1.3,4-1.3,6.9   c0,2.8,0.4,5.1,1.3,6.9c0.9,1.7,2.3,2.6,4.2,2.6c1.9,0,3.3-0.9,4.2-2.6c0.9-1.7,1.3-4,1.3-6.9c0-2.8-0.5-5.1-1.3-6.9   c-0.9-1.7-2.3-2.6-4.2-2.6C113.2,364.7,111.8,365.5,110.9,367.3z"/>
	<path style="fill:#2B3B4E;" d="M130.4,360.1h11.5v28.4h-6.1v-23h-5.4V360.1z"/>
	<path style="fill:#2B3B4E;" d="M159.6,388.8c-3.9,0-6.9-1.3-8.8-4c-2-2.7-2.9-6.2-2.9-10.7s1-8,2.9-10.7c2-2.7,4.9-4,8.8-4   c3.9,0,6.9,1.3,8.8,4c2,2.7,2.9,6.2,2.9,10.7s-1,8-2.9,10.7C166.4,387.5,163.5,388.8,159.6,388.8z M155.4,367.3   c-0.9,1.7-1.3,4-1.3,6.9c0,2.8,0.4,5.1,1.3,6.9c0.9,1.7,2.3,2.6,4.2,2.6s3.3-0.9,4.2-2.6s1.3-4,1.3-6.9c0-2.8-0.5-5.1-1.3-6.9   c-0.9-1.7-2.3-2.6-4.2-2.6C157.7,364.7,156.3,365.5,155.4,367.3z"/>
	<path style="fill:#2B3B4E;" d="M174.9,360.1h11.5v28.4h-6.1v-23h-5.4V360.1z"/>
	<path style="fill:#2B3B4E;" d="M204,388.8c-3.9,0-6.9-1.3-8.8-4c-2-2.7-2.9-6.2-2.9-10.7s1-8,2.9-10.7c2-2.7,4.9-4,8.8-4   c3.9,0,6.9,1.3,8.8,4c2,2.7,2.9,6.2,2.9,10.7s-1,8-2.9,10.7C210.9,387.5,208,388.8,204,388.8z M199.8,367.3c-0.9,1.7-1.3,4-1.3,6.9   c0,2.8,0.4,5.1,1.3,6.9c0.9,1.7,2.3,2.6,4.2,2.6s3.3-0.9,4.2-2.6s1.3-4,1.3-6.9c0-2.8-0.5-5.1-1.3-6.9c-0.9-1.7-2.3-2.6-4.2-2.6   C202.1,364.7,200.7,365.5,199.8,367.3z"/>
	<path style="fill:#2B3B4E;" d="M219.3,360.1h11.5v28.4h-6.1v-23h-5.4V360.1z"/>
	<path style="fill:#2B3B4E;" d="M248.5,388.8c-3.9,0-6.9-1.3-8.8-4c-2-2.7-2.9-6.2-2.9-10.7s1-8,2.9-10.7c2-2.7,4.9-4,8.8-4   c3.9,0,6.9,1.3,8.8,4c2,2.7,2.9,6.2,2.9,10.7s-1,8-2.9,10.7C255.3,387.5,252.4,388.8,248.5,388.8z M244.3,367.3   c-0.9,1.7-1.3,4-1.3,6.9c0,2.8,0.4,5.1,1.3,6.9c0.9,1.7,2.3,2.6,4.2,2.6s3.3-0.9,4.2-2.6s1.3-4,1.3-6.9c0-2.8-0.5-5.1-1.3-6.9   c-0.9-1.7-2.3-2.6-4.2-2.6C246.6,364.7,245.2,365.5,244.3,367.3z"/>
</g>
<path style="fill:#FFFFFF;" d="M422,281.8v-17.5l-11.7-2.1c-0.6-5.6-1.7-11-3.2-16.3l10-6.4l-6.7-16.2l-11.6,2.5  c-2.7-4.9-5.8-9.5-9.3-13.8l6.8-9.8L384,189.9l-9.8,6.8c-4.3-3.5-8.9-6.6-13.8-9.3l2.5-11.6l-16.2-6.7l-6.4,10  c-5.2-1.5-10.7-2.6-16.3-3.2l-2.1-11.7h-17.5l-2.1,11.7c-5.6,0.6-11,1.7-16.3,3.2l-6.4-10l-16.1,6.7l2.5,11.6  c-4.8,2.7-9.5,5.8-13.8,9.3l-9.8-6.8L230,202.2l6.8,9.8c-3.5,4.3-6.6,8.9-9.2,13.8l-11.6-2.5l-6.7,16.2l10,6.4  c-1.5,5.2-2.6,10.7-3.2,16.3l-11.7,2.1v17.5l11.7,2.1c0.6,5.6,1.7,11,3.2,16.3l-10,6.4l6.7,16.2l11.6-2.5c2.7,4.9,5.8,9.5,9.2,13.8  l-6.8,9.8l12.4,12.4l9.8-6.8c4.3,3.5,8.9,6.6,13.8,9.2l-2.5,11.6l16.1,6.7l6.4-10c5.3,1.5,10.7,2.6,16.3,3.2l2.1,11.7H322l2.1-11.7  c5.6-0.6,11-1.7,16.3-3.2l6.4,10l16.2-6.7l-2.5-11.6c4.9-2.7,9.5-5.8,13.8-9.2l9.8,6.8l12.3-12.4l-6.8-9.8c3.5-4.3,6.6-8.9,9.3-13.8  l11.6,2.5l6.7-16.1l-10-6.4c1.5-5.3,2.6-10.7,3.2-16.3L422,281.8z M352.9,312.7c-10.1,10.2-24.1,16.4-39.6,16.4  c-31,0-56.1-25.1-56.1-56.1c0-15.5,6.3-29.5,16.4-39.6c10.2-10.2,24.2-16.4,39.7-16.4s29.5,6.3,39.6,16.4  c10.2,10.1,16.4,24.1,16.4,39.6S363,302.5,352.9,312.7z"/>
<g>
</g>
<g>
</g>
<g>
</g>
<g>
</g>
<g>
</g>
<g>
</g>
<g>
</g>
<g>
</g>
<g>
</g>
<g>
</g>
<g>
</g>
<g>
</g>
<g>
</g>
<g>
</g>
<g>
</g>
</svg>
