<?xml version="1.0" encoding="iso-8859-1"?>
<!-- Generator: Adobe Illustrator 19.0.0, SVG Export Plug-In . SVG Version: 6.00 Build 0)  -->
<svg xmlns="http://www.w3.org/2000/svg" xmlns:xlink="http://www.w3.org/1999/xlink" version="1.1" id="Layer_1" x="0px" y="0px" viewBox="0 0 508 508" style="enable-background:new 0 0 508 508;" xml:space="preserve">
<circle style="fill:#FD8469;" cx="254" cy="254" r="254"/>
<path style="fill:#FFFFFF;" d="M410.2,129.4H97.8c-5.9,0-10.6,4.8-10.6,10.6v227.8c0,5.9,4.8,10.6,10.6,10.6h312.4  c5.9,0,10.6-4.8,10.6-10.6V140.1C420.8,134.2,416.1,129.4,410.2,129.4z"/>
<path style="fill:#324A5E;" d="M420.8,165.7v-25.6c0-5.9-4.8-10.6-10.6-10.6H97.8c-5.9,0-10.6,4.8-10.6,10.6v25.6H420.8z"/>
<circle style="fill:#FFD05B;" cx="108.8" cy="147.6" r="8.4"/>
<circle style="fill:#FF7058;" cx="131.8" cy="147.6" r="8.4"/>
<circle style="fill:#4CDBC4;" cx="154.8" cy="147.6" r="8.4"/>
<path style="fill:#FFFFFF;" d="M368,157H184.3c-0.5,0-0.9-0.4-0.9-0.9V139c0-0.5,0.4-0.9,0.9-0.9H368c0.5,0,0.9,0.4,0.9,0.9v17.1  C368.9,156.6,368.5,157,368,157z"/>
<g>
	<path style="fill:#ACB3BA;" d="M194.4,151.6h-2.1l-2.5-7.4h2.1l1.4,4.5l1.4-4.5h2l1.4,4.5l1.4-4.5h2.1l-2.5,7.4H197l-1.4-4   L194.4,151.6z"/>
	<path style="fill:#ACB3BA;" d="M206.8,151.6h-2.1l-2.5-7.4h2.1l1.4,4.5l1.4-4.5h2l1.4,4.5l1.4-4.5h2.1l-2.5,7.4h-2.1l-1.4-4   L206.8,151.6z"/>
	<path style="fill:#ACB3BA;" d="M219.2,151.6h-2.1l-2.5-7.4h2.1l1.4,4.5l1.4-4.5h2l1.4,4.5l1.4-4.5h2.1l-2.5,7.4H222l-1.4-4   L219.2,151.6z"/>
</g>
<g>
	<path style="fill:#84DBFF;" d="M154.4,278.2v-15.7l55.8-26.3V253l-36.9,17l36.9,17.5v17L154.4,278.2z"/>
	<path style="fill:#84DBFF;" d="M270,223.2h16.3L238,328.5h-16.2L270,223.2z"/>
	<path style="fill:#84DBFF;" d="M353.6,262.4v15.7l-55.8,26.3v-17l36.9-17.5l-36.9-17V236L353.6,262.4z"/>
</g>
<g>
</g>
<g>
</g>
<g>
</g>
<g>
</g>
<g>
</g>
<g>
</g>
<g>
</g>
<g>
</g>
<g>
</g>
<g>
</g>
<g>
</g>
<g>
</g>
<g>
</g>
<g>
</g>
<g>
</g>
</svg>
