<?xml version="1.0" encoding="iso-8859-1"?>
<!-- Generator: Adobe Illustrator 19.0.0, SVG Export Plug-In . SVG Version: 6.00 Build 0)  -->
<svg xmlns="http://www.w3.org/2000/svg" xmlns:xlink="http://www.w3.org/1999/xlink" version="1.1" id="Layer_1" x="0px" y="0px" viewBox="0 0 508 508" style="enable-background:new 0 0 508 508;" xml:space="preserve">
<circle style="fill:#FFD05B;" cx="254" cy="254" r="254"/>
<g>
	
		<rect x="39.769" y="246.971" transform="matrix(-0.0119 -0.9999 0.9999 -0.0119 -73.1723 432.6378)" style="fill:#324A5E;" width="274.792" height="11"/>
	<rect x="327" y="118.1" style="fill:#324A5E;" width="11" height="271.8"/>
</g>
<rect id="SVGCleanerId_0" x="97.1" y="248.5" style="fill:#324A5E;" width="313.8" height="11"/>
<g transform="matrix(0.5 0.866 -0.866 0.5 349.7 -93.7)">
	
		<rect id="SVGCleanerId_0_1_" x="97.107" y="248.496" transform="matrix(-0.5 -0.866 0.866 -0.5 161.0434 600.9691)" style="fill:#324A5E;" width="313.793" height="11"/>
</g>
<g>
	
		<rect x="248.496" y="97.099" transform="matrix(-0.866 -0.5 0.5 -0.866 346.9606 600.9622)" style="fill:#324A5E;" width="11" height="313.793"/>
	<path style="fill:#324A5E;" d="M332.4,395.4H175.6c-2,0-3.8-1-4.7-2.7l-78.5-136c-1-1.7-1-3.8,0-5.5l78.4-135.9   c1-1.7,2.8-2.7,4.7-2.7h156.9c2,0,3.8,1,4.7,2.7l78.4,135.9c1,1.7,1,3.8,0,5.5l-78.4,135.9C336.2,394.3,334.4,395.4,332.4,395.4z    M178.7,384.4h150.6L404.6,254l-75.3-130.4H178.7L103.4,254L178.7,384.4z"/>
</g>
<g>
	<circle style="fill:#FFFFFF;" cx="410.9" cy="254" r="40.9"/>
	<circle style="fill:#FFFFFF;" cx="178.8" cy="118.1" r="40.9"/>
	<circle style="fill:#FFFFFF;" cx="329.2" cy="118.1" r="40.9"/>
	<circle style="fill:#FFFFFF;" cx="178.8" cy="389.9" r="40.9"/>
	<circle style="fill:#FFFFFF;" cx="329.2" cy="389.9" r="40.9"/>
	<circle style="fill:#FFFFFF;" cx="97.1" cy="254" r="40.9"/>
</g>
<g>
	<circle style="fill:#FF7058;" cx="410.9" cy="254" r="26.8"/>
	<circle style="fill:#FF7058;" cx="329.2" cy="118.1" r="26.8"/>
	<circle style="fill:#FF7058;" cx="178.8" cy="118.1" r="26.8"/>
	<circle style="fill:#FF7058;" cx="178.8" cy="389.9" r="26.8"/>
	<circle style="fill:#FF7058;" cx="329.2" cy="389.9" r="26.8"/>
	<circle style="fill:#FF7058;" cx="97.1" cy="254" r="26.8"/>
</g>
<g>
</g>
<g>
</g>
<g>
</g>
<g>
</g>
<g>
</g>
<g>
</g>
<g>
</g>
<g>
</g>
<g>
</g>
<g>
</g>
<g>
</g>
<g>
</g>
<g>
</g>
<g>
</g>
<g>
</g>
</svg>
