<?xml version="1.0" encoding="iso-8859-1"?>
<!-- Generator: Adobe Illustrator 19.0.0, SVG Export Plug-In . SVG Version: 6.00 Build 0)  -->
<svg xmlns="http://www.w3.org/2000/svg" xmlns:xlink="http://www.w3.org/1999/xlink" version="1.1" id="Layer_1" x="0px" y="0px" viewBox="0 0 508 508" style="enable-background:new 0 0 508 508;" xml:space="preserve">
<circle style="fill:#F1543F;" cx="254" cy="254" r="254"/>
<path style="fill:#FFFFFF;" d="M420.2,121.5H87.8c-6.3,0-11.3,5.1-11.3,11.3v242.4c0,6.3,5.1,11.3,11.3,11.3h332.4  c6.3,0,11.3-5.1,11.3-11.3V132.8C431.5,126.5,426.5,121.5,420.2,121.5z"/>
<path style="fill:#324A5E;" d="M420.2,121.5H87.8c-6.3,0-11.3,5.1-11.3,11.3V160h355.1v-27.2C431.5,126.5,426.5,121.5,420.2,121.5z"/>
<circle style="fill:#FFD05B;" cx="99.5" cy="140.7" r="9"/>
<circle style="fill:#FF7058;" cx="124" cy="140.7" r="9"/>
<circle style="fill:#4CDBC4;" cx="148.5" cy="140.7" r="9"/>
<path style="fill:#FFFFFF;" d="M375.3,150.8H179.8c-0.5,0-0.9-0.4-0.9-0.9v-18.2c0-0.5,0.4-0.9,0.9-0.9h195.5c0.5,0,0.9,0.4,0.9,0.9  v18.2C376.2,150.4,375.8,150.8,375.3,150.8z"/>
<g>
	<path style="fill:#ACB3BA;" d="M190.6,144.7h-2.3l-2.7-7.9h2.3l1.5,4.8l1.5-4.8h2.1l1.5,4.8l1.5-4.8h2.3l-2.7,7.9h-2.3l-1.4-4.3   L190.6,144.7z"/>
	<path style="fill:#ACB3BA;" d="M203.8,144.7h-2.3l-2.7-7.9h2.3l1.5,4.8l1.5-4.8h2.1l1.5,4.8l1.5-4.8h2.3l-2.7,7.9h-2.3l-1.4-4.3   L203.8,144.7z"/>
	<path style="fill:#ACB3BA;" d="M217,144.7h-2.3l-2.7-7.9h2.3l1.5,4.8l1.5-4.8h2.1l1.5,4.8l1.5-4.8h2.3l-2.7,7.9h-2.3l-1.4-4.3   L217,144.7z"/>
	<path style="fill:#ACB3BA;" d="M363.3,297.1h-17.1V317c0,4.7,3.8,8.5,8.5,8.5l0,0c4.7,0,8.5-3.8,8.5-8.5v-19.9H363.3z"/>
	<path style="fill:#ACB3BA;" d="M340.1,307.9v-10.7H323v10.7c0,4.7,3.8,8.5,8.5,8.5l0,0C336.3,316.4,340.1,312.6,340.1,307.9z"/>
</g>
<path style="fill:#CED5E0;" d="M365.7,268.4h-147v28.8h147c7.9,0,14.4-6.4,14.4-14.4S373.7,268.4,365.7,268.4z"/>
<path style="fill:#E6E9EE;" d="M178.8,224.5c-28.1,0-50.9,26.1-50.9,58.3s22.8,58.3,50.9,58.3s50.9-26.1,50.9-58.3  C229.7,250.6,206.9,224.5,178.8,224.5z M139.4,287.6c-2.7,0-4.8-2.2-4.8-4.9c0-2.7,2.2-4.9,4.8-4.9c2.7,0,4.9,2.2,4.9,4.9  C144.3,285.5,142.1,287.6,139.4,287.6z M208.6,299.7c0,16.5-13.4,29.8-29.8,29.8S149,316.1,149,299.7c0-6.3,2-12.2,5.3-17  c-3.3-4.8-5.3-10.7-5.3-17c0-16.5,13.4-29.8,29.8-29.8s29.8,13.3,29.8,29.8c0,6.3-2,12.2-5.3,17  C206.7,287.6,208.6,293.4,208.6,299.7z"/>
<g>
</g>
<g>
</g>
<g>
</g>
<g>
</g>
<g>
</g>
<g>
</g>
<g>
</g>
<g>
</g>
<g>
</g>
<g>
</g>
<g>
</g>
<g>
</g>
<g>
</g>
<g>
</g>
<g>
</g>
</svg>
