<?xml version="1.0" encoding="iso-8859-1"?>
<!-- Generator: Adobe Illustrator 19.0.0, SVG Export Plug-In . SVG Version: 6.00 Build 0)  -->
<svg xmlns="http://www.w3.org/2000/svg" xmlns:xlink="http://www.w3.org/1999/xlink" version="1.1" id="Layer_1" x="0px" y="0px" viewBox="0 0 508 508" style="enable-background:new 0 0 508 508;" xml:space="preserve">
<circle style="fill:#FFD05B;" cx="254" cy="254" r="254"/>
<polygon style="fill:#FFFFFF;" points="343.3,374.1 303.4,374.1 296.7,388.6 350,388.6 "/>
<polygon style="fill:#E6E9EE;" points="346.1,380.2 343.3,374.1 303.4,374.1 300.6,380.2 "/>
<path style="fill:#FFFFFF;" d="M410.6,377.1H236.2c-0.8,0-1.5-0.7-1.5-1.5V250.1c0-0.8,0.7-1.5,1.5-1.5h174.4c0.8,0,1.5,0.7,1.5,1.5  v125.6C412.1,376.5,411.4,377.1,410.6,377.1z"/>
<rect x="244.9" y="259.4" style="fill:#84DBFF;" width="156.9" height="95.1"/>
<g>
	<circle style="fill:#E6E9EE;" cx="323.4" cy="365.7" r="5.3"/>
	<path style="fill:#E6E9EE;" d="M353.2,388.6h-59.7c-2.9,0-5.3,2.4-5.3,5.3l0,0c0,2.9,2.4,5.3,5.3,5.3h59.7c2.9,0,5.3-2.4,5.3-5.3   l0,0C358.5,391,356.2,388.6,353.2,388.6z"/>
</g>
<polygon style="fill:#FFFFFF;" points="204.6,234.3 164.7,234.3 158,248.9 211.3,248.9 "/>
<polygon style="fill:#E6E9EE;" points="207.4,240.4 204.6,234.3 164.7,234.3 161.9,240.4 "/>
<path style="fill:#FFFFFF;" d="M271.8,237.4H97.4c-0.8,0-1.5-0.7-1.5-1.5V110.3c0-0.8,0.7-1.5,1.5-1.5h174.4c0.8,0,1.5,0.7,1.5,1.5  v125.6C273.3,236.7,272.6,237.4,271.8,237.4z"/>
<rect x="106.2" y="119.7" style="fill:#84DBFF;" width="156.9" height="95.1"/>
<g>
	<circle style="fill:#E6E9EE;" cx="184.6" cy="226" r="5.3"/>
	<path style="fill:#E6E9EE;" d="M214.5,248.9h-59.7c-2.9,0-5.3,2.4-5.3,5.3l0,0c0,2.9,2.4,5.3,5.3,5.3h59.7c2.9,0,5.3-2.4,5.3-5.3   l0,0C219.8,251.2,217.4,248.9,214.5,248.9z"/>
</g>
<g>
	<path style="fill:#FF7058;" d="M360.6,189.4l-14.5,2.1l33.2,24.9l24.9-33.2l-12.4,1.8c-15.5-47.5-66.8-65.1-102.8-46.2   C329,131,358.9,159.6,360.6,189.4z"/>
	<path style="fill:#FF7058;" d="M147.4,318.6l14.5-2.1l-33.2-24.9l-24.9,33.2l12.4-1.8c15.5,47.5,66.8,65.1,102.8,46.2   C179,377,149.1,348.4,147.4,318.6z"/>
</g>
<g>
</g>
<g>
</g>
<g>
</g>
<g>
</g>
<g>
</g>
<g>
</g>
<g>
</g>
<g>
</g>
<g>
</g>
<g>
</g>
<g>
</g>
<g>
</g>
<g>
</g>
<g>
</g>
<g>
</g>
</svg>
