<?xml version="1.0" encoding="iso-8859-1"?>
<!-- Generator: Adobe Illustrator 19.0.0, SVG Export Plug-In . SVG Version: 6.00 Build 0)  -->
<svg xmlns="http://www.w3.org/2000/svg" xmlns:xlink="http://www.w3.org/1999/xlink" version="1.1" id="Layer_1" x="0px" y="0px" viewBox="0 0 508 508" style="enable-background:new 0 0 508 508;" xml:space="preserve">
<g>
	<circle style="fill:#324A5E;" cx="254" cy="254" r="254"/>
	<path style="fill:#324A5E;" d="M357,222H150.9c-3.3,0-6-2.7-6-6s2.7-6,6-6H357c3.3,0,6,2.7,6,6S360.3,222,357,222z"/>
</g>
<g>
	<path style="fill:#FFFFFF;" d="M409.2,270.5H363V216c0-3.3-2.7-6-6-6s-6,2.7-6,6v54.5h-91V216V95.3c0-3.3-2.7-6-6-6s-6,2.7-6,6   v120.8v54.5h-91.1v-54.5c0-3.3-2.7-6-6-6s-6,2.7-6,6v54.5H98.7c-3.3,0-6,2.7-6,6V337c0,3.3,2.7,6,6,6s6-2.7,6-6v-54.5H151l0,0l0,0   h45.3V337c0,3.3,2.7,6,6,6s6-2.7,6-6v-54.5H254l0,0l0,0h45.8V337c0,3.3,2.7,6,6,6s6-2.7,6-6v-54.5H357l0,0l0,0h46.2V337   c0,3.3,2.7,6,6,6s6-2.7,6-6v-60.4C415.2,273.2,412.5,270.5,409.2,270.5z"/>
	<path style="fill:#FFFFFF;" d="M159.7,216.1c0,3.3,2.7,6,6,6h176.7c3.3,0,6-2.7,6-6s-2.7-6-6-6H165.7   C162.4,210.1,159.7,212.8,159.7,216.1L159.7,216.1z"/>
</g>
<g>
	<circle style="fill:#84DBFF;" cx="202.3" cy="336.9" r="30.2"/>
	<circle style="fill:#84DBFF;" cx="305.7" cy="336.9" r="30.2"/>
	<circle style="fill:#84DBFF;" cx="409.2" cy="336.9" r="30.2"/>
	<circle style="fill:#84DBFF;" cx="98.8" cy="336.9" r="30.2"/>
</g>
<circle style="fill:#FF7058;" cx="254" cy="95.3" r="30.2"/>
<g>
	<circle style="fill:#FFD05B;" cx="151" cy="216.1" r="30.2"/>
	<circle style="fill:#FFD05B;" cx="254" cy="216.1" r="30.2"/>
	<circle style="fill:#FFD05B;" cx="357" cy="216.1" r="30.2"/>
</g>
<g>
</g>
<g>
</g>
<g>
</g>
<g>
</g>
<g>
</g>
<g>
</g>
<g>
</g>
<g>
</g>
<g>
</g>
<g>
</g>
<g>
</g>
<g>
</g>
<g>
</g>
<g>
</g>
<g>
</g>
</svg>
