<?xml version="1.0" encoding="iso-8859-1"?>
<!-- Generator: Adobe Illustrator 19.0.0, SVG Export Plug-In . SVG Version: 6.00 Build 0)  -->
<svg xmlns="http://www.w3.org/2000/svg" xmlns:xlink="http://www.w3.org/1999/xlink" version="1.1" id="Layer_1" x="0px" y="0px" viewBox="0 0 508 508" style="enable-background:new 0 0 508 508;" xml:space="preserve">
<circle style="fill:#FFD05B;" cx="254" cy="254" r="254"/>
<rect x="202.5" y="354.9" style="fill:#2B3B4E;" width="103" height="28"/>
<path style="fill:#324A5E;" d="M413.8,112.6H94.2c-6.3,0-11.4,5.1-11.4,11.4v225.3c0,6.3,5.1,11.4,11.4,11.4h319.5  c6.3,0,11.4-5.1,11.4-11.4V124C425.2,117.7,420.1,112.6,413.8,112.6z"/>
<rect x="95.5" y="126.5" style="fill:#FFFFFF;" width="317" height="197.4"/>
<circle style="fill:#2B3B4E;" cx="254" cy="342" r="10.3"/>
<path style="fill:#324A5E;" d="M311.7,382.9H196.3c-5.6,0-10.2,4.6-10.2,10.2l0,0c0,5.6,4.6,10.2,10.2,10.2h115.3  c5.6,0,10.2-4.6,10.2-10.2l0,0C321.8,387.5,317.3,382.9,311.7,382.9z"/>
<g>
	<g style="enable-background:new    ;">
		<path style="fill:#84DBFF;" d="M170.376,221.4v-19.311h-4.464v-4.949h10.625v24.26H170.376z"/>
		<path style="fill:#84DBFF;" d="M202.805,209.252c0,7.926-3.841,12.32-10.693,12.32c-6.921,0-10.763-4.395-10.763-12.32    c0-7.89,3.841-12.285,10.763-12.285C198.963,196.967,202.805,201.363,202.805,209.252z M187.682,209.252    c0,5.537,1.315,7.821,4.43,7.821c3.045,0,4.395-2.284,4.395-7.821s-1.35-7.786-4.395-7.786    C188.997,201.466,187.682,203.715,187.682,209.252z"/>
		<path style="fill:#84DBFF;" d="M208.968,221.4v-19.311h-4.464v-4.949h10.625v24.26H208.968z"/>
		<path style="fill:#84DBFF;" d="M223.228,221.4v-19.311h-4.464v-4.949h10.625v24.26H223.228z"/>
		<path style="fill:#84DBFF;" d="M255.656,209.252c0,7.926-3.842,12.32-10.694,12.32c-6.921,0-10.763-4.395-10.763-12.32    c0-7.89,3.841-12.285,10.763-12.285C251.814,196.967,255.656,201.363,255.656,209.252z M240.533,209.252    c0,5.537,1.315,7.821,4.43,7.821c3.045,0,4.395-2.284,4.395-7.821s-1.35-7.786-4.395-7.786    C241.848,201.466,240.533,203.715,240.533,209.252z"/>
		<path style="fill:#84DBFF;" d="M261.819,221.4v-19.311h-4.464v-4.949h10.624v24.26H261.819z"/>
		<path style="fill:#84DBFF;" d="M294.248,209.252c0,7.926-3.842,12.32-10.693,12.32c-6.922,0-10.763-4.395-10.763-12.32    c0-7.89,3.841-12.285,10.763-12.285C290.406,196.967,294.248,201.363,294.248,209.252z M279.125,209.252    c0,5.537,1.314,7.821,4.43,7.821c3.045,0,4.395-2.284,4.395-7.821s-1.35-7.786-4.395-7.786    C280.439,201.466,279.125,203.715,279.125,209.252z"/>
		<path style="fill:#84DBFF;" d="M300.411,221.4v-19.311h-4.465v-4.949h10.625v24.26H300.411z"/>
		<path style="fill:#84DBFF;" d="M314.671,221.4v-19.311h-4.465v-4.949h10.625v24.26H314.671z"/>
		<path style="fill:#84DBFF;" d="M347.099,209.252c0,7.926-3.841,12.32-10.693,12.32c-6.921,0-10.763-4.395-10.763-12.32    c0-7.89,3.842-12.285,10.763-12.285C343.258,196.967,347.099,201.363,347.099,209.252z M331.976,209.252    c0,5.537,1.315,7.821,4.43,7.821c3.046,0,4.396-2.284,4.396-7.821s-1.35-7.786-4.396-7.786    C333.291,201.466,331.976,203.715,331.976,209.252z"/>
	</g>
	<g style="enable-background:new    ;">
		<path style="fill:#84DBFF;" d="M170.376,262.94v-19.311h-4.464v-4.949h10.625v24.26H170.376z"/>
		<path style="fill:#84DBFF;" d="M202.805,250.792c0,7.926-3.841,12.321-10.693,12.321c-6.921,0-10.763-4.395-10.763-12.321    c0-7.89,3.841-12.285,10.763-12.285C198.963,238.507,202.805,242.903,202.805,250.792z M187.682,250.792    c0,5.538,1.315,7.822,4.43,7.822c3.045,0,4.395-2.284,4.395-7.822c0-5.537-1.35-7.786-4.395-7.786    C188.997,243.006,187.682,245.255,187.682,250.792z"/>
		<path style="fill:#84DBFF;" d="M208.968,262.94v-19.311h-4.464v-4.949h10.625v24.26H208.968z"/>
		<path style="fill:#84DBFF;" d="M241.396,250.792c0,7.926-3.841,12.321-10.693,12.321c-6.921,0-10.763-4.395-10.763-12.321    c0-7.89,3.841-12.285,10.763-12.285C237.555,238.507,241.396,242.903,241.396,250.792z M226.273,250.792    c0,5.538,1.315,7.822,4.43,7.822c3.045,0,4.395-2.284,4.395-7.822c0-5.537-1.35-7.786-4.395-7.786    C227.588,243.006,226.273,245.255,226.273,250.792z"/>
		<path style="fill:#84DBFF;" d="M247.56,262.94v-19.311h-4.464v-4.949h10.625v24.26H247.56z"/>
		<path style="fill:#84DBFF;" d="M279.988,250.792c0,7.926-3.842,12.321-10.693,12.321c-6.922,0-10.763-4.395-10.763-12.321    c0-7.89,3.841-12.285,10.763-12.285C276.146,238.507,279.988,242.903,279.988,250.792z M264.865,250.792    c0,5.538,1.314,7.822,4.43,7.822c3.045,0,4.395-2.284,4.395-7.822c0-5.537-1.35-7.786-4.395-7.786    C266.18,243.006,264.865,245.255,264.865,250.792z"/>
		<path style="fill:#84DBFF;" d="M286.151,262.94v-19.311h-4.465v-4.949h10.625v24.26H286.151z"/>
	</g>
	<g style="enable-background:new    ;">
		<path style="fill:#84DBFF;" d="M170.376,304.47v-19.311h-4.464v-4.949h10.625v24.26H170.376z"/>
		<path style="fill:#84DBFF;" d="M202.805,292.322c0,7.926-3.841,12.32-10.693,12.32c-6.921,0-10.763-4.395-10.763-12.32    c0-7.89,3.841-12.285,10.763-12.285C198.963,280.037,202.805,284.433,202.805,292.322z M187.682,292.322    c0,5.537,1.315,7.821,4.43,7.821c3.045,0,4.395-2.284,4.395-7.821s-1.35-7.786-4.395-7.786    C188.997,284.536,187.682,286.785,187.682,292.322z"/>
		<path style="fill:#84DBFF;" d="M208.968,304.47v-19.311h-4.464v-4.949h10.625v24.26H208.968z"/>
		<path style="fill:#84DBFF;" d="M241.396,292.322c0,7.926-3.841,12.32-10.693,12.32c-6.921,0-10.763-4.395-10.763-12.32    c0-7.89,3.841-12.285,10.763-12.285C237.555,280.037,241.396,284.433,241.396,292.322z M226.273,292.322    c0,5.537,1.315,7.821,4.43,7.821c3.045,0,4.395-2.284,4.395-7.821s-1.35-7.786-4.395-7.786    C227.588,284.536,226.273,286.785,226.273,292.322z"/>
		<path style="fill:#84DBFF;" d="M247.56,304.47v-19.311h-4.464v-4.949h10.625v24.26H247.56z"/>
		<path style="fill:#84DBFF;" d="M279.988,292.322c0,7.926-3.842,12.32-10.693,12.32c-6.922,0-10.763-4.395-10.763-12.32    c0-7.89,3.841-12.285,10.763-12.285C276.146,280.037,279.988,284.433,279.988,292.322z M264.865,292.322    c0,5.537,1.314,7.821,4.43,7.821c3.045,0,4.395-2.284,4.395-7.821s-1.35-7.786-4.395-7.786    C266.18,284.536,264.865,286.785,264.865,292.322z"/>
		<path style="fill:#84DBFF;" d="M286.151,304.47v-19.311h-4.465v-4.949h10.625v24.26H286.151z"/>
		<path style="fill:#84DBFF;" d="M318.579,292.322c0,7.926-3.841,12.32-10.693,12.32c-6.921,0-10.763-4.395-10.763-12.32    c0-7.89,3.842-12.285,10.763-12.285C314.738,280.037,318.579,284.433,318.579,292.322z M303.456,292.322    c0,5.537,1.315,7.821,4.43,7.821c3.046,0,4.396-2.284,4.396-7.821s-1.35-7.786-4.396-7.786    C304.771,284.536,303.456,286.785,303.456,292.322z"/>
		<path style="fill:#84DBFF;" d="M324.743,304.47v-19.311h-4.465v-4.949h10.625v24.26H324.743z"/>
	</g>
</g>
<path style="fill:#FF7058;" d="M398.1,176.9L398.1,176.9c8,0,14.4-6.5,14.4-14.4v-35.9h-28.8v35.9  C383.7,170.4,390.1,176.9,398.1,176.9z"/>
<path style="fill:#CED5E0;" d="M369.3,176.9L369.3,176.9c8,0,14.4-6.5,14.4-14.4v-35.9h-28.8v35.9  C354.8,170.4,361.3,176.9,369.3,176.9z"/>
<path style="fill:#FF7058;" d="M340.4,176.9L340.4,176.9c8,0,14.4-6.5,14.4-14.4v-35.9H326v35.9C326,170.4,332.5,176.9,340.4,176.9z  "/>
<path style="fill:#CED5E0;" d="M311.6,176.9L311.6,176.9c8,0,14.4-6.5,14.4-14.4v-35.9h-28.8v35.9  C297.2,170.4,303.6,176.9,311.6,176.9z"/>
<path style="fill:#FF7058;" d="M282.8,176.9L282.8,176.9c8,0,14.4-6.5,14.4-14.4v-35.9h-28.8v35.9  C268.4,170.4,274.8,176.9,282.8,176.9z"/>
<path style="fill:#CED5E0;" d="M253.9,176.9L253.9,176.9c8,0,14.4-6.5,14.4-14.4v-35.9h-28.8v35.9  C239.5,170.4,246,176.9,253.9,176.9z"/>
<path style="fill:#FF7058;" d="M225.1,176.9L225.1,176.9c8,0,14.4-6.5,14.4-14.4v-35.9h-28.8v35.9  C210.7,170.4,217.2,176.9,225.1,176.9z"/>
<path style="fill:#CED5E0;" d="M196.3,176.9L196.3,176.9c8,0,14.4-6.5,14.4-14.4v-35.9h-28.8v35.9  C181.9,170.4,188.3,176.9,196.3,176.9z"/>
<path style="fill:#FF7058;" d="M167.5,176.9L167.5,176.9c8,0,14.4-6.5,14.4-14.4v-35.9h-28.8v35.9  C153.1,170.4,159.5,176.9,167.5,176.9z"/>
<path style="fill:#CED5E0;" d="M138.6,176.9L138.6,176.9c8,0,14.4-6.5,14.4-14.4v-35.9h-28.8v35.9  C124.2,170.4,130.7,176.9,138.6,176.9z"/>
<path style="fill:#FF7058;" d="M109.8,176.9L109.8,176.9c8,0,14.4-6.5,14.4-14.4v-35.9H95.4v35.9  C95.4,170.4,101.9,176.9,109.8,176.9z"/>
<g>
</g>
<g>
</g>
<g>
</g>
<g>
</g>
<g>
</g>
<g>
</g>
<g>
</g>
<g>
</g>
<g>
</g>
<g>
</g>
<g>
</g>
<g>
</g>
<g>
</g>
<g>
</g>
<g>
</g>
</svg>
