<?xml version="1.0" encoding="iso-8859-1"?>
<!-- Generator: Adobe Illustrator 19.0.0, SVG Export Plug-In . SVG Version: 6.00 Build 0)  -->
<svg xmlns="http://www.w3.org/2000/svg" xmlns:xlink="http://www.w3.org/1999/xlink" version="1.1" id="Layer_1" x="0px" y="0px" viewBox="0 0 508 508" style="enable-background:new 0 0 508 508;" xml:space="preserve">
<circle style="fill:#90DFAA;" cx="254" cy="254" r="254"/>
<path style="fill:#324A5E;" d="M152.3,285.5h-7.9v-28c0-12.8,10.4-23.3,23.3-23.3h172.8c12.8,0,23.3,10.4,23.3,23.3v24.9h-7.9v-24.9  c0-8.5-6.9-15.3-15.3-15.3h-173c-8.5,0-15.3,6.9-15.3,15.3V285.5z"/>
<path style="fill:#FFFFFF;" d="M342.6,193.2H165.4c-0.9,0-1.7-0.7-1.7-1.7V65.3c0-0.9,0.7-1.7,1.7-1.7h177.2c0.9,0,1.7,0.7,1.7,1.7  v126.2C344.3,192.5,343.5,193.2,342.6,193.2z"/>
<rect x="175.2" y="75.6" style="fill:#84DBFF;" width="157.6" height="97.9"/>
<path style="fill:#FFFFFF;" d="M422.5,378.3H285.8c-0.7,0-1.3-0.6-1.3-1.3v-97.3c0-0.7,0.6-1.3,1.3-1.3h136.7c0.7,0,1.3,0.6,1.3,1.3  V377C423.7,377.7,423.2,378.3,422.5,378.3z"/>
<rect x="293.4" y="287.6" style="fill:#84DBFF;" width="121.5" height="75.5"/>
<path style="fill:#E6E9EE;" d="M277.3,383.5c0,6.8,5.5,12.3,12.3,12.3h129.1c6.8,0,12.3-5.5,12.3-12.3H277.3z"/>
<path style="fill:#FFFFFF;" d="M222.2,378.3H85.5c-0.7,0-1.3-0.6-1.3-1.3v-97.3c0-0.7,0.6-1.3,1.3-1.3h136.7c0.7,0,1.3,0.6,1.3,1.3  V377C223.5,377.7,222.9,378.3,222.2,378.3z"/>
<rect x="93.1" y="287.6" style="fill:#84DBFF;" width="121.5" height="75.5"/>
<path style="fill:#E6E9EE;" d="M77,383.5c0,6.8,5.5,12.3,12.3,12.3h129.1c6.8,0,12.3-5.5,12.3-12.3H77z"/>
<rect x="250" y="205.5" style="fill:#324A5E;" width="7.9" height="32.7"/>
<path style="fill:#E6E9EE;" d="M154.3,199.9c0,8.8,7.1,16,16,16h167.4c8.8,0,16-7.1,16-16H154.3z"/>
<g>
</g>
<g>
</g>
<g>
</g>
<g>
</g>
<g>
</g>
<g>
</g>
<g>
</g>
<g>
</g>
<g>
</g>
<g>
</g>
<g>
</g>
<g>
</g>
<g>
</g>
<g>
</g>
<g>
</g>
</svg>
