<?xml version="1.0" encoding="iso-8859-1"?>
<!-- Generator: Adobe Illustrator 19.0.0, SVG Export Plug-In . SVG Version: 6.00 Build 0)  -->
<svg xmlns="http://www.w3.org/2000/svg" xmlns:xlink="http://www.w3.org/1999/xlink" version="1.1" id="Layer_1" x="0px" y="0px" viewBox="0 0 508 508" style="enable-background:new 0 0 508 508;" xml:space="preserve">
<circle style="fill:#FD8469;" cx="254" cy="254" r="254"/>
<path style="fill:#2B3B4E;" d="M410.1,381.5H295.8c-2.3,0-4.2-1.9-4.2-4.2V139.5c0-2.3,1.9-4.2,4.2-4.2h114.3c2.3,0,4.2,1.9,4.2,4.2  v237.9C414.3,379.7,412.4,381.5,410.1,381.5z"/>
<g>
	<rect x="300.6" y="154.3" style="fill:#ACB3BA;" width="104.7" height="33.9"/>
	<rect x="300.6" y="196.4" style="fill:#ACB3BA;" width="104.7" height="33.9"/>
	<rect x="300.8" y="238.6" style="fill:#ACB3BA;" width="104.7" height="33.9"/>
</g>
<circle style="fill:#FFD05B;" cx="353" cy="305.1" r="12.2"/>
<circle style="fill:#84DBFF;" cx="353" cy="331.2" r="6.7"/>
<path style="fill:#2B3B4E;" d="M212.2,381.5H97.9c-2.3,0-4.2-1.9-4.2-4.2V139.5c0-2.3,1.9-4.2,4.2-4.2h114.3c2.3,0,4.2,1.9,4.2,4.2  v237.9C216.3,379.7,214.4,381.5,212.2,381.5z"/>
<g>
	<rect x="102.7" y="154.3" style="fill:#ACB3BA;" width="104.7" height="33.9"/>
	<rect x="102.7" y="196.4" style="fill:#ACB3BA;" width="104.7" height="33.9"/>
	<rect x="102.9" y="238.6" style="fill:#ACB3BA;" width="104.7" height="33.9"/>
</g>
<circle style="fill:#FFD05B;" cx="155" cy="305.1" r="12.2"/>
<circle style="fill:#84DBFF;" cx="155" cy="331.2" r="6.7"/>
<path style="fill:#324A5E;" d="M304.2,105.4H196c-11,0-19.9,8.9-19.9,19.9v257.5c0,11,8.9,19.9,19.9,19.9h108.2  c11,0,19.9-8.9,19.9-19.9V125.3C324.1,114.3,315.2,105.4,304.2,105.4z"/>
<g>
	<rect x="186.9" y="128.2" style="fill:#2B3B4E;" width="126.4" height="41"/>
	<rect x="186.9" y="179.1" style="fill:#2B3B4E;" width="126.4" height="41"/>
	<rect x="187.2" y="230.1" style="fill:#2B3B4E;" width="126.4" height="41"/>
</g>
<circle style="fill:#FFD05B;" cx="250.1" cy="310.3" r="14.7"/>
<circle style="fill:#84DBFF;" cx="250.1" cy="341.9" r="8.1"/>
<g>
</g>
<g>
</g>
<g>
</g>
<g>
</g>
<g>
</g>
<g>
</g>
<g>
</g>
<g>
</g>
<g>
</g>
<g>
</g>
<g>
</g>
<g>
</g>
<g>
</g>
<g>
</g>
<g>
</g>
</svg>
