<?xml version="1.0" encoding="iso-8859-1"?>
<!-- Generator: Adobe Illustrator 19.0.0, SVG Export Plug-In . SVG Version: 6.00 Build 0)  -->
<svg xmlns="http://www.w3.org/2000/svg" xmlns:xlink="http://www.w3.org/1999/xlink" version="1.1" id="Layer_1" x="0px" y="0px" viewBox="0 0 508 508" style="enable-background:new 0 0 508 508;" xml:space="preserve">
<circle style="fill:#54C0EB;" cx="254" cy="254" r="254"/>
<path style="fill:#324A5E;" d="M230.5,290.8L230.5,290.8c-43.4,0-78.5-35.1-78.5-78.5l0,0c0-43.4,35.1-78.5,78.5-78.5l0,0  c43.4,0,78.5,35.1,78.5,78.5l0,0C309,255.7,273.9,290.8,230.5,290.8z"/>
<g>
	<path style="fill:#84DBFF;" d="M102.5,85.6h26.7v65.9H115V98.1h-12.5V85.6z"/>
	<path style="fill:#84DBFF;" d="M170.1,152.3c-9.1,0-15.9-3.1-20.5-9.3c-4.5-6.2-6.8-14.5-6.8-24.8s2.3-18.6,6.8-24.8   c4.5-6.2,11.3-9.3,20.5-9.3c9.1,0,15.9,3.1,20.5,9.3c4.5,6.2,6.8,14.5,6.8,24.8s-2.3,18.6-6.8,24.8S179.2,152.3,170.1,152.3z    M160.4,102.3c-2.1,4-3.1,9.3-3.1,15.9s1,11.9,3.1,15.9s5.3,6,9.7,6s7.6-2,9.7-6c2.1-4,3.1-9.3,3.1-15.9s-1-11.9-3.1-15.9   s-5.3-6-9.7-6S162.5,98.3,160.4,102.3z"/>
	<path style="fill:#84DBFF;" d="M235.2,152.3c-9.1,0-15.9-3.1-20.5-9.3c-4.5-6.2-6.8-14.5-6.8-24.8s2.3-18.6,6.8-24.8   c4.5-6.2,11.3-9.3,20.5-9.3c9.1,0,15.9,3.1,20.5,9.3c4.5,6.2,6.8,14.5,6.8,24.8s-2.3,18.6-6.8,24.8   C251.1,149.2,244.3,152.3,235.2,152.3z M225.5,102.3c-2.1,4-3.1,9.3-3.1,15.9s1,11.9,3.1,15.9s5.3,6,9.7,6s7.6-2,9.7-6   c2.1-4,3.1-9.3,3.1-15.9s-1-11.9-3.1-15.9s-5.3-6-9.7-6S227.6,98.3,225.5,102.3z"/>
	<path style="fill:#84DBFF;" d="M270.7,85.6h26.7v65.9h-14.1V98.1h-12.5V85.6H270.7z"/>
	<path style="fill:#84DBFF;" d="M338.3,152.3c-9.1,0-15.9-3.1-20.5-9.3c-4.5-6.2-6.8-14.5-6.8-24.8s2.3-18.6,6.8-24.8   c4.5-6.2,11.3-9.3,20.5-9.3c9.1,0,15.9,3.1,20.5,9.3c4.5,6.2,6.8,14.5,6.8,24.8s-2.3,18.6-6.8,24.8   C354.2,149.2,347.4,152.3,338.3,152.3z M328.6,102.3c-2.1,4-3.1,9.3-3.1,15.9s1,11.9,3.1,15.9s5.3,6,9.7,6c4.4,0,7.6-2,9.7-6   s3.1-9.3,3.1-15.9s-1-11.9-3.1-15.9s-5.3-6-9.7-6S330.7,98.3,328.6,102.3z"/>
	<path style="fill:#84DBFF;" d="M102.5,198.8h26.7v65.9H115v-53.4h-12.5V198.8z"/>
	<path style="fill:#84DBFF;" d="M170.1,265.5c-9.1,0-15.9-3.1-20.5-9.3c-4.5-6.2-6.8-14.5-6.8-24.8s2.3-18.6,6.8-24.8   s11.3-9.3,20.5-9.3c9.1,0,15.9,3.1,20.5,9.3c4.5,6.2,6.8,14.5,6.8,24.8s-2.3,18.6-6.8,24.8C186.1,262.4,179.2,265.5,170.1,265.5z    M160.4,215.5c-2.1,4-3.1,9.3-3.1,15.9c0,6.6,1,11.9,3.1,15.9s5.3,6,9.7,6s7.6-2,9.7-6c2.1-4,3.1-9.3,3.1-15.9   c0-6.6-1-11.9-3.1-15.9s-5.3-6-9.7-6C165.7,209.4,162.5,211.5,160.4,215.5z"/>
	<path style="fill:#84DBFF;" d="M205.6,198.8h26.7v65.9h-14.1v-53.4h-12.5v-12.5H205.6z"/>
	<path style="fill:#84DBFF;" d="M243.6,198.8h26.7v65.9h-14.1v-53.4h-12.5v-12.5H243.6z"/>
	<path style="fill:#84DBFF;" d="M311.2,265.5c-9.1,0-15.9-3.1-20.5-9.3c-4.5-6.2-6.8-14.5-6.8-24.8s2.3-18.6,6.8-24.8   s11.3-9.3,20.5-9.3c9.1,0,15.9,3.1,20.5,9.3c4.5,6.2,6.8,14.5,6.8,24.8s-2.3,18.6-6.8,24.8C327.2,262.4,320.3,265.5,311.2,265.5z    M301.5,215.5c-2.1,4-3.1,9.3-3.1,15.9c0,6.6,1,11.9,3.1,15.9s5.3,6,9.7,6c4.4,0,7.6-2,9.7-6s3.1-9.3,3.1-15.9   c0-6.6-1-11.9-3.1-15.9s-5.3-6-9.7-6C306.8,209.4,303.6,211.5,301.5,215.5z"/>
	<path style="fill:#84DBFF;" d="M102.5,312h26.7v65.9H115v-53.4h-12.5V312z"/>
	<path style="fill:#84DBFF;" d="M170.1,378.7c-9.1,0-15.9-3.1-20.5-9.3c-4.5-6.2-6.8-14.5-6.8-24.8s2.3-18.6,6.8-24.8   c4.5-6.2,11.3-9.3,20.5-9.3c9.1,0,15.9,3.1,20.5,9.3c4.5,6.2,6.8,14.5,6.8,24.8s-2.3,18.6-6.8,24.8S179.2,378.7,170.1,378.7z    M160.4,328.7c-2.1,4-3.1,9.3-3.1,15.9s1,11.9,3.1,15.9s5.3,6,9.7,6s7.6-2,9.7-6c2.1-4,3.1-9.3,3.1-15.9s-1-11.9-3.1-15.9   s-5.3-6-9.7-6C165.7,322.6,162.5,324.7,160.4,328.7z"/>
	<path style="fill:#84DBFF;" d="M235.2,378.7c-9.1,0-15.9-3.1-20.5-9.3c-4.5-6.2-6.8-14.5-6.8-24.8s2.3-18.6,6.8-24.8   c4.5-6.2,11.3-9.3,20.5-9.3c9.1,0,15.9,3.1,20.5,9.3c4.5,6.2,6.8,14.5,6.8,24.8s-2.3,18.6-6.8,24.8   C251.1,375.6,244.3,378.7,235.2,378.7z M225.5,328.7c-2.1,4-3.1,9.3-3.1,15.9s1,11.9,3.1,15.9s5.3,6,9.7,6s7.6-2,9.7-6   c2.1-4,3.1-9.3,3.1-15.9s-1-11.9-3.1-15.9s-5.3-6-9.7-6C230.8,322.6,227.6,324.7,225.5,328.7z"/>
	<path style="fill:#84DBFF;" d="M270.7,312h26.7v65.9h-14.1v-53.4h-12.5V312H270.7z"/>
	<path style="fill:#84DBFF;" d="M338.3,378.7c-9.1,0-15.9-3.1-20.5-9.3c-4.5-6.2-6.8-14.5-6.8-24.8s2.3-18.6,6.8-24.8   c4.5-6.2,11.3-9.3,20.5-9.3c9.1,0,15.9,3.1,20.5,9.3c4.5,6.2,6.8,14.5,6.8,24.8s-2.3,18.6-6.8,24.8   C354.2,375.6,347.4,378.7,338.3,378.7z M328.6,328.7c-2.1,4-3.1,9.3-3.1,15.9s1,11.9,3.1,15.9s5.3,6,9.7,6c4.4,0,7.6-2,9.7-6   s3.1-9.3,3.1-15.9s-1-11.9-3.1-15.9s-5.3-6-9.7-6C333.9,322.6,330.7,324.7,328.6,328.7z"/>
</g>
<path style="fill:#2B3B4E;" d="M279.3,261.1L279.3,261.1c-4.2,4.2-4.2,11.1,0,15.4l35.2,35.2c4.2,4.2,11.1,4.2,15.4,0l0,0  c4.2-4.2,4.2-11.1,0-15.4l-35.2-35.2C290.4,256.9,283.6,256.9,279.3,261.1z"/>
<circle style="fill:#324A5E;" cx="230.5" cy="212.3" r="94.1"/>
<circle style="fill:#54C0EB;" cx="230.5" cy="212.3" r="71.6"/>
<path style="fill:#FF7058;" d="M332.1,280.1l-33.8,33.8c-0.9,0.9-0.9,2.4,0,3.3l86.2,86.2c0.9,0.9,2.4,0.9,3.3,0l33.8-33.8  c0.9-0.9,0.9-2.4,0-3.3l-86.2-86.2C334.5,279.2,333,279.2,332.1,280.1z"/>
<rect x="315.94" y="315.521" transform="matrix(-0.7071 -0.7071 0.7071 -0.7071 372.7011 837.9188)" style="fill:#FFFFFF;" width="87.899" height="52.499"/>
<g>
	<path style="fill:#84DBFF;" d="M172.7,170.2c-4.3,5.8-7.5,12.2-9.8,18.8H173v65.8c2.1,2.9,4.4,5.6,7,8.1c2.1,2.1,4.4,4.2,6.8,6h7.4   v-98.6h-21.5V170.2z"/>
	<path style="fill:#84DBFF;" d="M211.1,170.2V189h18.7v79.9H251v-98.6h-39.9V170.2z"/>
	<path style="fill:#84DBFF;" d="M297.7,195.2c-3.1,6-4.6,14-4.6,23.9c0,8.5,1.2,15.5,3.5,21.2c-2.9,6.9-6.9,13.3-12.1,19.2   c-1-1-1.9-2.1-2.8-3.3c-6.8-9.2-10.2-21.6-10.2-37.1c0-15.4,3.4-27.8,10.2-37.1c2.5-3.5,5.6-6.2,9-8.4c3.9,6,6.8,12.4,8.7,19   C298.7,193.3,298.2,194.3,297.7,195.2z"/>
</g>
<g>
</g>
<g>
</g>
<g>
</g>
<g>
</g>
<g>
</g>
<g>
</g>
<g>
</g>
<g>
</g>
<g>
</g>
<g>
</g>
<g>
</g>
<g>
</g>
<g>
</g>
<g>
</g>
<g>
</g>
</svg>
