<?xml version="1.0" encoding="iso-8859-1"?>
<!-- Generator: Adobe Illustrator 19.0.0, SVG Export Plug-In . SVG Version: 6.00 Build 0)  -->
<svg xmlns="http://www.w3.org/2000/svg" xmlns:xlink="http://www.w3.org/1999/xlink" version="1.1" id="Layer_1" x="0px" y="0px" viewBox="0 0 508 508" style="enable-background:new 0 0 508 508;" xml:space="preserve">
<circle style="fill:#FD8469;" cx="254" cy="254" r="254"/>
<polygon style="fill:#2B3B4E;" points="282,263.8 282,283.1 264.9,283.1 312.3,330.5 330.5,312.3 "/>
<circle style="fill:#324A5E;" cx="208.1" cy="208.1" r="112.6"/>
<g>
	<circle style="fill:#FFFFFF;" cx="208.1" cy="208.1" r="88.7"/>
	<path style="fill:#FFFFFF;" d="M313.3,289.9l-23.5,23.5c-3.4,3.4-3.4,8.9,0,12.4l84.3,84.3c3.4,3.4,8.9,3.4,12.4,0l23.5-23.5   c3.4-3.4,3.4-8.9,0-12.4l-84.3-84.3C322.3,286.5,316.7,286.5,313.3,289.9z"/>
</g>
<rect x="310.355" y="324.573" transform="matrix(-0.7071 -0.7071 0.7071 -0.7071 349.8068 844.7394)" style="fill:#324A5E;" width="78.999" height="50.7"/>
<path style="fill:#FF7058;" d="M230.4,255.1c-1.7,0-3.3-0.9-4.1-2.5l-39.7-75.8l-11.3,28.8c-0.7,1.8-2.4,2.9-4.3,2.9h-32.4  c-2.5,0-4.6-2.1-4.6-4.6s2.1-4.6,4.6-4.6h29.3l13.8-35.3c0.7-1.7,2.2-2.8,4-2.9c1.8-0.1,3.5,0.9,4.3,2.5l40,76.4l14.9-32.8  c0.7-1.6,2.4-2.7,4.2-2.7h28.3c2.5,0,4.6,2.1,4.6,4.6s-2.1,4.6-4.6,4.6h-25.3l-17.6,38.7C233.8,254,232.2,255.1,230.4,255.1  C230.5,255.1,230.5,255.1,230.4,255.1z"/>
<g>
</g>
<g>
</g>
<g>
</g>
<g>
</g>
<g>
</g>
<g>
</g>
<g>
</g>
<g>
</g>
<g>
</g>
<g>
</g>
<g>
</g>
<g>
</g>
<g>
</g>
<g>
</g>
<g>
</g>
</svg>
