<?xml version="1.0" encoding="iso-8859-1"?>
<!-- Generator: Adobe Illustrator 19.0.0, SVG Export Plug-In . SVG Version: 6.00 Build 0)  -->
<svg xmlns="http://www.w3.org/2000/svg" xmlns:xlink="http://www.w3.org/1999/xlink" version="1.1" id="Layer_1" x="0px" y="0px" viewBox="0 0 508 508" style="enable-background:new 0 0 508 508;" xml:space="preserve">
<circle style="fill:#84DBFF;" cx="254" cy="254" r="254"/>
<rect x="120.8" y="155.1" style="fill:#324A5E;" width="266.3" height="98.9"/>
<g>
	<path style="fill:#FFFFFF;" d="M398.9,188.6H109.1c-2.1,0-3.8-1.7-3.8-3.8v-82.1c0-2.1,1.7-3.8,3.8-3.8h289.8   c2.1,0,3.8,1.7,3.8,3.8v82.1C402.7,186.9,401,188.6,398.9,188.6z"/>
	<path style="fill:#FFFFFF;" d="M398.9,298.8H109.1c-2.1,0-3.8-1.7-3.8-3.8v-82c0-2.1,1.7-3.8,3.8-3.8h289.8c2.1,0,3.8,1.7,3.8,3.8   v82C402.7,297.1,401,298.8,398.9,298.8z"/>
</g>
<path style="fill:#324A5E;" d="M357.8,342.5h-18.5v-53.7c0-15.7-12.8-28.4-28.4-28.4c-15.7,0-28.4,12.8-28.4,28.4v53.7H264v-53.7  c0-25.9,21.1-46.9,46.9-46.9s46.9,21.1,46.9,46.9V342.5z"/>
<path style="fill:#FFFFFF;" d="M375.3,442.5H246.5c-1.2,0-2.2-1-2.2-2.2V329c0-1.2,1-2.2,2.2-2.2h128.8c1.2,0,2.2,1,2.2,2.2v111.3  C377.5,441.6,376.5,442.5,375.3,442.5z"/>
<circle style="fill:#FF7058;" cx="145.1" cy="143.8" r="13.9"/>
<ellipse transform="matrix(0.707 -0.7072 0.7072 0.707 -57.211 138.0376)" style="fill:#FFFFFF;" cx="137.987" cy="138.065" rx="3.8" ry="1.5"/>
<circle style="fill:#FFD05B;" cx="185.5" cy="143.8" r="13.9"/>
<ellipse transform="matrix(0.707 -0.7072 0.7072 0.707 -45.3715 166.6084)" style="fill:#FFFFFF;" cx="178.388" cy="138.062" rx="3.8" ry="1.5"/>
<circle style="fill:#FF7058;" cx="145.1" cy="254" r="13.9"/>
<ellipse transform="matrix(0.707 -0.7072 0.7072 0.707 -135.1435 170.3402)" style="fill:#FFFFFF;" cx="138.006" cy="248.27" rx="3.8" ry="1.5"/>
<circle style="fill:#FFD05B;" cx="185.5" cy="254" r="13.9"/>
<ellipse transform="matrix(0.707 -0.7072 0.7072 0.707 -123.3027 198.9104)" style="fill:#FFFFFF;" cx="178.407" cy="248.265" rx="3.8" ry="1.5"/>
<path style="fill:#324A5E;" d="M323.5,374c0-7-5.7-12.7-12.7-12.7s-12.7,5.7-12.7,12.7c0,4.1,2,7.7,5,10l-5,24h25.3l-5-24  C321.5,381.8,323.5,378.1,323.5,374z"/>
<g>
</g>
<g>
</g>
<g>
</g>
<g>
</g>
<g>
</g>
<g>
</g>
<g>
</g>
<g>
</g>
<g>
</g>
<g>
</g>
<g>
</g>
<g>
</g>
<g>
</g>
<g>
</g>
<g>
</g>
</svg>
