<?xml version="1.0" encoding="iso-8859-1"?>
<!-- Generator: Adobe Illustrator 19.0.0, SVG Export Plug-In . SVG Version: 6.00 Build 0)  -->
<svg xmlns="http://www.w3.org/2000/svg" xmlns:xlink="http://www.w3.org/1999/xlink" version="1.1" id="Layer_1" x="0px" y="0px" viewBox="0 0 508 508" style="enable-background:new 0 0 508 508;" xml:space="preserve">
<circle style="fill:#FFD05B;" cx="254" cy="254" r="254"/>
<rect x="202.5" y="362.8" style="fill:#2B3B4E;" width="103" height="28"/>
<path style="fill:#324A5E;" d="M422.3,368.7H85.7c-1.6,0-2.9-1.3-2.9-2.9V123.4c0-1.6,1.3-2.9,2.9-2.9h336.6c1.6,0,2.9,1.3,2.9,2.9  v242.4C425.2,367.4,423.9,368.7,422.3,368.7z"/>
<rect x="95.5" y="134.5" style="fill:#84DBFF;" width="317" height="197.4"/>
<circle style="fill:#2B3B4E;" cx="254" cy="349.9" r="10.3"/>
<path style="fill:#324A5E;" d="M311.7,390.9H196.3c-5.6,0-10.2,4.6-10.2,10.2l0,0c0,5.6,4.6,10.2,10.2,10.2h115.3  c5.6,0,10.2-4.6,10.2-10.2l0,0C321.8,395.4,317.3,390.9,311.7,390.9z"/>
<g>
	<g style="enable-background:new    ;">
		<path style="fill:#54C0EB;" d="M148.622,199.84v-24.258h-5.608v-6.216h13.346v30.474H148.622z"/>
		<path style="fill:#54C0EB;" d="M189.358,184.581c0,9.955-4.826,15.477-13.433,15.477c-8.694,0-13.52-5.521-13.52-15.477    c0-9.912,4.826-15.433,13.52-15.433C184.532,169.148,189.358,174.669,189.358,184.581z M170.36,184.581    c0,6.956,1.652,9.825,5.564,9.825c3.826,0,5.521-2.869,5.521-9.825c0-6.955-1.695-9.781-5.521-9.781    C172.012,174.8,170.36,177.626,170.36,184.581z"/>
		<path style="fill:#54C0EB;" d="M197.1,199.84v-24.258h-5.608v-6.216h13.346v30.474H197.1z"/>
		<path style="fill:#54C0EB;" d="M215.013,199.84v-24.258h-5.608v-6.216h13.346v30.474H215.013z"/>
		<path style="fill:#54C0EB;" d="M255.749,184.581c0,9.955-4.826,15.477-13.433,15.477c-8.694,0-13.52-5.521-13.52-15.477    c0-9.912,4.826-15.433,13.52-15.433C250.923,169.148,255.749,174.669,255.749,184.581z M236.751,184.581    c0,6.956,1.652,9.825,5.564,9.825c3.826,0,5.521-2.869,5.521-9.825c0-6.955-1.695-9.781-5.521-9.781    C238.403,174.8,236.751,177.626,236.751,184.581z"/>
		<path style="fill:#54C0EB;" d="M263.491,199.84v-24.258h-5.608v-6.216h13.347v30.474H263.491z"/>
		<path style="fill:#54C0EB;" d="M304.228,184.581c0,9.955-4.826,15.477-13.434,15.477c-8.694,0-13.52-5.521-13.52-15.477    c0-9.912,4.825-15.433,13.52-15.433C299.401,169.148,304.228,174.669,304.228,184.581z M285.229,184.581    c0,6.956,1.652,9.825,5.564,9.825c3.826,0,5.521-2.869,5.521-9.825c0-6.955-1.695-9.781-5.521-9.781    C286.882,174.8,285.229,177.626,285.229,184.581z"/>
		<path style="fill:#54C0EB;" d="M311.969,199.84v-24.258h-5.607v-6.216h13.346v30.474H311.969z"/>
		<path style="fill:#54C0EB;" d="M329.882,199.84v-24.258h-5.607v-6.216h13.346v30.474H329.882z"/>
		<path style="fill:#54C0EB;" d="M370.618,184.581c0,9.955-4.826,15.477-13.434,15.477c-8.694,0-13.52-5.521-13.52-15.477    c0-9.912,4.825-15.433,13.52-15.433C365.792,169.148,370.618,174.669,370.618,184.581z M351.62,184.581    c0,6.956,1.652,9.825,5.564,9.825c3.826,0,5.521-2.869,5.521-9.825c0-6.955-1.695-9.781-5.521-9.781    C353.272,174.8,351.62,177.626,351.62,184.581z"/>
	</g>
	<g style="enable-background:new    ;">
		<path style="fill:#54C0EB;" d="M148.622,252.02v-24.258h-5.608v-6.216h13.346v30.474H148.622z"/>
		<path style="fill:#54C0EB;" d="M189.358,236.761c0,9.955-4.826,15.477-13.433,15.477c-8.694,0-13.52-5.521-13.52-15.477    c0-9.912,4.826-15.433,13.52-15.433C184.532,221.329,189.358,226.849,189.358,236.761z M170.36,236.761    c0,6.956,1.652,9.825,5.564,9.825c3.826,0,5.521-2.869,5.521-9.825c0-6.955-1.695-9.781-5.521-9.781    C172.012,226.98,170.36,229.806,170.36,236.761z"/>
		<path style="fill:#54C0EB;" d="M197.1,252.02v-24.258h-5.608v-6.216h13.346v30.474H197.1z"/>
		<path style="fill:#54C0EB;" d="M237.836,236.761c0,9.955-4.826,15.477-13.433,15.477c-8.694,0-13.52-5.521-13.52-15.477    c0-9.912,4.826-15.433,13.52-15.433C233.01,221.329,237.836,226.849,237.836,236.761z M218.838,236.761    c0,6.956,1.652,9.825,5.564,9.825c3.826,0,5.521-2.869,5.521-9.825c0-6.955-1.695-9.781-5.521-9.781    C220.49,226.98,218.838,229.806,218.838,236.761z"/>
		<path style="fill:#54C0EB;" d="M245.578,252.02v-24.258h-5.608v-6.216h13.346v30.474H245.578z"/>
		<path style="fill:#54C0EB;" d="M286.314,236.761c0,9.955-4.826,15.477-13.434,15.477c-8.694,0-13.52-5.521-13.52-15.477    c0-9.912,4.825-15.433,13.52-15.433C281.488,221.329,286.314,226.849,286.314,236.761z M267.316,236.761    c0,6.956,1.652,9.825,5.564,9.825c3.826,0,5.521-2.869,5.521-9.825c0-6.955-1.695-9.781-5.521-9.781    C268.969,226.98,267.316,229.806,267.316,236.761z"/>
		<path style="fill:#54C0EB;" d="M294.057,252.02v-24.258h-5.608v-6.216h13.347v30.474H294.057z"/>
	</g>
	<g style="enable-background:new    ;">
		<path style="fill:#54C0EB;" d="M148.622,304.19v-24.258h-5.608v-6.216h13.346v30.474H148.622z"/>
		<path style="fill:#54C0EB;" d="M189.358,288.932c0,9.955-4.826,15.477-13.433,15.477c-8.694,0-13.52-5.521-13.52-15.477    c0-9.912,4.826-15.433,13.52-15.433C184.532,273.499,189.358,279.02,189.358,288.932z M170.36,288.932    c0,6.956,1.652,9.825,5.564,9.825c3.826,0,5.521-2.869,5.521-9.825c0-6.955-1.695-9.781-5.521-9.781    C172.012,279.15,170.36,281.977,170.36,288.932z"/>
		<path style="fill:#54C0EB;" d="M197.1,304.19v-24.258h-5.608v-6.216h13.346v30.474H197.1z"/>
		<path style="fill:#54C0EB;" d="M237.836,288.932c0,9.955-4.826,15.477-13.433,15.477c-8.694,0-13.52-5.521-13.52-15.477    c0-9.912,4.826-15.433,13.52-15.433C233.01,273.499,237.836,279.02,237.836,288.932z M218.838,288.932    c0,6.956,1.652,9.825,5.564,9.825c3.826,0,5.521-2.869,5.521-9.825c0-6.955-1.695-9.781-5.521-9.781    C220.49,279.15,218.838,281.977,218.838,288.932z"/>
		<path style="fill:#54C0EB;" d="M245.578,304.19v-24.258h-5.608v-6.216h13.346v30.474H245.578z"/>
		<path style="fill:#54C0EB;" d="M286.314,288.932c0,9.955-4.826,15.477-13.434,15.477c-8.694,0-13.52-5.521-13.52-15.477    c0-9.912,4.825-15.433,13.52-15.433C281.488,273.499,286.314,279.02,286.314,288.932z M267.316,288.932    c0,6.956,1.652,9.825,5.564,9.825c3.826,0,5.521-2.869,5.521-9.825c0-6.955-1.695-9.781-5.521-9.781    C268.969,279.15,267.316,281.977,267.316,288.932z"/>
		<path style="fill:#54C0EB;" d="M294.057,304.19v-24.258h-5.608v-6.216h13.347v30.474H294.057z"/>
		<path style="fill:#54C0EB;" d="M334.792,288.932c0,9.955-4.825,15.477-13.433,15.477c-8.694,0-13.521-5.521-13.521-15.477    c0-9.912,4.826-15.433,13.521-15.433C329.967,273.499,334.792,279.02,334.792,288.932z M315.795,288.932    c0,6.956,1.651,9.825,5.564,9.825c3.825,0,5.521-2.869,5.521-9.825c0-6.955-1.695-9.781-5.521-9.781    C317.446,279.15,315.795,281.977,315.795,288.932z"/>
		<path style="fill:#54C0EB;" d="M342.534,304.19v-24.258h-5.607v-6.216h13.346v30.474H342.534z"/>
	</g>
</g>
<g>
</g>
<g>
</g>
<g>
</g>
<g>
</g>
<g>
</g>
<g>
</g>
<g>
</g>
<g>
</g>
<g>
</g>
<g>
</g>
<g>
</g>
<g>
</g>
<g>
</g>
<g>
</g>
<g>
</g>
</svg>
