<?xml version="1.0" encoding="iso-8859-1"?>
<!-- Generator: Adobe Illustrator 19.0.0, SVG Export Plug-In . SVG Version: 6.00 Build 0)  -->
<svg xmlns="http://www.w3.org/2000/svg" xmlns:xlink="http://www.w3.org/1999/xlink" version="1.1" id="Layer_1" x="0px" y="0px" viewBox="0 0 508 508" style="enable-background:new 0 0 508 508;" xml:space="preserve">
<circle style="fill:#324A5E;" cx="254" cy="254" r="254"/>
<path style="fill:#FFFFFF;" d="M254,75.4c-98.5,0-178.6,80.1-178.6,178.6S155.5,432.6,254,432.6S432.6,352.5,432.6,254  S352.5,75.4,254,75.4z M415,245.3h-19.3c-4.4-71.3-61.7-128.6-133-132.9V93C344.7,97.4,410.6,163.3,415,245.3z M348.1,262.7h33.7  c-4.3,63.7-55.4,114.8-119.1,119.1v-33.7c0-4.8-3.9-8.7-8.7-8.7s-8.7,3.9-8.7,8.7v33.7c-63.7-4.3-114.8-55.4-119.1-119.1h33.7  c4.8,0,8.7-3.9,8.7-8.7s-3.9-8.7-8.7-8.7h-33.7c4.3-63.7,55.4-114.8,119.1-119.1v33.7c0,4.8,3.9,8.7,8.7,8.7s8.7-3.9,8.7-8.7v-33.7  c63.7,4.3,114.8,55.4,119.1,119.1h-33.7c-4.8,0-8.7,3.9-8.7,8.7S343.3,262.7,348.1,262.7z M245.3,93v19.3  c-71.3,4.4-128.6,61.7-132.9,133H93C97.4,163.3,163.3,97.4,245.3,93z M93,262.7h19.3c4.3,71.3,61.6,128.6,132.9,132.9V415  C163.3,410.6,97.4,344.7,93,262.7z M262.7,415v-19.3c71.3-4.3,128.6-61.6,132.9-132.9H415C410.6,344.7,344.7,410.6,262.7,415z"/>
<rect x="195.7" y="249" style="fill:#4CDBC4;" width="19.8" height="57.1"/>
<rect x="228" y="223" style="fill:#FFD05B;" width="19.8" height="83"/>
<rect x="260.3" y="201.9" style="fill:#FF7058;" width="19.8" height="104.1"/>
<rect x="292.6" y="233.3" style="fill:#84DBFF;" width="19.8" height="72.7"/>
<g>
</g>
<g>
</g>
<g>
</g>
<g>
</g>
<g>
</g>
<g>
</g>
<g>
</g>
<g>
</g>
<g>
</g>
<g>
</g>
<g>
</g>
<g>
</g>
<g>
</g>
<g>
</g>
<g>
</g>
</svg>
