<?xml version="1.0" encoding="iso-8859-1"?>
<!-- Generator: Adobe Illustrator 19.0.0, SVG Export Plug-In . SVG Version: 6.00 Build 0)  -->
<svg xmlns="http://www.w3.org/2000/svg" xmlns:xlink="http://www.w3.org/1999/xlink" version="1.1" id="Layer_1" x="0px" y="0px" viewBox="0 0 508 508" style="enable-background:new 0 0 508 508;" xml:space="preserve">
<circle style="fill:#90DFAA;" cx="254" cy="254" r="254"/>
<path style="fill:#2C9984;" d="M55.5,412.4C102,470.6,173.6,508,254,508s152-37.4,198.5-95.6H55.5z"/>
<g>
	<path style="fill:#FFFFFF;" d="M406.9,412.4V184.5c0-3.7-3-6.6-6.6-6.6h-44c-3.7,0-6.6,3-6.6,6.6v227.9H406.9z"/>
	<path style="fill:#FFFFFF;" d="M324.1,412.4V229.6c0-3.7-3-6.6-6.6-6.6h-44c-3.7,0-6.6,3-6.6,6.6v182.8L324.1,412.4L324.1,412.4z"/>
	<path style="fill:#FFFFFF;" d="M241.2,412.4V274.7c0-3.7-3-6.6-6.6-6.6h-44c-3.7,0-6.6,3-6.6,6.6v137.7L241.2,412.4L241.2,412.4z"/>
	<path style="fill:#FFFFFF;" d="M158.3,412.4v-92.6c0-3.7-3-6.6-6.6-6.6h-44c-3.7,0-6.6,3-6.6,6.6v92.6H158.3z"/>
</g>
<path style="fill:#324A5E;" d="M335.9,107.9l-9.2,45.3c-0.5,2.5-3.7,3.1-5.1,1l-12.8-19.3L122,260.5l-10.5-15.8L298.3,119  l-12.8-19.3c-1.4-2.1,0.5-4.8,2.9-4.4l45.3,9.2C335.2,104.8,336.2,106.3,335.9,107.9z"/>
<g>
</g>
<g>
</g>
<g>
</g>
<g>
</g>
<g>
</g>
<g>
</g>
<g>
</g>
<g>
</g>
<g>
</g>
<g>
</g>
<g>
</g>
<g>
</g>
<g>
</g>
<g>
</g>
<g>
</g>
</svg>
