<?xml version="1.0" encoding="iso-8859-1"?>
<!-- Generator: Adobe Illustrator 19.0.0, SVG Export Plug-In . SVG Version: 6.00 Build 0)  -->
<svg xmlns="http://www.w3.org/2000/svg" xmlns:xlink="http://www.w3.org/1999/xlink" version="1.1" id="Layer_1" x="0px" y="0px" viewBox="0 0 508 508" style="enable-background:new 0 0 508 508;" xml:space="preserve">
<circle style="fill:#FFD05B;" cx="254" cy="254" r="254"/>
<rect x="149.8" y="184.8" style="fill:#CED5E0;" width="208.2" height="137.9"/>
<g>
	<path style="fill:#FFFFFF;" d="M365.1,209.6H142.8c-1.7,0-3-1.4-3-3v-56.1c0-1.7,1.4-3,3-3h222.3c1.7,0,3,1.4,3,3v56.1   C368.1,208.2,366.8,209.6,365.1,209.6z"/>
	<path style="fill:#FFFFFF;" d="M365.1,284.8H142.8c-1.7,0-3-1.4-3-3v-56.1c0-1.7,1.4-3,3-3h222.3c1.7,0,3,1.4,3,3v56.1   C368.1,283.5,366.8,284.8,365.1,284.8z"/>
	<path style="fill:#FFFFFF;" d="M186,284.8h-34.2c-6.7,0-12-5.4-12-12v-32.3C152.6,255.5,168.3,270.6,186,284.8z"/>
	<path style="fill:#FFFFFF;" d="M368.1,240.4v32.4c0,6.7-5.4,12-12.1,12h-34.2C339.7,270.5,355.3,255.5,368.1,240.4z"/>
</g>
<path id="SVGCleanerId_0" style="fill:#FFFFFF;" d="M365.1,360.1H142.8c-1.7,0-3-1.4-3-3V301c0-1.7,1.4-3,3-3h222.3c1.7,0,3,1.4,3,3  v56.1C368.1,358.8,366.8,360.1,365.1,360.1z"/>
<g>
	<path id="SVGCleanerId_0_1_" style="fill:#FFFFFF;" d="M365.1,360.1H142.8c-1.7,0-3-1.4-3-3V301c0-1.7,1.4-3,3-3h222.3   c1.7,0,3,1.4,3,3v56.1C368.1,358.8,366.8,360.1,365.1,360.1z"/>
</g>
<g>
	<path style="fill:#FFFFFF;" d="M329.1,209.6h-12c-2.3-22.8-6.3-43.9-11.7-62.2h12.4C323.1,165.9,326.9,186.9,329.1,209.6z"/>
	<path style="fill:#FFFFFF;" d="M331.2,253.8c0,10.6-0.3,21-1,31.1h-11.9c0.7-10.1,1.1-20.5,1.1-31.1s-0.4-21-1.1-31.1h11.9   C330.9,232.7,331.2,243.2,331.2,253.8z"/>
	<path style="fill:#FFFFFF;" d="M329.1,297.9c-2.2,22.7-6.1,43.7-11.3,62.2h-12.4c5.4-18.3,9.4-39.4,11.7-62.2H329.1z"/>
</g>
<g>
	<circle style="fill:#FF7058;" cx="163.5" cy="177.7" r="8.7"/>
	<circle style="fill:#FF7058;" cx="163.5" cy="253.8" r="8.7"/>
	<circle style="fill:#FF7058;" cx="163.5" cy="329.8" r="8.7"/>
</g>
<g>
	<circle style="fill:#84DBFF;" cx="188.7" cy="177.7" r="8.7"/>
	<circle style="fill:#84DBFF;" cx="188.7" cy="253.8" r="8.7"/>
	<circle style="fill:#84DBFF;" cx="188.7" cy="329.8" r="8.7"/>
</g>
<g>
	<path style="fill:#E6E9EE;" d="M279.5,185.2L279.5,185.2c-3.3,0-6-2.7-6-6l0,0c0-3.3,2.7-6,6-6l0,0c3.3,0,6,2.7,6,6l0,0   C285.5,182.6,282.8,185.2,279.5,185.2z"/>
	<path style="fill:#E6E9EE;" d="M303.4,185.2L303.4,185.2c-3.3,0-6-2.7-6-6l0,0c0-3.3,2.7-6,6-6l0,0c3.3,0,6,2.7,6,6l0,0   C309.4,182.6,306.7,185.2,303.4,185.2z"/>
	<path style="fill:#E6E9EE;" d="M327.3,185.2L327.3,185.2c-3.3,0-6-2.7-6-6l0,0c0-3.3,2.7-6,6-6l0,0c3.3,0,6,2.7,6,6l0,0   C333.3,182.6,330.6,185.2,327.3,185.2z"/>
	<path style="fill:#E6E9EE;" d="M267.5,173.3L267.5,173.3c-3.3,0-6-2.7-6-6l0,0c0-3.3,2.7-6,6-6l0,0c3.3,0,6,2.7,6,6l0,0   C273.5,170.6,270.8,173.3,267.5,173.3z"/>
	<path style="fill:#E6E9EE;" d="M291.5,173.3L291.5,173.3c-3.3,0-6-2.7-6-6l0,0c0-3.3,2.7-6,6-6l0,0c3.3,0,6,2.7,6,6l0,0   C297.4,170.6,294.8,173.3,291.5,173.3z"/>
	<path style="fill:#E6E9EE;" d="M315.4,173.3L315.4,173.3c-3.3,0-6-2.7-6-6l0,0c0-3.3,2.7-6,6-6l0,0c3.3,0,6,2.7,6,6l0,0   C321.3,170.6,318.7,173.3,315.4,173.3z"/>
	<path style="fill:#E6E9EE;" d="M339.3,173.3L339.3,173.3c-3.3,0-6-2.7-6-6l0,0c0-3.3,2.7-6,6-6l0,0c3.3,0,6,2.7,6,6l0,0   C345.3,170.6,342.6,173.3,339.3,173.3z"/>
	<path style="fill:#E6E9EE;" d="M267.5,197.2L267.5,197.2c-3.3,0-6-2.7-6-6l0,0c0-3.3,2.7-6,6-6l0,0c3.3,0,6,2.7,6,6l0,0   C273.5,194.5,270.8,197.2,267.5,197.2z"/>
	<path style="fill:#E6E9EE;" d="M291.5,197.2L291.5,197.2c-3.3,0-6-2.7-6-6l0,0c0-3.3,2.7-6,6-6l0,0c3.3,0,6,2.7,6,6l0,0   C297.4,194.5,294.8,197.2,291.5,197.2z"/>
	<path style="fill:#E6E9EE;" d="M315.4,197.2L315.4,197.2c-3.3,0-6-2.7-6-6l0,0c0-3.3,2.7-6,6-6l0,0c3.3,0,6,2.7,6,6l0,0   C321.3,194.5,318.7,197.2,315.4,197.2z"/>
	<path style="fill:#E6E9EE;" d="M339.3,197.2L339.3,197.2c-3.3,0-6-2.7-6-6l0,0c0-3.3,2.7-6,6-6l0,0c3.3,0,6,2.7,6,6l0,0   C345.3,194.5,342.6,197.2,339.3,197.2z"/>
	<path style="fill:#E6E9EE;" d="M279.5,259.7L279.5,259.7c-3.3,0-6-2.7-6-6l0,0c0-3.3,2.7-6,6-6l0,0c3.3,0,6,2.7,6,6l0,0   C285.5,257.1,282.8,259.7,279.5,259.7z"/>
	<path style="fill:#E6E9EE;" d="M303.4,259.7L303.4,259.7c-3.3,0-6-2.7-6-6l0,0c0-3.3,2.7-6,6-6l0,0c3.3,0,6,2.7,6,6l0,0   C309.4,257.1,306.7,259.7,303.4,259.7z"/>
	<path style="fill:#E6E9EE;" d="M327.3,259.7L327.3,259.7c-3.3,0-6-2.7-6-6l0,0c0-3.3,2.7-6,6-6l0,0c3.3,0,6,2.7,6,6l0,0   C333.3,257.1,330.6,259.7,327.3,259.7z"/>
	<path style="fill:#E6E9EE;" d="M267.5,247.8L267.5,247.8c-3.3,0-6-2.7-6-6l0,0c0-3.3,2.7-6,6-6l0,0c3.3,0,6,2.7,6,6l0,0   C273.5,245.1,270.8,247.8,267.5,247.8z"/>
	<path style="fill:#E6E9EE;" d="M291.5,247.8L291.5,247.8c-3.3,0-6-2.7-6-6l0,0c0-3.3,2.7-6,6-6l0,0c3.3,0,6,2.7,6,6l0,0   C297.4,245.1,294.8,247.8,291.5,247.8z"/>
	<path style="fill:#E6E9EE;" d="M315.4,247.8L315.4,247.8c-3.3,0-6-2.7-6-6l0,0c0-3.3,2.7-6,6-6l0,0c3.3,0,6,2.7,6,6l0,0   C321.3,245.1,318.7,247.8,315.4,247.8z"/>
	<path style="fill:#E6E9EE;" d="M339.3,247.8L339.3,247.8c-3.3,0-6-2.7-6-6l0,0c0-3.3,2.7-6,6-6l0,0c3.3,0,6,2.7,6,6l0,0   C345.3,245.1,342.6,247.8,339.3,247.8z"/>
	<path style="fill:#E6E9EE;" d="M267.5,271.7L267.5,271.7c-3.3,0-6-2.7-6-6l0,0c0-3.3,2.7-6,6-6l0,0c3.3,0,6,2.7,6,6l0,0   C273.5,269,270.8,271.7,267.5,271.7z"/>
	<path style="fill:#E6E9EE;" d="M291.5,271.7L291.5,271.7c-3.3,0-6-2.7-6-6l0,0c0-3.3,2.7-6,6-6l0,0c3.3,0,6,2.7,6,6l0,0   C297.4,269,294.8,271.7,291.5,271.7z"/>
	<path style="fill:#E6E9EE;" d="M315.4,271.7L315.4,271.7c-3.3,0-6-2.7-6-6l0,0c0-3.3,2.7-6,6-6l0,0c3.3,0,6,2.7,6,6l0,0   C321.3,269,318.7,271.7,315.4,271.7z"/>
	<path style="fill:#E6E9EE;" d="M339.3,271.7L339.3,271.7c-3.3,0-6-2.7-6-6l0,0c0-3.3,2.7-6,6-6l0,0c3.3,0,6,2.7,6,6l0,0   C345.3,269,342.6,271.7,339.3,271.7z"/>
	<path style="fill:#E6E9EE;" d="M279.5,334.2L279.5,334.2c-3.3,0-6-2.7-6-6l0,0c0-3.3,2.7-6,6-6l0,0c3.3,0,6,2.7,6,6l0,0   C285.5,331.6,282.8,334.2,279.5,334.2z"/>
	<path style="fill:#E6E9EE;" d="M303.4,334.2L303.4,334.2c-3.3,0-6-2.7-6-6l0,0c0-3.3,2.7-6,6-6l0,0c3.3,0,6,2.7,6,6l0,0   C309.4,331.6,306.7,334.2,303.4,334.2z"/>
	<path style="fill:#E6E9EE;" d="M327.3,334.2L327.3,334.2c-3.3,0-6-2.7-6-6l0,0c0-3.3,2.7-6,6-6l0,0c3.3,0,6,2.7,6,6l0,0   C333.3,331.6,330.6,334.2,327.3,334.2z"/>
	<path style="fill:#E6E9EE;" d="M267.5,322.3L267.5,322.3c-3.3,0-6-2.7-6-6l0,0c0-3.3,2.7-6,6-6l0,0c3.3,0,6,2.7,6,6l0,0   C273.5,319.6,270.8,322.3,267.5,322.3z"/>
	<path style="fill:#E6E9EE;" d="M291.5,322.3L291.5,322.3c-3.3,0-6-2.7-6-6l0,0c0-3.3,2.7-6,6-6l0,0c3.3,0,6,2.7,6,6l0,0   C297.4,319.6,294.8,322.3,291.5,322.3z"/>
	<path style="fill:#E6E9EE;" d="M315.4,322.3L315.4,322.3c-3.3,0-6-2.7-6-6l0,0c0-3.3,2.7-6,6-6l0,0c3.3,0,6,2.7,6,6l0,0   C321.3,319.6,318.7,322.3,315.4,322.3z"/>
	<path style="fill:#E6E9EE;" d="M339.3,322.3L339.3,322.3c-3.3,0-6-2.7-6-6l0,0c0-3.3,2.7-6,6-6l0,0c3.3,0,6,2.7,6,6l0,0   C345.3,319.6,342.6,322.3,339.3,322.3z"/>
	<path style="fill:#E6E9EE;" d="M267.5,346.2L267.5,346.2c-3.3,0-6-2.7-6-6l0,0c0-3.3,2.7-6,6-6l0,0c3.3,0,6,2.7,6,6l0,0   C273.5,343.5,270.8,346.2,267.5,346.2z"/>
	<path style="fill:#E6E9EE;" d="M291.5,346.2L291.5,346.2c-3.3,0-6-2.7-6-6l0,0c0-3.3,2.7-6,6-6l0,0c3.3,0,6,2.7,6,6l0,0   C297.4,343.5,294.8,346.2,291.5,346.2z"/>
	<path style="fill:#E6E9EE;" d="M315.4,346.2L315.4,346.2c-3.3,0-6-2.7-6-6l0,0c0-3.3,2.7-6,6-6l0,0c3.3,0,6,2.7,6,6l0,0   C321.3,343.5,318.7,346.2,315.4,346.2z"/>
	<path style="fill:#E6E9EE;" d="M339.3,346.2L339.3,346.2c-3.3,0-6-2.7-6-6l0,0c0-3.3,2.7-6,6-6l0,0c3.3,0,6,2.7,6,6l0,0   C345.3,343.5,342.6,346.2,339.3,346.2z"/>
</g>
<g>
	<path style="fill:#324A5E;" d="M330.2,222.7c-0.3-4.4-0.7-8.8-1.1-13.1c-2.2-22.7-6.1-43.7-11.3-62.2c-13.8-48.9-37-80.5-63.9-80.5   s-50.1,31.5-64,80.5h12.4c12.1-41.4,30.9-68.6,51.6-68.6s39.5,27.2,51.6,68.6c5.3,18.3,9.4,39.4,11.7,62.2   c0.4,4.3,0.8,8.7,1.1,13.1c0.7,10.1,1.1,20.5,1.1,31.1c0,10.6-0.4,21-1.1,31.1c-0.3,4.4-0.7,8.8-1.1,13.1   c-2.3,22.8-6.3,43.9-11.7,62.2c-12.1,41.4-30.9,68.7-51.6,68.7s-39.5-27.2-51.6-68.7H190c13.8,48.9,37.1,80.5,64,80.5   s50.1-31.5,63.9-80.5c5.2-18.5,9.1-39.5,11.3-62.2c0.4-4.3,0.8-8.7,1.1-13.1c0.7-10.1,1-20.5,1-31.1   C331.2,243.2,330.9,232.7,330.2,222.7z"/>
	<path style="fill:#324A5E;" d="M408.8,149.3c-8.2-12.2-23.9-18.7-45.5-18.7c-21.1,0-46.5,5.9-73.8,16.7H328   c12.9-3.2,24.8-4.9,35.4-4.9c12.1,0,28.2,2.4,35.7,13.5c9.1,13.5,3.4,37.1-15.7,64.8c-4.5,6.5-9.6,13.1-15.2,19.7   c-12.8,15-28.5,30.1-46.2,44.4c-9.9,8-20.4,15.8-31.4,23.2c-52.2,35.1-108.1,57-146,57c-12.2,0-28.2-2.3-35.7-13.4   c-9.1-13.5-3.3-37.1,15.7-64.8c4.5-6.5,9.6-13.1,15.2-19.7v-17.7c-9.6,10.2-18,20.6-25,30.8C92.5,312.6,87,340.4,99,358.3   c8.2,12.2,24,18.7,45.5,18.7c40.7,0,97.8-22.1,152.6-59c15.5-10.4,30-21.5,43.2-33c10.1-8.7,19.4-17.7,27.8-26.7   c9.6-10.2,18-20.5,25-30.7C415.4,195.1,421,167.3,408.8,149.3z"/>
	<path style="fill:#324A5E;" d="M393.1,280.1c-7-10.2-15.4-20.5-25-30.7v17.7c5.6,6.6,10.7,13.2,15.2,19.7   c19,27.7,24.8,51.4,15.7,64.8c-7.5,11.1-23.5,13.4-35.7,13.4c-37.9,0-93.9-21.8-146-57c-11-7.4-21.5-15.2-31.4-23.2   c-17.7-14.3-33.4-29.3-46.2-44.3c-5.6-6.6-10.7-13.2-15.2-19.8c-19-27.7-24.8-51.3-15.7-64.8c7.5-11.1,23.5-13.5,35.7-13.5   c10.6,0,22.5,1.7,35.4,4.9h38.4c-27.2-10.8-52.7-16.7-73.8-16.7c-21.5,0-37.3,6.4-45.5,18.7c-12.1,18-6.5,45.7,15.8,78.1   c7,10.2,15.4,20.5,25,30.7c8.4,9,17.7,17.9,27.8,26.6c13.2,11.5,27.8,22.6,43.2,33c54.8,36.9,111.8,59,152.6,59   c21.5,0,37.2-6.5,45.5-18.7C421,340.2,415.4,312.5,393.1,280.1z"/>
</g>
<g>
	<circle style="fill:#FF7058;" cx="260.6" cy="73" r="23.4"/>
	<circle style="fill:#FF7058;" cx="400.9" cy="360.1" r="23.4"/>
	<circle style="fill:#FF7058;" cx="101.7" cy="346.2" r="23.4"/>
</g>
<g>
</g>
<g>
</g>
<g>
</g>
<g>
</g>
<g>
</g>
<g>
</g>
<g>
</g>
<g>
</g>
<g>
</g>
<g>
</g>
<g>
</g>
<g>
</g>
<g>
</g>
<g>
</g>
<g>
</g>
</svg>
