<?xml version="1.0" encoding="iso-8859-1"?>
<!-- Generator: Adobe Illustrator 19.0.0, SVG Export Plug-In . SVG Version: 6.00 Build 0)  -->
<svg xmlns="http://www.w3.org/2000/svg" xmlns:xlink="http://www.w3.org/1999/xlink" version="1.1" id="Layer_1" x="0px" y="0px" viewBox="0 0 508 508" style="enable-background:new 0 0 508 508;" xml:space="preserve">
<path style="fill:#FD8469;" d="M508,254c0,140.3-113.7,254-254,254S0,394.3,0,254S113.7,0,254,0c110.8,0,204.9,70.9,239.7,169.7  c7.5,21.2,12.2,43.6,13.7,66.9C507.8,242.4,508,248.2,508,254z"/>
<rect x="115.3" y="162.1" style="fill:#2B3B4E;" width="277.4" height="183.8"/>
<g>
	<path style="fill:#324A5E;" d="M402.2,195.1H105.8c-2.2,0-4-1.8-4-4v-74.8c0-2.2,1.8-4,4-4h296.3c2.2,0,4,1.8,4,4v74.8   C406.2,193.3,404.4,195.1,402.2,195.1z"/>
	<path style="fill:#324A5E;" d="M402.2,295.4H105.8c-2.2,0-4-1.8-4-4v-74.8c0-2.2,1.8-4,4-4h296.3c2.2,0,4,1.8,4,4v74.8   C406.2,293.6,404.4,295.4,402.2,295.4z"/>
	<path style="fill:#324A5E;" d="M402.2,395.7H105.8c-2.2,0-4-1.8-4-4v-74.8c0-2.2,1.8-4,4-4h296.3c2.2,0,4,1.8,4,4v74.8   C406.2,393.9,404.4,395.7,402.2,395.7z"/>
</g>
<circle style="fill:#84DBFF;" cx="133.4" cy="152.6" r="11.6"/>
<circle style="fill:#FFD05B;" cx="165.9" cy="152.6" r="11.6"/>
<circle style="fill:#4CDBC4;" cx="201.1" cy="152.6" r="11.6"/>
<circle style="fill:#84DBFF;" cx="133.4" cy="254" r="11.6"/>
<circle style="fill:#FFD05B;" cx="165.9" cy="254" r="11.6"/>
<circle style="fill:#4CDBC4;" cx="201.1" cy="254" r="11.6"/>
<circle style="fill:#84DBFF;" cx="133.4" cy="355.4" r="11.6"/>
<circle style="fill:#FFD05B;" cx="165.9" cy="355.4" r="11.6"/>
<circle style="fill:#4CDBC4;" cx="201.1" cy="355.4" r="11.6"/>
<g>
	<path style="fill:#2B3B4E;" d="M288.1,162.7L288.1,162.7c-4.4,0-8-3.6-8-8l0,0c0-4.4,3.6-8,8-8l0,0c4.4,0,8,3.6,8,8l0,0   C296.1,159.1,292.5,162.7,288.1,162.7z"/>
	<path style="fill:#2B3B4E;" d="M320,162.7L320,162.7c-4.4,0-8-3.6-8-8l0,0c0-4.4,3.6-8,8-8l0,0c4.4,0,8,3.6,8,8l0,0   C327.9,159.1,324.4,162.7,320,162.7z"/>
	<path style="fill:#2B3B4E;" d="M351.8,162.7L351.8,162.7c-4.4,0-8-3.6-8-8l0,0c0-4.4,3.6-8,8-8l0,0c4.4,0,8,3.6,8,8l0,0   C359.8,159.1,356.2,162.7,351.8,162.7z"/>
	<path style="fill:#2B3B4E;" d="M272.2,146.7L272.2,146.7c-4.4,0-8-3.6-8-8l0,0c0-4.4,3.6-8,8-8l0,0c4.4,0,8,3.6,8,8l0,0   C280.1,143.2,276.6,146.7,272.2,146.7z"/>
	<path style="fill:#2B3B4E;" d="M304,146.7L304,146.7c-4.4,0-8-3.6-8-8l0,0c0-4.4,3.6-8,8-8l0,0c4.4,0,8,3.6,8,8l0,0   C312,143.2,308.4,146.7,304,146.7z"/>
	<path style="fill:#2B3B4E;" d="M335.9,146.7L335.9,146.7c-4.4,0-8-3.6-8-8l0,0c0-4.4,3.6-8,8-8l0,0c4.4,0,8,3.6,8,8l0,0   C343.9,143.2,340.3,146.7,335.9,146.7z"/>
	<path style="fill:#2B3B4E;" d="M367.8,146.7L367.8,146.7c-4.4,0-8-3.6-8-8l0,0c0-4.4,3.6-8,8-8l0,0c4.4,0,8,3.6,8,8l0,0   C375.7,143.2,372.2,146.7,367.8,146.7z"/>
	<path style="fill:#2B3B4E;" d="M272.2,178.6L272.2,178.6c-4.4,0-8-3.6-8-8l0,0c0-4.4,3.6-8,8-8l0,0c4.4,0,8,3.6,8,8l0,0   C280.1,175,276.6,178.6,272.2,178.6z"/>
	<path style="fill:#2B3B4E;" d="M304,178.6L304,178.6c-4.4,0-8-3.6-8-8l0,0c0-4.4,3.6-8,8-8l0,0c4.4,0,8,3.6,8,8l0,0   C312,175,308.4,178.6,304,178.6z"/>
	<path style="fill:#2B3B4E;" d="M335.9,178.6L335.9,178.6c-4.4,0-8-3.6-8-8l0,0c0-4.4,3.6-8,8-8l0,0c4.4,0,8,3.6,8,8l0,0   C343.9,175,340.3,178.6,335.9,178.6z"/>
	<path style="fill:#2B3B4E;" d="M367.8,178.6L367.8,178.6c-4.4,0-8-3.6-8-8l0,0c0-4.4,3.6-8,8-8l0,0c4.4,0,8,3.6,8,8l0,0   C375.7,175,372.2,178.6,367.8,178.6z"/>
	<path style="fill:#2B3B4E;" d="M288.1,262L288.1,262c-4.4,0-8-3.6-8-8l0,0c0-4.4,3.6-8,8-8l0,0c4.4,0,8,3.6,8,8l0,0   C296.1,258.4,292.5,262,288.1,262z"/>
	<path style="fill:#2B3B4E;" d="M320,262L320,262c-4.4,0-8-3.6-8-8l0,0c0-4.4,3.6-8,8-8l0,0c4.4,0,8,3.6,8,8l0,0   C327.9,258.4,324.4,262,320,262z"/>
	<path style="fill:#2B3B4E;" d="M351.8,262L351.8,262c-4.4,0-8-3.6-8-8l0,0c0-4.4,3.6-8,8-8l0,0c4.4,0,8,3.6,8,8l0,0   C359.8,258.4,356.2,262,351.8,262z"/>
	<path style="fill:#2B3B4E;" d="M272.2,246L272.2,246c-4.4,0-8-3.6-8-8l0,0c0-4.4,3.6-8,8-8l0,0c4.4,0,8,3.6,8,8l0,0   C280.1,242.5,276.6,246,272.2,246z"/>
	<path style="fill:#2B3B4E;" d="M304,246L304,246c-4.4,0-8-3.6-8-8l0,0c0-4.4,3.6-8,8-8l0,0c4.4,0,8,3.6,8,8l0,0   C312,242.5,308.4,246,304,246z"/>
	<path style="fill:#2B3B4E;" d="M335.9,246L335.9,246c-4.4,0-8-3.6-8-8l0,0c0-4.4,3.6-8,8-8l0,0c4.4,0,8,3.6,8,8l0,0   C343.9,242.5,340.3,246,335.9,246z"/>
	<path style="fill:#2B3B4E;" d="M367.8,246L367.8,246c-4.4,0-8-3.6-8-8l0,0c0-4.4,3.6-8,8-8l0,0c4.4,0,8,3.6,8,8l0,0   C375.7,242.5,372.2,246,367.8,246z"/>
	<path style="fill:#2B3B4E;" d="M272.2,277.9L272.2,277.9c-4.4,0-8-3.6-8-8l0,0c0-4.4,3.6-8,8-8l0,0c4.4,0,8,3.6,8,8l0,0   C280.1,274.3,276.6,277.9,272.2,277.9z"/>
	<path style="fill:#2B3B4E;" d="M304,277.9L304,277.9c-4.4,0-8-3.6-8-8l0,0c0-4.4,3.6-8,8-8l0,0c4.4,0,8,3.6,8,8l0,0   C312,274.3,308.4,277.9,304,277.9z"/>
	<path style="fill:#2B3B4E;" d="M335.9,277.9L335.9,277.9c-4.4,0-8-3.6-8-8l0,0c0-4.4,3.6-8,8-8l0,0c4.4,0,8,3.6,8,8l0,0   C343.9,274.3,340.3,277.9,335.9,277.9z"/>
	<path style="fill:#2B3B4E;" d="M367.8,277.9L367.8,277.9c-4.4,0-8-3.6-8-8l0,0c0-4.4,3.6-8,8-8l0,0c4.4,0,8,3.6,8,8l0,0   C375.7,274.3,372.2,277.9,367.8,277.9z"/>
	<path style="fill:#2B3B4E;" d="M288.1,361.3L288.1,361.3c-4.4,0-8-3.6-8-8l0,0c0-4.4,3.6-8,8-8l0,0c4.4,0,8,3.6,8,8l0,0   C296.1,357.7,292.5,361.3,288.1,361.3z"/>
	<path style="fill:#2B3B4E;" d="M320,361.3L320,361.3c-4.4,0-8-3.6-8-8l0,0c0-4.4,3.6-8,8-8l0,0c4.4,0,8,3.6,8,8l0,0   C327.9,357.7,324.4,361.3,320,361.3z"/>
	<path style="fill:#2B3B4E;" d="M351.8,361.3L351.8,361.3c-4.4,0-8-3.6-8-8l0,0c0-4.4,3.6-8,8-8l0,0c4.4,0,8,3.6,8,8l0,0   C359.8,357.7,356.2,361.3,351.8,361.3z"/>
	<path style="fill:#2B3B4E;" d="M272.2,345.3L272.2,345.3c-4.4,0-8-3.6-8-8l0,0c0-4.4,3.6-8,8-8l0,0c4.4,0,8,3.6,8,8l0,0   C280.1,341.8,276.6,345.3,272.2,345.3z"/>
	<path style="fill:#2B3B4E;" d="M304,345.3L304,345.3c-4.4,0-8-3.6-8-8l0,0c0-4.4,3.6-8,8-8l0,0c4.4,0,8,3.6,8,8l0,0   C312,341.8,308.4,345.3,304,345.3z"/>
	<path style="fill:#2B3B4E;" d="M335.9,345.3L335.9,345.3c-4.4,0-8-3.6-8-8l0,0c0-4.4,3.6-8,8-8l0,0c4.4,0,8,3.6,8,8l0,0   C343.9,341.8,340.3,345.3,335.9,345.3z"/>
	<path style="fill:#2B3B4E;" d="M367.8,345.3L367.8,345.3c-4.4,0-8-3.6-8-8l0,0c0-4.4,3.6-8,8-8l0,0c4.4,0,8,3.6,8,8l0,0   C375.7,341.8,372.2,345.3,367.8,345.3z"/>
	<path style="fill:#2B3B4E;" d="M272.2,377.2L272.2,377.2c-4.4,0-8-3.6-8-8l0,0c0-4.4,3.6-8,8-8l0,0c4.4,0,8,3.6,8,8l0,0   C280.1,373.6,276.6,377.2,272.2,377.2z"/>
	<path style="fill:#2B3B4E;" d="M304,377.2L304,377.2c-4.4,0-8-3.6-8-8l0,0c0-4.4,3.6-8,8-8l0,0c4.4,0,8,3.6,8,8l0,0   C312,373.6,308.4,377.2,304,377.2z"/>
	<path style="fill:#2B3B4E;" d="M335.9,377.2L335.9,377.2c-4.4,0-8-3.6-8-8l0,0c0-4.4,3.6-8,8-8l0,0c4.4,0,8,3.6,8,8l0,0   C343.9,373.6,340.3,377.2,335.9,377.2z"/>
	<path style="fill:#2B3B4E;" d="M367.8,377.2L367.8,377.2c-4.4,0-8-3.6-8-8l0,0c0-4.4,3.6-8,8-8l0,0c4.4,0,8,3.6,8,8l0,0   C375.7,373.6,372.2,377.2,367.8,377.2z"/>
</g>
<g>
</g>
<g>
</g>
<g>
</g>
<g>
</g>
<g>
</g>
<g>
</g>
<g>
</g>
<g>
</g>
<g>
</g>
<g>
</g>
<g>
</g>
<g>
</g>
<g>
</g>
<g>
</g>
<g>
</g>
</svg>
