<?xml version="1.0" encoding="iso-8859-1"?>
<!-- Generator: Adobe Illustrator 19.0.0, SVG Export Plug-In . SVG Version: 6.00 Build 0)  -->
<svg xmlns="http://www.w3.org/2000/svg" xmlns:xlink="http://www.w3.org/1999/xlink" version="1.1" id="Layer_1" x="0px" y="0px" viewBox="0 0 508 508" style="enable-background:new 0 0 508 508;" xml:space="preserve">
<circle style="fill:#90DFAA;" cx="254" cy="254" r="254"/>
<path style="fill:#324A5E;" d="M392.2,418.8H115.8c-1.2,0-2.1-1-2.1-2.1V105.1c0-1.2,1-2.1,2.1-2.1h276.5c1.2,0,2.1,1,2.1,2.1v311.6  C394.4,417.9,393.4,418.8,392.2,418.8z"/>
<polygon style="fill:#FFFFFF;" points="127.3,117.5 127.3,385.2 340.3,385.2 340.3,344.8 380.7,344.8 380.7,117.5 "/>
<polygon style="fill:#E6E9EE;" points="340.3,385.2 380.7,344.8 340.3,344.8 "/>
<g>
	<rect x="190.9" y="88.9" style="fill:#FFD05B;" width="126.2" height="40.7"/>
	<circle style="fill:#FFD05B;" cx="254" cy="88.9" r="23.6"/>
</g>
<polygon style="fill:#E6E9EE;" points="351.4,171.6 351.4,177.2 311.7,159.6 289.4,175.5 263.3,166.3 216.9,198.7 193.4,187.9   149.9,215.2 149.9,209.2 193.1,182.2 216.4,192.9 262.6,160.6 288.6,169.8 311.1,153.8 "/>
<polygon style="fill:#84DBFF;" points="351.4,258.3 351.4,188.3 312.9,171.2 291,186.8 264.9,177.6 218,210.4 194.2,199.4   149.9,227.1 149.9,258.3 "/>
<g>
	<circle style="fill:#FF7058;" cx="312.1" cy="156.8" r="5.7"/>
	<circle style="fill:#FF7058;" cx="289.4" cy="171.2" r="5.7"/>
	<circle style="fill:#FF7058;" cx="262.2" cy="163.7" r="5.7"/>
	<circle style="fill:#FF7058;" cx="216.2" cy="194.7" r="5.7"/>
	<circle style="fill:#FF7058;" cx="193.1" cy="184.5" r="5.7"/>
</g>
<g>
	<rect x="149.9" y="276.8" style="fill:#E6E9EE;" width="198.4" height="8.5"/>
	<rect x="149.9" y="301.7" style="fill:#E6E9EE;" width="198.4" height="8.5"/>
	<rect x="149.9" y="326.7" style="fill:#E6E9EE;" width="95.7" height="8.5"/>
</g>
<g>
</g>
<g>
</g>
<g>
</g>
<g>
</g>
<g>
</g>
<g>
</g>
<g>
</g>
<g>
</g>
<g>
</g>
<g>
</g>
<g>
</g>
<g>
</g>
<g>
</g>
<g>
</g>
<g>
</g>
</svg>
