<?xml version="1.0" encoding="iso-8859-1"?>
<!-- Generator: Adobe Illustrator 19.0.0, SVG Export Plug-In . SVG Version: 6.00 Build 0)  -->
<svg xmlns="http://www.w3.org/2000/svg" xmlns:xlink="http://www.w3.org/1999/xlink" version="1.1" id="Layer_1" x="0px" y="0px" viewBox="0 0 508.067 508.067" style="enable-background:new 0 0 508.067 508.067;" xml:space="preserve">
<path style="fill:#FD8469;" d="M507.933,245.733c4.7,146.9-115.3,266.9-262.2,262.2c-133-4.3-241.3-112.6-245.6-245.6  c-4.7-146.8,115.4-266.9,262.2-262.2C395.333,4.433,503.633,112.733,507.933,245.733z"/>
<circle style="fill:#2B3B4E;" cx="254.033" cy="363.133" r="51.1"/>
<path style="fill:#324A5E;" d="M410.333,108.733h-312.6c-9.4,0-17.1,7.6-17.1,17.1v225.1c0,9.4,7.6,17.1,17.1,17.1h312.6  c9.4,0,17.1-7.6,17.1-17.1v-225.1C427.433,116.333,419.833,108.733,410.333,108.733z"/>
<path style="fill:#FFFFFF;" d="M411.533,323.333v-197.5c0-0.7-0.5-1.2-1.2-1.2h-312.6c-0.7,0-1.2,0.5-1.2,1.2v197.6h315V323.333z"/>
<path style="fill:#324A5E;" d="M301.933,400.733h-95.8c-8.4,0-15.2,6.8-15.2,15.2l0,0c0,8.4,6.8,15.2,15.2,15.2h95.8  c8.4,0,15.2-6.8,15.2-15.2l0,0C317.133,407.533,310.333,400.733,301.933,400.733z"/>
<g>
	<circle style="fill:#2B3B4E;" cx="394.133" cy="345.633" r="8.4"/>
	<circle style="fill:#2B3B4E;" cx="368.533" cy="345.633" r="8.4"/>
	<circle style="fill:#2B3B4E;" cx="342.833" cy="345.633" r="8.4"/>
</g>
<polygon style="fill:#E6E9EE;" points="399.033,185.333 399.033,193.333 341.833,168.133 309.833,190.933 272.233,177.633   205.533,224.333 171.633,208.833 109.033,247.933 109.033,239.433 171.133,200.533 204.733,216.033 271.133,169.533   308.633,182.733 341.033,159.733 "/>
<polygon style="fill:#84DBFF;" points="399.033,310.033 399.033,209.333 343.533,184.833 312.133,207.233 274.433,193.933   207.033,241.133 172.733,225.333 109.033,265.233 109.033,310.033 "/>
<g>
	<circle style="fill:#FF7058;" cx="342.433" cy="164.033" r="8.3"/>
	<circle style="fill:#FF7058;" cx="309.833" cy="184.833" r="8.3"/>
	<circle style="fill:#FF7058;" cx="270.633" cy="174.033" r="8.3"/>
	<circle style="fill:#FF7058;" cx="204.533" cy="218.533" r="8.3"/>
	<circle style="fill:#FF7058;" cx="171.233" cy="203.833" r="8.3"/>
</g>
<g>
</g>
<g>
</g>
<g>
</g>
<g>
</g>
<g>
</g>
<g>
</g>
<g>
</g>
<g>
</g>
<g>
</g>
<g>
</g>
<g>
</g>
<g>
</g>
<g>
</g>
<g>
</g>
<g>
</g>
</svg>
