<?xml version="1.0" encoding="iso-8859-1"?>
<!-- Generator: Adobe Illustrator 19.0.0, SVG Export Plug-In . SVG Version: 6.00 Build 0)  -->
<svg xmlns="http://www.w3.org/2000/svg" xmlns:xlink="http://www.w3.org/1999/xlink" version="1.1" id="Layer_1" x="0px" y="0px" viewBox="0 0 508 508" style="enable-background:new 0 0 508 508;" xml:space="preserve">
<circle style="fill:#324A5E;" cx="254" cy="254" r="254"/>
<path style="fill:#4CDBC4;" d="M383.2,408.2H124.8c-0.6,0-1-0.5-1-1V99.7c0-0.6,0.5-1,1-1h258.3c0.6,0,1,0.5,1,1v307.4  C384.2,407.7,383.7,408.2,383.2,408.2z"/>
<polygon style="fill:#FFFFFF;" points="143.2,109.4 143.2,339.5 334.8,339.5 334.8,309.4 364.9,309.4 364.9,109.4 "/>
<polygon style="fill:#E6E9EE;" points="334.8,339.5 364.9,309.4 334.8,309.4 "/>
<rect x="273.4" y="167.4" style="fill:#4CDBC4;" width="13.7" height="28.6"/>
<rect x="295.3" y="155.6" style="fill:#FFD05B;" width="13.7" height="40.4"/>
<rect x="317.2" y="141.3" style="fill:#FF7058;" width="13.7" height="54.7"/>
<g>
	<rect x="339.1" y="161.4" style="fill:#E6E9EE;" width="13.7" height="34.6"/>
	<rect x="151.3" y="142.7" style="fill:#E6E9EE;" width="113.9" height="6"/>
	<rect x="151.3" y="158.4" style="fill:#E6E9EE;" width="113.9" height="6"/>
	<rect x="151.3" y="174.1" style="fill:#E6E9EE;" width="113.9" height="6"/>
	<rect x="151.3" y="189.9" style="fill:#E6E9EE;" width="113.9" height="6"/>
	<rect x="151.8" y="205.6" style="fill:#E6E9EE;" width="201" height="6"/>
	<rect x="151.8" y="221.3" style="fill:#E6E9EE;" width="201" height="6"/>
	<rect x="151.8" y="237" style="fill:#E6E9EE;" width="201" height="6"/>
</g>
<path style="fill:#FFD05B;" d="M200.1,291.3l16-29c-4.7-2.6-10.2-4.1-16-4.1c-18.3,0-33.1,14.8-33.1,33.1  c0,18.3,14.8,33.1,33.1,33.1s33.1-14.8,33.1-33.1c0-2.8-0.4-5.6-1.1-8.2L200.1,291.3z"/>
<g>
	<path style="fill:#FF7058;" d="M232.2,283.1c-2.3-9-8.2-16.5-16.1-20.9l-16,29L232.2,283.1z"/>
	<path style="fill:#FF7058;" d="M303.7,119.7h-99.4c-0.8,0-1.5-0.7-1.5-1.5V85.9c0-0.8,0.7-1.5,1.5-1.5h99.4c0.8,0,1.5,0.7,1.5,1.5   v32.4C305.1,119.1,304.5,119.7,303.7,119.7z"/>
	<ellipse style="fill:#FF7058;" cx="254" cy="84.3" rx="26.3" ry="17.5"/>
</g>
<g>
</g>
<g>
</g>
<g>
</g>
<g>
</g>
<g>
</g>
<g>
</g>
<g>
</g>
<g>
</g>
<g>
</g>
<g>
</g>
<g>
</g>
<g>
</g>
<g>
</g>
<g>
</g>
<g>
</g>
</svg>
