<?xml version="1.0" encoding="iso-8859-1"?>
<!-- Generator: Adobe Illustrator 19.0.0, SVG Export Plug-In . SVG Version: 6.00 Build 0)  -->
<svg xmlns="http://www.w3.org/2000/svg" xmlns:xlink="http://www.w3.org/1999/xlink" version="1.1" id="Layer_1" x="0px" y="0px" viewBox="0 0 508 508" style="enable-background:new 0 0 508 508;" xml:space="preserve">
<circle style="fill:#54C0EB;" cx="254" cy="254" r="254"/>
<path style="fill:#FFFFFF;" d="M254,75.4c-98.5,0-178.6,80.1-178.6,178.6S155.5,432.6,254,432.6S432.6,352.5,432.6,254  S352.5,75.4,254,75.4z M256.7,200.2h6.7c1.5,0,2.7-1.2,2.7-2.7s-1.2-2.7-2.7-2.7h-6.7v-22.1h8.4c1.5,0,2.7-1.2,2.7-2.7  s-1.2-2.7-2.7-2.7h-8.4v-22.1h10.9c1.5,0,2.7-1.2,2.7-2.7s-1.2-2.7-2.7-2.7h-10.9v-22.1h14.8c1.5,0,2.7-1.2,2.7-2.7  s-1.2-2.7-2.7-2.7h-14.8V85.5c43.6,0.7,83.2,18,112.8,45.9L344.9,156c-2,2-2,5.1,0,7.1c1,1,2.3,1.5,3.5,1.5c1.3,0,2.6-0.5,3.5-1.5  l24.6-24.6c27.9,29.6,45.2,69.2,45.9,112.8h-26.9v-14.8c0-1.5-1.2-2.7-2.7-2.7s-2.7,1.2-2.7,2.7v14.8H368v-10.9  c0-1.5-1.2-2.7-2.7-2.7s-2.7,1.2-2.7,2.7v10.9h-22.1v-8.4c0-1.5-1.2-2.7-2.7-2.7s-2.7,1.2-2.7,2.7v8.4H313v-6.7  c0-1.5-1.2-2.7-2.7-2.7s-2.7,1.2-2.7,2.7v6.7h-23c-1.3-15-13.2-26.9-28.2-28.2v-22.9H256.7z M131.4,138.5l24.6,24.6  c1,1,2.3,1.5,3.5,1.5c1.3,0,2.6-0.5,3.5-1.5c2-2,2-5.1,0-7.1l-24.6-24.6c29.6-27.9,69.2-45.2,112.8-45.9v26.9h-14.8  c-1.5,0-2.7,1.2-2.7,2.7s1.2,2.7,2.7,2.7h14.8v22.1h-10.9c-1.5,0-2.7,1.2-2.7,2.7s1.2,2.7,2.7,2.7h10.9v22.1h-8.4  c-1.5,0-2.7,1.2-2.7,2.7s1.2,2.7,2.7,2.7h8.4v22.1h-6.7c-1.5,0-2.7,1.2-2.7,2.7s1.2,2.7,2.7,2.7h6.7v23c-15,1.3-26.9,13.2-28.2,28.2  h-23v-6.7c0-1.5-1.2-2.7-2.7-2.7s-2.7,1.2-2.7,2.7v6.7h-22.1v-8.4c0-1.5-1.2-2.7-2.7-2.7s-2.7,1.2-2.7,2.7v8.4H145v-10.9  c0-1.5-1.2-2.7-2.7-2.7s-2.7,1.2-2.7,2.7v10.9h-22.1v-14.8c0-1.5-1.2-2.7-2.7-2.7s-2.7,1.2-2.7,2.7v14.8H85.5  C86.2,207.7,103.5,168.1,131.4,138.5z M251.3,307.8h-6.7c-1.5,0-2.7,1.2-2.7,2.7s1.2,2.7,2.7,2.7h6.7v22.1h-8.4  c-1.5,0-2.7,1.2-2.7,2.7s1.2,2.7,2.7,2.7h8.4v22.1h-10.9c-1.5,0-2.7,1.2-2.7,2.7s1.2,2.7,2.7,2.7h10.9v22.1h-14.8  c-1.5,0-2.7,1.2-2.7,2.7s1.2,2.7,2.7,2.7h14.8v26.9c-43.6-0.7-83.2-18-112.8-45.9l24.6-24.6c2-2,2-5.1,0-7.1s-5.1-2-7.1,0  l-24.6,24.6c-27.9-29.6-45.2-69.2-45.9-112.8h26.9v14.8c0,1.5,1.2,2.7,2.7,2.7s2.7-1.2,2.7-2.7v-14.8h22.1v10.9  c0,1.5,1.2,2.7,2.7,2.7s2.7-1.2,2.7-2.7v-10.9h22.1v8.4c0,1.5,1.2,2.7,2.7,2.7s2.7-1.2,2.7-2.7v-8.4h22.1v6.7c0,1.5,1.2,2.7,2.7,2.7  s2.7-1.2,2.7-2.7v-6.7h23c1.3,15,13.2,26.9,28.2,28.2v22.8H251.3z M254,280.1c-0.5,0-0.9,0.2-1.3,0.4c-13.6-0.7-24.5-11.6-25.2-25.2  c0.2-0.4,0.4-0.8,0.4-1.3c0-0.5-0.2-0.9-0.4-1.3c0.7-13.6,11.6-24.5,25.2-25.2c0.4,0.2,0.8,0.4,1.3,0.4s0.9-0.2,1.3-0.4  c13.6,0.7,24.5,11.6,25.2,25.2c-0.2,0.4-0.4,0.8-0.4,1.3c0,0.5,0.2,0.9,0.4,1.3c-0.7,13.6-11.6,24.5-25.2,25.2  C254.9,280.3,254.5,280.1,254,280.1z M376.6,369.5L352,344.9c-2-2-5.1-2-7.1,0s-2,5.1,0,7.1l24.6,24.6  c-29.6,27.9-69.2,45.2-112.8,45.9v-26.9h14.8c1.5,0,2.7-1.2,2.7-2.7s-1.2-2.7-2.7-2.7h-14.8v-22.1h10.9c1.5,0,2.7-1.2,2.7-2.7  s-1.2-2.7-2.7-2.7h-10.9v-22.1h8.4c1.5,0,2.7-1.2,2.7-2.7s-1.2-2.7-2.7-2.7h-8.4v-22.1h6.7c1.5,0,2.7-1.2,2.7-2.7s-1.2-2.7-2.7-2.7  h-6.7v-23c15-1.3,26.9-13.2,28.2-28.2h23v6.7c0,1.5,1.2,2.7,2.7,2.7s2.7-1.2,2.7-2.7v-6.7h22.1v8.4c0,1.5,1.2,2.7,2.7,2.7  s2.7-1.2,2.7-2.7v-8.4h22.1v10.9c0,1.5,1.2,2.7,2.7,2.7s2.7-1.2,2.7-2.7v-10.9h22.1v14.8c0,1.5,1.2,2.7,2.7,2.7s2.7-1.2,2.7-2.7  v-14.8h26.9C421.8,300.3,404.5,339.9,376.6,369.5z"/>
<g>
</g>
<g>
</g>
<g>
</g>
<g>
</g>
<g>
</g>
<g>
</g>
<g>
</g>
<g>
</g>
<g>
</g>
<g>
</g>
<g>
</g>
<g>
</g>
<g>
</g>
<g>
</g>
<g>
</g>
</svg>
