<?xml version="1.0" encoding="iso-8859-1"?>
<!-- Generator: Adobe Illustrator 19.0.0, SVG Export Plug-In . SVG Version: 6.00 Build 0)  -->
<svg xmlns="http://www.w3.org/2000/svg" xmlns:xlink="http://www.w3.org/1999/xlink" version="1.1" id="Layer_1" x="0px" y="0px" viewBox="0 0 508 508" style="enable-background:new 0 0 508 508;" xml:space="preserve">
<circle style="fill:#FFD05B;" cx="254" cy="254" r="254"/>
<path style="fill:#FFFFFF;" d="M406.2,126.4H93.8c-5.9,0-10.6,4.8-10.6,10.6v227.8c0,5.9,4.8,10.6,10.6,10.6h312.4  c5.9,0,10.6-4.8,10.6-10.6V137.1C416.9,131.2,412.1,126.4,406.2,126.4z"/>
<path style="fill:#324A5E;" d="M406.2,126.4H93.8c-5.9,0-10.6,4.8-10.6,10.6v25.6h333.7V137C416.9,131.2,412.1,126.4,406.2,126.4z"/>
<circle style="fill:#FFD05B;" cx="104.8" cy="144.5" r="8.4"/>
<circle style="fill:#FF7058;" cx="127.9" cy="144.5" r="8.4"/>
<circle style="fill:#4CDBC4;" cx="150.9" cy="144.5" r="8.4"/>
<path style="fill:#FFFFFF;" d="M364,154H180.3c-0.5,0-0.9-0.4-0.9-0.9V136c0-0.5,0.4-0.9,0.9-0.9H364c0.5,0,0.9,0.4,0.9,0.9v17.1  C364.9,153.6,364.5,154,364,154z"/>
<g>
	<path style="fill:#ACB3BA;" d="M190.5,148.5h-2.1l-2.5-7.4h2.1l1.4,4.5l1.4-4.5h2l1.4,4.5l1.4-4.5h2.1l-2.5,7.4h-2.1l-1.4-4   L190.5,148.5z"/>
	<path style="fill:#ACB3BA;" d="M202.9,148.5h-2.1l-2.5-7.4h2.1l1.4,4.5l1.4-4.5h2l1.4,4.5l1.4-4.5h2.1l-2.5,7.4h-2.1l-1.4-4   L202.9,148.5z"/>
	<path style="fill:#ACB3BA;" d="M215.3,148.5h-2.1l-2.5-7.4h2.1l1.4,4.5l1.4-4.5h2l1.4,4.5l1.4-4.5h2.1l-2.5,7.4h-2l-1.4-4   L215.3,148.5z"/>
</g>
<g>
	<rect x="154.8" y="193.8" style="fill:#E6E9EE;" width="90" height="65.2"/>
	<rect x="154.8" y="272.1" style="fill:#E6E9EE;" width="90" height="9.8"/>
	<rect x="154.8" y="289.7" style="fill:#E6E9EE;" width="90" height="9.8"/>
	<rect x="154.8" y="307.3" style="fill:#E6E9EE;" width="90" height="9.8"/>
	<rect x="154.8" y="325" style="fill:#E6E9EE;" width="90" height="9.8"/>
	<rect x="255.3" y="269.5" style="fill:#E6E9EE;" width="90" height="65.2"/>
	<rect x="255.3" y="246.7" style="fill:#E6E9EE;" width="90" height="9.8"/>
	<rect x="255.3" y="229.1" style="fill:#E6E9EE;" width="90" height="9.8"/>
	<rect x="255.3" y="211.5" style="fill:#E6E9EE;" width="90" height="9.8"/>
	<rect x="255.3" y="193.8" style="fill:#E6E9EE;" width="90" height="9.8"/>
</g>
<circle style="fill:#FF7058;" cx="367.3" cy="322.8" r="82.6"/>
<circle style="fill:#FFFFFF;" cx="367.3" cy="322.8" r="63.5"/>
<path style="fill:#2B3B4E;" d="M390.6,347.9c-0.5,0-0.9-0.2-1.3-0.5L366,324.1c-0.3-0.3-0.5-0.8-0.5-1.3v-28.3c0-1,0.8-1.8,1.8-1.8  s1.8,0.8,1.8,1.8V322l22.8,22.8c0.7,0.7,0.7,1.9,0,2.6C391.5,347.7,391.1,347.9,390.6,347.9z"/>
<circle style="fill:#84DBFF;" cx="367.3" cy="322.8" r="7"/>
<g>
	<rect x="365.6" y="266.1" style="fill:#324A5E;" width="3.5" height="5.5"/>
	<rect x="365.6" y="373.9" style="fill:#324A5E;" width="3.5" height="5.5"/>
	
		<rect x="338.587" y="273.308" transform="matrix(-0.8661 0.4999 -0.4999 -0.8661 773.0972 345.0172)" style="fill:#324A5E;" width="3.5" height="5.5"/>
	
		<rect x="392.488" y="366.691" transform="matrix(-0.866 0.5 -0.5 -0.866 920.3791 492.2603)" style="fill:#324A5E;" width="3.5" height="5.5"/>
	
		<rect x="318.921" y="293.048" transform="matrix(-0.4999 0.8661 -0.8661 -0.4999 737.1585 165.9366)" style="fill:#324A5E;" width="3.5" height="5.5"/>
	
		<rect x="412.291" y="346.936" transform="matrix(-0.5 0.866 -0.866 -0.5 923.8998 165.9654)" style="fill:#324A5E;" width="3.5" height="5.5"/>
	<rect x="310.7" y="321" style="fill:#324A5E;" width="5.5" height="3.5"/>
	<rect x="418.5" y="321" style="fill:#324A5E;" width="5.5" height="3.5"/>
	
		<rect x="318.886" y="346.898" transform="matrix(0.5 0.866 -0.866 0.5 463.1386 -102.8494)" style="fill:#324A5E;" width="3.5" height="5.5"/>
	
		<rect x="412.211" y="292.976" transform="matrix(0.5001 0.866 -0.866 0.5001 463.0366 -210.6431)" style="fill:#324A5E;" width="3.5" height="5.5"/>
	
		<rect x="338.61" y="366.709" transform="matrix(0.866 0.5 -0.5 0.866 230.3354 -120.6832)" style="fill:#324A5E;" width="3.5" height="5.5"/>
	
		<rect x="392.503" y="273.374" transform="matrix(0.866 0.5 -0.5 0.866 190.8872 -160.1353)" style="fill:#324A5E;" width="3.5" height="5.5"/>
</g>
<g>
</g>
<g>
</g>
<g>
</g>
<g>
</g>
<g>
</g>
<g>
</g>
<g>
</g>
<g>
</g>
<g>
</g>
<g>
</g>
<g>
</g>
<g>
</g>
<g>
</g>
<g>
</g>
<g>
</g>
</svg>
