<?xml version="1.0" encoding="iso-8859-1"?>
<!-- Generator: Adobe Illustrator 19.0.0, SVG Export Plug-In . SVG Version: 6.00 Build 0)  -->
<svg xmlns="http://www.w3.org/2000/svg" xmlns:xlink="http://www.w3.org/1999/xlink" version="1.1" id="Layer_1" x="0px" y="0px" viewBox="0 0 508 508" style="enable-background:new 0 0 508 508;" xml:space="preserve">
<circle style="fill:#84DBFF;" cx="254" cy="254" r="254"/>
<path style="fill:#324A5E;" d="M414.3,291.8l1.3-34.2l-21.6-3.9c-1.2-11.2-3.7-22-7.4-32.2l17.7-12.9l-16-30.2l-20.7,7.4  c-6.5-8.9-14.1-17.1-22.5-24.2l8.9-20.1l-29-18.1l-14.2,16.7c-11.5-5-23.7-8.7-36.6-10.5l-3.1-21.7h-34.2l-3.1,21.7  c-11.2,1.6-21.8,4.5-31.9,8.5l-13.5-17.3L158.7,138l8.2,20.4c-8.7,6.9-16.5,14.7-23.3,23.4l-20.4-8.2L106,203.2l17.3,13.6  c-3.5,8.6-6,17.6-7.7,26.9L93.7,246l-1.2,34.2l21.6,3.9c1.2,11.2,3.7,21.9,7.4,32.2l-17.7,12.9l16,30.2l20.6-7.4  c6.5,8.9,14.1,17,22.5,24.2l-8.9,20.1l29,18.1l14.2-16.7c10.1,4.5,20.8,7.8,31.9,9.8c1.5,0.3,3.1,0.6,4.7,0.8l3.1,21.7h34.2  l3.1-21.7c1.6-0.2,3.1-0.5,4.7-0.8c9.4-1.7,18.5-4.3,27.2-7.8l13.6,17.2l29.6-17.1l-8.2-20.4c8.7-6.9,16.6-14.7,23.4-23.4l20.4,8.2  l17.1-29.6l-17.3-13.5c3.4-8.6,6-17.6,7.7-26.9L414.3,291.8z M266.7,376c-4.2,0.5-8.4,0.8-12.7,0.8c-4.3,0-8.6-0.2-12.7-0.8  c-53.5-6.3-95.1-51.9-95.1-107.1c0-59.6,48.3-107.9,107.9-107.9S362,209.3,362,268.9C361.9,324.2,320.3,369.7,266.7,376z"/>
<path style="fill:#FFFFFF;" d="M334.5,82.6h-161c-11.5,0-20.8,9.3-20.8,20.8v118.7c0,11.5,9.3,20.8,20.8,20.8h45.3l35.2,35.2  l35.2-35.2h45.3c11.5,0,20.8-9.3,20.8-20.8V103.4C355.4,91.9,346,82.6,334.5,82.6z"/>
<g>
	<path style="fill:#FF7058;" d="M268.2,133.2c0,26.5-6.4,64.7-14.2,64.7c-7.8,0-14.2-38.2-14.2-64.7S246.2,102,254,102   C261.8,102,268.2,106.7,268.2,133.2z"/>
	<circle style="fill:#FF7058;" cx="254" cy="215.3" r="9.4"/>
</g>
<g>
</g>
<g>
</g>
<g>
</g>
<g>
</g>
<g>
</g>
<g>
</g>
<g>
</g>
<g>
</g>
<g>
</g>
<g>
</g>
<g>
</g>
<g>
</g>
<g>
</g>
<g>
</g>
<g>
</g>
</svg>
