<?xml version="1.0" encoding="iso-8859-1"?>
<!-- Generator: Adobe Illustrator 19.0.0, SVG Export Plug-In . SVG Version: 6.00 Build 0)  -->
<svg xmlns="http://www.w3.org/2000/svg" xmlns:xlink="http://www.w3.org/1999/xlink" version="1.1" id="Layer_1" x="0px" y="0px" viewBox="0 0 508 508" style="enable-background:new 0 0 508 508;" xml:space="preserve">
<circle style="fill:#FD8469;" cx="254" cy="254" r="254"/>
<g>
	<path style="fill:#FFFFFF;" d="M268.7,172.7l0.6-17.3l-10.9-2c-0.6-5.7-1.9-11.1-3.8-16.3l9-6.5l-8.1-15.3L245,119   c-3.3-4.5-7.1-8.7-11.4-12.3l4.5-10.2l-14.7-9.2l-7.2,8.5c-5.8-2.6-12-4.4-18.6-5.3l-1.6-11h-17.3l-1.6,11   c-5.7,0.8-11.1,2.3-16.2,4.3L154,86l-15,8.7l4.1,10.3c-4.4,3.5-8.4,7.4-11.8,11.9l-10.3-4.1l-8.7,15l8.8,6.9   c-1.8,4.3-3.1,8.9-3.9,13.6l-11.1,1.2l-0.6,17.3l10.9,2c0.6,5.7,1.9,11.1,3.7,16.3l-9,6.6l8.1,15.3l10.5-3.8   c3.3,4.5,7.1,8.6,11.4,12.3l-4.5,10.2l14.7,9.2l7.2-8.5c5.1,2.3,10.5,3.9,16.2,5c0.8,0.2,1.6,0.3,2.4,0.4l1.6,11H196l1.6-11   c0.8-0.1,1.6-0.2,2.4-0.4c4.8-0.8,9.4-2.2,13.8-3.9l6.9,8.7l15-8.7l-4.1-10.3c4.4-3.5,8.4-7.5,11.9-11.9l10.3,4.1l8.7-15l-8.8-6.9   c1.7-4.4,3.1-8.9,3.9-13.7L268.7,172.7z M193.9,215.4c-2.1,0.3-4.3,0.4-6.5,0.4s-4.3-0.1-6.5-0.4c-27.1-3.2-48.2-26.3-48.2-54.3   c0-30.2,24.5-54.7,54.7-54.7s54.7,24.5,54.7,54.7C242.1,189.1,221.1,212.2,193.9,215.4z"/>
	<path style="fill:#FFFFFF;" d="M402,164.2l0.5-12.3l-7.8-1.4c-0.4-4-1.3-7.9-2.7-11.6l6.4-4.6l-5.8-10.9l-7.5,2.7   c-2.3-3.2-5.1-6.1-8.1-8.7l3.2-7.2l-10.4-6.5l-5.1,6c-4.1-1.8-8.6-3.1-13.2-3.8l-1.1-7.8h-12.3l-1.1,7.8c-4,0.6-7.9,1.6-11.5,3.1   l-4.9-6.2l-10.7,6.2l2.9,7.3c-3.1,2.5-5.9,5.3-8.4,8.4l-7.4-2.9l-6.2,10.7l6.2,4.9c-1.2,3.1-2.2,6.3-2.8,9.7l-7.9,0.9l-0.3,12   l7.8,1.4c0.4,4,1.3,7.9,2.7,11.6l-6.4,4.7l5.8,10.9l7.4-2.7c2.3,3.2,5.1,6.1,8.1,8.7l-3.2,7.2l10.4,6.5l5.1-6   c3.6,1.6,7.5,2.8,11.5,3.5c0.6,0.1,1.1,0.2,1.7,0.3l1.1,7.8h12.3l1.1-7.8c0.6-0.1,1.1-0.2,1.7-0.3c3.4-0.6,6.7-1.5,9.8-2.8l4.9,6.2   l10.7-6.1l-2.9-7.4c3.1-2.5,6-5.3,8.4-8.4l7.4,2.9l6.2-10.7l-6.2-4.9c1.2-3.1,2.2-6.3,2.8-9.7L402,164.2z M348.8,194.5   c-1.5,0.2-3,0.3-4.6,0.3s-3.1-0.1-4.6-0.3c-19.3-2.3-34.3-18.7-34.3-38.6c0-21.5,17.4-38.9,38.9-38.9s38.9,17.4,38.9,38.9   C383.1,175.9,368.1,192.3,348.8,194.5z"/>
</g>
<rect x="351.3" y="249.7" style="fill:#FFD05B;" width="35.8" height="178.8"/>
<rect x="351.3" y="247.4" style="fill:#324A5E;" width="35.8" height="25.6"/>
<rect x="293.6" y="315.8" style="fill:#FFD05B;" width="35.8" height="112.7"/>
<rect x="293.6" y="313.5" style="fill:#324A5E;" width="35.8" height="25.6"/>
<rect x="235.9" y="281.3" style="fill:#FFD05B;" width="35.8" height="147.2"/>
<rect x="235.9" y="281.3" style="fill:#324A5E;" width="35.8" height="25.6"/>
<rect x="178.2" y="337.4" style="fill:#FFD05B;" width="35.8" height="91.1"/>
<rect x="178.2" y="337.4" style="fill:#324A5E;" width="35.8" height="25.6"/>
<rect x="120.5" y="298.5" style="fill:#FFD05B;" width="35.8" height="130"/>
<rect x="120.5" y="298.5" style="fill:#324A5E;" width="35.8" height="25.6"/>
<g>
</g>
<g>
</g>
<g>
</g>
<g>
</g>
<g>
</g>
<g>
</g>
<g>
</g>
<g>
</g>
<g>
</g>
<g>
</g>
<g>
</g>
<g>
</g>
<g>
</g>
<g>
</g>
<g>
</g>
</svg>
