<?xml version="1.0" encoding="iso-8859-1"?>
<!-- Generator: Adobe Illustrator 19.0.0, SVG Export Plug-In . SVG Version: 6.00 Build 0)  -->
<svg xmlns="http://www.w3.org/2000/svg" xmlns:xlink="http://www.w3.org/1999/xlink" version="1.1" id="Layer_1" x="0px" y="0px" viewBox="0 0 508 508" style="enable-background:new 0 0 508 508;" xml:space="preserve">
<circle style="fill:#324A5E;" cx="254" cy="254" r="254"/>
<polygon style="fill:#FF7058;" points="176.2,281.2 98.4,254 98.4,145.3 176.2,172.5 "/>
<polygon style="fill:#ACB3BA;" points="176.2,389.2 98.4,362 98.4,253.3 176.2,280.5 "/>
<g>
	<path style="fill:#324A5E;" d="M176.2,287.1c-0.7,0-1.3-0.1-2-0.3l-77.8-27.2c-2.4-0.8-4-3.1-4-5.6V145.3c0-1.9,0.9-3.7,2.5-4.9   c1.6-1.1,3.6-1.4,5.4-0.8l77.8,27.2c2.4,0.8,4,3.1,4,5.6v108.7c0,1.9-0.9,3.7-2.5,4.9C178.6,286.7,177.4,287.1,176.2,287.1z    M104.3,249.8l65.9,23v-96l-65.9-23C104.3,153.8,104.3,249.8,104.3,249.8z"/>
	<path style="fill:#324A5E;" d="M176.2,395.8c-0.7,0-1.3-0.1-2-0.3l-77.8-27.2c-2.4-0.8-4-3.1-4-5.6V254c0-1.9,0.9-3.7,2.5-4.9   c1.6-1.1,3.6-1.4,5.4-0.8l77.8,27.2c2.4,0.8,4,3.1,4,5.6v108.7c0,1.9-0.9,3.7-2.5,4.9C178.6,395.4,177.4,395.8,176.2,395.8z    M104.3,358.4l65.9,23v-96l-65.9-23C104.3,262.4,104.3,358.4,104.3,358.4z"/>
</g>
<polygon style="fill:#FFFFFF;" points="254,308.3 176.2,281.2 176.2,172.5 254,199.7 "/>
<path style="fill:#324A5E;" d="M254,314.3c-0.7,0-1.3-0.1-2-0.3l-77.8-27.2c-2.4-0.8-4-3.1-4-5.6V172.5c0-1.9,0.9-3.7,2.5-4.9  c1.6-1.1,3.6-1.4,5.4-0.8l77.8,27.2c2.4,0.8,4,3.1,4,5.6v108.7c0,1.9-0.9,3.7-2.5,4.9C256.4,313.9,255.2,314.3,254,314.3z   M182.1,276.9l65.9,23v-96l-65.9-23V276.9z"/>
<polygon style="fill:#FFD05B;" points="254,417 176.2,389.8 176.2,281.2 254,308.3 "/>
<path style="fill:#324A5E;" d="M254,422.9c-0.7,0-1.3-0.1-2-0.3l-77.8-27.2c-2.4-0.8-4-3.1-4-5.6V281.2c0-1.9,0.9-3.7,2.5-4.9  c1.6-1.1,3.6-1.4,5.4-0.8l77.8,27.2c2.4,0.8,4,3.1,4,5.6V417c0,1.9-0.9,3.7-2.5,4.9C256.4,422.6,255.2,422.9,254,422.9z   M182.1,385.6l65.9,23v-96l-65.9-23V385.6z"/>
<polygon style="fill:#FFFFFF;" points="331.8,281.2 409.6,254 409.6,145.3 331.8,172.5 "/>
<path style="fill:#324A5E;" d="M331.8,287.1c-1.2,0-2.4-0.4-3.4-1.1c-1.6-1.1-2.5-2.9-2.5-4.9V172.5c0-2.5,1.6-4.8,4-5.6l77.8-27.2  c1.8-0.6,3.8-0.3,5.4,0.8s2.5,2.9,2.5,4.9V254c0,2.5-1.6,4.8-4,5.6l-77.8,27.2C333.1,287,332.5,287.1,331.8,287.1z M337.8,176.7v96  l65.9-23v-96L337.8,176.7z"/>
<polygon style="fill:#FF7058;" points="331.8,389.8 409.6,362.7 409.6,254 331.8,281.2 "/>
<path style="fill:#324A5E;" d="M331.8,395.8c-1.2,0-2.4-0.4-3.4-1.1c-1.6-1.1-2.5-2.9-2.5-4.9V281.2c0-2.5,1.6-4.8,4-5.6l77.8-27.2  c1.8-0.6,3.8-0.4,5.4,0.8c1.6,1.1,2.5,2.9,2.5,4.9v108.7c0,2.5-1.6,4.8-4,5.6l-77.8,27.2C333.1,395.7,332.5,395.8,331.8,395.8z   M337.8,285.4v96l65.9-23v-96L337.8,285.4z"/>
<polygon style="fill:#ACB3BA;" points="254,308.3 331.8,281.2 331.8,172.5 254,199.7 "/>
<path style="fill:#324A5E;" d="M254,314.3c-1.2,0-2.4-0.4-3.4-1.1c-1.6-1.1-2.5-2.9-2.5-4.9V199.7c0-2.5,1.6-4.8,4-5.6l77.8-27.2  c1.8-0.6,3.8-0.3,5.4,0.8s2.5,2.9,2.5,4.9v108.7c0,2.5-1.6,4.8-4,5.6l-77.8,27C255.3,314.2,254.7,314.3,254,314.3z M260,203.9v96  l65.9-23v-96L260,203.9z"/>
<polygon style="fill:#84DBFF;" points="254,417 331.8,389.8 331.8,281.2 254,308.3 "/>
<path style="fill:#324A5E;" d="M254,422.9c-1.2,0-2.4-0.4-3.4-1.1c-1.6-1.1-2.5-2.9-2.5-4.9V308.3c0-2.5,1.6-4.8,4-5.6l77.8-27.2  c1.8-0.6,3.8-0.3,5.4,0.8c1.6,1.1,2.5,2.9,2.5,4.9v108.7c0,2.5-1.6,4.8-4,5.6L256,422.6C255.3,422.8,254.7,422.9,254,422.9z   M260,312.6v96l65.9-23v-96L260,312.6z"/>
<polygon style="fill:#4CDBC4;" points="254,145.3 176.2,172.5 254,199.7 331.8,172.5 "/>
<polygon style="fill:#FFD05B;" points="331.8,118.1 254,145.3 331.8,172.5 409.6,145.3 "/>
<path style="fill:#324A5E;" d="M254,205.6c-0.7,0-1.3-0.1-2-0.3l-77.8-27.2c-2.4-0.8-4-3.1-4-5.6s1.6-4.8,4-5.6l77.8-27.2  c1.3-0.4,2.7-0.4,3.9,0l77.8,27.2c2.4,0.8,4,3.1,4,5.6s-1.6,4.8-4,5.6L256,205.3C255.3,205.5,254.7,205.6,254,205.6z M194.2,172.5  l59.8,20.9l59.8-20.9L254,151.7L194.2,172.5z"/>
<polygon style="fill:#FFFFFF;" points="254,91 176.2,118.2 254,145.3 331.8,118.2 "/>
<path style="fill:#324A5E;" d="M254,151.3c-0.7,0-1.3-0.1-2-0.3l-77.8-27.2c-2.4-0.8-4-3.1-4-5.6s1.6-4.8,4-5.6L252,85.4  c1.3-0.4,2.7-0.4,3.9,0l77.8,27.2c2.4,0.8,4,3.1,4,5.6s-1.6,4.8-4,5.6L256,151C255.3,151.2,254.7,151.3,254,151.3z M194.2,118.2  L254,139l59.8-20.9L254,97.3L194.2,118.2z"/>
<polygon style="fill:#ACB3BA;" points="176.2,118.2 98.4,145.3 176.2,172.5 254,145.3 "/>
<g>
	<path style="fill:#324A5E;" d="M176.2,178.5c-0.7,0-1.3-0.1-2-0.3L96.4,151c-2.4-0.8-4-3.1-4-5.6s1.6-4.8,4-5.6l77.8-27.2   c1.3-0.4,2.7-0.4,3.9,0l77.8,27.2c2.4,0.8,4,3.1,4,5.6s-1.6,4.8-4,5.6l-77.8,27.2C177.5,178.4,176.8,178.5,176.2,178.5z    M116.4,145.3l59.8,20.9l59.8-20.9l-59.8-20.9L116.4,145.3z"/>
	<path style="fill:#324A5E;" d="M331.8,178.5c-0.7,0-1.3-0.1-2-0.3L252,151c-2.4-0.8-4-3.1-4-5.6s1.6-4.8,4-5.6l77.8-27.2   c1.3-0.4,2.7-0.4,3.9,0l77.8,27.2c2.4,0.8,4,3.1,4,5.6s-1.6,4.8-4,5.6l-77.8,27.2C333.2,178.4,332.5,178.5,331.8,178.5z    M272.1,145.3l59.8,20.9l59.8-20.9l-59.8-20.9L272.1,145.3z"/>
</g>
<g>
</g>
<g>
</g>
<g>
</g>
<g>
</g>
<g>
</g>
<g>
</g>
<g>
</g>
<g>
</g>
<g>
</g>
<g>
</g>
<g>
</g>
<g>
</g>
<g>
</g>
<g>
</g>
<g>
</g>
</svg>
