<?xml version="1.0" encoding="iso-8859-1"?>
<!-- Generator: Adobe Illustrator 19.0.0, SVG Export Plug-In . SVG Version: 6.00 Build 0)  -->
<svg xmlns="http://www.w3.org/2000/svg" xmlns:xlink="http://www.w3.org/1999/xlink" version="1.1" id="Layer_1" x="0px" y="0px" viewBox="0 0 508 508" style="enable-background:new 0 0 508 508;" xml:space="preserve">
<circle style="fill:#54C0EB;" cx="254" cy="254" r="254"/>
<path style="fill:#FFFFFF;" d="M384.4,90.8H123.6c-4.7,0-8.5,3.8-8.5,8.5v309.3c0,4.7,3.8,8.5,8.5,8.5h260.8c4.7,0,8.5-3.8,8.5-8.5  V99.3C392.9,94.6,389.1,90.8,384.4,90.8z"/>
<g>
	<rect x="135.9" y="127.6" style="fill:#E6E9EE;" width="136.9" height="14"/>
	<rect x="135.9" y="162.7" style="fill:#E6E9EE;" width="78.2" height="14"/>
	<rect x="135.9" y="197.8" style="fill:#E6E9EE;" width="111.8" height="14"/>
	<rect x="135.9" y="232.8" style="fill:#E6E9EE;" width="170.8" height="14"/>
	<rect x="279.1" y="127.6" style="fill:#E6E9EE;" width="93" height="14"/>
	<rect x="220.5" y="162.7" style="fill:#E6E9EE;" width="151.6" height="14"/>
	<rect x="254" y="197.8" style="fill:#E6E9EE;" width="118.1" height="14"/>
	<rect x="313.1" y="232.8" style="fill:#E6E9EE;" width="59.1" height="14"/>
</g>
<path style="fill:#324A5E;" d="M307.5,322c-1.3-8.8-4.8-16.8-9.8-23.7l5.4-8.1l-9-9l-8.1,5.4c-6.8-5-14.9-8.4-23.7-9.8l-1.9-9.6  h-12.8l-1.9,9.6c-8.7,1.3-16.8,4.8-23.7,9.8l-8.1-5.4l-9,9l5.4,8.1c-5,6.9-8.5,14.9-9.8,23.7l-9.5,1.9v12.8l9.5,1.9  c1.3,8.8,4.8,16.8,9.8,23.7l-5.4,8.1l9,9l8.1-5.4c6.8,5,14.9,8.5,23.7,9.8l1.9,9.6h12.8l1.9-9.6c8.7-1.3,16.8-4.8,23.7-9.8l8.1,5.4  l9-9l-5.4-8.1c5-6.8,8.5-14.9,9.8-23.7l9.5-1.9v-12.8L307.5,322z M254,364.9c-19.1,0-34.6-15.5-34.6-34.6s15.5-34.6,34.6-34.6  c19.2,0,34.6,15.5,34.6,34.6S273.1,364.9,254,364.9z"/>
<g>
</g>
<g>
</g>
<g>
</g>
<g>
</g>
<g>
</g>
<g>
</g>
<g>
</g>
<g>
</g>
<g>
</g>
<g>
</g>
<g>
</g>
<g>
</g>
<g>
</g>
<g>
</g>
<g>
</g>
</svg>
