<?xml version="1.0" encoding="iso-8859-1"?>
<!-- Generator: Adobe Illustrator 19.0.0, SVG Export Plug-In . SVG Version: 6.00 Build 0)  -->
<svg version="1.1" id="Layer_1" xmlns="http://www.w3.org/2000/svg" xmlns:xlink="http://www.w3.org/1999/xlink" x="0px" y="0px"
	 viewBox="0 0 505 505" style="enable-background:new 0 0 505 505;" xml:space="preserve">
<circle style="fill:#FFD05B;" cx="252.5" cy="252.5" r="252.5"/>
<path style="fill:#E6E9EE;" d="M174.5,409h181.2v-65H174.5c-17.9,0-32.5,14.5-32.5,32.5l0,0C142,394.5,156.5,409,174.5,409z"/>
<path style="fill:#324A5E;" d="M317.6,335.9l48.4,7.8V106.1c0-8.7-7.1-15.8-15.8-15.8H168.8c-10.9,0-20.8,4.4-27.9,11.6
	c-7.1,7.1-11.6,17-11.6,27.9v245.5h9.9c0.2-13.1,7.4-25.9,23.7-30.4c30.9-8.6,62.4-5.6,94-4.7c17.4,0.5,34.6,2.2,52,2.5
	c2.7,0,5.7,0.2,8.7,0.4V335.9z"/>
<path style="fill:#FF7058;" d="M373.8,256.7h-86c-4.7,0-8.5-3.8-8.5-8.5v-49.8c0-4.7,3.8-8.5,8.5-8.5h86c1,0,1.8,0.8,1.8,1.8v63
	C375.7,255.9,374.8,256.7,373.8,256.7z"/>
<g>
	<circle style="fill:#FFFFFF;" cx="311" cy="223.3" r="15.3"/>
	<path style="fill:#FFFFFF;" d="M145.3,378.4c1.5,11.9,12.3,20.6,24.3,20.6h188.6c4.4,0,7.9,3.5,7.9,7.9l0,0c0,4.4-3.5,7.9-7.9,7.9
		H170c-20.9,0-39.1-15.8-40.6-36.6c-0.8-12,3.7-23,11.5-30.7c7.1-7.1,17-11.6,27.9-11.6h189.4c4.4,0,7.9,3.5,7.9,7.9l0,0
		c0,4.4-3.5,7.9-7.9,7.9H168.8C154.7,351.6,143.5,363.9,145.3,378.4z"/>
</g>
<g>
</g>
<g>
</g>
<g>
</g>
<g>
</g>
<g>
</g>
<g>
</g>
<g>
</g>
<g>
</g>
<g>
</g>
<g>
</g>
<g>
</g>
<g>
</g>
<g>
</g>
<g>
</g>
<g>
</g>
</svg>
