<?xml version="1.0" encoding="iso-8859-1"?>
<!-- Generator: Adobe Illustrator 19.0.0, SVG Export Plug-In . SVG Version: 6.00 Build 0)  -->
<svg version="1.1" id="Layer_1" xmlns="http://www.w3.org/2000/svg" xmlns:xlink="http://www.w3.org/1999/xlink" x="0px" y="0px"
	 viewBox="0 0 505 505" style="enable-background:new 0 0 505 505;" xml:space="preserve">
<circle style="fill:#90DFAA;" cx="252.5" cy="252.5" r="252.5"/>
<path style="fill:#324A5E;" d="M372.1,121.3C340.6,92.5,298.7,75,252.6,75s-88,17.5-119.6,46.3l36,36c22.3-19.6,51.6-31.5,83.6-31.5
	s61.2,11.9,83.6,31.5L372.1,121.3z"/>
<path style="fill:#2C9984;" d="M430,244.2c-1.9-42.8-19-81.6-46.1-111.2l-36,36c17.9,20.4,29.3,46.5,31.2,75.3H430V244.2z"/>
<path style="fill:#FF7058;" d="M75,252.5c0,98,79.5,177.5,177.6,177.5c46.1,0,88-17.5,119.5-46.3l-36-36
	c-22.3,19.6-51.5,31.5-83.5,31.5c-70,0-126.8-56.7-126.8-126.7c0-32,11.9-61.2,31.5-83.6l-36-36C92.6,164.5,75,206.5,75,252.5z"/>
<path style="fill:#FFD05B;" d="M383.9,372c27.1-29.6,44.2-68.5,46.1-111.2h-50.9c-1.8,28.8-13.3,54.9-31.2,75.3L383.9,372z"/>
<g>
	<rect x="177.2" y="240" style="fill:#FFFFFF;" width="19" height="70.2"/>
	<rect x="210.1" y="217.3" style="fill:#FFFFFF;" width="19" height="92.9"/>
	<rect x="243" y="257.5" style="fill:#FFFFFF;" width="19" height="52.6"/>
	<rect x="275.9" y="223" style="fill:#FFFFFF;" width="19" height="87.2"/>
	<rect x="308.8" y="189.5" style="fill:#FFFFFF;" width="19" height="120.6"/>
</g>
<g>
</g>
<g>
</g>
<g>
</g>
<g>
</g>
<g>
</g>
<g>
</g>
<g>
</g>
<g>
</g>
<g>
</g>
<g>
</g>
<g>
</g>
<g>
</g>
<g>
</g>
<g>
</g>
<g>
</g>
</svg>
