<?xml version="1.0" encoding="iso-8859-1"?>
<!-- Generator: Adobe Illustrator 19.0.0, SVG Export Plug-In . SVG Version: 6.00 Build 0)  -->
<svg version="1.1" id="Layer_1" xmlns="http://www.w3.org/2000/svg" xmlns:xlink="http://www.w3.org/1999/xlink" x="0px" y="0px"
	 viewBox="0 0 505 505" style="enable-background:new 0 0 505 505;" xml:space="preserve">
<circle style="fill:#324A5E;" cx="252.5" cy="252.5" r="252.5"/>
<path style="fill:#FFFFFF;" d="M403.4,327.9l-15.5-53.4l-48.2,27.6l18.6,7.5c-1.5,33.7-18.8,63.3-44.6,81.6
	c-19.9,14.1-47.4,0-47.4-24.4V223.7h46c7.6,0,13.8-6.2,13.8-13.8s-6.2-13.8-13.8-13.8h-46v-33.7c25.3-6.6,43.6-31,40.5-59
	c-2.8-25-23-45.3-48-48.1c-32.9-3.7-60.9,22.1-60.9,54.3c0,25.3,17.4,46.6,40.8,52.8v33.7h-46c-7.6,0-13.8,6.2-13.8,13.8
	s6.2,13.8,13.8,13.8h46v143.2c0,24.4-27.5,38.5-47.4,24.4c-25.8-18.3-43.1-48-44.6-81.6l18.6-7.5l-48.2-27.7l-15.5,53.3l18.3-7.4
	c6.4,54.4,45.5,98.9,97.1,113.1c9.9,2.7,19,7.4,27.1,13.6c2.3,1.8,5.2,2.8,8.3,2.8c3.1,0,6-1.1,8.3-2.8c8.1-6.2,17.3-10.9,27.1-13.6
	c51.6-14.2,90.8-58.8,97.1-113.1L403.4,327.9z M226,114.8c-3.6-19,12.8-35.4,31.8-31.8c10.6,2,19.2,10.6,21.2,21.2
	c3.6,19-12.8,35.4-31.8,31.8C236.6,134,228,125.5,226,114.8z"/>
<g>
</g>
<g>
</g>
<g>
</g>
<g>
</g>
<g>
</g>
<g>
</g>
<g>
</g>
<g>
</g>
<g>
</g>
<g>
</g>
<g>
</g>
<g>
</g>
<g>
</g>
<g>
</g>
<g>
</g>
</svg>
