<?xml version="1.0" encoding="iso-8859-1"?>
<!-- Generator: Adobe Illustrator 19.0.0, SVG Export Plug-In . SVG Version: 6.00 Build 0)  -->
<svg version="1.1" id="Layer_1" xmlns="http://www.w3.org/2000/svg" xmlns:xlink="http://www.w3.org/1999/xlink" x="0px" y="0px"
	 viewBox="0 0 505 505" style="enable-background:new 0 0 505 505;" xml:space="preserve">
<circle style="fill:#90DFAA;" cx="252.5" cy="252.5" r="252.5"/>
<path style="fill:#FF7058;" d="M166.6,381H77.8c-1.3,0-2.4-1.1-2.4-2.4V139.4c0-1.3,1.1-2.4,2.4-2.4h88.9c1.3,0,2.4,1.1,2.4,2.4
	v239.2C169.1,379.9,168,381,166.6,381z"/>
<rect x="91.1" y="152.7" style="fill:#FFFFFF;" width="62.2" height="149.5"/>
<g>
	<rect x="101" y="167.9" style="fill:#E6E9EE;" width="42.4" height="11.9"/>
	<rect x="101" y="194.7" style="fill:#E6E9EE;" width="42.4" height="11.9"/>
	<rect x="101" y="221.6" style="fill:#E6E9EE;" width="42.4" height="11.9"/>
	<rect x="101" y="248.4" style="fill:#E6E9EE;" width="42.4" height="11.9"/>
	<rect x="101" y="275.2" style="fill:#E6E9EE;" width="42.4" height="11.9"/>
</g>
<circle style="fill:#FFFFFF;" cx="122.2" cy="342.4" r="19"/>
<path style="fill:#2C9984;" d="M275,381h-88.9c-1.3,0-2.4-1.1-2.4-2.4V139.4c0-1.3,1.1-2.4,2.4-2.4H275c1.3,0,2.4,1.1,2.4,2.4v239.2
	C277.5,379.9,276.4,381,275,381z"/>
<rect x="199.5" y="152.7" style="fill:#FFFFFF;" width="62.2" height="149.5"/>
<g>
	<rect x="209.4" y="167.9" style="fill:#E6E9EE;" width="42.4" height="11.9"/>
	<rect x="209.4" y="194.7" style="fill:#E6E9EE;" width="42.4" height="11.9"/>
	<rect x="209.4" y="221.6" style="fill:#E6E9EE;" width="42.4" height="11.9"/>
	<rect x="209.4" y="248.4" style="fill:#E6E9EE;" width="42.4" height="11.9"/>
	<rect x="209.4" y="275.2" style="fill:#E6E9EE;" width="42.4" height="11.9"/>
</g>
<circle style="fill:#FFFFFF;" cx="230.6" cy="342.4" r="19"/>
<path style="fill:#324A5E;" d="M427.3,364.4l-87.4,16.1c-1.3,0.2-2.6-0.6-2.8-1.9l-43.4-235.2c-0.2-1.3,0.6-2.6,1.9-2.8l87.4-16.1
	c1.3-0.2,2.6,0.6,2.8,1.9l43.4,235.2C429.4,362.9,428.6,364.2,427.3,364.4z"/>
<rect x="280.951" y="190.458" transform="matrix(-0.1813 -0.9834 0.9834 -0.1813 202.3034 611.5302)" style="fill:#FFFFFF;" width="149.496" height="62.198"/>
<g>
	
		<rect x="324.788" y="162.786" transform="matrix(-0.9834 0.1813 -0.1813 -0.9834 716.8331 271.9469)" style="fill:#E6E9EE;" width="42.399" height="11.9"/>
	
		<rect x="329.693" y="189.18" transform="matrix(-0.9834 0.1813 -0.1813 -0.9834 731.347 323.407)" style="fill:#E6E9EE;" width="42.399" height="11.9"/>
	
		<rect x="334.495" y="215.592" transform="matrix(-0.9834 0.1813 -0.1813 -0.9834 745.6614 374.9236)" style="fill:#E6E9EE;" width="42.399" height="11.9"/>
	
		<rect x="339.398" y="241.985" transform="matrix(-0.9834 0.1813 -0.1813 -0.9834 760.1712 426.382)" style="fill:#E6E9EE;" width="42.399" height="11.9"/>
	
		<rect x="344.299" y="268.378" transform="matrix(-0.9834 0.1813 -0.1813 -0.9834 774.6771 477.8427)" style="fill:#E6E9EE;" width="42.399" height="11.9"/>
</g>
<circle style="fill:#FFFFFF;" cx="376.6" cy="334.5" r="19"/>
<g>
</g>
<g>
</g>
<g>
</g>
<g>
</g>
<g>
</g>
<g>
</g>
<g>
</g>
<g>
</g>
<g>
</g>
<g>
</g>
<g>
</g>
<g>
</g>
<g>
</g>
<g>
</g>
<g>
</g>
</svg>
