<?xml version="1.0" encoding="iso-8859-1"?>
<!-- Generator: Adobe Illustrator 19.0.0, SVG Export Plug-In . SVG Version: 6.00 Build 0)  -->
<svg version="1.1" id="Layer_1" xmlns="http://www.w3.org/2000/svg" xmlns:xlink="http://www.w3.org/1999/xlink" x="0px" y="0px"
	 viewBox="0 0 505 505" style="enable-background:new 0 0 505 505;" xml:space="preserve">
<circle style="fill:#90DFAA;" cx="252.5" cy="252.5" r="252.5"/>
<path style="fill:#F1543F;" d="M401.2,201.8H103.8c-9,0-16.2,7.3-16.2,16.2v153c0,9,7.3,16.2,16.2,16.2h297.4
	c9,0,16.2-7.3,16.2-16.2V218C417.4,209,410.2,201.8,401.2,201.8z"/>
<path style="fill:#324A5E;" d="M290.5,94.1h-76c-16.7,0-30.3,13.6-30.3,30.3v25.8h17.1v-25.8c0-7.3,5.9-13.2,13.2-13.2h76
	c7.3,0,13.2,5.9,13.2,13.2v27.4h17.1v-27.4C320.8,107.7,307.2,94.1,290.5,94.1z"/>
<path style="fill:#FF7058;" d="M401.2,150.6H103.8c-9,0-16.2,7.3-16.2,16.2v43.9c0,21.5,17.4,38.9,38.9,38.9h252
	c21.5,0,38.9-17.4,38.9-38.9v-43.9C417.4,157.8,410.2,150.6,401.2,150.6z"/>
<path style="fill:#FFD05B;" d="M361.9,350.2h-21.1c-2,0-3.6-1.6-3.6-3.6V238.9h28.3v107.8C365.5,348.6,363.8,350.2,361.9,350.2z"/>
<path style="fill:#FFFFFF;" d="M367.2,267.5h-31.9c-8.7,0-15.7,7-15.7,15.7v19.9c0,8.6,7,15.7,15.7,15.7h1.8v-14.9h-1.8
	c-0.5,0-0.8-0.4-0.8-0.8v-19.9c0-0.5,0.4-0.8,0.8-0.8h31.9c0.5,0,0.8,0.4,0.8,0.8v19.9c0,0.4-0.4,0.8-0.8,0.8h-1.7v14.9h1.8
	c8.7,0,15.7-7,15.7-15.7v-19.9C382.9,274.5,375.9,267.5,367.2,267.5z"/>
<g>
	<circle style="fill:#F9B54C;" cx="351.3" cy="296.3" r="4.3"/>
	<circle style="fill:#F9B54C;" cx="351.3" cy="323.1" r="4.3"/>
</g>
<rect x="349.7" y="273.1" style="fill:#324A5E;" width="3.3" height="23.2"/>
<path style="fill:#FFD05B;" d="M153.7,350.2L153.7,350.2c-7.8,0-14.2-6.3-14.2-14.2v-97.2h28.3V336
	C167.9,343.9,161.5,350.2,153.7,350.2z"/>
<path style="fill:#FFFFFF;" d="M169.6,267.5h-31.9c-8.7,0-15.7,7-15.7,15.7v19.9c0,8.6,7,15.7,15.7,15.7h1.8v-14.9h-1.8
	c-0.5,0-0.8-0.4-0.8-0.8v-19.9c0-0.5,0.4-0.8,0.8-0.8h31.9c0.5,0,0.8,0.4,0.8,0.8v19.9c0,0.4-0.4,0.8-0.8,0.8h-1.8v14.9h1.8
	c8.7,0,15.7-7,15.7-15.7v-19.9C185.3,274.5,178.3,267.5,169.6,267.5z"/>
<g>
	<circle style="fill:#F9B54C;" cx="153.7" cy="296.3" r="4.3"/>
	<circle style="fill:#F9B54C;" cx="153.7" cy="323.1" r="4.3"/>
</g>
<rect x="152.1" y="273.1" style="fill:#324A5E;" width="3.3" height="23.2"/>
<g>
</g>
<g>
</g>
<g>
</g>
<g>
</g>
<g>
</g>
<g>
</g>
<g>
</g>
<g>
</g>
<g>
</g>
<g>
</g>
<g>
</g>
<g>
</g>
<g>
</g>
<g>
</g>
<g>
</g>
</svg>
