<?xml version="1.0" encoding="iso-8859-1"?>
<!-- Generator: Adobe Illustrator 19.0.0, SVG Export Plug-In . SVG Version: 6.00 Build 0)  -->
<svg version="1.1" id="Layer_1" xmlns="http://www.w3.org/2000/svg" xmlns:xlink="http://www.w3.org/1999/xlink" x="0px" y="0px"
	 viewBox="0 0 505 505" style="enable-background:new 0 0 505 505;" xml:space="preserve">
<circle style="fill:#FFD05B;" cx="252.5" cy="252.5" r="252.5"/>
<path style="fill:#324A5E;" d="M426.7,171.2v-25.8c0-12.5-10.1-22.5-22.5-22.5H100.9c-12.5,0-22.5,10.1-22.5,22.5v25.8H426.7z"/>
<path style="fill:#FFFFFF;" d="M426.7,169.8v189.8c0,12.5-10.1,22.6-22.6,22.6H100.9c-12.5,0-22.6-10.1-22.6-22.6V169.8h117.8
	l11.4-17h62.9l11.3,17H426.7z"/>
<polygon style="fill:#84DBFF;" points="110.6,169.8 196.1,169.8 184.8,152.8 121.9,152.8 "/>
<circle style="fill:#54C0EB;" cx="394.4" cy="147.7" r="10.1"/>
<g>
	<circle style="fill:#E6E9EE;" cx="355.6" cy="147.7" r="10.1"/>
	<rect x="126.3" y="208" style="fill:#E6E9EE;" width="252.4" height="16.7"/>
	<rect x="126.3" y="247.5" style="fill:#E6E9EE;" width="252.4" height="16.7"/>
	<rect x="126.3" y="287.1" style="fill:#E6E9EE;" width="252.4" height="16.7"/>
	<rect x="126.3" y="326.6" style="fill:#E6E9EE;" width="144.7" height="16.7"/>
</g>
<g>
</g>
<g>
</g>
<g>
</g>
<g>
</g>
<g>
</g>
<g>
</g>
<g>
</g>
<g>
</g>
<g>
</g>
<g>
</g>
<g>
</g>
<g>
</g>
<g>
</g>
<g>
</g>
<g>
</g>
</svg>
