<?xml version="1.0" encoding="iso-8859-1"?>
<!-- Generator: Adobe Illustrator 19.0.0, SVG Export Plug-In . SVG Version: 6.00 Build 0)  -->
<svg version="1.1" id="Layer_1" xmlns="http://www.w3.org/2000/svg" xmlns:xlink="http://www.w3.org/1999/xlink" x="0px" y="0px"
	 viewBox="0 0 505 505" style="enable-background:new 0 0 505 505;" xml:space="preserve">
<circle style="fill:#324A5E;" cx="252.5" cy="252.5" r="252.5"/>
<path style="fill:#E6E9EE;" d="M404.1,115.1H100.9c-12.5,0-22.6,10.1-22.6,22.6v42.7h348.3v-42.7
	C426.7,125.2,416.6,115.1,404.1,115.1z"/>
<path style="fill:#FFFFFF;" d="M426.7,162.1v189.8c0,12.5-10.1,22.6-22.6,22.6H100.9c-12.5,0-22.6-10.1-22.6-22.6V162.1h117.8
	l11.4-17h62.9l11.3,17H426.7z"/>
<polygon style="fill:#ACB3BA;" points="110.6,162.1 196.1,162.1 184.8,145 121.9,145 "/>
<circle style="fill:#FF7058;" cx="394.4" cy="140" r="10.1"/>
<circle style="fill:#54C0EB;" cx="355.6" cy="140" r="10.1"/>
<path style="fill:#84DBFF;" d="M272.2,296.5v-19.1l-17.3-2.4c-1.3-5.6-3.5-11-6.6-16l10.5-13.9l-13.5-13.5l-13.9,10.5
	c-5-3.1-10.4-5.3-16-6.6l-2.4-17.3h-19.1l-2.4,17.3c-5.6,1.3-11,3.5-16,6.6l-14-10.5L148,245.1l10.5,13.9c-3.1,5-5.3,10.4-6.6,16
	l-17.3,2.4v19.1l17.3,2.4c1.3,5.6,3.5,11,6.6,16L148,328.8l13.5,13.5l13.9-10.5c5,3.1,10.4,5.3,16,6.6l2.4,17.3h19.1l2.4-17.3
	c5.6-1.3,11-3.5,16-6.6l13.9,10.5l13.5-13.5l-10.5-13.9c3.1-5,5.3-10.4,6.6-16L272.2,296.5z M226.1,309.7
	c-12.5,12.5-32.8,12.5-45.3,0s-12.5-32.8,0-45.3s32.8-12.5,45.3,0C238.6,276.8,238.6,297.1,226.1,309.7z"/>
<path style="fill:#4CDBC4;" d="M354.8,237.1c0.4-4,0.1-8-0.9-12l10-6.9l-5.9-11.9l-11.5,3.9c-2.6-3.2-5.7-5.8-9.1-7.9l2.2-12
	l-12.6-4.2l-5.4,10.9c-4-0.4-8-0.1-12,0.8l-6.9-10l-11.8,5.9l3.9,11.5c-3.2,2.6-5.8,5.7-7.9,9.1l-11.9-2.2l-4.2,12.6l10.9,5.4
	c-0.4,4-0.1,8,0.9,12l-10,6.9l5.9,11.9L290,257c2.6,3.2,5.7,5.8,9.1,7.9l-2.2,12l12.6,4.2l5.4-10.9c4,0.4,8,0.1,12-0.8l6.9,10
	l11.8-5.9l-3.9-11.5c3.2-2.6,5.8-5.7,7.9-9.1l11.9,2.2l4.2-12.6L354.8,237.1z M328.3,253.6c-11,5.5-24.4,1-29.9-10
	s-1.1-24.4,9.9-29.9s24.4-1,29.9,10C343.7,234.7,339.3,248.1,328.3,253.6z"/>
<g>
</g>
<g>
</g>
<g>
</g>
<g>
</g>
<g>
</g>
<g>
</g>
<g>
</g>
<g>
</g>
<g>
</g>
<g>
</g>
<g>
</g>
<g>
</g>
<g>
</g>
<g>
</g>
<g>
</g>
</svg>
