<?xml version="1.0" encoding="iso-8859-1"?>
<!-- Generator: Adobe Illustrator 19.0.0, SVG Export Plug-In . SVG Version: 6.00 Build 0)  -->
<svg version="1.1" id="Layer_1" xmlns="http://www.w3.org/2000/svg" xmlns:xlink="http://www.w3.org/1999/xlink" x="0px" y="0px"
	 viewBox="0 0 505 505" style="enable-background:new 0 0 505 505;" xml:space="preserve">
<circle style="fill:#FD8469;" cx="252.5" cy="252.5" r="252.5"/>
<path style="fill:#FFFFFF;" d="M413.8,135.2c0-9.6-7.8-17.3-17.4-17.3l-288.9,1.2c-9.6,0-17.3,7.8-17.3,17.4l0.9,233.3
	c0,9.6,7.8,17.3,17.4,17.3l288.8-1.2c9.6,0,17.3-7.8,17.3-17.4L413.8,135.2z"/>
<rect x="165.247" y="137.344" transform="matrix(0.004 1 -1 0.004 527.775 22.4898)" style="fill:#54C0EB;" width="174.701" height="277.702"/>
<circle style="fill:#FF7058;" cx="378.4" cy="154.9" r="12.6"/>
<circle style="fill:#4CDBC4;" cx="337.4" cy="155.1" r="12.6"/>
<g>
	<circle style="fill:#ACB3BA;" cx="296.4" cy="155.3" r="12.6"/>
	
		<rect x="113.201" y="143.302" transform="matrix(-1 0.004 -0.004 -1 278.6272 311.2443)" style="fill:#ACB3BA;" width="51.6" height="25.2"/>
</g>
<rect x="196.003" y="227.801" transform="matrix(-1 0.004 -0.004 -1 505.9712 478.8831)" style="fill:#E6E9EE;" width="113.001" height="24.3"/>
<rect x="212.003" y="313.401" transform="matrix(-1 0.004 -0.004 -1 506.916 650.0807)" style="fill:#324A5E;" width="81.601" height="24.3"/>
<rect x="196.101" y="271.503" transform="matrix(-1 0.004 -0.004 -1 506.3409 566.2892)" style="fill:#E6E9EE;" width="113.001" height="24.3"/>
<g>
</g>
<g>
</g>
<g>
</g>
<g>
</g>
<g>
</g>
<g>
</g>
<g>
</g>
<g>
</g>
<g>
</g>
<g>
</g>
<g>
</g>
<g>
</g>
<g>
</g>
<g>
</g>
<g>
</g>
</svg>
