<?xml version="1.0" encoding="iso-8859-1"?>
<!-- Generator: Adobe Illustrator 19.0.0, SVG Export Plug-In . SVG Version: 6.00 Build 0)  -->
<svg version="1.1" id="Layer_1" xmlns="http://www.w3.org/2000/svg" xmlns:xlink="http://www.w3.org/1999/xlink" x="0px" y="0px"
	 viewBox="0 0 505 505" style="enable-background:new 0 0 505 505;" xml:space="preserve">
<circle style="fill:#90DFAA;" cx="252.5" cy="252.5" r="252.5"/>
<path style="fill:#FFFFFF;" d="M97.5,175.3v169.1c0,16.7,13.5,30.2,30.2,30.2h249.6c16.7,0,30.2-13.5,30.2-30.2V175.3H97.5z"/>
<path style="fill:#324A5E;" d="M97.5,184.1v-23.5c0-16.7,13.5-30.2,30.2-30.2h249.6c16.7,0,30.2,13.5,30.2,30.2v23.5H97.5z"/>
<g>
	<circle style="fill:#FFFFFF;" cx="369.5" cy="158.8" r="10.1"/>
	<circle style="fill:#FFFFFF;" cx="331.4" cy="158.8" r="10.1"/>
	<circle style="fill:#FFFFFF;" cx="293.4" cy="158.8" r="10.1"/>
</g>
<polygon style="fill:#FFD05B;" points="329.2,344.4 343.9,250 294.7,295.3 285.2,224.1 252.5,292.9 219.8,224.1 210.4,295.3 
	161.1,250 175.8,344.4 "/>
<g>
	<circle style="fill:#F1543F;" cx="161.1" cy="252.4" r="12.3"/>
	<circle style="fill:#F1543F;" cx="219.8" cy="224.1" r="12.3"/>
	<circle style="fill:#F1543F;" cx="285.5" cy="224.1" r="12.3"/>
	<circle style="fill:#F1543F;" cx="343.9" cy="248.7" r="12.3"/>
</g>
<g>
</g>
<g>
</g>
<g>
</g>
<g>
</g>
<g>
</g>
<g>
</g>
<g>
</g>
<g>
</g>
<g>
</g>
<g>
</g>
<g>
</g>
<g>
</g>
<g>
</g>
<g>
</g>
<g>
</g>
</svg>
