<?xml version="1.0" encoding="iso-8859-1"?>
<!-- Generator: Adobe Illustrator 19.0.0, SVG Export Plug-In . SVG Version: 6.00 Build 0)  -->
<svg version="1.1" id="Layer_1" xmlns="http://www.w3.org/2000/svg" xmlns:xlink="http://www.w3.org/1999/xlink" x="0px" y="0px"
	 viewBox="0 0 505 505" style="enable-background:new 0 0 505 505;" xml:space="preserve">
<circle style="fill:#FFD05B;" cx="252.5" cy="252.5" r="252.5"/>
<path style="fill:#324A5E;" d="M401.8,122.9H103.2c-13.7,0-24.9,11.1-24.9,24.9v209.6c0,13.7,11.1,24.9,24.9,24.9h298.6
	c13.7,0,24.9-11.1,24.9-24.9V147.7C426.7,134,415.5,122.9,401.8,122.9z"/>
<polygon style="fill:#FFFFFF;" points="284.8,169.8 273.5,152.8 210.6,152.8 199.3,169.8 103.3,169.8 103.3,356.8 401.7,356.8 
	401.7,169.8 "/>
<polygon style="fill:#84DBFF;" points="113.7,169.8 199.3,169.8 187.9,152.8 125,152.8 "/>
<circle style="fill:#54C0EB;" cx="394.4" cy="147.7" r="10.1"/>
<circle style="fill:#E6E9EE;" cx="355.6" cy="147.7" r="10.1"/>
<g>
	<polygon style="fill:#FF7058;" points="268.4,267.7 316.5,236.3 268.4,205 268.4,223.9 217.9,223.9 217.9,248.7 268.4,248.7 	"/>
	<polygon style="fill:#FF7058;" points="236.6,266 188.5,297.4 236.6,328.8 236.6,309.8 287.1,309.8 287.1,285 236.6,285 	"/>
</g>
<g>
</g>
<g>
</g>
<g>
</g>
<g>
</g>
<g>
</g>
<g>
</g>
<g>
</g>
<g>
</g>
<g>
</g>
<g>
</g>
<g>
</g>
<g>
</g>
<g>
</g>
<g>
</g>
<g>
</g>
</svg>
