<?xml version="1.0" encoding="iso-8859-1"?>
<!-- Generator: Adobe Illustrator 19.0.0, SVG Export Plug-In . SVG Version: 6.00 Build 0)  -->
<svg version="1.1" id="Layer_1" xmlns="http://www.w3.org/2000/svg" xmlns:xlink="http://www.w3.org/1999/xlink" x="0px" y="0px"
	 viewBox="0 0 505 505" style="enable-background:new 0 0 505 505;" xml:space="preserve">
<circle style="fill:#FD8469;" cx="252.5" cy="252.5" r="252.5"/>
<path style="fill:#E6E9EE;" d="M386.6,118.5H118.4c-15.3,0-27.7,12.4-27.7,27.7v212.6c0,15.3,12.4,27.7,27.7,27.7h268.1
	c15.3,0,27.7-12.4,27.7-27.7V146.2C414.3,130.9,401.9,118.5,386.6,118.5z"/>
<rect x="113.6" y="188.9" style="fill:#324A5E;" width="277.7" height="174.7"/>
<circle style="fill:#FF7058;" cx="378.7" cy="155.4" r="12.6"/>
<circle style="fill:#4CDBC4;" cx="337.8" cy="155.4" r="12.6"/>
<circle style="fill:#ACB3BA;" cx="296.8" cy="155.4" r="12.6"/>
<polygon style="fill:#FFFFFF;" points="341.4,225.3 291.4,247.9 306,258.1 280.3,295.2 246.5,271.8 221.1,308.6 181.9,281.4 
	125,363.6 149.4,363.6 187,309.3 226.1,336.4 251.6,299.7 285.4,323.1 322.4,269.7 336.8,279.7 "/>
<rect x="113.6" y="142.8" style="fill:#ACB3BA;" width="51.6" height="25.2"/>
<g>
</g>
<g>
</g>
<g>
</g>
<g>
</g>
<g>
</g>
<g>
</g>
<g>
</g>
<g>
</g>
<g>
</g>
<g>
</g>
<g>
</g>
<g>
</g>
<g>
</g>
<g>
</g>
<g>
</g>
</svg>
