<?xml version="1.0" encoding="iso-8859-1"?>
<!-- Generator: Adobe Illustrator 19.0.0, SVG Export Plug-In . SVG Version: 6.00 Build 0)  -->
<svg version="1.1" id="Layer_1" xmlns="http://www.w3.org/2000/svg" xmlns:xlink="http://www.w3.org/1999/xlink" x="0px" y="0px"
	 viewBox="0 0 505 505" style="enable-background:new 0 0 505 505;" xml:space="preserve">
<circle style="fill:#84DBFF;" cx="252.5" cy="252.5" r="252.5"/>
<path style="fill:#324A5E;" d="M404.1,107.1H100.9c-12.5,0-22.6,10.1-22.6,22.6v188.2h348.3V129.6
	C426.7,117.2,416.6,107.1,404.1,107.1z"/>
<path style="fill:#FFFFFF;" d="M281.7,154l-11.3-17h-62.9l-11.4,17H78.3v189.8c0,12.5,10.1,22.6,22.6,22.6h303.2
	c12.5,0,22.6-10.1,22.6-22.6V154H281.7z"/>
<polygon style="fill:#84DBFF;" points="110.6,154 196.1,154 184.8,137 121.9,137 "/>
<circle style="fill:#FF7058;" cx="394.4" cy="131.9" r="10.1"/>
<circle style="fill:#E6E9EE;" cx="355.6" cy="131.9" r="10.1"/>
<path style="fill:#324A5E;" d="M229.1,392.8c1-4.1,1.3-8.2,1-12.1c-0.5-8.8,2.6-17.4,8.8-23.6L274,322c6.3-6.3,15-9.3,23.9-8.8
	c0.7,0,1.5,0.1,2.2,0.1c15.6,0,29.2-8.5,36.5-21.1h-34l-9.2-21.1l9.2-21.1h34c-7.7-13.2-22.3-21.9-38.8-21
	c-19.4,1-35.7,15.6-39.2,34.6c-0.6,3.4-0.8,6.8-0.6,10c0.5,8.8-2.6,17.4-8.8,23.6l-35.1,35.1c-6.3,6.3-15,9.3-23.9,8.8
	c-0.7,0-1.5-0.1-2.2-0.1c-15.6,0-29.2,8.5-36.5,21.1h34l9.2,21.1l-9.2,21.1h-34c8,13.8,23.7,22.7,41.2,20.8
	C210.4,423.3,225.1,410.1,229.1,392.8z"/>
<polygon style="fill:#E6E9EE;" points="194.5,251.3 166.8,239.9 156.9,249.9 168.3,277.5 192.5,284.6 271.9,364 281,355 
	201.6,275.5 "/>
<path style="fill:#FF7058;" d="M344.5,427.5L344.5,427.5c-12.7,12.7-33.5,11.8-45.1-1.9l-35.9-42.3l36.7-36.7l42.4,35.9
	C356.3,394.1,357.2,414.9,344.5,427.5z"/>
<g>
	<path style="fill:#F1543F;" d="M303.6,343.3l-43.3,43.3c-0.7,0.7-1.7,0.7-2.4,0l-8.4-8.4c-0.7-0.7-0.7-1.7,0-2.4l43.3-43.3
		c0.7-0.7,1.7-0.7,2.4,0l8.4,8.4C304.2,341.5,304.2,342.6,303.6,343.3z"/>
	<path style="fill:#F1543F;" d="M335.9,398L335.9,398c-1.8,1.8-4.6,1.8-6.4,0l-26.3-26.3c-1.8-1.8-1.8-4.6,0-6.4l0,0
		c1.8-1.8,4.6-1.8,6.4,0l26.3,26.3C337.7,393.4,337.7,396.2,335.9,398z"/>
	<path style="fill:#F1543F;" d="M314.9,419L314.9,419c-1.8,1.8-4.6,1.8-6.4,0l-26.3-26.3c-1.8-1.8-1.8-4.6,0-6.4l0,0
		c1.8-1.8,4.6-1.8,6.4,0l26.3,26.3C316.7,414.3,316.7,417.2,314.9,419z"/>
	<path style="fill:#F1543F;" d="M325.4,408.5L325.4,408.5c-1.8,1.8-4.6,1.8-6.4,0l-26.3-26.3c-1.8-1.8-1.8-4.6,0-6.4l0,0
		c1.8-1.8,4.6-1.8,6.4,0l26.3,26.3C327.2,403.9,327.2,406.7,325.4,408.5z"/>
</g>
<g>
</g>
<g>
</g>
<g>
</g>
<g>
</g>
<g>
</g>
<g>
</g>
<g>
</g>
<g>
</g>
<g>
</g>
<g>
</g>
<g>
</g>
<g>
</g>
<g>
</g>
<g>
</g>
<g>
</g>
</svg>
