<?xml version="1.0" encoding="iso-8859-1"?>
<!-- Generator: Adobe Illustrator 19.0.0, SVG Export Plug-In . SVG Version: 6.00 Build 0)  -->
<svg version="1.1" id="Layer_1" xmlns="http://www.w3.org/2000/svg" xmlns:xlink="http://www.w3.org/1999/xlink" x="0px" y="0px"
	 viewBox="0 0 505 505" style="enable-background:new 0 0 505 505;" xml:space="preserve">
<circle style="fill:#54C0EB;" cx="252.5" cy="252.5" r="252.5"/>
<path style="fill:#E6E9EE;" d="M426.7,174.3v-28.9c0-12.5-10.1-22.6-22.6-22.6H100.9c-12.5,0-22.6,10.1-22.6,22.6v28.9H426.7z"/>
<path style="fill:#FFFFFF;" d="M426.7,169.8v189.8c0,12.5-10.1,22.6-22.6,22.6H100.9c-12.5,0-22.6-10.1-22.6-22.6V169.8h117.8
	l11.4-17h62.9l11.3,17H426.7z"/>
<polygon style="fill:#ACB3BA;" points="110.6,169.8 196.1,169.8 184.8,152.8 121.9,152.8 "/>
<circle style="fill:#FF7058;" cx="394.4" cy="147.7" r="10.1"/>
<circle style="fill:#ACB3BA;" cx="355.6" cy="147.7" r="10.1"/>
<polygon style="fill:#FFD05B;" points="252.5,192.4 290.6,269.6 375.9,282 314.2,342.1 328.7,427 252.5,386.9 176.3,427 
	190.8,342.1 129.1,282 214.4,269.6 "/>
<g>
	<polygon style="fill:#F9B54C;" points="375.9,282 290.6,269.6 252.5,309.7 	"/>
	<polygon style="fill:#F9B54C;" points="328.7,427 252.5,309.7 314.2,342.1 	"/>
	<polygon style="fill:#F9B54C;" points="252.5,386.9 252.5,309.7 176.3,427 	"/>
	<polygon style="fill:#F9B54C;" points="129.1,282 190.8,342.1 252.5,309.7 	"/>
	<polygon style="fill:#F9B54C;" points="252.5,192.4 252.5,309.7 214.4,269.6 	"/>
</g>
<g>
</g>
<g>
</g>
<g>
</g>
<g>
</g>
<g>
</g>
<g>
</g>
<g>
</g>
<g>
</g>
<g>
</g>
<g>
</g>
<g>
</g>
<g>
</g>
<g>
</g>
<g>
</g>
<g>
</g>
</svg>
