<?xml version="1.0" encoding="iso-8859-1"?>
<!-- Generator: Adobe Illustrator 19.0.0, SVG Export Plug-In . SVG Version: 6.00 Build 0)  -->
<svg version="1.1" id="Layer_1" xmlns="http://www.w3.org/2000/svg" xmlns:xlink="http://www.w3.org/1999/xlink" x="0px" y="0px"
	 viewBox="0 0 505 505" style="enable-background:new 0 0 505 505;" xml:space="preserve">
<circle style="fill:#FD8469;" cx="252.5" cy="252.5" r="252.5"/>
<path style="fill:#E6E9EE;" d="M279.3,103.7H109.6c-6.2,0-11.3,5-11.3,11.3v96.9c0,6.2,5,11.3,11.3,11.3h23.3v33.3l45.2-33.3h101.2
	c6.2,0,11.3-5,11.3-11.3V115C290.5,108.8,285.5,103.7,279.3,103.7z"/>
<path style="fill:#324A5E;" d="M225.7,248.6h169.7c6.2,0,11.3,5,11.3,11.3v96.9c0,6.2-5,11.3-11.3,11.3h-23.3v33.3l-45.2-33.3H225.7
	c-6.2,0-11.3-5-11.3-11.3v-96.9C214.5,253.6,219.5,248.6,225.7,248.6z"/>
<g>
	<circle style="fill:#FFFFFF;" cx="261.2" cy="305.5" r="14.3"/>
	<circle style="fill:#FFFFFF;" cx="310.5" cy="305.5" r="14.3"/>
	<circle style="fill:#FFFFFF;" cx="359.9" cy="305.5" r="14.3"/>
</g>
<g>
	<circle style="fill:#ACB3BA;" cx="145.1" cy="158.8" r="14.3"/>
	<circle style="fill:#ACB3BA;" cx="194.5" cy="158.8" r="14.3"/>
	<circle style="fill:#ACB3BA;" cx="243.8" cy="158.8" r="14.3"/>
</g>
<g>
</g>
<g>
</g>
<g>
</g>
<g>
</g>
<g>
</g>
<g>
</g>
<g>
</g>
<g>
</g>
<g>
</g>
<g>
</g>
<g>
</g>
<g>
</g>
<g>
</g>
<g>
</g>
<g>
</g>
</svg>
