<?xml version="1.0" encoding="iso-8859-1"?>
<!-- Generator: Adobe Illustrator 19.0.0, SVG Export Plug-In . SVG Version: 6.00 Build 0)  -->
<svg version="1.1" id="Layer_1" xmlns="http://www.w3.org/2000/svg" xmlns:xlink="http://www.w3.org/1999/xlink" x="0px" y="0px"
	 viewBox="0 0 505 505" style="enable-background:new 0 0 505 505;" xml:space="preserve">
<circle style="fill:#324A5E;" cx="252.5" cy="252.5" r="252.5"/>
<path style="fill:#FFFFFF;" d="M377.4,123.2H127.6c-30.8,0-55.7,24.9-55.7,55.7v107c0,30.8,24.9,55.7,55.7,55.7l0,0v55.7l97.5-55.7
	h152.3c30.8,0,55.7-24.9,55.7-55.7v-107C433.1,148.1,408.1,123.2,377.4,123.2z"/>
<g>
	<rect x="242.3" y="167.5" style="fill:#CED5E0;" width="143.1" height="15.1"/>
	<rect x="242.3" y="205.7" style="fill:#CED5E0;" width="143.1" height="15.1"/>
	<rect x="242.3" y="244" style="fill:#CED5E0;" width="143.1" height="15.1"/>
	<rect x="242.3" y="282.2" style="fill:#CED5E0;" width="92.1" height="15.1"/>
</g>
<path style="fill:#FF7058;" d="M195.6,277.9l-8.4-19.5h-37.8l-8.4,19.5h-21.4l39-90.2h19.5l39,90.2H195.6z M168.4,214.5L157,240.7
	h22.6L168.4,214.5z"/>
<g>
</g>
<g>
</g>
<g>
</g>
<g>
</g>
<g>
</g>
<g>
</g>
<g>
</g>
<g>
</g>
<g>
</g>
<g>
</g>
<g>
</g>
<g>
</g>
<g>
</g>
<g>
</g>
<g>
</g>
</svg>
