<?xml version="1.0" encoding="iso-8859-1"?>
<!-- Generator: Adobe Illustrator 19.0.0, SVG Export Plug-In . SVG Version: 6.00 Build 0)  -->
<svg version="1.1" id="Layer_1" xmlns="http://www.w3.org/2000/svg" xmlns:xlink="http://www.w3.org/1999/xlink" x="0px" y="0px"
	 viewBox="0 0 505 505" style="enable-background:new 0 0 505 505;" xml:space="preserve">
<circle style="fill:#324A5E;" cx="252.5" cy="252.5" r="252.5"/>
<g>
	<path style="fill:#FFFFFF;" d="M226.5,379.8c-84.4,0-153-68.6-153-153s68.6-153,153-153s153,68.6,153,153S310.8,379.8,226.5,379.8z
		 M226.5,92.4c-74.1,0-134.4,60.3-134.4,134.4s60.3,134.4,134.4,134.4s134.4-60.3,134.4-134.4S300.6,92.4,226.5,92.4z"/>
	<path style="fill:#FFFFFF;" d="M226.5,332.8c-58.5,0-106-47.6-106-106c0-58.5,47.6-106,106-106c58.5,0,106,47.6,106,106
		S284.9,332.8,226.5,332.8z M226.5,139.3c-48.2,0-87.4,39.2-87.4,87.4s39.2,87.4,87.4,87.4s87.4-39.2,87.4-87.4
		C313.9,178.6,274.7,139.3,226.5,139.3z"/>
	<path style="fill:#FFFFFF;" d="M226.5,289.4c-34.5,0-62.6-28.1-62.6-62.6s28.1-62.6,62.6-62.6s62.6,28.1,62.6,62.6
		S261,289.4,226.5,289.4z M226.5,182.7c-24.3,0-44,19.8-44,44c0,24.3,19.8,44,44,44c24.3,0,44-19.8,44-44S250.7,182.7,226.5,182.7z"
		/>
</g>
<polygon style="fill:#FF7058;" points="225.3,225 311.1,431.2 346.3,346 431.5,310.8 "/>
<g>
</g>
<g>
</g>
<g>
</g>
<g>
</g>
<g>
</g>
<g>
</g>
<g>
</g>
<g>
</g>
<g>
</g>
<g>
</g>
<g>
</g>
<g>
</g>
<g>
</g>
<g>
</g>
<g>
</g>
</svg>
