<?xml version="1.0" encoding="iso-8859-1"?>
<!-- Generator: Adobe Illustrator 19.0.0, SVG Export Plug-In . SVG Version: 6.00 Build 0)  -->
<svg version="1.1" id="Layer_1" xmlns="http://www.w3.org/2000/svg" xmlns:xlink="http://www.w3.org/1999/xlink" x="0px" y="0px"
	 viewBox="0 0 505 505" style="enable-background:new 0 0 505 505;" xml:space="preserve">
<circle style="fill:#FFD05B;" cx="252.5" cy="252.5" r="252.5"/>
<polygon style="fill:#ACB3BA;" points="318.2,360.5 186.8,360.5 173.9,407.9 331.1,407.9 "/>
<path style="fill:#FFFFFF;" d="M347.4,426.4v-9c0-8.9-7.3-16.2-16.2-16.2H173.8c-8.9,0-16.2,7.3-16.2,16.2v9H347.4z"/>
<path style="fill:#324A5E;" d="M429.3,318.9V133.2c0-6.8-5.5-12.3-12.3-12.3H88c-6.8,0-12.3,5.5-12.3,12.3v185.7H429.3z"/>
<path style="fill:#FFFFFF;" d="M75.7,316.2v40.1c0,6.8,5.5,12.3,12.3,12.3h329c6.8,0,12.3-5.5,12.3-12.3v-40.1H75.7z"/>
<circle style="fill:#ACB3BA;" cx="252.5" cy="342.4" r="12"/>
<g>
	<rect x="150.7" y="168" style="fill:#84DBFF;" width="139.3" height="14.1"/>
	<rect x="313" y="168" style="fill:#84DBFF;" width="41.3" height="14.1"/>
	<rect x="150.7" y="199.7" style="fill:#84DBFF;" width="85.1" height="14.1"/>
	<rect x="258.8" y="199.7" style="fill:#84DBFF;" width="95.5" height="14.1"/>
	<rect x="209.5" y="231.4" style="fill:#84DBFF;" width="144.8" height="14.1"/>
	<rect x="150.7" y="263.1" style="fill:#84DBFF;" width="139.3" height="14.1"/>
	<rect x="313" y="263.1" style="fill:#84DBFF;" width="41.3" height="14.1"/>
	<rect x="150.7" y="231.4" style="fill:#84DBFF;" width="41.3" height="14.1"/>
</g>
<g>
</g>
<g>
</g>
<g>
</g>
<g>
</g>
<g>
</g>
<g>
</g>
<g>
</g>
<g>
</g>
<g>
</g>
<g>
</g>
<g>
</g>
<g>
</g>
<g>
</g>
<g>
</g>
<g>
</g>
</svg>
