<?xml version="1.0" encoding="iso-8859-1"?>
<!-- Generator: Adobe Illustrator 19.0.0, SVG Export Plug-In . SVG Version: 6.00 Build 0)  -->
<svg version="1.1" id="Layer_1" xmlns="http://www.w3.org/2000/svg" xmlns:xlink="http://www.w3.org/1999/xlink" x="0px" y="0px"
	 viewBox="0 0 505 505" style="enable-background:new 0 0 505 505;" xml:space="preserve">
<circle style="fill:#84DBFF;" cx="252.5" cy="252.5" r="252.5"/>
<g>
	<polygon style="fill:#324A5E;" points="308.1,339.3 196.9,339.3 181.2,385.1 323.8,385.1 	"/>
	<path style="fill:#324A5E;" d="M425.1,304.3H79.9V112.2c0-2.2,1.8-3.9,3.9-3.9h337.3c2.2,0,3.9,1.8,3.9,3.9v192.1H425.1z"/>
</g>
<rect x="107.2" y="135.6" style="fill:#FFFFFF;" width="290.6" height="142"/>
<g>
	<path style="fill:#E6E9EE;" d="M425.1,304.3H79.9v41.8c0,2.2,1.8,3.9,3.9,3.9h337.3c2.2,0,3.9-1.8,3.9-3.9v-41.8H425.1z"/>
	<path style="fill:#E6E9EE;" d="M343.1,381.6H161.9c-1.6,0-3,1.3-3,3v25c0,1.6,1.3,3,3,3h181.2c1.6,0,3-1.3,3-3v-25
		C346.1,382.9,344.8,381.6,343.1,381.6z"/>
</g>
<circle style="fill:#ACB3BA;" cx="252.5" cy="325.3" r="10.9"/>
<polygon style="fill:#324A5E;" points="271.6,253.2 232,188.2 187.1,233.9 181.7,228.6 233.4,175.9 273,240.9 317.9,195 
	323.3,200.3 "/>
<g>
	<circle style="fill:#FF7058;" cx="320.6" cy="198.8" r="17.1"/>
	<circle style="fill:#FF7058;" cx="272.3" cy="247" r="17.1"/>
	<circle style="fill:#FF7058;" cx="232.7" cy="182.1" r="17.1"/>
	<circle style="fill:#FF7058;" cx="184.4" cy="230.3" r="17.1"/>
</g>
<g>
</g>
<g>
</g>
<g>
</g>
<g>
</g>
<g>
</g>
<g>
</g>
<g>
</g>
<g>
</g>
<g>
</g>
<g>
</g>
<g>
</g>
<g>
</g>
<g>
</g>
<g>
</g>
<g>
</g>
</svg>
