<?xml version="1.0" encoding="iso-8859-1"?>
<!-- Generator: Adobe Illustrator 19.0.0, SVG Export Plug-In . SVG Version: 6.00 Build 0)  -->
<svg version="1.1" id="Layer_1" xmlns="http://www.w3.org/2000/svg" xmlns:xlink="http://www.w3.org/1999/xlink" x="0px" y="0px"
	 viewBox="0 0 505 505" style="enable-background:new 0 0 505 505;" xml:space="preserve">
<circle style="fill:#FD8469;" cx="252.5" cy="252.5" r="252.5"/>
<polygon style="fill:#E6E9EE;" points="308.1,352.8 196.9,352.8 181.2,398.6 323.8,398.6 "/>
<path style="fill:#324A5E;" d="M410,121.7H95c-8.4,0-15.2,6.8-15.2,15.2v180.9H425V136.9C425.1,128.5,418.3,121.7,410,121.7z"/>
<g>
	<path style="fill:#FFFFFF;" d="M79.9,317.8v30.6c0,8.4,6.8,15.2,15.2,15.2H410c8.4,0,15.2-6.8,15.2-15.2v-30.6H79.9z"/>
	<path style="fill:#FFFFFF;" d="M337.9,395.1H167.1c-4.5,0-8.1,3.6-8.1,8.1v14.7c0,4.5,3.6,8.1,8.1,8.1H338c4.5,0,8.1-3.6,8.1-8.1
		v-14.7C346.1,398.7,342.4,395.1,337.9,395.1z"/>
</g>
<circle style="fill:#E6E9EE;" cx="252.5" cy="338.8" r="13.9"/>
<rect x="107.2" y="149.1" style="fill:#84DBFF;" width="290.6" height="143.9"/>
<g>
	<rect x="304.8" y="197.6" style="fill:#FFFFFF;" width="25.1" height="95.4"/>
	<rect x="261.6" y="213.7" style="fill:#FFFFFF;" width="25.1" height="79.3"/>
	<rect x="218.3" y="234.1" style="fill:#FFFFFF;" width="25.1" height="58.9"/>
	<rect x="175.1" y="253.2" style="fill:#FFFFFF;" width="25.1" height="39.8"/>
</g>
<g>
</g>
<g>
</g>
<g>
</g>
<g>
</g>
<g>
</g>
<g>
</g>
<g>
</g>
<g>
</g>
<g>
</g>
<g>
</g>
<g>
</g>
<g>
</g>
<g>
</g>
<g>
</g>
<g>
</g>
</svg>
