<?xml version="1.0" encoding="iso-8859-1"?>
<!-- Generator: Adobe Illustrator 19.0.0, SVG Export Plug-In . SVG Version: 6.00 Build 0)  -->
<svg version="1.1" id="Layer_1" xmlns="http://www.w3.org/2000/svg" xmlns:xlink="http://www.w3.org/1999/xlink" x="0px" y="0px"
	 viewBox="0 0 505 505" style="enable-background:new 0 0 505 505;" xml:space="preserve">
<circle style="fill:#324A5E;" cx="252.5" cy="252.5" r="252.5"/>
<path style="fill:#FFFFFF;" d="M409.9,240.1c0,26.3-21.3,47.7-47.7,47.7H142.8c-26.3,0-47.7-21.3-47.7-47.7
	c0-18.2,10.2-34.1,25.3-42.1c-5.3-10.7-8.3-22.6-8.3-35.3c0-43.9,35.6-79.5,79.5-79.5c22.1,0,42.1,9.1,56.5,23.6
	c9.2-6.3,20.3-10,32.3-10c25,0,46.2,16,54,38.3c3.5-0.8,7.2-1.2,11-1.2c28.8,0,52.1,23.3,52.1,52.1c0,6.5-1.2,12.8-3.4,18.6
	C403.8,213.4,409.9,226,409.9,240.1z"/>
<g>
	<polygon style="fill:#FF7058;" points="333.7,319 252.5,217.3 171.3,319 202.2,319 206.6,374.1 298.4,374.1 302.8,319 	"/>
	<polygon style="fill:#FF7058;" points="212.3,445.7 292.7,445.7 296.7,395.9 208.3,395.9 	"/>
</g>
<g>
</g>
<g>
</g>
<g>
</g>
<g>
</g>
<g>
</g>
<g>
</g>
<g>
</g>
<g>
</g>
<g>
</g>
<g>
</g>
<g>
</g>
<g>
</g>
<g>
</g>
<g>
</g>
<g>
</g>
</svg>
