<?xml version="1.0" encoding="iso-8859-1"?>
<!-- Generator: Adobe Illustrator 19.0.0, SVG Export Plug-In . SVG Version: 6.00 Build 0)  -->
<svg version="1.1" id="Layer_1" xmlns="http://www.w3.org/2000/svg" xmlns:xlink="http://www.w3.org/1999/xlink" x="0px" y="0px"
	 viewBox="0 0 505 505" style="enable-background:new 0 0 505 505;" xml:space="preserve">
<circle style="fill:#FFD05B;" cx="252.5" cy="252.5" r="252.5"/>
<polygon style="fill:#FFFFFF;" points="176,73.6 176,133.4 116.2,133.4 116.2,389.2 354.1,389.2 354.1,73.6 "/>
<g>
	<polygon style="fill:#E6E9EE;" points="176,73.6 116.2,133.4 176,133.4 	"/>
	<rect x="143.3" y="215.2" style="fill:#E6E9EE;" width="183.8" height="17.5"/>
	<rect x="143.3" y="253" style="fill:#E6E9EE;" width="183.8" height="17.5"/>
	<rect x="143.3" y="290.8" style="fill:#E6E9EE;" width="183.8" height="17.5"/>
	<rect x="143.3" y="328.5" style="fill:#E6E9EE;" width="97.3" height="17.5"/>
</g>
<g>
	<path style="fill:#CED5E0;" d="M196.6,232.7c-0.2,0-0.4,0.1-0.6,0.1h83.6c-5.5-4.4-8.9-10.8-10.2-17.5h-53.2
		C214.1,223.5,207.9,230.4,196.6,232.7z"/>
	<path style="fill:#CED5E0;" d="M178,270.5h121.7c-0.6-4.6-1.4-9.2-2.6-13.6c-0.4-1.4-0.8-2.7-1.3-4h-118
		C177.2,258.8,177.4,264.7,178,270.5z"/>
	<path style="fill:#CED5E0;" d="M183.4,308.3h118c0-0.7-0.1-1.4-0.1-2.1c0.1-5,0-10.2-0.1-15.4H180.9
		C182.1,296.6,183.2,302.4,183.4,308.3z"/>
	<path style="fill:#CED5E0;" d="M194,328.5c4.4,4.5,6.7,10.9,7,17.5h39.5v-17.5H194z"/>
</g>
<rect x="288.399" y="320.438" transform="matrix(-0.7071 0.7071 -0.7071 -0.7071 754.6885 372.9734)" style="fill:#2B3B4E;" width="23.4" height="44.7"/>
<path style="fill:#324A5E;" d="M291.7,228.4c-29.3-29.3-76.7-29.3-105.9,0c-29.3,29.3-29.3,76.7,0,105.9
	c29.3,29.3,76.7,29.3,105.9,0C321,305.1,321,257.6,291.7,228.4z M279.3,321.9c-22.4,22.4-58.7,22.4-81,0c-22.4-22.4-22.4-58.7,0-81
	c22.4-22.4,58.7-22.4,81,0S301.6,299.5,279.3,321.9z"/>
<path style="fill:#FF7058;" d="M320.7,335.4l-27.8,27.8c-0.7,0.7-0.7,1.9,0,2.7l67.2,67.2c0.7,0.7,1.9,0.7,2.7,0l27.8-27.8
	c0.7-0.7,0.7-1.9,0-2.7l-67.2-67.2C322.6,334.7,321.4,334.7,320.7,335.4z"/>
<path style="fill:#84DBFF;" d="M289.9,129.8c-13,0-24,8.9-27.2,20.9h-90.4c-4.1,0-7.4,3.3-7.4,7.4c0,4.1,3.3,7.4,7.4,7.4h5.9v11H193
	v-11h9.4v16.9h14.8v-16.9h45.5c3.3,12,14.2,20.9,27.2,20.9c15.6,0,28.3-12.7,28.3-28.3C318.2,142.5,305.5,129.8,289.9,129.8z
	 M289.9,171.5c-7.4,0-13.5-6-13.5-13.5c0-7.4,6-13.5,13.5-13.5c7.4,0,13.5,6,13.5,13.5C303.3,165.5,297.3,171.5,289.9,171.5z"/>
<g>
</g>
<g>
</g>
<g>
</g>
<g>
</g>
<g>
</g>
<g>
</g>
<g>
</g>
<g>
</g>
<g>
</g>
<g>
</g>
<g>
</g>
<g>
</g>
<g>
</g>
<g>
</g>
<g>
</g>
</svg>
