<?xml version="1.0" encoding="iso-8859-1"?>
<!-- Generator: Adobe Illustrator 19.0.0, SVG Export Plug-In . SVG Version: 6.00 Build 0)  -->
<svg version="1.1" id="Layer_1" xmlns="http://www.w3.org/2000/svg" xmlns:xlink="http://www.w3.org/1999/xlink" x="0px" y="0px"
	 viewBox="0 0 505 505" style="enable-background:new 0 0 505 505;" xml:space="preserve">
<circle style="fill:#324A5E;" cx="252.5" cy="252.5" r="252.5"/>
<polygon style="fill:#2C9984;" points="438.8,249.8 252.5,118 66.2,249.8 252.5,399.5 "/>
<rect x="117.2" y="100.1" style="fill:#FFFFFF;" width="270.7" height="282.8"/>
<g>
	<path style="fill:#E6E9EE;" d="M438.9,249.8v173.1c-16.7,18.2-36,34-57.4,46.7l-129-70.1L438.9,249.8z"/>
	<path style="fill:#E6E9EE;" d="M252.5,399.5l-128.9,70.2C102.2,457,82.9,441.2,66.2,423V249.8L252.5,399.5z"/>
</g>
<path style="fill:#CED5E0;" d="M271,375.8h-37l-110.4,93.9c37.7,22.4,81.8,35.3,128.9,35.3s91.2-12.9,128.9-35.4L271,375.8z"/>
<g>
	<rect x="153.8" y="146.7" style="fill:#E6E9EE;" width="197.4" height="17.8"/>
	<rect x="153.8" y="190.2" style="fill:#E6E9EE;" width="197.4" height="17.8"/>
	<rect x="153.8" y="233.8" style="fill:#E6E9EE;" width="139.7" height="17.8"/>
</g>
<g>
</g>
<g>
</g>
<g>
</g>
<g>
</g>
<g>
</g>
<g>
</g>
<g>
</g>
<g>
</g>
<g>
</g>
<g>
</g>
<g>
</g>
<g>
</g>
<g>
</g>
<g>
</g>
<g>
</g>
</svg>
