<?xml version="1.0" encoding="iso-8859-1"?>
<!-- Generator: Adobe Illustrator 19.0.0, SVG Export Plug-In . SVG Version: 6.00 Build 0)  -->
<svg version="1.1" id="Layer_1" xmlns="http://www.w3.org/2000/svg" xmlns:xlink="http://www.w3.org/1999/xlink" x="0px" y="0px"
	 viewBox="0 0 505 505" style="enable-background:new 0 0 505 505;" xml:space="preserve">
<circle style="fill:#FD8469;" cx="252.5" cy="252.5" r="252.5"/>
<polygon style="fill:#FFFFFF;" points="163.6,88 163.6,147.7 103.9,147.7 103.9,403.6 341.8,403.6 341.8,88 "/>
<polygon style="fill:#E6E9EE;" points="163.6,88 103.9,147.7 163.6,147.7 "/>
<rect x="284.101" y="287.583" transform="matrix(-0.7071 0.7071 -0.7071 -0.7071 730.0641 324.8634)" style="fill:#2C9984;" width="27.3" height="52.1"/>
<path style="fill:#4CDBC4;" d="M287.9,180.2c-34.1-34.1-89.4-34.1-123.6,0s-34.1,89.4,0,123.6s89.4,34.1,123.6,0
	C322,269.7,322,214.4,287.9,180.2z M273.4,289.3c-26.1,26.1-68.4,26.1-94.5,0s-26.1-68.4,0-94.5s68.4-26.1,94.5,0
	S299.5,263.2,273.4,289.3z"/>
<path style="fill:#324A5E;" d="M321.7,305.1l-32.5,32.5c-0.9,0.9-0.9,2.3,0,3.1l78.3,78.3c0.9,0.9,2.3,0.9,3.1,0l32.5-32.5
	c0.9-0.9,0.9-2.3,0-3.1l-78.3-78.3C323.9,304.2,322.5,304.2,321.7,305.1z"/>
<g>
	<path style="fill:#54C0EB;" d="M245.3,212c0,12.6-8.6,26.8-19.2,26.8c-10.6,0-19.2-14.2-19.2-26.8s8.6-18.8,19.2-18.8
		S245.3,199.4,245.3,212z"/>
	<path style="fill:#54C0EB;" d="M268.8,271.3c-12.1,5.1-26.8,8.4-42.7,8.4s-30.6-3.3-42.7-8.4c6.8-14,23.3-27.1,42.7-27.1
		C245.5,244.2,262,257.4,268.8,271.3z"/>
</g>
<g>
</g>
<g>
</g>
<g>
</g>
<g>
</g>
<g>
</g>
<g>
</g>
<g>
</g>
<g>
</g>
<g>
</g>
<g>
</g>
<g>
</g>
<g>
</g>
<g>
</g>
<g>
</g>
<g>
</g>
</svg>
