<?xml version="1.0" encoding="iso-8859-1"?>
<!-- Generator: Adobe Illustrator 19.0.0, SVG Export Plug-In . SVG Version: 6.00 Build 0)  -->
<svg version="1.1" id="Layer_1" xmlns="http://www.w3.org/2000/svg" xmlns:xlink="http://www.w3.org/1999/xlink" x="0px" y="0px"
	 viewBox="0 0 505 505" style="enable-background:new 0 0 505 505;" xml:space="preserve">
<path style="fill:#FD8469;" d="M505,252.5C505,392,392,505,252.5,505S0,392,0,252.5C0,113.1,113,0,252.5,0
	c110.1,0,203.7,70.5,238.3,168.7c7.4,21,12.1,43.3,13.7,66.5C504.8,240.9,505,246.7,505,252.5z"/>
<polygon style="fill:#FFFFFF;" points="196.4,85.2 196.4,159.3 122.3,159.3 122.3,419.8 382.7,419.8 382.7,85.2 "/>
<polygon style="fill:#E6E9EE;" points="196.4,85.2 122.3,159.3 196.4,159.3 "/>
<g>
	<path style="fill:#324A5E;" d="M232.7,209.3l-8.4,19.1h-15.2l37.1-84.1h15.2l37.1,84.1h-15.2l-8.4-19.1L232.7,209.3L232.7,209.3z
		 M269,196.2l-15.3-34.7l-15.2,34.7H269z"/>
	<path style="fill:#324A5E;" d="M344.6,197.4h-10v-7c-4.3,5.2-10.1,7.8-17.4,7.8c-5.4,0-9.9-1.5-13.5-4.6s-5.4-7.2-5.4-12.3
		s1.9-9,5.7-11.5c3.8-2.6,8.9-3.8,15.4-3.8h14.2v-2c0-6.9-3.9-10.4-11.6-10.4c-4.8,0-9.9,1.8-15.1,5.3L302,152
		c6.3-5,13.6-7.6,21.6-7.6c6.2,0,11.2,1.6,15.1,4.7c3.9,3.1,5.8,8,5.8,14.7v33.6H344.6z M333.6,177.9v-4.4h-12.4
		c-7.9,0-11.9,2.5-11.9,7.5c0,2.6,1,4.5,2.9,5.8c2,1.3,4.7,2,8.2,2s6.6-1,9.2-2.9C332.3,183.9,333.6,181.2,333.6,177.9z"/>
</g>
<g>
	<rect x="148.1" y="263.8" style="fill:#E6E9EE;" width="208.7" height="17.3"/>
	<rect x="148.1" y="313.1" style="fill:#E6E9EE;" width="208.7" height="17.3"/>
	<rect x="148.1" y="362.4" style="fill:#E6E9EE;" width="149.2" height="17.3"/>
</g>
<g>
</g>
<g>
</g>
<g>
</g>
<g>
</g>
<g>
</g>
<g>
</g>
<g>
</g>
<g>
</g>
<g>
</g>
<g>
</g>
<g>
</g>
<g>
</g>
<g>
</g>
<g>
</g>
<g>
</g>
</svg>
