<?xml version="1.0" encoding="iso-8859-1"?>
<!-- Generator: Adobe Illustrator 19.0.0, SVG Export Plug-In . SVG Version: 6.00 Build 0)  -->
<svg version="1.1" id="Layer_1" xmlns="http://www.w3.org/2000/svg" xmlns:xlink="http://www.w3.org/1999/xlink" x="0px" y="0px"
	 viewBox="0 0 505 505" style="enable-background:new 0 0 505 505;" xml:space="preserve">
<circle style="fill:#FFD05B;" cx="252.5" cy="252.5" r="252.5"/>
<path style="fill:#FFFFFF;" d="M343.1,268.9h-80.8v-57.4h-19.7v57.4h-80.8c-5.4,0-9.9,4.4-9.9,9.9V372h19.7v-83.3h161.5V372h19.7
	v-93.2C353,273.4,348.6,268.9,343.1,268.9z"/>
<path style="fill:#FF7058;" d="M313.5,216.7h-122c-18.7,0-33.9-15.2-33.9-33.9v-61.2c0-18.7,15.2-33.9,33.9-33.9h122
	c18.7,0,33.9,15.2,33.9,33.9v61.2C347.4,201.6,332.2,216.7,313.5,216.7z"/>
<g>
	<path style="fill:#324A5E;" d="M368.2,417.3H318c-17.4,0-31.5-14.1-31.5-31.5v-17c0-17.4,14.1-31.5,31.5-31.5h50.2
		c17.4,0,31.5,14.1,31.5,31.5v17C399.7,403.2,385.6,417.3,368.2,417.3z"/>
	<path style="fill:#324A5E;" d="M187,417.3h-50.2c-17.4,0-31.5-14.1-31.5-31.5v-17c0-17.4,14.1-31.5,31.5-31.5H187
		c17.4,0,31.5,14.1,31.5,31.5v17C218.5,403.2,204.4,417.3,187,417.3z"/>
</g>
<g>
	<rect x="181.2" y="112.7" style="fill:#F1543F;" width="142.6" height="15.2"/>
	<rect x="181.2" y="144.6" style="fill:#F1543F;" width="142.6" height="15.2"/>
	<rect x="181.2" y="176.5" style="fill:#F1543F;" width="82.3" height="15.2"/>
</g>
<g>
</g>
<g>
</g>
<g>
</g>
<g>
</g>
<g>
</g>
<g>
</g>
<g>
</g>
<g>
</g>
<g>
</g>
<g>
</g>
<g>
</g>
<g>
</g>
<g>
</g>
<g>
</g>
<g>
</g>
</svg>
