<?xml version="1.0" encoding="iso-8859-1"?>
<!-- Generator: Adobe Illustrator 19.0.0, SVG Export Plug-In . SVG Version: 6.00 Build 0)  -->
<svg version="1.1" id="Layer_1" xmlns="http://www.w3.org/2000/svg" xmlns:xlink="http://www.w3.org/1999/xlink" x="0px" y="0px"
	 viewBox="0 0 505 505" style="enable-background:new 0 0 505 505;" xml:space="preserve">
<circle style="fill:#84DBFF;" cx="252.5" cy="252.5" r="252.5"/>
<path style="fill:#324A5E;" d="M252.5,148.1C194.9,148.1,148,195,148,252.6S194.9,357,252.5,357S357,310.1,357,252.5
	S310.1,148.1,252.5,148.1z M160.9,258.8h30.5c0.4,13.1,2.2,25.4,5.1,36.7h-25.2C165.4,284.4,161.8,272,160.9,258.8z M258.8,197
	v-35.5c12.9,3.3,24.4,16.6,32.2,35.5H258.8z M295.4,209.5c3.2,11.1,5.2,23.6,5.7,36.7h-42.3v-36.7H295.4z M246.2,161.5V197H214
	C221.8,178.1,233.3,164.8,246.2,161.5z M246.2,209.5v36.7h-42.3c0.5-13.1,2.5-25.6,5.7-36.7H246.2z M191.4,246.2h-30.5
	c0.9-13.2,4.5-25.6,10.4-36.7h25.2C193.6,220.8,191.8,233.1,191.4,246.2z M203.9,258.8h42.3v36.7h-36.6
	C206.4,284.3,204.4,271.9,203.9,258.8z M246.2,308v35.5c-12.9-3.3-24.4-16.6-32.2-35.5H246.2z M258.8,343.5V308H291
	C283.2,326.9,271.7,340.2,258.8,343.5z M258.8,295.5v-36.7h42.3c-0.5,13.1-2.5,25.6-5.7,36.7H258.8z M313.6,258.8h30.5
	c-0.9,13.2-4.5,25.6-10.4,36.7h-25.2C311.4,284.2,313.2,271.9,313.6,258.8z M313.6,246.2c-0.4-13.1-2.2-25.4-5.1-36.7h25.2
	c5.9,11.1,9.5,23.5,10.4,36.7H313.6z M325.6,197h-21c-4.1-11.3-9.4-21-15.6-28.8C303.5,174.5,316.1,184.5,325.6,197z M216,168.2
	c-6.2,7.8-11.5,17.5-15.6,28.8h-21C188.9,184.5,201.5,174.5,216,168.2z M179.4,308h21c4.1,11.3,9.4,21,15.6,28.8
	C201.5,330.5,188.9,320.5,179.4,308z M289,336.8c6.2-7.8,11.5-17.5,15.6-28.8h21C316.1,320.5,303.5,330.5,289,336.8z"/>
<path style="fill:#FFFFFF;" d="M391,104.6h-84.3v19h74.8v74.8h19v-84.3C400.5,108.8,396.2,104.6,391,104.6z M104.5,114v84.3h19
	v-74.8h74.8v-19H114C108.8,104.6,104.5,108.8,104.5,114z M381.5,306.7v74.8h-74.8v19H391c5.2,0,9.5-4.3,9.5-9.5v-84.3H381.5z
	 M123.5,306.7h-19V391c0,5.2,4.3,9.5,9.5,9.5h84.3v-19h-74.8V306.7z"/>
<g>
</g>
<g>
</g>
<g>
</g>
<g>
</g>
<g>
</g>
<g>
</g>
<g>
</g>
<g>
</g>
<g>
</g>
<g>
</g>
<g>
</g>
<g>
</g>
<g>
</g>
<g>
</g>
<g>
</g>
</svg>
