<?xml version="1.0" encoding="iso-8859-1"?>
<!-- Generator: Adobe Illustrator 19.0.0, SVG Export Plug-In . SVG Version: 6.00 Build 0)  -->
<svg version="1.1" id="Layer_1" xmlns="http://www.w3.org/2000/svg" xmlns:xlink="http://www.w3.org/1999/xlink" x="0px" y="0px"
	 viewBox="0 0 505 505" style="enable-background:new 0 0 505 505;" xml:space="preserve">
<circle style="fill:#84DBFF;" cx="252.5" cy="252.5" r="252.5"/>
<path style="fill:#324A5E;" d="M350.7,277.8H154.3c-15.2,0-27.6-12.3-27.6-27.6V139.4c0-15.2,12.3-27.6,27.6-27.6h196.5
	c15.2,0,27.6,12.3,27.6,27.6v110.9C378.3,265.5,366,277.8,350.7,277.8z"/>
<rect x="144.8" y="129.9" style="fill:#FFFFFF;" width="215.5" height="129.9"/>
<rect x="157.2" y="143.1" style="fill:#FF7058;" width="190.6" height="43.7"/>
<rect x="258.6" y="197.4" style="fill:#54C0EB;" width="89.2" height="49.1"/>
<rect x="157.2" y="197.4" style="fill:#2C9984;" width="38.1" height="49.1"/>
<rect x="206.6" y="197.4" style="fill:#FFD05B;" width="38.1" height="49.1"/>
<path style="fill:#324A5E;" d="M406,393.2c-76.7,0-306.9,0-306.9,0c-10.9,0-17-5.8-13.9-12.7l38.3-83.2c1.8-4,9.7-7.1,17.6-7.1h223
	c7.9,0,15.7,3.1,17.6,7.1l38.3,83.2C423,387.4,416.8,393.2,406,393.2z"/>
<g>
	<path style="fill:#2B3B4E;" d="M390.5,351.2l-22.2-53.7c-0.2-0.5-1-0.9-1.7-0.9H138.4c-0.8,0-1.5,0.4-1.7,0.9l-22.2,53.7H390.5z"/>
	<polygon style="fill:#2B3B4E;" points="295.7,384 209.3,384 211.8,362.8 293.2,362.8 	"/>
</g>
<g>
</g>
<g>
</g>
<g>
</g>
<g>
</g>
<g>
</g>
<g>
</g>
<g>
</g>
<g>
</g>
<g>
</g>
<g>
</g>
<g>
</g>
<g>
</g>
<g>
</g>
<g>
</g>
<g>
</g>
</svg>
