<?xml version="1.0" encoding="iso-8859-1"?>
<!-- Generator: Adobe Illustrator 19.0.0, SVG Export Plug-In . SVG Version: 6.00 Build 0)  -->
<svg version="1.1" id="Layer_1" xmlns="http://www.w3.org/2000/svg" xmlns:xlink="http://www.w3.org/1999/xlink" x="0px" y="0px"
	 viewBox="0 0 505 505" style="enable-background:new 0 0 505 505;" xml:space="preserve">
<circle style="fill:#FFD05B;" cx="252.5" cy="252.5" r="252.5"/>
<g>
	<path style="fill:#FF7058;" d="M375.5,259.3l-41.2,17.8c-27.8,12-60.2-0.9-72.2-28.7s0.9-60.2,28.7-72.2l41.2-17.8
		c27.8-12,60.2,0.9,72.2,28.7S403.3,247.3,375.5,259.3z M299.9,197.3c-16.1,7-23.6,25.8-16.7,41.9c7,16.1,25.8,23.6,41.9,16.7
		l41.2-17.8c16.1-7,23.6-25.8,16.7-41.9c-7-16.1-25.8-23.6-41.9-16.7L299.9,197.3z"/>
	<path style="fill:#FF7058;" d="M214.2,328.8L173,346.6c-27.8,12-60.2-0.9-72.2-28.7c-12-27.8,0.9-60.2,28.7-72.2l41.2-17.8
		c27.8-12,60.2,0.9,72.2,28.7S242.1,316.8,214.2,328.8z M138.6,266.9c-16.1,7-23.6,25.8-16.7,41.9c7,16.1,25.8,23.6,41.9,16.7
		l41.2-17.8c16.1-7,23.6-25.8,16.7-41.9c-7-16.1-25.8-23.6-41.9-16.7L138.6,266.9z"/>
</g>
<path style="fill:#324A5E;" d="M317.6,237l-121,52.2c-5.8,2.5-12.6-0.2-15.2-6s0.2-12.6,6-15.2l121-52.2c5.8-2.5,12.6,0.2,15.2,6
	S323.4,234.5,317.6,237z"/>
<g>
</g>
<g>
</g>
<g>
</g>
<g>
</g>
<g>
</g>
<g>
</g>
<g>
</g>
<g>
</g>
<g>
</g>
<g>
</g>
<g>
</g>
<g>
</g>
<g>
</g>
<g>
</g>
<g>
</g>
</svg>
