<?xml version="1.0" encoding="iso-8859-1"?>
<!-- Generator: Adobe Illustrator 19.0.0, SVG Export Plug-In . SVG Version: 6.00 Build 0)  -->
<svg version="1.1" id="Layer_1" xmlns="http://www.w3.org/2000/svg" xmlns:xlink="http://www.w3.org/1999/xlink" x="0px" y="0px"
	 viewBox="0 0 505 505" style="enable-background:new 0 0 505 505;" xml:space="preserve">
<circle style="fill:#324A5E;" cx="252.5" cy="252.5" r="252.5"/>
<path style="fill:#E6E9EE;" d="M308.5,281H208.2l-0.4-0.7L78.9,69.2c6-5.8,12.4-11.2,19-16.3c9.5-7.4,19.6-14.2,30.2-20.1
	c7.1-4.1,14.5-7.8,22.1-11.2L258,198.2l0,0l14.4,23.6l21.2,34.8l14.4,23.7L308.5,281z"/>
<path style="fill:#84DBFF;" d="M205.6,208.9c-12.8-27.4-30.7-52-43.1-79.4c-13.5-29.8-34.9-56.6-44.6-88c-0.2-0.8-0.4-1.6-0.6-2.3
	c-6.7,4.2-13.2,8.8-19.4,13.6c-6.6,5.1-12.9,10.5-19,16.3l128.9,211.2l0.4,0.7h35.6C227.7,258.4,216,231.3,205.6,208.9z"/>
<path style="fill:#FF7058;" d="M279.5,281H237l-0.4-0.7l-14.4-23.7L97.9,52.9c9.5-7.4,19.6-14.2,30.2-20.1l115.4,189.1l14.4,23.7
	l21.3,34.8L279.5,281z"/>
<path style="fill:#CED5E0;" d="M432.9,75.8L308,280.3l-0.4,0.7H207.3l0.4-0.7l14.4-23.7l21.2-34.8l14.5-23.7L363.3,25.6
	c7.4,3.6,14.6,7.6,21.6,11.9c10.4,6.4,20.2,13.5,29.5,21.3C420.8,64.1,427,69.8,432.9,75.8z"/>
<path style="fill:#54C0EB;" d="M339.8,225.1c-26.9,24.9-67.3-15.3-40.3-40.3c20.8-19.2,44.7-35.8,63.7-57
	c17.3-19.3,25-45.9,35.8-69.1c1.5-3.2,3.3-5.8,5.4-8c-6.2-4.7-12.7-9.2-19.4-13.3c-7-4.3-14.2-8.3-21.6-11.9L257.9,198.2l-14.5,23.7
	l-21.2,34.8l-14.4,23.7l-0.4,0.7h100.3l0.4-0.7l36-59C342.6,222.6,341.2,223.8,339.8,225.1z"/>
<path style="fill:#F1543F;" d="M414.4,58.7L293.6,256.6l-14.4,23.7l-0.4,0.7h-42.5l0.4-0.7l21.2-34.8l14.5-23.7L384.9,37.5
	C395.3,43.8,405.1,51,414.4,58.7z"/>
<polygon style="fill:#FFD05B;" points="378,332.1 402.9,307.1 378,282.2 391.5,249.6 358.9,236.1 358.9,200.8 323.6,200.8 
	310.1,168.2 277.5,181.7 252.5,156.7 227.5,181.7 194.9,168.2 181.4,200.8 146.1,200.8 146.1,236.1 113.5,249.6 127,282.2 
	102.1,307.1 127,332.1 113.5,364.7 146.1,378.2 146.1,413.5 181.4,413.5 194.9,446.1 227.5,432.6 252.5,457.5 277.5,432.6 
	310.1,446.1 323.6,413.5 358.9,413.5 358.9,378.2 391.5,364.7 "/>
<circle style="fill:#F9B54C;" cx="252.5" cy="307.1" r="100.4"/>
<circle style="fill:#FFD05B;" cx="252.5" cy="307.1" r="81.1"/>
<polygon style="fill:#F9B54C;" points="252.5,247 272,286.6 315.7,292.9 284.1,323.7 291.6,367.3 252.5,346.7 213.4,367.3 
	220.9,323.7 189.3,292.9 233,286.6 "/>
<g>
</g>
<g>
</g>
<g>
</g>
<g>
</g>
<g>
</g>
<g>
</g>
<g>
</g>
<g>
</g>
<g>
</g>
<g>
</g>
<g>
</g>
<g>
</g>
<g>
</g>
<g>
</g>
<g>
</g>
</svg>
