<?xml version="1.0" encoding="iso-8859-1"?>
<!-- Generator: Adobe Illustrator 19.0.0, SVG Export Plug-In . SVG Version: 6.00 Build 0)  -->
<svg version="1.1" id="Layer_1" xmlns="http://www.w3.org/2000/svg" xmlns:xlink="http://www.w3.org/1999/xlink" x="0px" y="0px"
	 viewBox="0 0 505 505" style="enable-background:new 0 0 505 505;" xml:space="preserve">
<circle style="fill:#FFD05B;" cx="252.5" cy="252.5" r="252.5"/>
<g>
	<path style="fill:#324A5E;" d="M329.8,207l-24.4-3v55.4l24.4-3c5.6-0.7,9.8-5.4,9.8-11v-27.2C339.6,212.4,335.4,207.7,329.8,207z"
		/>
	<path style="fill:#324A5E;" d="M159.9,356.9l-7.7-87.5h-36.8l14.2,91.2c1.2,7.4,7.6,12.9,15.1,12.9l0,0
		C153.6,373.5,160.6,365.8,159.9,356.9z"/>
</g>
<path style="fill:#FF7058;" d="M157.3,284.2h-40c-12.5,0-22.7-10.2-22.7-22.7v-59.7c0-12.5,10.2-22.7,22.7-22.7h40
	c10.3,0,18.7,8.4,18.7,18.7v67.6C176.1,275.8,167.7,284.2,157.3,284.2z"/>
<polygon style="fill:#324A5E;" points="176.1,268.6 278.2,310.4 278.2,152.9 176.1,194.6 "/>
<path style="fill:#FF7058;" d="M282.8,331.8h27.3c2.6,0,4.6-2.1,4.6-4.6v-191c0-2.6-2.1-4.6-4.6-4.6h-27.3c-2.6,0-4.6,2.1-4.6,4.6
	v191C278.2,329.7,280.3,331.8,282.8,331.8z"/>
<g>
	<polygon style="fill:#FFFFFF;" points="410.4,178.9 360.9,198 360.9,188.9 410.4,164.5 	"/>
	<polygon style="fill:#FFFFFF;" points="410.4,238.8 360.9,236.2 360.9,227 410.4,224.4 	"/>
	<polygon style="fill:#FFFFFF;" points="410.4,298.7 360.9,274.4 360.9,265.2 410.4,284.3 	"/>
</g>
<g>
</g>
<g>
</g>
<g>
</g>
<g>
</g>
<g>
</g>
<g>
</g>
<g>
</g>
<g>
</g>
<g>
</g>
<g>
</g>
<g>
</g>
<g>
</g>
<g>
</g>
<g>
</g>
<g>
</g>
</svg>
