<?xml version="1.0" encoding="iso-8859-1"?>
<!-- Generator: Adobe Illustrator 19.0.0, SVG Export Plug-In . SVG Version: 6.00 Build 0)  -->
<svg version="1.1" id="Layer_1" xmlns="http://www.w3.org/2000/svg" xmlns:xlink="http://www.w3.org/1999/xlink" x="0px" y="0px"
	 viewBox="0 0 505 505" style="enable-background:new 0 0 505 505;" xml:space="preserve">
<circle style="fill:#90DFAA;" cx="252.5" cy="252.5" r="252.5"/>
<polygon style="fill:#2B3B4E;" points="314.2,333.4 190.8,333.4 178.7,377.9 326.3,377.9 "/>
<path style="fill:#FFFFFF;" d="M363.1,398.8v-10.6c0-10.4-8.5-18.9-18.9-18.9H160.8c-10.4,0-18.9,8.5-18.9,18.9v10.6H363.1z"/>
<path style="fill:#324A5E;" d="M406.9,106.2H98.1c-6.4,0-11.6,5.2-11.6,11.6v181h332v-181C418.5,111.4,413.3,106.2,406.9,106.2z"/>
<path style="fill:#FFFFFF;" d="M86.5,289.6v37.7c0,6.4,5.2,11.6,11.6,11.6H407c6.4,0,11.6-5.2,11.6-11.6v-37.7H86.5z"/>
<circle style="fill:#ACB3BA;" cx="252.5" cy="314.2" r="11.3"/>
<g>
</g>
<g>
</g>
<g>
</g>
<g>
</g>
<g>
</g>
<g>
</g>
<g>
</g>
<g>
</g>
<g>
</g>
<g>
</g>
<g>
</g>
<g>
</g>
<g>
</g>
<g>
</g>
<g>
</g>
</svg>
