<?xml version="1.0" encoding="iso-8859-1"?>
<!-- Generator: Adobe Illustrator 19.0.0, SVG Export Plug-In . SVG Version: 6.00 Build 0)  -->
<svg version="1.1" id="Layer_1" xmlns="http://www.w3.org/2000/svg" xmlns:xlink="http://www.w3.org/1999/xlink" x="0px" y="0px"
	 viewBox="0 0 505 505" style="enable-background:new 0 0 505 505;" xml:space="preserve">
<circle style="fill:#FD8469;" cx="252.5" cy="252.5" r="252.5"/>
<g>
	<path style="fill:#FFFFFF;" d="M293,188.6c0,26.6-18.1,56.6-40.5,56.6s-40.5-30-40.5-56.6s18.1-39.8,40.5-39.8
		C274.9,148.7,293,161.9,293,188.6z"/>
	<path style="fill:#FFFFFF;" d="M342.7,314c-25.6,10.8-56.7,17.8-90.2,17.8s-64.6-7-90.2-17.8c14.3-29.5,49.3-57.2,90.2-57.2
		S328.4,284.4,342.7,314z"/>
	<path style="fill:#FFFFFF;" d="M252.5,437.1c-101.8,0-184.6-82.8-184.6-184.6S150.7,67.9,252.5,67.9s184.6,82.8,184.6,184.6
		S354.3,437.1,252.5,437.1z M252.5,83.7c-93.1,0-168.8,75.7-168.8,168.8s75.7,168.8,168.8,168.8s168.8-75.7,168.8-168.8
		S345.6,83.7,252.5,83.7z"/>
</g>
<g>
	<circle style="fill:#324A5E;" cx="377.5" cy="127.5" r="33.3"/>
	<circle style="fill:#324A5E;" cx="127.5" cy="377.5" r="33.3"/>
	<circle style="fill:#324A5E;" cx="377.5" cy="377.5" r="33.3"/>
	<circle style="fill:#324A5E;" cx="127.5" cy="127.5" r="33.3"/>
</g>
<g>
</g>
<g>
</g>
<g>
</g>
<g>
</g>
<g>
</g>
<g>
</g>
<g>
</g>
<g>
</g>
<g>
</g>
<g>
</g>
<g>
</g>
<g>
</g>
<g>
</g>
<g>
</g>
<g>
</g>
</svg>
