<?xml version="1.0" encoding="iso-8859-1"?>
<!-- Generator: Adobe Illustrator 19.0.0, SVG Export Plug-In . SVG Version: 6.00 Build 0)  -->
<svg version="1.1" id="Layer_1" xmlns="http://www.w3.org/2000/svg" xmlns:xlink="http://www.w3.org/1999/xlink" x="0px" y="0px"
	 viewBox="0 0 482.2 482.2" style="enable-background:new 0 0 482.2 482.2;" xml:space="preserve">
<circle style="fill:#90DFAA;" cx="241.1" cy="241.1" r="241.1"/>
<rect x="120.7" y="105.2" style="fill:#324A5E;" width="240.9" height="292"/>
<polygon style="fill:#FFFFFF;" points="144.3,126.9 144.3,359.8 291.7,359.8 291.7,313.6 337.9,313.6 337.9,126.9 "/>
<polygon style="fill:#E6E9EE;" points="291.7,359.8 337.9,313.6 291.7,313.6 "/>
<path style="fill:#FF7058;" d="M270.7,92.6C270,76.8,257,64.2,241.1,64.2s-28.9,12.6-29.6,28.4h-40.7v47.1h140.7V92.6
	C311.5,92.6,270.7,92.6,270.7,92.6z"/>
<g>
	<rect x="164.9" y="161.6" style="fill:#E6E9EE;" width="152.3" height="16.4"/>
	<rect x="164.9" y="199.8" style="fill:#E6E9EE;" width="152.3" height="16.4"/>
	<rect x="164.9" y="237.9" style="fill:#E6E9EE;" width="152.3" height="16.4"/>
	<rect x="164.9" y="276.1" style="fill:#E6E9EE;" width="73.3" height="16.4"/>
</g>
<g>
</g>
<g>
</g>
<g>
</g>
<g>
</g>
<g>
</g>
<g>
</g>
<g>
</g>
<g>
</g>
<g>
</g>
<g>
</g>
<g>
</g>
<g>
</g>
<g>
</g>
<g>
</g>
<g>
</g>
</svg>
