<?xml version="1.0" encoding="iso-8859-1"?>
<!-- Generator: Adobe Illustrator 19.0.0, SVG Export Plug-In . SVG Version: 6.00 Build 0)  -->
<svg version="1.1" id="Layer_1" xmlns="http://www.w3.org/2000/svg" xmlns:xlink="http://www.w3.org/1999/xlink" x="0px" y="0px"
	 viewBox="0 0 505 505" style="enable-background:new 0 0 505 505;" xml:space="preserve">
<circle style="fill:#84DBFF;" cx="252.5" cy="252.5" r="252.5"/>
<g>
	<circle style="fill:#324A5E;" cx="252.5" cy="126" r="42.4"/>
	<path style="fill:#324A5E;" d="M301.5,241.3l-14-71.2h-70l-14,71.2c-3.3,16.5-13.5,32.6-28.8,46.2c-22.4,20-39.4,49.4-44.8,84.7
		c-0.8,5.2-1.3,10.4-1.5,15.5c-0.3,6.5,4.7,11.5,11.3,11.5h225.5c6.7,0,11.7-5,11.3-11.5c-0.2-5.2-0.8-10.3-1.5-15.5
		c-5.3-35.3-22.3-64.7-44.8-84.7C315,273.9,304.7,257.8,301.5,241.3z"/>
</g>
<g>
	<path style="fill:#2B3B4E;" d="M294.2,180.8h-83.3c-6.8,0-12.3-5.5-12.3-12.3l0,0c0-6.8,5.5-12.3,12.3-12.3h83.3
		c6.8,0,12.3,5.5,12.3,12.3l0,0C306.5,175.3,301,180.8,294.2,180.8z"/>
	<path style="fill:#2B3B4E;" d="M369.3,371.6H135.7c-7.7,0-14-6.3-14-14l0,0c0-7.7,6.3-14,14-14h233.6c7.7,0,14,6.3,14,14l0,0
		C383.3,365.4,377,371.6,369.3,371.6z"/>
</g>
<circle style="fill:#FFFFFF;" cx="240.6" cy="107.4" r="7.9"/>
<g>
</g>
<g>
</g>
<g>
</g>
<g>
</g>
<g>
</g>
<g>
</g>
<g>
</g>
<g>
</g>
<g>
</g>
<g>
</g>
<g>
</g>
<g>
</g>
<g>
</g>
<g>
</g>
<g>
</g>
</svg>
