<?xml version="1.0" encoding="iso-8859-1"?>
<!-- Generator: Adobe Illustrator 19.0.0, SVG Export Plug-In . SVG Version: 6.00 Build 0)  -->
<svg version="1.1" id="Layer_1" xmlns="http://www.w3.org/2000/svg" xmlns:xlink="http://www.w3.org/1999/xlink" x="0px" y="0px"
	 viewBox="0 0 505 505" style="enable-background:new 0 0 505 505;" xml:space="preserve">
<circle style="fill:#90DFAA;" cx="252.5" cy="252.5" r="252.5"/>
<polygon style="fill:#FFFFFF;" points="278.9,226.1 210.1,157.4 187.5,180 112.7,392.3 325,317.5 347.6,294.9 "/>
<polygon style="fill:#324A5E;" points="141.9,309.5 112.7,392.3 195.5,363.1 "/>
<path style="fill:#FF7058;" d="M187.5,180L348.6,19c10.4,4.2,20.5,9.2,30.4,15L232.8,180.1L187.5,180z"/>
<g>
	<path style="fill:#F1543F;" d="M325,272.2L471.2,126c5.7,9.8,10.7,19.9,14.9,30.3L325,317.5V272.2z"/>
	<path style="fill:#F1543F;" d="M232.8,180.1L378.9,33.9C397.5,44.7,415.1,58,431,74L278.9,226.1h-46.1L232.8,180.1z"/>
</g>
<path style="fill:#FF7058;" d="M278.9,226.1L431,74c15.9,15.9,29.3,33.5,40.1,52.1L325,272.2h-46.1V226.1z"/>
<g>
</g>
<g>
</g>
<g>
</g>
<g>
</g>
<g>
</g>
<g>
</g>
<g>
</g>
<g>
</g>
<g>
</g>
<g>
</g>
<g>
</g>
<g>
</g>
<g>
</g>
<g>
</g>
<g>
</g>
</svg>
