<?xml version="1.0" encoding="iso-8859-1"?>
<!-- Generator: Adobe Illustrator 19.0.0, SVG Export Plug-In . SVG Version: 6.00 Build 0)  -->
<svg version="1.1" id="Layer_1" xmlns="http://www.w3.org/2000/svg" xmlns:xlink="http://www.w3.org/1999/xlink" x="0px" y="0px"
	 viewBox="0 0 505 505" style="enable-background:new 0 0 505 505;" xml:space="preserve">
<circle style="fill:#84DBFF;" cx="252.5" cy="252.5" r="252.5"/>
<path style="fill:#FF7058;" d="M382.2,199c0,137.5-129.7,236.7-129.7,236.7S122.8,335.5,122.8,199c0-71.6,58.1-129.7,129.7-129.7
	S382.2,127.3,382.2,199z"/>
<path style="fill:#FFFFFF;" d="M341.2,215.8v-21.3l-17.4-2.1c-1.9-10.5-6-20.3-11.9-28.7l10.8-13.8l-15-15l-13.8,10.8
	c-8.4-5.9-18.2-10-28.7-11.9l-2.1-17.4h-21.3l-2.1,17.4c-10.5,1.9-20.3,6-28.7,11.9l-13.8-10.8l-15,15l10.8,13.8
	c-5.9,8.4-10,18.2-11.9,28.7l-17.4,2.1v21.3l17.4,2.1c1.9,10.5,6,20.3,11.9,28.7l-10.8,13.8l15,15l13.8-10.8
	c8.4,5.9,18.2,10,28.7,11.9l2.1,17.4h21.3l2.1-17.4c10.5-1.9,20.3-6,28.7-11.9l13.8,10.8l15-15l-10.8-13.8
	c5.9-8.4,10-18.2,11.9-28.7L341.2,215.8z"/>
<circle style="fill:#FF7058;" cx="252.5" cy="205.2" r="41.7"/>
<g>
</g>
<g>
</g>
<g>
</g>
<g>
</g>
<g>
</g>
<g>
</g>
<g>
</g>
<g>
</g>
<g>
</g>
<g>
</g>
<g>
</g>
<g>
</g>
<g>
</g>
<g>
</g>
<g>
</g>
</svg>
