<?xml version="1.0" encoding="iso-8859-1"?>
<!-- Generator: Adobe Illustrator 19.0.0, SVG Export Plug-In . SVG Version: 6.00 Build 0)  -->
<svg version="1.1" id="Layer_1" xmlns="http://www.w3.org/2000/svg" xmlns:xlink="http://www.w3.org/1999/xlink" x="0px" y="0px"
	 viewBox="0 0 505 505" style="enable-background:new 0 0 505 505;" xml:space="preserve">
<circle style="fill:#90DFAA;" cx="252.5" cy="252.5" r="252.5"/>
<g>
	<rect x="235.8" y="99.1" style="fill:#FF7058;" width="33.3" height="35.2"/>
	<polygon style="fill:#FF7058;" points="204.9,432.7 244.7,347.8 208.5,347.8 168.8,432.7 	"/>
	<polygon style="fill:#FF7058;" points="336.2,432.7 296.5,347.8 260.3,347.8 300.1,432.7 	"/>
</g>
<rect x="93.9" y="148.1" style="fill:#2B3B4E;" width="317.1" height="210.6"/>
<rect x="78" y="120.5" style="fill:#324A5E;" width="349.1" height="27.6"/>
<rect x="116.7" y="170.8" style="fill:#E6E9EE;" width="271.7" height="165.2"/>
<path style="fill:#54C0EB;" d="M361.6,219.2c-1.5-12.3-12.7-21.1-25.1-19.6c-12.3,1.5-21.1,12.7-19.6,25.1c0.5,4.1,2.1,7.8,4.4,10.8
	l-28.2,36.9c-3.6-1.7-7.8-2.4-12.1-1.9c-2.5,0.3-4.8,1-7,2l-35.1-44.4c3.7-4.6,5.6-10.5,4.8-16.8c-1.5-12.3-12.7-21.1-25.1-19.6
	c-12.3,1.5-21.1,12.7-19.6,25.1c0.5,4.4,2.4,8.4,5,11.6l-28.1,36.5c-3.8-2-8.3-2.8-12.9-2.3c-12.3,1.5-21.1,12.7-19.6,25.1
	c1.5,12.3,12.7,21.1,25.1,19.6c12.3-1.5,21.1-12.7,19.6-25.1c-0.5-4.1-2.1-7.9-4.5-10.9l28.3-36.8c3.7,1.7,7.8,2.4,12.1,1.9
	c2.5-0.3,4.8-1,7-2l35.1,44.4c-3.7,4.6-5.6,10.5-4.8,16.8c1.5,12.3,12.7,21.1,25.1,19.6c12.3-1.5,21.1-12.7,19.6-25.1
	c-0.5-4.5-2.4-8.4-5-11.7l27.9-36.5c3.9,2,8.4,2.9,13,2.3C354.3,242.8,363.1,231.6,361.6,219.2z"/>
<g>
</g>
<g>
</g>
<g>
</g>
<g>
</g>
<g>
</g>
<g>
</g>
<g>
</g>
<g>
</g>
<g>
</g>
<g>
</g>
<g>
</g>
<g>
</g>
<g>
</g>
<g>
</g>
<g>
</g>
</svg>
