<?xml version="1.0" encoding="iso-8859-1"?>
<!-- Generator: Adobe Illustrator 19.0.0, SVG Export Plug-In . SVG Version: 6.00 Build 0)  -->
<svg version="1.1" id="Layer_1" xmlns="http://www.w3.org/2000/svg" xmlns:xlink="http://www.w3.org/1999/xlink" x="0px" y="0px"
	 viewBox="0 0 505 505" style="enable-background:new 0 0 505 505;" xml:space="preserve">
<circle style="fill:#324A5E;" cx="252.5" cy="252.5" r="252.5"/>
<circle style="fill:#E6E9EE;" cx="252.5" cy="252.5" r="199.5"/>
<path style="fill:#FFFFFF;" d="M452,252.5C452,362.7,362.7,452,252.5,452S53,362.7,53,252.5S142.3,53,252.5,53
	c26.7,0,52.3,5.3,75.6,14.8c34,14,63.3,37,84.8,66.1C437.5,167.1,452,208.1,452,252.5z"/>
<g>
	<path style="fill:#E6E9EE;" d="M252.5,398.4c-80.5,0-145.9-65.5-145.9-145.9S172,106.6,252.5,106.6S398.4,172,398.4,252.5
		S333,398.4,252.5,398.4z M252.5,118.4c-73.9,0-134.1,60.2-134.1,134.1s60.2,134.1,134.1,134.1s134.1-60.2,134.1-134.1
		S326.4,118.4,252.5,118.4z"/>
	<path style="fill:#E6E9EE;" d="M252.5,335.1c-45.5,0-82.6-37-82.6-82.6c0-45.5,37-82.6,82.6-82.6s82.6,37,82.6,82.6
		C335.1,298,298,335.1,252.5,335.1z M252.5,181.8c-39,0-70.7,31.7-70.7,70.7s31.7,70.7,70.7,70.7s70.7-31.7,70.7-70.7
		S291.5,181.8,252.5,181.8z"/>
	<path style="fill:#E6E9EE;" d="M252.5,284c-17.4,0-31.5-14.1-31.5-31.5s14.1-31.5,31.5-31.5s31.5,14.1,31.5,31.5
		S269.8,284,252.5,284z M252.5,232.9c-10.8,0-19.6,8.8-19.6,19.6c0,10.8,8.8,19.6,19.6,19.6c10.8,0,19.6-8.8,19.6-19.6
		C272.1,241.7,263.3,232.9,252.5,232.9z"/>
</g>
<circle style="fill:#84DBFF;" cx="127.8" cy="191" r="20.1"/>
<circle style="fill:#FF7058;" cx="328.9" cy="252.5" r="20.1"/>
<circle style="fill:#4CDBC4;" cx="324.6" cy="372.4" r="20.1"/>
<path style="fill:#CED5E0;" d="M412.9,134L252.5,252.5l75.6-184.6C362.1,81.8,391.4,104.9,412.9,134z"/>
<g>
</g>
<g>
</g>
<g>
</g>
<g>
</g>
<g>
</g>
<g>
</g>
<g>
</g>
<g>
</g>
<g>
</g>
<g>
</g>
<g>
</g>
<g>
</g>
<g>
</g>
<g>
</g>
<g>
</g>
</svg>
