<?xml version="1.0" encoding="iso-8859-1"?>
<!-- Generator: Adobe Illustrator 19.0.0, SVG Export Plug-In . SVG Version: 6.00 Build 0)  -->
<svg version="1.1" id="Layer_1" xmlns="http://www.w3.org/2000/svg" xmlns:xlink="http://www.w3.org/1999/xlink" x="0px" y="0px"
	 viewBox="0 0 505 505" style="enable-background:new 0 0 505 505;" xml:space="preserve">
<circle style="fill:#324A5E;" cx="252.5" cy="252.5" r="252.5"/>
<g>
	<path style="fill:#E6E9EE;" d="M431.6,373.1c0,9.9-4,18.8-10.5,25.3s-15.4,10.5-25.3,10.5H109.1c-19.7,0-35.7-16-35.7-35.7
		c0-4.3,3.5-7.8,7.8-7.8h117l9.7,15.1H297l9.7-15.1h117C428.2,365.4,431.6,368.9,431.6,373.1z"/>
	<path style="fill:#E6E9EE;" d="M373.1,348.7H131.9c-15.2,0-27.5-12.3-27.5-27.5V176.7c0-15.2,12.3-27.5,27.5-27.5h241.2
		c15.2,0,27.5,12.3,27.5,27.5v144.4C400.6,336.4,388.3,348.7,373.1,348.7z"/>
</g>
<rect x="130" y="174.9" style="fill:#54C0EB;" width="244.9" height="148.1"/>
<rect x="306.9" y="125.4" style="fill:#4CDBC4;" width="119.3" height="123.9"/>
<g>
	<path style="fill:#FFFFFF;" d="M426.2,129.3v-10.2c0-6.5-5.3-11.8-11.8-11.8h-95.7c-6.5,0-11.8,5.3-11.8,11.8v10.2H426.2z"/>
	<path style="fill:#FFFFFF;" d="M306.9,247.5v16.3c0,6.5,5.3,11.8,11.8,11.8h95.7c6.5,0,11.8-5.3,11.8-11.8v-16.3H306.9z"/>
</g>
<circle style="fill:#E6E9EE;" cx="366.6" cy="261.6" r="6.5"/>
<g>
	<path style="fill:#CED5E0;" d="M389.4,121.1H362c-1.6,0-2.9-1.3-2.9-2.9l0,0c0-1.6,1.3-2.9,2.9-2.9h27.4c1.6,0,2.9,1.3,2.9,2.9l0,0
		C392.3,119.8,391,121.1,389.4,121.1z"/>
	<path style="fill:#CED5E0;" d="M349.4,121.1h-5.6c-1.6,0-2.9-1.3-2.9-2.9l0,0c0-1.6,1.3-2.9,2.9-2.9h5.6c1.6,0,2.9,1.3,2.9,2.9l0,0
		C352.2,119.8,351,121.1,349.4,121.1z"/>
</g>
<g>
</g>
<g>
</g>
<g>
</g>
<g>
</g>
<g>
</g>
<g>
</g>
<g>
</g>
<g>
</g>
<g>
</g>
<g>
</g>
<g>
</g>
<g>
</g>
<g>
</g>
<g>
</g>
<g>
</g>
</svg>
