<?xml version="1.0" encoding="iso-8859-1"?>
<!-- Generator: Adobe Illustrator 19.0.0, SVG Export Plug-In . SVG Version: 6.00 Build 0)  -->
<svg version="1.1" id="Layer_1" xmlns="http://www.w3.org/2000/svg" xmlns:xlink="http://www.w3.org/1999/xlink" x="0px" y="0px"
	 viewBox="0 0 505 505" style="enable-background:new 0 0 505 505;" xml:space="preserve">
<circle style="fill:#90DFAA;" cx="252.5" cy="252.5" r="252.5"/>
<rect x="238.3" y="272.5" style="fill:#2B3B4E;" width="28.5" height="45.2"/>
<circle style="fill:#324A5E;" cx="252.5" cy="166.4" r="118.2"/>
<circle style="fill:#84DBFF;" cx="252.5" cy="166.4" r="90.7"/>
<g>
	<path style="fill:#FFFFFF;" d="M190.6,167.8V158l34.7-16.3v10.5l-22.9,10.6l22.9,10.8v10.6L190.6,167.8z"/>
	<path style="fill:#FFFFFF;" d="M262.4,133.6h10.1l-30,65.4h-10L262.4,133.6z"/>
	<path style="fill:#FFFFFF;" d="M314.4,158.1v9.8l-34.7,16.3v-10.6l22.9-10.8l-22.9-10.6v-10.5L314.4,158.1z"/>
</g>
<path style="fill:#FF7058;" d="M279.5,310.7h-54c-1.3,0-2.4,1.1-2.4,2.4v141.4c0,1.3,1.1,2.4,2.4,2.4h54c1.3,0,2.4-1.1,2.4-2.4V313
	C281.9,311.7,280.8,310.7,279.5,310.7z"/>
<g>
	<rect x="223.1" y="331.8" style="fill:#FFFFFF;" width="58.7" height="14.5"/>
	<rect x="223.1" y="421.2" style="fill:#FFFFFF;" width="58.7" height="14.5"/>
</g>
<g>
</g>
<g>
</g>
<g>
</g>
<g>
</g>
<g>
</g>
<g>
</g>
<g>
</g>
<g>
</g>
<g>
</g>
<g>
</g>
<g>
</g>
<g>
</g>
<g>
</g>
<g>
</g>
<g>
</g>
</svg>
