<?xml version="1.0" encoding="iso-8859-1"?>
<!-- Generator: Adobe Illustrator 19.0.0, SVG Export Plug-In . SVG Version: 6.00 Build 0)  -->
<svg version="1.1" id="Layer_1" xmlns="http://www.w3.org/2000/svg" xmlns:xlink="http://www.w3.org/1999/xlink" x="0px" y="0px"
	 viewBox="0 0 505 505" style="enable-background:new 0 0 505 505;" xml:space="preserve">
<circle style="fill:#90DFAA;" cx="252.5" cy="252.5" r="252.5"/>
<rect x="131.1" y="149.3" style="fill:#E6E9EE;" width="242.8" height="136.6"/>
<g>
	<rect x="239.5" y="340.9" style="fill:#324A5E;" width="26" height="76.3"/>
	<path style="fill:#324A5E;" d="M348.9,400.8H156.1c-7.2,0-13,5.8-13,13l0,0c0,7.2,5.8,13,13,13h192.8c7.2,0,13-5.8,13-13l0,0
		C361.9,406.6,356.1,400.8,348.9,400.8z"/>
</g>
<g>
	<path style="fill:#FFFFFF;" d="M388.8,91H116.2c-6.1,0-11.1,5-11.1,11.1v52.3c0,6.1,5,11.1,11.1,11.1h272.5c6.1,0,11.1-5,11.1-11.1
		v-52.3C399.9,96,394.9,91,388.8,91z"/>
	<path style="fill:#FFFFFF;" d="M388.8,184.1H116.2c-6.1,0-11.1,5-11.1,11.1v52.3c0,6.1,5,11.1,11.1,11.1h272.5
		c6.1,0,11.1-5,11.1-11.1v-52.3C399.9,189,394.9,184.1,388.8,184.1z"/>
	<path style="fill:#FFFFFF;" d="M388.8,277.1H116.2c-6.1,0-11.1,5-11.1,11.1v52.3c0,6.1,5,11.1,11.1,11.1h272.5
		c6.1,0,11.1-5,11.1-11.1v-52.3C399.9,282.1,394.9,277.1,388.8,277.1z"/>
</g>
<circle style="fill:#E6E9EE;" cx="252.5" cy="413.8" r="31.9"/>
<circle style="fill:#FF7058;" cx="143.9" cy="128.2" r="13.8"/>
<circle style="fill:#54C0EB;" cx="186.7" cy="128.2" r="13.8"/>
<g>
	<rect x="284.4" y="109.4" style="fill:#CED5E0;" width="18.9" height="37.6"/>
	<rect x="320.8" y="109.4" style="fill:#CED5E0;" width="18.9" height="37.6"/>
	<rect x="357.2" y="109.4" style="fill:#CED5E0;" width="18.9" height="37.6"/>
</g>
<circle style="fill:#FF7058;" cx="143.9" cy="221.3" r="13.8"/>
<circle style="fill:#54C0EB;" cx="186.7" cy="221.3" r="13.8"/>
<g>
	<rect x="284.4" y="202.5" style="fill:#CED5E0;" width="18.9" height="37.6"/>
	<rect x="320.8" y="202.5" style="fill:#CED5E0;" width="18.9" height="37.6"/>
	<rect x="357.2" y="202.5" style="fill:#CED5E0;" width="18.9" height="37.6"/>
</g>
<circle style="fill:#FF7058;" cx="143.9" cy="314.3" r="13.8"/>
<circle style="fill:#54C0EB;" cx="186.7" cy="314.3" r="13.8"/>
<g>
	<rect x="284.4" y="295.6" style="fill:#CED5E0;" width="18.9" height="37.6"/>
	<rect x="320.8" y="295.6" style="fill:#CED5E0;" width="18.9" height="37.6"/>
	<rect x="357.2" y="295.6" style="fill:#CED5E0;" width="18.9" height="37.6"/>
</g>
<g>
</g>
<g>
</g>
<g>
</g>
<g>
</g>
<g>
</g>
<g>
</g>
<g>
</g>
<g>
</g>
<g>
</g>
<g>
</g>
<g>
</g>
<g>
</g>
<g>
</g>
<g>
</g>
<g>
</g>
</svg>
