<?xml version="1.0" encoding="iso-8859-1"?>
<!-- Generator: Adobe Illustrator 19.0.0, SVG Export Plug-In . SVG Version: 6.00 Build 0)  -->
<svg version="1.1" id="Layer_1" xmlns="http://www.w3.org/2000/svg" xmlns:xlink="http://www.w3.org/1999/xlink" x="0px" y="0px"
	 viewBox="0 0 505 505" style="enable-background:new 0 0 505 505;" xml:space="preserve">
<circle style="fill:#84DBFF;" cx="252.5" cy="252.5" r="252.5"/>
<path style="fill:#2B3B4E;" d="M210.7,340.2c1.5-6.6,2-13.1,1.7-19.4c-0.9-14.1,4.2-27.9,14.2-37.9l56.4-56.4
	c10.1-10.1,24.1-14.9,38.4-14.1c1.2,0.1,2.4,0.1,3.5,0.1c25.1,0,46.9-13.6,58.6-33.8H329l-14.8-33.9l14.8-33.9h54.5
	c-12.3-21.2-35.7-35.1-62.3-33.7c-31.1,1.6-57.4,25-63,55.6c-1,5.5-1.3,10.9-1,16.1c0.9,14.1-4.2,27.9-14.1,37.9l-56.4,56.4
	c-10.1,10.1-24.1,14.9-38.4,14.1c-1.2-0.1-2.4-0.1-3.5-0.1c-25.1,0-46.9,13.6-58.6,33.8h54.5l14.8,33.9l-14.8,33.9H86.2
	c12.9,22.2,38,36.5,66.1,33.4C180.6,389.1,204.2,367.9,210.7,340.2z"/>
<polygon style="fill:#FFFFFF;" points="155.1,113.1 110.7,94.7 94.7,110.7 113.1,155.1 151.9,166.5 279.4,294 294,279.4 
	166.5,151.9 "/>
<path style="fill:#F1543F;" d="M395.9,395.9L395.9,395.9c-20.3,20.3-53.7,19-72.3-3l-57.7-68l59-59l68,57.7
	C414.9,342.2,416.2,375.6,395.9,395.9z"/>
<g>
	<path style="fill:#FF7058;" d="M330.1,260.6l-69.5,69.5c-1.1,1.1-2.8,1.1-3.9,0l-13.5-13.5c-1.1-1.1-1.1-2.8,0-3.9l69.5-69.5
		c1.1-1.1,2.8-1.1,3.9,0l13.5,13.5C331.2,257.8,331.2,259.6,330.1,260.6z"/>
	<path style="fill:#FF7058;" d="M382.1,348.4L382.1,348.4c-2.8,2.8-7.4,2.8-10.2,0l-42.3-42.3c-2.8-2.8-2.8-7.4,0-10.2l0,0
		c2.8-2.8,7.4-2.8,10.2,0l42.3,42.3C384.9,341,384.9,345.6,382.1,348.4z"/>
	<path style="fill:#FF7058;" d="M348.4,382.1L348.4,382.1c-2.8,2.8-7.4,2.8-10.2,0l-42.3-42.3c-2.8-2.8-2.8-7.4,0-10.2l0,0
		c2.8-2.8,7.4-2.8,10.2,0l42.3,42.3C351.2,374.7,351.2,379.3,348.4,382.1z"/>
	<path style="fill:#FF7058;" d="M365.3,365.3L365.3,365.3c-2.8,2.8-7.4,2.8-10.2,0L312.8,323c-2.8-2.8-2.8-7.4,0-10.2l0,0
		c2.8-2.8,7.4-2.8,10.2,0l42.3,42.3C368.1,357.9,368.1,362.4,365.3,365.3z"/>
</g>
<g>
</g>
<g>
</g>
<g>
</g>
<g>
</g>
<g>
</g>
<g>
</g>
<g>
</g>
<g>
</g>
<g>
</g>
<g>
</g>
<g>
</g>
<g>
</g>
<g>
</g>
<g>
</g>
<g>
</g>
</svg>
