<?xml version="1.0" encoding="iso-8859-1"?>
<!-- Generator: Adobe Illustrator 19.0.0, SVG Export Plug-In . SVG Version: 6.00 Build 0)  -->
<svg version="1.1" id="Layer_1" xmlns="http://www.w3.org/2000/svg" xmlns:xlink="http://www.w3.org/1999/xlink" x="0px" y="0px"
	 viewBox="0 0 505 505" style="enable-background:new 0 0 505 505;" xml:space="preserve">
<circle style="fill:#54C0EB;" cx="252.5" cy="252.5" r="252.5"/>
<path style="fill:#FFFFFF;" d="M419.3,262.2v-19.4l-25.6-9.1c-0.8-6.1-2-12-3.5-17.8l20.1-18.2l-7.5-18l-27.1,1.4
	c-3-5.2-6.4-10.3-10-15l11.6-24.6l-13.8-13.7l-24.6,11.6c-4.8-3.6-9.8-7-15-10l1.4-27.2l-18-7.4l-18.2,20.1
	c-5.8-1.5-11.7-2.7-17.8-3.5l-9.1-25.6h-19.5l-9.1,25.6c-6.1,0.8-12,2-17.8,3.5l-18.2-20.1l-18,7.4l1.4,27.2c-5.2,3-10.3,6.4-15,10
	l-24.6-11.6l-13.8,13.7l11.7,24.6c-3.7,4.8-7,9.8-10.1,15l-27.1-1.4l-7.4,18l20.1,18.2c-1.6,5.8-2.7,11.7-3.5,17.8l-25.6,9.1v19.4
	l25.6,9.1c0.8,6,1.9,12,3.5,17.8l-20.1,18.2l7.4,18l27.1-1.4c3.1,5.2,6.4,10.3,10.1,15l-11.7,24.6l13.8,13.7l24.6-11.6
	c4.8,3.7,9.8,7,15,10l-1.4,27.1l18,7.5l18.2-20.1c5.8,1.5,11.7,2.7,17.8,3.5l9.1,25.6h19.5l9.1-25.6c6-0.8,12-2,17.8-3.5l18.2,20.1
	l18-7.5l-1.4-27.1c5.2-3,10.3-6.4,15-10l24.6,11.6l13.8-13.7l-11.6-24.6c3.6-4.8,7-9.8,10-15l27.1,1.4l7.5-18l-20.1-18.2
	c1.5-5.8,2.7-11.7,3.5-17.8L419.3,262.2z M322.4,163.2l19.3,19.3c7.3,7.3,2.1,19.7-8.2,19.7h-19.3c-6.4,0-11.5-5.2-11.5-11.5v-19.3
	C302.8,161.1,315.2,156,322.4,163.2z M238.8,139.9h27.4c10.3,0,15.4,12.4,8.2,19.7l-13.7,13.7c-4.5,4.5-11.8,4.5-16.3,0l-13.7-13.7
	C223.4,152.3,228.6,139.9,238.8,139.9z M163.2,182.6l19.3-19.3c7.3-7.3,19.7-2.1,19.7,8.2v19.3c0,6.4-5.2,11.5-11.5,11.5h-19.3
	C161.1,202.2,156,189.8,163.2,182.6z M139.9,266.2v-27.4c0-10.3,12.4-15.4,19.7-8.2l13.7,13.7c4.5,4.5,4.5,11.8,0,16.3l-13.7,13.7
	C152.3,281.6,139.9,276.4,139.9,266.2z M182.6,341.8l-19.3-19.3c-7.3-7.3-2.1-19.7,8.2-19.7h19.3c6.4,0,11.5,5.2,11.5,11.5v19.3
	C202.2,343.9,189.8,349,182.6,341.8z M266.2,365.1h-27.4c-10.3,0-15.4-12.4-8.2-19.7l13.7-13.7c4.5-4.5,11.8-4.5,16.3,0l13.7,13.7
	C281.6,352.7,276.4,365.1,266.2,365.1z M252.5,303.9c-28.4,0-51.4-23-51.4-51.4s23-51.4,51.4-51.4s51.4,23,51.4,51.4
	S280.9,303.9,252.5,303.9z M341.8,322.4l-19.3,19.3c-7.3,7.3-19.7,2.1-19.7-8.2v-19.3c0-6.4,5.2-11.5,11.5-11.5h19.3
	C343.9,302.8,349,315.2,341.8,322.4z M365.1,266.2c0,10.3-12.4,15.4-19.7,8.2l-13.7-13.7c-4.5-4.5-4.5-11.8,0-16.3l13.7-13.7
	c7.3-7.3,19.7-2.1,19.7,8.2V266.2z"/>
<g>
</g>
<g>
</g>
<g>
</g>
<g>
</g>
<g>
</g>
<g>
</g>
<g>
</g>
<g>
</g>
<g>
</g>
<g>
</g>
<g>
</g>
<g>
</g>
<g>
</g>
<g>
</g>
<g>
</g>
</svg>
