<?xml version="1.0" encoding="iso-8859-1"?>
<!-- Generator: Adobe Illustrator 19.0.0, SVG Export Plug-In . SVG Version: 6.00 Build 0)  -->
<svg version="1.1" id="Layer_1" xmlns="http://www.w3.org/2000/svg" xmlns:xlink="http://www.w3.org/1999/xlink" x="0px" y="0px"
	 viewBox="0 0 505 505" style="enable-background:new 0 0 505 505;" xml:space="preserve">
<circle style="fill:#54C0EB;" cx="252.5" cy="252.5" r="252.5"/>
<path style="fill:#ACB3BA;" d="M275.6,244.6c-0.1,0.1-0.2,0.2-0.3,0.3c0,0,0,0,0,0.1c-1.1,1.5-2.1,3.1-3.2,4.6
	c-3.7,5.5-7.6,10.8-11.8,16c-1.5,1.9-3.1,3.6-4.8,5.2l33.5,33.5l23.1-23.1L275.6,244.6z"/>
<circle style="fill:#84DBFF;" cx="201.8" cy="194" r="94.8"/>
<path style="fill:#E6E9EE;" d="M314.7,265.5l-41.3,41.3c-1.2,1.2-1.2,3.1,0,4.2l101.8,101.8c1.2,1.2,3.1,1.2,4.2,0l41.3-41.3
	c1.2-1.2,1.2-3.1,0-4.2L318.9,265.5C317.8,264.3,315.9,264.3,314.7,265.5z"/>
<g>
	<path style="fill:#FF7058;" d="M146.4,337.7l0.2,1.3h13.6C155.6,338.6,151,338.2,146.4,337.7z"/>
	<path style="fill:#FF7058;" d="M224.6,235.7c-1.7-7.1-4.5-14.1-8.5-20.5l13.4-17.8l-17.2-17.2l-17.8,13.3c-6.4-4-13.3-6.8-20.5-8.5
		l-3.1-22.1h-24.4l-3.1,22.1c-7.1,1.7-14.1,4.5-20.5,8.5l-7.1-5.3c0.2,1.4,0.3,2.9,0.3,4.5c0,9.4-1.4,18.9-2.5,28.4
		c2,4.7,4.5,9.3,7.4,13.6c2-4.6,4.9-9,8.6-12.7c16-16,42-16,58,0c15.2,15.2,16,39.2,2.4,55.3c8.3,1,16.9,0.8,26.1,1.1
		c1.4,0,2.7,0.2,4,0.4c1.8-4.1,3.3-8.3,4.3-12.6l22.1-3.1v-24.4L224.6,235.7z"/>
</g>
<path style="fill:#F1543F;" d="M198.8,285.3c-0.3,0-0.5,0-0.8,0c-8.4-0.6-15.1-2.9-20.7-6.5c-1.4,2.5-3.2,4.8-5.3,6.9
	c-13.3,13.3-34.8,13.3-48.1,0s-13.3-34.8,0-48.1c1.7-1.7,3.5-3.1,5.4-4.4c-8.8-4.7-14.6-13.6-16.5-23.3l-9.3-7l-14.3,14.3l11.1,14.8
	c-3.3,5.3-5.6,11-7,17l-18.2,2.5v20.2l18.3,2.6c1.4,5.9,3.7,11.7,7,17l-11.1,14.8l14.3,14.3l14.8-11.1c5.3,3.3,11,5.6,17,7l2.6,18.3
	h20.2l2.6-18.3c5.9-1.4,11.7-3.7,17-7l14.8,11.1l14.3-14.3l-11.1-14.8C196.8,289.4,197.9,287.4,198.8,285.3z"/>
<path style="fill:#324A5E;" d="M275.1,120.7c-40.5-40.5-106.1-40.5-146.6,0s-40.5,106.1,0,146.6s106.1,40.5,146.6,0
	S315.6,161.2,275.1,120.7z M257.5,249.6c-30.8,30.8-80.6,30.8-111.4,0c-30.7-30.7-30.7-80.6,0-111.3c30.8-30.7,80.6-30.7,111.4,0
	S288.3,218.9,257.5,249.6z"/>
<ellipse style="fill:#FFFFFF;" cx="201" cy="146.7" rx="20" ry="11.1"/>
<g>
</g>
<g>
</g>
<g>
</g>
<g>
</g>
<g>
</g>
<g>
</g>
<g>
</g>
<g>
</g>
<g>
</g>
<g>
</g>
<g>
</g>
<g>
</g>
<g>
</g>
<g>
</g>
<g>
</g>
</svg>
