<?xml version="1.0" encoding="iso-8859-1"?>
<!-- Generator: Adobe Illustrator 19.0.0, SVG Export Plug-In . SVG Version: 6.00 Build 0)  -->
<svg version="1.1" id="Layer_1" xmlns="http://www.w3.org/2000/svg" xmlns:xlink="http://www.w3.org/1999/xlink" x="0px" y="0px"
	 viewBox="0 0 505 505" style="enable-background:new 0 0 505 505;" xml:space="preserve">
<circle style="fill:#324A5E;" cx="252.5" cy="252.5" r="252.5"/>
<path style="fill:#E6E9EE;" d="M381.5,346.8c15.4-21,25-45,28.8-69.7l28.9-7.1v-35l-28.9-7.1c-3.8-24.7-13.4-48.6-28.8-69.7
	l15.4-25.4l-24.7-24.7l-25.5,15.4c-21-15.4-45-25-69.7-28.8l-7.1-28.9h-35l-7.1,28.9c-24.6,3.8-48.6,13.4-69.7,28.8l-25.4-15.4
	L108,132.8l15.4,25.4c-15.4,21-25,45-28.8,69.7L65.7,235v35l28.9,7.1c3.8,24.7,13.4,48.6,28.8,69.7L108,372.2l24.7,24.7l25.4-15.4
	c21,15.4,45,25,69.7,28.8l7.1,28.9h35l7.1-28.9c24.6-3.8,48.6-13.4,69.7-28.8l25.4,15.4l24.7-24.7L381.5,346.8z M199.2,305.8
	c-29.4-29.4-29.4-77.1,0-106.5s77.1-29.4,106.5,0c29.4,29.4,29.4,77.1,0,106.6C276.3,335.2,228.6,335.2,199.2,305.8z"/>
<path style="fill:#CED5E0;" d="M161.1,201l-26.3-14.9c-23.1,41-23.1,91.6,0,132.7l26.3-14.9C143.2,272.2,143.2,232.9,161.1,201z
	 M370.2,186.2l-26.3,14.9c17.9,31.8,17.9,71.1,0,102.9l26.3,14.9C393.3,277.8,393.3,227.2,370.2,186.2z M186.1,134.8l14.9,26.3
	c31.8-17.9,71.2-17.9,102.9,0l14.9-26.3C277.8,111.7,227.2,111.7,186.1,134.8z M303.9,343.8c-31.9,17.9-71.1,17.9-102.9,0
	l-14.9,26.3c41,23.1,91.6,23.1,132.6,0L303.9,343.8z"/>
<g>
</g>
<g>
</g>
<g>
</g>
<g>
</g>
<g>
</g>
<g>
</g>
<g>
</g>
<g>
</g>
<g>
</g>
<g>
</g>
<g>
</g>
<g>
</g>
<g>
</g>
<g>
</g>
<g>
</g>
</svg>
