<?xml version="1.0" encoding="iso-8859-1"?>
<!-- Generator: Adobe Illustrator 19.0.0, SVG Export Plug-In . SVG Version: 6.00 Build 0)  -->
<svg version="1.1" id="Layer_1" xmlns="http://www.w3.org/2000/svg" xmlns:xlink="http://www.w3.org/1999/xlink" x="0px" y="0px"
	 viewBox="0 0 482.2 482.2" style="enable-background:new 0 0 482.2 482.2;" xml:space="preserve">
<circle style="fill:#FFD05B;" cx="241.1" cy="241.1" r="241.1"/>
<path style="fill:#FFFFFF;" d="M384.2,120.1c-71.5,4.6-110.9-14.8-143.1-43.2C209,105.2,169.6,124.7,98,120.1
	c0,0-8.1,248.3,143.1,285.2C392.3,368.4,384.2,120.1,384.2,120.1z"/>
<g>
	<path style="fill:#F1543F;" d="M224.7,223.8h-94.3c-7-33.3-9.5-63.6-10.4-81.4c47.3-0.3,80.3-12,104.7-26.6V223.8z"/>
	<path style="fill:#F1543F;" d="M224.7,256.5v120.4c-45.6-21.1-71.5-70.8-86.1-120.4H224.7z"/>
	<path style="fill:#F1543F;" d="M257.5,256.5h86c-14.7,49.6-40.5,99.2-86,120.4V256.5z"/>
	<path style="fill:#F1543F;" d="M362.2,142.4c-0.9,17.7-3.5,48-10.5,81.4h-94.2v-108C281.8,130.3,314.8,142.1,362.2,142.4z"/>
</g>
<g>
</g>
<g>
</g>
<g>
</g>
<g>
</g>
<g>
</g>
<g>
</g>
<g>
</g>
<g>
</g>
<g>
</g>
<g>
</g>
<g>
</g>
<g>
</g>
<g>
</g>
<g>
</g>
<g>
</g>
</svg>
