<?xml version="1.0" encoding="iso-8859-1"?>
<!-- Generator: Adobe Illustrator 19.0.0, SVG Export Plug-In . SVG Version: 6.00 Build 0)  -->
<svg version="1.1" id="Layer_1" xmlns="http://www.w3.org/2000/svg" xmlns:xlink="http://www.w3.org/1999/xlink" x="0px" y="0px"
	 viewBox="0 0 505 505" style="enable-background:new 0 0 505 505;" xml:space="preserve">
<circle style="fill:#324A5E;" cx="252.5" cy="252.5" r="252.5"/>
<path style="fill:#54C0EB;" d="M397.5,386.5l16.4-149.4H91.1l16.4,149.4c1.5,14.1,13.4,24.7,27.6,24.7h234.8
	C384.1,411.2,396,400.5,397.5,386.5z"/>
<path style="fill:#E6E9EE;" d="M412.3,257.7H92.7c-17.6,0-31.9-14.3-31.9-31.9l0,0c0-17.6,14.3-31.9,31.9-31.9h319.7
	c17.6,0,31.9,14.3,31.9,31.9l0,0C444.3,243.4,430,257.7,412.3,257.7z"/>
<g>
	<path style="fill:#FFFFFF;" d="M172.8,321.5h-28.3c-1.1,0-2.1-0.9-2.1-2.1v-34.6c0-1.1,0.9-2.1,2.1-2.1h28.3c1.1,0,2.1,0.9,2.1,2.1
		v34.6C174.9,320.5,174,321.5,172.8,321.5z"/>
	<path style="fill:#FFFFFF;" d="M172.8,381.7h-28.3c-1.1,0-2.1-0.9-2.1-2.1V345c0-1.1,0.9-2.1,2.1-2.1h28.3c1.1,0,2.1,0.9,2.1,2.1
		v34.6C174.9,380.7,174,381.7,172.8,381.7z"/>
	<path style="fill:#FFFFFF;" d="M235.4,321.5h-28.3c-1.1,0-2.1-0.9-2.1-2.1v-34.6c0-1.1,0.9-2.1,2.1-2.1h28.3c1.1,0,2.1,0.9,2.1,2.1
		v34.6C237.5,320.5,236.5,321.5,235.4,321.5z"/>
	<path style="fill:#FFFFFF;" d="M235.4,381.7h-28.3c-1.1,0-2.1-0.9-2.1-2.1V345c0-1.1,0.9-2.1,2.1-2.1h28.3c1.1,0,2.1,0.9,2.1,2.1
		v34.6C237.5,380.7,236.5,381.7,235.4,381.7z"/>
	<path style="fill:#FFFFFF;" d="M298,321.5h-28.3c-1.1,0-2.1-0.9-2.1-2.1v-34.6c0-1.1,0.9-2.1,2.1-2.1H298c1.1,0,2.1,0.9,2.1,2.1
		v34.6C300,320.5,299.1,321.5,298,321.5z"/>
	<path style="fill:#FFFFFF;" d="M298,381.7h-28.3c-1.1,0-2.1-0.9-2.1-2.1V345c0-1.1,0.9-2.1,2.1-2.1H298c1.1,0,2.1,0.9,2.1,2.1v34.6
		C300,380.7,299.1,381.7,298,381.7z"/>
	<path style="fill:#FFFFFF;" d="M360.5,321.5h-28.3c-1.1,0-2.1-0.9-2.1-2.1v-34.6c0-1.1,0.9-2.1,2.1-2.1h28.3c1.1,0,2.1,0.9,2.1,2.1
		v34.6C362.6,320.5,361.7,321.5,360.5,321.5z"/>
	<path style="fill:#FFFFFF;" d="M360.5,381.7h-28.3c-1.1,0-2.1-0.9-2.1-2.1V345c0-1.1,0.9-2.1,2.1-2.1h28.3c1.1,0,2.1,0.9,2.1,2.1
		v34.6C362.6,380.7,361.7,381.7,360.5,381.7z"/>
</g>
<g>
	<circle style="fill:#324A5E;" cx="367.5" cy="225.8" r="21.1"/>
	<circle style="fill:#324A5E;" cx="139.9" cy="225.8" r="21.1"/>
</g>
<g>
	<path style="fill:#FFD05B;" d="M376.8,219.7l-81.3-123c-3.4-5.1-10.3-6.5-15.4-3.1s-6.5,10.3-3.1,15.4l81.3,123
		c2.1,3.2,5.7,5,9.3,5c2.1,0,4.2-0.6,6.1-1.8C378.7,231.7,380.1,224.8,376.8,219.7z"/>
	<path style="fill:#FFD05B;" d="M227.3,93.5c-5.1-3.4-12-2-15.4,3.1l-81.3,123c-3.4,5.1-2,12,3.1,15.4c1.9,1.2,4,1.8,6.1,1.8
		c3.6,0,7.1-1.7,9.3-5l81.3-123C233.8,103.8,232.4,96.9,227.3,93.5z"/>
</g>
<circle style="fill:#FF7058;" cx="252.5" cy="208.9" r="61"/>
<path style="fill:#FFFFFF;" d="M250.3,249.7v-7.2c-9-0.9-17.1-4.5-24.2-10.7l7.2-8.6c5.5,4.8,11.2,7.6,17,8.6v-19.1
	c-7.4-1.8-12.8-4.1-16.3-7c-3.4-2.9-5.2-7.2-5.2-12.8c0-5.7,2-10.3,5.9-13.9c4-3.6,9.1-5.6,15.5-5.9v-4.9h6.3v5
	c7.2,0.5,14,3,20.5,7.4l-6.4,9c-4.3-3.1-9-5-14.1-5.7v18.5h0.3c7.5,1.8,13.1,4.2,16.6,7.2s5.3,7.4,5.3,13.1c0,5.7-2,10.4-6.1,14
	s-9.4,5.6-16.1,5.9v7.1L250.3,249.7L250.3,249.7z M243.4,186.2c-1.7,1.5-2.5,3.3-2.5,5.5s0.7,3.9,2,5.2s3.8,2.5,7.5,3.7v-17
	C247.4,183.9,245.1,184.8,243.4,186.2z M264.1,229.4c1.8-1.5,2.8-3.4,2.8-5.7s-0.7-4.1-2.2-5.5c-1.4-1.3-4.1-2.6-8.1-3.8v17.7
	C259.8,231.8,262.3,230.9,264.1,229.4z"/>
<g>
</g>
<g>
</g>
<g>
</g>
<g>
</g>
<g>
</g>
<g>
</g>
<g>
</g>
<g>
</g>
<g>
</g>
<g>
</g>
<g>
</g>
<g>
</g>
<g>
</g>
<g>
</g>
<g>
</g>
</svg>
