<?xml version="1.0" encoding="iso-8859-1"?>
<!-- Generator: Adobe Illustrator 19.0.0, SVG Export Plug-In . SVG Version: 6.00 Build 0)  -->
<svg version="1.1" id="Layer_1" xmlns="http://www.w3.org/2000/svg" xmlns:xlink="http://www.w3.org/1999/xlink" x="0px" y="0px"
	 viewBox="0 0 505 505" style="enable-background:new 0 0 505 505;" xml:space="preserve">
<circle style="fill:#84DBFF;" cx="252.5" cy="252.5" r="252.5"/>
<g>
	<path style="fill:#FFFFFF;" d="M227.3,123.9c-2.5,4.5-4.5,9.2-5.8,14.1l-12.8,3.1v27.5l12.8,3.1c1.3,4.9,3.3,9.6,5.8,14.1
		l-6.9,11.3l19.4,19.4l11.3-6.9c4.5,2.5,9.2,4.5,14.1,5.8l3.1,12.8h27.5l3.1-12.8c4.9-1.3,9.6-3.3,14.1-5.8l11.3,6.9l19.4-19.4
		l-6.9-11.3c2.5-4.5,4.5-9.2,5.8-14.1l12.8-3.1v-27.5l-12.8-3.1c-1.3-4.9-3.3-9.6-5.8-14.1l6.9-11.3l-19.4-19.4l-11.3,6.9
		c-4.5-2.5-9.2-4.5-14.1-5.8l-3.1-12.8h-27.5l-3.1,12.8c-4.9,1.3-9.6,3.3-14.1,5.8l-11.3-6.9l-19.4,19.4L227.3,123.9z M258.9,131.7
		c12.8-12.8,33.4-12.8,46.2,0c12.8,12.8,12.8,33.4,0,46.2c-12.8,12.8-33.4,12.8-46.2,0C246.1,165.1,246.1,144.4,258.9,131.7z"/>
	<path style="fill:#FFFFFF;" d="M378.1,360.5H166.6c-4.2,0-7.7-3.5-7.7-7.7c0-3.2,2-6.1,5-7.2l19.3-7.2c10-3.7,16.7-13.4,16.7-24.1
		V312c0-5-4-9-9-9s-9,4-9,9v2.3c0,3.2-2,6.1-5,7.2l-19.3,7.2c-10,3.7-16.7,13.4-16.7,24.1c0,14.2,11.6,25.8,25.8,25.8h211.5
		c5,0,9-4,9-9C387.1,364.5,383.1,360.5,378.1,360.5z"/>
	<path style="fill:#FFFFFF;" d="M158.1,195.9c1.3,0,2.6-0.3,3.8-0.9c4.5-2.1,6.4-7.5,4.3-12l-20.7-43.9c-1.4-3-4.3-4.9-7.5-5.2
		l-43.9-3.1c-4.9-0.3-9.3,3.4-9.6,8.4c-0.4,5,3.4,9.3,8.4,9.6l38.6,2.7l18.4,39.2C151.4,193.9,154.7,195.9,158.1,195.9z"/>
</g>
<g>
	<path style="fill:#324A5E;" d="M147.6,187.7l32.3,119.2c1.2,4.4,5.3,7.3,9.9,6.9L376,297.6c4.6-0.4,8.3-4.2,8.6-8.8l4.5-80.6
		c0.3-5-3.4-9.3-8.4-9.8l-223-22.5C151.1,175.2,145.9,181.3,147.6,187.7z"/>
	<circle style="fill:#324A5E;" cx="186.6" cy="409.1" r="22"/>
	<circle style="fill:#324A5E;" cx="349.4" cy="409.1" r="22"/>
</g>
<g>
</g>
<g>
</g>
<g>
</g>
<g>
</g>
<g>
</g>
<g>
</g>
<g>
</g>
<g>
</g>
<g>
</g>
<g>
</g>
<g>
</g>
<g>
</g>
<g>
</g>
<g>
</g>
<g>
</g>
</svg>
