<?xml version="1.0" encoding="iso-8859-1"?>
<!-- Generator: Adobe Illustrator 19.0.0, SVG Export Plug-In . SVG Version: 6.00 Build 0)  -->
<svg version="1.1" id="Layer_1" xmlns="http://www.w3.org/2000/svg" xmlns:xlink="http://www.w3.org/1999/xlink" x="0px" y="0px"
	 viewBox="0 0 505 505" style="enable-background:new 0 0 505 505;" xml:space="preserve">
<circle style="fill:#324A5E;" cx="252.5" cy="252.5" r="252.5"/>
<g>
	<polygon style="fill:#CED5E0;" points="176.3,113.7 134.2,150.1 139,101.5 	"/>
	<polygon style="fill:#CED5E0;" points="328.8,113.7 370.9,150.1 366.1,101.5 	"/>
</g>
<polygon style="fill:#FFFFFF;" points="118.6,136.8 386.4,136.8 328.7,113.7 366,101.5 139,101.5 176.3,113.7 "/>
<g>
	<polygon style="fill:#B5BCC6;" points="176.3,113.7 169.6,163.1 118.6,136.8 	"/>
	<polygon style="fill:#B5BCC6;" points="328.8,113.7 335.5,163.1 386.5,136.8 	"/>
</g>
<path style="fill:#E6E9EE;" d="M405.8,377.8l-19.3-240.9h-268L99.2,377.8c-1,12.5,8.9,23.2,21.4,23.2h263.6
	C396.9,401.1,406.8,390.4,405.8,377.8z"/>
<g>
	<circle style="fill:#FFFFFF;" cx="304.8" cy="200.2" r="18.6"/>
	<circle style="fill:#FFFFFF;" cx="198" cy="200.2" r="18.6"/>
</g>
<path style="fill:#54C0EB;" d="M248.8,347.9v-12.3c-15.4-1.6-29.2-7.7-41.4-18.3l12.3-14.6c9.4,8.2,19.1,13.1,29.1,14.6v-32.7
	c-12.7-3-22-7-27.9-12c-5.9-4.9-8.8-12.3-8.8-22c0-9.7,3.4-17.6,10.2-23.8s15.6-9.5,26.5-10.1v-8.4h10.8v8.6
	c12.3,0.9,24,5.1,35,12.6L283.7,245c-7.4-5.3-15.4-8.5-24.1-9.8v31.6h0.5c12.9,3,22.4,7.1,28.4,12.3c6.1,5.2,9.1,12.7,9.1,22.5
	s-3.5,17.8-10.4,24c-7,6.2-16.2,9.5-27.6,10.1v12.1h-10.8V347.9z M236.9,239.2c-2.9,2.5-4.3,5.7-4.3,9.4c0,3.8,1.1,6.7,3.4,8.9
	c2.2,2.2,6.5,4.3,12.8,6.3v-29.1C243.7,235.2,239.8,236.7,236.9,239.2z M272.4,313c3.1-2.6,4.7-5.8,4.7-9.8c0-3.9-1.2-7-3.7-9.3
	s-7.1-4.5-13.8-6.5v30.3C265,317.2,269.2,315.6,272.4,313z"/>
<path style="fill:#FF7058;" d="M251.6,108.6c34.8,0,63.1,28.3,63.1,63.1v31.5c0,5.4-4.4,9.9-9.9,9.9c-5.4,0-9.9-4.4-9.9-9.9v-31.5
	c0-23.9-19.5-43.4-43.4-43.4s-43.4,19.5-43.4,43.4v29.7c0,5.4-4.4,9.9-9.9,9.9c-5.4,0-9.9-4.4-9.9-9.9v-29.7
	C188.5,136.9,216.8,108.6,251.6,108.6z"/>
<g>
</g>
<g>
</g>
<g>
</g>
<g>
</g>
<g>
</g>
<g>
</g>
<g>
</g>
<g>
</g>
<g>
</g>
<g>
</g>
<g>
</g>
<g>
</g>
<g>
</g>
<g>
</g>
<g>
</g>
</svg>
