<?xml version="1.0" encoding="iso-8859-1"?>
<!-- Generator: Adobe Illustrator 19.0.0, SVG Export Plug-In . SVG Version: 6.00 Build 0)  -->
<svg version="1.1" id="Layer_1" xmlns="http://www.w3.org/2000/svg" xmlns:xlink="http://www.w3.org/1999/xlink" x="0px" y="0px"
	 viewBox="0 0 482.2 482.2" style="enable-background:new 0 0 482.2 482.2;" xml:space="preserve">
<circle style="fill:#324A5E;" cx="241.1" cy="241.1" r="241.1"/>
<path style="fill:#E6E9EE;" d="M322.5,83.3H159.7c-11,0-19.9,8.9-19.9,19.9v275.7c0,11,8.9,19.9,19.9,19.9h162.8
	c11,0,19.9-8.9,19.9-19.9V103.3C342.5,92.2,333.5,83.3,322.5,83.3z"/>
<rect x="139.7" y="122.2" style="fill:#54C0EB;" width="202.7" height="219.3"/>
<g>
	<circle style="fill:#CED5E0;" cx="241.1" cy="368" r="16.3"/>
	<path style="fill:#CED5E0;" d="M277.4,109.8h-42.5c-2.4,0-4.4-2-4.4-4.4l0,0c0-2.4,2-4.4,4.4-4.4h42.5c2.4,0,4.4,2,4.4,4.4l0,0
		C281.9,107.9,279.9,109.8,277.4,109.8z"/>
	<path style="fill:#CED5E0;" d="M214.2,109.8h-9.5c-2.4,0-4.4-2-4.4-4.4l0,0c0-2.4,2-4.4,4.4-4.4h9.5c2.4,0,4.4,2,4.4,4.4l0,0
		C218.6,107.9,216.6,109.8,214.2,109.8z"/>
</g>
<path style="fill:#FFFFFF;" d="M237.5,294.7v-11.8c-14.8-1.5-28.1-7.4-39.9-17.7l11.8-14.1c9.1,7.9,18.4,12.6,28.1,14.1v-31.5
	c-12.2-2.9-21.2-6.8-26.8-11.5c-5.7-4.8-8.5-11.8-8.5-21.2s3.3-17,9.8-22.9s15.1-9.2,25.5-9.7v-8.1h10.4v8.3
	c11.9,0.9,23.1,4.9,33.7,12.2l-10.5,14.8c-7.1-5.1-14.9-8.2-23.2-9.4v30.5h0.5c12.4,2.9,21.6,6.9,27.4,11.8c5.8,5,8.8,12.2,8.8,21.6
	c0,9.5-3.4,17.2-10.1,23.1s-15.6,9.2-26.6,9.7v11.7h-10.4V294.7z M226.1,190c-2.8,2.4-4.1,5.5-4.1,9.1s1.1,6.5,3.2,8.6
	c2.2,2.1,6.3,4.1,12.3,6.1v-28C232.7,186.1,228.9,187.6,226.1,190z M260.2,261.1c3-2.5,4.5-5.6,4.5-9.4s-1.2-6.8-3.6-9
	c-2.4-2.2-6.8-4.3-13.3-6.2v29.2C253.1,265.1,257.2,263.6,260.2,261.1z"/>
<g>
</g>
<g>
</g>
<g>
</g>
<g>
</g>
<g>
</g>
<g>
</g>
<g>
</g>
<g>
</g>
<g>
</g>
<g>
</g>
<g>
</g>
<g>
</g>
<g>
</g>
<g>
</g>
<g>
</g>
</svg>
