<?xml version="1.0" encoding="iso-8859-1"?>
<!-- Generator: Adobe Illustrator 19.0.0, SVG Export Plug-In . SVG Version: 6.00 Build 0)  -->
<svg version="1.1" id="Layer_1" xmlns="http://www.w3.org/2000/svg" xmlns:xlink="http://www.w3.org/1999/xlink" x="0px" y="0px"
	 viewBox="0 0 505 505" style="enable-background:new 0 0 505 505;" xml:space="preserve">
<circle style="fill:#FFD05B;" cx="252.5" cy="252.5" r="252.5"/>
<path style="fill:#FFFFFF;" d="M283.2,87.2H166.3c-26.4,0-47.8,21.4-47.8,47.8v235.1c0,26.4,21.4,47.8,47.8,47.8h116.8
	c26.4,0,47.8-21.4,47.8-47.8V135C330.9,108.6,309.6,87.2,283.2,87.2z"/>
<rect x="144.2" y="128" style="fill:#54C0EB;" width="161.1" height="218.3"/>
<g>
	<circle style="fill:#E6E9EE;" cx="224.8" cy="381.3" r="17.1"/>
	<path style="fill:#E6E9EE;" d="M262.8,115h-44.5c-2.6,0-4.6-2.1-4.6-4.6l0,0c0-2.6,2.1-4.6,4.6-4.6h44.5c2.6,0,4.6,2.1,4.6,4.6l0,0
		C267.5,112.9,265.4,115,262.8,115z"/>
	<path style="fill:#E6E9EE;" d="M196.6,115h-9.9c-2.6,0-4.6-2.1-4.6-4.6l0,0c0-2.6,2.1-4.6,4.6-4.6h9.9c2.6,0,4.6,2.1,4.6,4.6l0,0
		C201.2,112.9,199.2,115,196.6,115z"/>
</g>
<g>
	<path style="fill:#324A5E;" d="M395,196.2l-18.1-2.3V235l18.1-2.3c4.1-0.5,7.2-4,7.2-8.2v-20.2C402.2,200.2,399.1,196.7,395,196.2z
		"/>
	<path style="fill:#324A5E;" d="M269,307.4l-5.7-64.9H236l10.6,67.6c0.9,5.5,5.6,9.6,11.2,9.6l0,0C264.4,319.7,269.6,314,269,307.4z
		"/>
</g>
<path style="fill:#FF7058;" d="M279.6,253.4h-54.7c-2.4,0-4.3-1.9-4.3-4.3v-69.2c0-2.4,1.9-4.3,4.3-4.3h54.7c0.8,0,1.4,0.6,1.4,1.4
	v75.1C281,252.8,280.4,253.4,279.6,253.4z"/>
<polygon style="fill:#324A5E;" points="281,241.9 356.7,272.9 356.7,156.1 281,187.1 "/>
<path style="fill:#FF7058;" d="M370.3,288.7L370.3,288.7c7.5,0,13.5-6.1,13.5-13.5V153.8c0-7.5-6.1-13.5-13.5-13.5l0,0
	c-7.5,0-13.5,6.1-13.5,13.5v121.4C356.7,282.7,362.8,288.7,370.3,288.7z"/>
<g>
	<polygon style="fill:#FFFFFF;" points="454.7,175.4 418,189.6 418,182.8 454.7,164.8 	"/>
	<polygon style="fill:#FFFFFF;" points="454.7,219.8 418,217.9 418,211.1 454.7,209.2 	"/>
	<polygon style="fill:#FFFFFF;" points="454.7,264.2 418,246.2 418,239.4 454.7,253.6 	"/>
</g>
<g>
</g>
<g>
</g>
<g>
</g>
<g>
</g>
<g>
</g>
<g>
</g>
<g>
</g>
<g>
</g>
<g>
</g>
<g>
</g>
<g>
</g>
<g>
</g>
<g>
</g>
<g>
</g>
<g>
</g>
</svg>
