<?xml version="1.0" encoding="iso-8859-1"?>
<!-- Generator: Adobe Illustrator 19.0.0, SVG Export Plug-In . SVG Version: 6.00 Build 0)  -->
<svg version="1.1" id="Layer_1" xmlns="http://www.w3.org/2000/svg" xmlns:xlink="http://www.w3.org/1999/xlink" x="0px" y="0px"
	 viewBox="0 0 505 505" style="enable-background:new 0 0 505 505;" xml:space="preserve">
<circle style="fill:#F1543F;" cx="252.5" cy="252.5" r="252.5"/>
<path style="fill:#324A5E;" d="M329.3,429.2H175.7c-20.1,0-36.4-16.3-36.4-36.4V112.2c0-20.1,16.3-36.4,36.4-36.4h153.6
	c20.1,0,36.4,16.3,36.4,36.4v280.5C365.7,412.9,349.4,429.2,329.3,429.2z"/>
<rect x="163.6" y="116.4" style="fill:#54C0EB;" width="177.8" height="245.6"/>
<g>
	<path style="fill:#2B3B4E;" d="M274.6,101.1h-44.2c-3.1,0-5.5-2.5-5.5-5.5l0,0c0-3.1,2.5-5.5,5.5-5.5h44.2c3.1,0,5.5,2.5,5.5,5.5
		l0,0C280.1,98.6,277.7,101.1,274.6,101.1z"/>
	<circle style="fill:#2B3B4E;" cx="252.5" cy="393.2" r="19"/>
</g>
<path style="fill:#FFFFFF;" d="M304.2,116.4h-28.4c2.6,4.2,4.2,9.1,4.2,14.5c0,15.2-12.3,27.4-27.4,27.4s-27.4-12.3-27.4-27.4
	c0-5.3,1.6-10.3,4.2-14.5H201c-0.3,1.2-0.7,2.5-0.9,3.7l-13.9,2.5V139l13.9,2.5c1.4,6.9,4.1,13.2,7.8,18.9l-8.1,11.6l11.6,11.6
	l11.6-8.1c5.6,3.7,12,6.4,18.9,7.8l2.5,13.9h16.5l2.5-13.9c6.8-1.4,13.2-4.1,18.9-7.8l11.6,8.1l11.6-11.6l-8.1-11.6
	c3.7-5.6,6.4-12,7.8-18.9l13.9-2.5v-16.4l-13.9-2.5C304.8,118.9,304.5,117.7,304.2,116.4z"/>
<rect x="245.4" y="318.8" style="fill:#2B3B4E;" width="14" height="27.7"/>
<circle style="fill:#324A5E;" cx="252.5" cy="267.4" r="56.6"/>
<circle style="fill:#FFFFFF;" cx="252.5" cy="267.4" r="41.5"/>
<path style="fill:#F9B54C;" d="M266.6,362v-14.5c0-3.3-2.6-5.9-5.9-5.9h-16.5c-3.3,0-5.9,2.6-5.9,5.9V362H266.6z"/>
<ellipse transform="matrix(-0.7071 -0.7071 0.7071 -0.7071 218.831 583.8542)" style="fill:#E6E9EE;" cx="230.336" cy="246.606" rx="3.4" ry="9.8"/>
<g>
</g>
<g>
</g>
<g>
</g>
<g>
</g>
<g>
</g>
<g>
</g>
<g>
</g>
<g>
</g>
<g>
</g>
<g>
</g>
<g>
</g>
<g>
</g>
<g>
</g>
<g>
</g>
<g>
</g>
</svg>
