<?xml version="1.0" encoding="iso-8859-1"?>
<!-- Generator: Adobe Illustrator 19.0.0, SVG Export Plug-In . SVG Version: 6.00 Build 0)  -->
<svg version="1.1" id="Layer_1" xmlns="http://www.w3.org/2000/svg" xmlns:xlink="http://www.w3.org/1999/xlink" x="0px" y="0px"
	 viewBox="0 0 482.2 482.2" style="enable-background:new 0 0 482.2 482.2;" xml:space="preserve">
<circle style="fill:#FD8469;" cx="241.1" cy="241.1" r="241.1"/>
<polygon style="fill:#2B3B4E;" points="330.3,392.2 249.4,340.7 249.4,293.3 330.3,344.8 "/>
<path style="fill:#E6E9EE;" d="M352.7,405.9c3.2-9.5,5.2-21.8,5.2-35.2c0-30.3-10-55-22.4-55s-22.4,24.6-22.4,55
	c0,13.4,2,25.7,5.2,35.2H352.7z"/>
<polygon style="fill:#2B3B4E;" points="151.9,392.2 232.8,340.7 232.8,293.3 151.9,344.8 "/>
<path style="fill:#E6E9EE;" d="M129.5,405.9c-3.2-9.5-5.2-21.8-5.2-35.2c0-30.3,10-55,22.4-55s22.4,24.6,22.4,55
	c0,13.4-2,25.7-5.2,35.2H129.5z"/>
<path style="fill:#324A5E;" d="M287.6,363.2c46.6-93,31.1-209.2-46.5-286.8l0,0l0,0C163.5,154,148,270.2,194.6,363.2H287.6z"/>
<g>
	<path style="fill:#E6E9EE;" d="M287.8,141c-11.6-23.3-27.2-45.2-46.7-64.7l0,0l0,0c-19.5,19.5-35,41.3-46.7,64.7H287.8z"/>
	<path style="fill:#E6E9EE;" d="M258.3,405.9c3.2-9.5,5.2-21.8,5.2-35.2c0-30.3-10-55-22.4-55s-22.4,24.6-22.4,55
		c0,13.4,2,25.7,5.2,35.2H258.3z"/>
</g>
<circle style="fill:#84DBFF;" cx="241.1" cy="216.5" r="33.5"/>
<g>
</g>
<g>
</g>
<g>
</g>
<g>
</g>
<g>
</g>
<g>
</g>
<g>
</g>
<g>
</g>
<g>
</g>
<g>
</g>
<g>
</g>
<g>
</g>
<g>
</g>
<g>
</g>
<g>
</g>
</svg>
