<?xml version="1.0" encoding="iso-8859-1"?>
<!-- Generator: Adobe Illustrator 19.0.0, SVG Export Plug-In . SVG Version: 6.00 Build 0)  -->
<svg version="1.1" id="Layer_1" xmlns="http://www.w3.org/2000/svg" xmlns:xlink="http://www.w3.org/1999/xlink" x="0px" y="0px"
	 viewBox="0 0 505 505" style="enable-background:new 0 0 505 505;" xml:space="preserve">
<circle style="fill:#54C0EB;" cx="252.5" cy="252.5" r="252.5"/>
<g>
	<path style="fill:#FF7058;" d="M381.8,383.9c0.4-67-33.3-146.7-101.1-195.7v178.3c27,0.6,53.1,12.2,74.2,33.1
		c2.9,2.9,6.6,4.5,10.3,4.5l0,0C374.3,404,381.8,395.1,381.8,383.9z"/>
	<path style="fill:#FF7058;" d="M123.2,383.9c-0.4-67,33.3-146.7,101.1-195.7v178.3c-27,0.6-53.1,12.2-74.1,33.1
		c-2.9,2.9-6.6,4.5-10.3,4.5l0,0C130.7,404,123.2,395.1,123.2,383.9z"/>
</g>
<path style="fill:#FFD05B;" d="M291.1,356.7h-82.6V144.3c0-22.8,18.5-76.4,41.3-76.4l0,0c22.8,0,41.3,53.6,41.3,76.4V356.7z"/>
<path style="fill:#324A5E;" d="M279.5,98.7c-7.5-16.8-18-30.8-29.7-30.8l0,0c-11.7,0-22.2,14-29.7,30.8H279.5z"/>
<g>
	<path style="fill:#FFFFFF;" d="M246.3,120.5c-11.8,2.1-20.8,12.4-20.8,24.9c0,3,0.5,5.8,1.5,8.5c3-8.4,10.4-14.8,19.4-16.4v-17
		H246.3z"/>
	<path style="fill:#FFFFFF;" d="M253.2,120.5c11.8,2.1,20.8,12.4,20.8,24.9c0,3-0.5,5.8-1.5,8.5c-3-8.4-10.4-14.8-19.4-16.4v-17
		H253.2z"/>
</g>
<g>
	<path style="fill:#324A5E;" d="M285.1,301.9L285.1,301.9c-10.2,0-18.6,8.3-18.6,18.6v66.9h37.1v-66.9
		C303.7,310.2,295.4,301.9,285.1,301.9z"/>
	<path style="fill:#324A5E;" d="M215.2,301.9L215.2,301.9c-10.2,0-18.6,8.3-18.6,18.6v66.9h37.1v-66.9
		C233.8,310.2,225.4,301.9,215.2,301.9z"/>
</g>
<g>
	<rect x="273.3" y="429.3" style="fill:#FFFFFF;" width="8.1" height="28.5"/>
	<rect x="291.1" y="411" style="fill:#FFFFFF;" width="8.1" height="28.5"/>
	<rect x="199.8" y="429.3" style="fill:#FFFFFF;" width="8.1" height="28.5"/>
	<rect x="217.5" y="411" style="fill:#FFFFFF;" width="8.1" height="28.5"/>
	<path style="fill:#FFFFFF;" d="M411.7,140.3c0.2-1.3,0.3-2.7,0.3-4.1c0-15.2-12.3-27.5-27.5-27.5c-13.8,0-25.1,10.1-27.1,23.4
		c-3.9-2.1-8.4-3.3-13.1-3.3c-15.2,0-27.5,12.3-27.5,27.5c0,15,12.1,27.2,27,27.5c4.5,9.1,13.8,15.4,24.6,15.4
		c8.1,0,15.4-3.6,20.5-9.2c4.2,2.5,9,4,14.2,4c15.2,0,27.5-12.3,27.5-27.5C430.6,154.2,422.7,143.9,411.7,140.3z"/>
	<path style="fill:#FFFFFF;" d="M121.8,202.3c0.1-1,0.3-2,0.3-3c0-11.2-9.1-20.4-20.4-20.4c-10.2,0-18.6,7.5-20.1,17.3
		c-2.9-1.6-6.2-2.5-9.7-2.5c-11.2,0-20.4,9.1-20.4,20.4c0,11.1,8.9,20.2,20,20.3c3.3,6.7,10.2,11.4,18.3,11.4c6,0,11.4-2.6,15.2-6.8
		c3.1,1.9,6.7,3,10.5,3c11.2,0,20.4-9.1,20.4-20.4C135.9,212.6,130,204.9,121.8,202.3z"/>
</g>
<g>
</g>
<g>
</g>
<g>
</g>
<g>
</g>
<g>
</g>
<g>
</g>
<g>
</g>
<g>
</g>
<g>
</g>
<g>
</g>
<g>
</g>
<g>
</g>
<g>
</g>
<g>
</g>
<g>
</g>
</svg>
