<?xml version="1.0" encoding="iso-8859-1"?>
<!-- Generator: Adobe Illustrator 19.0.0, SVG Export Plug-In . SVG Version: 6.00 Build 0)  -->
<svg version="1.1" id="Layer_1" xmlns="http://www.w3.org/2000/svg" xmlns:xlink="http://www.w3.org/1999/xlink" x="0px" y="0px"
	 viewBox="0 0 505 505" style="enable-background:new 0 0 505 505;" xml:space="preserve">
<circle style="fill:#90DFAA;" cx="252.5" cy="252.5" r="252.5"/>
<path style="fill:#324A5E;" d="M299,176.7c-5.4,0-9.9-4.4-9.9-9.9v-38.3h-73.3v38.4c0,5.4-4.4,9.9-9.9,9.9c-5.4,0-9.9-4.4-9.9-9.9
	v-48.3c0-5.4,4.4-9.9,9.9-9.9h93c5.4,0,9.9,4.4,9.9,9.9v48.3C308.9,172.3,304.5,176.7,299,176.7z"/>
<path style="fill:#FF7058;" d="M368.2,383.4H136.8c-26.6,0-48.1-21.5-48.1-48.1V205.1c0-26.6,21.5-48.1,48.1-48.1h231.4
	c26.6,0,48.1,21.5,48.1,48.1v130.2C416.3,361.8,394.8,383.4,368.2,383.4z"/>
<g>
	<rect x="328.1" y="198.7" style="fill:#FFFFFF;" width="26.7" height="142.9"/>
	<rect x="280.2" y="228.2" style="fill:#FFFFFF;" width="26.7" height="113.4"/>
	<rect x="232.2" y="257.7" style="fill:#FFFFFF;" width="26.7" height="83.9"/>
	<rect x="184.3" y="287.2" style="fill:#FFFFFF;" width="26.7" height="54.4"/>
	<rect x="136.4" y="316.7" style="fill:#FFFFFF;" width="26.7" height="24.9"/>
</g>
<g>
</g>
<g>
</g>
<g>
</g>
<g>
</g>
<g>
</g>
<g>
</g>
<g>
</g>
<g>
</g>
<g>
</g>
<g>
</g>
<g>
</g>
<g>
</g>
<g>
</g>
<g>
</g>
<g>
</g>
</svg>
