<?xml version="1.0" encoding="iso-8859-1"?>
<!-- Generator: Adobe Illustrator 19.0.0, SVG Export Plug-In . SVG Version: 6.00 Build 0)  -->
<svg version="1.1" id="Layer_1" xmlns="http://www.w3.org/2000/svg" xmlns:xlink="http://www.w3.org/1999/xlink" x="0px" y="0px"
	 viewBox="0 0 505 505" style="enable-background:new 0 0 505 505;" xml:space="preserve">
<circle style="fill:#FFD05B;" cx="252.5" cy="252.5" r="252.5"/>
<path style="fill:#FFFFFF;" d="M252.5,160c-28.9,0-52.4-23.5-52.4-52.4s23.5-52.4,52.4-52.4s52.4,23.5,52.4,52.4
	S281.4,160,252.5,160z M252.5,70.3c-20.6,0-37.3,16.8-37.3,37.3c0,20.6,16.8,37.3,37.3,37.3c20.6,0,37.3-16.8,37.3-37.3
	C289.8,87,273.1,70.3,252.5,70.3z"/>
<path style="fill:#324A5E;" d="M272.2,182.3h-39.4v-52.8c0-0.5,0.4-1,1-1h37.4c0.5,0,1,0.4,1,1V182.3z"/>
<circle style="fill:#4CDBC4;" cx="252.5" cy="309.8" r="140"/>
<circle style="fill:#FFFFFF;" cx="252.5" cy="309.8" r="107.5"/>
<path style="fill:#2C9984;" d="M311.9,307.1L311.9,307.1c0-2.7-2.2-4.8-4.8-4.8h-51.4c-2.7,0-4.8,2.2-4.8,4.8l0,0
	c0,2.7,2.2,4.8,4.8,4.8h51.4C309.8,312,311.9,309.8,311.9,307.1z"/>
<circle style="fill:#FF7058;" cx="252.5" cy="307.1" r="13.4"/>
<g>
	<path style="fill:#324A5E;" d="M340.9,316.8L340.9,316.8c-3.9,0-7.1-3.2-7.1-7.1l0,0c0-3.9,3.2-7.1,7.1-7.1l0,0
		c3.9,0,7.1,3.2,7.1,7.1l0,0C347.9,313.6,344.8,316.8,340.9,316.8z"/>
	<path style="fill:#324A5E;" d="M164.1,316.8L164.1,316.8c-3.9,0-7.1-3.2-7.1-7.1l0,0c0-3.9,3.2-7.1,7.1-7.1l0,0
		c3.9,0,7.1,3.2,7.1,7.1l0,0C171.2,313.6,168.1,316.8,164.1,316.8z"/>
	<path style="fill:#324A5E;" d="M245.4,398L245.4,398c0-3.9,3.2-7.1,7.1-7.1l0,0c3.9,0,7.1,3.2,7.1,7.1l0,0c0,3.9-3.2,7.1-7.1,7.1
		l0,0C248.6,405.1,245.4,401.9,245.4,398z"/>
	<path style="fill:#324A5E;" d="M245.4,221.3L245.4,221.3c0-3.9,3.2-7.1,7.1-7.1l0,0c3.9,0,7.1,3.2,7.1,7.1l0,0
		c0,3.9-3.2,7.1-7.1,7.1l0,0C248.6,228.4,245.4,225.2,245.4,221.3z"/>
	<path style="fill:#324A5E;" d="M310,377.2L310,377.2c-2.8-2.8-2.8-7.2,0-10l0,0c2.8-2.8,7.2-2.8,10,0l0,0c2.8,2.8,2.8,7.2,0,10l0,0
		C317.2,379.9,312.7,379.9,310,377.2z"/>
	<path style="fill:#324A5E;" d="M185,252.2L185,252.2c-2.8-2.8-2.8-7.2,0-10l0,0c2.8-2.8,7.2-2.8,10,0l0,0c2.8,2.8,2.8,7.2,0,10l0,0
		C192.3,255,187.8,255,185,252.2z"/>
	<path style="fill:#324A5E;" d="M185,367.1L185,367.1c2.8-2.8,7.2-2.8,10,0l0,0c2.8,2.8,2.8,7.2,0,10l0,0c-2.8,2.8-7.2,2.8-10,0l0,0
		C182.3,374.4,182.3,369.9,185,367.1z"/>
	<path style="fill:#324A5E;" d="M310,242.2L310,242.2c2.8-2.8,7.2-2.8,10,0l0,0c2.8,2.8,2.8,7.2,0,10l0,0c-2.8,2.8-7.2,2.8-10,0l0,0
		C307.2,249.4,307.2,245,310,242.2z"/>
</g>
<g>
</g>
<g>
</g>
<g>
</g>
<g>
</g>
<g>
</g>
<g>
</g>
<g>
</g>
<g>
</g>
<g>
</g>
<g>
</g>
<g>
</g>
<g>
</g>
<g>
</g>
<g>
</g>
<g>
</g>
</svg>
