<?xml version="1.0" encoding="iso-8859-1"?>
<!-- Generator: Adobe Illustrator 19.0.0, SVG Export Plug-In . SVG Version: 6.00 Build 0)  -->
<svg version="1.1" id="Layer_1" xmlns="http://www.w3.org/2000/svg" xmlns:xlink="http://www.w3.org/1999/xlink" x="0px" y="0px"
	 viewBox="0 0 505 505" style="enable-background:new 0 0 505 505;" xml:space="preserve">
<circle style="fill:#90DFAA;" cx="252.5" cy="252.5" r="252.5"/>
<path style="fill:#324A5E;" d="M352.7,84.4H152.3c-9.3,0-16.8,7.5-16.8,16.8v302.6c0,9.3,7.5,16.8,16.8,16.8h200.4
	c9.3,0,16.8-7.5,16.8-16.8V101.2C369.5,91.9,362,84.4,352.7,84.4z"/>
<rect x="156.9" y="128.8" style="fill:#54C0EB;" width="191.2" height="230.5"/>
<circle style="fill:#FFFFFF;" cx="252.5" cy="249.1" r="50"/>
<g>
	<circle style="fill:#FF7058;" cx="225.9" cy="249.1" r="9.3"/>
	<circle style="fill:#FF7058;" cx="252.5" cy="249.1" r="9.3"/>
	<circle style="fill:#FF7058;" cx="279.1" cy="249.1" r="9.3"/>
</g>
<g>
	<path style="fill:#2B3B4E;" d="M219.7,114.4h-8.5c-3.5,0-6.3-2.8-6.3-6.3l0,0c0-3.5,2.8-6.3,6.3-6.3h8.5c3.5,0,6.3,2.8,6.3,6.3l0,0
		C226,111.6,223.1,114.4,219.7,114.4z"/>
	<path style="fill:#2B3B4E;" d="M293.8,114.4h-51.9c-3.5,0-6.3-2.8-6.3-6.3l0,0c0-3.5,2.8-6.3,6.3-6.3h51.9c3.5,0,6.3,2.8,6.3,6.3
		l0,0C300.1,111.6,297.3,114.4,293.8,114.4z"/>
	<circle style="fill:#2B3B4E;" cx="252.5" cy="389.9" r="16.2"/>
</g>
<g>
</g>
<g>
</g>
<g>
</g>
<g>
</g>
<g>
</g>
<g>
</g>
<g>
</g>
<g>
</g>
<g>
</g>
<g>
</g>
<g>
</g>
<g>
</g>
<g>
</g>
<g>
</g>
<g>
</g>
</svg>
