<?xml version="1.0" encoding="iso-8859-1"?>
<!-- Generator: Adobe Illustrator 19.0.0, SVG Export Plug-In . SVG Version: 6.00 Build 0)  -->
<svg version="1.1" id="Layer_1" xmlns="http://www.w3.org/2000/svg" xmlns:xlink="http://www.w3.org/1999/xlink" x="0px" y="0px"
	 viewBox="0 0 505 505" style="enable-background:new 0 0 505 505;" xml:space="preserve">
<circle style="fill:#FFD05B;" cx="252.5" cy="252.5" r="252.5"/>
<path style="fill:#324A5E;" d="M346.1,84.4H158.9c-12.9,0-23.4,10.5-23.4,23.4v289.4c0,12.9,10.5,23.4,23.4,23.4h187.2
	c12.9,0,23.4-10.5,23.4-23.4V107.8C369.5,94.9,359,84.4,346.1,84.4z"/>
<rect x="156.9" y="128.8" style="fill:#54C0EB;" width="191.2" height="230.5"/>
<g>
	<path style="fill:#2B3B4E;" d="M219.7,114.4h-8.5c-3.5,0-6.3-2.8-6.3-6.3l0,0c0-3.5,2.8-6.3,6.3-6.3h8.5c3.5,0,6.3,2.8,6.3,6.3l0,0
		C226,111.6,223.1,114.4,219.7,114.4z"/>
	<path style="fill:#2B3B4E;" d="M293.8,114.4h-51.9c-3.5,0-6.3-2.8-6.3-6.3l0,0c0-3.5,2.8-6.3,6.3-6.3h51.9c3.5,0,6.3,2.8,6.3,6.3
		l0,0C300.1,111.6,297.3,114.4,293.8,114.4z"/>
	<circle style="fill:#2B3B4E;" cx="252.5" cy="389.9" r="16.2"/>
</g>
<path style="fill:#E6E9EE;" d="M335.4,143.8c-49.8,0-90.2,40.4-90.2,90.2c0,13.7,3.1,26.6,8.6,38.2L226,331.5l55.2-25.6
	c15.1,11.4,33.8,18.2,54.2,18.2c49.8,0,90.2-40.4,90.2-90.2C425.6,184.2,385.2,143.8,335.4,143.8z"/>
<path style="fill:#FF7058;" d="M390.1,224c-1.4-8.3-4.7-16-9.3-22.6l7-10.3l-9.9-9.9l-10.3,7c-6.6-4.7-14.3-7.9-22.6-9.3l-2.3-12.2
	h-14l-2.3,12.2c-8.3,1.4-16,4.7-22.5,9.3l-10.3-7l-9.9,9.9l7,10.3c-4.7,6.6-7.9,14.3-9.3,22.6l-12.2,2.3v14l12.2,2.3
	c1.4,8.3,4.7,16,9.3,22.5l-7,10.3l9.9,9.9l10.3-7c6.6,4.7,14.3,7.9,22.5,9.3l2.3,12.2h14l2.3-12.2c8.3-1.4,16-4.7,22.5-9.3l10.3,7
	l9.9-9.9l-7-10.3c4.7-6.6,7.9-14.3,9.3-22.5l12.2-2.3v-14L390.1,224z M335.8,268.6c-19.5,0-35.3-15.8-35.3-35.3s15.8-35.3,35.3-35.3
	s35.3,15.8,35.3,35.3S355.3,268.6,335.8,268.6z"/>
<g>
</g>
<g>
</g>
<g>
</g>
<g>
</g>
<g>
</g>
<g>
</g>
<g>
</g>
<g>
</g>
<g>
</g>
<g>
</g>
<g>
</g>
<g>
</g>
<g>
</g>
<g>
</g>
<g>
</g>
</svg>
