<?xml version="1.0" encoding="iso-8859-1"?>
<!-- Generator: Adobe Illustrator 19.0.0, SVG Export Plug-In . SVG Version: 6.00 Build 0)  -->
<svg version="1.1" id="Layer_1" xmlns="http://www.w3.org/2000/svg" xmlns:xlink="http://www.w3.org/1999/xlink" x="0px" y="0px"
	 viewBox="0 0 505 505" style="enable-background:new 0 0 505 505;" xml:space="preserve">
<circle style="fill:#324A5E;" cx="252.5" cy="252.5" r="252.5"/>
<g>
	<path style="fill:#E6E9EE;" d="M205.4,122.3l-69.9,21.9c-6.9,2.2-12.3,7.6-14.5,14.5l-21.9,69.9c-2.5,7.9-0.4,16.4,5.5,22.2
		l172.7,172.7c8.6,8.6,22.6,8.6,31.3,0l91.8-91.8c8.6-8.6,8.6-22.6,0-31.3L227.7,127.8C221.8,122,213.3,119.8,205.4,122.3z
		 M154.2,202.2c-7-7-6.9-18.3,0.2-25.1c6.7-6.5,17.9-6.5,24.5,0.1c7,6.9,7,18.1,0.1,25C172.2,209.1,161.1,209.1,154.2,202.2z"/>
	<path style="fill:#E6E9EE;" d="M158.3,174.3c-4.6-8.1-9.7-19.8-14-32.9l-6.7,2.1c4.1,12.4,9.4,25.7,15.2,35.4
		c0.5-0.7,1-1.3,1.6-1.8C155.6,176,156.9,175,158.3,174.3z"/>
</g>
<rect x="205.811" y="194.826" transform="matrix(-0.7071 0.7071 -0.7071 -0.7071 665.2604 308.3896)" style="fill:#54C0EB;" width="125.899" height="194.298"/>
<g>
	<path style="fill:#FFFFFF;" d="M242.3,238c-1.9-1.9-3.8-3-5.7-3.4c-2-0.4-3.7,0.1-5.2,1.7c-1.5,1.5-2.1,3.3-1.7,5.3
		c0.4,2,2,5.4,5,10.2c2.9,4.8,4.5,9.1,4.8,12.7c0.3,3.7-1.2,7.2-4.5,10.5s-7.2,4.7-11.8,4.3c-4.6-0.4-8.8-2.7-12.9-6.7
		c-5.9-5.9-9.1-13.2-9.6-21.9l8.8-0.8c0.5,7.1,2.8,12.8,6.9,16.9c2.1,2.1,4.1,3.3,6.2,3.6c2.1,0.3,3.9-0.2,5.3-1.7
		c1.5-1.5,2-3.2,1.7-5.1s-1.5-4.6-3.7-8.1c-2.1-3.4-3.6-6.2-4.5-8.2s-1.4-4-1.7-6c-0.5-3.9,0.9-7.7,4.4-11.2s7.5-4.9,11.9-4.3
		c4.4,0.7,8.5,2.9,12.3,6.6c2.4,2.4,4.4,5.2,6,8.4c1.6,3.2,2.5,6.4,2.8,9.5l-8.2,1.4c-0.1-2.1-0.8-4.5-2.1-7
		C245.7,242.1,244.1,239.9,242.3,238z"/>
	<path style="fill:#FFFFFF;" d="M296.5,282.3l-6,6l-20.2-20.2l-10,10l18.1,18.1l-5.7,5.7l-18.1-18.1L244.5,294l20.9,20.9l-6,6
		l-27.2-27.2l37.9-37.9L296.5,282.3z"/>
	<path style="fill:#FFFFFF;" d="M303.9,354.9c-7.6-0.1-14.2-3-19.8-8.6s-8.5-12.2-8.6-19.8c-0.1-7.6,2.7-14.1,8.2-19.7
		c5.6-5.6,12.2-8.3,19.7-8.2c7.6,0.1,14.2,3,19.8,8.6s8.5,12.2,8.6,19.8c0.1,7.6-2.7,14.1-8.2,19.7C318,352.3,311.4,355,303.9,354.9
		z M322.9,326.5c0.1-5.3-1.7-9.8-5.5-13.5c-3.8-3.8-8.3-5.6-13.5-5.5c-5.3,0.1-9.8,2-13.6,5.8c-3.8,3.8-5.8,8.3-5.9,13.6
		c-0.1,5.3,1.7,9.8,5.5,13.5c3.8,3.8,8.3,5.6,13.5,5.5c5.3-0.1,9.8-2,13.6-5.9C320.8,336.3,322.8,331.8,322.9,326.5z"/>
</g>
<path style="fill:#FF7058;" d="M179.6,178c-0.2-0.3-0.4-0.5-0.7-0.8c-1.7-1.6-3.6-2.9-5.7-3.7c-1.1,7.4-2.7,12.1-4.7,12.5
	c-2.2,0.4-6-4.1-10.3-11.7c-4.6-8.1-9.7-19.8-14-32.9c-2.7-8.1-5-16.8-6.7-25.5c-5.9-29.9,2.8-31.6,10.5-33.2
	c7.7-1.5,16.4-3.2,22.3,26.7c1.5,7.6,2.6,15.3,3.2,22.8l6.9-2.1c-0.8-8.6-1.9-16.5-3-22.1c-6.1-30.8-16.3-35.2-30.8-32.3
	c-14.5,2.9-22.3,10.8-16.2,41.6c1.3,6.7,3.8,16.2,7.1,26.2c4.1,12.4,9.4,25.7,15.2,35.4c5.5,9.3,11.4,15.3,17.2,14.2
	C174.8,192.1,177.9,186.3,179.6,178z"/>
<g>
</g>
<g>
</g>
<g>
</g>
<g>
</g>
<g>
</g>
<g>
</g>
<g>
</g>
<g>
</g>
<g>
</g>
<g>
</g>
<g>
</g>
<g>
</g>
<g>
</g>
<g>
</g>
<g>
</g>
</svg>
