<?xml version="1.0" encoding="iso-8859-1"?>
<!-- Generator: Adobe Illustrator 19.0.0, SVG Export Plug-In . SVG Version: 6.00 Build 0)  -->
<svg version="1.1" id="Layer_1" xmlns="http://www.w3.org/2000/svg" xmlns:xlink="http://www.w3.org/1999/xlink" x="0px" y="0px"
	 viewBox="0 0 505 505" style="enable-background:new 0 0 505 505;" xml:space="preserve">
<circle style="fill:#90DFAA;" cx="252.5" cy="252.5" r="252.5"/>
<g>
	<path style="fill:#FFFFFF;" d="M252.5,419.1c-91.9,0-166.6-74.7-166.6-166.6S160.6,85.9,252.5,85.9s166.6,74.7,166.6,166.6
		S344.4,419.1,252.5,419.1z M252.5,116.7c-74.9,0-135.8,60.9-135.8,135.8s60.9,135.8,135.8,135.8s135.8-60.9,135.8-135.8
		S327.4,116.7,252.5,116.7z"/>
	<path style="fill:#FFFFFF;" d="M440.7,267.9h-74c-8.5,0-15.4-6.9-15.4-15.4s6.9-15.4,15.4-15.4h74c8.5,0,15.4,6.9,15.4,15.4
		S449.2,267.9,440.7,267.9z"/>
	<path style="fill:#FFFFFF;" d="M138.3,267.9h-74c-8.5,0-15.4-6.9-15.4-15.4s6.9-15.4,15.4-15.4h74c8.5,0,15.4,6.9,15.4,15.4
		S146.8,267.9,138.3,267.9z"/>
	<path style="fill:#FFFFFF;" d="M252.5,456.1c-8.5,0-15.4-6.9-15.4-15.4v-74c0-8.5,6.9-15.4,15.4-15.4s15.4,6.9,15.4,15.4v74
		C267.9,449.2,261,456.1,252.5,456.1z"/>
	<path style="fill:#FFFFFF;" d="M252.5,153.7c-8.5,0-15.4-6.9-15.4-15.4v-74c0-8.5,6.9-15.4,15.4-15.4s15.4,6.9,15.4,15.4v74
		C267.9,146.8,261,153.7,252.5,153.7z"/>
</g>
<path style="fill:#FD8469;" d="M305.5,329.5h-106c-15,0-25.5-15.3-19.6-29.2c8.2-19.3,23.9-34.7,43.5-42.5l29.1,29.1l29.1-29.1
	c19.6,7.8,35.2,23.2,43.5,42.5C330.9,314.2,320.5,329.5,305.5,329.5z"/>
<ellipse style="fill:#324A5E;" cx="252.5" cy="212.8" rx="31.1" ry="37.3"/>
<g>
</g>
<g>
</g>
<g>
</g>
<g>
</g>
<g>
</g>
<g>
</g>
<g>
</g>
<g>
</g>
<g>
</g>
<g>
</g>
<g>
</g>
<g>
</g>
<g>
</g>
<g>
</g>
<g>
</g>
</svg>
