<?xml version="1.0" encoding="iso-8859-1"?>
<!-- Generator: Adobe Illustrator 19.0.0, SVG Export Plug-In . SVG Version: 6.00 Build 0)  -->
<svg version="1.1" id="Layer_1" xmlns="http://www.w3.org/2000/svg" xmlns:xlink="http://www.w3.org/1999/xlink" x="0px" y="0px"
	 viewBox="0 0 505 505" style="enable-background:new 0 0 505 505;" xml:space="preserve">
<circle style="fill:#324A5E;" cx="252.5" cy="252.5" r="252.5"/>
<g>
	<path style="fill:#FFD05B;" d="M354.6,237.7c0,15.5-10.6,33.1-23.6,33.1c-13.1,0-23.6-17.5-23.6-33.1s10.6-23.2,23.6-23.2
		C344.1,214.4,354.6,222.1,354.6,237.7z"/>
	<path style="fill:#FFD05B;" d="M383.6,310.8c-14.9,6.3-33.1,10.4-52.6,10.4c-19.6,0-37.7-4.1-52.6-10.4
		c8.4-17.2,28.8-33.4,52.6-33.4C354.9,277.4,375.3,293.6,383.6,310.8z"/>
	<path style="fill:#FFD05B;" d="M197.6,237.7c0,15.5-10.6,33.1-23.6,33.1c-13.1,0-23.6-17.5-23.6-33.1s10.6-23.2,23.6-23.2
		C187,214.4,197.6,222.1,197.6,237.7z"/>
	<path style="fill:#FFD05B;" d="M226.6,310.8c-14.9,6.3-33.1,10.4-52.6,10.4c-19.6,0-37.7-4.1-52.6-10.4
		c8.4-17.2,28.8-33.4,52.6-33.4S218.3,293.6,226.6,310.8z"/>
</g>
<g>
	<path style="fill:#FFFFFF;" d="M252.5,437.1c-101.8,0-184.6-82.8-184.6-184.6S150.7,67.9,252.5,67.9s184.6,82.8,184.6,184.6
		S354.3,437.1,252.5,437.1z M252.5,83.7c-93.1,0-168.8,75.7-168.8,168.8s75.7,168.8,168.8,168.8s168.8-75.7,168.8-168.8
		S345.6,83.7,252.5,83.7z"/>
	<rect x="380.1" y="243.2" style="fill:#FFFFFF;" width="48.5" height="18.5"/>
	<rect x="76.3" y="243.2" style="fill:#FFFFFF;" width="48.5" height="18.5"/>
	<rect x="243.2" y="380.1" style="fill:#FFFFFF;" width="18.5" height="48.5"/>
	<rect x="243.2" y="76.3" style="fill:#FFFFFF;" width="18.5" height="48.5"/>
</g>
<g>
	<path style="fill:#FF7058;" d="M289.6,224.5c0,24.4-16.6,51.8-37.1,51.8s-37.1-27.5-37.1-51.8c0-24.4,16.6-36.5,37.1-36.5
		C273,188.1,289.6,200.1,289.6,224.5z"/>
	<path style="fill:#FF7058;" d="M335.1,339.3c-23.4,9.8-51.9,16.3-82.6,16.3s-59.1-6.4-82.6-16.3c13.1-27,45.1-52.4,82.6-52.4
		S321.9,312.2,335.1,339.3z"/>
</g>
<g>
</g>
<g>
</g>
<g>
</g>
<g>
</g>
<g>
</g>
<g>
</g>
<g>
</g>
<g>
</g>
<g>
</g>
<g>
</g>
<g>
</g>
<g>
</g>
<g>
</g>
<g>
</g>
<g>
</g>
</svg>
