<?xml version="1.0" encoding="iso-8859-1"?>
<!-- Generator: Adobe Illustrator 19.0.0, SVG Export Plug-In . SVG Version: 6.00 Build 0)  -->
<svg version="1.1" id="Layer_1" xmlns="http://www.w3.org/2000/svg" xmlns:xlink="http://www.w3.org/1999/xlink" x="0px" y="0px"
	 viewBox="0 0 505 505" style="enable-background:new 0 0 505 505;" xml:space="preserve">
<circle style="fill:#FFD05B;" cx="252.5" cy="252.5" r="252.5"/>
<path style="fill:#E6E9EE;" d="M258.3,230.3h-11.6c-31,0-55.1,29.6-51.6,63.4l5.8,55.6c0.1,0.9,0.2,1.8,0.4,2.6
	c4,27.5,25.7,47.9,51.2,47.9c13.2,0,25.4-5.4,34.6-14.5c8.7-8.5,14.8-20.1,16.7-33.4c0.2-0.9,0.3-1.8,0.4-2.6l5.8-55.6
	C313.4,260,289.3,230.3,258.3,230.3z"/>
<path style="fill:#FF7058;" d="M436.2,425.7c-46,48.8-111.3,79.3-183.7,79.3s-137.6-30.5-183.7-79.3c33.4-36.7,79.7-63.2,132.4-73.7
	c4,27.5,25.7,47.9,51.2,47.9c13.2,0,25.4-5.4,34.6-14.5c8.7-8.5,14.8-20.1,16.7-33.4C356.6,362.5,402.8,389,436.2,425.7z"/>
<path style="fill:#FFFFFF;" d="M352.2,220.5c0,77.6-44.6,139.7-99.7,139.7c-55,0-99.7-62-99.7-139.7c0-77.6,44.6-104.7,99.7-104.7
	C307.5,115.8,352.2,142.9,352.2,220.5z"/>
<g>
	<path style="fill:#2B3B4E;" d="M260.5,315.1l-0.7-15.8l78.7-3.7c13.6-0.6,25.9-8.5,32.1-20.6l13.6-26.3l14,7.3l-13.6,26.3
		c-8.8,17-26.2,28.2-45.4,29.1L260.5,315.1z"/>
	<path style="fill:#2B3B4E;" d="M134.5,204.3c0-0.3,0-0.6,0-0.9c0-76.1,39.7-114.8,118-114.8s118,38.6,118,114.8c0,0.3,0,0.6,0,0.9
		h21.8c0-0.3,0-0.6,0-0.9c0-88-49.6-136.5-139.8-136.5c-90.1,0-139.8,48.5-139.8,136.5c0,0.3,0,0.6,0,0.9H134.5z"/>
</g>
<g>
	<path style="fill:#54C0EB;" d="M365.6,267.1h41.5c2.8,0,5.1-2.3,5.1-5.1v-70.5c0-2.8-2.3-5.1-5.1-5.1h-41.5c-1.1,0-1.9,0.9-1.9,1.9
		v76.8C363.7,266.3,364.6,267.1,365.6,267.1z"/>
	<path style="fill:#54C0EB;" d="M139.4,267.1H97.9c-2.8,0-5.1-2.3-5.1-5.1v-70.5c0-2.8,2.3-5.1,5.1-5.1h41.5c1.1,0,1.9,0.9,1.9,1.9
		v76.8C141.3,266.3,140.4,267.1,139.4,267.1z"/>
	<ellipse style="fill:#54C0EB;" cx="260.2" cy="307.3" rx="26.4" ry="18.7"/>
</g>
<g>
</g>
<g>
</g>
<g>
</g>
<g>
</g>
<g>
</g>
<g>
</g>
<g>
</g>
<g>
</g>
<g>
</g>
<g>
</g>
<g>
</g>
<g>
</g>
<g>
</g>
<g>
</g>
<g>
</g>
</svg>
