<?xml version="1.0" encoding="iso-8859-1"?>
<!-- Generator: Adobe Illustrator 19.0.0, SVG Export Plug-In . SVG Version: 6.00 Build 0)  -->
<svg version="1.1" id="Layer_1" xmlns="http://www.w3.org/2000/svg" xmlns:xlink="http://www.w3.org/1999/xlink" x="0px" y="0px"
	 viewBox="0 0 505 505" style="enable-background:new 0 0 505 505;" xml:space="preserve">
<g>
	<circle style="fill:#FD8469;" cx="252.5" cy="252.5" r="252.5"/>
	<path style="fill:#FD8469;" d="M505,252.5c0,100.9-59.2,188-144.8,228.4c-11.6,5.5-23.7,10.1-36.2,13.8c-3.2,1-6.5,1.9-9.8,2.7
		c-19.8,5-40.5,7.6-61.8,7.6s-42-2.6-61.8-7.6c-3.3-0.8-6.5-1.7-9.8-2.7c-12.5-3.7-24.6-8.3-36.2-13.8C59.2,440.5,0,353.4,0,252.5
		C0,113,113,0,252.5,0S505,113,505,252.5z"/>
</g>
<circle style="fill:#324A5E;" cx="252.5" cy="327.2" r="46.2"/>
<path style="fill:#FFFFFF;" d="M360.2,480.9c-11.6,5.5-23.7,10.1-36.2,13.8l-9.8-37.3v40c-19.8,5-40.5,7.6-61.8,7.6
	s-42-2.6-61.8-7.6v-40l-9.8,37.3c-12.5-3.7-24.6-8.3-36.2-13.8l1.5-12.1c5.4-45.7,33.9-79.2,67.2-79.2h78.1
	c33.3,0,61.8,33.5,67.2,79.2L360.2,480.9z"/>
<path style="fill:#FFD05B;" d="M380,84.1H188.6C169,84.1,153,100,153,119.7v84.7c0,19.6,15.9,35.6,35.6,35.6h119.5
	c23.6,20.2,38.1,56,22.5,99.2c24.5-24.8,33.8-62.7,26.4-99.2h23.1c19.6,0,35.6-15.9,35.6-35.6v-84.7C415.6,100,399.7,84.1,380,84.1z
	"/>
<g>
	<circle style="fill:#FFFFFF;" cx="214" cy="158.5" r="20.6"/>
	<circle style="fill:#FFFFFF;" cx="284.3" cy="158.5" r="20.6"/>
	<circle style="fill:#FFFFFF;" cx="354.6" cy="158.5" r="20.6"/>
</g>
<g>
</g>
<g>
</g>
<g>
</g>
<g>
</g>
<g>
</g>
<g>
</g>
<g>
</g>
<g>
</g>
<g>
</g>
<g>
</g>
<g>
</g>
<g>
</g>
<g>
</g>
<g>
</g>
<g>
</g>
</svg>
