<?xml version="1.0" encoding="iso-8859-1"?>
<!-- Generator: Adobe Illustrator 19.0.0, SVG Export Plug-In . SVG Version: 6.00 Build 0)  -->
<svg version="1.1" id="Layer_1" xmlns="http://www.w3.org/2000/svg" xmlns:xlink="http://www.w3.org/1999/xlink" x="0px" y="0px"
	 viewBox="0 0 505 505" style="enable-background:new 0 0 505 505;" xml:space="preserve">
<circle style="fill:#90DFAA;" cx="252.5" cy="252.5" r="252.5"/>
<path style="fill:#FF7058;" d="M349.8,396.7H155.2c-25.9,0-47-21-47-47V155.2c0-25.9,21-47,47-47h194.5c25.9,0,47,21,47,47v194.5
	C396.7,375.7,375.7,396.7,349.8,396.7z"/>
<path style="fill:#FFFFFF;" d="M207.1,213.6v77.8c0,9.2,10,15,18,10.4l66.8-38.9c7.9-4.6,7.9-16.1,0-20.7l-66.8-38.9
	C217.2,198.6,207.1,204.4,207.1,213.6z"/>
<g>
</g>
<g>
</g>
<g>
</g>
<g>
</g>
<g>
</g>
<g>
</g>
<g>
</g>
<g>
</g>
<g>
</g>
<g>
</g>
<g>
</g>
<g>
</g>
<g>
</g>
<g>
</g>
<g>
</g>
</svg>
