<?xml version="1.0" encoding="iso-8859-1"?>
<!-- Generator: Adobe Illustrator 19.0.0, SVG Export Plug-In . SVG Version: 6.00 Build 0)  -->
<svg version="1.1" id="Layer_1" xmlns="http://www.w3.org/2000/svg" xmlns:xlink="http://www.w3.org/1999/xlink" x="0px" y="0px"
	 viewBox="0 0 505 505" style="enable-background:new 0 0 505 505;" xml:space="preserve">
<circle style="fill:#F1543F;" cx="252.5" cy="252.5" r="252.5"/>
<polygon style="fill:#FFFFFF;" points="193.6,93.7 193.6,153.5 133.9,153.5 133.9,409.4 371.8,409.4 371.8,93.7 "/>
<polygon style="fill:#E6E9EE;" points="193.6,93.7 133.9,153.5 193.6,153.5 "/>
<path style="fill:#324A5E;" d="M326,179.7l-34.9,34.9V196c0-8.5-6.9-15.3-15.3-15.3h-80.9c-8.5,0-15.3,6.9-15.3,15.3v62.8
	c0,8.5,6.9,15.3,15.3,15.3h80.9c8.5,0,15.3-6.9,15.3-15.3v-18.6l34.9,34.9V179.7z"/>
<rect x="166.768" y="328.667" transform="matrix(0.7071 0.7071 -0.7071 0.7071 295.5695 -22.9335)" style="fill:#F9B54C;" width="17.4" height="33.3"/>
<path style="fill:#FFD05B;" d="M181.8,339.1c21.8,21.8,57.1,21.8,78.8,0c21.8-21.8,21.8-57.1,0-78.8c-21.8-21.8-57.1-21.8-78.8,0
	C160,282,160,317.3,181.8,339.1z M191,269.5c16.6-16.6,43.6-16.6,60.3,0c16.6,16.6,16.6,43.6,0,60.3c-16.6,16.6-43.6,16.6-60.3,0
	C174.4,313.2,174.4,286.2,191,269.5z"/>
<path style="fill:#54C0EB;" d="M160.2,339.9l20.7,20.7c0.6,0.6,0.6,1.4,0,2l-50,50c-0.6,0.6-1.4,0.6-2,0l-20.7-20.7
	c-0.6-0.6-0.6-1.4,0-2l50-50C158.8,339.3,159.7,339.3,160.2,339.9z"/>
<g>
</g>
<g>
</g>
<g>
</g>
<g>
</g>
<g>
</g>
<g>
</g>
<g>
</g>
<g>
</g>
<g>
</g>
<g>
</g>
<g>
</g>
<g>
</g>
<g>
</g>
<g>
</g>
<g>
</g>
</svg>
