<?xml version="1.0" encoding="iso-8859-1"?>
<!-- Generator: Adobe Illustrator 19.0.0, SVG Export Plug-In . SVG Version: 6.00 Build 0)  -->
<svg version="1.1" id="Layer_1" xmlns="http://www.w3.org/2000/svg" xmlns:xlink="http://www.w3.org/1999/xlink" x="0px" y="0px"
	 viewBox="0 0 505 505" style="enable-background:new 0 0 505 505;" xml:space="preserve">
<circle style="fill:#324A5E;" cx="252.5" cy="252.5" r="252.5"/>
<polygon style="fill:#2C9984;" points="314.2,356.2 190.8,356.2 178.7,400.7 326.3,400.7 "/>
<path style="fill:#4CDBC4;" d="M341.6,415.8v-8.5c0-8.4-6.8-15.2-15.2-15.2H178.6c-8.4,0-15.2,6.8-15.2,15.2v8.5H341.6z"/>
<path style="fill:#FFFFFF;" d="M418.5,312.3V140.5c0-6.4-5.2-11.6-11.6-11.6H98.1c-6.4,0-11.6,5.2-11.6,11.6v171.8H418.5z"/>
<path style="fill:#4CDBC4;" d="M86.5,312.4v37.7c0,6.4,5.2,11.6,11.6,11.6H407c6.4,0,11.6-5.2,11.6-11.6v-37.7H86.5z"/>
<circle style="fill:#2C9984;" cx="252.5" cy="337" r="11.3"/>
<path style="fill:#54C0EB;" d="M343.4,200.5c0,25.2-4.8,70.4-13.2,90.5L316,262.9l-12.7,25.2l-12.7-25.2l-12.7,25.2l-12.7-25.2
	L252.5,288l-12.7-25.2L227.1,288l-12.7-25.2L201.7,288L189,262.8l-14.2,28.1c-8.4-20.1-13.2-65.2-13.2-90.5
	c0-73.4,40.7-111.3,90.8-111.3S343.4,127.1,343.4,200.5z"/>
<g>
	<circle style="fill:#FFFFFF;" cx="285" cy="170.1" r="16.8"/>
	<circle style="fill:#FFFFFF;" cx="220" cy="170.1" r="16.8"/>
</g>
<g>
</g>
<g>
</g>
<g>
</g>
<g>
</g>
<g>
</g>
<g>
</g>
<g>
</g>
<g>
</g>
<g>
</g>
<g>
</g>
<g>
</g>
<g>
</g>
<g>
</g>
<g>
</g>
<g>
</g>
</svg>
