<?xml version="1.0" encoding="iso-8859-1"?>
<!-- Generator: Adobe Illustrator 19.0.0, SVG Export Plug-In . SVG Version: 6.00 Build 0)  -->
<svg version="1.1" id="Layer_1" xmlns="http://www.w3.org/2000/svg" xmlns:xlink="http://www.w3.org/1999/xlink" x="0px" y="0px"
	 viewBox="0 0 505 505" style="enable-background:new 0 0 505 505;" xml:space="preserve">
<circle style="fill:#90DFAA;" cx="252.5" cy="252.5" r="252.5"/>
<path style="fill:#FFFFFF;" d="M252.5,75C154.6,75,75,154.6,75,252.5S154.6,430,252.5,430S430,350.4,430,252.5S350.4,75,252.5,75z
	 M374.3,355.8c-8.5-8-17.8-15.3-27.8-21.5c6.6-21.9,10.6-46.6,11.3-72.9H412C410.1,297.3,396.2,330,374.3,355.8z M130.7,149.2
	c8.5,8.1,17.8,15.3,27.8,21.5c-6.6,21.9-10.6,46.5-11.4,72.9H92.9C94.9,207.8,108.8,175,130.7,149.2z M243.6,179.9
	c-22.7-1.2-44.1-7.3-63.3-17c14.4-37.8,37.4-64.3,63.3-69.3V179.9z M243.6,197.6v46h-78.8c0.7-22.8,4.2-44.4,9.8-63.8
	C195.7,190.1,219,196.4,243.6,197.6z M243.6,261.4v46c-24.6,1.2-47.9,7.5-68.9,17.8c-5.6-19.4-9.1-41.1-9.8-63.8H243.6z
	 M243.6,325.1v86.4c-25.9-5-48.9-31.5-63.3-69.3C199.5,332.4,221,326.4,243.6,325.1z M261.4,325.1c22.7,1.2,44.1,7.3,63.3,17
	c-14.4,37.8-37.4,64.3-63.3,69.3V325.1z M261.4,307.4v-46h78.8c-0.7,22.8-4.2,44.4-9.8,63.8C309.3,314.9,286,308.6,261.4,307.4z
	 M261.4,243.6v-46c24.6-1.2,47.9-7.5,68.9-17.8c5.6,19.4,9.1,41.1,9.8,63.8H261.4z M261.4,179.9V93.5c25.9,5,48.9,31.5,63.3,69.3
	C305.5,172.6,284,178.6,261.4,179.9z M310.8,103.7c19.2,7.5,36.6,18.7,51.4,32.6c-6.7,6.3-13.9,12-21.6,17.1
	C332.8,133.7,322.6,116.7,310.8,103.7z M164.4,153.6c-7.7-5.1-14.9-10.9-21.5-17.2c14.8-13.9,32.2-25.1,51.4-32.6
	C182.4,116.7,172.2,133.7,164.4,153.6z M147.1,261.4c0.7,26.3,4.7,51,11.3,72.9c-10,6.3-19.3,13.5-27.8,21.5
	c-21.9-25.8-35.8-58.5-37.7-94.4H147.1z M164.4,351.5c7.8,19.8,17.9,36.8,29.8,49.8c-19.2-7.6-36.6-18.7-51.3-32.6
	C149.5,362.3,156.7,356.5,164.4,351.5z M340.6,351.4c7.7,5.1,14.9,10.9,21.6,17.2c-14.7,13.9-32.1,25.1-51.3,32.6
	C322.7,388.2,332.8,371.3,340.6,351.4z M357.9,243.6c-0.7-26.3-4.7-51-11.4-72.9c10-6.3,19.3-13.5,27.8-21.5
	c21.9,25.8,35.8,58.5,37.7,94.4H357.9z"/>
<circle style="fill:#FF7058;" cx="155.5" cy="253.6" r="35.4"/>
<circle style="fill:#54C0EB;" cx="335.4" cy="168.9" r="35.4"/>
<circle style="fill:#324A5E;" cx="335.4" cy="338.4" r="35.4"/>
<g>
</g>
<g>
</g>
<g>
</g>
<g>
</g>
<g>
</g>
<g>
</g>
<g>
</g>
<g>
</g>
<g>
</g>
<g>
</g>
<g>
</g>
<g>
</g>
<g>
</g>
<g>
</g>
<g>
</g>
</svg>
