<?xml version="1.0" encoding="iso-8859-1"?>
<!-- Generator: Adobe Illustrator 19.0.0, SVG Export Plug-In . SVG Version: 6.00 Build 0)  -->
<svg version="1.1" id="Layer_1" xmlns="http://www.w3.org/2000/svg" xmlns:xlink="http://www.w3.org/1999/xlink" x="0px" y="0px"
	 viewBox="0 0 508 508" style="enable-background:new 0 0 508 508;" xml:space="preserve">
<circle style="fill:#54C0EB;" cx="254" cy="254" r="254"/>
<g>
	<path style="fill:#F1543F;" d="M328.4,299.6c0,0-40.8-16.4-74.4-4.8v40l70.4-15.2L328.4,299.6"/>
	<path style="fill:#F1543F;" d="M179.6,299.6c0,0,40.8-16.4,74.4-4.8v40l-70.4-15.2L179.6,299.6"/>
</g>
<g>
	<polygon style="fill:#FFFFFF;" points="355.2,354.4 304.4,296.4 203.6,296.4 152.8,354.4 	"/>
	<path style="fill:#FFFFFF;" d="M305.6,297.6c-0.4-0.4-0.4-1.2-0.8-1.6c0,0-0.8,4.4-6,10.8c-22.4,28-66.4,28-88.8,0
		c-5.2-6.8-6-10.8-6-10.8c-0.4,0.4-0.4,0.8-0.8,1.2c2-3.2,2.8-7.2,3.2-10.8l1.2-14.8l0,0l2.8-45.6h87.2l4.4,60.8
		c0.4,3.2,1.2,6.4,2.4,9.6C304.8,296.8,305.2,297.2,305.6,297.6z"/>
</g>
<path style="fill:#F1543F;" d="M452,413.2C405.6,470.8,334,508,254,508s-151.6-37.2-198-94.8c21.2-41.2,51.6-44.8,51.6-44.8
	c28.8-14,51.6-31.6,67.2-45.6c9.6,15.2,41.6,26.4,79.2,26.4c36.8,0,68-10.4,78.4-25.2c15.6,13.6,38.8,30.4,68,44.4
	C400.8,368.4,430.8,371.6,452,413.2z"/>
<path style="fill:#E6E9EE;" d="M301.2,279.2c-13.6,16-30,26.4-47.2,26.4c-17.6,0-34-10.4-47.2-26.4l0.4-5.6l0,0l3.2-45.6h87.2
	L301.2,279.2z"/>
<g>
	<path style="fill:#FFFFFF;" d="M178.4,129.6c-4.8,10.4-8,23.2-8,38.8C170.4,226,208,298,254,298s83.6-72,83.6-129.2
		c0-15.6-2.8-28.4-8-38.8H178.4V129.6z"/>
	<path style="fill:#FFFFFF;" d="M352,203.2c-6,13.6-16.4,21.2-23.6,17.2s-8-18-2-31.2c6-13.6,16.4-21.2,23.6-17.2S358,190,352,203.2
		z"/>
	<path style="fill:#FFFFFF;" d="M156,203.2c6,13.6,16.4,21.2,23.6,17.2c7.2-4,8-18,2-31.2c-6-13.6-16.4-21.2-23.6-17.2
		C150.8,176,150,190,156,203.2z"/>
</g>
<g>
	<path style="fill:#2B3B4E;" d="M180.4,125.6h-19.2c-2.4,8.4-4,17.2-4,26.4c0,20.8,6.8,40,18.4,55.6c-3.2-13.2-5.2-26.4-5.2-38.8
		C170.4,150.8,174,136.8,180.4,125.6z"/>
	<path style="fill:#2B3B4E;" d="M327.6,125.6c6.4,11.2,10,25.6,10,43.2c0,12.4-1.6,26-5.2,38.8c11.6-15.6,18.4-34.8,18.4-55.6
		c0-9.2-1.2-18-4-26.4H327.6z"/>
	<path style="fill:#2B3B4E;" d="M350.8,152c0,6.8-0.8,13.2-2,19.6c-3.6-1.2-7.6,0-11.2,2.8c0-2,0-4,0-5.6s0-2.8,0-4.4
		c-0.4-16.8-17.2-27.6-32.8-21.2c-13.6,5.6-31.2,8.8-50.4,8.8s-36.8-3.2-50.4-8.8c-15.6-6.4-32.4,4.8-32.8,21.2c0,1.2,0,2.8,0,4.4
		c0,2,0,3.6,0,5.6c-4-2.8-8-4-11.2-2.8c-1.2-6.4-2-12.8-2-19.6c0-9.2,1.2-18.4,4-26.8c0.4-0.8,0.4-2,0.8-2.8c26-5.2,58-8,92-8
		s65.6,2.8,92,8c0.4,0.8,0.4,2,0.8,2.8C349.2,133.6,350.8,142.8,350.8,152z"/>
</g>
<g>
	<path style="fill:#FFD05B;" d="M328.4,299.6c-10.4,16.8-42.8,20.8-61.2,21.6c-7.6,0.4-13.2,6.4-13.2,14v14
		c45.2,0,70.8-14,78.4-25.2L328.4,299.6z"/>
	<path style="fill:#FFD05B;" d="M178.8,298.4c10.4,16.8,42.8,20.8,61.2,21.6c7.6,0.4,13.2,6.4,13.2,14v14.8
		c-45.2-0.4-70.8-14-78.4-26L178.8,298.4z"/>
</g>
<path style="fill:#F1543F;" d="M240.8,348.8c5.2,0,10,0,12,0C248,348.8,244,348.8,240.8,348.8z"/>
<g>
	<path style="fill:#FFD05B;" d="M332.4,324c0,0,72.4,20.8,96,58.4C428.4,382.4,345.2,364.4,332.4,324z"/>
	<path style="fill:#FFD05B;" d="M175.6,324c0,0-72.4,20.8-96,58.4C79.6,382.4,162.8,364.4,175.6,324z"/>
	<circle style="fill:#FFD05B;" cx="268.8" cy="377.6" r="10"/>
	<circle style="fill:#FFD05B;" cx="268.8" cy="416" r="10"/>
	<circle style="fill:#FFD05B;" cx="268.8" cy="454.8" r="10"/>
</g>
<rect x="310" y="416" style="fill:#FF7058;" width="73.2" height="19.2"/>
<path style="fill:#F1543F;" d="M350.4,136.8c-63.2-18.4-130-18.4-193.2,0c3.6-24.4,6.8-48.4,10.4-72.8c1.2-8,7.2-14.4,15.2-15.6
	c46.8-8,95.2-8,142,0c8,1.2,14,7.6,15.2,15.6C343.6,88.4,347.2,112.8,350.4,136.8z"/>
<g>
	<path style="fill:#FFD05B;" d="M348,117.6c-61.2-17.2-126.4-17.2-187.6,0c0.8-4.8,1.2-9.6,2-14.4c60-16.4,123.6-16.4,183.6,0
		C346.4,108,347.2,112.8,348,117.6z"/>
	<path style="fill:#FFD05B;" d="M344.4,92.8c-59.2-16-121.6-16-180.8,0c0.8-4.8,1.2-9.6,2-14.4c57.6-15.2,118.8-15.2,176.4,0
		C342.8,83.2,343.6,88,344.4,92.8z"/>
</g>
<g>
</g>
<g>
</g>
<g>
</g>
<g>
</g>
<g>
</g>
<g>
</g>
<g>
</g>
<g>
</g>
<g>
</g>
<g>
</g>
<g>
</g>
<g>
</g>
<g>
</g>
<g>
</g>
<g>
</g>
</svg>
