<?xml version="1.0" encoding="iso-8859-1"?>
<!-- Generator: Adobe Illustrator 19.0.0, SVG Export Plug-In . SVG Version: 6.00 Build 0)  -->
<svg version="1.1" id="Layer_1" xmlns="http://www.w3.org/2000/svg" xmlns:xlink="http://www.w3.org/1999/xlink" x="0px" y="0px"
	 viewBox="0 0 508 508" style="enable-background:new 0 0 508 508;" xml:space="preserve">
<circle style="fill:#84DBFF;" cx="254" cy="254" r="254"/>
<ellipse style="fill:#324A5E;" cx="254" cy="170.8" rx="104" ry="90.4"/>
<g>
	<path style="fill:#FFD05B;" d="M352,187.6c-6,13.6-16.4,21.2-23.6,17.2s-8-18-2-31.2c6-13.6,16.4-21.2,23.6-17.2
		C357.2,160,358,174,352,187.6z"/>
	<path style="fill:#FFD05B;" d="M156,187.6c6,13.6,16.4,21.2,23.6,17.2c7.2-4,8-18,2-31.2c-6-13.6-16.4-21.2-23.6-17.2
		C150.8,160,150,174,156,187.6z"/>
	<polygon style="fill:#FFD05B;" points="203.6,280.4 304.4,280.4 368,395.2 339.2,432.4 254,498.4 168.8,432.4 140,395.2 	"/>
</g>
<path style="fill:#F9B54C;" d="M305.6,282c-0.4-0.4-0.4-1.2-0.8-1.6c0,0-0.8,4.4-6,10.8c-22.4,28-66.4,28-88.8,0
	c-5.2-6.8-6-10.8-6-10.8c-0.4,0.4-0.4,0.8-0.8,1.2c2-3.2,2.8-7.2,3.2-10.8l1.2-14.8l0,0l2.8-46h87.2l4.4,60.8
	c0.4,3.2,1.2,6.4,2.4,9.6C304.8,280.8,305.2,281.2,305.6,282z"/>
<path style="fill:#FFD05B;" d="M342,165.2c0,60.4-39.2,136-88,136s-88-75.6-88-136s39.2-82,88-82S342,104.8,342,165.2z"/>
<path style="fill:#FF7058;" d="M208.4,371.2c0,0,36,25.6,91.6,0c0,0-21.6,111.6-45.6,127.2C254,498.4,201.2,404,208.4,371.2z"/>
<g>
	<path style="fill:#E6E9EE;" d="M254,508L254,508c-2.8,0-5.6,0-8.4,0c-79.2-2.4-149.6-41.6-194-100.8c20.8-50.8,56-54.8,56-54.8
		c56-26.8,89.2-64.8,91.6-67.2l-12,26l24,102.8L254,508z"/>
	<path style="fill:#E6E9EE;" d="M456.8,407.2C410.4,468.4,336.8,508,254,508l0,0l43.2-94l24-102.8l-12-26c2,2.4,35.6,40.4,91.6,67.2
		C400.8,352.4,435.6,356.4,456.8,407.2z"/>
</g>
<path style="fill:#FFFFFF;" d="M323.2,395.2l7.2,37.6C302,448,281.6,481.2,262.8,508c-2.8,0-5.6,0-8.4,0s-5.6,0-8.4,0
	c-18.8-26.8-39.2-60-67.6-75.2l7.2-37.6h-36c14.8-67.2,52.4-112.4,54.8-114.4c-1.2,2.4-19.2,38.8,7.6,97.6c0,0,23.2,66.8,42.8,120.4
	c18.8-54,42-120.8,42-120.8c27.2-58.8,9.2-95.2,7.6-97.6c2.4,2,40,47.6,54.8,114.4h-36V395.2z"/>
<path style="fill:#FF7058;" d="M254,115.6c44,0,81.6,11.6,97.2,27.6c0.4-4.4,0.8-8.4,0.8-12.8C352,76,308,32,253.6,32
	s-98.4,44-98.4,98.4c0,4.4,0.4,8.8,0.8,12.8C172.4,126.8,210,115.6,254,115.6z"/>
<path style="fill:#F1543F;" d="M254,115.6L254,115.6c-74.4-0.8-97.6,27.6-97.6,27.6l24,20.4c4.8,4,11.6,4.4,16.8,0.8
	c21.6-16,56.8-13.2,56.8-13.2l0,0c0,0,35.2-2.8,56.8,13.2c5.2,3.6,12,3.2,16.8-0.8l24-20.4C351.2,143.2,328.4,114.8,254,115.6z"/>
<path style="fill:#324A5E;" d="M353.2,351.2l-2-11.2c0,0-4.8,39.6-40.8,31.2l12-4c0,0-38.4,2-45.2-24.4c0,0,43.6,23.6,40.4-35.2
	c0,0-2-19.6-12.8-35.6c4.8-6,9.2-12.4,13.2-19.6C332.8,265.6,364,300.8,353.2,351.2z"/>
<g>
</g>
<g>
</g>
<g>
</g>
<g>
</g>
<g>
</g>
<g>
</g>
<g>
</g>
<g>
</g>
<g>
</g>
<g>
</g>
<g>
</g>
<g>
</g>
<g>
</g>
<g>
</g>
<g>
</g>
</svg>
