<?xml version="1.0" encoding="iso-8859-1"?>
<!-- Generator: Adobe Illustrator 19.0.0, SVG Export Plug-In . SVG Version: 6.00 Build 0)  -->
<svg version="1.1" id="Layer_1" xmlns="http://www.w3.org/2000/svg" xmlns:xlink="http://www.w3.org/1999/xlink" x="0px" y="0px"
	 viewBox="0 0 508 508" style="enable-background:new 0 0 508 508;" xml:space="preserve">
<circle style="fill:#324A5E;" cx="254" cy="254" r="254"/>
<path style="fill:#FF7058;" d="M342.4,161.2c0.8-14.4-0.8-29.6-4.4-44.4c-10-40-34-66-55.6-66c-3.6,0-7.2,0.8-10.4,2
	c-11.2,4.4-24.8,4.4-36,0c-3.2-1.2-6.8-2-10.4-2c-21.6,0-45.6,26-55.6,66c-3.6,15.2-5.2,30.4-4.4,44.4H342.4z"/>
<path style="fill:#F1543F;" d="M412.8,136.8c0,47.2-71.2,85.2-158.8,85.2S95.2,184,95.2,136.8s71.2-6.4,158.8-6.4
	C341.6,130.4,412.8,89.6,412.8,136.8z"/>
<path style="fill:#FFFFFF;" d="M307.2,406.8v-77.2c-3.6-2.4-6.8-6-8.4-10c-1.2-2.4-2-5.2-2.4-8.4l-4-53.6h-76.8l-2.8,40.4l0,0
	l-0.8,13.2c-0.4,8-5.2,14.8-11.6,18.8v76.4h106.8V406.8z"/>
<path style="fill:#E6E9EE;" d="M298.8,320L298.8,320c-64.4,50.8-85.6-19.2-86-21.6l0,0l2.8-40.4h77.2l4,53.6
	C296.8,314.4,297.2,317.2,298.8,320z"/>
<path style="fill:#4CDBC4;" d="M437.2,430c-46,48-111.2,78-183.2,78s-137.2-30-183.2-78c11.6-111.2,134.4-105.6,134.4-105.6
	s2.8-0.8,3.2,0c12.4,27.6,44.8,32,44.8,32s38-6,45.6-32c0.4-0.8,3.6,0,3.6,0C304.4,326.4,425.6,319.2,437.2,430z"/>
<g>
	<path style="fill:#2C9984;" d="M298.8,320c0,0-3.2,18-44.4,36.4c0,0,30.8,19.2,36.4,34.8C290.4,391.2,318.8,352.4,298.8,320z"/>
	<path style="fill:#2C9984;" d="M209.6,320c0,0,3.2,18,44.4,36.4c0,0-30.8,19.2-36.4,34.8C217.6,391.2,189.2,352.4,209.6,320z"/>
</g>
<g>
	<path style="fill:#324A5E;" d="M170.8,199.6L170.8,199.6c0,2.4,0,4.4,0.4,6.8c0,0.8,0,1.2,0,2c0,1.2,0.4,2.4,0.4,3.6
		c0,1.2,0.4,2.4,0.4,3.6c0,0,0,0,0,0.4c0.4,2.4,0.8,5.2,1.2,7.6v0.4c0.4,2.4,0.8,4.4,1.6,6.8c0,0.4,0,0.4,0.4,0.8l0,0
		c-0.8-1.2-2-2.4-2.8-4c-0.8-1.2-1.6-2.4-2-3.6c-1.2-2-2.4-4-3.2-6c-0.4-0.8-0.8-1.6-1.2-2.8c0-0.4-0.4-0.8-0.4-1.2
		c-0.4-0.8-0.8-1.6-1.2-2.8c-0.8-1.6-1.2-3.6-2-5.2c-0.4-0.8-0.8-2-0.8-2.8c0-0.4-0.4-0.8-0.4-1.2c-0.4-0.8-0.4-1.6-0.4-2.4
		c-0.4-0.8-0.4-1.6-0.8-2.8c0-0.4-0.4-0.8-0.4-1.2c-1.2-6-2-12.4-2-18.8c0-1.6,0-3.2,0-4.8c0.4-6.4,1.2-12.4,2.8-18.4
		c27.2-4.4,58.4-6.4,91.2-6.4c17.6,0,34.8,0.8,51.2,2c-21.6,20-63.2,47.6-127.6,49.6C175.2,199.2,172.4,199.6,170.8,199.6
		C171.2,199.6,170.8,199.6,170.8,199.6z"/>
	<path style="fill:#324A5E;" d="M346.4,177.6c0,6.4-0.8,12.8-2,18.8c0,0.4,0,0.8-0.4,1.2c0,0.8-0.4,1.6-0.8,2.8
		c0,0.8-0.4,1.6-0.4,2.4c0,0.4,0,0.8-0.4,1.2c-0.4,0.8-0.4,2-0.8,2.8c-0.4,1.6-1.2,3.6-2,5.2c-0.4,0.8-0.8,1.6-1.2,2.8
		c0,0.4-0.4,0.8-0.4,1.2c-0.4,0.8-0.8,2-1.2,2.8c-0.8,2-2,4-3.2,6c-0.8,1.2-1.6,2.4-2,3.6c-0.8,1.2-1.6,2.8-2.8,4l0,0
		c0.8-2.8,1.2-5.2,2-8V224c0.4-2.4,0.8-4.8,1.2-7.6l0,0V216c0-1.2,0.4-2.8,0.4-4s0.4-2,0.4-3.2c0-0.8,0-1.2,0-2c0-2,0.4-4,0.4-6.4
		c0-0.4,0-0.4,0-0.8l0,0l0,0c0,0-1.2-0.8-2-1.2c-0.4,0-0.4-0.4-0.8-0.4c-0.8-0.4-1.2-0.8-1.2-0.8c-20.4-14.4-21.2-34-18.8-46
		c11.6,0.8,22.4,2.4,32.8,4c1.6,6,2.4,12,2.8,18.4C346.4,174.4,346.4,176,346.4,177.6z"/>
</g>
<path style="fill:#FFFFFF;" d="M347.6,227.6c-5.6,13.2-16,20.4-22.8,16.8c-13.6,40-40.8,75.2-72.8,75.2c-31.6,0-59.2-34.8-72.8-75.2
	c-6.8,3.6-17.2-4-22.8-16.8c-5.6-13.2-4.8-26.8,2-30.4c0.4-0.4,0.8-0.4,1.2-0.4c0,0.4,0,0.8,0.4,1.2c0,0.8,0.4,1.6,0.8,2.8
	c0,0.8,0.4,1.6,0.4,2.4c0,0.4,0,0.8,0.4,1.2c0.4,0.8,0.4,2,0.8,2.8c0.4,1.6,1.2,3.6,2,5.2c0.4,0.8,0.8,1.6,1.2,2.8
	c0,0.4,0.4,0.8,0.4,1.2c0.4,0.8,0.8,2,1.2,2.8c0.8,2,2,4,3.2,6c0.8,1.2,1.6,2.4,2,3.6c0.8,1.2,1.6,2.8,2.8,4c0-0.4,0-0.4-0.4-0.8
	c-0.4-2.4-1.2-4.4-1.6-6.8v-0.4c-0.4-2.4-0.8-4.8-1.2-7.6c0,0,0,0,0-0.4l0,0c0-1.2-0.4-2.4-0.4-3.6c0-1.2-0.4-2.4-0.4-3.6
	c0-0.8,0-1.2,0-2c0-2.4-0.4-4.8-0.4-6.8l0,0c0,0,0,0,0.4,0c1.2,0,4.4-0.4,4.4-0.4c64-2.8,106-30.4,127.6-50.4c2.4,0,4.8,0.4,7.2,0.8
	c-2.4,12.4-2,31.6,18.8,46c0,0,0.4,0.4,1.2,0.8c0.4,0,0.4,0.4,0.8,0.4c1.2,0.8,2,1.2,2,1.2l0,0l0,0c0,0.4,0,0.4,0,0.8
	c0,2-0.4,4-0.4,6.4c0,0.8,0,1.2,0,2c0,1.2,0,2-0.4,3.2c0,1.2-0.4,2.8-0.4,4l0,0v0.4l0,0c-0.4,2.4-0.8,4.8-1.2,7.6c0,0,0,0,0,0.4
	c-0.4,2.8-1.2,5.2-2,8c0.8-1.2,2-2.4,2.8-4c0.8-1.2,1.6-2.4,2-3.6c1.2-2,2.4-4,3.2-6c0.4-0.8,0.8-1.6,1.2-2.8c0-0.4,0.4-0.8,0.4-1.2
	c0.4-0.8,0.8-1.6,1.2-2.8c0.8-1.6,1.2-3.6,2-5.2c0.4-0.8,0.8-2,0.8-2.8c0-0.4,0-0.8,0.4-1.2c0.4-0.8,0.4-1.6,0.4-2.4
	c0.4-0.8,0.4-1.6,0.8-2.8c0-0.4,0.4-0.8,0.4-1.2c0.4,0,0.8,0.4,1.2,0.4C352.4,200.8,353.6,214.4,347.6,227.6z"/>
<path style="fill:#324A5E;" d="M170.8,195.6C170.8,195.6,170.8,195.2,170.8,195.6L170.8,195.6C170.8,195.2,170.8,195.6,170.8,195.6z
	"/>
<ellipse style="fill:#E6E9EE;" cx="254" cy="92.4" rx="18.8" ry="20.8"/>
<g>
</g>
<g>
</g>
<g>
</g>
<g>
</g>
<g>
</g>
<g>
</g>
<g>
</g>
<g>
</g>
<g>
</g>
<g>
</g>
<g>
</g>
<g>
</g>
<g>
</g>
<g>
</g>
<g>
</g>
</svg>
