<?xml version="1.0" encoding="iso-8859-1"?>
<!-- Generator: Adobe Illustrator 19.0.0, SVG Export Plug-In . SVG Version: 6.00 Build 0)  -->
<svg version="1.1" id="Layer_1" xmlns="http://www.w3.org/2000/svg" xmlns:xlink="http://www.w3.org/1999/xlink" x="0px" y="0px"
	 viewBox="0 0 508 508" style="enable-background:new 0 0 508 508;" xml:space="preserve">
<circle style="fill:#FFD05B;" cx="254" cy="254" r="254"/>
<path style="fill:#FF7058;" d="M346,126.8c-0.4-4.8-0.8-10-2-14.8c-7.6-46-33.6-77.6-59.2-77.6c-4.8,0-9.2,1.2-13.2,3.2
	c-11.2,5.2-23.6,5.2-34.8,0c-4.4-2-8.8-3.2-13.2-3.2c-25.6,0-52,31.6-59.6,77.6c-0.8,4.8-1.6,10-2,14.8H346z"/>
<ellipse style="fill:#F1543F;" cx="254" cy="159.2" rx="153.2" ry="43.2"/>
<path style="fill:#E6E9EE;" d="M392.4,377.2c-44.8-21.6-74.4-50.4-83.2-60H198.8c-9.2,9.6-38.4,38.8-83.2,60c0,0-30.8,3.6-50.8,46.4
	c46.4,52,114,84.4,189.2,84.4s142.8-32.4,189.2-84.4C423.2,380.8,392.4,377.2,392.4,377.2z"/>
<path style="fill:#FFFFFF;" d="M208.4,307.6l1.2-14l0,0l3.2-43.2h82.4l4,57.2C269.2,380.8,223.6,343.6,208.4,307.6z"/>
<path style="fill:#E6E9EE;" d="M298.8,298.8C286,314,270.8,324,254,324s-32-10-44.8-25.2l0.4-5.2l0,0l3.2-43.2h82.4L298.8,298.8z"/>
<g>
	<path style="fill:#FFFFFF;" d="M182.4,157.6c-4.8,10-7.6,22-7.6,36.8c0,54,35.2,122,78.8,122s78.8-68,78.8-122
		c0-14.8-2.8-26.8-7.6-36.8L182.4,157.6L182.4,157.6z"/>
	<path style="fill:#FFFFFF;" d="M346.8,227.2c-5.6,12.8-15.6,20-22.4,16.4s-7.6-16.8-2-29.6s15.6-20,22.4-16.4
		C351.6,201.2,352.4,214.4,346.8,227.2z"/>
	<path style="fill:#FFFFFF;" d="M161.2,227.2c5.6,12.8,15.6,20,22.4,16.4c6.8-3.6,7.6-16.8,2-29.6s-15.6-20-22.4-16.4
		C156.4,201.2,155.6,214.4,161.2,227.2z"/>
</g>
<path style="fill:#324A5E;" d="M373.6,367.2V478c-35.6,19.2-76.4,30-119.6,30s-84-10.8-119.6-30V367.2c8.4-4.8,16.4-10,23.2-15.2
	v79.6H350v-79.2C357.2,357.2,365.2,362.4,373.6,367.2z"/>
<g>
	<path style="fill:#FF7058;" d="M299.2,307.2c0,0-13.2,30.4-45.2,42.4c0,0,20,19.2,20.8,23.2c0,0,37.6-41.2,38-56L299.2,307.2z"/>
	<path style="fill:#FF7058;" d="M208.8,307.2c0,0,13.2,30.4,45.2,42.4c0,0-20,19.2-20.8,23.2c0,0-37.6-41.2-38-56L208.8,307.2z"/>
</g>
<g>
	<path style="fill:#2B3B4E;" d="M184.4,153.6H166c-2.4,8-3.6,16.4-3.6,25.2c0,19.6,6.4,37.6,17.2,52.4c-3.2-12.4-4.8-24.8-4.8-36.8
		C175.2,177.6,178.4,164.4,184.4,153.6z"/>
	<path style="fill:#2B3B4E;" d="M323.6,153.6c6,10.8,9.6,24,9.6,40.8c0,12-1.6,24.4-4.8,36.8c10.8-14.8,17.2-32.8,17.2-52.4
		c0-8.8-1.2-17.2-3.6-25.2L323.6,153.6L323.6,153.6z"/>
	<path style="fill:#2B3B4E;" d="M345.6,178.8c0,6.4-0.8,12.4-2,18.4c-3.2-1.2-7.2,0-10.8,2.8c0-2,0-3.6,0-5.2c0-1.2,0-2.8,0-4
		c-0.4-16-16.4-26-31.2-20c-13.2,5.2-29.6,8.4-47.6,8.4s-34.8-3.2-47.6-8.4c-14.8-6-30.4,4.4-31.2,20c0,1.2,0,2.8,0,4
		c0,1.6,0,3.6,0,5.2c-3.6-2.8-7.6-4-10.8-2.8c-1.2-6-2-12-2-18.4c0-8.8,1.2-17.2,3.6-25.2c0.4-0.8,0.4-1.6,0.8-2.4
		c24.8-4.8,54.8-7.6,86.8-7.6c32.4,0,62,2.8,86.8,7.6c0.4,0.8,0.4,1.6,0.8,2.4C344,161.6,345.6,170,345.6,178.8z"/>
	<circle style="fill:#2B3B4E;" cx="332" cy="467.6" r="13.6"/>
	<circle style="fill:#2B3B4E;" cx="173.6" cy="467.6" r="13.6"/>
</g>
<g>
</g>
<g>
</g>
<g>
</g>
<g>
</g>
<g>
</g>
<g>
</g>
<g>
</g>
<g>
</g>
<g>
</g>
<g>
</g>
<g>
</g>
<g>
</g>
<g>
</g>
<g>
</g>
<g>
</g>
</svg>
