<?xml version="1.0" encoding="iso-8859-1"?>
<!-- Generator: Adobe Illustrator 19.0.0, SVG Export Plug-In . SVG Version: 6.00 Build 0)  -->
<svg version="1.1" id="Layer_1" xmlns="http://www.w3.org/2000/svg" xmlns:xlink="http://www.w3.org/1999/xlink" x="0px" y="0px"
	 viewBox="0 0 508 508" style="enable-background:new 0 0 508 508;" xml:space="preserve">
<circle style="fill:#F1543F;" cx="254" cy="254" r="254"/>
<path style="fill:#324A5E;" d="M316.4,388C342,302.4,358,191.2,358,158.4c0-1.6,0-3.2,0-5.2c-2.4-52-48-92.8-102-92.8h-4
	c-54,0-99.6,40.8-102,93.2c0,1.6,0,3.6,0,5.2c0,32.8,16.4,144,41.6,229.6h124.8V388z"/>
<polygon style="fill:#FFD05B;" points="204.8,290.8 303.2,290.8 365.6,400.4 337.2,436 254,498.8 170.4,436 142.4,400.4 "/>
<path style="fill:#FFFFFF;" d="M209.2,377.6c0,0,35.6,24.4,89.6,0c0,0-21.2,106.8-44.8,121.2C254,498.8,202.4,408.8,209.2,377.6z"/>
<path style="fill:#F9B54C;" d="M304.4,292.4c-0.4-0.4-0.4-0.8-0.8-1.6c0,0-0.8,4-6,10.4c-22,26.8-64.8,26.8-86.8,0
	c-5.2-6.4-6-10.4-6-10.4c-0.4,0.4-0.4,0.8-0.8,1.2c2-3.2,2.8-6.8,3.2-10.4l1.2-14.4l0,0l3.2-43.6h85.6l4.4,58
	c0.4,3.2,1.2,6.4,2.4,9.2C303.6,291.2,304,291.6,304.4,292.4z"/>
<path style="fill:#54C0EB;" d="M254,508L254,508c-2.8,0-5.6,0-8.4,0c-77.6-2.4-146.4-39.6-190-96c20.4-48.4,54.8-52,54.8-52
	c54.8-26,87.6-62.4,89.6-64.4l-12,24.8l23.6,98L254,508z"/>
<path style="fill:#E6E9EE;" d="M452.4,411.6C407.2,470,335.2,508,254,508l0,0l42.4-89.6l23.6-98l-11.6-24.8c2,2,34.8,38.4,89.6,64
	C397.6,359.6,431.6,363.2,452.4,411.6z"/>
<path style="fill:#54C0EB;" d="M452.4,411.6c-16,20.4-35.2,38.4-56.8,53.2C355.6,492,306.8,508,254,508l0,0l42.4-89.6l23.6-98
	l-11.6-24.8c2,2,34.8,38.4,89.6,64c0,0,1.2,0,3.2,0.8l0,0C410,362.8,435.6,372.4,452.4,411.6z"/>
<path style="fill:#84DBFF;" d="M321.6,400.4l6.8,35.6c-28,14.4-48,46.4-66.4,72c-2.8,0-5.6,0-8.4,0s-5.6,0-8.4,0
	c-18.4-25.6-38.4-57.2-66.4-72l6.8-35.6h-35.2c14.8-64,51.2-107.2,53.6-109.2c-1.2,2.4-18.8,36.8,7.6,93.2c0,0,22.8,63.6,42,114.8
	c19.2-51.2,42-114.8,42-114.8c26.4-56.4,8.8-90.8,7.6-93.2c2.4,2,38.8,45.2,53.6,109.2L321.6,400.4L321.6,400.4z"/>
<g>
	<path style="fill:#FFD05B;" d="M338,168.8c0,56-37.6,126.8-84,126.8s-84-70.8-84-126.8S207.6,92,254,92S338,112.4,338,168.8z"/>
	<path style="fill:#FFD05B;" d="M350,202c-6,12.8-16,20.4-23.2,16.4c-6.8-3.6-8-17.2-2-30s16-20.4,23.2-16.4
		C354.8,176,356,189.2,350,202z"/>
</g>
<path style="fill:#324A5E;" d="M318,112c0,0-19.2,38.4,20,60.8l6.8-21.2L330.4,110l-7.2-8.8L318,112z"/>
<g>
	<path style="fill:#FFFFFF;" d="M452.4,411.6c-16,20.4-35.2,38.4-56.8,53.2c-28.4-39.2,2-105.2,2-105.2l3.2,0.8l0,0
		C410,362.8,435.6,372.4,452.4,411.6z"/>
	<path style="fill:#FFFFFF;" d="M55.6,411.6c16,20.4,35.2,38.4,56.8,53.2c28.4-39.2-2-105.2-2-105.2l-3.2,0.8l0,0
		C98,362.8,72.4,372.4,55.6,411.6z"/>
</g>
<path style="fill:#324A5E;" d="M327.2,103.6c0,0-10.4,34.8-86,62.4c-27.6,10-48,33.2-54.4,61.2c-3.2,13.6-6,29.2-7.2,45.2L164,222.8
	l-5.2-78l17.6-43.6L228,90.4L327.2,103.6z"/>
<path style="fill:#84DBFF;" d="M281.6,30.8c-3.6-3.6-9.2-4.4-13.2-1.2L260,36c-3.6,2.8-8.8,2.8-12.4,0l-8-6c-4-3.2-10-2.8-13.2,1.2
	l-30.8,33.6l58.4,48l0,0l58.4-48.4L281.6,30.8z"/>
<path style="fill:#54C0EB;" d="M349.6,117.2c0,0-12-39.6-26.4-58c-4-5.2-12-6.4-17.6-2.8c-12,8-35.2,21.6-52,23.2
	c-16.8-1.6-40-15.2-52-23.2c-5.6-3.6-13.2-2.4-17.6,2.8c-14.4,18.4-26.4,58-26.4,58C191.2,148.8,318.4,149.6,349.6,117.2z"/>
<path style="fill:#FFFFFF;" d="M278.4,103.2h-19.6c-0.8-4.8-2.4-6.8-4.8-6.8c-2,0-4,2-4.8,6.8h-19.6c-2.4,0-4,2-3.2,4s3.2,4,5.2,4
	h2.4c-0.4,0.8-0.8,1.6-0.4,2.4c0.4,2,2.4,3.2,4.8,3.2h2.4c-0.4,0.4-0.8,1.2-0.8,2c0.4,1.6,2,2.8,4,2.8h7.2c0.8,2.8,2,4.8,2.8,4.8
	c1.2,0,2-2,2.8-4.8h7.2c2,0,4-1.2,4-2.8c0-0.8,0-1.6-0.8-2h2.4c2,0,4-1.6,4.8-3.2c0.4-0.8,0-2-0.4-2.4h2.4c2.4,0,4.8-1.6,5.2-4
	C282.4,105.2,280.8,103.2,278.4,103.2z"/>
<g>
</g>
<g>
</g>
<g>
</g>
<g>
</g>
<g>
</g>
<g>
</g>
<g>
</g>
<g>
</g>
<g>
</g>
<g>
</g>
<g>
</g>
<g>
</g>
<g>
</g>
<g>
</g>
<g>
</g>
</svg>
