<?xml version="1.0" encoding="iso-8859-1"?>
<!-- Generator: Adobe Illustrator 19.0.0, SVG Export Plug-In . SVG Version: 6.00 Build 0)  -->
<svg version="1.1" id="Layer_1" xmlns="http://www.w3.org/2000/svg" xmlns:xlink="http://www.w3.org/1999/xlink" x="0px" y="0px"
	 viewBox="0 0 508 508" style="enable-background:new 0 0 508 508;" xml:space="preserve">
<circle style="fill:#90DFAA;" cx="254" cy="254" r="254"/>
<polygon style="fill:#FFD05B;" points="204.4,284 303.6,284 366.4,396.8 338,433.6 254,498.4 170,433.6 141.6,396.8 "/>
<path style="fill:#FFFFFF;" d="M208.8,373.2c0,0,35.6,25.2,90,0c0,0-21.2,110-45.2,125.2C254,498.4,202,405.6,208.8,373.2z"/>
<path style="fill:#F9B54C;" d="M304.8,289.6c-0.4-0.4-0.4-1.2-0.8-1.6c0,0-0.8,4.4-6,10.8c-22.4,27.6-65.2,27.6-87.6,0
	c-5.2-6.4-6-10.8-6-10.8c-0.4,0.4-0.4,0.8-0.8,1.2c2-3.2,2.8-6.8,3.2-10.8l1.2-14.8l0,0l3.2-45.2h86l4.4,59.6
	c0.4,3.2,1.2,6.4,2.4,9.2C304,288.4,304.4,289.2,304.8,289.6z"/>
<g>
	<path style="fill:#2B3B4E;" d="M254,508L254,508c-2.8,0-5.6,0-8.4,0c-78-2.4-147.2-40.8-191.2-99.2c20.8-50,55.2-53.6,55.2-53.6
		c55.2-26.4,88-63.6,90-66l-12,25.6l23.6,100.8L254,508z"/>
	<path style="fill:#2B3B4E;" d="M453.6,408.8C408,469.2,335.6,508,254,508l0,0l42.4-92.4L320,314.8l-12-25.6c2,2.4,34.8,39.6,90,66
		C398.4,354.8,432.8,358.8,453.6,408.8z"/>
</g>
<path style="fill:#324A5E;" d="M322,396.8l7.2,36.8c-28,14.8-48,47.6-66.8,74c-2.8,0-5.6,0-8.4,0c-2.8,0-5.6,0-8.4,0
	c-18.8-26.4-38.8-59.2-66.8-74l7.2-36.8h-35.6c14.8-66,51.6-110.4,54-112.8c-1.2,2.4-19.2,38,7.6,96c0,0,22.8,65.6,42,118.4
	c19.2-52.8,42-118.4,42-118.4c26.4-58,8.8-93.6,7.6-96c2.4,2,39.2,46.8,54,112.8H322z"/>
<path style="fill:#FFD05B;" d="M346.8,161.2c-2.4-1.2-5.2-1.2-8,0c0-1.2,0-2,0-3.2c0-58-38-79.2-84.8-79.2S169.2,100,169.2,158
	c0,1.2,0,2,0,3.2c-2.8-1.2-5.6-1.2-8,0c-7.2,4-8,18-2,31.2c4.8,10.8,12.8,18,19.6,18.4c13.6,41.6,42.4,78,75.2,78s61.6-36,75.6-77.6
	c6.8,0,14.4-7.2,19.6-18.4C354.8,179.2,353.6,165.2,346.8,161.2z"/>
<path style="fill:#2B3B4E;" d="M305.6,146.8c0,0-4,14.4-14,30c0,0,7.6-32.4,4.8-45.6c0,0-25.2,43.6-71.2,56c0,0,20.4-24,21.2-33.2
	c0,0-17.6,20.4-46.8,28.4c0,0,22-17.6,25.2-36.8c0,0-54,23.2-26.8,92.4c0,0-11.2-16-12-20.8c0,0-7.6,18.4,3.2,45.2
	c0,0-53.6-88-17.2-168c0,0,28.4-69.6,98.4-46c0,0,78-1.2,73.6,138c0,0-3.2-21.6-6.4-23.6c0,0-8.4,75.6-30,90.4
	c0,0,9.6-18.8,9.2-26.8c0,0-19.6,28.4-28.4,36c0,0,27.6-34.8,26.4-60.4c0,0-4.8,22-20.4,31.6c0,0,29.2-31.2,11.2-85.6"/>
<rect x="222.4" y="168.8" style="fill:#324A5E;" width="58" height="4"/>
<g>
	<path style="fill:#54C0EB;" d="M320.4,194.8c0,15.2-7.6,27.6-25.2,27.6s-38.8-21.2-38.8-36.4c0-15.2,21.2-18.8,38.8-18.8
		C312.8,167.2,320.4,179.6,320.4,194.8z"/>
	<path style="fill:#54C0EB;" d="M182.4,194.8c0,15.2,7.6,27.6,25.2,27.6s38.8-21.2,38.8-36.4c0-15.2-21.2-18.8-38.8-18.8
		S182.4,179.6,182.4,194.8z"/>
</g>
<path style="fill:#324A5E;" d="M238.4,204.8c-0.4,0-0.4,0-0.8-0.4c-0.8-0.4-1.2-1.6-0.8-2.4c0.4-0.4,6-10.8,14.4-11.2
	c5.2,0,10.4,3.6,14.8,11.2c0.4,0.8,0.4,2-0.8,2.4c-0.8,0.4-2,0.4-2.4-0.8c-4-6.4-7.6-9.6-11.6-9.2c-5.2,0-10,6.8-11.2,9.2
	C239.6,204.4,239.2,204.8,238.4,204.8z"/>
<g>
</g>
<g>
</g>
<g>
</g>
<g>
</g>
<g>
</g>
<g>
</g>
<g>
</g>
<g>
</g>
<g>
</g>
<g>
</g>
<g>
</g>
<g>
</g>
<g>
</g>
<g>
</g>
<g>
</g>
</svg>
