<?xml version="1.0" encoding="iso-8859-1"?>
<!-- Generator: Adobe Illustrator 19.0.0, SVG Export Plug-In . SVG Version: 6.00 Build 0)  -->
<svg version="1.1" id="Layer_1" xmlns="http://www.w3.org/2000/svg" xmlns:xlink="http://www.w3.org/1999/xlink" x="0px" y="0px"
	 viewBox="0 0 508.4 508.4" style="enable-background:new 0 0 508.4 508.4;" xml:space="preserve">
<path style="fill:#FD8469;" d="M508.2,254c0,140.4-113.6,254-254,254S0.2,394.4,0.2,254S113.8,0,254.2,0C365,0,459,70.8,493.8,169.6
	c7.6,21.2,12,43.6,13.6,66.8C508.2,242.4,508.2,248,508.2,254z"/>
<path style="fill:#FFD05B;" d="M307.4,497.6V311.2c-3.6-2.4-6.8-6-8.4-10c-1.2-2.4-2-5.2-2.4-8.4l-4-53.6h-76.8l-2.8,40.4l0,0
	l-0.8,13.2c-0.4,8-5.2,14.8-11.6,18.8v185.6h106.8V497.6z"/>
<path style="fill:#F9B54C;" d="M299,301.2L299,301.2c-64.4,50.8-85.6-19.2-86-21.6l0,0l2.8-40.4H293l4,53.6
	C297,296,297.4,298.8,299,301.2z"/>
<rect x="196.2" y="338" style="fill:#E6E9EE;" width="116" height="159.6"/>
<g>
	<polygon style="fill:#FF7058;" points="265,355.2 270.6,337.2 237.8,337.2 243.4,355.2 	"/>
	<polygon style="fill:#FF7058;" points="243.4,355.2 217,495.2 291.4,495.2 265,355.2 	"/>
</g>
<path style="fill:#324A5E;" d="M256.6,508c-0.8,0-1.6,0-2.4,0c-0.8,0-1.6,0-2.4,0c-0.8,0-1.6,0-2.4,0c-70.4-1.2-134-31.6-179.2-79.2
	c0-80.4,54.8-79.6,54.8-79.6c49.2-23.6,78.8-41.2,80.4-43.2l-10.8,23.2l21.2,90.4l38,82.8L256.6,508z"/>
<path style="fill:#2B3B4E;" d="M259.4,508c-0.4,0-1.2,0-1.6,0H257c-0.8,0-1.6,0-2.4,0c-0.8,0-1.6,0-2.4,0c-0.4,0-0.4,0-0.8,0
	c-17.6-24.4-44.8-57.6-71.6-72l14.4-33.2h-39.6c13.2-59.2,54-99.2,56-101.2c-1.2,2.4-17.2,34,6.8,86
	C216.6,387.6,241.4,459.2,259.4,508z"/>
<path style="fill:#324A5E;" d="M438.2,428.8c-46.4,48.8-111.6,79.2-184,79.2c-0.8,0-1.6,0-2.4,0l2.4-5.6l38-82.8l21.2-90.4L303,306
	c1.6,2,31.2,19.6,80.8,43.2C383.4,349.2,438.2,346,438.2,428.8z"/>
<path style="fill:#2B3B4E;" d="M315,402.8l14.4,33.2c-27.2,14.4-54.4,47.6-71.6,72.4c-1.2,0-2.4,0-3.6,0c-0.8,0-1.6,0-2.4,0
	c-0.8,0-1.6,0-2.4,0c18-48.8,42.8-120,42.8-120c24-52,8-84,6.8-86c2,2,43.2,42,56,101.2h-40V402.8z"/>
<g>
	<path style="fill:#FFFFFF;" d="M299,301.6c0,0-3.2,18-44.8,36.4c0,0,30.8,19.2,36.4,34.8C290.6,372.8,319,334,299,301.6z"/>
	<path style="fill:#FFFFFF;" d="M209.8,301.6c0,0,3.2,18,44.8,36.4c0,0-30.8,19.2-36.4,34.8C217.8,372.8,189.4,334,209.8,301.6z"/>
</g>
<path id="SVGCleanerId_0" style="fill:#324A5E;" d="M254.2,250.4c-14-7.2-19.6,14.4-42,2c0,0,8.8,24.4,42,9.6
	c33.2,14.4,42-9.6,42-9.6C273.8,264.8,268.2,243.2,254.2,250.4z"/>
<polygon style="fill:#2B3B4E;" points="408.6,356.4 325.4,334 336.2,319.2 397.8,335.6 "/>
<g>
	<polygon style="fill:#FFD05B;" points="384.2,332 390.2,351.6 397.8,353.6 389.8,333.6 	"/>
	<polygon style="fill:#FFD05B;" points="375.8,329.6 378.6,348.4 386.6,350.4 381.4,331.2 	"/>
	<polygon style="fill:#FFD05B;" points="352.6,323.6 347.8,340 355.4,342 358.6,325.2 	"/>
	<polygon style="fill:#FFD05B;" points="344.2,321.2 336.2,336.8 344.2,339.2 350.2,322.8 	"/>
</g>
<polygon style="fill:#2B3B4E;" points="99.8,356.4 183,334 172.2,319.2 110.6,335.6 "/>
<g>
	<polygon style="fill:#FFD05B;" points="124.2,332 118.2,351.6 110.6,353.6 118.6,333.6 	"/>
	<polygon style="fill:#FFD05B;" points="132.6,329.6 129.8,348.4 121.8,350.4 127,331.2 	"/>
	<polygon style="fill:#FFD05B;" points="155.8,323.6 160.6,340 153,342 149.8,325.2 	"/>
	<polygon style="fill:#FFD05B;" points="164.2,321.2 172.2,336.8 164.2,339.2 158.2,322.8 	"/>
</g>
<ellipse style="fill:#324A5E;" cx="254.2" cy="174.4" rx="85.2" ry="84"/>
<g>
	<path style="fill:#FFD05B;" d="M327.8,188.8c0,50.4-33.2,114-73.6,114c-40.8,0-73.6-63.6-73.6-114s33.2-68.8,73.6-68.8
		C295,120,327.8,138.4,327.8,188.8z"/>
	<path style="fill:#FFD05B;" d="M340.6,219.6c-5.2,12-14.8,18.8-20.8,15.2c-6.4-3.6-7.2-15.6-2-27.6s14.4-18.8,20.8-15.2
		C345,195.2,346.2,207.6,340.6,219.6z"/>
	<path style="fill:#FFD05B;" d="M167.8,219.6c5.2,12,14.8,18.8,20.8,15.2c6.4-3.6,7.2-15.6,2-27.6s-14.4-18.8-20.8-15.2
		C163.4,195.2,162.2,207.6,167.8,219.6z"/>
</g>
<path style="fill:#2B3B4E;" d="M176.2,119.2h156.4c15.6-6,27.6-14.4,32.4-24c13.2-27.2-34.8-54.4-110.8-54.4s-124,27.6-110.4,54.4
	C148.6,104.8,160.6,113.2,176.2,119.2z"/>
<path style="fill:#324A5E;" d="M176.2,119.2c50-16.4,106.4-16.4,156.4,0c0,7.2,0,14.4,0,21.6c-52,0-104.4,0-156.4,0
	C176.2,133.6,176.2,126.4,176.2,119.2z"/>
<g>
	<path id="SVGCleanerId_0_1_" style="fill:#324A5E;" d="M254.2,250.4c-14-7.2-19.6,14.4-42,2c0,0,8.8,24.4,42,9.6
		c33.2,14.4,42-9.6,42-9.6C273.8,264.8,268.2,243.2,254.2,250.4z"/>
</g>
<path style="fill:#2B3B4E;" d="M332.6,137.2c0,20.4-35.2,36.8-78.4,36.8s-78.4-16.4-78.4-36.8c0,0,35.2,1.2,78.4,1.2
	S332.6,137.2,332.6,137.2z"/>
<path style="fill:#E6E9EE;" d="M279,66h-20c-0.8-5.2-2.4-7.2-4.8-7.2s-4,2-4.8,7.2h-20c-2.4,0-4,2-3.2,4.4s3.2,4,5.6,4h2.4
	c-0.4,0.8-0.8,1.6-0.4,2.8c0.4,2,2.8,3.6,4.8,3.6h2.4c-0.8,0.4-0.8,1.2-0.8,2.4c0.4,1.6,2,2.8,4.4,2.8h7.2c0.8,2.8,2,4.8,3.2,4.8
	c1.2,0,2-2,3.2-4.8h7.2c2,0,4-1.2,4.4-2.8c0-0.8,0-1.6-0.8-2.4h1.2c2,0,4.4-1.6,4.8-3.6c0.4-1.2,0-2-0.4-2.8h2.4
	c2.4,0,4.8-1.6,5.6-4C283,68,281.8,66,279,66z"/>
<g>
</g>
<g>
</g>
<g>
</g>
<g>
</g>
<g>
</g>
<g>
</g>
<g>
</g>
<g>
</g>
<g>
</g>
<g>
</g>
<g>
</g>
<g>
</g>
<g>
</g>
<g>
</g>
<g>
</g>
</svg>
