<?xml version="1.0" encoding="iso-8859-1"?>
<!-- Generator: Adobe Illustrator 19.0.0, SVG Export Plug-In . SVG Version: 6.00 Build 0)  -->
<svg version="1.1" id="Layer_1" xmlns="http://www.w3.org/2000/svg" xmlns:xlink="http://www.w3.org/1999/xlink" x="0px" y="0px"
	 viewBox="0 0 508.4 508.4" style="enable-background:new 0 0 508.4 508.4;" xml:space="preserve">
<circle style="fill:#FFD05B;" cx="254.2" cy="254" r="254"/>
<path style="fill:#FFFFFF;" d="M307.4,497.6V311.2c-3.6-2.4-6.8-6-8.4-10c-1.2-2.4-2-5.2-2.4-8.4l-4-53.6h-76.8l-2.8,40.4l0,0
	l-0.8,13.2c-0.4,8-5.2,14.8-11.6,18.8v185.6h106.8V497.6z"/>
<path style="fill:#E6E9EE;" d="M299,301.2L299,301.2c-64.4,50.8-85.6-19.2-86-21.6l0,0l2.8-40.4H293l4,53.6
	C297,296,297.4,298.8,299,301.2z"/>
<rect x="196.2" y="337.6" style="fill:#FF7058;" width="116" height="159.6"/>
<g>
	<polygon style="fill:#E6E9EE;" points="265,356 270.6,338 237.8,338 243.4,356 	"/>
	<polygon style="fill:#E6E9EE;" points="243.4,356 217,496 291.4,496 265,356 	"/>
</g>
<path style="fill:#324A5E;" d="M256.6,508c-0.8,0-1.6,0-2.4,0c-0.8,0-1.6,0-2.4,0c-0.8,0-1.6,0-2.4,0c-70.4-1.2-134-31.6-179.2-79.2
	c0-80.4,54.8-79.6,54.8-79.6c49.2-23.6,78.8-41.2,80.4-43.2l-10.8,23.2l21.2,90.4l38,82.8L256.6,508z"/>
<path style="fill:#2B3B4E;" d="M259.4,508c-0.4,0-1.2,0-1.6,0H257c-0.8,0-1.6,0-2.4,0c-0.8,0-1.6,0-2.4,0c-0.4,0-0.4,0-0.8,0
	c-17.6-24.4-44.8-57.6-71.6-72l14.4-33.2h-39.6c13.2-59.2,54-99.2,56-101.2c-1.2,2.4-17.2,34,6.8,86
	C216.6,387.6,241.4,459.2,259.4,508z"/>
<path style="fill:#324A5E;" d="M438.2,428.8c-46.4,48.8-111.6,79.2-184,79.2c-0.8,0-1.6,0-2.4,0l2.4-5.6l38-82.8l21.2-90.4L303,306
	c1.6,2,31.2,19.6,80.8,43.2C383.4,349.2,438.2,346,438.2,428.8z"/>
<path style="fill:#2B3B4E;" d="M315,402.8l14.4,33.2c-27.2,14.4-54.4,47.6-71.6,72.4c-1.2,0-2.4,0-3.6,0c-0.8,0-1.6,0-2.4,0
	c-0.8,0-1.6,0-2.4,0c18-48.8,42.8-120,42.8-120c24-52,8-84,6.8-86c2,2,43.2,42,56,101.2h-40V402.8z"/>
<g>
	<path style="fill:#F1543F;" d="M299,301.6c0,0-3.2,18-44.8,36.4c0,0,30.8,19.2,36.4,34.8C290.6,372.8,319,334,299,301.6z"/>
	<path style="fill:#F1543F;" d="M209.8,301.6c0,0,3.2,18,44.8,36.4c0,0-30.8,19.2-36.4,34.8C217.8,372.8,189.4,334,209.8,301.6z"/>
</g>
<path style="fill:#324A5E;" d="M254.2,250.4c-14-7.2-19.6,14.4-42,2c0,0,8.8,24.4,42,9.6c33.2,14.4,42-9.6,42-9.6
	C273.8,264.8,268.2,243.2,254.2,250.4z"/>
<ellipse style="fill:#2B3B4E;" cx="254.2" cy="174.4" rx="85.2" ry="84"/>
<g>
	<path style="fill:#FFFFFF;" d="M327.8,188.8c0,50.4-33.2,114-73.6,114c-40.8,0-73.6-63.6-73.6-114s32.8-68.8,73.6-68.8
		S327.8,138.4,327.8,188.8z"/>
	<path style="fill:#FFFFFF;" d="M340.6,219.6c-5.2,12-14.8,18.8-20.8,15.2c-6.4-3.6-7.2-15.6-2-27.6s14.4-18.8,20.8-15.2
		C345,195.2,346.2,207.6,340.6,219.6z"/>
	<path style="fill:#FFFFFF;" d="M167.8,219.6c5.2,12,14.8,18.8,20.8,15.2c6.4-3.6,7.2-15.6,2-27.6s-14.4-18.8-20.8-15.2
		C163.4,195.2,162.2,207.6,167.8,219.6z"/>
</g>
<path style="fill:#324A5E;" d="M176.2,119.2h156.4c15.6-6,27.6-14.4,32.4-24c13.2-27.2-34.8-54.4-110.8-54.4s-124,27.6-110.4,54.4
	C148.6,104.8,160.6,113.2,176.2,119.2z"/>
<path style="fill:#2B3B4E;" d="M176.2,119.2c50-16.4,106.4-16.4,156.4,0c0,7.2,0,14.4,0,21.6c-52,0-104.4,0-156.4,0
	C176.2,133.6,176.2,126.4,176.2,119.2z"/>
<path style="fill:#324A5E;" d="M332.6,137.2c0,20.4-35.2,36.8-78.4,36.8s-78.4-16.4-78.4-36.8c0,0,35.2,1.2,78.4,1.2
	S332.6,137.2,332.6,137.2z"/>
<polygon style="fill:#FFD05B;" points="257.4,53.2 264.2,67.2 279.4,69.6 268.6,80.4 271,95.6 257.4,88.4 243.8,95.6 246.2,80.4 
	235,69.6 250.6,67.2 "/>
<g>
	<rect x="340.2" y="420" style="fill:#2B3B4E;" width="64.8" height="15.2"/>
	<rect x="103.4" y="420" style="fill:#2B3B4E;" width="64.8" height="15.2"/>
</g>
<g>
</g>
<g>
</g>
<g>
</g>
<g>
</g>
<g>
</g>
<g>
</g>
<g>
</g>
<g>
</g>
<g>
</g>
<g>
</g>
<g>
</g>
<g>
</g>
<g>
</g>
<g>
</g>
<g>
</g>
</svg>
