<?xml version="1.0" encoding="iso-8859-1"?>
<!-- Generator: Adobe Illustrator 19.0.0, SVG Export Plug-In . SVG Version: 6.00 Build 0)  -->
<svg version="1.1" id="Layer_1" xmlns="http://www.w3.org/2000/svg" xmlns:xlink="http://www.w3.org/1999/xlink" x="0px" y="0px"
	 viewBox="0 0 508 508" style="enable-background:new 0 0 508 508;" xml:space="preserve">
<circle style="fill:#FFD05B;" cx="254" cy="254" r="254"/>
<path style="fill:#324A5E;" d="M446.8,419.6C400.4,473.6,331.2,508,254,508s-146-34.4-192.8-88.4C66.8,336.8,122,294.8,196,281.2
	c10-2,17.6-10,18.4-20.4l3.6-49.6h72l3.6,50c0.8,10,8.4,18.4,18.4,20.4C386,294.8,441.2,336.8,446.8,419.6z"/>
<path style="fill:#2B3B4E;" d="M308.8,280.4c-35.2,13.2-74.4,13.2-109.6,0c8.4-2.8,14.8-10.4,15.2-19.6l3.6-49.6h72l3.6,50
	C294,270,300.4,277.6,308.8,280.4z"/>
<path style="fill:#E6E9EE;" d="M254,360.8c-53.2,0-96.8-32.8-96.8-73.2c0-2,1.6-3.6,3.6-3.6s3.6,1.6,3.6,3.6c0,36,40,65.6,89.2,65.6
	s89.2-29.2,89.2-65.6c0-2,1.6-3.6,3.6-3.6s3.6,1.6,3.6,3.6C350.8,328.4,307.2,360.8,254,360.8z"/>
<path style="fill:#CED5E0;" d="M254,351.2c-0.8,0-1.6,0.8-1.6,1.6v22.4c0,0.8,0.8,1.6,1.6,1.6c0.8,0,1.6-0.8,1.6-1.6v-22.4
	C255.6,352,254.8,351.2,254,351.2z"/>
<polygon style="fill:#FF7058;" points="268.4,380.8 258,380.8 258,370.8 250,370.8 250,380.8 239.6,380.8 239.6,388.8 250,388.8 
	250,420 258,420 258,388.8 268.4,388.8 "/>
<path style="fill:#324A5E;" d="M329.6,170.4c6-11.6,9.6-24.8,9.6-38.4c0-1.6,0-2.8,0-4.4c-2-44-39.6-78-83.6-78h-3.2
	c-44,0-81.6,34-83.6,78c0,1.6,0,2.8,0,4.4c0,14,3.6,27.2,9.6,38.4H329.6z"/>
<path style="fill:#FFFFFF;" d="M340.4,176.8c-5.2,12-14.4,18.8-20.8,15.2c-12,36.4-37.2,68-66,68s-53.6-31.6-66-68
	c-6.4,3.2-15.6-3.6-20.8-15.2c-5.2-12-4.4-24.4,2-27.6c0.4,0,0.8-0.4,1.2-0.4c2.8-0.8,6.4,0,10,2.4l0,0c0,0,3.2,8,2.4,14.8
	c0,0,3.2-7.6,1.6-15.2c70-1.6,110.4-37.6,125.6-54.4c-0.8,2-14.4,32.4,14,52c-2.4,8.4,1.2,17.2,1.2,17.2c-0.8-6.8,2.4-14.8,2.4-14.8
	c3.6-2.4,6.8-3.6,10-2.4c0.4,0,0.8,0.4,1.2,0.4C344.8,152.8,346,165.2,340.4,176.8z"/>
<g>
</g>
<g>
</g>
<g>
</g>
<g>
</g>
<g>
</g>
<g>
</g>
<g>
</g>
<g>
</g>
<g>
</g>
<g>
</g>
<g>
</g>
<g>
</g>
<g>
</g>
<g>
</g>
<g>
</g>
</svg>
