<?xml version="1.0" encoding="iso-8859-1"?>
<!-- Generator: Adobe Illustrator 19.0.0, SVG Export Plug-In . SVG Version: 6.00 Build 0)  -->
<svg version="1.1" id="Layer_1" xmlns="http://www.w3.org/2000/svg" xmlns:xlink="http://www.w3.org/1999/xlink" x="0px" y="0px"
	 viewBox="0 0 508 508" style="enable-background:new 0 0 508 508;" xml:space="preserve">
<circle style="fill:#FFD05B;" cx="254" cy="254" r="254"/>
<path style="fill:#2C9984;" d="M447.6,410c0,2.8,0,6-0.4,9.2C400.8,473.6,331.2,508,254,508s-146.4-34.4-193.2-88.8
	c-0.4-3.2-0.4-6.4-0.4-9.2c0-75.6,86.8-134,193.6-134S447.6,334.4,447.6,410z"/>
<path style="fill:#FFFFFF;" d="M304.4,280.4c0,0-0.8,4.4-6,10.8c-22.4,28-66.4,28-88.8,0c-5.2-6.8-6-10.8-6-10.8
	c-0.4,0.4-0.4,0.8-0.8,1.2c2-3.2,2.8-7.2,3.2-10.8l1.2-14.8l0,0l3.2-46h87.2l4.4,60.8C302.4,274.4,303.2,277.6,304.4,280.4
	C304.8,280.8,304.8,280.8,304.4,280.4z"/>
<path style="fill:#2B3B4E;" d="M332.4,191.6c3.2-13.2,5.2-26.4,5.2-38.8c0-57.2-37.6-78-83.6-78s-83.6,20.8-83.6,78
	c0,12.4,1.6,26,5.2,38.8C164,176,157.2,156.8,157.2,136c0-52.4,43.2-94.8,96.8-94.8s96.8,42.4,96.8,94.8
	C350.8,156.8,344,176,332.4,191.6z"/>
<path style="fill:#FFD05B;" d="M304,252.4c20.4-26.4,33.6-65.2,33.6-99.2c0-57.2-37.6-78-83.6-78s-83.6,20.8-83.6,78
	c0,34,13.2,73.2,33.6,99.2H304z"/>
<path style="fill:#FFFFFF;" d="M299.6,257.6c22.8-26,38-68.4,38-104.8c0-57.2-37.6-78-83.6-78s-83.6,20.8-83.6,78
	c0,36.4,15.2,78.8,38,104.8H299.6z"/>
<path style="fill:#E6E9EE;" d="M313.6,246c7.2-14.4,12.8-27.6,17.2-38.8c-49.2-19.2-104.8-19.2-154,0c4.4,11.2,10.4,24.4,17.6,38.8
	c5.2,10.8,15.6,18.4,27.6,20.4c21.2,3.2,42.8,3.2,64,0C298,264.4,308.4,256.8,313.6,246z"/>
<g>
	<path style="fill:#FFFFFF;" d="M352,187.6c-6,13.6-16.4,21.2-23.6,17.2s-8-18-2-31.2c6-13.6,16.4-21.2,23.6-17.2
		C357.2,160,358,174,352,187.6z"/>
	<path style="fill:#FFFFFF;" d="M156,187.6c6,13.6,16.4,21.2,23.6,17.2c7.2-4,8-18,2-31.2c-6-13.6-16.4-21.2-23.6-17.2
		C150.8,160,150,174,156,187.6z"/>
</g>
<path style="fill:#2B3B4E;" d="M254,41.2c-53.6,0-96.8,42.4-96.8,94.8c0,6.8,0.8,13.2,2,19.6c3.6-1.2,7.6,0,11.2,2.8
	c0-2,0-3.6,0-5.6c0-1.6,0-2.8,0-4c0.4-16.8,17.2-27.6,32.8-21.2c13.6,5.6,31.2,8.8,50.4,8.8s36.8-3.2,50.4-8.8
	c15.6-6.4,32.4,4.8,32.8,21.2c0,1.2,0,2.8,0,4.4c0,2,0,3.6,0,5.6c4-2.8,8-4,11.2-2.8c1.2-6.4,2-12.8,2-19.6
	C350.8,83.6,307.6,41.2,254,41.2z"/>
<g>
	<path style="fill:#E6E9EE;" d="M331.2,165.6c-3.6,4.4-7.6,10.8-10.4,18c-0.8,1.6-1.2,3.6-2,5.2c-0.8,1.6-1.2,3.6-1.6,5.2
		c-0.4,1.6-0.8,3.2-1.2,4.8c-0.4,1.6-0.4,3.2-0.8,4.4c-0.4,2.8-0.4,5.2-0.4,6.8s0,2.4,0,2.4s0.4-0.8,0.8-2.4c0.4-1.6,0.8-4,1.6-6.4
		c0.8-2.8,1.6-5.6,2.8-8.8c1.2-3.2,2.4-6.8,4-10c1.2-3.2,2.8-6.8,4.4-9.6c1.6-3.2,2.8-6,4.4-8.4c2.4-4.8,4.4-8,4.4-8
		S334.4,160.8,331.2,165.6z"/>
	<path style="fill:#E6E9EE;" d="M192,198.8c-0.4-1.6-0.4-3.2-1.2-4.8c-0.4-1.6-0.8-3.6-1.6-5.2c-0.8-1.6-1.2-3.6-2-5.2
		c-2.8-6.8-6.8-13.6-10.4-18c-3.6-4.4-6.4-6.8-6.4-6.8s2,3.2,4.4,8c1.2,2.4,2.8,5.2,4.4,8.4c1.6,3.2,3.2,6.4,4.4,9.6
		c1.6,3.2,2.8,6.8,4,10s2,6.4,2.8,8.8c0.8,2.8,1.2,4.8,1.6,6.4c0.4,1.6,0.8,2.4,0.8,2.4s0-0.8,0-2.4c0-1.6,0-4-0.4-6.8
		C192.4,202,192.4,200.4,192,198.8z"/>
</g>
<g>
	<path style="fill:#FFFFFF;" d="M350.8,296.4c0,18-43.2,32.8-96.8,32.8s-96.8-14.8-96.8-32.8c0-0.8,0-2,0.4-2.8
		C186,282,218.8,276,254,276s68,6.4,96.4,17.2C350.4,294.4,350.8,295.2,350.8,296.4z"/>
	<circle style="fill:#FFFFFF;" cx="175.2" cy="360.4" r="9.6"/>
	<circle style="fill:#FFFFFF;" cx="175.2" cy="392" r="9.6"/>
	<circle style="fill:#FFFFFF;" cx="175.2" cy="423.6" r="9.6"/>
	<circle style="fill:#FFFFFF;" cx="175.2" cy="455.2" r="9.6"/>
</g>
<path style="fill:#2C9984;" d="M352.4,140c0,5.6-0.4,11.2-1.6,16.8c-23.2-13.6-58-22.4-97.2-22.4c-38.8,0-74,8.8-97.2,22.4
	c-0.8-5.6-1.6-11.2-1.6-16.8c0-54.4,44-98.4,98.4-98.4C308.4,41.2,352.4,85.6,352.4,140z"/>
<g>
</g>
<g>
</g>
<g>
</g>
<g>
</g>
<g>
</g>
<g>
</g>
<g>
</g>
<g>
</g>
<g>
</g>
<g>
</g>
<g>
</g>
<g>
</g>
<g>
</g>
<g>
</g>
<g>
</g>
</svg>
