<?xml version="1.0" encoding="iso-8859-1"?>
<!-- Generator: Adobe Illustrator 19.0.0, SVG Export Plug-In . SVG Version: 6.00 Build 0)  -->
<svg version="1.1" id="Layer_1" xmlns="http://www.w3.org/2000/svg" xmlns:xlink="http://www.w3.org/1999/xlink" x="0px" y="0px"
	 viewBox="0 0 508 508" style="enable-background:new 0 0 508 508;" xml:space="preserve">
<circle style="fill:#FFD05B;" cx="254" cy="254" r="254"/>
<path style="fill:#FFFFFF;" d="M307.2,497.6V311.2c-3.6-2.4-6.8-6-8.4-10c-1.2-2.4-2-5.2-2.4-8.4l-4-53.6h-76.8l-2.8,40.4l0,0
	l-0.8,13.2c-0.4,8-5.2,14.8-11.6,18.8v185.6h106.8V497.6z"/>
<g>
	<path style="fill:#E6E9EE;" d="M298.8,301.2L298.8,301.2c-64.4,50.8-85.6-19.2-86-21.6l0,0l2.8-40.4h77.2l4,53.6
		C296.8,296,297.2,298.8,298.8,301.2z"/>
	<rect x="196" y="338" style="fill:#E6E9EE;" width="116" height="159.6"/>
</g>
<g>
	<path style="fill:#324A5E;" d="M438,428.8C438,300,304.4,308,302.4,306c0,0-3.2-0.8-3.6,0c-7.6,26-45.6,32-45.6,32
		s-32.4-4.4-44.8-32c-0.4-0.8-3.2,0-3.2,0S70,299.2,70,428.8c45.2,47.6,108.8,77.6,179.2,79.2c0.8,0,1.6,0,2.4,0c0.8,0,1.6,0,2.4,0
		c0.8,0,1.6,0,2.4,0l0,0C328,507.2,392.4,477.2,438,428.8z"/>
	<path style="fill:#324A5E;" d="M352.8,154.8c-0.8-7.2-5.6-13.2-12.4-16c0-2.4,0.4-4.8,0.4-6.8c0-50.8-38.8-76.4-86.8-76.4
		s-86.8,25.6-86.8,76.4c0,2.4,0,4.8,0.4,6.8c-6.4,2.4-11.2,8.4-12.4,16l-5.6,47.2h208.8L352.8,154.8z"/>
</g>
<path style="fill:#2B3B4E;" d="M356,202H153.2c0.8-5.6,2.8-23.6,7.2-32c0,0,4.4-0.4,11.6-1.2c20.4-2,61.6-5.2,82.4-4
	c20.4-1.2,60.8,2,81.2,4c8,0.8,12.8,1.2,12.8,1.2C353.2,178.4,355.2,196.4,356,202z"/>
<path style="fill:#324A5E;" d="M339.6,170c0,0-59.6-6.8-84.8-5.2c-25.6-2-85.2,5.2-85.2,5.2c-4,8.4-6,26.4-6.4,32h89.2h4.4H346
	C345.2,196.4,343.2,178.4,339.6,170z"/>
<path style="fill:#2B3B4E;" d="M178,137.2c0,0,0.4,0,1.6-0.4c1.2-0.4,2.8-0.8,4.8-1.2c4-0.8,10-2,16.8-2.8c7.2-0.8,15.6-2,24.4-2.4
	c4.4-0.4,9.2-0.4,14-0.8c4.8,0,9.6-0.4,14.4-0.4s9.6,0,14.4,0.4c4.8,0,9.6,0.4,14,0.8c9.2,0.4,17.2,1.6,24.4,2.4
	c7.2,0.8,12.8,2,16.8,2.8c2,0.4,3.6,0.8,4.8,1.2c1.2,0.4,1.6,0.4,1.6,0.4s-2.4-0.4-6.4-1.2s-10-1.6-17.2-2.4
	c-7.2-0.8-15.6-1.6-24.4-2c-4.4-0.4-9.2-0.4-14-0.4s-9.6,0-14.4,0c-4.8,0-9.6,0-14.4,0c-4.8,0-9.2,0.4-14,0.4
	c-8.8,0.4-17.2,1.2-24.4,2c-3.6,0.4-6.8,0.8-9.6,1.2s-5.2,0.8-7.2,1.2C180.4,136.8,178,137.2,178,137.2z"/>
<circle style="fill:#E6E9EE;" cx="254" cy="116.4" r="4.4"/>
<path style="fill:#FFFFFF;" d="M336,171.2c0,10-1.2,20.4-3.2,30.8c-10,48-41.6,96-78.8,96s-68.8-48-78.8-96
	c-2-10.4-3.2-20.8-3.2-30.8c0-0.8,0-1.6,0-2.4c20.4-2,61.6-5.2,82.4-4c20.4-1.2,60.8,2,81.2,4C336,169.6,336,170.4,336,171.2z"/>
<g>
	<path style="fill:#54C0EB;" d="M336,164c-1.6-2-3.6-2.8-6.4-3.2l-75.6-2l-75.6,2.4c-2.4,0-4.8,1.2-6.4,3.2c-4.8,6.4-14.4,22-7.2,46
		c0.4,0.8,0.8,1.6,1.2,2.4c3.2,4.4,15.2,17.6,52,20.8c5.6,0.4,10.8-2.4,12.8-7.2c4-10,12.4-26.8,22.8-29.2
		c10.8,2.4,18.8,19.2,22.8,29.2c2,4.8,7.2,7.6,12.8,7.2c36.8-3.2,49.2-16.8,52.4-20.8c0.4-0.8,0.8-1.6,1.2-2.4
		C350.4,186.4,340.8,170.4,336,164z"/>
	<path style="fill:#54C0EB;" d="M343.2,210c-0.4,0.8-0.8,1.6-1.2,2.4c-2.8,4-13.2,15.6-44,20c-2,0.4-4,0.4-6,0.8c-0.8,0-1.6,0-2,0
		c-1.2,0-2.8,0-4-0.4c-2.8-0.4-5.6-2-7.2-4c-0.8-0.8-1.2-2-1.6-2.8c-4-10-12.4-26.8-22.8-29.2c-10.8,2.4-18.8,19.2-22.8,29.2
		c-2,4.8-7.2,7.6-12.8,7.2c-7.2-0.8-13.2-1.6-18.4-2.8c-1.6-0.4-3.6-0.8-5.2-1.2c-2-0.4-3.6-1.2-5.2-1.6c-2.8-0.8-5.2-2-7.6-3.2
		c-9.6-4.4-14-9.6-15.6-12c-0.4-0.8-0.8-1.6-1.2-2.4c-7.2-23.6,2.4-39.6,7.2-45.6c1.6-2,3.6-3.2,6.4-3.2l31.6-0.8l9.2-0.4h6h6
		l23.2-0.8l54.8,1.6l8.8,0.4h6h5.6l0,0c2.4,0,4.8,1.2,6.4,3.2C340.8,170.4,350.4,186.4,343.2,210z"/>
</g>
<g>
	<rect x="243.6" y="338" style="fill:#2B3B4E;" width="20.8" height="74.8"/>
	<path style="fill:#2B3B4E;" d="M298.8,301.6c0,0-3.2,18-44.4,36.4c0,0,30.8,19.2,36.4,34.8C290.4,372.8,318.8,334,298.8,301.6z"/>
	<path style="fill:#2B3B4E;" d="M209.6,301.6c0,0,3.2,18,44.4,36.4c0,0-30.8,19.2-36.4,34.8C217.6,372.8,189.2,334,209.6,301.6z"/>
	<circle style="fill:#2B3B4E;" cx="254" cy="359.2" r="4.8"/>
	<circle style="fill:#2B3B4E;" cx="254" cy="379.6" r="4.8"/>
	<circle style="fill:#2B3B4E;" cx="254" cy="400.4" r="4.8"/>
</g>
<g>
	<path style="fill:#84DBFF;" d="M317.6,160.8l-32,72c-2.8-0.4-5.6-2-7.2-4l30-68.4L317.6,160.8z"/>
	<path style="fill:#84DBFF;" d="M329.2,161.2L298,232c-2,0.4-4,0.4-6,0.8l31.6-72L329.2,161.2z"/>
	<path style="fill:#84DBFF;" d="M218.8,160l-29.6,67.2c-2.8-0.8-5.2-2-7.6-3.2l28.4-64H218.8z"/>
	<path style="fill:#84DBFF;" d="M230.8,159.6L199.6,230c-1.6-0.4-3.6-0.8-5.2-1.2l30.4-69.2H230.8z"/>
</g>
<g>
</g>
<g>
</g>
<g>
</g>
<g>
</g>
<g>
</g>
<g>
</g>
<g>
</g>
<g>
</g>
<g>
</g>
<g>
</g>
<g>
</g>
<g>
</g>
<g>
</g>
<g>
</g>
<g>
</g>
</svg>
