<?xml version="1.0" encoding="iso-8859-1"?>
<!-- Generator: Adobe Illustrator 19.0.0, SVG Export Plug-In . SVG Version: 6.00 Build 0)  -->
<svg version="1.1" id="Layer_1" xmlns="http://www.w3.org/2000/svg" xmlns:xlink="http://www.w3.org/1999/xlink" x="0px" y="0px"
	 viewBox="0 0 508 508" style="enable-background:new 0 0 508 508;" xml:space="preserve">
<circle style="fill:#F1543F;" cx="254" cy="254" r="254"/>
<path style="fill:#324A5E;" d="M438.4,428.8c-17.2-59.6-54.8-63.6-54.8-63.6c-49.2-23.6-78.4-56.4-80.8-59.2l0,0
	c-0.8-1.6-1.2-3.6-1.2-5.6h-95.2c-0.4,2-0.8,4-1.2,5.6l0,0c-2.4,2.8-31.6,35.6-80.4,59.2c0,0-38,4.4-54.8,63.6
	c45.2,47.6,108.8,77.6,179.2,79.2c0.8,0,1.6,0,2.4,0c0.8,0,1.6,0,2.4,0c0.8,0,2.4,0,2.4,0C328,507.2,392.4,477.2,438.4,428.8z"/>
<g>
	<path style="fill:#2B3B4E;" d="M389.2,365.6v103.6c-13.6,8.8-28.4,16-44,22V346.8c0-1.2,0.4-2.4,0.8-3.6c2-4.8,8.4-6.8,12.8-3.6
		l26.4,18.4C387.6,360,389.2,362.8,389.2,365.6z"/>
	<path style="fill:#2B3B4E;" d="M162.8,346.8v144.4c-15.6-6-30-13.2-44-22V365.6c0-2.8,1.2-5.6,3.6-7.2l26.4-18.4
		c4.8-3.2,10.8-1.2,12.8,3.6C162.4,344.4,162.8,345.6,162.8,346.8z"/>
	<path style="fill:#2B3B4E;" d="M336.4,196.4c0,0.4-0.4,0.8-0.4,1.2s0,0.8-0.4,1.2c-4.4,17.6-22.8,87.6-32.8,107.2
		c0,0-43.2,70.8-97.6,0l0,0c-10-19.6-28.4-89.6-32.8-107.2c0-0.4-0.4-0.8-0.4-1.2s-0.4-0.8-0.4-1.2c-2-7.2-3.2-14.4-3.2-22
		c0-1.2,0-2.4,0-4c2-44.4,39.2-78.8,83.6-78.8h3.6c44.4,0,81.6,34.4,83.6,78.8c0,1.2,0,2.4,0,4C339.6,181.6,338.4,189.2,336.4,196.4
		z"/>
</g>
<g>
	<path style="fill:#FFD05B;" d="M191.6,183.6c3.2,10,20.8,13.2,34,9.2s16.4-14,13.2-23.6c-3.2-10-11.2-16-24.4-12
		C201.6,161.2,188.8,174,191.6,183.6z"/>
	<path style="fill:#FFD05B;" d="M316.4,183.6c-3.2,10-20.8,13.2-34,9.2s-16.4-14-13.2-23.6c3.2-10,11.2-16,24.4-12
		C306.4,161.2,319.2,174,316.4,183.6z"/>
</g>
<g>
</g>
<g>
</g>
<g>
</g>
<g>
</g>
<g>
</g>
<g>
</g>
<g>
</g>
<g>
</g>
<g>
</g>
<g>
</g>
<g>
</g>
<g>
</g>
<g>
</g>
<g>
</g>
<g>
</g>
</svg>
