<?xml version="1.0" encoding="iso-8859-1"?>
<!-- Generator: Adobe Illustrator 19.0.0, SVG Export Plug-In . SVG Version: 6.00 Build 0)  -->
<svg version="1.1" id="Layer_1" xmlns="http://www.w3.org/2000/svg" xmlns:xlink="http://www.w3.org/1999/xlink" x="0px" y="0px"
	 viewBox="0 0 508 508" style="enable-background:new 0 0 508 508;" xml:space="preserve">
<circle style="fill:#FD8469;" cx="254" cy="254" r="254"/>
<path style="fill:#324A5E;" d="M166.4,492.4C192,502,220,507.2,248.8,508c0.8,0,1.6,0,2.4,0c0.8,0,1.6,0,2.4,0s1.6,0,2.4,0
	c30-0.4,58.4-6,84.8-15.6H166.4z"/>
<path style="fill:#FFD05B;" d="M307.2,350v-38.8c-3.6-2.4-6.8-6-8.4-10c-1.2-2.4-2-5.2-2.4-8.4l-4-53.6h-76.8l-2.8,40.4l0,0
	l-0.8,13.2c-0.4,8-5.2,14.8-11.6,18.8V350H307.2z"/>
<path style="fill:#FFFFFF;" d="M438,428.8c-45.6,48-110,78.4-181.6,79.2c-0.8,0-1.6,0-2.4,0c-0.8,0-1.6,0-2.4,0c-0.8,0-1.6,0-2.4,0
	c-70.4-1.2-134-31.6-179.2-79.2C70,299.6,205.2,306,205.2,306s0.8-0.4,2-0.4c0,1.2,4.4,19.6,46.8,38.8
	c43.6-19.6,46.8-38.8,46.8-38.8c0.8,0,1.6,0.4,1.6,0.4C304.4,308,438,300,438,428.8z"/>
<g>
	<path style="fill:#324A5E;" d="M378.8,475.2c8.4-4.8,16.4-10,24.4-15.6h-298c7.6,5.6,16,10.8,24.4,15.6H378.8z"/>
	<path style="fill:#324A5E;" d="M84,442.4h340.4c4.8-4.4,9.6-8.8,14-13.6c0-1.6,0-2.8,0-4.4H70c0,1.6,0,2.8,0,4.4
		C74.4,433.6,79.2,438,84,442.4z"/>
	<path style="fill:#324A5E;" d="M74,392c-1.2,5.2-2.4,11.2-3.2,17.2h366c-0.8-6-1.6-11.6-3.2-17.2H74z"/>
	<path style="fill:#324A5E;" d="M426,370.8c-3.2-6.8-6.8-12.8-11.2-18h-322c-4,5.2-7.6,11.2-10.8,18H426z"/>
	<path style="fill:#324A5E;" d="M396,334c-10.8-8-22.8-14-34.4-18h-66.4c-4,4.8-10.8,11.2-21.6,18H396z"/>
	<path style="fill:#324A5E;" d="M234.8,334c-10.8-6.8-17.6-12.8-21.6-18H144c-11.2,4-22.4,10-32.8,18H234.8z"/>
</g>
<path style="fill:#F9B54C;" d="M296.4,294.8c-12.4,14-27.2,22.8-42.8,22.8s-30-8.8-42.4-22.4c0-0.8,0.4-1.6,0.4-2l0.8-13.2l0,0
	l2.8-40.4h77.2l4,53.6C296.4,293.6,296.4,294,296.4,294.8z"/>
<path style="fill:#FFD05B;" d="M340.4,186.4c-2.4-1.2-4.8-1.2-7.6,0c0-0.8,0-2,0-2.8c0-54.4-35.6-74-79.2-74s-79.2,19.6-79.2,74
	c0,0.8,0,2,0,2.8c-2.8-1.2-5.2-1.2-7.6,0c-6.8,3.6-7.6,16.8-2,29.2c4.4,10.4,12,16.8,18,17.2c13.2,38.8,39.6,72.8,70.8,72.8
	c30.8,0,57.6-34,70.8-72.8c6.4,0,13.6-6.8,18-17.2C348,202.8,347.2,190,340.4,186.4z"/>
<path style="fill:#324A5E;" d="M336,158.8c2.4-8,3.6-16,3.6-24.8c0-47.2-38.4-85.6-85.6-85.6s-85.6,38-85.6,85.6
	c0,8.8,1.2,16.8,3.6,24.8H336z"/>
<path style="fill:#2B3B4E;" d="M326.8,187.2c-48-8.8-97.6-8.8-145.2,0c-2.8,0.4-5.6-0.8-6.4-3.2c-4-13.2-8-26.8-12-40
	c-0.8-2.4,1.2-4.8,4-5.2c57.2-10.4,116.4-10.4,173.6,0c2.8,0.4,4.8,2.8,4,5.2c-4,13.2-8,26.8-12,40
	C332.4,186.4,329.6,187.6,326.8,187.2z"/>
<g>
</g>
<g>
</g>
<g>
</g>
<g>
</g>
<g>
</g>
<g>
</g>
<g>
</g>
<g>
</g>
<g>
</g>
<g>
</g>
<g>
</g>
<g>
</g>
<g>
</g>
<g>
</g>
<g>
</g>
</svg>
