<?xml version="1.0" encoding="iso-8859-1"?>
<!-- Generator: Adobe Illustrator 19.0.0, SVG Export Plug-In . SVG Version: 6.00 Build 0)  -->
<svg version="1.1" id="Layer_1" xmlns="http://www.w3.org/2000/svg" xmlns:xlink="http://www.w3.org/1999/xlink" x="0px" y="0px"
	 viewBox="0 0 508 508" style="enable-background:new 0 0 508 508;" xml:space="preserve">
<circle style="fill:#90DFAA;" cx="254" cy="254" r="254"/>
<path style="fill:#F1543F;" d="M346,298c-22.8-14.4,2.4-82,13.6-109.6c4-9.2,6-19.2,6-29.2c2.4-103.2-74-98.4-74-98.4
	s-166-49.2-134,139.2c0,0,2.4,8.8-15.6,21.2c0,0,18-0.8,22-6.4c0,0-8,18.8-22,18.8c0,0,21.2,16.4,28,11.6c0,0-8,17.2-15.6,13.2
	c0,0,12.4,23.6,40.8,19.6l108.8-8.8L346,298z"/>
<path style="fill:#FFD05B;" d="M301.2,246.8H254l0,0h-47.2c0,0-22.4,124.8-62.8,140.8c0,0,86.8,0,109.6,0h0.4
	c22.8,0,109.6,0,109.6,0C323.6,371.6,301.2,246.8,301.2,246.8z"/>
<path style="fill:#324A5E;" d="M454.8,409.6c-16.8,22-37.2,40.8-60.4,56C354,492.4,306,508,254,508s-100-15.6-140.4-42
	c-23.2-15.2-43.6-34.4-60.4-56l0,0c18.4-80,130-76,130-76c10.4,14.4,33.2,25.2,70,25.2h1.2c36.8,0,59.6-10.4,70-25.2
	C324.8,334,436.4,330,454.8,409.6z"/>
<g>
	<path style="fill:#FFFFFF;" d="M454.8,409.6c-16.8,22-37.2,40.8-60.4,56c0-51.6,9.2-88.8,17.2-112
		C431.2,365.2,448.4,382.4,454.8,409.6z"/>
	<path style="fill:#FFFFFF;" d="M113.6,466c-23.2-15.2-43.6-34.4-60.4-56c6.4-27.2,23.2-44.4,43.2-56
		C104.8,376.8,113.6,414,113.6,466z"/>
</g>
<path style="fill:#F9B54C;" d="M310,284.8c-15.6,14.4-34.8,23.6-56,23.6s-40.4-9.2-56-23.6c5.6-21.6,8.8-38.4,8.8-38.4h94.4
	C301.2,246.8,304,263.2,310,284.8z"/>
<path style="fill:#FFD05B;" d="M342.8,214.4C342.8,214.8,342.8,214.8,342.8,214.4c0,0.4,0,0.4,0,0.4c-1.2,3.6-7.2,22.8-18,29.6
	c0.8-0.4,5.2-2,9.2-4.4c-15.6,31.6-45.6,56-80,56c-50.4,0-91.2-52.4-91.2-102.8c8-0.4,13.2-4,13.6-4.4l-6.4,8
	c22,4.4,50.4-14.8,53.2-16.8l-10.8,10.8c55.6-7.2,84.8-42.4,97.2-62.8c16,10,28,24.8,33.2,44l0,0c-1.6,3.6-3.6,6.8-6.8,10.4
	c0,0,6.4-0.8,7.6-4.4c-0.8,3.2-3.2,14.8-7.6,22.8c0,0,6.8-2,9.2-8c0,0-4,21.6-13.6,32.4C332,225.6,339.6,221.2,342.8,214.4z"/>
<path style="fill:#2B3B4E;" d="M355.6,202.8c-4,0-7.6-3.2-7.6-7.6V144c0-51.6-42-94-94-94s-94,42.4-94,94v50.8c0,4-3.2,7.6-7.6,7.6
	c-4,0-7.6-3.2-7.6-7.6V144c0-60,48.8-109.2,109.2-109.2S363.2,84,363.2,144v50.8C363.2,199.2,360,202.8,355.6,202.8z"/>
<g>
	<path style="fill:#324A5E;" d="M160.8,238.8L160.8,238.8c-12,0-21.6-9.6-21.6-21.6V172c0-12,9.6-21.6,21.6-21.6l0,0
		c12,0,21.6,9.6,21.6,21.6v45.2C182.4,229.2,172.8,238.8,160.8,238.8z"/>
	<path style="fill:#324A5E;" d="M347.2,238.8L347.2,238.8c-12,0-21.6-9.6-21.6-21.6V172c0-12,9.6-21.6,21.6-21.6l0,0
		c12,0,21.6,9.6,21.6,21.6v45.2C368.8,229.2,359.2,238.8,347.2,238.8z"/>
</g>
<path style="fill:#2B3B4E;" d="M339.2,167.2c-1.6-2-4-3.2-6.4-3.6l-78.8-2.4l-78.8,2.4c-2.8,0-4.8,1.2-6.4,3.6
	c-5.2,6.8-15.2,24.8-7.6,51.2c0.4,0.8,0.8,1.6,1.2,2.8c3.2,4.8,16,19.6,54.4,23.2c5.6,0.4,11.2-2.8,13.2-8c4.4-11.2,12.8-30,24-32.8
	c11.2,2.8,19.6,21.6,24,32.8c2,5.6,7.6,8.8,13.2,8c38.4-3.6,51.2-18.4,54.4-23.2c0.4-0.8,0.8-1.6,1.2-2.4
	C354.4,192,344.4,174,339.2,167.2z"/>
<path style="fill:#84DBFF;" d="M289.6,238c-3.2,0-5.6-1.6-6.8-4.4c-8-21.2-17.2-33.2-27.6-36H254l-1.2,0.4
	c-10.4,2.8-19.6,14.8-27.6,36c-0.8,2.8-3.6,4.4-6.8,4.4C182,234.8,170.8,222,168,218l-0.8-2c-6.4-23.2,2.8-39.2,6.8-44.8
	c0.4-0.8,1.2-1.2,2-1.2l78-2.8l77.6,2.4c0.8,0,1.6,0.4,2,1.2c4.4,5.6,13.2,21.6,6.4,45.6l-0.4,0.4l-0.4,1.2
	c-2,3.2-13.6,16.4-49.2,19.6L289.6,238z"/>
<g>
	<path style="fill:#54C0EB;" d="M315.6,169.2l-34.4,61.2c-0.8-2-1.6-4-2.4-6l31.2-55.2H315.6z"/>
	<path style="fill:#54C0EB;" d="M333.2,170.4l-37.6,66.8c-1.6,0.4-3.2,0.8-5.2,0.8h-0.8c-2.4,0-4.8-1.2-6-3.2l36.4-65.2l11.6,0.4
		C332.4,169.6,332.8,170,333.2,170.4z"/>
	<path style="fill:#54C0EB;" d="M214.4,168.4L181.2,228c-1.6-0.8-3.2-1.6-4.4-2.8l31.6-56.8H214.4z"/>
	<path style="fill:#54C0EB;" d="M232.8,168l-37.2,66c-4.4-1.2-8.4-2.8-11.6-4.4l34.4-61.2L232.8,168z"/>
</g>
<g>
</g>
<g>
</g>
<g>
</g>
<g>
</g>
<g>
</g>
<g>
</g>
<g>
</g>
<g>
</g>
<g>
</g>
<g>
</g>
<g>
</g>
<g>
</g>
<g>
</g>
<g>
</g>
<g>
</g>
</svg>
