<?xml version="1.0" encoding="iso-8859-1"?>
<!-- Generator: Adobe Illustrator 19.0.0, SVG Export Plug-In . SVG Version: 6.00 Build 0)  -->
<svg version="1.1" id="Layer_1" xmlns="http://www.w3.org/2000/svg" xmlns:xlink="http://www.w3.org/1999/xlink" x="0px" y="0px"
	 viewBox="0 0 508 508" style="enable-background:new 0 0 508 508;" xml:space="preserve">
<circle style="fill:#FFD05B;" cx="254" cy="254" r="254"/>
<path style="fill:#324A5E;" d="M339.2,121.6C312.8,114,284,110,254,110s-58.8,4-85.2,11.6c12-68.8,45.6-95.2,85.2-95.2
	S327.2,52.8,339.2,121.6z"/>
<path style="fill:#2B3B4E;" d="M444.4,172c0,63.6-85.2,115.2-190.4,115.2S63.6,235.6,63.6,172c0-48.8,50-90.4,120.4-107.2
	c21.6-5.2,45.2-8,69.6-8s48,2.8,69.6,8C394.4,81.6,444.4,123.2,444.4,172z"/>
<g>
	<path style="fill:#FFFFFF;" d="M307.6,350v-38.8c-3.6-2.4-6.8-6-8.4-10c-1.2-2.4-2-5.2-2.4-8.4l-4-53.6H216l-2.8,40.4l0,0
		l-0.8,13.2c-0.4,8-5.2,14.8-11.6,18.8V350H307.6z"/>
	<path style="fill:#FFFFFF;" d="M438,428.8c-45.6,48-110,78.4-181.6,79.2c-0.8,0-1.6,0-2.4,0c-0.8,0-1.6,0-2.4,0c-0.8,0-1.6,0-2.4,0
		c-70.4-1.2-134-31.6-179.2-79.2C70,299.6,205.2,306,205.2,306s0.8-0.4,2-0.4c0,1.2,4.4,19.6,46.8,38.8
		c43.6-19.6,46.8-38.8,46.8-38.8c0.8,0,1.6,0.4,1.6,0.4C304.4,308,438,300,438,428.8z"/>
	<path style="fill:#FFFFFF;" d="M438,428.8c-45.6,48-110,78.4-181.6,79.2c-0.8,0-1.6,0-2.4,0c-0.8,0-1.6,0-2.4,0c-0.8,0-1.6,0-2.4,0
		c-70.4-1.2-134-31.6-179.2-79.2c0-68.4,38-98.8,73.6-112.4c4.8-2,9.6-3.2,14.4-4.4c26-7.2,47.6-6,47.6-6s0.8-0.4,2-0.4
		c0,1.2,4.4,19.6,46.8,38.8c43.6-19.6,46.8-38.8,46.8-38.8c0.8,0,1.6,0.4,1.6,0.4c0.8,0.8,22,0,47.6,6.8c4.8,1.2,9.6,2.8,14.4,4.4
		C400.4,330.4,438,360.4,438,428.8z"/>
</g>
<path style="fill:#E6E9EE;" d="M295.6,276.8c-2.8,1.2-6,2-8.8,2.4c-22,3.2-44.4,3.2-66.4,0c-2.4-0.4-4.8-0.8-7.2-2l2.8-36.8h77.2
	L295.6,276.8z"/>
<g>
	<path style="fill:#FFFFFF;" d="M336.8,190.8c-4,10.4-10.8,17.6-16.4,18.4c-3.6,12-8.8,26-14.8,41.2c-4.8,12-13.6,20.4-24,22.4
		c-18.4,3.6-37.2,3.6-55.6,0c-10.4-2-19.2-10.4-24-22.4c-6-15.2-10.8-29.2-14.8-41.2c-5.6-0.8-12.4-7.6-16.4-18.4
		c-5.2-13.6-4.4-27.6,2-31.2c2-1.2,4.4-1.2,7.2,0c0-1.2,0-2,0-3.2c0-12,1.2-22.4,4-31.2c21.6-3.6,45.2-5.6,69.6-5.6s48,2,69.6,5.6
		c2.8,8.8,4,19.2,4,31.2c0,1.2,0,2,0,3.2c2.4-1.2,4.8-1.2,7.2,0C340.8,163.2,342,177.2,336.8,190.8z"/>
	<path style="fill:#FFFFFF;" d="M192.8,222c0,0.8,0,1.6,0,2.4c-1.2-3.2-2-6.4-3.2-9.2l0,0c-1.6-11.6-6-20.4-11.6-20.4l0,0
		c-0.8,0-1.2-0.4-1.2-1.2s0.8-1.2,1.2-1.2C186.4,192,192.8,205.2,192.8,222z"/>
	<path style="fill:#FFFFFF;" d="M331.6,193.6c0,0.8-0.4,1.2-1.2,1.2c-3.2,0-6.4,3.2-8.4,8c-1.6,3.2-2.8,7.6-3.2,12l0,0
		c-0.8,2.8-2,6-3.2,9.2c0-0.8,0-1.6,0-2.4c0-16.8,6.4-30,14.8-30C330.8,192,331.6,192.8,331.6,193.6z"/>
	<path style="fill:#FFFFFF;" d="M174.8,194.4c0.4,0.4,0.4,1.6-0.4,2l-0.4,0.4c-0.4-0.8-0.8-1.6-1.2-2.4l0,0
		C173.2,193.6,174.4,193.6,174.8,194.4z"/>
	<path style="fill:#FFFFFF;" d="M192.8,222c0,0.8,0,1.6,0,2.4c-1.2-3.2-2-6.4-3.2-9.2c-1.6-11.6-6-20.4-11.6-20.4l0,0
		c-0.8,0-1.2-0.4-1.2-1.2s0.8-1.2,1.2-1.2C186.4,192,192.8,205.2,192.8,222z"/>
	<path style="fill:#FFFFFF;" d="M331.6,193.6c0,0.8-0.4,1.2-1.2,1.2c-3.2,0-6.4,3.2-8.4,8c-1.6,3.2-2.8,7.6-3.2,12.4
		c-0.8,2.8-2,6-3.2,9.2c0-0.8,0-1.6,0-2.4c0-16.8,6.4-30,14.8-30C330.8,192,331.6,192.8,331.6,193.6z"/>
</g>
<path style="fill:#FF7058;" d="M364.4,317.2l-5.2,118L340,434l10.4-121.6C354.8,314,359.6,315.6,364.4,317.2z"/>
<path style="fill:#4CDBC4;" d="M438,428.8c-45.6,48-110,78.4-181.6,79.2c-0.8,0-1.6,0-2.4,0c-0.8,0-1.6,0-2.4,0c-0.8,0-1.6,0-2.4,0
	c-70.4-1.2-134-31.6-179.2-79.2c0-28,6.4-49.6,16-66c36,27.6,98,50.8,168,60.8c80,11.2,149.6,2,182-21.2
	C437.6,410.4,438,419.2,438,428.8z"/>
<g>
	<path style="fill:#FF7058;" d="M344.8,222.4c0,8-1.6,15.2-4,20.8c-2.8,6-6.4,9.2-10.8,9.2l0,0c-4,0-8-3.2-10.8-9.2
		c-2.4-5.2-3.6-11.6-4-18.4l0,0c0-0.8,0-1.6,0-2.4c0-16.8,6.4-30,14.8-30c0.8,0,1.2,0.4,1.2,1.2s-0.4,1.2-1.2,1.2
		c-3.2,0-6.4,3.2-8.4,8c-1.6,3.2-2.8,7.6-3.2,12l0,0c-0.4,2.4-0.4,4.8-0.4,7.2c0,7.6,1.2,14.4,3.6,19.6c2.4,4.8,5.2,7.6,8.4,7.6l0,0
		c2.8,0,6-2.8,8.4-7.6c2.4-5.2,4-12.4,4-19.6c0-11.2-3.2-21.6-8-25.6c0.4-0.8,0.8-1.6,1.2-2.4C340.8,198.4,344.8,209.6,344.8,222.4z
		"/>
	<path style="fill:#FF7058;" d="M192.8,222c0,0.8,0,1.6,0,2.4l0,0c-0.4,6.8-1.6,13.2-4,18.4c-2.8,6-6.4,9.2-10.8,9.2l0,0
		c-8.4,0-14.8-13.2-14.8-30c0-12.8,3.6-24,9.2-28c0.4,0.8,0.8,1.6,1.2,2.4c-4.8,4-8,14.4-8,25.6c0,14.8,5.6,27.2,12,27.2
		c2.8,0,6-2.8,8.4-7.6c2.4-5.2,3.6-12.4,3.6-19.6c0-2.4,0-4.8-0.4-6.8l0,0c-1.6-11.6-6-20.4-11.6-20.4l0,0c-0.8,0-1.2-0.4-1.2-1.2
		s0.8-1.2,1.2-1.2C186.4,192,192.8,205.2,192.8,222z"/>
</g>
<g>
</g>
<g>
</g>
<g>
</g>
<g>
</g>
<g>
</g>
<g>
</g>
<g>
</g>
<g>
</g>
<g>
</g>
<g>
</g>
<g>
</g>
<g>
</g>
<g>
</g>
<g>
</g>
<g>
</g>
</svg>
