<?xml version="1.0" encoding="iso-8859-1"?>
<!-- Generator: Adobe Illustrator 19.0.0, SVG Export Plug-In . SVG Version: 6.00 Build 0)  -->
<svg version="1.1" id="Layer_1" xmlns="http://www.w3.org/2000/svg" xmlns:xlink="http://www.w3.org/1999/xlink" x="0px" y="0px"
	 viewBox="0 0 508 508" style="enable-background:new 0 0 508 508;" xml:space="preserve">
<circle style="fill:#FFD05B;" cx="254" cy="254" r="254"/>
<path style="fill:#324A5E;" d="M358,187.6c0,51.6-46.8,236-104,236c-57.6,0-104-184.4-104-236s46.8-96.8,104-96.8
	C311.6,90.8,358,136,358,187.6z"/>
<path style="fill:#FF7058;" d="M449.6,416c-46.4,56.4-116.8,92-195.6,92s-149.2-36-195.6-92c20.8-37.2,49.2-40.4,49.2-40.4
	c56-26.8,89.2-64.8,91.6-67.2h110.4c2,2.4,35.6,40.4,91.6,67.2C400.8,375.6,428.8,378.8,449.6,416z"/>
<path style="fill:#FFFFFF;" d="M309.2,308c-1.2-20.8-2.8-42.8-4.8-66.8c-33.6,0-66.8,0-100.4,0c-1.6,18.8-2.8,36.8-4,53.6l0,0
	c-0.4,4.4-0.4,8.8-0.8,13.2C225.2,347.2,282.8,347.2,309.2,308z"/>
<path style="fill:#E6E9EE;" d="M308,292c-15.6,16-34,26-54,26c-19.6,0-38.4-10-54-26c1.2-16,2.4-32.8,4-50.8h100.4
	C305.6,258.8,307.2,276,308,292z"/>
<g>
	<path style="fill:#FFFFFF;" d="M178.4,143.2c-4.8,10.4-8,23.2-8,38.8c0,57.2,37.6,129.2,83.6,129.2s83.6-72,83.6-129.2
		c0-15.6-2.8-28.4-8-38.8L178.4,143.2L178.4,143.2z"/>
	<path style="fill:#FFFFFF;" d="M352,216.8c-6,13.6-16.4,21.2-23.6,17.2s-8-18-2-31.2c6-13.6,16.4-21.2,23.6-17.2
		C357.2,189.2,358,203.2,352,216.8z"/>
</g>
<path style="fill:#324A5E;" d="M380,362.8v110.8c-37.2,22-80.4,34.4-126.4,34.4s-89.2-12.4-126.4-34.4V362.8
	c9.2-5.2,17.2-10.8,24.8-16V432h203.2v-85.2C362.8,352,370.8,357.6,380,362.8z"/>
<g>
	<polygon style="fill:#FFD05B;" points="258.8,134 249.2,134 254,130 	"/>
	<path style="fill:#FFD05B;" d="M173.2,104.8c-8.8,14-14.4,30.4-15.6,48.4h193.2c-1.6-18-7.2-34.4-15.6-48.4c1.6-3.6,2.8-7.2,4-10.4
		c2-6,1.2-11.2-2.4-14.4l-5.6-5.2c-3.2-3.2-8.8-3.2-14.4-0.8c-2,0.8-4,2-6.4,3.2c-7.2-5.6-15.2-10-23.6-13.2
		c-4.8-2-9.6-3.2-14.4-4.4c-0.8-2.8-2-5.6-3.2-8c-2.4-5.6-6.8-9.2-11.2-9.2h-8c-4.4,0-8.8,3.6-11.2,9.2c-1.2,2.4-2,5.2-3.2,8
		c-4.8,0.8-9.6,2.4-14.4,4.4c-8.4,3.2-16.4,7.6-23.6,13.2c-2-1.2-4.4-2.4-6.4-3.2c-5.6-2.8-11.2-2.4-14.4,0.8l-5.6,5.2
		c-3.2,3.2-4.4,8.4-2.4,14.4C170,97.6,171.6,101.2,173.2,104.8z"/>
</g>
<path style="fill:#FF7058;" d="M350.8,153.2H157.2c0.4-4,0.8-7.6,1.6-11.6c2.4-13.6,7.2-26,14-37.2c-1.6-3.6-2.8-7.2-4-10.4
	c-2-6-1.2-11.2,2.4-14.4l5.6-5.2c3.2-3.2,8.8-3.2,14.4-0.8c2,0.8,4,2,6.4,3.2c7.2-5.6,15.2-10,23.6-13.2c4.8-2,9.6-3.2,14.4-4.4
	c0.8-2.8,2-5.6,3.2-8c2.4-5.6,6.8-9.2,11.2-9.2h8c4.4,0,8.8,3.6,11.2,9.2c1.2,2.4,2,5.2,3.2,8c4.8,0.8,9.6,2.4,14.4,4.4
	c8.4,3.2,16.4,7.6,23.6,13.2c2-1.2,4.4-2.4,6.4-3.2c5.6-2.8,11.2-2.4,14.4,0.8l5.6,5.2c3.2,3.2,4.4,8.4,2.4,14.4
	c-1.2,3.2-2.4,6.8-4,10.4c6.8,10.8,11.6,23.6,14,37.2C350,145.6,350.4,149.2,350.8,153.2z"/>
<path style="fill:#F1543F;" d="M350.8,153.2H157.2c0.4-4,0.8-7.6,1.6-11.6h190.4C350,145.6,350.4,149.2,350.8,153.2z"/>
<g>
	<path style="fill:#324A5E;" d="M162.8,174.4v86.4l14.4,19.6c12.8-58.4,46.4-96.4,55.6-106H162.8z"/>
	<path style="fill:#324A5E;" d="M338,186.8c0,0-11.2,18.8-5.2,30c0,0-27.2-15.2-35.2-40l40.4,0.4l5.6,2.8L338,186.8z"/>
</g>
<path style="fill:#FF7058;" d="M350,177.6H158c-7.6,0-14-6-14-14l0,0c0-7.6,6-14,14-14h192c7.6,0,14,6,14,14l0,0
	C364,171.2,358,177.6,350,177.6z"/>
<g>
</g>
<g>
</g>
<g>
</g>
<g>
</g>
<g>
</g>
<g>
</g>
<g>
</g>
<g>
</g>
<g>
</g>
<g>
</g>
<g>
</g>
<g>
</g>
<g>
</g>
<g>
</g>
<g>
</g>
</svg>
