<?xml version="1.0" encoding="iso-8859-1"?>
<!-- Generator: Adobe Illustrator 19.0.0, SVG Export Plug-In . SVG Version: 6.00 Build 0)  -->
<svg version="1.1" id="Layer_1" xmlns="http://www.w3.org/2000/svg" xmlns:xlink="http://www.w3.org/1999/xlink" x="0px" y="0px"
	 viewBox="0 0 508 508" style="enable-background:new 0 0 508 508;" xml:space="preserve">
<circle style="fill:#FD8469;" cx="254" cy="254" r="254"/>
<path style="fill:#FFD05B;" d="M456.8,407.2C410.4,468.4,336.8,508,254,508c-2.8,0-5.6,0-8.4,0c-79.2-2.4-149.6-41.6-194-100.8
	c20.8-50.8,56-54.8,56-54.8c56-26.8,89.2-64.8,91.6-67.2h110.4c2,2.4,35.6,40.4,91.6,67.2C400.8,352.4,435.6,356.4,456.8,407.2z"/>
<path style="fill:#FFFFFF;" d="M309.2,285.2c-1.2-20.8-2.8-43.2-4.8-67.2c-33.6,0-66.8,0-100.4,0c-1.6,18.8-2.8,36.8-4,53.6l0,0
	c-0.4,4.4-0.4,8.8-0.8,13.2C225.2,324,282.8,324,309.2,285.2z"/>
<path style="fill:#E6E9EE;" d="M308,268.8c-15.6,16-34.4,26-54,26s-38.4-10-54-26c1.2-16,2.4-32.8,4-50.8h100.4
	C305.6,236,307.2,252.8,308,268.8z"/>
<g>
	<path style="fill:#FFFFFF;" d="M178.4,120.4c-4.8,10.4-8,23.2-8,38.8c0,57.2,37.6,129.2,83.6,129.2s83.6-72,83.6-129.2
		c0-15.6-2.8-28.4-8-38.8C329.6,120.4,178.4,120.4,178.4,120.4z"/>
	<path style="fill:#FFFFFF;" d="M352,193.6c-6,13.6-16.4,21.2-23.6,17.2s-8-18-2-31.2c6-13.6,16.4-21.2,23.6-17.2
		C357.2,166.4,358,180.4,352,193.6z"/>
	<path style="fill:#FFFFFF;" d="M156,193.6c6,13.6,16.4,21.2,23.6,17.2c7.2-4,8-18,2-31.2c-6-13.6-16.4-21.2-23.6-17.2
		C150.8,166.4,150,180.4,156,193.6z"/>
</g>
<g>
	<path style="fill:#324A5E;" d="M380.8,342v132.4C343.6,496,300.4,508,254,508c-2.8,0-5.6,0-8.4,0c-42.8-1.2-83.2-13.6-118-33.6V342
		c9.2-5.2,17.2-10.4,24.8-16v84H356v-84C363.2,331.2,371.6,336.8,380.8,342z"/>
	<path style="fill:#324A5E;" d="M159.6,122.8c-1.2,6.4-2,13.2-2,20s0.8,13.2,2,19.6l0,0c2.8,13.2,8.4,25.6,16,36
		c-3.2-13.2-5.2-42.4-4.8-44.4c1.2-16,17.6-26.4,32.8-20.4c13.6,5.6,31.2,8.8,50.4,8.8s36.8-3.2,50.4-8.8c15.2-6,32,4.4,32.8,20.8
		c0,1.2-1.6,30.8-4.8,43.6c8-10.4,13.2-22.8,16-36l0,0c1.2-6.4,2-12.8,2-19.6s-0.8-13.6-2-20H159.6V122.8z"/>
</g>
<g>
	<polygon style="fill:#FFD05B;" points="258.8,111.2 249.2,111.2 254,106.8 	"/>
	<path style="fill:#FFD05B;" d="M173.2,81.6c-8.8,14-14.4,30.4-15.6,48.4h193.2c-1.6-18-7.2-34.4-15.6-48.4c1.6-3.6,2.8-7.2,4-10.4
		c2-6,1.2-11.2-2.4-14.4l-5.6-5.2c-3.2-3.2-8.8-3.2-14.4-0.8c-2,0.8-4,2-6.4,3.2c-7.2-5.6-15.2-10-23.6-13.2
		c-4.8-2-9.6-3.2-14.4-4.4c-0.8-2.8-2-5.6-3.2-8c-2.4-5.6-6.8-9.2-11.2-9.2h-8c-4.4,0-8.8,3.6-11.2,9.2c-1.2,2.4-2,5.2-3.2,8
		c-4.8,0.8-9.6,2.4-14.4,4.4c-8.4,3.2-16.4,7.6-23.6,13.2c-2-1.2-4.4-2.4-6.4-3.2c-5.6-2.8-11.2-2.4-14.4,0.8l-5.6,5.2
		c-3.2,3.2-4.4,8.4-2.4,14.4C170,74.8,171.6,78,173.2,81.6z"/>
	<path style="fill:#FFD05B;" d="M350.8,130H157.2c0.4-4,0.8-7.6,1.6-11.6c2.4-13.6,7.2-26,14-37.2c-1.6-3.6-2.8-7.2-4-10.4
		c-2-6-1.2-11.2,2.4-14.4l5.6-5.2c3.2-3.2,8.8-3.2,14.4-0.8c2,0.8,4,2,6.4,3.2c7.2-5.6,15.2-10,23.6-13.2c4.8-2,9.6-3.2,14.4-4.4
		c0.8-2.8,2-5.6,3.2-8c2.4-5.6,6.8-9.2,11.2-9.2h8c4.4,0,8.8,3.6,11.2,9.2c1.2,2.4,2,5.2,3.2,8c4.8,0.8,9.6,2.4,14.4,4.4
		c8.4,3.2,16.4,7.6,23.6,13.2c2-1.2,4.4-2.4,6.4-3.2c5.6-2.8,11.2-2.4,14.4,0.8l5.6,5.2c3.2,3.2,4.4,8.4,2.4,14.4
		c-1.2,3.2-2.4,6.8-4,10.4c6.8,10.8,11.6,23.6,14,37.2C350,122.4,350.4,126.4,350.8,130z"/>
</g>
<path style="fill:#F9B54C;" d="M350.8,130H157.2c0.4-4,0.8-7.6,1.6-11.6h190.4C350,122.4,350.4,126.4,350.8,130z"/>
<path style="fill:#FFD05B;" d="M350,154.4H158c-7.6,0-14-6-14-14l0,0c0-7.6,6-14,14-14h192c7.6,0,14,6,14,14l0,0
	C364,148,358,154.4,350,154.4z"/>
<g>
</g>
<g>
</g>
<g>
</g>
<g>
</g>
<g>
</g>
<g>
</g>
<g>
</g>
<g>
</g>
<g>
</g>
<g>
</g>
<g>
</g>
<g>
</g>
<g>
</g>
<g>
</g>
<g>
</g>
</svg>
